<svg width="154" height="154" viewBox="0 0 154 154" fill="none" xmlns="http://www.w3.org/2000/svg">
<path d="M86.2956 116.053C86.2367 116.069 86.1866 116.108 86.1564 116.161C86.1262 116.214 86.1184 116.277 86.1346 116.336C86.1509 116.395 86.1899 116.445 86.2431 116.476C86.2963 116.506 86.3593 116.514 86.4183 116.497C88.3553 116.073 90.1713 115.216 91.7303 113.991C97.6556 109.614 97.349 103.405 100.722 97.725C103.42 93.3941 105.788 93.8923 105.605 93.3328C105.598 93.3107 105.586 93.2902 105.571 93.2726C105.556 93.2551 105.538 93.2408 105.517 93.2307C105.496 93.2207 105.473 93.215 105.45 93.2141C105.427 93.2132 105.404 93.2171 105.382 93.2255C94.7734 97.1271 100.768 111.04 86.2956 116.053ZM129.229 102.424C129.528 102.11 129.827 101.78 130.118 101.45C132.372 98.7138 133.951 94.4749 133.798 91.3551C133.794 91.3215 133.781 91.2896 133.76 91.2629C133.739 91.2362 133.711 91.2158 133.679 91.2039C133.648 91.192 133.613 91.1891 133.58 91.1955C133.547 91.2019 133.516 91.2174 133.491 91.2402C133.261 91.4624 133.905 92.6889 132.287 96.5522C130.754 100.216 129.413 101.151 127.903 102.861C126.55 104.423 125.522 106.238 124.878 108.202C124.235 110.166 123.989 112.238 124.155 114.297C124.163 114.341 124.187 114.38 124.221 114.408C124.255 114.436 124.298 114.451 124.342 114.451C124.387 114.451 124.429 114.436 124.464 114.408C124.498 114.38 124.521 114.341 124.53 114.297C124.478 112.104 124.867 109.923 125.674 107.883C126.481 105.844 127.69 103.987 129.229 102.424ZM61.9276 69.325C62.6941 68.7961 62.6405 67.1788 61.9276 66.5809C61.726 66.4182 61.491 66.3019 61.2394 66.2403C60.9878 66.1787 60.7256 66.1733 60.4717 66.2246C60.2177 66.2758 59.9782 66.3824 59.7701 66.5367C59.562 66.691 59.3905 66.8893 59.2677 67.1174C59.1255 67.4741 59.0999 67.8666 59.1946 68.2387C59.2893 68.6108 59.4994 68.9433 59.7949 69.1885C60.0903 69.4337 60.4559 69.579 60.839 69.6036C61.2222 69.6281 61.6033 69.5306 61.9276 69.325ZM59.8196 67.5697C60.0496 66.6958 61.5597 66.5732 61.7896 67.447C61.9429 68.0449 61.8739 68.4665 61.5673 68.6965C61.383 68.8111 61.1735 68.8787 60.957 68.8934C60.7404 68.9081 60.5236 68.8694 60.3256 68.7808C60.1181 68.6644 59.9557 68.4819 59.864 68.2624C59.7723 68.0429 59.7567 67.7991 59.8196 67.5697ZM88.12 55.1442C88.0905 55.1421 88.0609 55.1461 88.0331 55.1559C88.0053 55.1658 87.9798 55.1813 87.9582 55.2014C87.9366 55.2215 87.9194 55.2459 87.9077 55.273C87.8959 55.3001 87.8899 55.3293 87.89 55.3589C87.89 56.1254 86.5946 56.8919 86.3569 56.9686C86.3112 56.9798 86.2718 57.0086 86.2473 57.0489C86.2229 57.0891 86.2154 57.1375 86.2266 57.1832C86.2378 57.2289 86.2667 57.2684 86.307 57.2928C86.3472 57.3172 86.3955 57.3247 86.4413 57.3135C88.4572 56.8996 88.7638 55.1289 88.12 55.1442ZM85.4294 53.9714C85.3375 53.9178 84.9312 53.6188 84.7855 53.5039C84.7855 53.4042 85.1458 52.1241 85.2148 51.8788C85.2838 51.6335 84.9695 51.5722 84.8852 51.7715C84.5645 52.3929 84.3077 53.0452 84.1187 53.7185C84.18 53.9408 85.2455 54.2321 85.3221 54.2321C85.3541 54.2364 85.3865 54.23 85.4145 54.214C85.4424 54.1979 85.4642 54.173 85.4765 54.1432C85.4887 54.1134 85.4908 54.0804 85.4823 54.0493C85.4737 54.0182 85.4552 53.9908 85.4294 53.9714ZM82.8999 49.8628C82.8889 49.7966 82.8547 49.7364 82.8035 49.6929C82.7522 49.6495 82.6873 49.6257 82.6201 49.6257C82.5529 49.6257 82.4879 49.6495 82.4367 49.6929C82.3855 49.7364 82.3513 49.7966 82.3403 49.8628C82.3111 50.3913 82.3111 50.921 82.3403 51.4496C82.3883 51.5281 82.4612 51.5884 82.5474 51.621C82.6335 51.6535 82.7281 51.6563 82.8161 51.629C82.904 51.6018 82.9804 51.5459 83.033 51.4704C83.0857 51.3948 83.1117 51.3039 83.1068 51.2119C83.0007 50.7687 82.9314 50.3175 82.8999 49.8628ZM88.2579 51.2043C88.1596 50.7647 88.0905 50.3192 88.051 49.8705C88.051 49.7953 88.0211 49.7231 87.9679 49.67C87.9147 49.6168 87.8426 49.5869 87.7673 49.5869C87.6921 49.5869 87.62 49.6168 87.5668 49.67C87.5136 49.7231 87.4837 49.7953 87.4837 49.8705C87.4559 50.3811 87.4559 50.8929 87.4837 51.4036C87.488 51.4629 87.5053 51.5206 87.5343 51.5725C87.5634 51.6244 87.6035 51.6694 87.6518 51.7041C87.7001 51.7388 87.7555 51.7625 87.8139 51.7735C87.8724 51.7845 87.9326 51.7825 87.9902 51.7677C88.0478 51.7528 88.1015 51.7255 88.1474 51.6877C88.1933 51.6498 88.2303 51.6023 88.2559 51.5486C88.2814 51.4949 88.2948 51.4362 88.2952 51.3767C88.2955 51.3172 88.2828 51.2583 88.2579 51.2043Z" fill="black"/>
<path d="M148.247 40.7642C148.193 35.9887 146.591 34.103 141.647 34.2486C140.236 34.2486 115.086 34.5016 113.285 34.5629C112.077 34.5632 110.883 34.8111 109.774 35.2911C109.138 35.5441 105.811 37.2074 105.443 38.089C105.045 38.7175 105.512 56.6237 105.443 60.3184C104.911 60.0151 104.363 59.7388 103.803 59.4905C103.702 58.987 103.487 58.5132 103.175 58.1054C102.863 57.6976 102.461 57.3665 102.002 57.1372C101.297 56.8613 100.392 57.1909 99.8708 56.6927C99.3495 56.1944 100.285 55.9261 100.384 55.1596C100.381 54.6281 100.32 54.0985 100.2 53.5805C99.7383 50.8019 99.093 48.0568 98.2687 45.3633C97.5788 43.1481 96.8583 41.2701 94.873 40.0666C94.873 36.3413 94.4974 14.5105 94.2904 13.353C94.0863 12.2107 93.4771 11.1803 92.5746 10.4509C91.672 9.72155 90.5367 9.34216 89.377 9.38239C89.3003 9.38239 36.5477 9.38239 36.4863 9.44371C34.3784 10.7008 33.8112 13.5063 33.6732 15.576C33.6272 16.6108 34.5317 37.5064 34.892 44.1446C31.159 44.2212 12.3023 44.7271 11.2215 45.302C8.77627 45.8999 6.07042 47.6016 5.54151 50.3688C5.2119 52.1471 5.87878 86.3114 6.10108 87.9288C6.26027 89.6757 7.04086 91.3076 8.30102 92.528C9.67311 93.7314 11.5434 93.9537 13.1915 94.015L48.1683 93.3558C44.7495 101.098 40.8096 112.074 38.2034 118.904C38.1911 118.924 38.1846 118.946 38.1846 118.969C38.1846 118.992 38.1911 119.015 38.2034 119.035C38.9087 119.727 39.6788 120.351 40.503 120.897C39.2535 125.167 39.3915 125.404 39.1156 125.749C36.747 128.655 33.8878 130.349 31.067 130.625C29.7562 130.77 28.4608 131 28.0009 132.273C27.6253 133.43 28.6217 134.204 29.7869 134.526C30.5534 134.733 35.7811 135.891 36.5553 135.983C37.2414 136.098 37.9452 135.941 38.5177 135.546C39.0696 135.139 40.8862 132.993 41.5838 132.349C40.319 138.481 39.4375 136.527 42.45 137.838C42.492 137.86 42.5385 137.873 42.5862 137.875C42.6338 137.877 42.6813 137.869 42.7253 137.851C42.7693 137.832 42.8087 137.804 42.8406 137.769C42.8725 137.734 42.8962 137.692 42.9099 137.646C43.4464 136.113 47.0798 127.351 48.5592 125.075C48.9195 134.335 48.8582 133.852 48.9885 133.89C49.502 134.02 50.0616 134.143 50.6365 134.258C50.6365 135.546 50.6748 136.864 50.7821 138.305C50.7821 138.351 50.7208 138.428 50.6595 138.55C48.7585 142.72 46.6275 144.422 44.3126 145.449C43.2855 145.909 41.8674 146.538 41.9057 147.956C41.9057 149.182 43.1628 149.573 44.3816 149.527C46.2136 149.466 48.5822 149.221 49.6553 149.167C52.7215 148.983 52.7981 148.4 54.1012 145.771C54.4002 145.166 54.7528 144.445 54.9521 144.092C55.3123 148.4 54.8371 149.037 55.4273 149.006C57.0294 148.922 57.7269 149.359 57.7269 148.784C57.7882 147.205 58.4934 140.996 58.8614 139.47C58.8614 139.294 58.7387 139.194 58.5548 139.156C58.7847 137.73 59.3213 134.925 59.3903 134.411C59.7735 134.358 60.1568 134.296 60.4558 134.227C60.5401 134.227 60.4558 134.633 61.7512 129.291C71.0569 132.962 80.9835 133.844 89.8905 131.751C90.2048 132.97 92.4814 141.279 93.7232 144.92C94.1463 146.11 94.7099 147.245 95.4019 148.301C95.5782 148.469 95.8771 148.768 96.1684 148.768C96.4597 148.768 96.7816 148.362 96.8583 147.948C96.935 147.534 95.7315 135.446 95.3252 131.084C97.1465 130.633 98.9125 129.983 100.591 129.145L103.075 137.393C103.148 137.516 103.257 137.613 103.388 137.67C103.518 137.728 103.664 137.743 103.804 137.713C103.943 137.683 104.07 137.611 104.166 137.505C104.262 137.4 104.323 137.267 104.34 137.125L104.102 127.244C105.263 126.488 106.374 125.658 107.429 124.761C107.908 125.224 108.447 125.621 109.031 125.941C109.091 125.974 109.162 125.982 109.228 125.964C109.294 125.945 109.35 125.901 109.383 125.841C110.021 124.877 110.736 123.967 111.522 123.12C111.369 124.109 111.07 126.133 111.031 126.761C111.03 126.802 111.038 126.842 111.053 126.88C111.068 126.917 111.09 126.952 111.119 126.98C111.148 127.009 111.182 127.032 111.219 127.047C111.257 127.062 111.298 127.069 111.338 127.068C112.152 127.042 112.965 127.148 113.745 127.382C111.246 128.586 110.104 129.605 110.257 130.448C110.557 131.954 110.977 133.433 111.514 134.871C111.928 136.067 112.358 137.309 113.645 137.83C119.548 140.329 128.317 138.504 134.242 136.013C139.27 134.043 140.006 130.854 139.562 126.347C139.47 125.489 138.473 125.389 136.381 125.443L141.478 118.996C143.011 117.164 141.677 117.226 141.194 113.631C141.656 114.315 142.211 114.931 142.842 115.463C142.88 115.492 142.923 115.513 142.969 115.525C143.016 115.537 143.064 115.539 143.111 115.532C143.318 115.493 143.157 115.601 145.058 112.182C145.094 112.119 145.107 112.047 145.096 111.975C145.085 111.904 145.05 111.839 144.996 111.791C144.161 111.101 142.145 109.491 142.145 109.491C143.184 109.245 144.208 108.938 145.211 108.571C145.45 108.51 145.667 108.381 145.835 108.2C146.003 108.02 146.117 107.795 146.162 107.552C146.261 106.954 146.269 94.9119 146.284 93.2715C146.284 93.0032 145.855 92.9266 145.809 93.2178C144.912 99.2964 140.796 104.356 135.537 105.866C135.706 105.183 136.135 103.704 135.898 103.298C135.031 102.752 134.108 102.3 133.146 101.949C134.104 101.404 136.319 99.9863 136.48 99.5494C136.58 99.2964 136.089 87.4689 136.066 86.1734C136.063 86.12 136.042 86.0692 136.007 86.0283C135.973 85.9874 135.926 85.9584 135.874 85.9457C135.822 85.9329 135.768 85.9369 135.718 85.9572C135.669 85.9774 135.627 86.0129 135.599 86.0584C134.115 88.989 131.919 91.5006 129.214 93.3635C128.899 93.5781 126.638 94.7816 126.462 94.9425C125.894 95.4868 126.6 96.1537 126.899 96.5752C127.113 96.8665 127.849 97.8554 127.995 98.0623C125.297 98.3919 124.584 97.4644 124.446 98.0623C124.181 98.8432 123.823 99.5895 123.38 100.285C123.538 100.957 123.741 101.618 123.986 102.263C123.537 102.337 123.078 102.337 122.629 102.263C122.549 102.246 122.465 102.259 122.395 102.3C122.324 102.341 122.271 102.407 122.246 102.485C122.031 103.183 121.863 103.765 121.709 104.31C120.78 102.734 119.756 101.216 118.643 99.764C118.099 95.6094 116.137 90.7573 111.99 90.1134C115.109 88.8103 117.156 85.4605 117.647 82.0648C119.118 82.0648 140.382 82.0035 141.24 82.0648C145.893 82.1951 147.971 80.4168 148.407 75.672C148.584 73.7786 148.247 41.1091 148.247 40.7642ZM42.3963 132.027C42.4156 131.946 42.4034 131.861 42.3622 131.788C42.3209 131.715 42.2537 131.661 42.174 131.636C41.5531 131.406 41.0779 131.951 40.7329 132.342C39.8597 133.404 38.9009 134.394 37.8661 135.3C37.2912 135.576 30.5994 134.189 29.7639 133.928C29.3141 133.826 28.9229 133.551 28.6754 133.162C28.5786 132.879 28.5891 132.57 28.705 132.295C28.8209 132.019 29.0341 131.796 29.304 131.667C29.8942 131.307 30.3311 131.337 31.9868 131.031C33.6425 130.724 35.2829 130.425 38.1651 127.712C38.5666 127.327 38.9406 126.915 39.2842 126.478C39.7628 127.542 40.5684 128.425 41.5838 128.999C42.9441 129.604 44.4634 129.751 45.9147 129.421C45.1481 130.954 43.0325 135.745 42.5036 137.209C42.082 137.04 41.6528 136.887 41.2312 136.764C41.706 135.208 42.0949 133.626 42.3963 132.027ZM109.713 90.0521C108.635 90.0983 107.564 90.2523 106.517 90.512C103.083 90.9001 99.6313 91.0997 96.1761 91.1099C95.6702 88.0438 95.8235 88.611 95.6932 87.7601C95.6395 87.3922 95.5629 86.8863 95.8311 86.7253C99.5028 85.085 103.32 83.5979 106.977 81.9958C107.743 82.5554 107.804 82.4864 107.873 82.4404C107.906 82.405 107.924 82.3584 107.924 82.3101C107.924 82.2618 107.906 82.2152 107.873 82.1798C107.574 81.8775 107.259 81.5909 106.931 81.3213C103.988 78.6897 101.938 75.2067 101.067 71.3564C101.056 71.3106 101.028 71.2708 100.989 71.2457C100.949 71.2205 100.901 71.2121 100.856 71.2222C100.81 71.2324 100.77 71.2603 100.745 71.2999C100.72 71.3394 100.711 71.3873 100.722 71.433C101.371 75.4371 103.442 79.073 106.555 81.6739L95.9845 86.0431C95.6789 86.1328 95.4102 86.3182 95.2179 86.572C94.6889 86.4282 94.2108 86.1387 93.8382 85.7365C91.8452 84.1345 91.048 85.2306 88.4725 87.2696C88.2235 87.4574 87.9878 87.6623 87.7672 87.8828C86.4058 86.6718 85.049 85.4556 83.697 84.2341C83.352 83.7282 80.2093 72.8895 78.9215 68.5356C79.917 66.1219 81.523 64.0087 83.582 62.4033C83.82 63.1303 84.1201 63.8356 84.4788 64.5113C85.0537 65.0632 85.7973 64.7949 86.5178 64.6186C86.3192 65.0305 86.2048 65.4779 86.1811 65.9346C86.1574 66.3913 86.225 66.8482 86.3798 67.2784C86.9225 68.4952 87.77 69.5513 88.8404 70.3446C91.4619 72.6442 91.3316 72.5828 91.4849 72.5828C91.5557 72.5793 91.6227 72.5501 91.6735 72.5008C91.7243 72.4514 91.7554 72.3852 91.7609 72.3146C92.0215 69.6394 92.88 68.9035 95.3022 68.0526C96.627 67.6202 97.7479 66.7183 98.4538 65.5168C99.1597 64.3153 99.402 62.8972 99.1349 61.5295C100.737 61.5416 102.333 61.3353 103.88 60.9162C103.953 60.8998 104.016 60.855 104.057 60.7919C104.097 60.7287 104.11 60.6521 104.094 60.579C104.094 60.4487 104.041 60.2953 104.002 60.1344C115.186 65.5691 122.001 82.5017 112.978 88.795C111.997 89.452 110.882 89.8815 109.713 90.0521ZM112.289 90.9259C114.259 91.3475 115.907 93.0032 116.98 95.916C122.1 109.752 110.165 126.516 95.3482 130.41C95.2562 129.482 94.7503 124.101 94.6507 123.703C94.5772 123.351 94.3749 123.039 94.0835 122.829C93.1406 122.308 91.5232 122.883 90.6647 123.388C89.8463 123.932 89.1149 124.596 88.4955 125.358C88.4955 125.604 89.5686 130.226 89.7986 131.169C80.482 133.117 70.7984 132.286 61.9505 128.777C63.3149 123.105 65.1239 115.34 65.6298 112.933C70.9036 114.573 78.3159 114.42 78.3926 114.412C78.4171 114.406 78.4388 114.391 78.4543 114.371C78.4697 114.351 78.4781 114.327 78.4781 114.301C78.4781 114.276 78.4697 114.251 78.4543 114.231C78.4388 114.211 78.4171 114.197 78.3926 114.19C74.1383 112.772 70.4667 109.116 68.0597 103.888C64.3574 96.077 56.6768 96.169 53.6873 100.055C49.3641 105.666 48.6665 121.993 48.5975 123.963C48.3292 124.454 46.7885 127.466 46.206 128.693C41.6068 129.789 40.296 127.16 39.7364 126.033C39.6445 125.841 39.6904 126.347 41.1162 121.311C41.8827 121.687 47.3328 123.611 47.3404 123.044C47.4017 116.528 48.9808 101.029 53.258 97.4644C56.3242 94.9502 62.9546 95.3871 65.8905 97.5641C67.7569 99.2677 69.2836 101.309 70.39 103.581C72.8506 108.863 77.0895 112.78 81.796 113.761C87.8286 113.232 94.827 103.62 96.8276 97.4721C100.522 92.7886 106.616 90.1057 112.289 90.9259ZM124.285 122.101C124.295 122.146 124.323 122.186 124.362 122.211C124.402 122.237 124.45 122.245 124.496 122.235C124.541 122.225 124.581 122.197 124.606 122.157C124.631 122.118 124.64 122.07 124.63 122.024C124.147 119.556 122.782 117.425 121.924 115.125C120.437 111.193 121.518 106.969 122.775 102.976C123.335 103.081 123.915 103.005 124.43 102.761C124.852 102.432 124.515 101.872 124.039 100.462C124.43 99.8706 124.737 99.2282 124.952 98.5529C126.15 98.8364 127.396 98.8521 128.6 98.5989C128.647 98.587 128.69 98.5641 128.727 98.5323C128.763 98.5005 128.791 98.4605 128.809 98.4157C128.827 98.3709 128.834 98.3224 128.83 98.2743C128.826 98.2263 128.81 98.1799 128.784 98.139C128.271 97.4644 126.914 95.6171 126.845 95.4791C126.776 95.3411 126.845 95.3565 127.067 95.2568C130.731 93.5894 133.736 90.7495 135.606 87.1852C135.698 89.6918 135.997 99.0205 135.913 99.3961C134.722 100.258 133.466 101.027 132.157 101.696C132.1 101.727 132.053 101.775 132.023 101.833C131.993 101.891 131.981 101.957 131.989 102.022C131.996 102.086 132.023 102.148 132.065 102.197C132.107 102.247 132.163 102.283 132.226 102.301C133.311 102.672 134.362 103.134 135.369 103.681C135.507 103.903 135.024 105.659 134.94 106.111L134.173 106.264C134.097 106.284 134.031 106.333 133.99 106.4C133.948 106.467 133.934 106.547 133.951 106.624C134.15 107.981 134.602 111.323 134.602 111.323C132.402 109.277 132.418 108.142 131.942 108.096C131.895 108.09 131.847 108.096 131.803 108.114C131.759 108.131 131.72 108.159 131.689 108.196C128.085 112.378 126.062 117.692 125.971 123.212C125.98 123.254 126.002 123.291 126.035 123.318C126.068 123.344 126.109 123.359 126.151 123.359C126.194 123.359 126.235 123.344 126.267 123.318C126.3 123.291 126.323 123.254 126.331 123.212C126.62 117.989 128.558 112.992 131.866 108.939C132.628 110.253 133.629 111.412 134.817 112.358C134.868 112.403 134.931 112.431 134.998 112.438C135.066 112.445 135.134 112.43 135.192 112.396C135.251 112.362 135.297 112.31 135.325 112.249C135.352 112.187 135.36 112.118 135.346 112.051C135.346 112.051 134.794 108.318 134.579 106.801C139.799 105.873 144.284 101.435 145.794 95.7781C145.794 98.9285 145.686 106.739 145.686 106.816C145.686 107.314 145.686 107.79 145.242 108.012C143.984 108.453 142.705 108.83 141.409 109.139C141.356 109.153 141.308 109.181 141.269 109.22C141.23 109.259 141.203 109.308 141.19 109.361C141.176 109.414 141.178 109.47 141.193 109.523C141.209 109.575 141.239 109.623 141.279 109.66C141.639 109.951 143.709 111.645 144.391 112.189C144.391 112.189 143.456 113.975 142.98 114.857C142.203 114.138 141.56 113.287 141.079 112.343C141.048 112.289 141 112.247 140.943 112.223C140.886 112.199 140.823 112.195 140.763 112.211C140.703 112.226 140.649 112.261 140.611 112.31C140.573 112.359 140.551 112.419 140.551 112.481C140.765 117.601 142.406 116.934 141.049 118.613C136.373 124.492 135.553 126.393 130.517 127.88C131.528 123.281 134.993 121.419 136.381 118.099C137.147 116.283 136.979 114.267 137.584 112.442C138.006 111.176 138.695 110.016 139.605 109.04C140.515 108.063 141.624 107.295 142.858 106.785C142.903 106.77 142.939 106.738 142.96 106.695C142.981 106.653 142.984 106.604 142.969 106.559C142.954 106.515 142.921 106.478 142.879 106.457C142.836 106.436 142.788 106.433 142.743 106.448C141.136 107.015 139.719 108.017 138.648 109.342C137.578 110.667 136.896 112.263 136.68 113.952C136.35 116.306 136.419 117.463 134.947 119.525C133.322 121.786 130.662 123.787 129.804 128.072C128.471 128.404 127.106 128.594 125.734 128.639C125.573 127.267 124.729 126.462 124.131 126.432C123.58 125.466 117.762 116.612 115.615 114.673C117.989 110.402 119.08 105.537 118.758 100.661C119.678 102.018 121.249 104.562 121.525 105.061C118.85 115.378 123.219 116.927 124.285 122.101ZM112.197 122.438C112.196 122.384 112.181 122.331 112.151 122.286C112.122 122.24 112.08 122.204 112.031 122.181C111.982 122.159 111.928 122.151 111.874 122.158C111.82 122.166 111.77 122.188 111.729 122.223C110.749 123.196 109.859 124.256 109.069 125.389C108.618 125.126 108.194 124.818 107.804 124.469C109.657 122.859 111.337 121.061 112.817 119.104C120.958 128.869 120.567 128.586 120.797 128.402C120.815 128.389 120.83 128.374 120.842 128.355C120.854 128.337 120.862 128.316 120.865 128.295C120.869 128.273 120.868 128.251 120.863 128.23C120.858 128.209 120.848 128.189 120.835 128.172C120.299 127.359 114.833 120.506 113.17 118.582C113.96 117.491 114.682 116.352 115.332 115.171C118.398 118.168 123.158 126.056 123.603 126.8C123.179 127.408 122.981 128.146 123.043 128.885C122.075 129.155 121.057 129.2 120.069 129.015C118.896 128.785 114.511 126.631 111.637 126.547C111.821 125.711 112.112 123.159 112.22 122.438H112.197ZM92.1288 123.411H92.2591C92.857 123.274 93.7922 123.067 94.0145 123.672C94.1294 124.086 96.4444 146.952 96.4444 147.657C96.4567 147.768 96.4445 147.88 96.4088 147.986C96.373 148.092 96.3145 148.189 96.2374 148.27C94.2444 147.504 89.3386 127.167 89.147 125.443C89.9195 124.487 90.9567 123.781 92.1288 123.411ZM10.5086 87.2159C10.5086 85.4606 9.3435 50.6601 9.45848 49.4029C9.65778 47.0344 10.5086 45.9689 12.3866 45.7236C14.3719 45.3403 32.9067 44.8114 34.9303 44.7578C34.9763 45.5243 35.0146 46.0609 35.0299 46.1605C35.1149 46.7636 35.4025 47.3198 35.8455 47.7377C36.2885 48.1556 36.8605 48.4104 37.4675 48.4601C37.4675 48.3835 36.9616 48.4601 52.7981 48.5138C52.7981 50.9053 52.9438 62.1427 52.9514 62.6716C48.4442 62.8402 43.7991 63.0242 42.9099 63.1085C42.7872 63.1085 42.6799 63.3308 42.7259 63.4381C44.0597 66.7342 50.0003 80.1178 51.6637 83.5519C51.8188 83.9421 52.0854 84.278 52.4302 84.5177C52.6448 84.8397 52.8978 85.1999 53.1967 85.5602C50.7668 87.4995 49.893 89.6458 48.4826 92.7886C41.99 92.9266 15.675 93.4708 15.0848 93.4478C13.4444 93.3788 12.287 92.9036 11.5664 91.9991C10.4703 90.696 10.5163 88.9176 10.5086 87.2159ZM99.1886 56.6007C99.3495 57.1832 99.9551 57.4975 100.89 57.5205C102.5 57.4515 103.19 58.8389 103.481 60.4333C101.914 60.7396 100.325 60.9165 98.7286 60.9622C98.6824 60.9627 98.637 60.9739 98.5958 60.9949C98.5547 61.0159 98.519 61.0462 98.4915 61.0833C98.464 61.1205 98.4455 61.1635 98.4375 61.209C98.4294 61.2544 98.432 61.3012 98.445 61.3455C98.6898 62.2205 98.6921 63.1456 98.4518 64.0219C98.2114 64.8981 97.7375 65.6926 97.0806 66.3203C95.0186 68.3056 91.7149 67.2095 91.232 71.7856C90.5421 71.1878 87.9895 69.0185 87.4683 68.3823C86.5715 67.3474 86.2112 65.6304 87.131 64.5496C89.1007 64.2277 91.0914 64.0509 93.087 64.0207C93.1317 64.0207 93.1746 64.0029 93.2062 63.9713C93.2378 63.9397 93.2556 63.8968 93.2556 63.8521C93.2556 63.8073 93.2378 63.7644 93.2062 63.7328C93.1746 63.7012 93.1317 63.6834 93.087 63.6834C90.791 63.5206 88.4835 63.6858 86.2342 64.174C85.3757 64.4116 84.9541 64.5803 84.5708 63.7754C84.3792 63.3691 83.237 59.8891 83.0378 59.2452C82.6852 58.4097 82.8998 58.6626 83.5437 58.264C84.1745 58.7972 84.8827 59.2314 85.644 59.5518C85.644 59.6438 86.0425 60.8626 86.1039 61.0849C86.1299 61.2691 86.222 61.4375 86.3631 61.5588C86.5041 61.6801 86.6844 61.7459 86.8704 61.7441C88.6579 61.9083 90.4589 61.6466 92.1257 60.9804C93.7926 60.3142 95.2778 59.2625 96.4597 57.9114C96.4832 57.8793 96.4939 57.8396 96.4898 57.8C96.4857 57.7604 96.4671 57.7237 96.4376 57.6971C96.4081 57.6704 96.3697 57.6556 96.3299 57.6555C96.2901 57.6555 96.2517 57.6702 96.2221 57.6968C95.0349 58.8967 93.6086 59.8335 92.0357 60.4463C90.4629 61.059 88.7788 61.3341 87.0927 61.2535C86.5561 61.2152 86.6251 61.3302 86.1729 59.7205C88.2425 60.303 88.7637 59.5135 88.0279 60.2417C88.0039 60.2704 87.9906 60.3065 87.9903 60.3438C87.9901 60.3812 88.0028 60.4175 88.0264 60.4465C88.0499 60.4755 88.0829 60.4954 88.1195 60.5028C88.1561 60.5102 88.1942 60.5046 88.2272 60.487C91.0154 58.4023 93.0495 55.4669 94.0221 52.1241C94.0292 52.1025 94.0318 52.0797 94.0298 52.057C94.0277 52.0344 94.0212 52.0123 94.0104 51.9923C93.9997 51.9722 93.985 51.9546 93.9673 51.9403C93.9495 51.9261 93.9291 51.9156 93.9072 51.9095C93.5086 51.7715 93.7768 52.5611 91.9065 55.6195C91.14 52.5534 91.6535 49.311 90.8257 46.2295C90.8145 46.1858 90.7864 46.1483 90.7476 46.1253C90.7088 46.1023 90.6624 46.0957 90.6187 46.1069C90.575 46.118 90.5376 46.1461 90.5145 46.1849C90.4916 46.2238 90.4849 46.2701 90.4961 46.3138C90.6304 46.9659 90.7175 47.6269 90.7567 48.2915C89.124 46.6741 85.6746 44.0909 82.9534 44.6811C82.3672 44.6992 81.8116 44.9474 81.4071 45.372C81.0025 45.7967 80.7815 46.3636 80.7918 46.9501C80.1326 46.0609 80.5925 44.7041 81.1904 43.9529C82.7695 41.8909 85.575 40.8868 88.3728 40.1203C90.8487 39.461 94.1601 39.553 96.0381 41.7913C96.8528 42.9083 97.4413 44.1738 97.7705 45.5166C98.7496 48.5426 99.4325 51.6566 99.8094 54.8147C99.8386 54.942 99.8327 55.0749 99.7922 55.1991C99.7517 55.3233 99.6781 55.4342 99.5795 55.5199C99.4264 55.6509 99.31 55.8193 99.2415 56.0087C99.173 56.1981 99.1547 56.4021 99.1886 56.6007ZM52.2232 83.3679C51.5027 81.8349 44.3816 66.0443 43.2472 63.4381C45.7844 63.4381 74.4143 62.388 74.9125 62.3727C75.886 65.5001 81.5583 84.3874 81.5583 84.5484C81.5583 84.5484 74.7822 84.717 71.1259 84.8627C64.9553 81.7505 59.2446 82.0878 55.09 84.2878C52.7445 84.1881 52.6371 84.2341 52.2232 83.3679ZM81.3514 51.5722C81.2441 49.2726 81.3514 47.6706 81.7116 47.5096C83.0301 46.9117 85.4906 46.7431 88.2272 47.6093C88.5721 47.7242 89.6759 48.2991 90.7874 48.7667C90.91 51.2196 90.7874 53.8182 91.5539 56.1944C90.8763 57.3826 90.006 58.4498 88.9784 59.3525C84.3409 59.9657 81.5583 56.2557 81.3361 51.5722H81.3514ZM88.3881 97.4108C88.2042 97.7634 91.3239 100.109 91.6612 100.362C92.765 101.404 91.4159 101.972 90.2968 100.967C84.1646 95.4561 78.9368 89.1399 72.1224 85.3686C76.093 85.2383 81.0064 85.0926 81.8496 85.085C82.7005 85.9051 92.5811 95.1572 95.1336 97.3494C88.0049 97.4031 88.4571 97.2881 88.3728 97.4108H88.3881ZM95.9155 97.3035C95.8388 97.2345 82.8844 85.5295 82.3862 84.947C82.0949 84.4564 76.7215 66.2206 75.4874 62.549C76.2446 63.0653 76.8061 63.8212 77.0818 64.6952C77.5417 66.006 82.7618 83.4829 82.7848 83.5672C82.8474 83.9917 83.0372 84.3872 83.329 84.7017C85.345 86.641 93.8995 94.3983 96.682 96.6979C96.521 96.8972 96.3601 97.0965 96.2067 97.3035H95.9155ZM95.3559 89.9371C94.0221 89.8298 93.6005 89.6765 93.2709 90.0827C93.1636 90.2514 92.857 90.627 92.4661 90.5427C92.3983 90.5268 92.3345 90.4972 92.2787 90.4556C92.2229 90.414 92.1762 90.3614 92.1417 90.301C92.1071 90.2405 92.0854 90.1736 92.078 90.1044C92.0705 90.0352 92.0773 89.9652 92.0981 89.8988C92.4737 89.5462 92.8647 89.2395 93.2173 88.864C93.2361 88.8375 93.2456 88.8054 93.2441 88.7729C93.2427 88.7405 93.2304 88.7094 93.2092 88.6847C93.188 88.66 93.1592 88.6431 93.1274 88.6367C93.0955 88.6303 93.0624 88.6347 93.0333 88.6493C92.6424 88.9023 92.2668 89.3085 91.8222 89.5768C91.7855 89.5773 91.7493 89.5858 91.7162 89.6017C91.6832 89.6176 91.6539 89.6405 91.6306 89.6688C91.5387 89.7061 91.4395 89.7216 91.3407 89.7143C91.2419 89.7069 91.1461 89.6768 91.0608 89.6264C90.9755 89.576 90.903 89.5065 90.8489 89.4234C90.7948 89.3404 90.7607 89.246 90.749 89.1476C90.749 88.5343 91.4083 88.1281 91.7915 87.6758C91.9448 87.5225 91.7149 87.2926 91.5539 87.4382C91.1432 87.7849 90.7613 88.1643 90.4118 88.5727C89.9701 88.7131 89.5194 88.8232 89.0627 88.9023C88.8557 88.9023 89.0627 89.0326 88.1582 88.2584C89.1012 87.3738 90.1281 86.5831 91.2243 85.8975C93.087 84.671 93.4319 86.7943 95.1106 87.0396C95.109 88.0107 95.1911 88.9801 95.3559 89.9371ZM97.0806 96.2533L89.3616 89.3545C89.6415 89.2993 89.918 89.2276 90.1895 89.1399C90.1833 89.3063 90.2159 89.4719 90.2848 89.6236C90.3536 89.7752 90.4568 89.9088 90.5862 90.0136C90.7156 90.1185 90.8677 90.1918 91.0303 90.2277C91.1929 90.2637 91.3617 90.2613 91.5232 90.2207C91.5539 90.3833 91.6226 90.5363 91.7236 90.6673C91.8246 90.7983 91.9552 90.9036 92.1046 90.9746C92.2541 91.0456 92.4182 91.0803 92.5835 91.0758C92.7489 91.0713 92.9109 91.0279 93.0563 90.9489C94.1141 90.466 93.0563 90.282 94.7657 90.4353C94.988 90.4353 95.2256 90.4813 95.4555 90.489C95.5245 90.8493 95.5935 91.1789 95.6702 91.4931C95.6886 91.5558 95.7271 91.6108 95.7797 91.6495C95.8323 91.6883 95.8961 91.7088 95.9615 91.7078C109.667 91.4165 102.937 89.5232 97.0653 96.2533H97.0806ZM78.6839 67.7077C77.8177 64.8026 77.3654 62.457 75.6177 61.8591C75.6177 61.9511 76.2693 61.7594 53.58 62.6256C53.58 58.8926 53.419 49.8629 53.396 48.4908H80.8761C80.6615 51.8099 80.8761 55.3896 83.1757 57.8578C82.8998 57.9651 82.4092 58.1951 82.2942 58.3867C82.5769 59.6256 82.9562 60.8404 83.4287 62.0201C81.3721 63.4714 79.7268 65.431 78.6532 67.7077H78.6839ZM75.5334 44.0142C75.5334 42.9411 75.2881 37.1691 75.2345 36.1113H77.1891C77.1891 37.1998 77.3348 42.9488 77.3808 44.0066C76.7675 43.9912 76.1466 43.9989 75.5334 44.0142ZM64.3037 44.2442C64.3114 42.1592 64.0431 24.529 64.0048 22.2294H65.9594C65.9594 28.0551 66.1281 42.6268 66.1587 44.2135L64.3037 44.2442ZM52.2079 25.1882H54.1702C54.1702 30.2244 54.3312 42.9411 54.3695 44.4512H52.5145C52.5222 42.5655 52.2539 27.2885 52.2079 25.1882ZM35.5665 45.8232C35.4592 45.1717 34.57 24.759 34.2098 16.9404C34.1254 14.5335 34.7617 11.5747 36.379 10.2026C36.379 15.5683 37.0689 45.1794 37.2222 47.8622C36.7711 47.732 36.3706 47.4669 36.0746 47.1024C35.7786 46.7379 35.6013 46.2915 35.5665 45.8232ZM105.896 39.4534C105.833 38.953 105.952 38.4467 106.233 38.0276C106.833 37.5552 107.477 37.1419 108.157 36.7935C107.39 38.1733 107.59 37.79 107.996 62.0124C107.364 61.5305 106.706 61.0827 106.026 60.671C105.949 56.8076 105.911 42.7648 105.919 39.4534H105.896ZM112.595 47.9695C112.951 47.464 113.425 47.0521 113.975 46.7691C114.525 46.4861 115.135 46.3405 115.753 46.3445C118.873 46.3445 120.008 50.0545 120.621 53.0746C121.157 55.4432 121.196 58.2334 122.92 60.165C130.938 67.4318 131.544 57.2906 136.419 57.6815C137.952 57.8578 138.971 59.2605 140.068 60.2724C140.536 60.7987 141.193 61.1188 141.897 61.1633C142.6 61.2078 143.292 60.973 143.824 60.51V71.4024C141.938 71.4024 117.992 71.2261 115.362 71.2567C114.722 69.917 113.968 68.6348 113.109 67.4241C113.201 66.4966 112.633 48.7974 112.618 47.9695H112.595ZM115.661 71.778C119.187 71.8316 141.562 71.893 143.885 71.893C143.888 72.185 143.906 72.4766 143.939 72.7668C143.944 72.8285 143.972 72.886 144.018 72.9284C144.063 72.9708 144.122 72.9951 144.184 72.9968C144.636 72.9968 144.429 73.6943 144.353 52.906C144.353 52.8552 144.332 52.8064 144.296 52.7705C144.26 52.7346 144.212 52.7144 144.161 52.7144C144.11 52.7144 144.061 52.7346 144.025 52.7705C143.989 52.8064 143.969 52.8552 143.969 52.906C143.969 54.2704 143.885 58.7776 143.877 59.6668C143.701 59.9439 143.462 60.1753 143.18 60.3422C142.897 60.509 142.579 60.6066 142.251 60.6268C141.924 60.647 141.596 60.5892 141.295 60.4584C140.994 60.3275 140.728 60.1271 140.52 59.8738C138.305 57.5742 136.112 55.6578 132.908 58.6167C130.287 61.3225 128.846 63.6068 125.243 61.2688C123.784 60.4916 122.685 59.1777 122.177 57.6048C120.966 53.2586 121.303 46.5515 116.183 45.6623C115.498 45.5923 114.807 45.6913 114.169 45.9505C113.532 46.2098 112.968 46.6214 112.526 47.1493C112.526 45.9842 112.442 44.8498 112.396 43.6693C112.396 43.6205 112.376 43.5737 112.342 43.5392C112.307 43.5047 112.261 43.4853 112.212 43.4853C112.163 43.4853 112.116 43.5047 112.082 43.5392C112.047 43.5737 112.028 43.6205 112.028 43.6693C112.028 44.9417 112.427 62.7099 112.549 66.6116C111.368 65.0657 110.01 63.6636 108.502 62.434C108.502 59.5135 108.241 40.5495 108.211 39.3767C108.165 37.2458 109.015 36.0117 110.978 35.4981C112.588 35.0535 141.532 34.6089 144.284 34.9845C146.108 35.2145 147.15 37.0005 147.411 38.5489C147.733 40.4729 147.825 72.2762 147.833 72.6978C147.894 76.4538 147.449 80.7387 143.54 81.2676C142.658 81.3903 120.851 81.4439 117.685 81.4133C117.783 78.0882 117.095 74.787 115.677 71.778H115.661ZM93.2173 12.1112C94.1371 13.7209 93.6159 13.2764 94.2674 39.7523C91.094 38.3189 86.6021 39.6374 83.536 41.2854V18.5731C83.536 18.3968 83.9346 18.4504 81.2364 18.4504C81.0678 18.4504 81.0831 16.8714 81.6503 42.5578C81.1903 42.973 80.7904 43.4503 80.4622 43.9759H77.8867C77.8867 42.9794 77.5954 35.912 77.5647 35.8507C77.5559 35.8108 77.5334 35.7753 77.5013 35.7501C77.4691 35.725 77.4292 35.7117 77.3884 35.7127C76.5602 35.6849 75.7311 35.7029 74.9049 35.7664C74.8803 35.7831 74.8609 35.8062 74.8488 35.8333C74.8366 35.8604 74.8321 35.8902 74.8359 35.9197C74.8359 36.6862 74.9739 42.9104 75.0275 44.0142L72.1377 44.0756C72.2833 30.9832 72.337 31.6731 72.1377 31.6578C70.0604 31.7421 70.0144 31.7038 70.0144 31.8571V44.1216L66.6417 44.1905C66.6417 42.4812 66.381 23.1646 66.3274 22.0455C66.3297 21.9951 66.3127 21.9457 66.28 21.9073C66.2473 21.8688 66.2012 21.8443 66.1511 21.8385C66.1511 21.8385 63.7518 21.8385 63.6752 21.9152C63.4529 22.0915 63.7978 43.378 63.7978 44.2519L60.1568 44.3209V32.8765C60.1297 32.8659 60.0996 32.8659 60.0725 32.8765C57.9569 32.8765 57.9799 32.8766 57.9799 33.0452V44.3668L54.8678 44.4588C54.6531 24.667 54.4768 25.0273 54.5535 25.0273C54.5538 24.9782 54.536 24.9307 54.5035 24.8939C54.4709 24.8571 54.4259 24.8336 54.3772 24.828C54.3772 24.828 51.9933 24.828 51.9166 24.8893C51.656 25.0503 52.0239 43.1557 52.0239 44.5201L47.808 44.5968C47.831 14.7251 47.9153 16.0972 47.716 16.0972L45.838 16.1662C45.7077 16.1662 45.7537 14.3342 45.7537 44.6275C42.5956 44.6888 42.6876 44.6275 42.6416 44.7501C42.6269 44.774 42.6186 44.8014 42.6177 44.8294C42.6168 44.8575 42.6233 44.8853 42.6365 44.9101C42.6496 44.9349 42.6691 44.9558 42.6928 44.9708C42.7166 44.9857 42.7438 44.9942 42.7719 44.9954C47.4247 44.9954 75.6024 44.7118 80.1939 44.5738C79.734 45.7466 79.8183 47.042 80.8838 47.7242V47.8929C76.4533 48.0232 38.5407 47.8929 37.8584 47.8929C37.8584 46.8887 36.9999 11.82 36.9923 9.85763C42.3043 9.85763 89.1163 9.92662 90.3351 10.1259C90.9326 10.2227 91.5011 10.451 91.9995 10.7943C92.498 11.1377 92.9139 11.5875 93.2173 12.1112ZM9.66545 46.5285C8.78394 47.8009 8.73794 49.4566 8.73794 51.0587C8.73794 51.4113 9.81109 89.1399 9.97206 90.0597C10.0637 90.7273 10.2972 91.3675 10.6568 91.9373C11.0165 92.5072 11.4939 92.9935 12.057 93.3635C11.156 93.3181 10.2752 93.0803 9.47381 92.6659C7.77211 91.7308 7.12823 89.8068 6.89827 88.7413C6.49201 86.825 5.95544 53.9101 6.04742 52.2085C5.99376 49.3876 6.95193 47.8622 9.65011 46.5285H9.66545ZM124.645 133.215C127.713 133.001 130.719 132.244 133.521 130.977C135.514 130.057 137.998 128.601 139.025 127.443C139.186 131.061 138.45 133.399 134.733 135.109C129.811 137.408 118.137 140.229 113.093 136.864C112.641 136.427 111.56 133.108 111.131 131.575C113.331 133.039 119.739 133.606 124.63 133.215H124.645ZM55.32 143.257C54.6761 143.203 54.3695 143.847 54.1549 144.315C52.3612 148.147 52.3842 148.393 50.5598 148.515C49.985 148.554 44.5732 148.998 44.1747 148.998C42.7796 149.098 42.0054 148.14 42.9942 146.967C43.5579 146.542 44.1835 146.206 44.8492 145.97C46.9802 144.982 50.3529 142.368 51.0964 139.133C51.8658 140.037 52.9154 140.658 54.0782 140.896C55.5178 141.05 56.9698 140.753 58.2328 140.045C57.9415 141.701 57.267 146.86 57.1827 148.477C56.7346 148.43 56.2841 148.41 55.8336 148.416C55.8259 147.979 55.6803 143.288 55.3047 143.257H55.32ZM58.1408 139.309C57.1447 140.014 55.9496 140.382 54.7298 140.359C54.0845 140.311 53.4561 140.13 52.8837 139.828C52.3114 139.526 51.8074 139.109 51.403 138.604C51.403 138.367 51.3187 135.799 51.3417 134.419C53.8253 134.615 56.3184 134.663 58.8077 134.564C58.6851 135.239 58.2941 137.976 58.1255 139.309H58.1408Z" fill="black"/>
<path d="M134.449 40.3655C134.492 40.3567 134.531 40.3332 134.559 40.299C134.587 40.2648 134.602 40.2219 134.602 40.1777C134.602 40.1335 134.587 40.0907 134.559 40.0565C134.531 40.0222 134.492 39.9987 134.449 39.9899H133.161C123.526 40.2889 123.84 40.2812 123.848 40.5495C123.855 40.8178 123.556 40.8791 134.449 40.3655ZM134.771 42.1592C133.054 42.1592 126.339 42.2512 124.614 42.3892C124.554 42.3997 124.499 42.4312 124.459 42.4782C124.42 42.5251 124.398 42.5846 124.398 42.646C124.398 42.7074 124.42 42.7668 124.459 42.8138C124.499 42.8607 124.554 42.8923 124.614 42.9028C126.37 42.9028 133.046 42.5578 134.778 42.4888C134.816 42.4798 134.849 42.4583 134.873 42.4277C134.896 42.3972 134.909 42.3595 134.908 42.3209C134.907 42.2824 134.893 42.2453 134.868 42.2159C134.843 42.1865 134.809 42.1665 134.771 42.1592ZM133.084 44.98C131.889 45.026 128.048 44.98 124.384 44.98C124.303 44.98 124.225 45.0124 124.167 45.0699C124.11 45.1274 124.078 45.2053 124.078 45.2867C124.078 45.368 124.11 45.446 124.167 45.5035C124.225 45.561 124.303 45.5933 124.384 45.5933C125.151 45.6469 132.341 45.348 133.092 45.3173C133.137 45.3163 133.179 45.2976 133.21 45.2652C133.241 45.2329 133.258 45.1896 133.257 45.1449C133.256 45.1001 133.237 45.0576 133.205 45.0267C133.172 44.9958 133.129 44.979 133.084 44.98ZM108.387 6.67651C107.489 6.8971 106.667 7.35722 106.01 8.00786C105.352 8.6585 104.884 9.47528 104.654 10.3712C103.803 13.6289 106.754 17.178 110.15 16.6107C110.892 16.4541 111.594 16.1475 112.214 15.7099C112.833 15.2723 113.357 14.7129 113.752 14.0659C114.139 13.3518 114.359 12.5592 114.395 11.7479C114.43 10.9366 114.282 10.1278 113.959 9.38236C113.5 8.06393 112.135 5.95597 108.387 6.67651ZM110.242 13.1384C108.762 14.1579 107.03 12.3028 107.712 11.1607C108.939 9.12174 111.116 10.6625 111.169 11.429C111.168 11.7693 111.082 12.104 110.919 12.4026C110.756 12.7012 110.52 12.9541 110.234 13.1384H110.242ZM110.15 9.65065C109.632 9.48787 109.076 9.50113 108.567 9.68837C108.058 9.8756 107.625 10.2262 107.337 10.6855C107.101 11.0989 107.012 11.58 107.084 12.0504C107.157 12.5208 107.386 12.9529 107.735 13.2763C108.013 13.5434 108.355 13.7345 108.729 13.8316C109.102 13.9286 109.494 13.9283 109.867 13.8306C110.24 13.7329 110.581 13.5412 110.859 13.2737C111.137 13.0062 111.341 12.6719 111.453 12.3028C112.107 12.7319 112.839 13.0287 113.607 13.1767C113.335 13.8388 112.919 14.4318 112.389 14.912C111.858 15.3922 111.227 15.7474 110.541 15.9515C107.475 16.8407 104.746 14.0582 105.091 11.0534C105.192 10.3536 105.45 9.68587 105.847 9.10064C106.244 8.51541 106.769 8.02796 107.381 7.67509C107.994 7.32222 108.679 7.11315 109.384 7.06366C110.09 7.01417 110.797 7.12554 111.453 7.38939C110.846 8.03083 110.397 8.80514 110.142 9.65065H110.15Z" fill="black"/>
<path d="M101.488 19.8378C103.358 19.7382 137.607 19.4776 140.106 18.734C142.03 18.3814 142.689 17.4923 142.589 15.5529C142.589 14.9091 142.697 7.52737 142.497 6.2166C142.321 4.59922 141.455 3.83269 139.631 3.73304C138.097 3.5874 102.569 4.1393 100.89 4.49957C99.5257 4.76786 98.5905 5.2661 98.4066 6.79916C98.3222 7.26675 98.6902 15.9209 98.7362 16.7641C98.8435 18.5884 99.7556 19.6692 101.488 19.8378ZM104.477 19.3166C104.026 19.2622 103.593 19.1081 103.208 18.8655C102.824 18.6229 102.498 18.2978 102.255 17.9139C101.714 16.9833 101.436 15.9237 101.45 14.8477C101.365 13.5446 101.12 8.71549 101.089 7.55036C101.089 7.07512 101.089 5.49606 102.255 4.92883C104.056 4.74486 137.615 4.24662 139.048 4.29261C139.815 4.29261 140.849 4.35393 141.432 4.94416C142.29 5.81034 142.014 7.24375 142.068 15.484C142.237 17.5843 141.44 18.0442 139.477 18.3278C137.714 18.5961 104.784 19.3166 104.493 19.3166H104.477ZM100.568 6.57687C100.469 7.26675 100.875 13.8589 100.913 14.7328C101.005 16.902 101.626 18.4428 102.852 19.3319H102.086C100.216 19.3319 99.3647 18.4351 99.2804 16.5264C99.2344 15.438 98.8818 7.32807 98.9584 6.86815C99.1194 5.47307 100.062 5.16645 101.312 5.01315C100.924 5.45396 100.672 5.99668 100.584 6.57687H100.568Z" fill="black"/>
<path d="M118.659 8.56216C118.942 8.56216 127.742 8.33987 127.665 8.33987C127.705 8.33149 127.74 8.30978 127.766 8.27838C127.791 8.24699 127.805 8.20781 127.805 8.1674C127.805 8.12699 127.791 8.08781 127.766 8.05641C127.74 8.02501 127.705 8.00331 127.665 7.99493C127.014 7.99493 119.417 7.86462 118.643 7.99493C118.584 8.01632 118.533 8.05577 118.498 8.10767C118.463 8.15957 118.444 8.22129 118.446 8.28408C118.448 8.34686 118.469 8.40751 118.507 8.45743C118.546 8.50734 118.598 8.54399 118.659 8.56216ZM130.363 10.9691C129.26 11.0764 118.176 10.7008 118.099 11.2603C118.099 11.3677 118.199 11.452 118.275 11.4673C119.241 11.5823 130.325 11.3447 130.402 11.337C130.426 11.3345 130.449 11.3272 130.471 11.3157C130.492 11.3041 130.511 11.2884 130.526 11.2696C130.542 11.2507 130.553 11.229 130.56 11.2057C130.567 11.1824 130.569 11.158 130.567 11.1339C130.564 11.1097 130.557 11.0863 130.545 11.0649C130.534 11.0436 130.518 11.0247 130.499 11.0094C130.48 10.9941 130.459 10.9827 130.435 10.9757C130.412 10.9688 130.388 10.9665 130.363 10.9691ZM130.141 13.9125C128.248 13.9125 118.705 13.8666 118.206 13.9509C118.157 13.9639 118.114 13.9927 118.083 14.0329C118.052 14.0731 118.035 14.1224 118.035 14.1732C118.035 14.2239 118.052 14.2732 118.083 14.3134C118.114 14.3536 118.157 14.3825 118.206 14.3955C118.735 14.4798 129.367 14.2345 130.149 14.2115C130.183 14.2029 130.212 14.1832 130.233 14.1555C130.254 14.1278 130.265 14.0937 130.264 14.059C130.264 14.0242 130.251 13.9908 130.228 13.9642C130.206 13.9375 130.175 13.9193 130.141 13.9125ZM21.7691 63.0165C26.9585 62.5949 29.7103 55.9108 25.6784 52.2007C25.5327 52.0704 25.8087 51.7792 21.5621 57.9191C16.4263 53.0516 16.7023 53.2356 16.5873 53.3199C12.5247 57.3288 16.549 63.4458 21.7691 63.0165Z" fill="black"/>
<path d="M21.2017 55.4049C21.3474 55.5658 21.2784 55.5888 24.7508 49.7325C24.7591 49.7195 24.7647 49.705 24.7673 49.6898C24.7699 49.6745 24.7693 49.6589 24.7658 49.6439C24.7622 49.6289 24.7556 49.6147 24.7465 49.6023C24.7373 49.5899 24.7257 49.5794 24.7124 49.5716C23.4879 48.9272 22.085 48.7048 20.7212 48.939C19.3575 49.1733 18.1091 49.851 17.1698 50.867C17.0778 50.982 16.9398 50.7597 21.2017 55.4049ZM13.1915 83.8048C13.3881 83.8036 13.5799 83.7441 13.7428 83.6341C13.9057 83.524 14.0325 83.3682 14.107 83.1863C14.1816 83.0044 14.2007 82.8045 14.1619 82.6117C14.1231 82.419 14.0282 82.242 13.889 82.1031C14.2723 81.4822 16.7558 77.3966 17.484 76.2928C17.6728 76.3801 17.8834 76.4085 18.0885 76.3743C18.2936 76.3401 18.4836 76.245 18.6338 76.1012L22.1752 78.83C22.1175 79.0009 22.1072 79.1842 22.1454 79.3605C22.1837 79.5367 22.269 79.6992 22.3924 79.8308C22.5157 79.9623 22.6725 80.0579 22.8459 80.1074C23.0193 80.1569 23.2029 80.1583 23.3771 80.1117C23.5513 80.065 23.7096 79.9719 23.8351 79.8424C23.9605 79.7128 24.0485 79.5517 24.0895 79.376C24.1306 79.2004 24.1233 79.017 24.0683 78.8452C24.0133 78.6735 23.9127 78.5199 23.7773 78.4008L25.0344 76.7451C25.2594 76.848 25.5144 76.8643 25.7507 76.7907C25.9869 76.7172 26.1877 76.559 26.3145 76.3465L29.9785 77.5883C29.9587 77.7531 29.9804 77.9204 30.0417 78.0747C30.1029 78.229 30.2018 78.3656 30.3293 78.4721C30.4568 78.5785 30.6088 78.6513 30.7716 78.6841C30.9344 78.7168 31.1028 78.7083 31.2615 78.6593C31.4202 78.6104 31.5641 78.5226 31.6803 78.4039C31.7964 78.2851 31.881 78.1393 31.9264 77.9796C31.9718 77.8198 31.9766 77.6513 31.9403 77.4892C31.904 77.3272 31.8277 77.1768 31.7185 77.0517C32.0251 75.9556 34.6773 67.8533 34.9456 67.0868C35.203 67.0644 35.4419 66.9436 35.6125 66.7495C36.3407 67.3244 38.5253 68.9571 39.2305 69.4324C39.1902 69.591 39.1896 69.7572 39.2288 69.9161C39.268 70.0751 39.3457 70.2219 39.4551 70.3437C39.5645 70.4654 39.7022 70.5584 39.8561 70.6143C40.01 70.6702 40.1752 70.6873 40.3373 70.6642C40.4993 70.641 40.6532 70.5783 40.7852 70.4815C40.9173 70.3848 41.0235 70.257 41.0944 70.1095C41.1653 69.962 41.1988 69.7992 41.1919 69.6357C41.1851 69.4721 41.138 69.3128 41.0549 69.1718C43.0938 65.9217 43.1858 65.9753 42.9712 65.8297C42.9308 65.8046 42.8826 65.7955 42.8358 65.804C42.7891 65.8125 42.7472 65.838 42.7182 65.8757C42.358 66.3969 40.6563 68.7885 40.6563 68.7885C40.4749 68.6992 40.2713 68.6654 40.0709 68.6913C39.8705 68.7172 39.6821 68.8017 39.5295 68.9341C38.8166 68.4359 36.5553 66.8185 35.8348 66.2589C35.8656 66.0821 35.848 65.9001 35.7839 65.7324C35.7198 65.5647 35.6116 65.4174 35.4707 65.3061C35.3298 65.1948 35.1614 65.1236 34.9834 65.1002C34.8054 65.0767 34.6244 65.1017 34.4594 65.1726C34.2945 65.2436 34.1517 65.3577 34.0463 65.5031C33.9409 65.6485 33.8768 65.8196 33.8606 65.9984C33.8444 66.1773 33.8769 66.3571 33.9546 66.519C34.0322 66.6809 34.1522 66.8188 34.3017 66.9182C33.6425 68.7118 31.7262 74.9207 31.2356 76.7298C31.0514 76.6822 30.8576 76.6872 30.6761 76.7441C30.4946 76.801 30.3326 76.9075 30.2084 77.0517C29.4419 76.7911 27.1423 76.0935 26.4448 75.8712C26.4448 75.609 26.3406 75.3575 26.1552 75.172C25.9697 74.9866 25.7182 74.8824 25.456 74.8824C25.1937 74.8824 24.9422 74.9866 24.7568 75.172C24.5713 75.3575 24.4671 75.609 24.4671 75.8712C24.4688 76.0902 24.5414 76.3027 24.6741 76.4768L23.302 78.1862C23.1706 78.1574 23.0346 78.1561 22.9027 78.1825C22.7707 78.2089 22.6457 78.2623 22.5355 78.3395L18.8791 75.5723C18.919 75.335 18.8711 75.0913 18.7442 74.8869C18.6173 74.6824 18.4202 74.5313 18.1899 74.4617C17.9596 74.3921 17.7118 74.4089 17.4929 74.509C17.2741 74.609 17.0992 74.7854 17.0011 75.0051C16.9249 75.163 16.8938 75.339 16.9114 75.5135C16.929 75.6881 16.9945 75.8543 17.1008 75.9939C16.3802 77.0747 13.7664 81.2523 13.3908 81.8578C13.2532 81.8233 13.1098 81.8187 12.9703 81.8445C12.8308 81.8703 12.6985 81.9257 12.5823 82.0072C12.4662 82.0886 12.3689 82.194 12.2971 82.3164C12.2253 82.4387 12.1807 82.5751 12.1662 82.7162C12.1518 82.8573 12.1678 82.9999 12.2134 83.1342C12.2589 83.2686 12.3328 83.3916 12.43 83.4948C12.5273 83.5981 12.6456 83.6792 12.777 83.7327C12.9084 83.7862 13.0497 83.8108 13.1915 83.8048ZM26.5291 86.5184C26.4722 86.5184 26.4176 86.541 26.3773 86.5812C26.3371 86.6215 26.3145 86.6761 26.3145 86.733C26.3145 86.7899 26.3371 86.8445 26.3773 86.8847C26.4176 86.925 26.4722 86.9476 26.5291 86.9476C27.8705 86.9476 43.6151 86.3344 44.1593 86.3267C44.1951 86.3188 44.227 86.2989 44.25 86.2703C44.2729 86.2417 44.2854 86.2062 44.2854 86.1696C44.2854 86.133 44.2729 86.0974 44.25 86.0689C44.227 86.0403 44.1951 86.0204 44.1593 86.0124C42.0207 86.0201 27.9012 86.365 26.5291 86.5184ZM33.2669 81.0377C33.3157 81.0377 33.3625 81.0183 33.397 80.9838C33.4315 80.9493 33.4509 80.9025 33.4509 80.8537C33.4509 80.8049 33.4315 80.7581 33.397 80.7236C33.3625 80.6891 33.3157 80.6697 33.2669 80.6697C32.6613 80.6697 30.4691 80.5394 29.9555 80.5624C29.866 80.5624 29.7803 80.5979 29.717 80.6612C29.6538 80.7244 29.6182 80.8102 29.6182 80.8997C29.6182 80.9891 29.6538 81.0749 29.717 81.1382C29.7803 81.2014 29.866 81.237 29.9555 81.237C30.4614 81.2983 32.6307 81.0913 33.2669 81.0377ZM25.0727 82.0188H21.7689C21.6975 82.0222 21.6283 82.0447 21.5685 82.084C21.5088 82.1233 21.4607 82.1779 21.4294 82.2422C21.398 82.3065 21.3845 82.378 21.3903 82.4493C21.3961 82.5206 21.421 82.589 21.4623 82.6474C21.6693 82.954 21.8303 82.7164 25.088 82.4404C25.1285 82.4211 25.1624 82.3903 25.1856 82.352C25.2088 82.3137 25.2203 82.2694 25.2186 82.2246C25.217 82.1798 25.2023 82.1365 25.1764 82.0999C25.1505 82.0633 25.1144 82.0352 25.0727 82.0188ZM12.0033 86.1121C12.1643 86.1121 14.4946 85.8591 15.0081 85.8361C15.0651 85.8361 15.1197 85.8135 15.1599 85.7733C15.2002 85.733 15.2228 85.6784 15.2228 85.6215C15.2228 85.5646 15.2002 85.51 15.1599 85.4697C15.1197 85.4295 15.0651 85.4069 15.0081 85.4069C14.7092 85.4069 12.1183 85.5142 11.942 85.5985C11.8952 85.6267 11.8576 85.6678 11.8335 85.7169C11.8095 85.7659 11.8002 85.8209 11.8067 85.8751C11.8132 85.9294 11.8352 85.9806 11.8701 86.0226C11.9049 86.0647 11.9512 86.0957 12.0033 86.1121Z" fill="black"/>
<path d="M39.0543 72.8204H39.177C42.4347 72.5291 42.3197 72.7514 42.4577 72.5981C42.4832 72.5681 42.4999 72.5316 42.506 72.4926C42.5121 72.4537 42.5074 72.4139 42.4923 72.3774C42.4773 72.341 42.4525 72.3094 42.4207 72.2862C42.3889 72.2629 42.3513 72.2488 42.3121 72.2455C41.1699 72.2455 40.0968 72.1459 39.0696 72.1919C38.6327 72.1995 38.671 72.8204 39.0543 72.8204ZM21.9147 66.1286C21.8313 66.1286 21.7514 66.1617 21.6925 66.2206C21.6335 66.2796 21.6004 66.3595 21.6004 66.4429C21.6004 66.5262 21.6335 66.6062 21.6925 66.6651C21.7514 66.724 21.8313 66.7571 21.9147 66.7571C23.0108 66.7571 27.2804 66.3662 28.3152 66.2589C28.3642 66.2495 28.4085 66.2233 28.4403 66.1849C28.4721 66.1464 28.4895 66.098 28.4895 66.0481C28.4895 65.9982 28.4721 65.9498 28.4403 65.9114C28.4085 65.8729 28.3642 65.8467 28.3152 65.8373C27.2497 65.9216 22.9725 66.0366 21.9147 66.1286ZM21.3934 67.9223C21.3318 67.9376 21.2778 67.9748 21.2417 68.0271C21.2056 68.0794 21.1899 68.1431 21.1974 68.2061C21.2049 68.2692 21.2352 68.3274 21.2826 68.3697C21.33 68.412 21.3912 68.4355 21.4548 68.4359C22.6659 68.4359 27.4184 68.0066 28.6142 67.9989C28.667 67.9989 28.7177 67.9779 28.7551 67.9406C28.7925 67.9032 28.8135 67.8525 28.8135 67.7996C28.8135 67.7468 28.7925 67.6961 28.7551 67.6587C28.7177 67.6213 28.667 67.6003 28.6142 67.6003C26.2028 67.5473 23.7905 67.6548 21.3934 67.9223ZM28.0009 69.1487C25.9949 69.1198 23.9888 69.1991 21.9913 69.3863C21.6234 69.4323 21.6081 69.9919 21.9913 69.9919C22.6736 69.9919 26.3989 69.6086 28.0086 69.5473C28.0348 69.5468 28.0606 69.5412 28.0846 69.5307C28.1086 69.5202 28.1303 69.5051 28.1484 69.4862C28.1666 69.4674 28.1808 69.4451 28.1904 69.4208C28.1999 69.3964 28.2046 69.3704 28.2041 69.3442C28.2036 69.318 28.1979 69.2922 28.1874 69.2682C28.177 69.2442 28.1619 69.2225 28.143 69.2044C28.1241 69.1862 28.1019 69.172 28.0775 69.1624C28.0531 69.1529 28.0271 69.1482 28.0009 69.1487ZM30.5228 52.6377C30.8984 52.6377 34.7234 52.2391 35.4746 52.1854C35.5275 52.1854 35.5782 52.1644 35.6155 52.127C35.6529 52.0897 35.6739 52.039 35.6739 51.9861C35.6739 51.9332 35.6529 51.8826 35.6155 51.8452C35.5782 51.8078 35.5275 51.7868 35.4746 51.7868C35.099 51.7868 30.9981 51.9095 30.5458 51.9401C30.0936 51.9708 30.0936 52.6377 30.5228 52.6377ZM31.3124 54.186C32.5158 54.186 37.207 53.7415 38.3951 53.6648C38.4384 53.656 38.4774 53.6325 38.5053 53.5983C38.5333 53.5641 38.5486 53.5212 38.5486 53.477C38.5486 53.4328 38.5333 53.39 38.5053 53.3557C38.4774 53.3215 38.4384 53.298 38.3951 53.2892C37.1993 53.3429 32.4775 53.3659 31.3047 53.4885C31.2212 53.5018 31.1453 53.5447 31.0907 53.6093C31.0362 53.674 31.0067 53.756 31.0076 53.8406C31.0086 53.9251 31.0399 54.0065 31.0958 54.07C31.1517 54.1334 31.2286 54.1746 31.3124 54.186Z" fill="black"/>
</svg>
