<svg width="154" height="154" viewBox="0 0 154 154" fill="none" xmlns="http://www.w3.org/2000/svg">
<path d="M47.9171 34.2338C45.2572 34.3334 42.9805 37.093 44.0077 39.5996C44.9352 41.8226 47.9324 41.608 49.7645 40.8031C53.3519 39.27 51.8265 34.0958 47.9171 34.2338ZM50.0251 40.0749C48.423 41.0944 45.2035 41.2784 44.3986 39.4923C43.5937 37.7062 45.1652 35.2303 47.4265 34.893C50.899 34.2644 52.5241 38.4881 50.0251 40.0749ZM64.0376 36.932C64.6355 36.1655 65.793 35.5139 66.6592 35.9048C67.1652 36.1425 67.4641 35.4756 66.8892 35.3683C66.291 35.2634 65.6751 35.3386 65.1197 35.5842C64.5642 35.8299 64.0943 36.2349 63.7693 36.748C63.7573 36.7657 63.7488 36.7855 63.7444 36.8064C63.7399 36.8273 63.7397 36.8488 63.7436 36.8698C63.7475 36.8908 63.7555 36.9109 63.7672 36.9288C63.7788 36.9467 63.7939 36.9621 63.8115 36.9742C63.8291 36.9863 63.8489 36.9948 63.8698 36.9992C63.8907 37.0036 63.9123 37.0038 63.9333 36.9999C63.9543 36.996 63.9743 36.988 63.9922 36.9764C64.0101 36.9647 64.0256 36.9496 64.0376 36.932ZM31.145 13.6749C32.5595 14.2818 34.0381 14.7266 35.5526 15.001C35.7366 15.001 35.8363 14.7787 35.8823 14.6407C36.493 12.7474 37.7385 11.1228 39.4084 10.0414C45.7937 6.28535 51.9415 12.7014 49.2662 18.7724C47.7791 22.1376 43.9004 23.1111 40.7345 24.0003C40.1673 24.1613 40.2976 24.4066 40.8495 25.7251C41.7796 27.9634 42.6969 30.2043 43.6014 32.4477C43.7854 32.8846 44.5673 32.601 44.8816 32.5397C45.3721 32.4554 48.0551 32.1411 48.1394 31.4742C48.2237 30.8073 46.499 27.2505 46.1694 26.4993C52.2558 24.8282 56.3721 18.3738 54.9847 12.1265C53.2446 4.37664 44.7589 2.54459 38.0363 4.77525C34.4948 5.95573 30.9687 9.12158 30.915 13.1383C30.915 13.5446 30.8384 13.5446 31.145 13.6749ZM37.1547 5.63378C43.816 3.05817 52.6084 4.29232 54.4251 12.2721C55.7896 18.1975 51.7038 24.3683 45.9317 25.9397C45.7018 26.001 45.4565 26.1083 45.8627 26.9132C46.5066 28.224 47.5261 30.8226 47.7561 31.3362C46.552 31.7299 45.3157 32.0172 44.0613 32.1947L40.8572 24.5906C43.8774 24.3913 48.5227 21.992 49.8105 19.0484C52.4014 13.0923 46.7596 6.00939 39.8606 9.25956C38.7946 9.76439 37.855 10.5014 37.1109 11.4167C36.3668 12.3319 35.837 13.4021 35.5603 14.5488L31.2676 13.2916C31.3213 10.0261 34.2188 6.76828 37.1547 5.63378ZM65.2871 39.0324C64.8272 38.6108 63.6237 40.4045 64.2369 40.7724C64.5819 40.9717 65.7547 39.4616 65.2871 39.0324ZM75.3213 38.6568C75.7609 38.9051 76.1289 39.2628 76.3895 39.6953C76.65 40.1278 76.7943 40.6203 76.8084 41.125C76.8085 41.162 76.8208 41.198 76.8434 41.2273C76.866 41.2566 76.8976 41.2776 76.9333 41.2872C76.969 41.2968 77.0069 41.2944 77.0411 41.2803C77.0754 41.2663 77.104 41.2413 77.1226 41.2094C77.5979 39.9599 76.6474 38.7257 75.6432 38.0665C75.2369 37.7906 74.9073 38.5341 75.3213 38.6568ZM69.8174 51.2205C70.8983 50.3466 72.6613 50.1933 73.5352 51.4581C74.1944 52.4163 73.6348 53.5892 72.4544 53.2979C72.1215 53.1627 71.7987 53.0039 71.4885 52.8226C71.4597 52.8119 71.4285 52.8093 71.3983 52.815C71.3681 52.8207 71.34 52.8346 71.3172 52.8551C71.2943 52.8756 71.2774 52.902 71.2684 52.9314C71.2595 52.9608 71.2587 52.9921 71.2662 53.0219C71.6878 54.2867 74.1868 54.2254 74.3784 52.562C74.6084 50.5766 71.6571 48.9975 69.6488 51.0289C69.6234 51.0512 69.6079 51.0828 69.6057 51.1166C69.6036 51.1503 69.6149 51.1836 69.6373 51.209C69.6596 51.2344 69.6912 51.2499 69.725 51.2521C69.7588 51.2542 69.792 51.2429 69.8174 51.2205ZM72.531 43.7543C73.2976 44.1069 74.0641 42.1829 73.4432 41.9223C72.8223 41.6616 72.0558 43.555 72.531 43.7543ZM67.4948 46.5676C68.5756 47.0045 68.407 46.4449 68.2613 46.3146C67.3886 45.8716 66.4871 45.4874 65.5631 45.1648C66.6899 43.3787 67.7554 41.5696 68.9895 39.8526C69.0969 39.7069 68.8669 39.523 68.7596 39.6763C67.5944 41.309 66.4139 42.9341 65.2871 44.5899C64.5666 45.64 64.7965 45.479 67.4948 46.5676ZM95.0522 110.184C95.5833 109.915 96.0056 109.471 96.2481 108.927C96.4906 108.384 96.5385 107.773 96.3838 107.199C96.2291 106.624 95.8812 106.12 95.3986 105.771C94.9159 105.423 94.3281 105.251 93.7338 105.285C89.7247 105.285 90.0543 112.928 95.0522 110.184ZM111.625 92.6066C113.296 94.2163 117.114 93.5264 115.933 90.1536C114.53 86.1292 108.59 89.686 111.625 92.6066ZM107.171 121.421C101.913 121.85 104.68 129.14 108.406 126.933C110.943 125.423 109.808 121.176 107.171 121.421ZM93.5881 84.0365C92.9826 81.4839 88.7205 80.8477 87.77 83.8066C86.2829 88.4748 94.5617 88.1529 93.5881 84.0365ZM126.144 110.023C120.816 111.954 128.857 119.781 130.229 112.782C130.743 110.207 128.298 109.241 126.144 110.023ZM76.0112 98.256C75.4137 98.3422 74.8631 98.6285 74.4494 99.068C74.0357 99.5076 73.7833 100.074 73.7335 100.676C73.6837 101.278 73.8393 101.878 74.1751 102.38C74.5108 102.882 75.0068 103.255 75.5819 103.438C79.5296 104.618 80.1965 97.6428 76.0112 98.256Z" fill="black"/>
<path d="M138.868 120.179C138.6 108.191 131.279 95.7187 123.836 86.5738C125.63 84.1162 126.641 81.1756 126.74 78.1348C126.838 75.0941 126.019 72.0941 124.388 69.5257C122.295 66.2295 119.474 65.0874 118.585 62.6268C117.512 59.6985 118.854 56.4944 118.67 53.5355C118.455 49.9787 116.37 46.0616 112.698 45.1034C110.261 44.4672 106.658 45.6017 105.347 41.1557C104.32 37.6679 106.114 32.509 103.047 27.6414C101.407 25.0275 98.517 23.5787 95.7038 22.5898C92.147 21.3404 87.9386 20.8498 84.5122 22.7048C82.4636 21.9155 80.253 21.6391 78.0731 21.9C80.4878 19.3857 81.5226 14.1578 80.3728 10.8463C80.0202 9.81912 74.0641 14.0581 73.6348 19.3627C71.2202 16.5341 68.8362 15.5912 65.3254 15.139C63.9763 14.9627 66.7895 21.9689 69.2042 22.8965C67.3644 23.0651 64.8195 23.663 63.4934 25.0198C63.0775 25.521 62.7668 26.1009 62.5797 26.7247C62.3927 27.3486 62.3332 28.0037 62.4047 28.6511C62.4762 29.2985 62.6774 29.9248 62.9961 30.4928C63.3148 31.0608 63.7446 31.5588 64.2599 31.9571C61.5233 36.3111 59.1164 41.102 58.6641 46.2992C56.4858 46.8408 54.608 48.2175 53.4362 50.132C50.1784 54.8846 53.9651 57.0309 52.754 60.787C51.3205 65.302 46.9895 63.6233 44.9352 66.6205C43.4021 68.7898 43.7624 71.8484 45.2495 73.9564C43.0035 75.2442 40.1749 76.8463 38.3965 78.6937C38.8028 66.8811 37.2697 55.9578 36.6718 53.5201C36.5875 53.1982 35.384 53.4512 35.062 53.4742C35.7183 52.0554 36.1699 50.5508 36.4035 49.0052C36.5338 47.5641 36.4035 45.502 34.5561 45.3871C34.3951 44.9348 34.5561 40.2818 31.6049 37.7215C30.961 37.162 30.2787 37.0547 30.2941 38.0742C30.2941 39.6073 31.3596 40.9487 31.5052 43.44C30.805 43.4805 30.1314 43.7227 29.5659 44.1376C26.9673 43.463 24.154 49.3654 26.4997 49.8024C26.1908 50.8977 26.2638 52.0655 26.7066 53.1139C26.4997 53.1139 26.0551 52.9452 25.9401 53.1829C20.3979 63.9912 12.5868 83.3313 14.7254 95.2281C17.2167 109.08 32.1261 112.928 44.3066 111.548C45.0233 118.439 47.0474 125.131 50.2704 131.264C51.1749 132.965 54.8697 140.248 56.9164 141.949C56.3319 144.395 56.0361 146.901 56.0348 149.416C56.0348 149.661 56.4028 149.623 56.4104 149.416C56.4945 147.062 56.8104 144.723 57.3533 142.432C59.0454 143.142 60.7724 143.767 62.5275 144.303C76.3188 148.43 90.9996 148.55 104.856 144.648C106.888 144.073 109.072 143.536 110.843 142.348C111.541 144.648 112.307 146.848 113.051 149.094C113.056 149.112 113.065 149.13 113.078 149.145C113.09 149.16 113.105 149.172 113.122 149.182C113.139 149.191 113.158 149.197 113.177 149.199C113.197 149.201 113.216 149.199 113.235 149.193C113.253 149.188 113.271 149.179 113.286 149.166C113.301 149.154 113.313 149.139 113.323 149.122C113.332 149.105 113.338 149.086 113.34 149.067C113.342 149.047 113.34 149.028 113.334 149.009C112.645 146.541 111.978 144.073 111.234 141.627C111.726 139.435 111.983 137.197 112.001 134.951C116.692 135.625 123.33 136.177 127.945 135.25C132.56 134.322 136.415 131.816 137.91 127.193C138.63 124.928 138.954 122.555 138.868 120.179ZM89.3874 27.6108C90.7979 30.2783 91.1811 34.1801 90.7365 37.116C90.4471 39.3356 89.5535 41.433 88.1533 43.1794L87.3867 42.9648C89.2801 36.8324 87.5477 29.8184 82.1588 26.047C80.0188 24.683 77.6253 23.7653 75.1219 23.3487C79.6216 20.7578 86.9498 22.9808 89.3874 27.6108ZM80.1352 11.3446C80.5798 17.4156 79.6752 19.4853 77.069 22.0763C76.575 22.183 76.0961 22.3503 75.6432 22.5745C75.2585 21.5528 74.7067 20.6021 74.0104 19.7613C74.662 16.2505 76.655 12.709 80.1352 11.3446ZM65.5324 15.5529C65.5324 15.4456 65.5324 15.4686 65.6244 15.4916C70.8292 16.6797 72.7763 18.1055 75.1756 22.8351C74.9916 22.9507 74.8196 23.0842 74.662 23.2338C73.1818 22.9326 71.6724 22.7989 70.1623 22.8351C67.7554 22.4135 65.9233 17.7376 65.5324 15.5529ZM64.8425 32.256C69.8251 34.9773 77.7665 37.3076 83.6536 36.5411C82.0534 38.4734 81.2332 40.934 81.354 43.44C81.446 45.3871 82.6494 46.6595 84.3435 45.2184C85.225 44.4519 86.3519 43.1104 87.6703 43.5473C88.9888 43.9843 88.8125 45.4944 88.2682 46.6135C86.2522 50.7452 82.3811 50.0553 83.8836 59.5912C84.1398 61.2136 84.5426 62.8095 85.0871 64.3592C84.8314 65.605 84.148 66.7223 83.1554 67.5174C78.6097 71.6414 69.871 70.6525 70.0167 64.9877C70.0598 63.4256 70.0214 61.8623 69.9017 60.3041C66.8892 59.6909 63.0641 58.2958 61.186 55.6588C60.5444 54.6988 60.0725 53.6358 59.7909 52.516C58.4955 48.0087 59.3846 43.1947 61.2014 38.9557C62.208 36.616 63.4268 34.3734 64.8425 32.256ZM85.5853 64.6581C86.4285 64.7348 87.2334 64.8498 88.0306 64.9801C88.0306 65.5933 88.7972 68.0463 88.2069 71.0052C87.632 74.1403 85.409 77.3982 82.0055 77.6741C76.8697 78.0804 75.6815 73.0135 75.7045 70.5452C82.2738 71.0128 85.8536 65.716 85.5853 64.6581ZM74.7003 70.4226C74.34 70.4226 73.4585 73.9487 70.2697 74.6693C67.2494 75.3592 65.4097 72.9445 65.9693 70.07C66.4062 67.7703 68.085 66.1836 68.4146 65.4707L69.4801 65.233C69.2501 68.1613 71.7568 69.9243 74.7003 70.4226ZM35.2613 46.0539C36.4571 46.8205 35.8669 49.7181 35.5066 50.8066C35.2153 51.7034 34.8704 52.5926 34.5484 53.4818C32.1051 53.5907 29.657 53.4727 27.2355 53.1292C26.9055 52.0295 26.791 50.8765 26.8983 49.7334C27.248 49.637 27.5522 49.4197 27.7568 49.1201C28.4697 49.9557 29.5199 48.7599 30.0564 48.2463L31.3979 48.4609C30.4814 49.1203 29.8164 50.0718 29.5122 51.1592C29.5149 51.1928 29.5286 51.2246 29.5512 51.2497C29.5738 51.2748 29.6041 51.2917 29.6372 51.2978C29.6704 51.3039 29.7047 51.2989 29.7348 51.2835C29.7648 51.2682 29.789 51.2433 29.8035 51.2128C30.0233 50.6167 30.3644 50.0725 30.805 49.6147C31.2457 49.1569 31.7764 48.7954 32.3638 48.5529C33.3449 48.2693 33.1303 47.8783 32.3638 48.0317C32.1261 48.0776 29.7192 47.955 29.6732 47.5641C29.6272 47.1731 33.8892 45.1801 35.2613 46.0539ZM31.6125 43.8616V44.7815C31.6125 44.9271 31.8732 44.9348 31.9038 44.7815C32.5094 41.4317 30.8997 39.9599 30.8997 37.9438C30.8997 37.5682 31.1526 37.8365 31.3289 37.9438C33.8432 39.9599 34.0578 43.6623 34.1115 45.3487C32.6072 45.4883 31.1598 45.9936 29.8955 46.8205C29.2516 47.1731 28.7227 47.7557 29.6118 48.139C29.2439 48.4073 28.3087 49.4651 27.9714 48.6679C27.6342 47.8707 28.8683 43.9229 31.5895 43.8463L31.6125 43.8616ZM26.2084 48.8365C26.0627 47.1041 27.3275 44.7355 29.1289 44.5208C28.1017 45.525 27.1819 47.8323 27.5268 48.8442C27.2125 49.2658 26.2467 49.833 26.1854 48.8212L26.2084 48.8365ZM26.308 53.3515C29.4125 54.256 33.0537 53.9494 36.2732 53.8498L36.8941 58.1884C32.7649 58.5231 28.6087 58.1786 24.5909 57.1689C25.1429 55.8811 25.7254 54.624 26.285 53.3362L26.308 53.3515ZM136.691 128.78C133.165 124.71 129.386 131.08 132.605 132.95C129.869 134.537 126.672 135.027 123.553 135.112C112.269 135.418 100.41 132.605 90.2229 127.814C90.7442 121.682 89.3108 116.914 87.2334 113.779C95.8418 111.579 102.472 111.027 110.766 110.536C110.904 110.536 110.935 110.291 110.766 110.283C109.159 110.208 107.549 110.236 105.945 110.368C105.799 109.685 100.794 104.603 95.9797 94.27C95.9031 94.109 95.6501 94.1856 95.7191 94.3543C98.1467 99.8285 101.219 104.993 104.872 109.739C105.033 109.954 105.201 110.168 105.385 110.375C96.9463 110.851 88.6076 112.444 80.5874 115.112C80.2195 115.243 80.4724 115.618 80.6871 115.787C79.5403 115.846 78.4038 116.034 77.2989 116.347C76.793 116.063 75.1143 115.948 73.8724 114.745C72.3393 113.211 72.2167 116.799 74.1714 117.642C68.9435 120.501 67.763 124.779 69.2808 124.618C69.6488 124.579 69.94 124.219 70.2007 123.966C70.6529 123.545 71.1205 123.131 71.5651 122.686C69.3805 127.285 71.6648 128.696 72.2857 126.519C72.7017 125.061 73.495 123.739 74.5853 122.686C73.2822 125.231 74.432 128.381 75.5512 127.531C76.1798 127.04 75.9498 124.464 78.1345 123.246C78.3798 123.115 78.6404 123.031 78.901 122.908C79.5986 123.782 81.8829 124.97 84.4662 124.963C84.5428 125.139 84.5505 125.223 84.6578 125.292C92.9114 130.133 102.021 133.336 111.487 134.728C111.468 137.048 111.211 139.36 110.72 141.627C108.536 143.099 103.484 144.333 100.824 144.931C90.5914 147.209 79.998 147.345 69.7101 145.33C67.3414 144.862 58.6334 142.923 57.246 141.313C54.6474 138.301 53.4822 135.587 51.5275 132.115C47.6258 125.177 44.8815 116.132 44.7742 108.168C44.6168 101.967 46.2338 95.8499 49.4348 90.5368C50.9383 88.3035 52.566 86.1564 54.3101 84.1055C54.4327 83.9675 54.2181 83.7759 54.1031 83.9139C51.1672 87.2484 48.63 90.2686 46.8669 94.3926C44.7033 99.5902 43.8301 105.234 44.3219 110.843C34.8091 112.046 24.0544 110.237 18.1673 101.905C20.6892 100.878 19.8843 95.3815 15.5993 96.3013C13.6446 88.6358 16.7185 77.3599 19.2174 70.2386C20.7505 65.8616 22.5596 61.5996 24.476 57.3682C26.4307 58.3418 32.8544 59.0393 36.9937 58.6407C38.1066 67.7344 38.3377 76.9144 37.6836 86.0525C37.6836 86.2212 37.9366 86.2212 37.9672 86.0525C38.2993 83.8062 38.4735 81.5393 38.4885 79.2686C41.7923 76.1334 47.4955 73.1362 51.6195 71.1968C51.0446 72.6916 52.547 74.4546 54.1108 74.447C57.3303 74.447 57.361 70.0546 55.115 69.656C59.1836 67.9757 63.3797 66.6223 67.6634 65.6086C66.1303 67.6707 64.5972 70.2923 65.7087 72.8985C67.0118 76.0261 71.6264 76.3403 74.3017 71.994C70.7767 79.3955 68.5 87.329 67.5637 95.4734C67.5637 95.6574 67.8167 95.7187 67.8474 95.5348C69.0199 87.135 71.5112 78.9729 75.2292 71.3501C75.2616 73.0509 75.8244 74.6991 76.839 76.0644C80.7561 81.2156 91.0202 77.0839 88.6055 65.0644C94.3292 66.0814 99.8346 68.0782 104.879 70.9668C104.329 71.451 103.975 72.1201 103.885 72.8476C103.794 73.575 103.974 74.3104 104.389 74.9146C104.6 75.2375 104.874 75.5156 105.193 75.7328C105.512 75.9501 105.871 76.1022 106.249 76.1805C106.627 76.2589 107.017 76.2618 107.396 76.1893C107.775 76.1168 108.137 75.9701 108.459 75.7578C108.76 75.5346 109.004 75.2431 109.171 74.9073C109.337 74.5715 109.422 74.2009 109.417 73.8261C117.773 79.6518 124.511 87.532 129.877 96.125C133.993 102.717 137.603 110.513 138.201 118.447C138.462 121.942 138.255 125.614 136.691 128.765V128.78ZM75.8195 121.176L75.1066 121.942C71.7261 124.242 72.0404 127.791 71.2738 127.063C70.331 126.143 71.9101 122.111 73.3282 120.854C74.5393 119.781 73.1366 119.934 72.0327 121.797L71.9714 121.858C71.1136 122.554 70.2923 123.293 69.5108 124.073C67.7937 125.653 70.0627 117.013 81.078 116.193C83.3777 118.301 83.9756 121.498 84.3818 124.495C81.2543 124.495 79.1003 122.54 78.8167 122.571C77.1073 122.77 76.0034 124.702 75.5818 126.189C75.5282 126.373 75.4055 127.186 75.2216 127.247C74.6467 127.446 73.5505 123.782 75.9881 121.413C76.1721 121.23 75.9651 121.03 75.8195 121.176ZM74.547 117.435C73.1749 117.021 72.7763 114.691 73.2822 114.798C74.2151 115.628 75.3236 116.236 76.5247 116.577C75.8422 116.796 75.1804 117.076 74.547 117.412V117.435ZM80.894 115.58C80.6794 115.58 85.4933 114.208 86.8655 113.855C89.809 119.122 90.0313 123.054 89.6787 127.569L85.0181 125.154C84.5122 120.785 83.1477 117.013 80.894 115.557V115.58Z" fill="black"/>
<path d="M33.6821 101.491C34.6327 103.384 39.048 102.733 38.9023 99.8121C38.703 95.6268 31.4668 97.0986 33.6821 101.491ZM30.1867 66.1453C30.3017 62.0749 25.3957 62.7034 24.8821 66.7125C24.6139 68.7669 30.064 70.5299 30.1867 66.1453ZM29.4738 77.0916C28.4466 78.0804 28.5233 81.3843 31.3978 81.3076C36.3574 81.185 32.7086 73.9871 29.4738 77.0916ZM55.1225 120.409C56.6556 122.548 60.2508 120.992 59.6452 118.209C58.7867 114.277 52.5929 116.914 55.1225 120.409ZM58.503 86.9648C55.3832 86.9648 54.9692 91.2651 57.2229 92.2616C62.5657 94.6226 62.8034 86.9648 58.503 86.9648ZM78.441 138.646C81.4459 140.7 85.3399 135.74 81.9671 133.786C78.418 131.708 75.2828 136.507 78.441 138.646Z" fill="black"/>
</svg>
