<svg width="155" height="154" viewBox="0 0 155 154" fill="none" xmlns="http://www.w3.org/2000/svg">
<path d="M68.3732 19.3703C68.7182 22.0609 70.3739 22.4825 70.3739 22.4825C73.0797 22.6664 72.1292 20.2519 72.1292 20.2519C69.3544 14.6945 62.5859 16.5418 62.5859 16.5418C62.5859 16.5418 67.9976 16.6798 68.3732 19.3703ZM107.581 29.7492C111.46 24.4371 104.576 20.3745 104.576 20.3745C105.03 22.4426 105.03 24.5843 104.576 26.6524C104.209 31.6885 107.581 29.7492 107.581 29.7492Z" fill="black"/>
<path d="M142.726 34.6397C142.726 34.6397 135.061 15.2465 107.635 7.42786C80.2081 -0.390752 59.4658 15.8597 59.4658 15.8597C85.7425 7.42786 90.7326 14.227 90.7326 14.227C90.7326 14.227 95.2245 19.3397 99.3561 18.7189C103.488 18.098 100.736 14.1197 100.736 14.1197C110.647 16.0973 112.272 21.9 114.71 26.8287C117.147 31.7575 120.075 29.2357 122.866 26.4608C125.656 23.686 128.592 27.0127 128.592 27.0127C131.085 30.4664 132.686 34.4835 133.25 38.7059C133.815 42.9282 133.326 47.2247 131.826 51.2121C126.744 65.2549 135.521 66.0828 135.521 66.0828C153.343 62.9017 142.726 34.6397 142.726 34.6397ZM118.803 23.1417C117.331 23.6093 116.588 20.9725 116.588 20.9725C116.416 20.6241 116.379 20.2249 116.482 19.8505C116.585 19.4762 116.822 19.1526 117.147 18.9411C118.834 18.1746 119.447 20.3516 119.447 20.3516C119.447 20.3516 120.275 22.7048 118.795 23.1647L118.803 23.1417ZM141.193 44.459C141.383 44.4605 141.57 44.5078 141.738 44.5968C141.905 44.6859 142.049 44.8141 142.157 44.9706C142.264 45.1271 142.333 45.3072 142.356 45.4957C142.379 45.6842 142.356 45.8755 142.289 46.0533C141.891 47.5864 140.258 46.3676 140.258 46.3676C140.143 46.1878 140.075 45.9813 140.063 45.7679C140.051 45.5545 140.093 45.3415 140.187 45.1496C140.282 44.9576 140.424 44.7932 140.6 44.6722C140.776 44.5512 140.98 44.4778 141.193 44.459ZM139.116 60.9087C139.116 60.9087 138.426 60.3568 139.116 58.6091C139.686 56.8311 140.104 55.0079 140.365 53.1591C141.239 50.1543 143.133 52.2852 143.133 52.2852C143.133 52.2852 144.474 54.4085 142.443 58.5171C140.411 62.6257 139.116 60.9164 139.116 60.9164V60.9087ZM57.9098 45.992C57.926 45.992 57.9416 45.9856 57.9531 45.9741C57.9646 45.9626 57.9711 45.947 57.9711 45.9307C57.9711 45.9144 57.9646 45.8988 57.9531 45.8873C57.9416 45.8758 57.926 45.8694 57.9098 45.8694C57.8935 45.8694 57.8779 45.8758 57.8664 45.8873C57.8549 45.8988 57.8484 45.9144 57.8484 45.9307C57.8484 45.947 57.8549 45.9626 57.8664 45.9741C57.8779 45.9856 57.8935 45.992 57.9098 45.992ZM64.7012 50.9745C64.6287 51.0417 64.549 51.1008 64.4636 51.1508C64.4538 51.1593 64.447 51.1707 64.4441 51.1833C64.4412 51.196 64.4424 51.2092 64.4475 51.2212C64.4526 51.2331 64.4614 51.2431 64.4725 51.2497C64.4837 51.2564 64.4967 51.2593 64.5096 51.2581C65.5214 50.9821 64.5786 50.1773 64.5096 49.6407C64.5096 49.5257 64.249 49.6407 64.8009 50.5452C64.8283 50.6186 64.8335 50.6985 64.8158 50.7749C64.7981 50.8512 64.7582 50.9206 64.7012 50.9745ZM65.7284 48.6059C65.6745 48.874 65.6745 49.1502 65.7284 49.4184C65.7376 49.4311 65.7498 49.4414 65.7637 49.4485C65.7777 49.4556 65.7932 49.4593 65.8089 49.4593C65.8246 49.4593 65.84 49.4556 65.854 49.4485C65.868 49.4414 65.8801 49.4311 65.8894 49.4184C65.9245 49.1641 65.9245 48.9062 65.8894 48.6519C65.943 48.5139 65.7437 48.4832 65.7284 48.6059ZM62.5473 48.6902C62.4837 48.9871 62.5187 49.2965 62.6469 49.5717C62.6616 49.5857 62.6795 49.5957 62.6991 49.6011C62.7186 49.6064 62.7392 49.6068 62.7589 49.6023C62.7787 49.5977 62.797 49.5883 62.8122 49.575C62.8274 49.5616 62.8391 49.5447 62.8462 49.5257C62.8671 49.2434 62.8333 48.9597 62.7466 48.6902C62.7365 48.6727 62.722 48.6581 62.7045 48.648C62.687 48.6379 62.6671 48.6326 62.6469 48.6326C62.6267 48.6326 62.6069 48.6379 62.5894 48.648C62.5719 48.6581 62.5574 48.6727 62.5473 48.6902ZM61.6888 48.0463C61.8574 47.8853 62.5933 47.3564 62.7466 47.2108C62.8999 47.0652 62.5473 46.8582 61.5815 47.939C61.5125 48.008 61.6198 48.123 61.6888 48.0463ZM66.3109 47.709C66.126 47.4552 65.8846 47.2479 65.6057 47.1035C65.4984 47.0575 65.4141 47.2491 65.5291 47.2951C65.6441 47.3411 66.3953 48.1306 66.3109 47.709ZM61.9647 53.0594C62.0107 53.1131 62.0874 53.0594 62.0567 52.9904C61.8202 52.6825 61.691 52.3056 61.6888 51.9173C62.5473 52.8601 63.4901 52.6302 63.1222 52.5305C62.5892 52.4129 62.1003 52.1472 61.7118 51.764C61.5201 51.58 61.4052 52.4002 61.9647 53.0594ZM57.2659 46.9118C57.2374 46.9118 57.2101 46.9232 57.19 46.9433C57.1699 46.9634 57.1586 46.9907 57.1586 47.0192C57.1586 47.0476 57.1699 47.0749 57.19 47.095C57.2101 47.1152 57.2374 47.1265 57.2659 47.1265C57.2944 47.1265 57.3216 47.1152 57.3418 47.095C57.3619 47.0749 57.3732 47.0476 57.3732 47.0192C57.3732 46.9907 57.3619 46.9634 57.3418 46.9433C57.3216 46.9232 57.2944 46.9118 57.2659 46.9118ZM58.1474 47.7167C58.1799 47.7167 58.2111 47.7038 58.2341 47.6808C58.2571 47.6578 58.27 47.6266 58.27 47.5941C58.27 47.5615 58.2571 47.5303 58.2341 47.5073C58.2111 47.4843 58.1799 47.4714 58.1474 47.4714C58.1149 47.4714 58.0837 47.4843 58.0607 47.5073C58.0377 47.5303 58.0248 47.5615 58.0248 47.5941C58.0248 47.6266 58.0377 47.6578 58.0607 47.6808C58.0837 47.7038 58.1149 47.7167 58.1474 47.7167ZM58.2854 46.6896C58.3099 46.6831 58.3316 46.6686 58.3471 46.6485C58.3625 46.6284 58.3709 46.6038 58.3709 46.5784C58.3709 46.553 58.3625 46.5284 58.3471 46.5083C58.3316 46.4882 58.3099 46.4738 58.2854 46.4673C58.2608 46.4738 58.2392 46.4882 58.2237 46.5083C58.2082 46.5284 58.1998 46.553 58.1998 46.5784C58.1998 46.6038 58.2082 46.6284 58.2237 46.6485C58.2392 46.6686 58.2608 46.6831 58.2854 46.6896ZM59.5042 46.8582C59.5305 46.8514 59.5539 46.8361 59.5706 46.8146C59.5873 46.7931 59.5964 46.7666 59.5964 46.7394C59.5964 46.7121 59.5873 46.6857 59.5706 46.6642C59.5539 46.6427 59.5305 46.6273 59.5042 46.6206C59.4778 46.6273 59.4544 46.6427 59.4377 46.6642C59.421 46.6857 59.4119 46.7121 59.4119 46.7394C59.4119 46.7666 59.421 46.7931 59.4377 46.8146C59.4544 46.8361 59.4778 46.8514 59.5042 46.8582ZM59.7801 48.9432C60.0024 48.8665 59.7111 48.6135 59.6498 48.8128C59.6268 48.8742 59.7035 48.9738 59.7801 48.9432ZM59.4122 48.031C59.4305 48.031 59.448 48.0237 59.461 48.0108C59.4739 47.9978 59.4812 47.9803 59.4812 47.962C59.4812 47.9437 59.4739 47.9262 59.461 47.9132C59.448 47.9003 59.4305 47.893 59.4122 47.893C59.3939 47.893 59.3763 47.9003 59.3634 47.9132C59.3505 47.9262 59.3432 47.9437 59.3432 47.962C59.3432 47.9803 59.3505 47.9978 59.3634 48.0108C59.3763 48.0237 59.3939 48.031 59.4122 48.031ZM57.1969 48.2916C57.1766 48.2916 57.1571 48.2997 57.1427 48.3141C57.1283 48.3284 57.1202 48.3479 57.1202 48.3683C57.1202 48.3886 57.1283 48.4081 57.1427 48.4225C57.1571 48.4368 57.1766 48.4449 57.1969 48.4449C57.2172 48.4449 57.2367 48.4368 57.2511 48.4225C57.2655 48.4081 57.2736 48.3886 57.2736 48.3683C57.2736 48.3479 57.2655 48.3284 57.2511 48.3141C57.2367 48.2997 57.2172 48.2916 57.1969 48.2916ZM58.0018 51.4114C57.9828 51.417 57.9661 51.4287 57.9543 51.4446C57.9424 51.4604 57.936 51.4797 57.936 51.4995C57.936 51.5193 57.9424 51.5386 57.9543 51.5545C57.9661 51.5704 57.9828 51.582 58.0018 51.5877C58.0207 51.582 58.0374 51.5704 58.0492 51.5545C58.0611 51.5386 58.0675 51.5193 58.0675 51.4995C58.0675 51.4797 58.0611 51.4604 58.0492 51.4446C58.0374 51.4287 58.0207 51.417 58.0018 51.4114ZM57.0129 49.3418C56.9804 49.3418 56.9492 49.3547 56.9262 49.3777C56.9032 49.4007 56.8903 49.4319 56.8903 49.4644C56.8903 49.4969 56.9032 49.5281 56.9262 49.5511C56.9492 49.5741 56.9804 49.587 57.0129 49.587C57.0455 49.587 57.0767 49.5741 57.0997 49.5511C57.1227 49.5281 57.1356 49.4969 57.1356 49.4644C57.1356 49.4319 57.1227 49.4007 57.0997 49.3777C57.0767 49.3547 57.0455 49.3418 57.0129 49.3418ZM58.1474 48.2916C58.1315 48.2872 58.1147 48.2866 58.0985 48.2897C58.0823 48.2929 58.067 48.2997 58.0539 48.3097C58.0408 48.3198 58.0301 48.3327 58.0228 48.3475C58.0155 48.3623 58.0117 48.3786 58.0117 48.3951C58.0117 48.4116 58.0155 48.4279 58.0228 48.4427C58.0301 48.4575 58.0408 48.4704 58.0539 48.4804C58.067 48.4904 58.0823 48.4973 58.0985 48.5004C58.1147 48.5036 58.1315 48.5029 58.1474 48.4986C58.1701 48.4923 58.1901 48.4788 58.2043 48.4602C58.2186 48.4415 58.2263 48.4186 58.2263 48.3951C58.2263 48.3716 58.2186 48.3487 58.2043 48.33C58.1901 48.3113 58.1701 48.2978 58.1474 48.2916ZM58.9982 47.6477C59.0247 47.6477 59.05 47.6372 59.0687 47.6185C59.0874 47.5998 59.0979 47.5745 59.0979 47.5481C59.0979 47.5216 59.0874 47.4963 59.0687 47.4776C59.05 47.4589 59.0247 47.4484 58.9982 47.4484C58.9718 47.4484 58.9465 47.4589 58.9278 47.4776C58.9091 47.4963 58.8986 47.5216 58.8986 47.5481C58.8986 47.5745 58.9091 47.5998 58.9278 47.6185C58.9465 47.6372 58.9718 47.6477 58.9982 47.6477ZM48.5811 73.1885C48.5881 73.1531 48.5881 73.1166 48.5811 73.0812C48.4968 72.3147 47.2627 72.9739 47.8146 73.6024C47.8667 73.6545 47.9336 73.6893 48.0062 73.7021C48.0797 73.7183 48.156 73.7168 48.2288 73.6977C48.3017 73.6786 48.3689 73.6425 48.425 73.5924C48.4812 73.5422 48.5246 73.4795 48.5517 73.4093C48.5789 73.339 48.5889 73.2634 48.5811 73.1885ZM49.4703 68.8806C49.5265 68.9365 49.5969 68.9759 49.6739 68.9948C49.7508 69.0137 49.8315 69.0114 49.9072 68.9879C49.9672 68.9671 50.0222 68.9339 50.0685 68.8904C50.1148 68.847 50.1515 68.7942 50.1761 68.7357C50.2007 68.6771 50.2127 68.614 50.2112 68.5505C50.2098 68.487 50.195 68.4245 50.1678 68.367C50.0298 67.7921 48.9337 68.321 49.4703 68.8806ZM51.241 71.5328C51.288 71.4067 51.288 71.268 51.241 71.1419C50.2675 70.291 50.3441 72.6443 51.241 71.5328ZM43.9819 74.9899C44.4648 75.3348 44.9247 74.8596 44.5032 74.3613C44.3422 74.1697 43.3993 74.5529 43.9819 74.9899ZM48.3511 76.8065C47.3546 76.086 47.209 78.2476 48.2515 77.5731C48.3548 77.4775 48.423 77.35 48.4453 77.211C48.4675 77.072 48.4425 76.9296 48.3741 76.8065H48.3511ZM51.3253 65.0326C51.0953 65.5079 51.8542 65.9218 52.0305 65.1859C52.0305 65.0173 52.0305 64.795 51.6396 64.7643C51.5667 64.7734 51.4981 64.8037 51.4422 64.8514C51.3863 64.8991 51.3457 64.9621 51.3253 65.0326ZM50.7427 62.0892C50.8167 62.1299 50.9017 62.1461 50.9854 62.1355C51.0692 62.1248 51.1474 62.0878 51.2088 62.0299C51.2702 61.9719 51.3116 61.8959 51.327 61.8129C51.3424 61.7299 51.3311 61.6441 51.2946 61.5679C51.0647 61.1233 50.2291 61.6292 50.7427 62.0892ZM52.1915 58.8467C52.1915 59.2837 53.004 59.2223 52.958 58.7241C52.9575 58.6738 52.9446 58.6245 52.9206 58.5804C52.8965 58.5363 52.862 58.4988 52.82 58.4711C52.6437 58.2565 51.9922 58.4175 52.1915 58.8467ZM55.5182 54.3779C55.9551 54.1172 55.6715 53.481 55.2499 53.711C54.698 53.7646 55.02 54.6691 55.5182 54.3779ZM52.5364 50.9821C52.5398 50.9567 52.5398 50.9309 52.5364 50.9055C52.5482 50.8452 52.5448 50.7829 52.5264 50.7242C52.508 50.6656 52.4751 50.6125 52.4309 50.5698C52.3867 50.5272 52.3325 50.4962 52.2733 50.4799C52.214 50.4635 52.1517 50.4623 52.0918 50.4762C52.0293 50.4926 51.9723 50.5254 51.9268 50.5714C51.8814 50.6173 51.8491 50.6747 51.8334 50.7374C51.8177 50.8001 51.8192 50.8659 51.8377 50.9278C51.8562 50.9898 51.891 51.0456 51.9385 51.0894C51.9679 51.1522 52.0171 51.2035 52.0786 51.2354C52.1402 51.2672 52.2105 51.2779 52.2787 51.2656C52.3469 51.2534 52.4091 51.219 52.4557 51.1677C52.5023 51.1164 52.5307 51.0512 52.5364 50.9821ZM47.6766 47.5251C47.3163 47.0575 46.7338 47.6401 47.094 48.0233C47.1266 48.0531 47.1626 48.0789 47.2013 48.1C47.4543 48.3453 48.0062 47.9083 47.6766 47.5251ZM48.1518 42.8569C47.9679 43.0332 47.9909 43.5161 48.3128 43.5544C48.3873 43.5886 48.4709 43.5974 48.5509 43.5796C48.6309 43.5618 48.7029 43.5183 48.7559 43.4558C48.8088 43.3933 48.8399 43.3151 48.8443 43.2333C48.8488 43.1515 48.8263 43.0704 48.7804 43.0025C48.7525 42.9478 48.7129 42.8998 48.6645 42.862C48.616 42.8241 48.5599 42.7973 48.5 42.7834C48.4401 42.7696 48.3779 42.7689 48.3178 42.7816C48.2576 42.7943 48.201 42.82 48.1518 42.8569ZM49.4319 38.0431C49.3492 38.0024 49.2549 37.9916 49.1651 38.0127C49.0753 38.0337 48.9956 38.0853 48.9395 38.1585C48.8834 38.2317 48.8545 38.3221 48.8577 38.4143C48.8608 38.5065 48.8958 38.5947 48.9567 38.664C48.976 38.7415 49.0151 38.8126 49.0702 38.8704C49.1253 38.9282 49.1945 38.9707 49.271 38.9936C49.3204 39 49.3705 38.9966 49.4186 38.9834C49.4666 38.9703 49.5115 38.9477 49.5508 38.917C49.59 38.8864 49.6227 38.8482 49.6471 38.8047C49.6714 38.7613 49.6869 38.7135 49.6926 38.664C49.7092 38.5885 49.7074 38.51 49.6874 38.4353C49.6674 38.3606 49.6297 38.2918 49.5776 38.2347C49.5549 38.1548 49.5029 38.0863 49.4319 38.0431ZM46.6571 40.7489C46.8411 40.1587 45.8446 40.0974 45.8446 40.6493C45.8463 40.7498 45.886 40.846 45.9557 40.9184C46.0253 40.9909 46.1198 41.0344 46.2202 41.0402C46.3152 41.0483 46.4102 41.0238 46.4895 40.9709C46.5689 40.918 46.628 40.8398 46.6571 40.7489ZM46.2815 70.5823C46.6034 71.1419 47.3087 70.1377 46.4808 70.0841C46.3505 70.1684 46.1435 70.2374 46.2815 70.5823ZM64.9925 73.2882C65.0707 73.2753 65.1437 73.2406 65.2031 73.1881C65.2625 73.1356 65.3059 73.0674 65.3283 72.9914C65.3507 72.9154 65.3512 72.8346 65.3298 72.7583C65.3083 72.6819 65.2658 72.6132 65.2071 72.56C64.8239 72.146 64.18 73.2498 64.9925 73.2882ZM65.874 67.5469C65.966 67.3629 65.966 67.1253 65.736 67.0486C64.6322 66.88 65.2071 68.5663 65.874 67.5469ZM64.065 63.0167C63.9896 62.9975 63.9105 62.9975 63.8351 63.0167C62.6546 63.8368 65.1918 64.0975 64.065 63.0167ZM66.8399 61.7595C67.1158 61.5143 67.1311 60.947 66.5946 60.993C66.058 61.039 66.196 62.1428 66.8399 61.7595ZM68.2733 64.6187C68.2661 64.5685 68.248 64.5205 68.2202 64.4781C68.1923 64.4357 68.1555 64.4 68.1123 64.3734C68.0559 64.3335 67.9885 64.3118 67.9193 64.3114C67.8502 64.3111 67.7826 64.3319 67.7257 64.3713C67.6688 64.4106 67.6254 64.4664 67.6013 64.5313C67.5772 64.5961 67.5736 64.6668 67.5911 64.7337C67.6063 64.8242 67.6569 64.9049 67.7316 64.958C67.8064 65.0112 67.8992 65.0326 67.9897 65.0173C68.0801 65.0021 68.1608 64.9515 68.214 64.8767C68.2672 64.802 68.2885 64.7092 68.2733 64.6187ZM70.4655 66.9643C70.54 66.946 70.6065 66.9039 70.6549 66.8445C70.7033 66.785 70.731 66.7113 70.7338 66.6347C70.7572 66.5544 70.7477 66.4681 70.7075 66.3948C70.6672 66.3215 70.5995 66.2671 70.5192 66.2438C70.4389 66.2204 70.3526 66.2299 70.2793 66.2701C70.206 66.3104 70.1517 66.3781 70.1283 66.4584C70.0133 66.5734 70.0746 67.0639 70.4655 66.9643ZM69.8217 70.567C69.7438 70.6029 69.6813 70.6654 69.6454 70.7433C69.1854 72.307 71.2321 70.59 69.8217 70.567ZM75.379 70.8583C75.368 70.7742 75.327 70.697 75.2637 70.6407C75.2003 70.5844 75.1188 70.5528 75.0341 70.5517C73.7923 70.8966 75.1644 72.0541 75.379 70.8583ZM76.4905 66.4124C76.8201 66.5657 77.0884 65.9141 76.6974 65.7378C76.4828 65.5692 76.0229 65.9448 76.3065 66.3204C76.3537 66.3736 76.4196 66.4066 76.4905 66.4124ZM79.4033 67.6388C79.7482 67.6388 79.9705 66.8723 79.4033 66.8723C79.2423 66.8723 79.066 66.9643 79.0277 67.2556C79.0231 67.3064 79.0297 67.3576 79.0468 67.4056C79.064 67.4537 79.0913 67.4974 79.1271 67.5339C79.1628 67.5703 79.206 67.5986 79.2536 67.6167C79.3013 67.6348 79.3524 67.6424 79.4033 67.6388ZM68.5186 78.2323C68.6202 78.2221 68.7137 78.172 68.7783 78.0929C68.843 78.0139 68.8737 77.9123 68.8635 77.8107C68.8533 77.7091 68.8032 77.6156 68.7241 77.5509C68.6451 77.4862 68.5435 77.4556 68.4419 77.4658C68.3403 77.4759 68.2468 77.526 68.1821 77.6051C68.1174 77.6842 68.0868 77.7857 68.097 77.8874C68.1071 77.989 68.1573 78.0824 68.2363 78.1471C68.3154 78.2118 68.4169 78.2425 68.5186 78.2323ZM65.1228 82.5862C65.4524 82.8545 66.0963 82.3409 65.7284 81.881C65.4754 81.4441 64.6706 82.0649 65.1228 82.5862ZM69.6224 83.7206C69.7031 83.6675 69.7632 83.5883 69.7925 83.4962C69.8218 83.4041 69.8186 83.3047 69.7833 83.2147C69.7833 82.9924 69.2621 82.6475 69.1165 83.1458C69.07 83.2186 69.0485 83.3046 69.0551 83.3907C69.0618 83.4769 69.0962 83.5585 69.1533 83.6234C69.2104 83.6882 69.287 83.7328 69.3716 83.7503C69.4562 83.7679 69.5442 83.7575 69.6224 83.7206ZM64.5939 77.0978C64.5019 77.0442 64.4636 77.0365 64.2337 77.0978C64.0037 77.1591 63.9807 77.4274 64.2337 77.6574C64.4866 77.8874 65.1535 77.4198 64.5939 77.0978ZM92.0894 54.6308C92.1084 54.5079 92.0972 54.3822 92.0567 54.2646C92.0163 54.147 91.9479 54.041 91.8573 53.9557C91.7668 53.8705 91.6569 53.8085 91.537 53.7752C91.4172 53.7419 91.2911 53.7383 91.1695 53.7646C91.0155 53.8235 90.8895 53.9385 90.8169 54.0866C90.7558 54.1454 90.7088 54.2174 90.6796 54.2971C90.6504 54.3768 90.6397 54.4621 90.6483 54.5465C90.4337 55.3973 91.8824 55.681 92.0894 54.6308ZM94.0134 57.145C94.9179 57.7813 96.0447 56.4552 95.4468 55.6656C95.3053 55.4657 95.0996 55.3201 94.864 55.2532C94.6283 55.1862 94.3768 55.202 94.1513 55.2977C93.5151 55.635 93.2468 56.7618 94.0134 57.145ZM94.7416 61.4683C95.2322 62.5644 97.0412 60.8704 95.8377 60.1115C95.0482 59.6056 94.3583 60.832 94.7416 61.4683ZM92.488 65.5155C92.6229 65.5306 92.7594 65.5171 92.8888 65.4759C93.0181 65.4346 93.1373 65.3666 93.2385 65.2761C93.3398 65.1857 93.4209 65.075 93.4764 64.9511C93.532 64.8273 93.5609 64.6931 93.5611 64.5574C93.9137 63.6222 92.8866 63.0703 92.2657 63.2236C91.3228 63.4536 91.5528 65.6305 92.488 65.5155ZM88.3717 66.5964C88.529 66.7182 88.7224 66.7842 88.9214 66.7841C89.1204 66.784 89.3137 66.7177 89.4709 66.5956C89.628 66.4736 89.7401 66.3027 89.7896 66.11C89.839 65.9172 89.8229 65.7135 89.7438 65.5309C89.3069 64.5114 87.9041 64.933 88.0804 66.1364C88.1387 66.3111 88.2387 66.469 88.3717 66.5964ZM86.0031 63.0397C85.9081 63.0296 85.812 63.0394 85.721 63.0684C85.6299 63.0975 85.5459 63.1451 85.4742 63.2083C85.0756 63.5609 85.068 64.5344 85.6735 64.6417C86.44 64.956 87.1453 63.7449 86.4937 63.239C86.3509 63.1298 86.1815 63.061 86.0031 63.0397Z" fill="black"/>
<path d="M84.0488 114.42C79.9938 113.96 75.6936 113.608 71.6769 114.573L65.1844 100.124C66.7175 97.8708 67.668 94.3447 68.3195 91.2633C71.6233 91.7232 74.95 90.4278 73.7849 87.331C73.0874 85.5143 71.9452 83.6516 71.401 81.7813C70.835 79.7213 70.6123 77.5822 70.7418 75.4498C71.1244 75.6009 71.5274 75.6939 71.9376 75.7257C73.4093 75.8254 74.5438 74.9592 75.6093 74.0777C78.1018 71.9757 80.1546 69.402 81.6495 66.5044C81.4862 66.1026 81.2941 65.7132 81.0746 65.3392C81.7625 65.096 82.4069 64.7441 82.9833 64.2967C83.2746 68.2061 86.701 70.6206 89.2458 70.1607C92.8102 69.5245 95.1175 67.1866 97.3404 64.3044C98.4305 63.0154 99.151 61.4552 99.4254 59.7895C99.7703 56.9994 99.3027 53.0901 96.5892 51.5723C95.8936 51.1932 95.1176 50.9857 94.3256 50.967C93.5336 50.9484 92.7487 51.1191 92.036 51.465C90.3553 52.1752 89.0167 53.5111 88.303 55.1904C86.9692 53.0747 82.2857 54.5158 83.5505 59.023C82.6815 59.3525 81.9349 59.9412 81.4119 60.7094C81.1065 61.1435 80.7682 61.5535 80.4001 61.9358C80.0935 62.2118 79.7025 62.3651 79.3806 62.6257C79.3194 62.5771 79.2653 62.5204 79.2196 62.4571H79.12C76.8454 63.8094 74.7249 65.4056 72.7961 67.2172C70.9794 63.4612 67.9363 58.4481 64.5405 56.2788C64.4946 55.566 64.4332 54.7458 64.4409 54.7458C65.4297 54.1785 66.7405 54.0712 67.1621 51.6796C67.4585 49.7568 67.3489 47.7932 66.8401 45.9153C68.9481 45.1488 69.362 42.19 68.7948 42.8032C68.5251 43.1387 68.1446 43.367 67.7216 43.4471C68.3121 42.7119 68.6151 41.7871 68.5742 40.8451C68.5333 39.903 68.1513 39.008 67.4994 38.3267C67.4723 38.2936 67.4353 38.2701 67.3938 38.2596C67.3523 38.2492 67.3085 38.2523 67.269 38.2687C67.2295 38.285 67.1962 38.3136 67.1742 38.3503C67.1522 38.387 67.1426 38.4298 67.1468 38.4723C67.2345 38.965 67.1365 39.4728 66.8718 39.8975C66.607 40.3222 66.1943 40.6337 65.7133 40.7719V39.9211C65.7147 39.8896 65.7053 39.8586 65.6866 39.8333C65.668 39.8079 65.6412 39.7897 65.6108 39.7817C65.5804 39.7736 65.5481 39.7762 65.5193 39.789C65.4906 39.8018 65.4671 39.8241 65.4527 39.8521C65.2468 40.2021 64.9733 40.5076 64.6483 40.7511C64.3233 40.9945 63.9532 41.1709 63.5594 41.2702C63.6655 40.9044 63.7525 40.5335 63.82 40.1587C63.8237 40.1184 63.8164 40.0778 63.7988 40.0414C63.7811 40.005 63.7539 39.974 63.72 39.9519C63.686 39.9298 63.6467 39.9174 63.6063 39.9161C63.5658 39.9147 63.5258 39.9244 63.4904 39.9441L61.7427 41.0019C61.7427 41.0019 62.0187 40.2967 61.1831 40.358C61.1831 40.358 58.462 42.8875 57.4885 42.8339C56.7909 42.8339 56.492 44.1063 57.6034 45.1335C55.5568 46.6665 56.1547 50.8595 58.1324 52.2622C57.6341 53.0287 57.5575 53.1131 57.6648 53.1361C57.9392 53.2271 58.2265 53.2737 58.5156 53.274C58.1915 53.3623 57.8818 53.4965 57.5958 53.6726C55.6316 51.2551 53.5033 48.9756 51.2259 46.8505C51.0496 41.4158 50.858 36.4104 50.3827 36.2341C50.2525 36.1891 50.1193 36.1532 49.9841 36.1267C50.4364 34.655 49.9841 32.5624 48.4511 31.9108C54.0314 25.7019 54.7596 25.518 54.4837 24.3682C55.4878 25.0044 56.7833 24.2838 57.4041 23.4407C60.064 22.4595 59.6194 16.3119 58.7992 17.1474C58.4926 17.4617 58.7149 18.5962 57.0132 18.6422C56.0551 18.6422 55.0279 18.3126 54.522 18.7572C52.6057 18.8568 51.8851 21.9919 52.8203 23.2567C52.5114 23.3174 52.2188 23.4428 51.9618 23.6246L46.5424 30.6614C46.3431 30.6614 45.4693 30.1248 45.2393 30.9987C45.1909 31.182 45.1909 31.3748 45.2393 31.5582C45.0118 31.4737 44.7616 31.4737 44.5341 31.5582C44.3697 31.606 44.2261 31.7075 44.1261 31.8464C44.026 31.9853 43.9754 32.1537 43.9822 32.3248C43.9772 32.4512 44.0092 32.5764 44.0742 32.685C43.9626 32.6961 43.858 32.7445 43.7773 32.8224C43.6966 32.9003 43.6446 33.0031 43.6296 33.1143C43.6033 33.2596 43.6088 33.4089 43.6459 33.5518C43.683 33.6947 43.7506 33.8279 43.8442 33.9421L37.4284 40.9252C37.4284 40.9252 36.5315 41.9141 37.0144 42.397C37.0144 42.397 37.482 42.8645 38.5475 41.7991L45.7605 35.1073C45.762 35.3343 45.8238 35.557 45.9396 35.7523C46.0555 35.9476 46.2212 36.1086 46.4198 36.2187C46.2272 36.2252 46.0353 36.2431 45.8449 36.2724C45.7989 36.2724 45.8449 36.349 45.8449 36.349C50.2371 36.2187 50.3597 36.4334 50.3827 36.4257C50.444 38.1274 51.0879 45.0492 51.0189 46.8045C51.0158 46.8223 51.0158 46.8404 51.0189 46.8582C51.0189 47.0268 54.614 50.4379 57.4041 53.7569C56.5086 54.4437 55.7669 55.3107 55.2272 56.3018C53.0886 59.8432 52.3144 70.6513 52.2761 74.2156C51.6628 79.7883 47.6769 81.0454 46.4198 79.5277C45.4928 78.4868 44.4658 77.5394 43.3536 76.6992C42.5411 75.7794 41.2457 74.4993 40.2339 74.8595C41.9509 73.2498 44.9787 72.5599 46.826 68.8499C49.7772 62.9093 49.6162 54.9527 49.3096 58.3791C46.7483 55.3856 45.0654 51.7417 44.4471 47.8507C43.8288 43.9598 44.2994 39.9737 45.8065 36.3337C45.8065 36.2571 45.6992 36.1957 45.6686 36.2801C40.1035 48.9125 49.2099 58.5708 49.2483 58.6474C49.0348 60.6529 48.6449 62.6357 48.0831 64.5727C45.9905 72.054 44.0512 71.5865 40.5098 74.2846C40.0019 74.6039 39.5971 75.0632 39.3442 75.6072C39.0912 76.1511 39.0009 76.7566 39.0841 77.3508C29.0348 81.1834 31.0585 89.8605 31.0585 89.8605L33.749 106.632C25.8078 109.76 17.9661 113.125 10.2548 116.789C10.2012 116.789 10.2165 116.927 10.2932 116.919C16.0192 116.444 21.4999 117.923 26.5436 120.453C25.1352 120.816 23.7586 121.293 22.4274 121.879C21.1013 122.4 19.7905 122.975 18.5027 123.588C15.7574 124.913 13.1202 126.45 10.6151 128.187C10.5078 128.187 10.5538 128.363 10.6151 128.34C14.9843 127.574 18.2114 127.022 22.4044 127.451C18.2881 129.666 9.94057 134.296 9.87158 134.296L10.3698 136.205H42.9167C42.9167 136.205 43.5299 133.859 45.2546 136.512C45.2546 136.512 58.7992 138.482 73.8846 149.443V147.228C73.8846 147.228 63.1531 137.792 44.2965 134.388C49.8538 134.112 55.6948 133.254 61.1601 134.902C69.5537 137.447 75.5403 141.801 75.7932 141.601C85.3595 132.779 82.0404 136.282 91.2925 128.034C92.5415 128.591 93.8211 129.077 95.1251 129.49C94.052 130.195 85.3442 136.036 74.1605 147.12L74.2831 149.458C74.2831 149.458 86.1414 136.496 95.2324 130.908C95.2324 130.908 95.2324 129.375 95.1864 129.375C93.937 128.892 92.6646 128.356 91.3538 127.98C94.0213 125.619 95.0331 125.397 94.6192 125.221C92.916 124.36 91.1536 123.623 89.3455 123.013C91.7677 121.043 96.9265 117.095 96.8038 117.049C91.76 115.24 91.3691 115.256 84.0488 114.42ZM54.3457 18.9335C54.2445 19.0775 54.1818 19.2451 54.1635 19.4201C54.1451 19.5952 54.1717 19.7721 54.2408 19.934C54.3099 20.0959 54.4191 20.2376 54.5582 20.3455C54.6973 20.4534 54.8616 20.5241 55.0356 20.5508C56.469 20.5508 54.8439 21.394 54.7826 21.5703C54.7616 21.6628 54.7729 21.7597 54.8148 21.8448C54.8566 21.93 54.9265 21.9981 55.0126 22.0379C55.4495 22.2449 55.8251 21.8156 56.193 21.7313C56.423 21.6776 56.7143 21.785 56.7373 22.0149C56.7603 22.2449 56.4306 22.4442 56.3157 22.6971C56.2694 22.8168 56.2663 22.9488 56.3069 23.0705C56.3475 23.1922 56.4292 23.296 56.538 23.364C56.6712 23.447 56.8256 23.4896 56.9826 23.4867C56.6961 23.8734 56.2858 24.1504 55.8201 24.2718C55.3543 24.3931 54.8611 24.3514 54.4223 24.1535C54.3421 23.8705 54.1695 23.6224 53.9319 23.4487C53.6944 23.2751 53.4056 23.1859 53.1116 23.1954C52.4754 22.5745 52.0231 19.723 54.3457 18.9335ZM46.2128 30.738C46.2984 30.7655 46.3854 30.7886 46.4734 30.807C46.8567 31.014 46.826 31.6425 46.803 31.8572C46.5501 31.8572 46.4658 32.1485 46.4351 32.3477C46.0748 32.2481 45.9292 32.2864 45.6686 31.9032C45.6155 31.8364 45.5693 31.7645 45.5306 31.6885C45.1856 31.0906 45.4616 30.4774 46.2128 30.738ZM44.6107 31.6885C44.8764 31.6422 45.1498 31.6969 45.3773 31.8418C45.4657 32.0371 45.6093 32.2021 45.7905 32.3166C45.9717 32.431 46.1825 32.4898 46.3968 32.4857C46.3867 32.6058 46.4051 32.7266 46.4504 32.8383C46.3809 32.975 46.2678 33.0847 46.129 33.1499C45.9901 33.2152 45.8335 33.2323 45.6839 33.1986C45.4331 33.2235 45.18 33.1924 44.9427 33.1076C44.7054 33.0228 44.4899 32.8863 44.3118 32.708C44.2456 32.627 44.2002 32.531 44.1794 32.4285C44.1586 32.326 44.1631 32.2199 44.1926 32.1195C44.222 32.0191 44.2755 31.9274 44.3484 31.8523C44.4212 31.7772 44.5113 31.721 44.6107 31.6885ZM43.9975 33.9038C43.8737 33.7602 43.8009 33.5796 43.7906 33.3902C43.7906 33.1373 43.8825 32.7617 44.2122 32.8613C44.3918 33.0365 44.6058 33.1726 44.8406 33.261C45.0754 33.3494 45.326 33.3882 45.5766 33.3749C45.5264 33.5279 45.4412 33.667 45.3279 33.7813C45.2145 33.8955 45.076 33.9818 44.9234 34.0331C44.7709 34.0845 44.6084 34.0995 44.449 34.0771C44.2896 34.0546 44.1376 33.9953 44.0052 33.9038H43.9975ZM49.8155 36.0654L46.6421 36.1497C46.4162 36.0615 46.2192 35.9123 46.073 35.7188C45.9269 35.5253 45.8373 35.295 45.8142 35.0536L47.1786 33.7965C47.4776 34.563 48.5277 34.563 48.2058 34.4174C47.8838 34.2717 47.3933 34.1874 47.2859 33.6049C47.275 33.4719 47.3163 33.34 47.4009 33.2369C47.1416 33.1469 46.8964 33.0205 46.6727 32.8613C46.5701 32.7199 46.5264 32.5443 46.5507 32.3713C46.575 32.1983 46.6654 32.0415 46.803 31.9338H48.2748C49.9075 32.8613 49.9765 34.3484 49.8232 36.0654H49.8155ZM71.7919 117.916C71.9661 118.501 72.1786 119.075 72.4281 119.633C71.6804 120.348 70.8039 120.915 69.8449 121.304C68.8484 120.139 69.0784 120.391 68.8484 120.116C69.9096 119.496 70.8971 118.758 71.7919 117.916ZM72.2288 123.197C71.6233 123.749 69.1627 125.834 68.3962 126.263C68.0896 126.041 68.3962 125.305 68.4958 125.06C69.1091 124.002 69.5537 124.086 69.6073 121.465C70.5348 121.396 72.3208 120.031 72.6734 119.579C73.14 120.416 73.5103 121.303 73.7772 122.223C73.6469 122.308 73.4783 122.415 73.371 122.499C73.248 122.177 73.066 121.881 72.8344 121.626C72.7194 121.488 72.5585 121.273 72.3515 121.373C72.1445 121.472 72.0755 121.863 72.0525 122.047C72.0214 122.437 72.0736 122.829 72.2059 123.197H72.2288ZM73.371 89.4236C72.6044 91.1636 70.0596 91.1253 68.4039 90.88C68.9021 88.4578 69.1321 86.7561 69.1704 86.2808C70.9411 86.4801 73.5703 87.492 73.371 89.4236ZM84.1024 55.4586C85.0529 54.3012 87.2605 53.8259 88.1267 55.3207C88.1328 55.3346 88.1424 55.3468 88.1544 55.3562C88.1665 55.3656 88.1806 55.3718 88.1957 55.3743C88.2015 55.3856 88.2103 55.395 88.2211 55.4016C88.2319 55.4082 88.2443 55.4117 88.257 55.4117C88.2697 55.4117 88.2821 55.4082 88.2929 55.4016C88.3037 55.395 88.3125 55.3856 88.3183 55.3743C91.0778 49.771 99.295 48.9508 99.1877 58.8007C99.1877 61.8668 97.1641 64.2814 95.1788 66.4124C87.5135 74.6142 81.0286 66.627 83.7728 60.8627C83.784 60.833 83.784 60.8003 83.7728 60.7707C84.1933 60.5361 84.6531 60.3802 85.1296 60.3108C84.7846 61.9742 87.7434 62.0661 87.9811 60.1192C88.019 59.7323 87.9233 59.3441 87.7099 59.0191C87.4965 58.6942 87.1783 58.4521 86.8083 58.3331C86.4729 58.2523 86.1191 58.3078 85.8245 58.4874C85.5299 58.667 85.3186 58.9561 85.2369 59.2913C84.768 58.9724 84.1943 58.8461 83.6348 58.9387C83.5045 57.7352 83.3129 56.4705 84.1407 55.4586H84.1024ZM85.2905 59.391C85.3811 59.0851 85.5894 58.8276 85.8697 58.6753C86.15 58.5229 86.4793 58.4881 86.7853 58.5784C87.057 58.6723 87.2946 58.8448 87.468 59.0742C87.6414 59.3035 87.7426 59.5792 87.7588 59.8662C87.8124 61.3993 85.1142 62.0355 85.1985 60.3185H85.2752C85.3365 60.3185 85.4208 60.2188 85.4285 60.1958C85.4888 60.0658 85.5115 59.9214 85.4938 59.7791C85.4762 59.6368 85.4191 59.5024 85.3289 59.391H85.2905ZM81.2892 60.9777C81.7824 60.2438 82.4518 59.6455 83.2362 59.2376C83.8265 58.977 85.5358 59 85.2369 60.1268C84.6779 60.1515 84.1412 60.3527 83.7038 60.7017C83.4432 60.7017 82.8836 62.641 82.9373 64.0975C82.3164 64.519 81.6342 64.864 81.0133 65.2779C78.706 60.9163 78.9437 63.9595 81.3276 60.9777H81.2892ZM66.7252 45.946C67.6987 53.3967 66.4109 53.504 64.3183 54.5311C64.3015 54.5398 64.2876 54.5531 64.2781 54.5694C64.2686 54.5857 64.2639 54.6043 64.2646 54.6231C64.2564 55.4835 64.2999 56.3435 64.3949 57.1987C63.5996 58.1229 62.7389 58.9888 61.8194 59.7895C60.2622 58.6564 59.1246 57.0389 58.5846 55.1904C58.6899 54.5417 58.7105 53.882 58.6459 53.228C59.1212 53.228 59.6194 53.1591 60.0333 53.1361C60.1177 53.1361 60.156 52.9598 60.1483 52.9444C59.8635 52.1421 59.4961 51.3714 59.0522 50.6448C59.0522 50.7215 58.8989 50.9131 58.8605 50.9898C58.8536 50.9857 58.8456 50.9836 58.8376 50.9836C58.8295 50.9836 58.8216 50.9857 58.8146 50.9898C57.4425 50.9898 57.2048 48.9968 58.439 48.9278C59.2055 48.8818 59.2055 49.7327 59.7651 49.9626C59.7722 49.966 59.7801 49.9678 59.7881 49.9678C59.796 49.9678 59.8039 49.966 59.8111 49.9626C60.1867 50.0546 60.5009 49.7173 60.5776 49.3187C60.6772 48.6519 60.0027 47.7857 60.7079 46.5439C63.2911 47.0421 65.1384 46.3446 66.7328 45.946H66.7252ZM57.6801 45.1258C58.5203 45.7742 59.4944 46.2272 60.5316 46.4519C59.926 47.3181 60.4626 48.4449 60.4626 48.9661C60.4525 49.1593 60.3796 49.3438 60.2551 49.4918C60.1306 49.6399 59.9613 49.7432 59.7727 49.7863C59.4278 49.4567 59.3281 48.9661 58.8376 48.7822C58.6251 48.7071 58.3942 48.7024 58.1789 48.7686C57.9636 48.8349 57.7753 48.9686 57.6418 49.1501C57.5308 49.3495 57.4752 49.575 57.4807 49.8032C57.4861 50.0313 57.5525 50.2539 57.6729 50.4478C57.7933 50.6417 57.9633 50.7998 58.1654 50.9059C58.3675 51.012 58.5943 51.0621 58.8222 51.0511C58.6383 51.396 58.4313 51.718 58.2243 52.0476C57.3022 51.1604 56.7375 49.9658 56.6372 48.6901C56.5369 47.4144 56.9079 46.1462 57.6801 45.1258ZM57.8027 52.9751C58.2747 52.3543 58.7025 51.7012 59.0828 51.0204C59.1902 51.2964 59.7574 52.5535 59.9414 52.8831C59.5504 52.8908 58.117 52.9291 57.8027 52.9751ZM58.4926 53.435C58.4926 53.619 58.3087 55.106 58.4926 55.2134C58.6872 56.1894 59.0749 57.1168 59.6331 57.9408C60.1912 58.7649 60.9085 59.469 61.7427 60.0118C62.8176 59.2484 63.7623 58.3166 64.5405 57.2523C64.5541 57.2445 64.5654 57.2334 64.5735 57.22C64.5815 57.2066 64.586 57.1913 64.5865 57.1757C64.5865 57.0377 64.5865 56.7541 64.5405 56.4091C68.1739 59.6669 69.4923 61.0926 72.6198 67.2709C72.6734 67.3705 72.7961 67.3169 72.8114 67.2249C74.9424 65.6918 76.8587 63.8598 79.1353 62.5031C79.9018 63.8368 80.6684 65.1093 81.4349 66.4507C79.6259 69.7544 75.8315 74.5683 73.1717 75.3961C71.3167 75.971 69.2164 74.4226 68.6185 73.863L68.5725 73.909C69.1416 74.5591 69.8417 75.0815 70.6268 75.4421C69.9906 78.3626 71.0407 81.651 72.0832 84.3338C72.6044 85.6676 73.7772 87.4 73.532 88.933C73.3327 86.8021 70.6421 85.3533 60.7999 84.8091L61.4744 79.7193C61.9497 77.2588 60.9685 74.093 61.2061 68.3364C61.5511 60.1728 63.843 59.4216 65.5064 57.4516C65.5124 57.4461 65.5173 57.4394 65.5208 57.432C65.5242 57.4246 65.5262 57.4165 65.5265 57.4083C65.5269 57.4002 65.5256 57.392 65.5228 57.3843C65.52 57.3766 65.5157 57.3695 65.5102 57.3635C65.5047 57.3574 65.498 57.3525 65.4906 57.3491C65.4832 57.3456 65.4751 57.3437 65.4669 57.3433C65.4587 57.3429 65.4506 57.3442 65.4429 57.347C65.4352 57.3498 65.4281 57.3541 65.4221 57.3596C62.9308 59.6056 61.5894 60.8703 61.0758 66.9566C60.6236 72.169 61.5511 76.2316 61.3441 79.0141L52.437 74.2693C53.0426 65.1093 53.2419 55.7729 58.4926 53.435ZM39.682 75.4344C40.7551 74.4916 41.7746 75.4344 42.6791 76.3236C41.528 76.5572 40.3956 76.8749 39.291 77.2741C39.2111 76.958 39.2048 76.6277 39.2726 76.3088C39.3403 75.9899 39.4804 75.6907 39.682 75.4344ZM41.8206 91.3476C45.2623 91.0257 51.5172 88.6418 51.5172 88.6418C51.5172 88.6418 51.7472 81.9959 52.0231 81.513C52.299 81.0301 52.2531 81.513 52.2531 81.513C50.8733 101.734 56.2237 107.506 56.2237 107.506L63.774 116.513C63.233 116.69 62.7031 116.9 62.1873 117.141C60.239 113.614 57.7333 110.425 54.7673 107.698C53.36 106.391 51.8183 105.238 50.1681 104.256C48.5201 103.298 46.6344 102.393 44.6874 102.539C44.6337 102.447 44.833 102.393 40.9391 103.85L41.8206 91.3476ZM10.8221 128.141C13.279 126.539 15.8398 125.103 18.4874 123.841C19.9055 123.166 21.3542 122.545 22.8183 121.986C24.1291 121.48 25.5241 121.127 26.8042 120.568C33.12 123.878 38.7635 128.336 43.4456 133.714C39.199 130.648 33.7413 129.521 28.7282 128.348C22.1284 126.792 18.4337 126.6 10.8221 128.172V128.141ZM10.4541 134.273C10.5308 134.235 22.7646 127.566 22.8259 127.49C27.0189 127.972 38.5628 130.402 43.7446 134.289C43.0777 134.289 30.0467 133.622 10.4541 134.312V134.273ZM10.6304 116.712C18.2344 113.135 25.9483 109.813 33.772 106.747L34.2013 109.399L35.2437 109.438C35.363 110.123 35.5557 110.794 35.8186 111.438C35.4354 111.438 35.1901 112.205 34.5079 112.971C34.0383 113.396 33.5243 113.769 32.9748 114.083C32.3003 114.573 32.4842 115.102 33.2201 115.34C34.5002 115.746 36.1942 114.987 37.367 114.573C37.5025 114.15 37.669 113.738 37.8653 113.339C38.3022 112.925 38.3789 114.213 38.3635 114.405C38.7049 114.466 39.0529 114.481 39.3983 114.451C39.5817 113.393 39.5373 112.309 39.268 111.27H39.1071C39.1964 110.722 39.2426 110.169 39.245 109.614L40.5021 109.66L40.9007 104.064C44.6107 102.715 44.6107 102.784 44.6797 102.715C48.6197 102.8 52.345 105.781 55.0432 108.357C57.7599 110.995 60.0971 113.998 61.988 117.279C58.9219 118.812 56.4307 121.38 53.9241 123.619C50.2513 126.765 46.9237 130.293 43.9975 134.143C36.1789 124.945 22.6573 115.271 10.6304 116.75V116.712ZM37.3517 114.413C36.3245 114.755 35.2708 115.011 34.2013 115.179C33.864 115.179 32.2006 115.179 33.0361 114.167C34.2275 113.635 35.184 112.686 35.7267 111.5C36.8898 111.673 38.0759 111.61 39.2144 111.316C39.2144 112.006 39.2987 111.492 39.2757 114.298C39.0502 114.295 38.8249 114.308 38.6012 114.336C38.6855 112.78 37.666 112.596 37.3517 114.474V114.413ZM38.9768 111.247C37.9817 111.388 36.9769 111.45 35.9719 111.431C35.9719 111.431 35.6347 110.089 35.443 109.438L39.1224 109.568C39.0381 110.174 38.9691 111.293 38.9768 111.308V111.247ZM94.3509 125.297C91.0625 127.405 88.4486 130.433 85.3825 132.825C81.9319 135.412 78.6991 138.279 75.7166 141.394C71.0697 138.626 66.138 136.367 61.0068 134.657C56.7296 133.346 48.4817 133.537 44.3655 134.22C49.8155 131.92 53.6022 131.598 59.0292 132.173C64.4562 132.748 68.1739 133.606 73.003 136.772C73.325 136.987 78.5987 131.659 89.2152 123.028C90.9629 123.78 92.6492 124.592 94.3509 125.359V125.297ZM96.4589 117.095C88.4486 123.304 80.63 129.72 73.21 136.619C73.2061 136.602 73.1985 136.587 73.1879 136.574C73.1773 136.56 73.1639 136.55 73.1487 136.542C68.8638 133.691 64.096 132.495 59.0292 131.943C53.6635 131.376 49.5625 131.682 44.1585 134.112C47.0659 130.511 50.2434 127.136 53.6635 124.017C59.1135 119.035 60.8382 117.647 63.9197 116.635L67.2617 120.637C67.7535 120.541 68.227 120.367 68.6645 120.123L69.7223 121.281C69.684 121.281 69.4923 121.327 69.4923 121.396C69.293 123.933 69.3544 123.274 68.3425 125.052C68.1921 125.267 68.1206 125.527 68.1402 125.788C68.1598 126.049 68.2692 126.296 68.4499 126.485C68.4958 126.485 72.4435 123.235 72.4281 123.212C72.4128 123.189 71.9606 121.587 72.4895 121.557C72.8804 121.557 73.371 122.599 73.4093 122.584C73.5878 122.511 73.7535 122.41 73.8999 122.285C73.6858 121.248 73.2803 120.26 72.7041 119.372C72.7041 119.372 72.5585 119.433 72.5355 119.456C72.3438 118.874 72.1445 118.291 71.9222 117.716C72.4358 117.241 72.7578 116.904 72.7578 116.904L71.7306 114.604C75.8133 114.006 79.9596 113.983 84.0488 114.535C91.0548 115.432 91.6911 115.424 96.4589 117.157V117.095Z" fill="black"/>
<path d="M126.859 81.9729V81.9269H126.806C126.788 81.9243 126.769 81.9283 126.754 81.9381C126.738 81.948 126.727 81.963 126.721 81.9806L117.623 87.0704C117.209 89.186 117.699 89.0557 116.979 96.9893C116.32 97.8018 115.906 98.9669 113.56 99.8408C112.246 100.23 110.964 100.722 109.727 101.312C108.118 102.225 107.696 103.911 109.314 105.145C109.279 105.169 109.248 105.197 109.222 105.229L108.992 105.36C108.961 105.382 108.937 105.412 108.924 105.447C108.91 105.482 108.907 105.521 108.915 105.558C108.923 105.595 108.942 105.628 108.97 105.654C108.997 105.68 109.031 105.698 109.068 105.705C109.168 105.797 109.252 105.751 109.344 105.705C109.348 105.758 109.348 105.812 109.344 105.866C109.344 105.91 109.362 105.953 109.394 105.985C109.425 106.017 109.468 106.034 109.513 106.034C109.558 106.034 109.6 106.017 109.632 105.985C109.664 105.953 109.681 105.91 109.681 105.866V105.544L109.819 105.467C110.962 106.126 112.602 106.441 112.947 107.928C113.2 109.031 112.341 110.381 111.253 111.155C111.253 111.155 111.123 110.074 111.115 110.059C111.061 109.905 110.808 109.905 110.816 110.097V110.457L110.532 109.982C110.505 109.951 110.468 109.93 110.427 109.923C110.387 109.916 110.345 109.924 110.309 109.945C110.273 109.966 110.246 109.999 110.233 110.038C110.219 110.077 110.219 110.119 110.233 110.158C110.433 110.588 110.624 111.017 110.831 111.446C108.056 112.979 107.06 109.568 105.32 108.127C105.542 106.946 105.596 106.969 105.55 106.862C105.556 106.839 105.558 106.814 105.555 106.789C105.552 106.765 105.544 106.742 105.532 106.72C105.52 106.699 105.504 106.68 105.485 106.665C105.465 106.65 105.443 106.639 105.42 106.632C105.396 106.626 105.371 106.624 105.347 106.627C105.322 106.63 105.299 106.638 105.278 106.65C105.256 106.662 105.237 106.678 105.222 106.697C105.207 106.717 105.196 106.739 105.19 106.763C105.136 106.893 105.098 107.031 105.052 107.169C105.006 107.307 104.998 107.245 104.96 107.391L104.875 107.138C104.865 107.101 104.84 107.068 104.807 107.049C104.773 107.03 104.733 107.024 104.695 107.035C104.658 107.045 104.626 107.069 104.606 107.103C104.587 107.137 104.582 107.177 104.592 107.215C104.553 107.291 104.592 107.414 104.661 107.667C104.291 107.433 103.895 107.245 103.48 107.107C102.402 106.791 101.246 106.873 100.222 107.337C100.161 107.046 100.115 106.747 100.077 106.456C100.039 106.165 99.8009 106.318 99.7626 106.456C99.7145 106.477 99.6761 106.515 99.6553 106.563C99.6016 106.487 99.5403 106.364 99.3946 106.425C99.3707 106.417 99.3448 106.416 99.3203 106.422C99.2958 106.429 99.2736 106.442 99.2565 106.461C99.2394 106.479 99.2282 106.503 99.2241 106.528C99.2201 106.553 99.2234 106.578 99.2337 106.602C99.4253 106.908 99.6093 107.215 99.7932 107.521C98.5046 108.2 97.3532 109.113 96.3975 110.212C96.3884 110.228 96.3848 110.247 96.3872 110.265C96.3897 110.283 96.3981 110.3 96.4112 110.313C96.4242 110.326 96.4412 110.335 96.4595 110.337C96.4778 110.34 96.4964 110.336 96.5125 110.327C97.5465 109.407 98.6626 108.583 99.8469 107.866C99.9082 108.234 99.9849 108.633 100.062 108.962C100.062 109.169 100.452 109.123 100.422 108.916C100.426 108.871 100.426 108.824 100.422 108.778C100.451 108.751 100.472 108.717 100.483 108.679L100.552 108.786C100.572 108.823 100.604 108.853 100.642 108.87C100.68 108.887 100.724 108.892 100.765 108.882C100.806 108.872 100.842 108.849 100.869 108.817C100.896 108.784 100.911 108.744 100.912 108.702V108.664C100.913 108.643 100.908 108.622 100.899 108.603C100.889 108.585 100.876 108.568 100.859 108.556C100.705 108.247 100.534 107.948 100.345 107.659C101.057 107.328 101.845 107.196 102.625 107.279C103.406 107.361 104.149 107.654 104.776 108.127V108.188C104.776 108.357 104.714 108.526 104.676 108.694C104.638 108.863 104.615 108.985 104.592 109.131C104.569 109.277 104.929 109.491 104.967 109.238V109.131C104.999 109.108 105.022 109.076 105.036 109.039L105.266 109.637C105.351 109.852 105.696 109.767 105.619 109.537C105.542 109.307 105.412 108.909 105.305 108.602C106.776 110.059 108.003 113.293 110.87 111.829C110.923 112.343 110.931 112.496 111 113.132C111.009 113.176 111.032 113.215 111.066 113.243C111.101 113.271 111.144 113.286 111.188 113.286C111.232 113.286 111.275 113.271 111.309 113.243C111.343 113.215 111.367 113.176 111.376 113.132C111.376 112.971 111.376 112.81 111.337 112.649C111.345 112.617 111.345 112.583 111.337 112.55C111.357 112.558 111.379 112.558 111.399 112.55C111.529 112.634 111.751 112.55 111.69 112.343C111.584 112.066 111.463 111.795 111.33 111.53C112.686 110.595 113.744 108.817 112.97 107.36C112.395 106.287 111.13 105.942 110.011 105.375C110.371 105.13 110.939 105.03 110.601 104.762C110.502 104.371 110.172 104.762 109.643 105.03V104.708C109.643 104.684 109.633 104.66 109.616 104.643C109.599 104.626 109.576 104.616 109.551 104.616C109.527 104.616 109.503 104.626 109.486 104.643C109.469 104.66 109.459 104.684 109.459 104.708C109.459 104.816 109.421 104.915 109.398 105.022C107.98 103.98 108.332 102.455 109.789 101.604C111.245 100.753 113.016 100.439 114.572 99.7948C115.147 99.5355 115.666 99.165 116.097 98.7046C116.529 98.2441 116.865 97.7028 117.086 97.1119L127.733 91.8382C127.754 91.8432 127.775 91.8405 127.793 91.8305C127.812 91.8206 127.826 91.8042 127.833 91.7845C127.68 91.087 126.936 82.0189 126.859 81.9729ZM122.536 89.5462L117.17 96.9509C117.324 95.5559 117.937 88.8104 117.722 87.1317L122.552 89.5462L126.752 82.1799C126.927 85.3682 127.262 88.5456 127.756 91.7002L122.536 89.5462ZM15.3292 97.8784L14.4937 96.491L14.1871 98.0011L12.8073 98.3077L13.8958 99.0819L13.5739 100.554L14.8616 99.4958L16.3717 100.186L15.6742 98.7983L16.594 97.6638L15.3292 97.8784ZM95.3014 96.5677L94.1209 94.6897L93.684 96.7363L91.7063 97.1502L93.2547 98.2004L92.8025 100.201L94.6345 98.7599L96.7884 99.7028L95.7919 97.8248L97.095 96.2764L95.3014 96.5677ZM41.3069 15.8367C42.1348 15.9746 43.1926 15.7907 43.6602 16.6415L43.4302 16.8025C43.3836 17.0154 43.4135 17.2379 43.5145 17.431C43.6557 17.7325 43.856 18.0026 44.1035 18.2251C44.3511 18.4476 44.6409 18.6182 44.9556 18.7265L45.1319 18.6805C45.5689 18.9641 46.1667 19.1634 46.5807 18.7188C46.9946 18.2742 46.7186 17.569 46.7263 17.5537C47.6078 16.3349 45.7758 15.1698 45.7758 15.1698L45.5612 15.3231C44.7487 13.79 46.9409 12.3183 45.0246 9.67376C42.794 6.60763 36.8534 8.02572 38.5551 13.2305C38.7271 13.8772 39.0756 14.4635 39.5615 14.9237C40.0475 15.3839 40.6518 15.7 41.3069 15.8367ZM44.3117 16.1969C43.3038 15.1918 42.217 14.269 41.0617 13.4374C41.3836 13.5141 41.5752 13.6827 41.8282 13.3991V13.2918C42.1271 12.5253 42.3111 13.3301 42.702 12.7475V12.5866C42.9167 12.28 42.886 12.5329 43.093 12.5099C43.1916 12.516 43.2905 12.503 43.3842 12.4716C43.6219 12.3643 43.5759 11.981 43.9898 12.027C44.1765 13.2999 44.5083 14.5472 44.9786 15.7447L44.3117 16.1969ZM46.527 17.799C46.5888 17.9441 46.6086 18.1037 46.5842 18.2595C46.5598 18.4153 46.4922 18.5612 46.389 18.6805C46.0671 18.9794 45.6225 18.8108 45.3159 18.6115C45.7746 18.4334 46.1882 18.1559 46.527 17.799ZM45.4999 11.3065C45.8371 12.8395 44.6107 14.3726 45.3849 15.4457L45.1319 15.622C44.4574 13.3914 43.6985 9.94971 43.9361 11.8354C43.2156 11.7894 43.3919 12.0807 43.2616 12.188C43.1313 12.2953 42.7787 12.188 42.5411 12.303C42.4721 12.303 42.5411 12.4639 42.4721 12.4946C42.0045 12.9852 42.1501 12.6249 41.7592 12.7552C41.6136 12.8089 41.6059 12.8472 41.5369 12.9698C41.4679 13.0925 41.7209 13.2381 41.4679 13.3761C41.4679 13.3761 41.0463 13.3148 40.8854 13.3071C39.3523 12.1113 42.6024 15.0548 44.0971 16.3732L43.7905 16.5879C42.8937 14.7942 38.9307 17.0861 38.5091 11.7664C38.1718 7.35117 44.6107 7.1442 45.4999 11.3065ZM100.33 132.495C100.312 132.674 100.358 132.853 100.459 133.001C100.559 133.15 100.709 133.258 100.882 133.307C101.756 133.376 101.832 132.748 101.832 132.748L102.223 131.292L100.69 131.131L100.33 132.495ZM41.123 3.90945C41.123 3.79447 40.9007 3.8098 40.916 3.90945C41.0029 4.74247 41.1411 5.56935 41.3299 6.38534C41.4219 6.65363 41.9355 6.71495 41.123 3.90945ZM45.3006 8.24801C45.64 7.64607 45.8977 7.00164 46.0671 6.33168C46.0645 6.31164 46.0567 6.29263 46.0445 6.27656C46.0322 6.26049 46.0159 6.24794 45.9973 6.24017C45.9786 6.2324 45.9582 6.22968 45.9382 6.23229C45.9182 6.2349 45.8992 6.24274 45.8831 6.25503C45.5091 6.83876 45.2225 7.47404 45.0323 8.14069C44.9863 8.28634 45.2316 8.43198 45.3006 8.24801ZM36.7997 8.53929C36.8166 8.54577 36.8348 8.54791 36.8526 8.5455C36.8705 8.5431 36.8875 8.53623 36.902 8.52554C36.9165 8.51485 36.9281 8.50067 36.9357 8.48432C36.9432 8.46796 36.9466 8.44996 36.9454 8.43198C36.4326 7.64193 35.8392 6.90724 35.1747 6.2397C35.0904 6.17071 34.9447 6.2397 35.0137 6.36234C35.2897 6.70728 36.4548 8.19435 36.7997 8.53929ZM33.45 13.9127C36.0026 13.5601 35.7496 13.1461 35.5733 13.1461C34.8068 13.2381 34.1169 13.5447 33.3887 13.6904C33.2354 13.7134 33.3044 13.9357 33.45 13.9127ZM38.6318 16.9405C38.7007 16.8485 38.5858 16.7105 38.4784 16.7488C37.87 17.1291 37.2909 17.5544 36.7461 18.0213C36.6234 18.1209 36.7461 18.3202 36.9071 18.2359C37.5125 17.8464 38.089 17.4134 38.6318 16.9405ZM41.3069 17.6687C41.1766 18.3126 41.1996 18.9948 41.1076 19.6463C41.1076 19.8073 41.3299 19.8839 41.3606 19.7153C41.5326 19.0476 41.5947 18.3563 41.5446 17.6687C41.5446 17.6372 41.5321 17.6069 41.5098 17.5847C41.4875 17.5624 41.4573 17.5499 41.4258 17.5499C41.3942 17.5499 41.364 17.5624 41.3417 17.5847C41.3195 17.6069 41.3069 17.6372 41.3069 17.6687ZM38.4325 26.6524C38.617 26.6678 38.8027 26.6438 38.9772 26.5818C39.1517 26.5198 39.311 26.4213 39.4445 26.293C39.5779 26.1646 39.6825 26.0092 39.7512 25.8373C39.8199 25.6653 39.8511 25.4807 39.8429 25.2957C39.7049 23.4023 37.0067 23.6476 36.9377 25.196C36.957 25.5826 37.1218 25.9477 37.399 26.2178C37.6763 26.488 38.0455 26.6432 38.4325 26.6524ZM39.5209 25.1193C39.5593 25.2778 39.5593 25.4432 39.5211 25.6017C39.4829 25.7602 39.4075 25.9074 39.3011 26.0309C39.1948 26.1545 39.0605 26.251 38.9094 26.3125C38.7584 26.3739 38.5949 26.3984 38.4325 26.3841C38.1237 26.3907 37.8233 26.2833 37.5886 26.0826C37.3539 25.8818 37.2014 25.6017 37.16 25.2957C37.1766 25.0076 37.2968 24.7352 37.4984 24.5288C37.7 24.3224 37.9695 24.1958 38.2571 24.1725C38.5447 24.1492 38.831 24.2306 39.0633 24.4018C39.2956 24.573 39.4581 24.8224 39.5209 25.104V25.1193ZM73.9535 42.3126C74.0148 42.4966 82.0097 42.8415 83.7727 42.8032C83.5434 43.0178 83.3799 43.2931 83.3011 43.5972C83.2224 43.9012 83.2318 44.2213 83.3282 44.5202C83.5581 45.0951 84.2786 45.2101 84.8152 45.2868C87.6897 45.67 90.5489 46.2449 93.73 45.601C98.0685 44.7272 95.769 40.4193 93.1551 42.4046C93.2527 41.8419 93.18 41.2628 92.9463 40.7417C92.7126 40.2206 92.3286 39.7811 91.8435 39.4797C91.3584 39.1782 90.7943 39.0286 90.2236 39.0498C89.6529 39.0711 89.1015 39.2624 88.6402 39.5991C88.6402 37.6445 85.7427 36.0117 84.5163 37.7671C84.8306 34.9769 82.3547 33.2216 79.6795 33.7428C76.805 34.2871 76.2914 37.5601 77.5715 39.7677C77.1828 39.4531 76.7021 39.2738 76.2023 39.2569C75.7025 39.2401 75.2108 39.3866 74.8018 39.6743C74.3927 39.962 74.0886 40.3752 73.9355 40.8513C73.7825 41.3274 73.7888 41.8404 73.9535 42.3126ZM88.7935 39.7831C90.8632 38.549 93.0938 39.7831 92.8945 42.6269C92.8945 42.6269 93.0861 42.7036 93.1014 42.6882C95.5467 40.7259 97.5396 44.4896 93.9829 45.3021C91.0931 45.9613 87.6207 45.5321 84.6543 45.0108C82.3547 44.6046 84.087 41.5538 85.827 42.7496C85.9574 42.8415 86.0033 41.7914 86.8695 41.7837C87.2911 41.7837 87.866 41.9294 88.004 42.374C88.004 42.374 88.1573 42.1747 88.142 42.1287C87.9427 41.2701 87.935 40.2967 88.7935 39.7831ZM84.1943 38.0431C84.1943 38.1964 84.432 38.089 84.4396 38.0431C85.827 36.2417 88.2723 37.8208 88.3489 39.7371C88.0441 39.9624 87.8249 40.2847 87.7274 40.6511C87.6299 41.0174 87.6599 41.406 87.8124 41.7531C87.0458 41.2395 85.8117 41.4618 85.7274 42.5196C85.5947 42.4039 85.4403 42.3159 85.2731 42.2605C85.106 42.2051 84.9296 42.1836 84.754 42.1972C84.5785 42.2107 84.4074 42.2591 84.2508 42.3395C84.0942 42.4198 83.9551 42.5306 83.8417 42.6652C80.7756 42.236 74.4901 42.2743 74.1605 42.1287C73.8308 41.983 74.1604 40.7489 74.3904 40.381C74.5802 40.1305 74.8229 39.9249 75.1011 39.7788C75.3794 39.6328 75.6864 39.5498 76.0004 39.5359C76.3144 39.522 76.6276 39.5775 76.9176 39.6984C77.2077 39.8193 77.4676 40.0026 77.6788 40.2353C77.8015 40.3426 77.8398 40.036 77.8321 40.0284C74.2754 31.9185 85.3058 32.3631 84.2327 38.0431H84.1943ZM92.5648 24.6978C92.4239 23.7003 92.0101 22.7613 91.3691 21.9842C88.4409 19.3167 82.324 22.2602 85.3825 28.1165C85.7229 28.6524 86.0994 29.1646 86.5093 29.6495C87.1991 30.646 87.5134 32.8766 87.6591 34.0801C87.6591 34.1106 87.6712 34.1398 87.6927 34.1614C87.7143 34.183 87.7435 34.1951 87.774 34.1951H89.974C90.3342 34.1951 89.859 31.4509 90.3112 30.2014C90.9705 28.2851 93.0784 26.9744 92.5648 24.6978ZM87.889 21.302C88.3945 21.1957 88.9166 21.1957 89.4221 21.302C89.9488 22.7236 90.181 24.2374 90.1045 25.7514C90.0281 27.2655 89.6447 28.7482 88.9775 30.1095H88.3566C87.69 28.7484 87.305 27.2668 87.2246 25.7534C87.1443 24.24 87.3702 22.726 87.889 21.302ZM85.3671 27.4956C84.455 25.196 84.4396 23.1954 86.5016 21.8769C85.2445 23.5096 85.5434 27.8329 88.0347 30.1171C87.6821 30.1171 87.3371 30.0098 86.9845 29.9715C86.3929 29.1817 85.8527 28.3547 85.3671 27.4956ZM89.79 33.9958C89.2994 34.0494 88.8242 33.9958 88.3336 33.9958C87.843 33.9958 87.9427 34.2641 87.6897 32.6697C88.4337 32.7883 89.1917 32.7883 89.9356 32.6697C89.9477 33.1163 89.8987 33.5624 89.79 33.9958ZM89.9356 32.4627C89.1691 32.5624 88.4026 32.4627 87.6361 32.5394C87.4678 31.7012 87.2476 30.8743 86.9768 30.0635C87.991 30.4083 89.0881 30.4244 90.112 30.1095C89.9223 30.8812 89.8627 31.6791 89.9356 32.4704V32.4627ZM90.2193 29.8948C89.9617 29.9213 89.7057 29.9622 89.4527 30.0175C91.921 27.5952 92.0359 23.364 90.8402 21.8463C92.0589 22.6971 92.8408 25.38 92.1049 26.8517C91.5684 27.9095 90.7098 28.791 90.2499 29.9178L90.2193 29.8948ZM96.4742 35.5595C96.6351 35.9428 96.7808 33.5129 98.4365 33.3059C98.4978 33.3059 98.5515 33.2446 98.4978 33.1909C98.1605 32.8613 97.2177 32.846 97.1027 30.807C97.1027 30.7227 96.9417 30.692 96.9417 30.807C96.8957 33.1066 94.0749 33.1756 94.6421 33.3442C96.0372 33.7275 96.2749 35.0919 96.4742 35.5595ZM97.0184 31.4279C97.04 31.7822 97.1468 32.126 97.3296 32.4302C97.5124 32.7345 97.7659 32.9902 98.0685 33.1756C97.6926 33.3825 97.3627 33.664 97.0991 34.0027C96.8355 34.3414 96.6437 34.7303 96.5355 35.1456C96.4089 34.7458 96.2032 34.3755 95.9306 34.0569C95.658 33.7382 95.3241 33.4776 94.9488 33.2906C95.426 33.1871 95.868 32.9608 96.231 32.6341C96.5939 32.3074 96.8654 31.8916 97.0184 31.4279ZM106.569 44.068C106.508 44.068 106.523 44.1906 106.569 44.206C107 44.3011 107.386 44.5392 107.665 44.8816C107.943 45.2239 108.097 45.6504 108.102 46.0916C108.102 46.1453 108.217 46.1606 108.233 46.0916C108.248 46.0226 108.233 44.5586 109.183 43.9913C109.245 43.9913 109.275 43.8227 109.183 43.8304C108.141 43.9837 107.535 41.9064 107.528 41.8757C107.52 41.845 107.374 41.8297 107.397 41.8757C107.485 42.282 107.453 42.7049 107.306 43.0938C107.159 43.4826 106.904 43.8208 106.569 44.068ZM107.673 42.5349C107.918 43.1482 108.317 43.9147 108.915 44.0143C108.545 44.3705 108.298 44.8348 108.21 45.3404C107.958 44.7871 107.502 44.353 106.937 44.1293C107.374 43.6994 107.636 43.1234 107.673 42.5119V42.5349ZM55.4954 32.3784V32.4474C55.8763 32.5172 56.2269 32.7013 56.5008 32.9751C56.7746 33.2489 56.9586 33.5996 57.0285 33.9804C57.0335 33.9958 57.0433 34.0091 57.0564 34.0186C57.0694 34.0281 57.0852 34.0332 57.1013 34.0332C57.1174 34.0332 57.1332 34.0281 57.1463 34.0186C57.1593 34.0091 57.1691 33.9958 57.1741 33.9804C57.3888 33.2829 57.5344 32.5317 58.7072 32.3631C58.7532 32.3631 58.7685 32.2634 58.7072 32.2634C57.3198 32.1254 57.0515 30.4084 56.9978 30.2858C56.9442 30.1631 56.8675 30.2858 56.8752 30.2858C57.0821 31.5889 55.9093 32.1408 55.4954 32.3784ZM57.0898 30.968C57.1835 31.2553 57.3372 31.5193 57.5407 31.7427C57.7442 31.966 57.9929 32.1435 58.2703 32.2634C58.0014 32.3806 57.7621 32.5563 57.5698 32.7778C57.3775 32.9993 57.2371 33.2609 57.1588 33.5435C57.0284 33.2504 56.8294 32.9929 56.5786 32.7927C56.3278 32.5926 56.0325 32.4558 55.7177 32.3937C56.0466 32.2883 56.3442 32.1028 56.5837 31.854C56.8232 31.6051 56.9971 31.3007 57.0898 30.968ZM126.997 60.2571C126.231 57.6202 126.124 55.1674 125.817 55.474C124.851 56.4321 122.751 58.3331 122.751 58.3408C122.751 58.3485 125.549 59.6899 126.798 60.3951C126.829 60.4181 127.02 60.3261 126.997 60.2571ZM123.05 58.2948C124.073 57.5033 125.015 56.6123 125.863 55.6349C125.952 57.1539 126.243 58.6542 126.729 60.0961C125.472 59.4293 124.276 59.023 123.05 58.2948ZM119.731 59.9352C119.521 60.6907 119.36 61.4588 119.248 62.2348C119.248 62.3957 119.462 62.4647 119.493 62.3037C119.694 61.5237 119.812 60.7246 119.846 59.9198C119.84 59.9084 119.831 59.899 119.82 59.8931C119.808 59.8871 119.795 59.8848 119.783 59.8865C119.77 59.8882 119.758 59.8938 119.749 59.9025C119.74 59.9112 119.733 59.9226 119.731 59.9352ZM118.642 65.5922C118.89 64.8425 119.075 64.0732 119.194 63.2926C119.194 63.1929 119.056 63.1853 119.025 63.2926C118.779 64.0272 118.595 64.781 118.474 65.5462C118.475 65.5655 118.482 65.5841 118.494 65.5992C118.506 65.6143 118.523 65.6251 118.541 65.6302C118.56 65.6353 118.58 65.6344 118.598 65.6276C118.616 65.6207 118.632 65.6083 118.642 65.5922ZM121.409 63.6835C121.438 63.6925 121.469 63.6907 121.496 63.6783C121.524 63.666 121.546 63.6441 121.558 63.6167C121.57 63.5892 121.572 63.5583 121.563 63.5296C121.554 63.501 121.535 63.4766 121.509 63.4612C120.903 63.1532 120.25 62.946 119.577 62.848C119.018 62.8557 121.026 63.6222 121.409 63.6835ZM118.52 62.4187C117.853 62.2348 117.193 61.9971 116.527 61.8208C116.381 61.8208 115.86 61.9665 118.443 62.7023C118.481 62.7125 118.521 62.7073 118.554 62.6879C118.588 62.6685 118.613 62.6365 118.623 62.5989C118.633 62.5613 118.628 62.5211 118.609 62.4874C118.589 62.4536 118.557 62.4289 118.52 62.4187ZM99.1034 72.3146C98.0072 72.8742 97.0874 74.7062 97.5013 75.8943C97.5013 75.8943 97.5626 75.948 97.578 75.9557C99.4176 76.1396 110.609 76.1243 114.304 76.0476C114.33 76.047 114.356 76.0391 114.378 76.0249C114.4 76.0108 114.418 75.9908 114.43 75.9672C114.442 75.9436 114.447 75.9172 114.445 75.8908C114.443 75.8645 114.434 75.8392 114.419 75.8177C114.538 75.3036 114.489 74.7649 114.279 74.2807C114.069 73.7965 113.71 73.3922 113.254 73.1272C112.742 72.9325 112.195 72.8496 111.649 72.8839C111.103 72.9183 110.571 73.0692 110.088 73.3265C110.617 72.3836 110.088 71.3411 109.444 70.5286C108.677 69.5321 107.834 68.574 106.508 68.482C105.336 68.3246 104.146 68.5969 103.158 69.2485C102.185 70.061 102.269 71.2568 102.438 72.3836C101.702 71.3795 100.092 71.8087 99.1034 72.3146ZM103.189 69.6318C103.589 69.2665 104.063 68.9903 104.578 68.8214C105.093 68.6526 105.638 68.5948 106.177 68.6521C106.716 68.7093 107.236 68.8802 107.704 69.1534C108.172 69.4267 108.577 69.7961 108.892 70.2373C109.597 71.1112 110.563 72.3376 109.712 73.4414C109.612 73.5717 109.95 73.5488 109.957 73.5411C113.292 72.4909 114.143 73.6331 114.196 75.764C110.532 75.971 98.4365 75.695 97.601 75.8177C97.3633 72.1767 101.434 71.2185 102.56 72.8589C102.606 72.9279 102.706 72.8589 102.637 72.7286C102.53 71.7014 102.407 70.429 103.189 69.6318ZM111.169 82.5862C111.253 82.5325 111.169 82.4022 111.13 82.4252C109.827 82.8851 109.068 81.0301 109.015 80.9534C108.961 80.8768 108.877 80.9534 108.9 80.9994C109.26 81.9039 109.153 82.9694 108.133 83.3527C108.12 83.3574 108.108 83.3662 108.1 83.3779C108.091 83.3895 108.087 83.4035 108.087 83.4178C108.087 83.4322 108.091 83.4461 108.1 83.4578C108.108 83.4695 108.12 83.4783 108.133 83.483C108.564 83.4188 109.003 83.508 109.374 83.735C109.746 83.962 110.025 84.3124 110.164 84.7248C110.164 84.8168 110.348 84.8014 110.341 84.7248C110.333 84.6481 110.118 83.1994 111.169 82.5862ZM110.134 84.1959C109.962 83.9445 109.734 83.7366 109.468 83.5889C109.202 83.4412 108.905 83.3577 108.601 83.345C108.842 83.1538 109.029 82.9021 109.142 82.6153C109.256 82.3286 109.291 82.0171 109.245 81.7123C109.4 81.9872 109.622 82.2188 109.889 82.3862C110.157 82.5535 110.462 82.6513 110.778 82.6705C110.575 82.8699 110.414 83.1073 110.304 83.3691C110.193 83.6308 110.136 83.9118 110.134 84.1959ZM81.1435 112.42C82.8989 107.1 87.1455 102.455 91.7523 99.3885C91.898 99.2889 91.7523 99.0589 91.6143 99.1509C82.0634 105.505 80.5686 114.213 81.1435 112.42ZM78.2307 107C80.8446 103.007 83.3665 101.404 87.5441 99.1739C87.705 99.0896 87.5441 98.8519 87.4061 98.9363C83.8571 100.707 79.9401 103.275 78.1541 106.954C78.151 106.964 78.1513 106.975 78.155 106.984C78.1587 106.994 78.1655 107.002 78.1743 107.007C78.1832 107.013 78.1935 107.015 78.2038 107.013C78.214 107.012 78.2235 107.007 78.2307 107ZM90.1273 95.9698C90.4875 95.9238 90.1809 95.3949 86.9232 96.1384C79.9707 97.6715 78.361 100.876 78.7366 100.462C82.0864 96.7976 87.0228 96.3684 90.1273 95.9698ZM19.8364 81.6357C18.7479 82.2105 17.8971 81.3444 17.6058 80.3632C17.6058 80.2866 17.4448 80.2942 17.4525 80.3632C17.6518 82.7701 21.3312 82.7088 20.7946 79.5967C20.4164 78.03 19.7735 76.5394 18.8936 75.1891C16.9543 71.8854 15.2372 70.6819 15.5822 71.1112C17.5752 73.5871 22.5499 80.2099 19.8364 81.6357ZM28.7895 85.8976C29.2494 85.6139 28.9965 84.8934 29.0425 84.4565C29.0425 84.3492 28.8815 84.3338 28.8585 84.4565C28.8292 84.6803 28.8113 84.9054 28.8048 85.131C28.6515 85.8976 27.9157 85.6906 27.4021 85.4453C26.608 84.9802 25.9376 84.3308 25.4474 83.552C24.4586 82.1799 23.6001 80.7005 22.7416 79.2517C17.3759 70.3063 16.9926 70.8659 17.0999 70.9962C19.7368 74.4226 21.7757 78.1863 24.0523 81.8503C24.9032 83.23 25.8307 84.9624 27.3867 85.6829C27.747 85.8516 28.4062 86.1275 28.7895 85.8976ZM20.4726 73.3954C20.419 73.3265 20.304 73.3954 20.35 73.4874C24.037 78.7612 23.4468 76.9751 20.4726 73.3954ZM12.1941 68.0987C10.5537 70.5746 13.4206 71.7244 13.4206 71.7244C13.2104 71.4171 13.1273 71.0403 13.1887 70.673C13.2502 70.3058 13.4514 69.9766 13.7502 69.7544C13.9705 69.9055 14.201 70.0413 14.44 70.1607C15.1583 69.9118 15.8 69.4814 16.3027 68.9112C16.2204 68.6276 16.11 68.3528 15.9731 68.0911C16.2935 67.8775 16.6848 67.7981 17.0631 67.8697C17.4414 67.9414 17.7766 68.1584 17.9967 68.4743C17.9967 68.4743 17.9967 65.2856 14.9306 66.0444C11.5119 60.0425 6.16918 58.0342 11.6499 67.1942C11.7955 67.5008 11.9871 67.7998 12.1941 68.0987ZM11.4736 62.0355C12.3398 63.0013 14.1181 63.9671 16.1264 68.8039C15.6159 69.2748 15.0556 69.6886 14.4554 70.038C11.0213 66.374 11.2359 65.6612 9.77187 63.2542L11.4736 62.0355ZM29.5024 48.5829C27.9693 48.8128 25.5624 50.4838 26.145 52.3005C25.6602 51.9088 25.0621 51.6838 24.4393 51.6589C23.8165 51.6341 23.2023 51.8107 22.6879 52.1626C22.0615 52.6432 21.6064 53.3125 21.3897 54.0717C21.173 54.8309 21.2062 55.6396 21.4845 56.3785H35.213C36.5238 56.3785 36.9607 50.4149 32.3922 52.2239C32.5707 51.7858 32.6295 51.3081 32.5626 50.8398C32.4957 50.3715 32.3054 49.9294 32.0113 49.5588C31.7172 49.1883 31.3299 48.9026 30.889 48.7311C30.4481 48.5596 29.9696 48.5084 29.5024 48.5829ZM32.2465 52.5228C34.6688 50.9898 37.0144 53.573 35.2437 56.2252C35.2437 56.2252 22.3966 56.0412 21.6991 56.1792C20.5033 52.3465 24.6349 50.4915 26.3519 52.7911C26.4056 52.8678 26.3519 52.5382 26.2906 52.4538C25.5777 49.909 29.9086 47.4561 31.756 49.5027C32.9824 50.8518 31.8863 52.7604 32.2465 52.5228ZM17.0999 31.8112C17.0543 31.8893 17.0265 31.9765 17.0185 32.0666C17.0106 32.1567 17.0227 32.2475 17.0539 32.3324C16.7703 32.6467 17.2609 33.5512 17.9967 33.0529C19.2808 33.5887 20.6368 33.9322 22.021 34.0724C21.6301 35.3142 20.7333 38.572 21.8524 39.2312C22.9715 39.8904 24.5276 36.1651 24.9875 35.0536C25.3127 34.9415 25.6142 34.77 25.8767 34.5477C27.8313 34.7086 32.1009 34.8466 30.7901 32.938C30.2612 32.1714 27.2334 31.5965 26.3136 31.4509C26.8272 29.8795 28.2069 25.173 25.915 26.0852C24.9415 26.4608 24.014 28.745 23.3701 30.3471C22.954 30.4435 22.5739 30.6562 22.274 30.9603C21.0245 30.8377 17.6135 30.6614 17.0999 31.8112ZM26.3749 31.6272C27.2641 31.7652 30.3072 32.3937 30.6292 33.0299C31.503 34.701 27.8927 34.3944 26.1143 34.2947C26.4671 33.9533 26.687 33.4975 26.7347 33.0088C26.7825 32.5202 26.655 32.0305 26.3749 31.6272ZM25.961 26.2615C27.8313 25.7172 26.6202 29.5729 26.076 31.3129C25.7625 30.9653 25.3737 30.6941 24.9392 30.5201C24.5047 30.346 24.0362 30.2737 23.5694 30.3088C23.9144 29.4579 25.1101 26.4914 25.961 26.2462V26.2615ZM24.7269 35.1532C22.5883 41.0095 20.396 39.9977 22.1973 34.1797C22.4576 34.5926 22.8453 34.9095 23.3017 35.0823C23.7581 35.2552 24.2584 35.2747 24.7269 35.1379V35.1532ZM22.159 31.1443C21.8888 31.5362 21.7297 31.994 21.6987 32.4691C21.6676 32.9441 21.7658 33.4187 21.9827 33.8425C21.9827 33.8425 18.7939 33.3442 18.1501 32.9073C18.403 32.6697 18.2267 32.0105 17.2992 32.1408C17.1459 31.7192 17.7591 31.4816 18.0274 31.3742C19.3744 31.0174 20.7792 30.934 22.159 31.129V31.1443ZM16.456 22.1069C16.822 22.2636 17.1433 22.5088 17.3908 22.8206C17.6384 23.1324 17.8045 23.5009 17.8741 23.8929C18.0811 24.3298 17.8741 22.1682 19.0929 22.0762C19.1465 22.0762 19.1772 21.9842 19.0929 21.9536C18.5563 21.6776 17.8128 21.5933 17.3375 19.4777C17.3375 19.355 17.0922 19.4164 17.1536 19.5313C17.6288 20.4512 16.4407 21.9996 16.433 21.9996C16.4188 22.0026 16.4064 22.0112 16.3985 22.0234C16.3905 22.0356 16.3878 22.0505 16.3909 22.0647C16.3939 22.079 16.4025 22.0914 16.4147 22.0993C16.4269 22.1072 16.4418 22.1099 16.456 22.1069ZM17.4065 20.3745C17.4908 20.7245 17.6503 21.0519 17.8741 21.3338C18.0978 21.6158 18.3803 21.8456 18.702 22.0072C18.468 22.1341 18.2687 22.3164 18.1217 22.5383C17.9746 22.7602 17.8844 23.0147 17.8588 23.2797C17.7715 22.9698 17.6034 22.6886 17.3717 22.4651C17.1401 22.2415 16.8531 22.0835 16.5403 22.0072C17.016 21.5849 17.3236 21.0052 17.4065 20.3745ZM16.3487 13.7977C17.7233 13.4846 19.0754 13.08 20.396 12.5866C21.2162 13.0005 18.0044 9.52045 16.7856 8.67727C16.732 8.63894 16.6706 8.72326 16.709 8.76925C16.4713 10.3955 16.3178 12.033 16.2491 13.675C16.2491 13.675 16.318 13.7977 16.3487 13.7977ZM16.7933 8.8459C19.3842 11.4444 19.2309 11.5671 20.212 12.4256C18.9549 12.8319 17.7131 13.3608 16.433 13.6674C16.525 12.05 16.64 10.4403 16.7933 8.83824V8.8459ZM16.0881 54.1172C16.1013 54.1335 16.1204 54.1438 16.1413 54.146C16.1621 54.1481 16.183 54.1419 16.1992 54.1287C16.2155 54.1155 16.2258 54.0964 16.228 54.0755C16.2302 54.0547 16.2239 54.0338 16.2107 54.0176C16.1442 53.6369 16.1746 53.2457 16.2992 52.88C16.4238 52.5142 16.6385 52.1858 16.9236 51.9249C17.0156 51.8406 16.9236 51.6643 16.8393 51.7256C15.5822 52.4232 14.7007 51.0128 14.6853 50.9591C14.67 50.9054 14.5244 50.9591 14.555 51.0128C15.1453 52.5458 14.2484 53.1207 13.8575 53.3123C13.8192 53.3123 13.8575 53.4043 13.8575 53.389C14.2528 53.2084 14.7017 53.183 15.1148 53.3179C15.528 53.4528 15.8754 53.7381 16.0881 54.1172ZM14.854 51.4803C15.068 51.7205 15.3415 51.9001 15.6469 52.001C15.9524 52.1019 16.279 52.1206 16.594 52.0552C16.1887 52.5049 15.9671 53.0903 15.9731 53.6956C15.7899 53.4947 15.5617 53.34 15.3073 53.2441C15.0528 53.1482 14.7793 53.1138 14.509 53.1437C14.7039 52.919 14.8379 52.6482 14.8983 52.357C14.9587 52.0658 14.9434 51.764 14.854 51.4803ZM25.6084 68.8039C25.5701 68.8039 25.6084 68.8806 25.6084 68.8806C25.9904 68.6872 26.4323 68.6486 26.8421 68.7728C27.2519 68.8971 27.598 69.1745 27.8083 69.5475C27.862 69.6241 27.9693 69.5475 27.931 69.4478C27.8746 69.0674 27.9099 68.6791 28.0339 68.3151C28.1579 67.9511 28.367 67.622 28.6439 67.3552C28.7282 67.2709 28.6439 67.1099 28.5595 67.1559C28.3683 67.25 28.1602 67.3049 27.9474 67.3172C27.7346 67.3296 27.5215 67.2991 27.3206 67.2276C27.1198 67.1562 26.9354 67.0451 26.7782 66.9012C26.621 66.7572 26.4943 66.5832 26.4056 66.3894C26.4056 66.3204 26.2446 66.3894 26.2753 66.443C26.9192 67.9761 26.007 68.574 25.6084 68.8039ZM26.6049 66.9106C26.8189 67.1508 27.0924 67.3303 27.3979 67.4312C27.7033 67.5322 28.0299 67.5509 28.3449 67.4855C27.979 67.9563 27.7699 68.53 27.747 69.1259C27.567 68.9209 27.3392 68.7633 27.0839 68.667C26.8286 68.5708 26.5535 68.5388 26.2829 68.574C26.4739 68.3471 26.6037 68.0752 26.66 67.7841C26.7164 67.493 26.6974 67.1923 26.6049 66.9106ZM11.8492 77.7263C11.8624 77.7426 11.8815 77.753 11.9024 77.7551C11.9232 77.7573 11.9441 77.7511 11.9603 77.7378C11.9766 77.7246 11.9869 77.7055 11.9891 77.6846C11.9912 77.6638 11.985 77.643 11.9718 77.6267C11.8108 76.8065 11.9718 76.4692 12.7 75.5494C12.7767 75.4574 12.7 75.3041 12.6157 75.3501C12.4243 75.4466 12.2154 75.5033 12.0015 75.5168C11.7875 75.5303 11.5731 75.5004 11.3711 75.4287C11.1691 75.3571 10.9837 75.2453 10.8261 75.1C10.6685 74.9548 10.5419 74.7791 10.4541 74.5836C10.4541 74.5146 10.3008 74.5836 10.3314 74.6372C10.4479 74.8345 10.5223 75.0536 10.5501 75.281C10.578 75.5083 10.5585 75.739 10.493 75.9585C10.4275 76.1779 10.3174 76.3815 10.1696 76.5565C10.0218 76.7314 9.83938 76.874 9.6339 76.9751V77.0518C10.0198 76.8621 10.4634 76.8262 10.8748 76.9515C11.2862 77.0767 11.6345 77.3537 11.8492 77.7263ZM10.6227 75.1201C10.8356 75.3597 11.1077 75.5389 11.4118 75.6398C11.7159 75.7407 12.0413 75.7598 12.3551 75.695C12.1484 75.9155 11.9872 76.1745 11.8806 76.4573C11.7741 76.7401 11.7243 77.0411 11.7342 77.3431C11.5525 77.1419 11.3259 76.9864 11.0729 76.8892C10.8198 76.792 10.5474 76.7558 10.2778 76.7835C10.4714 76.5581 10.6045 76.2873 10.6649 75.9963C10.7252 75.7054 10.7107 75.4039 10.6227 75.1201ZM17.5522 99.0206C19.4857 99.64 21.2544 100.688 22.7262 102.087C24.0615 103.475 25.3132 104.942 26.4746 106.479C26.5512 106.571 26.6892 106.479 26.6279 106.364C24.6962 102.999 21.3695 99.9251 17.5675 98.9593C17.5292 98.9516 17.5215 99.0129 17.5522 99.0206ZM26.4056 100.837C26.4899 100.883 26.5896 100.761 26.5129 100.699C25.1205 99.3829 23.3122 98.5939 21.4001 98.4687C21.3158 98.4687 21.3158 98.599 21.4001 98.6066C23.3471 98.7446 24.8265 99.8254 26.4056 100.837ZM26.7122 97.6638C25.3477 96.7067 23.7623 96.1124 22.1049 95.9368C20.4475 95.7611 18.7727 96.0099 17.2379 96.6597C17.1842 96.6597 17.2379 96.7746 17.2379 96.7593C18.7794 96.2355 20.417 96.056 22.0354 96.2335C23.6537 96.4109 25.2135 96.941 26.6049 97.7865C26.6211 97.8007 26.6424 97.8079 26.664 97.8064C26.6855 97.805 26.7056 97.7951 26.7199 97.7788C26.7341 97.7625 26.7413 97.7413 26.7398 97.7197C26.7384 97.6981 26.7285 97.678 26.7122 97.6638ZM104.553 116.727C104.109 117.785 103.151 119.863 103.143 119.878C102.183 123.265 101.43 126.708 100.889 130.188C100.889 130.188 102.422 130.471 102.422 130.456C103.48 127.037 104.063 123.45 105.013 120.016C105.013 120.016 104.676 116.781 104.684 116.766C104.691 116.75 104.576 116.658 104.553 116.727ZM104.622 116.927C104.607 117.151 104.607 117.377 104.622 117.601H104.377C104.484 117.348 104.553 117.134 104.622 116.927ZM100.981 130.065C101.426 128.195 103.036 121.449 103.281 119.955C103.281 119.955 103.756 119.901 103.994 119.901C103.051 123.258 101.618 130.134 101.618 130.142C101.409 130.091 101.196 130.066 100.981 130.065ZM102.361 130.264L101.756 130.165C102.522 126.754 104.109 119.901 104.109 119.893C104.371 119.925 104.628 119.987 104.875 120.077C104.224 121.626 102.783 128.501 102.361 130.264ZM103.273 119.801C103.679 119.149 104.03 118.465 104.323 117.755C104.435 117.792 104.551 117.815 104.668 117.824C104.668 117.939 104.791 119.357 104.852 119.909C104.331 119.815 103.802 119.779 103.273 119.801ZM102.223 130.54C101.765 130.447 101.301 130.378 100.836 130.333C100.782 130.333 100.751 130.41 100.836 130.441C101.276 130.598 101.734 130.698 102.2 130.74C102.3 130.77 102.353 130.563 102.223 130.54ZM100.744 130.839C101.104 131.154 101.656 131.008 102.07 131.184C102.084 131.194 102.1 131.2 102.116 131.202C102.133 131.205 102.15 131.204 102.166 131.199C102.182 131.195 102.197 131.187 102.21 131.176C102.222 131.164 102.232 131.151 102.239 131.135C102.246 131.12 102.249 131.104 102.249 131.087C102.249 131.07 102.245 131.053 102.237 131.038C102.23 131.023 102.219 131.01 102.206 130.999C102.193 130.989 102.178 130.981 102.162 130.977C101.932 130.901 100.567 130.655 100.744 130.839ZM113.721 124.339C113.294 124.247 112.849 124.312 112.466 124.522C112.083 124.731 111.788 125.072 111.636 125.481C111 127.781 114.549 128.685 115.04 126.409C115.136 125.96 115.051 125.491 114.805 125.104C114.558 124.716 114.169 124.442 113.721 124.339ZM111.927 125.228C112.28 124.462 113.46 124.416 113.683 124.462C114.041 124.575 114.351 124.806 114.561 125.118C114.771 125.43 114.87 125.804 114.84 126.179C114.695 128.578 110.87 127.474 111.927 125.228ZM120.75 129.414C120.834 128.041 120.49 126.953 120.428 127.398C120.349 128.082 120.377 128.776 120.513 129.452C120.543 129.582 120.743 129.544 120.75 129.414ZM120.727 132.917C120.727 133.062 120.98 133.024 120.98 132.878C120.985 132.248 120.926 131.619 120.804 131C120.582 130.448 120.635 132.311 120.727 132.917ZM122.873 129.682C119.807 130.18 120.873 130.326 122.95 129.958C123.134 129.927 123.05 129.651 122.873 129.682ZM120.198 130.157C119.59 130.166 118.982 130.219 118.382 130.318C118.368 130.323 118.356 130.332 118.348 130.343C118.34 130.355 118.335 130.369 118.335 130.383C118.335 130.397 118.34 130.411 118.348 130.423C118.356 130.435 118.368 130.444 118.382 130.448C118.998 130.533 119.624 130.502 120.229 130.356C120.242 130.354 120.255 130.35 120.266 130.343C120.277 130.336 120.287 130.327 120.295 130.316C120.303 130.306 120.308 130.294 120.312 130.281C120.315 130.268 120.315 130.254 120.313 130.241C120.311 130.228 120.307 130.216 120.3 130.204C120.293 130.193 120.284 130.183 120.273 130.175C120.263 130.168 120.25 130.162 120.238 130.159C120.225 130.156 120.211 130.155 120.198 130.157Z" fill="black"/>
<path d="M13.2905 67.3322C13.3063 67.4644 13.37 67.5863 13.4696 67.6747C13.5692 67.7631 13.6977 67.812 13.8309 67.812C13.9641 67.812 14.0926 67.7631 14.1922 67.6747C14.2918 67.5863 14.3555 67.4644 14.3713 67.3322C14.3713 67.0333 13.2905 66.6117 13.2905 67.3322ZM12.11 65.4925C12.1259 65.6267 12.1905 65.7504 12.2915 65.8402C12.3925 65.9299 12.523 65.9795 12.6581 65.9795C12.7932 65.9795 12.9237 65.9299 13.0247 65.8402C13.1257 65.7504 13.1903 65.6267 13.2062 65.4925C13.1903 65.3583 13.1257 65.2346 13.0247 65.1449C12.9237 65.0551 12.7932 65.0056 12.6581 65.0056C12.523 65.0056 12.3925 65.0551 12.2915 65.1449C12.1905 65.2346 12.1259 65.3583 12.11 65.4925ZM10.7456 63.7832C10.7456 63.9275 10.8029 64.0659 10.905 64.168C11.0071 64.2701 11.1455 64.3274 11.2898 64.3274C11.4342 64.3274 11.5726 64.2701 11.6747 64.168C11.7767 64.0659 11.8341 63.9275 11.8341 63.7832C11.8341 63.4842 10.7456 63.0626 10.7456 63.7832ZM48.7502 53.458C48.8823 53.458 49.0091 53.4055 49.1025 53.3121C49.1959 53.2186 49.2484 53.0919 49.2484 52.9598C49.2484 52.8276 49.1959 52.7009 49.1025 52.6074C49.0091 52.514 48.8823 52.4615 48.7502 52.4615C48.4436 52.4615 48.091 53.458 48.7502 53.458ZM52.7821 55.3207C52.7907 55.2537 52.7849 55.1857 52.7651 55.1212C52.7453 55.0566 52.712 54.9971 52.6674 54.9464C52.6228 54.8957 52.568 54.8552 52.5065 54.8274C52.4449 54.7996 52.3782 54.7852 52.3107 54.7852C52.2432 54.7852 52.1765 54.7996 52.115 54.8274C52.0535 54.8552 51.9986 54.8957 51.954 54.9464C51.9094 54.9971 51.8761 55.0566 51.8563 55.1212C51.8366 55.1857 51.8308 55.2537 51.8393 55.3207C51.8393 55.6043 52.7821 55.9569 52.7821 55.3207Z" fill="black"/>
</svg>
