<svg width="154" height="154" viewBox="0 0 154 154" fill="none" xmlns="http://www.w3.org/2000/svg">
<path d="M46.8527 145.219C45.9459 144.889 44.9707 144.791 44.0165 144.936C43.9047 144.974 43.8076 145.046 43.7389 145.143C43.6702 145.239 43.6333 145.354 43.6333 145.472C43.6333 145.591 43.6702 145.706 43.7389 145.802C43.8076 145.898 43.9047 145.971 44.0165 146.009C45.9558 146.86 49.2826 146.262 46.8527 145.219ZM44.5991 145.986C43.2883 145.457 44.4918 145.02 44.9057 145.02C46.6151 145.02 47.7112 145.71 46.9217 146.139C46.1522 146.356 45.3312 146.299 44.5991 145.978V145.986ZM65.0654 140.275C64.9289 140.3 64.8026 140.364 64.702 140.46C64.6014 140.556 64.5309 140.678 64.4992 140.814C64.4674 140.949 64.4758 141.09 64.5233 141.22C64.5708 141.351 64.6553 141.465 64.7665 141.548C65.1559 141.78 65.5885 141.93 66.0379 141.989C66.4873 142.049 66.9441 142.016 67.3804 141.893C68.1469 141.701 68.7678 141.126 68.1469 140.628C68.1392 140.612 66.1999 139.915 65.0654 140.275ZM66.6675 141.808C66.2455 141.835 65.8219 141.798 65.4104 141.701C64.2606 141.218 64.7818 140.421 65.809 140.421C66.0006 140.421 67.6257 140.421 68.0166 140.773C68.6145 141.31 67.411 141.808 66.6675 141.808ZM77.3836 140.758C77.031 141.019 77.3376 141.525 77.6442 141.624C77.9508 141.724 78.863 141.847 78.9933 141.402C79.1773 140.735 77.7439 140.505 77.3836 140.758ZM77.6519 141.371C77.3223 141.203 77.261 140.819 77.9662 140.842C78.6714 140.865 79.5605 141.609 78.1961 141.494C78.0058 141.491 77.818 141.449 77.6442 141.371H77.6519ZM40.0842 79.543C40.068 79.543 40.0524 79.5495 40.0409 79.561C40.0294 79.5725 40.0229 79.5881 40.0229 79.6043C40.0229 79.6206 40.0294 79.6362 40.0409 79.6477C40.0524 79.6592 40.068 79.6656 40.0842 79.6656C40.6285 79.6656 44.0165 80.2712 43.9169 79.543C43.9169 79.3744 42.2152 77.7876 42.3838 77.7416C42.5525 77.6957 44.7984 78.3242 45.289 78.3242C45.381 78.3242 45.4039 78.1709 45.289 78.1632H45.1127C45.6429 77.6165 46.0253 76.9438 46.2241 76.2086C46.4279 76.8908 46.7412 77.5354 47.1516 78.1173C47.1744 78.1388 47.2046 78.1508 47.236 78.1508C47.2673 78.1508 47.2975 78.1388 47.3203 78.1173C47.3969 78.0713 47.5732 77.826 48.5161 77.0364C47.9335 79.267 47.7495 79.336 47.9565 79.3897C49.0588 79.5364 50.1786 79.4792 51.2602 79.2211C51.272 79.2167 51.2821 79.2089 51.2892 79.1986C51.2964 79.1883 51.3002 79.1761 51.3002 79.1636C51.3002 79.1511 51.2964 79.1388 51.2892 79.1286C51.2821 79.1183 51.272 79.1104 51.2602 79.1061C50.8003 79.1751 48.631 79.612 48.3014 79.1061C48.0715 78.7535 48.746 77.2127 48.8533 76.7528C48.8579 76.7382 48.8593 76.7228 48.8575 76.7076C48.8556 76.6924 48.8505 76.6777 48.8425 76.6647C48.8345 76.6516 48.8238 76.6404 48.8112 76.6318C48.7985 76.6232 48.7841 76.6174 48.769 76.6148C48.5774 76.5612 47.6805 77.8183 47.236 77.688C46.7914 77.5577 46.4694 76.1089 46.3851 75.6797C46.3851 75.58 46.1935 75.5647 46.1781 75.6797C46.0371 76.5915 45.6135 77.436 44.967 78.0943C44.0266 77.9511 43.1006 77.7254 42.1998 77.4197C42.1807 77.4139 42.1602 77.414 42.1411 77.42C42.122 77.426 42.1051 77.4376 42.0927 77.4533C42.0803 77.469 42.0729 77.4881 42.0715 77.5081C42.0701 77.5281 42.0748 77.5481 42.0849 77.5653C42.3148 77.8873 43.7712 79.4433 43.6946 79.6043C43.6179 79.7653 40.7511 79.5507 40.0842 79.543ZM72.2785 23.1877C72.0855 23.7833 71.7695 24.3317 71.351 24.7974C71.2054 24.9737 70.8528 25.242 70.8834 25.5026C70.9371 25.9625 71.9642 26.1618 72.3015 26.1771C72.3198 26.1771 72.3373 26.1699 72.3503 26.1569C72.3632 26.144 72.3705 26.1264 72.3705 26.1081C72.3705 26.0899 72.3632 26.0723 72.3503 26.0594C72.3373 26.0464 72.3198 26.0392 72.3015 26.0392C71.9979 26.0046 71.7065 25.8996 71.4507 25.7325C70.8528 25.2266 71.9489 25.012 72.3782 23.2183C72.3864 23.2111 72.3925 23.2019 72.396 23.1915C72.3995 23.1812 72.4001 23.1701 72.3978 23.1594C72.3955 23.1487 72.3904 23.1388 72.3831 23.1307C72.3757 23.1227 72.3663 23.1167 72.3559 23.1135C72.3454 23.1103 72.3343 23.1099 72.3237 23.1125C72.313 23.115 72.3033 23.1203 72.2954 23.1279C72.2875 23.1354 72.2818 23.145 72.2788 23.1555C72.2758 23.166 72.2757 23.1771 72.2785 23.1877ZM74.0722 28.2391C74.6946 28.3125 75.3217 28.1479 75.8278 27.7783C76.3339 27.4086 76.6816 26.8613 76.801 26.2461C76.801 26.1158 76.6401 26.0238 76.5864 26.1541C76.1265 27.1966 75.3446 28.1471 74.0952 28.0935C74.0109 28.0935 73.9879 28.2238 74.0722 28.2391ZM70.8528 20.8114C70.6239 20.8399 70.404 20.9177 70.2081 21.0395C70.0123 21.1612 69.8451 21.324 69.7183 21.5166C69.7049 21.5354 69.696 21.5569 69.6921 21.5796C69.6882 21.6023 69.6894 21.6256 69.6958 21.6477C69.7021 21.6699 69.7133 21.6903 69.7286 21.7075C69.744 21.7247 69.763 21.7382 69.7842 21.7471C69.8055 21.7559 69.8284 21.7599 69.8514 21.7586C69.8744 21.7574 69.8968 21.751 69.917 21.7399C69.9372 21.7288 69.9546 21.7133 69.968 21.6946C69.9814 21.6758 69.9903 21.6543 69.9942 21.6316C70.0866 21.4614 70.2157 21.314 70.3721 21.1999C70.5286 21.0859 70.7085 21.0082 70.8988 20.9724C70.9177 20.9644 70.9331 20.9497 70.942 20.9311C70.9509 20.9125 70.9527 20.8913 70.9471 20.8715C70.9414 20.8517 70.9287 20.8347 70.9113 20.8236C70.8939 20.8125 70.8731 20.8082 70.8528 20.8114ZM74.923 20.8191C75.1589 20.8588 75.3837 20.9475 75.5831 21.0796C75.7825 21.2116 75.9519 21.384 76.0805 21.5856C76.0978 21.6141 76.1257 21.6345 76.158 21.6424C76.1903 21.6503 76.2245 21.6451 76.253 21.6278C76.2814 21.6105 76.3019 21.5826 76.3098 21.5503C76.3177 21.5179 76.3124 21.4838 76.2951 21.4553C76.1467 21.2237 75.9427 21.033 75.7017 20.9004C75.4607 20.7679 75.1904 20.6978 74.9154 20.6964C74.8157 20.6964 74.8157 20.8114 74.923 20.8191ZM70.4082 22.7584C70.3038 23.0624 70.2445 23.3801 70.2319 23.7012C70.2319 23.7297 70.2432 23.757 70.2633 23.7771C70.2834 23.7973 70.3107 23.8086 70.3392 23.8086C70.3676 23.8086 70.3949 23.7973 70.4151 23.7771C70.4352 23.757 70.4465 23.7297 70.4465 23.7012C70.5219 23.4036 70.5782 23.1015 70.6151 22.7967C70.6148 22.7719 70.6059 22.748 70.5899 22.729C70.5739 22.71 70.5518 22.6972 70.5274 22.6927C70.503 22.6882 70.4778 22.6923 70.456 22.7042C70.4343 22.7162 70.4174 22.7354 70.4082 22.7584ZM74.8157 23.6782C74.8885 23.3147 74.927 22.9452 74.9307 22.5744C74.9307 22.4441 74.7161 22.4135 74.6931 22.5744C74.6147 22.9267 74.5761 23.2867 74.5781 23.6476C74.5805 23.6754 74.5924 23.7016 74.6118 23.7218C74.6312 23.742 74.6568 23.7549 74.6846 23.7585C74.7123 23.7621 74.7404 23.7561 74.7643 23.7415C74.7881 23.7269 74.8063 23.7046 74.8157 23.6782ZM145.743 132.004C144.73 132.524 143.835 133.247 143.114 134.128C142.286 132.112 143.206 130.333 144.256 128.601C144.267 128.578 144.27 128.551 144.266 128.526C144.261 128.501 144.248 128.477 144.23 128.459C144.211 128.441 144.187 128.43 144.162 128.427C144.136 128.423 144.11 128.428 144.087 128.44C142.444 129.61 141.074 131.121 140.07 132.871C140.07 132.579 140.07 132.296 140.017 131.997C140.017 131.979 140.013 131.962 140.006 131.946C139.999 131.93 139.989 131.916 139.976 131.904C139.963 131.892 139.947 131.884 139.93 131.879C139.914 131.873 139.896 131.872 139.879 131.874C139.756 131.874 139.772 131.874 139.511 132.871C139.281 132.104 139.051 131.337 138.829 130.625C138.829 130.517 138.606 130.494 138.583 130.625C138.498 131.196 138.485 131.775 138.545 132.349C137.289 131.484 136.084 130.547 134.935 129.544C134.911 129.529 134.884 129.523 134.856 129.527C134.829 129.53 134.803 129.542 134.784 129.562C134.764 129.581 134.752 129.607 134.749 129.634C134.746 129.661 134.752 129.689 134.766 129.712C135.836 130.889 136.822 132.139 137.717 133.453C137.779 133.545 137.924 133.453 137.863 133.369C135.41 129.636 134.743 130.065 138.629 132.717C138.729 132.786 138.821 132.671 138.806 132.572C138.748 132.15 138.733 131.724 138.76 131.299L139.381 133.376C139.391 133.409 139.414 133.436 139.444 133.451C139.474 133.467 139.509 133.47 139.542 133.461C139.641 133.461 139.626 133.392 139.795 132.771V133.315C139.793 133.345 139.801 133.374 139.818 133.399C139.836 133.423 139.861 133.441 139.889 133.449C139.918 133.457 139.949 133.455 139.976 133.443C140.003 133.431 140.026 133.41 140.04 133.384C140.939 131.697 142.176 130.212 143.673 129.023C142.761 130.594 141.91 132.48 142.907 134.204C142.933 134.266 142.975 134.319 143.029 134.358C143.055 134.365 143.082 134.365 143.107 134.359C143.133 134.352 143.156 134.338 143.175 134.319C143.771 133.662 144.445 133.08 145.183 132.587C144.744 133.128 144.508 133.806 144.516 134.503C144.516 134.611 144.708 134.649 144.716 134.503C144.814 133.61 145.224 132.78 145.873 132.158C145.996 132.096 145.865 131.958 145.743 132.004ZM148.932 67.2478C147.697 67.4673 146.576 68.1063 145.758 69.0569C145.68 67.8784 145.866 66.6973 146.302 65.5998C146.31 65.5752 146.309 65.5487 146.3 65.5246C146.291 65.5005 146.274 65.4802 146.252 65.467C146.23 65.4537 146.204 65.4482 146.178 65.4515C146.153 65.4547 146.129 65.4665 146.111 65.4848C144.953 66.7343 144.662 68.6199 144.486 68.6659C144.486 68.6659 144.026 68.3057 143.972 68.2673C143.109 67.6655 142.178 67.1689 141.197 66.7879C141.075 66.7419 141.006 66.9336 141.113 66.9949C142.165 67.6296 143.067 68.4848 143.757 69.5014C143.803 69.5781 143.934 69.5014 143.88 69.4248C143.375 68.6544 142.752 67.9688 142.033 67.3935C142.939 67.8238 143.782 68.3757 144.539 69.0339C144.554 69.0479 144.572 69.058 144.591 69.063C144.611 69.0679 144.631 69.0677 144.651 69.0623C144.67 69.0568 144.688 69.0464 144.702 69.032C144.716 69.0176 144.726 68.9997 144.731 68.9802C144.901 67.9833 145.288 67.036 145.865 66.2054C145.559 67.2228 145.452 68.2901 145.551 69.3481C145.551 69.4401 145.689 69.5244 145.758 69.4325C146.467 68.5136 147.463 67.858 148.587 67.5698C148.263 67.8969 148.008 68.2848 147.836 68.7111C147.664 69.1374 147.577 69.5936 147.582 70.0533C147.582 70.0808 147.593 70.1071 147.613 70.1265C147.632 70.1459 147.659 70.1568 147.686 70.1568C147.713 70.1568 147.74 70.1459 147.759 70.1265C147.779 70.1071 147.789 70.0808 147.789 70.0533C147.852 69.0576 148.3 68.1253 149.039 67.4548C149.139 67.3628 149.031 67.2325 148.932 67.2478ZM36.2899 66.374C36.8265 65.1169 37.2941 61.0083 36.4355 59.2299C36.3313 58.9384 36.1585 58.6762 35.9317 58.4654C35.7049 58.2547 35.4308 58.1015 35.1324 58.0188C34.2663 57.8578 34.4885 56.8844 34.4962 56.1715C34.4962 54.3318 34.4962 47.6247 34.1053 46.1683C33.5151 44.1216 31.6524 42.1133 29.3528 42.3969C28.7012 42.4812 28.5863 42.8415 28.5403 42.052C28.5403 41.0402 28.6782 27.9248 26.6393 25.8629C24.9989 24.2072 22.5153 23.7549 20.6603 25.3493C18.1844 27.4802 18.0925 31.4815 17.7399 34.5477C17.2238 38.3245 17.2884 42.158 17.9315 45.9153C15.9998 45.6393 14.9803 47.571 14.6737 49.2267C14.2003 51.9705 14.1048 54.7662 14.3901 57.5359C14.4438 58.1568 15.0723 61.3686 14.9957 61.5295C14.827 61.8591 13.7462 61.6982 12.3818 62.7483C9.31568 65.1169 9.31568 71.1801 11.7379 74.4839C12.5044 75.5034 13.6083 76.0783 13.7539 77.4197C14.1602 82.1185 20.4227 85.0237 25.4282 84.8627C25.6351 90.1211 25.9801 95.3719 26.1257 100.63C26.1307 100.646 26.1405 100.659 26.1536 100.668C26.1666 100.678 26.1824 100.683 26.1985 100.683C26.2147 100.683 26.2304 100.678 26.2435 100.668C26.2565 100.659 26.2663 100.646 26.2713 100.63C26.1257 95.3795 26.1564 90.0905 25.6888 84.8551C29.0002 84.6711 32.166 83.2453 33.9826 80.3249C35.5157 77.6803 35.761 74.1926 35.4544 71.2338C35.275 70.4467 35.1546 69.6473 35.0941 68.8422C35.1478 67.8687 35.9296 67.2248 36.2899 66.374ZM31.4991 61.7748C29.5786 64.6705 27.4954 67.455 25.2595 70.1147C25.3362 72.6519 25.4895 81.1527 25.9111 83.2683C25.906 83.2837 25.8963 83.297 25.8832 83.3065C25.8701 83.316 25.8544 83.3211 25.8383 83.3211C25.8221 83.3211 25.8064 83.316 25.7933 83.3065C25.7802 83.297 25.7705 83.2837 25.7654 83.2683C25.3231 80.8401 25.0948 78.3778 25.0832 75.9096C23.6839 75.3958 22.3978 74.6148 21.2966 73.6101C20.2924 72.7362 18.9356 71.6784 18.4604 70.3906C18.4144 70.268 18.606 70.1913 18.675 70.3063C19.3926 71.4572 20.3027 72.4762 21.3655 73.3188C22.4489 74.3241 23.7095 75.1194 25.0832 75.6644C25.0832 74.4379 24.7689 64.9329 24.6693 61.4375C23.5118 60.5254 22.3697 59.6055 21.2812 58.5861C20.438 57.8195 19.3649 56.869 19.0353 55.7039C18.997 55.5812 19.1886 55.4969 19.2423 55.6196C20.3384 57.8578 22.6993 59.6285 24.654 61.1616C24.654 60.809 24.0944 44.2979 23.8874 36.372C23.8954 36.3362 23.9153 36.3043 23.9438 36.2813C23.9724 36.2584 24.0079 36.2459 24.0446 36.2459C24.0812 36.2459 24.1167 36.2584 24.1453 36.2813C24.1739 36.3043 24.1938 36.3362 24.2017 36.372C24.378 41.1551 24.516 45.9306 24.6616 50.7138C25.6594 49.957 26.5135 49.0276 27.1835 47.9696C27.2068 47.9418 27.2392 47.9232 27.2749 47.9171C27.3107 47.9109 27.3474 47.9176 27.3787 47.936C27.4099 47.9544 27.4336 47.9833 27.4456 48.0175C27.4576 48.0517 27.4571 48.089 27.4441 48.1229C26.7185 49.2556 25.7722 50.2306 24.6616 50.9897C24.7459 53.9025 25.1369 66.3817 25.2442 69.7084C27.3445 67.0792 29.2761 64.3427 31.2231 61.5679C31.3381 61.4375 31.6524 61.5909 31.4991 61.7672V61.7748Z" fill="black"/>
<path d="M144.877 48.9201C147.368 45.6317 148.349 41.4005 148.993 37.4222C149.735 32.8409 149.892 28.1841 149.461 23.5633C149.315 22.0302 149.131 20.2902 148.035 19.0791C147.506 18.4889 146.793 18.0903 146.302 17.477C145.429 16.4192 145.881 14.7175 145.865 13.4298C145.865 11.6897 145.505 9.78874 144.225 8.50863C142.945 7.22853 140.875 6.8146 139.189 6.89892C138.422 6.94929 137.677 7.17611 137.012 7.5617C136.348 7.94728 135.781 8.48121 135.356 9.12186C134.939 9.79337 134.607 10.5144 134.368 11.2681C133.601 13.2994 131.593 13.4911 130.604 15.3154C130.234 16.1777 129.991 17.0892 129.883 18.0213C129.646 18.9948 128.044 21.0874 127.906 21.371C118.01 21.2407 113.618 21.2944 113.618 21.2944C113.611 20.8792 113.519 20.4698 113.349 20.0909C112.918 19.2652 112.616 18.3786 112.452 17.4617C111.755 15.7677 110.429 14.9168 108.788 14.2576C107.018 13.5447 105.5 11.958 103.469 12.0807C101.642 12.1342 99.8989 12.8571 98.5705 14.112C97.2598 15.553 97.2904 16.6875 96.6159 17.8373C96.3518 18.2501 96.1113 18.6775 95.8954 19.1174C95.6275 19.9117 95.44 20.7309 95.3358 21.5626C91.7736 21.963 88.186 22.0911 84.6044 21.9459C84.7883 20.9341 85.0873 19.9299 85.3709 18.9564C87.2412 18.5578 87.4175 13.8743 83.3856 13.4298C83.1326 12.8855 83.4776 12.4333 83.8608 12.0807C83.5853 12.0279 83.301 12.0444 83.0334 12.1287C82.7658 12.213 82.5233 12.3624 82.3278 12.5636C82.4137 12.2815 82.4392 11.9844 82.4027 11.6918C82.3662 11.3992 82.2685 11.1175 82.1159 10.8652C81.9633 10.6128 81.7593 10.3954 81.5171 10.2271C81.275 10.0588 81.0001 9.9434 80.7104 9.88839C80.981 10.2508 81.1529 10.6772 81.2093 11.126C81.2657 11.5747 81.2048 12.0305 81.0323 12.4486C80.4574 10.7776 77.077 8.39365 72.7385 8.79225C73.0911 9.19851 73.2904 9.91905 72.6771 10.126C69.6953 11.1225 67.9936 9.46679 68.0243 9.27516C67.1658 12.096 68.3156 12.6402 68.0703 12.7782C67.4221 13.2229 66.9151 13.8442 66.6094 14.5683C66.3037 15.2925 66.2121 16.0892 66.3456 16.8638C66.4688 16.6348 66.6367 16.4328 66.8393 16.2697C67.0419 16.1066 67.2752 15.9858 67.5252 15.9143C67.7753 15.8429 68.0372 15.8222 68.2954 15.8537C68.5536 15.8851 68.8028 15.9679 69.0285 16.0973C68.4861 17.8041 68.1137 19.5603 67.917 21.3404C65.5407 21.2637 56.2274 21.1641 54.0275 21.532C54.1271 19.0638 53.3529 18.8568 53.077 17.638C52.2031 13.744 50.5167 13.4221 47.9412 12.211C46.0862 11.3448 44.4688 9.77341 42.2765 9.91138C40.0843 10.0494 37.8767 10.8389 36.5046 12.4946C35.1325 14.1503 35.4084 15.1085 34.3123 16.8638C33.4819 18.1139 33.0344 19.5791 33.0245 21.0797C27.6588 21.4093 8.94779 20.9264 4.11865 20.8958C4.09832 20.8958 4.07882 20.9038 4.06444 20.9182C4.05007 20.9326 4.04199 20.9521 4.04199 20.9724C4.04199 20.9927 4.05007 21.0122 4.06444 21.0266C4.07882 21.041 4.09832 21.0491 4.11865 21.0491C8.94779 21.1104 28.2337 21.5397 33.0322 21.394C33.1548 24.1765 34.9102 25.1807 36.0983 26.3918C36.7618 27.2061 37.6332 27.8259 38.6202 28.1855C39.6857 28.4998 41.9853 28.2928 42.5065 27.9172C42.6521 29.7799 42.8898 31.6349 43.1964 33.4592C43.1964 33.6355 43.5337 33.5972 43.5107 33.4592C43.319 31.6272 43.1351 29.8029 42.9971 27.9785C43.0431 27.9785 43.8479 28.3694 44.2082 28.5074C45.277 28.8431 46.4105 28.9188 47.5144 28.7281C48.6183 28.5375 49.6608 28.086 50.5551 27.4113C52.2721 25.9702 53.8512 24.0692 54.0581 21.7696C55.2769 21.6086 65.6711 21.7696 67.917 21.7006C67.7929 23.1184 67.8573 24.5464 68.1086 25.9472C68.6222 28.6607 69.864 30.1555 73.39 31.0753C73.1831 32.478 73.505 34.2181 71.7496 34.77C66.4529 35.6591 61.9151 38.0661 57.6608 41.2625C56.9709 41.7761 56.4727 41.8527 56.6567 42.6959C56.081 42.9557 55.5228 43.2528 54.9856 43.5851C55.1466 42.8722 56.4114 34.0954 56.8023 30.4237C56.8489 30.3949 56.8925 30.3615 56.9326 30.3241C57.1856 30.5847 57.5765 30.4007 57.7451 30.1095C58.0833 29.928 58.3659 29.6582 58.563 29.3289C58.7601 28.9995 58.8642 28.6229 58.8643 28.2391C59.4928 27.3653 59.8378 27.3959 59.7074 27.051C59.5771 26.7061 58.8949 26.6064 58.573 26.8134C57.8831 25.7709 56.0664 25.7709 55.0469 26.2538C53.1229 27.166 53.4066 29.3199 52.64 30.9756C50.6394 35.4062 45.6569 39.7677 43.7559 47.0728C42.9894 50.0776 43.4493 53.205 46.2088 55.0217C49.8499 57.4056 55.0393 55.6119 58.3507 53.3813C58.4197 53.5346 58.5117 53.8796 58.8413 53.8489C59.9715 53.7119 61.0549 53.3158 62.007 52.6915C61.7081 55.198 61.5395 62.503 61.5011 65.0326C61.5011 67.1406 61.3938 70.3983 61.7464 70.6819C62.0503 70.8885 62.3913 71.0343 62.7506 71.1112C62.5206 73.4108 63.5171 81.5207 63.5171 81.9959C66.4376 78.9911 66.8055 78.6845 68.7065 76.7989C68.7187 76.7877 68.7349 76.7818 68.7514 76.7825C68.7679 76.7832 68.7835 76.7905 68.7947 76.8027C68.8058 76.8149 68.8117 76.831 68.811 76.8475C68.8103 76.8641 68.803 76.8796 68.7908 76.8908C67.549 78.2399 60.8879 85.3763 60.6503 86.0892C60.4127 86.8021 61.8077 88.1128 61.8537 88.1512C56.741 94.2834 56.58 95.9314 55.2692 103.842C51.8735 105.697 46.9984 106.908 46.8374 106.249C46.6841 105.674 47.282 104.954 47.6806 104.647C47.7879 104.57 47.7726 104.371 47.6116 104.379C46.4833 104.46 45.4245 104.954 44.6375 105.766C44.6404 105.261 44.7521 104.763 44.9651 104.305C45.1781 103.848 45.4873 103.441 45.8716 103.114C46.0095 102.999 45.8716 102.823 45.7029 102.884C44.1704 103.581 42.8773 104.714 41.9853 106.142C41.6642 105.325 41.6398 104.422 41.9163 103.589C41.9623 103.436 41.7783 103.397 41.671 103.482C40.6055 104.363 40.4829 106.249 40.4292 106.287C40.2222 106.433 37.3248 104.555 35.0635 105.022C34.9255 105.022 34.8719 105.252 35.0635 105.283C36.4009 105.559 37.5856 106.328 38.3826 107.437C36.4099 108.682 34.2739 109.647 32.0357 110.304C23.9871 112.849 13.7923 113.447 5.5214 113.094C5.49903 113.094 5.47759 113.103 5.46177 113.119C5.44596 113.135 5.43708 113.156 5.43708 113.178C5.43708 113.201 5.44596 113.222 5.46177 113.238C5.47759 113.254 5.49903 113.263 5.5214 113.263C12.0482 113.607 18.5932 113.279 25.0526 112.282C29.3375 111.553 35.0175 110.112 38.5972 107.598C38.6177 107.584 38.6346 107.565 38.6462 107.543C38.6578 107.521 38.6639 107.496 38.6639 107.472C38.6639 107.447 38.6578 107.422 38.6462 107.4C38.6346 107.378 38.6177 107.359 38.5972 107.345C38.0028 106.421 37.1345 105.705 36.1136 105.298C37.648 105.427 39.1311 105.913 40.4445 106.717C40.4625 106.725 40.482 106.73 40.5019 106.73C40.5218 106.73 40.5415 106.726 40.5597 106.718C40.5779 106.71 40.5942 106.699 40.6074 106.684C40.6206 106.669 40.6304 106.651 40.6362 106.632C40.7649 105.789 41.051 104.978 41.4793 104.241C41.3801 105.01 41.5024 105.792 41.832 106.494C41.8451 106.515 41.8633 106.532 41.8847 106.543C41.9061 106.555 41.9302 106.561 41.9546 106.561C41.979 106.561 42.0031 106.555 42.0245 106.543C42.0459 106.532 42.0641 106.515 42.0772 106.494C42.793 105.246 43.8238 104.207 45.0667 103.482C44.5135 104.223 44.2566 105.144 44.3462 106.065C44.346 106.093 44.3541 106.121 44.3696 106.145C44.3851 106.169 44.4073 106.188 44.4334 106.2C44.4595 106.211 44.4884 106.214 44.5165 106.21C44.5446 106.205 44.5707 106.192 44.5915 106.172C45.2397 105.371 46.1531 104.827 47.167 104.639C46.9125 104.911 46.7279 105.241 46.6291 105.6C46.5303 105.959 46.5202 106.337 46.5998 106.701C46.6105 106.737 46.6349 106.768 46.6678 106.787C46.7007 106.805 46.7395 106.81 46.7761 106.801C49.6429 106.379 52.732 105.674 55.2079 104.08C54.2881 109.606 52.6554 121.396 52.4714 127.582C52.2625 127.665 52.0746 127.793 51.9209 127.958C51.7673 128.122 51.6516 128.318 51.5822 128.532C51.3676 129 50.8157 130.594 46.0095 130.563C45.6493 130.563 45.0744 130.402 44.6528 130.701C43.7329 131.368 44.0779 132.756 44.7831 133.43C45.8256 134.419 47.5886 134.963 48.9224 135.461C50.4554 135.998 52.4867 136.788 54.1271 136.45C56.0894 136.059 56.603 133.108 56.5187 131.085C58.3967 126.217 61.6621 122.039 63.8544 117.287C65.8244 113.033 67.8633 109.231 69.1204 105.022C69.3811 104.149 69.3964 103.344 70.1859 102.784C70.6458 102.462 74.7161 99.9941 76.0575 98.7983C76.5718 99.204 77.1297 99.5511 77.7209 99.8331C78.4874 99.9787 80.787 97.3035 81.3313 96.767C83.3829 98.3132 85.7314 99.4196 88.23 100.017C89.91 100.453 91.6114 100.801 93.3275 101.06C99.6054 102.064 109.908 103.282 111.203 103.359C111.354 103.533 111.543 103.669 111.756 103.756C111.969 103.842 112.2 103.877 112.429 103.857C112.951 103.857 115.932 103.336 116.622 108.058C116.875 109.637 118.776 110.281 119.688 108.112C120.233 106.801 119.98 104.877 119.857 103.512C119.711 101.864 119.566 99.7564 118.638 98.346C117.826 97.1119 115.94 96.882 114.238 97.6562C113.659 97.8773 113.093 98.1332 112.544 98.4227C105.799 95.9774 99.5134 92.3901 93.1742 89.1017C92.1547 88.5728 91.1659 87.9749 90.1617 87.4076C90.5501 86.8966 90.918 86.36 91.2655 85.7979C94.232 84.0579 97.0298 81.628 98.4786 78.6615C98.8677 77.9669 99.1033 77.1969 99.1694 76.4035C99.2356 75.6101 99.1307 74.8117 98.8618 74.0623C98.0953 72.169 96.179 71.0422 94.4159 70.2297C94.3889 63.6814 93.6486 57.1555 92.2083 50.7675C93.7951 51.534 94.393 51.8789 95.0062 51.8713C95.4661 51.8713 95.5274 51.6796 95.7727 51.2734C96.018 50.8671 96.2173 50.5068 96.4396 50.1312C97.8807 51.4267 100.157 51.7256 101.974 52.1932C100.893 55.4132 100.471 58.8176 100.732 62.2041C100.901 65.9914 101.321 69.7633 101.989 73.4951C101.437 74.0317 100.28 73.4951 99.9733 73.909C99.5517 74.4763 100.939 74.9362 101.384 75.0665C101.088 75.7136 100.987 76.4326 101.092 77.1361C101.483 78.056 102.878 78.5082 103.798 78.4009C104.718 78.2936 104.833 77.4811 105.063 76.7835C105.388 75.843 105.528 74.8489 105.477 73.8554C106.864 67.3629 110.843 61.5909 111.418 54.8914C111.724 52.1501 111.19 49.3803 109.885 46.9501C108.957 45.3174 107.432 44.2596 105.937 43.1941C104.077 41.8655 102.168 40.616 100.211 39.4458C100.349 38.8326 100.426 38.7483 100.295 38.6793C99.9886 38.5106 99.6667 38.3573 99.3524 38.204C108.137 34.2257 117.749 33.9574 127.078 32.0181C126.672 35.0842 126.365 39.5761 127.017 41.7147C115.005 48.8051 115.611 61.8285 123.69 65.9754C128.419 68.39 133.655 67.9454 138.652 71.985C142.24 74.9055 144.21 79.2211 144.9 83.7283C146.433 93.6932 142.232 105.827 136.636 114.275C131.041 122.722 122.908 129.605 114.33 135.117C99.4367 144.614 91.2732 145.641 91.4418 145.971C91.4471 145.988 91.4589 146.002 91.4747 146.011C91.4904 146.019 91.5089 146.021 91.5261 146.017C98.4249 144.269 105.009 140.927 111.119 137.378C119.681 132.395 127.752 126.133 133.984 118.391C140.415 110.381 144.953 100.078 145.482 89.6842C145.996 79.7193 142.217 71.4638 132.697 68.4437C127.798 66.9106 120.976 66.466 118.723 59.8049C116.799 54.0942 119.152 46.6895 127.07 41.9677C128.488 47.893 133.762 51.8253 138.353 51.8789C138.353 54.7304 138.591 57.5819 138.698 60.4258C138.698 60.5407 138.898 60.5407 138.882 60.4258C138.798 57.5819 138.882 54.7228 138.652 51.8789C139.837 51.8366 141 51.5522 142.071 51.0434C143.141 50.5345 144.096 49.8119 144.877 48.9201ZM53.0616 24.0309C52.64 25.1577 51.3063 26.4378 50.3864 27.2426C49.5408 27.8837 48.5572 28.3187 47.514 28.513C46.4707 28.7073 45.3966 28.6555 44.3768 28.3618C43.9092 28.1931 42.9511 27.6949 42.9511 27.6949C42.9511 27.6949 42.8821 26.8057 42.8591 26.3611C44.508 24.8419 45.9006 23.0662 46.983 21.1027C46.983 21.0414 46.9217 20.9878 46.8834 21.0414C45.7721 22.8589 44.4008 24.5039 42.8131 25.9242C42.6828 23.7703 42.5985 21.6163 42.5832 19.4547C43.9171 18.4452 44.9225 17.0637 45.473 15.4841C45.5113 15.4074 45.3733 15.3461 45.335 15.4304C44.6179 16.7781 43.6829 17.998 42.5678 19.0408C42.5678 17.891 42.5678 16.7412 42.6215 15.5914C42.6215 15.5731 42.6142 15.5555 42.6013 15.5426C42.5883 15.5297 42.5708 15.5224 42.5525 15.5224C42.5342 15.5224 42.5166 15.5297 42.5037 15.5426C42.4908 15.5555 42.4835 15.5731 42.4835 15.5914C42.3379 17.4157 42.2459 19.2554 42.2229 21.1027C41.3115 20.8591 40.4373 20.4929 39.6243 20.0143C39.54 19.9529 39.471 20.0832 39.5477 20.1446C40.3397 20.7717 41.2573 21.2213 42.2382 21.463C42.2382 23.5326 42.4452 27.6719 42.4452 27.6719C41.7799 28.0188 41.0447 28.2108 40.2947 28.2333C39.5447 28.2559 38.7993 28.1085 38.1143 27.8022C37.0411 27.3576 36.3589 26.3535 35.5311 25.5793C34.6701 24.8969 33.9952 24.0085 33.5688 22.9961C33.2649 22.0233 33.1836 20.9947 33.3309 19.9864C33.4782 18.978 33.8503 18.0156 34.4196 17.1704C34.8944 16.379 35.2825 15.5386 35.5771 14.6639C36.5046 12.2953 39.9923 9.68142 44.0089 10.4403C44.9224 10.7416 45.776 11.2008 46.5308 11.797C48.2172 12.8165 50.2101 13.1691 51.5209 14.7559C52.2874 15.645 52.4254 16.6798 52.824 17.753C53.3345 18.7137 53.621 19.7775 53.6622 20.8647C53.7033 21.9519 53.498 23.0343 53.0616 24.0309ZM118.6 98.8826C119.52 100.761 119.811 105.153 119.619 107.199C119.535 108.073 118.746 109.798 117.588 109.146C117.842 108.744 117.997 108.287 118.04 107.813C118.211 106.542 118.293 105.262 118.286 103.98C118.35 102.572 118.156 101.163 117.711 99.8254C117.495 98.9573 117.051 98.1631 116.423 97.5258C116.883 97.4899 117.343 97.6023 117.735 97.8464C118.126 98.0905 118.43 98.4537 118.6 98.8826ZM115.534 99.8944C115.603 99.4652 116.032 99.0052 116.4 99.2275C116.607 99.3808 116.53 99.7258 116.4 99.9404C116.116 100.554 115.434 100.416 115.519 99.9174L115.534 99.8944ZM115.105 101.236C115.427 101.014 116.047 100.63 116.461 100.738C116.532 100.753 116.595 100.79 116.644 100.844C116.692 100.898 116.722 100.965 116.73 101.037C116.73 101.19 116.63 101.274 116.515 101.351C116.258 101.527 115.983 101.676 115.695 101.795C115.544 101.881 115.366 101.909 115.197 101.872C115.138 101.85 115.085 101.813 115.045 101.765C115.005 101.716 114.978 101.658 114.967 101.596C114.956 101.534 114.961 101.47 114.983 101.411C115.005 101.352 115.041 101.299 115.089 101.259L115.105 101.236ZM115.273 102.355C115.741 102.133 116.676 101.588 117.059 102.025C117.443 102.462 116.814 102.738 116.523 102.899C116.231 103.06 115.534 103.489 115.082 103.252C114.737 103.091 114.675 102.662 115.258 102.378L115.273 102.355ZM96.7232 18.1056C97.2138 17.3391 97.3288 16.4422 97.7887 15.668C98.5013 14.4749 99.5673 13.5329 100.839 12.9726C102.111 12.4123 103.525 12.2613 104.887 12.5406C105.744 12.8957 106.561 13.3402 107.324 13.8667C108.727 14.6792 110.283 14.9398 111.379 16.2506C111.978 17.0518 112.375 17.9851 112.537 18.9718C112.744 19.8609 113.265 20.5048 113.303 21.486C113.432 22.6864 113.148 23.8947 112.498 24.9124C111.932 25.7429 111.224 26.4669 110.406 27.051C109.639 27.5493 106.788 28.6837 105.002 27.9862C104.68 27.8635 103.936 27.4649 103.936 27.4649C103.936 27.4649 103.883 26.6984 103.86 26.3305C105.289 25.0146 106.498 23.4772 107.439 21.7773C107.443 21.7702 107.446 21.7625 107.447 21.7544C107.448 21.7464 107.447 21.7382 107.445 21.7304C107.443 21.7225 107.439 21.7152 107.435 21.7088C107.43 21.7024 107.423 21.697 107.416 21.693C107.409 21.6889 107.401 21.6863 107.393 21.6853C107.385 21.6843 107.377 21.6849 107.369 21.687C107.362 21.6891 107.354 21.6928 107.348 21.6978C107.341 21.7027 107.336 21.7089 107.332 21.716C106.373 23.2732 105.196 24.6852 103.837 25.9089C103.724 24.0641 103.655 22.2116 103.63 20.3515C104.807 19.4708 105.691 18.2552 106.167 16.8638C106.167 16.7872 106.067 16.7258 106.029 16.8102C105.403 17.9486 104.604 18.9829 103.66 19.8763V16.9405C103.66 16.8485 103.522 16.8561 103.515 16.9405C103.392 18.5093 103.315 20.0935 103.285 21.693C102.502 21.4912 101.751 21.1816 101.054 20.7731C100.97 20.7195 100.901 20.8498 100.977 20.9034C101.65 21.4527 102.435 21.8478 103.277 22.0609C103.277 23.8469 103.453 27.4266 103.453 27.4266C101.644 28.1318 100.288 27.9325 99.2911 27.3116C98.5141 26.7253 97.7999 26.06 97.1601 25.3263C96.2892 24.3455 95.7727 23.1008 95.6935 21.7915C95.6143 20.4822 95.9769 19.1842 96.7232 18.1056ZM69.2124 16.1433C73.6813 13.767 82.7494 14.7252 85.2023 18.8721C84.9186 19.8993 84.3284 22.3905 84.3207 22.5131C82.4811 20.3055 79.9055 18.4275 76.9927 18.0903C74.2102 17.776 70.7378 17.7453 68.4076 19.5237C68.6142 18.3831 68.8829 17.2546 69.2124 16.1433ZM71.8263 34.9233C73.6046 34.379 73.298 32.5087 73.5433 31.037C73.5433 30.7457 71.3051 30.4697 69.887 29.1513C67.7867 27.1966 67.8633 22.5208 68.3539 19.7613C70.6918 17.937 74.3328 17.9216 77.146 18.3049C77.9627 18.4173 78.7582 18.6498 79.5069 18.9948C79.2923 20.0066 79.3153 21.7619 79.6296 22.1989C79.8491 22.0046 80.1115 21.8651 80.3953 21.7918C80.6791 21.7185 80.9762 21.7136 81.2623 21.7773C81.4518 21.8289 81.6261 21.9255 81.7703 22.059C81.9144 22.1924 82.0241 22.3588 82.0901 22.5438C82.5731 23.7856 81.4999 24.5445 81.3236 24.7897C81.1939 25.0229 81.1504 25.2943 81.201 25.5563C81.2765 26.3678 81.1558 27.1856 80.849 27.9407C80.5421 28.6958 80.0582 29.366 79.4379 29.8948C79.2321 29.9702 79.0223 30.0342 78.8094 30.0865C78.7021 30.0865 78.8094 32.2941 81.3159 34.4097C82.247 34.3866 83.1786 34.4173 84.1061 34.5017C83.5443 36.1082 82.4342 37.4652 80.971 38.3343C76.5635 41.2701 73.0834 40.6339 71.5963 39.8674C70.8158 39.4284 70.2335 38.7065 69.9697 37.8507C69.7058 36.995 69.7805 36.0706 70.1783 35.2682C70.6918 35.1379 71.7803 34.9309 71.8186 34.9233H71.8263ZM59.3778 27.258C59.3778 27.3116 58.9409 27.6949 58.8489 27.8635C58.8386 27.6015 58.7869 27.3428 58.6956 27.097C59.0022 26.867 59.4622 27.0203 59.3702 27.235L59.3778 27.258ZM48.6464 55.8036C47.1395 55.532 45.7887 54.7066 44.8596 53.4895C43.9305 52.2725 43.4904 50.7519 43.6256 49.2267C44.1098 46.0806 45.2174 43.0627 46.8834 40.3503C49.183 36.7016 52.1188 33.2216 53.1306 30.3854C53.4526 29.4043 53.4219 28.3234 54.0351 27.4496C54.3784 26.9812 54.8531 26.6254 55.3991 26.4275C55.9451 26.2296 56.5376 26.1985 57.1012 26.3381C57.4811 26.3821 57.8325 26.5611 58.0914 26.8425C58.3503 27.1239 58.4995 27.489 58.5117 27.8712C58.5443 28.2255 58.4964 28.5825 58.3716 28.9157C58.2469 29.2488 58.0484 29.5495 57.7911 29.7952C57.8336 29.2516 57.7304 28.7065 57.4922 28.2161C57.4922 28.1471 57.3235 28.2161 57.3542 28.2775C57.553 28.8328 57.5954 29.432 57.4768 30.0098C57.3772 30.2321 57.1396 30.1785 57.0093 30.1401C57.1727 29.5009 57.1514 28.8284 56.9479 28.2008C56.9426 28.1836 56.9319 28.1687 56.9174 28.158C56.9029 28.1474 56.8854 28.1416 56.8674 28.1416C56.8495 28.1416 56.832 28.1474 56.8175 28.158C56.803 28.1687 56.7923 28.1836 56.787 28.2008C56.787 28.6377 57.1702 30.4084 56.3807 30.0251C56.3334 29.4053 56.2515 28.7885 56.1354 28.1778C56.1354 28.0782 55.9821 28.1242 55.9898 28.2161C56.0637 28.7728 56.1047 29.3333 56.1124 29.8948C56.1124 30.2168 55.6525 30.1018 55.5069 29.8948C55.257 29.3867 55.1636 28.8158 55.2386 28.2545C55.2357 28.2316 55.2261 28.2101 55.2109 28.1928C55.1957 28.1754 55.1756 28.1631 55.1533 28.1573C55.131 28.1515 55.1075 28.1526 55.0858 28.1603C55.0641 28.1681 55.0452 28.1822 55.0316 28.2008C54.6407 28.9673 55.2232 30.6614 55.9821 30.5541C56.0594 30.4892 56.1571 30.4536 56.2581 30.4536C56.359 30.4536 56.4567 30.4892 56.534 30.5541C54.84 41.5231 55.3152 46.5899 51.4442 49.3034C51.3906 49.3034 51.4442 49.4414 51.4979 49.3954C53.2804 48.0499 54.4901 46.0819 54.886 43.884C55.457 43.5327 56.0483 43.2153 56.6567 42.9335C56.9479 44.2903 57.4845 51.3577 58.251 53.2357C55.6372 54.9604 51.8122 56.4015 48.6541 55.7729L48.6464 55.8036ZM52.2568 131.928C52.2961 131.885 52.3458 131.852 52.4013 131.834C52.4567 131.816 52.5158 131.813 52.573 131.824C52.6301 131.836 52.6833 131.862 52.7273 131.9C52.7713 131.939 52.8046 131.988 52.824 132.043C52.824 132.043 53.031 133.223 52.7397 133.576C52.6937 133.632 52.6318 133.673 52.562 133.694C52.4923 133.714 52.4179 133.713 52.3488 133.691C52.2031 133.591 51.9655 132.204 52.2644 131.905L52.2568 131.928ZM51.0073 131.284C51.3446 130.97 51.9502 133.269 51.3906 133.537C50.831 133.806 50.785 133.116 50.762 132.771C50.739 132.303 50.6394 131.621 51.015 131.261L51.0073 131.284ZM53.5292 136.297C52.2196 136.242 50.9265 135.984 49.6966 135.53C48.2142 135.055 46.7898 134.415 45.45 133.622C44.6451 133.17 43.7406 131.751 44.6834 131.031C44.9418 131.426 45.2881 131.757 45.6953 131.997C50.3558 134.626 54.1271 135.185 54.7403 135.101C55.0618 135.05 55.3776 134.968 55.6832 134.856C55.5225 135.29 55.2278 135.661 54.8419 135.916C54.456 136.171 53.9989 136.296 53.5369 136.274L53.5292 136.297ZM53.3146 133.338C53.3238 133.278 53.347 133.222 53.3824 133.172C53.4178 133.123 53.4644 133.083 53.5182 133.056C53.572 133.028 53.6317 133.013 53.6922 133.013C53.7528 133.013 53.8125 133.027 53.8665 133.055C53.984 133.127 54.084 133.224 54.1596 133.339C54.2351 133.454 54.2842 133.585 54.3034 133.721C54.3247 133.79 54.3238 133.864 54.301 133.932C54.2782 134.001 54.2346 134.06 54.1762 134.102C54.1179 134.145 54.0478 134.168 53.9757 134.168C53.9037 134.168 53.8333 134.146 53.7745 134.105C53.7745 134.105 53.2762 133.606 53.3222 133.315L53.3146 133.338ZM56.3194 130.847C55.853 131.068 55.3301 131.142 54.8206 131.059C54.311 130.975 53.8391 130.738 53.4679 130.379C53.1428 129.927 52.9395 129.399 52.8777 128.846C54.0359 129.533 55.3644 129.878 56.7103 129.843C56.5953 130.142 56.4574 130.479 56.327 130.824L56.3194 130.847ZM69.4577 103.099C69.1894 103.658 66.6752 111.147 63.9694 116.329C62.6586 118.835 61.4858 121.334 60.0141 123.741C58.8186 125.618 57.7532 127.575 56.8253 129.597C55.4318 129.597 54.0619 129.238 52.847 128.555C52.7703 128.08 52.7397 127.689 52.7167 127.627C53.0616 124.224 53.2533 120.805 53.6365 117.402C54.0811 113.408 55.8825 99.9404 57.0246 96.3377C57.9751 93.2716 59.9604 90.6654 61.9687 88.2202C65.0962 90.696 75.5976 98.553 75.8429 98.6986C74.4555 99.8714 69.864 102.24 69.4577 103.099ZM112.537 98.6986C112.916 99.031 113.187 99.4691 113.315 99.9567C113.444 100.444 113.424 100.959 113.257 101.435C113.02 102.125 111.571 102.968 111.188 103.213L110.919 103.175C112.008 101.803 112 100.178 111.908 98.4917C112.138 98.5683 112.33 98.6296 112.537 98.6986ZM95.6347 90.765C99.6514 92.9113 107.409 96.8973 111.694 98.4303C111.763 100.124 111.786 101.757 110.689 103.16C98.3406 101.404 87.4175 101.182 81.4769 96.6903C83.3549 94.9043 89.1422 89.2166 90.0544 87.5763C91.9094 88.6188 93.7414 89.7532 95.6347 90.765ZM94.3853 70.4596C96.1713 71.3488 98.0876 72.5293 98.7545 74.5146C99.3217 76.201 98.6779 78.0023 97.7887 79.4434C96.1905 81.8747 94.0459 83.8986 91.5261 85.3533C92.6006 83.5302 93.2776 81.5006 93.5127 79.3976C93.7478 77.2945 93.5358 75.1655 92.8906 73.1502C93.3505 72.9662 93.7951 72.7669 94.2396 72.5369C94.2711 72.5414 94.303 72.5335 94.3287 72.5149C94.3545 72.4964 94.372 72.4685 94.3776 72.4373C94.3853 72.3606 94.393 70.7586 94.3853 70.4596ZM104.687 42.5809C106.159 43.5851 107.899 44.6276 109.034 46.0303C110.866 48.3299 111.379 51.557 111.211 54.3855C110.797 61.2383 106.504 67.1099 105.247 73.7634C105.322 74.451 105.275 75.1463 105.109 75.8177C104.994 76.5127 104.758 77.182 104.412 77.7953C103.752 78.6615 101.384 77.9716 101.192 76.9138C101.192 76.2707 101.314 75.6333 101.552 75.0358C101.555 75.0186 101.553 75.0009 101.544 74.9856C101.536 74.9702 101.522 74.9582 101.506 74.9515C101.048 74.8724 100.619 74.6712 100.265 74.3689C100.226 74.3084 100.205 74.2378 100.205 74.1658C100.205 74.0938 100.226 74.0233 100.265 73.9627C100.403 73.84 101.675 74.2233 102.15 73.6024C102.158 73.5911 102.162 73.5777 102.162 73.5641C102.162 73.5504 102.158 73.5371 102.15 73.5258C101.514 66.3894 99.7357 59.2376 102.15 52.2239C102.155 52.2134 102.158 52.202 102.158 52.1903C102.159 52.1787 102.157 52.1671 102.152 52.1563C102.148 52.1455 102.142 52.1357 102.133 52.1276C102.125 52.1194 102.115 52.1131 102.104 52.1089C100.326 51.1661 98.0876 51.3884 96.5163 50.0009C96.7309 49.61 99.8047 41.1552 100.134 39.6604C101.683 40.5726 103.193 41.5614 104.687 42.5809ZM95.3281 51.4267C94.8299 52.0782 93.1129 50.8594 92.515 50.5835C91.9171 50.3075 91.1045 49.9319 90.3917 49.6407C90.269 49.587 90.177 49.794 90.2997 49.8553C90.8516 50.1389 91.4188 50.4072 91.986 50.6755C93.415 57.8233 94.1365 65.0944 94.14 72.3836C90.9342 73.7633 87.4732 74.4503 83.9835 74.3996C80.3236 74.5686 76.6576 74.2464 73.0834 73.4414C69.795 72.5983 66.4759 71.962 63.2105 71.0192C62.329 70.7663 61.7464 70.6359 61.6774 69.5475C61.6084 68.459 61.8691 53.0977 62.8656 48.4525C62.8656 48.3452 62.7199 48.2992 62.6969 48.4066C62.4056 49.7556 62.1833 51.1201 62.0147 52.4922C61.2482 52.9597 59.6155 54.0252 58.7186 53.5116C57.8218 52.9981 57.8371 50.4455 57.7605 49.771C57.5995 48.4219 56.81 42.3433 56.8943 42.1057C59.0158 40.321 61.3297 38.7784 63.7931 37.5065C65.7746 36.5678 67.8475 35.8358 69.979 35.3219C68.7908 38.0661 70.6688 41.0325 75.3447 40.7796C77.298 40.5536 79.165 39.8478 80.7794 38.7253C82.4351 37.7058 83.8455 36.4257 84.2441 34.4787C89.9931 34.9463 92.8446 36.234 95.1058 36.8243C96.7798 37.3674 98.4226 38.002 100.027 38.7253C100.027 38.7253 97.0528 49.1578 95.3128 51.419L95.3281 51.4267ZM127.292 30.6614C127.392 30.9297 127.223 31.3053 127.131 31.6502C117.703 33.3596 107.861 33.9498 99.0535 37.9971C93.7414 35.5748 87.1109 33.9728 81.4233 34.1644C80.126 33.1983 79.2482 31.7719 78.9704 30.1785C80.994 29.7339 82.2434 28.0398 83.2859 26.2845C83.9349 25.0151 84.3602 23.6434 84.543 22.2295C86.2064 22.2679 87.8774 22.2295 89.5408 22.2295C91.4775 22.31 93.4172 22.1867 95.3281 21.8616C95.3314 22.5485 95.4776 23.2272 95.7574 23.8546C96.2164 24.6734 96.834 25.3926 97.5741 25.9702C98.2144 26.7325 98.995 27.3648 99.8736 27.8329C101.085 28.2555 102.408 28.2256 103.599 27.7486C103.599 27.7486 103.929 30.9603 104.197 32.5317C104.197 32.708 104.534 32.6697 104.511 32.5317C104.343 30.9526 104.074 27.8022 104.074 27.8022C104.074 27.8022 104.726 28.0935 105.017 28.2085C106.857 28.975 110.069 27.7332 110.689 27.2656C112.222 26.0928 113.495 24.6288 113.656 22.6128V21.6163C113.656 21.6163 125.476 21.6163 127.768 21.7236C126.702 22.9961 125.752 26.4991 127.292 30.6614ZM143.696 29.3813C142.163 32.0794 140.63 34.8236 138.821 37.3762C138.867 41.845 138.99 46.3446 138.752 50.7981C138.752 50.8428 138.734 50.8857 138.703 50.9174C138.671 50.949 138.628 50.9668 138.583 50.9668C138.539 50.9668 138.496 50.949 138.464 50.9174C138.433 50.8857 138.415 50.8428 138.415 50.7981V46.2679C136.983 44.7344 135.329 43.4244 133.509 42.3816C133.379 42.3126 133.509 42.1057 133.632 42.1747C135.462 43.0288 137.092 44.259 138.415 45.785C138.415 40.036 138.553 34.2871 138.637 28.5534C137.503 27.1597 136.107 26.001 134.529 25.1423C134.375 25.0734 134.529 24.8511 134.666 24.92C136.273 25.5608 137.656 26.6589 138.645 28.0782C138.752 20.6122 138.645 20.8344 138.806 20.8651C138.844 20.8651 138.867 20.8651 138.875 20.9341C139.043 25.9472 138.821 30.9603 138.875 35.9734V36.74C140.408 34.2181 142.071 31.8035 143.543 29.2586C143.564 29.2521 143.587 29.2514 143.609 29.2568C143.63 29.2622 143.65 29.2733 143.666 29.2891C143.681 29.3049 143.693 29.3246 143.698 29.3463C143.703 29.3679 143.703 29.3906 143.696 29.4119V29.3813Z" fill="black"/>
</svg>
