<svg width="154" height="154" viewBox="0 0 154 154" fill="none" xmlns="http://www.w3.org/2000/svg">
<path d="M53.7502 64.8116C53.6595 64.8712 53.5958 64.964 53.5728 65.0701C53.5499 65.1762 53.5695 65.2871 53.6276 65.3788C53.6584 65.4219 53.6979 65.4581 53.7434 65.4852C53.789 65.5122 53.8396 65.5295 53.8922 65.536C53.9448 65.5425 53.9982 65.538 54.0489 65.5228C54.0997 65.5077 54.1468 65.4821 54.1871 65.4478C54.2573 65.3862 54.3045 65.3027 54.3212 65.2109C54.3379 65.119 54.3231 65.0243 54.2791 64.9419C54.2547 64.8968 54.2212 64.8573 54.1806 64.8259C54.14 64.7945 54.0933 64.772 54.0435 64.7597C53.9937 64.7474 53.9419 64.7457 53.8914 64.7546C53.8409 64.7636 53.7928 64.783 53.7502 64.8116ZM96.861 20.436C98.3276 21.3559 99.7841 22.2885 101.23 23.2339C100.879 23.5512 100.543 23.8864 100.226 24.2381C99.7585 23.9238 99.291 23.6172 98.8157 23.3182C98.7988 23.3118 98.7801 23.3115 98.763 23.3175C98.7459 23.3235 98.7314 23.3354 98.7222 23.351C98.7131 23.3666 98.7097 23.385 98.7128 23.4028C98.7158 23.4207 98.7251 23.4369 98.739 23.4486L100.103 24.3684C99.6359 24.8973 99.199 25.4569 98.7927 26.0165C98.7467 26.0855 98.854 26.1468 98.9 26.0855C99.3234 25.5252 99.7763 24.9879 100.257 24.4757C100.962 24.9663 101.652 25.4646 102.342 25.9628C101.832 26.5775 101.363 27.2254 100.939 27.9022L99.7739 26.8904C99.7049 26.8367 99.6129 26.8904 99.6742 26.9824C100.057 27.3426 100.441 27.7029 100.832 28.0555C100.457 28.6697 100.116 29.3044 99.8122 29.9566C99.8122 30.0256 99.8812 30.0869 99.9195 30.0179C100.227 29.3884 100.57 28.7767 100.947 28.1858C101.675 28.8681 102.411 29.5503 103.154 30.2172C102.454 31.3071 101.857 32.4592 101.368 33.659C101.368 33.7127 101.437 33.7357 101.46 33.659C101.951 32.4796 102.555 31.3501 103.262 30.2862C103.967 30.9224 104.687 31.551 105.408 32.1642C104.345 33.3646 103.457 34.7091 102.771 36.158C102.771 36.204 102.817 36.2499 102.848 36.204C103.631 34.8226 104.548 33.521 105.584 32.3175L106.351 32.9691C106.435 33.0381 106.558 32.9231 106.474 32.8388L105.707 32.1259C105.914 31.8959 107.24 30.5928 107.738 30.2172L109.072 31.344C109.141 31.4054 109.241 31.3057 109.172 31.2444C108.758 30.8534 108.336 30.4778 107.907 30.0869C108.49 29.6346 109.103 29.213 109.724 28.8144L110.36 29.2283C110.421 29.2667 110.483 29.167 110.421 29.121L109.862 28.7224C110.276 28.4618 110.705 28.2088 111.134 27.9559C111.211 27.9175 111.134 27.8179 111.073 27.8562C110.591 28.0841 110.122 28.34 109.67 28.6228C108.712 27.9482 107.754 27.2813 106.78 26.6297C107.589 26.0792 108.482 25.6649 109.425 25.4033C109.445 25.3972 109.462 25.3832 109.472 25.3646C109.482 25.3459 109.485 25.3239 109.478 25.3036C109.472 25.2833 109.458 25.2662 109.44 25.2561C109.421 25.2461 109.399 25.2439 109.379 25.25C108.375 25.4858 107.426 25.9098 106.581 26.4994C105.661 25.8785 104.726 25.2653 103.791 24.6597C104.296 24.1895 104.914 23.857 105.584 23.6939C105.653 23.6939 105.638 23.5559 105.584 23.5635C104.849 23.6872 104.168 24.0291 103.63 24.5447L101.483 23.1879L101.675 22.9963C101.736 22.9426 101.675 22.8583 101.591 22.912C101.508 22.9742 101.429 23.0408 101.353 23.1113C99.8735 22.1761 98.3788 21.2562 96.884 20.3517C96.861 20.3057 96.7997 20.3977 96.861 20.436ZM101.062 28.0019C101.414 27.4576 102.395 26.1928 102.495 26.0702C103.323 26.6834 104.136 27.3043 104.94 27.9329C104.344 28.56 103.803 29.2371 103.323 29.9566C102.579 29.2897 101.821 28.6458 101.062 28.0019ZM105.584 31.9879C104.879 31.3287 104.166 30.6848 103.438 30.0486C103.931 29.3372 104.485 28.6703 105.094 28.0555C105.937 28.7224 106.772 29.397 107.6 30.0869C106.879 30.6663 106.205 31.302 105.584 31.9879ZM109.57 28.6994C108.943 29.0787 108.341 29.4987 107.769 29.9566C106.956 29.2437 106.129 28.5538 105.278 27.8792C105.696 27.478 106.145 27.109 106.619 26.7754L109.57 28.6994ZM106.42 26.6374C105.958 26.972 105.525 27.3437 105.124 27.7489C104.312 27.1127 103.484 26.4918 102.648 25.8939C102.959 25.5142 103.294 25.1557 103.653 24.8207L106.42 26.6374ZM103.484 24.7057C103.134 25.0473 102.804 25.4081 102.495 25.7865C101.798 25.2883 101.092 24.8054 100.387 24.3378C100.709 23.9928 101.039 23.6632 101.368 23.3259L103.484 24.7057Z" fill="black"/>
<path d="M98.5092 135.587C97.413 135.326 95.7803 135.786 94.8068 135.641C94.3852 135.62 93.9831 135.457 93.6658 135.179C93.3485 134.9 93.1346 134.523 93.059 134.108C92.871 131.694 92.45 129.304 91.8019 126.971L91.4723 127.048C91.3956 126.764 91.5259 124.901 89.1726 113.204C88.2758 108.689 87.5322 104.105 84.5043 100.448C84.8799 99.8505 85.2709 99.2526 85.6005 98.647C85.7615 98.3711 86.0758 98.0108 86.0758 97.6659C86.0758 97.1063 84.6193 94.4464 84.1671 93.7871C83.2472 92.4456 82.9252 92.461 82.0284 93.2429L74.8918 85.792C75.6998 83.7074 76.2382 81.5281 76.4939 79.307C80.7022 79.4603 141.819 78.9314 143.996 78.8931C145.184 78.8931 146.595 78.8931 147.614 78.1265C147.802 77.9895 147.953 77.8075 148.052 77.5972C148.151 77.3869 148.195 77.1551 148.182 76.923C148.274 76.0491 148.557 28.707 148.511 28.0938C148.435 26.967 148.205 25.7941 147.039 25.4799C144.019 24.7133 116.431 25.0659 114.292 25.1196C113.587 24.8206 112.959 24.537 112.483 24.2917C103.132 19.4011 102.327 19.0638 99.797 17.6227C98.2179 16.7182 96.5622 15.2234 94.7224 14.9321C94.0679 14.775 93.3778 14.8836 92.8031 15.2341C92.2284 15.5847 91.8161 16.1486 91.6562 16.8025C91.2576 18.6116 91.9322 20.8652 92.3845 22.5976C92.5684 23.3028 92.8137 24.1307 93.151 25.0276C83.9524 25.5335 78.8472 25.0966 74.2172 25.3419C74.2146 24.6763 74.0232 24.025 73.6653 23.4638C71.634 20.1983 66.5441 22.7739 66.5364 22.7663C65.9859 22.1865 65.3102 21.7401 64.561 21.4612C63.8117 21.1822 63.0087 21.078 62.2131 21.1565C60.4153 21.3121 58.6858 21.9185 57.1845 22.9196C54.5782 24.8666 53.3517 28.6304 54.8005 31.6429C54.8005 31.6429 53.3134 33.8199 53.1448 35.1154C52.7845 37.8213 54.9768 40.075 57.8437 38.5342C57.6904 38.9328 58.0124 39.1014 57.9204 39.3774C57.8744 39.5154 57.7211 39.5844 57.6444 39.707C57.2688 40.2896 58.7866 40.9105 57.5448 41.7537C57.2488 41.8983 56.9874 42.1049 56.7782 42.3593C56.7124 42.449 56.6725 42.5551 56.6631 42.666C56.6536 42.7769 56.6749 42.8883 56.7246 42.9879C56.8702 43.3251 57.1002 43.2101 57.2918 43.2715C57.8974 43.4478 57.2918 44.5823 57.7824 44.9502C57.9894 45.1035 58.319 45.0575 58.4646 45.2645C58.6103 45.4715 58.4186 45.8088 58.1963 45.9851C57.7211 46.3683 57.5678 46.5906 57.9587 47.0352L59.4535 48.7063C59.2312 49.0973 58.5029 48.7983 58.3036 49.3196C58.2664 49.4335 58.2618 49.5556 58.2902 49.6721C58.3187 49.7886 58.3791 49.8948 58.4646 49.9788C58.7848 50.242 59.1932 50.3735 59.6068 50.3467V49.9788L60.5573 49.4345C61.3239 49.8715 60.404 51.2743 61.1322 51.6192C61.1322 51.8338 60.8179 51.8262 60.6263 51.9335C60.2584 52.1481 60.4883 52.8917 61.2855 52.7C61.6103 52.6191 61.8953 52.4247 62.0893 52.152C62.2833 51.8793 62.3734 51.5462 62.3434 51.2129C62.8953 51.2743 62.788 52.1175 63.2249 52.5084V52.6234C62.5958 52.5834 61.9665 52.6993 61.3928 52.9607C60.4046 53.2399 59.4322 53.5725 58.48 53.9572C53.3517 56.0269 53.2214 57.0234 49.2814 61.5767C48.4436 62.5434 47.6752 63.568 46.9817 64.6429C46.9357 64.7195 46.8591 64.6429 48.7064 66.2373C48.1361 66.7945 47.6436 67.4263 47.2423 68.1154C39.0939 67.9697 7.81866 67.8241 6.85281 67.8471C5.17407 67.8471 4.3002 68.3223 4.12389 70.0854C3.95525 71.7258 3.74062 90.1077 3.8786 94.4464C3.94759 96.6387 4.08557 98.8387 4.12389 101.031C4.16222 103.223 3.93992 106.397 5.22772 107.646C6.22424 108.589 7.9873 108.367 9.22912 108.413C13.2075 108.413 17.1476 108.413 21.1183 108.214C20.6255 109.464 20.2957 110.773 20.1371 112.108C19.0915 115.761 19.0201 119.625 19.9302 123.315C17.1859 122.211 11.7894 120.325 11.4061 120.938C12.5232 124.564 14.5375 127.85 17.2626 130.49C13.6317 129.917 9.91309 130.377 6.53086 131.816C10.7775 134.414 17.3775 138.753 22.5211 136.461C16.1894 138.147 11.5901 134.445 6.73016 131.862C10.1804 130.451 13.96 130.047 17.6305 130.697C18.0644 130.875 18.4846 131.085 18.8876 131.325C18.9336 131.325 18.995 131.241 18.811 131.118C14.9782 129.064 13.1309 124.71 11.5901 120.931C16.2814 121.697 21.0876 123.568 24.5371 126.572C23.5406 125.108 20.0451 123.407 20.1525 123.361C19.1866 118.562 19.7998 115.649 20.2138 112.744C20.6047 114.545 22.4214 113.825 22.4214 113.825C23.3285 112.296 24.6245 111.034 26.1775 110.168L27.2354 111.05C29.2824 114.415 30.7588 118.096 31.6047 121.943C31.0951 122.73 30.6662 123.568 30.3246 124.441C30.2403 124.832 30.4396 124.625 30.4779 124.549C31.8577 121.659 34.4563 118.163 36.3113 117.09C38.0848 118.179 39.9681 119.079 41.9301 119.773C41.2096 122.901 39.1859 128.749 39.1859 128.749C39.1859 128.749 39.3929 128.903 44.1608 128.083C43.3716 129.555 42.2811 130.845 40.9604 131.869C39.6397 132.892 38.1184 133.627 36.4953 134.023C36.3803 134.023 36.3803 134.207 36.4953 134.2C39.143 134.198 41.7872 134.393 44.4061 134.782C44.4751 134.782 44.4981 134.667 44.4061 134.66C42.0223 134.218 39.6018 134.005 37.1775 134.023C40.1134 133.065 43.6242 131.141 44.4521 127.975C43.1336 127.477 41.1253 128.236 39.4695 128.451C40.7648 125.724 41.6483 122.82 42.0911 119.834C43.2723 120.212 44.495 120.443 45.7322 120.524C47.9827 120.792 50.255 120.249 52.1406 118.991C53.9853 117.762 55.5478 116.155 56.7246 114.277C57.5908 114.545 58.8786 115.411 59.9517 114.975C60.9086 114.425 61.6313 113.544 61.9831 112.499C62.2725 111.851 62.3107 111.119 62.0904 110.444C63.5162 108.727 64.2981 104.641 64.5587 103.461C64.9106 102.065 65.5655 100.764 66.477 99.6497C67.3885 98.5356 68.5341 97.6358 69.8326 97.0143C70.7294 96.7843 70.2235 97.3592 70.2235 97.3592C68.738 98.0339 67.4501 99.0779 66.4826 100.392C65.5151 101.705 64.9003 103.245 64.6967 104.864L69.5183 108.98C69.0737 109.678 68.5524 110.207 68.9817 111.149C69.6042 112.278 70.5105 113.224 71.611 113.894C71.9176 114.101 72.2165 114.361 72.5921 114.254C72.9678 114.147 74.0409 112.928 74.1866 112.775C74.7526 113.377 75.3823 113.917 76.0646 114.384C76.4632 114.706 77.1071 115.059 77.2681 115.496C77.3593 115.9 77.4233 116.31 77.4597 116.722C78.3489 121.13 81.5225 126.687 84.19 130.398C83.4925 130.819 83.2089 131.034 83.2089 131.034L90.1078 141.819C96.7308 140.884 99.4444 137.795 99.6667 136.936C99.7357 136.591 99.2451 135.74 98.5092 135.587ZM147.944 76.6701C147.852 77.6742 147.614 78.0422 146.495 78.3641C144.809 78.8471 79.7057 79.077 76.5629 79.0234C76.8465 77.061 77.0688 75.4819 77.2144 73.6115C77.912 74.1251 78.5406 74.7613 79.1998 75.3209C79.2091 75.3309 79.2204 75.3389 79.2329 75.3443C79.2455 75.3497 79.259 75.3526 79.2726 75.3526C79.2863 75.3526 79.2998 75.3497 79.3123 75.3443C79.3249 75.3389 79.3361 75.3309 79.3455 75.3209C79.6904 75.0066 80.02 74.6847 80.3496 74.3551C81.7847 75.4241 83.3676 76.2788 85.0486 76.8924C85.7202 77.143 86.4352 77.2565 87.1514 77.2263C87.8677 77.196 88.5706 77.0225 89.2186 76.716C92.3194 75.173 94.7859 72.5981 96.1942 69.4338C103.208 69.2882 110.23 69.2958 117.236 68.8742C117.252 68.8754 117.269 68.873 117.284 68.8672C117.3 68.8615 117.314 68.8525 117.325 68.8408C117.337 68.8292 117.346 68.8152 117.352 68.7998C117.357 68.7844 117.36 68.768 117.359 68.7516C117.228 65.3405 117.259 61.7607 116.983 58.3495C127.408 58.0122 137.764 57.652 148.189 57.4373C148.189 61.7453 148.143 74.5774 147.944 76.6701ZM72.9678 51.1133C72.9081 51.107 72.8478 51.1128 72.7905 51.1303C72.7332 51.1479 72.68 51.1769 72.6342 51.2156C72.5883 51.2543 72.5508 51.3018 72.5238 51.3554C72.4968 51.4089 72.481 51.4674 72.4772 51.5272C72.4772 51.8108 72.4312 52.0868 72.3928 52.4854C71.9385 53.0051 71.521 53.5558 71.1434 54.1335C70.6925 55.0719 70.3282 56.0495 70.0549 57.054C69.8939 56.6248 69.135 54.3328 69.112 54.3021C68.1935 53.3536 67.1987 52.4819 66.1378 51.6959C66.1934 51.6427 66.2354 51.577 66.2604 51.5042C66.6997 50.6033 66.8496 49.5885 66.6897 48.599C66.5364 47.9398 66.1071 47.1119 66.82 46.6366C66.8822 46.5853 66.962 46.5605 67.0423 46.5676C67.4869 46.629 67.3183 47.4952 67.3183 47.7865C67.3183 49.5419 67.2646 49.9635 67.5482 50.2854C67.6035 50.3589 67.6799 50.4139 67.7671 50.4429C67.8544 50.4719 67.9485 50.4736 68.0368 50.4478C68.125 50.422 68.2033 50.3699 68.2612 50.2984C68.3191 50.2269 68.3539 50.1395 68.3608 50.0478C68.5218 49.3272 68.0618 48.576 68.1921 47.8478C68.2995 47.2499 68.7977 46.629 68.4911 46.1C68.4049 45.9944 68.328 45.8816 68.2611 45.7628C68.0312 45.2185 68.859 44.6973 68.7211 44.13C68.6291 43.7237 68.0848 43.5091 68.0925 43.0952C68.1227 42.9191 68.1906 42.7518 68.2918 42.6046C68.5132 42.1992 68.5681 41.7236 68.4451 41.2784C68.3682 41.0826 68.3241 40.8754 68.3148 40.6652C68.3148 40.4582 68.5064 40.2436 68.7134 40.2896C68.8116 40.327 68.9025 40.3815 68.9817 40.4506C69.0581 40.4887 69.1421 40.5093 69.2275 40.5109C69.3129 40.5125 69.3976 40.4951 69.4755 40.4598C69.5533 40.4246 69.6223 40.3724 69.6774 40.3072C69.7326 40.242 69.7725 40.1652 69.7942 40.0826C69.7988 39.8538 69.7651 39.6258 69.6946 39.4081C69.6455 39.0917 69.7183 38.7684 69.8982 38.5036C70.0781 38.2388 70.3518 38.052 70.664 37.981C70.9762 37.91 71.3037 37.96 71.5805 38.121C71.8572 38.282 72.0626 38.542 72.1552 38.8485C72.2625 39.2088 72.2089 39.615 72.4235 39.9217C72.6381 40.2283 72.8988 40.2896 73.1287 40.4889C73.5478 41.0315 73.7377 41.7167 73.6576 42.3976C73.6576 43.0722 73.9183 43.8847 74.5698 44.061C74.9148 43.6624 74.5698 43.0568 74.5698 42.5279C74.6379 41.9429 74.9092 41.4003 75.3364 40.9948C75.4514 40.8568 75.5893 40.6959 75.7963 40.7342C75.8619 40.7513 75.9229 40.7829 75.9746 40.8266C76.0263 40.8704 76.0676 40.9253 76.0953 40.9872C76.1644 41.2562 76.1644 41.5383 76.0953 41.8074C75.988 43.0952 77.0918 43.9844 76.9921 45.2722C76.9578 45.8408 76.8229 46.3988 76.5935 46.9203C75.4437 49.1509 75.0604 50.0401 74.4012 50.6227C74.0062 50.9678 73.4914 51.144 72.9678 51.1133ZM74.1789 53.7196C73.627 54.8157 73.2667 56.0192 72.6458 57.0924C72.2549 56.1189 71.3043 54.1871 71.2967 54.1795C71.542 53.9112 72.3852 52.8763 72.7378 52.4471C72.9728 52.4265 73.2085 52.4788 73.4128 52.5967C73.6171 52.7146 73.7802 52.8925 73.8799 53.1063C73.9366 53.329 74.0383 53.5378 74.1789 53.7196ZM68.9894 54.3788C68.3899 55.3428 67.8522 56.3439 67.3796 57.376C66.682 56.6094 64.3134 53.5432 63.5469 52.6157C63.8151 52.6694 63.9378 52.4317 64.0451 52.2708C64.231 51.9978 64.5 51.7922 64.8121 51.6845C65.1243 51.5767 65.4629 51.5727 65.7775 51.6729H65.8848C66.5671 52.3934 68.5064 53.9419 68.9894 54.3788ZM76.7928 53.0143C76.9421 53.0851 77.1054 53.121 77.2706 53.1193C77.4357 53.1175 77.5983 53.0783 77.7461 53.0044C77.8938 52.9305 78.0228 52.824 78.1232 52.693C78.2237 52.5619 78.293 52.4096 78.3259 52.2478C78.3539 51.8083 78.488 51.3822 78.7169 51.006C79.6291 49.8868 82.4117 51.4429 81.6758 47.6255C81.6044 47.4224 81.6001 47.2019 81.6636 46.9962C81.7271 46.7906 81.855 46.6108 82.0284 46.4833C82.7949 45.6708 83.5615 44.498 83.1245 43.4171C82.9921 43.1974 82.8914 42.9599 82.8256 42.7119C82.7643 42.1446 83.3622 41.6617 83.2778 41.1021C82.776 40.8672 82.3758 40.4588 82.151 39.9523C81.9747 39.3391 82.3427 38.7105 82.496 38.0896C82.6493 37.4687 82.3657 36.5565 81.7294 36.6332C81.7291 36.7442 81.6978 36.8529 81.6391 36.9472C81.5804 37.0415 81.4967 37.1175 81.3972 37.1669C81.2977 37.2162 81.1865 37.2369 81.0759 37.2266C80.9653 37.2162 80.8598 37.1753 80.7712 37.1084C80.2193 36.6945 80.6486 36.1502 80.7712 35.6826C80.7905 35.3145 80.704 34.9486 80.522 34.628C80.34 34.3075 80.07 34.0457 79.7441 33.8736C79.0843 33.542 78.4602 33.1439 77.8813 32.6854C77.9533 32.5657 78.0501 32.4627 78.1651 32.3834C78.2801 32.3041 78.4107 32.2503 78.5482 32.2255C78.6402 31.7656 78.0806 31.4589 77.6207 31.367C76.0349 31.0323 74.3852 31.1791 72.8834 31.7886C72.5886 31.9508 72.2534 32.0253 71.9176 32.0032C71.588 31.9342 71.312 31.5279 71.519 31.2366C71.6033 31.114 71.7796 31.022 71.8486 30.907C74.3169 30.907 73.8876 30.7001 83.6305 30.7767C87.5629 30.7767 91.4876 30.8764 95.42 30.884C95.9517 32.229 96.5503 33.5466 97.2137 34.8318C98.8506 37.7813 100.917 40.4707 103.346 42.8115C101.046 42.5356 93.6953 42.6812 91.9169 42.6276C91.8864 42.6276 91.8571 42.6397 91.8356 42.6612C91.814 42.6828 91.8019 42.7121 91.8019 42.7426C91.8632 47.2192 91.9552 51.7955 92.2465 56.2645C92.1359 56.4432 92.0704 56.6462 92.0557 56.8558C92.041 57.0655 92.0775 57.2756 92.1622 57.468L85.9608 63.1788C84.7113 61.6457 79.928 56.0422 75.0681 53.5356C75.6507 53.1753 75.7503 52.5314 76.7545 53.0143H76.7928ZM104.389 46.1154C101.782 48.369 96.9761 52.8304 95.742 54.2945C95.5641 54.1849 95.3651 54.114 95.158 54.0865C94.9509 54.059 94.7403 54.0754 94.54 54.1347C94.3396 54.194 94.154 54.2949 93.9953 54.4307C93.8365 54.5665 93.7082 54.7343 93.6186 54.923C93.3656 54.9908 93.1375 55.1303 92.9621 55.3249C92.7866 55.5194 92.6712 55.7605 92.6298 56.0192C92.5348 56.0479 92.4463 56.0948 92.3691 56.1572C92.1008 51.9871 91.8939 43.1258 91.9552 42.8959C91.9552 42.9725 101.537 42.8959 103.453 43.0568C103.768 43.3558 103.944 43.5244 104.266 43.8234C104.251 44.5593 104.35 45.3795 104.35 46.1307L104.389 46.1154ZM105.676 45.0345C105.416 45.2338 105.056 45.5328 104.626 45.9084C104.626 45.1955 104.565 44.5363 104.534 43.969C104.826 44.2297 105.117 44.4826 105.416 44.7356C105.462 44.8506 105.546 44.9502 105.638 45.0499L105.676 45.0345ZM104.841 42.5739C103.921 38.4882 106.504 35.3607 109.532 32.2868C110.726 30.9228 112.104 29.7309 113.626 28.7454C115.251 27.8255 117.543 27.0896 119.413 27.5879C120.245 27.8583 120.994 28.338 121.587 28.981C122.18 29.6239 122.598 30.4086 122.801 31.2596C123.828 34.8778 121.674 38.4422 119.313 41.0178C116.715 43.8464 112.529 46.7976 108.49 46.1384C107.607 45.9458 106.795 45.5121 106.144 44.8855C105.493 44.259 105.029 43.464 104.803 42.5892L104.841 42.5739ZM104.787 58.5718C104.789 58.605 104.804 58.6362 104.828 58.659C104.852 58.6818 104.884 58.6945 104.918 58.6945C108.893 58.5871 112.874 58.467 116.86 58.3342C116.86 60.9634 117.274 67.5941 117.152 68.1843C117.029 68.7746 116.102 68.6903 115.488 68.7209C114.231 68.7823 101.614 69.1042 96.3245 69.1962C97.9113 65.4401 97.4744 61.5307 96.9608 57.0387C96.9679 56.3489 96.8322 55.6651 96.5622 55.0303C96.7691 54.6241 97.3287 54.4324 97.0528 53.5739C98.9615 51.9105 102.273 48.8366 104.366 46.8436C104.366 50.7683 104.58 54.6931 104.749 58.5871L104.787 58.5718ZM86.2367 63.6847C86.413 63.5084 90.7594 59.4073 92.2771 57.9586L92.4305 60.4499C90.9726 62.4706 89.7919 64.6774 88.9197 67.0115C88.1166 66.1067 87.2082 65.3012 86.2137 64.6122C86.2619 64.3054 86.2696 63.9936 86.2367 63.6847ZM92.6144 60.1892L92.4611 57.7899L92.8291 57.4296C93.036 57.6749 93.1433 58.2422 93.3273 58.4338C93.381 58.5028 93.6186 58.7175 93.7106 58.6791C93.8026 58.6408 93.243 59.2847 92.6144 60.1816V60.1892ZM89.0653 67.5174C89.1343 67.5864 89.2723 67.5174 89.2109 67.4025C89.1496 67.2875 89.0653 67.1955 88.9657 67.0728C90.2754 64.0674 91.9515 61.2352 93.9559 58.6408C93.9638 58.6279 93.9689 58.6135 93.9708 58.5985C93.9728 58.5835 93.9715 58.5683 93.9672 58.5539C93.9629 58.5394 93.9555 58.526 93.9456 58.5146C93.9358 58.5031 93.9236 58.4939 93.9099 58.4875C93.7374 58.3969 93.5861 58.2708 93.4659 58.1176C93.3457 57.9643 93.2593 57.7873 93.2123 57.5983C93.1127 57.3223 93.1204 56.9851 92.7754 56.9391C92.5608 56.9391 92.2388 57.1997 92.2542 57.2074C92.2695 57.215 92.2542 55.7432 93.8869 56.3105C94.0249 56.3641 94.0785 56.1495 93.9406 56.0959C93.5599 55.9575 93.1477 55.9309 92.7524 56.0192C92.8743 55.6888 93.1147 55.4155 93.427 55.2527C93.6029 55.193 93.7917 55.1814 93.9736 55.2191C94.1555 55.2568 94.3241 55.3425 94.4618 55.4673C94.484 55.4839 94.5113 55.492 94.539 55.49C94.5666 55.488 94.5925 55.4762 94.6121 55.4566C94.6317 55.437 94.6435 55.4111 94.6455 55.3834C94.6475 55.3558 94.6394 55.3285 94.6228 55.3063C94.5129 55.1781 94.3723 55.0798 94.2141 55.0208C94.0559 54.9618 93.8853 54.944 93.7183 54.969C94.3928 53.9418 95.7803 54.2715 96.3859 55.2143C96.6366 55.724 96.7602 56.2869 96.7461 56.8547C97.0592 59.0637 97.2103 61.2927 97.1984 63.5237C97.2368 65.7525 96.74 67.958 95.7496 69.9551C94.5158 72.3991 92.6396 74.4608 90.3224 75.9188C89.577 76.4605 88.7126 76.8156 87.8017 76.9543C86.8907 77.093 85.9598 77.0113 85.0869 76.716C83.4468 76.1138 81.8988 75.2856 80.4876 74.2554C81.8001 72.9435 82.9575 71.4852 83.9371 69.9091C84.9314 68.3099 85.688 66.5747 86.1831 64.7579C87.1796 65.6624 88.1531 66.5593 89.0653 67.5174ZM95.9643 54.4401C96.1942 54.2638 96.5008 54.0108 96.8611 53.6736C96.9143 53.9373 96.8649 54.2114 96.7231 54.4401C96.6019 54.5564 96.5031 54.6942 96.4319 54.8464C96.3018 54.7024 96.149 54.5807 95.9796 54.4861L95.9643 54.4401ZM86.0604 63.838C86.0604 65.4631 85.0716 67.3718 84.3357 68.7439C83.087 70.9702 81.5108 72.9961 79.6597 74.7537C79.4681 74.976 79.4298 75.114 79.2611 75.0833C79.0925 75.0526 77.8277 73.7648 77.2451 73.4199C77.2451 72.96 77.3141 72.4847 77.3448 71.9941C80.2576 69.2958 83.3545 66.3906 86.0604 63.838ZM148.205 57.169C140.631 57.3223 106.504 58.5028 105.607 58.4338C105.048 58.3878 104.994 58.3342 104.971 57.7286C104.971 57.307 104.795 51.1209 104.619 46.606C105.178 46.0694 105.638 45.6248 105.922 45.3412C106.577 45.9956 107.422 46.4274 108.336 46.5753C112.261 47.1426 116.301 44.6513 118.968 41.976C122.035 38.9098 124.549 34.6555 123.016 30.6004C127.515 30.7231 144.15 30.3781 148.312 30.1558C148.327 34.0422 148.228 52.0408 148.205 57.169ZM146.319 25.5642C148.404 26.0318 148.304 27.8638 148.304 29.9182C144.127 30.0408 127.339 30.3168 122.947 30.4471C122.485 29.2341 121.611 28.222 120.479 27.5879C120.187 27.4346 117.106 26.3154 114.668 25.2882C123.828 25.1272 144.617 25.1809 146.319 25.5642ZM92.0395 19.5391C91.8862 18.4966 91.6256 17.1398 92.2082 16.1816C92.7907 15.2234 94.2012 15.0164 95.2744 15.3537C96.6235 15.7753 96.9531 16.3579 100.64 18.4199C102.787 19.6004 110.536 23.6555 112.69 24.7823C114.343 25.686 116.066 26.455 117.842 27.0819C116.833 27.1448 115.839 27.3647 114.898 27.7335C113.002 28.5553 111.311 29.7855 109.946 31.3363C108.3 32.8841 106.839 34.6179 105.592 36.5028C103.791 39.4771 104.021 42.4896 105.04 44.2373C98.4555 38.2889 96.3859 33.7969 93.5879 25.5642C92.8873 23.6078 92.3689 21.5909 92.0395 19.5391ZM93.2353 25.3572C93.8102 27.0666 94.5308 28.983 95.2284 30.7231C82.197 30.7231 75.1524 30.4931 71.7873 30.8687C71.7489 30.7384 71.565 30.6771 71.427 30.6464C72.7225 29.2896 74.1559 27.4576 74.2172 25.5948C77.4674 25.7098 88.2298 25.6332 93.2353 25.3572ZM57.4221 23.0576C58.6725 22.2654 60.0746 21.7432 61.5385 21.5245C62.3785 21.3346 63.2528 21.3594 64.0808 21.5966C64.9087 21.8337 65.6636 22.2755 66.2758 22.8812C66.2758 22.8812 59.0242 25.3572 54.9155 31.5433C54.0263 28.3697 54.5935 25.0736 57.4221 23.0576ZM59.0242 36.8555C58.9132 37.0817 58.7535 37.2807 58.5566 37.438C58.388 37.6297 58.273 37.9286 58.4416 38.1203C58.4425 38.1037 58.4389 38.0873 58.4311 38.0726C58.4234 38.058 58.4119 38.0457 58.3977 38.037C58.3836 38.0284 58.3674 38.0237 58.3508 38.0236C58.3343 38.0234 58.318 38.0276 58.3036 38.0359C56.5176 39.1551 54.2869 39.1014 53.551 36.8555C52.9838 35.1384 53.8193 33.429 54.8235 32.0645C59.6068 25.5488 67.3029 22.0994 70.8137 22.0994C73.0444 22.1377 74.1942 24.2227 73.7803 26.2617C73.443 27.9865 72.2472 29.3279 71.082 30.5391C70.3155 30.6234 69.6179 31.367 68.3301 32.5168C68.3423 32.3594 68.3267 32.2012 68.2841 32.0492C69.5336 31.0067 70.7064 29.3816 70.7448 27.7258C70.7448 27.0743 70.6451 26.0394 70.0472 25.6332C69.4493 25.2269 68.2228 25.5028 67.4563 25.6178C65.0912 26.0813 62.8723 27.1066 60.9866 28.6074C59.4535 29.7725 57.5294 31.1906 57.0388 33.2067C56.7016 34.5558 57.5754 36.4339 59.1545 36.0122C59.0242 36.3802 59.1469 36.6025 59.0242 36.8555ZM62.7573 34.7934C61.7915 34.9391 61.7148 33.9349 60.9636 33.8276C60.8541 33.8095 60.7418 33.8345 60.6503 33.8974C60.5588 33.9602 60.4953 34.0561 60.473 34.1649C60.473 34.3948 60.611 34.4945 60.7336 34.6325C60.8043 34.7339 60.8495 34.851 60.8651 34.9736C60.8808 35.0963 60.8666 35.2209 60.8237 35.3369C60.7807 35.4529 60.7104 35.5567 60.6186 35.6396C60.5269 35.7225 60.4164 35.782 60.2967 35.8129L59.9287 35.3224C59.6607 35.3956 59.4288 35.5647 59.2772 35.7976C58.9981 35.8427 58.7124 35.823 58.4422 35.7398C58.172 35.6566 57.9247 35.5123 57.7193 35.3181C57.5139 35.1238 57.3561 34.8848 57.258 34.6197C57.1599 34.3546 57.1243 34.0704 57.1538 33.7893C57.325 32.6215 57.9033 31.5518 58.7866 30.769C63.3322 26.2081 69.0507 24.9279 70.1775 26.0931C70.7524 26.691 71.0744 29.4352 68.1921 31.9112C68.1647 31.8635 68.1262 31.8231 68.0799 31.7934C68.0337 31.7636 67.981 31.7453 67.9262 31.7401C67.8714 31.7348 67.8162 31.7427 67.7651 31.7632C67.714 31.7836 67.6686 31.816 67.6326 31.8575C67.4179 32.1488 67.9928 32.4785 67.119 32.7697C66.9427 32.8311 66.5441 32.8771 66.4291 32.7697C66.2221 32.5168 66.8813 32.0952 66.6131 31.9189C66.4061 31.6123 65.8465 31.7656 65.6855 32.0798C65.5425 32.4239 65.4321 32.7806 65.3559 33.1453C65.1489 33.7049 64.5894 33.8506 64.4207 33.6053C63.9761 32.9537 64.574 32.9767 64.551 32.6088C64.551 32.0798 63.5852 32.1565 63.6312 33.13C63.6312 33.567 63.8075 34.0039 63.5085 34.4178C63.3298 34.6399 63.0711 34.783 62.788 34.8164L62.7573 34.7934ZM47.227 64.6889C47.227 64.6122 47.48 64.2979 47.526 64.229C48.3066 63.1085 49.1539 62.0359 50.0632 61.0171C53.3747 57.1844 53.735 56.2492 57.8361 54.4708C58.725 54.0822 59.6333 53.7394 60.5573 53.4436C61.2395 53.229 62.7036 52.5621 63.3935 52.838C63.6848 53.4589 63.9071 53.6812 67.2646 57.514C67.2646 57.514 67.2646 57.5676 67.3183 57.514C67.3719 57.4603 68.5294 55.4749 69.0277 54.5014C69.1197 55.4507 69.4406 56.3634 69.9629 57.1614C69.9692 57.1708 69.9777 57.1786 69.9877 57.184C69.9978 57.1894 70.009 57.1922 70.0204 57.1922C70.0318 57.1922 70.043 57.1894 70.053 57.184C70.063 57.1786 70.0716 57.1708 70.0779 57.1614C70.5605 56.2639 70.9411 55.3151 71.2124 54.3328C71.634 55.314 72.1859 56.2262 72.5768 57.2227C72.5768 57.2227 72.7455 57.2763 72.7761 57.2227C73.2514 56.0652 73.9336 54.9614 74.3092 53.7579C74.388 53.7914 74.4727 53.8087 74.5583 53.8087C74.644 53.8087 74.7287 53.7914 74.8075 53.7579C79.8437 57.1077 81.0932 57.9969 85.7998 63.3934C83.1859 65.808 80.2116 68.5523 77.3678 71.1662C77.4445 69.9895 77.4445 68.8091 77.3678 67.6324C77.3678 67.5558 77.0458 66.4443 77.0305 67.5711C77.0305 68.4143 77.0305 69.8708 76.9461 71.5572C73.3664 74.884 70.0472 77.9502 68.1998 79.7746C67.8336 79.7112 67.4575 79.7375 67.1036 79.8512C66.9597 79.9121 66.8027 79.9355 66.6472 79.9194C66.4918 79.9034 66.3429 79.8483 66.2144 79.7593C65.9308 79.6289 59.3155 76.6241 58.1503 75.9955C57.7364 75.7655 56.4946 75.3286 56.5099 74.7613C56.5099 74.562 57.3838 73.2282 57.5448 72.9216C58.411 73.5119 58.388 73.5349 58.4646 73.4659C60.6777 71.5368 62.5196 69.2196 63.8995 66.6283C63.902 66.6237 63.9036 66.6187 63.9042 66.6136C63.9048 66.6084 63.9043 66.6032 63.9029 66.5982C63.9015 66.5933 63.8991 66.5886 63.8959 66.5845C63.8927 66.5805 63.8887 66.5771 63.8841 66.5746C63.8796 66.5721 63.8746 66.5705 63.8695 66.5699C63.8643 66.5693 63.8591 66.5697 63.8541 66.5711C63.8491 66.5726 63.8445 66.575 63.8404 66.5782C63.8364 66.5814 63.833 66.5854 63.8305 66.5899C63.0026 67.9774 58.6256 73.2896 58.3803 73.2819C58.135 73.2742 52.9225 69.4492 52.6848 69.2575C53.6486 68.2864 54.5401 67.2462 55.3524 66.1453C55.4144 65.3263 55.4144 64.5037 55.3524 63.6847C55.3507 63.6629 55.3412 63.6425 55.3258 63.627C55.3103 63.6116 55.2899 63.6021 55.2681 63.6004C54.4402 63.6004 53.482 63.3474 52.9225 64.0143C51.9949 65.1105 51.0291 66.1377 50.1169 67.2415C49.8869 66.9885 47.2653 64.7502 47.2577 64.6735L47.227 64.6889ZM52.5315 69.1349C51.765 68.537 50.9984 67.9314 50.2319 67.2952C51.0444 66.5286 52.8995 64.137 53.1831 63.9147C53.7719 63.7147 54.3997 63.6569 55.0151 63.746C55.3218 63.8303 55.2528 65.2025 55.1991 65.7161C55.1455 66.2296 53.1678 68.445 52.5622 69.1195L52.5315 69.1349ZM48.8598 66.314C51.5876 68.6243 54.4354 70.789 57.3915 72.799C56.4639 74.6387 55.9197 74.838 56.119 74.9683C59.4075 77.1683 63.2556 78.2262 66.6054 80.3342C66.7664 80.4415 67.0193 79.9279 67.9928 79.9739L67.4333 80.5181C67.4134 80.461 67.4134 80.3989 67.4333 80.3418C67.4333 80.2958 67.4333 80.2728 67.3719 80.2958C67.0193 80.5948 67.7705 81.1544 68.6061 80.5411C68.741 80.6714 68.8434 80.8316 68.905 81.0087C68.9348 81.1421 68.9337 81.2805 68.9018 81.4133C68.8699 81.5462 68.8081 81.67 68.7211 81.7753C68.541 81.9726 68.3077 82.1137 68.0494 82.1817C67.791 82.2497 67.5185 82.2417 67.2646 82.1586C67.2646 82.1586 67.188 82.2122 67.2646 82.2352C67.5236 82.3623 67.8153 82.4069 68.1004 82.363C68.3855 82.3191 68.6503 82.1889 68.859 81.9899C68.9358 82.1674 68.9593 82.3633 68.9266 82.5538C68.8939 82.7444 68.8065 82.9213 68.6751 83.0631C68.2381 83.546 67.6479 83.385 67.096 83.2777C67.0832 83.2742 67.0695 83.2756 67.0576 83.2816C67.0458 83.2876 67.0366 83.2978 67.0318 83.3102C67.027 83.3226 67.027 83.3364 67.0318 83.3488C67.0366 83.3612 67.0458 83.3714 67.0577 83.3774C67.4004 83.5836 67.8086 83.6521 68.1998 83.569C68.1998 84.4199 66.5747 84.3356 66.1071 84.2129C65.6468 84.037 65.2231 83.7771 64.8577 83.4464C64.6813 83.293 64.4361 82.8791 64.2367 82.7948C64.0374 82.7105 62.7036 82.9711 58.7942 82.9021C52.5162 82.7871 51.4584 81.9363 48.9747 79.3376C45.1343 75.2903 45.5559 69.9321 48.8904 66.2986L48.8598 66.314ZM4.59915 69.0505C5.3657 67.5941 8.04863 68.1 9.38243 68.1C13.3685 68.1 38.4653 68.1843 47.1963 68.3683C46.4922 69.654 46.1034 71.0884 46.0618 72.5537C38.8563 72.385 11.1148 72.4004 4.21588 72.5077C4.24654 71.3502 4.1009 69.9627 4.59915 69.0505ZM24.5295 102.089C23.5329 102.71 22.1378 105.431 21.1873 108.007C6.99079 108.229 6.70717 108.382 5.67999 107.754C4.22354 106.872 4.3232 103.783 4.33086 102.112C4.33853 100.441 4.25421 98.7314 4.18522 97.045C3.84793 88.9349 4.23121 72.6533 4.23121 72.6227C7.62703 72.7913 38.8333 72.6227 46.0695 72.7913C46.0695 76.3098 48.1392 79.1613 50.8911 81.3C50.7761 81.5223 50.0172 82.4422 49.9713 82.5418C50.5282 83.1787 51.1441 83.7613 51.811 84.2819L45.303 100.05C45.134 99.9188 44.923 99.8543 44.7097 99.8684C44.4964 99.8825 44.2956 99.9743 44.1455 100.126C43.3789 100.832 43.2563 102.426 43.0646 103.346C42.827 104.565 42.8653 104.94 44.1455 106.412C44.1455 106.412 42.6124 108.474 42.6124 108.513C42.6124 108.551 35.8591 106.481 35.1155 106.343C35.1998 105.822 35.2458 105.508 35.2458 105.508C35.2458 105.508 26.2619 101.008 24.5295 102.089ZM54.6702 96.0868C54.6702 96.1481 56.3336 96.2477 60.2124 94.5537C60.2124 94.9369 57.1462 102.794 57.1462 102.794C57.1462 102.794 56.4793 104.235 54.6012 103.3C53.0615 102.441 51.595 101.456 50.2165 100.356C50.2165 100.356 49.197 99.6972 50.1092 97.7962C51.0214 95.8951 52.9991 91.1579 53.1141 90.9739C53.2789 92.7654 53.8057 94.5048 54.6625 96.0868H54.6702ZM53.3057 90.7209C53.5127 90.4833 53.7963 90.3146 54.0723 90.5599L59.1469 92.9362C59.4205 93.0438 59.6602 93.2229 59.8409 93.4549C60.0217 93.6868 60.1367 93.9631 60.174 94.2547C59.3615 94.638 55.7817 95.9565 54.8082 95.8338C54.0251 94.233 53.5147 92.5128 53.2981 90.7439L53.3057 90.7209ZM30.7232 110.306C30.5015 111.053 30.1819 111.767 29.7727 112.43C29.6883 112.56 29.443 112.483 29.5044 112.315C29.765 111.594 30.2096 110.92 30.5392 110.23C30.5442 110.218 30.5516 110.207 30.5609 110.197C30.5701 110.188 30.5812 110.181 30.5933 110.176C30.6054 110.171 30.6183 110.168 30.6314 110.168C30.6445 110.168 30.6574 110.171 30.6695 110.176C30.6816 110.181 30.6926 110.188 30.7018 110.198C30.711 110.207 30.7184 110.218 30.7233 110.23C30.7283 110.242 30.7309 110.255 30.7308 110.268C30.7308 110.281 30.7282 110.294 30.7232 110.306ZM29.489 109.54C29.3434 109.885 28.9448 111.211 28.7761 111.464C28.7629 111.488 28.742 111.507 28.7169 111.517C28.6917 111.528 28.6636 111.53 28.6372 111.523C28.6108 111.516 28.5874 111.5 28.571 111.478C28.5545 111.457 28.5457 111.43 28.5462 111.402C28.718 110.721 28.9756 110.064 29.3127 109.448C29.3817 109.363 29.535 109.463 29.489 109.57V109.54ZM27.289 110.559C27.4561 109.94 27.6661 109.333 27.9176 108.743C27.9247 108.716 27.942 108.694 27.9658 108.68C27.9895 108.666 28.0177 108.663 28.0441 108.67C28.0705 108.677 28.093 108.694 28.1067 108.718C28.1203 108.742 28.124 108.77 28.1169 108.796C27.9736 109.431 27.7603 110.048 27.4807 110.636C27.4668 110.65 27.4494 110.66 27.4304 110.666C27.4113 110.671 27.3911 110.672 27.3718 110.667C27.3526 110.662 27.3348 110.653 27.3203 110.639C27.3058 110.626 27.295 110.609 27.289 110.59V110.559ZM31.7427 121.713C31.1006 118.041 29.7184 114.538 27.68 111.418L32.2026 115.205C32.2026 115.205 32.3023 115.036 32.4556 114.729C33.6246 115.541 34.8404 116.283 36.0967 116.952C34.6249 117.596 32.7775 120.264 31.7427 121.743V121.713ZM51.8723 118.754C49.4883 120.287 48.1469 120.417 45.2493 120.172C42.8621 119.892 40.5552 119.136 38.4653 117.949C37.4177 117.412 36.3778 116.848 35.3455 116.255C34.4026 115.71 33.4981 115.074 32.5399 114.561C33.7933 112.058 34.6518 109.377 35.0849 106.611C35.6444 106.818 41.6389 108.467 42.7044 108.773C42.8193 108.773 42.758 108.842 44.2911 106.604C46.8361 109.478 49.9406 111.011 53.4207 112.736C54.4249 113.219 55.4291 113.71 56.4869 114.154C55.2853 116 53.714 117.577 51.8723 118.784V118.754ZM60.9789 113.763C59.8597 115.205 59.0242 114.898 57.2151 114.17C54.9922 113.28 52.8535 112.169 50.7378 111.103C48.6449 110.08 46.7235 108.738 45.0423 107.125C44.2145 106.282 42.942 105.186 43.1566 103.921C43.2639 103.285 43.8695 101.016 43.9232 100.939C44.0765 100.326 44.5441 100.119 45.326 100.326C45.326 100.372 61.4925 110.391 61.9678 110.605C62.2744 111.686 61.6688 112.897 60.9789 113.794V113.763ZM50.1552 82.5802C50.441 82.1937 50.6972 81.7863 50.9218 81.3613C52.8228 82.8178 55.5977 82.8944 57.8974 83.0018C61.8604 83.1397 62.7803 82.8101 63.8075 82.9021C64.2444 82.9404 64.0988 82.9481 64.528 83.362C63.8765 83.7683 61.7071 85.585 61.4618 86.1523C61.4583 86.1619 61.4575 86.1724 61.4597 86.1824C61.4619 86.1924 61.4669 86.2016 61.4742 86.2089C61.4815 86.2162 61.4907 86.2212 61.5007 86.2234C61.5107 86.2256 61.5212 86.2248 61.5308 86.2213C62.0827 86.1216 64.2444 84.2282 64.758 83.6073C65.2012 83.9805 65.7267 84.2432 66.2911 84.3739C66.8813 84.5042 68.3914 84.3739 68.2918 83.454C68.4578 83.4025 68.6099 83.3138 68.7365 83.1946C68.863 83.0754 68.9607 82.929 69.0221 82.7663C69.0834 82.6037 69.1068 82.4292 69.0906 82.2561C69.0743 82.083 69.0187 81.9159 68.928 81.7676C69.1887 81.4687 69.2346 80.5641 68.6597 80.3418C68.5448 80.1655 68.4681 80.4721 67.9775 80.5871C67.8937 80.5996 67.8084 80.5996 67.7245 80.5871C69.4723 79.1613 72.9984 75.9878 76.9231 72.3544C76.7315 76.5014 76.1566 82.0129 74.6695 85.6004C71.2503 86.9147 67.5975 87.5122 63.9378 87.3558C59.7294 87.2025 52.8918 85.6464 50.1552 82.5802ZM72.9754 113.671C72.1399 114.308 71.2737 113.434 70.6298 112.844C69.9859 112.253 69.0967 111.188 69.0967 110.26C69.0967 109.547 82.082 93.6415 82.312 93.4575C82.9866 92.9209 83.0785 92.8136 83.7914 93.5801C84.2974 94.1551 85.8611 96.746 85.8535 97.4129C85.8535 100.134 73.535 113.25 72.9754 113.671ZM77.6897 116.661C77.6758 116.177 77.6063 115.696 77.4827 115.228C77.1679 114.895 76.8095 114.606 76.4172 114.369C75.712 113.802 75.0451 113.196 74.3782 112.583C77.5977 109.195 81.8751 104.557 84.4123 100.64C87.7545 105.416 87.8158 107.899 88.9197 113.533C89.8089 118.079 90.6444 122.556 91.135 127.163C90.2535 127.439 84.9566 129.938 84.4123 130.267C81.7448 126.434 78.6096 121.222 77.6897 116.661ZM90.0618 131.908C90.3608 131.739 91.4876 131.049 91.7866 130.942C91.8632 130.942 91.9475 131.018 91.8939 131.087C91.4333 131.605 90.822 131.964 90.1461 132.115C90.1206 132.118 90.0946 132.114 90.0722 132.101C90.0498 132.088 90.0323 132.068 90.0226 132.044C90.0129 132.02 90.0114 131.994 90.0186 131.969C90.0257 131.944 90.0409 131.923 90.0618 131.908ZM90.4604 133.142C91.0196 132.858 91.5927 132.602 92.1775 132.375C92.2925 132.375 92.3998 132.498 92.3001 132.582C91.7663 132.937 91.175 133.196 90.5524 133.349C90.4528 133.379 90.3301 133.172 90.4528 133.119L90.4604 133.142ZM92.6221 134.207C92.138 134.646 91.5933 135.013 91.0047 135.296C90.882 135.334 90.7747 135.165 90.8744 135.081C91.3885 134.694 91.929 134.343 92.4918 134.031C92.5838 133.977 92.6834 134.108 92.6221 134.207Z" fill="black"/>
<path d="M133.517 41.309L134.452 41.608C134.353 40.8448 133.97 40.147 133.379 39.6533C133.574 39.5666 133.757 39.4559 133.924 39.3236C134.106 39.5352 134.321 39.7163 134.56 39.8602C134.629 39.8602 134.774 39.9369 134.744 39.7452C134.496 39.4962 134.205 39.2936 133.885 39.1473C133.816 39.1473 133.287 39.4233 133.165 39.477C132.908 39.2815 132.63 39.1144 132.337 38.9787C132.337 38.8561 132.375 38.3041 132.337 38.1738C132.503 38.1081 132.655 38.009 132.781 37.8825C133.257 37.5069 132.153 38.0818 132.145 38.0895C132.104 38.3429 132.086 38.5994 132.092 38.8561C131.626 38.6608 131.136 38.5293 130.635 38.4651C130.673 38.3885 130.888 37.3919 130.719 37.2616C130.719 37.2233 130.275 36.8094 130.007 36.5564C129.807 36.6024 130.535 37.2693 130.635 37.323C130.535 37.6826 130.481 38.0535 130.474 38.4268C130.079 38.3936 129.68 38.422 129.294 38.5111C129.209 37.7446 128.427 37.5836 127.761 37.9362C127.761 37.9362 126.787 34.686 126.565 34.0115C126.511 33.8658 126.488 33.8888 126.519 34.0115C126.664 34.6707 127.584 37.9515 127.63 37.9975C127.553 38.0396 127.483 38.094 127.423 38.1585C126.583 36.9553 125.426 36.0081 124.081 35.4219C123.269 35.1 123.108 35.0923 123.912 35.5216C125.243 36.2262 126.411 37.203 127.339 38.3885C127.032 38.9327 127.094 39.9675 127.684 40.1669C127.609 40.4884 127.573 40.8179 127.577 41.148C127.245 41.0829 126.904 41.0829 126.572 41.148C126.526 41.056 125.882 40.1668 125.936 40.3815C125.936 40.5118 126.442 41.263 126.641 41.286C126.954 41.3214 127.269 41.3368 127.584 41.332C127.616 41.8503 127.701 42.364 127.837 42.8651C127.55 42.8024 127.257 42.769 126.963 42.7655C126.806 42.8846 126.659 43.018 126.526 43.1641C126.112 43.6623 126.68 43.486 127.04 42.9494C128.366 43.2177 127.623 42.7731 128.251 43.877C128.056 44.1203 127.876 44.3764 127.715 44.6435C127.77 44.9443 127.89 45.2294 128.067 45.479C128.151 45.709 128.435 45.6094 128.197 45.1954C128.107 45.0262 127.999 44.8669 127.875 44.7202C128.096 44.558 128.27 44.3414 128.381 44.0916C128.623 44.4801 128.963 44.7976 129.367 45.0118C129.771 45.2259 130.224 45.329 130.681 45.3104L130.505 44.6818C130.96 44.8239 131.447 44.832 131.906 44.7049C132.366 44.5779 132.779 44.3212 133.097 43.9655C133.415 43.6098 133.623 43.1701 133.698 42.699C133.772 42.228 133.71 41.7454 133.517 41.309ZM127.738 39.9905C127.585 39.8759 127.464 39.7236 127.388 39.5484C127.311 39.3732 127.281 39.1812 127.302 38.9911C127.322 38.801 127.391 38.6194 127.502 38.464C127.613 38.3087 127.763 38.1849 127.937 38.1048C128.146 38.0327 128.367 37.9989 128.588 38.0052C128.73 38.0464 128.858 38.124 128.96 38.2302C129.063 38.3365 129.135 38.4677 129.171 38.6108C128.837 38.7043 128.531 38.8794 128.28 39.1201C128.03 39.3609 127.844 39.66 127.738 39.9905ZM129.171 39.8832L130.275 40.2435C130.064 40.5182 129.771 40.7194 129.439 40.8184L129.171 39.8832ZM129.478 40.9641C129.888 40.8786 130.256 40.6539 130.52 40.3278L131.287 40.5885C131.186 40.941 130.981 41.2552 130.7 41.4902C130.418 41.7253 130.072 41.8705 129.708 41.9069L129.478 40.9641ZM129.807 42.1139C130.203 42.0737 130.577 41.9166 130.883 41.6627C131.189 41.4087 131.412 41.0695 131.524 40.6881L132.62 41.0484C132.567 41.6769 132.293 42.2661 131.847 42.7122C131.401 43.1582 130.811 43.4323 130.183 43.486L129.807 42.1139ZM132.873 43.8846C132.567 44.1908 132.184 44.4076 131.764 44.5116C131.343 44.6156 130.903 44.6029 130.489 44.4749L130.236 43.5857C130.772 43.5832 131.293 43.4145 131.729 43.1027C132.164 42.791 132.492 42.3517 132.666 41.8456C132.777 41.6022 132.852 41.344 132.889 41.079L133.203 41.1787C133.422 41.6127 133.506 42.1023 133.444 42.5844C133.383 43.0666 133.179 43.5194 132.858 43.8846H132.873ZM35.9661 101.414L36.0888 101.974C36.4841 101.684 36.7574 101.258 36.8553 100.778C36.9515 100.859 37.0602 100.924 37.1773 100.97C36.9243 101.46 37.3459 102.112 37.3613 100.908C37.2999 100.717 37.2539 100.77 36.8937 100.51C36.9128 100.326 36.9128 100.141 36.8937 99.9578C37.0163 99.9118 36.84 99.9577 37.3536 99.7125C37.5452 99.9577 38.4574 99.9118 37.3536 99.5132C37.175 99.5585 37.0044 99.6309 36.8477 99.7278C36.8038 99.4247 36.7214 99.1284 36.6024 98.8463C36.7557 98.7849 37.1466 98.7619 37.3306 98.463C37.3306 98.3633 37.5376 98.0184 37.4379 97.7731C37.2616 97.8957 37.3766 97.9341 37.2003 98.4247C36.9615 98.4658 36.7342 98.5573 36.5334 98.6929C36.4242 98.4817 36.2876 98.2858 36.1271 98.1104C36.2102 98.0386 36.2738 97.9471 36.3121 97.8442C36.3503 97.7413 36.3619 97.6304 36.3459 97.5219C36.3298 97.4133 36.2866 97.3105 36.2202 97.2231C36.1538 97.1357 36.0664 97.0665 35.9661 97.0219C36.5487 96.309 37.6832 95.2741 38.1431 94.5766C37.2707 95.253 36.4967 96.0476 35.8435 96.9375H35.7362C36.1348 96.171 36.4337 94.3849 35.9891 93.6797C36.0772 94.7781 35.9228 95.8824 35.5369 96.9145C35.1306 96.9145 34.5327 97.3361 34.64 97.7348C33.8121 97.98 34.387 98.1947 33.7968 97.4051C33.9578 97.2518 34.2031 96.2017 33.6742 97.3591C33.5898 97.5201 33.7738 97.7578 33.9424 98.0797C33.6895 98.254 33.4534 98.4516 33.2372 98.6699C33.1671 98.4972 33.0878 98.3283 32.9996 98.164C32.9996 98.164 32.0337 97.8804 32.4937 98.2177C32.615 98.2625 32.741 98.2934 32.8693 98.3097C32.9266 98.4889 32.9984 98.6633 33.0839 98.8309C32.9719 98.9578 32.8742 99.0966 32.7926 99.2449C32.5667 99.184 32.3287 99.184 32.1027 99.2449C31.9111 99.8734 31.5508 99.6895 31.8498 99.8964C32.0142 99.7723 32.1371 99.6012 32.2024 99.4058C32.3538 99.4733 32.5218 99.4946 32.6853 99.4672C32.5532 99.7308 32.4922 100.024 32.5084 100.319C32.5245 100.613 32.6172 100.898 32.7773 101.146L33.0533 100.862C33.2985 102.073 35.2609 102.533 35.9661 101.414ZM36.0275 97.3362C36.094 97.4332 36.1297 97.5481 36.1297 97.6658C36.1297 97.7834 36.094 97.8984 36.0275 97.9954C35.8705 97.8458 35.6801 97.7358 35.4722 97.6745C35.2642 97.6132 35.0446 97.6023 34.8316 97.6428C34.856 97.5156 34.9159 97.398 35.0046 97.3037C35.0932 97.2094 35.2069 97.1422 35.3323 97.1101C35.4577 97.0779 35.5896 97.0821 35.7127 97.1222C35.8358 97.1622 35.945 97.2364 36.0275 97.3362ZM35.4449 99.1299C35.2346 99.092 35.037 99.0025 34.87 98.8692L35.2916 98.4323L35.4449 99.1299ZM34.7627 98.9766C34.9654 99.1927 35.2358 99.3333 35.5292 99.3752L35.6289 99.8274C35.4031 99.8888 35.164 99.8798 34.9435 99.8018C34.723 99.7237 34.5316 99.5802 34.3947 99.3905L34.7627 98.9766ZM34.2107 99.5515C34.3724 99.7682 34.5958 99.931 34.8516 100.019C35.1074 100.106 35.3836 100.114 35.6442 100.042L35.7898 100.717C35.4222 100.891 35.0049 100.931 34.6111 100.828C34.2172 100.726 33.872 100.488 33.6358 100.157L34.2107 99.5515ZM34.2644 101.79C33.9932 101.72 33.7462 101.578 33.5503 101.378C33.3543 101.178 33.2169 100.928 33.1529 100.655L33.5285 100.257C33.7623 100.632 34.1248 100.909 34.5481 101.036C34.9714 101.163 35.4265 101.131 35.8282 100.947V101.077C35.6645 101.327 35.4342 101.526 35.1633 101.652C34.8924 101.778 34.5917 101.826 34.2951 101.79H34.2644ZM26.2003 49.833C26.1827 50.0453 26.2269 50.2581 26.3276 50.4458C26.4282 50.6335 26.581 50.7881 26.7675 50.8909C26.5395 51.1532 26.3603 51.4544 26.2386 51.7801C25.5794 55.3215 27.7717 55.9731 27.7717 55.9731L27.856 53.2059C28.0553 54.8999 29.4351 56.732 30.6003 54.5933C32.2944 55.3599 32.5933 53.1599 31.6198 52.125C31.9111 52.0342 32.1728 51.8671 32.3777 51.641C32.5826 51.4149 32.7232 51.1381 32.785 50.8393C32.8468 50.5405 32.8275 50.2306 32.7291 49.9418C32.6307 49.6529 32.4568 49.3957 32.2254 49.1968C33.2066 48.6142 33.5975 46.4296 31.8498 46.6979C31.0832 43.463 28.6073 46.8512 28.1397 48.7139L28.9062 44.1146C28.9062 44.1146 26.6066 44.3216 26.5452 47.9473C26.6042 48.2974 26.7235 48.6346 26.8979 48.9438C26.7669 48.9764 26.6453 49.039 26.5428 49.1269C26.4403 49.2147 26.3598 49.3253 26.3076 49.4498C24.3782 48.7411 22.7533 47.387 21.7083 45.617C22.4365 47.6944 24.2763 48.8672 26.2386 49.6797C24.6595 49.5878 22.1759 49.5034 21.1641 50.7376C22.7278 49.7411 24.3682 49.7564 26.2003 49.833ZM31.9801 53.1829C32.279 54.1717 31.5815 54.808 30.6693 54.4323C30.9146 53.0372 29.0825 51.0289 28.1857 50.3313C29.6728 50.7069 31.3362 51.5808 31.9801 53.1829ZM29.2358 50.4999C28.8915 50.373 28.5378 50.2731 28.178 50.201C28.5403 50.2281 28.9042 50.2281 29.2665 50.201C29.2512 50.27 29.3202 50.2776 29.2358 50.4999ZM29.4198 50.2087C29.677 50.1897 29.9329 50.1564 30.1864 50.109C30.2198 50.2366 30.2197 50.3707 30.1861 50.4983C30.1525 50.6258 30.0866 50.7426 29.9947 50.8372C29.791 50.7303 29.5811 50.6356 29.3661 50.5536C29.4057 50.5065 29.4316 50.4494 29.4411 50.3886C29.4505 50.3278 29.4432 50.2656 29.4198 50.2087ZM30.3397 50.0783C30.644 50.0143 30.9417 49.9219 31.2289 49.8024C31.3822 50.4156 31.5508 50.9905 30.9529 51.4275C30.7096 51.2364 30.4535 51.0623 30.1864 50.9062C30.3032 50.8069 30.3822 50.6703 30.4102 50.5195C30.4381 50.3687 30.4132 50.2129 30.3397 50.0783ZM32.6393 50.4693C32.6254 50.8048 32.5134 51.1288 32.3172 51.4013C32.121 51.6738 31.8492 51.8828 31.5355 52.0024C31.3876 51.8239 31.2234 51.6596 31.0449 51.5118C31.6275 51.2895 31.6735 50.316 31.3592 49.7411C31.6312 49.6234 31.8885 49.4742 32.1257 49.2965C32.4073 49.63 32.5881 50.0368 32.647 50.4693H32.6393ZM31.3362 49.4881C30.3839 49.9518 29.3267 50.1579 28.27 50.086C29.3355 49.6644 31.6505 48.2463 31.8728 46.8435C33.9348 46.8972 32.5627 49.1202 31.3438 49.4881H31.3362ZM27.9787 49.971C30.0177 41.9682 34.8776 47.2574 28.0477 50.0783H27.9787V49.971ZM27.9787 50.2776C28.178 50.339 31.8114 53.9188 29.9334 55.1759C27.7717 56.1341 27.9404 51.1668 27.9787 50.2776ZM27.0282 49.0588C27.2475 49.4031 27.525 49.7066 27.8484 49.9557C27.839 49.9856 27.839 50.0177 27.8484 50.0477C27.5153 50.2167 27.2123 50.4394 26.9515 50.7069C26.1773 50.5996 26.2463 49.2121 27.0282 49.0588ZM121.881 43.6853C121.878 43.101 121.819 42.5184 121.705 41.9452C121.705 41.8456 121.536 41.8686 121.536 41.9452C121.523 42.5199 121.561 43.0946 121.651 43.6623C121.689 43.7543 121.881 43.8156 121.881 43.6853ZM118.984 47.4797C118.974 46.8929 118.912 46.308 118.8 45.732C118.8 45.6324 118.631 45.663 118.631 45.732C118.622 46.3091 118.66 46.886 118.746 47.4567C118.815 47.5871 118.953 47.5871 118.984 47.4797ZM143.981 47.3264C143.971 46.7396 143.909 46.1548 143.797 45.5787C143.797 45.4867 143.628 45.5097 143.628 45.5787C143.617 46.1561 143.658 46.7333 143.751 47.3034C143.789 47.4261 143.958 47.4567 143.981 47.3264ZM145.644 47.3264C145.634 46.7396 145.572 46.1548 145.46 45.5787C145.46 45.4867 145.291 45.5097 145.291 45.5787C145.278 46.1559 145.317 46.7331 145.406 47.3034C145.46 47.4261 145.644 47.4567 145.644 47.3264ZM138.852 46.1689C138.843 46.746 138.882 47.3229 138.967 47.8937C139.006 47.9933 139.174 48.0163 139.205 47.8937C139.196 47.3068 139.134 46.7219 139.021 46.1459C139.006 46.054 138.852 46.054 138.852 46.1689ZM138.898 44.0226C138.893 43.4355 138.831 42.8502 138.715 42.2749C138.715 42.1752 138.546 42.1982 138.546 42.2749C138.535 42.8523 138.577 43.4295 138.669 43.9996C138.699 44.1146 138.868 44.1452 138.898 44.0226ZM136.583 44.0226C136.578 43.4355 136.516 42.8502 136.4 42.2749C136.4 42.1752 136.231 42.1982 136.231 42.2749C136.22 42.8523 136.262 43.4295 136.354 43.9996C136.392 44.1146 136.56 44.1452 136.583 44.0226ZM145.583 43.3557C145.577 42.7711 145.515 42.1885 145.399 41.6156C145.399 41.516 145.23 41.539 145.23 41.6156C145.22 42.1931 145.261 42.7703 145.353 43.3404C145.391 43.4553 145.56 43.486 145.583 43.3557ZM143.835 39.477C143.829 38.8924 143.768 38.3097 143.651 37.7369C143.651 37.6372 143.482 37.6602 143.482 37.7369C143.472 38.3118 143.513 38.8864 143.605 39.454C143.643 39.5766 143.812 39.6073 143.835 39.477ZM141.206 37.7599C141.189 38.3346 141.227 38.9096 141.321 39.477C141.321 39.5766 141.528 39.6073 141.551 39.477C141.544 38.8928 141.485 38.3105 141.374 37.7369C141.373 37.7258 141.369 37.7151 141.364 37.7055C141.358 37.6958 141.351 37.6874 141.342 37.6806C141.333 37.6739 141.323 37.6689 141.312 37.6661C141.301 37.6632 141.29 37.6626 141.279 37.6641C141.268 37.6656 141.257 37.6693 141.247 37.6749C141.238 37.6805 141.229 37.688 141.222 37.6969C141.216 37.7058 141.211 37.7159 141.208 37.7267C141.205 37.7375 141.204 37.7488 141.206 37.7599ZM136.262 39.9829C136.254 39.3962 136.195 38.8114 136.085 38.2351C136.085 38.1355 135.917 38.1662 135.917 38.2351C135.9 38.8124 135.938 39.39 136.032 39.9599C136.07 40.0825 136.239 40.1055 136.262 39.9829ZM138.822 35.5292C138.815 34.9451 138.756 34.3627 138.646 33.7892C138.646 33.7668 138.637 33.7453 138.621 33.7295C138.605 33.7137 138.584 33.7048 138.561 33.7048C138.539 33.7048 138.517 33.7137 138.502 33.7295C138.486 33.7453 138.477 33.7668 138.477 33.7892C138.464 34.3638 138.502 34.9385 138.592 35.5062C138.63 35.6289 138.799 35.6595 138.822 35.5292ZM133.586 35.5292C133.569 34.9442 133.5 34.3619 133.379 33.7892C133.379 33.6895 133.211 33.7125 133.211 33.7892C133.201 34.3637 133.24 34.938 133.326 35.5062C133.379 35.6289 133.556 35.6595 133.586 35.5292ZM108.543 55.1912C108.532 55.7687 108.573 56.3459 108.666 56.916C108.704 57.0156 108.873 57.0463 108.896 56.916C108.89 56.3314 108.828 55.7488 108.712 55.1759C108.696 55.0763 108.543 55.0992 108.543 55.1912ZM113.303 54.8156C113.293 55.393 113.334 55.9703 113.426 56.5404C113.464 56.64 113.633 56.6707 113.656 56.5404C113.639 55.9528 113.569 55.368 113.449 54.7926C113.439 54.7826 113.426 54.7752 113.413 54.7708C113.399 54.7665 113.385 54.7654 113.37 54.7676C113.356 54.7698 113.343 54.7753 113.331 54.7837C113.32 54.792 113.31 54.8029 113.303 54.8156ZM116.278 54.6853C116.267 55.2627 116.308 55.8399 116.4 56.41C116.439 56.5097 116.607 56.5327 116.63 56.41C116.624 55.823 116.563 55.2378 116.446 54.6623C116.431 54.5627 116.278 54.5933 116.278 54.6853ZM113.127 50.3696C113.127 50.27 112.958 50.3006 112.958 50.3696C112.948 50.9471 112.989 51.5243 113.081 52.0944C113.081 52.194 113.288 52.217 113.311 52.0944C113.304 51.515 113.242 50.9375 113.127 50.3696ZM111.088 52.1174C111.085 51.5305 111.026 50.9453 110.912 50.3696C110.912 50.27 110.743 50.3006 110.743 50.3696C110.73 50.9468 110.768 51.524 110.858 52.0944C110.896 52.1864 111.065 52.24 111.088 52.1174ZM119.106 51.7418C119.115 51.7652 119.131 51.7855 119.151 51.7998C119.172 51.8141 119.196 51.8217 119.221 51.8217C119.246 51.8217 119.271 51.8141 119.291 51.7998C119.312 51.7855 119.327 51.7652 119.336 51.7418C119.33 51.1572 119.269 50.5745 119.152 50.0017C119.152 49.902 118.984 49.925 118.984 50.0017C118.972 50.5842 119.013 51.1666 119.106 51.7418ZM125.898 51.7418C125.891 51.1577 125.832 50.5753 125.721 50.0017C125.721 49.9793 125.713 49.9579 125.697 49.9421C125.681 49.9263 125.66 49.9174 125.637 49.9174C125.615 49.9174 125.593 49.9263 125.578 49.9421C125.562 49.9579 125.553 49.9793 125.553 50.0017C125.536 50.5764 125.575 51.1514 125.668 51.7188C125.714 51.8414 125.875 51.8721 125.898 51.7418ZM125.829 54.1794C125.812 54.7567 125.85 55.3342 125.944 55.9041C125.944 56.0038 126.151 56.0268 126.174 55.9041C126.167 55.3175 126.108 54.7326 125.997 54.1564C125.974 54.0567 125.829 54.0874 125.829 54.1794ZM122.211 54.5857C122.198 55.1628 122.236 55.7401 122.326 56.3104C122.326 56.41 122.533 56.433 122.556 56.3104C122.549 55.7237 122.49 55.1388 122.379 54.5627C122.364 54.486 122.211 54.486 122.211 54.5857ZM132.176 54.1794C132.163 54.7566 132.201 55.3338 132.291 55.9041C132.291 56.0038 132.498 56.0268 132.521 55.9041C132.514 55.3175 132.455 54.7326 132.344 54.1564C132.321 54.0567 132.176 54.0874 132.176 54.1794ZM132.206 51.7418C132.199 51.1577 132.14 50.5753 132.03 50.0017C132.03 49.902 131.862 49.925 131.862 50.0017C131.849 50.5763 131.887 51.151 131.977 51.7188C132.015 51.8414 132.184 51.8721 132.206 51.7418ZM136.308 49.6107C136.294 50.1879 136.333 50.7652 136.423 51.3355C136.461 51.4351 136.629 51.4658 136.66 51.3355C136.65 50.7486 136.588 50.1638 136.476 49.5878C136.446 49.4958 136.308 49.5188 136.308 49.6107ZM139.228 49.7947C139.219 50.3693 139.257 50.9436 139.343 51.5118C139.381 51.6114 139.55 51.6421 139.573 51.5118C139.57 50.9275 139.511 50.3448 139.397 49.7717C139.381 49.6721 139.228 49.6951 139.228 49.7947ZM136.829 53.9954C136.818 54.5703 136.859 55.145 136.951 55.7125C136.951 55.8121 137.158 55.8428 137.181 55.7125C137.172 55.1282 137.11 54.5459 136.997 53.9724C136.982 53.8728 136.829 53.8958 136.829 53.9954ZM141.62 53.8421C141.609 54.4195 141.65 54.9967 141.742 55.5668C141.781 55.6665 141.949 55.6895 141.972 55.5668C141.967 54.9797 141.905 54.3945 141.788 53.8191C141.811 53.7195 141.62 53.7195 141.62 53.8421ZM144.065 53.7195C144.052 54.2941 144.091 54.8687 144.18 55.4365C144.18 55.5362 144.387 55.5668 144.41 55.4365C144.407 54.8522 144.348 54.2696 144.234 53.6965C144.218 53.6198 144.065 53.6428 144.065 53.7195ZM144.111 51.2742C144.104 50.6875 144.045 50.1026 143.935 49.5264C143.929 49.5074 143.917 49.4908 143.902 49.4789C143.886 49.4671 143.866 49.4607 143.847 49.4607C143.827 49.4607 143.807 49.4671 143.792 49.4789C143.776 49.4908 143.764 49.5074 143.758 49.5264C143.748 50.1038 143.789 50.681 143.881 51.2512C143.935 51.3661 144.111 51.4198 144.111 51.2742ZM145.56 139.619C149.193 136.599 149.393 131.524 149.477 127.086C148.71 126.94 144.257 128.987 143.927 128.995C145.141 127.57 145.967 125.857 146.326 124.02C146.771 122.617 148.143 114.768 146.94 115.741C143.728 117.734 140.892 119.65 137.741 121.873C137.741 121.145 137.289 114.116 136.208 111.816C135.495 111.318 134.722 110.911 133.908 110.605C133.993 110.475 136.032 108.704 135.725 108.773C135.264 106.379 134.673 104.012 133.954 101.682C128.726 106.167 126.48 114.277 125.714 121.176C125.461 120.409 123.92 114.768 122.602 113.418C119.957 117.719 119.068 123.483 119.597 128.519C117.956 127.753 105.883 128.918 109.049 130.236C112.077 132.912 115.181 135.303 117.228 138.669C116.278 138.669 112.69 138.6 109.785 138.623C108.606 138.549 107.423 138.549 106.243 138.623C110.033 138.919 113.837 138.986 117.634 138.822C115.657 135.25 111.709 132.298 108.681 129.677C112.218 128.584 115.944 128.245 119.62 128.68C119.727 128.849 119.62 129.991 119.965 129.853C119.232 124.31 120.166 118.674 122.648 113.664C123.866 115.603 125.821 121.866 126.166 124.871C126.572 124.181 125.867 122.571 125.783 121.582C127.009 114.614 128.167 108.267 133.326 102.326C134.238 101.437 134.092 102.763 134.675 104.557C135.045 105.933 135.345 107.328 135.572 108.735C135.656 108.735 134.475 109.793 133.87 110.344C133.103 111.034 136.277 111.663 136.208 112.276C136.893 115.463 137.359 118.692 137.603 121.942C136.185 123.077 133.947 124.679 133.333 126.082C137.166 121.85 142.471 118.846 147.177 115.726C147.338 120.463 146.411 126.365 143.544 129.14C137.634 132.207 149.63 126.956 149.239 127.216H149.285C149.331 131.816 148.419 137.687 145.184 139.611C145.077 139.68 136.43 139.742 139.473 139.895C141.581 139.841 148.419 139.78 148.473 139.565C147.729 139.312 146.48 139.627 145.56 139.619Z" fill="black"/>
<path d="M131.179 139.182C133.993 128.251 137.864 126.235 142.892 121.253C136.537 126.197 132.084 132.544 131.179 139.182ZM131.08 110.958C130.75 115.235 129.24 119.39 129.393 123.813C129.294 127.899 130.413 131.777 130.436 135.602C130.804 131.609 129.347 127.5 129.577 123.437C129.355 119.306 131.21 114.737 131.08 110.958ZM122.441 121.835C122.993 124.71 125.821 135.434 127.04 137.933C127.485 138.584 126.603 136.292 126.442 135.633C125.055 131.425 123.223 123.644 122.441 121.835ZM114.17 130.62C116.99 132.973 121.314 135.825 123.437 139.121C121.421 135.526 117.473 132.958 114.17 130.62ZM74.0943 132.053C72.1856 129.968 72.7605 129.317 71.2734 131.57C71.2044 131.394 65.532 128.596 66.6741 129.892C72.5919 135.395 68.3605 130.896 66.9808 129.892C72.8679 131.762 70.1696 132.85 72.4386 130.313C72.8985 130.505 73.9027 132.774 74.1787 132.061C74.3856 131.708 74.5849 131.294 74.8302 131.417C75.0679 131.969 75.5968 131.777 76.187 131.808C76.9536 131.701 78.2567 132.053 78.663 131.716C77.4819 131.756 76.2997 131.694 75.1292 131.532C74.6846 130.091 74.4546 131.724 74.0943 132.053ZM31.1062 133.732C32.233 131.34 37.5759 122.885 38.2198 121.145C35.6595 124.625 31.9418 130.75 31.1062 133.732ZM27.5954 127.04C25.9703 123 25.5947 117.841 24.1536 114.154C25.2958 118.317 25.7557 123.269 27.5954 127.04ZM24.4602 131.141C21.8156 128.742 18.9411 126.304 16.1815 123.966C18.7526 126.567 21.5203 128.966 24.4602 131.141ZM32.8846 77.1453C32.8846 77.0379 12.7167 76.762 9.24421 76.509C9.17522 76.509 9.1139 76.578 9.10623 76.647C9.03724 79.215 9.29787 97.2289 9.37452 97.2289C13.2533 97.2902 28.8372 96.9299 32.7083 96.6386C32.8386 96.6463 32.8463 97.6811 32.8846 77.1453ZM32.5473 96.4087C28.7146 96.4623 13.4679 96.654 9.63515 97.0602C9.35153 90.9278 9.17522 77.2143 9.37452 76.7697C9.47418 76.8386 32.1411 77.4519 32.601 77.3599C32.578 83.7069 32.532 90.0616 32.5473 96.4087ZM36.4491 81.1697C36.442 80.5855 36.383 80.0032 36.2728 79.4296C36.2728 79.4072 36.2639 79.3858 36.2481 79.37C36.2323 79.3542 36.2108 79.3453 36.1884 79.3453C36.1661 79.3453 36.1446 79.3542 36.1288 79.37C36.113 79.3858 36.1041 79.4072 36.1041 79.4296C36.0871 80.0069 36.1256 80.5844 36.2191 81.1543C36.2574 81.2693 36.4261 81.3153 36.4491 81.1697ZM11.6818 101.92C11.6687 102.497 11.7071 103.075 11.7968 103.645C11.7968 103.745 12.0038 103.768 12.0345 103.645C12.0251 103.058 11.9636 102.473 11.8505 101.897C11.8351 101.798 11.6818 101.821 11.6818 101.92ZM15.6296 101.92C15.6126 102.497 15.6511 103.075 15.7446 103.645C15.7829 103.745 15.9515 103.768 15.9745 103.645C15.9678 103.058 15.9088 102.473 15.7982 101.897C15.7829 101.798 15.6296 101.821 15.6296 101.92ZM16.6031 101.805C16.5886 102.38 16.6297 102.955 16.7257 103.522C16.7257 103.622 16.9327 103.653 16.9557 103.522C16.9498 102.938 16.8882 102.355 16.7717 101.782C16.7564 101.683 16.6031 101.706 16.6031 101.805ZM44.5438 93.3808C44.5384 92.7937 44.4768 92.2084 44.3599 91.6331C44.3599 91.5334 44.1912 91.5641 44.1912 91.6331C44.1808 92.2105 44.2219 92.7877 44.3139 93.3578C44.3522 93.4804 44.5208 93.5034 44.5438 93.3808ZM46.2532 90.4526C46.2473 89.868 46.1857 89.2854 46.0693 88.7125C46.0693 88.6129 45.9006 88.6359 45.9006 88.7125C45.8899 89.2874 45.931 89.8621 46.0233 90.4296C46.0616 90.5522 46.2302 90.5829 46.2532 90.4526ZM38.1125 81.1007C39.293 81.3153 39.3543 79.9355 38.5494 79.3606C38.0358 79.008 37.5146 79.8359 37.4532 80.1271C37.4167 80.3431 37.4649 80.5648 37.5877 80.7461C37.7105 80.9274 37.8984 81.0544 38.1125 81.1007ZM37.7062 79.9968C38.1585 79.0003 38.902 79.9968 38.8177 80.3954C38.7976 80.475 38.7614 80.5496 38.7112 80.6145C38.661 80.6795 38.598 80.7334 38.5261 80.773C38.4542 80.8125 38.3749 80.8368 38.2932 80.8444C38.2115 80.852 38.1291 80.8427 38.0512 80.817C37.9739 80.7867 37.9036 80.7413 37.8442 80.6834C37.7849 80.6254 37.7377 80.5562 37.7056 80.4797C37.6734 80.4033 37.6569 80.3212 37.657 80.2382C37.6571 80.1553 37.6739 80.0732 37.7062 79.9968ZM45.9926 93.3501C46.1044 93.3687 46.2188 93.365 46.3291 93.3392C46.4395 93.3133 46.5436 93.2659 46.6355 93.1997C46.7275 93.1334 46.8054 93.0496 46.8647 92.953C46.9241 92.8565 46.9638 92.7492 46.9815 92.6372C47.0275 92.231 45.9543 90.5216 45.341 92.3383C45.3129 92.4477 45.3077 92.5618 45.3257 92.6733C45.3438 92.7849 45.3847 92.8915 45.4458 92.9865C45.507 93.0815 45.5872 93.1629 45.6813 93.2254C45.7753 93.288 45.8813 93.3305 45.9926 93.3501ZM45.5863 92.2386C45.9543 91.3188 46.7898 92.2386 46.6978 92.6372C46.6799 92.718 46.6449 92.7941 46.5953 92.8603C46.5456 92.9266 46.4824 92.9815 46.4099 93.0214C46.3374 93.0612 46.2572 93.0852 46.1746 93.0917C46.0921 93.0982 46.0091 93.087 45.9313 93.0588C45.7822 92.9902 45.6658 92.866 45.6071 92.7127C45.5484 92.5595 45.5519 92.3893 45.617 92.2386H45.5863ZM13.1919 102.487C13.1639 102.597 13.1589 102.712 13.1774 102.824C13.1959 102.936 13.2375 103.043 13.2994 103.138C13.3614 103.233 13.4424 103.314 13.5374 103.377C13.6324 103.439 13.7392 103.481 13.8512 103.499C13.9625 103.518 14.0764 103.514 14.1863 103.488C14.2962 103.462 14.3998 103.415 14.4911 103.348C14.5824 103.282 14.6596 103.198 14.7182 103.102C14.7768 103.005 14.8156 102.898 14.8324 102.786C14.886 102.372 13.8665 100.908 13.1919 102.487ZM14.5641 102.779C14.545 102.859 14.5094 102.934 14.4595 103C14.4096 103.065 14.3465 103.12 14.2743 103.159C14.202 103.199 14.1223 103.223 14.0402 103.23C13.9581 103.237 13.8754 103.227 13.7975 103.2C13.719 103.172 13.6471 103.127 13.5863 103.07C13.5255 103.012 13.4771 102.943 13.4441 102.866C13.4111 102.79 13.3941 102.707 13.3943 102.623C13.3944 102.54 13.4116 102.457 13.4449 102.38C13.8665 101.529 14.6407 102.365 14.5641 102.779Z" fill="black"/>
<path d="M29.2437 80.5488C26.4151 80.5105 15.0778 80.1732 12.2876 80.4108V80.4645C15.0702 80.7788 26.4151 80.7558 29.2437 80.7941C29.2762 80.7941 29.3074 80.7812 29.3304 80.7582C29.3534 80.7352 29.3663 80.704 29.3663 80.6715C29.3663 80.6389 29.3534 80.6077 29.3304 80.5847C29.3074 80.5617 29.2762 80.5488 29.2437 80.5488ZM29.5196 84.0903C26.6911 84.052 15.3461 83.7147 12.5636 83.96V84.006C15.3385 84.3203 26.6911 84.2973 29.5196 84.3356C29.5522 84.3356 29.5834 84.3227 29.6064 84.2997C29.6294 84.2767 29.6423 84.2455 29.6423 84.2129C29.6423 84.1804 29.6294 84.1492 29.6064 84.1262C29.5834 84.1032 29.5522 84.0903 29.5196 84.0903ZM29.7496 88.1147C26.9287 88.0763 15.5838 87.7391 12.7935 87.9844V88.0303C15.5761 88.3523 26.9287 88.3216 29.7496 88.36C29.7821 88.36 29.8133 88.347 29.8363 88.324C29.8593 88.301 29.8723 88.2698 29.8723 88.2373C29.8723 88.2048 29.8593 88.1736 29.8363 88.1506C29.8133 88.1276 29.7821 88.1147 29.7496 88.1147ZM29.7496 92.1467C26.9287 92.1467 15.5838 91.7711 12.7935 92.0164V92.0624C15.5684 92.3767 26.9287 92.3537 29.7496 92.392C29.7821 92.392 29.8133 92.3791 29.8363 92.3561C29.8593 92.3331 29.8723 92.3019 29.8723 92.2694C29.8723 92.2368 29.8593 92.2057 29.8363 92.1826C29.8133 92.1596 29.7821 92.1467 29.7496 92.1467ZM70.783 47.3879C70.7719 47.3833 70.7596 47.3826 70.748 47.3859C70.7364 47.3892 70.7263 47.3962 70.7192 47.4059C70.7122 47.4157 70.7086 47.4275 70.709 47.4395C70.7095 47.4515 70.7139 47.463 70.7217 47.4722C71.079 47.8512 71.4717 48.1952 71.8945 48.4994C71.9558 48.4994 72.0325 48.4994 71.9865 48.4074C71.6193 48.0294 71.2163 47.6879 70.783 47.3879ZM71.8869 42.4973C71.8869 42.4973 71.9635 42.4973 71.9405 42.4436C71.6335 42.0867 71.2804 41.7722 70.8903 41.5084C70.8367 41.5084 70.783 41.5084 70.8214 41.5927C71.1363 41.9387 71.4944 42.2427 71.8869 42.4973ZM75.1217 42.9879C75.3749 42.9472 75.6174 42.856 75.8346 42.7196C75.8806 42.7196 75.8346 42.6123 75.8346 42.6199C75.565 42.6435 75.3036 42.7245 75.068 42.8576C75.0144 42.9035 75.068 42.9879 75.1217 42.9879ZM71.197 43.2255C71.1261 43.5137 71.1079 43.8124 71.1433 44.107C71.1433 44.1607 71.2353 44.1837 71.266 44.107C71.3248 43.811 71.3248 43.5062 71.266 43.2102C71.2545 43.2039 71.2413 43.2021 71.2286 43.2049C71.2159 43.2077 71.2047 43.215 71.197 43.2255ZM75.5663 43.8157C75.4943 44.0662 75.4943 44.3318 75.5663 44.5823C75.5713 44.5887 75.5777 44.5938 75.585 44.5974C75.5923 44.6009 75.6003 44.6028 75.6085 44.6028C75.6166 44.6028 75.6246 44.6009 75.6319 44.5974C75.6392 44.5938 75.6456 44.5887 75.6506 44.5823C75.7226 44.3318 75.7226 44.0662 75.6506 43.8157C75.6385 43.8064 75.6237 43.8014 75.6085 43.8014C75.5932 43.8014 75.5784 43.8064 75.5663 43.8157ZM73.5349 44.3753C73.5349 44.6513 73.8952 46.399 73.2973 46.1691C73.1977 46.1691 73.144 46.307 73.2513 46.3377C73.3586 46.3684 73.8186 46.422 73.8799 46.1307C73.8428 45.5347 73.7452 44.944 73.5886 44.3677C73.5886 44.3677 73.5349 44.337 73.5349 44.3753ZM45.6325 23.1955C46.1078 25.7865 47.8019 22.8046 48.0778 21.7084C48.8444 23.6018 51.2053 23.4332 51.5656 21.5858C52.1942 22.1224 54.2792 22.268 53.8653 20.8576C54.6318 20.7502 54.8388 19.6617 54.4555 18.9029H54.9154C54.7355 18.3799 54.401 17.9239 53.956 17.5954C53.5111 17.2668 52.9769 17.0812 52.4242 17.0631C51.5882 16.9446 50.7377 17.1354 50.0325 17.5997C49.9751 17.4268 49.8746 17.2713 49.7405 17.1479C49.6064 17.0245 49.4431 16.9373 49.266 16.8945C49.2701 16.8153 49.2701 16.736 49.266 16.6569C49.22 15.7753 49.1893 12.7628 51.0367 11.7739C51.489 11.59 51.3587 11.544 50.9217 11.728C49.1816 12.4945 48.9977 15.0165 49.1203 16.7565C48.8008 15.5284 48.283 14.3607 47.5872 13.2994C47.2959 12.9084 46.5754 12.2569 46.5294 12.3642C46.4834 12.4715 47.2193 12.9698 47.4799 13.353C48.1209 14.4673 48.5912 15.6714 48.875 16.9252C48.6558 16.9983 48.4548 17.1175 48.2855 17.2749C48.1163 17.4322 47.9827 17.624 47.8938 17.8374C46.4297 17.3008 43.7391 18.2283 43.7085 20.459L46.1154 19.7844C44.7587 20.6429 43.0646 23.6861 45.6325 23.1955ZM47.8785 21.8694C47.5796 22.7739 46.2611 25.2499 45.7015 23.1725C46.9127 22.7433 47.7252 21.5321 48.3691 20.3823C48.3614 20.4206 47.9168 21.7698 47.8785 21.8694ZM50.1782 20.2213C50.3507 20.4785 50.543 20.722 50.7531 20.9496C50.1705 21.8388 49.0283 21.5781 48.3078 21.0492C48.3998 20.7962 48.4917 20.5356 48.5761 20.2827C48.6824 20.3935 48.8111 20.4805 48.9535 20.5381C49.0959 20.5956 49.2489 20.6224 49.4024 20.6166C49.5559 20.6108 49.7064 20.5726 49.8441 20.5045C49.9817 20.4363 50.1034 20.3398 50.2012 20.2213H50.1782ZM48.6451 20.1677C48.7115 19.9362 48.7627 19.7006 48.7984 19.4624C48.9311 19.5962 49.1084 19.6763 49.2964 19.6876C49.4845 19.6989 49.6701 19.6406 49.8179 19.5238C49.9122 19.716 50.0171 19.9028 50.1322 20.0834C50.039 20.2393 49.8963 20.3595 49.7267 20.4248C49.5572 20.4901 49.3707 20.4968 49.197 20.4436C49.0011 20.3663 48.8115 20.274 48.6297 20.1677H48.6451ZM49.4576 22.8506C49.1588 22.7454 48.887 22.5754 48.6617 22.3527C48.4364 22.1301 48.2632 21.8603 48.1545 21.5628C48.1928 21.4708 48.2388 21.3328 48.3231 21.1182C48.4795 21.3119 48.6784 21.467 48.9043 21.5717C49.1302 21.6763 49.3771 21.7276 49.626 21.7217C49.8749 21.7158 50.1191 21.6528 50.3398 21.5375C50.5604 21.4222 50.7517 21.2578 50.8987 21.0569C51.0591 21.2101 51.2307 21.3511 51.4123 21.4785C51.3862 21.704 51.3124 21.9213 51.1959 22.1161C51.0794 22.311 50.9228 22.4788 50.7365 22.6085C50.5503 22.7383 50.3386 22.8269 50.1154 22.8687C49.8923 22.9104 49.6628 22.9042 49.4423 22.8506H49.4576ZM51.6806 21.4248C50.5078 20.9189 49.6186 18.9029 49.6109 18.8952H49.6569C50.1414 19.4955 50.7496 19.9843 51.4402 20.3282C52.1307 20.6722 52.8873 20.8632 53.6583 20.8882C54.1182 22.3753 52.0102 21.5705 51.6653 21.4248H51.6806ZM54.1489 18.8952C55.4367 21.3558 51.8492 21.1412 49.7412 18.8952H54.1489ZM48.9593 17.0785C49.4576 17.0172 49.7259 17.3238 49.8639 17.7147C49.5116 18.0202 49.2737 18.4365 49.1893 18.8952H49.5189L49.7106 19.3398C49.4729 19.6464 49.0973 19.5544 48.7984 19.3858C48.8444 19.2555 48.8827 19.1175 48.9287 18.9795L49.1893 18.9105C48.9597 18.4462 48.5666 18.0831 48.0855 17.891C48.2924 17.5154 48.4611 17.1398 48.9593 17.0785ZM48.7294 19.0332C48.1545 20.5663 46.9587 23.1036 45.0806 23.0729C43.3942 22.7816 45.7322 20.045 46.3684 19.7001L48.7294 19.0332ZM111.15 54.8694C110.954 54.8283 110.751 54.8485 110.568 54.9273C110.385 55.0061 110.231 55.1397 110.127 55.3096C110.023 55.4796 109.974 55.6776 109.986 55.8766C109.999 56.0755 110.073 56.2656 110.198 56.4208C110.324 56.576 110.494 56.6886 110.685 56.7433C110.877 56.798 111.081 56.792 111.269 56.7261C111.457 56.6603 111.621 56.5379 111.736 56.3756C111.852 56.2134 111.915 56.0193 111.916 55.8199C111.936 55.5932 111.867 55.3676 111.724 55.1904C111.581 55.0133 111.375 54.8982 111.15 54.8694ZM111.15 56.5098C111.007 56.5317 110.862 56.5095 110.732 56.4462C110.603 56.3828 110.496 56.2814 110.426 56.1555C110.356 56.0296 110.326 55.8853 110.341 55.742C110.355 55.5987 110.413 55.4632 110.507 55.3538C110.601 55.2445 110.726 55.1664 110.865 55.1302C111.004 55.094 111.152 55.1014 111.287 55.1513C111.422 55.2012 111.538 55.2913 111.621 55.4095C111.703 55.5276 111.747 55.6682 111.747 55.8123C111.76 55.9839 111.704 56.1536 111.592 56.2843C111.48 56.415 111.321 56.4961 111.15 56.5098ZM119.451 54.4861C119.256 54.445 119.053 54.4652 118.87 54.544C118.687 54.6229 118.533 54.7564 118.429 54.9264C118.324 55.0963 118.275 55.2944 118.288 55.4933C118.301 55.6922 118.375 55.8823 118.5 56.0375C118.625 56.1927 118.795 56.3053 118.987 56.36C119.179 56.4147 119.383 56.4087 119.571 56.3429C119.759 56.277 119.922 56.1546 120.038 55.9924C120.154 55.8301 120.217 55.636 120.218 55.4366C120.237 55.2099 120.169 54.9843 120.026 54.8072C119.883 54.63 119.677 54.515 119.451 54.4861ZM119.451 56.1265C119.309 56.1485 119.163 56.1263 119.034 56.0629C118.904 55.9996 118.798 55.8981 118.728 55.7722C118.658 55.6463 118.628 55.502 118.642 55.3587C118.657 55.2154 118.715 55.0799 118.809 54.9706C118.902 54.8612 119.027 54.7832 119.167 54.7469C119.306 54.7107 119.453 54.7181 119.588 54.768C119.723 54.8179 119.84 54.908 119.922 55.0262C120.005 55.1444 120.049 55.2849 120.049 55.429C120.058 55.5993 119.999 55.7662 119.886 55.8937C119.772 56.0213 119.614 56.0994 119.444 56.1112L119.451 56.1265ZM129.018 53.9955C128.823 53.9544 128.62 53.9746 128.437 54.0535C128.254 54.1323 128.099 54.2658 127.995 54.4358C127.891 54.6057 127.842 54.8038 127.855 55.0027C127.868 55.2016 127.942 55.3917 128.067 55.5469C128.192 55.7021 128.362 55.8147 128.554 55.8694C128.745 55.9241 128.949 55.9181 129.137 55.8523C129.326 55.7865 129.489 55.664 129.605 55.5018C129.72 55.3395 129.783 55.1454 129.784 54.946C129.804 54.7193 129.735 54.4937 129.592 54.3166C129.449 54.1394 129.244 54.0244 129.018 53.9955ZM129.018 55.6359C128.875 55.6579 128.73 55.6357 128.6 55.5723C128.471 55.509 128.364 55.4075 128.294 55.2816C128.224 55.1558 128.194 55.0114 128.209 54.8681C128.223 54.7248 128.281 54.5893 128.375 54.48C128.469 54.3706 128.594 54.2926 128.733 54.2564C128.873 54.2201 129.02 54.2275 129.155 54.2774C129.29 54.3273 129.407 54.4174 129.489 54.5356C129.571 54.6538 129.616 54.7943 129.616 54.9384C129.622 55.024 129.611 55.11 129.584 55.1914C129.557 55.2729 129.514 55.3482 129.458 55.413C129.402 55.4778 129.333 55.5309 129.256 55.5692C129.179 55.6074 129.096 55.6301 129.01 55.6359H129.018ZM121.935 50.2164C121.74 50.1753 121.537 50.1955 121.354 50.2744C121.171 50.3532 121.016 50.4867 120.912 50.6567C120.808 50.8266 120.759 51.0247 120.772 51.2236C120.785 51.4225 120.859 51.6126 120.984 51.7678C121.109 51.923 121.279 52.0357 121.471 52.0903C121.662 52.145 121.866 52.139 122.055 52.0732C122.243 52.0074 122.406 51.8849 122.522 51.7227C122.638 51.5604 122.7 51.3663 122.701 51.167C122.721 50.9402 122.652 50.7146 122.509 50.5375C122.367 50.3603 122.161 50.2453 121.935 50.2164ZM121.935 51.8492C121.765 51.8355 121.607 51.7555 121.495 51.6265C121.383 51.4974 121.326 51.3297 121.337 51.1593C121.323 51.0728 121.328 50.9842 121.352 50.8998C121.375 50.8154 121.417 50.7372 121.474 50.6705C121.531 50.6038 121.601 50.5502 121.681 50.5134C121.761 50.4767 121.847 50.4577 121.935 50.4577C122.023 50.4577 122.109 50.4767 122.189 50.5134C122.268 50.5502 122.339 50.6038 122.396 50.6705C122.453 50.7372 122.494 50.8154 122.518 50.8998C122.542 50.9842 122.547 51.0728 122.533 51.1593C122.543 51.3309 122.486 51.4998 122.372 51.629C122.259 51.7582 122.099 51.8374 121.927 51.8492H121.935ZM121.881 47.4415C122.076 47.4827 122.279 47.4624 122.462 47.3836C122.646 47.3048 122.8 47.1712 122.904 47.0013C123.008 46.8313 123.057 46.6333 123.044 46.4344C123.032 46.2354 122.958 46.0453 122.832 45.8901C122.707 45.735 122.537 45.6223 122.345 45.5676C122.154 45.513 121.95 45.519 121.762 45.5848C121.573 45.6506 121.41 45.773 121.294 45.9353C121.179 46.0975 121.116 46.2917 121.115 46.491C121.095 46.7178 121.164 46.9433 121.307 47.1205C121.45 47.2976 121.655 47.4127 121.881 47.4415ZM121.881 45.7934C122.051 45.8072 122.209 45.8871 122.321 46.0162C122.433 46.1452 122.49 46.3129 122.479 46.4833C122.493 46.5699 122.488 46.6584 122.464 46.7428C122.441 46.8272 122.399 46.9055 122.342 46.9722C122.285 47.0389 122.215 47.0925 122.135 47.1292C122.055 47.1659 121.969 47.185 121.881 47.185C121.794 47.185 121.707 47.1659 121.627 47.1292C121.548 47.0925 121.477 47.0389 121.42 46.9722C121.363 46.9055 121.322 46.8272 121.298 46.7428C121.274 46.6584 121.269 46.5699 121.283 46.4833C121.273 46.3129 121.329 46.1452 121.441 46.0162C121.553 45.8871 121.711 45.8072 121.881 45.7934ZM116.009 50.3314C115.787 50.3716 115.585 50.4888 115.44 50.6625C115.295 50.8363 115.215 51.0555 115.215 51.2819C115.215 51.5084 115.295 51.7276 115.44 51.9013C115.585 52.0751 115.787 52.1923 116.009 52.2325C116.232 52.1923 116.434 52.0751 116.579 51.9013C116.724 51.7276 116.804 51.5084 116.804 51.2819C116.804 51.0555 116.724 50.8363 116.579 50.6625C116.434 50.4888 116.232 50.3716 116.009 50.3314ZM116.009 51.9718C115.838 51.9581 115.679 51.8771 115.567 51.7464C115.455 51.6157 115.399 51.4459 115.412 51.2743C115.398 51.1877 115.403 51.0992 115.426 51.0148C115.45 50.9304 115.492 50.8522 115.549 50.7854C115.605 50.7187 115.676 50.6652 115.756 50.6284C115.835 50.5917 115.922 50.5727 116.009 50.5727C116.097 50.5727 116.184 50.5917 116.263 50.6284C116.343 50.6652 116.414 50.7187 116.47 50.7854C116.527 50.8522 116.569 50.9304 116.593 51.0148C116.616 51.0992 116.621 51.1877 116.607 51.2743C116.614 51.3599 116.603 51.4459 116.576 51.5273C116.549 51.6088 116.506 51.6841 116.45 51.7489C116.393 51.8137 116.325 51.8668 116.248 51.9051C116.171 51.9433 116.087 51.966 116.002 51.9718H116.009ZM108.007 50.5384C107.813 50.4989 107.612 50.5202 107.431 50.5993C107.25 50.6785 107.098 50.8117 106.996 50.9807C106.893 51.1496 106.846 51.3461 106.859 51.5432C106.873 51.7403 106.947 51.9284 107.072 52.0817C107.196 52.235 107.365 52.346 107.555 52.3995C107.746 52.4531 107.948 52.4465 108.134 52.3808C108.32 52.3151 108.482 52.1933 108.596 52.0323C108.711 51.8713 108.772 51.6788 108.773 51.4812C108.793 51.2553 108.724 51.0307 108.581 50.8548C108.438 50.6788 108.232 50.5654 108.007 50.5384ZM108.007 52.1711C107.835 52.1574 107.676 52.0764 107.564 51.9457C107.452 51.815 107.396 51.6453 107.409 51.4736C107.426 51.3591 107.476 51.252 107.553 51.1651C107.63 51.0782 107.73 51.0151 107.841 50.9832C107.953 50.9514 108.071 50.9523 108.182 50.9856C108.293 51.019 108.392 51.0835 108.467 51.1715C108.543 51.2594 108.591 51.3672 108.607 51.482C108.623 51.5967 108.606 51.7137 108.557 51.8189C108.509 51.9241 108.431 52.0133 108.334 52.0757C108.236 52.1381 108.123 52.1713 108.007 52.1711ZM128.964 51.8109C129.157 51.8503 129.358 51.8291 129.539 51.7503C129.72 51.6714 129.872 51.5386 129.974 51.3702C130.077 51.2017 130.125 51.0057 130.112 50.8088C130.099 50.612 130.025 50.424 129.902 50.2705C129.778 50.117 129.61 50.0054 129.42 49.951C129.23 49.8966 129.029 49.902 128.842 49.9665C128.656 50.0311 128.494 50.1515 128.379 50.3115C128.263 50.4714 128.2 50.6631 128.198 50.8603C128.178 51.0871 128.247 51.3127 128.39 51.4898C128.533 51.667 128.738 51.782 128.964 51.8109ZM128.964 50.1628C129.136 50.1765 129.295 50.2575 129.407 50.3882C129.519 50.5189 129.575 50.6887 129.562 50.8603C129.576 50.9469 129.571 51.0354 129.547 51.1198C129.524 51.2042 129.482 51.2825 129.425 51.3492C129.368 51.4159 129.298 51.4695 129.218 51.5062C129.138 51.5429 129.052 51.562 128.964 51.562C128.877 51.562 128.79 51.5429 128.71 51.5062C128.631 51.4695 128.56 51.4159 128.503 51.3492C128.446 51.2825 128.405 51.2042 128.381 51.1198C128.357 51.0354 128.352 50.9469 128.366 50.8603C128.353 50.6899 128.408 50.5212 128.519 50.3907C128.629 50.2603 128.786 50.1784 128.956 50.1628H128.964ZM135.066 50.8297C135.039 50.6776 134.97 50.5363 134.865 50.4228C134.76 50.3092 134.625 50.2281 134.476 50.1892C134.327 50.1503 134.169 50.1551 134.022 50.2032C133.876 50.2513 133.746 50.3405 133.648 50.4603C133.551 50.5801 133.49 50.7254 133.473 50.8789C133.456 51.0323 133.483 51.1874 133.552 51.3257C133.621 51.464 133.728 51.5797 133.86 51.6589C133.993 51.7381 134.145 51.7776 134.299 51.7725C134.524 51.7437 134.728 51.6298 134.871 51.4543C135.014 51.2788 135.083 51.0552 135.066 50.8297ZM133.663 50.8297C133.681 50.7152 133.731 50.6081 133.807 50.5212C133.884 50.4343 133.984 50.3712 134.095 50.3394C134.207 50.3075 134.325 50.3084 134.436 50.3417C134.547 50.3751 134.646 50.4396 134.721 50.5276C134.797 50.6155 134.845 50.7233 134.861 50.8381C134.877 50.9528 134.86 51.0698 134.812 51.175C134.763 51.2802 134.686 51.3694 134.588 51.4318C134.49 51.4942 134.377 51.5274 134.261 51.5272C134.175 51.5205 134.092 51.4968 134.015 51.4577C133.939 51.4185 133.871 51.3646 133.815 51.299C133.76 51.2335 133.718 51.1576 133.692 51.0757C133.665 50.9939 133.656 50.9076 133.663 50.822V50.8297ZM141.712 49.6799C141.517 49.6387 141.314 49.659 141.131 49.7378C140.948 49.8166 140.793 49.9501 140.689 50.1201C140.585 50.2901 140.536 50.4881 140.549 50.687C140.562 50.886 140.636 51.0761 140.761 51.2312C140.886 51.3864 141.056 51.4991 141.248 51.5537C141.439 51.6084 141.643 51.6024 141.832 51.5366C142.02 51.4708 142.183 51.3483 142.299 51.1861C142.415 51.0238 142.477 50.8297 142.478 50.6304C142.498 50.4036 142.429 50.1781 142.286 50.0009C142.144 49.8237 141.938 49.7087 141.712 49.6799ZM141.712 51.3203C141.54 51.3065 141.38 51.2257 141.266 51.0953C141.153 50.9648 141.096 50.7951 141.106 50.6227C141.097 50.538 141.105 50.4522 141.131 50.3709C141.157 50.2897 141.2 50.2148 141.256 50.1512C141.313 50.0877 141.383 50.0368 141.461 50.0019C141.538 49.9671 141.623 49.9491 141.708 49.9491C141.793 49.9491 141.878 49.9671 141.955 50.0019C142.033 50.0368 142.103 50.0877 142.16 50.1512C142.216 50.2148 142.259 50.2897 142.285 50.3709C142.311 50.4522 142.319 50.538 142.31 50.6227C142.316 50.7083 142.305 50.7943 142.278 50.8758C142.251 50.9572 142.208 51.0325 142.152 51.0974C142.096 51.1622 142.027 51.2152 141.95 51.2535C141.874 51.2917 141.79 51.3144 141.704 51.3203H141.712ZM136.492 45.9238C136.296 45.8826 136.093 45.9029 135.91 45.9821C135.726 46.0612 135.572 46.1952 135.468 46.3656C135.364 46.5361 135.315 46.7346 135.329 46.9338C135.342 47.133 135.417 47.3232 135.543 47.4781C135.669 47.633 135.84 47.7451 136.032 47.7989C136.224 47.8528 136.429 47.8456 136.617 47.7786C136.805 47.7115 136.967 47.5878 137.082 47.4245C137.197 47.2612 137.259 47.0663 137.258 46.8666C137.276 46.6411 137.206 46.4175 137.063 46.242C136.921 46.0665 136.716 45.9526 136.492 45.9238ZM136.492 47.5565C136.322 47.5428 136.164 47.4628 136.052 47.3338C135.94 47.2048 135.883 47.037 135.894 46.8666C135.88 46.7801 135.885 46.6915 135.909 46.6071C135.932 46.5228 135.974 46.4445 136.031 46.3778C136.088 46.3111 136.158 46.2575 136.238 46.2208C136.317 46.184 136.404 46.165 136.492 46.165C136.579 46.165 136.666 46.184 136.746 46.2208C136.825 46.2575 136.896 46.3111 136.953 46.3778C137.009 46.4445 137.051 46.5228 137.075 46.6071C137.098 46.6915 137.103 46.7801 137.09 46.8666C137.099 46.954 137.091 47.0425 137.065 47.1266C137.04 47.2108 136.997 47.2888 136.941 47.3562C136.884 47.4235 136.814 47.4787 136.736 47.5184C136.657 47.5581 136.572 47.5815 136.484 47.5872L136.492 47.5565ZM141.674 47.6408C141.869 47.682 142.072 47.6617 142.255 47.5829C142.438 47.5041 142.592 47.3705 142.696 47.2006C142.8 47.0306 142.85 46.8326 142.837 46.6337C142.824 46.4347 142.75 46.2446 142.625 46.0894C142.5 45.9343 142.329 45.8216 142.138 45.7669C141.946 45.7123 141.742 45.7183 141.554 45.7841C141.366 45.8499 141.203 45.9723 141.087 46.1346C140.971 46.2968 140.908 46.491 140.907 46.6903C140.887 46.9171 140.956 47.1426 141.099 47.3198C141.242 47.497 141.448 47.612 141.674 47.6408ZM141.674 45.9927C141.844 46.0065 142.002 46.0865 142.114 46.2155C142.225 46.3445 142.282 46.5122 142.271 46.6826C142.285 46.7692 142.28 46.8577 142.257 46.9421C142.233 47.0265 142.191 47.1048 142.134 47.1715C142.078 47.2382 142.007 47.2918 141.927 47.3285C141.848 47.3652 141.761 47.3843 141.674 47.3843C141.586 47.3843 141.499 47.3652 141.42 47.3285C141.34 47.2918 141.27 47.2382 141.213 47.1715C141.156 47.1048 141.114 47.0265 141.09 46.9421C141.067 46.8577 141.062 46.7692 141.076 46.6826C141.065 46.5135 141.121 46.3468 141.231 46.218C141.341 46.0891 141.497 46.0084 141.666 45.9927H141.674ZM142.149 41.8764C141.955 41.8369 141.754 41.8582 141.573 41.9373C141.392 42.0165 141.24 42.1497 141.138 42.3187C141.035 42.4876 140.988 42.6841 141.001 42.8812C141.015 43.0783 141.089 43.2664 141.214 43.4197C141.338 43.5729 141.507 43.684 141.697 43.7375C141.888 43.7911 142.09 43.7845 142.276 43.7188C142.462 43.653 142.624 43.5313 142.738 43.3703C142.853 43.2093 142.915 43.0168 142.915 42.8192C142.935 42.5933 142.866 42.3687 142.723 42.1928C142.58 42.0168 142.374 41.9034 142.149 41.8764ZM142.149 43.5091C141.977 43.4954 141.818 43.4144 141.706 43.2837C141.594 43.153 141.538 42.9832 141.551 42.8116C141.541 42.7268 141.55 42.641 141.576 42.5598C141.602 42.4786 141.644 42.4037 141.701 42.3401C141.758 42.2765 141.827 42.2256 141.905 42.1908C141.983 42.156 142.067 42.138 142.153 42.138C142.238 42.138 142.322 42.156 142.4 42.1908C142.478 42.2256 142.547 42.2765 142.604 42.3401C142.661 42.4037 142.704 42.4786 142.73 42.5598C142.756 42.641 142.764 42.7268 142.754 42.8116C142.765 42.9852 142.706 43.156 142.591 43.2867C142.477 43.4173 142.315 43.4973 142.141 43.5091H142.149ZM139.451 38.9711C139.424 38.8191 139.354 38.6778 139.25 38.5643C139.145 38.4507 139.01 38.3696 138.861 38.3307C138.711 38.2918 138.554 38.2966 138.407 38.3447C138.26 38.3928 138.131 38.482 138.033 38.6018C137.936 38.7216 137.875 38.8669 137.858 39.0203C137.841 39.1738 137.868 39.3289 137.937 39.4672C138.005 39.6055 138.112 39.7212 138.245 39.8004C138.377 39.8796 138.53 39.9191 138.684 39.914C138.908 39.8852 139.113 39.7712 139.256 39.5958C139.398 39.4203 139.468 39.1966 139.451 38.9711ZM138.048 38.9711C138.065 38.8566 138.115 38.7496 138.192 38.6626C138.269 38.5757 138.369 38.5126 138.48 38.4808C138.592 38.449 138.71 38.4498 138.821 38.4832C138.932 38.5166 139.031 38.5811 139.106 38.669C139.182 38.757 139.23 38.8648 139.246 38.9795C139.262 39.0943 139.245 39.2112 139.196 39.3165C139.148 39.4217 139.07 39.5108 138.973 39.5733C138.875 39.6357 138.762 39.6688 138.646 39.6687C138.56 39.6619 138.477 39.6383 138.4 39.5991C138.324 39.56 138.256 39.5061 138.2 39.4405C138.144 39.375 138.102 39.2991 138.076 39.2172C138.05 39.1353 138.04 39.0491 138.048 38.9635V38.9711ZM136.798 34.5558C136.765 34.4165 136.694 34.2892 136.592 34.1884C136.491 34.0875 136.363 34.0171 136.223 33.9852C136.084 33.9532 135.938 33.961 135.803 34.0076C135.668 34.0542 135.548 34.1378 135.458 34.2488C135.367 34.3599 135.31 34.4941 135.292 34.6361C135.274 34.7781 135.296 34.9223 135.356 35.0524C135.416 35.1825 135.511 35.2932 135.63 35.3721C135.749 35.451 135.889 35.4948 136.032 35.4987C136.256 35.4699 136.461 35.3559 136.603 35.1804C136.746 35.0049 136.816 34.7813 136.798 34.5558ZM135.403 34.5558C135.421 34.4413 135.471 34.3342 135.548 34.2473C135.624 34.1604 135.724 34.0973 135.836 34.0655C135.947 34.0337 136.065 34.0345 136.176 34.0679C136.287 34.1012 136.386 34.1657 136.462 34.2537C136.537 34.3417 136.586 34.4494 136.602 34.5642C136.618 34.679 136.6 34.7959 136.552 34.9011C136.503 35.0064 136.426 35.0955 136.328 35.1579C136.23 35.2204 136.117 35.2535 136.001 35.2534C135.829 35.2397 135.67 35.1586 135.558 35.0279C135.446 34.8972 135.39 34.7275 135.403 34.5558ZM134.744 28.7837C134.943 28.7777 135.135 28.7132 135.298 28.5985C135.46 28.4837 135.585 28.3236 135.657 28.1383C135.729 27.953 135.744 27.7505 135.702 27.5563C135.659 27.3621 135.561 27.1847 135.418 27.0462C135.275 26.9078 135.095 26.8144 134.9 26.7778C134.704 26.7412 134.502 26.7629 134.319 26.8403C134.136 26.9177 133.98 27.0473 133.87 27.213C133.76 27.3787 133.702 27.5731 133.701 27.7719C133.703 27.9067 133.732 28.0399 133.785 28.1638C133.839 28.2876 133.916 28.3998 134.013 28.4937C134.11 28.5877 134.224 28.6616 134.35 28.7114C134.475 28.7612 134.609 28.7857 134.744 28.7837ZM134.744 27.0206C134.896 27.0206 135.044 27.0656 135.17 27.1498C135.296 27.234 135.394 27.3538 135.452 27.4938C135.51 27.6339 135.525 27.788 135.496 27.9367C135.466 28.0854 135.393 28.222 135.286 28.3292C135.179 28.4364 135.042 28.5094 134.894 28.539C134.745 28.5686 134.591 28.5534 134.451 28.4954C134.311 28.4374 134.191 28.3391 134.107 28.2131C134.022 28.087 133.977 27.9388 133.977 27.7872C133.977 27.5865 134.056 27.3938 134.196 27.2505C134.337 27.1072 134.528 27.0246 134.729 27.0206H134.744ZM139.228 28.8374C139.427 28.8313 139.62 28.7669 139.782 28.6521C139.944 28.5373 140.069 28.3773 140.141 28.1919C140.213 28.0066 140.229 27.8042 140.186 27.61C140.144 27.4158 140.045 27.2383 139.902 27.0999C139.76 26.9614 139.579 26.8681 139.384 26.8314C139.189 26.7948 138.987 26.8166 138.804 26.894C138.621 26.9714 138.464 27.101 138.354 27.2667C138.245 27.4323 138.186 27.6267 138.186 27.8255C138.187 27.9607 138.215 28.0944 138.268 28.2187C138.321 28.343 138.398 28.4555 138.495 28.5497C138.592 28.6438 138.707 28.7178 138.833 28.7672C138.959 28.8165 139.093 28.8404 139.228 28.8374ZM139.228 27.0743C139.38 27.0743 139.528 27.1192 139.654 27.2035C139.78 27.2877 139.878 27.4074 139.936 27.5475C139.994 27.6876 140.01 27.8417 139.98 27.9904C139.951 28.1391 139.878 28.2757 139.77 28.3829C139.663 28.4901 139.527 28.5631 139.378 28.5927C139.229 28.6222 139.075 28.6071 138.935 28.549C138.795 28.491 138.675 28.3928 138.591 28.2667C138.507 28.1407 138.462 27.9924 138.462 27.8408C138.462 27.6389 138.541 27.445 138.684 27.3015C138.826 27.158 139.019 27.0763 139.221 27.0743H139.228ZM143.759 28.6074C143.957 28.6014 144.15 28.5369 144.312 28.4222C144.474 28.3074 144.599 28.1473 144.671 27.962C144.743 27.7766 144.759 27.5742 144.716 27.38C144.674 27.1858 144.575 27.0084 144.433 26.8699C144.29 26.7315 144.11 26.6381 143.914 26.6015C143.719 26.5649 143.517 26.5866 143.334 26.664C143.151 26.7414 142.995 26.871 142.885 27.0367C142.775 27.2024 142.716 27.3967 142.716 27.5955C142.718 27.7304 142.747 27.8636 142.8 27.9875C142.854 28.1113 142.931 28.2234 143.028 28.3174C143.125 28.4114 143.239 28.4853 143.364 28.5351C143.49 28.5849 143.624 28.6094 143.759 28.6074ZM143.759 26.8443C143.91 26.8443 144.058 26.8893 144.184 26.9735C144.311 27.0577 144.409 27.1775 144.467 27.3175C144.525 27.4576 144.54 27.6117 144.51 27.7604C144.481 27.9091 144.408 28.0457 144.301 28.1529C144.193 28.2601 144.057 28.3331 143.908 28.3627C143.759 28.3923 143.605 28.3771 143.465 28.3191C143.325 28.2611 143.205 28.1628 143.121 28.0367C143.037 27.9107 142.992 27.7625 142.992 27.6109C142.992 27.4089 143.072 27.2151 143.214 27.0715C143.356 26.928 143.549 26.8463 143.751 26.8443H143.759ZM141.812 34.6555C141.784 34.504 141.713 34.3638 141.608 34.2514C141.502 34.1389 141.367 34.0591 141.218 34.0213C141.068 33.9834 140.911 33.9893 140.765 34.038C140.619 34.0867 140.49 34.1764 140.393 34.2962C140.297 34.4161 140.237 34.5612 140.22 34.7143C140.203 34.8674 140.231 35.0221 140.299 35.16C140.368 35.2978 140.475 35.4132 140.607 35.4922C140.739 35.5713 140.891 35.6108 141.045 35.606C141.27 35.5754 141.475 35.4598 141.617 35.2831C141.76 35.1064 141.829 34.8818 141.812 34.6555ZM140.409 34.6555C140.421 34.5404 140.465 34.4312 140.537 34.3406C140.609 34.2501 140.706 34.1822 140.815 34.1447C140.925 34.1073 141.043 34.102 141.155 34.1295C141.267 34.157 141.369 34.216 141.449 34.2997C141.529 34.3834 141.583 34.4882 141.605 34.6018C141.628 34.7153 141.617 34.8328 141.574 34.9404C141.532 35.048 141.459 35.1411 141.366 35.2088C141.272 35.2765 141.16 35.3159 141.045 35.3224C140.959 35.3204 140.874 35.3013 140.795 35.2662C140.716 35.2312 140.645 35.1808 140.586 35.118C140.527 35.0553 140.481 34.9814 140.45 34.9007C140.42 34.82 140.406 34.734 140.409 34.6478V34.6555ZM144.387 33.5823C144.192 33.5412 143.989 33.5614 143.806 33.6402C143.623 33.719 143.469 33.8526 143.364 34.0225C143.26 34.1925 143.211 34.3905 143.224 34.5895C143.237 34.7884 143.311 34.9785 143.436 35.1337C143.561 35.2889 143.731 35.4015 143.923 35.4562C144.115 35.5109 144.319 35.5049 144.507 35.439C144.695 35.3732 144.858 35.2508 144.974 35.0885C145.09 34.9263 145.153 34.7322 145.154 34.5328C145.173 34.3061 145.105 34.0805 144.962 33.9033C144.819 33.7262 144.613 33.6111 144.387 33.5823ZM144.387 35.2227C144.245 35.243 144.1 35.2194 143.971 35.1549C143.843 35.0904 143.737 34.9882 143.668 34.8619C143.599 34.7357 143.571 34.5914 143.586 34.4485C143.602 34.3056 143.661 34.1708 143.755 34.0622C143.849 33.9537 143.974 33.8765 144.114 33.8411C144.253 33.8057 144.4 33.8137 144.535 33.864C144.669 33.9144 144.785 34.0047 144.867 34.1229C144.949 34.241 144.993 34.3814 144.993 34.5252C144.999 34.6114 144.988 34.698 144.96 34.7799C144.933 34.8618 144.889 34.9375 144.832 35.0024C144.775 35.0673 144.706 35.1202 144.628 35.158C144.55 35.1959 144.466 35.2179 144.379 35.2227H144.387ZM146.143 51.3509C146.338 51.3921 146.541 51.3718 146.724 51.293C146.907 51.2142 147.061 51.0806 147.165 50.9107C147.269 50.7407 147.319 50.5427 147.306 50.3438C147.293 50.1448 147.219 49.9547 147.094 49.7995C146.969 49.6444 146.798 49.5317 146.607 49.477C146.415 49.4224 146.211 49.4284 146.023 49.4942C145.835 49.56 145.672 49.6824 145.556 49.8447C145.44 50.0069 145.377 50.2011 145.376 50.4004C145.356 50.6272 145.425 50.8527 145.568 51.0299C145.711 51.2071 145.917 51.3221 146.143 51.3509ZM146.143 49.7029C146.314 49.7147 146.474 49.7938 146.587 49.923C146.701 50.0523 146.759 50.2211 146.748 50.3927C146.758 50.4775 146.749 50.5633 146.723 50.6445C146.698 50.7258 146.655 50.8006 146.598 50.8642C146.541 50.9278 146.472 50.9787 146.394 51.0135C146.316 51.0483 146.232 51.0663 146.146 51.0663C146.061 51.0663 145.977 51.0483 145.899 51.0135C145.821 50.9787 145.752 50.9278 145.695 50.8642C145.638 50.8006 145.595 50.7258 145.569 50.6445C145.543 50.5633 145.535 50.4775 145.545 50.3927C145.534 50.2236 145.59 50.0569 145.7 49.9281C145.81 49.7993 145.966 49.7185 146.135 49.7029H146.143ZM134.66 53.9572C134.465 53.9161 134.262 53.9363 134.078 54.0151C133.895 54.0939 133.741 54.2275 133.637 54.3974C133.533 54.5674 133.484 54.7654 133.496 54.9644C133.509 55.1633 133.583 55.3534 133.709 55.5086C133.834 55.6638 134.004 55.7764 134.195 55.8311C134.387 55.8858 134.591 55.8798 134.779 55.8139C134.967 55.7481 135.131 55.6257 135.246 55.4634C135.362 55.3012 135.425 55.1071 135.426 54.9077C135.446 54.681 135.377 54.4554 135.234 54.2782C135.091 54.1011 134.885 53.986 134.66 53.9572ZM134.66 55.5976C134.488 55.5839 134.329 55.5028 134.217 55.3722C134.105 55.2415 134.049 55.0717 134.062 54.9001C134.048 54.8135 134.053 54.725 134.077 54.6406C134.1 54.5562 134.142 54.4779 134.199 54.4112C134.256 54.3445 134.326 54.2909 134.406 54.2542C134.485 54.2175 134.572 54.1984 134.66 54.1984C134.747 54.1984 134.834 54.2175 134.913 54.2542C134.993 54.2909 135.064 54.3445 135.121 54.4112C135.177 54.4779 135.219 54.5562 135.243 54.6406C135.266 54.725 135.271 54.8135 135.258 54.9001C135.264 54.9857 135.253 55.0717 135.226 55.1531C135.199 55.2346 135.156 55.3099 135.1 55.3747C135.043 55.4395 134.975 55.4926 134.898 55.5308C134.821 55.5691 134.738 55.5918 134.652 55.5976H134.66ZM139.382 53.8882C139.187 53.8471 138.984 53.8673 138.8 53.9461C138.617 54.025 138.463 54.1585 138.359 54.3285C138.255 54.4984 138.206 54.6964 138.218 54.8954C138.231 55.0943 138.305 55.2844 138.43 55.4396C138.556 55.5948 138.726 55.7074 138.917 55.7621C139.109 55.8168 139.313 55.8108 139.501 55.745C139.689 55.6791 139.853 55.5567 139.968 55.3945C140.084 55.2322 140.147 55.0381 140.148 54.8387C140.168 54.612 140.099 54.3864 139.956 54.2093C139.813 54.0321 139.607 53.917 139.382 53.8882ZM139.382 55.5286C139.239 55.5505 139.094 55.5283 138.964 55.465C138.835 55.4017 138.728 55.3002 138.658 55.1743C138.588 55.0484 138.558 54.9041 138.573 54.7608C138.587 54.6175 138.645 54.482 138.739 54.3727C138.833 54.2633 138.958 54.1853 139.097 54.149C139.236 54.1128 139.384 54.1202 139.519 54.1701C139.654 54.22 139.77 54.3101 139.853 54.4283C139.935 54.5465 139.979 54.687 139.979 54.8311C139.986 54.9167 139.975 55.0027 139.948 55.0841C139.921 55.1656 139.878 55.2409 139.822 55.3057C139.765 55.3705 139.697 55.4236 139.62 55.4618C139.543 55.5001 139.46 55.5228 139.374 55.5286H139.382ZM146.411 53.6429C146.218 53.6035 146.017 53.6246 145.836 53.7035C145.655 53.7824 145.503 53.9151 145.401 54.0836C145.298 54.2521 145.25 54.4481 145.263 54.6449C145.276 54.8417 145.35 55.0297 145.473 55.1833C145.597 55.3368 145.765 55.4484 145.955 55.5028C146.145 55.5572 146.346 55.5518 146.533 55.4872C146.719 55.4227 146.881 55.3023 146.996 55.1423C147.112 54.9823 147.175 54.7907 147.177 54.5934C147.197 54.3667 147.128 54.1411 146.985 53.964C146.842 53.7868 146.637 53.6718 146.411 53.6429ZM146.411 55.2527C146.268 55.2746 146.123 55.2524 145.993 55.189C145.864 55.1257 145.757 55.0243 145.687 54.8984C145.617 54.7725 145.587 54.6282 145.602 54.4848C145.616 54.3415 145.674 54.2061 145.768 54.0967C145.862 53.9873 145.987 53.9093 146.126 53.8731C146.266 53.8369 146.413 53.8442 146.548 53.8941C146.683 53.9441 146.8 54.0342 146.882 54.1523C146.964 54.2705 147.009 54.4111 147.009 54.5551C147.019 54.7263 146.963 54.895 146.851 55.0252C146.74 55.1554 146.582 55.237 146.411 55.2527ZM55.5977 95.0136C55.6935 95.0136 55.7872 94.9851 55.8667 94.9317C55.9463 94.8783 56.0082 94.8024 56.0445 94.7137C56.0808 94.625 56.0899 94.5275 56.0707 94.4336C56.0514 94.3397 56.0047 94.2537 55.9363 94.1865C55.868 94.1193 55.7813 94.0739 55.6871 94.0561C55.5929 94.0384 55.4956 94.049 55.4075 94.0868C55.3194 94.1245 55.2445 94.1876 55.1924 94.268C55.1403 94.3484 55.1132 94.4425 55.1147 94.5384C55.1147 94.6014 55.1273 94.6639 55.1516 94.722C55.176 94.7802 55.2117 94.8329 55.2566 94.8772C55.3016 94.9214 55.3549 94.9562 55.4134 94.9797C55.472 95.0031 55.5346 95.0146 55.5977 95.0136Z" fill="black"/>
<path d="M55.7202 27.6721C55.7202 27.7839 55.7646 27.8911 55.8437 27.9702C55.9228 28.0493 56.03 28.0937 56.1418 28.0937C56.2536 28.0937 56.3609 28.0493 56.4399 27.9702C56.519 27.8911 56.5634 27.7839 56.5634 27.6721C56.5634 27.5603 56.519 27.453 56.4399 27.374C56.3609 27.2949 56.2536 27.2505 56.1418 27.2505C56.03 27.2505 55.9228 27.2949 55.8437 27.374C55.7646 27.453 55.7202 27.5603 55.7202 27.6721Z" fill="black"/>
<path d="M56.9238 27.4805C56.9238 27.5882 56.9666 27.6916 57.0428 27.7678C57.119 27.844 57.2223 27.8868 57.3301 27.8868C57.4378 27.8868 57.5412 27.844 57.6174 27.7678C57.6936 27.6916 57.7364 27.5882 57.7364 27.4805C57.7364 27.3727 57.6936 27.2694 57.6174 27.1932C57.5412 27.117 57.4378 27.0742 57.3301 27.0742C57.2223 27.0742 57.119 27.117 57.0428 27.1932C56.9666 27.2694 56.9238 27.3727 56.9238 27.4805Z" fill="black"/>
<path d="M57.1233 26.3767C57.2412 26.3767 57.3543 26.3299 57.4377 26.2465C57.5211 26.1631 57.5679 26.0501 57.5679 25.9321C57.5679 25.8142 57.5211 25.7011 57.4377 25.6178C57.3543 25.5344 57.2412 25.4875 57.1233 25.4875C57.0649 25.4875 57.0071 25.499 56.9532 25.5214C56.8992 25.5437 56.8502 25.5765 56.8089 25.6178C56.7676 25.6591 56.7349 25.7081 56.7125 25.762C56.6902 25.8159 56.6787 25.8738 56.6787 25.9321C56.6787 25.9905 56.6902 26.0483 56.7125 26.1023C56.7349 26.1562 56.7676 26.2052 56.8089 26.2465C56.8502 26.2878 56.8992 26.3206 56.9532 26.3429C57.0071 26.3652 57.0649 26.3767 57.1233 26.3767ZM70.4153 65.8004C70.3134 65.8004 70.2138 65.8307 70.1292 65.8875C70.0445 65.9443 69.9787 66.025 69.9401 66.1193C69.9015 66.2136 69.8917 66.3172 69.9122 66.417C69.9326 66.5169 69.9823 66.6084 70.0549 66.6799C70.1275 66.7514 70.2197 66.7997 70.3199 66.8186C70.42 66.8376 70.5235 66.8263 70.6172 66.7863C70.7109 66.7462 70.7906 66.6792 70.8461 66.5937C70.9016 66.5083 70.9304 66.4082 70.9289 66.3063C70.9269 66.1715 70.8719 66.0428 70.7758 65.9481C70.6797 65.8535 70.5502 65.8004 70.4153 65.8004ZM70.1317 62.2819C70.1317 62.3778 70.1602 62.4715 70.2136 62.551C70.267 62.6306 70.3429 62.6925 70.4316 62.7288C70.5203 62.7651 70.6178 62.7742 70.7117 62.755C70.8055 62.7357 70.8916 62.6889 70.9588 62.6206C71.026 62.5523 71.0714 62.4655 71.0892 62.3714C71.1069 62.2772 71.0962 62.1799 71.0585 62.0918C71.0208 62.0037 70.9577 61.9288 70.8773 61.8767C70.7969 61.8245 70.7027 61.7975 70.6069 61.799C70.4802 61.801 70.3593 61.8528 70.2704 61.9431C70.1815 62.0335 70.1316 62.1552 70.1317 62.2819ZM70.3463 59.668C70.4361 59.6695 70.5242 59.6443 70.5996 59.5955C70.675 59.5468 70.7341 59.4767 70.7696 59.3942C70.805 59.3117 70.815 59.2205 70.7984 59.1323C70.7819 59.0441 70.7394 58.9628 70.6765 58.8988C70.6135 58.8347 70.533 58.7909 70.4451 58.7728C70.3571 58.7547 70.2658 58.7632 70.1827 58.7972C70.0996 58.8312 70.0285 58.8892 69.9785 58.9637C69.9284 59.0382 69.9017 59.126 69.9017 59.2157C69.9017 59.3344 69.9483 59.4483 70.0314 59.5329C70.1146 59.6175 70.2277 59.666 70.3463 59.668Z" fill="black"/>
</svg>
