<svg width="154" height="154" viewBox="0 0 154 154" fill="none" xmlns="http://www.w3.org/2000/svg">
<path d="M51.2962 87.3993C51.5185 87.8669 51.7944 88.4571 52.3387 88.5338C53.5345 88.5338 55.2745 87.614 54.7686 86.3262C54.4997 85.6426 54.1926 84.9747 53.8487 84.3255C53.6571 83.651 53.3812 83.0148 52.6989 82.9305C52.0683 82.9722 51.4659 83.2078 50.9742 83.605C49.5408 84.3255 50.338 85.345 51.2962 87.3993ZM50.4607 84.4712C50.6446 83.8963 51.7944 83.398 52.5916 83.352C53.1052 83.421 53.2738 84.1799 53.5421 84.6475C53.9407 85.322 54.9372 86.4948 54.4466 87.246C54.213 87.5655 53.9055 87.8237 53.5505 87.9985C53.1954 88.1734 52.8033 88.2597 52.4077 88.2502C51.9094 88.1045 51.7254 87.4837 51.4648 86.8704C51.2042 86.2572 50.2154 85.2607 50.4607 84.4712ZM58.6932 83.1451C58.1873 81.842 57.5204 80.1633 56.317 80.9375C55.5504 81.2824 54.8452 81.52 54.6076 82.0719C54.5339 82.333 54.5226 82.6078 54.5745 82.8741C54.6264 83.1404 54.7402 83.3907 54.9065 83.605C55.3818 84.4942 55.88 87.1081 57.5741 86.2112C59.1225 85.4907 59.7894 85.2377 58.6932 83.1451ZM56.3936 85.7206C56.0433 85.1969 55.7406 84.6427 55.4891 84.0649C54.9372 82.9611 53.9561 82.1103 55.7881 81.589C57.3748 80.7458 57.3211 81.3591 58.1796 83.1221C58.4479 83.6893 58.8235 83.9346 58.9462 84.7701C59.0152 85.2684 58.5322 85.5367 57.9957 85.6823C58.0033 85.437 57.0528 86.5255 56.4166 85.7206H56.3936ZM62.7865 79.8797C62.2882 78.8448 62.1043 78.6992 61.6367 78.5842C61.1156 78.5921 60.6096 78.7608 60.1879 79.0671C58.6549 79.9103 59.1225 80.4009 59.7127 81.8267C60.9085 84.7088 61.3454 84.6322 63.2387 83.3597C63.3753 83.2952 63.4975 83.2038 63.5981 83.0911C63.6987 82.9784 63.7756 82.8467 63.8242 82.7036C63.8728 82.5606 63.8922 82.4093 63.8812 82.2586C63.8701 82.108 63.8289 81.9611 63.76 81.8267C63.4899 81.1518 63.1643 80.5006 62.7865 79.8797ZM62.6945 83.2831C60.7935 84.1339 61.2841 83.9883 59.9657 81.6734C59.705 81.1598 59.2911 80.8532 59.3754 80.0636C59.4751 79.665 60.0423 79.3968 60.3872 79.2971C62.1503 78.5306 61.9203 79.0671 63.0624 81.0831C63.4041 81.4928 63.6079 81.9997 63.645 82.5319C63.5377 83.1374 62.4645 83.2831 62.6945 83.2831ZM69.3633 74.491C68.4358 75.1272 68.9571 76.162 69.5473 77.1202C70.1605 78.5306 70.6511 79.9563 72.0462 79.0671C73.4183 78.3773 74.0315 78.3006 73.4259 76.8672C73.1725 76.1993 72.8649 75.5533 72.5061 74.9355C71.7242 73.2108 70.9884 73.5864 69.3633 74.491ZM70.1988 74.445C70.6971 74.1767 71.2183 73.9161 71.6322 74.2073C72.0353 74.6411 72.3249 75.1677 72.4754 75.7404C72.8894 76.6526 74.2078 78.04 72.759 78.4769C71.4636 79.1591 70.7814 79.3661 70.2525 77.9327C69.9612 77.3118 69.0644 75.909 69.118 75.1655C69.3863 74.7746 69.6086 74.7592 70.1988 74.445ZM73.8475 73.5941C74.7674 75.5488 75.2119 77.7487 76.8063 76.7369C77.8105 76.231 78.8913 75.7711 78.3394 74.7056C78.0548 74.0188 77.7323 73.3484 77.3736 72.6973C76.8753 71.6625 76.6837 71.5092 76.2161 71.4018C75.695 71.4097 75.189 71.5784 74.7674 71.8848L74.4071 72.0764C74.2684 72.1366 74.1434 72.2243 74.0396 72.3342C73.9358 72.4441 73.8553 72.5738 73.803 72.7157C73.7507 72.8575 73.7277 73.0085 73.7353 73.1595C73.743 73.3104 73.7812 73.4583 73.8475 73.5941ZM76.4537 71.8158C76.8535 72.2507 77.1404 72.7771 77.2892 73.3488C77.9178 74.4143 78.7533 75.6484 77.5805 76.0777C75.6949 77.0512 75.7332 76.7982 74.936 75.1042C74.1005 73.6861 73.3186 72.8046 74.7904 72.1837C74.7904 72.314 75.8865 71.4555 76.4537 71.8158ZM65.3007 79.7953C64.6108 78.6609 64.8868 78.5306 63.8903 77.2198C64.2122 78.6455 64.4269 78.4769 64.9788 79.7417C65.2691 80.5382 65.6579 81.2953 66.1362 81.9953C66.2435 81.8803 66.3662 81.888 65.9676 81.0908C65.7746 80.6445 65.5518 80.2117 65.3007 79.7953ZM67.378 77.4574C67.1317 76.8789 66.8233 76.3289 66.4582 75.8171C66.5686 76.4448 66.8031 77.0441 67.148 77.5801C67.7613 78.6609 67.9836 79.734 68.7194 80.6462C69.1027 80.2936 68.0142 78.9982 67.378 77.4574ZM20.8956 101.825C20.0217 100.193 20.2364 100.07 19.4238 99.2652C19.5313 99.8315 19.7502 100.371 20.0677 100.852C20.681 101.925 20.9109 103.006 21.6391 103.918C21.8691 103.711 20.9416 101.91 20.8956 101.825ZM23.9847 102.738C24.1993 102.531 24.0537 102.485 23.9081 102.117C23.6092 101.451 23.2766 100.801 22.9116 100.17C22.6113 99.4002 22.2202 98.6694 21.7464 97.9928C22.0914 99.4875 22.2983 99.2729 22.8426 100.538C23.1264 101.317 23.5103 102.057 23.9847 102.738ZM28.0856 97.7782C27.9006 97.127 27.5821 96.5213 27.1505 95.9998C26.6062 95.5475 26.0697 95.8235 25.5484 96.0765C24.2913 96.6897 24.138 96.843 24.0844 97.3106C24.1013 97.8787 24.2823 98.4298 24.6056 98.8973C25.7017 100.975 25.4641 101.963 27.6717 100.883C27.9529 100.83 28.2124 100.695 28.4181 100.496C28.6238 100.298 28.7667 100.043 28.8292 99.7635C28.7123 99.0598 28.4598 98.3855 28.0856 97.7782ZM28.5226 100.124C27.9783 100.722 27.5951 100.668 26.9895 100.99C26.3839 101.312 26.085 100.86 25.7477 100.369C24.7052 98.2687 24.0537 97.7552 24.5826 97.1036C24.6716 96.9974 24.7815 96.9106 24.9055 96.8487C25.0294 96.7867 25.1648 96.7508 25.3031 96.7433C26.3993 96.1761 26.8362 95.9768 27.3881 96.9656C28.2083 98.8513 28.7985 99.3112 28.5226 100.124ZM32.6005 96.0228C32.2709 94.7044 31.4124 93.0793 30.3009 93.8152C29.5344 94.1601 28.8292 94.3978 28.5916 94.9497C28.5168 95.2102 28.5042 95.4846 28.5548 95.7508C28.6054 96.0171 28.7177 96.2678 28.8828 96.4827C29.3657 97.3796 29.864 99.9858 31.5504 99.0966C33.0144 98.4527 33.0834 98.3301 33.1754 97.9698C33.2202 97.6231 33.1922 97.2709 33.0932 96.9357C32.9942 96.6005 32.8264 96.2895 32.6005 96.0228ZM31.903 98.5907C30.6229 99.2576 30.4466 98.7976 30.3699 98.6597C30.139 98.3767 29.9552 98.0583 29.8257 97.7168C29.1588 96.0535 27.7407 95.034 29.772 94.4437C31.558 93.4932 31.3051 94.4437 32.4319 96.4444C32.6862 96.8 32.847 97.2138 32.8995 97.6478C32.9608 98.0618 32.6542 98.2074 31.903 98.5907ZM33.643 92.0598C33.3757 92.1995 33.172 92.4361 33.0736 92.7212C32.9753 93.0062 32.9897 93.3182 33.1141 93.5929C33.9956 95.3559 34.4249 97.7935 36.1112 96.7203C37.3607 96.0765 37.7133 95.9538 37.7133 95.4939C37.8589 94.7274 36.5021 92.3741 36.5405 92.4278C35.7969 90.8334 35.1071 91.3163 33.643 92.0598ZM34.7315 91.9525C35.9349 91.3316 36.1112 92.4508 36.9544 93.9685C37.422 94.735 37.9126 95.5016 37.0694 95.9461C36.8042 96.0954 36.5304 96.2285 36.2492 96.3447C34.6701 97.0193 35.0994 96.2911 33.9496 94.5357C33.7043 94.0375 33.2827 93.7155 33.367 92.926C33.4667 92.4814 33.85 92.4124 34.7315 91.9525ZM43.7305 90.7567C44.2518 91.8299 44.4357 92.0752 44.888 92.1365C46.0608 92.1365 46.651 91.301 46.651 91.5386C47.5479 90.8947 47.8621 90.7721 46.3674 87.9359C45.8998 86.9164 45.7235 86.6865 45.2176 86.5561C44.5871 86.6044 43.9858 86.8422 43.4929 87.2384C41.8525 88.0432 43.2016 89.3616 43.7305 90.7567ZM45.072 86.9241C45.5779 87.0007 45.7542 87.7519 46.0225 88.2349C46.2907 88.7178 46.6817 89.3846 47.019 90.0592C47.2872 90.5728 46.9806 91.163 46.766 91.2013C44.658 92.3205 44.612 91.9679 43.9682 90.4885C43.8762 90.2815 43.7995 90.2815 43.0713 88.8097C42.4198 87.5986 44.1291 86.9931 45.072 86.9241ZM38.3265 91.7916C38.6178 92.2975 39.4763 94.0911 39.9822 94.9037C40.3501 94.5357 39.3613 93.2786 38.7711 91.9602C38.5094 91.3169 38.1357 90.7252 37.6673 90.2125C37.7753 90.7788 37.9998 91.3165 38.3265 91.7916ZM41.155 90.7567C41.4098 91.1831 41.6302 91.6291 41.8142 92.0905C42.0518 92.5581 42.4428 93.2326 42.6267 93.5162C42.9947 93.156 41.9982 91.8605 41.4156 90.5728C41.1471 89.9162 40.7657 89.3118 40.2888 88.7868C40.4499 89.4924 40.7439 90.161 41.155 90.7567ZM48.736 87.0774C48.5227 86.4274 48.1634 85.8348 47.6858 85.345C47.9465 86.5715 48.2531 86.6251 48.7513 87.7749C48.828 87.9589 49.7248 90.2125 49.9701 89.9595C50.2154 89.7066 48.6977 87.0007 48.736 87.0774ZM46.8426 79.0441C47.3716 79.918 47.9694 81.2058 47.9311 81.1214C47.9927 81.2605 48.0839 81.3845 48.1984 81.4846C48.313 81.5847 48.448 81.6585 48.5941 81.7008C48.7402 81.7432 48.8938 81.7531 49.0441 81.7298C49.1944 81.7065 49.3378 81.6506 49.4642 81.566C50.338 81.0065 51.9554 81.0525 50.7903 78.8908C50.502 78.1508 50.1586 77.4333 49.7631 76.7446C49.0579 75.5794 47.7701 76.5683 47.4635 76.6602C47.1394 76.798 46.8491 77.0047 46.6127 77.2658C46.1758 78.109 46.7583 78.7069 46.8426 79.0441ZM48.0691 76.7446C49.5025 76.1927 49.2879 76.9822 50.5143 79.0441C51.5875 80.8302 50.5143 80.5772 50.5143 80.9375C50.407 80.8302 50.5143 80.9375 50.315 80.9375C48.0998 81.8726 48.4754 81.3974 47.0803 78.9522C46.7047 78.1856 46.5437 77.8254 46.789 77.4191C47.1596 77.1009 47.5971 76.8704 48.0691 76.7446ZM51.5262 76.6219C51.8185 77.3901 52.1511 78.1423 52.5226 78.8755C52.5836 79.0153 52.6754 79.1396 52.7911 79.2389C52.9068 79.3382 53.0435 79.4102 53.191 79.4492C53.3384 79.4883 53.4928 79.4935 53.6425 79.4645C53.7923 79.4355 53.9335 79.3731 54.0557 79.2818C54.6306 78.9598 55.3741 78.8295 55.7344 78.2546C55.8389 78.0037 55.8748 77.7295 55.8385 77.4601C55.8021 77.1907 55.6948 76.9358 55.5274 76.7216C55.0445 75.7941 54.9679 75.3725 54.5003 74.5063C53.7338 73.1495 52.1087 74.5523 52.2007 74.4603C51.8237 74.5697 51.4876 74.7884 51.2349 75.0888C51.0432 75.4721 51.1352 75.84 51.5262 76.6219ZM52.2927 74.6289C53.2508 74.2687 53.6034 74.008 54.1707 75.0122C55.2438 77.4268 56.7156 78.3313 54.0327 79.0058C52.9749 79.3967 52.8829 78.8602 52.216 77.6184C50.8823 75.1118 51.3575 75.2422 52.3157 74.6596L52.2927 74.6289ZM61.2151 72.0074C62.2729 74.123 62.3036 74.4066 62.8555 74.6596C63.6615 74.6512 64.4374 74.3517 65.0401 73.8164C65.2597 73.5663 65.3919 73.2515 65.4168 72.9196C65.4417 72.5878 65.3579 72.2568 65.1781 71.9767C64.9788 71.8618 65.0554 71.5092 64.0819 69.6771C63.438 68.5273 61.7823 69.2785 60.9238 70.2597C60.6172 70.8269 61.0081 71.3022 61.2151 72.0074ZM61.2151 70.2597C61.4451 69.9301 62.7482 69.4932 62.6792 69.5392C63.783 69.1252 63.9133 70.4667 64.7411 71.7161C65.0099 72.0772 65.1551 72.5154 65.1551 72.9656C65.0784 73.6478 64.4805 73.8624 63.7753 74.1C62.8018 74.6749 62.3496 73.5175 61.9433 72.7586C61.537 71.9997 60.6632 70.8269 61.1998 70.2597H61.2151ZM57.2521 75.8324C57.4736 76.385 57.7758 76.9016 58.149 77.3654C58.5016 77.0128 57.5128 75.7327 56.9302 74.4373C56.6582 73.7785 56.2744 73.1717 55.7957 72.6436C56.294 74.4296 56.7616 74.5676 57.2521 75.8324ZM59.7894 74.4143C60.0394 74.9747 60.3315 75.5154 60.6632 76.0317C61.0311 75.6637 60.05 74.4066 59.4521 73.0882C59.1834 72.4295 58.8021 71.8225 58.3253 71.2945C58.8848 73.2568 59.3754 73.2108 59.7894 74.4143ZM66.5808 69.6848C67.0207 70.6308 67.512 71.552 68.0525 72.4443C68.4205 72.0687 67.447 70.8576 66.8338 69.5008C66.5778 68.8386 66.2038 68.2283 65.73 67.6995C65.8845 68.4094 66.1733 69.0833 66.5808 69.6848ZM70.0915 69.2939C70.3531 69.85 70.6474 70.3901 70.973 70.9113C71.3333 70.5587 70.3598 69.2402 69.7772 67.9601C69.5023 67.3231 69.1213 66.7373 68.6504 66.2278C69.233 68.2821 69.6776 68.0751 70.0915 69.2939ZM72.9353 67.9754C73.1953 68.5348 73.4897 69.0775 73.8169 69.6005C74.1848 69.2326 73.2036 67.9831 72.6057 66.657C72.337 65.9983 71.9557 65.3913 71.4789 64.8633C72.0538 66.8103 72.5368 66.795 72.9353 67.9754ZM20.1061 96.0688C20.304 96.0032 20.4778 95.8798 20.6049 95.7145C20.7319 95.5491 20.8065 95.3495 20.8189 95.1413C20.5343 93.8015 19.9499 92.5436 19.1096 91.4619C18.8793 91.2902 18.5997 91.1975 18.3124 91.1975C18.0251 91.1975 17.7455 91.2902 17.5152 91.4619C15.9821 92.1595 16.0894 92.5274 16.0511 92.6807C15.9515 93.4473 17.1856 95.9615 17.5842 96.4444C18.1514 97.0653 19.0482 96.613 20.1061 96.0688ZM18.1207 96.1991C17.7221 95.8848 17.4462 95.1183 16.718 93.8458C16.4344 93.3629 16.1738 92.8647 16.4727 92.4201C16.856 91.8299 18.7263 91.0787 19.2399 92.2975C20.0984 94.3364 20.9186 94.8577 20.428 95.5859C19.9374 96.3141 18.55 96.5287 18.1207 96.1991ZM20.8343 92.0062C22.0071 94.0222 21.9151 95.4096 23.9464 94.1525C24.2913 94.0068 24.8509 93.7999 25.0119 93.3859C25.1049 93.1239 25.1325 92.8431 25.0924 92.5679C25.0524 92.2928 24.9458 92.0315 24.7819 91.8069C24.0154 90.2738 23.6244 87.9052 21.5701 89.5073C20.336 90.3735 20.1904 90.0745 20.8343 92.0062ZM21.9917 89.6376L22.2753 89.5303C22.8732 89.3003 23.1722 89.5303 23.5018 90.1588C24.6976 92.7804 26.0313 93.3399 23.3868 94.0988C22.329 94.4974 22.2293 93.9532 21.5625 92.7114C20.612 90.956 19.9298 90.2432 21.9917 89.6376ZM26.4376 91.7532C26.5207 91.9322 26.6509 92.0853 26.8143 92.196C26.9776 92.3067 27.168 92.3709 27.3651 92.3818C27.7637 92.3818 27.917 92.2285 28.8982 91.6996C29.7337 91.6996 30.0173 90.5268 29.3811 89.7372C28.5609 88.2042 28.2619 85.9046 26.1693 87.4377C25.8474 87.6753 24.7512 88.0049 25.1422 88.9707C25.5063 89.9283 25.9392 90.8582 26.4376 91.7532ZM26.5909 87.3687L26.8745 87.2614C27.4724 87.0391 27.7714 87.3074 28.101 87.8899C29.2278 90.3581 30.1476 90.7414 28.9825 91.4619H28.8368C26.7365 92.2975 27.1581 92.2285 25.6787 89.4843C25.0885 88.4035 24.9199 87.8822 26.5909 87.3687ZM30.5309 87.4147C30.788 87.8383 31.011 88.2817 31.1978 88.7408C31.443 89.2313 31.811 89.8676 32.0103 90.1742C32.3705 89.8062 31.3817 88.5338 30.7915 87.2307C30.5211 86.5728 30.14 85.9661 29.6647 85.437C29.829 86.144 30.1227 86.8145 30.5309 87.4147ZM33.7273 87.292C33.9866 87.8532 34.2836 88.3961 34.6165 88.9171C34.9844 88.5491 33.9956 87.2844 33.4054 85.9736C33.1371 85.3152 32.7529 84.7102 32.2709 84.1876C32.8305 86.2342 33.2904 86.0272 33.7273 87.292ZM49.6175 92.6271C48.4754 93.3936 49.0579 94.0145 49.5485 95.195C50.5986 97.7322 50.8286 98.1461 53.1359 96.728C53.2668 96.6574 53.3815 96.56 53.4722 96.4421C53.563 96.3242 53.6278 96.1884 53.6625 96.0437C53.6973 95.899 53.7011 95.7487 53.6737 95.6024C53.6464 95.4561 53.5885 95.3173 53.5038 95.195C53.2504 94.5271 52.9427 93.881 52.584 93.2633C51.7408 91.5233 51.3575 91.7686 49.6175 92.6271ZM50.591 92.5198C51.7868 91.8605 51.9324 93.0563 52.8139 94.5281C53.6954 95.9998 53.4885 96.3141 52.446 96.7587C50.43 97.6248 51.1046 97.0883 49.7785 95.103C49.5332 94.6047 49.1116 94.2674 49.2189 93.4703C49.3645 93.0563 49.6865 92.9337 50.591 92.5198ZM56.8919 90.8947C56.6926 90.4425 56.4626 89.9366 55.8724 89.7832C55.3172 89.7713 54.7752 89.9528 54.3393 90.2968C53.4195 90.8947 53.1512 91.1477 53.4118 91.8299C53.8487 92.9337 54.4926 94.1755 54.4543 94.1295C54.7226 94.7044 55.0905 95.4249 55.7191 95.3406C56.2857 95.191 56.8242 94.9502 57.3135 94.6277C57.4518 94.5793 57.5785 94.5024 57.6853 94.4021C57.7922 94.3018 57.8768 94.1802 57.9339 94.0452C57.9909 93.9102 58.0191 93.7647 58.0165 93.6182C58.0139 93.4716 57.9807 93.3272 57.919 93.1943C57.6234 92.4077 57.2804 91.6398 56.8919 90.8947ZM57.4131 94.3978C55.9414 95.1643 55.3971 95.5705 54.7839 94.0452C54.393 93.0563 52.7986 91.2626 54.163 90.6877C54.6371 90.3463 55.1974 90.1445 55.7804 90.1052C56.2863 90.1818 56.4549 90.9177 56.7232 91.4006C57.6431 93.018 58.3023 93.8229 57.4054 94.3978H57.4131ZM71.8315 85.2454C70.3981 81.52 69.6316 82.8691 68.5661 83.1911C68.242 83.3289 67.9516 83.5355 67.7153 83.7966C67.5863 84.0378 67.5307 84.3114 67.5552 84.5838C67.5797 84.8562 67.6833 85.1154 67.8532 85.3297C69.1793 87.9742 69.1334 89.0244 71.5556 87.7136C72.6594 87.361 72.5138 86.1575 71.8315 85.2454ZM70.8581 87.8056L70.6358 87.8746C69.9535 88.1199 69.6086 88.0049 69.3097 87.407C67.9989 85.1074 67.6693 84.5095 67.9759 84.0573C68.3253 83.7184 68.7596 83.4801 69.233 83.3674L69.5166 83.2601C70.1222 83.0071 70.4365 83.3214 70.7431 83.8733C71.7932 86.1576 73.2113 87.0927 70.8581 87.8056ZM27.6564 108.916C27.5699 108.319 27.3583 107.747 27.0355 107.237C26.1846 105.528 26.0773 104.501 24.3526 105.336C22.8732 106.049 22.3137 106.356 23.4021 108.149C23.9157 109.13 24.1687 110.411 24.9812 110.587C25.7937 110.763 27.5951 109.529 27.6564 108.916ZM24.4063 109.422C23.3485 107.329 22.9959 107.122 23.1032 106.547C23.2105 105.972 25.2955 104.554 26.062 106.018C26.8285 107.712 27.3881 108.364 27.4341 108.87C27.5107 109.636 25.3721 110.832 24.4293 109.399L24.4063 109.422ZM27.5107 105.551C28.3539 106.969 28.7449 108.931 30.1323 108.088C31.0061 107.528 32.6158 107.567 31.443 105.405C31.1514 104.668 30.8055 103.953 30.4082 103.267C29.6417 102.17 28.4306 103.144 28.1086 103.267C26.9895 103.895 26.8285 104.209 27.5107 105.551ZM28.7679 103.251C30.2089 102.699 30.002 103.519 31.2131 105.551C31.5734 106.156 31.8263 106.57 31.627 106.977C31.503 107.205 31.2936 107.376 31.0445 107.452C29.0361 108.295 29.1665 107.927 28.3079 106.386C27.3344 104.631 26.7442 103.788 28.7679 103.267V103.251ZM35.1071 101.113C34.3405 99.7558 32.7155 101.159 32.8458 101.067C32.6472 101.08 32.4557 101.145 32.2904 101.256C32.1251 101.367 31.9919 101.52 31.9041 101.698C31.8163 101.877 31.7771 102.075 31.7904 102.274C31.8036 102.473 31.8689 102.664 31.9796 102.83C32.267 103.741 32.6552 104.618 33.1371 105.443C33.2007 105.581 33.2929 105.703 33.4077 105.801C33.5225 105.9 33.657 105.973 33.8023 106.015C33.9477 106.057 34.1003 106.068 34.25 106.046C34.3997 106.024 34.543 105.97 34.6701 105.888C35.0227 105.65 36.1495 105.206 36.2032 105.122C36.3963 104.864 36.4969 104.55 36.4885 104.228C36.4802 103.907 36.3634 103.598 36.1572 103.351C35.7586 102.692 35.59 102.009 35.1071 101.113ZM36.1266 104.8C35.8257 105.099 35.4659 105.332 35.0701 105.485C34.6742 105.639 34.2509 105.708 33.827 105.689C33.436 105.528 33.1907 104.876 32.3322 103.297C32.0026 102.684 31.834 102.4 31.9566 101.864C31.9566 101.595 32.7232 101.251 32.8458 101.251C34.6855 100.584 34.1489 100.913 35.6436 103.412C35.9732 103.918 36.3872 104.309 36.1266 104.8ZM44.773 100.898C45.7465 100.438 46.628 99.8938 46.0761 98.9356C45.8038 98.2535 45.4862 97.5902 45.1256 96.9503C44.6274 95.9231 44.4434 95.7698 43.9758 95.6549C43.4539 95.6655 42.948 95.8368 42.5271 96.1454C40.994 96.9733 41.5766 97.7782 41.6302 97.8701C42.826 100.269 42.9257 102.017 44.773 100.898ZM42.1591 98.422C42.0163 98.2494 41.9095 98.0499 41.845 97.8353C41.7805 97.6207 41.7596 97.3954 41.7835 97.1726C41.8985 96.7587 42.3661 96.567 42.7954 96.4061C44.5047 95.6855 44.2211 96.2221 45.3939 98.2611C46.2984 99.7941 46.0838 100.047 45.026 100.499C43.125 101.343 43.6922 100.998 42.1591 98.422ZM37.7669 102.078C38.0323 102.671 38.3424 103.242 38.6944 103.788C38.8247 103.665 38.9397 103.673 38.5411 102.876C38.3442 102.438 38.1162 102.016 37.8589 101.611C37.2533 100.545 37.4297 100.285 36.3258 98.9969C37.0311 100.99 37.2917 100.768 37.7669 102.078ZM38.8477 97.6555C40.9097 101.618 40.7257 101.772 41.4233 102.569C41.7759 102.216 40.7871 100.936 40.2045 99.6408C39.9055 98.8864 39.442 98.2082 38.8477 97.6555ZM46.4211 94.2521C46.697 95.5399 46.9806 95.5322 47.4942 96.7203C47.7769 97.5187 48.1635 98.2765 48.644 98.9739C48.759 98.8666 48.8816 98.8666 48.483 98.0771C48.2934 97.6377 48.0678 97.2146 47.8085 96.8123C47.3486 95.8848 47.3486 95.2869 46.4211 94.2521ZM56.8995 98.3377C57.0595 98.9223 57.2939 99.4839 57.5971 100.009C58.0877 100.967 58.3636 101.741 58.9768 101.833C59.8481 101.692 60.6732 101.345 61.3837 100.821C61.0848 100.522 60.3643 101.503 58.9922 101.588C58.4862 101.442 58.3023 100.821 58.0493 100.208C57.7964 99.5948 56.225 97.7782 57.5971 97.2262C58.06 96.8705 58.6232 96.6693 59.2068 96.6514C59.7127 96.728 59.8813 97.4179 60.1573 97.9468C61.1921 99.7865 61.4527 100.108 61.1614 100.622L61.3224 100.722C61.4268 100.565 61.4899 100.384 61.506 100.197C61.5221 100.009 61.4906 99.8207 61.4144 99.6485C61.0311 98.6827 60.3336 97.2799 60.3719 97.3489C60.165 96.8966 59.9427 96.3907 59.3524 96.2451C58.8705 96.2393 58.4007 96.396 58.0187 96.6897C57.1985 97.0653 56.5929 97.5175 56.8995 98.3377ZM64.1816 99.4569L65.1934 98.9433C65.3284 98.8482 65.4428 98.7269 65.5298 98.5865C65.6168 98.4462 65.6745 98.2897 65.6996 98.1266C65.7246 97.9634 65.7165 97.7968 65.6756 97.6368C65.6347 97.4768 65.562 97.3268 65.4617 97.1956C65.2255 96.5814 64.9463 95.9846 64.6262 95.4096C64.2429 94.5741 64.0589 94.2674 63.484 94.1831C62.9614 94.1896 62.4543 94.3614 62.0353 94.6737L61.6673 94.873C61.3902 95.0036 61.1728 95.2344 61.059 95.5188C60.9452 95.8033 60.9435 96.1204 61.0541 96.4061C61.7057 97.3642 62.4799 100.622 64.1816 99.4569ZM62.3879 94.8577C63.3231 94.4667 63.7906 94.2904 64.1432 94.9113C65.9063 97.9774 66.1286 98.2611 64.6951 98.8743C62.8861 99.6408 63.3154 99.4415 62.02 97.1573C61.6102 96.7514 61.3762 96.2009 61.3684 95.6242C61.491 95.2486 61.9433 95.057 62.3879 94.873V94.8577ZM27.5107 115.209C26.7442 113.852 26.9129 113.515 26.039 112.641C26.1451 113.208 26.3641 113.748 26.6829 114.228C27.3191 115.332 27.5184 116.367 28.2619 117.294L28.3233 117.225C28.1344 116.523 27.8616 115.846 27.5107 115.209ZM30.6612 116.244C30.6612 115.424 29.8333 114.282 29.4807 113.553C29.1925 112.785 28.817 112.052 28.3616 111.369C28.7065 112.902 28.9058 112.649 29.4577 113.921C29.7395 114.752 30.1453 115.535 30.6612 116.244ZM35.2604 113.538C35.3638 113.286 35.3985 113.012 35.3608 112.742C35.323 112.473 35.2143 112.218 35.0457 112.005C34.5245 111.008 34.5092 110.702 34.0109 109.782C33.2444 108.425 31.581 109.866 31.7113 109.782C31.3351 109.889 30.999 110.105 30.7455 110.403C30.4389 110.87 30.7455 111.392 30.9601 111.852C31.2488 112.635 31.5789 113.403 31.949 114.151C32.5315 115.324 33.6123 114.458 34.0646 114.259C33.8959 114.435 33.8423 114.42 34.4095 114.151C34.7504 114.041 35.048 113.827 35.2604 113.538ZM35.0227 113.461C34.9163 113.653 34.7491 113.804 34.5475 113.891C33.4897 114.128 32.8151 114.795 32.2479 113.722C30.4389 110.556 30.6152 110.587 31.8263 109.82C33.666 109.13 33.1447 109.498 34.6241 111.974C35.3753 113.139 35.0151 113.316 35.0381 113.461H35.0227ZM36.3795 111.982C36.4478 112.115 36.5423 112.233 36.6574 112.328C36.7725 112.423 36.9058 112.494 37.0491 112.537C37.1925 112.579 37.3429 112.592 37.4914 112.574C37.6398 112.556 37.7831 112.509 37.9126 112.434L38.6178 112.12C39.461 111.944 40.0972 111.215 39.6219 110.418C39.241 109.443 38.8086 108.489 38.3265 107.559C37.6749 106.333 36.3795 107.314 35.9732 107.429C35.6486 107.569 35.3583 107.778 35.1224 108.042C34.9934 108.283 34.9378 108.557 34.9623 108.829C34.9868 109.102 35.0904 109.361 35.2604 109.575C35.6922 110.349 36.0663 111.153 36.3795 111.982ZM35.4367 108.31C35.7884 107.969 36.2251 107.728 36.7014 107.613L36.9851 107.505C37.583 107.252 37.8972 107.582 38.2038 108.126C39.162 110.234 39.7369 110.426 39.461 111.246C39.2638 111.604 38.9419 111.877 38.5564 112.013C36.7704 112.588 37.238 112.396 35.7509 109.851C35.0074 108.678 35.4367 108.387 35.4367 108.31ZM43.9145 107.62C43.148 106.087 42.7954 103.788 40.7027 105.321C40.3195 105.604 39.9362 105.666 39.7369 106.011C39.415 106.524 39.7369 106.954 39.9822 107.751C40.9864 109.529 40.9634 110.326 41.9139 110.372C42.3738 110.372 44.1215 109.698 44.2134 108.717C44.2443 108.523 44.2336 108.325 44.182 108.136C44.1305 107.947 44.0393 107.771 43.9145 107.62ZM43.9912 109.084C43.8685 109.368 41.8065 110.618 41.1933 109.376C41.155 109.299 39.9822 107.199 39.8136 106.762C39.7577 106.598 39.7497 106.422 39.7904 106.253C39.8311 106.085 39.9189 105.932 40.0435 105.811C40.4726 105.554 40.9306 105.348 41.4079 105.198C42.5041 104.792 42.5884 106.018 43.5696 107.697C43.9988 108.387 44.2134 108.678 43.9912 109.069V109.084ZM52.6606 100.538C52.5672 100.378 52.4396 100.24 52.2871 100.135C52.1345 100.029 51.9607 99.9587 51.7778 99.9279C51.595 99.8972 51.4076 99.9071 51.229 99.9568C51.0504 100.007 50.8849 100.095 50.7443 100.216C50.2643 100.396 49.8262 100.673 49.4565 101.028C49.3296 101.27 49.2758 101.544 49.3016 101.816C49.3275 102.089 49.4319 102.347 49.6022 102.561C50.43 104.148 50.6063 105.413 51.7255 105.489C52.0091 105.489 52.0857 105.413 53.0286 104.945C54.7686 104.324 54.094 103.473 52.6606 100.538ZM52.9289 104.83C52.0014 105.191 51.6641 105.896 50.8669 104.186C50.315 103.014 48.9889 101.404 50.223 100.982C50.714 100.616 51.3048 100.407 51.9171 100.384C52.3617 100.446 52.285 100.622 53.8564 103.512C54.071 104.478 53.2892 104.554 52.9289 104.83ZM46.5667 108.226C46.6434 108.149 46.6893 108.111 46.6817 108.027C46.628 107.551 45.4936 105.804 45.1486 104.876C44.9532 104.359 44.6791 103.876 44.3361 103.443C44.4503 104.054 44.682 104.637 45.0183 105.16C45.5319 106.087 46.0378 107.697 46.5667 108.226ZM49.2419 106.923C49.4489 106.716 49.3109 106.662 49.1652 106.294C48.8657 105.63 48.5305 104.983 48.1611 104.355C47.8607 103.585 47.4723 102.852 47.0036 102.17C47.3332 103.634 47.5785 103.512 48.0921 104.685C48.383 105.475 48.7691 106.226 49.2419 106.923ZM56.5163 103.29C56.7616 103.052 56.5163 102.707 56.4319 102.615C56.0334 101.649 55.7881 101.442 55.4278 100.691C55.113 99.92 54.7254 99.1808 54.2703 98.4834C54.6076 100.016 54.8146 99.7711 55.3665 101.036C55.6492 101.834 56.0358 102.592 56.5163 103.29ZM59.1915 106.639C58.9615 106.218 58.8005 105.451 58.0493 105.259C57.2828 105.259 55.7497 106.08 55.5964 106.685C55.3818 107.452 56.8612 110.74 57.6891 110.855C58.4556 110.855 60.0576 110.089 60.1496 109.406C60.2416 108.724 59.5057 107.214 59.1915 106.639ZM57.6124 110.587C57.2445 110.464 57.0682 109.997 56.7462 109.238C56.6542 109.023 55.5811 107.444 55.7957 106.724C55.949 106.21 57.1755 105.727 57.873 105.681C58.2563 105.742 58.4479 106.187 58.6396 106.578C58.9922 107.459 60.0193 108.709 59.912 109.391C59.7894 110.211 57.988 110.687 57.6124 110.587ZM64.4575 106.57C64.0743 105.604 63.3844 104.202 63.415 104.271C63.3465 104.018 63.218 103.786 63.0405 103.594C62.863 103.402 62.6418 103.255 62.3956 103.167C61.9151 103.163 61.4476 103.323 61.0695 103.619C60.6939 103.849 60.1036 104.079 59.9273 104.562C59.8375 104.794 59.8375 105.051 59.9273 105.282C60.2426 106.081 60.6008 106.861 61.0005 107.62C61.2151 108.096 61.4911 108.678 62.0353 108.763C62.7405 108.763 64.2736 108.103 64.5188 107.337C64.5603 107.211 64.5763 107.079 64.5658 106.947C64.5552 106.816 64.5184 106.687 64.4575 106.57ZM62.0889 108.441C61.698 108.333 60.0423 105.42 60.1573 104.692C60.2723 103.964 61.5677 103.55 62.2959 103.504C62.7098 103.565 64.4958 106.762 64.3349 107.337C64.1739 107.912 62.7482 108.387 62.0889 108.441ZM68.1369 102.308C67.6769 101.289 67.5006 101.051 66.9947 100.929C66.3641 100.97 65.7617 101.206 65.27 101.603C64.5878 101.948 64.3349 102.439 64.5648 103.052C64.8681 103.849 65.2136 104.629 65.5997 105.39C65.9293 106.118 66.2129 106.463 66.6191 106.517C67.1864 106.593 68.9954 105.857 69.164 105.06C69.218 104.829 69.1937 104.586 69.095 104.37C68.2212 102.071 67.9759 102.308 68.1369 102.308ZM66.6881 106.225C66.1975 106.087 66.0136 105.459 65.7453 104.846C65.5537 104.393 64.5418 103.175 64.7871 102.408C64.9788 101.818 66.1362 101.335 66.9028 101.289C67.401 101.366 67.5773 102.055 67.8456 102.584C68.4665 103.665 69.0184 104.455 68.9724 104.984C68.8804 105.681 67.2707 106.195 66.6881 106.225ZM69.1793 99.8171C69.463 101.174 70.2678 101.917 70.4058 102.661C69.9842 102.814 69.3173 103.427 69.5703 103.642C69.9733 103.77 70.3827 103.878 70.7967 103.964C71.1187 104.01 71.1417 103.964 71.41 104.516C71.5863 104.34 71.5939 104.294 71.4943 104.117C73.196 104.117 73.8552 103.496 75.166 102.178C75.3995 101.967 75.6149 101.736 75.8098 101.488C76.4001 102.17 79.6425 101.128 78.738 99.6332C79.3686 99.2747 80.0695 99.0577 80.7923 98.9969C80.9084 99.2496 81.0636 99.4825 81.2522 99.6868C81.4285 99.5105 81.3748 99.4109 81.1296 98.9203C82.194 98.7747 83.2716 98.7516 84.3413 98.8513C86.1887 99.3189 87.7141 97.9085 86.7482 96.958C84.5866 95.4249 79.8495 96.0075 77.3506 96.8583C77.1273 96.5863 76.8286 96.3863 76.4921 96.2834C76.0112 96.2773 75.5429 96.437 75.166 96.7357L74.7827 96.9503C74.6506 96.9954 74.5297 97.0685 74.4284 97.1644C74.327 97.2604 74.2474 97.377 74.1951 97.5064C74.1427 97.6358 74.1188 97.775 74.125 97.9145C74.1311 98.0539 74.1672 98.1904 74.2308 98.3147C74.5681 98.836 74.2998 98.6903 74.0928 99.0813C72.2378 101.312 73.7785 100.99 71.7932 98.537C72.0462 99.7328 72.3528 99.8325 72.759 100.791C72.2366 101.568 71.4986 102.175 70.6358 102.538C69.8002 100.722 69.9305 100.568 69.1793 99.8171ZM78.3777 99.5872C78.4721 99.7231 78.5383 99.8765 78.5726 100.038C78.6068 100.2 78.6083 100.367 78.577 100.53C77.9743 101.077 77.2104 101.413 76.4001 101.488C76.2548 101.418 76.1184 101.33 75.9938 101.228C76.6509 100.493 77.477 99.9303 78.4007 99.5872H78.3777ZM76.8447 96.567C77.5269 97.0806 76.561 96.567 74.5451 98.3454C73.9012 97.1036 76.4614 96.3294 76.86 96.567H76.8447ZM33.0988 119.525C32.9301 119.21 32.7308 118.344 31.9566 118.145C31.3259 118.187 30.7236 118.422 30.2319 118.819C29.1358 119.203 29.3428 120.506 30.0096 121.449C30.6075 122.828 30.9831 123.664 31.5964 123.748C32.6235 123.748 34.3942 122.882 33.9726 121.571C33.7581 120.859 33.465 120.172 33.0988 119.525ZM31.5657 123.503C31.0674 123.365 30.8758 122.736 30.6229 122.123C30.5692 122.001 30.1399 121.303 30.1859 121.357C29.772 120.444 29.2278 119.494 30.1476 119.126C30.6214 118.789 31.1778 118.588 31.7573 118.543C32.1406 118.605 32.3322 119.049 32.5239 119.44C33.0911 120.843 34.2639 121.817 33.6123 122.66C33.0417 123.139 32.3385 123.433 31.5964 123.503H31.5657ZM38.3801 119.272C37.0081 116.504 36.9851 116.206 36.3105 116.052C35.8026 116.038 35.305 116.197 34.9001 116.504C34.1872 116.903 33.528 117.325 33.8806 118.038C34.3175 119.141 34.9614 120.391 34.9231 120.337C35.1837 120.897 35.5593 121.648 36.1879 121.548C37.146 121.418 38.8247 120.651 38.3801 119.272ZM35.8966 121.188C35.6053 121.081 35.429 120.759 35.2067 120.214C34.8005 119.187 33.6737 117.961 34.1949 117.202C34.7507 116.686 35.4629 116.37 36.2185 116.305C36.7321 116.382 36.9007 117.133 37.169 117.601C37.4373 118.068 37.8359 118.773 38.1732 119.44C38.8171 120.774 36.1572 121.288 35.8966 121.188ZM39.8059 114.098C39.484 114.305 38.8707 114.389 38.5181 114.91C38.394 115.153 38.3418 115.426 38.3676 115.698C38.3934 115.969 38.4961 116.228 38.6638 116.443C39.5299 117.754 39.8519 119.939 41.3006 119.195C42.4274 118.605 43.1863 118.482 43.0483 117.34C43.0101 116.997 42.8833 116.669 42.6804 116.39C42.1591 115.677 41.7682 112.856 39.8059 114.098ZM41.2776 118.888C40.4268 119.065 40.1278 118.743 39.461 117.501C38.6944 116.052 38.2575 115.516 38.6178 115.079C39.1428 114.574 39.8241 114.263 40.5494 114.197C41.27 114.197 41.2546 115.178 42.3201 116.673C43.5542 118.413 41.3926 118.873 41.2776 118.888ZM51.1506 109.245C51.007 109.093 50.8195 108.988 50.614 108.946C49.9752 108.962 49.3589 109.185 48.8586 109.583C47.7625 109.966 47.9618 111.269 48.6287 112.204C49.2266 113.584 49.6022 114.42 50.223 114.504C51.1413 114.423 51.9953 113.999 52.6146 113.316C52.68 113.16 52.7136 112.994 52.7136 112.825C52.7136 112.657 52.68 112.49 52.6146 112.335C52.2587 111.247 51.7668 110.209 51.1506 109.245ZM50.2537 114.297C49.7478 114.159 49.5638 113.53 49.3109 112.917C49.2572 112.794 48.2607 111.254 48.3221 110.487C48.5137 109.912 49.6558 109.422 50.4453 109.36C50.8286 109.422 51.0202 109.866 51.2119 110.257C51.4035 110.648 51.7944 111.277 52.4077 112.496C52.5046 112.682 52.5344 112.896 52.492 113.101C52.2927 113.822 50.8899 114.251 50.2537 114.297ZM44.5584 115.209C43.6922 113.576 43.8992 113.454 43.0866 112.641C43.1915 113.208 43.4106 113.748 43.7305 114.228C44.3744 115.332 44.5661 116.367 45.3096 117.294C45.5472 117.087 44.6044 115.286 44.5584 115.209ZM47.5785 114.665C47.3364 114.091 47.0625 113.53 46.7583 112.986C46.5418 112.336 46.18 111.743 45.7005 111.254C45.9611 112.48 46.2754 112.534 46.766 113.684C48.3374 117.394 48.1151 115.623 47.5785 114.665ZM54.508 110.242C53.6418 108.609 53.8487 108.487 53.0362 107.674C53.148 108.239 53.3666 108.778 53.6801 109.261C54.3087 110.365 54.5233 111.407 55.2132 112.327C55.3818 112.22 55.4891 112.082 54.508 110.242ZM63.7523 116.957C64.1077 116.806 64.4078 116.549 64.6119 116.221C64.816 115.893 64.914 115.51 64.8927 115.125C64.8713 114.739 64.7317 114.37 64.4927 114.066C64.2537 113.763 63.927 113.541 63.5572 113.43C63.1873 113.319 62.7922 113.324 62.4257 113.446C62.0593 113.568 61.7392 113.8 61.5092 114.11C61.2791 114.42 61.1503 114.793 61.1402 115.179C61.1301 115.565 61.2392 115.945 61.4527 116.267C61.7262 116.595 62.09 116.835 62.4988 116.957C62.9077 117.08 63.3436 117.08 63.7523 116.957ZM64.0819 116.42C63.9024 116.548 63.6984 116.637 63.4827 116.683C63.2671 116.728 63.0443 116.729 62.8285 116.684C62.6127 116.639 62.4083 116.551 62.2283 116.424C62.0483 116.296 61.8965 116.133 61.7823 115.945C61.6101 115.663 61.5248 115.337 61.5371 115.007C61.5494 114.677 61.6587 114.358 61.8513 114.09C63.1161 112.35 66.0826 114.925 64.0819 116.42ZM73.0657 120.153C72.9353 120.023 72.6134 119.793 72.4294 119.831C72.1628 119.932 71.9062 120.058 71.6629 120.207C66.1439 122.828 64.4499 123.748 64.6185 123.656C62.7328 124.714 62.02 124.699 61.928 125.189C61.928 125.573 62.0123 125.458 62.1963 126.393C62.2745 127.137 62.426 127.871 62.6485 128.585H62.8555C63.0011 128.539 75.2349 122.453 75.3193 122.407C75.4036 122.361 75.5722 122.307 75.6105 122.2C75.6872 121.947 74.6217 121.487 73.0657 120.153ZM62.7788 128.386C62.6179 127.673 62.5105 126.945 62.4186 126.209C62.4186 126.117 62.2422 125.136 62.2806 125.128C63.5224 124.637 70.2295 121.173 71.5556 120.529C71.7646 120.453 71.9693 120.366 72.1688 120.268C72.5981 120.038 72.828 120.368 73.15 120.621C74.3764 121.587 74.798 121.909 75.2656 122.207C62.6792 128.393 66.2359 126.692 62.7788 128.386ZM73.3953 29.5109C73.5716 29.5109 73.4719 29.5109 73.8015 29.442C73.3776 29.3387 72.9953 29.1088 72.7054 28.7827V28.6218L72.6517 28.8057C72.5444 29.1967 73.0197 29.4803 73.3953 29.5109ZM75.12 30.2008C75.0422 30.2534 74.9827 30.3288 74.9497 30.4168C74.9167 30.5047 74.9119 30.6006 74.936 30.6914C75.097 30.998 75.4956 30.6224 75.3729 30.2315C75.4571 30.2265 75.5394 30.2041 75.6146 30.1659C75.6897 30.1276 75.7562 30.0743 75.8098 30.0092L75.9401 29.8022L75.7102 29.8789C75.5799 29.8789 74.8057 29.9709 74.7367 29.8789L74.821 30.0169C74.9207 30.1395 75.0203 30.1548 75.12 30.2008Z" fill="black"/>
<path d="M72.8204 30.0858C73.0581 30.0858 73.2804 29.5493 73.0197 29.4266C72.6058 29.235 72.3375 30.0858 72.8204 30.0858ZM72.0922 32.3624C72.2192 32.5965 72.2676 32.8653 72.2302 33.129C72.3015 33.0793 72.3622 33.0159 72.4086 32.9425C72.4551 32.869 72.4864 32.787 72.5006 32.7013C72.5149 32.6156 72.5119 32.5279 72.4918 32.4434C72.4717 32.3589 72.4349 32.2792 72.3835 32.2091C72.2627 32.0733 72.1117 31.9678 71.9425 31.9012C71.7734 31.8346 71.591 31.8088 71.41 31.8258C71.6887 31.9276 71.9277 32.1156 72.0922 32.3624ZM22.8503 49.3641C23.2926 49.6292 23.8095 49.7423 24.322 49.686H25.0886C25.226 49.6628 25.367 49.6721 25.5002 49.7134C25.6333 49.7547 25.7549 49.8267 25.8551 49.9236C25.5638 50.0539 25.2419 50.1536 25.2419 50.5445C26.0276 52.6027 26.9974 54.5858 28.1394 56.4698C29.6533 59.2789 31.8357 61.672 34.4939 63.4376C36.2973 64.425 38.1917 65.2362 40.1509 65.8598C39.8827 63.8425 39.504 61.8414 39.0164 59.8655C38.9091 59.329 37.0695 53.1967 36.9315 53.1967C36.3417 53.392 35.7046 53.392 35.1148 53.1967C33.9724 52.7831 32.9016 52.1934 31.9414 51.449C31.3051 51.0044 30.6536 50.6135 30.002 50.1613C29.7874 50.0156 29.0209 50.2149 29.1665 49.732C29.3428 47.3021 28.7219 46.9188 26.7826 47.4324C25.9011 47.647 22.3137 48.2603 22.5667 49.1188C22.6344 49.2272 22.7333 49.3127 22.8503 49.3641ZM27.1965 47.5704C27.7254 47.5091 28.3693 47.4247 28.7296 47.9383C28.9672 48.3063 28.8676 48.6282 28.8676 49.0421V49.8776C27.9666 49.8192 27.0627 49.8192 26.1617 49.8776C26.0605 49.7178 25.9135 49.5921 25.7399 49.5169C25.5663 49.4418 25.3741 49.4205 25.1882 49.4561C23.9465 49.4561 23.2029 49.4561 23.0343 49.1188C22.8656 48.7815 23.4252 48.5515 23.6782 48.4596C24.8132 48.0332 25.9939 47.7399 27.1965 47.5857V47.5704ZM104.248 107.781L103.244 106.946C102.918 106.701 102.517 106.577 102.11 106.593C101.798 106.63 101.505 106.756 101.263 106.956C101.022 107.156 100.844 107.421 100.75 107.72C100.656 108.019 100.65 108.338 100.734 108.64C100.817 108.942 100.986 109.214 101.22 109.422L102.217 110.257C102.358 110.389 102.525 110.489 102.707 110.551C102.89 110.613 103.083 110.636 103.275 110.618C103.605 110.617 103.926 110.513 104.194 110.321C104.462 110.129 104.664 109.858 104.771 109.546C104.878 109.234 104.885 108.896 104.792 108.58C104.698 108.264 104.508 107.985 104.248 107.781ZM104.133 109.721C103.948 109.941 103.684 110.08 103.398 110.109C103.111 110.138 102.825 110.053 102.6 109.874L101.596 109.038C101.368 108.853 101.223 108.586 101.193 108.294C101.163 108.002 101.25 107.71 101.435 107.482C101.62 107.255 101.888 107.11 102.18 107.08C102.472 107.049 102.763 107.136 102.991 107.321L103.988 108.157C104.203 108.353 104.337 108.622 104.362 108.912C104.388 109.202 104.303 109.49 104.126 109.721H104.133ZM108.341 98.836C108.001 98.5854 107.576 98.477 107.156 98.5336C106.737 98.5901 106.356 98.8073 106.094 99.1392C105.831 99.4711 105.708 99.8919 105.75 100.313C105.792 100.734 105.995 101.122 106.318 101.396L107.406 102.232C109.139 103.519 110.978 100.998 109.43 99.6791L108.341 98.836ZM109.307 101.611C109.117 101.841 108.844 101.987 108.547 102.017C108.25 102.047 107.953 101.959 107.721 101.772L106.624 100.936C106.423 100.744 106.302 100.483 106.286 100.205C106.27 99.9269 106.361 99.6534 106.539 99.4398C106.718 99.2261 106.971 99.0884 107.247 99.0546C107.524 99.0208 107.802 99.0933 108.027 99.2575L109.116 100.101C109.337 100.279 109.481 100.535 109.516 100.817C109.552 101.099 109.477 101.383 109.307 101.611Z" fill="black"/>
<path d="M146.561 88.9861C146.426 88.7567 146.225 88.5731 145.984 88.4593C145.744 88.3455 145.474 88.3067 145.211 88.3481C144.949 88.3894 144.704 88.5089 144.51 88.6911C144.316 88.8732 144.181 89.1096 144.123 89.3694H142.912C137.271 89.6527 131.97 92.148 128.156 96.3142C128.088 96.2885 128.026 96.2496 127.974 96.1995C127.921 96.1495 127.879 96.0895 127.85 96.0229C127.637 95.4482 127.465 94.859 127.336 94.2599C127.234 94.0642 127.159 93.8552 127.114 93.639C127.151 92.9923 127.261 92.3519 127.443 91.7303C127.984 88.902 128.113 86.0104 127.827 83.1452C128.278 82.7383 128.796 82.414 129.36 82.187C129.506 82.3552 129.69 82.4864 129.896 82.5698C130.103 82.6533 130.326 82.6867 130.548 82.6673C130.77 82.6479 130.984 82.5762 131.173 82.4581C131.361 82.34 131.52 82.1789 131.634 81.9879C131.749 81.7969 131.816 81.5815 131.832 81.3594C131.847 81.1372 131.81 80.9145 131.722 80.7096C131.635 80.5047 131.501 80.3234 131.33 80.1805C131.159 80.0376 130.957 79.9371 130.74 79.8874C130.557 79.8402 130.367 79.8313 130.18 79.8613C129.994 79.8913 129.816 79.9597 129.658 80.062C129.499 80.1642 129.364 80.2983 129.26 80.4556C129.156 80.6129 129.085 80.79 129.053 80.9759C129.045 81.101 129.045 81.2264 129.053 81.3515C128.542 81.5807 128.064 81.88 127.635 82.2407C126.447 74.5754 121.725 66.9101 114.918 63.5297L111.147 61.805C110.967 61.7721 110.785 61.7516 110.603 61.7436C111.586 62.4793 112.371 63.4483 112.886 64.563C113.401 65.6777 113.631 66.9032 113.554 68.1288C113.538 68.39 113.46 68.6435 113.326 68.8687C113.193 69.0939 113.008 69.2843 112.787 69.4243C113.153 70.1035 113.412 70.8353 113.554 71.5936C114.203 74.2154 115.067 76.7792 116.137 79.2589C115.922 78.7453 114.78 78.4233 114.328 78.1781C109.461 75.4339 103.926 74.4681 103.198 74.5907C102.761 73.8242 101.772 71.8618 101.803 71.9385C101.45 71.126 100.983 70.4591 100.094 70.5511C98.6986 70.5511 96.8282 69.018 96.5063 66.8641C96.3242 65.3386 96.4812 63.7917 96.9662 62.3339C94.7266 63.7937 92.881 65.7825 91.5922 68.1247C90.3035 70.4669 89.6113 73.0904 89.5768 75.7635C88.91 75.4262 87.6605 76.2617 87.4459 76.1698C87.3692 76.1238 78.8224 58.8308 78.5158 58.0413C78.0636 57.0678 77.4427 55.7417 75.9173 55.987C75.4153 56.0804 74.9363 56.2704 74.5069 56.5466C74.5069 56.5466 52.8217 67.1707 51.1353 68.0445C53.1896 62.6788 53.7875 56.5006 52.1548 49.2109C53.18 52.9834 53.5737 56.8997 53.3199 60.8008C54.3849 59.4218 55.3141 57.9432 56.0948 56.3856C56.684 55.0733 57.1287 53.7008 57.4209 52.2923C60.1727 52.1084 65.3008 48.1377 67.3398 45.9761C69.2632 47.509 71.3446 48.8324 73.5487 49.9237C78.9681 52.7139 84.8933 53.5571 88.726 52.9362C89.3622 52.8289 90.1671 52.9822 90.6193 52.1697C90.653 52.3204 90.7436 52.4522 90.8723 52.5376C91.4855 52.8979 91.7538 52.6679 92.689 52.7522C92.9036 53.4345 93.4555 53.0972 93.2868 52.7522C93.4632 52.7522 93.5551 52.8442 93.6854 52.6833C93.7755 52.503 93.7999 52.297 93.7544 52.1007C94.2297 51.8707 94.3217 51.3342 93.6548 51.0812C93.7024 50.9528 93.7147 50.8139 93.6904 50.6791C93.6661 50.5443 93.6062 50.4185 93.5168 50.3147C93.3976 50.2185 93.2662 50.1385 93.1259 50.0771C91.4395 34.1485 92.3594 40.802 91.7231 34.4092C94.475 33.6963 95.1648 30.2546 95.2952 27.794C95.5944 25.856 95.5944 23.8834 95.2952 21.9454C95.0849 20.3481 94.5135 18.8198 93.6241 17.4765C93.3081 16.9804 92.8606 16.5816 92.3315 16.3245C91.8024 16.0674 91.2124 15.962 90.627 16.0201C90.4967 16.0201 90.4967 16.0968 90.3817 16.0738C88.6356 16.0964 86.917 15.6376 85.4146 14.7477C78.3625 10.8537 76.5458 6.61477 72.2762 4.78276C71.4763 4.38618 70.6049 4.15407 69.7137 4.10018C68.8225 4.0463 67.9295 4.17172 67.0876 4.46903C66.2456 4.76634 65.4719 5.22951 64.8122 5.83111C64.1524 6.43272 63.62 7.16054 63.2465 7.97153C60.6786 13.2223 63.4688 19.1859 67.7231 22.6123C68.3976 23.1412 67.907 23.3788 68.045 24.0457C67.6091 24.1548 67.2147 24.3894 66.9105 24.7202C66.7942 24.8993 66.7395 25.1115 66.7547 25.3246C66.7699 25.5376 66.8542 25.7399 66.9949 25.9007C66.8105 25.9757 66.6539 26.1058 66.5463 26.2732C66.4388 26.4406 66.3855 26.6372 66.3939 26.836C66.4023 27.0348 66.4719 27.2262 66.5932 27.3839C66.7145 27.5417 66.8815 27.6581 67.0715 27.7174C66.8512 27.9436 66.7223 28.2433 66.7095 28.5588C66.6968 28.8744 66.8012 29.1835 67.0025 29.4267C67.1175 29.5877 67.4164 29.5877 67.5544 29.7487C67.6924 29.9096 67.4854 30.2929 67.2708 30.4385C66.9874 30.6249 66.6647 30.743 66.328 30.7835C65.8757 30.7835 65.6764 30.3925 65.4925 30.0169C64.45 27.6714 63.1929 22.252 58.448 19.0556C54.3224 16.4639 49.5207 15.1541 44.6505 15.2919C42.1516 15.2919 39.8367 15.1539 37.7517 16.7253C37.1306 16.2202 36.4805 15.7518 35.8047 15.3226C35.5657 15.2039 35.3047 15.136 35.0382 15.1233C34.7546 15.1233 34.5246 15.3609 34.7929 15.6368C34.6273 15.5877 34.4533 15.5733 34.2819 15.5944C34.1104 15.6155 33.9452 15.6717 33.7964 15.7595C33.6508 15.9434 33.6891 16.2194 34.1107 16.3957C33.8194 16.3267 33.6048 16.7023 33.7811 17.0089C34.0357 17.3124 34.3744 17.5337 34.7546 17.6451C34.2563 17.6068 34.195 18.473 35.1148 18.5726C35.6763 18.5796 36.2375 18.5437 36.7935 18.4653C37.0451 19.4749 37.6314 20.3693 38.4569 21.0025C41.0189 22.6941 43.9351 23.7746 46.9807 24.1607C48.2532 24.3446 49.6253 24.1607 50.867 24.4289C51.0894 26.8559 51.9227 29.1871 53.2893 31.2051C51.7562 31.642 48.7284 33.9799 47.525 34.9611C46.8964 35.4746 46.2065 36.1952 46.4135 36.9847C45.8384 37.1049 45.2781 37.2874 44.7425 37.5289C43.9822 37.9361 43.2522 38.3972 42.5579 38.9087C40.5445 40.3727 39.0002 42.3904 38.1129 44.7163C37.2256 47.0421 37.0335 49.5757 37.5601 52.0087C39.7294 61.9736 42.5119 64.0969 39.8597 73.7628C35.6284 75.8171 9.96497 88.4572 9.09113 88.8635C8.44064 89.1382 7.81922 89.4771 7.23612 89.8753C5.97901 90.8641 6.66889 92.2286 7.23612 93.3247C7.23612 93.3247 25.6788 130.54 27.1659 133.66C27.3491 134.162 27.7241 134.57 28.2084 134.796C28.6928 135.022 29.247 135.046 29.7491 134.863C29.7661 135.631 29.7379 136.398 29.6648 137.163C29.6648 142.636 29.4962 141.93 29.4962 145.702C29.4119 147.15 29.5575 146.468 29.1819 147.028C29.1819 147.388 29.3965 147.411 29.5192 147.733L30.5616 149.78C30.6613 149.78 100.247 115.462 103.252 113.929C107.406 118.091 111.599 119.862 116.85 120.989C114.65 123.541 112.634 124.883 113.293 126.04C113.664 126.539 114.19 126.9 114.788 127.067C117.241 128.148 122.921 130.325 123.343 130.34C123.383 130.323 123.418 130.297 123.446 130.264C123.474 130.231 123.494 130.191 123.503 130.149C123.549 129.927 123.304 129.559 122.783 129.03C122.223 128.324 121.648 127.573 121.005 126.853C121.389 126.571 121.806 126.337 122.246 126.155C122.76 126.002 122.967 125.964 123.059 125.78C123.151 125.596 122.76 125.074 122.492 124.921C122.221 124.681 121.965 124.425 121.725 124.155C121.633 124.063 121.725 123.978 121.894 123.764C123.603 122.062 124.193 122.438 125.006 122.622C125.627 122.759 127.505 123.097 127.712 123.12C128.085 123.26 128.485 123.316 128.882 123.284C129.28 123.253 129.665 123.134 130.011 122.936C130.916 122.246 131.153 121.403 131.544 121.28C131.935 121.157 133.806 121.702 133.79 122.047C133.729 123.074 130.188 124.492 135.776 124.706C135.576 125.274 135.385 126.063 135.155 126.692C135.009 127.159 134.557 127.788 134.833 128.187C134.853 128.216 134.881 128.239 134.913 128.254C134.946 128.269 134.981 128.274 135.017 128.271C135.653 128.271 137.462 126.04 137.47 126.017C138.514 125.104 139.306 123.937 139.769 122.629C140.022 121.357 139.141 120.506 138.144 119.793C136.867 118.902 135.509 118.133 134.089 117.493C139.179 110.273 136.918 101.197 128.946 96.5748C132.405 92.8994 137.089 90.615 142.115 90.1513C142.788 90.0823 143.466 90.0823 144.138 90.1513C144.256 90.4046 144.448 90.6159 144.689 90.7566C144.93 90.8973 145.209 90.9606 145.487 90.938C145.765 90.9155 146.03 90.8081 146.245 90.6304C146.46 90.4527 146.616 90.2132 146.691 89.9443C146.746 89.7856 146.763 89.6161 146.741 89.4496C146.718 89.2831 146.656 89.1243 146.561 88.9861ZM126.294 95.356C125.995 95.2257 125.68 95.1031 125.381 94.9881C126.915 91.0864 126.623 86.219 126.148 84.9082C126.148 84.6629 126.186 84.5939 126.363 84.5096L127.328 83.6128C127.616 87.5574 127.267 91.5225 126.294 95.356ZM122.292 91.1401C122.308 91.2494 122.308 91.3604 122.292 91.4697C122.397 92.3645 122.265 93.2713 121.909 94.0989C121.743 94.0579 121.574 94.0322 121.403 94.0222C121.633 93.0423 121.93 92.0793 122.292 91.1401ZM121.25 91.6C120.982 92.4355 120.813 93.271 120.606 94.0529C120.386 94.053 120.17 94.0059 119.97 93.9149C119.747 93.6237 119.809 92.6885 119.763 92.3282C119.311 89.3771 118.345 86.1423 117.839 84.0957C119.334 85.4448 120.577 87.0488 121.511 88.8328C121.878 89.929 122.101 89.1241 121.25 91.6ZM122.522 93.409C122.744 92.7845 122.851 92.1247 122.837 91.462C122.883 90.6955 122.522 90.4196 122.837 89.929C123.226 88.9627 123.717 88.0403 124.301 87.1771C124.639 88.7269 124.737 90.3194 124.592 91.899C124.496 92.8035 124.324 93.6984 124.078 94.5742C124.078 94.6508 123.687 94.4515 122.338 94.2369C122.078 94.2139 122.193 94.3365 122.522 93.409ZM124.676 87.0008C124.642 86.9195 124.625 86.8322 124.625 86.744C124.625 86.6559 124.642 86.5686 124.676 86.4873C124.788 86.3078 124.925 86.1452 125.083 86.0043C125.306 85.7117 125.546 85.4327 125.803 85.1688C126.479 88.4385 126.278 91.8288 125.221 94.9957L124.278 94.6738C125.129 92.2045 125.268 89.5451 124.676 87.0008ZM124.853 75.2959C125.557 76.7797 126.142 78.3177 126.6 79.8951C126.848 80.8111 127.03 81.7435 127.145 82.6853C126.715 83.0014 126.307 83.3471 125.926 83.7201C124.293 77.3272 120.039 70.5051 116.168 66.0899C115.08 64.8668 113.847 63.7806 112.496 62.8551C118.096 65.2074 122.538 69.6798 124.853 75.2959ZM114.474 73.7628C114.405 73.6632 113.178 69.5776 113.155 69.5086C114.343 68.9797 113.753 66.4042 113.569 65.515C113.35 64.4522 112.815 63.4801 112.036 62.7248C112.695 63.2077 113.117 63.6446 113.5 63.9206C115.575 65.7568 117.398 67.8601 118.92 70.1755C121.673 74.1029 123.786 78.4415 125.182 83.0302C125.535 84.0803 125.596 84.065 125.182 84.3716C124.83 84.7317 124.497 85.1104 124.186 85.5061C123.193 82.3883 121.417 79.5774 119.027 77.3425C117.974 76.3552 116.841 75.4578 115.639 74.6597C115.356 74.4129 115.059 74.1826 114.75 73.9698H114.696C114.605 73.9257 114.528 73.8566 114.474 73.7705V73.7628ZM114.727 74.2764C121.511 78.8756 122.821 83.7431 123.687 85.4448C124.155 86.3799 123.626 85.851 122.154 88.9555C121.319 86.7249 119.449 85.0232 117.693 83.6434C113.792 71.4633 115.463 76.622 114.727 74.2841V74.2764ZM117.026 93.7463C114.443 93.8613 113.5 94.5128 113.025 94.0529C110.564 91.7533 108.326 89.5457 107.069 86.4413C106.586 85.2378 106.532 83.4595 107.836 82.532L107.744 82.3863C107.229 82.7419 106.832 83.2417 106.601 83.8229C106.371 84.404 106.318 85.0404 106.448 85.6517C106.713 86.8983 107.235 88.0758 107.981 89.1088C109.217 91.0505 110.831 92.724 112.726 94.0299C113.056 94.3519 112.994 94.2982 113.071 94.3519C111.998 94.6125 112.052 94.6125 111.86 94.5665C111.668 94.5205 109.936 93.1177 110.028 93.1944C107.686 91.3159 105.462 89.2962 103.367 87.1465C100.577 84.2796 97.8707 80.6923 98.2846 76.507C98.4147 74.7868 99.0825 73.1511 100.193 71.8312C100.408 71.4689 100.726 71.1782 101.105 70.9957C104.118 78.4923 111.538 87.1848 116.988 93.754L117.026 93.7463ZM96.4986 63.1617C95.4791 66.6035 96.7516 69.3476 98.8749 70.4744C99.455 70.7556 100.093 70.8973 100.738 70.8884C100.117 70.8884 95.9467 75.8555 98.5912 81.4818C100.845 86.7095 106.257 90.5345 110.411 93.8996C110.917 94.2215 111.024 94.3902 111.561 94.7198C110.295 95.0907 109.076 95.6051 107.928 96.2529C101.55 92.1902 95.1342 85.2685 93.1259 78.0324C92.4728 75.4562 92.438 72.7621 93.0241 70.1698C93.6102 67.5775 94.8008 65.1604 96.4986 63.1157V63.1617ZM111.147 96.5671C111.463 96.5891 111.76 96.7254 111.983 96.9504L112.818 98.0389C112.921 98.1728 112.996 98.3257 113.039 98.4889C113.083 98.652 113.094 98.8221 113.071 98.9894C113.023 99.1892 112.92 99.3716 112.774 99.5164C112.628 99.6612 112.444 99.7626 112.244 99.8095C112.044 99.8564 111.835 99.8468 111.64 99.7818C111.445 99.7169 111.271 99.5991 111.139 99.4416L110.304 98.3531C110.171 98.1938 110.086 97.9997 110.06 97.7937C110.033 97.5878 110.066 97.3786 110.155 97.1909C110.244 97.0031 110.384 96.8447 110.56 96.7341C110.736 96.6236 110.939 96.5657 111.147 96.5671ZM90.4507 72.0382C91.0409 68.972 92.8269 66.0209 96.123 63.2537C95.4585 63.9872 94.8846 64.7978 94.4137 65.6683C89.3086 74.652 93.2639 83.7201 100.707 90.8948C102.81 93.0107 105.181 94.8429 107.759 96.3448C106.845 96.8816 105.962 97.4703 105.114 98.1079C103.035 96.7775 101.116 95.2111 99.3961 93.4397C95.7313 89.8507 92.9113 85.4911 91.1406 80.6769C90.0786 77.9143 89.839 74.9033 90.4507 72.0075V72.0382ZM75.1201 56.8302C78.0712 55.2971 76.5918 57.5507 86.9706 76.3077C86.8557 76.0854 83.8279 77.4958 83.2376 77.8025C81.8962 75.0889 74.8058 60.7778 74.6448 60.5095C74.4839 60.2412 74.3842 60.1416 74.0546 60.1953C73.2287 60.4934 72.4392 60.8843 71.7013 61.3604L49.2267 72.4597C49.3582 72.1628 49.5066 71.8736 49.6713 71.5936C50.0085 71.0187 50.9744 68.8034 51.051 68.6194C51.7869 68.3435 47.0727 71.4786 75.1201 56.8302ZM92.9572 52.8825C92.9454 52.7991 92.9079 52.7214 92.8499 52.6603C92.7886 52.5683 92.6966 52.5759 91.7385 52.5759C91.4089 52.5759 90.9719 52.5759 90.9719 52.1773C90.9649 52.0884 90.9763 51.9989 91.0053 51.9146C91.0343 51.8302 91.0804 51.7526 91.1406 51.6868C91.1693 51.8975 91.2772 52.0893 91.4424 52.2232C91.6076 52.3571 91.8177 52.4229 92.0297 52.4073C92.3285 52.3625 92.6137 52.2526 92.8653 52.0854C92.7426 52.1544 92.9496 52.6679 93.0262 52.7446C93.1029 52.8212 93.0032 53.0359 92.9726 52.8825H92.9572ZM93.9001 51.6024C93.9001 51.7481 93.6165 51.8171 93.6165 51.8017L93.4325 51.2728C93.6241 51.2958 93.9384 51.4338 93.9154 51.6024H93.9001ZM93.2332 50.491C93.2792 50.4939 93.3242 50.506 93.3655 50.5265C93.4068 50.5471 93.4435 50.5757 93.4735 50.6108C93.5035 50.6458 93.5262 50.6865 93.5402 50.7304C93.5543 50.7743 93.5593 50.8206 93.5551 50.8666C93.5551 50.9892 93.4938 51.0659 93.2332 50.9739C93.2153 50.813 93.2205 50.6504 93.2485 50.491H93.2332ZM92.7196 51.0046C92.5816 51.0046 92.2827 50.9586 92.2597 51.0046C92.2367 51.0505 92.8423 51.3955 93.0262 51.5105C93.181 51.6306 93.3054 51.7855 93.3893 51.9626C93.4732 52.1397 93.5142 52.334 93.5091 52.5299C93.4779 52.559 93.4368 52.5752 93.3942 52.5752C93.3515 52.5752 93.3104 52.559 93.2792 52.5299C93.0952 52.3613 93.1029 52.1314 93.0492 51.9167C92.9956 51.7021 92.8806 51.6101 92.689 51.7481C92.5599 51.8727 92.4023 51.9636 92.2299 52.0131C92.0575 52.0625 91.8756 52.0689 91.7001 52.0317C91.1176 51.8017 91.1942 51.0582 91.4932 50.583C91.5775 50.491 91.7768 50.4986 91.8918 50.4833H92.6583C92.7133 50.6519 92.7443 50.8273 92.7503 51.0046H92.7196ZM92.6506 50.1307C92.3106 50.0988 91.9676 50.13 91.6388 50.2227C91.9224 50.0081 91.7308 49.6478 91.4548 49.4562C90.7496 48.7816 90.1364 48.0151 89.3929 47.4019C85.9895 44.4584 82.9234 43.4159 78.7764 42.8027C76.9904 40.5031 75.4114 38.2035 72.4066 36.2258C72.2149 36.0955 71.7933 35.7583 71.5174 35.5973C71.8655 35.5892 72.2038 35.48 72.4909 35.283C72.6018 35.3842 72.7381 35.4534 72.8853 35.4831C73.0324 35.5128 73.1849 35.5019 73.3264 35.4516C73.4494 35.3826 73.551 35.281 73.62 35.1579C73.689 35.0348 73.7227 34.8951 73.7173 34.7541C73.8983 34.769 74.0796 34.7295 74.238 34.6408C74.3964 34.552 74.5247 34.418 74.6065 34.2559C74.7751 34.3938 74.9591 34.2559 75.0511 34.0719C75.1431 33.8879 75.0511 33.6503 75.1354 33.4127C75.2068 33.1751 75.324 32.9537 75.4803 32.7611C75.9517 32.0032 76.3446 31.1993 76.6531 30.3619C76.813 30.0551 76.907 29.7183 76.9291 29.3731C77.9603 30.1203 79.0869 30.7262 80.2788 31.1744C80.8691 31.4044 81.421 31.711 82.0265 31.9409C84.7032 32.9329 87.4709 33.6595 90.2897 34.1102C90.6459 34.2581 91.024 34.3462 91.4089 34.3708C91.6158 39.4759 92.597 49.1955 92.6506 50.1307ZM70.7509 29.9863C70.8054 29.8521 70.8131 29.7035 70.7728 29.5644C70.7325 29.4253 70.6464 29.3039 70.5286 29.2198C70.8582 28.7445 70.6895 28.7828 71.2568 27.8323C71.4331 27.4874 71.6247 27.1578 71.8317 26.8358C72.0386 26.5139 72.3069 26.3453 72.7515 26.5752L75.4267 28.024C75.6643 28.1543 76.6685 28.5069 76.7451 28.7905C76.7451 29.971 75.3347 32.6998 74.3689 33.2747C74.1086 33.3979 73.8205 33.4508 73.5334 33.428C73.7327 33.428 73.5334 32.5925 73.5334 32.5158C73.4898 32.378 73.4333 32.2445 73.3647 32.1172C73.4224 32.144 73.4851 32.1579 73.5487 32.1579C73.6122 32.1579 73.675 32.144 73.7327 32.1172C74.1772 31.9179 74.2692 31.4504 74.3382 31.0211C74.4556 30.5168 74.4556 29.9923 74.3382 29.488C74.0239 31.2051 73.9856 31.7876 73.633 31.9103C73.2804 32.0329 73.0351 31.734 72.8205 31.5347C72.3725 31.183 71.8468 30.9438 71.2874 30.8371H70.8122C70.9052 30.6846 70.9555 30.5099 70.9578 30.3312C70.9961 30.2622 70.7662 29.9096 70.7509 29.9863ZM70.2373 35.0914C70.2373 35.191 70.2373 35.0914 70.1453 35.5206C69.9993 35.4697 69.8722 35.3758 69.7805 35.2514C69.6889 35.1269 69.637 34.9776 69.6317 34.8231L70.2373 35.0914ZM69.6394 34.6315V34.2942C70.0763 34.7388 70.0763 34.4552 70.0456 34.8308C69.9011 34.7848 69.7642 34.7176 69.6394 34.6315ZM70.153 21.8764C69.5121 21.3698 68.9217 20.8025 68.3899 20.1824C68.3899 19.9524 68.6046 19.1859 68.7195 18.5113C69.0415 17.2925 69.6317 16.2117 70.0073 15.0159C70.8287 15.7772 71.6883 16.4961 72.5829 17.1699C72.4142 17.8291 72.1766 18.473 72.0463 19.1399C71.9926 19.3775 71.893 21.4395 71.8087 21.4395C71.5916 21.5505 71.4246 21.7394 71.3411 21.9684C70.9627 21.8214 70.5494 21.7894 70.153 21.8764ZM68.3209 20.6346C68.3593 20.7649 69.4861 21.7614 69.854 22.091C69.2868 22.6583 69.4094 22.3593 68.5509 22.7502C68.6276 22.6889 68.2596 21.0025 68.3209 20.6346ZM86.9247 23.9077C86.9247 25.0882 86.5261 28.024 87.6912 30.8908C86.7713 30.6608 85.8208 30.4232 84.9623 30.1856C84.5572 28.4626 84.3616 26.697 84.3798 24.9272C84.3927 24.4395 84.4363 23.953 84.5101 23.4708C84.4794 23.2102 84.3184 23.4631 86.9247 23.9077ZM76.2469 22.0374C76.2833 21.309 76.4713 20.5963 76.7988 19.9447C77.598 20.301 78.3671 20.7214 79.0984 21.2018C79.359 21.3552 80.0489 21.5928 80.1485 21.8994C80.2482 22.206 80.0105 22.6199 79.9416 22.9802C79.6275 24.826 79.7403 26.7191 80.2712 28.5145L78.5925 27.794C78.8454 27.9013 78.8991 27.0275 78.8377 26.9048L79.0447 26.6902C79.0916 26.5781 79.1141 26.4573 79.1108 26.3358C79.1075 26.2143 79.0784 26.0949 79.0255 25.9855C78.9726 25.8761 78.8971 25.7791 78.8039 25.7011C78.7108 25.623 78.6021 25.5657 78.4851 25.5327C78.5677 25.459 78.622 25.3586 78.6385 25.2491C78.6919 25.1092 78.7085 24.9579 78.6867 24.8097C78.6648 24.6615 78.6052 24.5215 78.5136 24.4029C78.422 24.2844 78.3015 24.1914 78.1636 24.1329C78.0258 24.0743 77.8752 24.0522 77.7263 24.0687C77.7751 23.9052 77.777 23.7312 77.7319 23.5667C77.6868 23.4021 77.5964 23.2535 77.4711 23.1377C77.3457 23.022 77.1904 22.9437 77.0228 22.9118C76.8552 22.8798 76.682 22.8956 76.5228 22.9572C76.5317 22.6289 76.435 22.3065 76.2469 22.0374ZM75.8329 21.9454C75.7103 21.8074 74.7675 21.6234 74.8748 21.8917C74.8005 21.6879 74.6694 21.5096 74.4969 21.378C74.3244 21.2465 74.1179 21.1671 73.9016 21.1494C73.6854 21.1316 73.4687 21.1762 73.2771 21.2779C73.0854 21.3796 72.927 21.5341 72.8205 21.7231C72.6672 21.4625 72.2992 21.5928 72.1383 21.3935C71.9773 21.1942 72.1383 20.4353 72.1383 20.1517C72.1953 19.1708 72.4263 18.2079 72.8205 17.3079C74.0009 18.197 75.2121 18.8409 76.3005 19.7378C76.2291 20.0577 76.188 20.3836 76.1779 20.7113C76.1472 20.8492 75.8023 21.9071 75.8329 21.9454ZM84.5254 30.0629C84.3491 30.0629 82.9234 29.5034 82.5708 29.3731C82.2181 29.2427 80.6314 28.8365 80.5854 28.6065C80.5767 28.5096 80.5767 28.4121 80.5854 28.3153C80.1646 26.6314 80.0787 24.8812 80.3325 23.1642L80.5701 22.0067C81.41 22.3543 82.2671 22.6587 83.138 22.9189C83.5313 22.9808 83.9089 23.1188 84.2495 23.3251C83.7063 25.5524 83.802 27.8876 84.5254 30.0629ZM77.6266 29.0741C78.1939 29.0741 78.3932 28.5452 78.4622 28.1083C79.0503 28.4314 79.6724 28.6885 80.3172 28.8748C80.4873 29.7252 80.8037 30.5395 81.2523 31.2817C80.4981 31.003 79.7587 30.6858 79.037 30.3312C76.9444 29.2811 77.0287 29.2274 76.9904 28.9438C77.2011 29.0244 77.4241 29.0684 77.6496 29.0741H77.6266ZM80.6927 29.1354C82.7701 30.0323 84.6251 30.6148 84.5254 30.5918C84.8063 30.9842 85.0623 31.3938 85.2919 31.8183C85.6112 32.2854 86.0048 32.6972 86.4571 33.0371C84.924 32.3395 84.878 32.7381 81.7812 31.435C81.2683 30.7529 80.9076 29.9688 80.7234 29.1354H80.6927ZM84.993 30.5612C85.177 30.6225 86.2041 30.8295 87.6758 31.0748C88.0009 32.134 88.6365 33.0713 89.5002 33.7653C88.6305 33.5999 87.7726 33.3771 86.9323 33.0984C86.0616 32.4575 85.398 31.5754 85.0237 30.5612H84.993ZM84.0348 22.8269C83.6895 22.8059 83.3488 22.7362 83.023 22.6199C82.1571 22.3843 81.3133 22.0739 80.5011 21.6924C80.8983 20.0632 81.6377 18.5372 82.6704 17.2159C82.8544 17.1392 83.6592 17.5915 83.8279 17.6681C84.3704 17.8888 84.8979 18.1448 85.4069 18.4347C84.8568 19.8653 84.4085 21.333 84.0655 22.8269H84.0348ZM81.1527 19.0862C80.8154 19.6994 80.1409 20.7573 80.2405 21.4931C79.5372 21.1936 78.8646 20.8265 78.2322 20.397C77.7416 20.1287 77.2204 19.8757 76.7451 19.5615C77.3034 17.9763 78.1249 16.4966 79.175 15.1846C79.175 15.1846 82.2411 16.8096 82.4328 17.0089C82.4711 17.0473 81.2983 18.8869 81.1833 19.0862H81.1527ZM76.4922 19.5231C72.8435 17.0932 73.1041 17.3002 72.9891 17.1162C72.8741 16.9323 73.2574 16.2807 73.3724 16.0431C73.9814 14.8551 74.8358 13.81 75.8789 12.977C75.8789 12.977 78.7534 14.8933 78.9451 15.1156C78.0712 16.1734 76.7221 18.0744 76.5228 19.5231H76.4922ZM73.472 15.3226C73.3954 15.4452 72.6365 16.7636 72.7668 16.8556C71.801 16.3497 71.0958 15.4375 70.176 14.855C70.3216 14.602 70.4672 14.3491 70.5975 14.0884C71.3875 12.8434 72.4325 11.78 73.6637 10.9687C74.2837 11.5889 74.9416 12.17 75.6337 12.7087C74.7933 13.4653 74.0745 14.347 73.5027 15.3226H73.472ZM70.0533 14.464C69.8157 14.0654 67.4241 12.0418 67.6387 11.6662C67.77 11.5043 67.876 11.3233 67.953 11.1296C68.749 9.93521 69.7695 8.90688 70.9578 8.10184C71.2108 7.94087 73.3187 10.5394 73.587 10.777C72.0833 11.6363 70.8652 12.9184 70.084 14.464H70.0533ZM70.2219 8.24748C69.2441 8.93273 68.4042 9.79608 67.746 10.7924C67.5491 11.0365 67.4101 11.3222 67.3398 11.6279C66.6832 10.7663 66.084 9.86235 65.5461 8.92203C65.5168 8.88638 65.5008 8.84168 65.5008 8.79555C65.5008 8.74942 65.5168 8.70472 65.5461 8.66907C66.2003 7.65102 67.0527 6.7751 68.0527 6.09353C68.206 5.98621 68.298 5.78692 68.5049 5.80225C68.6336 5.82256 68.7549 5.87532 68.8575 5.95555C69.6018 6.44717 70.2596 7.05841 70.8045 7.76456C70.6052 7.81822 70.4519 8.08651 70.2526 8.24748H70.2219ZM66.6116 10.9687C66.9335 11.3826 66.9719 11.5512 67.2018 11.8425C66.445 13.4283 65.9283 15.1178 65.6688 16.8556C65.6688 16.664 65.2778 16.411 64.6033 15.1846C64.2535 14.6881 63.9724 14.1466 63.7678 13.5749C63.9875 12.1742 64.4685 10.8272 65.1858 9.60424C65.2501 9.46303 65.3298 9.32936 65.4235 9.20564C65.7682 9.8263 66.1657 10.4161 66.6116 10.9687ZM67.4548 12.0878C68.9342 14.0961 69.7544 14.3874 69.7544 14.901C69.0304 16.5366 68.5153 18.257 68.2213 20.0214C68.2213 19.8068 67.2325 18.8946 67.1022 18.7489C66.6412 18.219 66.2137 17.661 65.8221 17.0779C66.1584 15.3536 66.7068 13.6775 67.4548 12.0878ZM71.1878 31.5117H71.7933C71.8175 31.6025 71.8699 31.6833 71.9428 31.7426C72.0158 31.8018 72.1057 31.8363 72.1996 31.8413C72.3523 31.8322 72.5055 31.8503 72.6518 31.8949C72.6322 31.9374 72.6271 31.9852 72.6371 32.0309C72.6471 32.0766 72.6718 32.1177 72.7074 32.1481C72.743 32.1785 72.7875 32.1964 72.8342 32.1991C72.8809 32.2019 72.9272 32.1893 72.9661 32.1632C72.8972 32.2913 72.8457 32.4279 72.8128 32.5695C72.7742 32.6786 72.7742 32.7977 72.8128 32.9068C72.8262 32.9307 72.8444 32.9515 72.8662 32.9681C72.888 32.9847 72.913 32.9966 72.9396 33.003C72.9662 33.0095 72.9939 33.0104 73.0209 33.0057C73.0478 33.001 73.0736 32.9908 73.0964 32.9758C73.0193 33.1379 72.99 33.3188 73.0121 33.497C72.9661 33.2977 72.4219 33.497 72.3376 33.497C72.2981 33.3696 72.2186 33.2583 72.1109 33.1796C72.0032 33.1009 71.873 33.059 71.7397 33.0601H71.6017C71.6109 32.8018 71.5825 32.5436 71.5174 32.2935C71.403 32.095 71.2426 31.9268 71.0498 31.803C71.1038 31.7128 71.1427 31.6144 71.1648 31.5117H71.1878ZM92.8499 17.1009C94.383 18.634 94.7356 21.1712 94.9579 23.2332C95.2875 26.2993 94.8812 30.8985 92.8423 33.2594C92.5858 33.6079 92.2178 33.858 91.7994 33.9682C91.381 34.0784 90.9375 34.0419 90.5427 33.8649C87.4766 31.9869 87.0243 27.955 87.1699 24.36C87.1243 22.4276 87.5229 20.5106 88.3351 18.7566C88.596 18.149 88.9887 17.6071 89.4849 17.1699C89.9273 16.7329 90.5204 16.4822 91.1421 16.4694C91.7639 16.4566 92.3668 16.6826 92.8269 17.1009H92.8499ZM89.7838 16.3344C87.8675 17.5225 86.9247 21.3322 86.8403 23.6088C86.0366 23.3157 85.2147 23.075 84.3798 22.8882C84.6734 21.3101 85.136 19.7682 85.7595 18.289C86.526 18.5726 86.894 18.634 87.6988 18.9329C87.6988 18.657 87.9058 18.9329 85.8592 18.0667C86.2945 17.2626 86.9378 16.5902 87.7218 16.1197C88.3996 16.2509 89.0863 16.3304 89.7761 16.3574L89.7838 16.3344ZM84.924 14.8013C85.739 15.2816 86.5959 15.687 87.4842 16.0124C87.2619 15.9281 86.1351 16.9399 85.6675 17.9288V17.9748C85.6675 18.1051 85.5526 18.0361 85.4682 18.0361C84.6327 17.5838 83.7129 17.2695 82.8927 16.825C83.4492 16.139 84.0456 15.4863 84.6787 14.8703L84.5714 14.74C84.4258 14.8626 82.3331 16.664 82.5708 16.8096L79.4126 15.0543C79.9996 14.2728 80.7573 13.6357 81.6279 13.1916C80.9175 13.4052 80.2648 13.7774 79.7193 14.2801C79.5966 14.4027 79.428 14.8243 79.336 14.8856C79.1137 15.0313 78.1555 14.1881 77.8643 13.9965C77.3047 13.6055 76.7451 13.2299 76.1932 12.7853C76.4314 12.5504 76.716 12.3676 77.0287 12.2488C77.3426 12.0644 77.6707 11.9054 78.0099 11.7735C78.3625 11.6509 79.543 11.2216 79.9032 11.4746C81.5144 12.6925 83.1877 13.8259 84.9163 14.8703L84.924 14.8013ZM79.8956 11.1603C79.6196 10.9227 78.3625 11.2983 78.0329 11.3826C77.2911 11.5682 76.5999 11.9165 76.0093 12.4021C75.3067 11.9017 74.65 11.3399 74.0469 10.7234C73.4567 10.2941 76.7221 8.95269 77.9486 9.55825C78.659 10.0335 79.31 10.5919 79.8879 11.2216L79.8956 11.1603ZM77.8643 9.39727C76.8064 9.00634 74.7368 9.68089 73.702 10.3018C71.1188 7.78756 71.2874 7.97153 71.2874 7.92554C72.3788 7.22297 73.6745 6.90715 74.9668 7.0287C75.9817 7.77518 76.947 8.58686 77.8566 9.4586L77.8643 9.39727ZM71.7627 4.99739C72.7285 5.1507 73.8553 6.17785 74.6295 6.76808C74.0929 6.46913 73.2038 6.76807 72.6595 6.90605C72.0898 7.10331 71.5425 7.36025 71.0268 7.67258C70.4628 6.7978 69.6666 6.09715 68.7272 5.64894C69.1616 5.38047 69.6472 5.20555 70.153 5.13536C70.679 5.00549 71.2222 4.95893 71.7627 4.99739ZM66.6882 5.02039C68.1179 4.44471 69.7035 4.38508 71.1724 4.85175C70.2338 4.91337 69.3191 5.17471 68.4896 5.61828C67.8943 5.29934 67.233 5.1235 66.5579 5.1047L66.6882 5.02039ZM66.0444 5.31933C66.7717 5.17576 67.5265 5.30976 68.16 5.69493L68.3669 5.80225C67.815 5.80225 67.0868 6.6301 66.6959 6.9827C66.5349 7.12834 65.1628 8.44678 65.3085 8.65374C65.1092 8.35479 64.9329 8.04818 64.7259 7.74923C64.519 7.45029 64.3963 7.25865 64.2353 6.9827C64.6949 6.29002 65.3156 5.71922 66.0444 5.31933ZM62.6333 10.2711C62.6331 10.432 62.6563 10.5921 62.7023 10.7464C62.8884 11.6791 63.1447 12.5964 63.4688 13.4905C63.2385 14.4709 63.2569 15.4933 63.5225 16.4647C62.6315 14.5302 62.3225 12.3782 62.6333 10.2711ZM63.1315 11.7429C62.9519 10.9892 62.8568 10.218 62.8479 9.44327C62.9231 9.23781 63.0181 9.04014 63.1315 8.85304C63.4075 8.24566 63.7358 7.66346 64.1127 7.11301C64.3273 7.48861 64.496 7.87954 64.7029 8.26281C64.9099 8.64607 65.2395 8.86837 64.9789 9.37428C64.3615 10.5944 63.8832 11.88 63.5531 13.2069C63.4556 12.7075 63.3145 12.2177 63.1315 11.7429ZM63.6758 14.1958C65.7991 18.0284 65.6534 16.1197 65.4388 18.657C65.3601 19.1142 65.4216 19.5844 65.6151 20.0061C64.8744 19.2467 64.3151 18.3295 63.9792 17.3233C63.6434 16.317 63.5396 15.2478 63.6758 14.1958ZM67.7384 22.3823C67.0565 21.7222 66.4333 21.004 65.8757 20.236C65.5313 19.6113 65.446 18.8764 65.6381 18.1894C65.6549 17.9577 65.6987 17.7288 65.7684 17.5072C65.8387 17.819 65.9893 18.1071 66.2053 18.3427C66.7467 19.075 67.3438 19.7644 67.9913 20.4047C68.027 20.4279 68.0539 20.4624 68.0678 20.5027C68.0816 20.5429 68.0817 20.5866 68.068 20.6269C68.0995 21.3689 68.2048 22.1058 68.3823 22.8269C68.2064 22.6292 67.9856 22.4767 67.7384 22.3823ZM64.9942 29.6797C65.0951 30.072 65.2838 30.4364 65.5461 30.7451C65.659 30.8709 65.8073 30.9594 65.9715 30.9991C66.1357 31.0388 66.3081 31.0277 66.4659 30.9674C66.8763 30.8633 67.2585 30.6696 67.5851 30.4002C67.7887 30.4249 67.9946 30.4249 68.1983 30.4002C68.4191 30.2774 68.6121 30.1104 68.7655 29.9096C69.025 29.6649 69.2471 29.3834 69.4248 29.0741C69.1464 28.8472 68.9565 28.5298 68.8882 28.1773C68.5892 27.0581 70.4212 26.4066 70.0073 28.9438C69.8693 29.7793 69.0492 30.1396 69.0492 30.9674C69.0492 31.1591 69.0492 31.1514 68.9188 31.3124C68.836 31.3843 68.7696 31.4732 68.724 31.5731C68.6785 31.6729 68.6549 31.7814 68.6549 31.8911C68.6549 32.0008 68.6785 32.1093 68.724 32.2091C68.7696 32.309 68.836 32.3979 68.9188 32.4698C68.7763 32.577 68.6673 32.7227 68.6049 32.8898C68.5424 33.0568 68.529 33.2383 68.5662 33.4127C68.6965 33.9492 69.1105 33.9569 69.4937 34.1792C69.4442 34.4316 69.4211 34.6885 69.4248 34.9457C69.4624 35.1068 69.5375 35.2568 69.6441 35.3833C69.7507 35.5099 69.8856 35.6094 70.038 35.6739C69.7978 36.3276 69.3181 36.8655 68.6961 37.1786C68.0741 37.4918 67.3563 37.5567 66.6882 37.3603C65.7891 37.1891 64.9768 36.7125 64.3886 36.0112C64.0615 35.5473 63.8678 35.0027 63.8286 34.4364C63.7894 33.8701 63.9062 33.304 64.1664 32.7995C64.414 32.1644 64.6289 31.5172 64.8102 30.8601C64.9329 30.4787 64.995 30.0804 64.9942 29.6797ZM36.9698 18.1817C36.2796 18.2602 35.5828 18.2602 34.8925 18.1817C34.8082 18.1817 34.7009 18.1127 34.7009 18.0207C34.7009 17.9288 34.8006 17.8751 34.8925 17.8444C35.4291 17.6911 35.7664 17.8444 35.843 17.6681C35.2583 17.4493 34.7043 17.1555 34.195 16.7943C34.2073 16.7671 34.2291 16.7453 34.2563 16.733C34.6013 16.549 35.0918 16.9323 35.3755 16.733C35.1838 16.3497 34.9079 16.411 34.3943 16.1657C34.264 16.1657 34.2027 15.8668 34.5016 15.8975C34.893 15.914 35.2756 16.0188 35.6208 16.2041C35.6208 15.8131 35.0612 15.7595 35.0612 15.4375C35.2326 15.4526 35.398 15.5077 35.5441 15.5985C36.2678 15.9504 36.9557 16.3714 37.5984 16.8556C37.5371 16.802 37.1691 17.4612 37.1385 17.5072C37.0157 17.7184 36.9571 17.9608 36.9698 18.2047V18.1817ZM47.5786 35.4823C49.3228 33.7455 51.3432 32.3105 53.5576 31.2357C54.3488 32.2326 55.2544 33.133 56.2558 33.9186L56.3554 33.7806C54.1791 32.0136 52.578 29.6387 51.7562 26.9585C50.9897 24.4826 51.373 23.9997 50.9284 23.9767C48.5701 23.9862 46.2197 23.7056 43.9299 23.1412C41.9071 22.5468 40.0213 21.5596 38.3803 20.236C37.783 19.8107 37.3737 19.1706 37.2381 18.45C37.1308 16.48 39.9593 15.7748 41.9906 15.6828C43.1328 15.6292 44.2902 15.6828 45.4017 15.6138C50.8809 15.4427 56.2043 17.4524 60.2034 21.2018C62.7636 23.6701 65.3775 28.2003 64.3043 31.5653C64.0288 32.2933 63.8209 33.0451 63.6834 33.8113C62.9169 38.0042 69.4018 39.223 70.4366 35.0454C71.0038 35.605 71.3947 35.6586 72.1153 36.2718C76.2085 39.2613 77.6343 42.1128 78.6461 43.117C80.5131 43.3217 82.3395 43.8021 84.0655 44.5427C86.8933 45.756 89.3977 47.6146 91.3782 49.9697C90.5197 51.6868 90.374 52.1314 89.9448 52.369C89.4073 52.569 88.8395 52.6753 88.2661 52.6833C84.5574 53.066 80.8103 52.594 77.3124 51.3035C73.8069 50.0118 70.5405 48.1468 67.6464 45.7845C68.9181 44.3036 70.0378 42.6986 70.9885 40.9937H70.8428C67.9662 45.6508 63.7615 49.3402 58.77 51.5871C58.1871 51.8898 57.5224 51.9973 56.8738 51.8938C56.2252 51.7903 55.627 51.4813 55.1673 51.0122C52.6377 48.9273 50.6677 45.5775 49.2497 42.6264C48.1757 40.9367 47.3376 39.1082 46.7584 37.1917C46.7991 36.5369 47.0933 35.9237 47.5786 35.4823ZM48.9661 73.1266L74.2616 60.6782C74.922 62.1941 75.6641 63.6731 76.4845 65.1087C77.297 66.6418 82.6167 77.5418 82.8927 78.0784C81.6195 78.7602 80.4088 79.5527 79.2747 80.447C79.005 79.7512 78.6159 79.1079 78.1249 78.546C78.2989 79.2959 78.6136 80.006 79.0524 80.6386C78.2525 81.2608 77.485 81.9234 76.7528 82.6239C76.4768 82.6239 76.5535 81.6734 75.2197 80.1021C75.4955 81.1021 75.9137 82.0573 76.4615 82.9382C75.7037 83.6741 74.9992 84.4631 74.3535 85.2991C73.7195 83.9996 72.9893 82.7492 72.1689 81.5585C72.7163 82.9874 73.3591 84.3779 74.0929 85.7207C74.0929 85.7974 72.6442 88.074 72.5599 88.1506C73.7786 88.2963 75.1431 88.0663 77.159 89.1318C78.2935 89.653 77.7033 91.1401 76.8371 91.6767C75.9902 92.0456 75.0406 92.1053 74.1542 91.8453L74.0009 91.5847C74.8253 91.6497 75.6548 91.5903 76.4615 91.4084C77.3047 91.0711 77.9946 89.7987 76.4615 89.2008C74.6396 88.6337 72.7342 88.3822 70.8275 88.4572C69.6552 88.5035 68.5092 88.8182 67.4778 89.3771C66.8295 87.8449 66.0256 86.3833 65.0785 85.0155C65.6703 86.5785 66.3775 88.0953 67.1942 89.5534C66.4361 90.0708 65.6074 90.4761 64.7336 90.7568C64.0845 89.2211 63.2779 87.7569 62.3267 86.3876C62.9087 87.8914 63.5978 89.3516 64.3886 90.7568H62.9936C62.7775 90.7186 62.5551 90.7653 62.3727 90.8871C62.273 90.6265 62.0661 90.1973 61.4068 88.7792C61.1999 88.3346 60.9776 87.8287 60.3874 87.6754C59.7567 87.7171 59.1543 87.9527 58.6627 88.3499C57.9804 88.6949 57.7275 89.1931 57.9498 89.7987C58.4174 91.0174 59.0229 92.2209 58.9923 92.1442C59.2069 92.6195 59.4828 93.2021 60.0271 93.2787C60.5713 93.3554 62.3803 92.6655 62.5413 91.7457C63.2372 92.3635 64.1495 92.6804 65.0785 92.6272C65.7521 92.5415 66.4165 92.3952 67.0638 92.1902C66.6576 92.4125 66.9412 92.2746 66.2207 92.6732C65.6688 92.9874 65.5461 93.5623 65.8527 94.2905C65.8527 94.3672 66.6193 96.1225 66.8645 96.4905C67.1635 97.0194 67.4471 97.5253 68.0987 97.5253C68.5202 97.5253 68.5816 97.4256 70.0686 96.6744C70.6972 96.2299 70.5209 95.6856 70.2679 95.0724C69.9867 94.3804 69.6668 93.7048 69.3098 93.0488C69.0721 92.5735 68.8192 91.9833 68.022 91.8913C68.8387 91.6421 69.6833 91.4953 70.5362 91.4544C72.0693 94.7351 72.0693 94.8348 72.5062 95.402L72.5675 95.333C72.6978 95.2027 72.5675 94.8654 72.4219 94.7275C72.2763 94.5895 70.8275 91.5157 70.7815 91.439C71.549 91.4281 72.3165 91.4562 73.0811 91.5234C73.3389 91.5156 73.5965 91.5413 73.8476 91.6C74.1911 92.4716 74.6172 93.3084 75.1201 94.0989L75.1891 94.0376C75.3194 93.9073 75.1891 93.57 75.0358 93.4244C75.6927 94.2224 76.4186 94.9611 77.205 95.632C77.3829 95.8655 77.6163 96.0509 77.884 96.1714C78.1518 96.2919 78.4453 96.3436 78.7381 96.3218C81.0728 95.6837 83.5318 95.652 85.8822 96.2299C86.41 96.3767 86.8872 96.6657 87.2619 97.0654C87.3604 97.2331 87.4209 97.4203 87.4394 97.614C87.4578 97.8076 87.4337 98.0029 87.3687 98.1862C87.3037 98.3695 87.1994 98.5364 87.0631 98.6751C86.9268 98.8139 86.7618 98.9211 86.5797 98.9894C85.0466 99.6486 84.0732 99.0354 81.5589 99.181C82.7947 99.7956 83.9881 100.492 85.131 101.266C85.0543 101.266 31.0446 127.842 30.0251 128.286C29.1282 126.017 12.2646 92.4585 11.958 91.669C15.0241 90.1359 17.3237 88.8712 38.5566 78.1167C38.3873 78.4323 38.2363 78.7573 38.1043 79.0902C38.0518 79.1852 38.0187 79.2897 38.0068 79.3976C37.995 79.5055 38.0047 79.6147 38.0353 79.7188C38.1038 79.8177 38.1926 79.901 38.2956 79.9631C38.3987 80.0252 38.5138 80.0647 38.6332 80.0791C38.3649 80.0101 37.7364 82.4706 37.721 82.6929C37.3838 82.1334 37.1768 81.7961 36.4486 81.9264C35.6766 82.0993 35.0043 82.5705 34.5783 83.2372C34.1337 84.4789 35.1072 85.6517 35.7204 86.5792C36.0347 87.0775 36.2953 87.5297 36.9622 87.4148C37.4355 87.3082 37.8938 87.1434 38.3266 86.9242C38.507 86.8552 38.6732 86.7539 38.8172 86.6252C39.3614 86.0503 39.1468 85.4218 38.8172 84.8009L38.6945 84.5709C38.4722 84.111 38.1656 83.7354 37.928 83.2832C38.7259 83.927 39.716 84.2859 40.7412 84.3026C40.7799 84.301 40.8182 84.3111 40.851 84.3316C40.8838 84.3521 40.9097 84.3821 40.9251 84.4176C41.0325 84.5786 41.3927 85.5214 41.6074 85.5214C41.6917 85.5214 41.6993 85.3988 41.6687 85.3298L41.3237 84.4866C41.4004 84.4866 41.3237 84.4866 42.7648 84.5633C44.1139 84.6476 44.6735 83.9117 45.7773 83.4671C46.1989 83.2832 46.8198 82.9995 46.8964 82.486C46.8846 81.9838 46.7036 81.5004 46.3828 81.1139C45.5703 79.8874 45.486 79.1822 44.9188 78.6227C46.5627 77.0273 47.9304 75.17 48.9661 73.1266ZM68.4436 92.2899C68.5126 92.3665 71.1801 96.1225 69.5627 96.5825C68.5662 97.1114 68.091 97.2187 67.7307 97.0041C67.3411 96.6084 67.0383 96.1359 66.8415 95.6166C66.5809 94.7964 66.3586 94.6661 66.075 93.8919C65.6381 92.9798 67.976 92.0139 68.4436 92.2899ZM60.0807 92.7805C59.5902 92.6425 59.3985 92.0139 59.1379 91.4084C58.9386 90.9561 57.9345 89.7297 58.1721 88.9632C58.2122 88.8413 58.2781 88.7296 58.3655 88.6357C58.4528 88.5417 58.5594 88.4678 58.678 88.4189C59.1492 88.0786 59.7075 87.8792 60.2877 87.844C60.671 87.8977 62.1964 90.9101 62.2347 90.9715C62.8556 92.0293 60.9086 92.7728 60.0807 92.8111V92.7805ZM38.8862 86.2573C38.1733 86.9395 36.7246 87.7214 36.096 86.6329C34.9385 84.6016 34.3176 83.95 34.7929 83.2832C35.2243 82.8848 35.7531 82.6072 36.326 82.4783C37.3684 82.0874 37.4528 83.1528 38.5029 84.8622C38.8249 85.5061 39.0471 85.8817 38.8862 86.288V86.2573ZM44.5508 79.3585C44.6581 79.2435 44.9264 78.9139 44.9724 78.8526C45.1257 79.0366 45.8156 80.5773 45.9153 80.7996C46.2451 81.2476 46.4441 81.7783 46.4902 82.3327C46.4212 82.7236 46.1299 82.8922 45.7773 83.0992C45.4399 83.3052 45.0728 83.4577 44.6888 83.5514C44.6759 83.403 44.6333 83.2586 44.5636 83.1269C44.4938 82.9952 44.3982 82.8789 44.2826 82.7849C44.1446 82.6623 43.7766 82.5396 43.6923 82.4093L42.9948 81.1445C43.5571 80.5996 44.0773 80.0128 44.5508 79.3892V79.3585ZM41.96 81.5585C42.0818 81.601 42.2125 81.6121 42.3398 81.5906C42.4671 81.5692 42.5869 81.5159 42.6882 81.4358C42.8415 81.7501 42.9641 81.7424 43.0561 82.2023C41.8603 81.9724 41.96 81.6198 41.96 81.5585ZM41.6687 81.3515V81.5355C41.6636 81.7106 41.7186 81.8821 41.8246 82.0216C41.9306 82.1611 42.0812 82.26 42.2512 82.302C42.9678 82.4784 43.6407 82.7992 44.2289 83.2448C44.9188 84.0114 43.3934 83.9194 43.0484 83.9194C41.1858 83.9194 40.2199 84.042 38.8555 83.3981C38.3343 83.1452 38.4109 82.7849 38.5412 82.2637C38.6988 81.6326 38.8985 81.0129 39.1391 80.4087C39.6834 80.6616 40.3043 80.7536 40.8485 81.0296C41.1029 81.1751 41.3803 81.2762 41.6687 81.3285V81.3515ZM28.3617 134.533H28.3004C27.6981 133.971 27.2495 133.264 26.9973 132.479C26.959 132.402 8.75385 95.241 7.30511 92.5045C7.12428 92.2547 7.01213 91.9619 6.97985 91.6552C6.94757 91.3486 6.99629 91.0388 7.12114 90.7568C7.43853 90.2963 7.89527 89.9497 8.42425 89.768C10.1949 89.0015 37.9203 75.2959 39.9057 74.3454C39.4994 75.6178 39.1391 76.4764 38.7175 77.7488C36.8855 78.6303 11.544 91.439 11.3371 91.439C11.3371 91.5234 29.5115 128.478 29.5958 128.631C29.6801 128.784 30.0864 128.631 30.1631 128.631C30.2397 128.631 85.1846 101.596 85.6139 101.35C85.6905 101.35 87.9748 102.883 88.1281 102.96C88.5133 103.223 88.9274 103.442 89.3622 103.612C90.6138 103.107 91.9343 102.795 93.2792 102.684C94.7126 102.623 97.1118 102.876 96.9739 104.317C96.8915 104.726 96.6556 105.088 96.3147 105.329C95.9007 105.674 89.8528 108.586 89.7761 108.625C90.5505 107.653 91.5327 106.867 92.6506 106.325C93.5398 105.88 94.544 105.796 95.9544 104.792C96.5523 104.409 96.5216 103.857 96.1383 103.612C94.0151 102.301 89.7225 102.906 87.4229 106.133C27.9171 135.461 30.6613 134.112 30.508 134.181C30.0174 134.449 29.1282 134.978 28.3617 134.533ZM95.6938 107.007C94.5976 107.559 90.0598 109.751 88.8793 110.342C89.0276 109.861 89.2445 109.404 89.5232 108.985C92.5893 107.552 93.7084 106.992 94.8889 106.325C94.9809 106.402 95.5481 106.915 95.6784 107.007H95.6938ZM29.6265 146.867C29.7108 145.403 30.0787 135.545 30.0787 135.545C30.0481 135.365 30.0481 135.181 30.0787 135.001C30.1324 134.779 30.3164 134.733 30.8453 134.472L87.1009 106.754L86.4417 108.073C82.7241 109.882 32.9072 134.625 32.6236 134.625C31.0062 135.338 31.6348 134.901 31.5121 136.818V137.393C31.5121 137.868 31.4278 138.335 31.4355 138.811C31.4355 138.956 83.9582 113.04 84.0348 113.002C84.0084 113.061 83.9947 113.125 83.9947 113.189C83.9947 113.254 84.0084 113.318 84.0348 113.377C84.2188 113.937 85.2613 113.929 85.7135 113.937C86.3964 113.958 87.0738 113.808 87.6835 113.5C88.7107 112.48 88.6647 111.476 88.8793 110.733C90.4737 109.928 90.0061 110.135 96.5906 106.9C96.6749 106.9 99.0512 107.889 99.3884 107.988C99.3499 108.312 99.3499 108.639 99.3884 108.962C99.4256 109.296 99.5355 109.618 99.7104 109.905C100.087 110.508 100.558 111.046 101.105 111.499C101.036 111.522 31.0369 146.031 29.6112 146.836L29.6265 146.867ZM33.9037 137.607C33.9198 137.286 33.8967 136.964 33.8347 136.649C33.8269 136.619 33.8269 136.587 33.8347 136.557C33.7657 136.457 85.4606 111.001 85.3686 111.055C85.1351 111.57 84.8334 112.052 84.4717 112.488L33.9037 137.607ZM33.7504 136.358L33.6584 135.522C33.6124 135.331 29.8258 137.201 85.8208 109.813C85.7211 110.171 85.5796 110.515 85.3993 110.84C85.3073 110.848 34.149 136.082 33.7274 136.327L33.7504 136.358ZM31.7881 136.358C32.0794 136.212 33.1755 135.653 33.4131 135.507V136.496C32.7923 136.764 31.6808 137.262 31.5888 137.262V136.388C31.6667 136.376 31.7436 136.359 31.8188 136.335L31.7881 136.358ZM31.8724 135.331C32.0794 135.162 32.9609 134.84 33.3212 134.641L33.3748 135.323C33.3748 135.4 33.4285 135.323 31.7881 136.204C31.7728 135.492 31.7268 135.407 31.8571 135.285L31.8724 135.331ZM31.7881 137.416C32.3883 137.17 32.9743 136.891 33.5435 136.58C33.5894 136.948 33.6278 137.316 33.6584 137.684C33.6048 137.684 31.6118 138.65 31.5811 138.673V137.477C31.6425 137.354 31.6961 137.377 31.7728 137.37L31.7881 137.416ZM33.6738 135.17V134.449C33.8884 134.449 84.4334 109.529 86.4264 108.586C86.2424 109.069 86.1964 109.184 86.1198 109.353C78.4851 112.779 41.3084 131.421 33.6584 135.124L33.6738 135.17ZM121.265 123.833C121.012 124.507 121.932 125.143 122.484 125.504C121.832 125.703 120.813 126.033 120.598 126.692C120.522 127.052 120.867 127.458 121.143 127.757C121.327 127.957 122.676 129.628 122.607 129.559C120.775 128.968 115.394 126.776 115.47 126.807C114.909 126.628 114.388 126.342 113.937 125.964C113.27 125.036 114.911 123.932 115.945 122.721C116.482 122.162 116.505 121.955 117.042 121.38C117.486 120.698 118.483 121.656 123.136 122.238C122.645 122.645 122.039 122.622 121.25 123.787L121.265 123.833ZM129 122.874C128.463 122.874 112.757 119.532 111.722 119.042C111.599 118.988 111.599 118.988 111.599 118.873C111.638 118.59 114.765 109.376 115.608 107.276C115.733 106.89 115.932 106.533 116.195 106.225C116.458 105.917 116.78 105.665 117.141 105.482C118.171 104.971 119.281 104.642 120.422 104.508C122.086 104.182 123.768 103.949 125.458 103.811C126.186 103.811 126.608 104.685 127.053 105.344C128.584 107.857 129.596 110.652 130.029 113.563C130.462 116.474 130.307 119.442 129.574 122.292C129.452 122.752 129.222 122.828 128.984 122.828L129 122.874ZM137.431 119.992C139.792 121.05 139.9 123.135 137.983 124.798C137.233 125.721 136.41 126.582 135.523 127.374C135.676 126.725 135.881 126.089 136.136 125.473C136.512 124.576 136.458 124.132 135.369 124.132C134.654 124.173 133.94 124.044 133.284 123.756L133.507 123.518C133.936 123.066 134.473 122.499 134.404 121.847C134.335 121.196 133.568 120.828 132.043 120.613C133.936 118.053 133.683 117.953 133.936 118.053C135.122 118.625 136.279 119.257 137.401 119.946L137.431 119.992ZM136.052 106.195C136.2 106.766 136.305 107.348 136.366 107.935C136.269 107.564 136.06 107.232 135.768 106.984C135.717 106.933 135.652 106.897 135.581 106.882C135.51 106.867 135.437 106.873 135.369 106.9C135.132 107.023 135.04 107.467 135.047 107.743C134.356 111.048 133.23 114.247 131.698 117.256C131.161 118.16 131.192 118.329 131.238 118.444C131.391 118.934 132.15 118.375 132.587 118.199L133.461 117.708C132.429 119.336 131.279 120.886 130.019 122.346C130.74 119.087 130.831 115.72 130.287 112.427C129.694 109.294 128.39 106.339 126.478 103.788C129.442 103.617 132.416 103.772 135.346 104.248C135.728 104.826 135.959 105.49 136.021 106.179L136.052 106.195ZM130.908 98.4911C132.697 99.9022 134.144 101.7 135.139 103.75C129.584 102.938 123.925 103.164 118.452 104.416C117.529 104.611 116.678 105.057 115.991 105.704C114.374 107.95 114.32 109.537 113.692 111.331C112.695 114.213 111.937 116.551 111.293 118.689C107.928 117.156 100.078 111.4 99.7947 108.632C99.8484 107.099 101.481 101.872 104.777 99.2117C106.272 97.9847 107.931 96.9733 109.706 96.2069C109.532 96.3707 109.394 96.5702 109.304 96.7916C109.213 97.0131 109.171 97.2514 109.181 97.4905C109.19 97.7296 109.251 97.9639 109.359 98.1775C109.466 98.3912 109.619 98.5791 109.806 98.7287L110.641 99.8096C110.765 99.9766 110.922 100.117 111.102 100.221C111.281 100.326 111.481 100.393 111.687 100.418C111.894 100.443 112.103 100.426 112.303 100.367C112.503 100.309 112.688 100.21 112.849 100.078C113.015 99.9545 113.155 99.7986 113.26 99.6197C113.364 99.4408 113.431 99.2425 113.457 99.0369C113.483 98.8313 113.467 98.6225 113.41 98.4233C113.352 98.2241 113.256 98.0386 113.125 97.8779L112.358 96.7051C112.22 96.4166 112.003 96.1737 111.731 96.0052C111.459 95.8368 111.145 95.7498 110.825 95.7546C113.982 94.5973 117.362 94.1804 120.706 94.5358C120.394 96.0255 120.205 97.538 120.138 99.0584C120.092 99.9629 120.959 99.7176 120.974 98.9664C121.029 97.4867 121.195 96.0134 121.472 94.5588C123.197 95.149 123.956 94.6891 128.095 96.5825C127.582 97.1553 127.108 97.7622 126.677 98.3991V98.4221C126.593 98.5754 126.447 98.8744 126.738 99.0737C127.03 99.273 127.574 98.6291 127.758 98.3761C128.068 97.8852 128.408 97.4141 128.777 96.9657C129.981 97.7859 130.31 98.0005 130.878 98.4758L130.908 98.4911Z" fill="black"/>
<path d="M137.401 119.946C137.447 119.977 137.447 119.977 137.401 119.946V119.946ZM102.799 104.225L102.669 104.631C103.727 105.109 104.723 105.714 105.636 106.432L105.896 106.034C104.917 105.344 103.881 104.739 102.799 104.225ZM106.111 103.228C105.597 102.922 105.344 102.684 104.486 102.094C104.328 102.009 104.179 101.909 104.041 101.795L103.781 102.178C104.133 102.485 104.616 102.715 105.176 103.152C105.606 103.488 106.057 103.797 106.525 104.079C106.617 104.079 106.525 104.14 106.839 103.696C106.608 103.522 106.365 103.366 106.111 103.228ZM126.416 116.88C124.255 113.538 122.377 109.981 120.568 106.524C120.453 106.31 120.338 106.21 120.207 106.21C119.893 106.256 119.709 106.9 119.556 107.582C119.556 108.18 117.885 111.798 116.881 115.401C116.681 116.075 117.111 116.343 117.502 116.504C120.335 117.915 123.414 118.766 126.57 119.011C126.838 119.011 127.167 119.011 127.275 118.827C127.298 118.77 127.305 118.709 127.297 118.649C127.289 118.588 127.266 118.531 127.229 118.482C127.044 117.909 126.77 117.368 126.416 116.88ZM123.825 110.51C123.986 110.909 124.592 110.924 125.358 111.169C125.808 111.351 126.296 111.415 126.777 111.353C126.922 111.307 126.991 111.238 126.976 111.146C126.976 110.901 126.133 110.771 126.133 110.771L125.726 110.725C125.493 110.744 125.259 110.716 125.037 110.644C124.814 110.571 124.608 110.456 124.431 110.303C124.086 109.713 124.27 109.399 124.224 108.77C124.224 107.59 124.278 107.383 124.032 106.953C123.91 106.823 123.695 106.701 123.626 107.084C123.6 108.229 123.667 109.375 123.825 110.51ZM133.031 106.739C132.947 106.509 132.717 105.972 132.495 106.087C132.273 106.202 132.495 106.716 132.84 107.62C133.014 107.998 133.125 108.402 133.169 108.816C133.169 109.268 132.779 109.498 132.403 109.744C132.127 109.836 131.636 110.012 131.514 110.296C131.51 110.34 131.519 110.384 131.54 110.423C131.56 110.462 131.591 110.495 131.629 110.518C132.04 110.487 132.434 110.338 132.763 110.089C133.085 109.943 133.66 109.567 133.721 109.192C133.596 108.348 133.365 107.524 133.031 106.739Z" fill="black"/>
</svg>
