<svg width="155" height="155" viewBox="0 0 155 155" fill="none" xmlns="http://www.w3.org/2000/svg">
<path d="M149.853 120.746H25.8054V7.35332C25.8052 6.74706 26.0335 6.16299 26.4447 5.71748C26.8558 5.27197 27.4198 4.99774 28.0241 4.94942C41.2601 3.89887 61.1069 6.38192 84.1068 6.707C93.4112 6.83842 103.98 6.00996 113.957 5.59036C126.253 5.07238 150.009 5.0816 149.853 20.3127C149.8 25.4778 150.201 36.8648 149.176 54.9225C148.67 63.8464 150.154 84.2519 150.201 92.7032C150.311 112.271 149.853 120.746 149.853 120.746Z" fill="#F4F0EA"/>
<path d="M69.3675 51.0059C69.6027 47.1526 69.389 27.3089 69.3306 9.13365C69.3306 8.65641 69.1885 8.57494 67.9243 8.57033C63.6152 8.55419 36.6183 8.81395 36.6029 8.81088C36.4415 8.7809 36.2225 9.12366 36.264 9.27198C36.3193 9.46795 36.1872 16.5728 36.1787 21.2092C36.1787 21.2246 36.3409 35.7955 36.2494 43.5997C36.1979 47.9626 36.1556 49.9784 36.1649 50.8967C36.1103 51.5469 36.4922 51.6345 36.9872 51.6437C41.0311 51.7206 64.6381 51.802 68.7266 51.6745C69.2261 51.6599 69.3399 51.4524 69.3675 51.0059Z" fill="white"/>
<path d="M6.34375 121.015H149.9V149.406H6.34375V121.015Z" fill="#EEF6FF"/>
<path d="M65.8863 13.7068C65.8924 13.8489 66.2344 13.9373 63.1965 13.9442C62.3165 13.9442 40.5654 14.144 40.3264 14.1579C39.5925 14.2009 39.6217 14.1456 39.6294 13.9104C39.6716 12.5578 39.4104 12.0183 40.1128 11.9484C40.1896 11.9407 61.88 11.8938 65.1462 11.6956C66.0192 11.6425 65.8094 11.8869 65.8863 13.7068Z" fill="#D3C9C1"/>
<path d="M65.9708 16.6591C65.98 17.0288 65.2131 16.9534 63.8144 16.935C59.1833 16.8743 39.5756 17.1509 39.5733 16.8443C39.551 14.4619 39.4795 14.6525 39.8546 14.6541C47.6611 14.6963 65.6427 14.4127 65.658 14.4112C66.0331 14.3689 65.9124 14.3205 65.9708 16.6591Z" fill="#D3C9C1"/>
<path d="M65.9862 19.9226C65.9915 20.1531 66.0415 20.1116 64.9018 20.0486C63.3755 19.9641 42.8056 20.2792 39.9875 20.2453C39.3681 20.2377 39.6194 20.5036 39.564 17.9106C39.5464 17.0822 39.7454 17.5901 47.2053 17.5755C50.2502 17.5694 50.7897 17.4902 65.7502 17.4902C66.0984 17.4902 65.9247 17.4925 65.9862 19.9226Z" fill="#D3C9C1"/>
<path d="M65.9679 21.4351C65.9963 22.9967 66.2061 23.2027 64.9834 23.1535C64.6061 23.1396 43.1447 23.7214 39.9131 23.437C39.6503 23.414 39.5012 23.4609 39.5035 22.9706C39.5166 20.6781 39.3291 20.8064 39.7103 20.7918C41.2227 20.7327 59.2411 20.5989 61.0379 20.579C63.1498 20.5559 64.5123 20.7104 65.7412 20.7042C65.9833 20.7211 65.9571 20.8472 65.9679 21.4351Z" fill="#D3C9C1"/>
<path d="M65.9292 26.0463C65.9292 26.2061 65.8854 26.3906 65.5564 26.3898C64.1808 26.3844 40.8051 26.6634 40.5691 26.6788C39.4125 26.7556 39.5424 26.711 39.4878 26.283C39.474 26.1754 39.4878 24.2902 39.4878 24.2733C39.5017 24.135 39.411 24.0574 39.7914 24.052C41.2608 24.0282 63.0242 23.7115 64.9693 23.7254C66.2489 23.7346 65.8723 23.1713 65.9292 26.0463Z" fill="#D3C9C1"/>
<path d="M65.9485 27.1074C65.9739 28.221 65.9093 28.9249 65.9393 29.283C65.997 29.9655 65.6734 29.6488 62.0491 29.8317C54.5293 30.2114 39.4834 29.9778 39.4834 29.9624C39.4903 27.2058 39.465 27.2634 39.7908 27.2426C41.2394 27.1535 65.9432 26.8461 65.9485 27.1074Z" fill="#D3C9C1"/>
<path d="M65.9708 31.9579C66.0038 33.6609 66.1491 33.3127 64.7411 33.3965C59.2025 33.7262 40.7952 33.4734 40.1558 33.4457C39.5786 33.4196 39.5502 33.4319 39.5463 33.1329C39.511 30.6476 39.418 30.6568 39.6785 30.6476C44.3572 30.4862 46.8041 30.7475 51.3875 30.6829C54.6629 30.6368 59.1556 30.5292 65.3536 30.3563C65.9416 30.3402 65.93 29.8929 65.9708 31.9579Z" fill="#D3C9C1"/>
<path d="M66.0322 33.9947C66.0383 34.5035 66.0537 35.3781 66.0721 36.4486C60.2722 36.756 41.569 36.3833 40.8435 36.4532C39.5993 36.444 39.5662 36.6269 39.5639 35.9644C39.554 33.8057 39.3695 34.0593 40.6537 34.0816C40.9926 34.0831 56.2145 34.379 66.0322 33.9947Z" fill="#D3C9C1"/>
<path d="M130.937 43.3878C131.097 43.5536 131.221 43.7499 131.304 43.965C131.386 44.1801 131.424 44.4096 131.416 44.6397C131.407 44.8699 131.353 45.096 131.255 45.3045C131.157 45.5131 131.019 45.6998 130.847 45.8536C130.676 46.0074 130.475 46.1251 130.257 46.1997C130.039 46.2742 129.809 46.3041 129.579 46.2876C129.349 46.2711 129.125 46.2084 128.92 46.1034C128.715 45.9984 128.534 45.8532 128.386 45.6764C128.179 45.4249 128.044 45.1215 127.997 44.799C127.949 44.4765 127.991 44.1471 128.117 43.8466C128.239 43.5944 128.42 43.3753 128.645 43.2078C128.869 43.0403 129.131 42.9294 129.408 42.8844C129.684 42.8394 129.968 42.8617 130.234 42.9493C130.5 43.0369 130.741 43.1873 130.937 43.3878ZM129.619 45.6203C129.737 45.6263 129.854 45.6084 129.965 45.5675C130.076 45.5265 130.177 45.4636 130.262 45.3823C130.348 45.3011 130.416 45.2033 130.463 45.0949C130.509 44.9866 130.533 44.8698 130.533 44.7519C130.478 43.0512 128.662 43.4347 128.668 44.2769C128.668 44.5075 128.811 44.4744 128.89 44.4114C128.969 44.3484 129.076 44.1509 129.314 44.1094C129.379 44.095 129.446 44.0944 129.511 44.1076C129.577 44.1208 129.638 44.1476 129.693 44.1862C129.747 44.2248 129.792 44.2744 129.826 44.3317C129.86 44.3891 129.882 44.4529 129.889 44.519C129.928 44.6156 129.935 44.7222 129.908 44.8228C129.881 44.9235 129.822 45.0126 129.74 45.077C129.636 45.1492 129.51 45.2107 129.41 45.2675C129.081 45.4612 129.421 45.6318 129.619 45.6203Z" fill="#8397B7"/>
<path d="M125.825 115.405C126.446 115.93 126.937 116.592 127.26 117.339C127.583 118.085 127.73 118.896 127.69 119.708C127.661 121.532 126.034 123 125.931 122.892C125.795 122.749 125.865 122.692 125.709 121.752C125.633 121.297 126.954 120.245 126.312 118.127C126.156 117.567 125.86 117.056 125.45 116.644C125.04 116.231 124.53 115.931 123.971 115.773C123.761 115.768 123.74 115.567 123.692 114.89C123.668 114.545 124.783 114.581 125.825 115.405Z" fill="#8397B7"/>
<path d="M127.379 44.9687C127.488 45.668 127.884 45.8663 127.556 45.9938C123.846 47.4348 123.611 46.9722 121.299 56.1797C116.791 74.1443 114.119 82.7839 113.311 86.6264C112.994 88.1312 112.715 87.8092 106.471 87.2466C106.015 87.2059 90.8705 86.5096 90.7107 86.4781C90.3856 86.4213 61.8148 84.6337 61.3375 84.606C57.5503 84.4078 56.937 84.3278 56.6496 83.6969C56.5266 83.4271 56.9086 83.4441 57.2191 83.4356C60.5237 83.3434 59.7113 84.0981 60.1824 83.6462C60.383 83.454 60.3915 83.5693 64.048 83.7107C64.898 83.743 64.7627 84.0274 65.0748 83.8575C65.3261 83.7207 70.0032 83.9935 70.2899 84.022C70.4436 84.0373 70.5781 84.4162 70.9131 84.1757C71.1552 84.0005 71.2505 84.1042 72.8429 84.1695C76.3572 84.3148 76.3557 84.0973 76.5133 84.4147C76.8322 85.0602 77.0136 84.2272 77.4355 84.2548C81.62 84.5315 83.7372 84.5799 84.1983 84.9611C84.6594 85.3423 84.3851 84.7367 85.2197 84.8243C85.7384 84.8789 86.2572 84.9511 86.7782 84.9987C86.9673 85.0157 87.1625 84.9742 87.3523 84.9865C91.9634 85.2785 91.5545 84.8827 92.6965 85.1632C92.9424 85.2239 92.9839 85.7012 93.4727 85.3853C93.9615 85.0694 98.1606 85.5306 98.7931 85.6097C100.296 85.7965 100.039 85.5398 102.496 85.8672C102.605 85.8818 102.809 86.3982 103.182 86.0624C103.413 85.8564 103.24 85.9087 106.852 86.1438C112.539 86.5135 111.925 86.734 112.489 84.4439C115.986 70.1704 111.618 86.4366 118.329 61.6069C122.392 46.581 121.48 46.6724 127.116 44.7635C127.306 44.7004 127.358 44.8303 127.379 44.9687Z" fill="#D8E9FF"/>
<path d="M123.885 49.3529C124.528 47.7929 126.087 47.2349 125.981 47.4862C123.873 52.4662 123.051 58.313 116.508 81.9846C115.161 86.8585 115.519 86.8185 114.412 86.903C113.555 86.8016 113.551 88.2264 118.441 69.8045C120.374 62.5183 121.423 58.3337 122.027 55.8637C122.443 53.6405 123.065 51.4608 123.885 49.3529Z" fill="#D8E9FF"/>
<path d="M125.732 117.992C125.93 118.427 126.017 118.904 125.984 119.381C125.951 119.858 125.8 120.319 125.545 120.723C125.438 120.857 125.345 120.709 125.281 120.581C124.819 119.672 124.345 119.365 124.299 119.091C124.115 118.308 123.989 117.514 123.923 116.713C123.872 116.433 124 116.295 124.258 116.435C124.93 116.747 125.457 117.304 125.732 117.992Z" fill="#D8E9FF"/>
<path d="M120.645 127.798C119.963 127.827 119.282 127.726 118.637 127.502C118.033 127.236 117.49 126.851 117.04 126.368C116.59 125.886 116.244 125.316 116.022 124.695C115.8 124.074 115.707 123.414 115.748 122.756C115.79 122.098 115.965 121.455 116.264 120.867C116.404 120.597 116.454 120.593 116.675 120.818C117.002 121.151 117.164 121.307 117.02 121.72C116.827 122.241 116.756 122.8 116.814 123.352C116.872 123.905 117.057 124.437 117.354 124.906C117.65 125.376 118.052 125.771 118.526 126.06C119 126.349 119.535 126.525 120.089 126.574C124.623 126.948 125.358 120.733 121.71 119.528C121.389 119.422 121.39 119.556 121.299 119.013C121.222 118.531 121.218 118.34 121.547 118.425C127.459 119.938 125.753 127.887 120.645 127.798Z" fill="#8397B7"/>
<path d="M123.592 118.531C123.412 118.584 123.664 118.636 122.738 118.16C121.604 117.579 121.178 118.083 121.093 117.744C120.824 116.668 120.662 116.74 119.608 115.731C119.473 115.601 119.494 115.504 119.816 115.347C122.121 114.202 121.814 112.622 122.322 113.05C122.67 113.345 122.783 113.435 122.977 114.364C123.259 115.74 123.464 117.131 123.592 118.531Z" fill="#D8E9FF"/>
<path d="M122.748 120.808C123.223 121.376 123.498 122.084 123.532 122.824C123.565 123.563 123.355 124.294 122.933 124.902C122.593 125.344 122.14 125.686 121.623 125.893C121.105 126.101 120.542 126.166 119.991 126.082C119.44 125.997 118.921 125.767 118.489 125.415C118.057 125.063 117.727 124.601 117.534 124.078C117.324 123.557 117.261 122.988 117.353 122.434C117.613 121.764 117.353 121.755 119.603 123.928C120.387 124.685 121.731 124.34 121.755 123.282C121.814 120.746 121.227 119.882 121.678 119.998C122.089 120.188 122.453 120.465 122.748 120.808Z" fill="#D8E9FF"/>
<path d="M116.572 92.0356C124.193 106.809 125.18 107.737 122.536 110.338C122.342 110.53 122.229 110.176 122.208 110.071C122 109.12 121.647 108.852 121.881 108.54C122.128 108.21 122.28 107.817 122.32 107.406C122.359 106.996 122.285 106.582 122.106 106.21C119.46 100.38 116.484 94.7053 113.191 89.2144C112.943 88.8401 112.724 88.6864 112.495 88.369C112.536 88.3491 112.576 88.3114 112.618 88.3106C113.491 88.2868 113.44 87.3531 113.831 87.7565C114.904 89.0747 115.823 90.5102 116.572 92.0356Z" fill="#D8E9FF"/>
<path d="M121.19 122.623C121.206 123.122 121.285 123.479 120.894 123.693C120.304 124.015 119.664 123.155 119.381 122.88C119.366 122.865 118.536 122.034 118.344 121.81C115.858 118.936 114.741 119.043 114.527 116.654C114.475 116.075 115.789 116.776 118.493 115.912C118.705 115.843 118.818 115.75 119.696 116.538C119.886 116.662 120.051 116.822 120.179 117.01C120.308 117.198 120.398 117.409 120.444 117.632C120.861 119.266 121.111 120.938 121.19 122.623ZM120.318 123.037C120.926 123.024 120.763 122.216 120.318 122.248C120.264 122.245 120.21 122.252 120.16 122.271C120.109 122.289 120.062 122.318 120.023 122.354C119.984 122.391 119.952 122.436 119.931 122.486C119.91 122.535 119.898 122.588 119.898 122.642C119.898 122.696 119.91 122.75 119.931 122.799C119.952 122.849 119.984 122.893 120.023 122.93C120.062 122.967 120.109 122.996 120.16 123.014C120.21 123.032 120.264 123.04 120.318 123.037Z" fill="#D8E9FF"/>
<path d="M110.499 51.4659C121.699 50.0334 120.715 50.1871 120.643 50.4737C119.59 54.7659 120.47 53.0867 115.806 54.2394C114.885 54.4322 113.954 54.572 113.017 54.6583C109.02 54.5814 109.251 56.4258 110.077 52.2667C110.197 51.6703 110.134 51.5166 110.499 51.4659Z" fill="white"/>
<path d="M120.344 107.234C123.534 112.559 121.146 115.128 116.514 115.776C114.293 116.031 112.058 116.142 109.823 116.106C107.333 116.106 84.0154 116.655 70.4104 116.869C59.7812 117.036 61.6287 116.372 57.0322 118.632C56.4712 118.908 55.9817 119.34 55.5444 118.744C55.4696 118.668 55.4134 118.576 55.3802 118.475C55.347 118.374 55.3378 118.267 55.3532 118.162C55.3686 118.057 55.4083 117.956 55.4691 117.869C55.5299 117.782 55.6101 117.71 55.7035 117.659C57.5159 116.187 59.765 115.357 62.099 115.3C65.7056 115.104 73.8572 115.504 82.5091 115.134C116.743 113.674 118.156 115.211 119.637 112.425C119.813 112.026 119.904 111.594 119.904 111.157C119.904 110.721 119.813 110.289 119.637 109.889C118.434 106.467 111.563 93.686 111.238 93.1304C109.701 90.5013 109.117 89.8619 107.294 89.5345C105.392 89.1933 102.112 89.2125 93.8154 88.5816C92.1938 88.4578 89.0552 88.4225 87.9962 89.7643C86.4723 91.6933 88.5841 95.4951 91.3377 101.87C93.7969 107.565 94.6777 108.786 94.4732 110.724C94.4124 111.26 94.219 111.773 93.9104 112.216C93.6018 112.658 93.1877 113.017 92.7057 113.26C91.6935 114.035 89.1329 114.336 87.064 114.366C84.4726 114.405 84.166 114.821 84.043 114.083C83.9454 113.499 83.9516 112.963 84.4373 112.93C86.2279 112.821 87.24 112.831 88.3067 112.737C91.6198 112.446 92.7641 111.804 92.7026 110.136C92.6257 108.198 91.7804 107.087 88.0224 97.9036C86.5422 94.2916 84.249 89.6582 87.6973 87.7985C89.1482 87.0153 89.8576 87.1283 92.8594 87.2405C109.161 87.8553 109.829 87.8799 111.03 89.9557C117.206 100.631 119.067 105.104 120.344 107.234Z" fill="#D8E9FF"/>
<path d="M118.909 54.3834C119.616 54.2873 119.544 54.2827 119.438 54.6831C118.123 59.6377 117.511 63.1367 117.015 63.1674C111.165 63.5117 107.59 64.467 107.693 63.9267C108.744 58.4227 108.369 60.3916 109.249 56.6651C109.44 55.8535 109.264 55.7513 109.688 55.6968C110.639 55.5225 111.601 55.4073 112.567 55.3517C114.311 55.3686 116.936 54.6508 118.909 54.3834Z" fill="white"/>
<path d="M119.067 109.946C119.221 110.363 119.512 111.351 119.05 111.444C117.618 111.732 95.1057 112.243 94.8798 112.238C94.5025 112.228 94.7061 111.963 95.0658 110.931C95.1426 110.719 95.8666 110.688 97.1407 110.701C99.6707 110.727 113.817 110.163 115.137 110.092C118.795 109.887 118.929 109.584 119.067 109.946Z" fill="#D8E9FF"/>
<path d="M110.357 64.5967C117.204 63.8151 117.03 63.7382 116.936 64.1125C113.99 75.8015 114.195 75.1867 113.73 75.1598C113.268 75.1598 106.912 75.1598 105.785 75.1537C105.164 75.1537 105.563 75.4926 107.52 65.077C107.589 64.7104 107.662 64.9041 110.357 64.5967Z" fill="white"/>
<path d="M113.653 75.8614C114.055 75.8614 114.059 75.4487 112.343 82.3938C111.267 86.7566 112.943 85.6822 103.895 85.2864C103.258 85.2588 103.224 85.7767 104.279 80.9436C105.411 75.7446 105.146 75.8315 105.553 75.8368C106.912 75.8591 112.304 75.8584 113.653 75.8614Z" fill="white"/>
<path d="M99.0505 52.9841C104.046 52.4269 109.531 51.3756 109.441 51.879C108.871 55.036 108.898 54.9177 108.811 55.0045C108.724 55.0913 103.459 55.6716 101.769 55.9897C97.5227 56.7897 98.1628 56.6199 98.2527 55.9682C98.3236 55.3603 98.4358 54.7579 98.5886 54.1653C98.7392 53.2146 98.5578 53.0386 99.0505 52.9841Z" fill="white"/>
<path d="M108.525 55.7667C109.102 55.7744 108.602 55.7583 107.109 63.7976C106.973 64.5339 107.476 64.105 96.8495 65.3039C96.3599 65.3593 97.5534 59.5801 97.6703 58.9714C97.9462 57.5428 97.8954 57.3037 98.388 57.2469C98.687 57.2123 101.168 56.7573 104.057 56.3631C106.839 55.9827 104.206 56.4023 108.525 55.7667Z" fill="white"/>
<path d="M96.7464 66.0329C107.611 65.1452 107.146 64.18 106.781 65.8308C104.648 75.4763 105.098 75.1013 104.539 75.1359C98.5916 75.5101 105.948 75.245 95.3646 75.3664C95.0095 75.3664 95.0142 75.9612 96.2868 67.9326C96.608 65.8992 96.5788 66.0467 96.7464 66.0329Z" fill="white"/>
<path d="M96.7251 76.0037C104.386 76.2066 104.764 75.4658 104.641 76.0552C104.017 79.1246 103.027 83.4944 102.763 85.076C102.72 85.3311 102.603 85.2189 102.072 85.1528C100.013 84.8977 100.872 85.182 98.91 84.9799C94.9906 84.578 95.3618 84.6679 94.3274 84.6879C93.346 84.7063 93.3644 85.408 94.9583 76.3296C95.0167 76.0076 94.8415 76.076 96.7251 76.0037Z" fill="white"/>
<path d="M97.2852 102.151C98.1175 104.38 99.1834 107.279 97.6694 109.094C96.7226 110.23 95.1072 110.44 95.0719 110.075C94.982 109.152 94.9182 109.091 95.118 108.989C97.7025 107.683 97.4865 106.305 95.2717 101.24C94.2772 98.968 92.8563 95.7449 91.1463 91.8178C89.833 88.8022 89.7784 89.2333 91.0695 89.075C91.7104 89.0658 91.7158 89.0397 91.9079 89.5277C93.0253 92.3765 95.6145 97.67 97.2852 102.151Z" fill="#D8E9FF"/>
<path d="M97.1883 53.2655C98.5578 53.1011 98.1052 52.5101 97.5488 56.3396C97.4596 56.9544 97.153 56.6401 93.74 57.0904C87.1993 57.9527 91.4476 57.5461 88.1991 57.7821C87.7664 57.8136 88.4389 55.3121 88.3582 54.5374C88.3282 54.2569 88.216 54.3468 89.5109 54.1532C97.6041 52.9389 92.585 53.8227 97.1883 53.2655Z" fill="white"/>
<path d="M97.033 57.4472C97.5709 57.4065 97.033 58.4655 96.4689 62.112C95.9555 65.4305 96.2091 65.3398 95.7834 65.3774C86.6988 66.1021 86.9693 66.2658 87.0039 65.9361C87.9085 57.252 87.2668 58.6138 89.6776 58.3625C89.7099 58.3563 92.8546 57.7684 97.033 57.4472Z" fill="white"/>
<path d="M95.0064 66.1227C95.9993 65.9959 95.9924 66.062 95.9148 66.5354C94.254 76.5882 94.9334 75.4262 93.5385 75.3917C92.8746 75.3755 89.374 75.6991 86.0125 75.5953C85.5238 75.5799 85.7897 75.5546 86.1662 73.0016C86.3061 72.0563 86.2554 70.6715 86.7311 67.9871C86.9194 66.9296 86.6665 66.8343 87.4381 66.8166C87.9138 66.8097 94.2256 66.2218 95.0064 66.1227Z" fill="white"/>
<path d="M94.199 76.0826C94.4242 76.0826 94.4126 75.9289 93.6495 80.3002C92.8726 84.7522 93.1769 84.6446 92.6735 84.577C91.0596 84.3618 84.794 84.4494 84.8209 84.009C84.8309 83.8354 84.8409 83.7946 85.0714 82.3783C85.0606 81.8856 85.0969 81.3931 85.1798 80.9073C85.9898 75.7414 85.1844 76.2348 86.3871 76.2963C88.4805 76.4123 91.1934 76.1272 94.199 76.0826Z" fill="white"/>
<path d="M92.2231 109.831C92.2676 110.181 92.3284 110.253 91.1794 110.319C86.6329 110.579 86.9703 110.538 87.0364 109.634C87.0541 109.403 87.1494 109.393 87.9901 109.367C89.9675 109.304 91.0872 109.266 91.6352 109.258C92.3268 109.249 92.1585 109.323 92.2231 109.831Z" fill="#D8E9FF"/>
<path d="M91.5229 110.861C91.9356 110.841 92.2568 110.683 91.9586 111.115C91.1717 112.256 87.4905 112.186 84.4987 112.344C84.2044 112.36 83.7702 112.539 83.5765 112.537C79.6264 112.503 73.3061 112.713 69.9447 112.839C67.8622 112.867 65.7882 113.109 63.7551 113.561C62.0552 113.974 61.9253 114.678 60.3068 114.99C58.1657 115.403 57.1621 116.305 56.7002 116.297C56.8093 116.116 58.6845 114.722 58.9458 114.539C65.7924 109.724 73.0333 111.784 91.5229 110.861Z" fill="#D8E9FF"/>
<path d="M84.7833 54.694C87.6321 54.4042 87.6606 54.3597 87.6383 54.7078C87.6083 55.2004 87.4654 56.2802 87.2878 57.6666C87.2479 57.974 86.9873 57.8864 86.1927 57.9801C78.2056 58.9261 78.8919 58.8332 78.9218 58.4996C78.968 58.0216 78.9741 58.0808 78.9403 58.0762C79.2992 55.5193 78.9595 55.5201 79.2638 55.4579C81.08 55.0545 82.9258 54.799 84.7833 54.694Z" fill="white"/>
<path d="M86.1817 58.6151C87.9039 58.3676 86.838 58.7734 86.7281 62.2271C86.6622 63.4502 86.5125 64.6673 86.28 65.8698C86.2109 66.125 86.194 66.2326 85.7367 66.304C84.4079 66.5123 79.9275 66.8889 79.2735 66.9465C78.3644 67.0234 78.1208 67.3085 78.1938 66.2487C78.2291 65.7315 78.389 62.7174 78.6895 61.1635C78.9923 59.5972 78.6218 59.4728 79.4733 59.4013C79.9537 59.3544 85.6967 58.685 86.1817 58.6151Z" fill="white"/>
<path d="M85.375 67.0653C86.291 66.9585 86.1481 67.1375 86.1127 67.4373C85.5486 72.2205 85.4134 75.5834 84.8147 75.6203C78.2447 76.0046 77.7191 76.1583 77.7229 75.5988C77.7229 75.326 78.098 68.3172 78.1072 67.9829C78.1141 67.7954 78.1164 67.7408 78.5683 67.6909C79.0839 67.6332 85.1759 67.0883 85.375 67.0653Z" fill="white"/>
<path d="M77.8749 76.6331C84.3765 76.6085 84.9928 76.0183 84.9805 76.4971C84.9805 76.5124 84.3888 84.5134 83.9968 84.0899C83.8024 83.8809 77.257 83.8594 77.2017 83.5619C77.2017 83.4989 77.4484 79.6733 77.6282 77.3493C77.6774 76.673 77.5728 76.6346 77.8749 76.6331Z" fill="white"/>
<path d="M78.263 55.5001C78.6035 55.4594 78.5405 56.211 78.406 57.3168C78.1163 59.7038 79.4204 58.4619 71.8798 59.7715C71.3219 59.8683 71.1943 59.9843 71.202 59.3588C71.2174 58.0838 71.2612 57.22 71.2788 56.7566C71.2934 56.3393 71.2788 56.4 71.7607 56.2955C72.6076 56.1133 76.5308 55.5785 78.263 55.5001Z" fill="white"/>
<path d="M77.9519 59.6075C78.5221 59.5652 78.0787 60.1631 77.7797 64.3784C77.7305 65.07 77.656 65.9092 77.5492 66.8376C77.523 67.0597 77.626 67.1112 77.075 67.1811C76.7391 67.2242 75.1406 67.3779 75.1191 67.3802C72.6284 67.5977 73.2632 67.6722 71.8053 67.7298C71.2274 67.7521 71.1759 67.8974 71.1552 67.2841C71.1252 66.3834 71.1951 60.781 71.1967 60.7625C71.2251 60.3652 70.8985 60.6588 76.2419 59.7596C76.7307 59.6766 77.5676 59.6359 77.9519 59.6075Z" fill="white"/>
<path d="M77.2816 67.8557C77.6605 67.8173 77.2293 70.8629 77.2109 71.5446C77.2291 72.7601 77.1799 73.9757 77.0633 75.1858C76.9865 76.3278 77.9779 76.0089 71.3971 76.088C71.1128 76.088 71.1174 76.1357 71.1988 72.476C71.2665 69.4512 71.0451 68.7057 71.3525 68.4798C71.7453 68.2946 75.6869 68.0164 77.2816 67.8557Z" fill="white"/>
<path d="M76.6968 76.7029C77.2279 76.7029 76.912 76.6814 76.6861 80.7868C76.4655 84.783 77.0511 83.4228 74.3375 83.6257C73.3297 83.631 72.3224 83.5797 71.3204 83.472C70.9092 83.4528 71.0959 83.2991 71.1159 82.3523C71.2527 75.7223 70.578 76.8497 72.7421 76.7713C75.4388 76.6714 72.5138 76.716 76.6968 76.7029Z" fill="white"/>
<path d="M74.6474 117.746C75.1242 118.172 75.5076 118.692 75.7733 119.273C76.0391 119.854 76.1814 120.484 76.1914 121.123C76.2014 121.762 76.0787 122.396 75.8312 122.986C75.5837 123.575 75.2168 124.106 74.7535 124.547C73.4524 125.831 74.0365 124.901 74.0495 123.778C74.0495 123.521 74.6075 122.933 74.7735 122.395C75.9185 118.679 72.285 117.543 72.2835 117.519C72.2689 117.288 72.5632 117.336 73.0243 117.354C73.9558 117.392 74.2355 117.363 74.6474 117.746Z" fill="#8397B7"/>
<path d="M72.5569 118.369C75.3873 119.607 74.0939 123.138 73.8588 122.274C73.3677 120.458 72.6376 120.564 72.5369 119.399C72.4808 118.749 72.2472 118.233 72.5569 118.369Z" fill="#D8E9FF"/>
<path d="M66.7055 126.765C69.9064 128.84 73.43 125.084 71.9314 122.069C71.5337 121.33 70.9036 120.742 70.1384 120.397C69.9648 120.305 69.8541 120.263 69.8541 120.006C69.8541 119.407 69.6919 119.084 70.0846 119.211C70.8454 119.449 71.5336 119.875 72.0852 120.45C72.6368 121.025 73.0339 121.731 73.2394 122.501C73.4449 123.271 73.4522 124.08 73.2605 124.854C73.0689 125.628 72.6846 126.34 72.1434 126.925C71.6022 127.51 70.9217 127.948 70.1654 128.2C69.409 128.451 68.6015 128.506 67.8178 128.361C67.0342 128.216 66.3 127.875 65.6837 127.37C65.0674 126.865 64.5891 126.212 64.2932 125.472C63.3141 123.03 64.7351 120.778 64.9733 121.083C65.6027 121.891 65.5028 121.732 65.3875 121.971C64.9671 122.79 64.8693 123.737 65.1133 124.625C65.3574 125.512 65.9255 126.276 66.7055 126.765Z" fill="#8397B7"/>
<path d="M71.7069 117.685C72.0542 119.769 72.1149 119.513 71.1435 118.958C70.1176 118.373 69.7864 118.881 69.7848 118.405C69.7848 117.781 69.5035 117.492 70.0592 117.483C71.5731 117.47 71.6269 117.203 71.7069 117.685Z" fill="#D8E9FF"/>
<path d="M70.0193 120.991C73.4276 122.74 70.9692 128.037 67.3779 126.447C67.0123 126.279 66.6839 126.04 66.4118 125.743C66.1398 125.447 65.9297 125.099 65.7937 124.72C65.6577 124.341 65.5987 123.939 65.62 123.538C65.6413 123.136 65.7425 122.742 65.9178 122.38C67.4279 124.148 67.7991 125.164 68.9634 124.924C69.612 124.79 69.8087 124.593 69.9109 124.255C69.9974 123.405 70.001 122.548 69.9217 121.698C69.8656 121.061 69.8756 120.914 70.0193 120.991Z" fill="#D8E9FF"/>
<path d="M70.7202 56.5847C70.7248 56.6669 70.7202 56.8537 70.7294 56.8537C70.5288 60.1698 70.6602 59.9039 70.3828 59.9377C64.5721 60.647 68.7751 60.179 64.6566 60.7723C63.6299 60.9206 64.1494 60.903 63.7191 57.3286C63.6952 57.1319 70.1315 56.4517 70.2099 56.4402C70.5411 56.3895 70.7063 56.3526 70.7202 56.5847Z" fill="white"/>
<path d="M70.2052 60.6706C70.6971 60.613 70.5833 61.081 70.5826 61.2001C70.5826 62.8355 70.5188 66.7503 70.5211 67.3405C70.5211 67.9054 70.4857 67.8416 70.1975 67.8946C69.2876 68.0614 64.9602 68.3803 64.6551 68.4326C64.4053 68.4779 64.3938 68.451 64.3769 68.2097C63.8666 60.9388 63.9565 61.5598 64.3507 61.4937C67.3279 60.9926 69.4029 60.7636 70.2052 60.6706Z" fill="white"/>
<path d="M70.5657 68.8852C70.7025 77.4625 70.7586 76.0777 69.2831 76.1461C68.0377 76.2607 66.7871 76.3104 65.5366 76.2951C64.7012 76.3013 64.735 76.3559 64.7204 76.0523C64.5091 71.7586 64.4468 69.5561 64.4245 69.4039C64.3846 69.1373 64.549 69.0881 65.5704 69.0081C68.6998 68.763 69.9424 68.65 70.1899 68.597C70.5242 68.5232 70.5603 68.5271 70.5657 68.8852Z" fill="white"/>
<path d="M66.6586 76.9696C68.2248 77.028 70.571 76.3978 70.5641 77.1586C70.508 83.7793 70.5964 83.5088 70.1161 83.4504C64.8449 82.8095 65.2745 84.3818 65.0309 81.2678C64.9917 80.7629 64.7834 77.2347 64.7834 77.227C64.7819 77.0157 64.6105 76.8935 66.6586 76.9696Z" fill="white"/>
<path d="M69.4216 123.613C69.4237 123.751 69.3867 123.885 69.315 124.002C69.2432 124.119 69.1396 124.213 69.0164 124.274C68.8931 124.334 68.7553 124.358 68.6189 124.342C68.4826 124.327 68.3534 124.273 68.2465 124.187C67.0776 123.218 66.3045 121.57 64.5938 119.717C63.6716 118.718 63.4287 118.419 63.428 117.801C63.428 117.275 68.1282 117.546 68.6454 117.455C68.9474 117.401 68.9797 117.645 69.0243 117.978C69.2738 119.846 69.4065 121.728 69.4216 123.613ZM68.567 123.721C69.1295 123.715 68.9797 122.952 68.5101 122.959C68.4164 122.975 68.3323 123.026 68.274 123.102C68.2158 123.177 68.1875 123.271 68.1948 123.366C68.2021 123.461 68.2443 123.55 68.3134 123.616C68.3824 123.681 68.4734 123.719 68.5685 123.721H68.567Z" fill="#D8E9FF"/>
<path d="M66.083 37.0608C66.1552 41.2876 66.2782 47.8099 66.2736 48.0336C66.2574 48.9158 57.4249 48.0435 48.6501 48.1534C44.2419 48.2088 40.0274 48.1073 40.0105 48.1058C39.4949 48.0727 39.6639 48.7805 39.6263 42.7731C39.6263 42.7608 39.6317 38.8937 39.6124 37.5688C39.6071 37.2306 39.7569 37.0731 39.9291 37.0654C41.1587 37.0116 45.2026 37.2375 51.8187 37.1299C52.1975 37.1238 52.5488 36.987 52.5764 37.3167C52.6533 38.2435 52.744 38.2727 52.5349 38.3342C50.9472 38.8053 50.9111 41.8025 52.8915 41.6703C53.6062 41.6226 54.4939 41.608 54.9004 40.4937C54.9877 40.2979 55.0342 40.0863 55.0371 39.8719C55.04 39.6574 54.9992 39.4447 54.9173 39.2465C54.8353 39.0484 54.7139 38.869 54.5603 38.7193C54.4068 38.5696 54.2244 38.4527 54.0243 38.3757C53.5409 38.1851 53.2665 38.2681 53.2512 37.9476C53.2012 36.8825 52.8669 37.1284 53.9982 37.1207C60.9739 37.0692 64.8872 37.1223 66.083 37.0608Z" fill="#D8E9FF"/>
<path d="M64.0418 74.8946C64.1186 76.5023 64.1955 76.3747 63.5161 76.3002C63.2256 76.2679 60.4421 76.4147 60.1547 76.4024C59.7258 76.3839 59.5852 76.5299 59.4891 75.4456C59.4576 75.0836 58.922 70.4241 58.9082 70.1083C58.8789 69.485 59.0572 69.6003 59.3278 69.5949C60.0456 69.5811 61.2682 69.4574 63.5161 69.2645C63.8735 69.2337 63.8466 68.9125 64.028 73.6273C64.0526 74.2429 64.0134 74.893 64.0418 74.8946Z" fill="white"/>
<path d="M63.4461 61.8834C63.6935 68.8599 63.931 68.4449 63.5498 68.5556C62.0834 68.8424 60.5942 68.9967 59.1001 69.0167C58.9511 68.9691 58.9057 68.7362 58.888 68.428C58.5753 62.9716 57.9236 62.2031 58.8742 62.0848C59.4237 62.0171 60.9177 61.9795 62.4793 61.7566C63.3323 61.6321 63.4322 61.4853 63.4461 61.8834Z" fill="white"/>
<path d="M63.2494 57.5187C63.4508 60.2853 63.7666 60.8932 62.8091 61.0938C61.3776 61.3258 59.9326 61.4654 58.4831 61.5119C58.2119 61.5226 58.2864 61.216 58.2526 60.917C57.8683 57.6893 57.7692 58.0789 58.6222 57.8653C58.9043 57.7938 62.9005 57.3873 62.9159 57.3857C63.1103 57.3658 63.2371 57.3573 63.2494 57.5187Z" fill="white"/>
<path d="M59.5901 82.7181C59.6246 83.0324 59.3595 82.921 58.591 82.8871C56.2747 82.7849 57.3383 83.9123 56.2132 77.1956C56.1779 76.9827 56.2178 77.0365 57.6734 76.9197C59.7338 77.0365 58.8715 76.0835 59.5901 82.7181Z" fill="white"/>
<path d="M58.4163 69.9029C58.8774 75.9434 59.3669 76.3307 58.7029 76.2477C58.3578 76.2047 56.1791 76.4883 56.09 76.2739C55.8971 75.8028 55.9463 74.3449 55.426 70.4124C55.3438 69.7938 55.5028 69.8799 58.1857 69.7062C58.2144 69.7 58.2441 69.7005 58.2725 69.7076C58.301 69.7148 58.3274 69.7284 58.3497 69.7475C58.372 69.7665 58.3896 69.7905 58.4011 69.8174C58.4127 69.8444 58.4179 69.8736 58.4163 69.9029Z" fill="white"/>
<path d="M57.7944 62.3899C58.4307 68.5764 58.486 69.109 58.0964 69.1044C57.2185 69.208 56.3359 69.2672 55.452 69.2819C55.1868 69.1751 55.1254 68.239 54.8879 64.1706C54.7788 62.2992 54.7004 62.4207 55.1469 62.3945C57.9051 62.2308 57.7675 62.1286 57.7944 62.3899Z" fill="white"/>
<path d="M57.6078 60.047C57.7162 61.0545 57.8161 61.5179 57.7331 61.5694C57.4618 61.7392 56.5865 61.6631 54.9457 61.843C54.6683 61.8729 54.7228 61.8714 54.3447 58.8043C54.3155 58.5683 54.3171 58.42 54.5038 58.4023C58.052 58.0312 57.3488 57.6308 57.6078 60.047Z" fill="white"/>
<path d="M52.0161 40.3723C52.0576 37.462 55.8825 39.2372 53.723 40.8711C53.5329 40.9823 53.3096 41.0223 53.0928 40.9841C52.8711 41.0137 52.6459 40.9699 52.4515 40.8595C52.257 40.749 52.1041 40.5779 52.0161 40.3723Z" fill="#D8E9FF"/>
<path d="M64.4122 83.166C64.6197 83.1752 64.6681 83.1176 64.6428 82.9185C64.0395 77.4621 64.3769 77.0871 64.0103 77.0218C63.8205 76.9879 60.4606 77.0909 60.117 77.0832C59.3608 77.0679 59.8042 77.5889 60.1847 82.6357C60.2108 82.937 59.7904 82.9623 64.4122 83.166Z" fill="white"/>
<path d="M148.784 120.647C150.215 120.624 150.849 120.7 150.804 121.108C150.798 121.167 150.537 121.325 150.455 121.325C144.603 121.325 131.291 121.633 128.006 121.497C127.626 121.48 127.641 122.525 126.051 123.686C125.879 123.86 125.769 124.086 125.738 124.329C125.541 125.252 125.093 126.104 124.445 126.791C123.796 127.478 122.971 127.973 122.06 128.222C120.797 128.569 119.453 128.471 118.255 127.943C117.317 127.504 116.527 126.802 115.98 125.923C115.433 125.043 115.153 124.024 115.175 122.989C115.251 121.595 115.559 121.47 115.167 121.477C107.861 121.586 105.365 121.33 104.314 121.578C103.731 121.716 103.738 121.852 103.573 122.354C103.256 123.325 102.344 125.467 101.846 127.056C99.1304 135.71 96.8141 139.336 97.9814 139.259C100.405 139.1 146.251 139.033 148.094 139.039C148.698 139.039 148.325 139.444 148.122 139.6C147.872 139.793 7.44185 140.057 7.42495 140.057C7.08757 140.057 4.86504 140.123 4.96572 139.538C5.04949 139.048 9.60213 139.484 29.8962 139.065C30.7062 139.048 30.5502 138.608 30.929 137.835C31.3371 137.003 34.8377 127.064 34.8438 127.048C35.8682 124.2 36.2171 124.466 36.2878 123.288C36.3854 121.663 37.4982 121.337 36.7997 121.284C36.7835 121.284 7.1675 121.201 6.76249 121.212C6.52272 121.218 6.30139 121.171 6.31291 120.93C6.34058 120.293 6.6672 120.879 24.6749 120.652C26.1404 120.634 25.7554 121.267 25.7247 117.809C25.7247 117.798 25.6847 7.14321 25.6709 6.85579C25.6717 6.82296 25.6791 6.79064 25.6928 6.76079C25.7065 6.73094 25.7261 6.7042 25.7505 6.68221C25.7749 6.66022 25.8035 6.64344 25.8346 6.63289C25.8657 6.62234 25.8986 6.61825 25.9314 6.62087C25.9641 6.62349 25.996 6.63276 26.025 6.64812C26.054 6.66348 26.0796 6.6846 26.1002 6.71019C26.1208 6.73577 26.1359 6.7653 26.1447 6.79694C26.1534 6.82858 26.1557 6.86168 26.1512 6.89422C26.2088 9.65547 26.3049 118.505 26.3733 120.557C26.3848 120.889 36.6898 120.449 37.549 120.934C37.8986 121.132 37.8233 120.722 38.9845 120.719C67.2272 120.642 65.4935 121.849 63.2694 119.053C62.6208 118.237 63.1926 117.54 62.65 117.568C60.9347 117.654 60.3514 117.604 59.0711 118.24C58.7575 118.393 56.8516 119.342 56.555 119.55C55.6512 120.184 54.254 118.58 55.0302 117.44C56.3083 115.563 57.6862 114.588 60.3491 112.997C63.1073 111.35 67.0159 110.809 72.1396 110.691C73.6351 110.658 86.0035 110.559 86.0204 110.559C86.7981 110.512 86.2409 110.384 86.45 109.443C86.566 108.921 86.8442 108.89 87.665 108.865C91.5798 108.749 92.0101 108.86 91.8495 108.439C91.8157 108.35 90.8297 105.859 90.4109 104.883C85.6161 93.7204 83.0462 89.3852 88.07 86.9629C88.0546 86.9567 60.2692 85.0278 59.2363 85.0547C55.5905 85.15 55.4483 83.3055 56.3236 82.8698C56.4904 82.7868 56.0931 81.3766 55.592 77.358C55.539 76.9246 54.8135 76.8093 55.2685 76.1722C55.4706 75.8902 55.3453 75.8717 55.1532 73.9159C55.0764 73.1074 54.8927 69.9696 54.5884 69.6514C54.2994 69.3502 54.7059 69.2879 54.6145 68.6693C54.3355 66.7857 54.4408 62.8332 53.9843 62.5642C53.8014 62.4559 53.7668 62.2707 53.9305 62.0609C53.9874 61.9879 54.0973 61.974 54.0927 61.8526C54.0681 61.2186 53.8321 59.5409 53.7853 59.0283C53.7545 58.7109 53.7438 58.6049 53.5662 58.588C53.2181 58.5542 53.2089 58.0685 53.6231 57.9932C53.939 57.9363 55.0018 57.8809 55.4468 57.8041C67.0144 55.8006 120.826 50.0053 121.087 49.2736C121.875 47.0796 122.266 45.8722 125.001 44.8432C128.173 43.6497 127.423 43.7834 127.771 43.2247C128.007 42.8834 128.329 42.6113 128.705 42.437C129.082 42.2626 129.498 42.1923 129.91 42.2334C130.323 42.2744 130.717 42.4253 131.051 42.6703C131.386 42.9154 131.648 43.2456 131.812 43.6266C131.943 43.9064 132.016 44.2101 132.025 44.519C132.034 44.8278 131.98 45.1353 131.866 45.4224C131.751 45.7095 131.579 45.9701 131.36 46.1881C131.141 46.4061 130.88 46.5769 130.592 46.6899C128.935 47.211 128.63 46.3264 127.971 46.7176C126.476 47.6037 126.386 47.4338 125.236 51.4424L116.224 85.7824C115.686 88.2786 114.042 87.1373 114.59 87.7229C116.108 89.3445 123.079 103.247 124.07 106.063C125.31 109.588 122.84 110.382 122.442 111.575C122.275 112.075 122.384 112.288 122.606 112.459C123.677 113.284 123.362 114.119 123.727 114.097C125.141 114.014 128.814 115.656 128.13 120.646C128.077 121.037 132.116 120.917 148.784 120.647ZM130.891 45.7454C131.178 45.4226 131.341 45.0075 131.35 44.5751C131.358 44.1427 131.212 43.7215 130.937 43.3876C130.741 43.1872 130.499 43.037 130.233 42.9495C129.967 42.8621 129.684 42.84 129.407 42.8853C129.13 42.9305 128.869 43.0417 128.644 43.2094C128.42 43.3771 128.239 43.5964 128.117 43.8487C127.951 44.2141 127.919 44.6263 128.027 45.0129C128.135 45.3994 128.376 45.7355 128.707 45.9619C129.039 46.1884 129.439 46.2908 129.838 46.251C130.238 46.2113 130.61 46.032 130.891 45.7447V45.7454ZM127.69 119.711C127.73 118.898 127.583 118.087 127.26 117.341C126.937 116.595 126.446 115.933 125.825 115.407C124.782 114.583 123.668 114.548 123.692 114.894C123.739 115.571 123.761 115.772 123.971 115.777C124.53 115.935 125.039 116.235 125.449 116.648C125.859 117.06 126.156 117.571 126.312 118.131C126.954 120.249 125.634 121.301 125.709 121.756C125.863 122.695 125.795 122.755 125.931 122.896C126.034 123.002 127.66 121.534 127.69 119.711ZM127.556 45.9944C127.884 45.8668 127.488 45.6686 127.379 44.9692C127.358 44.8301 127.302 44.701 127.119 44.764C121.484 46.673 122.395 46.5816 118.332 61.6075C111.618 86.4372 115.986 70.1709 112.491 84.4445C111.93 86.7346 112.54 86.5141 106.855 86.1444C103.243 85.91 103.414 85.857 103.184 86.063C102.811 86.3988 102.607 85.8823 102.498 85.8677C100.039 85.5404 100.299 85.797 98.7953 85.6103C98.1613 85.5334 93.9537 85.0723 93.4749 85.3859C92.9961 85.6994 92.9446 85.2245 92.6987 85.1638C91.5567 84.8833 91.9648 85.2791 87.3545 84.987C87.1639 84.9747 86.9703 85.0162 86.7804 84.9993C86.2594 84.9517 85.7406 84.8794 85.2219 84.8249C84.3873 84.7373 84.6624 85.3398 84.2005 84.9617C83.7387 84.5836 81.6199 84.5321 77.4377 84.2554C77.0188 84.2277 76.8375 85.0608 76.5154 84.4153C76.3617 84.0979 76.3617 84.3154 72.8451 84.1701C71.2527 84.1048 71.1543 84.001 70.9153 84.1763C70.5803 84.4199 70.4473 84.041 70.2921 84.0226C70.0054 83.9941 65.3283 83.7213 65.077 83.8581C64.7649 84.0279 64.9002 83.7436 64.0502 83.7113C60.3937 83.5722 60.3852 83.4546 60.1846 83.6468C59.7135 84.0986 60.522 83.344 57.2213 83.4362C56.9139 83.4446 56.5296 83.4277 56.6518 83.6975C56.9392 84.3284 57.5525 84.4083 61.3397 84.6066C61.82 84.6312 90.3893 86.4218 90.7129 86.4787C90.8743 86.5071 106.017 87.2034 106.473 87.2472C112.716 87.8098 112.996 88.1318 113.313 86.627C114.122 82.7845 116.793 74.1449 121.301 56.1802C123.61 46.972 123.846 47.4354 127.556 45.9944ZM125.981 47.4869C126.087 47.2356 124.528 47.7943 123.885 49.3536C123.064 51.4623 122.442 53.6431 122.027 55.8675C121.423 58.3374 120.374 62.522 118.441 69.8082C113.551 88.2301 113.555 86.8053 114.412 86.9068C115.519 86.8192 115.161 86.8591 116.508 81.9883C123.051 58.3129 123.873 52.4668 125.984 47.4869H125.981ZM125.545 120.72C125.759 120.358 125.896 119.955 125.947 119.538C125.998 119.12 125.962 118.697 125.841 118.294C125.72 117.891 125.517 117.517 125.244 117.197C124.972 116.877 124.636 116.616 124.258 116.432C123.997 116.292 123.873 116.432 123.923 116.71C123.989 117.51 124.115 118.305 124.299 119.087C124.345 119.362 124.816 119.669 125.28 120.578C125.345 120.705 125.438 120.854 125.545 120.72ZM121.549 118.426C121.219 118.341 121.22 118.532 121.3 119.014C121.391 119.557 121.39 119.423 121.711 119.529C125.359 120.73 124.626 126.949 120.09 126.575C119.536 126.526 119.002 126.35 118.527 126.061C118.053 125.772 117.652 125.377 117.355 124.907C117.058 124.437 116.873 123.906 116.816 123.353C116.758 122.8 116.828 122.242 117.021 121.721C117.165 121.308 117.004 121.152 116.676 120.819C116.456 120.594 116.405 120.598 116.265 120.868C115.967 121.456 115.791 122.099 115.749 122.757C115.708 123.415 115.801 124.075 116.023 124.696C116.245 125.317 116.592 125.886 117.041 126.369C117.491 126.851 118.034 127.237 118.638 127.502C119.283 127.727 119.964 127.828 120.646 127.799C125.765 127.888 127.469 119.942 121.547 118.426H121.549ZM122.739 118.161C123.666 118.637 123.413 118.585 123.594 118.532C123.466 117.132 123.26 115.74 122.979 114.363C122.785 113.436 122.671 113.343 122.323 113.049C121.816 112.621 122.122 114.202 119.817 115.345C119.212 115.646 119.626 115.657 120.533 116.591C120.836 116.908 121.032 117.311 121.094 117.744C121.178 118.086 121.603 117.58 122.737 118.161H122.739ZM122.935 124.903C123.357 124.294 123.567 123.564 123.533 122.824C123.5 122.084 123.225 121.376 122.75 120.808C122.456 120.466 122.092 120.19 121.684 119.998C121.232 119.881 121.817 120.767 121.761 123.283C121.735 124.341 120.391 124.685 119.609 123.928C117.361 121.756 117.618 121.764 117.359 122.434C117.267 122.989 117.329 123.557 117.539 124.079C117.734 124.6 118.064 125.06 118.495 125.411C118.927 125.762 119.444 125.991 119.994 126.075C120.544 126.159 121.107 126.095 121.623 125.889C122.14 125.683 122.592 125.342 122.933 124.903H122.935ZM122.538 110.338C125.178 107.736 124.195 106.809 116.574 92.035C115.824 90.5095 114.904 89.074 113.831 87.756C113.44 87.3525 113.491 88.2862 112.618 88.3101C112.576 88.3101 112.536 88.3485 112.495 88.3685C112.725 88.6859 112.944 88.8396 113.191 89.2138C116.481 94.7064 119.457 100.381 122.106 106.209C122.285 106.581 122.359 106.995 122.32 107.406C122.28 107.817 122.129 108.209 121.881 108.54C121.651 108.847 121.999 109.115 122.208 110.07C122.23 110.175 122.342 110.529 122.536 110.338H122.538ZM121.757 107.426C121.896 106.725 121.537 106.01 119.93 102.874C113.705 90.7363 112.316 88.0887 110.882 88.3024C109.901 88.3024 110.701 88.35 111.274 89.2822C115.577 96.2818 120.359 106.051 121.3 107.726C121.575 108.213 121.725 107.58 121.757 107.426ZM120.895 123.694C121.286 123.48 121.208 123.123 121.191 122.624C121.113 120.938 120.863 119.264 120.446 117.629C120.399 117.406 120.309 117.195 120.181 117.007C120.052 116.819 119.888 116.659 119.697 116.535C118.82 115.747 118.707 115.843 118.494 115.909C115.791 116.773 114.477 116.072 114.529 116.651C114.743 119.039 115.859 118.932 118.345 121.807C118.539 122.031 119.368 122.862 119.383 122.877C119.665 123.156 120.304 124.016 120.894 123.694H120.895ZM120.646 50.4741C120.716 50.1874 121.7 50.0337 110.502 51.4662C110.137 51.5131 110.2 51.6699 110.082 52.2655C109.253 56.4285 109.025 54.5771 113.021 54.6571C113.958 54.5708 114.889 54.431 115.81 54.2382C120.472 53.0885 119.591 54.7662 120.645 50.4741H120.646ZM116.516 115.779C121.147 115.131 123.535 112.562 120.346 107.237C119.061 105.091 117.263 100.727 111.032 89.9608C109.83 87.8858 109.162 87.8567 92.8609 87.2457C89.8591 87.1335 89.1497 87.0205 87.6988 87.8036C84.2505 89.6634 86.546 94.296 88.0239 97.9087C91.7442 106.992 92.6296 108.19 92.7041 110.141C92.7679 111.81 91.6213 112.451 88.3082 112.743C87.2415 112.836 86.2294 112.826 84.4388 112.935C83.9531 112.965 83.9469 113.5 84.0445 114.088C84.1675 114.826 84.468 114.41 87.0655 114.371C89.1344 114.34 91.695 114.04 92.7072 113.265C93.1892 113.022 93.6033 112.663 93.9119 112.221C94.2205 111.778 94.4139 111.265 94.4747 110.729C94.6784 108.799 93.8484 107.683 91.3392 101.875C88.5857 95.4964 86.4738 91.6984 87.9977 89.7695C89.0568 88.4277 92.1953 88.463 93.8169 88.5867C102.117 89.2177 105.394 89.2015 107.296 89.5397C109.119 89.8671 109.7 90.5065 111.24 93.1355C111.565 93.6912 118.435 106.472 119.639 109.894C119.814 110.294 119.905 110.726 119.905 111.162C119.905 111.599 119.814 112.031 119.639 112.43C118.157 115.216 116.755 113.677 82.5106 115.139C73.8603 115.509 65.7071 115.109 62.1005 115.305C59.7665 115.363 57.5174 116.192 55.705 117.664C55.6116 117.715 55.5314 117.787 55.4706 117.874C55.4098 117.961 55.3701 118.062 55.3547 118.167C55.3393 118.272 55.3485 118.38 55.3817 118.481C55.4149 118.582 55.4711 118.674 55.5459 118.749C55.9832 119.346 56.4727 118.913 57.0337 118.637C61.6302 116.378 59.7827 117.041 70.4119 116.874C84.0146 116.66 107.334 116.105 109.824 116.112C112.059 116.146 114.294 116.035 116.514 115.779H116.516ZM119.436 54.6824C119.542 54.282 119.614 54.2866 118.907 54.3827C116.934 54.6501 114.309 55.3679 112.565 55.351C111.599 55.4066 110.638 55.5218 109.686 55.6961C109.262 55.7506 109.438 55.8498 109.247 56.6644C108.367 60.3878 108.742 58.422 107.692 63.926C107.589 64.464 111.163 63.5157 117.013 63.1668C117.511 63.1383 118.123 59.6378 119.437 54.6832L119.436 54.6824ZM119.129 111.982C118.96 111.941 115.651 112.165 111.785 112.29C104.531 112.52 94.5785 112.76 94.5708 112.757C94.3095 112.68 94.3272 112.743 93.5179 113.456C93.282 113.664 93.1698 113.738 93.3404 113.787C93.4326 113.814 113.654 113.658 114.376 113.633C116.023 113.576 118.518 113.738 119.129 111.983L119.129 111.982ZM119.046 111.444C119.507 111.351 119.22 110.364 119.063 109.947C118.928 109.585 118.794 109.888 115.135 110.091C113.817 110.168 99.6683 110.727 97.1384 110.7C95.8627 110.686 95.1364 110.717 95.0634 110.93C94.7038 111.966 94.5001 112.23 94.8774 112.237C95.1034 112.243 117.615 111.732 119.047 111.444L119.046 111.444ZM118.529 109.25C118.778 109.168 118.909 109.303 116.715 105.031C108.091 88.2409 110.199 90.2044 102.764 89.7149C101.143 89.6081 99.5361 89.4498 94.0797 89.1823C91.9886 89.0793 92.389 89.0286 92.8678 90.269C93.3466 91.5094 93.4557 91.6408 96.2669 98.2469C98.2604 102.935 98.9913 105.146 98.999 106.888C98.9978 107.649 98.7832 108.395 98.3795 109.04C97.9092 109.803 97.4988 109.974 97.5342 110.11C97.6387 110.483 117.299 109.652 118.529 109.25ZM116.938 64.1128C117.033 63.7385 117.206 63.8154 110.36 64.597C107.665 64.9044 107.593 64.7107 107.522 65.0773C105.566 75.4929 105.166 75.1501 105.787 75.154C106.915 75.1601 113.273 75.1601 113.732 75.1601C114.195 75.187 113.99 75.8018 116.936 64.1128H116.938ZM115.916 120.333C116.021 120.137 115.986 120.103 114.976 119.171C114.332 118.506 113.95 117.63 113.9 116.706C113.857 116.446 75.2443 117.353 75.3097 117.468C76.0896 118.378 76.5916 119.492 76.756 120.679C76.7737 120.893 77.2494 120.766 78.1824 120.793C84.1137 120.964 102.796 120.448 103.497 121.018C103.776 121.244 103.776 120.805 104.766 120.889C106.479 121.036 114.683 120.777 115.355 121.019C115.586 121.101 115.615 120.894 115.916 120.333ZM112.34 82.3972C114.057 75.4491 114.053 75.8648 113.651 75.8648C112.3 75.8648 106.91 75.8648 105.547 75.8433C105.14 75.8379 105.404 75.7511 104.273 80.9501C103.222 85.7832 103.256 85.2652 103.889 85.2929C112.943 85.6848 111.264 86.76 112.343 82.3972H112.34ZM109.438 51.8789C109.529 51.3755 104.043 52.423 99.0481 52.984C98.5555 53.0393 98.7369 53.2146 98.587 54.1652C98.4343 54.7579 98.3221 55.3602 98.2512 55.9681C98.1613 56.6198 97.5211 56.7897 101.767 55.9896C103.458 55.6715 108.717 55.0974 108.81 55.0044C108.903 54.9114 108.871 55.0359 109.441 51.8789H109.438ZM107.107 63.7985C108.599 55.7591 109.099 55.7752 108.522 55.7675C104.204 56.4023 106.836 55.9835 104.055 56.3639C101.165 56.7582 98.6846 57.2131 98.3857 57.2477C97.8931 57.3046 97.9438 57.5436 97.6679 58.9722C97.5511 59.5809 96.3614 65.3601 96.8471 65.3047C107.476 64.1059 106.973 64.5347 107.109 63.7985H107.107ZM106.779 65.8312C107.144 64.1804 107.609 65.1457 96.7441 66.0333C96.5758 66.0471 96.6058 65.8996 96.283 67.9307C95.0112 75.9594 95.0065 75.3684 95.3608 75.3645C105.944 75.2454 98.5886 75.5144 104.535 75.134C105.098 75.1009 104.648 75.4767 106.781 65.8312H106.779ZM104.641 76.0523C104.762 75.4614 104.384 76.206 96.7257 76.0009C94.8421 76.0731 95.0173 76.0009 94.9581 76.3267C93.3666 85.4059 93.3443 84.7035 94.3272 84.685C95.3616 84.665 94.9927 84.5751 98.9098 84.977C100.872 85.1792 100.013 84.8948 102.071 85.15C102.605 85.216 102.722 85.3282 102.763 85.0731C103.033 83.4938 104.019 79.1248 104.644 76.0554L104.641 76.0523ZM103.104 121.944C103.279 121.53 103.115 121.414 101.699 121.38C95.7597 121.233 77.1364 121.322 77.1226 121.324C76.4186 121.351 77.0811 121.486 76.3817 123.261C76.1389 123.888 75.7738 124.46 75.3077 124.944C74.8415 125.428 74.2836 125.814 73.6666 126.08C73.2408 125.916 73.3062 127.918 69.9009 128.828C69.0717 129.051 68.2003 129.064 67.3644 128.868C66.5286 128.672 65.7543 128.272 65.1106 127.704C64.4669 127.136 63.9739 126.417 63.6754 125.612C63.3769 124.807 63.2823 123.941 63.4001 123.09C63.6352 121.498 64.104 121.412 63.6375 121.415C31.0528 121.586 38.943 119.896 36.2556 125.165C35.7676 126.121 31.2518 138.774 31.2095 138.998C34.1783 139.19 49.4647 138.921 93.6232 139.195C98.67 139.226 96.3276 139.242 97.5995 137.186C97.6087 137.173 102.06 124.442 103.108 121.947L103.104 121.944ZM98.3642 107.546C98.6193 105.918 98.0514 104.214 97.2813 102.149C95.6106 97.6674 93.0215 92.3732 91.9018 89.5251C91.7096 89.0371 91.7043 89.064 91.0633 89.0724C89.7715 89.2307 89.826 88.7996 91.1402 91.8152C92.8501 95.7423 94.2711 98.9624 95.2655 101.237C97.4835 106.302 97.6994 107.682 95.1118 108.987C94.9097 109.088 94.9758 109.15 95.0657 110.072C95.1195 110.561 97.9776 110.044 98.368 107.549L98.3642 107.546ZM97.5488 56.337C98.1052 52.5098 98.5578 53.1008 97.1883 53.263C92.585 53.8163 97.6041 52.9364 89.5132 54.1468C88.216 54.3412 88.3282 54.2513 88.3605 54.531C88.4412 55.3057 87.7687 57.8072 88.2014 57.7757C91.4499 57.5405 87.2023 57.9478 93.7424 57.084C97.153 56.6367 97.4596 56.9534 97.5488 56.337ZM96.4729 62.1124C97.0377 58.4658 97.5741 57.4068 97.0369 57.4475C92.8586 57.7687 89.7169 58.3582 89.6815 58.3628C87.2738 58.6395 87.914 57.2546 87.0079 65.9365C86.9749 66.2577 86.6114 66.1178 95.7874 65.3778C96.2093 65.3432 95.9557 65.4308 96.4729 62.1124ZM96.2654 107.243C96.6896 106.326 96.0802 104.584 95.6337 103.52C94.8498 101.651 93.1836 97.9095 89.5079 89.6334C89.3542 89.2868 88.0123 89.7533 88.0538 91.4779C88.0892 92.938 88.6356 94.0139 89.5617 96.2841C91.0895 100.025 93.9791 106.541 94.7875 108.238C94.9074 108.49 95.8173 108.201 96.2615 107.243H96.2654ZM95.9188 66.5359C95.9956 66.0625 96.0033 65.9979 95.0104 66.1232C94.2296 66.2224 87.9178 66.8079 87.4436 66.8149C86.6751 66.8302 86.9249 66.9278 86.7366 67.9853C86.2609 70.6697 86.3116 72.0584 86.1718 72.9998C85.7937 75.5528 85.5278 75.5782 86.0181 75.5935C89.3795 75.6973 92.8801 75.3738 93.5441 75.3899C94.9358 75.4268 94.2542 76.588 95.9149 66.5359H95.9188ZM93.6532 80.2999C94.4163 75.9294 94.4279 76.0792 94.2027 76.0823C91.1971 76.1269 88.4834 76.412 86.3908 76.299C85.1881 76.2345 85.9935 75.7411 85.1835 80.9101C85.1006 81.3958 85.0643 81.8884 85.0751 82.381C84.8446 83.7974 84.8346 83.8412 84.8246 84.0118C84.7977 84.4522 91.0649 84.3661 92.6772 84.5797C93.176 84.6443 92.8724 84.7519 93.6494 80.2999H93.6532ZM91.1832 110.319C92.3321 110.254 92.2714 110.182 92.2269 109.832C92.1623 109.323 92.3306 109.25 91.6389 109.259C91.091 109.267 89.9713 109.305 87.9939 109.367C87.1532 109.393 87.0579 109.401 87.0402 109.635C86.9703 110.538 86.6359 110.58 91.1794 110.319H91.1832ZM91.9625 111.114C92.2607 110.682 91.9394 110.84 91.5267 110.86C73.0249 111.783 65.7948 109.724 58.9489 114.535C58.6876 114.719 56.8124 116.112 56.7033 116.294C57.1644 116.301 58.1688 115.399 60.3099 114.987C61.9284 114.675 62.0583 113.971 63.7582 113.558C65.7913 113.106 67.8653 112.864 69.9478 112.835C73.3092 112.709 79.631 112.5 83.5796 112.534C83.774 112.534 84.2082 112.357 84.5018 112.341C87.4905 112.185 91.1702 112.255 91.9586 111.114H91.9625ZM87.6419 54.7055C87.6642 54.3573 87.6358 54.3981 84.7869 54.6916C82.9295 54.7965 81.0836 55.052 79.2675 55.4555C78.9601 55.5178 79.3028 55.517 78.9439 58.0738C78.9778 58.0785 78.9716 58.0193 78.9255 58.4973C78.8932 58.8308 78.2092 58.9238 86.1964 57.9778C86.991 57.884 87.2515 57.9716 87.2915 57.6642C87.4652 56.2817 87.6081 55.1996 87.635 54.707L87.6419 54.7055ZM86.732 62.2246C86.8419 58.7732 87.9078 58.3674 86.1856 58.6126C85.7007 58.6825 79.9607 59.3549 79.4773 59.3964C78.6258 59.4733 78.9962 59.5924 78.6934 61.1586C78.3929 62.7126 78.2323 65.7267 78.1977 66.2439C78.1247 67.3036 78.3683 67.0208 79.2775 66.9417C79.9315 66.884 84.4119 66.5075 85.7406 66.2992C86.1979 66.2277 86.2148 66.1201 86.284 65.865C86.515 64.6636 86.6634 63.4478 86.7282 62.2261L86.732 62.2246ZM86.1172 67.4358C86.1525 67.1361 86.2955 66.957 85.3794 67.0639C85.1812 67.0869 79.0884 67.6318 78.5758 67.6894C78.1247 67.7394 78.1224 67.7939 78.1147 67.9815C78.1017 68.3158 77.7305 75.3246 77.7305 75.5974C77.7305 76.1546 78.2523 76.0108 84.8223 75.6189C85.4132 75.5843 85.5485 72.2213 86.1126 67.4374L86.1172 67.4358ZM84.9821 76.4958C84.9944 76.0185 84.3781 76.6072 77.8765 76.6318C77.5775 76.6318 77.682 76.6718 77.6298 77.3481C77.45 79.672 77.2033 83.4961 77.2033 83.5607C77.2586 83.8581 83.804 83.8796 83.9984 84.0886C84.3857 84.5136 84.9775 76.5127 84.9775 76.4973L84.9821 76.4958ZM83.2668 114.585C83.5934 114.568 83.4781 114.416 83.4451 113.325C83.4451 113.274 83.4851 113.005 83.1754 113C81.0919 112.969 73.3577 113.135 69.2016 113.359C65.7901 113.543 64.0379 113.874 63.2033 114.223C62.8191 114.385 62.4195 114.841 62.7814 114.821C65.3014 114.675 79.1545 114.814 83.2622 114.587L83.2668 114.585ZM78.4106 57.3169C78.5451 56.211 78.6081 55.4594 78.2677 55.5001C76.5354 55.577 72.6122 56.1149 71.7638 56.2963C71.2788 56.4 71.2965 56.3393 71.2819 56.7574C71.2658 57.2185 71.222 58.0846 71.2051 59.3596C71.1974 59.9851 71.3249 59.8691 71.8829 59.7723C79.4204 58.4635 78.1155 59.7054 78.406 57.3184L78.4106 57.3169ZM77.7843 64.3779C78.0847 60.1634 78.5266 59.5648 77.9564 59.607C77.5722 59.6355 76.7352 59.6762 76.2426 59.7607C70.8992 60.6599 71.2266 60.3663 71.1974 60.7636C71.1974 60.7821 71.1259 66.3845 71.1559 67.2852C71.1766 67.9 71.2281 67.7532 71.806 67.7309C73.2662 67.6733 72.6291 67.5987 75.1198 67.3813C75.773 67.3271 76.425 67.2607 77.0757 67.1822C77.6252 67.1123 77.5237 67.0608 77.5499 66.8387C77.6434 66.0206 77.72 65.2007 77.7796 64.3795L77.7843 64.3779ZM77.2156 71.545C77.234 70.8611 77.6651 67.8155 77.2863 67.8562C75.6916 68.0168 71.753 68.295 71.3588 68.4879C71.0514 68.7108 71.2711 69.4562 71.2051 72.4842C71.1236 76.1415 71.119 76.0962 71.4033 76.0962C77.9841 76.0193 76.9912 76.3359 77.0695 75.1939C77.1842 73.9817 77.2314 72.764 77.211 71.5466L77.2156 71.545ZM76.6907 80.7848C76.9166 76.6795 77.2286 76.6994 76.7014 76.701C72.5184 76.714 75.4434 76.6695 72.7467 76.7678C70.5795 76.8447 71.2573 75.7188 71.1205 82.3487C71.1005 83.2955 70.9138 83.4492 71.3249 83.4685C72.327 83.5766 73.3343 83.6279 74.3421 83.6222C77.0511 83.4216 76.4655 84.7811 76.6861 80.7864L76.6907 80.7848ZM74.7548 124.547C75.2181 124.107 75.5851 123.575 75.8326 122.986C76.0801 122.396 76.2027 121.762 76.1927 121.123C76.1828 120.484 76.0404 119.854 75.7747 119.273C75.5089 118.692 75.1255 118.172 74.6487 117.746C74.2353 117.362 73.9571 117.392 73.0257 117.355C72.5645 117.337 72.2702 117.292 72.2848 117.52C72.2848 117.544 75.9199 118.68 74.7748 122.396C74.6088 122.934 74.0539 123.519 74.0508 123.779C74.0378 124.9 73.4537 125.832 74.7548 124.547ZM73.8587 122.275C74.0893 123.139 75.3857 119.611 72.5569 118.37C72.2495 118.234 72.48 118.754 72.5369 119.4C72.6376 120.564 73.3676 120.458 73.8587 122.275ZM71.9374 122.069C73.4314 125.083 69.9086 128.842 66.7116 126.765C65.9317 126.276 65.3637 125.512 65.1198 124.624C64.8759 123.736 64.9739 122.79 65.3944 121.971C65.5096 121.732 65.6095 121.894 64.9801 121.083C64.7903 120.84 63.8942 122.236 63.9611 123.669C63.952 124.544 64.1862 125.405 64.6377 126.154C65.0891 126.904 65.74 127.513 66.5178 127.915C67.2955 128.316 68.1694 128.493 69.042 128.426C69.9146 128.36 70.7515 128.052 71.4593 127.537C72.1671 127.023 72.7179 126.322 73.0504 125.512C73.3828 124.702 73.4837 123.816 73.3418 122.953C73.1999 122.089 72.8209 121.282 72.2469 120.622C71.673 119.961 70.9267 119.473 70.0915 119.212C69.7019 119.083 69.8609 119.407 69.8609 120.006C69.8609 120.263 69.9716 120.305 70.1453 120.398C70.9087 120.742 71.5376 121.329 71.9351 122.066L71.9374 122.069ZM71.1459 118.956C72.1173 119.511 72.0566 119.767 71.7092 117.683C71.6323 117.202 71.5785 117.47 70.0615 117.484C69.5059 117.49 69.7856 117.779 69.7872 118.406C69.7864 118.876 70.1176 118.371 71.1436 118.956H71.1459ZM70.0192 120.99C69.8763 120.913 69.8655 121.062 69.9224 121.7C70.0017 122.551 69.9981 123.408 69.9117 124.258C69.8064 124.596 69.6127 124.796 68.9641 124.926C67.7998 125.167 67.4271 124.147 65.9185 122.383C65.743 122.745 65.6416 123.138 65.6202 123.54C65.5988 123.942 65.6578 124.344 65.7938 124.723C65.9298 125.102 66.14 125.45 66.4122 125.746C66.6843 126.043 67.0129 126.282 67.3786 126.45C70.9584 128.029 73.4383 122.758 70.0192 120.99ZM70.7278 56.8527C70.7186 56.8527 70.7232 56.6659 70.7186 56.5837C70.7048 56.3532 70.5395 56.3885 70.2083 56.4392C70.1314 56.4515 63.6936 57.1309 63.7175 57.3276C64.1478 60.902 63.6283 60.9196 64.6551 60.7713C68.7735 60.178 64.5721 60.6537 70.3812 59.9367C70.6602 59.9021 70.5288 60.1688 70.7278 56.8527ZM70.5826 61.2001C70.5826 61.081 70.6971 60.613 70.2052 60.6706C69.4029 60.7636 67.3279 60.9926 64.3507 61.496C63.9565 61.5621 63.8666 60.9412 64.3769 68.212C64.3938 68.4533 64.4053 68.4802 64.6551 68.4349C64.9625 68.3803 69.2876 68.0614 70.1975 67.8969C70.4857 67.8439 70.5234 67.9077 70.5211 67.3428C70.5188 66.7488 70.581 62.8348 70.5826 61.2001ZM69.283 76.1438C70.7585 76.0754 70.7024 77.4603 70.5657 68.8829C70.5603 68.5271 70.5242 68.5233 70.1898 68.5947C69.9424 68.6478 68.6997 68.7607 65.5703 69.0059C64.549 69.0827 64.3845 69.135 64.4245 69.4017C64.4468 69.5554 64.5083 71.7564 64.7204 76.05C64.735 76.3574 64.7012 76.2998 65.5365 76.2929C66.7871 76.3082 68.0376 76.2584 69.283 76.1438ZM70.5641 77.1598C70.571 76.3989 68.2248 77.0291 66.6586 76.9707C64.6105 76.8939 64.7819 77.0168 64.7834 77.2282C64.7834 77.2358 64.9917 80.7633 65.0309 81.269C65.2752 84.383 64.8441 82.8145 70.1161 83.4516C70.5964 83.5092 70.508 83.7805 70.5641 77.1598ZM68.2478 124.188C68.3547 124.274 68.4839 124.328 68.6202 124.343C68.7566 124.358 68.8944 124.334 69.0177 124.274C69.1409 124.214 69.2445 124.12 69.3163 124.003C69.388 123.886 69.425 123.751 69.4229 123.614C69.4078 121.729 69.2751 119.847 69.0256 117.978C68.981 117.646 68.9487 117.401 68.6467 117.455C68.1295 117.546 63.4285 117.275 63.4293 117.802C63.4293 118.416 63.6714 118.717 64.5951 119.717C66.3058 121.57 67.0789 123.219 68.2478 124.188ZM64.4122 83.1657C64.6197 83.1749 64.6681 83.1172 64.6428 82.9182C64.0395 77.4618 64.3769 77.0868 64.0103 77.0214C63.8204 76.9876 60.4605 77.0906 60.117 77.0829C59.3608 77.0675 59.8035 77.5886 60.1846 82.6354C60.2108 82.9359 59.7904 82.962 64.4122 83.1657ZM63.5169 76.3006C64.1993 76.3774 64.1163 76.5027 64.0425 74.895C64.0133 74.895 64.0525 74.2433 64.0287 73.6277C63.8466 68.9129 63.875 69.2341 63.5169 69.2649C61.269 69.4578 60.0463 69.5823 59.3285 69.5953C58.922 69.603 58.9835 69.4493 59.1233 71.7349C59.1433 72.0615 59.3685 73.1889 59.4008 73.899C59.5252 76.6479 59.5837 76.379 60.1554 76.4028C60.4405 76.4166 63.2264 76.2691 63.5169 76.3006ZM63.5499 68.5555C63.9342 68.4449 63.6929 68.8629 63.4462 61.8833C63.4324 61.4845 63.3324 61.632 62.4794 61.7535C60.9178 61.9763 59.4238 62.014 58.8743 62.0816C57.9237 62.1992 58.5754 62.9654 58.8882 68.4249C58.9058 68.7323 58.9512 68.9628 59.1003 69.0136C60.5943 68.9954 62.0836 68.8421 63.5499 68.5555ZM62.8122 61.0941C63.7697 60.8935 63.4539 60.2856 63.2525 57.519C63.2402 57.3553 63.1134 57.3653 62.9167 57.386C62.9013 57.386 58.9051 57.7941 58.623 57.8656C57.77 58.0792 57.8653 57.6873 58.2534 60.9173C58.2895 61.2163 58.2149 61.5229 58.4839 61.5122C59.9341 61.4658 61.3799 61.3262 62.8122 61.0941ZM58.5938 82.8859C59.3623 82.9197 59.6275 83.0312 59.5929 82.7169C58.8743 76.0831 59.7366 77.0368 57.6716 76.9185C56.2191 77.0353 56.1792 76.9815 56.2114 77.1944C57.3381 83.9104 56.2745 82.783 58.5907 82.8859H58.5938ZM58.706 76.2483C59.37 76.3313 58.8835 75.9409 58.4194 69.9035C58.4208 69.8743 58.4155 69.8451 58.4039 69.8182C58.3923 69.7913 58.3747 69.7675 58.3525 69.7485C58.3302 69.7295 58.3039 69.7158 58.2755 69.7086C58.2471 69.7014 58.2175 69.7007 58.1888 69.7068C55.506 69.8804 55.3453 69.7944 55.4291 70.413C55.9494 74.3455 55.8994 75.8034 56.0931 76.2744C56.1784 76.4881 58.3548 76.2053 58.7029 76.2483H58.706ZM58.0997 69.1012C58.4893 69.1058 58.434 68.5732 57.7976 62.3867C57.7707 62.127 57.9122 62.2276 55.1501 62.3913C54.7036 62.4175 54.782 62.296 54.8911 64.1674C55.1286 68.2358 55.1901 69.1727 55.4552 69.2787C55.6581 69.364 58.0051 69.1027 58.0966 69.1043L58.0997 69.1012ZM57.7362 61.5652C57.8192 61.5137 57.7193 61.0503 57.6109 60.0428C57.3519 57.6281 58.0551 58.0277 54.5069 58.3982C54.3201 58.4174 54.3186 58.5642 54.3478 58.8001C54.7259 61.8672 54.6713 61.8687 54.9488 61.8388C56.5872 61.6612 57.4618 61.7381 57.7331 61.5683L57.7362 61.5652Z" fill="#000001"/>
<path d="M147.748 149.066C147.772 149.13 147.779 149.199 147.768 149.266C147.757 149.333 147.728 149.396 147.685 149.449C147.642 149.502 147.586 149.543 147.522 149.567C147.459 149.591 147.39 149.599 147.323 149.588C144.864 149.496 7.71623 149.521 5.32847 149.673C4.6714 149.715 4.80435 149.468 4.79436 149.284C4.77131 148.856 147.599 148.354 147.748 149.066Z" fill="#000001"/>
<path d="M147.312 90.8202C147.53 90.8279 147.753 90.8878 147.726 91.1053C147.695 91.3589 147.605 91.4081 147.247 91.4065C142.155 91.3873 142.755 91.216 142.758 91.8953C142.822 105.788 142.618 105.008 142.988 105.007C143.005 105.007 147.103 104.993 147.237 105.016C147.688 105.093 147.505 105.561 147.237 105.606C147 105.645 146.862 105.606 142.946 105.627C142.524 105.627 143.134 116.002 142.603 116.03C142.226 116.051 142.327 115.596 142.315 115.009C142.112 105.067 142.469 105.626 141.97 105.626C123.689 105.614 124.826 105.698 124.789 105.519C124.778 105.465 124.778 105.409 124.789 105.354C124.8 105.3 124.822 105.248 124.853 105.202C124.884 105.156 124.925 105.117 124.971 105.087C125.018 105.057 125.07 105.036 125.125 105.027C125.68 104.995 141.765 105.007 141.944 105.008C142.364 105.008 142.303 106.279 142.167 92.1966C142.156 91.0438 143.116 91.4281 135.955 91.3697C134.418 91.3566 127.301 91.1575 125.013 91.3136C124.643 91.3382 124.746 91.4826 124.745 91.5441C124.669 96.8922 124.735 99.1178 124.698 100.025C124.658 100.23 124.544 100.294 124.419 100.245C124.005 100.077 124.197 100.422 124.164 91.5887C124.164 91.1914 124.357 91.2974 121.858 91.2974C119.795 91.2974 119.937 91.1437 119.795 90.9723C119.679 90.6603 120.094 90.6749 120.646 90.6719C124.518 90.6557 124.181 90.7487 124.181 90.3875C124.138 85.6043 124.233 79.915 124.215 76.9263C124.215 76.5774 122.76 76.6865 121.927 76.685C121.517 76.685 121.525 76.0955 122.018 76.0909C122.371 76.0909 122.954 76.0855 123.915 76.0909C124.215 76.0909 124.222 76.0909 124.222 75.8066C124.222 75.3631 124.227 70.2941 124.23 70.2556C124.271 69.68 124.751 69.9482 124.761 70.231C124.831 72.2292 124.761 75.8773 124.761 75.908C124.735 76.3407 123.183 75.9157 141.902 76.1247C142.2 76.1247 142.101 76.1716 142.098 74.0874C142.078 61.3717 142.156 62.37 141.918 62.3692C131.207 62.3577 127.401 62.3492 126.156 62.2977C125.671 62.277 125.762 62.1333 125.762 61.9865C125.762 61.8397 125.824 61.7951 126.329 61.7559C128.007 61.789 140.369 61.7667 140.772 61.7736C142.277 61.799 142.071 61.7659 142.07 61.4946C141.993 46.2451 142.158 46.9836 141.754 46.9913H133.414C133.153 46.9913 133.059 46.8768 133.254 46.6394C133.533 46.3012 137.822 46.5079 140.375 46.4949C141.338 46.4895 142.002 46.4303 142.003 46.2136C142.003 45.2776 141.935 33.5393 141.94 33.3234C141.94 33.1697 141.894 33.1274 141.741 33.129C137.702 33.1712 134.612 33.2012 132.162 33.1889C123.234 33.1443 123.499 32.8423 123.494 33.308C123.401 43.1657 123.544 42.8952 123.305 42.7868C122.965 42.6331 122.91 42.5217 122.913 42.1121C122.956 32.176 123.008 33.0567 122.701 33.0567C103.448 33.0629 104.307 32.903 104.307 33.2304C104.307 48.1333 104.139 46.0699 104.512 46.0707C104.954 46.0707 119.447 46.0814 119.483 46.0707C119.825 46.0015 120.186 46.5656 119.633 46.5663C103.017 46.6071 104.288 46.501 104.285 46.8876C104.276 48.9541 104.417 49.2938 103.958 49.3145C103.664 49.3276 103.687 49.7134 103.739 47.009C103.744 46.7592 103.662 46.6716 103.397 46.6716C102.22 46.6716 85.3924 46.667 84.9689 46.6716C84.5962 46.6762 84.7991 46.156 84.7384 50.6602C84.7384 50.9007 84.6684 51.0053 84.431 50.9676C84.2488 50.9407 84.1474 50.7839 84.1574 50.5211C84.192 49.6219 84.1389 47.6315 84.1712 46.8776C84.185 46.5494 85.1772 46.6639 72.7842 46.6616C72.4637 46.6616 72.4115 46.6002 72.4361 46.2774C72.4499 46.0976 72.609 46.1291 72.808 46.1237C76.8412 46.0745 83.9361 46.1237 84.1051 46.0015C84.1943 45.9362 84.202 33.2135 84.202 33.1981C84.202 32.6886 84.7937 33.1213 73.0417 32.8984C72.8664 32.8946 72.7112 32.8492 72.8442 32.6871C72.8941 32.6271 72.7873 32.4796 72.9264 32.4312C73.0412 32.3824 73.1627 32.3513 73.2868 32.3389C84.806 32.2083 84.1997 32.6071 84.1997 32.1084C84.3026 17.2101 84.2834 18.5711 83.9599 18.5696C76.4423 18.545 73.5942 18.6057 72.5398 18.5696C72.4641 18.5507 72.3989 18.5025 72.3586 18.4357C72.3183 18.3689 72.3061 18.2888 72.3246 18.213C72.3715 18.0239 72.6828 18.027 72.8895 18.027C85.4892 18.0193 84.2788 18.13 84.2773 17.6842C84.2696 15.6093 84.2696 13.658 84.3057 12.4484C84.3418 11.2387 84.4056 10.9544 84.8022 11.5262C84.8191 11.5561 84.7968 17.5897 84.8022 17.7111C84.8098 17.9594 84.8252 17.9778 85.0596 17.9778C86.582 17.9778 103.261 17.9632 103.563 17.9778C103.928 17.9909 103.758 18.1984 103.866 8.33839C103.866 8.12705 103.866 8.10784 104.056 8.08478C104.525 8.03714 104.363 7.65672 104.358 17.562C104.358 17.7795 104.327 17.9371 104.543 17.9663C105.117 18.0431 107.034 18.0677 113.235 18.0493C123.587 18.0185 122.929 18.2475 122.935 17.7542C123.012 11.145 122.955 11.3171 123.03 11.251C123.944 10.4533 123.333 12.2977 123.521 17.768C123.54 18.3136 122.479 18.0262 141.436 17.9755C141.942 17.9755 141.897 17.8218 141.897 17.582C141.897 14.0469 141.787 12.8688 141.98 12.6636C142.036 12.6267 142.101 12.6049 142.169 12.6002C142.236 12.5955 142.303 12.6081 142.364 12.6367C142.538 12.7435 142.394 12.5514 142.46 17.5398C142.46 17.8126 142.377 18.0009 142.767 18.0009C143.569 18.0078 145.743 18.0385 145.819 18.0401C146.066 18.0447 146.036 18.1684 146.04 18.2045C146.074 18.5181 146.066 18.5888 145.305 18.598C144.796 18.6026 143.939 18.6049 142.805 18.6034C142.482 18.6034 142.506 18.5265 142.497 19.5002C142.493 20.1604 142.51 29.9981 142.509 31.2315C142.509 32.7193 142.535 32.6041 142.842 32.6041C146.493 32.6041 146.244 32.4719 146.634 32.5849C146.902 32.6617 146.809 33.0752 146.617 33.1228C146.499 33.1497 146.738 33.1436 142.928 33.1228C142.649 33.1228 142.536 33.0813 142.52 33.3057C142.434 34.5684 142.597 45.495 142.569 46.0999C142.543 46.6132 142.512 46.315 146.934 46.4488C147.182 46.4564 147.603 46.4388 147.556 46.6839C147.493 47.0182 147.513 46.9952 146.208 46.9913C142.423 46.9867 142.582 46.8553 142.583 47.2219C142.603 62.6436 142.429 61.7528 142.909 61.7552C146.74 61.7767 146.774 61.7359 146.905 61.7905C147.354 61.9834 147.082 62.3607 146.829 62.3638C146.141 62.3723 143.535 62.3469 142.805 62.3331C142.473 62.3269 142.652 61.6184 142.684 75.9418C142.684 76.4644 147.258 75.7051 147.243 76.3891C147.231 76.8848 146.882 76.7457 143.693 76.7073C142.667 76.695 142.689 76.7073 142.687 76.9586C142.675 78.6554 142.773 90.2246 142.735 90.5865C142.697 90.9939 142.905 90.6649 147.312 90.8202ZM141.943 90.7817C142.169 90.7817 142.168 90.7725 142.166 90.5458C142.166 90.2269 142.089 77.3228 142.117 76.9616C142.144 76.6004 125.013 76.6934 124.994 76.6934C124.748 76.6934 124.76 76.6934 124.76 77.0477C124.76 91.8592 124.506 90.6964 125.125 90.7049C125.138 90.7049 141.661 90.7879 141.943 90.7817ZM141.902 18.8209C141.902 18.5626 142.287 18.5519 135.18 18.5665C132.576 18.5719 129.039 18.6487 124.002 18.6203C123.321 18.6203 123.443 17.8364 123.432 27.3636C123.432 28.7615 123.413 30.7304 123.39 32.2613C123.39 32.3251 123.334 32.5088 123.721 32.528C124.79 32.581 128.385 32.6294 131.966 32.6556C136.706 32.6901 141.572 32.5257 141.582 32.5257C142.078 32.5241 142.028 34.0527 141.902 18.8209ZM104.548 32.4296C124.194 32.2813 122.916 32.8608 122.919 32.0062C122.944 17.5282 123.047 18.618 122.774 18.6203C105.244 18.7924 104.52 18.2714 104.394 18.774C104.357 19.0026 104.345 19.2345 104.36 19.4656C104.337 33.2911 104.18 32.4327 104.548 32.4296ZM103.413 18.5519C102.431 18.485 99.4937 18.5903 91.8663 18.5988C83.767 18.608 84.8114 18.4358 84.8098 19.0284C84.7691 33.4156 84.6615 32.3751 84.9912 32.3697C85.0081 32.3697 103.512 32.3989 103.72 32.3897C103.77 31.688 103.705 21.0157 103.758 19.1175C103.767 18.784 103.804 18.5573 103.413 18.5519ZM103.738 45.2914C103.802 31.0386 103.821 32.9952 103.568 33.0045C102.87 33.0291 98.693 32.9668 85.1003 32.9706C84.3987 32.9706 85.0711 31.8071 84.7353 45.8616C84.7261 46.2589 83.6348 46.0338 103.564 46.0676C103.731 46.0683 103.734 46.0676 103.738 45.2922V45.2914Z" fill="#000001"/>
<path d="M130.533 44.7533C130.533 44.8713 130.509 44.988 130.462 45.0964C130.416 45.2048 130.348 45.3025 130.262 45.3838C130.177 45.465 130.076 45.528 129.965 45.5689C129.854 45.6098 129.736 45.6278 129.619 45.6217C129.421 45.6333 129.081 45.4627 129.41 45.269C129.507 45.2121 129.636 45.1506 129.74 45.0784C129.822 45.0141 129.881 44.9249 129.908 44.8243C129.935 44.7237 129.928 44.6171 129.889 44.5205C129.881 44.4543 129.86 44.3905 129.826 44.3332C129.792 44.2759 129.747 44.2263 129.692 44.1877C129.638 44.1491 129.576 44.1223 129.511 44.109C129.446 44.0958 129.379 44.0964 129.314 44.1109C129.076 44.1524 128.968 44.3483 128.89 44.4129C128.812 44.4774 128.67 44.5082 128.668 44.2784C128.662 43.4346 130.478 43.0503 130.533 44.7533Z" fill="#000001"/>
<path d="M120.317 122.249C120.763 122.217 120.926 123.038 120.317 123.037C120.212 123.037 120.112 122.996 120.038 122.922C119.964 122.848 119.923 122.748 119.923 122.643C119.923 122.539 119.964 122.438 120.038 122.364C120.112 122.29 120.212 122.249 120.317 122.249Z" fill="#000001"/>
<path d="M113.212 105.017C113.452 105.017 113.7 105.063 113.537 105.233C113.374 105.404 113.555 105.63 113.023 105.628C103.465 105.595 104.116 105.525 104.126 105.844C104.167 107.123 104.106 107.179 103.844 107.233C103.716 107.259 103.781 107.133 103.767 107.123C103.359 106.893 103.935 105.624 103.374 105.623C100.386 105.623 100.445 105.736 100.401 105.339C100.352 104.9 100.14 105.027 103.308 105.017C103.769 105.017 103.624 105.343 103.624 99.8593H103.635C103.635 94.4859 103.357 94.4259 104.129 94.9216C104.268 95.0108 104.158 99.6987 104.143 104.793C104.139 105.152 103.286 105.004 113.212 105.017Z" fill="#000001"/>
<path d="M88.8937 105.625C84.1705 105.642 84.6101 105.453 84.6001 106.157C84.5755 107.955 84.6001 107.979 84.5063 108.199C84.492 108.231 84.4687 108.258 84.4391 108.277C84.4096 108.296 84.3752 108.305 84.3402 108.305C84.3052 108.304 84.2712 108.293 84.2424 108.273C84.2136 108.253 84.1912 108.225 84.1782 108.193C84.1136 108.034 84.1152 107.915 84.1152 105.855C84.1152 105.528 84.9121 105.556 74.5088 105.575C72.0972 105.575 69.0831 105.643 65.3174 105.628C65.0615 105.628 65.0354 105.658 65.0323 105.914C65.0323 105.929 64.9555 108.21 65.0231 108.964C65.0523 109.28 64.6073 109.285 64.5981 108.957C64.4959 105.15 64.9824 105.622 63.4031 105.628C57.6277 105.645 46.1885 105.628 46.1746 105.628C45.9518 105.65 46.2692 116.67 45.918 116.848C45.8711 116.872 45.679 116.915 45.6728 116.86C45.5406 115.721 45.5345 106.981 45.5498 105.844C45.5498 105.537 46.555 105.625 33.3774 105.628C33.1323 105.628 33.1907 105.576 33.246 105.213C33.2929 104.91 34.3342 105.176 45.2801 105.025C45.6236 105.021 45.5875 106.427 45.4976 91.1919C45.4976 90.9222 45.4914 90.9237 45.2186 90.9176C41.6181 90.8346 31.4784 90.8407 31.2318 90.8192C31.1569 90.8192 31.0852 90.7895 31.0323 90.7366C30.9794 90.6837 30.9497 90.612 30.9497 90.5372C30.9497 90.4624 30.9794 90.3906 31.0323 90.3377C31.0852 90.2849 31.1569 90.2551 31.2318 90.2551C31.5599 90.2244 38.727 90.3143 42.316 90.2989C45.7619 90.2836 45.5022 90.4665 45.5022 89.9646C45.5022 88.566 45.4599 77.305 45.4822 76.7647C45.4876 76.6187 45.4338 76.5711 45.3285 76.5588C44.5293 76.4627 33.5865 76.6541 33.6633 76.4243C33.7847 76.06 33.7924 75.9224 34.1897 75.9547C34.3557 75.9686 44.9896 75.9424 45.1548 75.947C45.6059 75.9601 45.4845 76.0792 45.4492 73.9489C45.4492 73.9335 45.4545 62.2222 45.4438 62.0155C45.4292 61.7342 33.2622 62.0217 32.134 61.7673C32.2831 61.1033 30.8429 61.2893 45.1425 61.3223C45.5337 61.3223 45.4937 61.8172 45.4592 55.6107C45.4592 54.936 45.4338 54.8 45.6129 54.7339C45.8273 54.657 45.9602 54.7124 45.9725 54.9544C46.0186 55.8766 45.9986 57.605 45.9971 61.0787C45.9971 61.4345 45.7366 61.3569 47.7647 61.3431C49.3186 61.3331 49.8781 61.3162 49.8281 61.536C49.6913 62.1362 49.8642 61.8818 46.3114 61.9256C46.0279 61.9294 45.9848 61.9786 45.9864 62.2553C45.9864 62.6019 46.0309 75.6857 46.0355 75.7634C46.0571 76.1023 46.0832 75.9586 47.4757 75.954C50.582 75.944 50.6074 75.9309 50.5859 76.1791C50.5344 76.767 50.7027 76.5503 47.0215 76.578C45.9771 76.5857 46.0355 76.4035 46.034 76.8716C46.034 77.5002 46.0578 88.0987 46.0855 89.8594C46.0963 90.5556 44.5731 90.2382 58.7136 90.3773C65.0492 90.4396 64.509 90.4711 64.5097 90.1614C64.5236 86.8383 64.3068 87.0105 64.9816 87.1849C65.1952 87.2395 64.7872 90.395 65.2813 90.3958C80.351 90.4135 80.4978 90.3451 80.5339 90.6947C80.6108 91.4233 79.4395 90.9637 65.269 91.0106C64.801 91.0106 65.2229 90.1852 65.0385 104.877C65.0385 105.087 64.1524 105.03 74.568 105.022C84.866 105.011 84.1367 105.128 84.1328 104.791C84.0875 100.585 84.1628 98.0071 84.1958 96.6046C84.2366 94.9092 84.3134 95.1167 84.5732 95.2066C84.6954 95.3281 84.7269 94.578 84.6539 104.741C84.6539 105.094 84.1605 105.028 88.8038 105.014C88.8599 105.014 89.0244 104.981 89.0574 105.163C89.1035 105.502 89.1158 105.625 88.8937 105.625ZM64.396 105.071C64.5712 105.071 64.5827 105.057 64.5643 103.809C64.3645 90.2175 64.7556 91.0083 64.2269 91.006C50.6397 90.9568 47.2321 90.747 46.3022 90.8477C45.8703 90.8945 46.0432 91.3034 46.044 91.6531C46.0916 106.319 45.9671 105.13 46.376 105.134C47.4004 105.146 64.1063 105.074 64.396 105.071Z" fill="#000001"/>
<path d="M69.8003 9.85124C69.954 15.6627 70.0432 34.3744 69.9978 44.634C69.9801 48.6425 70.1154 50.7913 69.921 51.5759C69.8257 51.9548 69.6136 52.3244 68.8181 52.3329C68.533 52.3329 38.6688 52.2906 37.2324 52.2453C35.4472 52.1892 35.5747 51.9187 35.5747 50.6683C35.6101 50.6683 35.7215 11.95 35.7215 11.9354C35.7215 7.56185 35.3811 8.305 39.8131 8.31191C44.9621 8.32037 62.0868 8.12594 67.8637 8.08136C70.1238 8.06061 69.7657 8.57859 69.8003 9.85124ZM69.3676 51.0057C69.4445 47.4505 69.6335 28.1617 69.2762 9.22644C69.2654 8.68848 69.1886 8.57475 67.9244 8.57013C63.6153 8.554 36.696 8.90597 36.6799 8.9029C36.5192 8.87293 36.3317 9.11885 36.3264 9.27255C36.2695 10.7696 36.1557 49.9766 36.165 50.8973C36.1104 51.5475 36.4923 51.6351 36.9873 51.6443C41.0312 51.7211 64.6382 51.8026 68.7267 51.675C69.2262 51.6597 69.3576 51.4529 69.3676 51.0057Z" fill="#000001"/>
<path d="M68.5115 122.959C68.981 122.954 69.1309 123.716 68.5683 123.722C68.4733 123.719 68.3826 123.681 68.3138 123.616C68.245 123.55 68.203 123.461 68.1959 123.366C68.1888 123.271 68.2172 123.177 68.2755 123.102C68.3337 123.027 68.4178 122.976 68.5115 122.959Z" fill="#000001"/>
<path d="M66.8715 48.0952C66.9238 48.8007 66.8362 49.0112 64.307 49.032C64.2916 49.032 39.4327 48.6777 39.4173 48.6746C38.7256 48.5847 39.0553 47.2552 39.0123 42.6511C39.0123 42.6372 39.1383 12.5624 39.1291 12.2819C39.1114 11.6986 39.342 11.3973 40.2135 11.4089C43.8639 11.455 64.6305 11.0246 64.6444 11.0246C66.1407 10.8932 66.3712 11.206 66.4296 12.2381C66.488 13.2702 66.8446 47.7332 66.8715 48.0952ZM66.2705 48.0322C66.2751 47.8085 66.1522 41.2885 66.0799 37.0594C64.8849 37.1209 60.9717 37.0709 53.9951 37.1178C52.8631 37.1255 53.1982 36.8796 53.2482 37.9447C53.2635 38.2652 53.5379 38.1822 54.0213 38.3728C54.2215 38.4498 54.404 38.5668 54.5576 38.7167C54.7112 38.8665 54.8326 39.0461 54.9145 39.2444C54.9964 39.4427 55.0371 39.6557 55.034 39.8702C55.0309 40.0848 54.9842 40.2964 54.8966 40.4923C54.4901 41.6067 53.6024 41.6213 52.8877 41.6689C50.9073 41.8011 50.9434 38.8039 52.5311 38.3328C52.7402 38.2713 52.6487 38.2421 52.5726 37.3153C52.545 36.9856 52.1938 37.1224 51.8149 37.1286C45.1988 37.2361 41.1518 37.0102 39.9253 37.064C39.7531 37.0717 39.6033 37.2292 39.6087 37.5674C39.6279 38.8923 39.6225 42.7594 39.6225 42.7717C39.6609 48.7791 39.4918 48.0744 40.0067 48.1044C40.0237 48.1044 44.2382 48.2074 48.6463 48.152C57.425 48.0421 66.2575 48.9144 66.2705 48.0322ZM66.0692 36.4438C66.0507 35.3733 66.0354 34.4987 66.0292 33.99C56.2115 34.3796 40.9897 34.0822 40.6508 34.0768C39.3958 34.0553 39.551 33.7602 39.561 35.9597C39.561 36.6221 39.5964 36.4392 40.8406 36.4484C41.5691 36.3762 60.2762 36.7512 66.0723 36.4438H66.0692ZM64.9018 20.0484C66.0415 20.1115 65.9916 20.1514 65.9862 19.9224C65.9247 17.4924 66.0984 17.4901 65.7503 17.4901C52.0877 17.4901 49.6884 17.5669 47.2054 17.5754C39.7455 17.59 39.5464 17.082 39.5641 17.9104C39.6194 20.5095 39.3689 20.2375 39.9875 20.2452C42.8057 20.2828 64.9018 20.0484 64.9018 20.0484ZM64.7435 33.3959C66.1491 33.3121 66.0039 33.6603 65.9731 31.9573C65.9324 29.8923 65.9439 30.3434 65.3583 30.3557C59.1603 30.5278 54.6676 30.6362 51.3922 30.6823C46.8088 30.7469 44.3619 30.4856 39.6832 30.6469C39.4227 30.6562 39.5157 30.6469 39.551 33.1323C39.5549 33.4313 39.5833 33.419 40.1604 33.4451C40.7975 33.4743 59.2049 33.7256 64.7435 33.3959ZM63.8113 16.9329C65.21 16.9513 65.977 17.0267 65.9677 16.657C65.9093 14.3177 66.03 14.3668 65.655 14.4091C65.6396 14.4091 47.658 14.6942 39.8515 14.652C39.4749 14.652 39.5441 14.4844 39.5702 16.8422C39.5756 17.1504 59.1833 16.8737 63.8113 16.9329ZM64.9802 23.1509C66.2029 23.1955 65.9931 22.9972 65.9647 21.4325C65.9539 20.8446 65.98 20.7186 65.738 20.7017C64.5083 20.7078 63.1465 20.5533 61.0347 20.5764C59.2379 20.5964 41.2195 20.7301 39.707 20.7893C39.3266 20.8039 39.5134 20.6663 39.5003 22.968C39.5003 23.4583 39.6471 23.4114 39.9099 23.4345C43.1446 23.7204 64.6059 23.1386 64.9833 23.1524L64.9802 23.1509ZM65.9362 29.2821C65.9063 28.9239 65.9716 28.22 65.9455 27.1064C65.9393 26.8444 41.2356 27.1495 39.79 27.2417C39.4619 27.2624 39.4872 27.2048 39.4826 29.9614C39.4826 29.9768 54.5285 30.2104 62.0483 29.8308C65.6734 29.6494 65.9969 29.966 65.9393 29.2836L65.9362 29.2821ZM65.9262 26.0443C65.8694 23.1701 66.2467 23.7327 64.9648 23.7234C63.0197 23.7088 41.2563 24.0262 39.787 24.0501C39.4081 24.0554 39.4972 24.1331 39.4834 24.2714C39.4834 24.2883 39.4711 26.1735 39.4834 26.281C39.538 26.7091 39.4065 26.7544 40.5647 26.6768C40.8006 26.6615 64.1764 26.3825 65.552 26.3879C65.8863 26.3902 65.9324 26.2057 65.9293 26.0459L65.9262 26.0443ZM63.1896 13.9426C66.2306 13.9357 65.8886 13.8473 65.8794 13.7052C65.8025 11.8753 66.0116 11.6409 65.1362 11.694C61.8693 11.8922 40.1804 11.9391 40.1028 11.9468C39.4004 12.0167 39.6617 12.5562 39.6194 13.9088C39.6117 14.144 39.5825 14.1993 40.3165 14.1563C40.5585 14.1424 62.3096 13.9442 63.1896 13.9426ZM53.7231 40.8712C55.8826 39.2373 52.0577 37.4621 52.0162 40.3724C52.1037 40.5784 52.2563 40.7501 52.4506 40.8611C52.6449 40.9722 52.8703 41.0165 53.0921 40.9872C53.3096 41.024 53.533 40.9829 53.7231 40.8712Z" fill="#000001"/>
<path d="M34.665 17.9633C34.9163 17.9633 35.1914 17.9633 35.0899 18.1939C34.9885 18.4245 35.2214 18.5013 34.7326 18.5013C34.2715 18.5013 31.305 18.5105 31.0845 18.4475C30.827 18.3707 30.8224 18.0325 31.0676 17.9995C31.2827 17.968 31.3803 17.9764 34.665 17.9633Z" fill="#000001"/>
<path d="M34.8515 46.8419C35.1589 46.8711 35.0006 47.3799 34.9622 47.4022C34.8131 47.4944 30.7523 47.4329 30.7238 47.2331C30.7069 47.1163 30.6516 46.8665 31.0627 46.8619C31.178 46.8604 34.7401 46.8281 34.8515 46.8419Z" fill="#000001"/>
<path d="M32.5075 32.278C34.5894 32.2611 34.6171 32.1573 34.5825 32.4317C34.5756 32.4839 34.5395 32.5677 34.5594 32.5854C35.0036 32.9543 30.6262 32.8082 30.6493 32.6207C30.6692 32.4555 30.6493 32.3133 30.9851 32.2864C31.4886 32.1997 32.003 32.1969 32.5075 32.278Z" fill="#000001"/>
</svg>
