<svg width="156" height="155" viewBox="0 0 156 155" fill="none" xmlns="http://www.w3.org/2000/svg">
<path d="M70.8878 83.1816C71.7679 79.3833 70.5867 77.2989 65.6227 74.5042C62.1718 72.5665 63.5769 68.0502 59.6859 67.6642C56.127 67.3168 53.9499 70.8063 51.8192 68.3899C50.1053 66.4522 48.1753 65.7882 46.4151 66.4522C44.2381 67.2782 42.4161 68.6369 39.8068 67.7877C37.1974 66.9385 34.9508 66.7224 33.7311 69.0384C31.9477 72.4815 31.9477 72.2885 28.2884 72.2962C24.0424 72.2962 26.976 78.0554 23.8494 81.2438C19.4952 85.706 16.7083 90.3072 23.6409 93.0632C23.7104 93.0632 23.7104 82.1471 30.0023 76.6041C33.1829 78.6499 37.8767 79.6458 41.6287 75.392C42.6246 79.4991 44.8711 82.0699 51.2556 80.1553C52.1905 81.9613 53.6485 83.4432 55.439 84.4073C57.2296 85.3715 59.2694 85.773 61.2917 85.5593C61.0447 91.8126 58.9139 99.6253 64.7658 99.386C64.9588 100.197 65.0823 102.713 66.8116 103.354C70.0772 104.566 75.1878 101.741 72.3391 94.1363C75.929 84.795 70.2161 86.0689 70.8878 83.1816Z" fill="#3D9CFB"/>
<path d="M148.058 94.924C148.228 92.662 151.046 92.2915 151.046 91.064C151.046 90.292 148.622 90.678 147.278 89.3964C144.283 86.54 150.366 81.63 149.208 80.7036C147.827 79.5997 143.658 87.1422 141.643 85.4978C138.956 83.3207 141.265 77.3454 139.968 77.0752C138.308 76.7432 139.79 83.6373 136.347 84.7953C132.016 86.293 130.094 78.0402 128.882 79.3295C127.932 80.3408 131.97 86.2775 130.657 88.1381C128.974 90.4541 126.643 88.9101 126.295 90.099C126.041 90.9482 127.963 91.1952 128.735 94.7696C129.646 98.9616 126.125 100.135 126.975 101.231C127.747 102.196 131.653 99.5097 133.668 101.671C134.787 102.868 142.114 103.648 143.866 101.332C147.109 97.0239 150.706 100.498 151.03 99.5483C151.355 98.5988 147.834 98.0429 148.058 94.924Z" fill="#3D9CFB"/>
<path d="M133.876 78.4336C134.185 80.7496 134.872 83.6215 135.783 83.6215C136.926 83.6215 135.621 80.5334 135.745 78.3023C135.814 77.098 133.722 77.2292 133.876 78.4336Z" fill="#001434"/>
<path d="M142.352 84.2394C142.947 84.7026 144.445 81.9852 144.985 80.7268C145.464 79.6074 143.48 78.9589 143.209 80.1401C142.823 81.8771 141.465 83.5601 142.352 84.2394Z" fill="#001434"/>
<path d="M129.561 85.3971C128.789 84.4321 127.816 82.9189 126.774 83.5674C125.191 84.5633 128.14 86.115 128.905 86.7327C129.669 87.3503 130.773 86.8871 129.561 85.3971Z" fill="#001434"/>
<path d="M110.562 103.779C109.682 104.458 108.292 104.342 107.281 104.118C107.037 104.068 106.784 104.115 106.574 104.249C106.365 104.383 106.217 104.594 106.161 104.836C105.945 106.211 107.875 106.133 108.724 106.157C110.099 106.157 112.7 105.608 111.867 103.949C111.792 103.851 111.7 103.77 111.594 103.709C111.488 103.647 111.371 103.608 111.25 103.592C111.128 103.576 111.005 103.584 110.887 103.617C110.769 103.649 110.658 103.704 110.562 103.779Z" fill="#001434"/>
<path d="M150.806 94.615C150.111 94.3679 149.015 94.229 148.714 94.8774C148.413 95.5259 149.386 95.8965 150.374 96.1127C151.362 96.3288 151.91 94.7925 150.806 94.615Z" fill="#001434"/>
<path d="M148.228 88.4004C149.262 88.1534 152.528 86.4858 151.03 85.3819C149.98 84.6099 148.938 86.7097 148.189 87.0957C147.286 87.5666 147.657 88.5394 148.228 88.4004Z" fill="#001434"/>
<path d="M138.547 85.5207C133.868 85.5207 128.997 89.126 129.445 94.1363C129.885 99.0308 133.135 99.2547 134.077 102.35C132.494 104.203 133.104 108.125 135.714 108.596C135.165 111.036 141.357 111.229 140.917 108.889C144.476 108.534 144.46 104.049 142.916 102.304C143.866 98.861 147.409 98.5213 147.263 93.7657C147.108 88.4389 142.407 85.4898 138.547 85.5207ZM141.882 106.249C141.318 107.654 137.752 107.075 136.478 106.82C134.494 106.419 134.934 104.643 135.382 103.732H141.658C142.047 104.513 142.127 105.412 141.882 106.249ZM141.11 101.841H135.876C134.957 98.9305 131.375 97.6103 131.244 94.2598C130.834 85.6365 145.14 85.1656 145.425 93.7657C145.449 97.8882 141.866 98.1199 141.11 101.841Z" fill="#001434"/>
<path d="M142.947 94.7076C142.341 93.9302 141.914 93.0287 141.697 92.0674C141.38 91.0406 141.102 90.1219 140.153 90.1528C138.308 90.2146 138.647 95.5105 138.223 95.5568C137.798 95.6032 137.667 92.6618 136.532 92.6541C135.166 92.6541 134.756 94.561 134.216 94.5301C132.85 94.4683 132.448 96.1204 133.845 96.3983C134.315 96.5095 134.809 96.4339 135.224 96.1876C135.639 95.9413 135.942 95.5436 136.069 95.0782C136.933 98.9382 140.052 99.1158 140.415 94.2058C140.685 94.9086 141.095 95.5494 141.62 96.0895C142.476 96.9079 143.804 95.5337 142.947 94.7076Z" fill="#001434"/>
<path d="M38.379 90.0138C36.1248 90.5773 35.1289 92.2835 35.8083 92.8393C36.7501 93.6113 37.4912 92.2758 38.6956 91.9515C40.9421 91.3493 41.4516 92.353 42.1542 91.6582C43.0806 90.7395 41.6987 89.18 38.379 90.0138Z" fill="#001434"/>
<path d="M104.656 100.15C103.722 99.3783 102.865 101.092 103.837 101.833C105.266 102.922 113.472 103.169 113.31 100.621C113.186 98.7298 106.864 101.972 104.656 100.15Z" fill="#001434"/>
<path d="M93.068 43.1763C100.726 42.4043 97.4375 29.9749 89.702 32.1906C82.4837 34.3908 84.9928 44.0023 93.068 43.1763ZM94.141 41.2462C93.369 38.8685 92.2959 37.17 90.721 33.9971C95.2913 33.1788 97.0052 39.571 94.141 41.2462Z" fill="#001434"/>
<path d="M77.7511 44.2492C81.256 44.2492 82.1439 39.5014 79.0095 38.0037C78.898 37.9474 78.7765 37.9137 78.6519 37.9044C78.5274 37.8951 78.4022 37.9104 78.2835 37.9495C78.1649 37.9885 78.0551 38.0506 77.9604 38.1321C77.8658 38.2136 77.7881 38.3129 77.7318 38.4244C77.6756 38.536 77.6418 38.6575 77.6325 38.782C77.6232 38.9066 77.6385 39.0318 77.6776 39.1504C77.7167 39.2691 77.7787 39.3788 77.8602 39.4735C77.9417 39.5682 78.0411 39.6458 78.1526 39.7021C79.6194 40.4741 79.1639 41.8483 78.2838 42.2806C77.4037 42.7129 76.5622 41.6553 76.0604 42.5199C75.4506 43.5622 76.8479 44.257 77.7511 44.2492Z" fill="#001434"/>
<path d="M78.2684 56.0454C85.9885 56.0454 91.5932 50.7803 86.7605 46.9974C83.8886 44.7277 78.6004 49.1977 72.9801 46.5806C65.3141 42.983 63.9399 56.0531 78.2684 56.0454ZM71.0501 48.001C72.8335 48.4257 74.6014 49.4833 78.0522 49.4601C82.113 49.4601 83.5026 47.8158 85.2937 48.5569C87.0847 49.298 86.3667 51.3284 85.5561 52.0078C81.1866 55.6439 69.6065 54.4782 69.1741 49.5759C69.1353 49.3324 69.1603 49.0829 69.2465 48.8518C69.3328 48.6208 69.4774 48.416 69.6663 48.2574C69.8552 48.0988 70.0819 47.9919 70.3244 47.9469C70.5669 47.902 70.817 47.9207 71.0501 48.001Z" fill="#001434"/>
<path d="M40.7873 83.5366C39.0349 84.2623 37.8769 87.5973 39.39 87.8212C40.9031 88.0451 40.2315 86.0842 41.706 85.3276C43.1806 84.5711 44.2536 85.7368 44.7941 84.6174C45.5429 83.1892 42.5861 82.8186 40.7873 83.5366Z" fill="#001434"/>
<path d="M61.7858 42.242C64.7657 43.6316 68.3942 42.3346 69.7297 41.2692C72.6093 39.0304 71.8373 32.6382 67.653 31.8044C60.4425 30.3685 56.4126 39.7021 61.7858 42.242ZM62.9284 34.4292C63.4417 34.0403 64.0287 33.7597 64.6537 33.6044C65.2788 33.4492 65.9288 33.4225 66.5645 33.526C65.0205 35.2939 63.6926 38.2893 62.8434 40.6285C59.8944 39.7947 61.3149 35.4869 62.9284 34.4292Z" fill="#001434"/>
<path d="M106.786 99.0077C107.674 99.1235 108.909 98.1739 110.314 98.7221C111.449 99.1544 111.858 97.3556 110.739 96.9001C109.572 96.6529 108.36 96.7304 107.234 97.124C105.891 97.6026 105.798 98.8765 106.786 99.0077Z" fill="#001434"/>
<path d="M149.285 101.609C148.626 101.346 147.987 101.036 147.371 100.683C146.637 100.289 146.228 100.953 146.514 101.455C147.033 102.219 147.79 102.789 148.668 103.076C148.852 103.115 149.044 103.088 149.211 103.001C149.377 102.914 149.508 102.771 149.581 102.597C149.654 102.424 149.665 102.231 149.611 102.05C149.557 101.87 149.442 101.714 149.285 101.609Z" fill="#001434"/>
<path d="M133.683 111.653C130.749 105.601 126.99 105.84 124.643 110.364C124.357 111.28 123.776 112.075 122.991 112.626C112.769 118.401 114.29 117.644 111.14 114.942C110.314 114.054 108.932 115.382 109.797 116.239C112.391 118.925 113.294 119.929 119.679 116.633C125.646 122.407 125.947 130.583 125.43 137.245C117.324 142.047 110.708 143.668 106.13 142.788C95.816 140.804 83.4021 131.1 84.9307 117.93C90.2807 119.227 96.395 117.273 96.0862 110.541C109.396 114.232 128.209 111.445 125.237 93.7967C125.353 85.5748 121.439 77.2062 112.599 75.3611C112.769 74.373 113.611 71.7713 111.912 71.6092C111.665 71.6231 111.434 71.7338 111.267 71.9173C111.101 72.1008 111.014 72.3423 111.025 72.5896C108.793 87.389 86.7681 75.338 93.3301 103.516C97.7923 118.702 86.4284 118.864 77.558 112.556C76.2665 111.576 75.266 110.263 74.6635 108.757C74.0611 107.252 73.8794 105.611 74.138 104.01C75.2254 102.755 75.8566 101.169 75.9291 99.5095C76.0449 97.2552 75.1571 95.6881 75.2034 94.283C75.2497 92.878 77.0639 91.5192 77.1025 88.6242C77.0733 87.0177 76.4328 85.4827 75.3115 84.3318C81.4875 76.3493 84.1741 66.5757 103.513 67.6951C114.993 63.6498 126.82 69.6174 130.533 78.0631C131.529 80.3174 132.34 79.059 131.591 76.7816C130.116 72.2654 124.813 67.6796 118.467 65.7033C133.058 52.8262 149.98 46.5575 136.771 27.8286C141.704 24.0612 140.839 20.9578 139.295 18.4796C137.751 16.0015 134.331 14.8589 131.135 17.4374C128.626 19.4524 126.619 21.6526 124.55 23.544C123.392 17.5764 116.637 17.808 115.803 24.0998C101.977 31.0479 101.374 8.04981 84.73 10.057C82.4834 10.3349 79.1175 11.6705 77.2878 11.933C75.4581 12.1955 72.6944 11.3386 69.6063 11.5624C52.4987 12.8208 55.9032 31.5265 39.6138 28.647C38.8418 22.2856 31.3688 21.7452 30.6817 28.3536C27.1459 26.2537 22.7687 19.7303 18.044 22.3088C13.4968 24.7946 13.4119 29.5425 18.9086 33.7576C8.94972 50.3481 21.1783 56.2153 32.3956 64.8001C30.8516 66.0121 30.5196 67.5021 29.377 68.7527C27.4084 69.8644 24.5597 68.9998 22.676 71.4393C20.7614 73.6241 22.1819 77.1831 21.9426 79.53C16.7856 83.722 15.2184 90.3381 22.5834 93.7658C22.7296 95.8373 23.2039 97.8724 23.9884 99.7952C18.2678 100.467 10.8643 102.242 6.9425 107.515C2.37222 113.56 5.22864 124.909 13.1803 127.804C16.8937 137.292 22.1356 140.881 33.708 143.398C40.2392 144.772 53.0082 146.085 58.806 141.854C71.0114 134.474 78.8164 114.139 64.0788 108.256C64.9844 107.352 65.7635 106.328 66.3948 105.215C67.2583 105.711 68.2329 105.982 69.2287 106.002C70.2244 106.022 71.2092 105.791 72.0922 105.33C71.8529 111.259 77.4422 115.992 83.0161 117.436C81.31 132.706 96.3487 145.042 108.778 145.097C119.972 145.143 143.318 130.428 145.417 117.783C147.039 108.28 134.54 113.46 133.683 111.653ZM98.711 85.1116C100.626 84.3396 104.663 86.3545 105.011 84.4399C105.157 83.6679 104.185 83.4363 102.695 83.2202C106.122 81.7765 110.013 80.2556 111.82 77.0904C114.354 77.6123 116.7 78.807 118.613 80.549C116.158 80.549 113.719 82.1393 115.124 82.7878C116.182 83.2742 117.525 82.1162 120.304 82.5176C120.505 82.8187 120.705 83.1198 120.891 83.4363C114.236 82.6643 111.912 85.6443 112.399 90.1837C112.916 95.1013 117.147 97.3093 123.323 94.0437C126.133 110.341 108.029 112.031 95.9318 108.465C95.6075 105.168 94.7506 101.656 94.3337 98.2511C97.3754 98.9459 102.687 98.0504 103.945 96.0818C107.427 90.6314 103.768 84.7024 96.5957 86.6093C97.24 86.0293 97.95 85.5267 98.711 85.1116ZM119.455 93.264C113.433 95.1245 112.09 85.3046 118.297 85.3277C118.445 88.0024 118.833 90.6585 119.455 93.264ZM94.1407 96.213C93.8852 93.7612 94.186 91.2833 95.0208 88.9639C96.3301 88.5431 97.6916 88.3066 99.0661 88.2614C98.9464 90.9595 99.0108 93.6626 99.2591 96.352C97.607 96.5527 95.8546 97.0082 94.1407 96.213ZM55.7951 40.312C54.861 40.312 53.6875 33.1478 55.8723 30.3685C58.0571 27.5893 68.4869 26.578 68.6336 27.4735C68.7417 28.1452 58.5975 29.4112 57.1153 31.21C55.2702 33.526 56.5749 40.3197 55.7951 40.312ZM73.173 35.0701C73.945 41.47 72.8874 42.435 69.9229 42.9368C61.9557 44.3341 59.3464 43.9095 58.7519 41.2461C57.6325 36.2667 57.563 33.6573 58.613 32.3217C60.2728 30.2141 72.1926 27.35 73.173 35.0701ZM57.177 42.4736C58.0571 44.7896 60.265 45.909 63.1987 45.5616C70.9187 44.7047 77.0253 45.3686 75.1339 35.9347C77.3989 35.1265 79.8888 35.2261 82.082 36.2126C81.31 42.0181 82.0202 44.4036 86.5673 45.2992C91.5699 46.2796 98.5257 48.3872 100.031 42.3732C104.347 64.6148 52.5759 64.8618 57.177 42.4736ZM73.9836 31.156C76.0662 30.7553 77.9152 29.5696 79.1483 27.8441C80.0078 29.62 81.4922 31.0164 83.3172 31.7659C82.8826 32.5632 82.5728 33.4223 82.3985 34.3135C80.0087 33.3825 77.3731 33.2927 74.9255 34.0587C74.7819 33.0439 74.4632 32.0618 73.9836 31.156ZM98.6878 33.3639C99.6837 34.7381 99.4985 37.3475 98.1706 42.2883C97.4681 44.9054 94.8587 45.1834 87.0074 43.4927C84.0892 42.8596 83.6877 42.3578 84.1124 35.4947C84.5756 27.6974 97.0743 31.21 98.657 33.3639H98.6878ZM90.9678 28.2764C91.1608 27.5044 94.9977 27.7978 99.1279 29.0947C104.609 30.8163 102.502 40.5436 101.521 40.5436C100.819 40.5436 101.722 33.6882 100.371 32.0515C97.7769 29.033 90.713 29.0407 90.8983 28.2764H90.9678ZM116.266 64.9545C113.117 64.1207 110.029 64.2828 106.153 65.1011C105.597 61.1793 103.976 56.4778 102.702 56.8793C101.428 57.2807 103.999 60.2993 104.323 65.5721C104.053 65.6493 103.783 65.7187 103.551 65.8037C91.7321 65.1706 85.6486 68.498 81.4566 72.9447L79.573 66.4136L81.117 65.6415C82.5452 66.9231 83.433 67.1315 84.1587 67.1161C87.0537 66.815 92.2184 60.361 87.9261 61.8819C84.2668 66.7532 82.9466 65.5644 79.2487 60.693C88.1191 60.5154 94.6889 57.9446 98.5489 53.8067C100.728 51.426 101.966 48.3331 102.031 45.1062C105.289 42.5817 109.897 38.9301 113.148 36.0737C113.449 40.4046 116.869 46.766 118.961 48.4258C121.754 51.2736 125.255 53.3255 129.105 54.3702C125.608 57.3039 121.331 60.8088 116.197 64.9545H116.266ZM138.902 44.1566C136.941 47.4453 133.583 46.8509 131.282 44.0717C132.479 43.1375 136.539 39.1385 135.497 38.2507C134.254 37.1931 132.069 40.6054 129.908 42.1802C126.233 35.9193 128.703 33.526 135.227 28.894C140.106 35.9038 140.971 40.5668 138.832 44.1566H138.902ZM115.101 34.3521C116.375 33.1092 117.162 32.1519 117.123 31.7041C117.656 28.4076 116.815 21.089 120.343 21.0041C121.385 20.8728 122.219 22.0154 122.967 24.5862C123.408 25.7288 124.388 26.1302 125.631 25.1343C128.642 22.6793 135.806 13.3458 138.346 21.0118C139.002 23.019 136.694 25.227 133.945 27.489C130.456 30.3454 126.997 32.1982 126.534 35.981C125.87 41.6553 130.718 49.1052 136.231 47.978C134.841 49.3754 133.081 50.9734 130.989 52.7953C124.612 52.6564 114.383 43.1993 115.031 34.3521H115.101ZM49.0709 29.473C58.0262 25.667 57.0767 12.6046 72.6094 13.5233C74.2352 13.7281 75.8732 13.821 77.5117 13.8013C79.0204 13.4656 80.5058 13.0323 81.9585 12.5043C96.6266 8.25825 99.4058 23.5208 108.207 26.8791C111.218 28.0371 115.155 25.9681 114.939 26.5625C114.282 28.6238 108.585 29.9208 105.258 28.5389C102.625 27.4426 100.355 25.8677 96.4567 20.6335C94.2642 17.6922 88.7367 10.1033 79.6502 14.8358C77.504 15.9629 77.697 15.9706 75.2343 15.2604C69.9923 13.7163 64.5188 14.1023 59.3695 22.8415C52.4678 34.4447 41.0421 32.5842 40.8568 31.4648C40.7024 30.5152 43.9216 31.6578 49.0709 29.473ZM18.9627 50.8962C16.3533 46.9204 16.3147 42.2188 20.553 34.6841C27.4547 38.6599 30.1336 40.8292 27.1459 47.4222C25.5479 46.3491 22.5679 42.4118 21.6184 44.0176C20.9699 45.1139 25.4012 48.7423 26.2504 49.0666C24.2355 51.9847 21.5412 53.4902 18.9395 50.8962H18.9627ZM21.7187 54.1C26.8526 54.3702 31.2916 45.5462 29.9869 40.4741C28.4429 34.5991 13.52 30.8781 16.8165 25.9527C20.7537 20.0854 26.5901 27.8672 29.8094 30.0597C33.2139 32.3758 32.3956 25.4817 34.6884 25.4277C38.34 25.3736 37.7765 31.2795 38.5485 34.2131C38.9345 35.2245 41.0575 37.3012 43.7441 39.4859C43.6865 44.1666 41.7995 48.6389 38.4867 51.9461C34.2175 56.2925 28.5741 58.1222 26.6904 58.2148C24.9474 56.9409 23.2796 55.567 21.6956 54.1H21.7187ZM28.9138 59.8283C32.1331 59.0563 36.8887 56.1536 39.8686 53.2586C42.0457 51.4289 45.4579 45.276 45.7513 41.0531C48.7107 43.4178 51.8378 45.5645 55.108 47.4762C55.108 47.4762 55.7951 49.6301 56.0808 50.3249C58.7828 56.941 66.8889 60.2529 76.068 60.6698C71.5981 65.2324 69.7762 67.3322 66.804 61.1021C66.6901 60.8822 66.4942 60.7159 66.2587 60.6394C66.0232 60.5628 65.767 60.582 65.5456 60.693C63.8935 61.7584 67.7381 66.622 70.0387 67.1315C71.0809 67.2164 72.4164 66.4444 73.752 65.3868C74.2538 65.657 75.0258 66.0662 75.767 66.4444L72.9954 75.1295C70.9265 72.9679 68.3634 74.2649 66.1246 69.656C62.8127 62.8623 59.5702 64.939 55.1389 64.4835C53.5486 64.3214 52.267 63.0476 50.1054 62.3837C51.2557 57.2653 53.5023 56.0918 52.5218 55.4974C51.5414 54.9029 49.6036 57.7053 48.2295 62.1289C45.5583 62.1289 43.9139 63.7887 41.9685 64.5067C39.6525 64.2983 36.7111 62.4532 34.1403 63.7887C31.8397 61.9745 29.13 60.0059 28.8907 59.8283H28.9138ZM23.7954 101.702C25.1001 101.54 26.4666 101.509 27.8639 101.378C30.728 101.115 31.8861 95.3484 34.812 97.4019C36.0703 98.1199 35.6689 101.362 37.9 100.93C42.1924 100.197 44.076 100.536 44.6473 101.254C46.0061 103.007 46.0678 104.674 40.602 105.825C38.9113 106.434 40.3781 108.31 41.7214 107.5C41.9831 108.31 42.1413 109.151 42.1924 110.001C41.2444 110.307 40.2549 110.466 39.2587 110.472C39.011 110.472 38.7734 110.57 38.5982 110.746C38.423 110.921 38.3246 111.158 38.3246 111.406C38.5716 113.089 40.9649 112.101 42.0688 111.977C41.4821 116.262 36.6648 119.898 33.3529 120.516C25.5247 117.312 20.7074 108.92 23.7723 101.702H23.7954ZM44.022 111.036C45.9413 111.477 47.8981 111.735 49.8661 111.808C42.0534 117.52 46.3535 122.616 36.8115 121.234C40.7024 119.219 43.7827 115.513 44.022 111.036ZM11.3815 123.388C11.3943 123.924 11.48 124.457 11.6363 124.97C1.23737 115.76 8.10051 103.277 21.5566 102.019C20.2673 105.778 21.3559 111.908 24.0888 116.054C22.9224 116.126 21.8263 116.636 21.0202 117.482C20.2141 118.328 19.7577 119.448 19.7424 120.616C15.1644 118.262 11.7984 118.655 11.3815 123.395V123.388ZM20.8232 136.079C21.8808 136.079 23.9112 136.851 24.1197 135.307C24.1197 135.06 24.0212 134.822 23.8461 134.647C23.6709 134.472 23.4333 134.373 23.1855 134.373C19.5185 134.582 17.2874 133.092 16.0367 129.695C16.9786 129.973 19.2869 131.525 19.8968 129.934C19.9242 129.815 19.9278 129.691 19.9073 129.57C19.8869 129.449 19.8427 129.333 19.7775 129.229C19.7122 129.125 19.6272 129.035 19.5271 128.964C19.427 128.893 19.3139 128.842 19.1943 128.815C12.3388 127.232 12.4083 121.712 14.485 121.172C15.4886 120.91 17.3492 121.55 21.7264 123.812C23.6873 124.824 23.1547 122.353 21.6261 121.597C22.0198 113.606 29.1454 120.601 32.7275 122.268C30.6508 126.175 29.4465 135.338 32.0482 141.098C27.0842 139.916 23.5329 138.372 20.8232 136.087V136.079ZM64.982 110.603C75.7901 117.351 68.2167 133.949 57.702 140.356C52.6067 144.085 40.5017 142.865 34.48 141.646C30.9982 136.512 32.5963 125.974 34.5726 122.816C36.8887 122.716 42.7945 124.615 44.6087 121.635C48.268 113.568 56.8373 107.067 64.9743 110.626L64.982 110.603ZM61.2069 107.978C54.9845 107.778 49.8043 111.568 43.9294 109.059C43.8421 108.358 43.6949 107.666 43.4893 106.99C47.6736 105.747 48.1214 102.073 45.759 99.7565C44.3077 98.614 41.6751 98.3824 37.7379 99.0309C37.6693 98.6918 37.5738 98.3588 37.4522 98.035C37.9573 98.0382 38.4533 97.9013 38.8853 97.6397C39.3173 97.378 39.6684 97.0018 39.8995 96.5527C44.2922 99.5481 47.7817 95.2557 45.1877 94.2907C44.3385 93.9742 44.4929 95.4951 43.003 95.6881C40.6869 95.9814 40.8259 93.2871 39.2201 93.4338C37.9849 93.5419 38.9576 95.7884 36.7343 96.1667C35.9005 94.9624 32.0636 93.125 28.5741 98.8533C27.9411 99.772 27.0301 99.4478 25.957 99.5867C24.0502 95.6804 23.8881 90.1837 25.2236 85.5748C31.006 91.9979 40.3087 87.0339 37.9 78.8197C39.0378 78.4516 40.0886 77.8553 40.988 77.0673C41.219 78.1128 41.7058 79.0848 42.4049 79.8958C43.104 80.7069 43.9935 81.3318 44.9937 81.7144C45.9938 82.097 47.0732 82.2253 48.1351 82.088C49.1971 81.9506 50.2083 81.5518 51.0782 80.9273C51.2747 81.5044 51.5336 82.0584 51.8502 82.5794C48.4225 82.7415 45.7822 88.7554 47.0714 91.3262C49.3411 95.0782 56.0113 96.4755 59.5702 94.7771C59.7324 98.3283 61.2223 100.104 64.0633 100.258C64.0098 101.54 64.3521 102.807 65.0438 103.887C64.2872 105.199 62.805 107.214 61.2069 108.002V107.978ZM26.5515 84.2624C29.6395 83.4904 33.8392 82.2783 36.4409 80.5258C36.8037 86.5938 30.535 88.7169 26.5515 84.2624ZM59.2383 86.8949C59.6368 86.9183 60.0364 86.9183 60.4349 86.8949C60.2573 89.4348 60.2573 93.4724 56.8837 93.6114C54.5676 93.704 50.7076 92.7699 49.1636 91.0869C52.1358 90.3458 56.6212 88.6705 59.2383 86.8949ZM65.9779 100.22C68.6027 99.386 69.2667 94.5609 67.7381 94.3139C67.6159 94.2989 67.4921 94.3089 67.3739 94.3431C67.2557 94.3773 67.1456 94.4351 67.0504 94.5131C66.9552 94.591 66.8767 94.6874 66.8198 94.7964C66.7628 94.9055 66.7285 95.025 66.719 95.1477C66.4797 97.6104 65.0592 98.7143 63.0288 98.1739C60.6588 97.5409 61.3922 90.1682 62.3958 86.6942C63.5075 86.3159 66.4643 85.513 65.5687 83.8764C65.4916 83.7797 65.3959 83.6995 65.2873 83.6404C65.1787 83.5814 65.0594 83.5446 64.9363 83.5324C64.8133 83.5202 64.6891 83.5327 64.571 83.5692C64.4529 83.6058 64.3432 83.6656 64.2486 83.7451C61.2764 86.3005 55.9804 84.2238 54.4055 82.7955C51.7575 80.4023 53.3247 76.6195 51.6186 76.3802C50.2598 76.2026 50.5918 78.04 50.6613 79.0127C46.9016 81.9618 42.6401 79.3524 42.7482 74.9365C42.7482 73.8711 43.3658 72.2731 42.424 72.111C41.4821 71.9488 41.4049 73.4851 40.9494 74.427C38.8727 78.6653 31.6004 78.6653 30.2031 73.9175C29.709 72.2422 27.64 73.9792 28.6591 75.4615C24.7384 79.9777 22.5496 85.7397 22.483 91.72C19.1634 89.2572 18.9472 87.7441 19.4722 85.7292C20.167 83.0272 22.9617 81.9695 23.6719 80.2016C24.4439 78.2639 22.6606 74.3807 24.0888 72.6514C25.764 70.621 29.0991 72.0415 30.674 70.096C31.9941 68.4671 33.0518 66.5216 34.7039 65.6724C35.4264 65.3022 36.2319 65.1241 37.0431 65.1552C37.8543 65.1863 38.6439 65.4256 39.3359 65.85C42.9952 67.7877 45.1646 63.534 48.8548 64.0358C51.109 64.3291 52.653 66.0739 54.1662 66.3518C59.0453 67.1701 61.6238 64.0358 64.4107 70.5052C67.3057 77.2448 72.648 73.516 72.2929 80.4178C71.961 86.9258 77.7819 86.4549 74.2538 91.7817C73.4818 92.9397 72.7098 93.9047 73.5513 95.8734C77.1334 104.474 66.2944 107.114 65.9779 100.22ZM143.619 117.204C141.156 118.91 136.81 119.095 136.763 119.095C136.516 119.095 136.278 119.194 136.103 119.369C135.928 119.544 135.829 119.782 135.829 120.029C135.829 120.277 135.928 120.515 136.103 120.69C136.278 120.865 136.516 120.964 136.763 120.964C138.935 120.861 141.075 120.396 143.094 119.589C143.094 122.917 137.883 124.414 136.014 124.553C135.767 124.564 135.533 124.672 135.365 124.854C135.197 125.037 135.109 125.278 135.119 125.526C135.129 125.774 135.237 126.007 135.42 126.175C135.602 126.343 135.844 126.432 136.092 126.422C137.343 126.279 138.563 125.935 139.705 125.403C136.168 129.562 132 133.139 127.352 136.002C127.661 131.077 127.569 122.106 121.362 115.668C126.982 113.159 125.801 109.492 128.248 108.928C129.622 108.611 130.317 109.407 131.938 112.417C134.084 116.586 144.36 110.101 143.619 117.219V117.204Z" fill="#001434"/>
<path d="M106.864 94.3372C108.168 95.1092 108.593 91.9362 110.33 93.6192C111.179 94.453 111.874 94.0361 112.028 93.6192C112.26 92.8086 111.164 91.2105 109.272 91.2028C108.045 91.1642 105.52 93.4957 106.864 94.3372Z" fill="#001434"/>
</svg>
