<svg width="155" height="154" viewBox="0 0 155 154" fill="none" xmlns="http://www.w3.org/2000/svg">
<path d="M78.6369 5.59098L131.058 8.61658C133.754 8.79676 135.191 10.9529 135.191 13.648V138.45C135.191 140.631 132.986 142.673 129.89 142.673L76.8787 136.653C74.6321 136.384 73.2842 134.497 73.2842 132.25V9.87481C73.2834 7.51169 75.5752 5.41387 78.6369 5.59098Z" fill="white"/>
<path d="M91.9727 71.602C91.7971 71.9631 87.8399 67.828 87.3906 67.6486C87.652 67.4394 87.9606 67.2972 88.2895 67.2345C88.6184 67.1719 88.9576 67.1906 89.2776 67.289C89.7269 67.3787 90.4454 67.8257 90.8947 67.289C90.9821 67.1896 91.0303 67.0618 91.0303 66.9294C91.0303 66.797 90.9821 66.6692 90.8947 66.5698C90.7045 66.3693 90.4938 66.1894 90.2659 66.0331C90.6015 66.1965 90.986 66.2285 91.344 66.1228C92.1805 65.9142 91.7036 65.126 91.7036 65.0447C92.8133 64.1818 93.9844 63.401 95.2076 62.7084C96.1645 62.2558 96.997 61.5775 97.6336 60.7318C98.1704 59.7434 98.1703 58.486 98.7117 57.4079C99.3066 56.497 100.034 55.6794 100.869 54.9819C100.969 54.9074 101.052 54.813 101.114 54.7047C101.175 54.5963 101.214 54.4764 101.227 54.3524C101.22 54.1791 101.153 54.0135 101.039 53.883C100.925 53.7524 100.769 53.6646 100.599 53.634C100.259 53.5976 99.9157 53.6599 99.6103 53.8134C100.186 53.204 100.942 52.7948 101.766 52.6456C102.036 52.5559 104.642 52.1089 104.642 52.0169C104.35 54.0656 106.932 55.1767 108.865 54.5326C109.168 54.401 109.438 54.2037 109.655 53.9551C109.873 53.7065 110.032 53.4127 110.122 53.0949C116.502 55.251 120.096 62.4393 120.904 68.729C121.17 69.7886 120.67 70.0807 116.682 75.0163C116.219 71.1454 115.529 67.3051 114.616 63.5151C114.525 66.9294 114.172 70.4334 114.079 73.8478C113.994 76.9033 113.63 80.4073 114.438 83.462C107.997 83.745 101.544 83.6238 95.1179 83.0994C95.0326 75.9285 96.0014 68.7841 97.9932 61.8949C96.9152 63.512 96.0166 65.1291 95.0282 66.8366C94.0399 68.5442 92.8 69.9028 91.9727 71.602Z" fill="#FFE55D"/>
<path d="M134.317 6.79701L81.3569 3.74075C77.7255 3.88107 72.9004 6.0847 72.9004 9.87474V132.248C72.9004 134.682 74.3863 136.738 76.8346 137.032L129.89 143.054C134.197 143.054 138.809 139.236 138.809 136.834V12.0308C138.809 9.29048 137.139 6.991 134.317 6.79701ZM129.933 142.292L76.9243 136.273C74.8633 136.025 73.6671 134.296 73.6671 132.252V9.87474C73.6671 7.76005 75.4997 5.79334 79.3756 6.01723L131.032 8.99912C133.562 9.1678 134.717 11.0962 134.717 13.5551V138.36C134.718 140.691 132.151 142.279 129.933 142.292Z" fill="#4B1010"/>
<path d="M78.498 12.7501L78.6775 30.9895C87.3931 30.6299 96.019 32.247 104.644 32.9662C112.91 33.5949 121.177 34.134 129.443 35.1223L129.218 16.2541L78.498 12.7501ZM81.1939 26.3169C82.4514 24.6102 82.9904 20.7465 82.9904 18.7698V17.5116H83.8891V18.7974C84.2663 18.8174 84.6489 18.8457 85.0568 18.878V17.6956H85.9554C85.9554 20.2512 86.1855 24.7497 87.4828 26.9495C85.6848 26.6766 82.8095 26.4964 81.1924 26.3169H81.1939ZM97.3662 27.8443L96.6478 22.2739C96.3779 23.9814 95.8388 27.6649 95.7491 27.6649C95.6594 27.6649 93.7724 27.4855 93.0532 27.4855C93.0532 27.4855 94.4909 20.5671 94.6711 19.1279C94.7608 19.0374 94.8505 18.9477 94.9402 18.9477C95.6594 18.9477 97.6361 19.0374 98.2648 19.0374C98.445 19.0374 98.5347 19.1279 98.5347 19.2176C99.1635 22.2723 99.793 24.9682 100.152 28.023C99.2203 28.0111 98.2901 27.9514 97.3647 27.8443H97.3662ZM113 23.7115C111.985 24.1716 111.832 24.2805 111.832 24.0711C111.675 23.7882 111.554 23.4862 111.473 23.1725C111.473 24.8793 111.653 26.4067 111.563 28.2039C110.305 28.1142 108.867 28.0245 107.519 27.8443C107.547 26.1621 107.667 24.4821 107.879 22.8129C107.67 23.1634 107.429 23.4942 107.16 23.8012C106.136 23.2891 106.082 23.1349 106.082 22.8129C106.359 22.2716 106.69 21.7594 107.07 21.2855C107.52 20.765 108.114 20.3898 108.778 20.2075C109.12 20.893 109.856 21.3753 110.395 20.5671C110.714 20.6314 111.018 20.753 111.293 20.9259C112.19 21.5465 112.829 22.4737 113.09 23.5329C113.088 23.6218 113.098 23.7115 113.002 23.7115H113ZM126.208 28.9254C125.803 29.331 125.902 28.9254 125.579 28.9254C125.4 28.9254 125.31 29.1048 125.22 29.2843C125.144 29.3409 125.056 29.3787 124.962 29.3943C124.869 29.4099 124.773 29.4029 124.683 29.374C124.504 29.1946 124.324 28.9254 124.146 28.9254C123.788 28.9254 123.518 29.4622 123.158 29.2843C122.864 28.9906 122.621 28.6847 122.17 28.835C121.99 28.835 121.901 29.0151 121.72 29.0151C121.541 29.1048 121.362 29.1048 121.271 28.9254C121.181 28.835 121.181 28.835 121.181 28.7452C121.092 28.5658 120.822 28.5658 120.645 28.7452C120.014 29.3763 119.927 28.4761 119.656 28.4761C119.477 28.4761 119.297 28.6555 119.12 28.5658C118.943 28.4761 119.299 27.3076 119.389 27.1282C120.539 23.1089 120.663 22.6933 121.186 21.6474L124.511 21.8269C125.04 23.7069 126.207 27.4709 126.207 28.9231L126.208 28.9254Z" fill="#FFB43B"/>
<path d="M102.935 11.5156C103.18 11.5156 103.414 11.4184 103.587 11.2454C103.761 11.0723 103.858 10.8376 103.858 10.5929C103.858 10.3481 103.761 10.1134 103.587 9.94035C103.414 9.7673 103.18 9.67007 102.935 9.67007C102.69 9.67007 102.456 9.7673 102.282 9.94035C102.109 10.1134 102.012 10.3481 102.012 10.5929C102.012 10.8376 102.109 11.0723 102.282 11.2454C102.456 11.4184 102.69 11.5156 102.935 11.5156Z" fill="#4B1010"/>
<path d="M106.36 130.412C105.789 125.931 100.533 124.321 98.061 127.861C95.5783 131.418 98.3677 136.549 102.412 136.032C104.943 135.71 106.714 133.188 106.36 130.412Z" fill="#4B1010"/>
<path d="M117.781 86.7406C117.788 86.6847 117.783 86.6279 117.765 86.5744C117.747 86.5209 117.718 86.472 117.679 86.4312C117.64 86.3904 117.593 86.3587 117.54 86.3383C117.488 86.318 117.431 86.3095 117.375 86.3136C117.3 86.3181 117.228 86.3451 117.168 86.391L91.3078 85.1473C91.2049 85.1344 91.101 85.1619 91.018 85.224L87.4219 82.3472C87.2853 82.1003 87.0761 81.9015 86.8226 81.7776C86.5691 81.6537 86.2837 81.6109 86.005 81.6548C85.7262 81.6986 85.4678 81.8276 85.2652 82.024C85.0626 82.2204 84.9257 82.4747 84.8733 82.752C84.8339 82.9592 84.8428 83.1726 84.8992 83.3758C84.9557 83.5789 85.0582 83.7664 85.1988 83.9235C85.3394 84.0806 85.5143 84.2033 85.71 84.2819C85.9056 84.3605 86.1168 84.3929 86.327 84.3767C86.6084 84.3545 86.876 84.2464 87.0938 84.067L91.1989 87.4468C91.7771 91.759 92.6174 96.3526 93.7538 101.423C93.7722 101.506 93.8175 101.58 93.8826 101.634C93.9476 101.688 94.0288 101.719 94.1134 101.722C94.3242 101.73 94.5335 101.739 94.7413 101.747L94.7919 103.058C94.4032 103.163 94.0615 103.397 93.8224 103.721C93.5833 104.046 93.4608 104.441 93.4747 104.844C93.4506 105.072 93.4744 105.303 93.5445 105.522C93.6146 105.74 93.7295 105.942 93.8818 106.114C94.0343 106.286 94.2212 106.424 94.4304 106.52C94.6396 106.615 94.8664 106.665 95.0963 106.668C95.326 106.67 95.5536 106.624 95.7646 106.533C95.9757 106.442 96.1656 106.309 96.3224 106.141C96.4786 105.972 96.5978 105.773 96.6726 105.556C96.7473 105.338 96.7758 105.108 96.7563 104.879L111.456 106.336C111.399 106.701 111.458 107.075 111.624 107.406C111.79 107.736 112.056 108.006 112.383 108.178C112.601 108.292 112.84 108.358 113.086 108.374C114.78 108.374 115.373 105.831 113.848 104.941L113.905 103.361C113.936 103.361 114.671 103.432 114.704 103.432C114.795 103.432 114.883 103.399 114.952 103.34C115.021 103.281 115.067 103.199 115.082 103.109C117.686 86.986 117.797 86.8625 117.781 86.7406ZM105.112 86.5788L112.675 86.9423L112.275 90.4624L105.052 90.0407L105.112 86.5788ZM105.039 90.8082L112.188 91.2261L111.782 94.8045L104.979 94.2732L105.039 90.8082ZM104.966 95.0407L111.695 95.5667L111.348 98.6137L104.912 98.133L104.966 95.0407ZM104.899 98.9005L111.263 99.3759L110.93 102.313L104.852 101.721L104.899 98.9005ZM104.346 86.542L104.286 90.0001L96.6789 89.5561L96.3477 86.161L104.346 86.542ZM97.4633 97.5763L97.1566 94.4327L104.201 94.9832L104.148 98.077L97.4633 97.5763ZM104.134 98.843L104.086 101.649C101.986 101.453 99.9399 101.28 97.8122 101.146L97.54 98.3507L104.134 98.843ZM97.0799 93.6559L96.7548 90.3252L104.269 90.7638L104.21 94.2141L97.0799 93.6559ZM91.7801 85.9363L95.5732 86.1188L95.9045 89.5063L92.2371 89.2924C92.0697 88.1758 91.9173 87.057 91.7801 85.9363ZM92.3552 90.0676L95.9796 90.2792L96.304 93.5946L92.8996 93.3285C92.7076 92.2436 92.5262 91.1568 92.3552 90.0683V90.0676ZM93.6587 97.2919C93.4437 96.233 93.2392 95.172 93.0453 94.1091L96.3837 94.3698L96.6904 97.5173L93.6587 97.2919ZM93.8189 98.0724L96.7648 98.2925L97.0393 101.098C96.1913 101.049 95.3287 101.006 94.4423 100.97C94.2215 99.987 94.0129 99.0217 93.8166 98.0732L93.8189 98.0724ZM113.093 104.732C112.805 104.735 112.523 104.816 112.277 104.967C112.032 105.118 111.832 105.333 111.699 105.589L96.616 104.097C96.5259 103.862 96.3848 103.65 96.2031 103.477C96.0213 103.303 95.8033 103.172 95.5648 103.092L95.5142 101.789C101.439 102.074 106.439 102.678 113.145 103.296L113.093 104.732ZM114.386 102.635C113.456 102.551 112.561 102.468 111.694 102.385L112.029 99.4319L114.871 99.6443L114.386 102.635ZM114.994 98.8852L112.116 98.6697L112.462 95.6257L115.488 95.8619L114.994 98.8852ZM115.613 95.1028L112.546 94.8636L112.955 91.2698L116.213 91.4607L115.613 95.1028ZM116.342 90.6994L113.045 90.5069L113.446 86.9799L116.94 87.1478L116.342 90.6994Z" fill="#4B1010"/>
<path d="M121.106 68.8577C120.348 62.9652 117.003 55.2533 110.065 52.9093C110.016 52.8927 109.964 52.8862 109.912 52.8903C109.86 52.8943 109.81 52.9088 109.764 52.9329C109.718 52.957 109.677 52.9901 109.644 53.0304C109.612 53.0706 109.587 53.1171 109.573 53.1669C109.511 53.4192 109.385 53.6515 109.208 53.842C109.032 54.0326 108.809 54.1752 108.563 54.2565C106.906 54.7702 104.591 53.9069 104.841 52.1587C104.849 52.1005 104.844 52.0412 104.826 51.9854C104.808 51.9295 104.777 51.8786 104.736 51.8365C104.695 51.7944 104.645 51.7623 104.59 51.7426C104.534 51.723 104.475 51.7163 104.417 51.7232C102.833 51.8946 101.283 52.2981 99.8163 52.9208C99.7263 52.9635 99.6564 53.0395 99.6214 53.1328C99.5865 53.2261 99.5892 53.3294 99.6291 53.4207C99.669 53.512 99.7428 53.5842 99.835 53.622C99.9272 53.6598 100.031 53.6602 100.123 53.6232C101.38 53.0865 102.704 52.7231 104.059 52.5428C104.195 55.3644 109.049 56.1895 110.17 53.7604C116.133 55.9939 119.572 62.9514 120.353 68.9995C120.553 69.7977 120.226 69.9741 116.773 74.2495C116.308 70.6692 115.652 67.1164 114.808 63.6062C114.786 63.5158 114.733 63.4362 114.657 63.3824C114.581 63.3286 114.488 63.3043 114.396 63.3141C114.304 63.3238 114.218 63.3665 114.155 63.4342C114.092 63.502 114.055 63.5903 114.052 63.6829C114.025 64.715 113.975 65.7669 113.911 66.8143C108.35 67.614 102.678 67.0738 97.3681 65.2386C97.6176 64.2142 97.8888 63.1953 98.1816 62.1824C98.209 62.0935 98.2033 61.9977 98.1655 61.9127C98.1277 61.8277 98.0604 61.7593 97.9761 61.72C97.8917 61.6809 97.796 61.6739 97.7068 61.7003C97.6176 61.7267 97.5411 61.7847 97.4915 61.8634C95.9266 64.2112 95.0111 66.1265 93.2284 68.8922C92.7277 69.6689 92.2117 70.4694 91.7401 71.322C90.1969 70.3063 88.8292 69.0462 87.6909 67.591C87.629 67.5087 87.5368 67.4544 87.4348 67.44C87.3842 67.4328 87.3327 67.4359 87.2832 67.449C87.2338 67.4622 87.1876 67.4851 87.1472 67.5166C87.1069 67.548 87.0733 67.5872 87.0484 67.6318C87.0235 67.6765 87.0079 67.7257 87.0024 67.7766C86.9961 67.8273 87.0002 67.8788 87.0146 67.9279C87.029 67.9769 87.0533 68.0225 87.086 68.0618C88.3644 69.6952 89.9175 71.0934 91.6757 72.1938C91.7209 72.2223 91.7715 72.2411 91.8243 72.249C91.877 72.2569 91.9309 72.2538 91.9824 72.2398C92.2807 72.1631 91.9985 72.2207 93.8763 69.3078C100.129 59.6153 94.3294 65.1075 94.5549 83.2856C94.5566 83.3808 94.5935 83.4721 94.6585 83.5417C94.7235 83.6114 94.8119 83.6545 94.9068 83.6628C101.348 84.1888 107.816 84.3092 114.273 84.0232C114.33 84.0208 114.386 84.0055 114.437 83.9785C114.487 83.9516 114.531 83.9136 114.565 83.8674C114.599 83.8212 114.622 83.7679 114.633 83.7115C114.644 83.6552 114.642 83.5971 114.627 83.5417C113.834 80.5452 114.19 77.1271 114.28 74.034C114.345 71.5804 114.552 69.031 114.693 66.5835C116.402 74.6942 115.803 75.3881 116.396 75.5598C116.468 75.5808 116.545 75.58 116.617 75.5573C116.689 75.5347 116.753 75.4913 116.801 75.4326C121.157 70.0232 120.673 70.6979 120.979 70.0653C121.175 69.6941 121.22 69.2616 121.106 68.8577ZM97.191 65.99C102.542 67.8435 108.258 68.3921 113.864 67.5903C113.69 70.3598 113.589 71.5566 113.508 74.1981C107.645 75.2442 101.624 75.0019 95.8629 73.4881C96.1742 70.9672 96.6175 68.4645 97.191 65.99ZM95.3186 82.9291C95.2962 80.032 95.4475 77.1361 95.7717 74.2571C101.554 75.7617 107.592 76.0085 113.478 74.981C113.369 77.7067 113.165 80.589 113.773 83.2772C107.62 83.5325 101.457 83.416 95.3186 82.9291Z" fill="#4B1010"/>
<path d="M129.376 15.8232C89.2495 13.0629 80.7585 12.4764 78.7903 12.4188C78.67 12.4162 78.5517 12.4497 78.4507 12.5151C78.3497 12.5804 78.2706 12.6746 78.2237 12.7854C78.1929 12.859 78.177 12.9379 78.1769 13.0177V121.107C78.1769 121.497 77.8387 121.457 78.5771 121.527C121.476 125.575 128.114 126.327 129.265 126.319C129.449 126.319 129.635 126.282 129.636 125.783V16.2518C129.634 16.0502 129.577 15.837 129.376 15.8232ZM128.824 34.7665L116.346 33.6747V15.7281L129.093 16.6114L128.824 34.7665ZM103.498 32.5353V14.841L115.58 15.6752V33.6064L103.498 32.5353ZM90.9187 31.4204V13.973L102.73 14.7881V32.4678L90.9187 31.4204ZM90.152 13.9201V31.3522L79.1031 30.3692V13.1603L90.152 13.9201ZM128.778 125.451L78.9475 120.76V31.1137L128.778 35.5708V125.451Z" fill="#4B1010"/>
<path d="M56.0316 140.786C54.5939 142.314 54.3248 143.93 54.3248 146C54.3102 146.214 54.3409 146.429 54.4145 146.63C55.0433 148.157 57.8273 147.511 58.9966 147.438C62.7675 147.203 66.5407 148.067 70.3177 147.975C70.7579 147.946 71.1869 147.824 71.5759 147.616C71.6714 147.507 71.7378 147.376 71.7692 147.234C71.8006 147.093 71.7958 146.946 71.7553 146.807C71.5759 145.01 70.8536 144.66 69.0602 144.111C65.9089 143.143 62.95 142.315 60.3446 140.248L56.0316 140.786Z" fill="#FFE55D"/>
<path d="M19.0153 137.641C18.385 138.14 17.8671 138.765 17.4955 139.478C17.1238 140.19 16.9067 140.973 16.8584 141.775C16.9201 142.476 17.138 143.155 17.4962 143.762C17.8545 144.368 18.3439 144.886 18.9286 145.279C20.6538 146.511 23.1358 147.235 24.9484 145.908C26.2641 144.945 26.6467 143.195 28.0031 138.989C28.3528 138.209 28.6238 137.397 28.812 136.563C28.3856 137.076 27.7962 137.428 27.142 137.559C26.488 137.69 25.8079 137.592 25.2175 137.282C24.4454 137.027 23.7604 136.56 23.2408 135.934C22.9852 135.609 22.8178 135.223 22.755 134.813C22.6921 134.404 22.7358 133.986 22.882 133.598C21.7343 135.074 20.4386 136.429 19.0153 137.641Z" fill="#FFE55D"/>
<path d="M62.4122 101.522L56.4821 102.059C56.3027 116.167 56.0328 127.037 55.7637 141.143C56.213 142.222 59.178 141.862 60.2561 141.592C60.4436 141.521 60.6235 141.431 60.7928 141.323C60.8605 141.253 60.9117 141.168 60.9427 141.075C60.9737 140.982 60.9838 140.884 60.9722 140.786C62.2948 120.046 62.9941 113.35 62.4122 101.522Z" fill="white"/>
<path d="M44.0836 97.8378C37.2782 109.938 30.4196 122.008 23.5079 134.048C23.3277 135.215 26.1148 136.294 27.1882 136.563C27.2705 136.6 27.3595 136.62 27.4498 136.622C27.54 136.624 27.6297 136.608 27.7135 136.574C27.7972 136.54 27.8733 136.49 27.9374 136.427C28.0016 136.363 28.0524 136.288 28.0869 136.204C38.3966 119.954 44.0797 111.162 49.115 100.713L44.0836 97.8378Z" fill="white"/>
<path d="M56.7523 89.8413C53.0719 89.5714 50.1928 87.9544 47.2278 85.9777C47.0999 85.9125 46.98 85.8327 46.8704 85.74C44.8155 88.1476 43.0088 90.7566 41.4779 93.5271C41.1183 94.0638 42.1066 95.5046 42.4655 95.9531C43.7996 97.832 45.6372 99.2959 47.7668 100.176C51.1368 101.619 54.8027 102.235 58.4591 101.974C60.9748 101.793 63.5802 101.165 65.4672 99.4571C65.924 99.0792 66.2663 98.5813 66.4555 98.0195C66.5299 97.7266 66.5606 97.4237 66.546 97.1216C66.4758 94.0273 66.0772 90.9492 65.3568 87.939C62.7357 89.3992 59.7446 90.0604 56.7523 89.8413Z" fill="#FFE55D"/>
<path d="M61.424 47.7913C60.7055 46.803 60.165 45.7295 58.9083 45.455C52.9192 44.1477 48.7312 51.4357 52.6209 56.7761C54.2227 58.9774 55.2746 58.7574 55.6757 59.2918C55.8029 59.5372 55.8673 59.8093 55.8604 60.0854C55.316 60.0133 54.846 60.5638 55.3168 61.2692C55.4962 61.7317 55.4962 62.2445 55.3168 62.7069C55.2064 63.0903 54.8928 63.2076 54.5217 63.2812C56.3414 64.3082 57.9521 65.6676 59.2702 67.289C60.0466 65.7197 60.6767 64.0821 61.1525 62.3971C60.8487 61.927 60.693 61.3765 60.7055 60.8169C60.7193 60.6328 60.6887 60.4488 60.6158 60.2801C60.5391 60.1268 59.9763 60.2157 59.6858 60.3008L59.5815 59.7848C64.9157 57.9032 64.974 52.1488 61.424 47.7913Z" fill="white"/>
<path d="M62.0451 52.8396C61.684 52.6586 59.3162 51.3529 59.2917 51.1159V50.1291C59.2917 50.0275 59.2513 49.9299 59.1794 49.858C59.1075 49.7861 59.01 49.7458 58.9083 49.7458C58.8066 49.7458 58.7091 49.7861 58.6372 49.858C58.5653 49.9299 58.5249 50.0275 58.5249 50.1291V51.1175C58.5249 51.2616 58.4536 51.415 58.9582 51.8804C59.8323 52.4953 60.7505 53.045 61.7054 53.5251C61.7952 53.5623 61.8958 53.564 61.9869 53.5298C62.0779 53.4957 62.1525 53.4282 62.1957 53.3411C62.2389 53.254 62.2473 53.1537 62.2194 53.0606C62.1914 52.9675 62.1291 52.8885 62.0451 52.8396Z" fill="#4B1010"/>
<path d="M66.4444 48.5289C64.562 44.4651 59.7813 41.5208 56.1408 40.5048C54.6892 40.0839 53.159 40.0093 51.6733 40.2873C50.1877 40.5652 48.7879 41.1878 47.5867 42.1051C46.3854 43.0224 45.4161 44.2088 44.7567 45.5688C44.0973 46.9288 43.7662 48.4246 43.79 49.9359C43.6996 53.1217 44.5913 55.6696 43.7134 58.7489C42.932 61.868 40.9531 61.9079 38.8828 63.7741C38.1169 64.48 37.5342 65.3616 37.1849 66.3429C36.8356 67.3241 36.7302 68.3756 36.8778 69.4067C36.8896 69.4916 36.9295 69.5702 36.9912 69.6298C37.0529 69.6894 37.1327 69.7266 37.2181 69.7354C37.3034 69.7443 37.3892 69.7242 37.4618 69.6785C37.5344 69.6328 37.5896 69.5641 37.6185 69.4834C37.7565 69.1092 37.9612 68.7626 38.2211 68.4613C37.9477 69.2814 37.877 70.1556 38.0152 71.009C38.1534 71.8624 38.4964 72.6697 39.0147 73.3616C39.0644 73.4288 39.1348 73.4779 39.215 73.5015C39.2952 73.525 39.381 73.5217 39.4591 73.492C39.5373 73.4623 39.6036 73.4078 39.648 73.337C39.6923 73.2661 39.7123 73.1826 39.7048 73.0993C39.6688 72.6743 39.7781 72.2497 40.0149 71.8949C40.2517 71.5401 40.6019 71.2762 41.0083 71.1464C43.3445 70.1244 46.3027 70.8091 50.0712 68.0457C52.7242 66.033 53.1382 63.571 53.7217 60.346C53.8137 59.7916 53.8835 59.2358 53.9318 58.6737C55.0563 59.6081 56.458 60.1447 57.9189 60.2002C59.3799 60.2557 60.8182 59.8268 62.0103 58.9804C62.0548 59.0139 62.1065 59.0368 62.1612 59.0473C62.216 59.0578 62.2724 59.0557 62.3262 59.041C66.6967 58.0067 68.4955 53.0427 66.4444 48.5289ZM53.9801 57.8564C54.0468 56.4839 53.9878 55.1076 53.8053 53.7451C54.3742 53.7175 55.2959 50.9372 55.4208 50.3821C55.4546 50.2341 55.4975 49.9918 55.5343 49.6982C55.552 49.8707 55.5604 50.0432 55.5604 50.2173C55.5605 50.3026 55.589 50.3854 55.6415 50.4527C55.6939 50.5199 55.7673 50.5678 55.85 50.5886C55.9328 50.6095 56.0201 50.6021 56.0981 50.5678C56.1762 50.5334 56.2406 50.474 56.2811 50.399C56.8028 49.4693 57.0707 48.4187 57.0579 47.3527C57.8706 48.1777 58.29 49.1821 57.5394 50.057C57.4723 50.1319 57.4374 50.2301 57.442 50.3305C57.4467 50.4309 57.4906 50.5254 57.5643 50.5938C57.6379 50.6622 57.7355 50.6988 57.836 50.696C57.9364 50.6931 58.0318 50.6509 58.1014 50.5784C58.8605 49.8193 60.0183 48.6615 59.9546 47.2568C63.1903 49.8937 64.0291 53.3034 62.731 57.1671C60.9759 60.0362 57.008 60.5607 53.9801 57.8564Z" fill="#4B1010"/>
<path d="M56.501 51.4065C56.4823 51.3067 56.4249 51.2184 56.3412 51.1609C56.2576 51.1034 56.1545 51.0814 56.0547 51.0998C55.5096 51.1953 55.0011 51.4382 54.5842 51.8022C54.1674 52.1662 53.8581 52.6374 53.6901 53.1646C53.6657 53.2604 53.6793 53.362 53.728 53.448C53.7767 53.5341 53.8568 53.598 53.9515 53.6264C54.0462 53.6548 54.1482 53.6455 54.2362 53.6004C54.3242 53.5554 54.3915 53.4781 54.4238 53.3847C54.5504 52.992 54.7821 52.6414 55.0938 52.3711C55.4055 52.1007 55.7853 51.9209 56.192 51.8512C56.2919 51.8331 56.3805 51.7761 56.4384 51.6927C56.4963 51.6093 56.5188 51.5064 56.501 51.4065Z" fill="#4B1010"/>
<path d="M95.5679 53.2727C96.1957 52.6226 97.0216 52.1994 97.916 52.0693C98.8104 51.9393 99.7226 52.1099 100.51 52.5543C100.147 52.7338 99.8345 52.9999 99.5994 53.329C99.3643 53.6582 99.214 54.0402 99.1616 54.4412C99.4245 54.0992 99.7627 53.8224 100.15 53.6323C100.599 53.5426 101.138 53.8117 101.138 54.261C101.138 54.7104 100.779 54.8905 100.51 55.07C99.4885 55.8636 98.6593 56.877 98.0836 58.035L95.5679 53.2727Z" fill="white"/>
<path d="M61.5957 54.9059C61.5048 54.8604 61.3995 54.8528 61.303 54.8849C61.2065 54.9169 61.1267 54.986 61.0812 55.0769C61.0084 55.2722 60.8885 55.4465 60.7322 55.5842C60.5758 55.722 60.3879 55.819 60.185 55.8667C59.9821 55.9143 59.7706 55.9111 59.5693 55.8573C59.3679 55.8036 59.183 55.7009 59.0309 55.5584C58.9891 55.5288 58.9417 55.5078 58.8916 55.4968C58.8415 55.4857 58.7897 55.4849 58.7393 55.4942C58.6888 55.5036 58.6408 55.5229 58.598 55.5512C58.5552 55.5794 58.5185 55.616 58.4901 55.6587C58.4616 55.7014 58.4421 55.7493 58.4325 55.7997C58.4229 55.8501 58.4236 55.9019 58.4344 55.9521C58.4452 56.0022 58.466 56.0497 58.4955 56.0916C58.525 56.1336 58.5626 56.1692 58.6061 56.1964C58.8494 56.3993 59.137 56.5422 59.4457 56.6136C59.7543 56.685 60.0755 56.6828 60.3831 56.6072C60.6908 56.5316 60.9764 56.3847 61.2168 56.1784C61.4573 55.9722 61.6459 55.7122 61.7674 55.4197C61.8127 55.3287 61.82 55.2236 61.7878 55.1273C61.7556 55.031 61.6865 54.9514 61.5957 54.9059Z" fill="#4B1010"/>
<path d="M67.8035 70.1642C67.8035 72.7712 67.7138 75.1059 66.5461 77.4422C65.8269 78.8791 65.0709 80.2386 65.7027 81.6747C66.1825 82.4694 66.4992 83.3517 66.6343 84.2701C66.5682 84.8005 66.4164 85.3165 66.1849 85.7983C66.0055 86.335 66.0952 86.966 66.6343 87.1454C63.7413 89.1398 60.2558 90.0905 56.7509 89.8413C53.0705 89.5645 50.1913 87.9544 47.2263 85.9777C46.8438 85.7745 46.5309 85.4615 46.3277 85.0791C46.2372 84.882 46.2146 84.6604 46.2635 84.4491C46.3123 84.2378 46.4298 84.0487 46.5976 83.9113C46.777 83.8216 47.0469 83.7311 47.2263 83.6414C47.5859 83.2818 47.2263 82.6531 47.316 82.114C47.4962 81.3956 48.3044 81.3051 48.8441 80.8558C49.5341 80.1635 49.9217 79.2262 49.9222 78.2489C49.9893 76.3579 49.899 74.4647 49.6523 72.5887C49.1564 70.7382 48.8552 68.8409 48.7537 66.9278C48.7659 66.5912 48.8265 66.2584 48.9339 65.9395C49.4384 65.1827 54.2605 62.9997 54.8639 63.6032C56.481 64.7717 57.7392 66.2991 59.3563 67.4668L60.9733 63.2443C60.9847 63.1132 61.0285 62.9869 61.1008 62.8768C61.1731 62.7668 61.2717 62.6765 61.3876 62.614C61.5035 62.5516 61.6332 62.5189 61.7648 62.5191C61.8965 62.5192 62.0261 62.5521 62.1419 62.6148C73.2815 63.6331 84.415 60.6028 93.5019 54.0794C94.1276 53.6255 94.9396 53.091 95.658 53.4507C96.0153 53.6577 96.2982 53.972 96.4669 54.3485C97.545 56.0561 98.6598 58.1393 97.8141 59.9197C97.3534 60.7977 96.6722 61.5408 95.8374 62.0758C87.5519 67.8579 79.1062 70.7293 67.8035 70.1642Z" fill="#FFB43B"/>
<path d="M25.5445 139.575C25.0746 139.647 24.5945 139.614 24.1393 139.477C23.684 139.34 23.2651 139.103 22.913 138.784C22.4605 138.402 22.1138 137.91 21.9063 137.355C21.8624 137.269 21.7875 137.202 21.6965 137.168C21.6056 137.134 21.5052 137.136 21.4156 137.174C21.3565 137.198 21.3046 137.238 21.2645 137.288C20.5438 137.955 19.9181 138.719 19.4051 139.556C18.8193 141.215 20.7707 142.683 22.41 143.184C22.6688 143.291 22.9461 143.347 23.2262 143.347C23.5063 143.347 23.7837 143.291 24.0424 143.184C24.0669 143.174 24.0902 143.162 24.1122 143.147C25.405 142.286 25.1979 141.384 25.9355 140.15C25.973 140.087 25.9918 140.015 25.9897 139.942C25.9876 139.869 25.9646 139.798 25.9235 139.738C25.8824 139.677 25.8249 139.63 25.7578 139.601C25.6906 139.572 25.6166 139.563 25.5445 139.575Z" fill="#4B1010"/>
<path d="M49.2843 100.367C49.1926 100.323 49.0874 100.318 48.9915 100.351C48.8957 100.385 48.8171 100.455 48.7729 100.547C43.7461 110.979 37.8965 119.981 30.88 131.082C30.7466 131.102 30.6106 131.095 30.4798 131.062C29.0504 130.865 27.7468 130.139 26.8262 129.028C32.7303 118.717 38.5942 108.383 44.4177 98.0272C44.4553 97.9612 44.4722 97.8854 44.4663 97.8097C44.4604 97.734 44.432 97.6618 44.3848 97.6024C44.3539 97.5624 44.3153 97.5291 44.2713 97.5043C44.2273 97.4796 44.1788 97.4639 44.1287 97.4582C44.0534 97.4493 43.9772 97.4629 43.9096 97.4973C43.842 97.5317 43.7862 97.5853 43.7491 97.6515C38.0802 107.735 32.3722 117.796 26.6253 127.835C26.2972 127.805 25.9498 128.242 25.8724 128.371C24.9254 129.973 23.9555 131.62 23.1512 133.327C23.1125 133.288 23.0661 133.258 23.015 133.238C22.9638 133.219 22.9091 133.21 22.8545 133.213C22.7996 133.216 22.746 133.231 22.6975 133.257C22.6491 133.283 22.6068 133.319 22.5738 133.363C21.4663 134.834 20.1896 136.17 18.77 137.344C17.6207 138.285 16.8392 139.601 16.5625 141.06C16.4822 141.208 16.4011 141.355 16.3195 141.503C14.6993 146.364 20.6899 149.477 24.0467 147.343C24.5427 146.968 24.9912 146.534 25.3824 146.05C26.6468 144.977 27.021 143.275 28.3505 139.143C28.6199 138.539 28.8449 137.916 29.0237 137.28C30.3179 135.401 31.5007 133.449 32.5661 131.431C32.6959 131.24 32.7453 131.004 32.7036 130.777C32.6618 130.549 32.5324 130.346 32.343 130.213C39.2675 119.297 44.7344 110.686 49.4599 100.877C49.5037 100.786 49.5098 100.682 49.4769 100.586C49.444 100.491 49.3748 100.412 49.2843 100.367ZM26.7419 141.653C26.2979 143.006 25.8708 144.778 24.7192 145.601C23.109 146.809 20.7643 146.155 19.1472 144.964C18.6123 144.613 18.1634 144.146 17.834 143.597C17.5046 143.048 17.3033 142.433 17.2449 141.795C17.2919 141.045 17.4966 140.313 17.8458 139.647C18.195 138.981 18.6808 138.396 19.2714 137.93C22.7141 134.918 22.3016 134.521 22.4013 135.032C22.3106 135.307 22.297 135.601 22.3619 135.883C22.4268 136.165 22.5677 136.424 22.7693 136.631C23.2827 137.251 23.9238 137.753 24.6489 138.102C25.3739 138.45 26.1658 138.639 26.9704 138.653C27.2318 138.714 27.5056 138.695 27.7563 138.597C27.5746 139.028 27.7386 138.612 26.7419 141.653Z" fill="#4B1010"/>
<path d="M71.9595 147.751C72.428 147.071 72.5062 144.764 69.177 143.745C66.5478 142.94 64.0191 142.206 61.7779 140.791C61.7127 139.618 61.7751 138.442 61.9642 137.282C62.0301 136.817 62.047 135.961 61.6897 135.653C62.6274 121.065 63.3765 113.243 62.7961 101.503C62.7938 101.452 62.7816 101.403 62.76 101.358C62.7384 101.312 62.7079 101.271 62.6703 101.238C62.6334 101.203 62.5899 101.177 62.5425 101.16C62.495 101.143 62.4446 101.136 62.3943 101.139C62.3439 101.141 62.2944 101.153 62.2487 101.174C62.203 101.196 62.1619 101.226 62.128 101.263C62.0941 101.301 62.0679 101.344 62.0509 101.392C62.034 101.44 62.0267 101.49 62.0293 101.54C62.6021 113.188 61.8898 120.562 60.8831 136.233C60.055 136.974 57.5768 136.693 56.8415 136.473C56.6291 136.386 56.4287 136.272 56.245 136.134C56.4865 124.1 56.7096 114.295 56.8653 102.066C56.8666 101.964 56.8275 101.866 56.7565 101.793C56.6856 101.72 56.5886 101.679 56.4869 101.677C56.3852 101.676 56.2872 101.715 56.2144 101.786C56.1415 101.857 56.0999 101.954 56.0985 102.056C55.9452 114.17 55.7221 123.991 55.489 135.582C55.2958 135.753 55.1439 135.966 55.0443 136.204C54.9546 136.497 54.9546 136.81 55.0443 137.102C55.2183 138.502 55.2382 139.915 55.1048 141.319C54.2252 142.713 53.8177 144.353 53.9424 145.997C53.9302 146.236 53.9601 146.476 54.0314 146.704C54.0122 147.584 53.8489 148.851 54.4723 149.461C54.761 149.641 55.0736 149.78 55.4008 149.873C55.752 149.961 58.8512 150.697 59.5129 149.507C59.8464 148.906 61.0318 148.919 61.6544 149.054C62.9799 149.52 64.3383 149.887 65.7182 150.153C67.4326 150.229 69.1501 150.169 70.8554 149.974C71.101 149.985 71.3417 149.903 71.5288 149.743C71.7159 149.584 71.8353 149.359 71.8629 149.115C71.9296 148.663 71.9626 148.207 71.9595 147.751ZM55.4744 142.169C56.8032 143.569 61.2565 143.298 61.7579 141.681C62.2318 141.961 62.7141 142.212 63.2055 142.442C63.2017 142.462 63.1992 142.483 63.1979 142.504C63.1364 142.731 63.0176 142.939 62.8529 143.107C62.6881 143.275 62.483 143.397 62.2571 143.463C62.1789 143.476 62.1066 143.513 62.0503 143.568C61.9939 143.624 61.9563 143.696 61.9427 143.774C61.9289 143.852 61.9395 143.932 61.9729 144.003C62.0064 144.075 62.0612 144.135 62.1298 144.174C62.7725 144.52 63.4614 144.773 64.1755 144.924C65.4237 145.34 67.0791 145.293 67.6864 144.084C69.726 144.721 70.6522 144.899 71.077 145.679C71.6904 146.815 71.1981 147.171 71.192 147.329L54.8602 146.645C54.73 146.456 54.6753 146.225 54.7069 145.997C54.6177 144.675 54.8838 143.353 55.4775 142.169H55.4744Z" fill="#4B1010"/>
<path d="M62.4195 48.8939C61.9355 48.6381 61.3764 48.5625 60.8419 48.6804C60.3073 48.7984 59.8319 49.1023 59.5005 49.538C59.4395 49.6193 59.4133 49.7215 59.4277 49.8222C59.4421 49.9229 59.4958 50.0137 59.5772 50.0747C59.6585 50.1357 59.7608 50.1619 59.8614 50.1475C59.9621 50.1331 60.0529 50.0794 60.1139 49.998C60.3349 49.7116 60.6491 49.5115 61.0021 49.4322C61.3551 49.353 61.7246 49.3996 62.0469 49.564C62.1357 49.6134 62.2406 49.6255 62.3384 49.5976C62.4362 49.5697 62.5189 49.5041 62.5683 49.4153C62.6177 49.3264 62.6298 49.2216 62.6019 49.1238C62.574 49.026 62.5084 48.9433 62.4195 48.8939Z" fill="#4B1010"/>
<path d="M52.9785 72.41C63.6708 76.4538 76.7025 76.062 86.1335 69.984C86.6779 69.6336 87.2116 69.1759 87.1218 68.6368C85.3246 67.9176 84.5149 64.6835 85.4143 62.9759C83.078 62.167 80.6605 63.3463 78.4062 64.4136C71.3238 67.7719 63.4009 68.8163 53.1579 65.6718L52.9785 72.41Z" fill="#FFB43B"/>
<path d="M89.7273 67.5581C89.3394 67.3862 88.915 67.3128 88.4918 67.3442C88.0686 67.3756 87.6597 67.511 87.3014 67.7383C86.5821 68.0971 86.2233 68.0074 85.774 67.289C85.0548 66.3006 84.4951 64.7587 85.2373 63.6086C86.2854 61.9723 89.2803 61.6319 90.8974 62.4408C91.1696 62.5773 91.3897 62.7981 91.5269 63.0695C91.5609 63.2589 91.5253 63.4541 91.4266 63.6192C91.328 63.7844 91.173 63.9083 90.9902 63.9682C90.6061 64.0579 90.2065 64.0579 89.8224 63.9682C90.4512 63.9682 92.5183 64.6866 91.7094 65.5852C91.4099 65.7616 91.0686 65.8547 90.7211 65.8547C90.3735 65.8547 90.0322 65.7616 89.7327 65.5852C90.182 66.0346 91.0807 66.2147 91.0807 66.8435C91.0807 67.4722 90.2664 67.7383 89.7273 67.5581Z" fill="white"/>
<path d="M63.351 53.3004C63.5507 53.3004 63.7484 53.2611 63.9329 53.1847C64.1174 53.1083 64.285 52.9963 64.4262 52.8551C64.5673 52.7139 64.6793 52.5463 64.7558 52.3618C64.8322 52.1773 64.8715 51.9796 64.8715 51.7799C64.8715 51.5803 64.8322 51.3826 64.7558 51.1981C64.6793 51.0136 64.5673 50.846 64.4262 50.7048C64.285 50.5636 64.1174 50.4516 63.9329 50.3752C63.7484 50.2988 63.5507 50.2595 63.351 50.2595C62.9478 50.2595 62.561 50.4197 62.2759 50.7048C61.9908 50.99 61.8306 51.3767 61.8306 51.7799C61.8306 52.1832 61.9908 52.5699 62.2759 52.8551C62.561 53.1402 62.9478 53.3004 63.351 53.3004Z" fill="#FFE55D"/>
<path d="M56.0973 58.3701C56.5841 58.3701 57.051 58.1767 57.3953 57.8325C57.7395 57.4882 57.9329 57.0214 57.9329 56.5345C57.9329 56.0477 57.7395 55.5808 57.3953 55.2366C57.051 54.8923 56.5841 54.6989 56.0973 54.6989C55.6105 54.6989 55.1436 54.8923 54.7994 55.2366C54.4551 55.5808 54.2617 56.0477 54.2617 56.5345C54.2617 57.0214 54.4551 57.4882 54.7994 57.8325C55.1436 58.1767 55.6105 58.3701 56.0973 58.3701Z" fill="#FFE55D"/>
<path d="M57.7222 51.4004C57.2372 51.9752 56.5679 52.364 55.8283 52.5007C55.2717 52.388 55.0938 53.1846 55.461 53.8203C55.7371 54.2979 56.0913 54.4597 56.4524 54.2903C56.631 54.1547 56.7496 53.9549 56.7831 53.7332C56.8166 53.5116 56.7623 53.2856 56.6319 53.1033C56.5789 53.031 56.5207 52.9626 56.4578 52.8986C57.0812 52.6511 57.6424 52.2694 58.1017 51.7807C58.1522 51.7304 58.1805 51.6621 58.1806 51.5908C58.1807 51.5196 58.1524 51.4512 58.1021 51.4008C58.0518 51.3503 57.9835 51.322 57.9122 51.3219C57.841 51.3218 57.7726 51.3501 57.7222 51.4004Z" fill="#4B1010"/>
<path d="M62.5899 48.9084C62.1046 49.4831 61.435 49.8717 60.6953 50.0079C60.1394 49.8952 59.9615 50.6927 60.3287 51.3275C60.6048 51.8052 60.959 51.967 61.3194 51.7975C61.498 51.6621 61.6168 51.4623 61.6504 51.2407C61.6841 51.019 61.63 50.793 61.4996 50.6106C61.4464 50.5384 61.3882 50.47 61.3255 50.4059C61.949 50.1575 62.5102 49.7751 62.9694 49.2857C63.0132 49.2342 63.036 49.1681 63.0332 49.1006C63.0304 49.033 63.0022 48.969 62.9543 48.9214C62.9063 48.8737 62.8422 48.8459 62.7746 48.8435C62.7071 48.8411 62.6411 48.8643 62.5899 48.9084Z" fill="#4B1010"/>
<path d="M100.19 53.2382C100.336 53.101 100.501 52.986 100.68 52.8963C100.742 52.8647 100.795 52.817 100.832 52.7582C100.869 52.6994 100.89 52.6316 100.892 52.562C100.893 52.4922 100.876 52.4234 100.841 52.3629C100.806 52.3024 100.756 52.2525 100.695 52.2185C99.8422 51.7426 98.8576 51.5576 97.8904 51.6915C96.9231 51.8254 96.0258 52.271 95.3345 52.9607C94.5732 52.9767 93.8425 53.2641 93.2743 53.7711C83.5902 60.8321 70.7963 63.5802 61.5255 62.2583C60.7012 61.2615 61.55 59.5923 60.2136 59.8093L60.2059 59.764C60.1987 59.7133 60.1813 59.6644 60.1549 59.6205C60.1285 59.5765 60.0935 59.5383 60.052 59.5081C60.0105 59.4779 59.9634 59.4563 59.9135 59.4447C59.8635 59.433 59.8117 59.4315 59.7612 59.4402C59.7106 59.449 59.6623 59.4678 59.6192 59.4955C59.576 59.5232 59.5388 59.5593 59.5099 59.6017C59.4809 59.644 59.4608 59.6917 59.4506 59.742C59.4404 59.7923 59.4405 59.8441 59.4507 59.8944C59.6677 61.1557 59.6684 61.0008 59.581 61.0299C58.5056 61.2342 57.4005 61.2235 56.3292 60.9985V59.5601C56.3263 59.4583 56.2841 59.3616 56.2115 59.2901C56.1389 59.2187 56.0416 59.1781 55.9397 59.1767C55.838 59.1767 55.7405 59.2171 55.6686 59.289C55.5967 59.3609 55.5564 59.4584 55.5564 59.5601V59.7134C55.3765 59.7523 55.2097 59.8371 55.0723 59.9596C54.935 60.082 54.8316 60.238 54.7724 60.4122C54.7132 60.5865 54.7001 60.7731 54.7344 60.9539C54.7688 61.1347 54.8493 61.3036 54.9683 61.444C55.1009 61.8289 55.0894 62.2491 54.9353 62.6255C54.8264 62.9361 54.2513 62.8931 53.674 63.058C53.4716 63.1186 53.2492 63.1807 53.013 63.2459C51.0916 63.7826 48.1879 64.5838 48.3696 67.0405C48.4632 68.7273 49.4063 70.4387 49.6302 71.9185C49.9215 73.9474 49.9522 76.0053 49.7183 78.0418C49.5581 80.1212 48.7093 80.605 48.4149 80.7254C48.146 80.7913 47.8937 80.9125 47.6742 81.0812C47.4547 81.2499 47.2727 81.4625 47.1397 81.7053C47.05 82.0212 47.0577 82.3578 47.1628 82.6691C47.3161 83.34 47.2356 83.3592 46.8438 83.5532C45.8378 84.0439 45.7772 84.8981 46.3477 85.7676C44.3774 88.1101 42.639 90.6381 41.1568 93.3162C40.5963 94.1596 41.8983 95.861 42.1536 96.1777C43.5264 98.1169 45.4213 99.6266 47.6182 100.531C53.0966 102.838 58.8994 102.819 62.4533 101.613C62.5399 101.647 62.6357 101.648 62.7229 101.616C62.8102 101.584 62.883 101.522 62.9279 101.441C64.4414 100.85 66.3054 99.6833 66.8191 98.1437C66.9081 97.8078 66.9456 97.4605 66.9288 97.1132C66.8593 94.1685 66.4979 91.2379 65.85 88.3645C66.2987 88.0849 66.7308 87.7795 67.1442 87.4498C67.1984 87.4069 67.2399 87.3501 67.2643 87.2855C67.2888 87.221 67.2953 87.1509 67.2832 87.0829C67.2711 87.0149 67.2408 86.9515 67.1956 86.8993C67.1503 86.8471 67.0918 86.8082 67.0261 86.7866C66.6972 86.6769 66.5899 86.1333 66.6389 85.7438C66.8721 85.1295 66.9967 84.4793 67.007 83.8223C66.8594 83.0631 66.6141 82.3263 66.277 81.6302C65.5609 79.6251 66.9449 77.5856 67.8489 75.4318C74.3657 75.4387 80.7609 73.667 86.3452 70.3076C86.7331 70.0492 87.6433 69.4427 87.4953 68.5778C87.4855 68.5192 87.4622 68.4636 87.4272 68.4156C87.3922 68.3675 87.3465 68.3283 87.2936 68.301C87.5865 68.1622 87.6226 67.9683 88.226 67.657C88.5611 67.5458 88.8739 67.6777 89.6015 67.9268C89.8376 68.0081 90.0891 68.0346 90.3369 68.0045C90.5848 67.9743 90.8226 67.8883 91.0323 67.7528C91.1471 67.672 91.2436 67.5679 91.3154 67.4472C91.3872 67.3266 91.4328 67.1922 91.4491 67.0528C91.4655 66.9133 91.4523 66.772 91.4103 66.638C91.3683 66.5041 91.2986 66.3805 91.2056 66.2753C91.4867 66.2178 91.7523 66.101 91.9846 65.9325C92.1178 65.8043 92.2093 65.639 92.2473 65.4581C92.2853 65.2772 92.2681 65.0891 92.1978 64.9181C93.5235 64.1437 94.8009 63.2696 96.0453 62.4009C96.9377 61.8233 97.6657 61.0249 98.1585 60.083C98.4345 59.4757 98.5365 58.8033 98.4544 58.1416C99.0149 57.0431 99.8161 56.0854 100.798 55.3399C101.004 55.2421 101.179 55.0908 101.305 54.9019C101.432 54.713 101.505 54.4935 101.517 54.2665C101.497 54.0295 101.403 53.8047 101.249 53.6236C101.095 53.4425 100.888 53.3142 100.657 53.2566C100.504 53.2183 100.345 53.212 100.19 53.2382ZM61.3729 63.0105C61.6589 63.0526 64.3165 63.1339 64.6784 63.1492C64.9283 63.2198 65.1614 63.3409 65.3638 63.5042C66.0738 64.2787 66.1735 65.8658 66.4043 67.1133C64.2385 67.2242 62.067 67.1238 59.9207 66.8135C60.4928 65.5812 60.978 64.3104 61.3729 63.0105ZM55.8132 61.6917C55.9183 61.7231 56.0279 61.7377 56.1368 61.7346C57.3068 61.9684 59.4261 62.1862 60.3815 61.4831C60.4398 61.8281 60.5594 62.1609 60.735 62.4645C60.3242 63.8789 59.8038 65.2592 59.1785 66.5927C58.0734 65.3271 56.7896 64.2293 55.3677 63.334C55.5534 63.107 55.689 62.8434 55.7658 62.5604C55.8426 62.2774 55.8587 61.9813 55.8132 61.6917ZM46.8499 86.3603C47.1528 86.6386 47.4879 86.8801 47.8467 87.0802C47.5937 87.3869 47.3437 87.6975 47.0968 88.0111C46.7901 87.7297 46.5049 87.4268 46.2434 87.1032C46.442 86.8563 46.6452 86.6064 46.8499 86.3603ZM52.9839 91.6416C52.5315 92.9451 52.1244 94.1596 51.7571 95.3098C51.0403 95.1122 50.3348 94.8755 49.644 94.6005C50.1903 93.4532 50.7694 92.3218 51.3806 91.2076C51.8905 91.3694 52.425 91.5136 52.9839 91.6416ZM51.7617 90.5237C52.4326 89.3383 52.4411 89.3981 52.4595 89.2632C52.8651 89.4004 53.2737 89.5262 53.6863 89.6396L53.2346 90.914C52.739 90.8023 52.2476 90.6721 51.7617 90.5237ZM46.0755 93.547C45.6588 94.2198 45.2582 94.9024 44.874 95.5942C44.4575 95.1942 44.0746 94.7605 43.7293 94.2976C44.0877 93.6878 44.4589 93.0855 44.8426 92.4912C45.2236 92.8769 45.6354 93.2303 46.0755 93.547ZM45.2696 91.8402C45.889 90.9105 46.5377 90.0006 47.2149 89.1121C47.6321 89.4328 48.0712 89.7239 48.5291 89.9832C47.8065 90.9287 47.123 91.9036 46.4803 92.9052C46.0439 92.5895 45.6385 92.2329 45.2696 91.8402ZM46.7111 93.9764C47.3209 94.3581 47.9562 94.6973 48.6127 94.9916C48.2297 95.8202 47.8634 96.6563 47.5139 97.4996C46.7841 97.1109 46.0961 96.6484 45.4606 96.1194C45.8578 95.3938 46.2748 94.6792 46.7111 93.9764ZM47.116 93.3354C47.7736 92.3095 48.4743 91.3118 49.2161 90.3451C49.6815 90.5728 50.1584 90.776 50.6446 90.9539C50.0444 92.052 49.4752 93.1667 48.9378 94.2969C48.3092 94.0186 47.7005 93.6973 47.116 93.3354ZM51.0203 90.2776C50.5717 90.1167 50.1314 89.934 49.7007 89.7301C50.0181 89.3345 50.3409 88.948 50.6691 88.5708C51.0272 88.7242 51.3883 88.8706 51.7533 89.0109C51.5036 89.43 51.2592 89.8523 51.0203 90.2776ZM49.0053 89.3721C48.5438 89.1167 48.1022 88.8271 47.6841 88.5056C47.9556 88.1598 48.2316 87.8179 48.5115 87.4797C48.9791 87.7501 49.4569 88.0025 49.9437 88.2365C49.6263 88.6061 49.3135 88.9848 49.0053 89.3721ZM45.7565 87.7205C46.0249 88.0394 46.3147 88.34 46.6245 88.6191C45.9763 89.4693 45.3537 90.3387 44.7575 91.2261C44.485 90.8575 44.2536 90.4602 44.0674 90.0414C44.6076 89.2514 45.1709 88.4774 45.7565 87.7205ZM43.5759 90.7767C43.786 91.1724 44.0329 91.5473 44.3135 91.8962C43.9497 92.4567 43.5959 93.0237 43.2523 93.5968C43.0026 93.193 42.7855 92.77 42.6029 92.3317C42.9165 91.8103 43.2408 91.292 43.5774 90.7767H43.5759ZM42.3598 95.1472C41.9397 94.4924 41.7035 93.8721 41.8116 93.708C41.9151 93.5194 42.0209 93.33 42.1283 93.1422C42.3307 93.5554 42.5615 93.9541 42.8184 94.336C42.6642 94.6066 42.5109 94.8765 42.3614 95.1487L42.3598 95.1472ZM44.016 97.2021C43.595 96.774 43.2057 96.3159 42.8513 95.8312C42.8751 95.8012 43.2945 95.0475 43.3114 95.0138C43.6717 95.4677 44.0666 95.894 44.4922 96.2881C44.3318 96.5934 44.1736 96.8999 44.0175 97.2075L44.016 97.2021ZM46.8008 99.2892C46.0098 98.8644 45.2704 98.3498 44.5972 97.7557C44.7582 97.4367 44.9215 97.1208 45.0879 96.8072C45.751 97.3454 46.4655 97.8169 47.221 98.215C47.0792 98.573 46.9396 98.9311 46.8024 99.2907L46.8008 99.2892ZM50.1745 100.643C49.2603 100.361 48.3641 100.024 47.4909 99.6334C47.6274 99.2723 47.7677 98.9119 47.9119 98.5523C48.7467 98.9298 49.6125 99.2345 50.4996 99.4632C50.3885 99.8612 50.2819 100.255 50.1784 100.645L50.1745 100.643ZM48.1979 97.8408C48.5506 96.9859 48.9232 96.1371 49.3135 95.2937C50.0342 95.5827 50.7703 95.8319 51.5179 96.0397C51.2362 96.9308 50.9658 97.8254 50.7067 98.7233C49.8474 98.5038 49.0092 98.209 48.2017 97.8423L48.1979 97.8408ZM53.8588 101.452C52.8642 101.319 51.8796 101.119 50.9114 100.856C51.0164 100.46 51.1261 100.06 51.2396 99.6549C52.1382 99.8711 53.0491 100.034 53.9676 100.142C53.9293 100.581 53.894 101.018 53.8626 101.454L53.8588 101.452ZM54.0459 99.382C53.1722 99.2793 52.3053 99.1257 51.4496 98.9219C51.6981 98.0601 51.9664 97.1699 52.2601 96.2383C52.9655 96.41 53.684 96.5504 54.4147 96.6592C54.2724 97.5634 54.1508 98.4707 54.0497 99.3804L54.0459 99.382ZM52.494 95.5045C52.8938 94.2658 53.3078 93.0318 53.7361 91.8026C54.2475 91.9023 54.7789 91.989 55.3294 92.0618C55.0287 93.3339 54.7659 94.6147 54.5412 95.9025C53.854 95.8024 53.1721 95.6691 52.4978 95.503L52.494 95.5045ZM53.9914 91.0719C54.0045 91.0336 54.42 89.8643 54.4269 89.8306C54.887 89.9402 55.3486 90.0353 55.8117 90.1143C55.7077 90.5127 55.6068 90.912 55.5088 91.3119C55.0023 91.2458 54.4976 91.1663 53.9953 91.0735L53.9914 91.0719ZM56.8338 101.653C56.0938 101.653 55.3562 101.618 54.6209 101.546C54.6516 101.106 54.6884 100.667 54.7306 100.225C55.4866 100.29 56.2464 100.316 56.9587 100.307L56.8338 101.653ZM57.03 99.5391C56.288 99.5503 55.5459 99.5247 54.8065 99.4625C54.906 98.5596 55.0282 97.6594 55.173 96.7627C55.8646 96.844 56.5639 96.8962 57.2716 96.9199L57.03 99.5391ZM55.3018 96.0052C55.5285 94.7131 55.7934 93.428 56.0961 92.1515C56.6014 92.1998 57.142 92.2405 57.7063 92.2635L57.3444 96.1547C56.6612 96.1279 55.9788 96.078 55.3056 96.0006L55.3018 96.0052ZM56.2779 91.3986C56.3722 91.0152 56.4711 90.6272 56.5731 90.2354C57.119 90.3121 57.5131 90.3466 57.8834 90.3673L57.7776 91.4982C57.2782 91.475 56.7795 91.4403 56.2817 91.394L56.2779 91.3986ZM59.3449 101.506C58.7706 101.574 58.1825 101.616 57.6043 101.638L57.7301 100.284C58.3083 100.258 58.8853 100.21 59.4599 100.14C59.4292 100.594 59.3916 101.048 59.3495 101.501L59.3449 101.506ZM59.5151 99.359C58.9477 99.4326 58.3765 99.4839 57.8022 99.5123L58.0414 96.9322C58.5528 96.9322 59.0098 96.9261 59.6385 96.8916C59.6126 97.7131 59.5729 98.5341 59.5197 99.3544L59.5151 99.359ZM59.6615 96.1217C59.1432 96.1516 58.6264 96.1662 58.1127 96.1654L58.4746 92.2788C58.8472 92.2788 59.1723 92.2788 59.6677 92.2527C59.6968 93.5439 59.696 94.8328 59.6661 96.1194L59.6615 96.1217ZM58.5459 91.5128L58.6502 90.3888C58.9669 90.3888 59.2444 90.3826 59.604 90.3589C59.6209 90.7346 59.6347 91.1103 59.647 91.486C59.2817 91.5033 58.9161 91.5115 58.5505 91.5105L58.5459 91.5128ZM62.2117 100.881C61.5316 101.109 60.8339 101.28 60.1254 101.393C60.167 100.939 60.2043 100.485 60.2374 100.03C60.9117 99.9385 61.5753 99.7808 62.2186 99.5591C62.2263 99.9954 62.2232 100.436 62.2163 100.879L62.2117 100.881ZM60.4336 92.196C60.84 92.1568 61.2446 92.1015 61.6466 92.0304C61.8368 93.2855 61.9802 94.5675 62.076 95.8749C61.8031 95.9163 61.0478 96.0113 60.4298 96.0658C60.462 94.7784 60.4651 93.4872 60.4382 92.1937L60.4336 92.196ZM60.4129 91.4292C60.4007 91.0497 60.3861 90.6694 60.3685 90.2898C60.6875 90.2511 61.0049 90.2 61.32 90.1365C61.3928 90.5122 61.4611 90.8902 61.5255 91.2713C61.159 91.3365 60.7848 91.3871 60.4175 91.4246L60.4129 91.4292ZM60.4076 96.8402C61.0562 96.785 61.846 96.6868 62.1266 96.6447C62.1673 97.3416 62.1941 98.0447 62.2087 98.7525C61.5891 98.9848 60.9466 99.1504 60.2918 99.247C60.345 98.4439 60.3851 97.64 60.4122 96.8356L60.4076 96.8402ZM62.0684 89.9724C62.4832 89.8673 62.8926 89.7419 63.2952 89.5967C63.3833 89.9701 63.4661 90.3466 63.5436 90.7269C63.1288 90.8818 62.7048 91.0121 62.2738 91.1156C62.2144 90.7318 62.1474 90.3491 62.073 89.9678L62.0684 89.9724ZM62.8351 95.7338C62.7392 94.4428 62.5939 93.1561 62.3996 91.8763C62.8381 91.7727 63.2704 91.6447 63.6946 91.4929C63.9247 92.7511 64.0995 94.0354 64.2129 95.3266C63.7644 95.4907 63.3051 95.6249 62.8389 95.7292L62.8351 95.7338ZM64.0105 89.3184C64.3993 89.1529 64.78 88.9692 65.1514 88.7679C65.2281 89.1129 65.3002 89.4579 65.3684 89.8083C65.0157 90.0384 64.6477 90.2439 64.2666 90.4217C64.2513 90.3244 64.0573 89.3997 64.0144 89.3138L64.0105 89.3184ZM62.8872 96.5074C63.3577 96.4062 63.8215 96.2759 64.2758 96.1171C64.3119 96.6439 64.3372 97.1707 64.3525 97.6974C63.9091 97.9791 63.4461 98.2287 62.967 98.4442C62.9555 97.7966 62.9302 97.1493 62.8911 96.5028L62.8872 96.5074ZM64.364 99.8336C63.9277 100.126 63.4661 100.378 62.9839 100.587C62.9892 100.148 62.9892 99.7104 62.9839 99.2723C63.4615 99.073 63.9254 98.8422 64.3724 98.5822C64.3793 98.9978 64.3778 99.4135 64.3678 99.829L64.364 99.8336ZM65.1399 99.2332C65.1399 98.8575 65.1369 98.481 65.1315 98.1038C65.4868 97.8605 65.8289 97.5987 66.1567 97.3194C66.1506 97.695 66.0557 98.0638 65.8796 98.3957C65.7035 98.7275 65.4514 99.013 65.1438 99.2286L65.1399 99.2332ZM66.1298 96.3142C65.804 96.6224 65.4605 96.9115 65.1024 97.1806C65.0834 96.7292 65.0579 96.278 65.0257 95.8273C65.3847 95.6734 65.7356 95.5012 66.0769 95.3113C66.1007 95.6402 66.1183 95.9745 66.1337 96.3096L66.1298 96.3142ZM66.0064 94.4042C65.9794 94.4356 65.9562 94.4701 65.9374 94.507C65.6192 94.6948 65.291 94.8658 64.9552 95.0192C64.8359 93.7374 64.6568 92.4619 64.4184 91.1969C64.7964 91.0282 65.163 90.8358 65.5164 90.6203C65.7357 91.8533 65.8998 93.113 66.0102 94.3996L66.0064 94.4042ZM85.9296 69.6582C76.8053 75.339 64.2306 76.256 53.1127 72.052C53.0654 72.0329 53.0147 72.0234 52.9637 72.0242C52.9127 72.0249 52.8623 72.0359 52.8155 72.0563C52.7688 72.0768 52.7266 72.1064 52.6914 72.1434C52.6563 72.1804 52.6289 72.224 52.6108 72.2718C52.5927 72.3195 52.5844 72.3704 52.5862 72.4214C52.588 72.4724 52.6001 72.5225 52.6215 72.5688C52.643 72.6151 52.6735 72.6566 52.7112 72.691C52.749 72.7253 52.7932 72.7518 52.8413 72.7689C57.3728 74.4807 62.1701 75.3821 67.0139 75.4318C66.0761 77.5634 64.7566 79.655 65.5831 81.9492C65.8921 82.5879 66.1168 83.2641 66.251 83.9603C66.2058 84.5106 66.0864 85.0523 65.896 85.5705C65.8466 85.8468 65.8536 86.1303 65.9166 86.4038C65.9796 86.6774 66.0972 86.9354 66.2625 87.1623C63.6974 89.066 60.504 89.9221 57.3306 89.5568C53.9637 89.1703 50.7295 88.0203 47.8743 86.1946C47.3273 85.8848 46.9257 85.3705 46.7579 84.7647C46.7242 84.2371 47.4833 84.2732 47.7961 83.7978C48.2853 83.1844 47.7462 82.2589 47.8528 81.9936C47.9594 81.7283 48.3343 81.5888 48.6962 81.4423C49.923 80.9447 50.3831 79.4312 50.4835 78.1093C50.7077 76.0139 50.6761 73.899 50.3892 71.8112C50.1546 70.2516 49.223 68.5541 49.1364 66.9976C48.983 64.9396 52.0347 64.3576 53.8902 63.801C54.075 63.7542 54.2621 63.7166 54.4507 63.6898C55.7812 64.452 56.995 65.4021 58.0544 66.5107C56.4391 66.1959 54.8421 65.7933 53.2707 65.3046C53.2223 65.289 53.1713 65.2831 53.1207 65.2874C53.07 65.2917 53.0208 65.306 52.9757 65.3295C52.9306 65.353 52.8907 65.3852 52.8582 65.4243C52.8257 65.4634 52.8013 65.5085 52.7864 65.5571C52.7715 65.6057 52.7665 65.6567 52.7715 65.7073C52.7765 65.7579 52.7915 65.8069 52.8157 65.8517C52.8398 65.8964 52.8726 65.9358 52.9122 65.9677C52.9517 65.9997 52.9972 66.0234 53.046 66.0376C62.4402 68.9221 70.5501 68.5165 78.5841 64.7533C80.6728 63.7504 82.8281 62.7153 84.8922 63.2198C84.2427 65.0784 85.0125 67.9591 86.7262 68.873C86.544 69.2076 86.2668 69.4808 85.9296 69.6582ZM91.4548 65.3705C91.2177 65.4994 90.9512 65.5642 90.6815 65.5585C90.4117 65.5529 90.1481 65.477 89.9167 65.3383C89.836 65.2924 89.7415 65.2772 89.6505 65.2957C89.5596 65.3142 89.4784 65.365 89.4221 65.4388C88.926 66.0874 90.6903 66.4838 90.6903 66.9293C90.6903 67.236 90.1459 67.2966 89.8469 67.1946C89.2619 66.8815 88.5827 66.7929 87.9369 66.9454C87.5881 67.1072 87.2699 67.3288 86.9969 67.5987C86.824 67.6751 86.6281 67.6809 86.451 67.6148C86.4112 67.5563 86.3564 67.5096 86.2923 67.4798C85.9082 66.9235 85.6453 66.2928 85.5205 65.6284C85.3956 64.964 85.4117 64.2808 85.5677 63.6231C85.8866 63.5694 88.7075 61.8596 90.7724 62.8901C90.9012 62.933 91.0308 63.1109 91.1557 63.2988C91.1536 63.3817 91.1272 63.4623 91.0798 63.5304C91.0323 63.5985 90.966 63.6513 90.8889 63.6821C90.6958 63.7273 90.4974 63.7454 90.2993 63.7358C90.1401 63.6977 89.9775 63.6759 89.8139 63.6706C89.7204 63.6707 89.6302 63.705 89.5602 63.767C89.4902 63.829 89.4452 63.9144 89.4338 64.0073C89.4224 64.1001 89.4454 64.1938 89.4983 64.2709C89.5512 64.348 89.6305 64.4031 89.7212 64.4259C89.8814 64.465 90.0447 64.4895 90.2096 64.4987C90.6382 64.6061 91.7155 65.0209 91.4548 65.3705ZM95.6106 61.7668C94.3362 62.657 93.0366 63.5426 91.6894 64.3239C91.6285 64.2802 91.5658 64.239 91.5015 64.2004C91.6847 64.0541 91.8164 63.8533 91.8776 63.627C91.9388 63.4008 91.9263 63.1609 91.842 62.9422C91.6734 62.611 91.4008 62.3444 91.066 62.1831C89.3654 61.3328 87.2622 62.0298 85.7072 62.7283C85.6626 62.6754 85.6046 62.6355 85.5393 62.6125C80.8874 61.0023 77.651 66.2316 67.1757 67.0597C66.9265 65.7754 66.8552 64.2304 66.0861 63.186C76.0056 63.309 85.6993 60.2237 93.7228 54.3899C94.8338 53.5963 95.5247 53.3318 96.1411 54.5517C98.0542 57.5834 98.5472 59.7173 95.6106 61.7676V61.7668ZM100.387 54.6897C99.5372 55.3311 98.8034 56.1126 98.2167 57.0007C97.8679 56.0041 97.3946 55.0556 96.8082 54.1775C96.6425 53.8318 96.4028 53.5268 96.1059 53.2842C96.5997 52.8691 97.1931 52.5897 97.8276 52.4735C98.4622 52.3574 99.1161 52.4085 99.7249 52.6218C99.2003 53.0755 98.8633 53.7083 98.7795 54.3968C98.7692 54.4811 98.7871 54.5664 98.8304 54.6394C98.8737 54.7123 98.9401 54.7689 99.019 54.8001C99.098 54.8313 99.185 54.8355 99.2666 54.8119C99.3481 54.7883 99.4195 54.7383 99.4696 54.6698C99.6844 54.39 99.9586 54.1614 100.272 54.0004C100.466 53.9797 100.756 54.0855 100.756 54.2596C100.756 54.4336 100.646 54.5202 100.387 54.6905V54.6897Z" fill="#4B1010"/>
</svg>
