<svg width="154" height="154" viewBox="0 0 154 154" fill="none" xmlns="http://www.w3.org/2000/svg">
<path d="M42.8004 125.254L37.1909 125.168C36.8634 123.967 36.6218 122.745 36.4679 121.51C36.1584 121.809 35.8224 122.08 35.4642 122.319C34.8606 122.717 34.1802 122.984 33.4671 123.103C32.7539 123.222 32.0238 123.19 31.3237 123.01C31.3237 123.959 31.4104 124.993 31.4104 125.942C31.4104 126.719 31.2371 127.928 31.6688 128.618C32.4455 129.913 34.2581 129.308 35.3798 129.136C38.085 128.67 40.7643 128.065 43.4069 127.323C43.8089 127.24 44.1727 127.028 44.4428 126.719C45.2142 125.686 43.4016 125.254 42.8004 125.254Z" fill="white"/>
<path d="M30.3685 18.8367C32.8619 14.9577 36.264 14.1097 39.2582 15.4707C41.9349 16.6867 43.9353 19.5651 43.6601 23.9287C43.7259 25.4434 43.431 26.9521 42.7998 28.3306C42.2594 29.3046 41.4539 30.1054 40.4767 30.6401C39.4996 31.1749 38.3909 31.4215 37.2792 31.3516C37.1954 31.447 37.1492 31.5696 37.1492 31.6966C37.1492 31.8236 37.1954 31.9462 37.2792 32.0416C38.1425 32.6451 40.4949 35.7726 39.5235 36.7878C39.3389 36.9609 39.122 37.0957 38.8851 37.1846C38.6482 37.2734 38.3961 37.3144 38.1433 37.3054C35.9425 37.5228 33.7256 37.1033 31.7563 36.097C30.4582 35.4123 30.1891 32.6167 29.9299 31.4083C30.7634 31.0249 32.0254 31.3186 32.9325 31.3447C35.0027 29.7905 32.3605 28.5023 31.1521 27.984C27.8183 26.3217 28.1365 21.8124 30.3685 18.8367Z" fill="white"/>
<path d="M41.9334 63.716C42.02 63.2851 42.2792 59.1424 42.6235 59.1424C39.9314 59.459 38.0767 58.5435 37.1865 58.3649C32.872 57.8282 29.2399 58.4124 20.8739 51.7195C20.8409 51.8015 15.4936 66.0186 14.5735 72.0023C13.8834 76.7492 14.2277 81.5821 13.9693 86.329C13.5049 94.859 10.3984 103.033 5.08038 109.719C4.82984 110.001 4.62565 110.322 4.47542 110.668C4.04451 111.963 5.42542 113.085 6.71969 113.428C8.01396 113.772 9.39565 113.601 10.5174 114.292C11.8975 115.154 12.4159 116.794 13.2777 118.262C14.7453 120.851 18.0246 122.75 20.7865 121.628C22.5124 120.938 23.98 119.211 25.7926 119.47C27.346 119.729 28.2952 121.283 29.5903 122.23C30.4455 122.866 31.4755 123.224 32.5408 123.255C33.606 123.286 34.655 122.988 35.5456 122.403C37.2716 121.281 38.48 118.953 40.551 118.692H41.1552L43.8311 76.142C42.7109 72.2615 41.4197 67.7729 41.9334 63.716Z" fill="#FFE55D"/>
<path d="M41.2434 47.7524C41.1681 43.9924 40.7017 40.2504 39.8517 36.587C39.9406 36.4422 40.0097 36.2862 40.0572 36.1231C40.0732 36.0744 40.0793 36.0229 40.075 35.9718C40.0708 35.9207 40.0563 35.871 40.0324 35.8256C40.0085 35.7803 39.9757 35.7402 39.9359 35.7078C39.8962 35.6754 39.8503 35.6513 39.8011 35.637C39.7519 35.6224 39.7003 35.6179 39.6494 35.6237C39.5984 35.6295 39.5491 35.6454 39.5044 35.6706C39.4598 35.6958 39.4206 35.7296 39.3892 35.7702C39.3579 35.8108 39.335 35.8573 39.3219 35.9068C38.8894 37.3813 35.9758 37.0186 35.114 36.8461C33.965 36.5926 32.8654 36.1523 31.8591 35.5426C31.814 35.5175 31.7643 35.5018 31.713 35.4963C31.6617 35.4908 31.6098 35.4958 31.5604 35.5108C31.511 35.5259 31.4652 35.5507 31.4256 35.5838C31.386 35.617 31.3536 35.6578 31.3301 35.7037C31.3067 35.7497 31.2927 35.8 31.2891 35.8515C31.2855 35.9029 31.2923 35.9546 31.3091 36.0034C31.3259 36.0522 31.3524 36.0971 31.387 36.1355C31.4215 36.1738 31.4635 36.2048 31.5103 36.2266C31.4489 42.1919 28.4655 45.7419 25.8662 55.2251C30.9107 58.2016 33.8404 57.944 37.1873 58.3611C37.6419 58.4531 38.7208 58.8786 39.9476 59.078C42.3314 57.589 42.7309 53.5896 42.9072 48.5321L41.2434 47.7524Z" fill="#4B1010"/>
<path d="M27.3745 24.2799C27.4443 24.0181 27.59 23.7827 27.7933 23.6036C27.9966 23.4244 28.2484 23.3095 28.5169 23.2732C28.6102 23.2615 28.6959 23.2161 28.7578 23.1454C28.8197 23.0747 28.8535 22.9838 28.8528 22.8898V21.2536C28.8528 21.1778 28.8304 21.1037 28.7884 21.0406C28.7464 20.9776 28.6866 20.9284 28.6166 20.8993C27.6878 20.502 26.6648 20.3782 25.6681 20.5425C24.6713 20.7068 23.7422 21.1524 22.99 21.8268C22.2379 22.5012 21.694 23.3764 21.4224 24.3494C21.1507 25.3225 21.1627 26.3528 21.4567 27.3193C22.3093 30.1609 24.996 31.4598 25.772 34.0514C25.8791 34.4075 25.8818 34.7868 25.7797 35.1444C25.6777 35.502 25.4751 35.8228 25.1962 36.0687C25.1334 36.1233 25.0902 36.1969 25.0729 36.2782C25.0556 36.3596 25.0653 36.4444 25.1005 36.5198C25.1356 36.5952 25.1943 36.6571 25.2677 36.6962C25.3411 36.7353 25.4253 36.7494 25.5075 36.7365C26.1346 36.6464 26.731 36.4072 27.2468 36.0392C27.7625 35.6711 28.1825 35.1848 28.4717 34.6211C30.3226 30.6547 26.584 27.4489 27.3745 24.2807V24.2799Z" fill="#4B1010"/>
<path d="M41.8279 25.8732C40.9561 25.1741 40.1655 24.3794 39.4709 23.5039C39.4947 23.1359 39.5721 22.7747 39.7009 22.4305C39.7377 22.3362 39.7356 22.2312 39.6953 22.1385C39.6549 22.0457 39.5795 21.9726 39.4856 21.9352C39.3916 21.8978 39.2866 21.899 39.1935 21.9386C39.1004 21.9783 39.0268 22.0531 38.9886 22.1468C38.8145 22.6058 38.7178 23.0906 38.7026 23.5814C38.7026 24.0606 40.5428 25.8241 41.3495 26.472C41.3888 26.5034 41.434 26.5268 41.4824 26.5407C41.5308 26.5547 41.5815 26.559 41.6315 26.5534C41.6816 26.5477 41.73 26.5323 41.7741 26.508C41.8182 26.4836 41.8571 26.4508 41.8885 26.4114C41.9199 26.3721 41.9432 26.3269 41.9572 26.2785C41.9712 26.2301 41.9755 26.1794 41.9698 26.1294C41.9642 26.0793 41.9488 26.0309 41.9244 25.9868C41.9001 25.9427 41.8673 25.9038 41.8279 25.8724V25.8732Z" fill="#4B1010"/>
<path d="M36.2608 22.0939C35.7653 21.9482 35.2357 21.9688 34.753 22.1525C34.2703 22.3363 33.8611 22.673 33.5879 23.1113C33.56 23.1532 33.5405 23.2002 33.5307 23.2496C33.521 23.299 33.521 23.3498 33.5309 23.3992C33.5407 23.4486 33.5602 23.4955 33.5882 23.5374C33.6162 23.5792 33.6522 23.6151 33.6941 23.6431C33.736 23.671 33.783 23.6904 33.8323 23.7002C33.8817 23.71 33.9326 23.71 33.982 23.7001C34.0313 23.6903 34.0783 23.6708 34.1201 23.6428C34.162 23.6148 34.1979 23.5788 34.2258 23.5369C34.4069 23.2342 34.6834 23.0003 35.012 22.872C35.3406 22.7437 35.7025 22.7284 36.0407 22.8284C36.1381 22.8576 36.2431 22.8469 36.3326 22.7986C36.4222 22.7504 36.4888 22.6686 36.518 22.5712C36.5472 22.4738 36.5365 22.3688 36.4883 22.2792C36.44 22.1897 36.3582 22.1231 36.2608 22.0939Z" fill="#4B1010"/>
<path d="M39.9846 21.8907C39.9427 21.9196 39.9069 21.9566 39.8794 21.9994C39.852 22.0423 39.8333 22.0902 39.8246 22.1404C39.8158 22.1905 39.8171 22.2419 39.8284 22.2915C39.8398 22.3412 39.8609 22.3881 39.8905 22.4295C39.9201 22.4709 39.9577 22.5059 40.001 22.5327C40.0444 22.5594 40.0926 22.5772 40.1429 22.5851C40.1932 22.5929 40.2446 22.5907 40.294 22.5785C40.3434 22.5663 40.3899 22.5444 40.4308 22.5141C40.6557 22.3559 40.932 22.2882 41.2045 22.3246C41.4771 22.361 41.7259 22.4987 41.9014 22.7104C41.9674 22.7865 42.0607 22.8336 42.1611 22.8415C42.2616 22.8494 42.3611 22.8174 42.4382 22.7525C43.0684 22.2196 41.3141 20.9399 39.9846 21.8907Z" fill="#4B1010"/>
<path d="M40.1806 28.1367C39.6661 28.2854 39.1232 28.3066 38.5987 28.1984C38.0742 28.0902 37.5839 27.8558 37.1703 27.5156C37.0914 27.4531 36.9911 27.4241 36.8911 27.4349C36.791 27.4457 36.6992 27.4954 36.6354 27.5733C36.5717 27.6513 36.5412 27.7511 36.5505 27.8513C36.5597 27.9516 36.608 28.0441 36.685 28.109C37.1965 28.5293 37.803 28.8182 38.4516 28.9506C39.1003 29.083 39.7714 29.055 40.4068 28.8689C40.5039 28.8384 40.5849 28.7706 40.632 28.6803C40.6791 28.5901 40.6884 28.4849 40.6579 28.3878C40.6274 28.2907 40.5596 28.2097 40.4693 28.1626C40.3791 28.1155 40.2739 28.1062 40.1768 28.1367H40.1806Z" fill="#4B1010"/>
<path d="M15.0913 124.305C15.0913 124.305 15.7377 122.848 16.4247 121.276C15.1109 120.592 14.0201 119.547 13.2811 118.263C13.0551 117.867 12.8396 117.465 12.6347 117.057L9.31083 123.787C9.20953 123.904 9.13702 124.043 9.09909 124.193C9.06116 124.343 9.05888 124.5 9.09242 124.651C9.12595 124.802 9.19438 124.943 9.29223 125.062C9.39007 125.182 9.51461 125.277 9.65586 125.34C12.8494 127.326 16.302 129.311 20.099 129.397C20.6832 129.397 20.6073 128.869 20.3581 128.62C18.7135 126.669 15.0913 124.305 15.0913 124.305Z" fill="white"/>
<path d="M42.8001 124.87L37.4758 124.788C37.2126 123.755 37.0116 122.706 36.8739 121.649C38.0148 120.548 39.0791 119.169 40.4669 118.992H41.0711C41.1726 118.991 41.2698 118.951 41.3415 118.879C41.4133 118.807 41.4539 118.71 41.4545 118.608C41.4545 118.507 41.4141 118.409 41.3422 118.337C41.2703 118.265 41.1728 118.225 41.0711 118.225H40.4232C38.7364 118.436 37.5862 119.889 36.2061 121.229C35.612 121.878 34.852 122.352 34.0082 122.601C33.1643 122.849 32.2686 122.862 31.4177 122.639C28.912 122.053 28.0724 119.387 25.7668 119.004C23.7848 118.72 22.2398 120.514 20.5629 121.186C18.5402 122.007 16.2499 121.064 14.6919 119.499C12.9529 117.695 12.5649 115.084 10.6373 113.878C9.41051 113.123 8.01733 113.312 6.73762 112.971C5.68948 112.691 4.42281 111.744 4.73794 110.748C4.87596 110.426 5.06534 110.13 5.2969 109.868C10.7173 103.149 13.8591 94.8795 14.2679 86.2562C14.4266 82.7951 14.3277 79.1661 14.4872 75.8836C14.2363 75.6635 13.9924 75.4357 13.7557 75.2005C13.5479 78.7053 13.6713 82.5375 13.5019 86.2186C13.1025 94.6683 10.0284 102.773 4.72337 109.361C4.43201 109.687 4.19662 110.058 4.0264 110.46C3.52265 111.973 4.99634 113.303 6.5352 113.714C7.03359 113.835 7.53964 113.919 8.05106 113.966C10.1328 114.205 10.8298 114.466 12.1831 117.102L8.9865 123.569C8.85307 123.732 8.75893 123.923 8.7114 124.128C8.66387 124.334 8.66422 124.547 8.71242 124.752C8.76062 124.957 8.85538 125.148 8.98934 125.31C9.1233 125.472 9.29287 125.602 9.48488 125.688C12.7459 127.714 16.2514 129.693 20.0944 129.781C20.2202 129.79 20.3464 129.769 20.4623 129.719C20.5783 129.669 20.6808 129.593 20.7611 129.496C20.8415 129.398 20.8974 129.283 20.9243 129.16C20.9512 129.037 20.9482 128.909 20.9156 128.787C20.8725 128.624 20.7785 128.479 20.6472 128.373C19.1211 126.781 17.4178 125.369 15.5706 124.165L16.6364 121.744C17.2914 122.049 18.001 122.22 18.7232 122.246C19.4455 122.273 20.1657 122.154 20.8412 121.897C21.4794 121.616 22.0894 121.276 22.663 120.88C25.1319 119.284 25.9178 119.288 28.021 121.34C28.8076 122.234 29.811 122.91 30.9347 123.305C30.9485 124.168 31.0183 125.11 31.0183 125.942C31.0183 126.753 30.8304 128.013 31.3319 128.815C32.0718 130.049 33.5087 129.88 34.9018 129.611C35.884 129.42 38.9894 128.91 43.4894 127.694C43.9771 127.59 44.4167 127.328 44.7392 126.948C44.8759 126.799 44.965 126.612 44.995 126.412C45.0251 126.213 44.9947 126.008 44.9079 125.826C44.5199 125.041 43.1314 124.872 42.8001 124.87ZM14.7417 124.149C14.7047 124.232 14.6986 124.326 14.7244 124.413C14.7503 124.501 14.8064 124.576 14.8828 124.626C16.8532 125.819 18.6382 127.294 20.181 129.005C20.1561 129.012 20.1302 129.015 20.1044 129.014C15.1841 128.902 10.3843 125.186 9.77395 124.976C9.69745 124.954 9.62875 124.91 9.57553 124.851C9.52232 124.791 9.48669 124.718 9.47262 124.64C9.44825 124.541 9.44508 124.438 9.46331 124.338C9.48155 124.238 9.52078 124.142 9.57843 124.058C9.6551 123.982 9.45498 124.354 12.6201 117.944C13.3763 119.397 14.5229 120.609 15.9309 121.445C15.303 122.888 14.7417 124.149 14.7417 124.149ZM44.1304 126.491C43.9081 126.731 43.6152 126.895 43.2939 126.957C40.6685 127.694 38.007 128.296 35.3197 128.759C34.1305 128.94 32.6131 129.449 31.992 128.417C31.6355 127.846 31.7919 126.674 31.7919 125.945C31.7919 125.146 31.7313 124.283 31.7152 123.491C32.5069 123.623 33.3177 123.581 34.0918 123.37C34.8659 123.158 35.5849 122.781 36.1992 122.264C36.3349 123.286 36.545 124.295 36.8279 125.285C36.8519 125.363 36.8997 125.43 36.9643 125.479C37.029 125.527 37.1074 125.554 37.1883 125.556L42.7978 125.642C43.3284 125.626 43.8441 125.818 44.2339 126.179C44.2408 126.201 44.2838 126.287 44.1304 126.491Z" fill="#4B1010"/>
<path d="M40.8117 69.5856C41.6112 68.9787 42.5707 68.6189 43.572 68.5504C43.7446 68.5504 43.8312 68.4638 44.0037 68.4638C44.2629 68.2905 44.1762 67.9455 44.0896 67.6871C43.4715 64.94 42.6934 62.2313 41.7594 59.5749C41.6705 59.3157 41.4144 58.9699 41.1553 59.2283C41.1226 59.2625 41.098 59.3034 41.0832 59.3482C41.0683 59.3931 41.0636 59.4406 41.0694 59.4875C40.5511 62.5085 40.7236 65.8745 40.6377 68.9814L40.8117 69.5856Z" fill="#FFE55D"/>
<path d="M45.5728 16.7182C45.0141 15.1826 44.0954 13.8032 42.8936 12.6959C41.6918 11.5886 40.2421 10.7856 38.6659 10.3542C34.5009 9.2432 28.3148 11.6753 28.998 15.5934C27.7403 16.7464 26.9799 18.3429 26.8771 20.0459C26.8321 21.8777 27.3661 23.677 28.403 25.1877C29.2985 26.7596 30.2248 28.3813 32.4813 28.6841C32.7313 29.0675 33.0134 29.4279 33.3247 29.7629L32.6837 31.0373C32.002 30.9939 31.3188 30.9785 30.6357 30.9913C30.5854 30.9922 30.5357 31.0031 30.4896 31.0232C30.4434 31.0434 30.4017 31.0724 30.3668 31.1087C30.3319 31.145 30.3044 31.1878 30.2861 31.2347C30.2677 31.2815 30.2587 31.3316 30.2597 31.3819C30.2606 31.4323 30.2715 31.4819 30.2916 31.5281C30.3118 31.5742 30.3408 31.616 30.3771 31.6509C30.4134 31.6858 30.4562 31.7132 30.503 31.7316C30.5499 31.75 30.6 31.759 30.6503 31.758C31.2967 31.745 31.9408 31.758 32.6101 31.801C32.6537 31.8414 32.7061 31.8712 32.7632 31.8879C32.8203 31.9046 32.8805 31.9078 32.939 31.8973C32.9976 31.8867 33.0529 31.8627 33.1005 31.8271C33.1482 31.7915 33.1869 31.7452 33.2136 31.6921L33.9036 30.3196C34.7239 31.0054 35.7122 31.4601 36.7667 31.6369C36.5244 32.0894 36.3385 32.5699 36.2131 33.0676C36.1996 33.1169 36.196 33.1684 36.2027 33.219C36.2094 33.2697 36.2261 33.3185 36.2519 33.3626C36.2777 33.4067 36.312 33.4452 36.3529 33.4758C36.3938 33.5065 36.4404 33.5286 36.49 33.541C36.5396 33.5534 36.5911 33.5557 36.6416 33.5479C36.6921 33.54 36.7405 33.5222 36.784 33.4954C36.8275 33.4685 36.8652 33.4333 36.8949 33.3917C36.9245 33.3501 36.9456 33.303 36.9568 33.2532C37.0948 32.718 37.3065 32.2043 37.5856 31.7274C41.2913 31.8853 43.6429 28.5837 43.5961 24.9033C44.1337 26.2274 44.4623 27.6271 44.5699 29.0522C44.5763 29.1417 44.6138 29.2262 44.6761 29.2908C44.7384 29.3555 44.8214 29.3963 44.9106 29.406C44.9998 29.4158 45.0897 29.3939 45.1644 29.3443C45.2392 29.2946 45.2942 29.2203 45.3198 29.1342C46.1563 26.3693 47.2987 21.0833 45.5728 16.7182ZM29.688 25.5987C29.4971 25.121 29.5347 24.6602 30.0914 24.7791C30.619 25.0718 31.0527 25.5084 31.3419 26.0381L32.5764 27.9135C31.9372 27.8068 31.3361 27.538 30.8304 27.1327C30.3247 26.7275 29.9314 26.1993 29.688 25.5987ZM34.9426 30.1425C33.3799 29.1457 32.3962 25.5742 32.7259 22.8584C32.8441 21.8934 33.1499 20.9609 33.6261 20.1134C35.0867 20.7544 36.6164 20.6087 38.1185 20.6885C39.6205 20.7667 41.598 21.1823 42.5556 22.8354C42.7918 23.2226 43.008 23.6174 43.2035 24.02C43.7617 29.7767 38.8407 32.6382 34.9426 30.1425Z" fill="#4B1010"/>
<path d="M40.9994 59.8823C40.8981 59.8784 40.7994 59.9147 40.7248 59.9834C40.6502 60.0521 40.6059 60.1475 40.6015 60.2488L40.2557 68.8793C40.2516 68.981 40.2881 69.0801 40.3571 69.1549C40.4261 69.2297 40.522 69.274 40.6237 69.2781C40.7254 69.2821 40.8245 69.2456 40.8993 69.1766C40.9741 69.1076 41.0184 69.0117 41.0224 68.91L41.3675 60.2795C41.3714 60.1779 41.3348 60.0789 41.2658 60.0043C41.1968 59.9297 41.101 59.8855 40.9994 59.8815V59.8823Z" fill="#4B1010"/>
<path d="M55.9985 25.6784C55.2413 27.1813 54.185 28.5136 52.8943 29.5935C51.6036 30.6734 50.1057 31.478 48.4928 31.9581C42.5888 33.5537 38.6017 31.9734 37.3588 31.7848L37.2729 32.1298C39.3432 33.51 39.9481 36.7916 40.3798 39.0352C40.8849 41.9155 41.1735 44.8296 41.2432 47.7531L45.8168 49.9107C45.7317 47.7638 45.6167 44.6508 45.208 41.7832C48.239 42.734 54.409 41.3822 56.5751 39.5473C56.2215 34.9325 56.0292 30.3067 55.9985 25.6784Z" fill="#FFE55D"/>
<path d="M56.9572 39.5152C56.6045 34.8864 56.4105 30.2299 56.3822 25.6754C56.3816 25.5894 56.3522 25.5061 56.2987 25.4388C56.2451 25.3716 56.1704 25.3243 56.0867 25.3046C56.0031 25.2848 55.9152 25.2938 55.8372 25.3301C55.7592 25.3663 55.6957 25.4277 55.6568 25.5044C54.9267 26.9611 53.9053 28.2523 52.6559 29.2982C51.4066 30.3441 49.9558 31.1223 48.3934 31.5847C42.5998 33.1497 38.6864 31.597 37.4166 31.403C37.3222 31.3887 37.2258 31.4102 37.1464 31.4633C37.067 31.5163 37.0102 31.5971 36.9872 31.6898C36.9029 32.0279 36.7956 32.2702 37.0639 32.4466C40.1516 34.5061 40.7543 44.0513 40.8632 47.7608C40.8653 47.8315 40.8869 47.9002 40.9256 47.9593C40.9643 48.0184 41.0186 48.0657 41.0824 48.0959L45.6569 50.2543C45.7165 50.2824 45.7823 50.2947 45.848 50.29C45.9138 50.2853 45.9772 50.2637 46.0321 50.2273C46.0871 50.1909 46.1317 50.141 46.1617 50.0823C46.1918 50.0237 46.2062 49.9583 46.2036 49.8924C46.087 47.0347 46.005 45.1079 45.6668 42.2924C49.1325 43.0116 54.8172 41.5387 56.8276 39.8388C56.8733 39.7989 56.9088 39.7488 56.9313 39.6926C56.9538 39.6363 56.9627 39.5756 56.9572 39.5152ZM45.3226 41.4145C45.2606 41.3955 45.1948 41.3926 45.1313 41.406C45.0679 41.4195 45.0089 41.4487 44.9599 41.4911C44.7191 41.6959 44.8625 41.7672 45.0051 43.3965C45.2352 45.3302 45.3302 47.3376 45.4092 49.2936L41.6192 47.5024C41.4957 43.7047 40.8655 35.0152 38.1542 32.3538C44.841 33.9977 51.8675 32.8499 55.6292 27.0824C55.6844 31.1385 55.8684 35.2651 56.1774 39.3711C53.9002 41.0924 48.1212 42.2924 45.3226 41.4145Z" fill="#4B1010"/>
<path d="M112.728 41.1016C111.484 31.2947 112.092 21.3417 114.519 11.7589C94.8402 14.7799 75.3379 18.405 56.0013 22.8062C55.9248 33.4703 56.6896 44.1238 58.2885 54.6677C86.8116 48.3458 95.3164 44.5681 112.728 41.1016Z" fill="white"/>
<path d="M114.462 11.3801C93.8054 14.5514 74.6551 18.1666 55.9173 22.4328C55.8331 22.452 55.7579 22.4989 55.7038 22.5661C55.6497 22.6334 55.6198 22.7169 55.619 22.8031C55.5423 33.487 56.3091 44.1609 57.9123 54.7244C57.9259 54.8152 57.9716 54.8981 58.0411 54.958C58.1106 55.018 58.1993 55.051 58.2911 55.0511C58.4598 55.0511 70.8037 52.3245 80.6142 49.6731C91.1532 46.8285 101.941 43.6403 112.803 41.4773C112.898 41.4586 112.983 41.4045 113.04 41.3258C113.097 41.2471 113.122 41.1497 113.11 41.0533C111.862 31.2945 112.467 21.3879 114.892 11.8532C114.914 11.7606 114.902 11.6628 114.857 11.5787C114.812 11.4947 114.738 11.4302 114.648 11.3978C114.588 11.3766 114.524 11.3705 114.462 11.3801ZM112.304 40.7949C95.2822 44.2177 86.4469 48.0231 58.6093 54.2038C57.0699 43.9128 56.3265 33.5183 56.3857 23.1129C74.8391 18.9196 93.6973 15.3565 114.01 12.2251C111.706 21.565 111.128 31.2472 112.304 40.7949Z" fill="#4B1010"/>
<path d="M87.2837 22.3668C87.3053 22.2686 87.2872 22.1659 87.2336 22.0809C87.1799 21.996 87.0948 21.9356 86.9969 21.9129C86.8993 21.8897 86.7964 21.9057 86.7105 21.9576C86.6245 22.0096 86.5625 22.0932 86.5376 22.1905C85.1008 27.4979 84.5916 33.0138 85.0325 38.4946C84.2382 37.9897 83.3183 37.7176 82.3772 37.7092C81.436 37.7008 80.5114 37.9564 79.7082 38.4471C78.427 39.2353 76.9525 40.7473 77.0162 42.4081C77.0691 43.7806 78.3848 45.2527 80.797 45.2527C84.4429 45.2527 86.6281 41.8898 85.9288 39.7459C85.3723 34.7713 85.6312 29.7392 86.6956 24.848C87.6617 28.1021 91.0239 31.0111 90.264 34.0643C89.771 35.3961 88.9169 36.5643 87.7974 37.438C87.7566 37.4686 87.7223 37.5071 87.6968 37.5512C87.6712 37.5954 87.6548 37.6442 87.6487 37.6949C87.6396 37.7708 87.6532 37.8477 87.6877 37.9159C87.7223 37.9841 87.7761 38.0406 87.8426 38.0783C87.9097 38.1153 87.9863 38.1315 88.0627 38.1248C88.139 38.1181 88.2116 38.0888 88.2713 38.0407C89.5119 37.071 90.4557 35.7728 90.9955 34.2936C92.0897 29.9009 86.4395 26.4198 87.2837 22.3668Z" fill="#4B1010"/>
<path d="M31.1835 39.3235C31.7348 36.7923 31.6025 34.1599 30.8001 31.6967C30.8001 31.5234 30.6276 31.3509 30.4551 31.1784C30.3227 31.109 30.1731 31.0792 30.0242 31.0925C21.0371 31.9075 21.1951 39.4884 18.8013 47.2318C16.56 54.2865 13.6414 61.1078 10.0864 67.6005C9.75015 68.0485 9.56852 68.5937 9.56885 69.1539C9.65012 69.5902 9.82724 70.0027 10.0864 70.3623C12.5032 74.5027 16.1284 78.3886 20.8753 78.9069C22.3421 79.0795 24.1547 62.681 24.5005 61.0417C25.1768 57.5906 26.08 54.187 27.2025 50.8539C29.6104 53.2888 32.2952 55.4332 35.202 57.2432C38.5681 59.2283 42.2799 60.2642 45.8177 61.9043C47.0105 58.2829 48.423 54.7375 50.0471 51.2879C42.6505 49.3989 36.045 45.2094 31.1835 39.3235Z" fill="#FFE55D"/>
<path d="M50.1412 50.9168C42.8447 49.0684 36.3258 44.9457 31.5284 39.1456C32.1793 35.9835 32.3656 32.5516 30.7256 30.9069C30.2042 30.3863 27.6923 31.0955 26.9685 31.3317C20.6045 33.3942 20.261 41.2089 18.4354 47.116C16.2062 54.1246 13.3094 60.9031 9.78489 67.3582C9.38082 67.8956 9.17149 68.5543 9.19066 69.2267C9.27807 69.7052 9.47053 70.1576 9.75269 70.5532C11.8912 74.219 15.5493 78.7091 20.8284 79.2857C20.8529 79.2857 20.8782 79.2895 20.9051 79.2895C21.8965 79.2895 22.7046 76.8321 24.4528 64.022C24.6476 62.5959 24.8009 61.4688 24.876 61.1084C25.5108 57.8745 26.3445 54.6828 27.3726 51.5516C35.0615 59.1202 39.6643 59.476 45.6557 62.2516C45.7049 62.2743 45.7584 62.2863 45.8125 62.2868C45.8667 62.2873 45.9204 62.2763 45.97 62.2546C46.0196 62.2329 46.0641 62.2009 46.1004 62.1607C46.1368 62.1205 46.1642 62.0731 46.1809 62.0216C47.3668 58.4159 48.7726 54.8863 50.3904 51.4527C50.4147 51.4017 50.4274 51.346 50.4277 51.2896C50.428 51.2331 50.4158 51.1773 50.392 51.1261C50.3682 51.0749 50.3333 51.0295 50.29 50.9934C50.2466 50.9572 50.1958 50.931 50.1412 50.9168ZM45.589 61.3783C42.1862 59.8448 38.5878 58.7959 35.4043 56.9181C29.7602 53.4052 25.0026 48.6377 21.5016 42.9863C21.4472 42.9022 21.3621 42.8428 21.2645 42.8207C21.1669 42.7985 21.0645 42.8155 20.9792 42.8678C20.8939 42.9202 20.8324 43.0038 20.808 43.1009C20.7835 43.198 20.798 43.3007 20.8483 43.3873C22.5338 46.1199 24.5184 48.6563 26.7653 50.9497C25.6718 54.2272 24.7895 57.5715 24.1239 60.9619C23.8371 62.3214 22.0751 77.4547 20.8537 78.5205C15.922 77.9493 12.4578 73.6693 10.3922 70.1338C10.1813 69.8404 10.0314 69.5077 9.95128 69.1554C9.95434 68.6601 10.12 68.1793 10.4221 67.786C14.3647 60.5747 18.2375 51.5731 20.1912 43.4517C21.3613 38.5905 22.5681 33.5606 27.2062 32.0624L27.2192 32.0578C28.1873 31.7075 29.207 31.5209 30.2364 31.5057C31.4049 32.7517 31.4141 35.4507 30.8966 38.362C30.2111 37.4826 29.5664 36.5723 28.9643 35.6339C28.938 35.5897 28.9031 35.5513 28.8616 35.5209C28.8201 35.4905 28.773 35.4688 28.7229 35.457C28.6728 35.4452 28.6209 35.4436 28.5702 35.4523C28.5196 35.461 28.4711 35.4798 28.4279 35.5075C28.3846 35.5353 28.3474 35.5715 28.3184 35.614C28.2894 35.6565 28.2692 35.7044 28.2591 35.7548C28.249 35.8052 28.2491 35.8571 28.2595 35.9075C28.2699 35.9579 28.2903 36.0056 28.3195 36.048C33.195 43.6795 40.7527 49.2076 49.5025 51.5424C48.0139 54.7448 46.7073 58.0286 45.589 61.3783Z" fill="#4B1010"/>
<path d="M94.4955 50.5127L39.0718 69.3034L36.4963 65.0096C35.9271 64.0133 35.0362 63.2401 33.9697 62.8167C32.9032 62.3933 31.7245 62.3449 30.6269 62.6795L14.5742 67.428C21.0916 79.7274 14.9246 67.3774 51.9456 143.465L103.903 70.1039L94.4955 50.5127Z" fill="#FFB43B"/>
<path d="M115.9 40.4997C103.903 42.6574 92.3375 46.11 80.5135 49.3035C67.7402 52.7539 54.7078 55.4306 41.7612 58.2791C46.7569 79.8867 50.9028 101.682 54.1895 123.615L124.444 97.118L115.9 40.4997Z" fill="white"/>
<path d="M124.823 97.0604C115.748 36.7441 116.404 40.022 115.832 40.1224C106.09 41.8744 96.4402 44.5312 87.1081 47.0998C67.8382 52.408 62.6588 53.2875 41.679 57.9048C41.6295 57.9157 41.5827 57.9363 41.5413 57.9653C41.4998 57.9944 41.4645 58.0314 41.4374 58.0741C41.4103 58.1169 41.392 58.1646 41.3834 58.2145C41.3749 58.2644 41.3763 58.3155 41.3876 58.3649C46.3789 79.9632 50.5225 101.749 53.8089 123.671C53.8227 123.762 53.8684 123.845 53.9379 123.905C54.0074 123.965 54.096 123.998 54.1877 123.998L59.7712 123.13C59.8209 123.122 59.8686 123.105 59.9116 123.078C59.9546 123.052 59.992 123.018 60.0216 122.977C60.0513 122.936 60.0726 122.89 60.0844 122.841C60.0963 122.792 60.0983 122.741 60.0905 122.692C60.0827 122.642 60.0652 122.594 60.039 122.551C60.0127 122.508 59.9783 122.471 59.9376 122.441C59.8969 122.412 59.8508 122.39 59.8018 122.378C59.7529 122.367 59.7021 122.365 59.6523 122.372L54.5098 123.176C51.2833 101.678 47.149 79.9466 42.2203 58.5704C54.8717 55.7894 67.934 53.0996 80.6122 49.6761C92.1295 46.5654 103.758 43.1058 115.576 40.9505L124.062 97.1777C124.068 97.2422 124.091 97.3038 124.128 97.3569C124.165 97.4101 124.215 97.4529 124.274 97.4813C124.332 97.5098 124.396 97.5229 124.461 97.5196C124.526 97.5162 124.589 97.4965 124.644 97.4622C124.688 97.4355 124.726 97.3999 124.756 97.3577C124.786 97.3155 124.807 97.2675 124.818 97.2168C124.828 97.1663 124.829 97.1142 124.819 97.0635L124.823 97.0604Z" fill="#4B1010"/>
<path d="M56.1745 53.0145C52.8637 53.0145 53.9548 52.9164 49.7882 52.5829C49.7882 52.5829 48.5798 55.6039 48.0615 56.639C50.3924 56.0348 52.8085 55.5172 55.2253 55.0855C56.1515 54.829 57.1164 54.7414 58.0737 54.8271C58.8656 55.015 59.5674 55.4726 60.0588 56.1214C60.3172 56.3806 60.7489 56.639 61.094 56.2939C61.1489 56.221 61.1855 56.1358 61.2006 56.0458C61.2157 55.9557 61.2088 55.8633 61.1806 55.7764C61.0959 55.1008 60.7564 54.4831 60.2314 54.0497C60.7589 54.295 61.2289 54.6477 61.6115 55.0855C61.784 55.3447 62.0432 55.6897 62.3882 55.6897C62.5225 55.6806 62.6489 55.6231 62.744 55.528C62.8392 55.4328 62.8966 55.3064 62.9058 55.1722C62.9321 54.9015 62.8716 54.6295 62.7333 54.3955C62.5181 53.898 62.1937 53.4553 61.784 53.1004C62.2309 53.3189 62.6164 53.6451 62.9058 54.0497C63.2945 54.8264 64.1142 54.7558 64.1142 54.2229C64.1447 53.7396 64.0398 53.2573 63.8111 52.8303C63.5824 52.4033 63.2392 52.0486 62.8199 51.8061C61.9655 51.3745 60.9794 51.2819 60.0596 51.547C59.3193 51.781 58.6206 52.1306 57.9894 52.5829C57.4468 52.9187 56.8102 53.0701 56.1745 53.0145Z" fill="white"/>
<path d="M62.9918 51.3767C62.0437 50.9072 60.9547 50.8074 59.9371 51.0969C57.6506 51.8636 57.8078 52.6687 56.2613 52.4579C54.1435 52.4439 52.0296 52.2727 49.9371 51.9457C49.8868 51.9357 49.835 51.936 49.7847 51.9465C49.7345 51.9569 49.6869 51.9774 49.6447 52.0066C49.6025 52.0358 49.5666 52.0732 49.5391 52.1165C49.5116 52.1598 49.4931 52.2083 49.4847 52.2589C49.4763 52.3095 49.4781 52.3613 49.4901 52.4112C49.502 52.4611 49.5239 52.5081 49.5544 52.5494C49.5848 52.5907 49.6233 52.6254 49.6674 52.6516C49.7116 52.6778 49.7605 52.6948 49.8114 52.7017C51.9268 53.0406 54.0645 53.2139 56.2068 53.2208C56.9029 53.3445 57.6198 53.1969 58.2104 52.8083C58.8136 52.3909 59.4729 52.061 60.1686 51.8284C60.9857 51.5969 61.8594 51.6752 62.6222 52.0484C62.9872 52.2617 63.2856 52.5725 63.4838 52.9459C63.6821 53.3193 63.7725 53.7405 63.7448 54.1624C63.6796 54.19 63.4043 54.1033 63.2349 53.7659C62.9155 53.306 62.4847 52.9346 61.9828 52.6864C61.8995 52.6365 61.8004 52.62 61.7055 52.6403C61.6106 52.6606 61.5269 52.7162 61.4714 52.7958C61.4158 52.8754 61.3925 52.9731 61.4062 53.0692C61.4198 53.1653 61.4694 53.2526 61.5449 53.3136C61.9207 53.6463 62.2182 54.0588 62.4144 54.5212C62.5095 54.6929 62.5479 54.8908 62.5233 55.0855C62.5145 55.1177 62.4973 55.147 62.4737 55.1705C62.45 55.1941 62.4206 55.211 62.3884 55.2197C62.2764 55.2197 62.1223 55.074 61.9107 54.7596C61.4946 54.2767 60.9802 53.8882 60.4017 53.6203C60.3176 53.5781 60.2208 53.5684 60.13 53.593C60.0391 53.6175 59.9604 53.6747 59.909 53.7535C59.8576 53.8323 59.8369 53.9273 59.851 54.0204C59.8651 54.1135 59.9129 54.1981 59.9854 54.2582C60.4352 54.6299 60.7265 55.1591 60.7997 55.738C60.8487 56.1383 60.5604 55.9941 60.3036 55.738C59.7891 55.3086 59.0147 54.2467 58.0731 54.3579C57.6328 54.366 57.195 54.4278 56.7696 54.5419C56.7198 54.5531 56.6727 54.5742 56.6311 54.6039C56.5895 54.6335 56.5543 54.6712 56.5275 54.7147C56.5006 54.7582 56.4828 54.8066 56.475 54.8571C56.4671 54.9076 56.4695 54.9591 56.4818 55.0087C56.4942 55.0583 56.5163 55.1049 56.547 55.1458C56.5776 55.1867 56.6161 55.221 56.6602 55.2468C56.7043 55.2726 56.7531 55.2893 56.8038 55.296C56.8544 55.3027 56.9059 55.2991 56.9552 55.2856C57.3331 55.1843 57.7218 55.1292 58.113 55.1216C58.6765 55.0679 59.3651 55.965 59.7845 56.3062C60.6379 57.1596 61.7374 56.7432 61.548 55.5517C61.6492 55.6804 61.7769 55.7858 61.9225 55.8608C62.068 55.9358 62.2279 55.9786 62.3914 55.9864C62.6277 55.9777 62.8519 55.88 63.0191 55.7129C63.1863 55.5459 63.2842 55.3217 63.2931 55.0855C63.2931 55.0088 63.2931 54.9245 63.2885 54.8379C63.4084 54.9105 63.5453 54.9503 63.6854 54.9532C63.8256 54.9561 63.964 54.922 64.0868 54.8544C64.2095 54.7867 64.3123 54.6879 64.3847 54.5679C64.4571 54.4479 64.4966 54.3109 64.4992 54.1708C64.5356 53.6105 64.4135 53.0513 64.1469 52.5572C63.8803 52.0631 63.48 51.654 62.9918 51.3767Z" fill="#4B1010"/>
<path d="M59.627 22.0295C59.9927 19.6525 62.6755 18.7884 64.6331 19.4402C65.8016 19.6702 66.3513 20.9353 65.9273 21.2527C65.5823 21.5119 64.8056 20.6485 64.4598 20.476C64.7281 20.6294 64.962 20.8349 65.1498 21.0802C65.2415 21.1848 65.3053 21.3108 65.3355 21.4465C65.3656 21.5823 65.3611 21.7234 65.3224 21.8569C65.2819 21.9362 65.22 22.0026 65.1436 22.0484C65.0673 22.0942 64.9797 22.1177 64.8907 22.1161C64.7069 22.0672 64.5353 21.9805 64.3868 21.8617C64.2384 21.7429 64.1162 21.5946 64.0281 21.426C63.7799 21.1504 63.4883 20.9173 63.1647 20.736C63.4139 20.9875 63.6186 21.2788 63.7689 21.5993C63.8469 21.7285 63.8773 21.881 63.8548 22.0302C63.8526 22.1392 63.8197 22.2454 63.7598 22.3365C63.6998 22.4276 63.6154 22.4998 63.5161 22.545C63.4169 22.5901 63.3069 22.6063 63.1989 22.5916C63.0908 22.5769 62.9891 22.5319 62.9056 22.4619C62.4739 22.1169 62.1289 21.3402 61.5254 21.4268C61.267 21.4268 61.0937 21.6852 60.8353 21.7718C60.4604 21.9582 60.3791 21.8792 59.627 22.0295Z" fill="white"/>
<path d="M66.062 19.9009C65.4149 19.0383 63.3163 18.3789 61.3787 19.2592C60.817 19.4847 60.3245 19.854 59.9506 20.33C59.5767 20.806 59.3346 21.372 59.2487 21.9712C59.2392 22.0321 59.2446 22.0945 59.2644 22.1529C59.2842 22.2114 59.3178 22.2642 59.3623 22.3068C59.4069 22.3495 59.4611 22.3808 59.5203 22.398C59.5796 22.4153 59.6421 22.418 59.7026 22.4059C60.1316 22.3763 60.5541 22.2849 60.957 22.1345C61.2177 22.0478 61.437 21.8117 61.5804 21.8048C61.9062 21.7626 62.2789 22.455 62.6362 22.7325C62.7642 22.86 62.9224 22.953 63.0959 23.003C63.2695 23.0531 63.4529 23.0585 63.6291 23.0188C63.8053 22.9792 63.9687 22.8956 64.1041 22.776C64.2394 22.6564 64.3424 22.5046 64.4035 22.3346C64.527 22.4246 64.6725 22.4793 64.8246 22.493C64.9767 22.5067 65.1297 22.4789 65.2672 22.4125C65.4047 22.346 65.5216 22.2435 65.6054 22.1158C65.6892 21.9881 65.7368 21.8401 65.743 21.6875C66.2874 21.7143 66.841 21.0695 66.062 19.9009ZM64.632 20.131C64.5449 20.0886 64.445 20.0808 64.3523 20.1091C64.2597 20.1374 64.1812 20.1997 64.1326 20.2835C64.084 20.3673 64.069 20.4665 64.0905 20.5609C64.1121 20.6554 64.1686 20.7382 64.2486 20.7927C64.5814 21.0135 65.1028 21.3424 64.9594 21.7174C64.8751 21.7465 64.527 21.564 64.3729 21.2519C64.3543 21.2147 64.3297 21.1807 64.3 21.1515C63.8883 20.7398 63.1913 20.0436 62.8555 20.509C62.8024 20.5828 62.7773 20.673 62.7846 20.7636C62.7919 20.8541 62.8311 20.9392 62.8953 21.0035C63.1461 21.2558 63.4742 21.4513 63.6191 21.725C63.7303 21.9344 63.7227 22.1038 63.5816 22.2104C63.028 22.6313 62.5925 20.8839 61.5267 21.0396C61.1188 21.0396 60.9363 21.3248 60.6649 21.4229C60.501 21.5038 60.3215 21.5482 60.1389 21.5533C60.267 21.1919 60.4714 20.8623 60.7383 20.587C61.0052 20.3117 61.3282 20.097 61.6854 19.9577C63.2388 19.2515 64.9824 19.7277 65.4371 20.3411C65.5575 20.5051 65.6449 20.6915 65.6947 20.8885C65.3911 20.7474 64.9901 20.3127 64.632 20.1333V20.131Z" fill="#4B1010"/>
<path d="M109.773 56.3805C75.5989 65.7464 109.883 56.9027 35.2886 76.4901C35.4419 76.9501 37.5052 82.6478 37.9638 84.0855C39.1722 83.4828 111.501 63.2851 111.501 63.2851C111.137 61.6082 110.002 57.2914 109.773 56.3805Z" fill="#FFE55D"/>
<path d="M122.489 108.95C118.962 92.2147 114.952 74.9889 110.23 56.2871C110.212 56.2124 110.172 56.1451 110.114 56.0939C110.057 56.0427 109.985 56.0101 109.909 56.0003C109.859 55.9936 109.807 55.997 109.758 56.0103C81.068 63.815 109.841 56.511 35.1911 76.1191C35.1404 76.1323 35.0929 76.1559 35.0517 76.1882C35.0104 76.2205 34.9762 76.261 34.9512 76.307C34.9262 76.3531 34.9109 76.4038 34.9063 76.456C34.9017 76.5082 34.9078 76.5608 34.9243 76.6106C40.9655 94.906 46.9323 113.596 52.7029 131.672C52.7194 131.723 52.7466 131.77 52.7828 131.811C52.8191 131.851 52.8634 131.883 52.9129 131.905C52.9624 131.926 53.016 131.937 53.07 131.937C53.1241 131.936 53.1775 131.924 53.2265 131.902C53.2265 131.902 121.999 109.443 122.193 109.401C122.292 109.381 122.379 109.322 122.435 109.237C122.49 109.152 122.51 109.049 122.489 108.95ZM109.584 56.853C110.108 58.9293 110.622 60.988 111.129 63.0291L105.609 64.5872C106.616 62.183 107.492 59.7257 108.233 57.2264L109.584 56.853ZM107.321 57.474C106.581 59.984 105.694 62.4483 104.665 64.854L93.4126 68.0314C94.355 65.8423 95.5526 63.0176 96.4467 60.5173C100.027 59.5036 103.68 58.4754 107.32 57.4733H107.321V57.474ZM95.4936 60.7872C94.5474 63.4171 93.4356 66.0486 92.4596 68.3013L81.5311 71.3875L84.4532 63.8887L95.4936 60.7872ZM83.543 64.1425L80.6056 71.6505L69.0576 74.9076C69.957 72.7607 70.9584 70.0871 71.9007 67.2731C75.0037 66.4611 77.6598 65.771 83.543 64.1394V64.1425ZM70.9906 67.5161C69.9938 70.4819 69.0737 72.9386 68.1107 75.179L55.6219 78.7061L59.1021 70.6399L70.9906 67.5161ZM58.1606 70.8806L54.6711 78.9698L43.7258 82.0598C44.8967 79.4087 45.9188 76.6943 46.7874 73.9292C46.6187 73.8763 45.3973 74.2321 58.1606 70.8806ZM45.9317 74.0918C45.0344 76.8971 43.9768 79.6486 42.7643 82.3328L38.0503 83.6639L35.7807 76.7585L45.9317 74.0918Z" fill="#4B1010"/>
<path d="M72.6696 89.0563L58.083 93.3762L58.3008 94.1115L72.8874 89.7916L72.6696 89.0563Z" fill="#FFE55D"/>
<path d="M69.7742 96.3236L59.8486 99.6896L60.0948 100.416L70.0203 97.0497L69.775 96.3236H69.7742Z" fill="#FFE55D"/>
<path d="M67.1685 103.923L61.8188 105.996L62.0956 106.711L67.446 104.638L67.1685 103.923Z" fill="#FFE55D"/>
<path d="M52.0317 143.465L75.0802 83.5672C75.5177 82.4391 76.1904 81.4169 77.0534 80.5687C77.9164 79.7205 78.95 79.0657 80.0856 78.6478L149.992 54.1363L122.373 112.998L52.0317 143.465Z" fill="#FFB43B"/>
<path d="M36.8139 22.5968C36.6486 22.8851 36.4199 23.132 36.1453 23.3191C35.8706 23.5061 35.557 23.6283 35.2282 23.6764C34.4814 23.5829 34.4362 25.078 35.0565 25.4645C35.7979 25.9245 36.6536 25.1769 35.8232 24.0958C36.4311 23.8568 36.943 23.4236 37.2793 22.8637C37.3121 22.8021 37.3197 22.7302 37.3005 22.6631C37.2812 22.5961 37.2366 22.5392 37.176 22.5045C37.1155 22.4698 37.0438 22.46 36.9762 22.4772C36.9086 22.4945 36.8504 22.5374 36.8139 22.5968Z" fill="#4B1010"/>
<path d="M42.6005 21.8792C42.4352 22.1674 42.2066 22.4143 41.9319 22.6011C41.6572 22.788 41.3436 22.9101 41.0149 22.958C40.268 22.8652 40.2228 24.3604 40.8431 24.7468C41.5846 25.2069 42.4402 24.4593 41.6099 23.3774C42.2181 23.139 42.7303 22.706 43.0667 22.146C43.1021 22.0842 43.1114 22.0109 43.0927 21.9421C43.0741 21.8734 43.0288 21.8149 42.967 21.7795C42.9052 21.7441 42.8318 21.7348 42.7631 21.7535C42.6944 21.7722 42.6359 21.8174 42.6005 21.8792Z" fill="#4B1010"/>
<path d="M43.0368 27.5102C43.4835 27.5102 43.9119 27.3328 44.2277 27.017C44.5435 26.7011 44.721 26.2727 44.721 25.8261C44.721 25.3794 44.5435 24.951 44.2277 24.6352C43.9119 24.3193 43.4835 24.1419 43.0368 24.1419C42.5902 24.1419 42.162 24.3193 41.8462 24.6351C41.5304 24.9508 41.353 25.3791 41.353 25.8257C41.353 26.2723 41.5304 26.7005 41.8462 27.0163C42.162 27.3321 42.5902 27.5095 43.0368 27.5095V27.5102Z" fill="#FFE55D"/>
<path d="M33.3951 28.6841C33.9222 28.6841 34.4277 28.4747 34.8004 28.102C35.1732 27.7293 35.3825 27.2238 35.3825 26.6967C35.3825 26.1696 35.1732 25.6641 34.8004 25.2914C34.4277 24.9187 33.9222 24.7093 33.3951 24.7093C32.868 24.7093 32.3625 24.9187 31.9898 25.2914C31.6171 25.6641 31.4077 26.1696 31.4077 26.6967C31.4077 27.2238 31.6171 27.7293 31.9898 28.102C32.3625 28.4747 32.868 28.6841 33.3951 28.6841Z" fill="#FFE55D"/>
<path d="M149.865 53.7744L79.9442 78.2896C78.7589 78.7269 77.6801 79.4111 76.7791 80.2967C75.8781 81.1823 75.1756 82.2493 74.718 83.4269L51.9525 142.604L19.6831 76.28L43.9591 68.0512L43.7935 67.2975L39.2413 68.8387L36.8276 64.8148C36.2152 63.7444 35.2575 62.9137 34.1114 62.4587C32.9653 62.0036 31.6986 61.9511 30.5188 62.3098L14.4654 67.0598C14.4109 67.0761 14.3608 67.1041 14.3185 67.1421C14.2762 67.18 14.2429 67.2268 14.2209 67.2792C14.1989 67.3315 14.1888 67.3881 14.1913 67.4449C14.1938 67.5016 14.2088 67.5571 14.2353 67.6073C20.7573 79.8968 14.5942 67.4478 51.6005 143.633C51.6583 143.73 51.7497 143.802 51.8573 143.836C51.9648 143.87 52.0811 143.863 52.184 143.817C122.725 113.195 122.621 113.372 122.72 113.161L150.339 54.2988C150.37 54.2304 150.381 54.1543 150.37 54.0797C150.359 54.0052 150.326 53.9355 150.276 53.8794C150.225 53.8234 150.159 53.7836 150.086 53.7649C150.013 53.7462 149.936 53.7495 149.865 53.7744ZM15.1324 67.6625L30.7396 63.0467C31.7555 62.7383 32.8459 62.7843 33.8322 63.1772C34.8184 63.5701 35.6419 64.2865 36.1674 65.2089L38.4983 69.0933L19.3373 75.5907L15.1324 67.6625ZM122.087 112.704L52.7169 142.753L75.4349 83.7029C75.8531 82.6275 76.4949 81.6532 77.3179 80.8445C78.1408 80.0359 79.1262 79.4112 80.2087 79.0119L149.257 54.8026L122.087 112.704Z" fill="#4B1010"/>
</svg>
