<svg width="154" height="154" viewBox="0 0 154 154" fill="none" xmlns="http://www.w3.org/2000/svg">
<path d="M37.5095 60.0442C38.8319 61.1752 40.8786 62.6683 42.4376 61.068C42.6727 60.8337 42.3741 60.4707 42.0754 60.5986C40.518 61.3643 39.0034 60.6836 37.7017 59.7456C37.5738 59.6598 37.3602 59.9163 37.5095 60.0442Z" fill="#191919"/>
<path d="M41.3073 57.2915C41.1253 57.0083 40.8567 56.7913 40.5416 56.6728C40.5129 56.6645 40.4826 56.6634 40.4534 56.6694C40.4241 56.6754 40.3968 56.6884 40.3737 56.7073C40.3505 56.7262 40.3324 56.7504 40.3207 56.7779C40.309 56.8053 40.3041 56.8352 40.3065 56.865C40.3961 57.4048 40.624 57.9121 40.9681 58.3375C40.7375 58.4217 40.5023 58.4928 40.2637 58.5503C40.0937 58.5718 40.1572 58.8069 40.3065 58.8283C41.8234 59.045 42.1795 58.4546 41.3073 57.2915Z" fill="#191919"/>
<path d="M41.691 55.0947C41.6891 55.4334 41.7621 55.7683 41.9046 56.0756C41.9488 56.1474 42.0129 56.2049 42.0891 56.241C42.1653 56.2772 42.2503 56.2904 42.3339 56.2791C42.4175 56.2678 42.496 56.2326 42.56 56.1775C42.6239 56.1225 42.6705 56.0501 42.694 55.9691C42.8311 55.6261 42.5325 54.8206 42.011 54.8206C41.9352 54.8255 41.863 54.8549 41.8053 54.9043C41.7476 54.9537 41.7075 55.0205 41.691 55.0947Z" fill="#191919"/>
<path d="M37.8506 55.9905C37.8789 56.267 37.957 56.5449 38.0037 56.8229C38.0466 57.1422 38.2388 57.5266 38.6224 57.3772C39.2626 57.1422 38.8146 56.0541 38.516 55.7133C38.4616 55.6583 38.3919 55.6208 38.316 55.6056C38.2401 55.5904 38.1614 55.5982 38.09 55.6279C38.0185 55.6577 37.9576 55.7081 37.9149 55.7727C37.8723 55.8373 37.8499 55.9131 37.8506 55.9905Z" fill="#191919"/>
<path d="M36.6562 55.1368C36.9977 55.1582 37.2963 54.8596 37.5949 54.7103C37.915 54.5395 38.2986 54.4545 38.5138 54.1345C38.5334 54.0973 38.5445 54.0562 38.5464 54.0142C38.5482 53.9721 38.5407 53.9302 38.5243 53.8915C38.508 53.8527 38.4832 53.8181 38.4519 53.7901C38.4205 53.762 38.3834 53.7413 38.343 53.7294C37.9372 53.5586 37.4893 53.8573 37.1692 54.0916C36.892 54.3052 36.4655 54.5824 36.5084 54.9875C36.514 55.0248 36.5314 55.0593 36.558 55.0862C36.5845 55.113 36.6189 55.1307 36.6562 55.1368Z" fill="#191919"/>
<path d="M45.5096 50.1451C46.0746 45.4367 40.9329 41.5377 37.2107 46.2622C36.8361 46.858 36.3241 47.3553 35.7176 47.7124C34.8179 48.116 33.458 47.6358 31.8125 48.0325C31.292 48.1825 30.816 48.4573 30.4257 48.8329C30.0354 49.2085 29.7426 49.6736 29.5727 50.188C28.8185 52.4905 30.7106 54.1904 31.3484 55.999C31.2106 56.2823 31.1351 56.5918 31.1268 56.9068C31.1186 57.2218 31.1779 57.5348 31.3007 57.825C31.4235 58.1151 31.607 58.3756 31.8388 58.5889C32.0706 58.8023 32.3455 58.9635 32.6448 59.0618C33.1724 61.6109 34.0346 63.6408 33.8607 67.2113C33.8393 68.0858 33.5407 69.0674 33.7757 69.9212C33.7913 69.9769 33.823 70.0268 33.8669 70.0644C33.9109 70.1021 33.965 70.1258 34.0224 70.1327C34.0799 70.1395 34.1381 70.129 34.1896 70.1027C34.2411 70.0764 34.2836 70.0353 34.3117 69.9848C34.6593 69.1714 34.7988 68.2843 34.7176 67.4035C34.8179 65.0428 34.3692 61.3169 33.2022 59.1683C33.5193 59.1695 33.8302 59.0809 34.0989 58.9125C34.13 58.8926 34.1539 58.8634 34.1673 58.8289C34.1806 58.7945 34.1827 58.7568 34.1731 58.7211C34.1636 58.6855 34.1429 58.6538 34.1141 58.6306C34.0854 58.6075 34.05 58.5941 34.0131 58.5925C31.2121 58.3321 31.6976 56.2953 32.6907 55.9469C33.1387 55.7938 33.5659 56.0442 34.0346 55.9898C34.2574 55.9638 34.3186 55.7853 34.2444 55.5901L34.5675 55.414C35.12 55.0873 35.5742 54.6177 35.8821 54.0545C36.1901 53.4913 36.3404 52.8555 36.3172 52.2141C36.3172 52.4269 38.429 53.5364 39.3892 53.6643C40.4107 53.848 41.4598 53.8094 42.4651 53.551C42.704 54.0533 43.0256 54.5464 43.2308 55.051C44.1804 57.3745 44.4396 59.9225 43.9774 62.3896C43.0179 66.8913 37.3103 65.4954 35.8707 62.1124C35.8256 62.0068 35.6785 62.091 35.7 62.1768C35.9176 63.3362 36.5424 64.3797 37.4616 65.119C38.3808 65.8584 39.534 66.245 40.7131 66.209C40.5002 68.2144 40.6404 70.4809 42.0148 72.0545C42.0661 72.1034 42.1319 72.1342 42.2023 72.1421C42.2727 72.15 42.3437 72.1346 42.4046 72.0983C42.4654 72.062 42.5126 72.0067 42.539 71.941C42.5655 71.8753 42.5696 71.8027 42.5508 71.7344C42.0286 70.2734 41.3402 69.4265 41.0569 66.1661C44.8595 65.9165 45.5746 62.042 45.0892 58.2509C44.8623 56.4515 44.2922 54.7122 43.41 53.1276C43.9608 52.8192 44.4354 52.3912 44.7988 51.875C45.1621 51.3588 45.405 50.7676 45.5096 50.1451Z" fill="#191919"/>
<path d="M29.2105 102.07C31.0975 100.681 32.8736 99.1472 34.5231 97.483C36.7842 95.4156 57.4355 76.2728 58.5665 75.2528C59.5292 74.5029 60.4154 73.6596 61.212 72.7352C61.4892 72.3523 60.9555 71.925 60.5933 72.1165C60.0053 72.4587 62.0536 70.5253 34.8653 95.9685C32.9028 97.8062 30.6631 99.5734 28.9349 101.665C28.7412 101.901 28.9548 102.243 29.2105 102.07Z" fill="#191919"/>
<path d="M31.3007 103.437C41.8844 94.7725 51.4834 84.8986 61.2753 75.3616C61.6168 75.0423 61.1046 74.53 60.7631 74.8501C51.0561 84.5356 40.8545 93.6453 30.8742 103.011C30.597 103.267 31.0074 103.678 31.3007 103.437Z" fill="#191919"/>
<path d="M67.5903 69.0253C70.8009 66.3453 73.6218 63.5275 85.5539 51.5954C85.874 51.2753 85.3617 50.7424 85.0417 51.0839C77.0599 59.4194 70.3514 65.2442 67.1638 68.5988C67.1097 68.6559 67.08 68.7318 67.0811 68.8104C67.0821 68.889 67.1138 68.9641 67.1694 69.0197C67.225 69.0753 67.3001 69.107 67.3787 69.108C67.4573 69.1091 67.5332 69.0794 67.5903 69.0253Z" fill="#191919"/>
<path d="M52.3367 89.9117C55.9698 89.0709 59.2492 87.1157 61.7165 84.3195C64.1838 81.5233 65.7154 78.0259 66.0973 74.3164C66.2038 73.3347 66.4174 73.6548 66.0116 72.7375C65.8584 72.4174 65.4143 72.5461 65.3079 72.8232C65.0093 73.6762 65.18 73.2283 65.0943 74.1456C64.6813 77.6888 63.2447 81.0347 60.96 83.7742C58.6753 86.5136 55.6417 88.5278 52.2303 89.5702C52.0381 89.6345 52.1231 89.976 52.3367 89.9117Z" fill="#191919"/>
<path d="M60.8064 71.0307C61.1511 71.0667 61.484 71.1768 61.7823 71.3533C62.0806 71.5299 62.3372 71.7688 62.5346 72.0537C62.8976 72.5231 62.9397 73.1839 63.3455 73.6112C63.3843 73.6474 63.4305 73.6748 63.481 73.6914C63.5314 73.708 63.5848 73.7134 63.6376 73.7073C63.6903 73.7012 63.7411 73.6837 63.7864 73.656C63.8317 73.6283 63.8704 73.591 63.8999 73.5469C64.622 72.5652 63.1135 70.3186 60.785 70.4319C60.7056 70.4348 60.6305 70.469 60.5764 70.5272C60.5223 70.5854 60.4934 70.6626 60.4963 70.742C60.4991 70.8214 60.5334 70.8965 60.5916 70.9506C60.6497 71.0047 60.727 71.0336 60.8064 71.0307Z" fill="#191919"/>
<path d="M61.8695 69.6034C62.0365 69.7986 62.2524 69.7741 62.4882 69.7956C64.4186 70.085 63.9278 71.1402 64.7923 71.6723C64.8462 71.7028 64.9085 71.7151 64.97 71.7075C65.0314 71.7 65.0888 71.6729 65.1338 71.6302C66.1491 70.5881 63.9967 68.3468 62.3006 69.0268C62.1291 69.111 61.6758 69.3737 61.8695 69.6034Z" fill="#191919"/>
<path d="M63.3669 68.0444C65.6488 68.5337 65.3991 69.7726 65.8172 70.6478C65.852 70.7042 65.9006 70.7507 65.9584 70.783C66.0163 70.8153 66.0814 70.8322 66.1476 70.8322C66.2139 70.8322 66.279 70.8153 66.3368 70.783C66.3946 70.7507 66.4433 70.7042 66.478 70.6478C67.4459 69.3346 65.3968 66.5543 63.2781 67.6393C63.1319 67.7029 63.1717 68.0031 63.3669 68.0444Z" fill="#191919"/>
<path d="M27.8881 108.984C26.6292 108.707 25.5197 108.728 24.7302 107.512C23.9194 106.275 24.218 104.995 24.2394 103.651C24.2712 103.58 24.2876 103.504 24.2876 103.427C24.2876 103.35 24.2712 103.273 24.2394 103.203C24.2318 103.143 24.2047 103.088 24.1623 103.045C24.1199 103.003 24.0646 102.976 24.0051 102.968C21.9605 101.592 20.2182 99.8136 18.8848 97.7411C16.2346 93.1223 17.3534 89.3144 17.2209 87.757C17.1994 87.5219 16.8579 87.3741 16.7301 87.6291C15.9192 89.2715 16.047 91.6184 16.3036 93.3888C16.6101 95.5609 17.4146 97.6328 18.6543 99.4426C19.894 101.252 21.5353 102.751 23.45 103.822C23.2432 104.58 23.2067 105.376 23.3432 106.15C23.4797 106.925 23.7857 107.659 24.2394 108.302C25.0051 109.283 26.9064 110.414 27.9914 109.304C28.0068 109.277 28.0163 109.246 28.0194 109.215C28.0225 109.183 28.0191 109.152 28.0094 109.122C27.9997 109.092 27.9839 109.064 27.9631 109.04C27.9422 109.017 27.9166 108.997 27.8881 108.984Z" fill="#191919"/>
<path d="M26.0534 106.68C25.9462 107.342 26.8849 107.829 27.3972 108.025C29.1714 108.734 29.9241 107.678 29.4876 107.489C28.928 107.35 28.3565 107.264 27.7808 107.233C26.7647 106.961 26.6874 106.535 26.2234 106.571C26.1384 106.574 26.0534 106.617 26.0534 106.68Z" fill="#191919"/>
<path d="M27.6104 105.358C27.6425 106.874 30.8325 107.363 31.0025 105.721C31.0043 105.692 31 105.664 30.9899 105.637C30.9799 105.61 30.9643 105.586 30.9441 105.566C30.924 105.546 30.8998 105.53 30.8732 105.52C30.8465 105.51 30.8181 105.505 30.7896 105.507C30.2988 105.528 29.8707 105.763 29.3814 105.742C28.8683 105.682 28.3813 105.482 27.9733 105.165C27.9381 105.143 27.8976 105.131 27.8559 105.129C27.8143 105.127 27.7729 105.137 27.7361 105.156C27.6993 105.176 27.6682 105.205 27.6462 105.24C27.6241 105.275 27.6117 105.316 27.6104 105.358Z" fill="#191919"/>
<path d="M28.8902 103.566C28.9546 104.714 30.7034 105.421 31.6422 104.888C31.9623 104.696 31.8344 104.142 31.4508 104.184C31.0539 104.256 30.6463 104.241 30.2555 104.142C29.8705 103.978 29.5224 103.738 29.2317 103.437C29.1039 103.331 28.8673 103.371 28.8902 103.566Z" fill="#191919"/>
<path d="M23.7487 88.9515C23.0971 90.5274 22.8684 92.2462 23.0855 93.9377C23.3025 95.6292 23.9577 97.2346 24.9861 98.5949C25.6048 99.4272 26.5015 100.662 27.5681 100.899C27.6539 100.919 27.7438 100.914 27.8269 100.885C27.9099 100.855 27.9828 100.802 28.0367 100.733C28.0906 100.663 28.1234 100.579 28.131 100.491C28.1386 100.404 28.1208 100.315 28.0796 100.237C27.6317 99.4272 26.6715 98.8935 26.0742 98.147C25.0845 96.882 24.3986 95.4066 24.0695 93.8346C23.7404 92.2625 23.7768 90.6359 24.176 89.0801C24.261 88.7808 23.8559 88.6958 23.7487 88.9515Z" fill="#191919"/>
<path d="M21.4658 107.576C18.671 110.435 13.3378 114.403 14.9573 115.811C16.5163 117.154 22.2767 111.565 23.557 109.88C23.8128 109.56 23.3005 109.261 23.021 109.474C21.305 110.867 16.3984 116.271 15.4052 115.277C14.6112 114.457 18.9712 111.309 21.8479 107.981C22.0845 107.683 21.7461 107.342 21.4658 107.576Z" fill="#191919"/>
<path d="M105.864 49.057C104.523 47.4575 102.813 45.622 100.936 44.6833C100.637 44.5301 100.17 44.8755 100.424 45.1955C101.581 46.5804 102.875 47.8453 104.286 48.9713C101.277 49.1244 98.2689 49.1849 95.2612 49.142C91.9969 49.0999 85.1484 48.5448 84.9355 48.6305C84.219 49.0648 83.5836 49.6206 83.058 50.273C82.2923 51.0196 71.7507 61.2388 69.9803 62.9884C68.6786 64.2679 66.9719 65.5697 65.9481 67.1057C65.795 67.3186 66.076 67.5536 66.2896 67.4472C67.8677 66.572 69.2123 64.951 70.5133 63.7136C72.351 61.9854 84.7219 50.0594 85.4049 49.4621C90.8353 50.1911 100.052 50.1566 105.501 49.8886C105.598 49.8902 105.693 49.863 105.775 49.8105C105.857 49.7581 105.921 49.6826 105.96 49.5937C105.998 49.5048 106.01 49.4064 105.993 49.3109C105.976 49.2154 105.931 49.1271 105.864 49.057Z" fill="#191919"/>
<path d="M48.7952 88.9944C48.9546 92.5466 49.3179 96.0867 49.8833 99.5972C49.8833 99.5972 42.3525 103.224 34.7788 101.859L48.7952 88.9944Z" fill="#38A1FF"/>
<path d="M49.7123 80.354C50.478 79.5217 53.8296 76.7062 53.7874 76.5569C53.5241 75.8282 53.203 75.1218 52.8272 74.4443C49.7552 68.7267 41.5628 67.5965 41.5628 67.5965C41.5628 67.5965 42.8217 70.4296 42.8645 70.6471C43.5897 74.7222 39.5574 73.6334 37.7656 73.0974C31.7494 71.3056 33.5626 67.4862 33.5626 67.4862C32.2069 67.7671 30.8679 68.1232 29.5518 68.5528C18.671 72.5667 15.2154 85.0708 15.3004 85.1543C19.0125 89.1865 26.1812 87.6505 26.1812 87.6505C26.842 84.557 27.1 84.0662 27.9944 82.7009C27.2907 87.0954 26.5012 93.7946 28.7601 99.8108L48.7077 81.2928C48.8608 81.1649 48.1104 77.282 47.9611 76.4925C47.9634 76.6664 48.8899 78.1113 49.7123 80.354Z" fill="#38A1FF"/>
<path d="M73.6281 77.7514C73.6173 79.1595 74.2253 80.717 74.5883 82.0822C74.9711 83.5539 75.3134 85.0478 75.8042 86.4981C76.3586 88.1827 77.9161 90.2501 79.8794 89.0801C79.9477 89.0433 80.004 88.9876 80.0418 88.9198C80.0795 88.8519 80.097 88.7747 80.0922 88.6972C79.7671 85.0586 80.0337 81.3913 80.8817 77.8379C81.0096 77.2835 80.1566 77.0484 80.0287 77.6036C79.1732 81.2353 78.8995 84.9797 79.2178 88.6972C79.2821 88.5694 79.3671 88.4415 79.4314 88.3144C77.1059 89.6804 76.2522 85.008 75.8686 83.6642C75.5699 82.5968 75.2499 81.5302 74.9298 80.4635C74.7249 79.4933 74.3949 78.5539 73.9481 77.6687C73.9287 77.6372 73.8998 77.6128 73.8655 77.5991C73.8312 77.5853 73.7934 77.5828 73.7576 77.5921C73.7219 77.6013 73.69 77.6218 73.6667 77.6504C73.6434 77.6791 73.6298 77.7145 73.6281 77.7514Z" fill="#191919"/>
<path d="M99.9971 78.818C100.85 81.2997 101.555 83.8312 102.387 86.3067C102.923 87.9492 103.496 90.4668 105.63 90.6154C106.395 90.6797 106.909 90.4454 107.059 89.6774C107.315 88.4186 107.549 87.1383 107.848 85.8794C108.446 83.2982 109.342 80.802 110.024 78.2422C110.153 77.7943 109.448 77.4528 109.258 77.9221C108.074 81.1436 107.147 84.4536 106.485 87.8213C106.456 88.3652 106.355 88.903 106.186 89.4209C105.205 90.6583 103.989 88.2907 103.712 87.5832C103.329 86.5594 101.13 80.6282 100.404 78.6871C100.296 78.4765 99.916 78.5822 99.9971 78.818Z" fill="#191919"/>
<path d="M116.403 52.7263C116.744 50.3579 116.19 47.6274 113.331 47.3931C110.536 47.158 108.339 49.7392 107.101 51.9154C105.529 54.902 104.613 58.1897 104.414 61.5588C104.415 61.634 104.444 61.7061 104.494 61.7622C104.544 61.8183 104.612 61.8548 104.687 61.865C104.761 61.8752 104.837 61.8586 104.9 61.818C104.964 61.7775 105.01 61.7157 105.032 61.6438C105.867 58.476 106.248 55.2884 107.891 52.3848C108.638 50.9559 109.74 49.743 111.091 48.8625C112.928 47.8173 115.272 48.3502 115.549 50.6757C115.72 52.1903 115.272 53.7906 115.013 55.2631C113.519 63.4424 111.871 65.0857 110.229 67.5513C104.17 63.908 84.1108 64.1821 77.0846 64.6944C67.383 65.4027 67.847 73.3554 72.0285 74.4013C72.3479 74.53 72.4979 74.0392 72.1564 73.9327C69.2766 73.0345 69.7061 69.3882 71.5163 67.7243C73.671 65.7404 76.8074 65.7189 79.5563 65.6569C88.2671 65.4057 97.451 65.1439 106.16 67.1929C108.571 67.7695 112.304 69.049 111.984 72.2068C111.663 75.3853 107.738 75.8976 105.245 75.8547C98.327 75.7084 84.0242 74.7451 75.5057 74.7451C75.3956 74.7498 75.2915 74.7968 75.2153 74.8764C75.139 74.9559 75.0965 75.0618 75.0965 75.172C75.0965 75.2822 75.139 75.3882 75.2153 75.4677C75.2915 75.5472 75.3956 75.5943 75.5057 75.5989C82.845 76.1962 90.2472 76.2812 97.608 76.5806C105.136 76.9182 106.427 76.9841 107.976 76.7506C113.239 75.9129 114.765 70.9005 110.875 67.987C114.321 64.8092 115.805 57.1605 116.403 52.7263Z" fill="#191919"/>
<path d="M71.6869 59.169C71.5337 57.012 70.4541 51.9062 71.4518 49.5899C72.3707 47.4566 74.6525 49.5478 75.5055 50.6573C76.4014 51.8059 76.6365 53.1321 77.2552 54.4093C77.468 54.8151 78.0017 54.5801 78.0209 54.1964C78.2766 51.6788 74.4366 46.1564 71.5123 47.9237C70.147 48.756 70.1685 50.7186 70.1685 52.1053C70.1685 54.4307 70.2963 57.0549 71.1922 59.231C71.3239 59.4469 71.7068 59.4469 71.6869 59.169Z" fill="#191919"/>
<path d="M133.513 31.8192C133.367 29.4606 132.641 27.1744 131.401 25.1629C124.636 13.8885 109.174 15.6849 106.333 27.3176C104.221 35.8936 112.477 45.9206 121.035 46.0064C124.661 46.027 128.907 45.2407 131.361 42.2728C133.641 39.4993 133.684 35.5735 133.513 31.8192ZM115.614 22.1123C115.989 22.036 116.38 22.0811 116.728 22.2409C117.077 22.4008 117.366 22.6672 117.553 23.0017C117.74 23.3363 117.817 23.7217 117.771 24.1024C117.725 24.4831 117.56 24.8394 117.298 25.12C117.055 25.3593 116.748 25.5232 116.413 25.592C116.079 25.6607 115.732 25.6313 115.414 25.5073C115.096 25.3833 114.821 25.1701 114.621 24.8932C114.422 24.6164 114.307 24.2877 114.29 23.9469C114.273 23.537 114.395 23.1335 114.635 22.8009C114.875 22.4682 115.219 22.2257 115.614 22.1123ZM122.164 37.9625C122.115 38.2334 122.01 38.4911 121.856 38.7191C121.702 38.9472 121.502 39.1407 121.269 39.2873C121.036 39.4338 120.775 39.5302 120.503 39.5703C120.231 39.6103 119.953 39.5932 119.688 39.52C119.152 39.3274 118.71 38.9373 118.452 38.4296C118.195 37.9219 118.141 37.3349 118.301 36.7887C118.368 36.5485 118.482 36.3242 118.637 36.129C118.793 35.9339 118.985 35.7718 119.204 35.6525C119.423 35.5332 119.664 35.459 119.912 35.4344C120.16 35.4098 120.41 35.4352 120.648 35.5092C121.158 35.6614 121.593 35.9955 121.873 36.4479C122.152 36.9004 122.256 37.4396 122.164 37.9633V37.9625ZM123.379 24.2233C119.704 30.1783 118.966 31.5145 114.163 38.6662C114.1 38.7624 114.002 38.8299 113.89 38.8539C113.778 38.8779 113.661 38.8564 113.565 38.7941C113.469 38.7319 113.402 38.634 113.378 38.522C113.354 38.41 113.375 38.293 113.437 38.1969C118.701 28.6063 117.561 30.7955 121.928 23.3703C122.291 22.7509 122.441 22.3458 123.166 22.175C123.304 22.14 123.451 22.1604 123.575 22.2319C123.698 22.3034 123.789 22.4204 123.827 22.5579C124.002 23.2899 123.763 23.6054 123.379 24.2241V24.2233Z" fill="#38A1FF"/>
<path d="M51.9923 146.383C50.4609 144.469 46.5259 143.098 44.0564 142.519C44.2704 142.259 44.4366 141.964 44.5473 141.647C46.8394 136.62 48.4259 131.3 49.2618 125.838C50.2606 120.271 50.6967 114.618 50.5635 108.963C50.5724 106.244 50.2789 103.532 49.6883 100.877C49.6681 100.81 49.6241 100.751 49.5645 100.713C49.5048 100.675 49.4335 100.66 49.3635 100.671C49.2936 100.681 49.2297 100.716 49.1836 100.77C49.1375 100.823 49.1122 100.892 49.1124 100.962C49.6183 105.924 49.6826 110.921 49.3046 115.894C48.5167 126.412 46.6591 132.684 43.8007 141.388C43.6399 141.851 43.3513 142.258 42.9684 142.562C40.7976 143.94 38.2921 142.725 38.3817 142.455C38.8702 137.81 40.2317 128.734 38.8297 118.327C38.8297 118.255 38.8014 118.187 38.7512 118.137C38.7009 118.087 38.6327 118.059 38.5617 118.059C38.4906 118.059 38.4224 118.087 38.3722 118.137C38.3219 118.187 38.2937 118.255 38.2937 118.327C38.3365 122.444 38.5073 126.561 38.3151 130.679C37.8557 140.666 36.4942 142.155 38.2102 143.454C37.8067 144.603 38.3633 145.63 38.7845 146.637L38.8695 146.79C40.8824 147.726 43.0648 148.243 45.2839 148.309C47.503 148.375 49.7123 147.988 51.7771 147.173C51.8513 147.144 51.9176 147.098 51.9708 147.039C52.024 146.98 52.0626 146.909 52.0835 146.832C52.1044 146.755 52.1071 146.675 52.0912 146.597C52.0754 146.519 52.0415 146.446 51.9923 146.383Z" fill="#191919"/>
<path d="M40.8164 107.64C36.8109 118.417 33.026 126.028 23.77 133.647C21.6368 135.396 15.1083 138.956 14.1703 137.829C14.0822 137.723 13.1036 136.804 13.7216 135.802C17.3258 130 21.7868 126.23 24.9439 117.838C25.7754 115.662 26.8421 113.059 26.8 110.692C26.8 110.478 26.4546 110.348 26.352 110.563C25.7846 111.749 25.3926 114.047 24.0687 117.156C19.4813 127.929 12.0868 134.802 12.1465 136.04C11.4079 136.058 10.7013 136.345 10.1595 136.847C8.64411 138.874 8.81487 145.806 10.8632 149.071C10.9235 149.169 11.0155 149.244 11.1242 149.283C11.2328 149.322 11.3514 149.322 11.4604 149.284C14.2491 148.321 15.2645 143.887 16.0777 139.3C16.4019 139.296 16.7232 139.238 17.0287 139.13C17.1144 139.087 21.5939 136.484 23.4714 135.055C25.5191 133.489 27.4394 131.762 29.2143 129.892C35.0252 123.606 39.3085 116.064 41.7314 107.854C41.9044 107.277 41.03 107.064 40.8164 107.64Z" fill="#191919"/>
<path d="M74.9514 45.6006C72.9 40.0047 70.8119 32.9495 74.0325 27.4026C75.6321 24.6506 78.2991 23.2854 81.3711 22.7096C88.722 21.3604 96.9266 22.4163 103.644 22.5564C104.071 22.5564 104.199 21.852 103.751 21.7907C96.4327 20.7026 88.5604 20.1904 81.2432 21.5556C78.2776 22.1108 75.5678 23.3267 73.7546 25.823C72.1138 28.1937 71.2762 31.0279 71.3648 33.9097C71.4069 38.1556 73.093 41.8463 74.5861 45.7078C74.6527 45.9429 75.0402 45.8349 74.9514 45.6006Z" fill="#191919"/>
<path d="M103.754 40.9496C103.284 40.2896 99.274 37.1524 97.8444 36C85.6351 26.1713 87.9468 27.6537 86.7086 26.8268C85.8478 25.9041 84.6593 25.3559 83.3986 25.3001C82.1379 25.2442 80.9056 25.6852 79.9665 26.5281C76.4887 29.4294 80.0094 32.6294 80.0308 32.6722C83.2736 36.4181 88.3978 40.7888 92.234 43.8938C93.7294 45.2236 95.3194 46.443 96.9914 47.5424C97.0575 47.5763 97.1307 47.5941 97.205 47.5945C97.2793 47.5948 97.3526 47.5777 97.419 47.5444C97.4855 47.5112 97.5431 47.4627 97.5874 47.4031C97.6316 47.3434 97.6612 47.2741 97.6737 47.2009C97.7165 47.1151 94.3045 42.785 99.2311 40.8217C99.8724 40.5304 100.594 40.4668 101.276 40.6414C101.958 40.816 102.561 41.2184 102.983 41.7819C103.839 42.9345 104.234 44.3644 104.093 45.7927C104.079 45.8444 104.085 45.8992 104.108 45.9471C104.132 45.9951 104.172 46.0328 104.221 46.0536C104.27 46.0743 104.325 46.0766 104.376 46.0601C104.427 46.0436 104.47 46.0093 104.498 45.9635C105.629 44.4275 104.71 42.2957 103.754 40.9496Z" fill="#191919"/>
<path d="M100.146 141.647C101.142 137.231 102.884 134.985 107.677 133.497C107.764 133.468 107.839 133.41 107.888 133.332C107.936 133.254 107.956 133.161 107.944 133.07C107.931 132.978 107.887 132.895 107.818 132.833C107.75 132.771 107.662 132.735 107.571 132.731C103.24 132.348 98.7809 137.402 99.6132 141.649C99.6768 141.903 100.103 141.903 100.146 141.647Z" fill="#191919"/>
<path d="M106.12 141.604C107.245 140.728 108.083 139.599 109.363 138.895C110.636 138.273 112.007 137.876 113.416 137.721C113.495 137.699 113.564 137.651 113.613 137.586C113.662 137.52 113.689 137.441 113.689 137.359C113.689 137.277 113.662 137.197 113.613 137.132C113.564 137.067 113.495 137.019 113.416 136.996C110.664 136.399 106.312 138.468 105.759 141.412C105.754 141.456 105.763 141.5 105.783 141.539C105.804 141.578 105.836 141.61 105.875 141.63C105.914 141.651 105.958 141.66 106.002 141.655C106.045 141.65 106.087 141.633 106.12 141.604Z" fill="#191919"/>
<path d="M95.7909 142.009C96.8783 139.415 97.242 136.057 95.8767 133.498C95.8361 133.427 95.7732 133.372 95.6978 133.342C95.6225 133.311 95.5391 133.306 95.4608 133.328C95.3825 133.35 95.3137 133.397 95.2653 133.463C95.217 133.528 95.1918 133.608 95.1937 133.689C95.4579 136.026 96.0781 138.167 95.0444 141.839C94.9196 142.287 95.6056 142.459 95.7909 142.009Z" fill="#191919"/>
<path d="M85.913 140.133C85.9598 137.51 85.0936 134.954 83.4627 132.9C81.9482 131.023 79.4098 129.124 76.8707 129.148C76.5721 129.148 76.4013 129.617 76.7 129.745C77.7556 130.125 78.7823 130.581 79.772 131.11C81.351 132.045 82.6739 133.357 83.6225 134.928C84.5712 136.499 85.1161 138.28 85.2086 140.113C85.2059 140.206 85.2405 140.297 85.3047 140.365C85.3689 140.433 85.4574 140.472 85.5508 140.475C85.6443 140.478 85.7349 140.443 85.8028 140.379C85.8707 140.315 85.9104 140.226 85.913 140.133Z" fill="#191919"/>
<path d="M77.7246 140.751C76.8665 139.619 76.3551 138.262 76.2521 136.845C76.2869 135.555 76.473 134.274 76.8065 133.027C76.8708 132.644 76.4014 132.261 76.1028 132.621C73.9481 135.054 75.164 139.256 76.9987 141.475C77.426 141.989 78.112 141.26 77.7246 140.751Z" fill="#191919"/>
<path d="M71.5797 139.896C70.278 137.24 66.9295 135.054 63.9226 136.205C63.5175 136.355 63.5397 137.016 64.029 137.016C65.351 136.952 66.6704 137.185 67.8905 137.698C69.1254 138.249 70.1554 139.175 70.8347 140.344C71.1103 140.836 71.8316 140.411 71.5797 139.896Z" fill="#191919"/>
<path d="M117.576 142.499C120.15 140.457 122.745 140.974 124.168 140.921C124.262 140.918 124.353 140.885 124.427 140.827C124.501 140.768 124.554 140.687 124.578 140.596C124.602 140.504 124.596 140.408 124.56 140.32C124.525 140.233 124.462 140.159 124.382 140.11C121.993 138.894 118.792 140.238 116.936 141.859C116.488 142.244 117.124 142.859 117.576 142.499Z" fill="#191919"/>
<path d="M138.733 12.5983C138.749 12.4137 138.694 12.23 138.581 12.0837C138.467 11.9373 138.303 11.8389 138.12 11.8081C138.107 11.8081 135.35 11.9727 130.77 12.2468C128.648 11.4926 124.574 10.4504 117.02 7.2758L118.152 7.24211C118.344 6.47639 119.071 4.59656 119.261 3.82855C107.793 4.41126 104.884 4.60652 104.288 4.60958C103.978 5.3753 103.205 7.05987 102.919 7.71149C106.84 7.59612 110.762 7.47463 114.683 7.34701C119.14 9.26449 123.693 10.9488 128.325 12.3931L110.591 13.4551C108.771 12.6503 104.635 11.7705 96.098 8.19159L97.18 8.15943C97.3722 7.39372 98.0988 5.51389 98.2895 4.74588C86.8214 5.32935 83.9124 5.52384 83.3167 5.52691C83.0066 6.28879 82.2332 7.97719 81.9476 8.62882C85.8839 8.51345 89.8204 8.39144 93.7572 8.2628C98.464 10.2881 103.272 12.0697 108.162 13.6006C101.73 13.9835 94.7856 14.4 87.8704 14.812C86.169 13.9758 82.051 13.1779 73.1687 9.45196L74.2514 9.4198C74.4436 8.65408 75.1703 6.77426 75.361 6.00624C63.8883 6.58512 60.9785 6.78268 60.3828 6.78574C60.0765 7.54763 59.3001 9.23603 59.0145 9.88765C62.9513 9.77228 66.8878 9.65028 70.8241 9.52164C73.1879 10.5523 81.2378 13.7032 85.6315 14.946C78.4904 15.3709 71.4451 15.7882 65.1042 16.165C63.1179 15.3993 58.9494 14.3992 50.9293 11.0347L52.0595 11.001C52.2517 10.2353 52.9784 8.35546 53.169 7.58744C41.7009 8.17015 38.7912 8.36464 38.1955 8.36847C37.8892 9.12959 37.1128 10.8188 36.8271 11.4704C40.7486 11.355 44.6698 11.2335 48.5908 11.1059C50.8236 12.0807 58.1347 14.9444 62.6509 16.3128C55.1813 16.7546 48.868 17.1244 44.8097 17.3572C44.7898 17.2784 44.7684 17.2 44.7454 17.1221C44.7239 17.063 44.6848 17.0119 44.6333 16.9758C44.5818 16.9397 44.5204 16.9203 44.4575 16.9203C44.3946 16.9203 44.3332 16.9397 44.2817 16.9758C44.2302 17.0119 44.191 17.063 44.1696 17.1221C43.9774 17.4851 44.724 39.5231 45.1933 41.4642C45.2791 41.7842 45.8335 41.8271 45.8978 41.4642C46.1964 39.5017 45.0234 18.5088 44.874 17.6979C50.9561 17.6811 58.542 17.4629 66.9649 17.1175C61.345 18.8073 56.1082 21.5759 51.5472 25.2686C49.5821 27.0575 47.7228 28.9594 45.979 30.9647C45.8725 31.1355 46.4269 36.9373 49.3925 39.3707C51.5901 41.1839 54.705 43.6373 57.6913 43.3386C57.7623 43.359 57.8373 43.3611 57.9093 43.3448C57.9813 43.3285 58.0481 43.2943 58.1034 43.2454C58.1587 43.1965 58.2008 43.1344 58.2258 43.0649C58.2508 42.9954 58.2579 42.9208 58.2465 42.8478C57.0711 34.8844 58.4961 28.4593 64.0919 22.623C65.7352 21.0594 67.5207 19.6523 69.4251 18.42C69.7452 18.1857 69.5706 17.5563 69.1265 17.7163C64.7995 19.2761 61.2756 23.3489 59.1638 27.336C56.758 31.9549 56.0844 37.2823 57.2648 42.3547C56.056 42.0655 54.8719 41.6815 53.7234 41.2061C51.0671 39.9272 48.956 37.7403 47.7715 35.0406C47.2825 33.7686 46.9111 32.4545 46.662 31.1148C49.3565 28.859 54.166 22.7555 65.628 18.6336C67.6604 17.9456 69.7289 17.369 71.8241 16.9062C90.212 16.0807 135.149 13.4452 137.569 13.1389C137.522 15.8771 137.767 18.6298 137.886 21.3649C139.637 62.029 138.151 95.4631 138.369 102.301C116.363 100.737 60.3499 96.7633 54.1491 96.6147C53.8298 96.6071 53.8298 97.1002 54.1491 97.1262C62.2849 97.7901 75.1634 98.797 88.4531 99.8239C88.5175 113.261 88.581 125.696 88.6453 139.133C88.6239 140.754 92.101 140.606 92.9119 140.243C92.8698 129.05 93.3713 111.498 93.3392 100.201C114.254 101.809 134.884 103.372 138.503 103.633C138.642 103.652 138.783 103.618 138.897 103.538C139.012 103.457 139.092 103.337 139.121 103.2C140.764 101.193 142.124 99.2947 143.792 97.2756C143.92 70.9924 143.984 16.0141 143.984 16.0141C141.984 15.3152 140.183 14.1434 138.733 12.5983Z" fill="#191919"/>
<path d="M38.1951 8.36465C38.2099 8.32942 38.2229 8.2965 38.2342 8.26587C38.1377 8.32636 37.9202 8.36618 38.1951 8.36465Z" fill="#191919"/>
<path d="M60.3827 6.78576L60.4225 6.68774C60.3253 6.74824 60.1086 6.78729 60.3827 6.78576Z" fill="#191919"/>
<path d="M83.3177 5.52691L83.3567 5.42889C83.2602 5.48939 83.0428 5.52844 83.3177 5.52691Z" fill="#191919"/>
<path d="M104.29 4.60961L104.329 4.5116C104.231 4.57209 104.014 4.61114 104.29 4.60961Z" fill="#191919"/>
</svg>
