<svg width="154" height="154" viewBox="0 0 154 154" fill="none" xmlns="http://www.w3.org/2000/svg">
<path d="M43.1744 92.1891C48.2733 88.2879 49.5928 81.4477 46.1218 76.9116C42.6514 72.3755 35.7039 71.861 30.6051 75.7623C25.5062 79.6635 24.1874 86.5037 27.6577 91.0397C31.1287 95.5758 38.0755 96.0903 43.1744 92.1891Z" fill="#FFE55D"/>
<path d="M39.9115 71.0614C38.1182 70.6911 36.2663 70.7095 34.4807 71.1154C32.6951 71.5214 31.0173 72.3054 29.5604 73.4146C24.1609 77.4645 22.8897 85.2424 27.4472 91.1986C33.1587 98.6629 46.2195 94.6888 48.1211 84.8345C49.0764 79.8936 45.8116 72.4101 39.9115 71.0614ZM47.6035 84.7356C45.7909 94.1337 33.2883 97.9628 27.8682 90.8773C24.4945 86.4646 25.7918 79.7771 30.7672 75.9702C35.5617 72.302 42.4057 72.4868 45.9136 77.0697C46.7271 78.1526 47.2989 79.3974 47.5904 80.7201C47.8819 82.0428 47.8864 83.4126 47.6035 84.7372V84.7356Z" fill="#4B1010"/>
<path d="M31.3689 76.644C26.4356 80.4179 25.4649 86.7536 28.5227 90.7522C33.6085 97.3999 45.4625 93.7632 47.2766 84.8528C49.0654 76.0697 39.0969 70.7293 31.3689 76.644ZM35.165 93.6168C33.9555 93.5833 32.7688 93.2799 31.6916 92.7288C30.6144 92.1778 29.6739 91.3929 28.939 90.4317C28.2041 89.4706 27.6928 88.3576 27.4425 87.1739C27.1922 85.9902 27.2092 84.7655 27.4922 83.5892C29.2189 75.1067 40.5108 71.6371 45.3091 77.9061C50.1074 84.175 43.7841 94.1719 35.165 93.6168Z" fill="white"/>
<path d="M38.854 78.8361L45.4212 85.2523L41.8735 85.5544L34.627 78.8361H38.854Z" fill="white"/>
<path d="M41.8741 85.8182C41.7123 85.8182 41.8158 85.8695 34.4474 79.0294C34.4179 79.0023 34.3949 78.969 34.3801 78.9318C34.3653 78.8947 34.3591 78.8546 34.362 78.8147C34.3649 78.7748 34.3768 78.7361 34.3967 78.7015C34.4167 78.6668 34.4442 78.6371 34.4773 78.6146C34.5216 78.5845 34.574 78.5687 34.6275 78.5693C39.228 78.5693 38.929 78.5371 39.0394 78.646L45.6066 85.0622C45.6431 85.0975 45.6686 85.1425 45.68 85.1919C45.6915 85.2414 45.6885 85.2931 45.6713 85.3408C45.6542 85.3886 45.6236 85.4303 45.5833 85.4612C45.543 85.492 45.4946 85.5105 45.4441 85.5145L41.8741 85.8182ZM35.3007 79.0999L41.9715 85.2807L44.8284 85.0376L38.7503 79.0999H35.3007Z" fill="#4B1010"/>
<path d="M33.5699 79.2885L40.8172 86.1578L39.8357 89.3283L32.7402 82.5349L33.5699 79.2885Z" fill="white"/>
<path d="M39.8361 89.5928C39.6705 89.5928 39.7778 89.635 32.5574 82.7251C32.3994 82.5717 32.4285 82.6875 33.3149 79.2233C33.3321 79.156 33.3752 79.0982 33.4348 79.0624C33.4943 79.0267 33.5656 79.0159 33.6331 79.0324C33.6779 79.0431 33.7191 79.0653 33.7527 79.0968L40.9985 85.9661C41.0343 86 41.0599 86.0432 41.0725 86.0909C41.0851 86.1386 41.0842 86.1888 41.0698 86.236C40.0454 89.5399 40.1106 89.5928 39.8361 89.5928ZM33.0343 82.4506L39.7096 88.8422L40.5162 86.2352L33.7152 79.7884L33.0343 82.4506Z" fill="#4B1010"/>
<path d="M31.9093 83.3653L38.8537 89.9325L35.6832 90.4608L28.2856 83.6666L31.9093 83.3653Z" fill="white"/>
<path d="M35.6835 90.7245C35.5233 90.7245 35.6283 90.7828 28.1073 83.8614C28.0784 83.8355 28.0556 83.8036 28.0405 83.7679C28.0253 83.7323 28.0183 83.6937 28.0197 83.655C28.0212 83.6162 28.0312 83.5783 28.0489 83.5439C28.0667 83.5095 28.0919 83.4794 28.1226 83.4558C28.1636 83.4242 28.2129 83.4053 28.2645 83.4013C32.1979 83.0755 31.9686 83.0548 32.0913 83.1713L39.0357 89.7385C39.0716 89.7722 39.0973 89.8153 39.1099 89.8628C39.1226 89.9104 39.1216 89.9605 39.1073 90.0076C39.0929 90.0546 39.0657 90.0967 39.0287 90.1291C38.9916 90.1615 38.9463 90.1829 38.8977 90.1909L35.6835 90.7245ZM28.9085 83.8798L35.7671 90.1786L38.2859 89.7592L31.8137 83.6359L28.9085 83.8798Z" fill="#4B1010"/>
<path d="M85.3529 77.1357C87.7904 73.9613 87.4615 69.6185 84.6184 67.4348C81.7745 65.2511 77.4938 66.0546 75.0563 69.229C72.6188 72.4033 72.9477 76.7462 75.7916 78.9299C78.6347 81.1136 82.9154 80.31 85.3529 77.1357Z" fill="#FFE55D"/>
<path d="M87.2283 71.8933C86.9982 68.8762 84.0363 64.7388 80.0009 64.9006C78.8415 64.9647 77.7095 65.2777 76.6819 65.8183C75.6543 66.3589 74.7551 67.1144 74.0456 68.0335C70.8076 72.3074 73.2274 77.2912 75.6297 79.1391C80.3536 82.7651 87.7121 78.2604 87.2283 71.8933ZM85.1427 76.9746C82.7029 80.1527 78.5694 80.7316 75.9517 78.7197C73.1147 76.5437 73.0104 72.3265 75.2616 69.3891C77.5274 66.4379 81.6333 65.4787 84.4526 67.644C87.2873 69.8185 87.4 74.0349 85.1427 76.9746Z" fill="#4B1010"/>
<path d="M86.6481 72.0298C86.287 66.3329 79.282 64.7833 75.5793 69.6038C73.2093 72.6908 73.6326 76.7216 76.1789 78.6768C80.4129 81.9278 87.0062 77.6992 86.6481 72.0298ZM84.6791 76.5912C81.2878 81.0085 74.887 79.6782 74.558 74.4543C74.2299 69.2688 80.2749 65.2625 84.1784 68.2597C86.4932 70.0378 86.8682 73.7451 84.6791 76.5912Z" fill="white"/>
<path d="M80.5217 69.7779L85.5799 72.5704L83.466 73.3256L78.0312 70.4572L80.5217 69.7779Z" fill="white"/>
<path d="M77.5024 70.9104L82.9372 73.9291L82.8613 75.9679L77.5024 73.0236V70.9104Z" fill="white"/>
<path d="M77.1254 73.6277L82.4098 76.4961L80.5221 77.3265L75.0122 74.3822L77.1254 73.6277Z" fill="white"/>
<path d="M32.4424 76.5054C41.2209 62.9386 57.5918 49.3993 73.1721 42.8153C73.2359 42.7918 73.3063 42.7938 73.3687 42.8209C73.4311 42.848 73.4806 42.898 73.5071 42.9607C73.5335 43.0233 73.5348 43.0938 73.5107 43.1574C73.4866 43.2209 73.4389 43.2728 73.3776 43.3022C58.1262 49.7428 41.4755 63.5183 32.8856 76.793C32.8457 76.8477 32.7864 76.885 32.7199 76.8973C32.6533 76.9096 32.5846 76.896 32.5278 76.8591C32.471 76.8223 32.4305 76.7651 32.4146 76.6993C32.3987 76.6335 32.4087 76.5641 32.4424 76.5054Z" fill="#FFE55D"/>
<path d="M37.045 85.264C49.8958 64.5257 64.1274 50.3708 80.5534 41.9902C80.6154 41.9623 80.6857 41.9594 80.7497 41.9819C80.8138 42.0045 80.8668 42.0508 80.8976 42.1113C80.9285 42.1718 80.9348 42.2419 80.9155 42.307C80.8961 42.3721 80.8524 42.4272 80.7934 42.461C64.4555 50.7971 50.2922 64.8891 37.4936 85.5423C37.4753 85.5718 37.4514 85.5973 37.4233 85.6175C37.3951 85.6378 37.3632 85.6522 37.3295 85.6601C37.2957 85.668 37.2608 85.6692 37.2266 85.6636C37.1924 85.658 37.1596 85.6457 37.1302 85.6274C37.1007 85.6091 37.0751 85.5852 37.0549 85.5571C37.0347 85.5289 37.0202 85.4971 37.0123 85.4633C37.0044 85.4296 37.0032 85.3946 37.0089 85.3604C37.0145 85.3262 37.0268 85.2934 37.045 85.264Z" fill="#FFE55D"/>
<path d="M56.0303 125.9C59.8816 99.8021 70.8741 75.2772 87.7929 55.0364C87.8381 54.983 87.9024 54.9496 87.9721 54.9435C88.0417 54.9373 88.111 54.9588 88.1648 55.0034C88.1914 55.0257 88.2134 55.0529 88.2294 55.0837C88.2455 55.1144 88.2553 55.148 88.2584 55.1825C88.2615 55.2171 88.2577 55.2519 88.2473 55.285C88.2369 55.318 88.2201 55.3488 88.1978 55.3753C71.3426 75.541 60.3908 99.9741 56.5525 125.974C56.5446 126.026 56.5218 126.073 56.487 126.111C56.4522 126.15 56.4068 126.177 56.3567 126.189C56.3065 126.202 56.2537 126.2 56.205 126.182C56.1562 126.165 56.1136 126.134 56.0825 126.093C56.0405 126.038 56.0218 125.969 56.0303 125.9Z" fill="#FFE55D"/>
<path d="M53.6923 111.156C56.7134 98.9162 61.423 87.156 67.6855 76.214C67.7027 76.1838 67.7257 76.1573 67.7532 76.136C67.7807 76.1147 67.8121 76.099 67.8456 76.0898C67.8791 76.0806 67.9141 76.0781 67.9486 76.0824C67.9831 76.0868 68.0164 76.0979 68.0467 76.1151C68.0769 76.1323 68.1034 76.1553 68.1247 76.1828C68.146 76.2103 68.1617 76.2417 68.1709 76.2752C68.1801 76.3087 68.1826 76.3437 68.1782 76.3782C68.1739 76.4127 68.1628 76.446 68.1456 76.4763C61.9074 87.377 57.2164 99.0929 54.2076 111.287C54.1946 111.338 54.1668 111.383 54.1277 111.419C54.0886 111.454 54.04 111.476 53.9881 111.484C53.9361 111.492 53.883 111.484 53.8356 111.461C53.7881 111.438 53.7484 111.402 53.7215 111.357C53.7036 111.327 53.6918 111.294 53.6868 111.26C53.6818 111.225 53.6837 111.19 53.6923 111.156Z" fill="#FFE55D"/>
<path d="M69.8409 121.764C70.8867 109.346 74.1699 97.2187 79.5318 85.9686C79.5511 85.9297 79.5796 85.8961 79.6148 85.8707C79.65 85.8453 79.6908 85.8289 79.7338 85.8229C79.7768 85.8168 79.8206 85.8213 79.8614 85.8361C79.9023 85.8508 79.9389 85.8752 79.9681 85.9073C80.0027 85.9465 80.025 85.9951 80.0322 86.0469C80.0395 86.0987 80.0313 86.1515 80.0088 86.1987C74.6758 97.3917 71.4108 109.457 70.3715 121.812C70.3684 121.847 70.3584 121.881 70.3422 121.912C70.326 121.943 70.3038 121.97 70.277 121.992C70.2501 122.015 70.2191 122.032 70.1858 122.042C70.1524 122.053 70.1173 122.057 70.0824 122.053C70.0476 122.05 70.0137 122.04 69.9827 122.024C69.9517 122.008 69.9242 121.986 69.9018 121.959C69.8794 121.932 69.8625 121.901 69.852 121.868C69.8416 121.834 69.8378 121.799 69.8409 121.764Z" fill="#FFE55D"/>
<path d="M88.8305 20.7336C90.5066 18.6051 87.6443 13.5545 82.4373 9.45316C77.2295 5.35182 71.6491 3.75315 69.9723 5.88241C68.2961 8.0109 71.1584 13.0615 76.3654 17.1628C81.5732 21.2634 87.1536 22.8621 88.8305 20.7336Z" fill="white"/>
<path d="M88.4453 15.7021C85.915 11.2335 79.8907 6.49193 74.9505 5.07651C69.8501 3.61508 67.7392 6.2964 70.3554 10.9122C73.6071 16.6521 81.7462 21.9458 86.3597 21.945C89.2097 21.945 90.7877 19.8364 88.4453 15.7021ZM88.6224 20.5694C86.1918 23.6564 74.8777 17.8183 70.817 10.6515C69.2121 7.81917 69.2068 5.20762 72.4356 5.20762C76.8451 5.20762 84.8324 10.4031 87.9852 15.9643C89.117 17.964 89.3516 19.6432 88.6224 20.5694Z" fill="#FFE55D"/>
<path d="M128.304 47.7561C130.006 45.5946 127.032 40.4129 121.661 36.1835C116.29 31.9534 110.555 30.2765 108.853 32.438C107.151 34.5994 110.125 39.7804 115.496 44.0105C120.867 48.2407 126.602 49.9175 128.304 47.7561Z" fill="white"/>
<path d="M113.954 31.6605C108.719 30.127 106.577 32.849 109.292 37.5798C113.529 44.9613 125.589 51.629 128.511 47.9202C131.523 44.0957 121.892 33.9807 113.954 31.6605ZM128.096 47.5936C125.648 50.6989 114.019 44.7566 109.75 37.3191C108.105 34.4538 108.034 31.7633 111.324 31.7633C114.598 31.7633 118.877 34.3296 121.496 36.3929C126.656 40.4544 129.678 45.5839 128.096 47.5936Z" fill="#FFE55D"/>
<path d="M74.936 15.8057C76.5405 15.3239 77.9955 14.4406 79.1631 13.2394C79.274 13.1308 79.4231 13.07 79.5783 13.07C79.7335 13.07 79.8826 13.1308 79.9935 13.2394L80.0702 13.3161C80.3002 13.6941 79.9935 14.0713 79.8402 14.3734C79.6216 14.7822 79.4446 15.212 79.3119 15.6562C78.9666 16.6781 78.9134 17.7762 79.1585 18.8267L74.936 15.8057Z" fill="#FFE55D"/>
<path d="M113.1 24.6693C115.266 21.9182 111.527 15.3602 104.747 10.0205C97.9685 4.68166 90.7158 2.58307 88.5498 5.33493C86.3829 8.08526 90.1224 14.6433 96.902 19.9829C103.682 25.3218 110.933 27.4204 113.1 24.6693Z" fill="white"/>
<path d="M94.9919 4.38955C88.4316 2.49261 85.7587 5.88701 89.1409 11.8193C94.4276 21.0901 109.613 29.5197 113.307 24.8326C117.103 20.009 104.966 7.27559 94.9919 4.38955ZM112.892 24.506C109.609 28.6748 94.8232 20.7175 89.5994 11.5571C88.0789 8.89036 87.7791 6.7381 88.756 5.4998C89.1269 5.10211 89.5841 4.79476 90.0924 4.60137C90.6007 4.40797 91.1465 4.33367 91.688 4.38418C95.8361 4.38418 101.238 7.59532 104.583 10.2299C111.238 15.4721 114.966 21.8737 112.892 24.506Z" fill="#FFE55D"/>
<path d="M119.02 40.6407C119.514 40.1499 118.803 39.7275 118.492 39.9613C117.426 41.2086 116.128 42.2365 114.669 42.9877C107.462 39.0466 103.526 34.2874 99.1678 27.2041C98.6235 26.494 98.191 25.7048 97.885 24.864C97.5829 24.0092 97.5829 23.0766 97.885 22.2218C96.9094 22.0975 95.9622 21.8068 95.0849 21.3623C95.0411 21.7868 94.9424 22.2038 94.7912 22.6029C93.9608 24.4899 90.64 23.5836 89.0544 23.2063C80.8019 21.2128 78.0071 16.7495 75.2407 15.9598C74.9721 15.8814 74.6866 15.8824 74.4187 15.9628C74.1508 16.0433 73.9119 16.1996 73.7309 16.4129C72.6812 17.8835 74.789 19.9239 76.3731 20.7151C76.6223 20.87 76.9106 20.9498 77.2035 20.9452C77.4185 20.8748 77.6218 20.773 77.807 20.6431C78.4863 20.413 79.7698 21.8507 79.996 22.3038C83.0201 24.7909 85.5325 27.8415 87.3936 31.2863C87.9302 32.4116 88.5885 33.4748 89.3565 34.4568C90.7793 35.8639 92.593 36.8097 94.5612 37.1711C95.9452 37.3822 97.3088 37.7106 98.6372 38.1526C100.74 38.996 104.57 39.4913 110.489 43.4362C112.3 44.5687 113.886 47.2109 116.15 47.362C116.422 47.4084 116.701 47.3761 116.955 47.2691C117.209 47.1621 117.428 46.9847 117.584 46.7578C117.711 46.5189 117.767 46.2491 117.747 45.9795C117.726 45.71 117.629 45.4518 117.468 45.235C117.318 43.7721 118.011 42.155 119.02 40.6407Z" fill="#FFE55D"/>
<path d="M94.8682 21.2404C94.9402 21.2825 95.0137 21.3231 95.0873 21.3622C95.0919 21.2979 95.0942 21.232 95.0942 21.1653L94.8682 21.2404Z" fill="#FFE55D"/>
<path d="M118.292 39.7881C117.27 40.962 116.051 41.9481 114.689 42.7017C107.549 38.7706 103.707 34.0788 99.3736 27.0447C98.8468 26.3559 98.4274 25.5912 98.13 24.7766C97.8501 23.9801 97.8501 23.1119 98.13 22.3154C98.1439 22.2785 98.1492 22.239 98.1454 22.1998C98.1417 22.1606 98.1291 22.1228 98.1085 22.0892C98.0883 22.0556 98.0609 22.0269 98.0283 22.0052C97.9957 21.9834 97.9587 21.9692 97.9199 21.9634C97.0296 21.8494 96.1631 21.5944 95.3528 21.2082C95.0162 21.0111 94.8452 21.1959 94.8023 21.5149C94.7479 21.8499 94.6619 22.1791 94.5454 22.4979C93.8277 24.1287 90.8121 23.3612 89.1122 22.951C86.9754 22.448 84.9133 21.6683 82.9782 20.6316C81.6895 19.9458 80.4665 19.143 79.3247 18.2332C79.2006 17.3955 79.2824 16.5402 79.5631 15.7413C79.6889 15.3088 79.8614 14.8902 80.0761 14.4945C80.2701 14.1112 80.5944 13.6833 80.2532 13.1328C80.1795 13.0385 80.0868 12.9606 79.9811 12.9042C79.8755 12.8479 79.7592 12.8142 79.6398 12.8054C79.5202 12.7972 79.4001 12.8143 79.2876 12.8557C79.175 12.8971 79.0724 12.9617 78.9865 13.0454C77.9493 14.0875 76.7042 14.8995 75.3322 15.4284C74.4719 15.7006 73.9774 15.6999 73.5112 16.2604C72.3611 17.8705 74.4581 20.0588 76.2217 20.9375C76.5369 21.1383 76.9099 21.2286 77.2821 21.1944C77.506 21.1223 77.7183 21.0188 77.9131 20.8877C78.3847 20.7873 79.5286 21.9711 79.7533 22.4212C80.7714 23.2664 81.7418 24.1675 82.66 25.1201C84.3966 27.0295 85.9026 29.1364 87.1471 31.3975C87.6978 32.5497 88.3736 33.6379 89.1621 34.6424C90.626 36.0895 92.4917 37.0623 94.5163 37.4341C95.8811 37.6427 97.2252 37.9655 98.5356 38.4002C100.647 39.2437 104.427 39.7175 110.344 43.6632C112.198 44.821 113.836 47.6426 116.369 47.6426C116.648 47.6502 116.924 47.588 117.172 47.4615C117.42 47.3351 117.633 47.1485 117.79 46.9188C117.949 46.6499 118.027 46.3408 118.015 46.0286C118.002 45.7163 117.9 45.4144 117.72 45.1591C117.608 43.9323 118.109 42.4755 119.2 40.8324C119.936 40.1009 118.916 39.3035 118.292 39.7881ZM79.3508 13.4257C79.4121 13.3654 79.4947 13.3316 79.5808 13.3316C79.6668 13.3316 79.7494 13.3654 79.8108 13.4257C80.0347 13.579 79.7249 14.0184 79.6199 14.2354C79.3894 14.6579 79.2048 15.1039 79.0694 15.5657C78.8147 16.2815 78.709 17.0419 78.7588 17.8C78.1612 17.3475 77.5474 16.9168 76.9186 16.5088C76.5671 16.2215 76.169 15.9965 75.7417 15.8433C77.0857 15.2709 78.31 14.4508 79.3508 13.4257ZM116.169 47.0952C114.033 46.9526 112.454 44.3487 110.637 43.2139C104.662 39.2314 100.854 38.7499 98.7227 37.8988C97.3831 37.4535 96.0083 37.1221 94.6129 36.9081C92.7062 36.5589 90.9477 35.647 89.5639 34.2897C87.1693 31.1752 87.6608 29.9637 83.0603 24.7605C82.1811 23.8056 81.2259 22.9235 80.2041 22.1229C79.7863 21.4037 78.3363 19.963 77.6624 20.4169C77.509 20.525 77.3403 20.6124 77.1632 20.6745C76.4931 20.6546 74.8522 19.654 73.9567 18.1565C73.8035 17.9227 73.7203 17.6501 73.7166 17.3706C73.7129 17.0911 73.789 16.8163 73.936 16.5786C74.084 16.4045 74.2793 16.2771 74.4983 16.2118C74.7173 16.1464 74.9505 16.146 75.1697 16.2105C77.7697 16.9535 80.7432 21.472 88.9957 23.4601C91.0559 23.957 94.159 24.6961 95.0446 22.6819C95.1517 22.3816 95.2378 22.0741 95.3022 21.7618C96.0168 22.0838 96.7698 22.3092 97.5434 22.4335C97.3218 23.264 97.3555 24.1419 97.64 24.953C97.9505 25.8106 98.3901 26.6157 98.9435 27.3407C103.34 34.486 107.395 39.1639 114.662 43.2806C115.798 43.9247 117.069 44.604 117.422 45.7948C117.734 46.5876 117.007 47.1995 116.169 47.0952ZM118.8 40.4942C117.95 41.6508 117.401 43.0003 117.201 44.4215C116.614 43.862 115.952 43.3869 115.234 43.0099C116.515 42.2503 117.668 41.2928 118.65 40.173C118.728 40.1147 119.065 40.1983 118.8 40.4942Z" fill="#4B1010"/>
<path d="M100.602 14.598C99.1088 15.7795 97.514 17.0125 95.7328 17.4518C95.1623 17.3842 94.5865 17.5232 94.1096 17.8436C93.9471 17.9595 93.8099 18.1072 93.7063 18.2778C93.6027 18.4483 93.5349 18.6382 93.507 18.8358C93.4788 19.0334 93.491 19.2346 93.5426 19.4274C93.5943 19.6202 93.6844 19.8005 93.8075 19.9576C94.4675 20.9847 95.4119 21.7977 96.5257 22.2977C97.1383 22.6788 97.8422 22.8881 98.5637 22.9011C99.9254 22.8244 100.346 21.4274 99.7958 20.2175C99.9724 18.4275 100.449 16.68 101.205 15.0481C101.281 14.8242 100.904 14.4469 100.602 14.598Z" fill="#FFE55D"/>
<path d="M100.438 14.391C99.0927 15.4553 97.4749 16.7357 95.6906 17.1881C93.4456 17.0662 92.7041 18.9517 93.592 20.1102C94.2701 21.1674 95.2404 22.0051 96.3853 22.5216C97.5186 23.2293 99.2307 23.5713 99.989 22.3852C101.032 20.7497 98.8788 21.235 101.457 15.134C101.48 15.0046 101.466 14.8715 101.416 14.7498C101.367 14.628 101.285 14.5225 101.179 14.4451C101.073 14.3678 100.947 14.3218 100.816 14.3122C100.685 14.3026 100.554 14.3299 100.438 14.391ZM98.5636 22.6374C97.8809 22.6211 97.2152 22.4209 96.6368 22.0578C95.5606 21.5766 94.6493 20.7901 94.016 19.7958C93.9148 19.6686 93.8405 19.5221 93.7977 19.3652C93.7549 19.2084 93.7444 19.0445 93.7669 18.8834C93.9332 17.7724 94.9354 17.8721 95.3402 17.8031C97.4288 17.4465 99.2568 15.9989 100.72 14.8342C100.79 14.7966 100.983 14.8956 100.923 15.0405C100.19 16.5856 99.7308 18.2458 99.5642 19.9477C99.4745 21.4405 100.06 22.5531 98.5636 22.6374Z" fill="#4B1010"/>
<path d="M92.3734 35.3562C92.1181 35.8975 91.6473 37.4533 91.8451 37.8474C92.0867 38.332 92.733 38.4692 93.5059 37.694C93.8957 37.3198 94.2256 36.8879 94.4843 36.4136C95.3906 35.0579 93.1417 33.7284 92.3734 35.3562Z" fill="white"/>
<path d="M104.375 37.3191C106.043 38.1357 104.298 40.4896 103.318 41.1682C103.007 41.4803 102.47 41.4749 102.262 40.6407C102.035 39.433 102.496 36.3982 104.375 37.3191Z" fill="white"/>
<path d="M105.326 38.2668C105.292 38.0058 105.192 37.7576 105.037 37.5454C104.881 37.3332 104.674 37.1639 104.435 37.0534C104.196 36.9428 103.933 36.8946 103.67 36.9132C103.408 36.9317 103.154 37.0165 102.933 37.1596C101.987 37.885 101.738 40.0963 102.111 41.0586C100.557 45.1223 98.8047 49.157 96.1564 52.5537C92.5913 51.726 89.0843 50.6653 85.658 49.3786C88.6513 45.9705 91.2255 42.216 93.3255 38.1955C93.8906 37.7481 94.36 37.1917 94.7057 36.5593C95.832 34.8648 93.0503 33.3067 92.1325 35.2435C91.8441 35.8467 91.6625 36.4952 91.5957 37.1604C91.5352 37.3092 91.5113 37.4704 91.526 37.6304C91.5398 37.7907 91.5919 37.9448 91.6778 38.0805C89.6624 41.8357 87.218 45.3443 84.3937 48.5359C84.1956 48.6615 84.04 48.8438 83.9471 49.0591C83.8541 49.2745 83.8283 49.5128 83.8728 49.7431C83.9173 49.9733 84.0302 50.1848 84.1967 50.35C84.3632 50.5151 84.5756 50.6263 84.8062 50.669C88.5971 52.1173 92.4904 53.2821 96.4539 54.1539C96.5663 54.1537 96.6772 54.1284 96.7787 54.08C96.8801 54.0316 96.9695 53.9613 97.0404 53.874C100.073 50.1323 101.972 45.689 103.66 41.2479C104.44 40.6131 105.4 39.3088 105.326 38.2668ZM92.1079 37.2701C92.1685 36.6413 92.3403 36.0295 92.6155 35.4613C92.7033 35.2635 92.8551 35.1011 93.0465 35.0002C93.238 34.8993 93.4578 34.8659 93.6706 34.9054C93.8835 34.9452 94.0765 35.056 94.2182 35.2198C94.3598 35.3837 94.4417 35.5907 94.4503 35.8071C94.4398 35.9868 94.3697 36.1579 94.251 36.2932C93.9857 36.8238 93.1875 37.8221 92.6117 37.9663C92.5094 37.9877 92.403 37.976 92.3078 37.933C92.2125 37.89 92.1334 37.8179 92.0819 37.727C92.0382 37.577 92.0474 37.4164 92.1079 37.2724V37.2701ZM103.254 37.5768C103.399 37.49 103.563 37.4402 103.731 37.4317C103.899 37.4232 104.067 37.4563 104.22 37.528C104.373 37.5998 104.505 37.708 104.606 37.8431C104.707 37.9783 104.773 38.1362 104.798 38.3029C104.861 39.1869 103.878 40.4613 103.132 40.9804C103.088 41.0265 103.03 41.0587 102.968 41.0731C102.905 41.0876 102.84 41.0836 102.78 41.0616C102.298 40.9435 102.331 38.2875 103.254 37.5783V37.5768Z" fill="#4B1010"/>
<path d="M96.7919 35.0196C93.5715 35.0196 88.4021 29.512 90.0184 27.6734C90.8703 26.7034 93.2686 27.4648 95.4784 29.4062C98.4894 32.053 99.0898 35.0188 96.7919 35.0188V35.0196ZM91.1271 27.7761C90.9978 27.7644 90.8675 27.7802 90.7447 27.8225C90.6219 27.8648 90.5095 27.9326 90.4148 28.0215C89.8612 28.6525 90.6993 30.633 92.7879 32.4686C94.8765 34.3057 96.9483 34.8816 97.5019 34.2513C98.0555 33.621 97.2182 31.6397 95.1296 29.8042C93.5838 28.4447 92.0457 27.7761 91.1271 27.7761Z" fill="white"/>
<path d="M82.8622 24.562C83.1806 24.2443 83.5356 23.9656 83.9196 23.7316C84.1452 23.6396 84.3906 23.6069 84.6324 23.6366C84.8742 23.6663 85.1044 23.7574 85.3011 23.9012C85.4978 24.0449 85.6544 24.2367 85.756 24.4581C85.8576 24.6795 85.9009 24.9233 85.8817 25.1661C85.805 26.2979 84.1458 26.9021 83.2402 27.1283C82.7112 27.2049 82.0403 27.2011 81.8816 26.751C81.6661 26.143 82.1829 25.2413 82.8622 24.562Z" fill="white"/>
<path d="M93.4301 28.1856C96.2042 25.4115 97.2363 29.2352 95.4681 30.2987C94.8547 30.666 92.5246 31.5823 92.3735 30.3754C92.4525 29.5426 92.8274 28.7657 93.4301 28.1856Z" fill="white"/>
<path d="M93.2426 27.9985C92.7058 28.5405 92.324 29.2164 92.1369 29.956C89.6182 31.4843 87.2949 33.3137 85.2186 35.4038C82.2282 38.1786 82.3103 37.9586 82.1646 38.1771C82.1406 38.1924 82.1149 38.2047 82.0879 38.2139C78.5864 36.8858 74.9873 35.8312 71.3228 35.0595C74.7161 32.1115 78.4195 29.5406 82.3678 27.392C82.6783 27.4388 82.995 27.4357 83.3048 27.3828C84.129 27.1773 86.0551 26.5501 86.1471 25.1646C86.1672 24.8748 86.1122 24.5848 85.9873 24.3226C85.8625 24.0603 85.672 23.8348 85.4344 23.6678C85.1968 23.5007 84.9201 23.3979 84.6311 23.3691C84.3421 23.3404 84.0506 23.3868 83.7847 23.5038C82.7712 24.0761 81.9973 24.9938 81.6041 26.0893C77.5735 28.2837 73.7937 30.9102 70.3314 33.9224C70.1625 34.0212 70.0148 34.1524 69.8968 34.3084C69.7788 34.4644 69.6928 34.6422 69.6437 34.8316C69.5946 35.021 69.5834 35.2182 69.6108 35.4119C69.6381 35.6056 69.7035 35.792 69.8031 35.9604C70.0415 36.2541 70.3866 36.4427 70.763 36.4849C77.6929 37.934 81.1295 39.7344 82.183 39.7344C82.6329 39.6846 83.047 39.4653 83.3408 39.121C86.5435 36.4189 89.438 33.1234 92.9604 31.2234C93.8877 31.2388 94.8012 30.9979 95.6003 30.5272C97.7449 29.236 96.2758 24.9683 93.2426 27.9985ZM83.0448 24.749C83.338 24.4569 83.6625 24.1979 84.0125 23.9769C84.1967 23.9023 84.3969 23.8759 84.5942 23.9003C84.7915 23.9248 84.9792 23.9992 85.1397 24.1166C85.3001 24.2339 85.4279 24.3903 85.5109 24.5709C85.594 24.7515 85.6295 24.9503 85.6142 25.1485C85.5283 26.432 82.3709 27.3544 82.124 26.6582C81.9767 26.2319 82.3479 25.4498 83.0487 24.7498L83.0448 24.749ZM95.3274 30.0748C94.671 30.469 92.7434 31.1245 92.6361 30.3739C92.7359 29.6176 93.08 28.9147 93.616 28.3719C93.9634 28.0315 94.3615 27.747 94.796 27.5285C96.2712 27.0378 96.5051 29.3671 95.3274 30.0748Z" fill="#4B1010"/>
<path d="M64.2737 149.452C72.3598 148.018 77.6044 139.467 75.9881 130.355C74.3702 121.242 66.5049 115.018 58.4188 116.453C50.3319 117.888 45.0873 126.438 46.7044 135.55C48.3215 144.663 56.1875 150.887 64.2737 149.452Z" fill="#FFE55D"/>
<path d="M76.2482 130.308C74.7185 121.684 67.633 115.593 60.0153 116.003C59.2808 115.978 58.6314 115.968 56.6716 115.937C47.5948 115.79 41.5942 126.101 43.199 135.346C45.0108 145.365 56.0804 151.172 64.3206 149.712C72.5371 148.254 77.8883 139.55 76.2482 130.308ZM64.2279 149.193C56.3005 150.599 48.5563 144.458 46.9653 135.504C45.3743 126.549 50.5353 118.119 58.4665 116.712C66.3978 115.305 74.1396 121.446 75.7291 130.4C77.3186 139.354 72.1576 147.785 64.2279 149.193Z" fill="#4B1010"/>
<path d="M62.3334 148.335C56.0921 148.335 49.8086 143.248 48.3878 135.244C46.8934 126.822 51.6626 118.906 59.0187 117.603C66.3749 116.299 73.5755 122.088 75.0699 130.509C76.6601 139.471 71.0766 148.334 62.3334 148.335ZM59.113 118.125C52.0436 119.38 47.4661 127.019 48.9099 135.153C49.5426 138.983 51.5387 142.456 54.5302 144.93C60.5584 149.79 68.6491 148.354 72.637 141.717C74.595 138.364 75.2742 134.416 74.5492 130.602C73.1062 122.467 66.1817 116.868 59.1115 118.123L59.113 118.125Z" fill="white"/>
<path d="M70.3553 134.23C69.7212 132.433 68.5756 130.831 66.6749 130.991C67.1958 130.387 67.5398 129.651 67.6692 128.864C67.7985 128.077 67.7081 127.269 67.4079 126.53C66.132 123.144 64.6545 122.069 61.0569 123.545L60.5409 121.935C60.5297 121.9 60.5111 121.867 60.4862 121.839C60.4614 121.811 60.4309 121.789 60.3968 121.774C60.3627 121.759 60.3257 121.751 60.2885 121.751C60.2512 121.752 60.2144 121.76 60.1805 121.776L59.3501 122.153C59.2914 122.18 59.2445 122.227 59.2183 122.286C59.192 122.345 59.1882 122.412 59.2075 122.473L59.7381 124.132L59.1692 124.376C58.5903 122.566 58.6539 122.669 58.5098 122.604C58.3518 122.534 58.2928 122.604 57.4624 122.983C57.4037 123.01 57.3569 123.058 57.3308 123.117C57.3046 123.176 57.301 123.242 57.3205 123.304L57.8534 124.968C56.8567 125.428 54.9973 126.281 54.6599 126.359C54.6155 126.353 54.5705 126.359 54.529 126.376C54.4876 126.392 54.4511 126.42 54.423 126.454C54.3949 126.489 54.3761 126.53 54.3683 126.574C54.3605 126.618 54.364 126.664 54.3785 126.706L60.4174 144.294C60.429 144.329 60.4476 144.361 60.472 144.387C60.4965 144.414 60.5263 144.436 60.5596 144.451C60.5928 144.465 60.6288 144.473 60.6652 144.473C60.7015 144.473 60.7376 144.466 60.7709 144.451L64.0549 143.054L64.5678 144.594C64.5854 144.647 64.6192 144.692 64.6645 144.724C64.7092 144.757 64.7632 144.774 64.8186 144.774C64.9075 144.774 64.9052 144.76 65.7586 144.373C65.818 144.346 65.8652 144.298 65.8913 144.239C65.9173 144.179 65.9203 144.112 65.8997 144.05L65.3745 142.474L66.0155 142.218L66.5307 143.764C66.5491 143.816 66.5834 143.861 66.6287 143.893C66.6741 143.925 66.7283 143.942 66.7838 143.942C66.8206 143.941 66.8569 143.932 66.8903 143.917L67.7207 143.54C67.7801 143.513 67.8274 143.465 67.8536 143.405C67.8798 143.345 67.883 143.278 67.8626 143.216L67.332 141.626C69.0633 140.895 72.1418 139.51 70.3553 134.23ZM63.6408 134.787C64.9351 134.243 65.4565 134.404 65.9296 135.76C66.064 136.11 66.0594 136.498 65.9169 136.844C65.7743 137.191 65.5045 137.47 65.1628 137.624L62.2599 138.938L61.2233 135.821C61.658 135.629 62.6701 135.187 63.6408 134.787ZM62.7499 130.68L59.847 131.993L58.8073 128.874C62.1158 127.417 62.8289 126.857 63.5166 128.82C63.6409 129.17 63.6313 129.553 63.4897 129.897C63.3482 130.24 63.0847 130.519 62.7499 130.68Z" fill="white"/>
</svg>
