<svg width="154" height="154" viewBox="0 0 154 154" fill="none" xmlns="http://www.w3.org/2000/svg">
<path d="M93.7909 86.8814C93.7138 88.8299 93.256 90.7444 92.4432 92.517C92.0604 93.1372 90.4448 89.0331 85.5519 92.2031C84.8628 92.6548 84.9164 91.713 84.6637 91.0851C83.6147 88.5047 81.0573 88.0223 78.6377 89.4925C77.2058 90.3501 77.7035 90.396 77.0297 89.102C75.728 86.6058 73.2012 85.9243 70.5366 86.8661C70.1767 86.9963 69.9776 87.0958 69.9623 86.8049C69.8398 84.6686 70.9424 81.2153 73.4156 78.7497C76.0285 76.3629 79.4645 75.0813 83.0022 75.1739C85.1305 75.3511 87.1702 76.1058 88.9013 77.3566C90.6325 78.6074 91.9895 80.3069 92.8261 82.2719C93.437 83.7334 93.7644 85.2977 93.7909 86.8814ZM81.2717 75.7788C78.5224 75.9596 75.9256 77.1073 73.9413 79.0188C71.9569 80.9303 70.7129 83.4823 70.4294 86.2229C70.3834 86.6211 70.1997 86.1234 72.7801 85.9013C73.7991 85.8458 74.8098 86.1116 75.6698 86.6611C76.5298 87.2106 77.1956 88.0161 77.5734 88.9641C77.6576 89.1785 77.7112 89.3929 77.826 89.324C78.7589 88.6339 79.858 88.2032 81.0113 88.0759C81.6681 88.021 82.3281 88.1325 82.9304 88.4002C83.5326 88.6678 84.0577 89.083 84.457 89.6073C85.7281 91.2612 85.2227 91.8355 85.6285 91.5446C88.0405 89.8064 90.8582 90.3654 92.0987 91.8585C92.1906 91.9733 92.2135 91.8585 92.2289 91.8585C95.6286 82.5629 88.9899 75.0743 81.2717 75.7788Z" fill="#191919"/>
<path d="M67.9332 57.4172C68.2778 57.5933 67.7801 59.4693 68.0787 63.2442C68.653 70.4571 69.7097 72.7236 71.9072 76.6363C71.9685 76.7205 72.0527 77.7313 70.774 76.0237C66.6009 70.4418 67.1752 57.0191 67.9332 57.4172Z" fill="#38A1FF"/>
<path d="M69.48 63.382C69.48 61.506 69.5795 61.7664 69.7556 61.7511C70.2993 61.6975 69.2656 65.6179 72.4356 72.9839C73.2013 74.8599 73.967 75.281 73.7679 75.6945C73.0711 76.3912 69.5795 70.3116 69.48 63.382Z" fill="#38A1FF"/>
<path d="M91.9841 92.7314C91.8309 92.5782 91.7314 92.6778 83.0943 101.453C78.0789 106.552 79.105 106.093 78.301 105.84C77.788 105.679 77.788 106.085 80.3684 101.568C85.0621 93.3516 85.2995 92.7926 85.131 92.6472C84.8401 92.3945 84.3653 93.8952 80.154 101.07C77.7038 105.274 77.8569 105.741 77.2826 105.572C76.8615 105.442 78.1785 91.4603 77.6119 90.5109C77.2826 89.7452 76.8462 105.159 76.7849 105.358C76.7237 105.557 76.2949 105.358 76.226 105.128C74.3883 98.5048 71.0422 88.1219 70.3837 87.203C69.0207 85.3117 76.3255 104.745 75.8354 105.358C75.7359 105.473 75.6364 105.61 76.1341 105.733C78.7604 106.177 79.2505 106.82 79.4955 106.437C79.4955 106.437 79.4955 106.323 79.4189 106.277C79.0667 105.855 92.3363 93.0683 91.9841 92.7314Z" fill="#191919"/>
<path d="M75.9194 106.085C75.705 106.146 75.6897 106.315 75.8199 106.384C76.3635 106.698 77.6958 106.782 78.8827 107.287C78.9975 107.333 79.2119 107.287 79.2426 107.157C79.3115 106.851 76.2946 105.993 75.9194 106.085Z" fill="#191919"/>
<path fill-rule="evenodd" clip-rule="evenodd" d="M65.4524 112.165C68.6607 105.993 78.1095 104.653 82.6501 111.062C85.7129 115.342 85.4219 121.437 80.9961 124.99C71.7618 132.387 60.2763 122.165 65.4524 112.165ZM82.428 114.508C81.9661 113.083 81.1326 111.807 80.0135 110.812C78.8944 109.816 77.5301 109.137 76.0612 108.845C74.5923 108.552 73.0719 108.657 71.6568 109.147C70.2418 109.638 68.9831 110.497 68.0106 111.636C67.2084 112.547 66.6109 113.62 66.2587 114.781C65.9065 115.943 65.8077 117.167 65.9689 118.37C66.1302 119.573 66.5478 120.727 67.1936 121.755C67.8393 122.783 68.6982 123.66 69.712 124.327C71.0675 125.22 72.6505 125.705 74.2733 125.725C76.3199 125.742 78.304 125.021 79.8632 123.695C81.4224 122.37 82.4527 120.527 82.7657 118.505C82.9732 117.165 82.8576 115.794 82.428 114.508ZM81.5474 120.297C80.1232 123.98 73.6225 127.647 68.5305 122.395C63.9363 117.655 67.5581 109.286 74.4341 109.286C79.6868 109.301 83.7374 114.63 81.5474 120.312V120.297ZM73.8062 119.899C74.4693 119.706 75.4433 119.422 76.7389 119.225C77.3974 119.102 78.186 119.102 77.9716 119.661C77.8461 120.045 77.6286 120.097 76.9318 120.263C76.8238 120.288 76.7036 120.317 76.5704 120.35C72.9433 121.277 71.3307 121.933 70.9785 121.518C70.6615 121.145 71.3644 119.905 72.5352 117.218C72.4586 117.226 72.3774 117.236 72.2932 117.246C71.578 117.33 70.6577 117.438 70.774 116.836C70.8046 116.691 70.8766 116.558 70.9812 116.453C71.0859 116.348 71.2188 116.276 71.3636 116.246C72.4111 116.029 72.8054 116.043 73.0558 115.86C73.4578 115.566 73.4846 114.76 75.2611 111.652C75.2911 111.597 75.3327 111.549 75.383 111.512C75.4332 111.475 75.4909 111.449 75.552 111.437C75.6134 111.424 75.6767 111.426 75.7375 111.44C75.7983 111.455 75.8552 111.483 75.9042 111.522C76.2565 111.877 75.6676 113.119 75.1768 114.156C74.7894 114.973 74.4624 115.664 74.7021 115.695C74.7618 115.701 74.9739 115.68 75.2358 115.655C75.6148 115.617 76.0987 115.571 76.379 115.58C76.8537 115.595 76.7848 116.269 76.0191 116.552C74.784 116.994 74.3391 116.898 74.0505 117.068C73.7289 117.257 73.6025 117.777 72.7955 119.738C72.575 120.258 72.9019 120.163 73.8062 119.899Z" fill="#38A1FF"/>
<path d="M88.3697 80.4418C88.4241 81.9806 88.3138 83.5208 88.0405 85.036C87.9256 85.4495 87.2748 89.0943 86.6086 89.6302C86.6086 89.5537 86.4785 89.5537 86.6086 89.1019C88.4463 83.3438 87.4662 79.7374 88.14 79.6761C88.4693 79.7068 88.3008 80.4418 88.3697 80.4418Z" fill="#191919"/>
<path d="M83.079 77.5551C82.9488 78.0758 81.1877 79.5077 79.4342 84.3546C78.8753 85.886 78.9748 86.0161 78.592 86.8967C78.592 86.9656 78.4312 86.9656 78.4312 86.8967C78.1708 85.0131 81.8309 77.5245 83.079 77.5551Z" fill="#191919"/>
<path d="M45.9271 36.6515C50.4141 34.2932 50.1767 35.2733 49.9164 35.3881C39.3115 40.1048 38.4998 45.4494 37.9102 46.0467C37.9102 46.085 37.6422 45.817 37.6269 45.7404C37.4125 43.918 40.9501 39.2702 45.9271 36.6515Z" fill="#38A1FF"/>
<path d="M40.4678 46.8736C42.2595 42.111 47.6194 37.9685 47.9946 38.4509C48.3698 38.9333 47.382 38.5122 43.9517 42.6546C42.789 44.0282 41.8179 45.5531 41.065 47.1876C41.0458 47.2229 41.0191 47.2536 40.9868 47.2775C40.9545 47.3014 40.9173 47.3179 40.8779 47.3259C40.8385 47.334 40.7978 47.3333 40.7587 47.3239C40.7196 47.3146 40.683 47.2968 40.6515 47.2718C40.5767 47.1458 40.5151 47.0123 40.4678 46.8736Z" fill="#38A1FF"/>
<path d="M52.6118 70.2964C52.6118 72.3791 52.5582 73.7651 51.8461 73.4128C48.1477 71.5522 44.6408 71.4144 41.1722 75.3348C40.284 76.3378 40.1002 76.9198 39.4494 76.4527C39.2656 76.3225 37.5581 71.69 32.5581 72.0499C29.725 72.2566 27.9639 73.9718 26.3789 76.0392C25.7433 76.8662 25.4753 76.7207 24.947 75.9473C22.6499 72.5017 18.9209 71.5905 15.2762 73.007C11.8153 74.3393 11.2946 76.1234 10.8888 74.7452C8.36195 66.1464 12.9791 52.0268 27.581 48.5659C39.0742 45.84 52.673 54.1172 52.6118 70.2964ZM11.4707 74.4695C15.9883 70.2582 22.6423 70.5721 25.6132 75.4496C26.0266 76.1234 26.042 74.9289 28.0098 73.2827C32.2212 69.7528 37.4049 71.2 39.6255 74.7758C40.1998 75.7023 39.8705 75.6487 40.6439 74.7758C43.4769 71.445 47.4586 70.2735 51.6317 72.4787C51.7557 71.7191 51.7787 70.9473 51.7006 70.1816C51.7006 63.3975 49.3346 58.4204 45.8506 55.0054C30.7357 40.1355 7.53499 55.0667 11.4707 74.4695Z" fill="#191919"/>
<path d="M36.1184 103.13C37.4507 100.427 51.0266 73.4051 51.5243 73.7267C52.022 74.0483 49.5641 77.8998 38.7601 99.6457C36.7003 103.803 36.5625 103.413 37.2287 103.474C37.2925 103.495 37.3485 103.535 37.3894 103.588C37.4304 103.641 37.4544 103.706 37.4584 103.773C37.4161 103.877 37.3428 103.966 37.2484 104.028C37.1539 104.09 37.0428 104.121 36.9301 104.117C34.9354 104.058 32.9385 104.117 30.9499 104.293C30.5058 104.293 30.4446 103.788 30.6896 103.689C31.4553 103.382 12.5655 77.9917 11.5471 75.7635C11.4705 75.5874 11.6084 75.4725 11.9223 75.6333C12.5119 75.9396 14.6329 79.0866 15.4598 80.2275C31.2256 101.973 31.0571 103.581 31.4094 103.535C32.1751 103.421 32.2899 103.421 32.244 103.221C32.244 103.221 25.7049 77.7773 25.6896 77.762C25.6896 77.6318 25.6896 77.448 25.8733 77.448C26.6926 77.5016 32.8182 103.367 33.002 103.352C33.6911 103.306 33.7677 103.352 33.806 103.137C34.0434 101.973 39.5258 77.1035 39.8167 77.2183C40.8428 77.6931 34.2118 103.321 34.5104 103.321C35.9729 103.321 35.9729 103.428 36.1184 103.13Z" fill="#191919"/>
<path d="M31.3253 105.61C31.1722 105.61 30.728 105.396 30.9578 105.082C31.4172 104.47 37.0834 104.592 37.3513 104.921C38.0405 105.825 35.6592 105.32 31.3253 105.61Z" fill="#191919"/>
<path d="M40.7816 69.6379C39.8475 52.938 36.042 51.6516 36.8919 51.2611C38.2855 50.6562 42.091 61.4679 41.2947 69.4082C41.2181 70.1663 40.8659 71.131 40.7816 69.6379Z" fill="#191919"/>
<path d="M24.8475 69.7221C24.4188 60.8476 27.8031 55.5873 28.1324 55.5413C29.2733 55.3958 26.1569 57.7542 25.5903 69.8523C25.506 71.6287 24.9165 71.131 24.8475 69.7221Z" fill="#191919"/>
<path fill-rule="evenodd" clip-rule="evenodd" d="M15.9117 124.546C15.8138 120.155 17.3368 115.882 20.19 112.543C23.0431 109.204 27.0264 107.033 31.3788 106.445C41.2181 105.143 49.2273 110.794 51.6009 118.98C55.1615 131.231 46.7388 142.992 34.2349 142.961C29.3855 142.878 24.7596 140.908 21.3387 137.47C17.9178 134.032 15.9711 129.396 15.9117 124.546ZM48.5305 119.983C47.4976 116.679 45.3508 113.837 42.4563 111.939C39.5618 110.041 36.0987 109.207 32.6575 109.577C30.6031 109.802 28.6164 110.445 26.8193 111.465C25.0223 112.486 23.4528 113.863 22.2073 115.512C20.9617 117.162 20.0665 119.048 19.5764 121.056C19.0863 123.064 19.0117 125.15 19.3573 127.188C19.7289 129.305 20.5451 131.318 21.752 133.096C22.9589 134.874 24.5292 136.376 26.3591 137.503C28.1891 138.629 30.2371 139.355 32.3681 139.632C34.4992 139.909 36.6647 139.731 38.7219 139.11C47.1293 136.598 50.9348 127.716 48.5305 119.983ZM48.117 126.055C46.7005 140.526 26.7616 143.283 21.1491 130.052C18.3083 123.359 21.2869 114.018 29.8168 111.323C39.0358 108.382 49.1507 115.557 48.117 126.055ZM36.8536 122.51C36.777 122.525 36.7923 122.678 36.8536 122.678C38.6147 122.624 43.408 123.038 43.9669 125.304C44.6622 127.97 40.1193 129.499 37.5013 130.379C36.4891 130.72 35.7647 130.964 35.7433 131.139C35.692 131.485 35.6621 131.82 35.6338 132.131C35.5297 133.303 35.4531 134.155 34.365 134.095C33.7532 134.095 33.7785 133.481 33.816 132.574C33.826 132.333 33.8367 132.073 33.8367 131.797C33.8367 131.652 33.8375 131.56 33.7923 131.513C33.7065 131.425 33.4554 131.497 32.7188 131.667C32.4738 131.724 32.4653 132.17 32.4554 132.694C32.4401 133.514 32.4202 134.523 31.486 134.523H31.4171C30.924 134.526 30.5672 134.529 30.5672 132.992C30.5672 132.337 30.6177 132.059 30.5074 131.957C30.3466 131.808 29.8436 132.031 28.3466 132.004C27.5656 132.004 27.3665 130.289 28.5304 130.067C29.0457 129.965 29.4684 129.956 29.79 129.948C30.29 129.938 30.5442 129.932 30.5212 129.592C30.2111 124.504 30.1859 124.508 30.0672 124.529C30.0628 124.529 30.0585 124.53 30.0542 124.531L29.9852 124.543C29.6774 124.604 28.5764 124.819 28.5764 124.003C28.5672 123.264 29.1077 123.133 29.5174 123.032C29.7747 122.97 29.9799 122.919 29.9615 122.739C29.8753 121.483 29.7142 120.232 29.4791 118.995C29.388 118.903 28.9362 119.051 28.3903 119.23C27.4745 119.529 26.2923 119.917 26.0955 119.408C25.7479 118.489 27.0633 118.058 28.107 117.715C28.7662 117.5 29.3168 117.319 29.2731 117.073C29.2 116.64 29.159 116.203 29.1506 115.764C29.1506 115.335 29.1889 115.052 29.6943 114.921C30.5825 114.68 30.6935 115.275 30.996 116.888L31.0113 116.973C31.3753 116.964 31.7373 116.915 32.0909 116.828C32.401 116.767 32.3237 116.353 32.2349 115.881C32.1016 115.165 31.9431 114.317 33.0787 114.378C33.5457 114.393 33.7295 115.235 33.8444 116.185C33.875 116.415 34.0588 116.415 34.4722 116.415C36.999 116.238 41.3023 115.993 41.8306 118.291C42.336 120.427 38.0021 122.234 36.8536 122.51ZM31.3405 119.743C31.4133 120.281 31.5189 121.053 31.6468 122.165C31.6851 122.51 31.9607 122.51 32.0756 122.494C32.1905 122.479 40.7127 120.228 40.3069 118.604C39.9011 116.981 33.7142 117.762 31.4171 118.436C31.1705 118.504 31.1797 118.568 31.3405 119.743ZM32.849 129.539C35.7791 128.975 38.6338 128.073 41.3559 126.851H41.3329C45.5825 124.5 34.679 123.474 32.045 124.301C31.8076 124.367 31.8428 124.67 31.9561 125.653C32.0404 126.385 32.1675 127.494 32.2594 129.163C32.2839 129.578 32.4194 129.567 32.6598 129.548C32.7173 129.543 32.78 129.539 32.849 129.539Z" fill="#38A1FF"/>
<path fill-rule="evenodd" clip-rule="evenodd" d="M131.027 140.078C132.219 137.264 132.627 134.181 132.207 131.154C129.589 115.013 106.985 114.033 101.985 128.819C97.1075 143.199 113.363 155.419 125.438 147.134C127.904 145.33 129.835 142.891 131.027 140.078ZM115.956 124.485C116.662 123.558 117.1 122.983 117.543 123.635C119.236 126.316 120.762 129.098 122.115 131.966C122.186 132.261 122.145 132.281 121.013 132.826C120.325 133.158 119.234 133.684 117.52 134.585L117.314 134.692C116.672 135.026 116.559 135.085 116.356 134.967C115.968 134.742 115.782 134.643 115.624 134.559C115.272 134.372 115.064 134.261 113.064 132.992C112.727 132.776 112.439 132.595 112.194 132.441C110.847 131.593 110.8 131.564 111.065 131.124C112.015 129.516 114.481 126.369 115.56 124.998C115.701 124.819 115.833 124.647 115.956 124.485ZM118.711 130.526C117.857 130.009 117.107 129.554 117.107 129.615H117.137C117.137 129.615 116.946 133.122 116.946 134.064C116.946 134.07 116.945 134.075 116.944 134.08C116.943 134.085 116.942 134.09 116.944 134.091C116.949 134.097 116.976 134.082 117.084 134.022C117.331 133.885 118.001 133.513 119.794 132.617L119.943 132.542C120.777 132.121 121.043 131.987 121.029 131.895C121.022 131.853 120.954 131.82 120.853 131.771C120.825 131.757 120.796 131.743 120.767 131.728C120.3 131.487 119.465 130.982 118.711 130.526ZM117.283 124.523C117.252 125.434 117.206 128.214 117.206 128.788C117.206 128.964 117.271 128.998 117.677 129.206C118.154 129.451 119.096 129.934 120.951 131.17C120.575 130.243 117.934 125.503 117.283 124.523ZM113.552 130.065C114.691 129.599 116.175 128.991 116.203 129.01L116.237 128.996C116.327 128.962 116.389 128.937 116.435 128.894C116.541 128.793 116.549 128.589 116.576 127.907C116.601 127.276 116.642 126.235 116.793 124.485C115.993 125.33 112.784 129.856 112.281 130.581C112.389 130.542 112.917 130.326 113.552 130.065ZM116.37 131.486V131.485C116.419 130.536 116.464 129.658 116.464 129.585C114.895 130.116 113.36 130.746 111.869 131.468C111.931 131.517 112.069 131.595 112.268 131.706C112.438 131.802 112.654 131.924 112.903 132.073C113.605 132.508 114.304 132.948 115.001 133.391C115.924 133.977 116.165 134.13 116.228 134.076C116.249 134.057 116.249 134.012 116.249 133.951V133.934C116.249 133.813 116.312 132.601 116.37 131.486ZM126.755 125.993C121.15 119.286 110.951 119.041 105.529 127.525C101.004 134.608 105.729 146.116 115.683 146.744C128.079 147.578 133.095 133.604 126.755 125.993ZM113.041 145.412C111.448 144.911 109.977 144.084 108.721 142.984C107.464 141.884 106.451 140.535 105.744 139.022C105.038 137.509 104.654 135.866 104.617 134.196C104.58 132.527 104.891 130.868 105.529 129.326C106.383 127.263 107.793 125.478 109.603 124.171C111.882 122.552 114.649 121.768 117.438 121.951C120.228 122.134 122.869 123.272 124.917 125.174C134.259 134.171 125.177 149.171 113.041 145.427V145.412ZM117.229 135.787C117.153 135.825 121.655 133.359 121.946 133.65C122.069 133.796 122.038 133.98 121.816 134.431C121.517 135.067 116.793 144.462 116.088 144.462C116.18 144.462 115.851 144.577 115.552 143.957C113.83 140.427 110.66 133.482 110.82 133.023C110.981 132.563 111.341 132.601 115.346 135.434C116.092 135.967 116.332 136.143 116.55 136.119C116.717 136.101 116.871 135.966 117.229 135.787ZM115.977 139.347C115.993 138.332 116.007 137.42 116.043 137.05V137.073L116.05 136.999C116.078 136.748 116.082 136.719 115.575 136.438C115.216 136.238 113.988 135.384 112.987 134.689C112.454 134.317 111.984 133.991 111.747 133.834C111.854 134.171 115.851 143.214 115.851 142.931C115.935 142.251 115.958 140.706 115.977 139.347ZM121.038 134.551C120.701 135.277 117.431 141.186 116.595 142.696L116.402 143.046C116.402 142.708 116.452 142.075 116.486 141.642L116.502 141.43C116.766 137.691 116.591 137.028 116.843 136.749C116.926 136.656 117.057 136.606 117.268 136.499C117.919 136.178 118.667 135.778 119.334 135.421C120.091 135.016 120.745 134.667 121.038 134.551Z" fill="#38A1FF"/>
<path d="M135.805 91.3225C135.231 92.9534 132.957 86.3454 125.277 93.275C124.802 93.7038 124.389 93.1065 124.327 92.8615C123.909 91.7247 123.148 90.7457 122.15 90.0599C121.151 89.3741 119.964 89.0153 118.753 89.033C115.736 89.2474 114.404 91.1081 113.01 92.517C112.382 93.1448 112.643 91.0851 110.147 89.3776C109.383 88.8806 108.526 88.5442 107.628 88.3889C106.731 88.2335 105.811 88.2625 104.924 88.4741C101.862 89.1249 100.705 90.7252 100.522 90.2505C99.5416 87.6394 100.032 80.6563 104.595 75.1738C114.618 63.1294 133.431 68.451 135.989 82.9227C136.548 86.108 136.234 90.105 135.805 91.3225ZM100.751 87.6548C100.751 90.8937 100.376 89.1862 103.531 88.1448C106.402 87.2183 108.669 87.5322 110.889 89.1862C112.987 90.7176 112.681 92.1571 113.301 91.3378C115.667 88.229 120.193 86.7972 123.96 90.664C125.016 91.7436 124.986 92.5399 125.131 92.4021C127.329 90.35 129.304 88.9488 132.605 89.5154C135.491 90.0055 135.177 91.958 135.43 89.0177C136.548 75.8936 125.912 66.9579 113.99 69.8752C107.076 71.6287 100.675 78.5889 100.751 87.6548Z" fill="#191919"/>
<path d="M119.434 115.894C120.009 116.085 119.802 115.128 129.251 100.419C130.897 97.8538 134.067 92.7619 134.84 91.8124C137.497 88.6348 120.483 115.794 120.483 115.855C120.315 116.139 120.644 116.123 120.66 116.123C121.127 116.315 120.782 116.69 120.468 116.644C116.464 116.062 115.3 116.644 115.047 116.223C114.794 115.802 115.292 115.955 115.131 115.626C110.637 106.805 100.407 91.1693 101.004 90.7941C101.249 90.6333 101.823 91.4832 101.938 91.644C103.952 94.6609 109.787 104.737 110.3 105.641C115.951 115.595 115.361 115.787 116.127 115.725C116.892 115.664 116.617 116.108 115.491 109.554C113.117 95.7711 112.045 92.4097 112.995 93.1907C113.493 93.6042 117.122 115.725 117.214 115.725C117.284 115.725 117.353 115.743 117.413 115.779C117.528 115.825 117.643 115.649 117.742 115.779C118.003 115.22 124.373 94.3929 124.572 94.1095C126.356 91.6057 119.45 112.747 118.447 115.626C118.362 115.84 118.332 115.779 119.434 115.894Z" fill="#191919"/>
<path d="M120.445 117.188C120.488 117.191 120.529 117.202 120.567 117.221C120.605 117.239 120.639 117.266 120.667 117.298C120.694 117.33 120.716 117.367 120.729 117.407C120.742 117.448 120.747 117.49 120.744 117.532C120.741 117.575 120.73 117.616 120.711 117.654C120.692 117.692 120.666 117.725 120.634 117.753C120.602 117.781 120.565 117.802 120.524 117.816C120.484 117.829 120.442 117.834 120.399 117.831C119.427 117.532 115.583 117.716 115.323 117.372C114.565 116.384 119.251 117.05 120.445 117.188Z" fill="#191919"/>
<path d="M126.149 87.5398C126.149 85.8783 126.257 83.2213 126.096 80.9242C125.598 73.8568 123.799 71.9043 124.113 71.6439C124.878 71.0237 127.857 78.8798 126.571 87.5245C126.471 88.1984 126.126 88.6578 126.149 87.5398Z" fill="#191919"/>
<path d="M116.869 72.693C117.13 72.9073 113.96 77.0728 113.301 87.1953C113.186 89.0177 112.712 87.8385 112.727 87.3102C112.98 78.4587 116.372 72.2642 116.869 72.693Z" fill="#191919"/>
<path d="M142.574 38.5887C142.498 38.5887 123.133 35.434 122.926 35.0282C122.926 34.9592 123.125 34.7985 123.225 34.8138C125.56 35.3574 146.096 38.5887 142.574 38.5887Z" fill="#38A1FF"/>
<path d="M137.681 39.0864C135.139 39.0864 123.998 37.0573 122.926 36.7893C122.804 36.7893 122.804 36.4601 122.926 36.4601C126.142 36.8659 141.854 39.0864 137.681 39.0864Z" fill="#38A1FF"/>
<path d="M115.997 47.9915C111.226 44.9287 109.871 39.2242 109.105 39.1477C106.387 38.627 104.58 39.9134 78.952 35.457C77.7116 35.3345 101.655 68.8951 88.9061 66.8966C80.2231 65.526 73.416 57.3713 67.9183 50.3881C62.9718 44.1017 55.0392 32.3023 55.0392 32.287C54.7406 31.8123 54.9856 32.3712 43.5537 30.1813C38.7757 29.2625 19.9089 24.4386 17.3514 20.3574C15.9502 18.1292 17.206 16.1537 19.4571 14.7754C22.1371 13.1292 25.353 12.8842 26.7466 12.1797C36.0039 7.52425 41.716 9.56102 48.2857 10.9776C59.6028 13.4201 58.8141 13.3665 59.174 13.1675C78.5615 2.50126 98.8908 2.68503 96.6933 7.10312C95.3763 9.7601 83.2629 16.1231 80.0087 17.9454C80.3839 18.1445 86.6243 19.5228 87.1833 19.607C89.4804 19.9362 101.732 23.1139 108.539 24.6453C109.725 24.9133 109.113 25.1124 111.28 23.9868C116.885 21.0925 124.833 17.3788 131.012 18.803C133.424 19.3543 135.951 20.3957 135.491 22.8536C135.093 25.0052 132.919 26.0465 126.303 30.5106C120.683 34.3391 121.709 33.7495 120.522 36.0772C120.208 36.7204 120.223 36.7357 120.277 36.9195C121.51 41.0696 123.952 45.9011 123.217 48.1523C122.597 50.1891 118.922 49.8598 115.997 47.9915ZM38.9901 13.1292C39.1389 13.1641 39.2764 13.2362 39.3898 13.3388C39.5032 13.4413 39.5887 13.5709 39.6384 13.7154C39.6881 13.8599 39.7004 14.0147 39.674 14.1653C39.6477 14.3158 39.5836 14.4573 39.4878 14.5763C39.2287 14.952 38.8869 15.2634 38.4887 15.4864C38.0905 15.7093 37.6465 15.8381 37.1907 15.8627C36.3025 16.169 29.6945 14.2165 28.768 13.9561C26.0115 13.1445 26.7006 12.9531 24.9778 13.3972C19.2504 14.852 14.5107 17.9301 19.3729 21.2762C25.9809 25.8704 45.7742 30.4646 54.2505 31.3146C53.8371 30.1966 51.3638 28.2518 52.8876 26.437C53.8447 25.2961 58.4619 25.7862 58.5691 26.1384C58.7146 26.9041 51.6395 25.0205 53.3776 28.5197C54.0055 29.7908 69.733 53.382 78.5385 60.8782C81.2415 63.1753 87.5278 66.9119 90.8969 66.0544C95.7515 64.8216 81.2874 41.0236 78.6457 36.751C74.0515 29.339 74.3961 29.921 72.8188 29.3084C71.2167 28.7729 69.5888 28.318 67.9412 27.9455C67.7115 27.8766 67.6886 27.4937 68.1863 27.5243C69.4321 27.6652 70.6625 27.9217 71.8616 28.29C75.1235 29.4386 74.1051 28.8337 78.1557 34.5458C78.3624 34.8444 100.514 38.3743 108.508 38.3207C108.868 38.3207 108.891 38.2059 108.791 37.9455C108.087 36.1921 107.559 35.3345 108.118 35.1737C108.332 35.1201 108.485 35.1737 108.638 35.5642C110.698 40.5183 113.676 46.8965 118.837 48.3437C120.369 48.7725 121.9 48.673 122.436 47.9685C123.669 46.3759 118.608 35.9164 118.608 34.1017C118.608 33.8414 119.021 33.7418 119.19 34.1553C119.251 34.2855 119.68 35.4953 119.794 35.6867C120.369 34.7372 120.514 33.9103 121.617 32.8766C123.148 31.4141 126.448 29.5075 130.583 26.6055C133.347 24.6683 136.334 22.777 133.723 20.8398C131.425 19.1323 126.295 19.0634 123.003 20.0741C119.398 21.1044 115.908 22.5027 112.589 24.2471C108.761 26.192 110.522 25.97 105.33 24.7066C105.254 24.7066 47.6272 11.1307 42.3209 10.3037C37.5583 9.53804 33.8982 9.88261 32.4204 10.5488C31.5628 10.9776 32.0529 10.4186 38.9901 13.1292ZM60.0009 13.4967C62.0683 13.9868 55.6824 12.5243 74.488 16.728C79.465 17.8459 77.8264 18.0603 81.8157 15.9623C85.3992 14.0404 93.1251 9.91324 95.828 7.1414C98.3242 4.54568 83.9061 1.46757 60.0009 13.4967ZM32.206 11.46C31.3147 11.9213 30.4968 12.5122 29.7788 13.2134C29.4648 13.512 29.9702 13.4508 30.1693 13.558C30.5291 13.7647 30.5751 13.6728 32.6042 12.1108C33.0866 11.7433 32.8186 11.7356 32.206 11.46ZM35.4296 12.6085C35.0315 12.8076 33.1938 14.2012 33.4924 14.362C33.9671 14.6223 33.9824 14.7984 34.886 14.0174C36.2719 12.8229 36.2489 12.8382 35.4296 12.6085Z" fill="#191919"/>
<path d="M84.0822 24.9209C84.0133 26.927 81.1802 26.7127 81.2261 25.0051C81.2797 22.9531 84.1435 23.1215 84.0822 24.9209Z" fill="#191919"/>
<path d="M71.9611 22.3175C71.9516 22.5926 71.8631 22.8591 71.7061 23.0852C71.5491 23.3113 71.3303 23.4874 71.0759 23.5924C70.8214 23.6974 70.5421 23.7269 70.2714 23.6773C70.0006 23.6278 69.7499 23.5013 69.5491 23.3129C69.4133 23.1909 69.3038 23.0423 69.2275 22.8764C69.1511 22.7105 69.1094 22.5307 69.105 22.3482C69.0887 22.1521 69.113 21.9547 69.1763 21.7685C69.2396 21.5822 69.3407 21.4109 69.4731 21.2654C69.6056 21.12 69.7666 21.0033 69.9461 20.9228C70.1257 20.8423 70.3199 20.7997 70.5166 20.7976C70.7133 20.7955 70.9084 20.8339 71.0896 20.9106C71.2709 20.9872 71.4343 21.1003 71.5699 21.243C71.7054 21.3856 71.8101 21.5546 71.8774 21.7395C71.9447 21.9244 71.9732 22.1212 71.9611 22.3175Z" fill="#191919"/>
<path d="M94.7101 29.0787C92.8035 29.1323 92.8035 26.3145 94.7866 26.2762C95.1517 26.2995 95.4949 26.4585 95.7486 26.7221C96.0022 26.9857 96.148 27.3347 96.1572 27.7004C96.1476 28.075 95.9899 28.4304 95.7186 28.6887C95.4473 28.9471 95.0846 29.0873 94.7101 29.0787Z" fill="#191919"/>
<path d="M52.3284 19.607C50.3452 19.6836 50.4601 16.7739 52.3284 16.7663C54.1967 16.7586 54.2197 19.5611 52.3284 19.607Z" fill="#191919"/>
<path d="M76.6245 25.2885C76.2593 25.2827 75.9105 25.1361 75.6508 24.8793C75.3911 24.6225 75.2407 24.2754 75.2309 23.9103C75.2165 23.7129 75.2429 23.5147 75.3085 23.328C75.3741 23.1413 75.4775 22.9702 75.6122 22.8253C75.747 22.6803 75.9101 22.5647 76.0915 22.4857C76.2729 22.4066 76.4687 22.3658 76.6666 22.3658C76.8644 22.3658 77.0602 22.4066 77.2416 22.4857C77.423 22.5647 77.5862 22.6803 77.7209 22.8253C77.8556 22.9702 77.959 23.1413 78.0246 23.328C78.0903 23.5147 78.1167 23.7129 78.1023 23.9103C78.0756 24.2842 77.9083 24.6341 77.6342 24.8898C77.3601 25.1455 76.9993 25.2879 76.6245 25.2885Z" fill="#191919"/>
<path d="M59.6411 19.4079C59.6427 19.6862 59.5628 19.9588 59.4112 20.1922C59.2596 20.4256 59.0429 20.6095 58.7879 20.7211C58.533 20.8326 58.2509 20.8671 57.9766 20.8201C57.7023 20.7732 57.4477 20.6469 57.2444 20.4569C57.0371 20.2533 56.8962 19.9917 56.8403 19.7066C56.7845 19.4214 56.8162 19.126 56.9314 18.8592C57.0465 18.5925 57.2397 18.3668 57.4856 18.2119C57.7314 18.0569 58.0184 17.9801 58.3087 17.9913C58.6716 18.0072 59.014 18.1642 59.2628 18.4288C59.5117 18.6934 59.6474 19.0447 59.6411 19.4079Z" fill="#191919"/>
<path d="M47.5662 16.5978C47.6351 18.1905 45.0394 18.6652 44.6948 16.5978C45.0394 14.4462 47.6811 14.9669 47.5662 16.5978Z" fill="#191919"/>
<path d="M87.3672 26.5672C87.3672 24.63 90.2845 24.6606 90.2233 26.5672C90.162 28.4738 87.3748 28.3589 87.3672 26.5672Z" fill="#191919"/>
<path d="M100.835 30.7096C100.474 30.7 100.13 30.5542 99.8713 30.3015C99.6129 30.0488 99.4595 29.7077 99.4419 29.3467C99.4437 29.1493 99.4851 28.9542 99.5635 28.7731C99.642 28.5919 99.756 28.4284 99.8988 28.292C100.042 28.1557 100.21 28.0494 100.395 27.9793C100.579 27.9093 100.776 27.8769 100.973 27.8842C101.332 27.9054 101.669 28.0603 101.919 28.3184C102.168 28.5765 102.312 28.9189 102.321 29.2778C102.312 29.664 102.151 30.0312 101.873 30.2994C101.595 30.5675 101.222 30.715 100.835 30.7096Z" fill="#191919"/>
<path d="M64.3042 22.4324C62.5354 22.5779 62.367 19.6376 64.4037 19.6223C64.7598 19.6581 65.089 19.828 65.3243 20.0976C65.5597 20.3673 65.6836 20.7164 65.6709 21.074C65.6583 21.4317 65.5099 21.7711 65.2561 22.0234C65.0023 22.2757 64.6619 22.422 64.3042 22.4324Z" fill="#191919"/>
</svg>
