<svg width="154" height="154" viewBox="0 0 154 154" fill="none" xmlns="http://www.w3.org/2000/svg">
<path d="M101.581 112.786C102.051 113.698 102.288 114.711 102.272 115.737C102.365 117.805 103.156 123.008 103.156 123.599C103.156 127.25 64.823 128.479 58.8131 123.161C54.0407 118.965 59.9429 113.278 59.9429 113.278L101.581 112.786Z" fill="#D3FFCF"/>
<path d="M111.341 143.619C110.832 142.503 110.435 141.34 110.157 140.145C109.755 138.732 109.235 137.354 108.605 136.026C107.93 134.315 107.12 132.66 106.184 131.077C105.362 129.84 105.838 128.902 105.539 126.189C105.239 123.476 104.77 123.369 103.541 122.546C102.311 121.724 100.536 123.131 99.0063 123.484C97.8228 123.761 95.3866 124.099 93.7651 124.299C93.3117 118.389 93.9495 122.477 92.9505 115C95.0177 114.715 97.2464 114.346 97.2541 114.346C98.1533 114.147 99.6595 113.678 100.328 113.578C101.32 113.394 101.735 113.578 102.119 113.148C102.249 113.009 102.411 112.894 102.296 112.679C102.18 112.464 102.18 112.133 101.804 112.156C101.036 112.302 100.244 112.257 99.4981 112.026C98.9429 111.762 98.3371 111.621 97.7229 111.611C96.9544 111.81 94.1186 114.124 91.1137 114.262C86.933 114.454 88.0397 113.363 86.4028 114.339C85.7879 114.708 85.5497 114.823 83.7283 114.731C82.712 114.672 81.7251 114.366 80.8541 113.839C80.0856 113.463 76.5351 114.554 76.5197 114.554C73.5533 114.938 73.6993 114.492 72.0086 113.655C71.4937 113.401 71.2785 113.593 70.5792 113.885C70.4024 113.955 71.5782 114.439 72.8847 114.969C74.0836 115.445 75.3977 115.983 75.9587 115.737H76.5351L75.7666 120.402L76.1355 124.644V124.714C75.0833 124.816 74.0221 124.788 72.9769 124.629C70.5638 124.222 67.3207 123.745 63.8469 122.923C60.3732 122.101 56.0235 123.515 55.6085 124.099C55.1935 124.683 52.5344 131.991 52.1348 133.052C51.7352 134.113 51.9581 135.358 51.9581 136.579C51.9581 137.801 51.1127 139.1 50.9667 140.084C50.8207 141.068 50.8514 143.089 50.3749 144.211C49.8984 145.333 49.0223 148.276 49.4373 148.33C59.7354 149.567 57.6143 146.147 65.2688 148.445C72.9231 150.743 81.7533 147.093 83.9896 148.207C86.226 149.321 100.182 148.268 101.473 148.622C102.764 148.976 113.9 149.268 113.9 148.86C113.9 148.453 111.748 144.618 111.341 143.619ZM83.0828 125.49C81.8993 125.605 79.6091 124.898 78.6024 124.66C78.2604 124.614 77.9139 124.614 77.5726 124.66C77.5726 122.961 77.5726 120.049 77.5726 120.049L78.295 115.845C80.4084 115.845 80.6005 115.761 81.0539 116.106C81.5074 116.452 81.4766 116.106 84.128 116.022C84.4232 116.826 84.5923 117.672 84.6275 118.527C84.5199 119.373 84.5583 125.382 84.5583 125.382H84.6352C84.1971 125.39 83.6361 125.428 83.0828 125.49ZM91.8207 124.575C91.1566 124.892 90.4541 125.12 89.7304 125.252C88.862 125.298 87.5555 125.305 86.6564 125.305L86.4258 115.884L87.7015 115.807C89.2386 115.699 88.7851 115.33 89.7919 115.322C90.1684 115.322 90.8063 115.261 91.5441 115.169C91.7958 118.298 91.888 121.437 91.8207 124.575Z" fill="#84D492"/>
<path d="M59.3589 112.202C60.3733 112.532 60.6346 112.287 61.2033 112.794C60.635 113.291 60.017 113.729 59.3589 114.1C58.6595 113.939 58.3444 113.662 58.4981 113.001C58.6518 112.486 58.8747 112.025 59.3589 112.202Z" fill="#D3FFCF"/>
<path d="M129.631 82.4835C130.062 84.4662 129.808 90.6527 129.708 91.2291C129.063 94.7335 125.704 95.7249 123.26 95.3022C119.018 94.5337 116.144 91.183 106.768 83.4288C106.322 83.0676 107.122 82.7294 107.414 81.3154C107.623 80.6077 107.985 79.9545 108.474 79.4018C108.943 78.7332 111.664 74.0222 112.163 73.2537C112.34 72.977 112.34 72.9693 115.545 75.6053C115.944 75.9358 118.219 86.9716 119.794 85.911C120.448 85.473 119.026 84.4201 118.134 81.177C116.513 75.0981 114.715 65.0921 112.109 59.3515C111.848 58.7751 111.033 56.408 110.472 55.7625C109.197 54.2716 104.393 53.7797 103.156 51.2052C102.795 50.4367 102.987 50.7134 101.75 46.8632C101.55 46.2253 101.75 46.1484 101.857 46.0255C101.965 45.9025 102.38 46.0255 102.526 46.1869C102.9 46.6464 103.194 47.1661 103.394 47.7239C104.54 50.2369 104.125 50.5981 104.931 50.7979C106.73 51.3051 106.346 50.2215 108.221 50.5443C108.789 50.7095 109.37 50.8328 109.958 50.9132C110.25 50.9132 110.526 50.4598 110.034 50.2676C109.574 50.0084 109.067 49.8414 108.543 49.7758C108.021 49.7758 108.543 48.5462 108.082 47.1168C107.091 43.7353 107.752 43.8506 106.776 42.9976C106.138 42.4442 105.177 41.5374 104.409 41.6219C103.64 41.7065 103.863 42.0984 102.926 43.9736C102.288 45.2416 101.55 45.3492 101.796 44.4423C102.21 43.3627 102.509 42.242 102.687 41.0993C102.964 39.5623 104.224 39.3164 104.993 39.7852C106.084 40.4615 105.877 40.0772 107.36 40.9456C109.074 41.9447 107.944 38.7477 108.305 33.3067C108.339 32.2614 108.457 31.2205 108.659 30.1942C108.659 30.0635 108.728 29.6101 109.051 29.5486C109.373 29.4872 109.535 29.8023 109.581 30.3172C109.75 32.1616 108.997 37.3874 110.411 41.9601C109.758 41.9601 108.981 41.7756 109.174 42.3904C109.212 42.5057 110.142 42.644 110.165 42.644C113.032 43.0437 114.899 44.5653 115.145 44.0043C115.314 43.6047 114.853 43.4202 114.423 43.2358C113.992 43.0513 114.315 43.0975 115.068 41.1762C115.629 39.7314 116.989 33.3758 117.804 33.4911C118.058 33.4911 118.265 33.6217 118.257 33.9906C118.257 35.4354 116.421 39.3087 116.006 42.8515C115.537 46.7632 116.375 44.4885 115.621 52.1812C115.445 54.018 116.782 54.2946 119.21 59.436C119.21 59.436 122.246 66.3525 123.184 68.1047C125.42 72.3238 128.755 78.3873 129.631 82.4835ZM115.03 45.5413C115.383 45.0034 110.134 43.2358 108.882 43.5125C108.805 43.542 108.743 43.5996 108.707 43.6733C108.672 43.747 108.665 43.8316 108.689 43.9098C108.714 43.988 108.768 44.0539 108.839 44.0943C108.91 44.1347 108.994 44.1465 109.074 44.1273C111.379 44.1964 113.977 45.6643 114.615 45.8257C114.876 45.8641 114.953 45.6796 115.045 45.5413H115.03ZM114.661 54.1333C115.299 53.3647 111.948 53.5261 112.132 50.9209C112.286 48.7383 113.792 46.1792 113.047 46.0255C112.793 45.9717 112.632 45.9794 112.432 46.5865C111.21 50.2523 110.127 53.2187 114.115 54.31C114.207 54.3254 114.384 54.4637 114.676 54.1333H114.661Z" fill="#C49E91"/>
<path d="M113.216 42.6061C113.216 42.8136 113.324 42.829 111.633 42.2219C111.464 42.1604 111.51 42.145 111.771 39.9163C111.771 39.8011 111.987 33.3302 112.54 31.1784C112.663 30.7326 112.663 30.456 113.032 30.333C114.215 29.9718 112.732 35.6357 113.216 42.6061Z" fill="#C49E91"/>
<path d="M112.763 70.4181C113.101 70.7025 112.955 70.4181 110.934 73.4461C109.458 75.6824 108.759 77.2886 107.691 78.8256C105.569 81.8536 105.746 84.4281 104.908 83.2676C103.817 81.7306 101.873 80.5701 101.066 79.4251C100.636 78.8333 101.12 78.7257 100.674 76.6507C100.028 73.5767 100.574 72.9926 99.7518 70.0954C99.6442 69.7418 99.0294 69.6419 98.9833 70.0954C98.9833 70.3951 99.1985 71.3788 99.4137 72.8851C99.4233 74.2383 99.5648 75.587 99.8363 76.912C100.551 80.3242 99.0678 84.0899 99.1524 88.0631C99.3137 94.8337 98.722 95.7482 98.9525 98.7223C99.1447 101.235 99.3291 99.6215 100.405 103.964C100.459 104.171 89.7612 98.2151 78.7715 84.1283C77.3574 82.3223 59.0284 59.4208 59.0745 59.4055C60.3426 58.9751 60.673 58.7369 61.2648 59.2825C64.0314 61.9569 66.0066 64.5544 73.0922 66.5141C87.6939 70.4873 96.4626 58.245 97.6845 58.4141C100.759 58.8675 101.12 58.6139 102.442 59.8819C105.154 62.4872 104.924 63.4094 108.674 66.9906C109.504 67.8129 111.61 69.4575 112.763 70.4181ZM97.0236 87.164C97.1773 87.0948 97.4386 86.9027 97.2849 86.6952C96.4395 85.5885 94.9179 88.9238 87.9629 87.725C83.2519 86.9103 83.6285 86.1341 82.3143 86.088C81.9608 86.088 81.884 86.211 81.8686 86.357C81.868 86.4326 81.8916 86.5056 81.9358 86.5664C81.9807 86.6273 82.0428 86.6721 82.1145 86.6952C83.9051 87.2869 84.1587 88.2322 88.2626 88.7087C94.0571 89.3542 95.963 87.6097 97.0236 87.164Z" fill="#FFF59E"/>
<path d="M103.487 120.118C106.507 120.848 110.941 118.281 113.401 117.098C112.832 114.692 111.541 109.866 109.435 108.575C107.767 107.553 107.13 106.923 106.223 106.784C105.487 106.588 104.732 106.474 103.971 106.446C102.365 106.546 102.48 106.531 102.534 106.846C102.606 107.014 102.634 107.198 102.614 107.38C102.593 107.562 102.526 107.735 102.419 107.883C102.257 108.076 103.126 109.328 102.48 111.211C102.365 111.534 102.611 111.211 103.103 112.425C103.533 113.432 102.526 113.755 102.457 114.016C102.388 114.277 102.557 114.393 102.595 114.592C102.887 115.899 102.772 119.941 103.487 120.118Z" fill="#E3B27D"/>
<path d="M113.792 119.726C113.723 119.726 112.302 120.302 111.917 120.54C110.096 121.655 109.95 121.309 107.575 122.077C106.914 122.317 106.21 122.422 105.508 122.385C104.962 122.385 104.57 122.446 104.401 122.277C104.365 122.239 104.337 122.193 104.32 122.142C104.303 122.091 104.296 122.038 104.301 121.985C104.301 121.286 105.031 122.047 107.844 121.124C109.058 120.732 109.973 120.748 111.279 119.887C111.994 119.528 112.728 119.208 113.477 118.926C113.769 118.796 113.816 118.634 113.908 117.95C113.954 117.605 113.685 117.774 111.479 118.973C109.412 120.095 108.298 120.002 107.16 120.648C106.484 121.024 104.54 121.017 103.71 120.948C103.441 120.948 103.172 120.763 103.272 121.063C103.456 121.624 103.272 121.831 103.633 122.016C104.233 122.255 104.754 122.66 105.134 123.184C105.514 123.708 105.737 124.329 105.777 124.975C105.892 126.512 106.169 127.226 106.161 128.379C106.161 131.069 107.099 130.469 108.613 134.681C109.481 137.094 109.535 136.986 109.689 136.986C110.168 137.04 110.652 136.968 111.096 136.778C111.539 136.588 111.925 136.286 112.217 135.903C114.922 131.653 114.43 131.883 114.353 122.746C114.346 122.377 114.792 119.303 113.792 119.726Z" fill="#E3B27D"/>
<path d="M98.1379 103.671C95.9906 102.311 93.9367 100.809 91.9898 99.1757C83.0521 91.5905 80.8618 87.8401 75.1595 80.9774C67.0364 71.1942 60.6499 62.0568 58.2522 59.8742C57.6681 59.3516 57.6681 59.3516 57.3146 59.5053C56.9611 59.659 56.8074 59.7513 56.9457 59.9127C57.084 60.074 57.7142 60.6812 57.9678 60.9501C76.3123 82.9217 79.6783 91.8364 94.6796 102.757C101.819 107.952 101.957 108.344 101.904 106.999C101.85 105.654 101.758 106.453 98.1379 103.671Z" fill="#E3B27D"/>
<path d="M101.588 108.551C101.865 109.281 102.096 110.795 101.358 111.064C100.251 111.472 99.5211 110.78 98.1455 110.58C96.7699 110.38 94.2031 113.654 89.861 113.247C89.7227 113.247 89.2308 113.247 89.2308 113.247C87.5324 112.932 87.2173 112.624 86.1568 113.247C85.8084 113.568 85.3473 113.739 84.8734 113.723C83.6732 113.878 82.4558 113.627 81.4151 113.009C79.8781 112.171 77.4649 113.777 74.5984 113.731C73.8267 113.62 73.0979 113.307 72.485 112.824C71.1708 112.017 70.2717 113.67 68.3043 112.924C67.2438 112.517 65.6606 112.717 64.2312 112.448C63.6514 112.348 63.0588 112.348 62.479 112.448C61.9948 112.655 62.3176 112.11 61.2801 111.679C60.942 111.541 59.7431 111.502 59.159 111.026C58.452 110.45 59.6355 110.004 59.7969 108.913C59.8115 108.4 59.9209 107.894 60.1197 107.422C61.1187 105.754 61.0957 105.401 61.1418 104.717C61.0507 103.867 61.1264 103.009 61.3647 102.188C61.8258 101.32 60.6961 98.092 60.4963 97.5002C58.8824 92.7739 59.428 95.4637 58.6826 90.6451C58.0985 86.8564 57.5606 86.8564 57.5144 84.8659C57.4683 82.8755 58.0293 82.8217 57.5144 81.5614C57.3438 81.2815 57.1399 81.0234 56.9073 80.7928C56.6698 80.5226 56.5295 80.1806 56.5085 79.8213C56.4876 79.462 56.5874 79.106 56.792 78.8101C57.6623 77.3634 58.1466 75.7175 58.1984 74.03C58.3905 72.7158 58.4981 71.3786 57.9755 71.4017C57.0764 71.4017 57.9064 74.0223 56.8689 76.8504C56.354 78.2644 55.2166 79.0637 54.3328 79.9244C51.9274 82.2299 52.9726 82.4375 51.5508 80.0474C49.5066 76.6122 49.6449 76.6736 48.715 75.713C47.1011 74.0376 47.5008 74.6294 46.7323 73.5535C45.9692 72.4635 44.9507 71.5765 43.7658 70.9713C43.5814 70.9175 46.5401 67.8973 47.7467 66.6907C52.7727 61.8567 52.6421 63.8779 53.8948 61.8106C54.4865 60.85 54.7939 61.0422 56.1234 60.4504C57.6605 59.8202 78.4947 90.7604 88.1933 98.6914C94.2184 103.564 101.565 108.505 101.588 108.551ZM74.6215 86.4952C74.7143 86.4913 74.8027 86.4516 74.8667 86.3844C74.9314 86.3165 74.9673 86.2268 74.9673 86.134C74.9673 85.3117 73.4994 86.011 72.4235 86.134C66.2216 86.6642 66.8441 86.5029 63.0631 85.3655C62.3448 85.0798 61.6678 84.7001 61.0496 84.2358C60.2811 83.8285 59.5126 86.3799 68.581 87.3482C68.581 87.3482 72.0931 86.9486 72.1084 86.9486C72.9563 86.8596 73.7959 86.7078 74.6215 86.4952Z" fill="#FFF59E"/>
<path d="M99.7518 24.9766C99.1755 25.9756 101.466 27.0285 101.066 28.7423C100.782 29.9796 99.7826 30.1102 99.1601 30.5175C98.5376 30.9248 98.4377 31.286 99.0602 32.1468C99.2811 32.397 99.4111 32.7145 99.4291 33.0478C99.447 33.3811 99.3522 33.7108 99.1601 33.9835C98.3147 34.9134 97.0544 34.3677 97.0236 35.3207C96.9852 36.5273 97.5846 36.9653 96.6855 37.4572C95.7863 37.949 94.7489 37.1113 94.38 37.5186C94.0111 37.9259 94.38 38.1719 94.4799 38.633C94.7412 39.5398 94.1033 39.2785 92.743 40.024C92.0821 40.3929 91.7901 41.3381 92.4818 42.4525C93.5961 44.2585 93.6576 44.3661 92.1667 45.3113C89.523 47.002 92.8429 48.3316 91.7901 49.6918C90.7372 51.0521 90.7833 51.6746 90.8371 51.9973C90.8909 52.3201 90.5912 52.3509 90.3683 51.8744C90.1705 51.5721 90.077 51.2139 90.1 50.8535C90.1237 50.4932 90.264 50.1503 90.499 49.8763C90.6604 49.6907 90.7789 49.4721 90.8467 49.2358C90.914 48.9995 90.9294 48.7512 90.8909 48.5083C90.8448 48.1317 90.3683 47.7398 89.8458 47.3632C89.6312 47.1426 89.4993 46.8552 89.4711 46.5489C89.4436 46.2426 89.5211 45.9361 89.6921 45.6802C90.3683 44.6427 90.7372 44.7964 90.8986 44.1432C91.0293 43.6206 90.376 43.1057 89.9995 42.2527C89.8996 42.0989 93.2887 38.9788 93.5346 36.266C93.6115 35.8748 93.5807 35.47 93.4449 35.0951C93.3098 34.7201 93.0748 34.389 92.7661 34.1372C92.6278 34.0527 92.5509 34.0065 92.5893 33.7606C94.5414 20.8112 95.1792 17.23 95.379 16.277C95.4789 15.7775 95.379 15.5777 95.0716 15.4547C94.7642 15.3318 94.4952 15.5162 94.4568 15.0551C94.2109 12.4883 90.9601 11.1203 88.3856 11.1203C87.6971 11.0318 86.9978 11.1408 86.3689 11.4347C85.7406 11.7287 85.2084 12.1954 84.8351 12.7803C84.6737 13.1031 84.6506 13.2952 84.4431 13.08C84.0685 12.7008 83.6055 12.4208 83.0957 12.2652C82.5859 12.1095 82.0454 12.0832 81.5228 12.1886C80.1549 12.373 80.1088 12.9571 80.055 12.4729C79.6323 8.48436 72.3699 8.10779 70.2795 11.3816C70.0029 11.8197 70.2795 12.1501 69.5955 12.2116C68.389 12.2731 68.9193 12.6266 68.5196 26.7365C68.2737 35.4206 68.6733 30.9709 67.6973 36.0431C67.0825 39.2094 68.2968 40.3544 67.4514 41.9145C67.194 42.1912 66.9167 42.4481 66.6214 42.683C65.899 43.4976 67.2362 44.0202 67.1594 44.8886C66.9929 45.438 66.6323 45.9079 66.1449 46.2105C66.1212 46.2285 66.0924 46.2384 66.063 46.2388C66.0335 46.2394 66.0047 46.2303 65.9804 46.2131C65.9567 46.1959 65.9387 46.1715 65.9291 46.1434C65.9202 46.1152 65.9202 46.0849 65.9298 46.0568C66.3448 44.6427 65.9298 44.4506 65.0844 43.513C64.3697 42.7445 64.9691 42.3218 65.9836 41.5072C66.6598 40.9692 66.2756 40.5773 65.8683 40.2622C64.0314 38.8405 64.5388 38.8405 65.3764 37.2343C65.753 36.5119 65.5686 36.2275 65.2304 35.8894C64.8923 35.5513 64.1159 35.0287 63.9084 34.4292C63.7854 34.0723 63.7485 33.6914 63.8005 33.3175C63.8527 32.9435 63.9923 32.5872 64.2081 32.2774C64.9768 31.263 63.2014 31.9931 62.4482 30.994C61.818 30.1563 62.648 29.3878 62.894 29.1803C63.3858 28.7653 63.2167 28.358 62.8171 28.3734C60.5654 28.4579 60.1273 26.6365 61.6182 25.2993C62.087 24.892 62.3099 24.5846 61.6182 24.2926C60.2426 23.7393 60.8497 23.3704 61.6182 22.8401C62.233 22.4559 62.3867 22.0716 61.4568 21.7642C59.7277 21.2186 59.9198 19.6815 61.0572 18.8208C62.1946 17.9601 62.5942 18.9822 63.1783 18.6978C63.6087 18.4903 63.2244 17.7449 62.9401 17.5374C61.403 16.3923 62.3714 15.5393 62.8555 15.5162C63.8776 15.4547 63.8162 15.5931 64.3389 15.4624C65.753 15.1166 64.5772 14.0176 64.485 13.0954C64.4388 12.6727 64.654 11.8351 65.2535 12.0041C65.6685 12.1117 66.6368 12.5575 66.4908 11.6967C66.428 11.4651 66.4114 11.2234 66.4427 10.9855C66.4735 10.7475 66.5516 10.518 66.6714 10.3102C66.7911 10.1024 66.9512 9.92038 67.1414 9.77449C67.3323 9.62867 67.55 9.52191 67.7819 9.46036C68.243 9.36046 68.243 9.61406 68.9577 10.0905C69.6724 10.567 70.3948 10.2827 70.4102 9.79082C70.4102 8.69954 69.9875 7.48529 72.2162 6.47855C72.6062 6.35773 73.0225 6.34838 73.4176 6.45159C73.8127 6.55482 74.1714 6.76648 74.4525 7.06261C74.7676 7.40844 74.9521 7.68511 75.2825 7.16252C75.5323 6.49411 75.9537 5.90311 76.5044 5.44877C76.8964 5.11533 77.3575 4.87336 77.8545 4.74043C78.3521 4.6075 78.8727 4.58694 79.3787 4.68026C79.8532 4.74186 80.2964 4.94955 80.6473 5.27452C80.9989 5.5995 81.2404 6.02566 81.3384 6.49392C81.4075 6.7629 81.3384 6.98576 81.6842 7.07798C81.9147 7.13947 82.153 6.79364 82.1914 6.71678C82.3496 6.40263 82.5891 6.13652 82.8856 5.94601C83.1815 5.75549 83.5229 5.64751 83.8744 5.63321C85.204 5.80997 85.0733 6.98576 85.2808 7.17021C85.9725 7.81575 85.5575 5.5871 88.6238 6.07126C89.1387 6.17874 89.6152 6.4211 90.0059 6.77359C90.3959 7.12602 90.6854 7.57591 90.8448 8.07705C91.2444 8.9762 90.7065 8.93778 90.9832 9.61406C91.1676 10.0829 91.5134 9.92147 91.8669 9.5449C92.9352 8.37676 94.3569 8.60732 94.0802 9.59101C93.9137 9.92915 93.8196 10.2982 93.8036 10.6746C93.8068 10.7505 93.8318 10.8237 93.8753 10.8858C93.9195 10.9479 93.9797 10.9964 94.0495 11.0254C94.12 11.0544 94.1968 11.0629 94.2717 11.0498C94.3467 11.0366 94.4158 11.0025 94.4722 10.9513C95.4482 9.89073 98.6068 10.836 97.9228 13.1953C97.7307 13.8716 97.4924 14.3788 97.9689 14.5863C99.2677 15.1473 99.7134 15.1934 100.505 16.2232C100.869 16.6461 101.081 17.1789 101.106 17.7364C101.131 18.2938 100.968 18.8435 100.643 19.2973C100.543 19.4433 99.9901 19.7814 99.7826 20.0658C99.7397 20.1246 99.7128 20.1932 99.7032 20.2653C99.6942 20.3374 99.7038 20.4106 99.7307 20.4781C99.7576 20.5456 99.8012 20.6052 99.8569 20.6514C99.9132 20.6976 99.9798 20.7288 100.052 20.7421C101.089 20.865 102.05 22.5865 100.882 23.9391C100.274 24.6768 100.059 24.4386 99.7518 24.9766Z" fill="#585858"/>
<path d="M93.1273 18.8974C94.818 17.3604 94.4722 13.3488 91.6979 33.3069C91.6979 33.4837 91.6134 33.5682 91.4289 33.5836C91.2445 33.599 90.9294 33.6989 90.6604 33.5221C90.5675 33.4714 90.4862 33.4021 90.4215 33.3186C90.3568 33.2351 90.3101 33.1392 90.2838 33.0367C90.2582 32.9343 90.2537 32.8277 90.2704 32.7234C90.2877 32.6192 90.3261 32.5195 90.3837 32.4308C90.7065 31.8852 91.5826 31.7084 90.4606 31.0629C89.5614 30.548 90.6604 29.8102 90.8756 29.2646C91.3751 28.0042 88.9851 28.8573 88.9236 27.643C88.8314 25.9831 90.8986 26.7746 90.4606 24.6612C90.3146 23.9772 89.7305 23.9772 88.7391 23.7467C88.3011 23.6468 88.0859 23.2933 87.8477 22.9782C87.3789 22.3019 88.6162 20.9724 88.0244 20.5574C87.4327 20.1424 86.5566 22.0099 85.5959 21.4181C85.1963 21.1799 84.6737 20.9339 84.8274 20.4882C85.1425 19.4738 84.4893 19.2586 84.0051 19.7197C83.8674 19.8326 83.7028 19.9075 83.5274 19.9367C83.3519 19.966 83.1719 19.9486 83.0054 19.8863C82.8389 19.8241 82.6916 19.7191 82.5783 19.5819C82.4649 19.4448 82.39 19.2802 82.3605 19.1049C82.1991 18.175 81.592 18.3979 81.3999 18.9205C81.1155 19.8504 80.1549 20.7418 79.4171 20.4575C79.1674 20.3932 78.9387 20.2673 78.7504 20.0914C78.5622 19.9155 78.4219 19.6952 78.3412 19.4507C78.2957 19.3664 78.2266 19.2971 78.1427 19.2508C78.0588 19.2046 77.9634 19.1835 77.8679 19.1899C77.7725 19.1964 77.6803 19.2302 77.6034 19.2874C77.5266 19.3445 77.4677 19.4225 77.4344 19.5122C76.9886 20.4114 76.8734 20.2807 76.1279 20.3345C75.5131 20.3806 75.1673 19.9733 74.8291 19.4738C74.7811 19.3809 74.7036 19.3063 74.6095 19.2616C74.5147 19.2168 74.4084 19.2045 74.3059 19.2263C74.2034 19.2482 74.1112 19.303 74.0433 19.3825C73.9754 19.4619 73.9357 19.5615 73.93 19.6659C74.067 20.1489 74.0478 20.6632 73.8736 21.1343C73.6994 21.6054 73.3798 22.0089 72.9616 22.2865C72.3942 22.5948 71.7621 22.7658 71.1172 22.7861C70.2334 22.8936 70.2795 22.2174 69.7108 22.8245C69.6186 22.9321 69.7109 22.8706 69.511 22.9936C69.4649 22.7246 69.4572 13.7176 69.7262 13.7253C69.9952 13.733 69.511 14.4093 70.4947 15.9386C72.8003 19.3969 77.7341 17.9982 79.2019 15.4161C79.8014 14.3555 80.078 13.5947 81.0925 13.2719C81.5709 13.1062 82.089 13.0911 82.577 13.2285C83.0643 13.3659 83.4985 13.6492 83.8207 14.0404C84.0775 14.5693 84.2888 15.1196 84.4509 15.685C85.3039 19.297 89.9918 21.81 93.1273 18.8974Z" fill="#585858"/>
<path d="M95.7709 58.6441C93.8112 60.7729 92.597 61.2647 90.1454 62.7864C88.3913 64.1133 86.3778 65.056 84.2356 65.553C82.7863 65.9872 81.2896 66.2453 79.7782 66.3215C78.5871 66.3215 78.6255 66.3215 78.6255 66.3215C73.7512 66.2293 69.021 64.65 65.069 61.795C61.3954 58.4597 61.6106 59.2282 63.455 58.7209C69.7108 57.084 69.949 57.1839 71.1402 52.6574C71.6276 51.0246 71.9414 49.3452 72.0778 47.6467C72.6849 48.0233 74.8521 50.2981 77.6341 49.8754C80.8542 49.3759 82.4296 47.9234 83.0137 47.7159C83.0675 48.4306 81.7149 52.204 82.5756 55.401C83.5363 58.89 92.5432 57.8833 95.7709 58.6441ZM78.272 60.4193C78.8868 60.4193 81.9916 59.9659 81.8609 59.3665C81.6995 58.598 80.3854 59.866 77.9646 59.7661C77.6956 59.7661 77.588 59.7661 76.5505 59.2205C74.8521 58.3751 74.4832 58.6979 71.6858 59.428C70.6637 59.697 71.048 60.1965 71.7704 59.9967C72.4928 59.7969 74.6523 59.1359 75.3363 59.428C77.4266 60.3271 77.6572 60.4731 78.272 60.4193Z" fill="#C49E91"/>
<path d="M91.9821 34.4826C92.8889 34.9053 92.8351 36.0965 92.497 37.0264C91.9532 38.3761 91.1726 39.6176 90.1914 40.6922C89.9628 40.9742 89.6362 41.1595 89.2769 41.2108C88.9176 41.2622 88.5526 41.1757 88.2548 40.9688C88.0934 40.8766 87.8705 40.8766 87.6554 41.1533C86.6409 42.4444 86.3028 44.8729 81.5688 47.5626C79.4938 48.7385 76.9577 49.5761 74.7751 48.5617C72.3082 47.4089 71.094 44.9651 69.8413 42.8056C67.2053 38.2483 68.8499 35.7737 69.1727 32.6997C69.3418 31.1627 69.0959 29.2875 69.2496 27.3201C69.3341 26.2211 69.3341 24.7456 69.7491 23.9002C69.849 23.7081 69.9412 23.5467 70.1026 23.5237C70.6406 23.4622 70.8711 23.7542 71.8394 23.5698C72.7143 23.491 73.5321 23.1011 74.145 22.4708C75.1133 21.295 74.706 20.8185 75.0902 21.003C75.527 21.2393 76.0278 21.3317 76.5203 21.2668C77.0128 21.2019 77.4726 20.9832 77.8338 20.6418C78.172 20.3574 77.9337 20.9107 79.1941 21.3565C80.1009 21.6716 81.246 20.9415 81.7378 20.2652C82.0145 19.8656 82.0914 21.0798 83.5823 20.8569C84.2662 20.757 83.8051 22.0866 85.7956 22.4478C86.1484 22.4514 86.4988 22.3835 86.8254 22.2479C87.2865 22.0558 86.2951 23.1317 87.9551 24.3844C88.3912 24.621 88.8683 24.7722 89.3614 24.8301C89.6535 24.8916 89.8226 25.2067 89.4614 25.4526C87.2788 26.9205 87.9243 29.0569 89.3307 29.2952C89.5382 29.2952 89.7534 29.349 89.6227 29.5027C89.3832 29.8132 89.2532 30.1942 89.2532 30.5863C89.2532 30.9783 89.3832 31.3593 89.6227 31.6699C89.9225 31.985 89.4076 32.0388 89.469 33.2069C89.5228 34.1291 90.2375 34.0522 89.8763 34.4672C89.6304 34.767 89.8763 35.2895 90.2145 35.1128C90.4835 34.936 91.0599 34.0599 91.9821 34.4826ZM91.9436 36.3808C92.1972 36.2732 92.2664 35.6661 91.8514 35.2819C91.252 34.7208 90.1376 35.6969 89.738 36.888C89.3384 38.0792 90.2837 37.9563 89.7995 38.5864C89.5151 38.9553 89.0925 39.2935 89.4383 39.6086C89.7841 39.9237 90.2068 39.378 90.5065 39.0399C90.6103 38.9243 90.6878 38.7873 90.7326 38.6386C90.7781 38.4898 90.7896 38.333 90.7678 38.1791C90.7063 37.7488 89.8379 37.4567 90.9753 36.1349C91.2136 35.8582 91.4211 35.8275 91.5594 36.0734C91.6977 36.3193 91.813 36.4423 91.9436 36.3808ZM86.6025 30.9552C86.8792 31.3087 87.4632 31.1012 87.3018 30.6247C87.0329 29.9191 86.5385 29.322 85.8955 28.9263C85.2666 28.5378 84.5109 28.4109 83.7898 28.5728C81.5688 28.6881 81.7763 30.1098 82.7292 29.6871C84.9656 28.7726 85.7802 29.91 86.6025 30.9552ZM83.075 41.1917C83.0289 41.6835 83.6668 42.2369 83.9281 40.8997C83.6898 38.5941 81.7301 38.8401 82.3296 39.6086C82.5371 39.8775 81.7839 39.9083 81.4458 39.916C79.0653 39.9621 76.6939 39.6248 74.4216 38.9169C73.3534 38.6172 73.2689 38.7017 73.9528 40.1926C75.3515 43.2667 76.1892 45.918 78.8406 44.381C80.4544 43.4511 82.2374 41.2455 83.0981 40.7229C83.1365 41.161 83.1058 40.9381 83.075 41.1917ZM83.3517 33.2223C83.4824 32.569 83.3517 32.2462 83.1058 32.1463C83.0347 32.1308 82.961 32.1305 82.8893 32.1454C82.8182 32.1604 82.751 32.1903 82.6921 32.2331C82.6338 32.276 82.5845 32.3308 82.5486 32.394C82.5121 32.4572 82.4897 32.5273 82.4833 32.5998C82.2374 33.8524 83.2441 33.814 83.3517 33.2223ZM79.8627 37.1801C80.7541 36.988 80.8925 35.7814 80.3161 35.8198C80.0702 35.8198 80.0625 35.9735 79.9779 36.0965C79.8934 36.2194 79.7705 36.4807 79.4707 36.3655C78.7944 36.1042 78.8252 35.1666 78.2872 35.9044C78.1604 36.1003 77.9817 36.2566 77.7704 36.3553C77.5591 36.454 77.3247 36.491 77.0935 36.4621C76.8616 36.4331 76.6433 36.3395 76.4633 36.1918C76.2827 36.0442 76.1476 35.8487 76.0739 35.6277C75.8664 34.6901 76.4044 34.2905 77.0807 33.6603C77.3093 33.4689 77.4867 33.2228 77.5956 32.9447C77.7044 32.6666 77.7409 32.3656 77.7032 32.0695C77.7032 31.7775 77.3958 31.6161 77.1806 31.9081C77.0089 32.4293 76.6849 32.887 76.2507 33.2223C73.6224 35.3126 76.2507 38.671 78.4794 37.0648C78.6407 36.9495 78.7022 36.8189 78.8406 36.9188C78.9802 37.0359 79.1448 37.1202 79.3215 37.1654C79.4983 37.2106 79.6834 37.2156 79.8627 37.1801ZM76.7886 27.0742C77.2805 26.3057 75.4668 25.3066 73.3841 26.0598C71.6627 26.6746 71.2093 28.4344 72.1622 28.1578C72.3928 28.0886 72.3082 27.4661 73.4994 26.8897C75.413 25.9598 76.3736 27.712 76.7886 27.0742ZM75.3669 31.2856C75.413 30.8091 75.0825 30.4326 74.7521 30.5171C74.4216 30.6016 74.3602 30.763 74.3448 31.2241C74.3294 31.6852 74.5907 31.9388 74.7598 31.9926C75.121 32.0464 75.3438 31.6391 75.3669 31.2856Z" fill="#C49E91"/>
<path d="M90.8372 13.6716C90.9371 14.9243 89.8074 14.8551 90.0226 16.4152C90.4299 19.2664 90.745 19.251 90.1148 19.2202C88.7776 19.1357 89.0543 19.5046 88.5778 16.9147C88.4798 16.6261 88.4491 16.319 88.4875 16.0167C88.5259 15.7144 88.6329 15.4249 88.8007 15.1702C90.1532 13.0722 88.3319 11.7503 89.6768 12.0501C90.5067 12.296 90.7296 12.2345 90.8372 13.6716Z" fill="white"/>
<path d="M77.4803 40.4315C80.9693 41.0924 82.0913 40.4776 81.7224 40.808C77.9951 44.2202 77.1114 45.5651 75.2055 40.9464C74.6521 39.5861 73.8375 39.7475 77.4803 40.4315Z" fill="white"/>
<path d="M75.3517 9.99023C76.4814 10.1209 75.636 9.99023 75.3978 11.5273C74.9982 14.0787 76.6351 12.2958 74.5832 16.83C74.4679 17.0836 74.4295 17.0605 73.2844 16.8761C72.4544 16.7454 74.929 14.1018 74.0145 12.5109C73.5611 11.7424 74.0145 11.0431 74.3449 10.2515C74.4295 10.0594 74.3757 10.1286 75.3517 9.99023Z" fill="white"/>
<path d="M71.8703 117.052C73.8685 117.628 74.245 117.597 74.1759 117.882C73.9684 118.573 72.8925 118.473 71.3324 118.174C69.242 117.774 66.9673 117.098 64.4158 117.567C64.0006 117.643 64.0314 117.567 62.8094 117.467C62.736 117.454 62.6602 117.466 62.5944 117.501C62.5287 117.536 62.477 117.593 62.4476 117.662C62.4182 117.73 62.4129 117.807 62.4325 117.879C62.4522 117.951 62.4956 118.014 62.5558 118.058C63.4674 118.356 64.3998 118.584 65.3457 118.742C66.2679 118.911 66.729 118.742 67.3208 119.05C68.9346 119.987 69.1114 119.48 69.9644 120.026C72.147 121.417 73.1614 121.255 72.5927 121.77C72.024 122.285 71.3939 122.139 68.9423 120.925C67.3054 120.11 65.2765 120.525 62.6173 119.864C61.918 119.688 61.5337 120.333 62.0255 120.518C65.607 121.832 65.2227 121.132 66.6368 122.17C67.6128 122.938 67.8434 122.746 69.1421 123.707C69.4726 123.953 69.0345 124.199 68.7579 124.206C67.5821 124.206 65.0229 122.777 64.3543 122.777C63.6579 122.762 62.9661 122.662 62.2945 122.477C61.3032 122.239 57.7757 125.129 55.6623 125.551C53.8486 125.936 51.9888 124.568 51.8198 123.907C51.8198 123.784 51.7506 123.791 52.5114 121.64C52.9264 120.464 53.449 122.27 55.4471 120.502C55.8713 119.965 56.1208 119.31 56.1618 118.627C56.1618 118.366 56.4923 118.051 57.3607 117.244C58.2291 116.437 58.9746 115.661 59.6047 115.123C62.8863 112.31 62.6788 113.094 66.0681 113.363C68.4812 113.547 67.6051 113.478 72.7926 115.568C73.1614 115.714 72.7926 116.468 72.1316 116.337C69.3452 115.287 66.3864 114.765 63.4089 114.8C63.0169 114.8 62.7249 115.084 62.771 115.261C62.9631 116.045 63.8777 114.761 71.8703 117.052Z" fill="#C49E91"/>
<path d="M52.7191 116.66C54.7941 117.075 55.7163 119.234 53.8488 119.634C50.9669 119.449 50.867 116.291 52.7191 116.66Z" fill="white"/>
<path d="M51.4201 81.5235C50.9909 82.1549 50.4907 82.7352 49.9292 83.2526C48.7611 84.3055 48.9762 84.4054 48.6842 84.1364C47.1472 82.6916 46.1404 80.4091 42.6514 77.6579C40.515 75.9672 40.0923 77.2121 42.8128 74.0075C44.3498 72.2091 44.0194 72.1323 44.4267 72.4166C45.8023 73.3696 46.079 74.507 47.9541 76.2592C49.0761 77.289 49.0454 77.6963 49.7755 78.8952C50.3211 79.7482 51.2049 81.1469 51.4201 81.5235Z" fill="#C49E91"/>
<path d="M48.9606 114.054C48.9606 114.054 50.9203 115.591 50.7128 115.837C50.2599 116.365 49.9921 117.026 49.9505 117.72C49.9089 118.413 50.0956 119.102 50.4822 119.68C51.0356 120.51 50.2671 120.517 49.9673 122.6C49.9673 122.884 50.1825 122.9 46.5936 120.494C43.581 118.481 32.43 110.104 30.086 107.345C25.6133 102.088 22.1473 98.8914 25.9514 93.8499C29.2714 89.431 35.5271 82.0533 35.8498 81.8535C39.0161 82.9679 42.5973 88.0554 43.8884 89.2081C44.1036 89.4003 44.3188 89.3157 42.751 90.7913C42.751 90.7913 39.139 94.434 37.5329 96.5551C36.5031 97.9154 35.4733 98.3073 35.6808 99.6291C35.9113 101.089 47.8924 112.97 48.9606 114.054Z" fill="#C49E91"/>
<path d="M39.2008 78.019C42.7821 79.7789 47.5622 85.781 47.2778 86.0577C45.3489 87.9482 45.5794 87.9174 45.3105 87.5947C44.0501 86.2037 40.1691 81.6464 38.0942 80.4168C37.4102 80.0095 37.2181 80.1017 37.3718 79.9403C39.3776 77.7885 38.7781 78.3879 39.2008 78.019Z" fill="#C49E91"/>
<path d="M129.447 78.8943C128.678 76.7271 118.941 57.0149 118.934 56.9995C117.112 53.5182 116.244 54.1253 116.567 51.4355C117.258 45.5564 116.344 46.1712 116.905 42.7437C117.367 40.1087 118.006 37.5078 118.818 34.9587C119.218 33.4832 118.964 32.7377 117.889 32.6532C117.12 32.584 116.644 33.3141 116.152 34.682C115.422 36.6878 114.761 39.662 114.1 41.2144C113.923 41.6294 114.3 32.0998 114.284 31.5465C114.336 30.9713 114.223 30.3934 113.961 29.8788C113.83 29.7241 113.655 29.6122 113.459 29.5575C113.263 29.5027 113.055 29.5076 112.863 29.5714C111.84 29.8481 111.764 30.9701 111.495 32.9221C111.08 36.0423 110.987 41.2605 110.849 40.4766C110.219 36.9799 110.273 35.9885 110.219 32.023C110.219 31.4927 110.28 30.7396 110.219 30.0787C110.142 29.1411 109.65 28.7107 109.005 28.8029C108.482 28.8721 108.198 29.0873 107.959 29.8481C106.976 32.8683 107.714 40.1922 107.375 39.9079C106.999 39.6903 106.599 39.515 106.184 39.3853C105.062 38.8166 104.486 38.4631 103.479 38.8935C101.942 39.5467 102.165 40.0155 101.612 41.9675C101.058 43.9195 100.72 44.4575 100.974 45.2875C101.066 45.5641 100.674 46.056 100.889 46.6554C103.026 52.9649 101.235 52.6421 108.928 55.6316C110.173 56.1234 110.173 56.7075 111.064 59.0207C112.401 62.5021 113.039 64.4694 113.37 65.7374C113.7 67.0055 115.506 72.654 115.46 74.3601C114.959 74.0091 114.476 73.6319 114.015 73.2304C113.777 73.0459 114.015 72.8615 114.1 71.9393C114.178 71.6242 114.179 71.2944 114.102 70.9787C114.026 70.6629 113.875 70.3702 113.662 70.1256C112.985 69.5031 111.894 68.4964 109.881 66.8441C104.224 62.2485 104.762 57.5452 97.8459 57.6374C97.5385 57.6374 96.9006 57.2531 96.3088 57.7911C96.109 57.9832 92.6431 57.2224 90.545 57.3531C90.1454 57.3531 84.4661 57.061 83.6745 55.7238C82.7831 54.2406 83.1212 51.4893 83.3441 50.4365C83.9512 47.6084 83.8206 46.9244 84.6121 46.4018C85.9801 45.2353 87.0854 43.7921 87.8552 42.1673C87.9321 41.9906 87.9705 41.7139 88.1012 41.7831C88.3894 41.9671 88.7198 42.0755 89.0618 42.0981C89.3538 42.0981 89.3308 42.8667 90.13 43.7658C90.253 43.8965 90.1992 43.8811 89.5921 44.4267C89.3378 44.6456 89.1322 44.9153 88.9888 45.2185C88.8453 45.5217 88.7672 45.8517 88.7589 46.187C88.7512 46.5224 88.8133 46.8557 88.9427 47.1654C89.0714 47.475 89.2635 47.7542 89.5075 47.9849C90.2299 48.5459 90.3222 48.6305 90.1531 48.9994C89.8034 49.3691 89.5671 49.8312 89.4717 50.331C89.3769 50.8307 89.4262 51.3473 89.6151 51.8198C89.8079 52.1992 90.0685 52.5403 90.3836 52.8265C90.7525 53.2492 91.667 53.3261 91.498 52.619C90.9216 50.1214 94.1032 50.8438 92.0052 47.1934C91.0599 45.5411 95.6402 46.1174 93.5883 42.5823C93.1042 41.7523 92.474 41.0914 93.3578 40.7148C94.2415 40.3383 94.4952 40.369 95.0024 39.8925C95.7325 39.2009 95.0024 38.3555 95.4789 38.417C97.1849 38.7628 98.622 37.4563 97.8382 35.9116C97.3463 34.928 100.051 35.6504 100.144 33.291C100.228 31.4236 98.9602 31.4389 99.7902 31.047C100.16 30.9549 100.509 30.7899 100.816 30.5617C101.122 30.3334 101.379 30.0464 101.573 29.7175C102.649 27.5656 100.943 26.0363 100.49 25.3754C102.126 24.4378 102.611 23.139 102.126 21.579C101.765 20.3954 100.935 20.4185 101.296 20.0035C101.841 19.3116 102.1 18.4367 102.019 17.5596C100.92 13.4404 98.2532 14.6009 98.6144 13.8324C98.9077 13.195 98.957 12.4721 98.7527 11.8008C98.549 11.1294 98.1059 10.5562 97.5077 10.1896C96.7719 9.75339 95.9143 9.56734 95.0639 9.65937C94.9025 9.47493 95.1791 8.07624 93.6421 7.96097C92.1051 7.84569 92.0436 8.63726 91.9283 8.19152C91.5652 7.11042 90.8403 6.18757 89.8764 5.57856C89.2168 5.25229 88.4809 5.1115 87.7477 5.17125C85.811 5.21737 85.9493 5.93976 85.519 5.5094C83.7283 3.65729 82.0991 5.83986 81.93 5.41718C81.3613 3.99544 77.2114 2.56601 75.0135 5.92439C74.8828 6.12421 74.806 6.23948 74.683 6.10884C74.3019 5.80845 73.8498 5.61167 73.3708 5.53761C72.8911 5.46355 72.4005 5.51472 71.9471 5.68616C68.1814 7.2232 70.241 9.75159 69.4648 9.2828C68.6886 8.81401 68.1507 8.29911 67.3053 8.72948C65.1381 9.82844 66.1218 11.4269 65.5147 11.2041C64.408 10.7891 63.355 12.2492 63.6701 13.3943C64.1619 15.185 64.1619 14.3242 62.7709 14.5394C62.3323 14.5967 61.9312 14.8163 61.6466 15.1549C61.362 15.4935 61.2148 15.9266 61.2339 16.3685C61.2954 17.5059 61.841 17.6442 61.4568 17.6903C61.0851 17.7868 60.7374 17.9593 60.4357 18.1967C60.1339 18.4343 59.8846 18.7316 59.7033 19.0702C59.5222 19.4088 59.413 19.7812 59.3828 20.164C59.3526 20.5468 59.402 20.9318 59.5278 21.2946C59.9505 22.5012 60.9419 22.3628 60.573 22.6472C60.377 22.7667 60.2164 22.9363 60.1078 23.1386C59.9992 23.3408 59.9465 23.5684 59.9552 23.7978C59.9637 24.0272 60.0334 24.2502 60.1568 24.4437C60.2803 24.6372 60.4532 24.7944 60.6575 24.8989C60.7728 24.9758 60.7728 25.0219 60.6575 25.1064C60.3507 25.3858 60.1251 25.7428 60.0043 26.1397C59.8836 26.5367 59.8721 26.9589 59.9713 27.3618C60.0704 27.7647 60.2765 28.1334 60.5677 28.4289C60.8589 28.7245 61.2245 28.936 61.6258 29.0412C61.9255 29.1103 61.5644 29.1257 61.4414 30.1786C61.4104 30.4262 61.4292 30.6776 61.4966 30.9179C61.564 31.1583 61.6788 31.3828 61.8341 31.5781C61.9895 31.7736 62.1822 31.936 62.4011 32.056C62.6201 32.1759 62.8608 32.2509 63.1091 32.2766C63.7008 32.315 61.7795 34.39 64.3927 36.1806C65.3456 36.8339 64.1542 37.2796 63.9852 38.3939C63.77 39.7542 64.3619 40.0078 65.2918 40.7456C65.7606 41.1145 65.2918 41.1145 64.5233 41.7907C64.2469 41.9988 64.0632 42.3069 64.0115 42.6488C63.9598 42.9907 64.0441 43.3393 64.2464 43.6198C64.4958 43.96 64.7737 44.2789 65.0766 44.5727C65.63 45.2183 65.3456 45.6871 65.0766 46.5401C64.9383 47.0397 65.3533 47.3547 65.7068 47.1703C67.5359 46.2327 68.6271 45.0723 67.3898 43.4353C67.0286 42.9512 67.8356 43.1817 68.2813 41.7523C68.2813 41.7139 68.3428 41.637 68.3889 41.7523C70.0105 45.2567 71.2016 46.1328 71.194 47.5546C71.194 49.1531 70.218 54.4711 69.0037 55.7545C67.9278 56.8919 66.045 57.2455 61.7719 58.2368C61.0033 58.4136 61.2262 57.7757 60.0581 58.1523C58.1445 58.7594 58.1214 58.9208 57.8678 58.7594C57.6142 58.598 57.4221 58.6441 56.2386 59.1052C55.7698 59.2897 56.2386 59.3512 55.4701 59.6893C54.3019 60.2042 53.6718 60.3579 52.9263 61.6874C52.1809 63.017 51.7121 60.9189 43.9501 69.3725C42.8819 70.5252 42.3439 70.7942 42.4131 71.5935C42.49 72.5464 42.9664 72.7078 42.5207 73.1305C40.8377 74.6137 31.6002 85.296 30.2246 87.0405C22.1629 97.0311 20.2954 97.6536 29.848 108.605C31.5003 110.503 47.2317 122.868 49.6525 123.606C50.0751 123.737 49.7139 124.213 50.6823 124.644C51.3278 124.928 51.1049 124.544 51.9196 125.312C53.5334 126.849 54.0791 126.304 53.9331 126.688C53.3183 128.309 51.2663 133.435 51.4585 134.965C51.7121 136.963 50.9743 137.631 50.6899 139.046C50.3057 140.729 50.567 141.551 50.2596 143.195C49.9906 144.594 49.7831 143.849 49.1606 147.86C49.03 148.721 49.9291 148.859 50.0521 148.291C50.1516 147.25 50.3471 146.221 50.6362 145.217C51.1458 144 51.4071 142.693 51.4047 141.374C51.7121 137.147 52.6727 138.023 52.396 135.18C52.2577 133.727 52.642 133.289 54.7554 126.826C54.8706 126.473 55.0935 126.688 55.7006 126.557C58.6594 125.919 61.3722 123.23 62.0331 123.36C66.752 124.344 62.9246 123.191 67.605 125.005C69.3572 125.689 69.9105 124.498 70.4024 124.574C70.4024 124.574 77.0577 125.466 77.5188 125.12C77.8185 124.897 77.7109 125.258 79.6091 125.42C80.5313 125.504 81.0001 125.773 81.9147 125.85C82.8292 125.927 84.3278 125.581 84.7197 125.666C85.763 125.774 86.8165 125.73 87.8475 125.535C88.9619 125.636 90.0852 125.597 91.1906 125.42C92.205 125.205 91.7516 124.89 92.3433 124.897C92.7968 124.897 95.8247 124.551 95.8477 124.551C98.2551 124.197 100.614 123.567 102.88 122.676C103.126 122.676 103.341 123.007 103.648 123.114C104.084 123.336 104.429 123.703 104.624 124.152C105.116 124.82 104.885 125.404 105.131 126.588C105.297 127.604 105.375 128.633 105.362 129.662C105.546 131.199 105.792 130.676 107.314 133.935C107.675 134.703 107.006 133.312 109.619 139.722C111.41 144.141 108.743 139.053 113.285 148.798C113.516 149.29 113.662 150.097 114.261 149.905C115.329 149.574 111.956 144.878 111.226 141.559C110.496 138.239 109.389 138.023 110.349 137.97C110.87 137.96 111.381 137.834 111.846 137.601C112.312 137.368 112.719 137.035 113.039 136.625C114.576 134.127 115.391 133.551 115.437 128.663C115.437 126.142 115.268 122.953 115.437 121.885C115.775 119.802 114.669 119.333 114.838 118.68C115.014 117.796 114.968 117.912 114.538 116.959C113.639 114.922 112.732 109.381 110.042 107.79C107.614 106.353 107.583 106.046 106.714 105.953C105.516 105.823 104.855 105.462 103.233 105.715C102.664 105.8 102.465 105.854 102.296 105.715C101.412 104.947 101.412 104.862 101.381 104.547C101.197 102.472 99.9746 100.174 99.8978 99.3443C99.8325 97.3219 99.8862 95.2968 100.059 93.2808C100.39 88.6159 99.7902 88.9848 100.221 85.4497C100.413 83.9127 100.62 83.0366 100.881 80.8386C100.881 80.6849 100.697 80.4621 102.818 82.3756C104.355 83.7359 105.892 86.2182 107.037 85.0347C107.16 84.9117 107.252 84.9425 107.368 85.0347C108.39 85.9569 108.974 86.3335 110.042 87.248C113.792 90.445 119.733 96.862 124.644 96.424C130.861 95.8783 130.792 91.8667 130.792 85.6649C130.821 83.3388 130.363 81.0327 129.447 78.8943ZM111.771 39.9079C111.771 39.7926 111.986 33.3218 112.54 31.1699C112.663 30.7242 112.663 30.4475 113.032 30.3246C114.177 29.9326 112.693 35.6042 113.193 42.6207C113.193 42.8282 113.301 42.8436 111.61 42.2365C111.479 42.1596 111.525 42.1443 111.787 39.9079H111.771ZM67.6972 35.9731C67.0824 39.1394 68.2967 40.2845 67.4513 41.8445C67.1939 42.1211 66.9166 42.3781 66.6213 42.613C65.8989 43.4277 67.2361 43.9503 67.1593 44.8187C66.9928 45.368 66.6322 45.8379 66.1449 46.1405C66.1212 46.1584 66.0923 46.1684 66.0629 46.1689C66.0334 46.1693 66.0046 46.1603 65.9803 46.1431C65.9559 46.1259 65.938 46.1014 65.929 46.0733C65.9201 46.0451 65.9201 46.0149 65.9297 45.9868C66.3447 44.5727 65.9297 44.3806 65.0843 43.443C64.3696 42.6745 64.969 42.2518 65.9835 41.4372C66.6598 40.8993 66.2755 40.5073 65.8682 40.1922C64.0313 38.7705 64.5387 38.7705 65.3764 37.1643C65.7529 36.4419 65.5685 36.1576 65.2303 35.8194C64.8922 35.4813 64.1158 34.9587 63.9083 34.3593C63.7966 34.0121 63.7656 33.6442 63.8175 33.2833C63.8694 32.9224 64.003 32.5781 64.208 32.2766C64.9767 31.2622 63.2013 31.9922 62.4481 30.9932C61.818 30.1555 62.6479 29.387 62.8939 29.1795C63.3857 28.7645 63.2166 28.3572 62.817 28.3726C60.5653 28.4571 60.1272 26.6357 61.6181 25.2985C62.0869 24.8912 62.3098 24.5838 61.6181 24.2918C60.2425 23.7385 60.8496 23.3696 61.6181 22.8393C62.233 22.455 62.3867 22.0708 61.4568 21.7634C59.7276 21.2178 59.9197 19.6807 61.0571 18.82C62.1945 17.9593 62.5942 18.9814 63.1782 18.697C63.6086 18.4895 63.2243 17.7441 62.94 17.5366C61.403 16.3915 62.3713 15.5385 62.8554 15.5154C63.8776 15.4539 63.8161 15.5923 64.3389 15.4616C65.7529 15.1158 64.5771 14.0168 64.4849 13.0946C64.4388 12.6719 64.6539 11.8343 65.2534 12.0033C65.6684 12.1109 66.6367 12.5567 66.4907 11.6959C66.4279 11.4643 66.4113 11.2225 66.4427 10.9846C66.4734 10.7466 66.5515 10.5172 66.6713 10.3093C66.791 10.1015 66.9511 9.91951 67.1414 9.77363C67.3322 9.6278 67.5499 9.52104 67.7818 9.45956C68.2429 9.35966 68.2429 9.61326 68.9576 10.0897C69.6723 10.5662 70.3947 10.2819 70.4101 9.79002C70.4101 8.69874 69.9874 7.48449 72.2161 6.47775C72.6061 6.35687 73.0224 6.34753 73.4175 6.45072C73.8127 6.55396 74.1713 6.76562 74.4524 7.06181C74.7675 7.40764 74.952 7.6843 75.2824 7.16172C75.5322 6.49324 75.9536 5.90225 76.5044 5.44792C76.8963 5.11447 77.3574 4.8725 77.8544 4.73958C78.352 4.60664 78.872 4.58609 79.3786 4.67941C79.8531 4.74101 80.2963 4.94869 80.6473 5.27367C80.9989 5.59865 81.2403 6.02481 81.3383 6.49312C81.4074 6.76209 81.3383 6.98496 81.6841 7.07718C81.9147 7.13866 82.1529 6.79283 82.1913 6.71598C82.3495 6.40177 82.589 6.13566 82.8849 5.94516C83.1814 5.75464 83.5228 5.64665 83.8744 5.63236C85.2039 5.80912 85.0732 6.98496 85.2807 7.1694C85.9724 7.81495 85.5574 5.58625 88.6237 6.07041C89.138 6.17788 89.6151 6.42024 90.0058 6.77273C90.3958 7.12515 90.6853 7.57505 90.8447 8.07624C91.2444 8.9754 90.7064 8.93697 90.9831 9.61326C91.1675 10.0821 91.5133 9.92067 91.8669 9.5441C92.9351 8.37596 94.3568 8.60652 94.0802 9.59021C93.9137 9.92835 93.8195 10.2973 93.8035 10.6738C93.8067 10.7496 93.8317 10.8229 93.8752 10.885C93.9194 10.9471 93.9796 10.9955 94.0494 11.0246C94.1199 11.0536 94.1967 11.062 94.2716 11.0489C94.3466 11.0358 94.4157 11.0016 94.4721 10.9505C95.4481 9.88993 98.6067 10.8352 97.9227 13.1945C97.7306 13.8708 97.4923 14.378 97.9688 14.5855C99.2676 15.1465 99.7133 15.1926 100.505 16.2224C100.869 16.6452 101.081 17.1781 101.106 17.7355C101.131 18.2929 100.968 18.8427 100.643 19.2965C100.543 19.4425 99.99 19.7806 99.7825 20.065C99.7396 20.1237 99.7121 20.1923 99.7031 20.2644C99.6941 20.3365 99.7037 20.4097 99.7306 20.4772C99.7575 20.5448 99.8004 20.6044 99.8568 20.6505C99.9131 20.6967 99.9798 20.7279 100.051 20.7413C101.089 20.8642 102.05 22.5857 100.881 23.9383C100.244 24.7068 100.021 24.4378 99.721 24.9758C99.1446 25.9748 101.435 27.0277 101.035 28.7415C100.751 29.9788 99.7518 30.1094 99.1293 30.5167C98.5068 30.924 98.4069 31.2852 99.0294 32.1459C99.2503 32.3962 99.3803 32.7136 99.3982 33.047C99.4162 33.3802 99.3214 33.7099 99.1293 33.9827C98.2839 34.9126 97.0236 34.3669 96.9928 35.3199C96.9544 36.5265 97.5538 36.9645 96.6547 37.4563C95.7555 37.9482 94.718 37.1105 94.3491 37.5178C93.9803 37.9251 94.3491 38.1711 94.4491 38.6322C94.7103 39.539 94.0725 39.2777 92.7122 40.0232C92.0513 40.3921 91.7593 41.3373 92.4509 42.4517C93.5653 44.2577 93.6267 44.3652 92.1358 45.3105C89.4922 47.0012 92.8121 48.3308 91.7593 49.691C90.7064 51.0513 90.7525 51.6738 90.8063 51.9965C90.8601 52.3193 90.5604 52.3501 90.3375 51.8736C90.1396 51.5712 90.0461 51.213 90.0692 50.8527C90.0929 50.4924 90.2331 50.1494 90.4682 49.8755C90.6296 49.6899 90.748 49.4712 90.8159 49.2349C90.8832 48.9986 90.8985 48.7503 90.8601 48.5075C90.814 48.1309 90.3375 47.739 89.8149 47.3624C89.6004 47.1417 89.4685 46.8543 89.4403 46.5481C89.4128 46.2418 89.4902 45.9352 89.6612 45.6794C90.3375 44.6419 90.7064 44.7956 90.8678 44.1424C90.9984 43.6198 90.3452 43.1049 89.9686 42.2518C89.8687 42.0981 93.2579 38.978 93.5038 36.2652C93.5806 35.874 93.5499 35.4692 93.4141 35.0942C93.279 34.7192 93.044 34.3881 92.7353 34.1364C92.5969 34.0519 92.5201 34.0057 92.5585 33.7598C94.5105 20.8104 95.1484 17.2292 95.3482 16.2762C95.4481 15.7767 95.3482 15.5769 95.0408 15.4539C94.7334 15.331 94.4644 15.5154 94.426 15.0543C94.1801 12.4875 90.9293 11.1195 88.3548 11.1195C87.6663 11.0309 86.967 11.14 86.3381 11.4339C85.7098 11.7278 85.1776 12.1945 84.8043 12.7795C84.6429 13.1023 84.6198 13.2944 84.4123 13.0792C84.0377 12.7 83.5746 12.4199 83.0649 12.2643C82.5551 12.1087 82.0146 12.0824 81.492 12.1878C80.124 12.3722 80.0779 12.9563 80.0241 12.4721C79.6015 8.48355 72.339 8.10699 70.2487 11.3808C69.972 11.8189 70.2487 12.1493 69.5647 12.2108C68.3582 12.2723 68.8884 12.6258 68.4888 26.7356C68.2736 35.3506 68.6425 30.901 67.6972 35.9731ZM90.4682 31.0624C89.569 30.5475 90.668 29.8097 90.8832 29.264C91.3827 28.0037 88.9926 28.8567 88.9311 27.6425C88.8389 25.9825 90.9062 26.7741 90.4682 24.6607C90.3222 23.9767 89.7381 23.9767 88.7467 23.7461C88.3087 23.6462 88.0935 23.2927 87.8552 22.9776C87.3864 22.3013 88.6237 20.9718 88.032 20.5568C87.4402 20.1418 86.5641 22.0093 85.6035 21.4176C85.2039 21.1793 84.6813 20.9334 84.835 20.4877C85.1501 19.4732 84.4969 19.2581 84.0127 19.7192C83.875 19.8321 83.7104 19.9069 83.5349 19.9362C83.3595 19.9655 83.1795 19.948 83.013 19.8858C82.8465 19.8235 82.6992 19.7185 82.5858 19.5814C82.4725 19.4442 82.3975 19.2797 82.3681 19.1044C82.2067 18.1745 81.5996 18.3973 81.4074 18.9199C81.1231 19.8498 80.1625 20.7413 79.4247 20.4569C79.1749 20.3926 78.9463 20.2668 78.758 20.0909C78.5704 19.9149 78.4295 19.6946 78.3488 19.4502C78.3033 19.3659 78.2341 19.2965 78.1503 19.2503C78.0664 19.2041 77.9709 19.1829 77.8755 19.1894C77.7801 19.1959 77.6879 19.2297 77.611 19.2868C77.5342 19.3439 77.4752 19.422 77.4419 19.5117C76.9962 20.4108 76.8809 20.2802 76.1355 20.334C75.5207 20.3801 75.1748 19.9728 74.8367 19.4732C74.7887 19.3803 74.7112 19.3058 74.617 19.2611C74.5222 19.2163 74.4159 19.2039 74.3135 19.2258C74.211 19.2476 74.1188 19.3025 74.0509 19.3819C73.983 19.4614 73.9433 19.561 73.9375 19.6654C74.0739 20.1492 74.0535 20.664 73.878 21.1352C73.7025 21.6064 73.381 22.0094 72.9615 22.286C72.3941 22.5942 71.762 22.7653 71.1171 22.7855C70.2333 22.8931 70.2794 22.2168 69.7107 22.8239C69.6185 22.9315 69.7107 22.87 69.5109 22.993C69.4648 22.724 69.4571 13.7171 69.7261 13.7248C69.9951 13.7325 69.5109 14.4088 70.4946 15.9381C72.8001 19.3964 77.734 17.9977 79.2018 15.4155C79.8013 14.355 80.0779 13.5941 81.0924 13.2714C81.5663 13.1042 82.0799 13.0844 82.5653 13.2147C83.0514 13.345 83.4863 13.6193 83.8129 14.0014C84.0723 14.5357 84.2855 15.091 84.4507 15.6614C85.273 19.3118 89.961 21.8095 93.0965 18.9122C93.7804 18.282 94.134 17.2522 94.1263 17.5673C94.1263 18.0284 93.3578 21.4099 91.667 33.3218C91.667 33.4985 91.5825 33.5831 91.3981 33.5984C91.2136 33.6138 90.8985 33.7137 90.6296 33.537C90.5367 33.4862 90.4554 33.4169 90.3907 33.3334C90.326 33.2499 90.2792 33.154 90.253 33.0516C90.2274 32.9492 90.2229 32.8425 90.2395 32.7382C90.2568 32.634 90.2952 32.5344 90.3529 32.4457C90.7218 31.8847 91.5825 31.7079 90.4682 31.0624ZM74.0221 12.5336C73.5687 11.7651 74.0221 11.0657 74.3525 10.2742C74.4371 10.059 74.3525 10.1282 75.3593 10.0129C76.489 10.1435 75.6436 10.0129 75.4054 11.5499C75.0058 14.1014 76.6427 12.3184 74.5908 16.8526C74.4755 17.1062 74.4371 17.0832 73.292 16.8987C72.4851 16.7681 74.9289 14.1244 74.0221 12.5336ZM89.7227 12.0725C90.4912 12.2569 90.7371 12.2339 90.8447 13.671C90.9446 14.9237 89.8149 14.8545 90.0301 16.4146C90.4374 19.2657 90.7525 19.2504 90.1223 19.2196C88.7851 19.1351 89.0618 19.504 88.5853 16.9141C88.4873 16.6255 88.4566 16.3184 88.495 16.0161C88.5341 15.7138 88.641 15.4243 88.8082 15.1696C90.1608 13.0639 88.3701 11.7728 89.715 12.0725H89.7227ZM69.8721 42.8129C67.2361 38.2556 68.8807 35.781 69.2035 32.707C69.3726 31.1699 69.1267 29.2948 69.2804 27.3274C69.3649 26.2284 69.3649 24.7529 69.7799 23.9075C69.8798 23.7154 69.972 23.554 70.1334 23.531C70.6714 23.4695 70.9019 23.7615 71.8703 23.5771C72.7451 23.4983 73.5635 23.1083 74.1758 22.4781C75.1441 21.3023 74.7368 20.8258 75.121 21.0103C75.5578 21.2466 76.0586 21.339 76.5511 21.2741C77.0436 21.2092 77.5034 20.9905 77.8646 20.6491C78.2028 20.3647 77.9645 20.918 79.2249 21.3638C80.1317 21.6789 81.2768 20.9488 81.7686 20.2725C82.0453 19.8729 82.1222 21.0871 83.6131 20.8642C84.297 20.7643 83.8359 22.0938 85.8264 22.455C86.1792 22.4587 86.5296 22.3908 86.8562 22.2552C87.3173 22.0631 86.3259 23.139 87.9859 24.3917C88.422 24.6283 88.8991 24.7795 89.3923 24.8374C89.6843 24.8989 89.8534 25.214 89.4922 25.4599C87.3096 26.9278 87.9551 29.0642 89.3615 29.3025C89.569 29.3025 89.7842 29.3563 89.6535 29.51C89.414 29.8205 89.284 30.2015 89.284 30.5936C89.284 30.9856 89.414 31.3666 89.6535 31.6772C89.9533 31.9922 89.4384 32.046 89.4998 33.2142C89.5536 34.1364 90.2684 34.0595 89.9072 34.4745C89.6612 34.7743 89.9072 35.2968 90.2453 35.1201C90.4835 35.0048 91.0599 34.1287 91.9821 34.5514C92.9043 34.9741 92.8352 36.1653 92.497 37.0951C91.9533 38.4449 91.1726 39.6864 90.1915 40.7609C89.9629 41.043 89.6363 41.2283 89.2776 41.2796C88.9183 41.331 88.5527 41.2445 88.2549 41.0376C88.0935 40.9454 87.8706 40.9454 87.6554 41.222C86.641 42.5131 86.3028 44.9416 81.5688 47.6314C79.4939 48.8072 76.9578 49.6449 74.7752 48.6305C72.3314 47.4085 71.1171 44.9647 69.8644 42.8052L69.8721 42.8129ZM63.4549 58.6979C69.7107 57.0687 69.949 57.1609 71.1402 52.6344C71.6256 51.0091 71.9401 49.3374 72.0777 47.6468C72.6849 48.0233 74.8521 50.2981 77.6341 49.8755C80.8541 49.3759 82.4296 47.9234 83.0136 47.7159C83.0674 48.4307 81.7149 52.204 82.5756 55.401C83.5208 58.9131 92.5278 57.9064 95.7555 58.6672C93.7958 60.796 92.5816 61.2878 90.13 62.8095C88.3759 64.1364 86.3624 65.0791 84.2202 65.576C82.7703 66.0109 81.2742 66.2683 79.7628 66.3445C78.5716 66.3445 78.6101 66.3445 78.6101 66.3445C73.7352 66.2523 69.0056 64.673 65.0536 61.8181C61.3953 58.4059 61.6105 59.1744 63.4549 58.6979ZM47.785 66.675C52.811 61.8411 52.6804 63.8623 53.9331 61.795C54.5248 60.8344 54.8322 61.0265 56.1617 60.4348C57.6987 59.8046 78.5332 90.7447 88.2318 98.6757C94.2031 103.563 101.55 108.505 101.573 108.551C101.85 109.32 102.08 110.795 101.343 111.064C100.236 111.471 99.5058 110.78 98.1302 110.58C96.7546 110.38 94.1801 113.654 89.8457 113.247C89.7073 113.247 89.2155 113.247 89.2155 113.247C87.5171 112.932 87.202 112.624 86.1415 113.247C85.7924 113.568 85.3313 113.739 84.8581 113.723C83.6579 113.878 82.4405 113.626 81.3998 113.008C79.8627 112.171 77.4496 113.777 74.5831 113.731C73.8165 113.617 73.0928 113.304 72.4851 112.824C71.1709 112.017 70.2718 113.669 68.3044 112.924C67.2438 112.517 65.6607 112.716 64.2311 112.447C63.6512 112.348 63.0587 112.348 62.4789 112.447C61.9947 112.655 62.3175 112.109 61.28 111.679C60.9419 111.541 59.743 111.502 59.1589 111.026C58.4519 110.449 59.6354 110.004 59.7968 108.912C59.8113 108.4 59.9208 107.894 60.1196 107.421C61.1186 105.754 61.0956 105.4 61.1417 104.716C61.0505 103.867 61.1262 103.008 61.3645 102.188C61.8256 101.319 60.6959 98.0917 60.4961 97.4999C58.8823 92.7736 59.4279 95.4634 58.6824 90.6448C58.0984 86.856 57.5604 86.856 57.5143 84.8656C57.4682 82.8752 58.0292 82.8214 57.5143 81.561C57.3436 81.2812 57.1398 81.0231 56.9072 80.7925C56.6697 80.5222 56.5293 80.1803 56.5085 79.821C56.4875 79.4617 56.5873 79.1056 56.7919 78.8098C57.6622 77.363 58.1465 75.7171 58.1983 74.0296C58.3904 72.7155 58.498 71.3783 57.9754 71.4013C57.0763 71.4013 57.9062 74.0219 56.8688 76.8501C56.3539 78.2641 55.2165 79.0634 54.3327 79.9241C51.9272 82.2296 52.9724 82.4371 51.5507 80.0471C49.5064 76.6118 49.6448 76.6733 48.7149 75.7127C47.101 74.0373 47.5006 74.6291 46.7321 73.5532C45.9691 72.4632 44.9505 71.5768 43.7657 70.971C43.6197 70.9018 46.5784 67.8431 47.785 66.675ZM61.2032 112.786C60.6349 113.283 60.0168 113.721 59.3587 114.092C58.6594 113.931 58.3443 113.654 58.498 112.993C58.6133 112.494 58.8746 112.032 59.3587 112.225C60.3732 112.517 60.6345 112.271 61.2032 112.778V112.786ZM42.8127 74.0066C44.3498 72.2083 44.0193 72.1314 44.4266 72.4158C45.8022 73.3687 46.0789 74.5061 47.9541 76.2583C49.0761 77.2881 49.0453 77.6954 49.7754 78.8943C50.3211 79.7858 51.2048 81.1998 51.42 81.561C50.9908 82.1925 50.4905 82.7727 49.9291 83.2902C48.761 84.343 48.9762 84.4429 48.6841 84.174C47.1471 82.7292 46.1404 80.4467 42.6513 77.6954C40.5149 75.9663 40.0922 77.2113 42.8127 74.0066ZM37.3717 79.9625C39.3775 77.7876 38.7781 78.3794 39.2007 78.0182C42.782 79.7781 47.5621 85.7801 47.2778 86.0568C45.3488 87.955 45.5794 87.9166 45.3104 87.5938C44.05 86.2028 40.1691 81.6456 38.0941 80.4159C37.4101 80.0317 37.218 80.1239 37.3717 79.9625ZM50.713 115.837C50.2601 116.364 49.9923 117.025 49.9506 117.719C49.909 118.413 50.0958 119.101 50.4825 119.679C51.0358 120.509 50.2673 120.517 49.9675 122.599C49.9675 122.884 50.1827 122.899 46.5938 120.494C43.5812 118.48 32.4302 110.103 30.0862 107.345C25.6135 102.088 22.1475 98.8909 25.9516 93.8495C29.2716 89.4305 35.5273 82.0529 35.85 81.8531C39.0163 82.9674 42.5976 88.0549 43.8886 89.2077C44.1038 89.3998 44.319 89.3153 42.7513 90.7908C42.7513 90.7908 39.1393 94.4335 37.5331 96.5546C36.5033 97.9149 35.4735 98.3068 35.681 99.6287C36.0225 100.397 36.5167 101.087 37.1335 101.658C38.9087 103.725 42.2287 107.406 48.9762 114.054C48.9762 114.069 50.9205 115.598 50.713 115.837ZM41.5985 105.416C37.4716 100.105 35.558 100.074 37.1027 98.3145C42.1902 92.52 41.3833 93.6343 47.6082 87.0174C49.6755 84.8118 50.5593 83.8204 51.0281 83.3901C51.4969 82.9597 51.5507 83.1365 52.081 83.2056C52.7649 83.2902 53.2183 81.9914 55.6929 79.9318C55.7698 79.8703 55.8236 79.8396 55.8159 79.9318C55.7467 81.3996 56.8841 81.4688 56.8841 82.5985C56.5274 84.1637 56.5829 85.7949 57.0455 87.3325C57.9831 90.2298 57.9754 93.2577 58.5825 94.8409C61.7181 103.54 60.2195 99.9668 60.327 104.063C60.327 105.162 60.3271 105.2 59.3664 106.868C58.8669 107.729 59.1743 108.582 58.7132 109.174C58.1291 109.881 57.791 110.48 58.206 111.272C58.5057 111.84 57.4375 112.04 57.7141 113.577C57.9139 114.73 58.9437 114.384 58.4212 115.068C58.2444 115.299 57.8525 115.637 57.1454 116.351C56.8076 116.709 56.4483 117.045 56.0695 117.358C55.8313 117.543 55.7621 117.358 55.5469 117.043C55.1403 116.385 54.5306 115.878 53.8101 115.598C52.1962 114.876 51.9503 115.598 51.5891 115.222C51.2279 114.845 41.8444 105.723 41.5985 105.416ZM52.7188 116.659C54.7938 117.074 55.716 119.233 53.8485 119.633C50.9666 119.449 50.8667 116.29 52.7188 116.659ZM68.7424 124.229C67.5666 124.275 65.0075 122.799 64.3389 122.799C63.6424 122.784 62.9506 122.684 62.2791 122.5C61.2877 122.261 57.7602 125.151 55.6468 125.574C53.8332 125.958 51.9734 124.59 51.8043 123.929C51.8043 123.806 51.7351 123.814 52.4959 121.662C52.9109 120.486 53.4335 122.292 55.4317 120.524C55.8559 119.987 56.1053 119.333 56.1464 118.649C56.1464 118.388 56.4768 118.073 57.3452 117.266C58.2136 116.459 58.9591 115.683 59.5893 115.145C62.8708 112.332 62.6633 113.116 66.0526 113.385C68.4811 113.569 67.6742 113.523 72.7771 115.591C73.146 115.737 72.7771 116.49 72.1162 116.359C69.329 115.309 66.3709 114.788 63.3934 114.822C63.0015 114.822 62.7094 115.106 62.7555 115.283C62.9554 116.052 63.8699 114.784 71.8626 117.074C73.8607 117.65 74.2373 117.619 74.1681 117.904C73.9606 118.595 72.8847 118.496 71.3246 118.196C69.2343 117.796 66.9595 117.12 64.408 117.589C63.9928 117.666 64.0236 117.589 62.8017 117.489C62.7281 117.476 62.6524 117.488 62.5867 117.523C62.521 117.559 62.4692 117.616 62.4397 117.684C62.4104 117.753 62.405 117.829 62.4247 117.901C62.4444 117.973 62.4878 118.036 62.548 118.081C63.4596 118.378 64.392 118.606 65.3379 118.765C66.2601 118.934 66.7212 118.765 67.313 119.072C68.9269 120.01 69.1036 119.502 69.9567 120.048C72.1392 121.439 73.1537 121.278 72.585 121.792C72.0163 122.307 71.3861 122.161 68.9345 120.947C67.2976 120.132 65.2688 120.547 62.6095 119.887C61.9102 119.71 61.5259 120.355 62.0178 120.54C65.5992 121.854 65.215 121.155 66.629 122.192C67.605 122.961 67.8356 122.768 69.1344 123.729C69.4571 123.975 69.0191 124.221 68.7424 124.229ZM76.0356 117.312C75.8742 118.726 75.1902 122.015 75.5668 123.891C75.6129 124.113 75.4976 124.037 75.1902 124.037C74.2456 123.987 73.3042 123.889 72.3698 123.744C71.2478 123.575 70.6406 123.921 69.9567 123.329C68.4196 122.015 67.2823 121.792 66.9287 121.301C68.4658 121.224 69.5878 122.446 71.2401 122.738C72.3314 122.938 73.415 122.738 73.7992 121.708C74.1835 120.678 71.6243 120.171 70.2103 119.18C69.6877 118.961 69.1408 118.806 68.581 118.718C68.3812 118.657 67.6819 118.303 67.8894 118.288C68.2474 118.303 68.6028 118.358 68.9499 118.449C69.803 118.672 71.5167 118.964 72.9846 119.218C73.707 119.326 74.829 119.049 74.9827 118.019C75.1364 116.989 74.1681 116.828 73.1767 116.582C73.4918 116.428 73.4918 115.952 73.6916 115.983C73.8914 116.013 74.6061 116.298 75.3593 116.405C75.5661 116.437 75.7679 116.496 75.9587 116.582C76.1585 116.667 76.0894 116.813 76.0356 117.335V117.312ZM76.8041 124.229C76.6734 124.229 76.4121 124.175 76.3891 124.044C76.1662 122.569 75.9433 122.884 76.758 116.92C76.758 116.682 76.8502 116.62 77.8185 116.697C76.8732 120.947 77.3805 123.329 77.1806 124.044C77.1422 124.236 76.9731 124.244 76.8118 124.236L76.8041 124.229ZM84.1741 124.605C82.6371 124.805 82.076 124.982 81.0539 124.682C79.294 124.152 77.9799 124.598 77.9799 123.852C77.9133 121.627 78.0856 119.4 78.4948 117.212C78.5198 117.071 78.5934 116.943 78.7029 116.85C78.8125 116.758 78.9508 116.706 79.0942 116.705H80.1317C80.8157 116.705 80.8464 117.274 81.7994 117.128C82.468 117.028 83.1366 116.982 83.8052 116.935C84.2202 116.935 84.1433 116.866 84.297 118.188C84.0127 118.204 84.3047 124.598 84.1818 124.613L84.1741 124.605ZM86.1491 124.697C85.2116 124.697 85.1808 124.697 85.1193 124.574C84.835 123.937 85.1193 117.735 84.9195 117.082C84.8273 116.789 85.0041 116.859 85.9109 116.859C86.0031 117.827 86.3182 124.705 86.1568 124.705L86.1491 124.697ZM91.4519 124.144C91.3513 124.281 91.2079 124.382 91.0446 124.428C90.4528 124.537 89.8546 124.605 89.2539 124.628C87.5171 124.544 87.0637 124.782 87.0406 124.083C86.7409 114.2 85.9493 117.558 88.9465 116.528C89.3897 116.263 89.9097 116.155 90.4221 116.221C91.2674 116.221 91.2828 116.105 91.3596 116.713C91.5204 119.189 91.5537 121.672 91.4595 124.152L91.4519 124.144ZM92.4586 123.914C92.0513 123.914 92.2511 123.867 92.2665 122.853C92.2665 122.146 92.328 120.048 92.3433 119.71C92.4586 115.867 91.2905 116.021 92.6815 116.006C92.7077 116.011 92.7321 116.023 92.7519 116.04C92.7724 116.058 92.7878 116.081 92.7968 116.106C93.0164 116.854 93.1176 117.632 93.0965 118.411C93.0017 120.14 93.0299 121.874 93.181 123.598C93.2348 123.898 93.0042 123.952 92.4663 123.921L92.4586 123.914ZM94.1032 123.645C93.7574 123.36 94.011 118.134 93.8496 117.204C93.5115 115.214 92.5047 116.029 96.9698 115.26C101.581 114.492 101.788 113.608 101.873 115.437C101.873 115.644 102.173 120.163 102.472 121.585C102.618 122.192 94.6028 124.052 94.1109 123.652L94.1032 123.645ZM113.9 117.973C113.815 118.657 113.762 118.818 113.47 118.949C112.72 119.23 111.986 119.551 111.272 119.91C109.965 120.77 109.051 120.755 107.836 121.147C105.024 122.069 104.286 121.308 104.294 122.008C104.287 122.115 104.323 122.219 104.394 122.3C104.563 122.469 104.955 122.407 105.5 122.407C106.203 122.444 106.906 122.34 107.567 122.1C109.942 121.331 110.088 121.646 111.91 120.563C112.294 120.325 113.716 119.794 113.785 119.748C114.784 119.318 114.338 122.4 114.346 122.776C114.423 131.914 114.914 131.683 112.209 135.933C111.917 136.317 111.531 136.618 111.088 136.809C110.645 136.998 110.16 137.07 109.681 137.017C109.527 137.017 109.473 137.147 108.605 134.711C107.068 130.5 106.13 131.099 106.153 128.409C106.153 127.257 105.884 126.503 105.769 125.005C105.729 124.359 105.506 123.738 105.126 123.214C104.746 122.69 104.226 122.286 103.625 122.046C103.272 121.862 103.448 121.654 103.264 121.093C103.164 120.793 103.433 120.955 103.702 120.978C104.532 121.047 106.476 121.055 107.152 120.678C108.29 120.033 109.404 120.125 111.472 119.003C113.685 117.804 113.985 117.635 113.908 117.981L113.9 117.973ZM102.372 107.875C102.48 107.727 102.547 107.553 102.568 107.371C102.588 107.19 102.56 107.005 102.488 106.837C102.434 106.522 102.319 106.538 103.925 106.438C104.686 106.466 105.441 106.579 106.176 106.776C107.114 106.914 107.714 107.544 109.389 108.566C111.495 109.858 112.786 114.715 113.354 117.089C110.895 118.273 106.438 120.84 103.441 120.109C102.726 119.933 102.841 115.89 102.549 114.584C102.511 114.384 102.365 114.177 102.411 114.007C102.457 113.838 103.487 113.423 103.056 112.417C102.565 111.241 102.288 111.525 102.434 111.202C103.118 109.327 102.257 108.075 102.457 107.882L102.372 107.875ZM102.234 112.647C102.349 112.862 102.188 112.978 102.057 113.116C101.673 113.554 101.289 113.362 100.267 113.546C99.5827 113.669 98.0764 114.138 97.1926 114.315C97.1926 114.315 91.3443 115.276 89.7996 115.291C88.7928 115.291 89.2309 115.667 87.7092 115.775C86.1876 115.883 83.7207 115.983 83.4056 116.006C81.4689 116.144 81.3844 116.321 81.0539 116.052C80.6005 115.698 80.4084 115.813 78.2489 115.79C77.3728 115.79 75.9433 115.714 75.9433 115.714C75.3516 115.929 74.0374 115.391 72.8693 114.945C71.5552 114.415 70.3793 113.931 70.5638 113.861C71.2631 113.569 71.4783 113.377 71.9932 113.631C73.6839 114.469 73.5302 114.914 76.5044 114.53C76.5044 114.53 80.0472 113.439 80.8388 113.815C81.7097 114.342 82.6966 114.648 83.713 114.707C85.5343 114.799 85.7726 114.707 86.3874 114.315C88.0166 113.339 86.9177 114.43 91.0984 114.238C94.1032 114.1 96.9698 111.786 97.7075 111.587C98.3217 111.597 98.9269 111.738 99.4828 112.002C100.229 112.233 101.02 112.278 101.788 112.132C102.165 112.109 102.165 112.44 102.28 112.655L102.234 112.647ZM101.834 106.991C101.888 108.336 101.75 107.944 94.6104 102.749C79.6552 91.8283 76.3276 82.952 57.9447 60.9497C57.6988 60.6576 57.0839 60.112 56.9226 59.9122C56.7612 59.7124 56.9764 59.6278 57.2914 59.5049C57.6065 59.3819 57.645 59.3512 58.229 59.8738C60.6575 62.0563 67.044 71.1938 75.1364 80.977C80.6389 87.6092 82.9214 91.4978 91.9668 99.1752C93.9137 100.809 95.9675 102.311 98.1148 103.671C101.758 106.453 101.727 105.661 101.881 106.999L101.834 106.991ZM104.862 83.2825C103.771 81.7455 101.827 80.585 101.02 79.4399C100.589 78.8559 101.074 78.7406 100.628 76.6656C99.9823 73.5916 100.528 73.0075 99.7057 70.1102C99.5981 69.7567 98.9833 69.6568 98.9371 70.1102C98.9371 70.41 99.1523 71.3936 99.3675 72.8999C99.3771 74.2531 99.5186 75.6012 99.7902 76.9269C100.505 80.3391 99.0217 84.1125 99.1062 88.078C99.2676 94.8485 98.6758 95.7631 98.9064 98.7372C99.0985 101.25 99.283 99.6364 100.359 103.978C100.413 104.186 89.715 98.23 78.7254 84.1432C77.3113 82.3372 58.9822 59.4357 59.0283 59.4203C60.2963 58.99 60.6268 58.7517 61.2185 59.2974C64.0313 61.9564 66.0065 64.5539 73.0922 66.5136C87.6938 70.4868 96.4625 58.2445 97.6845 58.4136C100.759 58.867 101.12 58.6134 102.442 59.8814C105.154 62.4867 104.924 63.4089 108.674 66.9901C109.535 67.8124 111.641 69.457 112.793 70.4176C113.132 70.702 112.985 70.4176 110.964 73.4456C109.489 75.6819 108.789 77.2881 107.721 78.8251C105.569 81.8761 105.746 84.4506 104.908 83.2902L104.862 83.2825ZM123.26 95.2943C119.018 94.5258 116.144 91.1751 106.768 83.4208C106.323 83.0596 107.122 82.7215 107.414 81.3074C107.623 80.5997 107.985 79.9465 108.474 79.3938C108.943 78.7252 111.664 74.0143 112.163 73.2458C112.34 72.9691 112.34 72.9614 115.545 75.5974C115.944 75.9278 118.219 86.9636 119.794 85.9031C120.448 85.465 119.026 84.4122 118.134 81.1691C116.521 75.1055 114.715 65.0919 112.109 59.3435C111.848 58.7671 111.033 56.4001 110.472 55.7545C109.197 54.2636 104.394 53.7718 103.156 51.1973C102.795 50.4288 102.987 50.7054 101.75 46.8552C101.55 46.2174 101.75 46.1405 101.857 46.0175C101.965 45.8946 102.38 46.0175 102.526 46.1789C102.9 46.6384 103.194 47.1581 103.394 47.7159C104.54 50.229 104.125 50.5902 104.932 50.79C106.73 51.2972 106.346 50.2136 108.221 50.5364C108.789 50.7015 109.37 50.8248 109.958 50.9053C110.25 50.9053 110.526 50.4518 110.034 50.2597C109.574 50.0004 109.067 49.8334 108.544 49.7679C108.021 49.7679 108.544 48.5382 108.082 47.1088C107.068 43.8042 107.729 43.8503 106.761 43.0357C106.123 42.4824 105.162 41.5756 104.394 41.6601C103.625 41.7446 103.848 42.1366 102.91 44.0117C102.272 45.2798 101.535 45.3874 101.781 44.4805C102.195 43.4008 102.493 42.2802 102.672 41.1375C102.949 39.6005 104.209 39.3546 104.978 39.8234C106.069 40.4996 105.861 40.1154 107.345 40.9838C109.058 41.9829 107.929 38.7859 108.29 33.3448C108.323 32.2995 108.442 31.2586 108.643 30.2324C108.643 30.1017 108.713 29.6483 109.035 29.5868C109.358 29.5253 109.52 29.8404 109.566 30.3553C109.735 32.1997 108.982 37.4256 110.396 41.9982C109.742 41.9982 108.966 41.8138 109.158 42.4286C109.197 42.5439 110.127 42.6822 110.15 42.6822C113.016 43.0818 114.884 44.6035 115.13 44.0425C115.299 43.6428 114.838 43.4584 114.407 43.274C113.977 43.0895 114.3 43.1356 115.053 41.2144C115.614 39.7696 116.974 33.414 117.789 33.5293C118.042 33.5293 118.25 33.6599 118.242 34.0288C118.242 35.4736 116.405 39.3469 115.99 42.8897C115.522 46.8014 116.359 44.5266 115.606 52.2194C115.429 54.0561 116.767 54.3328 119.195 59.4741C119.195 59.4741 122.231 66.3907 123.168 68.1429C125.474 72.3697 128.778 78.4639 129.654 82.5293C130.085 84.5121 129.831 90.6986 129.731 91.275C129.063 94.7333 125.704 95.7323 123.26 95.2943ZM107.498 49.3144C107.498 49.7986 107.291 49.4989 106.169 49.983C105.854 50.1214 105.039 50.0522 104.901 49.7448C104.54 48.9302 104.778 48.9379 104.355 47.9696C104.091 47.3238 103.772 46.7016 103.402 46.1098C103.195 45.7716 102.687 45.7793 102.941 45.495C104.478 43.7965 104.163 42.2518 104.824 42.5516C105.425 42.8833 105.972 43.3058 106.445 43.8042C106.953 44.0963 106.507 44.7034 107.299 47.4085C107.455 48.0312 107.522 48.6729 107.498 49.3144Z" fill="#000001"/>
<path d="M108.928 43.5125C110.15 43.2665 115.399 45.0034 115.076 45.5413C114.984 45.6797 114.907 45.8641 114.691 45.8257C114.054 45.7027 111.433 44.1964 109.151 44.1273C109.11 44.1419 109.067 44.1485 109.024 44.1466C108.981 44.1446 108.939 44.1343 108.9 44.1161C108.862 44.0978 108.826 44.0721 108.798 44.0405C108.769 44.0088 108.746 43.9716 108.732 43.9313C108.717 43.891 108.711 43.8481 108.712 43.8052C108.714 43.7623 108.725 43.7202 108.743 43.6813C108.761 43.6424 108.787 43.6075 108.818 43.5785C108.85 43.5495 108.887 43.5271 108.928 43.5125Z" fill="#000001"/>
<path d="M112.148 50.9211C111.963 53.5264 115.314 53.4034 114.676 54.1335C114.384 54.464 114.207 54.3256 114.131 54.3103C110.157 53.219 111.226 50.2525 112.448 46.5867C112.647 45.9796 112.809 45.9719 113.062 46.0257C113.808 46.1794 112.302 48.7386 112.148 50.9211Z" fill="#000001"/>
<path d="M101.919 148.56C102.157 148.899 101.765 149.659 101.258 149.152C100.751 148.645 100.981 148.384 100.382 147.031C98.9678 143.88 98.6681 141.183 97.6767 137.525C97.6306 137.348 97.0926 136.21 97.4692 136.126C98.7065 135.857 98.5912 140.076 101.389 147.085C101.52 147.591 101.698 148.086 101.919 148.56Z" fill="#000001"/>
<path d="M97.2848 86.6952C97.4385 86.9027 97.1772 87.0948 97.0235 87.164C95.963 87.6328 94.0571 89.3542 88.2241 88.701C84.1587 88.2476 83.9051 87.2793 82.076 86.6875C82.0043 86.6645 81.9422 86.6196 81.898 86.5588C81.8531 86.498 81.8301 86.4249 81.8301 86.3494C81.8301 86.2034 81.9223 86.0727 82.2758 86.0804C83.59 86.1265 83.2134 86.9027 87.9244 87.7173C94.9178 88.9239 96.4318 85.5886 97.2848 86.6952Z" fill="#000001"/>
<path d="M91.8514 35.2819C92.2664 35.6662 92.1972 36.2733 91.9436 36.3809C91.813 36.4423 91.713 36.3809 91.5593 36.0735C91.4056 35.7661 91.2212 35.8583 90.9753 36.1349C89.8379 37.4568 90.7063 37.7565 90.7678 38.1792C90.7896 38.333 90.778 38.4899 90.7326 38.6386C90.6877 38.7874 90.6102 38.9244 90.5065 39.0399C90.2375 39.3781 89.738 39.893 89.4383 39.6086C89.1385 39.3243 89.5151 38.9554 89.7995 38.5865C90.2836 37.9563 89.346 38.0562 89.738 36.8881C90.1299 35.7199 91.2519 34.7209 91.8514 35.2819Z" fill="#000001"/>
<path d="M87.302 30.6247C87.4634 31.1012 86.8793 31.3087 86.6027 30.9552C85.7804 29.91 84.9657 28.7726 82.7601 29.6871C81.8072 30.0791 81.5997 28.6881 83.8207 28.5728C84.5418 28.411 85.2975 28.5378 85.9264 28.9263C86.5578 29.3272 87.0407 29.9236 87.302 30.6247Z" fill="#000001"/>
<path d="M84.52 147.76C84.8274 148.729 83.6977 149.052 83.6209 148.152C83.4748 146.354 82.8524 144.656 82.8524 143.126C82.8428 140.946 82.7095 138.768 82.4527 136.602C82.4483 136.551 82.4534 136.501 82.4687 136.452C82.4835 136.404 82.5078 136.359 82.5405 136.32C82.5731 136.281 82.6128 136.249 82.6577 136.226C82.7025 136.202 82.7518 136.187 82.8024 136.183C82.8524 136.178 82.9036 136.184 82.9516 136.199C83.0003 136.214 83.0451 136.239 83.0842 136.271C83.1226 136.303 83.1553 136.344 83.1783 136.388C83.202 136.433 83.2168 136.482 83.2212 136.533C83.9898 141.574 83.3903 142.312 84.1127 145.593C84.2741 146.354 84.4124 147.43 84.52 147.76Z" fill="#000001"/>
<path d="M83.9282 40.8998C83.6669 42.2371 83.029 41.6684 83.0751 41.1919C83.0751 40.9383 83.1366 41.1919 83.0751 40.7231C82.2144 41.2457 80.4315 43.4513 78.8176 44.3812C76.1662 45.9182 75.3286 43.2438 73.9299 40.1928C73.292 38.7941 73.3227 38.6558 74.2142 38.8633C76.5441 39.6029 78.9783 39.9584 81.4228 39.9162C81.761 39.9162 82.5141 39.9162 82.3066 39.6088C81.7072 38.8402 83.6899 38.5713 83.9282 40.8998ZM81.7072 40.8076C82.0761 40.4772 80.9387 41.092 77.465 40.4311C73.8223 39.7471 74.6369 39.5857 75.1595 40.946C77.0961 45.5647 78.003 44.2198 81.7072 40.8076Z" fill="#000001"/>
<path d="M83.1059 32.1469C83.3825 32.2468 83.4901 32.5696 83.3518 33.2228C83.2135 33.8761 82.2375 33.8607 82.4834 32.6003C82.4904 32.5279 82.5129 32.4578 82.5487 32.3946C82.5846 32.3314 82.6339 32.2765 82.6928 32.2337C82.7517 32.1909 82.819 32.161 82.8901 32.146C82.9611 32.131 83.0348 32.1314 83.1059 32.1469Z" fill="#000001"/>
<path d="M81.8603 59.3666C81.9909 59.966 78.8861 60.4271 78.2713 60.4194C77.6565 60.4117 77.426 60.3272 75.3356 59.4281C74.6516 59.136 72.4921 59.7739 71.7697 59.9967C71.0473 60.2196 70.6631 59.697 71.6852 59.4281C74.4826 58.6595 74.8515 58.3752 76.5499 59.2206C77.5873 59.7355 77.6949 59.7508 77.9639 59.7662C80.3847 59.8661 81.7066 58.6288 81.8603 59.3666Z" fill="#000001"/>
<path d="M80.3162 35.8196C80.8926 35.8196 80.7543 36.9878 79.8628 37.1799C79.6815 37.2113 79.4952 37.2014 79.3184 37.1509C79.141 37.1003 78.9777 37.0104 78.8407 36.8879C78.7023 36.788 78.6409 36.8879 78.4795 37.0339C76.2431 38.6708 73.6225 35.3124 76.2508 33.1913C76.685 32.8561 77.0091 32.3984 77.1807 31.8772C77.3959 31.5852 77.6802 31.7465 77.7033 32.0386C77.7487 32.3382 77.7167 32.6445 77.6111 32.9284C77.5047 33.2123 77.3273 33.4642 77.0962 33.6601C76.4199 34.2903 75.8819 34.6899 76.0894 35.6275C76.1637 35.8485 76.2982 36.0441 76.4788 36.1917C76.6594 36.3393 76.8778 36.433 77.109 36.4619C77.3402 36.4909 77.5752 36.4539 77.7865 36.3552C77.9972 36.2565 78.1765 36.1001 78.3027 35.9042C78.8484 35.1357 78.8099 36.104 79.4862 36.3653C79.7859 36.4806 79.8935 36.2346 79.9934 36.0963C80.0933 35.958 80.0703 35.835 80.3162 35.8196Z" fill="#000001"/>
<path d="M73.3841 26.0594C75.4668 25.2909 77.2804 26.3283 76.7886 27.0738C76.2967 27.8193 75.413 25.9595 73.4994 26.8894C72.3082 27.4657 72.3927 28.0882 72.1622 28.1574C71.2092 28.4341 71.6626 26.6742 73.3841 26.0594Z" fill="#000001"/>
<path d="M74.7905 30.5325C75.121 30.4326 75.4515 30.8092 75.4053 31.301C75.4053 31.6545 75.1594 32.0695 74.7982 32.0004C74.6292 32.0004 74.3755 31.716 74.3832 31.2319C74.3909 30.7477 74.5369 30.594 74.7905 30.5325Z" fill="#000001"/>
<path d="M74.9674 86.1342C74.9674 86.2277 74.9315 86.3174 74.8668 86.3846C74.8021 86.4519 74.7144 86.4916 74.6215 86.4954C73.7954 86.6978 72.9551 86.8393 72.1085 86.9181C72.1085 86.9181 68.581 87.3024 68.581 87.3177C59.5278 86.3494 60.3194 83.798 61.0495 84.2053C61.6693 84.6587 62.3464 85.0282 63.063 85.3043C66.8442 86.4416 66.2217 86.603 72.4236 86.0728C73.4995 86.0113 74.9289 85.3043 74.9674 86.1342Z" fill="#000001"/>
<path d="M66.9056 135.258C67.4205 135.188 67.3667 135.772 67.4897 136.625C67.2207 139.415 65.9526 142.059 66.0602 143.972C66.2524 146.862 65.5991 146.516 65.7528 148.069C65.7528 148.268 65.7528 148.791 65.4301 148.837C64.8153 148.891 64.8076 148.284 64.7307 147.477C65.0887 146.469 65.2456 145.401 65.1918 144.334C64.8537 141.675 67.0286 137.609 66.6366 136.057C66.5521 135.742 66.5444 135.319 66.9056 135.258Z" fill="#000001"/>
</svg>
