<svg width="155" height="155" viewBox="0 0 155 155" fill="none" xmlns="http://www.w3.org/2000/svg">
<path d="M104.072 77.6724C102.636 76.3214 99.7097 76.9931 92.4142 80.2278C91.6037 80.5914 90.6821 80.6192 89.8511 80.305C85.6431 78.5613 81.2346 77.3477 76.727 76.692C74.3261 76.4681 70.026 73.2797 68.3816 73.7584C67.1696 74.1135 66.6523 76.3909 65.973 80.9843C65.8263 81.8104 65.8958 82.1887 65.201 82.6364C63.0934 84.0647 58.7315 87.2685 58.0522 89.4764C56.8478 93.0894 58.5077 99.335 58.5077 99.335C62.571 99.9354 66.379 101.681 69.4856 104.368C54.8175 96.548 48.8807 107.302 55.4196 108.429C56.0218 111.139 59.4804 113.833 62.1901 110.691C62.9621 112.343 62.9621 113.694 66.4053 114.15C69.5628 114.598 71.0373 111.363 70.9138 108.885C73.0241 109.941 75.328 110.556 77.6843 110.691C77.6843 110.691 79.8614 107.302 85.8058 105.874C87.8984 105.391 90.0838 105.495 92.1208 106.175C88.5928 106.028 83.8526 107.603 81.5212 110.46C78.4332 114.32 80.7492 116.929 80.7492 116.929C80.7492 116.929 81.8068 117.531 83.235 116.257C89.4111 120.889 91.6576 114.899 91.6576 114.899C91.6576 114.899 92.6381 117.153 95.8651 116.257C98.4281 115.578 98.1811 110.915 96.3978 108.283C97.5249 107.456 103.091 103.241 104.118 99.8599C104.72 97.8295 103.137 92.8655 103.068 89.1831C103.091 85.9484 105.569 79.1006 104.072 77.6724ZM90.6077 103.396C88.8107 102.966 87.2484 101.86 86.2459 100.308C84.8022 104.422 80.6257 103.504 78.8732 100.308C78.8732 100.308 75.8315 103.442 72.8593 101.288C71.6395 100.408 71.4311 98.2773 72.1799 96.8491C69.5474 98.4317 66.0888 98.3931 63.9812 95.9458C58.8705 90.0786 67.7409 81.3549 73.9092 86.2494C76.9972 88.7276 76.4645 92.3406 74.4342 94.9731C75.1572 94.9064 75.8848 95.0344 76.5417 95.3437C76.92 97.3741 79.0276 98.8023 79.0276 98.8023C80.3123 98.4176 81.5288 97.8341 82.6329 97.073C83.4049 96.6252 84.5166 97.3046 85.1882 97.6057C84.092 92.6725 89.303 87.7703 94.4523 89.708C101.81 92.4718 99.0303 104.747 90.6077 103.396Z" fill="#3D9CFB"/>
<path d="M73.9093 61.3524C72.8594 58.1177 61.5032 58.7198 62.4759 64.811C63.2325 68.9489 75.214 65.1892 73.9093 61.3524Z" fill="#3D9CFB"/>
<path d="M119.79 57.2916C121.334 51.8027 107.075 52.8526 108.279 56.3884C109.862 60.8197 118.585 61.5917 119.79 57.2916Z" fill="#3D9CFB"/>
<path d="M88.1986 87.2222C87.8011 86.6836 87.3732 86.1681 86.9171 85.6782C86.1837 84.9062 84.6628 85.6782 85.7205 87.1064C86.7781 88.5346 89.2485 88.7276 88.1986 87.2222Z" fill="#001434"/>
<path d="M137.159 79.7801C138.703 78.4986 139.568 76.6226 138.703 74.6617C149.01 73.689 143.598 64.8881 147.056 60.5262C155.024 50.4901 147.828 48.7145 148.562 41.7973C148.932 38.1921 149.164 35.7062 148.562 34.0773C146.678 28.5883 140.587 30.5415 140.209 24.3731C139.607 14.144 132.311 13.3952 125.919 13.2408C112.795 13.0169 114.563 0.456349 101.107 6.70189C91.6263 11.0637 87.6428 -0.51638 78.4636 9.78992C72.1486 16.8615 65.3395 7.83674 60.113 18.8147C57.1793 25.3613 50.3394 19.4941 47.5524 29.121C43.1906 25.2069 37.2538 28.2177 33.9419 33.3284C28.2677 21.9876 15.3597 27.1524 10.7045 54.991C6.07246 67.5515 3.48624 82.8913 4.31228 90.565C5.59382 114.852 27.2486 120.874 44.7732 115.084C40.7896 128.015 45.3754 143.648 59.8119 146.968C82.5243 154.418 126.205 150.195 138.557 137.117C150.754 124.217 152.051 91.6999 137.159 79.7801ZM136.781 77.4641C131.215 84.003 115.875 91.1518 105.947 91.9778C104.897 89.8702 104.743 89.1214 105.121 86.3344C112.115 85.5084 125.124 80.0966 133.4 71.4424C134.38 72.5618 138.518 75.1172 136.781 77.4486V77.4641ZM90.6073 115.069C89.179 118.674 84.4312 116.867 83.6129 114.466C82.9335 112.505 81.7292 114.536 82.2541 115.972C76.5413 118.828 75.4142 110.027 85.5661 106.947C92.7843 104.685 101.137 111.911 95.7952 114.991C93.4791 116.342 92.5604 114.389 91.58 113.185C90.9083 112.189 89.7812 113.548 90.6073 115.053V115.069ZM77.2207 109.803C75.3629 109.654 73.5629 109.087 71.9556 108.144C70.7512 102.13 63.834 98.1462 58.4146 98.37C50.0923 84.142 61.7188 85.2459 63.6796 79.8419C64.7373 77.1321 65.71 72.0137 67.2926 71.4887C69.1686 70.8866 74.5881 77.0163 76.4641 77.2788C80.453 77.9046 84.3619 78.9634 88.1214 80.4363C92.7148 83.4471 99.3309 75.9278 103.013 77.8115C105.121 78.8614 102.342 88.1101 103.237 90.2176C107.097 99.3891 106.773 104.284 97.9722 109.518C93.07 102.207 81.4667 104.129 77.2207 109.788V109.803ZM62.6297 107.997C62.1708 108.292 61.8015 108.707 61.5619 109.197C61.3224 109.687 61.2217 110.233 61.271 110.776C58.044 112.737 54.5082 109.232 57.3646 106.345C58.1907 105.511 55.7125 104.384 54.7321 107.117C47.2899 105.913 54.8093 97.0808 63.7568 101.551C72.1022 104.708 72.0328 114.636 65.5633 113.362C62.5525 112.76 62.8536 110.274 63.6024 109.147C63.6884 109.043 63.7457 108.919 63.7687 108.786C63.7917 108.653 63.7796 108.517 63.7336 108.39C63.6875 108.264 63.6092 108.151 63.5063 108.064C63.4034 107.977 63.2795 107.919 63.147 107.894C62.9696 107.862 62.7866 107.893 62.6297 107.982V107.997ZM132.72 69.3966C124.9 77.9736 112.27 83.3854 105.322 84.3658C107.051 66.9185 95.772 81.9572 88.7776 78.7225C84.9019 77.1904 80.8717 76.0825 76.7575 75.4183C70.7435 71.2031 65.7795 64.7337 63.0003 76.0204C57.2025 70.8325 57.7352 64.3631 57.8047 55.0373C60.8155 62.6338 68.2577 56.4655 73.7543 57.2143C82.3236 58.2874 82.2001 43.488 73.6771 39.9214C69.7631 38.3773 63.5252 39.1494 59.0862 42.7006C59.3101 34.4247 65.6328 38.717 71.3457 36.3084C73.5227 36.6867 74.7271 37.7366 75.7847 37.9605C76.5567 38.1149 76.8192 36.7793 76.0858 36.1617C73.6463 34.1159 72.5886 36.2003 75.9314 33.5291C82.3236 37.6594 91.2017 30.2944 97.2156 23.6011C98.6439 25.2532 100.003 28.3335 102.033 29.5379C100.205 30.1573 98.6224 31.3448 97.5167 32.927C96.5363 34.3552 97.5167 35.3279 98.2887 34.471C99.0415 33.4736 100.004 32.6537 101.109 32.0694C102.213 31.4851 103.433 31.1506 104.681 31.0896C108.294 32.7417 112.733 32.6336 117.921 30.9352C120.538 48.1896 133.886 39.9754 137.684 50.0115C139.83 55.6703 137.607 64.062 132.72 69.3966ZM61.271 43.2256C70.8284 38.1921 76.0935 42.2528 77.6684 47.0856C79.2124 51.7176 77.7456 56.4886 72.4033 55.3615C68.7209 51.2004 64.5829 46.7613 61.271 43.2256ZM49.0887 31.7226C50.0692 28.0325 50.818 24.6511 56.6158 24.0026C64.2818 23.0993 59.7733 13.8507 71.8784 14.6767C75.7384 14.9083 77.8923 13.179 79.8532 10.9943C87.8203 2.19337 92.6376 13.0246 101.886 8.2845C113.698 2.27057 112.864 14.9778 125.88 14.9778C144.455 14.9778 132.643 26.1874 143.104 30.6959C149.944 33.6295 145.42 37.9219 147.165 45.2868C141.76 38.4468 147.937 33.4056 136.356 30.6187C129.926 29.0747 142.532 16.4678 117.705 17.9037C116.938 17.9569 116.178 17.7373 115.557 17.2838C114.937 16.8303 114.497 16.1721 114.316 15.4256C112.772 9.03335 104.99 7.52794 97.8487 13.0169C93.263 16.5527 86.4153 4.37043 79.2742 16.6299C77.0199 20.4899 65.5093 11.2876 63.9267 24.2959C63.5561 27.4612 53.0259 23.3232 55.0563 32.4947C55.8824 36.4087 49.3435 34.6022 51.4433 42.3455C50.5436 41.7917 49.5857 41.3386 48.5869 40.9945C49.0887 39.3192 50.0692 35.0268 49.0887 31.7226ZM32.699 35.4823C31.7185 37.1344 31.4947 38.9409 31.0392 40.8864C30.6686 42.6929 31.8112 44.1211 32.3207 42.2451C34.6367 33.6681 38.5585 29.0824 43.2987 29.121C49.1659 29.1905 47.6605 37.7675 46.8344 40.5467C45.7845 40.4772 43.3759 40.1761 42.8509 40.925C42.5498 41.3727 43.2215 41.9054 43.6769 41.9054C47.0583 42.1293 55.782 44.6846 56.0291 53.1844C56.0985 56.7974 53.5432 60.8582 49.2586 60.256C47.8303 60.0244 47.4521 59.1289 46.9425 57.3224C43.4839 44.6074 27.9125 59.5767 39.9945 64.1624C40.365 68.5242 43.2987 61.0049 48.4171 61.9853C52.7789 62.8114 53.5278 66.8721 51.8757 70.2535C46.0084 82.1424 12.9202 74.1136 12.5033 56.7202C15.7689 30.7654 28.6382 22.667 32.699 35.4823ZM46.0856 60.3718C44.4667 60.7527 42.9678 61.53 41.7238 62.6338C35.4782 63.0816 36.7598 53.3697 42.627 54.5818C45.1052 55.1068 44.8813 58.4187 46.0856 60.3718ZM18.0849 111.595C2.59071 103.62 4.09612 79.479 11.0133 60.449C16.8034 75.2639 35.2312 80.5212 48.0156 76.391C48.8417 78.653 47.1124 85.794 46.8113 88.2027C46.5102 90.6114 48.3553 89.2526 48.8417 87.3767C49.8916 83.5166 50.3857 75.3411 49.6677 75.5649C54.2612 72.9324 56.6621 65.7913 52.3775 61.9545C53.7486 61.5222 54.9552 60.6819 55.8361 59.5458C55.8361 67.5206 56.7393 73.7584 62.3827 77.9736C59.148 85.9484 48.7645 83.3777 56.361 98.5785C52.501 99.1806 49.2199 101.89 50.185 105.797C48.2148 107.705 46.6773 110.014 45.6764 112.567C39.2379 116.103 27.2795 116.705 18.0849 111.595ZM45.9852 130.694C55.2493 133.705 55.5118 130.601 53.9601 130.393C51.1426 130.102 48.3666 129.496 45.6842 128.586C45.2301 124.898 45.4076 121.16 46.2091 117.531C55.2416 121.762 54.7012 118.566 53.4274 118.303C51.0928 117.617 48.8243 116.723 46.6492 115.632C47.4378 112.586 48.9894 109.791 51.1577 107.511C51.5788 107.988 52.1022 108.365 52.689 108.612C53.2758 108.859 53.9108 108.971 54.5468 108.939C54.6163 112.544 59.1325 114.127 61.8423 112.621C63.8727 116.906 71.8784 115.632 71.9942 110.305C72.2822 110.461 72.5847 110.587 72.8974 110.684C68.4584 118.882 68.2654 135.951 72.5963 147.686C59.7733 145.632 48.9034 143.332 46.0084 130.694H45.9852ZM137.213 135.805C126.158 147.385 92.6917 150.697 74.5649 147.917C70.0487 136.407 70.0487 119.037 74.5649 111.216C75.1069 111.357 75.6597 111.457 76.217 111.517C73.9628 116.149 80.2006 120.619 83.3658 117.454C85.319 119.94 90.8852 119.261 92.0123 116.327C95.247 118.736 99.9872 115.354 98.7056 111.293C103.214 107.758 107.507 106.098 114.146 105.951C116.099 105.951 115.35 104.145 112.864 104.145C110.444 104.135 108.037 104.492 105.723 105.202C108.734 101.667 108.433 97.9068 106.696 93.7689C116.029 92.7884 128.961 87.0756 135.808 81.0539C150.021 92.1863 149.118 124.001 137.237 135.805H137.213Z" fill="#001434"/>
<path d="M77.53 86.9981C77.9777 87.9786 80.3092 86.9209 80.8342 86.7743C81.3591 86.6276 81.6062 85.871 81.1352 85.1144C80.5254 84.3656 77.0668 86.0177 77.53 86.9981Z" fill="#001434"/>
<path d="M94.6684 88.0482C95.7956 88.4265 96.2124 86.3961 96.4749 85.8711C96.593 85.6507 96.6195 85.3926 96.5487 85.1528C96.4779 84.9129 96.3155 84.7106 96.0966 84.5896C94.5912 83.8408 93.5413 87.6004 94.6684 88.0482Z" fill="#001434"/>
<path d="M75.7157 84.6668C76.4877 85.1377 78.1243 83.3157 78.4254 82.4125C78.7265 81.5092 77.0667 80.3821 76.395 81.5864C75.8623 82.482 74.797 84.0878 75.7157 84.6668Z" fill="#001434"/>
<path d="M91.1327 87.6004C92.1131 87.6004 91.9588 85.2844 91.7349 84.1418C91.511 82.9993 89.7817 83.4625 89.9284 84.4429C90.0751 85.4234 90.0828 87.6004 91.1327 87.6004Z" fill="#001434"/>
<path d="M84.2155 61.5067C79.5834 59.2447 75.7234 66.9493 80.7569 71.427C91.4414 80.3745 113.39 69.3425 106.627 60.2251C100.381 51.8797 97.0771 67.7677 84.2155 61.5067ZM105.87 64.7337C104.442 68.2695 98.7292 72.4074 93.2402 72.6313C86.4697 72.9324 80.9807 71.5814 79.9231 66.4552C84.3621 68.9951 85.0106 66.7332 83.8372 66.2314C82.6108 65.874 81.4634 65.2872 80.4558 64.5021C82.2546 60.8196 85.0878 65.4053 91.5804 64.6565C97.7565 63.9771 102.041 57.1371 104.596 60.6652C103.922 61.545 103.108 62.309 102.188 62.9272C101.81 63.2977 101.887 64.1238 102.412 64.201C103.315 64.3554 104.071 63.8304 105.646 62.2478C105.883 62.6122 106.027 63.0298 106.066 63.4629C106.105 63.8962 106.038 64.3323 105.87 64.7337Z" fill="#001434"/>
<path d="M98.953 93.3132C96.1738 85.1144 84.2849 88.8046 84.3621 96.2468C83.9329 96.0399 83.4788 95.8894 83.0111 95.799C81.4671 94.1392 78.0471 93.3904 76.5417 94.3708H75.7156C80.3476 86.7743 70.0027 80.382 63.9811 86.396C57.805 91.4372 63.2091 101.134 70.7516 98.3544C70.0722 102.639 76.0167 104.299 78.7264 101.442C80.0002 104.376 84.8176 104.909 86.2458 101.821C92.113 108.282 102.111 101.064 98.953 93.3132ZM64.5833 95.4979C67.82 92.9952 70.7946 90.1707 73.4613 87.0676C76.1634 89.3219 75.0903 93.4444 72.5581 95.4902C70.3424 97.2813 66.467 97.5283 64.5833 95.4979ZM75.5612 101.064C71.3538 101.589 72.1798 95.8762 76.0167 96.2468C76.4692 97.404 77.1918 98.4363 78.1243 99.2576C77.8889 99.754 77.5292 100.181 77.0802 100.498C76.6311 100.814 76.1079 101.009 75.5612 101.064ZM79.4212 97.9066C78.7473 97.3672 78.217 96.6698 77.8772 95.8762C79.1495 95.8303 80.406 96.1693 81.4825 96.849C80.85 97.3054 80.1454 97.6525 79.3981 97.8757L79.4212 97.9066ZM83.5592 102.037C83.1762 102.149 82.7729 102.173 82.3793 102.107C81.9858 102.041 81.6124 101.886 81.287 101.655C80.9616 101.424 80.6928 101.123 80.5007 100.773C80.3086 100.423 80.1982 100.034 80.1778 99.6359C81.2771 99.3061 82.265 98.6813 83.0342 97.8294C85.0414 98.2772 85.7208 101.134 83.536 102.037H83.5592ZM96.197 100.539C94.6915 102.338 91.3024 103.241 89.0482 101.666C91.0013 98.8793 93.6339 93.9925 95.1393 91.2133C98.2737 93.4676 98.2042 97.9761 96.1738 100.539H96.197Z" fill="#001434"/>
<path d="M86.1686 56.1875C85.5316 55.4881 85.0973 54.6284 84.9123 53.7008C84.7273 52.7731 84.7987 51.8125 85.1187 50.9224C87.0719 46.1823 91.5109 49.2703 92.1131 47.541C92.1563 47.3016 92.1113 47.0548 91.9864 46.8461C91.8614 46.6374 91.6651 46.4811 91.4337 46.4061C83.8372 44.6768 80.3786 52.9528 84.8871 57.3918C86.2072 58.6811 87.8516 58.2642 86.1686 56.1875Z" fill="#001434"/>
<path d="M114.068 35.4821C110.084 33.9381 102.434 34.2083 97.7478 39.6201C93.8877 44.0437 97.6783 58.1946 104.819 54.0566C109.181 51.5013 115.952 53.5317 119.256 49.3165C122.56 45.1013 118.584 37.1342 114.068 35.4821ZM118.129 47.7416C117.527 49.0926 115.35 50.1503 113.767 50.1503C109.181 46.159 103.916 42.021 100.535 39.4657C102.292 37.8986 104.458 36.8622 106.782 36.4768C109.105 36.0915 111.489 36.373 113.659 37.2886C117.002 38.8635 119.858 44.0514 118.129 47.7416Z" fill="#001434"/>
<path d="M81.8066 122.719C81.8838 121.221 80.5251 121.947 80.3012 123.491C79.7762 127.698 80.3784 136.422 82.7871 138.931C83.4587 139.603 83.6131 138.406 83.4587 137.951C81.7294 132.616 81.6599 127.76 81.8066 122.719Z" fill="#001434"/>
<path d="M27.7349 82.1116C21.8786 80.5509 16.6493 77.2148 12.7657 72.5619C11.0364 70.5315 11.0904 72.9479 12.1635 74.2912C14.302 76.9546 20.7405 81.6561 26.0056 83.2387C27.9588 83.8409 28.7076 82.3355 27.7349 82.1116Z" fill="#001434"/>
<path d="M72.1798 83.3852C73.2297 83.7635 74.4958 79.4789 72.7819 79.4789C72.0099 79.4789 71.6548 79.78 71.5776 80.6832C71.5004 81.5865 71.1298 83.0147 72.1798 83.3852Z" fill="#001434"/>
</svg>
