<svg width="155" height="156" viewBox="0 0 155 156" fill="none" xmlns="http://www.w3.org/2000/svg">
<path d="M137.648 54.1888C137.167 54.2813 136.673 54.2756 136.195 54.1721C135.717 54.0686 135.264 53.8695 134.865 53.5866C129.339 49.495 116.831 51.8064 113.2 54.7902C107.291 59.6461 107.423 65.8608 109.514 63.3656C113.529 58.5792 123.28 60.8836 127.643 58.4765C130.125 66.5255 145.02 61.3329 142.688 73.8974C144.493 77.1321 145.17 78.8621 141.861 83.9767C155.852 82.4728 149.533 50.9541 137.648 54.1888ZM30.9063 76.6048C25.6954 76.5991 20.5439 75.4973 15.7865 73.3709C12.8529 79.1609 13.2289 94.4328 14.3568 96.9943C17.8177 98.123 24.4369 97.5964 24.4369 97.5964L31.1317 99.4014C31.1317 99.4014 30.5211 97.3695 30.9063 93.0833C31.5679 85.7099 36.1722 79.8434 36.1722 79.8434C39.0286 80.8964 41.5878 79.689 42.19 76.0073C41.8132 75.2553 41.4373 74.2772 41.4373 74.2772C41.4373 74.2772 37.8274 76.6426 30.9063 76.6048ZM58.5882 87.7364C57.6857 89.6926 53.3231 95.6348 53.1725 95.7853C56.0468 95.7009 58.9004 95.2716 61.6723 94.5069C61.5218 93.1528 61.0709 90.7457 61.0709 90.7457C61.0709 90.7457 60.1677 89.7691 58.5882 87.7364ZM84.6156 114.441C81.3801 114.479 76.8685 113.125 74.8366 113.162C74.7052 113.18 74.5815 113.234 74.48 113.32C74.3786 113.405 74.3037 113.518 74.2642 113.644C74.2246 113.771 74.2221 113.906 74.257 114.034C74.2918 114.162 74.3624 114.277 74.4606 114.366C74.8366 114.742 81.1563 115.983 84.3145 115.87C85.8948 115.815 85.7435 114.429 84.6156 114.442V114.441ZM82.9604 118.277C80.8623 118.33 78.7721 118 76.7921 117.304C76.1151 117.078 75.5885 117.15 75.5885 117.831C75.5885 118.658 77.1704 119.247 79.1243 119.561C80.9316 119.85 83.0361 119.937 83.6375 119.561C84.0891 119.182 84.0142 118.214 82.9604 118.279V118.277ZM82.1329 89.7675C84.9159 89.7305 85.2935 85.2899 82.1329 85.2544C79.2 85.2212 79.349 89.8069 82.1329 89.7691V89.7675ZM92.0624 75.2538C89.4299 75.2538 89.5804 79.2783 92.0624 79.2404C94.5444 79.2026 94.8463 75.2515 92.0624 75.2515V75.2538ZM76.4918 78.9355C78.7484 78.9355 79.0487 75.365 76.4918 75.3248C74.0831 75.2885 74.2345 78.9355 76.4918 78.9355ZM70.6245 68.8554C70.487 69.0427 70.3894 69.2563 70.3379 69.4829C70.2865 69.7095 70.2822 69.9443 70.3253 70.1726C70.3685 70.4009 70.4581 70.618 70.5888 70.8102C70.7194 71.0023 70.8882 71.1656 71.0846 71.2898C71.281 71.414 71.5009 71.4964 71.7305 71.5319C71.9602 71.5675 72.1947 71.5554 72.4194 71.4964C72.6442 71.4375 72.8545 71.3329 73.0371 71.1892C73.2197 71.0455 73.3708 70.8657 73.481 70.6611C74.595 68.6979 71.8219 66.8976 70.6238 68.8569L70.6245 68.8554ZM87.8511 68.1034C85.444 68.1034 85.5945 71.7527 87.8511 71.7141C90.0328 71.6786 90.3323 68.105 87.8503 68.105L87.8511 68.1034ZM60.3182 52.5328C57.9111 52.5328 58.0617 56.1435 60.3182 56.1435C62.5748 56.1435 62.8744 52.5328 60.3182 52.5328ZM99.5849 56.3697C97.1777 56.3697 97.3283 60.019 99.5849 59.9804C101.767 59.9441 102.068 56.3705 99.5849 56.3705V56.3697ZM100.036 69.1572C97.6294 69.1572 97.7799 72.8057 100.036 72.7679C102.293 72.7301 102.594 69.158 100.036 69.158V69.1572ZM95.2971 62.9889C92.7395 62.9889 92.9657 66.7501 95.2971 66.7501C97.6286 66.7501 98.0053 62.9897 95.2987 62.9897L95.2971 62.9889ZM84.9916 63.8914C87.2482 63.8914 87.5493 60.2807 84.9916 60.2807C82.5845 60.2815 82.735 63.8922 84.9916 63.8922V63.8914ZM91.7621 58.6263C93.943 58.6263 94.319 55.1322 91.7621 55.0905C89.4314 55.0534 89.5804 58.6271 91.7621 58.6271V58.6263ZM83.4098 53.9634C85.7412 53.9263 86.118 50.2021 83.4098 50.2021C80.8544 50.2021 81.0042 53.9997 83.4098 53.9634ZM77.5425 60.6582C79.9488 60.6204 80.2499 56.8213 77.5425 56.8213C74.9115 56.8213 75.1369 60.6953 77.5425 60.6582ZM68.896 53.0601C66.6394 53.0601 66.79 56.3705 68.896 56.3705C70.9249 56.3705 71.2259 53.0601 68.896 53.0601ZM75.14 44.8606C72.6572 44.8606 72.8078 48.547 75.14 48.547C77.4722 48.547 77.7741 44.8606 75.1377 44.8606H75.14ZM63.9289 61.1091C61.5975 61.1091 61.748 64.6819 63.9289 64.6449C66.1098 64.6078 66.4117 61.1091 63.9289 61.1091Z" fill="#3D9CFB"/>
<path d="M72.5046 54.3392C77.2439 52.8345 80.027 53.5865 80.403 52.5334C80.4802 52.308 80.403 51.7066 79.5005 51.631C78.598 51.4766 71.677 52.1575 71.6021 53.5865C71.5909 53.7018 71.608 53.818 71.652 53.9252C71.6959 54.0324 71.7654 54.1272 71.8544 54.2014C71.9433 54.2756 72.0491 54.3269 72.1624 54.3509C72.2757 54.3749 72.3932 54.3709 72.5046 54.3392Z" fill="#001434"/>
<path d="M71.9781 57.0473C72.507 57.5066 73.1626 57.7949 73.8587 57.8741C74.6863 58.1003 74.9873 56.8967 74.3852 56.5957C73.7146 56.1569 72.9784 55.8278 72.2043 55.6206C71.6021 55.5434 71.0756 56.52 71.9781 57.0473Z" fill="#001434"/>
<path d="M81.0048 50.277C81.2943 49.6702 80.2521 48.6975 78.2966 48.1709C77.5447 47.9455 77.0081 48.8596 77.7701 49.4494C78.6625 50.1396 80.6134 51.0976 81.0048 50.277Z" fill="#001434"/>
<path d="M67.3146 62.0111C67.6906 62.4628 69.6468 61.9339 74.0851 60.657C74.201 60.6234 74.3045 60.5568 74.3832 60.4654C74.4619 60.3739 74.5122 60.2615 74.5281 60.142C74.544 60.0224 74.5247 59.9008 74.4726 59.7919C74.4206 59.6831 74.3379 59.5918 74.2349 59.5291C73.6335 59.0775 68.2178 60.7327 67.6157 60.9589C67.5042 60.9802 67.4009 61.032 67.3171 61.1085C67.2334 61.185 67.1725 61.2833 67.1413 61.3924C67.1101 61.5014 67.1098 61.617 67.1404 61.7263C67.171 61.8355 67.2313 61.9341 67.3146 62.0111Z" fill="#001434"/>
<path d="M65.5838 60.0561C66.186 60.2105 66.5875 60.1858 67.615 57.7995C67.974 56.9642 66.9379 56.3705 66.2609 57.1224C65.3584 58.1755 64.5308 59.8306 65.5838 60.0561Z" fill="#001434"/>
<path d="M66.1105 65.8482C66.9449 66.7731 67.8767 67.6053 68.8897 68.3302C69.5667 68.7818 70.4916 68.1611 69.6424 67.2023C68.8525 66.2863 67.97 65.4543 67.0091 64.7195C66.4038 64.278 65.3585 64.8701 66.1105 65.8482Z" fill="#001434"/>
<path d="M72.5795 77.2071C73.5577 77.4325 73.9336 76.229 72.7301 75.7781C71.3723 75.2103 70.0639 74.5309 68.8183 73.747C65.8847 71.7158 67.6147 68.3306 66.4112 68.1808C66.0352 68.1036 65.6592 68.258 65.5836 68.9327C65.4344 69.9317 65.5273 70.952 65.8546 71.9076C66.1819 72.8632 66.7339 73.7262 67.4642 74.424C68.9433 75.7175 70.6901 76.6679 72.5795 77.2071Z" fill="#001434"/>
<path d="M127.718 77.4323C126.89 76.2287 124.107 76.8309 122.302 76.3793C119.745 75.7022 120.572 80.1405 123.205 80.4416C126.589 80.8924 128.17 78.185 127.718 77.4323Z" fill="#001434"/>
<path d="M67.0888 50.4272C66.7129 50.6527 66.7129 51.1799 67.0116 51.7065C67.3884 52.3827 67.6887 52.4584 67.9898 52.3078C68.5163 52.1573 68.6668 51.7065 68.3657 50.8032C68.1419 50.1262 67.6154 50.0513 67.0888 50.4272Z" fill="#001434"/>
<path d="M80.9289 65.0955C81.985 65.2237 82.1325 63.8171 81.0833 63.5916C79.412 63.3787 77.7284 63.2781 76.0437 63.2905C69.7248 63.4449 69.0477 64.6446 69.7248 65.3217C70.374 65.8652 73.3324 64.1737 80.9289 65.0955Z" fill="#001434"/>
<path d="M132.683 76.2284C139.83 77.3571 142.086 66.8261 134.564 65.9229C126.816 65.0204 125.612 75.1005 132.683 76.2284ZM135.241 68.0297C138.852 69.007 137.497 75.251 133.586 74.4234C134.331 72.347 134.885 70.2068 135.241 68.0297Z" fill="#001434"/>
<path d="M37.9017 62.538C34.5921 63.215 27.3707 60.5076 27.8224 64.0426C28.0478 66.1495 31.5079 67.9544 34.2161 68.5566C37 69.0823 43.017 61.4881 37.9017 62.538Z" fill="#001434"/>
<path d="M30.759 58.1002C34.8931 51.4054 26.5438 46.6652 20.2249 51.4803C17.5916 53.5114 17.7823 58.4523 20.4503 60.2811C23.2705 62.2166 29.4018 60.2819 30.759 58.1002ZM25.1171 58.9278C17.8209 60.8084 19.2499 51.1043 25.4931 51.4054C25.2152 53.9029 25.0886 56.415 25.114 58.9278H25.1171Z" fill="#001434"/>
<path d="M78.5231 39.7451C82.4694 39.4974 86.4266 40.0084 90.1804 41.2505C93.9429 42.491 97.3849 44.5472 100.261 47.2722C100.333 47.3393 100.421 47.3876 100.517 47.4129C100.613 47.4383 100.713 47.4398 100.809 47.4175C100.906 47.3953 100.995 47.3498 101.07 47.285C101.145 47.2202 101.203 47.1382 101.239 47.046C101.54 45.9181 95.2942 41.1787 90.4815 39.749C86.8981 38.683 83.1562 38.2504 79.4241 38.4705C77.6199 38.5423 77.8461 39.8208 78.5231 39.7451Z" fill="#001434"/>
<path d="M36.0964 53.8876C33.765 54.2635 31.7338 57.3477 33.0123 58.4015C33.3882 58.7018 34.0653 58.3243 34.2158 57.8742C34.8929 56.2198 35.6471 55.8593 36.3975 55.7682C36.9256 55.7041 37.3 55.9936 37.7516 56.6706C38.4287 57.6488 39.7828 57.0474 39.3311 55.7682C39.1409 55.0966 38.6972 54.5251 38.0938 54.1743C37.4903 53.8234 36.7742 53.7206 36.0964 53.8876Z" fill="#001434"/>
<path d="M123.28 74.1975C125.01 74.1975 122.754 71.1867 125.387 71.6398C125.506 71.6698 125.631 71.6735 125.752 71.6506C125.873 71.6277 125.987 71.5788 126.087 71.5073C126.188 71.4358 126.271 71.3433 126.332 71.2364C126.393 71.1294 126.43 71.0105 126.44 70.8879C126.59 69.5338 123.807 69.3084 122.679 70.6625C121.624 71.9409 121.926 74.1975 123.28 74.1975Z" fill="#001434"/>
<path d="M105.452 53.2106C106.205 53.436 106.251 52.4988 104.55 50.2769C103.964 49.5119 103.196 48.9228 102.82 49.2988C102.444 49.5999 103.271 50.4275 103.948 51.33C104.851 52.6871 105.152 53.2106 105.452 53.2106Z" fill="#001434"/>
<path d="M117.037 62.6136C109.514 61.7112 108.313 71.7905 115.231 72.9192C122.303 74.0478 124.334 63.5161 117.037 62.6136ZM119.745 68.1806C119.426 70.5205 118.014 71.3396 115.683 70.9637C116.375 68.8457 116.928 66.6846 117.337 64.4943C119.219 64.9459 120.021 66.1556 119.745 68.1806Z" fill="#001434"/>
<path d="M61.2216 57.8741C61.3604 58.5526 61.6422 59.1938 62.0485 59.7547C62.1567 59.8296 62.2823 59.8756 62.4134 59.8882C62.5444 59.9009 62.6765 59.8799 62.7971 59.8271C62.9177 59.7743 63.0228 59.6916 63.1024 59.5868C63.182 59.482 63.2335 59.3585 63.252 59.2282C63.1362 58.4503 62.8542 57.7065 62.4252 57.0473C62.0485 56.52 60.9962 57.0473 61.2216 57.8741Z" fill="#001434"/>
<path d="M86.9478 52.6097C86.2707 52.5325 85.6686 53.2111 86.1194 53.8133C86.8142 54.5605 87.6979 55.1062 88.6771 55.3928C89.4298 55.5434 90.0312 54.5652 89.4298 54.1136C88.7112 53.4516 87.8673 52.9402 86.9478 52.6097Z" fill="#001434"/>
<path d="M85.2931 65.5474C85.3849 66.1679 85.6164 66.7594 85.9701 67.2775C86.0568 67.3935 86.1789 67.4783 86.3179 67.519C86.4569 67.5598 86.6054 67.5543 86.741 67.5035C86.8767 67.4527 86.9922 67.3593 87.0702 67.2372C87.1482 67.1151 87.1845 66.9711 87.1737 66.8266C87.1124 66.1634 86.9069 65.5215 86.5715 64.946C86.1955 64.2674 85.1425 64.7955 85.2931 65.5474Z" fill="#001434"/>
<path d="M89.6562 58.8527C89.646 58.7469 89.6139 58.6444 89.5619 58.5518C89.5099 58.4592 89.4391 58.3784 89.3541 58.3147C89.2691 58.2509 89.1717 58.2057 89.0682 58.1817C88.9647 58.1578 88.8573 58.1557 88.7529 58.1756C88.1066 58.4342 87.5733 58.9141 87.2483 59.5297C87.173 59.6542 87.1374 59.7986 87.1462 59.9438C87.1551 60.089 87.208 60.2281 87.2979 60.3425C87.3878 60.4569 87.5104 60.5411 87.6494 60.584C87.7884 60.627 87.9371 60.6265 88.0759 60.5828C88.6024 60.3573 89.7311 59.5297 89.6562 58.8527Z" fill="#001434"/>
<path d="M89.4314 93.9062C88.1149 95.5588 87.1886 97.4874 86.7217 99.5481C85.7443 103.535 85.9697 107.673 86.7217 107.673C87.7754 107.673 86.8761 105.039 88.1506 100.15C88.6336 98.1721 89.4477 96.2899 90.5585 94.5833C91.1036 93.5395 90.1069 93.2292 89.4314 93.9062Z" fill="#001434"/>
<path d="M87.925 83.1495C88.6757 82.385 89.3555 81.554 89.9562 80.6668C90.3175 79.982 89.7307 79.0872 88.8275 79.9897C87.9242 80.8922 85.7634 83.1657 84.9914 84.052C84.2572 84.8958 84.9914 85.5566 85.819 85.105C86.5898 84.5315 87.296 83.8758 87.925 83.1495Z" fill="#001434"/>
<path d="M93.266 54.6395C93.9431 54.7167 95.0617 53.3734 94.3198 52.7589C93.2514 51.8742 91.7622 54.4897 93.266 54.6395Z" fill="#001434"/>
<path d="M92.0625 63.516C90.9348 63.0567 89.7419 62.7774 88.5275 62.6884C88.369 62.6902 88.2154 62.7434 88.0898 62.84C87.9642 62.9366 87.8733 63.0714 87.8309 63.224C87.7884 63.3767 87.7966 63.539 87.8543 63.6866C87.912 63.8342 88.016 63.9591 88.1507 64.0425C89.2728 64.52 90.469 64.8 91.6865 64.8701C92.6647 64.9457 92.5141 63.7422 92.0625 63.516Z" fill="#001434"/>
<path d="M96.4254 57.0477C95.3724 56.8215 94.3194 56.7466 94.1688 57.348C93.9426 58.2512 94.9208 58.3261 96.2749 58.4767C97.3279 58.6272 97.4784 57.2731 96.4254 57.0477Z" fill="#001434"/>
<path d="M92.3649 59.5296C91.989 60.0561 92.7409 61.5608 93.1169 61.9367C93.4179 62.3127 93.719 62.4632 94.1706 62.1622C94.6971 61.7862 93.7939 60.2067 93.5685 59.6802C93.2658 59.078 92.7393 59.0031 92.3649 59.5296Z" fill="#001434"/>
<path d="M97.3281 73.5203C95.974 74.649 94.8461 75.0249 95.1464 75.8525C95.4475 76.755 97.5543 75.5514 98.3811 74.4984C99.0582 73.6708 98.3811 72.6178 97.3281 73.5203Z" fill="#001434"/>
<path d="M96.802 67.8795C97.3424 68.7719 97.5547 69.0823 98.1561 69.0074C98.8332 68.9302 98.5321 67.5784 97.855 66.9762C97.3285 66.5254 96.291 67.0419 96.802 67.8795Z" fill="#001434"/>
<path d="M93.4921 49.0731C89.656 46.666 84.1639 45.6129 79.8013 45.6878C78.2218 45.765 78.5229 46.967 79.3497 46.967C82.6509 47.1289 85.9152 47.736 89.0538 48.772C93.191 50.3523 95.1658 51.8971 97.3282 54.7937C97.8416 55.4807 98.5318 55.2453 98.6823 54.8709C99.2088 53.6619 96.2003 50.8032 93.4921 49.0731Z" fill="#001434"/>
<path d="M100.262 60.8833C99.5849 61.2593 100.185 62.0869 100.262 65.0954C100.262 65.9986 100.036 67.9518 100.788 67.9518C101.616 67.9518 101.797 66.0743 101.691 64.1906C101.56 61.8638 101.089 60.4317 100.262 60.8833Z" fill="#001434"/>
<path d="M88.9788 73.2224C89.4296 74.05 89.7307 74.8768 90.4827 74.8768C91.0092 74.954 91.0848 73.8994 90.1816 72.6202C89.5084 71.7154 88.602 72.543 88.9788 73.2224Z" fill="#001434"/>
<path d="M151.038 66.6001C151.038 61.711 149.834 50.2011 137.949 50.2011C131.405 46.2145 117.94 46.2901 111.547 51.2549C105.077 39.5976 93.3427 32.9004 79.8024 33.1259C78.8243 21.843 54.3772 26.9575 55.4302 38.0157C54.9338 37.7059 54.4039 37.4534 53.8506 37.263C52.5714 31.9972 46.8547 29.2897 41.5889 31.0198C37.0757 26.5815 25.6415 27.2586 22.4824 33.2764C16.1628 31.8474 10.0693 35.7584 9.9188 42.4532C3.22473 44.6349 3.3745 50.6527 6.23324 55.9935C5.08148 57.1516 4.41034 58.7024 4.35449 60.3348C4.29865 61.9672 4.86224 63.5603 5.93216 64.7944C3.97666 69.0813 6.75975 74.1218 11.6496 74.9493C10.0701 82.7721 8.87042 93.6798 11.5724 103.158C14.2806 112.561 14.0552 119.181 13.5287 123.848C13.3025 126.104 14.4312 128.436 16.7634 128.587C27.8209 129.264 39.631 128.812 53.6978 129.038C59.4106 129.038 64.0033 129.264 65.4323 128.662C68.9681 127.233 69.043 121.891 63.3263 120.011C65.5828 110.081 64.5298 105.869 62.6492 93.7578C69.5695 99.4752 65.66 109.254 69.5695 110.232C68.8924 113.693 68.9681 122.043 73.3307 122.418C73.7823 123.546 74.7605 125.506 75.964 125.803C79.1987 126.631 85.2165 127.157 85.8928 122.644C91.0081 122.268 91.1587 114.67 90.2562 110.755C95.3715 108.499 90.4106 98.9433 98.1546 94.0558C99.5087 98.1181 101.314 100.751 104.548 102.03C103.57 107.747 104.323 116.021 104.548 120.911C103.345 121.888 101.538 123.393 100.863 124.672C99.809 126.703 101.389 128.884 103.796 128.884C113.575 129.035 133.21 128.961 142.461 128.807C149.158 128.694 145.046 119.491 145.472 115.492C145.869 111.74 146.525 109.399 146.074 104.059C152.769 99.4698 150.738 86.8321 147.352 82.3946C149.834 79.6138 151.038 74.4236 151.038 66.6001ZM125.311 49.0755C135.372 48.7281 135.888 52.3041 138.25 52.0091C151.715 51.7837 151.113 74.1248 146.374 80.9702C146.053 81.4395 145.642 81.8406 145.165 82.1503C144.688 82.4601 144.154 82.6725 143.595 82.7752C145.777 79.6161 145.249 76.8307 143.895 74.1287C143.67 73.7429 143.59 73.2896 143.67 72.8503C144.873 60.8147 130.602 65.3618 128.701 58.4075C128.669 58.2233 128.588 58.0509 128.467 57.9082C128.347 57.7656 128.19 57.658 128.013 57.5965C127.836 57.5351 127.647 57.522 127.463 57.5587C127.28 57.5955 127.11 57.6806 126.971 57.8054C126.368 58.3319 123.811 58.5573 121.554 58.7079C113.054 59.2344 107.036 59.6111 106.886 71.0445C105.306 69.5399 104.253 62.4691 109.593 55.5488C112.674 51.4054 118.165 49.3743 125.311 49.0732V49.0755ZM125.466 106.546C124.993 105.655 123.36 106.998 121.78 107.374C121.404 106.546 120.877 105.493 120.501 104.665C122.231 103.687 124.112 103.387 123.435 102.108C122.984 101.28 121.404 102.484 119.975 102.86C119.448 99.9261 120.877 98.9487 122.307 98.196C122.559 98.0842 122.776 97.9064 122.934 97.6813C123.093 97.4562 123.188 97.1923 123.209 96.9176C123.246 95.0354 123.958 94.8007 124.488 94.661C126.958 94.0087 131.183 106.094 130.882 109.706C126.219 111.511 124.187 110.909 122.607 108.953C124.635 107.973 126.11 107.764 125.462 106.544L125.466 106.546ZM118.395 103.838C115.782 103.735 113.197 103.253 110.722 102.409C113.304 101.739 115.841 100.91 118.32 99.9269C117.968 101.21 117.993 102.566 118.391 103.836L118.395 103.838ZM113.802 85.0341C114.103 82.7767 115.307 82.3259 116.659 84.5076C117.637 86.162 121.323 81.2729 123.203 83.3032C123.73 83.9054 123.28 84.8835 121.698 86.3913C120.57 87.4443 122 88.4973 123.278 87.4443C123.593 87.9007 123.822 88.4106 123.955 88.9489C123.429 89.7009 122 90.3779 122.074 91.1298C122.149 91.8818 123.278 92.0323 124.332 90.9754C124.367 91.5814 124.316 92.1893 124.181 92.7812C122.601 93.0815 121.624 94.9629 121.698 96.5424C121.013 96.8578 120.31 97.1341 119.592 97.37C115.231 94.2071 113.351 88.2649 113.802 85.0341ZM117.488 82.7018C116.661 81.4226 114.554 80.5209 113.125 81.9499C111.17 81.5732 109.515 79.6177 108.913 77.06C107.785 72.2458 108.763 64.4223 111.245 62.6922C113.05 61.4137 118.767 59.232 121.701 62.3919C123.049 63.8355 124.529 61.8453 122.528 60.5113C124.054 60.4602 125.568 60.233 127.042 59.8342C127.408 60.9536 128.153 61.9107 129.148 62.5416C129.007 62.5529 128.87 62.5946 128.746 62.6638C128.623 62.733 128.516 62.8281 128.433 62.9426C128.35 63.057 128.293 63.1881 128.265 63.3268C128.238 63.4655 128.241 63.6085 128.274 63.746C128.307 63.8835 128.369 64.0122 128.457 64.1233C128.544 64.2344 128.655 64.3251 128.781 64.3894C128.907 64.4537 129.045 64.4899 129.186 64.4955C129.328 64.5012 129.469 64.4762 129.599 64.4223C131.098 63.9225 132.726 63.9773 134.188 64.5767C140.958 66.6835 142.086 68.0376 141.785 72.7013C141.777 73.1626 141.853 73.6216 142.011 74.0554C146.102 83.6954 136.221 88.573 124.785 85.2634C126.317 81.8079 122.25 79.244 117.488 82.698V82.7018ZM57.8365 35.3075C58.8139 32.2967 62.6508 29.8911 66.8636 28.9138C72.8081 27.6346 79.2752 29.0682 77.3945 34.3294C76.6687 33.3934 75.7076 32.6666 74.6091 32.2234C73.5561 31.7717 72.8034 32.8255 73.7816 33.5018C74.6542 34.1486 75.4381 34.9073 76.113 35.7584C75.2641 36.5295 74.3004 37.164 73.2566 37.639C70.4002 34.4051 69.7208 34.5548 69.1186 34.6282C68.5165 34.7015 68.4424 35.5307 69.0414 35.9823C69.9614 36.5982 70.7745 37.3605 71.4485 38.2389C66.6343 39.5181 63.6258 37.6367 62.0455 36.8848C61.143 36.4331 60.5416 37.3364 61.2936 38.2389C61.913 38.8816 62.6916 39.3488 63.5501 39.593C63.1742 41.9252 60.3162 42.1506 58.8108 41.0219C57.0846 39.745 57.1618 37.4892 57.8365 35.3075ZM8.26439 71.1132C5.55619 67.5782 8.26439 65.5471 7.51246 64.2686C3.97667 58.247 8.7909 56.9716 8.18951 55.6175C5.93216 50.6527 4.57806 46.2901 11.0459 44.1084C13.0771 43.4314 11.1231 39.6702 14.5817 36.586C18.2673 33.3513 22.7812 36.21 23.9091 34.7054C25.4138 32.6742 27.3693 30.7187 30.6788 30.1173C34.8917 29.0643 38.0515 30.9449 40.8346 32.4488C41.3593 32.7483 41.9808 32.8293 42.5647 32.6742C44.6551 32.0858 46.8922 32.3284 48.8079 33.3513C51.8187 34.9316 51.8187 38.4666 52.7945 38.8433C54.4857 39.335 55.9175 40.4688 56.7835 42.0024C56.1748 42.4113 55.5966 42.8639 55.0534 43.3565C54.8552 42.4462 54.4041 41.6103 53.752 40.945C53.0999 40.2796 52.2732 39.8118 51.3671 39.5953C51.2211 39.5601 51.0876 39.4853 50.9815 39.379C50.8754 39.2727 50.8007 39.1392 50.7657 38.9931C49.8632 35.6835 47.6059 34.6305 42.4157 35.9089C42.264 35.9585 42.1001 35.9559 41.9501 35.9015C41.8001 35.8471 41.6726 35.744 41.5881 35.6086C37.376 30.7187 28.3489 32.675 26.2429 37.1882C26.1573 37.3828 26.0009 37.5377 25.8054 37.6214C25.6099 37.7052 25.3898 37.7114 25.1899 37.639C19.4724 35.3824 13.1574 38.9931 13.7557 44.4844C13.7748 44.7037 13.7065 44.9217 13.5657 45.0908C13.4248 45.26 13.2229 45.3667 13.0037 45.3876C8.86656 45.8385 6.75975 51.4093 11.2729 55.9935C11.3745 56.085 11.4514 56.2007 11.4965 56.3298C11.5417 56.459 11.5535 56.5974 11.5311 56.7323C11.5086 56.8672 11.4525 56.9943 11.368 57.1018C11.2835 57.2094 11.1733 57.2939 11.0475 57.3476C7.88843 58.7017 7.60587 61.5936 9.09198 64.193C9.20027 64.3613 9.25785 64.5572 9.25785 64.7573C9.25785 64.9574 9.20027 65.1533 9.09198 65.3216C8.76274 66.064 8.58949 66.8661 8.58299 67.6782C8.57649 68.4903 8.73688 69.2951 9.0542 70.0426C9.37152 70.7902 9.83902 71.4646 10.4277 72.0241C11.0164 72.5835 11.7137 73.0161 12.4765 73.2949C10.8599 73.0847 9.36877 72.3124 8.26439 71.1132ZM41.6637 46.2145C36.0968 51.1044 40.4594 58.7773 47.6082 55.6932C46.4882 59.9624 46.2325 64.4124 46.8563 68.7818C46.6508 69.0775 46.3631 69.3063 46.0288 69.44C45.6945 69.5737 45.3283 69.6062 44.9757 69.5337C42.418 69.0072 39.8603 70.8129 40.3868 73.8214C36.9267 77.2824 11.0506 75.8526 11.8774 65.6976C11.9185 65.0455 12.1912 64.4295 12.6462 63.9606C13.1013 63.4917 13.7088 63.2006 14.3594 63.1399C20.6034 62.388 12.1036 51.9319 18.1206 47.6442C20.7539 48.1707 25.3427 47.8696 27.1477 43.883C32.5641 45.8385 35.3472 44.3339 36.7762 42.2278C38.173 43.2147 39.8718 43.6799 41.5765 43.5425C43.2812 43.4051 44.8836 42.6737 46.1043 41.4759C46.914 41.8229 47.641 42.3375 48.2374 42.9858C48.8338 43.6341 49.2861 44.4014 49.5645 45.2371C47.8321 44.4095 43.7698 44.3339 41.6637 46.2145ZM45.1957 46.7425C44.9702 49.2245 44.8946 51.7822 44.8197 54.3398C39.0304 55.389 40.5351 46.6653 45.1957 46.7425ZM52.793 71.1897C53.9217 72.0173 55.5012 68.7826 55.8038 67.8801C56.8717 68.1823 57.8689 68.6938 58.7374 69.3847C58.3536 70.1845 57.9266 70.9628 57.4582 71.7162C57.3669 71.8432 57.3075 71.9904 57.2852 72.1453C57.2628 72.3002 57.2782 72.4582 57.3299 72.6059C57.3817 72.7535 57.4683 72.8865 57.5824 72.9936C57.6966 73.1007 57.8348 73.1786 57.9855 73.2208C58.8116 73.3096 59.565 72.0173 60.0915 70.8137C65.6585 77.1326 53.1713 97.2936 46.7019 99.097C41.9625 100.451 37.7504 99.9253 31.8832 98.6461C30.4534 91.2742 34.894 82.6239 36.7723 80.8181C37.5427 81.0575 38.3607 81.1005 39.1519 80.9433C39.9431 80.786 40.6825 80.4335 41.3028 79.9178C41.9232 79.4021 42.4048 78.7396 42.7039 77.9904C43.003 77.2412 43.1101 76.4291 43.0155 75.6279C42.6396 74.4244 41.6622 73.2208 42.489 72.0921C43.1661 71.0391 43.9219 71.0885 45.0467 71.2653C48.5207 71.7988 49.4101 66.4503 53.8476 67.4284C53.4731 68.7818 51.8936 70.5118 52.7961 71.1889L52.793 71.1897ZM60.3911 91.4996C60.4683 92.1767 60.6914 92.9294 60.8419 93.8319C58.9463 94.3364 57.008 94.6638 55.0519 94.81C56.3587 93.1873 57.5168 91.4502 58.512 89.6198C59.1012 90.2833 59.7297 90.9108 60.3942 91.4989L60.3911 91.4996ZM13.5303 75.1014C14.6086 75.07 15.675 74.8667 16.6893 74.4993C23.9863 77.9602 34.8932 78.5616 41.0616 75.5523C41.6637 76.3799 40.5266 78.6882 39.482 79.0881C37.8122 79.7273 36.1725 78.4867 34.2918 78.3361C34.1297 78.2945 33.9583 78.3067 33.8037 78.3709C33.6491 78.4351 33.5195 78.5479 33.4345 78.6922C33.3496 78.8365 33.3138 79.0045 33.3327 79.1709C33.3516 79.3372 33.424 79.493 33.5391 79.6146C33.8848 79.9678 34.3319 80.2044 34.8184 80.2916C32.3363 83.5263 29.1016 91.2742 30.0041 98.1196C25.8911 97.0583 21.9429 95.4385 18.2696 93.3054C18.1688 93.2318 18.0533 93.181 17.9311 93.1563C17.8088 93.1316 17.6826 93.1336 17.5612 93.1622C17.4398 93.1908 17.326 93.2453 17.2276 93.3219C17.1292 93.3986 17.0485 93.4957 16.9912 93.6064C16.6901 94.81 19.1729 95.7874 20.6767 96.6945C16.6901 96.6173 13.3805 96.168 12.102 95.4153C11.3486 88.2649 12.3267 80.8174 13.5303 75.1007V75.1014ZM45.1239 127.005C42.7168 127.156 31.5836 127.306 23.1587 127.156C15.9374 127.005 15.4109 126.404 15.4857 125.2C24.0612 123.621 44.8992 116.625 47.2299 125.123C47.3805 125.873 46.7034 126.929 45.1239 127.004V127.005ZM66.0399 125.049C66.1943 126.628 64.4596 127.155 61.6765 127.23C58.3669 127.308 53.6275 127.308 48.3617 127.23C49.566 125.65 49.1144 123.845 47.6097 122.415C53.1767 121.438 57.8404 120.685 61.2256 121.438C63.6289 121.889 65.8083 123.017 66.0399 125.049ZM62.8746 109.778C62.9518 111.283 62.1227 116.774 61.5962 119.407C58.6626 118.88 53.3218 119.33 45.6488 120.836C45.1972 120.535 44.7464 120.309 44.2199 120.008C44.6704 117.02 44.9216 114.004 44.9718 110.982C44.8911 109.03 44.5104 107.102 43.8431 105.265C43.2417 103.685 42.0382 104.513 42.3385 105.641C43.2417 108.652 43.3166 115.194 42.4929 119.331C36.0991 118.203 19.9263 122.115 15.6386 123.243C16.24 120.535 15.793 115.871 15.187 110.831C14.435 104.362 12.8555 101.579 12.4788 97.5923C15.7135 98.6453 21.8826 98.6453 25.1165 98.4948C35.121 101.351 45.8781 104.663 53.4754 96.6898C56.1193 96.6306 58.7462 96.2516 61.299 95.5612C61.898 100.977 62.8013 108.426 62.8746 109.778ZM88.9021 116.248C88.6759 118.429 87.9996 120.084 87.172 120.535C85.4419 121.513 74.3837 121.362 72.5039 120.309C70.9244 118.88 70.6989 112.035 71.3003 110.831C75.3626 111.734 83.7875 112.11 88.4512 111.358C88.828 111.96 89.1291 113.765 88.9036 116.248H88.9021ZM97.7802 92.101C88.8249 98.2694 92.9659 104.663 89.7312 109.027C88.0012 110.079 73.7507 110.292 70.3237 108.5C69.4876 108.063 69.4213 107.296 69.3456 105.19C68.7442 94.8841 64.3059 91.8748 59.4909 87.8133C62.1242 82.7729 64.4557 75.9282 63.1024 72.0914C60.0954 65.246 52.5707 64.0424 48.584 67.1235C48.0575 62.3093 48.4296 49.5989 58.2881 43.1272C60.845 44.2559 64.983 43.5039 65.5095 40.1936C69.1951 41.7731 77.6949 38.99 79.4257 34.9285C92.5892 34.4769 104.023 40.9463 110.192 52.3805C102.97 59.1502 101.917 71.0353 106.882 73.0703C106.778 74.4903 106.931 75.9174 107.334 77.2831C105.076 78.6357 96.6515 84.5037 97.7802 92.101ZM104.399 99.9246C95.1469 93.1541 101.09 82.8485 107.86 79.0873C108.801 80.9775 110.333 82.5092 112.223 83.4499C112.079 83.9419 111.979 84.4453 111.922 84.9546C110.944 85.3305 108.741 86.2623 106.882 87.1362C106.425 87.3509 106.129 87.9638 106.431 88.3398C107.183 89.3172 110.267 87.5122 111.922 86.9108C112.371 91.2102 114.378 95.1966 117.564 98.1188C113.878 99.625 108.235 102.256 104.399 99.9246ZM118.241 127.079C107.484 126.779 102.82 127.982 102.669 125.951C102.592 124.823 103.497 123.695 105.904 122.415C112.147 122.338 115.608 123.243 118.316 124.146C118.082 124.597 117.954 125.096 117.941 125.604C117.927 126.112 118.03 126.617 118.241 127.079ZM142.538 127.002C136.594 127.002 129.75 127.303 121.4 127.079C118.312 127.002 120.196 123.243 122.754 122.642C127.793 121.513 140.356 123.92 144.268 126.327C144.063 126.58 143.796 126.776 143.493 126.895C143.189 127.013 142.86 127.051 142.538 127.004V127.002ZM123.581 120.759C122.98 120.759 123.659 113.311 122.227 113.387C120.572 113.387 122.227 120.383 121.701 120.984C121.325 121.511 120.121 122.113 119.519 122.639C115.344 121.157 110.935 120.443 106.506 120.533C106.205 115.869 105.528 108.644 106.429 102.555C106.579 102.555 106.655 102.632 106.805 102.632C109.965 104.889 115.606 105.643 118.991 105.72C123.505 118.132 133.359 111.062 144.341 105.344C144.191 112.791 143.214 117.38 144.419 124.376C137.732 121.982 130.683 120.759 123.581 120.761V120.759ZM146.825 100.825C143.742 104.736 135.918 107.821 132.834 109.024C132.429 104.319 130.963 99.7666 128.546 95.7094C130.953 94.7313 134.564 93.7531 133.21 90.4435C133.13 90.2045 132.958 90.007 132.732 89.8943C132.507 89.7816 132.246 89.7629 132.006 89.8421C129.975 91.1206 134.786 91.7976 127.343 94.1299C126.917 93.6809 126.405 93.3225 125.838 93.0761C126.219 91.0902 125.955 89.0345 125.086 87.2088C130.201 88.5629 138.25 88.488 141.936 84.8017C143.356 84.905 144.767 84.5057 145.923 83.6738C148.33 86.7603 150.436 96.0877 146.825 100.827V100.825Z" fill="#001434"/>
<path d="M92.8902 67.4278C92.9965 67.2968 93.0547 67.1333 93.0553 66.9646C93.0559 66.7958 92.9987 66.632 92.8934 66.5002C92.788 66.3684 92.6407 66.2766 92.476 66.24C92.3112 66.2035 92.139 66.2243 91.9877 66.2992C89.9566 67.5784 90.0314 68.406 90.4082 68.6314C91.0096 69.0823 92.1383 68.3303 92.8902 67.4278Z" fill="#001434"/>
<path d="M96.1248 71.5652C96.3014 71.5817 96.4782 71.535 96.6236 71.4333C96.7691 71.3317 96.8737 71.1817 96.9188 71.0101C96.9639 70.8386 96.9467 70.6565 96.8701 70.4965C96.7936 70.3364 96.6627 70.2087 96.5008 70.1362C94.9573 69.8988 93.3987 69.7729 91.8371 69.7595C91.2349 69.7595 91.2349 70.8881 91.9143 71.1136C93.2779 71.5228 94.7054 71.6759 96.1248 71.5652Z" fill="#001434"/>
<path d="M94.0933 89.092C92.4389 89.9944 91.5357 91.4991 92.0622 91.9484C92.5138 92.3244 93.6425 90.8954 94.9958 90.1434C96.275 89.3931 95.5231 88.34 94.0933 89.092Z" fill="#001434"/>
<path d="M83.8638 55.091C82.81 55.467 83.3373 57.7244 83.5627 58.5512C83.8638 59.5293 85.2928 59.3788 85.2179 58.4014C85.1423 57.4982 84.9917 54.79 83.8638 55.091Z" fill="#001434"/>
<path d="M60.9203 46.8919C61.8228 46.2148 61.2214 45.6135 60.0927 46.14C58.0317 47.3187 56.2789 48.9684 54.9774 50.9542C53.0968 53.7334 52.0438 56.8987 52.8714 57.0477C53.051 57.0872 53.239 57.0539 53.3942 56.9551C53.5493 56.8562 53.6589 56.6999 53.699 56.5204C55.0531 52.3832 57.1614 49.8263 60.9203 46.8919Z" fill="#001434"/>
<path d="M52.5705 59.0031C52.0439 58.9259 51.668 60.0561 51.668 61.2597C51.668 62.3127 51.7452 63.5163 52.345 63.4414C52.8715 63.3642 52.7959 62.9897 52.7959 61.3346C52.7959 59.9805 53.2475 59.078 52.5705 59.0031Z" fill="#001434"/>
<path d="M57.5352 57.6486C55.6546 61.4099 55.8052 64.7195 57.0087 64.494C57.4596 64.3435 57.2295 61.5203 59.1155 57.8741C59.5478 57.0372 57.9869 56.6705 57.5352 57.6486Z" fill="#001434"/>
<path d="M60.8448 61.7111C60.3497 61.5974 59.8353 61.5974 59.3402 61.7111C59.2205 61.7492 59.1133 61.819 59.0302 61.9132C58.947 62.0073 58.8909 62.1222 58.8679 62.2457C58.8448 62.3692 58.8557 62.4966 58.8993 62.6144C58.9429 62.7322 59.0176 62.836 59.1155 62.9147C59.5733 63.2042 60.1678 63.0652 60.8448 63.0652C61.5219 62.9895 61.5219 61.8609 60.8448 61.7111Z" fill="#001434"/>
<path d="M80.6302 54.3393C80.0781 54.6528 79.6326 55.1244 79.351 55.6934C78.8245 56.3704 79.8026 57.1972 80.404 56.7464C80.9057 56.3727 81.3386 55.9145 81.6832 55.3923C82.0576 54.9407 81.3806 53.8876 80.6302 54.3393Z" fill="#001434"/>
<path d="M63.177 52.0071C65.8852 49.3745 68.5178 48.5469 71.4514 47.795C71.8273 47.7178 71.8273 47.1928 71.6058 46.8169C70.7782 45.7639 64.535 47.8699 62.0522 50.9541C61.5975 51.7068 62.4251 52.759 63.177 52.0071Z" fill="#001434"/>
<path d="M66.3373 54.4898C66.487 53.9633 65.5846 53.5865 63.8545 53.6622C63.6777 53.7079 63.523 53.8154 63.4185 53.9652C63.3141 54.115 63.2666 54.2973 63.2848 54.479C63.303 54.6608 63.3856 54.83 63.5177 54.9561C63.6498 55.0823 63.8226 55.157 64.005 55.1668C65.654 55.359 66.1867 55.1668 66.3373 54.4898Z" fill="#001434"/>
<path d="M70.6238 50.653C70.315 51.0236 70.173 51.7068 70.701 52.0071C71.3024 52.3082 72.7322 50.8784 73.0325 50.5781C73.4092 50.1265 73.4841 49.6 73.183 49.2989C72.5801 48.7724 71.5796 49.5058 70.6238 50.653Z" fill="#001434"/>
<path d="M71.0751 94.0566C68.292 90.1456 63.9286 85.8571 62.8007 86.5342C62.4247 86.7604 62.5745 87.2869 62.8779 87.588C65.8241 89.9355 68.3872 92.727 70.4752 95.8624C72.2315 98.6763 72.3558 100.225 72.958 100.225C73.7833 100.15 73.1811 96.9903 71.0751 94.0566Z" fill="#001434"/>
<path d="M82.4343 61.2563C82.6605 60.8054 82.2914 60.3415 81.6823 59.9771C80.6409 59.3548 80.1028 59.5262 79.8017 60.0543C79.5755 60.5808 79.8017 60.9575 80.7798 61.4084C81.758 61.8592 82.2088 61.7859 82.4343 61.2563Z" fill="#001434"/>
<path d="M98.2326 60.2822C97.7061 60.056 97.4606 60.3462 97.029 61.0341C96.5604 61.7752 96.5025 62.4631 97.029 62.6885C97.4806 62.9147 98.0071 62.4631 98.3082 61.9366C98.7583 61.109 98.7583 60.5825 98.2326 60.2822Z" fill="#001434"/>
<path d="M77.6192 80.8178C78.2214 82.0214 79.5747 85.1812 80.63 84.8045C81.6074 84.278 79.5014 80.9684 78.8992 80.0659C78.297 79.1634 77.0171 79.6143 77.6192 80.8178Z" fill="#001434"/>
<path d="M88.001 78.4859C88.377 78.4859 89.0541 78.2597 89.1289 77.8088C89.3544 77.1318 88.2265 77.1318 86.2725 76.9812C86.2725 76.9812 87.08 74.2699 87.2499 73.22C87.385 72.3901 86.1969 72.3924 85.8209 73.22C85.4449 74.1225 84.6922 76.8307 84.6922 76.8307C79.8788 76.6801 79.3515 76.7535 79.502 77.5077C79.6526 78.262 80.1791 78.2597 84.2414 78.4102C83.7149 79.9897 82.2102 83.9764 83.6392 83.751C84.2414 83.6738 85.4449 80.2152 85.8209 78.4102C86.5459 78.4719 87.2735 78.4971 88.001 78.4859Z" fill="#001434"/>
<path d="M83.8637 48.1708C83.7585 48.1579 83.6517 48.1663 83.5498 48.1954C83.4479 48.2244 83.3528 48.2736 83.2702 48.34C83.1875 48.4064 83.1191 48.4887 83.0688 48.582C83.0185 48.6753 82.9874 48.7778 82.9773 48.8833C82.9673 48.9888 82.9785 49.0953 83.0102 49.1964C83.042 49.2975 83.0937 49.3913 83.1623 49.4721C83.2309 49.5529 83.3149 49.6192 83.4095 49.6669C83.5042 49.7147 83.6074 49.7431 83.7131 49.7503C84.6156 49.7534 84.7638 48.2681 83.8637 48.1708Z" fill="#001434"/>
<path d="M73.3319 102.105C72.9559 102.183 72.7305 102.406 72.9559 103.234C73.4075 104.888 72.6548 107.146 73.4824 107.221C74.6088 107.296 74.6088 101.804 73.3319 102.105Z" fill="#001434"/>
<path d="M74.2345 72.242C73.6169 71.5001 72.7136 72.3269 73.1815 73.1445C73.4531 73.72 73.8079 74.2524 74.2345 74.7248C74.6861 75.1756 75.8897 74.802 75.3631 73.8972C75.0461 73.3073 74.6678 72.7525 74.2345 72.242Z" fill="#001434"/>
<path d="M83.564 70.5875C84.7676 70.813 84.9181 69.5337 84.3159 69.3083C82.697 68.8835 81.0232 68.706 79.3512 68.7818C75.3645 68.7818 75.1391 69.0821 75.0634 69.7592C74.9862 70.5875 76.1921 70.4362 78.0743 70.3613C79.9068 70.2285 81.7486 70.3044 83.564 70.5875Z" fill="#001434"/>
</svg>
