<svg width="155" height="156" viewBox="0 0 155 156" fill="none" xmlns="http://www.w3.org/2000/svg">
<path d="M39.1182 62.7919L41.7018 68.6824V69.3816C41.7018 70.0227 42.2214 70.543 42.8632 70.543H43.5585V71.5425C43.5585 72.004 43.9325 72.3787 44.3947 72.3787C43.2124 90.9459 41.7181 107.003 41.7096 127.863H53.3884C53.3799 107.003 51.8863 90.9459 50.7033 72.3787C51.1647 72.3787 51.5317 72.0047 51.5317 71.5425V70.543H52.227C52.8689 70.543 53.3884 70.0227 53.3884 69.3816V68.6824L55.9721 62.7919H39.1182Z" fill="white"/>
<path d="M55.9717 62.5215H39.1178C38.9219 62.5215 38.7911 62.7221 38.87 62.9002L41.4313 68.7372V69.3814C41.4313 70.1719 42.0731 70.8138 42.8636 70.8138H43.2887V71.5416C43.2887 72.0526 43.6371 72.4846 44.1094 72.6108C42.9031 91.4499 41.4483 107.121 41.4406 127.862C41.4406 128.012 41.5613 128.133 41.7116 128.133H53.3896C53.539 128.133 53.6606 128.012 53.6606 127.862C53.6528 107.084 52.1833 91.2633 50.9917 72.6085C51.4594 72.4792 51.8047 72.0503 51.8047 71.5416V70.8138H52.2298C53.0203 70.8138 53.6621 70.1719 53.6621 69.3814V68.8038C53.6815 68.7651 56.2226 62.9009 56.2226 62.9009C56.3008 62.7229 56.1707 62.5215 55.9748 62.5215H55.9717ZM51.9952 63.0628C51.2612 64.0778 50.1865 66.3061 49.492 67.8174C48.885 64.9968 48.4336 63.6791 48.1138 63.0628H51.9952ZM49.0638 68.4113H46.0559C46.5375 66.128 47.201 63.6574 47.5595 63.1278C47.9187 63.6566 48.5823 66.128 49.0638 68.4113ZM47.0059 63.062C46.6861 63.6783 46.234 64.9968 45.6277 67.8167C44.9332 66.3053 43.8586 64.077 43.1246 63.062H47.0059ZM45.3025 68.4113H41.9833C42.0747 66.1613 42.2977 63.6852 42.5075 63.1247C42.9844 63.6272 44.2271 66.0506 45.3025 68.4113ZM41.4808 67.5039L39.5328 63.062H42.0027C41.7657 63.7944 41.5908 65.2802 41.4808 67.5039ZM44.6491 72.6488H45.7462C44.7118 88.5147 44.3386 111.342 44.3347 127.592H41.9818C42.0027 106.837 43.4869 90.8692 44.6491 72.6488ZM47.2784 72.6488V127.592H44.8759C44.8798 111.339 45.2537 88.5023 46.2897 72.6488H47.2784ZM48.8091 72.6488C49.8451 88.5023 50.219 111.339 50.2229 127.592H47.8196V72.6488H48.8091ZM53.117 127.592H50.7641C50.7602 111.342 50.387 88.5147 49.3526 72.6488H50.4498C51.6243 91.0388 53.0961 106.906 53.117 127.592ZM51.2619 71.5416C51.2619 71.8528 51.008 72.1068 50.6967 72.1068H44.3951C44.0839 72.1068 43.8307 71.8528 43.8307 71.5416V70.8138H51.2627L51.2619 71.5416ZM53.1186 69.3814C53.1186 69.8723 52.7183 70.2718 52.2282 70.2718H42.8636C42.3728 70.2718 41.9732 69.8715 41.9732 69.3814V68.9525H53.1194L53.1186 69.3814ZM49.8172 68.4113C50.8818 66.0738 52.1105 63.6736 52.5983 63.1394C52.829 63.7774 53.0466 66.2039 53.1364 68.4113H49.8172ZM53.6366 67.445C53.5259 65.2539 53.3524 63.7882 53.1178 63.0628H55.5583L53.6366 67.445Z" fill="black"/>
<path d="M61.3438 62.7919L63.9274 68.6824V69.3816C63.9274 70.0227 64.4469 70.543 65.0888 70.543H65.7841V71.5425C65.7841 72.004 66.158 72.3787 66.6203 72.3787C65.438 90.9459 63.9437 107.003 63.9352 127.863H75.614C75.6055 107.003 74.1119 90.9459 72.9289 72.3787C73.3903 72.3787 73.7573 72.0047 73.7573 71.5425V70.543H74.4526C75.0945 70.543 75.614 70.0227 75.614 69.3816V68.6824L78.1977 62.7919H61.3438Z" fill="white"/>
<path d="M78.1973 62.5215H61.3434C61.1475 62.5215 61.0167 62.7221 61.0956 62.9002L63.6569 68.7372V69.3814C63.6569 70.1719 64.2987 70.8138 65.0892 70.8138H65.5143V71.5416C65.5143 72.0526 65.8627 72.4846 66.335 72.6108C65.1287 91.4499 63.6739 107.121 63.6661 127.862C63.6661 128.012 63.7869 128.133 63.9371 128.133H75.6152C75.7646 128.133 75.8862 128.012 75.8862 127.862C75.8784 107.084 74.4089 91.2633 73.2173 72.6085C73.685 72.4792 74.0303 72.0503 74.0303 71.5416V70.8138H74.4553C75.2458 70.8138 75.8877 70.1719 75.8877 69.3814V68.8038C75.9071 68.7651 78.4482 62.9009 78.4482 62.9009C78.5264 62.7229 78.3963 62.5215 78.2004 62.5215H78.1973ZM74.2207 63.0628C73.4867 64.0778 72.4121 66.3061 71.7176 67.8174C71.1106 64.9968 70.6592 63.6791 70.3394 63.0628H74.2207ZM71.2894 68.4113H68.2815C68.763 66.128 69.4266 63.6574 69.7851 63.1278C70.1443 63.6566 70.8078 66.128 71.2894 68.4113ZM69.2315 63.062C68.9117 63.6783 68.4595 64.9968 67.8533 67.8167C67.1588 66.3053 66.0841 64.077 65.3501 63.062H69.2315ZM67.5281 68.4113H64.2089C64.3003 66.1613 64.5232 63.6852 64.7331 63.1247C65.21 63.6272 66.4527 66.0506 67.5281 68.4113ZM63.7064 67.5039L61.7584 63.062H64.2283C63.9913 63.7944 63.8163 65.2802 63.7064 67.5039ZM66.8746 72.6488H67.9718C66.9374 88.5147 66.5642 111.342 66.5603 127.592H64.2073C64.2283 106.837 65.7125 90.8692 66.8746 72.6488ZM69.504 72.6488V127.592H67.1015C67.1054 111.339 67.4793 88.5023 68.5153 72.6488H69.504ZM71.0347 72.6488C72.0706 88.5023 72.4446 111.339 72.4485 127.592H70.0452V72.6488H71.0347ZM75.3426 127.592H72.9897C72.9858 111.342 72.6126 88.5147 71.5782 72.6488H72.6753C73.8499 91.0388 75.3217 106.906 75.3426 127.592ZM73.4875 71.5416C73.4875 71.8528 73.2336 72.1068 72.9223 72.1068H66.6207C66.3094 72.1068 66.0563 71.8528 66.0563 71.5416V70.8138H73.4883L73.4875 71.5416ZM75.3442 69.3814C75.3442 69.8723 74.9439 70.2718 74.4538 70.2718H65.0892C64.5983 70.2718 64.1988 69.8715 64.1988 69.3814V68.9525H75.345L75.3442 69.3814ZM72.0428 68.4113C73.1074 66.0738 74.3361 63.6736 74.8239 63.1394C75.0546 63.7774 75.2722 66.2039 75.362 68.4113H72.0428ZM75.8622 67.445C75.7514 65.2539 75.578 63.7882 75.3434 63.0628H77.7838L75.8622 67.445Z" fill="black"/>
<path d="M83.5688 62.7919L86.1525 68.6824V69.3816C86.1525 70.0227 86.6721 70.543 87.3139 70.543H88.0092V71.5425C88.0092 72.004 88.3831 72.3787 88.8454 72.3787C87.6631 90.9459 86.1688 107.003 86.1603 127.863H97.8391C97.8306 107.003 96.337 90.9459 95.154 72.3787C95.6154 72.3787 95.9824 72.0047 95.9824 71.5425V70.543H96.6777C97.3196 70.543 97.8391 70.0227 97.8391 69.3816V68.6824L100.423 62.7919H83.5688Z" fill="white"/>
<path d="M100.422 62.5215H83.5685C83.3726 62.5215 83.2418 62.7221 83.3207 62.9002L85.882 68.7372V69.3814C85.882 70.1719 86.5238 70.8138 87.3143 70.8138H87.7394V71.5416C87.7394 72.0526 88.0878 72.4846 88.5601 72.6108C87.3538 91.4499 85.899 107.121 85.8912 127.862C85.8912 128.012 86.012 128.133 86.1622 128.133H97.8403C97.9897 128.133 98.1113 128.012 98.1113 127.862C98.1035 107.084 96.634 91.2633 95.4424 72.6085C95.9101 72.4792 96.2554 72.0503 96.2554 71.5416V70.8138H96.6804C97.471 70.8138 98.1128 70.1719 98.1128 69.3814V68.8038C98.1322 68.7651 100.673 62.9009 100.673 62.9009C100.751 62.7229 100.621 62.5215 100.425 62.5215H100.422ZM96.4458 63.0628C95.7119 64.0778 94.6372 66.3061 93.9427 67.8174C93.3357 64.9968 92.8843 63.6791 92.5645 63.0628H96.4458ZM93.5145 68.4113H90.5066C90.9881 66.128 91.6517 63.6574 92.0102 63.1278C92.3694 63.6566 93.0329 66.128 93.5145 68.4113ZM91.4566 63.062C91.1368 63.6783 90.6846 64.9968 90.0784 67.8167C89.3839 66.3053 88.3092 64.077 87.5752 63.062H91.4566ZM89.7532 68.4113H86.434C86.5254 66.1613 86.7483 63.6852 86.9582 63.1247C87.4351 63.6272 88.6778 66.0506 89.7532 68.4113ZM85.9315 67.5039L83.9835 63.062H86.4534C86.2164 63.7944 86.0415 65.2802 85.9315 67.5039ZM89.0997 72.6488H90.1969C89.1625 88.5147 88.7893 111.342 88.7854 127.592H86.4325C86.4534 106.837 87.9376 90.8692 89.0997 72.6488ZM91.7291 72.6488V127.592H89.3266C89.3305 111.339 89.7044 88.5023 90.7404 72.6488H91.7291ZM93.2598 72.6488C94.2957 88.5023 94.6697 111.339 94.6736 127.592H92.2703V72.6488H93.2598ZM97.5677 127.592H95.2148C95.2109 111.342 94.8377 88.5147 93.8033 72.6488H94.9004C96.075 91.0388 97.5468 106.906 97.5677 127.592ZM95.7126 71.5416C95.7126 71.8528 95.4587 72.1068 95.1474 72.1068H88.8458C88.5345 72.1068 88.2814 71.8528 88.2814 71.5416V70.8138H95.7134L95.7126 71.5416ZM97.5693 69.3814C97.5693 69.8723 97.169 70.2718 96.6789 70.2718H87.3143C86.8234 70.2718 86.4239 69.8715 86.4239 69.3814V68.9525H97.5701L97.5693 69.3814ZM94.2679 68.4113C95.3325 66.0738 96.5612 63.6736 97.049 63.1394C97.2797 63.7774 97.4973 66.2039 97.5871 68.4113H94.2679ZM98.0873 67.445C97.9765 65.2539 97.8031 63.7882 97.5685 63.0628H100.009L98.0873 67.445Z" fill="black"/>
<path d="M122.647 62.7919L120.063 68.6824V69.3816C120.063 70.0226 119.544 70.5429 118.902 70.5429H118.207V71.5425C118.207 72.0039 117.833 72.3787 117.37 72.3787C118.553 90.9458 120.047 107.003 120.055 127.863H108.377C108.385 107.003 109.879 90.9458 111.062 72.3787C110.6 72.3787 110.233 72.0047 110.233 71.5425V70.5429H109.538C108.896 70.5429 108.377 70.0226 108.377 69.3816V68.6824L105.793 62.7919H122.647Z" fill="white"/>
<path d="M105.545 62.901C105.545 62.901 108.086 68.7652 108.106 68.8039V69.3815C108.106 70.172 108.748 70.8139 109.538 70.8139H109.963V71.5416C109.963 72.0503 110.308 72.4793 110.776 72.6086C109.585 91.2633 108.115 107.084 108.107 127.862C108.107 128.012 108.228 128.133 108.378 128.133H120.056C120.206 128.133 120.327 128.012 120.327 127.862C120.32 107.121 118.864 91.4499 117.658 72.6109C118.131 72.4847 118.479 72.0527 118.479 71.5416V70.8139H118.904C119.695 70.8139 120.337 70.172 120.337 69.3815V68.7373L122.898 62.9002C122.977 62.7222 122.846 62.5208 122.65 62.5208H105.796C105.599 62.5208 105.469 62.7237 105.548 62.901H105.545ZM113.651 63.0628C113.331 63.6791 112.88 64.9977 112.273 67.8175C111.578 66.3062 110.504 64.0779 109.77 63.0628H113.651ZM114.205 63.1279C114.564 63.6574 115.227 66.1281 115.709 68.4113H112.701C113.182 66.1281 113.846 63.6567 114.205 63.1279ZM118.641 63.062C117.907 64.0771 116.832 66.3062 116.138 67.8167C115.531 64.9961 115.079 63.6784 114.76 63.062H118.642H118.641ZM119.257 63.1248C119.467 63.6853 119.69 66.1614 119.781 68.4113H116.462C117.538 66.0507 118.78 63.6273 119.257 63.1248ZM119.762 63.062H122.232L120.284 67.5039C120.173 65.2795 119.999 63.7945 119.762 63.062ZM119.784 127.592H117.431C117.427 111.342 117.054 88.5147 116.019 72.6488H117.116C118.279 90.8692 119.763 106.837 119.784 127.592ZM115.476 72.6488C116.512 88.5023 116.886 111.339 116.89 127.592H114.487V72.6488H115.476ZM113.946 72.6488V127.592H111.543C111.546 111.339 111.92 88.5023 112.956 72.6488H113.946ZM111.317 72.6488H112.414C111.379 88.5147 111.006 111.342 111.002 127.592H108.649C108.67 106.906 110.142 91.0388 111.317 72.6488ZM110.504 70.8139H117.936V71.5416C117.936 71.8529 117.683 72.1069 117.372 72.1069H111.07C110.759 72.1069 110.505 71.8529 110.505 71.5416L110.504 70.8139ZM108.648 68.9533H119.794V69.3823C119.794 69.8731 119.394 70.2726 118.903 70.2726H109.539C109.048 70.2726 108.648 69.8724 108.648 69.3823V68.9533H108.648ZM108.63 68.4121C108.72 66.2047 108.937 63.779 109.168 63.1402C109.656 63.6745 110.884 66.0739 111.949 68.4121H108.63ZM106.209 63.0636H108.649C108.415 63.7891 108.241 65.2555 108.13 67.4459L106.209 63.0636Z" fill="black"/>
<path fill-rule="evenodd" clip-rule="evenodd" d="M137.343 137.208V132.539H133.942V127.871H27.8244V132.539H24.4223V137.208H21.8696V141.876H139.896V137.208H137.343Z" fill="#FFD997"/>
<path d="M139.896 136.937H137.614V132.539C137.614 132.389 137.493 132.268 137.343 132.268H134.212V127.87C134.212 127.721 134.091 127.599 133.941 127.599H27.8244C27.675 127.599 27.5534 127.72 27.5534 127.87V132.268H24.4223C24.2729 132.268 24.1513 132.388 24.1513 132.539V136.937H21.8696C21.7202 136.937 21.5986 137.058 21.5986 137.208V141.877C21.5986 142.026 21.7194 142.148 21.8696 142.148H139.895C140.044 142.148 140.166 142.027 140.166 141.877V137.208C140.166 137.059 140.045 136.937 139.895 136.937H139.896ZM28.0954 128.142H133.671V132.268H28.0954V128.142ZM24.6933 132.81H137.073V136.937H24.6933V132.81ZM139.625 141.606H22.1406V137.478H139.625V141.606Z" fill="black"/>
<path d="M132.476 60.4744H29.29V62.791H132.476V60.4744Z" fill="white"/>
<path d="M137.706 58.1314H23.8589V60.4658H137.706V58.1314Z" fill="#FFD997"/>
<path d="M132.476 63.0627H29.2895C29.1401 63.0627 29.0186 62.9419 29.0186 62.7917V60.4744C29.0186 60.3249 29.1393 60.2034 29.2895 60.2034H132.475C132.624 60.2034 132.746 60.3242 132.746 60.4744V62.7917C132.746 62.9411 132.625 63.0627 132.475 63.0627H132.476ZM29.5605 62.5215H132.205V60.7453H29.5605V62.5215Z" fill="black"/>
<path fill-rule="evenodd" clip-rule="evenodd" d="M23.8588 58.1316L21.958 55.5781L80.8824 27.8808L139.895 55.7314L137.705 58.1316L80.8824 30.5969L23.8588 58.1316Z" fill="#FFD997"/>
<path fill-rule="evenodd" clip-rule="evenodd" d="M80.8825 30.5968L137.706 58.1315H23.8589L80.8825 30.5968Z" fill="white"/>
<path d="M140.011 55.4867C80.7423 27.6911 80.9505 27.5486 80.767 27.6361L21.8434 55.3334C21.6901 55.4038 21.6367 55.6021 21.7412 55.7399L23.5886 58.2206V60.4659C23.5886 60.6153 23.7094 60.7369 23.8596 60.7369H137.706C137.856 60.7369 137.977 60.6161 137.977 60.4659V58.2368L140.096 55.9141C140.22 55.777 140.175 55.5626 140.012 55.4859L140.011 55.4867ZM80.8824 30.8972L136.525 57.8605H25.0434L80.8824 30.8972ZM80.6114 28.3081V30.4265L23.9424 57.7901L22.3738 55.6833L80.6114 28.3081ZM137.435 60.1957H24.1298V58.4025H137.435V60.1957ZM137.642 57.7994L81.1534 30.4265V28.3089L139.448 55.8204L137.642 57.7994Z" fill="black"/>
<path d="M103.676 55.8993H34.5543C34.2655 55.8993 34.178 55.5067 34.4397 55.3829L41.2182 52.2061C41.5372 52.052 41.7773 52.5429 41.4482 52.6978L35.7714 55.3581H103.676C104.034 55.3581 104.034 55.8993 103.676 55.8993Z" fill="black"/>
<path d="M111.4 48.2754L80.8889 33.7861L59.8587 43.6415C59.5312 43.7917 59.3051 43.3016 59.6288 43.1498C80.9571 33.1481 80.8216 33.1558 81.0059 33.2418L111.516 47.7597C111.776 47.8836 111.688 48.2754 111.4 48.2754Z" fill="black"/>
<path d="M126.846 55.4835H106.767C106.408 55.4835 106.408 54.9423 106.767 54.9423H125.6L114.65 49.9384C114.326 49.7905 114.547 49.2957 114.876 49.4452L126.957 54.9663C127.22 55.0871 127.134 55.4835 126.844 55.4835H126.846Z" fill="black"/>
<path d="M80.7827 52.5128C76.9857 52.5128 73.8965 49.4243 73.8965 45.6266C73.8965 41.8289 76.985 38.7404 80.7827 38.7404C84.5804 38.7404 87.6689 41.8289 87.6689 45.6266C87.6689 49.4243 84.5804 52.5128 80.7827 52.5128ZM80.7827 39.2824C77.2838 39.2824 74.4385 42.1285 74.4385 45.6266C74.4385 49.1247 77.2846 51.9708 80.7827 51.9708C84.2807 51.9708 87.1269 49.1247 87.1269 45.6266C87.1269 42.1285 84.2807 39.2824 80.7827 39.2824Z" fill="black"/>
<path fill-rule="evenodd" clip-rule="evenodd" d="M25.4764 78.5439L24.3049 78.9458C20.4043 80.2844 18.6072 85.3604 20.2936 90.2746C21.9055 94.9712 25.9046 98.3013 31.6952 96.3145C35.1352 95.1338 37.4138 90.3133 35.599 85.0229C33.9126 80.1087 29.3763 77.2053 25.4764 78.5439Z" fill="#FFD997"/>
<path d="M29.5003 95.1531C26.8849 95.1531 23.808 93.1393 22.5042 89.3362C21.0617 85.1328 22.6265 80.7745 25.9922 79.6178C29.6536 78.3604 33.3956 81.3087 34.7126 85.1475C36.4353 90.1677 33.8562 95.1531 29.5003 95.1531ZM26.1671 80.1311C21.1732 81.8437 21.359 90.4116 26.4064 93.6433C31.4537 96.8727 36.3547 91.6032 34.1992 85.3232C32.763 81.1384 29.045 79.1439 26.1671 80.1311Z" fill="black"/>
<path d="M35.855 84.9353C34.123 79.8849 29.4287 76.9009 25.3887 78.2876C22.9142 79.137 21.0769 79.9925 19.9488 83.1786C19.1699 85.3774 19.2016 87.9286 20.0371 90.3621C21.6336 95.0161 25.6852 98.6644 31.6741 96.6079C36.03 95.1113 37.4569 89.601 35.855 84.9353ZM35.4338 91.9384C32.9949 98.8246 24.3388 97.4116 21.7211 89.7852C19.7026 83.9033 22.7702 78.4897 27.442 78.4897C33.1436 78.4897 37.5305 86.0162 35.4338 91.9384Z" fill="black"/>
<path fill-rule="evenodd" clip-rule="evenodd" d="M30.2269 91.1038C29.4241 91.4228 28.4872 90.9125 28.176 89.9881C28.1032 89.7713 27.8678 89.6544 27.651 89.7272C27.4342 89.7999 27.3173 90.0353 27.3901 90.2521C27.8074 91.4917 28.9448 92.1994 30.0442 92.0174L30.3988 93.1192C30.4716 93.336 30.707 93.4529 30.9238 93.3801C31.1406 93.3073 31.2575 93.0719 31.1847 92.8551L30.8208 91.7255C31.7801 91.1324 32.24 89.8178 31.825 88.5851C31.3558 87.1907 29.9668 86.4738 28.7535 86.9329C27.9568 87.2341 27.0726 86.706 26.7653 85.7909C26.4517 84.8587 26.8156 83.8429 27.6193 83.5184C28.4229 83.194 29.3164 83.7236 29.6285 84.6527C29.7012 84.8695 29.9366 84.9864 30.1534 84.9136C30.3702 84.8409 30.4871 84.6055 30.4143 84.3887C29.997 83.1491 28.8596 82.4415 27.7602 82.6234L27.4125 81.6347C27.3398 81.4179 27.1044 81.301 26.8876 81.3738C26.6708 81.4465 26.5539 81.6819 26.6267 81.8987L26.9836 82.9145C26.0243 83.5076 25.5652 84.8223 25.9794 86.0549C26.4424 87.4323 27.7958 88.1531 28.9982 87.7273C29.8104 87.3758 30.724 87.91 31.0399 88.8492C31.3411 89.7442 30.9664 90.7422 30.2277 91.103L30.2269 91.1038Z" fill="black"/>
<path fill-rule="evenodd" clip-rule="evenodd" d="M37.6072 13.9387L36.5721 14.2941C33.1259 15.4764 31.5371 19.9616 33.0275 24.3036C34.518 28.6456 38.5247 31.2107 41.9709 30.0285L43.4118 29.5151C46.5754 28.1308 47.9814 23.8313 46.5506 19.6636C45.061 15.3216 41.0534 12.7565 37.6072 13.9387Z" fill="#FFD997"/>
<path d="M41.1466 28.5643C38.676 28.5643 36.1782 26.5938 35.1508 23.5982C33.9174 20.0057 35.2592 16.2777 38.1394 15.2897C41.0181 14.3018 44.3667 16.4201 45.5993 20.0134C47.0758 24.3183 44.8468 28.5643 41.1466 28.5643ZM38.3152 15.8023C35.7168 16.6934 34.5275 20.1125 35.6634 23.4232C36.7992 26.7324 39.835 28.7021 42.435 27.8094C45.0326 26.9174 46.2226 23.4991 45.0868 20.1884C43.9517 16.8793 40.9167 14.9096 38.3152 15.8023Z" fill="black"/>
<path d="M46.8068 19.5753C45.2699 15.0962 41.099 12.4529 37.5189 13.6824C35.3378 14.4311 33.6948 15.1922 32.693 18.0237C30.5986 23.9351 35.4106 32.8088 43.2476 29.8744C46.4212 28.6859 48.4552 24.3772 46.8068 19.5753ZM46.3748 25.7631C45.7523 27.5222 44.5754 28.7966 43.0532 29.368C37.7047 31.3749 32.0666 23.973 34.2368 17.8479C34.8779 16.0369 36.1059 14.7393 37.6939 14.1942C43.0168 12.3678 48.5241 19.6984 46.3748 25.7631Z" fill="black"/>
<path fill-rule="evenodd" clip-rule="evenodd" d="M43.2099 22.8139C42.8065 21.6161 41.6134 20.9991 40.5712 21.3947C39.8868 21.6525 39.1272 21.2004 38.8625 20.4129C38.5938 19.6155 38.9058 18.7413 39.5918 18.4626C40.284 18.1808 41.0544 18.6376 41.3222 19.4358C41.385 19.6224 41.587 19.7223 41.7736 19.6596C41.9602 19.5969 42.0609 19.3948 41.9982 19.2082C41.6405 18.1436 40.6626 17.5358 39.718 17.6915L39.3835 16.8227C39.3208 16.6362 39.1187 16.5363 38.9321 16.599C38.7463 16.6617 38.6457 16.8638 38.7084 17.0504L39.0506 17.9423C38.226 18.4518 37.8319 19.5814 38.1881 20.6406C38.5938 21.8461 39.783 22.4701 40.8298 22.059C41.5181 21.7888 42.2692 22.2495 42.5355 23.0415C42.798 23.822 42.5045 24.6744 41.8511 24.9725C41.1473 25.2938 40.3498 24.8339 40.0757 24.0194C40.013 23.8328 39.8109 23.7329 39.6243 23.7957C39.4377 23.8584 39.3378 24.0604 39.3998 24.247C39.7583 25.3116 40.7354 25.9194 41.68 25.7638L42.0377 26.689C42.1879 27.1358 42.8622 26.9089 42.7128 26.4622L42.3474 25.5137C43.1719 25.0043 43.5668 23.8746 43.2099 22.8155V22.8139Z" fill="black"/>
<path fill-rule="evenodd" clip-rule="evenodd" d="M27.9783 42.7487L26.6033 42.0356C22.0244 39.661 15.8776 42.4166 12.8859 48.1863C9.89416 53.9552 11.1825 60.5673 15.7614 62.942L17.6947 63.916C22.2032 65.8036 27.9822 63.0426 30.8539 57.5044C33.8456 51.7354 32.5573 45.1233 27.9783 42.7487Z" fill="#FFD997"/>
<path d="M21.2707 62.8133C15.3996 62.8133 12.5147 55.8892 15.7573 49.6364C19.7865 41.8668 29.4546 41.7568 30.9961 49.6712C32.2055 55.8691 27.1829 62.8133 21.2707 62.8133ZM16.2381 49.8864C13.8604 54.4716 14.8653 59.7264 18.4772 61.6001C24.3143 64.6212 31.8958 57.1265 30.4642 49.7757C29.0326 42.4351 20.0644 42.5078 16.2381 49.8864Z" fill="black"/>
<path d="M32.5235 48.801C31.9637 45.9316 30.3943 43.6964 28.1033 42.5087L26.7282 41.7955C21.6406 39.1569 15.4574 42.6402 12.6461 48.0615C9.58858 53.9575 10.9296 60.7408 15.637 63.182L17.2932 64.0406C18.0194 64.4169 19.3565 64.7839 20.7022 64.7839C27.7432 64.7839 34.0185 56.4731 32.5235 48.801ZM30.6134 57.3797C29.1934 60.1174 27.0154 62.2513 24.4798 63.3887C19.2791 65.7207 14.214 63.0929 13.1238 57.4989C11.7201 50.2976 17.5688 42.1633 24.4124 42.1633C31.0516 42.1633 34.4088 50.0607 30.6134 57.3797Z" fill="black"/>
<path fill-rule="evenodd" clip-rule="evenodd" d="M20.7287 57.6228C19.7074 57.19 19.4024 55.9016 19.9807 54.8029C20.1139 54.549 20.0164 54.2346 19.7632 54.1015C19.51 53.9683 19.1949 54.0659 19.0617 54.319C18.2991 55.7692 18.6405 57.4122 19.7562 58.2522L19.1407 59.4701C19.0067 59.7241 19.1043 60.0384 19.3582 60.1716C19.6122 60.3048 19.9258 60.2072 20.0597 59.954L20.6915 58.7036C22.0596 59.0605 23.6484 58.3405 24.4071 56.8981C25.2658 55.2667 24.7285 53.383 23.2582 52.6885C22.2834 52.2286 21.9961 50.9712 22.5644 49.8926C23.2272 48.6329 24.7966 48.0809 25.8054 48.9914C26.4372 49.5613 26.5479 50.6026 26.0733 51.5046C25.9402 51.7586 26.0377 52.0729 26.2909 52.2061C26.5441 52.3393 26.8592 52.2417 26.9924 51.9885C27.755 50.5384 27.4136 48.8954 26.2979 48.0553L26.908 46.9381C27.0411 46.6841 26.9444 46.3698 26.6904 46.2366C26.4365 46.1035 26.1229 46.201 25.9889 46.4542L25.3618 47.6032C23.9937 47.2462 22.4049 47.9671 21.6454 49.4095C20.7682 51.0757 21.3504 52.9989 22.8888 53.664C23.7908 54.1541 24.0378 55.3712 23.4881 56.4149C22.9229 57.4888 21.7073 58.0385 20.7279 57.6228H20.7287Z" fill="black"/>
<path d="M13.2169 101.566C12.2104 100.536 11.2581 99.4603 10.3986 98.3771C10.1757 98.1115 10.5914 97.7538 10.8245 98.0434C11.6831 99.1204 12.62 100.18 13.604 101.188C13.8495 101.416 13.5088 101.818 13.2169 101.566ZM8.43204 95.6363C7.65779 94.4277 6.96097 93.1734 6.3648 91.9044C6.22233 91.5575 6.71243 91.3585 6.86032 91.6721C7.44101 92.9179 8.12234 94.1574 8.88885 95.3413C9.07776 95.6455 8.63644 95.9297 8.43204 95.6363ZM5.11825 88.7601C4.66918 87.3975 4.32077 86.0115 4.08075 84.6179C4.05288 84.5327 4.10863 84.3407 4.30529 84.3082C4.44465 84.2857 4.59176 84.3864 4.61421 84.5327C4.84726 85.9039 5.18716 87.2736 5.62926 88.5898C5.73997 88.9444 5.21193 89.0907 5.11825 88.7601ZM3.9801 81.5209C3.83996 81.5209 3.71608 81.4047 3.70834 81.2576C3.65027 80.0405 3.6673 78.4456 3.80125 76.9914C3.83532 76.6717 4.34322 76.6461 4.34322 77.0449C4.20618 78.5005 4.19379 80.1086 4.25031 81.2336C4.26115 81.3343 4.17599 81.5201 3.97933 81.5201L3.9801 81.5209ZM4.30529 73.6544C4.57627 72.2762 4.95566 70.8911 5.41247 69.5362C5.50692 69.2505 5.93896 69.3101 5.93896 69.6283C5.93896 69.7746 5.3784 71.0932 4.83178 73.7636C4.76519 74.1135 4.22554 74.0059 4.30529 73.6544ZM6.64353 66.3842C7.68102 64.0692 8.62638 62.6678 8.66431 62.6136C8.86407 62.3217 9.31623 62.6182 9.11338 62.9155C9.10564 62.9241 9.10564 62.9318 9.09712 62.9388C8.86485 63.2949 8.04491 64.5957 7.13905 66.6087C6.9842 66.9417 6.49642 66.7132 6.64275 66.3842H6.64353Z" fill="black"/>
<path d="M15.2203 26.3532H12.7396C12.3811 26.3532 12.3811 25.812 12.7396 25.812H15.2203C15.5787 25.812 15.5787 26.3532 15.2203 26.3532Z" fill="black"/>
<path d="M15.9297 24.9223V21.9833C15.9297 21.6248 16.4709 21.6248 16.4709 21.9833V24.9223C16.4709 25.2808 15.9297 25.2808 15.9297 24.9223Z" fill="black"/>
<path d="M19.6597 26.3532H17.179C16.8205 26.3532 16.8205 25.812 17.179 25.812H19.6597C20.0182 25.812 20.0182 26.3532 19.6597 26.3532Z" fill="black"/>
<path d="M15.9297 30.181V27.2427C15.9297 26.8842 16.4709 26.8842 16.4709 27.2427V30.181C16.4709 30.5394 15.9297 30.5394 15.9297 30.181Z" fill="black"/>
<path d="M135.457 108.319H132.976C132.617 108.319 132.617 107.777 132.976 107.777H135.457C135.815 107.777 135.815 108.319 135.457 108.319Z" fill="black"/>
<path d="M136.166 106.887V103.948C136.166 103.589 136.707 103.589 136.707 103.948V106.887C136.707 107.245 136.166 107.245 136.166 106.887Z" fill="black"/>
<path d="M139.896 108.319H137.415C137.057 108.319 137.057 107.777 137.415 107.777H139.896C140.255 107.777 140.255 108.319 139.896 108.319Z" fill="black"/>
<path d="M136.166 112.146V109.207C136.166 108.849 136.707 108.849 136.707 109.207V112.146C136.707 112.505 136.166 112.505 136.166 112.146Z" fill="black"/>
<path fill-rule="evenodd" clip-rule="evenodd" d="M68.5183 109.996C68.5183 108.93 67.6535 108.065 66.5873 108.065H6.30256C5.23642 108.065 4.37158 108.93 4.37158 109.996V144.045C4.37158 145.111 5.23642 145.976 6.30256 145.976H66.5865C67.6527 145.976 68.5175 145.111 68.5175 144.045L68.5183 109.996Z" fill="#81F8F8"/>
<path fill-rule="evenodd" clip-rule="evenodd" d="M4.37158 123.351C4.37158 123.351 10.8435 122.004 11.5899 127.522C11.5899 127.522 15.7159 126.582 18.1865 128.398C20.6572 130.214 21.539 132.861 20.6572 136.131C20.6572 136.131 22.8057 134.573 25.6178 134.758C28.4299 134.944 29.9768 137.41 29.9768 139.131C29.9768 139.131 33.0723 136.394 38.0701 138.199C42.8387 139.921 43.8592 145.975 43.8592 145.975H6.35212C5.2581 145.975 4.37158 145.088 4.37158 143.995V123.35V123.351Z" fill="white"/>
<path fill-rule="evenodd" clip-rule="evenodd" d="M19.7414 116.842C19.7414 116.376 19.4022 115.999 18.9841 115.999H12.348C11.9299 115.999 11.5908 116.376 11.5908 116.842V120.712C11.5908 121.177 11.9299 121.554 12.348 121.554H18.9841C19.4022 121.554 19.7414 121.177 19.7414 120.712V116.842Z" fill="#FFD997"/>
<path d="M18.9829 115.728H12.3475C11.7808 115.728 11.3193 116.228 11.3193 116.842V120.712C11.3193 121.326 11.7808 121.825 12.3475 121.825H18.9829C19.5496 121.825 20.0111 121.326 20.0111 120.712V116.842C20.0111 116.228 19.5496 115.728 18.9829 115.728ZM14.5069 119.509L14.4945 118.213H16.5053L16.4929 119.509H14.5069ZM11.8605 118.213H13.9541L13.965 119.487C13.9595 119.494 13.9533 119.501 13.9479 119.508H11.8605V118.213ZM17.0465 118.213H19.4699V119.509H17.0356L17.0465 118.213ZM18.9829 116.269C19.2515 116.269 19.4699 116.526 19.4699 116.841V117.671H17.3221C17.5915 117.092 17.6767 116.58 17.7038 116.269H18.9829V116.269ZM17.1595 116.269C17.1285 116.574 17.0325 117.106 16.7368 117.672H14.2646C13.9704 117.109 13.8736 116.575 13.8426 116.269H17.1603H17.1595ZM12.3475 116.269H13.2968C13.3239 116.58 13.4098 117.092 13.6785 117.672H11.8605V116.842C11.8605 116.526 12.0789 116.269 12.3475 116.269ZM12.3475 121.283C12.0789 121.283 11.8605 121.027 11.8605 120.712V120.051H13.5894C13.4106 120.379 13.2403 120.808 13.2139 121.284L12.3475 121.283ZM13.7559 121.283C13.7931 120.779 14.0385 120.326 14.2236 120.05H16.7755C16.9613 120.326 17.206 120.779 17.2431 121.283H13.7559ZM18.9829 121.283H17.7867C17.7588 120.793 17.5792 120.368 17.3941 120.05H19.4707V120.711C19.4707 121.026 19.2523 121.283 18.9836 121.283L18.9829 121.283Z" fill="black"/>
<path d="M66.5865 107.794H6.30256C5.08853 107.794 4.10059 108.782 4.10059 109.996V144.045C4.10059 145.259 5.08776 146.248 6.30256 146.248H66.5865C67.8006 146.248 68.7885 145.26 68.7885 144.045V109.996C68.7885 108.782 67.8013 107.794 66.5865 107.794ZM4.64179 144.045V123.58C5.38042 123.469 7.85725 123.214 9.58073 124.435C10.5478 125.119 11.1339 126.17 11.3212 127.558C11.3414 127.715 11.4947 127.82 11.6495 127.786C11.6906 127.778 15.6873 126.898 18.0263 128.617C20.4156 130.374 21.2355 132.948 20.3955 136.062C20.3281 136.307 20.6115 136.501 20.8159 136.351C20.836 136.336 22.9064 134.844 25.6 135.03C28.2441 135.205 29.7066 137.566 29.7066 139.132C29.7066 139.367 29.9846 139.489 30.1565 139.336C30.1867 139.309 33.19 136.727 37.9787 138.456C41.9243 139.88 43.2374 144.458 43.527 145.706H6.30256C5.38662 145.706 4.64179 144.961 4.64179 144.045ZM68.2465 144.045C68.2465 144.961 67.5017 145.706 66.5858 145.706H44.0821C43.8429 144.561 42.553 139.532 38.1614 137.947C34.0587 136.466 31.2242 137.933 30.2076 138.62C29.9451 136.858 28.3718 134.671 25.6356 134.49C23.604 134.36 21.9115 135.094 21.0714 135.559C21.6985 132.5 20.764 129.959 18.346 128.181C16.1572 126.572 12.8094 127.021 11.8129 127.202C11.1966 123.721 8.09572 122.531 4.64024 123.031V109.997C4.64024 109.081 5.38507 108.336 6.30101 108.336H66.585C67.5009 108.336 68.2458 109.081 68.2458 109.997V144.046L68.2465 144.045Z" fill="black"/>
<path d="M22.7352 129.306H11.5898V131.123H22.7352V129.306Z" fill="#FFD997"/>
<path d="M31.9581 137.669H11.5898V139.485H31.9581V137.669Z" fill="#FFD997"/>
<path d="M45.9266 137.669H39.5576V139.485H45.9266V137.669Z" fill="#FFD997"/>
<path d="M53.8055 137.669H47.4365V139.485H53.8055V137.669Z" fill="#FFD997"/>
<path d="M62.0228 137.669H55.6538V139.485H62.0228V137.669Z" fill="#FFD997"/>
<path d="M49.2401 129.306H38.0947V131.123H49.2401V129.306Z" fill="#FFD997"/>
<path d="M35.9881 129.306H24.8428V131.123H35.9881V129.306Z" fill="#FFD997"/>
<path d="M62.493 129.306H51.3477V131.123H62.493V129.306Z" fill="#FFD997"/>
<path d="M22.736 131.394H11.5898C11.4404 131.394 11.3188 131.273 11.3188 131.123V129.306C11.3188 129.157 11.4396 129.035 11.5898 129.035H22.736C22.8854 129.035 23.0069 129.156 23.0069 129.306V131.123C23.0069 131.272 22.8862 131.394 22.736 131.394ZM11.8608 130.852H22.465V129.578H11.8608V130.852Z" fill="black"/>
<path d="M31.9588 139.756H11.5898C11.4404 139.756 11.3188 139.635 11.3188 139.485V137.669C11.3188 137.519 11.4396 137.398 11.5898 137.398H31.9588C32.1083 137.398 32.2298 137.519 32.2298 137.669V139.485C32.2298 139.635 32.109 139.756 31.9588 139.756ZM11.8608 139.215H31.6879V137.941H11.8608V139.215Z" fill="black"/>
<path d="M45.9264 139.756H39.5566C39.4072 139.756 39.2856 139.635 39.2856 139.485V137.669C39.2856 137.519 39.4064 137.398 39.5566 137.398H45.9264C46.0758 137.398 46.1974 137.519 46.1974 137.669V139.485C46.1974 139.635 46.0766 139.756 45.9264 139.756ZM39.8276 139.215H45.6554V137.941H39.8276V139.215Z" fill="black"/>
<path d="M53.805 139.756H47.436C47.2866 139.756 47.165 139.635 47.165 139.485V137.669C47.165 137.519 47.2858 137.398 47.436 137.398H53.805C53.9545 137.398 54.076 137.519 54.076 137.669V139.485C54.076 139.635 53.9552 139.756 53.805 139.756ZM47.707 139.215H53.534V137.941H47.707V139.215Z" fill="black"/>
<path d="M62.0223 139.756H55.6533C55.5039 139.756 55.3823 139.635 55.3823 139.485V137.669C55.3823 137.519 55.5031 137.398 55.6533 137.398H62.0223C62.1717 137.398 62.2933 137.519 62.2933 137.669V139.485C62.2933 139.635 62.1725 139.756 62.0223 139.756ZM55.9243 139.215H61.7513V137.941H55.9243V139.215Z" fill="black"/>
<path d="M49.2404 131.394H38.0942C37.9448 131.394 37.8232 131.273 37.8232 131.123V129.306C37.8232 129.157 37.944 129.035 38.0942 129.035H49.2404C49.3898 129.035 49.5113 129.156 49.5113 129.306V131.123C49.5113 131.272 49.3906 131.394 49.2404 131.394ZM38.3652 130.852H48.9694V129.578H38.3652V130.852Z" fill="black"/>
<path d="M35.9879 131.394H24.8418C24.6924 131.394 24.5708 131.273 24.5708 131.123V129.306C24.5708 129.157 24.6916 129.035 24.8418 129.035H35.9879C36.1373 129.035 36.2589 129.156 36.2589 129.306V131.123C36.2589 131.272 36.1381 131.394 35.9879 131.394ZM25.1128 130.852H35.7169V129.578H25.1128V130.852Z" fill="black"/>
<path d="M62.492 131.394H51.3467C51.1972 131.394 51.0757 131.273 51.0757 131.123V129.306C51.0757 129.157 51.1965 129.035 51.3467 129.035H62.492C62.6414 129.035 62.763 129.156 62.763 129.306V131.123C62.763 131.272 62.6422 131.394 62.492 131.394ZM51.6177 130.852H62.221V129.578H51.6177V130.852Z" fill="black"/>
<path d="M88.2415 30.7463C88.0526 30.7463 87.9295 30.5589 87.986 30.3901C88.8539 27.7677 89.7281 26.6056 89.7281 26.4801C89.7977 26.3563 89.975 26.3098 90.0989 26.3795C90.2484 26.46 90.2569 26.6559 90.1996 26.7504C88.3971 29.9364 88.7277 30.7463 88.2415 30.7463ZM91.834 24.1109C91.5955 24.1109 91.4848 23.8245 91.6172 23.6704C92.7647 22.2063 94.1304 20.8698 94.5369 20.5501C94.6376 20.4494 94.8149 20.4572 94.9155 20.5663C95.0193 20.6848 95.003 20.8505 94.9001 20.9535C94.6546 21.1331 93.2439 22.4749 92.0431 24.0033C91.9966 24.073 91.92 24.1109 91.834 24.1109ZM97.1531 18.4131C98.3222 17.5537 99.5456 16.8028 100.784 16.1679C100.934 16.0835 101.171 16.181 101.171 16.4002C101.202 16.8074 100.427 16.6766 97.4706 18.8545C97.1748 19.0504 96.8612 18.6308 97.1531 18.414V18.4131ZM103.981 15.3627C103.684 15.3627 103.603 14.9283 103.897 14.8362C105.26 14.3639 106.661 14.0309 108.055 13.8451C108.39 13.7778 108.499 14.3368 108.124 14.3794C105.566 14.7146 104.185 15.3627 103.981 15.3627ZM115.587 14.9678C115.329 14.9678 114.19 14.353 111.422 14.24C111.053 14.1997 111.106 13.6903 111.43 13.6903C112.894 13.6903 115.696 14.3159 115.696 14.449C115.945 14.5427 115.907 14.9678 115.587 14.9678Z" fill="black"/>
<path d="M139.912 49.4187L150.434 38.4452C150.66 38.2099 150.508 37.8197 150.186 37.7926C150.102 37.7848 141.762 36.9695 138.378 27.8868C134.397 17.2068 127.476 10.8161 127.406 10.7534C127.275 10.6326 127.077 10.6179 126.929 10.7193L112.923 20.3115C112.665 20.4849 112.707 20.879 113 20.9928C113.067 21.0184 119.641 23.6284 121.803 29.563C125.202 38.9206 128.671 47.9856 139.578 49.5348C139.701 49.5527 139.826 49.5085 139.912 49.4187Z" fill="#81F8F8"/>
<path d="M112.771 20.0871L126.775 10.4964C127.029 10.323 127.363 10.347 127.589 10.5545C127.657 10.6157 134.653 17.1201 138.631 27.7932C141.936 36.6638 150.128 37.5162 150.21 37.524C150.749 37.5681 151.017 38.2293 150.628 38.6343L140.106 49.607C139.959 49.7603 139.746 49.8338 139.537 49.8028C128.284 48.2056 124.859 38.7752 121.548 29.656C119.439 23.8646 112.965 21.2717 112.901 21.2461C112.409 21.0572 112.329 20.3852 112.771 20.0886L112.771 20.0871ZM150.164 38.0629C150.076 38.0551 141.55 37.1794 138.124 27.9821C134.15 17.3214 127.293 11.0175 127.225 10.9548C127.185 10.9184 127.125 10.9137 127.082 10.9432L113.077 20.5354C112.995 20.5903 113.013 20.7072 113.098 20.7398C113.167 20.7669 119.864 23.4481 122.058 29.4702C125.316 38.4391 128.684 47.7139 139.616 49.2655C139.71 49.2802 139.658 49.2717 150.239 38.258C150.309 38.1852 150.256 38.0706 150.165 38.0629H150.164Z" fill="black"/>
<path fill-rule="evenodd" clip-rule="evenodd" d="M126.751 12.6131L115.872 20.2403C115.872 20.2403 121.837 23.5099 123.827 29.1558C125.817 34.8016 128.726 45.6125 138.922 47.3089L147.576 38.923C147.576 38.923 139.997 37.0477 136.896 28.4396C133.366 18.6438 126.751 12.6131 126.751 12.6131Z" fill="white"/>
<path d="M125.116 23.9987C126.595 24.2371 127.493 22.4517 126.601 21.1061C125.954 20.1313 126.561 18.8886 127.548 19.0481C128.621 19.2231 129.099 20.8297 128.233 21.504C127.953 21.7231 128.282 22.1536 128.567 21.9314C129.239 21.4073 129.409 20.386 128.992 19.5583L129.701 19.0048C129.983 18.7825 129.65 18.3575 129.367 18.5774L128.687 19.1085C128.403 18.7903 128.032 18.5774 127.636 18.5139C126.163 18.2746 125.255 20.0562 126.15 21.4057C126.565 22.0298 126.485 22.8683 125.97 23.2709C124.777 24.1992 123.29 21.9663 124.518 21.0077C124.801 20.7848 124.466 20.3612 124.184 20.5804C123.534 21.0875 123.33 22.0963 123.759 22.9534L123.05 23.507C122.77 23.7261 123.101 24.1551 123.384 23.9344L124.064 23.4033C124.348 23.7215 124.719 23.9344 125.116 23.9987Z" fill="black"/>
<path d="M135.668 41.979C137.156 42.1563 137.979 40.3361 137.034 39.0276C136.349 38.0799 136.903 36.8132 137.896 36.9332C138.975 37.0641 139.519 38.6497 138.68 39.359C138.41 39.5889 138.755 40.0062 139.031 39.7724C139.682 39.2211 139.81 38.1945 139.358 37.3838L140.044 36.8016C140.317 36.5678 139.967 36.1567 139.694 36.3882L139.035 36.9464C138.738 36.6398 138.358 36.4424 137.96 36.3951C136.478 36.2155 135.643 38.0334 136.593 39.3458C137.034 39.952 136.988 40.7937 136.49 41.2164C135.336 42.1919 133.76 40.0225 134.947 39.0144C135.221 38.7798 134.869 38.3702 134.597 38.601C133.968 39.1344 133.804 40.151 134.268 40.9895L133.582 41.5718C133.311 41.8017 133.66 42.2167 133.933 41.9852L134.591 41.427C134.889 41.7336 135.268 41.931 135.667 41.979H135.668Z" fill="black"/>
<path fill-rule="evenodd" clip-rule="evenodd" d="M134.559 28.768C135.029 29.4431 134.154 31.1108 132.603 32.496C131.052 33.8811 129.414 34.4564 128.942 33.7812C128.471 33.1061 129.346 31.436 130.897 30.0509C132.448 28.6658 134.087 28.0928 134.558 28.768H134.559Z" fill="#FFD997"/>
<path d="M134.781 28.6109C135.42 29.5284 134.232 31.4044 132.784 32.6974C131.719 33.6482 129.487 35.0356 128.72 33.9362C127.407 32.0408 133.439 26.6845 134.781 28.6109ZM134.336 28.9206C133.868 28.2501 131.924 29.4974 131.078 30.2523C129.573 31.5972 128.831 33.148 129.165 33.6257C129.633 34.297 131.578 33.0489 132.423 32.294C133.273 31.5345 134.819 29.612 134.336 28.9206Z" fill="black"/>
<path d="M147.764 39.1182C147.897 38.9889 147.863 38.7164 147.641 38.6599C147.566 38.6421 140.164 36.7103 137.151 28.3476C133.639 18.6013 127.001 12.4731 126.933 12.412C126.84 12.3268 126.699 12.3175 126.596 12.3903L115.717 20.0174C115.549 20.1351 115.57 20.3837 115.742 20.4774C115.8 20.5099 121.64 23.7664 123.572 29.245C123.721 29.6669 123.875 30.1183 124.037 30.5929C126.771 38.608 130.303 46.1484 138.877 47.5754C139.087 47.6095 138.96 47.6613 147.764 39.1182ZM147.058 39.0478L145.121 40.9246C144.766 40.755 143.933 40.2603 144.041 39.3854C144.091 38.9804 144.816 38.5375 145.32 38.3223C146.063 38.687 146.673 38.9177 147.058 39.0478ZM128.291 14.6116C127.025 15.4935 125.883 15.2364 125.053 14.1355L126.726 12.9625C126.984 13.2126 127.546 13.7731 128.291 14.6116ZM116.374 20.2203L117.987 19.0899C119.558 19.5754 119.669 20.5432 118.61 21.8021C117.652 21.0302 116.829 20.4967 116.374 20.2203ZM124.55 30.4195C124.387 29.9434 124.233 29.4904 124.083 29.0661C123.013 26.0311 120.849 23.6905 119.028 22.1474C120.172 20.7847 120.195 19.395 118.529 18.709L124.608 14.4475C125.588 15.7691 127.082 16.1423 128.651 15.0212C130.882 17.6018 134.403 22.3224 136.642 28.5319C138.553 33.8378 142.184 36.636 144.721 38.0118C144.238 38.2712 143.577 38.728 143.505 39.3188C143.396 40.2076 143.935 40.8859 144.713 41.321L140.21 45.6839C139.131 44.2507 137.556 44.0982 136.086 46.2576C129.018 43.5106 126.371 35.7533 124.551 30.4187L124.55 30.4195ZM136.611 46.4512C137.641 44.9964 138.789 44.6433 139.816 46.0656L138.832 47.0187C138.048 46.8817 137.309 46.6904 136.611 46.4512Z" fill="black"/>
</svg>
