<svg width="155" height="154" viewBox="0 0 155 154" fill="none" xmlns="http://www.w3.org/2000/svg">
<path d="M55.8499 109.938C55.4712 109.764 55.1031 109.568 54.7473 109.352C52.8418 108.774 50.8069 108.783 48.9062 109.375C48.847 109.39 48.7844 109.382 48.7314 109.352C48.7051 109.337 48.6821 109.316 48.6638 109.292C48.6455 109.268 48.6322 109.241 48.6248 109.211C48.617 109.182 48.6151 109.152 48.6192 109.122C48.6233 109.092 48.6332 109.063 48.6484 109.037C48.6637 109.01 48.6839 108.987 48.708 108.969C48.7321 108.951 48.7596 108.938 48.7889 108.93C50.6312 108.367 52.5909 108.31 54.4628 108.765C52.5283 102.961 52.0238 94.3501 53.1026 89.3877C51.6581 88.8625 51.3744 88.7521 51.4365 88.5665C51.4602 88.4239 51.5814 88.2959 51.9057 88.4254C52.1288 88.5374 53.1195 88.874 53.407 88.989C53.611 88.989 58.7037 91.195 64.5249 90.6759C68.7489 90.3009 72.095 88.9323 72.736 84.7405C73.0094 82.9003 72.7233 81.0204 71.9148 79.3448C71.9148 79.1332 70.9418 80.9704 69.3577 80.2826C68.8968 80.021 68.5472 79.6002 68.3744 79.0992C68.2017 78.5983 68.2176 78.0515 68.4192 77.5614C67.4039 77.5942 66.406 77.8337 65.4864 78.2653C63.17 79.331 63.5419 79.9843 63.1409 79.7436C62.4638 79.3372 64.9811 77.5108 67.6448 77.1627C66.2884 73.6671 67.4638 69.7474 63.8448 66.1836C61.0078 63.3903 56.76 63.0867 53.006 63.5329C53.0765 64.0375 53.108 64.5474 53.1003 65.0572C53.1003 65.1195 53.0756 65.1791 53.0316 65.2231C52.9876 65.2672 52.9279 65.2919 52.8657 65.2919C52.8035 65.2919 52.7438 65.2672 52.6998 65.2231C52.6558 65.1791 52.6311 65.1195 52.6311 65.0572C52.7024 57.1597 44.7581 59.7789 46.0148 65.3156C46.2655 66.4198 46.7639 67.6657 47.8688 68.1311C48.1494 68.2492 47.914 68.6502 47.6342 68.5298C47.109 68.2384 46.6568 67.8317 46.3115 67.3403C45.9662 66.849 45.7368 66.2857 45.6406 65.6929C45.5639 65.7696 31.5409 71.4236 22.2747 88.0497C15.0588 100.997 11.804 120.66 17.3246 133.303C25.7151 152.518 54.2052 150.938 57.769 147.802C58.9514 146.619 60.8575 138.563 59.5525 136.846C58.8226 135.886 57.5336 137.057 57.0652 137.667C55.7617 139.371 54.5978 143.264 54.4851 144.165C54.4145 144.472 53.9744 144.331 54.0388 144.048C54.1415 143.604 54.2504 143.18 54.3677 142.758C55.9817 135.122 50.524 127.252 42.3559 127.298C40.228 127.312 38.1342 127.834 36.249 128.821C34.3638 129.808 32.7417 131.231 31.5179 132.972C31.3538 133.23 30.9512 132.993 31.1191 132.737C38.0567 122.147 55.4642 126.361 55.0946 140.385C57.4853 133.812 62.184 134.368 59.7633 143.623C59.1431 146.654 58.3909 147.019 59.1768 146.438C71.8381 137.083 69.4673 117.317 55.8499 109.938Z" fill="white"/>
<path d="M60.7533 63.7223C61.7125 58.6089 56.5898 58.0637 56.7662 62.8789C58.1295 62.9602 59.4736 63.2447 60.7533 63.7223Z" fill="white"/>
<path d="M77.3329 132.197C75.0603 131.834 73.5314 136.574 72.8858 139.941C72.8267 140.248 72.3698 140.105 72.4403 139.824C72.8214 138.376 73.0184 136.886 73.0269 135.39C72.9734 133.368 72.4493 131.387 71.4963 129.603C70.5433 127.82 69.1877 126.283 67.5369 125.115C69.0053 132.456 67.0416 139.933 61.3677 145.22C64.6432 145.567 67.9464 145.559 71.2204 145.197C70.8593 145.197 75.5142 144.683 76.3346 143.343C77.5323 141.384 79.591 132.556 77.3329 132.197Z" fill="#FFE55D"/>
<path d="M50.314 88.1441C49.2942 87.635 50.5149 91.6543 52.5421 94.4782C52.602 92.7555 52.7813 91.0389 53.0789 89.341C51.6527 88.8211 51.3537 88.4999 50.314 88.1441Z" fill="#FFE55D"/>
<path d="M67.3466 99.5219C67.0898 99.689 66.8574 99.2919 67.112 99.1232C67.9126 98.5918 68.5752 97.8774 69.045 97.0392C69.3593 96.4656 69.5211 96.0332 69.242 95.6751C69.111 95.5018 68.9461 95.357 68.7573 95.2495C68.5686 95.1419 68.3599 95.0739 68.144 95.0494C67.6966 96.4545 66.8287 97.6883 65.6575 98.5842C65.4022 98.7528 65.1668 98.3541 65.4229 98.1847C66.509 97.4756 67.3073 96.403 67.6748 95.1591C65.8522 95.3247 63.8135 97.3627 62.5376 97.1296C61.3875 96.9195 59.9199 96.3629 58.9017 97.2469C57.8596 98.1479 58.0682 99.4667 56.8138 101.423C56.1181 102.641 55.0487 103.604 53.7637 104.168C54.0878 105.798 54.495 107.41 54.9836 108.998C56.0944 109.54 57.1611 110.167 58.174 110.875C60.2879 110.981 61.9932 109.392 62.2094 106.746C62.3382 105.17 62.1542 103.687 63.9691 102.336C65.3868 101.28 67.2661 101.395 68.8717 98.9576C69.3037 98.3359 69.548 97.6032 69.5756 96.8467C69.1176 97.9417 68.341 98.8738 67.3466 99.5219Z" fill="#FFE55D"/>
<path d="M25.1177 111.862C28.5933 119.418 40.5715 117.179 39.8508 108.105C38.0129 115.075 29.9965 116.469 25.1177 111.862Z" fill="#FFE55D"/>
<path d="M59.7442 78.8074C60.8015 78.8074 60.8015 76.7901 59.7442 76.7901C59.6675 76.7901 59.6905 76.8146 59.7442 76.6252C59.9221 76.4481 59.9022 76.5148 59.9788 76.4382C60.0066 76.4228 60.031 76.402 60.0507 76.3772C60.0705 76.3523 60.0851 76.3238 60.0938 76.2933C60.1026 76.2628 60.1052 76.2309 60.1016 76.1994C60.098 76.1679 60.0882 76.1373 60.0728 76.1096C60.0573 76.0819 60.0366 76.0574 60.0118 76.0377C59.9869 76.018 59.9584 76.0033 59.9279 75.9946C59.8974 75.9859 59.8655 75.9832 59.834 75.9869C59.8024 75.9905 59.7719 76.0003 59.7442 76.0157C59.7442 76.0924 58.9468 76.2104 58.9468 77.7516C58.9452 78.3619 59.2987 78.8074 59.7442 78.8074Z" fill="#4B1010"/>
<path d="M65.375 76.9074C66.3579 76.9074 66.404 75.0304 65.3282 75.0304C65.3949 74.8318 65.3765 74.772 65.6571 74.6317C65.7098 74.5974 65.7482 74.5452 65.7654 74.4847C65.7826 74.4243 65.7774 74.3597 65.7507 74.3028C65.5153 73.911 64.4472 74.7314 64.6236 76.0548C64.6834 76.5064 64.9264 76.9074 65.375 76.9074Z" fill="#4B1010"/>
<path d="M37.0599 98.9124C35.3631 97.9156 35.2764 99.7351 33.5405 96.8951C32.6258 95.6046 31.1007 93.3281 29.2245 94.338C28.0038 94.9943 27.7585 96.6382 27.9103 97.8803C28.253 100.677 29.9958 101.614 30.8193 103.041C32.0131 105.112 30.8431 106.772 30.8431 106.537C30.6552 106.772 30.9865 107.102 31.1713 106.865C31.6079 106.241 31.8382 105.496 31.8298 104.734C31.8214 103.972 31.5748 103.232 31.1245 102.618C30.5579 101.729 29.7443 101.045 29.2007 100.132C28.434 98.838 27.9471 97.0645 28.6141 95.6506C28.8687 95.1139 28.3013 96.7241 29.5059 98.8878C29.5287 98.9278 29.5629 98.9601 29.6042 98.9804C29.6455 99.0007 29.6919 99.0081 29.7375 99.0018C29.7831 98.9954 29.8257 98.9755 29.8599 98.9447C29.894 98.9139 29.9182 98.8735 29.9291 98.8288C29.9368 98.7994 29.9385 98.7687 29.9343 98.7386C29.9301 98.7084 29.92 98.6794 29.9046 98.6532C29.2304 97.5087 28.9967 96.1576 29.2475 94.8532C29.2475 94.7765 29.5749 94.6339 29.7405 94.5718C30.0732 94.4812 30.4259 94.4976 30.7488 94.6186C30.4706 96.0498 30.7207 97.5333 31.4527 98.7943C31.596 99.0512 31.9947 98.8165 31.8514 98.5597C31.2069 97.4386 30.9747 96.1274 31.195 94.8532C32.2156 95.4666 33.1679 97.1849 33.9392 98.1847C35.0993 99.9889 36.4611 97.6342 38.5144 101.141C41.1114 105.575 39.3578 111.193 35.2534 113.245C31.3284 115.208 26.1974 113.087 24.4423 110.172C24.2713 109.889 23.8342 110.198 24.0666 110.43C25.0677 111.885 26.4695 113.018 28.102 113.691C38.1226 118.134 44.6216 104.206 37.0599 98.9124Z" fill="#4B1010"/>
<path d="M61.5749 84.2729C62.0705 84.2729 62.0705 83.6601 61.5749 83.6601C61.0792 83.6601 61.0792 84.2729 61.5749 84.2729Z" fill="#4B1010"/>
<path d="M64.2725 83.4489C64.7284 83.563 64.8915 82.9823 64.4135 82.8628C63.9354 82.7433 63.8313 83.3416 64.2725 83.4489Z" fill="#4B1010"/>
<path d="M63.5916 85.4693C63.9034 85.3444 63.7601 84.9675 63.4514 85.0709C63.0913 85.2127 63.3502 85.5658 63.5916 85.4693Z" fill="#4B1010"/>
<path d="M77.9733 132.037C77.0631 131.397 75.9069 132.176 75.2988 132.881C74.4936 133.898 73.874 135.05 73.4686 136.283C73.5492 133.951 73.0308 131.638 71.963 129.564C70.8952 127.49 69.3136 125.725 67.3691 124.436C66.145 119.207 63.1331 114.569 58.8536 111.324C59.3705 111.279 59.8731 111.131 60.3323 110.89C60.7915 110.648 61.1979 110.318 61.528 109.917C63.4871 107.535 62.0801 105.071 63.5921 103.349C64.8151 101.955 65.8395 102.14 67.5102 101.048C71.5165 98.4323 70.5557 93.2628 66.5012 94.9957C62.6413 96.6457 63.8367 96.9563 61.9973 96.5208C56.0596 95.1153 58.7961 101.593 53.7394 103.7C52.8722 99.0202 52.8245 94.2255 53.5983 89.5295C60.5711 91.8934 71.2887 92.6226 73.0461 85.5425C73.6442 83.2782 73.3329 80.8699 72.1782 78.8326C73.4816 75.9627 70.0558 74.2682 68.6128 77.0967C68.4481 77.0928 68.2833 77.1007 68.1198 77.1205C66.7089 73.5068 67.9994 66.8391 61.2696 63.9362C62.4665 57.6865 55.9791 57.8022 56.39 62.9042C55.2458 62.8634 54.1002 62.9175 52.965 63.066C51.7619 57.2011 44.8658 59.5037 45.552 64.8954C45.6517 65.3954 45.7307 65.1255 44.4019 65.8109C36.181 70.1434 29.1908 76.4867 24.0831 84.2497C14.58 98.8371 12.1471 118.547 15.7079 130.255C18.9405 140.883 27.5235 147.111 38.2503 149.209C43.4473 150.227 56.745 151.159 58.6136 147.497C59.4581 146.932 60.2652 146.313 61.0296 145.644C64.7806 146.044 74.2875 146.363 76.6537 143.881C77.8766 142.424 80.2904 133.671 77.9733 132.037ZM56.811 101.376C57.9971 99.5257 57.9189 98.0466 58.8988 97.1993C59.9171 96.3191 61.3854 96.8719 62.5348 97.082C63.8313 97.3197 65.3986 95.491 67.672 95.1115C67.3036 96.3552 66.5055 97.4277 65.42 98.1378C65.1639 98.3058 65.3924 98.719 65.6547 98.5365C66.8529 97.7138 67.7325 96.5048 68.1466 95.1115C68.358 95.1042 68.5678 95.1514 68.7557 95.2485C68.9437 95.3455 69.1036 95.4893 69.22 95.6658C69.8388 96.4633 68.0561 98.4476 67.1123 99.0763C66.8577 99.2458 67.0847 99.6575 67.3469 99.475C68.3228 98.8069 69.0941 97.8811 69.5751 96.8006C69.5613 97.5598 69.3157 98.2966 68.8712 98.9123C67.2349 101.351 65.3257 101.28 63.9686 102.291C62.1107 103.671 62.3484 105.238 62.2089 106.701C61.9467 109.451 60.1954 110.933 58.1735 110.83C57.1623 110.119 56.0953 109.492 54.9831 108.953C54.4749 107.37 54.0675 105.757 53.7631 104.122C55.0524 103.565 56.1234 102.6 56.8125 101.376H56.811ZM58.6389 59.6409C60.6969 59.5175 61.1224 61.7625 60.7505 63.7461C59.4747 63.2585 58.1281 62.9812 56.7634 62.9249C56.722 61.6115 57.0471 59.736 58.6389 59.6409ZM59.1319 146.441C58.3414 147.046 59.1273 146.582 59.7185 143.627C62.1008 134.518 57.5386 133.7 55.0498 140.389C55.417 126.441 38.0624 122.073 31.0743 132.741C30.9064 132.997 31.3089 133.233 31.473 132.976C32.6877 131.226 34.3078 129.796 36.1951 128.808C38.0824 127.82 40.1807 127.303 42.311 127.302C50.46 127.256 55.9246 135.123 54.3229 142.762C54.2056 143.184 54.0929 143.631 53.9939 144.052C53.9272 144.334 54.3927 144.474 54.4402 144.169C54.9662 142.064 55.6356 139.51 57.0203 137.671C57.4942 137.041 58.7716 135.87 59.5069 136.849C60.5259 138.206 59.5467 143.267 58.7171 145.828C58.5196 146.525 58.2045 147.183 57.7855 147.774C57.3592 148.227 56.3134 148.815 53.3384 149.308C45.3741 150.616 35.0092 149.133 27.5856 144.776C15.6243 137.762 13.5541 124.895 15.1451 111.166C17.7413 88.7352 31.1824 72.3045 45.6394 65.8792C45.7483 65.7703 45.9101 67.8137 47.5962 68.5321C47.8768 68.651 48.1122 68.2515 47.8308 68.1334C46.7267 67.668 46.2398 66.4197 46.0013 65.3179C44.7899 59.7206 52.6882 57.1957 52.6169 65.0595C52.6148 65.0909 52.6195 65.1223 52.6306 65.1517C52.6417 65.181 52.6589 65.2077 52.6811 65.2299C52.7033 65.2521 52.73 65.2693 52.7594 65.2804C52.7887 65.2915 52.8201 65.2962 52.8515 65.2941C53.1183 65.2941 53.0547 65.0595 53.0861 65.0595C53.089 64.5499 53.0578 64.0407 52.9926 63.5352C56.7458 63.089 60.999 63.4102 63.8306 66.1859C67.4519 69.7367 66.2842 73.6908 67.6313 77.165C64.8181 77.5322 62.4297 79.4652 63.1267 79.7458C63.5821 79.9275 63.1267 79.3187 65.4729 78.2675C66.3981 77.8528 67.3924 77.6141 68.405 77.5637C68.2039 78.0538 68.1882 78.6004 68.361 79.1013C68.5337 79.6021 68.883 80.0229 69.3435 80.2849C70.7857 80.9197 71.8239 79.3471 71.9006 79.3471C72.7087 81.0228 72.9947 82.9025 72.7218 84.7427C71.5065 92.6356 59.8795 91.3897 52.1729 88.5427C51.8516 88.4247 51.4828 88.1946 51.4223 88.5665C51.3709 88.7705 51.5864 88.8418 53.0876 89.3877C51.0642 98.6945 54.4486 108.622 54.4486 108.765C52.5765 108.312 50.6174 108.369 48.7747 108.93C48.7453 108.937 48.7177 108.951 48.6935 108.969C48.6693 108.987 48.649 109.01 48.6337 109.036C48.6184 109.062 48.6085 109.091 48.6045 109.121C48.6006 109.151 48.6026 109.182 48.6106 109.211C48.6183 109.241 48.6316 109.268 48.6499 109.292C48.6682 109.316 48.6911 109.336 48.7172 109.352C48.7434 109.367 48.7723 109.377 48.8023 109.381C48.8322 109.385 48.8627 109.383 48.892 109.375C50.6694 108.845 52.5558 108.796 54.3581 109.234C54.8673 109.433 55.3611 109.668 55.8364 109.938C69.6947 117.493 71.4436 137.037 59.135 146.441H59.1319ZM77.8759 138.418C77.5555 140.121 77.0196 141.777 76.281 143.345C74.8764 145.786 64.4532 145.65 61.3133 145.222C63.9945 142.691 65.9727 139.508 67.0543 135.984C68.1358 132.46 68.2837 128.715 67.4834 125.117C69.128 126.291 70.4791 127.829 71.4314 129.611C72.3837 131.393 72.9114 133.371 72.9733 135.391C72.9888 136.889 72.7913 138.382 72.3867 139.825C72.3162 140.132 72.8851 140.235 72.9395 139.931C74.7061 130.15 79.815 129.726 77.8789 138.418H77.8759Z" fill="#4B1010"/>
<path d="M125.538 80.5993L96.576 54.6908C83.0997 54.6908 83.4286 54.822 83.0866 54.48C69.7337 41.1248 67.4457 38.757 59.7437 31.055H39.1933C38.9878 31.055 39.0622 31.1463 22.0442 14.1291L20.6641 15.5092L21.4385 16.2836C37.4704 32.3156 37.3869 32.2949 37.508 32.2949H56.8117C58.3605 32.2949 57.9618 32.071 58.8052 32.9159C81.8276 55.9552 81.7264 55.9828 81.8031 56.0212C81.8031 56.0212 94.7742 55.8962 95.0794 56.084C95.3607 56.3187 124.05 82.083 124.05 82.083L125.538 80.5993Z" fill="#FFE55D"/>
<path d="M119.59 87.112C118.884 87.8174 118.494 88.1548 118.328 88.325C118.114 88.5451 118.277 88.486 118.62 88.5842L140.419 92.0936L140.399 90.8422L119.59 87.112Z" fill="#FFE55D"/>
<path d="M136.693 69.9868L130.176 76.5317C129.884 76.8239 100.613 45.4539 100.546 45.3772H88.2242C86.9782 45.4807 87.7687 45.884 79.7554 37.8699C63.7472 21.8618 63.7089 21.8794 63.7089 21.8027H43.6508C42.6133 21.8027 43.3019 22.1577 26.0799 4.93425C23.243 11.6149 22.3627 13.8017 22.3995 13.8017L39.1936 30.5743C59.7885 30.5743 59.7785 30.5345 60.0492 30.7146C60.1259 30.7729 60.0684 30.7338 82.2658 52.9312C83.7433 54.4095 83.3998 54.1979 83.9311 54.1979C96.561 54.1979 96.5932 54.1795 96.6699 54.1979C97.0579 54.2914 96.7466 54.1212 125.994 80.3793C126.25 80.6346 126.088 80.6254 119.919 86.7939C119.995 86.8046 140.358 90.4329 140.358 90.4329L136.693 69.9868Z" fill="white"/>
<path d="M140.846 91.9923C140.864 89.9697 141.247 91.5545 137.089 69.4231C136.983 68.8634 136.847 69.1969 130.051 75.9918C100.617 44.677 101.029 44.7936 100.398 44.8848C87.5489 44.8848 87.6187 44.9377 87.542 44.8611C87.4546 44.8611 64.0795 21.5043 64.012 21.4484C63.7053 21.1892 43.1319 21.3065 43.1097 21.2843C43.0575 21.2076 39.3173 17.5142 39.1678 17.3662C25.7213 3.97876 26.2435 4.24406 26.0096 4.55766C25.7796 4.85899 25.8563 4.71101 41.5164 20.3688C42.9456 21.9667 42.9203 21.8026 43.651 21.8026H63.7091C63.7091 21.8793 63.7252 21.8417 86.7706 44.8871C87.2307 45.3472 87.1801 45.4668 88.2275 45.3794C89.0878 45.3794 100.538 45.4422 100.538 45.4422C100.538 45.4422 129.763 76.9426 130.174 76.5339L136.691 70.012L140.305 90.35C138.828 90.0732 140.305 90.3661 119.966 86.7608L125.971 80.7556C126.218 80.508 126.538 80.932 118.699 73.8817C96.9592 54.3296 97.0052 54.3572 96.9285 54.2928C96.7276 54.1587 96.9224 54.1993 83.5288 54.1939C60.0586 30.7253 60.1261 30.7736 60.0494 30.7145C59.7573 30.5205 60.0494 30.621 39.1939 30.621C26.1982 17.6254 23.1865 14.3391 22.4021 13.7525C22.0954 13.5225 21.7925 13.8652 22.0348 14.1589C23.6902 16.1662 38.9546 31.0657 39.0283 31.104H59.7443L83.1102 54.5052C83.4445 54.8395 83.1554 54.7168 95.5676 54.7168C95.8934 54.7398 96.2216 54.7398 96.5475 54.7168C96.6034 54.7935 96.6954 54.8388 125.454 80.5923L124.069 81.9725C114.446 73.3357 104.82 64.7026 95.1903 56.0732C95.0124 55.9321 95.175 55.9797 81.8136 55.9743C73.5327 47.7548 78.9851 53.1458 58.828 32.9182C57.9976 32.0847 58.4745 32.3086 56.8345 32.3086C37.4871 32.3086 37.5185 32.3853 37.4794 32.3086C37.4794 32.2319 36.5478 31.3816 33.1159 27.9688L20.6608 15.5153C20.6173 15.4718 20.5582 15.4473 20.4967 15.4473C20.4352 15.4473 20.3761 15.4718 20.3326 15.5153C20.2891 15.5588 20.2646 15.6178 20.2646 15.6794C20.2646 15.7409 20.2891 15.7999 20.3326 15.8434L37.0355 32.5448C37.3958 32.9565 37.0761 32.8032 58.0789 32.8032L81.4448 56.1691C81.7914 56.5149 81.477 56.3799 94.9327 56.3792C95.0462 56.5448 94.8614 56.4558 123.735 82.3075C119.562 86.481 118.126 87.8366 117.72 88.3411C117.524 88.5841 117.471 88.7314 118.052 88.8249C134.607 91.484 139.283 92.3075 140.505 92.3711C141.016 92.3972 140.845 92.0368 140.846 91.9923ZM140.376 92.0154C118.31 88.4952 118.354 88.4837 118.276 88.473L119.567 87.135L140.141 90.7955C140.451 90.8576 140.374 90.6183 140.374 92.0154H140.376Z" fill="#4B1010"/>
<path d="M63.3575 11.9707L80.272 28.3921C80.4836 28.6037 80.8133 28.2733 80.6009 28.064C63.8482 11.5543 64.0606 11.9492 63.7324 11.6655C63.3928 11.3281 63.1466 11.9707 63.3575 11.9707Z" fill="#4B1010"/>
<path d="M76.1202 59.9929C76.3564 60.2291 76.6846 59.9009 76.4722 59.6862L59.5799 43.2655C59.5584 43.2438 59.5327 43.2265 59.5045 43.2147C59.4762 43.2029 59.4459 43.1968 59.4153 43.1968C59.3847 43.1967 59.3544 43.2027 59.3261 43.2145C59.2978 43.2262 59.2721 43.2434 59.2505 43.265C59.2289 43.2867 59.2117 43.3124 59.2001 43.3408C59.1884 43.3691 59.1825 43.3994 59.1826 43.43C59.1827 43.4606 59.1889 43.4909 59.2008 43.5192C59.2126 43.5474 59.23 43.573 59.2518 43.5945C75.9876 60.0965 75.8902 59.7951 76.1202 59.9929Z" fill="#4B1010"/>
<path d="M117.596 53.0952C117.629 53.1273 117.67 53.149 117.715 53.1577C117.76 53.1665 117.806 53.1618 117.849 53.1443C117.891 53.1268 117.927 53.0973 117.953 53.0594C117.978 53.0215 117.992 52.9769 117.992 52.9311C117.992 52.9006 117.986 52.8705 117.975 52.8423C117.963 52.8141 117.946 52.7886 117.924 52.7671L109.455 44.5797C109.423 44.5473 109.382 44.5252 109.337 44.5163C109.292 44.5074 109.245 44.512 109.203 44.5295C109.16 44.5471 109.124 44.5768 109.098 44.6149C109.073 44.6531 109.059 44.6979 109.059 44.7438C109.059 44.8051 109.084 44.8642 109.127 44.9079L117.596 53.0952Z" fill="#4B1010"/>
<path d="M51.6742 14.1291C51.7178 14.1727 51.777 14.1972 51.8387 14.1972C51.8692 14.1972 51.8995 14.1912 51.9277 14.1795C51.9559 14.1678 51.9816 14.1507 52.0032 14.1291C52.0248 14.1075 52.0419 14.0819 52.0536 14.0536C52.0653 14.0254 52.0713 13.9952 52.0713 13.9646C52.0713 13.9341 52.0653 13.9038 52.0536 13.8756C52.0419 13.8474 52.0248 13.8218 52.0032 13.8002L43.5106 5.58982C43.299 5.40196 42.9739 5.73013 43.2039 5.91799L51.6742 14.1291Z" fill="#4B1010"/>
<path d="M34.9243 39.6764C34.9679 39.7196 35.0268 39.7438 35.0882 39.7437C35.1496 39.7436 35.2085 39.7192 35.252 39.6758C35.2954 39.6325 35.32 39.5737 35.3202 39.5123C35.3204 39.4509 35.2964 39.3919 35.2532 39.3482L26.7607 31.1838C26.7161 31.146 26.6588 31.1263 26.6003 31.1288C26.5418 31.1312 26.4864 31.1556 26.445 31.1971C26.4037 31.2385 26.3794 31.294 26.3771 31.3525C26.3748 31.411 26.3946 31.4682 26.4326 31.5128C26.4356 31.4353 26.0898 30.9914 34.9243 39.6764Z" fill="#4B1010"/>
<path d="M88.647 83.8777V86.5491C88.9629 86.7984 89.3542 86.9329 89.7567 86.9307C90.1591 86.9285 90.5489 86.7896 90.8621 86.5368C90.8621 83.4307 91.1182 85.708 88.647 83.8777Z" fill="white"/>
<path d="M103.965 112.308C103.015 112.663 101.995 112.791 100.986 112.683C100.925 113.968 101.237 115.362 101.523 113.786C101.526 113.755 101.535 113.725 101.55 113.698C101.564 113.67 101.584 113.646 101.608 113.627C101.632 113.607 101.66 113.592 101.689 113.583C101.719 113.574 101.75 113.571 101.781 113.574C101.812 113.577 101.842 113.587 101.869 113.601C101.896 113.616 101.92 113.636 101.94 113.66C101.96 113.684 101.974 113.711 101.983 113.741C101.992 113.77 101.995 113.802 101.992 113.832C101.992 117.082 102.268 114.56 102.344 114.56C102.343 114.5 102.361 114.441 102.395 114.391C102.428 114.34 102.476 114.301 102.532 114.279C102.928 114.202 102.741 114.694 103.145 115.499C103.222 115.499 103.356 114.833 103.356 114.655C103.356 114.373 103.433 114.327 103.567 114.327C103.797 114.289 103.797 114.451 103.966 114.96C104.143 115.314 104.107 115.223 104.107 115.124C104.135 114.183 104.087 113.242 103.965 112.308Z" fill="white"/>
<path d="M91.5087 84.4375C95.7933 84.5962 98.2561 79.1999 95.7311 75.3584C92.4234 75.0303 91.8606 72.5437 91.8606 72.5437C91.8606 72.5437 91.8131 73.1517 89.749 73.6938C87.9655 74.1615 87.2187 77.0484 87.0278 77.8228C87.3 78.3679 87.1382 78.4561 87.2156 78.4561C87.2307 78.5153 87.2222 78.5779 87.1919 78.6309C87.1605 78.6835 87.1099 78.7217 87.0508 78.7375C86.521 78.8433 86.9051 77.4808 85.7373 77.3068C83.5322 76.9778 84.0091 80.7809 86.3944 80.6613C86.258 80.2196 85.8577 78.5267 86.3477 78.5267C87.0002 78.5267 85.975 80.5539 88.2009 82.9132C89.0595 83.8374 90.2483 84.3852 91.5087 84.4375Z" fill="white"/>
<path d="M101.11 94.0724C99.262 90.1712 97.8014 87.3112 93.8013 86.5682C93.2331 89.3705 92.2048 92.0593 90.758 94.5255C89.8878 94.1284 87.0117 90.4878 85.5119 86.651C79.4132 87.1387 72.6666 97.43 74.1249 104.637C74.5 106.298 75.3828 107.801 76.6508 108.938C77.9187 110.075 79.5091 110.789 81.2013 110.981C86.1483 111.295 90.3164 111.978 97.3927 110.21C98.0444 110.21 98.5589 109.584 98.9339 108.677C99.5664 111.59 99.2981 112.28 101.878 112.28C102.989 112.221 104.846 111.74 105.473 111.054C106.398 109.55 104.066 100.318 101.11 94.0724Z" fill="white"/>
<path d="M89.7961 87.5344L87.6377 90.2088C88.4291 91.6013 89.4258 92.8665 90.5943 93.962C91.2115 92.7876 91.7674 91.5819 92.2597 90.3499C92.3463 90.1766 92.6277 90.5584 89.7961 87.5344Z" fill="#FFE55D"/>
<path d="M90.2427 87.3466L92.4946 89.7626C92.9119 88.7399 93.1954 87.6675 93.338 86.5722L91.274 85.9626C91.3468 86.6128 91.379 87.0629 90.2427 87.3466Z" fill="#FFE55D"/>
<path d="M88.3652 86.8994C88.1558 86.7338 88.2011 86.4931 88.2011 85.8198C87.3836 85.9617 86.5873 86.2062 85.8311 86.5475C86.2785 87.6505 86.7959 88.7238 87.3799 89.7609L89.3267 87.3449C88.9719 87.2858 88.6396 87.1319 88.3652 86.8994Z" fill="#FFE55D"/>
<path d="M90.8656 84.7771C88.3936 84.3409 88.6704 83.2904 88.6704 84.3439C88.9004 84.7435 89.2169 85.0865 89.5968 85.3477C89.9767 85.609 90.4102 85.7819 90.8656 85.8537V84.7771Z" fill="#FFE55D"/>
<path d="M98.1483 112.167C97.995 111.396 97.9873 110.565 97.3739 110.642C93.0569 111.752 88.5768 112.086 84.1429 111.627C82.8042 111.451 82.9092 111.439 82.8057 111.439C81.5988 114.154 86.644 120.854 85.8083 133.797C85.6848 135.706 85.1788 137.226 85.3628 138.043C85.4792 138.506 85.7598 138.911 86.1524 139.183C86.5451 139.455 87.023 139.575 87.4974 139.521C89.9993 139.668 89.9096 137.752 90.0078 136.213C90.3812 130.346 90.9417 125.419 89.8667 118.149C89.6735 116.841 89.5071 115.283 90.852 114.771C94.777 113.277 95.1749 120.381 95.3328 124.249C95.4548 127.239 96.0605 130.291 96.0605 135.157C96.0605 138.036 95.6641 138.499 96.1303 139.216C96.2807 139.443 96.4872 139.627 96.7297 139.75C96.9722 139.873 97.2425 139.932 97.5142 139.92C100.239 139.863 100.382 139.094 100.377 137.433C100.46 128.958 99.7139 120.496 98.1483 112.167Z" fill="#FFE55D"/>
<path d="M90.1949 78.0819C90.1613 78.0716 90.1254 78.072 90.0921 78.0831C90.0588 78.0943 90.0299 78.1156 90.0093 78.144C89.9886 78.1725 89.9773 78.2067 89.9771 78.2419C89.9768 78.2771 89.9875 78.3115 90.0078 78.3403C90.1788 78.5972 89.984 78.4814 89.984 78.8563C89.984 79.8623 91.3734 79.2581 90.1949 78.0819Z" fill="#4B1010"/>
<path d="M93.714 81.106C93.8528 81.3889 94.2507 81.1321 94.1127 80.8714C92.8621 78.4776 93.0439 79.2842 93.4088 77.2117C93.4587 76.9311 93.0101 76.79 92.9634 77.0944C92.4619 79.5004 92.4044 78.4439 93.714 81.106Z" fill="#4B1010"/>
<path d="M90.7119 82.8895C91.0577 82.7468 91.4333 82.6914 91.8055 82.7282C92.1778 82.765 92.5353 82.8928 92.8465 83.1004C93.0052 83.4186 93.4262 83.0467 93.1984 82.819C92.8419 82.5123 92.4051 82.314 91.9395 82.2474C91.4739 82.1808 90.999 82.2488 90.5708 82.4433C90.3124 82.5138 90.4328 82.9892 90.7119 82.8895Z" fill="#4B1010"/>
<path d="M94.7459 78.1272C94.6225 77.8795 94.2368 77.996 94.5113 78.3618C94.2606 78.6953 94.4461 79.2528 94.7459 79.2528C95.1293 79.2528 95.2221 78.4783 94.91 78.2912L94.7459 78.1272Z" fill="#4B1010"/>
<path d="M89.2313 77.7515C90.0542 77.5757 90.7772 77.0882 91.2487 76.3912C91.2784 76.3355 91.2861 76.2706 91.2701 76.2095C91.2574 76.1642 91.2321 76.1235 91.1972 76.0919C91.1622 76.0604 91.1191 76.0394 91.0727 76.0314C91.0264 76.0234 90.9787 76.0287 90.9352 76.0466C90.8917 76.0646 90.8542 76.0945 90.8269 76.1329C90.4436 76.8996 89.3348 77.1296 89.078 77.2002C88.5811 77.3443 89.0013 77.7975 89.2313 77.7515Z" fill="#4B1010"/>
<path d="M95.5673 77.5636C95.5963 77.5755 95.6273 77.5814 95.6586 77.5809C95.6899 77.5804 95.7208 77.5735 95.7493 77.5607C95.7779 77.5479 95.8035 77.5295 95.8247 77.5065C95.8459 77.4835 95.8622 77.4564 95.8726 77.4269C95.883 77.3974 95.8873 77.3661 95.8852 77.3348C95.8832 77.3036 95.8748 77.2731 95.8606 77.2453C95.8464 77.2174 95.8266 77.1927 95.8026 77.1727C95.7785 77.1527 95.7507 77.1378 95.7207 77.1289C95.2476 76.9395 95.0759 76.5921 94.7784 76.0991C94.625 75.8522 94.3183 76.0309 94.3574 76.2893C94.4524 76.5779 94.6101 76.8419 94.8194 77.0622C95.0286 77.2826 95.284 77.4538 95.5673 77.5636Z" fill="#4B1010"/>
<path d="M98.8284 89.2941C97.0764 86.6871 94.5745 86.4103 91.2974 85.4695C91.2974 84.38 91.2276 85.3032 93.1276 84.6959C94.3713 84.883 97.3033 85.2579 98.7111 84.86C100.541 84.3424 99.313 81.3697 98.7111 80.4964C98.1092 79.6231 98.8514 76.816 99.931 76.2969C101.311 75.6375 97.4414 66.1459 90.148 69.4C90.148 69.4 88.6467 68.1096 85.5475 69.0013C82.4483 69.893 81.7008 74.4905 82.0052 76.2739C82.3096 78.0574 83.084 79.8155 81.9354 81.0592C80.8083 82.2791 80.316 83.6868 80.8558 84.8163C81.3956 85.9457 82.4713 84.0227 83.6238 84.8163C84.6535 85.524 87.6109 84.9566 88.199 84.8393C88.199 85.7977 88.7257 84.8469 85.4778 86.2003C80.8198 86.4993 76.6088 91.7132 74.8031 96.2171C70.8858 105.988 76.6057 111.899 82.3571 111.208C82.0144 111.826 82.2758 113.493 82.4039 114.187C83.1944 118.454 85.1588 121.471 85.3605 129.929C85.523 136.777 83.9872 137.75 85.5245 139.289C84.7855 141.679 84.4755 144.181 84.609 146.679C84.7264 147.007 85.5245 146.961 85.6181 146.843C85.7116 146.726 86.0168 145.271 86.3457 145.366C86.6747 145.46 87.1431 146.679 87.5656 146.938C89.0369 147.26 90.5534 147.324 92.0465 147.125C92.6323 146.867 91.7183 145.761 90.1457 145.459C88.7855 145.199 88.5509 141.025 88.5034 139.946C88.9875 139.832 89.424 139.569 89.752 139.195C90.08 138.821 90.2833 138.353 90.3336 137.858C92.2543 119.746 88.5938 115.98 91.108 115.219C94.5706 113.96 94.7271 122.025 94.885 125.213C95.0062 127.674 95.9861 132.945 95.4217 138.233C95.3932 138.528 95.4287 138.825 95.526 139.105C95.6233 139.384 95.78 139.64 95.9853 139.853C95.6709 141.825 95.3934 146.25 95.5628 146.726C95.6801 147.055 96.4776 147.007 96.5719 146.891C96.6662 146.774 96.9698 145.321 97.2987 145.412C97.6499 145.509 98.0962 146.726 98.5186 146.984C99.9977 147.31 101.522 147.374 103.023 147.172C103.611 146.918 102.672 145.806 101.123 145.506C99.7631 145.244 99.5277 141.237 99.4809 140.205C101.28 139.569 100.8 137.583 100.771 134.926C100.638 122.987 98.8062 111.041 98.0494 110.41C98.3308 110.219 98.5761 109.981 98.777 109.706C99.0837 111.298 99.1888 112.19 100.56 112.616C100.501 113.786 100.681 115.563 101.545 114.916C101.593 115.351 101.622 116.225 102.158 116.112C102.269 116.059 102.365 115.98 102.438 115.882C102.512 115.784 102.56 115.67 102.58 115.549C102.876 116.289 103.417 116.377 103.683 115.525C104.094 116.074 104.455 115.937 104.551 115.455C104.624 114.368 104.593 113.276 104.457 112.195C104.534 112.195 106.207 111.654 106.053 110.13C105.244 102.13 101.908 93.8769 98.8284 89.2941ZM88.2013 85.8215C88.2013 86.6802 88.1683 86.7416 88.3653 86.9011C88.6429 87.1334 88.9729 87.2945 89.3269 87.3703L87.3801 89.7863C86.7957 88.7492 86.2786 87.6756 85.832 86.5721C86.5834 86.2133 87.3808 85.961 88.2013 85.8215ZM93.3622 86.5721C93.2117 87.6659 92.9285 88.7373 92.5188 89.7626L90.2669 87.3465C91.4852 87.0398 91.3227 86.5338 91.3227 85.9664L93.3622 86.5721ZM88.6705 83.9215C91.1732 85.685 90.8289 83.6056 90.8289 86.5491C90.5248 86.7992 90.1434 86.9359 89.7497 86.9359C89.356 86.9359 88.9746 86.7992 88.6705 86.5491V83.9215ZM89.7961 87.5344C92.5625 90.4864 92.2152 90.1413 92.3532 90.2088C92.2765 90.3622 91.7682 91.7254 90.8051 93.6101C90.7285 93.7274 90.6656 93.8539 90.6173 93.9858C89.4486 92.8893 88.4521 91.6227 87.6615 90.2288L89.7961 87.5344ZM89.7493 73.693C91.8134 73.1517 91.861 72.5429 91.861 72.5429C91.861 72.5429 92.4237 75.0533 95.7315 75.3577C98.1782 79.1393 95.8526 84.5977 91.509 84.4367C88.5547 84.3271 86.5827 81.6396 86.5827 78.7628C86.5827 78.732 86.5766 78.7015 86.5647 78.6731C86.5529 78.6446 86.5355 78.6188 86.5136 78.5972C86.4811 78.5637 86.4393 78.5408 86.3936 78.5313C86.3479 78.5219 86.3005 78.5264 86.2574 78.5442C86.2142 78.5621 86.1775 78.5924 86.1518 78.6314C86.1261 78.6704 86.1128 78.7161 86.1134 78.7628C86.1147 79.4064 86.2095 80.0464 86.3948 80.6628C86.0513 80.6752 85.7105 80.5984 85.4056 80.4398C85.1007 80.2812 84.8421 80.0463 84.655 79.758C84.4686 79.4694 84.3601 79.1373 84.3402 78.7942C84.3203 78.4512 84.3897 78.1088 84.5416 77.8005C85.1343 77.01 86.4899 77.0445 86.7697 78.5749C86.8219 78.8563 87.5656 78.9 87.0281 77.8243C87.216 77.0476 87.9659 74.1608 89.7493 73.693ZM97.9367 111.205C99.6396 119.152 100.33 130.221 100.33 138.302C100.33 139.758 98.9143 139.937 97.4674 139.968C97.1962 139.979 96.9267 139.92 96.6849 139.797C96.4431 139.674 96.2373 139.49 96.0873 139.264C95.8355 138.704 95.7778 138.077 95.9232 137.48C96.2782 132.388 94.9732 120.043 94.9609 119.956C94.688 117.938 93.8108 113.675 90.809 114.819C88.1928 115.816 91.1862 118.453 90.1289 133.963C89.895 137.391 90.1112 138.835 88.6038 139.452C87.8225 139.689 86.9824 139.639 86.2345 139.311C84.8789 138.6 85.3183 137.185 85.4839 136.097C87.3417 123.888 82.6101 116.475 82.6469 112.122C82.6523 111.508 82.8701 111.432 82.7642 111.488C86.9177 112.155 91.1594 112.036 95.2684 111.136C97.3378 110.728 97.8117 110.331 97.9367 111.205ZM102.043 115.617C102.019 115.64 102.043 115.64 102.043 115.617V115.617ZM102.16 115.64C102.138 115.617 102.16 115.616 102.16 115.639V115.64ZM104.13 115.145C104.13 115.239 104.167 115.334 103.989 114.981C103.836 114.521 103.821 114.347 103.591 114.347C103.258 114.403 103.493 114.746 103.192 115.497C103.192 115.5 103.191 115.503 103.19 115.506L103.185 115.514C103.183 115.515 103.18 115.518 103.177 115.518C103.174 115.519 103.171 115.52 103.168 115.52C102.785 114.746 102.952 114.222 102.559 114.3C102.503 114.323 102.455 114.362 102.421 114.412C102.388 114.462 102.37 114.521 102.371 114.581C102.447 114.581 102.155 115.42 102.136 115.497C102.015 114.958 101.975 114.405 102.019 113.855C102.075 113.519 101.55 113.517 101.55 113.808C101.534 113.884 101.375 114.535 101.221 114.535C101.045 113.942 100.974 113.323 101.01 112.705C102.019 112.814 103.039 112.685 103.989 112.33C104.108 113.263 104.156 114.205 104.13 115.147V115.145ZM105.327 111.039C104.683 111.747 103.048 112.215 101.972 112.283C99.632 112.429 99.5599 111.234 99.3444 110.148C99.0117 108.47 99.0922 109.733 99.7431 107.685C100.847 104.211 100.246 102.21 97.1155 91.4295C97.108 91.4001 97.0947 91.3725 97.0765 91.3483C97.0582 91.3241 97.0353 91.3038 97.0092 91.2885C96.983 91.2732 96.954 91.2633 96.9239 91.2593C96.8939 91.2554 96.8633 91.2574 96.8341 91.2654C96.8047 91.2729 96.7771 91.2861 96.7529 91.3044C96.7287 91.3226 96.7084 91.3455 96.6931 91.3717C96.6778 91.3979 96.6679 91.4269 96.664 91.4569C96.66 91.487 96.662 91.5175 96.67 91.5468C96.7467 91.5468 99.6688 102.288 99.7669 103.746C99.9141 105.938 99.1849 109.709 97.2366 110.197C97.3133 110.197 90.0162 112.165 83.3017 111.065C86.6287 110.154 88.4228 106.716 89.2609 103.37C89.8314 101.091 90.3857 99.0763 88.4397 97.6961H88.416C88.4353 97.6517 88.4434 97.6033 88.4397 97.555C88.1744 96.694 88.5532 96.3612 88.2051 95.4442C88.0885 95.1375 87.7826 94.7633 87.4307 94.9979C87.3839 95.0217 87.3601 95.0685 87.3134 95.0922C87.2988 94.9898 87.2547 94.8939 87.1864 94.8163C87.1181 94.7386 87.0286 94.6826 86.9289 94.6552C86.8292 94.6277 86.7236 94.63 86.6252 94.6618C86.5268 94.6935 86.4397 94.7533 86.3749 94.8338C86.3749 94.4934 86.5198 94.0771 86.164 93.8018C85.5843 93.3533 84.5607 94.8944 85.0139 96.7108C82.9222 97.2192 82.9276 100.225 82.3625 101.919C81.8257 103 81.1211 102.344 80.9785 101.145C80.9302 100.739 81.0437 100.417 80.7201 100.417C80.0737 100.417 80.7308 103.47 82.1984 102.81C83.6084 102.176 82.8931 97.4009 85.3658 97.1096C86.8993 96.9286 89.5829 98.3011 89.4005 100.535C89.254 101.76 88.9948 102.97 88.626 104.148C86.6087 110.775 82.0719 112.099 77.9989 109.802C69.0371 104.746 77.009 87.6716 85.4831 86.6933C87.0649 90.7885 90.352 95.0554 90.9017 94.5057C91.2851 94.1223 93.6053 89.337 93.8813 86.6703C95.5777 86.9565 97.1164 87.8381 98.2211 89.1568C102.434 94.6383 106.657 109.119 105.327 111.041V111.039ZM85.4325 96.6119C85.2482 95.8492 85.3577 95.0449 85.7392 94.3592C85.7998 94.3109 85.855 94.2557 85.9033 94.1951C85.9271 94.2796 85.9271 94.369 85.9033 94.4535C85.6856 96.4126 86.4193 96.0415 86.3963 95.7432C86.4768 95.7432 86.3557 95.5024 86.5842 95.2747C86.9415 94.9167 86.9308 95.1022 86.8418 95.9778C86.8157 96.2362 87.2658 96.3068 87.3111 96.0484C87.3502 95.8253 87.7098 95.1605 87.7098 95.4856C88.0655 96.1964 87.7696 96.4678 87.8976 97.3626C87.1709 96.8687 86.3112 96.6074 85.4325 96.6135V96.6119Z" fill="#4B1010"/>
<path d="M89.5379 79.5342C89.3907 79.5303 89.2442 79.5559 89.1071 79.6096C88.97 79.6632 88.845 79.7438 88.7395 79.8465C88.6341 79.9492 88.5502 80.0721 88.493 80.2077C88.4357 80.3434 88.4062 80.4891 88.4062 80.6364C88.4062 80.7836 88.4357 80.9294 88.493 81.065C88.5502 81.2007 88.6341 81.3235 88.7395 81.4262C88.845 81.529 88.97 81.6095 89.1071 81.6632C89.2442 81.7168 89.3907 81.7425 89.5379 81.7386C89.8252 81.731 90.0982 81.6115 90.2987 81.4057C90.4992 81.1998 90.6114 80.9238 90.6114 80.6364C90.6114 80.349 90.4992 80.073 90.2987 79.8671C90.0982 79.6612 89.8252 79.5417 89.5379 79.5342Z" fill="#FFE55D"/>
<path d="M95.7786 79.5111C95.9258 79.5073 96.0723 79.5329 96.2094 79.5866C96.3465 79.6402 96.4715 79.7208 96.577 79.8235C96.6824 79.9262 96.7663 80.049 96.8235 80.1847C96.8808 80.3204 96.9102 80.4661 96.9102 80.6134C96.9102 80.7606 96.8808 80.9063 96.8235 81.042C96.7663 81.1777 96.6824 81.3005 96.577 81.4032C96.4715 81.5059 96.3465 81.5865 96.2094 81.6402C96.0723 81.6938 95.9258 81.7194 95.7786 81.7156C95.4913 81.708 95.2183 81.5885 95.0178 81.3826C94.8173 81.1768 94.7051 80.9007 94.7051 80.6134C94.7051 80.326 94.8173 80.0499 95.0178 79.8441C95.2183 79.6382 95.4913 79.5187 95.7786 79.5111Z" fill="#FFE55D"/>
</svg>
