<svg width="154" height="154" viewBox="0 0 154 154" fill="none" xmlns="http://www.w3.org/2000/svg">
<path d="M92.647 87.7102C91.039 86.7914 89.4418 85.8725 87.8315 84.9407C87.716 84.8738 87.5876 84.8324 87.4548 84.8191C87.3221 84.8058 87.188 84.821 87.0616 84.8636C86.9351 84.9062 86.8192 84.9753 86.7216 85.0662C86.6239 85.1571 86.5468 85.2678 86.4953 85.3909C85.5426 87.7838 84.0112 89.9029 82.0382 91.5584C80.0652 93.2139 77.7122 94.354 75.1903 94.8766C75.0477 94.9077 74.9144 94.9718 74.8012 95.0639C74.6879 95.1559 74.5979 95.2732 74.5383 95.4064C74.4787 95.5396 74.4512 95.685 74.4581 95.8308C74.4649 95.9765 74.5059 96.1186 74.5777 96.2457C75.5731 98.0168 77.0732 100.577 77.6857 101.64C77.7724 101.79 77.9003 101.913 78.0543 101.993C78.2083 102.073 78.382 102.107 78.5548 102.091C82.1615 101.892 85.5854 100.44 88.2349 97.9845C90.8843 95.5292 92.5928 92.2256 93.0651 88.6444C93.1093 88.4644 93.0922 88.2748 93.0164 88.1056C92.9407 87.9364 92.8107 87.7973 92.647 87.7102ZM87.9348 96.6691C85.8955 98.4022 83.5027 99.6696 80.9232 100.383C80.714 99.9992 80.4106 99.6751 80.0415 99.4412C79.6724 99.2073 79.2499 99.0713 78.8136 99.0459C78.5745 99.0484 78.3365 99.0809 78.1054 99.1424L76.8971 97.1293C77.2071 96.9818 77.4661 96.7452 77.6411 96.4498C77.8161 96.1544 77.8991 95.8135 77.8795 95.4708C79.844 94.6047 81.6929 93.4971 83.3834 92.1736C84.9453 91.0358 86.1166 89.4424 86.7365 87.6122C87.1373 87.6553 87.5423 87.5863 87.9062 87.4129C88.2702 87.2394 88.5788 86.9683 88.7978 86.6298L90.9234 88.208C90.7948 88.8037 90.6018 90.221 91.3583 90.7685C90.9621 93.0829 89.747 95.1776 87.9348 96.6706V96.6691Z" fill="#38A1FF"/>
<path d="M93.5163 58.0143C93.4547 57.8882 93.355 57.7846 93.2313 57.7182C93.1077 57.6519 92.9663 57.626 92.8271 57.6445L85.258 58.5947C85.1702 58.6061 85.0855 58.6348 85.0088 58.679C84.9321 58.7232 84.8649 58.7822 84.811 58.8525C84.7571 58.9228 84.7177 59.0031 84.6949 59.0886C84.6722 59.1742 84.6666 59.2635 84.6784 59.3512C85.5596 65.0066 85.8243 70.7409 85.4678 76.4535C85.4598 76.5439 85.4703 76.6351 85.4987 76.7214C85.5272 76.8076 85.573 76.8871 85.6333 76.9551C85.6936 77.023 85.7671 77.0778 85.8494 77.1163C85.9317 77.1547 86.021 77.1759 86.1118 77.1786L94.5347 77.3072C94.7096 77.3107 94.8788 77.2451 95.0056 77.1245C95.1323 77.0039 95.2063 76.8381 95.2116 76.6633C95.2881 73.8148 95.4642 62.411 93.5163 58.0143ZM93.9328 74.7337C93.4764 74.7178 93.0307 74.8745 92.6846 75.1725C92.3385 75.4705 92.1173 75.8879 92.0652 76.3417H88.667C88.5943 75.855 88.3673 75.4046 88.0194 75.0566C87.6714 74.7087 87.221 74.4817 86.7343 74.409C86.7826 72.6057 86.9281 64.7947 86.01 61.5259C86.3881 61.3484 86.7133 61.0753 86.9533 60.7334C87.1933 60.3916 87.3398 59.993 87.3783 59.5771L91.5499 59.0457C91.505 59.3398 91.5191 59.64 91.5914 59.9286C91.6636 60.2173 91.7926 60.4886 91.9707 60.7269C92.1489 60.9652 92.3727 61.1657 92.6291 61.3167C92.8855 61.4676 93.1694 61.5661 93.4642 61.6063C93.6135 62.9585 94.4987 71.6226 93.9328 74.7337Z" fill="#38A1FF"/>
<path d="M77.0255 61.0902C75.7065 58.6691 75.0088 55.9586 74.9947 53.2016C74.9807 50.4446 75.6509 47.7271 76.9451 45.2928C77.016 45.1545 77.0535 45.0015 77.0547 44.8461C77.0558 44.6907 77.0205 44.5372 76.9517 44.3978C76.8828 44.2585 76.7823 44.1372 76.6582 44.0437C76.5341 43.9502 76.3898 43.8871 76.2369 43.8593C74.0929 43.4727 70.9534 42.9405 69.6663 42.7322C69.4838 42.7029 69.2967 42.725 69.126 42.796C68.9553 42.867 68.8078 42.9841 68.6999 43.1342C66.3986 46.2465 65.2539 50.0636 65.4627 53.9287C65.6715 57.7938 67.2207 61.4653 69.8439 64.3116C69.9777 64.4621 70.1538 64.5687 70.3491 64.6175C70.5445 64.6663 70.7501 64.6549 70.9389 64.5849C72.7904 63.8958 74.6587 63.1998 76.5102 62.5075C76.6429 62.4553 76.763 62.3755 76.8625 62.2734C76.962 62.1712 77.0387 62.0491 77.0874 61.9151C77.1362 61.781 77.1558 61.6382 77.1452 61.496C77.1345 61.3538 77.0937 61.2155 77.0255 61.0902ZM74.4489 62.153L71.7115 62.8138C71.6793 62.8299 71.6793 62.8138 71.6793 62.8138C71.2766 62.3146 70.2459 61.1875 69.2796 61.4447C68.8293 60.9616 67.2022 58.9179 67.17 54.4553C67.1969 51.6549 67.649 48.8748 68.5108 46.2101C69.0959 46.352 69.7123 46.2829 70.2515 46.015C70.7906 45.747 71.2179 45.2974 71.458 44.7453L73.9535 45.1634C73.8634 45.5203 73.8811 45.896 74.0044 46.2428C74.1278 46.5897 74.3512 46.8922 74.6465 47.1121C73.9373 49.6206 73.5943 52.2185 73.6281 54.8251C73.6246 56.5762 74.122 58.2917 75.0615 59.7694C74.7505 60.0723 74.5289 60.4548 74.4209 60.8753C74.3128 61.2957 74.3225 61.7377 74.4489 62.153Z" fill="#38A1FF"/>
<path d="M77.992 32.3445L77.2676 28.1093C77.0685 28.068 76.5364 27.9417 75.8128 27.7709L76.2875 30.5091C75.8742 30.677 75.5114 30.9492 75.2348 31.2993C74.9582 31.6493 74.7772 32.0651 74.7094 32.5061C71.1021 32.5865 63.1632 35.1631 61.3591 35.7588C61.1661 35.3188 60.8402 34.9503 60.4272 34.7047C60.0141 34.4592 59.5346 34.3491 59.0559 34.3897C58.9594 34.3897 58.8629 34.4066 58.7986 34.4066L57.7519 30.9279C58.2014 30.7386 58.5617 30.3849 58.7593 29.9389C58.9568 29.4929 58.9766 28.9883 58.8147 28.5282C60.4786 27.6637 64.0912 26.7334 67.177 26.0212C65.9181 25.8775 64.6543 25.7792 63.3883 25.7264C61.0837 26.3526 58.7963 27.04 56.5282 27.7877C56.4409 27.8164 56.3602 27.8622 56.2908 27.9224C56.2215 27.9827 56.1649 28.0562 56.1243 28.1387C56.0838 28.2212 56.0602 28.3109 56.0549 28.4027C56.0495 28.4944 56.0626 28.5863 56.0933 28.6729L58.8308 37.2083C58.8599 37.3008 58.9079 37.3861 58.9719 37.459C59.0358 37.5319 59.1142 37.5906 59.2021 37.6315C59.2899 37.6724 59.3853 37.6946 59.4823 37.6966C59.5792 37.6986 59.6754 37.6805 59.7649 37.6433C66.7498 34.8247 74.9643 33.5046 77.3932 33.1661C77.4873 33.1535 77.578 33.1218 77.6596 33.0732C77.7412 33.0246 77.8121 32.9599 77.868 32.8832C77.924 32.8064 77.9638 32.7191 77.9851 32.6265C78.0064 32.5339 78.0088 32.438 77.992 32.3445Z" fill="#38A1FF"/>
<path d="M31.1135 94.9087C30.8241 93.7655 30.1181 91.0112 29.5997 89.1436C29.5537 89.0043 29.4769 88.877 29.3751 88.7714C29.2732 88.6657 29.1488 88.5844 29.0112 88.5333C28.8736 88.4823 28.7263 88.4629 28.5802 88.4765C28.434 88.4902 28.2928 88.5366 28.1671 88.6122C25.6707 90.0551 22.8559 90.8572 19.9739 90.9469C17.5531 91.0183 15.1443 90.5794 12.9041 89.659C12.7799 89.6048 12.6459 89.5768 12.5104 89.577C12.3749 89.5771 12.2409 89.6052 12.1168 89.6597C11.9927 89.7141 11.8813 89.7937 11.7894 89.8933C11.6976 89.993 11.6274 90.1105 11.5832 90.2386C11.0358 91.9454 10.4883 93.6529 9.94078 95.3436C9.88678 95.5197 9.89049 95.7085 9.95138 95.8824C10.0123 96.0562 10.1271 96.206 10.2792 96.31C13.1492 98.3651 16.5887 99.4741 20.1187 99.4823C23.9802 99.4844 27.732 98.198 30.7797 95.8268C30.9227 95.7264 31.0314 95.5845 31.0911 95.4203C31.1508 95.2561 31.1586 95.0775 31.1135 94.9087ZM27.7965 96.1813C25.4116 97.0774 22.9207 97.6604 20.3859 97.9157C15.7962 98.32 13.5986 96.9386 13.0932 96.5512C13.2709 95.7142 12.2402 94.9248 11.5955 94.522L12.0947 92.058C12.4974 92.1389 12.914 92.1164 13.3055 91.9925C13.6971 91.8686 14.0508 91.6475 14.3337 91.3497C15.8812 92.2318 17.9525 92.3688 19.9395 92.2341C22.2021 92.0136 24.4327 91.5387 26.5889 90.8183C26.8333 91.0658 27.1426 91.2394 27.4812 91.3192C27.8198 91.399 28.174 91.3817 28.5032 91.2693L29.0186 93.4431C28.523 93.6802 28.1279 94.0858 27.904 94.5875C27.6801 95.0892 27.642 95.6541 27.7965 96.1813Z" fill="#38A1FF"/>
<path d="M18.3696 96.3835C18.5737 96.6649 18.8421 96.8933 19.1525 97.0498C19.4628 97.2063 19.8061 97.2864 20.1537 97.2832C20.7181 97.2634 21.2534 97.0281 21.6497 96.6258C22.046 96.2235 22.2732 95.6846 22.2846 95.12C22.2959 94.5554 22.0906 94.0079 21.7109 93.5899C21.3311 93.1719 20.8056 92.9153 20.2425 92.8727C19.7282 92.8509 19.2209 92.9976 18.7975 93.2904C18.3742 93.5833 18.0581 94.0063 17.8971 94.4953C17.8256 94.8252 17.831 95.1671 17.9129 95.4946C17.9948 95.822 18.1511 96.1262 18.3696 96.3835Z" fill="#38A1FF"/>
<path d="M117.431 80.8663C117.849 80.9989 118.299 80.9954 118.716 80.8565C119.132 80.7175 119.494 80.4502 119.749 80.0929C120.058 79.6552 120.247 79.1444 120.297 78.6113C120.345 78.112 120.394 77.5645 119.814 77.3716C119.305 77.2441 118.768 77.2888 118.288 77.4985C117.807 77.7082 117.409 78.0712 117.157 78.5308C116.974 78.7897 116.856 79.089 116.814 79.4032C116.772 79.7174 116.807 80.0371 116.915 80.3349C117.021 80.566 117.203 80.7537 117.431 80.8663Z" fill="#38A1FF"/>
<path d="M115.611 81.3816C116.481 80.9306 116.98 81.6879 116.368 82.1543C115.373 83.1367 109.958 88.3221 108.107 89.9002C106.593 91.1889 104.805 93.7495 102.583 93.604C102.014 93.5356 101.46 93.3782 100.94 93.1377C99.8963 92.7701 98.8171 92.511 97.7198 92.3643C97.4606 92.3264 97.2152 92.223 97.007 92.064C96.7988 91.9049 96.6345 91.6955 96.5297 91.4553C96.4248 91.2152 96.3829 90.9523 96.4079 90.6914C96.4329 90.4306 96.5239 90.1804 96.6723 89.9645C96.9072 89.6239 97.1599 89.2959 97.4296 88.9821C99.249 86.9538 102.535 86.4384 105.015 85.5847C108.412 84.4254 115.611 81.3816 115.611 81.3816Z" fill="#38A1FF"/>
<path d="M70.9714 96.954L61.6634 83.3625C61.5656 83.2183 61.4396 83.0955 61.2929 83.0015C61.1463 82.9075 60.982 82.8442 60.8102 82.8156C60.6383 82.787 60.4625 82.7935 60.2932 82.8349C60.124 82.8763 59.9649 82.9516 59.8257 83.0563L54.7207 86.8726C53.6621 86.1915 52.4976 85.691 51.275 85.3917C49.0058 84.8861 46.6439 84.9827 44.4236 85.6719C42.2032 86.3611 40.2018 87.6189 38.6177 89.3206C37.6088 90.5133 37.0303 92.0106 36.9752 93.5718C36.8591 95.5719 37.1834 97.5731 37.9255 99.4341L32.7883 103.283C32.5258 103.476 32.3476 103.762 32.2906 104.083C32.2336 104.404 32.3021 104.735 32.482 105.006L37.6031 112.977C42.9028 108.983 48.2552 105.058 53.6586 101.205C63.9491 93.8299 68.4744 91.3336 63.4981 95.3919C58.9727 99.1439 48.2152 107.341 38.473 114.33L45.4134 125.136C45.5922 125.418 45.8749 125.619 46.2004 125.694C46.5259 125.769 46.8679 125.713 47.1524 125.538L53.9971 121.432C54.208 121.292 54.3755 121.096 54.4808 120.866C54.5861 120.636 54.6249 120.381 54.5928 120.13C54.1257 110.902 61.1473 104.106 61.7905 103.43C63.1267 102.045 66.8634 99.3882 70.1322 98.9211C70.3462 98.8928 70.5491 98.8093 70.721 98.6788C70.8928 98.5483 71.0278 98.3752 71.1125 98.1767C71.1971 97.9782 71.2287 97.761 71.2039 97.5466C71.1792 97.3322 71.0991 97.128 70.9714 96.954ZM53.0476 98.562C52.7905 99.4403 52.3753 100.264 51.8224 100.994C51.3232 101.654 50.7596 101.815 50.4702 101.07C50.18 100.346 50.6792 98.8805 51.6456 98.1875C52.6127 97.5175 53.2405 97.8238 53.0476 98.5643V98.562ZM38.973 98.6584C38.7608 97.9799 38.6046 97.2851 38.5059 96.5811C38.285 95.1722 38.3396 93.7339 38.6667 92.3459C39.1016 90.5587 40.728 89.2379 42.2418 88.3198C43.938 87.2563 45.8753 86.6382 47.874 86.5229C49.8727 86.4075 51.8682 86.7985 53.6755 87.6597L38.973 98.6584Z" fill="#38A1FF"/>
<path d="M70.8663 51.4475C70.796 51.4361 70.7247 51.4314 70.6534 51.4337C69.9825 51.448 69.3408 51.7108 68.8525 52.1711C68.5997 52.3721 68.4006 52.6325 68.2731 52.9292C68.1456 53.2258 68.0936 53.5495 68.1217 53.8712C68.1498 54.1929 68.2573 54.5026 68.4344 54.7726C68.6115 55.0426 68.8527 55.2645 69.1366 55.4185C69.4573 55.6523 69.8266 55.8107 70.2171 55.8819C70.6075 55.9531 71.009 55.9353 71.3916 55.8297C71.9043 55.6854 72.3485 55.3626 72.6441 54.9197C72.9398 54.4767 73.0675 53.9427 73.0041 53.4139C72.9407 52.8851 72.6904 52.3963 72.2985 52.0358C71.9065 51.6752 71.3986 51.4666 70.8663 51.4475Z" fill="#38A1FF"/>
<path d="M58.0879 45.1005C56.547 41.8815 53.931 39.3012 50.6912 37.8045C47.4514 36.3078 43.7909 35.9886 40.3409 36.902C40.1622 36.9479 40.0013 37.046 39.8785 37.1837C39.7558 37.3215 39.6769 37.4926 39.6518 37.6754C39.4098 39.4947 39.1847 41.2988 38.9427 43.1181C38.9252 43.2489 38.936 43.3819 38.9742 43.5082C39.0124 43.6345 39.0772 43.7512 39.1642 43.8503C39.2513 43.9495 39.3585 44.0289 39.4788 44.0831C39.5991 44.1374 39.7296 44.1652 39.8616 44.1648C42.4031 44.129 44.9136 44.7255 47.1674 45.9006C49.4212 47.0757 51.3475 48.7927 52.7731 50.897C52.8559 51.0152 52.9653 51.1123 53.0926 51.1803C53.2199 51.2483 53.3614 51.2854 53.5057 51.2885C53.65 51.2916 53.793 51.2607 53.9232 51.1983C54.0533 51.1359 54.1669 51.0437 54.2547 50.9292C55.4944 49.3503 57.2663 47.0156 58.0067 46.0653C58.1097 45.9285 58.172 45.7653 58.1863 45.5946C58.2007 45.424 58.1666 45.2527 58.0879 45.1005ZM55.561 46.6626L54.1758 48.5149C53.8519 48.2372 53.443 48.0781 53.0166 48.0639C52.7643 48.0648 52.5158 48.1254 52.2914 48.2407C51.296 47.2752 46.1075 42.5239 41.792 43.1196C41.6826 42.7358 41.4676 42.3904 41.1716 42.1228C40.8755 41.8551 40.5102 41.676 40.1173 41.6058L40.7613 39.079C41.357 38.9656 42.7261 38.6119 42.9191 37.7099C43.9819 37.4197 49.6344 36.3086 55.6253 43.6357C55.27 44.0564 55.0696 44.5862 55.0577 45.1368C55.0457 45.6873 55.2228 46.2253 55.5595 46.6611L55.561 46.6626Z" fill="#38A1FF"/>
<path d="M49.5211 39.3983C49.2744 39.2812 49.0047 39.2208 48.7316 39.2214C48.3329 39.2257 47.9409 39.3252 47.5884 39.5116C47.2311 39.6852 46.9179 39.9377 46.6725 40.2501C46.4271 40.5625 46.2559 40.9266 46.1718 41.3148C46.084 41.8429 46.1799 42.385 46.4434 42.851C46.7068 43.3169 47.1221 43.6785 47.6198 43.8754C48.1094 44.02 48.6326 44.0025 49.1115 43.8254C49.5903 43.6484 49.9991 43.3213 50.2768 42.893C50.4724 42.5822 50.5994 42.2333 50.6495 41.8695C50.6995 41.5057 50.6714 41.1355 50.567 40.7834C50.5044 40.4902 50.3784 40.2142 50.1977 39.9749C50.0169 39.7356 49.786 39.5387 49.5211 39.3983Z" fill="#38A1FF"/>
<path d="M90.6661 65.7611C90.5884 65.7485 90.5096 65.7437 90.431 65.7465C89.7233 65.7573 89.046 66.0355 88.5351 66.5253C88.2948 66.7343 88.1013 66.9915 87.9671 67.2803C87.8329 67.5692 87.7611 67.883 87.7563 68.2014C87.7882 68.5575 87.9015 68.9014 88.0873 69.2068C88.2732 69.5121 88.5267 69.7707 88.8283 69.9626C89.1658 70.2118 89.5562 70.38 89.9692 70.4539C90.3822 70.5279 90.8067 70.5057 91.2097 70.3891C91.7464 70.2327 92.2103 69.8912 92.5191 69.4252C92.8278 68.9592 92.9614 68.3988 92.8961 67.8436C92.8308 67.2884 92.5709 66.7744 92.1625 66.3927C91.7541 66.011 91.2236 65.7864 90.6653 65.7588L90.6661 65.7611Z" fill="#38A1FF"/>
<path d="M91.1655 139.501L88.0261 132.56C87.9914 132.478 87.9403 132.405 87.8761 132.344C87.8119 132.284 87.7359 132.237 87.6529 132.207C87.5698 132.177 87.4815 132.164 87.3933 132.169C87.3051 132.175 87.2189 132.198 87.1402 132.238C81.9997 134.751 76.6003 136.694 71.038 138.035C70.9487 138.055 70.8644 138.092 70.7903 138.146C70.7162 138.199 70.6538 138.267 70.607 138.346C70.5602 138.424 70.53 138.511 70.5182 138.602C70.5065 138.692 70.5135 138.784 70.5387 138.872L72.9055 146.957C72.9263 147.041 72.9641 147.12 73.0166 147.188C73.069 147.257 73.1351 147.314 73.2106 147.357C73.2861 147.399 73.3694 147.425 73.4555 147.434C73.5416 147.443 73.6286 147.434 73.7111 147.408C76.4485 146.634 87.3997 143.446 91.0231 140.273C91.1221 140.174 91.1886 140.047 91.2141 139.909C91.2395 139.771 91.2226 139.629 91.1655 139.501ZM87.5582 141.288C86.3178 141.819 78.2824 145.218 75.1583 145.604C75.0524 145.227 74.8304 144.894 74.5237 144.651C74.2171 144.408 73.8415 144.268 73.4507 144.251C73.3226 144.254 73.1947 144.265 73.0679 144.284L72.0724 141.047C72.5141 140.832 72.8756 140.482 73.1044 140.047C73.3332 139.613 73.4172 139.117 73.3443 138.631C75.084 138.148 82.588 135.974 85.4426 134.138C85.7303 134.439 86.0883 134.665 86.4845 134.794C86.8807 134.924 87.3027 134.953 87.7129 134.879L89.4519 138.708C89.1579 138.752 88.8756 138.854 88.6212 139.008C88.3668 139.162 88.1453 139.365 87.9694 139.605C87.7935 139.844 87.6666 140.117 87.5961 140.405C87.5255 140.694 87.5127 140.994 87.5582 141.288Z" fill="#38A1FF"/>
<path d="M81.4424 137.948C81.0622 137.717 80.6271 137.591 80.1821 137.584C79.97 137.581 79.7593 137.617 79.5603 137.69C79.2189 137.83 78.9142 138.047 78.6694 138.323C78.4247 138.599 78.2464 138.928 78.1483 139.283C78.008 139.692 77.9626 140.127 78.0157 140.556C78.0687 140.985 78.2189 141.395 78.4546 141.757C78.7932 142.235 79.2856 142.581 79.8492 142.739C80.4128 142.896 81.0134 142.855 81.5504 142.623C82.039 142.356 82.4284 141.938 82.6609 141.433C82.8933 140.927 82.9564 140.359 82.8406 139.815C82.7526 139.423 82.5825 139.053 82.3415 138.732C82.1005 138.41 81.7941 138.143 81.4424 137.948Z" fill="#38A1FF"/>
<path d="M52.5323 63.5221L49.4243 62.9746L29.9062 78.3218L33.6261 79.0944C33.9516 79.1587 34.2871 79.1518 34.6096 79.0741C34.9321 78.9964 35.234 78.8497 35.4944 78.6442L52.8547 64.8269C52.9653 64.7387 53.0483 64.6206 53.0938 64.4867C53.1393 64.3527 53.1455 64.2085 53.1115 64.0712C53.0776 63.9339 53.005 63.8092 52.9024 63.7118C52.7997 63.6145 52.6713 63.5487 52.5323 63.5221Z" fill="#38A1FF"/>
<path d="M47.8704 62.7059L46.0901 62.395C45.7871 62.3418 45.4763 62.3515 45.1771 62.4236C44.8779 62.4956 44.5968 62.6285 44.3512 62.8138L26.4434 76.3417C26.3316 76.4284 26.2467 76.5451 26.1985 76.6782C26.1503 76.8113 26.1409 76.9553 26.1713 77.0935C26.2016 77.2317 26.2706 77.3585 26.3702 77.4591C26.4697 77.5597 26.5958 77.63 26.7337 77.6618L28.4305 78.014L47.8704 62.7059Z" fill="#38A1FF"/>
<path d="M21.7258 51.4767C21.9695 51.3479 22.157 51.1335 22.2521 50.8748C22.3473 50.6161 22.3434 50.3314 22.2411 50.0754C22.1424 49.9769 22.0244 49.9 21.8944 49.8495C21.7645 49.799 21.6254 49.7761 21.4862 49.7821C21.3469 49.7882 21.2104 49.8231 21.0853 49.8846C20.9602 49.9462 20.8492 50.0331 20.7595 50.1397C20.6037 50.3283 20.5239 50.5683 20.5358 50.8126C20.5477 51.0569 20.6504 51.288 20.8238 51.4606C20.9582 51.5457 21.1134 51.5922 21.2725 51.5951C21.4316 51.5979 21.5884 51.5569 21.7258 51.4767Z" fill="#38A1FF"/>
<path d="M80.7902 24.0128C80.4218 23.6648 80.0499 23.3205 79.6746 22.9799L79.6026 23.2946C79.1589 23.292 78.7222 23.405 78.3355 23.6224C77.9487 23.8397 77.6251 24.154 77.3966 24.5343C74.0473 23.2142 65.7049 22.5541 63.8212 22.4247C63.8695 20.9591 62.4843 20.3634 61.969 20.1865L62.3235 16.5793C62.8116 16.5723 63.2789 16.3807 63.6314 16.043C63.9839 15.7053 64.1954 15.2465 64.2232 14.7592C66.0916 14.7268 67.9591 14.8632 69.803 15.1665C69.0373 14.6535 68.257 14.1527 67.466 13.6757C65.224 13.4306 63.3357 13.2836 62.387 13.2162C62.2959 13.2093 62.2044 13.2205 62.1176 13.2492C62.0309 13.278 61.9508 13.3237 61.8819 13.3836C61.813 13.4436 61.7567 13.5167 61.7163 13.5987C61.6759 13.6806 61.6522 13.7698 61.6466 13.861L60.9054 22.7823C60.8981 22.8779 60.9104 22.9739 60.9415 23.0646C60.9727 23.1552 61.0221 23.2385 61.0866 23.3094C61.1511 23.3802 61.2295 23.4371 61.3168 23.4766C61.4042 23.5161 61.4987 23.5372 61.5945 23.5388C69.1307 23.6192 77.2151 25.5358 79.598 26.1476C79.689 26.1709 79.7838 26.1755 79.8767 26.1612C79.9696 26.1469 80.0586 26.1139 80.1384 26.0642C80.2181 26.0146 80.287 25.9493 80.3409 25.8723C80.3948 25.7953 80.4325 25.7082 80.4518 25.6162L80.8055 24.0335L80.7902 24.0128Z" fill="#38A1FF"/>
<path d="M68.6449 17.9942C68.4625 18.3955 68.3736 18.8329 68.3847 19.2735C68.3959 19.7141 68.5068 20.1464 68.7092 20.5379C68.8593 20.8832 69.0875 21.189 69.3758 21.4311C69.6642 21.6732 70.0048 21.845 70.3708 21.9331C70.7016 21.9805 71.0387 21.9573 71.3598 21.8649C71.681 21.7725 71.9789 21.6131 72.2338 21.3971C72.5608 21.1502 72.8316 20.8366 73.0283 20.4771C73.225 20.1177 73.3431 19.7206 73.3747 19.312C73.4376 18.7261 73.2905 18.137 72.9596 17.6494C72.6287 17.1618 72.1356 16.8074 71.5679 16.6493C71.0002 16.4912 70.3949 16.5397 69.8597 16.7862C69.3244 17.0326 68.8939 17.461 68.6449 17.995V17.9942Z" fill="#38A1FF"/>
<path d="M87.6706 16.7079C85.0136 12.3433 74.9322 5.59661 72.4038 3.93731C72.2476 3.83777 72.0584 3.80396 71.8774 3.84326C71.6964 3.88256 71.5383 3.99177 71.4374 4.14711L66.4435 11.5868C66.3907 11.667 66.3549 11.7573 66.3385 11.8519C66.322 11.9465 66.3252 12.0436 66.3478 12.1369C66.3705 12.2303 66.412 12.318 66.47 12.3946C66.5279 12.4712 66.601 12.535 66.6847 12.5822C73.2392 16.3181 79.3748 21.9239 81.1628 23.6131C81.2314 23.6787 81.3127 23.7296 81.4016 23.7628C81.4905 23.796 81.5852 23.8108 81.68 23.8063C81.7748 23.8018 81.8677 23.7781 81.9531 23.7366C82.0385 23.6951 82.1145 23.6366 82.1766 23.5649L87.5772 17.5295C87.6802 17.4215 87.7451 17.2827 87.762 17.1344C87.7788 16.9861 87.7467 16.8363 87.6706 16.7079ZM82.6 21.1337C82.2121 20.9137 81.7738 20.7981 81.3278 20.7981C80.8818 20.7981 80.4435 20.9137 80.0556 21.1337C77.7691 18.3634 70.7958 13.7254 69.2176 12.6948C69.9749 11.439 69.0729 10.2445 68.7023 9.84479L70.7613 6.86846C71.1895 7.10407 71.6917 7.16695 72.1648 7.04423C72.6379 6.9215 73.0461 6.62247 73.3058 6.20842C76.3495 7.58058 83.4515 13.6481 84.5143 14.5662C84.3716 14.849 84.2867 15.1574 84.2646 15.4733C84.2425 15.7893 84.2836 16.1065 84.3855 16.4064C84.4875 16.7063 84.6483 16.9828 84.8584 17.2199C85.0685 17.4569 85.3238 17.6496 85.6093 17.7868L82.6 21.1337Z" fill="#38A1FF"/>
<path d="M75.4861 11.2437C75.1465 11.5246 74.875 11.8788 74.6921 12.2798C74.5092 12.6807 74.4196 13.1179 74.4302 13.5585C74.4133 13.9352 74.4844 14.3107 74.6376 14.6553C74.7908 14.9999 75.022 15.3041 75.313 15.544C75.5898 15.7312 75.9031 15.8576 76.2322 15.9149C76.5614 15.9722 76.899 15.959 77.2227 15.8763C77.6252 15.7974 78.0063 15.6336 78.3405 15.396C78.6748 15.1583 78.9547 14.8522 79.1615 14.498C79.4427 14.0049 79.5566 13.4339 79.4862 12.8706C79.4158 12.3073 79.1649 11.782 78.771 11.3731C78.3204 10.98 77.7489 10.7527 77.1513 10.7292C76.5538 10.7057 75.9662 10.8872 75.4861 11.2437Z" fill="#38A1FF"/>
<path d="M85.533 96.7663C85.8341 96.8197 86.1431 96.8067 86.4387 96.7284C86.7342 96.6502 87.0092 96.5084 87.2444 96.313C87.4877 96.0708 87.6722 95.776 87.7839 95.4514C87.8955 95.1267 87.9312 94.7807 87.8883 94.4401C87.8625 94.0373 87.7466 93.6455 87.5491 93.2935C87.3517 92.9415 87.0777 92.6383 86.7474 92.4064C86.3574 92.1759 85.9125 92.0545 85.4595 92.0549C85.144 92.0489 84.8308 92.1098 84.5404 92.2334C84.2501 92.3571 83.9892 92.5408 83.7749 92.7724C83.4488 93.1767 83.2614 93.6751 83.2403 94.1941C83.2192 94.7131 83.3655 95.2251 83.6578 95.6545C83.874 95.9618 84.153 96.2198 84.4762 96.4114C84.7994 96.6031 85.1596 96.724 85.533 96.7663Z" fill="#38A1FF"/>
<path d="M65.3348 65.7748C65.2175 65.2167 65.028 64.6761 64.7713 64.1669C64.7696 64.1547 64.7639 64.1433 64.7552 64.1347C64.6825 63.9495 64.5697 63.7827 64.4249 63.6463C64.28 63.5099 64.1067 63.4073 63.9175 63.346L45.7203 59.7257C45.5389 59.6985 45.3554 59.6877 45.172 59.6935C42.8052 55.2647 35.1236 41.2398 33.0301 41.6411C31.0974 42.0071 8.63215 55.4055 5.95904 59.5281C5.84542 59.6725 5.76138 59.8378 5.71171 60.0147C5.66205 60.1915 5.64774 60.3764 5.6696 60.5588C6.31357 63.2648 19.3897 76.3731 20.8713 77.8708C21.0608 78.0509 21.1709 78.2987 21.1776 78.56C21.2576 78.9727 21.4552 79.3534 21.7466 79.6564C22.038 79.9593 22.4108 80.1716 22.8201 80.2675L38.4736 83.8457C38.627 83.8775 38.7832 83.8939 38.9399 83.8947C39.4116 83.892 39.8693 83.7335 40.2416 83.4437L64.2399 64.9234C64.4489 65.503 65.0929 66.6945 64.465 67.242C57.3147 73.5063 49.2273 78.4505 41.8228 84.3603C41.5494 84.59 41.9193 85.0532 42.1934 84.8434C49.5527 79.5133 58.0069 74.7146 64.4811 68.2565C64.5132 68.2404 64.5293 68.2404 64.5576 68.2244C64.9136 67.9376 65.1771 67.5524 65.3153 67.1167C65.4535 66.6811 65.4603 66.2143 65.3348 65.7748ZM6.39397 60.3819C6.39397 60.3819 6.36181 60.2533 6.58769 59.9309C9.08315 56.0824 31.3394 42.7161 33.1748 42.3777C34.3663 42.3777 39.7776 51.1834 44.3994 59.836C44.3994 59.836 44.061 60.0932 44.0288 60.1093C43.7072 60.3513 43.3849 60.5925 43.0464 60.8345C40.3411 62.8314 37.6198 64.7963 34.9298 66.8254C31.867 69.0797 28.6648 71.1731 25.7183 73.5729C24.768 74.3455 23.7535 75.0538 22.7711 75.7789C22.4622 75.9907 22.1664 76.2208 21.8851 76.468C21.6439 76.6978 21.4502 76.9191 21.196 77.1281C17.0068 72.9266 6.87713 62.4593 6.39397 60.3819ZM39.8097 82.8311C39.6479 82.9577 39.4598 83.0465 39.2592 83.091C39.0586 83.1355 38.8506 83.1347 38.6504 83.0884L22.9969 79.5133C22.7251 79.4546 22.4771 79.3159 22.2849 79.115C22.0926 78.9141 21.9648 78.6603 21.9181 78.3862C21.8448 78.0266 21.9082 77.6526 22.0957 77.3371L44.4959 60.6714C44.7295 60.5006 45.0121 60.4103 45.3014 60.4141C45.3933 60.4169 45.4848 60.4276 45.5748 60.4462L63.7728 64.0696C63.8461 64.0969 63.9084 64.1478 63.9496 64.2143L39.8097 82.8311Z" fill="#191919"/>
<path d="M16.4594 54.2623C13.6263 55.9208 11.0642 57.7731 8.37502 59.6407C8.30218 59.6876 8.24052 59.75 8.1944 59.8234C8.14828 59.8968 8.11881 59.9794 8.10808 60.0654C8.09734 60.1514 8.10561 60.2387 8.13228 60.3212C8.15896 60.4036 8.20339 60.4793 8.26246 60.5427C9.19663 61.751 10.163 63.1515 11.4831 63.9409C11.7893 64.1178 12.1913 63.7112 11.9501 63.4738C11.005 62.4806 10.1532 61.4026 9.40567 60.2533C11.7176 58.2548 14.1659 56.4198 16.7328 54.7615C17.0391 54.5525 16.765 54.0693 16.4594 54.2623Z" fill="#191919"/>
<path d="M25.5905 70.9465C31.3981 67.6854 36.9524 63.9924 42.2065 59.8988C42.2987 59.8416 42.3652 59.7511 42.3921 59.6461C42.4191 59.541 42.4044 59.4297 42.3512 59.3352C40.0248 55.0103 37.4447 50.8268 34.6244 46.8066C34.5988 46.7638 34.5573 46.733 34.509 46.7209C34.4607 46.7087 34.4095 46.7163 34.3667 46.7419C34.324 46.7675 34.2932 46.809 34.281 46.8573C34.2689 46.9056 34.2764 46.9568 34.302 46.9995C35.3978 49.1435 36.7523 51.1221 37.9775 53.1835C39.0242 54.9553 40.5863 58.0143 41.1016 59.045C41.157 59.1564 41.1744 59.283 41.151 59.4053C41.1277 59.5275 41.0648 59.6388 40.9722 59.7219C39.6842 60.8329 34.7561 64.2473 32.9528 65.4709C30.4566 67.1616 27.7192 68.6754 25.3034 70.4794C25.2698 70.4968 25.2401 70.5209 25.2163 70.5502C25.1925 70.5796 25.1749 70.6135 25.1648 70.6499C25.1547 70.6864 25.1522 70.7245 25.1575 70.7619C25.1628 70.7994 25.1757 70.8353 25.1955 70.8675C25.2153 70.8997 25.2415 70.9275 25.2725 70.9491C25.3036 70.9707 25.3387 70.9857 25.3758 70.9931C25.4129 71.0005 25.4511 71.0002 25.488 70.9922C25.525 70.9842 25.5598 70.9686 25.5905 70.9465Z" fill="#191919"/>
<path d="M115.547 119.66L115.531 119.644C114.967 119.226 114.967 120.595 115.531 120.176L115.547 120.16C115.588 120.132 115.621 120.095 115.645 120.052C115.668 120.008 115.68 119.959 115.68 119.91C115.68 119.861 115.668 119.812 115.645 119.769C115.621 119.725 115.588 119.688 115.547 119.66Z" fill="#191919"/>
<path d="M135.323 75.6809C135.323 75.6809 138.012 73.9573 135.725 72.8301C135.725 72.8301 137.577 70.8492 135.709 69.9641C135.709 69.9641 136.917 68.6432 136.675 67.5138H136.723C136.86 67.6856 137.029 67.828 137.222 67.9326C138.543 68.5766 139.01 67.8032 139.01 67.8032C139.01 67.8032 138.543 69.8645 139.623 70.3638C139.888 70.518 140.201 70.5689 140.501 70.5066C140.801 70.4442 141.068 70.2731 141.249 70.0261C141.116 70.1892 141.021 70.3798 140.97 70.5841C140.92 70.7884 140.915 71.0014 140.957 71.2078C140.998 71.4141 141.085 71.6087 141.211 71.7775C141.337 71.9463 141.498 72.085 141.684 72.1839C143.102 73.0376 143.553 71.9909 143.553 71.9909C143.378 72.3723 143.348 72.8038 143.466 73.2061C143.584 73.6083 143.844 73.9544 144.197 74.1809C145.468 74.9374 146.723 73.4396 146.677 72.7153C146.596 71.2819 145.791 70.801 144.422 70.7665C144.422 70.7665 144.728 67.5781 142.425 68.6892C142.425 68.6892 142.007 66.016 140.154 66.9341C140.154 66.9341 139.848 65.0658 138.721 64.6309C139.212 64.2456 139.606 63.7508 139.872 63.186C140.138 62.6213 140.268 62.0021 140.252 61.3781C140.287 60.5775 140.052 59.7885 139.584 59.1374C139.117 58.4863 138.445 58.0107 137.676 57.7869C137.676 57.7869 140.864 57.4646 139.141 54.1636C137.418 50.8626 134.777 52.5854 134.777 52.5854C134.777 52.5854 135.356 50.8618 133.199 49.9284C132.152 49.4774 131.12 50.0892 130.332 50.8296C130.102 50.1405 129.688 49.5279 128.882 49.6221C128.476 49.7162 128.111 49.937 127.838 50.2527C127.566 50.5684 127.402 50.9624 127.368 51.3779C127.14 51.1872 126.86 51.0697 126.564 51.0409C126.268 51.0121 125.97 51.0732 125.71 51.2163C124.714 51.812 125.211 52.4889 125.646 52.8749C124.554 53.2488 123.54 53.8163 122.65 54.5502C121.266 55.6955 120.224 57.1997 119.639 58.898C119.342 59.7438 119.169 60.6278 119.123 61.5228C119.082 62.24 119.164 62.9589 119.365 63.6485C119.134 63.7266 118.928 63.8658 118.769 64.0512C117.851 65.1944 118.56 65.8392 118.56 65.8392C118.56 65.8392 116.627 64.9854 115.919 65.9356C115.833 66.0612 115.763 66.1964 115.71 66.3384C115.641 66.259 115.582 66.1725 115.532 66.0804C114.669 64.6571 113.987 63.1314 113.503 61.5389C111.571 55.6291 110.395 48.7362 109.412 42.6487C109.123 40.909 108.866 39.1641 108.64 37.4151C108.61 36.9353 108.448 36.473 108.173 36.0789C108.026 35.9265 107.841 35.8152 107.638 35.7558C107.435 35.6965 107.219 35.6912 107.013 35.7405C106.553 35.8715 106.106 36.044 105.676 36.2558C105.209 36.4327 104.774 36.6425 104.323 36.8515C103.022 37.4794 101.78 38.2528 100.507 38.9289C99.2364 39.5806 98.0242 40.3404 96.8838 41.2C96.7457 41.3023 96.6113 41.4095 96.481 41.5216C95.7406 42.1173 96.5132 42.0209 98.1396 41.1679C99.3479 40.5231 100.507 39.7988 101.715 39.1387C102.626 38.6367 103.555 38.1693 104.501 37.7375C105.304 37.3073 106.133 36.9256 106.981 36.5942C107.144 36.5224 107.329 36.5166 107.497 36.5782C107.573 36.6103 107.657 36.7872 107.706 37.1096C107.802 37.8179 107.899 38.5751 107.996 39.3478C108.707 45.2839 109.771 51.1722 111.184 56.9814C111.81 59.5798 112.679 62.1138 113.777 64.5505C114.224 65.5187 114.798 66.4231 115.484 67.2397C115.202 67.077 114.869 67.0248 114.551 67.0933C114.233 67.1618 113.951 67.346 113.761 67.6103C112.666 68.8354 113.6 69.4786 113.6 69.4786C113.259 69.2363 112.842 69.1241 112.426 69.1625C112.009 69.2008 111.62 69.3871 111.329 69.6876C110.347 70.7826 111.571 72.3125 112.279 72.409C113.697 72.6027 114.324 71.9097 114.63 70.5713C114.63 70.5713 117.707 71.4725 117.046 69.0092C117.046 69.0092 119.751 69.1057 119.204 67.1248C119.204 67.1248 120.798 67.1409 121.072 66.4165C121.499 66.8709 121.993 67.2566 122.538 67.5597C123.896 68.2501 125.461 68.4163 126.933 68.0268C127.668 67.8556 128.398 67.6677 129.124 67.4632C128.776 67.7415 128.508 68.1087 128.351 68.5261C128.205 69.0555 128.173 69.6095 128.254 70.1524C127.642 70.2811 126.885 70.5552 126.741 71.2313C126.693 71.4101 126.683 71.5966 126.711 71.7793C126.739 71.9621 126.803 72.1373 126.901 72.2941C125.906 72.471 124.888 72.6487 123.907 72.922C123.278 73.0836 122.763 73.164 122.875 72.3094C123.005 71.2949 123.616 70.409 123.632 69.3783C123.63 69.3094 123.605 69.2432 123.562 69.1893C123.519 69.1354 123.46 69.0966 123.394 69.0787C123.327 69.0607 123.257 69.0645 123.192 69.0895C123.128 69.1144 123.074 69.1593 123.037 69.2175C122.411 70.2796 121.985 71.4475 121.78 72.6632C121.72 72.9449 121.757 73.2388 121.886 73.4965C122.015 73.7542 122.227 73.9602 122.489 74.0806C122.969 74.2337 123.487 74.2164 123.955 74.0315C124.458 73.9639 124.953 73.8508 125.436 73.6939C124.953 75.2398 126.064 75.4489 126.064 75.4489C125.652 75.3692 125.225 75.441 124.861 75.6509C124.497 75.8609 124.221 76.1951 124.083 76.5921C123.649 78.0094 125.385 78.8793 126.08 78.6695C127.449 78.2675 127.739 77.3815 127.465 76.0285C127.465 76.0285 130.638 75.5936 129.027 73.6135C129.027 73.6135 131.523 72.5989 130.219 71.0047C130.219 71.0047 133.282 69.7321 131.685 67.7994L133.182 67.7029C133.163 67.8746 133.169 68.0481 133.199 68.2182C133.505 69.6517 134.406 69.5552 134.406 69.5552C134.406 69.5552 132.492 70.4572 132.764 71.6165C132.804 71.9219 132.957 72.2012 133.192 72.4006C133.427 72.5999 133.728 72.7049 134.035 72.6954C133.824 72.6911 133.614 72.7334 133.421 72.8193C133.228 72.9052 133.056 73.0326 132.918 73.1925C132.779 73.3524 132.678 73.5407 132.621 73.7443C132.563 73.9478 132.551 74.1614 132.586 74.37C132.78 75.9964 133.888 75.723 133.888 75.723C133.478 75.8228 133.118 76.0662 132.873 76.4089C132.628 76.7515 132.513 77.1708 132.551 77.5906C132.744 79.0562 134.695 79.122 135.224 78.6534C136.24 77.71 136.143 76.7919 135.323 75.6809ZM120.652 64.8269C120.37 64.3383 120.159 63.8124 120.024 63.2648C119.916 62.7951 119.872 62.3129 119.895 61.8314C122.039 60.9937 124.774 60.189 127.061 60.9294C127.917 61.2286 128.655 61.793 129.167 62.5406C129.68 63.2881 129.941 64.1798 129.911 65.0857C128.269 65.8085 123.116 67.7251 120.652 64.8269ZM121.892 56.388C122.798 55.2402 123.955 54.3148 125.273 53.6827C125.58 53.538 125.869 53.4086 126.159 53.296C126.772 53.94 128.074 52.9415 128.349 52.7164H128.426C129.119 53.6827 130.535 53.0066 130.6 52.9744C130.584 53.0066 130.375 53.4736 131.019 54.0533C131.607 54.5919 132.282 55.0273 133.016 55.3412C133.016 55.3412 132.983 55.4377 132.516 56.8229C132.401 57.1259 132.401 57.461 132.516 57.7641C132.632 58.0671 132.856 58.3167 133.144 58.4653C132.404 62.2503 132.225 63.1515 132.225 63.1515C132.241 63.0872 132.563 63.1354 132.595 63.1354C133.014 63.2005 133.642 63.2648 133.82 63.748C133.894 63.9753 133.908 64.2179 133.861 64.4522C133.814 64.6865 133.707 64.9047 133.551 65.0857C133.258 65.4308 132.864 65.6735 132.424 65.7787C132.2 65.8065 131.973 65.7848 131.759 65.7152C131.545 65.6456 131.348 65.5298 131.184 65.3759C131.037 65.2582 130.857 65.1903 130.669 65.1822C130.916 64.1595 130.794 63.082 130.322 62.1414C129.85 61.2008 129.06 60.4579 128.092 60.045C125.74 58.934 122.31 59.8038 120.024 60.9792C120.024 60.9149 120.04 60.8666 120.04 60.8023C120.247 59.1905 120.887 57.6649 121.892 56.388Z" fill="#191919"/>
<path d="M123.228 59.0289C123.663 59.0289 123.679 58.9003 123.486 58.7877C123.309 58.6591 122.797 58.4493 122.697 57.9179C122.504 56.855 125.161 56.2754 125.853 56.0334C126.256 55.8887 126.32 55.7922 126.03 55.7118C125.439 55.6294 124.838 55.69 124.275 55.8887C123.606 56.0097 122.973 56.2795 122.423 56.6782C122.281 56.8044 122.167 56.9594 122.089 57.1329C122.011 57.3064 121.97 57.4945 121.97 57.6847C121.97 57.8749 122.011 58.063 122.089 58.2365C122.167 58.41 122.281 58.565 122.423 58.6912C122.65 58.8839 122.932 59.0018 123.228 59.0289Z" fill="#191919"/>
<path d="M127.577 57.9822C128.018 57.7853 128.385 57.4526 128.624 57.0327C128.752 56.7104 128.494 56.6139 128.043 56.8229C127.602 57.0201 127.235 57.353 126.996 57.7732C126.868 58.0948 127.126 58.1943 127.577 57.9822Z" fill="#191919"/>
<path d="M128.237 62.4432C127.708 62.7303 127.159 62.9778 126.594 63.1837C125.724 63.5141 124.803 63.6886 123.872 63.699C123.468 63.6897 123.067 63.6248 122.681 63.506C122.393 63.3959 122.127 63.238 121.892 63.039C121.537 62.7013 121.393 62.6684 121.521 63.0068C121.667 63.3578 121.9 63.6653 122.199 63.8995C122.498 64.1337 122.853 64.2867 123.228 64.3437C124.13 64.5092 125.058 64.4565 125.934 64.1901C126.811 63.9237 127.612 63.4513 128.269 62.8123C128.575 62.4111 128.51 62.3146 128.237 62.4432Z" fill="#191919"/>
<path d="M129.009 55.486C129.277 55.5324 129.522 55.6688 129.702 55.8726C130.029 56.2134 130.258 56.637 130.362 57.0978C130.436 57.4753 130.436 57.8635 130.362 58.241C130.314 58.4983 130.346 58.5794 130.491 58.45C130.753 58.1472 130.89 57.7555 130.874 57.3551C130.882 56.7606 130.663 56.1855 130.261 55.7471C130.129 55.5694 129.952 55.4307 129.748 55.3456C129.544 55.2606 129.321 55.2323 129.102 55.2639C128.849 55.3734 128.897 55.4538 129.009 55.486Z" fill="#191919"/>
<path d="M102.873 41.54C102.042 41.9008 101.249 42.3432 100.506 42.8609C99.7852 43.3049 99.1013 43.8058 98.4605 44.3586C98.4283 44.3747 98.4123 44.4068 98.3839 44.439C98.2392 44.5516 98.0776 44.4229 97.9972 44.246C97.8264 43.7975 97.5945 43.3747 97.3081 42.9895C96.841 42.4259 96.6802 42.4742 96.7928 42.893C96.8571 43.1018 96.9536 43.4239 97.0822 43.8594C97.1462 44.1376 97.227 44.4117 97.3242 44.6802C97.3794 44.8337 97.4669 44.9735 97.5808 45.0902C97.6947 45.207 97.8322 45.298 97.9842 45.3571C98.1414 45.4037 98.3078 45.4103 98.4682 45.3765C98.6286 45.3427 98.7781 45.2694 98.9031 45.1634C100.175 44.3586 101.383 43.4566 102.575 42.7483C103.766 42.0553 104.877 41.5078 105.49 41.1058C106.72 40.3486 105.563 40.4297 102.873 41.54Z" fill="#191919"/>
<path d="M139.171 78.096C138.482 77.5003 137.753 77.9513 138.398 78.5952C151.136 91.5595 148.623 110.352 135.692 122.076C135.419 122.318 135.773 122.785 136.079 122.576C151.458 112.607 151.539 88.6284 139.171 78.096Z" fill="#191919"/>
<path d="M133.148 122.608C132.698 121.898 132.215 121.21 131.699 120.546C130.904 119.623 130.163 118.655 129.479 117.647C128.722 116.281 127.849 114.983 126.87 113.767C126.836 113.725 126.799 113.687 126.757 113.653C126.886 113.525 127.031 113.396 127.16 113.271C129.125 111.306 130.655 110.146 131.62 107.36C133.247 102.674 132.506 96.7166 128.481 93.5266C128.288 93.3658 128.014 93.6231 128.191 93.8168C134.552 100.5 130.606 109.84 123.666 114.091C123.536 114.169 123.432 114.285 123.369 114.423C123.305 114.561 123.285 114.715 123.311 114.865C124.047 118.188 125.634 121.262 127.917 123.786C128.288 124.237 128.913 123.657 128.675 123.19C127.853 121.532 126.468 119.583 125.679 117.65C125.422 117.029 125.18 116.401 124.955 115.767C124.907 115.64 124.902 115.5 124.939 115.37C124.977 115.239 125.056 115.124 125.164 115.042C125.454 114.8 125.904 114.429 126.42 113.963C126.742 114.575 127.305 115.67 128.062 117.167C128.964 119.052 130.542 120.694 131.669 122.208C131.959 122.591 132.218 122.965 132.459 123.335C132.878 123.818 130.768 124.736 130.446 124.867C129.527 125.269 129.399 125.398 130.092 125.382C130.622 125.33 131.142 125.205 131.638 125.011C132.266 124.77 133.377 124.432 133.457 123.627C133.476 123.445 133.458 123.261 133.405 123.086C133.352 122.911 133.264 122.749 133.148 122.608Z" fill="#191919"/>
<path d="M97.6079 48.4651C98.8002 57.1942 101.908 75.4228 113.152 77.6457C113.243 77.6676 113.338 77.6534 113.419 77.6061C113.499 77.5589 113.558 77.4822 113.583 77.3924C113.608 77.3025 113.597 77.2065 113.553 77.1244C113.508 77.0424 113.434 76.9809 113.345 76.9527C102.523 73.4419 99.9143 57.6123 98.5934 48.191C98.4923 47.5508 97.5099 47.8211 97.6079 48.4651Z" fill="#191919"/>
<path d="M96.6243 22.9561C101.794 24.1965 104.145 29.9294 106.078 34.3576C106.223 34.6799 106.754 34.4548 106.657 34.1164C105.192 29.382 102.245 23.182 96.8341 22.2156C96.3509 22.1352 96.1419 22.8435 96.6243 22.9561Z" fill="#191919"/>
<path d="M118.187 109.644C121.707 106.555 124.445 102.675 126.175 98.323C126.32 97.9685 125.837 97.6622 125.644 98.0167C122.887 103.46 119.412 108.002 114.628 111.012C113.903 110.567 113.27 109.988 112.761 109.306L112.31 109.015C112.213 108.951 112.133 108.871 112.036 108.806C114.599 107.009 116.792 104.735 118.494 102.107C118.735 101.724 118.139 101.399 117.898 101.753C116.094 104.394 113.711 106.31 111.231 108.179C109.928 107.033 108.894 105.615 108.203 104.024C108.074 103.72 107.918 103.429 107.736 103.154C110.023 100.609 112.535 98.2748 114.967 95.875C115.024 95.8174 115.057 95.7391 115.057 95.6576C115.057 95.576 115.024 95.4978 114.967 95.4401C114.909 95.3824 114.831 95.35 114.749 95.35C114.668 95.35 114.59 95.3824 114.532 95.4401C112.133 97.6783 109.33 99.9012 107.124 102.494C103.469 100.158 102.212 97.5014 101.826 96.3904C101.773 96.2329 101.671 96.0966 101.534 96.0011C101.398 95.9056 101.235 95.8558 101.069 95.859C99.6035 95.9233 95.5613 96.1162 90.65 96.5672C88.9754 98.4677 83.9669 103.508 78.1375 103.186C77.9303 103.171 77.7299 103.106 77.5532 102.996C77.3766 102.887 77.229 102.737 77.1229 102.558L74.8663 98.9348C70.8724 99.869 67.4267 101.06 65.4136 102.59C56.7013 109.209 54.9784 120.53 55.153 129.291C48.0993 131.205 42.6083 132.399 40.7078 132.802C39.3563 130.637 37.9221 128.526 36.4083 126.472C35.4895 125.233 34.5239 123.993 33.445 122.785C33.1287 122.401 32.7178 122.107 32.2528 121.931C31.9501 121.828 31.6227 121.822 31.3166 121.915C31.0105 122.007 30.741 122.193 30.546 122.447C29.9503 123.236 30.6425 124.443 30.9166 125.233C31.9473 128.276 33.1372 131.272 34.3953 134.038C34.9598 135.44 35.7245 136.753 36.6656 137.936C37.1118 138.515 37.6929 138.976 38.3582 139.279C39.0235 139.582 39.7529 139.718 40.4827 139.675C41.1127 139.583 41.7327 139.432 42.3342 139.224C42.495 139.175 42.6727 139.111 42.8335 139.063C47.1668 138.373 51.4838 137.584 55.7809 136.695C56.055 138.596 56.3445 140.064 56.5221 140.898C56.506 141.446 56.4739 142.01 56.4578 142.654C56.2641 142.731 56.055 142.815 55.8292 142.895C52.9803 144.051 50.2193 145.413 47.5679 146.97C47.0525 147.276 46.3121 147.659 46.3603 148.371C46.4086 148.999 47.1008 149.273 47.6483 149.29C52.3403 149.539 57.013 148.521 61.1761 146.343C61.7075 146.052 62.1907 145.779 62.2389 145.103C62.2192 144.563 62.0933 144.032 61.8683 143.54C61.4013 142.268 60.9985 141.157 60.6608 140.255C60.7895 139.482 61.1111 137.711 61.595 135.408C74.0371 132.63 86.2103 128.761 97.9733 123.846C100.63 122.703 105.51 121.672 107.572 120.561C110.841 118.643 113.414 115.732 114.915 112.251C116.062 111.399 117.205 110.465 118.187 109.644ZM38.6664 138.441C37.135 137.619 36.3149 135.945 35.6227 134.431C34.6885 132.418 33.8516 130.373 33.0622 128.295C32.5951 127.055 32.128 125.783 31.7092 124.527C31.5653 124.117 31.4313 123.703 31.3072 123.287C31.275 123.11 31.275 123.078 31.3072 123.013C31.3751 122.928 31.4725 122.87 31.5805 122.852C32.0637 122.691 32.6755 123.432 33.223 124.06C35.4298 126.637 37.3134 129.23 38.9237 131.5C39.2943 132.031 39.6486 132.547 39.9865 133.046L41.8388 138.473C40.7438 138.792 39.681 139.018 38.6664 138.441ZM61.2282 144.142C61.2988 144.352 61.3526 144.567 61.389 144.786C61.4051 144.931 61.3408 145.075 61.3568 145.205C61.3568 145.414 60.5031 145.704 60.3614 145.768C56.5169 147.549 52.3086 148.404 48.074 148.264C48.0097 148.264 47.414 148.216 47.623 148.071C50.4705 146.357 53.4173 144.813 56.4479 143.449C56.7702 143.304 57.0604 143.208 57.1247 142.805C57.1595 142.397 57.1541 141.987 57.1087 141.58L60.2167 140.774C60.2718 140.845 60.7826 142.772 61.2282 144.139V144.142ZM95.7872 112.755C87.5259 118.456 75.4314 123.11 64.6096 126.507C64.6257 127.75 64.5667 128.993 64.4327 130.228C64.2719 131.822 63.9817 132.466 63.6272 131.629C63.2429 130.131 63.2167 128.564 63.5506 127.055C63.6145 126.738 63.7007 126.426 63.8087 126.122C65.4167 120.469 67.5928 114.687 70.2338 111.853C74.083 107.731 87.3199 108.214 94.7925 108.858C95.23 108.9 95.6439 109.076 95.9777 109.362C96.3115 109.648 96.549 110.03 96.6577 110.456C96.7665 110.881 96.7413 111.33 96.5855 111.741C96.4297 112.152 96.1509 112.505 95.7872 112.752V112.755Z" fill="#191919"/>
<path d="M90.8911 26.29C92.1695 26.0296 93.4844 26.0024 94.7725 26.2096C95.8614 26.5734 96.9309 26.9925 97.977 27.4654C98.0686 27.488 98.1651 27.4802 98.2519 27.4432C98.3387 27.4062 98.4111 27.3421 98.4583 27.2604C98.5056 27.1788 98.525 27.084 98.5137 26.9903C98.5025 26.8967 98.4611 26.8092 98.3959 26.741C96.1753 24.8405 93.3713 24.7601 90.6821 25.5159C90.5831 25.5468 90.4999 25.6148 90.4499 25.7058C90.4 25.7967 90.3872 25.9034 90.4143 26.0035C90.4413 26.1036 90.5061 26.1894 90.595 26.2428C90.6839 26.2962 90.79 26.3132 90.8911 26.29Z" fill="#191919"/>
<path d="M93.2436 30.0259C94.0974 29.9294 94.7414 30.3483 95.53 30.4608C95.6214 30.4818 95.717 30.473 95.803 30.4356C95.8889 30.3982 95.9606 30.3342 96.0074 30.2531C96.0543 30.1719 96.0739 30.0779 96.0634 29.9847C96.0528 29.8916 96.0127 29.8043 95.9489 29.7357C95.1112 28.6729 92.9856 28.7219 91.9388 29.4294C91.3708 29.7906 90.9532 30.3456 90.7635 30.9915C90.5866 31.7962 91.1984 32.3767 91.7589 32.8292C92.0652 33.0712 92.4833 32.6684 92.1938 32.395C92.0525 32.2976 91.9334 32.1715 91.8441 32.0249C91.7549 31.8783 91.6976 31.7146 91.6759 31.5443C91.6542 31.3741 91.6687 31.2012 91.7183 31.0369C91.768 30.8727 91.8517 30.7207 91.9641 30.591C92.3235 30.2773 92.7697 30.0802 93.2436 30.0259Z" fill="#191919"/>
<path d="M121.843 76.5982C121.827 76.2919 121.328 76.1801 121.279 76.5216C121.032 78.3634 120.622 80.1796 120.054 81.949C120.027 82.0515 120.04 82.1605 120.091 82.2535C120.143 82.3464 120.227 82.4162 120.328 82.4483C121.229 82.5179 122.134 82.4251 123.002 82.1741C124.113 81.949 125.24 81.7392 126.351 81.5141C126.866 81.4015 126.657 80.5952 126.126 80.7086C125.288 80.8862 124.466 81.0792 123.629 81.2729C122.767 81.5369 121.874 81.6829 120.972 81.707C121.588 80.0759 121.884 78.3413 121.843 76.5982Z" fill="#191919"/>
<path d="M121.199 69.1264C117.27 69.9311 115.111 74.9879 114.032 78.4183C114.015 78.4936 114.019 78.5725 114.044 78.6455C114.07 78.7186 114.116 78.7827 114.177 78.8303C114.238 78.8778 114.312 78.9068 114.389 78.9137C114.466 78.9206 114.544 78.9052 114.612 78.8693C116.272 77.9091 117.994 77.0591 119.765 76.3248C120.12 76.164 119.863 75.5836 119.492 75.697C117.958 76.1942 116.484 76.8585 115.095 77.6779C116.126 74.5208 118.026 70.3178 121.311 69.5774C121.371 69.5624 121.423 69.5244 121.454 69.4715C121.486 69.4187 121.495 69.3554 121.481 69.2956C121.466 69.2358 121.428 69.1844 121.375 69.1526C121.322 69.1209 121.259 69.1114 121.199 69.1264Z" fill="#191919"/>
<path d="M115.128 119.596C114.821 119.967 115.321 120.482 115.659 120.128C116.481 119.29 118.703 119.145 119.028 120.74C119.071 120.894 119.173 121.024 119.312 121.103C119.451 121.181 119.615 121.202 119.769 121.159C121.106 120.74 122.41 120.273 123.746 119.886C124.129 119.774 124.085 119.114 123.65 119.146C122.359 119.246 121.084 119.495 119.85 119.886C118.719 118.469 116.384 118.098 115.128 119.596Z" fill="#191919"/>
<path d="M119.959 124.572C120.378 124.363 120.055 123.815 119.669 123.863C117.543 124.186 115.176 124.314 113.356 122.978C113.034 122.736 112.744 123.236 112.953 123.494C114.483 125.458 117.866 125.571 119.959 124.572Z" fill="#191919"/>
<path d="M121.377 127.406C121.666 127.213 121.602 126.634 121.183 126.682C120.008 126.811 118.913 127.295 117.72 127.406C116.291 127.509 114.858 127.237 113.566 126.618C113.491 126.579 113.405 126.57 113.324 126.594C113.243 126.618 113.175 126.672 113.134 126.745C113.092 126.818 113.08 126.904 113.101 126.985C113.121 127.067 113.173 127.137 113.244 127.181C114.415 128.044 115.822 128.528 117.275 128.568C118.729 128.608 120.16 128.203 121.377 127.406Z" fill="#191919"/>
<path d="M126.481 127.697C123.26 129.114 120.491 130.223 116.883 129.726C116.529 129.678 116.352 130.176 116.722 130.289C120.091 131.256 124.355 130.902 126.884 128.244C126.942 128.186 126.977 128.109 126.983 128.027C126.989 127.945 126.966 127.864 126.917 127.797C126.868 127.731 126.798 127.685 126.718 127.666C126.638 127.648 126.554 127.659 126.481 127.697Z" fill="#191919"/>
<path d="M66.2514 27.4891C65.6728 27.5988 65.149 27.9024 64.7663 28.35C64.3836 28.7976 64.1649 29.3623 64.1465 29.9509C64.1537 30.386 64.2611 30.8137 64.4602 31.2006C64.6594 31.5876 64.9451 31.9235 65.2951 32.1822C65.5495 32.4278 65.8603 32.6072 66.2003 32.7047C66.5402 32.8021 66.8989 32.8147 67.2448 32.7412C67.5907 32.6677 67.9133 32.5105 68.1843 32.2832C68.4553 32.056 68.6663 31.7657 68.799 31.4379C68.9823 31.0771 69.0872 30.6816 69.1069 30.2774C69.1265 29.8732 69.0605 29.4694 68.9131 29.0925C68.7071 28.57 68.3348 28.1299 67.8538 27.8401C67.3727 27.5503 66.8096 27.4269 66.2514 27.4891Z" fill="#38A1FF"/>
</svg>
