<svg width="154" height="154" viewBox="0 0 154 154" fill="none" xmlns="http://www.w3.org/2000/svg">
<path d="M71.4824 77.0454C71.5207 75.2016 71.5781 73.3761 70.8637 71.6854C69.9257 69.5353 67.7388 69.6241 66.3904 71.373C66.0231 71.8632 65.7147 72.395 65.4715 72.9572C63.9263 76.1732 63.8306 79.5807 63.9018 83.1412C63.9032 83.221 63.9226 83.2995 63.9587 83.3706C63.9948 83.4418 64.0466 83.5038 64.1101 83.552C64.1737 83.6003 64.2474 83.6334 64.3257 83.649C64.4039 83.6646 64.4847 83.6622 64.5619 83.642C66.1905 83.2125 67.2687 82.1313 68.4938 80.9812C69.6192 80.0275 70.5856 78.9008 71.3568 77.6434C71.4256 77.5833 71.4682 77.4987 71.4755 77.4076C71.5119 77.3545 71.532 77.2919 71.5332 77.2275C71.5345 77.1631 71.5168 77.0998 71.4824 77.0454Z" fill="#38A1FF"/>
<path d="M55.8823 72.0299C55.54 70.0396 55.4142 68.0181 55.5071 66.0007C55.5041 65.9521 55.511 65.9033 55.5273 65.8574C55.5436 65.8115 55.5691 65.7694 55.6021 65.7336C55.6351 65.6977 55.675 65.669 55.7194 65.6489C55.7639 65.6289 55.8119 65.6181 55.8606 65.6171C55.9093 65.6162 55.9577 65.625 56.0029 65.6432C56.0481 65.6614 56.0891 65.6886 56.1236 65.7231C56.158 65.7575 56.1851 65.7986 56.2033 65.8438C56.2214 65.889 56.2302 65.9375 56.2292 65.9862C56.3004 66.8621 56.7231 70.3507 57.0286 72.3286C57.047 72.4632 57.0143 72.5998 56.9371 72.7116C56.8599 72.8234 56.7437 72.9022 56.6113 72.9327C54.9428 73.3232 53.8869 75.4504 55.743 76.3991C55.7872 76.4187 55.8272 76.4468 55.8605 76.4819C55.8939 76.5169 55.9201 76.5582 55.9375 76.6034C55.9549 76.6485 55.9633 76.6967 55.9621 76.745C55.9609 76.7934 55.9502 76.8411 55.9306 76.8853C55.911 76.9296 55.8828 76.9695 55.8478 77.0029C55.8127 77.0363 55.7715 77.0624 55.7263 77.0798C55.6812 77.0973 55.633 77.1056 55.5846 77.1044C55.5363 77.1032 55.4886 77.0925 55.4443 77.0729C52.8034 76.0277 53.5163 73.0024 55.8823 72.0299Z" fill="#191919"/>
<path d="M57.2621 60.3819C59.0623 61.5159 60.9375 60.5718 62.299 58.9163C63.0099 58.0572 63.5434 57.0656 63.8687 55.999C63.9025 55.9104 63.9006 55.8121 63.8634 55.7249C63.8262 55.6377 63.7565 55.5683 63.6692 55.5314C63.5819 55.4945 63.4836 55.4929 63.3951 55.527C63.3066 55.5611 63.2348 55.6282 63.1948 55.7141C62.7014 56.6023 62.122 57.4399 61.4651 58.2149C60.4467 59.4286 59.0416 60.3291 57.589 59.7364C57.5467 59.7148 57.5005 59.7018 57.4531 59.6981C57.4057 59.6944 57.358 59.7001 57.3128 59.7149C57.2676 59.7297 57.2258 59.7533 57.1898 59.7843C57.1537 59.8154 57.1242 59.8532 57.1028 59.8957C57.0604 59.9814 57.0533 60.0804 57.0831 60.1714C57.1129 60.2623 57.1771 60.3379 57.2621 60.3819Z" fill="#191919"/>
<path d="M45.8158 62.4172C46.9085 58.9033 50.5732 57.8803 53.0327 60.0488C53.1034 60.1142 53.1969 60.1495 53.2932 60.1473C53.3895 60.145 53.4812 60.1054 53.5489 60.0369C53.6166 59.9683 53.655 59.8761 53.656 59.7797C53.6569 59.6834 53.6204 59.5904 53.5541 59.5205C50.5609 56.1958 45.7515 58.0871 45.1067 62.2579C45.0903 62.3501 45.11 62.4452 45.1619 62.5232C45.2137 62.6012 45.2937 62.6562 45.3851 62.6767C45.4765 62.6973 45.5723 62.6818 45.6525 62.6334C45.7328 62.585 45.7912 62.5076 45.8158 62.4172Z" fill="#191919"/>
<path d="M70.8192 77.184C70.2453 78.0367 69.5943 78.8349 68.8743 79.5684C68.898 78.3007 68.817 77.0333 68.6323 75.7789C68.6342 75.683 68.5978 75.5904 68.5314 75.5213C68.4649 75.4522 68.3737 75.4124 68.2778 75.4106C68.182 75.4088 68.0893 75.4451 68.0202 75.5116C67.9512 75.5781 67.9113 75.6693 67.9095 75.7651C67.8751 75.9734 67.8329 76.1886 67.8054 76.3968C67.6767 77.7398 67.7365 79.0942 67.983 80.4207C63.2356 84.6834 57.3733 85.714 52.3066 83.9851C52.2173 83.9546 52.1197 83.9598 52.0342 83.9996C51.9487 84.0395 51.8819 84.1109 51.8479 84.1989C51.8138 84.2869 51.8151 84.3846 51.8515 84.4716C51.8879 84.5587 51.9566 84.6282 52.0431 84.6658C53.7821 85.4049 55.6498 85.7933 57.5392 85.8088C59.4287 85.8243 61.3025 85.4666 63.0534 84.7561C66.5943 83.4026 69.5572 80.8644 71.4379 77.573C71.4895 77.4909 71.5064 77.3917 71.4848 77.2973C71.4633 77.2028 71.4051 77.1207 71.3231 77.0691C71.241 77.0175 71.1419 77.0007 71.0474 77.0222C70.9529 77.0437 70.8708 77.1019 70.8192 77.184Z" fill="#191919"/>
<path d="M67.1226 65.4854C67.0391 65.0811 66.8423 64.7088 66.5552 64.4121C66.2681 64.1154 65.9025 63.9065 65.5011 63.8097C65.0998 63.7128 64.6792 63.7322 64.2884 63.8654C63.8976 63.9986 63.5527 64.2402 63.294 64.562C63.1202 64.7839 62.9924 65.0382 62.9181 65.3102C62.8439 65.5821 62.8246 65.8661 62.8615 66.1455C62.8983 66.425 62.9906 66.6943 63.1328 66.9377C63.2751 67.181 63.4645 67.3935 63.6899 67.5628C64.0344 67.8239 64.4495 67.9756 64.8812 67.9982C65.3129 68.0207 65.7415 67.9131 66.1114 67.6893C66.4813 67.4654 66.7754 67.1357 66.9557 66.7427C67.136 66.3498 67.1941 65.9118 67.1226 65.4854Z" fill="#191919"/>
<path d="M52.5839 68.3362C52.1849 66.0015 49.8878 65.2327 48.7706 66.8492C48.3786 67.4817 48.2151 68.2294 48.3073 68.9678C48.3996 69.7062 48.742 70.3908 49.2775 70.9074C50.9008 72.3799 52.9866 70.6877 52.5839 68.3362Z" fill="#191919"/>
<path d="M61.0511 74.4175C61.1835 74.4235 61.3112 74.4682 61.4185 74.546C61.5258 74.6239 61.6079 74.7316 61.6546 74.8556C61.7013 74.9797 61.7106 75.1147 61.6814 75.244C61.6521 75.3733 61.5856 75.4912 61.49 75.583C61.3944 75.6749 61.274 75.7367 61.1436 75.7608C61.0133 75.7849 60.8787 75.7702 60.7566 75.7186C60.6345 75.667 60.5302 75.5807 60.4567 75.4705C60.3831 75.3602 60.3435 75.2308 60.3428 75.0982C60.3444 75.0069 60.364 74.9169 60.4005 74.8332C60.437 74.7495 60.4896 74.6739 60.5555 74.6106C60.6213 74.5474 60.6989 74.4978 60.784 74.4646C60.869 74.4315 60.9598 74.4154 61.0511 74.4175Z" fill="#191919"/>
<path d="M56.9742 75.5706C57.1066 75.5767 57.2343 75.6216 57.3414 75.6995C57.4486 75.7775 57.5306 75.8852 57.5772 76.0092C57.6238 76.1333 57.633 76.2683 57.6036 76.3975C57.5743 76.5268 57.5077 76.6446 57.4121 76.7364C57.3165 76.8282 57.1961 76.8899 57.0657 76.9139C56.9354 76.938 56.8009 76.9233 56.6788 76.8717C56.5568 76.8201 56.4525 76.7338 56.379 76.6235C56.3055 76.5133 56.2659 76.3838 56.2651 76.2513C56.2662 76.1598 56.2855 76.0695 56.3219 75.9855C56.3582 75.9016 56.411 75.8257 56.477 75.7623C56.543 75.699 56.6209 75.6494 56.7063 75.6165C56.7917 75.5835 56.8827 75.568 56.9742 75.5706Z" fill="#191919"/>
<path d="M15.6069 79.2131C18.4341 76.1146 21.7017 73.4487 25.3047 71.301C25.3479 71.2786 25.3863 71.2478 25.4175 71.2104C25.4487 71.173 25.4721 71.1297 25.4863 71.0832C25.5006 71.0366 25.5054 70.9877 25.5005 70.9392C25.4956 70.8907 25.4811 70.8437 25.4578 70.801C25.4101 70.7161 25.331 70.6534 25.2375 70.6262C25.144 70.599 25.0436 70.6095 24.9578 70.6555C20.0955 72.9618 16.8527 75.9634 15.0311 78.7828C15 78.8203 14.9768 78.8638 14.963 78.9106C14.9491 78.9574 14.945 79.0065 14.9508 79.055C14.9565 79.1034 14.9721 79.1502 14.9965 79.1925C15.0209 79.2347 15.0536 79.2716 15.0927 79.3008C15.1318 79.33 15.1764 79.3509 15.2238 79.3624C15.2712 79.3738 15.3205 79.3755 15.3686 79.3673C15.4167 79.3591 15.4626 79.3412 15.5036 79.3147C15.5446 79.2882 15.5797 79.2536 15.6069 79.2131Z" fill="#191919"/>
<path d="M9.27829 64.2082C10.4483 65.277 11.4987 66.4698 12.4108 67.7657C13.7271 69.7757 14.8949 71.8791 15.9048 74.0591C15.9407 74.1494 16.0111 74.2217 16.1003 74.2601C16.1896 74.2985 16.2904 74.2999 16.3807 74.264C16.4709 74.228 16.5432 74.1577 16.5817 74.0684C16.6201 73.9792 16.6215 73.8783 16.5855 73.7881C16.2524 72.8156 15.9048 71.85 15.4813 70.9052C14.6241 69.002 13.4886 67.2369 12.1122 65.6677C11.3963 64.8972 10.5918 64.214 9.71552 63.6324C9.67779 63.6033 9.63467 63.5821 9.58866 63.5699C9.54264 63.5576 9.49465 63.5547 9.44748 63.5611C9.40031 63.5676 9.3549 63.5834 9.31389 63.6076C9.27289 63.6318 9.2371 63.6639 9.20861 63.7021C9.15233 63.779 9.12813 63.8748 9.14113 63.9692C9.15413 64.0637 9.20331 64.1494 9.27829 64.2082Z" fill="#191919"/>
<path d="M15.5057 59.215C17.9298 62.5179 19.6832 66.264 20.6666 70.2413C20.6843 70.338 20.7396 70.4237 20.8204 70.4797C20.9012 70.5356 21.0009 70.5573 21.0977 70.5399C21.1929 70.518 21.2762 70.4605 21.3304 70.3792C21.3847 70.298 21.4058 70.199 21.3894 70.1027C20.8857 65.8464 19.0192 61.8671 16.0685 58.7586C16.0383 58.7217 16.0012 58.691 15.9592 58.6684C15.9171 58.6458 15.8711 58.6317 15.8236 58.6269C15.7762 58.6221 15.7282 58.6267 15.6825 58.6404C15.6369 58.6542 15.5943 58.6768 15.5574 58.7069C15.5204 58.7371 15.4898 58.7742 15.4672 58.8162C15.4446 58.8583 15.4305 58.9043 15.4257 58.9518C15.4209 58.9992 15.4255 59.0472 15.4392 59.0929C15.4529 59.1385 15.4755 59.1811 15.5057 59.218V59.215Z" fill="#191919"/>
<path d="M23.4859 57.3704C26.0128 65.4295 27.1828 65.6983 29.8414 77.8555C29.8505 77.903 29.8688 77.9483 29.8954 77.9886C29.922 78.029 29.9563 78.0638 29.9964 78.0909C30.0364 78.118 30.0814 78.1369 30.1288 78.1466C30.1762 78.1563 30.225 78.1565 30.2725 78.1473C30.3688 78.1288 30.454 78.0733 30.5099 77.9927C30.5657 77.9121 30.5877 77.8128 30.5711 77.7162C28.7334 66.0099 26.2869 63.003 24.1804 57.1476C24.147 57.0604 24.0815 56.9893 23.9973 56.9489C23.9131 56.9085 23.8167 56.9019 23.7278 56.9304C23.6389 56.959 23.5643 57.0204 23.5193 57.1023C23.4743 57.1841 23.4624 57.28 23.4859 57.3704Z" fill="#191919"/>
<path d="M21.286 92.607C18.0991 92.7119 16.2844 92.3153 14.9398 88.8144C13.877 86.0778 13.6618 82.6183 13.0852 80.4574C11.3631 74.2168 9.67932 72.9465 4.86987 68.7734C4.79727 68.7139 4.70454 68.6847 4.61097 68.6919C4.5174 68.6991 4.43022 68.7421 4.36756 68.812C4.3049 68.8818 4.27161 68.9732 4.2746 69.067C4.27759 69.1608 4.31665 69.2498 4.38364 69.3155C6.64096 71.3715 8.19 72.7122 9.3715 74.3309C12.037 77.9658 12.5025 83.129 12.9834 85.6398C13.5753 88.8129 14.6197 92.2441 17.6374 93.3735C16.6718 98.2572 12.1151 120.798 11.3853 123.869C11.3623 123.964 11.3779 124.064 11.4287 124.147C11.4796 124.231 11.5615 124.291 11.6564 124.314C11.7513 124.337 11.8515 124.321 11.935 124.27C12.0184 124.219 12.0782 124.138 12.1013 124.043C14.6534 114.202 15.7974 108.251 18.727 93.4577C19.614 93.5568 20.511 93.5168 21.3856 93.339C21.4336 93.3325 21.4799 93.3166 21.5218 93.2921C21.5637 93.2677 21.6004 93.2352 21.6298 93.1966C21.6592 93.158 21.6806 93.114 21.693 93.0671C21.7053 93.0202 21.7083 92.9713 21.7018 92.9232C21.6953 92.8752 21.6793 92.8289 21.6549 92.787C21.6305 92.7451 21.598 92.7084 21.5594 92.679C21.5208 92.6496 21.4768 92.6282 21.4299 92.6158C21.383 92.6035 21.3341 92.6005 21.286 92.607Z" fill="#191919"/>
<path d="M44.805 80.2468C44.2415 79.5121 43.5703 78.8668 42.8141 78.3325C42.0867 77.7385 41.2586 77.2798 40.3692 76.978C40.2941 76.9384 40.2073 76.9267 40.1244 76.9449C40.0414 76.9631 39.9676 77.0101 39.9159 77.0775C36.2658 76.932 33.428 77.9742 31.5857 79.5025C30.396 79.1723 29.1358 79.1955 27.959 79.5692C26.7822 79.943 25.7396 80.6512 24.9585 81.6075C24.0699 82.6382 23.3008 83.7661 22.6659 84.9697C22.6171 85.0527 22.6032 85.1516 22.6273 85.2448C22.6514 85.338 22.7116 85.4178 22.7945 85.4667C22.8775 85.5155 22.9765 85.5294 23.0697 85.5053C23.1629 85.4811 23.2427 85.421 23.2915 85.338C23.9689 84.2395 24.7683 83.221 25.6744 82.302C27.3682 80.6473 29.1967 79.8831 31.5505 80.6281C32.2749 80.8686 32.3009 79.5768 35.8997 78.4887C37.3379 78.0719 38.826 77.8522 40.3233 77.8356C41.3401 78.6227 40.9688 78.321 41.4443 78.6725C38.8236 79.3904 36.5745 81.0791 35.1539 83.3954C34.1202 85.2186 33.8752 87.5831 32.8897 89.2148C31.8445 90.9561 30.2748 91.4591 28.166 91.6942C27.7974 91.7415 27.4255 91.7579 27.0542 91.7432C26.9569 91.7371 26.8611 91.7692 26.7871 91.8327C26.7131 91.8962 26.6669 91.9861 26.6583 92.0832C26.654 92.1312 26.6593 92.1795 26.6738 92.2254C26.6883 92.2713 26.7117 92.3139 26.7427 92.3507C26.7738 92.3876 26.8118 92.4178 26.8546 92.4399C26.8974 92.4619 26.9442 92.4752 26.9922 92.4791C28.5877 92.6224 30.1941 92.3768 31.6738 91.7631C31.2695 93.4385 30.8483 95.1101 30.4747 96.7916C30.1898 98.0841 25.7441 121.536 25.3834 123.349C25.3643 123.443 25.3829 123.542 25.4352 123.623C25.4876 123.704 25.5695 123.762 25.6636 123.783C25.7577 123.805 25.8565 123.789 25.9391 123.739C26.0216 123.689 26.0813 123.608 26.1055 123.515C28.3544 114.182 30.6783 100.365 32.5597 91.1881C34.8645 89.3351 34.8568 86.1436 36.0988 83.9215C37.4671 81.7497 39.5421 80.1158 41.9742 79.295C41.5879 79.7684 41.3138 80.3231 41.1725 80.9176C41.134 81.0047 41.131 81.1034 41.1642 81.1926C41.1974 81.2819 41.2642 81.3546 41.3503 81.3954C41.4363 81.4361 41.5349 81.4416 41.625 81.4107C41.7151 81.3798 41.7895 81.315 41.8325 81.23C42.321 80.5263 42.602 79.9796 42.7858 79.6786C43.9267 80.5546 43.7177 80.354 44.3073 80.7889C44.3804 80.8463 44.4725 80.874 44.5651 80.8665C44.6578 80.8589 44.7442 80.8167 44.807 80.7482C44.8699 80.6797 44.9046 80.5901 44.9042 80.4971C44.9039 80.4041 44.8684 80.3148 44.805 80.2468Z" fill="#191919"/>
<path d="M104.344 45.122C103.497 45.2215 102.652 45.2751 101.804 45.3686C102.153 40.0246 102.959 34.7202 104.212 29.5137C104.236 29.4207 104.224 29.3222 104.177 29.2382C104.131 29.1542 104.054 29.0911 103.963 29.0619C103.87 29.036 103.77 29.0478 103.686 29.0946C103.601 29.1415 103.538 29.2196 103.511 29.3123C103.305 29.9708 103.066 30.6255 102.865 31.3131C101.545 35.9107 100.927 40.6814 101.033 45.4635C99.0671 45.7227 97.1272 46.1513 95.235 46.7445C95.379 42.9925 95.7282 33.6003 96.2726 29.8782C96.2884 29.7825 96.2659 29.6845 96.2101 29.6052C96.1542 29.526 96.0694 29.4719 95.974 29.4547C95.9264 29.4468 95.8778 29.4485 95.8309 29.4597C95.784 29.4709 95.7398 29.4913 95.701 29.5199C95.6622 29.5485 95.6295 29.5845 95.6048 29.6259C95.5801 29.6673 95.564 29.7133 95.5574 29.761C94.3323 35.8056 94.2373 40.8439 94.4724 47.0225C93.7061 47.3456 92.9572 47.7086 92.2288 48.1098C92.1419 48.1537 92.0757 48.23 92.0445 48.3222C92.0133 48.4145 92.0195 48.5153 92.0619 48.6029C92.106 48.6879 92.1815 48.7522 92.2724 48.7821C92.3633 48.812 92.4623 48.8051 92.5481 48.763C96.026 47.2943 100.266 46.6894 104.455 45.8533C104.552 45.8385 104.639 45.7859 104.697 45.7069C104.755 45.6279 104.78 45.5291 104.765 45.4321C104.75 45.3351 104.698 45.248 104.619 45.1898C104.54 45.1317 104.441 45.1073 104.344 45.122Z" fill="#191919"/>
<path d="M126.492 94.6599C115.721 83.9575 107.084 76.2138 99.8339 67.3124C102.175 66.7978 104.257 64.9831 104.122 62.6002C104.122 62.5507 104.113 62.5017 104.094 62.456C104.075 62.4103 104.047 62.3689 104.011 62.3342C103.976 62.2996 103.934 62.2725 103.888 62.2544C103.842 62.2363 103.793 62.2278 103.743 62.2291C103.694 62.2305 103.645 62.2419 103.6 62.2625C103.555 62.2831 103.515 62.3126 103.481 62.3491C103.448 62.3857 103.423 62.4286 103.406 62.4753C103.39 62.522 103.383 62.5715 103.386 62.6209C103.377 63.1339 103.249 63.6378 103.013 64.0932C102.776 64.5487 102.438 64.9434 102.024 65.2465C100.416 66.5291 98.52 66.5842 96.5107 66.2327C91.4907 65.3828 88.2211 62.7809 79.129 67.6562C79.3304 67.0865 79.492 66.6164 79.9713 65.5298C80.9223 64.8284 82.0563 64.2733 83.0686 63.5987C84.9975 62.3215 85.7203 60.96 87.1269 59.5557C90.2035 56.44 95.974 56.4033 98.4151 59.7425C98.4703 59.8238 98.5555 59.8797 98.652 59.8981C98.7485 59.9165 98.8484 59.8958 98.9296 59.8406C99.0109 59.7853 99.0668 59.7001 99.0852 59.6036C99.1036 59.5071 99.0829 59.4072 99.0276 59.326C97.0705 56.3359 93.2718 55.5579 89.8827 56.6322C89.0626 48.7232 88.1981 40.2681 89.519 31.7917C89.5349 31.6975 89.5132 31.6009 89.4585 31.5226C89.4038 31.4443 89.3205 31.3907 89.2266 31.3733C89.1327 31.3559 89.0358 31.3762 88.9567 31.4297C88.8776 31.4831 88.8227 31.5656 88.8038 31.6592C88.47 33.3668 88.1644 35.0421 87.9975 36.7236C87.3 43.6411 88.1308 50.3411 89.1583 56.8933C85.8359 58.2433 85.4109 60.6369 82.5089 62.8131C81.8626 63.2947 81.1719 63.7465 80.5119 64.2143C80.5289 64.1305 80.5157 64.0434 80.4746 63.9683C80.4335 63.8933 80.3672 63.8352 80.2874 63.8044C80.2077 63.7736 80.1195 63.772 80.0387 63.8C79.9578 63.8279 79.8895 63.8835 79.8457 63.957C79.2194 64.6727 78.7382 65.5033 78.4292 66.4027C78.0709 67.2724 77.855 68.1942 77.7898 69.1325C77.7677 69.2284 77.7845 69.3291 77.8366 69.4125C77.8888 69.4959 77.9719 69.5552 78.0677 69.5774C78.1636 69.5995 78.2643 69.5827 78.3477 69.5305C78.4312 69.4784 78.4905 69.3953 78.5126 69.2994C78.5815 69.0957 78.6566 68.8967 78.7339 68.6983C88.5672 63.99 90.9294 66.3867 96.3285 67.2963C97.209 67.451 98.1051 67.498 98.997 67.4364C100.528 69.4074 102.05 71.3952 103.701 73.2919C111.445 82.2078 120.542 89.9377 125.978 95.1913C126.049 95.2594 126.144 95.2968 126.242 95.2951C126.34 95.2935 126.433 95.253 126.501 95.1825C126.569 95.112 126.607 95.0174 126.605 94.9194C126.603 94.8214 126.563 94.728 126.492 94.6599Z" fill="#191919"/>
<path d="M148.935 94.192C146.879 88.8466 141.574 83.5218 137.278 79.7637C128.587 72.1532 118.458 66.1156 110.774 58.1866C111.559 54.2217 109.368 51.9024 110.302 39.605C110.526 36.6272 110.991 32.7251 111.594 29.261C111.605 29.2133 111.606 29.1638 111.598 29.1156C111.589 29.0674 111.571 29.0213 111.544 28.9803C111.518 28.9392 111.483 28.9039 111.442 28.8765C111.402 28.8492 111.356 28.8302 111.308 28.8209C111.26 28.8116 111.211 28.8121 111.163 28.8223C111.115 28.8325 111.069 28.8523 111.029 28.8804C110.989 28.9086 110.955 28.9445 110.929 28.9861C110.903 29.0277 110.886 29.074 110.879 29.1224C110.104 32.5469 109.554 36.0184 109.232 39.5147C108.943 43.0251 108.919 46.5522 109.16 50.0662C109.23 51.0318 109.438 52.1781 109.64 53.3733C110.354 57.7165 110.449 60.594 106.311 61.4133C106.264 61.4211 106.218 61.4381 106.177 61.4634C106.136 61.4887 106.101 61.5219 106.073 61.5609C106.045 61.5999 106.025 61.6441 106.014 61.6909C106.003 61.7377 106.001 61.7863 106.009 61.8337C106.016 61.8812 106.033 61.9267 106.059 61.9675C106.084 62.0084 106.117 62.0439 106.156 62.072C106.195 62.1001 106.239 62.1202 106.286 62.1312C106.333 62.1422 106.382 62.1439 106.429 62.1362C107.36 62.1242 108.262 61.8144 109.003 61.2522C109.745 60.6899 110.287 59.9048 110.549 59.0121C120.844 69.7428 133.274 76.0875 142.639 86.5464C145.821 90.1062 150.171 96.2465 148.168 100.565C145.321 106.709 135.272 111.821 128.322 112.7C128.224 112.712 128.136 112.762 128.075 112.839C128.014 112.915 127.985 113.013 127.995 113.111C128.01 113.208 128.061 113.296 128.138 113.357C128.216 113.418 128.314 113.446 128.412 113.437C135.866 112.594 146.064 107.452 149.127 101.016C150.102 98.9356 149.831 96.5397 148.935 94.192Z" fill="#191919"/>
<path d="M73.4252 100.074C75.3461 99.7808 77.2909 99.6736 79.2324 99.7542C79.3301 99.7533 79.4241 99.7912 79.4938 99.8596C79.5636 99.9281 79.6032 100.021 79.6042 100.119C79.6051 100.217 79.5671 100.311 79.4987 100.381C79.4303 100.45 79.337 100.49 79.2393 100.491C77.2101 100.458 75.1835 100.649 73.1963 101.061C73.0813 101.088 72.96 101.07 72.8577 101.011C72.7554 100.952 72.6801 100.855 72.6473 100.741C72.0416 98.6631 71.0132 95.8728 70.1327 93.3498C70.0952 93.245 70.0926 93.131 70.1252 93.0246C70.1577 92.9183 70.2237 92.8253 70.3134 92.7594C75.7729 88.6123 78.3733 81.044 77.1627 74.3509C77.1369 74.2174 77.1647 74.0792 77.2401 73.9662C77.3155 73.8531 77.4324 73.7742 77.5654 73.7467C80.8726 73.1104 84.2394 70.3829 84.6161 67.0712C84.627 66.9761 84.6743 66.8888 84.7481 66.8278C84.8219 66.7669 84.9165 66.7369 85.012 66.7443C85.0601 66.7487 85.1069 66.7628 85.1495 66.7855C85.1921 66.8083 85.2297 66.8394 85.2602 66.8769C85.2906 66.9144 85.3133 66.9576 85.3268 67.004C85.3404 67.0504 85.3445 67.099 85.339 67.147C85.0327 70.7711 81.7401 73.6878 78.2599 74.6426C79.3733 81.5049 76.7362 89.0518 71.2583 93.3704C72.0653 95.7687 72.7315 97.5765 73.4252 100.074Z" fill="#191919"/>
<path d="M83.2146 61.3681C82.9063 60.9905 82.4967 60.7086 82.0339 60.5557C80.9824 60.2459 79.8592 60.2824 78.8301 60.6598C79.3541 59.7818 79.6967 58.8077 79.8377 57.795C79.9786 56.7823 79.9152 55.7516 79.6509 54.7638C79.6329 54.683 79.5897 54.6099 79.5275 54.5551C79.4654 54.5003 79.3874 54.4666 79.3049 54.4589C79.2224 54.4511 79.1396 54.4697 79.0683 54.512C78.997 54.5543 78.941 54.6181 78.9082 54.6942C78.3623 55.9767 76.2412 54.7876 76.2542 53.652C76.3094 49.5049 82.5507 48.5064 77.1363 42.4726C77.0694 42.4008 76.9805 42.3531 76.8837 42.3372C76.7868 42.3212 76.6873 42.3378 76.6009 42.3844C76.5144 42.4309 76.4459 42.5048 76.4059 42.5945C76.3659 42.6841 76.3567 42.7845 76.3798 42.88C76.4977 43.3382 76.441 43.8238 76.2209 44.2426C76.0007 44.6614 75.6328 44.9834 75.1885 45.1461C74.7443 45.3088 74.2554 45.3006 73.8169 45.1231C73.3783 44.9456 73.0214 44.6114 72.8154 44.1855C72.2496 43.0745 73.7687 41.0997 73.964 39.775C74.4234 36.6287 72.0045 34.1891 69.323 32.5084C69.229 32.4514 69.1189 32.4271 69.0097 32.4392C68.9005 32.4513 68.7983 32.4992 68.7191 32.5753C68.6399 32.6515 68.5881 32.7516 68.5717 32.8603C68.5553 32.9689 68.5753 33.0799 68.6285 33.1761C69.5083 34.7282 67.5504 35.8561 66.0098 35.8293C63.2585 35.7626 60.4323 32.2917 56.1665 32.1684C54.7966 32.1122 53.4322 32.3723 52.179 32.9286C50.9259 33.4849 49.8177 34.3223 48.9404 35.376C47.847 36.6777 47.1464 38.6754 45.6272 39.1762C44.5981 39.5269 44.3469 37.6999 43.2374 36.9556C40.7106 35.3162 38.0305 36.9702 35.9501 39.144C35.8641 39.2326 35.811 39.3479 35.7995 39.4708C35.788 39.5937 35.8189 39.7169 35.887 39.8198C35.9551 39.9228 36.0563 39.9994 36.1739 40.0369C36.2915 40.0744 36.4184 40.0706 36.5336 40.0261C36.8475 39.9075 37.6875 39.6096 37.9785 39.7765C38.0242 39.8201 38.0516 39.8796 38.0551 39.9427C38.2848 41.0231 36.2518 44.3838 36.0964 44.8616C35.1515 47.6948 37.0229 48.9842 37.3812 50.5432C37.4572 50.8847 37.4522 51.2393 37.3667 51.5785C37.2811 51.9178 37.1174 52.2323 36.8886 52.497C36.6598 52.7616 36.3723 52.9691 36.049 53.1028C35.7257 53.2365 35.3756 53.2927 35.0267 53.2669C34.5575 53.2151 34.1149 53.0229 33.7567 52.7155C33.3985 52.4082 33.1414 51.9999 33.0189 51.544C32.9921 51.4504 32.9409 51.3656 32.8705 51.2983C32.8001 51.231 32.7131 51.1835 32.6184 51.1609C32.5237 51.1382 32.4247 51.1411 32.3315 51.1693C32.2382 51.1975 32.1542 51.2499 32.0878 51.3212C31.1271 52.4571 30.6227 53.9096 30.6728 55.3965C30.7229 56.8834 31.3239 58.2986 32.3589 59.3673C33.4156 60.4807 35.166 61.0618 35.2908 62.4999C35.4654 64.2059 32.8949 65.1033 32.6437 63.1323C32.629 63.015 32.5764 62.9057 32.4939 62.8209C32.4115 62.7361 32.3037 62.6805 32.1868 62.6624C32.07 62.6443 31.9504 62.6648 31.8462 62.7207C31.742 62.7766 31.6588 62.8649 31.6093 62.9723C31.1756 64.0526 31.1431 65.2525 31.5177 66.3547C31.8923 67.4569 32.6493 68.3885 33.6514 68.9809C36.47 70.7343 39.382 69.9304 40.3721 72.9955C39.3729 73.3104 38.5194 73.9726 37.9662 74.8623C37.7257 75.2681 37.5452 75.7066 37.4302 76.164C37.3972 76.2516 37.3993 76.3485 37.436 76.4345C37.4728 76.5205 37.5413 76.5891 37.6273 76.6258C37.7133 76.6626 37.8102 76.6647 37.8978 76.6317C37.9853 76.5987 38.0567 76.5332 38.0972 76.4489C38.1799 76.3026 38.2771 76.1778 38.3744 76.0392C40.245 73.4205 40.8093 74.0147 42.951 74.0553C43.0334 74.0579 43.1153 74.042 43.1907 74.0087C43.2661 73.9753 43.333 73.9254 43.3864 73.8626C43.4398 73.7999 43.4784 73.7259 43.4993 73.6461C43.5201 73.5664 43.5228 73.483 43.5069 73.4021C43.0598 71.2206 42.5452 68.5888 41.9579 66.2404C41.1922 63.1775 43.2121 60.2471 42.0483 57.1613C49.8807 58.8757 50.8218 49.312 55.9498 47.5164C59.3572 46.3088 60.819 51.3388 57.2278 51.6076C57.1143 51.6193 57.0084 51.6698 56.9279 51.7505C56.8473 51.8312 56.7971 51.9373 56.7857 52.0507C56.7743 52.1642 56.8023 52.2781 56.8652 52.3733C56.928 52.4685 57.0217 52.539 57.1305 52.5731C58.3321 52.9443 59.6217 52.9154 60.8055 52.4908C61.9893 52.0662 63.0032 51.2688 63.695 50.2186C64.4998 53.5004 67.0013 56.7271 70.4195 56.6789C70.501 56.6794 70.581 56.6564 70.6499 56.6127C70.7188 56.569 70.7736 56.5065 70.808 56.4325C70.8424 56.3586 70.8548 56.2763 70.8437 56.1955C70.8327 56.1147 70.7986 56.0388 70.7457 55.9767C70.508 55.728 70.3379 55.4225 70.2516 55.0895C70.1653 54.7564 70.1656 54.4068 70.2526 54.0739C70.4057 53.6405 70.627 53.6459 70.8567 53.8167C71.601 54.3695 72.4165 57.2899 72.663 58.3596C73.1493 60.4991 73.4134 62.7502 73.8162 64.7227C73.8311 64.7918 73.8649 64.8554 73.9137 64.9065C73.9626 64.9575 74.0246 64.9941 74.0929 65.0121C74.1613 65.0301 74.2332 65.0288 74.3009 65.0084C74.3685 64.988 74.4292 64.9493 74.4763 64.8965C76.0375 63.0045 79.2857 60.9317 81.7835 61.4309C82.1124 61.4951 82.419 61.6437 82.6732 61.862C82.7399 61.9331 82.8319 61.9751 82.9293 61.979C83.0267 61.9829 83.1218 61.9483 83.1939 61.8827C83.2292 61.8504 83.2577 61.8113 83.2779 61.7679C83.298 61.7245 83.3094 61.6775 83.3113 61.6297C83.3132 61.5819 83.3057 61.5342 83.2891 61.4893C83.2725 61.4444 83.2472 61.4032 83.2146 61.3681Z" fill="#191919"/>
<path d="M66.6501 95.2609C66.6334 95.2156 66.6079 95.1741 66.5751 95.1387C66.5423 95.1033 66.5028 95.0747 66.4588 95.0546C66.4149 95.0346 66.3675 95.0234 66.3192 95.0217C66.271 95.0201 66.2229 95.028 66.1777 95.045C60.029 96.6959 56.3428 97.6324 51.4093 93.0718C48.8644 90.7027 47.0388 87.6643 46.142 84.3051C46.1275 84.2365 46.0985 84.1717 46.0569 84.1153C46.0153 84.0588 45.9622 84.0118 45.9009 83.9776C45.8397 83.9434 45.7719 83.9226 45.702 83.9168C45.6321 83.9109 45.5618 83.9201 45.4957 83.9437C43.0163 84.8273 40.5469 84.299 38.9933 82.1825C38.9659 82.1433 38.9311 82.1099 38.8908 82.0841C38.8506 82.0583 38.8056 82.0408 38.7585 82.0324C38.7115 82.024 38.6632 82.025 38.6165 82.0352C38.5698 82.0455 38.5256 82.0648 38.4864 82.0922C38.4472 82.1195 38.4137 82.1543 38.388 82.1946C38.3622 82.2349 38.3446 82.2799 38.3362 82.3269C38.3278 82.374 38.3288 82.4223 38.3391 82.469C38.3493 82.5157 38.3687 82.5599 38.396 82.5991C39.1323 83.6912 40.2011 84.5169 41.4437 84.9538C42.6863 85.3906 44.0366 85.4153 45.2943 85.0241C46.9789 91.62 53.4737 98.4073 60.3958 97.4164C60.8131 98.8131 61.98 102.717 62.1324 103.28C60.7817 104.281 58.0787 105.257 56.8949 106.413C56.8238 106.481 56.7828 106.575 56.7808 106.673C56.7788 106.772 56.816 106.867 56.8842 106.938C56.9524 107.009 57.0461 107.05 57.1446 107.052C57.2431 107.054 57.3384 107.017 57.4095 106.949C58.5642 105.888 61.6439 104.881 62.9663 103.823C63.034 103.767 63.0848 103.693 63.1131 103.61C63.1413 103.526 63.1459 103.437 63.1263 103.351C62.6064 101.096 61.9586 99.0474 61.4295 97.1867C62.6904 97.1079 63.9309 96.8298 65.1049 96.3628C65.5643 96.1752 65.9939 95.9531 66.4319 95.738C66.5229 95.7021 66.5964 95.6324 66.6371 95.5434C66.6778 95.4545 66.6825 95.3532 66.6501 95.2609Z" fill="#191919"/>
<path d="M127.844 119.396C127.216 111.646 124.594 100.916 122.148 93.6598C122.11 93.5536 122.041 93.4616 121.949 93.3968C121.856 93.332 121.746 93.2976 121.634 93.2984C112.732 93.2287 103.371 94.2464 94.5075 95.5006C90.6101 96.0657 86.4362 97.5933 82.5525 97.6607C82.4327 97.6646 82.3177 97.7085 82.2258 97.7854C82.1339 97.8623 82.0705 97.9677 82.0456 98.0849C80.2722 106.799 74.3631 114.931 65.5123 113.388C63.5015 113.035 61.6462 111.924 59.9065 110.88C55.3627 108.133 55.3933 106.482 54.6276 106.745C45.462 109.97 38.906 116.353 32.1922 123.229C32.1414 123.282 32.1075 123.348 32.0951 123.42C32.0827 123.492 32.0922 123.566 32.1225 123.632C32.2802 123.983 25.5244 124.535 127.332 119.986C127.405 119.981 127.476 119.963 127.541 119.93C127.606 119.898 127.664 119.853 127.712 119.798C127.759 119.744 127.796 119.68 127.818 119.611C127.841 119.542 127.85 119.469 127.844 119.396Z" fill="#38A1FF"/>
</svg>
