<svg width="155" height="156" viewBox="0 0 155 156" fill="none" xmlns="http://www.w3.org/2000/svg">
<path d="M24.5792 49.8772C25.7836 52.7491 35.1094 50.6493 32.4383 47.0594C30.1068 43.9637 23.6142 47.5844 24.5792 49.8772Z" fill="#3D9CFB"/>
<path d="M45.9097 21.7839C42.4511 24.6635 49.3837 29.7664 50.9817 25.2039C52.5258 30.2451 60.1146 26.8868 57.6287 22.6871C60.408 24.0536 61.5351 19.4524 60.2227 17.8852C59.7961 17.399 59.1992 17.095 58.5551 17.036C63.4883 13.5157 55.4671 8.03443 53.2592 13.4076C53.2592 6.56761 43.2694 10.8137 46.8438 16.0556C42.9451 14.7277 41.7485 21.7916 45.9097 21.7839ZM45.3152 18.3948C45.7707 16.7813 47.693 18.5337 48.6889 17.5301C49.8778 16.3335 46.1413 13.0139 49.4609 11.8867C52.7805 10.7596 50.3024 15.5461 52.41 16.2023C54.7723 16.928 54.8881 11.3309 57.5284 13.4308C59.9988 15.3917 54.9344 15.9398 55.7373 17.8775C56.5402 19.8153 59.744 17.5919 58.8253 20.4483C58.2695 22.1236 55.7373 18.9969 54.8804 20.6181C54.0234 22.2394 57.4589 24.015 55.6524 25.3583C54.0157 26.5858 53.043 25.3583 52.3868 23.8992C50.1789 18.8811 49.2988 29.1257 46.7743 23.6444C46.3497 22.7489 49.0903 22.3629 48.6966 20.9733C48.1639 18.9815 44.52 21.174 45.3152 18.3948Z" fill="#3D9CFB"/>
<path d="M21.1435 45.2217C21.8782 48.1624 21.8517 51.2417 21.0663 54.1693C13.4698 44.0637 8.26642 56.1688 20.1476 56.8713C16.9438 61.7735 17.8316 61.6346 18.1558 61.9743C19.283 63.0396 25.8759 54.1384 22.9037 44.6273C28.9176 42.6664 29.5352 31.1712 22.5177 29.3029C16.8666 27.7975 9.84132 33.657 12.1187 39.6633C13.7786 44.4651 17.3761 46.0246 21.1435 45.2217ZM14.0102 39.4317C16.3879 35.5716 18.9742 39.4317 20.6108 43.4615C18.2948 43.9633 15.3843 43.1141 14.0179 39.4317H14.0102ZM25.7292 35.4713C26.0808 36.8975 25.9396 38.4007 25.3284 39.7365C24.7173 41.0722 23.6723 42.162 22.3633 42.8285C19.9855 39.5243 21.7071 33.6107 25.7292 35.4713ZM24.88 33.2402C22.3015 33.1244 20.0395 34.9077 19.476 37.795C17.6309 36.0194 15.9711 35.1007 13.6319 36.9381C13.8866 31.6112 22.0699 28.5232 24.88 33.2479V33.2402Z" fill="#3D9CFB"/>
<path d="M27.0961 126.707C24.4559 124.808 20.7579 127.225 21.4373 130.652C20.6872 128.972 19.6204 127.452 18.2952 126.175C17.3997 125.403 16.1722 126.808 17.0832 127.58C18.1265 128.631 18.9782 129.856 19.5999 131.2C19.0112 131.272 18.4494 131.489 17.965 131.831C17.4806 132.173 17.0889 132.631 16.8248 133.162C16.5608 133.693 16.4328 134.281 16.4523 134.874C16.4718 135.467 16.6382 136.045 16.9365 136.558C15.2799 135.156 13.8365 133.52 12.6519 131.702C12.562 131.482 12.3906 131.304 12.1733 131.206C11.9559 131.109 11.7093 131.099 11.4847 131.178C11.2601 131.258 11.0748 131.421 10.9672 131.633C10.8596 131.846 10.8381 132.092 10.9071 132.32C12.5105 134.938 14.6334 137.201 17.1449 138.967C12.7059 141.036 15.8171 146.594 20.5649 145.953C24.5176 145.892 27.1193 144.17 30.9716 143.19C31.1849 143.122 31.3661 142.979 31.4812 142.787C31.5964 142.595 31.6375 142.368 31.5969 142.147C29.8213 137.747 30.6088 129.224 27.0961 126.707ZM25.4826 142.919C14.1727 147.382 13.2386 136.365 26.2546 142.642L25.4826 142.919ZM18.3724 134.798C18.9283 128.877 25.6448 139.43 28.0225 141.113C21.7693 140.071 18.1794 136.906 18.3724 134.783V134.798ZM25.9922 136.041C19.0441 128.22 27.7369 120.886 28.9721 139.407C27.899 138.264 26.9263 137.083 25.9922 136.025V136.041Z" fill="#3D9CFB"/>
<path d="M91.8829 37.9807C82.8118 27.659 74.5668 29.6739 69.4947 33.1016C68.1421 34.0413 66.5035 34.4783 64.8627 34.3368C62.2919 34.2365 50.6732 32.43 44.3041 49.3678C44.3041 49.3678 38.9772 66.5295 36.8156 69.7643C34.654 72.999 31.4116 77.9553 27.0111 78.4493C24.0543 78.789 22.5644 76.7664 20.0631 77.3531C14.9369 78.5343 14.659 90.8787 20.3796 101.98C26.4707 113.861 36.1903 118.192 45.0838 119.566C40.1044 102.173 42.5285 88.4932 59.3505 86.5245C64.8472 75.9249 58.9568 68.6448 56.5018 62.5923C52.5028 52.8959 59.0494 44.5505 67.2713 41.3389C82.1711 35.5257 94.7239 47.3529 97.0708 64.1518C97.0708 64.1518 100.962 48.3025 91.8829 37.9807Z" fill="#3D9CFB"/>
<path d="M127.318 117.822C119.173 118.339 115.02 113.506 113.8 115.081C113.105 115.984 114.039 116.316 115.128 116.887C114.101 122.207 113.144 127.209 112.171 129.525C110.874 128.035 107.817 127.889 106.968 129.958C105.655 133.192 110.365 134.945 112.619 132.907C114.603 131.116 115.097 127.387 116.286 120.794C118.88 121.712 124.531 122.955 125.867 123.249C125.542 126.656 124.715 129.996 123.412 133.161C122.037 131.972 120.802 132.042 120.007 132.652C118.37 133.902 119.698 137.6 122.64 137.16C124.184 136.929 125.465 136.535 126.747 130.266C127.858 124.847 129.132 117.937 127.318 117.822ZM116.657 118.771C116.726 118.408 116.796 118.045 116.865 117.667C119.838 118.914 123.015 119.6 126.237 119.69C126.191 120.192 126.145 120.67 126.098 121.141C122.879 121.164 118.486 119.512 116.657 118.771Z" fill="#001434"/>
<path d="M106.065 43.678C110.025 42.3733 108.188 37.0078 105.563 29.1025C106.087 29.6499 106.753 30.0398 107.487 30.2281C108.221 30.4163 108.993 30.3955 109.716 30.1679C113.476 29.2955 111.639 22.5867 109.423 24.4473C106.52 28.6007 103.247 24.6712 103.092 27.6511C104.227 30.8935 105.872 35.4175 106.304 37.5328C99.3868 34.3367 99.5257 45.8164 106.065 43.678Z" fill="#001434"/>
<path d="M69.4946 67.1237C73.3547 68.4206 79.3223 65.9039 82.2636 63.0784C82.9893 62.3835 82.2636 60.5539 80.9126 61.5343C78.6584 63.1864 74.7906 65.6877 69.649 65.2554C69.4013 65.2349 69.1556 65.3137 68.9659 65.4744C68.7762 65.6351 68.6582 65.8646 68.6377 66.1123C68.6172 66.3601 68.696 66.6058 68.8567 66.7955C69.0174 66.9851 69.2469 67.1032 69.4946 67.1237Z" fill="#001434"/>
<path d="M29.0727 86.7326C25.1587 89.6199 23.0742 84.9415 22.1247 87.7903C22.3254 91.0481 22.6651 95.6339 22.5107 97.672C17.1761 93.0785 13.8024 103.508 20.5575 103.176C24.9348 102.96 24.5642 97.6179 24.1087 89.8361C26.7104 94.2288 32.6008 91.465 30.3543 86.9256C30.2071 86.7339 29.9914 86.6067 29.7524 86.5707C29.5134 86.5347 29.2698 86.5928 29.0727 86.7326Z" fill="#001434"/>
<path d="M79.3223 49.8541C81.4253 48.7443 83.8177 48.3052 86.1777 48.5957C87.3666 48.7115 87.413 47.2678 86.2704 46.8741C84.5565 46.2951 79.9785 46.8741 78.4422 48.3641C77.786 48.9971 78.5117 50.3095 79.3223 49.8541Z" fill="#001434"/>
<path d="M64.785 50.0703C65.8195 49.5222 64.785 47.6616 63.573 48.1403C59.7129 49.7383 52.6954 57.6205 55.3742 58.3925C55.6006 58.4791 55.8512 58.4779 56.0768 58.3894C56.3024 58.3009 56.4869 58.1313 56.594 57.9139C57.5899 55.6365 61.3959 51.8691 64.785 50.0703Z" fill="#001434"/>
<path d="M145.638 34.545C143.731 34.2594 140.921 34.8847 137.918 36.0118C137.331 32.6459 140.466 31.8584 141.693 29.002C142.093 28.0555 142.296 27.0371 142.288 26.0096C142.28 24.982 142.062 23.9669 141.647 23.0267C141.551 22.8004 141.368 22.6217 141.14 22.5297C140.912 22.4378 140.657 22.4402 140.431 22.5365C140.205 22.6327 140.026 22.8149 139.934 23.0429C139.842 23.2709 139.844 23.5261 139.941 23.7524C142.527 29.9747 134.367 31.4724 136.181 36.6989C134.982 37.202 133.8 37.7453 132.637 38.3279C132.269 37.7162 131.7 37.2511 131.027 37.0118C130.354 36.7725 129.619 36.7738 128.947 37.0154C127.403 37.4169 127.673 39.2697 128.777 38.9686C130.02 38.6289 130.321 38.7293 130.924 39.2157C128.326 40.5924 125.861 42.205 123.559 44.033C122.918 43.3845 123.057 42.8055 123.335 41.8559C124.462 38.0422 121.25 38.3433 119.166 36.5368C118.186 35.6799 122.98 30.2218 121.482 29.4112C121.382 29.3411 121.269 29.2917 121.15 29.2658C121.03 29.2399 120.907 29.238 120.787 29.2603C120.667 29.2826 120.553 29.3286 120.451 29.3956C120.349 29.4626 120.261 29.5492 120.193 29.6505C114.843 37.8878 117.205 37.6408 121.652 39.9491C121.907 41.3927 120.293 43.7319 122.154 45.2759C117.915 51.7067 125.612 50.1396 115.646 59.6353C112.233 56.0918 106.42 59.0949 107.439 63.6343C104.845 62.5896 102.058 62.1055 99.2636 62.2138C103.548 43.1915 84.3639 19.8306 66.6926 29.8049C65.635 30.3993 64.8784 31.2717 63.5197 31.6114C62.3591 31.8183 61.1726 31.8339 60.007 31.6577C53.306 31.4184 46.9601 33.1168 41.0157 40.5667C32.6703 51.5755 33.6353 64.4989 24.8498 75.4074C16.8209 85.3971 13.2234 78.3256 8.90015 79.5994C7.66494 79.9622 4.56919 81.2823 4.26811 87.497C3.99838 93.3699 5.06832 99.2271 7.39694 104.625C9.72556 110.024 13.2518 114.821 17.7088 118.655C23.1532 123.524 29.9018 126.696 37.1247 127.78C39.4408 140.248 51.183 143.066 62.9252 139.515C71.9037 145.799 83.2676 142.51 89.0731 133.339C91.9758 128.946 91.3891 122.824 93.6279 118.316C96.1061 113.452 102.336 110.657 105.779 109.298C112.311 106.712 112.009 102.165 107.987 99.687C105.617 98.722 101.85 98.1816 100.738 95.881C103.239 93.3565 105.417 91.1332 106.914 89.3961C110.311 95.6494 114.233 102.821 118.232 105.963C124.91 111.221 136.806 107.561 137.632 98.5135C138.327 90.9788 134.946 84.7641 131.51 77.9473C128.422 71.7712 131.186 68.1505 127.457 65.0856C132.514 56.6785 139.346 62.6924 139.501 53.05C139.586 48.1555 139.84 47.2986 143.785 47.0901C151.552 46.6733 153.929 35.9732 145.638 34.545ZM133.433 39.9954C134.622 39.3932 135.834 38.8297 137.007 38.3356C137.722 39.2943 138.584 40.1333 139.562 40.8214C137.115 45.1447 124.261 59.7897 120.478 64.993C120.239 64.6456 119.977 64.2673 119.706 63.8736C123.852 59.9209 128.353 49.4139 133.518 45.963C135.085 44.8976 133.587 41.1148 133.433 39.9954ZM123.288 46.7891L123.644 46.4262C124.327 46.8436 125.042 47.2075 125.782 47.5147C124.817 48.5801 123.929 49.522 122.902 50.734C122.702 49.2749 122.408 47.7078 123.288 46.7891ZM118.039 59.8128C121.32 56.3465 124.786 51.3207 128.075 47.7077C129.403 46.2409 126.145 45.9862 125.118 45.137C127.217 43.538 129.442 42.1128 131.773 40.8755C132.121 42.0218 132.364 43.1976 132.499 44.3881C127.998 47.6769 122.725 58.1221 118.541 62.4222C118.085 61.8895 117.591 61.3491 117.082 60.8782L118.039 59.8128ZM108.041 65.9117C108.234 66.4752 108.443 67.0465 108.674 67.6255C103.849 71.1536 99.6342 77.3528 95.7587 81.236C93.4427 80.8037 92.4082 79.9777 92.7942 77.8546C97.0093 73.9946 97.2409 68.9843 98.8544 64.1129C102.022 63.8867 105.193 64.5075 108.041 65.9117ZM54.0471 67.8263C47.5082 57.3347 51.6925 48.6882 59.0575 43.7705C65.2335 39.648 73.5403 37.9805 80.4575 41.5703C77.0838 41.1148 69.302 43.7088 70.4214 45.8472C70.5871 46.0891 70.8316 46.2659 71.1132 46.3476C71.3948 46.4293 71.696 46.4107 71.9654 46.295C75.0407 44.0778 78.8424 43.1095 82.6037 43.5852C90.98 45.9862 99.6882 64.2673 93.7515 73.5777C93.875 71.8639 93.157 70.5746 90.9877 70.4897C85.7535 70.4434 80.3185 77.8701 79.7087 83.0502C75.177 85.3663 64.2685 87.7749 56.5484 85.9144C59.621 78.5494 57.3436 73.1222 54.0471 67.8263ZM79.2995 85.3431C79.091 94.8002 71.5794 91.2181 65.2258 93.2562C64.666 91.416 63.6331 89.7549 62.2304 88.4389C68.0977 88.2845 74.8605 87.2654 79.2995 85.3431ZM71.6335 94.2366C77.5239 94.1594 80.8203 92.0904 81.0288 86.1923C81.1523 82.5253 84.1168 75.5386 88.0618 73.2303C89.2507 72.5278 91.1498 72.08 91.8369 72.6281C92.524 73.1763 91.4586 75.3919 91.1961 76.8742C90.7406 79.4681 90.7252 81.9694 94.3459 82.8032C90.208 87.4352 87.1276 90.7472 81.5151 96.6993C79.3072 96.7534 76.6052 98.6139 73.7951 100.976C72.004 96.7534 68.8002 95.9273 66.075 97.9886C66.0245 97.0058 65.9033 96.028 65.7122 95.0627C67.6226 94.4439 69.6266 94.1644 71.6335 94.2366ZM102.977 75.9478C102.89 76.7167 102.874 77.492 102.931 78.2638C95.5194 85.4203 92.771 90.3225 85.3057 97.8033C84.8394 97.4439 84.318 97.1624 83.7617 96.9695C89.683 90.7317 93.0489 87.0878 102.977 75.9478ZM103.263 80.5798C103.426 81.3313 103.63 82.0734 103.872 82.8032C99.3485 88.1455 92.6166 96.3133 87.56 101.509C87.5126 100.644 87.1908 99.8164 86.6413 99.1466C94.1915 91.4806 96.9862 86.7559 103.263 80.5489V80.5798ZM9.43284 104.705C4.20635 93.1249 4.80079 82.6102 9.43284 81.182C12.8991 80.1243 17.7937 87.165 26.2549 76.5499C35.1252 65.626 34.3069 52.4865 42.467 41.6784C51.0054 30.8394 60.3158 34.2671 63.7821 33.3561C65.4111 32.9238 66.8084 31.6423 68.3447 30.9398C84.7113 23.5285 100.607 43.979 97.5111 61.6734C94.7088 50.3712 88.6253 42.4658 78.6664 38.7216C68.7076 34.9774 51.4686 42.7669 49.0909 53.9224C46.4197 66.4135 60.5166 73.1068 54.603 85.7986C35.3491 86.2386 32.2148 109.19 36.5149 125.881C28.6867 125.071 14.9681 117.042 9.43284 104.705ZM55.1588 87.6591C66.1368 87.9602 64.5928 102.551 62.3848 109.322C52.48 111.205 42.3589 118.763 38.6765 126.707C33.6661 110.109 37.4413 87.1959 55.1588 87.6591ZM55.7147 138.92C49.7085 139.692 41.2164 137.376 39.6029 129.463C45.3775 114.965 61.1033 111.707 63.9674 110.835C66.1522 110.171 65.6967 99.3705 68.6535 98.7915C71.6103 98.2125 72.1198 105.076 75.3777 102.142C80.3803 95.9659 89.5826 98.7452 83.7385 106.087C82.5504 107.296 81.2588 108.399 79.8785 109.383C79.7228 109.499 79.607 109.661 79.5474 109.846C79.4878 110.031 79.4873 110.229 79.5459 110.414C79.6045 110.6 79.7193 110.762 79.8744 110.879C80.0294 110.996 80.2171 111.061 80.4112 111.066C81.3453 110.889 82.0787 110.032 84.1014 108.372C84.8725 110.4 85.3382 112.53 85.4833 114.695C84.0319 115.822 81.9861 117.08 81.9629 117.096C81.7918 117.202 81.6599 117.361 81.5871 117.548C81.5144 117.736 81.5048 117.942 81.5597 118.136C81.6147 118.33 81.7312 118.5 81.8917 118.622C82.0522 118.743 82.248 118.809 82.4493 118.81C83.2213 118.671 83.6922 118.146 85.4215 117.042C84.7421 129.34 68.8774 137.16 55.7147 138.92ZM105.424 100.776C109.964 101.493 109.848 106.126 105.085 107.546C100.53 109.229 94.5466 112.309 91.9604 117.466C89.6444 121.998 90.2311 128.02 87.4982 132.32C82.5188 140.094 73.3473 143.429 65.2876 138.805C79.2763 134.45 90.4859 123.812 86.6644 110.395C90.9028 105.763 95.3264 101.3 99.3717 97.232C100.661 99.2778 103.363 100.135 105.424 100.776ZM85.9928 108.326C85.8384 107.852 85.6685 107.366 85.4833 106.867C90.0149 101.023 99.171 91.7894 104.614 84.7564C105.015 85.7291 105.471 86.6941 105.949 87.6282C102.298 91.936 93.7129 99.9109 85.9928 108.326ZM128.044 71.9025C128.168 79.5067 137.308 88.8866 135.764 98.3051C134.282 107.222 123.512 108.249 119.073 104.003C114.928 100.042 111.909 94.7384 108.605 88.6782C104.66 81.7301 102.105 73.9483 109.377 69.378C110.326 71.0764 110.597 71.5859 111.16 71.7403C111.724 71.8947 112.341 70.9143 111.932 70.3198C111.462 69.4684 111.049 68.5864 110.697 67.6796C108.813 63.0475 108.458 59.5812 112.241 59.9055C114.557 60.0985 117.398 64.3136 119.289 66.6374C121.181 68.9611 127.882 61.9822 128.052 71.9025H128.044ZM148.95 40.7597C147.182 49.6764 137.138 40.0649 137.625 52.8956C137.47 60.415 131.009 55.3583 125.659 64.3831C124.861 64.2558 124.048 64.2558 123.25 64.3831C127.758 58.678 141.245 42.9059 141.608 40.8137C141.778 39.1539 140.35 39.7252 138.79 37.6253C143.222 35.6258 149.367 35.6567 148.958 40.7597H148.95Z" fill="#001434"/>
<path d="M72.8683 53.6058C77.2687 53.2507 80.874 54.6403 77.0757 58.647C75.8251 59.9671 77.1915 60.909 78.2415 60.0829C80.9126 57.9985 80.8431 55.7057 80.2101 54.1848C79.1293 51.6835 74.5976 51.3284 72.0963 51.9692C70.4982 52.386 70.6912 53.7834 72.8683 53.6058Z" fill="#001434"/>
<path d="M58.8028 61.118C58.5095 61.89 60.1847 63.0557 60.8332 61.7356C62.0839 59.1957 64.1683 56.733 66.8935 56.1308C67.3953 56.015 67.8276 55.4823 67.6037 55.0269C66.3994 52.6105 60.5167 56.8256 58.8028 61.118Z" fill="#001434"/>
</svg>
