<svg width="155" height="155" viewBox="0 0 155 155" fill="none" xmlns="http://www.w3.org/2000/svg">
<path d="M129.395 140.036C93.6019 140.072 23.4339 140.129 19.1003 140.013C13.2673 139.859 4.24581 140.944 5.04506 132.243C5.84431 123.541 5.04506 105.547 5.04506 105.547H150.052C150.052 105.547 150.558 124.826 150.052 130.661C149.546 136.496 141.782 140.023 129.395 140.036Z" fill="#F9F1DD"/>
<path d="M89.0885 105.219C89.2168 105.621 89.213 105.279 89.1454 106.405C89.0747 107.588 90.2328 106.567 78.201 109.869C78.1849 109.874 64.5538 113.339 64.3471 113.35C63.929 110.571 63.906 111.225 64.6737 111.023C64.6906 111.017 85.3405 106.372 89.0885 105.219Z" fill="white"/>
<path d="M78.9019 104.75C92.5759 104.812 90.2712 103.541 66.2983 109.745C63.8191 110.387 63.8053 110.675 63.7753 109.805C63.5593 103.569 60.6313 104.686 67.9299 104.639C78.2632 104.577 70.0709 104.709 78.9019 104.75Z" fill="white"/>
<path d="M38.7725 87.1951C39.4432 87.6521 39.9936 88.2644 40.3768 88.9798C40.76 89.6953 40.9647 90.4927 40.9735 91.3043C41.1003 94.9547 37.1817 96.9913 34.7416 93.5768C32.1533 89.9509 35.232 84.9856 38.7725 87.1951Z" fill="white"/>
<path d="M59.3678 84.6868C61.6372 103.863 63.4363 112.959 63.3694 113.477C63.3533 113.477 25.6979 110.642 23.5422 110.433C21.6071 110.246 22.029 110.433 17.6524 77.9669C16.8554 72.0494 16.1299 71.742 21.4557 72.1147C24.061 72.2976 21.8492 72.044 25.787 72.2999C32.8212 72.7564 30.4588 72.6842 31.381 72.7019C31.8967 72.7118 32.7643 72.5374 32.9019 72.5666C33.2961 72.6496 39.9522 73.0008 42.5175 72.9947C43.5165 72.9947 50.2733 73.7901 51.7012 73.84C58.8859 74.0944 57.9883 73.03 59.3678 84.6868ZM37.7089 96.2213C43.8893 96.3158 42.7949 84.9242 36.3256 85.8188C35.6358 85.993 35.0077 86.3544 34.5104 86.8632C31.3887 89.4853 33.32 96.1544 37.7089 96.2213Z" fill="white"/>
<path d="M95.3119 52.4047C94.8893 52.6829 94.289 53.1055 93.8464 53.3476C91.454 54.6541 89.6127 54.3075 88.36 53.4037C88.1294 53.2377 89.9301 52.7167 90.6724 51.1128C90.7731 50.8961 90.5072 50.5825 90.4941 50.5618C90.0446 50.5618 90.611 50.4726 88.4345 50.8953C87.3393 50.9074 86.2591 50.6392 85.2967 50.116C85.2806 50.1045 83.6536 49.2361 83.4308 48.6943C85.7363 48.2647 85.299 48.5145 86.9659 47.8028C88.8741 46.989 88.6428 46.9767 88.8572 46.7569C88.5237 45.5204 85.744 48.2171 82.7576 44.6927C94.6871 42.6177 87.0712 32.1368 89.1523 28.4963C89.4657 29.5513 90.1475 30.4586 91.0736 31.0532C90.2559 37.6508 91.2004 36.7755 90.9875 39.1164C90.6148 43.2725 89.7264 44.1101 95.3119 52.4047Z" fill="#FF9C9F"/>
<path d="M124.318 46.7479C125.487 47.7975 126.992 48.3952 128.562 48.4333C126.114 51.1938 121.991 51.402 119.651 49.5522C118.712 48.8099 118.684 50.1232 119.718 50.6212C120.664 51.1881 121.73 51.5241 122.83 51.6018C121.565 52.1311 120.156 52.2081 118.841 51.8201C116.722 51.1623 115.965 49.7451 115.648 50.7273C116.084 51.5857 117.864 52.3342 118.773 52.6793C117.129 53.0661 115.404 52.9055 113.861 52.222C113.207 50.1615 112.87 48.0136 112.861 45.8519C112.853 43.043 112.835 44.1996 114.629 43.461C115.09 44.6238 114.755 44.8789 116.409 47.0446C116.498 47.1901 116.634 47.3016 116.794 47.3616C116.953 47.4216 117.129 47.4266 117.292 47.3758C117.503 46.8732 116.612 46.6158 115.766 44.2933C115.565 43.7423 115.25 42.9269 115.584 42.5565C116.302 41.485 116.829 40.2973 117.142 39.0459C117.638 36.7035 117.248 36.2186 116.604 35.3617C117.006 33.133 117.393 29.9499 116.558 27.8303C116.215 26.9581 115.866 25.5248 115.291 25.514C114.629 26.3809 116.386 27.7473 116.214 31.991C116.237 32.7992 116.156 33.607 115.972 34.3942C115.659 35.4701 116.374 34.8745 114.435 34.9021C113.375 34.9175 113.282 35.3325 113.402 34.8476C114.329 31.075 114.33 31.5553 113.676 31.3616C113.469 31.5595 113.332 31.8183 113.283 32.1002C112.447 36.6736 109.92 41.1686 109.517 40.8796C110.727 35.8528 110.936 35.5715 110.547 30.3925C110.501 29.7908 109.146 24.475 109.548 23.4137C109.651 23.1409 110.187 21.3756 109.874 20.9499C109.471 20.8453 109.403 20.7316 109.259 21.421C108.579 24.6487 107.361 25.2566 107.735 28.1393C106.767 27.9434 105.892 27.4294 105.249 26.6791C104.196 25.4572 104.523 24.1914 104.844 22.4792C105.029 21.4978 104.678 21.7061 104.34 21.6523C104.033 21.9405 103.732 23.7949 103.73 24.2652C103.63 25.5628 103.741 26.868 104.059 28.13C101.274 28.867 100.259 24.1784 100.727 21.1935C100.804 20.6893 101.208 19.6403 100.194 20.0715C99.8077 21.4026 99.6996 22.799 99.8767 24.1738C100.046 25.5034 100.466 26.7889 101.113 27.9625C99.3533 28.7894 97.5189 27.5437 96.6013 25.7377C96.5678 25.6722 96.5125 25.6204 96.445 25.5912C96.3774 25.5619 96.3019 25.5571 96.2311 25.5774C96.1604 25.5977 96.099 25.642 96.0573 25.7026C96.0156 25.7633 95.9963 25.8365 96.0027 25.9098C96.0488 26.417 96.151 27.0664 96.3462 28.1139C96.639 29.684 96.8626 29.6348 96.3077 29.6263C93.3229 29.5833 92.6058 26.905 92.6058 23.9394C92.1555 23.4783 91.1564 24.5288 92.5797 28.2584C92.2584 28.96 92.1677 29.7453 92.3207 30.5017C91.7228 30.6792 89.5541 29.5433 89.611 25.9452C89.6601 22.8711 92.2085 19.7494 94.2797 19.0647C94.5609 18.9717 93.9722 19.8125 94.3849 20.4895C94.7354 20.4895 94.9421 20.5956 95.0474 19.8501C95.3448 17.7475 99.6669 14.3023 106.821 16.6946C109.832 17.7014 110.699 16.6493 114.325 18.0449C116.197 18.8206 117.844 20.0532 119.117 21.63C126.293 32.4767 118.103 39.5001 126.243 45.3823C123.597 46.316 122.836 42.9753 122.209 43.4134C121.978 43.5755 121.97 43.6616 122.115 43.9698C122.718 44.9926 123.46 45.9275 124.318 46.7479Z" fill="#FF9C9F"/>
<path d="M118.538 57.992C119.01 59.3338 117.754 62.0605 117.058 62.8244C114.83 65.2667 115.563 65.2183 114.445 66.2942C113.774 66.9421 113.442 67.7236 112.435 68.8188C112.091 69.1218 111.683 69.3435 111.242 69.4674C110.929 69.0316 110.499 64.6519 108.977 64.6742C108.33 64.6834 108.685 65.9653 107.768 65.6172C107.61 65.3244 107.861 63.9802 108.586 63.8834C109.523 63.6233 110.384 63.1412 111.095 62.4778C111.465 62.0513 111.783 61.5816 112.041 61.0791C113.682 59.0195 116.371 57.255 115.876 54.0288C116.689 54.6754 117.278 55.5632 117.556 56.5649C117.692 57.4433 118.346 57.4402 118.538 57.992Z" fill="white"/>
<path d="M103.749 63.967C104.276 64.5818 103.888 65.6808 103.529 64.9991C103.194 64.3605 102.658 64.4827 102.503 64.8961C101.758 66.8858 102.218 66.8174 101.649 68.5788C100.845 68.0662 99.1128 64.7762 98.9345 64.143C98.0192 60.8499 98.5718 58.8364 101.465 56.9075C101.667 57.6698 101.844 58.3423 102.027 59.0301C100.843 60.7754 103.113 63.2215 103.749 63.967Z" fill="white"/>
<path d="M136.938 74.4319C137.455 76.0242 136.88 85.513 136.575 89.1742C135.807 98.3771 140.862 97.73 136.399 105.945C135.17 108.206 135.642 108.245 134.953 108.788C130.706 112.161 123.81 109.385 122.95 108.275C121.875 106.88 121.553 107.353 121.133 106.486C119.633 103.394 120.062 103.006 119.989 100.476C119.975 99.9525 120.952 98.2764 121.638 97.4457C122.147 96.8309 122.012 96.0462 122.227 95.3115C122.547 94.5691 123 93.8918 123.565 93.3134C123.95 92.7962 123.734 91.9385 123.21 92.3343C122.732 92.6947 122.679 93.7099 122.681 90.5998C122.686 86.3123 122.194 79.8514 122.251 78.5657C122.322 76.9703 122.525 76.4023 122.346 75.8221C120.118 75.703 122.358 86.7219 121.655 93.2104C121.574 93.5646 121.539 93.9278 121.55 94.2909C121.39 94.7184 121.268 95.1592 121.186 95.6082C121.32 96.6802 120.548 97.0284 120.064 97.8906C118.658 100.394 118.615 101.676 119.263 104.475C119.503 105.51 119.633 105.402 119.103 105.381C103.764 104.793 108.154 105.766 93.6711 105.222C93.3283 105.209 93.628 103.937 93.691 102.678C93.7423 101.658 93.5975 100.638 93.2645 99.6736C92.1463 96.4351 92.2654 97.7577 91.8428 95.5305C89.7401 84.4348 90.5486 85.8004 91.9826 74.9552C92.7727 68.9809 92.828 68.9432 92.5621 68.3607C92.0449 68.4421 91.9988 68.1747 91.6199 70.3257C90.3011 77.8195 92.5037 74.1468 87.5929 76.9572C84.5342 78.7079 85.7961 78.1868 83.1517 80.1619C79.6365 82.7894 82.0412 80.6276 78.2901 83.7739C75.8678 85.8074 76.3181 85.407 75.6203 85.8489C73.862 86.9563 73.7213 87.2737 74.1156 85.958C74.1514 85.8601 74.1501 85.7524 74.1119 85.6554C74.0738 85.5584 74.0014 85.4787 73.9085 85.4314C73.8156 85.3841 73.7086 85.3725 73.6077 85.3987C73.5068 85.4249 73.419 85.4872 73.3609 85.5737C73.0612 85.958 73.0942 86.4191 72.9167 87.0278C72.6239 88.0414 72.0713 88.3865 71.2529 89.1604C71.0807 89.3233 70.8233 89.8221 70.2838 89.9788C66.4897 91.0778 70.0993 90.4323 70.0963 85.5007C70.0963 85.1165 70.0263 84.205 69.4861 84.0283C68.5431 83.7209 69.5829 85.2156 68.5008 88.4088C68.2059 89.1207 67.7743 89.768 67.2305 90.3139C66.6576 90.8288 66.0004 91.2413 65.2877 91.5335C63.7599 92.2367 62.2344 91.4897 61.0117 90.2747C62.7355 89.6422 63.295 89.5469 64.4131 87.329C65.2447 85.6783 64.1826 86.5421 65.6312 80.4124C65.6958 80.1373 65.5767 79.7323 65.6428 79.4134C65.8064 78.6318 65.5236 75.9551 64.4131 75.7145C63.8959 74.7047 63.4909 73.3836 63.0675 72.3185C64.7059 71.1327 64.958 72.692 66.5942 71.2856C68.4386 69.6971 68.9942 70.0214 69.921 70.7477C70.3928 71.1068 70.7696 71.5759 71.0185 72.1141C72.3718 75.1697 72.1712 77.8717 72.9497 78.93C73.2295 79.3088 73.158 79.4825 73.3463 81.5783C73.3452 81.6404 73.3564 81.7022 73.3792 81.76C73.402 81.8179 73.436 81.8707 73.4792 81.9154C73.5665 82.0057 73.6861 82.0576 73.8116 82.0597C73.9372 82.0619 74.0584 82.014 74.1487 81.9268C74.239 81.8395 74.291 81.7199 74.2931 81.5944C74.3023 80.7842 74.2509 79.9745 74.1394 79.1721C74.0625 78.1638 73.6422 78.7363 73.3494 77.0026C72.3918 71.3394 71.3159 71.3248 71.6586 70.9936C72.4277 70.3716 73.2294 69.7911 74.0602 69.2544C76.8661 67.1872 82.49 63.1924 84.1016 62.0212C87.5722 59.4967 90.2074 57.2488 94.7839 57.082C95.3218 57.0628 96.7605 57.0106 97.3607 57.0336C101.318 57.1873 99.7184 56.3881 98.5388 58.4484C96.4408 62.1127 98.3628 66.122 101.075 69.4012C101.5 69.9154 102.282 69.9653 102.45 69.3182C102.811 67.9226 102.763 66.2096 103.136 65.8791C103.709 66.1824 104.314 66.4204 104.94 66.5885C106.919 67.0035 105.835 67.2233 109.309 66.3449C110.186 67.7958 109.728 71.3471 111.567 70.4433C113.809 69.3428 112.989 69.4696 114.981 67.1887C116.288 65.6939 116.248 65.1429 117.157 64.2023C119.086 62.208 119.206 60.7032 119.708 58.6183C120.125 58.639 122.104 59.044 122.142 59.0586C125.133 60.2283 128.743 60.163 130.911 61.4986C130.848 61.6339 130.762 61.826 130.701 61.9598C130.69 61.9838 130.671 62.004 130.648 62.0177C130.626 62.0314 130.599 62.0379 130.573 62.0366C129.976 61.9374 129.365 62.0709 128.864 62.4096C128.364 62.7483 128.012 63.2662 127.883 63.8564C127.869 63.9082 127.843 63.9555 127.805 63.9938C127.768 64.0321 127.721 64.06 127.67 64.0747C127.429 64.1423 127.2 64.2061 126.971 64.2668C126.68 64.3522 126.413 64.5043 126.191 64.711C125.97 64.9176 125.799 65.1732 125.694 65.4573C125.588 65.7413 125.55 66.0461 125.583 66.3474C125.617 66.6486 125.719 66.938 125.884 67.1925C126.214 67.6759 126.66 68.6066 127.071 69.1545C127.455 69.6687 126.994 69.8608 127.086 72.8795C127.214 73.463 127.203 74.0684 127.055 74.6471C126.895 75.7518 127.155 76.8764 127.785 77.798C128.183 78.3836 126.276 95.3707 125.48 96.5304C125.172 95.9348 125.34 96.0032 124.767 96.1576C124.011 98.3225 126.111 99.0388 127.157 101.945C127.723 103.518 130.507 104.933 132.263 103.867C133.328 103.217 134.63 103.258 135.458 102.321C136.226 101.448 136.87 100 136.022 99.1702C135.561 98.7222 135.725 97.9798 135.666 96.5434C135.401 91.9681 135.389 87.3816 135.629 82.8048C135.753 79.7646 135.61 78.3521 136.938 74.4319ZM109.39 69.0262C109.721 67.7021 108.433 68.5651 107.225 68.5059C106.261 68.4606 104.977 68.6373 103.844 68.0586C103.699 68.0125 103.548 67.9904 103.397 67.9933C102.555 69.6425 107.544 69.621 109.39 69.0262Z" fill="#B8D7FF"/>
<path d="M99.1504 48.6299C99.4063 46.8093 101.994 45.3468 103.388 45.7949C103.024 46.6212 102.436 47.3288 101.69 47.8376C100.927 48.3185 100.051 48.5916 99.1504 48.6299Z" fill="#FFAEB4"/>
<path d="M104.259 42.6359C104.747 42.5406 105.214 42.2324 105.012 42.5967C104.6 43.3406 104.88 43.2115 102.926 43.8263C100.96 44.4458 98.951 44.9237 96.916 45.2565C96.1106 44.0415 96.0599 44.7047 99.1347 43.7064C100.529 43.2499 101.038 43.2676 104.259 42.6359Z" fill="white"/>
<path d="M116.517 37.3095C116.647 39.6151 114.399 43.8826 112.691 42.6537C112.614 42.5855 112.516 42.5451 112.413 42.5391C112.31 42.533 112.208 42.5615 112.123 42.6202C112.039 42.6789 111.976 42.7642 111.945 42.8627C111.915 42.9611 111.918 43.0669 111.955 43.1633C112.189 43.9149 111.494 47.9918 113.257 53.2569C114.887 58.1277 114.751 55.7807 113.99 57.3792C113.759 57.8679 111.999 59.5095 111.569 60.1243C111.176 60.4209 111.059 60.9089 110.778 61.2824C109.837 62.5351 108.093 63.0215 107.57 63.2621C107.139 63.4619 106.92 64.4026 106.83 64.8683C106.631 65.9073 106.881 66.0841 106.189 65.9442C104.299 65.5676 105.059 65.5899 104.818 64.3434C104.628 63.3543 104.167 63.2168 103.493 62.3506C103.283 61.559 103.141 60.751 103.068 59.9352C103.009 59.7408 102.324 57.0149 102.547 56.7567C103.661 55.4871 104.763 55.1382 109.31 49.1054C109.383 49.0124 109.416 48.8947 109.402 48.7776C109.389 48.6605 109.33 48.5533 109.239 48.479C108.365 47.7874 107.416 50.9022 102.202 53.4744C101.071 54.0418 99.8412 54.3889 98.5797 54.4972C96.7299 54.6433 92.2779 46.6108 91.7069 44.844C90.6886 41.6931 91.6915 41.272 91.5132 38.1795C91.4325 36.7777 91.4748 37.2219 91.3365 35.2699C91.3111 34.9187 91.7123 34.9341 91.8306 34.5783C92.1949 33.4962 94.004 33.4393 94.2691 33.4555C94.6856 33.4816 94.8908 32.7231 94.3821 32.3626C93.187 31.5173 92.1957 32.6493 91.6869 33.1043C91.6662 32.5031 91.7731 31.9043 92.0005 31.3474C93.9848 31.6587 92.9703 30.5328 93.1048 29.1741C94.0355 30.0072 94.2322 30.3369 96.1289 30.4744C98.7418 30.6635 97.1064 28.9274 96.8428 28.2457C96.0259 26.1293 96.4363 26.585 96.4524 26.6319C96.7209 27.2368 97.1333 27.7668 97.6535 28.1759C98.1738 28.585 98.7862 28.8606 99.4373 28.9789C100.334 29.1306 101.254 29.0306 102.097 28.6899C102.833 29.0596 103.671 29.1755 104.48 29.0196C105.288 28.9428 104.876 28.3564 104.809 27.5495C105.636 28.3316 106.667 28.8644 107.783 29.0865C110.142 29.5015 107.578 27.8907 108.818 25.7681C109.048 27.1514 110.077 30.4775 109.932 33.3955C109.602 40.0254 108.37 42.2649 109.567 41.5924C112.775 39.2485 111.548 35.0055 114.947 35.3714C115.404 35.4377 115.82 35.674 116.111 36.0332C116.402 36.3925 116.547 36.8482 116.517 37.3095ZM115.167 37.816C116.502 38.0327 115.198 35.9992 114.104 36.8031C113.804 37.0064 113.546 37.2673 113.347 37.5707C113.148 37.8741 113.01 38.2139 112.943 38.5707C112.862 39.5029 113.629 39.685 113.734 40.1523C113.523 40.4012 113.131 40.5488 113.214 40.9976C113.402 41.3381 113.573 41.4018 113.916 41.252C114.461 41.013 114.454 40.714 114.559 40.1761C114.84 38.7805 113.031 39.4299 114.302 37.5785C114.357 37.4843 114.445 37.4132 114.548 37.3783C114.652 37.3435 114.765 37.3471 114.866 37.3887C114.97 37.5332 115.071 37.6761 115.167 37.816ZM106.973 43.5306C107.515 39.9294 102.966 39.7342 105.145 41.3511C104.47 41.8376 103.258 41.8783 100.38 42.4655C98.2976 42.8905 98.6704 43.1394 95.2021 43.8057C94.7371 43.8949 94.8316 44.1669 94.8624 44.4352C95.5118 44.6434 95.5717 44.6073 95.7077 44.8778C96.3933 46.2365 97.7166 48.1132 97.4038 48.9179C97.9418 49.5903 99.1837 49.6157 100.021 49.4466C102.033 49.0416 103.304 48.3046 104.786 45.0469C107.067 40.0393 105.26 44.0578 106.973 43.5306ZM95.501 39.705C96.0551 42.291 100.003 41.242 99.3897 39.768C99.289 39.5259 98.834 39.5874 98.6273 39.8333C97.6882 40.9492 96.0374 39.7411 96.3986 39.134C96.6622 38.6882 98.7618 38.3693 98.1016 36.1022C97.5745 35.824 97.4231 36.1245 97.41 36.8308C97.3846 38.1856 95.0691 37.693 95.501 39.705Z" fill="#FFCEB6"/>
<path d="M135.113 59.6284C134.849 60.0298 134.666 60.4792 134.575 60.951C134.184 60.5113 133.676 60.1915 133.111 60.0287C132.86 57.7463 134.258 56.9147 134.571 57.9538C134.732 58.5056 134.922 59.0504 135.113 59.6284Z" fill="#FFCEB6"/>
<path d="M140.269 62.3152C141.668 63.8568 139.996 64.467 139.26 67.133C138.637 69.3893 135.793 72.9982 134.961 78.9457C134.884 79.5121 134.376 92.0934 134.566 94.9553C134.716 97.219 134.714 99.4901 134.561 101.754C133.964 102.15 134.466 101.754 131.882 102.809C131.531 102.952 131.257 103.347 130.605 103.149C127.57 102.234 128.414 101.405 127.169 99.624C125.077 96.6307 127.264 99.5802 128.725 78.6875C129.109 78.7982 129.269 78.7843 129.38 78.5799C129.414 78.4104 129.401 78.2349 129.342 78.0723C129.283 77.9098 129.181 77.7664 129.047 77.6577C128.604 77.2695 128.273 76.7703 128.087 76.2114C127.902 75.6526 127.868 75.0543 127.991 74.4784C128.195 73.447 127.941 73.2488 127.962 71.8655C127.993 69.7667 128.364 69.4147 127.07 67.478C126.575 66.7372 126.259 66.2815 126.661 65.5568C126.9 65.1272 126.977 65.1187 127.716 64.9274C128.383 64.7544 128.219 65.5591 129.922 67.3374C130.601 68.0475 130.781 68.1828 130.94 68.1459C132.254 67.8592 130.29 66.5873 129.592 65.586C129.383 65.2878 128.643 63.989 128.845 63.6877C129.486 62.7356 130.382 62.7371 130.633 63.0468C131.576 64.3093 132.643 65.4748 133.818 66.5259C134.193 66.7818 134.586 66.3829 134.293 66.0394C133.516 65.1226 131.851 63.6716 131.633 62.5388C131.513 61.9148 131.548 62.2237 131.793 61.6689C132.037 61.114 132.945 61.031 132.962 61.0341C133.968 61.227 133.347 61.124 135.372 63.5317C135.865 64.1158 137.109 65.3377 137.64 64.8382C137.687 64.7943 137.719 64.7378 137.734 64.6757C137.749 64.6136 137.745 64.5486 137.723 64.4885C137.534 63.9721 138.181 63.7 138.108 62.701C138.068 62.1723 137.477 62.2514 137.138 61.8925C136.889 61.6289 135.797 61.4314 135.853 61.8472C135.88 62.0485 136.094 62.2591 136.923 62.5657C137.351 62.724 137.223 63.202 137.102 63.3581C136.982 63.5141 136.953 63.7323 136.763 63.8691C136.066 63.3235 136.209 63.1075 135.551 62.5627C134.519 61.7058 136.26 59.0844 137.417 59.7845C138.53 60.4251 139.5 61.2863 140.269 62.3152Z" fill="#FFCEB6"/>
<path d="M52.6075 40.6812C54.0292 41.4343 53.6764 40.808 52.7612 42.9467C52.5421 42.8622 52.2562 42.1705 51.8635 41.628C51.6122 41.2806 51.5139 41.3382 51.125 40.7995C51.6607 40.7004 52.1717 40.8764 52.6075 40.6812Z" fill="#FFCEB6"/>
<path d="M55.0295 41.1501C56.4129 38.3235 55.9564 38.624 55.9564 36.4038C58.0183 36.4945 57.0184 42.0393 55.0295 41.1501Z" fill="#FFCEB6"/>
<path d="M55.2748 37.7644C55.3273 38.1989 55.2892 38.6395 55.163 39.0585C55.0369 39.4775 54.8253 39.8659 54.5416 40.1991C54.2342 40.621 54.0144 40.2429 53.4403 40.0723C53.5733 39.688 54.3441 38.1679 54.185 37.4294C54.0302 36.6175 53.748 35.8352 53.3489 35.1115C53.4651 35.0658 53.5902 35.0469 53.7148 35.0563C53.8394 35.0658 53.9602 35.1033 54.0682 35.1661C55.1925 35.8316 55.1042 36.5479 55.2748 37.7644Z" fill="#FFCEB6"/>
<path d="M51.8611 34.5337C52.8109 35.6949 53.5379 36.9376 53.2513 38.1887C52.8179 40.0808 52.2522 39.8026 51.4561 39.8026C52.0159 38.9602 52.2608 37.9474 52.1477 36.9422C51.8275 35.9814 51.1939 35.156 50.3486 34.5983C50.3824 34.3984 50.4508 34.3055 50.6607 34.2909C51.1648 34.2463 51.6474 34.1979 51.8611 34.5337Z" fill="#FFCEB6"/>
<path d="M61.1409 69.5552C63.4464 77.2403 65.3762 79.4197 64.3271 82.0872C64.1029 82.8342 63.9485 83.6003 63.866 84.3759C63.7 85.6739 64.2119 86.0082 63.2028 87.5882C62.6292 88.3336 61.8294 88.8729 60.9234 89.1252C60.7543 88.8763 60.4808 85.9467 60.0696 82.7766C58.6363 71.7185 59.5186 73.6098 51.616 72.7414C51.0696 69.0395 51.5253 67.1536 50.723 54.1035C50.2857 46.9979 49.9545 48.1929 47.8411 45.5808C47.5062 44.8796 47.1075 44.2107 46.6499 43.5826C46.1473 43.0893 44.8777 41.8742 44.7286 40.9751C44.289 38.3622 45.524 38.5489 46.2826 37.3769C46.8524 36.4966 47.5162 35.6808 48.2622 34.9438C48.4372 34.7899 48.6609 34.7028 48.8939 34.6977C49.1269 34.6927 49.3541 34.77 49.5357 34.9162C50.3264 35.3911 51.7482 36.653 51.669 37.4192C51.5522 38.5597 51.0235 39.9391 49.9483 39.7939C49.498 39.7332 48.781 39.2475 48.9101 38.8125C49.0638 38.2861 49.6748 37.4007 49.1345 37.2955C48.4905 37.4092 48.4136 38.1024 48.3521 38.7756C47.6851 38.1155 46.9773 38.771 47.7158 39.4396C48.7725 40.3949 50.0774 41.0612 50.4878 41.523C53.2053 44.5817 53.09 46.3815 53.5688 47.8771C54.7054 48.0377 53.92 45.0528 53.5895 44.1513C53.5461 43.6629 53.6238 43.1712 53.8156 42.7199C54.0074 42.2686 54.3075 41.8715 54.6893 41.5638C55.8651 42.1348 56.4914 41.928 57.1685 40.6884C58.2444 38.7264 56.5483 38.3668 58.7777 33.2954C59.0152 32.7574 59.3426 31.8759 60.3347 32.0204C60.6137 32.0619 60.719 32.3324 60.6421 32.7029C59.8055 35.0354 59.2357 37.4553 58.9437 39.9161C58.3643 45.5362 56.1133 44.9998 57.0993 50.3801C57.8639 56.8808 59.2167 63.2988 61.1409 69.5552Z" fill="#FFCEB6"/>
<path d="M144.762 105.275C149.52 105.352 149.785 105.133 150.807 105.618C150.771 106.341 150.61 106.363 140.373 106.064C136.881 105.962 137.906 105.801 136.992 107.016C136.311 107.919 136.625 109.208 135.055 110.062C133.379 110.974 131.75 112.051 127.6 111.239C121.552 110.055 122.605 108.827 121.036 107.987C120.487 107.692 120.154 106.826 119.987 106.497C119.603 105.748 102.004 106.365 101.927 106.365C101.909 106.365 93.6588 106.134 89.9469 106.134C89.9092 108.266 89.7932 108.022 86.9881 108.689C80.1553 110.317 64.8935 114.365 63.2735 114.404C62.933 114.412 43.0571 112.684 42.4192 112.673C41.6422 112.659 27.2296 111.893 23.1488 111.243C20.3999 110.805 21.2652 108.359 20.6289 106.379C17.8016 106.379 22.4441 106.364 15.7427 106.449C11.9294 106.498 12.694 106.379 8.86994 106.337C6.32079 106.309 5.52078 106.597 4.85832 106.228C4.50711 104.768 5.16572 105.767 18.4002 105.469C22.1221 105.385 19.9726 108.599 16.3606 75.4198C15.7927 70.2047 17.0715 70.8634 29.167 71.6449C30.3482 71.7218 30.392 71.824 30.5288 71.7986C32.8951 71.3375 49.2513 72.7208 50.6292 72.7746C50.4109 70.3654 50.4355 64.7929 49.8092 54.1367C49.6739 51.8312 49.8038 50.7553 49.3819 48.7572C49.1767 47.7873 48.5073 47.5376 46.8404 45.4226C46.8281 45.4057 44.4581 42.3171 44.3451 42.0504C43.4482 39.8602 44.1015 38.0034 45.3895 37.1442C45.7737 36.8906 45.411 37.0336 46.2349 36.1214C47.1471 35.1162 47.7281 33.6437 49.3696 34.1056C50.2011 33.4308 50.1996 33.3985 51.1372 33.3155C51.4642 33.3285 51.7845 33.4129 52.0755 33.5628C52.3665 33.7127 52.6212 33.9244 52.8217 34.1832C53.2848 34.1049 53.7599 34.141 54.2058 34.2884C54.6517 34.4357 55.0549 34.6898 55.3801 35.0285C55.8574 35.5842 56.0441 35.4128 57.0247 35.7686C57.5519 34.7288 57.1784 34.6328 58.3312 32.4855C59.0513 31.1499 60.5952 31.0899 61.114 31.6494C62.0269 32.6339 61.0002 33.3248 60.0957 37.9988C59.5316 40.9192 60.3262 40.6748 58.4695 45.2013C58.1979 45.8569 57.995 46.5389 57.8639 47.2363C57.5973 48.6911 57.7171 49.1215 58.5925 54.7446C59.1162 57.8599 59.8089 60.9444 60.6675 63.9844C61.2059 66.4512 61.8728 68.8881 62.6656 71.2853C64.9711 69.9611 64.8942 71.6534 66.2522 70.2655C66.6296 69.8604 67.1032 69.5574 67.6291 69.3844C68.155 69.2115 68.716 69.1743 69.2602 69.2764C72.4694 70.3154 68.1789 71.5558 76.9952 65.9925C84.1608 61.4706 87.0557 56.9072 94.5825 56.2586C97.3576 56.0188 100.1 56.5353 101.247 56.0765C100.627 53.7894 98.8224 56.3839 96.3324 53.8132C95.6607 53.1216 96.1564 53.0263 94.1921 54.1206C93.352 54.6567 92.3912 54.974 91.397 55.0437C90.4029 55.1133 89.4072 54.9331 88.5005 54.5195C85.1837 52.7896 87.6606 53.2537 89.2875 51.5914C88.0683 51.8237 86.809 51.7204 85.644 51.2925C84.5104 50.9159 82.1288 49.2667 82.2357 48.2085C82.7237 47.5637 83.0042 48.1109 85.5172 47.4792C86.2765 47.2886 84.0101 47.3754 82.5077 45.6609C79.5251 42.2564 85.4457 45.6263 88.2754 40.6402C88.7056 39.8023 88.9153 38.8687 88.8848 37.9274C88.9517 34.3061 86.7645 29.9917 88.8548 27.3903C88.6467 25.9425 88.8169 24.4654 89.3488 23.1028C89.8808 21.7402 90.7564 20.5384 91.8904 19.6146C92.672 18.8582 93.6406 18.3232 94.697 18.0645C95.4602 17.9876 95.1927 17.3259 96.9511 16.3891C102.576 13.3919 106.446 16.2585 109.408 16.3845C119.957 16.8325 123.77 24.9672 123.11 35.4243C122.913 38.5629 123.312 42.2456 125.864 44.0993C126.996 45.1198 127.689 44.8163 127.613 45.5218C126.637 46.9274 124.288 45.9967 126.235 46.9581C127.505 47.5844 127.772 47.4845 129.346 47.5921C129.45 47.606 129.548 47.6495 129.627 47.7174C129.707 47.7852 129.766 47.8746 129.796 47.9749C129.827 48.0752 129.828 48.1821 129.799 48.2829C129.771 48.3838 129.714 48.4742 129.635 48.5435C128.049 50.2888 127.271 51.0942 124.046 51.5576C123.684 52.5974 121.362 52.9409 120.371 52.9532C119.724 52.9594 120.475 53.5212 117.079 53.7218C117.201 54.1598 118.114 54.6086 118.386 55.859C118.419 56.1008 118.501 56.3334 118.626 56.5435C118.75 56.7535 118.915 56.9367 119.111 57.0824C119.512 57.4375 119.227 57.6596 119.572 57.6796C120.459 57.7318 121.336 57.8897 122.185 58.1499C127.493 59.7638 128.577 59.4564 131.23 60.5323C133.192 61.3308 131.393 57.7549 133.697 56.8488C133.859 56.7544 134.046 56.7138 134.233 56.7329C134.419 56.7519 134.594 56.8297 134.733 56.9549C135.194 57.376 135.387 58.3382 135.719 59.0068C137.277 58.6879 137.313 58.3966 139.366 60.1842C141.083 61.6804 142.209 62.4743 141.359 64.4302C139.417 68.9121 140.809 65.9426 139.579 68.7569C138.855 70.413 138.081 71.5097 137.581 73.2142C138.086 75.0586 138.289 75.831 137.993 80.6004C138.011 82.2957 137.375 89.0217 137.403 91.5024C137.455 93.3062 137.777 95.0919 138.358 96.8005C140.197 100.874 138.318 104.166 138.063 105.127C152.358 105.336 145.108 105.275 144.762 105.275ZM139.261 67.133C139.997 64.4701 141.668 63.8569 140.269 62.3152C139.5 61.2861 138.528 60.4249 137.415 59.7845C136.258 59.0844 134.517 61.7058 135.549 62.5627C136.207 63.1091 136.064 63.325 136.761 63.8692C136.951 63.7324 136.98 63.5126 137.1 63.3581C137.22 63.2036 137.349 62.7241 136.921 62.5658C136.092 62.2584 135.878 62.0486 135.851 61.8472C135.795 61.4291 136.887 61.6289 137.136 61.8925C137.475 62.2514 138.066 62.1723 138.105 62.701C138.182 63.7001 137.535 63.9721 137.721 64.4886C137.743 64.5486 137.747 64.6137 137.732 64.6758C137.717 64.7379 137.685 64.7943 137.638 64.8382C137.106 65.3401 135.862 64.1174 135.37 63.5318C133.344 61.124 133.966 61.2262 132.96 61.0341C132.942 61.0341 132.034 61.1156 131.791 61.6689C131.547 62.2222 131.511 61.9148 131.631 62.5389C131.849 63.6716 133.514 65.1226 134.291 66.0394C134.582 66.3829 134.191 66.7818 133.816 66.5259C132.641 65.4748 131.574 64.3094 130.631 63.0468C130.382 62.7394 129.484 62.7356 128.843 63.6878C128.641 63.989 129.381 65.2878 129.59 65.586C130.288 66.5851 132.252 67.8593 130.938 68.1459C130.779 68.1813 130.599 68.0475 129.92 67.3374C128.217 65.5591 128.383 64.7545 127.714 64.9274C126.975 65.1187 126.898 65.1272 126.659 65.5568C126.257 66.2777 126.573 66.7334 127.068 67.4781C128.362 69.4147 127.99 69.7667 127.96 71.8655C127.939 73.2488 128.19 73.4448 127.989 74.4784C127.866 75.0543 127.9 75.6523 128.085 76.211C128.271 76.7697 128.602 77.2689 129.045 77.657C129.179 77.7657 129.281 77.9091 129.34 78.0716C129.399 78.2342 129.412 78.4097 129.378 78.5792C129.267 78.7836 129.106 78.7974 128.723 78.6868C127.263 99.5795 125.075 96.6299 127.167 99.6233C128.412 101.404 127.568 102.236 130.603 103.148C131.255 103.345 131.526 102.952 131.88 102.808C134.464 101.755 133.962 102.149 134.559 101.753C134.712 99.4894 134.714 97.2182 134.564 94.9546C134.371 92.0342 134.885 79.4776 134.959 78.945C135.793 72.9983 138.637 69.3894 139.261 67.133ZM136.575 89.1746C136.883 85.5134 137.455 76.0247 136.938 74.4323C135.61 78.3517 135.753 79.765 135.632 82.8144C135.392 87.3912 135.404 91.9777 135.669 96.5531C135.728 97.9894 135.566 98.7318 136.025 99.1798C136.871 100.007 136.232 101.455 135.461 102.331C134.633 103.268 133.332 103.227 132.266 103.876C130.51 104.946 127.726 103.531 127.16 101.955C126.114 99.0484 124.014 98.3322 124.77 96.1673C125.343 96.0136 125.174 95.9444 125.483 96.54C126.278 95.3803 128.186 78.3932 127.788 77.8076C127.158 76.886 126.898 75.7614 127.058 74.6567C127.206 74.078 127.217 73.4727 127.089 72.8891C127.001 69.8704 127.46 69.6783 127.074 69.1642C126.663 68.6162 126.217 67.6856 125.887 67.2022C125.722 66.9477 125.62 66.6583 125.587 66.357C125.554 66.0558 125.591 65.751 125.697 65.4669C125.802 65.1828 125.973 64.9273 126.194 64.7206C126.416 64.5139 126.683 64.3619 126.974 64.2765C127.204 64.2157 127.435 64.152 127.673 64.0843C127.724 64.0696 127.771 64.0417 127.808 64.0035C127.846 63.9652 127.872 63.9178 127.886 63.8661C128.016 63.2758 128.367 62.7579 128.867 62.4192C129.368 62.0806 129.979 61.9471 130.576 62.0462C130.704 62.0516 130.701 61.9617 130.914 61.5083C128.746 60.1726 125.136 60.2387 122.145 59.0683C122.107 59.0537 120.128 58.6487 119.711 58.6279C119.209 60.7129 119.089 62.2176 117.161 64.2119C116.251 65.1526 116.289 65.7036 114.984 67.1983C112.992 69.4793 113.812 69.3502 111.57 70.453C109.731 71.3567 110.187 67.8055 109.313 66.3545C105.838 67.2329 106.922 67.0131 104.943 66.5981C104.317 66.43 103.712 66.1921 103.139 65.8888C102.766 66.2192 102.814 67.9323 102.453 69.3279C102.285 69.975 101.503 69.925 101.078 69.4109C98.3697 66.1316 96.4477 62.1223 98.5419 58.4581C99.7215 56.3977 101.322 57.1947 97.3638 57.0433C96.7636 57.0202 95.3211 57.0725 94.7869 57.0917C90.2312 57.2577 87.5968 59.4917 84.1047 62.0309C82.4908 63.2021 76.8692 67.1968 74.0633 69.2641C73.2325 69.8007 72.4308 70.3812 71.6617 71.0032C71.319 71.3344 72.3949 71.349 73.3525 77.0122C73.6453 78.7459 74.0649 78.1734 74.1425 79.1817C74.254 79.9842 74.3054 80.7939 74.2962 81.604C74.2951 81.6662 74.2818 81.7276 74.2571 81.7846C74.2323 81.8416 74.1965 81.8932 74.1518 81.9364C74.1071 81.9796 74.0543 82.0136 73.9965 82.0364C73.9387 82.0592 73.8769 82.0704 73.8147 82.0694C73.7525 82.0683 73.6912 82.055 73.6342 82.0302C73.5771 82.0055 73.5256 81.9697 73.4823 81.925C73.4391 81.8803 73.4052 81.8275 73.3823 81.7697C73.3595 81.7118 73.3483 81.6501 73.3494 81.5879C73.1611 79.4922 73.2326 79.3185 72.9528 78.9396C72.1728 77.8814 72.3749 75.1793 71.0216 72.1237C70.7727 71.5855 70.3959 71.1164 69.9241 70.7573C69.0019 70.0311 68.4478 69.7021 66.5973 71.2953C64.9611 72.7016 64.709 71.1416 63.0706 72.3281C63.4925 73.3933 63.899 74.7144 64.4162 75.7242C65.5252 75.9632 65.808 78.6445 65.6459 79.423C65.5798 79.7404 65.6989 80.1454 65.6343 80.4221C64.1872 86.5517 65.2501 85.6879 64.4162 87.3387C63.2981 89.5566 62.7386 89.6519 61.0148 90.2843C62.2375 91.4994 63.763 92.2464 65.2908 91.5432C66.0035 91.2509 66.6607 90.8384 67.2336 90.3235C67.7774 89.7776 68.209 89.1303 68.5039 88.4184C69.586 85.2237 68.5462 83.7305 69.4892 84.0379C70.0271 84.2147 70.0994 85.1277 70.0994 85.5104C70.0994 90.4419 66.4927 91.0874 70.2869 89.9885C70.8248 89.8348 71.0838 89.3329 71.256 89.17C72.0752 88.3961 72.627 88.0511 72.9198 87.0374C73.0973 86.4226 73.0643 85.9715 73.364 85.5834C73.4221 85.4968 73.5099 85.4346 73.6108 85.4083C73.7117 85.3821 73.8187 85.3938 73.9116 85.4411C74.0045 85.4884 74.0769 85.5681 74.115 85.6651C74.1532 85.7621 74.1545 85.8697 74.1187 85.9676C73.7244 87.2833 73.8651 86.9667 75.6234 85.8585C76.3212 85.4189 75.8709 85.8193 78.2932 83.7835C82.0443 80.6326 79.6396 82.7952 83.1548 80.1715C85.7992 78.1949 84.5381 78.7175 87.596 76.9669C92.5068 74.1564 90.3042 77.8291 91.623 70.3354C92.0019 68.1836 92.048 68.4518 92.5652 68.3703C92.8411 68.9713 92.7635 69.0843 91.9857 74.9649C90.5517 85.8101 89.7432 84.4444 91.8459 95.5402C92.2685 97.7689 92.1533 96.4447 93.2676 99.6832C93.6006 100.648 93.7454 101.668 93.6941 102.687C93.6311 103.947 93.3314 105.219 93.6741 105.232C108.157 105.774 103.767 104.803 119.106 105.391C119.636 105.412 119.506 105.519 119.266 104.485C118.618 101.685 118.661 100.403 120.067 97.9003C120.551 97.038 121.323 96.6899 121.189 95.6178C121.271 95.1688 121.393 94.728 121.553 94.3006C121.542 93.9374 121.577 93.5743 121.658 93.2201C122.36 86.7315 120.121 75.7126 122.35 75.8318C122.529 76.412 122.325 76.9799 122.254 78.5753C122.197 79.8611 122.689 86.3219 122.685 90.6094C122.685 93.7196 122.735 92.7044 123.213 92.344C123.737 91.9482 123.95 92.8051 123.568 93.323C123.003 93.9014 122.55 94.5787 122.23 95.3212C122.015 96.0559 122.153 96.839 121.641 97.4553C120.955 98.2861 119.978 99.9622 119.993 100.486C120.065 103.015 119.636 103.406 121.136 106.496C121.556 107.361 121.878 106.89 122.954 108.284C123.81 109.395 130.709 112.171 134.956 108.798C135.648 108.251 135.174 108.212 136.402 105.954C140.862 97.7304 135.81 98.3791 136.575 89.1746ZM134.573 60.9527C134.664 60.4809 134.847 60.0315 135.111 59.6301C134.92 59.0521 134.726 58.5073 134.564 57.9547C134.253 56.918 132.856 57.7495 133.104 60.0297C133.671 60.1913 134.181 60.5115 134.573 60.9527ZM128.562 48.4336C126.992 48.3955 125.487 47.7979 124.318 46.7483C123.459 45.9283 122.717 44.994 122.113 43.9717C121.943 43.612 121.981 43.5575 122.343 43.3284C123.012 43.6358 123.88 46.2165 126.243 45.3842C118.103 39.502 126.292 32.4786 119.116 21.6319C117.844 20.0551 116.196 18.8225 114.324 18.0468C110.698 16.6512 109.831 17.7033 106.82 16.6965C99.6662 14.3042 95.3441 17.7494 95.0467 19.852C94.9414 20.5975 94.7347 20.4914 94.3843 20.4914C93.9746 19.8144 94.5602 18.9736 94.279 19.0666C92.2078 19.7513 89.6595 22.8715 89.6103 25.9471C89.5534 29.5452 91.7221 30.6811 92.32 30.5036C92.167 29.7472 92.2577 28.9619 92.579 28.2603C91.1557 24.5307 92.1548 23.4763 92.6051 23.9413C92.6051 26.91 93.3222 29.5875 96.3071 29.6282C96.8619 29.6367 96.4408 29.6367 95.899 28.1335C95.4302 26.8339 95.2073 24.0688 95.6308 22.8976C95.9751 22.8507 96.108 23.0152 96.1979 23.7584C96.5153 26.4036 98.7963 29.0526 101.116 27.9644C100.469 26.7908 100.049 25.5053 99.8799 24.1757C99.7028 22.8009 99.8108 21.4045 100.197 20.0734C101.211 19.6422 100.812 20.6882 100.731 21.1954C100.262 24.1803 101.277 28.8689 104.062 28.1319C103.744 26.8699 103.633 25.5647 103.733 24.2671C103.733 23.7952 104.034 21.9408 104.343 21.6542C104.681 21.708 105.035 21.5005 104.848 22.4811C104.526 24.1933 104.2 25.4591 105.253 26.681C105.895 27.4313 106.77 27.9453 107.739 28.1412C107.364 25.2585 108.584 24.6514 109.263 21.4229C109.408 20.7312 109.475 20.8472 109.877 20.9518C110.19 21.3775 109.655 23.1428 109.551 23.4156C109.148 24.4731 110.504 29.7942 110.55 30.3944C110.939 35.5734 110.73 35.8547 109.52 40.8815C109.925 41.1705 112.453 36.6755 113.286 32.1021C113.335 31.8202 113.473 31.5614 113.679 31.3635C114.333 31.5572 114.332 31.0769 113.406 34.8495C113.336 35.1346 113.45 35.017 113.701 34.8695C114.277 34.607 114.933 34.5795 115.529 34.7926C116.103 34.9463 115.743 35.2015 115.978 34.393C116.162 33.6058 116.244 32.798 116.22 31.9899C116.389 27.7461 114.632 26.3797 115.298 25.5129C115.875 25.5244 116.22 26.9569 116.564 27.8291C117.399 29.9487 117.012 33.1319 116.61 35.3605C117.253 36.2174 117.642 36.7024 117.148 39.0448C116.835 40.2961 116.308 41.4838 115.59 42.5553C115.256 42.9257 115.571 43.7411 115.773 44.2922C116.618 46.6146 117.509 46.872 117.298 47.3746C117.135 47.4254 116.96 47.4204 116.8 47.3604C116.64 47.3004 116.505 47.1889 116.415 47.0434C114.761 44.8778 115.096 44.6226 114.635 43.4599C112.839 44.1984 112.857 43.0418 112.868 45.8507C112.876 48.0124 113.213 50.1603 113.867 52.2209C115.411 52.9043 117.135 53.0649 118.779 52.6781C117.87 52.3331 116.089 51.5845 115.654 50.7261C115.972 49.7447 116.73 51.1611 118.847 51.8189C120.162 52.207 121.571 52.1299 122.836 51.6007C121.736 51.5229 120.67 51.187 119.724 50.6201C118.69 50.1221 118.718 48.8087 119.657 49.5511C121.988 51.4024 126.114 51.1926 128.562 48.4336ZM117.058 62.8247C117.754 62.0608 119.01 59.3342 118.538 57.9924C118.346 57.4406 117.693 57.4436 117.558 56.5683C117.28 55.5667 116.692 54.6788 115.878 54.0322C116.374 57.26 113.685 59.0229 112.044 61.0825C111.785 61.5851 111.468 62.0547 111.097 62.4812C110.386 63.1446 109.526 63.6268 108.589 63.8868C107.863 63.9837 107.613 65.3278 107.77 65.6206C108.688 65.9687 108.332 64.6868 108.979 64.6776C110.501 64.6553 110.931 69.0351 111.245 69.4708C111.686 69.347 112.093 69.1253 112.437 68.8222C113.444 67.7271 113.777 66.9455 114.448 66.2976C115.563 65.2179 114.833 65.2671 117.058 62.8247ZM112.689 42.6537C114.764 44.1469 117.797 37.3963 115.926 35.9377C115.618 35.681 115.232 35.5372 114.832 35.5299C114.431 35.5226 114.04 35.6524 113.724 35.8977C111.919 37.0881 111.951 40.5403 109.177 42.4685C109.089 42.5275 108.982 42.5511 108.877 42.5347C108.773 42.5184 108.678 42.4631 108.612 42.3801C108.097 41.8629 109.599 40.0254 109.929 33.3955C110.073 30.4751 109.045 27.1475 108.815 25.768C107.575 27.8906 110.139 29.5014 107.78 29.0864C106.664 28.8643 105.633 28.3316 104.806 27.5494C104.873 28.3563 105.285 28.945 104.476 29.0196C103.668 29.1755 102.83 29.0596 102.094 28.6899C101.251 29.0306 100.33 29.1306 99.4341 28.9788C98.783 28.8606 98.1706 28.5849 97.6503 28.1758C97.1301 27.7668 96.7177 27.2367 96.4492 26.6318C96.4331 26.5834 96.0227 26.1277 96.8396 28.2457C97.1032 28.9289 98.7417 30.6649 96.1257 30.4744C94.229 30.3368 94.0323 30.0071 93.1016 29.174C92.9671 30.5328 93.9816 31.6586 91.9973 31.3474C91.7699 31.9043 91.663 32.503 91.6837 33.1042C92.1925 32.6492 93.1777 31.5257 94.3789 32.3626C94.8607 32.6984 94.6863 33.5092 94.2659 33.4554C94.0008 33.4393 92.1909 33.4961 91.8274 34.5782C91.7091 34.9309 91.5769 34.8464 91.5462 35.276C91.503 36.2701 91.5576 37.266 91.7091 38.2494C91.8874 41.3418 90.8737 41.6239 91.9473 44.754C92.2802 45.6899 92.6897 46.5967 93.1715 47.4653C94.3389 49.6241 95.9582 52.4722 97.3661 53.6488C98.6725 54.7393 100.681 54.2182 102.202 53.4735C106.259 51.4846 107.374 49.4704 108.674 48.489C108.758 48.4195 108.865 48.3835 108.975 48.3878C109.084 48.3922 109.188 48.4366 109.266 48.5126C109.345 48.5886 109.393 48.6909 109.401 48.7999C109.409 48.909 109.376 49.0171 109.309 49.1038C104.761 55.1366 103.658 55.4824 102.547 56.7551C102.316 57.0179 103.024 59.7914 103.067 59.9336C103.14 60.7494 103.282 61.5574 103.492 62.349C104.167 63.2152 104.627 63.3527 104.818 64.3418C105.058 65.5883 104.298 65.566 106.189 65.9426C106.88 66.0802 106.63 65.9034 106.829 64.8667C106.919 64.401 107.137 63.4603 107.57 63.2605C108.092 63.02 109.836 62.5335 110.777 61.2808C111.059 60.9073 111.175 60.4193 111.568 60.1227C111.998 59.5079 113.755 57.8663 113.989 57.3776C114.751 55.7791 114.886 58.1261 113.257 53.2553C111.496 47.9902 112.189 43.9133 111.954 43.1617C111.918 43.0657 111.916 42.9606 111.947 42.8631C111.978 42.7655 112.04 42.681 112.124 42.6228C112.208 42.5646 112.31 42.536 112.412 42.5416C112.514 42.5472 112.611 42.5867 112.689 42.6537ZM103.53 64.9989C103.888 65.6805 104.276 64.5846 103.749 63.9668C103.317 63.4611 100.757 60.9019 102.027 59.0299C101.844 58.342 101.667 57.6696 101.465 56.9072C98.5719 58.8362 98.0193 60.8497 98.9346 64.1427C99.1075 64.7645 100.829 68.0552 101.649 68.5786C102.218 66.8202 101.758 66.8879 102.504 64.8959C102.658 64.4817 103.194 64.3602 103.53 64.9989ZM93.8463 53.3444C94.289 53.1023 94.8892 52.6797 95.3118 52.4015C89.7263 44.1069 90.6147 43.2693 90.9913 39.1132C91.2042 36.7723 90.2597 37.6476 91.0774 31.05C90.1513 30.4554 89.4695 29.5481 89.1561 28.4931C87.075 32.1336 94.6893 42.6153 82.7613 44.6895C85.7477 48.2108 88.5251 45.5172 88.861 46.7537C88.6466 46.9735 88.8779 46.9842 86.9697 47.7996C85.3012 48.5113 85.7362 48.2607 83.4345 48.6911C83.6574 49.2329 85.2843 50.1013 85.3005 50.1128C86.263 50.6356 87.3431 50.9038 88.4383 50.8921C90.6147 50.4694 90.0483 50.5586 90.4979 50.5586C90.511 50.5793 90.7769 50.8929 90.6762 51.1096C89.9338 52.7135 88.134 53.2345 88.3638 53.4005C89.6126 54.3066 91.4539 54.6578 93.8463 53.3444ZM92.5091 105.196C92.6628 102.312 92.9233 102.247 92.3316 100.21C91.301 96.6622 91.2925 98.4183 90.2381 92.7866C88.2546 82.1889 91.6276 76.1968 90.3019 76.7202C85.2521 78.7129 76.9045 86.9098 73.5438 88.2878C69.855 92.7989 67.9729 91.2127 67.003 91.8682C65.941 92.5702 64.6644 92.8727 63.4003 92.7221C62.6168 92.6523 61.8699 92.3589 61.2484 91.8767C61.2484 92.2871 62.5349 102.759 62.8754 103.694C63.6101 103.882 86.9658 103.771 88.3953 103.997C89.8969 104.233 89.7993 104.623 89.9584 105.155C90.8004 105.31 91.6622 105.325 92.5091 105.199V105.196ZM89.1453 106.401C89.213 105.275 89.2168 105.617 89.0885 105.214C85.3404 106.367 64.6906 111.014 64.6737 111.018C63.9052 111.221 63.929 110.567 64.3471 113.346C64.5538 113.334 78.1849 109.869 78.201 109.864C90.2328 106.566 89.0746 107.587 89.1453 106.404V106.401ZM66.3006 109.745C90.2712 103.537 92.576 104.809 78.9042 104.75C70.0732 104.709 78.2655 104.576 67.9345 104.642C60.6336 104.689 63.564 103.572 63.7799 109.808C63.8114 110.675 63.8214 110.39 66.3006 109.748V109.745ZM64.3271 82.0867C65.3761 79.4192 63.4495 77.2389 61.1409 69.5546C59.215 63.2989 57.8604 56.8814 57.0939 50.381C56.0894 45.0015 58.3604 45.5394 58.9383 39.917C59.5331 34.1532 61.0901 32.64 60.2448 32.298C59.6 32.036 59.2004 32.6708 58.9629 33.2102C57.7732 35.9162 57.7294 36.3189 57.7456 37.3441C57.7594 38.2409 57.8101 39.8517 57.3114 40.767C56.6343 42.0066 55.8512 42.1357 54.6785 41.5647C54.2967 41.8725 53.9966 42.2695 53.8048 42.7209C53.6129 43.1722 53.5353 43.6638 53.5787 44.1523C53.9092 45.0537 54.6946 48.0386 53.558 47.878C53.0792 46.3825 53.1945 44.5826 50.477 41.524C50.0666 41.0629 48.7617 40.3958 47.705 39.4406C46.9665 38.7719 47.6743 38.1164 48.3413 38.7766C48.4028 38.1033 48.4797 37.4102 49.1237 37.2964C49.6616 37.4017 49.3588 38.0549 49.2005 38.5814C49.1695 38.6842 49.1609 38.7925 49.1753 38.8989C49.1898 39.0053 49.2269 39.1074 49.2843 39.1982C49.3416 39.2891 49.4179 39.3665 49.5078 39.4253C49.5977 39.484 49.6992 39.5228 49.8053 39.5389C50.8813 39.6926 50.9204 39.0617 51.2655 37.7091C51.4907 36.8368 50.3817 35.5811 49.5909 35.1069C49.3802 34.9624 49.129 34.8886 48.8735 34.8962C48.6181 34.9038 48.3717 34.9924 48.17 35.1492C47.5044 35.8169 46.9173 36.5585 46.4201 37.3594C45.6831 38.5245 44.4427 38.1879 44.9138 40.9899C45.1443 42.3617 47.8541 45.1775 48.2345 45.6478C50.3502 48.2607 50.2818 47.0027 50.7191 54.1083C51.5214 67.1584 51.0657 69.0443 51.6121 72.7462C59.5178 73.6146 58.6355 71.7233 60.0657 82.7814C60.4769 85.9515 60.7505 88.8811 60.9195 89.1301C61.8256 88.8777 62.6253 88.3384 63.1989 87.593C64.208 86.013 63.6961 85.6787 63.8621 84.3807C63.9455 83.6032 64.1012 82.8352 64.3271 82.0867ZM63.3695 113.476C63.4364 112.958 61.6373 103.862 59.3679 84.6858C57.9846 73.029 58.886 74.0903 51.7013 73.839C50.2734 73.7891 43.5197 72.9937 42.5176 72.9937C39.9523 72.9998 33.2955 72.6486 32.902 72.5656C32.7621 72.5364 31.8968 72.7108 31.3811 72.7009C30.4589 72.6832 32.8213 72.7554 25.7871 72.2989C21.8493 72.043 24.0611 72.2989 21.4558 72.1137C16.13 71.7395 16.8555 72.0515 17.6525 77.9659C22.033 110.434 21.6072 110.243 23.5423 110.432C25.698 110.642 63.3503 113.478 63.3695 113.476V113.476ZM55.2233 40.8692C56.9094 41.776 57.419 37.6415 56.6566 36.7354C56.5695 36.6349 56.4626 36.5535 56.3425 36.4963C56.2224 36.4392 56.0917 36.4076 55.9588 36.4034C55.9565 38.6244 56.6074 38.0426 55.221 40.87L55.2233 40.8692ZM54.544 40.1983C54.8276 39.8651 55.0392 39.4767 55.1654 39.0577C55.2916 38.6387 55.3296 38.1981 55.2771 37.7637C55.1065 36.5471 55.1949 35.8309 54.0706 35.1653C53.9626 35.1025 53.8417 35.065 53.7172 35.0556C53.5926 35.0461 53.4675 35.065 53.3512 35.1108C53.7504 35.8345 54.0326 36.6167 54.1874 37.4286C54.3465 38.1671 53.5726 39.6895 53.4427 40.0715C54.0145 40.2444 54.2312 40.621 54.5417 40.2029L54.544 40.1983ZM53.2513 38.1894C53.538 36.9383 52.811 35.6956 51.8611 34.5344C51.6475 34.1993 51.1648 34.2477 50.6584 34.29C50.4486 34.3077 50.381 34.4007 50.3464 34.5974C51.1917 35.1552 51.8252 35.9806 52.1455 36.9414C52.2586 37.9465 52.0137 38.9593 51.4538 39.8018C52.25 39.8056 52.8217 40.0823 53.2513 38.1894ZM52.7633 42.9465C53.6763 40.8077 54.0291 41.4341 52.6096 40.6809C52.1739 40.8761 51.6628 40.7001 51.1295 40.7993C51.5183 41.3372 51.6167 41.2804 51.868 41.6277C52.2584 42.1703 52.5443 42.8627 52.7633 42.9465Z" fill="#000001"/>
<path d="M121.878 48.1822C120.372 47.3159 119.271 45.8888 118.815 44.2128C118.806 44.186 118.803 44.1577 118.806 44.1297C118.808 44.1017 118.816 44.0744 118.829 44.0495C118.842 44.0246 118.86 44.0025 118.882 43.9845C118.903 43.9665 118.928 43.9529 118.955 43.9446C119.757 43.6987 118.878 44.541 122.413 47.8955C122.218 48.1952 122.158 48.3036 121.878 48.1822Z" fill="#000001"/>
<path d="M119.693 29.3275C120.5 30.4857 120.339 35.262 120.308 36.7536C120.221 41.0642 121.341 41.1149 120.2 41.4223C118.771 37.2555 120.113 33.8272 119.224 29.7056C119.13 29.2745 119.544 29.1131 119.693 29.3275Z" fill="#000001"/>
<path d="M114.104 36.8028C115.198 35.9989 116.502 38.0324 115.167 37.8157C115.069 37.6758 114.97 37.5329 114.866 37.3853C114.764 37.3438 114.652 37.3401 114.548 37.375C114.445 37.4099 114.357 37.4809 114.302 37.5752C113.031 39.4265 114.839 38.7771 114.558 40.1727C114.451 40.7107 114.461 41.0112 113.916 41.2486C113.573 41.4023 113.402 41.3347 113.213 40.9943C113.13 40.5439 113.521 40.3964 113.734 40.1489C113.629 39.6816 112.861 39.4995 112.943 38.5673C113.01 38.2111 113.148 37.8719 113.347 37.569C113.546 37.2662 113.804 37.0058 114.104 36.8028Z" fill="#000001"/>
<path d="M107.225 68.506C108.432 68.5629 109.72 67.7022 109.39 69.0263C107.546 69.6204 102.555 69.6411 103.396 67.9934C103.547 67.9905 103.698 68.0126 103.843 68.0587C104.977 68.6374 106.261 68.4607 107.225 68.506Z" fill="#000001"/>
<path d="M105.145 41.3504C102.965 39.7365 107.515 39.9286 106.973 43.5299C105.26 44.0571 107.067 40.0385 104.789 45.0461C103.306 48.3038 102.036 49.0424 100.024 49.4459C99.1865 49.6149 97.9492 49.5896 97.4066 48.9171C97.7194 48.1125 96.3961 46.2358 95.7105 44.8771C95.5737 44.6066 95.5138 44.6465 94.8652 44.4344C94.8344 44.1662 94.7399 43.8964 95.2049 43.805C98.6731 43.1387 98.3004 42.8897 100.383 42.4647C103.258 41.8776 104.47 41.8376 105.145 41.3504ZM105.012 42.5961C105.213 42.2319 104.747 42.54 104.259 42.6353C101.038 43.267 100.528 43.2501 99.1343 43.7028C96.0602 44.7018 96.1102 44.0379 96.9156 45.2529C98.9506 44.9201 100.959 44.4422 102.926 43.8227C104.88 43.2071 104.599 43.34 105.012 42.5961ZM103.389 45.7947C101.998 45.3466 99.4078 46.8091 99.1519 48.6297C100.052 48.5905 100.926 48.3174 101.688 47.8374C102.435 47.3292 103.025 46.6214 103.389 45.7947Z" fill="#000001"/>
<path d="M107.293 31.6842C107.008 32.392 105.235 31.114 102.865 31.7849C101.805 32.0846 101.174 32.671 100.496 32.8124C99.8182 32.9538 99.3179 31.7534 100.063 31.4122C100.868 31.1263 101.693 30.9035 102.532 30.7459C103.507 30.4692 106.885 30.7974 107.293 31.6842Z" fill="#000001"/>
<path d="M103.842 34.1755C104.732 34.3407 106.103 34.3146 106.054 34.9063C106.049 34.9697 106.022 35.0291 105.977 35.0745C105.933 35.1198 105.874 35.1481 105.81 35.1546C104.97 35.246 104.801 34.9332 103.858 35.1469C102.611 35.0892 102.126 35.8677 101.22 35.8047C101.163 35.7974 101.109 35.7739 101.065 35.7369C101.021 35.6999 100.989 35.651 100.972 35.5961C100.955 35.5412 100.954 35.4825 100.969 35.4271C100.985 35.3717 101.016 35.3219 101.059 35.2837C101.906 34.5966 102.716 33.9672 103.842 34.1755Z" fill="#000001"/>
<path d="M99.3933 39.7677C100.008 41.2401 96.0587 42.2907 95.5046 39.7046C95.0727 37.6927 97.3882 38.1853 97.412 36.8304C97.4251 36.1242 97.5765 35.8237 98.1037 36.1019C98.7639 38.369 96.6643 38.6879 96.4007 39.1336C96.041 39.7408 97.6918 40.9489 98.6294 39.833C98.8338 39.5878 99.2888 39.5256 99.3933 39.7677Z" fill="#000001"/>
<path d="M95.7213 36.3715C95.7556 36.4041 95.7808 36.445 95.7944 36.4902C95.8081 36.5355 95.8097 36.5835 95.7992 36.6296C95.7886 36.6756 95.7663 36.7182 95.7343 36.753C95.7023 36.7878 95.6618 36.8136 95.6168 36.828C94.2334 37.2668 95.0442 36.3431 93.0084 37.8832C92.751 38.0784 92.6442 38.02 92.5543 37.6933C92.306 36.788 94.7445 35.4478 95.7213 36.3715Z" fill="#000001"/>
<path d="M36.3296 85.8189C42.7958 84.9312 43.8894 96.3159 37.7129 96.2214C33.324 96.1545 31.3927 89.4854 34.5182 86.8633C35.0144 86.3551 35.6412 85.9937 36.3296 85.8189ZM40.9737 91.3045C40.9649 90.4929 40.7602 89.6955 40.377 88.98C39.9938 88.2646 39.4434 87.6523 38.7727 87.1953C35.2322 84.9858 32.1535 89.9511 34.7419 93.5739C37.1819 96.9961 41.1005 94.9541 40.9737 91.3045Z" fill="#000001"/>
</svg>
