<svg width="155" height="156" viewBox="0 0 155 156" fill="none" xmlns="http://www.w3.org/2000/svg">
<path d="M16.893 115.027C17.3156 115.816 17.8342 116.55 18.437 117.211L22.6058 112.888C21.1776 111.607 20.8765 111.46 20.3516 111.236C19.8328 111.01 19.2563 110.952 18.7028 111.069C18.1492 111.187 17.6463 111.475 17.2643 111.892C16.8832 112.311 16.6426 112.838 16.5761 113.4C16.5097 113.962 16.6207 114.531 16.8938 115.027H16.893Z" fill="#3D9CFB"/>
<path d="M74.554 20.7492C46.1364 21.0502 47.2636 61.7273 74.554 62.0284C102.447 62.7078 102.779 20.4481 74.554 20.7492Z" fill="#3D9CFB"/>
<path d="M24.2574 91.4957C25.4618 91.6501 26.365 92.9239 27.5694 92.6228C30.3177 91.9357 30.0089 80.7416 20.7294 80.7416C12.2373 80.7416 10.8708 91.0248 13.8817 92.0979C14.9393 92.3989 15.0165 91.1174 16.4447 91.4185C17.8729 91.7196 19.224 92.7772 20.4283 92.8467C21.6326 92.9162 23.1303 91.349 24.2574 91.4957Z" fill="#3D9CFB"/>
<path d="M57.7168 10.2113C57.1918 10.2113 57.1918 10.4352 57.4929 11.2612C57.794 12.0873 59.0369 14.7738 60.4265 15.7697C62.4569 17.2365 59.1759 10.2113 57.7168 10.2113Z" fill="#3D9CFB"/>
<path d="M148.011 41.7244C142.97 40.5355 142.607 42.3034 137.975 46.4645C136.685 47.6071 133.057 45.8547 130.532 47.2366C129.251 47.9159 127.522 50.3246 125.128 55.2809C124.534 56.4852 124.156 56.7091 122.812 56.6319C120.427 56.4929 120.273 58.2685 119.423 57.9906C117.107 57.6895 115.563 57.6895 114.992 58.3612C114.089 59.2644 112.429 62.5686 112.058 62.8774C111.448 63.3869 110.013 62.6921 108.824 63.3252C107.635 63.9582 105.519 70.0185 104.964 70.3196C104.408 70.6207 101.644 70.0648 100.447 70.3968C99.6754 70.5975 98.9497 71.1688 98.0464 72.5738C96.9888 72.651 95.4139 72.1955 94.5106 72.7977C93.8313 73.176 92.102 75.5769 91.1987 77.8389C90.4267 79.6377 91.1447 80.7031 91.6542 79.7149C93.1442 76.8121 94.8117 74.3803 95.3367 74.0793C96.1087 73.6238 97.9615 74.2877 98.7181 73.9248C99.4746 73.562 100.077 72.1955 100.748 71.825C101.42 71.4544 104.886 72.1955 106.014 71.4467C107.141 70.6979 108.646 65.1317 109.549 64.6762C110.453 64.2207 112.174 65.0545 113.077 64.1512C113.849 63.3792 115.262 59.9438 116.165 59.3416C117.818 58.8167 120.072 60.1677 121.423 58.5696C122.758 57.234 124.812 59.6582 126.611 55.9371C128.795 51.3514 130.293 49.2438 131.428 48.4177C133.381 47.2443 137.179 49.0276 138.639 47.8928C139.843 46.9123 142.985 43.5 144.282 42.9288C145.579 42.3575 147.439 42.7744 149.014 43.006C149.964 43.2298 149.663 42.1027 148.011 41.7244Z" fill="#3D9CFB"/>
<path d="M116.96 43.5307C118.504 43.4535 118.62 42.2878 117.037 41.9867C115.455 41.6857 104.554 41.6085 103.805 41.7629C103.056 41.9173 102.446 43.3069 109.209 43.4921C113.278 43.6079 115.308 43.6079 116.96 43.5307Z" fill="#3D9CFB"/>
<path d="M13.0558 44.3568C14.1134 44.8818 14.5998 49.1664 15.9122 49.923C17.2246 50.6795 21.0306 49.3208 21.9338 49.8458C22.8371 50.3707 23.887 54.0532 25.0913 55.2498C26.2957 56.4464 30.2715 55.2498 32.3791 56.2998C33.8073 57.0718 35.3899 60.3605 36.2391 61.4876C36.9108 62.3214 40.2227 61.642 40.8249 62.0898C41.7281 62.692 43.0791 68.0343 44.4301 69.6092C44.9628 70.2113 46.4605 70.2113 49.7724 70.5124C50.5444 70.5896 53.9027 74.5732 57.0602 77.8774C57.2918 78.1784 57.8322 78.1784 57.8322 77.7307C57.8322 75.8007 50.9459 69.2386 50.1121 68.9375C49.1317 68.7059 46.0513 68.8603 45.372 68.2581C44.6926 67.656 42.971 61.5648 41.6123 60.7388C40.4852 60.0594 37.8526 60.5844 37.3277 60.2138C36.4244 59.4418 34.9267 56.2303 33.6452 55.2498C31.7615 53.8216 26.6971 54.4778 26.1258 54.0455C25.0759 53.2194 24.2499 49.4134 22.59 48.487C21.239 47.715 17.4099 48.9966 16.6533 48.5565C15.8967 48.1165 15.6034 43.8241 13.4958 42.9981C12.1448 42.4731 6.43193 43.2992 5.89925 44.048C5.60589 44.4263 5.89925 44.7274 6.35473 44.82C6.81022 44.9126 12.083 43.8318 13.0558 44.3568Z" fill="#3D9CFB"/>
<path d="M74.7086 13.1599C75.689 13.1599 75.5346 11.0523 75.6118 9.99465C75.689 8.11867 75.9901 6.13461 74.9325 6.13461C73.5429 6.16549 73.8517 13.1599 74.7086 13.1599Z" fill="#3D9CFB"/>
<path d="M102.601 32.5993C103.049 32.4449 108.615 30.7156 108.314 29.6656C108.013 28.6157 106.06 29.5884 104.454 30.1134C101.374 31.2328 100.856 32.9158 102.601 32.5993Z" fill="#3D9CFB"/>
<path d="M86.659 113.521C86.7362 112.247 86.659 109.314 86.2112 108.264C85.7571 107.421 85.006 106.777 84.1036 106.457C84.1808 103.601 84.1036 101.648 83.5015 101.493C84.0071 101.213 84.4363 100.813 84.7513 100.329C85.0663 99.8443 85.2574 99.2898 85.308 98.714C85.3852 95.9348 85.5319 92.6229 82.6754 91.2719C82.6754 89.6893 82.6754 87.8133 82.2277 87.0567C80.7995 82.2471 61.3835 82.3243 59.4457 86.8328C58.6737 88.3382 58.998 89.3882 58.9208 92.1751C58.9208 93.9739 60.0479 94.7305 61.5533 95.4021C61.4761 96.3826 61.3294 98.4901 61.8544 99.764C60.1946 100.891 60.4957 103.446 60.4957 105.631C60.5729 106.836 60.7273 107.947 63.2054 109.013C62.862 110.131 62.7337 111.305 62.8271 112.471C59.824 113.598 60.5111 117.057 60.5729 119.689C61.2754 125.31 79.8731 125.263 83.1309 122.168C84.783 121.396 84.1036 117.536 84.0342 116.833C85.9873 115.853 86.5664 114.648 86.659 113.521Z" fill="#3D9CFB"/>
<path d="M107.488 56.0063C108.391 56.0063 108.615 54.7325 104.855 53.2271C103.952 52.8488 101.698 51.7989 101.397 52.4011C100.91 53.3815 106.492 56.0063 107.488 56.0063Z" fill="#3D9CFB"/>
<path d="M74.5539 74.5807C74.4844 69.3156 74.1833 68.7134 73.6584 68.7906C73.1334 68.8678 72.8864 69.995 72.8864 70.2188C72.8864 70.4427 72.4386 76.6111 73.3419 77.2827C74.5539 78.186 74.5539 75.4839 74.5539 74.5807Z" fill="#3D9CFB"/>
<path d="M86.1343 70.3737C85.5785 69.1771 84.7833 67.664 84.2583 67.8107C83.7334 67.9574 83.8801 68.9455 84.1811 69.8411C85.4472 74.9054 88.2651 74.9131 86.1343 70.3737Z" fill="#3D9CFB"/>
<path d="M87.4159 15.2599C88.2806 15.6073 88.682 14.403 91.0212 11.1297C91.2451 10.8286 91.5462 10.2959 90.8745 10.072C89.4772 9.60882 86.4123 14.843 87.4159 15.2599Z" fill="#3D9CFB"/>
<path d="M101.32 15.5612C100.046 16.4645 96.0622 20.3708 95.6839 21.1274C95.3056 21.884 95.46 22.4012 96.3633 22.1773C97.5599 21.9535 101.852 17.2133 102.447 16.5417C103.041 15.87 102.601 14.658 101.32 15.5612Z" fill="#3D9CFB"/>
<path d="M61.7772 72.6275C62.3022 72.0254 63.4293 69.7711 64.0315 68.8679C64.6337 67.9646 63.6532 67.0614 62.7577 68.0959C61.8622 69.1303 60.5729 70.9523 60.4957 72.0099C60.4185 73.0676 61.4762 72.9286 61.7772 72.6275Z" fill="#3D9CFB"/>
<path d="M45.9899 30.5999C47.3409 30.4455 44.0368 29.1717 42.6085 28.8706C41.1803 28.5695 39.5205 27.5196 39.5205 28.7934C39.5205 30.0672 44.6389 30.7465 45.9899 30.5999Z" fill="#3D9CFB"/>
<path d="M41.327 56.4619C42.2302 56.5391 44.4845 55.2576 45.4649 54.7326C47.2637 53.8294 48.0975 53.0805 48.0975 52.5556C47.8736 51.0116 41.5277 54.4547 40.802 55.1804C40.3465 55.7054 40.4237 56.4619 41.327 56.4619Z" fill="#3D9CFB"/>
<path d="M123.276 79.0897C124.256 78.5647 124.781 75.7855 126.055 74.8822C127.329 73.979 130.27 74.2029 131.019 73.8323C135.303 71.2692 131.791 67.965 125.908 67.8878C121.469 67.8878 117.485 71.6475 117.787 77.0593C117.787 80.0701 121.098 80.0701 123.276 79.0897Z" fill="#3D9CFB"/>
<path d="M45.6887 15.5613C43.4344 13.6853 41.628 11.8016 40.6475 10.9755C39.6671 10.1495 38.3315 10.466 39.5204 11.956C40.7093 13.446 48.0974 20.6025 50.9538 22.1774C52.5287 23.0806 52.0809 20.9036 45.6887 15.5613Z" fill="#3D9CFB"/>
<path d="M51.4787 66.6138C52.0809 66.6138 52.9069 65.78 53.5091 65.1084C54.4123 64.2051 55.8251 62.8541 55.4623 62.0975C55.0994 61.341 53.5631 62.7538 52.5286 63.7574C51.0541 65.1547 49.9733 66.6138 51.4787 66.6138Z" fill="#3D9CFB"/>
<path d="M35.8376 136.604C39.6976 140.464 44.2602 145.999 47.0394 147.883C51.1773 150.739 55.1609 147.057 52.0034 143.251C46.0667 135.963 36.293 126.035 28.6965 118.546L23.2075 123.433C27.6466 128.637 33.6605 134.349 35.8376 136.604Z" fill="#3D9CFB"/>
<path d="M101.32 66.7606C102.3 66.9845 103.729 65.8574 98.3168 62.8543C96.9658 62.0822 95.5375 61.125 95.1593 61.7966C94.503 62.7848 100.1 66.4518 101.32 66.7606Z" fill="#3D9CFB"/>
<path d="M30.727 42.1801C32.5335 42.4812 42.9093 42.7746 45.0092 42.7746C47.109 42.7746 46.6613 41.6474 45.1636 41.2769C43.6659 40.9063 31.777 40.5049 30.8042 40.6747C29.8315 40.8445 28.9205 41.8636 30.727 42.1801Z" fill="#3D9CFB"/>
<path d="M111.695 126.452C112.822 128.413 115.154 130.212 116.883 130.212C118.613 130.212 119.199 128.336 121.098 127.896C122.998 127.456 124.958 128.351 126.286 127.896C127.614 127.44 128.162 125.495 128.842 124.808C129.521 124.12 130.718 124.584 131.698 123.534C133.35 121.727 131.845 115.042 129.212 112.556C120.195 104.048 105.095 114.578 111.695 126.452Z" fill="#3D9CFB"/>
<path d="M59.0673 90.0677C58.164 90.2222 58.2412 92.2448 59.0673 92.4764C59.8933 92.708 59.9705 91.496 59.9705 90.8938C59.9809 90.7759 59.964 90.6571 59.9211 90.5468C59.8781 90.4365 59.8104 90.3375 59.723 90.2576C59.6356 90.1777 59.531 90.119 59.4173 90.0861C59.3036 90.0532 59.1838 90.0469 59.0673 90.0677Z" fill="#001434"/>
<path d="M59.2987 85.9296C60.7964 87.0567 67.0188 87.6589 69.2962 87.435C70.3461 87.3578 70.1222 86.609 67.9374 86.3851C64.9343 86.084 62.3018 85.6131 61.854 85.1808C61.2519 84.5786 65.5365 84.0536 66.9647 83.8298C67.9374 83.6754 67.868 83.1504 66.0615 83.1504C60.2714 83.2276 58.0943 85.0341 59.2987 85.9296Z" fill="#001434"/>
<path d="M56.5892 89.0176C55.4698 89.1565 55.8172 91.4957 56.6664 91.4957C57.1913 91.4957 57.2685 90.8163 57.2685 90.3686C57.2685 89.9208 57.338 88.9558 56.5892 89.0176Z" fill="#001434"/>
<path d="M85.8328 106.234C87.0372 106.157 86.8905 103.547 85.8328 103.748C84.9373 103.926 85.0068 105.029 85.0608 105.477C85.1149 105.925 85.3079 106.311 85.8328 106.234Z" fill="#001434"/>
<path d="M75.3879 83.8298C76.7435 83.9914 78.0786 84.2942 79.3714 84.733C80.2747 85.0341 80.1975 85.4047 79.9736 85.783C79.3714 86.8329 84.1038 86.2307 82.2278 84.733C81.1007 83.8298 77.7888 83.3048 76.1367 83.189C74.7085 83.1504 74.3302 83.7526 75.3879 83.8298Z" fill="#001434"/>
<path d="M84.4819 91.8739C85.4546 91.6964 85.3079 89.2414 84.1808 89.3186C83.733 89.3186 83.5014 89.6891 83.5786 90.3685C83.6558 91.0479 83.7253 92.0438 84.4819 91.8739Z" fill="#001434"/>
<path d="M62.2251 90.4998C61.6229 90.7314 61.399 92.2291 62.0012 92.7618C63.4757 94.0356 63.6533 89.805 62.2251 90.4998Z" fill="#001434"/>
<path d="M65.8377 93.449C65.9311 93.5149 66.0398 93.5557 66.1535 93.5676C66.2672 93.5795 66.382 93.5621 66.487 93.5169C66.5923 93.4723 66.6844 93.4015 66.7547 93.3112C66.8249 93.221 66.871 93.1143 66.8884 93.0012C67.0583 92.1752 67.2667 90.8937 66.2168 90.8165C65.6841 90.747 65.383 91.1947 65.383 91.7197C65.383 92.2447 65.1514 93.0862 65.8385 93.449H65.8377Z" fill="#001434"/>
<path d="M70.8717 94.0514C71.7749 94.0514 71.6437 92.7776 71.5511 91.9438C71.4584 91.11 71.0261 90.9711 70.6478 91.0483C69.6365 91.2721 69.7677 94.0514 70.8717 94.0514Z" fill="#001434"/>
<path d="M75.8357 93.9047C76.8316 94.0128 76.9011 91.388 75.8357 91.1178C75.2336 90.9711 75.0637 91.6504 75.0637 92.3221C75.0637 92.9937 75.1564 93.8275 75.8357 93.9047Z" fill="#001434"/>
<path d="M80.1974 92.9242C80.8768 93.0014 80.9695 92.0209 80.8768 91.4959C80.7842 90.971 80.7224 90.0677 79.8964 90.1449C79.0703 90.2221 79.2942 91.1177 79.3714 91.5731C79.5181 92.322 79.6725 92.8161 80.1974 92.9242Z" fill="#001434"/>
<path d="M59.8938 96.0815C59.0678 96.3826 59.3688 98.2586 60.2721 98.5597C61.4687 98.992 60.797 95.7187 59.8938 96.0815Z" fill="#001434"/>
<path d="M65.3826 56.6086C63.414 55.7672 65.2591 60.4687 74.7856 60.4687C81.9267 60.4687 85.8331 57.9905 89.2144 53.8526C90.7073 52.0156 91.8178 49.8987 92.4807 47.6263C93.1436 45.3539 93.3455 42.9719 93.0745 40.6204C92.4723 36.1891 91.268 36.714 91.4224 37.8412C93.8002 53.0729 81.1624 63.4795 65.3826 56.6086Z" fill="#001434"/>
<path d="M119.894 96.3828C121.098 94.2752 121.855 92.7929 122.526 92.4764C123.198 92.1599 124.688 92.6771 125.53 91.9437C126.371 91.2103 127.722 88.4311 128.618 87.8907C129.513 87.3503 133.25 88.4157 135.087 87.8135C136.137 87.4352 138.098 84.0538 137.943 82.5484C137.797 81.6452 137.04 82.6256 136.893 82.9267C135.99 84.656 134.786 86.3853 134.408 86.532C133.057 86.9874 129.22 85.9298 127.791 86.6864C126.664 87.2885 124.935 90.2916 124.564 90.7471C124.194 91.2026 122.835 90.5155 121.708 91.2721C121.106 91.7198 120.28 93.1481 119.446 94.6535C118.219 96.9077 119.214 97.6643 119.894 96.3828Z" fill="#001434"/>
<path d="M145.076 63.4797C142.197 66.9152 142.05 67.9342 141.016 67.9111C137.156 67.8339 136.608 67.9111 134.068 72.3501C133.465 73.4 132.879 74.5426 132.338 74.9054C131.08 75.7624 128.478 75.0521 127.004 76.0326C125.529 77.013 125.352 79.4912 124.294 80.0933C123.522 80.6183 122.565 80.765 120.689 80.9194C111.54 81.5833 112.76 83.027 110.46 90.693C110.22 91.5113 109.788 91.519 109.333 91.5962C104.523 91.8973 105.04 91.3338 102.114 96.1048C101.89 96.4058 101.667 96.9463 100.918 96.8768C99.86 96.7533 98.509 96.5834 97.6058 97.7105C94.2861 101.787 95.6989 102.211 96.1775 101.571C96.633 101.046 98.0612 99.3163 98.7329 98.7141C99.9063 97.6719 102.06 98.8994 102.794 97.7414C103.527 96.5834 105.048 93.8814 105.882 93.4491C107.24 92.677 110.244 93.6035 111.371 92.4763C112.498 91.3492 113.177 85.4047 114.605 83.907C116.188 82.2472 123.028 83.0038 125.282 81.4984C126.633 80.5951 127.019 77.8314 127.838 77.2909C128.826 76.6347 131.752 77.5148 133.327 76.1638C134.23 75.3918 136.708 70.451 137.688 69.6944C138.669 68.9378 141.371 69.7716 142.32 69.2466C142.923 68.9455 144.05 67.3629 144.799 66.0891C146.281 63.5261 145.594 62.839 145.076 63.4797Z" fill="#001434"/>
<path d="M57.4923 45.3378C54.7208 27.3346 75.4955 18.8734 87.1915 29.473C87.9635 30.0752 88.4653 28.647 85.6474 26.6861C73.056 17.9315 53.8793 27.6665 55.6858 43.3074C56.0641 46.766 57.7162 46.6116 57.4923 45.3378Z" fill="#001434"/>
<path d="M66.0621 50.9734C65.8382 51.7454 66.3632 52.4016 68.7718 52.3244C68.8413 55.3353 69.3663 55.3353 69.9684 55.2581C70.3467 55.1809 70.6478 54.957 70.5706 52.4016H72.6705C72.5933 54.5787 72.6705 55.2581 73.4425 55.2581C74.2145 55.2581 74.5696 54.6559 74.5696 52.3244C79.6031 52.1392 83.548 51.8458 83.8954 46.6888C84.1193 43.6008 83.2161 42.0567 80.8923 41.1226C84.0498 39.3161 83.9804 31.0479 74.5001 31.2023C74.5001 29.2491 74.2762 27.9676 73.5197 28.1915C72.6164 28.4926 72.6936 29.0175 72.6164 31.2023H70.6632C70.8176 28.7165 70.285 28.3459 69.5361 28.647C68.9339 28.8709 68.7641 29.9208 68.8567 31.2718C66.2319 31.5034 66.3014 32.3295 66.6025 32.8544C66.8264 33.2327 67.8068 33.1555 68.8567 33.2327C68.8567 43.1298 68.9339 45.5848 68.7873 50.5257C67.2664 50.3558 66.286 50.3558 66.0621 50.9734ZM80.7302 37.1391C81.0545 41.0454 76.0982 40.2811 70.6941 40.1499C70.6941 39.0922 70.6941 34.4293 70.6169 33.0783C78.5454 32.9316 80.3905 33.6805 80.7225 37.1391H80.7302ZM70.8099 42.1031C78.1749 42.1803 81.8573 42.1031 82.0812 45.4845C82.3128 47.3682 81.4791 49.5452 79.6803 49.993C77.4955 50.5951 73.6663 50.5951 70.6555 50.5257C70.725 47.3682 70.8022 44.6584 70.8022 42.1031H70.8099Z" fill="#001434"/>
<path d="M132.601 66.3828C126.494 61.6041 114.297 66.3828 115.084 75.9326C115.231 78.3412 115.756 79.2445 116.358 79.1673C116.814 79.1673 116.512 78.1868 116.582 75.8554C116.656 73.9556 117.272 72.1166 118.357 70.5555C119.442 68.9944 120.951 67.7764 122.706 67.0452C124.462 66.3146 126.389 66.1017 128.262 66.4316C130.134 66.7616 131.873 67.6207 133.273 68.9073C134.176 69.6947 134.431 67.811 132.601 66.3828Z" fill="#001434"/>
<path d="M128.316 69.316C128.192 69.3312 128.077 69.3891 127.991 69.4797C127.904 69.5704 127.852 69.6882 127.843 69.8131C127.834 69.938 127.868 70.0622 127.941 70.1644C128.013 70.2667 128.118 70.3406 128.239 70.3737C130.795 71.1997 130.795 72.3963 131.397 72.0953C132.524 71.5008 130.571 69.0922 128.316 69.316Z" fill="#001434"/>
<path d="M124.178 69.1693C122.914 69.3983 121.751 70.0122 120.849 70.9269C119.947 71.8416 119.349 73.0127 119.137 74.28C118.913 75.7854 119.292 77.5147 119.971 77.5147C120.496 77.5147 120.496 76.982 120.565 76.0093C120.543 74.5646 121.052 73.162 121.996 72.0677C122.939 70.9733 124.252 70.2634 125.684 70.0725C126.433 69.9953 126.51 68.7138 124.178 69.1693Z" fill="#001434"/>
<path d="M84.5591 99.5403C85.5319 99.3937 85.4624 96.5372 84.3275 96.8306C83.3471 97.1626 83.6636 99.687 84.5591 99.5403Z" fill="#001434"/>
<path d="M74.5536 66.3823C106.978 67.1543 106.978 16.611 74.5536 17.2131C41.7047 17.7458 42.909 65.6334 74.5536 66.3823ZM74.4841 19.0196C88.5424 18.8729 98.0921 30.3759 96.8723 43.9786C94.317 72.3962 53.7171 70.443 52.0959 42.2493C51.3239 29.6193 62.0008 18.9424 74.4841 19.0196Z" fill="#001434"/>
<path d="M87.8628 98.4132C88.6888 98.1893 88.6348 95.7807 87.7856 96.0046C87.1912 96.159 87.1911 96.6067 87.2606 97.2861C87.3301 97.9655 87.415 98.5599 87.8628 98.4132Z" fill="#001434"/>
<path d="M74.3302 100.667C75.0095 100.968 75.3106 100.443 75.3878 99.5399C75.3878 99.0922 75.4573 97.6639 74.5541 97.4323C73.3575 97.2316 73.5041 100.296 74.3302 100.667Z" fill="#001434"/>
<path d="M79.8959 100.22C80.5753 100.22 80.722 99.1622 80.6679 98.3362C80.4981 96.4293 78.9463 97.1704 79.1702 98.7145C79.2166 99.2394 79.1471 100.22 79.8959 100.22Z" fill="#001434"/>
<path d="M70.2695 97.587C68.8104 97.0003 69.1501 100.335 69.7445 100.521C71.165 100.953 71.0724 97.9035 70.2695 97.587Z" fill="#001434"/>
<path d="M82.1504 107.137C82.3317 107.167 82.518 107.138 82.6808 107.052C82.8436 106.967 82.9737 106.83 83.0513 106.663C83.1031 106.553 83.1301 106.433 83.1309 106.311C83.1309 105.855 83.2003 104.203 82.2276 104.28C81.7026 104.35 81.5482 104.952 81.5482 105.554C81.5482 106.156 81.4016 107.059 82.1504 107.137Z" fill="#001434"/>
<path d="M66.2159 97.3632C65.3821 97.6643 65.5365 99.5403 66.2159 99.9186C66.6636 100.22 67.2658 99.9186 67.2658 99.1466C67.2658 98.3746 67.2658 96.9078 66.2159 97.3632Z" fill="#001434"/>
<path d="M62.9816 96.4597C62.0784 96.5369 62.4566 99.0923 63.1283 99.3933C63.5838 99.54 64.1859 99.6172 64.1859 98.0346C64.1782 97.2858 63.8849 96.4597 62.9816 96.4597Z" fill="#001434"/>
<path d="M81.849 132.32C83.1306 132.173 85.7091 134.203 86.9597 134.126C88.2104 134.049 89.2757 133.146 90.0477 133.146C90.8198 133.146 94.2552 135.462 96.2238 135.4C98.1924 135.338 102.161 129.463 102.763 129.317C103.975 128.907 105.125 131.146 106.522 129.239C107.094 128.566 107.553 127.805 107.881 126.985C107.881 126.53 107.348 126.452 106.6 127.055C105.48 128.174 105.781 128.869 104.646 128.336C104.272 128.094 103.847 127.941 103.404 127.889C102.961 127.836 102.512 127.887 102.091 128.035C100.964 128.637 97.1271 133.972 96.1466 133.972C95.0195 133.972 91.1131 131.494 89.9088 131.494C89.0827 131.494 87.5078 132.698 86.7513 132.621C85.6241 132.544 83.2155 130.552 81.4862 130.745C79.7569 130.938 75.3101 136.458 72.9941 138.789C72.0831 139.7 71.0178 138.38 69.4583 138.712C67.8989 139.044 63.5988 144.571 62.0934 146.98C60.588 149.389 60.6651 151.041 61.7151 149.613C69.7362 138.974 69.7903 139.924 71.1181 140.349C73.218 141.028 72.9941 140.804 76.9005 136.967C78.3132 135.632 81.1002 132.397 81.849 132.32Z" fill="#001434"/>
<path d="M80.722 114.725C80.7992 115.328 81.0231 115.497 81.494 115.497C82.3278 115.497 82.266 114.44 82.1734 113.691C81.9727 111.923 80.0658 112.116 80.722 114.725Z" fill="#001434"/>
<path d="M26.589 90.2918C25.9869 90.369 26.4809 91.5347 25.0913 93.0015C24.6513 93.4647 25.2535 94.3757 26.2185 93.4493C27.6698 92.0442 27.1912 90.2223 26.589 90.2918Z" fill="#001434"/>
<path d="M28.4727 94.3602C28.8433 94.8157 30.2715 94.0592 31.0281 91.3571C31.4587 89.6554 31.4642 87.8739 31.0441 86.1696C30.6241 84.4652 29.7914 82.8903 28.6194 81.5835C22.3816 74.7358 9.37329 79.5531 10.3537 89.1724C10.678 93.4338 12.7701 93.3026 12.3069 91.8049C7.72119 76.9824 31.2597 75.4924 29.7466 89.7282C29.376 93.1482 27.9478 93.8276 28.4727 94.3602Z" fill="#001434"/>
<path d="M24.0338 89.5426C25.3153 87.435 22.6056 84.2775 19.2242 85.1808C17.6415 85.6285 14.7156 92.0207 16.9699 92.0207C17.7033 92.0207 17.6107 91.38 18.2437 89.4654C20.5597 90.0676 22.0034 91.1175 20.3513 92.7001C19.9035 93.1479 20.498 93.9044 21.1773 93.8272C22.3817 93.6728 23.061 92.0207 22.5284 90.6697C22.8442 90.5976 23.1413 90.46 23.4006 90.2658C23.6599 90.0717 23.8756 89.8253 24.0338 89.5426ZM21.4784 89.3882C20.6998 88.8771 19.8691 88.4501 19.0003 88.1144C19.2149 87.5383 19.5461 87.0127 19.973 86.5704C20.498 86.1921 21.7023 86.5704 22.0806 86.7943C23.7327 87.96 22.5284 89.9904 21.4784 89.3882Z" fill="#001434"/>
<path d="M93.2058 112.626C93.2058 110.379 93.3988 107.553 91.9243 106.079C91.3232 105.419 90.5783 104.907 89.7472 104.581C89.9107 103.202 89.8586 101.806 89.5928 100.443C90.7971 99.54 91.4765 98.4901 91.3993 97.2858C91.1754 92.3989 91.6232 91.1097 87.7168 89.087C87.7168 87.2883 87.5084 85.6979 86.8908 84.8024C82.9227 79.105 53.486 79.1436 53.0537 86.6089C52.907 88.8632 52.907 92.1751 54.7135 93.4489C55.301 93.8727 55.9642 94.1823 56.6667 94.3598C56.5896 95.7773 56.7407 97.1979 57.1145 98.5673C56.6617 98.7223 56.268 99.0135 55.9873 99.4011C55.03 100.621 55.1613 104.211 55.2153 104.357C55.2848 106.241 56.713 107.445 58.8206 108.341C58.575 109.173 58.4477 110.036 58.4423 110.904C54.7598 112.78 55.1381 113.683 55.3543 118.948C55.5782 125.495 80.1975 126.066 87.9098 122.106C90.388 120.747 89.863 118.246 89.6391 116.54C90.5043 116.222 91.2802 115.7 91.9011 115.019C92.5219 114.337 92.9695 113.517 93.2058 112.626ZM73.9056 110.31C79.6957 110.078 89.091 109.028 89.5388 106.172C94.2866 107.538 85.5706 111.128 73.8825 110.294L73.9056 110.31ZM89.8398 97.8262C89.1991 101.995 65.0893 102.883 59.3224 99.5554C58.3419 99.1772 58.1181 96.0969 58.1875 94.823C60.3209 95.3212 62.4809 95.6975 64.657 95.9502C76.1599 98.05 87.8172 95.7186 89.917 93.9198C90.107 95.2129 90.0738 96.5292 89.8167 97.8107L89.8398 97.8262ZM87.74 90.7623C91.2063 92.1442 88.5815 93.6496 84.8064 94.2904C87.4157 93.3717 87.8635 91.6501 87.7168 90.7468L87.74 90.7623ZM55.609 85.0958C59.8705 81.3129 80.0199 80.5795 85.231 85.0958C86.775 86.4545 80.4214 88.4772 70.8021 88.5544C60.7274 88.6393 54.4047 86.3155 55.609 85.0958ZM55.9101 92.3912C54.6363 91.6192 54.5591 87.5044 54.6363 86.9023C58.2493 91.0557 82.0503 91.1483 86.2114 87.1261C86.5897 89.9131 86.5125 91.5652 85.231 92.5302C83.4322 93.9584 75.8356 95.8421 64.3868 94.4139C61.4933 94.0695 58.6491 93.3934 55.9101 92.3989V92.3912ZM57.1145 105.515C56.3424 104.743 56.5895 102.057 56.8134 100.883C61.4454 104.913 82.0194 104.311 88.1646 101.416C88.2927 102.538 88.3437 103.668 88.319 104.797C88.3355 105.137 88.2747 105.477 88.1409 105.789C88.0072 106.102 87.8041 106.381 87.547 106.604C83.0307 109.321 62.2792 110.719 57.1145 105.554V105.515ZM57.4927 113.413C57.5699 112.958 57.9405 112.641 58.5427 112.433C58.6519 113.335 59.0469 114.179 59.6698 114.841C58.0949 114.355 57.4155 113.753 57.4927 113.452V113.413ZM87.1919 120.778C81.8418 123.773 67.166 123.171 60.7274 121.457C57.4155 120.554 56.9678 119.427 56.8134 118.748C56.6788 117.499 56.653 116.241 56.7362 114.988C60.7969 118.207 81.9345 118.971 88.2418 117.018C88.4657 118.292 88.4657 120.137 87.1919 120.817V120.778ZM91.7004 112.51C91.4225 118.385 64.958 116.841 60.8741 113.938C60.2642 113.498 59.6003 111.985 60.0481 109.306C66.0311 112.108 86.6129 113.32 91.546 108.928C91.7567 110.123 91.8092 111.34 91.7004 112.548V112.51Z" fill="#001434"/>
<path d="M4.86492 71.9717C5.46708 71.3695 6.59421 70.0957 7.56694 70.0185C8.53967 69.9413 10.1377 71.1997 11.6277 71.0453C13.5114 70.9681 16.8928 66.0118 18.9232 66.3129C21.4013 66.6835 26.8208 76.3876 30.0478 77.5842C32.2403 78.3562 34.6335 75.6079 36.2933 76.156C37.3433 76.5343 41.0257 82.1699 42.3768 83.1504C43.1488 83.6753 44.1833 83.2276 44.5615 83.5287C44.9398 83.8297 45.3876 84.9569 46.2136 85.4046C47.2636 86.0068 49.3017 85.559 49.5255 84.9569C50.2281 83.5364 47.3948 84.8488 46.5919 84.1849C46.2136 83.8838 45.6887 82.3861 45.0479 82.1545C44.4071 81.9229 43.3186 82.2317 42.9403 81.7839C38.4781 77.0284 38.3083 73.0216 33.0972 75.4689C32.1785 75.8935 31.0668 76.3721 30.4647 76.2409C27.8939 75.3608 22.4898 64.9542 18.6993 64.9542C16.3833 64.9542 12.3843 69.3932 11.481 69.5399C10.3539 69.7715 8.77128 68.49 7.26586 68.6444C6.50019 68.8113 5.79187 69.1767 5.21194 69.7038C4.632 70.2309 4.20084 70.9012 3.96167 71.6475C3.96167 72.1724 4.26275 72.4735 4.86492 71.9717Z" fill="#001434"/>
<path d="M89.2916 111.12C88.7666 111.197 88.62 111.722 88.7666 112.394C88.9133 113.066 88.9905 113.452 89.5927 113.521C90.6735 113.521 90.3184 110.827 89.2916 111.12Z" fill="#001434"/>
<path d="M86.1337 111.947C85.076 112.039 85.2922 114.502 86.2881 114.502C87.284 114.502 87.2608 111.869 86.1337 111.947Z" fill="#001434"/>
<path d="M5.01117 96.2361C3.96124 97.7338 4.94941 98.2742 5.46665 97.7338C9.37301 93.6731 8.27676 99.4477 13.511 96.0817C14.337 95.5568 15.6108 94.5377 16.599 94.5377C17.5872 94.5377 19.3782 96.5681 21.038 96.792C22.5126 97.039 22.6361 95.7575 23.5162 96.4909C23.9639 96.8615 24.8672 97.618 25.3922 97.9963C27.2759 99.3473 28.928 97.3555 30.4334 97.3941C31.5605 97.3941 33.892 99.1929 35.5441 99.1929C36.069 99.1929 36.5245 98.969 35.5441 98.3669C34.1158 97.4636 31.8616 96.0509 30.4334 95.9659C29.3062 95.8887 27.4997 97.3941 26.527 97.0931C25.5543 96.792 23.9639 94.005 22.0108 95.1322C21.6958 95.329 21.3322 95.4332 20.9608 95.4332C19.7565 95.0627 18.1044 93.179 16.4523 93.179C14.8002 93.179 11.4111 95.8887 10.8861 95.8887C9.68953 95.8579 7.58967 92.9551 5.01117 96.2361Z" fill="#001434"/>
<path d="M27.1911 86.5319C25.3151 80.2941 15.1632 80.7419 13.9589 87.8134C13.8122 88.7167 13.8817 89.7666 14.4144 89.9905C14.7849 90.1449 15.086 88.7167 15.2404 87.9601C16.6686 81.5756 25.3846 81.8767 26.5195 88.4851C26.6661 89.4655 27.8936 88.7862 27.1911 86.5319Z" fill="#001434"/>
<path d="M115.98 126.383C115.243 125.741 114.644 124.957 114.218 124.077C113.792 123.197 113.549 122.241 113.502 121.265C113.124 114.803 121.222 111.229 125.854 115.089C126.68 115.691 127.205 113.583 124.31 112.456C115.818 109.214 108.87 119.095 113.633 125.843C115.007 127.811 117.038 127.356 115.98 126.383Z" fill="#001434"/>
<path d="M116.358 137.592C119.817 133.153 120.99 131.578 122.148 131.2C123.422 130.752 126.587 132.25 128.386 131.802C129.745 131.424 131.474 127.216 132.3 126.993C133.427 126.692 135.959 128.012 137.187 127.294C137.901 126.807 138.493 126.163 138.916 125.41C139.889 123.758 139.163 122.646 138.383 123.758C137.434 125.132 136.955 125.865 136.361 126.012C135.38 126.313 132.972 125.186 131.543 125.711C129.999 126.313 128.841 129.695 127.861 130.15C126.881 130.606 123.229 129.023 121.623 129.617C119.67 130.389 118.242 132.18 116.134 135.261C114.359 137.886 115.385 138.858 116.358 137.592Z" fill="#001434"/>
<path d="M126.055 124.653C127.784 124.352 127.715 120.068 124.325 119.612C125.468 113.922 110.761 115.528 118.088 125.703C119.369 127.433 120.967 126.591 119.971 125.557C118.79 124.329 117.107 121.04 117.655 119.612C118.103 118.408 121.863 116.833 122.689 118.408C123.746 120.515 120.056 120.678 120.056 121.866C120.056 123.225 122.079 121.619 123.214 121.195C124.928 120.554 125.622 122.168 125.244 123.673C125.229 124.198 125.607 124.723 126.055 124.653Z" fill="#001434"/>
<path d="M143.047 106.905C143.819 106.612 144.475 105.932 145.455 104.589C146.582 103.006 147.246 102.682 149.964 103.161C151.886 103.493 149.485 100.899 146.359 101.879C144.707 102.404 143.502 105.037 142.445 105.338C141.673 105.562 138.986 105.037 137.558 105.639C136.662 106.017 135.906 106.766 134.555 109.175C133.783 110.526 134.122 112.116 134.778 111.205C135.79 109.792 136.886 107.592 138.16 106.99C138.916 106.612 141.92 107.361 143.047 106.905Z" fill="#001434"/>
<path d="M55.9096 148.787C61.0975 145.104 50.1968 135.855 45.1633 130.969C40.3459 126.337 35.2353 121.041 31.0278 117.072C42.4998 108.457 49.5097 107.662 46.5915 106.311C40.5775 103.447 31.4756 106.01 24.1106 110.896C17.0313 104.759 13.7271 111.568 18.3978 115.629C16.2625 117.966 14.6161 120.707 13.5555 123.69C12.4948 126.673 12.0414 129.838 12.2217 132.999C11.1718 132.474 9.44249 131.64 9.21861 131.872C8.99473 132.103 10.9479 135.029 10.6468 135.4C10.3457 135.77 7.18823 135.933 7.18823 136.458C7.18823 136.983 9.14141 137.361 9.44249 137.809C9.74358 138.256 7.636 140.364 8.16096 140.897C8.68593 141.429 11.1718 139.468 11.6196 139.692C12.0673 139.916 12.075 142.78 12.8239 142.78C13.5727 142.78 13.951 139.993 14.5532 139.692C15.1553 139.391 17.6412 141.954 18.3129 141.653C18.9845 141.352 16.4369 137.963 16.5064 137.369C16.7071 136.488 22.8523 135.879 15.9814 134.504C18.2959 130.283 21.1279 126.367 24.4117 122.847C45.1324 145.753 50.768 152.322 55.9096 148.787ZM43.7351 131.717C49.224 137.206 58.0944 144.502 55.238 147.281C51.7022 150.74 43.8817 141.105 39.7515 136.983C35.5363 132.698 31.4756 128.49 25.4616 121.72C26.7432 120.516 28.1714 119.242 29.7463 117.96C33.8842 121.867 38.9949 126.985 43.7351 131.717ZM17.9423 112.626C16.9696 110.819 18.475 109.167 20.351 109.993C21.252 110.454 22.0858 111.036 22.8291 111.722C21.5583 112.522 20.3959 113.482 19.3705 114.579C18.3978 113.297 18.0967 112.772 17.9423 112.626ZM14.8543 133.524C14.3293 134.427 13.9047 135.4 13.7271 133.902C12.8779 126.668 16.1358 119.913 21.3932 114.949C29.9702 106.681 39.9213 105.554 43.7273 106.612C45.997 107.214 43.9589 107.237 39.7438 109.615C32.0314 106.187 15.4487 114.587 14.862 133.524H14.8543Z" fill="#001434"/>
<path d="M59.8933 133.601C60.7271 134.273 63.0508 135.145 64.6334 135.778C65.7606 136.226 65.9845 135.176 64.1857 134.273C62.9814 133.67 61.2521 133.068 60.6499 132.173C59.7466 130.968 58.3339 126.259 56.9674 125.479C55.9715 124.9 54.2577 125.325 52.9761 124.877C51.6946 124.43 49.6719 120.438 48.3904 120.137C47.1089 119.836 44.3374 120.438 43.5808 120.292C42.8242 120.145 41.8515 119.388 40.5777 118.562C39.3039 117.736 38.5473 118.184 38.8484 118.709C39.1495 119.234 41.9364 121.565 43.133 121.797C44.4841 122.098 46.7383 121.195 47.7651 121.643C48.7919 122.09 50.166 125.325 52.1192 126.151C53.779 126.831 55.13 126.151 56.1105 126.753C57.0909 127.355 58.9206 132.767 59.8933 133.601Z" fill="#001434"/>
<path d="M6.21579 104.049C7.94509 103.076 9.3733 102.397 9.97547 102.775C11.0254 103.447 11.7048 104.582 12.9863 104.805C14.2678 105.029 17.0471 103.524 17.7959 103.678C18.8458 103.902 20.4979 105.477 22.0033 106.836C23.061 107.809 23.061 106.311 22.1577 105.253C20.8762 103.748 19.2241 102.35 17.9426 102.25C16.5144 102.127 13.8123 103.447 13.133 103.377C12.4536 103.308 11.257 101.571 10.2766 101.424C9.2961 101.277 7.72121 101.795 6.51688 102.621C5.31255 103.447 5.69083 104.35 6.21579 104.049Z" fill="#001434"/>
<path d="M114.783 130.814C112.549 129.413 110.838 127.315 109.915 124.844C108.992 122.374 108.908 119.668 109.676 117.145C110.184 115.471 111.053 113.929 112.22 112.626C116.211 108.187 123.8 106.535 129.289 111.568C130.747 112.991 131.833 114.75 132.449 116.692C133.066 118.634 133.195 120.697 132.825 122.7C132.447 124.723 134.099 124.198 134.477 121.566C135.079 117.435 133.203 113.22 130.339 110.518C125.151 105.709 116.582 106.079 111.325 111.197C106.067 116.316 106.515 125.866 111.85 130.498C114.467 132.798 115.563 131.316 114.783 130.814Z" fill="#001434"/>
<path d="M78.1669 107.438C79.1473 107.361 78.8462 105.709 78.769 105.253C78.7246 105.078 78.6163 104.925 78.4653 104.825C78.3143 104.725 78.1313 104.684 77.9522 104.712C77.7729 104.74 77.6104 104.833 77.4971 104.975C77.3839 105.117 77.3281 105.296 77.3408 105.477C77.3022 105.855 77.1864 107.484 78.1669 107.438Z" fill="#001434"/>
<path d="M130.269 121.264C130.311 120.268 130.076 119.279 129.59 118.408C128.91 116.98 127.32 116.864 127.714 117.636C128.488 119.224 128.849 120.982 128.764 122.747C128.748 123.75 130.138 123.75 130.269 121.264Z" fill="#001434"/>
<path d="M58.4652 102.999C57.423 102.605 57.4153 105.176 58.4652 105.315C59.5151 105.454 59.6078 103.431 58.4652 102.999Z" fill="#001434"/>
<path d="M76.438 112.997C76.3169 112.95 76.1859 112.934 76.0572 112.951C75.9284 112.968 75.806 113.018 75.7014 113.095C75.5968 113.172 75.5132 113.274 75.4584 113.391C75.4037 113.509 75.3795 113.639 75.3881 113.769C75.3109 114.44 75.3032 115.583 75.9131 115.799C77.4031 116.308 77.2409 113.344 76.438 112.997Z" fill="#001434"/>
<path d="M61.1744 117.96C60.194 118.122 60.1477 120.438 61.1744 120.438C62.2012 120.608 62.2089 117.752 61.1744 117.96Z" fill="#001434"/>
<path d="M64.4097 118.485C63.7303 118.485 63.6377 119.165 63.6377 119.689C63.6377 120.214 63.5682 121.118 64.3171 121.118C65.0659 121.118 65.0891 120.346 65.0891 119.836C65.2357 119.242 65.1585 118.485 64.4097 118.485Z" fill="#001434"/>
<path d="M60.874 105.168C60.874 105.94 60.7968 106.373 61.5534 106.604C62.31 106.836 62.3254 105.832 62.3254 105.168C62.3023 103.624 60.874 103.709 60.874 105.168Z" fill="#001434"/>
<path d="M67.938 107.137C67.9432 107.229 67.9682 107.32 68.0113 107.402C68.0543 107.484 68.1144 107.556 68.1875 107.613C68.2605 107.67 68.345 107.711 68.4351 107.732C68.5252 107.754 68.6189 107.756 68.71 107.739C69.6827 107.808 69.482 106.156 69.3816 105.631C69.2195 104.396 67.3976 103.863 67.938 107.137Z" fill="#001434"/>
<path d="M67.2661 119.991C67.2661 120.593 67.2661 121.535 68.0381 121.643C68.8101 121.751 68.8641 120.817 68.8641 120.099C68.8101 118.122 67.1425 118.555 67.2661 119.991Z" fill="#001434"/>
<path d="M74.106 107.361C74.1832 106.759 74.5537 105.176 73.4266 105.045C72.2995 104.913 72.5311 106.921 72.6006 107.453C72.649 107.623 72.7536 107.77 72.8972 107.872C73.0407 107.974 73.2147 108.023 73.3903 108.013C73.566 108.002 73.7326 107.931 73.8627 107.813C73.9928 107.694 74.0786 107.535 74.106 107.361Z" fill="#001434"/>
<path d="M65.2358 104.504C64.1086 104.427 64.1086 106.82 64.8575 107.137C66.1853 107.7 66.3861 104.504 65.2358 104.504Z" fill="#001434"/>
<path d="M58.6966 117.281C57.6776 117.142 57.5618 119.388 58.5422 119.689C59.5227 119.99 59.6539 117.281 58.6966 117.281Z" fill="#001434"/>
<path d="M67.5676 112.394C66.7956 112.603 66.7415 114.88 67.8687 114.88C68.9958 114.88 68.8105 112.055 67.5676 112.394Z" fill="#001434"/>
<path d="M64.5565 111.645C63.4988 111.645 63.5142 114.502 64.7109 114.201C65.1586 114.123 65.313 113.753 65.313 113.074C65.313 112.394 65.2358 111.645 64.5565 111.645Z" fill="#001434"/>
<path d="M61.8623 111.12C61.0363 111.043 60.8819 113.151 61.7851 113.298C62.2329 113.375 62.4645 112.927 62.4645 112.471C62.5263 111.645 62.3796 111.12 61.8623 111.12Z" fill="#001434"/>
<path d="M71.3965 112.695C70.7248 112.626 70.7249 113.375 70.7249 113.899C70.7249 114.579 70.8021 115.389 71.4969 115.552C72.6703 115.845 72.5468 112.695 71.3965 112.695Z" fill="#001434"/>
<path d="M77.943 118.941C77.3408 119.01 77.171 119.713 77.171 119.991C77.171 120.269 76.9471 121.797 77.943 121.643C79.0701 121.496 79.1473 118.786 77.943 118.941Z" fill="#001434"/>
<path d="M72.9018 118.941C72.2302 118.941 71.9986 119.388 72.0758 120.438C72.153 121.488 72.454 122.021 72.979 122.021C73.504 122.021 73.751 121.643 73.751 120.739C73.751 119.836 73.7278 118.941 72.9018 118.941Z" fill="#001434"/>
<path d="M86.0568 118.408C85.0841 118.709 85.2308 120.593 85.9874 120.515C86.9601 120.292 86.8134 118.107 86.0568 118.408Z" fill="#001434"/>
<path d="M82.5286 118.709C81.7566 118.863 81.7566 119.836 81.7566 120.369C81.7566 120.901 81.911 121.341 82.5286 121.264C83.5785 121.133 83.7098 118.593 82.5286 118.709Z" fill="#001434"/>
</svg>
