<svg width="155" height="155" viewBox="0 0 155 155" fill="none" xmlns="http://www.w3.org/2000/svg">
<path d="M86.2577 17.3738C93.7856 17.6749 92.4338 5.33046 85.0534 7.66192C78.9546 9.39663 80.4607 17.2981 86.2577 17.3738ZM85.4294 9.16502C90.3231 7.65961 91.451 15.1095 87.0853 15.7904C82.3429 16.5454 80.7618 10.523 85.4294 9.16502Z" fill="#3D9CFB"/>
<path d="M11.6506 103.95C10.2209 104.104 7.58524 108.316 7.6609 109.672C7.7381 111.101 10.4463 115.092 11.6506 115.017C12.9306 114.94 15.6411 110.65 15.5655 109.371C15.5655 108.091 12.479 103.875 11.6506 103.95Z" fill="#3D9CFB"/>
<path d="M9.76886 66.9108C3.03464 69.0052 5.83162 77.6147 12.1034 76.547C18.7048 75.4229 16.3618 64.8603 9.76886 66.9108ZM14.3615 72.9324C13.3826 76.3208 7.66128 75.3419 7.43508 72.4808C6.45694 66.988 16.2452 66.9108 14.3615 72.9324Z" fill="#3D9CFB"/>
<path d="M140.01 88.9682C133.159 87.9144 132.933 78.4287 137.526 73.9141C140.459 71.053 145.355 68.1927 144.979 63.0735C144.377 54.4911 137.073 55.0933 129.169 45.0804C126.534 41.7677 126.76 33.2609 118.403 29.2704C110.725 25.5818 105.003 28.141 100.184 29.3476C93.1825 31.1541 92.8814 30.7025 85.7296 31.3047C75.9428 32.133 73.0741 46.5132 73.0069 46.8884C72.0681 52.138 75.6417 62.0197 75.6417 62.0197H79.6315C78.0504 58.1805 77.2228 44.479 79.6315 42.823C83.1704 43.8768 94.0858 38.9082 95.2152 36.2733C95.9679 41.0157 109.821 44.4033 115.392 43.8011C119.155 53.4381 123.597 50.6519 126.834 55.47C129.319 62.8481 125.63 70.0756 116.973 72.56C121.49 82.6478 123.673 88.8964 116.22 97.5545C121.189 100.415 123.221 102.523 132.782 101.469C139.408 99.0568 144.301 91.2294 140.01 88.9682Z" fill="#3D9CFB"/>
<path d="M13.9843 43.5726C15.025 42.8006 14.9633 37.7756 14.1387 36.6462C13.386 35.5924 8.50309 33.799 7.89089 34.3124C6.78152 35.2388 6.81008 40.202 7.66469 41.3137C8.54015 42.4617 12.9923 44.3076 13.9843 43.5726Z" fill="#3D9CFB"/>
<path d="M147.991 28.9668C144.825 25.2781 137.752 29.5697 139.258 33.6351C141.516 41.6902 153.787 35.667 147.991 28.9668ZM147.689 33.7849C146.711 37.1732 140.989 36.1943 140.763 33.3332C139.784 27.8381 149.571 27.7624 147.689 33.7849Z" fill="#3D9CFB"/>
<path d="M118.63 13.9103C119.684 14.5125 123.852 12.1208 124.574 10.8995C125.279 9.71135 124.8 4.80062 123.595 4.04868C122.843 3.59706 118.251 6.00649 117.651 7.13671C116.974 8.18896 117.5 13.2325 118.63 13.9103Z" fill="#3D9CFB"/>
<path d="M140.838 113.963C140.171 114.426 140.514 119.627 141.29 120.663C142.094 121.736 146.95 123.241 147.991 122.469C148.983 121.734 148.442 116.974 147.539 115.77C146.714 114.64 141.986 113.16 140.838 113.963Z" fill="#3D9CFB"/>
<path d="M38.0004 59.3067C32.5801 62.6943 38.6682 70.7193 43.4963 66.9102C48.9011 62.6487 43.1196 55.9184 38.0004 59.3067ZM42.5931 65.7059C39.3877 68.2111 35.215 62.7723 38.9036 60.5867C42.1414 58.3278 46.5311 62.6271 42.5931 65.7059Z" fill="#3D9CFB"/>
<path d="M55.3913 8.41451C53.9608 8.49171 51.0997 12.4799 51.0997 13.9104C51.0997 15.341 53.5841 19.4812 54.7884 19.4812C56.0684 19.4812 59.0043 15.341 59.0043 13.9853C59.08 12.781 56.2197 8.41451 55.3913 8.41451Z" fill="#3D9CFB"/>
<path d="M47.4113 52.4559C46.3575 57.4995 47.9378 58.632 52.681 58.7046C53.2083 58.4035 52.6038 54.1875 51.9283 53.5097C51.3262 52.8319 47.9378 51.9287 47.4113 52.4559Z" fill="#3D9CFB"/>
<path d="M71.5773 137.451C70.1467 137.606 67.5119 141.817 67.5875 143.173C67.6647 144.603 70.3729 148.593 71.5773 148.518C72.8573 148.441 75.567 144.151 75.4921 142.872C75.4921 141.592 72.4805 137.376 71.5773 137.451Z" fill="#3D9CFB"/>
<path d="M83.4722 61.7908C85.6547 64.35 90.9251 61.4897 89.1179 59.1559C87.2357 56.7465 81.289 59.2308 83.4722 61.7908Z" fill="#3D9CFB"/>
<path d="M104.777 119.91C98.0424 122.005 100.84 130.614 107.111 129.546C113.713 128.423 111.37 117.864 104.777 119.91ZM109.369 125.932C108.391 129.319 102.669 128.341 102.444 125.48C101.465 119.986 111.251 119.91 109.369 125.933V125.932Z" fill="#3D9CFB"/>
<path d="M108.015 63.071C110.198 65.6302 115.468 62.7692 113.661 60.4354C111.779 58.1016 105.832 60.5867 108.015 63.071Z" fill="#3D9CFB"/>
<path d="M118.555 140.463C117.727 140.689 116.597 145.808 116.974 146.937C117.425 148.217 121.558 151.055 122.771 150.626C123.893 150.229 124.778 145.515 124.351 144.151C123.952 142.877 119.91 140.011 118.555 140.463Z" fill="#3D9CFB"/>
<path d="M27.0093 7.21003C23.8441 3.52138 16.7702 7.81219 18.2764 11.8776C20.4596 19.9327 32.7307 13.9103 27.0093 7.21003ZM26.7075 12.0281C25.7294 15.4157 20.008 14.4368 19.7818 11.5765C18.728 6.15392 28.5148 5.93004 26.7075 12.0281Z" fill="#3D9CFB"/>
<path d="M32.2041 135.72C25.4691 137.814 28.2668 146.424 34.5378 145.356C41.1393 144.233 38.7962 133.669 32.2041 135.72ZM36.796 141.741C35.817 145.129 30.0957 144.15 29.8695 141.29C28.8914 135.795 38.6781 135.72 36.796 141.742V141.741Z" fill="#3D9CFB"/>
<path d="M31.6771 37.6249C29.5695 37.7793 18.8788 39.0555 17.5988 39.0555C16.3188 39.0555 16.1683 40.6358 18.4272 40.6358C20.6861 40.6358 29.9455 39.4314 31.9025 39.1304C33.7847 38.9049 33.7847 37.4744 31.6771 37.6249Z" fill="#001434"/>
<path d="M35.8928 35.8932C36.7667 37.5653 38.076 36.947 36.8717 34.3878C35.6673 31.8285 29.4179 19.8578 28.2113 17.8251C27.4586 16.5451 25.4259 16.3189 26.8564 18.5778C28.287 20.8367 34.8012 33.8041 35.8928 35.8932Z" fill="#001434"/>
<path d="M19.2559 60.5866C17.901 62.1676 15.4924 65.7057 15.944 66.2322C16.3956 66.7588 17.2047 66.3697 17.7505 65.6301C18.26 64.9399 19.4821 62.6964 20.461 61.4898C21.4399 60.2832 20.61 59.0055 19.2559 60.5866Z" fill="#001434"/>
<path d="M17.6734 74.4388C17.072 75.6431 21.4377 76.1696 31.8274 79.7085C33.0317 80.0852 34.2515 80.0026 33.935 79.3318C33.6478 78.7234 32.7306 78.3529 29.2674 77.2991C25.8042 76.2453 20.4596 74.7399 19.1796 74.211C18.2007 73.8358 17.8247 74.062 17.6734 74.4388Z" fill="#001434"/>
<path d="M17.3735 107.563C18.7284 107.337 21.8897 106.359 22.041 105.305C22.1182 104.928 21.9638 104.326 20.8359 104.702C19.6316 105.079 18.3516 105.681 17.2222 106.058C16.0912 106.36 16.0178 107.789 17.3735 107.563Z" fill="#001434"/>
<path d="M21.2872 124.803C19.5556 122.621 15.6253 114.988 14.1353 115.848C13.7547 116.067 13.9099 116.901 14.1353 117.203C16.0174 119.386 25.6675 136.37 27.9882 135.647C28.4421 135.505 28.3742 134.889 28.0654 134.518C26.2211 132.3 23.6966 128.492 21.2872 124.803Z" fill="#001434"/>
<path d="M11.576 83.5477C11.6532 79.859 12.1782 77.9012 11.1236 77.9769C10.672 78.0541 10.4466 78.1274 10.3709 79.7834C9.86949 86.9076 9.99556 94.062 10.7477 101.164C10.9739 102.971 12.1782 102.595 12.0277 100.411C10.9739 89.0436 11.5004 88.592 11.576 83.5477Z" fill="#001434"/>
<path d="M11.9519 63.7455C11.8747 61.939 11.6508 49.2912 11.2749 46.7312C10.9738 44.172 9.76868 43.7976 9.76868 46.3552C9.84588 48.8396 10.1786 61.9428 10.3708 63.8211C10.5569 65.6346 12.0276 65.5551 11.9519 63.7455Z" fill="#001434"/>
<path d="M17.5989 17.2979C16.4694 19.2558 12.0281 27.3842 10.7481 31.3763C9.99538 33.6352 10.9743 34.4643 12.1786 31.4535C13.3829 28.4426 18.1231 19.8595 18.9545 18.1278C19.786 16.3962 18.7283 15.3409 17.5989 17.2979Z" fill="#001434"/>
<path d="M39.5811 129.546C38.7535 131.127 37.7739 132.711 37.2473 133.762C36.7208 134.813 37.8495 136.021 38.6022 134.44C39.3549 132.859 40.2589 131.654 40.936 130.224C41.613 128.794 40.4087 127.965 39.5811 129.546Z" fill="#001434"/>
<path d="M94.6896 12.1757C96.7926 11.9132 112.457 9.84192 114.263 9.46518C115.92 9.08921 116.371 7.65868 113.36 8.03465C109.897 8.48704 96.9477 10.143 94.5391 10.6695C92.1304 11.196 92.5766 12.4428 94.6896 12.1757Z" fill="#001434"/>
<path d="M137.149 35.366C135.644 35.8176 135.568 35.8933 134.293 36.27C133.017 36.6468 133.172 38.1869 134.744 37.7754C135.726 37.572 136.685 37.2691 137.605 36.8714C140.01 35.8933 138.053 35.0649 137.149 35.366Z" fill="#001434"/>
<path d="M115.618 21.0624C116.521 19.557 117.378 18.1435 118.178 16.7708C118.959 15.4322 117.952 14.2116 116.823 16.0181C115.87 17.3868 115.015 18.8209 114.263 20.3097C113.586 21.8151 114.715 22.5686 115.618 21.0624Z" fill="#001434"/>
<path d="M138.504 26.4074C140.386 28.0634 141.365 27.2358 139.559 25.278C137.752 23.3201 130.295 14.1356 129.094 12.4796C127.894 10.8237 126.006 11.0491 127.814 13.308C129.622 15.6418 136.622 24.7507 138.504 26.4074Z" fill="#001434"/>
<path d="M87.839 24.2959C88.14 26.178 89.2695 25.877 89.1182 24.4503C89.0446 22.9945 88.7918 21.5534 88.3655 20.1595C87.9887 18.729 86.6339 18.1268 87.0855 20.5354C87.5371 22.9441 87.5371 22.4168 87.839 24.2959Z" fill="#001434"/>
<path d="M50.4978 29.7952C51.9283 30.6236 53.8854 24.6004 54.1864 22.7182C54.6388 20.3096 53.2832 20.4601 53.0578 21.439C52.681 23.095 50.8745 27.6876 50.4221 28.9668C50.2716 29.4941 50.3473 29.7195 50.4978 29.7952Z" fill="#001434"/>
<path d="M62.0909 16.3187C65.1789 16.846 76.0187 15.2649 78.0514 14.9639C80.0084 14.6628 80.4608 13.0817 77.826 13.4584C75.1911 13.7595 65.6282 14.8133 62.9949 14.8133C60.3616 14.8133 59.9084 16.0176 62.0909 16.3187Z" fill="#001434"/>
<path d="M32.8055 12.33C37.3982 12.5555 45.6795 14.2879 47.8596 14.8144C49.064 15.1154 51.3977 14.2879 48.2364 13.309C43.2141 12.0661 38.1038 11.2103 32.9506 10.749C30.6979 10.6725 31.8274 12.2528 32.8055 12.33Z" fill="#001434"/>
<path d="M102.218 56.7468C103.799 57.8762 110.951 58.3279 113.736 57.6508C117.275 56.7468 117.124 49.3687 114.715 47.4866C112.306 45.5295 105.229 44.6301 102.143 46.5084C99.1312 48.4655 99.3566 54.9403 102.218 56.7468ZM113.511 48.9927C114.64 49.8203 115.393 56.3708 112.156 55.9941C110.335 53.0494 108.35 50.2091 106.211 47.4866C108.843 47.3368 112.156 48.0138 113.511 48.9927Z" fill="#001434"/>
<path d="M42.6679 42.443C36.5467 45.2546 37.7464 47.8377 39.4309 46.6589C40.1836 46.1316 42.1414 44.6262 43.4206 43.8735C44.7763 42.8946 44.4752 41.6146 42.6679 42.443Z" fill="#001434"/>
<path d="M46.8838 47.1106C45.2343 48.2223 43.6509 49.4289 42.1414 50.7243C41.4034 51.4917 41.313 53.5097 44.8511 50.8749C49.6731 47.1855 47.5617 46.5833 46.8838 47.1106Z" fill="#001434"/>
<path d="M34.914 48.1646C32.8056 47.8635 29.0838 50.4891 28.5897 52.23C28.1867 53.6528 30.7737 57.9521 32.9569 57.9521C34.4624 57.9521 39.0558 55.2416 39.133 53.811C39.2048 52.6067 36.1183 48.3151 34.914 48.1646ZM33.634 56.2954C32.2791 56.747 31.7518 55.467 30.0202 53.0583C28.8915 51.4016 33.1082 49.3527 33.8602 49.294C35.063 49.196 36.5699 51.1005 37.6245 53.0583C38.0761 53.9616 35.2907 55.7689 33.634 56.2954Z" fill="#001434"/>
<path d="M46.7331 43.6471C44.4011 44.9714 42.2496 46.5908 40.3316 48.4652C39.3334 49.5776 40.1633 50.318 41.536 49.4441C42.8746 48.5895 46.3548 45.906 47.8602 44.7765C49.2931 43.6471 47.7869 43.0449 46.7331 43.6471Z" fill="#001434"/>
<path d="M144.829 99.5083C144.829 101.315 144.829 107.714 144.528 110.876C144.377 112.532 145.28 113.059 145.732 109.897C146.134 106.499 146.336 103.08 146.335 99.6588C146.41 97.2509 144.829 97.7767 144.829 99.5083Z" fill="#001434"/>
<path d="M148.292 53.5096C148.066 51.1001 147.463 44.1745 147.012 41.3891C146.56 38.6037 145.054 38.6037 145.506 41.5435C145.959 44.4833 146.485 50.8037 146.936 53.0618C147.313 55.015 148.442 55.9182 148.292 53.5096Z" fill="#001434"/>
<path d="M96.0448 60.9666C95.1608 60.8853 94.2814 60.7598 93.41 60.5906C92.7322 60.4362 92.0543 61.7193 93.1089 62.7731C93.9365 63.6014 95.2072 63.7597 95.6681 64.3541C96.5544 65.4975 97.3997 66.9141 99.4324 67.0646C104.025 67.4414 104.025 61.3433 102.669 60.2895C101.314 59.2357 99.2093 61.0384 96.0448 60.9666Z" fill="#001434"/>
<path d="M140.237 48.6145C137.11 45.2303 134.428 41.4608 132.256 37.3972C125.782 24.2963 115.699 20.8585 103.799 24.6004C99.2645 26.1234 94.5037 26.862 89.7212 26.7844C80.3027 26.63 72.6313 34.689 71.8037 44.4758C65.7048 33.8607 59.0046 33.108 54.0359 34.9901C50.0462 28.8912 45.7901 33.2099 34.6879 39.8082C24.1114 46.0947 20.3841 49.2182 20.0831 52.0059C19.782 54.4902 21.6641 57.7273 27.0844 64.8791C33.333 73.2361 35.6668 75.7197 38.3773 76.1713C40.5636 76.5465 43.4973 74.8905 54.1116 66.8339C54.4135 70.0208 55.0184 73.1717 55.9181 76.2439C49.8192 76.6955 44.1735 77.2976 41.9154 78.6533C29.219 86.6173 26.5579 86.9832 26.5579 89.3448C22.643 87.7637 19.5558 85.3551 16.7704 87.6132C16.2439 88.0656 15.566 89.1194 16.0925 90.9259C17.5238 96.0451 31.0934 113.95 31.6014 114.716C33.323 117.308 36.57 117.426 39.2049 115.92L47.7873 111.253C46.7335 115.544 46.4324 117.877 47.0346 119.007C41.7649 120.663 38.9795 120.964 39.5068 125.406C40.1089 130.148 69.3942 133.536 73.0829 133.913C76.6967 134.29 78.2021 135.117 79.4821 130.525C80.762 125.933 82.5701 120.136 82.5701 120.136C82.6348 119.923 82.7511 119.729 82.9087 119.572C83.0662 119.414 83.2601 119.298 83.4733 119.233C95.0673 115.619 106.36 112.834 116.373 98.6799C126.31 106.058 142.27 102.896 145.659 90.3237C146.336 87.99 145.357 85.8816 142.948 85.8067C141.909 85.7296 140.9 85.4272 139.99 84.9206C139.08 84.414 138.291 83.7153 137.678 82.8731C134.513 78.8069 137.452 75.1939 140.915 72.5591C150.325 65.706 146.786 55.0152 140.237 48.6145ZM71.1259 47.3368C70.448 49.1433 69.5448 51.2509 65.8554 54.112C65.8078 52.9441 65.4718 51.8063 64.8772 50.8C65.7056 50.0466 66.2306 48.9434 64.9544 48.8422C62.6909 48.6624 56.748 47.4117 56.1458 44.1747C55.468 41.3893 59.2338 42.2169 60.7385 42.5936C61.9428 42.9696 61.1145 40.4104 57.7277 40.2598C56.7488 38.8293 55.8455 37.5493 55.1677 36.5704C61.2635 34.8396 66.7594 38.5282 71.1259 47.3368ZM52.2294 63.823C46.6625 68.1146 41.7649 72.4811 39.0551 72.1051C37.2479 71.8789 22.8685 54.6362 24.1484 52.5309C24.2256 49.3657 47.2608 35.1406 49.5189 35.2912C50.7989 35.2912 52.9073 37.9261 55.2403 41.2356C51.9283 45.2254 57.4991 49.4413 61.3391 50.1191C62.3937 51.7751 63.0715 53.13 63.0715 53.8834C62.8445 55.5425 57.4243 59.6828 52.2294 63.823ZM55.7675 65.5546C61.7892 60.8863 64.1245 58.6282 65.1026 56.9722C67.8584 55.4294 70.1671 53.1986 71.8037 50.4974C72.1669 54.1608 73.0279 57.7575 74.3629 61.1882C68.867 61.8652 65.667 63.0958 64.2751 65.0274C62.731 67.1651 63.7478 70.7487 66.5332 71.3517C63.8234 73.5341 62.4678 76.5457 57.8759 76.169C56.6708 72.5567 56.4454 68.7168 55.7675 65.5554V65.5546ZM88.0645 55.9933C90.8499 54.5628 90.8499 47.9374 88.8172 45.9804C87.1612 44.475 82.6411 44.5499 80.1599 44.7012C80.2707 44.4187 80.3962 44.1422 80.5358 43.8728C82.3521 43.7761 84.1485 43.4471 85.8812 42.8939C87.2361 42.9711 88.3655 44.0234 88.9693 44.0234C90.2492 43.9462 90.1744 42.7434 88.7438 41.8401C90.9898 40.8156 93.0907 39.4993 94.9925 37.9253C96.1968 39.5812 98.0033 41.238 101.542 42.5172C98.9073 43.8728 98.9822 45.0772 99.8105 45.1528C100.639 45.2285 102.37 43.8728 104.854 43.4961C108.078 44.1946 111.35 44.6475 114.642 44.851C117.879 51.4763 119.911 52.6814 123.674 53.7352C125.029 54.1112 126.083 55.9933 126.384 58.4777C128.416 76.6198 96.3458 73.2338 91.8288 71.8782C88.6635 68.34 85.2791 63.7474 80.6864 61.7903C80.1211 59.9469 79.7181 58.0575 79.4821 56.1439C81.8073 56.455 85.9384 57.0572 88.0645 55.9941V55.9933ZM81.5904 46.5826C84.2253 46.5054 86.7845 46.8088 87.4623 47.4109C88.4412 48.0131 88.8172 53.2828 87.1612 54.2617C86.4918 54.53 85.7745 54.6583 85.0536 54.6385C84.069 51.8836 82.9123 49.1932 81.5904 46.5833V46.5826ZM83.024 65.4041C85.2829 67.2863 88.1231 71.0398 88.5199 78.353C89.0796 88.6593 72.71 89.947 70.2234 80.3108C72.3692 80.3135 74.5024 79.9833 76.5469 79.3319C77.7512 78.8803 76.9985 77.0738 75.7942 77.5254C73.8045 78.1812 71.7103 78.4618 69.6181 78.353C69.0916 76.5465 69.1665 72.5568 69.8443 71.5022C71.9437 71.3486 74.0171 70.9443 76.0204 70.2979C76.139 70.2583 76.2487 70.1958 76.3431 70.1139C76.4376 70.032 76.515 69.9322 76.5709 69.8204C76.6268 69.7086 76.6601 69.5868 76.669 69.4621C76.6779 69.3374 76.6621 69.2121 76.6225 69.0935C76.583 68.9749 76.5205 68.8652 76.4386 68.7708C76.3566 68.6763 76.2569 68.5989 76.1451 68.543C76.0333 68.4871 75.9115 68.4538 75.7868 68.4449C75.6621 68.436 75.5368 68.4518 75.4182 68.4914C73.3106 69.319 63.5239 71.425 65.9326 66.007C66.9863 64.426 70.3662 63.2803 75.8698 62.8418C78.4977 62.7284 81.0657 63.6481 83.024 65.4041ZM67.8927 79.257C68.4942 81.9583 69.8829 84.4207 71.8832 86.3332C72.1843 86.9362 73.0126 88.8183 74.2918 91.227C69.4738 86.0321 65.7851 80.8381 63.903 76.3959C65.1829 75.3422 66.5378 73.7611 67.5167 73.0084C67.2623 75.0966 67.3881 77.2136 67.8881 79.257H67.8927ZM33.1825 113.587C29.0422 107.565 15.8671 91.7543 18.2009 89.0437C19.5558 87.3878 24.0728 90.3237 27.1562 91.6786C30.0165 96.4218 35.8891 106.887 36.1887 114.941C35.6112 115.018 35.0239 114.931 34.4928 114.692C33.9618 114.452 33.508 114.07 33.1825 113.587ZM73.3091 132.031C70.3755 131.73 50.4978 129.546 42.7438 125.707C42.4786 125.622 42.238 125.474 42.0424 125.276C41.8469 125.077 41.7022 124.835 41.6208 124.568C41.5394 124.302 41.5237 124.02 41.575 123.746C41.6263 123.473 41.7431 123.215 41.9154 122.997C42.8187 121.717 46.8092 120.964 49.2935 120.587C61.1886 122.244 72.104 126.008 77.525 130.676C76.9252 132.106 76.4705 132.332 73.3091 132.031ZM96.0447 112.834C79.3315 120.663 82.7191 112.307 77.9797 128.643C72.0353 123.976 60.6644 119.986 48.8442 118.329C47.7155 117.125 50.9525 106.811 52.082 101.993C53.0609 97.4756 56.7495 96.2705 60.3633 93.5608C62.396 92.0546 61.7938 90.6271 60.74 91.3019C50.7263 97.7767 50.9525 97.4007 48.3926 108.618C38.5271 114.066 38.2067 114.264 38.0793 114.264C37.552 105.606 31.2779 94.9998 28.6685 90.2481C27.9035 88.8538 28.5558 89.1078 42.9723 80.3108C46.3606 78.2032 57.0506 78.7297 62.2454 77.4544C64.8803 83.6304 70.8271 91.156 78.3557 97.9311C81.5209 102.448 85.5083 106.588 89.874 107.118C92.6732 108.785 95.5638 110.293 98.5321 111.635C97.7007 112.08 96.8731 112.459 96.0447 112.834ZM100.712 110.5C98.2279 109.371 95.969 108.316 94.012 107.262C100.11 106.794 106.026 104.967 111.327 101.917C108.38 105.44 104.774 108.355 100.712 110.5ZM113.661 98.0778C107.337 103.121 96.9479 106.209 90.0223 105.23C83.5474 104.251 77.4494 93.3353 74.8909 88.1405C81.5904 91.0741 91.134 86.1989 90.4747 78.353C90.3088 76.2129 89.9305 74.0946 89.3452 72.0295C92.0818 75.2516 94.5731 78.6742 96.7982 82.2686C96.8847 82.4098 97.0067 82.5257 97.1521 82.605C97.2974 82.6842 97.461 82.724 97.6265 82.7202C99.5087 82.4191 98.0782 80.537 97.4003 79.6322C98.6707 78.8852 100.006 78.2552 101.391 77.75C101.64 77.6594 101.843 77.474 101.956 77.2342C102.069 76.9944 102.082 76.7197 101.993 76.4701C101.24 74.6636 97.4003 77.5995 96.2709 77.9762C95.3742 76.6737 94.4457 75.3933 93.4863 74.1363C99.3574 75.1908 109.37 75.6425 116.146 73.5341C119.007 77.7508 123.147 91.7543 113.661 98.0778ZM144.377 64.3503C143.097 71.8789 129.395 74.2884 136.096 84.0751C136.893 85.1653 137.92 86.0673 139.103 86.7177C140.287 87.3681 141.599 87.751 142.946 87.8394C144.076 87.8394 144.076 88.7427 143.85 89.8721C140.762 101.164 126.685 103.799 117.576 97.2494C124.653 91.0008 120.664 76.3959 118.178 73.0084C125.33 70.9757 129.094 63.9759 128.342 58.3279C127.889 55.0909 126.384 52.6065 124.276 52.0044C121.343 51.1011 119.684 50.4233 116.898 44.9274C120.964 44.4758 122.098 42.2408 120.889 42.518C111.218 44.7382 97.7007 40.3347 96.5704 36.7966C98.0758 34.9145 98.8286 32.8069 98.678 31.9785C98.5236 31.2258 97.7632 31.4458 97.5486 31.9013C96.8548 33.4209 95.8864 34.7994 94.6921 35.9675C88.2343 42.2362 81.6676 42.1435 80.2371 42.1435C79.1772 42.1705 78.1172 42.0947 77.0718 41.9173C76.5446 41.8401 75.8667 43.4984 78.7278 44.0257C76.4689 50.2017 77.2973 55.6189 78.5734 61.341C77.954 61.2179 77.3225 61.166 76.6912 61.1866C71.4215 49.8937 72.7687 29.0155 90.0169 28.8897C99.4276 28.821 103.718 26.1792 111.247 25.2759C116.969 24.9 124.346 26.1043 130.746 38.5259C135.493 49.2182 146.033 52.832 144.377 64.3503Z" fill="#001434"/>
<path d="M92.2044 56.5962C93.1833 57.1235 93.323 55.923 93.1084 55.317C92.7903 54.4191 92.9579 53.7359 93.7106 53.3592C94.6138 52.8319 96.2698 53.6602 97.3243 54.714C98.3789 55.7678 100.11 55.0908 98.9054 53.5846C97.7011 52.0784 94.8392 50.651 92.8065 51.6276C90.7746 52.5308 91.2262 56.0697 92.2044 56.5962Z" fill="#001434"/>
<path d="M112.682 131.278C112.005 130.525 110.423 130.449 111.327 132.03C112.231 133.611 115.016 137.225 115.844 138.279C116.672 139.333 118.555 139.032 117.048 137.3C115.542 135.568 114.112 132.934 112.682 131.278Z" fill="#001434"/>
<path d="M98.2276 123.598C99.8836 123.749 99.8836 122.62 98.1504 122.244C96.645 121.943 90.6218 121.114 88.2888 121.039C86.4815 120.962 87.3099 122.469 88.6648 122.62C90.9252 122.921 96.5717 123.449 98.2276 123.598Z" fill="#001434"/>
<path d="M112.231 144.754C108.767 144.604 80.3853 144.001 78.957 143.85C77.4516 143.7 77.4516 144.905 78.7316 145.206C81.2916 145.732 109.297 146.26 112.16 146.335C114.941 146.41 114.188 144.829 112.231 144.754Z" fill="#001434"/>
<path d="M139.483 123.298C138.053 125.33 128.191 138.204 126.911 140.613C125.631 143.022 126.911 143.547 128.04 141.893C129.696 139.409 138.806 127.288 139.935 124.955C141.14 122.771 140.538 121.868 139.483 123.298Z" fill="#001434"/>
<path d="M101.166 129.998C101.166 129.546 101.166 129.094 99.3588 130.075C97.2512 131.203 91.4542 133.839 86.4855 136.019C78.882 139.407 77.0755 140.085 76.9242 140.837C76.6988 142.418 81.4412 139.784 87.0128 137.525C99.4321 131.428 101.089 131.278 101.166 129.998Z" fill="#001434"/>
<path d="M109.521 117.049C110.348 114.716 112.004 109.747 112.305 108.316C112.983 105.004 111.026 107.489 110.649 108.768C110.273 110.124 108.692 115.167 108.165 116.974C107.638 118.782 108.767 119.383 109.521 117.049Z" fill="#001434"/>
<path d="M136.848 112.909C138.881 114.038 140.085 113.736 138.053 112.231C135.945 110.725 131.954 107.563 129.997 106.51C128.04 105.38 127.212 106.432 129.169 107.79C131.051 109.144 134.815 111.779 136.848 112.909Z" fill="#001434"/>
<path d="M63.2202 142.42C61.1127 142.42 43.7248 141.329 41.9901 141.215C40.2554 141.102 39.3552 142.345 41.9128 142.796C44.4728 143.173 60.8085 143.963 63.143 144.001C65.4776 144.039 65.3286 142.42 63.2202 142.42Z" fill="#001434"/>
<path d="M113.21 124.653C117.044 124.885 135.568 119.834 136.848 119.308C138.203 118.706 138.128 117.426 129.622 119.533C124.728 120.738 115.543 122.621 114.038 123.072C112.533 123.523 112.305 124.598 113.21 124.653Z" fill="#001434"/>
</svg>
