<svg width="154" height="154" viewBox="0 0 154 154" fill="none" xmlns="http://www.w3.org/2000/svg">
<path d="M107.314 108.042C110.381 106.092 115.117 101.634 111.03 98.2891C107.502 95.3172 100.626 96.8959 96.725 98.1963C87.6222 101.263 80.5627 107.299 73.4105 113.43C72.7734 114.073 71.9691 114.524 71.0888 114.734C70.2091 114.75 69.3418 114.525 68.5807 114.083C61.1601 110.612 49.5585 103.619 44.3377 106.467C43.2504 107.067 42.4001 108.019 41.9273 109.168C41.4545 110.316 41.3873 111.591 41.7369 112.783C42.6033 115.866 45.9164 117.334 48.2389 119.192C52.3257 122.536 55.4839 127.459 57.5273 132.289C59.5768 137.177 60.5529 141.147 65.6081 144.55C69.7562 147.393 74.5934 149.065 79.6113 149.392C84.6292 149.719 89.6425 148.688 94.1242 146.407C100.329 142.985 108.309 136.649 109.636 129.688C109.854 127.405 108.999 124.964 106.697 124.155C107.885 117.995 104.957 114.057 100.491 113.255C102.264 110.943 104.89 109.594 107.314 108.042Z" fill="white"/>
<path d="M111.239 98.0408C107.52 94.9086 100.485 96.6008 96.6215 97.8874C83.2617 102.386 73.9326 113.741 71.0888 114.405C70.2566 114.421 69.4363 114.206 68.7187 113.784C61.1279 110.236 49.5776 103.233 44.1828 106.177C43.0316 106.815 42.1315 107.825 41.6299 109.041C41.1284 110.258 41.0552 111.609 41.4225 112.873C43.0955 118.827 51.2269 117.002 58.0402 134.451C59.7708 138.878 61.2744 142.023 65.4186 144.812C75.7797 151.786 89.4363 151.859 101.941 141.362C107.317 136.85 109.243 133.474 109.957 129.714C110.176 127.419 109.357 124.917 107.058 123.942C107.065 123.928 107.069 123.913 107.072 123.897C107.775 120.467 107.183 117.873 105.336 115.641C104.251 114.317 102.752 113.399 101.081 113.034C102.8 111.026 105.254 109.741 107.486 108.314C111.709 105.632 115.125 101.22 111.239 98.0408ZM104.838 116.059C106.572 118.154 107.104 120.493 106.448 123.738C103.826 123.041 96.9604 124.282 93.7201 127.059C91.6845 127.357 89.6081 127.2 87.6406 126.599C85.5251 125.837 83.6006 123.682 84.0368 121.402C84.6732 118.537 88.7217 114.348 94.4416 113.666C98.1719 113.193 102.305 112.998 104.838 116.056V116.059ZM107.138 107.772C105.119 109.064 102.226 110.641 100.333 112.895C98.3472 112.661 96.3383 112.702 94.3634 113.018C88.3759 113.729 84.0951 118.14 83.3989 121.267C82.8929 123.898 85.0444 126.354 87.4167 127.207C88.7071 127.648 90.0643 127.86 91.4275 127.834C94.151 127.834 92.6758 127.051 91.0388 130.483C90.7225 131.057 90.5428 131.696 90.5134 132.351C90.484 133.005 90.6058 133.658 90.8693 134.258C91.1323 134.858 91.5296 135.39 92.0305 135.812C92.5314 136.234 93.1226 136.536 93.7584 136.693C96.6132 137.453 99.617 137.453 102.472 136.693C102.513 136.682 102.552 136.663 102.586 136.637C102.62 136.612 102.648 136.579 102.67 136.542C102.691 136.505 102.705 136.464 102.711 136.422C102.716 136.38 102.714 136.337 102.703 136.295C102.692 136.254 102.673 136.215 102.647 136.181C102.621 136.148 102.588 136.119 102.551 136.098C102.514 136.076 102.474 136.062 102.431 136.057C102.389 136.051 102.346 136.054 102.305 136.065C99.5615 136.795 96.6749 136.795 93.9317 136.065C93.3566 135.909 92.8256 135.621 92.3808 135.224C91.9361 134.827 91.5898 134.333 91.3693 133.779C90.5435 130.75 93.4494 127.492 96.2067 126.173C98.8228 124.925 104.766 123.279 107.252 124.771C108.912 125.645 109.481 127.853 109.313 129.624C108.003 136.504 100.08 142.746 93.9708 146.116C89.5453 148.388 84.5862 149.417 79.6221 149.093C74.6579 148.769 69.8746 147.104 65.7821 144.276C61.7183 141.542 60.2968 138.44 58.646 134.216C51.772 116.613 43.6261 118.3 42.0512 112.698C41.7243 111.576 41.7878 110.377 42.2313 109.296C42.6748 108.216 43.472 107.317 44.4925 106.749C49.5646 103.984 61.131 110.966 68.4082 114.356C69.2439 114.835 70.1961 115.074 71.1593 115.046C72.0927 114.829 72.9463 114.354 73.6229 113.675C80.5727 107.717 87.7594 101.56 96.8277 98.5031C99.8334 97.5018 107.214 95.499 110.824 98.5399C114.322 101.403 110.854 105.405 107.139 107.769L107.138 107.772Z" fill="#4B1010"/>
<path d="M81.9128 135.398C82.4255 131.702 81.6685 127.94 79.7656 124.73C77.8627 121.519 74.9265 119.05 71.4375 117.725C71.3781 117.702 71.3269 117.661 71.2903 117.609C71.2536 117.557 71.2332 117.495 71.2316 117.432C71.2299 117.368 71.2471 117.305 71.281 117.251C71.315 117.197 71.3641 117.154 71.4222 117.128C71.4993 117.092 71.5874 117.088 71.6675 117.117C75.2935 118.494 78.3449 121.06 80.3227 124.396C82.3005 127.733 83.0876 131.642 82.5554 135.483C82.5378 135.563 82.4911 135.633 82.4245 135.68C82.3578 135.727 82.2759 135.748 82.195 135.737C82.1141 135.726 82.0403 135.685 81.9881 135.623C81.9359 135.56 81.909 135.48 81.9128 135.398Z" fill="#4B1010"/>
<path d="M96.7251 39.7709V60.9493L85.0215 69.6803V46.0874L96.7251 39.7709Z" fill="white"/>
<path d="M85.0221 46.0874L63.3799 42.7436L63.8445 65.0361L85.0221 69.6803V46.0874Z" fill="#FFE55D"/>
<path d="M96.9871 39.5778C96.777 39.3677 76.3615 36.9202 76.2573 36.9639L63.2172 42.4623C62.9603 42.6049 63.0584 42.4669 63.5193 65.043C63.5208 65.1159 63.5469 65.1862 63.5932 65.2425C63.6395 65.2988 63.7034 65.3379 63.7746 65.3536L84.9775 70.0024C85.2359 70.0384 97.0492 61.1771 97.0492 60.9471V39.8185C97.0607 39.7332 97.0384 39.6468 96.9871 39.5778ZM63.7102 43.124L84.6992 46.3658V69.277L64.1641 64.7731L63.7102 43.124ZM96.4005 60.786L85.3478 69.0324V46.2815L96.4005 40.3162V60.786Z" fill="#4B1010"/>
<path d="M134.994 18.1287V34.8485L125.706 41.7216V23.1448L134.994 18.1287Z" fill="white"/>
<path d="M125.706 23.1448L108.801 20.544L109.172 38.0995L125.706 41.7216V23.1448Z" fill="#FFE55D"/>
<path d="M135.317 18.0903C135.267 17.6732 118.968 15.846 118.89 15.879C108.506 20.2855 108.631 20.2334 108.535 20.3561C108.441 20.4933 108.458 20.3706 108.847 38.1055C108.848 38.1786 108.874 38.249 108.92 38.3055C108.967 38.3619 109.031 38.4012 109.102 38.4168C125.806 42.0834 125.658 42.075 125.817 42.0259L135.184 35.1098C135.415 34.9412 135.326 18.167 135.317 18.0903ZM109.134 20.9273L125.38 23.4261V41.3182L109.492 37.8372L109.134 20.9273ZM134.666 34.6874L126.028 41.0798V23.3387L134.666 18.6738V34.6874Z" fill="#4B1010"/>
<path d="M89.8527 5.40285V19.5218L82.0503 25.3736V9.67594L89.8527 5.40285Z" fill="white"/>
<path d="M82.0499 9.67613L67.6519 7.44719L68.0237 22.2155L82.0499 25.3738V9.67613Z" fill="#FFE55D"/>
<path d="M90.1546 5.28562C90.0595 5.02033 90.1608 5.11617 76.3286 3.5014C76.14 3.47916 67.386 7.23623 67.4642 7.18179C67.2779 7.31214 67.3247 7.18716 67.6988 22.2239C67.7013 22.2959 67.7275 22.365 67.7735 22.4205C67.8194 22.476 67.8824 22.5147 67.9526 22.5306C82.1375 25.7179 82.0118 25.7233 82.1544 25.6796C82.2425 25.6443 82.1636 25.6873 90.0473 19.7795C90.2497 19.6307 90.2052 5.4267 90.1546 5.28562ZM67.9841 7.82739L81.7242 9.95819V24.9711L68.3429 21.9578L67.9841 7.82739ZM89.5297 19.3593L82.3775 24.7265V9.86848L89.5297 5.95193V19.3593Z" fill="#4B1010"/>
<path d="M53.7192 24.4451V39.8636L45.1738 46.1801V29.0893L53.7192 24.4451Z" fill="white"/>
<path d="M45.1737 29.0894L29.5688 26.6741L29.8472 42.8364L45.1737 46.1802V29.0894Z" fill="#FFE55D"/>
<path d="M54.0448 24.4429C54.0448 24.0357 54.0679 24.2711 38.9897 22.3573C38.851 22.3397 29.459 26.3559 29.3877 26.405C29.1838 26.5437 29.2482 26.4096 29.5227 42.8418C29.5241 42.915 29.5501 42.9856 29.5966 43.0422C29.6431 43.0988 29.7072 43.1382 29.7788 43.1538C29.8555 43.1707 45.1337 46.5176 45.2272 46.5015C45.2486 46.498 45.2694 46.4921 45.2893 46.4838L45.3031 46.4785L45.3269 46.467L45.3652 46.4417C54.2726 40.188 54.0448 40.1183 54.0448 39.8614V24.4429ZM29.9007 27.0567L44.8523 29.37V45.7784L30.1691 42.5734L29.9007 27.0567ZM53.3946 39.6996L45.4994 45.5354V29.2803L53.3969 24.9865L53.3946 39.6996Z" fill="#4B1010"/>
<path d="M58.1778 82.0341V93.2739L51.9541 97.8253V85.3787L58.1778 82.0341Z" fill="white"/>
<path d="M51.9539 85.3787L40.6221 83.6137L40.8076 95.4101L51.9539 97.8254V85.3787Z" fill="#FFE55D"/>
<path d="M58.35 81.7941C57.4559 81.6131 47.5189 80.3718 47.3694 80.4339C42.1125 82.6252 40.862 83.1236 40.5146 83.3046C40.4506 83.3285 40.3954 83.3714 40.3565 83.4276C40.3176 83.4838 40.2968 83.5506 40.2969 83.6189C40.392 95.7336 40.3467 95.6423 40.7385 95.7274C44.1061 96.4589 51.9867 98.1534 52.0695 98.1289L58.3692 93.5338C58.5762 93.3804 58.5026 93.5338 58.5026 82.0678C58.5026 81.9482 58.4757 81.8194 58.35 81.7941ZM40.9532 83.9939L51.6287 85.657V97.422L41.1288 95.1439L40.9532 83.9939ZM57.8524 93.1082L52.2796 97.1843V85.5726L57.8524 82.5777V93.1082Z" fill="#4B1010"/>
<path d="M91.9882 88.8152V101.634L84.8359 106.928V92.7164L91.9882 88.8152Z" fill="white"/>
<path d="M84.8361 92.7165L71.832 90.6731L72.1104 104.141L84.8361 106.928V92.7165Z" fill="#FFE55D"/>
<path d="M92.3115 88.7577C92.2994 88.6986 92.2717 88.6438 92.2312 88.599C92.1908 88.5542 92.139 88.5211 92.0814 88.5032C92.0048 88.4794 79.7306 86.975 79.6026 87.0295C71.5855 90.4208 71.6637 90.3763 71.5954 90.453C71.4797 90.453 71.528 90.8954 71.7887 104.148C71.7963 104.546 71.7741 104.198 84.7689 107.246C84.8142 107.257 84.8615 107.258 84.9071 107.248C84.9527 107.238 84.9954 107.218 85.0319 107.189C92.5269 101.921 92.3161 101.888 92.3161 101.633L92.3115 88.7577ZM72.1651 91.058L84.5098 92.9986V106.528L72.4312 103.879L72.1651 91.058ZM91.6636 101.473L85.1615 106.286V92.9089L91.6636 89.3627V101.473Z" fill="#4B1010"/>
<path d="M118.182 73.4888V83.9848L112.423 88.2579V76.647L118.182 73.4888Z" fill="white"/>
<path d="M112.423 76.647L101.742 74.9755L101.927 86.0289L112.423 88.2579V76.647Z" fill="#FFE55D"/>
<path d="M108.19 71.9584C108.101 71.9476 102.797 74.1359 101.685 74.6681C101.595 74.711 101.414 74.7363 101.417 74.9809C101.512 86.3242 101.467 86.2629 101.86 86.3464L112.35 88.5746C112.558 88.616 112.065 88.9135 118.376 84.2463C118.581 84.093 118.508 84.2463 118.508 73.4888C118.508 73.1131 118.471 73.1859 108.19 71.9584ZM102.073 75.3558L112.098 76.9254V87.86L102.248 85.7675L102.073 75.3558ZM117.857 83.8215L112.748 87.6116V76.8395L117.857 74.0386V83.8215Z" fill="#4B1010"/>
<path d="M53.5687 29.2173L53.1201 28.4038L55.5622 27.0566L56.0115 27.8694L53.5687 29.2173ZM58.4506 26.5199L58.002 25.7064L60.4418 24.36L60.8904 25.1735L58.4506 26.5199ZM63.3301 23.8263L62.8808 23.0135L65.3206 21.6664L65.7699 22.4799L63.3301 23.8263ZM68.209 21.1327L67.7604 20.32L70.2002 18.9728L70.6488 19.7863L68.209 21.1327ZM73.0886 18.4399L72.6392 17.6264L73.6506 17.0682L74.0999 17.8809L73.0886 18.4399Z" fill="#FFE55D"/>
<path d="M108.073 23.5765L107.166 23.2185L107.506 22.3543L108.414 22.7124L108.073 23.5765ZM104.573 22.1964L101.982 21.1728L102.323 20.3087L104.914 21.3323L104.573 22.1964ZM99.39 20.1499L96.7976 19.1263L97.1388 18.2622L99.7312 19.2858L99.39 20.1499ZM94.2068 18.1012L91.6151 17.0776L91.9563 16.2134L94.548 17.2371L94.2068 18.1012ZM89.0228 16.0547L86.4312 15.0311L86.7693 14.167L89.3609 15.1906L89.0228 16.0547Z" fill="#FFE55D"/>
<path d="M97.553 45.0754L97.0117 44.3209L98.0415 43.581L98.5828 44.3355L97.553 45.0754ZM100.85 42.7092L100.308 41.9555L102.571 40.3292L103.114 41.0829L100.85 42.7092ZM105.374 39.4574L104.832 38.7029L107.095 37.0774L107.637 37.8319L105.374 39.4574ZM109.898 36.2056L109.356 35.4511L111.619 33.8256L112.161 34.5801L109.898 36.2056ZM114.422 32.9538L113.882 32.194L116.146 30.5685L116.688 31.323L114.422 32.9538Z" fill="#FFE55D"/>
<path d="M68.9443 95.1931L66.2967 94.3213L66.5865 93.4388L69.2341 94.3106L68.9443 95.1931ZM63.6537 93.4495L61.0061 92.5777L61.2967 91.6959L63.9435 92.5677L63.6537 93.4495ZM58.3631 91.7067L55.7163 90.8349L56.0069 89.9531L58.653 90.8249L58.3631 91.7067Z" fill="#FFE55D"/>
<path d="M92.2537 94.0269L91.7231 93.2601L94.0104 91.6683L94.5409 92.4305L92.2537 94.0269ZM96.8282 90.8433L96.2976 90.0812L98.5848 88.4886L99.1154 89.2554L96.8282 90.8433ZM101.403 87.659L100.872 86.8969L103.159 85.3051L103.69 86.0672L101.403 87.659Z" fill="#FFE55D"/>
<path d="M81.7708 89.0008H80.8423V86.2144H81.7708V89.0008ZM81.7708 83.4273H80.8423V80.6409H81.7708V83.4273ZM81.7708 77.8546H80.8423V75.0682H81.7708V77.8546ZM81.7708 72.2811H80.8423V69.4947H81.7708V72.2811Z" fill="#FFE55D"/>
<path d="M23.8738 44.1429L23.3984 43.3448L25.7922 41.9186L26.2676 42.7168L23.8738 44.1429ZM28.6614 41.2906L28.186 40.4924L30.5806 39.0663L31.056 39.8614L28.6614 41.2906ZM33.4497 38.4383L32.9744 37.6401L35.3682 36.214L35.8435 37.0122L33.4497 38.4383Z" fill="#FFE55D"/>
<path d="M118.808 75.9209L118.299 75.1442L120.63 73.6168L121.139 74.3943L118.808 75.9209ZM123.47 72.8669L122.961 72.0895L125.291 70.5629L125.801 71.3396L123.47 72.8669Z" fill="#FFE55D"/>
<path d="M20.7446 47.2022C21.3111 47.2022 21.8544 46.9771 22.2551 46.5765C22.6557 46.1759 22.8807 45.6326 22.8807 45.066C22.8807 44.4995 22.6557 43.9561 22.2551 43.5555C21.8544 43.1549 21.3111 42.9299 20.7446 42.9299C20.178 42.9299 19.6347 43.1549 19.2341 43.5555C18.8335 43.9561 18.6084 44.4995 18.6084 45.066C18.6084 45.6326 18.8335 46.1759 19.2341 46.5765C19.6347 46.9771 20.178 47.2022 20.7446 47.2022Z" fill="white"/>
<path d="M20.7448 47.5288C20.092 47.5288 19.4659 47.2695 19.0042 46.8078C18.5426 46.3462 18.2832 45.72 18.2832 45.0672C18.2832 44.4143 18.5426 43.7882 19.0042 43.3265C19.4659 42.8649 20.092 42.6055 20.7448 42.6055C21.3977 42.6055 22.0238 42.8649 22.4855 43.3265C22.9471 43.7882 23.2065 44.4143 23.2065 45.0672C23.2065 45.72 22.9471 46.3462 22.4855 46.8078C22.0238 47.2695 21.3977 47.5288 20.7448 47.5288ZM20.7448 43.2557C20.5067 43.2556 20.2709 43.3024 20.0508 43.3935C19.8308 43.4845 19.6308 43.618 19.4624 43.7863C19.2939 43.9546 19.1603 44.1545 19.069 44.3744C18.9778 44.5944 18.9308 44.8302 18.9307 45.0683C18.9306 45.3065 18.9774 45.5423 19.0685 45.7623C19.1595 45.9824 19.293 46.1823 19.4613 46.3508C19.6296 46.5193 19.8295 46.6529 20.0494 46.7441C20.2694 46.8354 20.5052 46.8824 20.7433 46.8825C21.2245 46.8827 21.686 46.6917 22.0263 46.3517C22.3667 46.0116 22.558 45.5502 22.5582 45.0691C22.5584 44.588 22.3675 44.1264 22.0274 43.7861C21.6873 43.4457 21.226 43.2544 20.7448 43.2542V43.2557Z" fill="#FFE55D"/>
<path d="M127.749 70.6094C128.316 70.6094 128.859 70.3843 129.26 69.9837C129.661 69.5831 129.886 69.0397 129.886 68.4732C129.886 67.9067 129.661 67.3633 129.26 66.9627C128.859 66.5621 128.316 66.337 127.749 66.337C127.183 66.337 126.64 66.5621 126.239 66.9627C125.838 67.3633 125.613 67.9067 125.613 68.4732C125.613 69.0397 125.838 69.5831 126.239 69.9837C126.64 70.3843 127.183 70.6094 127.749 70.6094Z" fill="white"/>
<path d="M127.749 70.9348C127.385 70.935 127.026 70.8544 126.696 70.6989C126.367 70.5433 126.077 70.3167 125.846 70.0352C125.615 69.7538 125.449 69.4247 125.36 69.0715C125.272 68.7183 125.263 68.3499 125.334 67.9928C125.428 67.515 125.663 67.076 126.007 66.7316C126.351 66.3872 126.79 66.1528 127.268 66.0583C127.625 65.9875 127.993 65.9966 128.346 66.0852C128.699 66.1737 129.028 66.3393 129.31 66.5702C129.591 66.8011 129.818 67.0914 129.974 67.4204C130.129 67.7494 130.21 68.1088 130.211 68.4728C130.21 69.1254 129.95 69.7512 129.489 70.2127C129.028 70.6743 128.402 70.934 127.749 70.9348ZM127.749 66.6617C127.391 66.6622 127.041 66.7688 126.744 66.9679C126.446 67.1671 126.214 67.4499 126.077 67.7807C125.94 68.1115 125.904 68.4756 125.973 68.8269C126.043 69.1782 126.215 69.501 126.467 69.7548C126.721 70.008 127.044 70.1804 127.395 70.2503C127.747 70.3201 128.111 70.2843 128.442 70.1473C128.774 70.0105 129.057 69.7782 129.256 69.4801C129.455 69.1819 129.561 68.8313 129.56 68.4728C129.56 67.9926 129.369 67.5323 129.029 67.1928C128.69 66.8533 128.229 66.6623 127.749 66.6617Z" fill="#FFE55D"/>
</svg>
