<svg width="156" height="155" viewBox="0 0 156 155" fill="none" xmlns="http://www.w3.org/2000/svg">
<path d="M28.7537 94.2678C27.7006 95.3957 28.9791 96.2982 29.5813 95.5463C31.2357 93.4402 33.886 93.2704 35.1467 94.4932C35.6809 95.0113 36.2746 94.7187 36.124 94.0416C35.6732 92.5416 31.9876 90.8077 28.7537 94.2678Z" fill="#3D9CFB"/>
<path d="M28.6785 88.9281C27.3993 86.8221 25.2184 83.3627 22.8885 83.8885C15.6687 85.468 8.89971 95.9974 10.7047 95.772C11.3809 95.6948 13.9386 91.7861 17.1725 88.8525C19.128 87.1232 21.9111 85.6942 23.1896 85.7691C24.468 85.9196 26.95 88.7799 28.0779 90.3571C29.1294 91.9367 29.9562 91.0342 28.6785 88.9281Z" fill="#3D9CFB"/>
<path d="M23.2629 75.2394C25.7449 76.6684 26.6474 76.443 28.9757 74.9391C32.9616 72.3815 38.7748 67.1326 39.6557 65.9136C40.8924 64.209 39.9614 53.4287 38.2298 51.5481C36.5754 49.818 25.1435 51.247 23.5616 52.6003C21.8316 54.0301 15.1383 66.4393 15.8902 68.6959C16.4924 70.3511 20.4049 73.585 23.2629 75.2394ZM35.8234 53.4287C37.8538 54.1806 36.8008 57.5651 34.8453 56.8888C32.6644 56.2118 33.5669 52.5262 35.8234 53.4287Z" fill="#3D9CFB"/>
<path d="M46.5026 89.6077C44.4963 89.7763 42.6347 90.7204 41.3132 92.2395C40.7118 92.9914 41.236 93.819 41.9902 93.2176C45.675 90.284 48.3832 90.5851 51.3161 93.0632C51.9175 93.5897 52.5335 92.8316 51.9175 91.9353C51.3074 91.0965 50.4826 90.4376 49.5297 90.028C48.5768 89.6184 47.5311 89.4732 46.5026 89.6077Z" fill="#3D9CFB"/>
<path d="M29.2801 102.766C26.121 101.187 21.4581 98.8553 18.9012 99.9099C16.5697 100.887 14.2383 112.244 15.5924 112.094C15.9676 112.094 16.1181 111.943 16.1938 111.567C16.4192 109.537 18.4496 101.715 19.728 101.264C21.533 100.662 27.9113 103.406 29.8815 104.347C30.6975 104.74 31.0835 103.594 29.2801 102.766Z" fill="#3D9CFB"/>
<path d="M47.4804 74.2621C45.9758 73.284 39.5079 72.0056 26.5721 79.5265C26.0436 79.2282 25.49 78.9766 24.9177 78.7745C20.3297 77.3455 13.106 83.8883 9.64975 87.9498C3.13246 95.3796 2.57507 99.3161 11.379 103.894C9.72463 109.684 8.36822 114.424 10.6271 117.281C11.8307 118.786 15.8173 119.99 18.2985 119.689C19.8032 119.538 19.4272 118.184 18.1488 118.109C15.1379 117.955 12.0561 116.454 11.9063 116.154C9.42432 114.198 15.3657 96.1478 18.2985 95.4707C19.9537 94.9442 25.6697 97.4262 33.6414 101.261C34.7693 101.787 36.6522 101.261 32.4379 99.0042C24.3156 94.6416 19.5021 92.7617 17.4717 93.3639C15.1403 94.1158 12.8837 99.3045 11.9063 102.01C9.12324 100.507 7.16775 98.927 6.49069 97.3475C6.03984 96.3693 7.39317 93.1354 11.0038 89.0739C15.3657 84.1855 18.6753 81.7035 21.3827 80.8767C23.0371 80.3502 25.6697 79.748 31.9121 86.2915C34.5439 89.0708 36.951 92.9849 39.2068 97.0464C39.5836 97.7234 41.1623 97.7234 40.5609 96.445C37.1764 89.4537 32.2873 83.3626 28.2266 80.5795C40.2598 73.8105 45.3744 75.3144 46.2769 75.9165C49.2105 77.872 54.7002 92.7633 55.3024 94.1923C55.6027 94.9442 57.1822 95.4707 56.8812 94.2695C55.8281 90.3569 49.2854 75.4649 47.4804 74.2621Z" fill="#3D9CFB"/>
<path d="M145.328 105.399C145.178 105.85 144.727 107.805 144.576 108.255C142.988 105.235 140.987 102.45 138.632 99.9815C138.231 99.5221 137.71 99.1836 137.128 99.0041C137.504 98.1773 138.331 95.9207 138.105 95.1688C137.88 94.5666 136.977 94.5666 136.451 95.8458C135.774 97.4246 134.871 100.358 129.531 106.45C123.664 113.069 114.34 117.355 107.195 117.43C105.991 117.43 107.118 119.01 108.323 119.01C113.06 118.933 118.175 117.205 122.836 114.271C123.588 117.581 127.499 122.62 129.981 124.35C126.109 126.455 121.872 127.808 117.496 128.336C116.37 128.435 117.647 129.765 118.775 129.765C130.682 128.652 143.806 120.21 146.152 108.48C146.832 105.474 145.628 104.496 145.328 105.399ZM143.147 111.641C141.608 116.343 136.754 121.117 132.467 122.997C130.06 124.05 125.999 117.582 124.796 114.725C124.646 114.369 124.624 113.972 124.734 113.602C124.844 113.232 125.078 112.911 125.397 112.694C129.455 109.787 132.926 106.138 135.625 101.939C135.722 101.786 135.852 101.655 136.005 101.558C136.159 101.461 136.332 101.4 136.512 101.378C136.692 101.356 136.875 101.375 137.047 101.433C137.219 101.491 137.376 101.587 137.506 101.713C139.612 103.819 142.245 108.482 142.771 109.159C143.598 109.835 143.391 110.895 143.147 111.641Z" fill="#3D9CFB"/>
<path d="M124.946 124.653C123.761 123.505 121.382 119.814 120.283 117.883C120.242 117.796 120.184 117.718 120.111 117.654C120.038 117.591 119.953 117.544 119.861 117.516C119.769 117.487 119.672 117.479 119.576 117.49C119.48 117.502 119.388 117.533 119.305 117.583C117.726 118.184 122.615 124.728 124.57 126.006C125.097 126.307 125.558 125.244 124.946 124.653Z" fill="#3D9CFB"/>
<path d="M43.6449 79.6023C45.6853 80.0084 46.8341 83.1574 47.9319 85.4695C48.1488 85.925 49.0605 85.6957 48.9849 85.1692C48.5333 82.9127 47.1043 80.8066 46.1285 79.3792C44.0981 76.6 38.457 78.7778 36.2005 80.0562C34.3206 81.1841 33.8543 82.583 35.5242 81.7863C37.1631 81.0004 41.0988 79.0943 43.6449 79.6023Z" fill="#3D9CFB"/>
<path d="M133.896 110.739C132.603 110.534 131.293 110.458 129.985 110.512C129.158 110.59 129.083 111.416 129.831 111.641C130.972 111.889 132.127 112.065 133.29 112.168C133.29 112.487 133.374 112.8 133.532 113.077C133.69 113.354 133.918 113.585 134.193 113.747C133.637 115.199 133.16 116.68 132.764 118.184C132.463 119.688 133.667 119.763 134.193 118.635C134.945 116.755 135.096 115.928 135.772 113.897C136.095 113.831 136.396 113.686 136.648 113.474C136.9 113.262 137.094 112.99 137.214 112.683C137.334 112.376 137.375 112.045 137.333 111.718C137.292 111.391 137.169 111.08 136.976 110.813C136.378 109.835 134.423 109.61 133.896 110.739Z" fill="#3D9CFB"/>
<path d="M109.603 40.3422C110.581 37.6348 108.625 33.4984 104.715 31.9188C104.715 28.5344 99.9762 19.3583 90.2011 24.0969C87.4929 16.8014 78.3176 13.2664 73.6546 18.9074C64.5542 11.7625 56.2845 15.5986 53.574 24.5485C43.7965 18.8356 33.0386 26.9548 35.6742 35.2284C29.5807 37.5599 29.0542 46.0582 34.0939 48.3147C36.3497 49.367 40.1858 48.3919 41.7653 43.2751C47.3307 46.509 61.3952 49.0651 68.0908 38.3867C73.8036 41.3204 82.9072 39.2892 87.1184 35.9804C92.0076 40.9436 98.0995 38.9912 101.483 37.2588C99.9762 42.747 108.776 42.598 109.603 40.3422Z" fill="#3D9CFB"/>
<path d="M68.6891 34.1006C66.6587 41.3961 58.9124 44.7806 53.1208 44.8555C47.7808 44.8555 42.291 42.9756 38.9066 38.5381C38.0041 37.3346 37.1016 40.042 40.1093 42.3735C39.7289 43.3706 39.2502 44.3275 38.6804 45.2299C37.9284 46.4335 40.185 46.1331 41.7645 43.4998C51.4633 49.6512 63.3607 46.5879 68.3131 39.514C73.4276 41.9211 82.5281 41.0186 86.4391 37.032C90.2744 40.3415 96.2914 41.1691 100.578 38.5366C100.879 39.2885 101.706 40.8681 102.759 40.8681C103.511 40.8681 101.857 39.8907 102.233 36.8065C102.458 35.1521 101.631 34.4751 100.578 35.9797C98.3218 39.2885 91.102 38.7589 87.7175 35.8253C89.2214 33.5687 88.2432 31.6881 87.7947 32.5906C84.9383 38.0062 76.5134 40.3377 69.2935 37.8557C70.3435 34.4758 69.0658 32.8214 68.6891 34.1006Z" fill="#001434"/>
<path d="M72.1496 88.8523C85.6867 89.0777 92.1546 83.5123 92.6849 79.2254C93.2871 74.7886 92.3846 71.4791 88.7747 70.6515C83.6602 69.4487 79.8241 74.4119 73.4319 74.4119C68.2424 74.4119 61.3229 71.6327 58.0133 73.5094C54.4034 75.5406 55.8324 80.354 56.66 81.9336C58.3862 85.1675 62.748 88.7018 72.1496 88.8523ZM57.9346 77.571C57.784 75.39 59.3636 74.4876 61.2434 74.9392C70.2689 76.819 75.7571 77.571 83.5807 73.5094C88.4698 70.9525 90.1999 73.4322 90.3496 74.8635C89.2217 76.6685 84.7093 78.248 86.7397 78.8494C87.2662 79.0038 89.5228 78.5491 91.0267 77.2706C90.4253 82.9835 82.0768 86.5965 74.1043 86.8219C61.5445 87.1979 58.16 81.482 57.9346 79.8275C60.4915 80.8806 62.2215 81.106 62.9742 80.1286C63.5756 79.3759 60.1881 79.0748 57.9346 77.571Z" fill="#001434"/>
<path d="M22.514 62.3037C23.3416 64.1086 24.9961 64.2592 26.425 64.4089C26.9449 66.1757 27.5724 67.909 28.3041 69.5991C27.7962 69.6741 27.2778 69.6242 26.7935 69.4538C26.3093 69.2834 25.8738 68.9975 25.5249 68.621C25.2238 68.3199 24.6155 68.3168 24.4719 68.621C24.1553 69.2911 25.6754 71.7052 28.8337 70.9525C29.1348 71.7052 29.2097 72.0804 29.5107 72.2309C30.1121 72.3081 30.8648 71.7801 30.3383 70.3511C32.2182 69.2232 33.272 66.8909 32.0676 64.9354C31.0061 63.2054 29.2799 63.1282 27.6247 63.0556C27.5475 62.9051 26.4976 59.5206 26.1209 58.3178C28.4523 57.7156 28.6029 59.4457 29.6559 58.9192C29.9562 58.7686 30.0419 58.4621 29.8103 58.0916C28.9395 56.7174 27.0311 56.5877 25.6739 56.9637C25.3728 56.3623 25.1474 55.6852 24.4703 55.6852C24.0943 55.6852 23.7184 55.9856 23.8681 56.3623C23.9672 56.7807 24.1189 57.1849 24.3198 57.5651C22.6615 58.5432 21.6085 60.4261 22.514 62.3037ZM30.712 65.763C31.0094 66.302 31.0814 66.9368 30.9123 67.5287C30.7432 68.1206 30.3468 68.6215 29.8095 68.9221C29.283 67.4931 28.5303 65.8341 28.0046 64.4846C28.9788 64.6351 30.1067 64.7857 30.7089 65.763H30.712ZM24.695 58.9941C25.0709 60.1227 25.5226 61.4012 25.8985 62.8294C25.4694 62.8501 25.0433 62.7479 24.6703 62.5349C24.2972 62.3218 23.9927 62.0067 23.7925 61.6266C23.5938 61.1538 23.5757 60.6246 23.7415 60.1393C23.9073 59.654 24.2455 59.2465 24.6919 58.9941H24.695Z" fill="#001434"/>
<path d="M35.8237 53.4285C33.4922 52.526 32.6646 56.2116 34.8456 56.8886C36.8011 57.5649 37.8541 54.2561 35.8237 53.4285Z" fill="#001434"/>
<path d="M140.74 92.914C140.545 92.7516 140.394 92.5421 140.302 92.3051C140.209 92.0682 140.179 91.8117 140.214 91.5599C141.493 82.9859 134.197 69.7491 123.819 73.8106C123.461 73.4635 123.084 73.1369 122.69 72.8325C123.153 72.2755 123.51 71.6384 123.743 70.9527C129.008 71.5541 127.954 63.4318 124.195 58.694C127.278 56.2868 127.353 48.2394 123.066 45.0804C124.27 37.7857 118.93 28.3842 110.205 27.7828C109.378 19.8859 100.127 14.0194 92.0799 16.2752C83.279 7.17559 56.5058 2.88786 47.2548 16.5763C38.2301 13.6427 25.2935 20.3368 24.9932 31.0167C21.3375 33.248 18.5316 36.6361 17.0207 40.6437C14.4638 47.1115 17.0346 55.0393 18.2243 54.4819C18.6813 54.268 18.6002 53.8048 18.4497 53.0529C17.3136 49.2663 17.4321 45.2139 18.7875 41.5002C20.1429 37.7864 22.6625 34.6103 25.9706 32.4457C26.208 32.2686 26.4047 32.0426 26.5475 31.7831C26.6902 31.5235 26.7757 31.2364 26.7982 30.9411C26.9865 20.6325 42.9679 13.6435 50.19 20.4124C51.0925 21.2393 51.619 19.2089 49.0621 17.3283C59.7413 4.31685 83.2072 10.4844 91.1041 17.3283C91.381 17.5632 91.7075 17.7326 92.059 17.8238C92.4106 17.915 92.7782 17.9256 93.1344 17.8548C100.129 16.2752 108.477 22.2923 108.327 28.6096C108.336 28.8415 108.422 29.0636 108.572 29.2408C108.722 29.418 108.927 29.5401 109.154 29.5877C119.383 30.7156 121.488 38.6874 121.112 44.9298C121.091 45.2818 121.172 45.6323 121.346 45.9393C121.519 46.2462 121.778 46.4964 122.09 46.6599C125.101 48.8408 124.798 55.7603 123.143 57.4147C108.552 40.6437 109.53 41.5461 80.499 45.9118C76.1372 46.5889 77.4882 49.5217 74.6317 50.1239C71.397 50.801 70.7316 50.6249 69.7426 50.2011C67.51 49.2407 68.5398 46.8166 63.3496 47.3447C58.5362 47.8712 40.1894 48.5482 36.3495 50.9546C36.9655 51.0165 37.5582 51.2228 38.0795 51.5568C39.6428 53.1201 40.5939 61.8291 39.8845 65.0939C39.8057 65.6598 39.509 66.1725 39.0577 66.5229C43.4195 73.894 62.5977 71.5618 65.4557 64.7179C65.5329 67.501 67.8628 69.7568 71.0211 70.2833C75.0826 70.9604 79.4136 68.2584 79.1441 66.5985C79.0584 66.0736 78.6176 65.8458 77.8657 66.5213C75.7596 68.402 71.773 68.6274 69.2918 67.1984C67.486 66.1454 67.0352 63.8139 68.0882 60.8062C69.0656 58.098 72.0741 53.6605 77.2635 57.045C79.7455 58.6245 81.2494 63.5128 85.0098 65.923C89.2219 68.6305 98.6234 67.1266 102.612 65.3216C105.996 63.817 107.35 53.4381 107.35 53.4381C112.54 54.7922 114.946 53.3609 117.954 55.8445C123.219 60.1322 124.873 67.352 121.264 71.639C106.75 60.3576 98.0266 69.834 105.47 82.7698C100.355 86.6059 97.5727 91.4163 96.6687 96.6088C86.6658 101.272 72 102.322 61.6968 99.0151C50.566 91.5691 38.0811 98.5635 32.5921 107.893C32.4132 108.131 32.1664 108.308 31.8843 108.402C31.6022 108.496 31.2982 108.502 31.0126 108.42C25.5977 107.216 22.2889 109.397 20.8599 112.631C20.1903 114.333 19.9835 116.182 20.2606 117.99C20.5376 119.797 21.2886 121.499 22.4371 122.923C21.3841 126.457 17.0215 133.451 15.5176 137.137C14.5395 139.468 16.5706 139.092 17.8491 136.837C20.2831 132.761 22.468 128.541 24.3918 124.201C34.0944 129.541 54.7757 139.694 67.2606 137.89C63.8013 144.884 62.1468 147.365 64.1016 146.768C66.0563 146.17 70.4197 136.464 72.5257 131.199C76.8127 120.82 77.5646 110.442 66.3581 102.017C76.9632 103.446 86.2891 102.92 96.4425 98.7835C95.2382 116.457 114.192 138.042 132.091 137.592C156.458 136.911 156.008 108.332 140.74 92.914ZM50.6393 66.4403C49.4357 66.6657 48.1573 65.5378 43.3438 60.9498C41.5389 59.2205 43.6449 58.3929 45.9764 60.4989C50.7898 64.7859 51.619 66.2936 50.6393 66.4403ZM55.2273 64.2594C52.7453 62.0028 47.2548 56.9639 45.2244 54.7073C43.1941 52.4507 45.3788 52.3759 47.481 54.1808C50.1128 56.5123 54.3249 60.2727 56.8069 62.9045C58.8372 65.1618 58.0853 66.9668 55.2273 64.2594ZM53.2719 54.3313C51.0909 52.2253 52.1439 51.0974 54.2492 52.7518C56.3552 54.4819 60.6422 57.4147 60.8684 59.5964C61.0946 61.7781 55.4528 56.5123 53.2719 54.3313ZM89.5245 62.3787C87.8786 62.7902 83.8835 58.694 82.5302 57.1893C81.4771 55.9858 81.4771 53.354 83.8835 55.6098C88.6954 59.9724 91.1867 61.9626 89.5245 62.3787ZM98.2482 61.0254C97.2709 61.2508 96.5189 60.871 93.3599 58.4678C90.7974 56.515 88.3374 54.4314 85.9895 52.2253C83.9591 50.1949 84.9365 48.4656 86.4411 49.6684C98.8488 59.6713 99.2248 60.8 98.2482 61.0254ZM100.279 56.1371C98.5493 55.9109 95.3154 52.978 93.2101 51.2479C91.1789 49.5179 91.7055 47.4118 94.0369 49.3673C96.3684 51.3228 102.985 56.4374 100.278 56.1371H100.279ZM66.7357 104.797C62.2233 108.031 59.3653 113.145 60.7912 113.443C62.2171 113.741 64.4768 108.855 68.3877 106.298C76.886 114.945 73.351 125.1 68.3106 135.855C58.4582 137.961 41.762 132.245 25.065 122.243C23.1852 121.114 21.0791 116.978 22.5838 113.364C25.2904 106.897 32.0594 112.839 34.2411 109.304C37.7753 103.359 46.5755 95.9163 55.4497 98.3983C51.0878 100.654 46.4249 107.724 49.3578 107.273C50.5613 107.122 52.6674 102.685 57.8568 99.2251C61.0753 100.633 64.067 102.51 66.7341 104.797H66.7357ZM126.904 135.332C119.383 133.376 110.132 127.359 102.46 115.477C100.987 112.882 99.8731 110.099 99.1507 107.204C97.7217 101.638 98.0228 96.5239 99.8277 92.914C103.137 92.8368 106.822 95.697 107.875 96.5995C108.928 97.502 109.681 96.073 109.004 95.2454C107.725 93.6659 103.513 91.485 100.881 91.109C102.536 87.574 104.942 85.0171 106.973 84.5655C109.154 84.1146 112.238 86.2199 115.171 88.1761C116.299 88.9281 116.805 87.2937 115.923 86.3712C114.302 84.6774 109.605 82.234 107.277 82.0835C105.467 79.4517 101.707 69.2272 109.983 69.0728C114.119 69.0728 119.76 72.2319 127.205 79.5274C127.582 79.9033 128.334 79.6046 128.259 79.0757C128.109 77.7973 127.055 76.5945 125.403 75.3153C134.804 73.21 138.64 84.6373 138.49 91.9374C138.473 92.4073 138.551 92.8758 138.719 93.3151C138.887 93.7543 139.141 94.1553 139.467 94.4943C160.743 116.634 146.832 140.296 126.902 135.332H126.904Z" fill="#001434"/>
</svg>
