<svg width="155" height="155" viewBox="0 0 155 155" fill="none" xmlns="http://www.w3.org/2000/svg">
<path d="M94.4074 64.1736C107.581 60.786 104.87 44.9035 100.352 42.6446C95.8333 40.3857 85.2205 36.9241 82.0599 37.6019C86.6518 39.1065 87.7813 42.8708 86.878 45.43C91.3194 49.9463 89.0605 53.936 84.0926 51.8284C84.5939 53.7341 84.9712 55.6702 85.2221 57.6247C85.617 59.8277 85.5141 62.0911 84.921 64.2493C84.921 64.2493 91.324 64.9263 94.4074 64.1736Z" fill="#3D9CFB"/>
<path d="M141.909 30.0739C141.909 29.0194 139.951 29.0194 137.166 29.095C133.252 29.2494 136.188 33.0091 135.961 33.4607C135.812 33.988 132.575 33.7618 132.123 34.7407C131.52 36.0207 133.402 38.2788 133.327 38.7305C133.25 39.4832 130.692 38.8849 129.864 39.1821C129.677 39.3125 129.537 39.4988 129.463 39.7141C129.389 39.9295 129.385 40.1628 129.452 40.3804C129.519 40.5981 129.653 40.7888 129.836 40.9251C130.018 41.0615 130.239 41.1364 130.467 41.1391C133.026 41.2163 134.983 41.0619 135.36 39.9348C135.737 38.8077 134.004 36.6229 134.23 36.0956C134.457 35.5683 137.919 35.5691 138.295 34.5902C138.747 33.4607 136.926 31.8735 137.317 31.0521C137.461 30.7479 141.909 31.3531 141.909 30.0739Z" fill="#3D9CFB"/>
<path d="M77.2471 10.5776C76.946 8.92167 76.7067 3.44659 74.4617 4.02869C74.338 4.07297 74.2243 4.14122 74.1271 4.22953C74.0299 4.31784 73.951 4.42447 73.8951 4.54331C73.8391 4.66215 73.8072 4.79086 73.8011 4.92206C73.795 5.05326 73.8148 5.18438 73.8595 5.3079C74.4192 6.7926 74.8228 8.33152 75.0638 9.8998C69.2128 10.2989 68.9773 9.52152 71.6014 15.4706C64.512 15.7717 64.9714 14.3056 66.1811 21.4151C66.2583 21.9416 66.7833 22.3932 67.2349 22.2427C69.1171 21.8667 67.1577 17.877 67.5368 17.4253C67.9158 16.9737 72.6675 17.6654 73.5584 16.898C74.2455 16.3067 72.2036 12.5323 72.3541 11.9302C72.5795 11.3303 77.6238 12.6095 77.2471 10.5776Z" fill="#3D9CFB"/>
<path d="M123.542 18.7069C122.638 17.352 118.498 20.8144 117.294 22.0944C116.089 23.3744 120.305 25.7074 120.227 26.2347C120.15 26.762 116.238 27.6645 116.238 29.0911C116.238 30.5178 120.528 33.0052 120.528 33.5325C120.528 33.9841 116.614 35.9412 117.518 37.1455C117.597 37.2749 117.702 37.3864 117.826 37.4728C117.951 37.5591 118.092 37.6183 118.241 37.6467C118.39 37.6751 118.543 37.6719 118.691 37.6375C118.838 37.603 118.977 37.538 119.098 37.4466C119.55 37.1455 122.937 34.7368 123.012 33.5325C123.089 32.2525 118.571 29.8438 118.571 29.3166C118.571 28.7893 122.712 27.5108 122.712 26.6068C122.712 25.7028 119.546 23.2949 119.399 22.8433C119.252 22.3917 124.445 20.0617 123.542 18.7069Z" fill="#3D9CFB"/>
<path d="M110.594 40.8377C110.594 40.8377 108.637 30.9012 105.626 28.2672C102.614 25.6331 90.5714 23.3742 86.2049 23.9007C81.8384 24.4272 77.3978 31.7296 77.3978 31.7296L83.1941 33.6118C85.1511 25.7828 94.8614 27.7399 99.6038 29.5464C104.346 31.3529 104.647 38.8051 104.647 39.1061L110.594 40.8377Z" fill="#3D9CFB"/>
<path d="M28.4685 31.9552C27.942 29.0988 28.6229 27.815 27.4896 27.2885C26.2852 26.7612 23.8017 28.7939 23.2744 28.4928C22.6722 28.1917 24.5536 23.826 23.3516 22.9976C22.1496 22.1693 18.6099 23.5249 18.0827 23.0748C17.5554 22.6248 18.9859 18.3324 17.4805 18.3324C15.9751 18.3324 16.2762 20.3643 16.05 21.117C15.8339 22.2176 15.8869 23.354 16.2044 24.4297C17.032 25.7089 21.0966 24.2753 21.6987 24.6551C22.3009 25.035 19.8174 29.0965 21.4733 30.4514C23.1293 31.8062 25.6885 29.3219 26.1401 29.5481C26.5161 29.7735 26.3663 33.0106 27.5706 33.1619C28.775 33.3132 28.619 32.5566 28.4685 31.9552Z" fill="#3D9CFB"/>
<path d="M120.681 89.2398C120.305 88.5628 123.316 85.7774 123.014 84.7992C122.712 83.8211 118.95 83.4436 118.649 82.6909C118.348 81.9382 119.326 80.4328 120.004 79.3041C120.681 78.2495 119.251 77.1209 118.197 78.6263C117.143 80.0568 115.713 83.0676 116.24 83.9709C116.767 84.8741 120.38 85.1752 120.531 85.7025C120.681 86.2298 117.745 88.4879 118.122 90.0682C118.499 91.6485 123.166 91.5736 123.391 92.1758C123.617 92.7779 121.434 95.9393 123.014 96.9182C123.256 96.995 123.516 96.9841 123.75 96.8877C123.984 96.7913 124.177 96.6154 124.294 96.3909C125.348 92.5525 126.478 91.9496 125.649 90.9714C124.748 89.8397 120.907 89.6166 120.681 89.2398Z" fill="#3D9CFB"/>
<path d="M102.313 100.607C100.583 102.865 81.3874 111.22 72.9563 111.446C83.9466 109.639 98.7004 99.1761 97.7971 97.0685C98.7004 94.8853 97.195 91.1241 95.3128 86.0782C102.841 79.8304 104.5 73.056 104.5 73.056L82.5184 66.7325C80.4571 67.9722 78.6983 69.6561 77.3702 71.6615C76.042 73.667 75.1779 75.9434 74.8407 78.325C73.2597 72.6036 47.2145 80.5831 43.6764 72.6036C39.9877 78.5481 34.342 74.1847 31.9334 72.3782C34.6431 79.9809 25.0833 94.1326 28.2447 97.1434C30.2017 99.7034 40.5899 104.145 42.0961 104.596C43.2247 104.897 44.5047 104.822 47.5904 104.519C48.3431 104.442 48.4188 98.7229 48.4188 92.8518C52.4085 92.8518 50.3758 110.241 55.3445 113.101C52.3336 120.854 52.3336 127.554 50.978 129.21C46.4618 134.855 45.0335 143.211 45.0335 143.211C68.369 146.674 74.3914 138.167 85.6828 121.682C85.9072 123.273 85.8095 124.892 85.3956 126.443C84.9817 127.995 84.26 129.448 83.2734 130.715C85.7053 134.914 87.8677 139.264 89.7474 143.738C95.3931 141.781 111.201 130.038 113.308 125.596C115.487 122.211 104.271 101.359 102.313 100.607Z" fill="#3D9CFB"/>
<path d="M25.2355 45.4297C23.6545 44.9032 23.2028 49.3438 22.4501 49.5693C21.6974 49.7947 18.8371 46.8603 17.7834 47.6122C16.7296 48.3641 17.4074 51.9787 16.5034 52.4303C15.5993 52.8819 11.5355 48.0646 10.5589 50.1722C9.58232 52.2798 9.85175 52.0752 8.67676 54.5379C8.5781 54.769 8.56975 55.0288 8.65338 55.2658C8.737 55.5028 8.90651 55.6998 9.12838 55.8179C10.9349 56.3444 11.236 52.1292 11.913 51.903C12.6665 51.7533 15.3006 55.2906 17.2576 54.6884C19.2147 54.0863 18.3871 50.1722 18.9143 49.8711C19.4416 49.57 22.9033 53.3336 23.7317 51.3765C24.7052 49.4195 26.8127 45.9563 25.2355 45.4297Z" fill="#3D9CFB"/>
<path d="M119.024 46.1822C103.292 44.8273 100.733 68.5387 114.358 71.3241C126.477 73.8833 134.757 47.537 119.024 46.1822Z" fill="#3D9CFB"/>
<path d="M150.038 50.7759C148.382 49.5708 147.253 53.2603 146.425 53.1846C145.598 53.109 144.017 49.8727 142.586 49.7222C141.155 49.5716 139.425 53.4857 138.672 53.5606C137.919 53.6355 137.166 49.5708 135.887 49.8727C134.607 50.1746 134.682 50.8508 132.5 52.2065C132.391 52.2754 132.297 52.3651 132.222 52.4705C132.148 52.576 132.096 52.695 132.068 52.8208C132.039 52.9466 132.037 53.0768 132.059 53.2037C132.081 53.3306 132.129 53.4519 132.198 53.5606C133.252 54.9162 135.058 52.5824 135.585 52.733C136.113 52.8835 137.016 56.2711 138.295 56.2711C139.574 56.2711 141.758 52.4319 142.435 52.5068C143.188 52.5068 144.769 55.97 146.2 55.97C146.877 55.97 148.005 55.5184 148.909 53.9373C149.436 52.9576 151.243 51.6777 150.038 50.7759Z" fill="#3D9CFB"/>
<path d="M142.967 70.4212C141.235 70.2707 139.503 73.5092 138.826 73.2776C138.149 73.1271 138.45 69.5141 137.02 69.213C135.59 68.9119 133.256 71.3955 132.804 71.1701C132.352 70.9446 131.449 68.2364 130.997 67.4814C130.546 66.7264 128.814 67.3309 129.267 68.3098C129.842 69.9724 130.654 71.544 131.675 72.9766C132.88 74.482 135.89 71.4711 136.267 71.6217C136.644 71.7722 137.02 75.4609 138.224 75.762C139.429 76.063 142.214 72.2995 142.666 72.5249C143.117 72.6755 142.886 77.7514 144.773 78.0201C145.374 78.1058 145.827 77.4179 145.751 76.8157C144.92 73.432 144.694 70.5717 142.967 70.4212Z" fill="#3D9CFB"/>
<path d="M46.1568 15.8463C46.1568 14.5671 42.1671 13.362 42.1671 12.5344C42.1671 12.0071 45.2551 11.7061 45.8557 10.2006C46.0811 9.37305 45.1022 8.92143 44.4252 8.2436C43.7481 7.56578 41.1881 5.07837 39.9089 6.58765C39.7816 6.81772 39.7497 7.08856 39.82 7.34193C39.8903 7.5953 40.0572 7.81096 40.2849 7.94252C41.7903 8.77011 43.3729 9.59848 43.3729 9.89956C43.3729 10.2755 40.061 11.2544 40.061 12.5344C40.061 13.8144 43.5991 15.3191 43.5235 15.8463C43.4463 16.298 39.6094 16.9758 40.5126 19.1582C41.1897 20.8899 43.674 23.3742 44.6521 22.6964C45.6303 22.0185 42.6202 19.3088 42.6951 18.4055C42.77 17.5023 46.1568 17.1263 46.1568 15.8463Z" fill="#3D9CFB"/>
<path d="M62.7187 54.7631C64.5252 55.366 65.2779 49.1931 69.4182 52.505C69.6089 52.6784 69.8599 52.7701 70.1175 52.7605C70.3751 52.7509 70.6186 52.6408 70.7959 52.4537C70.9732 52.2666 71.0701 52.0175 71.0658 51.7598C71.0615 51.5021 70.9564 51.2563 70.773 51.0752C70.6958 50.998 68.3644 48.6666 65.6546 49.7203C62.5682 50.849 61.5892 54.3871 62.7187 54.7631Z" fill="#001434"/>
<path d="M119.251 126.047C117.671 116.261 112.552 103.991 106.454 97.2918C107.659 93.5275 105.476 90.4418 103.443 86.3008C107.508 83.0645 110.293 79.2253 111.573 75.085C124.144 76.8167 132.572 58.8258 127.306 47.4588C125.123 42.9425 118.95 41.0604 113.605 40.0074C112.853 37.3725 110.143 27.964 107.738 26.0055C104.276 23.1452 91.1021 20.061 85.3807 20.8114C82.4471 21.1881 78.3801 24.1233 74.4661 28.716C72.3585 27.5865 69.1971 27.9633 66.1106 29.0919C66.1106 24.5 59.185 25.4033 56.6258 27.9633C53.2382 22.0188 46.6144 27.5116 46.0122 33.7587C41.1192 33.2322 34.0461 37.0714 36.9025 42.1149C32.9877 45.0486 30.5033 48.8893 32.4612 52.7285C28.1703 55.8899 27.8693 62.8904 33.2139 63.4926C33.1367 65.902 33.6655 68.1601 35.5476 69.5142C34.9085 70.292 34.492 71.2284 34.3425 72.224C32.4612 71.2451 29.1492 69.5891 27.7187 68.6859C27.6415 63.6424 22.5995 61.5348 18.9117 64.9223C6.03921 58.0723 -5.55325 86.4513 18.7573 95.0306C17.5522 97.2895 18.9827 98.2676 22.2954 99.9236C26.3178 101.962 30.4969 103.676 34.7926 105.048C38.7816 106.327 45.2556 105.199 47.6643 104.971C47.9654 108.132 48.4927 110.993 49.4708 112.499C50.073 122.585 40.8143 134.103 39.9859 142.308C39.6848 145.473 40.0631 147.878 40.5132 148.706C41.4164 150.362 41.7924 150.739 45.7821 150.664C57.5252 150.438 74.839 150.362 81.3122 150.061C85.6787 149.835 86.0547 146.674 84.4003 143.962C83.497 142.532 80.0346 141.102 77.9262 139.446C79.8832 136.811 81.7654 134.402 83.4214 132.069C87.486 136.134 87.4111 147.35 93.7346 148.027C97.4233 148.63 129.865 137.79 130.393 132.37C130.919 127.631 124.897 127.706 119.251 126.047ZM116.917 42.494C126.327 45.4276 128.134 54.3875 125.649 61.8397C121.886 73.2816 113.452 75.0133 103.82 71.6257C98.3589 69.6957 96.8002 62.9792 97.4958 56.8271C98.5349 47.6248 105.28 38.8409 116.917 42.494ZM105.028 38.0526C100.333 36.8452 97.4626 36.3681 95.1667 35.7945C95.2915 34.5832 95.6493 33.4075 96.2205 32.3321C96.3004 32.2268 96.3564 32.1054 96.3846 31.9763C96.4128 31.8472 96.4126 31.7135 96.384 31.5845C96.3553 31.4555 96.2989 31.3343 96.2187 31.2293C96.1385 31.1243 96.0363 31.038 95.9194 30.9764C93.9623 29.9983 93.5856 34.0644 93.2853 35.4178C91.8548 35.1175 90.5755 34.8164 89.2199 34.5145C89.4363 33.2659 89.816 32.0511 90.3493 30.9015C90.412 30.7849 90.448 30.6559 90.4547 30.5237C90.4614 30.3916 90.4388 30.2595 90.3883 30.1372C90.3379 30.0148 90.2609 29.9052 90.163 29.8161C90.0651 29.7271 89.9487 29.6609 89.8221 29.6223C88.5429 29.3205 87.7901 32.5559 87.2629 34.0629C85.0047 33.5364 83.3488 33.2353 82.671 33.0848C82.3738 32.6368 81.9901 32.2528 81.5423 31.9553C84.7747 21.1912 106.683 27.8907 105.024 38.0526H105.028ZM106.684 40.3864C104.214 41.2312 102.026 42.742 100.361 44.7521L95.7696 43.6983C96.5028 41.9559 97.131 40.1712 97.651 38.3537C100.584 39.0315 103.672 39.7086 106.683 40.3864H106.684ZM90.4999 36.7734C92.081 37.1494 93.8875 37.5261 95.694 37.9021C95.1782 39.6966 94.5496 41.4567 93.8118 43.1718L88.6177 41.9675C89.3523 40.2773 89.9797 38.5425 90.496 36.7734H90.4999ZM87.2629 40.0853C86.3608 38.5657 84.946 37.4179 83.2731 36.8483C83.4953 36.3255 83.5981 35.7598 83.5742 35.1923C84.7785 35.4178 86.5078 35.8694 88.6177 36.3218C88.2379 37.6018 87.7106 38.9559 87.259 40.0853H87.2629ZM86.1342 42.0424C87.2629 44.0751 84.7037 45.8059 82.5961 44.8278C81.6043 42.7508 80.2537 40.8651 78.6063 39.2577C79.6979 39.2739 80.7788 39.0421 81.7677 38.5799C83.7209 38.6556 85.4525 40.3864 86.1303 42.0424H86.1342ZM86.1342 46.4837C89.5966 48.5913 88.3923 53.6348 85.0047 51.2262C84.6072 49.7952 84.1296 48.3877 83.5742 47.0102C84.4583 47.0713 85.3423 46.8892 86.1303 46.4837H86.1342ZM89.0678 52.8821C89.5004 52.4719 89.8127 51.9514 89.9711 51.3767C91.3267 51.6021 92.6808 51.9032 92.7565 52.3548C93.3586 54.3119 91.864 58.165 91.1754 58.6783C90.6566 59.0644 88.3908 58.5278 86.2824 57.8508C86.1117 56.457 85.8603 55.0744 85.5297 53.7097C86.1393 53.8995 86.7886 53.9228 87.4103 53.7773C88.032 53.6318 88.6034 53.3227 89.0655 52.8821H89.0678ZM86.5063 59.8858C88.3885 60.3374 90.7215 61.1658 92.3736 60.2625C93.8041 59.4341 94.7073 54.0139 94.783 52.3579C94.8602 50.4765 92.0732 49.7238 90.1911 49.4243C89.9639 47.7603 89.1005 46.2491 87.7824 45.2084C88.0784 44.8133 88.2605 44.3447 88.3089 43.8535C91.9305 44.6713 95.5439 45.5247 99.1487 46.4135C94.3314 52.5895 94.6324 66.813 98.9233 70.3511C92.7472 68.77 87.0289 67.0384 84.4705 66.2108C85.7678 64.3542 86.4771 62.1505 86.5063 59.8858ZM85.6069 22.6966C90.7253 22.0188 103.447 24.9548 106.458 27.5147C107.889 28.7191 110.071 34.9661 111.351 39.558C109.921 39.257 108.417 38.8802 106.985 38.5791C109.168 26.3096 84.3269 18.3302 79.8107 31.127C78.671 30.7453 77.4516 30.6673 76.2726 30.9008C76.1676 30.6252 76.0147 30.3704 75.8209 30.1481C80.1828 24.9548 83.7209 22.9221 85.6069 22.6966ZM38.4805 43.3972C39.8354 43.9994 44.3524 44.5267 43.9 42.3434C43.5997 40.7624 38.5562 43.6983 38.1794 40.3108C37.7278 36.6978 42.244 35.9451 46.1573 35.6447C46.5495 35.613 46.9213 35.4573 47.2191 35.2001C47.5168 34.9429 47.7249 34.5976 47.8133 34.2142C48.6409 30.6012 50.6697 27.2893 53.0074 27.3642C55.6415 27.287 54.3622 30.6769 56.0182 31.1285C56.237 31.1717 56.464 31.1345 56.6576 31.0237C56.8512 30.913 56.9983 30.7361 57.072 30.5256C57.7498 28.8696 59.9284 27.8915 61.6639 27.7409C63.7715 27.5865 64.7921 28.3678 63.6209 30.3001C63.5151 30.4814 63.4708 30.692 63.4947 30.9006C63.5186 31.1091 63.6095 31.3043 63.7536 31.4568C63.8977 31.6094 64.0874 31.7112 64.2943 31.7469C64.5011 31.7826 64.7139 31.7504 64.9009 31.655C68.815 29.4725 76.867 28.6442 73.7828 33.3866C73.618 33.5869 73.5385 33.8441 73.5615 34.1025C73.5846 34.3609 73.7083 34.5999 73.9061 34.7678C74.1038 34.9358 74.3597 35.0192 74.6185 35.0001C74.8772 34.9811 75.1181 34.861 75.289 34.6658C75.7884 34.0931 76.1724 33.4294 76.42 32.7111C82.8184 31.6573 85.9806 40.3138 71.1511 36.0238C70.9249 34.8195 68.7424 31.8079 67.3875 33.4638C67.2781 33.6975 67.2558 33.9626 67.3248 34.2112C67.3937 34.4598 67.5493 34.6756 67.7635 34.8195C72.807 38.6579 64.6755 40.0135 61.8963 38.2063C61.6701 36.5503 56.9554 32.8022 56.1 34.5933C56.0619 34.7168 56.0494 34.8467 56.0631 34.9753C56.0769 35.1038 56.1166 35.2281 56.18 35.3408C56.2433 35.4535 56.3289 35.5521 56.4316 35.6306C56.5342 35.7091 56.6518 35.7659 56.7771 35.7976C61.0231 37.1255 61.2184 40.7655 58.6592 42.196C55.3473 44.0781 54.4433 39.7873 53.239 40.6149C52.5619 41.0665 53.0135 42.5727 54.143 43.3254C56.6265 44.9814 61.6701 44.8309 62.046 40.3918C64.9796 41.3707 69.8749 41.6718 71.0785 38.1337C79.4339 38.0565 83.9108 51.3196 84.5531 59.3639C85.1916 67.3611 74.9926 68.9244 74.3155 76.0007C68.6698 70.6553 47.3671 82.1728 42.3236 68.2466C43.0143 66.846 43.3257 65.2888 43.2268 63.7304C46.7649 62.902 46.9903 57.1058 46.6144 55.2244C48.1198 54.0193 48.722 51.8368 48.7968 50.1809C53.1633 51.9117 54.8818 45.037 52.9371 44.5352C52.4067 44.3978 51.7336 44.6896 51.8833 45.2122C52.1844 52.6644 44.13 46.1911 50.0012 40.696C51.0557 39.7171 49.3998 38.5128 48.1198 39.7927C46.4638 41.4487 44.6566 44.9868 46.3882 47.7722C47.2922 49.0514 47.2165 50.9374 45.9365 53.1917C43.9795 55.9014 41.0436 53.3422 40.893 51.0841C40.7425 48.826 43.0763 47.0944 41.4203 46.266C39.6887 45.3628 38.8611 49.4312 38.936 51.4601C32.6843 56.7205 31.8567 46.8605 38.4805 43.3972ZM36.0718 59.8086C36.1727 59.5777 36.1822 59.3171 36.0984 59.0795C36.0146 58.8419 35.8437 58.645 35.6202 58.5286C33.9643 58.0013 33.8137 60.5613 33.437 61.6166C29.6734 61.0144 30.8778 56.3469 33.8137 54.1644C35.6202 55.4436 38.0289 54.6909 39.4594 53.3361C39.8928 54.3172 40.66 55.1128 41.6248 55.5814C42.5896 56.05 43.6893 56.1612 44.7284 55.8953C46.0832 62.9715 36.6586 63.8107 39.3089 57.1753C39.5212 56.6426 39.3861 55.9709 38.8572 55.8953C37.7278 55.6675 37.2793 56.7205 37.1249 57.7751C36.7489 60.1838 38.5554 64.023 41.2651 63.7196C40.6637 73.3565 31.9316 66.9589 36.0718 59.8086ZM7.31688 83.2181C6.51406 81.476 6.15191 79.5632 6.26232 77.6481C7.31688 78.0997 8.3699 78.8524 9.49935 79.0022C9.6942 79.0544 9.90159 79.0311 10.0799 78.9368C10.2583 78.8426 10.3945 78.6844 10.4612 78.494C10.5278 78.3037 10.5201 78.0951 10.4395 77.9102C10.359 77.7252 10.2115 77.5776 10.0266 77.4968C8.83884 76.9058 7.68308 76.2526 6.56418 75.5398C7.02436 73.7314 7.70687 71.987 8.5961 70.3465C11.908 72.3035 12.5858 73.2801 13.2637 72.0773C13.7153 71.3246 11.0055 69.6686 9.64989 68.6897C14.468 62.2913 16.801 68.8403 20.1137 66.4316C22.5972 64.2491 25.3826 65.6789 25.9099 69.0665C27.4153 78.5506 22.8219 88.6376 19.6613 93.4557C18.0053 92.7779 10.1772 89.466 7.31688 83.2181ZM49.3998 91.4979C49.3998 89.3155 47.6682 89.6165 47.442 91.5751C47.066 94.5088 47.3648 100.081 47.442 103.242C36.4524 104.447 33.8176 103.996 21.0957 97.3714C20.9402 97.3107 20.8011 97.2145 20.6895 97.0905C20.578 96.9665 20.497 96.818 20.4531 96.657C20.4092 96.4961 20.4036 96.3271 20.4367 96.1635C20.4699 96 20.5409 95.8465 20.644 95.7154C23.7321 91.6508 28.6235 80.811 27.9465 71.3261C30.0533 72.5305 33.1398 74.0359 34.3441 74.6381C37.5093 88.941 63.2496 79.9827 70.8531 85.4778C71.9069 86.1556 74.0145 85.9294 71.8312 84.1978C69.648 82.4662 67.5412 81.4881 57.4541 81.7143C45.9365 81.9397 42.6995 81.187 38.8611 78.2511C36.3011 76.3697 35.0968 72.5305 37.6568 70.5734C38.8165 70.7582 40.0027 70.4886 40.9687 69.8207C45.1838 79.0076 55.8399 77.9693 65.659 76.5202C74.5911 75.2016 72.8101 79.8321 75.0682 79.3805C77.7031 78.854 73.0355 75.5413 82.972 67.9386C83.7248 68.1648 85.2309 68.6164 87.188 69.2186C83.1226 72.4556 78.1076 79.8468 81.0891 81.2619C81.5454 81.478 81.9167 80.9608 82.0673 80.5092C83.121 75.0889 86.2824 73.2075 89.294 69.8956C95.0902 71.5516 103.219 73.8097 109.768 75.014C108.326 78.8898 105.822 82.2812 102.542 84.8C102.166 84.0473 97.9505 78.1754 95.3157 75.7675C93.8859 74.4875 92.531 75.617 93.9608 77.198C98.3265 82.0902 108.196 93.1516 103.671 98.351C98.4215 104.382 76.9489 113.631 51.2796 111.901C49.091 109.49 49.3998 98.4236 49.3998 91.4979ZM81.9939 144.417C84.252 145.621 83.3511 148.205 82.0711 148.332C74.4807 149.078 49.7781 149.385 43.5302 149.084C41.7986 149.007 41.4975 146.374 41.7986 144.116C50.5308 145.169 67.5435 145.471 76.5011 141.028C79.5853 142.987 81.1617 143.965 81.9901 144.421L81.9939 144.417ZM90.3493 142.385C88.6934 138.621 87.188 133.502 84.5531 130.566C87.1123 126.878 86.284 120.178 85.8323 114.081C85.8079 113.957 85.7593 113.839 85.6893 113.735C85.6192 113.63 85.5292 113.54 85.4244 113.47C85.3195 113.4 85.2018 113.351 85.0782 113.327C84.9545 113.303 84.8272 113.303 84.7037 113.328C82.8215 113.482 85.908 124.544 83.2731 128.537C81.0907 131.848 78.8325 135.085 75.8209 139.15C65.2074 144.269 46.2376 142.613 41.8719 142.161C43.7541 131.848 50.9816 124.923 51.2063 113.933C74.8428 115.363 100.135 106.33 105.254 99.1037C111.502 106.255 115.416 116.643 117.22 126.278C108.562 129.212 98.9271 138.47 90.3455 142.385H90.3493ZM127.836 132.674C127.083 133.577 123.018 136.137 117.975 138.395C109.243 142.385 97.7259 146.299 94.2627 146.299C92.3056 146.299 91.4062 145.32 91.1013 144.116C99.7578 140.277 109.769 130.642 118.43 127.856C120.99 128.76 124 128.91 126.033 129.663C127.604 130.265 128.886 131.469 127.836 132.674Z" fill="#001434"/>
<path d="M110.895 63.1943C118.197 65.3019 121.133 52.8061 113.304 52.0534C105.927 51.3764 104.12 61.2372 110.895 63.1943ZM115.712 55.8177C117.896 62.0656 108.486 63.7964 108.637 57.097C108.713 54.0105 114.659 52.6556 115.715 55.8177H115.712Z" fill="#001434"/>
<path d="M53.4602 51.3016C54.514 52.1292 55.9437 49.0427 60.4607 48.5911C60.7175 48.558 60.951 48.4251 61.1105 48.2211C61.2701 48.0172 61.3429 47.7586 61.3133 47.5014C61.2836 47.2442 61.1539 47.009 60.9522 46.8467C60.7505 46.6843 60.4929 46.608 60.2353 46.6341C55.9437 47.3868 51.9548 50.0965 53.4602 51.3016Z" fill="#001434"/>
<path d="M68.59 45.9562C69.4184 46.0334 70.6227 44.677 73.8598 44.6013C73.9933 44.607 74.1267 44.5861 74.2522 44.5399C74.3777 44.4937 74.4927 44.4231 74.5907 44.3321C74.6887 44.2412 74.7677 44.1317 74.8231 44.01C74.8785 43.8883 74.9093 43.7568 74.9135 43.6232C74.6881 41.8916 70.6227 42.7192 68.59 43.9243C67.3872 44.677 66.9341 45.8056 68.59 45.9562Z" fill="#001434"/>
<path d="M64.2987 57.399C64.6746 58.452 66.6317 57.2446 68.8898 57.0223C70.2455 56.8679 69.9444 55.2158 68.6644 55.2158C67.0092 55.2158 63.7722 55.9685 64.2987 57.399Z" fill="#001434"/>
<path d="M58.4319 64.7006C59.7868 72.0023 78.7565 66.4315 75.7457 60.0331C73.9392 56.2696 69.9495 59.2804 67.1641 59.1298C61.0629 58.8288 57.4499 59.5066 58.4319 64.7006ZM70.8527 60.4091C73.2614 59.4309 73.5625 59.9574 73.8636 60.4863C75.8206 64.476 62.0449 68.1646 60.4646 64.6265C61.4435 64.6265 63.8151 64.8581 63.5526 63.2717C63.4928 63.0276 63.3436 62.8148 63.1345 62.6754C62.9253 62.5361 62.6715 62.4802 62.4232 62.519C61.7037 62.6543 60.968 62.6804 60.2407 62.5962C60.2353 60.2392 67.862 61.6543 70.8489 60.4091H70.8527Z" fill="#001434"/>
<path d="M70.698 48.8922C71.6012 50.8492 76.1175 46.333 79.4294 48.5162C81.0861 49.5693 81.161 46.4835 79.3522 46.333C80.03 44.2254 77.2446 43.6981 77.47 45.9563C76.6447 45.9563 69.5685 46.4835 70.698 48.8922Z" fill="#001434"/>
<path d="M60.2352 53.0323C59.4068 50.4731 53.0084 54.4629 51.9546 55.065C49.847 52.7313 47.9649 54.9878 50.6746 56.5705C50.1481 57.4737 49.6965 58.9791 51.0514 59.1297C52.2557 59.0525 51.9546 57.5486 52.8579 56.7959C53.6854 55.9683 56.697 54.4629 59.3311 54.0861C59.9333 54.0861 60.4606 53.5589 60.2352 53.0323Z" fill="#001434"/>
<path d="M123.617 61.3879C124.37 58.6781 124.896 54.6884 123.316 50.9249C118.573 39.0313 99.905 44.0748 99.529 55.5168C98.8512 74.3352 120.305 73.8836 123.617 61.3879ZM112.025 46.0319C127.531 45.8057 124.52 70.6466 109.841 68.0125C97.4184 65.83 98.9269 46.2573 112.025 46.0319Z" fill="#001434"/>
<path d="M71.6764 68.3886C69.9456 69.1413 67.6118 69.5181 66.1813 69.9697C64.902 70.4213 65.3537 71.7006 66.1813 71.7762C68.0955 71.8593 69.9959 71.4166 71.6764 70.4962C72.8059 69.8948 72.9564 67.7865 71.6764 68.3886Z" fill="#001434"/>
</svg>
