<svg width="156" height="155" viewBox="0 0 156 155" fill="none" xmlns="http://www.w3.org/2000/svg">
<path d="M10.7747 16.9931C13.0305 17.044 8.96894 21.2059 11.3761 20.9805C13.4072 20.8261 16.7801 17.7103 18.1473 17.2934C19.4914 16.8835 22.8875 17.745 24.7681 16.7669C27.2508 15.4877 27.4763 7.73825 25.5208 6.3857C24.3921 5.63376 20.4796 5.40756 17.0943 5.40756C11.3043 5.48476 9.11948 6.08461 8.21623 6.91298C6.48539 8.4925 6.78724 15.4143 7.9908 16.3168C8.82199 16.8355 9.79815 17.0726 10.7747 16.9931Z" fill="#3D9CFB"/>
<path d="M31.0878 60.9304C28.1534 58.7487 7.99087 59.4227 6.41366 61.758C4.30685 64.7688 3.856 75.15 5.81227 76.5805C6.71542 77.2186 7.79448 77.5604 8.9003 77.5587C12.4369 77.5587 7.62108 82.6747 10.029 83.0515C11.8347 83.3518 17.1762 78.6124 19.283 77.9354C21.3898 77.3332 27.2579 78.5368 30.1923 77.0321C34.0222 75.0751 34.0222 63.1121 31.0878 60.9304Z" fill="#3D9CFB"/>
<path d="M19.2006 48.5917C23.1795 50.9239 32.7285 47.5109 35.2267 51.0744C38.3109 55.664 39.4395 57.5454 41.6961 56.8645C43.728 56.2623 43.5019 51.9738 43.728 49.867C43.8824 47.9108 48.5292 49.2239 50.8753 48.438C52.2966 47.9609 53.2075 43.3968 53.057 38.4313C52.8316 29.4027 52.004 26.469 49.8215 25.2647C46.2857 23.4598 22.4631 23.0915 18.2232 26.168C14.5693 28.8229 13.8591 45.4326 19.2006 48.5917ZM19.355 27.6765C20.8596 26.4729 25.6747 25.8707 32.5208 25.5696C43.3544 25.0431 47.4206 26.2475 49.1475 26.6983C51.7809 27.3005 52.2356 45.5824 49.9759 46.7859C47.944 47.9146 42.9869 45.8997 42.2265 49.7196C41.9555 51.0799 42.2265 54.9862 41.0978 55.1368C39.8943 55.2912 38.1642 51.2999 35.6806 49.2695C34.3671 48.2031 32.7021 47.6667 31.0131 47.7656C26.3486 47.8428 22.0578 48.2165 20.2544 47.1635C18.6749 46.2602 17.5462 43.7774 17.2436 39.4889C16.7935 33.4696 17.6211 29.0306 19.3519 27.6765H19.355Z" fill="#3D9CFB"/>
<path d="M127.013 7.66353C126.186 7.43811 121.295 6.98648 114.148 7.06137C106.474 7.21577 104.743 7.73842 103.614 8.64167C101.583 10.222 101.884 15.8646 102.111 19.0244C102.336 23.0118 103.239 24.4416 105.121 25.1935C107.604 26.1716 111.441 25.6451 115.053 26.0211C121.673 30.9118 122.802 32.0428 124.607 31.7394C127.842 31.2128 125.36 27.5257 124.984 25.4946C126.112 25.1935 128.068 25.649 129.122 24.8924C130.475 23.9151 130.398 21.1312 130.475 17.8957C130.552 13.4567 130.552 8.64167 127.013 7.66353ZM127.766 23.1623C126.411 23.7637 124.004 23.1623 123.327 24.0648C122.424 25.1186 124.982 29.7074 124.53 30.0865C123.477 30.7635 117.834 24.2964 114.825 24.142C111.59 23.9876 107.452 24.2964 105.721 23.3893C104.593 22.7879 103.916 21.8098 103.69 18.7249C103.103 8.72968 104.125 9.02535 115.051 8.86864C123.176 8.64321 125.885 9.32026 126.785 9.697C128.14 10.2235 128.779 10.5964 128.892 16.9191C128.948 19.9261 128.443 22.9362 127.766 23.1623Z" fill="#3D9CFB"/>
<path d="M47.562 121.724C47.3358 120.746 49.9699 115.779 49.0666 114.803C48.1634 113.826 44.1767 117.587 43.424 117.659C42.5964 117.736 39.8882 113.747 38.4585 114.571C37.0287 115.396 38.3041 119.988 38.0825 121.192C37.8609 122.396 32.4399 126.158 32.9664 127.587C33.3424 128.64 38.4585 127.587 38.7565 128.114C39.3579 129.317 39.3579 134.66 40.4865 134.735C41.9919 134.812 43.343 129.167 44.1736 128.64C45.0043 128.114 52.675 130.07 53.5026 128.718C54.7123 126.987 47.8662 122.7 47.562 121.724Z" fill="#3D9CFB"/>
<path d="M122.725 130.824C114.224 128.868 112.041 132.931 108.129 137.295C105.721 140.003 105.647 141.207 109.108 141.583C110.386 141.737 111.063 140.154 112.041 140.229C113.305 140.363 114.561 140.564 115.803 140.831C116.48 141.056 116.029 142.561 116.932 143.012C117.834 143.464 120.995 143.388 121.822 143.163C122.424 142.937 123.477 136.843 123.929 133.457C124.23 132.028 124.155 131.201 122.725 130.824Z" fill="#3D9CFB"/>
<path d="M83.1508 96.1408C80.668 97.2695 80.5932 108.705 82.9254 110.134C86.3863 112.693 102.411 114.498 104.819 112.016C106.549 109.984 106.173 99.6017 104.367 97.7211C102.185 96.2157 86.3106 95.0121 83.1508 96.1408Z" fill="#3D9CFB"/>
<path d="M150.412 59.2006C148.005 52.2788 146.575 47.4661 141.008 48.8927C140.099 49.1115 139.283 49.612 138.676 50.3225C136.268 45.9591 132.054 46.1097 129.422 47.9146C125.434 43.5512 106.023 34.7488 99.9309 35.6513C96.6954 31.4384 88.042 36.404 88.946 27.0743C89.0232 26.4729 88.946 25.7958 88.3438 26.0213C87.2908 26.3223 86.9897 32.1155 88.7954 33.695C90.9023 35.5007 96.7703 34.9742 98.4255 36.783C94.438 39.8711 80.2184 40.921 77.1343 38.5888C78.2622 36.8579 83.7542 36.106 84.6575 34.2254C85.861 31.6669 84.2815 27.0025 83.0023 26.7771C82.4758 26.6999 82.6263 27.3784 82.8479 27.9057C83.6006 29.7107 83.5713 32.1024 82.9251 33.3221C82.6881 33.7676 81.1194 34.3751 80.0687 34.7519C77.2122 35.8049 75.7045 36.8579 75.3286 37.9117C57.8719 44.6776 44.7053 59.9525 51.5523 70.7112C50.7441 70.6621 49.9343 70.7768 49.1715 71.0484C48.4087 71.3199 47.7086 71.7428 47.1132 72.2915C39.8154 74.1721 34.0223 79.2126 32.6682 84.7803C31.4639 89.6709 35.0753 95.163 40.342 95.163C40.7697 95.9124 41.3614 96.5553 42.0728 97.0436C40.8692 96.8892 22.7371 94.8619 16.6429 94.7114C10.8528 94.557 8.2913 94.9376 7.31394 97.5678C5.73364 102.007 8.59238 128.941 11.8279 134.433C14.8387 139.474 22.6622 141.205 30.1105 143.312C37.4368 145.413 44.9893 146.626 52.6053 146.923C54.6897 147.028 56.7715 146.668 58.6995 145.869C80.7434 135.788 87.5903 133.23 89.471 128.791C91.1261 124.803 85.5584 121.869 65.9247 117.731C63.2158 117.13 62.2376 118.408 63.8179 118.785C72.019 120.515 88.1192 124.352 87.7424 127.286C87.2916 131.123 75.5548 135.863 61.1854 142.559C62.0886 139.174 61.2147 133.519 60.584 124.803C60.3524 121.56 59.9818 117.053 59.6059 112.84C68.5665 116.098 70.7737 105.661 69.1602 96.2878C68.5588 93.0531 66.9785 92.9782 67.2796 94.5577C68.4083 100.051 67.9567 109.38 64.5714 111.035C62.6151 112.013 60.2829 111.035 59.3797 110.583C58.928 106.295 58.2741 102.515 57.1223 101.028C56.4285 100.246 55.5489 99.6507 54.5646 99.2979C57.1174 98.5375 59.4604 97.1986 61.4116 95.3853C62.3897 97.4165 63.3632 99.0084 63.9692 99.2222C64.6424 99.4608 65.399 99.3766 64.8717 98.0187C64.4209 96.8151 64.0441 96.138 62.9911 93.5796C64.4046 91.7938 65.4538 89.7479 66.0791 87.558C69.3571 77.2401 60.4358 66.7176 55.6964 72.8898C44.0345 62.6576 57.8032 47.0839 75.5586 39.7861C76.9884 41.1402 80.5242 41.7424 84.3595 41.6675C88.272 41.5903 97.9769 41.1403 99.7827 37.5296C110.241 38.6582 121.225 44.4506 127.771 49.2641C127.094 50.0925 126.722 51.128 126.717 52.1977C123.933 51.445 120.022 53.2507 119.871 56.7124C119.794 58.5181 121.451 64.6872 123.332 67.9976C117.388 68.3736 116.184 73.6402 121.3 77.0255C123.482 78.4552 126.793 79.7344 131.833 79.7344C133.263 85.2265 134.015 88.7623 134.241 91.3207C129.049 86.2046 123.858 78.7563 118.667 89.0634C115.959 94.6311 121.451 100.725 128.147 104.185C131.833 106.142 136.423 106.669 139.282 106.744C150.267 107.12 151.47 96.1357 144.623 75.9724C150.412 71.9148 152.594 65.5218 150.412 59.2006ZM36.0535 91.025C35.2929 90.2591 34.7467 89.307 34.4696 88.2638C34.1924 87.2206 34.1939 86.123 34.4739 85.0806C35.6775 80.7921 39.7406 76.7298 45.3075 74.6979C43.6523 78.8358 44.2545 85.6828 46.8121 89.5976C46.3327 90.3317 45.7202 90.9698 45.0064 91.479C43.2398 90.482 41.8021 88.9917 40.8692 87.1905C40.643 86.7389 40.1914 86.2872 39.8911 86.7389C39.2141 87.717 40.5674 90.8768 43.0509 92.5289C39.2141 94.3354 37.2578 92.3035 36.0535 91.025ZM55.6153 102.085C57.5708 104.041 57.5708 110.662 58.173 117.884C58.6246 123.601 59.9787 135.188 59.3766 140.831C59.2222 142.336 58.6246 145.12 53.0569 144.969C41.6212 144.668 15.5142 138.499 13.483 133.383C11.9784 130.9 10.6266 123.601 9.8716 117.207C9.11966 111.113 8.06587 100.505 9.19455 97.7207C9.64617 96.8182 10.9262 96.3009 14.8371 96.216C18.3004 96.1388 31.1636 97.4952 38.3834 98.4734C53.1318 100.43 54.2605 100.655 55.6153 102.085ZM55.0132 74.4771C54.787 79.8935 58.3992 82.2265 60.5052 82.2265C60.6738 82.2164 60.8338 82.149 60.9589 82.0355C61.0839 81.922 61.1665 81.7693 61.1929 81.6025C61.2193 81.4357 61.1879 81.2649 61.104 81.1184C61.0201 80.9719 60.8886 80.8584 60.7314 80.7967C56.4422 79.0666 55.6902 72.073 59.7533 72.9724C63.0637 73.6495 66.2227 79.2164 64.2672 86.9666C62.2353 94.9414 53.4337 98.1005 49.5219 97.8751C48.2006 97.8605 46.8967 97.5722 45.6924 97.0284C44.4882 96.4845 43.4097 95.6969 42.5252 94.7152C44.7217 94.1801 46.6952 92.9697 48.1678 91.2543C49.1191 92.1104 50.349 92.5919 51.6287 92.6092C55.9936 92.532 57.1956 89.2232 56.5935 85.1609C56.067 82.0003 54.3369 81.8505 54.5623 83.2795C55.014 86.2131 55.3266 89.9504 52.8323 90.5024C52.3294 90.6635 51.7963 90.7066 51.2741 90.6282C50.7519 90.5499 50.2549 90.3523 49.8214 90.0508C46.5867 88.1702 44.5023 77.3566 48.0914 73.8749C49.3521 72.6482 51.9282 71.7642 55.0132 74.4771ZM134.538 48.9723C137.923 50.7023 138.224 54.7623 139.052 58.6023C136.699 58.639 134.385 59.2047 132.28 60.2575C131.678 58.7528 130.366 55.7968 129.269 53.7116C128.111 51.5021 130.553 47.463 134.538 48.9684V48.9723ZM120.318 71.7642C120.694 69.8087 124.712 69.1657 130.7 71.5388C131.896 72.012 133.258 69.5077 125.734 68.003C124.155 65.0694 121.823 58.9705 121.973 56.7178C122.128 54.7615 124.004 54.1594 124.606 54.0088C125.81 53.7078 127.089 54.0088 127.462 54.611C128.586 56.6726 129.567 58.8092 130.398 61.0055C129.928 61.1934 129.514 61.5002 129.197 61.8959C128.881 62.2915 128.672 62.7626 128.592 63.2629C128.592 63.6396 128.819 64.4664 129.721 63.7894C133.559 60.7786 139.276 59.7271 143.264 60.933C143.79 61.0835 144.317 61.0102 144.242 60.4065C144.166 59.8027 143.339 58.7513 141.007 58.4502C139.803 52.6601 139.427 50.8513 141.534 50.4754C144.844 49.7983 146.349 52.8832 148.38 59.5789C150.035 64.9204 149.583 73.1963 138.298 76.7329C127.315 80.1127 119.792 74.2455 120.318 71.7642ZM145.146 103.138C140.481 109.159 116.556 100.127 120.694 89.5953C124.305 80.3412 129.948 90.1974 134.538 94.0343C134.485 94.7178 134.384 95.3968 134.237 96.0662C134.082 96.6676 134.468 97.3547 134.914 97.1193C136.284 96.3967 137.246 91.7021 134.086 79.5136C137.272 79.2881 140.375 78.3907 143.19 76.8803C148.232 91.0999 148.309 98.9999 145.143 103.138H145.146Z" fill="#001434"/>
<path d="M62.9878 108.555C65.696 108.404 65.8442 104.943 64.944 104.868C64.1164 104.79 64.4924 106.673 62.5361 107.201C61.4831 107.501 61.2577 108.63 62.9878 108.555Z" fill="#001434"/>
<path d="M96.0914 95.5391C94.2857 95.6163 90.9753 102.987 90.0698 102.837C89.4676 102.686 88.7905 97.947 87.0589 97.8713C85.1027 97.7941 83.6744 100.796 83.2213 100.728C82.6214 100.641 81.8672 99.7496 81.3407 99.1482C80.8142 98.4712 80.1371 99.3026 80.5887 100.126C81.7174 102.083 82.5442 102.76 83.2969 102.76C84.7267 102.682 85.7797 99.9758 86.6822 100.051C87.5847 100.127 87.5098 105.242 89.9177 105.392C92.1743 105.469 95.7077 97.7941 96.3879 97.7941C97.2903 97.7941 97.6671 100.051 98.1187 101.782C98.2692 102.308 98.6452 102.684 99.0961 102.533C100.154 102.31 98.8753 95.3885 96.0914 95.5391Z" fill="#001434"/>
<path d="M79.8411 91.5514C77.5838 92.6052 77.6594 96.0661 77.5089 98.9248C77.3583 102.16 77.2078 105.62 79.3895 107.2C82.8504 109.608 90.3744 110.288 95.7159 110.435C102.713 110.662 103.559 107.8 103.766 100.73C103.858 97.5646 103.766 94.7081 101.734 93.056C100.004 91.627 82.8504 90.1216 79.8411 91.5514ZM100.608 107.351C98.8773 109.457 83.6795 107.802 80.444 105.546C78.9402 104.492 79.3161 94.4101 80.8957 93.5795C83.6795 92.0748 99.2532 94.0311 100.156 94.5576C102.337 95.8399 102.036 105.546 100.607 107.351H100.608Z" fill="#001434"/>
<path d="M84.9567 25.7201C91.728 25.7201 91.0509 16.2406 84.7313 16.5417C78.8625 16.7671 78.9381 25.7201 84.9567 25.7201ZM84.8061 18.4223C88.7936 18.2679 88.7936 23.3879 85.2578 23.6889C81.5707 23.9877 81.1947 18.5728 84.8061 18.4223Z" fill="#001434"/>
<path d="M123.402 134.059C122.801 136.091 122.424 137.821 121.747 139.551C121.647 139.804 121.484 140.027 121.273 140.198C121.062 140.369 120.811 140.483 120.543 140.53C117.384 140.607 117.233 140.375 116.932 139.702C116.781 139.175 116.707 138.272 115.879 138.122C113.547 137.671 111.44 136.843 110.089 138.272C109.036 139.326 107.53 138.349 107.232 137.972C106.934 137.594 107.533 136.617 108.661 135.038C109.79 133.534 108.963 133.233 107.383 134.737C105.803 136.317 104.295 138.574 106.179 139.552C108.511 140.756 109.189 140.756 111.069 139.475C112.273 138.648 113.852 139.25 115.282 139.552C115.282 141.734 116.035 142.111 119.345 142.111C121.15 142.111 121.979 142.336 122.505 141.734C123.182 140.982 123.784 136.543 124.085 135.189C124.454 133.909 123.854 132.705 123.402 134.059Z" fill="#001434"/>
<path d="M66.0725 133.304C74.5738 129.241 77.8842 128.188 80.5175 127.135C81.7218 126.684 81.9473 125.178 73.9717 128.338C72.8438 128.79 69.7588 129.994 68.329 130.671C64.7933 132.254 65.3947 133.684 66.0725 133.304Z" fill="#001434"/>
<path d="M116.405 79.8894C106.775 85.3066 89.6214 88.918 71.7155 83.7271C71.189 83.5765 71.1133 84.103 71.4901 84.479C73.5212 86.4353 84.2799 88.1661 90.073 88.1661C101.433 88.2433 111.063 84.9306 116.553 80.7178C117.534 79.9651 117.534 79.2124 116.405 79.8894Z" fill="#001434"/>
<path d="M113.396 126.837C108.957 127.364 101.507 135.113 100.456 139.326C99.8537 141.658 100.079 143.389 101.057 144.668C103.615 148.204 117.685 149.784 121.901 149.107C126.642 148.279 129.651 133.007 128.071 130.147C126.563 127.514 117.233 126.385 113.396 126.837ZM121.597 146.098C119.265 146.699 104.702 145.676 102.864 143.009C102.246 142.116 102.036 141.43 102.412 139.699C103.24 136.238 110.237 128.113 114.826 128.188C119.792 128.265 125.585 129.843 126.262 131.044C127.387 133.458 124.155 145.424 121.597 146.098Z" fill="#001434"/>
<path d="M63.2133 100.504C62.9817 100.134 62.3726 100.277 62.3108 100.956C62.2316 101.536 61.9926 102.082 61.6205 102.534C61.2484 102.986 60.7579 103.325 60.204 103.514C59.4521 103.815 59.527 104.492 60.3584 104.492C60.8529 104.54 61.3512 104.457 61.8035 104.251C62.2558 104.046 62.6462 103.725 62.9354 103.321C63.2246 102.917 63.4025 102.444 63.4513 101.95C63.5 101.456 63.418 100.957 63.2133 100.504Z" fill="#001434"/>
<path d="M23.1886 99.526C21.8338 99.3762 15.589 101.332 14.7622 103.589C14.16 105.62 16.4174 110.285 18.599 110.285C23.0381 109.683 29.5832 107.197 26.1979 102.009C25.8212 101.407 24.6925 99.6765 23.1886 99.526ZM25.5209 105.771C25.0692 106.749 19.5764 109.081 18.5234 108.782C17.546 108.406 15.9132 105.104 16.2668 104.117C16.7485 102.774 22.0569 100.957 23.0381 101.029C24.1699 101.034 26.123 105.018 25.5209 105.771Z" fill="#001434"/>
<path d="M34.6991 122.097C33.6461 123.828 28.7547 127.214 29.6587 128.944C30.0347 130.448 33.721 129.846 35.6032 129.846C36.1297 131.803 36.054 136.844 38.0103 136.617C39.816 136.844 41.0983 132.179 41.9985 130.448C53.8102 132.179 55.0137 130.298 45.7597 122.548C48.5435 115.176 48.1676 112.166 40.7941 117.884C34.8497 111.715 33.7959 115.401 34.6991 122.097ZM38.6866 118.034C41.0944 121.495 43.351 117.207 45.9851 116.455C46.0623 117.96 43.9532 121.796 44.3299 122.925C44.5554 124.279 50.2744 127.966 50.3516 129.395C49.1473 130.147 42.1505 128.417 41.1724 129.094C40.1194 129.621 39.0664 133.985 38.0844 134.961C37.0306 133.156 38.316 128.191 35.3754 128.266C33.9741 128.38 32.5671 128.406 31.1626 128.343C31.7647 126.838 36.1281 123.753 36.2787 122.399C36.6554 120.216 34.3232 113.145 38.6835 118.034H38.6866Z" fill="#001434"/>
<path d="M140.481 84.2535C141.986 83.8019 143.248 82.4586 142.813 81.7707C142.581 81.4001 141.986 81.5445 141.684 81.8479C141.008 82.5998 139.202 83.2769 137.472 83.2769C136.193 83.2005 136.343 85.457 140.481 84.2535Z" fill="#001434"/>
<path d="M130.625 93.5077C129.12 94.1091 127.992 97.7962 129.195 99.2252C129.496 99.6019 130.248 99.6019 130.098 98.1722C130.153 96.8793 130.57 95.6278 131.302 94.5607C131.829 94.0342 131.678 93.0561 130.625 93.5077Z" fill="#001434"/>
<path d="M126.186 89.3694C122.876 90.2719 122.431 94.5418 123.477 94.8615C124.386 95.1425 124.079 92.4543 126.333 91.0246C128.142 89.8959 127.315 89.0675 126.186 89.3694Z" fill="#001434"/>
<path d="M66.9751 54.4603C65.1693 58.6732 65.5453 74.9996 69.9859 78.8365C77.8858 85.6834 111.14 82.2974 114.977 74.9247C118.513 68.0778 116.858 53.7076 113.848 49.5697C108.656 42.4224 70.737 45.7328 66.9751 54.4603ZM74.8001 63.5638C72.5428 63.2628 72.3166 57.1685 77.2072 56.3409C81.3452 55.6639 84.8061 59.727 83.9785 61.8338C83.3763 63.3376 77.0567 63.8649 74.8001 63.5638ZM100.305 71.6892C99.138 72.8567 97.7359 73.7625 96.1918 74.3463C94.6478 74.9301 92.9971 75.1786 91.3496 75.0752C88.189 74.9208 80.5153 74.0214 82.0956 69.9591C83.4497 66.4982 88.6407 70.8616 91.3496 70.5605C96.766 69.9591 98.0839 64.6501 100.753 67.0996C102.206 68.4313 102.974 69.245 100.305 71.6892ZM108.28 60.9305C106.173 61.7581 100.079 62.5857 98.95 61.457C97.22 59.8018 99.2511 54.9868 103.389 54.6109C109.333 54.0087 110.386 60.1029 108.28 60.9305Z" fill="#001434"/>
<path d="M73.6717 111.865C79.4618 115.928 89.3203 118.787 100.531 118.862C111.966 118.939 122.048 114.047 125.81 107.878C127.24 105.545 126.788 105.021 125.659 106.448C122.051 111.03 117.023 114.285 111.365 115.702C98.8006 119.087 82.3993 116.228 71.866 108.856C70.4363 107.878 70.8122 109.835 73.6717 111.865Z" fill="#001434"/>
<path d="M140.03 102.235C139.426 101.901 138.895 101.449 138.469 100.906C138.042 100.363 137.729 99.7403 137.547 99.0745C137.396 98.4731 137.02 97.6455 136.418 98.2476C135.967 98.6985 135.892 100.58 136.945 101.858C137.295 102.32 137.736 102.705 138.24 102.989C138.745 103.274 139.302 103.452 139.878 103.514C140.782 103.589 141.158 102.762 140.03 102.235Z" fill="#001434"/>
<path d="M138.75 88.617C137.848 88.4665 137.621 90.1217 140.255 90.1973C143.415 90.3517 144.694 88.6927 144.543 87.8651C144.466 87.4135 143.866 87.2629 143.415 87.7146C142.663 88.617 140.255 88.9181 138.75 88.617Z" fill="#001434"/>
<path d="M17.1693 119.013C11.6772 120.668 13.4073 128.267 18.5234 128.342C25.8968 128.417 24.1699 116.755 17.1693 119.013ZM19.5772 126.612C15.5141 127.74 13.4073 121.796 17.6209 120.517C21.7604 119.135 23.6835 125.499 19.5772 126.612Z" fill="#001434"/>
<path d="M138.525 94.1847C138.148 94.0303 137.717 94.7668 138.602 95.6893C139.451 96.5741 140.785 96.8929 142.515 96.8929C144.772 96.8929 146.125 95.5388 145.749 94.8618C145.298 94.0342 142.587 95.7642 138.525 94.1847Z" fill="#001434"/>
</svg>
