<svg width="155" height="155" viewBox="0 0 155 155" fill="none" xmlns="http://www.w3.org/2000/svg">
<path d="M68.8594 87.3868C70.8651 87.2334 72.8539 86.908 74.8039 86.4141C76.0777 86.113 77.3592 84.8701 75.3288 84.8701C72.9771 85.0508 70.6387 85.3757 68.3267 85.8428C67.2768 86.113 67.2768 87.3868 68.8594 87.3868Z" fill="#3D9CFB"/>
<path d="M66.822 69.4067C68.1808 69.3295 71.9404 68.7736 73.1448 68.5729C74.1947 68.4031 74.3491 66.9208 72.3727 67.0752C63.6722 67.6156 65.4556 69.4839 66.822 69.4067Z" fill="#3D9CFB"/>
<path d="M23.5587 62.559C27.1717 62.2579 29.2793 61.9569 28.9627 59.7721C28.5844 56.9157 28.5072 54.4298 26.0986 54.6537C21.4665 55.032 19.7064 55.2558 20.9107 60.3742C21.15 61.3547 21.5978 62.7057 23.5587 62.559ZM23.1032 56.5374C25.4192 56.0973 26.7857 55.6418 27.1717 57.3094C27.5654 59.911 27.8896 60.6522 26.1912 60.8529C24.6472 61.0305 22.5782 61.5245 22.3312 59.9496C22.1999 58.7762 21.675 56.8076 23.1032 56.5374Z" fill="#3D9CFB"/>
<path d="M13.098 45.1733C17.1588 44.5712 19.5674 44.795 19.1197 41.1126C18.7414 38.1017 18.5947 36.2952 15.5067 36.4805C12.6502 36.6272 9.40781 37.0132 9.9405 40.2479C10.3111 42.2397 10.1644 45.5516 13.098 45.1733ZM15.414 37.9473C17.4444 37.7235 17.2977 39.6844 17.5988 41.3364C17.8227 42.7647 17.0738 43.0812 16.6184 43.2201C15.5119 43.5215 14.375 43.6976 13.2292 43.7451C11.801 43.8223 11.608 41.6375 11.4305 40.1321C11.1834 37.9319 13.623 38.1789 15.4295 37.9319L15.414 37.9473Z" fill="#3D9CFB"/>
<path d="M20.2461 93.2617C20.7711 91.7177 21.4119 82.801 21.2961 80.3923C21.292 79.8398 21.0794 79.3092 20.7009 78.9067C20.3224 78.5042 19.8058 78.2594 19.2546 78.2214C18.7034 78.1833 18.1581 78.3548 17.7279 78.7015C17.2977 79.0482 17.0142 79.5445 16.9342 80.0912C16.4865 82.7238 15.506 92.204 16.3321 93.6322C17.1581 95.0605 19.7212 94.6899 20.2461 93.2617Z" fill="#3D9CFB"/>
<path d="M25.6661 72.4868C31.3481 72.0622 32.0738 71.5681 30.7845 66.0174C30.1823 63.6088 26.9245 64.512 24.9867 64.8903C22.8792 65.3381 22.802 66.8435 22.9564 68.0478C23.2188 69.8543 23.5585 72.6721 25.6661 72.4868ZM27.9821 65.7935C29.7809 65.5233 29.5647 67.3375 29.7886 68.7272C30.0974 70.5645 28.5457 70.7035 25.8745 70.9119C24.8246 70.9814 24.593 69.3679 24.3691 67.8239C24.2379 66.1718 26.2605 66.0483 27.9976 65.7935H27.9821Z" fill="#3D9CFB"/>
<path d="M63.8188 55.3327C63.0468 54.2596 60.6536 54.8849 59.3026 55.3327C57.9516 55.7805 58.245 56.6837 59.4493 56.8381C60.6536 56.9925 64.5214 56.3672 63.8188 55.3327Z" fill="#3D9CFB"/>
<path d="M14.078 91.8256C13.4758 91.2235 11.2447 90.0654 9.86282 88.9692C8.0872 87.5719 11.9704 84.8312 12.6498 83.1714C13.4218 81.3726 10.465 79.4889 9.03677 81.3726C6.85199 84.0747 1.8571 88.0814 5.50098 90.8529C6.56635 91.6249 10.6889 94.8364 12.5726 94.9909C14.2247 95.1375 15.0507 92.9605 14.078 91.8256Z" fill="#3D9CFB"/>
<path d="M123.487 80.4695C126.497 80.1684 136.425 79.0335 137.784 78.663C138.786 78.5042 139.723 78.0667 140.487 77.4004C141.252 76.7342 141.813 75.8661 142.107 74.8956C143.381 71.7381 145.867 62.7056 146.245 61.2002C147.38 56.0818 143.412 59.0077 128.86 60.2969C127.655 60.3741 126.829 59.247 126.15 57.9809L141.204 56.1744C141.204 56.1744 140.378 54.1054 138.888 54.2984C137.398 54.4914 127.756 55.6494 126.328 55.8038C124.899 55.9582 126.096 53.3952 122.792 53.7657C119.488 54.1363 115.11 53.9201 114.809 61.9722C114.663 65.5852 114.74 75.5132 116.469 78.3773C117.241 79.7901 120.028 80.84 123.487 80.4695Z" fill="#3D9CFB"/>
<path d="M37.7015 120.537C39.2841 120.761 46.8806 119.255 48.085 115.496C47.2589 111.358 47.1122 107.822 45.8307 103.143C36.8754 96.7513 25.5887 106.085 28.5995 114.886C32.9614 110.64 41.3917 112.747 37.7015 120.537Z" fill="#3D9CFB"/>
<path d="M93.6094 59.6254C90.8302 59.6254 88.8693 59.9265 88.7226 60.5981C88.4215 61.3701 89.1704 61.5786 89.7725 61.5786C90.3747 61.5786 93.1617 61.2775 94.4432 61.1308C95.7247 60.9841 96.3964 59.6254 93.6094 59.6254Z" fill="#3D9CFB"/>
<path d="M79.9149 76.8564C81.0497 76.8564 84.9561 76.2543 86.1604 76.0844C87.3648 75.9146 87.5964 74.5404 86.0137 74.5404C83.9371 74.6248 81.8712 74.883 79.8377 75.3124C78.34 75.7602 78.8032 76.8564 79.9149 76.8564Z" fill="#3D9CFB"/>
<path d="M79.6141 57.8883C79.3902 56.3829 73.0675 57.6644 72.0947 58.0427C71.122 58.421 70.9676 59.4709 72.1642 59.4709C73.3608 59.4709 79.8457 59.3243 79.6141 57.8883Z" fill="#3D9CFB"/>
<path d="M80.5176 91.0769C81.498 91.0769 87.0873 90.4593 86.2381 89.5329C85.3889 88.6065 81.2741 89.309 80.4481 89.6101C79.622 89.9112 79.5757 91.0769 80.5176 91.0769Z" fill="#3D9CFB"/>
<path d="M121.904 23.4259C121.904 9.8154 103.044 10.8499 100.087 20.7161C112.771 19.4037 110.316 30.0497 102.342 28.0965C105.654 30.9838 121.904 30.4975 121.904 23.4259Z" fill="#3D9CFB"/>
<path d="M13.02 30.4975C13.1974 30.1626 13.2705 29.7822 13.2298 29.4054C13.1892 29.0286 13.0367 28.6725 12.792 28.3831C12.5472 28.0937 12.2215 27.8842 11.8567 27.7815C11.4918 27.6789 11.1046 27.6878 10.7449 27.8071C10.5061 27.8861 10.2855 28.0117 10.0957 28.1767C9.90593 28.3417 9.75081 28.5428 9.63935 28.7682C8.7747 30.6365 11.7469 32.8367 13.0207 30.4975H13.02Z" fill="#3D9CFB"/>
<path d="M83.3047 105.452C85.8594 105.189 88.3979 104.787 90.9089 104.247C92.1827 103.946 92.4529 102.588 90.6773 102.703C88.9017 102.819 84.8024 103.352 83.3819 103.676C81.9614 104 81.6526 105.521 83.3047 105.452Z" fill="#3D9CFB"/>
<path d="M70.7351 97.6236C72.4644 97.7702 77.3049 96.9288 76.6101 95.9638C75.9153 94.9987 71.7156 95.8171 70.9667 96.1182C70.2179 96.4192 69.7624 97.5464 70.7351 97.6236Z" fill="#3D9CFB"/>
<path d="M58.3212 43.8916C60.5754 44.046 61.5559 40.433 58.6995 40.0316C55.843 39.6301 55.5342 43.6677 58.3212 43.8916Z" fill="#3D9CFB"/>
<path d="M28.1442 43.0661C29.8397 42.9192 31.5237 42.6613 33.1854 42.2941C34.3203 42.0702 34.4669 40.6343 32.8843 40.7501C31.3017 40.8659 29.5029 41.1283 27.9975 41.5221C26.6388 41.9389 27.0171 43.0661 28.1442 43.0661Z" fill="#3D9CFB"/>
<path d="M18.363 49.0099C18.6255 50.5539 19.0423 53.2251 21.0727 53.0012C27.5421 52.399 27.3955 51.8741 26.0367 46.7556C25.3651 44.4937 22.1304 45.3969 20.2467 45.8524C18.1391 46.3774 18.1622 47.8056 18.363 49.0099ZM23.1803 46.6939C24.8401 46.3774 24.7629 47.9677 25.064 49.311C25.2879 50.4381 25.064 50.5925 24.6085 50.7392C23.5555 51.0723 22.4719 51.2999 21.3738 51.4186C20.5478 51.4958 20.3239 51.2719 19.7912 48.8632C19.4206 47.1339 20.1309 47.1957 23.2189 46.6784L23.1803 46.6939Z" fill="#3D9CFB"/>
<path d="M49.2193 43.8224C50.1226 45.8528 53.9595 44.7257 52.9018 42.0931C51.8442 39.4606 48.015 41.3366 49.2193 43.8224Z" fill="#3D9CFB"/>
<path d="M20.3234 27.8959C19.3429 25.3406 15.8457 27.1239 16.9343 29.4399C17.8143 31.3159 21.2961 30.3509 20.3234 27.8959Z" fill="#3D9CFB"/>
<path d="M25.6663 25.9118C25.4192 25.8662 25.1654 25.8722 24.9207 25.9294C24.6761 25.9866 24.4459 26.0938 24.2447 26.2443C24.0434 26.3947 23.8755 26.5852 23.7514 26.8036C23.6273 27.0221 23.5497 27.2639 23.5236 27.5137C23.4974 27.7636 23.5232 28.0162 23.5994 28.2557C23.6755 28.4951 23.8004 28.7162 23.9661 28.9051C24.1318 29.0939 24.3347 29.2465 24.5622 29.3531C24.7897 29.4598 25.0368 29.5182 25.288 29.5248C27.3184 29.6715 28.2216 26.2901 25.6663 25.9118Z" fill="#3D9CFB"/>
<path d="M51.0952 70.4563C53.1256 70.1552 57.0551 70.4563 56.4375 67.2988C56.0206 65.1217 56.2214 63.2072 53.5039 63.4388C51.4735 63.624 47.7833 63.8093 48.5399 66.4496C48.7638 68.1248 48.6943 70.8346 51.0952 70.4563Z" fill="#3D9CFB"/>
<path d="M56.5151 100.781C58.5455 100.48 62.5368 100.781 61.9192 97.6928C61.6181 95.508 61.842 93.6243 59.055 93.8327C57.0246 93.9794 53.3422 94.2033 54.0138 96.7664C54.2609 98.4493 54.0293 101.159 56.5151 100.781Z" fill="#3D9CFB"/>
<path d="M33.4163 62.1806C34.389 62.1034 35.8249 61.6556 36.7282 61.5012C37.6314 61.3468 37.3303 59.9572 36.3499 60.073C35.2691 60.151 34.2037 60.3803 33.1847 60.7524C31.9803 61.2002 32.4358 62.2578 33.4163 62.1806Z" fill="#3D9CFB"/>
<path d="M49.4675 60.3741C51.6523 60.073 55.412 60.2969 54.6554 56.9849C54.2076 54.8079 54.5087 52.6231 51.799 52.7775C49.6142 52.847 46.0784 53.0786 46.835 55.8655C46.9585 57.7415 46.8118 60.7523 49.4675 60.3741Z" fill="#3D9CFB"/>
<path d="M30.4826 52.9243C35.6087 52.3839 33.1846 50.2917 30.1815 51.4961C28.6761 52.0982 29.0467 53.0787 30.4826 52.9243Z" fill="#3D9CFB"/>
<path d="M24.8402 89.3473C24.7277 89.6896 24.7137 90.0566 24.7997 90.4064C24.8857 90.7563 25.0682 91.075 25.3266 91.3261C25.5849 91.5772 25.9087 91.7506 26.2608 91.8266C26.613 91.9026 26.9795 91.8782 27.3184 91.756C29.1249 90.9839 31.9118 86.7842 32.6607 85.7343C35.1465 82.1213 30.4064 80.0137 27.4728 77.9061C24.8402 76.0224 23.1032 79.0333 24.3076 80.5387C25.288 81.743 29.6498 83.3256 28.0749 85.1707C27.0173 86.3365 25.1413 88.5135 24.8402 89.3473Z" fill="#3D9CFB"/>
<path d="M55.1635 90.6214C57.2711 90.3203 61.3395 90.5519 60.4286 87.3172C59.9731 85.1325 60.1275 83.0249 57.3405 83.4032C55.233 83.627 51.7744 83.9281 52.5232 86.5607C52.9015 88.2128 52.9015 90.9997 55.1635 90.6214Z" fill="#3D9CFB"/>
<path d="M88.4218 117.488C87.1403 117.186 86.9164 117.41 84.8088 118.545C84.3611 118.769 83.0023 119.448 84.4306 119.973C91.6565 122.683 91.2474 123.378 95.7945 120.653C96.3967 120.274 96.9988 119.448 88.4218 117.488Z" fill="#3D9CFB"/>
<path d="M114.083 131.407C114.23 131.036 114.307 124.111 114.153 121.548C114.085 121.126 113.907 120.73 113.636 120.4C113.364 120.071 113.01 119.819 112.609 119.672C112.655 118.769 112.629 117.862 112.532 116.962C112.153 114.855 108.239 113.573 106.132 113.874C104.781 114.029 103.352 114.777 100.789 116.136C100.128 115.971 99.4757 115.77 98.8362 115.534C98.9828 113.805 99.1372 113.048 98.8362 112.145C98.4579 111.095 94.9221 110.115 92.6601 110.115C91.0451 110.269 89.4733 110.728 88.0281 111.466C87.7819 111.618 87.5011 111.705 87.212 111.718C86.923 111.732 86.6352 111.671 86.376 111.543C84.4923 110.941 82.3847 109.736 80.6554 110.192C75.012 111.736 75.537 112.508 75.6914 114.778C74.63 114.28 73.4742 114.017 72.3023 114.005C71.399 114.005 66.5817 114.909 66.0567 117.163C65.8196 118.555 65.7188 119.967 65.7557 121.378C63.5014 121.98 63.8025 131.237 65.0763 132.958C68.5426 137.698 74.0316 134.163 78.4706 132.433C78.3239 134.989 78.4706 137.706 78.9261 138.524C79.7985 140.068 84.4151 141.311 86.376 141.311C88.4835 141.311 90.5834 139.767 92.6215 138.378C94.8758 139.15 98.6354 141.311 100.82 140.632C105.113 139.358 106.317 138.378 106.163 134.456C108.911 135.776 113.327 133.892 114.083 131.407ZM111.821 122.752C109.451 125.2 106.031 123.208 102.642 122.305C101.662 122.081 101.515 122.305 99.4074 123.509C98.952 123.81 98.1259 124.281 99.1064 124.636C99.9324 124.86 101.361 125.462 102.866 125.995C105.182 126.767 102.565 129.299 99.778 129.6C96.9911 129.901 94.2813 126.967 92.0579 127.794C88.9699 128.998 86.183 133.445 81.1418 129.229C80.2385 128.457 85.133 125.918 85.7738 125.539C86.7543 124.937 86.2988 124.258 78.5478 122.081C76.8957 121.625 76.7413 122.305 72.2251 124.397C70.4263 125.223 68.6198 124.397 66.96 123.571C65.9101 123.038 67.0372 122.212 71.1751 120.483C73.5838 119.711 68.9904 118.753 68.0871 118.167C66.8133 117.263 70.7274 115.604 72.1556 115.758C76.0697 116.059 76.7876 118.614 81.1804 116.36C83.4423 115.156 77.7835 114.569 77.1968 113.728C76.888 113.28 79.3739 111.998 81.412 111.844C82.956 111.697 86.1521 113.573 87.2792 113.573C88.4063 113.573 91.34 111.504 93.1465 111.543C94.8063 111.581 97.1378 112.369 96.9139 112.902C96.7595 113.272 94.8758 114.175 93.7486 114.7C92.6215 115.225 93.5248 115.534 93.9725 115.681C99.4383 117.572 100.782 118.074 101.693 117.642C104.927 115.905 105.074 115.835 106.325 115.604C107.907 115.38 111.204 116.43 110.841 117.109C110.131 118.452 105.784 119.425 107.676 119.973C110.262 120.707 113.473 121.054 111.821 122.752Z" fill="#3D9CFB"/>
<path d="M41.2367 43.143C40.3335 45.0962 43.5528 47.4354 44.9269 44.9495C46.3011 42.4636 42.4411 40.5877 41.2367 43.143Z" fill="#3D9CFB"/>
<path d="M63.216 105.598C63.077 102.588 59.2247 104.054 57.341 104.247C54.9324 104.471 55.797 107.335 55.99 108.879C56.1367 111.512 59.5258 110.763 61.5562 110.385C64.567 109.814 63.3164 107.938 63.216 105.598Z" fill="#3D9CFB"/>
<path d="M56.3684 80.1685C59.3715 79.5664 58.0977 77.6827 57.9124 75.274C57.7657 72.2632 53.9288 73.73 52.0451 73.923C49.6365 74.1469 50.5397 77.0805 50.7636 78.555C50.9489 81.2957 54.3303 80.5391 56.3684 80.1685Z" fill="#3D9CFB"/>
<path d="M66.5204 93.3312C68.2574 93.3312 74.5802 92.0882 76.155 91.7872C77.7299 91.4861 77.7377 90.0501 75.2518 90.3512C72.7659 90.6523 66.5204 91.5556 65.4705 92.0882C64.7216 92.4279 64.9069 93.3312 66.5204 93.3312Z" fill="#001434"/>
<path d="M146.06 54.5073C145.316 54.6569 144.563 54.7575 143.806 54.8083C143.273 52.2453 142.146 50.7399 138.834 51.1182C127.131 52.3379 127.648 53.0405 127.1 51.8902C126.235 50.0605 124.992 49.6282 121.904 50.0065C112.64 51.427 110.44 51.1259 111.374 59.4867C112.918 72.5259 112.331 79.281 118.747 79.281C124.151 79.3505 136.503 77.6212 140.795 76.7951C143.273 76.3396 144.555 75.9691 145.983 72.7344C147.775 68.3263 149.258 63.7991 150.422 59.1856C151.179 55.4105 149.449 54.2834 146.06 54.5073ZM112.771 59.4713C112.1 52.0909 113.991 52.7239 122.174 51.4964C124.884 51.1182 125.262 51.5814 125.71 52.7008C126.544 54.6385 126.312 54.1985 138.881 52.6236C140.988 52.3997 141.745 52.8475 142.193 55.0322C136.85 55.7116 126.845 56.9854 124.205 57.4409C120.6 58.0431 118.561 59.5485 117.813 62.0266C116.817 65.7709 116.493 74.3787 115.257 76.0231C113.636 71.9006 113.543 65.7245 112.771 59.4713ZM149.056 58.8691C147.858 63.3879 146.401 67.8343 144.694 72.1862C143.49 74.896 142.733 75.1199 140.556 75.4287C137.916 75.7992 118.353 79.1111 116.323 77.2274C116.925 76.7797 117.527 75.4981 118.129 71.7385C119.673 61.5866 118.747 59.9731 124.753 58.8691C128.289 58.1897 140.641 56.777 145.597 56.1594C148.284 55.8351 149.65 56.0976 149.056 58.8691Z" fill="#001434"/>
<path d="M86.9162 93.6322C85.2564 93.5936 80.2924 94.2344 79.1961 94.8365C78.0999 95.4387 77.9918 96.2648 79.2733 96.3806C80.5549 96.4964 86.7927 95.2534 87.6264 95.1762C88.4602 95.099 88.6455 93.6708 86.9162 93.6322Z" fill="#001434"/>
<path d="M115.133 113.427C117.989 112.971 132.742 110.64 137.405 109.737C145.38 108.108 144.847 106.764 140.416 81.0719C139.968 78.8871 138.764 80.6164 139.289 83.6272C142.431 104.556 144.152 106.587 137.629 108.007C134.17 108.833 115.511 111.867 113.403 112.222C111.296 112.577 112.276 113.874 115.133 113.427Z" fill="#001434"/>
<path d="M67.6542 62.5592C66.751 62.8603 66.5194 64.0646 67.7237 64.0646C68.928 64.0646 73.1278 63.6863 72.541 62.7059C71.9543 61.7254 68.5575 62.2581 67.6542 62.5592Z" fill="#001434"/>
<path d="M67.4998 78.663C69.6715 78.446 71.8307 78.1188 73.9692 77.6825C75.3279 77.4587 76.5322 75.7988 74.0464 76.0227C71.5605 76.2466 68.4802 76.5554 67.052 77.3815C66.1488 77.7597 66.7509 78.663 67.4998 78.663Z" fill="#001434"/>
<path d="M76.6797 100.781C75.7764 101.16 76.3091 102.209 77.5829 102.14C80.0107 101.863 82.4226 101.461 84.8089 100.936C86.3529 100.48 86.0904 99.3916 84.6545 99.3916C81.9618 99.6309 79.2937 100.096 76.6797 100.781Z" fill="#001434"/>
<path d="M124.011 99.8778C126.644 99.6539 125.972 95.817 123.563 96.2648C123.218 96.3231 122.897 96.4797 122.638 96.7158C122.379 96.9519 122.194 97.2574 122.104 97.596C122.015 97.9346 122.025 98.2918 122.133 98.625C122.241 98.9581 122.442 99.2532 122.713 99.4748C123.078 99.7719 123.543 99.9163 124.011 99.8778Z" fill="#001434"/>
<path d="M119.874 98.6738C119.688 98.2608 119.357 97.931 118.943 97.7477C118.529 97.5645 118.062 97.5407 117.632 97.681C117.202 97.8222 116.839 98.118 116.614 98.5109C116.39 98.9039 116.319 99.3663 116.415 99.8086C116.94 102.287 120.854 101.082 119.874 98.6738Z" fill="#001434"/>
<path d="M133.121 92.2041C132.82 90.9225 130.411 91.378 129.261 90.0965C127.979 88.6683 128.805 85.2097 126.775 83.851C125.045 82.6466 121.734 84.0054 122.181 85.0553C122.861 86.414 124.212 84.9781 125.347 85.8273C126.775 86.8772 126.319 90.3358 127.377 91.6173C128.357 92.7445 130.164 92.5978 130.164 92.9761C130.164 93.501 128.728 93.7481 128.28 95.2921C127.832 96.8361 129.33 99.8778 128.882 101.159C128.357 102.588 125.949 101.46 125.872 102.889C125.794 103.946 129.33 104.772 130.99 102.286C132.194 100.48 130.009 97.3225 130.457 95.9637C131.013 94.3889 133.491 93.8639 133.121 92.2041Z" fill="#001434"/>
<path d="M88.8382 66.0951C88.0045 64.7364 81.2494 65.8249 79.8829 66.319C78.5165 66.8131 78.6786 67.9788 80.4079 67.863C82.1372 67.7472 89.4018 67.145 88.8382 66.0951Z" fill="#001434"/>
<path d="M72.9193 49.3115C70.9661 49.3115 60.7293 50.5159 59.301 50.8941C57.8728 51.2724 57.7956 52.4382 59 52.4382C60.2043 52.4382 72.1241 51.0022 73.5986 50.7783C75.0732 50.5545 74.3475 49.3115 72.9193 49.3115Z" fill="#001434"/>
<path d="M82.0997 72.0392C83.6437 71.7381 83.003 70.4566 80.8954 70.611C78.5235 70.7833 76.1628 71.0848 73.8238 71.5142C72.5423 71.8153 73.0518 72.8652 74.1249 72.8652C75.198 72.8652 80.5171 72.263 82.0997 72.0392Z" fill="#001434"/>
<path d="M62.4592 60.7527C63.7407 60.6755 66.8982 60.1506 67.5004 60.0734C68.1026 59.9962 68.5503 59.1933 67.5776 58.869C66.7438 58.5911 63.5169 58.9462 62.3125 59.2473C61.1082 59.5484 61.1777 60.8994 62.4592 60.7527Z" fill="#001434"/>
<path d="M77.8142 53.0015C74.8574 53.054 71.9115 53.3567 69.0056 53.9048C67.9557 54.2831 67.8013 55.4488 69.0828 55.4488C70.3643 55.4488 76.911 54.6768 77.9609 54.5456C79.0108 54.4143 79.3891 53.0787 77.8142 53.0015Z" fill="#001434"/>
<path d="M73.2205 82.4999C74.7645 82.3455 81.3498 81.2955 82.778 81.0717C84.2062 80.8478 83.9823 79.188 81.6509 79.5276C80.1068 79.7515 75.8531 80.0526 73.0661 80.8092C71.5607 81.1643 72.1629 82.5693 73.2205 82.4999Z" fill="#001434"/>
<path d="M77.5129 61.4322C76.378 61.7333 76.8335 62.8604 78.3389 62.8604C79.8443 62.8604 85.9895 62.4976 85.1094 61.2778C84.2293 60.058 78.64 61.1311 77.5129 61.4322Z" fill="#001434"/>
<path d="M62.536 74.2164C63.5859 74.363 67.6544 73.6142 68.4805 73.3826C68.5822 73.3729 68.6811 73.3433 68.7713 73.2953C68.8616 73.2473 68.9415 73.1819 69.0064 73.103C69.0713 73.0241 69.12 72.9331 69.1496 72.8352C69.1793 72.7374 69.1893 72.6347 69.1791 72.533C69.169 72.4313 69.1388 72.3326 69.0904 72.2426C69.0419 72.1526 68.9762 72.073 68.8969 72.0085C68.8177 71.944 68.7264 71.8957 68.6285 71.8666C68.5305 71.8374 68.4277 71.8279 68.3261 71.8386C67.1989 71.8386 63.5165 72.1397 62.4588 72.6723C61.4012 73.205 61.4784 74.0697 62.536 74.2164Z" fill="#001434"/>
<path d="M36.1951 36.8975C34.2419 37.0442 26.5682 37.8007 23.1791 38.7812C22.353 39.0051 22.2758 40.2866 23.9511 40.1322C25.6263 39.9778 36.1411 38.4801 37.716 38.2485C39.2909 38.0169 38.9821 36.6736 36.1951 36.8975Z" fill="#001434"/>
<path d="M31.2312 121.849C31.9734 122.291 32.8077 122.555 33.6688 122.62C34.53 122.686 35.3946 122.551 36.1952 122.227C37.0011 122.976 38.041 123.422 39.1385 123.491C40.236 123.56 41.3236 123.247 42.2168 122.606C42.8962 122.004 42.2168 121.062 41.3908 121.479C40.7914 121.809 40.1182 121.982 39.4337 121.982C38.7493 121.982 38.0761 121.809 37.4767 121.479C37.9783 121.006 38.3749 120.433 38.6409 119.798C38.9069 119.162 39.0363 118.477 39.0207 117.788C40.1479 116.507 39.6229 113.65 37.4381 113.504C36.2338 111.96 32.0341 111.62 29.9882 113.874C27.209 114.476 27.2785 117.564 29.0155 118.769C29.134 119.572 29.4705 120.328 29.9882 120.954C29.4296 121.255 28.7928 121.38 28.1617 121.313C27.5305 121.245 26.9346 120.988 26.4524 120.575C26.0124 120.112 25.472 120.421 25.472 120.799C25.4334 122.451 28.9692 123.625 31.2312 121.849ZM37.9322 115.604C38.06 115.862 38.0829 116.16 37.9961 116.436C37.9093 116.711 37.7194 116.942 37.4663 117.08C37.2131 117.219 36.9162 117.254 36.6376 117.179C36.359 117.104 36.1203 116.924 35.9713 116.677C35.8645 116.483 35.8178 116.262 35.8371 116.041C35.8564 115.821 35.9407 115.611 36.0795 115.438C36.2182 115.266 36.4051 115.139 36.6164 115.073C36.8276 115.007 37.0537 115.005 37.2659 115.068C37.55 115.151 37.7909 115.343 37.9322 115.604ZM35.3691 113.951C34.9139 114.317 34.5934 114.823 34.4582 115.391C34.323 115.959 34.3808 116.555 34.6225 117.087C34.8642 117.618 35.276 118.053 35.7929 118.325C36.3098 118.596 36.9023 118.687 37.4767 118.584C37.4515 118.908 37.358 119.224 37.2023 119.51C37.0467 119.796 36.8324 120.046 36.5735 120.243C35.925 118.614 34.5354 119.965 35.2224 121.015C34.307 121.239 33.351 121.239 32.4355 121.015C33.2615 120.49 33.2615 119.811 32.6594 119.587C32.2811 119.44 31.6867 119.811 31.1154 120.189C30.8677 119.894 30.6648 119.563 30.5132 119.209C33.1535 119.209 33.8406 115.503 31.787 114.245C32.3286 113.943 32.9285 113.761 33.5463 113.711C34.1642 113.66 34.7857 113.742 35.3691 113.951ZM30.2507 115.302C31.9105 115.233 31.98 117.866 30.2507 117.711C28.8997 117.564 28.8225 115.38 30.2507 115.302Z" fill="#001434"/>
<path d="M23.4031 109.134C24.7619 109.057 25.0629 107.783 25.5879 106.424C26.1129 105.066 26.6378 103.113 27.4716 102.811C27.9194 102.665 28.7454 103.267 29.1237 104.394C29.502 105.521 30.9302 104.996 30.1814 103.19C29.3476 101.159 27.9271 100.874 27.0933 101.082C25.4489 101.499 24.4608 105.714 23.4031 107.629C21.3419 107.289 21.1334 109.281 23.4031 109.134Z" fill="#001434"/>
<path d="M23.2569 117.788C25.2873 117.788 25.434 116.739 25.434 114.7C25.434 113.65 25.2101 111.165 26.5689 111.466C27.2405 111.697 27.5416 111.62 27.6188 111.165C27.9199 109.621 25.3028 109.621 24.5308 111.095C23.9286 112.299 24.5308 114.477 23.9981 115.727C23.8514 116.105 23.0253 116.499 22.7937 116.553C22.0526 116.885 22.2765 117.788 23.2569 117.788Z" fill="#001434"/>
<path d="M28.8999 47.2809C27.8422 47.582 28.3749 48.7091 29.201 48.8249C30.7094 48.7165 32.1996 48.4288 33.64 47.968C34.6822 47.6978 35.6086 45.3663 28.8999 47.2809Z" fill="#001434"/>
<path d="M34.7986 67.0753C36.2268 66.8437 37.5083 66.3033 37.2072 65.7937C36.9062 65.2842 36.3812 65.1916 34.4975 65.6393C32.6138 66.0871 33.3395 67.2683 34.7986 67.0753Z" fill="#001434"/>
<path d="M35.2926 108.957C36.273 106.093 38.0023 102.557 41.5381 101.808C43.4218 101.352 42.1403 100.449 39.9941 100.982C36.2267 101.955 34.5051 105.351 34.1191 108.424C33.903 109.968 34.922 110.115 35.2926 108.957Z" fill="#001434"/>
<path d="M32.1347 57.8884C33.209 57.8268 34.2706 57.6243 35.2922 57.2862C36.3498 56.9156 36.4965 55.5569 35.2922 55.7422C29.394 56.0818 31.27 57.8884 32.1347 57.8884Z" fill="#001434"/>
<path d="M10.4644 74.1466C11.0666 77.3041 12.6492 78.0067 12.3404 76.0226C12.0316 74.0386 6.93637 46.3775 5.50044 32.906C5.19936 30.2117 4.89828 26.3517 12.0471 25.4561C22.1912 24.136 70.2255 19.5966 79.0874 19.1411C85.3638 18.8477 88.0272 20.2142 88.9459 31.7017C89.1003 33.5854 90.49 32.8365 90.2275 30.0496C89.1467 21.434 87.7956 17.0335 79.0102 17.6357C65.8861 18.4617 29.6481 21.7737 11.8456 24.0279C3.12189 25.155 3.79353 30.3507 4.1255 33.4387C4.68906 40.186 9.57587 69.4991 10.4637 74.1466H10.4644Z" fill="#001434"/>
<path d="M107.536 18.6318C110.47 16.2308 113.921 15.8834 115.588 16.3158C117.256 16.7481 117.843 15.2658 115.889 14.8104C112.724 14.1387 108.81 14.8876 106.78 17.5973C105.653 19.0641 107.004 19.0641 107.536 18.6318Z" fill="#001434"/>
<path d="M95.3469 22.7545C94.8143 24.8544 95.7175 26.5142 97.9795 27.1936C96.698 28.0196 95.8719 29.3706 97.524 31.6326C96.0958 32.4587 96.6208 33.2693 97.524 33.138C101.623 32.5281 96.752 29.996 98.5045 28.6218C98.8968 28.3107 99.3275 28.0512 99.786 27.8498C100.35 28.4842 101.069 28.9604 101.874 29.2312C102.678 29.502 103.539 29.5581 104.372 29.3938C107.46 32.2502 110.169 29.5791 109.413 28.5678C109.189 28.2667 108.641 28.4134 108.363 28.7144C108.084 29.0081 107.705 29.1867 107.301 29.2153C106.896 29.2438 106.496 29.1203 106.178 28.8688C106.75 28.7388 107.282 28.4721 107.728 28.0916C108.175 27.7111 108.522 27.2282 108.741 26.6841C109.061 26.4008 109.313 26.0491 109.478 25.6552C109.643 25.2613 109.717 24.8353 109.694 24.4088C109.672 23.9823 109.554 23.5663 109.349 23.1917C109.144 22.8171 108.857 22.4935 108.51 22.245C107.985 20.5157 104.75 18.7864 101.515 19.929C100.962 19.7756 100.376 19.7971 99.8355 19.9905C99.2953 20.1839 98.8282 20.5397 98.4983 21.0092C98.1685 21.4786 97.992 22.0386 97.9931 22.6124C97.9942 23.1861 98.1728 23.7455 98.5045 24.2136C98.5045 24.2136 98.5817 25.2713 98.6511 25.719C98.3517 25.6975 98.0596 25.6165 97.7918 25.481C97.524 25.3455 97.2858 25.158 97.0911 24.9296C96.8964 24.7011 96.7491 24.4362 96.6578 24.1503C96.5664 23.8643 96.5328 23.5631 96.559 23.2641C96.6748 22.0675 95.5708 22.0752 95.3469 22.7545ZM108.209 25.1555C108.154 25.3166 108.068 25.4654 107.956 25.5932C107.844 25.7211 107.707 25.8254 107.555 25.9003C107.402 25.9752 107.236 26.0191 107.066 26.0295C106.896 26.0399 106.726 26.0166 106.565 25.9609C106.405 25.9052 106.256 25.8183 106.129 25.7051C106.002 25.5919 105.899 25.4547 105.825 25.3014C105.752 25.1481 105.709 24.9817 105.7 24.8119C105.691 24.642 105.715 24.472 105.772 24.3117C105.886 23.991 106.122 23.7282 106.428 23.5808C106.735 23.4333 107.088 23.413 107.409 23.5244C107.731 23.6357 107.995 23.8697 108.145 24.1752C108.295 24.4808 108.318 24.8331 108.209 25.1555ZM103.098 21.2491C104.213 21.1615 105.326 21.4525 106.255 22.0752C103.391 22.8472 103.685 26.5837 106.178 27.4175C105.848 27.6676 105.46 27.832 105.051 27.8961C104.879 27.6443 104.751 27.3649 104.673 27.0701C104.449 26.4679 103.167 26.4679 103.322 27.8961C102.994 27.953 102.658 27.9278 102.343 27.8227C102.027 27.7176 101.743 27.5359 101.515 27.2939C102.642 26.8462 102.419 25.7499 100.388 25.9429C100.302 25.7799 100.25 25.6014 100.234 25.418C100.388 25.418 100.612 25.4874 100.759 25.4874C103.098 25.5801 104.071 22.9012 103.098 21.2491ZM99.4849 22.4921C99.7397 20.454 103.021 21.666 101.739 23.3953C101.576 23.6219 101.341 23.7874 101.073 23.8656C100.804 23.9438 100.517 23.9301 100.258 23.8269C99.9984 23.7225 99.7814 23.5344 99.6414 23.2926C99.5014 23.0507 99.4463 22.7689 99.4849 22.4921Z" fill="#001434"/>
<path d="M93.5401 75.1966C94.9683 75.1966 99.7161 74.525 100.689 74.3706C102.04 74.1467 102.04 72.8266 100.689 72.8266C99.3379 72.8266 93.9878 73.2821 92.7063 73.807C91.4248 74.332 92.0347 75.1966 93.5401 75.1966Z" fill="#001434"/>
<path d="M133.869 48.8635C134.171 50.67 135.529 50.0679 135.074 46.9026C133.074 32.9293 133.669 30.814 123.872 31.1768C124.698 31.1151 124.852 30.1192 122.807 29.8953C123.108 27.34 124.829 23.4799 122.583 22.9009C122.069 22.8523 121.551 22.9072 121.059 23.0623C120.567 23.2175 120.111 23.4697 119.719 23.8042C119.039 24.5762 119.719 25.5489 120.491 25.1552C121.263 24.7615 121.849 24.3832 122.073 24.553C122.899 25.2324 120.267 30.428 122.073 31.3312L118.985 31.5551C118.831 30.3276 117.248 30.8989 117.557 29.9725C118.005 28.166 119.209 24.9313 118.329 23.2792C117.804 22.2988 116.53 21.851 114.191 22.7542C112.84 23.2792 113.218 24.8541 114.345 24.4835C116.152 23.8814 116.746 23.9586 116.978 24.3291C117.21 24.6997 116.53 28.1892 115.997 29.8953C115.87 30.2507 115.868 30.6388 115.992 30.9954C116.115 31.352 116.357 31.6557 116.677 31.8562C115.395 31.9334 114.044 32.0801 112.686 32.2345C113.743 30.7291 115.473 28.3204 114.345 27.1933C113.743 26.5911 112.801 26.5139 111.481 26.6606C110.354 26.815 110.13 28.3976 111.257 28.3204C112.029 28.3204 112.763 28.166 112.987 28.3976C113.365 28.8454 110.879 31.5551 110.81 32.304C59.6564 37.1599 46.4937 38.1017 42.4406 38.9278C37.5538 39.9854 35.8245 43.6679 36.9517 51.0406C37.8549 57.0622 41.769 81.1489 43.7222 92.9606C37.8858 94.219 27.0777 96.7125 22.6541 96.4192C21.527 96.342 21.6736 97.5463 22.6541 97.7702C26.6068 98.4341 34.9058 96.2262 43.9461 94.3888C44.3243 96.7048 47.5282 114.044 48.4623 118.391C49.8442 124.567 51.8823 124.736 62.9143 122.251C64.3425 121.872 63.7403 120.444 60.9534 120.977C51.7588 122.714 50.8092 122.806 49.821 118.035C46.733 103.993 40.3022 63.7478 38.3027 50.8708C37.1138 42.6952 39.7927 40.8887 42.6722 40.356C52.7083 38.5109 79.5587 37.0673 110.47 33.8094C111.775 35.5541 113.265 35.1295 112.786 33.5855C117.526 33.1377 121.44 32.8135 123.772 32.7595C132.657 32.5973 131.662 32.9833 133.869 48.8635Z" fill="#001434"/>
<path d="M127.245 38.5497C125.122 38.7041 48.377 46.3161 43.0425 47.1961C40.3327 47.6516 39.4295 49.157 41.9925 48.856C44.5556 48.5549 126.798 40.0473 129.052 39.8235C131.306 39.5996 129.955 38.3258 127.245 38.5497Z" fill="#001434"/>
<path d="M110.547 99.507C110.359 99.9453 110.351 100.44 110.527 100.884C110.703 101.327 111.048 101.683 111.485 101.873C111.924 102.062 112.419 102.07 112.863 101.895C113.307 101.718 113.662 101.373 113.851 100.935C114.832 98.4493 111.296 97.4689 110.547 99.507Z" fill="#001434"/>
<path d="M108.741 87.1629C108.81 85.8814 104.147 85.8814 103.468 88.0662C102.789 90.2509 104.147 92.5824 103.622 94.4661C103.167 96.1954 100.612 96.4965 100.758 97.8475C100.905 99.1985 103.846 98.9746 104.75 100.109C105.653 101.244 104.75 104.618 106.556 106.054C108.741 107.783 112.802 106.201 111.52 104.772C110.841 103.869 109.042 105.598 108.139 104.394C106.934 102.811 107.367 100.48 106.402 98.9901C105.63 97.7857 104.001 97.9401 103.769 97.5618C103.538 97.1836 105.429 96.3575 105.877 95.0065C106.402 93.4625 104.973 90.3745 105.498 89.1315C106.023 87.8886 108.664 88.6683 108.741 87.1629Z" fill="#001434"/>
<path d="M46.4319 124.111C48.6167 124.111 48.2461 122.807 47.2039 122.451C46.0073 122.058 45.8529 122.15 45.9996 119.217C46.3006 114.932 46.4319 113.434 45.6985 111.921C44.8416 110.13 42.2399 111.396 40.7345 113.427C39.9625 114.399 40.8889 115.982 41.7149 115.009C43.367 113.126 44.0309 113.126 44.2703 113.203C44.803 113.504 44.3475 117.487 44.2008 119.448C44.0618 122.15 43.6449 124.111 46.4319 124.111Z" fill="#001434"/>
<path d="M99.106 59.0927C97.9016 59.471 97.9017 60.6367 99.1832 60.6367C110.2 60.5981 105.05 57.2321 99.106 59.0927Z" fill="#001434"/>
<path d="M16.0307 61.8023C17.0112 61.6557 17.6906 60.2583 17.9144 58.7915C18.0611 57.8883 17.8372 57.4405 17.1424 57.5177C16.2392 57.5872 16.1697 60.073 15.7142 60.073C15.2587 60.073 14.5099 59.0231 14.1316 58.529C14.0502 58.415 13.9349 58.3297 13.8021 58.2851C13.6693 58.2406 13.5258 58.2393 13.3922 58.2813C13.2586 58.3232 13.1416 58.4064 13.0581 58.5188C12.9746 58.6313 12.9288 58.7673 12.9273 58.9073C12.8501 60.073 15.0503 61.9567 16.0307 61.8023Z" fill="#001434"/>
<path d="M12.8725 53.4491C12.7181 54.0513 13.3974 54.7306 13.9996 54.2829C14.8256 53.7502 16.2538 51.6426 16.2538 50.8937C16.1844 49.9133 13.9378 49.0101 12.7181 48.8634C12.5548 48.8716 12.3984 48.9315 12.2713 49.0344C12.1443 49.1372 12.0532 49.2778 12.0111 49.4357C11.969 49.5937 11.9782 49.7609 12.0373 49.9133C12.0963 50.0658 12.2022 50.1955 12.3398 50.2839C13.1118 50.5077 14.4473 50.886 14.4473 51.2643C14.4473 51.6426 13.0191 52.4764 12.8725 53.4491Z" fill="#001434"/>
<path d="M81.0492 24.8543C77.1891 25.2326 14.3014 32.3814 11.6689 32.9063C9.03632 33.4313 8.73524 34.8672 10.6112 34.5662C12.4872 34.2651 80.2926 26.4369 82.9251 26.213C85.5577 25.9891 84.886 24.4837 81.0492 24.8543Z" fill="#001434"/>
</svg>
