<svg width="155" height="155" viewBox="0 0 155 155" fill="none" xmlns="http://www.w3.org/2000/svg">
<path d="M142.808 11.0235L10.0479 5.66699V98.9179L142.808 109.577V11.0235Z" fill="white"/>
<path d="M5.65207 121.528C5.65207 121.528 2.52423 125.877 6.54354 129.781C10.5628 133.685 18.148 137.036 18.8397 141.163C19.5313 145.29 34.9092 144.621 44.969 145.067C55.0288 145.513 68.8542 145.405 77.8919 146.858C86.9296 148.31 110.246 149.309 114.826 148.641C119.407 147.972 125.985 148.418 132.01 148.979C138.035 149.54 145.728 146.297 147.073 141.055C148.418 135.814 149.417 133.463 148.295 133.463C147.173 133.463 5.65207 121.528 5.65207 121.528Z" fill="#FFF5DB"/>
<path d="M125.916 135.592C126.1 135.592 126.415 135.154 120.944 146.965C120.844 147.181 120.436 147.68 118.7 146.965C110.853 145.083 111.491 145.521 108.194 144.66C107.787 144.552 106.849 144.214 106.588 144.199C105.689 144.137 102.745 143.1 102.884 142.908C103.414 142.301 103.468 142.139 103.652 142.139C105.558 142.139 117.362 145.013 119.237 145.329C120.598 145.551 120.959 142.562 125.047 135.83C125.347 135.469 125.147 135.484 125.916 135.592Z" fill="white"/>
<path d="M115.656 132.517C126.062 134.177 125.77 133.977 125.316 134.707C122.557 139.203 120.014 145.12 119.629 144.951C119.045 144.897 111.483 143.038 107.218 142.261C105.487 142.008 103.771 141.661 102.077 141.224C102.768 140.394 111.022 133.385 111.452 132.985C112.421 132.063 111.452 131.817 115.656 132.517Z" fill="white"/>
<path d="M96.1823 107.871C96.4282 109.408 96.6203 109.331 96.1208 109.323C95.8288 109.323 93.1851 109.1 93.285 108.808C93.8383 107.156 93.7153 107.271 94.0151 107.348C95.6059 107.817 96.1131 107.456 96.1823 107.871Z" fill="#D8E9FF"/>
<path d="M95.8827 105.158C95.998 107.095 96.2055 107.041 95.6906 107.049C93.216 107.049 93.9537 106.91 95.4523 103.444C95.6368 103.022 95.8596 104.705 95.8827 105.158Z" fill="white"/>
<path d="M100.84 83.4477C99.3871 86.1836 99.9558 85.0462 98.2728 87.1442C95.8673 90.1491 96.2285 88.9502 95.291 89.8647C94.9682 90.1721 93.9076 88.4814 93.5849 88.051C93.2621 87.6207 94.046 88.2662 98.7723 82.0644C99.1104 81.6263 100.617 83.1326 100.84 83.4477ZM95.8135 87.8128C95.8597 87.6053 95.4677 87.2441 95.2602 87.4593C94.4533 88.2816 95.8366 88.6735 95.8135 87.8128Z" fill="white"/>
<path d="M64.8119 74.0718C64.9272 74.1794 65.0041 79.0133 61.7379 81.6109C61.6937 81.6415 61.6394 81.6538 61.5864 81.6452C61.5334 81.6366 61.4858 81.6078 61.4535 81.5648C60.8541 81.0115 59.5246 80.6042 59.9165 80.1584C61.1446 78.1666 62.011 75.9733 62.4757 73.6799C62.6755 71.7817 62.76 72.9114 64.151 73.58C64.3864 73.7226 64.6077 73.8873 64.8119 74.0718ZM62.1221 80.2199C62.1221 79.705 61.3998 79.6128 61.3536 80.2199C61.3541 80.2709 61.3647 80.3212 61.3847 80.3681C61.4046 80.415 61.4336 80.4575 61.47 80.4932C61.5064 80.5289 61.5495 80.557 61.5968 80.5761C61.6441 80.5951 61.6946 80.6047 61.7456 80.6042C61.7965 80.6036 61.8469 80.5931 61.8938 80.5731C61.9407 80.5532 61.9832 80.5242 62.0189 80.4878C62.0546 80.4514 62.0827 80.4083 62.1018 80.361C62.1208 80.3137 62.1303 80.2632 62.1298 80.2122L62.1221 80.2199Z" fill="white"/>
<path d="M101.062 71.4593C101.155 71.4593 101.208 71.5131 101.147 71.5977C98.3572 76.0473 97.6425 77.4307 97.2275 78.0993C97.2275 78.0147 96.897 76.7006 96.6204 75.7937C96.4974 75.3711 98.4264 68.2623 98.5647 68.1086C98.8491 68.416 98.534 71.5823 101.062 71.4593Z" fill="white"/>
<path d="M31.7503 110.245C31.8425 110.514 31.3123 110.96 31.3123 110.537H31.3891C31.3891 108.885 31.343 109.308 31.5735 109.215C31.8041 109.123 31.5274 109.607 31.7503 110.245Z" fill="#D9D9D9"/>
<path d="M30.6209 109.315C31.1051 109.277 30.913 109.477 30.913 110.576C30.913 110.76 30.79 110.745 30.6747 110.745C30.5594 110.745 30.4365 110.745 30.4442 110.576C30.4672 109.484 30.3519 109.338 30.6209 109.315Z" fill="#D9D9D9"/>
<path d="M28.4458 108.9C28.9838 108.977 29.0299 109.085 28.9761 110.353C28.9761 110.645 28.4535 110.491 28.5303 110.122C28.5415 109.713 28.5132 109.304 28.4458 108.9Z" fill="#D9D9D9"/>
<path d="M30.0599 109.677V109.8C29.9677 110.699 30.0599 110.784 29.7525 110.73C29.1377 110.599 29.399 110.591 29.3836 110.246C29.3836 109.177 29.2376 109.154 29.5142 109.239C30.0599 109.4 30.0599 109.277 30.0599 109.677Z" fill="#D9D9D9"/>
<path d="M28.5996 108.071C28.5996 107.302 32.4422 107.878 31.7198 108.493C30.9974 109.108 28.615 108.762 28.5996 108.071Z" fill="#D9D9D9"/>
<path d="M32.1577 123.103C33.1952 130.35 34.8629 130.488 32.5804 131.364C30.8196 131.898 28.9337 131.853 27.2008 131.234C26.6499 131.078 26.1576 130.763 25.7868 130.327C25.1643 129.919 25.4102 128.913 25.733 127.798C28.0385 119.791 26.855 121.873 26.3709 117.923C26.0788 115.495 27.0471 114.972 28.4689 113.358C28.7968 112.802 28.9445 112.157 28.8916 111.514C28.8916 111.022 28.807 111.129 29.2835 111.206C31.3354 111.521 31.151 110.945 31.0511 112.09C31.0511 114.257 31.5276 113.535 32.4421 114.757C35.1011 118.269 31.7274 120.236 32.1577 123.103ZM32.6803 129.973C32.7333 129.946 32.7732 129.898 32.7912 129.841C32.8092 129.784 32.8039 129.723 32.7764 129.67C32.7489 129.617 32.7014 129.577 32.6445 129.559C32.5876 129.541 32.5258 129.546 32.4728 129.574C31.3558 130.087 30.1062 130.237 28.8993 130.004C28.3306 129.889 27.124 129.651 26.832 129.143C26.6936 128.897 26.4247 128.828 26.3709 128.89C25.6024 129.82 29.9444 131.487 32.6649 129.973H32.6803ZM27.8233 116.678C30.5515 117.347 32.9186 116.793 32.6419 116.155C32.4882 115.794 31.9195 116.54 29.9521 116.478C29.318 116.425 28.6887 116.324 28.0693 116.179C27.9061 116.161 27.7499 116.103 27.6155 116.009C27.4811 115.915 27.3728 115.788 27.3008 115.641C27.2316 115.495 27.0087 115.641 27.0087 115.641C26.9617 115.785 26.9617 115.941 27.0087 116.086C27.1967 116.372 27.4799 116.582 27.808 116.678H27.8233Z" fill="#D8E9FF"/>
<path d="M24.2193 63.2204C24.4422 62.7516 26.0483 64.3117 26.0022 65.9102C25.9721 66.7383 25.6448 67.528 25.0804 68.1348C24.516 68.7415 23.752 69.1249 22.9282 69.2148C18.5477 69.7681 17.4487 61.9447 23.5353 62.7363C23.9811 62.7977 21.445 66.5788 22.3364 66.8017C22.9359 66.9246 22.6131 66.5557 24.2193 63.2204Z" fill="#D3FFCF"/>
<path d="M80.4662 17.548C81.0066 17.8864 81.437 18.3745 81.7051 18.953C81.9732 19.5315 82.0674 20.1754 81.9762 20.8064C81.885 21.4375 81.6124 22.0284 81.1915 22.5073C80.7706 22.9862 80.2195 23.3325 79.6054 23.504C79.0249 23.6397 78.4189 23.6203 77.8483 23.4476C77.2777 23.2749 76.7625 22.9551 76.3547 22.5203C76.0726 22.2315 75.8575 21.8843 75.7247 21.5031C75.5919 21.1219 75.5446 20.7162 75.5861 20.3147C75.6476 20.1917 75.8859 20.2609 75.9935 20.2609C76.8557 20.3209 77.7211 20.3209 78.5833 20.2609C78.6608 20.267 78.7375 20.2421 78.7966 20.1917C78.8557 20.1412 78.8923 20.0694 78.8984 19.9919C78.9045 19.9145 78.8796 19.8377 78.8292 19.7787C78.7787 19.7196 78.7069 19.6829 78.6294 19.6768C78.5603 19.6768 77.8071 19.6153 77.8071 19.6768C75.8474 19.6768 75.5016 19.9227 75.7936 19.1927C75.987 18.7731 76.2626 18.3966 76.6041 18.0855C76.9457 17.7745 77.3462 17.5351 77.782 17.3818C78.2177 17.2284 78.6798 17.1641 79.1409 17.1926C79.602 17.2212 80.0527 17.3421 80.4662 17.548Z" fill="#FFF59E"/>
<path d="M54.8748 31.0121C55.3513 32.895 55.0054 37.9287 54.5366 37.9287C54.3599 37.9287 50.2253 36.9143 50.2022 37.0603C47.8122 36.9066 36.7687 35.1313 35.8465 35.0699C35.4084 35.0699 37.0915 27.8382 37.714 23.2502C38.7515 15.519 38.8283 15.8879 38.9513 15.9033C46.2137 17.1482 49.7565 20.3529 52.9535 25.8939C53.6221 27.062 53.453 25.8939 49.0572 30.2821C48.842 30.5049 49.0572 30.8277 49.3108 30.674C53.8757 27.6845 53.284 24.7411 54.8748 31.0121Z" fill="#FFF59E"/>
<path d="M35.3011 35.5622C37.4529 36.3308 54.5907 37.9523 54.3755 38.8207C53.1009 43.797 50.0258 48.1235 45.7452 50.9632C37.4914 55.9508 31.4355 52.9997 28.8918 52.2773C28.446 52.1467 30.0138 49.8949 30.4826 48.1504C30.4826 48.0736 30.252 47.9814 30.1598 48.0966C29.6449 48.7345 28.3845 52.0545 27.9849 51.9392C27.2856 51.8162 23.4584 48.9189 22.1135 47.405C19.1778 44.1004 17.4256 41.1877 17.3026 36.7073C17.2565 34.9321 17.3949 30.444 18.1403 29.076C18.2863 28.8224 19.3161 26.3324 19.9309 25.3641C21.1913 23.366 21.468 23.3583 22.0059 22.4054C23.0818 20.5456 28.7688 16.7184 32.181 16.0498C34.0056 15.6357 35.8883 15.5421 37.745 15.7731C38.5135 15.8346 38.3598 15.1737 37.3915 20.9759C37.2608 21.7445 36.7843 25.3795 36.7382 25.6331C36.3617 27.8003 34.6402 35.3163 35.3011 35.5622Z" fill="#D3FFCF"/>
<path d="M74.0954 124.778C74.0967 125.264 73.9738 125.742 73.7385 126.167C73.5031 126.592 73.163 126.95 72.7505 127.206C72.1679 127.353 71.5622 127.384 70.9676 127.298C69.6304 127.222 68.662 125.877 68.2932 124.701C67.8013 123.102 68.5391 120.659 70.3451 120.697C71.0221 120.656 71.6962 120.814 72.2846 121.152C72.873 121.489 73.3502 121.99 73.6574 122.595C73.9133 123.296 74.061 124.032 74.0954 124.778Z" fill="white"/>
<path d="M119.637 75.1094C120.175 78.6983 116.64 89.7111 116.64 89.7111C115.595 92.7083 115.871 90.7101 113.466 97.3347C112.943 98.7564 112.974 100.001 110.446 100.539C109.354 100.77 108.547 100.432 107.418 100.078C106.48 99.5269 105.632 98.8349 104.905 98.0263C103.817 96.7866 102.547 95.7191 101.139 94.8601C99.9402 93.9379 99.7096 93.6458 96.2744 90.4796C95.3829 89.665 96.2744 89.811 97.3119 88.5967C100.563 84.8772 100.501 84.6697 101.016 83.7551C101.239 83.3478 104.997 86.8292 105.035 86.8906C106.102 88.1376 107.429 89.1346 108.924 89.811C109.065 89.9048 109.192 90.0187 109.301 90.1491C111.122 91.9705 111.084 92.3624 111.483 92.1396C112.052 91.8168 110.146 90.1952 109.823 89.7649C109.293 89.0732 107.871 88.6121 108.378 88.5429C110.684 88.2432 111.291 89.4575 111.983 89.5343C112.329 89.5343 112.544 89.3115 112.229 88.9656C112.083 88.8119 112.229 89.0502 111.068 88.3431C110.192 87.8052 109.962 87.7975 108.478 87.8205C108.202 87.8205 107.848 87.2288 108.286 86.614C108.924 85.7302 109.124 85.6149 109.823 81.7109C110.592 77.2305 109.654 81.6648 111.921 73.703C112.475 71.751 113.574 70.8595 113.458 69.8605C113.274 69.8605 111.883 72.8346 111.084 75.4245C110.914 75.9778 110.215 77.6224 109.823 79.267C109.6 80.1739 108.993 85.1308 108.325 85.8916C107.049 87.3364 108.232 87.9742 107.748 88.4123C107.656 88.5583 105.819 86.7984 105.704 86.6601C104.774 85.5688 98.7874 81.8492 99.2331 81.1653C99.8403 79.9587 109.17 74.1795 109.224 74.1641C109.477 73.9643 109.931 73.3265 109.777 73.0421C108.471 70.6751 106.595 70.2063 107.387 70.0219C111.729 68.9998 111.552 70.9979 111.429 64.8882C111.429 64.3887 112.198 65.5261 114.596 67.286C115.456 67.9315 119.038 68.823 119.591 71.9893C119.806 73.5801 119.399 73.534 119.637 75.1094Z" fill="#FF9C9F"/>
<path d="M116.648 56.2347C116.578 57.5777 116.133 58.8743 115.364 59.9774C114.871 60.6088 114.254 61.132 113.55 61.5144C113.305 61.6681 113.451 61.2531 113.474 60.8535C113.527 59.7699 113.512 59.3165 112.467 57.741C112.421 57.6719 112.152 57.4567 111.99 57.5796C111.829 57.7026 111.99 59.5316 111.314 60.3616C111.181 59.7677 111.004 59.1846 110.784 58.6171C110.015 56.8265 109.892 58.2559 109.593 59.0629C109.482 59.5075 109.265 59.9185 108.96 60.26C108.654 60.6015 108.27 60.8633 107.84 61.0225C107.633 61.1378 107.618 61.0226 107.771 58.5095C107.917 56.1425 107.871 56.2501 108.117 56.3193C108.444 56.4763 108.816 56.5154 109.169 56.4299C109.522 56.3445 109.834 56.1398 110.054 55.8505C110.873 54.9506 111.44 53.8504 111.698 52.6612C111.89 50.3556 109.531 49.7255 108.624 50.7553C108.293 51.1141 107.913 51.4246 107.495 51.6775C106.964 51.9465 106.872 51.8773 106.542 51.5315C106.265 51.2725 106.054 50.951 105.927 50.5939C105.781 50.1097 107.033 50.9167 107.21 50.4479C107.525 49.6256 101.708 49.3258 100.893 43.393C100.793 42.6782 101.024 42.9165 101.101 42.2094C101.101 42.1095 100.762 42.0557 100.547 42.2094C98.7413 43.5467 98.5184 43.7465 97.2196 44.1691C96.5537 44.455 95.8647 44.6838 95.16 44.8531C93.3463 45.1298 92.0091 44.8531 92.3703 44.7763C93.007 44.6398 93.6103 44.3786 94.1456 44.0078C95.1446 43.2393 94.3761 43.6542 95.3982 43.416C99.456 42.4707 98.6106 41.3026 97.7499 41.8252C96.9497 42.3328 96.0505 42.664 95.1123 42.7965C94.174 42.929 93.2183 42.8599 92.3088 42.5937C95.8978 41.6484 95.5981 38.0672 98.8719 37.2141C100.801 36.7223 104.006 36.5763 104.851 37.6983C103.807 37.9037 102.846 38.4084 102.084 39.1508C101.823 39.4582 102.246 39.7118 102.484 39.512C105.074 37.314 110.507 37.6676 112.713 40.634C114.142 42.5553 114.342 43.9616 114.181 45.2451C114.122 46.1746 113.903 47.0871 113.535 47.9425C113.443 48.1423 113.358 48.1193 112.651 47.6812C109.623 45.8522 109.7 43.8003 109.009 44.2076C108.555 44.4535 110.315 47.2278 112.797 48.542C113.904 49.1337 113.704 49.0184 113.789 49.1107C111.898 49.8792 107.418 48.6034 105.22 45.3603C104.665 44.3924 104.232 43.36 103.929 42.2863C103.783 42.0173 103.375 42.1787 103.445 42.44C103.982 44.3613 104.497 47.0126 109.039 49.1952C111.714 50.4863 112.882 49.518 113.351 50.0867C114.356 50.7687 115.181 51.6843 115.756 52.755C116.33 53.8258 116.636 55.0198 116.648 56.2347Z" fill="#585858"/>
<path d="M115.341 112.267C115.341 112.52 116.678 115.756 116.156 115.764C110.3 115.81 112.198 115.625 109.316 116.132H108.863C104.889 116.524 108.24 116.286 104.252 116.34C103.644 116.34 98.2495 116.747 98.2033 115.986C98.1572 115.226 98.4185 117.823 96.9276 108.217C96.3051 104.19 96.2667 104.005 95.3522 101.761C94.9218 100.693 95.9977 96.912 96.1975 94.2991C96.4588 90.91 96.7432 91.6324 96.82 91.7092C102.584 97.0888 102.791 96.5047 103.521 97.5268C104.548 98.7174 105.741 99.7529 107.064 100.601C108.244 101.223 109.606 101.403 110.907 101.108C111.96 100.762 111.675 100.739 112.198 101.615C114.165 105.066 113.52 105.857 114.788 110.515C115.02 111.083 115.205 111.669 115.341 112.267ZM99.1256 111.729C99.1111 111.618 99.0568 111.516 98.9726 111.442C98.8885 111.368 98.7803 111.327 98.6683 111.327C98.5563 111.327 98.4481 111.368 98.364 111.442C98.2798 111.516 98.2255 111.618 98.211 111.729C98.2026 111.794 98.2081 111.86 98.2272 111.923C98.2463 111.985 98.2786 112.043 98.3219 112.093C98.3651 112.142 98.4184 112.181 98.4782 112.208C98.5379 112.235 98.6027 112.249 98.6683 112.249C98.7339 112.249 98.7987 112.235 98.8584 112.208C98.9181 112.181 98.9714 112.142 99.0147 112.093C99.058 112.043 99.0903 111.985 99.1094 111.923C99.1285 111.86 99.134 111.794 99.1256 111.729ZM98.2495 106.68C98.3494 106.188 97.4809 105.75 97.3657 106.488C97.2504 107.225 98.1649 107.41 98.2495 106.68ZM97.7192 95.9745C97.8461 95.9539 97.9603 95.8852 98.0378 95.7826C98.1153 95.68 98.1503 95.5514 98.1355 95.4237C98.1206 95.2959 98.0571 95.1788 97.9581 95.0968C97.859 95.0147 97.7322 94.974 97.6039 94.9831C97.4812 95.0049 97.371 95.0717 97.295 95.1706C97.2191 95.2695 97.1828 95.3932 97.1934 95.5174C97.204 95.6416 97.2607 95.7574 97.3523 95.8419C97.4439 95.9265 97.5638 95.9738 97.6884 95.9745H97.7192ZM97.2888 101.001C97.2949 100.876 97.2514 100.755 97.1678 100.662C97.0842 100.57 96.9674 100.515 96.8431 100.509C96.7187 100.503 96.5971 100.546 96.5048 100.63C96.4126 100.713 96.3573 100.83 96.3512 100.954C96.3299 101.023 96.3245 101.095 96.3354 101.166C96.3463 101.236 96.3732 101.303 96.4141 101.362C96.455 101.421 96.5088 101.469 96.5713 101.504C96.6339 101.539 96.7035 101.559 96.7749 101.562C96.8463 101.566 96.9176 101.553 96.9834 101.525C97.0491 101.497 97.1075 101.454 97.1541 101.4C97.2008 101.346 97.2344 101.281 97.2524 101.212C97.2704 101.143 97.2724 101.071 97.2581 101.001H97.2888Z" fill="#FF9C9F"/>
<path d="M113.089 116.793C113.381 120.39 111.591 119.66 113.013 130.081C113.013 130.335 108.017 129.873 99.6559 129.074C99.3331 129.074 99.4868 129.282 98.9796 126.907C98.598 126.005 98.2771 125.078 98.019 124.133C97.1198 120.482 95.2677 121.558 92.9545 121.059C92.7032 120.99 92.4458 120.947 92.186 120.928C91.771 120.928 91.7864 121.32 92.0861 121.474C93.0083 121.919 93.5232 122.012 93.6231 122.965C93.8153 124.993 93.6231 126.431 93.7768 127.891C93.8844 128.782 93.9997 128.582 90.9718 128.313C90.7335 128.313 90.8334 128.275 90.4799 126.684C89.4194 121.904 89.2657 123.433 90.2494 121.412C91.1259 119.545 91.5398 117.494 91.4559 115.433C91.4559 115.149 91.748 115.187 91.9631 113.896C92.0093 113.643 91.9631 113.804 92.8469 110.561C93.1005 109.608 92.455 114.265 93.2696 119.114C93.3388 119.514 93.5386 119.583 93.5616 119.56C94.0996 118.884 93.2158 119.23 93.5616 109.815C93.5616 109.3 94.2533 109.946 96.3821 109.931C96.8124 109.931 96.6203 109.631 97.2659 114.426C97.4248 115.027 97.5531 115.635 97.6501 116.248C97.8269 117.554 103.114 117.016 104.375 117.016C111.222 117.016 110.261 116.248 112.198 116.524C112.782 116.601 113.059 116.363 113.089 116.793ZM95.8441 120.475C96.3052 119.998 95.7365 120.475 95.7365 113.204C95.8032 112.477 95.7852 111.745 95.6827 111.022C95.6366 110.853 95.1909 110.784 95.2216 111.322C95.2216 111.337 95.0141 121.335 95.8441 120.475Z" fill="#C5CDF3"/>
<path d="M110.4 63.2588C110.653 63.9743 110.777 64.7287 110.769 65.4875C110.723 68.3079 110.938 68.8458 110.431 68.9688C109.892 69.1155 109.336 69.1828 108.778 69.1686C108.182 69.217 107.593 69.3251 107.018 69.4914C106.588 69.5529 106.142 69.9602 106.411 70.3367C107.003 71.1514 107.948 71.5664 108.463 72.4578C109.431 74.064 110 72.4578 104.006 76.7692C102.093 77.9155 100.323 79.2854 98.7338 80.8499C98.6185 80.9575 98.5955 80.9345 98.2035 80.5425C97.5272 79.8816 97.289 79.7279 97.3351 79.0747C97.3351 79.0286 100.878 72.8344 102.546 70.7056L107.679 63.6661C107.987 63.1819 107.81 62.6209 107.733 61.9523C107.687 61.5911 108.21 61.5219 108.502 61.6219C109.276 61.9779 109.934 62.5453 110.4 63.2588Z" fill="#FF9C9F"/>
<path d="M109.309 50.9702C110.215 50.3093 112.536 52.0923 109.685 55.3431C109.6 55.4689 109.49 55.5764 109.362 55.6591C109.235 55.7418 109.092 55.7981 108.942 55.8246C108.792 55.8511 108.639 55.8473 108.49 55.8134C108.342 55.7796 108.202 55.7163 108.079 55.6274C107.426 55.2585 107.433 55.7427 107.249 57.4949C106.327 66.0484 109.654 60.0156 102.146 70.1983C102.014 70.4283 101.821 70.6169 101.588 70.7429C101.355 70.8688 101.091 70.9271 100.826 70.9111C100.562 70.8951 100.307 70.8055 100.091 70.6524C99.8745 70.4993 99.7052 70.2888 99.6022 70.0446C99.2563 69.0533 99.0494 68.0188 98.9874 66.9706C99.0817 66.3971 99.2658 65.8421 99.5331 65.326C99.6868 65.034 99.8866 65.2338 99.9788 65.1108C100.417 64.5498 100.232 62.1828 100.555 62.0368C101.032 61.8523 103.191 60.3691 103.26 60.3307C103.714 60.1309 103.345 59.8235 103.099 59.9003C97.289 61.7063 96.1209 62.3903 94.5916 58.1174C94.4302 57.6793 93.823 56.1039 93.3235 54.782C92.824 53.4602 93.7462 52.4304 93.9153 51.8924C94.2841 50.7243 93.9691 51.1239 94.2457 50.8012C94.4916 51.1009 94.2457 51.1009 94.4455 51.3852C94.4694 51.4376 94.5077 51.482 94.5561 51.5132C94.6045 51.5443 94.6608 51.5609 94.7184 51.5609C94.7759 51.5609 94.8322 51.5443 94.8806 51.5132C94.929 51.482 94.9674 51.4376 94.9912 51.3852C95.0911 51.1854 94.9912 51.0625 95.2064 51.17C95.8135 51.5389 95.9749 50.1864 94.3379 50.2325C94.0382 50.2325 94.0767 50.1018 93.8845 48.7416C93.823 48.2881 94.8221 48.0499 95.337 48.1729C95.3931 48.1949 95.4546 48.199 95.5132 48.1846C95.5717 48.1703 95.6244 48.1382 95.6639 48.0927C95.7035 48.0473 95.728 47.9907 95.7342 47.9307C95.7403 47.8708 95.7277 47.8104 95.6982 47.7579C95.2064 46.9894 93.8461 48.0115 93.9076 47.6426C93.9112 47.1072 93.973 46.5738 94.092 46.0518C94.1612 45.8597 93.9537 45.6675 94.361 45.606C99.5561 44.8375 100.302 42.7395 100.355 43.4773C100.509 44.8344 101.003 46.1307 101.792 47.2458C102.581 48.3609 103.638 49.2587 104.867 49.8559C105.289 50.025 104.966 50.8857 106.196 52.0923C107.295 53.1297 108.24 51.7695 109.309 50.9702ZM110.123 52.4381C110.523 52.7762 110.615 52.2613 110.615 52.2383C110.59 52.0608 110.518 51.8935 110.405 51.7543C110.292 51.6151 110.144 51.5094 109.975 51.4485C109.807 51.3876 109.625 51.3739 109.449 51.4088C109.273 51.4437 109.11 51.5259 108.978 51.6465C108.571 51.9847 107.902 52.9837 108.479 53.5294C108.886 53.9059 108.901 53.9136 108.678 53.9674C108.156 54.0981 108.11 54.6898 108.532 54.6514C109.301 54.5822 109.301 54.3824 109.501 53.9905C109.501 53.4064 109.139 53.3603 108.978 53.1682C108.701 52.83 109.093 52.2152 109.508 52.0308C109.923 51.8463 110.046 52.3766 110.123 52.4381ZM102.707 50.3554C102.822 50.1402 102.761 50.0019 102.184 49.4563C100.647 48.0115 99.8789 48.0499 98.6877 48.6493C98.3572 48.8184 98.5186 49.3564 98.8952 49.2027C101.324 48.1729 102.284 51.1239 102.707 50.3554ZM101.839 51.7849C102.046 51.4775 101.716 51.1777 101.47 51.3929C101.039 51.7849 99.8482 51.3929 99.3179 51.3391C98.388 51.2623 97.9653 52.2921 98.4802 52.2536C98.7953 52.2536 98.826 51.9232 98.9951 52.2536C99.2333 52.7378 99.7636 52.7378 99.7636 52.1153C99.7636 52.0154 99.8328 51.9693 99.9173 52.0154C100.425 52.246 101.493 52.2767 101.839 51.7695V51.7849ZM96.1901 54.9665C97.2813 54.9204 97.1737 54.075 96.6127 54.198C96.4609 54.2738 96.2921 54.3094 96.1225 54.3014C95.953 54.2933 95.7884 54.2418 95.6444 54.1519C95.214 53.8983 95.6444 53.6754 96.0825 53.4756C96.5205 53.2758 96.7126 52.6225 96.3361 52.4842C95.9595 52.3459 96.167 52.8147 95.629 53.0068C94.5224 53.4295 94.5224 54.7206 96.1901 54.9665Z" fill="#FFE4CC"/>
<path d="M102.153 132.102C103.967 132.44 105.058 131.91 101.654 134.162C100.347 135.03 97.212 136.821 96.9891 136.967C94.5683 138.504 93.5231 139.526 93.3771 139.003C92.9314 137.405 92.6086 139.103 100.401 133.578C100.632 133.416 101.008 132.809 100.401 132.625C100.189 132.578 99.9729 132.548 99.7557 132.533C99.6328 132.533 99.5867 132.617 99.579 132.709C99.5175 133.608 102.568 131.741 96.4435 135.591C94.7912 136.629 93.4309 137.474 93.2695 137.566C93.1081 137.659 93.062 137.566 92.7469 136.091C92.6855 135.806 92.8776 136.045 93.1312 135.883C96.0976 134 98.2648 132.717 97.1659 132.648C96.9123 132.648 92.7008 132.187 92.6931 132.225C91.9861 132.225 91.8401 132.271 91.7709 131.979C91.4097 130.442 91.0793 131.464 95.698 131.349C95.7057 131.349 100.655 131.818 102.153 132.102Z" fill="#D9D9D9"/>
<path d="M99.633 62.3139C99.9096 62.1756 99.7175 62.7443 99.802 62.752C99.4178 65.4417 99.5484 63.6588 98.7799 65.5955C97.1737 69.6839 96.3591 74.8714 96.1593 74.0491C95.3908 70.975 94.6223 72.3353 94.9835 70.9212C96.2131 66.1641 95.898 66.6406 96.1516 66.4331C96.9201 65.8721 96.7203 64.0354 97.1968 63.7126C97.9465 63.1453 98.7651 62.6754 99.633 62.3139Z" fill="#FF9C9F"/>
<path d="M98.3267 81.4952C98.4343 81.5643 98.4651 81.6566 98.3267 81.7872C97.7042 82.5019 96.5054 84.0543 96.1903 84.3694C95.8752 84.6845 96.1903 84.6384 93.9462 81.7488C93.2238 80.8112 92.8857 81.0264 92.317 79.8275C90.6954 76.4307 92.1018 78.0215 89.7425 75.9004C89.412 75.6161 89.0816 75.3394 89.3352 74.9859C89.8885 74.2174 91.0643 76.6075 91.5024 76.1156C91.9404 75.6238 89.6272 74.0714 89.1584 73.5027C88.828 73.1107 89.266 72.6957 89.4658 72.811C90.1444 73.185 90.7721 73.6448 91.3333 74.179C91.8636 74.6017 92.2171 74.4172 92.2171 74.0406C91.2411 71.7351 88.6128 70.5747 88.7665 70.1289C88.8741 69.8446 89.4274 70.1981 89.9269 70.4286C90.8179 70.7279 91.6135 71.2583 92.2324 71.9657C93.001 72.7803 93.1086 72.9417 93.2392 72.9724C93.585 73.0569 93.6619 72.6266 93.4467 72.396C90.9721 69.7216 91.8328 70.6823 90.8568 70.006C89.0047 68.7072 88.9509 68.7072 89.0816 68.3614C89.2122 68.0155 91.4563 69.3527 91.6868 69.4988C93.4544 70.6515 93.2853 70.6976 94.6994 72.2654C95.1717 72.7238 95.4612 73.3384 95.514 73.9945C95.514 74.1252 96.3978 76.984 96.613 78.352C96.7974 79.4971 96.613 79.889 97.1893 80.3885C97.5442 80.7815 97.9242 81.1512 98.3267 81.4952Z" fill="#FFE4CC"/>
<path d="M96.3898 63.3511C96.5205 63.4895 96.3898 63.9736 96.3206 63.9429C96.1292 63.8906 95.9437 63.8185 95.7673 63.7277C95.7212 63.7277 95.6444 63.6893 95.6828 63.451C95.6891 63.3173 95.715 63.1853 95.7596 63.0591C95.8788 63.0635 95.9959 63.0917 96.1041 63.1418C96.2122 63.1919 96.3094 63.2631 96.3898 63.3511Z" fill="#969696"/>
<path d="M95.7214 64.1885C96.1287 64.3345 96.2824 64.3345 96.2363 64.542C96.1518 64.9186 96.1441 65.0953 95.7829 64.9493C95.6292 64.8878 95.4678 64.8571 95.4371 64.7803C95.4063 64.7034 95.4371 64.6266 95.5139 64.4575C95.5908 64.2884 95.5216 64.0963 95.7214 64.1885Z" fill="#969696"/>
<path d="M95.9823 65.4567C95.95 65.6829 95.8658 65.8986 95.7364 66.0869C95.5827 66.1791 95.2676 65.987 95.137 65.8563C95.2463 65.6284 95.3288 65.3885 95.3829 65.1416C95.5673 65.2261 95.9439 65.2646 95.9823 65.4567Z" fill="#969696"/>
<path d="M95.4368 132.886C97.043 133.047 97.0199 132.824 95.0833 134.108C94.4011 134.217 93.7032 134.175 93.0391 133.985C94.5761 132.947 94.6683 132.901 94.8912 132.893C95.2677 132.878 95.4291 132.94 95.4368 132.886Z" fill="#D9D9D9"/>
<path d="M95.5673 90.3182C96.1437 91.4172 96.5203 90.3797 96.1975 92.7544C96.0207 94.0762 95.6519 96.497 94.9295 100.824C94.7911 101.838 95.4213 102.069 95.1293 102.707C90.2262 113.466 91.8708 115.694 90.8564 112.697C90.011 110.2 88.0744 108.962 88.0744 107.141C87.79 105.857 90.8103 103.49 89.473 101.208C88.7045 99.9323 87.229 99.1714 87.4519 98.8179C88.5739 97.0888 88.5816 97.1426 88.8044 97.1964C89.2237 97.273 89.6317 97.4021 90.0187 97.5806L90.549 97.8342C90.9486 97.9495 91.7248 97.4193 89.0119 96.5047C88.5893 96.3587 88.5739 96.0513 88.4125 95.0446C88.3357 94.5143 88.4125 94.3606 88.62 94.1838C89.181 93.6689 89.3193 93.2539 89.8957 93.4153C90.2395 93.5372 90.5995 93.6072 90.964 93.6228C91.279 93.6228 91.4865 93.2155 91.2483 93.0695C90.8261 92.9585 90.3975 92.8738 89.9649 92.8159C89.7574 92.7775 89.7343 92.5623 89.7343 92.2933C89.6476 91.2695 89.6656 90.2394 89.7881 89.2193C89.888 88.6506 88.8736 85.7072 89.0811 85.3229C89.1964 85.1077 90.9563 82.4333 91.11 82.2489C91.4404 81.903 91.671 80.1662 91.7863 80.2123C91.9015 80.2584 91.8785 80.3045 91.9476 80.4352C92.5394 81.5649 92.9698 81.4035 93.9381 82.7407C95.9208 85.515 95.1446 83.417 93.0082 87.175C92.6316 87.8206 92.5625 87.859 92.8084 88.1741C94.9833 90.9484 95.3137 89.811 95.5673 90.3182Z" fill="#FF9C9F"/>
<path d="M95.3217 62.9671C95.3308 63.1481 95.3127 63.3295 95.2679 63.5051C95.2064 63.605 95.0757 63.5051 94.8682 63.4513C94.6607 63.3975 94.6454 63.4513 94.6146 63.3514C94.5839 63.2515 94.6684 62.8518 94.7453 62.8057C94.8261 62.7864 94.9104 62.7864 94.9912 62.8057C95.1219 62.8826 95.2602 62.8749 95.3217 62.9671Z" fill="#969696"/>
<path d="M92.2704 65.7796C92.939 65.7258 95.3444 66.0563 95.3444 66.7172C95.2522 67.5472 94.4529 70.7365 94.3838 70.8594C93.7993 70.2109 93.1079 69.6677 92.3395 69.2533C91.7094 68.9305 91.4788 68.8383 91.6248 68.6077C91.6325 68.2542 91.9245 65.8103 92.2704 65.7796Z" fill="#D9D9D9"/>
<path d="M95.1756 64.0046C95.2678 64.0046 95.0988 64.5887 95.0296 64.6656C94.9604 64.7424 94.799 64.6656 94.6838 64.6271C94.5685 64.5887 94.4532 64.6271 94.4148 64.5119C94.4428 64.2819 94.5023 64.057 94.5915 63.8433C94.7837 63.9047 94.9989 63.9432 95.1756 64.0046Z" fill="#969696"/>
<path d="M94.3146 64.8958C94.5306 64.9388 94.7436 64.9952 94.9525 65.0648C94.8987 65.2493 94.8065 65.7334 94.6835 65.7181C94.5605 65.7027 94.1302 65.6566 94.1532 65.4952C94.1926 65.2918 94.2466 65.0915 94.3146 64.8958Z" fill="#969696"/>
<path d="M94.3456 62.7594C94.3456 62.9055 94.2995 63.2667 94.215 63.3128C93.9778 63.3218 93.7409 63.2879 93.5156 63.2129C93.4234 63.1668 93.4618 62.9439 93.5156 62.7441C93.5694 62.5443 93.5156 62.5904 93.6155 62.575C93.8507 62.5548 94.0874 62.5889 94.3072 62.6749C94.3533 62.698 94.3379 62.7287 94.3456 62.7594Z" fill="#969696"/>
<path d="M92.5242 134.415C93.7845 134.607 94.4916 134.507 94.1611 134.692C92.6702 135.545 92.6241 135.622 92.5319 135.268C92.3244 134.63 92.2322 134.43 92.5242 134.415Z" fill="#D9D9D9"/>
<path d="M94.1302 63.8427C94.1994 63.9426 94.1302 64.1347 94.0227 64.396C94.0227 64.4728 93.8997 64.4652 93.3694 64.396C93.3413 64.3959 93.3136 64.3888 93.2889 64.3752C93.2641 64.3617 93.2432 64.3422 93.2279 64.3186C93.2127 64.2949 93.2035 64.2678 93.2014 64.2397C93.1993 64.2116 93.2042 64.1835 93.2157 64.1577C93.2221 63.9983 93.267 63.8428 93.3464 63.7043C93.4002 63.6582 93.4847 63.7043 93.5769 63.7043C93.8536 63.7274 94.0688 63.7351 94.1302 63.8427Z" fill="#969696"/>
<path d="M93.1774 64.719C93.7845 64.719 93.9075 64.7805 93.8613 64.9265C93.7845 65.2185 93.8613 65.4721 93.6231 65.4491C93.4211 65.4398 93.2204 65.4115 93.0237 65.3645C92.9699 65.3645 93.0237 65.2646 93.0237 65.2108C93.0317 65.0704 93.0549 64.9313 93.0928 64.7958C93.0983 64.7764 93.1091 64.7589 93.1241 64.7453C93.139 64.7317 93.1575 64.7226 93.1774 64.719Z" fill="#969696"/>
<path d="M92.9853 62.4978C93.1544 62.4978 93.1544 62.736 93.0852 62.9512C93.0738 63.0225 93.0357 63.0868 92.9786 63.1311C92.9215 63.1753 92.8497 63.1962 92.7778 63.1894C92.3167 63.1894 92.1937 63.3508 92.1707 63.1894C92.1652 63.0676 92.1889 62.9461 92.2397 62.8352C92.2905 62.7243 92.3669 62.6271 92.4627 62.5516C92.6317 62.4997 92.8093 62.4814 92.9853 62.4978Z" fill="#969696"/>
<path d="M92.7705 64.2653C92.7705 64.3421 92.5399 64.3191 92.4093 64.3191C92.2786 64.3191 92.1095 64.3191 92.0788 64.2653C92.033 64.0652 92.0603 63.8553 92.1556 63.6735C92.2631 63.6426 92.3743 63.6271 92.4861 63.6274C92.9472 63.6197 92.978 63.5198 92.7705 64.2653Z" fill="#969696"/>
<path d="M92.5782 64.6809C92.632 64.6809 92.6551 64.7731 92.6397 64.8576C92.5936 65.1036 92.6397 65.2342 92.5398 65.2726C92.4399 65.3111 92.1094 65.3956 92.0018 65.2726C91.962 65.1831 91.9414 65.0862 91.9414 64.9883C91.9414 64.8903 91.962 64.7934 92.0018 64.7039C92.0018 64.6348 92.1325 64.7039 92.2016 64.6578C92.3275 64.6413 92.4553 64.6492 92.5782 64.6809Z" fill="#969696"/>
<path d="M92.0322 132.679C92.6676 132.647 93.3045 132.688 93.9305 132.801C93.8459 132.932 92.2244 134.154 92.1398 133.831C91.8862 132.94 91.7633 132.686 92.0322 132.679Z" fill="#D9D9D9"/>
<path d="M92.6317 139.019C92.6855 139.242 92.4934 139.219 92.2782 139.15C92.2782 139.15 68.2239 137.344 59.8164 136.529C58.3639 136.391 58.6175 136.529 57.8106 132.817C56.5854 127.399 55.0223 122.063 53.1304 116.84C49.8411 106.803 51.1092 110.254 59.8164 110.561C63.8972 110.707 77.6612 112.029 81.6881 112.436C87.2598 112.997 85.4846 108.355 92.6317 139.019ZM74.5103 124.702C74.5188 124.245 74.4512 123.791 74.3105 123.357C73.6034 119.399 68.0317 119.299 67.7397 122.78C67.7397 122.78 67.8242 122.888 67.8089 122.919C67.6398 123.249 67.8089 123.126 67.8089 124.41C68.0625 128.598 74.7485 129.267 74.5103 124.702Z" fill="#D9D9D9"/>
<path d="M90.849 77.745C91.0027 78.452 91.4715 78.9054 91.3793 79.282C90.972 80.819 90.7798 81.9103 90.4724 81.7182C90.165 81.526 89.3043 81.772 89.3274 80.9497C89.9806 77.4837 89.8115 76.792 90.0959 77.0226C90.7722 77.5836 90.8183 77.622 90.849 77.745Z" fill="#D9D9D9"/>
<path d="M90.7644 116.378C90.6723 118.253 90.1824 120.087 89.3272 121.758C89.0201 120.835 88.7888 119.889 88.6356 118.929C88.5895 118.53 87.2292 114.61 87.5289 114.726C87.897 114.84 88.2717 114.933 88.651 115.002C91.1794 115.679 90.7336 114.91 90.7644 116.378Z" fill="#C5CDF3"/>
<path d="M90.4032 113.534C90.5185 113.957 90.7951 114.687 90.4801 114.664C89.4141 114.562 88.3626 114.343 87.3445 114.011C87.0679 113.903 87.0679 113.811 86.9219 113.404C86.1534 111.198 81.5423 112.189 81.6653 111.69C82.9102 105.388 86.6145 100.101 86.8604 99.6397C86.968 99.4399 87.0294 99.5936 87.7826 100.301C88.14 100.544 88.4432 100.859 88.6733 101.226C88.9034 101.592 89.0554 102.002 89.1198 102.429C89.0633 103.217 88.798 103.976 88.3513 104.627C85.6 108.347 89.2889 109.623 90.4032 113.534Z" fill="#FF9C9F"/>
<path d="M91.3713 65.472C89.6345 65.8179 89.9035 66.6555 87.0293 68.915C86.1515 69.6748 85.3321 70.4994 84.5777 71.3819C83.1252 72.8036 82.9254 72.4578 82.0339 73.1341C80.2741 74.4713 80.2356 75.332 79.2135 75.9545C77.8148 76.8075 77.592 77.4224 76.908 77.2149C76.5352 77.1429 76.1493 77.1857 75.8013 77.3378C75.5862 77.407 75.4017 77.3378 75.394 77.6452C75.394 77.6452 75.2711 78.5136 75.2711 78.7058C75.2711 81.3341 76.3623 79.9584 76.1856 83.3937C76.0857 85.4225 75.1942 85.0075 75.4171 84.3927C75.6966 83.7834 75.8238 83.1153 75.7876 82.4459C75.7515 81.7764 75.5531 81.1259 75.2096 80.5502C74.4411 79.1131 75.2787 78.4829 74.4411 78.1601C74.0491 78.0218 71.0366 77.4377 69.6072 76.308C67.7935 74.8709 68.3699 75.3243 65.6493 74.233C65.4341 74.1485 65.5417 74.1485 65.3496 76.0852C65.2113 77.4531 64.8578 77.6222 64.5273 78.8287C64.1968 80.0353 63.6512 80.5425 62.752 81.6799C62.6214 81.8567 62.6368 81.7721 64.1277 82.8788C64.8184 83.4645 65.5963 83.939 66.4332 84.2851C70.6139 85.3149 67.8012 85.2688 71.5131 86.6906C74.7485 87.9356 76.8081 89.7031 79.5978 85.9221C80.3663 84.8538 80.9196 85.3149 82.4182 84.0776C83.132 83.4101 83.9813 82.9042 84.9082 82.5944C85.3866 82.3964 85.8263 82.1154 86.2069 81.7644C87.2368 81.0728 87.3443 81.1804 87.352 80.9959C87.3629 78.9713 87.4938 76.9492 87.744 74.9401C87.745 74.9045 87.7536 74.8695 87.7691 74.8375C87.7846 74.8054 87.8066 74.777 87.8338 74.754C87.861 74.731 87.8927 74.714 87.9269 74.7041C87.9611 74.6942 87.997 74.6916 88.0322 74.6965C88.0675 74.7014 88.1013 74.7137 88.1316 74.7325C88.1618 74.7513 88.1877 74.7763 88.2076 74.8058C88.2275 74.8353 88.241 74.8686 88.2472 74.9037C88.2534 74.9387 88.2521 74.9747 88.2435 75.0092C88.1359 78.0833 87.475 79.9661 88.6662 84.1622C88.6662 84.2851 88.7507 84.485 88.8199 84.4926C88.889 84.5003 88.9966 84.3159 89.0812 84.2083C89.1478 84.1317 89.1834 84.0331 89.1811 83.9316C89.0011 83.2233 88.9108 82.4952 88.9121 81.7644C88.9233 81.7294 88.9233 81.6918 88.9121 81.6568C88.3665 80.7346 90.0802 76.9228 89.2656 76.162C89.1269 76.066 89.0105 75.9414 88.9242 75.7965C88.838 75.6515 88.7839 75.4898 88.7657 75.3221C88.7475 75.1545 88.7655 74.9848 88.8186 74.8248C88.8717 74.6647 88.9587 74.5179 89.0735 74.3944C89.2426 74.2407 89.0735 74.2023 88.866 73.941C88.0129 72.9189 89.0889 71.8046 89.8727 72.2195C90.1878 72.3963 90.0956 72.3502 90.257 72.3271C90.1801 71.9429 88.6585 71.1206 88.2435 70.3444C88.0129 69.8987 88.597 69.33 89.281 69.5298C87.8746 68.8304 88.5125 67.5009 89.4347 67.8237C91.4251 68.5384 90.8641 69.207 91.356 66.7939C91.5327 65.7256 91.7556 65.3952 91.3713 65.472Z" fill="#FF9C9F"/>
<path d="M89.4963 82.0952C90.3647 82.4257 90.3724 82.0952 90.0189 82.6793C89.6654 83.2633 89.7653 83.248 89.5962 83.2787C89.4041 81.9722 89.4041 82.2028 89.4963 82.0952Z" fill="#969696"/>
<path d="M52.2311 68.8998C52.0928 69.1842 51.9391 69.384 51.8085 69.6683C51.6778 69.9527 51.6624 69.7298 50.6019 68.9383C50.1408 68.6001 47.1205 66.6942 46.0369 65.3954C45.8448 65.1649 46.2598 64.7653 46.3213 64.7883C48.2964 65.7797 49.0034 66.9017 52.2311 68.8998Z" fill="#FFE4CC"/>
<path d="M60.4158 72.4038C59.1324 71.4432 58.6943 70.2674 57.995 68.6304C57.6722 67.8619 55.2975 66.4248 54.0679 64.7187C53.5684 64.0194 53.0381 65.3105 55.0439 67.078C56.6655 68.4998 56.1352 67.4162 56.2889 69.4374C56.3888 70.7054 57.8259 71.912 57.8951 72.0196C58.0488 72.3423 57.6415 72.473 57.165 72.0196C56.4217 71.3421 55.9131 70.4459 55.7125 69.4604C55.6357 68.5997 55.6049 69.7448 53.407 68.0233C51.6702 66.64 50.4098 65.2874 49.7028 64.7034C48.6115 63.8273 48.0505 63.8426 48.1197 64.3268C48.1854 64.6112 48.32 64.8751 48.5116 65.0953C49.4415 66.0482 51.8623 67.7313 52.3541 68.1693C52.6462 68.446 52.7768 68.1693 52.9228 68.1693C52.9418 68.1698 52.9604 68.1741 52.9776 68.182C52.9948 68.19 53.0101 68.2013 53.0227 68.2154C53.4531 68.6612 52.1159 69.3451 51.7317 71.4278C51.6317 72.0119 51.5933 72.3039 51.332 72.2962C51.0707 72.2885 51.1168 72.058 51.1322 71.912C51.144 71.8568 51.1377 71.7993 51.1142 71.7481C51.0906 71.6968 51.0511 71.6546 51.0016 71.6276C50.7249 71.4662 50.1332 71.3356 49.6183 71.0897C48.6653 70.5978 47.5279 69.983 46.7594 69.6679C46.4674 69.5373 45.9909 69.8677 47.1052 70.8284C48.9727 72.3654 48.9573 72.0272 50.1408 72.5114C51.0519 72.8078 51.926 73.2075 52.7461 73.7026C53.8758 74.4019 54.6827 74.0638 55.9277 74.3481C57.8644 74.7862 60.6925 77.2301 60.8462 76.8535C61.2552 75.8008 61.5765 74.716 61.8068 73.6104C61.7376 73.4106 62.0066 73.595 60.4158 72.4038ZM52.5002 71.7583C52.4464 71.9888 52.1005 72.058 52.1005 71.5277C52.1005 70.9974 53.1688 68.6304 53.5838 68.9378C53.9988 69.2452 52.9536 69.9676 52.5002 71.7583ZM57.8106 73.4106C57.4801 73.3644 57.6338 73.3414 56.9729 72.8265C55.0362 71.3433 53.8451 71.9811 53.3609 71.8274C53.2533 71.8274 52.6923 71.3356 54.4368 71.3356C56.4119 71.105 58.7328 73.4874 57.8106 73.4106Z" fill="#FFE4CC"/>
<path d="M46.3444 67.3551C52.7768 71.3514 50.7095 69.7144 51.4857 70.4291C51.2321 71.2361 51.332 71.3129 50.7941 70.9825C50.5328 70.8211 47.3512 69.0766 47.0976 68.8998C45.3684 67.724 45.9909 67.1169 46.3444 67.3551Z" fill="#FFE4CC"/>
<path d="M99.8787 56.7425C99.4252 57.3957 97.0659 59.609 96.0976 58.049C96.0131 57.7492 96.0976 56.9423 95.9593 56.5119C95.8209 56.0816 99.6174 56.6042 99.8787 56.7425Z" fill="white"/>
<path d="M150.247 133.485L113.981 130.326C113.42 130.28 113.627 130.288 113.635 129.911C113.635 128.751 113.12 128.274 113.105 124.762C112.975 123.562 113.006 122.35 113.197 121.158C113.551 119.751 113.721 118.305 113.704 116.854C113.704 116.524 113.704 116.532 113.92 116.493C115.141 116.293 116.94 116.639 116.994 116.124C117.216 114.587 114.035 107.617 115.08 107.671C116.817 107.755 139.542 109.623 139.557 109.623C143.484 109.899 143.261 110.084 143.254 109.246C143.254 104.151 143.254 16.5717 142.961 11.0076C142.961 10.8924 142.823 10.8078 142.723 10.8001C137.205 10.1777 14.6435 5.61271 14.6281 5.61271C9.87106 5.48207 9.87106 5.22846 9.87106 6.03539C9.87106 104.919 9.40996 99.1556 10.2861 99.2632C11.2928 99.3939 81.0734 104.912 82.9486 105.081C83.3713 105.081 82.572 105.965 82.1109 107.655C82.1109 107.655 81.3885 110.199 81.012 111.313C80.7507 112.082 81.3501 111.544 71.0213 110.814C55.7972 109.738 52.1929 109.277 52.2697 109.277C52.0082 109.242 51.7433 109.308 51.528 109.46C51.3128 109.613 51.1632 109.841 51.1093 110.099C50.9171 111.06 51.6933 113.173 53.2995 118.476C53.8221 120.213 54.3601 122.372 55.0671 124.778C55.1209 124.962 55.1439 125.27 54.9441 125.247C54.7443 125.223 33.0724 123.364 32.9263 123.31C31.8427 123.102 33.7948 119.39 33.887 118.768C34.6555 113.557 31.0589 114.311 31.5814 111.974C31.689 111.452 31.4431 111.29 31.7582 111.167C32.2962 110.975 32.3423 110.476 32.2116 109.93C32.0272 109.162 32.35 109.254 32.3423 108.201C32.3423 107.325 30.2519 107.125 29.3758 107.194C27.3393 107.363 28.1385 109.031 27.9848 110.13C27.8311 111.229 28.7533 110.045 28.323 112.489C28.1462 113.573 25.956 114.341 25.833 116.608C25.6716 119.467 27.0242 121.22 26.6015 122.557C26.4248 123.056 5.08325 120.566 5.08325 121.127C5.08325 121.427 6.35898 121.604 6.7586 121.627C6.95073 121.627 25.6486 123.318 26.1097 123.348C26.5708 123.379 26.4709 122.864 25.2874 127.598C24.5188 130.572 24.9415 130.811 27.0472 131.787C29.153 132.763 34.6094 132.332 34.2943 130.388C34.0637 128.966 33.4412 126.945 32.9263 124.24C32.7957 123.556 32.2885 124.109 54.9826 125.838C55.3361 125.838 55.2976 125.792 55.6281 127.022C58.6099 138.296 56.8193 136.697 61.3612 137.327L90.8335 139.802C94.7375 139.802 91.7788 141.001 99.7636 136.19C100.332 135.844 104.421 133.347 104.697 132.593C105.036 131.648 103.806 131.687 102.792 131.518C102.023 131.387 93.5694 130.442 91.6328 130.472C91.2946 130.472 91.3945 130.472 91.041 129.12C90.9565 128.805 149.494 134.107 150.216 134.077C150.29 134.072 150.36 134.041 150.413 133.989C150.466 133.937 150.498 133.867 150.503 133.793C150.509 133.719 150.488 133.646 150.443 133.586C150.399 133.527 150.335 133.485 150.262 133.47L150.247 133.485ZM31.3125 110.537H31.3893C31.3893 108.885 31.3432 109.308 31.5738 109.215C31.8043 109.123 31.5738 109.607 31.7813 110.245C31.8427 110.514 31.3125 110.96 31.3125 110.537ZM31.7198 108.493C31.0896 109.046 28.6457 108.739 28.5996 108.07C28.5535 107.402 32.4038 107.878 31.7198 108.493ZM30.6208 109.315C31.105 109.277 30.9128 109.477 30.9128 110.576C30.9128 110.76 30.7899 110.745 30.6746 110.745C30.5593 110.745 30.4364 110.745 30.4441 110.576C30.4671 109.484 30.3518 109.338 30.6208 109.315ZM29.5295 109.238C30.0598 109.4 30.0598 109.238 30.0598 109.677V109.799C29.9676 110.699 30.0598 110.783 29.7524 110.729C29.1376 110.599 29.3989 110.591 29.3835 110.245C29.3681 109.177 29.2529 109.154 29.5295 109.238ZM28.9762 110.353C28.9762 110.645 28.4536 110.491 28.5305 110.122C28.5416 109.713 28.5133 109.304 28.4459 108.9C28.9839 108.977 29.03 109.085 28.9762 110.353ZM32.5651 131.364C30.8038 131.894 28.9191 131.848 27.1856 131.233C26.6346 131.078 26.1424 130.762 25.7715 130.326C25.149 129.919 25.3949 128.912 25.7177 127.798C28.0232 119.79 26.8397 121.873 26.3556 117.923C26.0636 115.494 27.0319 114.972 28.4536 113.358C28.7816 112.801 28.9292 112.157 28.8763 111.513C28.8763 111.021 28.7918 111.129 29.2682 111.206C31.3202 111.521 31.1357 110.945 31.0358 112.09C31.0358 114.257 31.5123 113.534 32.4268 114.756C35.0628 118.268 31.6583 120.236 32.104 123.102C33.1799 130.349 34.8476 130.488 32.5651 131.364ZM115.341 112.266C115.341 112.52 116.678 115.755 116.156 115.763C110.3 115.809 112.198 115.625 109.316 116.132H108.863C104.89 116.524 108.24 116.286 104.252 116.339C103.645 116.339 98.2496 116.747 98.2035 115.986C98.1574 115.225 98.4187 117.823 96.9278 108.216C96.3053 104.189 96.6357 104.328 95.7212 102.068C95.5819 101.8 95.5081 101.502 95.506 101.2C95.5675 100.539 95.7059 99.5245 95.898 98.1873C96.0594 97.1114 96.5512 92.9614 96.5973 92.5465C96.6665 91.8625 96.8202 91.8241 96.8817 91.8855C102.645 97.2651 102.792 96.4966 103.522 97.511C104.548 98.7016 105.741 99.7371 107.064 100.585C108.244 101.207 109.607 101.387 110.907 101.092C111.96 100.746 111.675 100.723 112.198 101.599C114.165 105.05 113.52 105.842 114.788 110.499C115.021 111.072 115.206 111.663 115.341 112.266ZM90.749 116.378C90.6569 118.253 90.167 120.087 89.3119 121.757C89.0048 120.835 88.7734 119.889 88.6202 118.929C88.5741 118.53 87.2138 114.603 87.5135 114.726C87.8816 114.84 88.2563 114.933 88.6356 115.002C91.1793 115.679 90.7336 114.91 90.7643 116.378H90.749ZM88.0592 107.102C87.7748 105.819 90.7951 103.452 89.4579 101.169C88.6894 99.8934 87.2138 99.1403 87.4367 98.7791C88.5587 97.0499 88.5664 97.1037 88.7893 97.1575C89.2085 97.2341 89.6165 97.3632 90.0035 97.5418L90.5338 97.7954C90.9334 97.9106 91.7096 97.3804 88.9968 96.4659C88.5741 96.3198 88.5587 96.0124 88.3973 95.0057C88.3205 94.4754 88.3973 94.3217 88.6048 94.145C89.1658 93.6301 89.3042 93.2151 89.8806 93.3764C90.2241 93.4992 90.5843 93.5691 90.9488 93.5839C91.2639 93.5839 91.4714 93.1766 91.2331 93.0306C90.811 92.9196 90.3823 92.835 89.9497 92.777C89.7422 92.7386 89.7192 92.5234 89.7192 92.2544C89.6324 91.2306 89.6504 90.2006 89.773 89.1804C89.8729 88.6117 88.8584 85.6683 89.0659 85.284C89.1812 85.0689 90.9411 82.3944 91.0948 82.21C91.4253 81.8642 91.6558 80.1273 91.7711 80.1735C91.8864 80.2196 91.8633 80.2657 91.9325 80.3963C92.5242 81.526 92.9546 81.3646 93.9229 82.7019C95.9057 85.4762 95.1295 83.3781 92.993 87.1361C92.6164 87.7817 92.5473 87.8201 92.7932 88.1352C94.9681 90.9633 95.2063 89.9412 95.4676 90.4407C95.9057 91.2784 96.2899 90.9018 96.2361 91.6166C95.9979 92.7002 95.7289 94.8136 94.8912 100.839C94.7529 101.853 95.3831 102.084 95.091 102.722C90.188 113.481 91.8326 115.709 90.8181 112.712C90.0112 110.161 88.0746 108.923 88.0746 107.102H88.0592ZM87.698 74.9476C87.4478 76.9567 87.317 78.9789 87.3061 81.0034C87.3061 81.2033 87.1908 81.0957 86.161 81.772C85.7803 82.1229 85.3406 82.4039 84.8622 82.6019C83.9353 82.9117 83.086 83.4176 82.3722 84.0852C80.8352 85.3225 80.3434 84.8537 79.5518 85.9296C76.7621 89.6799 74.7025 87.92 71.4671 86.6981C67.7552 85.2764 70.5679 85.3225 66.3872 84.2927C65.5503 83.9465 64.7725 83.472 64.0817 82.8863C62.5908 81.7796 62.5447 81.8642 62.7061 81.6874C63.6052 80.55 64.1586 80.0198 64.4813 78.8363C64.8041 77.6527 65.1653 77.4606 65.3036 76.0927C65.4958 74.156 65.3882 74.156 65.6033 74.2406C68.3316 75.3318 67.7475 74.8784 69.5612 76.3155C70.9906 77.4453 74.0032 78.0293 74.3951 78.1676C75.2635 78.4904 74.4643 79.1206 75.1636 80.5577C75.5071 81.1334 75.7055 81.784 75.7416 82.4534C75.7778 83.1228 75.6506 83.7909 75.3711 84.4003C75.1482 85.0151 76.1934 85.284 76.2933 83.2629C76.348 82.5882 76.2696 81.9093 76.0628 81.2647C75.8092 80.3272 75.3404 80.3502 75.348 78.5442C75.348 78.3444 75.4095 77.7757 75.4095 77.7757C75.4026 77.6737 75.4343 77.5727 75.4984 77.493C75.5625 77.4133 75.6542 77.3605 75.7554 77.3453C76.1033 77.1933 76.4892 77.1504 76.862 77.2224C77.5229 77.4299 77.7458 76.8151 79.1675 75.962C80.1897 75.3395 80.2281 74.4788 81.988 73.1416C82.8794 72.4653 83.0792 72.8111 84.5317 71.3894C85.2861 70.507 86.1056 69.6823 86.9833 68.9225C89.8498 66.6631 89.5885 65.8484 91.3253 65.4796C91.7096 65.4027 91.4867 65.6947 91.2639 66.8014C90.772 69.2145 91.3484 68.4998 89.3426 67.8312C88.4588 67.4854 87.8056 68.8456 89.1889 69.5373C88.5049 69.3375 87.9209 69.9062 88.1514 70.3519C88.5664 71.1204 90.0881 71.9504 90.1649 72.3347C90.0035 72.3347 90.1034 72.4038 89.7806 72.2271C89.0121 71.8121 87.9209 72.9264 88.7739 73.9485C88.9891 74.2098 89.1505 74.2483 88.9814 74.402C88.8666 74.5255 88.7796 74.6722 88.7265 74.8323C88.6734 74.9924 88.6554 75.162 88.6736 75.3296C88.6918 75.4973 88.7459 75.6591 88.8322 75.804C88.9184 75.9489 89.0348 76.0736 89.1735 76.1695C89.9881 76.938 88.2897 80.7345 88.82 81.6644C88.9122 81.8027 88.7432 82.0409 88.9045 82.7557C89.0967 83.9007 89.2043 84.016 89.0198 84.2158C88.8354 84.4156 88.9276 84.5386 88.7585 84.5002C88.5895 84.4617 88.6432 84.2927 88.6048 84.1697C87.3906 79.9736 88.0746 78.0677 88.1822 75.0168C88.1977 74.981 88.2048 74.942 88.2029 74.9031C88.2009 74.8641 88.19 74.826 88.171 74.792C88.1519 74.7579 88.1253 74.7287 88.0931 74.7066C88.0609 74.6845 88.0241 74.6701 87.9854 74.6646C87.9468 74.6591 87.9074 74.6625 87.8703 74.6747C87.8332 74.6869 87.7995 74.7075 87.7716 74.7349C87.7438 74.7623 87.7227 74.7958 87.7099 74.8326C87.6972 74.8695 87.6931 74.9089 87.698 74.9476ZM51.4858 70.4364C51.2322 71.2434 51.3321 71.3202 50.7942 70.9898C50.5329 70.8284 47.528 69.0685 47.2744 68.8917C46.4214 68.3077 46.014 67.8927 46.0217 67.593C46.0294 67.2932 46.2215 67.3624 46.3906 67.4623C52.823 71.4586 50.7096 69.7141 51.4858 70.4364ZM50.602 68.9379C49.6875 68.2616 46.6596 66.2173 46.1216 65.3643C45.9756 65.103 46.3061 64.8648 46.4444 64.9493C46.9132 65.1568 47.6663 65.7793 49.4647 67.0243C50.1947 67.5315 51.0939 68.2001 52.2313 68.8994C52.093 69.1838 51.9393 69.3836 51.8086 69.6679C51.678 69.9523 51.6626 69.7294 50.602 68.9379ZM51.1554 71.8736C51.1554 72.0273 51.1554 72.2348 51.3398 72.2578C51.5243 72.2809 51.6472 71.9965 51.7548 71.3894C52.1391 69.3067 53.4763 68.6228 53.0459 68.177C52.8768 67.9849 52.7308 68.4614 52.3773 68.1309C52.0238 67.8005 50.3484 66.494 49.2418 65.541C48.5271 64.957 48.2965 64.6188 48.2965 64.3652C48.2965 64.1116 48.4118 63.9579 48.7499 64.1577C49.1075 64.4271 49.4512 64.7144 49.7797 65.0185L53.4455 68.031C55.605 69.7525 55.6358 68.6074 55.7511 69.4681C55.9516 70.4536 56.4602 71.3498 57.2035 72.0273C57.68 72.4884 58.0873 72.3577 57.9336 72.0273C57.8875 71.9197 56.3966 70.7131 56.3274 69.4451C56.1737 67.4239 56.6963 68.5075 55.0825 67.0857C53.0767 65.3182 53.6069 64.0117 54.1064 64.7264C55.3438 66.4325 57.7108 67.8927 58.0335 68.6381C58.7329 70.2751 59.1709 71.4509 60.4543 72.4115C62.0375 73.6104 61.7685 73.3875 61.8761 73.6181C61.6458 74.7237 61.3245 75.8085 60.9154 76.8612C60.7617 77.2378 57.9336 74.7939 55.997 74.3558C54.752 74.0715 53.7683 74.1714 52.654 73.449C51.0247 72.3654 48.9882 72.1272 47.1745 70.7746C46.6827 70.4364 46.5366 70.129 46.6289 69.9369C46.6631 69.8925 46.7108 69.8603 46.7647 69.8451C46.8187 69.8299 46.8762 69.8324 46.9286 69.8524C48.2581 70.4288 47.8662 70.2597 49.7106 71.1358C50.602 71.5508 51.1861 71.5892 51.1554 71.8736ZM62.4448 73.6488C62.6446 71.7506 62.7291 72.8803 64.1201 73.5489C64.3679 73.6872 64.5998 73.8522 64.8118 74.0408C64.9271 74.1407 65.0039 78.9823 61.7377 81.5798C61.6936 81.6105 61.6393 81.6228 61.5863 81.6142C61.5332 81.6056 61.4856 81.5767 61.4534 81.5337C60.854 80.9804 59.5244 80.5731 59.9164 80.1273C61.1304 78.1428 61.9862 75.9603 62.4448 73.6796V73.6488ZM99.7866 62.7514C99.4024 65.4411 99.533 63.6582 98.7645 65.5948C97.1583 69.6833 96.3437 74.8707 96.1439 74.0484C95.3754 70.9744 94.6069 72.3347 94.9681 70.9206C96.1977 66.1635 95.8826 66.64 96.1362 66.4325C96.9047 65.8715 96.7049 64.0348 97.1814 63.712C97.9338 63.1571 98.7521 62.6976 99.6176 62.344C99.9096 62.175 99.7175 62.7437 99.7866 62.7514ZM94.2457 50.8164C94.4916 51.1161 94.2457 51.1161 94.4455 51.4005C94.4693 51.4529 94.5077 51.4973 94.5561 51.5284C94.6045 51.5595 94.6608 51.5761 94.7183 51.5761C94.7759 51.5761 94.8322 51.5595 94.8805 51.5284C94.9289 51.4973 94.9673 51.4529 94.9911 51.4005C95.091 51.2007 94.9911 51.0777 95.2063 51.1853C95.8134 51.5542 95.9748 50.2016 94.3379 50.2477C94.0382 50.2477 94.0766 50.1171 93.8845 48.7568C93.823 48.3034 94.8221 48.0652 95.337 48.1881C95.3931 48.2101 95.4546 48.2142 95.5131 48.1999C95.5717 48.1855 95.6243 48.1534 95.6639 48.108C95.7035 48.0625 95.728 48.0059 95.7341 47.946C95.7403 47.886 95.7277 47.8256 95.6982 47.7731C95.2063 47.0046 93.8461 48.0267 93.9075 47.6578C93.9111 47.1224 93.973 46.589 94.092 46.067C94.1611 45.8749 93.9537 45.6828 94.361 45.6213C99.5561 44.8528 100.302 42.7548 100.355 43.4925C100.509 44.8496 101.003 46.1459 101.792 47.261C102.581 48.3761 103.638 49.274 104.866 49.8711C105.289 50.0402 104.966 50.9009 106.196 52.1075C107.295 53.168 108.209 51.8078 109.27 51.0085C110.177 50.3476 112.498 52.1306 109.647 55.3814C109.561 55.5072 109.451 55.6147 109.324 55.6974C109.196 55.7801 109.053 55.8364 108.904 55.8629C108.754 55.8894 108.6 55.8856 108.452 55.8517C108.304 55.8179 108.164 55.7546 108.04 55.6657C107.387 55.2968 107.395 55.781 107.21 57.5332C106.288 66.0867 109.616 60.0539 102.108 70.2366C101.976 70.4666 101.783 70.6552 101.549 70.7812C101.316 70.9071 101.052 70.9654 100.788 70.9494C100.523 70.9334 100.269 70.8438 100.052 70.6907C99.836 70.5376 99.6668 70.3271 99.5638 70.0829C99.2178 69.0916 99.0109 68.0571 98.949 67.0089C99.0432 66.4354 99.2274 65.8804 99.4946 65.3643C99.6483 65.0723 99.8481 65.2721 99.9403 65.1491C100.378 64.5881 100.194 62.2211 100.517 62.0751C100.993 61.8906 103.153 60.4074 103.222 60.369C103.675 60.1692 103.445 59.6005 103.222 59.7081C99.2256 60.953 97.6118 61.9521 96.1439 60.6456C95.5906 60.1461 95.2985 59.3161 94.6607 57.8867C94.5608 57.6638 94.2918 57.1182 94.0612 56.5802C93.8307 56.0423 93.6924 55.5427 93.4618 54.9279C92.9853 53.6368 93.7308 52.4687 93.8999 51.9308C94.2918 50.7396 93.969 51.1238 94.2457 50.8164ZM97.7347 41.8556C96.9346 42.3632 96.0354 42.6944 95.0971 42.8269C94.1588 42.9594 93.2031 42.8903 92.2937 42.6241C95.8826 41.6788 95.5829 38.0899 98.8567 37.2445C100.786 36.7527 103.99 36.6067 104.836 37.7287C103.792 37.9341 102.831 38.4388 102.069 39.1812C101.808 39.4886 102.23 39.7422 102.469 39.5424C105.059 37.3444 110.492 37.698 112.698 40.6644C114.127 42.5857 114.327 43.9921 114.165 45.2755C114.107 46.205 113.888 47.1175 113.52 47.9729C113.428 48.1727 113.343 48.1497 112.636 47.7116C109.624 45.8518 109.7 43.7999 109.009 44.2072C108.555 44.4532 110.315 47.2275 112.797 48.5416C113.904 49.1334 113.704 49.0181 113.789 49.1103C111.898 49.8788 107.418 48.6031 105.22 45.36C104.665 44.3921 104.232 43.3597 103.929 42.286C103.783 42.017 103.368 42.1784 103.445 42.4397C103.983 44.3609 104.498 47.0123 109.039 49.1949C111.714 50.486 112.882 49.5176 113.351 50.0863C114.359 50.7666 115.187 51.6814 115.764 52.7523C116.341 53.8232 116.65 55.0181 116.663 56.2344C116.594 57.5774 116.149 58.874 115.38 59.977C114.887 60.6085 114.27 61.1317 113.566 61.5141C113.32 61.6678 113.466 61.2528 113.489 60.8531C113.543 59.7695 113.528 59.3161 112.482 57.7407C112.436 57.6715 112.167 57.4563 112.006 57.5793C111.845 57.7023 112.006 59.5313 111.33 60.3613C111.197 59.7674 111.019 59.1842 110.799 58.6168C110.031 56.8262 109.908 58.2556 109.608 59.0625C109.498 59.5072 109.28 59.9181 108.975 60.2597C108.67 60.6012 108.286 60.863 107.856 61.0222C107.648 61.1375 107.633 61.0222 107.787 58.5092C107.933 56.1422 107.887 56.2498 108.133 56.3189C108.46 56.4759 108.832 56.515 109.184 56.4296C109.537 56.3442 109.85 56.1395 110.069 55.8501C110.883 54.9485 111.445 53.8485 111.699 52.6608C111.891 50.3553 109.531 49.7251 108.624 50.7549C108.293 51.1138 107.913 51.4242 107.495 51.6771C106.965 51.9461 106.872 51.877 106.542 51.5311C106.265 51.2721 106.054 50.9507 105.927 50.5935C105.781 50.1094 107.034 50.9163 107.21 50.4475C107.526 49.6252 101.708 49.3255 100.893 43.3926C100.793 42.6779 101.024 42.9161 101.101 42.2091C101.101 42.1092 100.763 42.0554 100.547 42.2091C98.7415 43.5463 98.5186 43.7461 97.2198 44.1688C96.5539 44.4547 95.8649 44.6835 95.1602 44.8528C93.3465 45.1294 92.0093 44.8528 92.3705 44.7759C93.0072 44.6394 93.6105 44.3782 94.1458 44.0074C95.1448 43.2389 94.3763 43.6539 95.3985 43.4157C99.4408 42.5011 98.5955 41.333 97.7347 41.8556ZM110.43 68.9686C109.892 69.1115 109.336 69.1788 108.778 69.1684C108.182 69.2168 107.593 69.3249 107.018 69.4912C106.588 69.5527 106.142 69.96 106.411 70.3365C107.003 71.1512 107.948 71.5662 108.463 72.4576C109.431 74.0638 110 72.4576 104.006 76.769C102.093 77.9153 100.323 79.2852 98.7338 80.8497C98.6185 80.9573 98.5955 80.9343 98.2035 80.5423C97.5272 79.8814 97.289 79.7277 97.3351 79.0745C97.3351 79.0284 100.878 72.8342 102.546 70.7054L107.679 63.6659C107.987 63.1817 107.81 62.6207 107.733 61.9521C107.687 61.5909 108.209 61.5217 108.502 61.6217C109.287 61.9729 109.956 62.5407 110.43 63.2586C110.683 63.974 110.808 64.7285 110.799 65.4873C110.723 68.3077 110.938 68.838 110.43 68.9686ZM111.376 64.957C111.376 64.4574 112.144 65.5948 114.542 67.3547C115.403 68.0003 118.984 68.8917 119.537 72.058C119.806 73.595 119.399 73.5489 119.637 75.132C120.175 78.721 116.64 89.7337 116.64 89.7337C115.595 92.7309 115.872 90.7328 113.466 97.3573C112.944 98.7791 112.974 100.024 110.446 100.562C109.355 100.793 108.548 100.454 107.418 100.101C106.48 99.5496 105.633 98.8575 104.905 98.049C103.817 96.8093 102.547 95.7417 101.139 94.8827C99.9403 93.9605 99.7098 93.6608 96.2746 90.5022C95.3831 89.6876 96.2746 89.8336 97.312 88.6194C100.563 84.8998 100.501 84.6923 101.016 83.7778C101.239 83.3705 104.997 86.8518 105.036 86.9133C106.102 88.1602 107.429 89.1572 108.924 89.8336C109.065 89.9274 109.192 90.0413 109.301 90.1718C111.122 91.9931 111.084 92.3851 111.483 92.1622C112.052 91.8394 110.146 90.2179 109.823 89.7875C109.293 89.0958 107.871 88.6347 108.379 88.5656C110.684 88.2659 111.291 89.4801 111.983 89.557C112.329 89.557 112.544 89.3341 112.229 88.9883C112.083 88.8345 112.229 89.0728 111.068 88.3658C110.192 87.8278 109.962 87.8201 108.478 87.8432C108.202 87.8432 107.848 87.2514 108.286 86.6366C108.924 85.7528 109.124 85.6376 109.823 81.7335C110.592 77.2531 109.654 81.6874 111.921 73.7257C112.475 71.7737 113.574 70.8822 113.458 69.8831C113.274 69.8831 113.259 69.8293 113.128 70.0445C111.399 72.8496 111.66 72.8649 110.822 75.4241C110.646 75.9774 110.008 77.7296 109.608 79.3819C109.393 80.2964 108.84 84.969 108.179 85.7298C107.295 86.7365 107.456 87.4282 107.61 87.8201C107.764 88.2121 107.679 88.1429 107.61 88.1967C107.541 88.2505 105.812 86.798 105.696 86.6597C104.33 85.3264 102.838 84.1295 101.239 83.0861C100.661 82.4472 100.02 81.8679 99.3255 81.357C99.2487 81.2647 99.2103 81.1956 99.2256 81.1648C99.8327 79.9583 109.162 74.1791 109.216 74.1637C109.47 73.9639 109.923 73.326 109.77 73.0417C108.463 70.6747 106.588 70.2059 107.38 70.0215C111.675 69.0531 111.506 71.0513 111.376 64.957ZM89.3272 80.942C89.9805 77.476 89.8114 76.7843 90.0957 77.0149C90.7951 77.599 90.8642 77.6374 90.8642 77.7834C91.0179 78.4904 91.4867 78.9438 91.3945 79.3204C90.9872 80.8574 90.7951 81.9487 90.4877 81.7566C90.1803 81.5645 89.3042 81.7412 89.3272 80.9266V80.942ZM90.0189 82.6942C89.6116 83.4012 89.7653 83.2629 89.5962 83.2936C89.4041 81.9871 89.4041 82.2177 89.4963 82.1101C90.3647 82.4252 90.3724 82.064 90.0189 82.6788V82.6942ZM89.796 75.9005C89.4732 75.6162 89.1351 75.3395 89.3887 74.986C89.942 74.2175 91.1179 76.6076 91.5559 76.1157C91.994 75.6239 89.6807 74.0715 89.212 73.5028C88.8815 73.1109 89.3195 72.6959 89.5194 72.8111C90.1791 73.189 90.7885 73.6486 91.333 74.1791C91.8633 74.6018 92.2168 74.4173 92.2168 74.0408C91.2408 71.7352 88.6125 70.5748 88.7662 70.129C88.8738 69.8447 89.4271 70.1982 89.9267 70.4288C90.8176 70.728 91.6132 71.2584 92.2322 71.9658C93.0007 72.7804 93.1083 72.9418 93.2389 72.9725C93.5848 73.0571 93.6616 72.6267 93.4464 72.3961C90.9718 69.7217 91.8326 70.6824 90.8566 70.0061C89.0044 68.7073 88.9507 68.7073 89.0813 68.3615C89.212 68.0156 91.456 69.3529 91.6865 69.4989C93.4541 70.6516 93.285 70.6977 94.6991 72.2655C95.1714 72.724 95.461 73.3385 95.5137 73.9946C95.5137 74.1253 96.3975 76.9841 96.6127 78.3521C96.7971 79.4972 96.6127 79.8891 97.1891 80.3886C97.5395 80.7684 97.9116 81.1277 98.3034 81.4646C98.411 81.5337 98.4417 81.6259 98.3034 81.7566C97.6809 82.4713 96.482 84.0237 96.167 84.3388C95.8519 84.6539 96.167 84.6077 93.9229 81.7182C93.2005 80.7806 92.8624 80.9958 92.2937 79.7969C90.7259 76.4308 92.1015 78.0216 89.796 75.9005ZM98.5647 68.031C98.8491 68.3999 98.5647 71.5738 101.062 71.4432C101.155 71.4432 101.208 71.497 101.147 71.5815C98.3572 76.0312 97.6425 77.4145 97.2275 78.0831C97.2275 77.9986 96.897 76.6844 96.6204 75.7776C96.4974 75.3395 98.4264 68.2308 98.5647 68.031ZM98.7722 82.0486C99.1104 81.6106 100.409 83.0554 100.632 83.3781C99.5638 85.3763 100.01 84.5693 98.3265 86.6674C97.4234 87.7545 96.4086 88.7436 95.2985 89.6184C94.9835 89.9258 93.8999 88.4657 93.5771 88.0353C93.2543 87.6049 94.0382 88.2659 98.7722 82.064V82.0486ZM96.3207 63.9272C96.1292 63.875 95.9438 63.8028 95.7673 63.712C95.7212 63.712 95.6444 63.6736 95.6828 63.4353C95.6891 63.3016 95.715 63.1696 95.7597 63.0434C95.8788 63.0479 95.9959 63.076 96.1041 63.1261C96.2123 63.1762 96.3094 63.2474 96.3898 63.3354C96.5205 63.4891 96.4206 63.9733 96.3207 63.9425V63.9272ZM95.7212 64.1577C96.1285 64.3037 96.2822 64.3037 96.2361 64.5112C96.1516 64.8878 96.1439 65.0646 95.7827 64.9186C95.629 64.8571 95.4676 64.8263 95.4369 64.7495C95.4061 64.6726 95.4369 64.5958 95.5137 64.4267C95.5906 64.2576 95.5214 64.0962 95.7212 64.1885V64.1577ZM95.9825 65.4411C95.9502 65.6673 95.866 65.883 95.7366 66.0713C95.5829 66.1635 95.2678 65.9714 95.1372 65.8408C95.2464 65.6128 95.329 65.373 95.3831 65.1261C95.5675 65.226 95.9441 65.2721 95.9825 65.4565V65.4411ZM95.2678 63.4891C95.2063 63.589 95.0757 63.4891 94.8682 63.4353C94.6607 63.3815 94.6453 63.4353 94.6146 63.3354C94.5838 63.2355 94.6684 62.8359 94.7452 62.7898C94.8261 62.7705 94.9103 62.7705 94.9911 62.7898C95.1218 62.8359 95.2601 62.8282 95.3216 62.9204C95.3356 63.1167 95.3174 63.314 95.2678 63.5045V63.4891ZM95.1602 63.9887C95.2524 63.9887 95.0757 64.5727 95.0142 64.6496C94.9527 64.7264 94.7836 64.6496 94.6684 64.6112C94.5531 64.5727 94.4378 64.6111 94.3994 64.4959C94.4274 64.266 94.4869 64.041 94.5761 63.8273C94.7836 63.9041 94.9988 63.9425 95.1756 64.004L95.1602 63.9887ZM94.9527 65.0492C94.8989 65.2336 94.8067 65.7178 94.6837 65.7024C94.5608 65.6871 94.1304 65.641 94.1535 65.4796C94.1929 65.2762 94.2468 65.0758 94.3148 64.8801C94.5311 64.9282 94.7442 64.9898 94.9527 65.0646V65.0492ZM94.1842 63.297C93.947 63.306 93.7101 63.2722 93.4849 63.1971C93.3926 63.151 93.4311 62.9281 93.4849 62.7283C93.5387 62.5285 93.4849 62.5746 93.5848 62.5592C93.8199 62.539 94.0566 62.5732 94.2764 62.6591C94.3225 62.6591 94.2764 62.7129 94.2764 62.7437C94.2764 62.7744 94.2995 63.2663 94.2149 63.3124L94.1842 63.297ZM93.5463 63.6582C93.823 63.712 94.0382 63.7197 94.0997 63.8273C94.1611 63.9349 94.0997 64.1193 93.9921 64.3806C93.9921 64.4574 93.8691 64.4498 93.3388 64.3806C93.3107 64.3805 93.283 64.3734 93.2583 64.3599C93.2336 64.3463 93.2126 64.3269 93.1973 64.3032C93.1821 64.2795 93.173 64.2524 93.1708 64.2243C93.1687 64.1962 93.1736 64.1681 93.1851 64.1424C93.1916 63.9829 93.2364 63.8274 93.3158 63.6889C93.4003 63.6505 93.4849 63.6736 93.5771 63.6736L93.5463 63.6582ZM93.8307 64.9109C93.7538 65.2029 93.8307 65.4565 93.5925 65.4335C93.3904 65.4242 93.1897 65.3959 92.993 65.3489C92.9392 65.3489 92.993 65.249 92.993 65.1952C93.0011 65.0548 93.0242 64.9157 93.0622 64.7802C93.0686 64.7585 93.0818 64.7394 93.0997 64.7256C93.1176 64.7118 93.1395 64.704 93.1621 64.7034C93.7846 64.7572 93.9075 64.7802 93.8614 64.957L93.8307 64.9109ZM93.0622 62.9358C93.0508 63.0071 93.0127 63.0714 92.9556 63.1157C92.8985 63.1599 92.8267 63.1808 92.7548 63.174C92.2937 63.174 92.1707 63.3354 92.1477 63.174C92.1422 63.0522 92.1659 62.9308 92.2166 62.8198C92.2674 62.7089 92.3439 62.6117 92.4397 62.5362C92.6071 62.4765 92.7847 62.4503 92.9623 62.4593C93.1544 62.4977 93.1544 62.736 93.0852 62.9512L93.0622 62.9358ZM92.4627 63.6121C92.9239 63.6121 92.9546 63.4968 92.7471 64.25C92.7471 64.3268 92.5165 64.3037 92.3859 64.3037C92.2552 64.3037 92.0862 64.3037 92.0554 64.25C92.009 64.0499 92.0363 63.8398 92.1323 63.6582C92.2479 63.6302 92.3671 63.6199 92.4858 63.6275L92.4627 63.6121ZM92.1861 64.6573C92.308 64.6342 92.4331 64.6342 92.555 64.6573C92.6088 64.6573 92.6318 64.7495 92.6164 64.834C92.5703 65.0799 92.6164 65.2106 92.5165 65.249C92.4166 65.2874 92.0862 65.372 91.9786 65.249C91.9388 65.1595 91.9182 65.0626 91.9182 64.9647C91.9182 64.8667 91.9388 64.7698 91.9786 64.6803C92.0401 64.6496 92.14 64.6803 92.2091 64.6726L92.1861 64.6573ZM92.2476 65.7639C92.9162 65.7101 95.3216 66.0406 95.3216 66.7015C95.2294 67.5315 94.4301 70.7208 94.361 70.8438C93.7784 70.1933 93.0865 69.6498 92.3167 69.2376C91.6865 68.9148 91.456 68.8226 91.602 68.592C91.6328 68.2539 91.9248 65.81 92.2706 65.7793L92.2476 65.7639ZM88.4665 86.091C88.7585 87.3974 88.9814 88.2659 89.112 89.019C88.9861 90.1889 88.9861 91.3689 89.112 92.5388C89.1296 92.5877 89.1274 92.6416 89.1059 92.689C89.0844 92.7363 89.0452 92.7734 88.9968 92.7924C88.9045 92.8462 88.8508 92.9691 88.7662 93.0537C88.2283 93.5763 87.6749 93.876 87.7287 94.7674C87.8671 97.2267 88.3973 95.9817 87.5289 97.4342C86.9295 98.4179 86.9372 98.3026 86.8603 98.2027C86.214 97.6924 85.7328 97.0027 85.477 96.2199C84.0937 91.7933 84.2166 89.8413 88.3435 86.0064C88.4127 85.968 88.4588 85.9911 88.4896 86.1063L88.4665 86.091ZM95.4292 103.429C95.6136 103.006 95.8365 104.689 95.8596 105.142C95.9671 107.079 96.1823 107.025 95.6674 107.033C93.2159 107.094 93.9537 106.91 95.4522 103.444L95.4292 103.429ZM93.262 108.808C93.823 107.156 93.6924 107.271 93.9921 107.348C95.5829 107.817 96.0901 107.456 96.1593 107.871C96.4052 109.408 96.5973 109.323 96.0978 109.323C95.8288 109.308 93.1851 109.1 93.285 108.808H93.262ZM10.263 98.6254C10.263 98.6254 10.3091 10.2468 10.3168 6.21983C10.3168 6.12761 10.3168 6.06613 10.4167 6.05845C14.3515 5.68188 136.122 10.8924 142.293 11.2382C142.318 11.237 142.343 11.2412 142.367 11.2506C142.39 11.2599 142.411 11.2741 142.429 11.2923C142.446 11.3105 142.46 11.3323 142.468 11.3561C142.476 11.3799 142.48 11.4052 142.477 11.4303C142.546 24.2491 142.677 109.031 142.677 109.077C142.677 109.423 116.548 107.14 114.857 107.056C114.557 107.056 114.657 107.056 114.311 105.358C113.466 101.215 111.898 100.954 112.536 100.485C113.058 99.9622 113.457 99.3295 113.704 98.633C115.349 92.485 116.901 92.8539 118.607 85.1995C119.13 82.8325 120.398 78.99 120.337 75.8467C120.337 74.5787 120.091 74.9092 120.206 73.3568C120.575 68.6305 115.91 67.5545 114.957 66.8475C113.781 65.9791 111.276 63.8887 111.26 63.8734C111.117 63.2798 110.833 62.7295 110.431 62.2693C110.03 61.8091 109.524 61.4525 108.955 61.2297C108.571 61.076 109.662 61.053 110.162 59.1163C110.269 58.7244 110.653 59.8848 110.638 61.2758C110.638 61.7446 110.991 61.6985 111.168 61.5217C111.823 60.8231 112.257 59.9459 112.413 59.001C113.551 60.0385 111.929 63.1664 113.09 62.5285C114.688 61.6524 115.656 61.0606 116.433 59.3469C117.193 57.7132 117.364 55.8668 116.917 54.1212C116.47 52.3756 115.433 50.8386 113.981 49.7712C114.75 49.4715 115.141 49.6713 115.034 49.2256C114.926 48.7799 114.688 48.826 114.104 48.557C113.758 48.3956 114.327 48.3495 114.634 46.3667C114.919 44.5454 114.926 44.3302 114.765 43.5233C114.412 41.9927 113.628 40.5953 112.505 39.4963C110.3 37.721 109.8 38.0284 108.663 37.7287C107.791 37.5137 106.894 37.4129 105.996 37.429C105.228 37.429 104.459 35.9688 101.516 36.1994C98.4417 36.4453 97.3505 36.6528 95.5214 39.0121C94.1458 40.7874 94.4224 41.3176 91.9171 42.0477C91.4406 42.1861 91.2024 42.0477 91.1486 42.5165C91.0948 42.9853 91.333 43.0468 91.6558 43.139C92.304 43.3168 92.9681 43.4301 93.6386 43.4771C92.3552 44.6222 91.333 43.8921 90.6491 44.1688C90.1572 44.3686 90.7105 44.9373 91.1102 44.9373C91.6519 45.2638 92.2572 45.4708 92.8854 45.5444C94.4224 45.6751 92.8854 45.3446 93.3465 49.802C93.3926 50.2323 93.1006 49.7251 92.8777 50.1324C92.7701 50.3323 93.0776 50.5705 93.2313 50.6012C93.6386 50.6935 93.385 51.3697 93.2313 51.754C92.2168 54.0979 92.7855 55.2738 95.1141 60.0385C95.775 61.4065 97.0046 62.2057 99.5484 61.4372C99.779 61.3604 99.779 61.5755 99.656 61.637C98.7394 61.9937 97.8635 62.4471 97.0431 62.9896C96.7664 63.1894 96.7587 63.1587 96.6588 63.0588C96.5161 62.8779 96.3371 62.729 96.1332 62.6218C95.9293 62.5146 95.7052 62.4514 95.4753 62.4363C95.3293 62.4363 95.214 62.3133 95.068 62.2672C90.3724 60.9223 91.9478 64.5727 91.2254 64.7802C88.6817 65.5487 89.8575 65.664 87.0217 67.9926C84.1859 70.3212 84.3089 71.1435 82.6643 71.9658C80.7737 72.9034 80.3587 73.9562 79.3136 75.0398C79.1291 75.2396 78.645 75.4241 78.1531 75.8083C77.6613 76.1926 77.3846 76.6844 76.839 76.5768C76.2933 76.4692 74.9792 76.6614 74.9484 77.6066C74.9484 77.6758 74.8255 77.8064 74.7717 77.768C74.436 77.5769 74.0691 77.4468 73.6881 77.3838C68.4545 76.0696 69.5996 74.6863 66.4026 73.9562C66.0952 73.8871 65.6341 73.7103 65.5111 73.718C64.9655 73.718 64.8041 73.2031 64.5889 73.1416C63.6283 72.8419 63.928 72.327 62.3526 71.9427C61.8761 71.8198 61.584 72.8496 61.2536 72.5652C60.9231 72.2809 60.4851 72.0273 60.2084 71.7122C58.9096 70.4288 58.925 68.3384 57.411 67.2471C56.8262 66.8922 56.3064 66.44 55.874 65.9099C55.313 65.3259 55.1747 65.5026 54.337 64.3729C53.4993 63.2432 52.3696 64.8955 53.9374 66.6323C54.9134 67.7159 56.2429 68.5613 55.5743 68.5459C54.5752 68.5075 54.2755 68.0233 52.9691 67.0089C48.6193 63.5352 48.5732 63.3508 48.0737 63.8811C47.1745 64.834 50.2178 66.7169 50.3792 67.0934C50.1409 67.0934 47.1822 64.8494 46.4598 64.565C46.3367 64.5366 46.208 64.5453 46.0899 64.59C45.9718 64.6348 45.8697 64.7136 45.7964 64.8165C45.7231 64.9194 45.6821 65.0417 45.6784 65.168C45.6748 65.2942 45.7087 65.4187 45.7758 65.5257C46.2907 66.2942 48.7807 68.1232 50.1563 69.2453V69.2914C49.6721 69.007 48.7884 68.4614 48.6193 68.3692C46.5289 67.1857 46.2215 66.6323 45.7374 67.0934C44.7306 68.0464 47.9276 69.8216 48.0429 69.8601C47.9661 69.9446 47.2129 69.4066 46.7979 69.4374C46.6382 69.4473 46.4888 69.5199 46.3823 69.6393C46.2758 69.7588 46.2208 69.9154 46.2292 70.0752C46.2292 70.6055 46.6135 71.0974 48.2735 71.935C49.2481 72.4181 50.2547 72.8341 51.286 73.18C51.8317 73.3952 52.4234 73.9485 53.2073 74.2559C56.1507 75.4087 54.0834 73.6334 59.5782 76.7843C60.4928 77.3146 59.6628 76.8919 59.0095 80.258C58.988 80.3476 58.9925 80.4414 59.0224 80.5285C59.0524 80.6157 59.1066 80.6924 59.1786 80.7498C62.4832 83.4627 61.853 81.7873 62.391 82.2331C65.5572 84.8537 65.5803 84.7384 66.7023 85.0842C67.5178 85.1705 68.2862 85.509 68.9003 86.0526C69.6227 86.8211 70.176 86.944 72.1972 87.7663C74.2183 88.5886 76.6852 89.7568 78.399 88.1813C79.0838 87.6454 79.696 87.0228 80.2204 86.3292C80.4971 85.8912 81.304 85.7375 81.7574 85.4608C82.298 85.1722 82.7906 84.8015 83.2176 84.3618C85.8536 82.6327 83.9861 84.162 86.3377 82.5866C87.698 81.6644 87.0371 81.3723 88.1745 85.0151C88.5126 86.091 81.865 88.0891 84.9006 96.7656C85.2157 97.6801 85.5615 97.926 86.3838 98.8943C86.6759 99.2325 85.0466 100.685 83.4174 104.389C83.3021 104.604 10.3014 98.8867 10.3014 98.6254H10.263ZM86.8219 99.6398C86.9295 99.44 86.991 99.5937 87.7441 100.301C88.1015 100.544 88.4047 100.859 88.6348 101.226C88.8649 101.592 89.0169 102.002 89.0813 102.429C89.0248 103.217 88.7595 103.976 88.3128 104.627C85.5385 108.347 89.2273 109.623 90.3417 113.534C90.4569 113.957 90.7336 114.687 90.4185 114.664C89.3525 114.562 88.3011 114.343 87.283 114.011C87.0063 113.903 87.0063 113.811 86.8603 113.404C86.0918 111.198 81.4807 112.19 81.6037 111.69C82.8794 105.388 86.6144 100.101 86.8603 99.6398H86.8219ZM92.1015 133.831C91.8479 132.939 91.725 132.686 91.994 132.678C92.6293 132.646 93.2662 132.688 93.8922 132.801C93.8461 132.932 92.2245 134.123 92.14 133.831H92.1015ZM94.8528 132.893C95.2294 132.893 95.3908 132.939 95.3985 132.893C97.0046 133.055 96.9816 132.832 95.0449 134.115C94.3628 134.225 93.6648 134.183 93.0007 133.992C94.5531 132.947 94.6684 132.893 94.8912 132.893H94.8528ZM92.4858 134.43C93.7462 134.622 94.4532 134.522 94.1227 134.707C92.6318 135.56 92.5857 135.637 92.4935 135.283C92.3244 134.63 92.2322 134.43 92.5242 134.415L92.4858 134.43ZM95.6367 131.356C95.6367 131.356 100.617 131.833 102.115 132.125C103.929 132.463 105.02 131.933 101.616 134.184C100.309 135.053 97.1737 136.843 96.9508 136.989C94.53 138.526 93.4849 139.548 93.3388 139.026C92.8931 137.435 92.5703 139.126 100.363 133.6C100.594 133.439 100.97 132.832 100.363 132.647C100.15 132.601 99.9346 132.57 99.7175 132.555C99.5945 132.555 99.5484 132.64 99.5407 132.732C99.4792 133.631 102.53 131.763 96.4052 135.614C96.0363 135.844 93.2313 137.62 93.1083 137.643C92.9853 137.666 92.9776 137.358 92.7087 136.106C92.6472 135.821 92.8393 136.059 93.0929 135.898C96.0594 134.015 98.2266 132.724 97.1276 132.663C96.874 132.663 92.6626 132.202 92.6549 132.24C91.9478 132.24 91.8018 132.286 91.7327 131.994C91.3868 130.411 91.0564 131.41 95.6751 131.348L95.6367 131.356ZM92.5627 139.041C92.6164 139.264 92.4243 139.241 92.2091 139.172C92.2091 139.172 68.1548 137.366 59.7473 136.551C58.2948 136.413 58.5484 136.551 57.7415 132.839C56.5731 127.419 55.1056 122.067 53.3456 116.808C52.6386 114.641 52.1929 112.781 51.9085 111.767C51.2476 109.392 51.4705 109.846 56.8193 110.337C57.6723 110.414 77.569 112.051 81.6191 112.459C87.2599 112.996 85.4847 108.355 92.6318 139.018L92.5627 139.041ZM98.4725 128.997C98.4725 128.997 95.0373 128.72 94.384 128.636C94.2841 128.636 94.2918 128.52 94.2841 128.459C94.2764 128.397 94.1535 125.662 94.2226 124.401C94.4378 120.251 96.5282 122.342 96.9969 123.218C96.9969 123.218 97.5272 125.093 97.6809 125.523C98.0037 126.261 99.2179 129.066 98.5416 128.974L98.4725 128.997ZM99.5868 129.097C99.2641 129.097 99.4178 129.304 98.9105 126.93C98.5514 126.018 98.2536 125.083 98.0191 124.132C97.1199 120.482 95.2678 121.558 92.9546 121.058C92.7033 120.99 92.4459 120.946 92.1861 120.927C91.7711 120.927 91.7865 121.319 92.0862 121.473C93.0084 121.911 93.5233 122.011 93.6232 122.964C93.8153 124.993 93.6232 126.43 93.7769 127.89C93.8845 128.782 93.9998 128.582 90.9718 128.313C90.7336 128.313 90.8335 128.274 90.48 126.684C89.4194 121.904 89.2657 123.433 90.2494 121.412C91.126 119.544 91.5398 117.494 91.456 115.433C91.456 115.148 91.748 115.187 91.9632 113.896C92.0093 113.642 91.9632 113.803 92.847 110.56C93.1006 109.607 92.4551 114.265 93.2697 119.114C93.3388 119.513 93.5387 119.583 93.5617 119.56C94.0997 118.883 93.2159 119.229 93.5617 109.815C93.5617 109.3 94.2534 109.946 96.3821 109.93C96.8125 109.93 96.6204 109.63 97.2659 114.426C97.4249 115.026 97.5532 115.634 97.6502 116.247C97.8269 117.554 103.114 117.016 104.375 117.016C111.222 117.016 110.261 116.247 112.198 116.524C112.851 116.616 113.128 116.378 113.159 116.808C113.443 120.405 111.66 119.675 113.082 130.096C113.051 130.334 108.017 129.85 99.656 129.074L99.5868 129.097Z" fill="#000001"/>
<path d="M125.609 135.107C125.463 135.068 125.609 134.815 125.709 134.707C125.807 134.577 125.856 134.416 125.847 134.254C125.793 133.731 125.601 133.954 116.725 132.578C112.314 131.887 112.275 131.81 111.868 132.186C111.799 132.24 111.138 132.886 101.754 140.901C101.593 141.047 101.308 141.37 101.908 141.67C102.229 141.769 102.544 141.884 102.853 142.016C102.853 142.077 102.784 142.223 102.669 142.331C102.478 142.514 102.317 142.727 102.192 142.961C102.092 143.161 102.046 143.291 102.338 143.414C104.867 144.529 115.933 146.588 118.615 147.257C120.237 147.664 120.683 148.064 121.075 147.387C121.113 147.326 121.582 146.081 122.204 144.744C122.927 143.207 123.849 141.385 124.295 140.386C125.832 136.928 126.846 135.89 126.554 135.422C126.446 135.207 126.085 135.222 125.609 135.107ZM102.492 141.255C102.284 141.186 101.839 141.493 110.73 133.777C111.399 133.193 111.929 132.747 112.16 132.494C112.39 132.24 112.536 132.332 112.775 132.348C113.405 132.409 114.673 132.617 115.849 132.816C117.678 133.124 124.571 134.031 125.125 134.207C125.509 134.323 125.263 134.507 125.048 134.861C122.873 138.611 120.59 143.314 119.714 144.521C119.553 144.736 119.537 144.882 118.946 144.744C118.354 144.605 117.409 144.413 116.141 144.129C113.474 143.529 109.731 142.661 107.165 142.192C105.59 141.985 104.03 141.683 102.492 141.285V141.255ZM126.078 135.806C126.039 135.883 121.874 144.213 120.698 146.734C120.606 146.942 120.514 147.111 120.298 147.065C120.298 147.065 112.698 145.328 107.51 144.252C106.088 143.954 104.682 143.582 103.299 143.138C103.022 143.068 102.807 142.984 102.892 142.884C103.422 142.277 103.476 142.115 103.66 142.115C105.752 142.407 107.827 142.807 109.877 143.314C113.274 144.029 117.132 144.798 118.708 145.205C119.883 145.497 119.822 145.205 120.083 144.944C120.967 143.952 121.912 140.986 125.055 135.806C125.324 135.368 125.094 135.345 125.97 135.537C126.162 135.66 126.177 135.66 126.078 135.837V135.806Z" fill="#000001"/>
<path d="M108.847 40.5417C109.013 40.6032 109.164 40.6973 109.293 40.8184C111.714 42.463 111.883 45.7676 112.213 45.7599C112.544 45.7522 112.452 45.5524 112.459 45.4602C112.236 42.3861 108.963 39.4274 108.77 40.4264C108.766 40.4519 108.771 40.4781 108.786 40.4996C108.8 40.5211 108.822 40.5362 108.847 40.5417Z" fill="#000001"/>
<path d="M108.678 53.9672C108.156 54.1055 108.11 54.6896 108.532 54.6511C109.301 54.582 109.301 54.3822 109.501 53.9902C109.501 53.4062 109.139 53.36 108.978 53.1679C108.701 52.8298 109.093 52.215 109.508 52.0305C109.923 51.8461 110.046 52.3764 110.123 52.4378C110.523 52.776 110.615 52.2611 110.615 52.238C110.59 52.0606 110.518 51.8933 110.405 51.7541C110.292 51.6149 110.143 51.5091 109.975 51.4482C109.806 51.3873 109.625 51.3736 109.449 51.4085C109.273 51.4434 109.11 51.5256 108.978 51.6463C108.571 51.9844 107.902 52.9835 108.478 53.5291C108.886 53.9057 108.901 53.9134 108.678 53.9672Z" fill="#000001"/>
<path d="M85.8611 24.695C92.7008 25.3175 103.829 26.0706 104.636 26.0783C105.105 26.0783 105.128 26.0245 105.174 25.9246C105.304 25.6249 105.251 25.0408 104.889 25.0485C103.783 25.1868 89.5192 23.9034 88.1128 23.9419C87.8249 23.9664 87.5348 23.9483 87.2521 23.8881C86.7526 23.7344 86.2377 23.8112 85.7919 23.7036C85.4692 23.7036 85.2847 23.7036 85.1925 24.0802C85.1003 24.4568 85.4461 24.6258 85.8611 24.695Z" fill="#000001"/>
<path d="M86.5527 17.5484C88.6123 17.6176 103.06 18.3784 104.013 18.5859C104.367 18.486 104.59 17.779 103.829 17.6714C99.5943 17.0873 89.7497 16.6416 86.153 16.5801C85.9532 16.5801 85.7765 16.8106 85.7534 17.0489C85.7303 17.2871 85.8303 17.5253 86.5527 17.5484Z" fill="#000001"/>
<path d="M98.8953 49.1878C101.339 48.1733 102.284 51.1551 102.738 50.3405C102.853 50.1253 102.792 49.987 102.215 49.4414C100.678 47.9966 99.9097 48.035 98.7185 48.6344C98.3573 48.8189 98.5187 49.3415 98.8953 49.1878Z" fill="#000001"/>
<path d="M98.4798 52.2381C98.7949 52.2381 98.8256 51.9077 98.9947 52.2381C99.2329 52.7223 99.7632 52.7223 99.7632 52.0998C99.7632 51.9999 99.8323 51.9538 99.9169 51.9999C100.424 52.2305 101.492 52.2612 101.838 51.754C102.053 51.4466 101.715 51.1469 101.469 51.362C101.039 51.754 99.8477 51.362 99.3174 51.3082C98.3875 51.2468 97.9649 52.2766 98.4798 52.2381Z" fill="#000001"/>
<path d="M85.5462 21.9206C86.1656 22.1086 86.8142 22.1815 87.4598 22.1358C91.6636 22.1819 99.0489 23.181 101.147 22.9043C101.424 22.8044 101.324 22.5892 101.37 22.3971C101.454 22.0052 101.162 22.0282 100.701 22.0052C100.24 21.9821 88.09 21.106 85.7153 21.0215C85.2773 21.0522 85.1082 21.813 85.5462 21.9206Z" fill="#000001"/>
<path d="M100.002 55.9427C100.002 55.9427 100.132 56.3116 100.002 56.3424C98.7107 56.5575 97.581 56.0273 96.6511 56.058C95.7212 56.0888 95.606 56.1656 95.6905 56.5345C95.8105 57.0381 95.8724 57.5538 95.8749 58.0715C95.9825 58.7862 97.412 59.2627 98.7492 58.133C99.1951 57.6953 99.6757 57.2944 100.186 56.9341C100.309 56.888 100.294 57.1109 100.332 57.18C100.578 57.5566 100.778 57.2261 100.732 56.7189C100.624 55.8889 100.117 55.62 100.002 55.9427ZM97.6963 58.2483C96.8509 58.5249 96.3437 58.3405 96.2746 57.8794C96.2054 57.4183 96.2746 57.1877 96.167 56.7574C96.0748 56.6037 96.4821 56.4653 97.1353 56.5499C97.7885 56.6344 99.3409 56.8496 99.656 56.8419C99.0981 57.437 98.4195 57.906 97.6656 58.2175L97.6963 58.2483Z" fill="#000001"/>
<path d="M98.2497 111.698C98.2381 111.762 98.24 111.827 98.2552 111.89C98.2705 111.953 98.2988 112.012 98.3383 112.063C98.3778 112.114 98.4276 112.156 98.4845 112.187C98.5414 112.217 98.6041 112.236 98.6685 112.241C98.733 112.246 98.7977 112.237 98.8586 112.215C98.9194 112.193 98.975 112.159 99.0218 112.114C99.0685 112.07 99.1053 112.016 99.1299 111.956C99.1544 111.896 99.1661 111.832 99.1642 111.767C99.1608 111.653 99.1154 111.545 99.0368 111.462C98.9581 111.38 98.8517 111.33 98.7381 111.321C98.6245 111.313 98.5117 111.346 98.4215 111.416C98.3313 111.486 98.2701 111.586 98.2497 111.698Z" fill="#000001"/>
<path d="M88.8737 18.8468C86.084 18.8468 86.1839 18.3242 85.8457 19.0313C85.2617 20.2532 89.3732 19.6614 97.1966 20.3224H98.2495C98.872 20.3224 99.0641 19.4078 98.4185 19.2849C97.773 19.1619 88.889 18.8468 88.8737 18.8468Z" fill="#000001"/>
<path d="M97.3352 106.456C97.2199 107.11 98.1652 107.379 98.219 106.649C98.3189 106.188 97.4812 105.749 97.3352 106.456Z" fill="#000001"/>
<path d="M97.5735 94.9832C97.4465 95.0038 97.3324 95.0725 97.2548 95.1751C97.1773 95.2777 97.1423 95.4062 97.1572 95.534C97.172 95.6617 97.2356 95.7788 97.3346 95.8609C97.4336 95.943 97.5604 95.9837 97.6887 95.9746C97.8157 95.954 97.9298 95.8853 98.0073 95.7827C98.0849 95.6801 98.1199 95.5515 98.105 95.4238C98.0902 95.296 98.0266 95.1789 97.9276 95.0969C97.8286 95.0148 97.7017 94.9741 97.5735 94.9832Z" fill="#000001"/>
<path d="M96.3206 100.954C96.3145 101.078 96.358 101.2 96.4416 101.292C96.5252 101.385 96.642 101.44 96.7664 101.446C96.8907 101.452 97.0124 101.409 97.1046 101.325C97.1969 101.241 97.2521 101.125 97.2582 101C97.2643 100.876 97.2208 100.754 97.1372 100.662C97.0536 100.57 96.9368 100.514 96.8125 100.508C96.6881 100.502 96.5665 100.546 96.4742 100.629C96.382 100.713 96.3268 100.83 96.3206 100.954Z" fill="#000001"/>
<path d="M96.1902 54.9667C97.2815 54.9205 97.1739 54.0752 96.6129 54.1981C96.4611 54.274 96.2923 54.3096 96.1227 54.3015C95.9532 54.2934 95.7885 54.242 95.6446 54.152C95.2142 53.8984 95.6446 53.6756 96.0826 53.4757C96.5207 53.2759 96.7128 52.6227 96.3362 52.4844C95.9597 52.346 96.1672 52.8148 95.6292 53.007C94.5226 53.4296 94.5226 54.7207 96.1902 54.9667Z" fill="#000001"/>
<path d="M95.6827 111.022C95.6365 110.852 95.1908 110.783 95.2215 111.321C95.2215 111.321 95.014 121.312 95.844 120.474C96.3051 119.998 95.7364 120.474 95.7364 113.204C95.8031 112.477 95.7851 111.745 95.6827 111.022Z" fill="#000001"/>
<path d="M95.8134 87.8129C95.8595 87.6054 95.4676 87.2442 95.2601 87.4594C94.4532 88.2817 95.8365 88.6737 95.8134 87.8129Z" fill="#000001"/>
<path d="M52.3081 45.0451C53.5913 43.1063 54.5395 40.9656 55.1132 38.7125C55.6204 36.9527 55.8817 36.0535 55.6895 32.4261C55.4552 30.6071 54.9823 28.8267 54.2832 27.1311C53.8989 26.3626 53.9911 26.9774 56.2659 24.7026C57.9566 23.0196 61.1306 20.007 61.5533 20.0455C63.4745 19.9148 73.0348 20.2453 74.9253 20.3067C75.225 20.3067 75.1174 20.3067 75.225 20.9062C75.3355 21.7316 75.725 22.4945 76.3287 23.0682C76.9325 23.6418 77.7142 23.9918 78.5443 24.06C79.3743 24.1282 80.2027 23.9105 80.892 23.4431C81.5813 22.9757 82.09 22.2866 82.3337 21.4903C83.5634 17.9244 79.1291 15.2038 76.4162 17.6477C74.9407 18.9619 75.7553 19.8687 74.6948 19.6766C74.3566 19.6151 63.5514 19.3154 61.2996 19.423C60.631 19.4614 55.7818 24.3261 55.7664 24.3414C52.4387 27.4155 54.7212 26.2243 51.0554 21.8284C42.3098 11.93 27.5928 12.6985 19.8616 24.3952C19.0014 25.8582 18.2315 27.3724 17.5561 28.9294C16.7415 30.6355 15.9038 38.9661 18.2401 43.1622C19.4198 45.3704 20.9512 47.3716 22.7743 49.0874C24.2617 50.335 25.836 51.4753 27.4853 52.4996C27.8157 52.7071 27.9464 52.5841 27.7927 53.1221C27.6697 53.4449 24.4958 60.9148 24.2806 61.5757C24.0654 62.2366 24.0577 62.1521 23.8733 62.1136C20.2075 61.3451 18.0941 64.2424 18.8626 67.0936C19.0905 67.8772 19.5543 68.5717 20.1908 69.0825C20.8273 69.5934 21.6057 69.8958 22.4201 69.9487C23.2346 70.0016 24.0455 69.8024 24.7428 69.3782C25.44 68.954 25.9897 68.3253 26.3171 67.5777C26.5528 67.0116 26.6632 66.4011 26.6406 65.7882C26.6181 65.1753 26.4631 64.5746 26.1865 64.0272C25.418 62.6132 24.5419 62.667 24.7032 62.252C24.7032 62.252 26.002 58.8705 26.0328 58.7629C26.9627 56.5573 28.2153 53.6524 28.3383 53.3834C28.5919 52.7609 28.615 52.8992 28.7917 52.9838C28.9685 53.0683 29.4373 53.222 29.9675 53.4064C33.4719 54.6284 34.1252 54.3978 36.4076 54.5285C38.2828 54.6284 42.8631 53.637 46.1831 51.539C48.7148 49.8954 50.8153 47.6685 52.3081 45.0451ZM75.7092 20.4528C75.7092 20.2376 75.8783 20.2222 76.032 20.2299C76.8942 20.2899 77.7596 20.2899 78.6218 20.2299C78.6993 20.236 78.776 20.2111 78.8351 20.1607C78.8942 20.1102 78.9308 20.0384 78.9369 19.9609C78.9431 19.8835 78.9181 19.8068 78.8677 19.7477C78.8173 19.6886 78.7454 19.6519 78.668 19.6458C78.5988 19.6458 77.8456 19.5844 77.8456 19.6458C75.7784 19.6458 75.7323 19.7304 75.9321 19.2232C76.1112 18.8155 76.372 18.4489 76.6984 18.1459C77.0248 17.843 77.4097 17.6102 77.8296 17.4618C78.2495 17.3134 78.6953 17.2527 79.1395 17.2834C79.5837 17.314 80.017 17.4354 80.4125 17.64C80.9074 17.9187 81.314 18.3309 81.5858 18.8296C81.8576 19.3284 81.9836 19.8935 81.9495 20.4605C81.9067 21.1318 81.6557 21.773 81.2315 22.2951C80.8072 22.8171 80.2308 23.1939 79.5825 23.3731C79.0666 23.5175 78.5216 23.5225 78.0031 23.3875C77.4847 23.2525 77.0113 22.9823 76.6314 22.6046C76.0774 22.0325 75.7497 21.2789 75.7092 20.4835V20.4528ZM26.0097 65.9101C25.9795 66.7382 25.6523 67.5279 25.0879 68.1346C24.5234 68.7414 23.7595 69.1248 22.9357 69.2147C18.5552 69.768 17.4562 61.9446 23.5428 62.7361C23.9885 62.7976 21.4525 66.5787 22.3439 66.8015C22.8742 66.9245 22.5822 66.5556 24.1883 63.2203C24.4727 62.7515 26.0481 64.3116 26.0097 65.9101ZM38.9514 15.9032C41.3738 16.2329 43.7072 17.0381 45.8174 18.2725C47.9276 19.507 49.773 21.1464 51.2475 23.0964C51.87 24.011 52.4541 24.9562 52.9921 25.9245C53.6607 27.0927 53.4916 25.9245 49.0957 30.3127C48.8805 30.5356 49.211 30.9045 49.4416 30.7585C49.9633 30.3524 50.4563 29.9107 50.9171 29.4366C52.0929 28.4376 52.8537 27.6537 53.2995 27.3693C53.8528 26.9467 54.068 27.7075 54.9133 31.0121C55.3898 32.8949 55.044 37.9287 54.5752 37.9287C54.5291 37.9287 53.0382 37.6674 51.0247 37.36C45.8142 36.5915 38.2982 35.6385 35.8851 35.1082C35.447 35.1082 37.13 27.8766 37.7525 23.2886C38.7516 15.5189 38.8284 15.8878 38.9514 15.9032ZM30.3825 52.8301C29.7908 52.6379 29.3066 52.392 28.8916 52.2767C28.4766 52.1614 29.7139 50.1172 30.5439 48.2036C30.5544 48.1704 30.5556 48.135 30.5475 48.1012C30.5393 48.0673 30.5222 48.0363 30.4978 48.0115C30.3902 47.9423 30.2058 47.8885 30.1289 48.0115C29.6448 48.7262 28.5919 51.3007 28.1923 51.9616C27.9387 52.4304 23.3891 48.8876 22.1134 47.4428C19.1777 44.1382 17.4255 41.2256 17.3025 36.7452C17.2564 34.9699 17.3947 30.4818 18.1402 29.1139C18.2862 28.8603 19.316 26.3703 19.9308 25.402C21.1912 23.4038 21.4678 23.3962 22.0058 22.4432C23.0817 20.5834 28.7687 16.7562 32.1808 16.0876C34.0032 15.6608 35.8859 15.5541 37.7448 15.7725C38.5134 15.834 38.3597 15.1731 37.3913 20.9754C37.2607 21.7439 36.7842 25.3789 36.7381 25.6325C36.3615 27.7843 34.6401 35.3004 35.301 35.5463C37.4528 36.3148 54.5906 37.9363 54.3754 38.8048C53.1008 43.781 50.0256 48.1075 45.745 50.9472C38.8284 55.1356 33.4412 53.8214 30.3825 52.8301Z" fill="#000001"/>
<path d="M76.4317 78.7904C76.8421 79.4366 77.2093 80.1092 77.5307 80.8039C78.0686 82.7252 77.8381 82.8943 78.1147 83.2017C78.6834 83.8319 79.0754 82.8635 77.6767 79.8356C76.7314 77.7376 76.2626 78.4216 76.4317 78.7904Z" fill="#000001"/>
<path d="M74.3106 123.364C73.6036 119.406 68.0319 119.306 67.7399 122.788C67.7399 122.788 67.8244 122.895 67.809 122.926C67.64 123.257 67.809 123.134 67.809 124.417C68.0242 128.605 74.7256 129.274 74.472 124.709C74.4929 124.255 74.4384 123.8 74.3106 123.364ZM72.6967 127.084C72.1482 127.268 71.5654 127.329 70.9907 127.261C69.7534 127.145 68.8388 126.108 68.5084 124.655C67.9781 122.273 69.1462 120.897 70.3682 120.92C70.9614 120.897 71.5523 121.008 72.0973 121.243C72.6753 121.579 73.1407 122.079 73.4345 122.68C73.6959 123.359 73.8514 124.075 73.8956 124.801C73.9443 125.257 73.8563 125.716 73.6428 126.121C73.4292 126.526 73.0999 126.859 72.6967 127.076V127.084Z" fill="#000001"/>
<path d="M62.1298 80.212C62.1298 79.6971 61.4074 79.6049 61.3613 80.212C61.3613 80.3139 61.4018 80.4116 61.4739 80.4837C61.5459 80.5558 61.6437 80.5962 61.7456 80.5962C61.8475 80.5962 61.9452 80.5558 62.0173 80.4837C62.0894 80.4116 62.1298 80.3139 62.1298 80.212Z" fill="#000001"/>
<path d="M53.3609 71.7894C53.8451 71.9431 55.0362 71.3052 56.9729 72.7884C57.6338 73.3033 57.4801 73.3264 57.8106 73.3725C58.7328 73.4878 56.4119 71.1208 54.4368 71.2975C52.6923 71.2975 53.2456 71.7509 53.3609 71.7894Z" fill="#000001"/>
<path d="M52.5001 71.7586C52.9535 69.968 54.0371 69.2764 53.5837 68.9382C53.1303 68.6001 52.2004 70.9056 52.1005 71.5281C52.0006 72.1506 52.4463 71.9892 52.5001 71.7586Z" fill="#000001"/>
<path d="M28.8841 130.004C28.3154 129.888 27.1089 129.65 26.8168 129.143C26.6785 128.897 26.4095 128.828 26.3557 128.889C25.5872 129.819 29.9523 131.502 32.6652 129.973C32.7169 129.945 32.756 129.899 32.7745 129.843C32.7931 129.787 32.7897 129.726 32.7651 129.673C32.7358 129.621 32.6879 129.582 32.6309 129.563C32.574 129.545 32.5121 129.548 32.4577 129.573C31.3406 130.086 30.091 130.237 28.8841 130.004Z" fill="#000001"/>
<path d="M27.8081 116.678C30.5363 117.347 32.9033 116.794 32.6267 116.156C32.473 115.795 31.9043 116.54 29.9369 116.478C29.3028 116.425 28.6735 116.325 28.054 116.179C27.8908 116.162 27.7347 116.103 27.6003 116.009C27.4659 115.915 27.3575 115.788 27.2855 115.641C27.2164 115.495 26.9935 115.641 26.9935 115.641C26.9465 115.786 26.9465 115.942 26.9935 116.087C27.1853 116.375 27.4744 116.585 27.8081 116.678Z" fill="#000001"/>
<path d="M29.7984 74.4709C28.6072 74.1251 15.1967 72.7264 15.7347 73.4334C15.5349 73.5103 15.5118 73.4334 15.4888 74.0328C15.4888 74.225 15.8884 74.371 16.0421 74.3479C18.0095 74.0252 27.4929 75.3086 29.4833 75.4469C29.8983 75.4469 29.9367 75.4469 30.0674 75.0396C30.0891 74.9848 30.0994 74.926 30.0975 74.8671C30.0956 74.8081 30.0816 74.7502 30.0564 74.6968C30.0312 74.6435 29.9953 74.5959 29.9509 74.5571C29.9065 74.5182 29.8546 74.4889 29.7984 74.4709Z" fill="#000001"/>
<path d="M25.5101 78.529C20.5148 78.1525 25.318 78.2524 20.1306 78.0449C19.9211 78.068 19.7098 78.068 19.5004 78.0449C18.5258 77.9053 17.5409 77.8513 16.557 77.8835C15.7347 77.8297 15.02 77.5377 15.0661 78.237C15.1122 78.9364 15.6425 78.8211 18.2861 79.0055C27.6927 79.6664 27.8925 80.3274 28.2768 79.359C28.538 78.6289 26.4861 78.5982 25.5101 78.529Z" fill="#000001"/>
<path d="M15.681 76.3623C18.5783 76.685 16.0268 76.5083 21.8291 76.7849C23.8272 76.8772 23.6658 77.1154 25.1106 77.0462C25.1064 77.0639 25.1064 77.0824 25.1106 77.1C25.7177 76.9617 25.5333 77.0462 25.687 76.7235C25.8407 76.4007 25.7869 76.2239 25.4334 76.1163C25.0873 76.0005 24.7212 75.956 24.3575 75.9857C24.0962 75.9857 23.4967 75.8166 23.0971 75.7859C18.3323 75.3863 19.1854 75.6937 17.341 75.5323C16.7224 75.3817 16.0807 75.3504 15.4504 75.4401C15.0201 75.5861 15.1507 76.3085 15.681 76.3623Z" fill="#000001"/>
<path d="M24.5344 80.7507C23.5869 80.4649 22.6037 80.3148 21.614 80.305C19.1855 80.305 17.8944 79.6748 15.7119 79.8516C15.0817 79.8977 15.2738 80.5048 15.2661 80.5202C15.1893 80.7661 15.4198 80.8276 15.6735 80.843C16.7263 80.9044 23.251 81.4808 24.2577 81.7421C24.7342 81.8651 25.2414 81.0274 24.5344 80.7507Z" fill="#000001"/>
<path d="M5.04563 121.243H4.87573C5.05335 121.451 5.01474 121.467 5.04563 121.243Z" fill="#000001"/>
</svg>
