<svg width="154" height="154" viewBox="0 0 154 154" fill="none" xmlns="http://www.w3.org/2000/svg">
<path d="M113 75.0477L107.604 71.4179C107.325 71.2309 106.982 71.162 106.652 71.2263C106.322 71.2907 106.03 71.483 105.841 71.7615L103.957 74.577C103.864 74.7146 103.799 74.8693 103.766 75.0321C103.733 75.1949 103.732 75.3627 103.763 75.5258C103.795 75.6889 103.858 75.8442 103.95 75.9828C104.042 76.1214 104.16 76.2406 104.297 76.3336L104.82 76.6855C104.773 76.5504 104.76 76.4059 104.78 76.2643C104.801 76.1228 104.855 75.9882 104.938 75.872L106.459 73.6155C106.594 73.4152 106.804 73.2769 107.041 73.2309C107.278 73.1849 107.524 73.2349 107.725 73.3701L111.296 75.7738C111.497 75.9083 111.636 76.1171 111.683 76.3544C111.73 76.5916 111.681 76.8378 111.547 77.039L110.02 79.3055C109.938 79.4262 109.826 79.5244 109.696 79.5913C109.566 79.6582 109.421 79.6917 109.274 79.6889L109.734 80.0025C110.014 80.1895 110.357 80.2584 110.687 80.1941C111.017 80.1297 111.309 79.9374 111.498 79.659L113.391 76.8435C113.487 76.7009 113.552 76.5405 113.584 76.372C113.616 76.2034 113.614 76.0301 113.578 75.8624C113.541 75.6947 113.471 75.5361 113.372 75.3962C113.273 75.2562 113.146 75.1377 113 75.0477Z" fill="#FFB43B"/>
<path d="M110.44 80.6007C109.925 80.5661 109.438 80.3558 109.059 80.0049C108.991 79.9584 108.94 79.8912 108.913 79.8131C108.886 79.7351 108.885 79.6504 108.91 79.5718C108.935 79.4931 108.985 79.4247 109.052 79.3766C109.119 79.3285 109.2 79.3034 109.283 79.3049C109.366 79.3077 109.448 79.2892 109.522 79.2512C109.595 79.2132 109.658 79.157 109.704 79.0879L111.223 76.8344C111.264 76.7768 111.292 76.7117 111.307 76.643C111.321 76.5742 111.322 76.5033 111.309 76.4342C111.296 76.3651 111.269 76.2993 111.23 76.2407C111.192 76.1822 111.141 76.1319 111.083 76.093L107.511 73.6877C107.394 73.61 107.252 73.5815 107.114 73.6082C106.977 73.6349 106.856 73.7147 106.777 73.8303L105.256 76.0861C105.206 76.1531 105.173 76.2313 105.16 76.314C105.146 76.3966 105.153 76.4813 105.18 76.5607C105.206 76.6367 105.208 76.719 105.185 76.796C105.162 76.873 105.115 76.9408 105.052 76.9899C104.988 77.039 104.91 77.0668 104.83 77.0695C104.75 77.0721 104.671 77.0494 104.604 77.0047L104.094 76.6612C103.912 76.5413 103.755 76.3864 103.633 76.2055C103.511 76.0246 103.426 75.8212 103.383 75.6072C103.34 75.3932 103.34 75.1728 103.383 74.9589C103.427 74.7449 103.512 74.5417 103.634 74.3609L105.517 71.5469C105.764 71.1836 106.144 70.9324 106.575 70.8482C107.006 70.7641 107.452 70.8537 107.817 71.0976L113.253 74.7535C113.618 74.998 113.872 75.3774 113.958 75.8086C114.044 76.2397 113.956 76.6875 113.713 77.0537L111.818 79.87C111.666 80.0955 111.461 80.2801 111.22 80.4075C110.98 80.5349 110.712 80.6013 110.44 80.6007ZM110.109 79.7703C110.299 79.8464 110.508 79.8554 110.704 79.7958C110.899 79.7363 111.068 79.6118 111.183 79.4429L113.075 76.629C113.206 76.4323 113.254 76.1916 113.207 75.9599C113.161 75.7281 113.025 75.5242 112.828 75.393L107.393 71.7363C107.197 71.6054 106.958 71.5572 106.726 71.6023C106.495 71.6474 106.291 71.7821 106.159 71.9771L104.273 74.7918C104.149 74.9761 104.098 75.2008 104.132 75.4209C104.165 75.641 104.281 75.8402 104.455 75.9787C104.527 75.7687 104.443 75.9151 106.138 73.4032C106.331 73.1192 106.628 72.923 106.965 72.8576C107.302 72.7923 107.651 72.863 107.936 73.0544L111.507 75.4581C111.648 75.5525 111.77 75.6739 111.865 75.8154C111.959 75.9568 112.025 76.1155 112.058 76.2824C112.091 76.4493 112.091 76.6211 112.058 76.7879C112.024 76.9547 111.958 77.1133 111.863 77.2546C110.165 79.7834 110.286 79.6223 110.109 79.7703Z" fill="#4B1010"/>
<path d="M109.841 69.9069C109.201 70.1601 108.67 70.6295 108.34 71.2335C108.011 71.8375 107.903 72.5379 108.036 73.2131C108.067 73.626 108.257 74.0108 108.566 74.2865C108.722 74.4072 108.921 74.4608 109.117 74.4355C109.313 74.4102 109.491 74.3081 109.612 74.1516C109.8 73.9116 109.678 73.3135 110.018 73.1387C110.92 73.5406 111.754 74.0799 112.49 74.7374C112.933 74.1592 113.293 73.522 113.559 72.8443C113.124 72.5008 113.667 72.9286 109.841 69.9069Z" fill="white"/>
<path d="M112.234 75.0218C111.607 74.4609 110.905 73.9895 110.148 73.621C110.126 73.8544 110.067 74.0828 109.973 74.298C109.89 74.4307 109.779 74.5444 109.649 74.6319C109.518 74.7194 109.371 74.7788 109.217 74.8061C109.062 74.8335 108.904 74.8283 108.751 74.7908C108.599 74.7533 108.456 74.6845 108.332 74.5886C107.938 74.2471 107.695 73.7646 107.654 73.2453C107.512 72.4879 107.638 71.7046 108.012 71.0305C108.385 70.3564 108.982 69.8337 109.7 69.5526C109.794 69.5152 109.9 69.5169 109.993 69.5573C110.086 69.5977 110.16 69.6735 110.197 69.768C110.235 69.8626 110.233 69.9682 110.193 70.0615C110.152 70.1548 110.076 70.2283 109.982 70.2657C109.425 70.4858 108.963 70.8942 108.677 71.4196C108.39 71.9451 108.296 72.5545 108.412 73.1417C108.431 73.4701 108.577 73.778 108.821 73.999C108.897 74.0501 108.99 74.0701 109.081 74.0547C109.172 74.0392 109.253 73.9897 109.308 73.9162C109.406 73.7337 109.315 73.0681 109.845 72.7959C109.896 72.7696 109.952 72.7551 110.01 72.7535C110.067 72.7519 110.124 72.7633 110.177 72.7867C110.985 73.1466 111.742 73.6134 112.426 74.1746C112.686 73.7929 112.911 73.3881 113.096 72.9654L113.012 72.8995C112.932 72.8368 112.88 72.7449 112.868 72.644C112.855 72.543 112.883 72.4413 112.946 72.3612C113.009 72.2811 113.101 72.2291 113.202 72.2167C113.303 72.2044 113.404 72.2326 113.484 72.2953L113.798 72.5406C113.863 72.5914 113.91 72.662 113.932 72.7417C113.954 72.8214 113.949 72.9061 113.919 72.983C113.639 73.6937 113.261 74.3621 112.797 74.9689C112.765 75.0114 112.725 75.0468 112.678 75.0727C112.632 75.0986 112.58 75.1146 112.527 75.1196C112.474 75.1246 112.421 75.1184 112.37 75.1016C112.32 75.0848 112.273 75.0576 112.234 75.0218Z" fill="#4B1010"/>
<path d="M106.084 98.3309L88.5722 86.8987C88.3229 86.7275 88.112 86.5064 87.9527 86.2494C87.7934 85.9925 87.6892 85.7052 87.6467 85.4058C87.2242 86.4233 86.8071 88.3724 87.4167 88.7719L104.94 100.201C105.656 100.672 107.305 99.1222 107.777 98.4061L107.854 98.288C107.598 98.4749 107.292 98.5792 106.976 98.5868C106.659 98.5945 106.348 98.5052 106.084 98.3309Z" fill="#FFB43B"/>
<path d="M88.133 84.7901L96.4062 72.1288C96.4062 72.1288 97.255 70.8307 98.5523 71.6787L116.057 83.1186C116.057 83.1186 117.355 83.9674 116.507 85.2655L108.233 97.9261C108.233 97.9261 107.385 99.2234 106.087 98.3754L88.5823 86.9355C88.5823 86.9355 87.2842 86.0875 88.1322 84.7894" fill="white"/>
<path d="M116.273 82.7551L98.7609 71.3183C98.3314 71.0386 97.8085 70.9406 97.3069 71.0458C96.8053 71.151 96.3659 71.4509 96.085 71.8796C88.4412 83.5487 93.0088 76.408 87.5441 84.7609C87.127 85.3989 86.1486 88.4022 87.206 89.0961L104.725 100.525C105.32 100.914 106.106 100.485 106.675 100.059C107.368 99.4701 108 98.8136 108.562 98.0993L116.835 85.4342C116.974 85.2214 117.07 84.9833 117.117 84.7335C117.164 84.4836 117.161 84.2269 117.109 83.9781C117.057 83.7293 116.956 83.4932 116.813 83.2833C116.669 83.0735 116.486 82.894 116.273 82.7551ZM106.217 99.4411C105.573 99.9219 105.236 99.9395 105.143 99.8797L87.6231 88.4551C87.3931 88.3064 87.4698 87.351 87.6906 86.4616C87.8423 86.7699 88.0736 87.0319 88.3607 87.2207L105.883 98.659C106.15 98.8336 106.457 98.939 106.775 98.9657C106.598 99.135 106.412 99.2937 106.217 99.4411ZM116.192 85.0117L107.92 97.6776C107.75 97.9363 107.485 98.1172 107.182 98.1807C106.88 98.2443 106.564 98.1852 106.305 98.0165L88.7939 86.5789C88.5352 86.4094 88.3543 86.1442 88.2908 85.8416C88.2273 85.5389 88.2863 85.2233 88.455 84.9641L96.7275 72.2982C96.8971 72.0397 97.1623 71.8589 97.465 71.7955C97.7677 71.7321 98.0831 71.7913 98.3423 71.9601L115.853 83.3969C115.982 83.4806 116.092 83.5888 116.179 83.7153C116.265 83.8418 116.326 83.9841 116.357 84.1341C116.389 84.284 116.39 84.4387 116.362 84.5893C116.334 84.7399 116.276 84.8834 116.192 85.0117Z" fill="#4B1010"/>
<path d="M109.274 68.6218C114.411 57.9847 120.706 47.9334 126.126 38.671C127.478 36.3608 129.033 33.0393 132.307 34.4041C133.109 34.7568 133.808 35.3071 134.34 36.0035C134.872 36.7 135.219 37.5198 135.348 38.3866C135.782 40.9874 134.657 42.1827 133.201 44.391L118.307 66.8368C117.387 68.2169 115.59 71.9479 113.951 72.5951C113.299 72.7919 112.596 72.7287 111.989 72.4187C110.925 71.9581 110.021 71.1937 109.39 70.2212C109.205 69.9841 109.096 69.697 109.076 69.397C109.089 69.1278 109.156 68.8641 109.274 68.6218Z" fill="white"/>
<path d="M111.815 72.7598C110.69 72.2707 109.734 71.4601 109.068 70.4297C108.855 70.1498 108.729 69.8141 108.704 69.4635C108.679 69.1129 108.756 68.7626 108.927 68.4553C113.309 59.2988 118.829 50.4681 126.088 37.9671C127.364 35.7688 129.072 32.7348 132.445 34.0467C133.309 34.4262 134.062 35.0178 134.636 35.7665C135.209 36.5151 135.584 37.3966 135.726 38.329C136.141 40.6108 135.28 42.0293 133.969 43.9377C133.816 44.1609 118.159 67.8059 117.867 68.3035C116.857 70.0348 115.473 72.4056 114.092 72.9515C113.337 73.1881 112.52 73.1192 111.815 72.7598ZM130.895 34.4991C128.947 34.4991 127.807 36.5332 126.755 38.3474C120.174 49.6799 114.246 59.2075 109.617 68.7873C109.522 68.9826 109.468 69.1953 109.459 69.4122C109.48 69.6205 109.56 69.8185 109.689 69.9834C110.281 70.9048 111.134 71.6293 112.139 72.0652C112.663 72.3382 113.272 72.3962 113.838 72.2269C115.279 71.6557 117.121 67.9178 117.985 66.6228C117.985 66.6228 133.178 43.7292 133.334 43.5022C134.532 41.7586 135.339 40.5119 134.967 38.4532C134.6 36.0456 132.566 34.4983 130.895 34.4983V34.4991Z" fill="#4B1010"/>
<path d="M135.75 37.2778C135.163 35.7968 134.067 34.5736 132.66 33.8274L134.2 41.2342C135.887 38.1626 135.81 38.3412 135.878 38.0361C135.896 37.7768 135.852 37.517 135.75 37.2778Z" fill="white"/>
<path d="M134.2 41.6153C134.133 41.6152 134.068 41.5978 134.01 41.5648C133.952 41.5319 133.904 41.4844 133.87 41.4272C133.836 41.37 133.818 41.3049 133.817 41.2384C133.816 41.1719 133.832 41.1062 133.864 41.0479C135.565 37.9479 135.453 38.1849 135.502 37.9533C135.507 37.7742 135.472 37.5963 135.399 37.4327C134.864 36.0215 133.826 34.858 132.485 34.1656C132.44 34.1425 132.401 34.1108 132.368 34.0724C132.336 34.034 132.311 33.9895 132.296 33.9416C132.265 33.8447 132.273 33.7395 132.32 33.6492C132.366 33.5588 132.447 33.4906 132.544 33.4596C132.641 33.4286 132.746 33.4373 132.836 33.4839C134.34 34.2596 135.505 35.563 136.108 37.1444C136.234 37.4339 136.286 37.7498 136.261 38.0645C136.174 38.4962 136.219 38.3497 134.538 41.4159C134.505 41.4767 134.456 41.5273 134.397 41.5624C134.337 41.5975 134.269 41.6158 134.2 41.6153Z" fill="#4B1010"/>
<path d="M106.074 121.077L82.0483 113.819C88.6999 118.214 95.9694 121.58 103.219 124.925C118.562 132.007 133.945 139.091 149.641 145.301C135.305 136.882 120.783 128.808 106.074 121.077Z" fill="#FFE55D"/>
<path d="M149.5 145.655C133.513 139.33 117.333 131.862 103.058 125.271C95.932 121.983 88.5628 118.581 81.8368 114.137C81.7949 114.11 81.7587 114.074 81.7306 114.032C81.7024 113.99 81.6828 113.943 81.6727 113.894C81.6627 113.845 81.6625 113.794 81.6721 113.745C81.6817 113.695 81.7009 113.648 81.7287 113.606C81.7565 113.564 81.7923 113.528 81.8341 113.5C81.8758 113.472 81.9227 113.452 81.972 113.442C82.0214 113.432 82.0722 113.432 82.1216 113.441C82.1711 113.451 82.2181 113.47 82.2601 113.498C88.9369 117.91 96.2793 121.298 103.379 124.575C116.199 130.493 130.556 137.121 144.922 142.988C132.065 135.526 119.053 128.334 105.894 121.416C105.847 121.394 105.805 121.363 105.771 121.324C105.736 121.286 105.71 121.24 105.693 121.191C105.676 121.142 105.67 121.09 105.674 121.038C105.678 120.986 105.693 120.936 105.717 120.89C105.741 120.844 105.774 120.804 105.815 120.771C105.855 120.738 105.902 120.714 105.951 120.7C106.001 120.686 106.054 120.682 106.105 120.688C106.157 120.695 106.206 120.712 106.251 120.738C120.965 128.474 135.497 136.552 149.834 144.968C149.917 145.016 149.979 145.095 150.007 145.187C150.035 145.279 150.027 145.379 149.985 145.466C149.943 145.552 149.869 145.62 149.78 145.655C149.69 145.691 149.59 145.691 149.5 145.655Z" fill="#4B1010"/>
<path d="M60.2381 77.4608C60.2581 75.9112 60.14 74.0664 58.7959 73.3012C55.0779 82.4347 53.4003 85.9664 49.8096 95.6136L61.6819 100.401C60.6054 92.8035 60.1227 85.1335 60.2381 77.4608Z" fill="#FFE55D"/>
<path d="M61.6817 100.784C61.5887 100.785 61.4985 100.752 61.4279 100.692C61.3574 100.631 61.3113 100.547 61.2983 100.455C60.2222 92.8373 59.7395 85.1477 59.8545 77.4554C59.8714 76.1082 59.7694 74.6652 58.9651 73.9015C55.3108 82.8587 53.7113 86.2293 50.1689 95.7439C50.1519 95.7918 50.1255 95.8358 50.0913 95.8734C50.0572 95.9111 50.0158 95.9415 49.9697 95.963C49.9237 95.9845 49.8738 95.9966 49.823 95.9986C49.7722 96.0006 49.7215 95.9925 49.6739 95.9748C49.6262 95.9571 49.5826 95.93 49.5455 95.8953C49.5084 95.8605 49.4786 95.8187 49.4578 95.7723C49.437 95.7259 49.4257 95.6759 49.4244 95.625C49.4232 95.5742 49.432 95.5237 49.4505 95.4763C53.0542 85.7907 54.7096 82.3227 58.4406 73.157C58.4612 73.1065 58.4923 73.061 58.5319 73.0235C58.5715 72.986 58.6186 72.9573 58.6701 72.9395C58.7217 72.9216 58.7764 72.915 58.8307 72.9199C58.885 72.9249 58.9376 72.9414 58.985 72.9684C60.4664 73.8118 60.6427 75.7149 60.6213 77.4661C60.5073 85.1177 60.9882 92.7666 62.0597 100.344C62.068 100.398 62.0644 100.454 62.0492 100.507C62.034 100.56 62.0076 100.609 61.9717 100.651C61.9358 100.693 61.8913 100.726 61.8413 100.749C61.7912 100.772 61.7368 100.784 61.6817 100.784Z" fill="#4B1010"/>
<path d="M66.4899 98.5533C66.2506 97.9159 65.887 97.3323 65.4202 96.8366C64.4176 95.5918 63.5248 94.2624 62.752 92.8633C62.0358 91.5683 61.4669 89.8515 62.3992 88.7137L55.316 85.6796C53.5257 86.3155 51.9734 87.485 50.8683 89.0303C49.7632 90.5757 49.1583 92.4227 49.1353 94.3224L51.6763 95.2057C52.4706 94.705 52.8141 92.4293 53.9129 92.6846C54.342 92.8344 54.7151 93.1115 54.9825 93.479C57.9415 96.7104 61.7175 99.0835 65.9125 100.348C66.1915 100.153 66.3989 99.8721 66.5031 99.5479C66.6074 99.2238 66.6027 98.8745 66.4899 98.5533Z" fill="white"/>
<path d="M65.8006 100.715C61.5404 99.429 57.7055 97.0186 54.6997 93.7372C54.4734 93.4189 54.1545 93.1779 53.7865 93.0471C53.1025 92.9053 52.4339 95.8787 51.5506 95.569L49.0096 94.6857C48.9337 94.6593 48.8679 94.6097 48.8217 94.544C48.7755 94.4782 48.7511 94.3996 48.752 94.3192C48.7811 92.3423 49.413 90.4214 50.5631 88.8133C51.7132 87.2051 53.3267 85.9864 55.1881 85.3198C55.2359 85.3011 55.2871 85.2921 55.3385 85.2935C55.3898 85.2949 55.4404 85.3067 55.4872 85.328C55.534 85.3494 55.576 85.3799 55.6107 85.4178C55.6454 85.4557 55.6721 85.5002 55.6893 85.5487C55.7065 85.5971 55.7138 85.6485 55.7107 85.6998C55.7076 85.7511 55.6942 85.8013 55.6713 85.8473C55.6485 85.8934 55.6166 85.9344 55.5775 85.9678C55.5385 86.0013 55.4932 86.0265 55.4442 86.0421C53.7745 86.6403 52.3204 87.7214 51.2667 89.1479C50.213 90.5745 49.6072 92.2822 49.5264 94.0539L51.5966 94.7739C52.2192 94.0991 52.6394 91.9982 53.9988 92.3118C54.517 92.4844 54.9688 92.8137 55.2916 93.2542C58.1539 96.367 61.7889 98.6671 65.8275 99.921C65.9914 99.7646 66.1068 99.5643 66.1599 99.344C66.2131 99.1238 66.2017 98.8929 66.1273 98.6789C65.9063 98.0918 65.5709 97.5543 65.1405 97.0979C64.116 95.8295 63.2042 94.4741 62.4154 93.0471C61.6686 91.6961 61.0077 89.8053 62.1018 88.4697C62.1338 88.4307 62.173 88.3984 62.2174 88.3746C62.2618 88.3508 62.3105 88.336 62.3606 88.331C62.4107 88.326 62.4614 88.331 62.5096 88.3455C62.5578 88.3601 62.6027 88.3841 62.6416 88.416C62.6806 88.4479 62.7129 88.4872 62.7367 88.5316C62.7605 88.576 62.7753 88.6246 62.7803 88.6748C62.7853 88.7249 62.7803 88.7755 62.7657 88.8237C62.7512 88.8719 62.7272 88.9168 62.6953 88.9558C61.8296 90.0116 62.5688 91.7406 63.0871 92.6768C63.8494 94.0562 64.7298 95.3669 65.7186 96.5941C66.2117 97.1214 66.5956 97.7411 66.848 98.4175C67.2812 99.6504 66.3006 100.87 65.8006 100.715Z" fill="#4B1010"/>
<path d="M110.164 104.626C109.184 103.233 108.124 101.731 108.202 99.9856C108.28 98.2397 109.497 96.7775 110.675 95.4924L104.22 92.9905C101.93 93.6878 99.7675 94.7476 97.8136 96.1296C96.842 96.8287 96.0196 97.7146 95.3946 98.7355C94.7696 99.7564 94.3546 100.892 94.1738 102.075L96.9702 103.056L98.7452 100.515C102.522 103.832 102.559 105.209 105.397 107.785C106.476 108.626 107.765 109.157 109.123 109.321C110.482 109.485 111.859 109.276 113.108 108.717L110.164 104.626Z" fill="white"/>
<path d="M105.162 108.087C102.296 105.49 102.356 104.297 98.8131 101.088L97.285 103.276C97.2369 103.344 97.1678 103.395 97.088 103.421C97.0083 103.447 96.9223 103.445 96.8433 103.418L94.0477 102.437C93.9633 102.407 93.8918 102.349 93.8457 102.272C93.7996 102.196 93.7819 102.105 93.7955 102.017C93.9867 100.784 94.4205 99.6015 95.0719 98.5377C95.7232 97.4739 96.5792 96.5498 97.5901 95.8191C99.5772 94.4114 101.778 93.3326 104.107 92.624C104.156 92.6094 104.206 92.6043 104.256 92.6092C104.307 92.6141 104.355 92.6289 104.4 92.6526C104.444 92.6763 104.483 92.7085 104.515 92.7474C104.547 92.7863 104.571 92.8312 104.586 92.8793C104.601 92.9275 104.606 92.9781 104.601 93.0282C104.596 93.0783 104.581 93.127 104.557 93.1714C104.534 93.2159 104.501 93.2552 104.463 93.2872C104.424 93.3191 104.379 93.3431 104.331 93.3578C102.08 94.0416 99.9537 95.0834 98.0341 96.4432C96.2493 97.7346 95.0235 99.6574 94.6059 101.82L96.8211 102.598L98.4312 100.298C98.4621 100.254 98.502 100.216 98.5482 100.189C98.5944 100.161 98.6459 100.144 98.6993 100.137C98.7528 100.131 98.807 100.136 98.8584 100.151C98.9099 100.167 98.9574 100.194 98.9979 100.229C100.37 101.436 101.628 102.766 102.755 104.205C103.594 105.409 104.566 106.515 105.653 107.502C106.613 108.246 107.746 108.733 108.947 108.916C110.147 109.099 111.374 108.972 112.512 108.548L109.853 104.851C108.856 103.436 107.734 101.843 107.819 99.9695C107.903 98.0955 109.19 96.5452 110.391 95.2348C110.425 95.1977 110.466 95.1676 110.512 95.1464C110.557 95.1251 110.607 95.1131 110.657 95.1109C110.707 95.1087 110.758 95.1165 110.805 95.1337C110.852 95.151 110.896 95.1774 110.933 95.2114C110.97 95.2454 111 95.2864 111.021 95.3321C111.042 95.3777 111.054 95.4271 111.057 95.4774C111.059 95.5277 111.051 95.578 111.034 95.6253C111.017 95.6726 110.99 95.716 110.956 95.7531C109.796 97.019 108.656 98.3907 108.585 100.004C108.513 101.617 109.505 103.031 110.472 104.399L113.418 108.494C113.451 108.54 113.474 108.593 113.484 108.649C113.495 108.705 113.493 108.763 113.478 108.818C113.463 108.873 113.436 108.924 113.4 108.967C113.363 109.011 113.317 109.045 113.265 109.068C111.953 109.658 110.505 109.878 109.077 109.705C107.649 109.532 106.295 108.973 105.162 108.087Z" fill="#4B1010"/>
<path d="M129.133 76.0951C127.958 69.9113 122.45 63.9943 120.032 60.0701C119.555 59.2773 119.03 58.5147 118.459 57.7867C118.397 57.71 108.406 47.8956 108.329 47.8956C100.662 47.7354 94.8229 54.7197 89.8398 60.7118C86.3197 64.9435 84.6719 66.7254 75.5323 71.2209C67.6392 75.0664 60.1646 79.7172 53.2275 85.099C53.16 85.1516 53.1119 85.2253 53.0911 85.3083C53.0703 85.3914 53.0778 85.479 53.1126 85.5573C53.1474 85.6355 53.2073 85.6999 53.2829 85.7401C53.3585 85.7803 53.4453 85.794 53.5296 85.7792C54.4888 86.0859 60.0593 90.6097 60.8736 91.0229C63.6944 92.4338 64.0287 90.2156 65.7041 88.633C69.9795 84.5838 75.1351 81.2408 80.0423 78.163C89.5408 72.1824 97.6338 66.6756 107.823 63.1831C111.369 66.6764 114.479 70.5852 117.087 74.8246C117.786 75.7379 118.153 76.8621 118.128 78.012C117.831 79.1227 117.183 80.1079 116.282 80.8214C110.117 86.7759 99.6227 90.0009 95.0982 96.7874C95.0582 96.8472 95.0359 96.9171 95.0338 96.989C95.0318 97.0609 95.0499 97.132 95.0863 97.1941C95.1227 97.2561 95.1759 97.3067 95.2396 97.34C95.3034 97.3733 95.3753 97.388 95.447 97.3824C101.467 96.9223 105.77 98.0993 108.989 101.096C109.027 101.132 109.072 101.16 109.121 101.177C109.17 101.195 109.223 101.202 109.275 101.199C109.327 101.195 109.378 101.181 109.424 101.157C109.471 101.134 109.512 101.101 109.545 101.06C111.743 98.3968 116.109 93.1883 116.906 92.5396C120.456 89.5844 123.81 86.4008 126.946 83.0089C127.822 82.1056 128.477 81.0105 128.856 79.8104C129.236 78.6103 129.33 77.3382 129.133 76.0951Z" fill="#4B1010"/>
<path d="M141.509 15.4408C140.924 11.5119 137.723 9.35968 133.749 8.96557C128.766 8.16432 124.779 9.28454 121.349 11.9973C119.591 13.4011 117.57 14.4385 115.404 15.0482C112.958 15.5282 110.429 15.3625 108.066 14.5674C105.986 13.7138 103.958 12.7376 101.994 11.6438C100.031 10.6075 97.8556 10.0368 95.6367 9.97615C94.6038 9.91006 93.5704 10.0971 92.6262 10.5211C91.6821 10.9451 90.8557 11.5932 90.2188 12.409C89.7403 13.1915 89.4515 14.0751 89.3754 14.9891C89.3164 15.6582 89.0641 16.2957 88.6493 16.824C87.6686 17.8637 85.9419 17.9618 84.7251 18.5998C83.5082 19.2377 81.9978 20.4729 82.5475 22.0501C82.8711 23.0316 83.8126 23.5836 84.0381 24.5321C84.3915 26.0334 82.5966 25.3755 81.9295 24.9837C80.9953 24.3144 80.0112 23.7174 78.986 23.198C78.0422 22.8366 77.0026 22.8125 76.0432 23.1297C75.619 23.2308 75.2302 23.4449 74.918 23.7494C74.6059 24.0539 74.3821 24.4372 74.2705 24.8587C73.5344 28.4387 78.5642 30.7029 81.3928 28.7822C81.4321 28.759 81.4664 28.7283 81.4938 28.6918C81.5212 28.6553 81.5411 28.6138 81.5525 28.5696C81.5638 28.5255 81.5664 28.4795 81.56 28.4343C81.5535 28.3892 81.5383 28.3457 81.5151 28.3064C81.4919 28.2672 81.4612 28.2328 81.4247 28.2054C81.3882 28.1781 81.3467 28.1581 81.3025 28.1467C81.2583 28.1354 81.2124 28.1328 81.1672 28.1393C81.122 28.1457 81.0786 28.1609 81.0393 28.1841C80.8207 28.2838 80.5731 28.2999 80.3435 28.2292C80.1138 28.1585 79.9181 28.0061 79.7933 27.8008C79.5189 27.264 80.0586 26.8983 80.5394 26.8201C82.2262 26.804 83.6156 28.8136 90.7617 30.548C93.1058 31.1686 95.549 31.3218 97.9523 30.9989C98.7957 30.8678 99.9144 30.6753 100.406 29.8487C100.61 29.2731 100.703 28.6641 100.68 28.0538C100.926 26.5203 103.987 28.9463 104.605 29.3879C105.585 30.055 107.175 31.35 108.438 30.7903C108.692 30.7016 108.905 30.5254 109.04 30.2935C109.175 30.0616 109.222 29.7892 109.174 29.5252C109.066 28.9562 108.605 28.5437 108.517 27.9257C108.311 26.6223 110.594 27.1045 111.235 27.3468C112.401 27.8046 113.511 28.3965 114.541 29.1104C118.945 31.5444 123.881 32.8551 128.913 32.9265C128.968 32.9284 129.023 32.9176 129.074 32.895C130.621 33.0185 132.17 32.6661 133.512 31.8852C134.967 31.9811 136.409 31.5535 137.577 30.6795C138.745 29.8054 139.562 28.5427 139.88 27.1191C140.096 26.0702 140.242 25.0083 140.318 23.9402C141.611 21.3064 142.028 18.3284 141.509 15.4408Z" fill="#4B1010"/>
<path d="M120.348 125.227C119.152 124.829 112.734 122.688 112.637 122.667C110.301 122.151 107.606 124.549 107.261 126.777C107.126 127.669 107.31 128.58 107.78 129.35C108.25 130.12 108.976 130.699 109.831 130.986L116.247 133.929L120.348 125.227Z" fill="#FFE55D"/>
<path d="M120.469 124.86C119.941 124.685 112.818 122.311 112.72 122.29C110.173 121.723 107.271 124.259 106.882 126.717C106.731 127.691 106.928 128.687 107.438 129.531C107.948 130.375 108.739 131.012 109.671 131.331L115.295 133.91C116.256 134.313 117.319 134.405 118.336 134.173C119.352 133.941 120.27 133.397 120.962 132.618C122.04 131.545 122.664 130.098 122.702 128.577C122.729 127.808 122.532 127.047 122.136 126.388C121.74 125.728 121.16 125.198 120.469 124.86ZM107.64 126.834C107.933 124.982 110.026 122.976 111.974 122.976C112.381 122.979 112.782 123.066 113.153 123.233L117.657 124.732C116.637 125.077 115.722 125.677 115.001 126.475C114.279 127.273 113.774 128.244 113.534 129.293C113.365 130.479 113.669 131.684 114.381 132.648L109.954 130.619C109.185 130.362 108.531 129.841 108.108 129.15C107.684 128.458 107.519 127.639 107.64 126.837V126.834Z" fill="#4B1010"/>
<path d="M140.615 127.033C140.621 123.04 139.398 119.142 137.113 115.868C131.874 108.697 121.171 106.617 113.107 104.903C97.6398 101.639 82.4659 98.9611 65.7829 96.7414C59.665 95.9287 53.6606 94.6282 47.5481 93.8607C46.7515 93.3102 47.5903 93.8653 31.957 83.4774C32.6376 84.5735 33.4736 85.565 34.439 86.421C55.5139 105.555 63.0548 107.917 85.2745 115.92C99.2738 120.943 113.107 126.496 127.724 129.439C130.294 129.968 138.612 132.137 140.33 128.782C140.568 128.231 140.666 127.63 140.615 127.033Z" fill="#FFE55D"/>
<path d="M140.999 127.033C141.01 122.958 139.761 118.979 137.423 115.642C132.258 108.571 122.103 106.388 113.933 104.683C98.7798 101.523 85.9038 99.0294 65.8341 96.3581C59.7768 95.5538 53.8138 94.2649 47.6905 93.4904C46.8586 92.9162 32.17 83.1554 32.17 83.1554C32.0973 83.1088 32.0111 83.0881 31.9252 83.0966C31.8393 83.1051 31.7587 83.1424 31.6966 83.2023C31.6346 83.2623 31.5945 83.3415 31.583 83.427C31.5715 83.5126 31.5892 83.5995 31.6333 83.6738C32.3313 84.7987 33.1888 85.8166 34.1789 86.6955C52.7518 103.552 57.1376 106.375 80.8379 114.745C97.4303 120.605 112.133 126.686 127.652 129.811C130.263 130.475 132.935 130.873 135.626 130.998C137.876 130.998 139.878 130.508 140.686 128.928C140.944 128.331 141.051 127.681 140.999 127.033ZM139.389 121.602C137.032 119.279 134.277 117.399 131.255 116.05C133.448 116.594 135.849 117.247 136.551 117.696C137.28 118.101 137.912 118.66 138.402 119.335C138.892 120.01 139.229 120.783 139.389 121.602ZM139.938 128.384C139.818 131.604 130.744 129.669 127.8 129.06C115.686 126.621 103.907 122.313 92.5131 118.141C77.1889 112.533 65.0451 108.892 55.013 102.678L54.9961 102.654C55.0923 102.54 55.2117 102.448 55.3464 102.385C55.481 102.321 55.6278 102.287 55.7767 102.285C59.9334 102.52 64.054 103.191 68.0707 104.286C83.2754 107.898 116.699 116.383 131.18 121.901C134.11 123.033 137.14 124.337 139.16 126.698C139.589 127.166 139.861 127.757 139.938 128.387V128.384ZM139.742 126.198C137.606 123.703 134.478 122.353 131.455 121.185C116.901 115.64 83.4065 107.142 68.2601 103.544C64.189 102.433 60.0122 101.755 55.7989 101.519C55.5155 101.52 55.2361 101.586 54.9832 101.714C54.7302 101.842 54.5107 102.027 54.3421 102.255C52.81 101.283 51.3285 100.234 49.9034 99.1115L49.9141 99.1521C44.6396 95.0991 39.6282 90.6121 34.6934 86.1312C34.2889 85.7733 33.9049 85.3929 33.5433 84.9918C33.5433 84.9918 47.2681 94.1069 48.4696 94.9818C48.5436 95.0332 48.6335 95.0569 48.7233 95.0487C48.8132 95.0404 48.8972 95.0007 48.9607 94.9366C49.0242 94.8725 49.063 94.7881 49.0703 94.6982C49.0777 94.6082 49.0531 94.5186 49.0009 94.4451C54.6473 95.231 60.1188 96.3796 65.7337 97.1287C85.1754 99.7165 98.2921 102.215 113.774 105.444C122.787 107.325 133.241 109.647 137.764 117.627C136.608 116.715 135.848 116.35 128.902 114.704C127.998 114.49 127.145 114.288 127 114.231C126.953 114.212 126.903 114.203 126.853 114.204C126.802 114.205 126.753 114.215 126.706 114.235C126.66 114.255 126.618 114.284 126.583 114.32C126.548 114.357 126.521 114.399 126.502 114.446C126.483 114.493 126.474 114.543 126.475 114.593C126.476 114.644 126.486 114.693 126.506 114.74C126.526 114.786 126.555 114.828 126.591 114.863C126.628 114.898 126.67 114.926 126.717 114.944C138.547 119.676 138.73 122.748 139.846 123.185C140.095 124.41 140.225 125.657 140.234 126.907C140.093 126.655 139.928 126.418 139.742 126.198Z" fill="#4B1010"/>
<path d="M115.509 111.415C115.099 111.344 114.695 111.243 114.299 111.114C114.205 111.085 114.125 111.021 114.077 110.935C114.029 110.848 114.016 110.747 114.041 110.651C114.065 110.556 114.126 110.473 114.21 110.421C114.294 110.37 114.395 110.352 114.492 110.373L115.605 110.661C115.695 110.684 115.774 110.74 115.826 110.817C115.878 110.894 115.901 110.988 115.889 111.08C115.877 111.173 115.832 111.258 115.762 111.32C115.692 111.381 115.602 111.415 115.509 111.415ZM112.169 110.551C111.76 110.478 111.355 110.377 110.959 110.25C110.91 110.237 110.865 110.215 110.825 110.185C110.784 110.155 110.751 110.117 110.725 110.073C110.699 110.03 110.683 109.982 110.676 109.932C110.669 109.882 110.672 109.831 110.684 109.783C110.697 109.734 110.719 109.688 110.749 109.648C110.78 109.608 110.818 109.574 110.861 109.548C110.904 109.523 110.952 109.506 111.002 109.499C111.052 109.492 111.103 109.495 111.152 109.508L112.265 109.796C112.355 109.819 112.434 109.875 112.486 109.952C112.538 110.029 112.561 110.123 112.549 110.215C112.537 110.308 112.492 110.393 112.422 110.455C112.352 110.516 112.262 110.55 112.169 110.551ZM108.828 109.685C108.419 109.612 108.015 109.512 107.619 109.384C107.57 109.373 107.523 109.351 107.481 109.321C107.44 109.291 107.405 109.253 107.379 109.209C107.352 109.166 107.335 109.117 107.328 109.067C107.32 109.016 107.323 108.965 107.336 108.915C107.349 108.866 107.371 108.819 107.402 108.779C107.433 108.738 107.472 108.704 107.516 108.679C107.56 108.653 107.609 108.637 107.66 108.631C107.71 108.624 107.762 108.628 107.811 108.642L108.924 108.93C109.015 108.954 109.093 109.009 109.145 109.087C109.198 109.164 109.22 109.257 109.208 109.35C109.197 109.442 109.152 109.527 109.082 109.589C109.012 109.651 108.922 109.685 108.828 109.685ZM105.488 108.82C105.079 108.748 104.674 108.647 104.279 108.519C104.18 108.494 104.096 108.43 104.044 108.343C103.993 108.255 103.978 108.151 104.004 108.052C104.029 107.954 104.093 107.869 104.18 107.818C104.268 107.766 104.373 107.752 104.471 107.777L105.584 108.066C105.675 108.089 105.753 108.144 105.805 108.222C105.858 108.299 105.88 108.392 105.868 108.485C105.857 108.577 105.812 108.662 105.742 108.724C105.672 108.786 105.582 108.82 105.488 108.82ZM102.148 107.955C101.739 107.883 101.334 107.783 100.939 107.655C100.84 107.629 100.756 107.565 100.704 107.478C100.653 107.39 100.638 107.286 100.664 107.187C100.689 107.089 100.753 107.005 100.84 106.953C100.928 106.901 101.033 106.887 101.131 106.912L102.244 107.201C102.335 107.224 102.413 107.28 102.466 107.357C102.518 107.434 102.54 107.528 102.528 107.62C102.517 107.713 102.472 107.798 102.402 107.859C102.332 107.921 102.242 107.955 102.148 107.955ZM98.8085 107.089C98.3988 107.017 97.9945 106.917 97.5986 106.789C97.548 106.778 97.5001 106.757 97.4578 106.727C97.4155 106.698 97.3796 106.659 97.3524 106.615C97.3252 106.571 97.3073 106.522 97.2995 106.471C97.2918 106.42 97.2945 106.368 97.3075 106.318C97.3205 106.268 97.3436 106.221 97.3752 106.18C97.4068 106.139 97.4464 106.105 97.4916 106.079C97.5368 106.054 97.5866 106.038 97.6381 106.033C97.6895 106.027 97.7416 106.032 97.7911 106.047L98.9044 106.336C98.9942 106.36 99.0723 106.416 99.124 106.493C99.1757 106.57 99.1975 106.664 99.1854 106.756C99.1733 106.848 99.1281 106.933 99.0582 106.994C98.9883 107.056 98.8985 107.089 98.8055 107.089H98.8085ZM95.4678 106.225C95.0583 106.152 94.6543 106.052 94.2587 105.924C94.209 105.912 94.1621 105.891 94.1208 105.861C94.0795 105.831 94.0447 105.793 94.0183 105.749C93.9919 105.705 93.9745 105.657 93.9671 105.606C93.9597 105.556 93.9624 105.504 93.9752 105.455C93.988 105.405 94.0105 105.359 94.0414 105.319C94.0723 105.278 94.1111 105.244 94.1553 105.218C94.1996 105.193 94.2485 105.177 94.2991 105.17C94.3498 105.164 94.4012 105.168 94.4503 105.182L95.5637 105.47C95.6581 105.49 95.7416 105.544 95.7977 105.623C95.8537 105.701 95.8781 105.798 95.866 105.893C95.8539 105.989 95.8062 106.077 95.7324 106.139C95.6586 106.201 95.5641 106.233 95.4678 106.228V106.225ZM92.1279 105.36C91.7179 105.288 91.3136 105.188 90.9179 105.059C90.8195 105.034 90.7353 104.97 90.6837 104.882C90.6322 104.795 90.6175 104.69 90.643 104.592C90.6686 104.493 90.7321 104.409 90.8198 104.358C90.9074 104.306 91.012 104.291 91.1104 104.317L92.2237 104.605C92.314 104.629 92.3926 104.684 92.4449 104.761C92.4972 104.838 92.5196 104.932 92.5078 105.025C92.4961 105.117 92.451 105.202 92.3811 105.264C92.3111 105.325 92.2211 105.36 92.1279 105.36ZM88.7879 104.495C88.3783 104.422 87.974 104.322 87.578 104.194C87.5292 104.182 87.4835 104.159 87.4433 104.129C87.4031 104.099 87.3693 104.061 87.3437 104.017C87.3182 103.974 87.3015 103.926 87.2945 103.876C87.2875 103.826 87.2905 103.776 87.3031 103.727C87.3157 103.678 87.3378 103.632 87.3682 103.592C87.3985 103.552 87.4364 103.518 87.4798 103.493C87.5232 103.467 87.5712 103.45 87.6211 103.443C87.6709 103.436 87.7217 103.439 87.7704 103.452L88.8837 103.74C88.974 103.764 89.0526 103.819 89.1049 103.896C89.1572 103.974 89.1796 104.067 89.1679 104.16C89.1561 104.252 89.111 104.337 89.0411 104.399C88.9712 104.461 88.8811 104.495 88.7879 104.495ZM85.4479 103.629C85.0382 103.557 84.6339 103.457 84.238 103.329C84.1883 103.317 84.1415 103.295 84.1002 103.265C84.0589 103.235 84.024 103.197 83.9976 103.154C83.9712 103.11 83.9538 103.061 83.9464 103.011C83.939 102.96 83.9418 102.909 83.9546 102.859C83.9673 102.81 83.9898 102.764 84.0208 102.723C84.0517 102.682 84.0904 102.648 84.1347 102.623C84.1789 102.598 84.2278 102.581 84.2785 102.575C84.3292 102.569 84.3806 102.572 84.4297 102.586L85.5438 102.875C85.634 102.898 85.7127 102.954 85.765 103.031C85.8173 103.108 85.8396 103.202 85.8279 103.294C85.8161 103.387 85.7711 103.472 85.7011 103.533C85.6312 103.595 85.5412 103.629 85.4479 103.629Z" fill="#4B1010"/>
<path d="M122.812 116.872L119.79 116.254C119.739 116.243 119.69 116.222 119.647 116.192C119.604 116.161 119.567 116.123 119.54 116.078C119.513 116.033 119.495 115.982 119.487 115.93C119.48 115.878 119.484 115.825 119.498 115.774C119.858 114.494 120.496 113.308 121.365 112.301C121.387 112.23 121.426 112.166 121.478 112.113C121.53 112.06 121.594 112.021 121.665 111.998C121.735 111.976 121.81 111.97 121.884 111.983C121.957 111.996 122.026 112.026 122.084 112.071C122.906 112.28 124.023 112.502 124.791 112.725C124.86 112.745 124.921 112.784 124.969 112.837C125.017 112.89 125.049 112.955 125.061 113.026C125.074 113.096 125.067 113.168 125.04 113.235C125.014 113.301 124.97 113.359 124.912 113.401C123.967 114.1 123.685 115.412 123.25 116.626C123.219 116.713 123.157 116.785 123.077 116.831C122.996 116.876 122.902 116.89 122.812 116.872ZM120.358 115.587L122.637 116.053C122.885 115.058 123.32 114.119 123.918 113.286C123.279 113.133 122.538 112.976 121.93 112.821C121.233 113.633 120.699 114.572 120.358 115.587H120.358Z" fill="#4B1010"/>
<path d="M3.95947 54.6033C16.7128 64.2368 69.5863 103.878 75.5155 106.715C78.4568 108.122 93.8784 113.171 92.2913 110.355C91.1028 108.247 78.2812 100.854 75.5056 98.9943C69.7074 95.1107 9.43329 56.4374 3.95947 54.6033Z" fill="#FFE55D"/>
<path d="M75.3505 107.061C69.4664 104.235 17.3605 65.2073 3.7292 54.9091C3.65671 54.8543 3.60606 54.7754 3.58631 54.6867C3.56656 54.598 3.57898 54.5051 3.62135 54.4247C3.66373 54.3443 3.73331 54.2815 3.81766 54.2476C3.90202 54.2138 3.99567 54.211 4.0819 54.2398C10.1891 56.2862 77.0296 99.5255 79.5921 101.097C90.7307 107.931 93.6566 110.072 92.5939 111.211C91.0473 112.867 77.3164 107.998 75.3505 107.061ZM7.69329 56.9379C25.0556 70.0049 70.2746 103.775 75.6809 106.369C79.0546 107.98 91.0841 111.652 92.0272 110.694C92.0203 110.689 92.0104 110.639 91.9567 110.541C91.1309 109.074 83.6566 104.489 79.1903 101.749C74.6312 98.9543 24.6967 66.5307 7.69329 56.9379Z" fill="#4B1010"/>
<path d="M137.31 15.4109C136.422 17.8862 135.093 20.1799 133.387 22.1806C131.951 23.836 129.936 25.9415 127.904 26.9084C130.106 31.8746 135.813 32.9749 138.707 28.2724C138.91 27.8771 139.064 27.4588 139.167 27.0264C139.63 24.5125 139.79 21.9524 139.646 19.4003C139.526 17.6614 138.689 16.719 137.31 15.4109Z" fill="white"/>
<path d="M137.903 25.6638C137.443 24.8822 137.068 24.0541 136.783 23.1933C136.622 22.7202 136.685 22.5914 136.783 22.4082C137.441 21.3547 137.973 21.3999 137.882 20.9636C137.866 20.888 137.831 20.8177 137.78 20.7595C137.729 20.7013 137.664 20.657 137.591 20.6309C137.518 20.6047 137.44 20.5975 137.364 20.61C137.287 20.6225 137.215 20.6542 137.155 20.7022H137.143C137.13 20.706 137.118 20.7129 137.109 20.7221C136.54 21.2389 135.563 22.1091 135.846 23.1358C136.145 24.1766 136.584 25.1724 137.149 26.0962C137.417 26.6146 138.174 26.1154 137.903 25.6638Z" fill="#4B1010"/>
<path d="M130.932 21.4942C131.276 20.9509 131.765 20.5149 132.345 20.236C133.259 19.9175 134.26 19.9617 135.142 20.3595C135.233 20.4025 135.303 20.4795 135.337 20.5738C135.372 20.6681 135.368 20.7723 135.327 20.8638C135.285 20.9553 135.21 21.027 135.116 21.0633C135.022 21.0996 134.918 21.0977 134.826 21.058C134.135 20.7455 133.352 20.7049 132.633 20.9445C132.202 21.1634 131.838 21.4952 131.58 21.9045C131.523 21.9861 131.438 22.0428 131.34 22.0627C131.243 22.0825 131.142 22.064 131.058 22.0109C130.975 21.9578 130.915 21.8743 130.891 21.778C130.868 21.6816 130.883 21.5799 130.932 21.4942Z" fill="#4B1010"/>
<path d="M140.41 21.9764C140.41 21.1077 139.249 21.2005 138.586 21.7571C138.508 21.8182 138.409 21.8465 138.311 21.8362C138.212 21.8258 138.121 21.7775 138.057 21.7016C137.993 21.6256 137.961 21.5278 137.968 21.4287C137.975 21.3297 138.02 21.2372 138.093 21.1706C139.309 20.1477 141.175 20.4376 141.178 21.9312C141.188 21.9854 141.187 22.0411 141.174 22.0947C141.161 22.1482 141.137 22.1984 141.103 22.2419C141.069 22.2854 141.026 22.3211 140.977 22.3467C140.928 22.3723 140.875 22.3873 140.82 22.3905C140.765 22.3938 140.71 22.3852 140.658 22.3655C140.607 22.3458 140.56 22.3153 140.521 22.2761C140.482 22.237 140.452 22.19 140.433 22.1383C140.414 22.0866 140.406 22.0314 140.41 21.9764Z" fill="#4B1010"/>
<path d="M141.197 21.6799C141.169 21.6379 141.133 21.602 141.091 21.5739C141.049 21.5459 141.002 21.5265 140.953 21.5166C140.903 21.5068 140.852 21.5068 140.803 21.5167C140.754 21.5265 140.707 21.546 140.665 21.574C140.46 21.7267 140.226 21.8348 139.976 21.8913C139.727 21.9478 139.469 21.9515 139.219 21.9022C138.904 21.4989 138.352 22.0287 138.239 22.3929C138.028 22.9366 138.195 23.6964 138.827 23.737C139.222 23.7608 139.59 23.3928 139.489 22.7088C140.06 22.7041 140.617 22.5313 141.09 22.212C141.132 22.1841 141.168 22.1482 141.196 22.1063C141.224 22.0644 141.244 22.0174 141.254 21.968C141.264 21.9186 141.264 21.8677 141.254 21.8183C141.244 21.7688 141.225 21.7218 141.197 21.6799Z" fill="#4B1010"/>
<path d="M135.441 21.8009C135.385 21.7163 135.298 21.6576 135.198 21.6376C135.098 21.6176 134.995 21.638 134.91 21.6943C134.705 21.8469 134.471 21.9549 134.221 22.0116C133.972 22.0682 133.714 22.0722 133.463 22.0232C133.15 21.6192 132.598 22.1498 132.483 22.514C132.273 23.0568 132.44 23.8174 133.072 23.8573C133.466 23.8811 133.839 23.513 133.734 22.8299C134.305 22.825 134.862 22.6519 135.336 22.3322C135.42 22.2758 135.479 22.1881 135.499 22.0885C135.518 21.9888 135.498 21.8854 135.441 21.8009Z" fill="#4B1010"/>
<path d="M133.12 26.4214C133.09 26.3253 133.098 26.2211 133.144 26.1313C133.19 26.0415 133.269 25.9734 133.365 25.9416C133.46 25.9099 133.565 25.9171 133.655 25.9617C133.745 26.0063 133.815 26.0847 133.848 26.1799C133.948 26.4829 134.117 26.7591 134.34 26.9876C134.563 27.216 134.835 27.3908 135.136 27.4987C135.436 27.6066 135.757 27.6448 136.075 27.6104C136.392 27.576 136.698 27.4699 136.968 27.3001C137.055 27.246 137.159 27.2284 137.258 27.2511C137.357 27.2738 137.443 27.335 137.497 27.4213C137.551 27.5075 137.569 27.6117 137.546 27.7109C137.524 27.8101 137.462 27.8962 137.376 27.9503C137.007 28.1817 136.59 28.3263 136.157 28.3731C135.724 28.4199 135.286 28.3677 134.876 28.2205C134.467 28.0732 134.095 27.8348 133.791 27.5231C133.487 27.2115 133.257 26.8348 133.12 26.4214Z" fill="#4B1010"/>
<path d="M112.196 57.2332C111.062 56.3779 110.034 55.3896 109.135 54.2897C108.965 54.0765 107.418 51.5332 107.448 51.5332C117.682 51.5025 129.58 44.3518 128.903 34.3848C128.903 34.1985 128.805 32.4917 128.52 32.4917C128.798 32.452 129.048 32.3036 129.217 32.0792C129.412 31.8549 129.574 31.6039 129.698 31.334C129.698 31.9228 130.443 32.4327 130.925 32.629C131.406 32.8253 132.279 32.9725 132.611 32.629C132.111 33.2079 133.044 34.9338 133.229 35.5718C133.584 36.7986 133.879 38.0392 134.21 39.2706C134.592 40.6489 134.698 42.0888 134.524 43.5084C134.034 46.0785 131.917 48.0077 129.776 49.5028C125.981 52.0993 122.936 55.6482 120.947 59.7934C120.845 60.1071 120.632 60.3726 120.348 60.5394C120.191 60.5935 120.024 60.6134 119.858 60.5977C117.033 60.4896 114.448 58.9707 112.196 57.2332Z" fill="#FFB43B"/>
<path d="M129.89 30.5627L129.488 31.3187C129.623 31.6427 129.833 31.9303 130.1 32.158C130.368 32.3857 130.685 32.5471 131.026 32.6291C132.238 32.9572 132.651 32.5578 132.651 32.5578L133.002 31.8401C131.879 31.6638 130.813 31.2262 129.89 30.5627Z" fill="white"/>
<path d="M134.536 39.118C134.059 37.0053 133.472 34.9187 132.779 32.8667C132.984 32.7248 132.944 32.7363 133.356 31.7825C133.397 31.6891 133.399 31.5833 133.361 31.4885C133.324 31.3936 133.251 31.3175 133.157 31.2768C133.064 31.2362 132.958 31.2343 132.863 31.2716C132.768 31.3089 132.692 31.3824 132.652 31.4758L132.319 32.2487C132.135 32.3343 131.935 32.3797 131.732 32.3817C131.529 32.3837 131.328 32.3422 131.142 32.2602C130.881 32.1732 130.641 32.0328 130.438 31.848C130.234 31.6632 130.072 31.438 129.96 31.1867L130.282 30.4829C130.305 30.4369 130.318 30.3869 130.321 30.3358C130.324 30.2847 130.316 30.2335 130.299 30.1854C130.282 30.1372 130.255 30.0929 130.22 30.0552C130.186 30.0175 130.144 29.9871 130.097 29.9658C130.051 29.9445 130.001 29.9327 129.949 29.9312C129.898 29.9297 129.847 29.9384 129.8 29.9568C129.752 29.9753 129.708 30.0031 129.672 30.0387C129.635 30.0743 129.605 30.1168 129.585 30.1639C129.166 31.084 129.12 31.1108 129.178 31.2941C129.321 31.6896 129.551 32.0478 129.852 32.3419C130.152 32.636 130.516 32.8584 130.914 32.9924C131.281 33.1166 131.671 33.1611 132.057 33.1228C132.742 35.1515 133.321 37.2142 133.793 39.3028C134.171 40.6223 134.276 42.0052 134.1 43.3665C133.625 45.8562 131.534 47.7063 129.515 49.1172C125.65 51.7638 122.551 55.3832 120.532 59.6101C120.469 59.811 120.343 59.9866 120.173 60.1116C120.056 60.1504 119.931 60.1633 119.809 60.1491C116.841 60.1491 114.174 58.2921 112.371 56.9441C110.611 55.6662 109.161 54.0094 108.128 52.096C108.108 52.0481 108.078 52.0048 108.041 51.9687C108.003 51.9326 107.959 51.9046 107.91 51.8862C107.862 51.8677 107.81 51.8594 107.758 51.8617C107.706 51.8639 107.655 51.8767 107.608 51.8992C107.561 51.9217 107.52 51.9535 107.486 51.9927C107.451 52.0319 107.426 52.0776 107.41 52.127C107.394 52.1765 107.388 52.2287 107.393 52.2804C107.398 52.3321 107.413 52.3823 107.438 52.428C108.525 54.4526 110.055 56.2061 111.913 57.5583C114.346 59.3732 116.87 60.9136 119.91 60.9136C120.11 60.9108 120.308 60.8713 120.493 60.7971C120.846 60.594 121.113 60.2694 121.244 59.8839C123.207 55.799 126.21 52.302 129.951 49.7436C132.105 48.2423 134.325 46.2641 134.858 43.4885C135.051 42.0249 134.941 40.5375 134.536 39.118Z" fill="#4B1010"/>
<path d="M123.851 54.6815C124.173 54.7259 124.483 54.8359 124.762 55.0047C125.04 55.1735 125.281 55.3975 125.469 55.6629C125.764 56.3794 125.764 57.1831 125.469 57.8996C125.43 58.08 125.36 58.2525 125.263 58.4094C125.112 58.5983 124.917 58.7467 124.694 58.8411C123.877 59.2614 123 59.5558 122.095 59.7144C121.781 59.7144 121.369 59.7145 121.291 59.44C121.212 59.1655 121.604 58.792 121.467 58.4585C121.33 58.125 120.898 58.3404 120.604 58.3312C118.848 58.2776 119.23 56.2411 120.045 55.3877C121.295 54.0781 122.222 54.2889 123.851 54.6815Z" fill="white"/>
<path d="M128.411 32.0294C128.411 32.0294 122.431 30.2475 117.366 32.1475C114.092 33.4607 111.272 35.7007 109.253 38.5927C108.18 39.9608 107.501 41.5958 107.29 43.3213C107.281 43.7129 107.297 44.1047 107.337 44.4944C103.825 43.9891 100.42 42.9135 97.2546 41.3101C97.1698 41.2347 97.0688 41.1798 96.9593 41.1499C96.8499 41.12 96.735 41.1158 96.6236 41.1376C96.5123 41.1594 96.4075 41.2067 96.3174 41.2757C96.2274 41.3448 96.1545 41.4337 96.1045 41.5355C94.2173 44.0989 93.1685 47.183 93.1019 50.3654C93.0355 51.7569 93.3766 53.1375 94.0833 54.3379C99.0672 51.5623 105.096 52.1765 110.808 51.5416C111.419 52.2695 112.093 52.9427 112.821 53.5536C114.78 55.1306 116.933 56.4495 119.227 57.4778C119.332 56.6169 119.719 55.8149 120.328 55.1972C120.936 54.5795 121.733 54.1808 122.592 54.0634C121.035 52.6578 119.626 51.0959 118.388 49.4024C120.344 48.4044 122.147 47.1294 123.74 45.6169C125.665 43.9835 127.217 41.9561 128.292 39.6716C128.83 38.4727 129.118 37.1767 129.138 35.8628C129.159 34.5489 128.912 33.2445 128.411 32.0294Z" fill="white"/>
<path d="M128.584 39.8219C130.208 36.2764 129.18 32.2617 128.145 31.646C126.681 30.775 122.9 30.7167 121.551 30.8371C119.033 31.1082 116.604 31.9205 114.43 33.2182C112.255 34.516 110.387 36.2686 108.953 38.3559C107.831 39.7897 107.124 41.5044 106.909 43.3129C106.905 43.5575 106.909 43.8021 106.921 44.0459C103.63 43.5249 100.442 42.4932 97.4698 40.9881C97.3447 40.8858 97.1986 40.8121 97.0419 40.7723C96.8852 40.7325 96.7217 40.7275 96.5629 40.7577C96.404 40.7879 96.2537 40.8525 96.1226 40.947C95.9914 41.0415 95.8826 41.1636 95.8037 41.3048C93.8768 43.9311 92.8021 47.0853 92.7244 50.3417C92.6522 51.8112 93.0123 53.2696 93.7603 54.5366C93.8117 54.6215 93.894 54.6832 93.99 54.7086C94.0859 54.7341 94.188 54.7213 94.2748 54.673C99.1252 51.9703 104.924 52.553 110.653 51.9426C111.245 52.6316 111.892 53.2709 112.589 53.8542C114.597 55.4689 116.809 56.8139 119.167 57.855C119.321 58.1062 119.534 58.3157 119.788 58.4654C120.042 58.6151 120.329 58.7004 120.623 58.7138C120.797 58.7086 120.969 58.6896 121.139 58.6571C121.094 58.8357 120.464 59.9452 121.714 60.0748C122.822 60.0305 123.905 59.7289 124.877 59.1938C125.122 59.0968 125.339 58.9412 125.51 58.7407C125.681 58.5402 125.8 58.3008 125.856 58.0437C126.56 56.3331 125.856 54.5634 123.959 54.3042C123.611 54.2337 123.269 54.1938 122.97 54.1509C122.986 54.0839 122.984 54.0137 122.964 53.9479C122.943 53.882 122.906 53.8229 122.855 53.7767C121.424 52.4855 120.12 51.0605 118.961 49.5213C120.773 48.5408 122.446 47.3221 123.935 45.8976C125.903 44.2301 127.489 42.1578 128.584 39.8219ZM94.2334 53.8227C93.6849 52.7585 93.4275 51.5681 93.4873 50.3723C93.5635 47.2489 94.5978 44.2243 96.45 41.7081C96.4741 41.6596 96.509 41.6172 96.552 41.5843C96.595 41.5514 96.645 41.5288 96.6981 41.5183C96.7512 41.5077 96.8061 41.5096 96.8584 41.5236C96.9107 41.5376 96.9591 41.5635 96.9998 41.5992C97.0243 41.6212 97.0516 41.6398 97.0811 41.6544C100.193 43.2364 103.539 44.3104 106.991 44.8356C107.175 46.1377 107.609 47.3921 108.268 48.5298C108.794 49.4759 109.391 50.38 110.056 51.2342C104.719 51.7356 99.0217 51.3185 94.2334 53.8227ZM123.83 55.0618C124.093 55.0984 124.347 55.1868 124.575 55.322C124.804 55.4571 125.004 55.6363 125.163 55.8492C125.327 56.2643 125.379 56.715 125.314 57.1564C125.248 57.5978 125.068 58.0143 124.791 58.3642C124.996 57.8812 125.091 57.3587 125.07 56.8345C125.066 56.7328 125.021 56.6369 124.947 56.5679C124.872 56.4989 124.773 56.4624 124.671 56.4665C124.569 56.4705 124.473 56.5148 124.404 56.5896C124.335 56.6644 124.299 56.7635 124.303 56.8652C124.332 57.5309 124.118 58.1846 123.703 58.7054C123.391 59.0964 123.174 59.2145 123.373 58.6847C123.472 58.4229 123.527 58.1469 123.539 57.8673C123.543 57.7657 123.506 57.6667 123.437 57.5919C123.369 57.5171 123.273 57.4728 123.171 57.4686C123.121 57.4657 123.07 57.473 123.023 57.49C122.975 57.5071 122.931 57.5335 122.894 57.5678C122.857 57.602 122.827 57.6434 122.806 57.6895C122.785 57.7355 122.774 57.7853 122.773 57.8359C122.724 59.0151 121.55 59.6699 121.765 59.1685C121.838 59.0399 121.883 58.8976 121.898 58.7506C121.913 58.6036 121.898 58.455 121.852 58.3143C121.762 58.1378 121.61 58.0006 121.426 57.9287C121.241 57.8569 121.036 57.8555 120.85 57.9248C120.787 57.9367 120.722 57.9452 120.658 57.9501C120.429 57.9363 120.211 57.8493 120.035 57.702C119.86 57.5547 119.737 57.3549 119.683 57.132C119.813 56.5902 120.068 56.0865 120.429 55.6619C120.789 55.2373 121.245 54.9037 121.759 54.6884C122.441 54.8518 123.131 54.9765 123.827 55.0618H123.83ZM121.803 53.8526C120.199 54.3709 119.534 55.3815 118.927 56.9104C113.345 54.2306 110.899 51.6045 108.937 48.1488C108.094 46.6979 107.657 45.0463 107.674 43.3681C107.878 41.7053 108.533 40.1302 109.569 38.8136C113.189 33.6595 119.373 30.5327 125.757 31.827C124.774 32.3697 123.877 33.0561 123.096 33.8635C123.024 33.9336 122.983 34.0291 122.981 34.1295C122.979 34.2298 123.016 34.327 123.085 34.4002C124.195 35.5662 125.121 36.8953 125.83 38.3413C124.878 37.8436 123.876 37.4478 122.84 37.1605C122.784 37.1448 122.724 37.1422 122.667 37.1529C122.609 37.1637 122.555 37.1874 122.508 37.2223C122.461 37.2572 122.423 37.3024 122.396 37.3545C122.37 37.4065 122.355 37.4639 122.354 37.5224C122.336 38.32 122.094 39.0966 121.658 39.7644C120.428 42.2634 118.949 44.6319 117.243 46.8338C116.323 44.9936 116.105 43.3696 116.595 41.9833C117.224 40.1861 118.944 38.993 120.802 37.836C120.845 37.8093 120.882 37.7745 120.911 37.7335C120.94 37.6925 120.961 37.6461 120.973 37.597C120.984 37.5479 120.986 37.4971 120.977 37.4474C120.969 37.3977 120.951 37.3501 120.924 37.3073C120.898 37.2646 120.863 37.2275 120.822 37.1982C120.781 37.169 120.734 37.148 120.685 37.1367C120.636 37.1253 120.585 37.1238 120.536 37.132C120.486 37.1403 120.438 37.1583 120.396 37.185C118.496 38.3712 116.583 39.6992 115.872 41.7288C115.128 43.832 115.774 46.3523 117.794 49.2199C118.974 50.8923 120.316 52.444 121.8 53.8526H121.803ZM118.506 48.8994C118.195 48.4684 117.905 48.0227 117.636 47.5637C119.46 45.2658 121.032 42.7785 122.324 40.1447C122.735 39.5086 122.996 38.7872 123.086 38.0354C124.272 38.4051 125.406 38.9259 126.46 39.585C126.528 39.6279 126.609 39.6481 126.69 39.6425C126.771 39.6369 126.848 39.6059 126.91 39.5539C126.972 39.5018 127.016 39.4315 127.035 39.3529C127.055 39.2743 127.049 39.1916 127.019 39.1165C126.284 37.291 125.23 35.6112 123.906 34.1556C125.155 32.984 126.483 32.001 127.832 32.1513C128.796 34.5017 128.818 37.1324 127.896 39.4991C126.843 41.742 125.318 43.731 123.426 45.3302C121.954 46.7383 120.297 47.9391 118.5 48.8994H118.506Z" fill="#4B1010"/>
<path d="M80.2042 100.054L71.9141 97.6769C68.8233 96.4747 65.4734 99.7518 65.1552 102.484C65.0341 103.526 65.2857 104.577 65.8656 105.452C66.4455 106.326 67.3162 106.967 68.3234 107.261L75.8874 110.322L80.2042 100.054Z" fill="#FFE55D"/>
<path d="M80.515 99.8307C80.3993 99.6697 81.0042 99.8844 72.0532 97.3227C68.7608 96.0414 65.1272 99.4274 64.7745 102.443C64.6393 103.569 64.9072 104.707 65.5306 105.654C66.154 106.602 67.0927 107.298 68.1804 107.62L74.2162 110.062C81.8055 113.084 86.028 102.451 80.515 99.8307ZM65.5358 102.532C65.8188 100.114 68.6258 97.4085 71.0886 97.841C71.2719 97.8755 70.4837 97.6685 77.2901 99.6183C76.0896 100.029 75.0206 100.753 74.1933 101.715C73.366 102.677 72.8104 103.843 72.5838 105.091C72.5129 105.815 72.593 106.546 72.8191 107.237C73.0452 107.928 73.4123 108.565 73.8972 109.107L68.4318 106.897C67.5105 106.63 66.7138 106.045 66.1835 105.245C65.6532 104.446 65.4237 103.485 65.5358 102.532Z" fill="#4B1010"/>
<path d="M22.8635 40.3694C22.7618 40.3702 22.664 40.3306 22.5915 40.2593C22.519 40.1879 22.4779 40.0908 22.4771 39.9891C22.4762 39.8874 22.5159 39.7896 22.5872 39.7171C22.6585 39.6446 22.7557 39.6035 22.8574 39.6026L89.8122 38.5131C89.8625 38.5122 89.9126 38.5213 89.9594 38.5398C90.0062 38.5583 90.049 38.5858 90.0852 38.6208C90.1214 38.6558 90.1503 38.6975 90.1704 38.7437C90.1905 38.7899 90.2012 38.8396 90.2021 38.8899C90.2029 38.9403 90.1939 38.9903 90.1754 39.0372C90.1569 39.084 90.1294 39.1267 90.0944 39.1629C90.0594 39.1991 90.0176 39.2281 89.9714 39.2482C89.9253 39.2682 89.8756 39.279 89.8252 39.2798L22.8635 40.3694Z" fill="#4B1010"/>
<path d="M46.0742 45.9221C45.9726 45.9247 45.874 45.8867 45.8003 45.8166C45.7266 45.7465 45.6838 45.65 45.6813 45.5483C45.6787 45.4467 45.7167 45.3481 45.7868 45.2744C45.8569 45.2007 45.9534 45.1579 46.0551 45.1554L86.9742 43.1151C87.0753 43.1117 87.1738 43.1478 87.2488 43.2158C87.3238 43.2837 87.3694 43.3783 87.3759 43.4793C87.3784 43.5296 87.371 43.5799 87.354 43.6273C87.337 43.6747 87.3109 43.7183 87.2771 43.7556C87.2432 43.7929 87.2024 43.8232 87.1569 43.8447C87.1113 43.8662 87.062 43.8786 87.0117 43.881L46.0742 45.9221Z" fill="#4B1010"/>
<path d="M26.2513 127.053C26.201 127.052 26.1513 127.041 26.1051 127.021C26.0589 127.001 26.017 126.972 25.982 126.936C25.947 126.9 25.9194 126.857 25.9009 126.81C25.8824 126.763 25.8733 126.713 25.8741 126.663C25.8784 126.562 25.9212 126.467 25.9936 126.397C26.0661 126.327 26.1627 126.287 26.2636 126.286C49.1311 126.663 72.3199 126.64 95.1874 126.217C95.2378 126.216 95.2878 126.225 95.3347 126.243C95.3815 126.262 95.4243 126.289 95.4605 126.324C95.4968 126.359 95.5258 126.401 95.5459 126.447C95.566 126.493 95.5768 126.543 95.5777 126.593C95.5786 126.644 95.5696 126.694 95.5512 126.74C95.5327 126.787 95.5052 126.83 95.4703 126.866C95.4353 126.903 95.3936 126.932 95.3474 126.952C95.3012 126.972 95.2516 126.983 95.2012 126.984C72.4556 127.404 49.2737 127.432 26.2513 127.053Z" fill="#4B1010"/>
<path d="M68.9071 131.565C68.8054 131.563 68.7085 131.521 68.6378 131.448C68.567 131.375 68.5282 131.277 68.5298 131.175C68.5315 131.074 68.5734 130.977 68.6465 130.906C68.7195 130.835 68.8177 130.797 68.9193 130.798C79.2191 130.968 89.6683 130.84 99.9727 130.415C100.023 130.411 100.074 130.418 100.122 130.435C100.17 130.452 100.214 130.478 100.251 130.513C100.289 130.547 100.318 130.589 100.339 130.635C100.36 130.681 100.371 130.731 100.371 130.782C100.376 130.884 100.339 130.983 100.27 131.058C100.201 131.132 100.106 131.177 100.004 131.181C89.6443 131.608 79.2743 131.736 68.9071 131.565Z" fill="#4B1010"/>
<path d="M128.774 25.6761C128.774 26.2355 128.996 26.772 129.392 27.1676C129.787 27.5632 130.324 27.7854 130.883 27.7854C131.443 27.7854 131.979 27.5632 132.375 27.1676C132.77 26.772 132.993 26.2355 132.993 25.6761C132.993 25.1166 132.77 24.5801 132.375 24.1845C131.979 23.789 131.443 23.5667 130.883 23.5667C130.324 23.5667 129.787 23.789 129.392 24.1845C128.996 24.5801 128.774 25.1166 128.774 25.6761Z" fill="#FFE55D"/>
<path d="M137.641 26.1424C137.641 26.6424 137.84 27.122 138.193 27.4756C138.547 27.8292 139.026 28.0278 139.527 28.0278C140.027 28.0278 140.506 27.8292 140.86 27.4756C141.213 27.122 141.412 26.6424 141.412 26.1424C141.412 25.6423 141.213 25.1627 140.86 24.8092C140.506 24.4556 140.027 24.2569 139.527 24.2569C139.026 24.2569 138.547 24.4556 138.193 24.8092C137.84 25.1627 137.641 25.6423 137.641 26.1424Z" fill="#FFE55D"/>
</svg>
