<svg width="155" height="156" viewBox="0 0 155 156" fill="none" xmlns="http://www.w3.org/2000/svg">
<path d="M25.1758 115.739H43.4117V149.226H25.1758V115.739Z" fill="#81F8F8"/>
<path d="M53.2617 108.95H71.4977V149.227H53.2617V108.95Z" fill="#81F8F8"/>
<path d="M81.3486 92.4575H99.5846V149.226H81.3486V92.4575Z" fill="#81F8F8"/>
<path d="M109.436 69.2129H127.671V149.226H109.436V69.2129Z" fill="#81F8F8"/>
<path d="M148.08 148.875L142.59 146.297C142.543 146.27 142.492 146.252 142.438 146.246C142.384 146.239 142.33 146.244 142.278 146.259C142.227 146.275 142.179 146.302 142.138 146.337C142.097 146.372 142.064 146.416 142.041 146.464C142.018 146.513 142.005 146.566 142.004 146.62C142.003 146.674 142.013 146.728 142.034 146.778C142.054 146.828 142.085 146.873 142.124 146.91C142.163 146.947 142.21 146.976 142.261 146.994L146.181 148.835H132.764L132.162 80.5263C132.162 80.421 132.426 81.1774 128.058 69.2996V69.2153C128.058 69.1126 128.018 69.0141 127.945 68.9415C127.872 68.8689 127.774 68.8281 127.671 68.8281H109.435C109.333 68.8281 109.234 68.8689 109.162 68.9415C109.089 69.0141 109.048 69.1126 109.048 69.2153V148.839H104.732C104.294 113.337 104.112 100.343 104.091 100.305C99.782 92.0162 99.9268 92.1509 99.6868 92.0859C99.6094 92.0642 100.916 92.0719 81.3486 92.0719C81.246 92.0719 81.1475 92.1127 81.0749 92.1853C81.0023 92.2579 80.9615 92.3564 80.9615 92.459V148.839H76.6985C76.2572 123.486 76.0636 114.462 76.0288 114.414L71.8687 108.721C71.8279 108.666 71.773 108.622 71.7097 108.595C71.6465 108.568 71.577 108.558 71.5087 108.567H53.2619C53.1592 108.567 53.0608 108.607 52.9882 108.68C52.9156 108.753 52.8748 108.851 52.8748 108.954V148.842H48.5165L47.9234 120.449C47.9213 120.358 47.887 120.27 47.8267 120.202L43.7665 115.582C43.7226 115.492 43.6491 115.42 43.5583 115.378C43.4676 115.335 43.365 115.325 43.2679 115.35H25.1752C25.0725 115.35 24.974 115.391 24.9014 115.463C24.8288 115.536 24.788 115.634 24.788 115.737V148.836H10.788L14.7081 146.996C14.7589 146.978 14.8054 146.949 14.8444 146.912C14.8835 146.874 14.9144 146.829 14.9351 146.779C14.9557 146.73 14.9658 146.676 14.9644 146.622C14.9631 146.568 14.9505 146.515 14.9275 146.466C14.9044 146.417 14.8714 146.374 14.8306 146.338C14.7897 146.303 14.7419 146.277 14.6903 146.261C14.6386 146.245 14.5842 146.241 14.5306 146.247C14.477 146.254 14.4254 146.271 14.379 146.299L8.88879 148.876C8.82207 148.908 8.76562 148.957 8.72608 149.019C8.68653 149.081 8.66553 149.154 8.66553 149.227C8.66553 149.301 8.68653 149.373 8.72608 149.435C8.76562 149.497 8.82207 149.547 8.88879 149.578C15.0603 152.443 14.6043 152.239 14.7297 152.239C14.8181 152.239 14.9039 152.209 14.9728 152.154C15.0418 152.099 15.0898 152.022 15.1089 151.935C15.128 151.849 15.117 151.759 15.0777 151.68C15.0385 151.601 14.9733 151.537 14.8931 151.5L10.812 149.614H146.151L142.071 151.5C141.978 151.543 141.905 151.622 141.87 151.718C141.834 151.815 141.839 151.921 141.882 152.014C141.925 152.108 142.003 152.18 142.1 152.215C142.196 152.251 142.303 152.246 142.396 152.203L148.074 149.578C148.142 149.547 148.199 149.498 148.239 149.436C148.28 149.374 148.301 149.302 148.302 149.228C148.303 149.154 148.282 149.082 148.243 149.019C148.203 148.956 148.147 148.906 148.08 148.875ZM109.823 69.6008H127.258V148.838H109.823V69.6008ZM81.7358 92.8446H99.1975V148.838H81.7358V92.8446ZM53.649 109.336H71.1115V148.837H53.649V109.336ZM25.5623 116.125H43.0062V148.837H25.5623V116.125Z" fill="black"/>
<path fill-rule="evenodd" clip-rule="evenodd" d="M7.44238 109.218C8.04552 109.237 95.4508 89.4317 129.999 36.2925L138.115 40.513L135.723 10.366L107.216 26.3581L117.219 30.6064C117.219 30.6064 84.2806 84.211 7.44238 109.218Z" fill="#FFD997"/>
<path d="M7.32264 108.849C38.34 98.8579 66.8348 82.288 90.8597 60.2719C106.809 45.4976 115.161 33.0841 116.648 30.7845L107.066 26.7143C106.998 26.6864 106.94 26.6401 106.898 26.5806C106.856 26.5211 106.831 26.4509 106.827 26.3781C106.823 26.3052 106.84 26.2328 106.875 26.169C106.91 26.1052 106.963 26.0527 107.027 26.0175L135.532 10.0253C135.589 9.99348 135.653 9.97651 135.718 9.97597C135.784 9.97542 135.848 9.99133 135.905 10.0222C135.963 10.0531 136.011 10.0979 136.047 10.1526C136.082 10.2073 136.103 10.27 136.108 10.335L138.502 40.4782C138.507 40.5471 138.494 40.6163 138.464 40.6785C138.434 40.7407 138.388 40.7937 138.33 40.8319C138.272 40.8702 138.206 40.8923 138.137 40.896C138.067 40.8997 137.999 40.8848 137.937 40.8529L130.132 36.7966C96.082 88.7574 11.5284 108.859 7.56653 109.585C7.51824 109.601 7.46726 109.607 7.41651 109.603C7.36576 109.6 7.31624 109.586 7.27076 109.563C7.22529 109.54 7.18476 109.509 7.15148 109.47C7.1182 109.432 7.09283 109.387 7.07682 109.339C7.06081 109.291 7.05446 109.24 7.05815 109.189C7.06183 109.138 7.07548 109.089 7.09831 109.043C7.12114 108.998 7.1527 108.957 7.19119 108.924C7.22968 108.891 7.27435 108.865 7.32264 108.849ZM108.094 26.3094L117.372 30.2503C117.424 30.2721 117.47 30.3047 117.507 30.3459C117.545 30.3871 117.573 30.4359 117.59 30.489C117.607 30.5421 117.612 30.5981 117.605 30.6534C117.598 30.7087 117.58 30.7619 117.55 30.8093C117.468 30.944 109.083 44.4447 91.4094 60.8185C69.6198 80.8112 44.1236 96.3403 16.362 106.528C39.5803 99.9778 101.839 78.895 129.674 36.082C129.727 36.0013 129.808 35.9431 129.901 35.9186C129.994 35.8941 130.092 35.9052 130.178 35.9496L137.674 39.8441L135.384 10.9993L108.094 26.3094Z" fill="black"/>
<path d="M21.3774 30.008C21.3774 31.4489 21.6613 32.8758 22.2127 34.207C22.7641 35.5383 23.5724 36.7479 24.5913 37.7668C25.6102 38.7857 26.8198 39.594 28.1511 40.1454C29.4823 40.6968 30.9092 40.9807 32.3501 40.9807C33.7911 40.9807 35.2179 40.6968 36.5492 40.1454C37.8805 39.594 39.0901 38.7857 40.109 37.7668C41.1279 36.7479 41.9361 35.5383 42.4876 34.207C43.039 32.8758 43.3228 31.4489 43.3228 30.008C43.3228 27.0978 42.1668 24.3069 40.109 22.2491C38.0512 20.1913 35.2603 19.0353 32.3501 19.0353C29.44 19.0353 26.649 20.1913 24.5913 22.2491C22.5335 24.3069 21.3774 27.0978 21.3774 30.008Z" fill="#FFD997"/>
<path d="M32.3503 41.3647C30.1034 41.3648 27.9069 40.6986 26.0386 39.4503C24.1704 38.2021 22.7142 36.4278 21.8544 34.3519C20.9946 32.276 20.7697 29.9917 21.2082 27.788C21.6466 25.5843 22.7288 23.5601 24.3178 21.9714C25.9068 20.3828 27.9312 19.301 30.135 18.863C32.3388 18.4249 34.623 18.6503 36.6987 19.5106C38.7745 20.3708 40.5485 21.8273 41.7964 23.6958C43.0443 25.5644 43.71 27.761 43.7094 30.0079C43.7053 33.0191 42.5071 35.9057 40.3777 38.0346C38.2483 40.1636 35.3615 41.3612 32.3503 41.3647ZM32.3503 19.4193C30.2568 19.4191 28.2102 20.0397 26.4694 21.2027C24.7286 22.3656 23.3717 24.0186 22.5703 25.9527C21.7689 27.8867 21.559 30.015 21.9671 32.0684C22.3752 34.1217 23.383 36.008 24.8631 37.4886C26.3432 38.9692 28.229 39.9777 30.2822 40.3866C32.3355 40.7954 34.4638 40.5863 36.3982 39.7856C38.3325 38.9849 39.986 37.6286 41.1496 35.8882C42.3131 34.1478 42.9345 32.1015 42.9351 30.0079C42.9321 27.2015 41.8159 24.511 39.8316 22.5265C37.8472 20.542 35.1567 19.4257 32.3503 19.4224V19.4193Z" fill="black"/>
<path d="M32.35 16.8109C32.2473 16.8109 32.1489 16.7701 32.0763 16.6975C32.0037 16.6249 31.9629 16.5264 31.9629 16.4237V4.74259C31.9629 4.63992 32.0037 4.54146 32.0763 4.46886C32.1489 4.39626 32.2473 4.35547 32.35 4.35547C32.4527 4.35547 32.5512 4.39626 32.6238 4.46886C32.6964 4.54146 32.7371 4.63992 32.7371 4.74259V16.4237C32.7371 16.5264 32.6964 16.6249 32.6238 16.6975C32.5512 16.7701 32.4527 16.8109 32.35 16.8109Z" fill="black"/>
<path d="M57.6156 30.3951H45.9345C45.8318 30.3951 45.7333 30.3543 45.6607 30.2817C45.5881 30.2091 45.5474 30.1106 45.5474 30.008C45.5474 29.9053 45.5881 29.8068 45.6607 29.7342C45.7333 29.6616 45.8318 29.6208 45.9345 29.6208H57.6156C57.7183 29.6208 57.8168 29.6616 57.8894 29.7342C57.962 29.8068 58.0027 29.9053 58.0027 30.008C58.0027 30.1106 57.962 30.2091 57.8894 30.2817C57.8168 30.3543 57.7183 30.3951 57.6156 30.3951Z" fill="black"/>
<path d="M32.35 55.6612C32.2473 55.6612 32.1489 55.6204 32.0763 55.5478C32.0037 55.4752 31.9629 55.3767 31.9629 55.2741V43.5929C31.9629 43.4903 32.0037 43.3918 32.0763 43.3192C32.1489 43.2466 32.2473 43.2058 32.35 43.2058C32.4527 43.2058 32.5512 43.2466 32.6238 43.3192C32.6964 43.3918 32.7371 43.4903 32.7371 43.5929V55.2741C32.7371 55.3767 32.6964 55.4752 32.6238 55.5478C32.5512 55.6204 32.4527 55.6612 32.35 55.6612Z" fill="black"/>
<path d="M18.766 30.3951H7.08488C6.98221 30.3951 6.88374 30.3543 6.81114 30.2817C6.73854 30.2091 6.69775 30.1106 6.69775 30.008C6.69775 29.9053 6.73854 29.8068 6.81114 29.7342C6.88374 29.6616 6.98221 29.6208 7.08488 29.6208H18.766C18.8687 29.6208 18.9671 29.6616 19.0397 29.7342C19.1123 29.8068 19.1531 29.9053 19.1531 30.008C19.1531 30.1106 19.1123 30.2091 19.0397 30.2817C18.9671 30.3543 18.8687 30.3951 18.766 30.3951Z" fill="black"/>
<path d="M39.2351 17.0919C39.1688 17.0917 39.1037 17.0745 39.046 17.0419C38.9882 17.0093 38.9398 16.9625 38.9054 16.9058C38.871 16.8492 38.8517 16.7846 38.8494 16.7184C38.847 16.6521 38.8617 16.5864 38.8921 16.5275L42.9794 8.63012C43.0011 8.58235 43.0323 8.53949 43.0712 8.50416C43.11 8.46883 43.1556 8.44177 43.2052 8.4246C43.2548 8.40744 43.3073 8.40054 43.3597 8.40433C43.412 8.40812 43.4631 8.42251 43.5097 8.44663C43.5563 8.47075 43.5975 8.50409 43.6308 8.54464C43.6642 8.58519 43.6889 8.63209 43.7035 8.68249C43.7182 8.73289 43.7224 8.78575 43.716 8.83783C43.7095 8.88992 43.6926 8.94016 43.6661 8.9855L39.5789 16.8829C39.5462 16.9459 39.4969 16.9987 39.4363 17.0356C39.3757 17.0724 39.3061 17.0919 39.2351 17.0919Z" fill="black"/>
<path d="M53.6568 41.1564C53.522 41.1564 54.0439 41.3933 45.5457 37.1063C45.454 37.06 45.3845 36.9791 45.3524 36.8816C45.3203 36.784 45.3283 36.6777 45.3746 36.586C45.4209 36.4943 45.5017 36.4248 45.5993 36.3927C45.6969 36.3606 45.8032 36.3686 45.8949 36.4149L53.8317 40.424C53.9094 40.4633 53.9715 40.5276 54.008 40.6066C54.0446 40.6856 54.0535 40.7746 54.0333 40.8592C54.0131 40.9439 53.9649 41.0192 53.8966 41.0731C53.8283 41.1271 53.7438 41.1564 53.6568 41.1564Z" fill="black"/>
<path d="M21.8003 51.8085C21.7345 51.8085 21.6699 51.7916 21.6124 51.7597C21.555 51.7277 21.5066 51.6816 21.4719 51.6257C21.4372 51.5699 21.4173 51.5061 21.414 51.4404C21.4108 51.3747 21.4244 51.3093 21.4534 51.2503L25.3828 43.2755C25.428 43.1831 25.5082 43.1125 25.6055 43.0791C25.7029 43.0458 25.8095 43.0525 25.9019 43.0978C25.9943 43.1431 26.0649 43.2232 26.0983 43.3206C26.1316 43.4179 26.1249 43.5245 26.0796 43.6169L22.1503 51.5917C22.1182 51.6571 22.0684 51.7121 22.0065 51.7505C21.9446 51.7888 21.8731 51.809 21.8003 51.8085Z" fill="black"/>
<path d="M18.8482 23.9092C18.7182 23.9092 19.2245 24.1415 10.6659 20.0209C10.6172 20.0009 10.573 19.9711 10.5361 19.9334C10.4992 19.8957 10.4705 19.8509 10.4516 19.8016C10.4326 19.7524 10.424 19.6999 10.4261 19.6472C10.4282 19.5945 10.4411 19.5428 10.4639 19.4952C10.4867 19.4477 10.519 19.4053 10.5588 19.3707C10.5986 19.3361 10.645 19.31 10.6952 19.2939C10.7455 19.2779 10.7985 19.2723 10.8509 19.2775C10.9034 19.2827 10.9543 19.2985 11.0004 19.3241L19.0155 23.1698C19.0965 23.2067 19.1623 23.2703 19.2019 23.3501C19.2414 23.4298 19.2523 23.5207 19.2327 23.6075C19.2131 23.6944 19.1641 23.7717 19.0941 23.8267C19.024 23.8816 18.9372 23.9108 18.8482 23.9092Z" fill="black"/>
<path d="M45.535 23.2858C45.4488 23.2859 45.365 23.2572 45.297 23.2043C45.2289 23.1514 45.1805 23.0773 45.1593 22.9937C45.1381 22.9102 45.1455 22.8219 45.1802 22.743C45.2148 22.6641 45.2749 22.599 45.3507 22.558L53.1768 18.3376C53.2216 18.3134 53.2706 18.2983 53.3212 18.2932C53.3718 18.288 53.4229 18.2928 53.4716 18.3074C53.5203 18.3219 53.5657 18.3459 53.6051 18.378C53.6445 18.4101 53.6773 18.4496 53.7014 18.4944C53.7255 18.5391 53.7406 18.5882 53.7458 18.6388C53.751 18.6893 53.7462 18.7404 53.7316 18.7891C53.7171 18.8378 53.6931 18.8832 53.661 18.9226C53.6289 18.9621 53.5894 18.9948 53.5446 19.0189C45.1974 23.5328 45.6782 23.2858 45.535 23.2858Z" fill="black"/>
<path d="M43.8884 51.2921C43.8191 51.2921 43.7511 51.2735 43.6914 51.2382C43.6318 51.203 43.5827 51.1523 43.5493 51.0916L39.2522 43.3081C39.2066 43.2186 39.1975 43.1148 39.227 43.0188C39.2564 42.9227 39.3221 42.8419 39.41 42.7933C39.498 42.7448 39.6013 42.7323 39.6983 42.7586C39.7953 42.7849 39.8782 42.8478 39.9297 42.9341L44.2275 50.7184C44.26 50.7774 44.2765 50.8437 44.2754 50.911C44.2744 50.9783 44.2558 51.0441 44.2216 51.102C44.1874 51.1599 44.1386 51.2079 44.0802 51.2412C44.0218 51.2746 43.9557 51.2921 43.8884 51.2921Z" fill="black"/>
<path d="M11.5683 42.1389C11.4826 42.1391 11.3992 42.1109 11.3313 42.0587C11.2633 42.0064 11.2147 41.9331 11.1929 41.8502C11.1711 41.7673 11.1774 41.6795 11.2109 41.6006C11.2444 41.5217 11.3031 41.4562 11.3778 41.4142L19.1203 37.0397C19.1646 37.0147 19.2134 36.9986 19.2639 36.9925C19.3143 36.9863 19.3655 36.9902 19.4145 37.0038C19.4635 37.0174 19.5094 37.0405 19.5494 37.0719C19.5895 37.1032 19.623 37.1421 19.648 37.1864C19.673 37.2307 19.689 37.2795 19.6952 37.33C19.7014 37.3804 19.6975 37.4316 19.6839 37.4806C19.6703 37.5296 19.6471 37.5755 19.6158 37.6155C19.5844 37.6556 19.5455 37.6891 19.5012 37.7141C11.2377 42.3836 11.7185 42.1389 11.5683 42.1389Z" fill="black"/>
<path d="M24.8505 17.4287C24.7825 17.4287 24.7158 17.4109 24.6569 17.3769C24.5981 17.3429 24.5492 17.294 24.5152 17.2352L20.0633 9.53757C20.0128 9.4487 19.9994 9.34346 20.0262 9.2448C20.053 9.14615 20.1177 9.06209 20.2063 9.01097C20.2948 8.95986 20.3999 8.94584 20.4988 8.97197C20.5976 8.9981 20.6821 9.06226 20.7338 9.15045L25.185 16.8481C25.2189 16.9068 25.2368 16.9735 25.2368 17.0414C25.2369 17.1093 25.219 17.176 25.1852 17.2348C25.1513 17.2937 25.1025 17.3425 25.0438 17.3766C24.985 17.4106 24.9184 17.4286 24.8505 17.4287Z" fill="black"/>
</svg>
