<svg width="155" height="155" viewBox="0 0 155 155" fill="none" xmlns="http://www.w3.org/2000/svg">
<path d="M134.524 83.7081C143.235 84.2577 144.746 83.4826 144.746 82.8434C144.746 82.5948 145.055 81.9108 136.765 81.9633C132.794 81.9934 129.056 81.9332 129.045 82.9106C129.041 84.4754 131.689 83.5243 134.524 83.7081Z" fill="#3D9CFB"/>
<path d="M144.77 126.103C146.319 122.018 94.5667 120.266 92.8135 126.885C92.0839 129.638 111.054 138.139 110.844 141.117C110.633 144.095 99.1625 146.187 100.133 148.714C101.103 151.242 137.63 151.158 137.224 148.714C136.818 146.27 122.509 142.274 121.992 140.252C121.476 138.229 142.664 131.609 144.77 126.103Z" fill="#3D9CFB"/>
<path d="M145.453 45.0452C145.739 37.2147 146.522 18.3036 144.017 16.7542C141.068 14.9261 129.402 14.6026 117.637 14.7833C106.685 14.9562 95.6574 15.4982 91.0801 17.5625C90.5915 17.7802 89.7183 18.5105 89.2219 25.1444C88.5155 34.5698 88.9818 53.5481 91.8776 56.2856C97.2817 60.2128 133.849 58.6456 138.492 56.2408C138.718 56.1235 138.89 55.9223 138.969 55.6803C139.049 55.4383 139.031 55.1747 138.919 54.9458C138.807 54.7169 138.61 54.5409 138.37 54.4555C138.13 54.37 137.866 54.3818 137.635 54.4884C132.113 57.1958 96.0071 57.5123 93.224 54.879C90.522 52.319 90.1159 20.9107 92.2158 19.1644C95.232 16.6747 139.823 15.7267 142.69 18.2095C144.187 19.5033 143.93 33.0505 143.502 44.9804C143.493 45.2386 143.587 45.4899 143.763 45.6789C143.939 45.868 144.183 45.9792 144.442 45.9882C144.7 45.9972 144.951 45.9032 145.14 45.727C145.329 45.5507 145.441 45.3066 145.45 45.0483L145.453 45.0452Z" fill="#3D9CFB"/>
<path d="M130.628 37.011C130.739 37.0751 130.862 37.1165 130.99 37.1327C131.117 37.1489 131.246 37.1396 131.37 37.1053C131.494 37.071 131.61 37.0125 131.711 36.9331C131.812 36.8537 131.896 36.755 131.959 36.6428C134.205 32.4739 135.51 30.0761 135.028 28.9482C134.441 27.5864 132.095 28.2534 128.258 26.338C128.142 26.2841 128.016 26.2535 127.888 26.2481C127.761 26.2427 127.633 26.2625 127.513 26.3065C127.393 26.3504 127.283 26.4176 127.189 26.5042C127.094 26.5909 127.018 26.6952 126.965 26.8113C126.513 28.7143 129.965 28.8648 130.996 29.4894C124.385 31.5429 118.134 55.3462 112.921 40.4565C111.589 37.3121 110.1 33.7547 106.677 33.9276C100.953 33.8296 100.178 45.0677 95.1308 45.3533C94.8763 45.3487 94.6301 45.4437 94.4448 45.6182C94.2594 45.7926 94.1496 46.0326 94.1388 46.2869C94.128 46.5412 94.2171 46.7896 94.387 46.9792C94.557 47.1687 94.7943 47.2842 95.0482 47.3011C101.173 47.6809 101.833 36.6574 106.775 35.8677C108.686 35.7704 109.731 37.9143 111.115 41.2084C118.013 58.8781 125.062 34.1762 132.516 30.8882C132.508 32.3473 129.251 35.379 130.628 37.011Z" fill="#3D9CFB"/>
<path d="M57.8211 106.486L64.4334 99.8054C64.4334 99.8054 59.9125 93.7428 59.4238 92.6975C58.9351 91.6522 63.8088 87.959 63.8088 87.959L59.4238 82.8513H55.7753L50.8931 87.9659C50.8931 87.9659 54.6173 90.4935 54.8875 91.8321C55.1577 93.1708 50.2469 99.3206 50.2469 99.3206L57.8211 106.486Z" fill="#3D9CFB"/>
<path d="M52.0141 5.99777C36.0389 6.14754 30.3122 6.73736 29.1094 8.1262C25.5945 12.1854 25.8979 29.4066 28.1621 29.7424C28.3019 29.749 28.4413 29.7243 28.5702 29.67C28.6991 29.6158 28.8143 29.5334 28.9072 29.4289C29.0002 29.3244 29.0686 29.2004 29.1075 29.066C29.1463 28.9317 29.1546 28.7903 29.1318 28.6523C28.6053 24.3121 27.8533 12.4039 30.5214 9.47026C31.735 8.56238 42.0814 8.04668 52.0897 7.95327C65.1629 7.83206 84.5627 5.41877 97.9972 6.69721C102.743 7.10329 109.25 7.65296 121.887 7.72012C122.141 7.71406 122.382 7.6093 122.559 7.42814C122.737 7.24697 122.837 7.00368 122.838 6.74999C122.839 6.4963 122.741 6.25222 122.565 6.06965C122.389 5.88708 122.148 5.78042 121.895 5.77235C109.333 5.70441 102.871 5.15474 98.1546 4.74944C84.6978 3.44783 65.1706 5.87502 52.0141 5.99777Z" fill="#3D9CFB"/>
<path d="M120.601 75.0879C121.295 75.2608 140.21 76.7577 139.969 74.1028C139.954 73.9752 139.914 73.8518 139.851 73.7398C139.788 73.6278 139.703 73.5295 139.602 73.4505C139.5 73.3715 139.384 73.3134 139.26 73.2796C139.136 73.2458 139.007 73.237 138.879 73.2536C135.019 73.75 122.691 73.2536 120.902 73.0992C120.661 73.1032 120.429 73.1925 120.247 73.3512C120.066 73.5099 119.946 73.7278 119.91 73.9662C119.874 74.2046 119.924 74.4481 120.05 74.6535C120.176 74.8588 120.371 75.0127 120.601 75.0879Z" fill="#3D9CFB"/>
<path d="M142.881 66.1825C143.295 66.0845 143.521 64.2718 141.926 64.2348C137.812 64.1213 137.969 64.8524 126.393 64.6401C121.94 64.5582 117.269 64.2193 117.276 65.8212C117.276 65.9498 117.301 66.0771 117.35 66.1959C117.399 66.3147 117.471 66.4227 117.562 66.5136C117.653 66.6045 117.761 66.6765 117.88 66.7255C117.998 66.7746 118.126 66.7997 118.254 66.7994C123.624 66.7615 137.744 67.3637 142.881 66.1825Z" fill="#3D9CFB"/>
<path d="M113.251 92.0805C113.123 92.0826 112.996 92.1106 112.878 92.1629C112.76 92.2151 112.655 92.2906 112.567 92.3847C112.479 92.4788 112.411 92.5897 112.367 92.7107C112.323 92.8316 112.304 92.9602 112.311 93.0887C112.315 93.2168 112.344 93.3429 112.397 93.4596C112.45 93.5763 112.525 93.6814 112.619 93.7688C112.713 93.8561 112.823 93.9241 112.943 93.9686C113.063 94.0131 113.191 94.0334 113.319 94.0282C151.035 92.0504 150.599 93.6824 150.253 91.5686C149.907 89.4549 123.559 92.0457 113.251 92.0805Z" fill="#3D9CFB"/>
<path d="M10.5456 102.657C3.63996 110.531 12.1552 124.629 22.4985 120.266C20.6627 123.99 17.2327 129.713 13.412 139.636C13.3388 139.777 13.3043 139.935 13.3119 140.093C13.3194 140.252 13.3688 140.406 13.4551 140.539C13.5414 140.672 13.6614 140.78 13.803 140.852C13.9446 140.924 14.1027 140.957 14.2612 140.948C23.9646 141.272 44.7401 150.268 46.4331 145.522C49.1035 138.045 49.9604 135.547 50.9107 135.668C51.9259 135.788 52.3173 139.444 52.1143 145.251C52.1094 145.58 52.2218 145.899 52.4313 146.153C52.6408 146.407 52.9337 146.578 53.2576 146.635C58.9219 147.455 69.0838 139.496 80.247 139.978C81.019 139.948 82.2473 140.023 81.9539 138.759C80.6979 137.179 81.2591 121.94 78.991 122.85C73.8301 124.58 62.2237 125.896 55.9658 124.452C55.0302 124.257 54.1674 123.805 53.4738 123.148C52.7803 122.49 52.2834 121.652 52.0386 120.729C51.7761 120.052 51.2489 120.089 50.6923 120.556C49.0603 122.005 47.089 123.019 44.9609 123.505C38.6304 124.731 32.7369 122.233 23.9893 118.186C23.7037 118.051 23.2173 117.705 22.778 117.878C21.2209 118.501 16.216 120.533 13.4282 117.125C14.421 116.606 17.2497 116.591 16.761 114.951C16.7195 114.827 16.6531 114.714 16.5659 114.617C16.4787 114.52 16.3726 114.442 16.2541 114.388C16.1356 114.333 16.0072 114.304 15.8769 114.301C15.7466 114.299 15.6171 114.323 15.4964 114.372C14.3307 114.823 12.8191 115.274 11.9838 115.523C11.2794 114.525 10.7528 113.413 10.4274 112.236C13.9393 111.265 14.6318 111.288 14.3986 110.167C14.1802 109.091 13.06 109.437 10.0754 110.317C9.83305 108.176 10.4256 106.023 11.7298 104.307C13.4676 106.873 18.0935 113.619 21.779 110.032C22.6668 109.174 24.2688 100.178 24.4811 94.326C24.5189 93.168 25.7078 93.3332 25.7163 94.2048C25.7394 96.5826 24.603 110.701 22.6475 114.605C22.5829 114.782 22.554 114.971 22.5625 115.159C22.571 115.347 22.6168 115.532 22.6972 115.703C22.7776 115.874 22.891 116.027 23.0309 116.153C23.1708 116.28 23.3344 116.377 23.5122 116.44C35.8033 122.539 48.0944 125.956 52.9843 113.387C53.6236 111.747 54.7291 112.521 54.1725 114.282C53.7006 115.506 53.4338 116.799 53.3827 118.11C53.375 119.683 54.526 122.134 56.1581 122.789C58.813 123.865 74.9032 123.443 80.2061 120.736C81.2143 120.217 81.9439 119.833 81.7501 119.088C80.7125 115.109 80.1559 111.243 80.7048 109.829C80.7263 109.758 80.769 109.696 80.8271 109.651C80.8852 109.606 80.9558 109.58 81.0292 109.577C81.1027 109.574 81.1753 109.593 81.2372 109.633C81.2991 109.673 81.3472 109.73 81.3749 109.799C85.3893 120.691 101.473 109.452 101.447 100.93C110.741 95.9117 115.004 85.1136 107.758 77.8822C112.753 66.6063 98.031 62.0105 91.804 72.7098C90.3412 73.03 88.9727 73.685 87.8059 74.6233C86.639 75.5616 85.7056 76.7578 85.079 78.1177C83.0734 75.8616 80.5844 74.0874 77.7974 72.9275C78.5035 70.3832 78.8827 67.7594 78.9261 65.1194C82.1832 61.4037 85.2897 54.0395 80.9796 48.5413C85.0419 40.1465 79.099 31.2707 71.2686 33.0077C67.0217 24.6608 55.4602 24.4663 50.1271 32.2952C43.6276 26.2326 29.7462 33.9581 29.4559 42.4579C21.9867 44.1725 21.9165 50.7701 25.1458 55.3805C19.9108 58.9233 21.7983 69.1539 28.7039 70.6956C29.1914 72.0674 29.8866 73.3562 30.7652 74.517C11.8032 81.4898 -0.240152 85.9582 10.5456 102.657ZM91.6411 74.6745C93.4012 74.314 95.9813 74.0206 97.9221 75.9761C99.6977 77.7741 98.163 80.6082 93.9432 80.6475C93.7583 80.6683 93.5834 80.7418 93.4391 80.8592C93.2948 80.9766 93.1873 81.133 93.1294 81.3097C93.0715 81.4865 93.0656 81.6762 93.1124 81.8562C93.1592 82.0362 93.2568 82.199 93.3935 82.3251C96.8313 86.7781 102.744 84.1602 106.618 79.4587C107.694 80.6182 108.507 81.9962 109.002 83.4986C107.724 84.7005 106.293 85.7272 104.744 86.5519C104.558 86.6583 104.412 86.8229 104.327 87.0204C104.243 87.2179 104.226 87.4375 104.279 87.6457C104.331 87.8538 104.451 88.039 104.618 88.173C104.786 88.307 104.993 88.3824 105.208 88.3877C106.013 88.2449 107.351 87.3424 109.435 85.7629C109.494 89.3547 108.125 92.8231 105.629 95.4068C103.23 97.9861 100.808 100.318 96.4599 100.047C82.6147 99.1966 82.1407 76.6308 91.6411 74.6745ZM58.762 103.808C54.4898 105.937 50.0592 97.1206 46.7118 93.4629L56.1936 83.8066C57.1115 83.8444 58.0364 83.8143 58.9388 83.7765C63.3316 88.9219 65.5287 91.4796 66.7091 92.758C63.8094 97.6773 60.9291 101.889 58.762 103.808ZM45.5684 91.8417C42.8757 87.9608 40.3782 83.8684 38.3324 80.3333C43.2247 82.1741 48.3557 83.3032 53.5688 83.6862L45.5684 91.8417ZM61.3421 83.5974C66.8558 83.0261 71.3241 81.2428 74.2346 78.4898C72.2169 82.7292 70.0466 86.8943 67.7281 90.977C66.2019 89.2523 63.5385 86.1535 61.3421 83.5958V83.5974ZM79.0265 79.0093C78.4089 77.0237 79.9143 76.9558 80.6214 78.2867C81.625 80.2052 82.7653 84.2219 81.9006 85.8617C81.1557 87.2683 78.9516 87.7647 77.274 88.2549C76.8224 88.3831 76.7923 88.6316 76.9806 89.0601C79.6827 95.0856 75.5517 97.8154 69.5416 100.666C68.6762 101.08 67.9613 99.6065 68.8113 99.1325C71.5349 97.5977 74.799 95.0177 75.6566 93.9122C76.2133 93.1973 75.5594 90.5038 74.5812 88.451C73.6711 86.5248 80.1019 86.2894 80.23 84.8851C80.3281 83.7919 79.6811 81.1138 79.0265 79.0078V79.0093ZM28.1473 68.4707C23.6697 66.5823 22.2029 58.6662 27.0943 56.6234C27.2634 56.5705 27.4151 56.473 27.5334 56.3413C27.6518 56.2095 27.7326 56.0483 27.7672 55.8745C27.8017 55.7008 27.7889 55.521 27.73 55.3539C27.6711 55.1868 27.5683 55.0387 27.4324 54.925C23.6496 51.7058 24.4841 44.4697 30.5544 44.2814C30.8092 44.2559 31.0436 44.1311 31.2069 43.934C31.3702 43.7369 31.4492 43.4833 31.4268 43.2283C30.7204 35.9545 44.4328 28.0484 49.4918 34.4576C49.5901 34.5749 49.7144 34.6675 49.8548 34.7282C49.9953 34.789 50.148 34.816 50.3008 34.8072C50.4535 34.7984 50.6021 34.7541 50.7347 34.6777C50.8673 34.6013 50.9802 34.495 51.0644 34.3673C55.5852 26.6117 65.7997 26.8973 69.862 34.6151C70.9598 36.7064 74.2832 32.7584 77.9927 36.9018C80.0239 39.1707 81.5586 43.4314 78.9562 48.1854C78.8592 48.3638 78.8194 48.5677 78.8421 48.7694C78.8649 48.9712 78.9492 49.1611 79.0836 49.3133C82.4611 53.0961 81.1449 58.2269 78.9562 61.7774C79.4194 54.1129 76.5035 44.5068 71.802 42.6717C70.6286 42.2085 68.6885 44.9878 65.3411 44.0251C63.6635 43.5441 63.4381 41.1146 62.2948 40.9494C60.5793 40.6931 59.3611 43.9054 53.9223 43.5742C51.5005 43.4314 50.5602 39.0194 48.4542 41.0467C44.4398 44.9129 41.8921 46.4847 38.9539 44.1347C38.7886 44 38.5839 43.9228 38.3708 43.9147C38.1577 43.9066 37.9478 43.9681 37.7727 44.0899C35.8126 45.5266 32.8489 48.6857 32.8489 57.0959C32.8489 57.6973 32.3524 57.9606 31.8854 58.3443C28.5086 61.1428 27.6131 64.6176 28.1473 68.4707ZM30.0001 66.3091C29.9855 60.915 34.6322 59.9786 34.626 58.203C34.5774 51.1082 36.7977 47.5423 38.3702 46.1211C42.2967 48.7312 45.7337 45.9667 49.3374 42.864C52.4517 46.7757 57.3709 46.2037 61.6053 43.3827C63.6218 46.8352 68.172 46.8807 71.4593 44.7145C73.6108 46.0385 75.5663 49.6113 76.2511 53.5678C74.3096 52.3293 71.9566 51.9102 69.7068 52.4021C65.0354 53.3123 63.5462 56.2459 64.2757 59.5177C65.1859 63.6171 70.1654 67.3783 77.0185 63.0002C79.0257 82.9952 58.1305 85.1082 39.3445 78.6465C32.1417 75.9916 29.7909 69.6881 29.9978 66.3091H30.0001ZM74.8924 62.1487C70.9875 64.1652 67.8061 62.4652 66.4219 60.1106C66.1048 59.5744 65.9273 58.9671 65.9057 58.3445C65.8841 57.7219 66.0192 57.1038 66.2984 56.547C66.5777 55.9901 66.9922 55.5122 67.5041 55.157C68.0159 54.8019 68.6087 54.5809 69.2281 54.5143C70.4757 57.299 72.452 60.3831 74.89 62.1503L74.8924 62.1487ZM31.0138 82.2039C31.5472 82.2719 31.5326 82.7613 31.4044 83.2847C31.2653 84.5232 31.2201 85.7705 31.2693 87.0158C31.284 87.9106 37.6554 88.5351 36.1955 90.3625C33.3831 93.8828 39.1677 96.5007 41.6042 98.0957C42.8155 98.8777 42.2287 99.8628 41.334 99.6752C38.4535 98.781 35.9152 97.0277 34.0594 94.6502C33.5817 94.0493 33.3112 93.3099 33.2882 92.5426C33.2652 91.7752 33.4911 91.021 33.932 90.3926C32.0135 89.8059 29.5987 88.8578 29.3771 87.4821C29.3131 87.1316 28.8398 81.9414 31.0138 82.2039Z" fill="#001434"/>
<path d="M87.4809 149.917C89.0249 149.075 88.6467 147.074 87.5188 145.969C82.9979 141.537 82.5988 141.462 77.522 141.944C67.0281 142.937 62.7412 147.661 53.6547 148.578C46.4256 153.009 87.6237 150.264 87.4809 149.917Z" fill="#001434"/>
<path d="M63.7717 51.8454C64.4665 51.8454 65.2833 50.8294 67.2087 51.2432C68.4439 51.5065 69.0669 49.8668 67.6078 49.3325C66.0885 48.7767 63.4776 49.4985 62.8839 50.4759C62.8222 50.6242 62.7975 50.7854 62.812 50.9454C62.8265 51.1055 62.8798 51.2596 62.9672 51.3944C63.0546 51.5292 63.1735 51.6408 63.3137 51.7193C63.4539 51.7979 63.6111 51.8412 63.7717 51.8454Z" fill="#001434"/>
<path d="M46.6364 64.8659C53.0147 64.6775 55.3995 56.644 50.9241 53.9211C44.2139 49.8441 37.309 55.1563 38.159 59.6903C38.701 62.5336 41.525 65.0164 46.6364 64.8659ZM40.5885 57.1628C40.9152 56.5532 41.3929 56.0376 41.9759 55.6655C42.5589 55.2934 43.2277 55.0771 43.9182 55.0374C44.9269 57.8154 46.4707 60.3685 48.4622 62.5521C44.7558 63.9325 38.4145 61.6836 40.5885 57.1628Z" fill="#001434"/>
<path d="M55.8962 62.9476C59.2058 64.4522 63.3507 63.0302 62.5231 58.0662C62.4659 57.8189 62.3144 57.6036 62.101 57.4662C61.8875 57.3288 61.6289 57.2801 61.3801 57.3303C61.1313 57.3806 60.9119 57.5259 60.7685 57.7354C60.6252 57.9449 60.5691 58.202 60.6124 58.4522C60.861 59.6874 60.6278 60.5736 59.9052 61.1009C59.4509 61.3873 58.9301 61.551 58.3936 61.576C57.8571 61.6011 57.3233 61.4866 56.8442 61.2437C56.6198 61.1356 56.3626 61.1173 56.1252 61.1926C55.8877 61.2679 55.688 61.4311 55.5669 61.6487C55.4458 61.8664 55.4125 62.1221 55.4737 62.3635C55.5349 62.605 55.686 62.8139 55.8962 62.9476Z" fill="#001434"/>
<path d="M46.5906 51.2364C48.306 51.4843 50.4946 50.4915 51.8935 51.326C52.3528 51.6047 53.0669 51.9884 53.5564 51.0326C54.5114 49.1976 50.9841 48.2951 47.3209 49.1072C45.5754 49.4987 45.658 51.1006 46.5906 51.2364Z" fill="#001434"/>
<path d="M55.2265 67.2273C57.0539 67.0019 59.1298 67.7538 60.9394 68.3707C61.1598 68.3654 61.3719 68.286 61.5416 68.1453C61.7113 68.0046 61.8286 67.8108 61.8746 67.5953C61.9207 67.3797 61.8927 67.155 61.7953 66.9572C61.6979 66.7595 61.5367 66.6004 61.3378 66.5055C59.3977 65.9033 54.568 64.4898 54.2222 66.1666C54.1944 66.3069 54.2006 66.4518 54.2403 66.5892C54.28 66.7267 54.352 66.8526 54.4503 66.9564C54.5487 67.0603 54.6705 67.1391 54.8055 67.1862C54.9406 67.2333 55.0849 67.2474 55.2265 67.2273Z" fill="#001434"/>
<path d="M148.973 100.799C144.874 97.2473 125.948 97.8047 122.88 99.9941C120.856 101.709 117.614 111.729 116.549 118.671C112.66 119.356 100.633 117.807 99.179 120.357C97.8558 122.688 98.9081 127.058 101.481 127.073C105.272 127.088 120.534 126.899 125.349 126.772C129.621 126.201 142.873 127.735 144.221 124.861C146.048 121.981 151.065 103.838 148.973 100.799ZM101.487 125.125C100.863 125.148 99.0424 121.447 102.427 120.956C104.812 120.611 113.304 120.738 116.298 120.641C116.155 122.03 116.102 123.92 116.538 124.958C110.942 125.02 102.127 125.103 101.487 125.125ZM146.198 112.398C144.588 119.077 143.505 122.921 141.986 123.839C139.662 125.246 135.347 124.576 128.553 124.779C117.48 125.118 118.075 123.952 118.165 121.884C118.465 115.369 122.58 102.807 124.145 101.476C126.259 99.6853 145.891 99.964 147.365 101.897C147.763 102.431 147.808 105.711 146.198 112.398Z" fill="#001434"/>
<path d="M56.9343 77.9314C55.2607 78.1 53.5717 78.0343 51.9162 77.7361C51.6671 77.6874 51.4087 77.7378 51.1961 77.8766C50.9835 78.0153 50.8333 78.2314 50.7775 78.4791C50.7216 78.7268 50.7645 78.9864 50.8969 79.203C51.0294 79.4196 51.2411 79.576 51.487 79.6391C53.4094 80.0959 55.413 80.0882 57.3319 79.6167C57.9348 79.4206 58.1602 77.8634 56.9343 77.9314Z" fill="#001434"/>
<path d="M59.1228 69.9204C54.4737 68.8751 49.9683 66.4757 48.6744 69.1237C45.4775 75.4272 55.3615 77.8119 59.86 75.7128C62.5528 74.4567 63.8312 70.9742 59.1228 69.9204ZM59.7851 73.2756C57.5463 75.8332 48.2606 74.0051 50.2393 70.2292C50.4801 69.766 50.8183 69.5074 51.3077 69.695C54.3463 70.853 57.2877 71.3649 59.5891 72.0496C60.0932 72.1924 60.1302 72.8764 59.7851 73.2756Z" fill="#001434"/>
<path d="M5.72368 149.917C8.33384 151.136 43.2054 150.625 45.5153 150.782C46.1846 150.835 46.0418 148.337 45.4249 148.345C31.5906 148.52 21.6703 142.659 13.9602 142.659C11.7214 142.659 8.63338 144.724 6.21236 146.149C4.72085 147.028 3.91796 149.076 5.72368 149.917Z" fill="#001434"/>
</svg>
