<svg width="155" height="155" viewBox="0 0 155 155" fill="none" xmlns="http://www.w3.org/2000/svg">
<path d="M31.3242 44.7864C32.3031 43.3574 32.1487 33.8077 32.8289 32.3749C33.13 31.6978 38.0191 29.0653 40.1251 28.0122C40.4278 27.8592 40.6968 27.6473 40.9165 27.3889C41.1361 27.1306 41.302 26.8309 41.4043 26.5076C41.7803 25.304 42.4967 22.138 42.909 20.2644C43.3243 18.3761 42.533 16.6537 41.9308 18.7605C41.3287 20.8673 40.2008 25.5302 39.5237 26.1316C38.0947 27.3352 32.5564 29.6829 31.3999 31.3975C30.3716 32.9191 30.5723 42.3044 29.9709 43.7334C29.5949 44.561 23.8774 44.0345 23.3509 43.2826C22.8244 42.5306 22.738 38.6366 21.7714 38.0167C20.6296 37.2856 18.9883 37.7913 18.5367 37.3396C18.0811 36.6675 17.7254 35.9329 17.4806 35.1587C17.1046 34.1049 15.7505 35.0043 16.0516 36.1361C16.653 38.1672 17.2552 38.6937 17.6311 38.8443C18.3665 39.1569 19.167 39.2859 19.9634 39.2203C20.2342 39.2321 20.493 39.3352 20.6977 39.5128C20.9025 39.6904 21.0412 39.932 21.0913 40.1984C21.9196 45.0026 21.7382 45.7777 28.0872 45.9151C29.4467 45.8402 30.648 45.8402 31.3242 44.7864Z" fill="#3D9CFB"/>
<path d="M25.1559 94.2079C24.2575 94.3174 23.3509 94.3433 22.4477 94.2851C21.5453 94.2079 21.3947 94.8116 21.6958 95.1119C22.2223 95.7141 24.0273 95.789 25.0803 95.7141C26.4344 95.6369 29.368 92.6261 29.6691 90.5239C29.8235 89.396 26.4637 85.4086 26.4344 84.0552C26.3966 82.3236 28.9172 77.1342 28.691 75.7801C28.4655 74.5016 23.5764 69.462 23.4251 68.2584C23.2753 67.2054 26.7355 62.5417 26.4359 60.9622C26.1348 59.2313 19.2146 57.2758 17.4096 57.6518C16.1304 57.9529 13.2724 60.1338 11.1664 62.0144C9.88718 63.1431 9.57992 64.0162 10.9402 63.7453C12.214 63.4913 16.3566 59.4568 17.8612 59.2313C19.064 59.0816 24.6503 60.5808 24.8564 61.413C25.0232 62.0862 21.5468 66.8287 21.8456 68.6344C22.1459 70.3645 26.659 74.5016 26.9601 76.0812C27.1145 76.7582 24.7375 82.3221 24.8541 84.0552C24.9599 85.6324 26.7347 87.8157 28.1637 90.4482C28.172 90.5056 28.1991 90.5586 28.2409 90.5988C28.0139 91.8 25.9079 94.0574 25.1559 94.2079Z" fill="#3D9CFB"/>
<path d="M12.8199 54.9413C12.3683 55.0185 10.7887 54.9413 9.80907 54.9413C8.83093 54.8641 8.83093 55.2424 8.83093 55.6183C8.90813 56.5216 10.1094 56.5216 12.5173 56.5216C13.0416 56.4922 13.5466 56.3137 13.9729 56.0071C14.3992 55.7005 14.729 55.2785 14.9236 54.7907C15.9017 53.0614 16.4283 52.0833 16.4283 51.3306C16.4283 49.6005 12.667 47.645 12.5922 46.8175C12.5173 45.9899 14.2466 44.9368 14.2466 43.8838C14.0533 42.9416 13.8022 42.0121 13.4946 41.1007C13.1943 40.1226 11.7646 40.9463 12.2154 42.0789C12.5173 42.9057 12.5173 43.1319 12.667 43.5827C12.705 43.7109 12.7113 43.8465 12.6852 43.9776C12.6591 44.1087 12.6014 44.2316 12.5173 44.3355C12.0656 44.9368 11.1632 46.1404 11.1632 47.0437C11.1632 48.6232 14.7731 50.5787 14.8487 51.5568C14.851 51.9575 13.2229 54.9413 12.8199 54.9413Z" fill="#3D9CFB"/>
<path d="M57.4264 56.1448C56.1479 58.1003 54.9444 63.2912 54.5699 64.9456C54.518 65.3033 54.3293 65.6269 54.0434 65.8481C52.8399 66.9011 49.4554 69.8348 49.0794 70.8121C48.5521 72.2419 49.8313 77.9586 50.6589 79.1622C51.4865 80.3657 52.765 80.9679 54.6456 81.8704C56.8273 82.9234 57.0527 81.3438 56.3757 80.8922C53.8929 79.5381 52.6144 78.7862 52.0879 77.8814C51.5614 76.9766 50.96 73.4439 50.8844 72.2403C50.8482 72.0584 50.8643 71.87 50.9308 71.6969C50.9974 71.5238 51.1116 71.373 51.2603 71.2622C52.1636 70.4346 54.194 68.4058 55.3226 67.4261C55.7589 66.9766 56.092 66.4373 56.2985 65.8458C57.4264 61.7086 59.0059 57.5714 59.0059 57.4958C60.2094 56.5184 67.2054 54.6394 67.7296 53.4335C68.4066 51.9296 68.2561 46.8143 67.1274 45.9867C65.9987 45.1591 59.3047 45.8369 57.3492 46.2878C55.3937 46.7386 50.8049 53.1332 48.9991 53.4335C47.3439 53.7353 43.3573 51.4031 43.2091 50.3501C43.0608 49.2971 45.3159 44.7083 45.8424 44.3323C46.3689 43.9563 50.6782 44.814 52.0856 43.8058C52.697 43.3673 52.6878 42.376 53.5146 37.7123C56.8999 34.5533 60.1346 32.8981 60.2094 31.3942C60.2866 30.1907 59.1564 29.8896 52.5372 27.257C52.4976 27.2542 52.4603 27.237 52.4326 27.2085C52.4048 27.18 52.3885 27.1423 52.3867 27.1026C52.1094 25.8692 52.0333 24.5991 52.1613 23.3414C52.9881 21.7619 55.0949 18.5272 55.5457 17.9258C55.5457 17.8486 55.6229 17.8486 55.6963 17.8486C56.4482 17.6231 61.1119 16.3439 61.413 15.5171C61.9395 14.3128 60.8116 14.3128 55.0192 16.1942C54.6537 16.2745 54.3316 16.4891 54.1168 16.7956C53.2135 18.2245 51.1831 21.2338 50.581 23.0388C50.3555 23.7915 50.3555 27.4022 51.1075 28.3795C51.7096 29.1322 56.3733 30.4107 58.1034 31.236C58.4794 31.3904 58.254 31.6868 57.7274 32.1384C56.2985 33.4176 52.6322 36.0595 52.1613 36.877C51.7251 37.639 51.258 42.1429 50.9577 42.5196C50.6574 42.8963 45.6918 42.4424 44.9361 43.121C43.8823 44.0984 41.2497 48.9883 41.5508 50.5678C41.8519 52.1473 46.365 55.2315 49.1481 55.0061C51.8602 54.7907 56.9755 48.3984 57.8023 48.0209C58.6292 47.6434 65.2491 46.8174 65.8513 47.3439C66.4527 47.7955 66.7537 51.7073 66.3029 52.2338C65.852 52.7603 58.3288 54.7907 57.4264 56.1448Z" fill="#3D9CFB"/>
<path d="M15.7534 98.3473C12.3658 98.4245 8.90801 98.799 6.65143 100.453C6.09391 100.918 5.64144 101.496 5.324 102.148C5.00656 102.801 4.83138 103.514 4.81007 104.239C4.78876 104.964 4.9218 105.686 5.20038 106.356C5.47895 107.026 5.89672 107.63 6.426 108.126C8.45716 109.932 11.8424 109.631 13.3463 108.049C15.152 106.094 16.1294 102.182 16.6559 99.4027C16.6912 99.2706 16.6939 99.132 16.6637 98.9986C16.6334 98.8653 16.5712 98.7414 16.4824 98.6375C16.3935 98.5336 16.2807 98.4529 16.1537 98.4023C16.0267 98.3518 15.8893 98.3329 15.7534 98.3473ZM8.00553 106.243C6.27546 104.889 8.23096 102.181 10.0367 103.685C10.2046 103.818 10.3446 103.983 10.4488 104.171C10.5529 104.358 10.6191 104.565 10.6435 104.778C10.6679 104.991 10.6502 105.207 10.5912 105.413C10.5323 105.619 10.4333 105.811 10.2999 105.979C10.1666 106.147 10.0014 106.287 9.81395 106.391C9.62647 106.496 9.42031 106.562 9.20726 106.586C8.9942 106.611 8.77842 106.593 8.57222 106.534C8.36603 106.475 8.17347 106.376 8.00553 106.243Z" fill="#3D9CFB"/>
<path d="M55.9215 114.292L49.6034 114.369C49.5262 114.369 48.3242 116.1 47.4217 117.001C46.3687 118.055 44.0364 114.82 43.9615 114.746C40.4257 111.658 35.9875 118.507 31.6249 125.126C27.1874 132.197 27.2623 137.763 31.7021 141.825C37.4188 137.312 41.1043 142.201 41.4054 145.135C45.4677 145.289 60.5118 145.436 60.7373 143.254C62.8441 140.547 69.6153 128.432 70.8922 124.825C71.4944 123.17 70.1403 121.515 69.1622 120.462C65.4002 121.288 56.7491 117.526 55.9215 114.292Z" fill="#3D9CFB"/>
<path d="M134.003 86.0082C134.003 85.8577 133.925 85.7072 133.776 85.7072C133.024 85.4817 130.467 84.8796 129.263 85.7844C127.909 86.7625 129.64 93.9839 129.715 96.7669C129.712 96.8203 129.725 96.8732 129.752 96.9192C129.779 96.9653 129.819 97.0025 129.867 97.0264C129.915 97.0503 129.968 97.0598 130.021 97.0537C130.074 97.0477 130.125 97.0264 130.166 96.9924C131.352 96.354 132.616 95.8736 133.927 95.5634C134.002 95.5364 134.066 95.4843 134.107 95.4157C134.148 95.3472 134.165 95.2666 134.153 95.1874C133.476 92.4028 133.852 87.211 134.003 86.0082Z" fill="#3D9CFB"/>
<path d="M98.2715 6.19855C93.7583 2.96384 86.8381 4.39283 84.1299 8.00351C80.8203 12.5167 79.7673 20.9416 79.3913 26.8088C79.3625 27.0436 79.3915 27.2819 79.4759 27.5028C79.5603 27.7238 79.6975 27.9207 79.8755 28.0765C80.0535 28.2323 80.2669 28.3421 80.4972 28.3965C80.7274 28.4509 80.9674 28.4481 81.1962 28.3884C88.1659 27.0428 95.263 25.9064 99.55 21.9197C103.462 18.1585 103.763 10.1072 98.2715 6.19855ZM90.7498 15.2249C87.739 13.1181 90.6726 8.68056 93.9838 10.8623C97.0679 12.9683 93.6827 17.3309 90.7498 15.2249Z" fill="#3D9CFB"/>
<path d="M149.121 84.2785C134.376 78.7115 141.148 84.805 137.764 95.2603C137.686 95.3375 137.764 95.5613 137.989 95.5613C139.548 95.789 141.052 96.2989 142.427 97.066C142.508 97.0993 142.599 97.1021 142.682 97.0737C142.765 97.0452 142.834 96.9876 142.878 96.9116C143.706 93.8235 148.823 87.2831 149.348 84.5749C149.348 84.429 149.272 84.2785 149.121 84.2785Z" fill="#3D9CFB"/>
<path d="M37.6429 43.8087C39.6625 44.3776 43.1342 40.0475 43.8113 38.5428C44.1873 37.7152 43.5859 35.0827 43.1342 33.3526C42.9798 32.7512 42.3074 32.4501 39.4487 32.3745C37.4924 32.3745 37.1164 32.5289 36.7405 32.8261C36.515 33.0515 35.1609 35.1583 35.0861 36.1357C35.2366 36.3611 35.9028 43.3185 37.6429 43.8087ZM36.7405 35.9852C36.8906 35.4164 37.1456 34.8807 37.4924 34.4056C37.8115 34.0827 38.2422 33.8943 38.696 33.8791C39.6741 33.8791 40.5017 33.9563 41.0282 33.9563C41.2669 33.9806 41.4912 34.0818 41.6674 34.2445C41.8437 34.4073 41.9623 34.6228 42.0056 34.8588C42.0936 35.4587 42.2318 36.2878 42.3823 37.191C42.4453 37.616 42.337 38.0486 42.0812 38.3938C41.1039 39.6746 38.7678 42.2423 38.1702 42.0786C37.4129 41.8702 36.6648 36.5094 36.7405 35.9852Z" fill="#3D9CFB"/>
<path d="M75.4049 13.272C70.8161 11.6176 65.8513 10.5646 56.2228 11.0154C35.2366 11.9148 19.5895 21.2422 11.4657 35.0071C0.033061 54.3428 2.58995 81.4194 20.4141 99.8488C28.7633 108.495 32.8256 108.951 33.0518 108.804C33.5027 108.503 33.2772 108.127 32.8974 107.976C31.0068 106.878 29.1967 105.646 27.481 104.291C27.2556 104.14 27.3266 103.839 27.6354 103.764C29.5963 103.359 31.5301 102.831 33.4255 102.185C35.0814 101.508 35.8334 96.6936 36.8107 96.0922C37.714 95.5649 43.5056 96.3176 44.2583 96.6936C46.8908 97.972 48.3198 99.7816 49.3728 99.9275C50.2761 100.005 52.0223 99.0528 53.6605 98.0477C55.3327 97.0217 54.7892 95.7903 53.2846 96.6179C52.1109 97.3016 50.8792 97.8803 49.6036 98.3472H49.4492C48.4711 98.0469 45.688 95.7896 44.8604 95.3364C44.0328 94.9604 37.7147 94.2085 36.2858 94.6593C34.8568 95.1102 33.2749 100.604 32.75 100.828C31.9972 101.204 28.2368 102.031 25.6791 102.633C25.6019 102.633 25.4529 102.633 25.4529 102.555C15.3775 93.6056 6.3504 78.7869 6.20063 62.5392C5.9752 29.8926 29.0683 14.3212 56.2267 12.5903C63.3732 12.1395 69.391 12.6675 76.1607 14.9226C77.8112 15.4499 77.1342 13.8703 75.4049 13.272Z" fill="#3D9CFB"/>
<path d="M96.9968 27.0343C96.3197 26.3572 95.1918 26.7339 96.3946 28.6894C97.7022 30.8782 98.8341 33.1672 99.7798 35.5348C100.231 36.513 101.359 36.2868 101.058 35.3094C99.6254 30.4952 97.8954 27.9406 96.9968 27.0343Z" fill="#3D9CFB"/>
<path d="M50.7312 125.651C52.7624 123.694 57.3512 124.146 63.4439 124.748C65.475 124.973 64.1209 123.469 62.3152 123.243C56.8247 122.491 52.9878 121.814 49.9793 123.846C47.8725 125.275 45.0902 130.164 42.5325 134.451C41.0279 137.009 43.2844 136.557 44.112 135.204C46.6689 131.066 48.8506 127.53 50.7312 125.651Z" fill="#001434"/>
<path d="M99.6989 113.464C103.912 113.464 103.084 107.747 99.6217 107.822C99.2346 107.801 98.8472 107.859 98.4836 107.994C98.12 108.129 97.788 108.337 97.5083 108.605C97.2285 108.874 97.0069 109.197 96.8573 109.554C96.7076 109.912 96.6331 110.297 96.6384 110.684C96.6438 111.072 96.7287 111.455 96.8881 111.808C97.0475 112.161 97.2778 112.478 97.5648 112.739C97.8519 113 98.1894 113.199 98.5565 113.323C98.9237 113.448 99.3125 113.496 99.6989 113.464ZM99.6217 109.703C100.825 109.703 100.976 111.583 99.6217 111.433C98.0461 111.358 98.3472 109.703 99.6256 109.703H99.6217Z" fill="#001434"/>
<path d="M150.626 82.0216C149.724 79.088 138.14 76.4546 135.506 77.9593C134.304 78.6363 134.002 79.765 133.701 81.871C132.347 81.6456 131.219 81.4951 130.241 81.4194C133.551 76.2292 133.852 65.9237 128.436 58.2515C132.122 37.7933 102.635 37.0383 85.4841 42.003C76.457 45.3103 72.6966 52.8351 70.5898 58.4769C64.7225 60.9597 63.143 66.2248 64.2717 70.7379C58.7055 75.0257 57.9528 83.5247 62.3154 89.5463C58.856 95.7147 56.1479 101.126 54.9443 105.719C53.4694 105.555 51.9773 105.781 50.6174 106.375C49.2575 106.969 48.0778 107.91 47.1964 109.104C41.4789 107.299 36.9658 109.33 29.2936 119.259C22.8242 127.609 21.6963 137.162 27.1875 142.051C28.2406 142.954 29.9706 142.129 28.7663 141.224C27.1824 140.098 26.1018 138.397 25.7555 136.485C23.8772 126.854 32.3029 117.902 37.2669 113.614C37.3441 115.871 38.4704 117.451 40.351 119.03C37.1929 122.986 34.2796 127.131 31.6274 131.442C30.3489 133.699 31.1765 135.73 32.3044 134.075C34.185 131.292 38.0945 125.274 42.1583 120.384C42.9778 121.032 43.8316 121.634 44.716 122.19C46.1457 123.092 47.6496 122.039 45.9952 120.911C42.7605 118.655 38.6696 115.361 39.5258 112.787C40.3217 110.394 43.4375 109.699 45.6192 111.057C43.8884 113.614 42.3096 116.473 45.017 117.902C45.4012 118.154 45.8333 118.325 46.2863 118.402C46.7393 118.48 47.2034 118.463 47.6496 118.353C50.1324 117.601 50.5832 111.583 54.495 112.035C54.7204 117.676 59.6103 120.913 69.0126 121.889C69.9907 121.966 70.5921 123.468 69.8402 124.9C69.6147 125.276 64.65 135.055 61.7912 140.32C60.3622 142.954 60.1368 143.48 56.7516 143.931C53.442 144.383 48.1761 144.307 46.3711 144.383C43.6629 144.533 43.0616 146.263 45.017 146.263H50.6589C51.7119 152.732 63.5221 152.732 63.2202 144.458C69.8402 147.918 74.7301 149.724 79.2432 150.325C82.2464 150.699 85.2887 150.623 88.2695 150.099C96.3185 151.002 110.611 150.55 116.703 150.325C122.421 150.099 123.549 146.188 116.553 141.073C118.433 131.896 119.332 132.118 117.08 123.17C117.983 122.042 118.132 120.613 117.983 118.431C121.668 118.657 124.15 117.754 127.535 116.476C136.259 119.785 147.544 105.117 143.633 97.3691C145.661 91.6501 152.131 87.0612 150.626 82.0216ZM54.3421 109.778C52.1612 109.628 50.7314 110.756 49.3025 112.712C48.4749 113.84 47.6473 116.022 46.5943 116.097C46.4495 116.108 46.3041 116.089 46.1671 116.041C46.0301 115.994 45.9045 115.918 45.7985 115.818C45.6924 115.719 45.6081 115.599 45.5509 115.466C45.4938 115.332 45.465 115.189 45.4664 115.043C45.5436 113.916 47.0181 111.79 48.0232 110.38C49.7085 108.015 51.559 107.446 54.5676 107.601C54.4262 108.318 54.3507 109.047 54.3421 109.778ZM52.6877 145.884C57.8771 145.433 59.5323 145.884 61.2624 144.23C61.6391 149.119 54.3421 150.548 52.6877 145.884ZM136.559 79.6893C138.215 78.4858 147.438 81.2882 148.371 82.623C150.343 85.4485 143.482 91.8755 142.052 95.7865C140.172 94.7342 137.539 94.4331 134.982 94.6586C134.68 88.9419 134.903 81.0434 136.559 79.6893ZM133.325 83.7516C132.799 87.5878 132.648 92.3981 133.099 94.9597C132.185 95.1657 131.281 95.4167 130.392 95.7116C129.553 94.7689 128.407 94.1556 127.157 93.9815C126.329 90.9707 126.028 85.1806 126.932 83.5262C127.382 83.2244 129.414 83.0746 133.325 83.7516ZM128.511 96.7646C127.138 97.7362 125.963 98.9619 125.051 100.375C123.323 98.1156 126.179 94.1321 128.511 96.7646ZM68.71 70.4392C69.2357 70.2894 69.7568 69.4711 69.3113 69.1607C68.4722 68.5755 67.0548 69.0063 66.1523 69.3861C64.2717 63.4417 72.0195 59.5322 74.1256 58.4792C77.1364 56.9746 75.3291 56.147 73.2231 56.9746C75.3291 52.0855 78.9398 46.3687 86.1612 43.7354C100.604 39.8993 129.038 38.3947 126.781 57.6516C126.686 58.4646 126.871 59.2858 127.308 59.9785C132.799 68.1772 130.318 77.6574 128.06 81.2658C124.9 81.7174 125.427 82.0185 124.75 83.8983C124.176 83.3344 123.546 82.8305 122.869 82.3945C126.631 78.6332 128.361 73.6708 125.957 68.1772C127.236 65.6203 126.634 61.1064 123.626 59.2258C123.18 57.5526 122.601 55.9177 121.895 54.3366C123.626 53.6596 123.776 51.403 122.272 52.2306C118.511 54.3366 110.763 54.3366 106.926 53.0582C110.161 50.4249 107.904 49.9702 106.849 50.8008C99.8535 56.5183 90.7515 55.2391 85.1846 54.7875C82.4764 54.5621 81.9506 55.3148 83.7556 56.3678C81.6496 58.8498 80.9725 61.8591 79.769 65.9955C79.6887 66.2125 79.5583 66.4075 79.3883 66.5645C79.2183 66.7215 79.0135 66.836 78.7908 66.8987C73.826 67.8761 73.7512 74.2706 75.3307 78.4078C69.5406 79.6863 66.7552 82.0934 63.2194 87.5847C59.984 80.5911 61.037 73.2956 68.71 70.4368V70.4392ZM86.9131 85.0301C78.1122 81.7954 76.6832 77.6582 76.5327 73.7472C76.3073 69.9103 77.8814 69.1237 79.3119 68.933C82.762 68.4736 81.5685 61.1095 86.2322 57.0441C93.3038 57.3444 99.0197 57.8709 104.963 54.4864C109.1 56.4419 115.268 56.0659 120.082 55.1635C120.616 56.2402 121.02 57.3763 121.286 58.5479C113.237 56.5924 107.52 63.4378 112.562 69.6062C114.368 71.7871 122.115 72.2387 124.523 70.057C128.134 89.0924 98.2717 90.296 86.9131 85.0301ZM111.586 88.7164C110.759 89.9949 109.63 92.7031 108.73 93.0034C107.83 93.3037 105.195 89.7687 105.195 89.7687C107.36 89.6754 109.507 89.3221 111.588 88.7164H111.586ZM100.378 89.7687C98.7982 91.4995 96.6921 94.2077 95.7896 93.1539C94.8872 92.1001 93.9839 90.3708 92.856 88.7913C95.3319 89.3243 97.8478 89.6512 100.378 89.7687ZM122.418 60.8084C124.975 61.26 125.126 67.2029 123.546 68.5562C122.418 69.3838 118.807 69.61 116.325 69.1584C118.498 66.4811 120.531 63.6941 122.418 60.8084ZM76.5327 80.2915C79.2409 83.7516 84.2806 86.3842 89.6962 88.0394C92.856 93.0034 102.935 105.115 104.287 108.729C104.364 109.857 102.407 115.875 101.052 118.808C100.375 120.313 90.9731 124.901 88.3398 124.676C87.2875 124.599 79.84 121.141 75.2512 118.357C75.7028 117.906 76.0795 117.454 76.5304 116.928C82.999 118.131 84.8048 110.835 79.9156 107.526C80.3305 106.555 80.8342 105.624 81.4203 104.746C83.3001 101.211 81.8711 99.5554 80.9687 101.211C80.0662 102.866 79.3135 104.144 78.1856 106.476C73.5219 103.843 64.721 100.532 59.2289 99.7816C63.4835 91.2702 66.1538 81.9428 76.5327 80.2915ZM66.9042 119.482C66.9814 118.353 67.0586 117.752 67.2802 116.172C67.5813 114.291 66.3028 113.916 65.7756 115.043C65.2541 116.295 64.9003 117.611 64.7233 118.955C63.1329 118.456 61.5958 117.801 60.1345 116.999C60.1762 115.793 60.4046 114.6 60.8115 113.464C61.3381 111.658 59.9083 111.433 59.4574 112.26C58.9467 113.339 58.5677 114.476 58.3288 115.646C54.6432 111.583 56.8998 106.544 58.4793 101.504C64.3466 102.181 75.3291 106.469 78.9375 109.101C82.0255 111.358 81.2697 115.646 76.8315 114.891C75.5522 114.666 75.2519 115.343 74.4244 116.396C72.9969 117.978 70.9665 120.234 66.9042 119.482ZM85.1082 148.367C80.2939 148.743 72.6209 147.54 63.0681 141.748C63.5935 140.976 64.0702 140.172 64.4956 139.341C70.965 142.877 80.8189 143.327 87.5137 142.726C89.9973 147.69 89.8467 147.991 85.1082 148.367ZM89.0191 141.371C89.2453 141.146 94.3599 136.557 95.8645 135.278C97.3692 134 99.1749 129.712 98.1968 127.606C97.9713 127.079 97.2186 127.455 97.0681 127.982C96.2405 134.977 88.5683 137.535 87.3647 140.694C79.8423 141.672 71.5679 140.544 65.4752 137.606C68.4861 131.588 70.4392 127.903 71.5679 124.969C71.9022 124.367 72.0452 123.678 71.9781 122.992C71.9109 122.307 71.6367 121.659 71.192 121.133C72.114 120.808 72.959 120.295 73.674 119.628C80.3688 123.615 85.1082 126.549 88.0418 126.699C91.6525 126.85 95.9402 124.668 101.506 120.909C105.418 128.958 110.006 125.95 115.272 124.144C116.852 131.44 116.25 131.44 114.294 140.242C107.75 140.994 96.6149 143.626 90.2984 144.153C89.9869 143.177 89.5573 142.243 89.0191 141.371ZM118.958 147.316C117.303 148.895 96.5416 148.669 90.6743 148.218C90.9935 147.564 91.0733 146.818 90.8998 146.111C97.2186 145.586 110.157 142.427 115.347 142.351C118.958 145.058 119.785 146.561 118.958 147.314V147.316ZM117.83 116.174C117.45 113.989 117.324 111.767 117.453 109.554C117.83 107.147 120.94 104.879 120.387 103.609C119.956 102.622 116.249 106.697 115.647 108.875C115.121 110.905 116.851 120.083 115.948 121.436C115.346 122.34 111.134 123.618 108.727 124.216C108.184 124.364 107.61 124.351 107.075 124.177C106.54 124.004 106.068 123.677 105.716 123.238C104.673 121.995 103.743 120.66 102.937 119.252C104.086 116.549 105.091 113.787 105.948 110.977C106.549 109.172 105.871 107.14 104.819 105.637C103.165 103.229 100.758 99.3933 97.4472 95.2553C98.8013 93.3755 101.811 90.0659 102.788 89.9902C103.765 89.9146 106.85 93.1493 107.602 94.4285C105.722 97.8887 103.991 100.373 105.044 100.596C106.248 100.897 111.815 92.0214 114.448 87.5831C116.934 86.6271 119.266 85.3089 121.368 83.6714C122.797 84.5738 123.474 85.4014 124.528 86.0785C124.258 88.7849 124.514 91.5178 125.28 94.1274C122.346 95.331 121.894 99.9947 124 102.101C121.894 106.012 121.518 111.654 125.129 114.813C122.885 115.982 120.344 116.455 117.83 116.172V116.174ZM142.352 102.183C140.923 109.479 133.175 116.023 128.21 114.217C126.329 113.541 124.599 111.962 124.073 108.427C127.985 111.06 129.94 109.405 129.113 108.728C128.285 108.051 126.102 107.75 124.299 106.171C124.788 104.39 125.632 102.727 126.781 101.281C131.369 105.419 133.25 103.011 132.423 102.334C131.896 101.883 129.865 101.281 128.21 99.777C133.024 95.1882 139.921 96.6488 141.6 97.8964C142.638 98.6653 142.803 99.9244 142.352 102.181V102.183Z" fill="#001434"/>
<path d="M36.2138 139.04C28.0143 139.416 27.7888 151 36.5148 151.076C44.2627 151.153 43.9601 138.663 36.2138 139.04ZM36.2138 149.119C30.1203 148.818 30.873 141.146 36.291 140.995C41.6302 140.845 41.705 149.42 36.2138 149.119Z" fill="#001434"/>
<path d="M85.86 96.0887C86.236 96.6144 84.6564 100.301 85.86 101.579C87.0636 102.858 92.2538 103.911 95.3379 104.212C96.9931 104.366 98.0461 103.46 96.015 102.858C91.8029 101.655 88.6971 101.223 87.9668 100.376C87.2681 99.5665 88.9442 96.5395 87.665 94.6589C86.236 92.4772 79.7673 92.4772 78.1878 91.9507C77.2845 91.6504 79.1652 86.4594 77.6605 86.0834C77.2097 85.9329 76.9086 86.8362 76.6832 87.5881C75.8556 90.1457 75.5545 92.5529 76.3072 93.4553C77.7362 95.1823 84.8819 94.4335 85.86 96.0887Z" fill="#001434"/>
<path d="M108.5 65.1719C107.597 64.1938 102.52 63.5213 102.782 65.6235C102.811 65.7504 102.866 65.8697 102.944 65.974C103.022 66.0782 103.121 66.165 103.234 66.2288C103.347 66.2926 103.473 66.3319 103.602 66.3443C103.732 66.3566 103.863 66.3418 103.986 66.3006C109.93 65.0214 107.07 70.6632 108.951 70.6632C110.909 70.6632 109.63 65.9231 108.5 65.1719Z" fill="#001434"/>
<path d="M107.148 77.58C104.515 78.3319 99.2494 79.5355 96.1652 76.7524C97.5193 76.0005 98.4975 74.6464 97.5942 74.2704C96.6169 73.8936 95.4133 76.151 91.351 76.0005C89.3955 75.9233 89.9969 78.5573 94.1341 77.58C96.9172 81.7172 104.515 80.8896 107.448 79.5355C108.953 78.8615 109.856 76.8311 107.148 77.58Z" fill="#001434"/>
<path d="M99.8534 70.1365C102.833 68.3562 103.012 61.6359 100.154 59.6804C97.8972 58.1001 87.9684 56.9722 85.9372 61.1094C83.0808 66.8994 85.86 70.0647 90.7515 70.8884C93.4573 71.3393 97.6478 71.4535 99.8534 70.1365ZM97.2186 60.6578C101.055 60.5806 100.679 67.0523 98.7981 68.5562C97.5945 69.3089 93.6828 69.4594 90.8997 69.0078C93.1546 66.3401 95.2639 63.5527 97.2186 60.6578Z" fill="#001434"/>
<path d="M119.41 88.1141C119.749 88.8502 120.05 89.6034 120.312 90.3707C120.389 90.7475 120.011 90.8972 119.56 91.0478C117.679 91.7248 116.852 92.1008 116.704 92.8535C116.626 93.4549 117.155 94.5828 117.832 95.8643C117.93 96.0623 117.961 96.2867 117.921 96.5037C117.88 96.7208 117.77 96.9188 117.607 97.0679C115.67 98.6497 113.635 100.107 111.513 101.431C109.783 102.484 111.205 102.992 112.115 102.634C114.131 101.841 119.261 98.5725 119.863 97.4439C120.54 96.3908 119.786 95.1116 119.186 94.0594C118.96 93.6826 118.885 93.2318 119.264 93.0812C120.467 92.6296 121.657 92.5408 122.043 91.8777C122.403 91.2663 121.892 89.7709 120.689 87.7405C120.011 86.6126 118.883 86.9862 119.41 88.1141Z" fill="#001434"/>
</svg>
