<svg width="154" height="154" viewBox="0 0 154 154" fill="none" xmlns="http://www.w3.org/2000/svg">
<path d="M6.08519 118.015C5.48422 118.357 4.99325 118.864 4.66991 119.475C4.34658 120.086 4.20429 120.777 4.25976 121.466C4.4129 123.654 6.46192 125.207 8.46729 126.099C12.1618 127.744 16.2698 128.179 20.3081 128.417C27.0259 128.814 33.7637 128.727 40.469 128.155C41.5005 127.988 42.556 128.045 43.5631 128.324C44.0628 128.475 44.4998 128.784 44.8079 129.205C45.116 129.627 45.2784 130.137 45.2707 130.659C45.1994 131.255 44.8273 131.778 44.7232 132.371C44.436 133.999 46.1727 135.226 47.724 135.8C51.4759 137.193 55.5486 137.46 59.5502 137.493C70.6332 137.583 81.6667 136.003 92.2785 132.804C94.3459 132.179 100.34 130.227 98.6445 126.999C98.214 126.31 97.6393 125.723 96.96 125.278C97.4485 125.649 99.4294 125.417 100.069 125.451C113.156 126.159 116.23 125.953 123.197 126.19C130.81 126.451 139.49 125.654 146.234 121.871C148.404 120.653 150.692 117.637 149.314 115.09C148.492 113.895 147.349 112.955 146.018 112.379C145.472 112.129 140.256 111.337 140.237 111.186C140.446 112.831 140.368 115.31 139.012 116.456C133.534 121.096 127.841 118.408 121.451 118.577C119.53 118.628 117.042 119.271 115.402 118.007C114.005 116.973 112.774 115.731 111.753 114.325C110.953 113.08 110.426 111.681 110.205 110.219C110.167 109.918 110.393 106.391 110.808 106.482C108.478 105.927 106.05 105.935 103.724 106.506C104.985 107.948 105.631 109.825 105.526 111.737L100.292 107.188C100.571 107.43 98.6614 111.264 98.4416 111.695C97.2816 113.983 96.0151 115.394 93.548 116.289C92.9087 116.519 86.9952 117.662 86.8819 116.523C86.8712 116.421 86.8609 116.319 86.8512 116.217C84.5541 116.963 84.62 118.947 85.7724 120.648C85.8711 120.825 85.9164 121.026 85.9028 121.228C85.8892 121.43 85.8173 121.624 85.6958 121.786C85.4444 122.105 85.1321 122.372 84.7769 122.57C84.0005 123.181 83.1237 123.652 82.1858 123.962C81.487 124.17 80.7363 124.115 80.0748 123.809C79.8106 123.648 78.4791 121.857 78.9469 121.584C76.2968 123.133 73.8987 124.717 70.8803 125.412C61.6237 127.55 58.4805 122.928 53.1359 122.031C52.4169 121.911 51.4277 122.254 50.8028 121.768C50.7105 121.701 50.6411 121.606 50.604 121.498C50.5669 121.39 50.5639 121.273 50.5953 121.163C50.616 120.985 50.6642 120.276 50.848 120.203C48.7569 121.045 46.5027 121.836 44.2339 121.28C43.6979 121.148 43.2829 120.903 43.3771 120.355C43.3916 120.272 43.5095 119.879 43.5846 119.861C42.5114 120.101 41.4254 120.28 40.3319 120.397C37.3005 121.208 38.2055 121.002 36.4789 121.117C35.121 121.209 33.76 121.243 32.3992 121.221C29.6144 121.18 24.9551 118.659 23.292 115.708C23.0477 115.275 22.0485 112.965 23.1389 112.737C14.7376 114.502 9.66484 115.477 6.08519 118.015Z" fill="#38A1FF"/>
<path d="M97.0405 52.7074C96.0367 53.31 92.6944 55.7993 92.6354 55.8422C92.176 54.8177 91.9463 53.6814 90.8376 53.8858C89.8929 54.1474 88.9873 54.5337 88.1446 55.0344C87.835 54.4961 87.4845 53.9823 87.0964 53.4976C87.034 53.4334 86.9555 53.3874 86.869 53.3643C86.7826 53.3413 86.6915 53.3421 86.6055 53.3667C85.6612 53.6663 84.7189 53.9698 83.7786 54.2771C83.7372 53.6844 83.702 53.0925 83.6584 52.4999C83.6575 52.4197 83.6356 52.3411 83.5949 52.2719C83.5542 52.2028 83.4962 52.1455 83.4265 52.1058C83.3568 52.0661 83.2779 52.0453 83.1977 52.0455C83.1175 52.0457 83.0387 52.067 82.9692 52.1071C82.3734 52.4979 81.6554 52.6577 80.9501 52.5565C80.7797 51.7268 80.5494 50.9104 80.261 50.114C80.1568 49.8536 79.7112 49.8559 79.7296 50.1852C79.8153 51.146 79.9711 52.0993 80.1959 53.0374C80.2146 53.1082 80.2517 53.1728 80.3035 53.2246C80.3553 53.2764 80.4198 53.3135 80.4907 53.3322C81.2502 53.5331 82.0537 53.4906 82.7878 53.2105C82.8207 53.774 82.8551 54.3399 82.8873 54.9042C82.8885 54.9753 82.9058 55.0452 82.9379 55.1087C82.9701 55.1721 83.0162 55.2274 83.0728 55.2705C83.1294 55.3135 83.1951 55.3432 83.2648 55.3572C83.3345 55.3712 83.4065 55.3692 83.4754 55.3513C84.5014 55.0566 85.5259 54.7472 86.5473 54.4379C86.9027 54.9279 87.2082 55.4522 87.4593 56.003C87.5182 56.1049 87.6095 56.1843 87.7187 56.2286C87.8278 56.2728 87.9486 56.2794 88.0619 56.2472C88.5833 56.0374 90.8506 55.0811 91.0175 54.9892C91.0703 55.1094 91.5045 56.9187 92.3468 57.1002C93.1347 57.271 96.8988 54.4478 97.6416 53.4853C97.9624 53.0742 97.5658 52.3919 97.0405 52.7074Z" fill="#191919"/>
<path d="M71.64 44.7319C70.8406 43.7258 69.1407 44.8008 68.2709 45.2304C65.5894 46.5931 63.2376 48.5244 61.3796 50.8897C59.1768 53.8335 57.4669 57.1157 56.3168 60.6079C56.195 60.9372 56.7119 61.0674 56.8382 60.7519C59.0763 55.1186 62.9424 49.3713 68.3696 46.6906C69.018 46.2975 69.7183 45.9973 70.4501 45.7985C70.4769 46.1224 70.2586 50.4295 70.1629 51.4647C69.5504 58.209 67.3796 64.7466 66.1307 70.4793C66.0954 70.6076 66.1125 70.7446 66.1782 70.8603C66.2439 70.976 66.3528 71.0608 66.481 71.0961C66.6093 71.1315 66.7463 71.1144 66.862 71.0487C66.9777 70.983 67.0625 70.8741 67.0978 70.7458C70.4393 61.2374 71.8651 52.2503 71.9263 46.7794C71.9355 46.1485 72.0657 45.2671 71.64 44.7319Z" fill="#191919"/>
<path d="M108.761 95.628C111.448 90.1586 113.704 84.1839 113.148 77.9832C112.918 74.8057 111.847 71.7463 110.046 69.1187C109.948 68.963 109.799 68.8471 109.623 68.7918C109.448 68.7365 109.259 68.7454 109.09 68.8169C108.92 68.8884 108.782 69.0179 108.7 69.182C108.617 69.3462 108.596 69.5344 108.639 69.7129C109.469 72.9066 108.242 76.1027 106.572 78.8079C98.9257 91.2122 85.1324 90.275 80.6959 81.8707C82.8213 79.5285 84.2304 76.6259 84.756 73.5072C85.2817 70.3884 84.9018 67.1843 83.6615 64.2749C85.0538 63.6265 86.3459 62.7817 87.4984 61.7665C87.5868 61.6922 87.6549 61.5967 87.6963 61.4889C87.7377 61.3811 87.751 61.2645 87.735 61.1502C87.719 61.0358 87.6742 60.9274 87.6049 60.8351C87.5355 60.7428 87.4438 60.6696 87.3384 60.6225C86.6155 60.2014 87.7794 61.2167 84.5183 59.0475C81.7273 57.196 80.9317 56.833 78.8008 52.2664C78.1017 50.7959 77.6613 49.2158 77.4991 47.5956C77.9103 47.7871 81.9164 49.8736 83.6385 50.513C87.6599 52.0543 92.0001 52.5773 96.2725 52.0352C98.0012 51.7279 99.6492 51.0716 101.116 50.1064C102.583 49.1411 103.837 47.8872 104.803 46.4211C106.263 44.359 108.712 40.2005 105.738 38.395C103.757 37.1928 101.941 37.6186 98.6623 34.2656C98.9407 33.9241 99.0982 33.5 99.1102 33.0596C99.0957 32.1851 98.8692 31.3273 98.4502 30.5596C98.0191 29.591 97.7128 29.421 96.8016 29.411C90.5505 29.3421 84.5152 31.5244 78.7013 33.8222C80.8284 41.6155 87.5068 41.6944 90.8613 36.8758C91.5505 35.8804 91.794 34.6714 92.7649 33.8529C94.7901 32.1423 95.6171 34.2028 96.9272 34.6507C98.3565 36.4481 100.216 37.8556 102.335 38.7426C103.266 39.1071 104.698 39.2878 105.397 40.0673C105.542 40.2573 105.631 40.4839 105.654 40.7217C105.677 40.9595 105.634 41.199 105.528 41.4134C104.433 45.3238 101.164 49.2855 96.9785 50.3009C93.2901 51.196 89.0719 50.588 85.493 49.4984C81.7304 48.3499 76.7204 45.2235 77.2235 45.6998C77.1165 45.5985 76.9824 45.5305 76.8375 45.5039C76.6926 45.4774 76.5431 45.4935 76.4071 45.5502C76.2712 45.6069 76.1546 45.7019 76.0716 45.8236C75.9886 45.9453 75.9426 46.0885 75.9394 46.2358C75.9491 48.5335 76.4619 50.8013 77.4417 52.8797C79.7028 57.8254 80.7656 58.4066 84.2082 60.6501C84.5359 60.8637 84.9739 61.2037 85.4517 61.4885C84.5298 62.169 83.5267 62.7318 82.4654 63.1639C82.3552 63.1977 82.2539 63.2556 82.1688 63.3334C82.0837 63.4113 82.017 63.5071 81.9736 63.6139C81.9301 63.7207 81.9109 63.8358 81.9175 63.9509C81.924 64.0661 81.9561 64.1783 82.0114 64.2795C83.2339 67.0631 83.6039 70.1466 83.0745 73.1404C82.5452 76.1343 81.1403 78.904 79.0374 81.0996C78.9063 81.2385 78.8224 81.4153 78.7979 81.6047C78.7735 81.7941 78.8096 81.9864 78.9011 82.154C81.2334 87.337 87.1508 90.0805 92.6615 89.7344C102.029 89.1502 109.721 79.657 110.404 72.889C112.236 77.2106 112.036 82.1961 110.762 86.7313C108.532 94.6762 104.421 99.1127 103.804 103.785C103.432 106.594 104.842 109.109 105.24 111.786C100.198 106.341 96.9518 99.4774 95.941 92.1257C95.9372 91.9929 95.8993 91.8633 95.8311 91.7493C95.7628 91.6354 95.6664 91.5408 95.5511 91.4748C95.4358 91.4088 95.3055 91.3735 95.1727 91.3723C95.0398 91.3711 94.9089 91.404 94.7924 91.468C86.7725 95.0668 77.5772 98.5844 69.0381 94.4626C65.2301 92.4811 61.8252 89.8064 58.9983 86.5759C50.3313 77.0812 50.0564 64.0253 52.5235 51.3032C53.8336 44.5528 56.0947 37.1086 60.8367 31.8957C61.6728 34.0014 62.0473 35.3475 62.8405 36.3919C61.4156 37.5252 60.9799 38.1752 61.8298 40.7426C62.4392 42.565 63.202 44.3325 64.1101 46.026C64.2632 46.3208 64.7693 46.1217 64.6537 45.7963C64.0901 44.2099 63.5485 42.6158 63.0289 41.0145C62.7418 40.1454 62.0519 38.8062 62.7035 37.9693C64.2592 36.7241 65.9066 35.5978 67.6315 34.6002C68.6269 34.2296 68.7755 34.4999 69.1377 35.117C69.9506 36.6312 70.6436 38.2067 71.2104 39.8292C72.389 42.833 73.3534 45.9165 74.0963 49.0566C74.5722 50.6469 74.8779 52.2831 75.0083 53.9379C75.0267 55.6761 73.6568 56.6761 72.6591 57.9073C72.2908 58.3614 72.761 59.1531 73.3329 58.781C74.4675 58.0711 75.3791 57.0557 75.9631 55.8514C76.5634 54.516 76.3153 53.1807 76.0565 51.7932C75.1464 46.9166 73.6653 42.1641 71.6438 37.6339C71.0948 36.3981 70.5772 34.6722 69.5764 33.7235C68.5427 32.7441 67.2602 33.4463 66.2548 34.0657C65.3184 34.6408 64.3758 35.2434 63.4837 35.9034C63.2824 35.0481 62.6522 33.1576 61.852 30.8567C69.2939 23.7012 81.0489 23.0573 90.0505 29.591C90.5597 29.9616 91.199 29.1316 90.7243 28.7173C82.4547 21.4883 69.6239 21.8436 61.3283 29.3613C60.1437 26.0029 58.7463 22.1093 57.7976 19.3076C57.9907 19.1783 58.1433 18.9973 58.2381 18.7852C58.3329 18.5731 58.366 18.3386 58.3336 18.1085C58.2953 17.6422 58.1568 16.0894 56.241 16.6039C56.0442 16.6598 55.862 16.7581 55.7073 16.8919C55.5525 17.0258 55.429 17.1919 55.3454 17.3786C55.2617 17.5653 55.22 17.768 55.2231 17.9726C55.2263 18.1772 55.2742 18.3785 55.3635 18.5626C55.8727 19.6001 56.4852 19.4623 56.4852 19.4623C57.3482 22.5481 58.8995 26.8896 60.2525 30.3973C53.1667 37.7273 50.4768 51.3009 49.8168 61.5612C49.146 72.0023 51.9607 80.1731 55.9477 85.5506C58.7003 89.125 62.0466 92.1999 65.8406 94.641C70.0267 97.3321 75.0074 98.5101 79.9555 97.9795C85.1362 97.4703 89.9035 95.3799 94.5895 93.236C95.9245 101.169 99.7586 108.468 105.533 114.068C105.631 114.161 105.754 114.224 105.887 114.248C106.02 114.273 106.157 114.258 106.282 114.207C106.406 114.155 106.514 114.068 106.59 113.957C106.667 113.846 106.71 113.715 106.714 113.58C106.919 110.51 105.044 107.803 105.136 104.764C105.232 101.48 107.363 98.4757 108.761 95.628ZM86.8276 38.2388C84.5504 39.2756 81.0849 35.0994 82.3866 33.532C82.4576 33.4625 82.5493 33.4181 82.6479 33.4057C82.7465 33.3932 82.8465 33.4134 82.9325 33.4631C83.3353 33.6928 83.421 34.6071 84.5466 35.5351C85.9004 36.6523 86.3843 36.3077 86.9968 36.9134C87.0871 37.0051 87.1553 37.1161 87.1965 37.238C87.2376 37.3599 87.2505 37.4896 87.2342 37.6172C87.2179 37.7448 87.1728 37.8671 87.1024 37.9747C87.032 38.0824 86.938 38.1727 86.8276 38.2388Z" fill="#191919"/>
<path d="M55.1574 30.3673C48.8955 29.7724 42.2745 31.5381 37.727 35.7334C36.3755 36.9791 34.1581 39.0634 34.3763 41.0726C34.3813 41.2605 34.4582 41.4393 34.5911 41.5722C34.724 41.7051 34.9028 41.7819 35.0907 41.787C38.6757 41.934 43.4506 42.1292 45.5984 45.4861C45.9713 46.0703 47.0456 45.7035 46.7753 44.9891C45.2852 41.0465 39.6872 40.5802 35.8824 40.3949C36.1252 39.607 38.5394 36.9608 39.2515 36.4255C45.3641 31.8313 50.3388 31.6522 53.5862 31.8987C52.1926 33.8823 51.0858 36.0525 50.2983 38.3452C49.3548 41.1749 48.9585 44.1583 49.1306 47.1362C49.1306 47.2072 49.1588 47.2754 49.2091 47.3257C49.2593 47.3759 49.3275 47.4042 49.3986 47.4042C49.4696 47.4042 49.5378 47.3759 49.5881 47.3257C49.6383 47.2754 49.6666 47.2072 49.6666 47.1362C50.1628 41.547 52.2807 36.2244 55.76 31.8222C55.8726 31.7005 55.9479 31.5492 55.9771 31.3861C56.0062 31.2229 55.988 31.0549 55.9246 30.9017C55.8612 30.7486 55.7552 30.6169 55.6193 30.5222C55.4833 30.4275 55.323 30.3737 55.1574 30.3673Z" fill="#191919"/>
<path d="M99.2756 62.2848C99.2254 62.1123 99.1099 61.9662 98.9535 61.8777C98.7972 61.7892 98.6125 61.7652 98.4387 61.8109C94.392 63.1378 90.0091 65.0391 85.6577 64.4449C85.6081 64.4344 85.5565 64.4432 85.5132 64.4695C85.4699 64.4958 85.4383 64.5376 85.4248 64.5863C85.4112 64.6351 85.4167 64.6872 85.4402 64.7321C85.4637 64.7769 85.5034 64.8111 85.5512 64.8277C89.686 66.2948 94.0314 64.6462 98.0459 63.3576C98.0092 64.84 96.7251 66.2014 95.817 67.2558C91.0313 72.8285 87.6324 73.8331 85.6224 75.6547C85.2748 75.9702 85.6492 76.4771 86.052 76.3913C87.7072 75.9173 89.2508 75.1167 90.5918 74.0368C93.4105 72.0222 95.9179 69.6043 98.0337 66.8607C99.0291 65.5337 99.8576 63.9602 99.2756 62.2848Z" fill="#191919"/>
<path d="M136.213 98.9786C135.468 97.804 134.823 96.4135 133.528 95.781C133.405 95.714 133.261 95.6932 133.124 95.7222C132.987 95.7513 132.864 95.8283 132.778 95.9395C132.692 96.0508 132.649 96.1889 132.656 96.3292C132.663 96.4695 132.719 96.6028 132.815 96.7052C134.186 98.3774 135.39 100.18 136.409 102.087C138.373 105.417 140.734 110.13 139.67 113.842C139.295 114.962 138.651 115.974 137.795 116.788C136.939 117.602 135.897 118.194 134.759 118.513C132.116 119.279 129.4 118.184 126.778 117.835C123.808 117.443 120.857 118.365 117.89 118.041C112.334 117.429 110.658 111.189 111.468 106.444C111.994 103.593 113.493 101.012 115.709 99.1425C118.141 96.9985 121.034 95.6968 123.874 94.219C124.902 94.982 126.139 95.4138 127.419 95.457C128.699 95.5002 129.962 95.1528 131.04 94.461C131.391 94.2313 131.177 93.5735 130.734 93.742C127.929 94.814 126.829 94.4143 124.379 92.8078C123.338 89.6531 120.217 84.8928 118.233 82.2412C120.383 81.9104 122.254 87.3591 127.764 82.5949C128.917 84.5168 131.733 84.8629 133.966 84.4326C132.035 86.8633 131.104 89.9392 131.363 93.0329C131.363 93.1099 131.393 93.1837 131.448 93.2381C131.502 93.2926 131.576 93.3231 131.653 93.3231C131.73 93.3231 131.804 93.2926 131.858 93.2381C131.913 93.1837 131.943 93.1099 131.943 93.0329C132.358 89.3214 134.112 85.8886 136.877 83.3782C137.502 82.8346 136.707 81.9655 136.039 82.2909C134.247 83.1661 129.242 84.2006 128.735 81.1937C128.701 81.0769 128.637 80.9711 128.549 80.8863C128.462 80.8016 128.354 80.7408 128.236 80.71C128.119 80.6792 127.995 80.6793 127.877 80.7104C127.76 80.7415 127.652 80.8025 127.565 80.8874C126.712 81.8464 125.638 82.5824 124.436 83.0314C123.164 83.3828 122.227 82.9004 121.232 82.1539C119.9 81.1539 118.246 80.3315 116.764 81.5367C116.66 81.6401 116.593 81.7752 116.574 81.9208C116.555 82.0664 116.585 82.2142 116.66 82.3407C120.684 87.5612 121.578 90.1723 123.212 92.9319C117.916 95.3729 112.096 98.8614 110.378 104.783C109.014 109.486 109.914 116.25 114.654 118.782C117.659 120.386 121.069 119.548 124.287 119.415C127.426 119.287 130.449 120.661 133.577 120.354C134.933 120.205 136.239 119.755 137.399 119.037C138.56 118.319 139.546 117.352 140.285 116.205C143.543 110.991 139.332 103.885 136.213 98.9786Z" fill="#191919"/>
<path d="M129.439 109.069C128.969 107.963 128.122 107.059 127.049 106.518C127.137 104.594 127.097 102.666 126.93 100.747C127.646 100.69 128.374 100.696 129.006 100.658C129.064 100.656 129.119 100.633 129.162 100.594C129.205 100.556 129.233 100.503 129.241 100.445C129.248 100.388 129.236 100.329 129.205 100.281C129.174 100.232 129.126 100.195 129.071 100.178C128.353 99.8578 127.589 99.6527 126.807 99.5698C126.726 98.9244 126.55 98.2945 126.284 97.7007C126.074 97.2566 125.504 97.5392 125.458 97.9266C125.4 98.5014 125.403 99.0807 125.467 99.6548C122.513 100.22 121.039 103.078 122.882 105.517C123.674 106.424 124.63 107.174 125.699 107.728C125.58 109.244 125.375 110.752 125.087 112.245C123.678 112.378 123.402 111.386 122.79 110.995C122.671 110.927 122.531 110.908 122.398 110.943C122.266 110.978 122.153 111.063 122.083 111.181C121.644 112.058 122.262 112.907 123.016 113.385C123.534 113.706 124.13 113.881 124.74 113.891C124.611 114.452 124.47 115.019 124.317 115.592C124.283 115.74 124.307 115.895 124.385 116.025C124.463 116.155 124.588 116.25 124.734 116.291C124.88 116.331 125.036 116.313 125.17 116.242C125.303 116.17 125.404 116.049 125.451 115.905C125.663 115.194 125.855 114.478 126.025 113.757C128.48 113.192 130.338 111.476 129.439 109.069ZM124.134 104.417C123.085 103.169 123.61 101.489 125.621 100.952C125.802 102.553 125.863 104.166 125.804 105.776C125.177 105.416 124.614 104.957 124.134 104.417H124.134ZM126.422 111.894C126.628 110.785 126.785 109.673 126.896 108.57C127.299 108.899 127.602 109.333 127.772 109.824C128.121 110.919 127.314 111.532 126.421 111.894H126.422Z" fill="#191919"/>
<path d="M89.5229 107.976C90.8192 106.115 91.8904 104.198 91.957 101.869C91.9984 100.414 91.5604 97.7244 89.8896 97.2665C89.8092 97.2464 89.7249 97.2475 89.645 97.2697C89.5651 97.2919 89.4922 97.3344 89.4336 97.393C89.375 97.4517 89.3326 97.5246 89.3106 97.6045C89.2885 97.6845 89.2875 97.7688 89.3077 97.8492C89.4356 98.6103 90.0137 99.2275 90.2441 99.9702C91.0298 102.518 90.0321 105.177 88.9516 107.642C88.9073 107.717 88.8948 107.808 88.917 107.893C88.9392 107.978 88.9942 108.05 89.0699 108.095C89.1457 108.139 89.236 108.151 89.3209 108.129C89.4058 108.107 89.4785 108.052 89.5229 107.976Z" fill="#191919"/>
<path d="M89.5816 117.489C92.3052 117.535 94.809 117.5 96.8558 115.44C98.4637 113.818 101.039 110.846 99.8252 108.407C99.7913 108.35 99.7431 108.303 99.6853 108.27C99.6275 108.237 99.5621 108.219 99.4955 108.219C99.429 108.219 99.3635 108.237 99.3057 108.27C99.2479 108.303 99.1997 108.35 99.1659 108.407C97.9408 110.197 99.0365 110.817 95.7845 114.372C94.2233 116.076 91.8335 116.715 89.5824 116.776C89.4907 116.78 89.4041 116.819 89.3407 116.886C89.2773 116.952 89.2418 117.04 89.2417 117.132C89.2416 117.224 89.2769 117.312 89.3402 117.378C89.4035 117.445 89.4899 117.484 89.5816 117.489Z" fill="#191919"/>
<path d="M81.7019 116.729C80.2662 115.264 78.3915 114.308 76.3627 114.006C76.2922 113.988 76.2174 113.998 76.1546 114.035C76.0917 114.072 76.0457 114.131 76.0265 114.201C76.0073 114.272 76.0163 114.347 76.0517 114.41C76.087 114.474 76.1459 114.521 76.2157 114.542C77.7554 115.01 79.1473 115.87 80.2555 117.037C79.8327 117.347 79.5279 117.791 79.3912 118.297C79.2546 118.803 79.2942 119.34 79.5036 119.82C79.5459 119.889 79.6071 119.944 79.6799 119.978C79.7526 120.013 79.8338 120.025 79.9136 120.015C79.9934 120.004 80.0684 119.971 80.1296 119.918C80.1908 119.866 80.2356 119.797 80.2586 119.72C80.4117 118.934 80.5924 118.149 81.4186 117.806C81.5259 117.774 81.6232 117.715 81.7012 117.635C81.7791 117.554 81.835 117.455 81.8635 117.347C81.8919 117.239 81.892 117.125 81.8637 117.017C81.8354 116.909 81.7797 116.81 81.7019 116.729Z" fill="#191919"/>
<path d="M86.4754 107.202C86.3974 107.125 86.303 107.067 86.1991 107.032C86.0953 106.997 85.9849 106.986 85.8762 107C85.7675 107.014 85.6635 107.052 85.5719 107.112C85.4803 107.173 85.4035 107.253 85.3475 107.347C84.2181 109.659 81.908 110.18 79.5627 110.301C78.042 110.378 76.0045 110.83 75.9149 112.587C74.46 112.9 73.908 114.424 73.9424 115.87C73.9424 115.954 73.976 116.035 74.0357 116.095C74.0955 116.155 74.1765 116.189 74.261 116.189C74.3454 116.189 74.4265 116.155 74.4862 116.095C74.5459 116.035 74.5795 115.954 74.5795 115.87C74.6752 114.781 75.1048 113.476 76.4241 113.512C76.5543 113.511 76.6788 113.459 76.7709 113.367C76.863 113.275 76.9152 113.15 76.9164 113.02C76.7533 110.673 81.1055 111.666 82.4677 111.335C83.4596 111.091 84.3785 110.613 85.1477 109.94C85.0217 111.046 84.7165 112.123 84.2442 113.13C84.2077 113.194 84.1957 113.27 84.2102 113.342C84.2248 113.414 84.2649 113.479 84.3233 113.524C84.3817 113.569 84.4544 113.592 84.5281 113.587C84.6018 113.583 84.6714 113.552 84.7242 113.501C85.2919 113.003 85.7431 112.387 86.046 111.696C86.3489 111.005 86.496 110.255 86.4769 109.501C87.7021 111.192 88.81 113.45 87.0673 114.989C86.2289 115.73 85.0359 115.832 84.3215 116.766C84.0533 117.122 83.8764 117.539 83.8062 117.979C83.736 118.42 83.7746 118.871 83.9187 119.293C84.2755 120.319 85.6867 121.084 84.2932 122.522C83.852 122.982 83.3097 123.332 82.7094 123.547C82.1091 123.761 81.4672 123.832 80.8345 123.755C79.6737 123.533 80.3368 123.151 79.5114 121.53C79.0396 120.61 78.2632 119.881 77.3146 119.47C76.9141 119.268 76.4172 119.808 76.8038 120.131C77.8428 121.104 78.5343 122.39 78.7725 123.793C79.1086 125.074 80.4662 125.019 81.5512 124.913C83.47 124.721 86.7334 123.083 86.0903 120.649C85.8455 120.095 85.5678 119.556 85.2587 119.035C85.1809 118.842 85.1431 118.635 85.1475 118.427C85.1519 118.219 85.1985 118.014 85.2843 117.824C85.3702 117.634 85.4936 117.464 85.6471 117.323C85.8007 117.183 85.9811 117.075 86.1775 117.006C87.346 116.397 88.3414 115.941 88.8828 114.659C90.0543 111.844 88.2089 109.267 86.4754 107.202Z" fill="#191919"/>
<path d="M81.0094 108.643C79.0109 103.334 72.393 100.578 67.0737 101.096C60.7559 101.708 55.4159 105.824 52.4488 111.32C49.6234 116.542 50.2926 119.109 48.8783 121.989C48.8066 122.122 48.7747 122.272 48.7866 122.422C48.7985 122.572 48.8537 122.715 48.9454 122.835C49.0372 122.954 49.1616 123.044 49.3035 123.094C49.4454 123.144 49.5988 123.152 49.7451 123.117C54.6793 122.321 58.9504 125.92 63.6219 126.781C67.7314 127.54 72.5438 126.84 75.9573 124.303C76.0357 124.258 76.1044 124.197 76.1593 124.124C76.2143 124.052 76.2544 123.97 76.2775 123.882C76.3005 123.794 76.3061 123.702 76.2938 123.612C76.2815 123.523 76.2516 123.436 76.2058 123.357C76.16 123.279 76.0992 123.21 76.0268 123.155C75.9545 123.1 75.8721 123.06 75.7842 123.037C75.6964 123.014 75.6049 123.009 75.5149 123.021C75.4249 123.033 75.3382 123.063 75.2598 123.109C63.468 129.499 58.5062 121.33 50.7283 121.511C51.5468 119.228 51.7849 116.733 52.6846 114.461C56.5131 104.793 65.8118 100.715 73.1832 103.27C76.2628 104.336 78.4083 106.366 80.3042 108.945C80.5354 109.269 81.1779 109.091 81.0094 108.643Z" fill="#191919"/>
<path d="M71.5526 114.434C71.8485 113.934 72.0265 113.374 72.0731 112.795C72.1197 112.216 72.0336 111.635 71.8213 111.094C71.793 111.004 71.7365 110.924 71.66 110.868C71.5834 110.812 71.491 110.782 71.396 110.782C71.301 110.782 71.2085 110.812 71.132 110.868C71.0555 110.924 70.999 111.004 70.9706 111.094C70.6491 112.004 70.7593 113.009 70.3397 113.814C68.8185 113.353 67.3601 112.705 65.9974 111.887C66.2088 111.533 66.3475 111.14 66.4056 110.732C66.4637 110.323 66.44 109.908 66.3359 109.509C65.5135 106.837 62.3397 106.819 60.4446 108.245C60.2978 108.195 60.1441 108.167 59.989 108.163C59.9531 108.163 59.9175 108.17 59.8843 108.183C59.8511 108.197 59.8208 108.216 59.7953 108.242C59.7697 108.267 59.7494 108.297 59.7355 108.33C59.7216 108.363 59.7143 108.398 59.7141 108.434C59.7304 108.569 59.7651 108.701 59.8175 108.826C59.4533 109.229 59.1979 109.717 59.0754 110.246C58.9529 110.775 58.9675 111.326 59.1176 111.848C59.1296 111.904 59.1626 111.955 59.2099 111.988C59.2573 112.021 59.3156 112.036 59.3731 112.028C59.4306 112.02 59.483 111.991 59.5198 111.946C59.5566 111.901 59.5752 111.844 59.5717 111.786C59.5801 111.402 59.6645 111.023 59.8201 110.672C59.9757 110.321 60.1994 110.004 60.4783 109.739C61.5954 110.7 62.769 111.592 63.9928 112.413C62.2103 115.322 65.3022 118.108 69.5602 116.249C69.9064 116.097 70.23 115.897 70.5219 115.657C70.9141 115.755 71.3272 115.726 71.7019 115.574C71.8236 115.502 71.912 115.384 71.9481 115.247C71.9841 115.109 71.965 114.963 71.8948 114.84C71.8057 114.685 71.6898 114.548 71.5526 114.434ZM61.6222 108.95C63.5472 108.112 65.685 109.218 64.7516 111.162C63.6412 110.526 62.5938 109.785 61.6237 108.95H61.6222ZM65.9201 115.228C64.7715 114.778 64.8872 113.986 65.2631 113.202C66.4182 113.869 67.612 114.467 68.8382 114.992C67.9227 115.406 66.8919 115.49 65.9216 115.229L65.9201 115.228Z" fill="#191919"/>
<path d="M71.1048 96.1493C70.5895 96.6821 70.1038 97.2426 69.6499 97.8285C69.1395 98.3038 68.722 98.8698 68.4187 99.4977C68.3954 99.5856 68.3956 99.678 68.4193 99.7658C68.4429 99.8535 68.4892 99.9335 68.5534 99.9978C68.6177 100.062 68.6977 100.108 68.7854 100.132C68.8732 100.156 68.9656 100.156 69.0534 100.133C69.7177 99.78 70.271 99.2498 70.6515 98.6011C71.1386 97.9819 71.519 97.2858 71.777 96.5414C71.7985 96.4562 71.7916 96.3664 71.7576 96.2855C71.7235 96.2045 71.6641 96.1369 71.5883 96.0926C71.5124 96.0484 71.4242 96.03 71.337 96.0402C71.2498 96.0505 71.1683 96.0888 71.1048 96.1493Z" fill="#191919"/>
<path d="M48.8718 83.0926C48.1933 82.8973 47.4827 82.8393 46.7815 82.9219C48.0831 80.6845 46.6574 78.4762 44.8213 76.8292C45.5077 76.5008 46.1366 76.0636 46.6834 75.5344C47.2355 75.9439 47.8901 76.1927 48.5747 76.2534C48.9675 76.3101 49.3159 75.7419 48.8741 75.5405C48.185 75.1859 47.5668 74.7079 47.0502 74.1301C46.9799 74.0625 46.8953 74.0116 46.8027 73.9811C46.7102 73.9505 46.6119 73.9412 46.5152 73.9537C46.4185 73.9661 46.3258 74.0002 46.244 74.0532C46.1622 74.1063 46.0934 74.1771 46.0425 74.2603C43.6827 77.3996 43.4606 73.3307 40.0923 73.1531C38.0081 73.0428 36.3404 74.3292 35.1765 75.9295C35.5594 74.137 36.5984 72.1079 38.25 71.2924C39.3261 70.7759 40.5627 70.7057 41.6903 71.0972C42.8121 71.4961 43.4859 72.7051 44.6421 72.9287C45.0916 73.0168 45.5678 72.5459 45.2791 72.101C44.443 70.8558 43.1745 69.9652 41.7193 69.6018C40.2641 69.2384 38.7258 69.428 37.4024 70.1339C36.1324 70.951 35.174 72.1713 34.6811 73.5987C34.178 74.8407 32.8488 77.9264 34.4958 79.4142C34.8664 79.7503 35.4322 79.7075 35.9062 79.8032C40.3702 80.686 42.5295 83.7741 43.1804 84.2879C36.4989 88.4487 33.3266 97.1225 36.1267 105.22C36.7454 107.009 37.8511 108.605 38.3779 110.419C38.956 112.404 38.7829 114.504 38.6627 116.54C38.6634 116.722 38.7237 116.898 38.8344 117.042C38.945 117.186 39.0999 117.29 39.2753 117.338C41.8488 117.741 44.5433 118.077 47.1046 117.491C47.528 117.395 47.5686 116.66 47.1046 116.594C44.8634 116.276 42.6099 116.227 40.3748 115.855C40.6911 111.357 40.1666 109.949 38.6076 106.835C37.0404 103.785 36.3975 100.344 36.7577 96.9334C37.6145 89.4296 44.1497 83.7366 48.7861 83.7488C48.8649 83.7451 48.9398 83.7138 48.9979 83.6604C49.0559 83.607 49.0933 83.5348 49.1036 83.4566C49.1138 83.3784 49.0962 83.2991 49.0538 83.2325C49.0114 83.166 48.947 83.1165 48.8718 83.0926ZM37.08 78.49C36.8924 78.4372 35.9767 78.3369 35.6252 78.2113C35.8679 78.1171 36.8756 75.1806 39.3771 74.7473C41.1926 74.4287 41.9897 75.931 43.3389 76.5849C45.3886 78.5758 45.9361 80.0383 46.1007 82.8017C46.1042 82.8794 46.1336 82.9538 46.1842 83.013C45.4462 83.1725 44.7329 83.43 44.0632 83.7787C43.7102 82.5069 41.0081 79.6148 37.0839 78.49H37.08Z" fill="#191919"/>
<path d="M56.5009 98.8056C55.7595 99.208 55.0549 99.6749 54.3952 100.201C53.423 98.9423 52.5322 97.6232 51.7283 96.2512C52.2715 95.7008 52.6942 95.0435 52.9695 94.3209C53.8723 91.6853 51.5353 88.768 48.6816 89.5781C48.5284 89.0988 48.4052 88.631 48.3071 88.1815C48.2959 88.1415 48.2744 88.1052 48.2449 88.0761C48.2153 88.0469 48.1787 88.026 48.1386 88.0153C48.0985 88.0047 48.0563 88.0046 48.0161 88.0153C47.976 88.0259 47.9394 88.0467 47.9097 88.0758C47.7031 88.3607 47.5705 88.6925 47.524 89.0414C47.4775 89.3903 47.5185 89.7452 47.6433 90.0743C47.2817 90.3281 46.9761 90.6536 46.7454 91.0304C46.5148 91.4072 46.3641 91.8275 46.3025 92.265C46.2913 92.3061 46.2882 92.349 46.2936 92.3913C46.2989 92.4336 46.3125 92.4745 46.3336 92.5115C46.3547 92.5486 46.383 92.5811 46.4166 92.6072C46.4503 92.6334 46.4888 92.6526 46.53 92.6639C46.5711 92.6752 46.614 92.6782 46.6563 92.6729C46.6986 92.6675 46.7395 92.6539 46.7765 92.6328C46.8136 92.6117 46.8461 92.5835 46.8722 92.5498C46.8984 92.5161 46.9176 92.4776 46.9289 92.4365C47.1356 91.9266 47.4889 91.4896 47.9442 91.1807C48.3746 92.8504 48.9862 94.4679 49.7681 96.0046C49.0455 96.6076 48.515 97.4087 48.2421 98.3094C47.6479 100.822 50.2191 103.654 54.1234 102.315C54.3239 102.506 54.5381 102.681 54.7643 102.841C55.6165 103.43 56.422 102.159 55.7727 101.487C56.4586 101.037 57.008 100.407 57.3615 99.667C57.4278 99.5467 57.4531 99.4082 57.4339 99.2722C57.4146 99.1363 57.3517 99.0103 57.2546 98.9132C57.1576 98.816 57.0316 98.753 56.8957 98.7336C56.7598 98.7142 56.6212 98.7395 56.5009 98.8056ZM51.5078 93.8385C51.3583 94.1851 51.1606 94.5089 50.9205 94.8002C50.2174 93.4851 49.6004 92.1256 49.0736 90.7305C49.4698 90.6742 49.8738 90.7232 50.245 90.8726C50.6162 91.022 50.9416 91.2665 51.1883 91.5815C51.435 91.8965 51.5944 92.271 51.6505 92.6672C51.7066 93.0634 51.6574 93.4673 51.5078 93.8385ZM49.8569 99.1777C49.8509 98.8635 49.9103 98.5515 50.0313 98.2615C50.1523 97.9715 50.3323 97.7099 50.5598 97.4932C51.2278 98.6786 51.985 99.8115 52.8248 100.882C51.6234 101.095 49.9948 100.605 49.8569 99.1777Z" fill="#191919"/>
<path d="M43.1192 119.495C38.5579 120.518 33.4216 120.855 28.8887 119.522C24.7884 118.315 23.1911 115.754 23.2011 113.391C23.2011 112.462 23.7692 111.648 23.757 110.76C23.7439 109.816 21.9537 109.951 21.6658 112.828C21.3886 115.614 23.0165 118.82 26.9606 120.44C32.0311 122.523 38.2769 122.102 43.3267 120.26C43.4192 120.225 43.4954 120.156 43.5404 120.068C43.5853 119.98 43.5959 119.879 43.57 119.783C43.5441 119.688 43.4836 119.605 43.4003 119.552C43.3169 119.499 43.2167 119.478 43.1192 119.495Z" fill="#191919"/>
<path d="M36.7784 87.559C35.9047 87.4189 34.9851 87.5935 34.1605 87.1907C33.9474 87.0997 33.7551 86.9661 33.5955 86.7981C33.436 86.63 33.3124 86.4312 33.2324 86.2137C33.1245 85.8921 33.1957 85.5575 33.0027 85.2566C32.4039 84.3324 30.8289 84.6295 30.0165 85.0223C27.1443 86.4044 26.4499 91.0483 22.5601 90.229C22.3781 90.187 22.187 90.217 22.0266 90.3127C21.8663 90.4084 21.7491 90.5624 21.6997 90.7425C21.6502 90.9226 21.6723 91.1148 21.7613 91.279C21.8503 91.4431 21.9994 91.5665 22.1773 91.6234C25.4062 92.9641 26.5042 95.8431 28.26 97.5468C23.0333 102.967 21.4866 111.821 27.4391 116.207C27.7554 116.437 28.1283 115.934 27.8549 115.671C24.5754 112.513 24.626 107.385 26.3894 103.496C27.5643 100.731 29.5439 98.3834 32.0709 96.7582C32.9411 96.3686 33.7708 95.8941 34.5479 95.3416C34.6172 95.2708 34.667 95.1832 34.6924 95.0874C34.7177 94.9916 34.7178 94.8909 34.6926 94.7951C34.6673 94.6992 34.6177 94.6116 34.5484 94.5407C34.4792 94.4698 34.3927 94.4181 34.2975 94.3906C32.3289 94.02 30.2347 95.6448 28.832 96.9756C28.0347 94.8342 26.6496 92.961 24.8358 91.5713C27.5211 90.8194 27.9652 88.4733 29.469 86.9281C29.8419 86.5452 31.0709 85.5828 31.737 85.8224C31.6914 86.6574 31.7856 87.494 32.0157 88.2979C32.1813 89.4933 32.6968 90.6131 33.4974 91.5162C33.5653 91.5805 33.6522 91.6211 33.7451 91.6319C33.838 91.6427 33.9319 91.6232 34.0128 91.5762C34.0937 91.5293 34.1573 91.4574 34.1939 91.3714C34.2306 91.2853 34.2385 91.1897 34.2164 91.0989C33.9629 90.0633 33.646 89.0443 33.2677 88.0475C34.3213 88.6808 35.5796 88.8806 36.7776 88.605C37.2815 88.497 37.3136 87.6417 36.7784 87.559Z" fill="#191919"/>
<path d="M38.2277 55.4272C36.7009 50.9486 30.5829 53.4931 31.893 57.6516C32.1892 58.4948 32.7986 59.1918 33.5948 59.5978C34.391 60.0038 35.313 60.0878 36.1695 59.8323C37.0033 59.491 37.6781 58.8483 38.0595 58.032C38.4408 57.2157 38.5009 56.2858 38.2277 55.4272ZM37.2828 57.1615C37.1817 57.2551 37.0491 57.307 36.9114 57.307C36.7737 57.307 36.6411 57.2551 36.5401 57.1615C36.1656 56.8415 36.2468 56.1738 36.027 55.7404C35.8063 55.2607 35.4314 54.8688 34.962 54.6271C34.9077 54.5931 34.8659 54.5425 34.8428 54.4829C34.8197 54.4232 34.8166 54.3577 34.8338 54.2961C34.851 54.2344 34.8877 54.1801 34.9385 54.141C34.9892 54.102 35.0511 54.0805 35.1151 54.0796C35.4725 54.1009 35.8216 54.1956 36.1407 54.3579C36.4598 54.5202 36.742 54.7466 36.9696 55.0229C37.354 55.5183 37.9137 56.6546 37.2828 57.1615Z" fill="#38A1FF"/>
<path d="M122.923 41.9654C120.606 35.179 111.327 39.0343 113.315 45.3406C113.764 46.6193 114.688 47.676 115.896 48.2912C117.104 48.9064 118.502 49.033 119.8 48.6446C121.065 48.1273 122.088 47.1529 122.667 45.9152C123.245 44.6776 123.337 43.2674 122.923 41.9654ZM120.502 43.895C120.42 43.9429 120.327 43.9713 120.232 43.978C120.136 43.9847 120.041 43.9695 119.952 43.9336C119.863 43.8977 119.784 43.8421 119.72 43.7709C119.656 43.6997 119.61 43.6148 119.583 43.5228C119.354 42.7625 120.196 41.6499 118.059 40.5749C117.753 40.4218 117.578 40.4355 117.44 40.1009C117.432 40.0269 117.438 39.9519 117.46 39.8806C117.481 39.8092 117.517 39.7431 117.566 39.6864C117.614 39.6296 117.674 39.5834 117.74 39.5506C117.807 39.5179 117.88 39.4993 117.955 39.496C120.89 39.2181 121.978 42.8483 120.502 43.895Z" fill="#38A1FF"/>
<path d="M109.903 20.6222C108.356 16.0954 102.17 18.6659 103.495 22.8719C103.796 23.724 104.413 24.428 105.218 24.8383C106.023 25.2486 106.955 25.3338 107.821 25.0763C108.664 24.731 109.346 24.0811 109.732 23.2559C110.118 22.4307 110.179 21.4906 109.903 20.6222ZM109.256 21.1674C109.264 21.6524 109.084 22.1218 108.753 22.4768C108.691 22.5359 108.614 22.5781 108.531 22.5994C108.447 22.6207 108.36 22.6203 108.277 22.5983C108.194 22.5763 108.117 22.5334 108.055 22.4736C107.993 22.4139 107.948 22.3394 107.923 22.257C107.805 21.8826 107.9 19.9117 106.172 19.8673C106.067 19.8638 105.967 19.8234 105.889 19.7532C105.811 19.683 105.761 19.5875 105.747 19.4836C105.733 19.3797 105.756 19.2741 105.812 19.1856C105.868 19.097 105.954 19.0312 106.054 18.9997C106.516 18.8618 107.008 18.8593 107.472 18.9924C107.936 19.1255 108.352 19.3887 108.671 19.7509C109.02 20.144 109.226 20.643 109.256 21.1674Z" fill="#38A1FF"/>
<path d="M116.729 23.7119C116.033 21.6706 113.244 22.8291 113.842 24.7265C113.977 25.111 114.254 25.429 114.617 25.6143C114.98 25.7997 115.4 25.8382 115.79 25.7219C116.171 25.5661 116.478 25.2728 116.652 24.9004C116.826 24.5279 116.854 24.1036 116.729 23.7119ZM115.603 24.0649C115.318 23.3199 115.205 23.5243 115.166 23.254C115.154 23.1937 115.157 23.1312 115.176 23.0725C115.195 23.0139 115.229 22.9611 115.274 22.9191C115.319 22.8772 115.374 22.8476 115.434 22.8332C115.494 22.8188 115.556 22.82 115.616 22.8367C115.84 22.8926 116.038 23.0255 116.174 23.2124C116.311 23.3992 116.377 23.6281 116.362 23.8589C116.362 23.9487 116.332 24.036 116.278 24.1072C116.223 24.1785 116.147 24.2298 116.06 24.2532C115.973 24.2767 115.881 24.2709 115.798 24.2369C115.715 24.2029 115.646 24.1424 115.6 24.0649H115.603Z" fill="#38A1FF"/>
</svg>
