<svg width="154" height="154" viewBox="0 0 154 154" fill="none" xmlns="http://www.w3.org/2000/svg">
<path d="M40.5227 121.76C40.6952 121.705 40.9145 121.651 41.0518 121.76C41.0992 121.818 41.1334 121.886 41.1522 121.958C41.171 122.031 41.1739 122.107 41.1607 122.18C41.1323 123.142 41.0532 124.101 40.9237 125.053C40.8794 125.729 40.6929 126.388 40.3763 126.987C39.7828 127.793 38.9592 128.4 38.0139 128.729C35.5192 129.793 32.8881 130.504 30.1969 130.841C27.9569 131.168 25.6713 130.962 23.5262 130.238C18.7317 128.56 17.7993 122.801 20.2246 122.293C21.574 122.011 23.1888 122.821 24.411 123.014C29.8056 123.864 35.3246 123.435 40.5227 121.76Z" fill="#FFE55D"/>
<path d="M17.7824 127.051C16.1561 131.66 15.8878 135.549 15.4277 137.541C15.2652 138.253 14.8143 139.028 15.3096 139.712C15.714 140.191 16.2601 140.53 16.8692 140.679C18.9862 141.388 21.2241 141.665 23.4501 141.492C25.6761 141.32 27.8448 140.702 29.8273 139.675C32.3207 138.367 34.68 136.246 37.4894 136.455C38.6092 136.692 39.7422 136.863 40.8823 136.966C43.5659 136.829 43.0238 134.227 42.78 132.35C42.4191 129.672 41.8291 127.029 41.0164 124.452C38.287 126.662 34.9562 128 31.4566 128.292C27.6397 128.626 28.2309 127.498 18.4403 126.641C18.3648 126.615 18.2842 126.605 18.2045 126.613C18.1249 126.622 18.0481 126.648 17.9798 126.69C17.9116 126.732 17.8536 126.789 17.8102 126.856C17.7667 126.923 17.7389 127 17.7287 127.079L17.7824 127.051Z" fill="white"/>
<path d="M23.3744 12.5015H148.414C148.414 12.5015 149.992 12.5015 149.992 14.0794V100.243C149.992 100.243 149.992 101.821 148.414 101.821H23.3744C23.3744 101.821 21.7964 101.821 21.7964 100.243V14.0794C21.7964 14.0794 21.7964 12.5015 23.3744 12.5015Z" fill="white"/>
<path d="M150.376 100.243C150.375 100.763 150.168 101.261 149.8 101.629C149.433 101.997 148.934 102.203 148.414 102.204H23.3744C22.8545 102.203 22.3561 101.997 21.9884 101.629C21.6208 101.261 21.4139 100.763 21.4131 100.243V14.0795C21.4137 13.5595 21.6205 13.061 21.9882 12.6933C22.3559 12.3256 22.8544 12.1188 23.3744 12.1182H148.414C148.934 12.1188 149.433 12.3256 149.801 12.6933C150.168 13.061 150.375 13.5595 150.376 14.0795V100.243ZM23.3744 12.8849C23.0577 12.8851 22.7539 13.011 22.5299 13.235C22.306 13.459 22.18 13.7627 22.1798 14.0795V100.243C22.1802 100.56 22.3062 100.863 22.5302 101.087C22.7541 101.311 23.0577 101.437 23.3744 101.438H148.414C148.731 101.437 149.035 101.311 149.259 101.087C149.483 100.863 149.608 100.56 149.609 100.243V14.0795C149.609 13.7627 149.483 13.459 149.259 13.235C149.035 13.011 148.731 12.8851 148.414 12.8849H23.3744Z" fill="#4B1010"/>
<path d="M67.6865 53.3026H71.189V85.174H67.6865V53.3026Z" fill="#FFB43B"/>
<path d="M89.0498 32.1126H92.5523V85.1824H89.0498V32.1126Z" fill="#FFB43B"/>
<path d="M78.0215 42.9767H81.524V85.1824H78.0215V42.9767Z" fill="#FFB43B"/>
<path d="M46.6704 62.5886H50.1729V85.1832H46.6704V62.5886Z" fill="#FFB43B"/>
<path d="M57.0063 47.1723H60.5089V85.1731H57.0063V47.1723Z" fill="#FFB43B"/>
<path d="M67.1613 79.1618C67.0639 79.1327 66.9821 79.0661 66.9338 78.9767C66.8855 78.8872 66.8746 78.7823 66.9037 78.6849L77.6075 42.801C77.6366 42.7036 77.7032 42.6218 77.7926 42.5735C77.8821 42.5252 77.987 42.5143 78.0844 42.5434L78.5912 42.6968C78.6395 42.7111 78.6845 42.7348 78.7237 42.7665C78.7628 42.7982 78.7953 42.8374 78.8193 42.8817C78.8433 42.926 78.8583 42.9745 78.8635 43.0246C78.8687 43.0747 78.864 43.1254 78.8496 43.1737C67.376 81.6238 68.1803 79.1618 67.9603 79.2799C67.7816 79.3765 67.6781 79.3152 67.1613 79.1618Z" fill="#4B1010"/>
<path d="M108.323 43.6698C108.323 45.9681 109.236 48.1723 110.861 49.7975C112.487 51.4226 114.691 52.3356 116.989 52.3356C119.287 52.3356 121.492 51.4226 123.117 49.7975C124.742 48.1723 125.655 45.9681 125.655 43.6698C125.655 41.3715 124.742 39.1673 123.117 37.5422C121.492 35.917 119.287 35.004 116.989 35.004C114.691 35.004 112.487 35.917 110.861 37.5422C109.236 39.1673 108.323 41.3715 108.323 43.6698Z" fill="#FFB43B"/>
<path d="M117.136 43.9343C118.849 43.9343 122.043 41.6341 125.007 40.4679C124.406 38.9347 123.379 37.6052 122.048 36.6356C120.717 35.6661 119.137 35.0968 117.493 34.9948C117.405 36.7422 116.388 41.0621 117.136 43.9343Z" fill="#FFB43B"/>
<path d="M108.323 73.7984C108.323 76.0967 109.236 78.3009 110.861 79.9261C112.487 81.5512 114.691 82.4642 116.989 82.4642C119.287 82.4642 121.492 81.5512 123.117 79.9261C124.742 78.3009 125.655 76.0967 125.655 73.7984C125.655 71.5001 124.742 69.2959 123.117 67.6708C121.492 66.0456 119.287 65.1326 116.989 65.1326C114.691 65.1326 112.487 66.0456 110.861 67.6708C109.236 69.2959 108.323 71.5001 108.323 73.7984Z" fill="white"/>
<path d="M116.99 34.6215C115.2 34.6215 113.451 35.1522 111.963 36.1463C110.475 37.1405 109.315 38.5535 108.631 40.2068C107.946 41.86 107.767 43.6792 108.116 45.4343C108.465 47.1893 109.327 48.8015 110.592 50.0668C111.857 51.3321 113.469 52.1938 115.224 52.5429C116.979 52.8921 118.799 52.7129 120.452 52.0281C122.105 51.3433 123.518 50.1836 124.512 48.6958C125.507 47.2079 126.037 45.4586 126.037 43.6692C126.034 41.2705 125.08 38.971 123.384 37.2749C121.688 35.5788 119.388 34.6246 116.99 34.6215ZM124.573 40.3407L117.629 43.2781V35.412C119.124 35.53 120.558 36.0505 121.781 36.9183C123.003 37.7861 123.968 38.9687 124.573 40.3407ZM116.99 51.9524C114.793 51.9692 112.68 51.113 111.115 49.5719C109.551 48.0309 108.662 45.9313 108.645 43.7351C108.628 41.5389 109.484 39.4259 111.025 37.861C112.566 36.2961 114.666 35.4075 116.862 35.3906C116.862 44.3684 116.792 43.9728 116.997 44.1453C117.052 44.1924 117.118 44.223 117.189 44.2335C117.261 44.244 117.333 44.2339 117.399 44.2044L124.849 41.0568C125.261 42.3017 125.372 43.6264 125.172 44.9222C124.972 46.2181 124.468 47.4481 123.701 48.5114C122.934 49.5747 121.926 50.441 120.759 51.0391C119.593 51.6373 118.301 51.9503 116.99 51.9524Z" fill="#4B1010"/>
<path d="M116.99 64.7469C115.2 64.7469 113.451 65.2776 111.963 66.2717C110.475 67.2659 109.315 68.679 108.631 70.3322C107.946 71.9854 107.767 73.8046 108.116 75.5597C108.465 77.3148 109.327 78.9269 110.592 80.1922C111.857 81.4576 113.469 82.3193 115.224 82.6684C116.979 83.0175 118.799 82.8383 120.452 82.1535C122.105 81.4687 123.518 80.3091 124.512 78.8212C125.507 77.3333 126.037 75.584 126.037 73.7946C126.034 71.3959 125.08 69.0964 123.384 67.4003C121.688 65.7042 119.388 64.75 116.99 64.7469ZM111.994 80.3971C112.898 79.5179 113.757 78.5938 114.568 77.6283C117.696 74.3996 117.545 74.5889 117.598 74.4601C117.676 73.7678 117.685 73.0694 117.624 72.3753C117.666 71.8171 117.641 70.1165 117.624 69.5169V65.5405C118.907 65.6397 120.149 66.0363 121.252 66.6991C122.355 67.3619 123.288 68.2725 123.978 69.3588C124.667 70.445 125.094 71.6771 125.225 72.9571C125.355 74.2371 125.186 75.5299 124.729 76.733C124.273 77.936 123.543 79.0162 122.597 79.8879C121.65 80.7595 120.514 81.3987 119.277 81.7546C118.041 82.1105 116.738 82.1734 115.473 81.9383C114.208 81.7032 113.016 81.1765 111.99 80.4001L111.994 80.3971Z" fill="#4B1010"/>
<path d="M133.537 69.4203H136.693V72.5762H133.537V69.4203Z" fill="white"/>
<path d="M136.693 72.9596H133.537C133.435 72.9596 133.337 72.9192 133.266 72.8473C133.194 72.7754 133.153 72.6779 133.153 72.5762V69.4241C133.153 69.3224 133.194 69.2249 133.266 69.153C133.337 69.0811 133.435 69.0407 133.537 69.0407H136.693C136.794 69.0407 136.892 69.0811 136.964 69.153C137.036 69.2249 137.076 69.3224 137.076 69.4241V72.58C137.075 72.681 137.034 72.7776 136.962 72.8486C136.891 72.9197 136.794 72.9596 136.693 72.9596ZM133.92 72.1928H136.309V69.8075H133.92V72.1928Z" fill="#4B1010"/>
<path d="M133.537 74.6381H136.693C136.693 74.6381 137.076 74.6381 137.076 75.0214V78.1774C137.076 78.1774 137.076 78.5607 136.693 78.5607H133.537C133.537 78.5607 133.153 78.5607 133.153 78.1774V75.0214C133.153 75.0214 133.153 74.6381 133.537 74.6381Z" fill="#4B1010"/>
<path d="M133.537 37.7229H136.693V40.8788H133.537V37.7229Z" fill="#FFB43B"/>
<path d="M136.693 41.2623H133.537C133.435 41.2623 133.337 41.2219 133.266 41.15C133.194 41.0781 133.153 40.9806 133.153 40.8789V37.723C133.153 37.6213 133.194 37.5238 133.266 37.4519C133.337 37.38 133.435 37.3396 133.537 37.3396H136.693C136.794 37.3396 136.892 37.38 136.964 37.4519C137.036 37.5238 137.076 37.6213 137.076 37.723V40.8789C137.076 40.9806 137.036 41.0781 136.964 41.15C136.892 41.2219 136.794 41.2623 136.693 41.2623ZM133.92 40.4955H136.309V38.1063H133.92V40.4955Z" fill="#4B1010"/>
<path d="M133.537 43.3234H136.693V46.4793H133.537V43.3234Z" fill="#FFB43B"/>
<path d="M136.693 46.8626H133.537C133.435 46.8626 133.337 46.8222 133.266 46.7503C133.194 46.6784 133.153 46.5809 133.153 46.4792V43.3233C133.153 43.2216 133.194 43.1241 133.266 43.0522C133.337 42.9803 133.435 42.9399 133.537 42.9399H136.693C136.794 42.9399 136.892 42.9803 136.964 43.0522C137.036 43.1241 137.076 43.2216 137.076 43.3233V46.4792C137.076 46.5809 137.036 46.6784 136.964 46.7503C136.892 46.8222 136.794 46.8626 136.693 46.8626ZM133.92 46.0958H136.309V43.7066H133.92V46.0958Z" fill="#4B1010"/>
<path d="M98.4064 85.0276C97.8417 84.6169 97.2289 84.277 96.5815 84.0154C96.488 83.9807 96.3845 83.9839 96.2932 84.0242C96.2019 84.0645 96.13 84.1389 96.0926 84.2314C96.0553 84.324 96.0555 84.4275 96.0933 84.5199C96.131 84.6123 96.2033 84.6863 96.2948 84.7262C96.4803 84.8014 96.6625 84.8837 96.8415 84.9731H92.9364V32.1127C92.9364 32.011 92.896 31.9135 92.8241 31.8416C92.7522 31.7697 92.6547 31.7293 92.553 31.7293H89.0498C88.9481 31.7293 88.8506 31.7697 88.7787 31.8416C88.7068 31.9135 88.6664 32.011 88.6664 32.1127V84.9731H81.9083V42.9767C81.9083 42.8751 81.8679 42.7776 81.796 42.7057C81.7241 42.6338 81.6266 42.5934 81.5249 42.5934H78.0216C77.9199 42.5934 77.8224 42.6338 77.7505 42.7057C77.6786 42.7776 77.6382 42.8751 77.6382 42.9767V84.9731H71.5732V53.3026C71.5732 53.2009 71.5329 53.1034 71.461 53.0315C71.3891 52.9596 71.2915 52.9192 71.1899 52.9192H67.6866C67.5849 52.9192 67.4874 52.9596 67.4155 53.0315C67.3436 53.1034 67.3032 53.2009 67.3032 53.3026V84.9731H60.8955V47.1724C60.8955 47.0707 60.8551 46.9732 60.7832 46.9013C60.7113 46.8294 60.6138 46.789 60.5121 46.789H57.0058C56.9041 46.789 56.8066 46.8294 56.7347 46.9013C56.6628 46.9732 56.6224 47.0707 56.6224 47.1724V84.9731H50.5567V62.5886C50.5567 62.487 50.5163 62.3895 50.4444 62.3176C50.3725 62.2457 50.275 62.2053 50.1733 62.2053H46.6708C46.5691 62.2053 46.4716 62.2457 46.3997 62.3176C46.3278 62.3895 46.2874 62.487 46.2874 62.5886V84.9731H39.6934V34.1975C39.7609 34.2313 39.8368 34.2444 39.9118 34.2352C39.9867 34.226 40.0573 34.1949 40.1146 34.1458C40.1719 34.0967 40.2134 34.0317 40.234 33.959C40.2545 33.8864 40.2532 33.8093 40.2301 33.7374L39.6013 31.8497C39.5785 31.7804 39.5364 31.719 39.4799 31.6728C39.4234 31.6266 39.3549 31.5974 39.2824 31.5888C39.21 31.5802 39.1365 31.5925 39.0708 31.6241C39.005 31.6558 38.9497 31.7056 38.9113 31.7676C38.5209 32.3935 38.2844 33.1029 38.2212 33.8379C38.2144 33.9225 38.2359 34.0069 38.2822 34.078C38.3286 34.1491 38.3972 34.2027 38.4774 34.2306C38.5575 34.2585 38.6446 34.259 38.7251 34.2321C38.8056 34.2051 38.8748 34.1522 38.922 34.0817V84.9785H36.8648C36.7631 84.9785 36.6656 85.0189 36.5937 85.0908C36.5218 85.1627 36.4814 85.2602 36.4814 85.3619C36.4814 85.4635 36.5218 85.5611 36.5937 85.6329C36.6656 85.7048 36.7631 85.7452 36.8648 85.7452H38.9258V87.9795C38.9258 88.0812 38.9662 88.1787 39.0381 88.2506C39.11 88.3225 39.2075 88.3629 39.3092 88.3629C39.4109 88.3629 39.5084 88.3225 39.5803 88.2506C39.6522 88.1787 39.6926 88.0812 39.6926 87.9795V85.7368H97.1267C96.8689 85.9319 96.5996 86.1111 96.3201 86.2735C96.2327 86.3247 96.1692 86.4084 96.1433 86.5063C96.1174 86.6041 96.1313 86.7083 96.1819 86.7959C96.2326 86.8836 96.3158 86.9477 96.4135 86.9742C96.5112 87.0008 96.6154 86.9876 96.7034 86.9375C97.3394 86.5713 97.9263 86.1258 98.4501 85.6118C98.4899 85.5728 98.5207 85.5255 98.5404 85.4733C98.5601 85.421 98.5681 85.3652 98.5639 85.3095C98.5598 85.2539 98.5435 85.1998 98.5163 85.1511C98.4891 85.1024 98.4516 85.0603 98.4064 85.0276ZM89.4354 32.4961H92.172V84.7998H89.4354V32.4961ZM78.405 43.3601H81.1415V84.7998H78.405V43.3601ZM68.07 53.6859H70.8065V84.7899H68.07V53.6859ZM57.3892 47.5558H60.1288V84.7899H57.3892V47.5558ZM49.7899 84.7998H47.0541V62.972H49.7899V84.7998Z" fill="#4B1010"/>
<path d="M120.165 27.4486C120.015 27.2598 119.827 27.1036 119.615 26.9896C119.402 26.8756 119.168 26.8061 118.928 26.7853C118.747 26.7915 118.567 26.761 118.399 26.6956C118.342 26.6177 118.303 26.5279 118.285 26.4328C118.267 26.3378 118.271 26.2399 118.296 26.1465C118.321 26.053 118.366 25.9664 118.43 25.893C118.493 25.8197 118.571 25.7614 118.66 25.7226C118.819 25.6628 118.996 25.665 119.154 25.7288C119.312 25.7925 119.44 25.9132 119.513 26.0669C119.534 26.1148 119.563 26.1581 119.601 26.1942C119.638 26.2302 119.682 26.2583 119.731 26.2767C119.78 26.2951 119.831 26.3035 119.883 26.3012C119.935 26.299 119.986 26.2862 120.033 26.2637C120.08 26.2412 120.122 26.2093 120.156 26.1702C120.19 26.131 120.216 26.0853 120.232 26.0359C120.248 25.9864 120.253 25.9342 120.248 25.8825C120.244 25.8307 120.228 25.7805 120.203 25.7349C120.112 25.5424 119.979 25.3727 119.813 25.2382C119.648 25.1037 119.454 25.0078 119.247 24.9574V24.1953C119.247 24.0936 119.207 23.9961 119.135 23.9242C119.063 23.8523 118.966 23.8119 118.864 23.8119C118.762 23.8119 118.665 23.8523 118.593 23.9242C118.521 23.9961 118.481 24.0936 118.481 24.1953V24.9766C118.119 25.1019 117.821 25.3644 117.652 25.7075C117.482 26.0505 117.454 26.4465 117.574 26.8099C117.662 27.0536 117.834 27.2579 118.059 27.3857C118.322 27.4976 118.606 27.5535 118.892 27.5498C119.073 27.5709 119.244 27.6406 119.388 27.7515C119.532 27.8625 119.643 28.0104 119.71 28.1796C119.776 28.3487 119.795 28.5327 119.765 28.712C119.735 28.8912 119.657 29.0588 119.539 29.1971C119.421 29.3353 119.267 29.4388 119.095 29.4967C118.923 29.5545 118.738 29.5645 118.561 29.5255C118.383 29.4865 118.22 29.4 118.087 29.2752C117.955 29.1505 117.86 28.9922 117.81 28.8172C117.798 28.768 117.775 28.7218 117.744 28.6814C117.713 28.641 117.675 28.6072 117.63 28.5818C117.586 28.5565 117.538 28.5402 117.487 28.5339C117.437 28.5276 117.385 28.5314 117.336 28.545C117.287 28.5587 117.242 28.582 117.202 28.6136C117.162 28.6452 117.129 28.6843 117.104 28.7289C117.079 28.7734 117.064 28.8224 117.058 28.873C117.053 28.9235 117.058 28.9747 117.072 29.0235C117.162 29.3469 117.342 29.6379 117.592 29.8624C117.841 30.0869 118.149 30.2356 118.481 30.2909V31.2877C118.481 31.3894 118.521 31.4869 118.593 31.5588C118.665 31.6307 118.762 31.6711 118.864 31.6711C118.966 31.6711 119.063 31.6307 119.135 31.5588C119.207 31.4869 119.247 31.3894 119.247 31.2877V30.2526C119.529 30.1746 119.787 30.0283 119.998 29.8266C120.209 29.6249 120.367 29.3742 120.458 29.0966C120.549 28.8191 120.57 28.5234 120.518 28.2358C120.467 27.9483 120.346 27.6779 120.165 27.4486Z" fill="#4B1010"/>
<path d="M114.727 26.7853C114.546 26.7927 114.366 26.7621 114.198 26.6956C114.15 26.6516 114.115 26.595 114.098 26.5323C114.066 26.4532 114.05 26.3686 114.051 26.2833C114.051 26.1979 114.069 26.1136 114.102 26.035C114.135 25.9565 114.184 25.8852 114.245 25.8254C114.305 25.7655 114.377 25.7182 114.456 25.6862C114.536 25.6542 114.62 25.6381 114.705 25.6387C114.791 25.6394 114.875 25.6569 114.954 25.6902C115.032 25.7235 115.104 25.7719 115.163 25.8327C115.223 25.8936 115.271 25.9656 115.303 26.0447C115.321 26.0917 115.349 26.1345 115.384 26.1707C115.419 26.207 115.462 26.2359 115.508 26.2558C115.555 26.2757 115.605 26.2862 115.655 26.2867C115.706 26.2872 115.756 26.2777 115.803 26.2587C115.85 26.2397 115.892 26.2117 115.928 26.1762C115.964 26.1407 115.993 26.0984 116.012 26.0518C116.032 26.0051 116.042 25.9551 116.042 25.9045C116.042 25.854 116.033 25.8039 116.013 25.7571C115.931 25.552 115.801 25.3691 115.635 25.2233C115.469 25.0774 115.271 24.9727 115.056 24.9175V24.1953C115.056 24.0936 115.016 23.9961 114.944 23.9242C114.872 23.8523 114.775 23.8119 114.673 23.8119C114.571 23.8119 114.474 23.8523 114.402 23.9242C114.33 23.9961 114.29 24.0936 114.29 24.1953V24.9329C114.103 24.9887 113.93 25.0825 113.782 25.2083C113.633 25.3341 113.513 25.4893 113.427 25.664C113.341 25.8387 113.293 26.0293 113.284 26.2237C113.276 26.4181 113.307 26.6122 113.377 26.7938C113.456 27.0455 113.628 27.2573 113.859 27.3857C114.122 27.4976 114.406 27.5535 114.692 27.5498C114.873 27.5708 115.044 27.6406 115.189 27.7516C115.333 27.8626 115.444 28.0107 115.51 28.1801C115.577 28.3494 115.596 28.5336 115.566 28.7131C115.536 28.8925 115.457 29.0603 115.339 29.1986C115.221 29.3369 115.068 29.4405 114.895 29.4984C114.723 29.5562 114.538 29.566 114.36 29.5269C114.182 29.4877 114.019 29.401 113.886 29.276C113.754 29.151 113.659 28.9924 113.61 28.8172C113.598 28.7667 113.576 28.719 113.546 28.6771C113.515 28.6352 113.476 28.6 113.432 28.5735C113.387 28.547 113.338 28.5298 113.286 28.523C113.235 28.5162 113.183 28.5199 113.133 28.5338C113.083 28.5478 113.036 28.5718 112.996 28.6043C112.955 28.6367 112.922 28.6771 112.898 28.7229C112.873 28.7686 112.858 28.8189 112.854 28.8706C112.85 28.9222 112.856 28.9743 112.872 29.0235C112.962 29.3484 113.144 29.6407 113.395 29.8656C113.646 30.0905 113.957 30.2386 114.29 30.2925V31.2892C114.29 31.3909 114.33 31.4884 114.402 31.5603C114.474 31.6322 114.571 31.6726 114.673 31.6726C114.775 31.6726 114.872 31.6322 114.944 31.5603C115.016 31.4884 115.056 31.3909 115.056 31.2892V30.2503C115.453 30.1363 115.798 29.887 116.031 29.5456C116.263 29.2042 116.369 28.7922 116.33 28.3809C116.291 27.9696 116.109 27.585 115.817 27.2936C115.524 27.0022 115.138 26.8224 114.727 26.7853Z" fill="#4B1010"/>
<path d="M35.9758 33.7919C35.8208 33.6096 35.6305 33.4605 35.4164 33.3538C35.2022 33.2471 34.9687 33.1848 34.7298 33.1708C34.5569 33.1752 34.3846 33.1493 34.2207 33.0941C34.1607 33.0505 34.1183 32.9869 34.1011 32.9147C34.0364 32.755 34.0379 32.5761 34.1051 32.4174C34.1723 32.2587 34.2998 32.1333 34.4595 32.0686C34.6193 32.0039 34.7982 32.0054 34.9568 32.0726C35.1155 32.1398 35.241 32.2673 35.3057 32.4271C35.3443 32.5206 35.4183 32.5952 35.5116 32.6344C35.605 32.6736 35.71 32.6742 35.8038 32.6363C35.8977 32.5983 35.9727 32.5248 36.0125 32.4317C36.0524 32.3387 36.0538 32.2336 36.0164 32.1395C35.9343 31.9337 35.8049 31.7501 35.6387 31.6036C35.4724 31.457 35.274 31.3517 35.0595 31.2961V30.5807C35.0595 30.4791 35.0191 30.3815 34.9472 30.3096C34.8753 30.2377 34.7778 30.1974 34.6762 30.1974C34.5745 30.1974 34.477 30.2377 34.4051 30.3096C34.3332 30.3815 34.2928 30.4791 34.2928 30.5807V31.3168C34.0417 31.3867 33.8155 31.5262 33.6405 31.7193C33.4654 31.9123 33.3485 32.151 33.3035 32.4077C33.2584 32.6644 33.2869 32.9286 33.3857 33.1698C33.4845 33.4109 33.6496 33.6192 33.8619 33.7704C34.1291 33.8817 34.4159 33.9383 34.7053 33.9368C34.888 33.9518 35.0632 34.0167 35.2116 34.1243C35.3601 34.2319 35.4762 34.3781 35.5474 34.5471C35.6185 34.7161 35.642 34.9014 35.6152 35.0828C35.5884 35.2642 35.5124 35.4348 35.3955 35.576C35.2786 35.7172 35.1251 35.8237 34.9519 35.8838C34.7787 35.9439 34.5923 35.9554 34.413 35.917C34.2337 35.8786 34.0684 35.7918 33.935 35.666C33.8016 35.5402 33.7052 35.3802 33.6564 35.2035C33.6429 35.1549 33.6201 35.1095 33.5891 35.0698C33.5581 35.0301 33.5196 34.9969 33.4758 34.9721C33.4319 34.9473 33.3836 34.9314 33.3337 34.9252C33.2837 34.9191 33.233 34.9228 33.1844 34.9362C33.1359 34.9497 33.0905 34.9726 33.0508 35.0036C33.0111 35.0345 32.9779 35.0731 32.9531 35.1169C32.9283 35.1607 32.9123 35.209 32.9062 35.259C32.9 35.3089 32.9038 35.3597 32.9172 35.4082C33.006 35.7258 33.1814 36.0124 33.4238 36.236C33.6662 36.4596 33.966 36.6112 34.2897 36.6741V37.6808C34.2897 37.7825 34.3301 37.88 34.402 37.9519C34.4739 38.0238 34.5714 38.0642 34.6731 38.0642C34.7748 38.0642 34.8723 38.0238 34.9442 37.9519C35.0161 37.88 35.0565 37.7825 35.0565 37.6808V36.6511C35.3479 36.5778 35.6158 36.4315 35.835 36.226C36.0542 36.0205 36.2175 35.7626 36.3095 35.4766C36.4015 35.1905 36.4191 34.8858 36.3607 34.591C36.3023 34.2963 36.1699 34.0213 35.9758 33.7919Z" fill="#4B1010"/>
<path d="M18.1565 76.5811C18.3098 73.3653 20.3578 70.8941 22.3797 70.3236C22.9826 70.2086 23.6018 70.2086 24.2046 70.3236C31.228 71.2353 37.7285 80.5981 33.1165 87.107C32.3471 88.1862 31.2618 89.0001 30.0103 89.4364C28.7588 89.8727 27.4027 89.9099 26.1291 89.543C24.0758 88.9602 22.6351 88.1091 21.6276 86.2268C20.6753 87.0342 17.2471 85.9737 16.3776 83.1759C16.2988 82.996 16.2658 82.7993 16.2817 82.6035C16.2977 82.4077 16.362 82.2189 16.4689 82.0541C16.5954 81.9152 16.7557 81.8114 16.9343 81.7528C17.4338 81.6029 17.9053 81.3718 18.3298 81.0688C19.0873 80.3205 18.1059 77.6668 18.1565 76.5811Z" fill="white"/>
<path d="M23.0513 83.9425C23.0513 84.2443 23.1107 84.5431 23.2262 84.8219C23.3417 85.1007 23.5109 85.354 23.7243 85.5674C23.9377 85.7808 24.191 85.9501 24.4698 86.0656C24.7486 86.181 25.0474 86.2405 25.3492 86.2405C25.651 86.2405 25.9498 86.181 26.2286 86.0656C26.5074 85.9501 26.7607 85.7808 26.9741 85.5674C27.1875 85.354 27.3568 85.1007 27.4722 84.8219C27.5877 84.5431 27.6472 84.2443 27.6472 83.9425C27.6472 83.3331 27.4051 82.7486 26.9741 82.3176C26.5432 81.8867 25.9587 81.6446 25.3492 81.6446C24.7398 81.6446 24.1553 81.8867 23.7243 82.3176C23.2934 82.7486 23.0513 83.3331 23.0513 83.9425Z" fill="#FFE55D"/>
<path d="M24.3928 79.9493C24.2525 80.1672 24.1796 80.4217 24.1832 80.6808C24.1869 80.94 24.267 81.1923 24.4135 81.4061C24.4692 81.5266 24.5562 81.6299 24.6654 81.7052C24.7746 81.7806 24.9021 81.8253 25.0344 81.8346C25.1668 81.8439 25.2993 81.8176 25.418 81.7582C25.5367 81.6989 25.6373 81.6088 25.7093 81.4973C26.0758 80.6302 24.9502 79.3267 24.3928 79.9493Z" fill="#4B1010"/>
<path d="M32.2961 78.5239C32.0891 77.8392 31.4994 77.3309 31.0279 77.9036C30.9178 78.0194 30.8334 78.1571 30.7801 78.3077C30.7269 78.4583 30.7061 78.6185 30.7191 78.7778C30.732 78.937 30.7785 79.0917 30.8553 79.2317C30.9322 79.3718 31.0378 79.494 31.1651 79.5905C31.81 79.9685 32.4932 79.2385 32.2961 78.5239Z" fill="#4B1010"/>
<path d="M23.1102 79.5453C23.0551 79.5458 23.0005 79.5345 22.9501 79.512C22.8998 79.4895 22.8549 79.4564 22.8185 79.415C22.7821 79.3736 22.7551 79.3248 22.7393 79.272C22.7235 79.2192 22.7192 79.1636 22.7268 79.109C22.8143 78.4721 23.0791 77.8726 23.491 77.379C23.9029 76.8854 24.4453 76.5175 25.0562 76.3173C25.1042 76.3007 25.155 76.2937 25.2056 76.2969C25.2563 76.3 25.3058 76.3132 25.3514 76.3357C25.3969 76.3582 25.4375 76.3895 25.4709 76.4277C25.5042 76.466 25.5296 76.5106 25.5456 76.5587C25.5616 76.6069 25.5679 76.6578 25.564 76.7084C25.5602 76.7591 25.5464 76.8084 25.5233 76.8537C25.5002 76.8989 25.4684 76.9391 25.4297 76.9719C25.391 77.0048 25.3461 77.0296 25.2977 77.0449C24.8226 77.2005 24.4007 77.4865 24.0803 77.8703C23.76 78.2541 23.554 78.7203 23.4859 79.2156C23.4731 79.3064 23.4281 79.3896 23.3592 79.4501C23.2902 79.5106 23.2019 79.5444 23.1102 79.5453Z" fill="#4B1010"/>
<path d="M32.7512 76.6908C32.6905 76.6909 32.6306 76.6766 32.5764 76.649C32.5223 76.6214 32.4755 76.5813 32.4399 76.5321C32.2123 76.2155 31.8902 75.9792 31.52 75.857C31.1497 75.7349 30.7502 75.7331 30.3789 75.852C30.2834 75.8776 30.1817 75.8654 30.095 75.8179C30.0083 75.7704 29.9434 75.6912 29.9137 75.5969C29.884 75.5026 29.8919 75.4004 29.9357 75.3118C29.9795 75.2232 30.0559 75.1549 30.1489 75.1213C30.6739 74.954 31.2384 74.9568 31.7616 75.1295C32.2849 75.3022 32.7402 75.6358 33.0625 76.0828C33.104 76.14 33.1287 76.2077 33.1341 76.2781C33.1395 76.3486 33.1253 76.4192 33.0931 76.4821C33.0609 76.5451 33.0119 76.5978 32.9516 76.6347C32.8913 76.6715 32.8219 76.6909 32.7512 76.6908Z" fill="#4B1010"/>
<path d="M31.0002 86.7428C31.261 86.4022 31.4409 86.0066 31.5262 85.5862C31.6115 85.1657 31.5999 84.7314 31.4925 84.316C30.4121 84.5331 29.3094 84.6188 28.2085 84.5714C28.3263 85.2823 28.5737 85.9656 28.9384 86.5871C29.0262 86.7878 29.1591 86.9655 29.3268 87.1063C29.4945 87.2472 29.6925 87.3474 29.9053 87.3991C30.1288 87.3928 30.3469 87.3291 30.5386 87.2142C30.7304 87.0992 30.8893 86.9369 31.0002 86.7428Z" fill="#FFE55D"/>
<path d="M29.9054 87.7825C29.8749 87.7824 29.8445 87.7788 29.8149 87.7718C29.5452 87.7053 29.2943 87.5779 29.0816 87.3992C28.8689 87.2205 28.7001 86.9954 28.5881 86.7412C28.2085 86.0914 27.9519 85.3771 27.8313 84.6342C27.822 84.578 27.8254 84.5203 27.8412 84.4655C27.857 84.4107 27.8848 84.3601 27.9227 84.3175C27.9605 84.2748 28.0074 84.2411 28.0599 84.2188C28.1124 84.1965 28.1692 84.1863 28.2262 84.1887C29.296 84.2351 30.3676 84.1516 31.4174 83.9403C31.5136 83.9209 31.6135 83.9391 31.6967 83.9912C31.7798 84.0432 31.8398 84.1252 31.8644 84.2202C31.9869 84.6876 32.0015 85.1768 31.9072 85.6507C31.8129 86.1247 31.6121 86.571 31.32 86.9559C31.1729 87.2017 30.9661 87.4064 30.7188 87.5509C30.4715 87.6954 30.1917 87.7751 29.9054 87.7825ZM28.6832 84.967C28.81 85.4679 29.0072 85.9483 29.2689 86.3939C29.3299 86.5401 29.4219 86.6713 29.5387 86.7783C29.6555 86.8853 29.7942 86.9655 29.9452 87.0134C30.0936 87.0002 30.2367 86.9515 30.3624 86.8714C30.4881 86.7914 30.5927 86.6823 30.6675 86.5534C30.676 86.5382 30.6854 86.5236 30.6959 86.5097C31.0784 86.0131 31.254 85.3877 31.1858 84.7646C30.3586 84.9006 29.5215 84.9683 28.6832 84.967Z" fill="#4B1010"/>
<path d="M28.938 83.997C28.8543 83.997 28.773 83.9696 28.7064 83.9191C28.6398 83.8686 28.5915 83.7977 28.5689 83.7172C28.5464 83.6367 28.5507 83.551 28.5813 83.4732C28.612 83.3954 28.6672 83.3297 28.7386 83.2862C28.9397 83.163 29.0959 82.9783 29.1841 82.7595C29.2233 82.6672 29.2972 82.5939 29.3898 82.5555C29.4824 82.517 29.5864 82.5163 29.6795 82.5537C29.7726 82.591 29.8474 82.6633 29.8878 82.7551C29.9282 82.8469 29.931 82.9509 29.8956 83.0447C29.7453 83.417 29.4795 83.7311 29.1373 83.941C29.0774 83.9779 29.0083 83.9973 28.938 83.997Z" fill="#4B1010"/>
<path d="M30.1238 83.8145C30.0536 83.8144 29.9849 83.7951 29.925 83.7587C29.865 83.7223 29.8163 83.6701 29.7839 83.6079C29.7516 83.5457 29.7369 83.4758 29.7416 83.4058C29.7462 83.3358 29.7699 83.2685 29.8102 83.211L30.2388 82.5976C30.2971 82.5144 30.3862 82.4577 30.4864 82.4401C30.5865 82.4224 30.6895 82.4453 30.7728 82.5037C30.8561 82.5621 30.9128 82.6511 30.9304 82.7513C30.948 82.8514 30.9251 82.9545 30.8668 83.0377L30.4381 83.6511C30.4027 83.7016 30.3557 83.7429 30.3009 83.7713C30.2462 83.7997 30.1854 83.8145 30.1238 83.8145Z" fill="#4B1010"/>
<path d="M26.4019 102.052C25.8146 97.126 24.9259 94.3565 22.9309 92.1751C20.3617 92.4197 17.8781 93.2276 15.6567 94.5413C12.6733 96.6951 11.8092 98.2416 8.28672 102.322L7.49314 101.21C7.49314 101.21 4.9391 105.415 4.75661 105.989C4.42053 107.028 4.32802 108.13 4.48624 109.211C4.64446 110.291 5.04917 111.321 5.66904 112.219C6.14616 113.023 6.87808 113.643 7.74847 113.983C8.25535 114.11 8.78281 114.133 9.29874 114.05C9.81466 113.966 10.3083 113.779 10.7495 113.499C11.6242 112.925 12.3978 112.21 13.039 111.383C13.3419 112.677 12.4187 123.625 12.1266 125.667C15.2465 127.784 19.1868 127.985 22.9378 128.404C23.7866 128.495 24.8439 128.486 25.2641 127.738C25.8315 126.021 27.6548 112.561 26.4019 102.052Z" fill="white"/>
<path d="M37.3663 106.612C35.9954 101.132 33.7818 95.6655 29.8047 91.4974C29.2212 91.6063 28.8079 91.7528 28.7465 91.9445C28.6852 92.1361 28.6009 92.6468 28.2995 92.7649C27.9982 92.883 26.8948 92.2327 26.4754 92.1998C25.4674 92.1227 24.4549 92.1227 23.4468 92.1998C26.5207 96.5503 26.5306 102.858 26.7308 107.943C26.985 113.626 26.6364 119.319 25.6911 124.928C26.2745 124.315 27.6792 125.1 28.5188 125.211C30.2017 125.432 31.9087 125.393 33.5794 125.093C35.7408 124.705 37.5113 123.559 39.4358 122.562C39.3546 117.184 38.6603 111.833 37.3663 106.612Z" fill="#FFB43B"/>
<path d="M12.3916 106.391C9.23487 106.108 5.76916 102.204 6.4255 98.9932C6.45093 98.81 6.51441 98.6342 6.61187 98.4771C6.70932 98.32 6.83859 98.1849 6.99136 98.0808C7.6477 97.7434 8.35004 98.5278 8.48729 99.2485C8.62454 99.9693 8.54173 100.799 9.01634 101.365C8.83386 101.145 9.92878 99.8596 10.1021 99.6955C10.9946 98.4687 12.709 98.4687 12.8386 99.2669C12.8375 99.4175 12.8043 99.5661 12.7414 99.7029C12.6785 99.8398 12.5872 99.9616 12.4736 100.061L11.1962 101.538C11.7981 101.648 12.3095 101.127 12.7381 100.681C13.1668 100.235 13.7825 99.7607 14.3345 100.051C14.4874 100.133 14.6159 100.254 14.7072 100.401C14.7985 100.548 14.8493 100.717 14.8544 100.89C14.7907 101.429 14.6159 101.949 14.3412 102.417C14.0664 102.884 13.6976 103.29 13.258 103.608C13.6249 103.601 13.9861 103.515 14.3178 103.358C14.6495 103.201 14.9442 102.976 15.1825 102.697C15.2827 102.548 15.4174 102.426 15.5751 102.341C15.9945 102.177 16.3518 102.714 16.3863 103.161C16.4292 103.663 16.3179 104.166 16.0674 104.603C15.6809 105.212 15.1324 105.703 14.4832 106.018C13.8341 106.334 13.1098 106.463 12.3916 106.391Z" fill="white"/>
<path d="M16.7694 103.131C16.7096 102.398 16.1277 101.708 15.3893 102.004C14.9484 102.244 14.9898 102.421 14.5796 102.746C14.9971 102.211 15.2276 101.553 15.2359 100.875C15.2249 100.634 15.152 100.4 15.0241 100.196C14.8962 99.9919 14.7177 99.8242 14.506 99.7093C14.2735 99.6018 14.0155 99.5621 13.7614 99.5946C13.5074 99.6272 13.2677 99.7307 13.0699 99.8933C13.1695 99.6771 13.219 99.4412 13.2148 99.2032C13.1187 98.8921 12.9076 98.6293 12.6246 98.4685C12.3415 98.3076 12.0077 98.2608 11.6912 98.3376C11.3257 98.3841 10.9732 98.5035 10.6546 98.6886C10.336 98.8738 10.0578 99.121 9.83648 99.4156C9.53563 99.7167 9.26115 100.043 9.01606 100.391C8.94935 100.008 8.93938 99.5996 8.86271 99.1756C8.67562 98.1881 7.73558 97.2588 6.77408 97.7625C6.58034 97.8938 6.41588 98.0637 6.29105 98.2617C6.16621 98.4596 6.08371 98.6813 6.04874 98.9126C5.23215 102.908 10.3425 108.065 14.3695 106.486C14.1813 107.066 13.9403 107.628 13.6495 108.165C13.601 108.254 13.59 108.359 13.6189 108.457C13.6478 108.554 13.7143 108.636 13.8036 108.685C13.893 108.733 13.998 108.744 14.0955 108.715C14.193 108.687 14.275 108.62 14.3235 108.531C14.7615 107.721 15.0947 106.86 15.3149 105.966C15.7867 105.664 16.1699 105.243 16.4255 104.745C16.681 104.247 16.7997 103.69 16.7694 103.131ZM12.8713 106.008C9.54128 106.008 6.19365 102.049 6.80629 99.0453C6.82224 98.9227 6.86229 98.8046 6.92415 98.6976C6.986 98.5906 7.06842 98.4969 7.16666 98.4219C7.55463 98.2233 8.02312 98.8567 8.11129 99.3198C8.24317 100.015 8.15883 100.938 8.72469 101.611C8.7799 101.677 8.85565 101.722 8.93977 101.74C9.0239 101.757 9.11151 101.746 9.18855 101.708C9.26559 101.67 9.32758 101.607 9.36457 101.53C9.40156 101.452 9.41141 101.364 9.39253 101.28C9.67775 100.788 10.0206 100.332 10.4138 99.9209C10.5767 99.6981 10.7829 99.5106 11.0201 99.3694C11.2573 99.2283 11.5205 99.1366 11.794 99.0997C12.0808 99.0668 12.435 99.1572 12.4588 99.2646C12.4554 99.3696 12.4293 99.4726 12.3823 99.5666C12.3353 99.6606 12.2685 99.7433 12.1866 99.809L10.9038 101.286C10.8596 101.338 10.8297 101.4 10.8171 101.466C10.8045 101.532 10.8098 101.601 10.8323 101.665C10.8548 101.729 10.8937 101.785 10.9452 101.829C10.9967 101.873 11.0588 101.902 11.1254 101.914C11.9397 102.068 12.5592 101.417 13.0124 100.946C13.2853 100.661 13.7975 100.211 14.1471 100.387C14.2396 100.438 14.3176 100.511 14.3739 100.6C14.4301 100.69 14.4626 100.792 14.4684 100.897C14.4024 101.376 14.2399 101.836 13.9908 102.25C13.7417 102.664 13.4112 103.023 13.0193 103.306C12.9558 103.356 12.9096 103.424 12.8871 103.501C12.8646 103.579 12.867 103.661 12.894 103.737C12.921 103.813 12.9711 103.878 13.0374 103.924C13.1036 103.97 13.1826 103.993 13.2631 103.992C13.691 103.981 14.1117 103.88 14.4971 103.694C14.8825 103.507 15.2235 103.241 15.4974 102.912C15.5569 102.814 15.6501 102.741 15.7596 102.707C15.8297 102.768 15.8872 102.842 15.9288 102.924C15.9703 103.007 15.9952 103.097 16.0019 103.19C16.1238 104.788 14.4761 106.008 12.8713 106.008Z" fill="#4B1010"/>
<path d="M65.3062 76.2613C66.6204 74.9939 69.3868 76.1433 70.0769 77.6576C70.9272 79.5215 69.2518 82.449 67.0582 82.3455C66.8132 82.3493 66.5744 82.268 66.3827 82.1155C66.2079 81.9414 66.2293 81.9429 65.3338 80.3006C65.2077 80.0069 65.0187 79.7445 64.7803 79.5318C64.5418 79.319 64.2597 79.1611 63.9536 79.0692C64.1397 78.0273 64.6074 77.0563 65.3062 76.2613Z" fill="white"/>
<path d="M65.0237 79.9286C64.0346 78.5484 62.853 78.8076 61.3747 79.6365C52.456 84.5706 42.9912 88.4454 33.1729 91.1822C32.1728 91.2057 31.1746 91.2824 30.1826 91.4122C31.4398 93.49 32.6667 95.586 33.863 97.6995C38.0196 105.014 40.3528 123.598 39.9203 125.04V125.063C41.3283 124.553 42.6034 123.733 43.6506 122.663C45.0828 120.839 45.0645 118.293 44.8275 115.977C43.8392 106.289 40.9125 101.454 40.4571 98.9593C46.1049 97.3775 51.6516 93.7715 56.6623 90.8011C59.0338 89.388 61.3962 87.9465 63.6489 86.3593C64.3428 85.8663 66.3586 84.7905 66.5403 83.8781C66.8478 82.4458 65.9354 81.0503 65.0237 79.9286Z" fill="white"/>
<path d="M70.342 77.5702C70.2049 77.209 69.9742 76.8907 69.6734 76.6482C69.3726 76.4056 69.0127 76.2475 68.6307 76.1901C68.2097 75.1933 66.1663 74.7332 65.0154 76.0122C64.3677 76.7503 63.9106 77.6359 63.6844 78.5915C62.7985 78.558 61.9249 78.8066 61.1894 79.3015C52.2436 84.2572 42.744 88.1393 32.8879 90.8672C32.1516 90.8114 31.4115 90.8353 30.6804 90.9385C30.4377 90.9384 30.2046 91.0334 30.031 91.203C29.9139 90.9556 29.7748 90.7193 29.6154 90.4968C29.5646 90.4265 29.4915 90.3754 29.4079 90.352C29.3243 90.3286 29.2353 90.3342 29.1553 90.368C29.1553 90.2331 29.1592 90.0989 29.1692 89.9639C33.2966 89.3206 35.5654 84.806 34.7611 80.549C34.4293 78.6534 33.7389 76.8385 32.7269 75.2017C32.8591 75.1683 32.9821 75.1054 33.0864 75.0176C33.1908 74.9298 33.274 74.8195 33.3295 74.6949C33.5058 74.7334 33.6895 74.7193 33.8578 74.6542C34.0261 74.5892 34.1715 74.476 34.276 74.329C34.3806 74.1819 34.4395 74.0073 34.4456 73.827C34.4517 73.6467 34.4046 73.4685 34.3102 73.3147C34.6238 73.0779 34.8394 72.7341 34.9159 72.3486C34.9264 72.1362 34.8808 71.9247 34.7836 71.7354C34.6864 71.5462 34.5411 71.3859 34.3623 71.2706C34.4935 71.0983 34.5534 70.8821 34.5296 70.6669C34.5057 70.4516 34.4 70.2538 34.2343 70.1143C34.334 69.9024 34.3499 69.6607 34.2788 69.4375C34.2077 69.2144 34.0549 69.0264 33.8509 68.9113C33.8981 68.7519 33.9063 68.5836 33.875 68.4203C33.8437 68.2571 33.7737 68.1038 33.6709 67.9732C33.5681 67.8426 33.4354 67.7385 33.2841 67.6698C33.1328 67.601 32.9672 67.5695 32.8012 67.5779C32.7781 67.45 32.7289 67.3282 32.6567 67.2201C32.5845 67.1119 32.4908 67.0198 32.3816 66.9493C32.2723 66.8789 32.1497 66.8316 32.0214 66.8105C31.8931 66.7894 31.7619 66.7948 31.6358 66.8265C31.5807 66.6992 31.5005 66.5843 31.3999 66.4888C31.2993 66.3933 31.1805 66.3191 31.0505 66.2707C30.9205 66.2222 30.782 66.2006 30.6435 66.2071C30.5049 66.2135 30.3691 66.2479 30.2441 66.3082C30.0988 66.0981 29.894 65.9362 29.656 65.8434C29.418 65.7507 29.1576 65.7312 28.9085 65.7876C28.8456 65.6575 28.7564 65.5419 28.6466 65.448C28.5367 65.3542 28.4086 65.2842 28.2703 65.2425C28.1319 65.2007 27.9865 65.1882 27.843 65.2056C27.6996 65.223 27.5614 65.27 27.4371 65.3436C27.2808 65.1196 27.044 64.9647 26.7762 64.9114C26.5083 64.8581 26.2303 64.9105 26.0002 65.0576C25.7852 64.8328 25.4964 64.6927 25.1867 64.6632C24.877 64.6336 24.567 64.7165 24.3133 64.8966C24.2191 64.768 24.0961 64.6633 23.9541 64.5908C23.8122 64.5183 23.6552 64.4801 23.4958 64.4791C23.3364 64.4781 23.179 64.5145 23.0362 64.5852C22.8933 64.656 22.769 64.7592 22.6733 64.8866C22.4451 64.7891 22.1918 64.7669 21.9502 64.8234C21.7086 64.8798 21.4913 65.0118 21.3299 65.2002C21.1954 65.1154 21.0436 65.0619 20.8857 65.0437C20.7277 65.0255 20.5677 65.0431 20.4175 65.0952C20.2673 65.1473 20.1307 65.2325 20.0179 65.3445C19.905 65.4565 19.8189 65.5925 19.7657 65.7423C19.5397 65.7044 19.3075 65.7498 19.1124 65.8701C18.9172 65.9904 18.7723 66.1774 18.7046 66.3964C18.483 66.3981 18.2689 66.4764 18.0986 66.6182C17.9284 66.7599 17.8125 66.9563 17.7707 67.1739C17.5135 67.1582 17.2604 67.2441 17.0659 67.4132C16.8715 67.5823 16.7512 67.821 16.7309 68.0779C16.4177 68.1047 16.1259 68.2479 15.913 68.4792C15.7001 68.7106 15.5816 69.0133 15.5808 69.3277C15.3587 69.3827 15.1558 69.4975 14.9943 69.6597C14.8205 69.8847 14.7383 70.1671 14.7642 70.4502C14.6217 70.492 14.4889 70.5618 14.3736 70.6554C14.2583 70.7491 14.1629 70.8648 14.0928 70.9958C14.0227 71.1268 13.9794 71.2704 13.9654 71.4183C13.9514 71.5662 13.967 71.7154 14.0113 71.8572C13.8154 71.9561 13.6602 72.1203 13.5724 72.3214C13.4846 72.5226 13.4698 72.7481 13.5305 72.959C13.2669 73.1064 13.0698 73.3495 12.9801 73.6379C12.8904 73.9264 12.9147 74.2383 13.0483 74.5093C12.916 74.5966 12.8039 74.7111 12.7194 74.8451C12.6349 74.9791 12.58 75.1296 12.5582 75.2866C12.5364 75.4435 12.5484 75.6033 12.5932 75.7552C12.638 75.9072 12.7148 76.0478 12.8182 76.1678C12.7108 76.3255 12.6567 76.5134 12.6637 76.7041C12.6708 76.8947 12.7386 77.0781 12.8573 77.2275C12.7752 77.3489 12.7211 77.4871 12.699 77.6321C12.6768 77.777 12.6872 77.9251 12.7293 78.0655C12.7499 78.1988 12.7983 78.3262 12.8714 78.4395C12.9444 78.5528 13.0405 78.6496 13.1533 78.7234C13.0391 78.8869 12.9716 79.0785 12.9581 79.2775C12.9446 79.4765 12.9855 79.6754 13.0766 79.8528C13.2546 80.1125 13.5027 80.3162 13.792 80.4401C13.6928 80.6269 13.641 80.8352 13.641 81.0466C13.641 81.2581 13.6928 81.4664 13.792 81.6531C13.9457 81.8512 14.1373 82.0166 14.3555 82.14C14.5738 82.2633 14.8143 82.342 15.0633 82.3716C15.0034 82.6156 15.0264 82.8726 15.1285 83.1022C15.2307 83.3318 15.4062 83.5209 15.6276 83.6398C15.8929 83.746 16.1889 83.746 16.4542 83.6398C16.9732 85.2216 18.7314 87.0043 20.3262 87.0043C20.7391 87.0046 21.1457 86.9032 21.5101 86.7091C22.2451 87.7074 23.1865 88.5356 24.2704 89.1374C24.4095 89.7452 24.4924 90.3645 24.5181 90.9875C24.4255 90.9717 24.3304 90.9903 24.2507 91.0399C24.171 91.0895 24.1122 91.1666 24.0856 91.2567C24.0509 91.3761 24.0219 91.4971 23.999 91.6193L23.315 91.8179C22.6963 91.5197 21.9226 91.8624 21.2808 91.9935C17.7829 92.7434 15.4045 93.458 10.7894 98.494C10.7554 98.5311 10.729 98.5746 10.7117 98.6219C10.6945 98.6692 10.6867 98.7194 10.6889 98.7697C10.6911 98.82 10.7031 98.8694 10.7244 98.915C10.7457 98.9607 10.7757 99.0017 10.8128 99.0357C10.8499 99.0698 10.8933 99.0962 10.9407 99.1134C10.988 99.1306 11.0382 99.1384 11.0885 99.1362C11.1388 99.134 11.1882 99.122 11.2338 99.1007C11.2795 99.0795 11.3205 99.0494 11.3545 99.0123C15.0817 94.9486 17.2853 93.7984 19.8654 93.1137L17.9577 96.6017C17.9162 96.6777 17.9016 96.7655 17.9164 96.8509C17.9311 96.9362 17.9744 97.014 18.039 97.0717C19.9914 98.8081 21.8838 100.611 23.713 102.477L20.3324 104.34C20.2437 104.388 20.1779 104.47 20.1492 104.567C20.1204 104.664 20.1312 104.768 20.179 104.857C23.0339 110.159 24.9011 115.936 25.6896 121.905C25.4152 123.982 25.0829 126.05 24.6929 128.108C20.5413 128.315 16.4087 127.422 12.7132 125.519C12.6187 125.482 12.5342 125.423 12.4663 125.347C12.3704 125.129 12.3451 125.974 13.4562 111.61C15.3111 109.284 16.7021 106.624 17.5537 103.774C17.583 103.676 17.5723 103.571 17.5242 103.482C17.476 103.392 17.3942 103.325 17.2968 103.296C17.1994 103.267 17.0944 103.277 17.0048 103.326C16.9152 103.374 16.8484 103.456 16.8191 103.553C15.6905 107.31 12.1512 114.179 8.26374 113.638C7.53766 113.527 6.85547 113.22 6.29002 112.751C5.72458 112.283 5.29714 111.669 5.05336 110.976C4.57183 109.527 4.57183 107.96 5.05336 106.511C5.54929 105.019 6.20752 103.585 7.01624 102.237C7.04212 102.193 7.05923 102.145 7.06661 102.096C7.07399 102.046 7.07148 101.995 7.05923 101.946C7.04699 101.897 7.02524 101.851 6.99524 101.811C6.96523 101.771 6.92755 101.736 6.88436 101.711C6.84116 101.685 6.79329 101.668 6.74348 101.66C6.69367 101.653 6.64289 101.655 6.59405 101.668C6.54521 101.68 6.49925 101.702 6.45882 101.732C6.41838 101.762 6.38425 101.799 6.35837 101.842C5.52095 103.239 4.83957 104.723 4.32648 106.269C3.79091 107.878 3.79091 109.618 4.32648 111.227C4.63761 112.132 5.21528 112.922 5.98355 113.493C6.75183 114.063 7.67475 114.388 8.63101 114.424C10.1558 114.332 11.5848 113.65 12.6143 112.521L11.6612 124.866C11.6176 125.153 11.6628 125.448 11.7908 125.709C11.9355 125.935 12.1457 126.112 12.3934 126.215C13.8114 126.944 15.2976 127.531 16.8306 127.969L14.6692 139.122C14.6596 139.171 14.6599 139.222 14.6699 139.271C14.68 139.321 14.6997 139.368 14.7279 139.409C14.7561 139.451 14.7923 139.487 14.8343 139.515C14.8763 139.542 14.9234 139.561 14.9728 139.571C15.0726 139.59 15.1761 139.569 15.2603 139.512C15.3446 139.455 15.4028 139.367 15.4221 139.267L17.5744 128.168C20.0113 128.782 22.5288 129.015 25.0371 128.858C25.1221 128.853 25.2028 128.819 25.2666 128.763C25.3305 128.707 25.3738 128.631 25.3898 128.548L25.5041 127.942C27.1772 128.49 28.9266 128.77 30.6873 128.771C35.3645 128.771 39.9895 126.358 41.0384 125.13C42.057 128.82 42.5748 132.629 42.5781 136.457C42.5781 136.558 42.6184 136.656 42.6903 136.728C42.7622 136.799 42.8598 136.84 42.9614 136.84C43.0631 136.84 43.1606 136.799 43.2325 136.728C43.3044 136.656 43.3448 136.558 43.3448 136.457C43.3416 132.507 42.7998 128.577 41.7346 124.774C43.2228 123.924 44.3299 122.538 44.8292 120.898C45.3683 118.758 45.4145 116.524 44.9642 114.363C44.2032 109.18 42.8066 104.11 40.8061 99.2684C49.0801 96.2221 66.5267 85.7161 66.9062 83.9611C66.9774 83.6299 66.9952 83.2896 66.9591 82.9528C69.6826 82.4038 71.0935 79.6121 70.342 77.5702ZM33.3226 91.6017C34.5458 92.5529 35.7192 93.5663 36.8382 94.638C36.9247 96.6371 36.8477 98.6398 36.6082 100.626C36.6001 100.696 36.6115 100.767 36.6411 100.831C36.6707 100.895 36.7174 100.95 36.7761 100.989C37.7176 101.616 39.8262 102.727 39.9964 102.956C40.1406 103.483 40.5002 112.904 39.5885 117.992C39.033 114.466 38.4339 110.948 37.7912 107.437C36.55 101.748 34.1148 96.3869 30.6467 91.7091C31.5362 91.627 32.4294 91.5917 33.3226 91.6032V91.6017ZM30.2924 94.3896C30.4482 93.8418 30.5002 93.2697 30.4458 92.7028C33.6316 97.1755 35.8781 102.247 37.0498 107.612C37.3327 108.781 38.9168 118.161 39.4773 122.559C37.4815 123.721 35.2702 124.466 32.9778 124.747C30.6854 125.029 28.3597 124.841 26.142 124.196C27.4438 116.181 27.5647 108.018 26.5009 99.9669C26.2534 98.2193 25.7898 96.5091 25.1207 94.8757C25.6393 95.2753 26.2311 95.5694 26.8628 95.7414C26.9886 95.7822 27.1248 95.7765 27.2467 95.7254C27.3687 95.6744 27.4683 95.5813 27.5275 95.4631C27.6305 95.279 27.7224 95.0891 27.8028 94.8941C27.9631 95.059 28.19 95.2047 28.4285 95.4247C28.4733 95.4667 28.5287 95.4959 28.5887 95.5091C29.1761 99.0522 29.541 102.683 29.9213 106.221C31.1159 118 29.8278 117.754 31.1067 120.241L32.319 122.767C32.3701 122.873 32.45 122.962 32.5495 123.024C32.649 123.086 32.764 123.119 32.8814 123.119C32.9988 123.119 33.1138 123.086 33.2132 123.024C33.3127 122.962 33.3926 122.873 33.4438 122.767C34.9941 119.581 34.5939 115.658 34.0625 112.065C33.6339 108.955 33.1501 105.826 32.457 102.761C31.8988 100.461 30.3292 97.2266 29.4751 94.9624C29.5035 94.809 29.538 94.635 29.5587 94.4609C29.5855 94.4893 29.6131 94.5177 29.6353 94.5468C29.6813 94.5986 29.7405 94.637 29.8065 94.6578C29.8725 94.6787 29.943 94.6813 30.0104 94.6653C30.0778 94.6494 30.1396 94.6154 30.1893 94.5672C30.2389 94.5189 30.2746 94.4581 30.2924 94.3911V94.3896ZM28.6056 91.9981C28.5555 92.1709 28.4863 92.3375 28.3993 92.495C27.3531 92.2825 26.3221 92.0007 25.3132 91.6515C25.2948 90.9415 25.2334 90.2333 25.1292 89.5307C26.1679 89.9292 27.2792 90.1035 28.3901 90.0421C28.3585 90.7021 28.4322 91.3629 28.6087 91.9997L28.6056 91.9981ZM27.6019 93.1068C27.4197 93.7392 27.194 94.3581 26.9264 94.9593C26.2585 94.7625 25.6534 94.3952 25.1706 93.8935C24.8444 93.3927 24.6795 92.804 24.6982 92.2067C25.6346 92.6036 26.6084 92.9057 27.605 93.1084L27.6019 93.1068ZM29.4613 91.8294C29.6594 92.3608 29.7343 92.9302 29.6806 93.4948C29.469 93.2944 29.2497 93.1027 29.0227 92.9197C29.2231 92.5807 29.372 92.2138 29.4643 91.831L29.4613 91.8294ZM21.0362 84.7071C20.8446 84.3513 20.2879 84.7071 20.4888 85.0353C20.6578 85.393 20.8491 85.7397 21.0615 86.0735C19.8102 86.6562 18.5313 85.5597 17.7461 84.5024C17.9236 84.4973 18.0976 84.4513 18.2545 84.3682C18.3992 84.5212 18.5805 84.6347 18.7814 84.698C18.9822 84.7614 19.1959 84.7724 19.4021 84.7301C19.6084 84.6878 19.8005 84.5936 19.9602 84.4563C20.1199 84.319 20.2419 84.1433 20.3147 83.9457C20.4549 83.9567 20.5957 83.9354 20.7263 83.8835C20.8569 83.8316 20.9739 83.7504 21.0683 83.6463C21.1627 83.5421 21.232 83.4177 21.2708 83.2826C21.3097 83.1475 21.317 83.0053 21.2923 82.8669C21.4323 82.8056 21.5556 82.7119 21.6521 82.5935C21.7487 82.4751 21.8156 82.3354 21.8475 82.186C21.8793 82.0366 21.8751 81.8818 21.8353 81.7343C21.7954 81.5869 21.721 81.451 21.6182 81.338C21.6896 81.2381 21.7405 81.1252 21.7682 81.0056C21.7959 80.8861 21.7997 80.7622 21.7795 80.6411C21.7593 80.5201 21.7154 80.4042 21.6504 80.3001C21.5853 80.196 21.5004 80.1058 21.4004 80.0345C21.4547 79.8816 21.4682 79.7173 21.4397 79.5576C21.4112 79.3979 21.3417 79.2483 21.2379 79.1236C21.3528 78.9516 21.4045 78.745 21.3843 78.539C21.364 78.3331 21.273 78.1406 21.1267 77.9942C21.1528 77.9579 21.1783 77.9204 21.2034 77.8815C21.2822 77.7008 21.2912 77.4973 21.2287 77.3103C21.4464 77.11 21.584 76.8376 21.6159 76.5435C21.7896 76.532 21.9567 76.4729 22.099 76.3727C22.2413 76.2725 22.3532 76.135 22.4225 75.9754C22.6065 75.9895 22.7905 75.9481 22.9506 75.8563C23.1108 75.7646 23.2396 75.6268 23.3204 75.4609C23.5368 75.5096 23.7633 75.4846 23.964 75.3901C24.1647 75.2955 24.3281 75.1366 24.4283 74.9387C24.6439 74.979 24.8666 74.955 25.0686 74.8697C25.3477 74.6994 25.5704 74.4506 25.7088 74.1543C25.9335 74.2451 26.1816 74.2605 26.4158 74.198C26.6062 74.1097 26.7653 73.9656 26.872 73.7848C27.1006 73.8728 27.3518 73.8835 27.5872 73.8154C27.8225 73.7473 28.0291 73.604 28.1754 73.4075C28.3218 73.5096 28.4962 73.5638 28.6747 73.5629C28.8531 73.5619 29.0269 73.5058 29.1722 73.4022C29.3206 73.522 29.4948 73.6059 29.681 73.6472C29.8672 73.6886 30.0605 73.6863 30.2457 73.6406C30.3288 73.7747 30.4467 73.8838 30.5868 73.9564C30.7269 74.0291 30.884 74.0625 31.0415 74.0531C31.0819 74.1619 31.1433 74.2616 31.2222 74.3466C31.3012 74.4316 31.3961 74.5002 31.5016 74.5484C33.6263 77.4912 35.1053 81.5328 33.8456 85.115C33.5442 86.0321 33.0389 86.8689 32.3676 87.5625C31.6962 88.2562 30.8764 88.7886 29.9696 89.1197C26.254 90.2499 22.6349 88.1575 21.0393 84.7086L21.0362 84.7071ZM21.0362 104.827L24.5265 102.903C24.5781 102.874 24.6225 102.834 24.6562 102.786C24.6899 102.738 24.712 102.682 24.7208 102.624C24.7295 102.566 24.7247 102.506 24.7067 102.45C24.6887 102.394 24.658 102.343 24.617 102.3C22.7499 100.383 20.7832 98.4978 18.7766 96.7029L20.8791 92.8691L21.435 92.7472C22.2508 92.5808 22.8841 92.2496 23.1471 92.6706C24.5139 94.9348 25.3976 97.4574 25.7425 100.08C26.6224 106.389 26.7167 112.783 26.0232 119.116C25.0889 114.13 23.4073 109.313 21.0355 104.829L21.0362 104.827ZM25.6467 127.178C25.7786 126.445 25.9041 125.704 26.0232 124.955C28.2752 125.596 30.6316 125.788 32.9578 125.519C35.284 125.25 37.5343 124.524 39.5801 123.385C39.7779 125.149 39.5118 124.918 39.7142 125.155C37.6919 126.572 35.365 127.493 32.9213 127.844C30.4776 128.196 27.9855 127.968 25.6459 127.18L25.6467 127.178ZM66.1686 83.7801C65.6058 85.1464 48.9934 95.4539 40.5155 98.5584C40.3821 98.2456 40.2461 97.9338 40.1076 97.623C40.0644 97.533 39.9878 97.4634 39.8941 97.429C39.8004 97.3945 39.697 97.398 39.6058 97.4387C39.5147 97.4793 39.4429 97.5539 39.4059 97.6466C39.3689 97.7393 39.3695 97.8428 39.4076 97.9351C41.7609 103.21 43.3791 108.782 44.2166 114.497C44.6457 116.543 44.6053 118.659 44.0985 120.687C43.581 122.319 42.2545 124.047 40.399 124.456C40.3744 123.569 40.1689 121.903 39.8883 119.948C41.0331 118.337 41.2362 103.676 40.6995 102.647C40.4189 102.11 38.755 101.343 37.4025 100.478C37.4707 99.7799 37.9438 94.6281 37.4362 94.1465C36.41 93.16 35.3385 92.2218 34.2251 91.3349L35.5577 90.8948C44.593 88.1975 53.3117 84.5351 61.5628 79.9709C62.3295 79.5423 63.2067 79.1443 63.8852 79.4273C64.2197 79.6069 64.5083 79.8611 64.7287 80.1702C65.543 81.1755 66.4447 82.4958 66.1679 83.7809L66.1686 83.7801ZM66.8096 82.1998C66.4784 81.2835 65.9786 80.4372 65.3359 79.7048C65.089 79.3612 64.7763 79.0701 64.4158 78.8484C64.6069 77.9878 65.0105 77.1888 65.5897 76.5244C65.8746 76.2167 66.2652 76.0281 66.6833 75.9964C67.1014 75.9647 67.516 76.0922 67.844 76.3534C67.8585 76.3684 67.8719 76.3845 67.8838 76.4017C67.738 76.5187 67.6237 76.6702 67.5511 76.8426C67.4134 76.8842 67.2714 76.91 67.1278 76.9192C67.0604 76.9238 66.9953 76.9462 66.9393 76.9841C66.8832 77.022 66.8382 77.074 66.8088 77.1349C66.7794 77.1958 66.7666 77.2633 66.7717 77.3308C66.7768 77.3982 66.7997 77.4631 66.838 77.5188C67.0167 77.7804 67.0999 78.0954 67.0738 78.4111C67.0477 78.7267 66.9138 79.0238 66.6946 79.2524C66.6241 79.3258 66.5857 79.4241 66.5877 79.5257C66.5897 79.6274 66.632 79.7241 66.7053 79.7945C66.7787 79.865 66.877 79.9035 66.9786 79.9014C67.0803 79.8994 67.177 79.8571 67.2474 79.7838C67.3914 79.6337 67.5127 79.4635 67.6078 79.2785C67.6621 79.4959 67.7312 79.7093 67.8148 79.9172C67.8555 80.0105 67.9315 80.0837 68.0262 80.1209C68.1209 80.1581 68.2265 80.1561 68.3197 80.1154C68.413 80.0748 68.4862 79.9987 68.5234 79.904C68.5606 79.8093 68.5586 79.7038 68.5179 79.6105C68.179 78.8315 67.9812 77.2451 68.3424 77.012C68.4206 76.973 68.507 76.9533 68.5944 76.9547C68.6818 76.956 68.7676 76.9783 68.8446 77.0197C69.2002 77.1868 69.4805 77.4808 69.6305 77.8439C70.2109 79.4342 69.0669 81.7482 66.8089 82.2006L66.8096 82.1998Z" fill="#4B1010"/>
<path d="M32.2988 81.0189C32.2988 81.2845 32.3511 81.5475 32.4528 81.7929C32.5544 82.0384 32.7034 82.2613 32.8913 82.4492C33.0791 82.637 33.3021 82.786 33.5475 82.8876C33.7929 82.9893 34.0559 83.0416 34.3215 83.0416C34.5871 83.0416 34.8502 82.9893 35.0956 82.8876C35.341 82.786 35.5639 82.637 35.7518 82.4492C35.9396 82.2613 36.0886 82.0384 36.1902 81.7929C36.2919 81.5475 36.3442 81.2845 36.3442 81.0189C36.3442 80.7533 36.2919 80.4903 36.1902 80.2449C36.0886 79.9994 35.9396 79.7765 35.7518 79.5886C35.5639 79.4008 35.341 79.2518 35.0956 79.1502C34.8502 79.0485 34.5871 78.9962 34.3215 78.9962C34.0559 78.9962 33.7929 79.0485 33.5475 79.1502C33.3021 79.2518 33.0791 79.4008 32.8913 79.5886C32.7034 79.7765 32.5544 79.9994 32.4528 80.2449C32.3511 80.4903 32.2988 80.7533 32.2988 81.0189Z" fill="#FFE55D"/>
<path d="M32.1035 82.3003C32.0169 82.3004 31.9329 82.2712 31.865 82.2175C30.8893 81.4417 29.9632 80.6053 29.0924 79.7133C28.9504 79.5805 28.8412 79.4164 28.7735 79.2341C28.7344 79.0547 28.7344 78.869 28.7735 78.6897C28.8118 78.281 28.8831 77.8762 28.9866 77.479C29.0121 77.3806 29.0757 77.2963 29.1634 77.2448C29.251 77.1932 29.3555 77.1786 29.454 77.2041C29.5524 77.2296 29.6366 77.2932 29.6882 77.3808C29.7397 77.4685 29.7544 77.573 29.7288 77.6714C29.6156 78.1144 29.544 78.567 29.5149 79.0232C30.3913 79.9567 31.3362 80.8232 32.3419 81.6156C32.4047 81.665 32.4504 81.7327 32.4729 81.8093C32.4953 81.8859 32.4932 81.9676 32.4669 82.043C32.4407 82.1184 32.3916 82.1837 32.3264 82.2299C32.2612 82.276 32.1833 82.3006 32.1035 82.3003Z" fill="#4B1010"/>
<path d="M32.6138 83.6412C32.3317 83.6412 31.9728 83.2578 31.8341 82.9848C31.8112 82.9399 31.7975 82.891 31.7936 82.8407C31.7897 82.7905 31.7958 82.74 31.8114 82.6921C31.827 82.6443 31.8519 82.5999 31.8847 82.5617C31.9175 82.5234 31.9574 82.492 32.0024 82.4692C32.0473 82.4464 32.0962 82.4326 32.1464 82.4288C32.1967 82.4249 32.2471 82.4309 32.295 82.4465C32.3429 82.4622 32.3872 82.4871 32.4255 82.5198C32.4638 82.5526 32.4952 82.5926 32.518 82.6375C32.579 82.7578 32.6757 82.8563 32.7948 82.9196C32.8702 82.9599 32.93 83.0243 32.9646 83.1025C32.9993 83.1806 33.0068 83.2681 32.986 83.3511C32.9652 83.434 32.9173 83.5076 32.8498 83.5601C32.7824 83.6127 32.6993 83.6412 32.6138 83.6412Z" fill="#4B1010"/>
<path d="M33.4808 83.2947C33.3841 83.2948 33.291 83.2584 33.2201 83.1927L32.7186 82.7273C32.644 82.6582 32.5999 82.5622 32.596 82.4605C32.5921 82.3589 32.6288 82.2598 32.6979 82.1852C32.767 82.1106 32.863 82.0665 32.9647 82.0626C33.0663 82.0587 33.1654 82.0954 33.24 82.1645L33.7422 82.6299C33.7989 82.6824 33.8384 82.7507 33.8556 82.8259C33.8728 82.9011 33.8669 82.9798 33.8386 83.0517C33.8104 83.1235 33.7611 83.1851 33.6972 83.2285C33.6334 83.2718 33.5579 83.2949 33.4808 83.2947Z" fill="#4B1010"/>
</svg>
