<svg width="154" height="154" viewBox="0 0 154 154" fill="none" xmlns="http://www.w3.org/2000/svg">
<path d="M32.4183 68.2563C30.3279 56.0051 44.6657 44.7554 57.227 53.4514C69.2224 61.7555 63.3266 82.6246 46.8135 81.6483C39.7124 81.2264 33.8349 76.5587 32.4183 68.2563ZM48.4467 73.3099C48.5547 73.9936 48.5095 74.0503 47.7989 74.0756C44.671 74.1851 43.2905 70.8887 42.4972 71.6789C42.1909 71.9791 42.5286 72.5978 42.7055 72.8022C45.606 76.195 48.0394 75.2096 48.6374 75.6108C49.2354 76.012 48.6764 77.692 49.4712 77.5963C50.0608 77.5251 50.0616 77.0143 49.8541 75.8872C49.619 74.6299 51.8594 75.5327 53.3541 72.2379C54.6726 69.3321 53.8372 66.7463 49.1305 65.8596C48.3135 65.7065 48.6044 65.8466 47.6481 59.0127C47.5884 58.5855 47.756 58.5181 48.1297 58.5533C49.3754 58.6444 50.5787 59.0449 51.6305 59.7187C51.8257 59.8496 52.0585 60.1146 52.2744 59.845C53.0065 58.9308 49.7231 57.5686 47.9398 57.5005C47.1236 57.4698 47.266 57.1031 47.1067 55.6819C47.0386 55.077 46.3211 55.0579 46.3303 55.7248C46.351 57.2302 46.7024 57.44 45.9475 57.6391C42.1572 58.6605 40.6243 63.4637 43.8877 65.4737C46.841 67.293 47.24 65.816 47.6098 67.2608C47.792 67.9929 48.3066 72.4255 48.4467 73.3099Z" fill="#38A1FF"/>
<path d="M46.5372 44.43C46.7079 46.0862 47.456 48.3488 46.2363 48.5341C44.8963 48.7363 44.9476 46.1406 44.8963 44.9208C44.8603 44.0494 44.796 40.064 45.3932 40.031C45.9216 40.0019 46.4514 43.8986 46.5372 44.43Z" fill="#38A1FF"/>
<path d="M52.0913 48.8565C51.8762 47.6314 55.1059 42.7394 55.6656 42.9101C56.4903 43.1628 54.3142 48.8627 53.4719 49.4415C53.3539 49.544 53.2096 49.6112 53.0553 49.6357C52.901 49.6601 52.7429 49.6407 52.5991 49.5798C52.4552 49.5188 52.3314 49.4187 52.2416 49.2909C52.1519 49.163 52.0998 49.0125 52.0913 48.8565Z" fill="#38A1FF"/>
<path d="M39.5148 50.6245C39.661 51.4514 39.0201 51.6781 38.4964 51.4055C37.3065 50.7837 33.7215 46.5509 34.099 46.1819C34.6717 45.6229 39.5102 50.0617 39.5148 50.6245Z" fill="#38A1FF"/>
<path d="M46.8256 65.4477C39.0506 64.1039 46.298 56.7953 46.6533 59.3681C47.5445 65.8337 47.5415 65.5718 46.8256 65.4477Z" fill="#38A1FF"/>
<path d="M49.4642 72.7816C48.6219 66.9049 48.5653 66.9049 49.1679 67.0457C54.6419 68.3222 52.6993 72.0871 50.2988 73.5113C49.6005 73.9271 49.6174 73.8459 49.4642 72.7816Z" fill="#38A1FF"/>
<path fill-rule="evenodd" clip-rule="evenodd" d="M94.7485 120.753C94.9821 112.139 93.3634 103.167 91.564 93.189L91.5203 92.947C90.9962 93.365 90.4812 93.7944 89.9759 94.2349C93.9598 119.12 94.8136 128.068 87.7148 131.789C79.9866 135.838 72.5057 137.031 66.6917 137.925C65.1672 138.159 63.5516 138.423 61.8724 138.698C45.4497 141.381 22.9657 145.054 20.52 131.73C20.1287 129.616 19.728 127.504 19.3179 125.394C18.5116 121.211 17.7046 117.03 17.046 112.825C16.2405 107.686 15.4802 102.847 14.7643 98.287L14.762 98.2732L14.7604 98.264C3.71368 27.9605 3.15472 24.4046 10.7099 20.7829C15.2091 18.6251 18.3018 17.6948 39.9635 15.3801C41.2575 15.2423 42.8808 15.047 44.72 14.8265C53.5225 13.7713 67.2698 12.1228 73.5172 13.2361C78.1014 15.1144 78.3419 16.7821 83.4368 52.1337L83.7776 54.4997C84.673 60.7024 85.6077 66.8993 86.5816 73.0901C87.1047 72.7709 87.6347 72.463 88.1712 72.1667C87.5241 67.7276 86.8784 63.2883 86.2339 58.8489C83.4192 39.4782 82.5647 33.6014 80.7071 22.9146C78.299 9.0554 76.5057 9.09828 45.0753 12.2445C45.0454 12.2445 41.9474 12.5707 42.1564 12.6274C39.138 13.034 36.3294 13.3923 33.7215 13.7246C10.046 16.7438 2.83925 17.6626 3.9342 33.6926C4.67157 44.4751 17.1349 130.11 19.8439 135.607C23.458 142.946 35.3455 144.289 43.4459 143.309C69.583 140.145 78.4108 138.283 85.812 134.877C93.0946 131.528 94.5311 128.765 94.7485 120.753ZM82.1658 76.1185C78.5264 49.4782 74.4437 20.763 73.8503 20.8311C73.1305 20.913 77.0348 49.0471 78.8105 61.8397L79.2913 65.3121C79.8656 69.4791 80.4039 73.4102 80.9077 77.1077C81.3222 76.7718 81.7415 76.442 82.1658 76.1185ZM83.995 99.7778C86.4322 117.501 87.5333 124.299 88.067 120.57C88.0019 119.821 86.8419 110.892 85.2087 98.6576C84.8067 99.0343 84.4024 99.4088 83.995 99.7778ZM62.5478 91.9807C58.9337 92.5404 54.9689 93.202 51.6465 93.7556L51.6404 93.7571L48.9267 94.2081C46.743 94.5695 44.8915 94.8674 43.3241 95.1193C35.7666 96.3352 34.7919 96.4922 34.8769 97.591C34.9779 99.2284 35.2194 100.854 35.599 102.45C35.7506 103.374 36.3333 103.259 36.9389 103.142C37.0308 103.124 37.1227 103.106 37.2131 103.091L39.589 102.717C39.6909 102.25 39.7919 101.799 39.8907 101.369C39.125 101.481 38.4703 101.573 37.9535 101.642C37.8486 101.655 37.7544 101.67 37.6702 101.683C37.3846 101.727 37.2031 101.755 37.0745 101.686C36.8516 101.566 36.785 101.155 36.602 100.03C36.527 99.5673 36.4328 98.9838 36.2996 98.2503C36.1763 97.5726 36.5599 97.2533 50.4267 95.2663L56.9773 94.261C56.9651 94.2893 56.952 94.3169 56.9405 94.3452C58.9877 94.0556 61.0329 93.7529 63.0761 93.4371C62.864 92.9654 62.6874 92.4786 62.5478 91.9807ZM65.3472 97.3322C65.6343 97.7403 65.9421 98.1591 66.2721 98.5887C64.23 98.9141 61.6259 99.3123 58.3058 99.8192L56.4934 100.096C56.4366 99.6617 56.3939 99.2252 56.3655 98.7878C59.6611 98.2571 62.8234 97.7434 65.3472 97.3322ZM45.8831 18.9115C44.9581 18.7055 44.4872 20.0149 45.6733 20.3663C45.7697 20.3821 45.8683 20.3785 45.9633 20.3557C46.0583 20.3329 46.1478 20.2915 46.2266 20.2337C46.3054 20.1759 46.3719 20.103 46.4222 20.0192C46.4725 19.9355 46.5056 19.8425 46.5195 19.7458C46.5335 19.6491 46.528 19.5506 46.5034 19.456C46.4788 19.3615 46.4357 19.2728 46.3764 19.1951C46.3172 19.1174 46.243 19.0523 46.1583 19.0036C46.0736 18.9549 45.98 18.9236 45.8831 18.9115ZM39.9321 20.4873C40.4374 18.4054 42.5768 19.1657 42.3693 20.6481C42.1243 22.3947 39.9933 22.1343 39.9321 20.4873ZM12.1946 30.312C14.7581 41.5096 26.8394 129.886 26.8332 129.858C26.9802 130.614 26.1893 130.884 26.0315 130.02C26.0262 129.992 12.1364 41.3036 11.5391 30.3855C11.4917 29.5203 11.8546 28.8319 12.1938 30.312H12.1946ZM83.9407 125.666C78.554 127.616 52.5814 137.022 29.0568 132.165C28.4626 133.417 35.282 134.508 36.8057 134.671C63.3372 137.473 88.9177 124.283 84.9031 125.329C84.7868 125.36 84.459 125.479 83.9407 125.666ZM64.6221 19.1312C64.7063 19.1466 70.8663 18.3594 71.1129 17.7683C70.5463 17.0233 65.5991 17.8012 64.7453 17.962C57.5432 18.7576 56.8257 20.0164 56.0906 21.3051C55.7315 21.9345 55.3686 22.5708 54.2453 23.1642C50.6197 25.08 42.3647 25.8947 38.2667 26.0225C33.3876 26.1749 31.9389 24.9199 30.6832 23.8326C29.7705 23.0424 28.9603 22.3411 27.0109 22.3303C22.9603 22.3081 12.1915 25.1022 12.6157 26.1879C12.7535 26.5417 14.0813 26.1428 16.0637 25.547C18.8248 24.7178 22.8569 23.5072 26.7168 23.4146C28.6816 23.3679 29.4703 24.1091 30.3784 24.9628C31.3509 25.8771 32.4611 26.9199 35.2996 27.2599C38.6985 27.6734 45.1036 27.1987 49.756 26.1879C52.9313 25.4988 55.9061 24.5287 57.5255 21.4107C57.6465 21.3035 57.7552 21.204 57.8556 21.1136H57.8563C58.158 20.8395 58.3831 20.6351 58.6343 20.4689C59.3793 19.975 60.3494 19.8188 64.2009 19.1994L64.6221 19.1312Z" fill="#191919"/>
<path d="M114.355 85.5956C112.052 86.5611 108.566 85.4945 101.487 87.6339C88.7346 91.4884 85.6319 101.36 75.2039 105.666C74.7283 105.891 74.1936 105.959 73.677 105.86C73.1603 105.761 72.6884 105.501 72.3294 105.116C68.3309 101.433 63.1877 96.0435 62.37 90.6247C62.1732 89.323 63.6717 89.7357 67.8562 87.326C78.0324 81.4715 75.9979 80.032 85.0684 74.058C90.6901 70.3558 97.3962 67.594 103.957 69.0871C108.136 70.0381 115.249 83.2678 113.943 83.8574C113.134 84.2219 110.83 78.0121 104.699 71.0626C103.796 70.0381 95.9107 69.388 86.7192 75.0442C79.7514 79.3321 77.4466 83.9907 69.174 88.2043C63.5277 91.081 63.1747 90.5182 63.4351 91.336C65.4175 97.5719 71.9879 103.122 73.1365 104.273C73.3034 104.463 73.531 104.59 73.7808 104.632C74.0306 104.674 74.2872 104.628 74.5071 104.502C82.3119 101.346 86.6266 92.2013 97.1588 87.2931C104.4 83.9202 112.35 83.839 114.355 85.5956Z" fill="#38A1FF"/>
<path d="M81.9053 85.0611C81.5385 82.398 84.1097 82.0795 82.9972 80.3283C82.8402 80.0818 82.5929 79.7028 82.9122 79.5075C83.2904 79.2778 83.3992 79.7724 83.5699 79.9861C84.5837 81.2571 84.4888 79.7104 86.8463 79.5887C87.0715 79.5772 87.3732 79.5389 87.4298 79.8122C87.4972 80.143 87.1434 80.1116 86.9543 80.1614C86.181 80.3643 84.2583 81.0841 84.7208 81.7824C86.4367 84.3758 86.2338 84.4769 86.8104 84.3391C89.037 83.8077 91.0156 84.4049 90.2606 86.5665C89.6565 88.2962 88.5699 88.0519 89.2208 88.9608C90.2323 90.372 89.6136 90.6821 88.7805 89.4256C88.0278 88.2901 87.648 89.8261 85.2652 89.8085C85.0615 89.8085 84.7453 89.8536 84.7039 89.552C84.6725 89.3222 84.9505 89.3222 85.1082 89.2457C87.501 88.0144 87.7323 88.0512 87.3563 87.5512C86.037 85.7962 86.1427 85.4172 85.5056 85.6553C84.2269 86.1346 82.1924 87.1423 81.9053 85.0611ZM83.9443 85.2977C85.0929 84.8904 85.5523 84.862 85.2292 84.3605C84.0201 82.5029 84.0087 81.9271 83.6212 82.4715C83.1785 83.0736 82.9067 83.7843 82.8348 84.5282C82.7721 85.261 83.0316 85.4715 83.9443 85.2977ZM87.7621 85.0443C86.7223 85.1974 86.7575 85.1063 88.0868 87.1637C88.1779 87.3046 88.2606 87.5382 88.5041 87.3345C88.763 87.144 88.9803 86.9028 89.1429 86.6256C89.3055 86.3483 89.4099 86.0408 89.4497 85.7219C89.5225 84.8888 88.5148 85.0412 87.7621 85.0443Z" fill="#38A1FF"/>
<path d="M75.651 101.943C73.3539 101.628 65.7558 91.9846 67.2612 91.2388C67.6218 91.0604 67.5813 91.1064 70.131 94.9708C72.2176 98.1401 75.1862 100.722 75.6517 101.943H75.651Z" fill="#38A1FF"/>
<path d="M108.982 81.8191C108.437 81.4477 105.638 77.0021 102.918 73.4868C102.765 73.2877 102.527 73.0197 102.812 72.7777C103.814 71.9316 109.176 80.2969 108.982 81.8191Z" fill="#38A1FF"/>
<path d="M78.8866 84.326C78.5559 86.1821 70.6301 90.9876 70.2342 90.2074C69.941 89.6193 70.5635 90.0252 78.8866 84.326Z" fill="#38A1FF"/>
<path d="M149.225 42.6291C149.358 44.5586 149.187 46.4959 148.717 48.3718C148.151 50.8009 147.056 53.0754 145.511 55.0334C136.957 67.0028 121.752 64.8765 115.971 73.3275C115.242 74.3918 114.641 74.2464 114.41 73.6139C112.478 68.2793 109.45 58.0641 107.618 55.8305C106.863 54.9117 107.363 54.2026 108.168 53.6597C116.357 48.1306 129.004 50.7279 133.39 35.8128C133.955 33.8886 134.444 34.1375 135.524 34.6022C137.371 35.4016 149.24 40.8442 149.225 42.6291ZM148.316 43.2945C148.163 42.0249 135.523 35.8794 135.331 35.7807C133.468 34.8205 135.748 38.8435 129.33 45.7225C124.115 51.3121 117.346 50.1773 109.245 54.5097C107.642 55.3673 110.353 54.7394 114.196 68.8176C114.579 70.2081 114.968 72.9937 115.574 71.9921C121.625 61.9775 145.122 66.3306 148.316 43.2945Z" fill="#38A1FF"/>
<path d="M132.821 57.1123C130.74 54.1797 131.51 54.5855 129.198 55.3512C127.781 55.8221 126.789 54.9309 127.082 53.4508C127.576 50.9553 128.932 51.0128 128.405 50.0212C127.55 48.4132 128.142 48.0686 128.999 49.5365C129.388 50.2027 129.476 49.4446 131.187 48.8841C132.46 48.4668 133.171 49.0487 132.253 49.2915C131.469 49.4926 130.727 49.8323 130.063 50.2945C129.45 50.7218 129.862 50.7861 131.322 53.2042C131.711 53.8482 131.903 53.3573 133.514 53.3512C135.547 53.3436 136.047 54.5962 135.189 56.2869C134.665 57.3183 133.839 57.3551 134.372 58.0718C135.367 59.4087 134.699 59.5113 134.453 59.2065C132.736 57.074 133.859 58.6613 130.931 58.9577C130.586 58.9929 129.916 59.0656 129.867 58.7211C129.844 58.5411 129.821 58.6322 132.821 57.1131V57.1123ZM129.145 54.463C130.379 54.0143 130.688 53.9913 130.475 53.6437C129.101 51.4063 129.131 51.2409 128.825 51.6131C128.359 52.2181 128.081 52.9465 128.025 53.708C127.941 54.4385 128.201 54.6384 129.148 54.463H129.145ZM132.453 54.9913C133.295 56.4018 133.285 56.5358 133.584 56.5227C134.131 56.4936 135.631 54.205 133.681 54.2011C131.943 54.195 132.111 54.4117 132.456 54.9913H132.453Z" fill="#38A1FF"/>
<path d="M116.386 67.4546C115.198 64.9102 115.386 63.9454 111.787 55.8274C111.644 55.5058 111.189 55.0495 111.674 54.8075C112.146 54.5725 112.257 55.198 112.419 55.5081C113.654 57.8711 116.644 64.1805 116.875 67.4914C116.88 67.5901 116.795 68.3329 116.386 67.4546Z" fill="#38A1FF"/>
<path d="M145.942 44.2745C144.144 43.3243 144.082 43.3917 135.922 38.6895C135.678 38.5494 135.206 38.4031 135.368 38.0769C135.859 37.0923 146.321 43.7163 145.942 44.2745Z" fill="#38A1FF"/>
<path d="M129.61 61.2785C117.245 65.5442 117.928 66.705 117.571 66.3252C116.655 65.3528 127.599 60.5366 129.61 61.2785Z" fill="#38A1FF"/>
<path d="M47.1122 103.651C45.1597 102.901 45.9085 101.032 44.2952 101.129C44.0655 101.143 43.7178 101.169 43.7041 100.877C43.6888 100.533 44.067 100.648 44.2783 100.609C45.5249 100.4 44.4368 99.8796 45.2393 98.2265C45.3159 98.0733 45.4032 97.849 45.6099 97.9133C45.8626 97.9899 45.7079 98.2196 45.6696 98.3689C45.5165 98.9715 45.2868 100.553 45.9361 100.5C48.3503 100.304 48.3419 100.48 48.4629 100.04C48.9376 98.3229 50.0892 97.1981 51.2776 98.5251C52.2301 99.5879 51.6536 100.236 52.518 100.133C53.8588 99.9738 53.8389 100.512 52.6712 100.608C51.6145 100.694 52.518 101.527 51.6145 103.15C51.5379 103.288 51.4476 103.521 51.2317 103.436C51.0617 103.37 51.1673 103.183 51.1712 103.043C51.2271 100.951 51.345 100.806 50.8611 100.874C49.1689 101.113 48.9514 100.9 48.8741 101.424C48.7163 102.474 48.639 104.237 47.113 103.651H47.1122ZM48.0395 102.349C48.1926 101.412 48.3457 101.086 47.8863 101.124C46.1658 101.249 45.7676 101.041 45.9935 101.507C46.2375 102.034 46.6195 102.486 47.0992 102.815C47.5724 103.136 47.8159 103.037 48.0395 102.351V102.349ZM49.3029 99.6499C49.015 100.416 48.966 100.351 50.8695 100.226C50.9997 100.217 51.1895 100.249 51.1421 100.006C51.1097 99.7578 51.0271 99.5188 50.8994 99.3036C50.7717 99.0884 50.6016 98.9014 50.3993 98.754C49.858 98.3926 49.5839 99.1369 49.3029 99.6499Z" fill="#38A1FF"/>
<path d="M47.1122 103.651C45.1597 102.901 45.9085 101.032 44.2952 101.129C44.0655 101.143 43.7178 101.169 43.7041 100.877C43.6888 100.533 44.067 100.648 44.2783 100.609C45.5249 100.4 44.4368 99.8796 45.2393 98.2265C45.3159 98.0733 45.4032 97.849 45.6099 97.9133C45.8626 97.9899 45.7079 98.2196 45.6696 98.3689C45.5165 98.9715 45.2868 100.553 45.9361 100.5C48.3503 100.304 48.3419 100.48 48.4629 100.04C48.9376 98.3229 50.0892 97.1981 51.2776 98.5251C52.2301 99.5879 51.6536 100.236 52.518 100.133C53.8588 99.9738 53.8389 100.512 52.6712 100.608C51.6145 100.694 52.518 101.527 51.6145 103.15C51.5379 103.288 51.4476 103.521 51.2317 103.436C51.0617 103.37 51.1673 103.183 51.1712 103.043C51.2271 100.951 51.345 100.806 50.8611 100.874C49.1689 101.113 48.9514 100.9 48.8741 101.424C48.7163 102.474 48.639 104.237 47.113 103.651H47.1122ZM48.0395 102.349C48.1926 101.412 48.3457 101.086 47.8863 101.124C46.1658 101.249 45.7676 101.041 45.9935 101.507C46.2375 102.034 46.6195 102.486 47.0992 102.815C47.5724 103.136 47.8159 103.037 48.0395 102.351V102.349ZM49.3029 99.6499C49.015 100.416 48.966 100.351 50.8695 100.226C50.9997 100.217 51.1895 100.249 51.1421 100.006C51.1097 99.7578 51.0271 99.5188 50.8994 99.3036C50.7717 99.0884 50.6016 98.9014 50.3993 98.754C49.858 98.3926 49.5839 99.1369 49.3029 99.6499Z" fill="#38A1FF"/>
<path d="M59.1552 115.201C59.1368 115.201 45.8182 114.335 39.9637 116.823C39.7325 116.921 39.4806 116.961 39.2305 116.938C38.9804 116.915 38.7398 116.83 38.5303 116.692C38.3205 116.554 38.1486 116.365 38.03 116.144C37.9114 115.922 37.8499 115.675 37.8511 115.423C37.8702 108.282 40.9246 97.1943 41.0601 96.7027L42.3848 96.4792C40.4292 103.554 38.4032 115.136 39.2056 115.667C39.5663 115.906 45.5808 112.951 58.6697 113.955C58.4714 111.25 53.4025 100.072 55.9408 94.4294L56.9775 94.2594C54.123 100.607 61.966 114.714 59.1552 115.201Z" fill="#38A1FF"/>
</svg>
