<svg width="155" height="154" viewBox="0 0 155 154" fill="none" xmlns="http://www.w3.org/2000/svg">
<path d="M14.2352 87.7602C10.3149 85.8057 7.00314 82.8171 4.65771 79.1174C6.22188 79.5843 7.86273 79.7431 9.48823 79.5843C15.4834 79.3543 21.4794 78.6504 27.1633 76.7037C28.2355 78.6275 29.746 80.2716 31.5722 81.5027C33.3985 82.7337 35.4891 83.5171 37.6747 83.7892C36.9739 83.7125 35.2656 84.8887 34.6384 85.1908C33.6291 85.6532 32.5883 86.0434 31.5238 86.3586C26.2984 88.0009 18.9645 90.1018 14.2352 87.7602Z" fill="white"/>
<path d="M19.3027 89.1088C17.5105 89.152 15.7332 88.7735 14.1141 88.004C10.1446 86.0344 6.79358 83.0106 4.42777 79.2638C4.39803 79.217 4.38327 79.1623 4.38547 79.1069C4.38766 79.0516 4.4067 78.9982 4.44004 78.9539C4.47338 78.9097 4.51943 78.8766 4.57204 78.8593C4.62466 78.8419 4.68132 78.841 4.73447 78.8566C6.26413 79.3136 7.86817 79.4685 9.45764 79.3129C16.5761 79.0353 22.168 78.1244 27.0706 76.446C27.1309 76.4251 27.1966 76.4261 27.2562 76.4488C27.3157 76.4715 27.3654 76.5145 27.3965 76.5702C28.4516 78.4538 29.9339 80.0637 31.7241 81.2704C33.5144 82.4771 35.5628 83.2471 37.7047 83.5185C37.7493 83.5234 37.792 83.5394 37.8289 83.5649C37.8658 83.5904 37.8958 83.6247 37.9163 83.6646C37.9367 83.7046 37.9469 83.749 37.946 83.7939C37.9451 83.8388 37.933 83.8827 37.9109 83.9218C37.8848 83.969 37.8451 84.0074 37.797 84.032C37.749 84.0566 37.6946 84.0663 37.641 84.0598C37.0637 83.9962 35.3224 85.1517 34.7565 85.4346C31.6773 86.8561 23.8603 89.1088 19.3027 89.1088ZM5.28039 79.5674C7.56921 82.9562 10.6955 85.6956 14.3556 87.5194C17.6105 89.1295 21.4757 88.5606 24.8486 87.8859C28.1535 87.1949 31.3905 86.2114 34.5211 84.9469C34.9114 84.7514 35.6973 84.2362 36.4633 83.8681C34.5017 83.4508 32.6492 82.6275 31.0249 81.4512C29.4006 80.2748 28.0406 78.7715 27.0323 77.0379C22.1251 78.688 16.5478 79.5858 9.49291 79.8603C8.0822 79.9961 6.65874 79.8971 5.28039 79.5674Z" fill="#4B1010"/>
<path d="M17.5048 86.9428C17.4369 86.9413 17.372 86.9147 17.3225 86.8681C17.2731 86.8215 17.2427 86.7583 17.2372 86.6906C17.2317 86.6226 17.252 86.555 17.2941 86.5013C17.3361 86.4476 17.3968 86.4117 17.4642 86.4007C20.5033 85.9391 23.4858 85.1609 26.3631 84.079C26.4298 84.0571 26.5024 84.0619 26.5657 84.0924C26.629 84.1228 26.6781 84.1765 26.7027 84.2423C26.7276 84.3078 26.7263 84.3804 26.699 84.445C26.6717 84.5096 26.6206 84.5611 26.5563 84.5889C23.6279 85.682 20.5947 86.4708 17.5048 86.9428Z" fill="#FFE55D"/>
<path d="M12.9553 83.5967C17.3911 83.0477 21.7569 82.0341 25.9808 80.5727C26.0152 80.5586 26.052 80.5518 26.0892 80.5525C26.1263 80.5532 26.1628 80.5614 26.1966 80.5768C26.2304 80.5921 26.2608 80.6141 26.2858 80.6416C26.3107 80.669 26.3299 80.7012 26.342 80.7363C26.3541 80.7714 26.3589 80.8086 26.3562 80.8456C26.3534 80.8826 26.3432 80.9187 26.326 80.9516C26.3089 80.9845 26.2852 81.0135 26.2564 81.037C26.2277 81.0604 26.1944 81.0778 26.1587 81.0879C21.8987 82.5616 17.4956 83.5837 13.022 84.1373C12.9504 84.1455 12.8785 84.1253 12.8217 84.081C12.7649 84.0367 12.7278 83.9718 12.7184 83.9004C12.714 83.8649 12.7166 83.8288 12.7261 83.7944C12.7357 83.7599 12.7519 83.7276 12.7739 83.6994C12.7959 83.6712 12.8233 83.6477 12.8544 83.63C12.8855 83.6124 12.9198 83.6011 12.9553 83.5967Z" fill="#FFE55D"/>
<path d="M35.9587 58.4825C35.0281 59.5093 34.3695 60.7528 34.0431 62.0995C33.7167 63.4462 33.7329 64.8533 34.0901 66.1922C34.9466 68.839 37.3603 70.6301 39.4627 72.4212C41.5652 74.2124 43.7197 76.4697 43.745 79.2729C43.7841 83.6334 39.8484 85.5648 36.1926 86.5141C30.5419 87.9564 24.7385 88.7146 18.907 88.7722C20.4579 88.6334 21.9798 88.266 23.4231 87.6818C24.1809 87.3769 24.8647 86.9134 25.4287 86.3225C25.9927 85.7317 26.4239 85.0271 26.6933 84.256C26.8193 83.6026 26.8009 82.9296 26.6395 82.284C26.478 81.6385 26.1774 81.036 25.7586 80.5189C24.9176 79.4923 23.9496 78.5767 22.878 77.7938C20.5819 76.1302 18.626 74.042 17.1158 71.6422C16.1566 70.1003 15.1691 67.9825 15.4029 66.114C15.6368 64.2454 18.2821 63.152 19.7627 62.1399C21.9395 60.6562 24.9129 59.993 27.3934 59.1036C32.6348 57.225 37.5911 55.2882 43.1217 54.3497C40.3739 54.9787 37.8785 56.4185 35.9587 58.4825Z" fill="white"/>
<path d="M18.9082 89.0451C18.8563 89.0445 18.8057 89.0292 18.7621 89.001C18.7186 88.9728 18.6839 88.9328 18.6622 88.8857C18.6404 88.8386 18.6325 88.7863 18.6392 88.7348C18.646 88.6834 18.6672 88.6349 18.7004 88.595C18.7459 88.5422 18.8097 88.5085 18.8791 88.5007C20.4049 88.3719 21.9016 88.01 23.317 87.4273C24.0397 87.1371 24.6918 86.6957 25.2297 86.1325C25.7676 85.5694 26.1787 84.8977 26.4354 84.1625C26.5409 83.5525 26.5161 82.927 26.3626 82.3273C26.209 81.7276 25.9302 81.1672 25.5444 80.683C24.7172 79.6786 23.7681 78.7812 22.7189 78.0116C20.426 76.2932 18.4519 74.1863 16.8863 71.7864C15.5107 69.493 14.938 67.6275 15.132 66.0764C15.385 64.0545 18.0456 62.981 19.609 61.9145C21.8326 60.4055 24.8014 59.743 27.3049 58.8475C32.5839 56.9536 37.5471 55.0214 43.0769 54.0875C43.1468 54.0765 43.2183 54.093 43.2763 54.1335C43.3343 54.1741 43.3743 54.2355 43.388 54.305C43.4017 54.3744 43.388 54.4464 43.3497 54.506C43.3114 54.5655 43.2516 54.6079 43.1827 54.6242C40.4968 55.2591 38.0553 56.6655 36.1585 58.6704C35.2692 59.6699 34.6394 60.8729 34.3246 62.1732C34.0099 63.4736 34.0198 64.8314 34.3536 66.127C35.1809 68.6833 37.5693 70.453 39.6388 72.2165C41.6776 73.9532 44.0177 76.3248 44.0177 79.276C44.0829 82.9234 41.4721 85.4506 36.2597 86.7817C30.5934 88.2593 24.764 89.0197 18.9082 89.0451ZM39.6587 55.3519C35.5344 56.4735 31.4722 57.8118 27.4889 59.3612C24.9885 60.2583 22.0626 60.9131 19.9157 62.3699C18.4497 63.3728 15.8872 64.434 15.6733 66.1492C15.4946 67.5754 16.0428 69.3266 17.3494 71.5034C18.8776 73.8451 20.8041 75.9009 23.0417 77.5776C24.128 78.3743 25.1104 79.3037 25.9661 80.3441C26.4049 80.8951 26.7209 81.5336 26.8928 82.2168C27.0647 82.8999 27.0886 83.6119 26.9629 84.3051C26.6849 85.122 26.2339 85.8693 25.6407 86.496C25.0475 87.1227 24.326 87.614 23.5256 87.9364C23.1268 88.1043 22.722 88.2531 22.3049 88.3842C26.9713 88.1402 31.6011 87.4258 36.124 86.2519C41.0619 84.9913 43.5339 82.6481 43.4741 79.279C43.4741 76.2826 40.8548 73.9417 38.6006 72.0517C36.6439 70.4108 34.6204 68.714 33.8314 66.2773C33.4673 64.8927 33.4526 63.4393 33.7885 62.0476C34.1244 60.6558 34.8004 59.3692 35.756 58.3031C36.8863 57.112 38.2048 56.115 39.6587 55.3519Z" fill="#4B1010"/>
<path d="M65.718 55.7852C52.3712 52.5772 42.694 52.466 26.4604 59.0286C22.8743 60.3336 19.4922 62.1427 16.416 64.4012C24.0337 60.9217 36.6505 62.7535 44.8363 64.5231C51.6313 61.2514 59.6331 58.2174 65.718 55.7852Z" fill="white"/>
<path d="M45.2343 64.3313C37.4947 62.6314 25.9996 60.953 18.3981 63.353C20.9592 61.6945 23.6983 60.3286 26.5639 59.2808C42.4295 52.8677 52.1297 52.847 65.2802 55.9615L66.1543 55.6119C52.5138 52.3049 42.7792 52.1385 26.3677 58.7724C22.7565 60.0848 19.3514 61.9066 16.2558 64.1826C16.2013 64.2225 16.1636 64.2813 16.1501 64.3475C16.1365 64.4137 16.1481 64.4826 16.1825 64.5408C16.2169 64.5989 16.2718 64.6422 16.3363 64.6621C16.4009 64.6821 16.4706 64.6773 16.5318 64.6488C23.9961 61.239 36.4128 63.0072 44.4415 64.7162C44.7045 64.5874 44.969 64.4594 45.2351 64.3313H45.2343Z" fill="#4B1010"/>
<path d="M42.1109 62.1039C42.0506 62.103 41.9923 62.0822 41.9451 62.0448C41.8978 62.0073 41.8642 61.9554 41.8496 61.8969C41.8349 61.8384 41.8399 61.7767 41.8639 61.7214C41.8878 61.6661 41.9294 61.6203 41.9821 61.591C46.6276 59.1383 51.4565 57.05 56.4253 55.345C56.4935 55.3212 56.5684 55.3255 56.6335 55.3569C56.6985 55.3884 56.7485 55.4443 56.7723 55.5126C56.7961 55.5808 56.7918 55.6557 56.7604 55.7207C56.7289 55.7858 56.673 55.8357 56.6047 55.8595C46.6339 59.3413 42.5126 62.1039 42.1109 62.1039Z" fill="#FFE55D"/>
<path d="M35.9582 61.4812C35.8971 61.4807 35.8379 61.4597 35.7902 61.4216C35.7424 61.3835 35.7089 61.3305 35.6948 61.271C35.6808 61.2116 35.6871 61.1491 35.7127 61.0937C35.7384 61.0382 35.7819 60.993 35.8363 60.9652C40.3309 58.7171 44.5412 56.8294 48.7061 55.1931C48.7726 55.1705 48.8452 55.1744 48.9089 55.2039C48.9726 55.2335 49.0224 55.2864 49.0481 55.3518C49.0737 55.4171 49.0732 55.4898 49.0467 55.5548C49.0201 55.6198 48.9696 55.672 48.9055 55.7007C40.3616 59.0575 36.3239 61.482 35.9582 61.482V61.4812Z" fill="#FFE55D"/>
<path d="M29.8067 61.3257C29.7458 61.3254 29.6868 61.3047 29.639 61.267C29.5912 61.2293 29.5574 61.1767 29.543 61.1175C29.5285 61.0584 29.5342 60.9961 29.5592 60.9406C29.5842 60.8851 29.6271 60.8395 29.681 60.8112C34.0085 58.5638 38.0653 56.6761 42.0839 55.0391C42.117 55.0256 42.1525 55.0188 42.1882 55.019C42.224 55.0192 42.2594 55.0264 42.2923 55.0403C42.3253 55.0542 42.3552 55.0745 42.3804 55.0999C42.4055 55.1253 42.4254 55.1555 42.4389 55.1886C42.4524 55.2217 42.4592 55.2572 42.459 55.293C42.4588 55.3287 42.4515 55.3641 42.4377 55.3971C42.4238 55.43 42.4035 55.46 42.3781 55.4851C42.3526 55.5102 42.3225 55.5301 42.2894 55.5436C34.1373 58.8652 30.1494 61.3257 29.8067 61.3257Z" fill="#FFE55D"/>
<path d="M146.916 89.2393L103.78 76.0803C103.055 75.8464 102.424 75.3886 101.976 74.773C101.529 74.1574 101.288 73.4157 101.289 72.6545V45.6358C101.303 45.2355 101.407 44.8436 101.594 44.4889C101.78 44.1343 102.043 43.826 102.365 43.5868C102.686 43.3476 103.057 43.1836 103.45 43.107C103.843 43.0303 104.249 43.0429 104.636 43.1439L146.761 54.2004C147.783 54.4876 148.684 55.0982 149.33 55.9407C149.975 56.7832 150.33 57.8123 150.342 58.8737V86.6707C150.338 87.2961 150.116 87.9005 149.715 88.38C149.313 88.8595 148.757 89.1839 148.142 89.2976C147.735 89.3734 147.315 89.3537 146.916 89.2401V89.2393Z" fill="#FFE55D"/>
<path d="M147.636 89.6256C147.009 89.6256 147.475 89.9277 103.702 76.3409C102.92 76.0926 102.238 75.601 101.755 74.9378C101.273 74.2747 101.014 73.4746 101.018 72.6544V45.6342C101.035 45.1915 101.151 44.7582 101.357 44.3664C101.564 43.9746 101.856 43.6343 102.212 43.3707C102.568 43.1069 102.978 42.9264 103.414 42.8425C103.849 42.7586 104.297 42.7735 104.725 42.8861L146.829 53.9358C147.911 54.2349 148.866 54.8786 149.549 55.7693C150.232 56.6599 150.605 57.749 150.614 58.8713V86.6683C150.608 87.4543 150.292 88.2062 149.734 88.7602C149.177 89.3142 148.423 89.6252 147.636 89.6256ZM101.56 45.6357V72.6559C101.557 73.3596 101.778 74.046 102.192 74.6152C102.606 75.1844 103.19 75.6069 103.86 75.8211L147.001 88.9808C147.54 89.1309 148.116 89.0891 148.628 88.8626C149.14 88.6361 149.558 88.2389 149.81 87.7387C149.977 87.407 150.066 87.0412 150.068 86.6698V58.8729C150.059 57.8696 149.724 56.8964 149.113 56.1007C148.502 55.3049 147.649 54.7298 146.682 54.4625L104.567 43.4083C104.043 43.2724 103.489 43.3171 102.994 43.5351C102.499 43.7531 102.092 44.1318 101.839 44.6098C101.671 44.9272 101.576 45.2769 101.56 45.6357Z" fill="#4B1010"/>
<path d="M146.677 58.6131C139.11 56.5175 139.593 56.595 139.435 56.71C139.277 56.825 139.339 56.48 139.169 62.0596C139.166 62.1191 139.184 62.1776 139.218 62.2262C139.252 62.2748 139.302 62.3105 139.359 62.328L146.523 64.586C146.563 64.5988 146.607 64.6017 146.649 64.5947C146.691 64.5877 146.731 64.5708 146.765 64.5455C146.8 64.5202 146.828 64.4872 146.847 64.4491C146.867 64.411 146.877 64.3688 146.877 64.3261V58.873C146.876 58.8139 146.856 58.7567 146.82 58.7098C146.785 58.6629 146.734 58.629 146.677 58.6131ZM146.332 60.99L142.093 59.8069L142.123 57.9076L146.332 59.0769V60.99ZM141.578 57.7574L141.548 59.6551L139.799 59.1674L139.856 57.2789L141.578 57.7574ZM139.782 59.7287L141.539 60.2186L141.505 62.4276L139.717 61.8641L139.782 59.7287ZM142.047 62.5986L142.082 60.3704L146.329 61.5558V63.9489L142.047 62.5986Z" fill="white"/>
<path d="M145.903 77.7548L106.195 66.2198C106.161 66.2099 106.129 66.1932 106.101 66.1708C106.073 66.1484 106.049 66.1206 106.032 66.0892C106.015 66.0578 106.004 66.0233 106.001 65.9876C105.997 65.952 106 65.916 106.01 65.8817C106.02 65.8472 106.037 65.815 106.059 65.787C106.082 65.759 106.109 65.7358 106.141 65.7186C106.172 65.7014 106.207 65.6906 106.242 65.6869C106.278 65.6832 106.314 65.6866 106.348 65.6969L145.981 77.2203C146.044 77.2389 146.098 77.2795 146.133 77.3348C146.168 77.39 146.182 77.4561 146.173 77.5209C146.164 77.5859 146.131 77.6454 146.082 77.6884C146.032 77.7314 145.969 77.755 145.903 77.7548Z" fill="white"/>
<path d="M145.981 81.4144L105.885 70.1141C105.816 70.0945 105.757 70.048 105.722 69.985C105.686 69.9219 105.678 69.8474 105.697 69.7779C105.717 69.7083 105.763 69.6494 105.826 69.6141C105.889 69.5788 105.964 69.57 106.033 69.5896L146.058 80.88C146.121 80.8983 146.175 80.9388 146.21 80.9942C146.246 81.0495 146.259 81.1158 146.249 81.1806C146.24 81.2453 146.208 81.3045 146.159 81.3475C146.11 81.3904 146.046 81.4142 145.981 81.4144Z" fill="white"/>
<path d="M116.004 50.6579L106.74 48.0003C106.706 47.9905 106.674 47.9739 106.646 47.9516C106.618 47.9292 106.595 47.9014 106.578 47.87C106.56 47.8387 106.549 47.8042 106.545 47.7684C106.541 47.7327 106.544 47.6966 106.555 47.6622C106.57 47.6105 106.601 47.5645 106.642 47.5299C106.684 47.4952 106.734 47.4735 106.788 47.4674C106.824 47.4636 106.859 47.4667 106.894 47.4766L116.082 50.1234C116.144 50.1422 116.198 50.1829 116.233 50.2381C116.269 50.2933 116.283 50.3593 116.273 50.4241C116.264 50.4888 116.232 50.5481 116.182 50.591C116.133 50.6339 116.07 50.6576 116.004 50.6579Z" fill="#4B1010"/>
<path d="M139.129 82.3878C138.976 83.4782 137.883 94.2234 137.961 94.3008C133.522 97.4936 126.593 103.099 114.213 110.964C86.727 98.7388 62.589 70.5523 40.9429 66.5039C49.43 61.9103 61.343 57.6272 68.6624 54.5909C77.3052 54.9022 85.3123 56.5538 91.7101 61.4426C95.5952 64.4114 130.022 80.5967 139.129 82.3878Z" fill="#FFE55D"/>
<path d="M50.1318 65.0239C57.6069 66.1143 64.3029 69.307 70.6876 73.1998L90.3095 62.9253C84.0071 59.0519 76.8307 56.8282 69.4424 56.4594L50.1318 65.0239Z" fill="white"/>
<path d="M70.6874 73.4727C70.0112 73.4727 61.4933 66.9554 50.0925 65.2938C50.0342 65.2851 49.9802 65.2577 49.9387 65.2157C49.8972 65.1738 49.8704 65.1195 49.8624 65.061C49.8544 65.0025 49.8655 64.943 49.8941 64.8914C49.9228 64.8398 49.9674 64.7989 50.0212 64.7747C69.433 56.1595 69.3495 56.1825 69.456 56.1871C76.8885 56.5653 84.1075 58.8011 90.4527 62.6899C90.4933 62.7155 90.5267 62.7513 90.5494 62.7936C90.5721 62.8359 90.5834 62.8834 90.5823 62.9315C90.5803 62.9795 90.5657 63.0262 90.54 63.0668C90.5143 63.1075 90.4784 63.1406 90.4358 63.163C70.7097 73.5011 70.7948 73.4727 70.6874 73.4727ZM51.087 64.9005C57.2686 65.9455 63.3673 68.4337 70.6982 72.8892L89.7565 62.9069C83.6053 59.2301 76.6492 57.1113 69.4928 56.7346L51.087 64.9005Z" fill="#4B1010"/>
<path d="M73.3269 57.667C73.1788 57.6271 73.0243 57.6168 72.8722 57.6367C72.7201 57.6566 72.5734 57.7062 72.4405 57.7829C72.3076 57.8595 72.1911 57.9616 72.0977 58.0832C72.0043 58.2049 71.9358 58.3438 71.8962 58.492C71.1587 61.2458 70.9665 64.1171 71.3303 66.9446C69.3695 66.4689 67.3659 66.191 65.3496 66.115C65.1189 66.1083 64.8914 66.1701 64.6957 66.2925C64.5 66.4149 64.3449 66.5925 64.25 66.8028C64.155 67.0132 64.1245 67.247 64.1622 67.4747C64.1999 67.7024 64.3041 67.9139 64.4618 68.0825C64.5668 68.1943 64.6928 68.2843 64.8327 68.3473C64.9726 68.4104 65.1235 68.4452 65.2768 68.4498C67.7158 68.5571 70.1334 68.9612 72.4743 69.6543C72.6685 69.709 72.8735 69.7124 73.0694 69.6642C73.2653 69.616 73.4453 69.518 73.592 69.3795C73.7387 69.2411 73.8471 69.067 73.9065 68.8742C73.9659 68.6814 73.9744 68.4766 73.9311 68.2796C73.2714 65.2459 73.3471 62.0984 74.1519 59.1C74.2325 58.8006 74.1909 58.4814 74.0362 58.2126C73.8815 57.9439 73.6263 57.7476 73.3269 57.667Z" fill="#FFE55D"/>
<path d="M139.182 82.1201C129.996 80.3144 95.7299 64.1552 91.8732 61.2262C86.2161 56.8795 78.8308 54.9389 68.6698 54.3178C68.5533 54.3109 68.6737 54.3293 62.2038 56.8849C55.6098 59.4918 47.4393 62.7183 41.1428 66.0859C41.0492 66.0859 40.9564 66.0767 40.8629 66.0751C40.5692 66.0705 40.5692 66.0751 40.0854 70.1213C38.9238 79.859 43.5135 87.423 44.1814 88.1284C44.6473 89.5643 45.2243 90.9617 45.9073 92.3079C46.0281 92.6466 46.2367 92.9471 46.5118 93.1786C46.7869 93.4101 47.1187 93.5642 47.473 93.6252C52.4937 95.2982 67.9069 99.2447 70.3728 99.2447C71.4703 99.165 72.5277 98.7991 73.4398 98.1835C114.077 111.07 110.843 109.767 114.095 111.212C114.136 111.23 114.181 111.238 114.226 111.235C114.271 111.232 114.314 111.218 114.352 111.194C123.868 105.149 130.064 100.514 134.588 97.13C138.263 94.3812 138.21 94.5231 138.226 94.3229C138.632 89.208 139.32 82.926 139.392 82.4261C139.402 82.3581 139.386 82.2889 139.347 82.2321C139.308 82.1753 139.249 82.1353 139.182 82.1201ZM68.7128 54.8653C78.7365 55.2333 85.9922 57.3955 91.5458 61.6594C95.3534 64.5531 128.689 80.2914 138.586 82.5503L115.08 98.0386C105.269 95.94 69.7387 75.4962 65.198 73.3401C55.7739 68.8876 50.6297 66.6195 42.217 66.1326C50.5646 61.7959 61.7445 57.7521 68.7128 54.8653ZM137.736 94.1266C133.334 97.3002 126.524 102.803 114.342 110.558C114.165 109.681 115.481 98.5009 115.492 98.4235L138.778 83.077C138.52 85.3773 137.752 92.4268 137.736 94.1266Z" fill="#4B1010"/>
<path d="M118.037 101.858L135.634 90.4892C135.664 90.4694 135.697 90.4559 135.733 90.4494C135.768 90.443 135.805 90.4437 135.84 90.4516C135.893 90.4625 135.942 90.4891 135.98 90.528C136.018 90.567 136.044 90.6164 136.053 90.67C136.063 90.7236 136.056 90.7788 136.034 90.8286C136.012 90.8784 135.976 90.9204 135.929 90.9492L118.333 102.318C118.287 102.347 118.234 102.362 118.18 102.36C118.126 102.359 118.074 102.342 118.029 102.312C117.985 102.281 117.951 102.238 117.931 102.187C117.911 102.137 117.906 102.082 117.917 102.03C117.933 101.959 117.976 101.897 118.037 101.858Z" fill="#4B1010"/>
<path d="M131.996 82.449C131.787 82.3593 110.948 73.4098 95.0967 65.9455C95.0597 65.9273 95.019 65.9178 94.9778 65.9178C94.9366 65.9178 94.8959 65.9273 94.859 65.9455C89.5776 68.5862 82.1164 72.6868 77.2513 75.3765C77.2078 75.4008 77.1717 75.4365 77.147 75.4798C77.1223 75.5231 77.11 75.5724 77.1114 75.6223C77.1129 75.6721 77.128 75.7206 77.1551 75.7625C77.1822 75.8043 77.2202 75.8379 77.2651 75.8596C85.546 79.8613 114.135 93.8736 114.135 93.8736C114.275 93.8736 131.954 82.9796 132.031 82.9321C132.074 82.906 132.108 82.8687 132.131 82.8242C132.154 82.7796 132.164 82.7297 132.16 82.6798C132.156 82.6301 132.138 82.5824 132.11 82.5418C132.081 82.5012 132.041 82.4691 131.996 82.449ZM123.883 87.3056L119.513 85.2622L123.164 83.0517L127.544 85.0522L123.883 87.3056ZM119.094 90.2461L114.732 88.1583L118.956 85.6011L123.326 87.6476L119.094 90.2461ZM104.679 88.6428L109.008 86.0221L113.588 88.215L109.206 90.8687L104.679 88.6428ZM99.1443 85.927L103.508 83.3898L108.42 85.7415L104.098 88.3576L99.1443 85.927ZM93.7863 83.3024L98.0939 80.7982L102.913 83.1046L98.5555 85.6349L93.7863 83.3024ZM88.2925 80.6188L92.663 78.2012L97.4935 80.5145L93.192 83.0149L88.2925 80.6188ZM82.8486 77.9666L87.1945 75.5836L92.0588 77.9122L87.6883 80.3267L82.8486 77.9666ZM87.0182 70.658L91.348 72.6845L87.1777 74.9717L82.8678 72.9068C84.1444 72.2106 85.5629 71.4424 87.0213 70.658H87.0182ZM91.1832 68.4474L95.4885 70.4134L91.94 72.3594L87.6216 70.3367C88.8071 69.7018 89.9953 69.072 91.1862 68.4474H91.1832ZM104.643 70.9578L101.634 72.6224L96.7076 70.372L99.7363 68.7081C101.356 69.4557 102.999 70.2079 104.643 70.9578ZM109.877 73.3217L106.925 75.0392L102.251 72.9038L105.262 71.2399C106.809 71.9384 108.354 72.6354 109.876 73.3186L109.877 73.3217ZM115.461 75.8136L112.453 77.5625L107.532 75.316L110.489 73.5962C112.187 74.3552 113.854 75.099 115.459 75.8105L115.461 75.8136ZM120.873 78.2036L117.857 80.0299L113.06 77.8393L116.076 76.0858L120.873 78.2036ZM102.794 77.4368L98.0578 75.2194L101.658 73.2258L106.348 75.3673L102.794 77.4368ZM106.955 75.648L111.875 77.8953L108.263 79.9954L103.395 77.7174L106.955 75.648ZM102.221 77.7703L98.0709 80.1833L93.2526 77.8769L97.4697 75.546L102.221 77.7703ZM102.822 78.051L107.69 80.329L103.484 82.7734L98.6628 80.4655L102.822 78.051ZM108.29 80.6104L113.144 82.8815L108.978 85.4033L104.079 83.0586L108.29 80.6104ZM108.864 80.2768L112.483 78.1721L117.293 80.3689L113.704 82.5418L108.864 80.2768ZM101.04 72.9513L97.446 74.938L92.5549 72.6454L96.1095 70.6955L101.04 72.9513ZM91.963 72.9743L96.8563 75.2646L92.6477 77.5917L87.7857 75.2646L91.963 72.9743ZM109.564 85.6886L113.736 83.1629L118.361 85.3282L114.144 87.8815L109.564 85.6886ZM118.923 84.9885L114.296 82.8232L117.891 80.6464L122.569 82.7818L118.923 84.9885ZM118.455 80.3052L121.482 78.4727L126.244 80.5552L123.131 82.4406L118.455 80.3052ZM94.9824 66.4945C96.3304 67.1294 97.7143 67.775 99.1183 68.4237L96.0858 70.0875L91.792 68.1277C92.852 67.5767 93.9155 67.0323 94.9824 66.4945ZM82.2758 73.2289L86.5896 75.2937L82.2544 77.6745L77.9782 75.5974C78.7143 75.1864 80.2907 74.3146 82.2781 73.2289H82.2758ZM114.119 93.2893L109.783 91.1539L114.173 88.4956L118.538 90.5858L114.119 93.2893ZM128.106 84.7086L123.73 82.7097L126.856 80.8182C128.996 81.749 130.557 82.423 131.299 82.7419L128.106 84.7086Z" fill="white"/>
</svg>
