<svg width="155" height="156" viewBox="0 0 155 156" fill="none" xmlns="http://www.w3.org/2000/svg">
<path d="M61.2404 80.3469C64.1826 99.4632 67.868 117.24 72.3587 134.761C69.9098 134.565 67.4464 134.656 65.0188 135.032C60.5978 135.721 60.7372 136.852 51.6784 135.52C47.1645 134.854 44.9115 134.521 43.1617 133.886C39.7007 132.648 39.8711 131.773 34.3352 128.614C29.3645 125.78 28.4664 126.066 24.959 123.674C22.6633 122.107 20.5495 120.289 18.6566 118.254C15.1028 114.468 15.0563 112.672 9.94626 103.35C5.62594 95.5532 4.56522 94.779 4.14712 91.4652C3.77548 88.3681 4.54199 88.0739 4.54199 82.0503C4.54199 75.1749 3.53546 74.9968 4.13164 71.6366C4.90589 67.1382 6.74861 67.3008 9.1875 60.9674C11.6883 54.4172 10.1398 53.3952 12.5477 49.8724C14.8705 46.4966 16.3726 47.387 20.9097 42.3466C23.5421 39.4277 23.457 38.669 26.0507 36.1526C27.4056 34.8596 29.2251 33.6053 32.8022 31.1432C39.4762 26.5597 40.6453 26.2267 41.3964 26.0641C44.6327 25.3441 44.9502 26.6061 49.0382 26.0641C53.6837 25.4447 54.0709 23.7414 57.795 23.3852C61.2559 23.0678 61.7747 24.4614 67.3802 25.6693C74.2556 27.1481 74.6659 25.2976 79.4586 26.8152C81.2393 27.3804 84.2434 29.3392 90.1587 33.2337C98.358 38.6535 100.007 39.4277 107.649 49.2065C113.123 56.1748 115.872 59.7054 116.437 63.9173C116.793 66.5497 116.29 67.4556 116.901 72.0934C117.544 77.0021 118.38 78.0706 118.45 80.6566C118.52 83.2426 117.776 86.99 113.866 91.7361C96.856 88.9024 78.3514 84.915 61.2404 80.3469Z" fill="#FFD997"/>
<path d="M73.8223 94.3454C82.0835 122.218 82.7571 130.209 90.0815 150.502C94.1555 148.965 97.9662 146.805 101.378 144.099C106.743 139.593 108.935 139.833 111.714 138.245C113.495 137.231 114.71 135.845 117.134 133.073C120.006 129.814 122.128 127.414 123.785 123.674C124.892 121.165 124.737 120.438 126.231 117.255C127.121 115.347 128.157 113.509 129.328 111.758C118.791 109.846 113.526 107.26 105.071 104.341C102.121 103.296 90.8093 100.237 73.8223 94.3454Z" fill="#FFD997"/>
<path d="M102.276 139.856C98.6213 142.781 93.9999 144.224 89.3303 143.898C88.7986 142.67 87.9251 141.622 86.8139 140.878L86.1094 138.656C89.6494 136.036 93.3815 133.686 97.2741 131.626C99.8446 135.117 99.7052 136.333 102.276 139.856Z" fill="#81F8F8"/>
<path d="M112.891 120.833C113.891 123.071 115.11 125.205 116.53 127.205C111.884 130.085 112.031 132.423 107.386 134.846C105.505 132.733 103.954 130.347 102.787 127.77C105.999 125.239 109.374 122.921 112.891 120.833Z" fill="#81F8F8"/>
<path d="M121.493 115.018L118.442 117.232L119.991 119.834C120.76 119.329 121.331 118.573 121.605 117.695C121.879 116.817 121.839 115.87 121.493 115.018Z" fill="#81F8F8"/>
<path d="M111.636 106.71L119.061 109.265C118.113 110.556 116.744 111.476 115.19 111.867L111.636 106.71Z" fill="#81F8F8"/>
<path d="M91.1963 112.587C95.7644 109.126 95.7179 107.887 100.905 104.109C102.944 108.353 105.845 112.127 109.422 115.188C106.403 117.557 104.366 118.084 102.771 119.059C101.542 119.813 100.434 120.75 99.4885 121.839C96.5309 117.441 94.5333 117.17 91.1963 112.587Z" fill="#81F8F8"/>
<path d="M80.7202 119.214C81.9825 117.818 83.4372 116.608 85.0405 115.622C87.3633 118.014 87.8046 119.253 88.9815 120.747C90.1583 122.242 91.2345 122.931 93.2244 125.811C88.3698 129.179 86.6123 128.908 84.2043 132.284L80.7202 119.214Z" fill="#81F8F8"/>
<path d="M75.7031 100.81C78.893 103.907 78.8543 105.603 82.292 111.061C81.3438 111.909 80.2802 112.618 79.1331 113.167C77.9872 109.048 76.8439 104.929 75.7031 100.81Z" fill="#81F8F8"/>
<path d="M81.1538 96.7379C83.0625 99.8733 85.2192 102.851 87.6033 105.642C90.4216 104.295 91.2113 103.319 94.5019 101.12L81.1538 96.7379Z" fill="#81F8F8"/>
<path d="M73.9463 94.3918L75.6264 100.222L80.3803 96.5519L73.9463 94.3918Z" fill="#81F8F8"/>
<path d="M62.8435 128.335L61.1943 130.743C61.97 131.227 62.894 131.414 63.7969 131.272C64.6998 131.13 65.5213 130.667 66.1108 129.969L62.8435 128.335Z" fill="#81F8F8"/>
<path d="M68.2084 117.503C66.7219 119.269 67.1787 120.174 65.7153 122.342C67.078 124.084 68.0381 123.666 69.9737 125.176L68.2084 117.503Z" fill="#81F8F8"/>
<path d="M28.7219 111.379C27.2592 112.833 26.0941 114.558 25.292 116.458C26.1761 118.525 27.4828 120.384 29.1283 121.917C30.7737 123.449 32.7214 124.62 34.8463 125.354C37.44 121.096 38.3072 120.484 39.3911 117.434C35.9817 115.167 32.4164 113.143 28.7219 111.379Z" fill="#81F8F8"/>
<path d="M45.5309 120.136C44.0411 122.534 42.8502 125.106 41.9849 127.793C45.2754 129.342 47.1259 129.156 49.1002 129.675C50.5306 130.049 51.8867 130.665 53.1109 131.494C54.0023 129.332 55.0936 127.259 56.3705 125.3C53.0337 123.048 49.3805 121.305 45.5309 120.128V120.136Z" fill="#81F8F8"/>
<path d="M36.2011 93.7957C34.3013 97.3287 32.7257 101.027 31.4937 104.844C37.076 107.438 37.9819 108.87 42.728 110.566C44.5243 106.16 45.3837 103.133 47.5361 98.9522C42.6584 96.1029 41.0324 96.9546 36.2011 93.7957Z" fill="#81F8F8"/>
<path d="M53.0949 102.274C51.1747 107.57 51.1902 109.041 49.2236 113.709C52.4832 115.815 54.504 116.032 56.3467 116.907C57.6816 117.571 58.8876 118.468 59.9083 119.555C61.8052 113.802 61.8904 113.16 62.3627 111.905C63.0436 110.083 63.9682 108.362 65.1113 106.788C61.1888 105.071 57.1777 103.564 53.0949 102.274Z" fill="#81F8F8"/>
<path d="M18.4168 85.3718C16.5679 89.2329 15.2525 93.3275 14.5068 97.543C17.4948 100.049 20.9024 102.007 24.5721 103.327C26.3761 97.2178 28.2421 93.7956 30.1699 91.1012C25.9934 89.7757 22.0337 87.8453 18.4168 85.3718Z" fill="#81F8F8"/>
<path d="M17.9985 107.864L21.2659 108.956C20.6591 109.871 20.1133 110.825 19.6322 111.813C18.6146 110.746 18.032 109.338 17.9985 107.864Z" fill="#81F8F8"/>
<path d="M10.69 81.6786C10.6298 82.2623 10.6932 82.8521 10.8759 83.4097C11.0587 83.9673 11.3567 84.4801 11.7508 84.915L13.2373 82.6929L10.69 81.6786Z" fill="#81F8F8"/>
<path d="M13.5697 62.7637C11.0436 66.2445 9.78414 70.4846 10.0004 74.7801C11.6918 76.1137 13.8113 76.7853 15.9622 76.6692C18.5094 71.5514 18.8037 70.0029 21.2348 65.7368C18.6177 64.9138 16.0573 63.9206 13.5697 62.7637Z" fill="#81F8F8"/>
<path d="M27.0186 68.9655C25.5475 73.4484 23.9835 74.3852 22.373 79.2011C27.5141 82.8323 28.087 84.4582 30.2859 85.1783C31.3956 85.5386 32.5793 85.6079 33.7236 85.3796C34.8783 83.8159 35.7581 82.0669 36.3251 80.2076C36.5109 79.6037 37.8736 74.6485 38.0052 74.122C34.1691 72.801 30.4858 71.0723 27.0186 68.9655Z" fill="#81F8F8"/>
<path d="M45.5306 76.4756C44.9705 77.0723 44.5221 77.7646 44.2066 78.5197C43.7808 79.503 43.835 80.4011 42.5652 82.3909C41.4902 84.3507 40.6483 86.4295 40.0566 88.5849C44.2995 90.1334 45.3912 91.62 50.3155 93.8576C50.6939 92.3699 51.325 90.9583 52.1814 89.6844C53.1492 88.2443 53.9003 87.772 54.8061 86.2932C55.5031 85.1503 56.0054 83.8996 56.2927 82.5922C55.5184 82.0503 51.2446 79.0307 50.3077 78.4655C48.8248 77.5651 47.2142 76.8943 45.5306 76.4756Z" fill="#81F8F8"/>
<path d="M62.0919 85.7899C60.1259 88.8856 58.5008 92.1851 57.2451 95.6307C59.8543 97.9534 61.5035 97.1792 64.5231 99.5484L62.0919 85.7899Z" fill="#81F8F8"/>
<path d="M24.8509 45.583C24.3855 46.2775 23.8483 46.9211 23.2482 47.5032C21.8778 48.8194 21.0106 49.0052 20.1512 50.2285C19.7534 50.865 19.4508 51.5562 19.2531 52.2803C18.6398 53.9676 17.9049 55.6081 17.0542 57.189C17.9465 58.0196 19.0127 58.6409 20.1752 59.0078C21.3376 59.3748 22.5673 59.4782 23.7747 59.3105C24.8907 58.2094 25.8448 56.9555 26.6085 55.5863C27.7079 53.5965 28.0563 51.6531 30.4797 48.0142L24.8509 45.583Z" fill="#81F8F8"/>
<path d="M35.9613 51.2583C35.0786 56.2987 32.6862 57.042 30.9209 62.7714C35.0864 65.52 36.7665 65.2258 40.9862 67.897C43.3858 64.5264 45.2311 60.7938 46.4524 56.8407C42.6445 55.6622 39.0895 53.7849 35.969 51.3048L35.9613 51.2583Z" fill="#81F8F8"/>
<path d="M53.0409 58.7144C50.8731 62.2739 49.0579 66.0366 47.6211 69.9487C51.4649 71.4996 55.1734 73.3668 58.7084 75.5311C60.5046 72.1166 62.5796 68.5086 64.763 65.0864C58.9174 62.2062 58.2671 60.4874 53.0409 58.7144Z" fill="#81F8F8"/>
<path d="M70.8411 67.6802L65.5298 79.1933C68.0229 81.4541 69.3623 81.1134 72.498 83.2117L76.0673 84.0711C76.4689 83.0603 76.9424 82.0797 77.4842 81.1367C78.7772 78.8913 78.6456 80.1379 81.5103 72.0624C78.2652 69.936 74.644 68.4486 70.8411 67.6802Z" fill="#81F8F8"/>
<path d="M82.9194 85.6583C84.9867 82.3909 84.9402 81.1444 87.201 76.4756C88.5161 77.4408 89.9566 78.2222 91.4827 78.7984C93.0312 79.3559 95.292 79.7275 99.5039 81.2063C98.5283 84.3033 97.3747 84.8298 95.9036 88.4688L82.9194 85.6583Z" fill="#81F8F8"/>
<path d="M102.833 89.816L105.558 84.4427L109.987 86.8971V91.1322L102.833 89.816Z" fill="#81F8F8"/>
<path d="M107.781 77.8229C108.488 75.938 109.318 74.1017 110.266 72.3257C111.134 74.6947 111.28 77.268 110.684 79.7198C109.583 79.3204 108.589 78.6711 107.781 77.8229Z" fill="#81F8F8"/>
<path d="M90.0659 69.3371C91.3987 65.5379 93.4873 62.0481 96.2057 59.0782C99.5457 61.1993 103.206 62.7679 107.045 63.7238C105.599 64.803 104.555 66.3345 104.08 68.0751C103.306 70.4985 103.352 71.8069 101.68 74.2691C100.756 74.1718 99.8527 73.9343 99.0008 73.5645C97.5297 72.9219 97.3594 72.3644 95.8573 71.7295C94.5875 71.1875 94.2546 71.3888 92.8455 70.8624C91.8505 70.4901 90.9143 69.9764 90.0659 69.3371Z" fill="#81F8F8"/>
<path d="M77.8638 50.5382C76.5088 55.1837 74.6197 55.7257 73.2183 60.6035C74.7013 62.0247 76.4441 63.1472 78.3515 63.9095C80.4689 64.6176 82.5165 65.5196 84.4681 66.6039C85.3996 62.8351 86.9935 59.2618 89.1756 56.0509C85.374 54.2778 81.5724 52.4429 77.8638 50.5382Z" fill="#81F8F8"/>
<path d="M61.5578 41.7737C58.5454 44.858 56.2968 48.6047 54.9922 52.7139C56.0206 53.5825 57.1644 54.3043 58.3912 54.8586C60.048 55.6328 60.9384 55.6328 62.6108 56.4071C63.8385 56.9587 64.9869 57.6722 66.0253 58.5285C69.1223 53.6353 68.2319 51.6377 71.5534 48.1536C67.117 45.5908 66.1724 43.4694 61.5578 41.7737Z" fill="#81F8F8"/>
<path d="M43.4325 33.9925C41.1767 37.2109 39.3545 40.7122 38.0127 44.4062C41.4046 47.0542 45.0572 49.3501 48.9142 51.2583L54.4655 39.2497C50.4824 38.2273 46.7355 36.442 43.4325 33.9925Z" fill="#81F8F8"/>
<path d="M33.445 38.1038L28.9312 41.2008C29.217 41.6445 29.6245 41.9965 30.105 42.2148C30.5856 42.4331 31.1188 42.5085 31.641 42.4318C32.2449 40.9762 32.8489 39.5439 33.445 38.1038Z" fill="#81F8F8"/>
<path d="M58.5072 30.5161C56.6918 30.3696 54.8682 30.67 53.1958 31.391C54.4029 32.2737 55.7704 32.9128 57.2219 33.2725C57.6555 32.3511 58.0813 31.4375 58.5072 30.5161Z" fill="#81F8F8"/>
<path d="M77.9332 32.8853C74.0963 31.3081 70.0608 30.266 65.94 29.7883C64.68 31.3821 63.9806 33.3469 63.9502 35.3784C68.5183 38.8471 70.9185 37.4457 75.3472 41.2318C77.0273 37.4302 76.0363 35.9359 77.9332 32.8853Z" fill="#81F8F8"/>
<path d="M84.1043 36.2068C82.8331 38.7529 81.9709 41.4834 81.5493 44.2978C85.9393 47.3948 88.0298 46.5586 92.745 49.7872C93.7381 47.7085 94.5942 45.567 95.3078 43.3764C94.5648 41.83 93.417 40.5137 91.9862 39.5671C90.7784 38.8006 88.5795 38.2586 84.1043 36.2068Z" fill="#81F8F8"/>
<path d="M99.4113 49.3923C98.9969 50.641 98.7852 51.948 98.7842 53.2636C100.551 54.5181 102.517 55.4657 104.599 56.0664C103.308 53.5333 101.547 51.2685 99.4113 49.3923Z" fill="#81F8F8"/>
<path d="M44.2071 37.7244C43.2906 38.3817 42.5437 39.2475 42.0281 40.2505C41.5125 41.2535 41.2429 42.3648 41.2417 43.4926C41.2417 43.5583 41.2678 43.6213 41.3143 43.6678C41.3607 43.7142 41.4238 43.7403 41.4895 43.7403C41.5226 43.7414 41.5557 43.7357 41.5867 43.7237C41.6176 43.7118 41.6458 43.6937 41.6697 43.6706C41.6935 43.6475 41.7125 43.6198 41.7254 43.5892C41.7383 43.5586 41.745 43.5258 41.745 43.4926C41.7459 42.4448 41.9964 41.4123 42.4757 40.4806C42.955 39.5489 43.6494 38.7447 44.5013 38.1348C44.5342 38.1181 44.5631 38.0946 44.5861 38.0657C44.609 38.0369 44.6255 38.0034 44.6343 37.9676C44.6431 37.9317 44.644 37.8945 44.637 37.8582C44.63 37.822 44.6153 37.7878 44.5938 37.7578C44.5723 37.7278 44.5446 37.7029 44.5125 37.6846C44.4805 37.6664 44.4449 37.6553 44.4081 37.6521C44.3714 37.649 44.3344 37.6538 44.2997 37.6663C44.265 37.6787 44.2334 37.6986 44.2071 37.7244Z" fill="black"/>
<path d="M36.8203 55.2225C36.7883 55.2144 36.755 55.2129 36.7223 55.2179C36.6897 55.223 36.6584 55.2345 36.6302 55.2518C36.6021 55.2691 36.5777 55.2919 36.5585 55.3187C36.5393 55.3456 36.5256 55.3761 36.5184 55.4083C35.9811 57.7115 34.771 59.8028 33.042 61.4165C33.0038 61.4501 32.9769 61.4947 32.9649 61.5442C32.953 61.5937 32.9566 61.6456 32.9752 61.693C32.9938 61.7403 33.0265 61.7808 33.069 61.8089C33.1114 61.8371 33.1614 61.8514 33.2123 61.8501C33.2745 61.8496 33.3347 61.8277 33.3827 61.7881C35.1898 60.1084 36.4542 57.9273 37.0139 55.5244C37.0278 55.4588 37.0152 55.3903 36.979 55.3338C36.9428 55.2773 36.8858 55.2373 36.8203 55.2225Z" fill="black"/>
<path d="M28.002 72.3257C26.3275 73.8273 25.1749 75.8233 24.7114 78.0242C24.7046 78.0562 24.7043 78.0893 24.7104 78.1215C24.7164 78.1536 24.7288 78.1843 24.7468 78.2117C24.7648 78.239 24.7881 78.2625 24.8152 78.2809C24.8424 78.2992 24.8729 78.3119 24.905 78.3184C24.9707 78.3322 25.0391 78.3197 25.0956 78.2835C25.1521 78.2473 25.1921 78.1903 25.2069 78.1248C25.6358 76.0345 26.7208 74.1358 28.304 72.7051C28.3352 72.6853 28.3617 72.6591 28.3818 72.6281C28.4019 72.5971 28.415 72.5622 28.4203 72.5256C28.4256 72.4891 28.4229 72.4518 28.4124 72.4164C28.4019 72.381 28.3838 72.3483 28.3595 72.3206C28.3351 72.2928 28.3051 72.2707 28.2713 72.2556C28.2376 72.2406 28.201 72.2331 28.1641 72.2336C28.1272 72.2341 28.0908 72.2426 28.0575 72.2585C28.0241 72.2744 27.9946 72.2973 27.971 72.3257H28.002Z" fill="black"/>
<path d="M45.252 80.6102C45.2188 80.607 45.1854 80.6106 45.1536 80.6206C45.1218 80.6307 45.0924 80.647 45.0671 80.6687C45.0418 80.6904 45.0212 80.717 45.0064 80.7468C44.9916 80.7767 44.983 80.8092 44.981 80.8425C44.9618 82.804 44.1654 84.6779 42.7667 86.0532C42.732 86.0889 42.7084 86.134 42.699 86.1828C42.6895 86.2317 42.6946 86.2823 42.7135 86.3284C42.7324 86.3745 42.7644 86.414 42.8055 86.4421C42.8465 86.4703 42.895 86.4858 42.9447 86.4868C43.0095 86.4842 43.0706 86.4564 43.1151 86.4093C43.8607 85.685 44.4553 84.8201 44.8646 83.8646C45.2739 82.9091 45.4898 81.8819 45.4998 80.8425C45.4958 80.7795 45.468 80.7204 45.422 80.6772C45.3759 80.634 45.3151 80.6101 45.252 80.6102Z" fill="black"/>
<path d="M53.6606 62.725C53.6349 62.7034 53.6052 62.6873 53.5732 62.6775C53.5412 62.6677 53.5075 62.6646 53.4742 62.6682C53.4409 62.6718 53.4087 62.6821 53.3795 62.6986C53.3503 62.715 53.3248 62.7371 53.3044 62.7637C51.8824 64.5326 50.7817 66.5374 50.0525 68.6867C50.0405 68.7247 50.0374 68.7651 50.0437 68.8045C50.05 68.8439 50.0654 68.8812 50.0888 68.9136C50.1121 68.946 50.1427 68.9724 50.1781 68.9908C50.2135 69.0092 50.2527 69.0191 50.2926 69.0197C50.3453 69.0195 50.3966 69.003 50.4396 68.9725C50.4825 68.942 50.515 68.899 50.5326 68.8493C51.2476 66.756 52.3189 64.8019 53.6993 63.0734C53.7196 63.048 53.7348 63.0188 53.7438 62.9875C53.7529 62.9563 53.7557 62.9235 53.7521 62.8912C53.7485 62.8588 53.7386 62.8275 53.7229 62.799C53.7072 62.7704 53.686 62.7453 53.6606 62.725Z" fill="black"/>
<path d="M61.8909 45.5289C61.8244 45.5245 61.7588 45.5464 61.7082 45.5898C61.6575 45.6332 61.6259 45.6947 61.62 45.7611C61.5316 46.9321 61.2124 48.0739 60.6809 49.121C60.1494 50.1681 59.416 51.0997 58.523 51.8622C58.4823 51.8947 58.4528 51.9392 58.4388 51.9893C58.4248 52.0394 58.427 52.0927 58.445 52.1416C58.463 52.1904 58.4959 52.2324 58.5391 52.2614C58.5823 52.2905 58.6335 52.3053 58.6855 52.3036C58.7475 52.3019 58.8073 52.2801 58.8559 52.2416C59.793 51.434 60.5614 50.4491 61.1168 49.3436C61.6722 48.2381 62.0037 47.0338 62.0923 45.7998C62.0974 45.7379 62.0798 45.6762 62.0427 45.6264C62.0057 45.5765 61.9517 45.5418 61.8909 45.5289Z" fill="black"/>
<path d="M37.2389 97.365C35.5472 99.1227 34.4085 101.338 33.9639 103.737C33.952 103.771 33.9473 103.806 33.9499 103.842C33.9526 103.877 33.9627 103.911 33.9794 103.943C33.9962 103.974 34.0193 104.002 34.0473 104.024C34.0753 104.045 34.1075 104.061 34.1419 104.07C34.2085 104.082 34.2769 104.067 34.3332 104.03C34.3894 103.992 34.429 103.935 34.4439 103.869C34.8565 101.571 35.9331 99.4446 37.5409 97.7521C37.5648 97.729 37.5838 97.7013 37.5967 97.6707C37.6097 97.6401 37.6164 97.6072 37.6164 97.574C37.6164 97.5408 37.6097 97.5079 37.5967 97.4773C37.5838 97.4467 37.5648 97.419 37.5409 97.3959C37.5005 97.3592 37.4494 97.3363 37.395 97.3307C37.3407 97.3252 37.286 97.3372 37.2389 97.365Z" fill="black"/>
<path d="M70.7098 127.081C70.6409 125.105 70.755 123.128 71.0504 121.173C71.2345 120.434 71.1551 119.654 70.8259 118.967C70.3072 118.045 69.6181 118.192 68.9987 117.472C68.0773 116.443 68.0618 114.538 68.5806 113.299C68.9987 112.293 69.5329 112.3 69.8194 111.123C69.8966 110.757 69.9149 110.381 69.8736 110.008C69.8 109.006 69.8 107.999 69.8736 106.997C70.0362 104.914 68.0928 104.999 65.1429 101.43C64.9958 100.656 63.6563 93.3931 63.1686 90.5903C63.6068 90.4024 63.9884 90.1035 64.2757 89.7231C65.3674 88.1746 64.1209 85.999 64.8022 85.4105C65.0345 85.217 65.3597 85.3718 66.4824 85.5112C69.1922 85.8286 69.4555 85.0931 72.1034 85.3563C72.6256 85.4083 73.1432 85.4989 73.6519 85.6273C75.6263 86.1306 76.7489 85.5034 78.4755 85.3951C79.4722 85.3192 80.4746 85.3949 81.4486 85.6196C83.8401 86.2844 85.9107 87.7913 87.2787 89.8625C87.4677 90.2044 87.7326 90.4984 88.053 90.7219C88.906 91.2618 89.9116 91.5091 90.9177 91.4265C92.559 91.391 94.1973 91.2721 95.8265 91.0703C99.9687 90.567 100.062 91.3878 108.687 91.1787C108.687 91.1787 111.01 91.6045 113.758 92.0614C113.802 92.0702 113.848 92.067 113.89 92.052C113.932 92.037 113.97 92.0108 113.998 91.9762C114.594 91.2484 115.136 90.5206 115.616 89.8005C115.661 89.7768 115.697 89.7386 115.717 89.6921C115.934 89.1966 118.729 85.488 118.644 80.7263C118.589 78.1403 117.746 76.9789 117.095 72.1399C116.522 67.7963 116.971 66.4259 116.638 63.9638C116.112 59.6202 113.356 56.0664 107.851 49.0981C104.15 44.3597 101.657 41.286 97.4989 37.9799C95.7413 36.5785 86.0245 30.2374 85.3509 29.8425C88.9511 22.3168 92.0327 16.0996 92.5204 15.7047C93.4341 15.1627 108.927 15.4337 119.124 15.7434C119.156 15.7444 119.189 15.739 119.219 15.7275C119.25 15.716 119.277 15.6986 119.301 15.6763C119.325 15.6541 119.344 15.6273 119.357 15.5976C119.371 15.5679 119.378 15.5359 119.379 15.5034C119.381 15.4702 119.377 15.437 119.366 15.4056C119.355 15.3742 119.337 15.3454 119.315 15.3209C119.293 15.2963 119.266 15.2765 119.235 15.2626C119.205 15.2488 119.172 15.2411 119.139 15.2401C114.842 15.1085 93.3799 14.4659 92.2417 15.2866C91.6765 15.6737 88.3704 22.4097 84.9173 29.5638C82.2693 27.8759 80.6899 26.9855 79.4975 26.6216C74.6662 25.0731 74.2016 26.9313 67.396 25.468C61.8291 24.2757 61.2639 22.851 57.7333 23.184C53.9937 23.5246 53.4904 25.2589 48.9688 25.8551C44.9349 26.4048 44.5865 25.1273 41.3037 25.8551C40.5836 26.0177 39.492 26.2577 32.6243 30.9729C29.1402 33.3654 27.2046 34.6816 25.8342 36.0133C24.7902 36.9898 23.8532 38.0747 23.0391 39.2497C21.0538 42.1344 18.5427 44.6193 15.6373 46.5741C14.307 47.37 13.1678 48.4484 12.3002 49.733C9.82264 53.3256 11.4253 54.3785 8.91676 60.9055C6.48561 67.1924 4.66612 67.0995 3.84542 71.6134C3.59645 72.9699 3.59645 74.3604 3.84542 75.7169C4.37624 79.7287 4.41005 83.7906 3.94607 87.8107C3.75816 89.0308 3.73992 90.271 3.89187 91.4962C4.19383 93.9041 4.82097 94.988 6.67918 98.1857C15.7766 113.826 14.8243 117.077 24.7812 123.883C28.2498 126.206 29.3028 126.059 34.1651 128.831C39.732 132.005 39.5307 132.864 43.038 134.126C44.8343 134.769 47.0951 135.102 51.6322 135.768C53.8082 136.134 56.0075 136.343 58.2133 136.395C59.652 136.387 61.0836 136.192 62.4717 135.814C65.6927 135.019 69.0223 134.758 72.328 135.04C72.3682 135.042 72.4084 135.035 72.4455 135.019C72.4825 135.003 72.5154 134.979 72.5416 134.948C72.5678 134.917 72.5866 134.881 72.5965 134.842C72.6065 134.803 72.6073 134.762 72.5989 134.723C71.9873 132.284 71.3447 129.705 70.7098 127.081ZM70.3846 119.207C71.004 120.322 70.3149 120.864 70.2065 124.983C69.6336 122.559 69.0684 120.128 68.5264 117.697C69.2542 118.603 69.9433 118.417 70.3846 119.207ZM69.6103 124.696C67.8605 123.488 67.0166 123.566 65.9714 122.249C67.1637 120.453 67.0089 119.772 68.0773 118.03C68.578 120.26 69.0916 122.482 69.6181 124.696H69.6103ZM69.3316 106.393C69.4632 106.811 69.3316 106.896 69.3316 108.77C69.4157 109.524 69.4157 110.284 69.3316 111.038C69.0916 112.053 68.5574 112.06 68.1238 113.136C67.9611 113.531 67.8492 113.945 67.7908 114.368C66.9288 110.398 66.1133 106.429 65.3442 102.46C67.6902 105.03 68.9832 105.185 69.3316 106.393ZM64.1596 99.0064C61.6046 96.8849 60.0561 97.6592 57.5707 95.5842C58.8015 92.4276 60.2637 89.3661 61.9452 86.4248C62.7118 91.0084 63.7725 96.9082 64.1596 98.9754V99.0064ZM73.7913 85.1473C72.325 84.7655 70.7943 84.6996 69.3006 84.9537C68.1283 85.1591 66.9278 85.1407 65.7623 84.8995C65.1739 84.8066 64.81 84.7447 64.477 85.0389C63.2924 86.0532 65.4216 88.9102 63.0757 90.0793C62.5337 86.9203 62.0227 83.7924 61.5271 80.7186C66.9469 82.1587 72.5602 83.5601 78.3129 84.9073C76.6483 85.0002 75.603 85.5731 73.7913 85.1163V85.1473ZM72.5989 83.0181C69.3935 80.9586 68.1702 81.0747 65.8242 79.1468C67.4811 74.2923 68.7819 73.4871 70.9962 68.0286C74.0081 68.9887 76.1915 69.0429 81.2086 72.2018C79.5982 76.2124 79.4278 77.4977 78.7233 78.8294C78.0187 80.1611 77.2599 80.7418 75.9205 83.8156L72.5989 83.0181ZM76.416 83.9395C77.678 81.067 78.522 80.3082 79.1723 79.0617C79.8227 77.8151 80.0627 76.4292 81.6422 72.4805C83.4578 73.7481 85.1977 75.1209 86.8529 76.5918C85.7922 79.1236 85.4593 79.6888 84.925 80.9276C84.3887 82.4999 83.666 84.0023 82.7726 85.4028C80.7441 84.915 77.4148 84.1408 76.416 83.9395ZM85.3896 81.1212C85.9316 79.8669 86.1638 79.4333 87.271 76.9015C88.5791 77.8306 90.013 78.5684 91.5294 79.0926C94.6264 80.1998 96.1749 80.1689 99.1558 81.3612C98.4977 83.4439 97.2743 84.706 95.7103 88.1746C92.6133 87.5475 84.3056 85.7512 83.3223 85.5267C84.1801 84.1325 84.8738 82.6438 85.3896 81.0902V81.1212ZM99.6281 81.5548C101.56 82.4081 103.421 83.4126 105.195 84.5589C103.979 86.4325 104.065 87.3849 102.71 89.5528C100.562 89.1502 98.397 88.7269 96.2136 88.283C97.7002 84.9924 98.9545 83.6143 99.6281 81.5238V81.5548ZM97.7544 90.3967C96.0201 90.4896 95.7258 90.6754 92.6675 90.8613C90.4919 91.0006 89.3615 90.9852 88.3782 90.3116C88.1028 90.1328 87.8765 89.8879 87.7201 89.5992C86.8081 88.2431 85.6144 87.0996 84.2205 86.2467C90.9952 87.7952 98.877 89.3437 105.783 90.6445C100.797 90.5051 99.9532 90.2574 97.7544 90.3657V90.3967ZM109.732 90.8535C107.595 90.4741 105.427 90.0793 103.244 89.6612C104.529 87.5397 104.467 86.6106 105.629 84.8144C106.976 85.5886 108.377 86.3629 109.732 87.0907V90.8535ZM113.743 91.5504L110.243 90.9387V87.3539C111.853 88.1824 113.487 88.9644 115.129 89.6767C114.71 90.2806 114.246 90.9077 113.743 91.5194V91.5504ZM41.4585 26.3274C44.5556 25.6306 44.9891 26.8849 49.0772 26.3274C53.7227 25.7235 54.1872 24.0047 57.8185 23.6562C58.9661 23.5131 60.1314 23.6458 61.2174 24.0434L58.3527 30.2374C56.5278 30.1198 54.7012 30.4411 53.0259 31.1742C52.9855 31.1962 52.9517 31.2286 52.9282 31.2681C52.9047 31.3077 52.8923 31.3528 52.8923 31.3988C52.8923 31.4447 52.9047 31.4899 52.9282 31.5294C52.9517 31.5689 52.9855 31.6014 53.0259 31.6233C54.2547 32.3426 55.5514 32.939 56.8971 33.4041L54.2724 39.0793C53.9705 38.7309 50.6799 38.5064 44.4626 34.3796C41.6468 32.4346 38.5849 30.8724 35.3574 29.7341C40.0184 26.6449 40.9011 26.4513 41.4585 26.3274ZM58.1437 30.7406L57.1217 32.9627C55.9505 32.5597 54.816 32.0571 53.7304 31.4607C55.1364 30.9198 56.6387 30.6747 58.1437 30.7406ZM48.8526 50.9176C45.1489 49.063 41.6352 46.851 38.3615 44.3133C39.5384 40.6588 41.2108 37.8792 43.5335 34.3409C44.9316 35.3116 46.3845 36.2008 47.8848 37.0043C49.8643 38.0312 51.9386 38.8635 54.0788 39.4897C54.1021 39.5207 54.4969 38.5916 48.7985 50.9176H48.8526ZM26.2213 36.354C27.584 35.0532 29.4886 33.7447 32.9418 31.3678L34.8232 30.098C35.5123 30.3303 36.1936 30.5858 36.8672 30.8723C34.5445 33.6363 33.9793 35.9359 33.2515 37.9412C31.6301 38.8119 30.1042 39.8499 28.6989 41.0382C28.6548 41.0855 28.6303 41.1477 28.6303 41.2124C28.6303 41.2771 28.6548 41.3393 28.6989 41.3866C29.0412 41.8228 29.4884 42.1652 29.9989 42.3818C30.5093 42.5984 31.0662 42.6822 31.6178 42.6254C31.6579 42.6262 31.6975 42.6167 31.7327 42.5977C31.768 42.5787 31.7978 42.5509 31.8191 42.517C34.7613 36.8185 34.1419 34.8597 37.3937 31.0658C39.3761 31.8983 41.2827 32.9008 43.0922 34.0622C40.692 37.7244 38.9887 40.5736 37.8118 44.3288C37.7947 44.3783 37.7938 44.4319 37.8091 44.482C37.8244 44.532 37.8552 44.576 37.897 44.6075C41.3019 47.2672 44.9703 49.5711 48.8449 51.4828C48.8725 51.4984 48.9031 51.508 48.9346 51.5109C48.9661 51.5139 48.998 51.5101 49.0279 51.4999C49.0579 51.4896 49.0854 51.4732 49.1086 51.4515C49.1317 51.4299 49.1501 51.4037 49.1623 51.3745C49.5185 50.7009 51.3225 46.7289 61.7362 24.206C63.5625 24.9409 65.4482 25.5186 67.3727 25.9325C74.2404 27.4036 74.7127 25.5841 79.4201 27.0707C80.0332 27.275 80.6266 27.5342 81.1931 27.8449C79.9184 29.2879 78.8023 30.8635 77.8639 32.5447C74.0503 31.0707 70.0729 30.062 66.0178 29.5406C65.974 29.539 65.9305 29.5472 65.8903 29.5646C65.8501 29.582 65.8143 29.6082 65.7855 29.6412C64.4961 31.2792 63.7782 33.2941 63.7415 35.3784C63.7387 35.4209 63.7473 35.4634 63.7663 35.5015C63.7854 35.5396 63.8142 35.5719 63.8499 35.5952C68.6038 38.8083 70.8878 37.918 75.2159 41.4253C75.2461 41.4516 75.2823 41.4702 75.3213 41.4794C75.3603 41.4887 75.4009 41.4884 75.4397 41.4785C75.4785 41.4686 75.5144 41.4494 75.5442 41.4226C75.574 41.3958 75.5968 41.3622 75.6108 41.3247C77.2677 37.2676 76.1915 36.4314 78.1736 33.0169C79.14 31.2478 80.3064 29.5956 81.6499 28.0927C82.5094 28.5727 83.5236 29.1921 84.7469 29.9664C81.2164 37.3373 77.6471 45.0178 76.9115 46.5896C76.885 46.6503 76.883 46.719 76.9061 46.7811C76.9293 46.8432 76.9756 46.8939 77.0354 46.9225C77.0657 46.938 77.0988 46.947 77.1328 46.9491C77.1667 46.9512 77.2007 46.9463 77.2327 46.9347C77.2646 46.923 77.2939 46.905 77.3185 46.8816C77.3432 46.8582 77.3628 46.8299 77.3761 46.7986C79.6988 41.7815 82.5636 35.6959 85.1728 30.2451C86.1174 30.849 95.3387 36.8417 97.0885 38.2122C96.8408 38.8238 95.54 42.277 95.2923 42.8964C94.5597 41.4686 93.4784 40.2489 92.1488 39.3503C90.7784 38.4599 89.6712 38.3593 84.2592 35.9514C84.2014 35.924 84.1354 35.92 84.0748 35.9402C84.0142 35.9604 83.9638 36.0033 83.934 36.0598C82.572 38.601 81.6951 41.3736 81.348 44.2359C81.3399 44.2813 81.3451 44.3281 81.363 44.3707C81.3808 44.4133 81.4106 44.4498 81.4486 44.4759C85.676 47.4645 87.8904 46.7986 92.4662 49.8492C91.692 51.2351 90.1435 53.9992 89.1292 55.6793C86.2567 54.4018 83.2836 52.9694 80.4808 51.4751C74.8675 48.4865 73.621 49.6324 69.7652 46.5276C67.2942 44.5374 64.5903 42.8553 61.713 41.5182C61.6656 41.4958 61.6124 41.489 61.5609 41.4987C61.5094 41.5085 61.4624 41.5343 61.4265 41.5724C58.3439 44.6554 56.0677 48.45 54.7989 52.621C54.7834 52.6675 54.7824 52.7177 54.7963 52.7648C54.8101 52.8118 54.8381 52.8535 54.8763 52.8842C59.0495 56.3916 61.5117 55.207 65.9172 58.6834C65.9462 58.705 65.9794 58.7204 66.0146 58.7287C66.0499 58.7369 66.0864 58.7378 66.122 58.7312C66.1576 58.7247 66.1915 58.7109 66.2215 58.6907C66.2516 58.6704 66.2771 58.6442 66.2965 58.6137C69.1226 53.8753 68.3793 52.3345 71.6698 48.4323C73.7913 49.6092 74.5733 49.4311 77.5929 50.6621C76.0444 55.0289 74.4959 55.8496 73.0248 60.4719C73.0083 60.5203 73.0077 60.5726 73.023 60.6213C73.0383 60.6701 73.0688 60.7127 73.1099 60.7429C73.8842 61.37 74.7359 61.9739 75.5876 62.5314C79.7995 65.4349 80.3724 64.227 84.5379 66.8595C84.5726 66.8819 84.6124 66.8953 84.6536 66.8985C84.6948 66.9016 84.7362 66.8944 84.7739 66.8774C84.8116 66.8605 84.8445 66.8344 84.8695 66.8015C84.8946 66.7686 84.911 66.73 84.9173 66.6891C85.2494 64.8297 85.7842 63.0123 86.5122 61.2694C87.7201 58.3427 88.6182 57.7078 91.1577 53.3023C94.2548 47.8826 94.2083 47.5109 95.5865 43.6629C95.5941 43.6298 95.5941 43.5954 95.5865 43.5623C96.1517 42.0137 96.7633 40.3723 97.5066 38.5296C101.471 41.7195 103.91 44.7236 107.51 49.3691C112.93 56.3374 115.678 59.7983 116.236 63.987C116.375 65.2724 116.419 66.5664 116.367 67.8583C114.387 67.1387 112.479 66.234 110.669 65.1561C108.98 64.106 107.138 63.3226 105.21 62.8334C102.075 61.995 99.0971 60.6537 96.3917 58.8615C96.3454 58.8217 96.2863 58.7998 96.2252 58.7998C96.1641 58.7998 96.1051 58.8217 96.0588 58.8615C93.365 61.8915 91.2639 65.4002 89.8647 69.2055C89.8456 69.254 89.8428 69.3075 89.8568 69.3578C89.8707 69.4081 89.9007 69.4525 89.9422 69.4842C90.5426 69.9974 91.2061 70.4319 91.9165 70.7772C93.8212 71.6366 94.5645 71.1179 96.624 72.558C98.1162 73.5962 99.8326 74.2674 101.633 74.5168C101.681 74.5257 101.73 74.5202 101.774 74.5008C101.818 74.4815 101.856 74.4493 101.881 74.4084C102.912 72.8638 103.608 71.1205 103.925 69.2906C103.979 69.0274 104.026 68.7874 104.088 68.5164C104.619 66.7187 105.702 65.1339 107.185 63.987C110.042 65.0942 111.42 66.6272 116.29 68.377C116.412 71.3796 116.848 74.3612 117.591 77.2732C117.91 78.3769 118.093 79.5159 118.133 80.6644C118.093 83.7173 117.129 86.6866 115.369 89.1811C107.696 85.7744 104.305 83.1342 101.084 81.5935C99.2277 80.6817 97.2672 80.0005 95.2458 79.5649C89.9731 78.2952 88.2001 77.0796 85.6915 74.9194C83.8646 73.2819 81.8566 71.8584 79.7066 70.6765C73.6597 67.324 73.017 68.9577 64.8951 64.8387C64.8676 64.8172 64.836 64.8014 64.8022 64.7922C59.5683 62.1365 59.096 60.8281 53.9627 58.7685C48.8294 56.709 47.9158 57.4059 43.1929 55.2922C38.7874 53.2868 37.6415 51.8313 33.3676 49.3304C31.5172 48.2542 31.0062 48.0607 30.6035 47.7819C30.5655 47.7721 30.5255 47.7721 30.4874 47.7819C27.1336 46.079 23.6227 44.7047 20.004 43.6784C23.3024 40.3027 23.4649 38.9864 26.2213 36.354ZM32.9728 38.6767C32.5469 39.7684 32.0204 40.9608 31.4243 42.1763C31.018 42.197 30.6122 42.1287 30.2351 41.9762C29.8579 41.8238 29.5186 41.5908 29.2409 41.2937C30.4043 40.3072 31.6532 39.4263 32.9728 38.6612V38.6767ZM77.5774 33.0247C75.7037 36.3695 76.7102 37.0198 75.2546 40.8601C71.004 37.5618 68.7741 38.3128 64.2293 35.2932C64.2933 33.414 64.9399 31.6012 66.0797 30.1058C70.0139 30.6143 73.8735 31.5889 77.5774 33.0092V33.0247ZM95.0135 43.5855C94.3814 45.5931 93.5918 47.5477 92.6521 49.4311C88.0685 46.3728 85.9548 47.0541 81.8125 44.1894C82.1567 41.5207 82.9692 38.9337 84.2127 36.5475C89.1137 38.7154 90.5848 39.0329 91.8314 39.8071C93.2114 40.7521 94.3108 42.0521 95.0135 43.57V43.5855ZM88.8195 56.1516C87.7175 57.7026 86.7782 59.3631 86.0167 61.1068C85.3271 62.7687 84.8083 64.4964 84.4682 66.2633C81.5803 64.5135 80.2021 64.498 78.4213 63.6463C76.6966 62.7472 75.0608 61.6869 73.5358 60.4796C74.9449 56.0742 76.4934 55.1993 78.0342 50.8789C79.7763 51.63 82.4629 53.3101 88.804 56.1361L88.8195 56.1516ZM71.1743 48.2C67.9534 52.0713 68.6115 53.6198 65.9559 58.1337C61.5039 54.7192 59.3515 55.9735 55.2867 52.6287C56.5252 48.6577 58.6939 45.0398 61.6123 42.0757C63.7155 43.0683 65.7283 44.2418 67.6282 45.583C69.4865 46.907 69.7962 47.3871 71.1743 48.2ZM106.681 63.8089C105.197 65.0033 104.116 66.625 103.584 68.4544C103.221 69.9255 103.112 71.5514 101.54 74.0136C100.471 73.8378 99.4292 73.5201 98.4435 73.069C96.5001 72.1631 96.5388 71.4276 93.7515 70.8469C93.1896 70.748 92.643 70.5762 92.1256 70.3359C91.4974 70.0386 90.9073 69.6669 90.368 69.2287C91.7187 65.6215 93.7094 62.2878 96.2446 59.388C100.998 62.5004 104.707 63.1508 106.681 63.8089ZM64.4074 65.1561C62.4562 68.2531 60.2651 71.8844 58.616 75.144C55.172 73.0705 51.5771 71.2588 47.8616 69.7242C49.3213 66.0032 51.0902 62.411 53.1497 58.9853C58.8095 61.192 58.9876 62.3998 64.4074 65.1793V65.1561ZM46.1273 56.9645C44.3465 62.5779 42.496 64.7071 40.8624 67.5331C36.844 65.0555 35.1794 65.2103 31.2152 62.6553C32.694 58.0098 34.1883 57.2355 35.3652 54.2547C35.7002 53.4229 35.9593 52.5625 36.1394 51.6841C38.2738 53.2683 40.5677 54.6254 42.9838 55.7335C44.0068 56.2047 45.0564 56.6157 46.1273 56.9645ZM30.0848 48.1303C28.8045 50.2575 27.6864 52.4781 26.74 54.7734C25.9346 56.3541 24.89 57.8009 23.643 59.0628C22.5157 59.2131 21.3692 59.1173 20.2825 58.7818C19.1958 58.4463 18.1947 57.8791 17.3484 57.1194C19.6014 52.4119 19.6711 51.1964 20.4454 50.2363C21.39 49.0594 22.5204 48.8426 25.0289 45.885C26.7555 46.5509 28.4434 47.3019 30.0848 48.1303ZM12.757 49.9963C14.7856 47.0851 16.1715 47.3948 19.5937 44.0655C21.2661 44.5301 22.9152 45.072 24.5412 45.6914C22.1023 48.5252 21.0957 48.6181 20.0582 49.9266C19.1678 51.0338 19.284 52.0016 16.8219 57.0729C16.8 57.1217 16.7934 57.1759 16.8031 57.2285C16.8128 57.281 16.8382 57.3294 16.8761 57.3672C17.7968 58.2344 18.9023 58.8815 20.1093 59.2597C21.3163 59.6379 22.5933 59.7373 23.8443 59.5505C23.8972 59.5435 23.9463 59.5189 23.9837 59.4809C25.2731 58.164 26.3494 56.6541 27.1736 55.0057C28.1158 52.7085 29.234 50.4875 30.5184 48.3626C32.3004 49.2635 34.0274 50.2692 35.6904 51.3745C34.7535 56.2832 32.4617 56.9645 30.6887 62.6863C30.6713 62.7384 30.6718 62.7949 30.69 62.8467C30.7082 62.8986 30.7432 62.9429 30.7894 62.9727C34.9006 65.6826 36.5498 65.4658 40.6146 67.9667C39.5481 69.8367 38.6266 71.7858 37.8583 73.7968C35.276 72.9297 32.765 71.8632 30.348 70.6068C26.0432 68.3615 25.8032 67.4557 21.9706 65.7833C18.7962 64.3896 17.7665 64.4593 14.0036 62.6863C12.5248 61.9894 11.0692 61.2152 9.67553 60.3635C11.8667 54.394 10.442 53.3565 12.757 49.9963ZM37.6879 74.2691C37.3213 75.3241 37.0264 76.4028 36.8053 77.4977C36.2446 80.2333 35.1473 82.8306 33.5767 85.1395C32.474 85.3473 31.3367 85.2727 30.2706 84.9228C28.304 84.2646 27.762 82.9484 22.6752 79.1004C24.154 74.7646 25.4857 73.9129 27.1504 69.3526C30.4605 71.3943 33.9967 73.0442 37.6879 74.2691ZM20.9177 65.8839C18.982 69.2442 18.4555 70.8624 15.7999 76.4292C13.7981 76.5032 11.8337 75.8731 10.2485 74.6484C10.0726 70.5231 11.2678 66.4556 13.6474 63.0811C17.3251 64.8232 18.2155 64.7922 20.9177 65.8839ZM4.38739 71.6831C5.16164 67.2156 7.02759 67.3782 9.49745 60.8435C10.6898 61.5481 11.9286 62.214 13.1906 62.8256C10.7544 66.3123 9.54272 70.5082 9.74521 74.7568C9.74771 74.7924 9.75721 74.8271 9.77315 74.859C9.78909 74.8909 9.81117 74.9193 9.83812 74.9427C11.5748 76.3209 13.7564 77.0151 15.9702 76.8938C16.0158 76.8936 16.0605 76.8803 16.0989 76.8557C16.1373 76.831 16.1678 76.7958 16.187 76.7544C19.0285 70.8082 19.3537 69.5694 21.39 66.0465C23.274 66.8389 25.0612 67.8443 26.7168 69.0429C25.0444 73.6884 23.674 74.4626 22.141 79.1081C22.0094 79.4953 22.4584 79.2785 27.0188 83.3201C27.8848 84.2362 28.9423 84.95 30.1158 85.4105C31.3021 85.7874 32.5643 85.8593 33.7857 85.6196C33.8507 85.603 33.908 85.5648 33.9483 85.5112C35.5806 83.1254 36.7204 80.4379 37.3008 77.6061C38.2377 73.2548 40.0726 69.639 42.6586 65.582C43.6141 64.1522 44.4431 62.6418 45.1362 61.0681C45.7048 59.7779 46.201 58.457 46.6228 57.1116C48.5429 57.6769 49.9521 57.8394 52.6852 58.846C50.5789 62.3412 48.7785 66.0119 47.3041 69.8171C47.2809 69.8788 47.2825 69.9471 47.3084 70.0077C47.3344 70.0683 47.3828 70.1166 47.4435 70.1423C51.2984 71.7131 55.0238 73.5848 58.585 75.7401C59.1115 76.0576 58.7631 75.0588 64.8642 65.4116C66.6942 66.3513 68.588 67.1611 70.5317 67.835C68.4025 73.0767 67.0243 74.0832 65.3055 79.1159C65.2904 79.1637 65.2897 79.2148 65.3035 79.263C65.3172 79.3112 65.3449 79.3543 65.3829 79.3869C67.4811 81.1676 68.7199 81.3457 70.942 82.5768C67.6747 81.7612 64.4667 80.9354 61.3181 80.0992C61.2774 80.0878 61.2344 80.0871 61.1933 80.097C61.1522 80.1069 61.1143 80.1272 61.0833 80.1559C61.0522 80.1847 61.029 80.2208 61.0159 80.261C61.0028 80.3013 61.0002 80.3442 61.0084 80.3857C61.2252 81.818 61.4575 83.2659 61.6897 84.7292C53.9472 82.2671 53.173 78.2874 45.6085 76.2124C45.5648 76.2002 45.5186 76.2003 45.4749 76.2126C45.4312 76.2249 45.3917 76.2489 45.3608 76.2821C44.4524 77.2496 43.812 78.4371 43.5026 79.7275C43.069 81.3535 42.3025 82.0503 41.2263 84.466C40.6527 85.7559 40.174 87.086 39.7939 88.4456C39.6545 88.9643 40.4907 88.5463 45.3995 91.4729C46.9396 92.412 48.5348 93.2575 50.1766 94.0047C50.2102 94.0217 50.2474 94.0306 50.285 94.0306C50.3227 94.0306 50.3598 94.0217 50.3934 94.0047C50.6567 93.8886 50.4941 93.424 51.369 91.6355C51.9737 90.4482 52.734 89.3468 53.6298 88.3604C54.9175 86.762 55.8659 84.9179 56.4171 82.9407C58.0986 83.9429 59.895 84.7383 61.7672 85.3099C61.7672 85.4183 61.7672 85.5189 61.8214 85.6273C59.9633 88.8037 58.3607 92.1228 57.0287 95.5532C57.01 95.6012 57.0066 95.6538 57.0191 95.7037C57.0316 95.7537 57.0593 95.7985 57.0984 95.832C59.9167 98.2863 61.6355 97.2179 64.3145 99.8116C64.7584 102.134 65.2152 104.457 65.6849 106.78C56.27 102.452 54.5124 103.412 49.7276 100.059C45.4924 97.094 42.9064 97.094 37.8273 94.3764C34.9777 92.8102 32.005 91.4793 28.9389 90.3967C25.2637 89.0882 21.7656 87.3274 18.5252 85.155C14.2278 82.6107 9.57502 80.7214 4.72032 79.5495C4.54224 75.0511 3.88413 74.5246 4.38739 71.6831ZM55.968 82.6465C54.2569 88.585 51.6709 88.3295 50.1224 93.4318C45.8873 91.4729 44.571 90.056 40.3281 88.3682C40.9352 86.2024 41.8118 84.1215 42.9374 82.1742C43.4017 81.4575 43.7542 80.6742 43.9826 79.8514C44.2547 78.6985 44.814 77.6331 45.6085 76.7544C50.8115 78.2177 52.8168 80.6566 55.968 82.6465ZM64.7248 106.896C63.7001 108.473 62.8141 110.136 62.0769 111.867C60.6522 115.219 60.7452 116.582 59.8006 119.083C58.3654 117.685 56.6351 116.627 54.737 115.986C52.8788 115.489 51.1155 114.688 49.5185 113.617C51.4232 109.436 51.3225 107.701 53.2427 102.607C55.6273 103.613 58.6469 104.171 64.7248 106.896ZM47.1958 99.0761C44.9504 103.35 44.8033 105.138 42.5502 110.287C38.0054 108.615 37.1305 107.19 31.7649 104.736C32.953 101.077 34.4608 97.5304 36.2711 94.1363C37.9853 95.1047 39.7593 95.9633 41.5824 96.7069C43.5062 97.3655 45.3819 98.1571 47.1958 99.0761ZM29.7906 91.2252C28.7593 92.7835 27.8407 94.4136 27.042 96.103C25.4935 99.3858 25.4935 100.563 24.456 102.994C20.9515 101.683 17.685 99.8075 14.7856 97.4424C15.6098 93.4201 16.8635 89.498 18.5252 85.7435C20.4393 87.0199 22.4449 88.1533 24.5257 89.1347C26.2353 89.9408 27.9937 90.639 29.7906 91.2252ZM12.8345 82.8168C12.4242 83.3623 12.0417 83.9283 11.6886 84.5124C11.1771 83.7882 10.9062 82.9214 10.9143 82.0348C11.5724 82.2826 12.2073 82.5458 12.8345 82.8168ZM4.40288 91.4342C4.00801 88.2366 4.99905 87.2687 4.75903 80.076C6.68064 80.5578 8.57293 81.1498 10.4266 81.849C10.3715 82.9815 10.723 84.0963 11.4176 84.9924C9.60585 88.2056 9.86909 89.9399 7.29858 94.2215C7.27751 94.2778 7.27695 94.3397 7.29699 94.3963C7.31703 94.4529 7.35638 94.5007 7.40815 94.5312C7.45991 94.5617 7.52076 94.573 7.58002 94.5631C7.63927 94.5532 7.69314 94.5227 7.73216 94.477C10.775 89.3437 10.0549 87.2765 13.3145 83.0258C14.9549 83.7551 16.5525 84.5771 18.0994 85.488C16.3763 89.3382 15.0782 93.3649 14.2281 97.4966C14.2202 97.5417 14.2239 97.5881 14.2388 97.6315C14.2537 97.6748 14.2793 97.7136 14.3133 97.7444C17.2765 100.184 20.6224 102.117 24.216 103.466C23.3636 105.274 22.3395 106.995 21.1577 108.607C16.994 107.569 13.1257 105.584 9.85361 102.808C5.83524 95.4293 4.79774 94.6474 4.40288 91.4342ZM20.9177 109.048C20.4531 109.823 20.0273 110.597 19.6169 111.332C18.8244 110.485 18.3461 109.392 18.262 108.235C19.1291 108.545 20.0195 108.824 20.9177 109.048ZM10.5349 103.969C12.7251 105.673 15.1539 107.045 17.7432 108.042C17.79 109.457 18.3709 110.801 19.3692 111.805C18.5949 113.276 17.9058 114.793 17.2864 116.334C15.2192 113.647 14.383 111.038 10.5349 103.969ZM25.0676 123.465C22.3051 121.586 19.8099 119.34 17.6503 116.791C18.4214 114.848 19.3082 112.953 20.306 111.116C22.6288 106.842 24.1308 106.106 25.8961 100.477C26.324 99.0554 26.8598 97.668 27.4988 96.3275C28.2974 94.6186 29.224 92.9725 30.2706 91.4032C32.0669 92.0846 34.289 93.1143 35.8452 93.9041C33.9922 97.3917 32.4531 101.037 31.2462 104.798C31.2269 104.857 31.2296 104.92 31.2538 104.977C31.278 105.034 31.3221 105.081 31.3778 105.107C36.9292 107.647 37.8196 109.118 42.6354 110.845C42.6962 110.866 42.7626 110.863 42.8214 110.837C42.8802 110.811 42.9272 110.764 42.9529 110.705C45.2756 105.378 45.3375 103.683 47.5984 99.3238C49.6192 100.454 50.1534 101.213 52.7394 102.421C52.0643 104.231 51.4803 106.073 50.9896 107.941C49.5572 113.237 48.6204 113.593 49.0617 113.895C50.744 115.058 52.6141 115.922 54.5899 116.45C56.4749 117.09 58.1903 118.149 59.607 119.547C58.4689 122.319 57.6327 122.969 56.2855 124.921C54.4643 123.719 52.5541 122.657 50.5715 121.746C46.4989 119.865 44.8033 119.911 41.0405 117.983C39.8481 117.372 39.5539 117.147 39.492 117.116C36.097 114.857 32.5415 112.849 28.8537 111.108C28.8067 111.087 28.7545 111.08 28.7035 111.088C28.6526 111.096 28.6052 111.119 28.5673 111.154C27.0852 112.623 25.8997 114.363 25.0754 116.28C25.0524 116.345 25.0524 116.416 25.0754 116.481C25.9504 118.538 27.2402 120.392 28.8641 121.928C30.488 123.464 32.4112 124.649 34.5135 125.408C34.1505 126.217 33.8678 127.06 33.6696 127.925C29.3415 125.579 28.3737 125.749 25.0676 123.465ZM56.0377 125.377C54.8462 127.213 53.8202 129.151 52.9717 131.169C48.3262 128.482 47.0022 129.744 42.2947 127.7C43.131 125.173 44.2532 122.749 45.6395 120.476C49.3085 121.614 52.7987 123.264 56.0067 125.377H56.0377ZM39.0661 117.496C37.5176 121.522 35.853 122.706 34.7148 124.99C32.6899 124.266 30.8343 123.135 29.2619 121.668C27.6896 120.201 26.4335 118.428 25.5709 116.458C26.3394 114.693 27.4289 113.087 28.7841 111.72C32.0361 113.277 35.1883 115.036 38.2222 116.985C38.5087 117.139 38.7874 117.317 39.0661 117.496ZM51.4541 135.234C47.1493 134.599 44.9814 134.266 43.2161 133.646C39.7552 132.408 39.9255 131.494 34.1186 128.227C34.3255 127.24 34.6532 126.283 35.0942 125.377C36.2711 122.923 37.8892 121.955 39.5074 117.767C41.2915 118.809 43.1842 119.652 45.1517 120.283C43.7335 122.626 42.5904 125.126 41.745 127.731C41.7239 127.79 41.7258 127.854 41.7502 127.912C41.7746 127.969 41.8197 128.015 41.8766 128.041C46.8396 130.255 48.0707 128.862 52.7781 131.602C52.2929 132.79 51.8645 134 51.4928 135.234H51.4541ZM64.9416 134.785C60.5671 135.458 60.6832 136.573 51.9651 135.311C52.8049 132.497 53.9635 129.787 55.4183 127.236C57.5088 123.604 58.4301 123.465 59.8238 120.267C61.2174 117.07 60.9465 115.73 62.5027 112.068C63.2384 110.339 64.1244 108.679 65.1506 107.105L65.77 107.392C66.4411 110.705 67.1482 114.022 67.8915 117.341C67.1979 118.447 66.6218 119.622 66.1727 120.848C65.5533 122.095 65.2436 122.164 65.3984 122.397C65.9977 123.193 66.7999 123.813 67.7212 124.193C68.44 124.53 69.118 124.948 69.742 125.439C70.2607 127.592 70.7795 129.744 71.2905 131.889C68.1238 130.859 67.2643 130 62.8589 128.087C62.814 128.068 62.7646 128.063 62.7166 128.071C62.6686 128.079 62.6239 128.101 62.5879 128.134C61.8237 128.82 61.2367 129.68 60.8768 130.642C60.8554 130.696 60.8538 130.756 60.8722 130.812C60.8906 130.867 60.9279 130.914 60.9774 130.944C61.793 131.439 62.7562 131.633 63.6996 131.491C64.6431 131.35 65.5072 130.882 66.1417 130.17C67.8246 131.114 69.5957 131.892 71.4298 132.493L71.9408 134.49C69.6169 134.331 67.2825 134.43 64.9803 134.785H64.9416ZM65.7158 129.961C65.1777 130.519 64.4725 130.886 63.7071 131.008C62.9416 131.129 62.1574 130.998 61.4729 130.635C61.7886 129.878 62.2609 129.197 62.8589 128.637C64.0589 129.14 65.0345 129.62 65.7546 129.961H65.7158Z" fill="black"/>
<path d="M98.6368 53.4959C100.42 54.763 102.4 55.7258 104.498 56.3452C104.545 56.359 104.596 56.3589 104.643 56.3447C104.69 56.3305 104.733 56.3029 104.765 56.2652C104.796 56.2275 104.817 56.1813 104.823 56.1323C104.829 56.0833 104.821 56.0335 104.8 55.989C103.507 53.4172 101.736 51.1153 99.5813 49.2066C99.5499 49.1788 99.512 49.1593 99.4712 49.1497C99.4304 49.14 99.3878 49.1406 99.3472 49.1513C99.3067 49.162 99.2694 49.1825 99.2387 49.2111C99.2079 49.2396 99.1847 49.2753 99.171 49.3149C98.7452 50.5959 98.5282 51.937 98.5284 53.2869C98.5277 53.328 98.5372 53.3686 98.5561 53.4051C98.575 53.4416 98.6028 53.4728 98.6368 53.4959ZM99.5349 49.8724C101.363 51.5462 102.894 53.5174 104.064 55.7025C102.273 55.1134 100.578 54.2656 99.0316 53.1862C99.047 52.0638 99.2164 50.9488 99.5349 49.8724Z" fill="black"/>
<path d="M110.599 79.9907C110.633 80.0014 110.668 80.0053 110.703 80.0021C110.738 79.9989 110.772 79.9886 110.803 79.972C110.834 79.9554 110.862 79.9328 110.884 79.9054C110.906 79.878 110.922 79.8465 110.932 79.8127C111.538 77.3115 111.387 74.6867 110.499 72.2714C110.48 72.2265 110.448 72.1881 110.407 72.1611C110.367 72.1341 110.319 72.1197 110.27 72.1197C110.221 72.1197 110.174 72.1341 110.133 72.1611C110.092 72.1881 110.061 72.2265 110.042 72.2714C109.096 74.0428 108.261 75.8709 107.541 77.7454C107.525 77.79 107.521 77.8382 107.531 77.8847C107.54 77.9312 107.563 77.9741 107.595 78.0086C108.428 78.8948 109.457 79.5736 110.599 79.9907ZM110.212 73.0225C110.87 75.0995 110.971 77.3126 110.506 79.441C109.593 79.0604 108.766 78.4995 108.075 77.7919C108.7 76.1542 109.413 74.5518 110.212 72.9915V73.0225Z" fill="black"/>
<path d="M71.3053 86.6803C70.5311 86.7732 70.322 87.4546 69.8962 87.4546C69.2845 87.4159 68.9748 86.3706 68.1851 86.479C67.767 86.5409 67.4109 86.8971 67.1708 87.5475C66.7837 88.7398 67.7593 90.1567 68.4793 90.1103C68.6797 90.0867 68.8643 89.9903 68.9981 89.8393C69.1994 89.638 69.2303 89.6767 69.3775 89.8393C69.4915 90.0357 69.6572 90.1972 69.8564 90.3064C70.0556 90.4156 70.2809 90.4682 70.5079 90.4587C71.3905 90.4587 72.459 89.7386 72.5054 88.9102C72.5137 88.7515 72.4873 88.593 72.428 88.4456C72.428 88.3372 72.3815 88.2985 72.428 88.2366C72.5132 88.0043 72.97 88.0275 73.0164 87.6326C73.018 87.5348 72.9971 87.4379 72.9556 87.3494C72.914 87.2608 72.8527 87.1829 72.7764 87.1216C72.5755 86.9496 72.3409 86.8214 72.0875 86.7454C71.8342 86.6694 71.5678 86.6473 71.3053 86.6803ZM71.9325 88.1049C71.8672 88.2797 71.8672 88.4722 71.9325 88.6469C71.9704 88.7348 71.9889 88.8299 71.9867 88.9256C71.8543 89.3042 71.5801 89.6167 71.222 89.7972C70.8638 89.9777 70.4496 90.0122 70.0665 89.8935C69.7259 89.6999 69.6872 89.1966 69.1684 89.1966C68.6497 89.1966 68.58 89.5992 68.4406 89.607C68.1464 89.6534 67.3412 88.6005 67.6664 87.6946C67.829 87.2687 68.0535 87.0132 68.2703 86.9823C68.7193 86.9281 69.0445 87.9191 69.9194 87.9578C70.6937 87.9578 70.6937 87.261 71.3828 87.1836C71.5852 87.1635 71.7895 87.19 71.9801 87.2611C72.1707 87.3323 72.3425 87.4461 72.4822 87.5939C72.219 87.7256 72.0177 87.8107 71.917 88.1049H71.9325Z" fill="black"/>
<path d="M68.5802 94.7789C68.1986 94.8774 67.8424 95.0561 67.5353 95.3031C67.2283 95.5501 66.9774 95.8597 66.7994 96.2113C66.6708 96.6295 66.5877 97.0605 66.5517 97.4966C66.4839 97.8907 66.4451 98.2892 66.4355 98.6889C66.5749 100.067 68.3634 100.865 68.9132 101.074C69.3329 101.264 69.7846 101.374 70.2449 101.399C70.584 101.4 70.9167 101.306 71.2044 101.127C71.4921 100.947 71.7232 100.69 71.8708 100.385C72.0566 99.9664 71.8708 99.8038 71.9947 99.4167C72.0355 99.2693 72.119 99.1373 72.2347 99.0373C72.4763 98.7546 72.6381 98.4126 72.7034 98.0465C72.7688 97.6803 72.7352 97.3034 72.6063 96.9546C72.5195 96.5268 72.3398 96.1233 72.0799 95.7726C71.82 95.4219 71.4862 95.1326 71.1022 94.9251C70.7181 94.7175 70.2932 94.5969 69.8574 94.5716C69.4217 94.5464 68.9857 94.6172 68.5802 94.7789ZM72.1186 98.3095C71.956 98.7509 71.685 98.6889 71.5069 99.2773C71.3753 99.7264 71.5069 99.9355 71.4062 100.183C71.2891 100.436 71.0861 100.639 70.8333 100.756C70.5494 100.853 70.2484 100.889 69.9498 100.862C69.6511 100.835 69.3613 100.747 69.099 100.601C68.1157 100.214 67.024 99.5019 66.9388 98.6657C66.9523 98.2999 66.9885 97.9353 67.0472 97.574C67.093 97.183 67.1628 96.7951 67.2563 96.4126C67.4107 96.1264 67.6235 95.8759 67.8809 95.6771C68.1383 95.4784 68.4346 95.336 68.7506 95.259C69.0889 95.1263 69.4524 95.0698 69.815 95.0937C70.1777 95.1177 70.5306 95.2213 70.8486 95.3973C71.1666 95.5733 71.4418 95.8173 71.6546 96.1119C71.8675 96.4066 72.0127 96.7445 72.0798 97.1017C72.2142 97.4992 72.2277 97.9276 72.1186 98.3328V98.3095Z" fill="black"/>
<path d="M76.3386 107.872C76.1198 107.73 75.9335 107.544 75.792 107.325C75.6505 107.106 75.5571 106.859 75.5179 106.602C75.4637 106.369 75.4017 106.099 75.123 106.037C74.612 105.936 74.581 106.702 73.5203 107.314C73.3561 107.391 73.2205 107.519 73.1332 107.678C72.7151 108.452 73.3732 109.761 74.0236 109.768C74.4339 109.768 74.4417 109.397 74.7978 109.304C75.154 109.211 75.2701 109.466 75.7347 109.381C76.1992 109.296 76.7334 108.901 76.7489 108.452C76.7398 108.327 76.6967 108.207 76.6244 108.105C76.5521 108.003 76.4533 107.922 76.3386 107.872ZM75.6185 108.886C75.5036 108.905 75.3855 108.892 75.2779 108.847C75.0714 108.781 74.8494 108.781 74.643 108.847C74.393 108.925 74.1755 109.083 74.0236 109.296C73.799 109.296 73.3345 108.406 73.5745 107.949C73.5745 107.879 73.6442 107.856 73.7681 107.786C74.2554 107.497 74.6773 107.109 75.0069 106.648C75.0696 107.043 75.2204 107.419 75.4482 107.748C75.7889 108.212 76.2224 108.367 76.2224 108.468C76.2224 108.568 75.9515 108.832 75.6185 108.886Z" fill="black"/>
<path d="M113.216 96.521C112.722 96.5138 112.243 96.6958 111.879 97.0298C111.515 97.3638 111.292 97.8244 111.257 98.3173C111.332 98.7856 111.584 99.2071 111.961 99.4941C112.27 99.8816 112.717 100.134 113.208 100.199C113.501 100.153 113.78 100.045 114.027 99.8816C114.274 99.7184 114.484 99.504 114.641 99.2529C114.798 99.0018 114.899 98.7199 114.938 98.4262C114.977 98.1325 114.952 97.834 114.865 97.5508C114.713 97.243 114.478 96.9837 114.186 96.8019C113.895 96.62 113.559 96.5228 113.216 96.521ZM113.216 99.6955C112.859 99.6187 112.541 99.4186 112.318 99.1302C112.04 98.9228 111.845 98.6238 111.768 98.2863C111.812 97.9333 111.985 97.6091 112.254 97.3761C112.522 97.143 112.868 97.0177 113.223 97.0243C113.47 97.0245 113.711 97.0935 113.92 97.2235C114.13 97.3534 114.299 97.5392 114.408 97.7598C114.465 97.966 114.479 98.1818 114.449 98.3937C114.419 98.6055 114.345 98.8088 114.232 98.9907C114.119 99.1725 113.97 99.3291 113.794 99.4504C113.618 99.5717 113.418 99.6551 113.208 99.6955H113.216Z" fill="black"/>
<path d="M122.344 76.8783C123.738 75.9414 123.637 73.8355 122.553 73.3864C122.168 73.2841 121.759 73.3194 121.397 73.4862C121.036 73.653 120.743 73.9408 120.571 74.3C119.835 75.6008 120.857 77.8925 122.344 76.8783ZM121.012 74.5555C121.26 74.1142 121.879 73.6651 122.352 73.8587C123.025 74.1374 123.126 75.7324 122.065 76.4679C121.91 76.5905 121.713 76.6486 121.516 76.6305C121.02 76.5066 120.563 75.3453 121.012 74.5478V74.5555Z" fill="black"/>
<path d="M57.8959 140.243C57.7165 140.289 57.5483 140.371 57.4019 140.484C57.2554 140.597 57.1336 140.739 57.0442 140.901C56.765 141.296 56.4191 141.639 56.0222 141.915C55.5344 142.264 55.2479 142.334 55.1705 142.69C55.166 142.812 55.1879 142.935 55.2347 143.048C55.2814 143.162 55.3519 143.264 55.4415 143.348C55.6739 143.588 55.9516 143.78 56.2585 143.913C56.5654 144.046 56.8956 144.117 57.23 144.122C58.5849 144.122 60.1334 142.651 59.7618 141.412C59.6293 141.035 59.3725 140.713 59.0335 140.501C58.6944 140.289 58.2933 140.198 57.8959 140.243ZM57.2532 143.627C56.3473 143.627 55.6505 142.976 55.7047 142.759C56.3915 142.364 56.9939 141.838 57.4778 141.211C57.7023 140.917 57.8029 140.785 58.0197 140.746C58.2962 140.73 58.5707 140.802 58.8033 140.953C59.0358 141.103 59.2143 141.324 59.3127 141.582C59.5373 142.434 58.2985 143.627 57.2532 143.627Z" fill="black"/>
<path d="M65.0344 137.603C64.1518 137.254 63.3621 138.307 63.3543 138.323C63.1862 138.504 63.064 138.723 62.998 138.962C62.932 139.2 62.9241 139.451 62.9749 139.693C63.0598 139.962 63.2275 140.198 63.4541 140.366C63.6807 140.534 63.9547 140.627 64.237 140.63C64.6055 140.609 64.9569 140.467 65.2368 140.227C65.5167 139.986 65.7095 139.66 65.7855 139.298C65.8724 138.972 65.8454 138.627 65.7088 138.318C65.5722 138.01 65.3342 137.757 65.0344 137.603ZM65.259 139.19C65.214 139.456 65.0735 139.696 64.864 139.866C64.6544 140.035 64.3902 140.123 64.1208 140.111C63.9699 140.086 63.8288 140.02 63.7127 139.921C63.5967 139.821 63.5102 139.692 63.4627 139.546C63.4359 139.381 63.4485 139.213 63.4997 139.054C63.5508 138.895 63.639 138.751 63.7569 138.632C63.7569 138.632 64.2215 138.044 64.6705 138.044C65.1196 138.044 65.3596 138.718 65.259 139.19Z" fill="black"/>
<path d="M151.054 146.925C141.089 147.002 125.983 147.211 125.217 146.925C124.775 146.615 120.656 141.188 115.926 134.816L119.394 130.859C121.294 128.736 122.86 126.337 124.04 123.744C125.194 121.142 124.954 120.585 126.479 117.333C127.371 115.435 128.406 113.607 129.576 111.867C129.707 111.665 129.576 111.542 129.336 111.472C128.562 111.232 126.115 111 120.819 109.482C119.766 108.708 116.39 106.238 115.144 105.828C112.999 105.123 112.38 106.191 110.63 105.634C109.205 105.177 109.345 104.372 106.96 102.537C105.334 101.283 103.785 100.083 101.803 100.121C99.9684 100.121 99.8291 101.143 98.1722 101.422C95.6326 101.856 94.688 99.6336 90.1509 98.0618C89.0747 97.6902 89.0979 97.845 83.2601 96.6295C83.729 96.6012 84.1784 96.4314 84.5488 96.1425C84.9193 95.8536 85.1934 95.4592 85.3351 95.0113C85.4512 94.3764 85.0486 93.9583 84.6228 93.517C84.1939 93.1596 83.8721 92.6906 83.6931 92.1618C83.5141 91.633 83.4848 91.065 83.6085 90.5206C83.6704 90.087 83.7246 89.6767 83.3762 89.4057C83.0278 89.1347 82.602 89.2276 81.3632 89.7231C79.3037 90.5593 78.3591 90.9387 78.2662 91.7207C78.1268 92.6963 79.2185 93.6641 79.8147 94.0435C80.4108 94.4228 80.7438 94.3609 81.038 94.7558C81.4483 95.2977 81.1232 95.8397 82.0368 96.374L78.2894 95.5997C76.8415 95.1042 75.4092 94.6164 73.9923 94.1209C73.8142 94.0667 73.6129 94.1828 73.6826 94.4925C73.8297 95.1816 74.7278 97.7366 77.7784 108.847C77.9332 110.396 78.0649 112.099 78.1345 113.671C78.4055 117.326 79.6514 120.842 81.7426 123.852C82.029 124.959 82.3232 126.082 82.6252 127.228C81.9748 130.046 81.9593 132.384 82.5865 134.196C82.7827 134.698 82.9355 135.216 83.0433 135.745C83.4459 137.696 82.9194 138.253 83.1207 139.871C83.334 141.336 83.9627 142.709 84.9325 143.828C85.7532 144.788 86.6436 145.167 88.8966 147.699C89.2992 148.853 89.6709 149.828 89.9186 150.587C89.9306 150.619 89.9488 150.648 89.9721 150.672C89.9954 150.697 90.0233 150.717 90.0543 150.73C90.0853 150.744 90.1187 150.751 90.1526 150.752C90.1864 150.753 90.2201 150.747 90.2516 150.734C94.3076 149.169 98.1012 146.994 101.501 144.285C106.797 139.84 108.965 140.08 111.791 138.47C113.208 137.602 114.472 136.506 115.531 135.226C120.053 141.296 124.52 147.188 124.946 147.405C125.813 147.831 150.109 147.444 151.023 147.405C151.059 147.411 151.097 147.41 151.133 147.4C151.169 147.39 151.203 147.373 151.231 147.349C151.26 147.325 151.283 147.295 151.298 147.261C151.314 147.227 151.322 147.191 151.322 147.153C151.322 147.116 151.314 147.079 151.298 147.045C151.283 147.011 151.26 146.982 151.231 146.958C151.203 146.934 151.169 146.916 151.133 146.906C151.097 146.897 151.059 146.895 151.023 146.902L151.054 146.925ZM114.919 106.339C116.023 106.834 117.062 107.461 118.016 108.205C118.016 108.205 118.922 108.824 119.301 109.103C116.483 108.243 113.99 107.33 111.296 106.331C112.627 106.431 113.255 105.789 114.919 106.339ZM118.729 109.436C117.788 110.438 116.599 111.175 115.283 111.573C114.741 110.798 112.666 107.817 112.186 107.183C114.377 107.995 116.452 108.716 118.729 109.443V109.436ZM111.342 106.865C114.997 111.805 114.881 112.207 115.213 112.107C116.768 111.679 118.165 110.807 119.232 109.598C121.253 110.21 123.328 110.752 125.557 111.247C125.444 111.705 125.224 112.129 124.914 112.485C124.605 112.84 124.215 113.117 123.777 113.291C121.831 114.362 119.983 115.603 118.256 117C118.211 117.037 118.179 117.089 118.167 117.147C118.154 117.204 118.161 117.264 118.187 117.317C118.641 118.223 119.142 119.104 119.689 119.958C119.705 119.987 119.728 120.012 119.755 120.032C119.781 120.052 119.812 120.067 119.845 120.075C119.877 120.083 119.911 120.084 119.944 120.079C119.977 120.073 120.009 120.061 120.037 120.043C120.848 119.54 121.461 118.775 121.776 117.875C122.09 116.974 122.086 115.993 121.764 115.095C122.469 114.592 123.212 114.145 123.986 113.756C124.495 113.548 124.949 113.222 125.308 112.804C125.667 112.387 125.923 111.891 126.053 111.356C126.99 111.565 127.934 111.751 128.879 111.929C127.79 113.595 126.82 115.336 125.976 117.139C124.427 120.484 124.69 120.941 123.529 123.566C122.414 126.027 120.937 128.308 119.147 130.333C116.733 127.393 114.706 124.156 113.115 120.701C112.291 118.636 111.121 116.727 109.654 115.057L109.6 114.987C108.253 113.5 107.138 112.804 105.264 110.52C103.671 108.571 102.312 106.443 101.215 104.178L101.989 103.59C104.676 104.403 108.725 105.905 111.342 106.873V106.865ZM120.006 119.478C119.549 118.703 119.147 118.03 118.767 117.286C119.743 116.512 120.61 115.924 121.361 115.397C121.595 116.133 121.59 116.925 121.347 117.658C121.104 118.391 120.634 119.028 120.006 119.478ZM94.7887 132.64C91.7218 134.146 88.8469 136.015 86.2255 138.207C85.5906 136.147 85.0176 134.196 84.4834 132.33C86.9765 129.233 88.7418 129.349 93.3718 126.005C93.4251 125.966 93.4613 125.908 93.4729 125.843C93.4844 125.778 93.4704 125.711 93.4338 125.656C91.111 122.188 89.9496 121.94 88.3005 119.315C87.4712 118.005 86.5142 116.781 85.4435 115.661C87.4565 114.515 88.7728 114.383 91.1265 112.904C94.2235 117.24 96.1978 117.488 99.2948 121.971C99.3179 122.001 99.3478 122.026 99.382 122.043C99.4163 122.06 99.454 122.069 99.4923 122.069C99.5305 122.069 99.5682 122.06 99.6025 122.043C99.6367 122.026 99.6666 122.001 99.6897 121.971C100.875 120.678 102.273 119.599 103.824 118.781C105.814 117.903 107.697 116.802 109.438 115.498C110.773 117.049 111.843 118.809 112.604 120.709C110.978 121.707 109.368 122.745 107.796 123.806L106.642 122.257C106.602 122.203 106.542 122.167 106.476 122.157C106.409 122.146 106.341 122.163 106.286 122.203C106.259 122.222 106.235 122.247 106.217 122.275C106.199 122.304 106.188 122.336 106.182 122.369C106.177 122.403 106.179 122.437 106.188 122.469C106.196 122.502 106.211 122.533 106.232 122.559C106.511 122.946 106.906 123.473 107.378 124.108C100.433 128.9 100.913 129.62 94.7887 132.655V132.64ZM97.2044 131.951C99.7981 135.567 100.147 137.456 101.912 139.786C98.3909 142.541 93.9866 143.917 89.5238 143.657C88.9799 142.475 88.1266 141.461 87.0539 140.723C86.8371 140.049 86.6281 139.391 86.4268 138.741C91.1652 134.73 94.6184 133.414 97.2044 131.943V131.951ZM91.5523 112.633C93.1008 111.619 93.1008 111.209 96.7553 107.949C98.0793 106.764 99.4265 105.626 100.812 104.488C103.909 110.907 107.688 113.663 109.066 115.142C105.102 118.169 102.802 117.952 99.5271 121.421C96.4378 117.085 94.6261 116.892 91.5523 112.649V112.633ZM107.649 124.526C108.803 126.074 110.374 128.227 112.109 130.565C110.873 132.212 109.286 133.564 107.463 134.521C105.753 132.476 104.295 130.233 103.12 127.84C104.598 126.717 106.147 125.594 107.649 124.541V124.526ZM108.067 124.239C109.616 123.186 111.164 122.164 112.782 121.181C113.751 123.246 114.879 125.231 116.158 127.119C114.783 127.973 113.535 129.016 112.449 130.216C110.955 128.172 109.461 126.152 108.067 124.255V124.239ZM101.749 100.64C103.615 100.64 105.078 101.794 106.596 102.963C107.572 103.786 108.498 104.668 109.368 105.603C102.686 103.149 101.904 103.063 98.1567 101.949C99.8833 101.685 100.131 100.671 101.749 100.656V100.64ZM89.9264 98.5573C91.4824 99.1043 92.9607 99.8513 94.3241 100.779C93.8828 100.64 85.9777 98.147 82.5942 97.0321C89.2218 98.4412 88.8424 98.1934 89.9264 98.5728V98.5573ZM81.9439 95.7546C81.6187 95.4061 81.7658 94.9803 81.3632 94.4616C80.9606 93.9428 80.5889 93.9893 80.0005 93.6254C79.4121 93.2615 78.5914 92.433 78.6843 91.8059C78.7539 91.3181 79.7837 90.9 81.5103 90.2032C83.9879 89.2044 82.7259 90.1025 83.0588 91.8446C83.3917 93.5867 84.9557 94.1131 84.8086 94.9416C84.7084 95.2141 84.5455 95.4591 84.3331 95.657C84.1207 95.8549 83.8647 96 83.5859 96.0807C83.307 96.1613 83.013 96.1752 82.7278 96.1213C82.4425 96.0673 82.174 95.947 81.9439 95.77V95.7546ZM93.9138 101.174C91.0103 103.063 90.4142 104.07 87.6733 105.309C85.5299 102.761 83.5516 100.08 81.7503 97.2798C85.8925 98.6503 89.8877 99.9433 93.9138 101.198V101.174ZM74.2013 94.779C76.0595 95.4216 77.941 96.0565 79.8456 96.6991C78.6301 97.8605 78.0726 98.0618 75.6802 99.8349C75.1769 98.1238 74.7046 96.4359 74.2013 94.779ZM75.9512 100.679L75.8505 100.323C78.3204 98.4799 78.9475 98.2786 80.4108 96.8463L81.0148 97.0476C82.9488 100.112 85.0935 103.038 87.4333 105.804C87.4695 105.844 87.5175 105.872 87.5703 105.883C87.6232 105.894 87.6782 105.888 87.7275 105.866C90.7703 104.55 91.5988 103.226 94.5719 101.391C97.7618 102.374 101.145 103.342 101.385 103.412C98.5437 105.668 95.8175 108.066 93.217 110.597C92.5824 111.274 91.8643 111.867 91.08 112.362C90.0019 113.054 88.855 113.633 87.6578 114.089C85.0629 115.086 82.7374 116.677 80.8676 118.734C80.7438 118.262 79.8069 114.662 79.4508 113.315C80.5723 112.802 81.6006 112.106 82.4936 111.255C82.5288 111.208 82.5478 111.151 82.5478 111.092C82.5478 111.034 82.5288 110.977 82.4936 110.93C79.234 105.859 79.3424 104.008 75.9512 100.679ZM76.2454 101.701C79.0017 104.689 79.0017 106.346 81.9903 110.992C81.1986 111.724 80.2973 112.327 79.3191 112.78C78.3204 109.172 77.2829 105.433 76.2221 101.701H76.2454ZM79.8224 119.292C78.4984 116.102 78.5991 114.011 78.4133 111.549C78.9475 113.508 81.0922 121.715 81.2161 122.218C80.6772 121.28 80.2113 120.302 79.8224 119.292ZM80.9838 119.292C82.1621 118.005 83.5085 116.882 84.9867 115.955C87.8669 118.959 87.5262 119.756 90.0503 122.366C91.0838 123.412 92.0242 124.547 92.8608 125.757C88.4321 128.916 86.7907 128.854 84.2976 131.765C83.2833 128.111 81.9439 122.946 80.9993 119.284L80.9838 119.292ZM85.2422 143.464C84.3333 142.422 83.7446 141.139 83.5466 139.771C83.3607 138.222 83.8717 137.618 83.4614 135.598C83.345 135.052 83.1872 134.516 82.9891 133.995C82.45 132.137 82.3993 130.172 82.842 128.289C84.5144 134.483 86.2332 140.166 88.4011 146.484C86.7907 144.741 85.8848 144.223 85.2422 143.464ZM90.2283 150.161C89.1521 147.18 87.6811 142.752 87.2939 141.567C88.0703 142.23 88.6848 143.061 89.0902 143.998C89.109 144.04 89.1392 144.077 89.1776 144.103C89.2159 144.129 89.2607 144.143 89.307 144.145C93.9553 144.48 98.5618 143.072 102.229 140.197C102.707 140.798 103.224 141.367 103.778 141.9C100.859 143.913 98.8922 146.6 90.2206 150.161H90.2283ZM104.242 141.606C100.727 138.369 100.983 136.372 97.6534 131.711C99.4363 130.685 101.123 129.501 102.694 128.172C103.91 130.628 105.42 132.927 107.192 135.017C107.229 135.062 107.279 135.092 107.336 135.104C107.392 135.115 107.451 135.106 107.502 135.079C109.429 134.11 111.111 132.714 112.418 130.998L115.26 134.816C110.63 139.902 109.6 138.075 104.235 141.606H104.242ZM112.759 130.611C113.834 129.42 115.075 128.389 116.445 127.553C117.219 128.645 117.993 129.705 118.852 130.735C118.249 131.44 115.995 133.987 115.601 134.428C114.664 133.182 113.711 131.897 112.759 130.611Z" fill="black"/>
<path d="M131.357 145.105C131.424 145.105 131.489 145.078 131.537 145.03C131.585 144.983 131.612 144.918 131.612 144.85V136.767C131.612 136.699 131.585 136.634 131.537 136.586C131.489 136.538 131.424 136.511 131.357 136.511C131.289 136.511 131.224 136.538 131.176 136.586C131.128 136.634 131.101 136.699 131.101 136.767V144.865C131.105 144.93 131.134 144.991 131.181 145.036C131.229 145.081 131.291 145.105 131.357 145.105Z" fill="black"/>
<path d="M133.3 137.022H136.606L134.345 139.585C134.311 139.629 134.292 139.683 134.292 139.739C134.291 139.795 134.309 139.849 134.342 139.894C134.376 139.939 134.423 139.972 134.476 139.987C134.53 140.003 134.587 140 134.64 139.98C134.965 139.788 135.33 139.671 135.707 139.638C136.083 139.605 136.462 139.656 136.817 139.787C137.171 139.919 137.492 140.128 137.756 140.398C138.02 140.669 138.22 140.996 138.342 141.353C138.464 141.711 138.505 142.092 138.461 142.467C138.418 142.843 138.292 143.204 138.091 143.525C137.891 143.846 137.622 144.118 137.303 144.321C136.985 144.525 136.625 144.655 136.25 144.703C135.754 144.762 135.251 144.686 134.796 144.481C134.34 144.276 133.949 143.952 133.664 143.541C133.647 143.508 133.623 143.479 133.594 143.456C133.564 143.433 133.53 143.416 133.494 143.408C133.458 143.4 133.42 143.399 133.383 143.407C133.347 143.414 133.313 143.43 133.283 143.452C133.253 143.475 133.228 143.503 133.211 143.536C133.193 143.569 133.183 143.606 133.181 143.643C133.179 143.68 133.185 143.717 133.199 143.752C133.213 143.787 133.234 143.818 133.261 143.843C133.555 144.279 133.954 144.633 134.422 144.872C134.89 145.111 135.41 145.227 135.935 145.209C136.46 145.191 136.972 145.04 137.423 144.77C137.873 144.5 138.248 144.12 138.511 143.665C139.928 141.342 137.837 138.834 135.321 139.244L137.349 136.921C137.383 136.886 137.405 136.841 137.414 136.793C137.422 136.745 137.416 136.695 137.396 136.65C137.376 136.606 137.343 136.568 137.302 136.542C137.261 136.516 137.213 136.502 137.164 136.503H133.292C133.227 136.503 133.164 136.529 133.117 136.576C133.071 136.622 133.045 136.685 133.045 136.751C133.041 136.786 133.045 136.822 133.057 136.855C133.068 136.888 133.087 136.919 133.111 136.944C133.135 136.97 133.165 136.99 133.197 137.004C133.23 137.017 133.265 137.023 133.3 137.022Z" fill="black"/>
<path d="M141.353 145.105C141.384 145.116 141.416 145.121 141.449 145.119C141.482 145.117 141.514 145.109 141.544 145.094C141.573 145.08 141.6 145.06 141.621 145.035C141.643 145.01 141.66 144.982 141.67 144.95C142.305 143.154 143.993 138.478 144.589 136.852C144.606 136.79 144.598 136.724 144.568 136.667C144.538 136.61 144.488 136.567 144.428 136.545C144.367 136.524 144.301 136.526 144.242 136.551C144.183 136.576 144.135 136.623 144.109 136.681C143.536 138.307 141.833 142.984 141.198 144.788C141.187 144.819 141.182 144.852 141.184 144.885C141.186 144.917 141.194 144.949 141.209 144.979C141.223 145.009 141.243 145.035 141.268 145.057C141.293 145.078 141.321 145.095 141.353 145.105Z" fill="black"/>
<path d="M140.756 138.996C141.001 138.996 141.24 138.924 141.444 138.788C141.648 138.652 141.807 138.458 141.9 138.232C141.994 138.005 142.019 137.756 141.971 137.516C141.923 137.276 141.805 137.055 141.632 136.882C141.459 136.708 141.238 136.59 140.998 136.543C140.757 136.495 140.508 136.519 140.282 136.613C140.055 136.707 139.862 136.866 139.726 137.069C139.59 137.273 139.517 137.513 139.517 137.758C139.517 138.086 139.648 138.401 139.88 138.634C140.112 138.866 140.427 138.996 140.756 138.996ZM140.756 137.022C140.901 137.022 141.044 137.065 141.165 137.146C141.285 137.227 141.38 137.342 141.435 137.476C141.491 137.611 141.506 137.758 141.477 137.901C141.449 138.044 141.379 138.175 141.276 138.278C141.173 138.381 141.042 138.451 140.899 138.479C140.757 138.507 140.609 138.493 140.474 138.437C140.34 138.382 140.225 138.287 140.144 138.166C140.063 138.045 140.02 137.903 140.02 137.758C140.03 137.566 140.11 137.384 140.246 137.248C140.382 137.112 140.564 137.032 140.756 137.022Z" fill="black"/>
<path d="M143.667 143.882C143.665 144.129 143.737 144.371 143.874 144.577C144.01 144.784 144.205 144.945 144.433 145.04C144.661 145.135 144.912 145.16 145.155 145.113C145.397 145.065 145.62 144.946 145.795 144.771C145.97 144.596 146.089 144.373 146.137 144.131C146.184 143.888 146.159 143.637 146.064 143.409C145.968 143.181 145.807 142.986 145.601 142.85C145.395 142.714 145.153 142.642 144.906 142.643C144.577 142.643 144.262 142.774 144.03 143.006C143.798 143.238 143.667 143.553 143.667 143.882ZM144.906 143.146C145.101 143.146 145.288 143.224 145.426 143.362C145.564 143.5 145.641 143.687 145.641 143.882C145.641 144.077 145.564 144.264 145.426 144.402C145.288 144.54 145.101 144.617 144.906 144.617C144.711 144.617 144.524 144.54 144.386 144.402C144.248 144.264 144.17 144.077 144.17 143.882C144.17 143.687 144.248 143.5 144.386 143.362C144.524 143.224 144.711 143.146 144.906 143.146Z" fill="black"/>
<path d="M110.475 13.5832C110.54 13.6025 110.61 13.5954 110.669 13.5635C110.729 13.5316 110.773 13.4774 110.793 13.4129C111.923 9.75067 112.481 8.76737 113.704 5.32969C113.726 5.26603 113.722 5.1961 113.693 5.13518C113.664 5.07425 113.613 5.02728 113.549 5.00451C113.518 4.99356 113.485 4.98888 113.452 4.99076C113.419 4.99264 113.387 5.00103 113.358 5.01544C113.328 5.02985 113.302 5.05 113.28 5.07471C113.259 5.09941 113.242 5.12819 113.232 5.15936C112.016 8.58155 111.443 9.59582 110.313 13.2658C110.293 13.3294 110.299 13.3983 110.329 13.4576C110.36 13.5169 110.412 13.5619 110.475 13.5832Z" fill="black"/>
<path d="M109.879 7.47439C110.126 7.47592 110.368 7.40412 110.574 7.26808C110.78 7.13205 110.941 6.9379 111.036 6.71027C111.132 6.48263 111.157 6.23175 111.11 5.98944C111.063 5.74712 110.945 5.52429 110.771 5.34918C110.597 5.17407 110.375 5.05458 110.133 5.00585C109.891 4.95712 109.64 4.98135 109.411 5.07547C109.183 5.16958 108.988 5.32935 108.851 5.5345C108.713 5.73966 108.64 5.98097 108.64 6.22784C108.64 6.55711 108.77 6.87301 109.002 7.10656C109.235 7.34011 109.55 7.47234 109.879 7.47439ZM109.879 5.49231C110.033 5.48457 110.187 5.52332 110.319 5.60356C110.451 5.68379 110.557 5.80184 110.621 5.94246C110.686 6.08308 110.707 6.23982 110.681 6.39247C110.656 6.54512 110.586 6.68667 110.479 6.79885C110.372 6.91104 110.235 6.98872 110.084 7.02187C109.932 7.05501 109.775 7.04211 109.631 6.98482C109.487 6.92753 109.364 6.82848 109.277 6.70046C109.19 6.57243 109.144 6.4213 109.143 6.26656C109.138 6.16676 109.153 6.06693 109.188 5.97318C109.222 5.87942 109.276 5.7937 109.345 5.72124C109.413 5.64879 109.496 5.59112 109.588 5.55176C109.68 5.5124 109.779 5.49217 109.879 5.49231Z" fill="black"/>
<path d="M112.79 12.3521C112.79 12.5972 112.863 12.8367 112.999 13.0404C113.135 13.2441 113.328 13.4029 113.555 13.4966C113.781 13.5904 114.03 13.6149 114.271 13.5671C114.511 13.5193 114.732 13.4014 114.905 13.2281C115.078 13.0549 115.196 12.8341 115.244 12.5938C115.292 12.3535 115.267 12.1044 115.173 11.8781C115.08 11.6517 114.921 11.4582 114.717 11.3221C114.513 11.186 114.274 11.1133 114.029 11.1133C113.7 11.1133 113.385 11.2439 113.153 11.4762C112.921 11.7085 112.79 12.0236 112.79 12.3521ZM114.029 11.6166C114.172 11.6242 114.311 11.6737 114.426 11.7589C114.542 11.8442 114.63 11.9616 114.68 12.0965C114.73 12.2313 114.739 12.3779 114.707 12.5179C114.674 12.6579 114.601 12.7854 114.497 12.8844C114.392 12.9834 114.262 13.0497 114.12 13.0751C113.978 13.1005 113.833 13.0838 113.7 13.0272C113.568 12.9706 113.456 12.8765 113.376 12.7565C113.297 12.6365 113.255 12.4959 113.255 12.3521C113.265 12.1536 113.35 11.9665 113.495 11.8295C113.639 11.6926 113.83 11.6164 114.029 11.6166Z" fill="black"/>
<path d="M102.198 5.49231C103.707 5.25917 105.237 5.20201 106.759 5.32197C106.697 5.77104 106.255 7.5131 105.744 9.43325H104.598C104.531 9.43325 104.466 9.46016 104.418 9.50808C104.37 9.556 104.343 9.62099 104.343 9.68875C104.343 9.72195 104.349 9.75481 104.362 9.78539C104.375 9.81596 104.394 9.84363 104.418 9.86674C104.442 9.88985 104.47 9.90793 104.501 9.91992C104.532 9.9319 104.565 9.93755 104.598 9.93651H105.62C105.311 11.1056 104.985 12.298 104.722 13.2735C104.712 13.3055 104.708 13.3394 104.711 13.3729C104.715 13.4065 104.725 13.4389 104.742 13.4681C104.759 13.4973 104.782 13.5227 104.809 13.5425C104.836 13.5623 104.867 13.5762 104.9 13.5832C104.965 13.5999 105.034 13.5906 105.091 13.5573C105.149 13.524 105.192 13.4694 105.21 13.4052C105.303 13.0645 105.713 11.5624 106.139 9.93651H107.022C107.055 9.93755 107.088 9.9319 107.119 9.91992C107.15 9.90793 107.178 9.88985 107.202 9.86674C107.226 9.84363 107.245 9.81596 107.258 9.78539C107.271 9.75481 107.277 9.72195 107.277 9.68875C107.277 9.6552 107.271 9.62197 107.258 9.59097C107.245 9.55997 107.226 9.53181 107.202 9.50808C107.179 9.48435 107.151 9.46553 107.12 9.45269C107.089 9.43985 107.055 9.43325 107.022 9.43325H106.248C106.751 7.49762 107.254 5.56199 107.254 5.24455C107.254 5.19231 107.243 5.1407 107.22 5.09371C107.197 5.04672 107.164 5.00561 107.122 4.97356C106.619 4.52449 103.452 4.83419 102.113 4.97356C102.08 4.97738 102.049 4.98765 102.02 5.00379C101.992 5.01992 101.966 5.04159 101.946 5.06753C101.926 5.09347 101.911 5.12316 101.903 5.15488C101.894 5.1866 101.892 5.21971 101.896 5.25229C101.898 5.28882 101.907 5.32458 101.924 5.35716C101.94 5.38973 101.964 5.41837 101.992 5.44112C102.021 5.46387 102.054 5.48022 102.09 5.48905C102.125 5.49788 102.162 5.49899 102.198 5.49231Z" fill="black"/>
<path d="M96.2133 10.9818C96.194 11.3369 96.2473 11.6922 96.3698 12.0261C96.4924 12.3599 96.6818 12.6653 96.9263 12.9235C97.1709 13.1817 97.4655 13.3874 97.7922 13.528C98.1189 13.6685 98.4708 13.741 98.8264 13.741C99.1821 13.741 99.534 13.6685 99.8607 13.528C100.187 13.3874 100.482 13.1817 100.727 12.9235C100.971 12.6653 101.16 12.3599 101.283 12.0261C101.406 11.6922 101.459 11.3369 101.44 10.9818C101.45 10.4659 101.309 9.95828 101.034 9.52192C100.759 9.08556 100.361 8.73972 99.891 8.52739C100.236 8.29448 100.497 7.95706 100.635 7.56477C100.774 7.17248 100.783 6.74604 100.661 6.34818C100.54 5.95032 100.293 5.60205 99.9589 5.35461C99.6244 5.10718 99.2193 4.97363 98.8032 4.97363C98.3871 4.97363 97.982 5.10718 97.6475 5.35461C97.313 5.60205 97.0667 5.95032 96.945 6.34818C96.8232 6.74604 96.8323 7.17248 96.971 7.56477C97.1097 7.95706 97.3706 8.29448 97.7154 8.52739C97.252 8.74417 96.8625 9.09242 96.5954 9.5288C96.3284 9.96519 96.1955 10.4705 96.2133 10.9818ZM97.3747 6.93243C97.3748 6.66326 97.4503 6.3995 97.5926 6.17106C97.735 5.94262 97.9385 5.75865 98.1801 5.64001C98.4217 5.52138 98.6918 5.47284 98.9596 5.49989C99.2274 5.52694 99.4822 5.62851 99.6952 5.79307C99.9083 5.95762 100.071 6.17858 100.165 6.43087C100.258 6.68317 100.28 6.9567 100.226 7.22044C100.172 7.48418 100.045 7.72757 99.8604 7.923C99.6753 8.11842 99.4392 8.25807 99.1787 8.32608C98.9423 8.2951 98.7028 8.2951 98.4664 8.32608C98.1553 8.2485 97.8789 8.06927 97.6811 7.81681C97.4834 7.56436 97.3755 7.25312 97.3747 6.93243ZM98.4509 8.83709C98.7065 8.88758 98.9696 8.88758 99.2252 8.83709C99.7246 8.92605 100.175 9.19163 100.495 9.58537C100.815 9.97911 100.983 10.4747 100.967 10.9818C100.967 11.5403 100.745 12.076 100.35 12.4709C99.9555 12.8658 99.4198 13.0877 98.8613 13.0877C98.3027 13.0877 97.7671 12.8658 97.3721 12.4709C96.9772 12.076 96.7553 11.5403 96.7553 10.9818C96.7413 10.4821 96.9034 9.99343 97.2134 9.60133C97.5234 9.20922 97.9615 8.93868 98.4509 8.83709Z" fill="black"/>
</svg>
