<svg width="154" height="154" viewBox="0 0 154 154" fill="none" xmlns="http://www.w3.org/2000/svg">
<path d="M65.6757 131.726C61.1872 138.846 59.6719 143.333 56.8801 144.799C55.4176 145.566 53.312 144.455 53.7232 143.777C54.2461 142.914 55.7683 145.61 58.1588 142.136C60.0846 139.337 63.7086 132.926 65.2148 131.41C65.7163 130.905 66.0792 131.084 65.6757 131.725V131.726Z" fill="#191919"/>
<path d="M102.511 52.6545C103.956 51.6897 105.516 51.0304 107.387 50.7555C106.848 50.5465 106.304 50.4079 105.755 50.3306C104.554 50.7839 103.44 51.2119 102.182 52.0036C102.299 52.2111 102.408 52.4286 102.511 52.6552L102.511 52.6545Z" fill="#38A1FF"/>
<path d="M109.765 63.4354C109.317 63.1008 109.233 62.943 111.726 61.1207C112.657 60.44 113.606 59.7868 114.64 59.2631C114.654 59.0035 114.73 58.7332 114.529 58.5043C106.27 63.0357 111.083 64.0257 103.267 58.7723C103.226 59.0632 103.182 59.3642 103.137 59.6819C107.89 62.9637 108.119 62.9783 107.676 63.4162C103.192 67.8604 103.765 69.4055 102.75 68.8167C102.589 68.7225 102.353 68.5939 102.064 68.4431C101.096 68.9346 100.196 68.2218 99.7188 67.2777C99.2655 67.0625 98.8068 66.8504 98.3727 66.6574C98.0832 66.3512 97.7839 66.3075 93.9875 64.5127C93.2172 64.1482 93.2501 64.2486 94.1621 62.3098C94.2976 62.0158 94.4814 61.6681 94.7042 61.2815C94.3428 61.5058 93.9393 61.6904 93.5541 61.7462C91.8183 65.0747 93.7655 63.7149 87.803 62.368C87.6628 62.5694 87.5105 62.7669 87.4592 63.0158C88.999 63.3443 90.4599 63.9132 91.9278 64.4675C92.9117 64.8397 90.7364 66.5992 90.3175 74.4714C90.2815 75.1491 90.2876 75.136 89.6123 75.0373C88.035 74.8053 86.4729 74.4416 84.8642 74.4745C84.7892 74.6996 84.9415 74.9056 84.9209 75.1269C90.6215 76.0365 90.2195 75.672 90.3244 76.9308C90.8757 83.6276 92.2241 83.8833 90.7264 83.5188C88.5327 82.9859 88.3566 82.8695 87.9124 82.9499C88.0166 83.319 88.2769 83.5594 88.5801 83.7654C89.5939 83.8971 90.5518 84.2539 91.5373 84.5005C92.4615 84.7317 92.0319 86.7991 93.3566 86.512C93.3849 86.1398 92.9102 85.4545 92.9737 85.0709C93.1766 84.8948 93.0243 84.9737 96.2471 86.0564C96.4385 86.1207 96.5955 86.2149 96.7249 86.3627C97.1399 86.3045 97.558 86.2608 97.9316 86.0434C97.6154 85.6253 93.6659 84.3948 93.1598 84.2616C92.682 84.136 92.4163 83.8749 92.2685 83.4063C91.61 81.3182 91.2348 79.1812 91.1246 76.9975C91.0855 76.2494 91.1276 76.2341 91.8535 76.4048C94.2701 76.9707 96.6399 77.6965 98.9883 78.4982C100.36 78.9675 98.9416 78.9492 99.339 86.0143C100.868 85.7692 99.388 84.3374 100.365 79.5854C100.533 78.7654 100.551 79.028 106.854 81.5847C107.245 81.0992 107.304 80.9101 106.243 80.4392C100.511 77.9001 100.494 78.5571 100.764 77.4377C101.347 75.0151 102.256 72.718 103.433 70.5242C103.612 70.1896 103.769 70.2118 104.074 70.3818C108.607 72.9239 111.344 75.329 111.785 75.3765C112.599 74.8864 111.285 74.2739 110.867 73.9615C104.293 69.0495 103.671 70.1069 104.408 68.9017C105.434 67.2218 106.705 65.731 108.04 64.2968C108.668 63.6245 108.735 63.6452 109.443 64.2087C114.583 68.2999 114.611 69.2777 114.82 67.7065C113.243 66.3787 111.421 64.6689 109.766 63.4354H109.765ZM99.9301 77.1995C99.6445 78.3795 99.8673 77.5089 91.8681 75.5556C91.2501 75.4048 91.0694 75.548 91.1154 74.5656C91.2272 72.218 91.5518 69.9002 92.1805 67.6329C92.9125 64.9966 92.9837 64.8672 93.4546 65.0985L97.7976 67.1161C99.4523 68.015 101.688 69.1008 102.211 69.3833C103.597 70.1299 101.726 69.7838 99.9309 77.2003L99.9301 77.1995Z" fill="#38A1FF"/>
<path d="M116.445 52.4553C117.259 52.4852 130.862 64.0871 133.578 86.6207C134.224 91.9821 135.087 98.182 133.519 104.879C131.714 112.584 126.721 112.2 124.62 110.534C122.105 108.538 120.282 105.054 116.087 102.396C112.024 99.8214 107.161 98.7486 100.822 95.6238C99.3308 94.8887 92.9617 91.1253 91.8774 89.8152C95.0811 90.3841 92.6416 89.8389 95.4295 91.3129C98.941 93.169 98.7006 93.4217 99.5873 93.3788C103.3 93.1996 106.583 92.2318 107.839 91.6046C106.213 90.6039 104.49 89.8007 102.871 88.9913C103.201 88.7478 103.659 88.5863 104.062 88.4997C104.082 88.9232 104.864 88.8451 108.444 91.0656C109.2 91.5342 112.547 89.1046 113.231 88.5909C115.129 87.1644 115.218 87.0043 114.901 86.7616C113.566 85.7409 112.283 84.6498 110.79 83.8535L111.479 83.2409C115.881 85.8114 115.341 86.8106 116.185 85.953C117.175 84.9469 118.038 83.8366 118.821 82.6628C119.025 82.3565 119.022 82.113 118.767 81.855C117.605 80.6781 116.512 79.4262 115.16 78.4515L115.605 77.7838C119.684 81.0816 119.14 82.1865 119.953 80.8244C120.633 79.685 121.134 78.4629 121.651 77.2478C121.908 76.643 121.954 76.5328 118.12 72.3314C118.27 72.1553 118.235 71.8666 118.477 71.7471C119.231 71.9187 121.678 75.7349 122.211 75.5749C123.71 71.6376 123.943 66.7571 123.746 62.5503C123.678 61.0878 119.208 56.2586 118.221 55.1422C118.087 54.9898 117.937 54.8811 117.723 54.9094C117.339 54.0687 116.768 53.3259 116.445 52.4553ZM124.897 63.8796C124.489 64.728 125.453 68.9914 123.084 76.2127C122.813 77.0358 122.84 76.3995 128.505 84.3787C129.492 82.4476 130.656 76.4975 129.65 73.9033C128.443 70.79 126.611 66.7433 124.896 63.8788L124.897 63.8796ZM109.911 91.8213C110.24 92.3351 112.296 93.3451 115.879 96.1988C116.077 96.3573 116.26 96.3734 116.487 96.2823C118 95.6759 119.437 94.9224 120.811 94.0495C121.187 93.8106 121.171 93.587 120.93 93.2448C119.58 91.3198 117.996 89.6016 116.3 87.9814C115.612 87.3236 116.26 88.2409 109.911 91.8213ZM122.73 77.8006C122.122 78.0096 122.155 79.4032 120.536 81.8657C119.821 82.9545 121.288 82.6444 125.192 89.2455C125.437 89.659 125.446 90.5985 127.877 86.0388C128.286 85.2708 128.411 85.3175 122.73 77.8006ZM115.162 96.7142C113.902 95.548 110.674 93.4125 109.374 92.5579C108.319 91.865 106.668 93.7792 101.475 94.0756C100.165 94.1498 99.0061 94.0878 108.784 97.9094C109.915 98.3512 114.337 97.0342 115.163 96.7149L115.162 96.7142ZM129.613 98.5733C130.226 98.6223 132.2 95.1797 132.718 94.1552C133.195 93.2157 129.866 88.1062 128.855 86.4683C128.751 86.561 128.669 86.6031 128.636 86.6697C126.632 90.7532 125.827 90.2287 126.281 91.123C126.677 91.9025 128.371 94.855 129.613 98.5725V98.5733ZM119.881 83.1605C119.448 83.3902 118.786 84.7662 116.822 86.7823C116.152 87.4706 117.785 87.4905 121.615 92.9132C122.028 93.499 122.299 93.0151 124.594 90.8566C125.038 90.44 125.201 90.2945 122.423 86.3818C121.628 85.2631 120.789 84.1774 119.881 83.1605H119.881ZM117.202 97.1162C117.25 97.5495 120.308 99.6874 122.316 103.081C122.492 103.378 122.747 103.399 123.03 103.284C125.678 102.21 125.554 102.288 125.227 101.412C124.404 99.2142 123.4 97.1024 122.153 95.1116C121.611 94.2455 122.071 94.9086 117.202 97.1162ZM126.192 101.677C127.09 101.239 127.704 100.592 128.405 100.066C128.878 99.7096 129 99.3053 128.812 98.7004C127.906 95.7923 125.853 91.6238 125.453 91.4661C124.665 92.2141 123.922 93.0296 123.042 93.7019C121.834 94.6246 123.076 93.7065 126.192 101.677ZM129.247 100.513C126.401 102.968 126.443 102.337 126.746 103.39C127.511 106.048 127.589 109.568 127.561 110.166C127.525 110.974 129.262 110.279 129.912 109.811C130.403 109.456 130.638 109.055 130.577 108.422C130.375 106.347 129.868 102.31 129.247 100.514V100.513ZM112.094 99.2149C119.325 102.343 119.257 104.109 120.044 103.971C120.472 103.897 121.914 103.849 121.638 103.399C120.299 101.212 118.526 99.411 116.58 97.7678C116.332 97.5587 116.074 97.4929 115.74 97.6123C111.944 98.9737 110.148 98.3727 112.094 99.2149ZM131.284 108.014C132.991 106.067 133.922 96.9822 133.374 94.9584C133.126 95.1246 133.057 95.4048 132.93 95.6407C130.78 99.6414 129.714 99.0067 130.165 100.868C131.468 106.246 130.822 107.219 131.284 108.014ZM133.178 92.2769L133.362 92.2364C132.827 87.5962 132.419 82.9331 130.986 78.4423C129.371 88.6896 127.483 82.1161 133.178 92.2769ZM127.032 110.186C126.812 107.808 126.813 106.332 125.969 103.533C125.781 102.911 125.638 103.19 123.634 104.046C122.397 104.574 123.463 104.164 124.72 108.798C124.995 109.812 125.747 110.162 126.602 110.442C126.853 110.524 127.041 110.437 127.032 110.186ZM123.652 108.198C123.517 107.573 122.607 104.273 121.947 104.551C120.603 105.117 119.853 103.854 123.652 108.198Z" fill="#38A1FF"/>
<path d="M100.512 49.9153C100.504 49.9153 100.491 49.9184 100.491 49.9184L100.461 49.9276C100.819 50.2285 101.146 50.5578 101.444 50.9215C103.374 50.3296 105.49 50.0999 107.362 50.828C113.721 52.8288 118.297 61.7852 112.261 73.6865C109.502 79.126 105.139 83.4384 100.588 85.2225C86.9686 90.5702 79.4502 74.8366 89.5552 59.4866C89.6716 59.3097 89.8033 59.1244 89.9488 58.9337C89.6417 58.7775 89.412 58.5379 89.2803 58.2492C87.5322 60.4973 85.9679 63.286 84.9434 66.7163C79.6708 84.3665 94.543 93.9928 107.283 81.9606C122.028 68.0341 116.296 45.0393 100.511 49.9146L100.512 49.9153Z" fill="#191919"/>
<path d="M119.632 63.1184C119.381 49.933 108.493 43.6979 97.5527 48.2401C97.9907 48.42 98.4057 48.6114 98.7985 48.8205C111.588 43.92 121.452 55.0211 117.897 69.5709C115.499 79.3864 108.012 86.8604 100.302 88.8344C84.9332 92.7693 76.4269 75.1797 86.6147 59.0319C87.3015 57.943 88.0442 56.9308 88.8321 55.9951C88.4745 55.8419 88.1935 55.5985 88.019 55.296C87.5871 55.7838 87.1606 56.2929 86.7418 56.8251C83.6085 60.7991 76.8298 76.0771 85.7096 85.61C85.996 85.917 86.0243 86.1858 85.8229 86.5671C84.4225 89.2218 56.6589 130.428 50.972 141.394C49.9238 143.416 50.4421 145.966 53.5991 148.082C55.5631 149.399 58.8817 148.798 60.1275 147.008C64.5846 140.606 80.535 110.353 84.5572 102.669C90.519 91.2792 91.1698 90.6782 91.6782 89.8313C107.865 93.4301 119.884 76.1973 119.634 63.1192L119.632 63.1184ZM80.4263 108.699C76.4384 116.423 61.5065 143.397 61.4958 143.414C60.7531 144.609 59.9162 145.737 58.9598 146.77C56.1328 149.826 49.6688 145.59 51.8281 141.639C59.6834 127.263 82.496 93.7731 86.7732 86.8282C88.0113 87.7769 89.303 88.61 90.7709 89.2792C87.6851 93.9102 85.0105 99.8199 80.4263 108.699Z" fill="#191919"/>
<path d="M74.6202 81.0534C77.4961 75.9915 68.8484 70.2227 68.549 77.5036C68.5061 78.5266 69.0053 79.8336 68.6262 79.0794C68.5389 78.904 68.529 78.8918 68.3912 78.7264C67.0918 77.1682 67.3934 76.3261 67.1637 76.2288C67.1124 76.2082 67.0542 76.2158 67.0114 76.2488C66.421 76.702 66.8583 77.8076 67.2725 78.3979C67.7557 79.0886 67.98 79.3527 67.97 79.4377C67.3751 79.4125 64.7281 78.1008 64.7235 79.182C64.7235 79.8428 65.5573 79.061 67.9593 80.4041C66.9065 80.3374 64.4387 80.1812 63.5405 81.9492C62.1041 84.7739 66.3253 88.4776 70.6415 85.9163C71.1699 88.5741 74.0803 89.3444 74.6048 86.911C74.7641 86.1736 74.5757 85.6468 74.3736 84.9355C75.2472 85.0365 77.088 85.1284 77.4096 83.5442C77.712 82.0626 76.1048 81.342 74.6186 81.0534H74.6202ZM71.4907 85.0136C71.5045 84.7976 71.7741 84.3466 71.3461 84.1315C71.0298 83.9707 70.7901 84.1912 70.5657 84.4607C69.859 85.3099 69.032 85.9202 67.9471 85.8803C62.0604 85.3306 63.5336 80.2134 68.2572 81.2417C68.5313 81.3015 68.787 81.4201 69.0565 81.5465C70.1492 82.058 69.7962 81.6927 70.1255 82.107C70.47 82.5411 71.186 83.4462 72.7824 84.2287C73.6638 84.6621 74.0841 86.1353 73.7289 86.9791C73.1094 88.4562 71.3475 87.1231 71.4915 85.012L71.4907 85.0136ZM70.7342 81.0863C70.6607 81.0465 70.6086 81.0204 70.5987 81.0204C69.9226 79.8673 69.1608 78.8298 69.2626 77.5036C69.1562 75.5068 70.7778 74.1454 72.4846 75.2373C73.9593 76.1783 74.48 77.9232 74.3429 79.2348C74.2028 80.5671 73.6469 80.9998 73.2786 81.2861C73.0504 81.463 72.8147 81.6468 72.9625 81.9707C73.1248 82.3237 73.3775 82.2333 73.621 82.1445C75.7848 81.3619 77.428 83.1062 76.2596 83.901C75.3706 84.4937 74.0199 84.2065 73.3759 83.388C72.1937 81.8826 71.1706 81.326 70.7342 81.0878V81.0863Z" fill="#191919"/>
<path d="M30.4232 49.5769C29.5725 49.0501 28.179 48.8257 29.0128 48.8717C29.2157 48.8816 29.2264 48.8786 29.4339 48.8403C31.4301 48.4712 32.0197 49.1481 32.2142 48.9957C32.4684 48.7982 31.9516 47.8586 30.2709 48.0248C29.3413 48.1159 29.0871 48.1688 29.022 48.1228C29.3344 47.6197 31.7754 45.9505 30.8382 45.4199C30.564 45.2652 30.4408 45.4674 30.3214 45.6626C29.829 46.4643 28.9898 47.1496 28.1866 47.6381C28.7617 46.753 30.1062 44.6802 29.0067 43.0301C27.2379 40.3778 21.9507 42.2859 22.0671 47.2721C19.4966 46.4314 17.3886 48.5845 19.257 50.2392C19.822 50.7407 20.3719 50.8334 21.0909 51.0057C20.5756 51.717 19.5924 53.2767 20.8152 54.3342C21.9577 55.3227 23.3704 54.2821 24.3528 53.1251C27.3528 58.1129 36.6253 53.41 30.4247 49.5761L30.4232 49.5769ZM30.466 54.1182C28.9231 54.9406 27.1476 54.5394 26.0718 53.776C24.192 52.4421 25.2286 51.2285 24.3029 51.2285C23.6391 51.2285 24.2394 51.9804 23.1338 53.289C22.5097 54.0279 21.1567 54.2745 21.0648 53.1542C20.9813 52.1366 21.8695 51.0608 22.9285 50.8977C24.8175 50.6052 25.806 49.9873 26.2279 49.7239C26.3022 49.6772 26.3535 49.6374 26.3535 49.6374C27.6904 49.6144 28.9676 49.459 30.0718 50.1979C31.865 51.0853 32.2547 53.1672 30.466 54.1182ZM23.2754 48.7622C23.633 48.5225 23.4378 48.1075 23.3344 47.825C22.8979 46.6312 22.9362 45.7354 23.4155 44.9413C26.7716 40.0952 30.5243 43.8671 27.3068 47.4873C26.9224 47.9199 26.3389 48.1718 25.9415 48.6266C25.7577 48.7361 24.3948 48.6504 22.4844 49.9643C21.6674 50.5256 20.1942 50.1542 19.633 49.4551C18.646 48.0302 20.7923 47.3763 22.4354 48.4544C22.6207 48.5753 22.8788 49.0248 23.2754 48.7606V48.7622Z" fill="#191919"/>
<path d="M73.6407 15.1779C73.1322 14.4291 72.391 13.6075 70.9883 13.645C74.1146 9.52631 73.2593 7.56761 72.7356 6.90834C71.9485 5.91906 70.3918 5.73606 68.8627 6.45199C66.2624 7.66945 65.5135 10.1527 64.9569 12.8303C64.8971 12.7997 64.8252 12.7599 64.7578 12.7223C64.1039 12.3594 62.744 11.6052 61.0594 12.3211C57.7838 13.7132 60.1192 18.0616 63.9706 17.338C65.5702 17.0378 64.5418 17.7293 65.9553 17.4927C67.5679 17.2208 68.2524 16.6703 68.803 16.2285C69.7218 15.4888 69.7088 15.825 69.8481 15.4919C69.904 15.3571 69.9737 15.1902 70.5863 15.4306C70.8443 15.5317 71.3443 16.2055 71.5924 16.0248C71.633 15.9942 71.656 15.9452 71.6537 15.8954C71.6246 15.2308 71.2364 14.9766 70.7379 14.6289C71.793 14.1075 72.5373 14.9674 73.4477 15.4023C73.5894 15.4689 73.7279 15.3058 73.6407 15.1779ZM72.5021 8.66183C72.4041 10.4138 70.8727 12.7767 69.4477 14.0493C69.1276 14.3349 68.5794 14.4138 68.3765 14.9521C68.3512 14.9574 68.3152 14.9635 68.2861 14.962C65.3343 14.887 64.1467 17.7752 61.3542 15.9559C59.8136 14.9528 60.1789 13.0868 62.2317 13.0531C63.4224 13.0332 64.7746 13.5317 65.1299 14.6779C65.1628 14.7867 65.3052 14.8219 65.3856 14.7384C66.0541 14.1289 65.293 12.4536 66.8298 9.63657C68.7004 6.20543 72.6491 5.97419 72.5021 8.66183Z" fill="#191919"/>
<path d="M83.8085 50.7447C82.9157 50.9147 83.6438 51.2822 78.9233 53.9561C78.2724 54.3251 77.7617 54.5594 77.3046 53.9951C76.2694 52.7164 75.7816 54.1804 74.8237 53.1659C74.1606 52.4637 73.656 51.1406 71.8321 49.2233C71.0067 48.3557 72.4179 48.2194 72.3459 46.8205C72.2985 45.8902 72.8406 46.4499 76.849 43.7516C76.9845 43.6605 77.143 43.5946 77.2104 43.4261C77.4662 43.5318 77.6737 43.6873 77.7679 43.9621C77.1224 43.9606 76.2074 45.2141 73.5174 46.4545C72.5197 46.9147 73.2357 47.2998 72.5496 48.3243C72.3528 48.6184 72.4165 48.8504 72.6316 49.0594C73.6485 50.0479 74.385 51.2501 75.202 52.3917C75.8161 53.2501 76.7326 51.8871 77.7786 53.3205C78.0037 53.6299 78.1806 53.4813 78.398 53.3535C83.5933 50.2983 82.6545 49.8404 83.8092 50.7455L83.8085 50.7447Z" fill="#38A1FF"/>
<path d="M91.7256 41.4852C92.3749 40.3772 94.4929 38.8535 94.6652 38.7547C95.6797 38.1758 94.8252 37.5663 95.8597 36.5234C96.2494 36.1306 95.9768 36.0602 94.2448 34.2087C93.7448 33.6743 92.6445 34.8971 91.3175 33.4484C90.4814 32.5357 86.3443 35.4469 85.4523 36.0663C85.2907 35.9859 85.1866 35.8588 85.1353 35.6858C85.9193 34.7225 88.4209 33.0671 90.5909 32.5747C92.123 32.2271 91.7318 33.9691 93.3719 33.4545C94.4416 33.1191 94.6904 33.6291 96.6307 35.7975C97.5166 36.7876 95.8459 36.5456 95.7701 38.4813C95.7463 39.0985 95.5817 38.7547 92.0978 41.8404C91.9247 41.7746 91.7486 41.7103 91.7241 41.4852H91.7256Z" fill="#38A1FF"/>
<path d="M87.8101 43.345C87.8637 44.3534 87.0053 44.6758 87.8667 45.2355C88.7404 45.8029 88.1891 46.7769 87.2159 45.8542C86.4173 45.0969 86.2748 46.1444 85.1202 46.1214C84.8231 46.1153 84.4494 46.1858 84.3675 45.796C84.2856 45.4063 84.647 45.2953 84.9379 45.2348C87.7419 44.649 87.3039 40.6972 84.3675 42.9813C83.1784 43.9055 81.8698 44.2126 81.212 42.9231C80.3284 41.1926 81.513 41.0433 80.552 40.2485C80.2342 39.9851 79.8606 39.639 80.0635 39.3075C80.5237 38.5548 81.0704 40.3128 82.271 39.2148C82.431 39.0686 82.8169 39.3243 82.6217 39.6214C82.1692 40.3121 81.6523 40.564 81.8361 41.9545C82.0819 43.8152 83.8016 42.247 84.3989 41.8197C85.9372 40.7194 87.8507 41.4828 87.8101 43.345Z" fill="#38A1FF"/>
<path d="M96.5544 58.2738C95.984 58.5004 95.6287 59.9974 93.899 60.835C92.9235 61.3075 92.4189 60.5839 92.716 59.7745C92.9748 59.0693 93.9694 58.067 94.6333 56.2171C94.899 55.4774 94.8048 55.1375 93.9028 56.2692C91.4097 59.3978 89.3484 58.4016 90.0927 57.1428C90.4985 56.4568 92.0161 54.8611 92.0643 54.4652C91.6892 54.4652 90.8086 55.394 89.7466 55.394C88.7979 55.394 88.2259 54.7056 88.8653 53.7944C89.3982 53.0341 89.7665 52.8205 90.1899 52.0019C90.7022 51.0119 90.7068 50.9805 89.9089 50.1604C88.9296 49.1535 89.6792 47.6145 90.9426 47.5754C92.2565 47.5341 93.5238 47.76 94.7749 48.1191C98.4449 49.1711 101.088 50.4744 102.185 53.9782C103.443 57.9989 101.774 58.8381 102.068 65.5502C102.136 67.1122 102.095 67.6077 101.636 67.7861C101.233 67.943 100.958 67.6475 100.716 67.3841C99.2145 65.7447 99.8209 58.4698 99.0728 60.6467C98.9235 61.0816 98.3293 62.9958 97.7872 63.6842C97.1746 64.4622 96.1057 63.9721 96.0759 62.5563C96.0406 60.9162 96.7152 58.9453 96.5536 58.273L96.5544 58.2738Z" fill="#38A1FF"/>
<path d="M72.7058 32.2094C72.1576 31.8449 66.9049 30.9445 67.4723 29.4506C67.9684 28.1451 70.6836 29.57 71.9233 29.3533C72.0282 28.7637 69.8145 28.5693 67.29 25.9046C66.4838 25.0532 66.2418 23.8349 67.3888 23.8931C67.9202 23.9199 76.4693 27.8434 76.6323 27.9184C80.1147 29.5226 81.3812 31.6443 81.8001 34.3824C81.869 34.8334 81.6507 35.0563 81.0979 35.6236C76.7204 40.1175 76.8567 40.1329 76.3444 40.1344C74.5014 40.139 73.009 41.178 72.4807 40.2523C71.9524 39.3266 72.8781 38.6918 73.6124 37.9552C72.9447 37.9062 71.6453 38.42 71.078 38.4828C69.9217 38.6091 69.7204 37.3013 71.1216 36.2546C72.4807 35.2393 73.4646 35.2707 73.9233 34.8832C71.2456 34.6711 71.5741 35.1068 70.1017 35.0088C68.1438 34.8786 69.7793 32.4115 71.6836 32.2148C71.9554 32.1864 72.2334 32.2102 72.7066 32.2102L72.7058 32.2094Z" fill="#38A1FF"/>
<path d="M102.269 37.9553C101.086 36.0112 96.5344 31.7279 95.0382 30.3205C94.3667 29.688 93.8881 29.6122 90.7143 30.3182C84.4685 31.708 81.7694 35.3213 78.104 39.4997C74.3153 43.8137 69.9822 44.6812 67.5825 45.6728C66.4286 46.1498 66.4914 47.0495 66.2341 48.6383C66.0748 49.6223 66.4393 49.6851 68.3329 52.62C69.8252 54.9339 71.6208 57.2777 73.8206 59.7854C74.2931 60.3252 74.8268 60.5228 75.5098 60.3666C82.6331 58.7433 89.0772 51.9967 89.6132 51.0365C89.8406 50.6338 89.4424 50.2946 89.1094 50.5434C88.5397 50.9676 87.4026 52.2854 86.2617 53.2088C85.6316 51.5641 85.5466 51.6039 85.8927 51.2509C88.6645 48.427 90.1806 45.633 92.7495 43.914C92.9639 44.2402 92.993 44.5702 93.1523 44.8765C93.8154 46.1475 92.8199 46.2731 92.5313 46.6736C92.4126 46.839 92.0979 47.0442 92.323 47.3244C92.7832 47.891 94.1507 45.7164 97.4004 44.5288C100.758 43.2991 101.064 43.8259 101.329 42.8642C102.508 38.5832 102.669 38.6115 102.269 37.9553ZM83.7755 51.9232C79.0075 55.7226 77.6805 55.476 75.7877 56.2088C74.8566 56.5702 75.1775 55.6169 72.5718 52.5013C72.1606 52.0113 68.362 47.0549 67.8612 46.3826C70.5856 45.4844 73.6552 44.4576 76.2226 42.404C78.2242 44.7448 82.4861 49.741 84.0657 51.0679C84.5251 51.4531 84.5006 51.3466 83.7755 51.9232ZM75.5128 58.2509C75.6154 57.4449 75.8082 57 76.0909 56.9163C82.5695 54.9967 84.1147 52.5595 85.0351 52.1414C85.7793 53.659 85.7564 53.6652 84.4577 54.7349C81.1821 57.4324 76.5695 59.463 75.3972 59.463C75.3206 59.463 75.3428 59.5902 75.5136 58.2509H75.5128ZM76.8819 41.9201C79.094 39.6988 80.9899 37.2394 83.2188 35.1077C85.9593 38.0326 89.9363 41.0304 92.1859 43.1498C89.3092 45.3604 88.483 47.1973 85.0634 50.8145C82.0864 48.0311 79.5971 44.842 76.8819 41.9201ZM101.651 38.365C98.3138 38.8963 95.9731 40.5074 93.4968 42.2118C93.1079 42.4793 92.7388 42.4502 92.3896 42.1245C91.8651 41.5694 88.7143 39.0434 83.924 34.5387C86.1339 32.5288 88.9869 31.2684 92.4065 30.7922C94.8797 30.4453 93.9784 30.4254 98.3613 34.6169C99.7786 35.9721 100.905 37.0487 101.651 38.365ZM74.4194 56.4898C74.8137 57.0427 74.6537 57.3512 74.6039 58.1545C74.5825 58.5006 74.5595 58.8574 74.4554 59.2203C73.5657 58.4026 70.548 54.5427 68.1927 50.9117C67.3436 49.6008 66.8329 49.5365 67.0128 48.7325C67.1445 48.1437 67.1177 47.6123 67.3352 46.9768C68.7923 48.7142 73.2341 54.8221 74.4194 56.4898ZM93.7373 43.1414C97.3307 40.6467 98.3743 40.1161 101.393 39.2922C100.348 42.4155 100.781 42.6062 99.9341 42.8252C97.0252 43.5748 95.7166 44.3106 94.2311 45.2608C93.4647 43.3366 93.3682 43.3987 93.7373 43.1414Z" fill="#191919"/>
<path d="M77.3312 47.4384C79.4178 47.4116 79.6406 50.4124 77.5824 50.4476C75.4928 50.4836 75.2424 47.4652 77.3312 47.4384ZM78.3825 49.0272C78.4247 47.8327 76.5487 47.5395 76.5219 48.8289C76.4982 49.9729 78.3412 50.2102 78.3825 49.0272Z" fill="#38A1FF"/>
<path d="M92.2894 37.1629C92.3054 39.4416 89.4915 39.1253 89.4708 37.2119C89.4494 35.2019 92.2741 34.9806 92.2894 37.1629ZM91.7296 37.2065C91.8284 36.1031 90.2541 35.6713 90.1094 36.9301C89.9494 38.3175 91.6064 38.5863 91.7296 37.2065Z" fill="#38A1FF"/>
<path d="M42.4194 27.4819C41.9309 26.9804 42.0036 27.6006 38.2777 25.7032C37.764 25.4413 37.3964 25.2116 37.5656 24.6787C37.9485 23.4689 36.7999 23.7782 37.0442 22.7315C37.2134 22.0056 37.8497 21.1197 38.3076 19.1319C38.5151 18.233 39.2019 19.0822 40.0718 18.442C40.6499 18.0163 40.5144 18.6143 43.9592 20.0339C44.0756 20.0822 44.1851 20.1564 44.3222 20.1281C44.3628 20.3371 44.3505 20.537 44.215 20.7154C43.9416 20.3004 42.7464 20.2445 40.8053 19.0408C40.0856 18.5944 40.1407 19.2185 39.1905 19.2123C38.9171 19.2108 38.7961 19.3509 38.7525 19.5768C38.548 20.6503 38.0886 21.635 37.7012 22.6457C37.4094 23.4061 38.6767 23.416 38.1989 24.6978C38.0955 24.9742 38.2663 25.024 38.4424 25.1097C42.62 27.1434 42.5105 26.3548 42.4194 27.4819Z" fill="#38A1FF"/>
<path d="M51.7388 28.6349C52.7273 28.5829 54.6078 29.2965 54.7434 29.3654C55.5458 29.772 55.5749 28.9634 56.6867 29.1862C57.1048 29.2697 57.0336 29.0637 57.4884 27.164C57.6201 26.6143 56.3651 26.4274 56.7327 24.9581C56.9639 24.0323 53.3337 22.6089 52.555 22.298C52.5389 22.161 52.5757 22.0384 52.6653 21.932C53.6178 22.0262 55.7464 22.9328 56.9846 24.1188C57.8598 24.9565 56.5726 25.445 57.6017 26.2812C58.2725 26.8264 58.0489 27.2039 57.4792 29.3731C57.2189 30.3647 56.6661 29.187 55.3881 29.9604C54.9807 30.2069 55.1324 29.9558 51.6676 29.027C51.6362 28.8869 51.6032 28.746 51.738 28.6357L51.7388 28.6349Z" fill="#38A1FF"/>
<path d="M42.9973 38.878C42.6091 38.6077 41.4935 39.0135 40.2194 38.2586C39.5011 37.8328 39.7515 37.2004 40.3985 37.0472C40.9613 36.914 42.0295 37.1276 43.5004 36.7693C44.0892 36.6261 44.2684 36.4216 43.1566 36.3229C40.0846 36.0503 39.8495 34.2999 40.9759 34.244C41.59 34.2134 43.2607 34.5112 43.5371 34.3742C43.3771 34.1337 42.4062 33.9607 41.9537 33.2777C41.5502 32.6682 41.7492 32.0066 42.6076 32.0304C43.3228 32.0503 43.616 32.1957 44.3235 32.1199C45.178 32.0281 45.2002 32.0181 45.3886 31.1567C45.6191 30.0993 46.9284 29.9262 47.4912 30.7218C48.077 31.5495 48.469 32.4607 48.7699 33.4178C49.6513 36.2256 49.9376 38.4776 48.1513 40.6721C46.1007 43.1904 44.8526 42.4753 40.6596 45.5159C39.6834 46.2241 39.3472 46.4071 39.0379 46.1897C38.7645 45.9967 38.838 45.6935 38.9047 45.4278C39.3243 43.7655 44.2561 41.0656 42.5402 41.5074C42.1964 41.5955 40.714 42.0289 40.0402 41.9722C39.2799 41.9079 39.1397 41.0136 40.0371 40.3918C41.077 39.672 42.6313 39.267 42.9958 38.8788L42.9973 38.878Z" fill="#38A1FF"/>
<path d="M49.6177 12.462C49.6177 11.9544 47.9676 8.19401 49.1698 7.92448C50.2196 7.68941 50.4585 10.0409 51.1246 10.7461C51.5488 10.5623 50.7333 9.05696 51.3727 6.3012C51.5771 5.41988 52.2579 4.74683 52.7081 5.50946C52.9171 5.86322 54.0274 13.0279 54.0481 13.1634C54.4791 16.0869 53.669 17.7997 52.0871 19.2346C51.8268 19.4705 51.5902 19.4253 50.9906 19.3104C46.2402 18.4008 46.2892 18.4996 46.0695 18.1696C45.2831 16.9873 43.9799 16.4682 44.352 15.7354C44.7241 15.0019 45.5243 15.328 46.3099 15.4873C46.0572 15.0378 45.1751 14.4207 44.8941 14.0822C44.3221 13.3924 45.0764 12.7071 46.3444 13.1619C47.5748 13.6037 47.9738 14.2507 48.4171 14.3824C47.4148 12.5708 47.2747 12.9666 46.7119 11.9781C45.9638 10.6642 48.2433 10.6672 49.1805 11.8066C49.3145 11.9697 49.4163 12.1588 49.6185 12.462H49.6177Z" fill="#38A1FF"/>
<path d="M58.5304 23.2018C54.9753 19.7707 51.5136 19.5678 47.2356 18.9797C42.8665 18.3794 40.4752 15.9697 38.8175 14.8464C37.9775 14.2752 37.3389 14.7584 36.2838 15.2339C35.5564 15.5616 35.6758 15.8311 34.5878 18.3043C33.7348 20.2439 32.9897 22.397 32.309 24.8878C32.1551 25.4514 32.2692 25.8924 32.6689 26.2753C36.7486 30.175 43.8589 31.4461 44.7042 31.3955C44.9201 31.3794 45.0357 31.2386 45.0541 31.1053C45.133 30.5295 43.9255 30.6788 41.9676 30.0762C42.7019 29.0448 42.6383 29.028 42.9683 29.0923C45.9324 29.6681 48.3681 29.4667 50.5388 30.3588C50.4217 30.5961 50.2402 30.7493 50.1169 30.9713C49.7402 31.652 49.3987 31.5211 49.0687 31.3948C48.7823 31.2853 48.8191 31.322 48.643 31.2937C48.5113 31.2715 48.2655 31.2324 48.1851 31.4882C48.0901 31.786 48.4699 31.9139 49.0993 32.1245C50.8045 32.6957 51.9255 33.237 53.8819 35.051C54.3176 35.4553 54.4623 35.6107 54.9508 35.453C58.2073 34.3894 58.277 34.5035 58.5412 33.9422C59.2931 32.3473 60.1131 27.5946 60.3827 26.0326C60.5075 25.309 60.3513 24.9598 58.5304 23.2018ZM35.1329 25.1819C39.0028 28.4346 41.2624 28.5088 41.9638 28.8817C41.3573 29.9124 41.3229 29.9009 40.1437 29.5395C37.0541 28.5908 33.8305 26.5295 33.2983 25.7692C34.9178 24.9966 34.8412 24.9384 35.1329 25.1819ZM37.757 15.3656C37.2141 17.1428 35.2608 22.3633 34.6812 23.8641C34.5012 24.3281 34.2677 24.3427 33.7095 24.662C33.5066 24.7783 33.2983 24.8978 33.0648 24.9828C33.27 23.9468 34.4545 20.4407 35.7256 17.5302C36.2095 16.42 36.028 16.0915 36.5931 15.8755C36.9944 15.7239 37.3152 15.4996 37.757 15.3656ZM42.2164 28.0731C42.1804 28.0839 42.0327 28.0333 41.8772 27.9813C37.0158 26.3526 37.0212 25.6627 35.5257 24.6015C34.9522 24.1956 35.6797 23.9774 36.5633 21.018C36.6751 20.6466 38.1735 16.2844 38.4683 15.4621C40.1827 16.8151 42.1215 18.3181 44.4875 19.093C44.0572 20.6321 42.3879 26.4062 42.3022 27.4675C42.2976 27.4989 42.2333 28.0463 42.2164 28.0731ZM51.5059 30.685C54.5825 31.9116 55.3865 32.3603 57.1407 33.8917C54.7785 34.5349 54.8643 34.8611 54.4002 34.4415C52.7065 32.9108 51.6782 32.3718 50.4577 31.8274C51.2838 30.6367 51.2333 30.5747 51.5059 30.685ZM45.1896 19.3396C47.5227 19.8074 49.8696 19.9828 52.1552 20.4973C51.4653 23.4269 51.205 27.2784 50.8175 29.5663C48.2425 28.6911 46.6123 28.9047 42.9683 28.2722C43.4921 25.2179 44.4699 22.2868 45.1889 19.3403L45.1896 19.3396ZM52.0427 30.0341C51.5779 29.8457 51.5687 29.8434 51.6629 29.3434C51.8221 28.5019 52.058 25.8266 52.9324 20.7377C55.1307 21.3097 57.1246 22.5984 58.8612 24.5685C59.4432 25.2255 59.9049 25.4169 59.5534 26.8672C58.8069 29.9552 58.7479 31.9706 57.947 33.5977C56.1905 31.7102 54.1736 30.8955 52.0419 30.0349L52.0427 30.0341Z" fill="#191919"/>
<path d="M48.8759 26.9086C48.2503 27.3719 47.6799 26.9561 47.6853 27.7479C47.6914 28.5495 46.8315 28.61 47.0099 27.5909C47.1569 26.7547 46.4242 27.11 45.9479 26.3573C45.8254 26.1636 45.6225 25.9538 45.8376 25.7348C46.0528 25.5158 46.2787 25.7019 46.441 25.8635C48.0084 27.4186 50.3644 25.4576 47.6477 24.5388C46.5482 24.1667 45.7947 23.4561 46.3438 22.4852C47.0819 21.1812 47.6799 21.8788 47.7833 20.9247C47.8177 20.6077 47.882 20.221 48.1807 20.2111C48.8598 20.1873 47.9624 21.2884 49.1784 21.5909C49.3415 21.6314 49.3399 21.9883 49.0651 21.9898C48.4272 21.9921 48.0474 21.767 47.2312 22.4768C46.1393 23.4262 47.8782 23.865 48.4081 24.0671C49.771 24.587 50.0911 26.1422 48.8759 26.9086Z" fill="#38A1FF"/>
<path d="M41.7925 21.9085C42.696 23.2393 40.8621 24.6566 39.9647 23.348C39.0673 22.0394 40.8882 20.5762 41.7925 21.9085ZM41.2174 23.2599C42.0046 22.7791 41.3935 21.4483 40.5543 21.9782C39.8093 22.4491 40.4395 23.7347 41.2174 23.2599Z" fill="#38A1FF"/>
<path d="M54.757 27.1613C53.2975 28.1414 52.3059 26.1958 53.528 25.3688C54.8106 24.5005 56.1536 26.2234 54.757 27.1613ZM54.4913 26.8191C55.2424 26.4132 54.8511 25.218 53.9805 25.6598C53.0203 26.1468 53.5517 27.3267 54.4913 26.8191Z" fill="#38A1FF"/>
<path d="M53.0818 68.9772C53.9807 68.8425 53.4087 69.4313 58.7479 70.3945C59.4845 70.5278 60.0443 70.5798 60.2893 69.8961C60.8437 68.347 61.7878 69.5676 62.3574 68.295C62.7518 67.4137 62.7908 65.9963 63.8797 63.5859C64.3728 62.494 62.996 62.8317 62.6009 61.4879C62.3383 60.5943 62.0091 61.3118 57.336 60.0783C57.1775 60.0361 57.006 60.0277 56.8881 59.8899C56.6821 60.0737 56.5374 60.2904 56.5404 60.5798C57.1484 60.3646 58.4279 61.2459 61.3766 61.5285C62.47 61.6334 61.9225 62.2345 62.9087 62.9741C63.1921 63.1862 63.2074 63.4267 63.0749 63.6939C62.4424 64.9627 62.1438 66.3401 61.7502 67.6878C61.4539 68.7016 60.1384 67.7161 59.6247 69.416C59.5144 69.782 59.2977 69.7 59.0496 69.6518C55.006 68.8639 53.839 68.1549 53.3995 68.249C53.1958 68.2927 53.058 68.5607 53.0818 68.9772Z" fill="#38A1FF"/>
<path d="M42.5433 62.8527C41.5647 62.0227 39.0616 61.283 38.8679 61.2471C37.7201 61.0372 38.3243 60.1789 37.0027 59.5357C36.5058 59.2938 36.7392 59.1368 37.7614 56.8175C38.057 56.1467 39.5003 56.9385 40.2737 55.1329C40.7607 53.9951 45.6283 55.3749 46.675 55.6659C46.8006 55.5372 46.8572 55.3818 46.848 55.2011C45.7906 54.5502 42.8809 53.8159 40.6711 54.0678C39.1091 54.2463 40.0555 55.7608 38.3349 55.8167C37.2147 55.8535 37.1481 56.417 36.0332 59.1054C35.5241 60.3328 37.021 59.5518 37.7331 61.3542C37.9605 61.9293 38.0004 61.551 42.309 63.3106C42.4507 63.1912 42.5961 63.0725 42.5433 62.8527Z" fill="#38A1FF"/>
<path d="M49.9474 65.175C48.9918 65.5004 48.4489 64.7607 48.1449 65.7423C47.8363 66.737 46.7498 66.4728 47.3731 65.2837C47.8838 64.3082 46.8394 64.4575 46.5454 63.3403C46.4696 63.0517 46.3019 62.7125 46.6541 62.5264C47.0209 62.3327 47.2123 62.6596 47.3486 62.9223C48.6679 65.4644 52.3586 63.9636 49.3631 61.7599C48.151 60.8679 47.4994 59.6918 48.5614 58.7086C49.9879 57.3886 50.452 58.4858 50.9558 57.3465C51.1227 56.9682 51.3547 56.5149 51.7276 56.619C52.5775 56.8564 51.0347 57.8618 52.416 58.7186C52.6013 58.8334 52.4596 59.2737 52.1204 59.1665C51.3318 58.9169 50.9512 58.4904 49.6618 59.0455C47.9382 59.7883 49.9144 61.0165 50.4895 61.4751C51.9688 62.6558 51.7514 64.7041 49.9474 65.1727V65.175Z" fill="#38A1FF"/>
<path d="M59.5693 63.8823C58.5119 62.9443 56.3832 64.0692 56.9567 65.792C57.2171 66.5722 57.9491 67.0186 58.8771 66.7116C60.2707 66.2506 60.4185 64.635 59.5693 63.8823ZM58.6704 65.9513C57.8051 66.282 57.3541 65.2353 57.8404 64.6327C58.0433 64.3808 58.3794 64.2215 58.6857 64.2705C59.3725 64.3823 59.6359 65.5814 58.6696 65.9505L58.6704 65.9513Z" fill="#38A1FF"/>
<path d="M43.3342 58.0502C42.8939 56.75 41.436 56.5701 40.73 57.3779C39.9475 58.273 40.642 60.1811 41.9337 60.1811C42.8717 60.1811 43.7224 59.1987 43.3342 58.0502ZM42.4926 59.0778C42.1948 59.5081 41.5325 59.5242 41.1978 58.7845C40.9138 58.1581 41.3763 57.5716 41.8609 57.5716C42.4582 57.5716 42.8518 58.5586 42.4926 59.0778Z" fill="#38A1FF"/>
<path d="M43.5316 80.2938C44.1441 80.3206 44.9757 81.6139 46.8846 81.8336C47.9596 81.9577 48.1985 81.1077 47.651 80.4416C47.1748 79.8619 45.9022 79.2456 44.6656 77.7172C44.1709 77.106 44.1472 76.7553 45.3723 77.5258C48.7582 79.656 50.3754 78.0342 49.2567 77.0922C48.6472 76.5785 46.6878 75.5731 46.5101 75.2163C46.8639 75.0938 48.0025 75.678 49.0056 75.3281C49.8999 75.0164 50.2138 74.1765 49.3103 73.5271C48.5561 72.985 48.1396 72.9054 47.4688 72.2729C46.6579 71.508 46.6426 71.4797 47.125 70.4421C47.7177 69.168 46.5025 67.9628 45.2957 68.3426C44.089 68.7224 42.9213 69.3686 41.8578 70.1213C38.7421 72.3273 36.6786 74.4299 36.8011 78.0985C36.9412 82.3091 38.7911 82.5511 40.7337 88.9814C41.1862 90.4791 41.3891 90.9324 41.8792 90.95C42.3126 90.9654 42.4734 90.5963 42.6143 90.2678C43.4872 88.2234 40.5162 81.5564 41.9389 83.3666C42.223 83.728 43.416 85.3382 44.1556 85.8084C44.9902 86.3398 45.8386 85.5243 45.3999 84.179C44.8907 82.62 43.6043 80.9814 43.5331 80.2946L43.5316 80.2938Z" fill="#38A1FF"/>
<path d="M57.4347 47.8151C57.8321 47.289 62.4884 44.7056 61.46 43.4835C60.5611 42.4153 58.4684 44.6558 57.2272 44.8618C56.9347 44.3388 58.9577 43.4245 60.4608 40.0769C60.9416 39.0057 60.7663 37.776 59.7035 38.2101C59.2104 38.4115 52.4378 44.9383 52.3091 45.0624C49.5534 47.7278 49.0587 50.1482 49.5672 52.8702C49.6506 53.3181 49.9301 53.4567 50.6391 53.8097C56.2571 56.603 56.1323 56.6643 56.6162 56.4966C58.3566 55.8932 60.1093 56.3802 60.3023 55.3319C60.4952 54.2837 59.4118 53.9904 58.4761 53.5379C59.0902 53.2707 60.486 53.3266 61.0419 53.1972C62.1736 52.9338 61.9332 51.6336 60.2655 51.1091C58.6476 50.5999 57.728 50.9537 57.1683 50.7416C59.6254 49.6573 59.4592 50.1765 60.8168 49.5976C62.6208 48.8281 60.2617 47.0348 58.4018 47.4812C58.1361 47.5448 57.8804 47.6589 57.4355 47.8143L57.4347 47.8151Z" fill="#38A1FF"/>
<path d="M68.966 61.1841C68.2134 59.7944 67.966 58.8992 66.7133 58.8303C63.9928 58.6818 59.7042 59.2775 54.744 56.4804C49.7807 53.6825 46.1551 51.2308 39.8082 51.9804C36.5815 52.3625 36.1543 52.5922 35.727 53.4115C33.1895 58.2897 31.7415 61.5179 31.4245 63.0057C31.2653 63.7523 31.3901 63.6527 33.9337 67.3281C34.5019 68.1489 34.619 67.5509 38.1925 67.6014C41.6612 67.6497 43.6589 69.2523 43.9085 68.5631C44.0295 68.2285 43.6505 68.1252 43.4973 68.0187C43.0938 67.7385 42.1122 67.9468 42.3166 66.5294C42.3664 66.1856 42.2852 65.861 42.3794 65.485C45.3802 66.2607 47.6957 68.3809 51.2738 70.1443C51.7163 70.3625 51.6229 70.3556 51.5716 72.1145C50.1803 71.6152 48.7048 70.7599 48.0027 70.5386C47.6084 70.4154 47.3434 70.8641 47.6903 71.1711C48.8013 72.155 57.162 76.103 64.0847 75.3182C64.7692 75.2408 65.2149 74.8886 65.4867 74.2117C66.7363 71.1114 67.6567 68.3066 68.2991 65.6359C69.1176 62.2354 69.4408 62.0585 68.9653 61.1849L68.966 61.1841ZM32.6979 63.9735C35.8181 63.7538 36.9782 63.91 41.1941 65.0792C41.6328 65.201 41.5142 65.1872 41.4292 67.2423C40.1826 66.9467 39.0609 66.727 37.3893 66.727C33.6014 66.727 35.5547 67.6604 32.6979 63.9735ZM41.1114 64.1244C38.0279 63.2836 35.3939 62.6006 32.1451 63.1856C32.5738 60.8196 34.1014 58.7254 35.7967 54.8571C36.5869 53.0547 37.2974 53.1986 38.3694 52.9857C41.7523 52.3058 44.8618 52.5539 47.6122 53.7201C44.8457 59.0417 42.7776 62.4314 42.126 63.6772C41.9044 64.0999 41.566 64.2487 41.1106 64.1236L41.1114 64.1244ZM48.4659 54.0233C51.2669 55.2974 53.8833 56.9972 56.6988 58.3602C55.0954 62.0279 53.8105 65.8365 51.9147 69.4575C47.4705 67.1619 46.1528 65.7278 42.6589 64.5761C44.0073 61.9804 46.8955 57.5784 48.4659 54.0233ZM67.8688 63.9758C66.8458 68.1818 65.2723 72.8197 64.7026 73.8855C64.3473 73.3832 64.2103 72.8457 63.9438 72.3449C63.7585 71.9988 63.7248 71.675 63.8351 71.2975C64.4277 69.25 66.5816 62.0907 67.3787 59.9789C67.7907 60.5034 67.9553 61.0355 68.2631 61.5294C68.6957 62.2254 68.2371 62.4643 67.8688 63.9758ZM64.2616 66.9245C62.8236 70.7477 63.4538 71.5195 62.4507 71.4874C60.4805 71.4207 59.2317 72.0861 53.4958 70.08C53.1306 69.9521 52.783 69.8556 52.7523 69.7752C52.7225 69.6956 52.9016 69.4483 53.1405 69.0195C53.7745 68.0241 56.8343 60.2469 57.4798 58.5991C60.5839 59.6917 63.819 59.6458 66.685 59.593C66.4285 60.4107 64.4882 66.3196 64.2608 66.9253L64.2616 66.9245ZM52.3794 70.6994C53.3603 70.7883 55.7194 72.5769 62.3979 72.2508C62.3933 72.1581 62.3887 72.1405 62.4063 72.2508C62.9538 72.2247 62.809 72.2293 63.9369 74.41C62.9239 74.8243 57.8167 74.4483 53.7799 72.9575C52.2064 72.3763 52.1765 72.3909 52.3787 70.7002L52.3794 70.6994Z" fill="#191919"/>
</svg>
