<svg width="156" height="156" viewBox="0 0 156 156" fill="none" xmlns="http://www.w3.org/2000/svg">
<path d="M15.2515 26.0866L17.3357 24.0186L145.941 45.343L143.857 47.4118L15.2515 26.0866Z" fill="white"/>
<path d="M149.698 85.5545L21.0924 64.2293L15.2515 26.0866L143.857 47.4118L149.698 85.5545Z" fill="#FFD997"/>
<path d="M20.6465 66.0688L11.6641 120.269L140.271 141.582L149.253 87.3825L20.6465 66.0688Z" fill="#FFD997"/>
<path d="M151.901 83.8574L145.994 45.2733C145.975 45.1541 145.883 45.0604 145.764 45.041L17.1612 23.8149L15.0777 25.5996C14.9825 25.6817 14.9352 25.8071 14.9546 25.9317L20.8257 64.2719C20.8436 64.388 20.9326 64.4794 21.0487 64.4987L36.5841 67.0747L36.3402 68.3979C20.4967 65.7708 20.6275 65.7468 20.4828 65.8483C20.3356 65.9528 20.5563 65.9149 11.3861 120.224C11.3613 120.371 11.462 120.511 11.6091 120.536L140.062 141.836C140.31 141.877 140.069 141.88 142.493 141.898C142.625 141.898 142.739 141.801 142.761 141.668L151.632 88.0143C151.738 87.3934 149.974 87.2401 133.831 84.5635L134.099 83.2426L149.654 85.8216C149.824 85.8642 149.777 85.848 151.811 84.1036C151.88 84.0439 151.916 83.9503 151.902 83.8574H151.901ZM17.4175 24.3074L145.599 45.5613L143.778 47.1238L15.5965 25.869L17.4175 24.3074ZM140.033 141.281L11.9652 120.046L20.8621 66.3825L148.931 87.6179L140.033 141.282V141.281ZM127.383 83.495L42.7959 69.4694L43.0986 68.1555L127.647 82.1734L127.383 83.495ZM21.3313 63.9947L15.5779 26.4141L143.619 47.6479L149.372 85.2262L21.3313 63.9947Z" fill="black"/>
<path d="M90.849 12.7184H89.0984V9.17154C89.0984 8.96869 88.9327 8.80377 88.7291 8.80377C88.5255 8.80377 88.3605 8.96946 88.3605 9.17154V12.7184H86.6115C86.4079 12.7184 86.2422 12.8841 86.2422 13.0869C86.2422 13.2898 86.4079 13.4555 86.6115 13.4555H88.3605V17C88.3605 17.2029 88.5262 17.3685 88.7291 17.3685C88.9319 17.3685 89.0984 17.2029 89.0984 17V13.4555H90.849C91.0526 13.4555 91.2175 13.2898 91.2175 13.0869C91.2175 12.8841 91.0518 12.7184 90.849 12.7184Z" fill="black"/>
<path d="M123.984 64.2007C125.28 66.8726 125.181 66.7108 125.284 66.7294L127.98 67.156C128.094 67.173 128.138 67.3163 128.055 67.396C125.908 69.4571 126.035 69.3123 126.052 69.4168L126.479 72.112C126.497 72.2266 126.376 72.314 126.274 72.2591C123.645 70.8662 123.827 70.9281 123.734 70.9777L121.302 72.2165C121.199 72.2691 121.079 72.1816 121.098 72.0671C121.598 69.1698 121.61 69.3332 121.532 69.255L119.603 67.3255C119.522 67.2442 119.568 67.1018 119.683 67.0848C122.621 66.6543 122.444 66.7232 122.492 66.6287L123.731 64.1968C123.784 64.0938 123.933 64.0938 123.984 64.1983V64.2007Z" fill="#81F8F8"/>
<path d="M128.015 66.9075L125.378 66.4886L124.206 64.0876C124.069 63.7965 123.652 63.7911 123.505 64.0822L122.293 66.4615L119.648 66.8339C119.334 66.8788 119.191 67.269 119.425 67.5029L121.314 69.3913L120.85 72.0206C120.792 72.3365 121.125 72.5866 121.416 72.4395L123.795 71.2278C126.357 72.5889 126.201 72.527 126.338 72.527C126.572 72.527 126.76 72.3156 126.722 72.0733L126.304 69.4339L128.226 67.578C128.464 67.3496 128.331 66.957 128.015 66.9067V66.9075ZM125.915 69.1125C125.824 69.2016 125.781 69.3316 125.8 69.4579L126.192 71.9324C123.746 70.6316 123.931 70.709 123.795 70.709C123.647 70.709 123.759 70.6796 121.383 71.8898L121.818 69.4215C121.841 69.2953 121.8 69.1675 121.709 69.0761L119.937 67.3039L122.419 66.9547C122.545 66.9377 122.656 66.8579 122.714 66.7433L123.852 64.5112L124.952 66.7627C125.008 66.8788 125.119 66.9601 125.244 66.9795L127.719 67.3712L125.916 69.1125H125.915Z" fill="black"/>
<path d="M55.8058 44.3009C57.0214 46.7885 56.9277 46.6608 57.0253 46.6747L59.5517 47.0758C59.6601 47.0936 59.7011 47.2252 59.6237 47.3003C57.64 49.2243 57.7314 49.095 57.7446 49.1949L58.1441 51.7236C58.1619 51.832 58.0473 51.9117 57.9521 51.8614C55.5356 50.5777 55.6572 50.6118 55.5712 50.659L53.2911 51.8204C53.1943 51.8707 53.082 51.7879 53.1014 51.6787C53.5806 48.9812 53.5861 49.119 53.5086 49.0416L51.6992 47.2322C51.6218 47.1547 51.6659 47.0223 51.7751 47.0069C54.5167 46.6182 54.3642 46.6677 54.4083 46.5787L55.5697 44.2985C55.62 44.2017 55.7578 44.2017 55.8066 44.3001L55.8058 44.3009Z" fill="white"/>
<path d="M59.5938 46.8281L57.1271 46.4386L56.0315 44.1948C55.889 43.9014 55.4818 43.9169 55.3432 44.1894L54.2089 46.4138L51.7367 46.7607C51.4216 46.8025 51.2962 47.1927 51.5192 47.4118L53.2837 49.1787L52.8493 51.6377C52.7943 51.9551 53.1219 52.189 53.4021 52.0465L55.6266 50.9138C58.0089 52.1789 57.8758 52.1294 58.012 52.1294C58.2505 52.1294 58.4332 51.9211 58.396 51.6857L58.0066 49.2189L59.8021 47.4838C60.0297 47.2655 59.9082 46.8792 59.5946 46.8281H59.5938ZM57.6063 48.8992C57.5173 48.9867 57.4739 49.1121 57.4941 49.2368L57.8564 51.527C55.6537 50.3548 55.7667 50.3927 55.6297 50.3927C55.4996 50.3927 55.6134 50.3548 53.389 51.4883L53.7924 49.2042C53.814 49.0804 53.7753 48.9542 53.6855 48.8651L52.0449 47.2245C54.5194 46.8753 54.5101 46.9341 54.6301 46.6949L55.6831 44.63L56.6989 46.7142C56.7531 46.8265 56.8599 46.9063 56.9838 46.9256L59.2741 47.288L57.6063 48.8992Z" fill="black"/>
<path d="M14.0425 70.7958L5.06006 124.996L133.667 146.309L142.649 92.1093L14.0425 70.7958Z" fill="white"/>
<path d="M92.9007 110.54C92.4895 110.472 92.6661 110.06 92.8132 109.177C90.8349 108.671 90.0406 107.271 90.207 106.09C90.2272 105.944 90.382 105.814 90.55 105.841C91.2577 105.957 91.37 105.95 91.4574 106.08C91.5968 106.286 91.4327 107.758 93.5789 108.114C94.7248 108.304 95.8707 108.118 96.0728 106.902C96.4622 104.554 90.6832 104.874 91.2809 101.261C91.4892 100.004 92.5553 98.9475 94.4863 99.0791C94.7248 97.6367 94.6048 97.7636 95.5176 97.9154C95.9249 97.9828 95.7507 98.4117 95.6067 99.2789C98.0285 100.002 98.3405 102.605 97.5887 102.48C96.8284 102.355 96.8176 102.372 96.6968 102.275C96.4359 102.065 96.7797 101.638 96.1246 100.963C95.465 100.283 94.0945 100.12 93.3304 100.456C92.5817 100.786 92.4307 101.777 92.7272 102.309C93.4264 103.56 96.5752 104.032 97.2922 105.719C97.8365 107 97.1815 109.613 93.932 109.376C93.6974 110.795 93.8274 110.693 92.9007 110.54V110.54Z" fill="black"/>
<path d="M133.652 146.571C-4.4273 123.679 4.73288 125.332 4.80024 124.952L13.7885 70.7524C13.8118 70.6146 13.9418 70.5217 14.0796 70.5449L142.846 91.9723C142.942 92.107 143.086 92.0133 133.901 146.36C133.88 146.483 133.773 146.571 133.653 146.571H133.652ZM5.33757 124.787L133.445 146.028L142.35 92.3277L14.2415 71.0861L5.33757 124.787Z" fill="black"/>
<path d="M131.195 143.157L8.43786 122.805C8.29076 122.781 8.18933 122.64 8.21488 122.493L16.2253 74.1877C16.2485 74.043 16.3871 73.9392 16.5373 73.9648L139.25 94.3121C139.397 94.3376 139.498 94.477 139.473 94.6241C131.295 143.151 131.555 143.157 131.195 143.157H131.195ZM8.79479 122.313L130.97 142.573L138.891 94.8022L16.7162 74.5416L8.79479 122.312V122.313Z" fill="black"/>
<path d="M82.5265 116.208L57.5894 112.073C57.337 112.032 57.4013 111.646 57.6537 111.692L82.5598 115.822C82.7921 115.861 82.765 116.208 82.5265 116.208Z" fill="black"/>
<path d="M29.4369 107.405L13.9782 104.843C13.7243 104.801 13.7916 104.416 14.0425 104.462L29.4702 107.019C29.7017 107.058 29.6754 107.405 29.4377 107.405H29.4369Z" fill="black"/>
<path d="M130.344 133.94L88.8616 127.061C88.6069 127.019 88.6758 126.634 88.9259 126.68L130.377 133.554C130.609 133.593 130.582 133.94 130.344 133.94H130.344Z" fill="black"/>
<path d="M135.317 103.181L93.8353 96.3027C93.5822 96.2601 93.6472 95.8753 93.8996 95.921L135.351 102.796C135.583 102.834 135.556 103.181 135.317 103.181Z" fill="black"/>
<path d="M64.2502 122.98L12.5217 114.402C12.2677 114.36 12.3351 113.975 12.5859 114.021L64.2835 122.593C64.5158 122.632 64.4887 122.979 64.2502 122.979V122.98Z" fill="black"/>
<path d="M133.018 117.061L99.6063 111.523C99.5017 111.505 99.4297 111.404 99.4475 111.3L101.024 101.796C101.04 101.689 101.14 101.62 101.247 101.637L134.626 107.172C134.73 107.189 134.802 107.29 134.784 107.395C133.172 117.08 133.265 117.061 133.018 117.061ZM99.8602 111.17L132.856 116.64L134.369 107.518L101.372 102.048L99.8602 111.17Z" fill="black"/>
<path d="M25.1453 77.8731C21.4483 77.2615 17.9378 79.7708 17.3246 83.4694C16.7068 87.1742 19.2107 90.6738 22.9194 91.2878C26.748 91.9196 30.1904 89.243 30.7401 85.6931C31.375 82.1671 28.9585 78.508 25.1453 77.8723V77.8731ZM30.3862 85.4383L27.8165 85.0125C27.9868 83.8821 27.9946 82.7726 27.8467 81.7668C28.4808 81.6987 29.0716 81.5748 29.5942 81.396C30.2747 82.5821 30.5829 83.9905 30.387 85.4383H30.3862ZM20.6338 84.2142L23.8082 84.7407L23.3545 87.4785C22.4099 87.3352 21.4754 87.2958 20.6082 87.3562C20.4627 86.3868 20.4696 85.3121 20.6338 84.215V84.2142ZM27.3938 81.4176C26.5676 81.4726 25.6765 81.4331 24.7721 81.2961L25.2692 78.2982C26.5034 78.6381 27.1414 80.1486 27.3938 81.4176ZM24.8867 78.2347L24.3897 81.2326C23.49 81.07 22.6344 80.8199 21.871 80.5017C22.5144 79.3821 23.6046 78.1611 24.8867 78.2347ZM21.5249 80.35C20.9922 80.1045 20.5138 79.825 20.1057 79.5184C21.0821 78.762 22.2729 78.2873 23.5426 78.1898C22.7978 78.6001 22.0963 79.355 21.5249 80.3492V80.35ZM24.3262 81.6166L23.8717 84.3583L20.6965 83.8318C20.8993 82.7153 21.2462 81.6971 21.6844 80.8439C22.4858 81.1815 23.3831 81.4463 24.3254 81.6166H24.3262ZM23.291 87.8617L22.7939 90.862C21.5621 90.5174 20.9272 89.0076 20.6764 87.741C21.5009 87.6868 22.3898 87.7255 23.2918 87.8617H23.291ZM23.1756 90.9262L23.6735 87.9252C24.5732 88.0878 25.4303 88.3387 26.1944 88.6577C25.5479 89.7741 24.4547 91.0029 23.1756 90.9262ZM23.737 87.5412L24.1907 84.8034L27.3729 85.3307C27.1739 86.424 26.8332 87.4444 26.3818 88.3154C25.5797 87.9771 24.68 87.7115 23.7362 87.5412H23.737ZM24.2542 84.421L24.7087 81.6793C25.7353 81.835 26.6303 81.859 27.4611 81.8001C27.6074 82.771 27.6013 83.848 27.4363 84.9482L24.2542 84.421ZM29.3836 81.0553C28.902 81.2132 28.3608 81.3232 27.7817 81.3843C27.5982 80.4359 27.2304 79.4123 26.58 78.6977C27.7414 79.2002 28.7077 80.031 29.3836 81.0561V81.0553ZM19.7984 79.7724C20.2374 80.1115 20.7584 80.4212 21.3383 80.6906C20.88 81.5756 20.5207 82.6224 20.3125 83.7675L17.7435 83.3417C18.0253 81.9077 18.7717 80.6744 19.7984 79.7724ZM17.68 83.7241L20.249 84.15C20.0794 85.2781 20.0717 86.3852 20.2195 87.3894C19.5839 87.4576 18.9908 87.5822 18.4666 87.7619C17.7652 86.5393 17.4895 85.1333 17.68 83.7241ZM18.6765 88.1025C19.1604 87.9454 19.7031 87.8354 20.2846 87.7743C20.4681 88.7281 20.8397 89.7556 21.4932 90.4694C20.3039 89.9592 19.3431 89.1176 18.6757 88.1025H18.6765ZM24.5313 90.9742C25.3799 90.5112 26.0628 89.6588 26.5475 88.8125C27.0786 89.058 27.5563 89.3375 27.9644 89.6433C26.9555 90.4253 25.7717 90.879 24.5321 90.9742H24.5313ZM28.2718 89.3893C27.8328 89.0502 27.3125 88.7405 26.7325 88.4711C27.1971 87.5691 27.5478 86.5176 27.7515 85.3942L30.3212 85.82C30.0463 87.216 29.3302 88.4587 28.2718 89.3893Z" fill="black"/>
<path d="M103.6 132.549C101.905 132.549 105.525 126.819 104.046 125.035C103.656 124.566 102.903 124.394 101.808 124.527C96.2434 125.202 90.6053 131.06 90.0858 131.76C89.9023 132.109 89.502 131.859 89.6065 131.586C92.2637 126.728 94.2504 122.842 96.2054 121.09C94.269 120.704 92.2715 120.219 90.4109 120.232C90.0765 120.235 90.071 119.733 90.4032 119.728C92.4674 119.697 94.6236 120.284 96.7172 120.675C98.3749 119.472 100.244 119.459 103.223 120.36C103.446 120.428 103.464 120.736 103.254 120.832C101.199 121.761 99.0191 121.6 96.855 121.212C95.1316 122.546 93.5892 125.335 91.0087 130.07C93.1379 128.014 97.3978 124.553 101.748 124.029C107.649 123.32 103.412 130.648 103.648 132.034C104.648 131.698 108.11 126.709 109.754 127.08C111.047 127.371 111.537 129.8 114.377 128.683C116.876 127.702 117.647 127.634 118.079 127.844C119.113 128.345 117.603 130.085 122.351 129.901C124.074 129.835 125.859 129.538 127.476 130.161C127.788 130.281 127.607 130.75 127.296 130.633C125.757 130.052 123.994 130.348 122.368 130.406C117.49 130.58 118.39 128.557 117.86 128.299C117.412 128.08 115.764 128.683 114.563 129.154C111.443 130.379 110.637 127.796 109.643 127.572C108.926 127.409 107.175 129.266 106.019 130.496C104.743 131.853 104.064 132.552 103.599 132.552L103.6 132.549ZM97.4659 120.8C99.1313 121.066 100.794 121.149 102.358 120.637C100.241 120.077 98.7674 120.068 97.4659 120.8Z" fill="black"/>
<path d="M77.0795 87.8889L42.3923 112.008L37.657 99.2038C37.0267 97.6622 34.7698 98.4071 35.1887 100.024L39.742 115.459C40.0657 116.628 41.5515 117.14 42.5247 116.404C42.5417 116.387 78.6505 90.1326 78.6644 90.1172C80.0898 88.9922 78.5653 86.9218 77.0803 87.8889H77.0795Z" fill="black"/>
<path d="M124.223 30.6098L120.758 33.7889C121.342 35.0912 121.044 36.6606 119.939 37.6578L93.8069 61.2647C93.587 61.4629 93.7225 61.8516 94.0198 61.9685C95.0612 62.3773 95.998 62.4222 96.6244 62.0251C96.6925 62.1025 95.885 62.7095 125.244 36.6188L125.228 36.601C126.284 35.3467 125.846 32.9117 124.223 30.6098H124.223Z" fill="white"/>
<path d="M129.595 16.0229C125.219 11.3596 121.437 14.0803 119.145 16.3504L53.6158 81.3388C52.9762 82.2733 53.8635 84.4822 55.6985 86.4364C57.5327 88.3914 59.6719 89.4088 60.6336 88.8157L128.844 26.3716C131.646 23.8065 134.018 20.7342 129.595 16.0222L129.595 16.0229Z" fill="#81F8F8"/>
<path d="M53.2553 81.7809C50.8024 84.7981 50.1776 88.2962 51.8632 90.0917C53.5758 91.9166 57.1629 91.4412 60.3273 89.0449C57.7057 88.911 53.942 85.6692 53.2553 81.7809Z" fill="white"/>
<path d="M107.181 46.413C105.793 47.3243 103.211 46.0453 100.909 43.5948C98.6076 41.1443 97.145 38.6241 98.1245 37.2784C98.1361 37.2668 99.9416 35.486 99.9416 35.486C97.9433 38.2246 105.896 46.7088 109.031 44.6462L107.18 46.413H107.181Z" fill="white"/>
<path d="M129.778 15.8518C126.194 12.0394 122.61 12.5628 118.967 16.1739L53.6478 80.9424C51.1159 83.6646 50.0893 86.925 50.958 89.1192C47.5815 93.1748 48.5609 94.2293 52.7752 91.0525C55.3124 92.2387 59.107 90.5864 61.0171 88.8366L120.65 34.231C121.001 35.3591 120.689 36.6381 119.768 37.4712L93.6363 61.0782C93.2863 61.3925 93.4381 62.0111 93.9274 62.2047C94.7899 62.5423 95.8599 62.7397 96.669 62.2899L125.487 36.6776C126.499 35.3552 126.101 32.9434 124.554 30.6485L129.014 26.5589C130.67 25.0422 132.213 23.338 132.297 21.1508C132.361 19.4583 131.537 17.7239 129.778 15.851L129.778 15.8518ZM52.0489 89.9175C50.519 88.2869 51.0633 85.1024 53.1731 82.2965C53.3892 84.9445 57.0963 88.8939 59.649 89.2168C56.754 91.1772 53.575 91.5434 52.0481 89.9183L52.0489 89.9175ZM60.4387 88.6361C58.8871 89.3809 54.3221 85.7357 53.7167 82.5257C53.599 81.9411 53.6973 81.6446 53.9993 81.3063L97.5718 38.0945C97.499 39.468 98.5752 41.4455 100.64 43.6459C102.675 45.8115 104.548 47.0007 105.907 47.0402L60.4387 88.6361ZM106.615 46.3922C105.511 46.9713 103.329 45.7743 101.006 43.3006C99.6956 41.9038 97.0778 38.5838 98.4382 37.2351L99.5787 36.1047C99.1195 39.7173 104.436 45.3415 108.014 45.1108L106.615 46.3922ZM125.035 36.4399L96.4886 61.8137C95.9513 62.1551 95.1081 62.128 94.1117 61.7363C93.9615 61.6797 93.9181 61.5086 93.9762 61.4552L120.108 37.8483C121.238 36.8255 121.578 35.2244 121.055 33.8609L124.18 30.9946C125.605 33.1277 125.981 35.3173 125.035 36.4407L125.035 36.4399ZM131.794 21.1322C131.719 23.1352 130.251 24.7464 128.674 26.1896L108.855 44.3412C107.557 45.1928 104.834 44.0369 102.651 41.7126C101.166 40.1316 99.0437 36.6219 100.52 35.1717C100.527 35.1647 116.049 19.7788 119.324 16.5324C122.784 13.1001 126.047 12.6131 129.411 16.1971C131.073 17.9678 131.853 19.5806 131.794 21.1322Z" fill="black"/>
<path d="M119.768 18.0995C119.727 17.7704 120.226 17.7054 120.268 18.0376C120.788 22.179 125.908 25.4595 128.486 23.5851C128.759 23.3876 129.052 23.7957 128.785 23.9923C125.82 26.1718 120.324 22.5336 119.768 18.0995Z" fill="black"/>
</svg>
