<svg width="154" height="155" viewBox="0 0 154 155" fill="none" xmlns="http://www.w3.org/2000/svg">
<path d="M125.52 56.0431C121.981 52.0383 116.019 51.7592 110.618 51.852C107.973 51.7741 105.332 52.1199 102.797 52.8764C100.375 53.808 98.0467 55.6704 97.395 58.2789C96.836 60.6068 97.5813 62.9354 98.1403 65.264C98.1403 71.5046 99.5373 77.7444 99.5373 84.1712C99.6386 85.9194 99.3524 87.6684 98.6992 89.2931C96.1521 94.5469 88.1235 94.5576 72.527 100.005C71.0372 100.47 69.2676 101.402 69.2676 102.985C69.2676 104.848 75.9598 106.833 77.1843 107.362C81.5172 109.237 85.6599 111.273 90.0373 113.137C91.275 113.668 92.5515 114.104 93.8557 114.44C94.6163 114.613 95.3907 114.716 96.1697 114.747C96.0846 129.429 95.998 128.878 96.2771 129.437C96.7549 130.035 97.4332 130.441 98.1866 130.578C98.94 130.715 99.7175 130.574 100.375 130.182C100.647 129.848 100.838 129.456 100.936 129.036C101.032 128.616 101.032 128.18 100.934 127.76C100.693 123.015 100.934 118.824 100.828 114.17C104.37 113.21 107.751 111.248 110.993 109.598C117.792 106.245 122.356 102.148 124.498 94.6964C126.526 88.0964 127.777 81.2822 128.224 74.3921C128.5 68.8961 129.431 60.6068 125.52 56.0431Z" fill="#FFE55D"/>
<path d="M125.811 55.7939C122.26 51.6534 115.997 51.3767 110.629 51.4687C107.932 51.39 105.24 51.7444 102.655 52.5183C99.7315 53.6432 97.6245 55.7617 97.018 58.1923C96.4421 60.5899 97.1836 62.9461 97.7525 65.3123C97.7586 71.5191 98.9793 77.8234 99.1503 84.1943C99.2259 85.8768 98.9534 87.5568 98.3498 89.1291C95.9023 94.1773 88.083 94.1666 72.4084 99.642C71.0904 100.054 68.8813 101.036 68.8813 102.988C68.8813 104.607 72.2696 105.969 75.7399 107.227C78.2771 108.147 81.6592 109.729 84.0929 110.868C90.805 114.006 91.2351 114.095 93.7677 114.818C94.421 114.969 95.085 115.067 95.7536 115.114V124.604C90.325 125.328 86.3908 127.888 86.3908 131.023C86.3908 134.737 91.8777 137.646 98.8827 137.646C105.888 137.646 111.374 134.737 111.374 131.023C111.374 127.732 107.068 125.074 101.215 124.505C101.17 121.072 101.286 117.969 101.215 114.465C104.674 113.472 107.983 111.556 111.159 109.941C118.797 106.174 122.895 101.646 124.861 94.8084C126.896 88.1782 128.151 81.3336 128.603 74.4129C128.905 68.5779 129.764 60.4067 125.811 55.7939ZM100.557 127.843C100.639 128.194 100.643 128.559 100.567 128.912C100.492 129.265 100.339 129.597 100.121 129.884C99.55 130.206 98.8837 130.316 98.2394 130.195C97.5952 130.075 97.0142 129.731 96.5985 129.225C96.3954 128.777 96.4667 129.216 96.5479 115.143C97.8645 115.15 99.1764 114.992 100.452 114.669C100.535 119.229 100.31 123.177 100.557 127.843ZM127.93 72.7291C127.581 80.1463 126.303 87.4905 124.126 94.5899C122.198 101.295 118.344 105.544 110.816 109.256C103.135 113.163 98.0776 116.428 90.1839 112.783C85.8388 110.935 81.6423 108.873 77.3409 107.013C76.3441 106.584 69.6473 104.472 69.6473 102.984C69.6473 101.523 71.5205 100.718 72.6499 100.366C87.9795 95.0131 96.3831 94.941 99.0499 89.4388C99.723 87.7679 100.019 85.969 99.917 84.1705C99.8586 80.948 99.622 77.7312 99.2086 74.5348C98.2547 65.9472 98.609 65.583 98.5093 65.1735C97.9611 62.8848 97.225 60.6137 97.7632 58.3709C98.3084 56.1888 100.241 54.2681 102.9 53.2437C105.153 52.5735 107.49 52.2291 109.84 52.2208C115.337 52.2208 121.52 52.1005 125.228 56.2938C128.667 60.307 128.242 67.4868 127.931 72.7291H127.93Z" fill="#4B1010"/>
<path d="M65.3008 139.465C59.2642 142.439 59.3002 142.35 58.926 142.848C58.7609 143.037 58.6552 143.27 58.622 143.518C58.5889 143.767 58.6298 144.02 58.7397 144.245C58.9435 144.449 59.1953 144.599 59.472 144.68C59.7486 144.761 60.0413 144.772 60.3231 144.711C63.5219 144.557 66.7009 144.121 69.8231 143.407C70.4874 143.323 71.1076 143.029 71.5935 142.568C71.9204 142.1 72.116 141.553 72.1601 140.983C69.7832 141.05 67.427 140.529 65.3008 139.465Z" fill="white"/>
<path d="M78.6447 144.325C76.9195 145.636 75.1046 146.888 73.4561 148.25C73.1914 148.452 72.9698 148.706 72.8043 148.995C72.7274 149.143 72.6952 149.309 72.7117 149.475C72.7282 149.64 72.7926 149.797 72.8971 149.927C73.0673 150.029 73.2575 150.094 73.4561 150.113C74.8577 150.299 76.2823 150.204 77.6471 149.833C79.8822 149.368 82.0245 148.902 84.1645 148.343C84.9964 148.237 85.7762 147.879 86.3996 147.318C87.2591 146.459 87.2928 145.161 87.0935 143.887C84.4428 145.283 81.9378 145.091 78.6447 144.325Z" fill="white"/>
<path d="M95.5394 89.894C90.6176 91.1661 85.7595 92.5976 80.9995 94.2331C76.3423 95.8164 68.7722 97.4411 66.6567 102.522C66.018 104.217 65.7018 106.016 65.7243 107.828C65.4943 117.522 64.2338 127.015 62.7432 136.515C62.5881 137.006 62.6214 137.537 62.8368 138.004C63.0262 138.318 63.3244 138.55 63.6748 138.656C66.6559 140.24 69.6355 141.357 73.1748 140.892C74.1781 140.813 75.146 140.486 75.9919 139.941C75.4759 142.66 75.2014 142.709 75.4107 143.127C75.5035 143.407 75.7833 143.5 76.0624 143.593C78.0529 144.268 80.1162 144.705 82.2094 144.897C83.5708 145.021 84.9421 144.815 86.2069 144.296C87.4717 143.777 88.5926 142.961 89.4744 141.916C89.6607 141.824 89.7535 141.544 89.847 141.357V140.706C89.07 136.9 88.6028 133.038 88.45 129.157C88.2591 123.105 87.053 115.372 92.3604 111.368C108.907 99.0552 112.262 103.573 112.665 90.6922L112.577 90.6754C111.532 94.1564 97.8189 94.0744 95.5394 89.894ZM78.9508 108.386C75.8914 112.374 76.9794 118.39 76.9012 123.415C76.2878 118.324 75.6208 113.249 76.2495 108.104C76.2239 107.884 76.2423 107.661 76.3036 107.447C76.3648 107.234 76.4677 107.035 76.6063 106.862C76.7449 106.689 76.9164 106.545 77.111 106.438C77.3056 106.332 77.5194 106.265 77.7401 106.241C79.1302 105.781 80.8002 105.277 82.6411 104.738C81.2643 105.796 80.0246 107.022 78.9508 108.386Z" fill="#FFB43B"/>
<path d="M112.266 91.1578C111.875 103.144 108.378 98.9694 92.1292 111.061C87.4521 114.588 87.7281 120.839 87.9681 126.355C88.034 131.174 88.534 135.977 89.4625 140.706C89.4625 141.333 89.4778 141.238 89.4426 141.315C89.2677 141.69 89.2961 141.523 89.1734 141.677C88.3303 142.672 87.2603 143.449 86.0538 143.942C84.8472 144.436 83.5396 144.632 82.2412 144.514C80.1788 144.324 78.1458 143.892 76.1839 143.228C75.7768 143.093 75.6411 142.998 75.7806 142.576C77.2014 137.362 77.2305 131.816 77.2589 126.45C77.2804 122.223 77.3256 123.058 77.2397 120.107C77.1209 115.984 76.9185 111.663 79.2479 108.627C80.3313 107.255 81.5743 106.016 82.9505 104.937C83.0191 104.894 83.0697 104.827 83.0929 104.75C83.1161 104.672 83.1102 104.589 83.0764 104.515C83.0426 104.442 82.9832 104.383 82.9092 104.35C82.8353 104.317 82.7518 104.312 82.6745 104.336C81.3526 104.728 78.8277 105.486 77.6576 105.869C77.1276 105.937 76.6443 106.207 76.3097 106.624C75.975 107.041 75.8151 107.571 75.8634 108.103C75.2654 113.053 75.8634 118.002 76.4385 122.79C76.5451 123.674 76.5113 122.907 76.4922 126.447C76.4692 130.858 76.4454 135.392 75.6487 139.716C74.8801 140.17 74.0182 140.442 73.1284 140.513C68.2113 141.16 64.2832 138.413 63.7741 138.286C63.5297 138.206 63.321 138.044 63.1845 137.826C63.0183 137.459 62.9911 137.044 63.1078 136.658C64.8453 127.139 65.8509 117.501 66.1158 107.828C66.0925 106.07 66.397 104.323 67.0136 102.676C68.7733 98.4472 74.5278 96.6952 79.0784 95.2583C82.459 94.1849 86.9997 92.4896 95.7636 90.2331C95.6033 90.0225 95.477 89.7881 95.3895 89.5384C90.2791 90.858 85.493 92.2872 80.8833 93.8675C75.8182 95.588 68.4819 97.1545 66.3059 102.378C65.6514 104.113 65.3268 105.954 65.349 107.808C65.1243 117.189 63.9267 126.538 62.3794 136.414C62.2066 137.012 62.2587 137.653 62.5258 138.216C62.7605 138.593 63.1201 138.876 63.5418 139.014C63.8331 139.168 64.1283 139.321 64.4281 139.47C59.0095 142.141 59.0532 142.046 58.6622 142.575C58.4431 142.816 58.3004 143.117 58.2521 143.439C58.2038 143.761 58.2521 144.091 58.3908 144.385C58.4101 144.434 58.4391 144.478 58.4759 144.514C58.7153 144.76 59.0127 144.942 59.3406 145.043C59.6686 145.144 60.0167 145.16 60.3529 145.092C63.5626 144.943 66.7525 144.507 69.8843 143.788C70.5436 143.773 71.1744 143.516 71.657 143.067C72.1397 142.617 72.4406 142.006 72.5028 141.35C73.5187 141.304 74.5193 141.082 75.4586 140.692C75.0484 142.609 74.8207 142.796 75.0545 143.251C75.1341 143.433 75.2574 143.593 75.4134 143.717C75.5695 143.84 75.7535 143.923 75.9493 143.959C76.5596 144.164 77.1692 144.345 77.778 144.504C74.251 147.129 73.1008 147.872 72.492 148.784C72.3547 149.022 72.3037 149.3 72.3477 149.571C72.3917 149.843 72.528 150.09 72.7336 150.273C72.9398 150.398 73.1721 150.473 73.4121 150.495C74.8567 150.686 76.3248 150.589 77.732 150.211C79.8206 149.776 82.0588 149.291 84.2156 148.726C85.1339 148.61 85.9943 148.214 86.68 147.592C87.5817 146.69 87.6867 145.405 87.518 144.096C88.38 143.626 89.1367 142.985 89.7416 142.212C89.9517 142.029 90.1104 141.795 90.2016 141.532C90.2607 141.41 90.2423 141.352 90.2354 140.635C89.3228 135.917 88.8248 131.128 88.7471 126.324C88.5171 120.997 88.2526 114.958 92.6023 111.679C109.342 99.2224 112.648 104.001 113.075 90.243C113.067 90.2384 112.48 90.9078 112.266 91.1578ZM76.4738 115.403C76.2866 112.959 76.3395 110.503 76.6317 108.069C76.6112 107.899 76.6247 107.726 76.6714 107.562C76.7181 107.397 76.797 107.243 76.9036 107.108C77.0102 106.974 77.1424 106.862 77.2925 106.78C77.4426 106.697 77.6076 106.645 77.778 106.626C77.9083 106.614 78.097 106.5 80.9707 105.636C80.1319 106.418 79.353 107.262 78.6406 108.161C77.0849 110.189 76.621 112.789 76.4738 115.403ZM71.322 142.298C70.8833 142.705 70.3269 142.963 69.7325 143.034C66.6199 143.748 63.4499 144.183 60.2601 144.333C60.0516 144.381 59.8346 144.378 59.6273 144.324C59.4201 144.271 59.2288 144.169 59.0693 144.026C59.0059 143.868 58.9876 143.695 59.0164 143.527C59.0452 143.36 59.1201 143.203 59.2326 143.075C59.5493 142.653 59.5769 142.71 65.303 139.889C67.301 140.86 69.4921 141.37 71.7138 141.379C71.6448 141.708 71.5114 142.02 71.322 142.298ZM86.1524 147.028C85.5713 147.548 84.8444 147.878 84.0699 147.972C81.8747 148.545 79.6481 149.025 77.548 149.463C76.2149 149.821 74.8241 149.912 73.4558 149.73C73.3544 149.716 73.2565 149.683 73.1675 149.632C73.1253 149.571 73.0991 149.5 73.0913 149.426C73.0835 149.351 73.0944 149.276 73.1231 149.208C73.2695 148.951 73.4658 148.726 73.6997 148.546C75.2845 147.236 77.0358 146.022 78.7334 144.737C81.7237 145.411 84.1259 145.669 86.7842 144.464C86.8744 144.911 86.8645 145.373 86.7553 145.816C86.6461 146.26 86.4402 146.673 86.1524 147.028Z" fill="#4B1010"/>
<path d="M114.53 70.7592C114.064 65.2639 112.76 56.881 108.103 53.2489C106.247 51.7921 103.825 51.2761 101.375 51.1021C100.935 53.3571 99.2737 57.0666 95.4239 57.6002C91.6599 58.1224 91.2696 55.4534 91.7159 53.4736C91.219 53.7803 90.6785 54.1207 90.0866 54.5056C87.6514 62.7283 91.1654 69.1229 93.5737 76.1625C95.0635 80.4471 96.1807 84.9172 95.3434 89.3881C95.3434 89.3881 95.8088 92.5548 103.633 93.1138C111.457 93.6727 112.573 90.6908 112.573 90.6908C114.432 84.2213 115.096 77.4668 114.53 70.7592Z" fill="#FFB43B"/>
<path d="M97.2992 45.3321C96.8716 45.9101 96.5844 46.5798 96.4604 47.2881C96.833 48.1261 97.4909 48.8691 97.8574 49.7095C98.1411 50.3597 98.1373 51.0129 99.0681 51.2928C99.999 51.5727 100.745 51.1065 101.49 51.2928C101.11 52.5795 100.478 53.7777 99.6309 54.8176C98.7835 55.8576 97.7375 56.7185 96.5539 57.3501C93.9148 58.3224 91.2772 56.131 91.6176 54.0899C91.9903 53.1591 93.0146 53.3454 93.4801 52.7864C93.9455 52.2275 93.2937 51.2959 93.0146 50.8304C91.4271 51.5664 89.6552 51.8089 87.9283 51.5266C86.2013 51.2444 84.5989 50.4503 83.3283 49.2471C81.1185 47.17 80.4913 43.5655 80.5343 40.6779C80.6324 37.8103 81.1983 34.9779 82.2096 32.2928C84.1027 26.9332 90.4138 25.8559 95.1562 28.288C98.2331 29.8645 99.1356 32.0206 99.9989 35.0868C100.814 37.9813 102.141 41.4201 99.3472 43.8415C97.9832 44.8659 98.2155 44.4151 97.2992 45.3321Z" fill="white"/>
<path d="M93.1085 39.1958C93.0522 39.1957 92.9966 39.1832 92.9456 39.1594C92.8947 39.1356 92.8495 39.1009 92.8133 39.0578C92.6162 38.8297 92.3655 38.6543 92.0838 38.5472C91.802 38.4401 91.498 38.4048 91.1993 38.4444C91.0997 38.4545 91.0001 38.4252 90.9218 38.3628C90.8435 38.3004 90.7927 38.2099 90.7803 38.1105C90.7679 38.0112 90.7948 37.911 90.8553 37.8312C90.9159 37.7515 91.0052 37.6986 91.1042 37.6838C91.5305 37.6282 91.964 37.6796 92.3655 37.8332C92.7671 37.9869 93.1241 38.238 93.4044 38.564C93.4518 38.6202 93.4822 38.6887 93.492 38.7615C93.5017 38.8343 93.4905 38.9084 93.4596 38.975C93.4281 39.0414 93.3784 39.0974 93.3162 39.1365C93.254 39.1757 93.1819 39.1962 93.1085 39.1958Z" fill="#4B1010"/>
<path d="M82.7697 38.8233C82.6977 38.8229 82.6272 38.8023 82.5664 38.7638C82.5055 38.7253 82.4567 38.6704 82.4256 38.6055C82.3944 38.5406 82.3821 38.4682 82.3901 38.3966C82.398 38.3251 82.426 38.2572 82.4707 38.2007C82.7055 37.9243 83.0087 37.7144 83.3501 37.592C83.6914 37.4695 84.059 37.4389 84.4159 37.503C84.4667 37.5102 84.5155 37.5274 84.5596 37.5536C84.6037 37.5798 84.6422 37.6144 84.6728 37.6556C84.7183 37.7178 84.7441 37.7923 84.7468 37.8694C84.7495 37.9465 84.7291 38.0227 84.6881 38.088C84.6464 38.153 84.5863 38.204 84.5153 38.2345C84.4444 38.265 84.366 38.2735 84.2902 38.259C84.0676 38.2181 83.8383 38.2353 83.6243 38.3089C83.4104 38.3825 83.219 38.51 83.0687 38.6792C83.033 38.7242 82.9875 38.7605 82.9357 38.7854C82.8839 38.8104 82.8272 38.8234 82.7697 38.8233Z" fill="#4B1010"/>
<path d="M86.2285 47.6631C86.134 47.637 86.0531 47.5757 86.0024 47.4919C85.9516 47.4081 85.9348 47.308 85.9553 47.2122C85.9759 47.1164 86.0323 47.0321 86.113 46.9765C86.1938 46.9209 86.2927 46.8983 86.3895 46.9132C87.6891 47.1632 89.0294 47.1018 90.2999 46.733C90.373 46.7116 90.4507 46.7125 90.5233 46.7355C90.5958 46.7585 90.6598 46.8026 90.7072 46.8622C90.7545 46.9218 90.783 46.9942 90.789 47.0701C90.795 47.1459 90.7782 47.2219 90.7408 47.2882C90.6913 47.3771 90.6086 47.4427 90.5108 47.4707C89.1184 47.8717 87.6508 47.9384 86.2285 47.6631Z" fill="#4B1010"/>
<path d="M83.5133 44.5048C83.436 44.5053 83.3604 44.4823 83.2964 44.4389C83.2324 44.3956 83.183 44.3339 83.1548 44.2619C83.1266 44.1899 83.1208 44.1111 83.1383 44.0358C83.1558 43.9605 83.1956 43.8922 83.2526 43.84C84.6228 42.5757 86.4868 40.4219 86.578 39.9986C86.578 39.8368 86.5895 39.8959 85.9516 38.3033C85.9212 38.2327 85.9129 38.1545 85.9278 38.0791C85.9427 38.0037 85.9802 37.9346 86.0352 37.8809C86.0711 37.8446 86.114 37.8161 86.1614 37.797C86.2087 37.7779 86.2594 37.7686 86.3104 37.7697C86.3873 37.7712 86.4619 37.7957 86.5248 37.84C86.5876 37.8842 86.6358 37.9463 86.6631 38.0181C87.3141 39.639 87.3532 39.6658 87.3432 39.9672C87.3432 40.9762 83.8085 44.3699 83.7733 44.4028C83.7025 44.4683 83.6097 44.5048 83.5133 44.5048Z" fill="#4B1010"/>
<path d="M82.8651 41.1251C82.5392 40.5286 82.9525 39.0986 83.6932 39.1209C84.4338 39.1431 84.5097 40.7525 84.2046 41.1244C84.1326 41.2365 84.0335 41.3286 83.9165 41.3924C83.7996 41.4562 83.6684 41.4895 83.5352 41.4893C83.402 41.4892 83.2709 41.4559 83.1539 41.3923C83.0369 41.3287 82.9376 41.2369 82.8651 41.1251Z" fill="#4B1010"/>
<path d="M90.9277 41.3597C90.6018 40.7624 91.0143 39.3332 91.7558 39.3547C92.4972 39.3761 92.5716 40.9871 92.2672 41.3582C92.1953 41.4705 92.0963 41.5628 91.9793 41.6268C91.8623 41.6907 91.7311 41.7241 91.5978 41.7239C91.4645 41.7243 91.3333 41.6912 91.2162 41.6275C91.099 41.5639 90.9998 41.4718 90.9277 41.3597Z" fill="#4B1010"/>
<path d="M89.9849 54.5861C87.4993 56.6082 85.7224 59.3696 84.9121 62.4698C83.1425 68.5233 82.8634 74.7638 80.3484 80.6318C78.0285 86.1124 74.6893 91.1029 70.508 95.338C68.8802 96.2428 67.0829 97.271 66.0984 98.7937C65.3474 100.058 64.9904 101.517 65.0733 102.985C65.0733 104.53 66.0279 104.371 66.4703 103.73C66.9284 103.064 67.3038 102.345 67.5882 101.588C67.8754 100.82 68.4405 100.189 69.1715 99.8181C68.8635 100.381 68.6138 100.974 68.4263 101.588C68.1625 102.562 69.2045 102.795 69.8233 101.867C70.2159 101.542 73.486 98.7301 74.3755 98.1941C77.8143 96.1185 82.2906 92.189 84.6323 87.8967C87.6931 81.8961 89.7986 75.4546 90.8728 68.8047C89.2926 63.2779 88.1578 59.9441 89.9849 54.5861Z" fill="white"/>
<path d="M112.942 90.7973C114.828 84.2853 115.496 77.4813 114.912 70.7269C114.15 61.736 111.939 55.7546 108.34 52.9475C105.695 50.8689 102.003 50.6419 98.7 50.6304C98.4355 50.0807 97.2263 48.0404 96.9112 47.4239C99.9414 45.0976 101.238 41.8719 101.584 38.0696C102.359 34.3032 102.579 30.4436 102.236 26.6136C102.236 26.0546 102.143 25.4029 101.584 25.2165C101.424 25.1795 101.258 25.1769 101.098 25.209C100.937 25.2412 100.785 25.3072 100.652 25.4029C100.125 25.9562 99.8255 26.6881 99.8141 27.4524C99.6278 26.4272 99.2551 21.9571 97.2991 24.002C96.832 24.6277 96.5425 25.3678 96.4611 26.1443C96.4749 25.261 96.3491 24.3808 96.0884 23.5374C95.9021 23.0712 95.623 22.513 95.1576 22.6985C95.0641 22.7921 94.8777 22.8849 94.785 23.0712C94.3025 23.7394 93.987 24.5134 93.8649 25.3285C93.9285 24.6261 93.6348 21.8636 92.7385 21.9548C92.6426 21.9532 92.5482 21.9785 92.4659 22.0279C92.3837 22.0772 92.3169 22.1486 92.2731 22.2339C91.5463 23.0713 91.0968 24.1133 90.9865 25.2165C91.0685 24.196 91.0724 21.5822 89.8517 21.5822C88.5482 21.5822 88.1748 24.2826 88.2684 25.1215L87.8957 22.7929C87.8957 22.3267 87.6166 21.7685 87.1504 21.8613C87.0546 21.8597 86.9601 21.885 86.8779 21.9343C86.7956 21.9837 86.7288 22.055 86.685 22.1403C86.3169 22.5391 86.0358 23.01 85.8594 23.5232C85.6831 24.0364 85.6154 24.5807 85.6607 25.1215C85.4743 24.5625 85.1017 21.9548 84.2636 22.1403C83.9132 22.2477 83.615 22.48 83.4248 22.7929C82.0922 24.7925 80.7274 28.7482 82.2318 30.56C81.9205 30.8437 80.7673 34.1208 80.3686 37.3112C79.998 39.8615 80.0928 42.4577 80.6484 44.9741C80.8744 46.23 81.3865 47.417 82.1449 48.4432C82.9034 49.4694 83.8879 50.3072 85.0223 50.8917C86.1566 51.4762 87.4102 51.7917 88.6861 51.8138C89.962 51.8359 91.2258 51.564 92.3797 51.0192L92.9333 52.3111C90.8842 53.2689 89.0709 54.6658 87.622 56.4027C86.1732 58.1396 85.1243 60.174 84.5496 62.3617C82.7792 68.419 82.4894 74.6764 80.0005 80.483C77.7119 85.8564 74.443 90.7569 70.3609 94.934C68.464 95.989 66.8109 96.995 65.7704 98.6028C64.9872 99.9252 64.6137 101.45 64.697 102.985C64.6715 103.278 64.7102 103.574 64.8104 103.851C64.8754 104.049 64.9973 104.224 65.1609 104.354C65.3245 104.483 65.5227 104.561 65.7305 104.579C65.9439 104.566 66.1512 104.503 66.335 104.394C66.5189 104.285 66.6739 104.134 66.7871 103.952C67.2772 103.226 67.6809 102.446 67.9902 101.626C67.787 102.397 68.5069 102.872 69.2055 102.7C69.5616 102.615 69.8803 102.417 70.1125 102.134C74.8595 98.1965 73.6917 99.1012 74.9515 98.3107C78.4455 96.1171 82.7271 92.2028 84.9782 88.0761C87.9096 82.4892 89.9451 76.4764 91.0103 70.2577C93.2108 76.407 96.1889 82.8239 94.9713 89.3198C94.9644 89.3617 94.9644 89.4044 94.9713 89.4463C94.992 89.5882 95.5739 92.9243 103.613 93.4986C104.287 93.5461 104.916 93.5684 105.496 93.5684C111.826 93.5645 112.888 90.9438 112.942 90.7973ZM85.5073 50.4786C80.9352 48.3317 80.5234 42.5995 80.9873 38.1662C81.1959 35.7063 81.8069 33.2973 82.7961 31.0354C83.4624 31.3574 84.1801 31.5622 84.9161 31.6388C88.6694 32.2752 92.4916 32.401 96.2786 32.0107C96.664 33.5643 96.821 35.1657 96.7448 36.7645C96.7772 36.9958 96.7608 37.2313 96.6966 37.4558C96.6324 37.6803 96.5219 37.8889 96.3721 38.068C96.2786 38.1616 96.1858 38.3479 96.0923 38.4407C96.1797 40.2807 96.0547 42.1246 95.7196 43.936C95.6551 44.0769 95.6383 44.235 95.672 44.3863C95.7056 44.5376 95.7878 44.6737 95.906 44.774C96.1858 44.9603 96.4649 44.5877 96.6512 44.215C98.2369 40.5147 97.8527 38.2543 99.5388 38.2543C99.8607 38.2968 100.158 38.4502 100.379 38.6881C100.6 38.9261 100.731 39.2336 100.75 39.5578C100.92 40.2422 100.854 40.9641 100.563 41.6066C100.076 42.7889 99.1615 43.7448 98.0022 44.2848C98.0444 44.1453 98.0843 44.0034 98.1226 43.86C98.2407 43.3877 97.4394 43.17 97.3237 43.63C96.7311 45.9847 95.3624 48.071 93.4386 49.5524C92.3102 50.3808 90.9858 50.9018 89.5954 51.0642C88.205 51.2266 86.7962 51.0248 85.5073 50.4786ZM92.1696 53.5602C92.5898 53.3202 92.9149 53.1622 93.2331 53.0135L93.3189 53.2136C93.359 53.3071 93.4345 53.3808 93.5289 53.4185C93.6233 53.4562 93.7289 53.4549 93.8223 53.4149C93.9158 53.3748 93.9895 53.2993 94.0272 53.2049C94.0649 53.1105 94.0636 53.005 94.0236 52.9115L93.0613 50.6665C94.3226 49.9773 95.4208 49.0249 96.2817 47.874C96.6313 48.5318 97.8251 50.5645 98.0337 51.0176C98.0343 51.1191 98.0749 51.2163 98.1466 51.2881C98.2184 51.3598 98.3156 51.4004 98.4171 51.401C99.2566 51.401 100.125 51.4118 100.995 51.4631C100.672 52.3933 100.226 53.2758 99.6676 54.0869C98.2951 56.4892 95.2458 58.3439 92.954 56.756C92.4614 56.4062 92.1108 55.8911 91.9661 55.3045C91.8214 54.7179 91.8923 54.0989 92.1658 53.5602H92.1696ZM84.2958 87.7158C82.0263 91.8777 77.7992 95.6018 74.5006 97.6636C73.1335 98.5177 74.0682 97.8652 69.5789 101.574C69.4301 101.697 69.5344 101.776 68.9862 101.962C68.8627 101.993 68.7492 101.972 68.7025 101.855C68.7463 101.81 68.7782 101.755 68.7952 101.694C69.2078 100.253 69.8074 99.9117 69.4431 99.5475C69.3859 99.4909 69.3124 99.4537 69.233 99.4409C69.1535 99.4281 69.0721 99.4404 69 99.4762C68.1836 99.8912 67.5521 100.597 67.2295 101.454C66.5686 103.217 65.466 104.858 65.4561 102.962C65.379 101.576 65.7144 100.198 66.4199 99.0023C67.7088 97.0088 70.5519 95.782 70.8241 95.5412C75.0294 91.2986 78.3821 86.289 80.7006 80.7836C84.706 71.4369 83.1097 61.5942 89.3947 55.6235C88.2699 60.454 89.1164 64.6297 90.4904 68.7663C89.4214 75.366 87.3315 81.759 84.2958 87.7158ZM112.217 90.5527C112.206 90.5804 111.022 93.2586 103.66 92.7318C96.8468 92.2457 95.8469 89.753 95.735 89.3796C96.7831 83.629 94.6983 77.9689 92.6534 72.5111C90.5142 66.7981 88.4923 61.3971 90.4183 54.7425C90.6629 54.5501 90.9137 54.3653 91.1713 54.1889C90.8454 56.2821 92.4748 58.1108 94.8892 58.1108C97.0553 58.1108 99.2336 56.3956 100.315 54.4987C100.941 53.5799 101.437 52.5784 101.788 51.5229C103.968 51.6012 106.079 52.3073 107.868 53.5563C111.292 56.2277 113.405 62.0274 114.148 70.7959C114.719 77.4442 114.064 84.1408 112.217 90.5527Z" fill="#4B1010"/>
<path d="M113.133 62.3762C112.295 59.0232 110.897 55.3911 108.103 53.2519C106.334 51.8549 104.937 51.4822 103.074 52.9728C99.6462 55.796 99.7382 60.1358 101.93 63.9987C100.224 76.9644 95.6476 90.7413 84.2522 103.057C83.3315 103.037 82.4171 103.211 81.5681 103.568C80.7192 103.925 79.9547 104.456 79.3243 105.127C78.9915 105.508 78.7382 105.951 78.579 106.431C78.2063 107.734 79.1379 108.201 79.8825 107.083C80.2618 106.53 80.7744 106.082 81.373 105.78C80.7862 106.279 80.3374 106.92 80.0695 107.643C79.9175 107.994 79.8536 108.378 79.8832 108.76C79.9768 109.133 80.2559 109.505 80.6285 109.505C80.8278 109.49 81.0193 109.421 81.1831 109.306C81.3469 109.192 81.477 109.035 81.5601 108.853C81.9327 108.107 82.0202 107.123 83.0499 106.711C82.7708 107.084 82.4909 107.549 82.2118 108.015C82.0215 108.422 81.9261 108.868 81.9327 109.318C81.9672 109.544 82.0789 109.751 82.2487 109.904C82.4186 110.056 82.6361 110.146 82.8643 110.156C83.4287 110.156 83.8964 109.497 84.1678 109.225C85.127 107.308 86.6421 108.055 87.9862 107.642C88.3699 107.57 88.7218 107.38 88.9939 107.1C89.266 106.821 89.4451 106.463 89.5067 106.078C90.1 105.817 90.6057 105.391 90.9635 104.851C101.042 94.1319 105.832 82.3853 108.752 69.7217C112.118 69.8137 114.03 65.5268 113.133 62.3762Z" fill="white"/>
<path d="M113.902 63.7579C113.903 63.7304 113.9 63.7029 113.894 63.6759C112.873 59.0317 110.867 53.8117 106.512 51.858C105.659 51.6256 104.756 51.6566 103.921 51.9468C103.086 52.2371 102.359 52.773 101.834 53.4843C100.994 54.6277 100.485 55.9808 100.364 57.3947C100.098 59.8072 100.483 62.2467 101.479 64.4603C99.3617 79.8957 93.7414 92.189 84.0842 102.667C83.1405 102.671 82.2073 102.866 81.3419 103.243C80.4765 103.619 79.697 104.168 79.0513 104.856C78.6729 105.284 78.3859 105.784 78.2078 106.326C77.7961 107.766 78.7377 108.421 79.5596 107.936C79.5015 108.237 79.4843 108.545 79.5082 108.85C79.5349 109.078 79.6276 109.292 79.7749 109.468C79.9222 109.643 80.1177 109.771 80.3371 109.836C80.5562 109.903 80.7898 109.903 81.0092 109.838C81.2286 109.773 81.4241 109.645 81.5716 109.47C81.6381 109.766 81.8008 110.031 82.0342 110.224C82.2676 110.417 82.5584 110.527 82.8612 110.537C83.1448 110.502 83.4175 110.406 83.6613 110.257C83.905 110.107 84.1143 109.908 84.2751 109.672C84.4653 109.453 84.4768 109.456 84.5051 109.393C84.5864 109.21 84.6991 109.042 84.8379 108.898C85.0708 108.632 85.3656 108.428 85.6963 108.304C86.0269 108.18 86.3832 108.139 86.7333 108.186C87.9731 108.134 88.9791 107.963 89.6171 106.898C89.7167 106.725 89.7911 106.539 89.8386 106.345C90.4045 106.06 90.8872 105.634 91.2403 105.108C101.686 94.0093 106.338 81.6907 109.004 70.3566C112.155 69.9548 113.904 66.9085 113.902 63.7579ZM88.9576 106.513C87.8558 108.353 85.2167 106.29 83.8473 109.001C83.6695 109.225 83.466 109.429 83.2408 109.606C83.1695 109.675 83.0808 109.725 82.9839 109.748C82.887 109.772 82.7856 109.769 82.6902 109.74C82.595 109.71 82.5096 109.655 82.443 109.581C82.3765 109.507 82.3313 109.416 82.3122 109.318C82.3046 108.937 82.3812 108.559 82.5369 108.211C82.806 107.762 83.0836 107.299 83.3527 106.94C83.3959 106.884 83.4222 106.816 83.4285 106.745C83.4349 106.674 83.4211 106.602 83.3888 106.539C83.357 106.475 83.308 106.422 83.2475 106.384C83.1869 106.347 83.1172 106.327 83.046 106.327C82.7379 106.413 82.454 106.57 82.2168 106.784C81.9795 106.999 81.7954 107.266 81.6789 107.564C81.3484 108.225 81.2281 109.121 80.6246 109.121C80.4897 109.121 80.3333 108.939 80.2627 108.708C80.2403 108.389 80.2959 108.069 80.4245 107.776C80.6699 107.117 81.0801 106.53 81.6153 106.073C81.6687 106.028 81.7089 105.969 81.7314 105.903C81.7539 105.837 81.7578 105.766 81.7428 105.697C81.7278 105.629 81.6944 105.566 81.6463 105.515C81.5981 105.465 81.537 105.428 81.4696 105.409C81.3789 105.385 81.2823 105.394 81.1981 105.436C80.54 105.768 79.9766 106.261 79.5604 106.87C79.3012 107.259 79.0566 107.357 78.9815 107.323C78.9063 107.289 78.8067 107.016 78.9316 106.572C79.0745 106.138 79.3017 105.736 79.6002 105.389C80.2322 104.711 81.0099 104.184 81.8748 103.85C82.7397 103.516 83.6693 103.382 84.5933 103.459H84.6293C86.0039 103.408 87.3547 103.829 88.457 104.652L88.8058 104.998C88.9881 105.202 89.1009 105.459 89.1282 105.731C89.1555 106.003 89.0958 106.277 88.9576 106.513ZM109.186 69.5553C109.658 67.4851 110.066 65.4555 110.434 63.4712C110.454 63.3701 110.434 63.2651 110.377 63.1791C110.334 63.1149 110.273 63.0652 110.202 63.0364C110.13 63.0077 110.052 63.0013 109.977 63.018C109.927 63.0292 109.879 63.0502 109.838 63.0796C109.796 63.1091 109.76 63.1465 109.733 63.1898C109.706 63.2332 109.688 63.2814 109.68 63.3316C107.283 76.2912 103.148 91.3325 90.6445 104.635C90.4343 104.953 90.1665 105.229 89.8547 105.448C89.7197 104.91 89.4099 104.431 88.9737 104.087C87.8609 103.22 86.4976 102.736 85.0871 102.707C96.1168 90.5236 101.814 75.9247 102.988 56.9055C102.992 56.8548 102.986 56.8038 102.97 56.7555C102.954 56.7072 102.929 56.6625 102.895 56.6241C102.862 56.5857 102.821 56.5544 102.776 56.5319C102.73 56.5094 102.68 56.4962 102.63 56.4931C102.579 56.49 102.528 56.4971 102.48 56.5138C102.432 56.5306 102.388 56.5567 102.35 56.5908C102.312 56.6248 102.281 56.666 102.26 56.712C102.238 56.758 102.225 56.8079 102.223 56.8587C102.1 58.8755 101.918 60.8883 101.679 62.8946C101.113 61.1452 100.925 59.2958 101.126 57.4683C101.234 56.191 101.693 54.9684 102.452 53.9359C102.878 53.3564 103.468 52.9174 104.145 52.6755C104.822 52.4335 105.556 52.3995 106.252 52.578C110.299 54.4304 112.176 59.4741 113.132 63.7993C113.123 66.3457 111.839 69.0293 109.189 69.5553H109.186Z" fill="#4B1010"/>
<path d="M95.7068 47.0136C96.1009 47.02 96.4922 46.9478 96.8581 46.8014C97.224 46.655 97.5571 46.4372 97.838 46.1608C98.1189 45.8844 98.342 45.5548 98.4943 45.1914C98.6465 44.8279 98.7249 44.4377 98.7249 44.0436C98.7249 43.6495 98.6465 43.2594 98.4943 42.8959C98.342 42.5324 98.1189 42.2029 97.838 41.9264C97.5571 41.65 97.224 41.4323 96.8581 41.2859C96.4922 41.1394 96.1009 41.0673 95.7068 41.0736C94.9274 41.0861 94.1841 41.4046 93.6374 41.9602C93.0906 42.5158 92.7842 43.2641 92.7842 44.0436C92.7842 44.8232 93.0906 45.5714 93.6374 46.1271C94.1841 46.6827 94.9274 47.0011 95.7068 47.0136Z" fill="#FFE55D"/>
<path d="M81.2108 46.2767C81.8725 46.2767 82.5071 46.0139 82.9751 45.546C83.443 45.0781 83.7058 44.4435 83.7058 43.7817C83.7058 43.12 83.443 42.4854 82.9751 42.0175C82.5071 41.5496 81.8725 41.2867 81.2108 41.2867C80.5491 41.2867 79.9145 41.5496 79.4466 42.0175C78.9787 42.4854 78.7158 43.12 78.7158 43.7817C78.7158 44.4435 78.9787 45.0781 79.4466 45.546C79.9145 46.0139 80.5491 46.2767 81.2108 46.2767Z" fill="#FFE55D"/>
<path d="M59.1134 39.6508C59.8677 43.2945 60.1805 47.0157 60.045 50.7342C59.7383 62.9316 59.7651 75.1367 59.1134 87.4308C53.835 83.8516 47.4952 82.1763 41.1377 82.6808C41.1377 66.7017 41.2144 51.3154 48.6817 37.2294C49.5213 35.6469 50.4698 34.1624 51.2887 32.5722C51.7648 31.6467 52.4994 30.7098 53.5238 30.7098C53.9231 30.7395 54.3094 30.865 54.6499 31.0758C54.9904 31.2865 55.2751 31.5763 55.4797 31.9205C57.258 34.1905 58.5002 36.8332 59.1134 39.6508Z" fill="#FFE55D"/>
<path d="M58.901 87.7497C53.6923 84.2251 47.4416 82.5726 41.1715 83.0626C41.1184 83.0676 41.0649 83.0614 41.0144 83.0442C40.9639 83.027 40.9176 82.9993 40.8786 82.9629C40.8392 82.927 40.8077 82.8832 40.7863 82.8343C40.7649 82.7854 40.754 82.7326 40.7544 82.6792C40.7544 66.5775 40.8426 51.1658 48.3452 37.0477C49.1886 35.459 50.1141 33.9753 50.9522 32.392C51.6269 31.0425 52.5179 30.3218 53.5261 30.3218C53.9905 30.3517 54.4408 30.4938 54.8381 30.7361C55.2354 30.9784 55.568 31.3135 55.8072 31.7127C57.59 34.0333 58.8459 36.7144 59.4876 39.5695C60.2683 43.2418 60.5836 46.9977 60.4261 50.7487C60.4261 63.6133 60.1194 75.6236 59.4945 87.4461C59.4915 87.5138 59.4707 87.5795 59.4341 87.6365C59.3975 87.6935 59.3464 87.7397 59.2861 87.7706C59.2258 87.8015 59.1584 87.8158 59.0908 87.8121C59.0231 87.8084 58.9577 87.7869 58.901 87.7497ZM58.7653 86.7468C59.368 75.1513 59.6617 63.361 59.6617 50.7342C59.8176 47.043 59.5085 43.3469 58.7416 39.7329C58.1226 36.9785 56.908 34.393 55.1831 32.1581C55.0088 31.8551 54.763 31.5994 54.467 31.4133C54.1711 31.2273 53.8341 31.1166 53.4855 31.0908C52.5991 31.0908 51.9436 32.1275 51.6353 32.7439C50.7858 34.3487 49.8657 35.8178 49.023 37.4088C41.6622 51.2609 41.5242 66.5116 41.5235 82.2636C47.6017 81.8795 53.6433 83.4505 58.7646 86.7468H58.7653Z" fill="#4B1010"/>
<path d="M53.5245 131.764C52.221 123.662 52.1274 115.093 51.8476 106.804C51.4431 93.3514 51.7851 79.887 52.8719 66.4726C52.8719 66.4726 49.4269 67.3398 42.4158 66.4619C40.3885 66.2238 38.4385 65.5425 36.704 64.4662C34.9696 63.39 33.4933 61.9452 32.3798 60.2344C28.1888 73.8327 30.0512 88.828 30.0512 102.799C30.0512 116.956 29.3995 125.711 28.9333 139.868C28.8361 140.686 28.932 141.515 29.2131 142.29C29.7409 143.074 30.4851 143.689 31.3554 144.059C34.5924 145.626 38.2182 146.209 41.7832 145.735C45.9835 145.316 47.5844 143.221 47.5821 139.847C48.2641 139.659 48.9395 139.449 49.6071 139.216C51.1381 138.853 52.5102 138.003 53.5175 136.794C54.7743 135.242 53.8035 133.441 53.5245 131.764Z" fill="white"/>
<path d="M51.569 23.7249C51.8358 24.2616 53.186 26.1125 52.5006 26.798C51.4782 27.6337 50.5422 28.5697 49.7065 29.5921C51.6855 33.0233 53.525 35.677 53.525 38.5339C54.3638 38.5952 55.208 38.5646 56.0399 38.4403C56.319 38.4403 56.5053 38.254 56.7844 38.0677C57.157 37.6023 56.8779 37.0433 56.5981 36.4844C56.0364 35.3463 55.3825 34.2562 54.6429 33.2249C54.3685 32.9395 54.1755 32.5858 54.0839 32.2005C54.2835 31.7744 54.5501 31.383 54.8737 31.0412C55.6189 31.6929 56.973 33.1245 57.9023 33.4112C59.7043 33.9588 61.6369 33.8933 63.3976 33.2249C68.3048 31.354 70.4264 24.1305 70.9417 18.9749C71.0965 18.146 71.1586 17.3026 71.128 16.4599C70.7905 15.5462 70.2112 14.7414 69.4519 14.1313C68.3312 12.9284 66.9535 11.9938 65.4215 11.3972C63.8895 10.8006 62.2426 10.5574 60.6036 10.6856C57.7183 10.8987 54.6429 11.8027 52.8732 14.3177C51.7205 16.1538 50.9889 18.2224 50.7309 20.375C50.6072 21.5554 50.904 22.7417 51.569 23.7249Z" fill="white"/>
<path d="M57.3937 37.3805C57.3464 37.3256 57.2847 37.285 57.2155 37.2633C57.1463 37.2417 57.0725 37.2399 57.0023 37.2581C56.9322 37.2763 56.8685 37.3138 56.8186 37.3663C56.7686 37.4188 56.7344 37.4843 56.7198 37.5553C56.5557 38.322 54.4241 38.7568 53.8935 38.0514C53.8437 37.9838 53.7731 37.9344 53.6925 37.9109C53.6119 37.8874 53.5258 37.8909 53.4474 37.9211C53.369 37.9512 53.3027 38.0062 53.2586 38.0777C53.2146 38.1492 53.1952 38.2331 53.2034 38.3167C53.4427 40.8508 53.4611 43.4002 53.2594 45.9382C52.9044 49.6899 50.4677 56.9195 48.721 60.2066C47.3758 63.0681 46.3095 66.0525 45.5367 69.1185C45.5232 69.1716 45.5213 69.2269 45.5309 69.2807C45.5406 69.3346 45.5617 69.3858 45.5928 69.4308C45.6239 69.4758 45.6642 69.5137 45.7112 69.5418C45.7581 69.5699 45.8105 69.5877 45.8649 69.5939C47.2617 69.7043 48.6668 69.6438 50.049 69.4137C51.7597 69.1369 53.9855 68.1677 54.4287 66.4809C54.5522 66.0101 54.5568 65.9917 54.3306 61.8221C54.0775 57.1741 59.0031 48.5673 59.9462 45.2128C60.9177 41.7548 57.5386 37.5576 57.3937 37.3805Z" fill="#4B1010"/>
<path d="M54.7354 30.989C51.8279 27.4558 52.7534 26.9191 52.0342 25.1218C52.4225 25.4013 52.881 25.5668 53.3583 25.5997C53.8355 25.6326 54.3125 25.5316 54.7354 25.3081C55.5867 24.8318 56.2461 24.0745 56.6009 23.1658C58.1382 24.6476 59.9667 25.7935 61.9703 26.531C63.974 27.2684 66.1092 27.5813 68.2402 27.4497C67.2158 29.7783 65.4692 32.2579 62.932 33.2248C61.5034 33.7549 59.9447 33.8243 58.4746 33.4233C57.0046 33.0223 55.697 32.171 54.7354 30.989Z" fill="#FFE55D"/>
<path d="M64.5155 27.7402C64.4466 27.7402 64.379 27.7216 64.3197 27.6864C64.2605 27.6512 64.2119 27.6006 64.1789 27.5401C63.5374 26.3316 63.1709 24.9963 63.1055 23.6297C63.1055 23.093 64.1958 22.0617 64.3767 21.926C64.417 21.8958 64.4628 21.8738 64.5116 21.8613C64.5604 21.8488 64.6111 21.846 64.661 21.8532C64.7108 21.8603 64.7588 21.8771 64.8021 21.9028C64.8454 21.9284 64.8833 21.9624 64.9135 22.0027C64.9437 22.0429 64.9657 22.0888 64.9781 22.1375C64.9906 22.1863 64.9934 22.2371 64.9863 22.2869C64.9792 22.3367 64.9623 22.3847 64.9366 22.428C64.911 22.4713 64.8771 22.5092 64.8368 22.5394C64.4543 22.8619 64.1269 23.2447 63.8676 23.6726C63.9435 24.8956 64.2786 26.0879 64.8506 27.1713C64.8829 27.2296 64.8994 27.2954 64.8985 27.362C64.8976 27.4287 64.8793 27.494 64.8455 27.5514C64.8116 27.6089 64.7634 27.6565 64.7055 27.6896C64.6477 27.7227 64.5822 27.7402 64.5155 27.7402Z" fill="#4B1010"/>
<path d="M71.0154 17.1859C70.997 17.1168 70.9619 17.0533 70.9133 17.0009C70.8646 16.9485 70.8038 16.9088 70.7363 16.8854C70.7485 16.5265 70.7608 16.1669 70.7547 15.8081C70.7133 14.4067 70.3958 13.0273 69.8204 11.7488C69.2451 10.4703 68.4231 9.3179 67.4017 8.3576C65.7887 7.12442 63.9048 6.29403 61.9064 5.93544C60.2088 5.45405 58.4201 5.38987 56.6925 5.74835C55.8222 6.0524 55.0292 6.54358 54.3694 7.18728C53.7095 7.83098 53.1988 8.61154 52.8733 9.47398C51.8489 11.6163 50.9181 13.7586 49.9865 15.9009C49.548 16.8253 49.2043 17.7917 48.9606 18.7854C48.7897 19.5484 48.7178 20.3303 48.7467 21.1117C48.2061 21.2542 47.7071 21.5232 47.2909 21.8965C46.8747 22.2698 46.5532 22.7366 46.3529 23.2586C45.4466 25.976 48.6439 28.4725 50.9932 26.9727C51.0385 27.0111 51.0852 27.0494 51.132 27.0847C50.7893 27.4811 49.768 28.668 49.4797 29.0997C49.4517 29.1416 49.4323 29.1886 49.4225 29.2379C49.4127 29.2873 49.4128 29.3382 49.4226 29.3876C49.4426 29.4873 49.5013 29.575 49.5859 29.6314C49.6705 29.6879 49.774 29.7084 49.8737 29.6885C49.9735 29.6685 50.0612 29.6098 50.1176 29.5252C50.4327 29.0529 51.6595 27.6574 52.1794 27.0379C52.5971 28.4452 53.302 29.7506 54.2496 30.8716L53.1294 32.3369C53.0677 32.4182 53.0408 32.5208 53.0547 32.6219C53.0686 32.7231 53.122 32.8146 53.2034 32.8763C53.2847 32.938 53.3873 32.9649 53.4884 32.951C53.5896 32.9372 53.6811 32.8837 53.7428 32.8023L54.7794 31.4467C55.7079 32.4512 56.8788 33.2002 58.18 33.6219C59.4812 34.0437 60.8689 34.1239 62.21 33.8551C66.7177 32.8215 68.9835 27.9879 70.0899 24.1174C70.7718 21.8723 71.0843 19.5313 71.0154 17.1859ZM54.5977 21.4245C54.9673 22.0792 55.3981 22.6974 55.8843 23.2709C55.8322 23.6509 55.7016 24.0159 55.5009 24.3427C55.3001 24.6696 55.0335 24.9511 54.7181 25.1693C54.4728 25.3179 54.1943 25.4027 53.9078 25.4161C53.6214 25.4295 53.3361 25.371 53.078 25.246C54.3117 23.3529 54.0878 22.764 54.5977 21.4245ZM52.0337 23.4449C51.389 22.7751 50.9774 21.9153 50.86 20.9931C50.7426 20.0708 50.9257 19.1353 51.382 18.3253C51.5223 18.062 51.7411 17.8488 52.0081 17.7154C52.275 17.582 52.5769 17.5349 52.8718 17.5808C53.1 17.6616 53.2959 17.8141 53.4302 18.0154C53.5645 18.2168 53.6301 18.4563 53.617 18.698C53.6826 19.134 53.6509 19.5791 53.5243 20.0014C53.3899 21.7086 53.149 23.4056 52.8028 25.0827C52.7406 25.0425 52.6683 25.0207 52.5942 25.0198C52.5045 23.7048 52.7951 24.2078 52.0337 23.4449ZM67.335 28.53C62.6632 36.9374 53.8708 32.9771 52.6985 25.9108C53.0809 26.1042 53.5066 26.196 53.9348 26.1777C54.3629 26.1593 54.7792 26.0312 55.1436 25.8057C55.7907 25.3564 56.2712 24.706 56.5108 23.9556C57.9627 25.3986 59.7159 26.5025 61.6446 27.1882C63.5734 27.874 65.63 28.1245 67.667 27.922C67.5596 28.1267 67.4492 28.3299 67.335 28.53ZM68.0733 27.1008C65.4823 27.4819 62.8367 27.0562 60.496 25.8814C58.1553 24.7066 56.233 22.8397 54.9903 20.5343C55.7674 19.1517 56.6795 17.8493 57.713 16.6462C57.9891 16.2957 58.3387 16.0098 58.7374 15.8081C59.4129 15.6949 60.1066 15.8268 60.6934 16.18C63.8639 17.7656 68.4214 19.4003 69.4105 23.3805C69.0804 24.6592 68.6328 25.9046 68.0733 27.1008Z" fill="#4B1010"/>
<path d="M60.8822 20.8479C60.0531 20.5011 59.1413 20.4015 58.2569 20.5612C58.2075 20.5712 58.1566 20.5715 58.1071 20.5619C58.0576 20.5523 58.0105 20.533 57.9685 20.5052C57.9264 20.4774 57.8903 20.4416 57.8621 20.3998C57.8339 20.358 57.8142 20.3111 57.8041 20.2617C57.7941 20.2123 57.7938 20.1615 57.8034 20.112C57.813 20.0625 57.8323 20.0154 57.8601 19.9733C57.8879 19.9313 57.9237 19.8951 57.9654 19.8669C58.0072 19.8387 58.0542 19.819 58.1035 19.809C59.089 19.6042 60.1138 19.7114 61.0356 20.1157C61.1148 20.1518 61.1795 20.2138 61.2188 20.2915C61.2581 20.3692 61.2698 20.4579 61.252 20.5432C61.2341 20.6284 61.1878 20.705 61.1206 20.7604C61.0534 20.8158 60.9693 20.8467 60.8822 20.8479Z" fill="#4B1010"/>
<path d="M68.332 24.201C68.2514 24.2011 68.1728 24.1758 68.1075 24.1288C68.0421 24.0817 67.9932 24.0152 67.9677 23.9388C67.844 23.5883 67.6344 23.2744 67.3581 23.0257C67.0818 22.7771 66.7475 22.6018 66.3859 22.5157C66.2866 22.4936 66.2001 22.433 66.1455 22.3472C66.0908 22.2613 66.0725 22.1573 66.0946 22.0579C66.1166 21.9586 66.1773 21.8721 66.2631 21.8175C66.349 21.7628 66.453 21.7445 66.5523 21.7666C67.0443 21.8801 67.4994 22.1168 67.875 22.4543C68.2505 22.7919 68.5341 23.2193 68.6992 23.6965C68.7185 23.7544 68.7237 23.8161 68.7143 23.8764C68.705 23.9367 68.6814 23.9939 68.6454 24.0433C68.6095 24.0926 68.5623 24.1327 68.5078 24.1601C68.4533 24.1875 68.393 24.2016 68.332 24.201Z" fill="#4B1010"/>
<path d="M89.6632 65.2711C89.64 65.1722 89.5789 65.0863 89.493 65.0319C89.4066 64.9781 89.3024 64.9607 89.2032 64.9836C81.9735 66.6528 77.7702 76.0585 70.3703 76.2441C69.0808 76.3008 67.7963 76.0498 66.6231 75.5118C65.4498 74.9739 64.4214 74.1644 63.6229 73.1502C62.6586 71.7205 61.9205 70.1507 61.4346 68.4961C60.3297 64.8786 60.7001 61.5524 61.144 56.2511C61.5274 51.6966 61.9583 46.5463 61.0397 42.0862C62.0416 39.2932 62.7411 36.4009 63.1261 33.4587C63.1326 33.4087 63.1292 33.3578 63.116 33.3092C63.1027 33.2605 63.08 33.2149 63.0491 33.175C63.0181 33.1352 62.9796 33.1018 62.9357 33.077C62.8918 33.0521 62.8434 33.0362 62.7933 33.0301C62.7432 33.0238 62.6924 33.0274 62.6438 33.0407C62.5951 33.0541 62.5496 33.0769 62.5097 33.1079C62.4699 33.1389 62.4366 33.1774 62.4117 33.2213C62.3868 33.2652 62.3708 33.3136 62.3647 33.3636C62.0093 36.0914 61.3752 38.7755 60.4723 41.3739C55.4409 34.9117 52.8639 31.2489 52.6208 23.468C53.935 23.1413 53.9519 19.9885 52.2206 19.9885C50.5797 19.9885 50.5276 22.7012 51.8502 23.356C52.0803 31.6369 54.8268 35.3273 60.3006 42.4013L60.3244 42.4281C61.1678 46.738 60.7507 51.7487 60.378 56.1875C59.9594 61.1713 59.5407 64.9284 60.6993 68.72C61.2099 70.4565 61.9858 72.1038 62.9995 73.6034C63.8377 74.6759 64.9112 75.5415 66.1371 76.1331C67.3631 76.7247 68.7086 77.0266 70.0697 77.0154C78.1574 77.0154 82.2565 67.3728 89.3727 65.7304C89.4719 65.7077 89.5582 65.6467 89.6126 65.5607C89.667 65.4746 89.6852 65.3705 89.6632 65.2711ZM52.604 22.4206C52.6036 22.3345 52.5743 22.2511 52.5208 22.1837C52.4673 22.1163 52.3927 22.0689 52.3089 22.0491C52.2252 22.0292 52.1372 22.0382 52.0592 22.0744C51.9811 22.1106 51.9175 22.1721 51.8786 22.2488C51.7639 22.0511 51.7009 21.8277 51.6954 21.5992C51.6899 21.3707 51.7421 21.1445 51.8472 20.9415C52.5143 19.9302 53.1116 22.2749 52.6055 22.613C52.6046 22.5489 52.6041 22.4847 52.604 22.4206Z" fill="#4B1010"/>
<path d="M85.7508 64.3302C72.8602 61.2211 63.548 55.5272 53.818 43.5007C54.1646 38.3029 52.529 33.1668 49.2405 29.1265C41.6965 28.4748 35.2696 44.7735 34.3387 47.0086C29.9263 57.7821 27.1025 69.1395 25.9559 80.7249C25.6768 83.4261 25.5832 86.3137 26.7947 88.7351C27.9951 90.667 29.66 92.2678 31.6375 93.3916C32.5691 93.9505 41.7892 97.5826 41.7892 98.3287C41.8959 88.8309 43.1787 79.3829 45.6084 70.2005C46.7585 65.7993 48.5535 61.7202 50.1706 57.5752C57.6655 63.9101 67.0682 68.6118 76.0644 72.6219C77.3043 73.3583 78.7207 73.7446 80.1627 73.7398C82.7704 73.5535 86.5888 64.5189 85.7508 64.3302Z" fill="white"/>
<path d="M96.4407 62.9707C95.7123 61.2716 93.6666 61.6013 92.7787 61.7171C90.5789 62.0031 88.5616 63.361 89.0983 65.534C89.196 65.9836 89.398 66.4039 89.6881 66.761C89.9782 67.1181 90.3482 67.402 90.7683 67.5896C91.8891 67.8819 93.0515 67.981 94.2056 67.8825C96.5565 67.993 97.3646 65.0502 96.4407 62.9707Z" fill="#4B1010"/>
<path d="M93.8534 64.6125C94.1019 63.3696 91.7288 62.668 89.7897 64.1524L91.6161 62.658C91.8952 62.4717 92.0815 62.0991 91.9887 61.9127C91.9257 61.8238 91.8417 61.7518 91.7442 61.7032C91.6467 61.6545 91.5387 61.6306 91.4297 61.6336C88.8228 61.4473 86.3071 64.1486 85.7481 66.4764L83.0469 70.9473C83.958 71.3711 84.9737 71.5175 85.9674 71.3684C86.9612 71.2192 87.8891 70.7811 88.6357 70.1085C89.4956 69.1831 90.5898 68.5075 91.8024 68.1533C92.5477 67.9662 93.8511 67.6871 93.7584 66.57C93.6656 65.4528 91.8024 65.7311 91.0571 66.011C91.7111 65.7296 93.6671 65.5433 93.8534 64.6125Z" fill="white"/>
<path d="M85.8409 63.96C72.8912 60.8347 63.7478 55.1293 54.2086 43.3804C54.5219 38.132 52.8526 32.9573 49.5315 28.8812C49.4991 28.8423 49.4593 28.8103 49.4144 28.7868C49.3695 28.7634 49.3204 28.7491 49.27 28.7447C42.4222 28.1459 36.5811 40.5465 33.9818 46.8638C29.5348 57.6642 26.7014 69.0604 25.5729 80.6859C25.2846 83.4692 25.1895 86.3912 26.4661 88.9368C27.7008 90.9195 29.4096 92.5635 31.4385 93.7206C32.3034 94.2397 40.7077 97.6019 41.4177 98.43C41.4426 98.519 41.4986 98.5961 41.5756 98.6472C41.6526 98.6983 41.7455 98.72 41.8371 98.7083C41.9286 98.6958 42.0125 98.651 42.0737 98.5819C42.1349 98.5128 42.1693 98.4241 42.1707 98.3318C42.2803 88.8658 43.5589 79.4496 45.9776 70.2972C47.186 66.1845 48.6398 62.148 50.3312 58.2094C57.7955 64.4147 67.1161 69.055 75.8639 72.9486C77.1697 73.7277 78.6641 74.1337 80.1846 74.1225C82.5231 74.1225 86.0885 66.8667 86.2472 64.7421C86.2902 64.1494 86.0065 63.9968 85.8409 63.96ZM49.0492 29.4977C51.9664 33.1839 53.5283 37.7606 53.4733 42.4611C52.5927 41.3419 51.7436 40.1982 50.927 39.0314C51.972 38.3812 52.0771 38.372 52.1016 38.1213C52.107 38.0623 52.0987 38.0029 52.0773 37.9477C52.0558 37.8925 52.0219 37.843 51.9782 37.8031C50.9484 36.8669 49.8366 36.6906 49.1205 35.7544C48.6704 34.8534 48.7686 35.0758 48.3323 29.5153C48.57 29.4908 48.81 29.4847 49.0492 29.4977ZM50.4853 38.4012C50.2231 38.0186 49.9639 37.6344 49.7071 37.2465C50.1748 37.5294 50.6172 37.7341 51.0558 38.0462L50.4853 38.4012ZM45.2369 70.1032C42.8756 79.0467 41.5939 88.2408 41.4193 97.4892C39.5254 96.2953 32.538 93.4837 31.8295 93.0589C29.9181 91.9718 28.3064 90.4271 27.1393 88.5634C25.9693 86.2233 26.0659 83.4323 26.3396 80.7618C27.7811 65.8424 32.295 51.4543 37.1745 41.6261C39.8461 47.174 43.5669 52.1518 48.1314 56.2848C47.7066 61.81 46.5902 64.9246 45.2369 70.1032ZM48.7847 60.025C47.6637 62.8237 48.4435 61.4558 48.8483 56.9327C49.1335 57.1881 49.4218 57.4396 49.714 57.6872C49.4085 58.4682 49.0987 59.2475 48.7847 60.025ZM82.3039 71.5263C81.4681 72.668 80.6983 73.3189 80.1623 73.3588C78.7745 73.3588 77.4128 72.9839 76.2205 72.2738C69.2507 69.167 61.1638 65.2964 54.0292 60.1132C45.1365 53.6533 39.6404 46.005 37.6683 40.6531C40.9968 34.227 44.3981 30.437 47.5701 29.6464C47.6782 31.0159 47.9635 34.6939 47.9826 34.8005C47.9111 34.7918 47.8386 34.8035 47.7734 34.8341C47.7082 34.8647 47.653 34.9131 47.614 34.9737C47.575 35.0343 47.5539 35.1046 47.553 35.1766C47.5522 35.2487 47.5717 35.3195 47.6092 35.381C51.9233 42.4281 57.3266 48.7472 63.6182 54.1034C69.7138 59.154 76.6652 62.5116 85.4882 64.6631C85.459 65.492 84.0819 69.0926 82.3039 71.524V71.5263Z" fill="#4B1010"/>
<path d="M58.3582 23.5025C57.8153 22.8124 58.3958 21.2981 59.2783 21.3556C60.1608 21.4131 60.0128 23.1835 59.5612 23.5025C59.1096 23.8215 58.6971 23.9357 58.3582 23.5025Z" fill="#4B1010"/>
<path d="M65.4953 25.8394C64.9524 25.1493 65.5336 23.6357 66.4154 23.6925C67.2971 23.7492 67.1507 25.5204 66.6983 25.8394C66.2459 26.1583 65.8349 26.2687 65.4953 25.8394Z" fill="#4B1010"/>
<path d="M55.1082 5.4693C56.5652 4.79614 58.1608 4.47693 59.7647 4.5377C62.16 4.56377 64.5292 5.03839 66.7505 5.93548C68.0784 6.40257 69.2428 7.24375 70.1035 8.35764C71.9345 10.9224 71.5933 14.4111 71.2206 17.3922C71.2206 17.8707 70.8281 17.9711 70.6625 18.1368C67.8102 19.2462 61.5519 18.4435 58.3676 17.5778C56.3821 17.187 54.487 16.429 52.7796 15.3427C52.3156 15.0417 51.9062 14.6639 51.5689 14.2256C50.5959 12.4981 52.2528 7.18298 55.1082 5.4693Z" fill="white"/>
<path d="M66.7129 19.0492C63.8627 19.0355 61.0254 18.6654 58.2671 17.9473C56.2346 17.5698 54.2972 16.7926 52.5671 15.6609C52.0652 15.3445 51.6255 14.9388 51.2698 14.464C50.4463 13.011 50.9677 11.5028 51.4277 10.1702C52.209 7.91289 52.86 6.37096 54.9141 5.13726C56.4375 4.41798 58.1129 4.07985 59.796 4.15199C62.2358 4.15199 64.6511 4.63658 66.9015 5.57814C68.2931 6.07062 69.5119 6.95623 70.4101 8.12758C72.557 11.2912 71.8984 17.5364 71.3057 18.1291C70.4653 18.9679 67.8944 19.0492 66.7129 19.0492ZM52.1538 10.4232C51.7268 11.6585 51.2851 12.9359 51.9046 14.0362C52.2022 14.4224 52.5656 14.7531 52.9781 15.013C54.6361 16.0972 56.4931 16.8408 58.4412 17.2005C60.4731 17.7296 62.5487 18.0708 64.6427 18.2203C65.8464 18.2832 69.9018 18.4503 70.7644 17.5862C70.8809 17.4712 71.9237 11.7198 69.7875 8.57153C68.9745 7.52347 67.8755 6.73311 66.6232 6.29582C64.4516 5.38719 62.1209 4.91985 59.7669 4.92104C58.2156 4.85987 56.6719 5.16813 55.263 5.82044C53.4466 6.91459 52.8562 8.38751 52.1538 10.4232Z" fill="#4B1010"/>
<path d="M67.4957 13.3859C66.9728 13.3491 66.4644 13.3092 65.9622 13.2678C65.9883 12.7825 66.0013 12.294 66.0013 11.8025C66.0013 11.6162 65.815 11.5235 65.6287 11.5235C65.5359 11.4307 65.3496 11.6162 65.3496 11.8025C65.3496 12.2802 65.3365 12.7449 65.312 13.2072C64.7952 13.1561 64.2797 13.0917 63.7662 13.014C63.5799 13.014 63.3936 13.1068 63.3936 13.1996C63.3731 13.2421 63.3617 13.2884 63.3601 13.3356C63.3584 13.3828 63.3667 13.4298 63.3842 13.4737C63.4017 13.5175 63.4281 13.5572 63.4618 13.5903C63.4955 13.6234 63.5357 13.6491 63.5799 13.6657C64.1427 13.7463 64.7055 13.8091 65.2668 13.862C65.2208 14.4409 65.1548 15.0214 65.0689 15.621C65.0689 15.808 65.2553 15.9008 65.4416 15.9008C65.5143 15.8963 65.5829 15.8654 65.6344 15.8138C65.686 15.7623 65.7169 15.6937 65.7214 15.621C65.8058 15.0704 65.8748 14.5 65.9177 13.9195C66.4422 13.9632 66.9666 14.0008 67.4911 14.0376C67.8722 14.0376 67.8722 13.3859 67.4957 13.3859Z" fill="#4B1010"/>
<path d="M56.6175 139.069C56.2613 138.769 55.8187 138.59 55.3539 138.558L52.6779 138.133C53.1022 137.809 53.488 137.438 53.828 137.027C55.2082 135.314 54.1738 133.338 53.9047 131.704C52.6012 123.62 52.51 114.985 52.2332 106.794C51.824 93.3562 52.1657 79.9064 53.2568 66.5071C53.2628 66.4558 53.2584 66.4038 53.2439 66.3543C53.2294 66.3047 53.2051 66.2586 53.1724 66.2186C53.1397 66.1787 53.0993 66.1457 53.0536 66.1217C53.0079 66.0977 52.9578 66.0831 52.9063 66.0788C52.8549 66.0746 52.8031 66.0807 52.7541 66.0968C52.705 66.113 52.6597 66.1389 52.6209 66.1729C52.5821 66.2069 52.5505 66.2484 52.528 66.2949C52.5055 66.3413 52.4926 66.3919 52.4901 66.4434C51.3964 79.8715 51.0536 93.3503 51.4634 106.817C51.741 115.054 51.836 123.695 53.1449 131.828C53.4232 133.499 54.331 135.178 53.23 136.547C52.2637 137.7 50.9499 138.509 49.4852 138.854C48.9684 139.033 48.46 139.196 47.9601 139.341C47.7408 133.649 45.0304 118.698 46.455 75.2411C46.4569 75.1906 46.4489 75.1403 46.4312 75.093C46.4136 75.0457 46.3867 75.0023 46.3522 74.9654C46.3177 74.9286 46.2762 74.8989 46.2301 74.8782C46.1841 74.8575 46.1344 74.8461 46.0839 74.8447C46.0335 74.8431 45.9833 74.8514 45.9362 74.8691C45.8891 74.8869 45.8459 74.9138 45.8091 74.9482C45.7724 74.9827 45.7428 75.0241 45.7221 75.07C45.7013 75.1159 45.6898 75.1654 45.6882 75.2158C43.7997 132.831 49.0934 138.944 46.4021 143.105C45.3286 144.763 43.0284 145.225 41.7372 145.354C38.2409 145.821 34.6846 145.248 31.5118 143.707C30.7212 143.374 30.0428 142.82 29.5574 142.112C29.3078 141.396 29.2257 140.632 29.3174 139.879C29.9108 121.839 30.8156 111.955 30.2313 92.8618L29.427 92.1464C30.0604 112.838 29.197 120.051 28.5537 139.824C28.4493 140.701 28.5523 141.591 28.8543 142.422C29.3362 143.186 30.0139 143.808 30.8171 144.222C30.7987 144.556 30.7903 144.884 30.7918 145.205C30.7308 145.58 30.7492 145.963 30.8458 146.329C30.9425 146.696 31.1152 147.039 31.3527 147.334C31.5902 147.63 31.8873 147.872 32.2246 148.046C32.5619 148.219 32.9319 148.32 33.3106 148.341C38.0441 149.553 42.9362 150.028 47.8144 149.749C49.1794 149.857 50.5335 149.435 51.5945 148.569C51.7321 148.49 51.8461 148.375 51.9249 148.237C52.0037 148.099 52.0445 147.942 52.0431 147.783C52.0431 147.174 51.4665 146.786 51.218 146.624C49.7642 145.676 48.2991 144.745 46.823 143.832C46.925 143.702 47.0193 143.566 47.106 143.425C49.6982 143.305 52.2651 142.859 54.7458 142.098C55.3889 141.914 55.9852 141.595 56.4948 141.162C56.777 140.893 56.9467 140.528 56.9694 140.14C56.9922 139.751 56.8664 139.368 56.6175 139.069ZM51.2778 147.785C51.2778 147.897 51.2165 147.891 51.1391 147.953C50.6808 148.335 50.1519 148.622 49.5825 148.799C49.013 148.976 48.4143 149.039 47.8206 148.985C42.9885 149.261 38.1428 148.791 33.454 147.591C33.126 147.556 32.8085 147.456 32.5206 147.295C32.2328 147.134 31.9806 146.917 31.7794 146.655C31.5419 146.235 31.4622 145.744 31.5548 145.27C31.5548 145.04 31.5601 144.81 31.5686 144.58C34.0107 145.7 36.6659 146.279 39.3526 146.277C41.6758 146.277 44.5665 145.96 46.2917 144.403C47.8045 145.338 49.3064 146.292 50.7971 147.263C50.9159 147.345 51.2778 147.586 51.2778 147.785ZM55.9857 140.593C55.5607 140.951 55.0639 141.214 54.5289 141.364C52.2457 142.064 49.8876 142.491 47.5039 142.636C47.8068 141.838 47.9627 140.991 47.964 140.137C48.5313 139.975 49.1102 139.793 49.6999 139.588C50.4161 139.408 51.1038 139.13 51.7433 138.76C55.8753 139.413 55.6199 139.322 56.0478 139.594C56.159 139.74 56.2141 139.921 56.203 140.104C56.1919 140.288 56.1153 140.461 55.9872 140.593H55.9857Z" fill="#4B1010"/>
<path d="M91.8875 62.9354C92.0815 62.8114 92.23 62.6277 92.3105 62.4119C92.391 62.1962 92.3991 61.9601 92.3338 61.7393C92.2409 61.5907 92.112 61.4679 91.9591 61.3823C91.8062 61.2967 91.6342 61.2509 91.4589 61.2494C88.7262 61.0577 85.9981 63.8003 85.3778 66.3866C85.3558 66.4846 85.3733 66.5873 85.4265 66.6724C85.4798 66.7576 85.5645 66.8183 85.6623 66.8413C85.7599 66.8648 85.8628 66.8492 85.9489 66.7977C86.0351 66.7463 86.0976 66.6631 86.1231 66.566C86.6598 64.3256 89.092 61.8474 91.4321 62.0169C91.518 62.0169 91.6284 62.0621 91.6314 62.0261C91.6238 62.1955 91.4781 62.3328 89.5612 63.8463C89.4792 63.9115 89.3979 63.9759 89.3182 64.0457C89.2429 64.1119 89.1967 64.2051 89.1895 64.3051C89.1824 64.405 89.2148 64.5038 89.2798 64.5801C89.3445 64.6566 89.4366 64.7047 89.5363 64.7142C89.6361 64.7237 89.7356 64.6937 89.8135 64.6307C90.4576 64.0349 91.3007 63.7006 92.1781 63.693C92.7041 63.693 93.592 63.9706 93.4816 64.5364C93.3582 65.1552 91.508 65.4013 90.9122 65.6566C90.8199 65.6959 90.7467 65.7697 90.7082 65.8624C90.6697 65.955 90.6691 66.059 90.7064 66.1521C90.7437 66.2452 90.816 66.32 90.9078 66.3603C90.9996 66.4007 91.1036 66.4036 91.1975 66.3682C91.8308 66.1305 93.326 65.9242 93.3819 66.5982C93.4402 67.2921 92.6666 67.5398 91.8001 67.7568C90.4898 68.1156 89.3053 68.8325 88.3797 69.827C87.7134 70.4216 86.8932 70.8167 86.0129 70.9669C85.1325 71.1172 84.2277 71.0165 83.4019 70.6765C83.2876 70.9076 83.1596 71.1316 83.0186 71.3475C83.9941 71.7672 85.0698 71.8976 86.1174 71.7231C87.1651 71.5485 88.1404 71.0764 88.9271 70.3629C89.7555 69.4724 90.814 68.8283 91.9857 68.502C92.7816 68.305 94.2637 67.937 94.1471 66.5353C94.1345 66.3352 94.069 66.1419 93.9573 65.9753C93.8456 65.8087 93.6918 65.6747 93.5115 65.5869C95.045 64.679 94.1042 62.7721 91.8875 62.9354Z" fill="#4B1010"/>
</svg>
