<svg width="155" height="154" viewBox="0 0 155 154" fill="none" xmlns="http://www.w3.org/2000/svg">
<path d="M55.5114 33.8144C55.45 33.1381 56.3491 33.4609 56.3337 34.3601C56.3337 35.5897 55.2809 35.582 54.62 34.9979C54.3433 34.752 54.4355 34.4139 54.4586 34.1065C54.4586 34.1065 54.6123 34.0142 54.6891 34.0142C54.766 34.0142 54.8044 34.0988 54.8582 34.1526C54.9175 34.2067 54.9918 34.2413 55.0713 34.2518C55.1508 34.2623 55.2315 34.2481 55.3027 34.2113C55.3739 34.1744 55.4321 34.1167 55.4694 34.0457C55.5068 33.9747 55.5214 33.894 55.5114 33.8144Z" fill="#D8E9FF"/>
<path d="M60.1224 38.941C60.3299 38.7566 60.2146 38.7335 60.6296 39.0486C60.3381 39.4762 59.9548 39.8333 59.5076 40.0938C59.3385 40.2091 59.2309 40.0938 59.1387 39.9785C59.0465 39.8632 58.985 39.9632 60.1224 38.941Z" fill="#D9D9D9"/>
<path d="M59.3539 38.049C59.5307 37.8953 59.5461 37.9799 59.7612 38.2104C59.5309 38.6518 59.1753 39.0154 58.7391 39.2556C58.5086 39.3862 58.4625 39.1864 58.3702 39.0788C58.278 38.9712 58.2012 39.0634 59.3539 38.049Z" fill="#D9D9D9"/>
<path d="M57.94 54.6025C58.06 54.6393 58.1702 54.7023 58.2628 54.787C57.1966 55.1993 56.0383 55.3136 54.9121 55.1174C54.5586 55.1174 54.4971 55.4325 54.8045 55.6246C57.0255 57.0233 54.8967 54.8945 58.2397 60.3817C56.7027 61.3039 56.7027 61.3961 56.5951 61.1502C56.5951 61.1502 55.5038 59.1444 54.7968 57.6765C53.5518 55.0867 52.2146 50.8906 52.2684 49.9915C52.6604 50.2758 55.696 53.6803 57.94 54.6025Z" fill="#D9D9D9"/>
<path d="M71.919 55.8241C72.001 57.1067 71.7986 58.3915 71.3273 59.587C70.8559 60.7826 70.1265 61.8594 69.1908 62.7407C68.8373 63.0865 68.0534 63.9934 67.6538 63.6936C67.0313 63.2633 66.478 63.6936 66.5548 63.3632C66.6855 62.733 65.9785 62.6715 66.4396 62.3564C67.8844 61.3804 68.0842 61.3574 68.8834 60.0509C69.5572 58.8135 69.919 57.4305 69.9376 56.0219C69.9561 54.6131 69.6314 53.2211 68.991 51.9662C66.8161 47.4166 59.4308 40.9073 59.9226 40.5308C61.7594 39.0937 59.8458 38.6556 65.8171 44.8652C69.2216 48.5079 71.4118 51.2284 71.919 55.8241Z" fill="#D9D9D9"/>
<path d="M58.9159 37.2031C59.085 37.4797 58.9159 37.5566 58.0398 38.3251C57.84 38.5019 57.7478 38.4173 57.0638 37.8025C56.8102 37.572 55.5268 37.8717 54.5123 37.6258C53.8322 37.5152 53.2042 37.1932 52.7173 36.7056C52.2304 36.218 51.9093 35.5895 51.7996 34.9093C51.69 34.2289 51.7972 33.5314 52.1061 32.9155C52.4151 32.2996 52.9101 31.7966 53.521 31.4777C53.8053 31.3317 53.813 31.3317 53.9129 31.6314C54.3356 32.9225 54.374 32.9763 54.1511 33.1684C52.7448 34.521 54.52 36.9418 56.5028 35.766C57.2713 35.2895 57.6171 32.6919 55.8111 32.6305C55.4346 32.6305 55.1733 32.4998 55.1195 32.0618C55.0503 31.3855 54.5277 30.9628 55.1195 30.7937C56.8332 30.3403 58.962 31.6929 59.1157 34.0983C58.693 36.1656 58.4548 36.4269 58.9159 37.2031Z" fill="#D9D9D9"/>
<path d="M89.3257 54.5645C89.6716 55.1255 98.0099 69.8963 97.6026 69.8118C95.958 69.4506 95.7735 69.0433 93.9829 67.683C93.3066 67.1604 92.3152 67.9827 92.5458 69.3123C93.2144 73.1548 98.5402 71.1797 94.9897 75.8523C94.8898 75.9829 94.3902 75.8523 94.0367 75.8523C93.0914 75.9522 93.3374 76.8129 92.1385 77.8735C91.8535 78.2673 91.6505 78.7143 91.5423 79.1889C91.434 79.6628 91.4225 80.154 91.5083 80.6324C91.808 81.57 94.4133 79.8639 73.6174 91.5375C66.9391 95.2879 67.7691 95.2187 62.9583 97.6856C62.3973 97.97 62.5126 97.6856 60.5145 94.2273C43.515 64.6858 43.4151 70.8416 49.0791 67.1297C52.7141 64.7473 55.6498 62.8644 69.0217 55.4483C69.7134 55.064 69.1601 59.2908 67.308 60.9585C67.0697 61.1814 67.2311 60.9585 66.7162 60.19C66.501 59.8518 66.1475 60.3591 66.2551 60.5281C66.9007 61.5579 65.1638 61.7885 65.7095 62.995C65.8709 63.3562 65.5558 64.4245 66.5856 64.2785C66.7559 64.2439 66.9314 64.2491 67.0992 64.2933C67.267 64.3368 67.4226 64.4188 67.5539 64.5321C68.3224 65.1469 72.2879 61.9499 72.5953 56.3013C72.7029 54.3877 71.9421 53.8498 72.5953 53.527C75.531 51.99 83.0163 47.548 83.8079 47.0792C85.3218 46.1878 84.9222 47.5173 89.3257 54.5645ZM88.2729 65.8155C89.3719 65.4928 88.9953 64.878 88.9722 64.5706C88.962 64.3874 88.8871 64.2138 88.7603 64.0813C88.6334 63.9489 88.4631 63.8662 88.2806 63.8481C87.2738 63.6944 85.6907 62.4878 84.2459 62.8875C83.7079 63.0412 84.3919 62.7491 85.0144 59.0449C85.1835 57.9844 83.3083 57.7538 83.0778 59.0449C82.9266 60.1751 82.6532 61.2857 82.2631 62.3572L82.1018 62.1574C80.8414 59.9748 81.1258 60.1362 80.0729 60.2284C79.973 60.2328 79.8769 60.272 79.8026 60.3394C79.7283 60.4068 79.6797 60.498 79.6656 60.5973C79.4888 61.2198 79.6656 61.6194 80.4341 63.0104C82.9625 67.5601 83.1469 68.8896 84.5303 67.9289C84.8684 67.6984 84.7377 67.3602 84.7608 67.0836C84.7992 66.6148 84.6225 66.5533 83.8079 65.024C83.6849 64.7934 84.6532 64.6474 85.1912 64.8703C86.636 65.4313 87.4967 66.0461 88.2729 65.8232V65.8155ZM86.5668 79.1569C87.1509 78.7572 87.0202 77.42 86.1825 77.4738C85.3449 77.5276 85.245 77.7044 83.1623 79.2491C82.5321 79.7102 82.7934 79.9715 81.4101 78.25C81.3179 78.1347 81.2871 78.0425 81.4793 77.9426C81.9173 77.7197 84.1767 76.4056 84.3151 75.6371C84.3157 75.5154 84.2997 75.3937 84.269 75.2759C84.269 75.1798 84.2485 75.085 84.2081 74.9979C84.1678 74.9108 84.1095 74.8334 84.0365 74.7712C83.9628 74.7091 83.877 74.6636 83.7848 74.638C83.6926 74.6124 83.5952 74.6073 83.5004 74.6227C82.2555 74.6227 80.4264 77.0742 79.9653 76.4594C79.3198 75.5372 79.0354 75.2759 79.1968 75.2067C80.0204 74.8276 80.7947 74.3505 81.5023 73.785C82.9317 72.9704 82.5014 73.1702 82.4937 72.4631C82.4771 72.3575 82.438 72.2563 82.3797 72.166C82.3214 72.0763 82.2452 71.9995 82.1549 71.9406C82.0653 71.8823 81.9647 71.8432 81.8584 71.8259C81.7527 71.8086 81.6445 71.8138 81.5408 71.8407C80.794 72.0449 80.1165 72.4484 79.5811 73.0088C78.1209 73.8926 77.4907 74.0616 77.3216 75.0684C77.1679 75.9445 77.6137 76.029 78.0901 76.8206C79.004 78.2282 80.0108 79.5738 81.1027 80.8476C82.0326 82.1694 83.6388 81.155 86.5668 79.1569ZM76.5762 71.0798C78.5666 72.2403 81.6407 70.5726 81.6407 69.0125C81.6407 66.7915 79.8423 67.8444 79.827 67.9981C79.7674 68.2344 79.656 68.4547 79.501 68.643C79.3467 68.8319 79.1526 68.9837 78.9323 69.0888C78.712 69.1938 78.4718 69.2489 78.2278 69.2501C77.9838 69.2514 77.743 69.1995 77.5215 69.0971C76.8855 68.7999 76.3693 68.2946 76.0606 67.6638C75.7513 67.033 75.6681 66.3157 75.823 65.6311C75.9844 65.1162 76.1228 65.4313 76.5916 65.3237C77.4677 65.1393 77.3139 64.0864 76.9374 63.6867C74.3706 60.9969 71.5117 68.1595 76.5531 71.0645L76.5762 71.0798ZM79.8039 82.7151C79.8808 81.6468 79.5349 81.6929 78.7126 80.594C75.5233 76.3134 76.0152 76.8437 75.408 76.2596C75.2774 76.1808 75.132 76.1315 74.9809 76.1129C74.8291 76.095 74.676 76.1097 74.5307 76.1552C74.3853 76.2013 74.2514 76.2775 74.1374 76.3787C74.0241 76.4799 73.9331 76.6048 73.871 76.7437C73.871 76.9282 73.725 77.1049 73.6712 77.2894C72.9027 79.8178 73.0257 79.8793 72.7874 79.8869C69.0755 80.0791 70.82 79.6948 68.699 80.0253C68.161 80.1098 68.0534 81.0551 68.43 81.5623C71.3119 85.7891 71.3119 87.3492 72.5108 86.7651C73.7096 86.181 70.1207 81.6468 70.8201 81.7928C71.4092 81.8774 72.0068 81.8774 72.5953 81.7928C74.7779 81.6545 73.8633 81.6545 75.0238 78.788C75.9998 79.7179 77.1065 81.862 78.4667 83.0686C78.5737 83.1448 78.696 83.1954 78.8247 83.2184C78.9541 83.2408 79.086 83.2338 79.2122 83.1986C79.3383 83.1634 79.4549 83.1 79.5535 83.0135C79.6515 82.927 79.7296 82.8201 79.7809 82.6997L79.8039 82.7151ZM72.9642 73.662C73.0635 73.8484 73.2184 73.9982 73.408 74.0917C73.5969 74.1852 73.8108 74.2166 74.019 74.1814C74.2271 74.1468 74.4192 74.0476 74.5678 73.8977C74.7164 73.7478 74.8137 73.5551 74.847 73.3469C74.2322 71.2796 72.3033 69.1048 70.4358 66.9683C70.1053 66.5917 69.2753 66.5917 69.0678 66.9683C68.576 67.9289 69.0448 67.8214 72.9411 73.6467L72.9642 73.662ZM72.3033 75.2682C72.6491 74.8609 72.3033 73.3546 71.2735 73.6851C70.2437 74.0155 70.2744 74.1154 68.5299 75.2759C68.1764 75.5064 68.3839 75.4219 67.5155 74.0693C66.7399 72.8346 65.8849 71.6511 64.9565 70.5265C64.1879 69.758 63.3349 70.1884 63.3349 70.7033C63.3349 71.5717 63.7268 71.5794 64.5722 72.9012C68.2302 78.6343 66.6855 79.0493 71.3426 76.0675C71.7038 75.8574 72.0221 75.5807 72.2802 75.2528L72.3033 75.2682ZM65.5634 78.9263C65.7197 78.7419 65.8247 78.5203 65.8676 78.2827C65.9106 78.0457 65.8907 77.8011 65.8094 77.5737C65.525 76.5132 64.7182 76.9436 64.5645 76.9589C63.6269 77.0358 64.0573 77.7812 62.674 78.8495C62.3422 78.9673 61.9902 79.0173 61.6387 78.9974C61.2873 78.9769 60.9434 78.886 60.6275 78.731C60.3116 78.5754 60.0301 78.3582 59.7994 78.0918C59.5688 77.8261 59.3939 77.5167 59.2849 77.1818C58.793 75.8907 59.6614 74.223 60.0534 74.5074C60.1615 74.5599 60.2794 74.5894 60.3995 74.5932C60.5197 74.5977 60.6393 74.5765 60.7508 74.5317C60.8623 74.4869 60.9631 74.419 61.0469 74.3325C61.1306 74.2467 61.1953 74.1436 61.2369 74.0309C61.452 72.9089 60.1225 71.7945 58.524 72.8935C56.9255 73.9925 56.4567 77.7505 58.6086 79.9331C59.0031 80.3487 59.4769 80.6817 60.0021 80.911C60.5273 81.1409 61.0932 81.2626 61.6664 81.2696C62.2396 81.2773 62.8083 81.1691 63.3391 80.9526C63.8699 80.7361 64.3519 80.4159 64.7566 80.0099C65.0639 79.6641 65.256 79.2491 65.5404 78.9109L65.5634 78.9263Z" fill="#FFF59E"/>
<path d="M111.567 87.3874C111.036 87.4796 105.933 86.6804 105.026 86.6189C99.2089 86.25 97.3875 86.7496 88.4267 88.3557C84.8147 89.009 82.4861 89.4086 78.6743 91.3837C75.9077 92.8208 74.0633 93.7891 72.8106 95.4184C72.2983 96.0697 72.0049 96.867 71.9736 97.6951C71.9415 98.5231 72.1727 99.3403 72.6338 100.029C74.7395 103.173 80.0038 102.927 80.2113 103.457C81.0721 105.593 79.4428 105.855 77.5523 106.147C77.2449 106.193 76.9144 104.986 75.9231 105.301C74.5013 105.762 74.0633 105.432 73.5637 105.67C72.3495 106.254 71.312 106.669 71.5426 108.229C71.6809 109.175 72.4571 109.159 72.3111 109.544C72.1753 109.907 72.1279 110.297 72.1734 110.682C72.2188 111.066 72.3559 111.435 72.5724 111.757C72.6723 111.941 73.1641 112.226 73.0949 112.302C72.7337 112.748 72.9028 113.24 72.9566 113.724C73.0796 114.8 73.9019 114.746 73.8865 115.146C73.8404 116.245 74.4859 116.591 75.4927 117.121C76.4994 117.651 77.6906 117.121 78.2901 117.359C79.2814 117.736 83.8233 117.667 84.9991 116.145C85.1829 115.827 85.4481 115.565 85.7664 115.382C86.0847 115.2 86.4459 115.106 86.8128 115.108C87.1202 115.108 86.9819 115.223 87.2663 116.237C87.4737 116.952 87.8196 117.167 90.2865 117.006C94.6362 116.729 93.9369 118.481 93.983 108.36C93.976 107.456 93.7909 106.563 93.4374 105.732C93.1069 104.917 92.154 105.225 89.0799 105.163C88.2499 105.163 87.2509 105.048 86.9588 105.885C86.5746 107 86.6284 107.015 86.4055 107.061C85.4833 107.261 84.369 107 84.2844 106.047C84.2915 105.078 83.9988 104.13 83.4468 103.334C83.1547 102.896 82.9165 103.157 88.6496 101.92C90.8091 101.459 91.7236 100.929 93.8985 101.835C98.9937 103.956 100.4 104.84 104.658 105.263C104.819 105.263 104.873 105.332 104.865 105.494C104.281 113.463 104.704 112.956 104.266 113.179C82.7474 125.052 77.9365 129.617 75.3467 127.066C73.1257 124.875 70.0747 119.25 69.7442 118.658C51.6534 87.1492 47.9492 81.1164 40.3256 67.3831C38.6041 64.3552 38.558 64.6396 39.1575 64.555C40.0105 64.4397 40.341 65.3235 41.8857 65.2467C42.6542 65.2467 43.0538 65.1391 46.0356 63.9709C46.8041 63.6558 46.9501 63.1255 47.8262 62.9027C49.3095 62.5184 50.8081 60.9276 50.1318 59.552C49.9089 59.0755 50.7773 58.9218 50.2855 57.4924C50.2543 57.3077 50.1857 57.1313 50.084 56.9741C49.9822 56.8168 49.8494 56.682 49.6937 56.5778C49.4555 56.4549 50.6928 55.3636 49.2172 53.7113C48.9636 53.4269 50.078 52.2511 48.6716 51.1368C48.2035 50.8814 47.6833 50.7361 47.1506 50.7122C46.6179 50.6882 46.0867 50.7862 45.5976 50.9985C44.4986 51.4672 43.438 51.0523 43.1998 52.5355C43.1998 52.6584 43.1998 52.743 43.0384 52.7814C37.5513 54.3184 41.1325 50.8217 38.0585 48.324C37.825 48.124 37.5452 47.9854 37.2446 47.921C36.944 47.8565 36.6319 47.8683 36.337 47.9552C35.2304 48.2856 36.0604 49.3923 36.4907 51.2905C36.7904 52.62 36.1142 53.2502 36.7828 55.0562C37.3053 56.4549 36.4907 56.8084 35.0997 57.3617C34.8154 57.4847 34.7462 57.4462 34.6002 57.185C29.0823 47.3173 30.0583 49.4538 29.7048 48.6468C29.0054 47.0483 25.7162 43.7053 31.0958 39.7398C33.4013 38.0491 51.8071 28.7271 52.614 28.3351C52.9599 28.1584 52.8753 27.9586 53.5516 30.2487C53.7284 30.8635 51.6227 31.1556 51.1462 33.5764C50.6082 36.3199 52.9599 38.8253 56.1646 38.3257C56.8793 38.2105 56.1646 38.9252 57.2943 39.0943C58.2011 39.2556 57.594 39.8628 58.155 39.9473C58.8467 40.0088 58.4086 40.8465 58.985 40.8388C59.1156 40.8388 58.985 40.8388 64.3646 46.7563C67.262 49.9225 67.3311 49.8303 68.9757 53.4884C69.068 53.7136 69.1224 53.9525 69.1371 54.1955C69.1371 54.2723 59.0311 60.259 58.7621 59.7825C58.4931 59.306 57.9936 58.6451 57.7016 58.0534C57.4095 57.4616 56.9946 56.6701 56.6257 55.9861C56.4259 55.6018 56.887 55.9861 58.3471 55.4097C58.9619 55.1715 59.4999 54.8256 59.008 54.3799C58.2933 53.7344 57.6632 54.0187 55.496 52.0283C53.1904 49.9225 51.7764 48.3394 51.7149 49.4691C51.469 53.4961 56.08 61.4809 56.0877 61.4809C56.3106 61.919 45.1826 67.8135 44.4064 68.9432C44.1374 69.3351 47.3344 74.3228 50.5544 79.4257C53.6285 84.2289 55.934 88.6478 61.8976 98.4079C62.7123 99.7374 61.7286 99.1072 89.956 83.3528C92.5997 81.8772 92.3999 81.8157 92.8379 81.8618C93.0762 81.8618 93.3682 81.7619 93.5603 81.8618C93.7525 81.9618 93.7525 82.2845 93.9062 82.4536C95.3048 83.9906 96.0964 83.0761 96.1656 83.4373C96.2655 84.0214 96.765 84.2519 97.1723 84.567C97.3574 84.6906 97.5675 84.7726 97.7878 84.8072C98.0081 84.8417 98.2335 84.8283 98.4481 84.7668C98.9168 84.69 99.1013 85.6813 100.415 85.3355C101.73 84.9897 101.737 85.0665 102.79 83.7985C103.559 82.8993 103.72 83.3989 104.781 82.1231C105.553 81.3239 106.253 80.4574 106.871 79.5333C107.002 79.3258 107.055 79.3104 107.509 80.2557C108.539 82.3383 111.559 87.3721 111.567 87.3874ZM40.9558 39.6629C42.1316 41.2 42.0009 39.809 41.9241 36.7349C41.9241 36.2661 41.4784 36.2277 41.1556 36.7349C40.5485 37.6956 40.3333 38.1182 39.6186 39.1711C39.5033 39.3402 39.534 39.6629 39.9644 39.5938C40.2795 39.563 40.6791 39.2941 40.9558 39.6629ZM38.1814 41.3921C38.6502 41.4613 38.7655 41.0463 38.7501 40.7004C38.7348 40.3546 37.9278 38.8253 37.0671 39.2633C36.8519 39.3709 36.7828 39.809 36.8289 39.9857C36.8895 40.3278 37.0505 40.6442 37.2913 40.8946C37.5321 41.145 37.842 41.3182 38.1814 41.3921ZM36.5061 42.3527C36.9749 42.4142 37.0902 41.9992 37.0748 41.6611C37.0594 41.3229 36.2525 39.7859 35.3764 40.2163C35.1535 40.3239 35.0997 40.7619 35.1381 40.9848C35.2085 41.3211 35.3754 41.6296 35.6183 41.8725C35.8613 42.1155 36.1698 42.2823 36.5061 42.3527ZM35.2995 43.0367C35.3179 42.9134 35.2865 42.7878 35.2122 42.6877C35.138 42.5875 35.027 42.521 34.9038 42.5026C34.7804 42.4843 34.6549 42.5157 34.5547 42.5899C34.4546 42.6641 34.388 42.7751 34.3696 42.8984C34.2544 43.5977 35.2381 43.9128 35.2995 43.0367ZM34.7616 41.5765C34.7616 41.0693 33.7395 40.808 33.7241 41.5381C33.6857 42.1222 34.7078 42.345 34.7616 41.5765ZM33.0555 44.2356C33.0094 44.5122 33.824 45.0041 33.824 43.6131C33.824 42.737 33.1323 43.1827 33.0555 42.7754C33.0297 42.583 32.9726 42.396 32.8864 42.2221C32.8294 42.1356 32.7553 42.0615 32.6689 42.0043C32.5825 41.9472 32.4853 41.9081 32.3834 41.8894C32.2815 41.8707 32.1768 41.8729 32.0757 41.8957C31.9746 41.9186 31.8792 41.9616 31.7951 42.0223C31.6891 42.1661 31.6179 42.3326 31.5872 42.5087C31.5565 42.6847 31.5672 42.8655 31.6184 43.0367C31.6645 43.0905 31.7951 43.2058 31.8643 43.0982C31.9335 42.9906 32.0564 42.6448 32.1794 42.6909C32.2717 42.7286 32.3474 42.7983 32.3925 42.8872C32.4377 42.9761 32.4493 43.0783 32.4253 43.175C32.4253 43.3748 32.2716 43.4594 32.3792 43.59C32.4868 43.7207 32.7942 43.421 32.9633 43.6361C33.1323 43.8513 33.0785 43.9589 33.0324 44.2356H33.0555ZM31.3571 45.2961C31.8259 45.3653 31.9412 44.9503 31.9258 44.6045C31.9104 44.2586 31.1035 42.737 30.2274 43.1673C30.0045 43.2749 29.943 43.713 29.9891 43.8974C30.0515 44.2367 30.2123 44.5502 30.4514 44.7989C30.6905 45.0476 30.9974 45.2205 31.334 45.2961H31.3571Z" fill="#D8E9FF"/>
<path d="M104.442 114.508C104.442 115.784 104.711 115.861 104.304 116.083C103.689 116.406 87.9501 125.452 84.5149 127.327C72.5338 133.874 75.9076 134.589 63.0967 113.002C62.0131 111.188 48.2184 86.104 44.7447 80.6475C36.8214 68.1132 32.1796 58.407 29.2977 53.9266C29.2439 53.9266 26.9922 50.3146 26.9922 49.4999C26.9997 49.4671 26.9997 49.4329 26.9922 49.4C26.2851 48.2626 27.2073 45.7727 27.4072 46.2338C28.5983 48.962 28.5676 48.816 33.6782 57.4847C34.2546 58.4608 38.0587 65.4925 40.5948 69.8884C44.4834 76.6436 45.152 76.5668 55.0581 94.4039C55.8343 95.8948 60.1226 102.98 64.4262 110.666C66.9621 115.161 69.3829 120.21 71.4963 123.515C72.3417 124.829 73.0333 125.744 73.6789 126.589C75.654 129.225 76.9374 128.895 78.1747 128.533C80.4802 127.834 85.8598 124.737 104.212 114.339C104.381 114.247 104.435 114.27 104.442 114.508Z" fill="#D9D9D9"/>
<path d="M84.4841 40.3854C84.4841 40.3854 102.16 69.8116 101.906 70.1882C101.314 71.1258 100.154 71.7252 99.6007 70.9567C97.9253 68.6512 99.2779 69.9499 90.7628 55.3021C84.6685 44.8197 85.1527 45.6574 84.4457 45.9724C83.7386 46.2875 72.334 52.6508 72.3186 52.6585C71.7499 52.9966 72.3186 51.89 68.8449 47.3865C67.4847 45.6189 64.8871 43.0137 62.6969 40.5852C61.9975 39.8167 61.5441 39.1327 60.96 38.5333C60.376 37.9338 60.7218 37.8724 60.3683 37.7648C59.8841 37.6111 59.9763 37.4113 59.9302 36.9963C59.8841 36.5813 59.4077 36.9194 59.3385 36.7042C59.2693 36.489 59.154 36.4122 59.2309 36.1893C59.4244 35.6692 59.566 35.1312 59.6536 34.5831C59.7902 33.6335 59.5771 32.6665 59.0541 31.8621C58.531 31.0577 57.7336 30.4707 56.8101 30.2103C55.0656 29.78 54.7428 30.6176 54.5046 29.7876C54.397 29.4649 54.0896 28.4043 54.0896 28.3659C54.0896 27.6589 52.5526 28.3659 58.8466 25.1459C73.1102 17.8296 71.504 17.7374 80.1881 32.5466C80.2957 32.731 80.2957 32.8309 80.0882 32.977C77.3677 34.8675 78.0209 32.5005 75.8076 31.4399C74.5473 30.8636 74.0708 30.0182 72.9872 28.6272C71.9036 27.2362 69.8671 30.2872 72.3032 32.6004C73.1793 33.4381 73.6866 33.5995 73.7788 34.5063C73.871 35.4131 72.6414 36.2585 71.9881 36.8118C71.8652 36.904 71.4809 36.6735 71.1735 36.612C70.1591 36.4122 70.259 37.2576 68.7066 38.149C68.2346 38.6165 67.8516 39.166 67.5769 39.7706C67.4725 40.0269 67.4277 40.3035 67.4463 40.5796C67.4642 40.8557 67.5449 41.124 67.6819 41.3645C67.8183 41.6049 68.0079 41.8112 68.2365 41.9678C68.4645 42.1243 68.7252 42.2271 68.9986 42.2682C69.5289 42.322 68.7912 43.129 70.5818 44.2202C70.7816 44.3432 71.3503 44.2971 71.3503 44.4739C71.4169 44.9576 71.6468 45.4041 72.0016 45.7395C72.3564 46.0749 72.8156 46.2791 73.3023 46.3183C73.6404 46.3183 73.6712 47.3481 75.116 47.3404C75.5752 47.3904 76.0401 47.3385 76.4769 47.1884C76.9143 47.0383 77.3126 46.7937 77.6444 46.472C78.5666 45.7573 78.751 46.1953 79.581 45.6036C82.7857 43.298 83.0931 43.5209 83.7079 40.6928C83.729 40.6101 83.7604 40.5301 83.8001 40.4546C84.046 39.9089 84.1921 39.8935 84.4841 40.3854ZM71.7192 23.9316C72.3724 23.5858 71.9036 23.2861 71.2427 22.3562C71.0121 22.0257 71.2427 21.9796 69.0678 23.1247C68.1533 23.6012 67.7998 23.7164 67.9535 24.0238C68.2026 24.5402 68.6054 24.967 69.1062 25.2458C69.6135 25.0229 71.7038 23.9393 71.7192 23.9316ZM66.647 26.8981C67.3694 26.8981 67.4155 26.4139 66.9928 25.8452C66.0245 24.4542 66.0168 24.3082 65.5327 24.362C65.0485 24.4158 65.1407 25.2381 65.402 25.6146C66.2704 26.8212 66.4011 26.8981 66.647 26.8981ZM65.5019 27.5513C65.963 27.2593 64.9255 25.5224 64.2646 25.8606C63.6037 26.1987 64.403 27.1517 64.9102 27.5897C65.0011 27.644 65.1061 27.6694 65.2118 27.6626C65.3175 27.6557 65.4187 27.6169 65.5019 27.5513ZM65.3329 27.7357C65.2714 27.6896 65.3329 27.6896 65.233 27.7357C65.256 27.7818 65.2329 27.7742 65.2944 27.7357H65.3329ZM63.327 27.828C63.327 28.5042 64.3492 28.7655 64.3415 27.9893C64.3338 27.2131 63.2656 27.1209 63.2886 27.828H63.327Z" fill="#D8E9FF"/>
<path d="M55.0658 100.407C55.3732 100.806 61.4829 112.188 61.4675 112.173C54.1283 108.453 51.0004 109.168 46.8044 103.319C45.2673 101.129 47.0042 98.0781 50.3856 98.5238C55.5116 99.2001 54.036 99.0541 55.0658 100.407Z" fill="#FFC6A6"/>
<path d="M44.0606 81.4621C52.4451 95.1493 50.7236 92.8053 49.4863 92.0214C43.784 88.4017 44.6831 90.2231 38.5274 85.0357C36.7752 83.5524 35.4533 82.0308 35.4072 79.5408C35.4072 78.6033 35.876 78.1114 36.5754 77.4735C36.9366 77.1508 38.4121 77.1815 38.8809 77.1969C39.8077 77.3474 40.7185 77.5843 41.6014 77.9039C42.1932 78.0576 42.0933 78.2574 44.0606 81.4621Z" fill="#FFC6A6"/>
<path d="M72.7338 98.5998C72.3726 96.3865 72.5955 95.1031 76.5763 93.2202C81.9098 90.6841 84.3152 89.1779 85.7984 89.1087C87.2817 89.0395 94.2136 87.4948 95.1512 87.4948C96.0888 87.4948 105.319 87.0875 107.14 87.3642C108.961 87.6408 112.389 87.9021 112.389 87.9021L97.6489 61.8496C97.6489 61.8496 105.388 67.3676 106.802 68.7663C108.216 70.1649 112.589 74.0152 113.665 75.1603C114.741 76.3053 119.728 81.1546 121.542 86.3344C123.025 88.9627 126.253 92.9359 127.398 95.1569C128.61 97.9734 129.447 100.937 129.888 103.972C129.888 103.972 132.109 115.346 132.785 117.805C133.461 120.264 135.275 130.193 135.544 133.014C135.813 135.834 136.313 139.077 137.158 141.098C138.003 143.12 141.4 148.568 141.4 148.568C137.012 148.745 103.067 149.114 102.091 149.037C102.091 149.037 99.9313 143.719 99.3934 143.05C98.8554 142.382 94.2136 141.636 93.1992 141.098C92.1848 140.56 87.5506 135.642 86.8744 134.904C86.1981 134.166 81.5563 129.525 81.5563 129.525L105.05 116.199C105.05 116.199 105.05 106.3 104.98 104.817C103.026 104.404 101.095 103.891 99.1936 103.28C97.4414 102.604 92.1924 100.521 91.0474 100.721C89.9023 100.921 83.7081 102.204 82.1634 102.335C80.6187 102.465 73.4024 102.773 72.7338 98.5998Z" fill="#FFC6A6"/>
<path d="M87.4198 106.162C87.4198 106.162 86.9741 105.109 88.8646 105.439C88.8646 105.439 91.1317 105.486 91.7388 105.486C92.3459 105.486 93.4526 105.755 93.5218 106.546C93.6447 107.853 93.5218 110.781 93.5218 115.476C93.5218 115.891 93.5679 116.491 92.246 116.537C90.9242 116.583 88.4035 116.637 88.4035 116.637C88.4035 116.637 87.5581 117.167 87.804 115.453C88.1729 112.848 87.6503 108.36 87.4198 106.162Z" fill="#BED4FC"/>
<path d="M140.631 30.1257C136.996 32.2007 137.703 35.0672 132.677 33.9683C130.426 33.4841 129.903 33.4073 128.835 34.0989C128.045 34.5948 127.313 35.1773 126.652 35.8357C125.3 37.4419 125.307 37.8339 124.67 38.0337C124.032 38.2335 123.048 37.8031 122.272 37.7186C111.467 36.4967 114.587 44.4968 109.599 44.0665C108.841 43.9071 108.068 43.8273 107.294 43.8282C105.103 44.2893 103.866 45.2423 103.382 47.494C103.313 47.8168 103.474 47.9321 103.789 47.9167C104.558 47.9167 104.135 45.9263 106.533 45.1193C107.306 44.8334 108.157 44.8334 108.93 45.1193C109.935 45.3461 110.987 45.2105 111.901 44.7366C112.815 44.2627 113.532 43.4809 113.926 42.5295C116.885 36.5351 122.933 39.6168 124.685 39.271C125.01 39.2363 125.323 39.1248 125.596 38.9458C125.87 38.7667 126.098 38.5253 126.26 38.2412C127.023 37.0963 128.005 36.1141 129.15 35.3516C130.157 34.6907 130.479 34.7291 131.778 35.0058C137.45 36.2277 136.789 34.7675 140.877 31.4168C141.139 31.2016 141.792 31.6089 141.861 30.7866C141.915 30.095 141.123 29.8491 140.631 30.1257Z" fill="#000001"/>
<path d="M64.5416 76.9432C63.604 77.0277 64.0343 77.7655 62.651 78.8337C62.3193 78.9515 61.9672 79.0021 61.6158 78.9816C61.2642 78.9611 60.9204 78.8708 60.6045 78.7152C60.2886 78.5596 60.007 78.3425 59.7765 78.0767C59.5459 77.8103 59.3709 77.501 59.2619 77.166C58.7701 75.8749 59.6385 74.2073 60.0304 74.4916C60.1385 74.5441 60.2564 74.5736 60.3765 74.5774C60.4966 74.5819 60.6163 74.5608 60.7278 74.516C60.8393 74.4711 60.9401 74.4032 61.0238 74.3168C61.1075 74.231 61.1723 74.1279 61.2139 74.0151C61.4291 72.8931 60.0996 71.7788 58.5011 72.8777C56.9026 73.9767 56.4338 77.7347 58.5856 79.9173C58.98 80.3336 59.4539 80.666 59.9791 80.8952C60.5043 81.1251 61.0702 81.2468 61.6434 81.2545C62.2166 81.2615 62.7854 81.1533 63.3162 80.9375C63.847 80.721 64.3289 80.4002 64.7337 79.9941C65.0255 79.6637 65.2177 79.2256 65.502 78.9105C65.6583 78.7267 65.7633 78.5045 65.8062 78.2676C65.8491 78.03 65.8293 77.7853 65.7479 77.558C65.502 76.4974 64.7337 76.9278 64.5416 76.9432Z" fill="#000001"/>
<path d="M72.2803 75.2525C72.6261 74.8452 72.2803 73.3389 71.2505 73.6694C70.2207 73.9998 70.2514 74.0997 68.5069 75.2602C68.1534 75.4907 68.3609 75.4062 67.4924 74.0536C66.7169 72.8189 65.8619 71.6354 64.9336 70.5108C64.1651 69.7423 63.312 70.1803 63.312 70.6876C63.312 71.556 63.704 71.5637 64.5493 72.8855C68.2072 78.6186 66.6625 79.0336 71.3196 76.0518C71.6879 75.8487 72.0138 75.5772 72.2803 75.2525Z" fill="#000001"/>
<path d="M141.377 65.8461C140.609 65.5233 139.494 65.5848 138.303 65.2313C136.097 64.6011 135.098 63.2794 132.923 63.5023C131.746 63.7421 130.551 63.8835 129.35 63.925C127.659 63.7943 127.521 63.7098 124.969 61.6194C119.359 57.0084 119.682 61.3351 112.258 62.1574C110.083 62.3956 109.622 61.7193 108.17 60.6972C107.609 60.3053 107.263 61.0046 107.67 61.3812C108.969 62.5877 110.129 63.3793 112.081 63.1795C113.337 63.0904 114.585 62.9158 115.816 62.6569C119.659 61.6502 119.659 58.8144 124.232 62.5109C127.229 64.8931 127.744 65.6617 132.555 64.7625C135.436 64.2245 134.737 66.1689 141.008 66.9143C141.008 66.9143 141.008 66.9143 141.123 66.9143C141.731 66.8605 142.046 66.092 141.377 65.8461Z" fill="#000001"/>
<path d="M75.3851 76.2441C75.2544 76.166 75.1084 76.116 74.9573 76.0981C74.8061 76.0802 74.6531 76.0943 74.5077 76.1404C74.3623 76.1858 74.2285 76.2621 74.1145 76.3632C74.0011 76.4651 73.9102 76.5893 73.8481 76.7283C73.8481 76.9127 73.702 77.0895 73.6483 77.2739C72.8797 79.8023 73.0027 79.8638 72.7645 79.8715C69.0526 80.0636 70.7971 79.6794 68.676 80.0098C68.138 80.0944 68.0304 81.0396 68.407 81.5468C71.2889 85.7736 71.2889 87.3337 72.4878 86.7496C73.6867 86.1656 70.0977 81.6314 70.7971 81.7774C71.3856 81.8619 71.9838 81.8619 72.5723 81.7774C74.7549 81.6391 73.8404 81.6391 75.0008 78.7725C75.9768 79.7024 77.0835 81.8466 78.4437 83.0531C78.5513 83.1351 78.6769 83.1908 78.8094 83.2158C78.9426 83.2414 79.0797 83.2356 79.2097 83.1991C79.3397 83.1626 79.4601 83.0967 79.5606 83.0057C79.6612 82.9154 79.7387 82.8027 79.7886 82.6765C79.8655 81.6083 79.5197 81.6544 78.6974 80.5555C75.4927 76.2979 75.9922 76.8512 75.3851 76.2441Z" fill="#000001"/>
<path d="M86.1828 77.4582C85.3374 77.5197 85.2452 77.6888 83.1626 79.2335C82.5324 79.6946 82.7937 79.9559 81.4104 78.2344C81.3181 78.1191 81.2874 78.0269 81.4795 77.927C81.9176 77.7042 84.177 76.39 84.3153 75.6215C84.3153 75.4998 84.3 75.3781 84.2692 75.2603C84.2692 75.1642 84.2487 75.0695 84.2084 74.9824C84.168 74.8953 84.1098 74.8178 84.0361 74.7556C83.9631 74.6935 83.8773 74.6481 83.7851 74.6224C83.6922 74.5968 83.5955 74.5917 83.5007 74.6071C82.2557 74.6071 80.4267 77.0586 79.9656 76.4438C79.32 75.5216 79.0357 75.2603 79.1971 75.1911C80.02 74.812 80.7943 74.3349 81.5026 73.7694C82.932 72.9548 82.5016 73.1546 82.494 72.4476C82.4773 72.3419 82.4382 72.2407 82.38 72.1504C82.3217 72.0607 82.2448 71.9839 82.1552 71.925C82.0655 71.8667 81.9643 71.8276 81.8587 71.8103C81.753 71.793 81.6448 71.7982 81.541 71.8251C80.7924 72.0338 80.1148 72.4431 79.5813 73.0086C78.1211 73.8923 77.491 74.0614 77.3219 75.0682C77.1682 75.9443 77.6139 76.0288 78.0904 76.8204C79.0043 78.228 80.0104 79.5736 81.103 80.8474C82.0252 82.1999 83.6314 81.1855 86.5594 79.172C87.1511 78.7416 87.0205 77.4044 86.1828 77.4582Z" fill="#000001"/>
<path d="M76.5533 71.0637C78.5668 72.2395 81.6408 70.5718 81.6408 69.0117C81.6408 66.7907 79.8425 67.8436 79.8271 67.9973C79.7676 68.2336 79.6561 68.4539 79.5018 68.6422C79.3468 68.8311 79.1528 68.9829 78.9325 69.0879C78.7122 69.193 78.472 69.248 78.228 69.2493C77.984 69.2506 77.7432 69.1987 77.5216 69.0963C76.8857 68.7997 76.3695 68.2938 76.0608 67.663C75.7515 67.0328 75.6682 66.3149 75.8232 65.6303C75.9846 65.1154 76.1229 65.4305 76.5917 65.3229C77.4678 65.1384 77.3141 64.0856 76.9375 63.686C74.3707 60.9962 71.5119 68.1587 76.5533 71.0637Z" fill="#000001"/>
<path d="M84.5381 67.8827C84.8762 67.6521 84.7456 67.314 84.7686 67.0373C84.8071 66.5685 84.6303 66.507 83.8157 64.9777C83.6927 64.7471 84.6611 64.6011 85.199 64.824C86.6361 65.4311 87.5045 66.0459 88.273 65.8231C89.372 65.5003 88.9954 64.8855 88.9724 64.5781C88.9628 64.3949 88.8872 64.2214 88.7604 64.0888C88.6336 63.9564 88.4633 63.8737 88.2807 63.8556C87.274 63.7019 85.6909 62.4954 84.2461 62.895C83.7081 63.0487 84.3921 62.7566 85.0146 59.0524C85.1836 57.9919 83.3085 57.7613 83.0779 59.0524C82.9268 60.1827 82.6533 61.2932 82.2633 62.3647L82.1019 62.1649C80.8416 59.9823 81.1259 60.1437 80.0731 60.2359C79.9731 60.2418 79.8784 60.2815 79.8047 60.3486C79.7304 60.4157 79.6818 60.5061 79.6657 60.6048C79.489 61.2273 79.6657 61.6269 80.4343 63.0179C82.9703 67.5138 83.1778 68.8433 84.5381 67.8827Z" fill="#000001"/>
<path d="M51.2694 115.277C48.4028 119.688 49.9475 118.182 47.9878 125.552C45.8053 133.767 43.6535 133.836 43.8994 135.127C44.03 135.773 44.6679 135.819 44.7985 135.074C45.0363 134.508 45.3463 133.976 45.7207 133.491C48.9024 129.064 50.0782 119.657 50.2242 119.058C50.6629 117.816 51.265 116.637 52.0148 115.554C52.23 115.146 51.669 114.724 51.2694 115.277Z" fill="#000001"/>
<path d="M23.6339 67.4444C30.4736 66.5376 28.9443 67.4444 30.343 68.1514C30.7042 68.3282 31.0346 67.9362 30.7349 67.5059C28.8059 64.7777 23.8183 67.0986 20.8519 66.5222C17.5934 65.892 17.6395 64.5087 14.3964 64.2167C14.2478 64.1994 14.0982 64.2384 13.9763 64.3249C13.8543 64.4113 13.7686 64.5394 13.7355 64.6855C13.6817 65.0697 14.8268 65.2772 15.357 65.3694C17.6088 65.8152 18.7308 68.0899 23.6339 67.4444Z" fill="#000001"/>
<path d="M82.3478 19.2975C81.9713 20.5656 81.0875 22.2179 81.1413 22.7942C81.1951 23.3706 81.9098 23.509 82.0174 22.8403C82.125 22.1717 84.3229 18.5905 83.1394 17.2225C82.1711 16.0928 81.6792 15.8623 81.6946 15.1476C81.7407 13.1648 81.8252 13.4261 83.4468 9.06098C83.8618 7.95433 82.7936 7.86211 82.4554 8.66136C78.0519 19.1515 83.3546 15.9161 82.3478 19.2975Z" fill="#000001"/>
<path d="M89.9484 113.647C89.1798 113.524 88.8878 115.069 89.8946 115.092C89.9893 115.095 90.0841 115.08 90.1731 115.047C90.2622 115.014 90.3435 114.964 90.4133 114.899C90.4831 114.834 90.5388 114.757 90.5785 114.671C90.6182 114.585 90.6407 114.491 90.6439 114.396C90.6477 114.302 90.6323 114.207 90.599 114.118C90.5664 114.029 90.5158 113.947 90.4511 113.878C90.387 113.808 90.3089 113.752 90.2231 113.712C90.1366 113.673 90.0431 113.65 89.9484 113.647Z" fill="#000001"/>
<path d="M93.0762 36.6349C92.847 36.0617 92.7913 35.4338 92.9149 34.829C93.0609 33.584 93.814 33.2382 95.0897 32.4543C95.3357 32.3006 101.123 30.41 100.562 27.605C99.8391 23.9623 97.7027 21.2494 104.742 19.4434C105.926 19.1437 107.394 18.4367 107.601 17.6682C107.97 16.2925 108.846 13.6335 110.214 12.9265C111.036 12.5038 109.691 10.5364 107.801 13.9486C105.772 17.599 107.947 17.1072 103.643 18.5135C101.807 19.113 101.076 19.3435 100.331 20.0505C98.4635 21.8104 97.8641 22.1793 99.4779 27.8279C99.5932 28.2275 99.2551 28.6502 98.94 28.9652C96.3194 31.6089 91.0551 31.2708 92.0234 36.3199C92.3308 37.9184 93.3145 37.1267 93.0762 36.6349Z" fill="#000001"/>
<path d="M73.3562 20.1201C73.3562 20.1201 73.3562 20.1201 73.3562 20.1665C73.3562 20.2128 73.3794 20.151 73.3562 20.1201Z" fill="#000001"/>
<path d="M117.415 139.485C116.17 138.478 115.955 139.346 116.4 139.815C117.066 140.42 117.808 140.937 118.606 141.352C120.912 142.328 121.588 142.697 121.58 141.875C121.788 141.129 119.375 141.083 117.415 139.485Z" fill="#000001"/>
<path d="M35.3766 40.2167C35.1537 40.3243 35.0999 40.7624 35.1383 40.9852C35.202 41.3286 35.3659 41.6454 35.6093 41.8957C35.8527 42.1459 36.1649 42.3185 36.5063 42.3916C36.9751 42.4531 37.0904 42.0381 37.075 41.6999C37.0596 41.3618 36.2527 39.7864 35.3766 40.2167ZM36.2143 41.6461C35.9883 41.5159 35.8205 41.3043 35.7455 41.0544C35.7455 40.9852 35.6763 40.8546 35.7455 40.8085C35.9683 40.7086 36.391 41.2773 36.3987 41.4386C36.4064 41.6 36.3833 41.7307 36.2143 41.6461Z" fill="#000001"/>
<path d="M77.1526 44.2203C76.7146 43.6209 76.2304 43.7976 75.9538 43.1137C75.7463 42.6218 75.6233 41.9455 75.07 41.6689C74.117 41.177 74.4091 40.324 73.6867 39.517C73.3344 39.151 73.0085 38.7607 72.7107 38.3489C72.6882 38.3006 72.6505 38.261 72.6031 38.2361C72.5563 38.2112 72.5019 38.2022 72.4494 38.2106C72.3949 38.2183 72.345 38.2435 72.3059 38.2823C72.2675 38.3211 72.2419 38.3715 72.2342 38.4258C72.0728 39.371 73.3101 39.6246 73.5868 40.6006C74.263 42.9984 74.6089 41.154 75.4312 43.544C75.6925 44.3125 76.3227 44.228 76.7991 44.8428C76.9682 45.0657 77.5676 45.4038 77.7751 45.0273C77.9826 44.6507 77.3371 44.4739 77.1526 44.2203Z" fill="#000001"/>
<path d="M69.0449 66.976C68.5684 67.929 69.0449 67.8291 72.9412 73.6467C73.0405 73.833 73.1955 73.9835 73.385 74.0764C73.5739 74.1699 73.7878 74.2013 73.996 74.166C74.2041 74.1315 74.3963 74.0322 74.5448 73.8823C74.6934 73.7325 74.7908 73.5397 74.8241 73.3316C74.2092 71.2643 72.2803 69.0894 70.4128 66.9529C70.1131 66.5764 69.2524 66.5764 69.0449 66.976Z" fill="#000001"/>
<path d="M38.9503 92.6282C38.1818 92.3438 33.7552 93.3198 31.5573 94.3342C30.3553 94.9113 29.4221 95.9295 28.952 97.1777C27.2383 99.9905 24.0028 98.1922 20.022 100.083C19.8252 100.18 19.6664 100.34 19.5704 100.537C19.4745 100.735 19.4467 100.959 19.4917 101.174C19.5455 101.443 20.2218 101.689 20.3217 101.112C20.3678 100.89 20.3908 100.774 21.8971 100.444C26.5697 99.3987 28.245 100.39 29.8589 97.27C30.0468 96.7378 30.3514 96.2549 30.7504 95.8559C31.1493 95.4569 31.6325 95.1521 32.1644 94.9644C33.8705 94.2651 37.421 93.3121 38.789 93.4274C39.4499 93.4658 39.5498 92.8357 38.9503 92.6282Z" fill="#000001"/>
<path d="M37.0675 39.2633C36.8523 39.3709 36.7832 39.8089 36.8293 39.9857C36.8909 40.3298 37.0542 40.6477 37.2979 40.8983C37.5417 41.1489 37.8549 41.3209 38.1972 41.392C38.666 41.4612 38.7813 41.0462 38.7659 40.7004C38.7505 40.3546 37.9282 38.8252 37.0675 39.2633ZM37.9052 40.685C37.792 40.6221 37.6922 40.5375 37.6117 40.436C37.5313 40.3344 37.4717 40.218 37.4364 40.0933C37.4364 40.0241 37.3595 39.8934 37.4364 39.855C37.6593 39.7474 38.0819 40.3238 38.0896 40.4852C38.0973 40.6466 38.0512 40.7772 37.8898 40.685H37.9052Z" fill="#000001"/>
<path d="M69.1065 25.2389C69.6137 25.0237 71.7041 23.9401 71.7194 23.9324C72.3727 23.5866 71.9039 23.2868 71.243 22.3569C71.0124 22.0265 71.243 21.9804 69.0681 23.1255C68.1612 23.6019 67.8 23.7173 67.9537 24.0247C68.2041 24.5382 68.607 24.9621 69.1065 25.2389Z" fill="#000001"/>
<path d="M30.2047 43.1671C29.9818 43.2747 29.9204 43.7127 29.9665 43.8972C30.0305 44.2395 30.1947 44.5551 30.4382 44.8041C30.6817 45.0531 30.9936 45.2243 31.3344 45.2959C31.8032 45.365 31.9185 44.95 31.9031 44.6042C31.8878 44.2584 31.0731 42.729 30.2047 43.1671ZM30.5736 44.0048C30.5736 43.9279 30.4967 43.7973 30.5736 43.7588C30.7965 43.6512 31.2115 44.2276 31.2191 44.389C31.2653 44.8962 30.7042 44.4428 30.5736 44.0048Z" fill="#000001"/>
<path d="M77.706 113.425C78.1594 111.734 77.1834 111.734 77.4601 110.819C78.0134 109.036 77.0989 108.791 77.4063 107.745C77.4524 107.599 77.3295 107.246 77.1066 107.43H77.1758C77.1758 107.492 76.4072 107.661 76.9068 109.267C77.2833 110.543 76.2151 110.912 77.0682 112.256C77.1911 112.62 77.1911 113.015 77.0682 113.379C76.8299 114.331 77.2295 114.6 77.4832 115.331C77.6138 115.692 77.7829 116.468 78.2517 116.199C78.7205 115.93 78.1518 115.43 78.1364 115.192C78.0749 114.378 77.4601 114.324 77.706 113.425Z" fill="#000001"/>
<path d="M63.289 27.8287C63.289 28.505 64.3111 28.7663 64.3034 27.9901C64.2957 27.2139 63.2659 27.1217 63.289 27.8287Z" fill="#000001"/>
<path d="M98.1023 78.9572C97.5336 77.8044 96.5653 78.0119 96.0197 77.0666C95.9198 76.9052 95.7814 76.9513 95.6431 77.0666C95.5048 77.1819 95.5739 77.3125 95.6431 77.4432C96.0197 78.4884 97.0879 78.3193 97.5644 79.303C98.3867 80.9706 98.9093 79.9101 99.7008 81.1628C100.208 81.9313 100.116 81.8775 102.291 82.7843C102.406 82.6767 102.575 82.5922 102.613 82.4692C102.625 82.4283 102.628 82.3847 102.623 82.3418C102.617 82.2995 102.604 82.2585 102.582 82.2208C102.561 82.1836 102.532 82.1509 102.498 82.1253C102.464 82.0991 102.425 82.0805 102.383 82.0696C101.561 81.7776 101.714 81.6316 101.038 81.4779C100.608 81.3856 100.416 81.0859 100.177 80.7094C99.3166 79.3337 98.7325 80.2482 98.1023 78.9572Z" fill="#000001"/>
<path d="M34.3696 42.937C34.3081 43.6056 35.238 43.89 35.2995 43.0062C35.3172 42.884 35.2859 42.7598 35.2125 42.6605C35.1392 42.5612 35.0296 42.4949 34.9076 42.4759C34.8409 42.4647 34.7726 42.4682 34.7074 42.4862C34.6423 42.5043 34.5819 42.5365 34.5306 42.5805C34.4793 42.6245 34.4382 42.6792 34.4104 42.7408C34.3826 42.8024 34.3687 42.8694 34.3696 42.937Z" fill="#000001"/>
<path d="M33.002 42.7755C32.9762 42.5831 32.9192 42.3961 32.8329 42.2222C32.7758 42.1357 32.7018 42.0616 32.6154 42.0045C32.529 41.9473 32.4318 41.9082 32.3299 41.8895C32.228 41.8709 32.1233 41.873 32.0222 41.8958C31.9211 41.9186 31.8256 41.9617 31.7416 42.0224C31.6445 42.1707 31.5829 42.3393 31.5616 42.5152C31.5403 42.6911 31.5598 42.8696 31.6187 43.0368C31.6648 43.0906 31.7954 43.2059 31.8646 43.0983C31.9337 42.9907 32.0567 42.6449 32.1797 42.691C32.272 42.7287 32.3477 42.7983 32.3928 42.8872C32.438 42.9762 32.4496 43.0783 32.4256 43.1752C32.4256 43.375 32.2719 43.4595 32.3795 43.5902C32.4871 43.7208 32.7945 43.4211 32.9635 43.6363C33.1326 43.8514 33.0788 43.9514 33.0327 44.228C32.9866 44.5047 33.8012 44.9965 33.8012 43.6055C33.7628 42.7371 33.0865 43.1828 33.002 42.7755Z" fill="#000001"/>
<path d="M136.543 137.71C136.598 137.679 136.598 137.686 136.543 137.71V137.71Z" fill="#000001"/>
<path d="M34.7619 41.5768C34.7619 41.0695 33.7398 40.8083 33.7244 41.5383C33.686 42.1224 34.7081 42.3453 34.7619 41.5768Z" fill="#000001"/>
<path d="M139.64 144.695C135.259 136.949 137.334 140.614 135.352 127.496C134.483 121.701 131.279 109.374 130.195 103.288C129.365 98.6077 128.712 95.9486 127.059 93.5048C119.374 82.1462 122.133 86.1886 119.505 81.2547C117.764 78.2915 115.461 75.6971 112.727 73.6157C107.094 69.0047 109.653 69.9807 102.736 64.4551C101.507 63.4714 98.1943 61.75 97.8331 61.189C97.3105 60.3743 94.4363 54.7258 90.8704 49.1003C74.4781 23.2016 76.2687 15.9776 65.5096 20.8192C55.8572 25.1689 53.7207 27.2285 53.4747 26.4985C53.0521 25.3073 52.4373 23.5781 51.8532 21.5185C49.1019 11.989 49.5861 14.9017 48.6562 11.6432C46.8502 5.27994 49.0251 10.7901 46.4198 4.01959C46.2969 3.80441 45.2901 3.73524 45.513 4.55754C46.2544 6.30916 46.8232 8.12891 47.2114 9.99088C48.2258 14.5481 47.6879 11.2205 50.4392 20.1967C51.4152 23.3783 51.5381 24.1776 52.5064 26.9519C52.8369 27.8741 35.2303 35.2595 29.1514 40.1318C27.576 41.3922 25.2013 46.9331 25.9006 49.4154C26.5693 51.7747 41.071 76.5976 41.1325 76.7436C40.656 76.7436 37.2438 75.2066 35.384 77.1586C34.4542 78.1346 33.9469 79.272 34.6847 81.4776C35.4225 83.6832 36.8442 84.8898 38.1891 86.0886C43.7762 90.9149 45.6667 90.6305 47.9569 92.2367C49.0264 92.9867 50.1696 93.6252 51.369 94.1426C51.8301 94.2656 52.2606 95.6796 53.4902 97.6163C53.5517 97.7277 53.6056 97.8436 53.6516 97.9621L50.493 97.5394C48.418 97.2551 46.0125 98.1466 45.4054 100.122C45.1717 100.802 45.1084 101.529 45.221 102.239C45.3335 102.948 45.6185 103.62 46.051 104.195C46.7856 105.233 47.6365 106.185 48.587 107.031C54.7812 111.496 61.4443 111.995 62.8737 114.523C66.7162 121.286 68.3147 123.968 69.1446 125.498C70.2379 127.556 71.5629 129.482 73.0948 131.239C73.7109 131.793 74.4749 132.155 75.2934 132.284C76.1118 132.412 76.9495 132.3 77.7058 131.961C81.8712 130.286 80.7799 129.556 81.8558 130.485C85.4985 133.559 87.7426 137.686 90.9934 140.222C94.8359 143.235 98.3787 142.943 98.9551 143.496C99.8082 144.265 99.7851 144.595 101.653 149.314C101.891 149.929 101.96 149.959 102.544 149.644C102.836 149.483 103.159 149.783 101.007 144.864C100.239 143.051 100.046 143.604 101.975 143.788C102.398 143.788 102.913 143.573 102.744 143.174C102.575 142.774 102.413 142.697 100.285 142.405C90.5246 140.868 91.4545 138.708 84.9145 131.923C84.2055 131.163 83.4594 130.44 82.6781 129.755C82.4245 129.532 82.4937 129.517 82.8087 129.34C106.41 115.968 104.696 116.89 104.696 117.259C104.88 126.681 106.932 129.171 113.027 135.327C114.656 136.979 119.551 139.047 120.035 139.008C120.32 139.008 120.512 138.87 120.558 138.639C120.681 137.971 120.435 138.086 118.721 137.325C116.162 136.188 113.972 135.404 110.198 130.816C107.27 127.258 107.309 126.397 106.356 123.53C105.657 121.356 105.879 119.38 105.703 116.967C104.98 107.146 106.471 104.571 105.019 104.218C102.052 103.449 104.05 104.986 93.1606 100.429C91.0472 99.5452 87.512 101.39 82.2631 102.043C79.8653 102.343 74.9546 101.551 73.6404 99.5837C71.9881 97.1321 74.555 94.5192 74.4089 95.5951C73.894 99.5606 83.2929 100.045 82.5551 92.4442C82.5013 91.8986 81.6867 91.7987 81.7405 92.5057C82.0095 96.2944 79.7347 97.9467 76.4839 97.2858C74.6549 96.9169 75.1313 94.6114 75.4695 94.4116C82.9317 89.9005 84.1844 90.3001 90.0173 89.1627C93.3219 88.5248 93.0914 88.3481 92.7071 89.1627C92.3677 89.8556 92.1839 90.6139 92.1679 91.3849C92.1519 92.156 92.3049 92.9213 92.6149 93.6277C92.7456 93.8967 93.2451 93.9198 93.2835 93.5432C93.3527 92.9053 92.369 91.6526 93.5371 89.1012C93.9521 88.179 93.7907 88.3865 94.6822 88.1944C95.1126 88.1098 94.9666 88.0714 94.9973 89.7314C94.9973 90.3616 95.6582 90.5614 95.6582 89.6238C95.6582 88.3096 95.5352 88.0022 95.9964 87.9484C102.375 87.1799 105.71 87.7486 112.98 88.594C116.285 88.9782 117.115 89.447 119.935 90.5153C120.047 90.5684 120.174 90.5748 120.29 90.5338C120.406 90.4928 120.501 90.407 120.554 90.2962C120.607 90.1854 120.614 90.0574 120.573 89.9414C120.532 89.8255 120.446 89.7307 120.335 89.6776C118.742 88.9289 117.083 88.332 115.378 87.8946C110.905 86.9724 114.256 89.0935 109.23 81.4392C108.83 80.8397 99.1165 63.2793 99.1011 63.2793C99.0858 63.2793 101.084 64.532 102.175 65.3927C106.133 68.4667 106.971 69.8347 108.661 71.5408C111.789 74.6686 115.094 76.7282 117.061 79.6101C121.065 85.4662 118.783 83.4527 123.255 89.8543C129.711 99.1302 127.213 96.7171 130.656 110.504C136.935 135.634 133.999 136.218 136.858 141.875C138.059 144.237 139.411 146.52 140.908 148.707C141.154 149.053 141.876 148.814 141.746 148.361C141.384 147.224 141.938 148.761 139.64 144.695ZM81.6406 35.3517C82.509 36.9502 83.5619 38.7408 83.7079 39.0098C84.0384 39.6015 83.0854 39.3402 82.8395 40.8619C82.8107 41.3316 82.6781 41.789 82.4507 42.2011C82.2234 42.6131 81.907 42.9695 81.5253 43.2443C78.9739 45.1117 78.9508 45.1425 78.336 45.2808C76.922 45.5882 76.7221 46.7102 75.1851 46.6718C74.1169 46.3337 74.4166 46.449 74.1937 46.2184C74.8624 45.8111 75.7922 45.6651 75.4848 45.1809C75.2773 44.8428 74.9161 45.1809 74.2168 45.4499C73.2485 45.8034 72.4492 45.5805 72.1034 44.6276C71.8959 44.0666 72.8719 43.8207 73.3714 43.4441C73.5789 43.2904 73.7019 43.1136 73.6097 42.8754C73.5175 42.6371 73.31 42.7524 72.9872 42.8754C72.2187 43.2212 70.9506 44.0589 70.2974 42.9753C69.6442 41.8917 69.7979 42.4066 72.2341 40.6698C72.4953 40.4853 72.4031 39.8321 71.1581 40.5622C70.6503 40.9321 70.0874 41.22 69.4905 41.4152C69.2862 41.4809 69.0672 41.4837 68.8616 41.4232C68.656 41.3626 68.4728 41.2415 68.3371 41.0757C68.2013 40.9099 68.1181 40.707 68.0995 40.4935C68.0803 40.2799 68.1257 40.0655 68.2301 39.8782C68.7911 39.0098 68.8065 38.8561 68.9986 38.7254C70.5357 37.8263 70.5356 37.1884 71.0429 37.2806C70.7162 37.8574 70.2648 38.3537 69.721 38.7331C69.6467 38.7608 69.5865 38.8168 69.5532 38.8887C69.5199 38.9608 69.5167 39.043 69.5443 39.1174C69.7057 39.6092 70.6202 39.0405 70.9968 38.5103C71.7653 37.3882 73.1178 37.1807 74.0708 35.6437C75.0852 33.9684 73.6174 33.0077 72.6337 32.0548C71.8652 31.3324 71.5117 29.9337 72.1803 29.1268C72.3186 28.95 72.4031 28.9193 73.5098 30.464C74.6164 32.0087 75.8153 32.1009 76.3379 32.6696C76.6274 32.9925 76.8842 33.3425 77.1064 33.7148C77.8749 34.8291 79.5733 34.2988 80.265 33.5918C80.7261 33.1845 80.6569 33.538 81.6406 35.3517ZM53.9128 31.6628C54.3355 32.9539 54.374 33.0077 54.1511 33.1999C52.7447 34.5524 54.52 36.9732 56.5027 35.7974C57.2713 35.3209 57.617 32.7234 55.811 32.6619C55.4344 32.6619 55.1732 32.5313 55.1194 32.0932C55.0502 31.4169 54.5276 30.9942 55.1194 30.8252C56.8331 30.3717 58.962 31.7243 59.1157 34.1298C58.6699 36.1432 58.4317 36.4353 58.8928 37.2038C59.0619 37.4804 58.8928 37.5573 58.0167 38.3258C57.8169 38.5026 57.7246 38.418 57.0406 37.8032C56.787 37.5727 55.5036 37.8724 54.4892 37.6265C53.8091 37.5158 53.181 37.1939 52.6941 36.7063C52.2073 36.2187 51.8862 35.5902 51.7765 34.9099C51.6668 34.2297 51.774 33.5321 52.083 32.9162C52.392 32.3003 52.887 31.7973 53.4978 31.4784C53.8052 31.3631 53.8129 31.3631 53.9128 31.6628ZM55.5113 33.8147C55.4498 33.1384 56.349 33.4612 56.3336 34.3603C56.3336 35.5899 55.2807 35.5822 54.6198 34.9982C54.3432 34.7522 54.4354 34.4141 54.4584 34.1067C54.4584 34.1067 54.6121 34.0145 54.689 34.0145C54.7658 34.0145 54.8043 34.099 54.8581 34.1528C54.9173 34.2069 54.9917 34.2415 55.0711 34.252C55.1506 34.2625 55.2314 34.2484 55.3026 34.2115C55.3738 34.1746 55.432 34.1169 55.4693 34.0459C55.5066 33.975 55.5213 33.8943 55.5113 33.8147ZM72.5568 53.5423C75.4925 52.0053 82.9778 47.5633 83.7694 47.0945C85.3064 46.1877 84.9221 47.5249 89.3257 54.5721C89.6715 55.1331 98.0098 69.9038 97.6025 69.8193C95.9579 69.4581 95.7735 69.0508 93.9829 67.6905C93.3066 67.168 92.3152 67.9903 92.5457 69.3198C93.2143 73.1623 98.5478 71.1873 94.9896 75.8598C94.8897 75.9904 94.3902 75.8598 94.0367 75.8598C93.0914 75.9597 93.3373 76.8204 92.1384 77.881C91.8528 78.2748 91.6504 78.7218 91.5422 79.1964C91.4333 79.6703 91.4224 80.1615 91.5083 80.6399C91.808 81.5775 94.4132 79.8714 73.6174 91.5451C66.939 95.2954 67.769 95.2262 62.9582 97.6931C62.3972 97.9775 62.5125 97.6931 60.5144 94.2348C43.5149 64.6857 43.415 70.8414 49.0789 67.1295C52.7139 64.7472 55.6497 62.8643 69.0217 55.4482C69.7133 55.0639 69.16 59.2907 67.3079 60.9584C67.0697 61.1813 67.2387 60.9584 66.7162 60.1899C66.501 59.8517 66.1475 60.359 66.2551 60.528C66.9006 61.5578 65.1638 61.7884 65.7094 62.9949C65.8708 63.3561 65.5557 64.4244 66.5855 64.2784C66.7559 64.2438 66.9313 64.2489 67.0991 64.2931C67.2669 64.3366 67.4226 64.4186 67.5538 64.532C68.3223 65.1468 72.2879 61.9498 72.5953 56.3012C72.7028 54.403 71.942 53.8651 72.5568 53.5423ZM54.8043 55.625C57.0253 57.0236 54.8966 54.8949 58.2396 60.382C56.7026 61.3042 56.7026 61.3965 56.595 61.1505C56.595 61.1505 55.5036 59.1447 54.7966 57.6769C53.5516 55.087 52.2144 50.8909 52.2682 49.9918C52.6601 50.23 55.6958 53.6345 57.9398 54.5567C58.0597 54.5935 58.17 54.6565 58.2626 54.7412C57.1964 55.1536 56.038 55.2678 54.9119 55.0716C54.5584 55.0947 54.4969 55.4328 54.8043 55.625ZM69.1908 62.7721C68.8372 63.1179 68.0534 64.0248 67.6537 63.725C67.0312 63.2947 66.4779 63.725 66.5548 63.3946C66.6854 62.7644 65.9784 62.7029 66.4395 62.3878C67.8843 61.4118 68.0841 61.3888 68.8834 60.0823C69.5571 58.8449 69.9189 57.462 69.9375 56.0533C69.9561 54.6446 69.6314 53.2525 68.9909 51.9976C66.8161 47.448 59.4307 40.9387 59.9225 40.5622C61.7593 39.1251 59.8458 38.687 65.817 44.8966C69.2522 48.4701 71.4348 51.1907 71.9651 55.7863C72.0515 57.0838 71.8472 58.3843 71.3676 59.5928C70.8872 60.8013 70.1437 61.8875 69.1908 62.7721ZM59.4922 40.0934C59.3154 40.201 59.2155 40.0934 59.1233 39.9781C59.0311 39.8628 58.985 39.9627 60.1224 38.9406C60.3298 38.7562 60.2146 38.7331 60.6296 39.0482C60.3316 39.4757 59.9433 39.8325 59.4922 40.0934ZM58.7237 39.2557C58.4931 39.3787 58.447 39.1865 58.3548 39.079C58.2626 38.9714 58.1858 39.0789 59.3385 38.0491C59.5153 37.8954 59.5307 37.98 59.7458 38.2105C59.5153 38.6468 59.1663 39.0091 58.739 39.2557H58.7237ZM49.5016 92.0215C43.7992 88.4019 44.6984 90.2232 38.5426 85.0358C36.7904 83.5526 35.4686 82.0309 35.4225 79.5409C35.4225 78.6034 35.8913 78.1115 36.5906 77.4737C36.9518 77.1509 38.4273 77.1816 38.8961 77.197C39.823 77.3475 40.7338 77.5845 41.6167 77.904C42.2007 78.0577 42.1008 78.2575 44.0682 81.4622C52.4373 95.1417 50.7235 92.8054 49.4862 92.0215H49.5016ZM46.8195 103.319C45.2824 101.128 47.0193 98.0774 50.4007 98.5231C55.5267 99.1994 54.0435 99.0534 55.081 100.406C55.3884 100.806 61.498 112.187 61.4826 112.172C54.128 108.452 51.0002 109.167 46.8041 103.319H46.8195ZM104.304 116.045C103.697 116.368 87.9501 125.413 84.5148 127.288C72.5338 133.836 75.9075 134.551 63.0965 112.963C62.0129 111.15 48.2181 86.0656 44.7445 80.6092C36.8212 68.1132 32.1794 58.407 29.2975 53.9265C29.2437 53.9265 26.9919 50.3146 26.9919 49.4999C26.9995 49.4671 26.9995 49.4329 26.9919 49.4C26.2849 48.2626 27.2071 45.7727 27.4069 46.2338C28.5981 48.962 28.5674 48.816 33.678 57.4847C34.2543 58.4607 38.0585 65.4926 40.5945 69.8885C44.4832 76.6437 45.1519 76.5668 55.0579 94.4039C55.8649 95.8564 59.7612 102.658 63.9572 110.128C68.8142 118.766 70.2129 121.924 73.725 126.597C75.7 129.233 76.9834 128.902 78.2207 128.541C80.5263 127.842 85.9058 124.745 104.258 114.347C104.427 114.247 104.481 114.27 104.488 114.485C104.465 115.761 104.696 115.845 104.304 116.045ZM35.8528 57.869C35.9681 57.869 38.5349 56.6778 37.5282 54.9871C36.7213 53.6268 37.7126 52.8199 37.0901 50.7065C36.4676 48.5931 36.3216 48.6546 36.7827 48.6238C37.5512 48.5777 38.7732 49.3923 38.9038 51.3674C39.1651 55.3329 42.9385 53.4885 43.9837 53.158C44.4525 53.012 46.8656 52.8891 46.366 52.1667C46.1585 51.8669 45.9434 52.0898 45.7128 52.1667C45.1599 52.3158 44.5848 52.3652 44.0144 52.3127C44.0144 52.0898 44.3295 51.9976 44.4294 51.9899C45.0988 51.9353 45.7538 51.7663 46.366 51.4904C49.2864 51.1215 48.9713 52.8967 48.3334 53.3963C47.4266 54.1648 45.4976 54.6951 45.805 55.1331C45.928 55.3175 46.0356 55.379 47.342 54.8334C48.2643 54.4491 48.6255 53.9112 48.9405 54.5106C49.2556 55.11 49.4631 55.8939 48.7177 56.3935C47.6879 57.0851 46.9885 57.2849 47.1807 57.6538C47.5572 58.4223 49.1865 56.4473 49.6168 57.5693C50.3853 59.6904 47.6495 59.8133 48.026 60.5127C48.4026 61.212 49.6245 59.4829 49.6553 60.2283C49.5824 60.6952 49.3679 61.1283 49.0408 61.4692C48.7136 61.8101 48.2897 62.0423 47.8262 62.1342C46.3584 62.4954 46.6888 63.0103 45.6206 63.3715C44.9212 63.6174 42.9846 64.5243 41.8165 64.5243C40.3486 64.5243 40.0028 63.4484 38.5426 63.9556C38.2198 64.0632 38.4888 64.1708 35.3072 58.4992C35.0843 58.1072 35.1612 58.2379 35.8298 57.869C35.8759 57.8844 35.8682 57.8921 35.8528 57.869ZM81.0489 104.164C80.9336 103.349 80.7338 103.203 81.0489 103.18C82.4091 103.096 82.4706 103.034 82.5859 103.249C83.1392 104.379 83.5311 104.602 83.5158 105.716C83.5158 107.53 84.9759 108.022 86.7358 107.684C87.3506 107.561 87.3353 107.561 87.3737 108.199C87.3737 108.199 87.6657 112.041 87.4505 112.041C87.4505 114.293 87.5274 114.293 87.2738 114.347C86.9837 114.401 86.6916 114.439 86.3977 114.462C84.5071 114.462 84.8069 116.268 82.5551 116.606C77.9979 117.29 78.7126 116.283 77.0987 116.606C76.0843 116.806 74.7471 116.376 74.5242 115.346C75.5924 115.476 76.1611 115.646 76.1842 115.177C76.1842 114.485 73.456 115.223 73.5252 113.132C73.5636 112.08 74.9315 112.856 75.6309 112.502C75.846 112.402 76.0459 111.98 75.1006 111.903C73.9939 111.818 72.9565 111.741 72.8873 110.635C72.7874 109.205 73.0103 109.866 75.7538 109.62C75.8057 109.627 75.8582 109.616 75.903 109.588C75.9479 109.561 75.9818 109.52 75.9997 109.471C76.0177 109.421 76.0183 109.367 76.0017 109.318C75.9844 109.268 75.9517 109.226 75.9075 109.198C75.139 108.69 73.602 109.305 72.6414 108.675C72.4953 108.578 72.3762 108.447 72.293 108.293C72.2104 108.138 72.1668 107.966 72.1668 107.791C72.1668 107.617 72.2104 107.444 72.293 107.29C72.3762 107.136 72.4953 107.004 72.6414 106.908C73.7096 106.27 73.9171 106.254 74.2245 106.262C75.6386 106.262 75.6539 105.847 76.4224 106.016C76.9143 106.124 75.1467 106.7 74.6164 106.662C74.2322 106.662 74.0708 107.13 74.5165 107.246C75.0763 107.332 75.6488 107.25 76.1611 107.007C76.8835 106.685 81.4792 107.184 81.0489 104.164ZM107.539 80.2864C108.523 82.3383 111.559 87.3721 111.566 87.3874C111.036 87.4796 105.933 86.6804 105.026 86.6189C99.2087 86.25 97.3874 86.7496 88.4265 88.3558C84.8145 89.009 82.486 89.4086 78.6742 91.3837C75.9075 92.8208 74.0631 93.7891 72.8104 95.4184C72.2981 96.0697 72.0054 96.867 71.9734 97.6951C71.9414 98.5238 72.1726 99.3403 72.6337 100.029C74.7394 103.173 80.0037 102.927 80.2112 103.457C81.0719 105.593 79.4427 105.855 77.5521 106.147C77.2447 106.193 76.9143 104.986 75.9229 105.301C74.5012 105.762 74.0631 105.432 73.5636 105.67C72.3493 106.254 71.3118 106.669 71.5424 108.229C71.6807 109.175 72.4569 109.159 72.3109 109.544C72.1751 109.907 72.1284 110.297 72.1739 110.682C72.2193 111.067 72.3557 111.435 72.5722 111.757C72.6721 111.941 73.164 112.226 73.0948 112.302C72.7336 112.748 72.9027 113.24 72.9565 113.724C73.0794 114.8 73.9017 114.746 73.8863 115.146C73.8402 116.245 74.4858 116.591 75.4925 117.121C76.4993 117.651 77.6905 117.121 78.2899 117.359C79.2813 117.736 83.8232 117.667 84.999 116.145C85.1834 115.827 85.4479 115.565 85.7662 115.382C86.0845 115.2 86.4457 115.106 86.8127 115.108C87.1201 115.108 86.9817 115.223 87.2661 116.237C87.4736 116.952 87.8194 117.167 90.2863 117.006C94.6361 116.729 93.9367 118.481 93.9829 108.36C93.9765 107.456 93.7907 106.563 93.4372 105.732C93.1068 104.917 92.1538 105.225 89.0798 105.163C88.2498 105.163 87.2507 105.048 86.9587 105.885C86.5744 107 86.6282 107.015 86.4054 107.061C85.4832 107.261 84.3688 107 84.2843 106.047C84.2913 105.078 83.9986 104.131 83.4466 103.334C83.1546 102.896 82.9163 103.157 88.6494 101.92C90.8089 101.459 91.7234 100.929 93.8983 101.835C98.9935 103.956 100.4 104.84 104.657 105.263C104.819 105.263 104.873 105.332 104.865 105.494C104.281 113.463 104.704 112.956 104.266 113.179C82.7473 125.052 77.9364 129.617 75.3465 127.066C73.1255 124.875 70.0745 119.25 69.7441 118.658C63.2041 106.508 58.3702 98.1235 54.3739 91.1839C52.4757 87.8946 50.6774 84.6054 49.1173 81.9618C45.8588 76.5207 43.2075 72.3708 40.3486 67.3601C38.6041 64.3552 38.558 64.6396 39.1574 64.555C40.0105 64.4397 40.3409 65.3235 41.8856 65.2467C42.6541 65.2467 43.0538 65.1391 46.0356 63.971C46.8041 63.6559 46.9501 63.1256 47.8262 62.9027C49.3094 62.5185 50.808 60.9277 50.1317 59.552C49.9089 59.0756 50.7773 58.9218 50.2854 57.4924C50.2543 57.3077 50.1857 57.1314 50.084 56.9741C49.9822 56.8168 49.8494 56.682 49.6937 56.5779C49.4554 56.4549 50.6927 55.3637 49.2172 53.7114C48.9636 53.427 50.0779 52.2512 48.6716 51.1369C48.2035 50.8815 47.6833 50.7362 47.1506 50.7123C46.6179 50.6883 46.0867 50.7862 45.5975 50.9985C44.4986 51.4673 43.438 51.0523 43.1998 52.5355C43.1998 52.6585 43.1998 52.743 43.0384 52.7815C37.5512 54.3185 41.1325 50.8218 38.0585 48.3241C37.825 48.124 37.5453 47.9855 37.2446 47.921C36.944 47.8566 36.632 47.8684 36.337 47.9552C35.2303 48.2857 36.0603 49.3923 36.4907 51.2906C36.7904 52.6201 36.1141 53.2503 36.7827 55.0563C37.3053 56.4549 36.4907 56.8085 35.0997 57.3618C34.8154 57.4847 34.7462 57.4463 34.6002 57.185C29.0823 47.3174 30.0583 49.4538 29.7048 48.6469C29.0054 47.0484 25.7162 43.7054 31.0958 39.7399C33.4013 38.0491 51.8071 28.7271 52.6141 28.3352C52.9599 28.1584 52.8753 27.9586 53.5516 30.2488C53.7284 30.8636 51.6226 31.1556 51.1462 33.5764C50.6082 36.32 52.9598 38.8253 56.1645 38.3258C56.8792 38.2105 56.1645 38.9253 57.2942 39.0943C58.2011 39.2557 57.594 39.8628 58.155 39.9474C58.8467 40.0088 58.4086 40.8465 58.985 40.8388C59.1156 40.8388 58.985 40.8388 64.3645 46.7564C67.2618 49.9226 67.331 49.8304 68.9756 53.4885C69.0678 53.7137 69.1229 53.9525 69.137 54.1955C69.137 54.2724 59.0311 60.2591 58.7622 59.7826C58.4932 59.3061 57.9936 58.6452 57.7016 58.0534C57.4095 57.4617 56.9945 56.6701 56.6256 55.9861C56.4258 55.6019 56.887 55.9861 58.3472 55.4098C58.962 55.1715 59.4999 54.8257 59.0081 54.38C58.2934 53.7344 57.6632 54.0188 55.496 52.0283C53.1905 49.9226 51.7763 48.3395 51.7149 49.4692C51.4689 53.4962 56.08 61.481 56.0877 61.481C56.3105 61.919 45.1825 67.8135 44.4063 68.9432C44.1374 69.3351 47.3344 74.3228 50.5545 79.4257C53.6285 84.2289 55.934 88.6478 61.8976 98.4078C62.7122 99.7374 61.7285 99.1072 89.9559 83.3528C92.5995 81.8772 92.3997 81.8157 92.8378 81.8618C93.076 81.8618 93.368 81.7619 93.5602 81.8618C93.7523 81.9618 93.7523 82.2845 93.906 82.4536C95.3047 83.9906 96.0963 83.0761 96.1654 83.4373C96.2653 84.0214 96.7649 84.2519 97.1722 84.567C97.3579 84.6906 97.568 84.7726 97.7883 84.8072C98.0086 84.8417 98.2334 84.8283 98.4479 84.7668C98.9167 84.69 99.1011 85.6813 100.415 85.3355C101.729 84.9897 101.737 85.0665 102.79 83.7985C103.558 82.8993 103.72 83.3989 104.78 82.1231C105.553 81.3239 106.253 80.4574 106.871 79.5333C107.001 79.3565 107.086 79.3411 107.539 80.2864ZM93.2528 115.453C93.4065 116.452 91.5006 116.16 91.4929 116.137C90.8627 116.191 88.0192 116.522 88.1038 116.137C88.3958 114.662 88.1652 109.797 88.0192 107.63C87.8809 105.678 87.6965 105.816 88.1038 105.809C88.5239 105.8 88.9434 105.833 89.3564 105.909C91.3392 106.254 92.7456 105.317 92.9992 106.477C93.1574 107.02 93.2425 107.58 93.2528 108.145C93.1682 110.919 93.2528 115.446 93.2528 115.453ZM105.626 76.9741C106.679 78.8262 107.309 78.3113 103.866 82.1616C103.374 82.7149 102.79 82.5381 102.106 83.5526C101.848 83.9817 101.457 84.3147 100.992 84.5023C100.528 84.6893 100.015 84.7201 99.5315 84.59C98.9859 84.421 100.953 83.7754 100.454 83.1991C100.085 82.7764 99.7774 83.714 98.371 84.129C98.0893 84.1539 97.8062 84.0944 97.5583 83.9573C97.3105 83.8203 97.1088 83.6128 96.98 83.3604C96.811 82.9839 97.0569 82.907 97.8869 82.0463C98.4172 81.5006 98.0713 81.0395 97.4949 81.4853C96.0655 82.5919 95.5506 83.2836 94.4209 81.6697C94.2134 81.3854 94.6591 81.4084 96.2192 79.564C96.4267 79.3104 96.2192 78.9799 95.9349 79.1644C94.6438 79.9867 94.7898 80.2787 93.8522 80.8628C93.687 80.996 93.4859 81.078 93.2746 81.0985C93.0626 81.1183 92.85 81.0754 92.6623 80.9755C92.4747 80.8756 92.321 80.7232 92.2191 80.5362C92.1179 80.3492 92.0738 80.1372 92.0923 79.9252C92.4458 78.7724 92.4458 78.6264 92.7994 78.2806C93.7062 77.4045 93.76 76.6129 94.2365 76.5822C94.084 77.2348 93.7632 77.8361 93.3066 78.3267C93.0376 78.5496 93.3066 79.3027 94.029 78.5111C94.7514 77.7196 94.5208 77.4276 95.1202 76.8051C96.7418 75.099 96.7341 74.415 96.957 73.6772C96.4882 70.8799 93.7907 72.0249 93.3066 69.3813C93.2662 69.104 93.2848 68.8209 93.3604 68.5513C93.4295 68.2362 93.5218 68.2362 93.76 68.4283C98.1251 71.902 96.4421 69.3736 99.3317 71.7098C100.377 72.5552 101.337 71.8097 102.206 71.0566C102.606 70.7031 104.227 74.4995 105.626 76.9741ZM101.906 70.1882C101.314 71.1258 100.154 71.7252 99.6007 70.9567C97.9253 68.6512 99.2779 69.95 90.7628 55.3022C84.6685 44.8197 85.1527 45.6574 84.4457 45.9725C83.7386 46.2876 72.334 52.6508 72.3186 52.6585C71.7499 52.9966 72.3186 51.89 68.8449 47.3865C67.4847 45.619 64.8871 43.0137 62.6969 40.5852C61.9975 39.8167 61.5441 39.1327 60.96 38.5333C60.376 37.9339 60.7218 37.8724 60.3683 37.7648C59.8841 37.6111 59.9763 37.4113 59.9302 36.9963C59.8841 36.5813 59.4077 36.9194 59.3385 36.7043C59.2694 36.4891 59.154 36.4122 59.2309 36.1894C59.4245 35.6693 59.5661 35.1312 59.6536 34.5832C59.7902 33.6335 59.5772 32.6665 59.0541 31.8621C58.531 31.0577 57.7336 30.4708 56.8101 30.2104C55.0656 29.78 54.7429 30.6177 54.5046 29.7877C54.397 29.4649 54.0896 28.4044 54.0896 28.3659C54.0896 27.6589 52.5525 28.3659 58.8466 25.1459C73.1102 17.8297 71.504 17.7375 80.1881 32.5466C80.2957 32.7311 80.2957 32.831 80.0882 32.977C77.3677 34.8675 78.0209 32.5005 75.8076 31.44C74.5473 30.8636 74.0708 30.0182 72.9872 28.6272C71.9036 27.2362 69.8671 30.2872 72.3032 32.6004C73.1793 33.4381 73.6865 33.5995 73.7788 34.5063C73.871 35.4132 72.6414 36.2585 71.9881 36.8119C71.8652 36.9041 71.4809 36.6735 71.1735 36.612C70.1591 36.4122 70.259 37.2576 68.7066 38.1491C68.2346 38.6166 67.8516 39.166 67.5769 39.7706C67.4725 40.0269 67.4277 40.3035 67.4462 40.5796C67.4642 40.8557 67.5449 41.124 67.6819 41.3645C67.8183 41.6049 68.0079 41.8112 68.2365 41.9678C68.4645 42.1243 68.7252 42.2271 68.9986 42.2683C69.5289 42.3221 68.7911 43.129 70.5818 44.2203C70.7816 44.3432 71.3503 44.2971 71.3503 44.4739C71.4169 44.9577 71.6468 45.4042 72.0016 45.7396C72.357 46.0749 72.8156 46.2792 73.3023 46.3183C73.6404 46.3183 73.6712 47.3481 75.116 47.3404C75.5751 47.3904 76.0401 47.3386 76.4769 47.1884C76.9143 47.0383 77.3126 46.7938 77.6444 46.472C78.5666 45.7573 78.751 46.1953 79.581 45.6036C82.7857 43.2981 83.0931 43.5209 83.7079 40.6928C83.729 40.6101 83.7604 40.5302 83.8001 40.4546C84.0845 39.9474 84.2382 39.932 84.5225 40.4546C84.4918 40.4008 102.144 69.8116 101.906 70.1882Z" fill="#000001"/>
<path d="M41.1405 36.7583C40.5257 37.7189 40.3182 38.1416 39.6035 39.1944C39.4882 39.3635 39.5189 39.6863 39.9493 39.6171C40.2567 39.5633 40.6563 39.2943 40.933 39.6632C42.1088 41.2003 41.9781 39.8092 41.9013 36.7352C41.909 36.2664 41.4786 36.228 41.1405 36.7583Z" fill="#000001"/>
<path d="M97.7104 95.2955C98.0869 95.4185 98.2406 95.1725 98.3406 94.7729C98.8555 92.7671 99.5779 90.5154 98.6941 89.0168C98.6326 88.9412 98.5474 88.89 98.452 88.8701C98.3572 88.8503 98.2579 88.8644 98.1715 88.9092C98.1004 88.9732 98.0524 89.0597 98.0357 89.1545C98.0184 89.2492 98.0344 89.3466 98.0793 89.4318C99.0322 90.9457 97.134 95.1264 97.7104 95.2955Z" fill="#000001"/>
<path d="M64.2265 25.8606C63.627 26.168 64.3648 27.1517 64.872 27.5897C64.9587 27.6506 65.0622 27.6832 65.1679 27.6832C65.2735 27.6832 65.3773 27.6506 65.4638 27.5897C65.9249 27.2593 64.8874 25.5224 64.2265 25.8606Z" fill="#000001"/>
<path d="M65.5022 24.3774C65.0488 24.4619 65.1102 25.2535 65.3715 25.6301C66.2707 26.8213 66.4013 26.8981 66.6473 26.8981C67.3697 26.8981 67.4158 26.4139 66.9931 25.8452C66.0248 24.4696 66.0171 24.2852 65.5022 24.3774Z" fill="#000001"/>
<path d="M65.1946 27.736C65.2564 27.7823 65.2332 27.736 65.295 27.736C65.2332 27.6665 65.2564 27.6665 65.1946 27.736Z" fill="#000001"/>
<path d="M44.9905 56.916C45.6668 57.5846 45.0366 58.2225 45.5669 58.9602C46.0972 59.698 46.2739 59.7287 46.2739 61.8037C46.2739 62.3724 46.9118 62.3801 46.9579 61.8498C47.004 61.3196 46.8811 60.8123 46.9041 60.4972C46.9425 60.0054 46.9041 59.7287 46.2278 58.7988C45.736 58.1302 46.3815 57.4693 45.6976 56.7853C44.5679 55.648 45.2518 54.8257 44.3373 53.9034C44.076 53.6345 43.5688 53.8496 43.9069 54.2493C44.5141 55.0562 43.9838 55.9246 44.9905 56.916Z" fill="#000001"/>
</svg>
