<svg width="154" height="154" viewBox="0 0 154 154" fill="none" xmlns="http://www.w3.org/2000/svg">
<path d="M84.5881 106.695L85.9399 75.8161C85.9506 75.5452 86.0681 75.2896 86.2666 75.1051C86.4651 74.9205 86.7286 74.8219 86.9995 74.8308L102.948 75.2234C103.084 75.2276 103.217 75.2585 103.341 75.3143C103.465 75.3702 103.577 75.45 103.67 75.549C103.763 75.6481 103.835 75.7645 103.883 75.8916C103.931 76.0188 103.954 76.1541 103.949 76.2899L102.673 107.353C102.661 107.625 102.543 107.882 102.342 108.066C102.142 108.251 101.877 108.348 101.605 108.338L85.5641 107.77C85.2922 107.757 85.0366 107.636 84.8537 107.434C84.6707 107.233 84.5751 106.967 84.5881 106.695Z" fill="white"/>
<path d="M101.588 108.723L85.5484 108.156C85.1739 108.138 84.8218 107.972 84.5694 107.695C84.3171 107.418 84.1852 107.051 84.2027 106.677L85.5545 75.8021C85.5612 75.6177 85.6043 75.4364 85.6811 75.2686C85.758 75.1009 85.8673 74.9499 86.0026 74.8244C86.1379 74.6989 86.2967 74.6013 86.4698 74.5373C86.6429 74.4732 86.8269 74.444 87.0113 74.4511L102.96 74.8429C103.146 74.8483 103.33 74.8904 103.5 74.9669C103.67 75.0433 103.823 75.1526 103.951 75.2884C104.079 75.4243 104.179 75.584 104.245 75.7585C104.31 75.933 104.341 76.1187 104.335 76.3051L103.058 107.372C103.05 107.557 103.006 107.739 102.928 107.907C102.85 108.075 102.74 108.227 102.603 108.352C102.467 108.478 102.307 108.575 102.133 108.639C101.958 108.703 101.773 108.731 101.588 108.723ZM84.971 106.723C84.9656 106.892 85.0267 107.057 85.1414 107.182C85.2561 107.306 85.4152 107.381 85.5844 107.39L101.619 107.957C101.79 107.965 101.956 107.904 102.082 107.789C102.208 107.674 102.283 107.514 102.291 107.344L103.568 76.2906C103.572 76.2046 103.558 76.1188 103.528 76.0381C103.498 75.9575 103.452 75.8835 103.394 75.8205C103.335 75.7575 103.265 75.7068 103.186 75.6711C103.108 75.6355 103.023 75.6156 102.937 75.6128L86.9891 75.221C86.9047 75.2174 86.8204 75.2305 86.7411 75.2596C86.6618 75.2888 86.589 75.3333 86.527 75.3907C86.465 75.4481 86.415 75.5171 86.3798 75.5939C86.3446 75.6707 86.325 75.7538 86.322 75.8382L84.971 106.723Z" fill="#4B1010"/>
<path d="M101.912 76.779L88.2007 76.4117C88.1508 76.4096 88.101 76.4175 88.0541 76.4348C88.0073 76.4521 87.9643 76.4785 87.9278 76.5126C87.8912 76.5466 87.8617 76.5875 87.841 76.6329C87.8204 76.6784 87.8089 76.7275 87.8073 76.7774L86.497 105.511C86.4947 105.561 86.5024 105.611 86.5196 105.659C86.5368 105.706 86.5632 105.75 86.5972 105.787C86.6313 105.824 86.6723 105.854 86.718 105.875C86.7637 105.897 86.8131 105.909 86.8635 105.911L100.9 106.52C101.207 106.52 101.246 106.295 101.261 106.109C101.344 105.063 101.464 100.205 102.285 77.1754C102.287 77.1248 102.279 77.0744 102.261 77.0271C102.243 76.9798 102.216 76.9365 102.181 76.8996C102.147 76.8628 102.105 76.8331 102.059 76.8124C102.013 76.7917 101.963 76.7804 101.912 76.779Z" fill="#4B1010"/>
<path d="M98.5728 80.767L89.9944 80.6006C89.9441 80.5996 89.8944 80.5886 89.8483 80.5685C89.8022 80.5483 89.7605 80.5192 89.7256 80.4829C89.6907 80.4465 89.6633 80.4037 89.645 80.3568C89.6266 80.3099 89.6177 80.2599 89.6187 80.2095C89.6197 80.1592 89.6306 80.1095 89.6508 80.0634C89.671 80.0173 89.7001 79.9756 89.7364 79.9407C89.7728 79.9058 89.8156 79.8784 89.8625 79.8601C89.9094 79.8417 89.9594 79.8328 90.0098 79.8338L98.5805 80.0002C98.6822 80.0012 98.7793 80.0426 98.8505 80.1152C98.9216 80.1878 98.961 80.2857 98.96 80.3874C98.959 80.4891 98.9177 80.5862 98.845 80.6574C98.7724 80.7286 98.6745 80.768 98.5728 80.767Z" fill="white"/>
<path d="M98.6563 83.0019L89.92 82.8486C89.8183 82.8468 89.7215 82.8046 89.6509 82.7314C89.5803 82.6582 89.5417 82.56 89.5435 82.4583C89.5453 82.3566 89.5875 82.2599 89.6607 82.1893C89.7339 82.1187 89.8321 82.08 89.9338 82.0818L98.6625 82.2406C98.7128 82.241 98.7626 82.2513 98.8089 82.2709C98.8553 82.2906 98.8973 82.3191 98.9327 82.355C98.968 82.3909 98.9959 82.4334 99.0148 82.4801C99.0337 82.5267 99.0432 82.5767 99.0428 82.627C99.0424 82.6774 99.0321 82.7271 99.0124 82.7735C98.9928 82.8198 98.9642 82.8619 98.9283 82.8972C98.8924 82.9325 98.8499 82.9604 98.8033 82.9793C98.7566 82.9982 98.7067 83.0077 98.6563 83.0073V83.0019Z" fill="white"/>
<path d="M98.4975 85.5745L89.8217 85.0892C89.7202 85.0834 89.6252 85.0377 89.5575 84.9619C89.4898 84.8861 89.4549 84.7866 89.4606 84.6851C89.4663 84.5836 89.5121 84.4886 89.5878 84.4209C89.6636 84.3532 89.7632 84.3183 89.8646 84.324L98.5182 84.8085C98.6198 84.8113 98.7163 84.8543 98.7862 84.9281C98.8562 85.002 98.8939 85.1006 98.8912 85.2023C98.8884 85.3039 98.8454 85.4004 98.7716 85.4703C98.6977 85.5403 98.5991 85.578 98.4975 85.5753V85.5745Z" fill="white"/>
<path d="M98.1723 87.6515L89.6706 87.3341C89.6203 87.3323 89.5707 87.3206 89.5249 87.2997C89.4791 87.2788 89.4378 87.249 89.4035 87.2121C89.3692 87.1752 89.3425 87.1319 89.3249 87.0847C89.3073 87.0375 89.2992 86.9873 89.301 86.9369C89.3014 86.8861 89.3122 86.8359 89.3328 86.7894C89.3533 86.7429 89.3831 86.7011 89.4204 86.6666C89.4576 86.632 89.5016 86.6055 89.5495 86.5886C89.5974 86.5716 89.6483 86.5647 89.699 86.5681L98.1861 86.8856C98.2878 86.8874 98.3846 86.9295 98.4552 87.0027C98.5258 87.0759 98.5644 87.1742 98.5626 87.2758C98.5608 87.3775 98.5186 87.4743 98.4454 87.5449C98.3722 87.6155 98.274 87.6541 98.1723 87.6523V87.6515Z" fill="white"/>
<path d="M99.2985 90.2139L89.6658 89.7378C89.5641 89.7328 89.4686 89.6876 89.4002 89.6122C89.3319 89.5368 89.2963 89.4373 89.3012 89.3356C89.3062 89.234 89.3514 89.1384 89.4268 89.07C89.5022 89.0017 89.6017 88.9661 89.7034 88.971L99.3169 89.4464C99.4186 89.4489 99.5151 89.4916 99.5853 89.5652C99.6555 89.6388 99.6935 89.7373 99.6911 89.839C99.6886 89.9407 99.6459 90.0372 99.5723 90.1074C99.4987 90.1776 99.4002 90.2156 99.2985 90.2132V90.2139Z" fill="white"/>
<path d="M99.457 92.8593L89.5789 92.2995C89.5286 92.2967 89.4793 92.2839 89.4339 92.262C89.3885 92.2401 89.3478 92.2094 89.3143 92.1718C89.2807 92.1342 89.2549 92.0903 89.2382 92.0427C89.2216 91.9951 89.2145 91.9447 89.2174 91.8943C89.2203 91.844 89.233 91.7947 89.255 91.7493C89.2769 91.7039 89.3075 91.6632 89.3452 91.6296C89.3828 91.5961 89.4267 91.5702 89.4743 91.5536C89.5219 91.537 89.5723 91.5299 89.6226 91.5328L99.4784 92.0918C99.5288 92.0932 99.5784 92.1045 99.6243 92.125C99.6703 92.1456 99.7118 92.175 99.7464 92.2116C99.781 92.2482 99.808 92.2913 99.826 92.3383C99.844 92.3854 99.8525 92.4355 99.8511 92.4859C99.8497 92.5362 99.8384 92.5858 99.8178 92.6318C99.7972 92.6777 99.7678 92.7192 99.7312 92.7538C99.6946 92.7884 99.6515 92.8155 99.6045 92.8334C99.5574 92.8514 99.5073 92.8599 99.457 92.8585V92.8593Z" fill="white"/>
<path d="M100.417 95.188L89.1837 94.7034C89.082 94.699 88.9862 94.6544 88.9174 94.5794C88.8486 94.5044 88.8124 94.4052 88.8168 94.3035C88.8211 94.2018 88.8657 94.1061 88.9407 94.0373C89.0157 93.9685 89.1149 93.9323 89.2166 93.9366L100.433 94.4212C100.535 94.4234 100.632 94.4658 100.702 94.5392C100.773 94.6126 100.811 94.711 100.809 94.8126C100.807 94.9143 100.764 95.011 100.691 95.0814C100.617 95.1518 100.519 95.1901 100.417 95.188Z" fill="white"/>
<path d="M94.9668 97.1102L89.1088 96.8672C89.0072 96.863 88.9115 96.8187 88.8426 96.7439C88.7737 96.6691 88.7374 96.57 88.7415 96.4685C88.7424 96.4177 88.7535 96.3677 88.7743 96.3213C88.7951 96.275 88.825 96.2334 88.8624 96.1991C88.8998 96.1647 88.9438 96.1383 88.9917 96.1215C89.0395 96.1047 89.0904 96.0978 89.141 96.1012L94.9829 96.3435C95.0332 96.3446 95.0829 96.3555 95.129 96.3758C95.1751 96.396 95.2167 96.4251 95.2516 96.4615C95.2864 96.4978 95.3138 96.5407 95.3321 96.5876C95.3504 96.6345 95.3593 96.6846 95.3582 96.7349C95.3571 96.7853 95.3462 96.8349 95.3259 96.881C95.3057 96.9271 95.2766 96.9688 95.2402 97.0036C95.2039 97.0385 95.161 97.0659 95.1141 97.0841C95.0672 97.1024 95.0171 97.1113 94.9668 97.1102Z" fill="white"/>
<path d="M97.2961 99.3521L88.9439 99.0263C88.8422 99.0223 88.7463 98.9781 88.6772 98.9034C88.6081 98.8287 88.5715 98.7296 88.5755 98.6279C88.5795 98.5263 88.6237 98.4303 88.6984 98.3612C88.7731 98.2921 88.8721 98.2555 88.9738 98.2595L97.3107 98.5854C97.4124 98.5873 97.5091 98.6296 97.5796 98.7028C97.6502 98.7761 97.6887 98.8744 97.6868 98.976C97.6848 99.0777 97.6426 99.1745 97.5693 99.245C97.4961 99.3155 97.3978 99.3541 97.2961 99.3521Z" fill="white"/>
<path d="M96.3355 101.998L88.7125 101.755C88.6622 101.754 88.6126 101.742 88.5667 101.721C88.5208 101.701 88.4794 101.671 88.4449 101.635C88.4104 101.598 88.3835 101.555 88.3656 101.508C88.3478 101.46 88.3394 101.41 88.341 101.36C88.3426 101.31 88.354 101.26 88.3747 101.214C88.3954 101.168 88.425 101.127 88.4617 101.092C88.4984 101.058 88.5415 101.031 88.5887 101.013C88.6358 100.995 88.6859 100.987 88.7363 100.988L96.3478 101.231C96.4495 101.232 96.5463 101.274 96.6171 101.347C96.6878 101.42 96.7267 101.519 96.725 101.62C96.7234 101.722 96.6814 101.819 96.6084 101.89C96.5354 101.96 96.4372 101.999 96.3355 101.998Z" fill="white"/>
<path d="M98.4137 102.231C98.3616 102.231 98.31 102.221 98.2621 102.2C98.2141 102.18 98.1709 102.15 98.135 102.112C98.0992 102.074 98.0714 102.029 98.0534 101.98C98.0354 101.931 98.0275 101.879 98.0303 101.827L98.1131 100.308C98.1187 100.207 98.1645 100.111 98.2403 100.043C98.3162 99.9753 98.4159 99.9403 98.5176 99.9459C98.6193 99.9515 98.7146 99.9972 98.7825 100.073C98.8505 100.149 98.8855 100.249 98.8799 100.35L98.7963 101.869C98.791 101.966 98.7484 102.059 98.6772 102.126C98.6061 102.194 98.5118 102.231 98.4137 102.231Z" fill="white"/>
<path d="M76.7389 142.349C76.7019 142.368 76.7121 142.365 76.7389 142.349V142.349Z" fill="white"/>
<path d="M94.65 131.549C79.7751 140.565 77.0148 142.194 76.7388 142.348C76.9941 142.473 91.8476 149.709 100.096 146.3C101.555 145.605 102.868 144.638 103.964 143.45C105.215 141.997 106.417 140.337 106.467 138.443C106.609 132.442 99.7075 128.487 94.65 131.549Z" fill="white"/>
<path d="M114.053 121.693C113.993 119.772 113.435 117.901 112.434 116.26C111.911 115.454 111.17 114.813 110.297 114.413C109.423 114.012 108.454 113.868 107.502 113.998C106.523 114.252 105.616 114.732 104.857 115.401C104.305 115.788 103.848 116.296 103.521 116.886C103.232 117.636 103.104 118.438 103.145 119.24C103.069 121.727 102.705 124.197 102.061 126.601C101.566 128.483 100.571 130.196 99.1814 131.559C98.9717 131.752 98.8127 131.994 98.7182 132.263C98.6237 132.532 98.5966 132.82 98.6393 133.102C99.1967 139.001 105.864 142.993 109.63 137.65C112.823 132.964 114.378 127.354 114.053 121.693Z" fill="#FFE55D"/>
<path d="M105.307 114.591L73.5031 131.816L61.6445 126.926L94.2329 110.886L105.307 114.591Z" fill="white"/>
<path d="M105.429 114.228L94.4791 110.564C94.4301 110.488 94.2138 110.501 94.0597 110.564C93.033 111.002 87.9142 113.555 61.4729 126.579C61.4015 126.642 61.3448 126.721 61.3071 126.808C61.2694 126.896 61.2515 126.99 61.2548 127.086C61.258 127.181 61.2822 127.274 61.3258 127.359C61.3693 127.444 61.4311 127.518 61.5066 127.576C70.1786 131.333 72.5478 132.364 73.2149 132.64C73.5323 132.772 73.4633 132.787 73.8958 132.559C75.1709 131.887 80.7589 128.838 105.486 115.461C105.798 115.295 105.833 114.362 105.429 114.228ZM94.2606 111.3L104.348 114.673L73.4809 131.388L62.5755 126.891L94.2606 111.3Z" fill="#4B1010"/>
<path d="M100.967 114.187L94.5334 111.964C94.4379 111.931 94.3332 111.937 94.2421 111.981L89.6194 114.204C89.5509 114.237 89.4938 114.289 89.4551 114.355C89.4165 114.42 89.3982 114.495 89.4025 114.571C89.4067 114.647 89.4334 114.72 89.4791 114.781C89.5248 114.841 89.5875 114.887 89.6592 114.912C96.8214 117.393 96.2947 117.22 96.3943 117.22C96.5293 117.22 96.2096 117.365 101.018 114.89C101.085 114.856 101.14 114.803 101.176 114.737C101.213 114.672 101.23 114.597 101.225 114.522C101.219 114.447 101.192 114.376 101.146 114.316C101.1 114.257 101.038 114.212 100.967 114.187ZM98.5642 115.29L97.8841 115.639L92.5023 113.67L93.0613 113.402C93.2576 113.479 93.082 113.41 98.5642 115.29ZM96.3644 116.42L90.7909 114.492L91.5362 114.134L96.9564 116.116L96.3644 116.42ZM99.5081 114.805C99.4314 114.769 99.3655 114.753 94.0458 112.93L94.4338 112.743L99.87 114.619L99.5081 114.805Z" fill="#4B1010"/>
<path d="M66.168 126.325L87.9245 115.392L94.951 117.67L73.7373 129.329L66.168 126.325Z" fill="white"/>
<path d="M95.0685 117.306L88.042 115.028C87.812 114.951 89.2519 114.292 65.9949 125.982C65.9287 126.015 65.8736 126.067 65.8361 126.131C65.7986 126.195 65.7803 126.268 65.7836 126.342C65.7868 126.416 65.8114 126.487 65.8543 126.547C65.8973 126.608 65.9567 126.654 66.0256 126.681C71.9794 129.048 73.2897 129.575 73.6072 129.687C73.7605 129.741 73.7782 129.724 73.9139 129.653C74.5549 129.324 77.8243 127.5 95.1336 118.006C95.1991 117.97 95.2525 117.916 95.2875 117.85C95.3225 117.784 95.3374 117.709 95.3305 117.635C95.3236 117.561 95.2951 117.49 95.2485 117.432C95.202 117.373 95.1394 117.33 95.0685 117.306ZM70.7817 127.744C92.9177 116.267 91.4456 117.048 91.5184 116.961L92.1901 117.179L71.9165 128.194L70.7817 127.744ZM69.0765 127.067C91.2117 115.746 89.7603 116.507 89.8362 116.415L90.5309 116.641L69.8386 127.37L69.0765 127.067ZM87.9553 115.806L88.8455 116.095C67.3275 127.099 68.22 126.629 68.1433 126.697L67.1036 126.284L87.9553 115.806ZM73.7099 128.907L72.845 128.563L93.147 117.532C93.2237 117.491 93.0826 117.468 93.9904 117.762L73.7099 128.907Z" fill="#4B1010"/>
<path d="M59.3237 115.71C59.3237 116.015 59.4822 116.316 59.79 116.598C60.0978 116.879 60.5491 117.135 61.1179 117.351C61.6867 117.566 62.3619 117.737 63.1051 117.854C63.8483 117.97 64.6449 118.03 65.4493 118.03C66.2537 118.03 67.0502 117.97 67.7934 117.854C68.5366 117.737 69.2119 117.566 69.7807 117.351C70.3495 117.135 70.8007 116.879 71.1086 116.598C71.4164 116.316 71.5748 116.015 71.5748 115.71C71.5748 115.405 71.4164 115.104 71.1086 114.822C70.8007 114.541 70.3495 114.285 69.7807 114.069C69.2119 113.854 68.5366 113.683 67.7934 113.566C67.0502 113.45 66.2537 113.39 65.4493 113.39C64.6449 113.39 63.8483 113.45 63.1051 113.566C62.3619 113.683 61.6867 113.854 61.1179 114.069C60.5491 114.285 60.0978 114.541 59.79 114.822C59.4822 115.104 59.3237 115.405 59.3237 115.71Z" fill="white"/>
<path d="M71.9582 115.71C71.9582 113.954 68.6052 113.006 65.45 113.006C62.2949 113.006 58.9411 113.954 58.9411 115.71C58.9305 116.14 58.9704 116.57 59.06 116.991C60.0307 119.612 68.6988 119.996 71.3356 117.766C72.1997 117.036 71.9582 116.534 71.9582 115.71ZM65.45 113.773C68.7363 113.773 71.1915 114.795 71.1915 115.71C71.1915 116.625 68.7379 117.646 65.45 117.646C62.1622 117.646 59.7079 116.623 59.7079 115.71C59.7079 114.797 62.163 113.773 65.45 113.773Z" fill="#4B1010"/>
<path d="M80.6213 103.984L48.9093 117.003C48.7471 117.056 48.5708 117.042 48.419 116.964C48.2672 116.887 48.1523 116.752 48.0996 116.59C48.0743 116.514 48.3251 118.64 44.9199 86.8933C44.9648 86.6109 45.0855 86.3461 45.2692 86.1271C45.4528 85.908 45.6925 85.743 45.9627 85.6496L75.9234 75.9272C76.3065 75.7089 76.7588 75.6461 77.1868 75.7517C77.6149 75.8572 77.9861 76.1232 78.2237 76.4946L81.5123 102.9C81.466 103.141 81.3602 103.366 81.2046 103.555C81.049 103.745 80.8484 103.892 80.6213 103.984Z" fill="white"/>
<path d="M78.5499 76.2883C78.2637 75.8384 77.8171 75.5142 77.3006 75.3815C76.7842 75.2487 76.2366 75.3175 75.7689 75.5737L45.8381 85.2868C45.502 85.4024 45.2037 85.6074 44.9752 85.8797C44.7468 86.1521 44.5969 86.4815 44.5415 86.8326C44.5308 86.9016 47.7182 116.659 47.7358 116.708C47.7788 116.838 47.8473 116.958 47.9371 117.061C48.027 117.164 48.1364 117.249 48.2592 117.309C48.3819 117.37 48.5155 117.405 48.652 117.413C48.7886 117.422 48.9254 117.403 49.0546 117.358L63.7149 111.339L63.0248 116.46C63.0175 116.514 63.0221 116.57 63.038 116.622C63.054 116.675 63.0811 116.723 63.1175 116.764C63.1538 116.805 63.1986 116.838 63.2487 116.861C63.2989 116.883 63.3533 116.894 63.4082 116.894C63.5508 116.894 63.264 117.032 67.2848 114.767C67.3373 114.737 67.3821 114.696 67.4155 114.646C67.4489 114.596 67.4701 114.538 67.4773 114.478L68.0731 109.551L80.7704 104.337C81.0572 104.222 81.3104 104.036 81.5067 103.797C81.7029 103.558 81.836 103.274 81.8937 102.97C81.9044 102.895 78.6358 76.4232 78.5499 76.2883ZM80.4783 103.627L48.7909 116.638C48.7256 116.659 48.6546 116.654 48.5935 116.623C48.5325 116.591 48.4862 116.537 48.465 116.472C48.4389 116.395 48.6383 117.965 45.3075 86.9062C45.3467 86.7026 45.439 86.5129 45.575 86.3563C45.7109 86.1998 45.8858 86.0818 46.0819 86.0145C77.0785 75.6289 76.0365 76.3051 76.1132 76.2599C76.3988 76.0962 76.7349 76.0438 77.0568 76.1127C77.3788 76.1816 77.6639 76.367 77.8575 76.6333L81.1262 102.882C81.0851 103.049 81.005 103.204 80.8923 103.333C80.7796 103.463 80.6377 103.564 80.4783 103.627Z" fill="#4B1010"/>
<path d="M79.5697 102.53C79.649 102.498 79.7156 102.441 79.7589 102.368C79.8023 102.294 79.8199 102.209 79.8089 102.124L76.7711 78.5081C76.7639 78.4523 76.7446 78.3988 76.7145 78.3513C76.6844 78.3039 76.6442 78.2636 76.5968 78.2334C76.5494 78.2031 76.4959 78.1837 76.4402 78.1765C76.3844 78.1692 76.3278 78.1743 76.2742 78.1914L47.265 87.463C47.181 87.49 47.1089 87.5452 47.0608 87.6192C47.0128 87.6932 46.9917 87.7816 47.0013 87.8693L49.8053 113.84C49.8116 113.899 49.8315 113.955 49.8632 114.005C49.895 114.055 49.9378 114.096 49.9883 114.127C50.0388 114.157 50.0957 114.176 50.1546 114.181C50.2134 114.185 50.2725 114.177 50.3274 114.155L79.5697 102.53Z" fill="#4B1010"/>
<path d="M52.0381 94.3867C51.94 94.3868 51.8456 94.3494 51.7743 94.2821C51.703 94.2148 51.6602 94.1227 51.6547 94.0248L51.4791 90.8282C51.4763 90.7779 51.4835 90.7275 51.5001 90.68C51.5168 90.6325 51.5427 90.5887 51.5763 90.5512C51.6099 90.5136 51.6506 90.4831 51.696 90.4613C51.7414 90.4395 51.7907 90.4269 51.841 90.4241C51.8915 90.4203 51.9423 90.4267 51.9903 90.443C52.0383 90.4592 52.0825 90.4851 52.1203 90.5189C52.158 90.5527 52.1885 90.5938 52.21 90.6397C52.2314 90.6856 52.2434 90.7354 52.2451 90.786L52.4199 93.9826C52.4227 94.0345 52.4149 94.0865 52.397 94.1353C52.3791 94.1842 52.3515 94.2288 52.3157 94.2666C52.28 94.3044 52.237 94.3346 52.1892 94.3552C52.1415 94.3758 52.0901 94.3865 52.0381 94.3867Z" fill="white"/>
<path d="M56.9537 92.8431C56.851 92.8431 57.0427 92.9029 54.313 91.8578C54.2566 91.8362 54.206 91.8015 54.1655 91.7566C54.125 91.7117 54.0957 91.6578 54.08 91.5994C54.0643 91.541 54.0627 91.4797 54.0752 91.4206C54.0877 91.3614 54.114 91.3061 54.152 91.259C54.6749 90.6123 55.1461 89.9255 55.5613 89.2049C55.6121 89.1167 55.6959 89.0524 55.7942 89.026C55.8925 88.9996 55.9972 89.0134 56.0854 89.0642C56.1735 89.115 56.2379 89.1988 56.2643 89.2971C56.2906 89.3954 56.2769 89.5001 56.2261 89.5883C55.8781 90.1919 55.4925 90.773 55.0713 91.328L57.091 92.1024C57.1742 92.1348 57.2435 92.1952 57.2869 92.2731C57.3304 92.3511 57.3452 92.4418 57.329 92.5296C57.3127 92.6174 57.2663 92.6967 57.1978 92.7539C57.1293 92.8112 57.043 92.8427 56.9537 92.8431Z" fill="white"/>
<path d="M59.3618 93.3854C59.3086 93.3856 59.2559 93.3747 59.2071 93.3534C59.1583 93.3321 59.1145 93.3008 59.0784 93.2617C59.0423 93.2225 59.0148 93.1763 58.9976 93.1259C58.9804 93.0755 58.9739 93.0221 58.9785 92.969L59.4546 87.453C59.4634 87.3513 59.5121 87.2573 59.5902 87.1916C59.6683 87.1259 59.7693 87.0939 59.871 87.1026C59.9726 87.1114 60.0667 87.1601 60.1324 87.2382C60.1981 87.3163 60.2301 87.4173 60.2214 87.519L59.746 93.035C59.7377 93.1309 59.6936 93.2203 59.6224 93.2852C59.5512 93.3502 59.4582 93.3859 59.3618 93.3854Z" fill="white"/>
<path d="M62.6207 91.3242C62.5503 91.3236 62.4814 91.3036 62.4216 91.2664C62.3618 91.2292 62.3134 91.1763 62.2817 91.1134C62.25 91.0505 62.2363 90.9801 62.242 90.9099C62.2477 90.8397 62.2726 90.7724 62.314 90.7154L63.8398 88.6153L61.9183 87.8769C61.8234 87.8404 61.7468 87.7677 61.7055 87.6747C61.6641 87.5818 61.6614 87.4762 61.6979 87.3812C61.7344 87.2863 61.8071 87.2097 61.9001 87.1684C61.9931 87.127 62.0986 87.1243 62.1936 87.1608L64.5805 88.0809C64.6353 88.102 64.6845 88.1354 64.7243 88.1786C64.7642 88.2217 64.7936 88.2735 64.8102 88.3298C64.8269 88.3861 64.8304 88.4455 64.8205 88.5034C64.8106 88.5612 64.7875 88.6161 64.753 88.6636L62.9343 91.1678C62.8982 91.2169 62.8509 91.2568 62.7964 91.284C62.7419 91.3112 62.6816 91.325 62.6207 91.3242Z" fill="white"/>
<path d="M53.8904 103.107C53.8039 103.087 53.7268 103.039 53.6723 102.969C53.6178 102.899 53.5892 102.812 53.5913 102.723C53.6226 101.067 53.5509 99.4112 53.3766 97.7641C53.3673 97.6759 53.3889 97.5871 53.4377 97.513C53.4865 97.4389 53.5595 97.384 53.6442 97.3577L54.4792 97.0986C54.5763 97.0681 54.6816 97.0774 54.7718 97.1245C54.862 97.1716 54.9298 97.2526 54.9603 97.3497C54.9909 97.4468 54.9815 97.552 54.9344 97.6423C54.8873 97.7325 54.8063 97.8003 54.7092 97.8308L54.1725 97.9972C54.3156 99.4549 54.3798 100.919 54.365 102.384C54.5713 102.375 54.7716 102.312 54.9454 102.201C54.9876 102.17 55.0355 102.149 55.0861 102.138C55.1368 102.127 55.1893 102.126 55.2402 102.136C55.2912 102.145 55.3397 102.165 55.3828 102.194C55.4258 102.223 55.4625 102.261 55.4907 102.304C55.5189 102.348 55.5379 102.397 55.5466 102.448C55.5553 102.499 55.5536 102.551 55.5414 102.602C55.5293 102.652 55.5071 102.7 55.476 102.741C55.445 102.783 55.4059 102.818 55.361 102.844C55.1454 102.983 54.9044 103.077 54.652 103.123C54.3996 103.168 54.1407 103.162 53.8904 103.107Z" fill="white"/>
<path d="M57.3869 97.6967C57.3886 97.6052 57.4101 97.5151 57.4499 97.4327C57.4897 97.3503 57.5468 97.2775 57.6174 97.2192C57.688 97.161 57.7704 97.1187 57.8589 97.0953C57.9473 97.072 58.0398 97.068 58.13 97.0837C58.2201 97.0995 58.3058 97.1345 58.3811 97.1865C58.4564 97.2385 58.5196 97.3061 58.5663 97.3849C58.613 97.4636 58.6421 97.5514 58.6516 97.6425C58.6611 97.7335 58.6508 97.8255 58.6214 97.9121C58.5865 98.0698 58.4922 98.2079 58.358 98.2977C58.2239 98.3875 58.0603 98.4222 57.9012 98.3944C57.7422 98.3667 57.5999 98.2786 57.5042 98.1487C57.4084 98.0187 57.3664 97.8568 57.3869 97.6967Z" fill="white"/>
<path d="M58.5656 101.382C58.6424 101.248 58.6678 101.09 58.6372 100.939C58.6066 100.788 58.522 100.653 58.3992 100.559C58.3178 100.498 58.2643 100.406 58.2502 100.305C58.2362 100.204 58.2629 100.102 58.3244 100.02C58.3859 99.939 58.4772 99.8855 58.5783 99.8715C58.6793 99.8574 58.7817 99.8841 58.8631 99.9456C59.1339 100.152 59.3205 100.45 59.3881 100.784C59.4556 101.118 59.3996 101.465 59.2303 101.761C59.1767 101.842 59.0942 101.9 58.9995 101.922C58.9049 101.945 58.8051 101.931 58.7206 101.882C58.636 101.834 58.5729 101.756 58.5441 101.663C58.5153 101.57 58.523 101.469 58.5656 101.382Z" fill="white"/>
<path d="M61.4011 100.278C61.3507 100.281 61.3003 100.274 61.2527 100.257C61.2051 100.241 61.1613 100.215 61.1237 100.181C61.0861 100.148 61.0555 100.107 61.0336 100.062C61.0117 100.016 60.999 99.9668 60.9962 99.9165C60.9934 99.8661 61.0005 99.8157 61.0172 99.7681C61.0338 99.7205 61.0597 99.6767 61.0933 99.6391C61.1269 99.6015 61.1676 99.5709 61.213 99.549C61.2585 99.5271 61.3078 99.5144 61.3581 99.5116L62.2452 99.4096L62.0551 95.4732L61.2316 95.5015C61.181 95.5048 61.1302 95.4976 61.0824 95.4805C61.0346 95.4635 60.9908 95.4368 60.9537 95.4022C60.9166 95.3676 60.8869 95.3258 60.8666 95.2793C60.8462 95.2328 60.8355 95.1827 60.8352 95.1319C60.8317 95.0304 60.8686 94.9316 60.9379 94.8572C61.0072 94.7829 61.1032 94.7391 61.2048 94.7355L62.407 94.6934C62.4571 94.6908 62.5072 94.6982 62.5543 94.7153C62.6015 94.7323 62.6448 94.7586 62.6816 94.7926C62.7185 94.8266 62.7482 94.8676 62.769 94.9133C62.7897 94.9589 62.8012 95.0082 62.8027 95.0583L63.0281 99.7317C63.0328 99.8289 63.0003 99.9244 62.9372 99.9986C62.8741 100.073 62.7852 100.12 62.6884 100.131C62.6585 100.138 61.4317 100.278 61.4011 100.278Z" fill="white"/>
<path d="M66.0839 99.8114H66.0685C65.967 99.8074 65.8711 99.7633 65.8021 99.6886C65.7331 99.614 65.6965 99.515 65.7005 99.4135C65.7848 97.2788 65.9497 95.2101 66.2042 93.0908C66.2082 93.0393 66.2226 92.9891 66.2465 92.9432C66.2704 92.8974 66.3033 92.8568 66.3433 92.824C66.3833 92.7912 66.4295 92.7669 66.4791 92.7524C66.5287 92.7379 66.5808 92.7336 66.6321 92.7398C66.6835 92.7459 66.733 92.7624 66.7778 92.7882C66.8226 92.814 66.8618 92.8486 66.8928 92.89C66.9239 92.9313 66.9463 92.9785 66.9587 93.0287C66.9711 93.0789 66.9732 93.1311 66.9649 93.1821C66.7148 95.2616 66.5485 97.3504 66.4665 99.4434C66.4625 99.5422 66.4205 99.6357 66.3492 99.7043C66.2779 99.7729 66.1828 99.8113 66.0839 99.8114Z" fill="white"/>
<path d="M69.5136 97.0403C70.6384 96.7069 71.7358 96.2872 72.796 95.7851C72.8418 95.7588 72.8926 95.7422 72.9451 95.7364C72.9976 95.7306 73.0508 95.7357 73.1012 95.7514C73.1517 95.7671 73.1983 95.7931 73.2383 95.8277C73.2782 95.8623 73.3106 95.9048 73.3333 95.9525C73.356 96.0002 73.3687 96.0521 73.3704 96.1049C73.3721 96.1577 73.3629 96.2103 73.3434 96.2594C73.3238 96.3085 73.2943 96.353 73.2567 96.3901C73.2191 96.4273 73.1743 96.4562 73.125 96.4752C72.0289 96.9947 70.8943 97.4286 69.7313 97.7733C69.6368 97.794 69.5379 97.7781 69.4545 97.7289C69.3712 97.6797 69.3096 97.6007 69.282 97.508C69.2544 97.4152 69.263 97.3154 69.3059 97.2286C69.3489 97.1419 69.4231 97.0746 69.5136 97.0403Z" fill="white"/>
<path d="M74.9213 96.1225C74.8344 96.1224 74.7501 96.0927 74.6823 96.0384C74.6144 95.984 74.5671 95.9083 74.5479 95.8235L73.7129 92.1093C73.6998 92.0595 73.6968 92.0075 73.7041 91.9565C73.7115 91.9054 73.7291 91.8564 73.7559 91.8123C73.7826 91.7683 73.818 91.7301 73.8599 91.7C73.9017 91.6699 73.9492 91.6485 73.9995 91.6373C74.0499 91.626 74.1019 91.6249 74.1526 91.6342C74.2034 91.6435 74.2517 91.6629 74.2947 91.6913C74.3377 91.7197 74.3746 91.7565 74.4031 91.7995C74.4316 91.8424 74.4511 91.8907 74.4605 91.9414L75.2955 95.6548C75.3082 95.7109 75.308 95.7691 75.2951 95.8252C75.2822 95.8813 75.2568 95.9337 75.2209 95.9786C75.185 96.0235 75.1394 96.0598 75.0875 96.0847C75.0357 96.1096 74.9789 96.1225 74.9213 96.1225Z" fill="white"/>
<path d="M108.787 98.36C111.252 94.08 109.823 89.0455 106.458 85.5331C104.873 83.8784 102.654 82.4139 100.383 82.8625C94.3082 84.0617 97.6114 93.896 100.383 96.6908C101.859 98.1467 103.843 98.9699 105.916 98.9857C106.525 99.0033 107.129 98.8835 107.685 98.6353L108.787 98.36Z" fill="white"/>
<path d="M102.522 93.2419C102.522 93.8267 102.755 94.3876 103.168 94.8011C103.582 95.2147 104.143 95.447 104.728 95.447C105.312 95.447 105.873 95.2147 106.287 94.8011C106.7 94.3876 106.933 93.8267 106.933 93.2419C106.933 92.657 106.7 92.0961 106.287 91.6826C105.873 91.269 105.312 91.0367 104.728 91.0367C104.143 91.0367 103.582 91.269 103.168 91.6826C102.755 92.0961 102.522 92.657 102.522 93.2419Z" fill="white"/>
<path d="M98.3297 91.1571C98.2492 91.1571 98.1708 91.1317 98.1055 91.0847C98.0402 91.0376 97.9914 90.9712 97.966 90.8949C97.9405 90.8186 97.9397 90.7362 97.9637 90.6594C97.9877 90.5826 98.0353 90.5153 98.0996 90.467C98.4647 90.1875 98.8976 90.0102 99.3539 89.9533C99.8102 89.8964 100.273 89.9621 100.696 90.1434C100.742 90.1636 100.784 90.1926 100.819 90.2289C100.854 90.2652 100.882 90.3081 100.9 90.355C100.919 90.402 100.928 90.4521 100.927 90.5026C100.926 90.553 100.915 90.6028 100.895 90.6491C100.875 90.6954 100.846 90.7372 100.809 90.7722C100.773 90.8073 100.73 90.8348 100.683 90.8533C100.636 90.8718 100.586 90.8808 100.536 90.8799C100.485 90.879 100.435 90.8682 100.389 90.8481C100.092 90.7209 99.7655 90.6751 99.4444 90.7156C99.1233 90.756 98.8188 90.8811 98.562 91.0781C98.4953 91.1292 98.4137 91.1569 98.3297 91.1571Z" fill="#4B1010"/>
<path d="M101.793 92.6991C101.666 91.8833 100.693 91.4639 100.401 91.6219C100.051 91.8129 99.6591 91.913 99.2607 91.913C98.8624 91.913 98.4705 91.8129 98.121 91.6219C98.0316 91.5734 97.9266 91.5624 97.8291 91.5913C97.7316 91.6202 97.6496 91.6866 97.6011 91.776C97.5526 91.8653 97.5416 91.9703 97.5705 92.0678C97.5994 92.1653 97.6659 92.2473 97.7552 92.2958C98.4343 92.6659 99.226 92.7726 99.9788 92.5956C100.075 93.3394 100.874 93.9543 101.487 93.492C101.607 93.4015 101.699 93.2793 101.753 93.1392C101.807 92.9991 101.821 92.8467 101.793 92.6991Z" fill="#4B1010"/>
<path d="M105.416 119.123C104.403 118.696 103.325 118.448 102.228 118.388C101.779 118.321 101.32 118.416 100.934 118.656C100.688 118.885 100.502 119.172 100.391 119.49C99.3242 122.461 99.8969 123.355 99.407 123.504C99.2536 123.538 99.3572 123.535 96.8368 123.044C86.6475 121.063 87.3384 121.193 87.0991 121.197C86.8997 120.89 86.6213 120.644 86.2933 120.482C85.3373 119.909 84.261 119.566 83.1496 119.481C82.3116 119.404 81.4681 119.617 81.2634 120.432C81.1967 120.699 81.3301 121.05 81.6054 121.083C81.3745 121.142 81.1575 121.246 80.9671 121.389C80.7766 121.532 80.6165 121.712 80.4959 121.918C80.101 122.573 80.5419 122.991 80.9797 122.802C81.1334 122.735 81.2789 122.651 81.4137 122.552C81.8404 122.292 82.3331 122.162 82.8322 122.177C82.3381 122.29 81.8935 122.558 81.564 122.943C81.1377 123.43 81.1039 124.17 81.7058 124.37C81.8297 124.387 81.9558 124.377 82.0751 124.339C82.1944 124.302 82.304 124.238 82.3959 124.153C82.584 123.988 82.795 123.85 83.0223 123.745C83.8159 123.471 84.5344 124.401 86.0725 124.146C86.153 124.193 87.4526 124.561 102.225 129.177C102.65 129.375 103.131 129.419 103.585 129.303C104.558 128.766 104.79 127.441 106.115 122.627C106.435 121.472 107.45 119.913 105.416 119.123Z" fill="white"/>
<path d="M89.3341 119.198C88.7591 119.278 88.1776 119.3 87.5982 119.265C87.431 119.265 87.2232 119.265 87.1381 119.09C87.1022 119.015 87.0935 118.93 87.1133 118.849C87.1332 118.768 87.1804 118.697 87.247 118.647C87.3815 118.548 87.5349 118.477 87.6979 118.439C87.898 118.362 89.0082 117.93 88.7406 117.604C88.6972 117.56 88.6452 117.525 88.5878 117.502C88.5304 117.479 88.4689 117.468 88.4071 117.47C87.6979 117.415 86.9956 117.643 86.4542 118.104C86.3312 118.23 86.1907 118.337 86.0371 118.422C85.9595 118.464 85.8711 118.481 85.7833 118.473C85.6955 118.464 85.6125 118.429 85.5448 118.372C85.2113 118.022 85.8515 117.299 86.2349 117.003L85.8423 116.903C85.9762 116.65 86.1587 116.427 86.3794 116.245C86.6 116.063 86.8545 115.926 87.1282 115.843C87.6683 115.68 88.2334 115.615 88.7966 115.651C90.2772 115.629 90.5663 116.332 91.701 116.111L98.611 115.277C98.2701 115.967 98.2137 116.763 98.4541 117.495C98.6944 118.226 99.2122 118.834 99.8961 119.187C93.9354 118.574 94.8946 118.645 91.2257 118.645C90.4443 118.647 90.0364 119.097 89.3341 119.198Z" fill="white"/>
<path d="M99.6342 118.715C96.7862 118.517 93.9366 118.343 91.0857 118.193C91.0208 118.162 90.9484 118.15 90.8768 118.158C90.8052 118.166 90.7373 118.194 90.6808 118.239C90.2788 118.559 89.7946 118.76 89.2838 118.818C88.7248 118.892 88.16 118.913 87.597 118.881C88.1017 118.724 88.5707 118.47 88.9771 118.132C89.0704 118.109 89.1526 118.054 89.2095 117.976C89.2663 117.898 89.2942 117.803 89.2883 117.707C89.2823 117.611 89.243 117.52 89.1771 117.45C89.1111 117.38 89.0228 117.336 88.9273 117.324C88.0938 116.963 86.7658 117.554 86.2383 118.026C85.5889 118.675 85.9922 117.651 86.3196 117.366C86.5562 117.159 86.8445 117.02 87.1538 116.963C87.2475 116.946 87.3315 116.895 87.3896 116.819C87.4477 116.744 87.4756 116.65 87.4679 116.555C87.4603 116.46 87.4176 116.371 87.3482 116.306C87.2788 116.241 87.1876 116.204 87.0925 116.202C88.3154 115.819 89.6351 115.887 90.812 116.395C90.953 116.457 90.4416 116.49 98.6727 115.489C98.724 115.485 98.7739 115.47 98.8194 115.446C98.8649 115.422 98.9051 115.389 98.9376 115.349C98.97 115.309 98.9941 115.263 99.0084 115.213C99.0226 115.164 99.0268 115.112 99.0205 115.061C99.0143 115.01 98.9978 114.96 98.9721 114.916C98.9464 114.871 98.9119 114.832 98.8708 114.801C98.8296 114.77 98.7827 114.748 98.7327 114.735C98.6827 114.723 98.6308 114.72 98.5799 114.728L91.0205 115.649C89.9036 115.205 88.6865 115.078 87.5019 115.279C87.0945 115.346 86.7079 115.506 86.3713 115.745C86.0348 115.984 85.7572 116.297 85.5597 116.659C85.4608 116.835 85.4162 117.036 85.4317 117.237C85.2928 117.456 85.2009 117.701 85.1618 117.957C85.1144 118.141 85.1244 118.335 85.1904 118.513C85.2565 118.691 85.3754 118.845 85.5314 118.953C85.6682 119.023 85.8215 119.054 85.9746 119.042C86.1277 119.031 86.2748 118.978 86.4001 118.89C86.5222 118.81 86.6374 118.72 86.7444 118.621C86.6946 118.831 86.7101 119.051 86.7888 119.252C86.8645 119.389 86.9798 119.5 87.1197 119.57C87.2595 119.641 87.4174 119.667 87.5724 119.646C88.1736 119.68 88.7767 119.657 89.3735 119.577C89.9582 119.51 90.5163 119.296 90.996 118.955C93.8697 119.108 99.5943 119.48 99.6035 119.48C99.7052 119.483 99.8041 119.446 99.8784 119.377C99.9527 119.308 99.9965 119.211 99.9999 119.11C100.003 119.008 99.9663 118.909 99.8968 118.835C99.8274 118.76 99.7312 118.717 99.6296 118.713L99.6342 118.715Z" fill="#4B1010"/>
<path d="M67.1217 145.523C67.0784 145.551 67.0299 145.57 66.9791 145.579C66.9283 145.587 66.8763 145.586 66.8262 145.574C66.776 145.562 66.7288 145.54 66.6873 145.51C66.6459 145.479 66.6109 145.44 66.5847 145.396C66.5585 145.352 66.5414 145.303 66.5346 145.252C66.5278 145.2 66.5314 145.149 66.5451 145.099C66.5588 145.049 66.5823 145.003 66.6143 144.963C66.6464 144.922 66.6862 144.889 66.7315 144.864L96.5411 127.239C96.5845 127.211 96.633 127.192 96.6838 127.183C96.7346 127.175 96.7866 127.177 96.8367 127.188C96.8868 127.2 96.934 127.222 96.9755 127.253C97.017 127.283 97.0519 127.322 97.0782 127.366C97.1044 127.41 97.1214 127.46 97.1283 127.511C97.1351 127.562 97.1315 127.614 97.1178 127.663C97.1041 127.713 97.0806 127.759 97.0485 127.8C97.0165 127.84 96.9767 127.874 96.9314 127.898L67.1217 145.523Z" fill="#4B1010"/>
<path d="M100.417 3.87354L35.2812 18.0523V67.3235L69.9099 57.7399L70.8576 74.2918L73.3197 56.7961L100.417 49.2973V3.87354Z" fill="white"/>
<path d="M100.229 3.54688C98.3551 3.86892 88.2961 6.09172 35.1949 17.6773C35.1094 17.696 35.0329 17.7434 34.9781 17.8116C34.9233 17.8798 34.8935 17.9647 34.8936 18.0522V67.3235C34.8936 67.3826 34.9072 67.4408 34.9334 67.4937C34.9596 67.5466 34.9977 67.5928 35.0447 67.6286C35.0917 67.6643 35.1463 67.6888 35.2042 67.7C35.2622 67.7112 35.322 67.7088 35.3789 67.6931L69.5544 58.236L70.4745 74.3132C70.4793 74.4087 70.5196 74.499 70.5875 74.5663C70.6555 74.6336 70.7461 74.6732 70.8417 74.6771C70.9372 74.681 71.0308 74.6491 71.104 74.5876C71.1772 74.5261 71.2248 74.4394 71.2375 74.3446L73.6642 57.0989C73.8774 57.0437 100.411 49.6967 100.519 49.6668C100.6 49.6445 100.671 49.5963 100.722 49.5295C100.773 49.4628 100.8 49.3812 100.8 49.2973V3.87352C100.799 3.63046 100.675 3.47097 100.229 3.54688ZM93.3436 5.80419L96.34 5.15246L96.2634 8.44334L93.3405 9.10351L93.3436 5.80419ZM89.2645 6.69285L92.5784 5.97134V9.27757L89.2645 10.0259V6.69285ZM35.6641 18.3651L88.4977 6.86384V10.1992L35.6641 22.1375V18.3651ZM39.9955 25.482V21.945L43.5509 21.1415C43.5509 24.772 43.544 24.565 43.567 24.6463L39.9955 25.482ZM75.4852 18.0039L56.2812 41.284L36.2315 27.1413L75.4852 18.0039ZM35.6641 22.9234L39.2288 22.1183V25.6569L35.6641 26.4865V22.9234ZM55.7921 41.8774L35.6641 66.2823V27.6795L55.7921 41.8774ZM71.0159 70.3959L70.3074 58.0267L72.8561 57.3221L71.0159 70.3959ZM36.378 66.6219L56.4208 42.3206L75.5167 55.7901L36.378 66.6219ZM56.9077 41.7279L75.9997 18.5844V55.1913L56.9077 41.7279ZM100.03 49.0051L76.7665 55.4443V17.7026L100.034 12.284L100.03 49.0051ZM100.03 11.4973L44.3177 24.4715V20.972L100.033 8.38354L100.03 11.4973ZM100.03 7.59302L97.0401 8.26929L97.1168 4.98454L100.036 4.3489L100.03 7.59302Z" fill="#4B1010"/>
<path d="M80.9515 24.6233L94.9201 21.2788C95.3273 21.1691 95.7873 21.4505 95.7681 22.1137C95.7854 22.3316 95.7282 22.5488 95.6059 22.7299C95.4836 22.911 95.3035 23.0452 95.0949 23.1105L81.1946 26.4405C80.1495 26.8515 79.7937 25.0098 80.9515 24.6233Z" fill="#4B1010"/>
<path d="M80.8883 29.6684C80.7949 29.6679 80.7049 29.6334 80.6352 29.5713C80.5655 29.5091 80.5208 29.4237 80.5096 29.331C80.4984 29.2383 80.5214 29.1447 80.5744 29.0678C80.6273 28.9908 80.7064 28.9358 80.797 28.9132L92.2714 26.0923C92.3699 26.0687 92.4737 26.085 92.5602 26.1377C92.6467 26.1904 92.7088 26.2751 92.733 26.3735C92.7572 26.4718 92.7415 26.5757 92.6894 26.6625C92.6372 26.7493 92.5529 26.812 92.4547 26.8368C80.1714 29.8563 80.965 29.6684 80.8883 29.6684Z" fill="#4B1010"/>
<path d="M80.8881 31.7717C80.7945 31.7718 80.7042 31.7376 80.634 31.6757C80.5639 31.6137 80.5188 31.5283 80.5073 31.4354C80.4958 31.3426 80.5187 31.2487 80.5716 31.1715C80.6245 31.0943 80.7038 31.0392 80.7946 31.0164L93.712 27.77C93.7608 27.7577 93.8116 27.7552 93.8614 27.7625C93.9112 27.7699 93.9591 27.7869 94.0023 27.8128C94.0456 27.8386 94.0833 27.8727 94.1133 27.9131C94.1433 27.9536 94.1651 27.9995 94.1774 28.0483C94.1897 28.0972 94.1922 28.1479 94.1849 28.1978C94.1776 28.2476 94.1605 28.2955 94.1346 28.3387C94.1088 28.3819 94.0747 28.4196 94.0343 28.4496C93.9939 28.4797 93.9479 28.5015 93.8991 28.5138C80.1344 31.9749 80.9679 31.7717 80.8881 31.7717Z" fill="#4B1010"/>
<path d="M80.9462 34.0581C80.853 34.0578 80.7631 34.0236 80.6933 33.9619C80.6235 33.9001 80.5786 33.8151 80.567 33.7226C80.5553 33.6302 80.5777 33.5367 80.63 33.4595C80.6823 33.3824 80.7609 33.327 80.8511 33.3036L93.2357 30.1155C93.3342 30.0901 93.4387 30.105 93.5263 30.1568C93.6139 30.2085 93.6773 30.293 93.7026 30.3915C93.7279 30.49 93.7131 30.5946 93.6613 30.6821C93.6095 30.7697 93.5251 30.8331 93.4266 30.8584C79.9916 34.3172 81.0283 34.0581 80.9462 34.0581Z" fill="#4B1010"/>
<path d="M80.8884 36.4603C80.7951 36.4602 80.7051 36.4261 80.6352 36.3645C80.5652 36.3028 80.5202 36.2177 80.5084 36.1252C80.4967 36.0327 80.519 35.9391 80.5713 35.8619C80.6236 35.7847 80.7023 35.7292 80.7925 35.7058L93.5359 32.4011C93.6343 32.3756 93.7389 32.3902 93.8265 32.4418C93.9141 32.4933 93.9777 32.5776 94.0032 32.676C94.0288 32.7744 94.0141 32.879 93.9626 32.9666C93.911 33.0542 93.8268 33.1178 93.7284 33.1433C80.0703 36.6903 80.9689 36.4603 80.8884 36.4603Z" fill="#4B1010"/>
<path d="M80.9464 38.8065C80.8536 38.8065 80.764 38.7729 80.6941 38.7118C80.6243 38.6508 80.5789 38.5665 80.5665 38.4746C80.554 38.3826 80.5753 38.2893 80.6264 38.2119C80.6775 38.1345 80.755 38.0782 80.8444 38.0535L92.9867 34.6798C93.0847 34.6526 93.1895 34.6654 93.2781 34.7154C93.3667 34.7655 93.4317 34.8487 93.459 34.9467C93.4862 35.0447 93.4734 35.1495 93.4234 35.2381C93.3733 35.3267 93.2902 35.3917 93.1921 35.419C79.9588 39.1032 81.0292 38.8065 80.9464 38.8065Z" fill="#4B1010"/>
<path d="M93.2316 40.1407L81.9404 43.1701C81.8281 43.1998 81.711 43.2071 81.5959 43.1916C81.4808 43.176 81.3698 43.1379 81.2694 43.0794C81.169 43.021 81.0811 42.9433 81.0107 42.8508C80.9404 42.7584 80.8889 42.6529 80.8593 42.5406C80.8263 42.3772 80.8165 42.2099 80.8302 42.0437C80.8313 41.7983 80.914 41.5603 81.0651 41.3669C81.2162 41.1736 81.4273 41.036 81.6652 40.9756L93.0813 37.9209C93.1953 37.8898 93.315 37.8855 93.4309 37.9083C93.5468 37.9311 93.6559 37.9804 93.7497 38.0523C93.8434 38.1243 93.9193 38.2169 93.9713 38.323C94.0234 38.4291 94.0502 38.5457 94.0497 38.6639V39.0979C94.0436 39.3366 93.9607 39.5669 93.8133 39.7547C93.666 39.9426 93.462 40.0779 93.2316 40.1407Z" fill="#FFE55D"/>
<path d="M94.3927 38.3633C94.3534 38.2174 94.2858 38.0806 94.1936 37.9608C94.1014 37.841 93.9865 37.7406 93.8555 37.6653C93.7244 37.5899 93.5798 37.5412 93.4299 37.5217C93.2801 37.5023 93.1278 37.5126 92.9819 37.5521L81.5688 40.6053C81.2478 40.6854 80.9628 40.8708 80.7594 41.1318C80.5559 41.3927 80.4457 41.7143 80.4463 42.0452C80.4321 42.2443 80.446 42.4443 80.4877 42.6395C80.5597 42.91 80.7189 43.1493 80.9407 43.3201C81.1626 43.4909 81.4346 43.5837 81.7145 43.5841C81.9568 43.5841 81.0406 43.8341 93.33 40.5125C93.6416 40.4275 93.9173 40.2439 94.1159 39.9892C94.3145 39.7345 94.4253 39.4223 94.4318 39.0994C94.4523 38.8534 94.4392 38.6057 94.3927 38.3633ZM93.1307 39.7718L81.8418 42.8013C81.7781 42.8182 81.7117 42.8223 81.6464 42.8136C81.5811 42.8048 81.5182 42.7832 81.4612 42.7501C81.4043 42.717 81.3544 42.673 81.3144 42.6206C81.2745 42.5682 81.2452 42.5084 81.2284 42.4447C81.2056 42.3136 81.1999 42.1801 81.2115 42.0475C81.2123 41.8863 81.2668 41.7298 81.3663 41.6029C81.4659 41.476 81.6048 41.3859 81.7613 41.3467L93.1797 38.292C93.2369 38.2763 93.2969 38.2742 93.3551 38.2856C93.4133 38.2971 93.468 38.3219 93.515 38.3581C93.5619 38.3943 93.5998 38.4409 93.6258 38.4942C93.6517 38.5475 93.6649 38.6061 93.6643 38.6654V39.0894C93.6596 39.2452 93.6054 39.3954 93.5094 39.5181C93.4134 39.6409 93.2807 39.7298 93.1307 39.7718Z" fill="#4B1010"/>
<path d="M118.751 98.4597C115.112 96.1595 113.026 99.1858 109.688 100.021C103.379 101.523 100.767 107.014 99.2898 112.722L98.313 116.469C98.2721 116.855 98.3269 117.245 98.4725 117.604C98.6181 117.964 98.8501 118.282 99.148 118.53C100.353 119.729 101.895 120.531 103.569 120.829C105.242 121.128 106.966 120.908 108.511 120.199C108.628 120.148 108.739 120.087 108.845 120.016L121.138 101.706C120.774 100.365 119.923 99.2071 118.751 98.4597Z" fill="#FFE55D"/>
<path d="M124.911 105.629C124.844 104.249 124.977 96.716 122.157 100.245C120.229 102.649 120.47 104.936 111.216 107.223C110.273 107.582 108.354 108.296 108.712 112.63C108.354 112.505 111.616 136.169 102.103 144.71C97.9564 148.43 90.8747 148.971 85.5098 148.15C92.6194 150.287 100.241 149.975 107.152 147.263C110.79 145.87 115.663 143.692 118.167 140.645C123.25 134.487 125.086 124.58 125.244 116.853C125.328 113.14 125.102 109.359 124.911 105.629Z" fill="#FFB43B"/>
<path d="M125.276 105.057C125.2 101.689 124.908 99.3675 123.763 98.9818C122.766 98.6498 121.83 99.9732 121.246 100.848C120.777 99.7322 119.978 98.7861 118.956 98.1361C115.117 95.7063 112.828 98.8392 109.602 99.6473C102.608 101.313 100.156 107.852 98.921 112.625L97.9342 116.428C97.885 116.872 97.9455 117.32 98.1103 117.735C98.2752 118.149 98.5393 118.517 98.8796 118.805C99.1721 119.096 99.485 119.365 99.8158 119.611L99.2377 123.049C88.4166 120.994 87.7656 121.124 87.5992 120.961C85.8357 119.265 83.3215 118.821 81.7942 119.456C81.4983 119.551 81.2494 119.755 81.098 120.027C80.9466 120.298 80.9038 120.617 80.9783 120.918C80.6805 121.133 80.425 121.401 80.2246 121.708C79.6787 122.568 80.2737 123.36 81.0151 123.203C80.9439 123.348 80.9054 123.507 80.9024 123.668C80.8994 123.83 80.932 123.99 80.9979 124.137C81.0638 124.284 81.1613 124.415 81.2836 124.52C81.4058 124.626 81.5498 124.703 81.7052 124.746C81.8837 124.772 82.0657 124.758 82.2381 124.705C82.4105 124.652 82.569 124.561 82.702 124.439C82.8529 124.305 83.021 124.192 83.2019 124.103C83.5151 124.058 83.8344 124.114 84.1136 124.263C84.7185 124.523 85.3811 124.62 86.035 124.543L98.9164 128.569L70.4233 145.668C70.3513 145.711 70.2954 145.776 70.2643 145.854C70.2331 145.932 70.2283 146.018 70.2507 146.099C70.2731 146.18 70.3213 146.251 70.3881 146.302C70.4549 146.352 70.5364 146.38 70.6203 146.38C70.7737 146.38 70.4601 146.539 74.8321 143.916C77.909 145.363 85.0467 149.942 94.9316 149.942C99.1602 149.941 103.352 149.154 107.293 147.623C112.834 145.501 116.489 143.299 118.468 140.891C122.752 135.699 125.43 126.717 125.632 116.863C125.731 112.215 125.318 106.755 125.276 105.057ZM99.3941 118.236C99.1503 118.035 98.9584 117.778 98.8348 117.488C98.7112 117.197 98.6595 116.881 98.6841 116.566L99.6609 112.819C100.947 107.848 103.259 101.945 109.782 100.392C113.18 99.5431 115.131 96.6218 118.547 98.7817C119.592 99.4472 120.365 100.465 120.724 101.652C119.561 103.427 118.133 105.118 111.072 106.866C110.067 107.249 107.986 108.041 108.322 112.544C108.289 113.101 108.304 113.661 108.367 114.216C108.479 116.14 108.543 117.982 108.559 119.742C108.493 119.782 108.424 119.818 108.353 119.849C106.872 120.521 105.222 120.726 103.622 120.438C102.022 120.15 100.547 119.382 99.3941 118.236ZM105.182 139.912C103.54 139.619 102.042 138.787 100.926 137.547C99.8098 136.307 99.1388 134.731 99.0192 133.067C98.9264 132.039 99.309 132.138 101.599 129.406L102.072 129.554C102.38 129.69 102.712 129.761 103.048 129.761C104.851 129.761 104.999 128.098 106.952 121.127C107.505 121.003 108.044 120.826 108.562 120.596C108.561 128.974 107.43 135.433 105.182 139.912ZM86.7704 123.967C86.7413 123.873 86.6775 123.794 86.5919 123.746C86.5063 123.698 86.4055 123.685 86.3103 123.709C84.7001 124.126 84.0354 122.998 82.9121 123.391C82.245 123.709 82.13 124.02 81.8785 123.999C81.3686 123.833 81.8938 122.776 82.9665 122.542C83.0585 122.523 83.14 122.47 83.1958 122.395C83.2515 122.319 83.2775 122.225 83.2688 122.132C83.2601 122.038 83.2173 121.951 83.1486 121.887C83.0798 121.823 82.9899 121.786 82.896 121.784C82.3114 121.768 81.7351 121.924 81.239 122.234C81.1115 122.34 80.9611 122.415 80.7997 122.454C80.6049 122.285 81.4898 120.971 82.9466 121.146C82.9967 121.152 83.0476 121.149 83.0962 121.135C83.1449 121.122 83.1905 121.099 83.2302 121.068C83.27 121.036 83.3032 120.998 83.328 120.954C83.3527 120.91 83.3685 120.861 83.3745 120.811C83.3805 120.761 83.3764 120.71 83.3627 120.661C83.3489 120.613 83.3257 120.567 83.2944 120.528C83.263 120.488 83.2241 120.455 83.18 120.431C83.1358 120.406 83.0872 120.391 83.0371 120.385C82.5847 120.332 82.1263 120.385 81.6975 120.538C81.7275 120.385 81.9368 120.225 82.0871 120.162C82.5349 119.978 83.0209 119.905 83.5032 119.949C86.0542 120.103 87.061 121.701 87.4459 121.761C92.0088 122.463 94.6004 122.947 99.4777 123.874C99.5278 123.884 99.5794 123.883 99.6293 123.872C99.6792 123.862 99.7264 123.841 99.7683 123.812C99.8101 123.783 99.8457 123.745 99.873 123.702C99.9002 123.659 99.9186 123.611 99.927 123.561L100.514 120.078C102.196 121.09 104.168 121.51 106.116 121.273C104.421 127.322 104.215 128.485 103.442 128.948C103.073 129.035 102.686 128.997 102.342 128.84L86.7704 123.967ZM99.8051 128.846L100.797 129.153L100.054 129.996C99.253 130.094 98.4433 130.171 97.6352 130.226C99.7997 128.93 99.7353 128.998 99.8051 128.846ZM90.7122 134.382C92.3091 134.48 93.9106 134.48 95.5075 134.382C95.6091 134.376 95.7042 134.329 95.7717 134.253C95.8392 134.177 95.8737 134.077 95.8675 133.975C95.8612 133.873 95.8149 133.778 95.7386 133.711C95.6623 133.643 95.5624 133.609 95.4607 133.615C94.2776 133.663 93.0838 133.705 91.8968 133.666L96.2405 131.059C97.2616 131.025 98.2812 130.956 99.2975 130.851L98.9141 131.288C98.6658 131.521 98.4767 131.81 98.3626 132.131C98.2486 132.451 98.2129 132.795 98.2586 133.132C98.3912 134.921 99.102 136.619 100.284 137.969C101.465 139.319 103.054 140.248 104.81 140.617C103.406 143.333 101.096 145.471 98.28 146.661C89.6733 146.914 83.218 145.561 77.5011 142.305L90.7122 134.382ZM76.7482 142.761C82.0955 145.9 88.037 147.387 95.6984 147.459C87.4137 149.209 77.482 144.442 75.5728 143.467L76.7482 142.761ZM124.86 116.845C124.662 126.533 122.048 135.339 117.87 140.402C115.977 142.703 112.427 144.833 107.013 146.906C100.821 149.33 94.0404 149.819 87.5655 148.308C92.6115 149.11 98.1942 148.732 102.358 144.994C107.765 140.142 110.044 129.771 109.13 114.171C109.094 113.558 109.06 112.97 109.066 112.774C109.089 112.718 109.099 112.657 109.093 112.596C108.759 108.565 110.441 107.926 111.307 107.593C119.038 105.682 120.271 103.769 121.577 101.744C121.879 101.275 122.976 99.5247 123.518 99.7064C124.475 100.029 124.487 104.859 124.527 105.647C124.713 109.344 124.943 113.17 124.86 116.845Z" fill="#4B1010"/>
<path d="M67.6864 39.4414L30.1157 47.6196V76.036L49.4294 70.6949L50.637 80.0584L52.0018 69.9833L67.6864 65.6458V39.4414Z" fill="white"/>
<path d="M67.6054 39.0672L30.0347 47.2462C29.9494 47.2648 29.873 47.3121 29.8182 47.3802C29.7634 47.4482 29.7335 47.533 29.7334 47.6203V76.036C29.7334 76.1377 29.7738 76.2352 29.8457 76.3071C29.9176 76.379 30.0151 76.4194 30.1168 76.4194C30.1934 76.4194 29.5195 76.6011 49.1084 71.1933L50.2585 80.1075C50.2741 80.1989 50.3208 80.2821 50.3906 80.3432C50.4605 80.4042 50.5492 80.4393 50.6419 80.4425C50.7346 80.4425 50.8241 80.4088 50.8939 80.3477C50.9637 80.2867 51.009 80.2024 51.0214 80.1105L52.351 70.2962C60.3942 68.0726 58.3899 68.6223 67.7933 66.0131C67.8742 65.9908 67.9455 65.9425 67.9963 65.8758C68.0472 65.809 68.0747 65.7274 68.0747 65.6435V39.4414C68.0748 39.3837 68.0618 39.3268 68.0368 39.2748C68.0118 39.2228 67.9754 39.1771 67.9303 39.1411C67.8852 39.1052 67.8326 39.0798 67.7763 39.067C67.7201 39.0542 67.6617 39.0543 67.6054 39.0672ZM63.7717 40.6866L65.1656 40.3799L65.1357 41.9433L63.7717 42.25V40.6866ZM61.4178 41.1988L63.0049 40.8538V42.4287L61.4178 42.7875V41.1988ZM30.4994 47.9286L60.6518 41.3675V42.9623L30.4994 49.7772V47.9286ZM34.7226 51.3023L32.9944 51.7048V49.9988L34.7226 49.6085V51.3023ZM52.8708 47.8603L42.2 60.8015L31.0545 52.9454L52.8708 47.8603ZM30.4994 50.5631L32.2276 50.1721V51.8834L30.4994 52.2868V50.5631ZM30.4994 53.4913L41.7108 61.395L30.4994 74.9933V53.4913ZM50.6465 77.1333L49.8544 70.9862L51.5413 70.52L50.6465 77.1333ZM31.2102 75.3345L42.3403 61.8397L52.9567 69.3239L31.2102 75.3345ZM53.4413 68.7251L42.8287 61.2447L53.4413 48.3733V68.7251ZM67.3033 65.3514L54.208 68.975V47.549L67.3033 44.4974V65.3514ZM67.3033 43.7084L35.4894 51.1236V49.4368L67.3033 42.2439V43.7084ZM67.3033 41.4541L65.9071 41.7693L65.937 40.2128L67.3033 39.9145V41.4541Z" fill="#4B1010"/>
<path d="M64.9373 49.4268C64.8717 49.3753 64.7952 49.3393 64.7136 49.3216C64.6321 49.304 64.5476 49.3051 64.4665 49.3249L56.3988 51.2785C55.5216 51.5699 55.8383 52.9439 56.6434 52.6242L64.6459 50.6966C64.7676 50.6523 64.8763 50.5782 64.9621 50.4812C65.0478 50.3841 65.1079 50.2672 65.1369 50.1409C65.1659 50.0147 65.1628 49.8832 65.1279 49.7585C65.093 49.6338 65.0275 49.5198 64.9373 49.4268Z" fill="#4B1010"/>
<path d="M56.4198 54.4873C56.3263 54.487 56.2362 54.4526 56.1664 54.3905C56.0965 54.3285 56.0517 54.243 56.0404 54.1503C56.0291 54.0575 56.0521 53.9638 56.105 53.8868C56.1579 53.8098 56.2371 53.7548 56.3278 53.732L62.9456 52.0958C62.9945 52.0837 63.0453 52.0814 63.0951 52.0889C63.1448 52.0965 63.1927 52.1137 63.2358 52.1398C63.2789 52.1658 63.3164 52.2001 63.3463 52.2406C63.3762 52.2811 63.3978 52.3272 63.4099 52.376C63.4219 52.4249 63.4243 52.4757 63.4167 52.5255C63.4092 52.5753 63.3919 52.6231 63.3659 52.6662C63.3399 52.7093 63.3056 52.7469 63.2651 52.7768C63.2245 52.8066 63.1785 52.8282 63.1296 52.8403C55.9958 54.6054 56.4965 54.4873 56.4198 54.4873Z" fill="#4B1010"/>
<path d="M56.4196 56.2607C56.3261 56.2606 56.2358 56.2263 56.1658 56.1643C56.0958 56.1023 56.0509 56.0169 56.0395 55.9241C56.0281 55.8313 56.051 55.7375 56.1039 55.6604C56.1568 55.5833 56.2361 55.5282 56.3268 55.5055L63.7788 53.6354C63.8284 53.6205 63.8806 53.6159 63.932 53.6218C63.9835 53.6277 64.0332 53.6439 64.0782 53.6695C64.1232 53.6951 64.1626 53.7296 64.1939 53.7708C64.2252 53.8121 64.2478 53.8592 64.2604 53.9094C64.273 53.9597 64.2753 54.0119 64.2672 54.0631C64.259 54.1142 64.2406 54.1632 64.213 54.207C64.1854 54.2508 64.1492 54.2886 64.1066 54.318C64.064 54.3475 64.0159 54.368 63.9651 54.3784C55.9971 56.3742 56.4962 56.2607 56.4196 56.2607Z" fill="#4B1010"/>
<path d="M56.4194 58.0435C56.3261 58.0436 56.236 58.0097 56.1659 57.9481C56.0958 57.8865 56.0506 57.8014 56.0388 57.7089C56.0269 57.6163 56.0492 57.5226 56.1015 57.4453C56.1538 57.368 56.2325 57.3125 56.3228 57.2891L63.6752 55.3775C63.7239 55.3649 63.7747 55.3619 63.8245 55.3688C63.8744 55.3757 63.9224 55.3924 63.9659 55.4179C64.0093 55.4434 64.0473 55.4772 64.0777 55.5174C64.108 55.5575 64.1302 55.6033 64.1429 55.652C64.1556 55.7008 64.1585 55.7515 64.1516 55.8014C64.1447 55.8513 64.128 55.8993 64.1025 55.9427C64.077 55.9862 64.0432 56.0242 64.0031 56.0545C63.9629 56.0849 63.9171 56.1071 63.8684 56.1198C55.9962 58.1639 56.4961 58.0435 56.4194 58.0435Z" fill="#4B1010"/>
<path d="M56.4523 59.9581C56.3595 59.9581 56.2699 59.9245 56.2 59.8634C56.1301 59.8024 56.0848 59.7181 56.0723 59.6262C56.0599 59.5343 56.0812 59.4409 56.1323 59.3635C56.1834 59.2861 56.2609 59.2298 56.3503 59.2052L63.3522 57.2607C63.4502 57.2335 63.555 57.2464 63.6435 57.2965C63.732 57.3467 63.797 57.4299 63.8242 57.5279C63.8513 57.6259 63.8384 57.7307 63.7883 57.8192C63.7382 57.9077 63.655 57.9727 63.557 57.9998C56.0842 60.08 56.5351 59.9581 56.4523 59.9581Z" fill="#4B1010"/>
<path d="M63.3725 58.9973L56.783 60.7662C55.6996 61.0461 55.7863 63.15 57.1457 62.7759L63.6324 61.0169C64.8768 60.721 64.5226 58.6784 63.3725 58.9973Z" fill="#4B1010"/>
<path d="M41.7265 88.7043C41.6991 88.679 41.667 88.6594 41.632 88.6465C41.597 88.6336 41.5599 88.6278 41.5226 88.6293C41.4854 88.6308 41.4488 88.6396 41.415 88.6552C41.3811 88.6708 41.3507 88.693 41.3254 88.7204L33.4118 97.9007C33.0449 98.3315 32.8437 98.879 32.8444 99.4449V122.211L29.0391 133.819L32.8444 135.158C32.8444 143.775 32.7984 143.176 32.9487 143.337C33.0195 143.414 33.1177 143.459 33.2216 143.462C33.3256 143.466 33.4268 143.429 33.5031 143.358L41.3063 133.602C41.6198 133.238 41.7995 132.778 41.8154 132.299C42.8543 85.7324 41.8637 88.8331 41.7265 88.7043Z" fill="white"/>
<path d="M42.1989 88.8929C42.1945 88.7594 42.1503 88.6303 42.0719 88.5223C41.9934 88.4142 41.8844 88.3321 41.7589 88.2866C41.6333 88.2412 41.497 88.2344 41.3676 88.2671C41.2381 88.2999 41.1215 88.3707 41.0327 88.4704L33.1198 97.6514C32.6939 98.1516 32.4604 98.7872 32.4612 99.4441V122.15L28.6742 133.699C28.6431 133.795 28.6506 133.898 28.695 133.988C28.7394 134.078 28.8173 134.147 28.9119 134.18L32.4612 135.43V143.077C32.4622 143.233 32.5099 143.384 32.598 143.512C32.6861 143.639 32.8106 143.738 32.9553 143.794C33.1 143.85 33.2582 143.861 33.4094 143.826C33.5605 143.791 33.6977 143.711 33.803 143.597L41.6023 133.845C41.966 133.41 42.1757 132.867 42.1989 132.3V88.8929ZM29.5199 133.582L32.4612 124.611V134.618L29.5199 133.582ZM41.0135 133.352L33.2279 143.074V99.4456C33.2274 98.9718 33.3956 98.5132 33.7025 98.1521L41.4321 89.1812V132.282C41.4137 132.676 41.2666 133.053 41.0135 133.355V133.352Z" fill="#4B1010"/>
<path d="M40.3723 132.477C40.3869 132.563 40.3694 132.651 40.3232 132.725L35.0005 139.061C34.9541 139.123 34.8887 139.169 34.8142 139.19C34.7397 139.211 34.6602 139.208 34.588 139.18C34.5158 139.152 34.4547 139.101 34.4143 139.034C34.3738 138.968 34.3562 138.891 34.3641 138.814C34.4507 96.9537 34.2107 99.6872 34.4975 99.3537L39.6577 93.3569C39.7087 93.2975 39.7767 93.2552 39.8525 93.2356C39.9283 93.216 40.0083 93.2201 40.0817 93.2473C40.1596 93.2726 40.2286 93.32 40.2801 93.3837C40.3317 93.4474 40.3637 93.5246 40.3723 93.6061V132.477Z" fill="#4B1010"/>
<path d="M102.387 91.0743C103.444 91.368 104.469 91.7648 105.449 92.2589C106.078 92.7021 106.606 93.2746 106.996 93.9382C107.386 94.6017 107.63 95.341 107.711 96.1065C107.864 97.6391 107.731 99.187 107.318 100.671C108.244 100.441 109.355 100.129 109.822 99.244C110.043 100.944 109.912 102.671 109.438 104.318C112.898 103.723 115.986 101.796 118.042 98.9511C119.444 96.9238 119.535 94.2939 119.595 91.8203C119.667 89.7403 119.425 87.6613 118.877 85.6534C118.393 84.3349 117.763 83.0747 116.999 81.8963C114.744 77.9445 110.961 76.2423 106.467 76.069C104.427 76.05 102.416 76.5484 100.621 77.5174C98.8261 78.4864 97.306 79.8946 96.2027 81.6103C94.4039 84.3277 93.3841 88.1698 94.5335 91.3158C95.1722 93.0648 96.9288 94.5124 98.7728 94.2785C98.322 94.3368 97.6994 91.4761 97.6465 91.1241C97.4738 89.8054 97.7003 88.4653 98.2967 87.2766C98.6236 87.9645 99.0357 88.6085 99.5235 89.1934C100.336 90.014 101.311 90.6548 102.387 91.0743Z" fill="#FFB43B"/>
<path d="M119.236 85.5254C118.745 84.1874 118.107 82.9085 117.332 81.7124C115.031 77.6877 111.067 75.8084 106.487 75.6949C102.48 75.4956 98.3225 77.7337 95.8819 81.408C93.794 84.5731 93.1216 88.5165 94.1736 91.4585C94.8 93.1369 96.5175 94.7808 98.531 94.6919C98.957 95.5283 99.51 96.2936 100.17 96.9607C102.354 99.1498 105.511 99.6903 107.239 99.2234C107.027 100.573 106.797 100.687 107.044 100.939C107.091 100.987 107.15 101.022 107.214 101.04C107.279 101.058 107.347 101.059 107.412 101.043C108.168 100.9 108.886 100.603 109.523 100.171C109.602 101.534 109.449 102.9 109.069 104.212C109.051 104.274 109.049 104.339 109.063 104.401C109.077 104.464 109.107 104.522 109.149 104.57C109.191 104.619 109.245 104.656 109.305 104.678C109.366 104.7 109.43 104.707 109.494 104.697C113.065 104.1 116.254 102.111 118.36 99.1659C119.837 96.973 119.919 94.2272 119.977 91.8427C120.051 89.7116 119.801 87.5816 119.236 85.5254ZM107.341 98.3861C106.203 98.7161 104.991 98.6867 103.871 98.3017C104.155 97.9514 104.36 97.5443 104.474 97.1079C104.587 96.6714 104.606 96.2157 104.529 95.7715C104.519 95.721 104.499 95.673 104.47 95.6303C104.441 95.5877 104.404 95.5513 104.361 95.5232C104.318 95.4952 104.27 95.4761 104.219 95.4672C104.168 95.4582 104.116 95.4595 104.066 95.4711C104.016 95.4826 103.969 95.5041 103.927 95.5343C103.886 95.5645 103.85 95.6027 103.824 95.6468C103.797 95.6908 103.78 95.7398 103.773 95.7907C103.765 95.8416 103.768 95.8935 103.782 95.9432C103.85 96.3206 103.818 96.7094 103.688 97.0703C103.558 97.4312 103.336 97.7516 103.043 97.9989C100.035 96.6954 98.6989 93.9834 97.9974 90.7799C97.9338 89.9003 98.0499 89.017 98.3386 88.1837C98.6064 88.6396 98.9119 89.0722 99.2517 89.4772C100.102 90.3323 101.123 90.9988 102.247 91.4332C103.275 91.7168 104.273 92.0986 105.227 92.5734C105.81 92.9862 106.299 93.518 106.661 94.1336C107.023 94.7493 107.251 95.4348 107.329 96.1449C107.402 96.89 107.406 97.6402 107.341 98.3861ZM119.211 91.8242C119.156 94.1115 119.081 96.7222 117.73 98.7304C115.857 101.332 113.091 103.15 109.96 103.838C110.323 102.318 110.405 100.744 110.202 99.195C110.191 99.1143 110.155 99.039 110.099 98.98C110.043 98.9211 109.97 98.8815 109.889 98.8671C109.809 98.8527 109.727 98.8641 109.654 98.8998C109.58 98.9354 109.52 98.9934 109.482 99.0654C109.293 99.3416 109.051 99.5778 108.771 99.7604C108.49 99.943 108.176 100.069 107.847 100.13C108.143 98.7965 108.225 97.4249 108.092 96.0659C108 95.2384 107.732 94.4401 107.306 93.7247C106.88 93.0094 106.306 92.3935 105.622 91.9186C104.625 91.4159 103.582 91.0117 102.507 90.7117C101.499 90.3208 100.583 89.7244 99.8176 88.9604C98.5816 87.4775 98.781 86.9048 98.2987 86.9033C98.2265 86.9029 98.1557 86.9229 98.0943 86.961C98.033 86.9992 97.9837 87.0538 97.9521 87.1187C97.3194 88.3785 97.0808 89.7997 97.2674 91.197C97.4066 92.1278 97.6576 93.0384 98.015 93.909C97.3043 93.7661 96.643 93.441 96.0958 92.9656C95.5487 92.4902 95.1344 91.8808 94.8935 91.197C93.7143 87.8947 95.0339 84.0878 96.5214 81.8327C98.8147 78.3824 102.713 76.2753 106.457 76.4655C110.807 76.5751 114.508 78.3218 116.678 82.1157C117.42 83.2616 118.034 84.4861 118.508 85.7669C119.046 87.7391 119.283 89.7812 119.211 91.8242Z" fill="#4B1010"/>
<path d="M35.9236 102.874C35.8498 102.874 35.7775 102.853 35.7155 102.813C35.6535 102.773 35.6043 102.715 35.574 102.648C35.5436 102.581 35.5333 102.506 35.5443 102.433C35.5553 102.36 35.5872 102.292 35.6361 102.237L38.598 98.8737C38.6652 98.7974 38.76 98.7508 38.8615 98.7444C38.9631 98.7379 39.063 98.772 39.1393 98.8392C39.2157 98.9064 39.2622 99.0012 39.2687 99.1028C39.2752 99.2043 39.2411 99.3042 39.1739 99.3806L36.2111 102.744C36.1751 102.785 36.1309 102.818 36.0813 102.84C36.0317 102.862 35.978 102.874 35.9236 102.874Z" fill="white"/>
<path d="M36.0826 105.519C36.0086 105.519 35.9362 105.498 35.8741 105.458C35.8121 105.417 35.7629 105.36 35.7327 105.292C35.7025 105.225 35.6924 105.15 35.7038 105.077C35.7151 105.004 35.7473 104.936 35.7966 104.88L37.7242 102.719C37.7578 102.681 37.7984 102.651 37.8437 102.629C37.8891 102.607 37.9383 102.594 37.9885 102.592C38.0388 102.589 38.0891 102.596 38.1367 102.612C38.1842 102.629 38.228 102.655 38.2655 102.688C38.3031 102.722 38.3337 102.762 38.3556 102.808C38.3774 102.853 38.3901 102.902 38.393 102.953C38.3958 103.003 38.3888 103.053 38.3722 103.101C38.3556 103.148 38.3297 103.192 38.2962 103.23L36.3686 105.391C36.3326 105.431 36.2886 105.464 36.2393 105.486C36.19 105.508 36.1366 105.519 36.0826 105.519Z" fill="white"/>
<path d="M35.9239 109.124C35.8513 109.124 35.7803 109.104 35.719 109.065C35.6577 109.026 35.6088 108.97 35.5778 108.905C35.5468 108.839 35.535 108.766 35.5439 108.694C35.5528 108.622 35.5819 108.554 35.6279 108.498L38.5906 104.894C38.6221 104.854 38.6613 104.82 38.706 104.795C38.7507 104.77 38.8 104.754 38.8509 104.748C38.9019 104.743 38.9534 104.747 39.0026 104.762C39.0517 104.776 39.0974 104.801 39.137 104.833C39.1766 104.866 39.2092 104.906 39.233 104.951C39.2568 104.997 39.2713 105.046 39.2755 105.098C39.2798 105.149 39.2737 105.2 39.2578 105.249C39.2418 105.297 39.2162 105.342 39.1826 105.381L36.2198 108.985C36.1839 109.028 36.1387 109.064 36.0875 109.088C36.0363 109.112 35.9805 109.124 35.9239 109.124Z" fill="white"/>
</svg>
