<svg width="156" height="156" viewBox="0 0 156 156" fill="none" xmlns="http://www.w3.org/2000/svg">
<path d="M16.2492 37.3236C18.2054 38.2238 21.742 39.5053 21.742 39.8813C21.742 40.5583 18.6578 42.2135 17.3029 42.9654C15.0464 44.169 17.1532 49.36 19.9363 48.9871C22.118 48.686 26.7075 45.6018 30.1677 43.1198C32.7253 41.2392 32.9508 40.7127 32.3494 35.6723C31.9734 32.3619 31.5967 28.6764 30.9204 27.0212C30.0928 24.99 27.9096 25.4409 26.4813 25.742C24.6007 26.1179 23.9237 27.1709 24.1491 28.3753C24.4502 30.1802 24.6007 31.3861 24.8262 32.663C24.9034 32.9641 24.6718 33.1895 24.2996 33.039C22.7201 32.4376 21.0649 31.234 19.4854 30.7824C18.1313 30.4064 16.7772 30.7824 15.5729 33.039C14.4442 35.0663 14.5947 36.496 16.2492 37.3236ZM16.927 33.6373C17.98 31.6061 18.7319 31.9821 19.6344 32.3581C23.1702 34.0132 25.0508 35.2917 25.9541 34.9157C26.6311 34.6154 26.4806 33.7122 26.0313 30.4026C25.8051 28.6725 25.128 27.4689 26.7832 27.0922C29.0398 26.6406 29.3409 26.9378 29.5663 27.4689C30.319 29.3495 30.7706 34.5398 31.0709 37.6996C31.372 40.2572 30.5444 40.6332 28.1373 42.5146C25.7349 44.3348 23.1649 45.9225 20.462 47.2563C19.409 47.7828 18.4308 46.5035 18.1305 45.977C17.3778 44.6229 17.9043 44.247 18.1305 44.0964C20.3871 42.6674 23.3964 41.24 23.4713 39.8836C23.4713 38.9055 22.4183 38.5295 17.4535 36.0467C16.2492 35.6684 15.9519 35.4445 16.927 33.6373Z" fill="#3D9CFB"/>
<path d="M16.701 65.4596C15.5723 66.2872 14.595 67.3402 16.3999 69.8978C17.6035 71.6279 18.7322 72.0039 19.8608 71.7036C21.7415 71.2519 24.7507 68.1678 25.2016 68.6155C25.6524 69.0633 25.0472 72.5273 25.9543 74.4056C26.3303 75.3081 27.1579 75.9102 28.7335 75.684C33.2475 75.3837 33.022 74.7816 32.4955 64.1742C32.2693 60.4878 31.8934 59.2094 29.26 58.0051C21.2898 54.4006 18.2805 50.7899 15.875 56.1345C15.1979 57.6391 15.2728 58.6922 16.1761 59.5205C17.7556 60.9495 20.8398 61.7014 20.9154 62.0782C21.0644 62.6757 19.7103 63.4284 16.701 65.4596ZM17.5286 58.7639C16.7767 58.4629 17.0021 57.1844 17.2275 56.6579C18.7322 53.3475 20.0114 55.3787 28.4371 59.2905C30.8442 60.4191 30.9199 61.9987 30.9947 64.3309C31.1491 67.4151 31.5212 71.4774 31.1491 73.1318C31.0719 73.5085 30.171 74.411 27.6882 74.2605C26.1087 74.1061 27.6882 67.1889 25.5822 66.9634C24.5284 66.809 24.0019 67.3394 20.3156 69.8971C19.3382 70.4992 18.8866 70.7995 17.683 69.0695C16.5543 67.4899 16.8554 67.2638 17.6058 66.7372C21.6689 63.6492 22.9473 63.352 22.9473 62.299C22.945 61.0962 20.3874 60.0424 17.5286 58.7639Z" fill="#3D9CFB"/>
<path d="M123.903 25.8885C123.451 24.8354 122.323 25.8113 122.549 26.4899C122.774 27.1685 122.925 27.5436 123.151 28.145C122.239 29.1923 121.433 30.3264 120.743 31.5311C119.163 31.0794 118.486 30.8532 118.336 31.4539C118.259 31.9055 118.11 32.432 118.561 32.5069C119.222 32.6477 119.875 32.8235 120.518 33.0334C120.832 34.2013 121.26 35.3354 121.796 36.4194C120.518 37.6979 120.066 38.4506 120.142 38.676C120.142 38.9771 120.592 39.4279 120.819 39.353C121.345 39.2758 122.323 37.9989 122.925 37.3968C124.261 37.8982 125.649 38.2516 127.063 38.4506C127.815 40.7071 127.74 40.8577 128.266 40.8577C129.62 40.7805 129.018 39.9544 128.343 38.0013C129.436 37.0471 130.374 35.9306 131.127 34.6909C132.481 34.7681 133.158 34.9163 133.459 34.6909C133.835 34.4655 133.761 33.6379 133.61 33.3368C133.459 33.1114 132.105 33.1114 131.203 33.1114C131.048 32.8859 129.999 30.1005 129.773 29.5756C131.052 27.7698 131.729 27.1677 130.901 26.8674C130.149 26.5663 129.999 26.6419 128.644 28.5974C127.33 28.1383 125.967 27.8352 124.582 27.6942C124.444 27.0627 124.215 26.4545 123.903 25.8885ZM129.924 33.712C129.127 34.8299 128.247 35.8862 127.291 36.8718C125.884 36.6416 124.5 36.2892 123.154 35.8188C122.591 34.7374 122.136 33.6036 121.794 32.4335C122.51 31.2037 123.342 30.0449 124.277 28.9726C125.687 29.1101 127.076 29.4133 128.415 29.8759C128.415 29.8759 129.169 31.8314 129.921 33.712H129.924Z" fill="#3D9CFB"/>
<path d="M36.5646 25.4367C38.3703 26.7159 45.7422 31.6814 48.8264 31.5309C52.4379 31.3765 58.7575 26.4897 60.9384 24.0077C62.8947 21.5249 59.284 17.1615 56.5758 18.7418C54.9955 19.7948 54.093 20.5468 52.9644 21.3744C52.7389 21.5288 52.5127 21.4516 52.4379 21.1489C52.3607 19.6443 52.4379 17.6888 52.3607 16.1085C52.2835 13.8511 51.7585 13.3254 48.4481 13.3254C45.5145 13.3254 44.988 14.3028 44.988 15.958C44.988 18.9688 45.0652 20.4719 45.0652 21.6754C45.0652 21.9765 44.7649 21.9009 44.5387 21.7526C43.3351 21.2261 41.6051 20.1731 40.4764 19.5717C39.1223 18.819 37.62 19.7215 36.5646 20.925C34.982 22.6536 34.9063 24.1582 36.5646 25.4367ZM39.4982 20.6989C40.1004 20.6217 44.6892 24.0841 45.8179 23.7097C46.6455 23.4843 46.6455 22.4312 46.5698 21.4531C46.4445 19.6002 46.4187 17.7418 46.4926 15.8862C46.4926 14.9829 46.4926 14.6826 48.5238 14.6826C50.7055 14.6826 50.7055 14.9829 50.7804 15.961C51.232 23.1083 50.9348 23.1083 51.4574 23.4843C53.4886 24.7627 56.4978 17.9922 59.2817 20.6278C59.6519 20.9287 59.9012 21.3528 59.984 21.8226C60.0668 22.2923 59.9775 22.7762 59.7326 23.1855C57.5509 25.2166 52.8872 29.58 48.6743 29.956C47.0191 30.1104 40.3984 26.2697 37.2394 23.8625C36.2604 23.1052 38.1411 20.8478 39.4982 20.6989Z" fill="#3D9CFB"/>
<path d="M132.704 24.6848C132.931 25.2113 133.005 25.3618 133.608 25.5124C134.21 25.6629 137.068 25.4352 139.398 25.4352C139.586 25.4386 139.768 25.3706 139.907 25.2449C140.047 25.1192 140.133 24.9453 140.15 24.7581C140.15 23.8556 139.623 24.0062 135.185 23.9305C136.238 22.5772 137.065 20.7715 137.969 19.6428C138.57 18.8909 137.292 17.6873 136.84 18.3636C136.686 18.589 134.658 21.8245 133.752 23.1037C133.3 21.8994 132.473 19.6428 132.247 18.9657C132.022 18.2887 130.743 18.8885 130.968 19.6428C131.462 21.3515 132.042 23.0343 132.704 24.6848Z" fill="#3D9CFB"/>
<path d="M107.653 29.7255C109.373 30.3253 111.132 30.8028 112.919 31.1544C110.436 33.6372 109.986 34.1653 110.963 34.7659C111.113 34.8431 111.415 34.9913 111.565 34.7659C113.145 32.9602 113.897 32.2831 114.653 31.4555C115.41 30.6279 115.255 30.252 113.223 25.5111C112.998 24.9846 111.72 25.7365 112.02 26.5641C112.451 27.6223 112.828 28.702 113.148 29.7988C111.497 29.4299 109.865 28.978 108.259 28.4447C107.883 28.2903 107.582 28.3675 107.356 28.8963C107.352 29.1989 107.277 29.5772 107.653 29.7255Z" fill="#3D9CFB"/>
<path d="M116.53 21.3742C117.208 21.5996 120.292 22.5029 120.893 22.6534C121.158 22.7614 121.448 22.7904 121.728 22.737C122.008 22.6835 122.267 22.5499 122.474 22.3524C122.924 21.9007 125.33 18.9671 125.783 18.3649C126.236 17.7628 126.084 17.613 125.558 17.3119C125.031 17.0865 124.881 17.1575 122.098 20.6972C121.495 19.1176 120.818 16.936 120.442 15.8829C120.292 15.5062 118.712 15.2808 119.013 16.2589C119.436 17.8711 119.964 19.4542 120.592 20.9983C119.84 20.8439 117.809 20.1707 116.981 20.0201C116.53 19.8696 115.85 21.1488 116.53 21.3742Z" fill="#3D9CFB"/>
<path d="M85.611 102.923C80.796 100.968 74.1012 101.042 71.2416 111.123C68.6091 118.796 75.7556 124.438 75.7556 124.438C75.7556 124.438 87.7927 116.389 95.5414 113.906C99.3782 106.006 92.607 93.5948 85.611 102.923Z" fill="#3D9CFB"/>
<path d="M111.039 107.964C109.459 105.331 107.428 104.428 105.622 104.654C103.29 104.879 96.8988 107.964 102.839 123.762C107.503 136.1 113.07 137.303 118.11 136.325C138.498 131.963 132.027 97.8831 111.039 107.964Z" fill="#3D9CFB"/>
<path d="M19.8608 129.178C18.9575 129.024 18.8826 131.209 18.2056 131.133C17.8296 131.133 17.0769 128.651 15.7228 128.953C14.3687 129.254 14.0676 133.917 13.3906 134.068C12.9397 134.145 11.6605 129.554 11.6605 126.921C11.6605 126.545 11.5833 126.169 11.2089 126.169C9.32828 126.394 11.51 135.948 13.4662 135.873C14.9709 135.796 15.5723 130.607 16.0239 130.532C16.5504 130.455 17.0769 132.714 18.3561 132.563C20.0113 132.485 20.6884 129.328 19.8608 129.178Z" fill="#3D9CFB"/>
<path d="M82.7526 70.6476C94.714 63.5752 124.73 67.4121 131.877 75.5375C131.877 75.5375 132.404 72.2271 134.51 70.7973C132.102 41.7614 84.7081 45.5234 82.7526 70.6476Z" fill="#3D9CFB"/>
<path d="M80.3455 42.665C79.2917 41.9123 77.2575 40.9342 76.1319 40.1822C75.8316 39.956 75.6811 39.6557 76.0547 39.4295C81.8448 36.1948 84.0288 36.3415 81.922 32.4336C79.6654 28.2207 78.2356 30.7027 73.1983 33.035C73.1428 33.0665 73.079 33.0804 73.0155 33.0747C72.9519 33.0691 72.8916 33.0441 72.8425 33.0033C72.7935 32.9624 72.7581 32.9075 72.7412 32.846C72.7242 32.7845 72.7263 32.7192 72.7474 32.659C73.7248 26.4899 73.6499 25.5125 69.8138 25.4369C67.6321 25.4369 66.2031 25.9634 66.0526 27.6935C65.8264 29.4243 65.3755 32.7347 65.1493 35.3672C64.7734 38.9787 64.9239 41.7617 67.5572 43.4918C71.1679 45.824 75.0048 48.3817 77.4868 48.7584C79.7434 49.0588 83.0537 44.3951 80.3455 42.665ZM66.4278 36.8749C67.1048 29.1263 67.1048 26.7192 69.5876 26.7948C71.9947 26.872 72.0704 27.0203 71.6936 30.4055C71.4682 31.985 71.0166 34.0162 71.9947 34.5427C73.1983 35.1449 76.4338 32.8883 78.0882 32.0599C79.2169 31.5342 79.7434 31.308 80.571 33.1137C81.248 34.4678 81.1731 35.0692 79.5928 35.8929C74.8566 38.4552 74.0259 38.6019 74.1764 39.8055C74.327 41.009 78.0133 42.8935 79.5179 43.9434C80.2699 44.4699 79.4407 45.4481 79.3674 45.6743C79.218 46.0638 78.9628 46.4038 78.6306 46.656C78.2983 46.9083 77.9021 47.0626 77.4868 47.1017C75.004 46.8763 71.242 44.0909 68.3841 42.2867C66.8794 41.2345 66.2772 39.1292 66.4278 36.8718V36.8749Z" fill="#3D9CFB"/>
<path d="M144.741 36.0443C143.688 35.8189 139.55 34.9913 138.046 34.6153C139.174 33.7877 140.001 33.035 141.356 31.982C142.108 31.3798 140.979 30.4774 140.529 30.929C136.316 34.1637 135.563 34.0132 136.165 35.5178C137.745 39.4296 138.347 41.1596 138.944 41.0099C140.224 40.7088 139.621 40.1066 138.042 36.2697C140.073 36.797 143.082 37.4741 143.986 37.6246C144.89 37.7751 145.495 36.1948 144.741 36.0443Z" fill="#3D9CFB"/>
<path d="M42.6551 84.6428C42.5007 86.0718 41.9031 89.6076 41.0755 89.6076C40.6239 89.6076 40.3977 86.8994 38.5928 87.2004C36.11 87.5764 36.7122 95.701 36.0351 95.701C35.3581 95.701 35.2075 91.7893 33.7778 91.8649C31.8971 91.8649 31.5212 101.494 30.9947 101.494C29.9409 101.494 29.5649 85.8463 26.7818 85.9961C25.2772 86.0733 25.4277 89.5327 24.9761 89.457C24.6001 89.3798 24.299 87.727 23.3209 87.8018C20.9895 87.9562 21.9668 99.6908 20.9138 99.7641C19.7102 99.8413 18.8826 85.7715 17.002 86.0718C15.9482 86.2262 15.7985 89.0054 15.1963 89.0826C14.4444 89.1598 13.5411 86.5998 12.8641 87.1263C12.1121 87.6536 13.9179 91.0381 15.5723 90.7378C16.5504 90.5116 16.6253 88.4804 17.002 88.4804C17.754 88.4032 18.2056 101.872 20.9138 101.646C23.7702 101.42 22.7944 90.2862 23.6977 90.2862C24.299 90.2862 24.4496 91.4897 25.2772 91.4897C26.3302 91.4125 26.3302 88.1801 26.8567 88.1045C28.2108 88.0273 28.0603 103.301 31.0696 103.226C33.5523 103.149 33.3269 94.123 34.0804 94.0474C34.532 94.0474 34.6825 97.2829 36.2621 97.3577C38.7448 97.4349 38.1427 88.6341 38.9703 88.5569C39.4968 88.5569 39.7979 91.0396 41.3025 91.0396C43.8602 91.1168 44.0107 86.2246 43.8602 84.9454C43.6332 83.6647 42.8056 83.2887 42.6551 84.6428Z" fill="#3D9CFB"/>
<path d="M53.7886 133.692C52.961 133.466 52.5094 135.347 52.1342 135.347C51.8323 135.424 51.4564 133.241 50.2528 133.315C48.6733 133.393 47.9962 136.626 47.3964 136.55C46.795 136.4 46.2677 132.112 45.2903 132.337C45.1135 132.401 44.9679 132.53 44.8838 132.699C44.7997 132.867 44.7836 133.061 44.8387 133.241C45.7412 138.056 47.0204 138.281 47.472 138.281C48.6756 138.281 49.6537 134.896 50.1802 134.971C50.7816 135.048 50.7068 136.927 51.9852 136.927C53.7886 136.927 54.6919 133.918 53.7886 133.692Z" fill="#3D9CFB"/>
<path d="M64.9231 55.679C63.6446 54.7765 61.6127 54.0238 61.0862 53.4216C60.5597 52.8195 60.7102 48.5317 61.009 47.9303C61.3077 47.3289 63.4161 46.2751 64.7702 45.2221C66.1251 44.0935 64.9964 42.9648 63.9426 41.6863C62.9652 40.4071 61.8366 39.5046 60.7079 39.8806C59.7298 40.1817 58.6767 41.0842 57.3226 41.9118C56.194 41.0842 53.4109 39.5046 52.9593 39.0553C52.5076 38.5288 52.6582 36.1989 52.6582 35.2941C52.581 33.6389 51.9811 33.0368 48.897 33.1124C46.2636 33.1896 45.6622 33.564 45.5866 34.993C45.5094 35.8206 45.741 37.8495 45.3612 38.5288C44.9813 39.2082 41.224 41.9897 40.3207 41.7635C39.1195 41.3488 37.9609 40.8199 36.8606 40.184C34.6032 38.9805 32.271 43.4936 32.6478 44.9234C33.0237 46.6534 36.7849 47.4061 37.1609 48.3086C37.3871 48.91 37.1609 52.672 36.7101 53.1985C36.1835 53.8756 35.1305 54.3272 33.3248 55.4559C30.6915 57.4862 34.6032 62.2264 36.6344 61.4775C38.515 60.7256 40.0953 59.3707 40.7724 59.6726C41.4494 59.9744 43.6288 61.4775 45.2106 62.4557C45.7371 62.7567 45.5866 64.5625 45.7371 66.0663C45.8143 67.7215 46.1888 69.0772 48.521 68.9228C50.4765 68.8456 51.3774 68.6224 51.9062 68.0203C52.5833 67.1927 52.3579 63.5063 52.5833 62.8293C52.8844 62.0774 57.1721 59.8957 57.924 59.8185C58.676 59.7413 60.1814 60.4955 61.2352 61.022C62.1369 61.4737 63.8677 60.7966 64.6197 59.2171C65.5252 57.4839 66.2023 56.5814 64.9231 55.679ZM62.2149 59.8162C61.2367 59.8162 58.9053 58.2366 57.5504 58.4621C56.2719 58.6875 52.811 60.6437 51.7603 61.4729C50.1052 62.6764 51.2338 66.6639 50.7073 67.0398C50.1808 67.4915 47.9235 67.7169 47.3969 67.117C46.8704 66.5172 47.8486 62.3769 45.8923 61.0954C43.8612 59.7413 42.206 58.1617 40.4759 58.0073C39.4978 57.9301 36.9401 59.9636 36.1125 59.8887C35.2849 59.7382 34.0814 58.083 33.9308 57.1805C33.8536 56.4278 38.3699 54.8483 38.5196 53.268C38.9713 47.2463 39.0461 47.1745 36.4885 45.971C35.8122 45.6707 34.3068 44.9928 34.3068 44.3915C34.3068 43.5639 35.2849 41.9843 36.1125 41.7581C36.5641 41.6037 38.0688 42.6614 39.4978 43.4133C41.2286 44.3158 44.0874 41.7581 45.5912 40.7051C47.6224 39.351 47.3221 39.1256 47.0959 36.8682C46.9415 35.1382 46.7956 34.536 48.9016 34.6117C51.0084 34.6117 51.0084 34.8371 51.0084 35.0625C51.1582 39.5764 50.4062 39.5016 53.1144 41.007C56.4997 42.8876 57.0262 43.7152 58.1549 43.113C59.9567 41.9118 60.7859 41.2339 61.4629 41.3111C62.14 41.3883 63.7952 43.5677 63.7952 44.0942C63.7952 44.6207 60.5597 45.9741 59.8795 47.4787C59.5132 48.5156 59.3598 49.6158 59.4287 50.7134C59.4287 52.2937 59.5059 53.5698 60.1057 54.3997C60.9326 55.5284 63.867 56.5066 64.0175 56.9574C64.246 57.4839 63.193 59.7413 62.2149 59.8162Z" fill="#3D9CFB"/>
<path d="M49.0496 43.2662C47.5449 43.1118 42.5801 46.5766 42.5045 46.6515C41.602 47.3285 41.8274 52.0679 41.9031 53.5725C41.9803 54.7768 48.222 58.5381 48.9747 58.5381C49.952 58.4609 54.9925 55.152 55.3684 54.7768C55.9706 54.099 56.1212 47.855 55.519 47.0274C55.0681 46.3504 50.2531 43.3419 49.0496 43.2662ZM54.2436 53.7979C52.5571 54.9845 50.7984 56.0651 48.9778 57.0334C47.0145 55.9461 45.1513 54.6872 43.4101 53.2714C43.3188 51.4412 43.3446 49.6071 43.4873 47.7801C44.6152 46.9525 48.1509 44.7693 48.828 44.7693C49.5807 44.8465 53.643 47.327 54.2452 47.9291C54.5416 48.6826 54.466 52.8955 54.2436 53.7979Z" fill="#3D9CFB"/>
<path d="M52.5101 71.3272C49.0499 69.371 47.0937 71.0261 39.6461 74.7874C39.1945 75.0128 39.345 76.3669 41.1508 75.5401C48.674 72.154 49.0499 71.0261 51.833 72.6836C56.4226 75.4675 62.3655 79.2287 59.8827 81.3355C58.5286 82.4634 57.9265 82.0126 57.0263 81.2583C56.9526 81.2 56.8643 81.1632 56.771 81.1518C56.6777 81.1405 56.583 81.1551 56.4975 81.194C56.4119 81.2329 56.3388 81.2947 56.2861 81.3725C56.2334 81.4503 56.2032 81.5412 56.1987 81.6351C56.1215 82.387 57.4779 83.5157 58.3804 83.5157C60.1113 83.5157 62.1416 81.5594 62.2173 80.281C62.3655 77.0439 55.6699 73.1322 52.5101 71.3272Z" fill="#3D9CFB"/>
<path d="M36.9372 140.839C35.5831 140.237 36.7828 132.714 36.2601 132.488C35.7375 132.262 35.3577 132.411 35.0566 133.843C34.7555 135.275 33.7774 141.591 35.5074 142.494C36.1853 142.87 37.9153 142.87 41.15 142.87C45.8145 142.87 47.3191 142.947 47.0945 141.967C46.717 140.312 38.367 141.518 36.9372 140.839Z" fill="#001434"/>
<path d="M104.644 138.13C101.259 137.378 86.6639 134.52 77.7873 134.52C59.6567 134.52 57.2519 134.143 57.0975 138.657C57.323 140.086 58.1506 141.14 59.4298 141.214C71.4661 142.343 103.511 142.418 103.89 142.418C106.976 142.418 107.352 138.732 104.644 138.13ZM75.6049 140.312C69.2111 140.158 62.4398 140.158 59.2808 139.41C58.0772 139.033 58.5281 137.002 59.5062 136.626C60.4843 136.25 62.8914 135.873 75.7554 136.099C75.3983 136.739 75.1984 137.455 75.1723 138.187C75.1461 138.92 75.2944 139.648 75.6049 140.312ZM104.418 141.065C98.7002 140.763 90.0491 140.987 77.4855 140.387C76.0565 140.31 75.8311 136.099 78.3887 136.174C87.0213 136.614 95.6157 137.62 104.117 139.185C105.847 139.559 105.622 141.065 104.418 141.065Z" fill="#001434"/>
<path d="M60.0334 104.503C58.9804 94.8744 57.4001 86.1468 54.1662 83.3638C51.1554 80.7304 40.1736 81.0315 29.1153 81.8591C10.3833 83.1376 7.97545 84.0408 6.16973 86.373C4.66586 88.3285 4.13935 95.0967 5.71887 106.986C6.84678 115.035 8.35219 123.009 10.1571 124.364C12.1883 125.944 16.1788 126.771 21.7427 127.899C20.1624 138.883 20.238 141.516 20.8394 142.269C21.5165 143.171 27.4601 142.87 30.7705 142.946C32.726 143.023 32.1246 141.291 30.4694 141.065C28.5132 140.763 24.6022 141.291 22.8713 140.463C21.8183 139.936 23.1716 131.739 23.5484 128.276C28.5888 129.179 34.3055 130.006 39.4965 130.683C40.0238 134.143 41.6033 137.679 42.2804 137.905C44.0104 138.582 41.6033 133.767 41.4528 130.909C47.7717 131.661 53.1101 131.811 54.6935 131.887C65.0731 132.037 62.4398 128.426 60.0334 104.503ZM58.9797 129.328C54.4657 131.36 21.7419 126.85 12.8638 123.685C11.8674 123.301 11.0585 122.546 10.6072 121.579C8.04956 115.109 4.66277 91.8636 7.6736 87.5751C9.32801 85.1679 11.1337 85.0174 29.1138 83.7382C39.4201 82.9862 50.4783 82.7608 52.8862 84.8669C55.4439 87.1991 57.0234 95.9259 58.0772 104.802C60.7854 125.567 61.1614 128.351 58.9797 129.328Z" fill="#001434"/>
<path d="M11.5855 92.8427C10.6822 91.8653 9.40376 90.5104 9.17756 91.1875C8.87725 91.9402 9.70485 92.6172 10.5317 93.8208C9.70485 95.5509 10.7579 98.6358 11.5855 107.362C11.9614 111.199 12.9396 109.318 12.8639 108.34C12.1868 99.0118 10.9833 95.6265 12.1868 94.3473C12.7141 93.8208 13.7671 93.6703 15.3467 93.3692C16.5502 93.2186 15.9519 92.0907 11.5855 92.8427Z" fill="#001434"/>
<path d="M47.0184 93.3685C47.7703 94.1212 48.9746 99.4619 49.576 105.406C49.6532 105.782 49.8022 106.459 50.0276 106.158C51.1556 104.954 50.1048 95.8512 48.899 92.8419C52.5853 89.7539 50.8552 87.2001 50.3287 88.4037C49.6261 89.8086 48.5929 91.022 47.3179 91.9395C44.6846 91.8623 41.5278 91.8623 41.1488 92.5416C40.3227 93.895 46.1908 92.5416 47.0184 93.3685Z" fill="#001434"/>
<path d="M50.8552 115.411C50.778 119.399 51.0807 122.107 49.7266 123.009C47.3943 124.59 30.0913 121.806 27.3831 120.978C25.8793 120.527 26.4807 122.182 28.6624 122.708C34.9009 124.04 41.2445 124.82 47.6198 125.041C53.2624 125.267 52.3599 120.151 51.9083 114.208C51.9083 113.305 50.9301 112.928 50.8552 115.411Z" fill="#001434"/>
<path d="M122.398 59.4402C123.435 62.0672 124.094 64.8282 124.354 67.6405C124.347 67.7234 124.362 67.8067 124.398 67.8818C124.434 67.9568 124.49 68.0208 124.559 68.0669C124.628 68.113 124.709 68.1397 124.792 68.144C124.875 68.1483 124.958 68.1301 125.031 68.0913C126.836 67.7902 124.656 60.7194 123.527 58.838C122.925 57.8607 121.571 57.7101 122.398 59.4402Z" fill="#001434"/>
<path d="M105.923 86.9748C103.785 87.181 101.628 87.0539 99.5289 86.598C97.5726 86.0715 98.0991 91.7141 102.764 92.0901C106.449 92.3155 109.384 86.8242 105.923 86.9748Z" fill="#001434"/>
<path d="M100.807 81.7837C103.139 81.9342 99.6034 76.9694 104.719 77.2705C105.245 77.2705 105.772 76.8938 105.697 76.4429C105.546 75.1637 101.785 74.8634 100.431 76.6683C99.6034 77.797 98.8507 81.7088 100.807 81.7837Z" fill="#001434"/>
<path d="M141.582 93.3688C148.127 87.1248 148.202 71.477 139.4 68.9193C140.077 64.7065 137.444 53.5726 135.639 50.1874C130.147 40.257 91.7045 39.1291 82.7562 48.9081C78.9154 53.0461 77.9373 58.9134 77.7899 65.6846C66.8814 68.3179 64.5492 85.0937 72.9749 91.7144C69.8868 93.2939 64.8502 97.2813 64.0196 99.4623C63.7185 100.215 64.3207 101.043 64.9977 100.29C68.3073 96.6792 70.865 94.648 74.3259 93.2183C75.6459 96.3333 77.8408 98.9989 80.6447 100.892C69.5109 101.343 66.5772 119.548 74.5513 124.515C73.1223 126.246 74.0248 126.923 74.4741 126.472C80.4185 121.281 94.3347 114.36 99.4501 113.607C100.127 124.139 105.845 137.23 115.925 137.308C126.833 137.462 134.959 122.485 130.52 113.535C129.677 111.713 128.466 110.083 126.965 108.749C125.464 107.415 123.704 106.405 121.794 105.782C126.534 103.675 133.683 99.0114 134.734 95.3251C136.465 96.6792 138.947 95.7759 140.376 94.648C152.413 102.622 152.111 124.815 143.387 135.497C142.861 136.099 144.064 137.829 146.244 134.595C153.167 124.514 154.596 101.72 141.582 93.3688ZM83.9559 50.2622C92.1561 41.0846 129.47 42.2133 134.136 51.2404C135.866 54.5507 137.296 61.1707 137.596 66.1401C134.508 54.2512 119.918 48.3839 107.279 48.912C88.6227 49.6647 81.8522 57.4133 79.8959 65.3125C79.2165 61.0958 81.0215 53.5726 83.9559 50.2622ZM105.096 66.1363C95.316 66.2135 90.196 67.3398 85.5354 68.9193C84.257 69.2961 83.0534 69.8226 81.8498 70.2734C81.5488 70.3506 81.2477 70.4996 81.0215 70.5745V70.424C81.3982 58.2371 90.501 51.3909 107.277 50.7895C119.69 50.3379 134.434 56.2808 136.09 68.6939C133.983 69.1448 132.479 71.1767 131.501 73.9598C127.965 70.5745 115.025 65.6846 105.096 66.1363ZM124.505 80.7272C123.704 81.632 122.658 82.2855 121.494 82.6086C119.616 78.5681 117.401 74.6926 114.874 71.0231C115.72 70.8766 116.574 70.7761 117.432 70.722C126.611 70.1986 127.662 76.4426 124.505 80.7303V80.7272ZM95.993 76.0635C96.0702 79.2982 93.5851 81.1039 90.5758 82.008C88.8514 78.319 86.8379 74.7721 84.5542 71.4006C90.2755 69.4466 95.9174 72.3046 95.993 76.0666V76.0635ZM69.8127 81.7053C69.1357 75.5401 71.9226 67.7914 79.5176 67.1893C79.3671 68.0169 79.2914 68.8445 79.2165 69.6721C77.1854 69.9731 71.1668 71.9286 69.8127 81.7084V81.7053ZM94.6382 113.226C88.3193 115.559 79.2914 120.147 75.9062 123.307C67.4056 117.363 73.6496 98.2556 85.2343 103.597C85.4 103.67 85.5848 103.687 85.7611 103.647C85.9374 103.606 86.096 103.51 86.2132 103.372C88.5447 100.814 90.8769 100.136 92.7575 101.34C95.3144 103.072 96.5944 108.189 94.6382 113.229V113.226ZM99.4532 111.872C98.5613 112.006 97.681 112.207 96.8198 112.474C97.1049 111.442 97.2814 110.383 97.3463 109.315C98.1114 109.507 98.8918 109.633 99.6786 109.691C99.5626 110.413 99.4873 111.142 99.4532 111.873V111.872ZM128.867 114.506C133.079 123.384 123.751 138.129 112.918 135.195C107.128 133.616 102.16 123.76 101.332 115.486C100.43 106.834 104.792 105.781 106.147 105.631C108.028 105.476 110.134 107.06 111.112 110.219C111.266 110.671 111.564 110.972 112.014 110.822C112.617 110.596 112.692 109.166 112.391 108.414C117.358 105.556 125.558 107.588 128.868 114.509L128.867 114.506ZM118.035 105.255C118.014 105.255 117.994 105.264 117.98 105.278C117.966 105.292 117.957 105.312 117.957 105.333C115.703 105.231 113.465 105.752 111.487 106.837C110.806 105.763 109.818 104.917 108.652 104.408C107.486 103.899 106.194 103.75 104.943 103.981C103.885 104.227 102.901 104.725 102.076 105.432C101.251 106.139 100.609 107.034 100.204 108.042C99.2697 107.87 98.3414 107.669 97.4197 107.441C97.3425 100.444 91.2506 95.552 85.232 101.723C73.6473 96.1565 74.6254 84.6467 77.4085 80.1327C78.8383 83.1436 82.5995 84.571 86.2094 84.6467C93.2802 84.7964 97.493 80.8098 97.8667 76.8224C98.167 73.6633 96.061 70.5035 91.2459 69.2243C98.9448 67.7444 106.85 67.6934 114.568 69.0737C104.712 71.1049 105.689 85.8502 118.103 84.947C126.453 85.1014 129.463 77.9511 127.058 73.1353C128.472 73.8466 129.808 74.7038 131.044 75.6929C129.855 80.7646 130.037 86.0614 131.571 91.0397C128.56 94.2751 120.588 95.7041 115.623 95.4031C115.247 91.3407 105.843 91.4164 105.843 96.1558C105.766 100.519 113.968 101.346 115.472 97.2088C122.243 97.5099 129.013 95.5536 132.399 92.7705C132.625 93.2214 132.926 93.673 133.151 94.049C131.802 98.7103 123.301 103.826 118.035 105.255ZM139.099 73.2827C136.165 72.6057 133.682 74.3357 132.404 78.0977C132.93 73.9598 134.359 70.3491 137.218 70.3491C144.741 70.2719 146.019 81.5579 142.785 88.404C144.816 81.7084 142.259 74.0347 139.099 73.2827Z" fill="#001434"/>
<path d="M64.9982 109.844C65.3741 108.415 68.2329 105.33 70.8654 104.427C71.2414 104.273 71.6181 103.75 71.317 103.449C70.7149 102.998 67.6307 103.825 65.4498 106.46C64.0208 108.266 63.3438 110.221 64.2462 110.372C64.4151 110.395 64.5864 110.353 64.7258 110.255C64.8653 110.158 64.9625 110.011 64.9982 109.844Z" fill="#001434"/>
<path d="M130.147 61.9241C129.244 60.6449 129.018 61.5481 129.319 62.4506C129.858 64.3495 130.26 66.2844 130.523 68.2407C130.824 70.3475 131.651 69.2188 131.651 68.8428C131.877 65.0832 131.2 63.428 130.147 61.9241Z" fill="#001434"/>
<path d="M134.886 103.976C133.231 102.848 133.532 104.277 134.134 104.803C136.766 106.985 139.099 109.468 140.303 111.725C141.896 115.209 142.594 119.036 142.333 122.859C142.256 124.063 143.161 124.363 143.311 123.535C144.064 118.646 143.387 109.618 134.886 103.976Z" fill="#001434"/>
<path d="M121.496 62.1487C119.826 61.1218 117.995 60.3842 116.079 59.967C115.991 58.1758 115.662 56.4045 115.101 54.7012C114.499 52.8955 113.747 53.1217 113.972 54.5468C114.198 55.9719 114.274 57.1801 114.499 59.5872C111.697 59.0303 108.854 58.7032 105.998 58.6091C106.374 56.0514 106.525 54.6224 106.977 53.4938C107.126 53.1178 107.353 52.5156 107.126 52.3651C106.149 51.7637 104.945 54.9228 104.347 58.5342C102.154 58.5068 99.9627 58.6831 97.802 59.0607C98.1362 57.4659 98.6145 55.9046 99.231 54.3962C99.3854 54.0203 99.7583 53.2676 99.3082 53.3432C98.2552 53.4204 96.8254 56.3541 96.0735 59.4367C93.9667 59.9632 91.5596 61.0162 91.4847 61.7689C91.4783 61.8611 91.4959 61.9533 91.5357 62.0366C91.5755 62.12 91.6362 62.1916 91.7119 62.2446C91.7875 62.2976 91.8756 62.3301 91.9676 62.339C92.0595 62.3479 92.1522 62.3329 92.2366 62.2954C93.3572 61.8447 94.515 61.4923 95.6967 61.2424C95.3215 62.9725 95.2459 63.1979 95.0953 64.0988C94.8699 65.2267 95.4713 65.0013 95.9229 64.6253C96.2989 64.2486 96.6756 63.2712 97.4276 60.939C99.663 60.5233 101.926 60.272 104.198 60.1871C104.105 61.1985 103.954 62.2038 103.746 63.1979C103.446 64.6277 103.824 64.928 104.198 64.7782C105.026 64.4771 105.327 62.8219 105.778 60.1137C108.761 60.1161 111.735 60.4184 114.656 61.0162C114.747 62.2699 114.721 63.5293 114.579 64.7782C114.502 65.229 114.805 65.4552 115.256 65.3796C116.159 65.1542 116.084 63.499 116.234 61.3173C117.998 61.6915 119.733 62.1944 121.425 62.8219C122.026 63.2774 122.098 62.5247 121.496 62.1487Z" fill="#001434"/>
<path d="M87.9434 122.031C87.7172 125.718 89.5229 131.134 92.2311 133.541C93.2841 134.52 93.9612 133.843 93.5103 133.391C91.1032 130.983 88.8459 123.536 89.147 120.301C89.2226 119.323 88.0939 119.775 87.9434 122.031Z" fill="#001434"/>
<path d="M90.3507 58.99C89.4482 59.0672 88.7711 60.9463 88.0184 63.7301C87.7173 64.7832 87.5668 66.8892 88.0184 66.8892C89.1471 66.812 88.7711 63.5788 90.3507 60.1187C90.8015 59.139 90.5761 58.9128 90.3507 58.99Z" fill="#001434"/>
</svg>
