<svg width="156" height="155" viewBox="0 0 156 155" fill="none" xmlns="http://www.w3.org/2000/svg">
<path d="M75.6363 29.7582L64.1696 14.4582C63.9761 14.2051 63.5711 14.2817 63.4875 14.5937C63.4612 14.6913 60.7397 24.3687 48.7574 26.0588C34.7194 28.0386 25.4098 34.5741 25.3177 34.6399C25.1644 34.749 25.1117 34.9511 25.1923 35.1207L34.244 54.1828C34.3733 54.4561 34.7566 54.4832 34.9215 54.2238C34.9664 54.1518 39.5446 47.0294 47.3838 45.9819C59.353 44.3792 71.5343 42.7246 75.6967 30.1136C75.7362 29.9928 75.7145 29.8596 75.6371 29.7574L75.6363 29.7582Z" fill="#81F8F8"/>
<path d="M33.9983 54.2988L24.9465 35.2375C24.8103 34.9487 24.9001 34.6041 25.1602 34.4191C25.2531 34.3533 34.6317 27.7775 48.72 25.7908C60.4731 24.1331 63.2 14.6199 63.2263 14.5231C63.3687 13.9959 64.054 13.8604 64.3854 14.294L75.8535 29.5947C75.9836 29.7674 76.0223 29.9934 75.9542 30.1986C71.7314 42.9947 59.3728 44.65 47.4199 46.2512C39.703 47.2825 35.1968 54.2972 35.1512 54.3677C34.8647 54.819 34.2143 54.7548 33.9991 54.298L33.9983 54.2988ZM63.9015 14.5835C63.8442 14.5642 63.7698 14.5905 63.7497 14.6648C63.7226 14.7639 60.926 24.6171 48.795 26.3281C34.8368 28.2963 25.5667 34.7961 25.4746 34.8612C25.4289 34.8937 25.4126 34.9549 25.4366 35.0052L34.4892 54.0665C34.5287 54.154 34.6463 54.1532 34.6936 54.0781C34.7385 54.0069 39.3313 46.7846 47.3487 45.7131C59.1351 44.1344 71.3235 42.5023 75.4402 30.0291C75.4696 29.9362 75.4773 29.9958 63.9022 14.5828L63.9015 14.5835Z" fill="black"/>
<path fill-rule="evenodd" clip-rule="evenodd" d="M27.4697 35.7578L34.7469 50.5429C34.7469 50.5429 40.0072 44.3311 47.416 43.4174C54.8248 42.5038 68.8302 41.8186 72.9887 30.2134L64.321 17.8633C64.321 17.8633 60.4675 26.3336 49.1581 27.8062C36.2877 29.4817 27.4697 35.7578 27.4697 35.7578Z" fill="white"/>
<path d="M40.7825 42.6232L40.2328 41.6361C40.6881 41.3906 41.0303 41.0105 41.1929 40.5637C41.7883 38.9215 39.8131 37.4605 38.0239 38.1465C36.6325 38.6831 35.1359 37.5921 35.5602 36.4207C36.017 35.1602 38.1756 35.0325 38.8631 36.2651C39.035 36.5794 39.512 36.3139 39.3362 36.0011C38.8314 35.0936 37.6042 34.6546 36.5172 34.9589L35.9349 33.9121C35.7584 33.6001 35.2869 33.8618 35.4603 34.1754L36.0092 35.1633C35.5548 35.4088 35.2125 35.7881 35.05 36.2364C34.4577 37.8717 36.4227 39.3466 38.2182 38.6529C39.6157 38.1171 41.1069 39.2096 40.6826 40.3794C40.2289 41.6314 38.0719 41.777 37.3797 40.5351C37.2086 40.2231 36.7301 40.4847 36.9066 40.7991C37.423 41.7297 38.6649 42.1385 39.7257 41.8412L40.3087 42.8888C40.4767 43.1962 40.959 42.9407 40.7817 42.6248L40.7825 42.6232Z" fill="black"/>
<path d="M65.5896 34.8674L64.8827 33.6983C65.5656 33.0534 65.6987 31.9005 65.1537 31.0001C64.5637 30.0229 63.3675 29.6714 62.4841 30.2893C61.9111 30.6896 61.0548 30.5138 60.5895 29.7434C59.8934 28.5929 60.663 27.1807 61.8236 27.4253C62.2162 27.502 62.5684 27.7745 62.7984 28.1539C62.9827 28.4613 63.448 28.181 63.2622 27.8744C62.7326 26.9964 61.7059 26.6116 60.8434 27.0189L60.1528 25.8768C59.9685 25.5695 59.5032 25.8497 59.689 26.1563L60.3959 27.3255C59.713 27.9696 59.5806 29.1233 60.1249 30.0237C60.7234 31.0148 61.9212 31.3438 62.7937 30.7337C63.4294 30.2908 64.2679 30.5835 64.6883 31.2803C65.3844 32.4316 64.6117 33.8447 63.455 33.5977C63.0663 33.5195 62.7086 33.25 62.4794 32.8699C62.2928 32.564 61.8298 32.8428 62.0156 33.1494C62.5514 34.0359 63.5804 34.4091 64.4344 34.0049L65.125 35.1469C65.307 35.4497 65.7762 35.1756 65.5896 34.8674Z" fill="black"/>
<path d="M54.3173 38.485C55.1319 37.9232 54.5932 35.7294 53.1142 33.585C51.6352 31.4406 49.7759 30.1576 48.9614 30.7194C48.1468 31.2812 48.6855 33.475 50.1645 35.6194C51.6435 37.7639 53.5028 39.0468 54.3173 38.485Z" fill="#FFD997"/>
<path d="M49.7216 35.4443C48.7925 34.0042 47.4964 31.0101 48.9876 30.3985C50.221 29.8929 52.2612 31.7511 53.5565 33.7595C54.4477 35.1416 55.8042 38.1836 54.2897 38.8061C52.838 39.4015 50.6314 36.855 49.7216 35.4443ZM49.1944 30.8994C48.184 31.3129 49.5118 34.1188 50.1777 35.1501C51.6062 37.3683 53.3854 38.5932 54.0838 38.3036C55.0949 37.8901 53.7663 35.0843 53.1005 34.0522C51.6712 31.8355 49.8958 30.6122 49.1944 30.8994Z" fill="black"/>
<path d="M73.2114 30.0579L64.5436 17.7078C64.4213 17.5367 64.1612 17.5615 64.0752 17.7512C64.0373 17.834 60.1413 26.1031 49.1229 27.5377C36.3338 29.2032 27.402 35.4738 27.313 35.5365C27.2054 35.6132 27.1682 35.758 27.2271 35.8772L34.5042 50.6631C34.5855 50.8319 34.8232 50.8721 34.9533 50.7188C35.0052 50.6569 40.2345 44.5759 47.4482 43.6871C48.0033 43.6189 48.5948 43.5516 49.2181 43.4811C56.7446 42.6279 69.3409 41.1994 73.2439 30.3049C73.2741 30.2228 73.2609 30.1307 73.2114 30.0579ZM71.484 32.8189C69.433 30.8244 69.9061 29.4703 71.642 28.7657L72.6864 30.2546C72.3465 31.1798 71.9408 32.0299 71.484 32.8189ZM64.3563 18.3838L66.391 21.2833C66.1247 21.6465 65.3094 22.5841 64.1728 22.2062C63.5797 22.0088 63.1825 20.8745 63.0493 20.3449C63.6966 19.5033 64.1263 18.7995 64.3563 18.3845V18.3838ZM30.2722 34.3666C31.1943 36.1908 30.6345 37.5287 28.9908 38.2325L27.8178 35.8485C28.1716 35.6116 29.0194 35.0658 30.2722 34.3666ZM34.8155 50.0653L33.6735 47.7457C34.1009 46.9335 34.5979 46.4868 35.1577 46.4411C36.0907 46.3652 36.9966 47.3307 37.3403 47.7441C36.1077 48.7375 35.2297 49.6209 34.8155 50.0653ZM47.3831 43.149C43.4252 43.6367 40.0595 45.6359 37.7662 47.4073C36.3245 45.6568 34.6049 45.2271 33.3901 47.1681L29.2316 38.7203C31.0728 37.9228 31.8586 36.2566 30.7561 34.1011C34.4028 32.1205 40.987 29.1428 49.1941 28.0743C56.2444 27.1568 60.4486 23.5078 62.6359 20.8583C62.8364 21.4792 63.2599 22.471 63.9986 22.7172C65.2033 23.1183 66.1998 22.3797 66.7177 21.7463L71.3238 28.3097C69.3301 29.1877 68.7734 30.987 71.196 33.2904C66.1378 41.3426 55.5794 42.1316 47.3831 43.149Z" fill="black"/>
<path d="M59.2656 19.9956L43.5259 9.14057C43.2611 8.96172 42.9026 9.1638 42.9227 9.48589C42.9289 9.58654 43.4283 19.6278 32.6074 25.0429C19.929 31.3871 13.1837 40.5458 13.1172 40.6379C13.0064 40.7896 13.0212 40.9987 13.1512 41.1342L27.7993 56.3242C28.0091 56.5426 28.3807 56.4458 28.4551 56.1469C28.4744 56.0649 30.5479 47.8555 37.6462 44.3675C48.4826 39.0383 59.5041 33.5938 59.4367 20.3138C59.4367 20.1868 59.3725 20.0676 59.2664 19.9956H59.2656Z" fill="#81F8F8"/>
<path d="M27.6031 56.5124L12.9559 41.3231C12.7344 41.0924 12.7104 40.7378 12.8978 40.4792C12.9651 40.3871 19.7631 31.1688 32.4863 24.8014C43.1006 19.49 42.6585 9.60282 42.6523 9.50294C42.6197 8.95786 43.226 8.61177 43.6781 8.91683L59.4195 19.7726C59.5975 19.8949 59.7059 20.097 59.7067 20.313C59.7764 33.7873 48.5869 39.2907 37.7652 44.6121C30.7776 48.0459 28.7382 56.1299 28.7173 56.2112C28.5888 56.7307 27.9523 56.8763 27.6031 56.5124ZM43.3112 9.34499C43.2508 9.34499 43.1888 9.39299 43.1935 9.47042C43.1997 9.57339 43.6843 19.8044 32.7279 25.2868C20.1223 31.5947 13.4026 40.7068 13.336 40.7982C13.3027 40.8439 13.3074 40.9066 13.3461 40.9468L27.9941 56.1361C28.0599 56.2066 28.1707 56.1686 28.1916 56.0827C28.2109 56.0014 30.2673 47.6921 37.5267 44.1251C48.1975 38.878 59.2329 33.4513 59.1655 20.3161C59.1632 20.2186 59.1895 20.2728 43.3112 9.34499Z" fill="black"/>
<path fill-rule="evenodd" clip-rule="evenodd" d="M15.5137 41.0126L27.1182 52.713C27.1182 52.713 30.1277 45.1502 36.8606 41.9262C43.5934 38.7022 56.6527 33.5952 56.9013 21.2691L44.7533 12.3196C44.7533 12.3196 43.7955 21.5758 33.5429 26.5712C21.8749 32.2558 15.5137 41.0126 15.5137 41.0126Z" fill="white"/>
<path d="M30.3194 43.2844L29.484 42.5233C29.837 42.1455 30.0407 41.6771 30.0531 41.2009C30.0949 39.4542 27.7574 38.6985 26.2794 39.918C25.1311 40.8695 23.3651 40.3113 23.3945 39.0655C23.4262 37.7245 25.4323 36.917 26.476 37.867C26.7393 38.1101 27.1063 37.7067 26.8407 37.4659C26.0734 36.766 24.7703 36.7404 23.8366 37.3745L22.9516 36.567C22.6845 36.3278 22.3214 36.7257 22.5854 36.9681L23.4201 37.7299C23.0678 38.1078 22.8634 38.5762 22.8525 39.0523C22.8115 40.7913 25.1435 41.564 26.6247 40.3345C27.7791 39.3814 29.5405 39.9435 29.5111 41.187C29.4793 42.5179 27.481 43.3425 26.4296 42.3855C26.1679 42.1439 25.7978 42.5442 26.0649 42.7866C26.8508 43.5043 28.1585 43.4965 29.069 42.8779L29.9555 43.6847C30.2126 43.9232 30.5888 43.5267 30.3202 43.2836L30.3194 43.2844Z" fill="black"/>
<path d="M51.3677 28.0363L50.3255 27.1529C50.7676 26.3244 50.5268 25.1886 49.724 24.5088C48.8537 23.7702 47.6079 23.8182 46.9668 24.6845C46.5511 25.2459 45.6839 25.3519 44.9971 24.7697C43.9713 23.901 44.2515 22.3169 45.43 22.1791C45.8271 22.1272 46.2476 22.2727 46.5859 22.5592C46.8584 22.7915 47.21 22.378 46.9366 22.1465C46.1547 21.4822 45.0591 21.4443 44.3716 22.1055L43.3534 21.2422C43.0809 21.0092 42.7294 21.4234 43.0027 21.6549L44.0448 22.5383C43.6019 23.3668 43.8443 24.5018 44.6464 25.1824C45.5291 25.9311 46.7694 25.8622 47.4027 25.0059C47.8642 24.3834 48.7523 24.3942 49.3732 24.9215C50.3991 25.7917 50.1173 27.3766 48.9412 27.5113C48.5479 27.5601 48.1228 27.4192 47.7845 27.1319C47.5104 26.9012 47.1604 27.3131 47.4337 27.5446C48.2235 28.2151 49.3182 28.2407 49.9988 27.5857L51.0169 28.449C51.2856 28.6781 51.6425 28.2693 51.3677 28.0363Z" fill="black"/>
<path d="M41.8327 35.053C42.4261 34.2612 41.2173 32.3529 39.1327 30.7907C37.0481 29.2285 34.8771 28.604 34.2838 29.3958C33.6904 30.1876 34.8992 32.0959 36.9838 33.6581C39.0684 35.2202 41.2393 35.8447 41.8327 35.053Z" fill="#FFD997"/>
<path d="M36.5086 33.6339C35.1699 32.5639 32.9873 30.1382 34.2067 29.0837C35.2148 28.2119 37.7404 29.3245 39.6079 30.8157C40.8924 31.8423 43.147 34.2944 41.9098 35.3667C40.7228 36.3934 37.8202 34.6815 36.5086 33.6339ZM34.5621 29.4932C33.736 30.2071 35.8876 32.4439 36.8469 33.2104C38.9072 34.8588 40.9838 35.4534 41.5536 34.9571C42.3805 34.2433 40.2281 32.0065 39.2688 31.2392C37.2085 29.5924 35.1358 28.9977 34.5621 29.4932Z" fill="black"/>
<path d="M57.0626 21.0518L44.9154 12.1022C44.7451 11.9791 44.5066 12.0852 44.4849 12.2927C44.4749 12.3833 43.4134 21.4621 33.4248 26.3291C21.8303 31.978 15.3592 40.7658 15.2949 40.8533C15.2167 40.9609 15.2283 41.1095 15.322 41.2032L26.9265 52.9037C27.0573 53.0384 27.295 53.0005 27.3701 52.8139C27.3995 52.7388 30.4214 45.3098 36.977 42.171C37.4811 41.9295 38.0215 41.6771 38.589 41.413C45.452 38.2084 56.9388 32.8459 57.1718 21.2755C57.1741 21.188 57.1323 21.1044 57.0619 21.0518H57.0626ZM56.3039 24.2192C53.7241 22.9812 53.7419 21.5473 55.1634 20.3263L56.6275 21.4048C56.5996 22.3905 56.4858 23.3258 56.3039 24.2192ZM44.9526 12.8037L47.8042 14.905C47.6671 15.3339 47.1925 16.4821 45.9955 16.4852C45.3707 16.4868 44.6328 15.5383 44.3378 15.0777C44.6831 14.0734 44.8666 13.2698 44.9526 12.8037ZM17.7268 38.8023C19.1816 40.2377 19.0763 41.6848 17.7423 42.8748L15.8709 40.988C16.1311 40.6512 16.7621 39.863 17.7268 38.8023ZM27.0302 52.2394L25.2092 50.4036C25.3563 49.4978 25.6853 48.9163 26.201 48.6941C27.0612 48.3248 28.2272 48.9519 28.6848 49.2353C27.8323 50.5693 27.2811 51.6874 27.0302 52.2402V52.2394ZM36.7432 41.6825C33.146 43.4044 30.5918 46.3706 28.9813 48.7808C27.0581 47.5799 25.2905 47.7201 24.7562 49.9468L18.1256 43.2612C19.6168 41.9194 19.832 40.0898 18.1008 38.3973C20.9276 35.3599 26.2219 30.4411 33.6617 26.8161C40.0531 23.702 42.8776 18.9056 44.1079 15.6978C44.4958 16.2228 45.2127 17.028 45.9916 17.0264C47.2614 17.0233 47.9706 16.006 48.2602 15.241L54.7159 19.9972C53.1047 21.4637 53.1504 23.3467 56.18 24.7597C53.9471 34.0035 44.1892 38.1109 36.7432 41.6833V41.6825Z" fill="black"/>
<path fill-rule="evenodd" clip-rule="evenodd" d="M27.4153 68.0487L26.4204 68.3901C23.1082 69.5267 21.5821 73.837 23.0137 78.0102C24.4453 82.1834 28.2972 84.6486 31.6094 83.512L32.9938 83.0188C36.0343 81.6887 37.3854 77.5565 36.0111 73.5505C34.5795 69.3773 30.7276 66.9121 27.4153 68.0487Z" fill="#FFD997"/>
<path d="M36.2677 73.463C34.7897 69.1535 30.7775 66.6086 27.3321 67.7909L26.3333 68.1338C20.7966 70.0323 20.8679 79.4007 26.4611 82.9801C28.7095 84.4194 30.728 84.3056 33.1119 83.2643C35.9642 82.0185 37.8216 77.9893 36.2669 73.463H36.2677ZM32.8649 82.7796C29.3715 84.2855 25.58 81.4123 24.266 77.5813C22.884 73.5528 24.3365 69.3912 27.504 68.3049C30.6738 67.2233 34.3739 69.6119 35.7552 73.6388C37.2317 77.9397 35.4563 81.6623 32.8649 82.7796Z" fill="black"/>
<path fill-rule="evenodd" clip-rule="evenodd" d="M31.3913 78.8682C30.6736 79.1268 29.8901 78.6476 29.6136 77.8238C29.5478 77.6271 29.3341 77.5217 29.1383 77.5876C28.9424 77.6534 28.8355 77.8671 28.9021 78.063C29.2799 79.1857 30.3105 79.8275 31.3069 79.6626L31.6855 80.7311C31.7514 80.9277 31.965 81.0338 32.1609 80.9672C32.3568 80.9006 32.4629 80.6877 32.3971 80.4918L32.01 79.3986C32.8794 78.8613 33.296 77.6697 32.9197 76.5524C32.4931 75.2834 31.238 74.626 30.1355 75.0557C29.4092 75.3391 28.6149 74.8552 28.3338 74.0206C28.0357 73.1348 28.4159 72.1593 29.2203 71.9223C29.9179 71.7164 30.6604 72.1925 30.9283 72.9893C30.9941 73.1859 31.2078 73.2912 31.4037 73.2254C31.5996 73.1596 31.7064 72.9459 31.6399 72.75C31.262 71.6273 30.2315 70.9855 29.235 71.1504L28.8487 70.1276C28.7829 69.931 28.5692 69.8249 28.3733 69.8915C28.1774 69.9581 28.0713 70.171 28.1371 70.3669L28.532 71.4144C27.6625 71.9518 27.246 73.1433 27.6223 74.2606C28.0404 75.504 29.2606 76.1583 30.3469 75.7804C31.0855 75.4521 31.9201 75.9376 32.2074 76.7924C32.4962 77.6519 32.147 78.5949 31.3906 78.8682H31.3913Z" fill="black"/>
<path fill-rule="evenodd" clip-rule="evenodd" d="M22.2427 90.441L21.3098 90.2048C18.2027 89.4182 14.9021 91.9058 13.9435 95.7577C12.985 99.6096 14.7302 103.376 17.8373 104.162L19.145 104.477C22.1382 104.984 25.2166 102.543 26.1365 98.8455C27.095 94.9936 25.3498 91.2276 22.2427 90.441Z" fill="#FFD997"/>
<path d="M22.3094 90.1784L21.3756 89.9415C18.4141 89.1881 14.7682 91.3258 13.6803 95.691C12.7265 99.5267 14.0682 103.486 18.7199 104.665C21.6575 105.409 25.315 103.273 26.3997 98.9112C27.3923 94.9176 25.5574 90.9999 22.3094 90.1784ZM25.8733 98.7795C24.8389 102.94 21.3888 104.831 18.809 104.13C16.0643 103.385 14.1627 99.985 15.1406 96.0588C16.1579 91.9661 19.5197 90.0344 22.177 90.7025C25.1362 91.452 26.7954 95.0747 25.8733 98.7795Z" fill="black"/>
<path fill-rule="evenodd" clip-rule="evenodd" d="M19.7915 100.738C19.1109 100.579 18.7439 99.8278 18.9375 99.0698C19.0482 98.6362 18.3823 98.4636 18.2716 98.8971C18.0076 99.93 18.4838 100.924 19.3308 101.294L19.0784 102.208C18.9677 102.641 19.6335 102.814 19.7442 102.38L20.0021 101.444C20.9358 101.471 21.8432 100.781 22.1057 99.7535C22.4022 98.5913 21.7635 97.4733 20.7113 97.2472C20.0137 97.0978 19.6335 96.3413 19.8294 95.5725C20.0299 94.7874 20.7562 94.2524 21.4677 94.4119C22.156 94.566 22.5284 95.3209 22.3333 96.0827C22.2226 96.5155 22.8885 96.689 22.9992 96.2554C23.2632 95.2225 22.787 94.2284 21.94 93.8583L22.2095 92.916C22.3202 92.4832 21.6543 92.3098 21.5436 92.7434L21.268 93.7081C20.3342 93.6818 19.4268 94.3716 19.1643 95.3991C18.8662 96.5659 19.5058 97.6831 20.5649 97.9061C21.2633 98.0532 21.6365 98.8112 21.4406 99.5793C21.2393 100.369 20.5061 100.906 19.7907 100.738L19.7915 100.738Z" fill="black"/>
<path d="M112.958 38.6892H42.6875V134.516H112.958V38.6892Z" fill="white"/>
<path d="M112.958 134.786H42.6885C42.539 134.786 42.4175 134.665 42.4175 134.515V38.689C42.4175 38.5395 42.5383 38.418 42.6885 38.418H112.959C113.108 38.418 113.23 38.5388 113.23 38.689V134.516C113.23 134.665 113.109 134.787 112.959 134.787L112.958 134.786ZM42.9587 134.245H112.688V38.9599H42.9587V134.245Z" fill="black"/>
<path d="M105.443 45.4768H50.2021V52.2352H105.443V45.4768Z" fill="#81F8F8"/>
<path d="M105.579 66.3383H50.3374C50.188 66.3383 50.0664 66.2175 50.0664 66.0673V63.1221C50.0664 62.9726 50.1872 62.8511 50.3374 62.8511H105.579C105.729 62.8511 105.85 62.9719 105.85 63.1221V66.0673C105.85 66.2167 105.73 66.3383 105.579 66.3383ZM50.6084 65.7971H105.308V63.3938H50.6084V65.7971Z" fill="black"/>
<path d="M105.579 72.2282H50.3374C50.188 72.2282 50.0664 72.1074 50.0664 71.9572V69.012C50.0664 68.8625 50.1872 68.741 50.3374 68.741H105.579C105.729 68.741 105.85 68.8617 105.85 69.012V71.9572C105.85 72.1066 105.73 72.2282 105.579 72.2282ZM50.6084 71.687H105.308V69.2837H50.6084V71.687Z" fill="black"/>
<path d="M105.444 78.1179H50.2017C50.0522 78.1179 49.9307 77.9971 49.9307 77.8469V74.9016C49.9307 74.7522 50.0515 74.6306 50.2017 74.6306H105.444C105.593 74.6306 105.715 74.7514 105.715 74.9016V77.8469C105.715 77.9964 105.594 78.1179 105.444 78.1179ZM50.4726 77.5767H105.173V75.1734H50.4726V77.5767Z" fill="black"/>
<path d="M105.309 84.0075H50.0669C49.9175 84.0075 49.7959 83.8867 49.7959 83.7365V80.7913C49.7959 80.6418 49.9167 80.5203 50.0669 80.5203H105.309C105.458 80.5203 105.58 80.6411 105.58 80.7913V83.7365C105.58 83.8859 105.459 84.0075 105.309 84.0075ZM50.3379 83.4663H105.038V81.063H50.3379V83.4663Z" fill="black"/>
<path d="M105.308 88.8652H50.0669C49.9172 88.8652 49.7959 88.9868 49.7959 89.1362V92.0807C49.7959 92.2301 49.9172 92.3517 50.0669 92.3517H105.308C105.458 92.3517 105.579 92.2301 105.579 92.0807V89.1362C105.579 88.9868 105.458 88.8652 105.308 88.8652Z" fill="black"/>
<path d="M105.309 97.505H50.0669C49.9175 97.505 49.7959 97.3843 49.7959 97.2341V94.2888C49.7959 94.1394 49.9167 94.0178 50.0669 94.0178H105.309C105.458 94.0178 105.58 94.1386 105.58 94.2888V97.2341C105.58 97.3835 105.459 97.505 105.309 97.505ZM50.3379 96.9638H105.038V94.5606H50.3379V96.9638Z" fill="black"/>
<path d="M105.309 102.659H50.0669C49.9175 102.659 49.7959 102.538 49.7959 102.388V99.4424C49.7959 99.2929 49.9167 99.1714 50.0669 99.1714H105.309C105.458 99.1714 105.58 99.2922 105.58 99.4424V102.388C105.58 102.537 105.459 102.659 105.309 102.659ZM50.3379 102.117H105.038V99.7141H50.3379V102.117Z" fill="black"/>
<path d="M105.309 107.811H50.0669C49.9175 107.811 49.7959 107.69 49.7959 107.54V104.596C49.7959 104.446 49.9167 104.325 50.0669 104.325H105.309C105.458 104.325 105.58 104.445 105.58 104.596V107.54C105.58 107.69 105.459 107.811 105.309 107.811ZM50.3379 107.27H105.038V104.867H50.3379V107.27Z" fill="black"/>
<path d="M105.309 112.965H50.0669C49.9175 112.965 49.7959 112.844 49.7959 112.694V109.749C49.7959 109.6 49.9167 109.478 50.0669 109.478H105.309C105.458 109.478 105.58 109.599 105.58 109.749V112.694C105.58 112.844 105.459 112.965 105.309 112.965ZM50.3379 112.424H105.038V110.021H50.3379V112.424Z" fill="black"/>
<path d="M105.309 118.119H50.0669C49.9175 118.119 49.7959 117.998 49.7959 117.848V114.902C49.7959 114.753 49.9167 114.631 50.0669 114.631H105.309C105.458 114.631 105.58 114.752 105.58 114.902V117.848C105.58 117.997 105.459 118.119 105.309 118.119ZM50.3379 117.577H105.038V115.174H50.3379V117.577Z" fill="black"/>
<path d="M105.309 123.272H50.0669C49.9175 123.272 49.7959 123.151 49.7959 123.001V120.056C49.7959 119.906 49.9167 119.785 50.0669 119.785H105.309C105.458 119.785 105.58 119.906 105.58 120.056V123.001C105.58 123.151 105.459 123.272 105.309 123.272ZM50.3379 122.731H105.038V120.328H50.3379V122.731Z" fill="black"/>
<path d="M105.444 52.5065H50.2017C50.0522 52.5065 49.9307 52.3857 49.9307 52.2355V45.477C49.9307 45.3276 50.0515 45.2061 50.2017 45.2061H105.444C105.593 45.2061 105.715 45.3268 105.715 45.477V52.2355C105.715 52.3849 105.594 52.5065 105.444 52.5065ZM50.4726 51.9653H105.173V45.748H50.4726V51.9653Z" fill="black"/>
<path d="M105.309 57.9951H50.3382C49.9797 57.9951 49.9797 57.4539 50.3382 57.4539H105.309C105.667 57.4539 105.667 57.9951 105.309 57.9951Z" fill="black"/>
<path fill-rule="evenodd" clip-rule="evenodd" d="M149.325 72.3188C149.722 70.2105 148.333 68.1974 146.22 67.8211C140.818 66.8603 131.812 66.0768 126.409 65.1159C124.297 64.7404 122.263 66.1449 121.865 68.2524C120.648 74.7097 117.393 86.7531 116.176 93.2096C115.778 95.3171 117.168 97.331 119.28 97.7065L139.895 101.373C142.007 101.749 144.041 100.344 144.439 98.2368L149.324 72.318L149.325 72.3188Z" fill="#81F8F8"/>
<path fill-rule="evenodd" clip-rule="evenodd" d="M137.599 82.4985C137.471 83.1357 137.885 83.7334 138.527 83.838L141.216 84.2777C141.868 84.3908 142.5 83.9464 142.63 83.3006L143.167 80.6318C143.296 79.9946 142.882 79.3969 142.24 79.2923L139.551 78.8518C138.901 78.7457 138.266 79.1832 138.136 79.8289L137.599 82.4985Z" fill="#FFD997"/>
<path d="M142.283 79.0244L139.594 78.5839C138.796 78.4592 138.029 78.988 137.87 79.7747L137.333 82.4443C137.173 83.2363 137.691 83.9758 138.482 84.1058L141.168 84.5448C141.956 84.6811 142.734 84.1523 142.894 83.3548L143.432 80.686C143.592 79.8939 143.073 79.1545 142.283 79.0244H142.283ZM142.902 80.5783L142.365 83.2472C142.262 83.7559 141.764 84.1027 141.259 84.0098L138.569 83.57C138.077 83.4895 137.767 83.0374 137.864 82.5519L138.401 79.8823C138.502 79.3829 138.995 79.0353 139.507 79.1197L142.196 79.5602C142.691 79.6407 142.999 80.0944 142.902 80.5783Z" fill="black"/>
<path fill-rule="evenodd" clip-rule="evenodd" d="M134.831 95.5986C134.703 96.2358 135.117 96.8335 135.759 96.9381L138.448 97.3778C139.101 97.4909 139.732 97.0465 139.863 96.4007L140.4 93.7319C140.528 93.0947 140.114 92.497 139.472 92.3924L136.783 91.9519C136.134 91.8458 135.499 92.2833 135.369 92.929L134.831 95.5986Z" fill="#FFD997"/>
<path d="M139.516 92.1255L136.827 91.6849C136.029 91.5603 135.262 92.0891 135.103 92.8757L134.566 95.5454C134.405 96.3374 134.924 97.0768 135.715 97.2069L138.401 97.6459C139.189 97.7822 139.967 97.2534 140.127 96.4559L140.664 93.787C140.825 92.995 140.307 92.2556 139.516 92.1255ZM140.135 93.6794L139.598 96.3483C139.495 96.8569 138.997 97.2038 138.492 97.1109L135.802 96.6711C135.31 96.5906 135 96.1384 135.097 95.653L135.634 92.9834C135.735 92.484 136.228 92.1363 136.74 92.2207L139.429 92.6613C139.924 92.7418 140.232 93.1955 140.135 93.6794Z" fill="black"/>
<path fill-rule="evenodd" clip-rule="evenodd" d="M120.643 93.2751C120.515 93.9123 120.929 94.5101 121.571 94.6146L124.26 95.0544C124.913 95.1674 125.545 94.723 125.675 94.0773L126.212 91.4084C126.34 90.7712 125.926 90.1735 125.284 90.069L122.595 89.6284C121.946 89.5223 121.311 89.9598 121.181 90.6055L120.643 93.2751Z" fill="#FFD997"/>
<path d="M125.328 89.802L122.639 89.3615C121.841 89.2368 121.073 89.7656 120.915 90.5522L120.377 93.2219C120.217 94.0139 120.736 94.7533 121.526 94.8834L124.213 95.3224C125 95.4587 125.778 94.9299 125.939 94.1324L126.476 91.4635C126.636 90.6715 126.118 89.9321 125.327 89.802H125.328ZM125.946 91.3559L125.409 94.0248C125.307 94.5335 124.808 94.8803 124.303 94.7874L121.614 94.3476C121.121 94.2671 120.812 93.8149 120.908 93.3295L121.446 90.6599C121.546 90.1605 122.04 89.8128 122.551 89.8972L125.24 90.3378C125.735 90.4183 126.043 90.872 125.946 91.3559Z" fill="black"/>
<path d="M150.217 70.2933C149.535 69.1552 147.539 67.7809 146.268 67.5548C140.865 66.594 131.825 65.805 126.456 64.8496C124.2 64.447 122.022 65.9521 121.599 68.2029C120.385 74.6446 117.121 86.7275 115.91 93.16C115.351 96.1238 116.566 98.4667 120.119 99.0242L140.959 102.727C143.199 103.127 145.39 101.636 145.816 99.3742L150.702 73.4546C150.865 72.5913 150.823 71.3076 150.217 70.2933ZM116.443 93.2599C117.652 86.8444 120.92 74.7329 122.132 68.3027C122.499 66.3547 124.385 65.0331 126.362 65.383C131.765 66.3439 140.805 67.1329 146.173 68.0883C148.134 68.4367 149.429 70.3026 149.06 72.2685L144.174 98.1872C143.804 100.145 141.914 101.455 139.944 101.107L119.329 97.4401C117.369 97.0917 116.074 95.2257 116.443 93.2599Z" fill="black"/>
<path fill-rule="evenodd" clip-rule="evenodd" d="M145.176 72.0471C145.306 71.4068 144.902 70.8044 144.279 70.703L126.787 67.8391C126.164 67.7369 125.554 68.1735 125.424 68.8138L124.702 72.3978C124.573 73.0382 124.974 73.6397 125.597 73.7419L143.089 76.6059C143.712 76.7081 144.322 76.2714 144.452 75.6311L145.176 72.0471Z" fill="white"/>
<path d="M143.269 76.8915L125.553 74.0089C124.782 73.882 124.276 73.141 124.437 72.3435L125.159 68.7595C125.315 67.9783 126.071 67.4456 126.831 67.571L144.323 70.435C145.092 70.562 145.6 71.3029 145.439 72.1004L144.717 75.6844C144.574 76.3882 143.951 76.8915 143.269 76.8915ZM126.605 68.0952C126.174 68.0952 125.781 68.4165 125.689 68.8671L124.967 72.4511C124.869 72.9366 125.164 73.3957 125.641 73.4739L143.132 76.3379C143.608 76.4169 144.085 76.0754 144.185 75.5776L144.908 71.9936C145.008 71.4849 144.689 71.0451 144.234 70.9708L126.604 68.0952H126.605Z" fill="black"/>
<path fill-rule="evenodd" clip-rule="evenodd" d="M123.411 80.1767C123.283 80.8139 123.697 81.4117 124.339 81.5162L127.028 81.956C127.68 82.069 128.312 81.6246 128.442 80.9789L128.979 78.31C129.108 77.6728 128.694 77.0751 128.052 76.9706L125.363 76.53C124.713 76.4239 124.078 76.8614 123.948 77.5071L123.411 80.1767Z" fill="#FFD997"/>
<path d="M128.096 76.7034L125.407 76.2628C124.609 76.1382 123.841 76.6671 123.683 77.4537L123.145 80.1232C122.985 80.9152 123.504 81.6546 124.294 81.7847L126.981 82.2237C127.768 82.36 128.546 81.8312 128.707 81.0337L129.244 78.3648C129.404 77.5728 128.886 76.8334 128.096 76.7034ZM128.714 78.2572L128.177 80.9261C128.075 81.4347 127.576 81.7816 127.072 81.6887L124.382 81.2489C123.889 81.1684 123.58 80.7162 123.676 80.2308L124.214 77.5612C124.314 77.0619 124.808 76.7142 125.319 76.7986L128.008 77.2391C128.503 77.3197 128.811 77.7733 128.714 78.2572Z" fill="black"/>
<path fill-rule="evenodd" clip-rule="evenodd" d="M130.505 81.3371C130.377 81.9743 130.791 82.5721 131.433 82.6766L134.122 83.1164C134.775 83.2294 135.406 82.785 135.536 82.1393L136.074 79.4704C136.202 78.8332 135.788 78.2355 135.146 78.131L132.457 77.6904C131.808 77.5843 131.173 78.0218 131.043 78.6675L130.505 81.3371Z" fill="#FFD997"/>
<path d="M135.19 77.8638L132.501 77.4232C131.702 77.2986 130.935 77.8275 130.776 78.6141L130.239 81.2837C130.079 82.0758 130.598 82.8152 131.388 82.9453L134.075 83.3843C134.862 83.5205 135.64 82.9917 135.8 82.1942L136.338 79.5254C136.498 78.7333 135.979 77.9939 135.189 77.8638H135.19ZM135.808 79.4178L135.271 82.0866C135.169 82.5953 134.67 82.9422 134.165 82.8493L131.476 82.4095C130.983 82.329 130.673 81.8768 130.77 81.3913L131.307 78.7217C131.408 78.2223 131.901 77.8747 132.413 77.9591L135.102 78.3996C135.597 78.4802 135.905 78.9339 135.808 79.4178Z" fill="black"/>
<path fill-rule="evenodd" clip-rule="evenodd" d="M129.122 87.8872C128.993 88.5244 129.407 89.1221 130.049 89.2266L132.738 89.6664C133.391 89.7795 134.023 89.335 134.153 88.6893L134.69 86.0205C134.818 85.3833 134.404 84.7855 133.762 84.681L131.073 84.2405C130.424 84.1344 129.789 84.5718 129.659 85.2176L129.122 87.8872Z" fill="#FFD997"/>
<path d="M133.806 84.4141L131.117 83.9735C130.319 83.8489 129.552 84.3777 129.393 85.1643L128.856 87.8339C128.695 88.626 129.214 89.3654 130.005 89.4955L132.691 89.9345C133.479 90.0707 134.257 89.5419 134.417 88.7444L134.955 86.0756C135.115 85.2835 134.597 84.5441 133.806 84.4141ZM134.425 85.968L133.888 88.6368C133.785 89.1455 133.287 89.4924 132.782 89.3995L130.092 88.9597C129.6 88.8792 129.29 88.427 129.387 87.9416L129.924 85.2719C130.025 84.7725 130.518 84.4249 131.03 84.5093L133.719 84.9498C134.214 85.0304 134.522 85.4841 134.425 85.968Z" fill="black"/>
<path fill-rule="evenodd" clip-rule="evenodd" d="M136.215 89.0488C136.086 89.686 136.5 90.2837 137.142 90.3883L139.831 90.828C140.484 90.9411 141.116 90.4967 141.246 89.8509L141.783 87.1821C141.912 86.5449 141.497 85.9472 140.856 85.8426L138.167 85.4021C137.517 85.296 136.882 85.7335 136.752 86.3792L136.215 89.0488Z" fill="#FFD997"/>
<path d="M140.9 85.5754L138.211 85.1349C137.413 85.0102 136.646 85.539 136.487 86.3257L135.949 88.9953C135.789 89.7874 136.308 90.5268 137.098 90.6569L139.785 91.0959C140.573 91.2321 141.351 90.7033 141.511 89.9058L142.048 87.237C142.209 86.4449 141.69 85.7055 140.899 85.5754H140.9ZM141.519 87.1294L140.981 89.7982C140.879 90.3069 140.381 90.6538 139.876 90.5608L137.186 90.1211C136.694 90.0405 136.384 89.5884 136.481 89.1029L137.018 86.4333C137.119 85.9339 137.612 85.5863 138.124 85.6707L140.813 86.1112C141.307 86.1917 141.615 86.6455 141.519 87.1294Z" fill="black"/>
<path fill-rule="evenodd" clip-rule="evenodd" d="M122.027 86.7261C121.899 87.3633 122.313 87.961 122.955 88.0655L125.644 88.5053C126.297 88.6183 126.928 88.1739 127.058 87.5282L127.596 84.8593C127.724 84.2221 127.31 83.6244 126.668 83.5199L123.979 83.0793C123.33 82.9733 122.695 83.4107 122.565 84.0564L122.027 86.7261Z" fill="#FFD997"/>
<path d="M126.713 83.2527L124.024 82.8121C123.225 82.6875 122.458 83.2163 122.299 84.0029L121.762 86.6726C121.602 87.4646 122.12 88.204 122.911 88.3341L125.598 88.7731C126.385 88.9094 127.163 88.3806 127.323 87.5831L127.861 84.9142C128.021 84.1222 127.503 83.3828 126.713 83.2527ZM127.331 84.8066L126.794 87.4755C126.692 87.9841 126.193 88.331 125.688 88.2381L122.998 87.7983C122.506 87.7178 122.196 87.2656 122.293 86.7802L122.83 84.1106C122.931 83.6112 123.424 83.2635 123.936 83.3479L126.625 83.7885C127.12 83.869 127.428 84.3227 127.331 84.8066Z" fill="black"/>
<path fill-rule="evenodd" clip-rule="evenodd" d="M127.737 94.4375C127.609 95.0747 128.023 95.6724 128.665 95.7769L131.354 96.2167C132.006 96.3298 132.638 95.8853 132.768 95.2396L133.306 92.5708C133.434 91.9336 133.02 91.3358 132.378 91.2313L129.689 90.7908C129.04 90.6847 128.405 91.1221 128.275 91.7679L127.737 94.4375Z" fill="#FFD997"/>
<path d="M132.423 90.9634L129.734 90.5228C128.935 90.3982 128.168 90.927 128.009 91.7136L127.472 94.3832C127.312 95.1753 127.83 95.9147 128.621 96.0448L131.308 96.4838C132.095 96.6201 132.873 96.0912 133.033 95.2938L133.571 92.6249C133.731 91.8329 133.213 91.0935 132.423 90.9634ZM133.041 92.5173L132.504 95.1861C132.402 95.6948 131.903 96.0417 131.398 95.9488L128.708 95.509C128.216 95.4285 127.906 94.9763 128.003 94.4909L128.54 91.8212C128.641 91.3219 129.134 90.9742 129.646 91.0586L132.335 91.4992C132.83 91.5797 133.138 92.0334 133.041 92.5173Z" fill="black"/>
<path fill-rule="evenodd" clip-rule="evenodd" d="M96.2933 102.158C96.2933 102.158 94.7494 99.635 93.9945 98.3753C93.6206 97.7513 93.8087 97.5794 94.4258 97.7892C95.0088 97.9874 96.2933 98.5224 96.2933 98.5224C96.0556 99.378 96.2616 100.175 97.1156 100.887C96.6386 101.213 96.315 101.613 96.2933 102.158Z" fill="white"/>
<path d="M96.0678 102.309C95.4755 101.421 93.5421 98.4814 93.5112 97.9255C93.4601 96.9879 95.5413 97.8883 96.403 98.2747C96.7305 98.421 96.5099 98.9157 96.1823 98.7694C95.4166 98.4272 94.4914 98.0943 94.1019 98.0455C94.3489 98.6293 95.4607 100.421 96.5176 102.007C96.7189 102.309 96.2629 102.6 96.0678 102.309Z" fill="black"/>
<path fill-rule="evenodd" clip-rule="evenodd" d="M123.352 148.755C123.352 148.755 121.945 144.94 121.576 143.823C121.208 142.706 118.865 139.26 117.949 138.543C117.032 137.827 115.457 137.085 113.981 136.326C112.506 135.567 109.677 133.21 108.449 131.859C107.221 130.508 105.634 128.766 104.642 128.076C103.649 127.386 102.682 126.975 101.933 126.192C101.183 125.409 99.5982 122.091 99.0539 121.42C98.5096 120.75 96.5608 119.724 95.9058 118.658C95.2508 117.592 93.2958 115.419 93.1572 114.19C93.0186 112.961 93.9036 111.149 94.2249 110.447C94.5462 109.744 94.8079 108.773 94.9124 108.204C95.0169 107.636 94.8466 105.308 94.9023 104.77C94.9581 104.232 94.7746 102.812 96.2945 102.36C96.2945 102.36 96.3301 101.377 96.8302 101.045L97.1159 100.886C97.1159 100.886 95.8849 100.024 96.2859 98.3195C96.2859 98.3195 96.7691 97.2464 97.1748 97.0536C97.5805 96.8608 99.6021 96.4078 99.911 96.4481C99.911 96.4481 100.388 96.0122 100.836 95.838C101.285 95.6638 102.485 94.6789 103.046 94.4103C103.607 94.1416 104.841 93.9558 105.828 93.0778C106.815 92.1998 107.965 91.6795 108.487 91.304C109.01 90.9285 110.866 89.5278 111.839 89.3018C112.812 89.0757 114.481 88.704 115.426 89.5232C116.372 90.3424 116.541 90.7961 117.375 91.2126C118.209 91.6292 119.32 92.974 119.659 93.4394C119.998 93.9047 123.285 97.7806 124.15 99.6063C125.016 101.432 126.485 101.866 126.976 102.18C127.468 102.494 129.178 103.902 129.449 104.672C129.719 105.443 129.875 107.929 129.916 108.775C129.963 109.726 130.339 112.069 131.562 120.264C131.764 121.624 133.325 128.61 132.94 129.502C133.665 131.293 138.71 142.36 139.192 144.126C139.57 145.512 123.352 148.753 123.352 148.753V148.755ZM100.73 105.325C100.73 105.325 101.791 107.135 101.816 108.07C101.84 109.004 101.555 110.575 101.892 110.946C102.229 111.317 103.945 112.89 104.285 113.585C104.626 114.279 105.539 115.688 106.231 116.122C108.325 117.433 107.604 116.027 109.69 115.416C110.631 115.141 110.988 112.949 114.24 112.519C114.24 112.519 113.883 111.649 113.831 111.03C113.697 109.41 108.937 105.796 108.506 103.522C108.506 103.522 104.437 104.928 103.262 105.153C102.218 105.353 100.729 105.326 100.729 105.326L100.73 105.325Z" fill="#FFD997"/>
<path d="M94.5638 115.509C95.0763 114.444 95.3775 114.326 95.9226 113.839C96.8594 113.001 97.7521 112.249 98.3808 112.249C98.7393 112.249 98.7401 112.79 98.3808 112.79C97.756 112.79 96.1363 114.423 95.7801 114.672C95.5417 114.838 95.208 115.416 95.0539 115.742C94.8998 116.064 94.4097 115.834 94.5638 115.509Z" fill="black"/>
<path d="M95.8289 116.425C95.8443 116.397 96.2152 115.726 96.7123 115.4C97.1304 115.122 98.1803 114.096 98.1911 114.086C98.4505 113.836 98.826 114.223 98.5705 114.473C96.926 116.089 96.7812 115.819 96.3035 116.686C96.1324 116.997 95.657 116.738 95.8289 116.425Z" fill="black"/>
<path d="M139.453 144.056C138.966 142.27 133.992 131.368 133.227 129.49C133.525 128.19 132.043 121.652 131.828 120.225C130.558 111.762 130.23 109.645 130.186 108.763C130.17 108.429 130.017 105.478 129.704 104.583C129.397 103.712 127.62 102.271 127.122 101.954C126.602 101.621 125.216 101.225 124.396 99.4925C123.506 97.6157 120.216 93.7468 119.879 93.2822C119.547 92.8262 118.397 91.4225 117.497 90.9726C117.021 90.7342 116.789 90.4934 116.439 90.1279C115.278 88.9108 114.686 88.3634 111.778 89.0401C110.808 89.2654 109.151 90.4911 108.33 91.0865C107.813 91.4612 106.669 91.9714 105.648 92.8773C104.685 93.7336 103.549 93.8691 102.929 94.168C102.415 94.4134 101.098 95.4486 100.738 95.588C100.357 95.7343 99.9704 96.0417 99.8078 96.1803C99.2131 96.2159 97.4432 96.6285 97.0576 96.8113C96.5869 97.0358 96.1254 98.0168 96.0209 98.2599C95.7127 99.5699 96.2764 100.429 96.6558 100.836C96.2075 101.153 96.0759 101.825 96.0372 102.161C94.7101 102.655 94.666 103.892 94.6443 104.5C94.5862 105.931 94.7364 107.652 94.6443 108.157C94.5343 108.755 94.2711 109.696 93.9776 110.335C93.4829 111.411 92.7505 113.018 92.8867 114.223C93.0377 115.555 95.0028 117.711 95.6748 118.802C96.3701 119.934 98.322 120.952 98.8438 121.593C99.3773 122.252 100.945 125.555 101.736 126.381C102.516 127.195 103.507 127.619 104.487 128.301C105.468 128.984 107.075 130.752 108.249 132.044C109.511 133.433 112.345 135.797 113.857 136.571C115.338 137.327 116.904 138.073 117.781 138.759C118.637 139.428 120.951 142.799 121.319 143.911C121.684 145.02 123.083 148.814 123.098 148.852C123.221 149.189 123.731 149 123.606 148.664C123.592 148.627 122.196 144.841 121.833 143.742C121.437 142.543 119.04 139.055 118.115 138.334C117.204 137.621 115.665 136.886 114.104 136.089C112.665 135.354 109.856 133.008 108.648 131.681C107.457 130.37 105.825 128.574 104.795 127.858C104.449 127.616 104.105 127.41 103.773 127.209C102.059 126.173 102.003 126.099 100.406 123.192C99.2673 121.116 99.3664 121.207 98.0378 120.238C96.1417 118.852 96.5203 118.984 95.2714 117.308C94.4879 116.26 93.5131 114.955 93.4233 114.165C93.3025 113.09 94.0458 111.483 94.4019 110.711C94.6342 110.207 94.8456 109.658 95.0508 108.832C95.9171 108.045 97.3805 106.822 97.8117 106.722C98.4954 106.568 98.4536 105.664 98.2918 104.983C99.1117 105.268 99.7179 105.58 100.57 105.601C100.893 106.176 101.526 107.431 101.543 108.084C101.565 108.953 101.295 110.467 101.607 111.018C101.113 110.971 100.578 110.982 100.269 110.996C100.12 111.002 100.003 111.129 100.01 111.277C100.016 111.427 100.155 111.545 100.292 111.537C101.204 111.497 102.127 111.584 102.271 111.717C102.566 111.991 103.804 113.23 104.039 113.709C104.377 114.397 105.322 115.88 106.085 116.356C106.587 116.671 107.097 116.943 107.528 116.943C107.87 116.943 108.014 116.794 108.251 116.59C109.765 115.262 109.642 116.193 110.769 114.82C111.375 114.08 112.207 113.066 114.273 112.793C114.45 112.77 114.557 112.581 114.488 112.422C114.484 112.413 114.147 111.583 114.099 111.013C114.081 110.8 114.012 110.583 113.901 110.358C114.526 110.32 115.527 110.185 115.818 109.701C116.003 109.393 115.537 109.114 115.353 109.422C115.212 109.655 114.353 109.814 113.582 109.829C112.502 108.271 109.87 105.864 108.972 104.096C108.77 103.699 108.334 102.384 108.551 101.724C108.661 101.382 108.146 101.215 108.035 101.554C107.824 102.196 108.017 102.961 108.151 103.362C103.632 104.905 103.028 105.061 100.91 105.061C99.5368 105.056 99.0978 104.594 97.6615 104.226C96.9121 104.032 96.672 103.314 96.5954 102.831C97.1072 102.714 98.8725 102.294 99.2867 101.986C99.7241 101.661 99.824 100.734 99.8465 100.376C100.303 100.13 100.862 99.5877 101.546 99.2122C107.132 96.1501 106.487 96.5674 107.711 95.67C108.434 95.1397 109.333 94.48 109.765 94.4057C110.299 94.3104 111.24 94.8811 111.866 95.3944C111.039 96.2414 110.909 96.3134 109.799 97.807C109.583 98.0973 110.027 98.4117 110.235 98.1291C111.354 96.6363 111.314 96.7362 112.277 95.749C112.387 95.8411 112.926 96.2794 113.071 96.3986C112.972 96.6797 112.563 97.2766 112.176 97.7419C111.946 98.0176 112.365 98.3636 112.592 98.088C112.774 97.8697 113.26 97.265 113.498 96.761C113.905 97.114 114.308 97.4949 114.597 97.8573C115.337 98.7833 117.13 100.012 118.191 100.924C120.65 103.038 120.567 102.168 123.122 104.438C123.387 104.676 123.751 104.274 123.482 104.033C123.426 103.984 122.104 102.811 121.36 102.418C119.586 101.481 118.889 100.755 117.309 99.5204C113.787 96.7695 116.131 98.1863 112.999 95.6406C112.259 95.0398 110.802 93.6709 109.673 93.8722C109.116 93.9682 108.239 94.6109 107.391 95.2334C106.194 96.1098 106.959 95.6352 101.286 98.7376C100.457 99.1905 99.8287 99.8618 99.3486 100.001C98.8678 100.14 97.5926 100.484 97.1753 100.595C96.9477 100.391 96.3825 99.7798 96.4723 98.7864C96.8757 98.7546 97.9186 98.6424 98.7834 98.2924C99.5554 97.9804 100.121 97.2766 100.173 96.5813C100.32 96.4582 100.639 96.2097 100.93 96.0966C101.192 95.9952 101.606 95.7018 102.086 95.3619C103.152 94.6085 103.145 94.6441 103.739 94.449C106.097 93.6787 105.344 93.4735 107.932 91.9676C109.047 91.3195 110.85 89.8144 111.897 89.5712C112.662 89.3932 114.008 89.0819 114.903 89.5109C114.33 89.9297 113.713 90.704 113.628 90.8124C113.407 91.0942 113.833 91.4279 114.055 91.1469C114.383 90.7295 114.989 90.0621 115.373 89.8461C115.6 90.0497 115.778 90.2294 115.935 90.392C115.513 90.7357 115.161 91.4542 115.003 91.815C114.858 92.1425 115.355 92.3609 115.5 92.0326C115.749 91.4658 116.107 90.92 116.31 90.7775C116.568 91.0323 116.833 91.2514 117.252 91.4612C118.211 91.9405 119.371 93.5308 119.954 94.2524C120.932 95.4618 123.223 98.294 123.903 99.7271C124.808 101.637 126.375 102.123 126.828 102.414C127.336 102.739 128.958 104.106 129.191 104.766C129.424 105.434 129.585 107.612 129.643 108.794C129.701 109.97 131.232 120.089 131.652 122.232C132.072 124.367 132.944 128.809 132.689 129.4C132.66 129.466 132.659 129.542 132.686 129.609C133.386 131.336 138.466 142.506 138.928 144.202C139.021 144.545 139.545 144.408 139.451 144.06L139.453 144.056ZM108.318 103.874C108.744 105.175 110.322 106.889 111.393 108.052C114.105 110.995 113.282 110.632 113.868 112.304C110.861 112.843 110.352 114.941 109.613 115.158C108.633 115.444 108.099 116.028 107.7 116.345C107.433 116.557 106.636 116.058 106.373 115.893C105.743 115.499 104.85 114.125 104.528 113.466C104.16 112.715 102.429 111.136 102.092 110.765C101.872 110.522 102.108 108.852 102.086 108.064C102.067 107.347 101.512 106.204 101.189 105.597C103.331 105.567 104.016 105.347 108.318 103.874ZM97.5299 104.745C97.7901 104.812 97.6677 104.765 97.715 104.914C97.8086 105.217 97.9821 106.124 97.6917 106.19C97.1683 106.311 95.9605 107.306 95.2072 107.964C95.2497 107.146 95.1359 105.941 95.1863 104.518C95.2064 103.964 95.2358 103.157 96.0403 102.751C96.1223 103.476 96.4932 104.478 97.5299 104.745ZM96.9601 101.283C97.3797 101.05 96.8888 101.249 99.2851 100.577C99.2364 100.976 99.1272 101.426 98.9654 101.546C98.7277 101.723 97.4757 102.065 96.5698 102.276C96.5962 102 96.6991 101.457 96.9593 101.283L96.9601 101.283ZM96.6333 98.222C96.8261 97.8426 97.1103 97.3858 97.2907 97.2998C97.619 97.1434 98.9863 96.8345 99.5987 96.7431C99.2805 97.8325 97.7715 98.1043 96.6333 98.222Z" fill="black"/>
<path d="M126.058 110.962L125.545 110.785L126.202 108.876C126.303 108.581 125.926 107.518 125.704 107.168C125.549 106.921 125.038 106.426 124.853 106.256C124.591 106.014 124.956 105.611 125.221 105.858C125.295 105.925 125.942 106.527 126.163 106.878C126.359 107.189 126.913 108.475 126.715 109.051L126.058 110.962Z" fill="black"/>
<path fill-rule="evenodd" clip-rule="evenodd" d="M124.44 124.94L122.784 123.191C121.932 123.27 121.413 123.825 121.032 124.578L122.885 126.394C123.306 126.806 124.514 125.687 124.44 124.94Z" fill="white"/>
<path fill-rule="evenodd" clip-rule="evenodd" d="M121.092 119.714C120.408 119.206 104.476 104.834 104.476 104.834C103.487 105.127 102.684 105.362 100.729 105.326C100.729 105.326 101.291 106.285 101.606 107.167C101.606 107.167 116.494 122.015 117.53 122.99C118.787 124.174 119.583 124.707 121.032 124.579C121.032 124.579 121.493 123.332 122.784 123.191C122.844 122.322 122.955 121.101 121.092 119.714Z" fill="#81F8F8"/>
<path d="M124.71 124.914C124.698 124.787 124.773 124.898 123.063 123.092C123.123 122.207 123.151 120.908 121.255 119.496C120.587 118.999 105.297 105.207 104.659 104.632C104.447 104.441 104.233 104.693 103.211 104.887C102.199 105.081 100.652 105.056 100.729 105.055C100.526 105.055 100.389 105.273 100.495 105.463C100.501 105.473 101.048 106.411 101.351 107.258C101.397 107.392 116.816 122.69 117.343 123.187C118.51 124.286 119.387 124.958 120.929 124.859L122.695 126.588C123.354 127.234 124.802 125.854 124.709 124.914L124.71 124.914ZM101.841 107.017C101.647 106.489 101.378 105.951 101.189 105.596C102.79 105.574 103.398 105.431 104.408 105.135L111.393 111.427C110.052 111.516 108.998 112.353 108.757 113.908L101.841 107.017ZM109.256 114.405C109.279 112.699 110.53 111.761 112.022 111.991C116.197 115.745 120.571 119.663 120.93 119.931C121.504 120.358 121.878 120.761 122.119 121.142C120.466 121.161 119.309 122.256 119.025 123.86C118.206 123.353 117.788 122.897 109.255 114.404L109.256 114.405ZM119.534 124.121C119.72 122.52 120.921 121.566 122.39 121.694C122.549 122.148 122.551 122.567 122.528 122.954C121.791 123.098 121.183 123.647 120.85 124.32C120.347 124.343 119.931 124.279 119.533 124.121H119.534ZM123.076 126.2L121.367 124.527C121.677 123.974 122.061 123.593 122.685 123.48L124.171 125.051C124.123 125.652 123.222 126.33 123.076 126.2Z" fill="black"/>
<path d="M119.518 122.611C119.321 122.403 112.592 115.814 112.514 115.772C112.338 115.678 111.92 115.596 111.585 115.938C111.282 116.244 110.858 116.925 110.815 117.006C110.754 117.176 110.739 117.558 111.068 117.911C111.314 118.174 117.057 123.905 118.072 124.337C118.538 124.488 118.929 124.371 119.196 124.067C119.28 123.972 119.994 123.116 119.518 122.611Z" fill="black"/>
<path d="M114.341 57.6428C113.985 57.6459 113.977 57.107 114.334 57.1016C115.111 57.0861 115.884 57.0412 116.632 56.9661C116.988 56.932 117.043 57.4693 116.686 57.5057C115.923 57.5816 115.133 57.635 114.341 57.6428ZM111.244 57.5359C111.126 57.5359 109.949 57.4198 108.892 57.2045C108.537 57.1333 108.654 56.5967 109 56.6734C109.691 56.8143 110.454 56.9219 111.269 56.9947C111.611 57.0257 111.587 57.5351 111.245 57.5351L111.244 57.5359ZM119.718 57.0272C119.395 57.0272 119.345 56.5604 119.66 56.4922C120.429 56.3234 121.174 56.1206 121.873 55.8868C122.203 55.7691 122.391 56.2847 122.044 56.4009C121.506 56.5805 119.933 57.0272 119.718 57.0272ZM124.674 54.6882C125.36 54.3174 126.001 53.8993 126.581 53.4471C126.863 53.2264 127.196 53.6538 126.914 53.8753C126.311 54.3452 125.644 54.7788 124.932 55.1644C124.618 55.3355 124.359 54.8578 124.674 54.6882ZM128.7 51.304C129.151 50.7024 129.54 50.0497 129.854 49.3637C130.006 49.0385 130.496 49.2646 130.347 49.5905C130.016 50.3106 129.608 50.9958 129.134 51.6292C128.924 51.9087 128.483 51.5943 128.7 51.304ZM130.739 46.4843C130.839 45.9098 130.904 45.3035 130.933 44.6833C130.95 44.3148 131.49 44.3566 131.474 44.7073C131.445 45.3507 131.376 45.9802 131.273 46.5764C131.212 46.9294 130.677 46.8373 130.739 46.4843Z" fill="black"/>
<path d="M131.812 44.7051C142.605 44.7051 151.354 35.9557 151.354 25.163C151.354 14.3701 142.605 5.62085 131.812 5.62085C121.019 5.62085 112.27 14.3701 112.27 25.163C112.27 35.9557 121.019 44.7051 131.812 44.7051Z" fill="white"/>
<path d="M131.812 44.9753C120.887 44.9753 112 36.0877 112 25.163C112 14.2383 120.887 5.34985 131.812 5.34985C142.737 5.34985 151.625 14.2375 151.625 25.163C151.625 36.0884 142.737 44.9753 131.812 44.9753ZM131.812 5.89183C121.186 5.89183 112.541 14.5371 112.541 25.1637C112.541 35.7903 121.186 44.4349 131.812 44.4349C142.438 44.4349 151.084 35.7896 151.084 25.1637C151.084 14.5379 142.438 5.89183 131.812 5.89183Z" fill="black"/>
<path d="M143.889 35.2691H122.456C122.307 35.2691 122.186 35.1491 122.185 34.9996L122.066 13.9446C122.063 13.5869 122.606 13.5838 122.608 13.9415L122.725 34.7279H143.889C144.247 34.7279 144.248 35.2691 143.889 35.2691Z" fill="black"/>
<path d="M129.539 19.7981H125.096V34.999H129.539V19.7981Z" fill="#FFD997"/>
<path d="M129.539 35.2692H125.095C124.946 35.2692 124.824 35.1484 124.824 34.9982V19.7981C124.824 19.6487 124.945 19.5271 125.095 19.5271H129.539C129.688 19.5271 129.81 19.6479 129.81 19.7981V34.9982C129.81 35.1476 129.689 35.2692 129.539 35.2692ZM125.365 34.728H129.268V20.0691H125.365V34.728Z" fill="black"/>
<path d="M133.982 24.4707H129.539V34.9982H133.982V24.4707Z" fill="#81F8F8"/>
<path d="M133.983 35.2692H129.54C129.39 35.2692 129.269 35.1484 129.269 34.9982V24.47C129.269 24.3205 129.389 24.199 129.54 24.199H133.983C134.132 24.199 134.254 24.3198 134.254 24.47V34.9982C134.254 35.1477 134.133 35.2692 133.983 35.2692ZM129.81 34.728H133.712V24.7417H129.81V34.728Z" fill="black"/>
<path d="M138.426 20.3989H133.983C133.833 20.3989 133.712 20.5203 133.712 20.6699V34.9982C133.712 35.1479 133.833 35.2692 133.983 35.2692H138.426C138.575 35.2692 138.697 35.1479 138.697 34.9982V20.6699C138.697 20.5203 138.575 20.3989 138.426 20.3989Z" fill="black"/>
<path d="M26.5349 121.262C26.617 120.477 26.7385 119.697 26.8934 118.945C26.9654 118.594 27.4965 118.703 27.4245 119.054C27.2735 119.79 27.1551 120.552 27.0738 121.32C27.0374 121.674 26.497 121.622 26.5357 121.263L26.5349 121.262ZM27.9928 116.292C27.8047 116.292 27.6746 116.105 27.7381 115.929C28.0044 115.189 28.3149 114.461 28.661 113.767C28.8213 113.447 29.3059 113.689 29.1465 114.009C28.1717 115.962 28.3497 116.292 27.9928 116.292ZM30.5006 111.514C30.2807 111.514 30.1514 111.263 30.2807 111.085C30.7368 110.451 31.2385 109.838 31.7712 109.262C32.0112 108.999 32.4138 109.365 32.1691 109.63C30.7213 111.194 30.7995 111.514 30.5006 111.514ZM34.0784 107.138C34.6885 106.659 35.3374 106.206 36.0071 105.793C36.3083 105.605 36.5986 106.065 36.2912 106.255C35.6393 106.658 35.0075 107.098 34.4121 107.565C34.1342 107.783 33.7943 107.361 34.0784 107.138ZM38.8958 104.866C38.6024 104.866 38.5188 104.462 38.7882 104.346C39.5052 104.037 40.2469 103.763 40.994 103.53C41.3363 103.424 41.4965 103.942 41.1543 104.048C39.4866 104.567 39.0716 104.866 38.8958 104.866ZM44.0887 103.359C43.755 103.359 43.7194 102.871 44.0469 102.821C44.8444 102.698 45.6349 102.626 46.3952 102.607C46.7614 102.611 46.7591 103.14 46.4092 103.149C44.9311 103.185 44.249 103.359 44.0887 103.359Z" fill="black"/>
<path fill-rule="evenodd" clip-rule="evenodd" d="M54.6916 132.706C53.8895 126.034 47.8309 121.275 41.1592 122.077L14.9624 125.226C8.2907 126.028 3.53217 132.087 4.33429 138.759C5.13642 145.43 11.1949 150.189 17.8666 149.387L44.0634 146.238C50.7352 145.436 55.4937 139.377 54.6916 132.706Z" fill="white"/>
<path d="M16.3886 149.746C10.2123 149.746 4.82819 145.131 4.06478 138.791C3.24639 131.982 8.1211 125.775 14.9299 124.957L41.1267 121.809C47.9339 120.997 54.1426 125.865 54.9602 132.674C55.7801 139.5 50.9209 145.687 44.0959 146.507C16.4489 149.833 17.4826 149.747 16.3886 149.747V149.746ZM42.6341 122.259C41.5347 122.259 42.6063 122.177 14.9949 125.495C8.48267 126.278 3.82011 132.213 4.60288 138.725C5.39184 145.283 11.3443 149.907 17.8333 149.117L44.0309 145.969C50.5439 145.186 55.2049 139.251 54.4221 132.739C53.6928 126.669 48.5378 122.259 42.6341 122.259Z" fill="black"/>
<path d="M12.8727 142.052C12.6978 141.623 12.9362 141.139 13.3923 141.019C13.4906 140.994 13.5897 140.968 13.6865 140.944C14.0488 140.852 14.4259 141.034 14.5753 141.377C15.2443 142.909 16.3034 143.4 17.4772 143.264C20.2514 142.943 20.9149 139.49 19.0575 138.029C18.6347 137.696 17.4911 137.637 16.703 137.701C16.3034 137.734 15.9519 137.453 15.8838 137.059C15.8776 137.024 15.8714 136.987 15.8652 136.952C15.8033 136.568 16.0402 136.199 16.4149 136.093C16.9476 135.943 17.6568 135.695 17.9929 135.415C19.0397 134.546 18.8918 132.785 17.8419 131.979C16.8841 131.243 15.2799 131.389 14.4445 132.382C14.1495 132.733 13.9551 133.186 13.8568 133.744C13.7895 134.126 13.4441 134.394 13.057 134.373C12.7512 134.355 12.481 134.36 12.251 134.054C12.1163 133.875 12.0667 133.645 12.1155 133.426C13.1546 128.731 20.009 129.16 20.4929 133.334C20.5905 134.176 20.3667 134.972 19.8209 135.648C19.5298 136.009 19.6358 136.57 20.0818 136.794C23.1455 138.333 22.5911 144.146 17.6367 144.72C15.3039 144.991 13.5789 143.786 12.8727 142.052Z" fill="#81F8F8"/>
<path d="M16.9685 145.031C14.916 145.031 13.3017 143.842 12.6226 142.154C12.3819 141.568 12.7186 140.91 13.3264 140.757L13.6199 140.68C14.1169 140.557 14.6194 140.803 14.8238 141.268C15.331 142.439 16.1439 143.142 17.447 142.994C19.9865 142.7 20.5572 139.55 18.8902 138.241C18.5704 137.987 17.536 137.902 16.7254 137.97C15.4641 138.07 15.1405 136.168 16.3421 135.83C17.0421 135.631 17.5817 135.403 17.8202 135.205C18.3033 134.803 18.4969 134.256 18.4133 133.534C18.1841 131.557 15.7181 131.288 14.6527 132.555C14.3903 132.866 14.2137 133.282 14.1247 133.789C14.0318 134.307 13.5641 134.657 13.0415 134.642L12.8023 134.628C12.1627 134.589 11.7106 133.987 11.8523 133.364C12.5282 130.245 15.7475 129.19 18.1841 130.096C20.7724 131.057 21.5064 134.04 20.0299 135.819C19.8433 136.056 19.9262 136.414 20.2018 136.548C23.7873 138.396 22.6066 145.029 16.9693 145.029L16.9685 145.031ZM13.8754 141.191C13.7887 141.191 13.7383 141.211 13.4619 141.282C13.1677 141.357 13.0098 141.668 13.1244 141.95C14.9361 146.4 22.2365 144.59 21.6729 139.709C21.5358 138.529 21.0101 137.578 19.9587 137.034C19.3826 136.754 19.2007 135.998 19.6087 135.48C20.8568 133.969 20.2242 131.433 17.9952 130.606C15.8675 129.814 12.9951 130.662 12.3811 133.484C12.3486 133.628 12.3811 133.776 12.4678 133.891C12.6234 134.099 12.8108 134.085 13.0702 134.102C13.3187 134.117 13.5463 133.943 13.5905 133.696C13.695 133.095 13.9125 132.593 14.2377 132.208C15.1684 131.1 16.943 130.944 18.0068 131.764C19.1806 132.664 19.3617 134.63 18.1663 135.624C17.7621 135.959 16.9422 136.225 16.4893 136.353C16.2469 136.421 16.0936 136.66 16.1331 136.908L16.1501 137.009C16.1912 137.27 16.4234 137.438 16.6805 137.431C17.3727 137.375 18.6897 137.392 19.2255 137.816C21.2586 139.414 20.5339 143.183 17.5082 143.533C16.1997 143.682 15.029 143.108 14.3268 141.484C14.2462 141.303 14.0682 141.191 13.8754 141.191Z" fill="black"/>
<path d="M31.0622 142.529C30.6325 142.578 30.2431 142.27 30.1927 141.84C29.9434 139.693 29.9992 139.624 29.6747 139.367C29.5114 139.237 29.3039 139.178 29.0972 139.202L24.2999 139.758C23.8702 139.809 23.4807 139.5 23.4304 139.07L23.3584 138.447C23.3143 138.063 23.2322 138.379 28.7201 128.289C28.9516 127.864 29.3782 127.878 29.6043 127.852C30.0348 127.802 30.4235 128.111 30.4738 128.54L31.3936 136.476C31.4176 136.682 31.5229 136.87 31.6855 137C32.0014 137.25 32.3165 137.158 32.6835 137.115C33.4515 137.026 33.8023 137.963 33.3989 138.472C33.1488 138.787 32.8205 138.77 32.4535 138.812C32.0238 138.862 31.7149 139.251 31.7652 139.682C32.0083 141.779 32.0889 141.878 31.8272 142.209C31.6979 142.371 31.5097 142.477 31.303 142.501L31.0622 142.529ZM28.9903 137.586C29.3689 137.542 29.6399 137.199 29.5958 136.822L29.0019 131.696L25.6409 137.974L28.9903 137.587V137.586Z" fill="#81F8F8"/>
<path d="M29.9235 141.872C29.6772 139.755 29.7276 139.754 29.5069 139.579C29.2684 139.391 29.4868 139.436 24.331 140.028C23.7604 140.094 23.2293 139.687 23.1611 139.102C23.0907 138.5 23.0117 138.219 23.2099 137.853L28.4818 128.16C28.7853 127.601 29.3528 127.609 29.5727 127.583C30.1457 127.516 30.6753 127.932 30.7426 128.509C31.705 136.789 31.5982 136.586 31.8537 136.788C32.0503 136.944 32.2044 136.896 32.6511 136.846C34.0773 136.686 34.2693 138.875 32.9059 139.033L32.4847 139.081C32.2052 139.114 32.0023 139.369 32.0341 139.651L32.2601 141.6C32.4235 143.001 30.0884 143.294 29.9227 141.871L29.9235 141.872ZM30.2355 139.861C30.477 141.978 30.4306 141.976 30.6528 142.152C30.8425 142.306 31.0291 142.26 31.2714 142.232C31.5502 142.2 31.7553 141.949 31.722 141.665L31.496 139.714C31.4302 139.14 31.8413 138.612 32.422 138.544L32.8432 138.496C33.3604 138.435 33.4277 137.756 33.0925 137.494C32.8912 137.334 32.7433 137.381 32.2934 137.434C31.7042 137.503 31.1878 137.073 31.1243 136.507L30.2045 128.572C30.172 128.292 29.9196 128.093 29.6354 128.122L29.3505 128.156C29.184 128.174 29.0385 128.273 28.9587 128.42C23.5483 138.366 23.5994 138.165 23.628 138.416L23.7 139.041C23.7163 139.174 23.7852 139.299 23.8905 139.382C24.1243 139.568 23.9006 139.525 29.0671 138.934C29.6618 138.866 30.172 139.299 30.2363 139.861L30.2355 139.861ZM25.6395 138.245C25.4328 138.245 25.305 138.023 25.4003 137.846L28.7621 131.568C28.8867 131.335 29.2398 131.402 29.27 131.665L29.8646 136.791C29.9258 137.318 29.5472 137.794 29.0199 137.855L25.6395 138.245ZM28.8318 132.587L26.1227 137.645L28.958 137.316C29.1887 137.29 29.3528 137.083 29.3265 136.852L28.8318 132.587Z" fill="black"/>
<path fill-rule="evenodd" clip-rule="evenodd" d="M42.9685 128L44.6757 127.846L39.3884 140.694L37.6812 140.847L42.9685 128Z" fill="#81F8F8"/>
<path fill-rule="evenodd" clip-rule="evenodd" d="M35.9346 128.632C37.3615 128.504 38.6212 129.558 38.749 130.985C38.8767 132.411 37.823 133.674 36.396 133.801C34.9691 133.929 33.7071 132.875 33.5793 131.448C33.4516 130.022 34.5076 128.759 35.9346 128.632ZM36.0585 130.041C36.7073 129.983 37.281 130.463 37.3391 131.112C37.3972 131.76 36.9179 132.334 36.2691 132.392C35.6202 132.45 35.0465 131.971 34.9885 131.322C34.9304 130.673 35.4096 130.1 36.0585 130.041Z" fill="#81F8F8"/>
<path d="M36.1584 134.083C34.7082 134.083 33.4439 132.976 33.3091 131.473C33.1659 129.887 34.3459 128.497 35.9075 128.361C37.5017 128.224 38.8783 129.396 39.0185 130.96C39.1695 132.631 37.854 134.083 36.1584 134.083ZM35.9563 128.902C34.6912 129.009 33.7327 130.139 33.8488 131.425C33.9634 132.71 35.1054 133.651 36.3713 133.532C37.6488 133.418 38.5942 132.287 38.4788 131.009C38.3658 129.741 37.2509 128.792 35.9563 128.902ZM36.1615 132.668C35.4236 132.668 34.7872 132.103 34.7191 131.346C34.6471 130.548 35.2363 129.843 36.0345 129.771C36.8227 129.701 37.5366 130.279 37.6093 131.087C37.686 131.934 37.0186 132.668 36.1615 132.668ZM36.1646 130.307C35.6311 130.307 35.2115 130.766 35.2587 131.297C35.3021 131.777 35.7147 132.16 36.2451 132.121C36.753 132.075 37.1138 131.626 37.0689 131.135C37.0263 130.663 36.6299 130.307 36.1646 130.307Z" fill="black"/>
<path fill-rule="evenodd" clip-rule="evenodd" d="M46.3517 134.856C47.7787 134.729 49.0407 135.782 49.1685 137.209C49.2962 138.636 48.2424 139.898 46.8155 140.026C45.3886 140.154 44.1265 139.1 43.9988 137.673C43.871 136.247 44.9248 134.984 46.3517 134.856ZM46.4779 136.266C47.1267 136.208 47.7005 136.688 47.7585 137.336C47.8166 137.985 47.3373 138.559 46.6885 138.617C46.0397 138.675 45.466 138.196 45.4079 137.547C45.3498 136.898 45.8291 136.324 46.4779 136.266Z" fill="#81F8F8"/>
<path d="M46.5777 140.308C45.133 140.308 43.8632 139.206 43.7285 137.698C43.5868 136.125 44.752 134.725 46.3261 134.586C47.9001 134.448 49.2977 135.611 49.4378 137.185C49.5872 138.854 48.2718 140.307 46.5777 140.307V140.308ZM46.3749 135.127C44.3061 135.315 43.5186 137.908 45.0935 139.225C46.6698 140.539 49.0832 139.303 48.8981 137.234C48.7836 135.958 47.6384 135.012 46.3749 135.127ZM46.5808 138.893C45.8429 138.893 45.2065 138.328 45.1384 137.571C45.0664 136.773 45.6556 136.069 46.4538 135.997C47.2591 135.928 47.9574 136.516 48.0287 137.312C48.1053 138.159 47.4379 138.893 46.5808 138.893ZM46.5855 136.533C45.74 136.533 45.3474 137.593 46.0009 138.138C46.6149 138.653 47.561 138.17 47.489 137.36C47.4456 136.88 47.0423 136.533 46.5855 136.533Z" fill="black"/>
<path d="M37.6814 141.117C37.4847 141.117 37.3577 140.919 37.4313 140.744L42.7186 127.897C42.7566 127.803 42.8441 127.739 42.9447 127.73C44.8331 127.56 44.7751 127.523 44.8951 127.685C44.9508 127.762 44.9632 127.863 44.9268 127.949L39.6394 140.797C39.5566 141.003 39.545 140.952 37.6821 141.117H37.6814ZM43.1569 128.255L38.1018 140.536L39.2004 140.438L44.2555 128.157L43.1569 128.255Z" fill="black"/>
</svg>
