<svg width="156" height="156" viewBox="0 0 156 156" fill="none" xmlns="http://www.w3.org/2000/svg">
<path d="M35.1679 129.251C37.199 131.778 42.4248 131.425 42.4248 131.425C42.4248 131.425 41.0552 118.502 45.1322 116.547C47.6373 115.343 50.4127 116.178 55.6709 116.591C57.7846 116.757 56.5054 127.22 56.5733 131.012C56.6034 132.982 68.6838 132.401 72.6403 130.432C76.5969 128.463 76.2811 108.566 71.8135 106.166C67.3459 103.767 40.7395 105.519 37.1365 107.919C33.5335 110.318 33.1445 126.716 35.1679 129.251Z" fill="#3D9CFB"/>
<path d="M77.7579 86.0602C77.7383 85.9389 77.6944 85.8228 77.629 85.7188C77.5636 85.6147 77.4779 85.525 77.3771 85.4547C77.2762 85.3845 77.1623 85.3353 77.0421 85.31C76.9218 85.2847 76.7977 85.2838 76.6771 85.3075C72.7515 85.9019 61.3783 86.5187 61.3628 88.4441C61.3551 89.8885 62.5286 89.1968 73.6987 87.8427C76.7953 87.466 77.961 87.4776 77.7579 86.0602Z" fill="#3D9CFB"/>
<path d="M40.1401 92.2431C53.4959 90.5501 53.6047 90.483 54.0363 89.2416C54.4423 88.0759 52.9755 88.0303 41.2935 89.9634C38.4023 90.4451 39.0416 92.3782 40.1401 92.2431Z" fill="#3D9CFB"/>
<path d="M129.626 23.8976C130.59 25.3042 131.748 27.5314 132.387 28.0803C133.131 28.7196 134.034 27.9977 133.726 27.0042C132.32 23.5439 130.042 20.5068 127.114 18.1886C126.15 17.4938 125.165 18.7831 126.091 19.8361C127.05 20.9308 127.749 21.1825 129.626 23.8976Z" fill="#3D9CFB"/>
<path d="M118.384 28.0045C118.301 25.4322 117.121 24.4842 115.24 24.1761C112.538 23.7322 93.2984 24.2062 90.9993 26.801C88.8253 29.2536 90.428 35.3231 92.165 37.3844C93.7199 39.2272 99.662 39.3816 103.378 39.4457C104.589 39.4611 107.624 42.9135 109.463 43.7936C111.81 44.9068 110.915 40.4832 111.171 39.2048C119.049 39.1075 118.572 34.1319 118.384 28.0045ZM110.253 37.3998C108.801 37.3543 110.005 41.0777 109.185 41.236C108.365 41.3942 105.865 37.6176 104.062 37.5805C96.9013 37.4261 94.2912 37.0162 93.5771 36.1808C92.2299 34.5712 91.3954 29.7346 92.3882 28.0346C92.8166 27.3051 115.669 24.627 116.012 27.6664C116.662 33.8795 115.639 37.5805 110.253 37.3998Z" fill="#3D9CFB"/>
<path d="M128.938 61.5906C131.856 58.6948 135.7 51.2851 133.827 50.8945C132.129 50.5332 132.36 52.2069 127.351 60.0412C126.29 61.7033 127.773 62.7486 128.938 61.5906Z" fill="#3D9CFB"/>
<path d="M136.287 43.4097C136.827 39.6114 136.204 32.1646 134.527 32.8409C132.828 33.518 134.828 37.3958 134.295 43.3117C134.09 45.5837 135.978 45.5381 136.287 43.4097Z" fill="#3D9CFB"/>
<path d="M16.8358 100.396C20.9352 97.7716 22.5602 96.4028 30.0371 94.191C30.1579 94.1626 30.2714 94.1094 30.3706 94.0349C30.4697 93.9603 30.5523 93.866 30.6131 93.7579C30.6739 93.6498 30.7116 93.5302 30.7238 93.4067C30.7361 93.2833 30.7225 93.1587 30.6841 93.0407C29.804 91.0165 18.8067 95.9056 16.0159 98.7497C15.1667 99.6066 15.8322 101.043 16.8358 100.396Z" fill="#3D9CFB"/>
<path d="M36.5443 140.579C32.9491 141.181 26.5854 141.798 23.2079 140.301C23.096 140.249 22.9747 140.22 22.8514 140.216C22.728 140.211 22.605 140.232 22.4898 140.276C22.3745 140.32 22.2694 140.387 22.1805 140.473C22.0917 140.559 22.021 140.661 21.9727 140.775C20.7321 143.863 32.3608 143.972 36.8361 142.7C38.6836 142.182 38.6511 140.225 36.5443 140.579Z" fill="#3D9CFB"/>
<path d="M106.207 10.6632C104.469 10.769 104.318 12.4157 106.251 12.4991C110.827 12.5579 115.34 13.5672 119.505 15.4628C119.73 15.5636 119.986 15.5728 120.217 15.4885C120.449 15.4042 120.639 15.233 120.747 15.0112C121.792 12.8936 110.622 10.3884 106.207 10.6632Z" fill="#3D9CFB"/>
<path d="M10.413 106.287C8.39732 105.278 6.07281 114.041 6.47965 117.998C6.63406 119.563 8.57025 119.465 8.71307 117.524C9.36773 108.739 12.106 107.129 10.413 106.287Z" fill="#3D9CFB"/>
<path d="M17.1297 138.624C17.2022 138.524 17.2539 138.411 17.2819 138.291C17.3098 138.171 17.3134 138.047 17.2923 137.925C17.2713 137.804 17.2261 137.688 17.1595 137.585C17.0928 137.481 17.006 137.392 16.9043 137.322C13.3461 134.81 11.7897 131.553 9.6829 127.544C8.99813 126.243 7.43404 126.679 7.90728 128.597C8.99118 132.975 15.4228 140.85 17.1297 138.624Z" fill="#3D9CFB"/>
<path d="M145.013 110.02C149.877 100.167 142.809 97.8499 142.809 97.8499C146.569 86.7245 135.279 78.9465 123.972 80.0937C115.908 67.9686 98.3143 75.0618 94.418 81.034C94.418 81.034 111.831 86.3825 121 82.7325C123.761 90.0966 130.892 95.5277 134.202 96.5877C144.492 98.6489 134.352 112.979 132.306 114.476C132.306 114.476 143.003 121.11 146.154 129.745C149.766 126.054 153.934 115.578 145.013 110.02Z" fill="#3D9CFB"/>
<path d="M123.718 53.5865C123.177 50.4984 113.254 48.7274 111.968 51.7336C111.306 53.2831 111.367 55.0656 112.231 56.0214C114.428 58.4501 124.628 58.7543 123.718 53.5865ZM113.555 52.7295C114.27 50.5486 122.047 53.0005 121.958 54.2041C121.86 55.5504 120.197 55.6855 117.445 55.6632C113.856 55.6253 112.743 55.1891 113.555 52.7295Z" fill="#3D9CFB"/>
<path d="M85.6861 19.5352C87.176 18.9863 91.0268 15.3076 97.0523 13.5853C97.1707 13.5538 97.2817 13.4992 97.3789 13.4245C97.4761 13.3498 97.5574 13.2566 97.6183 13.1503C97.6792 13.044 97.7184 12.9266 97.7336 12.805C97.7488 12.6834 97.7398 12.56 97.707 12.442C97.0523 10.2078 87.6199 14.7734 84.7373 17.5496C83.5422 18.7006 84.2571 20.0539 85.6861 19.5352Z" fill="#3D9CFB"/>
<path d="M118.181 42.4919C113.916 41.8372 112.088 47.9832 116.94 48.9304C121.649 49.8561 122.469 43.1466 118.181 42.4919ZM118.866 46.697C118.076 47.7199 115.639 46.9749 115.917 45.6811C116.436 43.2747 120.483 44.5979 118.866 46.697Z" fill="#3D9CFB"/>
<path d="M117.557 102.638C128.659 106.112 131.006 95.1766 122.235 91.5358C113.292 87.8271 108.473 99.7947 117.557 102.638ZM124.83 95.2738C125.48 95.9153 125.88 96.7674 125.959 97.6772C126.038 98.587 125.79 99.4951 125.259 100.239C123.732 102.668 117.654 102.217 115.069 98.937C118.602 98.3132 122.326 97.2046 124.83 95.2746V95.2738Z" fill="#001434"/>
<path d="M9.48032 87.0752C10.2523 87.5037 11.2104 86.0145 10.4585 85.5104C2.17636 79.9519 7.86297 68.5633 17.6721 67.1567C14.3926 76.3435 24.6827 84.1864 36.3415 83.7656C66.49 82.6671 50.1443 52.9849 28.6315 59.9353C25.525 54.241 19.3118 58.9425 18.5954 65.1711C5.9453 65.8481 -0.576617 81.5237 9.48032 87.0752ZM19.6801 66.9837C20.0802 66.4969 20.3449 65.9132 20.4475 65.2915C21.0573 61.3048 24.7707 56.889 26.9539 60.7552C26.1495 61.4623 23.7115 62.1927 24.5399 63.6216C24.6144 63.7191 24.7076 63.8008 24.814 63.8619C24.9204 63.9231 25.0379 63.9625 25.1596 63.9778C25.2813 63.9932 25.4049 63.9842 25.5232 63.9515C25.6414 63.9187 25.752 63.8627 25.8484 63.7869C30.245 60.1484 36.4844 60.0712 41.3364 61.924C39.0976 62.4961 34.491 63.7374 35.8382 65.2568C36.7399 66.2797 41.4268 63.3082 44.0068 63.1353C45.836 64.101 47.4766 65.3879 48.8504 66.9343C48.0459 67.3775 42.1038 68.9655 43.9389 70.6801C44.5781 71.2745 47.4739 69.424 50.0848 68.6188C57.7717 84.9198 21.5754 87.323 18.7328 71.2745C18.5692 70.5335 18.5692 69.7657 18.7328 69.0246C18.8964 68.2835 19.2197 67.5871 19.6801 66.9837Z" fill="#001434"/>
<path d="M106.191 98.3734C107.064 98.5386 107.319 97.5002 106.83 96.7784C106.025 95.5972 105.033 92.3633 108.252 92.7539C108.763 92.8141 109.343 92.5285 109.343 92.0097C109.343 90.5429 105.664 90.2866 104.491 92.4227C103.347 94.5025 104.401 98.0267 106.191 98.3734Z" fill="#001434"/>
<path d="M44.458 51.2629C42.1559 51.8805 40.4258 50.3527 39.9518 51.669C39.2825 53.5218 45.9472 54.0692 45.5635 51.9925C45.5418 51.8705 45.4955 51.7542 45.4274 51.6507C45.3593 51.5471 45.2709 51.4586 45.1674 51.3903C45.064 51.3221 44.9478 51.2756 44.8258 51.2537C44.7039 51.2318 44.5787 51.2349 44.458 51.2629Z" fill="#001434"/>
<path d="M105.236 107.204C109.343 108.212 112.217 104.684 110.64 102.909C109.918 102.089 107.744 103.06 105.236 102.202C99.0609 100.066 99.9039 105.888 105.236 107.204Z" fill="#001434"/>
<path d="M137.739 77.6874C132.36 64.3942 111.817 60.6114 100.715 67.1735C93.0349 73.1527 91.6824 78.6594 90.6016 81.5853C82.4631 80.7878 77.5886 100.135 86.8102 101.278C86.9151 102.785 87.1954 104.274 87.6456 105.716C85.1831 106.621 82.9528 108.062 81.1167 109.936C77.9515 96.5244 77.7917 98.4645 51.0277 97.833C42.9571 97.6376 29.4246 97.9611 26.4987 101.09C24.0237 103.738 23.5952 113.042 24.0916 121.196C24.6104 129.659 26.0703 134.007 28.3376 135.135C31.1061 136.504 37.5824 136.887 41.4865 137.219C41.5536 141.672 42.6939 150.065 46.7971 149.984C53.5506 149.851 73.2893 150.038 73.7556 150.037C84.4325 149.995 104.28 151.376 111.825 148.329C130.036 148.653 153.971 149.014 147.238 129.923C149.683 127.087 151.843 122.07 151.09 117.173C150.879 115.659 150.343 114.209 149.52 112.921C148.697 111.633 147.606 110.538 146.321 109.711C148.406 106.514 148.592 99.9174 144.2 97.5705C147.705 91.2948 145.186 82.3048 137.739 77.6874ZM101.768 68.7059C108.27 63.9967 128.772 64.832 134.955 76.3634C132.061 75.3494 128.979 74.9849 125.929 75.2958C115.074 66.4269 103.212 69.2177 96.9536 73.5804C98.2929 71.7131 99.9174 70.0682 101.768 68.7059ZM94.6446 78.4093C99.3986 72.1213 112.389 66.8106 125.034 76.9803C129.396 77.1756 133.669 77.2659 136.204 78.9813C137.768 83.1177 138.114 88.6692 135.865 96.0713C131.45 95.2815 122.908 87.8687 121.927 82.5611C121.898 82.4157 121.834 82.2794 121.742 82.1631C121.65 82.0467 121.532 81.9537 121.397 81.8915C121.262 81.8293 121.115 81.7996 120.966 81.8049C120.818 81.8102 120.673 81.8503 120.543 81.9219C112.862 86.4914 99.1732 81.7335 93.817 79.6121C94.088 79.1844 94.3659 78.7929 94.6446 78.4093ZM137.701 101.163C138.092 105.409 134.662 115.305 130.036 113.297C124.04 109.295 133.88 89.73 137.701 101.163ZM93.0728 95.1834C96.4874 96.2519 101.113 96.6055 102.753 92.6111C105.747 85.345 95.3664 82.0956 91.6507 83.652C92.0092 82.8243 92.4057 82.0136 92.8388 81.2225C98.9022 83.6751 111.893 87.9852 120.399 84.0789C121.979 88.6824 127.673 94.0833 132.074 96.5584C128.754 98.3556 126.575 103.501 126.372 107.42C123.427 108.488 120.311 109.003 117.179 108.939C113.261 105.065 109.718 106.638 109.049 109.225C108.372 111.843 110.658 115.439 115.871 113.528C119.126 114.838 122.617 115.455 126.124 115.341C110.628 125.134 82.8869 113.791 89.0622 92.5486C90.0832 93.8328 91.4887 94.7562 93.0728 95.1834ZM91.4114 92.3023C94.5635 91.6785 98.2421 90.4595 100.536 88.0231C103.739 92.6034 97.5635 96.8687 91.4114 92.3023ZM127.653 113.378C124.166 113.713 120.648 113.289 117.34 112.137C117.56 111.736 117.689 111.292 117.716 110.836C120.666 110.833 123.596 110.348 126.39 109.398C126.484 110.808 126.916 112.173 127.651 113.38L127.653 113.378ZM115.791 111.031C114.911 113.453 109.727 111.978 110.803 109.346C111.584 107.437 116.511 109.062 115.789 111.033L115.791 111.031ZM86.7022 99.4032C81.0904 97.5079 84.0773 84.021 89.7639 83.4227C87.713 88.4995 86.6729 93.9279 86.7022 99.4032ZM41.4185 135.342C36.1828 134.898 30.7648 134.371 29.3304 133.558C28.404 133.033 26.4045 129.241 26.1559 124.367C25.6526 114.468 25.5383 104.042 28.3832 102.199C32.8361 99.3183 46.8566 99.9128 52.1 99.8603C65.0304 99.7244 74.6287 100.221 75.8091 101.695C80.0891 107.036 82.0377 129.951 77.276 133.371C74.2451 135.545 66.0981 135.575 57.7264 135.507C56.8309 131.137 59.2009 116.882 56.1616 115.792C52.4837 114.476 46.6165 115.077 44.8331 116.01C41.268 117.894 41.5011 124.775 41.4185 135.342ZM46.7971 148.122C45.4129 147.407 43.6149 144.24 43.442 137.32C43.2312 128.775 43.4196 118.62 45.5264 117.386C48.0987 115.882 53.1538 115.987 55.1695 117.372C57.5627 119.011 54.4848 134.92 56.5993 138.621C58.4189 142.944 68.0922 145.21 72.1622 148.166C67.2476 148.161 52.4606 148.146 46.7971 148.124V148.122ZM74.5122 148.182C73.8174 146.561 71.2998 145.331 68.1176 143.924C74.008 143.886 83.5686 143.797 88.8414 143.781C88.4438 144.484 88.2784 145.295 88.3688 146.097C88.4592 146.9 88.8008 147.653 89.3447 148.25C85.0995 148.289 79.5225 148.297 74.516 148.184L74.5122 148.182ZM76.1967 141.999C68.4033 141.826 61.341 143.706 58.1209 137.381C81.8007 137.779 83.4705 136.162 81.4927 112.527C81.8609 111.828 83.4628 109.421 88.3373 107.442C90.5715 112.061 94.8059 115.837 100.237 118.184C96.9575 121.614 93.0234 126.058 91.4214 118.146C91.2933 117.65 90.722 117.176 90.285 117.47C88.7966 118.469 90.9799 124.352 94.0841 124.548C98.0329 124.795 101.02 118.68 102.403 119.116C103.118 119.342 103.321 127.223 106.881 127.995C104.488 129.048 102.375 130.056 100.134 131.083C94.0262 130.067 88.67 132.023 90.7845 138.853C90.1817 139.793 89.7676 140.842 89.5655 141.941C86.3324 141.925 81.2101 141.963 76.2029 142.001L76.1967 141.999ZM93.9529 148.196C90.0341 148.377 88.626 144.225 92.3316 143.796C97.8901 143.811 102.509 143.826 105.863 143.976C115.856 144.143 114.781 148.838 93.959 148.199L93.9529 148.196ZM113.586 146.354C113.503 143.789 111.923 142.623 107.222 142.172C107.671 141.294 108.32 140.534 109.117 139.953C109.324 139.821 109.471 139.612 109.525 139.373C109.579 139.133 109.537 138.882 109.408 138.673C109.278 138.465 109.072 138.316 108.833 138.258C108.594 138.2 108.343 138.239 108.132 138.366C106.811 139.283 105.792 140.573 105.206 142.071C103.154 142.004 101.1 141.967 99.0458 141.959C99.7088 140.912 100.575 140.009 101.593 139.304C101.791 139.163 101.927 138.952 101.972 138.713C102.016 138.475 101.966 138.228 101.832 138.026C101.698 137.824 101.491 137.681 101.254 137.629C101.017 137.577 100.769 137.619 100.563 137.747C99.0158 138.797 97.7832 140.247 96.9969 141.944C95.3124 141.928 93.387 141.936 91.4685 141.914C91.8823 137.874 97.8098 136.257 97.1042 134.94C96.5097 133.835 93.1245 136.437 92.222 137.039C91.5226 132.225 96.5923 132.579 100.775 132.85C105.07 130.284 113.745 131.496 117.361 136.521C120.825 141.414 119.783 145.86 113.593 146.356L113.586 146.354ZM145.246 140.201C142.139 144.601 133.624 146.677 118.656 146.617C126.067 140.291 115.993 129.723 107.606 129.71C108.328 129.304 112.72 127.829 114.563 126.699C115.812 125.931 115.361 124.216 113.526 125.082C106.598 128.369 105.703 124.976 104.996 119.779C113.217 121.982 123.447 120.485 129.502 115.182C129.917 115.413 130.374 115.558 130.846 115.607C131.318 115.657 131.795 115.609 132.248 115.469C144.072 122.09 148.961 134.133 145.253 140.205L145.246 140.201ZM144.253 109.443C144.172 109.55 144.115 109.673 144.085 109.804C144.056 109.935 144.054 110.071 144.081 110.203C144.108 110.334 144.163 110.458 144.242 110.567C144.321 110.676 144.422 110.766 144.539 110.833C151.006 114.118 150.068 123.462 146.405 127.967C144.99 124.951 141.116 117.978 134.234 114.352C138.138 110.938 142.23 101.279 137.543 96.9313C139.628 90.2217 139.724 84.888 138.695 80.6844C143.831 84.8818 144.922 91.9441 142.632 96.6989C142.457 97.0759 142.411 97.4994 142.499 97.9053C142.587 98.3111 142.805 98.6771 143.12 98.9477C146.61 101.961 146.629 106.053 144.26 109.446L144.253 109.443Z" fill="#001434"/>
<path d="M32.603 40.1081C37.259 39.8595 39.3797 38.2422 40.0421 34.6469C40.8913 30.0427 37.4697 27.0265 31.347 27.719C26.63 28.2532 24.5988 29.9153 24.2306 33.36C23.8701 36.7375 26.3968 40.4385 32.603 40.1081ZM31.1733 29.4413C32.7051 29.324 34.2446 29.5265 35.6941 30.0357C33.4978 32.4429 31.0158 35.517 29.3158 37.7612C23.8021 36.4295 25.3361 29.923 31.1733 29.4413Z" fill="#001434"/>
<path d="M5.1926 61.6733C5.53846 62.0423 6.21551 61.6656 6.41932 61.1923C8.8936 55.5049 14.0236 49.7056 19.0486 46.8021C29.053 59.5742 55.9065 61.7018 64.0751 46.7573C65.0455 50.7216 68.3775 56.5734 70.0258 56.2422C72.0561 55.8361 69.1766 53.5047 68.5512 52.1652C77.1715 54.8055 85.3401 47.6297 84.7634 39.1299C93.0602 51.5939 89.4649 68.7665 68.1922 65.3967C67.6356 61.7335 66.7031 56.8366 64.9877 56.4985C64.4843 56.4005 64.2504 57.2126 64.431 57.6943C66.3116 62.8321 66.5973 68.2855 66.5448 72.2945C66.5224 74.2655 68.3976 73.8586 68.5011 72.2945C68.6125 70.6399 68.5891 68.979 68.4308 67.3282C90.1921 71.6986 96.9997 48.8464 84.558 36.2163C83.3321 28.3187 78.48 20.736 70.5515 24.241C69.612 21.6238 67.746 21.9249 65.2247 22.6313C62.7589 -3.34672 11.1656 2.79768 16.4909 29.8859C11.7446 34.3689 13.5727 40.1914 17.7925 45.3739C10.6167 49.7805 3.29732 59.6954 5.1926 61.6733ZM70.6496 46.7272C78.006 45.2828 73.1925 32.9237 71.2363 25.9965C74.471 24.7173 76.9383 25.0932 79.0521 27.583C77.7126 27.8617 73.5986 30.1306 75.8552 31.2014C76.7955 31.6453 78.1419 29.7423 80.2178 29.2304C81.0049 30.6243 81.6306 32.1032 82.083 33.6386C79.5786 34.4106 75.8174 37.1736 77.5621 37.9618C78.6429 38.4582 80.3159 36.1939 82.5423 35.449C85.2127 45.099 76.6295 54.1717 67.0844 49.711C66.5623 48.6926 66.1754 47.6103 65.9334 46.4917C67.4766 46.8664 69.0767 46.9463 70.6496 46.7272ZM59.2393 13.7579C61.7329 15.8608 66.5278 24.62 60.8605 21.6107C61.4094 17.0976 55.2866 11.3662 50.7287 9.19222C53.8445 10.1244 56.7394 11.6775 59.2393 13.7579ZM51.9052 16.9694C52.2546 16.8543 52.6332 16.8642 52.9761 16.9974C53.319 17.1307 53.605 17.3789 53.7851 17.6997C50.3404 17.8348 52.0704 22.6869 49.6332 22.5889C50.8437 21.2571 50.1744 17.6465 51.9052 16.9694ZM40.1329 17.3022C37.3645 16.7008 37.0935 20.1455 35.8228 21.0333C36.4373 18.6617 35.8575 14.7669 40.1329 17.3022ZM28.6616 10.7563C29.1881 10.499 29.7221 10.2584 30.2635 10.0345C21.9143 15.691 19.4168 24.3568 19.8468 28.8244C19.3267 28.9791 18.7963 29.0973 18.2596 29.1779C17.6119 25.2739 18.3561 15.8492 28.6616 10.7563ZM15.5807 35.5038C15.7654 33.7927 16.6037 32.219 17.9207 31.111C26.5556 30.0503 24.4418 22.3974 27.6163 21.0078C30.7908 19.6182 36.6805 25.9486 38.4105 20.5863C38.6661 19.7965 38.8838 19.2329 39.5307 19.1418C42.1416 18.7659 47.768 25.2955 50.4384 24.4301C52.4163 24.0163 52.7544 22.365 52.9351 21.2649C53.7843 16.1349 60.0885 25.2592 63.0376 24.1607C63.5669 25.6468 63.9622 27.1774 64.2187 28.734C61.2172 26.3346 55.7452 26.7206 52.5799 28.9224C50.3558 30.4734 49.5166 34.7457 51.7755 37.2871C54.6868 40.5666 61.5538 40.5133 64.6302 37.7156C64.0898 52.3312 49.1422 57.9954 35.7008 54.6627C32.114 53.8766 28.6909 52.4742 25.5836 50.5178C19.2964 46.3134 15.1067 39.2202 15.5807 35.5038ZM61.458 29.4049C59.2475 31.8785 57.1948 34.4886 55.3121 37.2199C51.4289 35.5648 52.3159 31.8599 53.6345 30.7436C54.7142 29.8681 56.0009 29.2851 57.371 29.0504C58.7411 28.8157 60.1485 28.9372 61.458 29.4034V29.4049Z" fill="#001434"/>
<path d="M32.9031 26.1172C34.3475 26.3272 36.2505 25.9512 39.0189 27.3053C39.2672 27.4037 39.5436 27.4037 39.7918 27.3052C40.04 27.2068 40.2413 27.0173 40.3546 26.7754C40.4679 26.5336 40.4846 26.2577 40.4014 26.0039C40.3182 25.7502 40.1412 25.5378 39.9067 25.4101C38.1535 24.4064 34.0765 23.8977 32.5418 24.2891C31.6771 24.4999 31.4594 25.9065 32.9031 26.1172Z" fill="#001434"/>
<path d="M36.3677 43.9963C34.4717 45.6662 37.8036 49.5996 43.5358 49.7285C48.8387 49.8412 51.1254 46.1703 49.779 44.38C49.2981 43.7477 48.1771 43.2444 46.3413 43.7331C44.4189 44.2091 42.4063 44.1825 40.4972 43.6559C38.3201 43.1687 36.9961 43.4397 36.3677 43.9963ZM46.9928 45.4801C47.7973 45.2323 48.2643 45.2323 48.1431 45.7511C47.7826 47.2951 45.4357 47.9475 43.1938 47.895C40.8546 47.8425 37.5527 46.3455 37.6276 45.2918C37.6353 45.1489 37.9133 45.0362 38.3047 45.142C40.9828 45.8538 43.5551 46.5687 46.9928 45.4801Z" fill="#001434"/>
<path d="M50.0546 27.9444C51.8596 27.79 52.725 26.0561 55.4587 26.222C55.582 26.2314 55.706 26.2155 55.8229 26.1751C55.9399 26.1347 56.0473 26.0709 56.1386 25.9874C56.2299 25.9039 56.3031 25.8026 56.3537 25.6897C56.4043 25.5769 56.4313 25.4548 56.433 25.3311C56.2153 23.1271 51.1524 24.8116 49.3776 26.3687C49.2296 26.4922 49.1255 26.6601 49.0807 26.8476C49.0359 27.035 49.0528 27.2319 49.1288 27.4089C49.2049 27.586 49.3361 27.7337 49.5029 27.8302C49.6697 27.9267 49.8632 27.9667 50.0546 27.9444Z" fill="#001434"/>
<path d="M41.6753 39.3854C44.8792 40.2578 47.2106 39.2125 48.1509 37.7681C49.4749 35.7223 48.2567 32.4412 47.0153 33.1422C46.1128 33.6533 47.497 35.6242 46.5266 36.7374C45.7369 37.6399 44.6738 38.1741 42.1933 37.6554C40.7875 37.3543 40.4864 39.1299 41.6753 39.3854Z" fill="#001434"/>
</svg>
