<svg width="156" height="156" viewBox="0 0 156 156" fill="none" xmlns="http://www.w3.org/2000/svg">
<path d="M123.46 142.31L142.512 22.9671C143.254 18.3223 140.09 13.9557 135.445 13.2142L79.7677 4.32619C75.1229 3.5847 70.7563 6.74901 70.0148 11.3939L50.9632 130.737C50.2217 135.382 53.3861 139.749 58.031 140.49L113.708 149.378C118.353 150.12 122.719 146.956 123.46 142.31Z" fill="#81F8F8"/>
<path d="M142.754 17.5851C140.895 14.8853 137.812 13.3175 135.486 12.9458L79.81 4.0574C75.0282 3.29012 70.5097 6.56365 69.7463 11.3501L50.6943 130.693C49.7706 136.476 54.9674 141.425 60.127 142.248L115.172 151.036C120.104 151.823 124.756 148.451 125.544 143.52L144.496 24.8074C144.883 22.3855 144.248 19.753 142.755 17.5851H142.754ZM51.2293 130.779L70.2813 11.4353C70.9998 6.93374 75.2226 3.87467 79.7241 4.59241L135.4 13.4801C139.89 14.197 142.959 18.4329 142.243 22.9221L123.191 142.267C122.472 146.768 118.248 149.826 113.748 149.109L58.0721 140.221C53.5815 139.504 50.5123 135.268 51.2293 130.779Z" fill="black"/>
<path d="M116.944 19.5858C117.758 19.5858 118.419 18.9255 118.419 18.1109C118.419 17.2963 117.758 16.6359 116.944 16.6359C116.129 16.6359 115.469 17.2963 115.469 18.1109C115.469 18.9255 116.129 19.5858 116.944 19.5858Z" fill="black"/>
<path d="M98.9802 11.2316C98.9384 11.4949 99.1172 11.7427 99.3812 11.7845L114.482 14.1955C114.745 14.2373 114.993 14.0584 115.035 13.7944C115.077 13.5304 114.898 13.2834 114.634 13.2416L99.533 10.8306C99.2698 10.7888 99.022 10.9676 98.9802 11.2316Z" fill="black"/>
<path d="M90.6537 11.8154C91.263 11.913 91.678 12.4851 91.5804 13.0945L91.4426 13.9578C91.1221 15.9638 92.4894 17.8507 94.4955 18.1705L117.136 21.7847C119.142 22.1052 121.029 20.7379 121.349 18.7318L121.487 17.8685C121.584 17.2592 122.156 16.8442 122.766 16.9417L132.698 18.5274C135.266 18.9377 137.016 21.3519 136.606 23.92L117.968 140.665C117.656 142.626 115.813 143.961 113.854 143.648L60.7745 135.175C58.2063 134.764 56.4565 132.35 56.8661 129.782L75.3289 14.1374C75.7393 11.5692 78.1534 9.81938 80.7216 10.229L90.6537 11.8146V11.8154Z" fill="white"/>
<path d="M67.3412 127.173L65.5581 124.877C65.315 124.562 64.8621 124.488 64.5307 124.709L62.1104 126.319C61.8216 126.511 61.6241 126.817 61.5692 127.157L61.1511 129.715C61.0837 130.13 61.3648 130.524 61.7829 130.593L66.2929 131.33C66.7419 131.395 67.1051 131.094 67.1701 130.698L67.5874 128.141C67.6424 127.8 67.5534 127.448 67.3412 127.173ZM66.6235 130.609C66.6034 130.73 66.4857 130.802 66.3811 130.783L65.3235 130.61L65.6983 128.312C65.7223 128.162 65.6239 128.021 65.4699 127.994C63.5559 127.663 63.5528 127.647 63.4173 127.742C63.2888 127.835 63.3345 127.749 62.9303 130.22C61.7867 130.034 61.8045 130.058 61.7349 129.963C61.6621 129.86 61.6652 130.013 62.1158 127.249C62.1468 127.058 62.2567 126.887 62.417 126.781L64.8365 125.171C64.9294 125.112 65.0533 125.13 65.1214 125.218L66.9045 127.514C67.0222 127.666 67.0733 127.863 67.0416 128.053L66.6243 130.61L66.6235 130.609ZM63.4769 130.308L63.8075 128.284L65.1083 128.496L64.7769 130.521L63.4769 130.308Z" fill="black"/>
<path d="M74.8743 130.483C76.381 129.619 76.2687 127.361 74.6335 126.679C73.5596 126.232 72.31 126.731 71.8539 127.825C71.1842 129.428 72.6398 131.152 74.3617 130.695L75.1453 132.598C75.2862 132.937 75.798 132.722 75.6563 132.387L74.8735 130.484L74.8743 130.483ZM72.3665 128.037C72.9038 126.746 74.7349 126.751 75.2699 128.043C75.7987 129.33 74.5073 130.627 73.212 130.092C72.4106 129.757 72.032 128.838 72.3665 128.038V128.037Z" fill="black"/>
<path d="M89.4899 127.656L83.6559 126.704C82.8708 126.574 82.1298 127.108 82.0013 127.894L81.049 133.727C80.922 134.511 81.4554 135.253 82.239 135.381C88.296 136.373 88.1225 136.353 88.306 136.353C89.0145 136.353 89.6122 135.845 89.7275 135.144L90.6791 129.31C90.8069 128.528 90.278 127.787 89.4899 127.656ZM90.1325 129.221L89.1802 135.054C89.102 135.536 88.6459 135.867 88.1628 135.786L82.3288 134.834C81.8457 134.755 81.5166 134.299 81.5964 133.817L82.5487 127.983C82.6207 127.537 83.007 127.238 83.4244 127.238C83.5312 127.238 84.0655 127.333 89.4008 128.202C89.8839 128.281 90.2122 128.737 90.1325 129.221Z" fill="black"/>
<path d="M88.4803 131.748C88.3858 131.615 88.4385 131.659 86.1816 131.289C86.5586 128.985 86.5718 129.092 86.4789 128.965C86.3937 128.847 86.2272 128.809 86.0956 128.899C85.9593 128.994 86.0035 128.946 85.6349 131.201C83.3548 130.829 83.4423 130.812 83.313 130.901C83.1868 130.991 83.1573 131.166 83.2479 131.29C83.3509 131.433 83.3137 131.382 85.5467 131.747C85.1704 134.051 85.1564 133.944 85.2486 134.071C85.3926 134.271 85.7069 134.198 85.7472 133.955L86.0925 131.836C87.0464 131.992 88.176 132.186 88.2558 132.186C88.4873 132.186 88.6081 131.925 88.4803 131.749V131.748Z" fill="black"/>
<path d="M97.8967 136.635C97.786 136.552 95.1899 134.575 95.5546 132.34C95.8225 130.708 97.9765 130.299 98.8312 131.691C100.089 130.638 101.996 131.724 101.732 133.349C101.365 135.584 98.2753 136.632 98.1445 136.675C98.0609 136.702 97.9687 136.689 97.8967 136.635ZM96.0896 132.428C95.8155 134.101 97.6319 135.718 98.1089 136.111C98.6865 135.89 100.923 134.932 101.196 133.261C101.403 132.004 99.7518 131.262 98.9714 132.328C98.8405 132.506 98.5618 132.461 98.4952 132.25C98.0957 131.005 96.2971 131.15 96.0896 132.427V132.428Z" fill="black"/>
<path d="M113.92 133.676C112.871 132.219 110.817 131.838 109.307 132.924C106.925 134.639 107.806 138.395 110.703 138.869C113.619 139.346 115.622 136.049 113.92 133.676ZM109.194 137.45C109.505 136.836 109.986 136.41 110.509 136.266C110.861 136.501 111.3 136.574 111.714 136.465C112.164 136.767 112.485 137.32 112.585 137.999C111.454 138.639 110.051 138.401 109.195 137.449L109.194 137.45ZM110.415 134.887C110.546 134.073 111.602 133.828 112.08 134.495C112.557 135.157 111.995 136.084 111.18 135.949C110.672 135.866 110.333 135.389 110.415 134.887ZM113.079 137.644C112.94 137.046 112.651 136.54 112.258 136.189C112.851 135.71 113.001 134.827 112.531 134.172C112.041 133.497 111.116 133.367 110.466 133.834C109.828 134.295 109.66 135.168 110.083 135.83C109.596 136.038 109.16 136.427 108.838 136.954C107.735 135.003 109.341 132.513 111.679 132.891C113.965 133.263 114.775 136.115 113.079 137.644Z" fill="black"/>
<path d="M85.7988 19.2018C83.5287 16.262 78.7871 17.5155 78.3071 21.2326C78.0121 23.5283 79.6334 25.6389 81.9376 25.9354C85.6292 26.4139 88.0813 22.1602 85.7988 19.2018ZM81.5799 22.5706C82.022 22.8539 82.5972 22.9484 83.1415 22.7695C83.7873 23.1567 84.2619 23.9123 84.4183 24.8569C82.9727 25.7705 81.027 25.5638 79.8146 24.2638C80.204 23.3897 80.8567 22.7819 81.5799 22.5706ZM81.2996 20.8618C81.4467 19.7229 82.8969 19.3458 83.5852 20.2416C84.0126 20.7952 83.9227 21.6012 83.3514 22.041C82.4517 22.7347 81.1564 21.9883 81.2996 20.8618ZM83.692 22.4761C84.4864 21.8606 84.6498 20.7139 84.0242 19.9033C83.404 19.1004 82.2542 18.9525 81.4498 19.5711C80.6562 20.1835 80.4936 21.331 81.1161 22.1416C80.4386 22.4304 79.8409 23.0041 79.4344 23.7799C77.7318 21.2156 79.813 17.7609 82.941 18.1496C86.0535 18.5491 87.2125 22.4304 84.9099 24.4861C84.7117 23.6321 84.2758 22.9275 83.692 22.4761Z" fill="black"/>
<path d="M107.006 25.6614C106.903 25.5166 107.016 25.5112 95.1309 23.6832C94.7678 23.6274 94.685 24.1733 95.0442 24.2298L106.783 26.1004C107.006 26.1004 107.139 25.8449 107.006 25.6614Z" fill="black"/>
<path d="M103.84 27.1325C94.5686 25.6669 94.6995 25.6274 94.5586 25.7327C94.4308 25.8248 94.4091 25.9982 94.4966 26.119C94.6019 26.2638 94.4959 26.2011 103.761 27.6807C104.145 27.7055 104.176 27.1859 103.84 27.1325Z" fill="black"/>
<path d="M124.014 28.616L112.319 26.7492C112.172 26.7276 112.028 26.8298 112.003 26.98C111.98 27.1294 112.083 27.2719 112.233 27.2966L123.935 29.1641C124.313 29.1874 124.358 28.6725 124.015 28.616H124.014Z" fill="black"/>
<path d="M121.028 30.1977C111.767 28.691 111.889 28.6933 111.746 28.7978C111.617 28.8931 111.598 29.0665 111.684 29.1842C111.79 29.3305 111.672 29.2655 120.985 30.7482C121.324 30.7482 121.363 30.2519 121.029 30.1977H121.028Z" fill="black"/>
<path d="M130.968 39.0544L124.916 38.0386C124.745 38.0122 124.579 38.0525 124.442 38.1524C124.155 38.3591 124.256 38.1051 123.541 42.6934C123.487 43.0395 123.724 43.3646 124.068 43.4188L130.121 44.4354C130.296 44.4618 130.459 44.4207 130.596 44.3216C130.887 44.1079 130.794 44.2798 131.495 39.7806C131.55 39.4353 131.313 39.1101 130.968 39.0544ZM130.948 39.6939L130.303 43.8199C130.283 43.9701 130.371 43.8687 124.157 42.873C124.032 42.8529 124.107 42.9791 124.734 38.6533C124.74 38.6107 124.777 38.5836 124.814 38.5836C131.336 39.6761 130.966 39.5762 130.948 39.6939Z" fill="black"/>
<path d="M129.252 40.5781L127.412 41.8169L126.098 40.0532C125.882 39.7605 125.436 40.0903 125.655 40.3846C127.223 42.4874 127.154 42.4704 127.349 42.4704C127.468 42.4704 127.332 42.5354 129.562 41.0373C129.865 40.8336 129.556 40.3753 129.253 40.5781H129.252Z" fill="black"/>
<path d="M122.639 22.4374C122.349 22.3918 122.151 22.1192 122.198 21.8289L122.315 21.0926C122.36 20.8022 122.633 20.6048 122.923 20.6512C123.214 20.6977 123.411 20.9695 123.364 21.2598L123.248 21.9961C123.202 22.2865 122.929 22.4839 122.639 22.4374Z" fill="black"/>
<path d="M124.448 22.7092C124.158 22.6635 123.96 22.3909 124.007 22.1006L124.237 20.6527C124.282 20.3624 124.555 20.165 124.845 20.2114C125.136 20.2579 125.333 20.5296 125.287 20.82L125.057 22.2678C125.011 22.5582 124.738 22.7556 124.448 22.7092Z" fill="black"/>
<path d="M126.881 22.6952C126.835 22.9856 126.563 23.183 126.272 23.1365C125.982 23.0901 125.785 22.8183 125.831 22.528L126.144 20.5591C126.189 20.2687 126.462 20.0713 126.752 20.1177C127.043 20.1642 127.24 20.436 127.194 20.7263L126.881 22.6952Z" fill="black"/>
<path d="M133.839 21.6547C133.727 21.5006 133.562 21.4 133.375 21.3705L129.804 20.803C129.418 20.7434 129.052 21.0074 128.99 21.3938L128.784 22.6945C128.723 23.0832 128.987 23.4471 129.374 23.5083C131.823 23.8962 132.971 24.0843 133.057 24.0843C133.401 24.0843 133.703 23.8342 133.759 23.485C133.992 22.0186 134.051 21.9466 133.839 21.6547ZM129.268 22.9647C129.18 22.8439 129.199 22.8935 129.426 21.4635C129.45 21.3163 129.588 21.2165 129.734 21.2389L131.31 21.489L131.019 23.3224C129.263 23.0437 129.354 23.084 129.268 22.9647Z" fill="black"/>
<path d="M53.7034 114.076L59.2671 114.95L59.048 116.151L53.5044 115.304L53.7034 114.076Z" fill="black"/>
<path d="M132.74 18.2603L122.809 16.6747C122.048 16.5523 121.341 17.0703 121.219 17.826L121.081 18.6885C120.783 20.5436 119.03 21.8142 117.178 21.5168L94.5371 17.9019C92.6866 17.6076 91.4114 15.8671 91.7103 13.9996L91.8481 13.1363C91.9681 12.3807 91.4509 11.6684 90.6968 11.5468L80.7639 9.96114C78.0517 9.52989 75.4959 11.3703 75.0615 14.0949L56.5995 129.738C56.1659 132.45 58.0203 135.009 60.7325 135.442L113.811 143.915C115.898 144.251 117.898 142.834 118.237 140.707L136.874 23.9619C137.309 21.2435 135.459 18.6916 132.741 18.2588L132.74 18.2603ZM117.7 140.623C117.41 142.442 115.7 143.674 113.896 143.381L60.8169 134.908C58.3997 134.521 56.7474 132.241 57.1338 129.825L58.6621 120.25L119.401 129.969L117.7 140.622L117.7 140.623ZM58.7481 119.715L71.9769 36.8509L132.711 46.5956L119.487 129.434L58.7481 119.715ZM136.338 23.8768L132.797 46.0598L72.0629 36.3151L75.5965 14.18C75.9442 11.9997 77.8349 10.4412 79.9765 10.4412C80.5239 10.4412 80.0315 10.3955 90.6101 12.0826C91.0707 12.1561 91.3859 12.5905 91.3123 13.052L91.1745 13.9145C90.8299 16.07 92.2956 18.0931 94.4511 18.4376L117.093 22.0526C119.245 22.3917 121.272 20.9245 121.616 18.7744L121.754 17.9119C121.827 17.4505 122.271 17.133 122.722 17.2105L132.655 18.7961C135.076 19.1825 136.725 21.4565 136.337 23.8775L136.338 23.8768Z" fill="black"/>
<path d="M51.8684 31.9096L41.9742 19.5642C41.8078 19.3605 41.481 19.4542 41.4462 19.7097L39.2458 35.3759L22.6419 29.5404C22.3741 29.4452 22.1333 29.7525 22.2974 29.9902L32.9085 45.5217L11.1482 50.4607C10.8741 50.5226 10.8307 50.8943 11.0824 51.0197L31.7967 61.1933L16.4185 69.8479C16.1607 69.9911 16.2505 70.3845 16.5416 70.4054L33.4954 71.662L29.0822 84.8428C29.0055 85.0713 29.2184 85.2888 29.443 85.2253L43.8348 81.3587C44.2141 81.2557 44.0624 80.6805 43.6791 80.7819L29.8247 84.5061L34.1829 71.4893C34.2464 71.2996 34.1125 71.11 33.9228 71.0968L17.5714 69.8843L32.5833 61.4365C32.7908 61.3195 32.7854 61.016 32.5678 60.9084L12.1021 50.8579L33.4683 46.0087C33.6735 45.9599 33.7664 45.7238 33.6479 45.5488L23.3032 30.406C39.6058 36.1355 39.4587 36.1494 39.6468 36.034C39.8326 35.9179 39.7544 36.0426 41.9409 20.4778C51.5347 32.4485 51.4085 32.3695 51.6028 32.3935C51.8684 32.426 52.0325 32.1125 51.8684 31.9112V31.9096Z" fill="black"/>
<path d="M122.412 33.4L59.1275 23.3386C58.7055 23.2713 58.3083 23.5593 58.2409 23.982L44.2959 111.699C44.2285 112.121 44.5166 112.518 44.9393 112.586L108.224 122.647C108.646 122.715 109.043 122.427 109.111 122.004L123.056 34.2865C123.122 33.8646 122.835 33.4674 122.412 33.4Z" fill="white"/>
<path d="M122.494 33.1112L59.139 23.039C58.5776 22.9468 58.0434 23.3309 57.9528 23.8992L43.9962 111.688C43.9071 112.252 44.2935 112.784 44.8571 112.874L108.212 122.946C108.762 123.039 109.31 122.651 109.399 122.085L123.355 34.2974C123.444 33.7329 123.058 33.201 122.494 33.1112ZM122.767 34.2037C108.819 122.283 108.871 122.107 108.634 122.279C108.398 122.451 108.618 122.34 44.9508 112.285C44.7108 112.247 44.5467 112.021 44.5846 111.781C58.4956 23.6955 58.4809 23.879 58.7178 23.7064C58.9539 23.5353 58.7542 23.5206 122.401 33.6996C122.641 33.7384 122.805 33.9644 122.767 34.2037Z" fill="black"/>
<path d="M109.161 92.4011L117.812 37.9813C117.879 37.5591 117.591 37.1623 117.169 37.0951L63.161 28.5092C62.7387 28.4421 62.3419 28.73 62.2748 29.1523L53.6235 83.5715C53.5563 83.9943 53.8442 84.3907 54.2666 84.458L108.274 93.0437C108.696 93.1111 109.094 92.823 109.161 92.4011Z" fill="black"/>
<path d="M111.559 60.3587C111.36 59.8074 111.08 59.2159 111.274 58.6631C111.349 58.4463 111.494 58.2558 111.545 58.0321C111.675 57.4537 111.192 56.9365 110.811 56.482C110.172 55.7194 110.991 55.5041 110.944 54.9838C110.897 54.4635 109.943 54.3737 109.668 53.8736C109.393 53.3734 109.466 52.634 109.971 52.3653C110.112 52.2894 110.3 52.229 110.327 52.0703C110.375 51.7877 109.986 51.6871 108.254 50.8478C108.907 50.5567 108.762 49.5447 108.287 49.0097C107.813 48.4747 107.119 48.1093 106.834 47.4535C106.685 47.1105 106.668 46.7257 106.567 46.3656C106.256 45.2654 104.853 46.8735 103.892 46.2541C104.301 45.7339 104.292 44.9294 103.873 44.4176C103.318 43.7402 100.772 42.8025 100.425 42.3651C100.092 41.9454 100.858 41.2331 100.629 40.8731C100.4 40.5123 99.7728 40.6904 99.3447 40.5982C100.203 39.4338 98.5681 39.6444 98.5449 39.1496C98.5209 38.6549 99.6327 38.0866 99.3795 37.7289C99.1256 37.3704 97.1303 37.6011 96.027 37.8102C96.2725 37.176 97.1218 36.3066 96.7641 35.9086C96.4064 35.5106 94.2153 35.8265 92.9989 36.1866C92.9989 35.8807 93.434 35.4069 92.9989 35.2698C92.5646 35.1328 90.7838 35.3782 89.6797 35.2451C85.3145 34.7178 84.9963 34.6357 84.3467 34.7581C83.896 34.8432 83.4733 35.0515 83.018 35.108C82.5628 35.1653 82.2779 34.4546 81.8435 34.5947C81.4084 34.7348 81.3224 35.4487 81.0615 35.8761C80.4731 35.7367 79.7577 34.9284 79.4394 35.0941C79.1212 35.2598 79.304 35.6237 79.2358 35.8885C78.6846 35.6934 77.5549 35.2381 77.0191 35.561C76.4834 35.8838 77.1647 36.9469 76.8062 37.7134C76.8062 37.7134 75.3692 36.9546 74.7769 37.0568C74.1846 37.159 73.727 37.9519 74.1474 38.3808C73.487 38.2298 72.746 38.6371 72.52 39.275C71.4701 39.3757 70.3552 39.1628 69.776 40.5208C69.1969 41.8789 68.0951 41.9842 67.2992 42.9233C66.5033 43.8625 66.662 45.8887 66.1115 46.9905C65.2234 48.7689 64.2254 48.8626 63.3366 50.6418C62.0513 53.2162 62.6374 53.2015 62.2774 54.1647C62.1249 54.5719 61.8128 54.9033 61.6626 55.3113C61.3429 56.1816 61.819 57.223 61.4025 58.0506C61.2368 58.3805 60.941 58.6429 60.8303 58.9952C60.7188 59.3475 60.9534 59.8461 61.3165 59.7749C60.7413 61.6749 60.67 61.7934 60.7552 62.0636C60.8195 62.2688 61.0696 62.4275 61.2546 62.3191C61.0061 63.1398 60.8574 63.9907 60.8141 64.847C60.797 65.1776 61.0332 65.6538 61.3065 65.468C61.0533 65.9341 60.7924 66.4296 60.8133 66.96C60.8342 67.4903 61.2569 68.0431 61.7857 67.9998C62.1171 68.5549 62.7706 68.6401 62.9541 69.2603C63.1043 69.7674 64.2587 69.8293 64.8177 69.4306L64.8673 69.4592C64.7805 69.7372 64.8053 69.9772 64.676 70.1855C64.5243 70.4294 64.2184 70.5161 63.9746 70.6678C63.6455 70.873 63.414 71.2276 63.3567 71.6109C63.2762 72.1505 63.0911 71.9748 62.872 72.0081C62.567 72.0545 62.553 72.4928 62.3595 72.7328C62.1303 73.0161 61.6983 72.9712 61.339 73.034C60.4029 73.1973 59.5706 76.021 59.1672 76.8812C58.8358 76.7635 58.4565 76.9339 58.2273 77.201C57.9981 77.4681 57.8858 77.8134 57.779 78.1487C57.676 77.8359 57.1549 77.9907 56.9521 78.3105C56.1686 79.5477 56.2181 80.3359 55.5244 79.9774C54.9228 79.6662 54.1803 80.7757 53.9155 81.7451C53.773 82.4148 53.629 83.1612 53.5206 83.7573C53.3681 84.5982 54.5326 84.5223 54.5326 84.5223L105.111 92.2935C105.569 91.4007 104.263 90.4608 104.415 89.4698C104.443 89.2956 104.514 89.119 104.474 88.9487C104.428 88.7559 104.257 88.6243 104.156 88.4532C103.902 88.018 104.177 87.4412 104.01 86.9651C103.816 86.4161 103.083 86.1211 103.061 85.5397C103.042 85.0465 103.57 84.5695 103.344 84.1321C103.258 83.9586 103.074 83.8588 102.913 83.7496C101.996 83.1077 102.647 82.3885 103.027 82.5998C103.087 82.0455 102.531 81.646 102.062 81.3432C101.594 81.0382 101.087 80.5318 101.282 80.0092C101.343 79.8497 101.467 79.7126 101.494 79.5439C101.549 79.1962 101.183 78.9307 100.843 78.8385C100.505 78.7472 100.236 78.2958 100.264 77.945C100.273 77.8413 101.228 76.2355 100.292 75.4473C100.036 75.2313 100.604 73.7161 100.604 73.7161C106.228 73.6394 104.709 72.5137 107.225 71.1858C107.577 71 108.917 69.3276 109.236 69.299C109.48 69.2773 109.694 69.124 109.792 68.8994C110.217 67.9332 110.826 66.6704 111.768 66.0014C111.961 65.8636 112.096 65.6592 112.145 65.4269C112.388 64.2934 111.949 61.4519 111.556 60.361L111.559 60.3587Z" fill="#FFD997"/>
<path d="M73.6228 62.381C71.314 64.5567 66.4246 73.0618 71.695 75.0826C73.756 75.8731 75.656 75.558 77.0032 74.7156C79.7843 72.9767 81.0138 68.7725 82.1745 65.9689C77.9354 66.5271 75.6413 62.9416 73.6236 62.3802L73.6228 62.381Z" fill="white"/>
<path d="M72.464 84.6957C72.3649 84.6787 72.2619 84.7159 72.2031 84.7972C71.5279 85.7433 70.5601 85.4878 70.0576 85.0232C69.5459 84.5494 69.3817 83.4871 70.6197 82.9955C70.7893 82.9281 70.8435 82.716 70.7281 82.5751C69.2547 80.7734 72.025 79.252 72.7404 81.2952C72.8109 81.4958 72.7861 81.4408 75.6493 81.886C75.7492 81.9015 75.8467 81.8581 75.9079 81.7784C77.5656 79.6283 79.9123 82.5805 77.5439 83.8317C77.3991 83.9083 77.3573 84.0887 77.4486 84.225C78.5334 85.837 76.3074 87.7114 74.9292 85.2338C74.8417 85.0759 74.9416 85.1316 72.464 84.6957Z" fill="white"/>
<path d="M117.576 36.8586L62.847 28.1583C62.4428 28.0972 62.096 28.372 62.0371 28.7444L53.271 83.8866C53.2099 84.2714 53.4731 84.6345 53.8579 84.6957L108.7 93.4053C109.043 93.4053 109.342 93.1567 109.397 92.8099L118.163 37.6669C118.224 37.2821 117.961 36.9197 117.576 36.8586H117.576ZM117.574 37.574L108.765 92.7874L53.9516 84.1065C53.8349 84.0879 56.7412 65.6411 62.6704 28.7661C99.2786 34.5642 117.58 37.5002 117.574 37.574Z" fill="black"/>
<path d="M63.4873 87.1385C62.1308 86.924 60.8479 87.8044 60.6404 89.1059C60.3849 90.7086 61.8536 92.1123 63.5268 91.8622C64.9313 92.7665 64.8562 92.7379 64.9661 92.7379C65.1481 92.7379 65.2789 92.5629 65.2255 92.3887L64.8709 91.2211C66.318 89.8693 65.5228 87.4621 63.4873 87.1385ZM64.3916 90.9192C64.3057 90.9889 64.2693 91.1034 64.3018 91.2095L64.4931 91.839C63.6747 91.3125 63.6925 91.3063 63.5849 91.3063C63.4865 91.3063 63.2566 91.393 62.8222 91.3233C61.7545 91.1538 61.0159 90.1968 61.1762 89.1903C61.3364 88.1845 62.3313 87.5055 63.4029 87.6735C65.0668 87.9391 65.6436 89.9212 64.3916 90.9192Z" fill="black"/>
<path d="M55.3225 90.8658C55.4688 90.9556 55.6469 90.9842 55.818 90.944C57.7474 90.4787 59.7651 88.6042 58.6626 87.0867C58.0726 86.2737 56.8872 86.2009 56.2005 86.9388C55.7777 86.0252 54.628 85.7255 53.8127 86.3163C52.299 87.4188 53.6191 89.8174 55.3225 90.8658ZM53.7089 87.442C53.7918 86.9163 54.2486 86.5524 54.7488 86.5524C55.3209 86.5524 55.7901 87.0077 55.8056 87.5791C55.8095 87.7099 55.9186 87.8826 56.0472 87.9019C56.1734 87.9244 56.3313 87.7928 56.3755 87.6704C56.6588 86.8675 57.7281 86.722 58.2236 87.4049C58.3893 87.6325 58.4566 87.9112 58.4117 88.19C58.2863 88.9758 57.2055 90.035 55.6879 90.4175C55.6593 90.4245 55.6314 90.4198 55.6066 90.4043C54.2741 89.5836 53.5843 88.2271 53.7089 87.442Z" fill="black"/>
<path d="M70.1559 93.7118C70.4199 93.8024 70.5306 93.5492 72.7906 89.352C72.8928 89.1623 72.7411 88.9262 72.5142 88.9548C72.0474 89.0206 67.9562 89.5967 67.8912 89.6075C67.6388 89.6493 67.5799 89.9861 67.8029 90.1116L69.7525 91.204C69.8423 92.0573 69.9708 93.3139 69.9747 93.4114C69.9546 93.5423 70.0304 93.67 70.1559 93.7118ZM68.7669 90.031L72.059 89.5665C71.5085 90.587 70.8535 91.7971 70.4361 92.5574C70.2743 90.8943 70.2929 90.8858 70.1388 90.7991L68.7669 90.031Z" fill="black"/>
<path d="M101.733 98.3334L103.573 97.1689L104.96 98.8459C105.107 99.024 105.4 98.9474 105.436 98.7158L106.156 94.195C106.18 94.044 106.074 93.9077 105.93 93.8853C102.054 93.2682 102.277 93.2705 102.147 93.3642C102.017 93.4595 102.101 93.1397 101.32 98.0616C101.284 98.2892 101.533 98.458 101.733 98.3334ZM102.531 93.8938L105.578 94.3785L104.996 98.0392C103.772 96.5596 103.806 96.5418 103.629 96.5418C103.518 96.5418 103.603 96.5077 101.949 97.5552L102.531 93.8938Z" fill="black"/>
<path d="M107.341 101.379L52.5689 92.6713C52.2088 92.6163 51.872 92.8587 51.8155 93.2179L49.3038 109.017C49.2481 109.376 49.492 109.713 49.8505 109.771L104.623 118.479C104.996 118.535 105.321 118.279 105.376 117.932L107.888 102.133C107.945 101.775 107.7 101.437 107.341 101.379ZM107.353 102.047L104.841 117.847C104.833 117.9 104.708 117.943 104.708 117.943L49.8396 109.102C49.8396 109.102 52.3203 93.2837 52.3977 93.2264C111.164 102.532 107.383 101.868 107.353 102.047H107.353Z" fill="black"/>
<path d="M55.4002 96.4752C55.3181 96.462 55.2407 96.517 55.226 96.5983L55.1083 97.244C55.0649 97.484 52.0988 96.9142 99.6393 104.482C99.7214 104.495 99.7988 104.44 99.8135 104.359L99.9312 103.713C99.9746 103.473 102.945 104.02 55.4002 96.4752Z" fill="black"/>
<path d="M91.7422 106.544C91.8242 106.558 91.9017 106.503 91.9164 106.421L92.0341 105.776C92.0774 105.537 94.4582 105.974 54.9072 99.6365C54.8251 99.6233 54.7477 99.6783 54.733 99.7596L54.6153 100.405C54.5719 100.644 52.1857 100.225 91.7422 106.544Z" fill="black"/>
<path d="M54.4133 102.796C54.3312 102.783 54.2538 102.838 54.2391 102.919L54.1222 103.565C54.0796 103.797 51.3651 103.248 95.4246 110.228C95.5067 110.241 95.5841 110.186 95.5988 110.105L95.7157 109.459C95.7583 109.227 98.4728 109.777 54.4133 102.796Z" fill="black"/>
<path d="M53.9189 105.957C53.8369 105.943 53.7594 105.998 53.7447 106.08L53.627 106.725C53.5837 106.963 51.2873 106.546 89.9418 112.746C90.0238 112.759 90.1013 112.704 90.116 112.623L90.2329 111.977C90.277 111.74 92.5734 112.157 53.9189 105.957Z" fill="black"/>
<path d="M85.9933 43.7711C86.3487 43.6023 86.0955 43.0635 85.7393 43.2307C85.4273 43.3778 83.8564 44.159 83.6729 45.0928C83.5528 45.7013 83.9671 46.9038 85.058 47.5797C85.1904 47.6633 85.377 47.6292 85.4683 47.4837C85.5558 47.3428 85.5102 47.1585 85.3716 47.0733C84.492 46.5275 84.1831 45.5837 84.2574 45.2089C84.3457 44.7622 85.2175 44.1343 85.9933 43.7711Z" fill="black"/>
<path d="M87.4668 44.8667C86.9232 45.1756 86.492 45.6797 87.0115 46.1628C87.5682 46.6808 90.3663 47.126 90.1271 46.2704C89.8739 45.3614 88.903 44.0514 87.4668 44.8667Z" fill="black"/>
<path d="M111.839 60.2588C111.669 59.7803 111.397 59.2127 111.555 58.7614C111.616 58.5817 111.773 58.3727 111.835 58.0978C111.989 57.4142 111.505 56.8443 111.118 56.3844C110.838 56.053 110.777 55.9857 111.006 55.6427C111.858 54.3683 110.176 54.1824 109.929 53.7295C109.735 53.3788 109.761 52.8136 110.108 52.6285C110.32 52.5147 110.569 52.4195 110.62 52.1206C110.653 51.9278 110.598 51.6529 110.151 51.4362L108.79 50.7765C109.178 50.2144 108.959 49.3201 108.509 48.8114C108.049 48.295 107.35 47.8971 107.106 47.3342C106.873 46.8023 106.988 46.0187 106.455 45.7493C105.835 45.4311 105.007 46.1712 104.329 46.0977C104.603 45.4876 104.515 44.7335 104.102 44.2279C103.755 43.8059 102.85 43.3561 101.974 42.9209C101.931 43.01 101.934 43.0193 101.955 42.9116C101.427 42.6484 100.77 42.3217 100.656 42.1784C100.506 41.9895 101.196 41.2067 100.878 40.7112C100.639 40.338 100.193 40.3318 99.8316 40.3311C100.161 39.426 99.0248 39.227 98.8421 39.1101C98.9272 38.7315 100.048 38.1616 99.6194 37.5546C99.2966 37.0993 97.8216 37.2178 96.5735 37.4114C96.9119 36.8663 97.4066 36.1788 96.9815 35.7072C96.4496 35.1165 94.0944 35.6105 93.4401 35.7607C93.5725 35.3503 93.403 35.0816 93.0855 34.9818C92.5637 34.8168 90.8278 35.0801 89.7129 34.9454C85 34.3771 84.7762 34.2625 83.6567 34.6357C82.9002 34.8873 82.9219 34.8501 82.6316 34.6055C82.421 34.4274 82.1275 34.1835 81.7489 34.3082C81.2441 34.4708 81.1017 35.0553 80.9127 35.4997C80.3328 35.2109 79.7823 34.5761 79.2992 34.8261C78.9872 34.9895 78.943 35.2698 78.9423 35.4649C78.1579 35.19 77.3736 34.9949 76.8626 35.3015C76.196 35.7049 76.6722 36.5914 76.6102 37.2805C76.0799 37.0297 75.2073 36.6797 74.7241 36.7594C74.1295 36.8624 73.6332 37.4795 73.6882 38.0563C73.1021 38.1167 72.5655 38.4884 72.31 39.0001C70.7011 39.2169 70.1375 38.9026 69.4987 40.4008C69.1821 41.144 68.6865 41.4746 68.16 41.8254C66.8717 42.6856 66.6038 43.0688 66.2647 45.1593C66.0347 46.5661 65.9294 47.1964 64.5118 48.6016C64.031 49.0786 63.5331 49.5725 63.0678 50.5055C61.7771 53.0876 62.3175 53.1984 61.9962 54.057C61.8631 54.4147 61.5386 54.7778 61.3807 55.2052C61.0385 56.1366 61.4976 57.1881 61.1353 57.9135C60.9719 58.2349 60.6761 58.4849 60.5437 58.9015C60.4229 59.2824 60.5724 59.7927 60.9355 59.9955C60.471 61.5278 60.3502 61.7755 60.4678 62.1495C60.5282 62.3423 60.6777 62.5087 60.8635 62.5916C60.6699 63.3209 60.553 64.0727 60.5143 64.8284C60.4988 65.1094 60.6134 65.4896 60.8527 65.6832C60.6777 66.0316 60.4942 66.4822 60.5135 66.9684C60.5375 67.5909 60.9951 68.2258 61.6238 68.2916C61.9893 68.7678 62.5343 68.8963 62.6675 69.3415C62.8541 69.9733 63.8134 70.0879 64.4692 69.9075C64.4576 69.9516 64.4429 69.9919 64.422 70.0244C64.2609 70.283 63.2381 70.4541 63.0608 71.5628C63.0229 71.8005 63.0933 71.6681 62.8262 71.7092C62.3253 71.7858 62.2757 72.3595 62.1263 72.5415C61.9955 72.7041 61.6254 72.6777 61.287 72.7358C60.2278 72.9201 59.4954 75.3056 58.9875 76.5413C58.4834 76.5242 57.9399 76.8277 57.6178 77.6864C57.2555 77.619 56.8637 77.8877 56.698 78.1478C56.4356 78.5636 56.2652 78.9244 56.1235 79.2271C56.0345 79.4184 55.8835 79.7389 55.8185 79.7621C55.765 79.7993 55.4499 79.4819 54.9567 79.6994C54.3637 79.9596 53.8395 80.884 53.6258 81.6629C53.5244 82.0439 54.095 82.2003 54.2018 81.8201C54.3962 81.107 54.8421 80.4009 55.196 80.2461C55.2951 80.2027 55.3462 80.2182 55.3857 80.2391C56.3945 80.7563 56.4944 79.5802 57.2028 78.4668C57.2655 78.3677 57.4243 78.2686 57.5079 78.2733C57.5559 78.3762 57.6604 78.4436 57.7796 78.4436C58.1846 78.4413 58.039 77.8722 58.4525 77.3929C58.5957 77.2257 58.8458 77.0809 59.0657 77.1599C59.2128 77.2094 59.3707 77.1436 59.4365 77.005C59.7764 76.2741 60.6792 73.4481 61.3884 73.3242C61.4697 73.3095 61.5557 73.3026 61.6416 73.2941C62.405 73.2213 62.5916 73.0308 62.7976 72.5283C62.8254 72.4586 62.8851 72.3146 62.9153 72.2999C62.9276 72.2999 62.9416 72.3007 62.9586 72.3015C63.9597 72.344 63.3132 71.4289 64.1308 70.9179C64.3577 70.777 64.7278 70.6608 64.9268 70.3403C65.0754 70.1026 65.0801 69.8339 65.1234 69.6427C65.286 68.8932 66.1888 68.3334 66.2577 67.3633C66.2771 67.0776 66.2244 66.7857 66.3251 66.6665C66.3568 66.6285 66.4164 66.5929 66.4861 66.5519C67.0443 66.2251 67.0002 66.0161 67.4291 64.1889C67.9363 64.3638 68.925 64.6294 69.5854 64.6294C70.242 64.6294 70.6733 64.4451 70.9961 64.1161C70.9667 64.4815 70.8862 65.1427 70.6756 65.4873C70.489 65.7931 70.1336 66.6967 69.9524 67.529C68.3319 70.9883 68.1538 74.1674 71.7278 75.5185C73.1091 76.0388 75.0687 76.0287 76.4004 75.486C77.2505 75.1406 78.504 74.2526 79.0166 73.483C79.4912 72.7699 78.9183 73.3359 80.7664 72.2008C81.8364 71.5435 81.9827 71.1989 82.2599 70.324C82.5371 69.4483 83.7457 69.3647 85.1533 68.026C85.7456 67.4624 85.679 66.7276 85.9221 66.0796C86.1382 65.5051 86.4316 64.9902 86.6182 64.6681C90.0388 62.9725 90.5467 63.6662 90.8471 63.3364C91.0492 63.1142 90.827 62.8006 90.6157 62.837C87.7153 62.9555 85.9485 64.6387 83.5622 65.3378C77.4758 67.1178 75.2677 61.088 70.427 61.0632C69.0698 60.9238 67.4957 62.9137 68.294 63.1351C68.4574 63.1777 68.6176 63.0817 68.661 62.9261C68.8182 62.3508 69.6272 61.6555 70.4054 61.6555C70.8297 61.6586 71.2338 61.7128 71.6233 61.8073C70.6934 62.8842 71.2718 64.5775 68.407 63.8497C66.7037 63.4169 66.2058 63.0244 65.7041 61.3357C65.077 59.2228 64.6109 56.2295 65.8172 53.7047C66.3104 55.1959 65.9612 56.7769 67.1349 57.4366C67.5267 57.6565 67.9541 57.6611 68.3226 57.7982C69.1364 58.0978 69.9772 59.3544 72.4502 57.6356C73.0634 57.209 75.1159 55.6241 75.6486 54.9528C76.7326 53.5847 76.563 51.3239 75.2715 49.9124C73.7254 48.223 71.3445 48.0093 69.4515 48.3972C71.3283 47.3907 73.2414 46.3393 73.8469 44.6491C74.2573 43.5016 73.7687 42.4703 73.4598 42.4099C73.298 42.379 73.1423 42.4835 73.1106 42.6476C73.0734 42.8389 73.1896 42.8513 73.3057 43.1648C72.7428 43.0735 71.7247 43.3677 71.5195 44.2256C71.2625 45.3018 72.2783 45.4187 72.9511 45.1028C72.2721 46.1178 70.9752 46.8936 69.6303 47.6237C69.6226 47.2312 69.7821 46.8433 69.9486 46.436C70.115 46.0296 70.2304 45.7322 70.3055 45.3188C70.4534 44.5012 69.8394 44.5515 69.9222 44.1373C69.9679 43.9081 70.194 43.6317 70.4727 43.4637C70.9566 43.1741 70.9752 42.8838 70.7848 42.3867C70.6214 41.9609 70.8088 41.7239 71.2307 41.3175C71.4885 41.0689 71.3902 41.1285 71.861 40.8157C72.406 40.4526 72.5547 40.3814 72.7196 39.6644C72.7444 39.556 72.7684 39.4585 72.7994 39.3718C72.9774 38.8724 73.562 38.5487 74.08 38.6688C74.3765 38.7291 74.5631 38.3769 74.3579 38.1686C74.1218 37.9278 74.4555 37.4121 74.8256 37.3471C75.1655 37.2945 76.107 37.6793 76.6644 37.9735C76.8131 38.0532 76.9997 37.9936 77.074 37.8364C77.2815 37.3951 77.211 36.9166 77.1483 36.4885C77.0964 36.1323 77.067 35.8753 77.1708 35.8133C77.5401 35.5919 78.5133 35.9434 78.981 36.1122C79.1211 36.1625 79.2295 36.2237 79.3735 36.1493C79.6639 35.9953 79.4889 35.4401 79.5539 35.3673C79.6406 35.3828 79.9085 35.5663 80.0262 35.6476C81.2604 36.5016 81.2906 36.1904 81.5577 35.4904C81.8713 34.6837 81.9626 34.8223 82.2468 35.0615C82.8081 35.5323 83.0326 35.4603 83.8456 35.2017C84.4557 35.0065 84.6973 34.9407 85.8424 35.0793C90.323 35.6213 89.8708 35.6283 91.6702 35.5477C92.1278 35.5284 92.6922 35.5036 92.8811 35.5446C92.8122 35.7916 92.5428 36.2159 92.8153 36.4226C92.8904 36.4776 92.9895 36.497 93.0785 36.4699C94.6828 35.9945 96.3815 35.9333 96.5379 36.1052C96.6711 36.2539 95.9278 37.2279 95.7451 37.7002C95.6645 37.9038 95.8279 38.1399 96.078 38.102C97.6311 37.8086 98.8258 37.7931 99.0945 37.8798C99.0364 37.9681 98.8746 38.1337 98.7995 38.2104C97.3338 39.707 99.206 39.7217 99.2896 40.009C99.3012 40.0508 99.2749 40.1847 99.1014 40.4201C98.9737 40.592 99.0643 40.8436 99.2787 40.8885C99.6752 40.9729 100.268 40.8645 100.372 41.0271C100.422 41.2253 99.7534 42.0004 100.188 42.5493C100.585 43.0495 103.149 44.0072 103.64 44.6057C103.974 45.0122 103.979 45.6556 103.656 46.069C103.545 46.2084 103.583 46.412 103.728 46.5042C104.775 47.1809 106.102 45.8314 106.278 46.4469C106.379 46.803 106.386 47.1731 106.558 47.5726C106.881 48.3136 107.599 48.686 108.062 49.2079C108.397 49.5857 108.575 50.3762 108.13 50.576C107.901 50.6782 107.892 51.0049 108.121 51.1164C109.776 51.9247 109.908 51.9781 109.982 52.0246C109.92 52.0571 109.896 52.0648 109.829 52.1028C109.176 52.4473 109.047 53.3656 109.404 54.0167C109.708 54.5719 110.621 54.7445 110.645 55.0109C110.671 55.3167 109.816 55.7642 110.581 56.6732C111.634 57.9267 111.223 57.9035 110.989 58.5639C110.759 59.2267 111.077 59.9134 111.276 60.4593C111.664 61.5247 112.082 64.2972 111.853 65.3618C111.705 66.0602 110.942 65.5337 109.519 68.7763C109.464 68.9017 109.345 68.9869 109.209 68.9993C108.694 69.0442 107.437 70.7684 107.096 70.9481C105.505 71.7889 105.23 72.5833 104.173 73.044C103.649 73.2731 101.934 73.2669 100.484 73.4714C97.3454 73.9088 95.9471 76.0093 95.6405 75.9327C95.5964 75.9226 95.495 75.8313 95.3812 75.5433C95.025 74.6335 94.984 74.529 94.7842 74.5042C94.4103 73.9034 94.2779 71.9306 94.4327 71.216C94.4892 70.9558 94.1989 70.7568 93.9774 70.9039L93.6794 71.0998C93.461 69.9865 93.6213 68.7802 94.1424 67.7822C94.7052 66.7044 94.6224 66.6765 94.4567 65.6638C94.2647 64.4134 95.1288 62.1046 95.5662 60.8952C96.4938 58.3355 96.7353 57.5984 97.0698 54.0291C97.1565 53.1 97.2874 51.8984 97.4476 50.9801C97.515 50.5907 96.9297 50.4885 96.86 50.8771C96.6742 51.9448 96.5743 52.9614 96.4775 53.9447C96.1353 57.4474 95.9162 58.169 95.0049 60.6939C94.713 61.503 94.3894 62.3887 94.1687 63.2319C93.8853 64.3127 93.7188 65.0072 93.9194 66.0339C94.0347 66.6154 94.0216 66.7354 93.7003 67.3416C92.9671 68.7244 92.8269 70.1421 93.149 71.4614C93.2171 71.7378 93.5253 71.8756 93.7785 71.7455C93.749 72.4935 93.8505 74.7597 94.5388 75.0532C94.8005 75.6261 94.9429 76.3802 95.5027 76.5134C95.9324 76.6094 96.2305 76.2889 96.5216 76.0473C97.8247 74.9695 98.9373 74.3579 100.24 74.1155C100.055 74.7047 99.7727 75.3992 100.1 75.6733C100.844 76.2989 99.9864 77.7119 99.9678 77.9187C99.9253 78.4242 100.306 78.9995 100.765 79.1242C100.963 79.1776 101.224 79.3363 101.2 79.495C101.169 79.6894 100.329 80.5689 101.9 81.5925C102.233 81.8062 102.554 82.0392 102.678 82.2955C102.058 82.5053 101.85 83.3825 102.747 83.995C102.857 84.0701 103.032 84.1707 103.08 84.2675C103.203 84.506 102.743 85.0209 102.764 85.5497C102.791 86.2713 103.57 86.6096 103.728 87.0626C103.904 87.5589 103.487 88.1148 104.055 88.8178C104.261 89.0687 104.184 89.0214 104.121 89.4225C103.952 90.5165 105.199 91.4665 104.846 92.1548C104.666 92.5063 105.196 92.7781 105.377 92.4281C105.963 91.2838 104.499 90.4128 104.737 89.3869C104.839 88.951 104.783 88.7659 104.519 88.44C104.328 88.2069 104.325 88.1148 104.353 87.6719C104.404 86.9085 104.296 86.6739 103.755 86.1249C103.279 85.6434 103.282 85.5512 103.512 85.0333C103.807 84.3705 103.806 83.9787 103.15 83.5459C102.875 83.364 102.744 83.1944 102.741 83.0326C102.741 82.9792 102.786 82.9079 102.841 82.8746C102.871 82.8576 102.885 82.8591 102.885 82.8591C103.066 82.9598 103.303 82.8468 103.326 82.63C103.409 81.8542 102.641 81.3579 102.227 81.0915C102.089 81.0017 101.407 80.531 101.563 80.1137C101.614 79.9828 101.755 79.8218 101.791 79.5879C101.876 79.0576 101.401 78.6774 100.924 78.5481C100.749 78.5001 100.565 78.2167 100.563 77.9992C100.997 77.0592 101.301 75.9683 100.542 75.2653C100.551 75.0477 100.793 74.3749 100.895 74.0195C101.501 73.946 102.039 73.9104 102.523 73.8786C102.516 73.7803 102.506 73.7725 102.548 73.8763C103.341 73.8252 103.969 73.7842 104.414 73.5906C105.616 73.0657 105.841 72.2875 107.377 71.4761C107.73 71.2887 109.026 69.7248 109.278 69.5916C109.626 69.5567 109.928 69.3376 110.069 69.0163C110.525 67.9788 111.104 66.8391 111.943 66.2414C112.199 66.0602 112.375 65.7923 112.44 65.4865C112.696 64.2972 112.247 61.3861 111.841 60.258L111.839 60.2588ZM73.7145 62.7077C74.5523 63.2048 75.3606 63.8102 76.2246 64.3917C74.8202 66.2453 73.8516 68.4225 73.4188 70.7034C73.3475 71.0936 73.9305 71.2005 74.0056 70.8149C74.4245 68.6091 75.3629 66.5062 76.7256 64.72C78.3515 65.7536 79.9271 66.39 81.8829 66.2522C80.6518 68.0253 79.9085 71.0704 78.5226 73.1531C78.0782 73.8205 76.9292 74.6273 76.1774 74.9339C74.9975 75.4155 73.1749 75.4287 71.9399 74.9602C69.5142 74.0435 68.9219 72.2867 69.9571 69.0837C70.3984 67.721 72.2574 64.171 73.7145 62.7077ZM71.9399 40.0345C71.8199 40.1522 71.1711 40.5324 71.0015 40.7089C70.9179 40.7956 70.8955 40.8142 70.8188 40.8893C70.4619 41.2385 69.9137 41.7565 70.2273 42.5965L70.2451 42.6445C70.2675 42.7018 70.314 42.8218 70.3039 42.8544C70.2908 42.8784 70.2025 42.931 70.1491 42.9628C69.5134 43.3445 69.0504 44.152 69.4941 44.7505C69.6985 45.0308 69.7744 44.917 69.7194 45.2135C69.5382 46.1929 68.884 46.9323 69.0613 47.9319C67.2185 48.9183 64.8571 50.13 65.2705 52.2793C65.3418 52.6494 65.42 52.8631 65.4997 53.0272C63.9419 55.8099 64.4405 59.1733 65.1335 61.5061C65.4625 62.6164 65.8419 63.4386 66.8717 63.9566C66.5542 65.3107 66.4683 65.8101 66.3305 65.9387C66.2275 66.0347 66.0339 66.0873 65.8714 66.2801C65.5918 66.6084 65.6855 67.0373 65.6638 67.3207C65.6182 67.9486 64.9399 68.4844 64.6449 69.1836C64.1788 69.5157 63.3055 69.3934 63.2389 69.1735C63.0159 68.4186 62.3346 68.3365 62.0404 67.8449C61.894 67.594 61.6734 67.81 61.3993 67.563C60.8263 67.0575 61.2197 66.2491 61.5673 65.6088C61.702 65.3634 61.462 65.0893 61.2034 65.1938C61.1639 65.135 61.1035 64.9933 61.1105 64.8601C61.1531 64.0278 61.2971 63.2001 61.5394 62.4034C61.6153 62.1541 61.3513 61.9288 61.1159 62.0519C60.9533 61.9939 61.0501 61.6811 61.0996 61.5169C61.6362 59.7361 61.6881 59.7416 61.5371 59.5728C61.4666 59.4953 61.3621 59.4597 61.2584 59.4806C61.2452 59.4806 61.2251 59.4853 61.1895 59.4458C60.9641 59.1911 61.1941 58.8829 61.3946 58.608C61.8894 57.9306 61.9173 57.5427 61.8623 56.5965C61.8034 55.5908 61.8902 55.422 62.2246 54.8901C63.1901 53.3509 62.1263 53.7256 63.6036 50.7734C64.4522 49.0716 65.4664 48.9469 66.3785 47.122C66.9259 46.021 66.8252 43.943 67.5259 43.1137C68.2831 42.2202 69.4283 42.0933 70.0492 40.6354C70.5029 39.5731 70.6887 39.786 72.1188 39.6257C72.0785 39.7914 72.0321 39.9424 71.9399 40.0345Z" fill="black"/>
<path d="M67.5924 66.3979C67.4313 66.5094 67.4631 66.6255 67.3872 67.4145C67.0945 67.4702 66.9644 67.7637 66.8661 70.7406C66.6416 70.8359 66.4782 71.0836 66.4341 71.2857C66.2544 72.1049 66.2165 72.9418 66.3218 73.7734C66.3497 73.9902 66.479 74.2147 66.6431 74.337C66.6129 74.8821 67.2091 75.404 68.4781 76.5127C68.6438 76.6575 68.8737 76.7295 69.0867 76.7101C69.4095 77.4975 70.1296 77.7469 71.3242 78.4723C72.7644 79.3434 74.5552 79.389 76.2369 79.3836C76.9569 79.3813 77.1698 78.9903 77.2976 78.7549C77.3866 78.5885 77.3859 78.5877 77.6127 78.6744C78.6634 79.0685 79.8673 78.748 81.2687 78.5056C82.8265 78.2362 84.1946 77.9319 85.1764 76.9316C86.6095 75.4705 87.0191 75.3513 87.2158 75.294C87.6068 75.181 87.6741 75.0687 88.4391 73.6216C89.0499 72.4649 90.5807 71.6914 90.5923 70.2126C90.5961 69.8224 89.9984 69.8139 89.9961 70.208C89.986 71.374 88.5475 72.1428 87.911 73.3429C87.2072 74.6769 87.177 74.6847 87.0508 74.7218C86.7682 74.8024 86.2952 74.9394 84.7505 76.5135C83.7277 77.5564 82.1034 77.743 80.5928 78.0202C79.4059 78.2338 78.548 78.3879 77.8225 78.1154C77.1946 77.8792 76.9476 78.1471 76.7727 78.4723C76.6697 78.6628 76.6015 78.789 76.2376 78.789C72.8263 78.7929 72.3463 78.3655 70.9007 77.5332C70.0088 77.0214 69.7076 76.8487 69.5582 76.2262C69.4986 75.9761 69.1734 75.9204 69.0263 76.117C68.9775 76.1248 68.9117 76.0985 68.8706 76.0636C67.5645 74.9216 67.1216 74.5136 67.2904 74.2449C67.4375 74.0103 67.2083 73.7223 66.9536 73.8013C66.9358 73.7695 66.9188 73.7316 66.9149 73.6983C66.8166 72.9349 66.8506 72.166 67.0163 71.415C67.021 71.3941 67.0326 71.3701 67.0473 71.3492C67.2354 71.4197 67.4429 71.2849 67.4507 71.0821C67.4754 70.3907 67.5172 69.0295 67.6063 68.2994C67.7511 68.3196 67.9098 68.2042 67.9268 68.0308L68.0306 66.9507C68.269 66.9143 68.5029 66.7881 68.4727 66.5481L68.3186 65.3286C68.2985 65.166 68.149 65.0569 67.9849 65.0693C67.8208 65.0909 67.7054 65.2411 67.7263 65.4037L67.844 66.3584C67.7596 66.3321 67.6651 66.3468 67.5916 66.3971L67.5924 66.3979Z" fill="black"/>
<path d="M75.679 81.5878L73.0148 81.1744C72.7655 80.4807 72.3319 80.2058 72.0106 80.0966C70.6441 79.639 69.2651 81.2177 70.4745 82.733C69.876 82.9807 69.4943 83.3957 69.3991 83.9036C69.1234 85.3817 71.2813 86.5624 72.4311 84.9922L74.6733 85.3863C76.2404 88.1906 78.9959 86.039 77.7114 84.0794C80.4492 82.5998 77.6379 79.0669 75.679 81.5878ZM77.4048 83.5684C77.1106 83.7232 77.0076 84.1042 77.2012 84.3906C78.0645 85.6743 76.3604 87.1988 75.1905 85.0882C75.1053 84.9357 74.9598 84.8312 74.791 84.8017C72.5929 84.4216 72.4969 84.3937 72.4163 84.3937C71.8589 84.3937 71.9108 85.0603 71.1744 85.1362C70.5721 85.202 69.8605 84.6732 69.9844 84.0136C70.0425 83.6992 70.3003 83.4437 70.73 83.2726C71.0947 83.1278 71.1961 82.6741 70.9584 82.3861C69.7854 80.9506 71.8929 79.7769 72.4589 81.3935C72.5271 81.5871 72.6989 81.728 72.9072 81.7613L75.6032 82.1801C75.813 82.215 76.0151 82.1283 76.1436 81.961C77.5125 80.1888 79.3443 82.544 77.4048 83.5684Z" fill="black"/>
<path d="M92.1988 39.3664C92.1941 39.4594 92.0501 39.6545 91.8635 39.7776C91.6359 39.927 91.711 40.2847 91.9882 40.3234C92.853 40.4372 93.9641 40.7229 94.0702 40.8553C94.0911 40.8848 94.0949 40.9165 94.081 40.9506C94.0299 41.0768 93.7845 41.1976 93.4562 41.2572C93.203 41.3021 93.1256 41.6273 93.3238 41.7844C93.7535 42.1267 94.2931 42.1716 94.8235 42.2381C96.4022 42.4356 95.892 43.3105 95.6891 43.2749C95.5683 43.2633 95.4452 43.3322 95.3918 43.446C95.2052 43.8463 96.0089 44.173 96.4169 44.3402C97.3445 44.7181 97.3646 44.9109 97.1687 45.5907C97.0371 46.0366 96.972 46.4911 97.2492 46.8798C96.8745 47.1392 96.4432 47.3134 95.9973 47.3838C95.6434 47.438 95.6744 47.9761 96.0445 47.9761C96.4061 47.9761 97.2972 47.6656 97.9306 47.102C98.1063 46.944 98.0397 46.6583 97.8168 46.5941C97.6658 46.5484 97.6193 46.2526 97.6727 46.0142C97.7478 45.6766 97.9461 45.2407 97.8276 44.7994C97.6302 44.0553 96.8203 43.8974 96.2582 43.6202C96.571 43.2741 96.6035 42.7174 96.3619 42.3574C95.8943 41.6621 94.9125 41.6807 94.3094 41.5645C94.7221 41.2758 94.784 40.8267 94.5564 40.51C94.3342 40.1972 93.4182 39.968 92.6424 39.8263C92.8894 39.4392 92.8143 39.0986 92.5689 38.9034C92.3025 38.6905 92.1949 38.7362 90.7091 38.881C91.1288 38.2825 90.9282 37.9325 90.5783 37.8714C90.0998 37.7908 88.9895 38.2802 88.5304 38.5001C88.6481 38.1083 88.7371 37.7707 88.5691 37.5222C88.5118 37.4386 88.4011 37.334 88.2013 37.3162C87.6555 37.2682 86.402 37.8388 85.8716 38.6882C85.6641 39.0219 86.172 39.3378 86.378 39.0033C86.7589 38.3924 87.6524 37.9565 88.062 37.914C88.0209 38.2237 87.8096 38.6936 87.7887 39.0459C87.7724 39.2774 88.0248 39.4446 88.2338 39.3231C88.8656 38.9607 89.7854 38.5829 90.2531 38.4822C89.8962 39.0188 89.5756 39.0699 89.7088 39.3703C89.7614 39.4888 89.8753 39.5662 90.0108 39.5461C91.584 39.399 92.1399 39.3254 92.1972 39.3672L92.1988 39.3664Z" fill="black"/>
<path d="M84.6957 42.3008C85.0108 42.0639 84.6531 41.5862 84.338 41.8239C83.4236 42.5091 82.8692 43.4862 82.8073 43.5985C82.6207 43.9461 83.151 44.2249 83.3322 43.8819C83.3376 43.8718 83.851 42.9342 84.6957 42.3008Z" fill="black"/>
<path d="M100.119 59.1617C100.168 58.7684 99.5753 58.6948 99.5265 59.085C99.3747 60.3192 98.7437 63.6469 99.8006 64.0766C100.103 64.199 100.439 64.0913 100.848 63.7321C100.448 65.2589 100.434 66.1679 100.806 66.4358C101.221 66.7331 101.714 66.2422 102.1 65.8953C102.156 66.1152 102.278 66.2716 102.454 66.3436C102.953 66.5442 103.572 66.0208 104.361 64.7425C104.449 64.9299 104.69 64.9779 104.837 64.8385C105.216 64.4816 105.53 64.0449 105.745 63.5718C106.479 63.7716 107.652 62.4461 107.251 60.9448C107.151 60.5639 106.575 60.7172 106.675 61.0981C106.946 62.1124 106.28 62.892 105.949 62.9873C105.931 62.9927 105.914 62.9973 105.914 62.9973C105.861 62.8301 105.739 62.7689 105.627 62.7681C105.231 62.7674 105.417 63.2544 104.716 64.0983L104.66 63.9783C104.552 63.7522 104.242 63.7569 104.13 63.9597C103.228 65.5508 102.767 65.7598 102.69 65.7869C102.667 65.7289 102.634 65.5531 102.717 65.2365C102.752 65.1041 102.693 64.9655 102.574 64.9004C102.257 64.7239 102.239 65.0522 101.253 65.8288C101.205 65.8675 101.168 65.8907 101.14 65.9062C101.039 65.5431 101.327 63.9504 101.814 62.5862C101.93 62.2664 101.497 62.0318 101.293 62.309C100.35 63.5935 100.025 63.5238 100.025 63.5238C99.5056 63.3132 100.045 59.6905 100.118 59.1609L100.119 59.1617Z" fill="black"/>
<path d="M90.6389 80.1904C90.5499 80.3406 90.2781 80.3824 90.0552 80.2794C89.6278 80.0812 89.5333 79.5044 89.8027 78.7371C89.9661 78.2617 90.2557 77.7128 90.3014 77.1058C90.3285 76.7117 89.7354 76.6745 89.706 77.0632C89.6696 77.5564 89.4172 78.031 89.2383 78.5397C88.6592 80.2004 89.6069 81.056 90.4763 80.922C90.2394 82.2538 90.1117 83.8549 90.7791 84.1847C90.9881 84.2893 91.2212 84.2575 91.472 84.0903C91.5069 84.7399 91.5696 85.5962 92.1843 85.9136C92.5297 86.0917 92.9648 86.0553 93.5106 85.796C93.5052 86.4587 93.6392 87.0495 93.8993 87.5109C94.0921 87.85 94.6139 87.5612 94.4181 87.2175C94.1502 86.7436 94.0511 86.0638 94.1393 85.3035C94.1672 85.0589 93.9001 84.8831 93.6833 85.0171C93.1227 85.3732 92.6892 85.5048 92.4584 85.384C92.1309 85.2153 92.0891 84.4588 92.0643 84.002C92.045 83.6311 92.0574 83.2208 91.7539 83.1697C91.6509 83.1511 91.5433 83.1898 91.4751 83.2711C91.1747 83.628 91.0431 83.6505 91.0431 83.6505C90.8952 83.5731 90.7218 82.5015 91.1887 80.4072C91.2614 80.0758 90.8116 79.8985 90.6405 80.1911L90.6389 80.1904Z" fill="black"/>
<path d="M88.8223 45.2569C88.532 44.8567 87.8994 45.0092 87.822 45.4962C87.7686 45.8307 88.0256 46.1404 88.3725 46.1404C88.8254 46.1404 89.0879 45.6247 88.8223 45.2569Z" fill="white"/>
<path d="M72.592 43.6673C72.1971 43.6015 71.9455 44.0498 72.1685 44.3572C72.2529 44.4725 72.3845 44.5376 72.5223 44.5376C73.0589 44.5376 73.1216 43.7517 72.592 43.6673Z" fill="white"/>
<path d="M72.4811 53.2417C72.4199 53.1558 72.3587 52.9398 72.1117 52.9398C72.0335 52.946 71.9437 52.9638 71.8771 53.0637C71.7672 53.2293 71.8772 53.4237 71.9933 53.5855C72.2643 53.968 71.871 55.1394 71.0084 54.6524C70.4781 54.352 70.2497 52.9901 70.4115 52.3389C70.6802 51.2612 72.0684 51.1683 72.0738 51.6924C72.0738 51.8581 72.2132 51.989 72.3711 51.989C72.766 51.9882 72.7954 51.3657 72.2999 50.9794C71.7014 50.5086 70.1645 50.8594 69.8324 52.1934C69.6194 53.0482 69.9028 54.7113 70.715 55.1712C70.9488 55.3028 71.1834 55.3694 71.4126 55.3694C72.4602 55.3694 72.9874 53.9564 72.4811 53.2417Z" fill="white"/>
<path d="M66.0951 51.0522C65.7025 51.1087 65.7939 51.7025 66.1795 51.6421C66.5573 51.5941 67.1721 51.756 67.3718 52.4257C67.5422 53.0002 67.3951 54.222 66.9375 54.5077C66.6858 54.6687 66.7981 55.0589 67.097 55.0589C67.608 55.0589 68.3242 53.5453 67.9432 52.2561C67.6707 51.341 66.788 50.9554 66.0951 51.0522Z" fill="white"/>
</svg>
