<svg width="154" height="154" viewBox="0 0 154 154" fill="none" xmlns="http://www.w3.org/2000/svg">
<path fill-rule="evenodd" clip-rule="evenodd" d="M58.4736 69.4049C58.5838 67.7356 58.0333 66.3421 58.3779 64.4692C58.4077 64.362 58.8327 64.1277 58.9858 64.0718C59.139 64.0159 59.3189 63.9041 59.3955 64.0718C59.9301 65.5356 60.117 67.1037 59.9414 68.6522C59.9391 68.7369 59.954 68.8212 59.985 68.9002C60.016 68.9791 60.0626 69.0509 60.1219 69.1114C60.1812 69.1719 60.2522 69.2199 60.3305 69.2524C60.4087 69.2849 60.4927 69.3014 60.5775 69.3008C60.6623 69.3002 60.746 69.2825 60.8238 69.2488C60.9016 69.2152 60.9718 69.1662 61.0303 69.1048C61.0887 69.0434 61.1343 68.9709 61.1642 68.8916C61.194 68.8122 61.2076 68.7277 61.2041 68.643C60.6842 64.6805 61.1229 62.4661 58.9498 62.6108C58.502 62.6335 58.0756 62.8093 57.7421 63.1091C57.4086 63.4089 57.1884 63.8142 57.1183 64.2571C57.0511 64.9048 57.0234 65.5561 57.0356 66.2073C56.9396 67.3189 56.9929 68.4384 57.1941 69.5358C57.2152 69.7022 57.3005 69.8536 57.4317 69.9581C57.5629 70.0624 57.7297 70.1114 57.8965 70.0947C58.0633 70.0779 58.217 69.9967 58.3248 69.8683C58.4326 69.7399 58.486 69.5744 58.4736 69.4072V69.4049Z" fill="#38A1FF"/>
<path fill-rule="evenodd" clip-rule="evenodd" d="M67.3518 61.9125C67.4751 61.9125 67.6251 61.8566 67.6665 61.9722C68.1352 63.3199 68.1954 64.7758 67.8395 66.1576C67.8158 66.3233 67.8588 66.4916 67.9592 66.6256C68.0596 66.7596 68.2091 66.8482 68.3748 66.872C68.5405 66.8958 68.7088 66.8527 68.8428 66.7524C68.9767 66.652 69.0654 66.5024 69.0892 66.3367C69.1704 64.7625 69.0909 63.1842 68.8518 61.6261C68.4896 60.0304 65.6558 60.2142 65.3403 61.6912C65.2156 62.3674 65.1711 63.0559 65.2078 63.7425C65.1275 64.867 65.2082 65.9971 65.4475 67.0986C65.4705 67.2677 65.5598 67.4207 65.6956 67.5239C65.8315 67.6272 66.0028 67.6722 66.1718 67.6491C66.3409 67.6261 66.4939 67.5368 66.5971 67.401C66.7004 67.2651 66.7454 67.0939 66.7224 66.9248C66.7316 65.3283 66.2354 63.7793 66.5034 62.473C66.5907 62.048 67.1466 61.9125 67.3518 61.9125Z" fill="#38A1FF"/>
<path fill-rule="evenodd" clip-rule="evenodd" d="M79.7454 60.649C80.1137 60.5884 80.4858 60.5516 80.8595 60.5388C80.9131 60.5388 80.9537 60.5533 80.9805 60.6422C81.3434 61.9755 81.3863 63.3759 81.1038 64.7287C81.0938 64.8936 81.1489 65.0559 81.2569 65.1807C81.3649 65.3056 81.5172 65.3831 81.6819 65.3968C81.8465 65.4104 82.0103 65.3589 82.1375 65.2536C82.2646 65.1481 82.3457 64.9971 82.3626 64.8328C82.2477 62.734 82.3932 61.2425 82.1505 60.1238C81.9774 59.3274 80.7194 58.9875 79.9659 59.1192C79.6826 59.1532 79.41 59.249 79.1673 59.3998C78.9253 59.5506 78.7186 59.7528 78.5632 59.9921C78.3909 60.5968 78.3112 61.2242 78.3266 61.8527C78.152 62.8338 78.0877 63.8314 78.1344 64.8267C78.129 64.9121 78.1405 64.9977 78.1688 65.0785C78.1964 65.1593 78.24 65.2337 78.2975 65.2975C78.3541 65.3611 78.4238 65.4128 78.5011 65.4494C78.5785 65.486 78.6619 65.5068 78.7477 65.5106C78.8327 65.5145 78.9184 65.5012 78.9988 65.4716C79.0785 65.4421 79.1528 65.3968 79.2148 65.3384C79.2776 65.2801 79.3281 65.2099 79.3626 65.1319C79.3978 65.0539 79.4169 64.9697 79.4192 64.8841C79.7056 63.6659 79.3993 63.0824 79.6696 60.7746C79.6773 60.7072 79.6857 60.6621 79.7454 60.649Z" fill="#38A1FF"/>
<path fill-rule="evenodd" clip-rule="evenodd" d="M93.1919 61.9661C93.6643 62.0266 94.1276 61.813 94.0755 63.6246C94.0533 64.2921 93.904 64.9492 93.6345 65.5603C93.5885 65.7214 93.6092 65.894 93.6904 66.0402C93.7723 66.1864 93.9086 66.2942 94.0694 66.3399C94.2302 66.3855 94.4032 66.3654 94.5495 66.2838C94.6957 66.2023 94.8029 66.066 94.8489 65.905C94.8489 65.905 94.9438 65.2112 95.0365 64.3551C95.1444 63.352 95.3068 62.0978 94.77 61.2295C94.5793 60.998 94.3404 60.8106 94.0702 60.6804C93.7999 60.5502 93.5043 60.4802 93.2042 60.4753C92.8872 60.4385 92.5656 60.4823 92.27 60.6028C91.9744 60.7232 91.7141 60.9165 91.5127 61.1644C91.3213 61.5646 91.1865 61.9892 91.1115 62.4264C90.8458 63.2821 90.7462 64.181 90.819 65.0742C90.8152 65.1595 90.8282 65.2447 90.8573 65.3249C90.8864 65.4052 90.9316 65.4788 90.9897 65.5415C91.0472 65.6041 91.1176 65.6547 91.195 65.69C91.2731 65.7253 91.3573 65.7448 91.4423 65.7474C91.528 65.7499 91.613 65.7354 91.6927 65.7048C91.7723 65.6741 91.845 65.6279 91.9063 65.5687C91.9683 65.5096 92.0173 65.4389 92.0518 65.3605C92.0855 65.2821 92.1038 65.1978 92.1046 65.1124C92.3259 64.2402 92.1865 63.4639 92.3228 62.6622C92.4438 61.9379 92.4691 61.8742 93.1919 61.9661Z" fill="#38A1FF"/>
<path fill-rule="evenodd" clip-rule="evenodd" d="M55.8743 76.1063C75.5803 74.1607 75.686 74.1285 86.2871 73.8758C92.8009 73.7227 92.0191 73.5221 100.901 74.1744C101.479 74.2166 103.072 74.0657 103.388 74.5205C103.732 75.0152 103.584 79.7135 103.557 80.3307C103.374 84.6109 102.863 89.5298 102.863 89.5298C102.856 89.6125 102.865 89.6952 102.891 89.7748C102.916 89.8537 102.956 89.9264 103.01 89.99C103.118 90.1178 103.273 90.1975 103.44 90.2113C103.606 90.225 103.772 90.1722 103.9 90.0643C104.028 89.9563 104.107 89.8016 104.121 89.6347C104.121 89.6347 104.394 85.1347 104.548 80.9876C104.588 79.882 104.864 74.7931 104.267 73.9156C103.586 72.9118 101.828 73.1499 100.993 73.0734C98.3453 72.8253 94.6064 72.3796 91.6554 72.3544C88.0015 72.279 84.3468 72.3999 80.7059 72.7166C62.8697 73.8046 58.8314 74.4823 55.7441 74.8284C55.6586 74.8353 55.5753 74.8593 55.4991 74.8989C55.423 74.9385 55.3555 74.993 55.3008 75.0591C55.246 75.1252 55.205 75.2016 55.1802 75.2838C55.1554 75.3659 55.1474 75.4522 55.1564 75.5376C55.1655 75.623 55.1916 75.7056 55.2332 75.7807C55.2747 75.8558 55.3309 75.9219 55.3984 75.975C55.4658 76.0281 55.5433 76.0671 55.626 76.0898C55.7088 76.1124 55.7953 76.1183 55.8804 76.1071L55.8743 76.1063Z" fill="#38A1FF"/>
<path fill-rule="evenodd" clip-rule="evenodd" d="M71.859 79.9776C97.6677 78.9324 100.945 79.8321 103.728 79.914C103.894 79.9347 104.062 79.888 104.194 79.7846C104.325 79.6813 104.41 79.5304 104.431 79.3643C104.452 79.1981 104.405 79.0304 104.302 78.8987C104.198 78.767 104.047 78.682 103.881 78.6614C96.6501 77.8635 72.4509 78.6384 71.7732 78.6943C71.6057 78.7088 71.4506 78.7885 71.3411 78.9163C71.2316 79.0442 71.1765 79.2096 71.1874 79.3773C71.1984 79.545 71.2748 79.702 71.4 79.8137C71.5252 79.9263 71.6895 79.9853 71.8575 79.9776H71.859Z" fill="#38A1FF"/>
<path fill-rule="evenodd" clip-rule="evenodd" d="M92.0732 85.7909C95.8558 86.4471 99.672 86.8919 103.504 87.1232C103.667 87.1615 103.838 87.1331 103.981 87.0443C104.122 86.9562 104.223 86.8146 104.262 86.6515C104.3 86.4884 104.272 86.3169 104.183 86.1745C104.094 86.0328 103.953 85.9317 103.79 85.8935C101.412 85.5259 96.3045 84.5504 92.1613 84.5091C92.0771 84.5029 91.9921 84.5129 91.9109 84.5397C91.8305 84.5657 91.7562 84.6078 91.6919 84.6637C91.6276 84.7189 91.5755 84.787 91.5372 84.8628C91.4997 84.9386 91.4768 85.0213 91.4714 85.1055C91.4653 85.1905 91.476 85.2748 91.5036 85.3552C91.5304 85.4356 91.5732 85.5098 91.6291 85.5734C91.6858 85.6369 91.7532 85.689 91.8297 85.7265C91.9056 85.7641 91.9882 85.7855 92.0732 85.7909Z" fill="#38A1FF"/>
<path fill-rule="evenodd" clip-rule="evenodd" d="M73.6002 74.365C73.5447 76.1533 73.6359 77.9431 73.8728 79.7165C73.8785 79.8842 73.9505 80.0419 74.0727 80.156C74.1951 80.2709 74.3579 80.3313 74.5252 80.326C74.6925 80.3206 74.8508 80.2487 74.9651 80.1261C75.0793 80.0036 75.1404 79.8413 75.1347 79.6736C75.0696 78.267 75.0474 74.3903 75.042 74.3137C74.9594 73.1001 73.6002 72.7325 73.6002 74.365Z" fill="#38A1FF"/>
<path fill-rule="evenodd" clip-rule="evenodd" d="M84.6378 73.0978C84.2757 74.7579 84.8186 81.1538 84.8752 82.9869C84.879 83.1545 84.9487 83.313 85.0697 83.4287C85.1907 83.5443 85.353 83.6071 85.5199 83.604C85.6876 83.6002 85.8469 83.5297 85.9625 83.4088C86.0781 83.2878 86.1409 83.1262 86.1371 82.9585C86.1823 81.4846 86.1264 73.8153 85.9242 73.0687C85.9204 72.8982 85.8492 72.7361 85.7259 72.6182C85.6019 72.5004 85.4372 72.4363 85.2665 72.4401C85.0957 72.444 84.9342 72.5154 84.8163 72.6388C84.6983 72.7622 84.634 72.9273 84.6378 73.0978Z" fill="#38A1FF"/>
<path fill-rule="evenodd" clip-rule="evenodd" d="M96.3761 73.3505C95.932 75.5006 96.1786 84.1836 96.1058 86.3957C96.102 86.5634 96.1655 86.725 96.2812 86.846C96.3968 86.967 96.5561 87.0366 96.723 87.0405C96.8907 87.0435 97.0522 86.9807 97.1732 86.8651C97.2942 86.7487 97.3639 86.5902 97.3677 86.4225C97.1686 84.6109 97.8072 74.2716 97.6617 73.3781C97.6656 73.2922 97.6525 73.2065 97.6234 73.1258C97.5936 73.0451 97.5484 72.9711 97.4894 72.9083C97.4313 72.8455 97.3608 72.795 97.2819 72.7599C97.2038 72.7248 97.1188 72.7057 97.0331 72.7039C96.9473 72.702 96.8616 72.7174 96.7819 72.7491C96.7023 72.7808 96.6296 72.8282 96.5683 72.8886C96.507 72.9488 96.458 73.0207 96.4251 73.1001C96.3922 73.1795 96.3753 73.2646 96.3761 73.3505Z" fill="#38A1FF"/>
<path fill-rule="evenodd" clip-rule="evenodd" d="M116.924 81.1124C117.341 81.4187 119.883 84.0856 120.267 84.4998C121.754 86.1009 122.172 86.7204 124.516 88.9937C128.358 92.7189 131.734 95.4402 135.925 100.084L138.35 102.952C139.457 104.22 140.044 104.192 139.375 107.255C139.34 107.419 139.372 107.59 139.463 107.73C139.555 107.87 139.698 107.968 139.862 108.003C140.025 108.037 140.196 108.005 140.337 107.914C140.477 107.822 140.575 107.679 140.61 107.515C141.332 103.916 140.257 103.475 139.143 102.232C133.947 96.444 136.185 98.6645 118.699 81.045C118.237 80.5205 117.682 80.0856 117.061 79.764C116.918 79.6874 116.762 79.6392 116.601 79.6231C116.44 79.6062 116.278 79.6223 116.123 79.6683C115.969 79.715 115.825 79.7915 115.699 79.8934C115.574 79.996 115.47 80.1216 115.394 80.264C115.164 80.787 115.075 83.2004 114.495 90.0244C114.378 91.3927 114.312 92.7648 114.224 94.14C114.218 94.2242 114.228 94.3085 114.255 94.3888C114.281 94.4692 114.323 94.5435 114.378 94.6071C114.489 94.7365 114.648 94.8161 114.817 94.8291C114.987 94.8414 115.155 94.7862 115.285 94.6752C115.414 94.5634 115.493 94.4057 115.506 94.2357C115.646 92.5251 115.871 90.8306 116.022 89.127C116.317 85.8122 116.267 82.9815 116.452 81.3589C116.52 80.8138 116.542 80.8314 116.924 81.1124Z" fill="#38A1FF"/>
<path fill-rule="evenodd" clip-rule="evenodd" d="M120.225 84.1959C119.989 85.6714 119.106 95.3085 119.121 97.2128C119.108 97.3797 119.162 97.5451 119.272 97.6722C119.381 97.7985 119.535 97.8774 119.702 97.8904C119.869 97.9027 120.035 97.8483 120.162 97.7396C120.289 97.6308 120.367 97.4754 120.38 97.3085C120.319 96.2227 121.479 85.2005 121.504 84.3322C121.515 84.2472 121.509 84.1606 121.486 84.0779C121.463 83.9953 121.424 83.9187 121.371 83.8513C121.319 83.7839 121.252 83.728 121.178 83.6859C121.103 83.6446 121.02 83.6185 120.935 83.6093C120.849 83.6001 120.763 83.6086 120.682 83.6331C120.599 83.6576 120.523 83.6982 120.456 83.7533C120.391 83.8077 120.336 83.875 120.296 83.9508C120.257 84.0266 120.232 84.1109 120.225 84.1959Z" fill="#38A1FF"/>
<path fill-rule="evenodd" clip-rule="evenodd" d="M125.85 90.0367C125.564 90.8912 124.936 98.1952 124.652 100.443C124.62 100.604 124.652 100.772 124.743 100.91C124.832 101.048 124.972 101.145 125.133 101.181C125.293 101.218 125.462 101.19 125.603 101.104C125.743 101.018 125.844 100.88 125.884 100.72C125.895 100.644 127.191 91.0589 127.13 90.163C127.139 90.0788 127.13 89.9938 127.106 89.9134C127.081 89.8322 127.041 89.7572 126.987 89.6921C126.933 89.6262 126.867 89.5726 126.793 89.5328C126.719 89.493 126.637 89.4677 126.553 89.4601C126.469 89.4517 126.384 89.4601 126.303 89.4846C126.223 89.5091 126.147 89.5489 126.082 89.6025C126.017 89.6561 125.962 89.7219 125.923 89.7962C125.883 89.8713 125.858 89.9524 125.85 90.0367Z" fill="#38A1FF"/>
<path fill-rule="evenodd" clip-rule="evenodd" d="M131.256 95.9394C130.95 98.6737 130.507 102.395 130.457 103.035C130.44 103.116 130.439 103.2 130.454 103.282C130.469 103.363 130.5 103.441 130.545 103.51C130.59 103.58 130.648 103.64 130.716 103.687C130.784 103.734 130.862 103.767 130.942 103.785C131.023 103.802 131.107 103.803 131.189 103.788C131.271 103.773 131.348 103.742 131.418 103.697C131.487 103.652 131.547 103.593 131.594 103.525C131.641 103.457 131.674 103.38 131.692 103.299C132.273 97.4493 133.376 94.8605 132.075 94.761C131.493 94.7165 131.32 95.362 131.256 95.9394Z" fill="#38A1FF"/>
<path fill-rule="evenodd" clip-rule="evenodd" d="M135.948 100.752C135.656 102.394 135.527 104.061 135.565 105.729C135.557 105.812 135.566 105.894 135.589 105.974C135.614 106.053 135.654 106.127 135.707 106.191C135.759 106.255 135.824 106.308 135.897 106.347C135.971 106.385 136.05 106.41 136.133 106.417C136.216 106.425 136.298 106.417 136.378 106.393C136.457 106.368 136.531 106.328 136.595 106.276C136.659 106.223 136.712 106.158 136.751 106.085C136.789 106.011 136.814 105.932 136.821 105.849C136.685 105.237 137.381 100.963 137.386 100.887C137.393 100.761 137.349 99.82 136.768 99.7641C136.254 99.7174 136.013 100.274 135.948 100.752Z" fill="#38A1FF"/>
<path fill-rule="evenodd" clip-rule="evenodd" d="M115.406 88.202C117.681 90.2993 138.449 106.228 139.549 107.197C139.614 107.249 139.689 107.286 139.77 107.309C139.849 107.331 139.933 107.338 140.015 107.328C140.098 107.318 140.178 107.292 140.25 107.251C140.322 107.21 140.386 107.155 140.437 107.09C140.488 107.024 140.526 106.949 140.548 106.87C140.57 106.79 140.577 106.706 140.567 106.624C140.557 106.541 140.531 106.462 140.49 106.39C140.45 106.317 140.394 106.253 140.329 106.202C139.334 105.505 117.546 88.0864 116.201 87.1882C116.067 87.0825 115.897 87.0351 115.727 87.055C115.558 87.0757 115.403 87.1622 115.298 87.2962C115.193 87.4294 115.145 87.6002 115.165 87.7694C115.185 87.9386 115.272 88.0925 115.406 88.1982V88.202Z" fill="#38A1FF"/>
<path fill-rule="evenodd" clip-rule="evenodd" d="M93.0495 95.6683C93.3619 95.0374 93.5266 94.3437 93.5304 93.6392C93.5388 93.1974 93.3834 92.7686 93.0939 92.4348C92.7846 92.0848 92.3665 91.8475 91.9071 91.7617C90.9079 91.6086 90.3275 92.3245 89.8175 93.1982C89.3206 93.9264 89.0189 94.7702 88.9416 95.6484C88.551 98.4172 91.4507 100.549 93.0388 95.6622L93.0495 95.6683Z" fill="#38A1FF"/>
<path fill-rule="evenodd" clip-rule="evenodd" d="M104.23 98.4249C104.441 97.8414 104.505 97.2159 104.416 96.6018C104.364 96.1952 104.158 95.8238 103.84 95.565C103.509 95.3039 103.105 95.1546 102.684 95.1378C101.753 95.1247 101.314 95.794 100.939 96.6431C100.564 97.3345 100.39 98.1179 100.437 98.9035C100.437 101.419 103.361 102.895 104.219 98.4234L104.23 98.4249Z" fill="#38A1FF"/>
<path fill-rule="evenodd" clip-rule="evenodd" d="M114.126 101.661C114.314 101.148 114.361 100.595 114.263 100.058C114.203 99.6814 113.997 99.3429 113.688 99.1186C113.377 98.9019 113.008 98.784 112.628 98.7802C111.769 98.7909 111.387 99.3621 111.039 100.143C110.694 100.752 110.545 101.452 110.612 102.149C110.681 104.421 113.377 105.601 114.114 101.659L114.126 101.661Z" fill="#38A1FF"/>
<path fill-rule="evenodd" clip-rule="evenodd" d="M123.117 105.537C123.306 105.123 123.37 104.664 123.301 104.214C123.281 104.046 123.228 103.882 123.145 103.734C123.06 103.587 122.949 103.457 122.814 103.353C122.546 103.158 122.226 103.045 121.895 103.03C121.134 103.008 120.792 103.456 120.44 104.129C120.108 104.609 119.951 105.189 119.994 105.772C120.002 107.757 122.266 108.772 123.106 105.535L123.117 105.537Z" fill="#38A1FF"/>
<path fill-rule="evenodd" clip-rule="evenodd" d="M131.178 110.676C131.657 110.281 131.985 109.734 132.106 109.125H132.119C132.41 108.023 132.068 107.507 131.595 107.348C131.207 107.208 130.78 107.218 130.399 107.377C130.018 107.535 129.71 107.83 129.535 108.204C129.806 108.257 130.064 108.362 130.294 108.515C130.524 108.668 130.721 108.866 130.874 109.096C131.027 109.326 131.132 109.584 131.184 109.855C131.237 110.127 131.235 110.406 131.178 110.676Z" fill="#38A1FF"/>
<path fill-rule="evenodd" clip-rule="evenodd" d="M103.191 52.0127C102.171 52.7539 99.4876 56.071 98.0251 57.4354C97.9172 57.5632 97.8643 57.7288 97.8781 57.8955C97.8919 58.0624 97.9723 58.2168 98.1002 58.3248C98.2273 58.4328 98.3934 58.4857 98.5596 58.4717C98.7265 58.4576 98.8812 58.3779 98.9892 58.2501C100.187 57.1583 102.886 54.1728 103.679 53.4071C103.816 53.2746 103.918 53.1192 104.04 52.9775C104.162 52.8632 104.235 52.7059 104.243 52.539C104.251 52.372 104.194 52.2085 104.083 52.0831C103.973 51.9577 103.818 51.8802 103.652 51.8671C103.485 51.8539 103.319 51.9062 103.191 52.0127Z" fill="#191919"/>
<path fill-rule="evenodd" clip-rule="evenodd" d="M142.561 103.846C142.341 100.585 140.622 99.3835 138.668 96.9264C136.821 94.565 134.625 91.8184 132.695 89.5275C132.538 89.3422 133.168 85.1094 132.421 83.2487C132.176 82.6316 128.257 77.5305 124.207 72.3582C124.308 68.5993 124.947 65.9669 123.871 63.3995C123.168 61.6728 115.812 53.1521 113.293 52.2019C112.66 51.9584 109.833 51.695 105.858 51.4829C105.775 49.7937 105.49 48.1697 103.92 47.7754C99.8966 47.3107 95.8468 47.1229 91.7978 47.2133C90.709 47.1597 89.6339 47.4703 88.7419 48.0962C87.807 48.8389 88.0107 50.087 88.0528 51.1544C79.6301 51.1751 67.9501 51.064 66.7395 51.8749C65.1055 52.9783 62.2219 56.3925 60.9914 57.8887C60.9334 57.9576 60.8906 58.038 60.8658 58.1246C55.2824 59.7119 53.3421 62.0021 50.195 61.9531C49.3405 61.9454 48.2892 61.7731 47.692 62.6031C47.4493 63.2008 47.3395 63.844 47.3704 64.4883C47.2823 66.2264 47.28 68.96 47.2838 70.0993C45.7226 70.9087 46.0587 72.6453 46.558 74.3651C46.5796 74.4475 46.6173 74.5249 46.6691 74.5925C46.7208 74.6602 46.7855 74.717 46.8593 74.7595C46.9332 74.802 47.0147 74.8295 47.0992 74.8402C47.1838 74.8509 47.2696 74.8447 47.3517 74.822C47.4338 74.7993 47.5106 74.7605 47.5776 74.7078C47.6446 74.6551 47.7005 74.5897 47.742 74.5153C47.7835 74.4409 47.8097 74.3589 47.8193 74.2742C47.8289 74.1896 47.8215 74.1039 47.7976 74.022C47.6269 73.3811 47.1759 71.7647 47.7371 71.411C49.1736 70.5059 51.9148 71.7938 54.0618 71.3842C64.1423 69.4585 69.0297 64.2134 88.8621 66.0473C95.9203 66.7027 94.4379 66.8681 99.0008 67.6966C102.741 68.3735 105.403 68.0029 109.581 67.1062C111.12 66.7793 111.969 66.2012 112.306 68.3053C112.541 69.7869 111.104 92.7909 111.097 92.8705C111.087 93.0367 111.141 93.1997 111.25 93.3253C111.358 93.4509 111.512 93.5282 111.678 93.5412C111.844 93.5543 112.008 93.5014 112.135 93.3935C112.261 93.2863 112.341 93.1331 112.355 92.9677C112.489 90.9853 113.569 70.048 113.586 68.95C113.989 69.437 119.088 75.3819 121.243 77.9853C125.558 83.2051 127.318 85.6499 130.654 89.2702C133.402 92.235 135.29 94.4869 137.852 97.5895C138.978 98.9762 140.608 100.447 141.206 102.138C141.784 103.858 141.303 106.498 141.182 108.36C141.178 108.443 141.19 108.525 141.218 108.603C141.246 108.681 141.29 108.753 141.345 108.815C141.401 108.876 141.468 108.926 141.543 108.961C141.618 108.996 141.699 109.016 141.783 109.021C141.865 109.024 141.948 109.011 142.026 108.984C142.104 108.956 142.176 108.913 142.237 108.857C142.298 108.801 142.348 108.734 142.383 108.658C142.419 108.583 142.439 108.502 142.443 108.42C142.468 107.073 142.665 105.374 142.561 103.846ZM89.6362 49.1842C90.2052 48.7436 90.8974 48.4905 91.6163 48.4599C91.9226 48.4316 103.345 48.7348 103.449 48.7493C103.707 48.7577 103.955 48.8466 104.159 49.0035C104.667 49.5127 104.664 50.7072 104.632 51.4247C95.7389 50.9997 91.9395 51.1444 89.3491 51.1544C89.3935 50.1475 89.3591 49.4201 89.6362 49.1842ZM67.5358 53.0617C68.0134 52.9285 68.5064 52.8582 69.0022 52.8527C77.8414 51.9898 94.8744 52.5916 96.5429 52.623C104.799 52.7892 111.857 52.8772 112.901 53.2509C115.054 54.0365 122.147 62.0051 122.876 63.803C123.67 65.8191 123.259 67.8612 123.012 70.8405C119.894 66.8643 116.913 63.107 115.669 61.6889C113.678 59.3972 112.606 56.8175 108.813 56.7325C105.462 56.6559 105.02 57.9416 97.7871 57.1437C91.9816 56.315 86.1255 55.8981 80.261 55.8964C74.4556 55.8645 68.6624 56.4327 62.9738 57.5916C64.3771 55.9679 65.9022 54.4536 67.5358 53.0617ZM129.002 85.212C127.335 83.2977 127.178 83.3245 122.741 77.8812C115.438 68.9271 116.348 69.888 113.124 66.4125C111.87 65.0097 110.597 65.7624 109.35 66.0082C106.933 66.56 104.459 66.8172 101.981 66.7739C96.9916 66.4967 93.9272 63.9217 80.3024 64.3796C66.9685 64.826 61.5098 68.5955 53.7946 69.9883C52.4799 70.228 50.3489 69.5098 48.5794 69.7264C48.6001 68.5465 48.6744 64.5557 48.8903 63.4094C48.9927 63.3773 49.1005 63.3667 49.2073 63.378C50.1058 63.4509 51.01 63.4025 51.8957 63.2341C54.9944 62.5809 57.5618 59.7624 65.9746 58.2968C71.3549 57.3991 76.8104 57.0313 82.2626 57.1988C88.405 57.3994 95.2879 58.3474 97.6393 58.5725C104.976 59.2846 105.679 57.9737 108.796 57.9906C109.525 57.9678 110.25 58.1151 110.911 58.4208C111.574 58.7265 112.155 59.1821 112.61 59.7517C114.803 62.0794 130.664 81.9378 131.332 83.6775C131.715 84.6844 131.567 87.0619 131.504 88.1408C130.681 87.1936 129.862 86.2012 129.002 85.212Z" fill="#191919"/>
<path fill-rule="evenodd" clip-rule="evenodd" d="M110.131 57.9324C110.063 59.2624 109.925 65.1101 110.008 65.9072C110.005 65.9916 110.018 66.0759 110.047 66.1552C110.076 66.2345 110.121 66.3071 110.178 66.3686C110.237 66.4303 110.306 66.4796 110.384 66.5137C110.461 66.548 110.544 66.5663 110.629 66.5676C110.713 66.5689 110.797 66.5532 110.875 66.5215C110.954 66.4898 111.025 66.4427 111.085 66.383C111.145 66.3232 111.191 66.2521 111.224 66.1738C111.255 66.0954 111.271 66.0116 111.27 65.9271C111.446 64.9179 111.596 59.123 111.576 57.9569C111.569 57.7755 111.492 57.604 111.361 57.4789C111.229 57.3538 111.054 57.2851 110.872 57.2877C110.328 57.2792 110.159 57.391 110.131 57.9324Z" fill="#191919"/>
<path fill-rule="evenodd" clip-rule="evenodd" d="M34.9606 107.325C35.3618 107.108 35.7631 106.893 36.1643 106.683C29.9292 96.6056 20.0486 88.3988 11.6389 80.434C10.0309 78.9149 5.3441 74.3084 6.35559 72.3176C6.49399 72.0996 6.6743 71.9113 6.88605 71.7636C7.0978 71.6158 7.33679 71.5116 7.58913 71.457C13.3372 69.6024 83.1691 75.2342 124.741 101.073C126.273 102.024 142.046 109.869 143.691 110.685L143.002 114.042C143.392 114.103 143.789 114.189 144.187 114.289L144.996 110.471C145.024 110.338 145.007 110.198 144.948 110.076C144.888 109.953 144.79 109.854 144.669 109.792C144.669 109.792 125.994 100.247 125.466 99.918C99.6523 83.6974 61.9125 75.0328 31.92 71.4256C18.5203 69.8122 9.01793 69.5841 7.17642 70.169C5.26217 70.7816 4.51255 72.1514 5.00872 73.9692C6.81424 80.5841 25.2362 91.9356 34.9606 107.325Z" fill="#191919"/>
<path fill-rule="evenodd" clip-rule="evenodd" d="M14.7607 123.945C20.4499 116.101 36.8336 106.773 45.6452 103.515C49.1613 102.213 53.5136 100.538 57.3405 101.218C58.8796 101.493 59.2808 102.243 58.3566 103.703C57.3314 105.323 52.8589 108.589 56.6652 109.926C60.7916 111.375 66.0902 108.444 70.1055 107.638C81.3483 105.383 93.268 106.819 97.1347 108.366C101.222 110.001 91.4923 113.282 95.6945 114.645C96.0742 114.759 96.4602 114.851 96.8514 114.916C107.825 116.6 119.553 106.435 129.005 109.181C132.267 110.129 127.096 113.406 130.223 114.613C134.191 116.145 139.654 114.037 144.453 115.448C145.724 115.821 148.027 116.556 148.499 117.985C149.444 120.844 146.806 123.768 144.231 124.504C141.804 125.202 20.9231 126.706 14.7607 123.945Z" fill="#38A1FF"/>
<path fill-rule="evenodd" clip-rule="evenodd" d="M29.5294 32.0119C29.194 31.8442 28.7836 31.6689 28.3885 31.4706C27.7907 31.0985 27.098 30.9074 26.3939 30.9202C25.69 30.9329 25.0047 31.149 24.4207 31.5425C23.7916 31.9044 23.2505 32.4013 22.8364 32.9974C22.7379 33.1085 22.6872 33.2539 22.6952 33.4022C22.7032 33.5504 22.7693 33.6896 22.8792 33.7895C22.9892 33.8893 23.134 33.9418 23.2824 33.9356C23.4307 33.9293 23.5707 33.8648 23.6718 33.7562C24.1903 33.2591 24.7543 32.8117 25.3563 32.42C25.7619 32.2026 26.2053 32.0646 26.6626 32.0134C27.7989 31.969 29.1351 33.9062 30.3035 33.4062C32.2989 32.5517 33.1412 29.0624 35.2316 29.7209C35.3704 29.7481 35.5143 29.7212 35.6339 29.6457C35.7536 29.5702 35.8398 29.4519 35.8751 29.315C35.9103 29.178 35.8918 29.0327 35.8235 28.9089C35.7551 28.7851 35.6419 28.6921 35.5072 28.6489C33.1052 28.1757 32.1435 30.8366 30.4881 31.9277C29.8219 32.3595 29.9146 32.2049 29.5294 32.0119Z" fill="#191919"/>
<path fill-rule="evenodd" clip-rule="evenodd" d="M29.2255 37.0862C30.1106 36.8933 32.9139 35.868 33.1137 35.8611C33.2526 35.825 33.3722 35.7365 33.4472 35.6142C33.5221 35.4918 33.5468 35.3451 33.5159 35.205C33.4849 35.0648 33.4008 34.9421 33.2812 34.8627C33.1617 34.7833 33.016 34.7534 32.8748 34.7792C31.0701 35.5112 27.9628 35.6628 28.4789 36.8045C28.5407 36.9407 28.654 37.0468 28.7939 37.0996C28.9339 37.1525 29.0891 37.1476 29.2255 37.0862Z" fill="#191919"/>
<path fill-rule="evenodd" clip-rule="evenodd" d="M68.3366 30.3825C68.1284 30.0708 67.8581 29.7148 67.6131 29.3472C67.2778 28.7278 66.7705 28.2186 66.1523 27.8809C65.5341 27.5433 64.8315 27.3917 64.1291 27.4445C63.4045 27.4464 62.6892 27.6091 62.0349 27.9207C61.9617 27.9412 61.8933 27.9765 61.834 28.0241C61.7747 28.0717 61.7256 28.1309 61.6897 28.1981C61.6538 28.2651 61.6319 28.3388 61.6252 28.4147C61.6186 28.4905 61.6273 28.5668 61.6509 28.6392C61.6745 28.7115 61.7126 28.7783 61.7627 28.8356C61.8127 28.8929 61.8739 28.9394 61.9425 28.9725C62.011 29.0055 62.0856 29.0243 62.1616 29.0278C62.2376 29.0313 62.3136 29.0194 62.3849 28.9927C63.0811 28.8195 63.7919 28.7113 64.5081 28.6696C64.9679 28.6824 65.4209 28.7821 65.8435 28.9636C66.8535 29.4873 67.0549 31.8327 68.3175 31.9759C70.4745 32.2217 72.9339 29.6068 74.424 31.214C74.4762 31.2646 74.5379 31.3044 74.6055 31.3312C74.6732 31.358 74.7454 31.3712 74.8182 31.3701C74.8909 31.369 74.9627 31.3535 75.0295 31.3246C75.0963 31.2957 75.1567 31.254 75.2073 31.2017C75.2579 31.1495 75.2978 31.0878 75.3245 31.0202C75.3513 30.9525 75.3646 30.8803 75.3634 30.8076C75.3623 30.7348 75.3468 30.663 75.3179 30.5962C75.289 30.5295 75.2472 30.4691 75.195 30.4184C73.3428 28.8181 71.1897 30.6535 69.2111 30.7821C68.4178 30.8296 68.5748 30.7408 68.3366 30.3825Z" fill="#191919"/>
<path fill-rule="evenodd" clip-rule="evenodd" d="M65.5594 34.642C66.4239 34.9131 69.3665 35.4077 69.541 35.5027C69.6805 35.5428 69.8301 35.5266 69.9578 35.4576C70.0855 35.3887 70.181 35.2724 70.224 35.1338C70.2669 34.9952 70.2537 34.8452 70.1873 34.7162C70.1208 34.5872 70.0065 34.4893 69.8688 34.4437C67.9392 34.1864 65.1643 32.7798 65.0449 34.0272C65.038 34.1014 65.0459 34.1762 65.0681 34.2473C65.0903 34.3184 65.1264 34.3845 65.1742 34.4416C65.222 34.4988 65.2807 34.5459 65.3468 34.5803C65.4129 34.6147 65.4851 34.6357 65.5594 34.642Z" fill="#191919"/>
<path fill-rule="evenodd" clip-rule="evenodd" d="M113.812 38.5004C116.081 38.4131 117.956 38.515 119.887 38.5846C125.683 38.7937 126.452 38.6245 130.39 38.5747C135.31 38.5127 139.808 38.7876 141.391 38.7095C141.974 38.6811 142.68 38.9874 143.047 38.4675C143.11 38.3789 143.15 38.2765 143.165 38.1689C143.18 38.0614 143.169 37.9518 143.132 37.8496C142.549 35.9353 139.084 35.5012 137.087 35.4238C135.277 35.3542 133.453 35.505 131.651 35.2806C128.766 34.9215 126.278 33.9499 123.28 34.0693C118.829 34.247 113.698 34.7584 109.344 35.1895C108.264 35.2939 107.198 35.5049 106.159 35.8197C105.08 36.2148 105.011 36.8779 105.504 37.3182C105.927 37.6192 106.407 37.8317 106.915 37.943L108.249 38.1949C112.365 38.4537 111.808 38.4644 112.634 38.5012C113.809 38.551 113.889 38.4392 113.812 38.5004ZM125.557 37.469C121.554 37.4759 118.151 37.0961 113.755 37.3733C111.955 37.4181 110.153 37.367 108.358 37.2202C105.324 36.7133 106.695 36.3542 109.43 36.0892C114.273 35.6222 118.565 35.2293 123.307 35.1367C126.735 35.0693 129.335 36.5471 133.61 36.6803C136.074 36.7569 139.086 36.5318 141.002 37.3082C142.537 37.9254 141.96 37.4392 125.557 37.469Z" fill="#38A1FF"/>
<path fill-rule="evenodd" clip-rule="evenodd" d="M5.74743 54.2662C5.75778 54.3578 5.7904 54.4456 5.84245 54.5218C5.8945 54.598 5.9644 54.6603 6.04605 54.7034C9.66934 56.6008 14.6801 54.4905 18.8095 54.4239C25.1388 54.3205 30.6993 55.8466 36.1312 55.5862C37.0982 55.5403 38.8999 55.6245 39.1978 54.7279C39.2504 54.544 39.251 54.349 39.1996 54.1648C39.148 53.9806 39.0464 53.8142 38.9061 53.6842C38.3836 53.2372 37.7912 52.8792 37.1526 52.6245C34.9995 51.8021 32.8555 52.0119 30.6442 51.9821C28.2904 51.9469 25.8861 51.1988 23.455 51.028C20.3401 50.8098 16.9841 51.3489 14.0989 51.0625C11.8171 50.8328 8.78343 50.3879 7.13105 51.2677C6.60207 51.5449 6.1796 51.9894 5.92936 52.5316C5.67912 53.0739 5.61516 53.6837 5.74743 54.2662ZM36.0515 54.3519C33.2764 54.5122 30.4922 54.3733 27.7468 53.9377C25.1801 53.6398 21.4282 53.2486 18.8003 53.2424C14.4473 53.2348 9.88757 55.1038 6.82017 53.8175C6.70302 50.5472 12.2811 52.0028 15.9228 52.0487C18.406 52.0793 20.8945 51.7769 23.3807 51.989C25.0699 52.1329 26.7085 52.5801 28.3716 52.8626C31.6939 53.427 34.1733 52.7899 36.6878 53.8067C38.9175 54.7103 36.56 54.3106 36.0515 54.3519Z" fill="#38A1FF"/>
</svg>
