<svg width="155" height="156" viewBox="0 0 155 156" fill="none" xmlns="http://www.w3.org/2000/svg">
<path d="M143.129 44.9398C142.303 43.2105 140.195 43.4344 141.098 45.1637C143.963 50.7187 146.042 56.6453 147.274 62.7732C145.166 63.1515 141.399 63.5452 138.99 63.8231C137.261 52.4669 132.746 45.2949 126.5 38.0921C124.045 35.2203 134.683 31.9161 130.36 27.1065C128.462 25.1017 126.395 23.2628 124.184 21.6098C122.076 20.0658 119.977 20.7142 121.706 22.1424C130.615 29.4997 130.113 29.0288 128.476 31.2444C126.292 34.0314 122.377 36.3628 124.863 39.2192C141.893 58.2183 136.134 75.3569 138.759 75.0404C140.303 74.8551 139.586 67.4361 139.284 65.8535C141.693 65.5524 145.529 65.0815 147.637 64.8036C149.181 73.5273 147.637 76.4995 149.219 76.6925C150.949 76.6925 149.992 67.4284 149.297 63.3754C148.156 56.9611 146.077 50.7496 143.129 44.9398Z" fill="#3D9CFB"/>
<path d="M105.061 143.919C95.7972 147.91 82.4877 149.864 72.3281 149.323C71.1238 149.177 70.8227 151.13 73.7563 151.354C83.4142 152.002 97.4184 149.532 104.305 146.235C106.335 145.355 106.188 143.471 105.061 143.919Z" fill="#3D9CFB"/>
<path d="M128.607 111.718C124.097 118.739 118.177 124.746 111.222 129.357C104.268 133.969 96.4305 137.085 88.2078 138.507C86.3627 138.77 86.5488 140.823 89.7063 140.159C99.9248 138.186 109.482 133.672 117.499 127.035C119.151 128.919 120.995 130.756 122.84 132.532C124.222 133.852 125.774 134.184 127.202 132.756C139.647 120.064 147.274 104.516 145.336 103.033C144.734 102.586 144.295 103.111 144.133 103.558C140.292 114.123 134.031 123.641 125.851 131.351C125.079 132.123 125.079 132.308 118.903 125.777C123.248 121.954 127.046 117.551 130.19 112.691C135.833 114.722 138.62 106.067 133.278 104.199C128.538 102.539 125.226 108.407 128.607 111.718ZM129.14 107.727C130.267 104.114 135.679 106.183 133.881 109.835C132.715 112.189 128.383 110.815 129.14 107.727Z" fill="#3D9CFB"/>
<path d="M119.281 32.1093C120.408 33.0125 121.157 31.6615 119.883 30.4572C114.541 25.4932 104.644 20.838 98.8152 19.016C96.4991 18.1128 95.8043 19.541 97.0859 20.0737C103.177 22.5518 108.072 24.5127 112.056 27.068C104.683 41.466 106.975 33.7768 117.922 46.7079C117.268 47.3501 116.819 48.1719 116.633 49.0693C116.446 49.9667 116.53 50.8993 116.873 51.7491C115.368 52.7975 113.782 53.7267 112.132 54.5284C111.075 53.1773 106.636 47.009 104.829 47.9122C102.644 49.0085 110.889 51.641 114.865 64.8964C114.888 65.016 114.944 65.1267 115.027 65.2158C115.11 65.3048 115.217 65.3686 115.335 65.3998C115.452 65.4311 115.576 65.4287 115.692 65.3929C115.809 65.3572 115.913 65.2894 115.992 65.1975C116.896 64.4255 115.167 59.0214 113.206 56.1727C114.861 55.3664 116.46 54.4509 117.993 53.4321C118.602 54.0384 119.375 54.4541 120.216 54.6282C121.058 54.8024 121.932 54.7274 122.732 54.4125C127.271 63.6766 126.453 68.9572 128.136 68.108C130.089 67.0503 124.902 54.2118 124.377 53.3626C127.836 50.0507 124.222 44.3301 119.706 45.8355C108.249 32.0861 107.609 41.2961 113.762 28.3033C115.713 29.4019 117.561 30.6758 119.281 32.1093ZM118.602 48.9622C119.815 45.7738 124.624 47.835 123.644 50.7687C122.625 54.0034 117.221 52.5443 118.602 48.9622Z" fill="#3D9CFB"/>
<path d="M136.134 82.2976C127.102 86.8833 132.375 99.0038 141.4 97.1201C152.463 93.8082 146.896 77.9357 136.134 82.2976ZM139.293 83.3475C140.651 83.3475 143.584 88.8442 143.206 89.3692C142.828 89.8941 140.119 91.2529 139.447 91.2529C138.775 91.2529 135.91 89.7474 135.532 89.4464C135.154 88.9909 137.942 83.3475 139.293 83.3475ZM139.523 95.2364C138.543 95.3136 134.891 90.9518 135.532 90.8746C136.173 90.7974 138.845 92.38 139.447 92.3028C140.049 92.2256 142.381 90.9518 143.129 90.8746C143.878 90.7974 140.496 95.2364 139.523 95.2364Z" fill="#3D9CFB"/>
<path d="M105.586 85.6093C106.412 89.2918 106.566 91.631 106.358 93.6614C109.901 92.6037 108.095 83.9495 107.562 82.2974C104.93 84.5517 101.549 85.756 97.7815 86.4354C107.192 82.2974 107.562 78.9083 107.94 77.3334C108.543 75.0174 106.335 67.2278 105.309 68.8413C102.058 73.9057 89.0965 71.6283 86.1937 75.3107C84.6497 77.6268 85.2897 85.0226 85.2897 85.0226C84.3864 82.4595 80.6584 72.1532 88.5252 71.7055C93.9292 70.4239 101.849 71.3272 104.405 66.1316C101.618 57.709 100.947 54.9992 97.7815 53.7177C94.0219 52.1737 89.8831 52.6678 72.1972 55.8253C64.2224 57.1068 50.8975 59.1063 48.651 62.3719C45.0689 67.5675 51.739 96.3865 58.2779 100.069C63.1725 102.385 74.1581 100.069 85.8231 98.0386C96.0291 96.2167 105.431 95.0124 105.586 85.6093ZM89.5589 75.8203C92.0447 73.8594 95.3497 75.7431 95.0486 77.3257C90.764 75.8897 88.0998 79.8038 91.7437 82.5908C87.6057 83.0463 87.1116 77.7812 89.5589 75.8203Z" fill="#3D9CFB"/>
<path d="M42.4594 37.5287C42.305 38.0537 42.1583 39.0342 42.0039 39.783C43.5479 40.1613 44.4898 40.3852 44.8603 39.9374C45.2386 39.6363 45.8408 37.7526 42.4594 37.5287Z" fill="#3D9CFB"/>
<path d="M6.11355 83.4246C5.40451 74.3564 6.32219 65.2345 8.8233 56.4892C9.84376 56.8003 10.9416 56.738 11.9204 56.3137C12.8992 55.8894 13.695 55.1306 14.1656 54.1732C16.4198 54.8449 20.7122 57.2613 21.8857 53.4939C23.2367 49.132 25.3443 45.9668 28.1312 41.7593C29.2506 40.1304 24.9582 38.9415 19.8553 53.4939C19.3226 55.0379 16.2423 52.7218 14.6597 52.2123C14.6677 51.5513 14.5305 50.8965 14.2578 50.2943C13.985 49.6921 13.5834 49.1571 13.0812 48.7271C12.5791 48.2971 11.9886 47.9826 11.3516 47.8057C10.7146 47.6289 10.0465 47.5941 9.39458 47.7038C5.63491 48.1516 4.43057 53.3472 7.07856 55.6014C4.63085 64.1243 3.61344 72.994 4.06773 81.8497C4.22985 84.5517 6.19075 84.7061 6.11355 83.4246ZM8.06673 50.5448C9.95043 48.0589 14.1579 50.815 12.3591 53.5556C10.3982 56.5201 6.05179 53.6328 8.06673 50.5448Z" fill="#3D9CFB"/>
<path d="M55.6217 116.536C50.3952 125.029 62.4694 134.069 69.016 125.484C75.0377 115.78 61.0026 107.836 55.6217 116.536ZM62.3922 126.464C61.3423 126.464 61.1184 126.241 61.1184 125.638C61.1184 122.55 60.6397 124.511 63.6737 123.909C63.6737 126.225 63.8358 126.464 62.4076 126.464H62.3922ZM67.8889 121.199C67.8889 124.056 57.1271 124.056 57.0808 121.199C56.8569 119.918 61.3731 119.393 60.0916 120.427C59.721 120.582 57.683 120.883 58.6634 121.408C59.7905 122.388 70.5523 121.786 64.9089 120.427C64.6079 120.358 64.5307 119.972 64.9861 119.902C66.1519 119.748 67.8117 120.219 67.8889 121.199ZM66.1596 116.567C66.8312 116.722 66.8312 117.1 66.8312 117.849C66.9856 119.393 65.403 118.621 63.6737 118.829V121.006C62.833 121.2 61.9591 121.2 61.1184 121.006V118.829C59.3119 118.675 57.6907 119.601 57.7293 117.772C57.7293 117.1 57.8837 116.729 58.6325 116.645C59.7674 116.552 65.1791 116.536 66.1596 116.606V116.567Z" fill="#3D9CFB"/>
<path d="M49.4539 120.373C41.8573 115.556 36.0595 108.33 32.1455 100.208C33.8053 99.4362 37.4183 97.6452 39.7497 96.8963C40.1203 97.4985 40.5758 98.4017 40.9541 99.0039C37.3411 102.54 41.8573 108.631 46.2192 106.299C47.2691 107.125 49.755 110.515 51.0365 110.159C52.318 109.804 49.5311 108.129 47.6474 105.118C48.256 104.354 48.5981 103.413 48.6215 102.436C48.6449 101.46 48.3484 100.503 47.7771 99.711C47.2061 98.9189 46.3918 98.3351 45.4583 98.0486C44.5248 97.762 43.5233 97.7885 42.6062 98.1238C40.2901 93.6307 39.742 94.4876 31.3194 98.4944C30.5199 96.7627 29.8415 94.9776 29.289 93.1521C28.988 91.9477 27.0348 91.9477 28.0075 95.3368C31.0183 105.72 38.3215 114.977 47.2691 121.068C48.9289 122.249 50.828 121.276 49.4539 120.373ZM41.7338 101.335C43.3164 97.869 48.6819 100.81 46.0956 104.045C44.266 106.222 40.653 104.045 41.7029 101.335H41.7338Z" fill="#3D9CFB"/>
<path d="M50.7342 39.0342C47.6462 27.8941 32.1443 32.9354 35.0779 43.1722C37.7876 52.498 52.8418 49.1861 50.7342 39.0342ZM47.1212 39.6364C46.9373 40.1486 46.677 40.6301 46.3492 41.0646C47.7851 43.0178 45.8242 45.8819 43.2612 45.2025C43.1068 45.8047 43.1068 46.4069 42.2035 46.2525C41.3003 46.0981 41.6786 45.5808 41.833 44.9787C41.4944 44.9214 41.1648 44.8202 40.8525 44.6776C40.6981 45.2798 40.6981 45.8819 39.7949 45.7275C39.1232 45.5808 39.2699 44.8243 39.4938 44.2221C39.1041 44.1109 38.7265 43.9609 38.3667 43.7743C38.2183 43.738 38.0857 43.6547 37.9884 43.537C37.8911 43.4193 37.8343 43.2733 37.8265 43.1208C37.8187 42.9683 37.8603 42.8173 37.9451 42.6903C38.0299 42.5633 38.1533 42.4669 38.2972 42.4156C38.5983 42.3461 38.8993 42.4928 39.4938 42.6472C39.8721 41.2113 40.5514 38.432 40.8525 37.0733C38.3667 36.8494 39.4243 35.0429 41.4547 35.6451C41.6014 35.0429 41.6786 34.3636 42.5818 34.4408C43.4851 34.518 43.1068 35.344 42.9601 35.869C43.184 35.9462 43.4851 36.0234 43.7321 36.1006C43.8865 35.4984 43.9637 34.6647 44.8592 34.8963C45.7548 35.1279 45.3147 35.9462 45.0908 36.5483C46.5191 37.1505 47.4223 38.2776 47.1212 39.6364Z" fill="#3D9CFB"/>
<path d="M44.1878 41.5893C43.2846 41.4426 42.6052 41.2882 41.6248 41.1415C41.4009 41.9676 41.3237 42.6856 41.177 43.1719C45.7704 44.8086 45.423 41.8518 44.1878 41.5893Z" fill="#3D9CFB"/>
<path d="M118.903 82.7689C118.903 78.9088 117.136 79.3103 117.097 80.8157C116.835 91.8863 112.465 100.116 104.529 107.303C103.031 108.654 105.362 109.179 106.566 108.075C110.277 104.811 113.273 100.816 115.368 96.3407C117.398 97.4679 120.865 99.3516 122.664 100.625C120.411 104.817 117.714 108.754 114.618 112.368C113.414 113.873 115.769 113.973 117.174 112.445C121.319 107.921 124.169 102.663 126.578 96.8657C127.859 93.7082 126.353 91.9712 125.674 93.9321C125.064 95.6246 124.36 97.2818 123.566 98.8961C121.536 97.4679 118.378 95.8081 116.193 94.6114C116.718 93.6619 118.98 86.737 118.903 82.7689Z" fill="#3D9CFB"/>
<path d="M26.8024 114.421C29.4117 114.127 21.5604 110.337 17.021 88.3809C16.8512 87.5626 16.4189 87.331 15.9711 87.7093C14.5429 88.9136 17.6232 98.3938 18.0787 99.8993C16.1178 100.571 11.9026 101.93 9.64836 102.678C8.75819 99.9651 8.02866 97.2017 7.46358 94.4026C7.1625 92.7505 5.5876 93.4993 6.03537 95.6841C7.2397 102.532 8.74511 107.048 11.4394 111.788C12.4199 113.44 13.9021 113 13.3231 111.858C12.1022 109.495 11.0946 107.027 10.3123 104.485C12.721 103.659 16.8589 102.377 18.8044 101.706C19.5841 103.443 24.3937 114.73 26.8024 114.421Z" fill="#3D9CFB"/>
<path d="M91.3654 128.873C94.9784 127.522 93.859 126.109 92.7164 126.557C89.6396 127.685 86.4249 128.394 83.159 128.664C82.8656 126.402 82.2634 122.195 82.2634 119.933C83.9927 119.485 89.9835 119.107 90.5394 117.076C90.7632 116.25 89.4817 116.621 88.9567 116.775C80.4647 119.385 79.0673 114.567 81.283 128.741C74.3349 129.652 71.0076 127.969 71.8027 129.568C72.2351 130.71 82.1399 132.231 91.3654 128.873Z" fill="#3D9CFB"/>
<path d="M101.448 112.923C92.0454 115.856 94.6779 130.455 105.308 128.571C116.271 125.483 111.454 110.437 101.448 112.923ZM102.876 126.047C102.498 126.719 99.4404 126.147 98.1357 123.561C97.0395 121.399 97.688 117.995 98.9077 118.072C99.2783 118.072 99.4327 118.52 99.2783 118.898C98.1512 121.307 99.6566 124.619 102.289 125.144C102.652 125.182 103.1 125.638 102.876 126.001V126.047ZM104.42 123.939C103.293 124.387 102.104 123.561 102.312 122.812C102.33 122.724 102.367 122.642 102.42 122.569C102.473 122.497 102.542 122.437 102.62 122.394C102.699 122.351 102.786 122.325 102.875 122.318C102.965 122.312 103.054 122.325 103.138 122.357C103.964 122.511 105.323 122.133 104.79 121.376C104.258 120.62 101.787 122.434 100.93 120.705C100.71 120.301 100.65 119.829 100.761 119.383C100.873 118.937 101.148 118.549 101.533 118.296C101.008 117.393 101.309 117.092 101.61 116.937C102.065 116.713 102.436 116.567 102.891 117.771C104.721 117.308 105.925 119.585 103.717 119.269C102.467 119.068 101.062 120.597 103.339 120.041C105.972 119.361 107.554 121.77 105.655 123.353C106.79 124.511 104.983 125.414 104.458 123.908L104.42 123.939ZM104.265 115.586C104.814 114.621 107.655 115.81 108.859 118.072C109.909 119.948 109.686 123.036 108.404 123.26C107.879 123.337 107.578 123.036 107.802 122.488C108.025 121.881 108.122 121.235 108.086 120.589C108.05 119.943 107.882 119.311 107.592 118.733C107.302 118.155 106.898 117.642 106.403 117.225C105.908 116.809 105.333 116.498 104.714 116.312C104.382 116.158 104.096 115.965 104.304 115.555L104.265 115.586Z" fill="#3D9CFB"/>
<path d="M36.1589 77.781C36.8383 78.5531 37.286 77.781 37.286 77.2561C37.5608 68.3992 40.7034 59.8708 46.2413 52.9533C46.5424 52.4978 44.6587 51.6718 42.7055 54.6826C40.5998 57.9594 38.8822 61.4698 37.5871 65.1433C37.5871 65.1433 32.021 63.7151 30.1373 63.1824C29.1568 62.8813 29.234 62.8813 29.3653 62.1325C30.0369 59.1216 32.6 54.2271 33.6499 52.4283C34.6998 50.6295 33.0477 50.5446 31.5423 53.1C29.4347 56.713 26.9103 61.9086 27.6823 63.7846C28.2227 64.9812 29.1182 64.8885 37.0158 67.0193C35.7575 71.1881 35.3869 76.955 36.1589 77.781Z" fill="#3D9CFB"/>
<path d="M43.9638 26.9139C59.2804 15.0482 64.368 23.2932 58.1842 9.23497C57.5048 7.72956 55.5439 7.35128 56.3777 9.45886C61.1641 21.6566 59.4117 13.6277 44.0256 24.513C41.7018 26.1651 42.9834 27.6705 43.9638 26.9139Z" fill="#3D9CFB"/>
<path d="M20.2557 35.3444C25.7523 28.5739 30.7164 22.7066 37.4869 18.8698C39.8029 22.3284 45.7628 20.6763 45.6933 16.3067C45.5775 9.76007 35.6572 10.3622 36.6608 17.1327C29.9916 20.9697 24.261 26.2442 19.8851 32.5729C18.1481 34.9661 19.5068 36.2476 20.2557 35.3444ZM39.2934 14.4307C40.9068 12.4312 44.0335 14.0524 43.9254 16.3067C43.4313 21.124 36.1976 18.2676 39.2934 14.4307Z" fill="#3D9CFB"/>
<path d="M31.2419 134.817C33.5579 136.469 34.1678 134.755 33.4266 134.215C27.0539 129.489 21.6408 123.591 17.477 116.837C16.7976 115.779 15.1609 116.459 17.1759 119.771C20.8299 125.662 25.6097 130.775 31.2419 134.817Z" fill="#3D9CFB"/>
<path d="M24.0238 81.3172C33.2879 74.0989 21.9625 61.1833 13.7098 69.0577C6.55328 75.89 16.0876 87.115 24.0238 81.3172ZM23.9466 73.8673C24.4716 74.4 24.927 74.8478 24.3944 75.4113C24.1705 75.7124 23.5683 76.3146 23.0434 75.7896C22.5184 75.2647 22.0629 75.1103 22.4412 74.5081C22.7423 74.1684 23.2672 73.2652 23.9466 73.8673ZM16.4967 72.138C17.9249 70.9337 18.9054 68.9805 20.1869 70.1077C22.4335 72.3542 22.6573 72.524 22.2173 72.9641C21.2369 74.4 20.5575 72.8946 19.9013 72.2924C18.998 71.312 18.0948 74.3228 17.0371 73.4968C16.6511 73.1185 15.8946 72.663 16.4967 72.138ZM19.8858 75.751C19.5076 76.0521 19.2065 76.0521 18.4499 75.1489C18.226 74.925 18.1488 74.6239 18.9826 73.8673C19.3532 73.5663 19.5848 73.3424 20.488 74.4C20.7196 74.8478 20.7891 75.0022 19.8858 75.751ZM15.6707 75.751C15.2152 76.276 14.6902 75.751 14.3892 75.3727C14.0881 74.9945 13.9414 74.6007 14.4664 74.0989C15.5163 73.0413 15.8174 74.0989 16.2728 74.4C16.6511 75.1489 16.1956 75.2261 15.6707 75.751ZM16.4967 77.4031C16.049 76.7315 16.6511 76.4999 17.0217 76.1293C18.0793 75.5271 18.9826 78.3836 19.9553 77.3336C20.1869 77.2564 21.3141 75.5966 21.7618 76.1293C22.0629 76.5771 22.889 76.9013 22.2945 77.4803C19.7546 79.4103 20.2718 81.5256 16.4967 77.4031Z" fill="#3D9CFB"/>
<path d="M87.8837 16.1598C82.5811 15.1329 77.1639 14.829 71.7797 15.2566C68.6916 15.4805 69.2166 17.287 70.4981 17.2098C76.597 16.762 82.9128 17.3642 88.7106 18.113C90.9725 18.4141 90.5394 16.6848 87.8837 16.1598Z" fill="#3D9CFB"/>
<path d="M102.799 39.4819C106.034 28.7973 90.5004 24.6748 87.6054 34.294C84.7953 43.643 98.7385 49.3404 102.799 39.4819ZM100.243 40.9101C99.7182 41.1417 98.29 41.0645 97.8345 40.4623C94.8777 36.5174 93.9289 40.3311 92.5702 40.9101C92.2691 40.9873 90.0843 41.0645 90.6093 40.3079C91.5201 39.1028 92.6746 38.1032 93.9976 37.3743C95.0126 37.099 96.0858 37.1258 97.0857 37.4515C97.6106 37.6754 101.293 40.4623 100.235 40.9101H100.243ZM92.8705 33.0124C95.3795 36.1005 96.1979 35.5369 98.5139 32.7886C99.0217 32.5241 99.5975 32.4191 100.166 32.4875C101.648 32.4875 98.2059 36.0773 96.4071 36.4016C93.9521 36.8879 92.5463 35.313 90.7629 33.4602C89.2189 32.1401 92.4073 32.279 92.8705 33.0124Z" fill="#3D9CFB"/>
<path d="M107.238 11.4196C99.0397 7.28167 90.6086 4.79581 80.4567 4.79581C77.5925 4.79581 76.9209 6.5251 78.4186 6.6795C88.5614 6.71993 98.5564 9.11423 107.617 13.6739C109.199 14.4305 109.724 12.624 107.238 11.4196Z" fill="#3D9CFB"/>
<path d="M80.0784 38.0536C80.9817 38.0536 81.6232 37.7603 81.2063 37.0732C80.0869 35.2976 69.2865 36.1699 62.2458 38.8797C61.2654 37.1504 59.5052 33.6609 58.3858 31.8081C58.0229 31.1982 58.2314 30.9048 58.6097 30.681C61.7672 28.7973 67.1017 27.9712 69.9736 27.8168C71.7029 33.7613 81.0365 30.6038 78.4657 24.5821C76.8136 20.4441 70.1126 21.4941 69.8115 25.8636C67.1017 26.2419 57.6215 27.5157 56.2705 30.4571C55.8922 31.2831 56.4172 32.1092 56.7954 32.7731C64.3379 47.31 58.3086 37.4746 80.0784 38.0536ZM72.9296 24.281C76.3882 22.405 78.7204 27.5157 75.3383 28.9517C72.4433 30.2255 70.1272 26.0103 72.9296 24.281Z" fill="#3D9CFB"/>
<path d="M58.4855 146.783C55.1427 145.888 49.2909 145.016 49.8313 143.394C50.8235 141.015 51.9526 138.695 53.2127 136.446C57.1961 138.087 61.3342 139.323 65.5648 140.136C66.0126 144.653 72.3353 145.78 74.1418 141.943C76.7744 136.145 68.1202 132.386 65.8659 138.33C51.1978 135.574 43.8097 128.047 42.9141 129.838C42.0186 131.629 50.2173 135.026 51.4911 135.782C46.0871 145.71 46.0871 145.996 56.9878 148.273C58.7866 148.659 60.292 147.231 58.4855 146.783ZM67.8886 138.731C69.4712 135.574 73.9102 137.959 72.4743 141.14C70.9766 143.997 66.4604 141.812 67.8886 138.731Z" fill="#3D9CFB"/>
<path d="M121.313 72.4388C114.581 73.6663 113.175 73.3112 112.511 74.3997C112.434 75.6735 115.066 74.8475 115.815 74.7703C117.251 74.5464 120.107 74.1681 121.459 73.9442C125.434 73.2803 124.794 74.0369 129.742 79.3483C130.414 79.9504 131.016 81.232 132.058 81.3014C133.332 81.0776 132.429 79.8732 131.982 79.4949C130.631 77.9509 128.592 75.6349 127.241 74.1527C125.828 72.1377 123.505 72.0374 121.313 72.4388Z" fill="#001434"/>
<path d="M93.6197 74.4696C88.8796 72.4392 84.896 78.8391 88.6557 82.2977C89.5123 83.0928 90.6285 83.5495 91.7967 83.583C92.9649 83.6166 94.1055 83.2245 95.0062 82.4799C95.6035 81.9874 96.0733 81.3582 96.3758 80.6456C97.5338 78.237 95.9511 75.45 93.6197 74.4696ZM93.2491 81.7728C91.9676 82.2977 89.7828 82.2205 88.9568 80.1902C87.9763 77.5576 90.385 74.8479 93.0175 75.8978C95.6501 76.9477 96.0283 80.5684 93.2877 81.7728H93.2491Z" fill="#001434"/>
<path d="M84.4407 50.3441C82.6805 41.7825 83.1515 42.4851 86.1005 40.0301C86.5483 39.729 86.5483 38.8258 85.7222 39.0574C84.2168 39.5051 82.1092 41.1649 82.0321 42.9714C81.8854 45.604 82.4103 47.6035 82.8658 50.4908C75.7865 51.6179 68.7149 52.8068 61.7205 54.2505C60.5703 47.0708 60.4853 46.5304 59.6902 45.8279C58.4858 44.7007 55.614 44.0445 54.2861 43.7203C52.5491 43.3034 51.9701 43.2648 51.8003 43.867C51.5146 45.411 57.4668 45.3106 58.7483 47.4105C59.5203 48.6843 59.5744 51.1702 60.1765 54.6287C53.1821 56.057 49.4919 57.0374 46.9366 59.3689C40.9921 64.7729 44.0725 73.8208 46.4811 85.7792C42.8952 86.7027 39.2506 87.381 35.5727 87.8096C33.4651 88.1107 32.4846 87.138 30.9406 85.8564C27.4048 82.7684 26.3472 81.7108 25.9766 81.9964C24.8109 82.9768 31.0178 88.1107 32.2221 88.7669C33.3255 89.3667 34.6067 89.5528 35.8351 89.2919C39.5334 88.8295 43.2016 88.1516 46.8208 87.2615C51.6381 104.647 52.0859 106.677 70.3747 103.474C71.4787 112.151 71.5868 110.422 69.2399 113.178C68.5142 114.027 69.2399 114.984 70.8225 113.556C73.1385 111.472 72.7371 111.526 71.8802 103.173C77.6702 102.269 83.3916 101.366 89.1044 100.308C89.1816 101.142 89.2966 101.737 89.6363 103.543C90.308 107.148 90.5396 109.642 93.9982 112.73C95.6503 114.228 96.7079 113.332 95.7275 112.352L93.6199 110.244C91.2112 107.612 90.8407 100.841 90.6091 100.007C96.6307 98.803 103.478 98.0541 106.188 94.2945C112.055 93.5225 110.82 86.2424 109.801 82.174C109.695 81.7095 109.543 81.2569 109.346 80.8229C110.852 78.7154 110.851 75.9284 110.473 72.2459C110.179 69.6906 109.801 63.5918 106.034 63.5918C104.158 47.8351 98.0589 47.9123 84.4407 50.3441ZM95.0481 97.6681C87.8298 99.328 80.4734 100.525 73.0768 101.528C67.7499 102.238 62.0911 103.713 56.7488 103.072C50.8816 102.246 47.8707 84.2661 46.7127 78.9933C46.1106 73.3499 43.2541 66.4327 46.9366 61.3915C47.5388 64.3252 56.7951 62.7425 61.4581 61.6926C73.2775 59.0523 82.4567 56.8753 93.2879 56.6514C99.2324 57.022 99.3096 63.8002 100.962 68.2315C96.7542 70.2619 91.6984 69.8836 87.1976 70.7869C80.126 72.2923 82.9044 79.966 84.186 84.5595C85.3903 88.8441 90.5095 87.6475 93.7442 87.5626C96.51 87.3556 99.2388 86.8005 101.866 85.9105C103.526 85.3083 104.737 85.3932 105.254 88.0181C106.736 95.3135 102.382 95.9774 95.0481 97.645V97.6681ZM106.868 92.7041C107.393 89.9172 106.412 86.4586 106.034 83.8261C106.772 83.2943 107.476 82.7167 108.141 82.0968C108.821 85.2311 110.474 91.0289 106.868 92.681V92.7041ZM105.81 65.1666C107.771 64.0395 108.898 70.6556 109.045 72.161C109.454 76.6001 111.245 83.4555 93.6971 86.0108C90.9873 86.3814 86.8501 86.9836 86.0241 84.5749C84.5959 80.3675 81.8082 73.2187 87.6754 72.161C92.9482 71.1806 101.148 71.9371 104.529 67.0426C104.761 66.5563 105.362 65.3674 105.81 65.1435V65.1666ZM105.038 63.8851C103.756 64.8656 103.309 66.4405 102.104 67.4209C100.823 61.9319 100.067 55.6864 93.5203 55.0688C82.3879 55.2155 73.286 57.2458 60.6405 59.9556C51.1603 61.986 47.5164 61.6154 49.431 59.5773C51.0831 57.7785 56.4253 56.9448 60.4938 56.1187C60.6405 57.022 61.0188 59.2067 61.8448 58.4347C62.3698 57.987 62.2231 57.462 61.9992 55.8022C68.9936 54.374 76.0652 53.1696 83.1368 52.0425C83.4379 53.9957 83.522 54.5129 83.9698 54.6751C84.9502 55.0302 84.7426 52.9458 84.6422 51.8186C98.6927 49.6416 101.826 48.8001 105.061 63.8619L105.038 63.8851Z" fill="#001434"/>
</svg>
