<svg width="154" height="154" viewBox="0 0 154 154" fill="none" xmlns="http://www.w3.org/2000/svg">
<path d="M149.527 28.2714C149.053 32.8656 133.777 104.619 123.838 135.416C122.245 140.355 120.063 144.344 114.971 143.295C114.879 143.295 114.466 143.05 114.588 142.851C114.979 142.154 118.172 143.272 120.53 140.332C125.829 133.724 142.452 57.7049 144.267 49.5808C150.163 22.9115 150.14 23.6695 146.204 20.668C145.599 20.2086 145.691 19.7798 146.105 19.8181C146.879 20.0709 147.585 20.5008 148.164 21.0738C150.553 23.4475 149.818 25.4766 149.527 28.2714Z" fill="#191919"/>
<path d="M98.2644 16.5792C98.1774 16.5408 98.1043 16.4765 98.055 16.3952C98.0057 16.3138 97.9826 16.2193 97.9888 16.1243C97.9947 16.0295 98.0294 15.9386 98.0882 15.8639C98.147 15.7892 98.2272 15.7343 98.318 15.7063C99.2522 15.4 109.168 16.8319 110.225 16.985C111.281 17.1381 111.511 17.5899 111.274 17.9498C110.784 18.7155 109.137 18.325 108.211 18.2178C108.249 18.1642 99.3288 17.207 98.2644 16.5792Z" fill="#38A1FF"/>
<path d="M114.758 19.1902C113.992 17.6588 116.557 16.3877 117.185 18.0799C117.813 19.7721 115.408 20.4613 114.758 19.1902Z" fill="#38A1FF"/>
<path fill-rule="evenodd" clip-rule="evenodd" d="M67.903 131.93C54.6832 127.939 54.3914 127.851 55.6066 118.279C57.2651 105.194 61.9811 82.0879 66.7299 60.8673C67.011 60.8956 67.2866 60.917 67.5584 60.93C60.5377 92.3123 55.8126 118.731 56.1579 124.015V124.007C56.1618 124.764 56.3794 125.506 56.7858 126.145C57.1921 126.784 57.7707 127.296 58.455 127.621C62.0844 129.619 87.8043 136.809 92.3219 137.874C98.5892 139.372 101.448 139.828 104.051 140.244C105.318 140.446 106.525 140.638 108.034 140.937C110.285 141.396 113.325 141.518 115.079 140.041C121.311 134.78 141.181 37.4368 142.475 30.2775L142.507 30.1014C143.281 25.835 143.756 23.2178 142.769 21.3885C141.203 18.485 135.952 17.5677 122.366 15.1963L122.261 15.1779C112.766 13.5164 92.2377 11.3494 84.5271 11.3035C79.4643 11.3035 79.1565 12.5715 77.2154 20.5777C76.9003 21.8855 76.5787 23.1918 76.2507 24.4965C75.1166 28.9578 74.0076 33.4255 72.9237 37.8993L72.8349 37.8197C72.6304 37.6359 72.4191 37.4522 72.2024 37.2707C74.9145 26.0065 77.1626 17.3701 78.1871 14.351C79.6136 10.2223 82.3671 10.3632 87.8403 10.6435C88.2446 10.6641 88.6642 10.6856 89.0983 10.7063C109.872 11.6634 135.484 15.8058 141.089 18.7078C144.765 20.6068 144.734 22.9728 143.386 30.155C141.518 40.1474 135.653 68.8535 132.452 82.4064L132.022 84.2303C121.038 130.748 118.8 140.228 113.9 141.897C112.647 142.324 111.219 142.24 109.425 142.133L109.382 142.131C109.895 142.644 94.4582 140.347 76.939 134.727C73.4061 133.591 70.4206 132.69 67.9038 131.93H67.903ZM69.547 60.8734C63.7812 86.7648 58.2743 114.767 58.0576 121.855C57.9887 125.064 58.6549 125.944 64.9489 127.981C75.5003 131.396 105.477 139.773 108.885 138.953C110.085 138.853 111.244 138.465 112.262 137.82C114.428 136.143 115.455 133.165 116.588 129.688C119.995 119.29 143.334 24.4965 139.903 21.4337C139.883 21.4057 139.854 21.3862 139.82 21.3789C139.787 21.3716 139.751 21.3772 139.722 21.3944C139.692 21.4117 139.67 21.4394 139.66 21.4722C139.649 21.5049 139.651 21.5404 139.666 21.5715C140.883 25.8901 120.562 116.243 114.85 131.748C112.851 137.108 111.32 138.639 105.96 137.874C101.021 137.154 80.8908 131.962 69.9719 128.731C60.0791 125.799 59.0454 124.933 58.9918 122.851C58.8065 115.19 64.8984 85.5458 70.4635 60.7692C70.1725 60.8052 69.8678 60.8397 69.547 60.8734ZM75.2269 40.1765C74.9923 39.9216 74.7536 39.6704 74.511 39.4231C77.1136 28.6543 79.4467 19.8602 80.975 15.4919C81.5263 13.8992 82.1542 13.1106 85.2017 13.3249C85.6841 13.3249 90.799 13.3939 92.9353 13.838C93.335 13.9222 93.3732 14.6236 93.4215 15.5141C93.5003 16.9766 93.6075 18.9482 95.3932 19.5187C98.8618 20.629 112.943 22.4437 113.977 22.5279L115.247 22.6382C121.104 23.1489 121.783 23.2086 124.543 18.3479C124.875 17.7691 125.488 17.8472 125.886 17.8985C125.957 17.9077 126.02 17.9153 126.075 17.9191C128.563 18.0953 133.87 18.8303 136.182 19.7721C136.611 19.9483 136.741 20.3464 136.419 20.3541C136.226 20.3541 135.908 20.2798 135.352 20.1496C134.017 19.838 131.311 19.2055 125.654 18.5087C125.337 18.4682 125.087 18.9727 124.733 19.6856C123.948 21.2676 122.656 23.874 119.007 23.7997C111.807 23.4486 104.641 22.5734 97.5677 21.181C93.7392 20.3464 92.6366 19.8947 92.6213 15.6297C92.6213 15.3135 92.6535 15.0922 92.6765 14.9344C92.7323 14.5516 92.7323 14.5508 92.07 14.4965C87.9429 14.106 85.3395 14.1213 85.4773 14.1213C85.0845 14.1124 84.6918 14.0953 84.2997 14.07C83.5118 14.0233 82.9957 13.9934 82.5991 14.1955C81.8449 14.5815 81.5217 15.8112 80.5853 19.377C80.0225 21.5419 79.4352 23.7003 78.8234 25.8518C78.1427 28.2347 76.8456 33.3985 75.2269 40.1757V40.1765Z" fill="#191919"/>
<path d="M102.169 75.6988C101.311 75.6988 101.058 75.7984 100.729 76.5564C100.063 78.0878 99.5194 83.9378 99.4581 85.9516C99.3815 88.4707 101.365 87.9883 119.405 90.2548C120.553 90.4003 120.653 89.8643 121.005 88.6162C121.505 86.5781 121.828 84.5003 121.97 82.4064C122.575 77.4829 122.98 77.8811 118.761 77.3068C118.685 77.3068 103.233 75.6759 102.169 75.6988ZM102.352 82.0618C102.372 81.0882 102.778 80.1622 103.48 79.4874C104.182 78.8126 105.123 78.4442 106.097 78.463C106.621 78.4776 107.135 78.6037 107.607 78.833C108.078 79.0623 108.495 79.3894 108.83 79.7926C109.165 80.1958 109.41 80.6658 109.549 81.1711C109.687 81.6765 109.717 82.2057 109.635 82.7234C109.527 83.4155 109.224 84.0626 108.761 84.5886C106.671 87.0772 102.184 85.5457 102.391 82.0618H102.352Z" fill="#191919"/>
<path d="M106.174 85.025C106.887 84.9906 107.562 84.6955 108.072 84.1958C108.581 83.696 108.889 83.0265 108.938 82.3144C109.007 78.8994 104.344 78.3481 103.363 81.0969C103.19 81.5437 103.131 82.0266 103.19 82.502C103.251 82.9773 103.429 83.4301 103.708 83.8198C103.986 84.2094 104.357 84.5239 104.788 84.7348C105.218 84.9448 105.695 85.0445 106.174 85.025ZM105.178 81.4645C104.328 82.1383 105.301 82.5901 104.78 82.8734C104.466 83.0418 103.869 82.2302 104.313 81.3879C104.55 80.9285 104.941 80.6222 105.247 80.9055C105.553 81.1888 105.385 81.3037 105.178 81.4645ZM105.714 80.4155C105.717 80.3651 105.73 80.3158 105.752 80.2703C105.773 80.2249 105.804 80.1843 105.842 80.1508C105.88 80.1173 105.924 80.0917 105.971 80.0753C106.019 80.059 106.07 80.0523 106.12 80.0556C106.221 80.0619 106.316 80.1081 106.384 80.1842C106.451 80.2603 106.486 80.3599 106.48 80.4614C106.472 81.0051 105.622 80.8136 105.714 80.4155Z" fill="#191919"/>
<path fill-rule="evenodd" clip-rule="evenodd" d="M104.604 90.0174C97.4903 89.0756 97.23 88.9531 97.7124 84.1598C98.0002 81.1226 98.4836 78.1071 99.1596 75.1322C99.4559 74.0219 100.627 74.1291 101.784 74.2333C101.913 74.2455 102.042 74.2562 102.169 74.267C109.431 74.8397 113.879 75.4477 116.611 75.8213C120.267 76.3213 120.852 76.4017 121.005 75.4155L121.304 73.5089C122.371 66.7164 122.533 65.6796 121.005 65.2011C119.037 64.5128 116.998 64.0504 114.925 63.8228C114.771 63.7737 114.604 63.7806 114.454 63.8422C114.305 63.9038 114.181 64.0162 114.106 64.1597C113.887 64.5678 113.691 64.891 113.533 65.1498C112.966 66.0839 112.907 66.1812 114.106 66.4568L114.542 66.5472C115.401 66.7233 116.705 66.9897 118.601 67.5441C119.366 67.7815 119.229 68.4783 118.072 68.3098C114.312 67.7754 95.8709 64.3833 87.7468 62.8887C85.3984 62.4576 83.9122 62.1842 83.8915 62.1842C83.0492 62.0081 83.1258 61.3113 83.9911 61.3649C84.5087 61.3649 85.3609 61.4491 86.5822 61.5716H86.5829L87.6664 61.6788C88.0049 61.7118 87.9696 61.6184 87.4957 60.3672L87.2453 59.7033C87.0539 59.1903 86.8624 59.0372 86.0431 58.9376C79.3356 58.0188 78.6465 59.2133 77.9267 62.0004C77.5324 63.4813 77.1664 65.6413 76.6327 68.7937C76.4811 69.6842 76.3172 70.6544 76.135 71.7095C75.3815 76.0732 74.6771 79.6047 74.1059 82.4722C72.174 92.1591 71.7536 94.2647 76.0431 95.2395C79.6802 96.0664 107.115 101.021 112.23 101.71C116.918 102.341 116.936 102.272 118.145 97.6093C118.255 97.1851 118.375 96.7226 118.509 96.2196C118.84 95.018 119.052 93.7871 119.144 92.5442C119.252 91.6614 119.005 91.6361 115.13 91.2433C112.955 91.022 109.64 90.6859 104.604 90.0174ZM119.451 70.4997C119.007 70.1092 117.199 69.8182 117.291 70.4078C117.353 70.7983 118.409 71.0434 118.823 71.0434C119.489 71.0434 119.642 70.6758 119.451 70.4997ZM114.489 69.4048C113.294 69.3129 112.728 70.3619 115.316 70.3466C115.852 70.3389 116.296 69.5809 114.489 69.4048ZM111.511 68.9989C110.079 68.5778 109.796 68.6008 109.627 68.9147C109.459 69.2287 110.905 69.8029 111.434 69.7187C111.962 69.6345 111.686 69.0525 111.511 68.9989ZM107.751 68.2256C107.169 67.8121 105.385 67.5671 105.546 68.3022C105.706 69.0372 108.853 68.9836 107.751 68.2256ZM101.625 67.4063C101.625 67.7776 102.227 67.894 102.893 68.0227L102.912 68.0265L102.954 68.0342C103.236 68.0878 103.302 68.0992 103.359 68.0824C103.379 68.0759 103.397 68.068 103.415 68.0587C103.438 68.047 103.462 68.0363 103.486 68.0265C105.323 67.4829 101.717 66.4415 101.625 67.4063ZM80.2544 68.3251C80.8976 67.9423 81.5332 65.8979 80.4382 65.8825C79.3433 65.8672 79.3126 68.8917 80.2544 68.3251ZM76.9619 89.3742C77.0768 88.7693 80.0247 71.0663 79.818 70.6146C79.5577 69.9637 79.0523 70.247 79.0523 70.4997C78.455 71.878 75.6679 88.8765 75.7981 89.4355C75.8268 89.5734 75.9039 89.6964 76.0154 89.7824C76.127 89.8683 76.2656 89.9115 76.4063 89.9041C76.5469 89.8967 76.6803 89.8392 76.7822 89.742C76.8841 89.6448 76.9479 89.5144 76.9619 89.3742ZM77.7506 92.5672C75.622 91.8781 74.9634 93.3329 77.2605 93.3329C78.2024 93.3405 78.3096 92.751 77.7506 92.5672ZM80.2246 92.9791C79.9635 92.924 79.8532 92.901 79.7108 92.9807C79.6645 93.0108 79.6246 93.0498 79.5934 93.0954C79.5622 93.1409 79.5403 93.1922 79.529 93.2462C79.5176 93.3003 79.517 93.356 79.5271 93.4103C79.5373 93.4646 79.5581 93.5163 79.5883 93.5626C79.8486 93.9301 81.0431 94.0144 81.3647 94.0144C81.4772 94.0207 81.5877 93.9824 81.6722 93.9079C81.7568 93.8334 81.8086 93.7286 81.8165 93.6162C81.8471 93.2563 81.2575 93.1568 80.6832 93.0649C80.4887 93.0343 80.3417 93.0029 80.2246 92.9791ZM82.5286 63.4553C80.2774 62.7585 79.8103 64.221 81.9619 64.221C83.0186 64.2363 83.0492 63.6161 82.5286 63.4553ZM84.5347 93.731C84.49 93.7223 84.4453 93.7134 84.4007 93.7043C84.0202 93.6254 83.5906 93.5366 83.5087 93.9608C83.4252 94.3941 83.756 94.4577 84.0416 94.5121H84.0424L84.1212 94.5274L84.1955 94.5435C84.7568 94.6698 85.661 94.8727 85.8364 94.3819C85.9926 93.9462 85.315 93.8474 84.7927 93.7709C84.7065 93.7591 84.6205 93.7458 84.5347 93.731ZM85.1013 63.8917C85.2085 63.9147 85.3272 63.94 85.4612 63.9606L85.5523 63.9744C86.0493 64.0525 86.5286 64.1276 86.5791 64.489C86.671 65.2776 83.5699 64.7646 84.3739 63.9606C84.5584 63.7761 84.7736 63.822 85.1013 63.8917ZM89.599 94.6813L89.5975 94.6805C88.7958 94.4347 87.475 94.0297 87.475 94.8337C87.475 95.2318 88.9068 95.4998 89.4352 95.4998C90.3693 95.4998 90.3387 94.9102 89.7721 94.7341L89.599 94.6813ZM88.8532 64.5502C90.2928 64.8488 90.3617 64.8948 90.4918 65.0862C90.5439 65.1597 90.5929 65.1835 90.6205 65.1972C90.6335 65.2041 90.6419 65.208 90.6435 65.2141C90.6465 65.224 90.6289 65.2401 90.5799 65.2838C90.5372 65.3219 90.495 65.3607 90.4536 65.4001C90.1473 65.6911 90.0784 65.6911 88.6925 65.4001C87.988 65.2547 88.1794 64.4047 88.8532 64.5502ZM92.8425 95.2318C91.7553 95.0404 91.7935 95.8597 92.4291 95.9975C93.0661 96.1798 93.7162 96.3107 94.3739 96.388C94.5883 96.388 94.9406 96.1583 94.9099 95.9439C94.864 95.6223 93.9681 95.4309 92.8425 95.2318ZM94.3357 65.6291L94.5194 65.6827C95.3387 65.9201 94.7338 66.4867 94.4199 66.4867C94.4658 66.4867 93.7767 66.3718 93.7001 66.3718L93.681 66.3695C92.6082 66.1957 92.2223 66.1329 92.2223 65.7983C92.2652 65.0135 93.4712 65.3718 94.3357 65.6291ZM99.4659 66.6858C98.7697 66.4213 98.045 66.2388 97.3066 66.1421C96.6634 66.0349 96.5026 66.793 97.1152 66.9614C97.7737 67.1636 98.4513 67.2976 99.1366 67.3596C99.8663 67.3596 99.6259 66.9637 99.5118 66.7753C99.4858 66.7325 99.4659 66.7003 99.4659 66.6865V66.6858ZM96.9926 96.6713C96.694 96.4033 97.0845 95.9899 97.8885 96.0511C98.8227 96.12 99.7032 96.6407 99.083 96.9623C98.7336 97.0623 98.367 97.0881 98.007 97.038C97.647 96.9879 97.3015 96.863 96.9926 96.6713ZM101.281 96.8628C100.66 96.8628 100.699 97.5595 101.227 97.705C103.585 98.3559 104.121 96.8781 101.281 96.8628ZM104.91 97.9118C105.017 97.5519 105.331 97.6208 106.633 97.9118C107.192 98.0343 107.199 98.7004 106.495 98.6775C105.936 98.6775 104.803 98.2716 104.91 97.9118ZM110.637 98.5626L110.444 98.522C109.942 98.4148 109.247 98.2663 108.93 98.509C108.792 98.6086 108.693 98.8536 108.823 98.9837C109.363 99.2226 109.948 99.3406 110.538 99.3283C111.219 99.2517 111.158 98.6545 110.637 98.5626ZM112.835 99.068C111.595 99.4968 114.634 100.507 114.788 99.6729C115.017 99.3283 113.356 98.8919 112.835 99.068Z" fill="#191919"/>
<path d="M81.4485 102.774C80.0319 106.909 73.9829 120.148 76.571 113.287C81.0044 101.557 80.8512 101.947 81.4485 102.774Z" fill="#191919"/>
<path d="M92.5133 106.158C92.9804 105.331 93.3709 105.975 93.4245 106.924C93.5317 109.068 93.2943 110.753 92.5822 116.625C92.4826 117.391 92.0309 116.189 92.0845 113.302C92.2223 113.295 92.475 106.22 92.5133 106.158Z" fill="#191919"/>
<path d="M107.842 107.161C115.913 118.777 112.169 115.867 106.954 107.621C106.441 106.809 107.337 106.426 107.842 107.161Z" fill="#191919"/>
<path d="M64.8713 104.397C65.4991 103.632 70.9969 97.506 71.6018 98.3482C71.6296 98.4124 71.6407 98.4826 71.634 98.5523C71.6273 98.6219 71.603 98.6887 71.5635 98.7464C70.6676 99.7571 62.6814 107.161 64.8713 104.397Z" fill="#191919"/>
<path d="M100.017 36.0739C99.1516 36.0203 99.2512 34.7109 98.7918 27.9651C98.3324 21.2193 100.905 36.1198 100.017 36.0739Z" fill="#191919"/>
<path d="M111.97 38.1566C113.764 35.3601 115.733 32.6799 117.866 30.1321C118.026 30.8212 111.686 41.005 111.97 38.1566Z" fill="#191919"/>
<path d="M121.089 48.5777C121.072 48.5068 121.071 48.4331 121.085 48.3617C121.1 48.2902 121.13 48.2229 121.173 48.1642C122.459 47.1612 131.219 44.9023 129.205 45.8671C128.907 46.005 121.364 49.6037 121.089 48.5777Z" fill="#191919"/>
<path d="M88.6079 40.7446C87.0305 38.7002 81.0581 26.1963 89.251 40.178C89.6952 40.9896 88.8835 41.1351 88.6079 40.7446Z" fill="#191919"/>
<path d="M42.2604 66.3343C42.3829 80.1169 27.4288 89.1752 15.2159 82.6514C11.0063 80.4303 7.78416 76.7094 6.18745 72.2256C4.59075 67.7418 4.73587 62.8219 6.59408 58.44C7.82512 55.538 9.75924 52.9881 12.222 51.0203C23.3017 42.031 42.0996 48.9683 42.2604 66.3343ZM23.6386 50.6452C19.5915 50.6549 15.7107 52.2559 12.834 55.1025C9.95729 57.9491 8.31557 61.8129 8.26331 65.8596C8.24727 67.924 8.64651 69.9705 9.4373 71.8775C10.2281 73.7845 11.3943 75.513 12.8665 76.9603C14.3388 78.4075 16.087 79.5439 18.0072 80.3019C19.9275 81.0599 21.9806 81.4241 24.0444 81.3727C28.0029 81.2869 31.7714 79.6591 34.5475 76.8358C37.3235 74.0126 38.8876 70.2171 38.9066 66.2578C38.9546 64.2234 38.5951 62.2 37.8491 60.3067C37.1032 58.4134 35.9859 56.6885 34.5631 55.2336C33.1403 53.7787 31.4408 52.6232 29.5646 51.8352C27.6884 51.0472 25.6735 50.6425 23.6386 50.6452Z" fill="#38A1FF"/>
<path d="M37.9496 66.0051C37.9305 69.7261 36.4751 73.296 33.887 75.9697C31.299 78.6434 27.7783 80.2142 24.0598 80.3543C22.1422 80.4361 20.2278 80.1309 18.4307 79.457C16.6336 78.783 14.9905 77.7541 13.5996 76.4316C12.2088 75.1089 11.0988 73.5195 10.3358 71.7584C9.57279 69.9973 9.1724 68.1005 9.15853 66.1812C9.13304 64.2906 9.48128 62.4136 10.1832 60.658C10.8852 58.9024 11.9271 57.3028 13.249 55.951C14.5709 54.5992 16.1469 53.5218 17.8864 52.7808C19.6258 52.0398 21.4946 51.6497 23.3852 51.6329C27.2209 51.6125 30.908 53.1141 33.6382 55.8083C36.3683 58.5025 37.9185 62.1695 37.9489 66.0051H37.9496ZM27.7199 63.708C24.3431 63.7769 26.5483 63.8458 29.1211 61.6789C33.1793 58.2715 29.0522 56.2041 23.5009 57.4905C21.9695 57.8351 22.6126 57.9193 21.8316 56.1582C21.7258 55.9634 21.5492 55.8167 21.3383 55.7483C21.1275 55.6799 20.8984 55.6951 20.6984 55.7906C20.1241 56.0586 20.2619 56.4185 20.6371 57.7432C20.8133 58.3634 20.8133 58.172 19.6188 58.5701C19.1364 58.7386 19.3508 58.7539 18.6463 56.9545C18.4396 56.4109 17.2374 56.6559 17.3906 57.5671C17.6279 59.0066 18.0491 59.0985 17.5361 59.3665C15.6831 60.293 15.239 60.5533 14.8561 61.1735C14.7842 61.2796 14.7514 61.4075 14.7636 61.5351C14.7757 61.6627 14.8319 61.7821 14.9226 61.8728C15.0132 61.9634 15.1326 62.0196 15.2602 62.0318C15.3878 62.0439 15.5157 62.0112 15.6218 61.9392C18.409 60.6299 18.1792 60.6146 18.3094 61.1352C19.2512 64.7723 19.3814 64.7876 18.876 64.8872C17.2757 65.2011 17.8576 66.8397 18.9909 66.5334C19.7566 66.3343 19.5805 65.9285 20.0552 68.5625C20.6907 72.1537 20.7367 71.9775 20.3385 72.1154C19.5335 72.3343 18.7738 72.6947 18.095 73.1797C18.0063 73.2602 17.9442 73.3659 17.9171 73.4827C17.8899 73.5994 17.899 73.7216 17.9431 73.8331C17.9871 73.9445 18.0641 74.0399 18.1638 74.1065C18.2634 74.173 18.381 74.2077 18.5008 74.2057C19.2106 74.173 19.9156 74.073 20.6065 73.9071C21.0966 73.7922 20.8975 74.0832 21.1884 75.4385C21.4794 76.7938 22.2298 76.4339 22.4212 76.1123C22.6126 75.7907 22.6739 75.561 22.5514 73.708C22.5514 73.2103 22.628 73.3711 23.7229 73.0189C24.2283 72.8581 24.0368 72.927 24.2206 73.9148C24.4044 74.9025 24.435 75.4462 24.9863 75.4462C26.3339 75.4462 25.2543 72.4906 25.8516 72.2073C29.9634 70.2547 31.4871 69.6804 33.1027 67.8811C34.7184 66.0817 33.4779 63.6161 27.7199 63.731V63.708Z" fill="#38A1FF"/>
<path d="M22.4363 71.2119C22.1913 71.2884 22.2525 71.2119 21.9999 69.9102C21.1576 65.5916 21.0351 65.9209 21.7931 65.7907C33.248 63.8535 36.9923 66.319 22.4363 71.2119Z" fill="#38A1FF"/>
<path d="M26.6935 61.4032C24.9019 62.4292 23.0478 63.3422 21.1422 64.1368C20.6981 64.3359 20.8819 64.4048 19.8329 60.3083C19.7869 60.1168 19.8329 60.025 20.0243 59.979C20.6675 59.7953 23.8528 58.953 25.5144 58.6237C25.9738 58.5548 32.0841 58.0188 26.6935 61.4032Z" fill="#38A1FF"/>
<path d="M62.2761 43.149C63.4093 41.7248 65.6298 41.2271 66.9928 42.1613C68.1643 42.927 67.5058 44.3512 67.1153 46.1812C67.0311 46.5487 67.3909 46.7555 62.3833 43.7003C62.031 43.4859 62.0157 43.4706 62.2761 43.149Z" fill="#38A1FF"/>
<path d="M72.1534 38.5701C63.4398 30.7293 45.6372 25.982 44.9864 35.4078C44.3891 44.0525 61.5255 56.1582 72.7354 55.3619C79.9636 54.8489 82.4138 47.7968 72.1534 38.5701ZM53.1411 36.8243C53.4857 36.2653 54.1059 36.6788 55.3387 37.59C55.8976 38.0035 56.1044 36.9928 58.1641 36.8243C62.7583 36.5104 61.1427 41.8626 61.916 41.2424C65.2009 38.6314 70.3387 40.4231 69.1978 44.7799C69.0677 45.3083 69.0523 45.3006 69.5424 45.5456C70.1453 45.832 70.6924 46.2236 71.158 46.7018C71.5868 47.2149 70.9972 47.3221 70.5991 47.2608C69.9576 47.045 69.3373 46.7708 68.7461 46.4415C68.4092 47.2072 68.3709 47.2072 68.6542 47.4216C69.9252 48.3787 70.3081 48.4783 70.0937 48.8994C69.6496 49.757 68.2866 48.0418 67.5592 48.2332C67.496 48.2553 67.4288 48.2637 67.362 48.2579C67.2953 48.2522 67.2305 48.2324 67.172 48.1998C67.1134 48.1673 67.0624 48.1228 67.0222 48.0691C66.9821 48.0155 66.9537 47.954 66.939 47.8887C66.8471 47.4139 66.8778 47.5288 63.0569 45.2929C61.5255 44.3894 61.6097 44.3282 61.3877 44.6651C60.7675 45.6222 59.9329 45.0556 59.8563 44.4813C59.7874 43.6467 60.0477 43.4936 59.573 43.1949C55.1855 40.4767 55.1013 40.4844 55.2851 40.0785C55.3207 40.0216 55.3676 39.9724 55.4228 39.934C55.478 39.8957 55.5404 39.8689 55.6062 39.8553C55.672 39.8417 55.7399 39.8416 55.8058 39.8549C55.8717 39.8683 55.9342 39.8949 55.9895 39.9331C60.8134 42.4828 59.9865 42.904 60.1855 40.7983C60.1855 38.5548 59.2514 37.9499 57.8272 38.2485C54.2743 39.0142 54.1365 41.7784 53.3402 41.5487C52.5439 41.319 53.0339 40.3695 53.455 39.6497C53.7843 39.0831 51.2192 38.5318 51.7935 37.835C52.0462 37.5364 52.3831 37.7278 53.6005 38.2715C54.3662 38.616 54.1135 38.7692 54.6725 38.2715C53.8609 37.8121 52.7582 37.4445 53.1411 36.8243ZM71.7629 52.3604C61.4719 51.8014 49.1288 43.172 47.4673 37.0464C46.8547 34.8182 47.9343 33.5395 48.8532 33.0571C50.844 32.0234 48.723 33.7385 48.6388 33.8228C44.8103 37.2454 56.4872 50.1475 72.5439 51.7861C81.4337 51.6636 73.9835 40.0556 61.916 34.979C59.1695 33.7514 56.227 33.0203 53.2253 32.8197C51.403 32.6666 51.5714 32.1918 53.2789 32.1153C56.9007 31.9621 64.4964 34.7722 70.4383 39.3358C76.9008 44.3435 80.9896 52.8657 71.7629 52.3604Z" fill="#38A1FF"/>
<path d="M69.2668 59.8872C56.7093 59.466 43.9374 48.884 42.4673 41.3802C42.0768 39.3434 42.7046 37.858 43.723 36.0662C44.3968 34.8871 43.5775 39.129 47.5515 43.8228C53.6771 51.005 64.7338 57.1613 73.3097 56.074C75.9513 55.7371 75.7216 55.3083 76.5869 55.3083C76.6069 55.412 76.6069 55.5185 76.5869 55.6222C74.4888 59.1827 73.2944 59.4124 69.2668 59.8872Z" fill="#38A1FF"/>
<path d="M90.7215 55.5534C90.668 53.4299 91.2286 51.3361 92.3359 49.5235C93.4433 47.7108 95.0503 46.2563 96.964 45.3346C98.8778 44.4129 101.017 44.0632 103.125 44.3274C105.232 44.5917 107.219 45.4587 108.846 46.8244C110.236 47.9755 111.321 49.4512 112.006 51.1211C112.691 52.791 112.954 54.6038 112.772 56.3995C112.591 58.1952 111.97 59.9186 110.965 61.4176C109.959 62.9165 108.6 64.145 107.008 64.9945C106.732 65.1323 95.6067 62.9424 93.9911 62.6974C92.4826 62.4906 90.5684 58.1261 90.7215 55.5534ZM105.216 53.0189C103.08 53.0572 103.738 53.1185 105.515 51.9776C108.754 49.8949 107.812 47.3834 102.858 48.0878C100.461 48.44 101.273 48.7846 100.614 47.2302C100.408 46.7478 99.1213 46.5641 99.5424 47.9959C99.7874 48.8382 99.7874 48.8229 98.9375 49.0679C98.233 49.2746 98.5164 47.146 97.4903 47.6973C96.985 47.9729 97.184 48.463 97.4214 49.2287C97.5822 49.7264 97.4214 49.5656 95.622 50.6452C95.2851 50.852 95.0018 51.3344 95.3234 51.5717C95.645 51.8091 95.9513 51.6713 97.4444 50.9056C97.8655 50.6912 97.8119 50.7601 98.3785 53.0419C98.6159 54.0143 98.524 53.7616 97.9191 54.0603C97.7914 54.1168 97.6876 54.2164 97.6257 54.3417C97.5639 54.467 97.548 54.61 97.5809 54.7457C97.6137 54.8815 97.6931 55.0015 97.8053 55.0847C97.9175 55.1679 98.0553 55.2091 98.1948 55.2012C98.6618 55.2012 98.8609 54.9332 98.9605 55.362C99.7644 59.78 99.8487 59.3283 99.2897 59.5503C98.0723 60.0327 97.4214 60.2241 97.6358 60.8137C97.766 61.1889 98.1259 61.1353 99.5577 60.8826C100.461 60.7219 99.619 62.7356 100.699 62.728C101.778 62.7203 100.699 60.4309 101.464 60.362C102.544 60.3084 102.085 59.4661 102.582 61.6637C102.728 62.2992 103.922 62.5902 103.532 59.9179C103.47 59.4967 103.593 59.7035 106.028 58.5166C111.732 55.7295 110.492 52.9194 105.216 53.0189Z" fill="#38A1FF"/>
<path d="M87.5439 55.4079C87.789 39.7493 107.054 35.9897 113.938 47.4139C119.673 56.9316 112.406 66.0511 111.357 65.8826C104.466 64.7953 111.043 66.3267 113.226 58.0878C113.601 56.5574 113.667 54.9673 113.418 53.4112C113.169 51.8551 112.611 50.3647 111.776 49.028C110.942 47.6914 109.848 46.5354 108.56 45.6282C107.271 44.7211 105.814 44.0811 104.274 43.7462C102.63 43.3952 100.929 43.3997 99.2866 43.7595C97.644 44.1193 96.0972 44.8262 94.75 45.8326C93.4028 46.839 92.2862 48.1218 91.4753 49.5949C90.6643 51.0681 90.1776 52.6976 90.0478 54.3742C89.6037 60.071 93.1872 62.4982 92.0999 62.3145C89.1902 61.8244 89.2132 61.901 89.0371 61.5488C86.9773 57.2149 87.8426 55.0709 87.5439 55.4079Z" fill="#38A1FF"/>
<path d="M101.181 58.7464C100.852 58.8536 100.936 58.8612 100.3 55.5534C100.14 54.7418 99.9328 54.6958 100.974 54.535C109.772 53.195 111.732 55.2088 101.181 58.7464Z" fill="#38A1FF"/>
<path d="M104.182 51.2961C103.493 51.6636 102.375 52.1996 100.17 53.2945C99.6724 53.5396 99.8868 53.3711 99.1058 50.5074C99.0369 50.27 99.1058 50.1935 99.3202 50.1322C103.026 49.2057 102.138 49.3665 103.455 49.1674C105.89 48.7922 107.751 49.4201 104.182 51.2961Z" fill="#38A1FF"/>
</svg>
