<svg width="155" height="155" viewBox="0 0 155 155" fill="none" xmlns="http://www.w3.org/2000/svg">
<path d="M16.9569 33.0122C16.9569 34.4481 17.0341 35.6447 17.0341 36.4785C17.0341 36.8491 18.5318 36.8491 18.5318 36.4013C18.5318 35.5752 18.4623 34.3709 18.4623 33.0122C18.4623 32.6416 16.9569 32.6416 16.9569 33.0122Z" fill="#3D9CFB"/>
<path d="M5.44618 32.5565C6.41891 32.6337 7.47656 32.7032 8.82758 32.7032C8.74595 33.8817 8.77179 35.0652 8.90478 36.239C8.90478 36.6173 10.4102 36.5401 10.4102 36.1695C10.1554 32.4021 10.7422 33.2822 9.58414 31.1978C8.14049 31.1978 7.4534 31.1978 5.59287 31.0511C5.2223 31.0125 5.0679 32.487 5.44618 32.5565Z" fill="#3D9CFB"/>
<path d="M6.04824 25.8712C7.36682 26.0649 8.69854 26.1653 10.0318 26.1722C11.406 25.0683 10.4101 26.0564 11.46 21.131C11.5372 20.7528 10.0318 20.4517 9.91599 20.83C9.69211 21.9571 9.32155 24.3657 9.32155 24.5896C8.11721 24.5124 7.00552 24.4352 6.15632 24.2885C5.90155 24.2885 5.66995 25.794 6.04824 25.8712Z" fill="#3D9CFB"/>
<path d="M18.6862 32.4868C19.8134 32.4868 21.8437 32.3401 24.4068 32.1085C24.6307 33.9922 24.7774 35.6443 24.9318 36.5475C25.0012 36.9258 26.4758 36.7019 26.4372 36.3236C26.2828 35.4204 26.1361 33.8455 25.9045 31.9618C28.9153 31.6607 32.3816 31.2824 35.5391 30.9041C35.8402 33.4672 36.3112 35.7909 36.4424 36.4008C36.5273 36.7714 37.9864 36.478 37.8706 36.0225C37.4614 34.2651 37.1852 32.4793 37.0446 30.6803C41.1053 30.1553 44.5639 29.5531 45.7682 29.0282C46.1465 29.0282 45.5444 27.6694 45.1661 27.8238C44.1161 28.2716 40.8042 28.8043 36.8902 29.3678C36.813 28.4646 36.7435 27.5613 36.7435 26.7353C36.7435 26.2798 35.1995 26.2798 35.1995 26.7353C35.1995 27.6385 35.2767 28.6113 35.3461 29.5917C32.1886 29.97 28.73 30.3637 25.7192 30.6417C25.5648 29.144 25.4181 27.4069 25.2714 25.7548C27.3953 25.687 29.5088 25.4286 31.5865 24.9828C31.9648 24.9056 31.5865 23.4388 31.2082 23.5469C29.1981 23.9283 27.1618 24.1554 25.117 24.2263C24.7388 19.5942 24.345 15.4254 24.345 15.3482C24.345 14.9004 22.8473 15.8732 22.9091 16.4058C23.0944 17.9035 23.2874 20.9144 23.5885 24.3035C18.4006 24.5119 19.0799 24.5274 18.4006 24.5274V20.8449C18.4006 20.3894 16.8566 20.3894 16.8566 20.8449V24.9056C16.8566 25.2067 18.7325 26.0328 18.7325 26.0328C20.0141 25.9556 21.8206 25.9556 23.7043 25.8089C23.851 27.461 24.0054 29.1903 24.152 30.6957C21.7434 30.9196 19.713 30.9968 18.5859 30.9968C18.2539 31.0122 18.2539 32.4868 18.6862 32.4868Z" fill="#3D9CFB"/>
<path d="M8.60427 57.6161C8.22598 57.6161 8.0793 59.1216 8.52706 59.1216C9.20643 59.1216 10.0325 59.1988 11.0129 59.1988C10.9961 59.9999 11.0219 60.8013 11.0901 61.5997C11.1596 61.978 12.6341 61.8313 12.6341 61.453C12.5658 60.7037 12.54 59.951 12.5569 59.1988H15.1663C15.0891 60.0248 15.0891 60.7428 15.0119 61.453C14.9424 61.8313 16.4479 61.978 16.5559 61.5997C16.6331 60.9281 16.7103 60.102 16.7875 59.1988C17.9147 59.1988 18.8874 59.1988 19.7212 59.2682C20.2307 59.2682 20.2153 57.7242 19.7907 57.7242C18.8874 57.6547 17.8375 57.6547 16.7875 57.6547C16.7875 56.8287 16.857 55.9254 16.857 55.0222C17.9147 55.0222 18.8874 55.0222 19.7212 54.945C20.1689 54.945 20.0917 53.4396 19.644 53.4396C18.872 53.5168 17.8375 53.5168 16.7875 53.5168V51.2008C16.7875 50.7453 15.2435 50.8225 15.2435 51.2702V53.5863H12.8503V51.1776C12.8503 50.7221 11.3063 50.8765 11.3063 51.2471C11.3835 51.999 11.3835 52.7571 11.3063 53.5091C10.2486 53.5091 9.35311 53.5091 8.51934 53.5863C8.07158 53.5863 8.14878 55.084 8.51934 55.084C9.40715 55.084 10.2255 55.0145 11.2291 55.0145C11.2291 55.5394 11.0824 57.3305 11.0824 57.647C10.2564 57.6787 9.42954 57.6686 8.60427 57.6161ZM12.665 56.7901C12.7422 56.1879 12.7422 55.5858 12.8194 54.9836H15.2976C15.2281 55.964 15.2281 56.8673 15.2281 57.6933C11.8776 57.6933 12.665 57.979 12.665 56.7901Z" fill="#3D9CFB"/>
<path d="M85.4188 87.9327C88.198 92.9739 96.6283 92.3717 99.7858 90.3414C101.592 89.2142 103.098 87.8632 104.68 87.8632C106.263 87.8632 108.818 91.0979 114.083 88.9132C117.388 87.4849 117.99 84.0264 121.078 83.1231C123.788 82.3511 129.655 83.7948 131.608 76.3526C132.812 71.8364 137.329 72.1374 137.475 68.0767C137.552 64.2166 133.716 60.1018 131.16 57.3921C127.702 53.7791 130.782 50.0194 131.685 48.0585C132.588 46.0976 131.909 44.6771 129.277 42.7162C130.705 40.0837 131.84 34.8186 127.099 34.448C127.099 29.044 123.332 29.7774 118.445 30.1557C117.241 23.9796 110.995 23.9101 106.634 27.1449C106.332 27.3687 96.0262 22.7058 95.7251 28.272C95.6479 29.9318 94.3741 30.3101 92.9381 29.4068C86.322 25.2689 82.13 28.9514 81.6591 34.7414C81.6591 34.7414 72.1789 37.6056 74.5875 42.1913C72.6266 43.0945 70.6734 46.4836 72.0245 50.6216C69.7702 52.7987 68.4115 55.2536 72.1016 60.5496C75.1125 64.842 69.5463 69.2038 74.0548 71.7592C73.8309 77.2481 77.3667 77.5492 79.9221 77.7808C78.4244 84.3969 81.7286 87.1839 85.4188 87.9327ZM75.7146 68.069C74.3559 63.2516 73.6843 50.8378 74.0548 48.3519C75.363 48.5788 76.7087 48.3031 77.8222 47.5799C80.0765 46.2212 80.3776 43.2875 80.6787 42.1758C88.9546 46.8079 90.2361 42.3997 90.46 41.6509C97.8095 44.9937 100.126 46.2289 102.272 37.6673C103.7 38.339 109.343 39.6977 111.821 38.1923C114.354 40.5022 117.584 41.9037 121.001 42.1758C124.915 49.8959 125.44 60.2331 124.313 63.9928C123.108 67.9068 121.001 68.3623 118.746 68.2851C118.893 66.2547 117.465 64.07 116.037 63.7689C114.909 65.4287 113.103 66.0849 110.092 65.7221C107.537 65.4287 105.73 63.4678 101.747 65.7993C97.6396 68.1153 96.9294 63.7457 90.5295 67.9068C87.673 69.7133 85.3416 68.509 84.1372 67.0808C82.5932 67.6058 81.2808 69.1884 82.2613 72.647C81.4275 72.8863 76.8418 71.983 75.7146 68.069Z" fill="#3D9CFB"/>
<path d="M51.4888 70.6318C49.4585 70.5546 44.7183 70.6318 41.1825 70.6318C41.1825 69.6513 41.7075 67.7753 40.2793 67.6209C37.5695 67.2427 35.9175 67.6981 36.6663 70.5546C31.0229 70.5546 25.2329 70.4079 18.0841 70.6318C16.7331 70.6318 15.8993 72.2839 17.8602 72.2839H36.6663C36.0641 75.2947 37.7162 75.673 40.3565 75.2175C41.9005 74.9164 41.1285 73.1871 41.1285 72.1295C44.3632 71.9751 49.6206 72.0137 51.3576 71.9751C52.4616 71.9287 53.2181 70.709 51.4888 70.6318Z" fill="#001434"/>
<path d="M34.4662 63.0359C39.0982 63.0359 38.3802 60.6272 38.1563 53.9262C38.0019 48.8927 35.7477 49.7188 28.2978 49.796C23.1871 49.796 23.8588 52.6524 24.0132 59.4229C24.1753 63.7075 26.8078 63.0359 34.4662 63.0359ZM26.4373 51.8572C27.4872 51.1779 32.8295 51.2551 34.7827 51.4017C36.9675 51.5561 36.5197 53.131 36.6664 58.9288C36.7436 62.1635 34.3504 61.1059 28.0894 61.2448C25.4568 61.322 25.7734 60.0405 25.6807 55.6787C25.6807 54.6056 25.3796 52.4285 26.4373 51.8572Z" fill="#001434"/>
<path d="M28.0894 44.4532C43.8152 43.6194 55.7735 46.252 59.1627 41.589C61.4169 37.0033 58.7072 31.2827 53.2182 28.8741C46.8955 26.0949 46.6716 28.8741 39.3761 26.8437C40.6499 24.7361 38.3957 24.2112 37.8707 26.4731C36.7938 26.1643 35.7392 25.7861 34.7132 25.3383C36.3653 23.9873 34.1805 23.1612 33.2773 24.5663C32.5681 24.1157 31.9349 23.5555 31.4013 22.9065C33.5089 22.1345 32.1733 20.3511 30.498 21.7099C30.0142 20.885 29.5861 20.0288 29.2165 19.1468C31.9263 18.9229 31.023 16.6686 28.7687 17.7186C28.3905 14.9394 26.8078 12.2296 23.7275 12.7546C15.8994 14.6383 7.85507 14.1056 6.34965 20.05C4.84424 25.7706 4.54315 32.0162 4.38875 36.2622C4.24207 40.323 4.54315 42.8088 6.41913 43.5577C7.92455 44.2216 17.6287 44.4532 28.0894 44.4532ZM46.6716 29.2524C49.6824 27.9708 56.7077 31.8849 57.7344 34.8957C53.4421 34.8185 48.2542 34.9729 43.738 35.1968C43.8924 33.3286 44.7184 30.0784 46.6716 29.2524ZM8.84324 18.1972C10.2251 17.101 15.4671 15.6342 23.218 14.3372C21.8593 20.8066 13.1356 21.3316 8.01719 19.6718C8.17684 19.1271 8.45348 18.6239 8.82779 18.1972H8.84324ZM7.6389 21.2003C14.2627 23.3079 23.5886 21.733 24.8701 14.3603C26.8233 14.6614 26.9005 16.7613 27.356 18.3439C26.8233 18.5678 26.3755 18.7994 25.92 19.0233C23.2875 17.1396 21.5659 22.6208 25.0168 22.258C25.2463 22.2476 25.4711 22.1891 25.6765 22.0862C25.8819 21.9832 26.0633 21.8382 26.2089 21.6605C26.3546 21.4828 26.4612 21.2765 26.5218 21.0549C26.5824 20.8333 26.5957 20.6014 26.5608 20.3743C26.9479 20.146 27.3503 19.9448 27.7651 19.7721C28.1481 20.7926 28.6263 21.7748 29.1933 22.7057C28.8544 22.9636 28.5294 23.2392 28.2206 23.5318C25.5109 22.3352 24.4532 27.222 27.5413 26.9209C27.7945 26.8977 28.0397 26.8199 28.26 26.6928C28.4802 26.5656 28.6703 26.3923 28.8171 26.1846C28.9638 25.9769 29.0638 25.7398 29.1101 25.4898C29.1564 25.2397 29.1479 24.9826 29.0853 24.7361C29.3863 24.435 29.7646 24.2112 30.0657 23.9101C30.6833 24.6775 31.4214 25.3391 32.2505 25.871C31.9494 26.3187 31.7255 26.7742 31.4785 27.1448C29.0698 27.2992 29.2242 31.0589 31.6329 30.6806C31.9593 30.6525 32.2717 30.535 32.5358 30.3411C32.7998 30.1471 33.0053 29.8842 33.1298 29.5811C33.2542 29.278 33.2927 28.9465 33.2411 28.6229C33.1895 28.2994 33.0498 27.9963 32.8372 27.747C33.0657 27.3278 33.3236 26.9255 33.6092 26.5426C34.8386 27.0589 36.0935 27.5124 37.3689 27.9014C37.2994 28.2024 37.145 28.573 37.0678 28.8741C34.8908 29.4762 35.4157 32.7341 37.6005 32.4099C39.4765 32.186 39.5537 30.0939 38.5037 29.1752C38.5655 28.8625 38.6659 28.5591 38.8048 28.2719C47.7756 30.5185 43.2362 26.2956 42.109 35.274C33.2309 36.1773 14.4248 35.7218 5.82469 35.4979C5.90189 33.3286 6.53493 25.3383 7.62346 21.2003H7.6389ZM5.83241 37.0033C9.97037 37.0805 27.356 37.5283 34.9525 37.2272C40.9665 36.8489 50.5239 36.1773 58.1977 36.4012C58.9697 39.2576 58.0355 41.9133 55.4879 42.4151C53.4498 42.8243 10.202 43.4727 6.85146 42.1912C5.90189 41.8901 5.74749 39.5587 5.81697 37.0033H5.83241Z" fill="#001434"/>
<path d="M17.4817 49.8647C9.88513 50.0886 6.9515 49.0927 7.02098 53.4777C7.46102 63.6682 6.48829 63.3671 15.8296 63.1046C19.3654 62.9579 21.2336 63.3362 21.1719 58.9667C21.0175 53.0994 22.3685 49.718 17.4817 49.8647ZM11.2361 61.5297C7.47646 61.6764 8.758 56.6352 8.52639 53.331C8.45691 51.2929 9.66124 51.2929 10.7112 51.2929C19.2033 51.2929 19.597 50.5209 19.6665 53.856C19.8595 63.1818 20.8631 61.2286 11.2361 61.5297Z" fill="#001434"/>
<path d="M14.2472 23.0071C5.89413 23.0843 5.97133 35.0427 14.3244 35.1199C21.7666 35.1971 22.2993 22.9299 14.2472 23.0071ZM17.6286 31.9624C15.3126 35.3824 8.75827 32.9506 9.50712 28.6505C10.8504 20.9227 22.2607 25.1147 17.6286 31.9624Z" fill="#001434"/>
<path d="M91.2084 62.1321C94.2192 59.7235 93.7714 53.4007 90.9073 50.9921C87.8193 48.3595 79.1728 48.8922 77.0652 52.5361C71.8233 61.2907 83.056 68.563 91.2084 62.1321ZM83.8743 51.2237C91.8491 49.8649 95.0067 60.6267 87.2634 62.1321C85.233 58.5191 82.8939 54.1573 81.6201 51.6714C82.2608 51.5248 83.0097 51.3704 83.8743 51.2237Z" fill="#001434"/>
<path d="M65.3461 124.426C61.3548 124.271 56.2441 125.97 55.8658 129.011C55.1865 134.801 64.8211 135.959 68.8047 133.906C73.8382 131.374 70.7501 124.65 65.3461 124.426ZM68.1253 132.547C65.1917 134.13 57.0701 133.605 57.3172 129.235C57.3944 127.282 61.9492 126.001 65.1453 125.931C67.9632 125.854 72.4022 130.293 68.1099 132.547H68.1253Z" fill="#001434"/>
<path d="M92.7139 112.915C92.2352 108.777 89.6799 108.569 87.1477 110.954C83.2876 110.097 81.4812 111.464 83.4575 115.092C80.2768 118.859 82.3072 121.168 87.0705 120.056C89.8343 124.619 94.3274 124.24 93.0149 118.327C96.3037 117.647 96.9059 113.926 92.7139 112.915ZM94.2579 115.694C94.1807 116.219 93.9568 116.52 93.0535 116.675C90.3438 117.2 92.7525 121.26 91.3242 121.561C89.3711 121.94 89.5177 117.879 85.9202 118.628C80.9176 119.631 85.0941 116.157 85.0169 115.092C85.0169 114.32 83.6659 112.915 84.2449 112.382C84.8471 111.711 87.1014 112.838 87.9274 112.313C88.5296 111.857 89.8111 110.653 90.4905 110.954C91.1698 111.255 91.1004 113.27 91.5404 113.888C92.0499 114.637 94.3737 114.644 94.2193 115.694H94.2579Z" fill="#001434"/>
<path d="M56.3758 53.8567C56.1519 49.0394 54.0598 49.6416 45.2434 49.8655C41.7076 49.9427 42.2326 54.8295 42.2326 57.1686C42.2326 63.5686 43.6994 63.2443 51.0335 63.1054C56.0824 62.8738 56.7309 63.6304 56.3758 53.8567ZM46.0463 51.2937C49.3119 51.2937 49.034 51.2242 49.9604 51.2242C50.2846 53.6329 45.9923 53.7023 46.0463 51.2937ZM47.3278 61.5305C44.7648 61.9011 43.3366 60.7585 43.7148 58.2186C44.17 57.8058 44.7626 57.5775 45.3771 57.5781C45.9915 57.5788 46.5837 57.8084 47.038 58.2222C47.4922 58.6359 47.776 59.2041 47.8339 59.8158C47.8918 60.4275 47.7196 61.0389 47.351 61.5305H47.3278ZM54.6233 60.4034C50.7633 60.8511 51.1647 54.8295 54.8472 56.111C54.99 57.5438 54.9221 58.9906 54.6465 60.4034H54.6233ZM54.9244 54.5284C50.5626 53.4013 48.7483 59.8012 52.6084 61.5305H49.0726C50.5008 58.2958 46.965 55.0611 43.8075 56.4893C43.9542 55.6632 43.352 52.0502 44.6335 51.5253C44.7802 55.7327 51.929 55.4316 51.5816 51.2242C54.5384 51.0852 55.1714 51.7492 54.9476 54.5284H54.9244Z" fill="#001434"/>
<path d="M105.429 133.751C106.031 134.523 110.123 131.543 112.423 130.215C112.809 129.999 113.026 129.397 112.655 129.165C111.736 128.579 109.999 129.814 108.587 130.709C107.174 131.605 104.827 133.002 105.429 133.751Z" fill="#001434"/>
<path d="M82.9322 74.2451C85.2482 74.0135 81.8051 70.331 83.9127 68.5245C88.9539 73.0407 92.8679 65.0659 98.7352 67.4746C99.2046 67.635 99.7033 67.6912 100.197 67.6392C100.69 67.5872 101.166 67.4283 101.592 67.1735C107.32 63.8539 111.975 69.3505 116.036 64.9115C116.621 65.3003 117.086 65.8442 117.379 66.4823C117.672 67.1204 117.782 67.8275 117.696 68.5245C117.667 68.7253 117.702 68.9302 117.798 69.1093C117.893 69.2884 118.043 69.4324 118.226 69.5204C118.347 69.5783 118.48 69.6099 118.614 69.613C130.426 69.6902 125.732 51.5712 122.528 42.4538C122.427 42.0367 122.185 41.6671 121.844 41.4071C121.502 41.1471 121.082 41.0124 120.652 41.0256C118.089 40.8017 114.631 39.5974 112.824 37.7214C112.712 37.5452 112.565 37.3943 112.391 37.2784C112.217 37.1626 112.021 37.0844 111.816 37.0487C111.61 37.0131 111.399 37.0209 111.196 37.0716C110.994 37.1223 110.804 37.2148 110.64 37.3431C106.378 39.968 101.615 33.8845 100.712 38.0225C100.109 40.655 98.9822 42.6545 98.0018 42.9865C97.4768 43.1332 95.8247 43.1332 91.3085 40.5778C86.9466 38.9952 91.8335 46.669 81.6816 41.6278C77.9142 39.6746 79.4968 48.1744 74.7335 47.3483C74.494 47.2542 74.2347 47.2213 73.9793 47.2528C73.7239 47.2844 73.4804 47.3792 73.271 47.5288C73.0615 47.6784 72.8928 47.878 72.7802 48.1094C72.6675 48.3408 72.6145 48.5966 72.6259 48.8538C72.7031 54.3041 70.4488 75.3722 82.9322 74.2451ZM81.504 72.2147C72.4792 71.157 74.8107 53.177 74.5559 49.1162C77.3352 49.9423 80.4927 46.2521 81.0253 43.249C82.6774 44.1522 89.8262 47.2325 90.799 42.3457C97.9477 46.7076 101.182 44.9783 102.611 38.4317C104.047 39.111 108.107 40.8403 111.489 38.9566C113.751 41.3653 117.734 42.6468 120.668 42.8707C123.154 50.3206 127.817 66.8724 119.541 67.6984C119.394 65.3824 116.985 61.8312 114.909 63.2594C113.928 64.6104 113.179 64.9887 109.713 64.6104C106.247 64.2321 105.73 63.1822 100.611 65.5137C97.9786 66.718 95.6472 62.9583 95.7244 61.8312C95.9482 58.0638 99.1058 58.8204 99.3374 57.0139C99.4068 56.4889 98.658 56.2419 98.133 56.4117C94.1418 57.4616 92.4125 61.9779 95.1222 65.2898C93.169 65.5137 91.432 66.4169 89.1005 67.7757C85.7964 69.6516 84.0593 63.4061 81.6584 68.6017C81.2292 69.76 81.1751 71.024 81.504 72.2147Z" fill="#001434"/>
<path d="M151.039 114.189C150.661 112.46 146.747 117.424 142.91 120.589C143.512 108.924 128.767 103.883 119.364 104.786C120.267 103.736 131.098 100.27 130.172 98.5404C130.061 98.3139 129.865 98.1401 129.627 98.0563C129.388 97.9726 129.127 97.9856 128.898 98.0926C114.145 104.863 105.645 109.673 102.488 115.393C101.361 107.349 102.11 100.424 99.8553 94.2558C105.198 90.4961 106.085 96.6799 114.222 93.3525C117.951 91.8085 119.04 88.5352 122.576 87.4081C127.393 86.5048 132.959 87.6319 135.514 79.0549C136.194 76.4996 137.398 75.4497 138.749 74.0137C142.553 74.669 145.968 76.7405 148.307 79.8115C149.488 81.1857 150.484 79.7343 149.279 78.0822C146.867 75.2214 143.597 73.2152 139.953 72.3616C141.984 69.0497 140.332 64.8423 137.468 62.3255C140.556 59.0136 139.784 46.0748 135.592 45.627C136.147 42.1684 133.368 41.8982 133.708 40.8869C135.669 37.4206 135.815 31.4067 130.249 31.6228C130.628 25.5317 124.004 21.5867 119.943 25.5317C118.515 19.2089 109.559 16.422 105.645 21.8415C101.886 17.2094 92.5213 18.684 91.8805 24.6979C85.2567 19.1317 76.8341 21.6099 76.9113 29.9707C70.5114 28.9131 66.2267 34.6028 68.7049 40.3465C65.6168 42.9096 65.5474 45.241 68.0332 50.205C61.4866 56.8983 71.4146 60.2874 68.5582 64.3482C66.3039 67.5829 65.4007 72.7708 69.7625 74.1295C69.608 74.9509 69.608 75.794 69.7625 76.6154C63.1387 80.2979 58.0589 83.687 58.3291 85.8795C58.3908 86.4122 59.3095 86.1883 59.6801 85.8023C62.837 82.7507 66.4724 80.2367 70.4419 78.3601C71.1624 79.7266 72.3689 80.7733 73.8233 81.2938C75.3673 81.8187 72.094 85.7328 76.6102 89.5697C68.0332 89.1914 56.9704 88.844 51.327 88.7359C41.0207 88.5506 36.9599 91.3762 37.786 100.023C33.1539 98.8955 24.5615 99.3433 18.3777 103.033C12.1939 106.724 8.97466 116.05 15.2202 120.712C12.2866 129.814 18.8255 131.698 27.9352 131.397C29.0623 138.168 35.9332 132.848 37.9713 137.118C38.8436 138.978 39.9244 140.653 45.3439 140.653C52.2379 139.881 46.4093 142.568 98.7591 141.703C106.356 141.557 118.391 133.883 123.209 130.895C129.825 130.965 138.031 127.962 142.239 123.893C146.052 120.133 151.395 116.073 151.039 114.189ZM134.997 47.2251C138.61 48.0511 137.854 59.4923 136.201 60.9205C128.829 54.6827 128.605 52.8762 134.997 47.2251ZM74.657 79.5027C69.693 77.3951 73.3832 73.5582 70.7507 72.3539C70.3549 72.2281 69.9929 72.0141 69.692 71.7279C69.391 71.4416 69.1591 71.0908 69.0137 70.7018C68.4887 69.042 69.3919 66.7105 70.2952 65.2051C73.9082 60.2411 63.3471 56.4814 69.9941 50.9153C71.5381 49.5565 65.8562 45.048 69.7702 41.8828C71.0518 42.9404 72.5495 42.5622 71.5767 41.2111C67.9637 36.2394 71.1984 30.4494 77.3668 31.8004C77.5907 32.5724 78.4244 34.0624 79.3972 33.7613C79.9221 33.6069 79.6982 33.0819 79.5516 32.5569C76.2783 24.0108 85.5423 20.3283 91.5099 26.6897C92.1893 27.4617 93.6947 27.7396 93.9186 25.4854C94.3741 19.7648 101.893 19.6876 104.603 23.2234C104.732 23.4719 104.925 23.6808 105.163 23.8276C105.401 23.9745 105.675 24.0539 105.954 24.0571C106.2 24.0329 106.434 23.9426 106.633 23.7958C106.831 23.649 106.986 23.4512 107.081 23.2234C109.822 18.9542 117.318 20.3669 118.522 26.7669C118.592 27.1375 118.746 27.9635 119.495 28.1179C121.811 27.9635 121.68 24.806 125.216 26.0103C126.264 26.4102 127.154 27.14 127.751 28.0896C128.349 29.0393 128.621 30.1574 128.528 31.2754C128.528 35.0274 131.786 32.3099 132.743 34.4406C133.515 35.6372 133.268 38.1231 132.21 39.9296C130.666 42.2456 134.287 42.9482 133.87 45.1947C133.453 47.4412 130.334 48.3522 129.354 50.4598C124.235 57.2303 139.135 62.5726 139.135 68.8953C138.68 73.4038 135.043 73.6586 133.793 78.5222C131.87 86.0184 126.798 84.6134 122.128 85.5938C118.144 86.721 117.241 90.1101 113.558 91.6155C106.255 94.7035 104.68 88.2264 98.8054 92.6654C94.3741 87.2614 81.5819 93.2676 76.8418 86.6515C74.6107 84.0267 78.4707 81.4636 74.657 79.5104V79.5027ZM13.9464 112.907C14.6258 102.37 31.5482 99.6598 38.0948 101.922C38.3959 106.886 38.998 113.733 39.6388 119.902C37.2226 120.916 34.6563 121.526 32.0422 121.708C30.9151 118.095 32.49 113.216 32.5672 113.216C32.6183 112.985 32.582 112.743 32.4653 112.537C32.3486 112.332 32.1597 112.176 31.9352 112.101C31.7107 112.027 31.4664 112.038 31.2495 112.132C31.0326 112.227 30.8585 112.399 30.7607 112.614C30.6835 112.838 29.0314 117.725 30.1585 121.878C27.1823 122.077 24.1929 121.851 21.2805 121.207C19.775 117.972 22.4076 113.077 22.4848 113.077C22.596 112.859 22.6177 112.606 22.5454 112.372C22.473 112.138 22.3123 111.941 22.0973 111.823C21.8823 111.706 21.63 111.677 21.3939 111.742C21.1578 111.808 20.9565 111.963 20.8327 112.174C20.6783 112.398 18.3468 116.69 19.1034 120.527C15.7529 119.307 13.4214 116.52 13.9464 112.915V112.907ZM29.8343 125.97C28.105 125.599 28.2903 128.378 28.0278 129.436C19.5357 129.282 15.2434 129.058 17.0499 121.608C22.9866 124.843 34.2733 124.163 39.8395 121.832C40.3722 125.692 40.7428 128.301 29.9115 129.282C29.8343 128.332 31.2471 126.603 29.8343 125.97ZM39.8704 136.276C38.1411 130.872 31.1467 135.674 30.0196 131.165C35.5086 130.934 39.0443 129.359 40.4031 127.854C40.4726 132.069 41.9008 137.033 44.5333 138.608C40.8045 138.492 40.2796 137.365 39.8241 136.307L39.8704 136.276ZM101.561 138.306C99.5079 141.781 89.8424 139.21 54.6929 139.21C48.7485 139.21 43.3367 138.438 42.5801 130.185C41.7541 120.921 39.5693 101.219 40.0248 96.3325C40.7582 88.6819 47.2894 89.4847 83.0565 91.7004C91.2706 92.1945 99.4539 90.1564 99.4539 99.8219C101.924 133.304 103.059 135.774 101.515 138.322L101.561 138.306ZM103.144 139.441C104.65 137.782 103.746 133.041 103.669 126.804C105.777 128.456 108.71 128.155 110.895 126.726C112.169 128.602 114.801 130.409 120.074 130.787C117.704 132.246 106.989 138.692 103.098 139.472L103.144 139.441ZM140.911 122.588C138.958 124.487 136.624 125.947 134.063 126.873C136.487 121.824 133.492 120.465 133.384 122.287C132.859 129.66 126.991 128.533 121.201 128.903C120.823 126.047 122.745 123.113 122.745 123.113C123.417 122.063 122.367 121.569 121.464 122.341C120.663 123.186 120.059 124.197 119.695 125.302C119.33 126.407 119.215 127.579 119.356 128.734C115.898 128.355 113.566 127.305 112.408 125.422C115.983 120.79 113.744 120.365 112.933 121.562C105.429 134.331 95.0071 117.246 113.906 107.797C121.302 104.107 144.022 108.546 140.864 122.619L140.911 122.588Z" fill="#001434"/>
<path d="M63.6711 102.809C64.0494 98.9493 60.5368 97.4053 55.8507 100.547C55.2785 101.012 54.557 101.254 53.8203 101.227C52.4616 100.926 51.3344 97.3126 49.304 98.6714C45.444 100.779 45.1661 101.829 45.0889 102.13C44.7183 103.674 46.0693 112.058 49.2269 112.938C51.6355 113.394 53.4111 111.88 56.8311 109.479C60.7915 106.747 63.4472 104.708 63.6711 102.809ZM49.6823 111.456C47.7292 110.861 46.2237 103.558 46.5248 102.431C46.5943 102.13 47.652 101.227 49.9834 99.9529C50.2845 99.7213 50.7554 100.177 50.7554 100.323C53.7662 106.268 57.9042 99.0496 61.2933 100.702C64.0725 103.489 59.0313 105.589 55.951 108.221C53.6659 109.904 50.9639 111.857 49.6823 111.479V111.456Z" fill="#001434"/>
<path d="M80.9797 48.7689C82.9329 47.9969 86.7698 47.7885 87.4492 47.719C88.1285 47.6495 88.8002 45.9125 87.5958 45.8353C85.0939 45.7389 82.6019 46.2004 80.3004 47.1863C79.3199 47.6109 80.2232 49.0391 80.9797 48.7689Z" fill="#001434"/>
<path d="M114.153 68.5242C112.725 67.5438 112.756 71.1722 109.868 69.6514C108.378 68.8794 108.062 71.8361 105.885 71.6123C105.171 71.6411 104.463 71.4734 103.839 71.1277C103.214 70.7819 102.696 70.2712 102.341 69.6514C102.233 69.485 102.076 69.3568 101.891 69.2853C101.706 69.2137 101.503 69.2024 101.312 69.2529C101.12 69.3034 100.949 69.4131 100.823 69.5665C100.698 69.7198 100.624 69.9089 100.612 70.1068C100.511 74.2294 95.9798 74.1985 93.6638 72.6622C93.5256 72.5486 93.3524 72.4866 93.1736 72.4866C92.9947 72.4866 92.8215 72.5486 92.6833 72.6622C89.5953 74.3143 89.3019 70.2535 88.0513 71.8361C87.2252 72.8089 90.5294 75.8969 93.1697 74.5459C96.1728 76.0899 100.612 76.0899 102.117 72.2299C104.225 74.0286 108.062 73.9592 109.791 71.6972C112.802 73.0405 115.357 69.3503 114.153 68.5242Z" fill="#001434"/>
<path d="M16.3543 87.5621C19.1335 88.0871 20.7933 87.261 20.0368 84.173C41.0354 83.9723 42.9654 84.4587 42.1548 83.0459C41.6067 82.0732 38.1558 82.9841 20.0368 82.5904C20.2684 79.5024 18.9097 79.209 16.1767 79.6568C14.6713 79.8884 15.2735 81.6177 15.3507 82.5904C7.15198 82.5904 6.17153 82.3665 5.72377 83.3624C5.34548 84.5667 8.27911 84.2657 15.4279 84.1885C15.4511 85.4545 14.625 87.261 16.3543 87.5621Z" fill="#001434"/>
<path d="M106.633 59.7234C111.597 62.356 117.387 61.005 120.174 57.7625C122.359 55.2844 122.282 50.3204 119.402 47.5334C116.314 44.5226 107.59 45.6575 104.958 49.0775C103.02 51.5247 103.398 58.0328 106.633 59.7234ZM118.144 48.9617C120.46 51.0692 120.251 56.6817 117.24 58.0636C114.608 54.9061 111.064 50.992 108.887 48.5139C112.091 47.1783 116.739 47.7496 118.144 48.9617Z" fill="#001434"/>
<path d="M107.313 44.299C108.798 43.6875 110.394 43.3916 111.999 43.4302C113.605 43.4687 115.185 43.8408 116.638 44.5229C117.094 44.7545 118.368 43.3186 116.561 42.6469C114.849 41.9556 113.016 41.6125 111.169 41.6377C109.323 41.6629 107.5 42.0558 105.807 42.7936C104.719 43.3186 105.429 45.0556 107.313 44.299Z" fill="#001434"/>
</svg>
