<svg width="154" height="154" viewBox="0 0 154 154" fill="none" xmlns="http://www.w3.org/2000/svg">
<path d="M60.7074 53.9541C63.0183 52.6226 64.5283 53.6616 65.088 54.337C65.3177 54.6165 65.66 54.2949 65.624 54.0185C65.2864 51.7029 61.5481 52.4955 60.3919 53.5506C60.1767 53.7428 60.4516 54.1012 60.7074 53.9541Z" fill="#191919"/>
<path d="M60.7922 52.6777C62.2142 51.7795 63.6384 51.1248 65.0665 52.3377C65.2395 52.484 65.581 52.3576 65.4922 52.1034C65.1859 51.2274 63.0029 49.9594 60.4944 52.2949C60.4535 52.3373 60.4292 52.3931 60.4261 52.4519C60.423 52.5108 60.4412 52.5688 60.4774 52.6153C60.5136 52.6619 60.5654 52.6938 60.6232 52.7053C60.681 52.7167 60.741 52.7069 60.7922 52.6777Z" fill="#191919"/>
<path d="M61.3451 51.0827C61.8566 50.5469 62.5069 50.1636 63.2235 49.9758C63.9401 49.788 64.6948 49.803 65.4034 50.0192C65.4726 50.033 65.5445 50.0226 65.6069 49.9896C65.6693 49.9566 65.7183 49.9031 65.7458 49.838C65.7733 49.773 65.7774 49.7005 65.7576 49.6328C65.7378 49.5651 65.6952 49.5062 65.637 49.4663C64.8372 49.0082 63.8893 48.883 62.9981 49.1178C62.1068 49.3527 61.3437 49.9286 60.8734 50.7213C60.8395 50.7843 60.8291 50.8573 60.8441 50.9272C60.8591 50.9972 60.8985 51.0595 60.9553 51.103C61.0121 51.1465 61.0825 51.1684 61.1539 51.1646C61.2254 51.1609 61.2932 51.1319 61.3451 51.0827Z" fill="#191919"/>
<path d="M61.1114 55.102C61.6121 54.94 62.1507 54.9369 62.6532 55.093C63.1558 55.2491 63.5977 55.5569 63.9185 55.9741C64.0632 56.1686 64.4698 56.1441 64.4285 55.8256C64.2125 54.1257 62.1658 54.2023 60.9406 54.5491C60.5984 54.6471 60.7477 55.1801 61.1114 55.102Z" fill="#191919"/>
<path d="M116.915 21.9473C116.198 21.4113 114.554 20.3309 115.107 19.2252C115.235 18.9702 114.958 18.6287 114.682 18.8002C113.041 19.8163 115.557 22.2513 116.681 22.5002C116.75 22.5143 116.822 22.5041 116.885 22.4712C116.947 22.4383 116.997 22.3847 117.024 22.3196C117.052 22.2545 117.056 22.1819 117.036 22.114C117.016 22.0461 116.974 21.9872 116.915 21.9473Z" fill="#191919"/>
<path d="M118.169 21.3309C117.624 20.7497 115.129 19.268 116.511 18.4212C116.787 18.2504 116.659 17.6554 116.341 17.7826C113.915 18.7573 116.559 21.4411 117.829 21.7811C118.129 21.8569 118.407 21.5828 118.169 21.3309Z" fill="#191919"/>
<path d="M119.467 20.9901C118.371 20.0897 117.433 19.1968 118.212 17.7152C118.359 17.4372 118.003 17.0161 117.766 17.2688C116.087 19.0552 118.326 21.1601 119.212 21.458C119.448 21.5376 119.677 21.1632 119.467 20.9901Z" fill="#191919"/>
<path d="M118.935 17.2259C118.182 18.8484 119.382 21.1073 121.232 21.118C121.312 21.1151 121.388 21.084 121.447 21.0302C121.506 20.9765 121.544 20.9035 121.554 20.8244C121.564 20.7452 121.546 20.665 121.503 20.5981C121.459 20.5311 121.394 20.4817 121.317 20.4587C120.696 20.2137 118.799 19.6578 119.446 17.3752C119.525 17.0965 119.044 16.9931 118.935 17.2259Z" fill="#191919"/>
<path d="M120.573 19.948C124.896 20.7191 126.968 31.4582 128.037 33.9207C128.147 34.1742 128.591 34.0478 128.573 33.7676C128.147 30.5562 125.127 19.3492 120.662 19.3722C120.339 19.3951 120.253 19.8913 120.573 19.948Z" fill="#191919"/>
<path d="M90.2252 39.4714C92.481 42.4523 100.961 49.2925 110.046 41.5978C110.322 41.3635 109.851 40.9531 109.556 41.1085C108.782 41.5174 100.348 48.4885 90.6502 39.1307C90.4381 38.8971 90.017 39.1942 90.2252 39.4714Z" fill="#191919"/>
<path d="M136.672 52.3798C136.17 49.6998 132.674 39.8542 131.738 37.5142C131.057 35.8136 130.249 34.6811 128.25 34.8985C125.654 35.1857 115.447 37.2171 114.916 37.3442C115.256 35.2178 114.85 26.5477 115.937 23.1379C116.045 22.7987 115.554 22.6915 115.427 22.9894C114.006 26.2881 114.278 35.0877 114.193 37.5142C113.566 37.5619 112.964 37.7789 112.451 38.1423C111.938 38.5056 111.533 39.0015 111.28 39.5771C110.777 40.9117 108.708 55.1662 108.791 57.0162C108.878 58.9305 109.391 60.7965 110.982 62.014C113.006 63.5144 115.511 64.2183 118.021 63.9919C118.339 63.9482 118.254 63.4559 117.957 63.4559C115.721 63.4258 113.544 62.73 111.705 61.4573C110.149 60.3348 109.75 58.5645 109.727 56.736C109.708 55.1831 111.388 43.336 111.62 42.2747C111.726 41.3479 111.977 40.4435 112.364 39.5947C114.916 40.2118 113.842 51.7159 114.087 54.1838C114.087 54.2768 114.124 54.366 114.189 54.4318C114.255 54.4976 114.344 54.5345 114.437 54.5345C114.53 54.5345 114.62 54.4976 114.685 54.4318C114.751 54.366 114.788 54.2768 114.788 54.1838C115.079 50.974 115.788 39.5526 112.853 39.0633C113.215 38.489 124.167 36.4484 126.464 36.1068C127.464 35.9583 129.103 35.4024 129.952 36.1283C130.57 36.6582 135.268 50.0582 135.822 52.5911C135.907 53.1884 136.776 52.9334 136.672 52.3798Z" fill="#191919"/>
<path d="M112.215 21.3095C107.197 20.8577 101.624 31.5601 99.7104 34.4093C98.2004 32.4322 92.6068 24.756 90.5654 23.5423C89.6543 22.9944 88.7096 22.5044 87.7369 22.0752C88.0359 21.2756 88.0131 20.3912 87.6733 19.6081C86.8027 17.6509 84.1733 16.7611 83.7177 14.6738C83.5645 13.9732 84.465 10.4203 83.8876 8.42174C83.6247 7.07518 82.9304 5.85086 81.9098 4.93391C81.0101 4.26238 76.2343 2.59312 73.8713 6.29535C72.9501 5.75524 71.8739 5.54121 70.8161 5.68777C69.7584 5.83433 68.7808 6.33295 68.0412 7.10318C66.5733 8.63461 65.826 11.1239 66.7012 13.0581C67.3367 14.4625 66.2984 15.9518 65.8505 16.3752C65.1185 17.0151 64.5561 17.8261 64.2134 18.7359C63.5365 20.8171 65.3007 22.5017 65.3436 22.543C62.1124 23.275 59.056 24.6332 56.3472 26.5408C51.6855 29.9804 47.4435 34.6413 46.4794 40.5343C45.7474 44.9991 46.3653 50.9235 50.3716 53.7413C54.047 56.3241 60.685 55.2727 60.6007 49.8277C60.5704 48.4384 60.093 47.0958 59.2393 45.9992C58.1363 44.6357 57.4826 42.9642 57.3679 41.2142C57.1336 37.8328 59.1168 35.5885 62.0679 34.2386C62.6222 33.9851 62.1352 33.1819 61.6 33.4307C59.6758 34.3259 57.8786 35.6 57.0057 37.62C56.1968 39.7093 56.2121 42.0279 57.0486 44.1063C57.547 45.1473 58.1452 46.1374 58.835 47.0627C59.2469 47.7144 59.5066 48.4505 59.5949 49.2163C59.6832 49.9821 59.5978 50.758 59.345 51.4863C58.4131 53.9121 55.7078 54.5292 53.3908 54.0131C48.2214 52.8699 46.9243 46.9525 47.2023 42.4011C47.5622 36.489 51.0255 32.1244 55.3472 28.3885C61.0847 23.429 67.2594 22.9611 73.9372 21.8623C74.1009 22.2863 74.3759 22.6582 74.7332 22.939C75.0905 23.2198 75.5169 23.399 75.9676 23.4578C76.4182 23.5166 76.8763 23.4527 77.2937 23.273C77.7111 23.0933 78.0723 22.8044 78.3393 22.4366C78.3776 22.3686 78.3898 22.2891 78.3738 22.2127C78.3578 22.1364 78.3145 22.0684 78.2522 22.0216C78.1898 21.9748 78.1125 21.9522 78.0347 21.9581C77.9569 21.964 77.8839 21.998 77.8293 22.0538C76.2297 23.6526 74.5367 22.6365 74.49 20.7773C74.49 20.7773 74.5115 19.8416 74.49 19.4595C75.2618 19.7291 76.1088 19.6832 76.8469 19.3316C76.8683 19.9442 76.9105 21.8194 77.7191 21.6288C82.012 21.2584 86.3156 22.2082 90.0539 24.3509C92.093 25.5875 97.7877 33.4284 99.2831 35.4538C99.3271 35.5242 99.3882 35.5822 99.4608 35.6225C99.5334 35.6628 99.6151 35.6839 99.6981 35.6839C99.7811 35.6839 99.8628 35.6628 99.9354 35.6225C100.008 35.5822 100.069 35.5242 100.113 35.4538C101.913 32.7692 107.79 22.1625 112.299 22.141C112.832 22.1364 112.682 21.3531 112.215 21.3095ZM75.3844 18.7145C72.9601 18.6226 71.8322 16.0781 71.5137 14.0145C71.5773 13.9088 73.1508 11.8705 73.853 10.931C74.4058 14.1638 77.6593 14.2488 78.6593 13.951C78.5927 15.9717 77.9756 18.8132 75.3813 18.7145H75.3844Z" fill="#191919"/>
<path d="M89.2049 25.4987C89.1659 25.2858 88.6513 25.2253 88.5457 25.2223C86.4376 25.1694 66.9586 25.403 62.7066 25.9244C62.597 25.9715 62.4986 26.0412 62.4179 26.1291C62.3372 26.2171 62.2762 26.3211 62.2388 26.4344C62.2809 29.923 63.1484 45.3843 63.493 47.0421C63.5772 47.4464 64.1362 47.3193 64.1737 46.9571C64.3445 45.3215 63.1783 29.9651 62.7487 26.6052C67.0873 26.6687 86.5678 26.2644 88.6092 25.9665C88.5242 27.7958 90.2455 70.2899 90.5442 72.1154C90.6039 72.4776 91.1384 72.3497 91.1613 72.0304C91.3015 70.0526 89.535 27.3219 89.2049 25.4987Z" fill="#38A1FF"/>
<path d="M76.5292 68.7125C76.2917 68.8026 76.079 68.948 75.909 69.1367C75.7389 69.3254 75.6163 69.552 75.5514 69.7975C75.3842 70.2722 75.4075 70.7932 75.6165 71.251C75.8255 71.7087 76.2039 72.0676 76.6721 72.2522C77.1403 72.4367 77.6618 72.4325 78.1269 72.2405C78.5921 72.0485 78.9646 71.6836 79.1663 71.2225C79.2775 70.8611 79.2857 70.4758 79.1901 70.1099C79.0944 69.744 78.8986 69.412 78.6246 69.1513C78.3507 68.8906 78.0095 68.7114 77.6393 68.6339C77.2692 68.5564 76.8847 68.5836 76.5292 68.7125ZM78.507 70.6697C78.454 70.959 78.2923 71.2171 78.0551 71.391C77.8179 71.565 77.5232 71.6417 77.2313 71.6054C75.5514 71.4814 75.9978 68.5004 77.8906 69.3933C78.0934 69.5361 78.2563 69.7283 78.3642 69.9516C78.472 70.1749 78.5212 70.4221 78.507 70.6697Z" fill="#38A1FF"/>
<path d="M88.056 66.8411C88.4603 63.864 87.1203 31.5815 86.801 28.3058C86.801 28.2001 86.6303 27.779 86.4396 27.7323C84.8775 27.3448 69.1926 27.3915 65.8962 28.0508C65.7684 27.9444 65.4919 27.9872 65.5134 28.2208C65.7255 34.9415 66.3641 66.6497 66.7891 68.2026C66.8105 68.309 67.044 68.5425 67.1298 68.5425C68.9162 68.6919 86.4396 68.0533 87.9496 67.5004C88.0149 67.4787 88.073 67.4394 88.1176 67.387C88.1622 67.3346 88.1915 67.271 88.2025 67.203C88.2135 67.1351 88.2056 67.0654 88.1798 67.0016C88.154 66.9378 88.1112 66.8823 88.056 66.8411ZM67.4284 68.0533C67.5349 66.4797 66.2799 35.1964 65.9828 28.6886C69.3642 28.5187 81.5926 28.0761 86.1011 28.4589C85.8883 31.6275 87.6532 60.4658 87.4794 66.8664C85.8232 67.224 68.9798 67.8411 67.4284 68.0533Z" fill="#38A1FF"/>
<path d="M84.5041 56.4634C84.0783 54.762 82.0791 48.2756 81.5477 46.7442C81.6112 46.6806 81.4941 36.0647 81.2284 33.9843C81.1908 33.6857 80.7398 33.665 80.7398 33.9843C80.7398 34.8986 80.7398 35.7921 80.7605 36.7064C78.0131 37.3919 75.1544 37.5076 72.3606 37.0464C72.3364 36.1378 72.2866 35.2301 72.2113 34.3243C72.2113 34.2595 72.1856 34.1974 72.1398 34.1515C72.0939 34.1057 72.0318 34.08 71.967 34.08C71.9023 34.08 71.8401 34.1057 71.7943 34.1515C71.7485 34.1974 71.7228 34.2595 71.7228 34.3243C71.5696 36.5785 71.7228 45.532 71.8078 47.7243C73.3813 48.66 75.5506 48.5214 77.2941 48.5107C77.6349 48.5107 77.7198 49.0467 77.3791 49.1064C75.4869 49.4819 73.5238 49.2281 71.7894 48.3835C71.8108 50.6164 69.1599 55.3806 69.0244 56.9542C68.9647 57.6563 70.7687 58.3999 71.768 58.4642C73.7772 58.5928 74.425 57.6701 76.5529 58.5913C77.0063 58.824 77.5027 58.9611 78.0112 58.994C78.5198 59.027 79.0297 58.955 79.5093 58.7827C80.6725 57.936 82.0918 57.5155 83.5286 57.592C83.6028 57.592 84.7208 57.3271 84.5041 56.4634Z" fill="#38A1FF"/>
<path d="M141.754 65.3311C141.797 65.2818 141.828 65.2241 141.846 65.1618C141.865 65.0995 141.87 65.0341 141.861 64.9697C141.534 62.9513 137.323 50.7741 121.998 53.2734C121.743 53.3148 121.785 53.6563 121.998 53.7413C123.955 62.4605 122.39 90.4841 121.318 99.5708C121.28 99.8909 121.892 100.124 121.977 100.145C129.557 102.083 134.409 107.285 135.46 109.588C135.653 110.012 136.287 109.716 136.183 109.29C135.636 107.039 127.421 99.8258 122.125 99.6344C122.125 99.6137 125.635 70.4783 122.849 53.9113C138.905 52.9158 141.181 65.397 141.226 65.4376C142.673 83.1317 138.988 104.555 137.483 112.437C137.395 112.904 138.096 113.117 138.206 112.65C140.01 104.899 144.371 74.0511 141.754 65.3311Z" fill="#191919"/>
<path d="M127.078 83.1317C127.056 83.2802 126.843 84.9395 126.865 84.9609C128.01 85.6893 128.889 86.7678 129.372 88.0361C129.855 89.3044 129.916 90.6947 129.545 92.0002L131.608 92.5744C131.608 92.5744 131.438 88.023 136.733 87.4702C136.887 86.8142 137.078 86.1679 137.308 85.5345C137.308 85.5345 130.739 86.4916 127.078 83.1317Z" fill="#38A1FF"/>
<path d="M37.9091 96.3594C35.4006 87.2114 34.7084 63.3334 34.6341 50.5934C34.6104 50.5019 34.5584 50.4202 34.4856 50.3599C25.0811 45.4922 12.7087 54.4427 12.1551 59.0125C9.27675 58.6526 15.7815 108.606 17.6207 113.093C17.8129 113.561 18.2747 113.519 18.2586 113.093C18.1261 109.48 22.9662 96.39 36.187 97.0585C36.527 97.0754 36.6771 96.4551 36.272 96.3992C23.8399 94.6756 18.4079 106.777 17.7907 110.521C15.3665 96.6756 12.3679 66.4766 12.4529 59.524C13.1765 56.9933 22.1936 46.5298 34.1449 50.9326C33.5713 65.9682 34.9358 86.2321 37.1227 96.5493C37.1328 96.6034 37.1537 96.6548 37.1843 96.7005C37.2149 96.7462 37.2545 96.7852 37.3007 96.8151C37.3468 96.845 37.3986 96.8652 37.4528 96.8745C37.507 96.8837 37.5626 96.8818 37.616 96.8689C37.6695 96.856 37.7198 96.8324 37.7638 96.7994C37.8078 96.7664 37.8446 96.7248 37.8721 96.6772C37.8995 96.6295 37.9169 96.5767 37.9233 96.5221C37.9296 96.4675 37.9248 96.4121 37.9091 96.3594Z" fill="#191919"/>
<path d="M31.0824 55.9527C30.9752 55.7796 30.809 55.6512 30.6145 55.5913C28.8695 55.5591 27.1053 55.432 25.3617 55.4213C25.2132 55.4213 25.0003 55.6977 24.9789 55.7612C24.7339 57.04 24.004 58.1745 22.9418 58.9276C21.8796 59.6807 20.5675 59.9939 19.2797 59.8019C18.4282 59.6756 17.9826 59.5263 17.3439 60.1212C16.3788 60.9381 15.5213 61.8741 14.7918 62.9069C14.7478 63.0307 14.7478 63.1659 14.7918 63.2897C15.1326 64.8633 15.2512 66.5295 15.664 68.0747C15.7038 68.2278 16.2 68.4392 16.3232 68.309C16.5415 68.0793 17.089 67.2914 17.3654 67.2033C18.1977 66.9361 18.0652 68.9468 18.0882 69.3718C18.1648 70.819 17.9075 72.2632 17.9397 73.7104C17.9412 73.7909 17.9725 73.8681 18.0275 73.927C18.0825 73.9859 18.1573 74.0225 18.2375 74.0297C18.7054 74.349 19.2169 74.1177 19.7475 73.8803C20.877 73.3765 27.2117 69.989 29.0196 68.5425C29.0834 68.5403 29.146 68.524 29.2028 68.4946C29.2595 68.4652 29.309 68.4236 29.3477 68.3727C29.3864 68.3219 29.4133 68.263 29.4265 68.2005C29.4397 68.138 29.4388 68.0733 29.4239 68.0111C29.0065 66.5838 28.0831 63.5447 28.6796 61.0355C28.7536 60.6849 28.9621 60.3773 29.2602 60.1785C29.5583 59.9797 29.9224 59.9055 30.2746 59.9719C30.7952 59.5622 31.2953 56.612 31.0824 55.9527ZM28.2753 59.8448C27.7645 60.6398 27.5396 61.585 27.6374 62.5248C27.6121 64.3868 27.9218 66.2381 28.5517 67.9905C26.9353 68.8412 19.4711 73.4561 18.6839 73.5197C18.9646 72.3582 19.0651 71.1604 18.9818 69.9683C19.0491 68.9099 18.9119 67.8484 18.5775 66.8419C17.9106 65.4207 16.919 66.3955 16.2804 67.2891C16.1134 65.8932 15.8056 64.5179 15.3615 63.1841C15.7712 62.7936 17.9029 60.4198 18.1479 60.4198C19.1903 60.5736 20.2416 60.6587 21.295 60.6748C23.7338 60.3433 25.8196 57.5469 25.7821 56.1234C27.3194 56.3215 28.8685 56.4139 30.4185 56.3998C30.3606 57.3961 30.1542 58.3782 29.8059 59.3134C29.5268 59.2443 29.2335 59.2577 28.9618 59.352C28.6901 59.4464 28.4516 59.6175 28.2753 59.8448Z" fill="#38A1FF"/>
<path d="M29.3391 72.4561C27.1905 74.7104 18.982 78.8575 18.8971 79.1125C18.8756 79.176 23.2563 94.9344 23.2563 94.9344C23.9997 94.2289 24.6642 93.4445 25.2379 92.5952C25.2617 92.4466 24.728 85.1095 24.5151 81.6217C25.0044 83.1531 26.7265 89.2566 27.4501 90.5117C28.1094 90.3585 29.3383 89.9343 29.6829 89.3202C29.931 88.8715 29.3391 72.4561 29.3391 72.4561Z" fill="#38A1FF"/>
<path d="M88.6308 111.076C86.6554 109.216 84.5519 107.496 82.3359 105.929C82.351 105.865 82.3445 105.798 82.3174 105.737C82.2903 105.677 82.2442 105.627 82.1861 105.596C82.128 105.564 82.0612 105.553 81.996 105.563C81.9308 105.574 81.8707 105.605 81.8251 105.653C81.8037 105.674 80.4821 107.202 79.8052 107.844C77.8388 109.705 74.0432 108.82 73.1481 108.205C72.3783 107.469 71.7511 106.596 71.2981 105.632C71.4681 105.356 71.0684 105.038 70.8517 105.228C69.7115 106.237 65.556 109.396 64.6846 110.439C64.5139 110.417 64.2566 110.609 64.3653 110.8C65.3554 112.84 66.1529 114.967 66.7475 117.155C66.7663 117.216 66.7983 117.272 66.8412 117.319C66.8842 117.366 66.9369 117.403 66.9958 117.428C67.0546 117.452 67.1181 117.463 67.1817 117.46C67.2454 117.457 67.3075 117.44 67.3639 117.41C67.9764 116.964 69.7246 115.943 69.9374 115.815C69.8095 122.493 67.7682 133.595 67.4274 137.04C67.4187 137.096 67.4261 137.154 67.4487 137.207C67.4713 137.259 67.5082 137.305 67.5553 137.337C67.4067 137.444 67.3447 137.736 67.5553 137.827C69.7927 138.79 72.2545 139.72 74.7009 139.762C74.7743 139.757 74.844 139.728 74.8981 139.678C74.9521 139.628 74.9872 139.561 74.9972 139.488C75.0073 139.416 74.9917 139.342 74.9531 139.279C74.9146 139.216 74.8555 139.169 74.7859 139.145C72.468 138.777 70.1895 138.194 67.9803 137.402C68.0359 137.379 68.0858 137.345 68.1263 137.3C68.1668 137.256 68.197 137.203 68.2146 137.146C69.0017 133.595 71.341 119.963 70.4474 115.518C70.6125 115.409 70.7689 115.289 70.9152 115.156C70.9442 115.126 70.9639 115.089 70.9718 115.048C70.9797 115.007 70.9755 114.965 70.9597 114.927C70.9439 114.888 70.9172 114.855 70.8829 114.832C70.8486 114.808 70.8082 114.795 70.7667 114.795C69.5229 115.007 68.3568 115.543 67.3853 116.348C66.7975 114.435 66.0283 112.584 65.0882 110.818C67.1936 109.422 69.1594 107.827 70.9581 106.054C71.2496 107.112 71.849 108.06 72.6802 108.776C73.5991 109.475 77.0639 110.461 79.5923 109.031C80.6012 108.399 81.4407 107.53 82.038 106.501C83.5051 108.032 88.6316 112.2 88.7158 112.392C89.1048 113.282 87.5672 115.539 87.2479 116.603C86.4401 116.369 83.2302 114.51 82.3144 114.371C82.0173 114.325 81.6911 114.696 81.9744 114.945C82.0993 115.054 82.2509 115.157 82.3994 115.263C83.1016 118.517 84.4783 131.466 85.1001 134.616C85.2096 135.169 86.0488 134.937 85.9294 134.382C85.1989 130.99 84.058 118.302 83.0801 115.646C83.9094 116.051 84.8229 116.372 85.6108 116.71C86.46 117.074 87.287 117.574 88.1844 117.156C88.4141 117.047 88.3115 116.752 88.1201 116.667C88.7375 115.551 89.2571 114.384 89.6729 113.179C90.0979 112.161 89.372 111.717 88.6308 111.076Z" fill="#38A1FF"/>
<path d="M84.4618 138.255C82.6385 138.44 80.8028 138.469 78.9747 138.34C78.8731 138.34 78.7757 138.381 78.7039 138.453C78.6321 138.524 78.5918 138.622 78.5918 138.723C78.5918 140.233 78.6018 141.722 78.6125 143.232C78.6118 143.314 78.6386 143.394 78.6887 143.46C78.7387 143.525 78.8092 143.572 78.8889 143.593C80.6399 143.871 82.4181 143.935 84.1846 143.785C84.2661 143.782 84.3449 143.754 84.4097 143.705C84.4745 143.655 84.5222 143.586 84.546 143.508C84.7316 141.934 84.8099 140.35 84.7803 138.765C84.8248 138.715 84.8518 138.651 84.8572 138.584C84.8627 138.516 84.8464 138.449 84.8106 138.392C84.7749 138.335 84.7216 138.291 84.6588 138.266C84.5959 138.241 84.5269 138.238 84.4618 138.255ZM79.379 142.913V139.105C81.003 139.155 82.6285 139.12 84.2489 139C84.1639 139.829 84.0192 142.573 83.9089 143.058C83.3132 143.083 80.2725 143.019 79.379 142.913Z" fill="#191919"/>
<path d="M83.8029 137.192C82.6191 138.088 82.0379 139.744 81.5915 141.19C81.1872 140.892 80.7822 140.595 80.3794 140.275C80.0593 140.021 79.5854 140.453 79.9115 140.743C80.4529 141.224 80.9744 141.722 81.5065 142.21C81.5602 142.264 81.6268 142.302 81.6998 142.321C81.7729 142.341 81.8497 142.341 81.9228 142.322C81.9958 142.302 82.0626 142.264 82.1164 142.211C82.1701 142.158 82.2091 142.092 82.2294 142.019C82.6165 140.426 83.3498 138.937 84.3772 137.66C84.6911 137.314 84.1214 136.953 83.8029 137.192Z" fill="#38A1FF"/>
<path d="M123.337 122.411C122.302 121.877 121.301 121.281 120.338 120.625C120.928 119.614 121.461 118.57 121.933 117.498C121.975 117.423 121.986 117.333 121.963 117.25C121.94 117.166 121.886 117.094 121.811 117.05C121.736 117.006 121.647 116.993 121.563 117.013C121.479 117.033 121.406 117.085 121.359 117.159C120.75 118.129 120.21 119.136 119.616 120.115C118.669 119.427 117.76 118.689 116.893 117.903C116.638 117.673 116.233 118.056 116.489 118.307C117.361 119.169 118.276 119.986 119.233 120.753C118.351 121.936 117.541 123.172 116.808 124.453C116.762 124.538 116.747 124.637 116.767 124.732C116.787 124.827 116.84 124.912 116.917 124.971C116.994 125.03 117.09 125.06 117.187 125.055C117.284 125.049 117.376 125.009 117.446 124.942C118.387 123.809 119.22 122.592 119.935 121.306C120.891 122.05 121.933 122.924 123.167 123.067C123.244 123.067 123.32 123.041 123.381 122.993C123.442 122.946 123.486 122.88 123.505 122.805C123.524 122.73 123.518 122.65 123.488 122.579C123.458 122.508 123.404 122.449 123.337 122.411Z" fill="#191919"/>
<path d="M25.2551 127.133C24.3661 127.052 23.4795 126.945 22.5966 126.813C22.6609 125.644 22.7558 124.453 22.8309 123.283C22.8554 122.901 22.2183 122.794 22.1502 123.198C21.9576 124.354 21.8159 125.518 21.7252 126.686C20.7185 126.517 19.7183 126.311 18.7267 126.069C18.6375 126.047 18.5434 126.061 18.4641 126.107C18.3848 126.153 18.3266 126.229 18.3018 126.317C18.2769 126.405 18.2874 126.5 18.331 126.581C18.3745 126.661 18.4478 126.722 18.5352 126.75C19.5544 127.052 20.5981 127.324 21.6609 127.537C21.5937 128.5 21.5582 129.464 21.5544 130.429C21.5544 131.088 22.5009 130.982 22.4901 130.429C22.4733 129.515 22.533 128.621 22.5759 127.707C23.4683 127.88 24.3701 128.001 25.2766 128.068C25.8501 128.11 25.8501 127.182 25.2551 127.133Z" fill="#191919"/>
<path d="M23.767 117.01C23.4614 117.487 23.3403 118.059 23.4265 118.619C23.5126 119.178 23.8 119.688 24.2348 120.051C25.4178 121.25 26.633 120.005 27.1484 119.136C28.6315 116.634 25.0296 115.365 23.767 117.01ZM26.4676 118.605C26.195 119.159 25.7448 119.966 25.0005 119.668C24.6935 119.479 24.4646 119.186 24.3552 118.843C24.2459 118.499 24.2635 118.128 24.4048 117.796C24.8413 116.675 27.1568 117.203 26.4676 118.605Z" fill="#191919"/>
<path d="M30.466 25.2222C28.5677 24.1117 26.5919 23.1393 24.5539 22.3125C24.191 22.1663 23.9352 22.5683 23.9796 22.8868C24.3045 25.0985 24.4821 27.3294 24.511 29.5646C24.5106 29.6151 24.523 29.6649 24.5469 29.7094C24.5708 29.7538 24.6055 29.7916 24.6479 29.8191C24.6902 29.8467 24.7388 29.8631 24.7891 29.8669C24.8395 29.8707 24.89 29.8618 24.936 29.841C24.7874 30.1389 25.1045 30.5616 25.4253 30.3303C27.2439 29.0186 28.871 27.4382 30.551 25.9497C30.6056 25.9024 30.6479 25.8425 30.6741 25.7752C30.7003 25.7079 30.7096 25.6352 30.7012 25.5634C30.6928 25.4917 30.667 25.4231 30.626 25.3636C30.585 25.3041 30.5301 25.2556 30.466 25.2222ZM25.1489 29.6228C25.1489 29.6021 25.1489 25.5186 24.9789 23.4971C26.4889 24.177 27.9774 24.9006 29.4238 25.7085C27.9291 26.935 26.502 28.2417 25.1489 29.6228Z" fill="#191919"/>
<path d="M29.8915 18.353C29.7574 17.9455 29.4882 17.5958 29.1284 17.3619C28.7687 17.128 28.3399 17.0239 27.9129 17.0666C27.6956 17.0782 27.4831 17.1354 27.2894 17.2346C27.0957 17.3338 26.9251 17.4727 26.7887 17.6423C26.6523 17.8119 26.5531 18.0083 26.4977 18.2188C26.4424 18.4292 26.432 18.649 26.4673 18.8638C26.5348 19.3769 26.7891 19.847 27.1815 20.1844C27.574 20.5217 28.077 20.7026 28.5944 20.6923C29.7851 20.5683 30.1817 19.3546 29.8915 18.353ZM28.403 19.778C27.5316 19.6678 26.8593 18.2512 27.4841 17.8638C29.3984 16.6891 29.5309 19.9212 28.403 19.778Z" fill="#191919"/>
<path d="M138.373 10.9953C138.246 10.9317 135.609 9.76172 134.418 11.8031C134.222 12.1198 134.096 12.4748 134.048 12.8442C134 13.2136 134.031 13.589 134.14 13.9453C134.249 14.3017 134.432 14.6307 134.678 14.9104C134.924 15.1901 135.227 15.4141 135.567 15.5674C136.193 15.8805 136.911 15.9583 137.591 15.7866C138.27 15.6149 138.865 15.205 139.267 14.6317C139.464 14.339 139.597 14.0085 139.658 13.6614C139.72 13.3143 139.708 12.9582 139.624 12.6159C139.539 12.2736 139.385 11.9526 139.169 11.6736C138.954 11.3945 138.683 11.1635 138.373 10.9953ZM135.779 14.6317C135.577 14.4779 135.408 14.2852 135.282 14.0648C135.156 13.8444 135.076 13.601 135.046 13.349C135.017 13.0971 135.038 12.8416 135.109 12.598C135.18 12.3544 135.299 12.1276 135.459 11.931C136.429 10.859 137.819 11.7411 137.905 11.8031C139.913 13.2365 137.757 15.8001 135.779 14.6317Z" fill="#191919"/>
<path d="M96.3074 94.6794C96.3074 94.5523 95.9682 94.1074 95.7545 94.1694C94.292 94.5898 90.7353 96.5723 87.5453 96.9766C87.8217 93.063 89.0898 77.2326 89.5875 73.2394C89.6059 73.0901 78.6814 73.5794 78.7197 73.7923C79.4617 77.9271 81.7611 96.1442 82.2925 97.9513C80.0888 98.4006 77.8282 98.5011 75.5933 98.2492C75.679 90.1678 76.2909 81.8001 76.8483 73.7287C76.8644 73.4944 65.7049 72.9416 65.917 73.7287C66.2577 77.3444 69.4691 97.5899 69.4691 97.6113C66.0811 97.2179 62.8475 95.9742 60.0692 93.9956C60.0379 93.9571 59.9953 93.9292 59.9475 93.9158C59.8996 93.9025 59.8488 93.9043 59.802 93.9212C59.7552 93.938 59.7149 93.9689 59.6864 94.0097C59.658 94.0505 59.643 94.0991 59.6435 94.1488C59.9092 120.226 59.4949 138.341 59.5799 140.191C59.5271 140.19 59.4749 140.203 59.4286 140.229C59.3822 140.254 59.3432 140.291 59.3154 140.336C59.2876 140.381 59.2719 140.433 59.2698 140.485C59.2677 140.538 59.2793 140.591 59.3035 140.638C61.7913 145.359 79.8047 157.12 95.8395 141.978C97.5831 139.765 96.201 108.951 96.3074 94.6794ZM95.0708 141.53C75.9279 156.481 60.3839 140.679 60.4061 140.552C60.7384 138.739 61.5332 110.524 60.1932 94.7437C74.166 104.632 94.4115 95.7851 95.6458 94.9735C93.9681 102.676 96.7117 133.088 95.0708 141.53Z" fill="#191919"/>
<path d="M90.3104 72.5197C85.8876 72.6652 68.2992 73.0304 63.9392 73.2211C64.11 70.5633 63.6873 59.6534 63.4928 56.8884C63.4721 56.5905 63.0203 56.5905 63.0249 56.8884C63.0678 59.6541 63.0326 70.6927 63.1949 73.4554C63.2125 73.7532 63.7478 73.8168 63.7907 73.8168C68.1713 74.2211 85.955 73.8352 90.3104 73.3068C90.7997 73.2471 90.8211 72.5028 90.3104 72.5197Z" fill="#38A1FF"/>
<path d="M137.267 75.5611C136.827 73.4936 132.504 73.5404 131.844 74.6039C131.61 74.561 131.355 74.5189 131.121 74.4546C131.057 73.8597 130.544 72.8466 128.399 72.3068C127.745 72.2364 127.085 72.2724 126.442 72.4132C126.336 71.0525 125.826 64.5218 126.804 64.4383C127.824 64.351 128.813 70.6927 129.037 72.0304C129.098 72.3925 129.628 72.2853 129.632 71.9454C129.654 70.074 128.674 65.4812 127.549 63.949C127.314 63.6305 127.143 63.2224 126.719 63.3747C124.863 64.0409 125.187 70.9882 125.911 72.839C125.694 73.3313 125.623 73.8753 125.706 74.4066C125.789 74.938 126.023 75.4345 126.379 75.8375C127.503 77.2648 129.518 77.0006 130.654 75.6843C130.805 75.5068 130.927 75.3059 131.015 75.0894C131.185 75.1529 131.355 75.1951 131.525 75.2594C131.219 76.9792 133.219 78.7817 135.439 78.1515C136.018 78.0374 136.531 77.7047 136.871 77.2223C137.212 76.74 137.354 76.1451 137.267 75.5611Z" fill="#38A1FF"/>
<path d="M139.5 67.5257C138.734 66.6773 137.733 67.397 137.288 68.185C136.658 69.9316 136.161 71.7234 135.8 73.545C135.783 73.6126 135.794 73.6842 135.829 73.744C135.865 73.8038 135.923 73.8469 135.991 73.8639C136.059 73.8808 136.13 73.8702 136.19 73.8344C136.25 73.7986 136.293 73.7405 136.31 73.6728C136.739 72.5894 137.735 68.9943 138.054 68.4622C138.246 68.1436 138.815 67.7194 138.99 68.2072C139.679 70.1268 138.219 74.4148 137.182 76.8199C137.054 77.1178 137.481 77.3735 137.628 77.0757C138.541 75.4014 139.228 73.6134 139.671 71.7586C139.893 70.646 140.369 68.4813 139.5 67.5257Z" fill="#38A1FF"/>
<path d="M117.255 35.7072C119.552 31.9851 121.969 28.0072 121.657 23.4558C121.617 22.86 120.701 22.8432 120.722 23.4558C120.875 27.8364 118.896 31.7209 116.809 35.4292C116.772 35.4884 116.76 35.5598 116.776 35.6278C116.792 35.6957 116.834 35.7546 116.893 35.7914C116.952 35.8283 117.024 35.8401 117.092 35.8243C117.159 35.8085 117.218 35.7664 117.255 35.7072Z" fill="#191919"/>
<path d="M73.1476 14.951C73.1476 15.2695 73.1054 15.6953 73.4033 15.8652C73.4419 15.8894 73.4852 15.9053 73.5302 15.9119C73.5753 15.9185 73.6213 15.9157 73.6652 15.9037C73.7092 15.8917 73.7502 15.8707 73.7856 15.8421C73.821 15.8135 73.8502 15.7778 73.8712 15.7374C74.0411 15.4395 73.8068 15.0567 73.6797 14.8017C73.6468 14.7488 73.5976 14.7081 73.5395 14.6856C73.4814 14.6631 73.4176 14.66 73.3577 14.6768C73.2977 14.6937 73.2448 14.7295 73.2069 14.7789C73.1691 14.8283 73.1482 14.8887 73.1476 14.951Z" fill="#191919"/>
<path d="M76.5933 14.7381C76.5302 15.0286 76.5523 15.3311 76.6568 15.6094C76.6834 15.6533 76.7209 15.6896 76.7656 15.7148C76.8104 15.74 76.8608 15.7533 76.9122 15.7533C76.9635 15.7533 77.014 15.74 77.0587 15.7148C77.1034 15.6896 77.1409 15.6533 77.1675 15.6094C77.336 15.3323 77.1882 14.9509 77.1675 14.6737C77.1675 14.3766 76.617 14.3767 76.5933 14.7381Z" fill="#191919"/>
<path d="M72.5313 13.9295C72.8488 13.7002 73.2113 13.5407 73.5949 13.4616C73.807 13.441 73.787 13.055 73.5949 12.9731C73.0244 12.7296 72.2541 13.3766 72.1913 13.6531C72.1477 13.8445 72.3613 14.0359 72.5313 13.9295Z" fill="#191919"/>
<path d="M75.4233 17.9073C75.6576 17.9479 76.4088 17.866 76.4869 17.2266C76.4872 17.1793 76.4748 17.1327 76.4511 17.0917C76.4274 17.0506 76.3932 17.0167 76.352 16.9933C76.3108 16.9699 76.2642 16.9579 76.2168 16.9585C76.1694 16.9592 76.1231 16.9724 76.0826 16.9969C75.8682 17.121 75.764 17.3384 75.4876 17.3798C75.0412 17.441 75.1683 17.8622 75.4233 17.9073Z" fill="#191919"/>
</svg>
