<svg width="156" height="155" viewBox="0 0 156 155" fill="none" xmlns="http://www.w3.org/2000/svg">
<path d="M134.732 137.064C131.644 137.44 130.143 137.891 124.05 135.71C125.479 138.266 130.67 139.395 125.856 143.081C131.497 143.004 137.139 143.833 138.793 142.78C140.373 141.802 137.816 139.17 134.732 137.064Z" fill="#3D9CFB"/>
<path d="M112.165 77.5626C114.944 79.8192 116.603 80.6506 117.58 80.8722C118.558 81.0938 122.716 79.4625 123.602 78.5407C124.451 77.656 125.408 74.1774 127.439 73.2749C129.47 72.3724 130.748 76.5845 132.328 75.9831C136.616 74.4036 138.722 75.7569 138.722 75.7569C146.47 67.6331 145.793 56.4999 145.793 56.4999C141.129 61.6901 132.479 57.6286 132.479 57.6286C129.391 67.6331 116.231 74.629 104.345 74.1774C93.8898 73.8014 87.7214 69.062 87.7214 69.062C82.305 77.6375 88.925 85.9119 88.4734 89.8993C88.0974 93.9608 85.9914 94.939 85.6169 99.6783C85.3159 102.912 87.723 108.402 88.0233 111.258C88.2287 113.509 87.8123 115.772 86.8197 117.802C86.5753 118.349 86.4813 118.951 86.5476 119.546C86.6138 120.141 86.8378 120.708 87.1965 121.187C92.7627 128.484 110.139 132.471 119.692 130.666C129.095 128.935 137.216 121.564 142.033 113.364C142.7 112.259 142.916 110.939 142.635 109.679C141.617 105.229 139.315 101.176 136.015 98.0216C136.015 98.0216 124.431 104.415 112.17 104.415C106.002 104.415 100.513 99.7516 99.3826 96.8929C94.6379 84.784 106.749 77.3372 112.165 77.5626Z" fill="#3D9CFB"/>
<path d="M118.634 137.44C109.231 140.674 99.3018 139.621 92.1546 138.869C92.1546 138.869 92.0774 142.78 95.3144 143.382C98.5514 143.983 113.894 143.382 119.536 143.305C125.178 143.227 124.728 139.621 118.634 137.44Z" fill="#3D9CFB"/>
<path d="M59.6598 56.7261C59.2081 57.6286 60.4117 58.4562 61.3142 58.7573C64.325 59.9608 66.3538 58.7573 67.8592 57.6286C69.062 56.7261 67.3559 55.1003 66.0535 56.124C64.2779 57.5182 63.421 57.2526 62.2174 56.801C61.2393 56.4251 60.1106 55.8229 59.6598 56.7261Z" fill="#001434"/>
<path d="M61.8404 60.5624C60.6369 59.8853 60.4114 61.8408 59.0573 62.7441C58.2081 63.2799 57.1853 63.4684 56.2009 63.2706C54.7719 63.1162 54.5457 65.1512 56.6518 65.3766C60.2648 65.8282 63.721 61.6154 61.8404 60.5624Z" fill="#001434"/>
<path d="M75.3056 69.7405C76.7346 71.6968 77.4117 72.5244 77.0357 73.352C76.6597 74.3293 71.3939 78.0156 71.014 79.8963C70.6381 81.6256 73.3455 82.9071 73.7215 84.1832C74.0225 85.3119 65.1468 92.3827 68.1553 92.5332C69.5094 92.6104 74.3985 87.4179 75.5272 84.9359C76.5053 82.8291 72.9695 80.5733 73.1201 79.8963C73.2706 78.6919 78.9101 75.2318 79.2884 73.352C79.4428 72.5992 78.9124 71.3208 76.5802 68.4621C75.7565 67.4824 74.5537 68.6867 75.3056 69.7405Z" fill="#001434"/>
<path d="M58.7573 36.1902C59.3587 36.1902 61.0131 35.2877 63.6465 35.0623C63.7654 35.0615 63.8827 35.0336 63.9892 34.9806C64.0958 34.9277 64.1888 34.8512 64.2614 34.7569C64.3339 34.6625 64.3839 34.5529 64.4077 34.4363C64.4314 34.3198 64.4282 34.1993 64.3984 34.0841C63.8974 32.141 58.7573 33.6333 58.1552 34.0841C57.553 34.535 57.7036 36.1902 58.7573 36.1902Z" fill="#001434"/>
<path d="M104.27 57.7035C102.841 58.5311 103.818 60.4117 105.172 59.5841C107.053 58.4562 110.212 60.2611 110.438 58.6067C110.66 56.425 105.921 56.801 104.27 57.7035Z" fill="#001434"/>
<path d="M101.558 54.2435C103.213 54.6951 103.531 50.3881 106.448 53.4166C106.645 53.6071 106.901 53.7259 107.173 53.7539C107.446 53.7819 107.72 53.7175 107.952 53.571C109.758 52.3667 106.147 49.8847 103.665 50.5602C101.709 51.0844 99.7533 53.7926 101.558 54.2435Z" fill="#001434"/>
<path d="M109.982 66.73C108.102 67.1808 106.898 67.1808 105.695 66.6528C104.566 66.1263 103.664 67.9312 104.868 68.4577C106.447 69.1348 111.186 69.3602 111.186 67.4047C111.187 66.9562 110.51 66.6528 109.982 66.73Z" fill="#001434"/>
<path d="M104.193 64.4739C105.441 64.5046 106.662 64.1062 107.653 63.3452C109.759 65.151 113.068 63.8717 114.121 62.6682C114.724 61.9919 114.347 60.5622 112.843 61.3149C108.179 63.6463 108.179 59.7346 106.75 61.3921C104.568 63.8741 101.635 60.6401 100.657 62.2196C99.8285 63.6463 102.838 64.4739 104.193 64.4739Z" fill="#001434"/>
<path d="M92.5352 44.0884C85.8404 44.0884 84.1103 50.1819 85.7655 53.4915C87.0439 56.5023 93.4377 56.5023 96.3713 55.6732C102.611 53.3409 101.558 44.0884 92.5352 44.0884ZM89.4472 53.7925C91.9597 51.7045 94.3458 49.469 96.5929 47.0977C98.8502 48.6016 98.6387 52.9387 95.8409 53.7169C93.7457 54.2474 91.5544 54.2733 89.4472 53.7925Z" fill="#001434"/>
<path d="M55.0708 49.0511C58.5309 49.9535 58.0044 51.4582 57.779 53.1134C57.7018 53.7904 57.7018 54.7678 58.7571 54.7678C60.1861 54.7678 60.261 51.4582 60.1112 50.48C59.7345 48.2242 57.1776 47.0956 55.1457 46.7945C53.4913 46.5714 52.8899 48.5269 55.0708 49.0511Z" fill="#001434"/>
<path d="M126.081 124.275C129.466 119.762 130.896 117.054 130.971 114.196C131.048 111.638 129.542 109.607 127.51 106.824C127.059 106.223 126.081 105.319 125.555 106.147C124.577 107.652 130.293 111.112 128.939 115.775C128.639 116.904 127.811 119.311 124.878 123.147C123.9 124.351 125.63 124.877 126.081 124.275Z" fill="#001434"/>
<path d="M148.798 42.4341C146.316 36.644 142.103 32.5045 135.634 26.7878C135.327 26.4745 135.099 26.093 134.969 25.6746C134.838 25.2562 134.808 24.8128 134.882 24.3807C135.334 19.1905 130.745 15.3536 125.78 19.341C124.323 18.1958 122.624 17.3973 120.812 17.0062C119.001 16.6151 117.124 16.6416 115.324 17.0837C113.594 9.48636 103.138 8.50823 97.9477 13.1727C88.0938 14.8271 84.7842 28.5156 70.5669 32.1286C70.0015 31.2085 69.3731 30.3286 68.6863 29.4953C72.5232 26.7878 71.7288 18.1714 66.6559 19.6413C65.5334 19.9664 64.0983 20.2435 60.7115 17.3848C42.8851 4.59724 16.633 26.4119 14.6018 45.3677C14.2258 49.2787 15.2789 52.7396 16.7078 56.3503C19.2655 62.7441 14.2961 57.3724 11.8187 61.2394C9.47722 64.8933 11.5176 72.222 16.0308 73.7266C7.3071 87.6421 10.013 98.3243 23.2521 107.802L14.0753 130.218C11.1417 133.829 1.28699 134.882 6.02635 142.404C7.45533 144.661 41.2299 144.661 46.9474 144.059C52.2881 143.532 56.3496 129.842 59.5095 123.975C60.4119 129.316 54.9207 143.532 63.195 144.285C83.8848 144.059 115.851 145.188 137.139 144.51C144.285 144.285 146.094 140.975 140.9 135.632C140.147 134.73 138.643 133.15 144.285 124.274C151.205 113.216 152.409 108.101 140.975 95.9149C147.294 91.1014 145.94 81.4722 141.125 76.282C151.28 68.5357 154.141 54.77 148.798 42.4341ZM115.023 19.2654C116.062 18.8911 117.154 18.688 118.258 18.664C123.148 18.7412 124.426 21.4471 125.856 21.6748C126.984 21.5976 127.887 18.5868 130.97 19.9447C131.63 20.3287 132.166 20.8947 132.513 21.575C132.859 22.2553 133.003 23.0211 132.926 23.7809C132.776 25.2106 132.475 27.0156 134.054 28.294C143.683 36.0419 149.174 44.4676 149.099 50.1086C145.865 58.7597 138.619 63.2752 123.148 50.263C117.029 45.1153 102.161 31.8337 108.78 24.1607C109.682 25.3642 110.965 26.9175 112.09 27.0943C112.921 27.2248 113.444 25.9656 112.767 25.3635C111.939 24.6115 110.736 23.3331 110.059 22.5842C111.017 21.6426 112.076 20.8101 113.218 20.1022C115.55 23.1131 116.678 23.5624 117.28 23.1131C118.032 22.4252 116.979 21.6725 115.023 19.2654ZM93.3589 62.8946C88.4698 62.067 79.3678 53.341 87.4144 40.4778C88.3169 42.4341 91.2505 42.6595 94.3355 41.3054C95.8626 41.6175 97.3507 42.0968 98.773 42.7344C99.6685 43.0579 100.503 41.757 99.6755 41.2305C98.814 40.6348 97.8784 40.1542 96.8924 39.8008C101.932 33.6332 101.03 44.239 110.658 45.1415C104.868 54.9283 116.545 57.2736 122.47 52.4385C127.133 56.2746 131.045 58.4602 134.281 59.5094C126.383 74.9294 100.657 76.4341 89.1484 68.9116C92.458 68.4608 96.9703 63.9507 93.3589 62.8946ZM113.817 52.664C114.946 51.3855 116.375 49.7303 117.654 48.0751C118.782 49.2038 119.911 50.182 120.964 51.086C119.085 52.5891 115.85 52.8145 113.819 52.664H113.817ZM96.7441 15.2787C100.505 14.5268 100.505 18.664 97.4969 22.199C96.3682 23.5531 98.3244 24.3807 99.0015 23.4775C102.461 19.341 102.235 16.2561 100.055 14.0752C103.065 12.044 107.05 11.4426 110.134 13.3981C109.457 14.4511 106.223 15.9558 107.046 17.3099C107.948 18.7389 111.183 15.2787 112.011 14.9777C112.697 15.7997 113.163 16.7826 113.365 17.8341C110.065 19.2986 107.415 21.9211 105.917 25.206C101.384 25.1573 96.8856 26.0006 92.678 27.688C92.0791 25.3538 90.9461 23.1906 89.3684 21.3691C91.9299 18.5883 94.8635 15.6547 96.7441 15.2787ZM87.9433 22.8761C89.3174 24.5115 90.295 26.4423 90.7997 28.5179C82.2242 32.4296 78.463 40.1752 75.981 48.9761C75.5994 43.7005 74.0856 38.5692 71.5427 33.9312C81.331 30.0194 83.0279 28.2585 87.9433 22.8799V22.8761ZM82.2266 84.405C84.8591 95.0865 75.6823 93.2059 80.4208 110.885C69.49 106.728 55.336 106.742 63.195 91.6279C65.7527 86.7381 69.2167 77.1096 67.7838 69.4374C70.3661 67.3274 72.4268 64.6502 73.8055 61.6138C74.708 64.322 78.3186 67.4039 83.2085 68.6098C81.1735 72.3725 80.1954 78.1641 82.2266 84.4089V84.405ZM62.7442 87.7146C59.0621 86.4808 55.768 84.3028 53.1906 81.3981C54.0182 80.721 54.7709 79.3669 56.2014 77.562C58.834 78.6899 59.887 77.4848 60.8651 75.9068C63.046 76.7344 64.1747 77.4863 65.7542 77.3365C65.1851 80.9083 64.174 84.3955 62.7442 87.7177V87.7146ZM59.4346 18.9643C64.7753 23.7785 67.5584 20.093 68.8345 22.4252C71.4671 28.2925 62.1397 31.1489 57.7014 28.9687C61.4626 29.7971 68.007 22.7255 63.1927 22.9471C59.5071 23.0976 56.6484 17.6063 53.0377 15.9519C55.3982 16.3748 57.605 17.4141 59.4346 18.9643ZM47.5495 38.0707C50.5542 37.8592 51.31 34.7611 50.6329 26.3362C51.1227 26.7617 51.6519 27.1396 52.2132 27.4649C53.6422 34.1597 50.8591 42.4341 45.4427 37.6947C46.0968 38.0122 46.826 38.1423 47.5495 38.0707ZM34.3853 45.6688C35.8899 44.8412 36.8673 42.8849 37.8454 40.9295C34.0085 51.3099 34.0085 46.3459 27.7661 48.0751C28.5929 44.9918 31.9025 46.9473 34.3853 45.6688ZM28.5952 49.8809C28.9158 49.6719 29.2843 49.548 29.666 49.521C30.0478 49.494 30.4301 49.5647 30.7769 49.7265C37.8477 52.2092 38.5996 40.8484 42.0598 37.8414C42.5114 37.687 42.838 37.8916 43.7899 38.8944C49.4379 44.8428 55.8254 37.992 54.547 29.7932C57.8566 31.8236 63.0468 32.5007 67.0334 30.6201C68.1138 31.9862 69.0697 33.4462 69.8899 34.9827C52.8903 36.7884 60.6374 58.6779 73.9522 47.771C74.8562 54.9954 72.5981 62.7441 67.1824 67.4826C65.0756 64.2479 61.8409 67.7837 59.0578 71.9209C57.554 71.169 55.8988 71.3944 55.2966 73.275C53.4168 72.2969 44.9919 69.7392 46.3452 74.027C35.8142 73.8772 24.6811 68.1597 23.3278 61.1638C23.4259 60.5635 23.669 59.9963 24.036 59.5113C24.403 59.0263 24.8828 58.6382 25.4338 58.3807C28.5929 56.8011 26.6374 51.6109 28.5929 49.8809H28.5952ZM68.0116 48.6017C62.2215 49.9558 58.8347 41.5316 65.9812 38.1464C65.8283 41.6065 67.1068 45.9691 68.0093 48.6017H68.0116ZM14.6767 64.6996C14.3007 66.1293 14.8311 68.3851 15.5792 69.8149C16.2562 71.0933 15.2789 71.0184 14.9778 70.6425C14.2858 69.991 13.7464 69.1946 13.3982 68.3102C12.4386 66.0012 11.9693 60.9383 15.2789 61.5405C21.2966 62.5935 18.3669 57.2528 16.4068 50.6328C14.9021 45.4426 17.5354 35.6636 24.9073 27.6903C25.6593 26.8627 26.2614 27.8447 25.3582 29.1201C20.9956 35.2127 19.1945 39.0488 18.8895 43.562C18.363 51.0096 22.5002 59.2839 18.8895 63.2706C17.3849 64.925 15.2789 62.5179 14.6767 64.6996ZM12.9466 91.1794C12.0441 84.4089 16.7827 73.8015 23.8543 66.6527C27.9182 70.6425 36.4164 76.4341 46.7219 75.9832C50.0315 81.5494 54.3193 86.8901 61.9166 89.5227C60.9384 91.8549 59.7349 93.8861 59.1335 95.9921C58.4564 94.638 56.5758 94.0358 54.6196 93.2129C55.2217 87.4954 48.5979 85.841 44.6151 89.7527C42.3718 88.7595 40.2304 87.5502 38.2214 86.1421C38.9441 85.363 39.4387 84.4002 39.6511 83.359C40.3282 78.6945 31.9781 80.1243 31.0757 79.3716C30.4735 78.845 30.4735 77.6415 30.4735 76.062C30.4735 75.5355 30.3245 74.9472 29.7964 75.0089C28.1459 75.2019 27.841 78.6196 29.1194 80.7257C30.323 82.6819 37.9766 80.5836 37.5443 83.2833C37.4115 84.114 34.9118 86.0664 36.3408 87.3456C38.4744 88.8931 40.7696 90.2044 43.1861 91.2566C38.9352 97.6707 36.137 104.936 34.9874 112.545C27.0134 109.156 14.0004 99.1542 12.9466 91.1779V91.1794ZM54.5447 104.642C55.8272 104.941 57.1396 105.093 58.4564 105.094C57.988 106.732 57.3581 108.319 56.5758 109.833C55.1449 109.901 53.7108 109.851 52.2881 109.683C51.7616 109.606 50.9487 109.983 50.934 110.585C50.8962 112.092 53.8676 111.713 55.4479 111.789C53.3411 114.645 48.9029 117.355 37.0178 113.368C38.5973 102.536 43.1113 94.3377 45.5933 91.6295C48.9785 88.0188 52.7397 89.2224 52.5884 93.6606C52.5112 96.4437 59.66 95.4656 58.9073 103.063C56.8013 102.986 54.4297 102.024 53.8676 103.439C53.8246 103.562 53.8082 103.693 53.8197 103.823C53.8312 103.954 53.8703 104.08 53.9343 104.194C53.9984 104.307 54.0859 104.406 54.1912 104.484C54.2964 104.561 54.4169 104.615 54.5447 104.642ZM10.3164 137.59C8.96229 138.342 9.11283 140.524 9.94042 141.577C6.40463 141.953 5.87812 137.966 7.45765 136.837C9.33826 135.559 14.0776 133.453 15.2063 132.023C15.8191 132.485 16.4738 132.888 17.1618 133.228C15.7297 134.731 13.1728 136.011 10.3164 137.59ZM91.3308 132.249C91.2536 133.904 91.1764 135.408 91.1764 136.612C79.4419 138.944 64.5476 137.891 60.7115 137.515C60.2599 133.302 63.4197 120.815 59.809 121.116C56.7982 121.417 53.4901 134.205 50.7819 137.966C40.8524 138.944 23.5517 135.71 16.1798 130.293L24.9035 109.006C37.0896 118.333 57.6999 122.921 60.6335 104.718C65.0718 109.833 74.7002 110.284 80.6432 113.596C80.3934 115.756 79.6187 117.822 78.3866 119.614C78.2683 119.796 78.2119 120.012 78.2258 120.229C78.2397 120.445 78.3232 120.652 78.4638 120.818C80.8331 123.264 84.9332 125.557 89.8223 127.438C91.0274 129.616 91.4034 130.895 91.3285 132.249H91.3308ZM92.5352 128.413C101.336 131.27 111.716 132.777 121.044 131.424C121.152 132.71 121.51 133.962 122.098 135.11C115.403 137.894 97.4999 137.966 93.1366 137.894C92.9837 135.334 93.9611 131.27 92.5352 128.413ZM126.908 140.071C125.931 144.057 115.328 142.553 108.78 142.628C97.3463 142.779 93.5851 143.38 93.2091 139.996C100.28 139.996 116.302 139.919 123.298 136.836C124.201 137.665 127.134 139.095 126.908 140.071ZM141.125 141.199C138.493 143.23 132.174 142.553 127.811 142.478C129.09 141.199 129.391 138.792 127.661 137.664C131.699 138.376 135.837 138.299 139.847 137.438C141.727 139.621 141.577 140.599 141.125 141.201V141.199ZM142.705 123.221C138.041 130.593 137.741 133.753 138.643 135.632C133.822 136.497 128.862 136.161 124.201 134.655C123.512 133.572 123.123 132.326 123.072 131.044C135.033 128.712 144.436 118.256 147.444 113.365C147.068 115.776 145.94 118.183 142.705 123.222V123.221ZM141.201 79.4418C139.395 80.1937 138.718 80.4948 137.289 81.0213C136.236 81.3973 136.687 82.9019 137.816 82.8263C139.321 82.6237 140.761 82.0838 142.028 81.2468C142.537 82.4249 142.891 83.664 143.082 84.9331C141.997 85.7311 140.772 86.318 139.47 86.6632C138.418 86.9635 138.644 88.7128 139.771 88.6187C140.998 88.3837 142.171 87.9247 143.231 87.2646C143.834 94.9375 131.42 100.203 122.095 102.535C118.676 103.369 115.149 103.673 111.638 103.437C105.169 103.136 100.28 99.9023 96.5187 96.7425C93.7356 85.0852 102.988 77.7866 111.413 78.7648C114.12 79.0658 116.603 82.2249 117.957 81.9238C127.059 80.1189 124.577 75.1541 127.21 74.3265C128.714 73.8756 129.391 75.5301 130.594 76.282C133.904 78.3872 137.064 72.7516 141.201 79.4434V79.4418ZM140.749 74.0254C140.833 71.7466 140.173 69.5025 138.869 67.6316C137.515 65.9016 136.387 67.7088 136.763 68.3087C138.267 70.4147 139.019 72.371 138.718 74.6276C135.707 72.6721 132.475 75.7555 131.121 74.2508C129.466 72.4459 128.11 71.995 126.984 72.2953C124.204 73.1229 123.749 76.7336 122.545 78.1626C122.169 78.6142 118.032 80.6454 116.979 79.8934C112.993 77.1096 110.66 76.5831 106.975 77.1096C99.6778 78.0128 92.8324 84.4066 94.1865 94.8657C93.0599 93.8251 92.0503 92.6646 91.1757 91.4048C90.6492 90.6529 89.9814 90.3611 89.5961 90.7278C88.7863 91.4998 89.6563 93.0716 90.3481 93.9625C102.06 109.053 120.964 108.255 139.318 97.2721C146.163 103.591 147.066 108.781 147.216 109.91C144.872 114.731 141.481 118.969 137.29 122.313C133.1 125.658 128.216 128.025 122.995 129.242C111.26 132.021 92.3043 129.016 80.4942 120.14C86.2842 110.963 77.786 102.538 83.3506 94.113C87.9394 87.3433 79.665 76.2851 85.4566 69.0637C85.7585 69.0637 85.9839 69.1409 86.285 69.1409C98.1739 79.5962 128.71 77.1142 136.311 60.0389C139.02 60.6639 141.863 60.2934 144.322 58.9952C146.78 57.697 148.689 55.5577 149.701 52.9681C150.378 62.5935 145.186 70.116 140.749 74.027V74.0254Z" fill="#001434"/>
<path d="M47.6243 64.3235C47.9809 66.9368 55.4987 63.8318 55.8986 59.6598C56.0492 58.0803 54.3191 58.0803 53.9424 59.2839C52.8145 62.9694 47.3988 62.3673 47.6243 64.3235Z" fill="#001434"/>
<path d="M40.8539 46.0445C41.456 45.9673 43.261 44.4649 45.2921 43.7879C46.4957 43.4111 45.5083 41.4294 44.2391 41.9073C42.7575 42.5698 41.3874 43.4579 40.1776 44.5398C40.0278 44.6568 39.9215 44.8206 39.8758 45.0051C39.83 45.1896 39.8475 45.3841 39.9255 45.5574C40.0034 45.7308 40.1372 45.873 40.3055 45.9613C40.4739 46.0496 40.6669 46.0789 40.8539 46.0445Z" fill="#001434"/>
<path d="M45.6689 62.3672C51.1594 60.5622 54.3925 55.5974 51.8364 50.8589C47.4306 42.6347 34.2918 50.5887 35.8898 57.7791C37.0934 62.9693 41.7571 63.6464 45.6689 62.3672ZM42.0574 50.4783C42.2665 50.3252 42.494 50.1989 42.7345 50.1023C42.5862 53.5671 43.8631 57.9289 44.7656 60.5622C37.9959 63.1199 34.159 54.695 42.0574 50.4821V50.4783Z" fill="#001434"/>
</svg>
