<svg width="155" height="155" viewBox="0 0 155 155" fill="none" xmlns="http://www.w3.org/2000/svg">
<path d="M55.1448 118.832C41.9049 120.112 33.6305 121.843 23.9264 108.226C22.7977 112.363 23.1737 118.005 22.8734 121.165C22.7962 127.032 17.457 134.705 22.1207 134.404C26.3335 132.223 25.5808 135.156 29.7188 136.135C31.9753 136.36 34.2319 134.028 36.7896 134.103C39.2723 134.181 42.6568 137.037 44.6131 137.338C46.5694 137.639 49.2768 135.382 51.1574 135.156C53.038 134.931 54.9186 137.564 57.4014 137.564C59.5082 137.564 60.9295 135.421 62.9683 135.006C64.9925 134.594 66.6547 136.059 68.3091 136.36C76.2831 136.059 69.4378 124.173 68.0837 119.058C62.8178 121.691 55.1448 118.832 55.1448 118.832Z" fill="#3D9CFB"/>
<path d="M29.9449 107.924C40.1007 93.3335 43.7113 97.6181 52.3617 96.4902C54.4685 93.2555 57.2516 91.1487 59.8092 95.7375C64.0221 91.8258 66.8052 95.7375 66.8052 95.7375C66.8052 95.7375 66.2038 95.9637 70.7926 94.3085C69.0625 88.0645 64.6242 83.6263 62.0689 83.1754C60.2632 84.6044 59.8115 84.7549 56.8779 86.0318C53.041 94.3062 47.6254 94.6073 41.6068 87.8368C38.8238 88.0622 35.5142 86.9343 33.1819 86.4078C30.9253 85.8813 25.133 89.8679 24.0043 93.1027C22.4217 97.8412 26.8569 106.194 29.9449 107.924Z" fill="#3D9CFB"/>
<path d="M11.9656 82.649C7.52738 82.649 5.646 83.1756 5.646 86.1841C5.646 87.6138 5.7232 141.4 5.94708 146.215C6.02428 147.192 7.22629 145.988 7.22629 145.011C7.22629 134.233 6.57163 93.2541 7.22629 86.0343C7.37606 84.1529 8.12646 84.0024 12.266 83.9275C13.0935 83.9128 12.943 82.649 11.9656 82.649Z" fill="#3D9CFB"/>
<path d="M68.0819 144.56C65.4485 143.28 57.3996 147.042 55.143 147.117C52.8864 147.193 51.3818 146.967 49.0496 147.195C46.2665 141.177 37.7011 146.665 33.4025 147.044C30.2473 147.323 19.6369 145.916 19.4107 145.916C19.3335 146.593 18.8841 150.053 20.991 149.677C21.1407 149.755 71.542 149.978 71.542 149.978C71.769 147.268 72.07 147.042 68.0819 144.56Z" fill="#3D9CFB"/>
<path d="M146.844 48.6471C146.921 26.7568 146.69 10.51 146.69 8.85246C146.613 4.11388 144.207 4.26442 138.791 4.26442C131.645 4.26442 114.794 4.11388 112.234 4.26442C107.947 4.48984 107.42 6.52099 107.27 9.003C107.119 11.1847 107.044 25.6282 107.119 32.323C107.119 33.2263 108.548 33.0757 108.548 32.6241C108.548 29.3894 108.548 24.5752 108.625 19.6853C108.851 7.87355 108.098 5.76829 112.311 5.76829H138.791C143.153 5.76829 145.034 5.54286 145.184 8.85246C145.262 10.5833 145.184 31.9471 145.411 48.4966C145.786 79.2634 145.256 81.5207 146.313 80.7665C147.22 80.0161 146.694 80.1666 146.844 48.6471Z" fill="#3D9CFB"/>
<path d="M112.843 121.089C112.166 120.637 111.865 121.541 111.338 121.691C109.232 122.293 108.63 116.5 106.825 119.435C106.374 118.381 105.997 117.554 105.019 118.005C104.267 118.381 104.492 120.112 104.267 121.093C102.687 119.664 103.138 114.699 101.333 114.172C99.4526 114.095 100.581 118.61 99.6032 119.513C98.7756 120.19 97.9735 119.443 98.1742 118.31C98.2006 118.112 98.1481 117.911 98.028 117.752C97.9079 117.592 97.7299 117.486 97.5324 117.456C97.3348 117.427 97.1336 117.476 96.972 117.594C96.8105 117.711 96.7016 117.887 96.6688 118.084C95.9168 122.222 101.634 122.222 101.484 118.239C101.634 120.495 104.869 125.686 105.772 120.871C106.147 122.075 107.728 122.526 108.028 121.172C108.335 121.83 108.843 122.374 109.478 122.725C110.113 123.077 110.843 123.218 111.564 123.128C112.466 123.044 113.82 121.842 112.843 121.089Z" fill="#3D9CFB"/>
<path d="M89.5226 14.8705C86.7388 14.4946 61.7643 14.6443 58.6794 14.8705C55.5203 15.096 54.3924 16.0741 54.3924 19.1583C54.3924 19.4593 54.238 22.5435 54.238 25.6277C54.238 31.7204 54.238 33.0752 54.6897 33.1501C55.4416 33.3045 55.5921 32.9247 55.5921 32.4731C55.5921 26.9069 55.6693 22.017 55.6693 19.4593C55.6693 16.9766 56.7972 16.4485 58.8292 16.2995C61.4617 16.1497 86.4361 15.9235 89.22 16.2995C91.025 16.6006 92.0764 17.5787 92.2308 19.2331C92.3852 20.8127 92.308 26.0029 92.308 27.357C92.308 27.9584 93.8258 28.2595 93.8127 27.5114C93.7748 25.4046 93.7355 20.9663 93.6621 19.3119C93.7347 17.0522 92.9828 15.3214 89.5226 14.8705Z" fill="#3D9CFB"/>
<path d="M109.683 65.2713C119.914 65.1216 119.086 50.9035 108.93 52.2576C100.957 53.3863 101.86 65.347 109.683 65.2713ZM114.873 56.997C115.107 57.5529 115.223 58.151 115.216 58.754C115.209 59.3569 115.078 59.952 114.831 60.5022C114.584 61.0523 114.227 61.5459 113.781 61.9522C113.336 62.3586 112.811 62.669 112.241 62.8642C111.264 59.9472 110.26 57.0392 109.23 54.1405C112.09 53.3106 114.046 55.0415 114.873 56.997Z" fill="#001434"/>
<path d="M99.0762 68.808C100.656 69.7853 103.664 68.7308 104.793 67.9796C105.545 67.4539 105.094 66.1747 104.041 66.7012C102.988 67.2277 100.881 67.9047 99.8281 67.0771C98.3992 65.9485 99.226 60.9837 99.3765 59.4798C99.5271 57.976 98.0641 58.6437 97.7221 60.0812C96.5487 65.0197 96.8945 67.4539 99.0762 68.808Z" fill="#001434"/>
<path d="M142.707 79.4896C140.827 77.233 135.26 73.9983 130.07 72.7191C132.627 67.5289 134.959 60.6078 131.197 56.3201C133.605 38.0405 116.905 33.6022 106.524 35.2574C103.513 35.7083 102.785 33.6717 102.537 32.7746C101.842 30.2741 100.054 29.7638 95.9168 29.841C90.952 29.9182 84.8585 32.2481 81.3258 35.4072C74.4056 41.6512 73.578 50.4528 79.2954 57.6742C78.9187 66.8518 80.2728 71.9671 83.4326 78.2868C79.822 81.5964 78.3173 90.4737 74.1801 91.9027C73.0097 88.42 70.8055 85.3769 67.8612 83.179C74.5561 83.2562 77.9413 74.6028 73.6513 69.8642C78.691 64.2216 76.8104 53.4644 70.1904 50.3054C75.0039 36.9118 56.5019 29.0134 48.2237 38.0405C42.202 30.894 26.7094 34.0531 24.2266 42.7799C16.4039 40.3727 7.52734 48.7977 10.3853 56.7709C2.2607 62.4877 4.59525 76.4803 14.7487 78.8118C13.7706 85.1306 16.4788 88.5915 21.293 90.3216C17.8329 94.6093 18.3594 100.176 20.917 104.99C18.0606 109.353 18.811 117.402 18.0606 122.592C17.0832 129.587 10.9898 136.282 19.5652 136.508C18.8882 140.796 17.6846 148.77 19.3398 149.974C21.4065 151.524 67.7987 150.621 70.6436 150.575C74.0288 150.498 74.6302 144.256 68.6124 141.62C68.739 140.177 68.9652 138.744 69.2895 137.332C71.0952 137.178 71.922 135.752 73.2761 135.978C75.9094 136.429 77.1879 135.752 75.7589 129.956C74.7718 126.332 73.5143 122.786 71.9969 119.35C72.2792 119.192 72.5336 118.989 72.7496 118.748C75.3829 118.899 78.9936 118.748 81.4007 117.77C83.2813 119.801 83.8827 119.199 87.945 120.929C87.7196 122.81 87.0765 127.928 86.9677 129.58C86.8526 131.314 88.0956 138.984 88.0207 140.864C86.215 143.046 81.6261 146.431 84.1089 149.214C85.6136 150.944 87.0425 150.493 93.2109 150.493C106.3 150.571 129.545 150.794 141.054 150.644C145.418 149.816 143.988 146.355 143.01 142.444C142.183 139.21 141.054 134.771 140.904 132.74C140.753 130.333 140.528 124.766 140.603 121.532C145.418 121.532 142.785 118.071 142.559 110.398C146.546 106.938 148.727 104.079 149.254 101.898C150.756 94.685 145.49 82.7999 142.707 79.4896ZM79.6683 55.1165C71.0929 42.18 87.0402 29.9159 99.4526 32.0976C102.086 32.5492 100.43 38.2659 106.75 37.138C111.263 36.3104 127.362 37.2878 128.941 48.4966C123.074 37.8151 113.746 38.3416 103.891 40.1465C96.6687 41.2752 98.4744 34.4298 94.6383 34.5804C85.8374 35.0312 77.1138 42.1028 80.2697 53.1603C80.0247 53.7978 79.8238 54.4515 79.6683 55.1165ZM82.3009 70.312C80.4959 63.6928 80.0443 55.1165 83.5801 51.1299C87.1908 46.9919 91.629 50.9037 96.2927 50.4528C103.364 49.7758 106.222 45.9389 112.993 46.616C121.948 47.5184 118.485 61.9619 125.781 58.1258C127.512 57.2226 128.869 56.6961 129.618 57.5237C133.304 61.5103 129.695 70.7636 126.007 75.3524C121.493 80.9193 113.219 83.0254 107.502 83.5519C92.9831 84.906 86.4381 85.583 82.3009 70.312ZM117.736 117.327C117.435 116.801 116.834 116.876 114.201 118.456C113.034 117.083 112.048 115.566 111.267 113.942C113.674 112.437 114.748 112.199 114.051 111.159C113.539 110.396 112.471 111.313 110.515 112.212C109.387 109.355 109.462 106.119 111.944 104.313C114.051 102.959 111.494 100.402 113.825 99.3487C121.874 97.167 127.215 110.783 129.924 117.478C123.379 121.691 119.993 124.248 115.555 119.885C117.281 118.532 118.259 118.381 117.732 117.328L117.736 117.327ZM113.749 92.5782C113.298 91.8255 109.987 89.7218 110.59 88.5915L111.417 86.4099C112.47 87.4629 113.824 88.817 114.727 89.5689C114.423 90.5478 114.121 91.6008 113.746 92.579L113.749 92.5782ZM112.241 84.6049C113.591 84.3085 114.922 83.9319 116.228 83.477C116.002 84.6049 115.701 86.0347 115.25 87.5385C114.347 86.7109 113.143 85.583 112.241 84.6049ZM104.568 87.8396C105.094 88.2912 107.728 88.9683 107.424 90.0213L106.296 95.8114C105.092 94.6078 103.889 93.2537 102.685 91.8996C103.289 90.6984 103.966 89.1953 104.568 87.8396ZM101.408 90.3973C100.108 88.9464 98.9017 87.4136 97.7974 85.8085C99.7031 85.8953 101.612 85.8696 103.515 85.7313C102.913 87.012 102.086 88.8926 101.408 90.3973ZM17.5318 85.3576C16.1777 83.477 16.1622 78.9198 17.758 75.8789C17.9896 75.4319 16.7042 74.4499 15.2752 77.0076C5.04456 74.6753 4.51805 58.7272 15.2767 56.8481C15.4005 56.8439 15.5221 56.8151 15.6346 56.7635C15.7471 56.7119 15.8483 56.6385 15.9322 56.5475C16.0162 56.4565 16.0812 56.3498 16.1236 56.2335C16.166 56.1172 16.1849 55.9937 16.1792 55.87C16.0827 55.0447 13.5467 55.2686 12.1177 55.87C9.78546 48.6487 18.8125 41.8782 25.282 45.2634C28.065 46.6932 27.9145 44.9623 25.959 43.4585C28.8926 35.1833 41.0039 33.7543 47.2471 39.3962C47.5039 39.6233 47.8311 39.755 48.1737 39.7691C48.5162 39.7831 48.8532 39.6787 49.1277 39.4734C54.9077 34.7008 60.9394 35.1107 64.9253 38.4203C66.6571 39.63 67.9468 41.3718 68.5986 43.3811C69.2504 45.3904 69.2287 47.5576 68.5368 49.5535C68.3807 50.0005 68.3772 50.4866 68.5268 50.9358C68.6764 51.385 68.9707 51.772 69.3636 52.0362C71.4704 53.4652 73.5015 55.2709 74.1786 58.5056C76.4352 65.6521 70.2668 68.8868 71.6958 70.6169C75.457 75.2806 72.4477 82.5776 66.1289 81.2235C70.9439 76.5598 70.9439 67.5327 67.107 64.4486C66.7093 63.926 66.4739 63.2981 66.43 62.6428C65.5275 57.1516 64.7748 50.3062 59.5846 50.08C56.4255 49.9302 55.0714 51.8857 52.137 51.5097C46.9468 50.9076 44.3891 46.6955 39.5741 51.8108C38.7644 52.6543 37.7776 53.3077 36.685 53.7239C35.5923 54.1401 34.421 54.3089 33.2553 54.2179C24.5316 53.6158 32.2779 63.3199 28.8926 66.6295C27.388 68.1349 25.1314 66.4797 22.9482 69.1879C19.0364 73.9273 23.8507 82.6533 29.0416 85.2858C26.6551 85.7871 24.4622 86.9619 22.7228 88.6711C21.144 88.5923 19.1121 87.4636 17.5318 85.3576ZM48.8259 86.7109C44.613 87.2382 30.4706 88.065 24.9793 78.662C23.2493 75.7284 22.4966 72.8719 24.5277 70.3868C26.2578 68.2808 28.59 70.0117 30.4722 67.9048C34.0828 63.6928 27.012 55.5682 33.4058 56.1703C40.8533 56.8474 41.5304 48.1963 47.9967 52.108C49.7154 53.0559 51.6937 53.4251 53.6386 53.161C58.6033 52.5597 61.6875 48.0465 63.7935 58.4269C60.484 56.9979 53.488 58.8036 54.7672 64.8963C55.0683 66.3261 55.7454 68.1318 56.9482 68.6575C59.8818 69.9368 64.9222 68.9586 66.2763 66.1755C71.4688 74.8251 65.827 84.6049 48.8259 86.7109ZM55.5207 87.3131C52.7415 93.0306 48.5248 93.1804 44.0109 88.8177C47.8988 88.8537 51.7727 88.3473 55.5207 87.3131ZM60.9371 67.2278C58.4543 67.3822 57.1759 67.6794 56.5737 64.5952C55.9723 61.5844 57.9278 60.0813 60.3349 59.9315C60.3141 62.3769 60.5156 64.819 60.9371 67.2278ZM20.6908 97.4689C20.6908 91.6788 25.9142 85.8579 32.9534 87.2382C35.6755 87.7717 38.5196 88.5923 41.0772 88.7421C47.2456 95.4377 53.5644 95.5882 58.0784 86.4855C60.263 85.6587 62.3157 84.5183 64.1718 83.1003C67.3309 84.9809 70.7161 87.6142 72.3713 92.6539C70.7918 93.256 68.9104 93.9331 67.0306 94.5345C65.3754 92.579 61.5393 92.8044 60.0339 94.2341C58.2289 91.1461 54.0469 92.1767 52.5114 94.8355C52.1254 95.5064 51.7595 95.8886 51.3835 95.8886C50.5559 95.9658 46.4936 95.9658 44.7636 95.9658C41.2278 92.2794 40.8518 91.6024 40.3253 92.1289C39.6482 92.8816 40.0999 93.483 42.2808 96.1163C36.94 97.6202 29.2671 104.165 27.6126 111.312C23.7758 107.172 20.6908 102.133 20.6908 97.4689ZM65.5259 102.96C66.4284 103.863 67.7076 102.96 70.4158 101.982C70.9339 103.183 71.288 104.448 71.4688 105.743C70.8667 105.969 69.9642 106.27 69.4377 106.42C68.3847 106.646 68.685 108.301 71.5437 107.774C71.466 108.492 71.3149 109.199 71.0929 109.885C65.0712 103.863 51.9857 110.336 54.7688 118.159C47.6972 118.912 34.6078 119.814 29.3419 112.894C30.2452 105.747 39.9493 97.9992 44.0101 97.6981C47.847 97.4727 50.7042 97.604 51.7587 97.5476C53.8632 97.4349 53.7899 94.3878 56.0464 93.9369C57.1002 93.7107 58.0776 93.9369 58.8303 95.667C55.4443 102.211 64.923 103.34 67.2552 98.1498C68.1847 98.7008 68.9607 99.4768 69.5118 100.406C66.8044 101.53 64.8489 102.283 65.5259 102.96ZM61.5393 114.168C62.2156 114.47 62.6672 114.245 62.8177 113.717C63.2694 111.912 63.5697 110.182 63.7202 109.354C65.1517 109.241 66.5904 109.447 67.933 109.956C67.7825 111.084 67.4814 112.062 67.256 113.266C67.1016 114.093 68.1585 114.77 68.6101 114.093C69.1755 113.178 69.5348 112.151 69.6631 111.082C73.876 115.596 72.2964 119.282 64.6983 119.056C58.3795 118.681 54.2415 118.605 57.0254 113.565C58.15 111.856 59.7805 110.541 61.689 109.804C61.4636 111.461 60.8622 113.868 61.5393 114.168ZM59.959 96.9416C60.28 96.3066 60.7771 95.7775 61.3908 95.4174C62.0046 95.0574 62.709 94.8816 63.4199 94.9112C65.9019 94.9884 66.5789 97.0172 64.4721 98.7473C62.0658 100.775 58.906 99.1989 59.959 96.9416ZM48.5248 147.945C48.4447 148.23 48.2791 148.484 48.0504 148.672C47.8217 148.861 47.5408 148.974 47.2456 148.998C34.6078 149.075 23.8422 148.99 20.7657 148.546C20.566 148.525 20.3783 148.44 20.2296 148.305C20.0809 148.17 19.9789 147.991 19.9381 147.794C19.8673 147.397 19.8414 146.994 19.8609 146.591C20.3874 147.493 28.1353 147.343 32.1227 147.569C34.9019 147.719 37.4635 143.431 42.5039 143.356C45.7417 142.98 48.9007 145.161 48.5248 147.945ZM44.2371 141.4C38.6701 140.497 33.4799 145.636 32.0501 145.613C25.2017 145.5 22.0295 145.713 21.0676 145.086C19.8432 144.29 20.0894 141.926 21.293 135.758C24.1494 133.427 26.6353 136.884 29.643 136.962C32.5767 137.039 34.5329 134.63 37.2411 134.705C40.0242 134.931 41.9048 137.639 44.613 138.015C44.2988 139.115 44.1717 140.259 44.2371 141.4ZM46.4936 141.852C45.4406 140.873 45.666 138.391 46.5708 137.789C52.0629 134.253 52.9654 138.241 57.1033 138.09C61.6914 137.94 62.143 133.2 67.3332 137.037C66.9799 138.443 66.7535 139.878 66.6569 141.325C58.6821 140.648 57.7788 146.892 50.0317 145.538C49.3191 143.934 48.0674 142.629 46.4936 141.852ZM69.0617 143.807C69.823 144.166 70.4593 144.745 70.8883 145.469C71.3174 146.193 71.5196 147.029 71.4688 147.869C71.4489 148.115 71.3372 148.345 71.156 148.512C70.9748 148.679 70.7373 148.772 70.4907 148.773C63.7951 148.85 56.7243 148.85 50.2549 148.922C50.4031 148.46 50.4791 147.978 50.4803 147.493C56.4247 148.546 58.8311 144.936 62.5166 143.657C64.1718 143.131 66.6546 142.454 69.0617 143.807ZM74.2519 133.354C74.4773 134.558 73.9478 134.49 73.5749 134.332C71.5275 133.467 69.6631 135.461 68.685 135.461C67.632 135.461 64.7732 131.925 60.1852 135.084C55.0699 138.545 53.0379 131.775 47.6972 135.31C46.9599 135.805 46.1019 136.089 45.2152 136.133C42.507 135.983 40.3253 133.277 37.2411 133.2C34.3075 132.899 32.4269 135.381 29.643 135.08C26.9348 134.78 25.8069 133.275 23.7758 132.974C22.7228 132.824 21.4435 133.125 18.9615 134.629C16.4039 134.253 16.5544 132.899 17.5318 130.417C18.5306 127.99 19.2865 125.47 19.7884 122.894C20.7665 118.155 19.7884 111.16 21.8952 106.871C30.6188 121.39 42.2808 121.694 56.6494 119.659C60.9896 121.165 65.6835 121.322 70.1147 120.111C73.5749 128.537 74.1037 131.997 74.2519 133.354ZM81.2479 114.773C81.1087 115.108 81.0323 115.465 81.0224 115.826C78.6671 116.691 76.1499 117.025 73.6505 116.805C73.9914 114.887 73.5583 112.912 72.4462 111.313C74.8541 106.574 72.4462 98.4493 67.8582 96.1927C80.8719 92.4315 77.4118 90.7014 84.4826 79.8686C85.7609 81.7312 87.4966 83.2337 89.523 84.232C88.3943 93.2591 90.4255 90.2537 96.2178 91.8293C96.4433 92.5821 94.8637 95.2903 96.3684 95.8168C96.4869 95.8571 96.6129 95.8711 96.7374 95.8578C96.8619 95.8446 96.982 95.8043 97.0894 95.7398C97.1967 95.6754 97.2888 95.5883 97.359 95.4847C97.4293 95.381 97.4762 95.2633 97.4963 95.1397C98.5493 91.1523 97.873 90.6258 97.5735 90.4004C97.2724 89.8739 92.232 89.4979 91.179 89.1219C91.0562 87.7416 91.1081 86.3513 91.3334 84.984C92.6777 85.3858 94.0682 85.6134 95.4705 85.661C98.8566 90.852 105.626 97.7723 109.162 101.308C84.4077 93.632 89.2968 88.8926 81.2479 114.77V114.773ZM84.0309 117.407C82.7525 116.88 82.602 116.654 83.0536 115.3C83.9561 112.366 85.3102 107.251 86.3632 104.317C87.7173 100.48 88.8459 97.4719 89.523 97.0203C90.4255 96.0422 107.202 103.038 110.058 103.414C104.037 109.884 112.616 122.221 119.236 123.872C118.484 126.43 118.032 127.708 116.829 127.784C113.219 128.085 83.9561 117.629 84.0309 117.404V117.407ZM93.1337 148.549C83.2041 148.851 83.2041 147.798 89.3725 142.08C93.6602 142.532 103.891 143.886 109.082 146.293C108.922 147.099 109.084 147.936 109.533 148.625C103.063 148.622 97.0454 148.546 93.1337 148.546V148.549ZM141.804 148.395C139.698 149.298 127.737 148.549 113.82 148.696C108.555 148.471 111.865 145.236 113.294 142.829C117.657 142.829 136.313 145.011 142.03 147.568C142.036 147.86 141.958 148.148 141.804 148.396V148.395ZM141.127 142.904C141.371 143.802 141.579 144.71 141.729 145.387C134.808 142.904 117.958 140.948 113.37 140.873C113.068 139.368 111.489 134.328 111.338 133.35C111.186 132.372 111.037 131.771 110.962 130.793C110.888 129.814 109.458 129.965 109.533 131.169C109.455 134.025 111.112 138.992 111.564 141.851C111.338 142.603 110.285 143.731 109.759 144.559C104.417 142.152 94.3372 140.722 89.7484 140.196C89.7484 138.691 88.656 131.169 88.6954 129.589C88.7325 128.083 89.2968 123.645 89.5979 121.54C103.59 125.903 112.015 129.062 116.378 129.288C119.234 129.442 120.139 126.73 121.043 123.947C123.256 123.463 125.369 122.598 127.286 121.39C132.401 121.467 136.689 121.54 138.645 121.54C138.644 129.665 138.952 134.887 141.127 142.905V142.904ZM141.353 119.28C140.902 119.657 138.043 119.657 130.219 119.507C133.605 117.25 137.892 114.165 140.676 111.834C140.827 113.868 141.804 118.908 141.353 119.283V119.28ZM147.371 101.377C146.919 104.01 139.623 110.855 131.573 116.348C129.919 111.307 125.255 102.581 121.043 99.0453C122.96 97.6838 124.725 96.12 126.308 94.3808C127.135 93.4784 126.609 92.3505 125.18 93.4784C123.751 94.6063 119.39 97.8417 119.39 97.8417C119.39 97.8417 117.66 96.6382 114.199 97.3152C115.854 92.8013 117.885 86.1813 118.337 82.7969C121.436 81.6064 124.272 79.8197 126.684 77.5379C128.038 79.3429 128.715 80.3172 128.489 80.8475C127.963 82.0511 122.246 83.8584 121.945 85.7374C121.644 87.6165 125.706 91.4542 126.835 90.5517C127.286 90.2506 127.135 89.7997 126.758 89.423C125.404 88.2194 123.824 86.7905 123.901 85.888C124.052 84.9847 129.923 83.1798 130.446 81.3741C130.822 80.1705 130.145 78.5176 127.964 76.0333C128.407 75.4872 128.809 74.9089 129.167 74.3032C133.981 75.4311 139.624 78.5153 141.354 80.6221C143.685 83.6268 148.349 94.9853 147.371 101.38V101.377Z" fill="#001434"/>
<path d="M90.5003 68.1309C98.9453 65.6041 96.4447 53.7623 87.4895 55.4924C78.6901 56.9252 82.0908 70.6469 90.5003 68.1309ZM90.9519 66.0241C90.0494 63.0905 88.9208 59.6296 88.1688 57.3004C89.2987 57.0221 90.4921 57.1833 91.5075 57.7516C92.523 58.3199 93.2846 59.2527 93.6382 60.3613C93.9919 61.4699 93.9112 62.6714 93.4125 63.7228C92.9137 64.7741 92.0342 65.5967 90.9519 66.0241Z" fill="#001434"/>
<path d="M94.3372 72.3426C93.2841 73.6967 91.4406 73.3215 91.4035 71.5907C91.3788 70.462 90.3999 70.3763 89.9738 71.2896C88.7841 73.8195 91.93 76.4806 94.6382 74.5992C96.6686 77.6872 102.086 78.0601 103.594 73.8473C106.604 76.5555 111.192 74.4494 111.869 71.0634C112.492 71.3 113.176 71.3252 113.814 71.135C114.453 70.9449 115.012 70.55 115.404 70.0112C116.663 67.9368 115.386 65.0263 114.276 66.0994C113.816 66.5425 114.739 68.3768 113.674 69.033C112.41 69.8104 111.328 68.1838 110.364 68.8825C110.214 68.9922 110.099 69.1428 110.032 69.3162C109.965 69.4896 109.95 69.6786 109.987 69.8606C110.289 71.2147 109.235 72.5688 107.881 73.0197C104.345 74.2232 104.271 70.2404 102.842 70.6882C101.487 71.1391 102.919 75.1265 99.1553 75.1265C98.4558 75.1404 97.7704 74.9283 97.2012 74.5216C96.6319 74.1149 96.209 73.5354 95.9954 72.8691C95.8418 71.5158 95.0899 71.3653 94.3372 72.3426Z" fill="#001434"/>
<path d="M84.5572 54.6648C85.4604 54.8192 87.0454 53.9568 89.5227 53.6118C90.9556 53.4118 90.4252 51.4301 89.146 51.5806C83.7304 52.2577 83.5798 54.5142 84.5572 54.6648Z" fill="#001434"/>
<path d="M106.528 51.1296C109.687 50.6023 113.013 51.1296 113.223 50.3777C113.705 48.6553 109.612 47.9698 106.302 48.7217C104.793 49.0228 105.47 51.2794 106.528 51.1296Z" fill="#001434"/>
<path d="M92.7574 107.398C95.7683 109.504 98.5475 102.884 95.4649 101.831C92.9072 100.93 90.5001 105.743 92.7574 107.398ZM93.6599 104.31C95.39 101.222 95.7659 105.439 94.1864 106.191C93.3588 106.643 93.1334 105.217 93.6599 104.314V104.31Z" fill="#001434"/>
<path d="M51.7594 82.4986C51.0346 82.9415 50.2016 83.1758 49.3522 83.1758C48.5028 83.1758 47.6699 82.9415 46.9451 82.4986C46.4186 82.1226 45.6829 82.7873 46.2681 83.6265C46.6543 84.0621 47.1303 84.4087 47.6635 84.6425C48.1966 84.8762 48.7741 84.9916 49.3561 84.9806C51.5378 85.0578 53.0417 83.5516 52.8162 82.724C52.587 82.2724 52.211 82.2724 51.7594 82.4986Z" fill="#001434"/>
<path d="M55.2197 74.5267C54.3172 74.0002 52.0607 75.504 51.8345 74.2256C51.609 73.0977 50.4804 73.022 49.9539 74.0751C48.826 76.483 43.8612 71.7428 42.6576 74.9027C41.2279 78.6639 46.0413 81.01 49.6535 80.9961C55.5216 80.9699 56.7992 75.5774 55.2197 74.5267ZM50.1044 79.1155C47.1708 79.3178 43.7106 77.6865 44.0827 76.0313C44.1004 75.9512 44.1342 75.8754 44.1822 75.8088C44.2301 75.7421 44.2911 75.6859 44.3615 75.6436C44.4319 75.6014 44.5101 75.5739 44.5915 75.5629C44.6728 75.5519 44.7556 75.5576 44.8347 75.5797C46.415 76.1062 49.1981 77.1592 50.7019 76.0313C51.4539 76.9338 52.9508 76.6173 53.7861 76.1811C53.9351 76.1039 54.0115 76.1811 54.0872 76.3355C54.0918 78.2107 51.8368 78.9935 50.1044 79.1132V79.1155Z" fill="#001434"/>
<path d="M47.3211 65.8736C47.3211 59.4041 42.3563 58.9525 36.564 60.4571C31.6741 61.7364 32.2006 68.3563 34.0812 70.538C36.4134 73.1706 43.3337 71.7408 45.29 70.6152C46.6441 69.861 47.3211 68.2058 47.3211 65.8736ZM39.9492 70.1613C35.4353 70.8383 33.0282 68.0552 35.1342 63.617C35.8113 62.1872 39.046 61.7364 40.7012 61.5858C40.2001 64.4168 39.9485 67.2863 39.9492 70.1613Z" fill="#001434"/>
<path d="M103.966 110.933C107.201 111.686 108.63 105.668 105.47 104.84C102.086 103.94 100.731 110.181 103.966 110.933ZM104.192 106.495C106.298 104.915 105.858 109.921 104.269 109.428C103.221 109.105 103.517 107.022 104.192 106.495Z" fill="#001434"/>
<path d="M98.1737 109.128C101.333 110.633 103.589 104.238 100.129 103.261C97.4951 102.584 95.6153 107.924 98.1737 109.128ZM98.6995 105.743C99.1511 104.614 100.129 104.389 100.355 105.442C100.505 106.269 99.7533 108.15 98.8508 107.774C98.3235 107.623 98.3992 106.57 98.6995 105.743Z" fill="#001434"/>
<path d="M38.823 58.2755C39.3495 58.4261 43.8634 57.4487 44.613 57.4487C45.7417 57.4487 46.1177 55.0979 44.989 55.1165C42.8192 55.1903 40.6903 55.7281 38.7458 56.6937C37.9182 57.2982 38.0687 58.1258 38.823 58.2755Z" fill="#001434"/>
<path d="M89.1461 102.734C89.4515 102.677 89.7531 102.601 90.0494 102.508C89.7483 103.712 87.7789 105.388 89.0712 106.194C89.1569 106.251 89.2547 106.286 89.3566 106.297C89.4584 106.308 89.5615 106.294 89.6571 106.257C89.7527 106.221 89.8382 106.161 89.9064 106.085C89.9746 106.009 90.0236 105.917 90.0494 105.818C90.6508 104.314 93.0602 101.982 91.93 100.553C91.1773 99.6494 90.1243 101.23 88.9964 101.305C88.0182 101.379 88.1688 102.96 89.1461 102.734Z" fill="#001434"/>
<path d="M96.1419 115.823C85.6859 112.363 85.1594 111.385 85.0845 112.967C85.0073 114.02 92.2132 116.263 95.014 117.03C96.2106 117.354 97.0452 116.199 96.1419 115.823Z" fill="#001434"/>
<path d="M49.2769 68.2802C50.6317 69.1835 51.3837 64.9706 53.0381 67.9043C53.3392 68.3559 53.4897 68.5813 53.9413 68.3559C55.07 67.8286 53.7869 64.9706 51.684 65.1212C50.0296 65.1212 47.9984 67.4534 49.2769 68.2802Z" fill="#001434"/>
<path d="M55.8966 56.3197C57.6893 56.3347 59.4771 56.5109 61.2382 56.8463C61.9901 57.0717 62.2155 57.0007 62.3661 56.4703C62.8177 54.4391 56.6494 54.0632 55.445 54.2137C54.2407 54.3643 54.5433 56.3946 55.8966 56.3197Z" fill="#001434"/>
<path d="M107.051 113.792C104.417 112.513 102.161 111.912 97.4962 110.331C92.8325 108.827 87.2107 106.427 86.8147 107.475C86.7518 107.665 86.7633 107.871 86.8471 108.053C86.9308 108.234 87.0804 108.377 87.2655 108.452C92.0806 110.333 105.32 114.546 106.599 114.922C107.878 115.298 107.728 114.093 107.051 113.792Z" fill="#001434"/>
<path d="M46.945 72.2668C47.7387 73.6417 49.2765 70.3113 52.9628 72.7184C53.941 73.4711 54.7686 72.1919 53.1883 71.0632C50.1798 68.8074 46.4733 71.4507 46.945 72.2668Z" fill="#001434"/>
</svg>
