<svg width="154" height="154" viewBox="0 0 154 154" fill="none" xmlns="http://www.w3.org/2000/svg">
<path d="M131.317 104.92C130.376 104.504 129.222 104.65 128.275 104.448C127.658 104.298 127.048 104.118 126.449 103.906C126.247 103.839 125.368 103.636 125.368 103.366C125.311 102.82 125.22 102.278 125.097 101.743C125.552 101.491 125.927 101.116 126.179 100.661C126.468 100.019 126.651 99.3338 126.72 98.6331C127.231 95.7048 127.548 92.7457 127.667 89.7755C128.038 83.9639 127.971 78.1326 127.464 72.3313C127.193 68.9507 126.92 65.6268 126.315 62.257C126.254 61.9178 125.639 61.9867 125.639 62.3244C126.392 71.4737 127.999 82.4516 125.977 96.6048C125.512 99.395 125.507 100.185 124.693 100.729C124.086 101.117 123.425 101.414 122.732 101.608C122.187 101.814 121.619 101.95 121.041 102.014C121.041 90.2395 122.419 85.4317 121.654 80.4447C120.971 76.3497 118.305 71.5824 114.757 70.4385C114.149 70.2356 113.879 71.182 114.487 71.3849C115.456 71.7531 116.333 72.3301 117.055 73.0748C117.021 75.3631 116.818 77.6457 116.448 79.9041C115.323 86.2755 113.668 90.3735 110.092 96.3337C109.755 96.9463 108.944 98.2947 108.876 98.362C107.762 97.9124 106.678 97.393 105.63 96.8069C105.753 96.5274 110.444 86.8291 111.444 81.3237C112.425 76.0021 110.992 72.0909 110.296 68.7478C110.013 67.096 109.9 65.4196 109.958 63.7447C109.947 63.3154 109.97 62.8858 110.026 62.4599C110.026 62.3344 109.976 62.214 109.887 62.1253C109.798 62.0365 109.678 61.9867 109.552 61.9867C109.427 61.9867 109.307 62.0365 109.218 62.1253C109.129 62.214 109.079 62.3344 109.079 62.4599C108.998 64.1501 109.021 65.8437 109.147 67.5311C109.586 71.819 111.274 74.3635 110.567 80.3773C110.093 84.0457 106.892 91.6629 105.36 94.9815C105.157 95.3873 104.212 96.875 104.684 97.2786C104.874 97.4527 105.077 97.6112 105.293 97.7525C105.107 98.0942 104.879 98.412 104.617 98.6989C104.481 98.6316 104.345 98.5604 104.211 98.6316C103.62 99.0183 103.075 99.472 102.588 99.9838C101.972 100.436 101.521 101.077 101.304 101.809C101.281 102.566 101.468 103.315 101.844 103.972C102.014 104.706 102.014 105.469 101.844 106.204C101.797 106.587 101.82 106.977 101.912 107.352C102.056 107.738 102.288 108.085 102.588 108.367C103.798 109.728 105.323 109.988 106.51 108.57C108.098 106.672 106.823 103.338 107.794 101.2C107.862 100.997 107.727 100.862 107.727 100.658C107.727 100.455 108.808 99.4417 108.808 99.4417C108.982 99.509 109.175 99.509 109.349 99.4417C109.485 99.3743 110.905 97.0757 111.31 96.3988C113.882 92.2154 115.776 87.6516 116.922 82.8765C117.63 79.9784 117.971 77.0028 117.936 74.0197C119.281 75.8536 120.226 77.9497 120.709 80.1721C121.671 85.3964 120.167 89.6667 120.167 102.619C120.177 102.76 120.237 102.892 120.336 102.992C120.436 103.091 120.568 103.151 120.709 103.161C120.912 103.161 121.182 103.093 121.385 103.093C121.182 103.161 121.52 104.446 121.385 104.513C120.843 104.851 120.565 105.589 120.236 106.068C118.879 108.032 120.052 109.908 122.873 109.652C125.049 109.498 125.794 108.601 126.794 108.434C127.847 108.083 129.592 108.775 130.919 108.367C131.294 108.302 131.643 108.136 131.93 107.885C132.216 107.635 132.428 107.31 132.542 106.947C132.582 106.523 132.484 106.097 132.264 105.732C132.043 105.367 131.712 105.083 131.317 104.92ZM105.219 108.639C104.893 108.675 104.563 108.633 104.257 108.515C103.95 108.398 103.676 108.208 103.458 107.963C102.444 106.881 103.281 105.589 103.052 104.312C102.931 103.634 102.512 103.095 102.376 102.419C102.173 100.999 103.796 101.135 104.54 101.675C105.689 102.419 105.013 104.448 105.351 105.529C105.556 106.342 106.575 108.321 105.219 108.641L105.219 108.639ZM107.315 100.188C107.18 100.053 105.693 99.1063 105.49 98.9708C105.625 98.7679 106.03 98.2947 106.098 98.1591C106.369 98.2947 108.194 99.1737 108.261 99.1737C107.99 99.4455 107.382 100.122 107.314 100.19L107.315 100.188ZM124.35 103.435C123.624 103.793 122.879 104.109 122.118 104.381V102.894C122.881 102.708 123.627 102.459 124.35 102.15V103.435Z" fill="#191919"/>
<path d="M101.905 46.91C101.973 46.7079 102.04 46.5724 102.108 46.3694C101.899 46.1895 101.673 46.0309 101.432 45.8962C98.3564 53.5862 97.6474 63.6344 98.3894 66.7884C96.812 68.0502 95.5739 71.2585 95.8878 73.1437C95.8295 73.6208 95.9501 74.1025 96.2263 74.4959C96.2656 74.5363 96.3149 74.5657 96.3692 74.5811C96.4235 74.5965 96.4808 74.5973 96.5355 74.5836C96.5903 74.5699 96.6404 74.5421 96.681 74.5029C96.7216 74.4637 96.7512 74.4146 96.7669 74.3604C96.8455 73.9327 96.8224 73.4926 96.6995 73.0755C96.6116 71.9878 96.7974 70.8954 97.2401 69.8979C97.6919 68.9357 98.2855 68.0468 99.0012 67.2608C99.0692 67.2506 99.1344 67.2262 99.1925 67.1894C99.2506 67.1525 99.3004 67.1038 99.3386 67.0466C99.3768 66.9894 99.4026 66.9248 99.4144 66.8569C99.4262 66.7891 99.4236 66.7196 99.407 66.6528C99.2869 66.4467 99.2173 66.215 99.2041 65.9767C99.0914 65.1705 99.0461 64.3563 99.0685 63.5426C99.1162 57.8821 100.074 52.2662 101.905 46.91Z" fill="#191919"/>
<path d="M106.165 54.5509C104.027 57.09 102.406 60.6367 101.161 63.7462C100.82 64.625 100.549 65.5293 100.351 66.4507C100.333 66.5039 100.326 66.5601 100.33 66.6161C100.334 66.6721 100.349 66.7268 100.374 66.777C100.399 66.8272 100.434 66.8719 100.476 66.9087C100.518 66.9455 100.568 66.9735 100.621 66.9913C100.863 67.2561 101.069 67.5516 101.233 67.8703C101.416 68.2288 101.531 68.6183 101.571 69.0188C101.685 69.9439 101.64 70.8818 101.436 71.7914C101.36 72.3986 102.18 72.6023 102.315 72.0617C102.696 70.9531 102.766 69.7617 102.518 68.6161C102.325 67.7748 101.903 67.0029 101.301 66.3848C102.614 62.7746 103.474 59.7707 106.778 55.0264C107.053 54.6237 106.433 54.2125 106.165 54.5509Z" fill="#191919"/>
<path d="M133.078 15.403C132.677 17.3618 131.994 19.252 131.05 21.0148C129.181 24.4138 126.422 25.5937 123.14 27.2354C123.359 27.5027 123.541 27.7983 123.68 28.1144C124.559 27.6404 125.441 27.168 126.385 26.7622C128.544 25.7302 130.371 24.114 131.659 22.0968C132.772 20.1377 133.57 18.0158 134.025 15.8088C134.157 14.9972 133.223 14.73 133.078 15.403Z" fill="#191919"/>
<path d="M138.416 7.82954C138.349 7.55925 138.231 6.84868 137.74 7.08605C137.412 7.24455 137.402 7.69401 137.199 8.03245C136.899 8.54884 136.536 9.02574 136.118 9.45206C136.129 9.17998 136.106 8.90757 136.049 8.64118C135.884 7.24211 135.398 5.90002 134.63 4.71927C134.427 4.31345 133.886 4.65188 134.021 5.05771C134.591 6.17868 134.958 7.39203 135.103 8.64118C135.078 9.18561 135.123 9.73099 135.239 10.2637C135.036 10.4666 134.833 10.7369 134.626 10.9398C134.238 11.3623 133.96 11.873 133.814 12.4276C133.747 12.7652 134.288 12.9682 134.356 12.5623C134.792 11.3992 136.696 9.76446 137.399 8.64118C137.545 10.3002 137.089 11.9565 136.114 13.3066C135.978 13.5769 135.775 13.7798 135.641 14.0501C135.505 14.1175 135.37 14.253 135.438 14.3878C135.874 18.606 135.759 21.7806 134.356 25.6795C133.077 29.0354 131.094 32.0786 128.541 34.6045L129.154 35.2125C134.902 29.7837 137.834 22.2722 136.388 14.3204C136.559 14.1049 136.717 13.8791 136.861 13.6443C137.122 13.3311 137.349 12.991 137.537 12.6297C138.358 11.1727 138.668 9.48286 138.416 7.82954Z" fill="#191919"/>
<path d="M134.089 9.45276C133.966 8.72661 133.689 8.0351 133.278 7.42442C132.777 6.59855 132.163 5.84741 131.452 5.19317C131.394 5.13597 131.317 5.10157 131.235 5.0962C131.154 5.09083 131.073 5.11483 131.008 5.16387C130.942 5.2129 130.896 5.28374 130.879 5.36355C130.861 5.44336 130.872 5.52688 130.911 5.59899C132.072 6.68602 132.874 8.10198 133.208 9.6572C133.257 9.9398 133.348 10.2134 133.478 10.4688C133.681 10.7391 134.079 10.7376 134.154 10.4015C134.199 10.0841 134.177 9.76103 134.089 9.45276Z" fill="#191919"/>
<path d="M98.9982 75.8489C98.6246 75.0465 98.4618 74.1621 98.525 73.2792C98.5371 72.2565 98.6502 71.2375 98.8627 70.2371C98.8732 70.1966 98.8755 70.1544 98.8694 70.113C98.8633 70.0716 98.8489 70.0318 98.8271 69.9961C98.8052 69.9604 98.7765 69.9294 98.7424 69.9051C98.7084 69.8807 98.6698 69.8635 98.6289 69.8544C98.5881 69.8453 98.5458 69.8445 98.5046 69.8521C98.4635 69.8597 98.4243 69.8755 98.3893 69.8985C98.3544 69.9216 98.3245 69.9515 98.3014 69.9864C98.2782 70.0212 98.2624 70.0604 98.2547 70.1016C97.9052 71.1716 97.7226 72.2891 97.7134 73.4148C97.7134 74.2938 97.7134 75.5105 98.3895 76.1866C98.5924 76.3895 99.1338 76.1866 98.9982 75.8489Z" fill="#191919"/>
<path d="M101.094 74.6314C100.749 74.0901 100.498 73.4948 100.35 72.8703C100.26 72.1302 100.237 71.3833 100.282 70.6391C100.277 70.5665 100.247 70.4979 100.196 70.4454C100.146 70.3929 100.078 70.3598 100.006 70.3517C99.9338 70.3437 99.8609 70.3614 99.8002 70.4015C99.7396 70.4417 99.6949 70.5019 99.674 70.5717C99.4949 71.3939 99.4499 72.2397 99.5408 73.0763C99.5913 73.4536 99.7057 73.8194 99.8793 74.1582C100.065 74.623 100.499 75.2692 100.961 75.0372C101.028 74.9969 101.079 74.9337 101.103 74.8591C101.128 74.7845 101.124 74.7037 101.094 74.6314Z" fill="#191919"/>
<path d="M132.94 14.0508C132.088 13.1986 132.73 12.001 132.332 10.6702C131.885 9.45027 131.085 8.39093 130.034 7.62733C129.724 7.35857 129.062 8.01018 129.493 8.30344C130.045 8.62452 130.528 9.05339 130.911 9.56456C131.294 10.0757 131.571 10.6587 131.724 11.279C131.792 11.9543 131.657 12.563 131.724 13.2391C131.753 13.5184 131.855 13.785 132.022 14.011C132.188 14.237 132.412 14.4141 132.671 14.524C132.73 14.5376 132.793 14.5317 132.849 14.5071C132.905 14.4825 132.951 14.4405 132.981 14.3874C133.011 14.3343 133.024 14.2728 133.016 14.2122C133.009 14.1515 132.982 14.095 132.94 14.0508Z" fill="#191919"/>
<path d="M76.2798 54.2799L75.6037 49.4835L70.9383 47.5226L64.0424 52.3909L63.9068 52.2554C62.8436 50.91 61.5909 49.726 60.1878 48.74L54.8471 50.4261C54.8471 50.4261 53.6985 57.9989 53.6985 58.0663L50.9956 62.5969L54.7146 68.8167L59.9888 67.5326L58.7713 63.273L63.2338 70.5074L64.1128 70.3718L66.4796 73.5503L75.8778 69.2225L75.2652 64.2868L79.1864 63.2049C79.1864 63.2049 80.2683 56.5793 80.5386 56.3764C80.8104 56.1061 76.2798 54.2799 76.2798 54.2799ZM73.7109 55.7003C73.5072 55.7676 67.6258 60.4331 67.6258 60.4331L62.9604 59.0134L67.22 58.3373C67.22 58.3373 73.7782 55.6321 73.7109 55.7003Z" fill="#38A1FF"/>
<path d="M123.406 42.5158C126.081 40.1084 129.958 38.7638 131.523 37.9859L123.677 26.3595C116.374 28.9966 112.844 31.4131 109.613 33.9997C108.187 35.1413 105.895 34.8787 105.895 34.8787C103.287 38.5935 101.343 42.7317 100.147 47.11L106.368 50.7616L108.193 65.1659C108.193 65.1659 120.904 62.7302 127.193 62.597L125.096 42.3129C124.691 42.5831 124.285 42.7861 123.948 43.0564C123.542 43.3274 123.136 42.7861 123.406 42.5158Z" fill="#38A1FF"/>
<path d="M117.389 20.0042C117.421 19.2652 117.196 18.5381 116.752 17.9464C116.308 17.3547 115.673 16.9352 114.955 16.7591C114.267 16.6428 113.56 16.6993 112.899 16.9235C112.238 17.1478 111.644 17.5328 111.168 18.044C110.757 18.5329 110.305 18.9854 109.816 19.3962C106.978 21.714 105.975 21.1573 105.222 22.5739C104.628 23.6936 104.46 24.9906 104.749 26.2247C104.951 27.4422 105.628 28.5218 105.965 29.6704C106.84 32.5839 106.507 32.5134 106.777 33.8618C106.802 33.9498 106.856 34.0271 106.929 34.0822C107.002 34.1372 107.091 34.167 107.182 34.167C107.274 34.167 107.363 34.1372 107.436 34.0822C107.509 34.0271 107.563 33.9498 107.588 33.8618C107.667 33.2313 107.644 32.5923 107.521 31.969C107.402 31.2395 107.243 30.5171 107.045 29.8051C107.518 29.8163 107.977 29.6471 108.33 29.3319C108.618 29.1251 108.862 28.8628 109.048 28.5604C109.234 28.258 109.357 27.9216 109.411 27.5708C109.411 26.9261 108.811 26.946 108.532 26.7599C108.412 26.6878 108.317 26.5817 108.258 26.4551C108.199 26.3285 108.179 26.1872 108.201 26.0493C108.223 25.9114 108.285 25.7831 108.381 25.6808C108.476 25.5785 108.599 25.5069 108.735 25.4751C108.86 25.4775 108.981 25.5254 109.073 25.6099C109.208 25.678 109.411 25.8128 109.547 25.8809C109.648 25.9225 109.758 25.9433 109.868 25.9419C109.978 25.9406 110.087 25.9171 110.188 25.873C110.288 25.8289 110.379 25.765 110.455 25.6851C110.531 25.6051 110.59 25.5108 110.628 25.4077C110.628 25.3396 110.696 25.2722 110.696 25.2048C110.751 25.077 110.774 24.9377 110.763 24.799C110.8 24.2797 110.778 23.7579 110.696 23.2439C111.447 23.4335 112.219 23.5244 112.993 23.5141C113.057 23.5907 114.481 25.3962 114.954 25.9483C114.684 25.9483 114.413 26.0157 114.075 26.0157C114.002 26.0189 113.93 26.038 113.865 26.0717C113.8 26.1054 113.743 26.1528 113.698 26.2107C113.653 26.2686 113.621 26.3356 113.604 26.407C113.588 26.4784 113.587 26.5526 113.602 26.6244C113.921 27.4644 114.192 28.3221 114.413 29.1933C114.345 29.3289 114.075 29.3963 114.008 29.4644C112.901 29.8431 111.721 29.9587 110.562 29.8021C110.089 29.7347 109.954 30.5463 110.427 30.6137C111.841 30.8634 113.297 30.699 114.619 30.1405C114.898 30.0391 115.136 29.8489 115.295 29.5992C115.498 29.2615 115.363 28.9231 115.295 28.5172C115.16 27.9766 114.957 27.4361 114.754 26.8273C115.16 26.8273 115.498 26.7599 115.903 26.7599C115.995 26.7569 116.085 26.7274 116.161 26.6747C116.238 26.622 116.297 26.5486 116.333 26.463C116.369 26.3774 116.379 26.2834 116.363 26.1922C116.346 26.1009 116.304 26.0162 116.241 25.9483C116.001 25.6543 114.262 23.5455 114.145 23.3112C114.347 23.2439 114.483 23.2439 114.686 23.1765C115.398 22.9716 116.034 22.5615 116.515 21.9973C116.996 21.4332 117.3 20.74 117.389 20.0042Z" fill="#191919"/>
<path d="M72.832 72.7387C73.3733 72.4002 73.8465 72.0625 74.3871 71.7241C75.0666 71.35 75.6826 70.8709 76.2125 70.3045C76.6184 69.6919 76.2761 68.6827 76.1452 68.0074C75.9354 66.927 75.7393 65.8435 75.5364 64.7616C76.0808 64.7842 76.6258 64.7389 77.159 64.6268C77.679 64.5864 78.1823 64.4246 78.6286 64.1546C79.0748 63.8845 79.4516 63.5136 79.7286 63.0717C80.1269 62.1037 80.3557 61.0744 80.4048 60.0288C80.6838 58.9478 80.7977 57.8307 80.7424 56.7156C80.6276 55.7401 79.5686 55.6306 77.9032 54.8902C77.7003 54.8228 76.8887 54.2776 76.6184 54.3496C76.6261 53.3759 76.5582 52.4031 76.4155 51.4399C76.2317 50.2914 76.1544 49.3251 75.0632 48.8029C73.4553 48.0318 71.8856 47.3151 70.2631 46.639C68.7944 45.9047 68.3565 46.1084 67.6934 46.639C66.8817 47.1804 66.0709 47.8565 65.3274 48.4644C64.4971 49.0144 63.7656 49.7003 63.1635 50.4935C62.9063 50.1464 62.6115 49.8287 62.2845 49.5464C59.3924 46.4139 58.6857 46.8664 56.74 47.518C55.4552 47.8565 54.165 48.1742 52.8189 48.6C52.721 48.635 52.6362 48.6991 52.5757 48.7837C52.5152 48.8682 52.482 48.9692 52.4804 49.0732C52.4085 51.5814 52.5443 54.0912 52.8863 56.577C52.6044 56.814 52.3545 57.0866 52.1428 57.3879C51.8693 57.7425 51.5758 58.0812 51.2637 58.4025C50.5202 59.2815 49.7867 60.1697 49.0325 61.0395C48.4965 61.6521 47.41 62.5947 47.3418 63.4737C47.349 63.6657 47.3946 63.8543 47.4759 64.0285C47.5571 64.2026 47.6725 64.3587 47.815 64.4875C49.1794 66.4267 50.7936 68.1774 52.616 69.6942C52.7005 69.7629 52.7999 69.8109 52.9062 69.8344C53.0126 69.8579 53.1229 69.8563 53.2285 69.8298C55.312 69.1805 57.42 68.8834 59.5165 68.342C59.7868 68.342 60.1926 70.7762 60.3955 71.1146C60.7332 71.5878 61.4093 71.3175 61.8825 71.2494C62.5213 71.1238 63.1533 70.9659 63.7761 70.7762C64.0511 71.3181 64.3675 71.838 64.7225 72.3313H64.1099C50.9253 72.3313 36.9275 74.7655 36.9275 79.228V87.8804C36.9275 88.8942 37.671 89.8406 38.9559 90.6522L39.1588 93.4922C32.0592 93.4922 23.3387 102.553 18.3318 115.128C15.5599 122.096 14.249 129.261 14.6809 135.142C15.1273 141.228 17.3854 145.283 20.9688 146.771L27.6626 149.476C33.5784 151.751 39.7606 146.433 43.7538 141.497C46.864 144.134 54.8426 145.892 64.0379 145.892C69.1499 145.968 74.2475 145.331 79.1835 143.999C83.4438 142.717 85.7417 140.956 85.7417 138.995L89.1222 90.6522C90.4071 89.8406 91.1506 88.8911 91.1506 87.8804V79.228C91.4936 75.5105 81.757 73.4148 72.832 72.7387ZM68.0992 68.4791C67.0111 68.7233 65.8021 69.1552 65.3947 69.2899C65.0563 69.3581 61.4054 70.4385 61.4054 70.4385C60.5938 68.1414 59.8503 65.7731 59.0387 63.4745C58.9713 63.2034 58.7684 62.8619 58.4981 63.0005C58.2278 63.0686 58.2921 63.4071 58.3626 63.6766C58.6849 64.8979 59.0387 66.1789 59.4445 67.3956C57.6191 67.8014 55.7936 68.2746 53.9682 68.6805C53.7766 68.7825 53.5544 68.8113 53.343 68.7616C53.1317 68.7118 52.9457 68.5869 52.8197 68.4102C51.3445 67.0142 49.9872 65.4989 48.7614 63.8795C48.3656 63.0885 47.982 64.244 53.1558 57.5916C53.2913 58.0648 53.3587 58.6061 53.4942 59.0793C53.4942 59.2149 53.5616 59.417 53.6971 59.417C53.9674 59.4852 54.0348 59.1467 54.0348 58.8764C53.8319 55.6988 53.629 52.5885 53.4261 49.4108C56.9001 48.5043 58.0877 47.9905 58.9031 47.9905C59.2733 48.1026 59.6178 48.2865 59.9169 48.5318C63.1551 51.2118 64.8258 54.6666 65.2584 54.9545C65.3103 54.9941 65.37 55.0221 65.4335 55.0369C65.497 55.0516 65.563 55.0526 65.6269 55.0398C65.6909 55.0271 65.7514 55.0009 65.8045 54.9629C65.8575 54.925 65.9018 54.8762 65.9346 54.8197C66.0701 54.6168 65.9346 54.2784 65.7998 54.0763C65.1237 53.0617 64.4476 52.0479 63.7033 51.0334C67.9376 47.5693 68.3794 47.2431 68.7745 47.1114C69.006 47.1173 69.2348 47.1631 69.4507 47.247C75.1054 49.7355 74.9851 49.5647 75.198 49.884C75.2903 49.9837 75.3618 50.1008 75.4082 50.2285C75.4546 50.3562 75.4751 50.4919 75.4683 50.6275C76.2057 54.3174 75.064 54.4828 76.685 55.293C77.564 55.6314 78.4461 56.0364 79.3221 56.3749C79.6421 56.5349 79.7279 56.613 79.7279 57.1184C79.5543 58.9041 79.2147 60.6698 78.7133 62.3925C78.5441 62.9461 78.3994 63.0625 77.8343 63.2034C76.9908 63.4098 76.1315 63.5456 75.2654 63.6092C75.1301 63.2646 75.0612 62.8975 75.0625 62.5273C74.9024 61.6559 73.7991 61.5717 74.0479 62.9331C74.2968 64.2945 74.5563 65.7103 74.7922 67.0579C74.9569 67.7241 75.07 68.402 75.1306 69.0855C75.1306 69.6261 74.8565 69.7563 74.4545 70.0319C72.1748 71.628 69.7791 73.0518 67.2876 74.2915C66.3411 73.0067 65.4621 71.6544 64.5157 70.3696C65.6615 70.045 66.7899 69.6616 67.8963 69.221C68.234 69.084 68.7079 68.7478 68.5088 68.4102C68.6398 68.4791 68.4353 68.4033 68.0992 68.4791ZM54.3059 84.7739L52.616 74.0909C53.9003 73.9551 55.253 73.8198 56.6742 73.6851L57.5532 85.0442C56.4697 84.9087 55.3878 84.8413 54.3059 84.7739ZM19.5531 115.605C21.9849 109.519 25.3685 104.043 29.1542 100.189C32.4712 96.8115 37.5179 93.2847 41.9329 95.0512C48.6941 97.7556 49.5723 111.345 44.0286 125.341C41.3242 132.17 37.4046 138.122 33.1435 141.974C28.9528 145.762 24.8976 147.172 21.6488 145.896C14.8945 143.242 13.9359 129.666 19.5531 115.605ZM28.3425 148.6L25.1649 147.316C27.8693 146.977 30.831 145.401 33.7514 142.721C46.6236 130.894 52.9008 105.292 45.449 96.4072L48.6267 97.6913C51.8043 98.9761 53.8334 102.763 54.2385 108.442C54.6466 114.189 53.4039 121.144 50.655 128.05C45.0639 142.09 35.0363 151.305 28.3425 148.6ZM85.0043 139.067C85.0043 141.976 76.6881 145.017 64.3151 145.017C59.5554 145.07 54.8078 144.525 50.1841 143.394C51.1131 141.515 51.9039 139.572 52.5501 137.579C54.472 131.819 55.7048 126.085 55.8633 116.822C55.9321 113.92 55.6827 111.018 55.1198 108.17C54.5792 102.288 52.4154 98.2985 48.8993 96.8789C41.9168 94.058 41.5386 93.8161 40.3801 93.7005L40.2446 91.3345C50.008 96.0818 78.5456 96.1178 88.3849 91.3345L85.0043 139.067ZM64.3151 93.8337C48.8993 93.8337 38.1488 90.7234 38.1488 87.9516V81.3252C45.1167 87.8865 83.5104 87.8865 90.4814 81.3252V87.9516C90.4791 90.7234 79.7286 93.8337 64.3128 93.8337H64.3151ZM64.3151 85.2471H62.8932L62.6903 73.4148H65.665C65.9353 73.888 66.2776 74.2938 66.5441 74.767C66.747 75.0373 66.9499 75.4431 67.2876 75.5786C67.6934 75.7134 68.0992 75.3757 68.4361 75.2402C71.1528 73.8818 70.9667 73.8619 71.4116 73.6851C83.8519 74.4967 90.5725 77.2012 90.5457 79.3643C90.5128 82.0695 79.7286 85.2471 64.3128 85.2471H64.3151Z" fill="#191919"/>
<path d="M78.6463 100.19C78.5526 100.183 78.4586 100.196 78.3698 100.226C78.281 100.257 78.1994 100.305 78.1299 100.369C78.0604 100.432 78.0044 100.509 77.9654 100.594C77.9264 100.679 77.9051 100.772 77.9028 100.866L75.9419 134.334C75.9624 134.513 76.0387 134.681 76.16 134.815C76.2814 134.948 76.4416 135.04 76.618 135.077C76.7117 135.084 76.8058 135.072 76.8946 135.041C76.9833 135.01 77.065 134.962 77.1345 134.898C77.204 134.835 77.2599 134.759 77.2989 134.673C77.338 134.588 77.3592 134.495 77.3615 134.401L79.3225 100.933C79.3291 100.84 79.3167 100.745 79.2859 100.657C79.2552 100.568 79.2067 100.486 79.1435 100.417C79.0803 100.347 79.0037 100.291 78.9182 100.252C78.8328 100.213 78.7403 100.192 78.6463 100.19Z" fill="#191919"/>
<path d="M64.3129 101.475C64.1272 101.491 63.9546 101.577 63.8293 101.715C63.704 101.852 63.6353 102.033 63.6367 102.219V135.686C63.6353 135.872 63.704 136.052 63.8294 136.19C63.9547 136.328 64.1273 136.413 64.3129 136.43C64.5095 136.428 64.6977 136.349 64.8368 136.21C64.9759 136.071 65.0547 135.883 65.0563 135.686V102.218C65.0545 102.021 64.9756 101.833 64.8366 101.694C64.6976 101.555 64.5095 101.476 64.3129 101.475Z" fill="#191919"/>
<path d="M35.036 111.751L34.2925 111.481C33.7387 111.244 33.1431 111.122 32.541 111.12C31.9389 111.119 31.3426 111.238 30.7876 111.471C30.2325 111.705 29.73 112.047 29.31 112.479C28.8899 112.91 28.5608 113.421 28.3422 113.982L24.6914 122.975C24.4514 123.544 24.3334 124.156 24.345 124.774C24.3566 125.391 24.4976 125.999 24.7588 126.558C24.9719 127.123 25.3066 127.633 25.739 128.054C26.1714 128.474 26.691 128.795 27.2611 128.992C28.3285 129.386 28.268 129.398 28.4778 129.398C28.715 129.397 28.9442 129.312 29.1252 129.159C29.3062 129.005 29.4275 128.793 29.4678 128.559C29.5082 128.326 29.465 128.085 29.3459 127.88C29.2268 127.675 29.0393 127.518 28.8162 127.437C27.8974 127.09 27.0145 126.866 26.5191 125.747C26.3854 125.438 26.3164 125.104 26.3164 124.767C26.3164 124.43 26.3854 124.096 26.5191 123.786L30.1684 114.798C30.2861 114.482 30.4667 114.194 30.6991 113.95C30.9316 113.706 31.2111 113.512 31.5207 113.379C31.8304 113.246 32.1638 113.178 32.5007 113.178C32.8376 113.177 33.1711 113.246 33.4809 113.378L34.2251 113.649C34.3495 113.702 34.4831 113.73 34.6183 113.732C34.7535 113.733 34.8878 113.708 35.0133 113.658C35.1389 113.608 35.2533 113.533 35.3501 113.439C35.4469 113.344 35.5241 113.232 35.5773 113.107C35.6306 112.983 35.6588 112.849 35.6604 112.714C35.662 112.579 35.637 112.445 35.5867 112.319C35.5365 112.193 35.4619 112.079 35.3674 111.982C35.273 111.885 35.1603 111.808 35.036 111.755V111.751Z" fill="#191919"/>
<path d="M113.4 7.56C110.358 6.54544 107.181 7.01865 104.135 7.76291C101.445 8.44566 98.8028 9.3038 96.2249 10.3318C86.8673 14.1496 79.283 20.1573 75.2685 25.0042C75.2063 25.0671 75.1716 25.152 75.1719 25.2404C75.1721 25.3288 75.2074 25.4134 75.2699 25.476C75.3324 25.5385 75.4171 25.5737 75.5055 25.574C75.5939 25.5742 75.6788 25.5395 75.7417 25.4774C77.7026 23.5838 79.6636 21.691 81.7593 19.9329C87.9985 14.7562 95.2875 10.996 103.122 8.91222C106.368 8.0332 109.884 7.42447 113.197 8.16873C113.602 8.23611 113.805 7.69476 113.4 7.56Z" fill="#191919"/>
<path d="M88.3825 24.2598C85.7779 26.479 83.4205 28.9728 81.3511 31.6978C78.8358 35.0862 76.5759 38.6568 74.5899 42.3801C74.0686 43.2789 73.5948 44.2044 73.1703 45.1527C73.0348 45.3549 73.6451 45.4919 73.8464 45.2201C75.5042 42.9751 80.1206 31.9972 88.8542 24.7338C89.1888 24.4566 88.7156 23.9857 88.3825 24.2598Z" fill="#191919"/>
<path d="M68.4366 37.2415C66.707 39.8885 65.1922 42.6697 63.9068 45.5586C63.7712 45.9636 64.3126 46.0992 64.5193 45.8289C64.9251 45.1527 65.249 44.4697 65.6013 43.7324C66.6334 41.6185 67.7838 39.5645 69.0469 37.58C69.2483 37.2415 68.7077 36.9039 68.4366 37.2415Z" fill="#191919"/>
<path d="M73.8464 55.2945C73.2728 55.5242 67.9505 59.5932 67.491 59.9599C65.9359 59.4867 64.3134 59.0135 62.7583 58.6751C62.669 58.6497 62.5734 58.6604 62.4921 58.705C62.4107 58.7495 62.3502 58.8243 62.3235 58.9131C62.2968 59.002 62.3062 59.0977 62.3496 59.1797C62.393 59.2617 62.4669 59.3233 62.5553 59.3512C63.367 59.6215 66.7475 60.7034 66.9505 60.7716C67.1858 60.8785 67.4369 60.9468 67.694 60.9737C67.8969 60.9737 68.0998 60.7716 68.3065 60.6361C68.6281 60.1537 72.7644 57.2593 73.1748 56.917C73.6237 56.6616 74.0335 56.3429 74.3915 55.9706C74.6557 55.6322 74.2514 55.159 73.8464 55.2945Z" fill="#191919"/>
<path d="M84.5284 39.8786C84.1979 40.1824 83.903 40.5227 83.6494 40.8932C82.8005 41.8897 82.0324 42.9523 81.3523 44.0709C79.4174 47.1115 79.0101 48.7638 77.9718 51.5081C77.8431 51.8488 78.3845 51.9844 78.5123 51.6436C79.8808 48.0009 81.7466 44.5651 84.0568 41.4338C84.3873 41.0567 84.6816 40.6493 84.9358 40.2171C85.2046 39.9468 84.7957 39.6719 84.5284 39.8786Z" fill="#191919"/>
<path d="M106.368 37.309C106.571 36.9706 106.032 36.6337 105.827 36.9706C105.316 37.811 105.014 38.7619 104.948 39.7432C104.402 43.8412 105.322 48.3228 105.895 50.8986C106.029 51.5072 106.233 52.0982 106.503 52.6598C106.696 53.0702 107.314 52.7953 107.247 52.3221C106.002 48.4381 105.475 44.3597 105.692 40.2868C105.721 39.2596 105.95 38.2479 106.368 37.309Z" fill="#191919"/>
</svg>
