<svg width="155" height="155" viewBox="0 0 155 155" fill="none" xmlns="http://www.w3.org/2000/svg">
<path d="M68.4631 44.9356C68.162 43.021 67.9459 40.3035 67.2588 38.9911C66.3787 37.285 66.1934 32.761 65.2361 29.4414C64.9505 28.5227 63.5686 28.0441 62.6345 28.2834C59.9479 28.9782 57.5469 29.7888 54.2582 29.9818C51.5504 30.2669 48.8721 30.7835 46.2525 31.5258C44.9864 31.8037 44.0677 32.7379 44.3379 34.004C44.7743 36.2534 45.3232 38.4796 45.9823 40.6741C46.9627 43.9011 47.6272 47.2157 47.9663 50.5712C48.0513 51.3432 48.8619 52.4086 49.5953 52.2002C52.0425 51.4976 57.0065 50.1543 58.705 50.1543C61.6695 50.1543 65.4137 48.6103 67.4904 47.6839C68.44 47.2516 68.633 45.9546 68.4631 44.9356ZM60.5037 37.9026C63.0282 39.354 62.8198 44.9973 57.8017 46.3947C48.9082 48.896 47.4954 40.1414 50.9694 38.1651C51.0759 38.1018 51.1972 38.0681 51.3211 38.0674C51.4449 38.0668 51.5666 38.0992 51.6737 38.1614C51.7807 38.2236 51.8692 38.3133 51.93 38.4211C51.9908 38.529 52.0216 38.6512 52.0194 38.775C52.0291 39.0661 52.0973 39.3522 52.2199 39.6164C52.3426 39.8806 52.5172 40.1174 52.7333 40.3126C52.9495 40.5078 53.2027 40.6576 53.478 40.7528C53.7532 40.8481 54.0448 40.887 54.3354 40.8671C55.8794 40.6664 57.3771 39.3694 55.3236 36.6365C53.27 33.9036 56.0184 31.4718 58.8439 33.8727C58.8439 31.0086 63.3833 32.8073 60.2567 35.216C63.1363 35.2314 63.1517 38.1033 60.5037 37.9026Z" fill="#3D9CFB"/>
<path d="M96.309 91.7579C92.4104 89.5422 87.2071 84.5087 86.3579 82.1232C85.1535 78.7573 83.7022 74.8818 83.7022 74.8818C83.4032 75.1106 83.0472 75.2532 82.673 75.294C82.2987 75.3348 81.9204 75.2724 81.5791 75.1134C81.1796 74.8407 80.7527 74.6104 80.3053 74.4263C80.3053 74.4263 77.0629 74.5267 72.2996 77.7614C69.4972 79.676 60.5574 90.1907 60.5574 90.1907C63.5064 95.5098 70.9949 100.814 79.8576 102.373C82.6677 99.1692 83.0923 97.216 87.5776 96.9689C90.38 96.8068 96.3862 98.8295 103.18 98.3663C109.541 97.934 116.821 95.1084 115.933 92.4604C107.349 94.622 101.883 94.9308 96.309 91.7579Z" fill="#3D9CFB"/>
<path d="M133.582 20.3398C135.898 14.5883 129.861 14.7041 131.027 19.3053C127.769 14.9435 122.488 19.4829 125.862 23.4047C127.066 24.802 126.456 26.3769 124.38 26.5853C122.872 26.6871 121.362 26.4222 119.979 25.8133C119.677 27.5053 120.042 29.2485 120.998 30.677C121.858 30.3421 122.806 30.3128 123.684 30.5939C124.563 30.875 125.318 31.4494 125.823 32.221C126.726 33.626 128.433 31.6883 130.857 34.1587C132.11 33.8666 133.227 33.1558 134.022 32.1438C138.075 26.7397 132.439 23.3506 132.439 23.3506C132.439 23.3506 134.964 23.6054 135.944 22.4937C137.133 21.0809 135.836 19.313 133.582 20.3398Z" fill="#3D9CFB"/>
<path d="M96.6028 50.2469C96.7218 50.3811 96.8837 50.4697 97.0609 50.4975C97.2381 50.5253 97.4194 50.4906 97.5737 50.3992C97.7281 50.3079 97.8458 50.1657 97.9067 49.997C97.9676 49.8283 97.9679 49.6437 97.9075 49.4749C97.8264 49.321 97.7877 49.1483 97.7953 48.9746C97.8029 48.8008 97.8566 48.6322 97.9509 48.4861C98.0452 48.3399 98.1767 48.2215 98.3319 48.1429C98.487 48.0643 98.6603 48.0284 98.8339 48.0389C99.3357 48.093 99.8221 48.6488 100.162 49.5829C100.252 49.7424 100.397 49.8644 100.569 49.927C100.742 49.9897 100.931 49.9889 101.103 49.9248C101.275 49.8606 101.418 49.7374 101.507 49.5772C101.597 49.4169 101.626 49.2301 101.59 49.0502C100.115 44.5417 94.9353 46.85 96.6028 50.2469Z" fill="#001434"/>
<path d="M91.1985 51.4128C97.6834 51.4128 98.8182 41.3149 91.9242 40.6047C83.8181 39.7555 84.1655 51.4128 91.1985 51.4128ZM92.1249 42.1873C97.7683 43.3608 94.7266 51.4051 89.8861 49.6989C91.4224 48.1472 92.4646 44.3412 92.0863 42.1873H92.1249Z" fill="#001434"/>
<path d="M133.768 131.13C139.342 130.405 141.634 126.452 132.224 126.637C133.166 121.812 128.248 117.427 123.515 119.218C120.335 120.315 117.339 121.534 113.796 122.955C109.063 124.893 111.997 132.991 116.22 133.562C118.791 133.771 122.473 132.319 123.94 132.065C124.857 132.439 125.863 132.538 126.835 132.35C128.248 132.219 127.816 132.96 126.835 133.084C124.326 133.416 123.747 135.33 128.008 135.33C135.204 135.33 134.084 132.505 132.208 132.443C130.332 132.381 130.904 131.509 133.768 131.13ZM117.061 131.478C116.251 132.736 115.27 131.625 114.298 130.667C112.985 129.023 112.306 126.668 113.433 125.047C116.544 124.46 118.073 129.671 117.061 131.478ZM130.479 127.332C130.07 128.876 128.07 129.262 126.75 129.648C124.141 130.42 122.89 130.829 118.544 131.833C119.486 129.378 118.32 125.093 115.579 123.874C118.93 122.538 121.068 121.673 124.002 120.654C128.093 119.103 132 123.41 130.479 127.332Z" fill="#001434"/>
<path d="M37.1044 54.1692C37.83 56.6474 40.9644 55.0725 42.5084 54.6247C42.9762 54.4816 43.376 54.1731 43.6331 53.7569C43.8902 53.3407 43.9871 52.8451 43.9057 52.3627C43.4117 49.2747 42.7554 45.5536 42.1842 42.3266C41.3041 38.8603 41.636 34.6066 40.0071 31.6266C38.4631 31.0476 36.5871 31.8659 35.0894 32.059C32.5341 33.024 34.6571 36.3359 34.6648 38.235C35.3287 43.2839 35.9695 49.2516 37.1044 54.1692ZM36.0313 37.131C36.3709 37.0847 36.8033 37.023 37.2124 36.9458C37.4209 37.8104 37.6525 38.8681 37.8532 40.0338C36.0776 39.9952 36.4018 42.1877 38.0848 41.5238C38.2778 42.8053 38.3396 44.1872 38.4708 45.5382C38.0308 45.5382 37.5676 45.6 37.1507 45.6077C36.8187 43.1527 36.3015 38.621 36.0313 37.131ZM37.3668 47.1671C37.7451 47.1671 38.1852 47.1671 38.6484 47.0899C38.7873 48.1476 38.9417 49.2052 39.0961 50.1316C38.6638 50.2011 38.2624 50.2706 37.8918 50.3555C37.5984 48.7575 37.4981 48.0086 37.3668 47.1594V47.1671ZM38.7951 54.0148C38.3087 53.6906 38.4785 52.7719 38.1774 51.8532C38.562 51.761 38.9511 51.6888 39.3432 51.6371C39.6983 52.9881 39.2969 53.4899 40.3699 53.7138C39.8542 53.8556 39.3273 53.9538 38.7951 54.0071V54.0148ZM42.0606 53.1733L40.7019 53.6057C41.4739 52.9417 40.9876 52.8337 40.8486 51.4055C41.3005 51.3582 41.7429 51.2437 42.161 51.0658C42.1456 51.7374 42.8095 52.7873 42.0606 53.1656V53.1733ZM41.9371 49.7456C41.4853 49.7503 41.0362 49.8152 40.6015 49.9386C40.4471 49.0045 40.2927 47.9391 40.1538 46.8969C41.6438 46.8429 41.4122 44.7894 39.9762 45.3529C39.8527 44.0251 39.7832 42.6586 39.5979 41.408C39.8836 41.408 40.1769 41.3385 40.4626 41.2922C40.9181 44.0251 41.4662 46.8506 41.9371 49.7456ZM40.2464 39.7559C39.9608 39.8022 39.6751 39.8408 39.3818 39.8717C39.1983 38.7752 38.9743 37.6859 38.7101 36.6061C39.1116 36.4903 39.5439 36.3667 39.6443 35.9267C40.0611 38.5129 39.7909 36.8222 40.2464 39.7559ZM35.5372 33.5335C36.6334 33.2247 37.8532 33.1784 39.1193 32.9313C39.2351 33.6416 39.3663 34.4753 39.513 35.2473C39.2274 34.815 38.741 34.8845 38.301 35.0775C37.915 33.1475 36.1702 33.5875 36.8187 35.4172C36.425 35.4789 36.0467 35.5407 35.7147 35.5793C35.6916 34.9694 35.0508 34.0121 35.5372 33.5335Z" fill="#001434"/>
<path d="M45.4342 66.4515C38.8798 67.6635 42.1223 70.5199 44.9092 71.6702C45.0891 71.7061 45.2759 71.6768 45.4362 71.5875C45.5964 71.4983 45.7196 71.3548 45.7837 71.183C45.8478 71.0111 45.8486 70.822 45.786 70.6496C45.7234 70.4771 45.6014 70.3327 45.4419 70.242C44.5866 69.8649 43.803 69.3425 43.1259 68.698C43.535 68.173 46.5382 68.3043 46.3066 67.0073C46.2557 66.8231 46.1384 66.6643 45.9772 66.5617C45.8161 66.459 45.6226 66.4197 45.4342 66.4515Z" fill="#001434"/>
<path d="M47.3178 71.8556C45.0017 73.2298 48.221 75.8083 49.9812 75.6385C55.0841 74.8819 51.4171 69.8639 47.3178 71.8556ZM50.8072 73.8243C49.9735 74.5963 48.4912 73.7316 48.1206 73.168C49.3095 72.6817 51.3399 73.1449 50.8072 73.8243Z" fill="#001434"/>
<path d="M60.2334 73.5002C59.2453 74.3238 58.1801 75.0503 57.0527 75.6695C56.2805 75.2537 55.5688 74.7342 54.9374 74.1255C54.2966 73.3535 53.1386 74.4266 53.8103 75.1446C53.9492 75.3067 55.941 77.1595 57.0141 77.1827C57.4233 77.1827 58.1103 77.0746 61.1752 74.6736C61.2834 74.5365 61.342 74.3668 61.3413 74.1922C61.3405 74.0175 61.2806 73.8483 61.1713 73.7121C61.062 73.5758 60.9097 73.4807 60.7393 73.4423C60.569 73.4038 60.3906 73.4242 60.2334 73.5002Z" fill="#001434"/>
<path d="M97.8618 52.71C97.7088 52.8055 97.594 52.9515 97.5375 53.1228C97.4809 53.2941 97.4861 53.4797 97.5521 53.6475C97.6182 53.8154 97.7409 53.9548 97.899 54.0416C98.0571 54.1284 98.2406 54.1571 98.4176 54.1228C98.8851 53.9343 99.4022 53.908 99.8864 54.0479C100.371 54.1878 100.794 54.486 101.089 54.8948C101.215 55.0298 101.385 55.1151 101.569 55.1351C101.753 55.1552 101.938 55.1086 102.09 55.004C102.242 54.8993 102.352 54.7435 102.399 54.5647C102.446 54.386 102.428 54.1963 102.347 54.0301C101.857 53.3371 101.148 52.8297 100.334 52.5901C99.5199 52.3505 98.6488 52.3927 97.8618 52.71Z" fill="#001434"/>
<path d="M150.319 133.177C149.037 130.305 132.702 130.135 135.79 135.554C135.473 139.584 138.669 139.546 143.51 139.885C146.783 139.932 149.979 139.021 149.941 135.74C150.316 135.44 150.565 135.008 150.635 134.533C150.705 134.057 150.592 133.572 150.319 133.177ZM147.933 137.268C146.173 139.106 136.724 138.465 137.365 136.496C140.909 137.532 144.669 137.572 148.235 136.612C148.183 136.85 148.08 137.074 147.933 137.268ZM148.922 134.589C145.834 136.249 140.321 136.249 137.048 134.651C135.844 132.134 150.828 132.204 148.922 134.589Z" fill="#001434"/>
<path d="M106.801 54.8022C114.027 56.5161 116.498 43.8937 108.855 43.1217C101.451 42.1876 99.8069 53.2582 106.801 54.8022ZM108.646 44.6349C114.359 45.4069 112.46 54.4934 106.994 53.2736C108.16 51.0889 107.867 46.4414 106.523 44.8433C107.202 44.5963 107.932 44.5246 108.646 44.6349Z" fill="#001434"/>
<path d="M145.239 133.161C142.877 133.4 139.657 132.574 139.495 134.218C139.858 135.569 142.9 134.357 145.223 134.689C145.408 134.665 145.577 134.575 145.7 134.436C145.824 134.296 145.893 134.117 145.894 133.931C145.896 133.746 145.831 133.565 145.711 133.424C145.59 133.282 145.423 133.189 145.239 133.161Z" fill="#001434"/>
<path d="M103.103 44.1639C104.153 44.0944 104.832 41.3692 108.183 42.0872C108.367 42.1146 108.555 42.0746 108.712 41.9743C108.869 41.8741 108.985 41.7205 109.037 41.5418C109.09 41.3632 109.076 41.1715 108.999 41.0021C108.921 40.8328 108.785 40.6972 108.615 40.6203C104.84 39.4778 100.664 43.7315 103.103 44.1639Z" fill="#001434"/>
<path d="M62.1481 61.3258C61.3003 61.0424 60.3837 61.0395 59.5342 61.3176C58.6846 61.5956 57.9472 62.1399 57.4311 62.8698C57.3958 63.046 57.423 63.229 57.5081 63.3872C57.5932 63.5455 57.7308 63.6691 57.8972 63.7368C58.0637 63.8045 58.2486 63.812 58.4199 63.758C58.5913 63.704 58.7385 63.592 58.8362 63.4411C59.1331 63.1428 59.4952 62.9175 59.894 62.783C60.2929 62.6485 60.7175 62.6085 61.1344 62.6662C61.5513 62.7238 61.9492 62.8775 62.2966 63.1151C62.644 63.3528 62.9314 63.6679 63.1362 64.0355C63.2041 64.1471 63.2993 64.2397 63.4127 64.3045C63.5261 64.3693 63.6541 64.4043 63.7847 64.4061C65.4831 63.9969 64.1784 62.4066 62.1481 61.3258Z" fill="#001434"/>
<path d="M50.5989 37.5323C46.2371 40.2652 48.8233 47.9313 54.8758 47.5684C59.7395 48.0162 64.966 43.0213 62.0864 38.3507C62.4428 38.1794 62.7388 37.904 62.9353 37.5609C63.1319 37.2178 63.2196 36.8231 63.187 36.429C63.1544 36.0349 63.0029 35.66 62.7526 35.3539C62.5023 35.0478 62.165 34.8248 61.7853 34.7145C63.3293 32.2286 59.6854 30.4453 58.4116 32.6301C55.1306 30.9394 52.4208 33.8962 54.7369 37.0846C55.4625 38.0496 55.7405 38.8602 55.5089 39.4006C55.3918 39.59 55.2352 39.7519 55.0497 39.8752C54.8642 39.9984 54.6543 40.08 54.4343 40.1145C54.2143 40.149 53.9894 40.1354 53.7751 40.0748C53.5609 40.0142 53.3622 39.908 53.1928 39.7634C53.053 39.6478 52.9404 39.5027 52.8631 39.3386C52.7857 39.1745 52.7454 38.9953 52.7451 38.8139C52.7419 38.5632 52.6746 38.3175 52.5495 38.1002C52.4244 37.883 52.2456 37.7014 52.0304 37.5729C51.8151 37.4444 51.5705 37.3732 51.3199 37.3661C51.0693 37.3589 50.8211 37.4162 50.5989 37.5323ZM56.9216 40.0028C58.1491 37.9878 54.3817 35.5174 55.7173 33.9888C56.196 33.5411 57.2613 33.487 58.3807 34.4829C58.4917 34.5709 58.6247 34.6267 58.7653 34.6442C58.9059 34.6616 59.0485 34.6401 59.1777 34.5819C59.3068 34.5237 59.4174 34.4311 59.4975 34.3143C59.5775 34.1974 59.6238 34.0608 59.6314 33.9193C59.5233 33.2863 60.2644 32.9235 60.6041 33.4561C60.6968 33.6723 60.5038 34.1355 59.8321 34.645C59.7131 34.7467 59.6278 34.8822 59.5876 35.0335C59.5474 35.1848 59.5541 35.3447 59.6068 35.4921C59.6596 35.6395 59.7559 35.7673 59.883 35.8587C60.0101 35.9501 60.162 36.0007 60.3185 36.0038C61.2372 36.0038 61.8625 36.274 61.6849 36.8375C61.5768 37.0151 61.2217 37.1849 60.5964 37.1386C60.4286 37.1356 60.2644 37.1875 60.1287 37.2862C59.9929 37.3849 59.8931 37.5252 59.8442 37.6857C59.7953 37.8463 59.8001 38.0184 59.8578 38.176C59.9156 38.3336 60.0231 38.4681 60.1641 38.5591C62.7812 40.4968 60.8589 45.0748 57.6319 45.677C52.2278 47.7614 47.5958 42.5118 51.3014 38.9065C51.2551 41.9251 55.8717 42.5967 56.9216 40.0028Z" fill="#001434"/>
<path d="M62.6886 32.8773C63.7231 33.2247 63.862 31.8736 64.001 31.1634C64.1091 30.6153 64.3716 30.098 63.8234 29.7429C63.0128 29.3492 62.6114 29.9745 62.511 30.87C62.4338 31.588 61.8085 32.4913 62.6886 32.8773Z" fill="#001434"/>
<path d="M114.174 111.892C113.657 106.11 105.682 107.785 100.347 109.329C100.347 107.105 100.61 104.658 100.579 104.481C113.016 104.373 122.573 99.3236 122.65 85.8289C127.692 83.3122 132.617 78.6878 132.617 71.9328C132.617 66.8144 130.301 65.0387 126.04 65.4093C125.953 64.5472 125.742 63.7021 125.414 62.9003C136.493 59.3336 136.832 44.4184 134.678 32.4986C135.718 31.3149 136.272 29.782 136.229 28.2072C136.186 26.6323 135.549 25.1319 134.447 24.0066C137.535 23.829 138.392 19.3282 134.756 19.3205C135.96 14.7811 131.034 13.8083 130.201 17.5063C129.74 17.1908 129.218 16.9773 128.668 16.88C128.119 16.7827 127.555 16.8038 127.014 16.9419C126.473 17.08 125.968 17.3319 125.532 17.6809C125.097 18.0298 124.741 18.4678 124.488 18.9654C115.78 16.0008 110.777 17.5294 99.4053 15.8773C94.5494 15.1516 90.5659 16.1552 87.7558 18.286C82.5833 22.2078 85.1772 28.2758 81.765 33.6798C80.3908 26.863 81.3713 14.5649 71.1267 16.8501C60.7355 18.093 47.6577 20.9957 37.7451 23.0724C24.6596 24.354 31.6231 40.1724 32.2639 49.8148C31.9406 48.7892 31.3552 47.8658 30.5655 47.1359C28.952 45.9084 21.6333 45.3757 19.1398 46.8194C17.7193 47.5914 17.7424 49.6912 17.5957 51.1889C17.7038 51.8992 17.9277 51.9609 19.0317 52.8024C19.078 55.049 19.1243 58.5616 19.4563 61.6265C15.5962 62.3985 16.1752 66.5982 19.4563 68.204C19.2478 75.9781 20.1511 88.3379 19.989 96.6679C15.9128 96.0271 12.6086 95.6488 10.9333 96.0657C7.5828 96.884 6.37847 102.682 8.06917 105.924C7.8144 106.526 8.12321 107.105 6.63323 107.221C3.32904 107.476 2.84268 108.866 6.21635 109.645C9.13454 110.309 13.8206 110.34 17.0245 109.074C18.1747 108.626 18.6457 107.584 17.6961 107.43C21.1392 106.658 23.3395 106.936 25.5629 105.307C27.7245 103.207 27.6241 98.4821 24.4203 97.409L21.4944 96.9149C21.6488 88.4229 20.8382 77.4604 20.9462 69.169C22.3127 70.0491 24.1424 71.2225 26.1882 72.5195C26.4121 79.1356 25.5474 89.8819 26.0183 96.1738C26.0244 96.2752 26.0504 96.3744 26.0948 96.4657C26.1392 96.5571 26.2012 96.6387 26.2772 96.7061C26.3532 96.7735 26.4417 96.8253 26.5377 96.8585C26.6337 96.8916 26.7353 96.9056 26.8367 96.8995C26.938 96.8934 27.0372 96.8674 27.1286 96.823C27.2199 96.7786 27.3016 96.7166 27.369 96.6406C27.4364 96.5646 27.4881 96.4761 27.5213 96.3801C27.5545 96.2841 27.5684 96.1825 27.5623 96.0812C27.0914 90.183 27.9252 79.73 27.7322 73.4922L38.6561 80.4403V82.7563C36.4404 82.6946 31.654 82.9416 31.2371 85.3348C31.0595 86.0142 31.5305 88.2993 32.0091 90.6385C29.006 92.2366 31.0209 96.0426 31.5073 100.59C29.4074 102.767 29.9633 101.864 32.5186 115.659C32.6089 116.146 32.8173 116.604 33.1255 116.991C33.4338 117.379 33.8324 117.685 34.2865 117.883C36.4868 118.894 40.7482 119.126 42.0066 116.462C43.3422 111.56 43.6433 103.824 43.6047 102.759C43.5842 102.435 43.4866 102.12 43.3202 101.84C43.1537 101.561 42.923 101.326 42.6474 101.153C43.2032 95.8959 43.705 93.9118 42.9948 92.2211C43.2032 87.8979 45.249 83.8526 40.1924 82.957V81.413C42.9021 83.1269 43.5892 83.6364 45.5964 84.8793C46.0751 86.4774 43.2187 125.657 46.8085 118.709C46.1137 111.583 47.0633 94.2747 47.1096 85.7517C53.4478 89.7507 58.3963 87.4733 64.7191 84.3698C62.8431 86.4156 61.1755 88.307 60.6043 89.0019C58.2882 89.9977 52.8379 88.9324 52.4673 92.5608C52.0813 97.1465 65.8462 108.449 73.0027 108.433C77.9667 108.109 80.2364 102.419 82.6759 99.725C87.0378 102.682 93.0208 104.272 99.0271 104.45C99.0271 104.789 98.7877 107.237 98.7877 109.306C94.4877 107.075 86.6749 104.928 84.4979 109.699C84.2984 110.348 84.3584 111.048 84.6652 111.653C84.9719 112.258 85.5015 112.72 86.1423 112.942C88.1649 113.822 90.4809 111.583 89.2303 109.8C88.4583 108.758 86.6518 108.904 86.3661 110.247C86.3667 110.418 86.4235 110.583 86.5277 110.718C86.6319 110.852 86.7777 110.949 86.9425 110.992C87.1072 111.035 87.2815 111.023 87.4384 110.956C87.5953 110.89 87.7258 110.774 87.8098 110.626C88.0954 110.626 88.1109 110.996 87.9719 111.182C87.7997 111.395 87.5571 111.539 87.2878 111.589C87.0186 111.639 86.7402 111.592 86.5029 111.455C86.2656 111.318 86.0849 111.101 85.9933 110.843C85.9017 110.585 85.9053 110.303 86.0033 110.047C88.3193 107.036 93.4532 108.572 97.4985 110.332C78.2909 117.69 91.3996 129.185 93.2138 120.369C92.9745 116.3 88.3888 117.512 89.485 120.577C89.5784 120.731 89.7225 120.847 89.8925 120.906C90.0624 120.965 90.2476 120.962 90.416 120.899C90.5844 120.836 90.7254 120.716 90.8148 120.56C90.9042 120.404 90.9363 120.221 90.9055 120.044C90.7666 119.589 90.7897 119.272 91.168 119.272C92.0713 119.766 91.747 121.897 90.396 121.951C89.624 122.082 88.9987 121.55 88.7362 120.492C88.3579 115.736 94.7733 113.127 99.1043 111.344C99.2348 111.467 99.404 111.54 99.5829 111.552C101.505 112.664 110.198 120.423 104.871 122.059C102.625 122.144 102.771 119.326 104.686 119.82C104.763 119.928 104.779 120.145 104.593 120.145C104.388 120.145 104.192 120.226 104.047 120.371C103.903 120.516 103.821 120.712 103.821 120.917C103.821 121.121 103.903 121.318 104.047 121.463C104.192 121.607 104.388 121.689 104.593 121.689C104.914 121.699 105.231 121.615 105.506 121.448C105.78 121.28 105.999 121.037 106.137 120.747C107.295 117.142 101.235 117.659 101.721 121.141C103.96 127.463 115.1 121.141 101.081 110.718C105.388 109.614 111.889 107.924 112.661 111.722C112.632 111.977 112.507 112.21 112.312 112.377C112.117 112.543 111.867 112.629 111.611 112.618C110.924 112.718 110.53 111.846 111.07 111.846C111.218 111.953 111.399 112.006 111.581 111.992C111.764 111.979 111.935 111.902 112.066 111.774C112.197 111.646 112.278 111.476 112.295 111.294C112.312 111.112 112.264 110.93 112.159 110.78C111.217 109.723 109.071 110.657 109.302 112.139C109.488 114.957 113.996 114.594 114.174 111.892ZM116.899 90.4378C104.763 98.9299 86.9529 89.0636 84.5365 75.1366C85.1057 74.7505 85.6451 74.3222 86.15 73.8551C90.1335 79.0275 101.683 91.233 107.828 84.2617C109.897 87.1336 114.004 87.9211 117.756 87.3884C117.66 88.4488 117.369 89.4826 116.899 90.4378ZM69.0346 70.1572C68.5405 70.7053 67.1895 70.7516 67.4906 71.7475C68.1236 72.9981 69.6059 71.6626 70.4088 70.9755C71.4454 71.4144 72.5645 71.6251 73.6898 71.5931C71.0186 73.994 59.0757 80.2241 55.4473 79.9153C51.3325 79.6374 46.1832 75.237 42.3231 73.5463C38.8568 72.0717 36.0776 69.6862 39.5516 67.9261C42.1301 66.5905 51.9037 63.4407 56.9835 61.943C61.4149 60.013 63.9316 61.0861 67.4211 63.0624C66.8441 64.2491 66.6857 65.5962 66.9716 66.8844C67.2576 68.1726 67.9711 69.3261 68.996 70.1572H69.0346ZM68.9651 67.8411C68.9651 65.5946 72.9101 65.4479 74.0526 65.5251C74.2496 65.5255 74.4393 65.4505 74.5828 65.3156C74.7263 65.1807 74.8128 64.996 74.8246 64.7994C74.9173 63.3017 70.1926 63.9348 68.332 65.6409C67.7916 62.6069 72.9641 62.082 73.2575 62.2904C73.4587 62.3077 73.6587 62.2455 73.8146 62.117C73.9704 61.9886 74.0697 61.8041 74.0912 61.6033C73.9059 60.4453 73.3192 60.7618 71.8447 60.8313C76.4767 58.662 85.3394 58.8858 86.5128 58.9244C86.59 59.0248 86.6749 59.1175 86.7599 59.2101C84.799 60.2137 84.4438 62.6301 85.5478 64.5601C84.22 65.5869 83.6101 66.8761 84.0038 68.4201C83.3468 69.0821 82.7306 69.7833 82.1587 70.52C78.3913 69.6245 71.0418 71.5313 68.9265 67.8025L68.9651 67.8411ZM90.8052 40.404C94.8428 39.9871 95.7692 37.4549 95.7306 36.845C96.4178 36.858 97.1049 36.8115 97.7841 36.7061C99.8145 38.8754 103.597 39.3695 110.221 38.3582C111.866 39.8482 114.081 41.8013 117.115 41.6855C117.51 45.4892 117.375 49.3293 116.714 53.0958C116.459 57.3882 113.726 59.2719 116.606 62.3599C112.159 65.8108 105.612 66.521 104.084 66.6445C102.436 64.8802 100.505 63.4033 98.3709 62.275C104.724 56.3382 99.3899 54.0376 93.4068 59.5343C91.8705 58.7995 90.1579 58.5131 88.466 58.7083C82.151 52.8102 84.328 41.508 89.7552 35.0077C90.7666 36.0267 92.3492 36.5517 94.2715 36.7833C94.1943 36.9686 93.4377 38.7133 90.7434 38.9217C90.5846 38.9748 90.4474 39.0781 90.3524 39.2159C90.2574 39.3538 90.2098 39.5188 90.2167 39.6861C90.2237 39.8534 90.2849 40.0139 90.391 40.1434C90.4971 40.2729 90.6425 40.3643 90.8052 40.404ZM96.6724 61.7037C95.4907 61.5195 94.2875 61.5195 93.1058 61.7037C96.078 59.3105 98.394 57.4885 99.7296 57.7896C99.8994 58.2374 98.5793 60.1597 96.6724 61.7037ZM92.0944 60.5534C91.3224 61.2405 90.5504 61.9044 90.0255 62.4294C88.9269 62.757 87.8557 63.1699 86.8216 63.6646C84.7835 59.7042 90.1953 59.7814 92.0944 60.5534ZM84.6909 69.694C84.8901 69.9432 85.1068 70.178 85.3394 70.3965C85.2021 71.0544 85.2447 71.7371 85.4629 72.3728C79.9508 77.3368 81.6492 72.7048 84.6909 69.7248V69.694ZM119.894 66.7912C111.611 69.3774 104.03 74.9899 107.195 83.1192C103.682 85.8057 100.008 85.4352 94.2715 80.0775C90.1953 76.3641 85.9184 72.5118 86.9297 70.381C88.4737 66.274 94.2406 67.872 94.1711 66.1736C94.3333 64.6296 87.9488 65.7722 85.9801 68.8602C82.8921 64.7917 93.5149 62.6224 96.7188 63.2245C99.4439 63.4484 105.759 70.466 106.801 71.9405C107.365 72.7125 108.623 71.7938 108.006 71.0141C107.905 70.8828 106.894 69.5704 105.419 67.9724C108.206 67.6327 114.012 66.5287 118.08 63.0547C119.977 63.6165 121.987 63.683 123.917 63.2477C124.239 63.9839 124.447 64.7649 124.534 65.5637C122.96 65.8748 121.41 66.2953 119.894 66.8221V66.7912ZM125.692 19.8454C126.557 17.7533 129.104 17.7765 130.417 19.7296C130.527 19.8612 130.677 19.9525 130.844 19.9893C131.011 20.0261 131.186 20.0063 131.341 19.9329C131.495 19.8595 131.621 19.7368 131.699 19.584C131.776 19.4312 131.8 19.257 131.768 19.0889C131.359 17.5449 131.899 16.3174 132.98 16.7729C133.397 17.1203 133.621 18.1702 132.88 19.9921C132.828 20.1329 132.818 20.2857 132.852 20.4319C132.885 20.5781 132.961 20.7113 133.069 20.8153C133.177 20.9193 133.313 20.9896 133.46 21.0175C133.608 21.0454 133.76 21.0298 133.899 20.9726C135.088 20.409 136.13 20.8799 135.373 21.8604C134.848 22.4548 133.343 22.5475 132.517 22.4625C132.351 22.4579 132.187 22.5069 132.051 22.6024C131.915 22.6979 131.814 22.8347 131.762 22.9925C131.71 23.1504 131.71 23.3208 131.763 23.4784C131.815 23.6361 131.917 23.7726 132.054 23.8676C135.458 25.8053 135.975 31.1631 131.058 33.1703C130.569 32.7239 129.99 32.3875 129.36 32.1837C128.73 31.98 128.064 31.9136 127.406 31.9891C126.68 31.9891 126.595 31.9891 126.464 31.7575C125.92 30.9282 125.131 30.2883 124.207 29.926C123.284 29.5637 122.27 29.4969 121.307 29.7349C120.833 28.8504 120.597 27.8583 120.62 26.8553C123.307 28.1445 129.475 27.0869 126.418 22.9026C126.028 22.515 125.754 22.0267 125.626 21.4923C125.498 20.9579 125.521 20.3984 125.692 19.8763V19.8454ZM83.3939 33.7416C84.5842 31.7478 85.2335 29.478 85.2776 27.1564C85.5864 19.5058 91.4537 16.2016 99.1737 17.3133C110.437 19.2278 115.455 17.4522 124.017 20.4013C123.981 21.0383 124.073 21.6761 124.287 22.2768C124.502 22.8776 124.836 23.429 125.268 23.8985C125.436 24.0463 125.56 24.2376 125.627 24.4514C125.694 24.6652 125.7 24.8932 125.646 25.1105C124.411 27.0714 119.809 24.6396 119.609 25.1105C118.404 26.8089 119.354 29.5264 120.381 31.0704C120.48 31.2136 120.625 31.319 120.792 31.3695C120.958 31.42 121.137 31.4125 121.299 31.3483C121.987 31.0866 122.742 31.0638 123.444 31.2837C124.145 31.5036 124.752 31.9533 125.167 32.5604C126.835 34.5831 128.332 32.3906 130.293 34.6217C131.243 35.2624 132.563 34.1662 133.381 33.7339C135.62 46.3639 134.03 62.8154 120.566 62.0125C117.416 61.8272 116.243 60.6846 117.169 58.1524C118.559 53.2039 119.678 44.6114 118.281 40.2728C116.947 40.307 115.622 40.0482 114.398 39.5147C113.175 38.9811 112.084 38.1858 111.202 37.1847C111.106 37.0548 110.978 36.9517 110.83 36.8855C110.683 36.8192 110.521 36.792 110.36 36.8064C102.03 38.1266 99.745 36.7524 98.6874 35.4168C98.5978 35.3026 98.4779 35.216 98.3414 35.1668C98.2048 35.1177 98.0572 35.108 97.9154 35.1389C95.1361 35.6562 91.7393 35.1852 90.6971 33.6489C90.695 33.4987 90.6492 33.3524 90.5652 33.2278C90.4812 33.1033 90.3627 33.006 90.2242 32.9478C90.0857 32.8896 89.9332 32.8731 89.7855 32.9003C89.6377 32.9274 89.5011 32.9971 89.3924 33.1008C84.853 38.0417 82.344 45.5996 83.3399 51.8683C79.6188 47.5914 79.2714 41.4771 83.3939 33.7339V33.7416ZM37.9767 24.5778C46.0519 23.1188 57.053 19.9458 65.769 19.1738C70.1849 18.8032 75.8051 16.1398 77.9744 21.0498C63.1519 24.6242 48.1132 26.4538 31.3375 30.5532C31.8007 26.145 35.0508 25.0411 37.9767 24.5778ZM31.2989 32.1667C36.3864 30.7462 48.7385 28.2217 51.0082 27.9824C59.1915 27.1486 71.7598 23.6669 78.5148 22.5243C79.449 27.002 79.6806 31.5336 80.607 36.0653C80.3061 36.8536 80.0484 37.6577 79.835 38.474C79.3486 36.8296 79.7655 35.6484 78.6229 34.6989C77.4803 33.7493 75.0331 35.0231 73.7979 35.0385C69.0114 35.0926 70.1154 37.0844 70.6249 40.8981C72.0608 49.946 70.2312 49.9228 79.5184 47.6917C79.6188 48.1318 79.7423 48.5487 79.8736 48.9501C75.2415 50.2239 46.2063 58.2142 41.4353 59.4263C39.1193 60.0207 37.4132 59.9667 36.3246 59.241C34.3715 57.9517 34.3174 54.6089 34.0472 51.9841C33.3756 45.6382 31.7003 38.5049 31.2989 32.1667ZM72.084 37.9181C72.084 38.5203 72.4623 39.5625 73.3038 39.4621C74.0063 39.3927 75.1412 39.3618 75.0485 38.4199C74.9173 37.6865 74.1993 37.7097 73.6049 37.9027C73.6049 37.4086 73.4505 36.7061 72.8329 36.7061C73.9081 36.6178 74.9744 36.4422 76.0212 36.1811C76.6852 36.1116 77.2951 35.6562 77.7969 36.0344C77.9127 36.6366 78.0902 37.5784 78.2832 38.5898C76.0984 39.3618 73.9986 39.3618 71.9682 39.6629C71.8215 38.7365 71.6748 37.6943 71.5976 37.0149C71.7598 36.8528 72.2539 36.8296 72.5163 36.7601C71.9991 36.9068 71.9759 37.4858 72.084 37.9181ZM74.9868 41.1451C74.732 41.1992 74.346 41.3227 73.9677 41.4076C73.9339 41.2248 73.8352 41.0603 73.6898 40.9444C75.3429 40.8685 76.9785 40.5725 78.5534 40.0643C78.7156 40.929 78.8699 41.7164 78.9626 42.2105C77.8277 42.4575 76.4304 42.527 75.2338 42.6814C75.4375 42.6487 75.6199 42.5363 75.7408 42.3691C75.8617 42.2019 75.9112 41.9935 75.8784 41.7897C75.8457 41.586 75.7333 41.4037 75.5661 41.2828C75.3989 41.1619 75.1905 41.1124 74.9868 41.1451ZM72.6707 41.0679C72.2152 41.6855 72.6707 43.106 73.5585 43.0057C73.1571 43.1215 72.7865 43.245 72.4546 43.3608C72.3465 42.5888 72.2461 41.8168 72.1612 41.1374L72.6707 41.0679ZM73.5971 44.5883C73.1108 45.0206 73.4427 45.754 73.5971 46.2327C73.8905 47.3521 75.5735 46.7962 76.0521 46.3639C76.9322 45.5919 75.6816 44.5034 74.8787 45.2908C74.8787 44.9202 74.6548 44.457 74.2379 44.3953C75.7124 44.0401 77.4803 44.071 79.0552 43.7468C79.0463 44.5652 79.0979 45.3832 79.2096 46.194C77.4186 46.4565 75.4422 47.105 73.1648 47.5142C72.9873 46.7962 72.8251 45.8698 72.6707 44.8971C72.9178 44.8044 73.2343 44.6886 73.5817 44.5883H73.5971ZM29.5927 48.3248L29.639 48.3866C28.9983 49.6218 20.8613 48.8112 20.375 47.8847C22.4903 47.244 28.1259 47.2749 29.6004 48.3248H29.5927ZM19.1629 50.9728C19.1869 50.3212 19.267 49.6729 19.4022 49.035C21.5098 50.471 27.7322 51.4823 30.5886 49.5754C30.7422 50.2634 30.8352 50.9634 30.8665 51.6676C28.6663 52.98 22.0888 53.4278 19.1629 50.9728ZM20.5988 53.5281C23.131 54.4931 27.3153 54.2229 29.5618 53.7906C29.4769 56.7165 29.3997 59.4108 29.1064 63.294C29.0916 63.4694 29.0249 63.6365 28.915 63.7739C28.805 63.9114 28.6566 64.0131 28.4888 64.066C18.8541 66.081 21.0698 58.9553 20.5988 53.5281ZM9.36614 105.044C8.26989 102.558 9.1577 98.0961 11.3502 97.5403C14.5077 96.9921 16.3837 102.311 14.6698 104.55C12.8874 104.458 11.101 104.625 9.36614 105.044ZM23.1156 98.7214C25.972 98.7214 26.2036 102.682 24.5129 104.272C22.0502 105.492 19.657 105.523 15.3183 106.21C17.6884 103.987 16.9781 99.424 15.0636 97.5325C17.588 97.7796 20.7301 98.3123 23.1156 98.7214ZM37.5135 95.5099C38.9511 95.6029 40.3939 95.4409 41.775 95.0312C41.6358 97.8304 41.2848 100.615 40.7251 103.361C38.3663 103.764 35.9517 103.707 33.6149 103.191C33.0127 100.489 32.3411 96.6216 32.0709 94.4213C33.778 95.1955 35.6399 95.5679 37.5135 95.5099ZM32.9664 87.4347C34.9273 88.3379 40.1152 88.4306 41.9757 87.3884C41.8676 88.9324 41.6592 91.3719 41.2964 93.5644C40.1075 94.1511 35.8923 94.0894 34.2402 93.5644C33.6844 91.1558 33.2212 88.9015 32.9664 87.4347ZM40.5707 116.138C39.1116 117.628 34.5336 117.512 34.0472 115.42C32.7811 109.946 32.2253 106.218 31.9705 104.249C35.2191 105.433 38.7628 105.539 42.0761 104.55C41.9401 108.451 41.436 112.331 40.5707 116.138ZM41.7904 85.3194C41.8647 85.3877 41.9296 85.4656 41.9834 85.551C41.5743 86.9174 33.1362 86.9174 32.8352 85.4892C34.0704 83.8371 41.7364 84.2231 41.7904 85.3194ZM44.5851 82.4321C43.0951 81.4516 37.9072 78.1474 32.4106 74.6502C27.3925 70.852 13.6508 64.8457 19.85 63.0701C21.0698 65.5097 25.8099 66.5905 28.8902 65.502C29.3562 65.3625 29.7688 65.0849 30.0734 64.7058C30.3781 64.3267 30.5605 63.864 30.5963 63.3789C30.9129 59.2487 30.9823 56.5544 31.075 53.3428C31.3972 53.2089 31.6817 52.9982 31.9037 52.7291C32.1257 52.4599 32.2785 52.1406 32.3488 51.7988C32.3488 51.7988 31.5768 62.0974 38.5712 61.31C45.249 60.592 74.3383 51.6985 80.3831 50.3243C81.0138 51.8684 82.2211 53.1062 83.749 53.7752C84.1092 54.9958 84.6284 56.1638 85.2931 57.2492C81.3249 57.3032 71.3043 57.2492 68.0387 61.7809C64.9507 59.7196 61.3763 58.3532 56.4586 60.4993C51.2861 62.0434 41.4122 65.1314 38.7873 66.575C33.4373 69.5396 37.7606 73.2838 41.6824 74.9668C45.7508 76.7038 50.8229 81.1428 55.262 81.4439C59.7782 81.6137 73.9986 74.4958 75.504 71.6471C77.4726 71.6935 79.2791 71.7166 81.1088 71.8479C80.7725 72.4151 80.53 73.0329 80.3908 73.6775C74.5776 74.9513 71.5513 77.2133 67.7299 81.2741C59.6315 84.779 54.7293 90.0132 44.6083 82.4321H44.5851ZM75.2492 106.225C69.5673 110.163 53.0695 95.4172 53.9959 92.7307C53.9959 91.0708 58.1184 91.1249 60.0021 90.8084C63.0901 96.7142 72.9255 101.748 78.4376 102.913C77.4917 104.117 76.4317 105.226 75.2724 106.225H75.2492ZM92.3646 96.7605C84.7912 96.0812 82.9153 95.8882 79.4721 101.562C74.6394 100.79 64.5569 95.919 61.4535 90.2911C65.8462 85.7594 72.4005 76.2637 80.4912 75.1675C79.449 76.3409 80.275 77.1207 81.4176 75.9395C81.9763 76.1296 82.5866 76.0992 83.1237 75.8546C85.8643 89.2335 101.606 99.2541 114.575 93.3791C109.094 98.3045 99.5752 97.216 92.3878 96.7605H92.3646Z" fill="#001434"/>
<path d="M47.1947 50.6637C47.3259 51.7136 48.2523 52.9797 49.3949 52.9797C53.6641 51.8989 57.6554 50.8181 58.659 50.903C61.7933 50.903 65.7074 49.3127 67.7609 48.3631C69.1197 47.7378 69.3667 46.0471 69.166 44.8042C68.8649 40.4887 67.622 38.6281 66.904 34.2354C66.4717 31.5179 66.4022 26.6697 62.4032 27.5421C58.5432 29.642 42.331 28.6383 43.5431 34.1273C45.2955 41.7779 46.3609 42.6812 47.1947 50.6637ZM54.2894 30.7459C57.8175 30.5684 60.1489 29.6188 63.1366 28.9858C65.4526 29.0938 64.835 32.7145 65.4526 34.4824C65.8927 38.6436 67.1433 39.6472 67.5062 43.5998C67.622 44.6575 68.1546 46.4486 67.1742 46.989C61.8474 49.938 56.2503 49.1351 49.418 51.4666C49.2446 51.3647 49.0945 51.2276 48.9775 51.064C48.8605 50.9004 48.7791 50.7141 48.7387 50.517C48.2137 44.2947 46.6929 40.8052 45.0948 33.8571C44.5776 31.5951 52.3208 31.0779 54.3126 30.7459H54.2894Z" fill="#001434"/>
<path d="M64.6956 45.6691C64.222 45.7321 63.7421 45.6135 63.3523 45.3372C63.1772 45.2276 62.9658 45.1921 62.7646 45.2384C62.5634 45.2848 62.3888 45.4092 62.2792 45.5842C62.1697 45.7593 62.1342 45.9707 62.1805 46.1719C62.2268 46.3732 62.3512 46.5478 62.5263 46.6573C62.8968 46.9145 63.3158 47.0936 63.7577 47.1839C64.1997 47.2741 64.6553 47.2736 65.097 47.1823C65.2977 47.129 65.469 46.9983 65.5732 46.8187C65.6775 46.6392 65.7061 46.4256 65.6529 46.225C65.5997 46.0243 65.4689 45.853 65.2894 45.7488C65.1098 45.6446 64.8963 45.6159 64.6956 45.6691Z" fill="#001434"/>
<path d="M48.2599 38.4351C48.4391 38.4518 48.6186 38.4053 48.7671 38.3036C48.9157 38.202 49.0241 38.0516 49.0736 37.8785C49.123 37.7054 49.1105 37.5205 49.038 37.3557C48.9655 37.1909 48.8377 37.0566 48.6768 36.976C47.511 36.6827 47.2717 35.957 46.5383 36.783C46.1986 37.8947 46.9166 37.9102 48.2599 38.4351Z" fill="#001434"/>
<path d="M49.5878 34.6066C50.2766 35.0292 50.9007 35.5493 51.4406 36.1507C51.5845 36.2898 51.7769 36.3676 51.9771 36.3676C52.1773 36.3676 52.3697 36.2898 52.5137 36.1507C52.6551 36.0064 52.7344 35.8123 52.7344 35.6103C52.7344 35.4082 52.6551 35.2142 52.5137 35.0699C51.8476 34.343 51.0648 33.7324 50.1976 33.2634C50.034 33.2425 49.868 33.2746 49.7239 33.355C49.5799 33.4354 49.4654 33.5598 49.3972 33.71C49.329 33.8602 49.3107 34.0283 49.345 34.1897C49.3793 34.351 49.4644 34.4972 49.5878 34.6066Z" fill="#001434"/>
<path d="M64.3717 41.6548C64.8167 41.9112 65.2117 42.246 65.5374 42.643C66.1859 43.415 67.3439 42.3497 66.6722 41.624C66.2067 41.0446 65.6188 40.5753 64.9507 40.2498C64.7737 40.2115 64.5889 40.2366 64.4286 40.3208C64.2682 40.405 64.1426 40.5428 64.0736 40.7102C64.0046 40.8776 63.9967 41.0639 64.0512 41.2366C64.1056 41.4093 64.2191 41.5573 64.3717 41.6548Z" fill="#001434"/>
<path d="M68.2853 19.2895C68.2853 19.2895 66.6563 19.8222 66.4093 20.2931C66.332 20.6907 66.3628 21.1018 66.4986 21.4834C66.6344 21.865 66.8702 22.2031 67.1813 22.4625C67.3048 22.7558 70.4083 22.2232 70.0995 21.0343C69.8216 20.2623 69.2117 18.9885 68.2853 19.2895Z" fill="#001434"/>
<path d="M47.6882 61.5494C51.8261 61.0244 59.994 57.9132 63.4062 57.4654C64.7264 56.9559 72.0527 55.8133 71.2653 54.169C71.1782 53.9876 71.0238 53.8474 70.8349 53.7782C70.646 53.709 70.4376 53.7162 70.2539 53.7984C64.5179 56.0449 59.5462 56.4232 52.6753 58.8473C51.0011 59.4452 49.2625 59.8442 47.4952 60.0362C47.3184 60.0875 47.1658 60.2002 47.0648 60.3541C46.9638 60.5079 46.9212 60.6928 46.9444 60.8753C46.9677 61.0579 47.0555 61.2261 47.1918 61.3497C47.3282 61.4733 47.5042 61.5441 47.6882 61.5494Z" fill="#001434"/>
<path d="M129.367 21.8142C130.911 20.4169 128.487 19.4982 127.653 20.3397C126.819 21.1812 127.846 23.2116 129.367 21.8142Z" fill="#001434"/>
<path d="M73.5276 30.8697C76.7546 30.337 75.504 25.2186 72.2461 26.2917C68.7335 27.4497 70.6712 31.2711 73.5276 30.8697ZM73.8596 28.9011C73.5045 29.897 71.9141 29.1404 71.8833 28.5151C71.945 27.3571 74.4 27.4034 73.8596 28.9011Z" fill="#001434"/>
<path d="M77.542 31.6267C79.2713 30.8547 78.6537 28.5386 78.314 27.2957C77.542 23.9375 76.824 22.6019 73.35 24.0456C66.4019 25.7594 65.9233 23.4974 67.946 31.9741C69.2198 35.0775 76.8858 31.9046 77.542 31.6267ZM73.7978 25.4506C74.5698 25.3271 75.7973 24.4084 76.1833 25.3888C76.1833 26.323 77.8277 29.3647 76.9013 30.2062C75.5502 30.7234 72.6089 32.1979 69.351 31.4954C68.7566 29.3492 68.7566 28.4923 68.3397 26.5083C71.5204 25.8135 71.4972 26.2767 73.7978 25.4892V25.4506Z" fill="#001434"/>
<path d="M51.0545 48.1089L50.3751 48.9736C50.2823 49.1332 50.2498 49.3207 50.2834 49.5022C50.317 49.6837 50.4146 49.8472 50.5583 49.9629C50.7021 50.0787 50.8826 50.1391 51.0671 50.1333C51.2516 50.1274 51.4279 50.0556 51.564 49.9309L52.2743 49.0508C52.3845 48.8881 52.4286 48.6896 52.3976 48.4955C52.3665 48.3015 52.2626 48.1266 52.1071 48.0065C51.9516 47.8864 51.7561 47.8301 51.5605 47.8492C51.3649 47.8682 51.1839 47.9611 51.0545 48.1089Z" fill="#001434"/>
<path d="M74.4848 19.9538C76.2219 18.8652 74.2146 17.5451 73.157 19.1432C71.7211 17.6609 70.3314 19.4211 72.2692 20.3861C71.1189 21.822 72.9794 22.8874 73.5662 21.1581C75.0484 22.3779 76.438 20.5482 74.4848 19.9538Z" fill="#001434"/>
</svg>
