<svg width="154" height="154" viewBox="0 0 154 154" fill="none" xmlns="http://www.w3.org/2000/svg">
<path d="M24.9682 112.552C24.8072 112.659 15.2236 121.432 15.2236 121.432H40.4374L44.2965 112.872L24.9682 112.552Z" fill="white"/>
<path d="M37.1238 101.275L32.4336 105.677H47.3975L49.2775 101.084L37.1238 101.275Z" fill="#FFB43B"/>
<path d="M99.5029 102.136C99.5029 104.6 101.304 106.963 104.509 108.706C107.715 110.448 112.062 111.427 116.595 111.427C121.128 111.427 125.476 110.448 128.681 108.706C131.887 106.963 133.688 104.6 133.688 102.136C133.688 99.6714 131.887 97.3081 128.681 95.5656C125.476 93.8232 121.128 92.8442 116.595 92.8442C112.062 92.8442 107.715 93.8232 104.509 95.5656C101.304 97.3081 99.5029 99.6714 99.5029 102.136Z" fill="white"/>
<path d="M117.121 105.028C111.644 102.62 105.608 101.771 99.6787 102.574C99.6787 104.917 103.491 109.42 110.899 110.902C111.605 108.276 115.416 105.25 117.121 105.028Z" fill="#FFB43B"/>
<path d="M123.17 110.813C116.107 113.462 100.226 109.869 99.4159 102.573C90.7379 103.625 84.3394 107.833 84.3394 112.829C84.3394 118.702 93.1048 123.435 103.886 123.435C114.667 123.435 123.521 118.789 123.521 112.917C123.533 112.2 123.414 111.487 123.17 110.813Z" fill="#FFB43B"/>
<path d="M116.858 105.116C113.791 106.606 111.686 108.622 110.81 110.901C115.844 111.676 118.558 111.835 122.994 110.725C121.241 106.634 116.937 105.16 116.858 105.116Z" fill="white"/>
<path d="M116.947 105.116C119.6 106.266 121.791 108.272 123.17 110.813C127.671 109.613 133.597 107.318 133.597 102.662C131.142 102.094 123.818 102.046 116.947 105.116Z" fill="#FFB43B"/>
<path d="M133.776 102.573C133.689 102.487 133.689 102.573 133.776 102.573V102.573Z" fill="#FFE55D"/>
<path d="M133.777 102.573C134.028 106.846 127.165 110.328 122.995 110.725C123.072 110.712 126.325 114.943 117.122 121.069C121.205 122.875 125.632 123.772 130.095 123.698C140.876 123.593 149.642 118.965 149.642 113.092C149.642 104.852 134.997 102.898 133.777 102.573Z" fill="#FFE55D"/>
<path d="M123.258 110.813C119.205 111.811 114.978 111.871 110.898 110.989C109.228 114.886 112.83 118.75 117.032 120.803C119.522 119.251 124.17 116.475 123.258 110.813Z" fill="white"/>
<path d="M134.072 102.157V102.137C134.072 96.8029 126.232 92.4631 116.595 92.4631C106.959 92.4631 99.1196 96.8029 99.1196 102.137V102.259C90.4669 103.457 84.0415 107.78 84.0415 112.917C84.0415 118.974 92.9826 123.906 103.972 123.906C108.454 123.974 112.896 123.061 116.989 121.232C121.081 123.061 125.523 123.974 130.005 123.906C140.995 123.906 149.935 118.977 149.935 112.917C149.937 107.625 143.119 103.195 134.072 102.157ZM116.99 120.413C113.248 118.563 109.895 115.32 111.078 111.316C114.977 112.022 118.976 111.972 122.856 111.169C124.167 115.206 120.818 118.52 116.99 120.413ZM111.342 110.593C112.226 108.574 114.232 106.784 116.99 105.42C119.685 106.753 121.661 108.493 122.574 110.454C118.871 111.191 115.063 111.238 111.342 110.593ZM110.584 110.447C104.769 109.248 100.517 106.362 99.9508 102.921C105.241 102.314 111.293 102.892 116.147 105.027C113.433 106.478 111.461 108.348 110.584 110.447ZM117.834 105.027C122.459 102.993 128.163 102.375 133.253 102.841C132.761 106.173 128.815 108.996 123.327 110.289C122.422 108.254 120.479 106.441 117.834 105.027ZM99.8864 102.137C99.8864 97.2254 107.382 93.2299 116.595 93.2299C125.773 93.2299 133.245 97.1947 133.304 102.08C127.957 101.587 121.873 102.277 116.99 104.604C111.949 102.201 105.546 101.51 99.8864 102.162V102.137ZM103.973 123.142C93.4066 123.142 84.8098 118.556 84.8098 112.919C84.8098 108.165 90.9307 104.155 99.1917 103.018C99.8051 106.748 104.252 109.873 110.329 111.17C109.117 115.325 112.323 118.768 116.147 120.808C112.289 122.404 108.147 123.197 103.973 123.139V123.142ZM130.007 123.142C125.833 123.199 121.691 122.405 117.834 120.808C121.768 118.707 124.94 115.179 123.6 111.001C129.35 109.604 133.491 106.541 134.014 102.922C142.664 103.907 149.17 108.015 149.17 112.919C149.17 118.554 140.574 123.139 130.007 123.139V123.142Z" fill="#4B1010"/>
<path d="M108.268 93.3702C108.171 93.4429 108.09 93.5349 108.029 93.6404C107.969 93.7459 107.931 93.8628 107.918 93.9836C107.918 94.2466 108.268 94.4222 108.531 94.5096C108.864 94.5499 109.202 94.5158 109.52 94.4097C109.839 94.3036 110.129 94.1282 110.372 93.8962C110.858 93.4218 111.245 92.8558 111.511 92.2308C112.913 93.3702 115.894 95.2978 117.734 94.6844C117.909 94.597 118.172 94.5096 118.26 94.334C118.301 94.2945 118.335 94.2469 118.357 94.1942C118.38 94.1414 118.391 94.0847 118.391 94.0273C118.391 93.9699 118.38 93.9132 118.357 93.8604C118.335 93.8077 118.301 93.7601 118.26 93.7206C117.884 93.3854 117.433 93.1449 116.946 93.019C117.548 91.4135 116.729 90.192 115.806 88.8993C115.491 88.508 115.104 88.1808 114.666 87.9355C113.824 87.6213 112.901 87.5972 112.044 87.8671C111.186 88.137 110.443 88.6854 109.933 89.4253C109.583 89.9513 109.683 90.6567 109.494 91.2655C109.234 92.0435 108.817 92.7599 108.268 93.3702Z" fill="white"/>
<path d="M76.9763 93.545C80.7228 93.5073 84.4218 92.702 87.8449 91.1788C89.5691 90.4517 91.239 89.602 92.8418 88.6362C93.982 87.937 95.471 86.3575 96.8734 87.059C97.4178 87.3707 97.8945 87.7877 98.2758 88.2858L99.8538 90.0394C101.959 89.4127 104.143 89.0879 106.34 89.0748C108.132 82.9838 108.245 82.8381 108.619 80.7479C109.481 75.7678 108.382 70.6474 105.552 66.4596C104.435 64.5435 102.909 62.8975 101.082 61.639C99.2602 60.3858 97.0626 59.7978 94.8584 59.9736C93.2112 60.2271 91.6841 60.9882 90.49 62.1508C89.2958 63.3135 88.4942 64.8197 88.1969 66.4596C88.0528 68.4382 88.2605 70.4267 88.8103 72.3329L89.6867 76.0133C85.8299 76.8022 81.7999 79.3478 78.4668 81.5338C75.9266 83.2023 72.8266 85.2909 71.6297 88.1961C71.2931 89.0369 71.2867 89.9738 71.612 90.8191C71.9372 91.6643 72.5699 92.3554 73.3833 92.7537C74.5008 93.3 75.7327 93.5713 76.9763 93.545Z" fill="#FFB43B"/>
<path d="M81.7963 55.6783C81.2885 55.8209 80.8125 56.059 80.3939 56.3798C80.0504 56.7233 80.5419 56.0018 74.2599 65.9335C73.6491 64.2029 72.9468 62.506 72.1559 60.85L68.9126 55.1523C69.3222 56.5296 69.2916 58.0003 68.8252 59.3594C67.8598 62.4494 63.9885 63.4861 62.1637 61.113C62.0755 60.9374 61.9881 60.9374 61.8125 60.9374C62.1661 61.632 62.4312 62.3682 62.6015 63.1288C63.7102 65.8036 65.1858 68.3112 66.9858 70.5793C67.8751 71.7516 68.873 72.8375 69.9661 73.8226C70.9841 74.613 72.1046 75.2616 73.2969 75.751C73.8274 76.0565 74.4536 76.1504 75.0504 76.014C75.6776 75.6756 76.2411 75.2306 76.7158 74.699C77.999 73.3337 79.1713 71.8681 80.2214 70.3163C81.0004 69.1661 82.5009 67.4241 82.7639 66.0225C86.3017 73.0988 86.8944 75.0617 88.2845 76.4503C89.386 77.1677 90.6533 77.5901 91.9649 77.6771C91.3204 76.3015 90.8211 74.8624 90.4751 73.3833C89.8755 70.5049 89.4492 67.0837 90.6507 64.3548C91.4573 62.5215 93.2799 61.024 95.2964 61.1989C96.3156 61.3791 97.277 61.7997 98.1012 62.4257C99.9278 63.7331 101.527 65.3322 102.834 67.1588C103.553 68.1993 103.465 68.999 103.711 70.1392C103.993 71.4495 104.607 72.5881 104.938 73.9085C105.575 76.4503 105.693 78.394 106.778 83.0244C107.44 85.6537 107.966 88.3153 108.356 90.9986C109.316 89.8772 110.539 89.0104 111.915 88.4754C113.292 87.9403 114.779 87.7535 116.245 87.9316C116.76 87.9329 117.258 88.1196 117.647 88.4576C116.771 87.756 116.254 85.9112 115.807 84.8638C115.211 83.4886 114.684 82.0841 114.23 80.6559L109.671 63.3918C109.232 61.8138 109.057 60.1484 108.531 58.5712C108.237 57.5295 107.66 56.5893 106.866 55.8538C105.88 55.0601 104.699 54.5453 103.447 54.3633C100.993 53.7499 98.4485 52.9701 95.9965 52.4349C95.2067 52.2624 94.2437 52.1719 94.0681 51.3829C94.2498 51.846 94.3357 52.3411 94.3207 52.8384C94.3057 53.3356 94.19 53.8246 93.9807 54.2759C92.8704 55.9405 90.1124 55.0925 90.3003 53.2239C90.3003 52.1719 90.206 52.3283 88.9853 52.7861C86.5149 53.7116 84.2468 54.8762 81.7963 55.6783Z" fill="#FFE55D"/>
<path d="M15.3903 121.432C15.3903 121.432 6.3365 129.538 4.57298 131.274C2.80946 133.009 4.62818 133.834 6.14175 133.861C7.65531 133.889 30.1701 133.943 31.7665 133.971C32.6454 133.986 33.51 133.747 34.2567 133.283C35.0035 132.82 35.6009 132.151 35.9775 131.356C36.7757 129.593 40.4369 121.434 40.4369 121.434L15.3903 121.432Z" fill="#FFB43B"/>
<path d="M49.8025 97.6333H41.6979C41.2906 97.6121 40.8831 97.6721 40.4991 97.8098C40.1152 97.9475 39.7624 98.1601 39.4613 98.4353L4.12648 131.228C3.87068 131.471 3.69418 131.786 3.62011 132.131C3.54603 132.476 3.57782 132.835 3.71132 133.161C3.84482 133.488 4.07381 133.766 4.36829 133.96C4.66277 134.155 5.00902 134.255 5.36171 134.249L32.5522 134.255C33.3309 134.243 34.0899 134.008 34.7393 133.579C35.3888 133.149 35.9014 132.542 36.2165 131.83L50.6543 99.097C50.7422 98.9485 50.7889 98.7792 50.7895 98.6066C50.7901 98.434 50.7447 98.2644 50.6579 98.1152C50.5711 97.9661 50.446 97.8428 50.2957 97.758C50.1453 97.6733 49.975 97.6303 49.8025 97.6333ZM40.1016 121.123H16.1414L24.6715 113.208C24.7482 113.221 24.009 113.213 43.5918 113.213L40.1016 121.123ZM46.9716 105.552C46.8605 105.504 47.7698 105.521 32.9532 105.521L37.227 101.554H48.7375L46.9716 105.552ZM35.5179 131.513C35.2526 132.118 34.8118 132.629 34.2525 132.98C33.6932 133.332 33.0413 133.507 32.3812 133.483H5.36171C5.1617 133.49 4.96455 133.435 4.79653 133.326C4.6285 133.217 4.49759 133.06 4.42122 132.875C4.34485 132.69 4.32666 132.486 4.36907 132.291C4.41148 132.095 4.51248 131.917 4.6586 131.78L15.3164 121.889H39.7665L35.5179 131.513Z" fill="#4B1010"/>
<path d="M68.8255 98.1906L67.7735 95.2103C67.6979 94.9712 67.5449 94.764 67.3387 94.6213C67.1324 94.4786 66.8846 94.4085 66.6342 94.4221L58.7451 94.3339C58.4378 94.3292 58.1385 94.4316 57.8985 94.6236C57.6586 94.8155 57.4929 95.0851 57.4301 95.3859L56.6411 98.4529C57.3404 98.4567 68.8255 98.1906 68.8255 98.1906Z" fill="#FFB43B"/>
<path d="M70.0697 102.393L55.7445 102.628L54.1328 108.266H72.1207L70.0697 102.393Z" fill="#FFB43B"/>
<path d="M74.6057 115.005H52.5157L50.3051 123.746C50.2738 123.869 50.2709 123.997 50.2967 124.122C50.3225 124.246 50.3762 124.363 50.4539 124.464C50.5269 124.579 50.6232 124.677 50.7365 124.751C50.8499 124.826 50.9777 124.877 51.1117 124.899H77.3131C77.5477 124.899 77.7685 124.899 77.9027 124.704C77.9688 124.609 78.011 124.5 78.0255 124.385C78.0401 124.271 78.0266 124.154 77.9863 124.046L74.6057 115.005Z" fill="#FFB43B"/>
<path d="M68.0462 95.0832C67.9436 94.7701 67.7421 94.4988 67.4721 94.31C67.202 94.1213 66.878 94.0253 66.5487 94.0366L58.7095 93.953C58.3189 93.913 57.927 94.0166 57.6073 94.2445C57.2875 94.4724 57.0617 94.809 56.972 95.1913L49.9525 123.71C49.9169 123.88 49.9169 124.056 49.9525 124.226C49.9881 124.396 50.0585 124.557 50.1593 124.699C50.2601 124.841 50.3891 124.96 50.5382 125.05C50.6874 125.139 50.8534 125.197 51.0259 125.219L77.1521 125.571C77.5097 125.57 77.8524 125.428 78.1051 125.175C78.3578 124.922 78.4998 124.579 78.5001 124.221C78.5024 123.99 78.4272 124.997 68.0462 95.0832ZM57.7081 95.3975C57.7527 95.1878 57.8735 95.0021 58.0472 94.8765C58.2209 94.7508 58.435 94.6941 58.6481 94.7174L66.5457 94.8048C66.716 94.7934 66.8852 94.8396 67.0261 94.936C67.1669 95.0324 67.2713 95.1733 67.3224 95.3362C67.6291 96.2159 67.9256 97.0691 68.2118 97.8956H57.0947L57.7081 95.3975ZM55.8472 102.957H69.9761C70.6025 104.746 71.1776 106.385 71.7082 107.888H54.6365L55.8472 102.957ZM77.1529 124.809L51.0895 124.463C50.9615 124.436 50.849 124.36 50.7759 124.252C50.7028 124.143 50.6748 124.01 50.6977 123.882L52.7404 115.589H74.4485C76.7963 122.111 77.5117 123.838 77.7279 124.29C77.7106 124.431 77.6432 124.56 77.5381 124.655C77.4331 124.749 77.2973 124.803 77.1559 124.805L77.1529 124.809Z" fill="#4B1010"/>
<path d="M66.5454 52.7853C65.9256 52.2712 65.2107 51.884 64.4414 51.6459C64.0692 51.5211 63.6757 51.4723 63.2842 51.5024C62.8928 51.5326 62.5114 51.6411 62.1627 51.8215C61.8997 51.9971 61.6367 52.1719 61.7241 52.523C61.8115 52.6979 61.8997 52.7853 61.9871 52.9609C62.4109 53.2533 62.887 53.4616 63.3895 53.5743C63.8103 53.8143 64.2501 54.0194 64.7044 54.1877C62.6388 53.3611 60.2872 55.015 60.5847 57.6932C60.5861 58.2586 60.6748 58.8203 60.8477 59.3586C60.9452 59.6242 61.1092 59.8603 61.324 60.0445C61.5388 60.2286 61.7971 60.3547 62.0745 60.4106C61.9579 64.1109 67.2776 63.4837 68.6486 60.0602C69.099 58.9495 69.2793 57.7478 69.1746 56.5538C69.0182 54.6247 67.9478 53.8373 66.5454 52.7853Z" fill="white"/>
<path d="M94.4185 52.9609C94.4269 53.4127 94.3081 53.8577 94.0757 54.2451C93.8434 54.6326 93.5067 54.947 93.1043 55.1523C92.6901 55.3307 92.2264 55.3583 91.794 55.2303C91.3615 55.1022 90.9876 54.8267 90.7373 54.4515C90.5294 54.0743 90.4096 53.6548 90.3869 53.2247L90.0358 51.4719C89.9927 51.3909 89.9702 51.3006 89.9702 51.2089C89.9702 51.1172 89.9927 51.0269 90.0358 50.9459L90.2987 50.6829C90.8407 50.3341 91.4318 50.0682 92.0523 49.8939C92.9302 49.6363 93.1165 49.8855 93.4547 50.4199C93.961 51.1847 94.2903 52.0528 94.4185 52.9609Z" fill="white"/>
<path d="M94.3318 48.2279C94.5851 48.3854 94.8806 48.4614 95.1784 48.4457C95.4762 48.4299 95.762 48.3231 95.9972 48.1397C96.4662 47.7878 96.8547 47.3397 97.1366 46.8255C97.6675 46.2051 98.003 45.4416 98.1012 44.6311C98.106 44.0364 98.0173 43.4446 97.8382 42.8775C97.3122 40.9491 96.642 38.9847 95.1208 37.7058C94.2496 37.0004 93.2145 36.5261 92.1113 36.327C91.0082 36.1278 89.8726 36.2102 88.8097 36.5664C83.2891 38.3299 80.0741 46.8838 84.7774 51.2052C87.5039 53.7132 91.9664 52.958 94.3318 48.2279Z" fill="white"/>
<path d="M84.5142 47.2089C84.4383 47.2089 84.3641 47.1863 84.3011 47.1442C84.238 47.102 84.1889 47.0421 84.1599 46.9719C84.131 46.9018 84.1234 46.8247 84.1383 46.7503C84.1532 46.6759 84.1898 46.6076 84.2435 46.5541C84.9501 45.8477 85.6127 45.0987 86.2278 44.3113C86.431 44.0936 86.2815 43.9042 86.0745 43.0615C86.0506 42.9632 86.0666 42.8594 86.1189 42.7728C86.1712 42.6861 86.2557 42.6237 86.3539 42.5991C86.452 42.5745 86.5559 42.5898 86.6429 42.6415C86.7299 42.6932 86.7929 42.7772 86.8182 42.8752C87.0651 43.8612 87.3412 44.2814 86.8052 44.8174C86.1814 45.6182 85.5081 46.3793 84.7894 47.0962C84.7534 47.1323 84.7104 47.1609 84.6632 47.1803C84.6159 47.1997 84.5652 47.2094 84.5142 47.2089Z" fill="#4B1010"/>
<path d="M100.646 39.1105C100.814 38.906 100.934 38.6662 100.997 38.4089C101.007 38.2815 100.966 38.1553 100.885 38.057C100.803 37.9588 100.686 37.8963 100.559 37.8829C100.615 37.7979 100.653 37.7021 100.67 37.6015C100.688 37.501 100.684 37.398 100.659 37.299C100.634 37.2 100.589 37.1073 100.527 37.0267C100.464 36.9461 100.386 36.8795 100.296 36.831C100.261 36.7978 100.22 36.7727 100.174 36.7576C100.129 36.7425 100.08 36.7377 100.033 36.7436C100.126 36.6373 100.191 36.5093 100.221 36.3715C100.252 36.2336 100.248 36.0903 100.208 35.9546C100.154 35.816 100.056 35.6987 99.9298 35.6199C99.8035 35.5411 99.6552 35.5049 99.5068 35.5168C99.5068 35.3412 99.5068 35.253 99.3312 35.253C99.4194 34.9977 99.4194 34.7201 99.3312 34.4648C99.3008 34.4031 99.2574 34.3489 99.2039 34.3057C99.1504 34.2625 99.0881 34.2315 99.0215 34.2148C98.9548 34.1981 98.8853 34.1961 98.8177 34.209C98.7502 34.2218 98.6863 34.2492 98.6304 34.2892C98.6711 34.1149 98.6495 33.9318 98.5694 33.7718C98.4893 33.6117 98.3557 33.4847 98.1918 33.4128H97.9288C97.9473 33.3379 97.9506 33.2601 97.9384 33.184C97.9263 33.1079 97.899 33.0349 97.8582 32.9695C97.8174 32.9041 97.7638 32.8475 97.7008 32.8032C97.6377 32.7588 97.5664 32.7275 97.491 32.7112C97.339 32.6882 97.1837 32.7194 97.0525 32.7994C97.0474 32.5833 96.987 32.3721 96.8769 32.186C96.8373 32.1445 96.7897 32.1115 96.737 32.089C96.6842 32.0664 96.6275 32.0548 96.5702 32.0548C96.5128 32.0548 96.4561 32.0664 96.4034 32.089C96.3507 32.1115 96.3031 32.1445 96.2635 32.186C96.2508 32.0861 96.2173 31.9899 96.1652 31.9036C96.1132 31.8174 96.0436 31.743 95.9611 31.6852C95.8786 31.6275 95.7849 31.5876 95.686 31.5682C95.5871 31.5488 95.4853 31.5503 95.3871 31.5726C95.2997 31.5726 95.2997 31.5726 95.2115 31.66C95.2575 31.6108 95.292 31.552 95.3128 31.488C95.3336 31.4239 95.34 31.356 95.3317 31.2892C95.3233 31.2223 95.3004 31.1581 95.2646 31.1011C95.2287 31.0441 95.1807 30.9957 95.1241 30.9592C95.0448 30.8981 94.9538 30.854 94.8568 30.8297C94.7598 30.8053 94.6587 30.8012 94.56 30.8176C94.4613 30.834 94.3671 30.8706 94.2831 30.925C94.1992 30.9794 94.1273 31.0506 94.0721 31.134C94.1112 31.0401 94.1151 30.9352 94.0829 30.8387C94.0508 30.7422 93.9849 30.6605 93.8973 30.6088H93.8091C93.6875 30.5693 93.5573 30.5647 93.4333 30.5957C93.3092 30.6266 93.1964 30.6917 93.1075 30.7836C92.9749 30.593 92.7935 30.4416 92.5823 30.345C92.3193 30.2576 92.1437 30.345 91.9689 30.6088C91.931 30.4846 91.8632 30.3717 91.7713 30.2799C91.6794 30.1882 91.5664 30.1205 91.4421 30.0828C91.1799 29.9946 90.9162 30.1702 90.9162 30.345C90.8709 30.2181 90.7878 30.1081 90.6782 30.0299C90.5685 29.9516 90.4375 29.9088 90.3028 29.9072C90.1924 29.9087 90.0861 29.9494 90.003 30.022C89.9198 30.0947 89.8652 30.1945 89.8488 30.3036C89.7315 29.8436 88.9763 29.8436 88.55 30.6962C88.1996 30.0828 87.5854 29.9946 87.235 30.6962C87.235 29.7316 85.8326 30.2576 85.92 30.7836C85.7452 29.819 84.7806 30.8718 84.868 30.9592C84.5176 30.6962 84.2546 30.5206 83.9042 30.9592C83.7287 31.134 83.4657 31.4852 83.7287 31.66C83.1643 31.2843 82.3071 31.7628 82.7648 32.449C82.6513 32.3693 82.5194 32.3196 82.3816 32.3043C82.2437 32.289 82.1041 32.3087 81.9759 32.3616C81.8457 32.4618 81.7562 32.6058 81.7239 32.7669C81.6916 32.928 81.7188 33.0953 81.8003 33.238C81.6785 33.1399 81.5307 33.0793 81.3751 33.0638C81.2195 33.0483 81.0627 33.0784 80.9239 33.1506C80.8605 33.1791 80.8043 33.2216 80.7597 33.2749C80.715 33.3282 80.6831 33.391 80.6662 33.4584C80.6493 33.5259 80.6479 33.5963 80.6621 33.6643C80.6763 33.7324 80.7058 33.7963 80.7483 33.8514C80.749 33.8728 80.7565 33.8935 80.7698 33.9104C80.6306 33.8699 80.4821 33.8747 80.3459 33.9243C80.2097 33.9739 80.0928 34.0656 80.0123 34.1862C79.9317 34.3067 79.8917 34.4498 79.8981 34.5946C79.9044 34.7395 79.9567 34.8785 80.0475 34.9915C79.9899 34.9685 79.9284 34.9571 79.8665 34.9578C79.8045 34.9586 79.7433 34.9716 79.6863 34.996C79.6294 35.0204 79.5778 35.0558 79.5345 35.1002C79.4912 35.1445 79.4571 35.197 79.4341 35.2545C79.4111 35.3121 79.3996 35.3736 79.4004 35.4356C79.4012 35.4975 79.4141 35.5587 79.4385 35.6157C79.463 35.6727 79.4984 35.7243 79.5427 35.7675C79.5871 35.8108 79.6395 35.8449 79.6971 35.8679C79.5768 35.9063 79.4679 35.9738 79.38 36.0644C79.2921 36.1551 79.2279 36.266 79.1932 36.3873C79.1584 36.5087 79.1542 36.6368 79.1808 36.7602C79.2075 36.8836 79.2642 36.9985 79.3459 37.0947C79.2826 37.1119 79.2232 37.1413 79.1713 37.1815C79.1193 37.2216 79.0758 37.2716 79.0433 37.3286C79.0107 37.3856 78.9897 37.4485 78.9815 37.5136C78.9733 37.5787 78.9781 37.6448 78.9955 37.7081C78.9996 37.832 79.0449 37.951 79.1242 38.0462C79.2035 38.1415 79.3123 38.2076 79.4333 38.2341C79.1711 38.4963 78.8199 38.7593 78.9955 39.1979C79.0162 39.2572 79.049 39.3115 79.0919 39.3574C79.1347 39.4033 79.1866 39.4397 79.2443 39.4645C79.302 39.4892 79.3642 39.5017 79.427 39.5011C79.4898 39.5004 79.5517 39.4868 79.6089 39.4609C79.5437 39.4761 79.4821 39.5043 79.428 39.5438C79.3739 39.5833 79.3282 39.6333 79.2938 39.6907C79.2593 39.7482 79.2368 39.812 79.2275 39.8784C79.2182 39.9447 79.2223 40.0123 79.2396 40.077C79.257 40.1417 79.2871 40.2023 79.3283 40.2552C79.3695 40.308 79.4209 40.352 79.4795 40.3846C79.538 40.4172 79.6025 40.4377 79.6692 40.4448C79.7358 40.452 79.8032 40.4457 79.8673 40.4263C79.3482 41.0527 80.3373 42.0433 81.0059 41.0397C80.7429 41.3901 81.2689 42.0035 81.6193 42.0909C81.799 42.0861 81.9725 42.024 82.1145 41.9136C82.2564 41.8033 82.3593 41.6505 82.4083 41.4775C82.4458 41.6502 82.549 41.8017 82.6961 41.8998C82.8431 41.998 83.0226 42.0351 83.1965 42.0035C83.3744 41.9411 83.5272 41.8227 83.632 41.6661C83.6372 41.7535 83.6643 41.8383 83.7108 41.9125C83.7573 41.9867 83.8217 42.0481 83.8981 42.0909H83.9855C84.214 42.1033 84.439 42.0316 84.6182 41.8894C84.7973 41.7471 84.9181 41.5441 84.9578 41.3188C84.9724 41.4736 85.0411 41.6184 85.1519 41.7276C85.2627 41.8369 85.4084 41.9036 85.5635 41.916H85.7391C85.9421 41.8794 86.1249 41.7704 86.2538 41.6092C86.3826 41.4481 86.4487 41.2458 86.4399 41.0397C86.4399 41.3026 87.7549 41.2145 87.7549 40.4263C87.7619 40.5956 87.8265 40.7574 87.938 40.885C88.0496 41.0126 88.2014 41.0983 88.3682 41.1278C88.5281 41.1397 88.688 41.1045 88.828 41.0266C88.9681 40.9486 89.0823 40.8314 89.1565 40.6892C89.2402 40.8616 89.3876 40.9946 89.5676 41.0601C89.7477 41.1257 89.9461 41.1186 90.121 41.0404C90.1665 41.0372 90.2092 41.0176 90.2413 40.9854C90.2735 40.9531 90.2928 40.9103 90.2959 40.8648C90.3779 41.0649 90.5297 41.2285 90.7232 41.3252C90.9166 41.4219 91.1385 41.4452 91.3478 41.3908C91.4352 41.3908 91.5234 41.3034 91.6108 41.3034C91.59 41.3849 91.5878 41.47 91.6042 41.5524C91.6207 41.6349 91.6554 41.7126 91.7059 41.7799C91.7564 41.8471 91.8213 41.9022 91.8959 41.941C91.9704 41.9799 92.0528 42.0014 92.1368 42.0042C92.252 42.0076 92.3666 41.9858 92.4725 41.9403C92.5784 41.8949 92.6732 41.827 92.7502 41.7412C92.7574 41.9105 92.8221 42.0723 92.9336 42.1999C93.0451 42.3274 93.1968 42.4131 93.3636 42.4428C93.5327 42.4415 93.6957 42.38 93.8237 42.2695C93.7703 42.3662 93.7481 42.477 93.7601 42.5868C93.772 42.6965 93.8175 42.8 93.8904 42.8829C93.9503 42.9367 94.0218 42.9758 94.0994 42.9972C94.1769 43.0187 94.2584 43.0218 94.3374 43.0064C94.2341 43.0559 94.1514 43.14 94.1038 43.2442C94.0562 43.3484 94.0466 43.466 94.0768 43.5765C94.107 43.687 94.1751 43.7835 94.2691 43.8489C94.3631 43.9144 94.4771 43.9448 94.5912 43.9349H94.6786C94.5812 43.9615 94.4925 44.0131 94.4211 44.0845C94.3498 44.1559 94.2983 44.2447 94.2717 44.3421C94.2451 44.4395 94.2444 44.5421 94.2697 44.6399C94.2949 44.7376 94.3452 44.8271 94.4156 44.8995C94.527 45.0168 94.6769 45.0902 94.8379 45.1062C94.9989 45.1223 95.1604 45.0799 95.2928 44.9869L95.3802 44.8995C95.327 44.9626 95.287 45.0356 95.2623 45.1144C95.2376 45.1931 95.2289 45.276 95.2365 45.3581C95.2441 45.4403 95.268 45.5201 95.3068 45.593C95.3455 45.6658 95.3984 45.7302 95.4623 45.7824C95.5261 45.8347 95.5998 45.8737 95.6788 45.8972C95.7579 45.9208 95.8409 45.9283 95.9229 45.9195C96.005 45.9107 96.0845 45.8857 96.1567 45.8459C96.229 45.8061 96.2927 45.7523 96.344 45.6877C96.4321 45.6003 96.4322 45.5129 96.5196 45.4255C96.5582 45.6063 96.643 45.7739 96.7659 45.9121C96.8887 46.0503 97.0453 46.1542 97.2204 46.2137C97.3944 46.2456 97.5741 46.2085 97.7213 46.1104C97.8685 46.0122 97.9718 45.8606 98.0094 45.6877V45.6003C98.1265 45.7386 98.2933 45.8253 98.4737 45.8416C98.6542 45.858 98.8339 45.8027 98.9739 45.6877C99.085 45.5933 99.1623 45.4653 99.194 45.323C99.2257 45.1808 99.21 45.0321 99.1495 44.8995C99.2369 45.1625 99.8503 44.0223 99.8503 44.0223C100.026 43.6719 100.639 43.2341 100.289 42.7081C100.74 42.8615 101.158 42.0019 100.376 41.4813C100.639 41.3939 100.815 41.2183 100.815 41.0435C100.818 40.9283 100.796 40.8139 100.751 40.708C100.705 40.6021 100.637 40.5073 100.552 40.4301C100.734 40.2645 100.846 40.035 100.864 39.7892C100.881 39.5434 100.803 39.3004 100.646 39.1105Z" fill="#FFB43B"/>
<path d="M91.9652 43.6144C91.9104 43.6144 91.8563 43.6028 91.8064 43.5801C91.7566 43.5575 91.7121 43.5245 91.6761 43.4833C91.4175 43.1794 91.078 42.955 90.6971 42.8363C90.3161 42.7175 89.9093 42.7092 89.5238 42.8124C89.4752 42.8256 89.4245 42.8291 89.3746 42.8228C89.3246 42.8164 89.2764 42.8003 89.2327 42.7753C89.189 42.7503 89.1506 42.7169 89.1198 42.6771C89.089 42.6373 89.0663 42.5918 89.053 42.5432C89.0398 42.4946 89.0363 42.4439 89.0426 42.394C89.049 42.344 89.0651 42.2958 89.0901 42.2521C89.1151 42.2084 89.1485 42.17 89.1883 42.1392C89.2281 42.1084 89.2736 42.0857 89.3222 42.0724C89.8465 41.9313 90.4001 41.9415 90.9188 42.1019C91.4376 42.2623 91.9003 42.5663 92.2535 42.9787C92.3019 43.0342 92.3333 43.1024 92.344 43.1752C92.3548 43.248 92.3443 43.3223 92.3139 43.3894C92.2835 43.4564 92.2345 43.5132 92.1726 43.5531C92.1108 43.593 92.0388 43.6143 91.9652 43.6144Z" fill="#4B1010"/>
<path d="M83.2874 43.0017C83.2115 43.0018 83.1372 42.9794 83.074 42.9373C83.0109 42.8951 82.9616 42.8352 82.9325 42.7651C82.9035 42.6949 82.8959 42.6178 82.9107 42.5433C82.9256 42.4688 82.9622 42.4005 83.016 42.3468C83.3536 42.0345 83.7798 41.8345 84.2359 41.7745C84.6919 41.7145 85.1554 41.7974 85.5623 42.0118C85.6076 42.0343 85.6481 42.0655 85.6813 42.1036C85.7146 42.1418 85.74 42.1861 85.7561 42.234C85.7722 42.282 85.7788 42.3326 85.7753 42.3831C85.7719 42.4336 85.7585 42.4829 85.736 42.5282C85.7135 42.5735 85.6823 42.6139 85.6441 42.6472C85.606 42.6804 85.5617 42.7058 85.5138 42.722C85.4658 42.7381 85.4151 42.7446 85.3647 42.7412C85.3142 42.7377 85.2649 42.7244 85.2196 42.7018C84.956 42.5611 84.6559 42.504 84.359 42.5381C84.0622 42.5722 83.7828 42.6959 83.558 42.8928C83.4857 42.9633 83.3884 43.0024 83.2874 43.0017Z" fill="#4B1010"/>
<path d="M83.8752 44.5782C83.7883 44.2983 83.8069 43.9964 83.9274 43.7293C84.0479 43.4622 84.262 43.2484 84.5292 43.1282C85.0513 43.0807 85.2415 43.6864 85.1641 44.2178C85.0299 45.1486 84.1788 45.2652 83.8752 44.5782Z" fill="#4B1010"/>
<path d="M89.584 45.2014C89.4973 44.9214 89.516 44.6194 89.6364 44.3522C89.7569 44.085 89.9709 43.8711 90.2381 43.7507C90.7602 43.7031 90.9504 44.3089 90.8737 44.841C90.7387 45.7711 89.8876 45.8876 89.584 45.2014Z" fill="#4B1010"/>
<path d="M28.4185 53.4869C30.4565 55.5249 36.9125 56.56 42.1808 53.3995C40.3008 50.3624 35.4334 42.3583 35.4334 42.3583C35.4334 42.3583 29.735 51.5071 28.4185 53.4869Z" fill="white"/>
<path d="M42.2646 53.5743C40.1951 54.9347 37.7727 55.6596 35.296 55.6596C32.8194 55.6596 30.397 54.9347 28.3275 53.5743C27.8559 54.3603 21.9006 62.9678 19.1265 68.1249C23.9108 71.1304 29.4364 72.7466 35.0862 72.7931C40.736 72.8395 46.2875 71.3144 51.1206 68.3879C45.3109 58.9523 48.1886 63.9531 42.2646 53.5743Z" fill="#FFB43B"/>
<path d="M51.6429 16.6722C50.6461 18.6704 42.4419 31.1347 42.4419 31.1347C48.7024 33.9172 48.6472 42.353 48.6648 42.4427C48.7415 42.4427 64.3832 42.2709 65.5824 42.4427C65.6402 37.3166 64.3907 32.2604 61.9517 27.7513C59.5127 23.2423 55.9648 19.4293 51.6429 16.6722Z" fill="#FFB43B"/>
<path d="M42.2643 31.1362C40.9087 33.1689 36.9293 39.3404 35.4272 42.1774C35.5039 42.1697 35.0722 41.9152 48.488 42.3522C48.488 36.7872 45.5299 32.5862 42.2643 31.1362Z" fill="white"/>
<path d="M48.4001 42.5302C48.3234 42.5264 35.7671 42.4535 35.6904 42.5302C37.4317 45.6739 40.3898 50.2743 42.3519 53.6626C43.0443 52.9702 48.4001 49.845 48.4001 42.5302Z" fill="#FFE55D"/>
<path d="M28.5903 31.0473C34.2919 40.3771 35.4274 42.3546 35.4274 42.3546C35.4274 42.3546 39.9029 34.8082 42.1748 31.3977C38.3863 28.6129 33.9974 28.3438 28.5903 31.0473Z" fill="#FFE55D"/>
<path d="M28.5027 31.2227C19.0717 15.7842 19.5149 16.311 19.4742 16.2335C15.0379 18.9229 11.3638 22.703 8.8014 27.2138C6.23903 31.7247 4.87373 36.8163 4.83545 42.004C16.0077 42.004 12.9852 42.1673 22.279 42.004C22.197 39.8034 22.7375 37.6243 23.8384 35.7172C24.9393 33.81 26.556 32.2522 28.5027 31.2227Z" fill="#FFB43B"/>
<path d="M35.1658 42.1774C32.5658 38.497 33.6093 39.1104 28.6791 31.2206C24.439 32.9166 21.7263 39.2898 22.1932 42.0892C33.9643 42.0915 23.3901 42.0363 35.1658 42.1774Z" fill="white"/>
<path d="M22.1924 42.1775C21.6319 44.697 23.0603 49.4463 28.3263 53.3973C28.801 52.9227 35.28 42.4466 35.339 42.3561C33.5456 42.2595 26.1526 42.1775 22.1924 42.1775Z" fill="#FFE55D"/>
<path d="M65.9506 41.3684C65.7739 35.3178 63.8181 29.4534 60.3275 24.508C56.837 19.5625 51.9666 15.7553 46.3248 13.562C40.6829 11.3686 34.5199 10.8864 28.6056 12.1756C22.6913 13.4648 17.288 16.4682 13.0708 20.8106C8.8536 25.153 6.00951 30.6418 4.89386 36.5913C3.7782 42.5408 4.44046 48.6871 6.79788 54.2624C9.1553 59.8377 13.1033 64.5946 18.1488 67.939C23.1942 71.2834 29.1133 73.0668 35.1664 73.0666C39.2851 73.0613 43.361 72.231 47.1535 70.6246C50.946 69.0183 54.3783 66.6684 57.2477 63.7138C60.1172 60.7592 62.3656 57.2596 63.8604 53.4218C65.3551 49.5839 66.0659 45.4854 65.9506 41.3684ZM41.8778 31.2895L35.4018 41.5562L29.0968 31.1231C31.0558 30.0309 33.2669 29.4716 35.5095 29.5008C37.7522 29.5299 39.9479 30.1467 41.8778 31.2895ZM42.5257 31.7004C44.2098 32.8361 45.6008 34.3548 46.5845 36.132C47.5683 37.9091 48.1168 39.8941 48.1851 41.9243H36.0704L42.5257 31.7004ZM34.7309 41.9273H22.4951C22.5662 39.8404 23.1445 37.8021 24.18 35.9887C25.2155 34.1753 26.677 32.6414 28.4382 31.5195L34.7309 41.9273ZM22.4921 42.6941H34.6834L28.1714 53.0168C26.4702 51.8737 25.0671 50.3403 24.0792 48.5446C23.0912 46.7489 22.5471 44.7429 22.4921 42.6941ZM35.388 43.0154L41.7275 53.5045C39.761 54.6334 37.5305 55.221 35.2631 55.2075C32.9956 55.194 30.7722 54.58 28.8193 53.4278L35.388 43.0154ZM36.0904 42.6941H48.1881C48.1322 44.769 47.5748 46.7994 46.5635 48.612C45.5522 50.4246 44.1171 51.9654 42.3808 53.1027L36.0904 42.6941ZM65.1954 41.9273H48.9526C48.8839 39.7676 48.3023 37.6552 47.2559 35.7647C46.2094 33.8741 44.7281 32.2597 42.9344 31.0548L51.6799 17.1936C55.7844 19.8958 59.163 23.5641 61.5195 27.8764C63.8759 32.1888 65.1381 37.0135 65.1954 41.9273ZM19.4672 16.6722L28.0418 30.857C26.1672 32.0476 24.612 33.6783 23.5115 35.6072C22.411 37.5361 21.7986 39.7047 21.7276 41.9243H5.13441C5.19484 36.8469 6.54116 31.8677 9.04762 27.4517C11.5541 23.0358 15.1389 19.3271 19.4672 16.6722ZM19.6428 67.9677L28.4098 54.0749C30.4831 55.3036 32.8457 55.9591 35.2556 55.9742C37.6656 55.9893 40.0362 55.3634 42.1247 54.1608L50.5275 68.065C45.8557 70.8539 40.5128 72.3185 35.0719 72.3016C29.6309 72.2847 24.2973 70.787 19.6428 67.9692V67.9677Z" fill="#4B1010"/>
<path d="M34.166 120.006H55.326L54.011 129.716H27.5728L34.166 120.006Z" fill="white"/>
<path d="M43.3732 106.725L39.291 112.788H56.3765L57.1662 106.725H43.3732Z" fill="white"/>
<path d="M38.8846 112.788L34.0396 120.057H55.4342L56.3765 112.788H38.8846Z" fill="#FFE55D"/>
<path d="M46.9738 102.264C46.7911 102.261 46.6106 102.304 46.4488 102.389C46.2869 102.474 46.149 102.598 46.0475 102.75L43.3716 106.725H57.2145L57.5258 103.098C57.5327 103.013 57.5222 102.928 57.495 102.848C57.4678 102.768 57.4243 102.694 57.3674 102.631C57.3105 102.568 57.2413 102.518 57.1641 102.482C57.0869 102.447 57.0033 102.428 56.9185 102.427L46.9738 102.264Z" fill="#FFE55D"/>
<path d="M27.3454 129.716L20.6532 139.544C20.4962 139.793 20.4066 140.077 20.3933 140.37C20.3801 140.664 20.4435 140.955 20.5775 141.217C20.7115 141.478 20.9113 141.7 21.1572 141.86C21.4031 142.02 21.6866 142.114 21.9797 142.131H49.4991C50.207 142.15 50.898 141.912 51.4438 141.461C51.9897 141.01 52.3533 140.376 52.4672 139.677L54.0106 129.718L27.3454 129.716Z" fill="#FFE55D"/>
<path d="M57.9877 103.011C57.9738 102.728 57.855 102.46 57.6544 102.26C57.4539 102.059 57.186 101.941 56.9028 101.927H47.0884C46.8022 101.937 46.5221 102.012 46.2695 102.147C46.017 102.282 45.7988 102.474 45.6316 102.706L20.2951 139.264C20.0792 139.573 19.9652 139.941 19.9692 140.318C19.9461 140.603 19.9817 140.889 20.0736 141.16C20.1656 141.43 20.312 141.679 20.5038 141.891C20.6957 142.102 20.9289 142.273 21.1891 142.391C21.4492 142.509 21.7308 142.572 22.0165 142.577H49.4523C50.3408 142.56 51.1939 142.226 51.8581 141.635C52.5223 141.045 52.9539 140.237 53.0752 139.357C57.4357 109.635 58.0414 104.134 57.9578 103.013L57.9877 103.011ZM34.7713 119.721L39.2821 113.213H56.0386C55.742 115.383 55.4407 117.552 55.1347 119.721H34.7713ZM55.0258 120.488C54.6639 123.052 54.2437 125.992 53.756 129.363H28.0891L34.24 120.488H55.0258ZM39.8135 112.446L43.4739 107.165H56.8361C56.6728 108.468 56.4489 110.187 56.1422 112.446H39.8135ZM52.3161 139.248C52.2227 139.946 51.8829 140.589 51.3578 141.059C50.8328 141.53 50.157 141.797 49.4523 141.813H22.0165C21.8345 141.808 21.6555 141.766 21.4906 141.688C21.3258 141.611 21.1787 141.501 21.0584 141.364C20.9381 141.227 20.8473 141.067 20.7915 140.894C20.7358 140.721 20.7164 140.538 20.7345 140.356C20.7272 140.122 20.7954 139.891 20.9292 139.699L27.5578 130.133H53.6449C53.2469 132.884 52.806 135.909 52.3161 139.248ZM56.9304 106.401H44.0053L46.2526 103.158C46.3492 103.024 46.4739 102.914 46.618 102.835C46.762 102.755 46.9219 102.708 47.0861 102.698H56.9005C56.9805 102.709 57.0547 102.747 57.112 102.804C57.1693 102.861 57.2067 102.935 57.2187 103.015C57.219 103.074 57.2321 103.131 57.257 103.184C57.2585 103.424 57.2018 104.177 56.9304 106.398V106.401Z" fill="#4B1010"/>
<path d="M118.533 93.3618C118.423 93.2315 118.277 93.1359 118.113 93.0865C117.96 93.0098 117.786 92.9332 117.605 92.8565C117.684 92.1036 117.599 91.3425 117.357 90.6253C117.114 89.9082 116.719 89.252 116.2 88.7015C116.603 88.8259 116.964 89.0598 117.242 89.377C117.511 89.8156 118.699 89.7688 117.973 88.6064C117.517 87.913 117.145 87.1679 116.864 86.3867C113.202 77.3214 111.114 67.6205 108.551 58.2922C108.258 57.1574 107.669 56.1208 106.843 55.2889C106.001 54.7367 105.051 54.3686 104.057 54.2085C102.248 53.7761 101.132 53.3145 95.3157 52.1843C95.0566 51.6826 94.6652 51.2613 94.184 50.9659C94.1043 50.9175 94.0097 50.8998 93.9179 50.9161L93.5652 50.2122C93.9239 49.7146 94.2236 49.1771 94.4585 48.6105C94.7897 48.7055 95.1382 48.7235 95.4773 48.663C95.8165 48.6025 96.1373 48.4652 96.4153 48.2616C96.9491 47.7904 97.3754 47.2099 97.6651 46.5594C97.8833 46.4871 98.0732 46.3478 98.2079 46.1615C98.3704 46.2308 98.5492 46.2526 98.7236 46.2244C98.898 46.1962 99.0609 46.1191 99.1932 46.002C99.332 45.9044 99.442 45.7712 99.5118 45.6165C99.5815 45.4618 99.6084 45.2912 99.5896 45.1225C99.8317 44.8379 100.038 44.5245 100.203 44.1894C100.314 43.9678 100.807 43.5469 100.788 42.9933C100.899 42.9127 100.993 42.8106 101.064 42.6931C101.135 42.5755 101.181 42.4449 101.201 42.309C101.22 42.1731 101.212 42.0347 101.177 41.902C101.142 41.7693 101.081 41.645 100.997 41.5365C101.129 41.4025 101.204 41.223 101.208 41.035C101.213 40.8193 101.156 40.6068 101.046 40.4216C101.167 40.2277 101.238 40.0063 101.252 39.7778C101.265 39.5493 101.221 39.321 101.122 39.1143C101.245 38.8942 101.333 38.6562 101.382 38.4089C101.384 38.2711 101.355 38.1347 101.299 38.0091C101.242 37.8835 101.159 37.7719 101.054 37.682C101.089 37.4668 101.062 37.2461 100.977 37.0456C100.891 36.845 100.75 36.673 100.57 36.5495C100.622 36.4112 100.643 36.2636 100.633 36.1164C100.623 35.9692 100.582 35.8258 100.512 35.6958C100.443 35.5657 100.346 35.452 100.229 35.3622C100.112 35.2724 99.9771 35.2085 99.8334 35.1747C99.8164 35.1328 99.7943 35.0931 99.7675 35.0567C99.8066 34.7831 99.7659 34.5041 99.6502 34.2531C99.5796 34.1378 99.4846 34.0394 99.3719 33.9648C99.2591 33.8902 99.1314 33.8413 98.9977 33.8214C98.9481 33.6489 98.8604 33.4898 98.7409 33.3558C98.6214 33.2219 98.4733 33.1166 98.3076 33.0478C98.2611 32.8763 98.1697 32.7203 98.0427 32.596C97.9157 32.4717 97.7578 32.3836 97.5853 32.3408C97.511 32.3267 97.4351 32.3233 97.3599 32.3309C97.3215 32.223 97.2756 32.118 97.2226 32.0165C97.1419 31.8956 97.0287 31.7998 96.8961 31.7402C96.7635 31.6805 96.6168 31.6594 96.4728 31.6791C96.391 31.5417 96.2789 31.4248 96.1451 31.3372C96.0113 31.2497 95.8593 31.1938 95.7006 31.1738C95.6599 31.0357 95.5912 30.9073 95.4988 30.7968C95.4064 30.6862 95.2923 30.5958 95.1636 30.5311C95.0349 30.4664 94.8942 30.4288 94.7504 30.4207C94.6066 30.4125 94.4626 30.434 94.3274 30.4838C94.2795 30.4116 94.2162 30.3508 94.1421 30.3059C94.068 30.261 93.9849 30.233 93.8988 30.2238C93.6581 30.1663 93.4054 30.1859 93.1765 30.2798C93.039 30.1246 92.857 30.0157 92.6552 29.9679C92.4534 29.9201 92.2419 29.9359 92.0494 30.013C91.9145 29.8627 91.737 29.7571 91.5405 29.7104C91.344 29.6637 91.138 29.678 90.9499 29.7515C90.7898 29.6198 90.5917 29.5428 90.3847 29.5321C90.1776 29.5213 89.9726 29.5773 89.7997 29.6917C89.5744 29.607 89.3278 29.5974 89.0966 29.6641C88.8653 29.7308 88.6618 29.8704 88.5162 30.0621C88.3556 29.9192 88.1519 29.8341 87.9375 29.8202C87.723 29.8063 87.51 29.8644 87.3323 29.9854C87.1176 29.8376 86.8597 29.7656 86.5994 29.7809C86.3392 29.7962 86.0914 29.8978 85.8955 30.0697C85.6928 29.9974 85.4721 29.9925 85.2665 30.056C85.0608 30.1194 84.8812 30.2477 84.7545 30.4217C84.6638 30.3643 84.5625 30.3255 84.4566 30.3077C84.3507 30.2898 84.2423 30.2932 84.1378 30.3177C84.0332 30.3422 83.9346 30.3873 83.8476 30.4502C83.7606 30.5132 83.6871 30.5929 83.6312 30.6847C83.4964 30.8162 83.386 30.9706 83.3054 31.1409C83.0676 31.1263 82.8324 31.1964 82.6414 31.3387C82.4504 31.481 82.3159 31.6864 82.2618 31.9184C82.0883 31.9231 81.9177 31.9643 81.7611 32.0395C81.5474 32.1897 81.3999 32.4166 81.3494 32.6728C81.1415 32.6526 80.9325 32.6976 80.7513 32.8016C80.6093 32.8633 80.4884 32.9651 80.4034 33.0945C80.3184 33.2239 80.2731 33.3752 80.2729 33.5301C80.0418 33.6026 79.842 33.7511 79.7059 33.9516C79.5699 34.1521 79.5057 34.3926 79.5238 34.6342C79.3123 34.7316 79.1481 34.909 79.0673 35.1274C78.9865 35.3457 78.9957 35.5873 79.0929 35.7989C78.9486 35.9541 78.8483 36.145 78.8022 36.3518C78.7561 36.5587 78.7659 36.774 78.8306 36.9758C78.7298 37.0778 78.6568 37.204 78.6187 37.3423C78.5805 37.4806 78.5786 37.6263 78.6129 37.7656C78.6244 37.9624 78.7029 38.1493 78.8352 38.2954C78.7054 38.4272 78.6168 38.594 78.5803 38.7754C78.5438 38.9568 78.561 39.1449 78.6297 39.3167C78.6781 39.4635 78.7672 39.5936 78.8866 39.6917C78.8326 39.8917 78.8488 40.1041 78.9326 40.2936C79.0163 40.4831 79.1624 40.6381 79.3467 40.7329C79.3324 40.9033 79.3612 41.0746 79.4303 41.231C79.4995 41.3874 79.6067 41.5239 79.7423 41.6281C79.8779 41.7324 80.0374 41.8009 80.2063 41.8275C80.3753 41.8541 80.5481 41.8378 80.7092 41.7803C80.8005 41.9562 80.9301 42.1095 81.0884 42.2289C81.2466 42.3483 81.4296 42.4308 81.6239 42.4704C81.9184 42.4671 82.2015 42.3561 82.4198 42.1583C82.5184 42.2378 82.6303 42.2993 82.7503 42.34C82.3321 43.5593 82.1585 44.8491 82.2394 46.1356C82.3204 47.4221 82.6542 48.68 83.2218 49.8373C83.6973 50.7619 84.4139 51.5407 85.2959 52.0913C86.1778 52.6419 87.1922 52.9437 88.2317 52.9648C83.5277 54.4983 80.9108 55.4882 80.2131 56.0157C79.5905 56.6736 79.0964 57.442 78.7563 58.2815C77.7702 59.943 77.1162 61.0671 74.2723 65.2359C72.2588 59.4899 69.6718 55.0036 69.3153 54.7483C69.2807 54.7005 69.2357 54.6613 69.1835 54.6338C69.1314 54.6063 69.0736 54.5912 69.0147 54.5896C68.3555 53.8364 67.6123 53.1611 66.7996 52.5769C66.1431 52.0293 65.3844 51.6175 64.5676 51.3654C64.1399 51.2229 63.6876 51.169 63.2384 51.2068C62.7892 51.2446 62.3523 51.3735 61.9545 51.5855C60.8711 52.3077 61.2529 53.2585 62.4743 53.7876C60.9493 54.3826 60.0299 56.6698 60.2086 58.2585C60.3025 59.0827 60.7075 59.84 61.3411 60.3755C61.7406 60.6431 61.739 60.5426 61.6808 60.6224C61.3871 60.834 61.5596 61.1438 61.7398 61.4551C62.6545 65.127 64.7592 68.2408 66.6777 70.8861C67.584 72.094 68.6095 73.2078 69.7385 74.2107C70.7711 75.0184 71.909 75.6816 73.1206 76.182C73.7365 76.5309 74.4616 76.6339 75.1502 76.4703C75.8463 76.1144 76.4703 75.6324 76.9904 75.0488C79.2828 72.5805 81.214 69.8 82.7265 66.7901C83.7993 70.2125 85.4113 73.4417 87.5018 76.3561C84.3648 77.7861 81.334 79.4385 78.4327 81.3008C76.1662 82.7768 72.7403 85.0073 71.4499 88.1379C71.0594 89.0695 71.0445 90.1161 71.4084 91.0585C71.7723 92.0008 72.4867 92.7658 73.402 93.1931C74.529 93.682 75.7451 93.9319 76.9736 93.9269C81.8455 93.9652 88.231 92.2308 94.6042 87.9723C94.633 88.1871 94.6486 88.4035 94.651 88.6202C94.5505 88.6463 94.452 88.6799 94.3565 88.7206C94.1575 88.804 93.9781 88.9281 93.8298 89.0849C93.6815 89.2416 93.5676 89.4277 93.4954 89.631C93.4233 89.8344 93.3944 90.0506 93.4106 90.2658C93.4268 90.481 93.4879 90.6904 93.5898 90.8806C94.5252 92.1281 95.89 91.8275 97.4028 91.5599C97.7207 91.5696 98.037 91.5116 98.3307 91.3897C98.6245 91.2678 98.8889 91.0849 99.1065 90.853C98.963 91.6145 99.0743 92.4022 99.4232 93.0942C99.5721 93.3538 99.7759 93.5779 100.02 93.7508C100.264 93.9237 100.543 94.0414 100.838 94.0956C102.354 94.3519 103.909 94.2313 105.367 93.7444C105.848 93.7134 106.298 93.4937 106.618 93.133C106.938 92.7723 107.103 92.2999 107.077 91.8183C107.181 90.9381 106.99 90.0483 106.535 89.288C106.785 89.141 106.976 88.9097 107.072 88.6355C107.166 88.3488 107.247 88.0618 107.317 87.7745C107.553 89.0741 107.984 91.6795 107.984 91.6795C107.999 91.7801 108.054 91.8705 108.136 91.9308C108.218 91.9911 108.32 92.0164 108.421 92.0012C108.521 91.9859 108.612 91.9314 108.672 91.8495C108.732 91.7676 108.758 91.6651 108.742 91.5645C108.844 91.3038 109.004 91.0696 109.21 90.8798C109.002 91.6842 108.585 92.4195 108.002 93.0114C107.869 93.1189 107.759 93.2531 107.68 93.4052C107.601 93.5574 107.554 93.7243 107.542 93.8954C107.542 94.2788 107.853 94.597 108.492 94.8017C108.883 94.8499 109.279 94.81 109.653 94.685C110.026 94.56 110.367 94.3531 110.651 94.0795C111.052 93.6848 111.392 93.2323 111.659 92.7369C113.26 93.9391 116.013 95.5739 117.914 94.9398C118.363 94.7289 118.474 94.6453 118.58 94.4751C118.716 94.319 118.788 94.1163 118.779 93.9091C118.77 93.7019 118.682 93.5059 118.533 93.3618ZM94.9086 53.3321C95.0362 53.9611 94.973 54.6138 94.7271 55.2066C94.4812 55.7994 94.0638 56.3051 93.5284 56.659C93.0554 56.9137 92.5051 56.9851 91.9828 56.8597C91.4604 56.7342 91.0026 56.4206 90.6968 55.9789C90.4614 55.6526 90.2927 55.2829 90.2006 54.8912C90.1085 54.4995 90.0947 54.0934 90.1601 53.6963C90.2123 54.2091 90.4212 54.6934 90.7584 55.0831C91.0957 55.4729 91.5448 55.7493 92.0448 55.8747C92.1626 55.8908 92.2819 55.8947 92.4006 55.8862C93.056 55.8335 93.6704 55.5463 94.1311 55.0771C94.5918 54.608 94.8679 53.9884 94.9086 53.3321ZM93.8137 52.4312C93.8433 52.4905 93.8879 52.5412 93.943 52.5781C93.9981 52.6151 94.0619 52.6371 94.128 52.642C94.3374 53.7485 93.5277 55.1194 92.4036 55.1194H92.1905C91.9182 55.0409 91.669 54.898 91.4637 54.7027C91.2584 54.5075 91.1032 54.2656 91.0112 53.9977C91.0823 53.9583 91.139 53.8973 91.1732 53.8236C91.2074 53.7498 91.2172 53.6671 91.2014 53.5874C91.1175 53.1963 91.005 52.8119 90.8648 52.4373C91.6869 52.0687 92.4242 51.5347 93.0308 50.8686L93.8137 52.4312ZM82.7817 41.3854C82.7606 41.3029 82.7127 41.2297 82.6454 41.1774C82.5782 41.1251 82.4954 41.0967 82.4102 41.0967C82.325 41.0967 82.2422 41.1251 82.175 41.1774C82.1077 41.2297 82.0598 41.3029 82.0387 41.3854C82.0137 41.4675 81.9661 41.541 81.9015 41.5975C81.8368 41.654 81.7577 41.6913 81.673 41.7051C81.5196 41.6285 81.3049 41.3685 81.3141 41.2719C81.3415 41.2296 81.3602 41.1824 81.3693 41.1328C81.3784 41.0833 81.3776 41.0325 81.367 40.9832C81.3564 40.934 81.3363 40.8873 81.3077 40.8459C81.2791 40.8045 81.2426 40.7691 81.2003 40.7417C81.158 40.7144 81.1107 40.6956 81.0612 40.6866C81.0117 40.6775 80.9608 40.6783 80.9116 40.6888C80.8623 40.6994 80.8157 40.7196 80.7742 40.7482C80.7328 40.7768 80.6974 40.8133 80.6701 40.8556C80.555 41.0166 80.4316 41.1017 80.325 41.0856C80.2881 41.0776 80.2532 41.0619 80.2227 41.0396C80.1921 41.0173 80.1666 40.9888 80.1479 40.9559C80.1291 40.9231 80.1174 40.8867 80.1135 40.8491C80.1097 40.8114 80.1139 40.7734 80.1257 40.7375C80.1921 40.6953 80.2465 40.6367 80.2838 40.5675C80.3212 40.4982 80.3401 40.4205 80.3388 40.3419C80.3389 40.2682 80.3177 40.1961 80.2779 40.1341C80.2381 40.0722 80.1812 40.023 80.1142 39.9925C80.0471 39.962 79.9727 39.9515 79.8998 39.9622C79.8269 39.9729 79.7587 40.0043 79.7032 40.0528C79.6636 40.0333 79.6331 39.9992 79.6181 39.9577C79.6004 39.904 79.6733 39.8465 79.7262 39.8289C79.8227 39.7968 79.9025 39.7276 79.948 39.6367C79.9935 39.5457 80.001 39.4404 79.9689 39.3439C79.9367 39.2474 79.8676 39.1677 79.7766 39.1222C79.6857 39.0766 79.5804 39.0691 79.4839 39.1013C79.4341 39.1181 79.3727 39.1273 79.3474 39.0599C79.2891 38.9065 79.3743 38.8298 79.7009 38.5093C79.7472 38.4629 79.7809 38.4053 79.7987 38.3422C79.8164 38.279 79.8176 38.2123 79.8023 38.1486C79.7869 38.0848 79.7554 38.026 79.7108 37.9779C79.6662 37.9298 79.61 37.8939 79.5475 37.8737C79.3712 37.8154 79.3712 37.7433 79.3712 37.7119C79.3711 37.6707 79.3644 37.6298 79.3512 37.5908C79.3336 37.5371 79.4065 37.4803 79.4594 37.4619C79.5215 37.4416 79.5774 37.4058 79.6218 37.3578C79.6662 37.3098 79.6975 37.2512 79.7129 37.1877C79.7282 37.1241 79.7271 37.0577 79.7096 36.9947C79.692 36.9318 79.6587 36.8743 79.6127 36.8278C79.5779 36.7803 79.5546 36.7253 79.5445 36.6673C79.5344 36.6092 79.5379 36.5496 79.5546 36.4931C79.5712 36.4366 79.6007 36.3846 79.6407 36.3414C79.6808 36.2981 79.7302 36.2646 79.7852 36.2436C79.8656 36.2234 79.9373 36.1777 79.9895 36.1133C80.0417 36.0489 80.0717 35.9694 80.0749 35.8866C80.0781 35.8037 80.0543 35.7221 80.0072 35.6539C79.9601 35.5857 79.8922 35.5346 79.8136 35.5083C79.7569 35.4891 79.786 35.3933 79.786 35.3933C79.7975 35.358 79.8098 35.3212 79.9217 35.3588C79.9975 35.384 80.0794 35.385 80.1557 35.3615C80.2321 35.338 80.2993 35.2912 80.3478 35.2277C80.3962 35.1642 80.4237 35.0871 80.4262 35.0072C80.4287 34.9273 80.4062 34.8486 80.3618 34.7822C80.1686 34.4916 80.3956 34.2301 80.5919 34.2638C80.6464 34.2937 80.7067 34.3114 80.7688 34.3158C80.8308 34.3202 80.893 34.3112 80.9513 34.2894C81.0095 34.2675 81.0623 34.2334 81.1061 34.1893C81.15 34.1452 81.1838 34.0922 81.2053 34.0338C81.2225 33.9603 81.2177 33.8833 81.1914 33.8125C81.1651 33.7417 81.1184 33.6802 81.0573 33.6359C81.0468 33.6189 81.0399 33.5999 81.0371 33.5801C81.0344 33.5603 81.0357 33.5401 81.0412 33.5209C81.0735 33.5103 81.1042 33.4953 81.1324 33.4764C81.2428 33.3997 81.4437 33.4703 81.584 33.5638C81.6578 33.6127 81.7461 33.6345 81.8341 33.6257C81.9221 33.6169 82.0044 33.5779 82.0669 33.5153C82.1295 33.4528 82.1685 33.3705 82.1773 33.2825C82.1861 33.1945 82.1642 33.1062 82.1154 33.0324C82.093 32.9806 82.085 32.9238 82.0922 32.8678C82.0993 32.8118 82.1214 32.7588 82.156 32.7142C82.2655 32.6806 82.3831 32.6852 82.4896 32.7273C82.5567 32.795 82.6468 32.8353 82.742 32.8402C82.8373 32.8451 82.931 32.8143 83.0048 32.7539C83.0786 32.6934 83.1272 32.6076 83.1411 32.5132C83.155 32.4188 83.1332 32.3226 83.08 32.2435C82.9711 32.0801 83.0263 32.0249 83.0493 32.0019C83.1146 31.9513 83.1941 31.9224 83.2767 31.9196C83.3593 31.9167 83.4407 31.9398 83.5093 31.9858C83.5857 32.0368 83.6778 32.0587 83.769 32.0475C83.8601 32.0363 83.9442 31.9928 84.006 31.9248C84.0677 31.8568 84.1031 31.7689 84.1055 31.6771C84.1079 31.5853 84.0773 31.4957 84.0192 31.4246C84.0701 31.345 84.1298 31.2715 84.1971 31.2053C84.2302 31.1557 84.2736 31.1139 84.3244 31.0826C84.4356 31.1303 84.5389 31.1944 84.6311 31.2728C84.6834 31.312 84.745 31.3372 84.8098 31.3459C84.8746 31.3546 84.9406 31.3466 85.0015 31.3226C85.0624 31.2987 85.1161 31.2595 85.1575 31.2089C85.199 31.1583 85.2268 31.0979 85.2383 31.0335C85.3169 30.9362 85.4125 30.8541 85.5205 30.7912C85.5251 30.8089 85.5312 30.8311 85.5358 30.8587C85.5527 30.96 85.6083 31.0507 85.6909 31.1117C85.7734 31.1727 85.8765 31.1991 85.9783 31.1853C86.0268 31.1788 86.0736 31.1626 86.1157 31.1377C86.1579 31.1127 86.1946 31.0796 86.2237 31.0402C86.2528 31.0008 86.2737 30.9559 86.2852 30.9083C86.2966 30.8606 86.2984 30.8112 86.2903 30.7629C86.349 30.6916 86.4239 30.6353 86.5087 30.5988C86.5935 30.5622 86.6858 30.5465 86.778 30.5528C86.811 30.5589 86.8447 30.565 86.8447 30.7061C86.8449 30.7924 86.8741 30.8761 86.9278 30.9436C86.9814 31.0112 87.0562 31.0587 87.1402 31.0785C87.2242 31.0983 87.3123 31.0891 87.3905 31.0526C87.4686 31.0161 87.5321 30.9542 87.5708 30.8771C87.6582 30.7038 87.7648 30.598 87.8576 30.5957C87.9496 30.6072 88.0815 30.6724 88.2103 30.8963C88.2448 30.9564 88.2949 31.0061 88.3554 31.04C88.4159 31.074 88.4844 31.0908 88.5538 31.0889C88.6231 31.0869 88.6906 31.0662 88.749 31.0289C88.8075 30.9916 88.8548 30.9391 88.8858 30.8771C89.0821 30.4845 89.3098 30.4079 89.3742 30.3941C89.4171 30.3849 89.4447 30.3887 89.4608 30.4117C89.457 30.4688 89.4657 30.5261 89.4862 30.5795C89.5068 30.6329 89.5388 30.6813 89.5799 30.7211C89.621 30.7609 89.6703 30.7913 89.7244 30.8101C89.7784 30.829 89.836 30.8358 89.8929 30.8302C89.9499 30.8245 90.005 30.8065 90.0543 30.7775C90.1036 30.7484 90.146 30.7089 90.1785 30.6618C90.211 30.6146 90.2328 30.561 90.2425 30.5046C90.2522 30.4481 90.2494 30.3903 90.2345 30.335C90.3188 30.2522 90.5036 30.3511 90.5458 30.4784C90.5725 30.5591 90.6253 30.6285 90.6958 30.6759C90.7664 30.7233 90.8506 30.746 90.9354 30.7403C91.0202 30.7346 91.1007 30.7009 91.1642 30.6444C91.2278 30.588 91.2708 30.5121 91.2865 30.4286C91.2865 30.4462 91.2911 30.4569 91.3141 30.4585C91.3818 30.4771 91.4435 30.5129 91.4932 30.5625C91.5429 30.6121 91.5789 30.6737 91.5978 30.7414C91.6203 30.8096 91.6616 30.8702 91.7169 30.9161C91.7722 30.962 91.8394 30.9914 91.9106 31.001C91.9818 31.0106 92.0543 31 92.1198 30.9703C92.1853 30.9407 92.2411 30.8932 92.2809 30.8334C92.3538 30.7238 92.3913 30.7084 92.4036 30.7008C92.5399 30.7623 92.6608 30.8531 92.7579 30.9668C92.785 31.021 92.8247 31.0681 92.8736 31.104C92.9225 31.1399 92.9792 31.1637 93.0391 31.1734C93.099 31.1831 93.1603 31.1785 93.218 31.1599C93.2758 31.1414 93.3283 31.1093 93.3713 31.0665C93.4099 31.026 93.459 30.9969 93.5131 30.9823C93.5671 30.9677 93.6241 30.9682 93.678 30.9837L93.7109 30.9937C93.6735 31.0798 93.669 31.1766 93.6983 31.2658C93.7275 31.355 93.7884 31.4304 93.8695 31.4776C93.9506 31.5249 94.0463 31.5407 94.1383 31.5222C94.2303 31.5037 94.3123 31.452 94.3688 31.377C94.3936 31.334 94.4275 31.2968 94.468 31.268C94.5085 31.2392 94.5547 31.2194 94.6036 31.2101C94.6524 31.2008 94.7027 31.2021 94.7509 31.214C94.7992 31.2258 94.8443 31.248 94.8833 31.2789L94.9301 31.4023C94.8593 31.4727 94.8188 31.568 94.8172 31.6678C94.8156 31.7676 94.8529 31.8641 94.9213 31.9368C94.9897 32.0094 95.0838 32.0526 95.1835 32.057C95.2832 32.0615 95.3807 32.0268 95.4553 31.9605C95.5039 31.9504 95.5542 31.9506 95.6027 31.9613C95.6513 31.972 95.697 31.9928 95.7369 32.0224C95.7769 32.0521 95.81 32.0898 95.8343 32.1332C95.8586 32.1766 95.8734 32.2246 95.8778 32.2741C95.9002 32.3425 95.9389 32.4045 95.9905 32.4548C96.042 32.505 96.105 32.5421 96.1739 32.5628C96.2429 32.5835 96.3158 32.5872 96.3866 32.5737C96.4573 32.5601 96.5237 32.5297 96.5801 32.485C96.6303 32.5868 96.6565 32.6988 96.6568 32.8124C96.6479 32.8856 96.6617 32.9597 96.6963 33.0248C96.731 33.0899 96.7848 33.1427 96.8505 33.1762C96.9162 33.2097 96.9906 33.2221 97.0636 33.2119C97.1366 33.2017 97.2047 33.1693 97.2587 33.1191C97.312 33.1095 97.3663 33.1057 97.4205 33.1076C97.4608 33.1216 97.4955 33.1483 97.5194 33.1837C97.5433 33.2191 97.5551 33.2612 97.5531 33.3039C97.5338 33.3615 97.5284 33.4229 97.5374 33.4831C97.5465 33.5432 97.5698 33.6003 97.6052 33.6497C97.7348 33.8283 97.9058 33.8084 98.076 33.8084C98.1426 33.849 98.1947 33.9095 98.2253 33.9812C98.2558 34.053 98.2631 34.1325 98.2462 34.2086C98.2274 34.2837 98.2317 34.3627 98.2586 34.4353C98.2855 34.5078 98.3337 34.5706 98.397 34.6152C98.4602 34.6598 98.5354 34.6843 98.6128 34.6853C98.6902 34.6864 98.7661 34.664 98.8305 34.6211C98.8712 34.5935 98.9325 34.6211 98.9731 34.6595C99.0858 35.0858 98.8198 35.1962 99.0145 35.4814C99.0412 35.52 99.075 35.5531 99.1142 35.5788C99.1264 35.6716 99.1721 35.7568 99.2427 35.8182C99.3133 35.8797 99.404 35.9131 99.4976 35.9123C99.5652 35.903 99.634 35.915 99.6945 35.9466C99.7549 35.9782 99.804 36.0279 99.8349 36.0887C99.8523 36.1567 99.8539 36.2278 99.8395 36.2965C99.8252 36.3652 99.7953 36.4297 99.7521 36.4851C99.698 36.5359 99.6608 36.602 99.6452 36.6745C99.6297 36.7471 99.6367 36.8226 99.6653 36.8911C99.6939 36.9595 99.7428 37.0176 99.8053 37.0576C99.8678 37.0975 99.941 37.1174 100.015 37.1146C100.099 37.1982 100.232 37.2089 100.282 37.4213C100.294 37.4625 100.296 37.5057 100.289 37.5479C100.283 37.5901 100.267 37.6304 100.243 37.6659C100.2 37.7229 100.174 37.7906 100.168 37.8615C100.161 37.9324 100.175 38.0037 100.207 38.0674C100.239 38.1311 100.287 38.1846 100.348 38.222C100.409 38.2595 100.478 38.2793 100.55 38.2793C100.578 38.3039 100.597 38.3379 100.602 38.3751C100.559 38.5483 100.481 38.7109 100.372 38.8528C100.301 38.9247 100.261 39.022 100.26 39.1235C100.26 39.4156 100.514 39.3819 100.481 39.7469C100.465 39.9051 100.396 40.0532 100.285 40.167C100.213 40.2389 100.173 40.3364 100.173 40.4381C100.173 40.5397 100.213 40.6372 100.285 40.7091C100.331 40.7467 100.369 40.7933 100.396 40.846C100.423 40.8988 100.439 40.9566 100.443 41.0158C100.395 41.0707 100.331 41.1095 100.26 41.127C100.192 41.1497 100.131 41.191 100.085 41.2464C100.039 41.3017 100.01 41.3689 100.001 41.4401C99.9911 41.5113 100.002 41.5838 100.031 41.6492C100.061 41.7146 100.109 41.7704 100.168 41.8102C100.243 41.8488 100.307 41.9059 100.353 41.9761C100.4 42.0463 100.428 42.1272 100.434 42.2112C100.434 42.2963 100.393 42.3461 100.413 42.3546C100.337 42.3298 100.256 42.3292 100.18 42.3529C100.104 42.3766 100.037 42.4234 99.9886 42.4868C99.9404 42.5502 99.9131 42.6271 99.9106 42.7067C99.908 42.7864 99.9304 42.8648 99.9745 42.9312C100.128 43.1673 99.6847 43.5177 99.5145 43.8513C99.3895 44.0861 99.2496 44.3128 99.0958 44.5298C99.0404 44.5381 98.9874 44.5585 98.9407 44.5894C98.894 44.6204 98.8546 44.6612 98.8254 44.709C98.7962 44.7568 98.7778 44.8104 98.7715 44.8661C98.7652 44.9218 98.7712 44.9782 98.7891 45.0313C98.9195 45.4231 98.5667 45.6209 98.2846 45.338C98.231 45.2845 98.1627 45.2482 98.0885 45.2334C98.0142 45.2187 97.9373 45.2263 97.8673 45.2553C97.7974 45.2842 97.7376 45.3332 97.6954 45.3961C97.6533 45.459 97.6307 45.533 97.6305 45.6087V45.6278C97.6105 45.6937 97.5684 45.7507 97.5113 45.7891C97.4541 45.8275 97.3855 45.845 97.317 45.8387C97.2098 45.7952 97.1152 45.7258 97.0416 45.6366C96.9679 45.5475 96.9177 45.4414 96.8952 45.328C96.8788 45.2622 96.8451 45.2019 96.7977 45.1533C96.7503 45.1047 96.6909 45.0695 96.6255 45.0514C96.56 45.0334 96.491 45.033 96.4254 45.0503C96.3597 45.0676 96.2999 45.1021 96.2519 45.1501C96.1788 45.227 96.1197 45.316 96.0771 45.4131C95.9836 45.5059 95.8471 45.6025 95.7428 45.5005C95.6385 45.3986 95.5534 45.2705 95.6554 45.1662C95.7205 45.0879 95.7518 44.987 95.7424 44.8856C95.7331 44.7843 95.6839 44.6908 95.6056 44.6257C95.5273 44.5606 95.4263 44.5293 95.325 44.5387C95.2236 44.548 95.1301 44.5972 95.065 44.6755C94.7391 44.8626 94.4823 44.3773 94.7759 44.3029C94.8667 44.2801 94.946 44.225 94.9989 44.1478C95.0518 44.0706 95.0747 43.9768 95.0632 43.8839C95.0517 43.791 95.0066 43.7056 94.9365 43.6436C94.8663 43.5817 94.776 43.5476 94.6824 43.5476C94.6011 43.5476 94.4646 43.5561 94.4524 43.4763C94.4525 43.4533 94.4578 43.4306 94.4679 43.4099C94.4779 43.3892 94.4926 43.371 94.5106 43.3567C95.2973 43.1267 94.9531 42.3599 94.4746 42.5133C94.3868 42.5423 94.3019 42.5792 94.2208 42.6237C94.2012 42.6229 94.1821 42.6168 94.1656 42.6061C94.1453 42.5671 94.1401 42.5221 94.151 42.4796C94.1948 42.4411 94.2295 42.3935 94.2526 42.34C94.2757 42.2866 94.2867 42.2286 94.2848 42.1704C94.2829 42.1122 94.2681 42.0552 94.2414 42.0034C94.2148 41.9516 94.1771 41.9063 94.1309 41.8709C94.0847 41.8354 94.0312 41.8106 93.9742 41.7983C93.9173 41.786 93.8584 41.7864 93.8017 41.7996C93.7449 41.8128 93.6918 41.8384 93.6462 41.8746C93.6005 41.9107 93.5635 41.9566 93.5376 42.0088C93.4987 42.0299 93.4564 42.0442 93.4127 42.0509C93.3397 42.0345 93.2739 41.9953 93.2248 41.9389C93.1757 41.8825 93.1459 41.8119 93.1397 41.7373C93.1397 41.6615 93.1172 41.5873 93.075 41.5243C93.0328 41.4612 92.9729 41.4121 92.9028 41.3831C92.8327 41.3541 92.7555 41.3466 92.6812 41.3615C92.6068 41.3764 92.5385 41.413 92.4849 41.4667C92.4439 41.5173 92.3916 41.5575 92.3322 41.5842C92.2728 41.6108 92.208 41.6231 92.1429 41.62C92.1172 41.6173 92.0924 41.609 92.0702 41.5957C92.048 41.5824 92.029 41.5645 92.0144 41.5431C91.9998 41.5217 91.99 41.4975 91.9857 41.472C91.9815 41.4465 91.9828 41.4203 91.9896 41.3954C92.0662 41.0948 91.801 40.7904 91.2796 41.012C91.1582 41.0468 91.0284 41.0363 90.9142 40.9824C90.8001 40.9285 90.7095 40.8349 90.6593 40.7191C90.6318 40.6501 90.5848 40.5905 90.5241 40.5477C90.4634 40.5049 90.3916 40.4806 90.3174 40.4778C90.2431 40.4751 90.1697 40.4939 90.106 40.5321C90.0422 40.5704 89.991 40.6262 89.9585 40.693C89.8746 40.7263 89.7811 40.7264 89.6971 40.6934C89.6132 40.6604 89.5448 40.5966 89.5061 40.5151C89.4721 40.4474 89.4189 40.3913 89.3531 40.3538C89.2873 40.3164 89.2119 40.2992 89.1364 40.3045C89.0608 40.3099 88.9886 40.3374 88.9287 40.3838C88.8688 40.4301 88.824 40.4932 88.7999 40.565C88.7546 40.621 88.697 40.6659 88.6316 40.6962C88.5662 40.7265 88.4947 40.7414 88.4227 40.7398C88.3486 40.7236 88.2816 40.6841 88.2315 40.6271C88.1815 40.5702 88.1509 40.4987 88.1443 40.4231C88.1443 40.3215 88.1039 40.2239 88.032 40.152C87.9601 40.0802 87.8626 40.0398 87.761 40.0398C87.6593 40.0398 87.5618 40.0802 87.4899 40.152C87.418 40.2239 87.3776 40.3215 87.3776 40.4231C87.3776 40.6785 86.975 40.795 86.7366 40.7873C86.6856 40.7281 86.6177 40.6858 86.542 40.6662C86.4663 40.6467 86.3864 40.6507 86.313 40.6778C86.2397 40.7049 86.1764 40.7538 86.1316 40.8179C86.0869 40.8821 86.0628 40.9583 86.0626 41.0365C86.073 41.1426 86.0473 41.249 85.9897 41.3386C85.9321 41.4282 85.846 41.4958 85.7452 41.5303H85.5696C85.4737 41.5303 85.3764 41.4168 85.348 41.2873C85.3566 41.2346 85.3544 41.1808 85.3413 41.129C85.3283 41.0773 85.3049 41.0288 85.2724 40.9865C85.2399 40.9442 85.1991 40.909 85.1524 40.883C85.1058 40.8571 85.0544 40.8411 85.0013 40.8358C84.9482 40.8306 84.8946 40.8362 84.8438 40.8525C84.793 40.8688 84.746 40.8953 84.7059 40.9304C84.6657 40.9656 84.6332 41.0085 84.6103 41.0567C84.5874 41.1049 84.5747 41.1573 84.5728 41.2106C84.5727 41.248 84.5744 41.2853 84.5782 41.3225C84.5377 41.4293 84.4674 41.5222 84.3757 41.5902C84.2839 41.6582 84.1746 41.6983 84.0606 41.7059L84.0522 41.6906C84.3436 40.9537 83.4227 40.6723 83.2678 41.5142C83.2247 41.5631 83.1706 41.601 83.1099 41.6246C83.0354 41.6316 82.9609 41.6112 82.9005 41.5671C82.8401 41.5231 82.7978 41.4584 82.7817 41.3854ZM87.9373 52.1835C84.6618 51.9627 81.8754 47.9856 83.6496 42.386C83.7216 42.4416 83.8095 42.4728 83.9004 42.475L83.9126 42.4681C84.1079 42.4929 84.3064 42.4711 84.4916 42.4045C84.6769 42.3378 84.8437 42.2282 84.9784 42.0847C85.1217 42.1875 85.2868 42.256 85.4608 42.2849C85.6348 42.3138 85.8132 42.3022 85.982 42.2512C86.1508 42.2001 86.3057 42.1109 86.4345 41.9904C86.5634 41.8699 86.6628 41.7214 86.7251 41.5564C87.0939 41.5689 87.4557 41.4538 87.7495 41.2305C87.902 41.3602 88.083 41.4522 88.2777 41.4989C88.5917 41.5309 88.9067 41.4493 89.1656 41.2689C89.3124 41.3802 89.485 41.4527 89.6673 41.4795C89.8496 41.5063 90.0358 41.4866 90.2084 41.4222C90.3447 41.565 90.5135 41.6729 90.7003 41.7366C90.8872 41.8002 91.0867 41.8179 91.2819 41.7879C91.3836 42.0239 91.5726 42.2115 91.8093 42.3115C92.046 42.4115 92.3122 42.4162 92.5524 42.3247C92.6501 42.4697 92.7799 42.5903 92.9317 42.677C93.0836 42.7637 93.2534 42.8142 93.428 42.8246C93.4792 42.9887 93.5819 43.132 93.7209 43.2333C93.6768 43.3829 93.6757 43.5419 93.7179 43.692C93.7601 43.8421 93.8438 43.9773 93.9594 44.0821C93.9102 44.1977 93.8848 44.3221 93.8848 44.4478C93.8848 44.5735 93.9102 44.6979 93.9594 44.8135C94.0193 45.009 94.1408 45.1798 94.3058 45.3004C94.4708 45.4211 94.6704 45.4851 94.8749 45.4829C94.9048 45.6495 94.9767 45.8058 95.0838 45.9369C95.1909 46.0681 95.3296 46.1698 95.4869 46.2325C95.6441 46.2951 95.8148 46.3167 95.9827 46.2952C96.1507 46.2737 96.3103 46.2097 96.4467 46.1093C96.5557 46.2538 96.6923 46.3752 96.8485 46.4667C96.6301 46.9241 96.3207 47.3322 95.9391 47.6658C95.7645 47.7877 95.5659 47.8708 95.3565 47.9095C95.1472 47.9482 94.932 47.9418 94.7253 47.8905C94.746 47.8261 94.8449 47.501 94.8534 47.4397C94.8534 47.2273 94.7361 47.0118 94.5129 47.0118C94.4352 47.0132 94.3587 47.0316 94.2889 47.0658C94.2191 47.1 94.1576 47.1491 94.1089 47.2096C93.7751 48.5229 93.1116 49.7293 92.1813 50.7144C91.6123 51.2368 90.9421 51.6368 90.2122 51.8895C89.4823 52.1422 88.7083 52.2423 87.9381 52.1835H87.9373ZM62.3333 52.2518C62.6373 52.0946 62.9698 52 63.311 51.9736C63.6523 51.9473 63.9954 51.9897 64.3199 52.0984C65.0601 52.3275 65.7474 52.7015 66.3418 53.1987C66.623 53.3776 66.889 53.5794 67.1369 53.8021C66.7218 53.71 66.2913 53.7123 65.8772 53.809C65.5847 53.8519 65.3003 53.9388 65.0337 54.0667C64.5813 53.7162 64.058 53.4681 63.5003 53.3398C62.7465 53.1098 61.6785 52.698 62.334 52.2518H62.3333ZM60.9646 58.1772C60.8051 56.7572 61.808 54.414 63.2426 54.414C63.5662 54.4226 63.8808 54.5229 64.1497 54.7031C63.8973 54.9115 63.715 55.1924 63.6274 55.5078C63.5397 55.8232 63.551 56.1578 63.6597 56.4666C63.7874 56.7049 63.9745 56.9061 64.2029 57.0507C64.4313 57.1952 64.6932 57.2782 64.9632 57.2916C65.0583 57.2916 65.1503 57.2916 65.2408 57.2809C65.158 58.0088 64.897 58.7052 64.4809 59.3082C64.1773 59.7158 63.7284 59.991 63.2273 60.0766C62.7263 60.1623 62.2115 60.0518 61.7896 59.7682C61.3276 59.3581 61.0339 58.7912 60.9654 58.1772H60.9646ZM62.3716 60.8095C62.8822 60.9122 63.4115 60.8665 63.897 60.6779C64.3825 60.4893 64.8038 60.1657 65.1112 59.7452C65.2661 59.5138 65.4047 59.272 65.526 59.0214C65.6436 59.4003 65.8541 59.7438 66.1384 60.0205C66.4228 60.2972 66.7718 60.4983 67.1538 60.6055C67.2035 60.6206 67.2558 60.6254 67.3074 60.6197C67.3591 60.6139 67.409 60.5978 67.4542 60.5721C67.4994 60.5465 67.5389 60.512 67.5703 60.4706C67.6018 60.4292 67.6245 60.3819 67.637 60.3315C67.6496 60.2811 67.6518 60.2287 67.6435 60.1774C67.6352 60.1261 67.6166 60.0771 67.5888 60.0332C67.5609 59.9893 67.5245 59.9516 67.4816 59.9222C67.4387 59.8929 67.3903 59.8726 67.3394 59.8625C67.0677 59.7827 66.8218 59.6329 66.6262 59.4283C66.4306 59.2236 66.292 58.9712 66.2245 58.6963C66.1275 58.0578 66.2334 57.405 66.5274 56.83C66.5666 56.761 66.5835 56.6815 66.5756 56.6025C66.5678 56.5235 66.5356 56.4488 66.4835 56.3889C66.4314 56.329 66.362 56.2867 66.2848 56.2679C66.2076 56.2492 66.1266 56.2548 66.0528 56.2841C65.7114 56.437 65.3419 56.5172 64.9678 56.5195C64.8397 56.507 64.7165 56.464 64.6085 56.3941C64.5004 56.3242 64.4107 56.2294 64.3467 56.1177C64.1643 55.7543 64.8344 54.7322 66.0198 54.5589C66.5179 54.4526 67.0372 54.5135 67.4972 54.7321C67.9572 54.9507 68.3324 55.3148 68.5646 55.7681C69.0968 56.7756 68.6973 58.6817 68.2909 59.7467C68.0484 60.3826 67.6616 60.9535 67.1609 61.4144C66.6602 61.8753 66.0594 62.2136 65.4056 62.4028C64.7923 62.5627 64.1414 62.488 63.5802 62.1933C63.0191 61.8987 62.5881 61.4052 62.3716 60.8095ZM90.1279 86.8022C85.9003 88.9759 81.3111 90.3588 76.5864 90.8829C76.5357 90.8875 76.4864 90.9022 76.4414 90.926C76.3965 90.9499 76.3567 90.9825 76.3245 91.0219C76.2922 91.0613 76.2682 91.1067 76.2537 91.1555C76.2392 91.2043 76.2345 91.2555 76.24 91.3061C76.2455 91.3567 76.261 91.4057 76.2857 91.4502C76.3103 91.4948 76.3436 91.534 76.3835 91.5655C76.4235 91.5971 76.4693 91.6204 76.5184 91.634C76.5674 91.6477 76.6187 91.6514 76.6692 91.645C81.3766 91.1236 85.9529 89.765 90.1824 87.6334C91.5601 87.2869 92.9797 87.1362 94.3995 87.1856C88.7301 91.0286 82.4167 93.2054 76.9789 93.1594C75.8559 93.1649 74.744 92.9375 73.7133 92.4915C72.9865 92.1384 72.4213 91.5218 72.1327 90.767C71.844 90.0122 71.8535 89.1758 72.1591 88.4277C73.3583 85.5141 76.6638 83.3672 78.8513 81.9411C81.6972 80.1141 84.6695 78.4919 87.7456 77.0868C88.9377 77.5794 90.2129 77.8397 91.5027 77.8535C92.7657 80.954 94.3956 83.8919 96.3577 86.6044C96.2765 86.6113 91.4222 86.1451 90.1256 86.8022H90.1279ZM106.836 85.3032C106.819 86.3705 106.647 87.4296 106.323 88.4469C106.191 88.6279 106.223 88.6003 105.927 88.6003C104.154 87.1212 100.915 87.8013 99.6111 89.6852C95.5381 84.4913 91.6192 78.6586 90.5059 71.2211C89.2653 62.9341 93.5729 60.7773 96.5586 62.1674C100.267 63.651 102.97 68.0989 103.505 70.288C104.686 75.1239 105.852 80.1691 106.84 85.2534C106.837 85.2706 106.835 85.288 106.834 85.3055L106.836 85.3032ZM108.558 90.4489C106.932 80.6506 104.446 70.7987 102.244 62.0685C102.233 62.0183 102.212 61.9708 102.182 61.9289C102.153 61.887 102.115 61.8515 102.071 61.8244C102.027 61.7974 101.979 61.7795 101.928 61.7717C101.877 61.7638 101.825 61.7663 101.776 61.7789C101.726 61.7915 101.679 61.8139 101.638 61.845C101.597 61.876 101.563 61.9149 101.537 61.9594C101.512 62.004 101.495 62.0532 101.489 62.1042C101.483 62.1552 101.487 62.2069 101.501 62.2563C101.864 63.6942 102.232 65.1602 102.607 66.6544C101.283 64.3657 99.2737 62.5504 96.863 61.4643C96.1709 61.1362 95.4091 60.9823 94.6438 61.0159C93.8786 61.0496 93.1333 61.2699 92.4726 61.6575C88.0485 64.2874 89.4562 72.2386 91.2152 77.0845C90.3346 77.0497 89.4641 76.8846 88.632 76.5945C85.6419 72.6511 83.5843 68.0813 82.6138 63.2285C82.6053 63.178 82.5868 63.1297 82.5594 63.0864C82.532 63.0431 82.4961 63.0058 82.454 62.9766C82.4119 62.9474 82.3643 62.9269 82.3142 62.9164C82.264 62.9059 82.2123 62.9056 82.162 62.9154C82.1117 62.9253 82.0639 62.9451 82.0214 62.9737C81.9789 63.0024 81.9426 63.0392 81.9146 63.0822C81.8866 63.1251 81.8674 63.1732 81.8583 63.2236C81.8492 63.274 81.8503 63.3258 81.8616 63.3758C82.0149 64.1568 82.1977 64.9328 82.4098 65.7036C80.8733 68.937 78.8527 71.9171 76.4177 74.5412C75.9845 75.0268 75.4707 75.4338 74.8987 75.7442C74.3939 75.8391 73.8717 75.7455 73.4312 75.4812C72.2828 75.0107 71.2032 74.3873 70.2216 73.628C69.142 72.6658 68.1608 71.5986 67.2926 70.4421C65.4531 68.0843 63.9714 65.4681 62.8953 62.678C63.2914 62.9343 63.7352 63.1078 64.2001 63.1881C64.6649 63.2685 65.1412 63.2541 65.6004 63.1457C66.3715 62.9255 67.0808 62.5285 67.6718 61.9865C68.2629 61.4444 68.7195 60.772 69.0055 60.0228C69.4172 58.9485 69.6131 57.8037 69.5821 56.6537C71.9228 60.7773 73.695 65.1986 74.8504 69.7973C74.8619 69.8471 74.8831 69.8941 74.913 69.9355C74.9428 69.977 74.9807 70.012 75.0243 70.0387C75.0679 70.0653 75.1164 70.0829 75.1669 70.0906C75.2174 70.0982 75.2689 70.0956 75.3184 70.0831C75.3679 70.0705 75.4144 70.0482 75.4552 70.0174C75.4959 69.9866 75.5301 69.9479 75.5558 69.9037C75.5814 69.8595 75.5979 69.8107 75.6044 69.76C75.6108 69.7093 75.6071 69.6579 75.5934 69.6087C75.2956 68.443 74.9563 67.2883 74.5759 66.1468C76.7596 62.9548 77.9412 61.1706 79.4287 58.6388C79.7314 57.8879 80.1655 57.197 80.7107 56.5985C81.1431 56.2741 83.0109 55.4537 89.4447 53.3781C89.3297 53.902 89.3265 54.4442 89.4352 54.9693C89.5439 55.4945 89.7622 55.9909 90.0758 56.426C90.4921 57.0201 91.1127 57.4401 91.819 57.6057C92.5253 57.7713 93.2679 57.671 93.9049 57.3238C94.6023 56.8746 95.1425 56.2193 95.4504 55.449C95.7584 54.6787 95.8188 53.8316 95.6232 53.0254C101.037 54.0889 102.137 54.5382 103.876 54.9538C104.745 55.0929 105.578 55.4002 106.329 55.8586C107.045 56.5923 107.555 57.501 107.809 58.4939C110.379 67.8658 112.473 77.569 116.142 86.6512C116.315 87.1548 116.532 87.6423 116.79 88.108C115.376 87.6024 113.836 87.5632 112.398 87.9961C111.432 88.1975 110.535 88.644 109.791 89.2926C109.344 89.6397 108.931 90.0276 108.556 90.4512L108.558 90.4489ZM117.138 94.3241C115.476 94.4521 113.035 92.881 111.756 91.8428C111.71 91.8054 111.656 91.7792 111.598 91.7662C111.54 91.7532 111.48 91.7539 111.423 91.7681C111.365 91.7823 111.312 91.8096 111.266 91.848C111.221 91.8864 111.185 91.9348 111.162 91.9893C110.916 92.5698 110.556 93.0953 110.104 93.5351C109.912 93.7179 109.684 93.8586 109.435 93.9483C109.185 94.0379 108.92 94.0745 108.656 94.0557C108.533 94.0148 108.415 93.9603 108.304 93.8931C108.304 93.7996 108.381 93.713 108.542 93.5512C109.476 92.5921 110.041 91.3334 110.135 89.998C110.825 89.3694 111.669 88.9354 112.581 88.7406C113.273 88.554 113.988 88.4632 114.705 88.4707C115.4 88.8907 115.967 89.4914 116.348 90.2088C116.728 90.9263 116.907 91.7335 116.864 92.5444C116.291 92.3427 115.762 92.03 115.309 91.6243C115.276 91.5861 115.236 91.5548 115.191 91.5322C115.146 91.5096 115.097 91.4962 115.046 91.4926C114.996 91.4891 114.945 91.4956 114.897 91.5117C114.849 91.5278 114.805 91.5532 114.767 91.5864C114.729 91.6196 114.698 91.6601 114.676 91.7054C114.653 91.7507 114.64 91.7999 114.637 91.8503C114.634 91.9007 114.64 91.9513 114.657 91.9991C114.673 92.0469 114.699 92.091 114.732 92.1288C115.369 92.8565 116.726 93.2897 117.627 93.7007C118.359 94.0388 117.629 94.2888 117.132 94.3263L117.138 94.3241Z" fill="#4B1010"/>
<path d="M89.1855 47.6573C89.1855 48.2518 89.4217 48.8218 89.842 49.2421C90.2623 49.6624 90.8323 49.8986 91.4268 49.8986C92.0212 49.8986 92.5912 49.6624 93.0115 49.2421C93.4318 48.8218 93.668 48.2518 93.668 47.6573C93.668 47.0629 93.4318 46.4929 93.0115 46.0726C92.5912 45.6523 92.0212 45.4161 91.4268 45.4161C90.8323 45.4161 90.2623 45.6523 89.842 46.0726C89.4217 46.4929 89.1855 47.0629 89.1855 47.6573Z" fill="white"/>
<path d="M80.6948 45.9476C80.6948 46.1921 80.743 46.4342 80.8365 46.66C80.9301 46.8859 81.0672 47.0911 81.2401 47.264C81.413 47.4369 81.6182 47.574 81.8441 47.6676C82.0699 47.7611 82.312 47.8093 82.5565 47.8093C82.801 47.8093 83.0431 47.7611 83.2689 47.6676C83.4948 47.574 83.7 47.4369 83.8729 47.264C84.0458 47.0911 84.1829 46.8859 84.2764 46.66C84.37 46.4342 84.4182 46.1921 84.4182 45.9476C84.4182 45.7031 84.37 45.461 84.2764 45.2352C84.1829 45.0093 84.0458 44.8041 83.8729 44.6312C83.7 44.4583 83.4948 44.3212 83.2689 44.2276C83.0431 44.1341 82.801 44.0859 82.5565 44.0859C82.312 44.0859 82.0699 44.1341 81.8441 44.2276C81.6182 44.3212 81.413 44.4583 81.2401 44.6312C81.0672 44.8041 80.9301 45.0093 80.8365 45.2352C80.743 45.461 80.6948 45.7031 80.6948 45.9476Z" fill="white"/>
<path d="M99.5137 92.3134C99.4647 92.2942 99.4202 92.265 99.383 92.2278C99.3457 92.1906 99.3165 92.1461 99.2972 92.0972C99.2779 92.0482 99.2689 91.9957 99.2707 91.9431C99.2726 91.8905 99.2853 91.8388 99.308 91.7913C99.3307 91.7438 99.3629 91.7015 99.4027 91.667C99.4424 91.6325 99.4889 91.6065 99.5391 91.5908C99.5894 91.575 99.6423 91.5698 99.6947 91.5754C99.747 91.581 99.7977 91.5973 99.8434 91.6234C101.581 92.4507 105.057 91.9071 106.408 91.1135C106.452 91.0879 106.5 91.0712 106.55 91.0642C106.599 91.0573 106.65 91.0602 106.699 91.0728C106.748 91.0855 106.793 91.1076 106.834 91.1379C106.874 91.1682 106.908 91.2062 106.933 91.2496C106.959 91.293 106.975 91.341 106.982 91.3908C106.989 91.4407 106.986 91.4914 106.974 91.5402C106.961 91.5889 106.939 91.6347 106.909 91.6749C106.878 91.7151 106.84 91.7489 106.797 91.7744C105.17 92.7305 101.465 93.2427 99.5137 92.3134Z" fill="white"/>
<path d="M90.9129 39.1664C89.9695 39.1677 89.0586 39.5113 88.3494 40.1335C87.6402 40.7556 87.181 41.6141 87.0569 42.5493C86.8822 42.5261 86.7047 42.5368 86.534 42.5807C86.4118 41.5926 85.9151 40.6891 85.1464 40.0564C84.3776 39.4237 83.3955 39.1101 82.4023 39.1802C81.4092 39.2503 80.4808 39.6988 79.8085 40.4331C79.1363 41.1675 78.7714 42.1319 78.7892 43.1273C78.807 44.1228 79.206 45.0735 79.904 45.7834C80.602 46.4933 81.5458 46.9084 82.5408 46.943C83.5358 46.9777 84.5062 46.6292 85.2519 45.9695C85.9975 45.3098 86.4617 44.3891 86.5486 43.3973C86.6203 43.3531 86.7002 43.324 86.7835 43.3116C86.8668 43.2992 86.9517 43.3038 87.0332 43.3252C87.0856 44.0813 87.3578 44.8056 87.8162 45.409C88.2747 46.0125 88.8994 46.4689 89.6137 46.7222C90.328 46.9755 91.1008 47.0145 91.837 46.8346C92.5732 46.6547 93.2408 46.2636 93.7578 45.7094C94.2748 45.1553 94.6186 44.4622 94.747 43.7152C94.8754 42.9683 94.7829 42.2002 94.4807 41.5051C94.1785 40.8101 93.6798 40.2185 93.046 39.803C92.4122 39.3875 91.6708 39.1663 90.9129 39.1664ZM82.6734 46.1783C82.0557 46.1783 81.4519 45.9951 80.9383 45.6519C80.4247 45.3087 80.0244 44.821 79.7881 44.2503C79.5518 43.6796 79.49 43.0516 79.6105 42.4458C79.7311 41.84 80.0286 41.2835 80.4654 40.8468C80.9022 40.4101 81.4588 40.1127 82.0646 39.9923C82.6705 39.8719 83.2984 39.9338 83.8691 40.1703C84.4397 40.4068 84.9274 40.8072 85.2704 41.3209C85.6135 41.8345 85.7965 42.4384 85.7964 43.0561C85.7954 43.884 85.466 44.6776 84.8805 45.263C84.295 45.8483 83.5013 46.1775 82.6734 46.1783ZM90.9129 46.1783C88.513 46.1783 87.6427 43.7178 87.8306 42.5562C87.9259 41.9675 88.1878 41.4184 88.5852 40.9738C88.9827 40.5292 89.4992 40.2078 90.0736 40.0474C90.648 39.887 91.2563 39.8945 91.8265 40.0688C92.3968 40.2432 92.9053 40.5772 93.2918 41.0314C93.6782 41.4856 93.9266 42.0409 94.0075 42.6317C94.0884 43.2226 93.9984 43.8242 93.7482 44.3656C93.498 44.9069 93.0981 45.3653 92.5956 45.6865C92.0932 46.0077 91.5093 46.1784 90.9129 46.1783Z" fill="#4B1010"/>
<path d="M90.0363 46.9673C89.6093 46.9505 89.2048 46.7714 88.9053 46.4666C88.833 46.3968 88.7362 46.3581 88.6357 46.359C88.5351 46.3599 88.439 46.4002 88.3679 46.4713C88.2968 46.5424 88.2565 46.6385 88.2556 46.7391C88.2548 46.8396 88.2934 46.9364 88.3632 47.0087C88.488 47.1329 88.6252 47.2439 88.7727 47.34C87.0229 50.2613 87.3274 49.7644 87.1065 50.0121C87.1065 50.0121 87.0084 50.0726 86.6817 49.8587C86.4617 49.6824 85.6727 49.069 85.455 48.8942C85.3753 48.8343 85.2755 48.8078 85.1767 48.8203C85.0779 48.8328 84.9878 48.8832 84.9255 48.9609C84.8632 49.0387 84.8336 49.1376 84.843 49.2368C84.8524 49.3359 84.9 49.4275 84.9757 49.4922C85.1973 49.6693 85.9855 50.2827 86.2301 50.4767C86.4126 50.6422 86.6438 50.7441 86.889 50.767C87.1343 50.79 87.3804 50.7328 87.5903 50.604C87.9622 50.2482 87.7667 50.5128 89.4758 47.6589C89.6584 47.7092 89.8469 47.7349 90.0363 47.7356C90.138 47.7356 90.2355 47.6952 90.3074 47.6233C90.3793 47.5514 90.4196 47.4539 90.4196 47.3522C90.4196 47.2505 90.3793 47.153 90.3074 47.0811C90.2355 47.0092 90.138 46.9688 90.0363 46.9688V46.9673Z" fill="#4B1010"/>
</svg>
