<svg width="156" height="156" viewBox="0 0 156 156" fill="none" xmlns="http://www.w3.org/2000/svg">
<path d="M127.7 102.426L125.258 104.914L123.717 104.318L124.37 102.784L122.871 102.287L123.478 100.653L127.035 100.666C127.035 100.666 126.505 102.026 127.7 102.426Z" fill="#FFD997"/>
<path d="M88.2025 45.6851C90.3008 42.7514 95.6686 38.2027 99.2557 37.8403C100.225 37.7405 104.854 39.7667 108.469 41.3841C108.469 41.3841 116.892 41.0829 118.052 42.3906C122.859 47.8011 127.072 62.5986 127.894 64.2462C128.716 65.8938 147.495 74.8155 151.423 76.8464V100.785L121.347 84.472C119.878 84.6516 118.393 84.6516 116.924 84.472C104.494 82.0563 87.834 69.4747 84.6069 67.9804C82.2377 66.8817 81.6733 64.59 81.3752 63.0507C81.311 62.6167 81.2131 62.1883 81.0825 61.7694C80.8788 61.3569 80.6083 60.9809 80.2819 60.6568C79.8948 60.2294 79.4248 59.7865 79.0083 59.3723C78.6791 59.0609 78.3747 58.7244 78.0978 58.3657C77.7708 57.9116 77.5851 57.3711 77.564 56.8119C77.543 56.2527 77.6874 55.6997 77.9793 55.2223C78.1989 54.8235 78.4748 54.4584 78.7985 54.1383C79.9459 52.9886 82.6999 53.9719 82.8099 54.0098C82.9171 53.1717 83.234 52.3741 83.7312 51.6909C86.0819 48.0458 85.9828 46.6351 87.237 46.1055C87.467 46.0064 87.7999 45.8624 88.2025 45.6851ZM91.5868 52.1439V52.181C91.4249 52.4939 91.241 52.7948 91.0363 53.0815C90.2452 54.2654 89.1134 55.1815 87.7906 55.7085C87.6242 55.7681 87.4492 55.8192 87.2696 55.8634C87.979 56.5947 88.5896 57.4156 89.0859 58.3054C89.2147 58.5384 89.3277 58.7797 89.4243 59.0277C89.4243 59.0277 95.8127 62.9764 96.8416 63.547C96.8416 63.547 103.405 60.0629 105.404 59.0951C105.404 59.0951 103.263 56.8978 102.798 56.3171L112.795 54.9281L115.409 54.5409L116.568 54.3683C117.201 54.2753 117.77 53.9347 118.152 53.4216C118.534 52.9085 118.696 52.2648 118.603 51.6321C118.51 50.9994 118.169 50.4296 117.656 50.048C117.143 49.6664 116.499 49.5043 115.867 49.5974L114.698 49.7692C114.694 49.7687 114.689 49.7687 114.685 49.7692L112.084 50.1564L99.2317 51.9371C98.3874 51.224 97.6348 50.409 96.9911 49.5106C96.3628 50.6505 95.3391 51.521 94.1132 51.958C93.2884 52.1673 92.4333 52.2302 91.5868 52.1439Z" fill="#FFD997"/>
<path d="M118.602 51.6336C118.694 52.2659 118.532 52.9091 118.151 53.4219C117.769 53.9347 117.2 54.275 116.568 54.3682L115.402 54.5401C114.898 54.4808 114.43 54.2492 114.077 53.8845C113.724 53.5198 113.508 53.0443 113.466 52.5387C113.128 50.2934 114.53 49.8203 114.689 49.7715C114.693 49.7709 114.697 49.7709 114.702 49.7715L115.87 49.5996C116.502 49.5081 117.144 49.6708 117.656 50.0521C118.168 50.4334 118.508 51.0021 118.602 51.6336Z" fill="black"/>
<path d="M115.401 54.5425L112.788 54.9296C112.213 54.9306 111.658 54.715 111.235 54.3257C110.812 53.9365 110.551 53.4021 110.504 52.8291V52.802C110.405 52.2447 110.511 51.6707 110.802 51.1852C111.093 50.6997 111.548 50.3352 112.086 50.1587L114.687 49.7715C114.528 49.8203 113.126 50.2903 113.464 52.5387C113.506 53.045 113.722 53.5212 114.075 53.8864C114.428 54.2516 114.897 54.4834 115.401 54.5425Z" fill="#81F8F8"/>
<path d="M129.424 100.669L127.989 102.133L127.704 102.425C126.512 102.025 127.038 100.665 127.038 100.665H127.38L129.424 100.669Z" fill="black"/>
<path d="M94.9004 117.546L92.5661 118.524L90.7876 114.26L93.122 113.286L94.0139 115.416L94.9004 117.546Z" fill="black"/>
<path d="M92.5659 118.524L91.523 118.959C90.9576 119.196 90.3215 119.197 89.7547 118.965C89.188 118.732 88.7369 118.283 88.5007 117.718C88.2646 117.153 88.2627 116.516 88.4956 115.95C88.7284 115.383 89.1768 114.932 89.7422 114.696L90.7852 114.26L92.5659 118.524Z" fill="#81F8F8"/>
<path d="M86.4855 80.5814C87.6659 85.0005 87.9643 89.6088 87.3637 94.1432C86.7631 98.6777 85.2752 103.049 82.9851 107.009C80.6949 110.968 77.6472 114.438 74.0161 117.219C70.385 120.001 66.2416 122.04 61.8225 123.22L59.0499 112.834C62.2576 111.736 64.8568 110.79 65.6241 110.231C67.768 108.675 73.931 107.98 73.6623 106.105C73.3937 104.229 70.6613 101.711 67.1795 101.978C63.6977 102.244 61.9572 103.866 60.243 103.974C59.1498 104.041 58.0852 104.323 56.7209 104.393L56.7124 104.083L52.8737 89.7051L52.8528 89.6943C54.3649 86.3116 56.0226 82.9374 56.7349 81.6723C57.4244 80.428 58.0405 79.1445 58.5799 77.8281C58.5799 77.8281 61.5004 74.207 61.543 72.4014C61.5471 72.1816 61.5229 71.9623 61.471 71.7487C61.073 69.9834 59.0282 67.8426 56.4817 69.484C55.2087 70.207 54.175 71.2865 53.5078 72.5895V72.595C52.087 74.0374 50.6872 76.7217 49.8378 78.3415L48.167 72.0847L48.1027 72.063C48.2824 71.6682 49.6443 68.6672 50.5982 66.1447C50.9906 65.1897 51.2964 64.2014 51.5118 63.1917C51.5903 62.7279 51.5947 62.2547 51.5249 61.7895C51.5234 61.7633 51.5189 61.7373 51.5118 61.7121C51.4505 61.3514 51.3013 61.0115 51.0772 60.7223C50.8532 60.4332 50.5612 60.2038 50.2273 60.0544C47.632 58.7459 46.1385 60.5267 45.437 61.6633L45.3727 61.6231L43.8467 55.9168C48.2659 54.7363 52.8743 54.4379 57.4089 55.0385C61.9434 55.6392 66.3153 57.1272 70.2747 59.4175C74.2342 61.7079 77.7037 64.7558 80.4851 68.3871C83.2666 72.0184 85.3055 76.162 86.4855 80.5814Z" fill="#81F8F8"/>
<path d="M75.1886 56.9125L75.9521 56.4479C75.7065 56.7642 75.5686 57.1506 75.5584 57.5509C75.5482 57.9511 75.6664 58.3441 75.8955 58.6724L75.431 58.5516L73.3599 58.0173L75.1871 56.9071L75.1886 56.9125Z" fill="black"/>
<path d="M33.8496 64.0109C34.4092 63.3225 35.0568 62.7108 35.776 62.1914C37.463 61.1074 42.2371 62.6428 36.9126 70.2653L32.9043 77.1104C32.9043 77.1104 32.5249 82.6982 33.8473 84.9095C35.2115 82.548 37.35 78.1015 37.7317 77.0942C38.2319 75.7834 39.6673 72.0437 40.9131 70.4232C41.891 69.1527 43.6749 64.7332 45.029 62.3772C45.1065 62.2371 45.2412 61.9769 45.434 61.6649C46.1354 60.5283 47.629 58.7475 50.2243 60.056C50.5582 60.2053 50.8501 60.4347 51.0742 60.7239C51.2982 61.013 51.4475 61.353 51.5087 61.7137C51.5142 61.7377 51.5165 61.7617 51.5219 61.7911C51.5917 62.2562 51.5873 62.7295 51.5087 63.1933C51.2934 64.203 50.9876 65.1913 50.5951 66.1462C49.6412 68.6688 48.2793 71.6698 48.0997 72.0646C48.0941 72.0792 48.0876 72.0934 48.0804 72.1072C48.0804 72.1072 47.6158 74.0529 47.1187 75.5488C46.6217 77.0446 46.2105 77.5935 45.4611 79.3426C44.9748 80.4761 43.5401 83.7674 42.5785 86.3271C41.6169 88.8868 42.8209 88.1141 44.2819 87.281C46.0898 84.726 48.7284 80.3174 49.2897 79.3472C49.4268 79.1111 49.6095 78.7642 49.8317 78.3454C50.6834 76.7256 52.0809 74.0413 53.5017 72.5989V72.5934C54.1689 71.2904 55.2026 70.2109 56.4756 69.4879C59.0221 67.8465 61.0669 69.9873 61.4648 71.7526C61.5168 71.9662 61.541 72.1855 61.5368 72.4053C61.4943 74.2108 58.5738 77.832 58.5738 77.832C58.0334 79.1487 57.4163 80.4325 56.7256 81.677C56.0133 82.9421 54.3557 86.3163 52.8436 89.699C51.2796 93.1994 49.8666 96.7137 49.8124 97.9122C49.7055 100.268 51.206 103.75 54.0444 104.234C54.9258 104.387 55.8214 104.442 56.7148 104.397C58.079 104.328 59.1436 104.046 60.2369 103.978C61.9511 103.871 63.6893 102.251 67.1734 101.982C70.6575 101.714 73.3875 104.234 73.6562 106.109C73.9249 107.984 67.7618 108.68 65.6179 110.235C64.8499 110.794 62.2515 111.74 59.0438 112.839C53.3298 114.795 45.6701 117.237 42.9084 118.841C38.5904 121.345 35.9145 122.465 33.8434 122.551L4.31348 144.359V115.467L15.0647 107.332C14.9168 106.886 14.755 106.397 14.5893 105.873C13.7617 103.305 17.6143 91.1073 17.6143 91.1073C17.6143 91.1073 14.6459 84.0686 14.2913 82.548C13.9366 81.0274 14.2913 80.2136 14.9525 78.9454C15.6137 77.6772 16.4514 74.3773 17.972 73.6689C18.4138 73.4286 18.9326 73.373 19.4152 73.514L19.4416 73.4366C19.6521 73.2411 19.8756 73.06 20.1105 72.8946C22.6361 71.1185 24.8443 72.6469 24.6267 74.4849C24.3945 76.4647 22.2869 78.4986 21.6288 78.6434C21.1961 79.4912 20.9348 80.416 20.86 81.3649L20.8391 81.3843C21.7628 82.4047 23.4716 85.0674 24.2001 85.9702C24.7855 82.9072 25.1184 77.4697 25.5001 75.7152C26.2201 72.4138 31.7715 66.7285 31.7715 66.7285C32.4155 65.7864 33.1092 64.8792 33.8496 64.0109Z" fill="#FFD997"/>
<path d="M4.31348 115.467L15.0647 107.332" stroke="black" stroke-width="0.980065" stroke-linecap="round" stroke-linejoin="round"/>
<path d="M59.4642 75.0284C59.2961 75.997 58.9987 76.9387 58.58 77.8281C58.0396 79.1448 57.4225 80.4286 56.7319 81.6731C56.0195 82.9382 54.3619 86.3124 52.8498 89.6951C51.2858 93.1955 49.8728 96.7098 49.8186 97.9083C49.7117 100.264 51.2122 103.746 54.0506 104.23C54.932 104.383 55.8276 104.438 56.721 104.393C58.0852 104.324 59.1498 104.042 60.2431 103.975C61.9573 103.867 63.6955 102.247 67.1796 101.979C70.6637 101.71 73.3937 104.23 73.6624 106.105C73.9311 107.981 67.768 108.676 65.6241 110.231C64.8561 110.79 62.2577 111.736 59.05 112.835C53.336 114.791 45.6763 117.233 42.9146 118.837C38.5966 121.341 35.9207 122.461 33.8496 122.547L4.31348 144.359" stroke="black" stroke-width="0.980065" stroke-linecap="round" stroke-linejoin="round"/>
<path d="M65.6732 108.907C65.2404 107.988 67.7227 106.478 69.6653 105.669C71.6079 104.86 72.1986 106.211 72.1986 106.211" stroke="black" stroke-width="0.980065" stroke-linecap="round" stroke-linejoin="round"/>
<path d="M53.5083 72.5888C53.8274 72.2425 54.2071 71.9576 54.6286 71.7479" stroke="black" stroke-width="0.980065" stroke-linecap="round" stroke-linejoin="round"/>
<path d="M44.2876 87.274C46.0955 84.719 48.7341 80.3104 49.2955 79.3402C49.4325 79.1041 49.6152 78.7572 49.8374 78.3383C50.6891 76.7186 52.0866 74.0343 53.5074 72.5919" stroke="black" stroke-width="0.980065" stroke-linecap="round" stroke-linejoin="round"/>
<path d="M42.6538 89.1275C42.8923 89.1275 43.5156 88.3726 44.2867 87.2763" stroke="black" stroke-width="0.980065" stroke-linecap="round" stroke-linejoin="round"/>
<path d="M58.5804 77.8281C58.5804 77.8281 61.5009 74.2069 61.5435 72.4014C61.5477 72.1816 61.5235 71.9622 61.4715 71.7487C61.0735 69.9834 59.0287 67.8426 56.4822 69.484C55.2092 70.2069 54.1755 71.2864 53.5083 72.5895V72.5949" stroke="black" stroke-width="0.980065" stroke-linecap="round" stroke-linejoin="round"/>
<path d="M56.4927 71.7479C57.167 71.8122 58.642 72.5508 58.7705 73.545" stroke="black" stroke-width="0.980065" stroke-linecap="round" stroke-linejoin="round"/>
<path d="M57.5239 70.0856C58.1189 70.1675 58.6893 70.3767 59.1962 70.6988C59.7031 71.0209 60.1346 71.4485 60.4614 71.9523C61.0986 73.0882 61.4749 71.7479 61.4749 71.7479" stroke="black" stroke-width="0.980065" stroke-linecap="round" stroke-linejoin="round"/>
<path d="M41.6595 89.3644C41.8538 88.3191 42.162 87.2983 42.5786 86.3201C43.5402 83.7604 44.9749 80.4691 45.4611 79.3356C46.2106 77.5889 46.6225 77.0407 47.1188 75.5417C47.6151 74.0428 48.0804 72.1002 48.0804 72.1002C48.0876 72.0864 48.0941 72.0721 48.0998 72.0576C48.2794 71.6627 49.6413 68.6617 50.5952 66.1392C50.9876 65.1843 51.2934 64.196 51.5088 63.1862C51.5873 62.7225 51.5918 62.2492 51.5219 61.7841C51.5165 61.757 51.5142 61.733 51.5088 61.7066C51.4475 61.346 51.2983 61.006 51.0742 60.7169C50.8502 60.4277 50.5582 60.1983 50.2243 60.049C47.629 58.7405 46.1355 60.5213 45.434 61.6579C45.2412 61.9676 45.1096 62.23 45.0291 62.3702C43.6749 64.7262 41.891 69.1456 40.9132 70.4162C39.6666 72.0367 38.2319 75.7763 37.7318 77.0871C37.35 78.0937 35.2116 82.541 33.8473 84.9024C33.5877 85.4077 33.2713 85.8818 32.9043 86.3154" stroke="black" stroke-width="0.980065" stroke-linecap="round" stroke-linejoin="round"/>
<path d="M45.7246 63.3659C46.6036 63.2479 47.4982 63.3647 48.3176 63.7042" stroke="black" stroke-width="0.980065" stroke-linecap="round" stroke-linejoin="round"/>
<path d="M47.3364 61.0632C48.233 60.9477 49.1397 61.1805 49.8698 61.7136C50.668 62.4522 51.5522 62.2238 51.522 61.791C51.5204 61.7648 51.516 61.7388 51.5089 61.7136" stroke="black" stroke-width="0.980065" stroke-linecap="round" stroke-linejoin="round"/>
<path d="M49.2573 64.0859C49.6688 64.244 50.0198 64.5282 50.2601 64.8978C50.5004 65.2674 50.6177 65.7035 50.5952 66.1438" stroke="black" stroke-width="0.980065" stroke-linecap="round" stroke-linejoin="round"/>
<path d="M42.5811 86.3224C42.5811 86.3224 42.8234 88.1094 44.2844 87.2763" stroke="black" stroke-width="0.980065" stroke-linecap="round" stroke-linejoin="round"/>
<path d="M51.5225 80.0146C52.4293 80.295 53.3124 80.6471 54.1634 81.0676" stroke="black" stroke-width="0.980065" stroke-linecap="round" stroke-linejoin="round"/>
<path d="M40.623 75.0284C41.5041 76.1271 43.686 76.4384 44.516 76.388" stroke="black" stroke-width="0.980065" stroke-linecap="round" stroke-linejoin="round"/>
<path d="M31.7731 66.7238C31.7731 66.7238 26.2225 72.4091 25.5016 75.7105C25.1199 77.4649 24.787 82.9025 24.2017 85.9654C24.1113 86.4868 23.9782 86.9998 23.8037 87.4992" stroke="black" stroke-width="0.980065" stroke-linecap="round" stroke-linejoin="round"/>
<path d="M36.9127 70.2652L32.9044 77.1104C32.9044 77.1104 32.525 82.6981 33.8475 84.9094" stroke="black" stroke-width="0.980065" stroke-linecap="round" stroke-linejoin="round"/>
<path d="M16.0428 110.185C16.0428 110.185 15.6456 109.081 15.0649 107.332C14.917 106.886 14.7552 106.397 14.5895 105.873C13.7618 103.305 17.6145 91.1073 17.6145 91.1073C17.6145 91.1073 14.646 84.0686 14.2914 82.548C13.9368 81.0273 14.2914 80.2136 14.9526 78.9454C15.6138 77.6771 16.4516 74.3773 17.9722 73.6688C18.4139 73.4286 18.9328 73.3729 19.4154 73.514C19.9549 73.7713 20.4587 74.0974 20.9144 74.4841" stroke="black" stroke-width="0.980065" stroke-linecap="round" stroke-linejoin="round"/>
<path d="M31.7729 66.7238C32.4167 65.7844 33.1098 64.8798 33.8495 64.0139C34.409 63.3256 35.0567 62.7138 35.7758 62.1944C37.4629 61.1105 42.237 62.6458 36.9124 70.2683" stroke="black" stroke-width="0.980065" stroke-linecap="round" stroke-linejoin="round"/>
<path d="M33.8501 64.0108C34.6959 63.7904 35.5873 63.8173 36.4183 64.0882C37.63 64.5528 37.9985 63.1158 37.9985 63.1158" stroke="black" stroke-width="0.980065" stroke-linecap="round" stroke-linejoin="round"/>
<path d="M27.2681 75.0287C28.081 74.969 28.8971 74.969 29.7101 75.0287" stroke="black" stroke-width="0.980065" stroke-linecap="round" stroke-linejoin="round"/>
<path d="M20.5186 81.0676C20.6344 81.1619 20.7424 81.2654 20.8414 81.3773C21.7651 82.3977 23.4739 85.0604 24.2024 85.9632" stroke="black" stroke-width="0.980065" stroke-linecap="round" stroke-linejoin="round"/>
<path d="M20.8628 81.3603C20.9376 80.4114 21.1989 79.4866 21.6316 78.6388C21.6881 78.5234 21.7524 78.4065 21.8221 78.2842" stroke="black" stroke-width="0.980065" stroke-linecap="round" stroke-linejoin="round"/>
<path d="M21.6099 78.6441C21.6174 78.6437 21.6248 78.6419 21.6316 78.6387C22.2897 78.4939 24.3957 76.46 24.6295 74.4802C24.8471 72.6421 22.6389 71.1138 20.1133 72.8899C19.8784 73.0553 19.6549 73.2364 19.4443 73.4319" stroke="black" stroke-width="0.980065" stroke-linecap="round" stroke-linejoin="round"/>
<path d="M20.1133 72.8899C20.896 73.113 21.6497 73.4277 22.3586 73.8275C23.1329 74.3401 23.4844 73.4326 23.4844 73.4326" stroke="black" stroke-width="0.980065" stroke-linecap="round" stroke-linejoin="round"/>
<path d="M151.421 76.8472C147.493 74.8163 128.714 65.8884 127.892 64.247C127.069 62.6056 122.859 47.8019 118.05 42.3914C116.889 41.083 108.467 41.3849 108.467 41.3849" stroke="black" stroke-width="0.980065" stroke-linecap="round" stroke-linejoin="round"/>
<path d="M82.8104 54.0106C82.7004 53.9726 79.9456 52.9893 78.799 54.1391C78.4752 54.4592 78.1994 54.8243 77.9798 55.2231C77.6879 55.7005 77.5434 56.2535 77.5645 56.8127C77.5856 57.3719 77.7713 57.9124 78.0983 58.3665C78.3752 58.7251 78.6796 59.0617 79.0088 59.373C79.4253 59.7873 79.8922 60.2301 80.2824 60.6575C80.6088 60.9817 80.8793 61.3576 81.083 61.7701C81.2136 62.189 81.3115 62.6174 81.3757 63.0515C81.6738 64.5907 82.2382 66.8825 84.6074 67.9812C87.8345 69.4747 104.494 82.0563 116.925 84.4727C118.393 84.6524 119.878 84.6524 121.347 84.4727L151.424 100.785" stroke="black" stroke-width="0.980065" stroke-linecap="round" stroke-linejoin="round"/>
<path d="M87.2603 55.8618C87.9696 56.5931 88.5803 57.4141 89.0766 58.3038C89.2054 58.5368 89.3184 58.7781 89.415 59.0262C89.415 59.0262 95.8033 62.9749 96.8323 63.5455C96.8323 63.5455 103.396 60.0614 105.395 59.0935C105.395 59.0935 103.254 56.8962 102.789 56.3155L102.783 56.3101" stroke="black" stroke-width="0.980065" stroke-linecap="round" stroke-linejoin="round"/>
<path d="M80.2822 60.6575C80.2822 60.6575 80.9589 58.2155 81.521 57.576C82.0831 56.9365 80.6399 55.4561 79.7178 54.7957" stroke="black" stroke-width="0.980065" stroke-linecap="round" stroke-linejoin="round"/>
<path d="M82.4506 61.1042C82.1068 61.6362 81.2412 62.4367 81.3705 63.0546" stroke="black" stroke-width="0.980065" stroke-linecap="round" stroke-linejoin="round"/>
<path d="M99.2553 51.9635L99.2313 51.9426C98.387 51.2294 97.6344 50.4144 96.9906 49.5161C96.3624 50.6559 95.3387 51.5265 94.1127 51.9635C93.2864 52.1714 92.43 52.2324 91.5825 52.1439C91.2169 52.1128 90.8545 52.0524 90.4985 51.9635" stroke="black" stroke-width="0.980065" stroke-linecap="round" stroke-linejoin="round"/>
<path d="M91.5795 52.181C91.4176 52.4939 91.2337 52.7948 91.029 53.0815C90.2379 54.2654 89.1061 55.1814 87.7833 55.7085C87.6169 55.7681 87.4419 55.8192 87.2623 55.8633C87.1655 55.8842 87.0664 55.9036 86.9642 55.9222C84.6886 56.3171 82.7058 55.7983 82.808 54.0067C82.9152 53.1685 83.2321 52.371 83.7293 51.6878C86.08 48.0426 85.9809 46.6319 87.2351 46.1024C87.4674 46.0056 87.7996 45.8608 88.2022 45.6835C89.9783 44.8961 93.1458 43.4382 95.2548 42.3387C97.8424 40.9877 98.6616 41.2803 100.193 41.9276C101.724 42.5749 109.542 46.9835 109.542 46.9835" stroke="black" stroke-width="0.980065" stroke-linecap="round" stroke-linejoin="round"/>
<path d="M112.501 43.168C111.764 42.8699 110.238 42.1762 108.467 41.3872C104.854 39.7698 100.225 37.7436 99.2539 37.8435C95.6668 38.2058 90.2989 42.7545 88.2007 45.6882" stroke="black" stroke-width="0.980065" stroke-linecap="round" stroke-linejoin="round"/>
<path d="M91.0293 53.0815L99.2317 51.9426L112.084 50.1587" stroke="black" stroke-width="0.980065" stroke-linecap="round" stroke-linejoin="round"/>
<path d="M112.788 54.9296L102.791 56.3186L89.2876 58.1939" stroke="black" stroke-width="0.980065" stroke-linecap="round" stroke-linejoin="round"/>
<path d="M75.1861 56.9094L73.3589 58.0196L75.43 58.5539L75.8953 58.6747L78.9227 59.4567" stroke="black" stroke-width="0.980065" stroke-linecap="round" stroke-linejoin="round"/>
<path d="M75.9524 56.4503L75.189 56.9125" stroke="black" stroke-width="0.980065" stroke-linecap="round" stroke-linejoin="round"/>
<path d="M77.9747 55.22L75.957 56.4448" stroke="black" stroke-width="0.980065" stroke-linecap="round" stroke-linejoin="round"/>
<path d="M109.714 52.9173L87.8162 55.9423L87.7891 55.9454" stroke="black" stroke-width="0.980065" stroke-linecap="round" stroke-linejoin="round"/>
<path d="M115.401 54.5425L112.788 54.9296C112.213 54.9306 111.658 54.715 111.235 54.3257C110.812 53.9365 110.551 53.4021 110.504 52.8291V52.802C110.405 52.2447 110.511 51.6707 110.802 51.1852C111.093 50.6997 111.548 50.3352 112.086 50.1587L114.687 49.7715" stroke="black" stroke-width="0.980065" stroke-linecap="round" stroke-linejoin="round"/>
<path d="M115.402 54.5425L116.568 54.3682C117.2 54.2752 117.77 53.9347 118.152 53.4216C118.533 52.9084 118.695 52.2647 118.602 51.632C118.509 50.9994 118.169 50.4296 117.656 50.048C117.143 49.6664 116.499 49.5043 115.866 49.5973L114.698 49.7692C114.693 49.7686 114.689 49.7686 114.685 49.7692C114.526 49.818 113.124 50.2879 113.462 52.5364C113.504 53.0434 113.72 53.5204 114.073 53.8861C114.427 54.2519 114.896 54.4838 115.402 54.5425Z" stroke="black" stroke-width="0.980065" stroke-linecap="round" stroke-linejoin="round"/>
<path d="M75.9565 56.4448L75.9519 56.4502C75.7063 56.7665 75.5684 57.1529 75.5582 57.5532C75.5481 57.9534 75.6662 58.3464 75.8954 58.6747" stroke="black" stroke-width="0.980065" stroke-linecap="round" stroke-linejoin="round"/>
<path d="M52.8706 89.7051L56.7124 104.087" stroke="black" stroke-width="0.980065" stroke-linecap="round" stroke-linejoin="round"/>
<path d="M48.1641 72.0839L49.8349 78.3406" stroke="black" stroke-width="0.980065" stroke-linecap="round" stroke-linejoin="round"/>
<path d="M59.0499 112.834L61.8225 123.22C70.7475 120.836 78.36 115.005 82.9853 107.008C87.6107 99.0119 88.87 89.5056 86.4863 80.5806C84.1025 71.6556 78.271 64.0431 70.2745 59.4178C62.278 54.7924 52.7717 53.5331 43.8467 55.9168L45.3696 61.623" stroke="black" stroke-width="0.980065" stroke-linecap="round" stroke-linejoin="round"/>
<path d="M86.3466 81.2797L80.0356 82.9668" stroke="black" stroke-width="0.980065" stroke-linecap="round" stroke-linejoin="round"/>
<path d="M82.2889 107.85L76.6338 104.581" stroke="black" stroke-width="0.980065" stroke-linecap="round" stroke-linejoin="round"/>
<path d="M71.5347 60.2247L68.2627 65.8806" stroke="black" stroke-width="0.980065" stroke-linecap="round" stroke-linejoin="round"/>
<path d="M43.8467 53.3579C43.8467 53.3579 60.5573 48.7124 73.3588 58.0197" stroke="black" stroke-width="0.980065" stroke-linecap="round" stroke-linejoin="round" stroke-dasharray="4.08 4.08"/>
<path d="M93.1221 113.286L123.478 100.653L122.868 102.287L124.37 102.784L123.717 104.318L125.257 104.914L94.9005 117.546" stroke="black" stroke-width="0.980065" stroke-linecap="round" stroke-linejoin="round"/>
<path d="M127.989 102.133L129.424 100.669L127.373 100.666L127.032 100.664L123.478 100.653" stroke="black" stroke-width="0.980065" stroke-linecap="round" stroke-linejoin="round"/>
<path d="M125.256 104.914L127.701 102.426L127.986 102.133" stroke="black" stroke-width="0.980065" stroke-linecap="round" stroke-linejoin="round"/>
<path d="M94.0137 115.416L121.928 103.802" stroke="black" stroke-width="0.980065" stroke-linecap="round" stroke-linejoin="round"/>
<path d="M90.7876 114.26L93.122 113.286L94.0139 115.416L94.9004 117.546L92.5661 118.524" stroke="black" stroke-width="0.980065" stroke-linecap="round" stroke-linejoin="round"/>
<path d="M90.7871 114.26L89.7442 114.696C89.1788 114.932 88.7303 115.383 88.4975 115.95C88.2647 116.516 88.2665 117.153 88.5027 117.718C88.7388 118.283 89.1899 118.732 89.7567 118.965C90.3235 119.197 90.9596 119.196 91.525 118.959L92.5679 118.524L90.7871 114.26Z" stroke="black" stroke-width="0.980065" stroke-linecap="round" stroke-linejoin="round"/>
<path d="M127.032 100.664C127.032 100.664 126.505 102.023 127.698 102.424" stroke="black" stroke-width="0.980065" stroke-linecap="round" stroke-linejoin="round"/>
<path d="M33.9357 48.7186L26.2605 51.4455L21.6367 38.4311L98.3743 11.1511L103 24.1655L95.2603 26.9164L87.5874 29.6433L79.9146 32.3734L72.2387 35.0995L64.6301 37.8055L56.9573 40.5324L49.2814 43.2616L41.6085 45.9886L33.9357 48.7155" stroke="black" stroke-width="0.980065" stroke-linecap="round" stroke-linejoin="round"/>
<path d="M64.6299 37.8055L63.5498 34.7697" stroke="black" stroke-width="0.980065" stroke-linecap="round" stroke-linejoin="round"/>
<path d="M56.957 40.5324L55.877 37.4989" stroke="black" stroke-width="0.980065" stroke-linecap="round" stroke-linejoin="round"/>
<path d="M49.2816 43.2617L48.2046 40.2258" stroke="black" stroke-width="0.980065" stroke-linecap="round" stroke-linejoin="round"/>
<path d="M41.6084 45.9885L40.5283 42.9527" stroke="black" stroke-width="0.980065" stroke-linecap="round" stroke-linejoin="round"/>
<path d="M33.9355 48.7186V48.7155L32.8555 45.6827" stroke="black" stroke-width="0.980065" stroke-linecap="round" stroke-linejoin="round"/>
<path d="M95.2601 26.9165L94.1831 23.8806" stroke="black" stroke-width="0.980065" stroke-linecap="round" stroke-linejoin="round"/>
<path d="M87.5874 29.6434L86.5073 26.6099" stroke="black" stroke-width="0.980065" stroke-linecap="round" stroke-linejoin="round"/>
<path d="M79.9146 32.3733L78.8345 29.3367" stroke="black" stroke-width="0.980065" stroke-linecap="round" stroke-linejoin="round"/>
<path d="M72.2386 35.0995L71.1616 32.0637" stroke="black" stroke-width="0.980065" stroke-linecap="round" stroke-linejoin="round"/>
</svg>
