<svg width="154" height="154" viewBox="0 0 154 154" fill="none" xmlns="http://www.w3.org/2000/svg">
<path d="M81.7427 95.766C94.2721 95.1304 105.751 94.8425 107.602 95.88C108.555 96.416 110.038 103.461 110.72 108.172C114.568 107.713 119.404 107.29 124.236 106.961C123.519 103.336 123.076 101.065 121.448 97.5623C121.201 97.0317 121.877 96.8173 122.152 97.302C123.783 100.288 124.878 103.537 125.388 106.901C131.93 106.471 138.384 106.212 142.429 106.212C141.97 102.253 139.425 93.1304 134.864 88.4526C131.348 84.8469 124.527 81.6378 118.49 80.8782C118.396 81.7148 118.073 82.5094 117.557 83.1746C117.041 83.8399 116.352 84.3501 115.565 84.6493C112.34 85.9166 106.453 86.2497 101.202 83.3652C95.6618 84.9456 85.5092 90.9749 81.7427 95.766Z" fill="#38A1FF"/>
<path d="M149.277 123.943C116.242 124.564 83.356 124.441 50.3384 124.479C49.6707 124.479 49.5199 125.522 50.2105 125.535C83.1539 126.143 116.49 125.427 149.428 125.023C150.132 125.017 149.977 123.93 149.277 123.943Z" fill="#38A1FF"/>
<path d="M67.9376 58.6709C71.3289 58.7345 87.8569 58.4267 89.6142 58.3509C90.144 58.3279 90.1303 57.4136 89.6142 57.4136C87.255 57.4136 71.734 57.713 67.9376 57.9121C67.8457 57.9245 67.7615 57.9698 67.7005 58.0396C67.6396 58.1093 67.606 58.1989 67.606 58.2915C67.606 58.3842 67.6396 58.4737 67.7005 58.5435C67.7615 58.6132 67.8457 58.6585 67.9376 58.6709Z" fill="#38A1FF"/>
<path d="M54.4007 54.4373C54.1541 54.566 49.8898 59.6916 51.8547 59.0821C52.1334 58.9956 54.9175 55.468 55.0546 54.8355C55.071 54.7535 55.0619 54.6685 55.0283 54.5919C54.9948 54.5153 54.9384 54.4509 54.867 54.4074C54.7956 54.364 54.7126 54.3435 54.6291 54.3489C54.5457 54.3542 54.466 54.3851 54.4007 54.4373Z" fill="#38A1FF"/>
<path d="M45.1092 42.7931C46.4806 42.8574 74.4054 42.7877 76.0701 42.6239C76.3065 42.5925 76.5228 42.4746 76.6772 42.2928C76.8316 42.111 76.913 41.8785 76.9056 41.6401C76.8983 41.4017 76.8027 41.1746 76.6374 41.0027C76.4722 40.8308 76.249 40.7263 76.0111 40.7096C68.2399 40.8061 52.0848 40.8459 45.1528 40.9975C44.113 41.0212 44.0257 42.7441 45.1092 42.7931Z" fill="#38A1FF"/>
<path d="M84.1977 72.2608C82.4006 72.2608 68.7364 72.1077 67.7686 72.3841C67.4393 72.479 67.3091 73.012 67.7042 73.1245C68.7364 73.4209 82.3294 73.2708 84.2061 73.2708C86.0829 73.2708 87.9045 73.3382 89.7423 73.2708C90.3043 73.2501 90.2629 72.3083 89.7055 72.2838C87.877 72.2026 86.0301 72.2608 84.1977 72.2608Z" fill="#38A1FF"/>
<path d="M67.5532 79.4149C67.4372 79.4494 67.3395 79.5282 67.2813 79.6343C67.223 79.7404 67.209 79.8652 67.2423 79.9815C67.4 80.5175 66.6917 80.3338 89.9794 80.722C90.1079 80.7089 90.227 80.6486 90.3136 80.5528C90.4001 80.4569 90.4481 80.3324 90.4481 80.2032C90.4481 80.0741 90.4001 79.9495 90.3136 79.8537C90.227 79.7578 90.1079 79.6975 89.9794 79.6844C67.6389 79.3238 69.0256 79.3008 67.5532 79.4149Z" fill="#38A1FF"/>
<path d="M89.4817 66.1397C89.6063 66.1314 89.7233 66.077 89.81 65.9871C89.8967 65.8973 89.9469 65.7784 89.9509 65.6536C89.9548 65.5288 89.9121 65.407 89.8312 65.3118C89.7503 65.2167 89.6369 65.1551 89.5131 65.1389C86.1899 65.0471 70.7256 64.9184 67.92 65.4774C67.4606 65.5685 67.5632 66.2377 68.0019 66.2768C70.3749 66.4904 74.0028 65.6933 89.4817 66.1397Z" fill="#38A1FF"/>
<path d="M109.906 52.536C109.947 45.9402 110.254 37.7118 109.7 31.312C109.685 31.2159 109.635 31.1288 109.559 31.0676C109.483 31.0064 109.388 30.9753 109.291 30.9805C109.193 30.9856 109.102 31.0266 109.033 31.0954C108.964 31.1643 108.923 31.2561 108.918 31.3533C108.738 34.4238 108.908 48.6906 108.918 52.6095C108.92 53.2535 109.902 53.1808 109.906 52.536Z" fill="#38A1FF"/>
<path d="M52.1209 83.0942C53.0698 84.1336 54.0787 85.1167 55.1424 86.0383C55.6019 86.471 56.3094 85.781 55.8469 85.3492C54.8554 84.3518 53.8132 83.4061 52.7243 82.516C52.3928 82.3039 51.8652 82.7381 52.1209 83.0942Z" fill="#38A1FF"/>
<path d="M9.68296 31.312C9.68296 30.7361 8.77636 30.6312 8.7687 31.2208C8.46701 55.6134 8.86978 83.9854 10.0352 108.252C10.0674 108.924 11.1072 108.759 11.0727 108.092C9.84147 82.4226 9.64774 57.0024 9.68296 31.312Z" fill="#38A1FF"/>
<path d="M21.2015 85.7412C20.9442 86.1241 21.5407 86.6111 21.8416 86.2535C22.2299 85.794 24.4811 83.1853 24.3685 82.624C24.0584 81.137 21.641 85.0911 21.2015 85.7412Z" fill="#38A1FF"/>
<path d="M38.0466 73.3673C37.6538 73.2945 35.1621 75.5059 34.6591 75.986C29.9553 72.9101 30.4231 73.6674 30.4813 75.5266C30.499 76.7983 30.5875 78.068 30.7463 79.3299C30.8037 79.7288 31.4101 79.6591 31.4354 79.2709C31.5311 77.849 31.3481 76.4317 31.3251 75.0105C35.4669 77.5373 34.1866 77.4608 38.0542 74.2922C38.5137 74.7999 40.7013 76.9286 41.3637 76.8482C41.8997 76.7816 43.7044 74.3566 44.134 73.8397C44.134 74.937 44.1692 78.0688 44.4947 78.9555C44.6631 79.4149 45.1072 79.2525 45.1302 78.7954C45.1869 77.8214 45.0689 75.5128 45.0712 74.3887C45.0712 73.1085 45.0674 72.7807 44.5314 72.015C43.3675 70.3519 40.4195 66.2775 38.6209 64.0661C37.0366 62.1174 36.9669 62.0753 35.8551 63.7966C34.1422 66.4529 31.2669 71.6069 30.8274 72.587C30.6414 72.9997 31.2777 73.1942 31.499 72.8887C32.2356 71.8711 33.9033 68.8794 34.6713 67.5632C36.398 67.6321 38.1272 67.6029 39.8506 67.4759C41.2669 69.161 42.6206 70.8978 43.9089 72.6827L41.2718 75.8826C40.9126 75.5978 38.444 73.4408 38.0466 73.3673Z" fill="#38A1FF"/>
<path d="M51.2389 107.649C47.1247 107.419 13.6224 107.599 12.3154 107.802C12.2187 107.833 12.1351 107.896 12.0776 107.98C12.0202 108.063 11.9921 108.164 11.9978 108.265C12.0035 108.367 12.0426 108.463 12.1091 108.54C12.1755 108.617 12.2656 108.67 12.3651 108.69C25.0323 108.726 38.476 108.625 51.1654 108.639C51.7826 108.639 51.8882 107.687 51.2389 107.649Z" fill="#38A1FF"/>
<path d="M22.816 60.2384C23.2693 60.7445 23.9645 60.1105 23.5878 59.6809C22.6735 58.6434 20.7148 56.2873 19.8121 55.494C19.4545 55.1793 18.9698 55.6716 19.2225 56.0468C19.8718 57.0155 21.9208 59.2399 22.816 60.2384Z" fill="#38A1FF"/>
<path d="M37.5553 55.7337C37.6127 53.7463 37.4951 51.7577 37.2039 49.791C37.1635 49.7202 37.1035 49.6627 37.0312 49.6254C36.9588 49.588 36.8772 49.5725 36.7961 49.5806C36.7151 49.5887 36.6382 49.6201 36.5746 49.671C36.5111 49.722 36.4637 49.7902 36.4381 49.8676C36.3761 51.8527 36.4724 53.8396 36.726 55.8095C36.7491 55.9083 36.8071 55.9954 36.8894 56.0548C36.9717 56.1141 37.0726 56.1417 37.1737 56.1325C37.2747 56.1233 37.369 56.0778 37.4391 56.0045C37.5093 55.9312 37.5505 55.835 37.5553 55.7337Z" fill="#38A1FF"/>
<path d="M38.2249 85.3798C38.2249 86.0154 38.0557 90.2344 38.2839 90.7881C38.3242 90.8579 38.3822 90.9158 38.452 90.9561C38.5219 90.9964 38.6011 91.0176 38.6817 91.0176C38.7623 91.0176 38.8415 90.9964 38.9113 90.9561C38.9811 90.9158 39.0391 90.8579 39.0795 90.7881C39.3176 90.1801 39.0473 86.2167 39.0159 85.3798C38.9746 84.9319 38.2249 84.9227 38.2249 85.3798Z" fill="#38A1FF"/>
<path d="M19.0669 71.5388C28.3665 54.0491 49.5645 55.8868 57.3603 70.1214C48.1502 84.1776 30.107 86.3056 19.0248 72.7907C18.6787 72.3696 18.2506 72.9079 18.5653 73.3489C28.3083 86.9021 49.1258 85.1333 57.7217 71.4346C58.0017 71.0865 58.1652 70.659 58.189 70.2129C58.2127 69.7667 58.0956 69.3243 57.8541 68.9484C48.4014 52.7596 24.727 55.6716 18.4267 71.1245C18.2391 71.5839 18.8425 71.9614 19.0669 71.5388Z" fill="#38A1FF"/>
<path d="M103.831 53.7749C101.436 54.2344 99.323 59.4665 101.966 61.916C103.583 63.4161 111.035 63.4796 115.552 63.2874C115.584 63.8402 115.703 64.3845 115.903 64.9008C116.083 65.3602 116.622 65.5057 116.488 64.6772C116.415 64.2053 116.381 63.7281 116.388 63.2507C117.09 63.2202 117.791 63.1691 118.49 63.0975C118.369 64.1178 118.193 65.131 117.965 66.1328C117.839 66.6818 118.455 66.7844 118.664 66.2607C119.305 64.6041 119.565 62.8244 119.423 61.0538C119.15 57.151 108.206 52.9342 103.831 53.7749ZM104.585 55.8362C103.483 56.0882 103.223 57.762 103.122 58.6571C102.95 60.1886 101.974 59.1166 102.208 57.7697C102.387 56.7543 103.255 55.1004 104.521 55.265C104.594 55.2611 104.666 55.2853 104.722 55.3328C104.778 55.3802 104.814 55.4473 104.822 55.5203C104.83 55.5933 104.81 55.6667 104.766 55.7254C104.722 55.7841 104.657 55.8238 104.585 55.8362Z" fill="#191919"/>
<path d="M112.786 69.5318C113.396 68.4981 113.816 67.3631 114.025 66.181C115.053 66.3673 116.034 66.7579 116.909 67.3296C117.43 67.554 117.627 66.8702 117.368 66.6581C116.429 65.8922 115.28 65.4271 114.072 65.3234C113.515 64.2675 109.277 64.0217 108.623 65.1358C108.463 65.046 108.286 64.9911 108.103 64.9746C107.92 64.9581 107.736 64.9804 107.563 65.0401C107.23 64.1259 103.472 63.8969 102.535 64.9528C101.456 64.8341 101.008 65.8303 102.434 65.8211C102.487 66.8108 102.67 67.7891 102.978 68.7309C103.347 69.4859 106.001 69.4744 106.53 69.0923C107.158 68.6382 107.444 66.6558 107.622 65.8924C107.881 65.811 108.161 65.8274 108.409 65.9383C108.403 66.9618 108.52 67.9823 108.756 68.9782C109.162 69.7852 112.197 70.2271 112.786 69.5318ZM106.24 68.2148C106.115 68.5157 106.002 68.5877 104.996 68.5479C103.296 68.4812 103.652 68.8495 103.132 65.426C104.329 65.0194 105.627 65.0194 106.825 65.426C106.808 66.3843 106.61 67.3307 106.24 68.2148ZM109.439 68.5616C109.25 67.6204 109.182 66.6587 109.238 65.7002C110.551 65.2314 111.993 65.2754 113.275 65.8234C113.203 66.5764 113.01 67.3129 112.703 68.0042C112.268 68.956 112.196 69.0808 110.825 68.969C110.166 68.9154 109.532 68.7691 109.439 68.5624V68.5616Z" fill="#191919"/>
<path d="M110.089 67.9499C110.232 68.466 111.237 68.5265 111.003 67.0356C110.869 66.1872 109.673 66.4537 110.089 67.9499Z" fill="#191919"/>
<path d="M118.774 67.3327C116.15 67.5525 114.855 72.3581 113.462 72.8183C112.488 73.1407 110.303 71.7394 108.096 71.5886C105.888 71.4377 104.631 72.3703 104.219 72.1736C103.807 71.9768 104.091 70.2539 104.091 69.8519C104.091 69.4499 103.872 69.2302 103.483 70.1169C103.094 71.0035 99.3007 79.5152 100.951 81.8055C103.309 85.0781 112.933 85.7711 115.921 83.5199C119.667 80.6975 116.479 71.633 117.402 69.2715C117.576 68.9339 117.852 68.6606 118.192 68.4912C118.532 68.3218 118.916 68.2652 119.29 68.3297C120.552 68.8764 120.205 72.6177 118.189 72.0319C117.682 71.8857 117.567 72.5227 118.035 72.7685C119.405 73.4891 120.75 72.3658 120.929 70.4829C121.063 69.0571 120.579 67.1819 118.774 67.3327ZM108.328 75.8321C106.427 75.8321 106.043 75.0779 105.883 73.8413C107.528 74.195 109.234 74.1654 110.866 73.7548C110.692 74.885 110.451 75.8352 108.328 75.8352V75.8321Z" fill="#191919"/>
<path d="M107.419 67.799C107.067 68.6106 106.803 69.4578 106.632 70.3259C106.443 71.3557 107.813 71.3588 108.585 71.2401C109.044 71.1697 109.129 70.6459 108.626 70.6092C108.256 70.5816 107.529 70.5632 107.46 70.4354C107.523 69.581 107.688 68.7372 107.949 67.9215C108.056 67.5846 107.564 67.4529 107.419 67.799Z" fill="#191919"/>
<path d="M105.244 67.9851C105.67 67.8227 105.704 66.6765 105.34 66.4628C104.422 65.9176 104.294 68.3434 105.244 67.9851Z" fill="#191919"/>
<path d="M112.735 27.6549C77.3222 27.6825 39.7287 27.6005 4.85503 27.8976C4.26083 27.9022 4.24705 29.4291 4.81827 29.4329C40.1215 29.6542 77.3038 29.3785 112.698 29.351C113.334 29.3502 113.348 27.6549 112.735 27.6549Z" fill="#191919"/>
<path d="M72.3898 109.168C66.3406 108.808 56.9706 107.625 51.3257 105.201C50.5999 104.889 47.014 105.474 42.9427 103.593C42.517 103.397 42.3478 103.997 42.7459 104.242C44.8264 105.524 47.4543 105.866 49.854 105.943C50.499 105.926 51.1382 106.069 51.7147 106.359C58.3658 108.744 65.3702 109.996 72.4357 110.061C73.0161 110.07 72.9978 109.205 72.3898 109.168Z" fill="#191919"/>
<path d="M141.164 107.432C141.046 106.787 140.177 107.014 140.285 107.655C140.66 109.956 140.511 112.311 139.851 114.547C138.288 119.993 133.69 119.119 129.086 118.907C124.254 118.685 117.6 118.222 113.426 118.03C113.334 118.018 113.24 118.042 113.166 118.097C113.091 118.153 113.041 118.235 113.026 118.327C113.012 118.419 113.034 118.513 113.087 118.589C113.141 118.665 113.222 118.717 113.313 118.734C117.329 119.372 125.908 119.75 129.251 119.908C133.822 120.126 138.922 120.735 140.624 115.443C141.461 112.858 141.647 110.106 141.164 107.432Z" fill="#191919"/>
<path d="M111.199 110.161C117.115 109.22 123.074 108.578 129.055 108.236C129.151 108.228 129.241 108.182 129.305 108.109C129.368 108.035 129.401 107.94 129.396 107.844C129.392 107.747 129.35 107.655 129.279 107.589C129.209 107.522 129.115 107.485 129.018 107.486C122.997 107.733 116.996 108.344 111.048 109.314C110.936 109.335 110.836 109.399 110.771 109.493C110.706 109.586 110.681 109.702 110.702 109.814C110.722 109.926 110.786 110.026 110.88 110.091C110.973 110.156 111.089 110.181 111.201 110.161H111.199Z" fill="#191919"/>
<path d="M48.2177 103.537C48.2814 103.537 48.3443 103.523 48.4028 103.498C48.4612 103.473 48.514 103.436 48.5578 103.39C48.6017 103.344 48.6359 103.289 48.6582 103.229C48.6805 103.17 48.6906 103.106 48.6878 103.043C48.685 102.979 48.6694 102.916 48.642 102.859C48.6146 102.802 48.5758 102.75 48.5281 102.708C48.4803 102.666 48.4246 102.634 48.3641 102.614C48.3037 102.593 48.2399 102.586 48.1764 102.591C45.334 102.682 43.8998 101.875 42.0238 100.542C41.7267 100.332 41.4113 100.703 41.641 101.002C42.9764 102.767 46.0921 103.62 48.2177 103.537Z" fill="#191919"/>
<path d="M52.9458 98.6903C53.2919 99.2906 54.0178 99.3718 54.6641 99.518C58.4811 100.386 67.2157 100.096 71.267 100.049C71.8429 100.042 71.7265 99.2975 71.1346 99.3028C68.1766 99.3327 59.2492 99.4169 54.8195 98.5991C54.0017 98.446 54.0438 98.567 53.6265 97.91C52.8378 96.665 51.6617 95.142 50.2352 95.1167C49.8094 95.109 49.7757 95.5194 50.1387 95.7017C51.3989 96.3339 52.3937 97.393 52.9458 98.6903Z" fill="#191919"/>
<path d="M50.4192 98.8602C48.4421 98.2798 45.648 97.3487 44.1112 95.3632C43.6518 94.7675 43.2613 95.2307 43.4894 95.7108C44.4466 97.7262 47.9505 99.5394 49.962 99.616C51.0746 99.6627 50.7653 98.9613 50.4192 98.8602Z" fill="#191919"/>
<path d="M42.4121 97.2974C42.349 97.2206 42.2588 97.1708 42.1601 97.1584C42.0615 97.146 41.9618 97.1719 41.8816 97.2307C41.8014 97.2895 41.7468 97.3769 41.7289 97.4747C41.7111 97.5725 41.7315 97.6735 41.7858 97.7568C42.5157 98.804 43.4635 99.6807 44.5643 100.327C45.665 100.973 46.8926 101.373 48.1627 101.5C48.2627 101.504 48.3612 101.475 48.443 101.417C48.5249 101.359 48.5857 101.277 48.6162 101.181C48.6467 101.086 48.6453 100.983 48.612 100.889C48.5788 100.794 48.5157 100.713 48.4322 100.658C47.7607 100.369 44.9061 100.183 42.4121 97.2974Z" fill="#191919"/>
<path d="M130.563 120.724C129.192 120.546 113.284 120.898 112.548 120.597C111.811 120.295 108.001 98.5953 107.006 97.1696C106.01 95.7438 74.6548 96.6481 73.2291 97.4713C71.8033 98.2944 76.5117 123.081 77.7315 123.582C78.8196 124.029 128.929 123.408 130.566 123.322C132.203 123.235 131.935 120.903 130.563 120.724ZM91.0587 113.593C86.7807 113.949 85.4399 106.932 89.7149 106.234C91.7441 105.903 93.532 107.702 93.911 109.918C93.9898 110.35 93.9767 110.793 93.8725 111.22C93.7682 111.646 93.5752 112.046 93.3061 112.393C93.0369 112.74 92.6976 113.026 92.3104 113.233C91.9232 113.44 91.4967 113.562 91.0587 113.593Z" fill="#191919"/>
</svg>
