<svg width="156" height="155" viewBox="0 0 156 155" fill="none" xmlns="http://www.w3.org/2000/svg">
<path d="M109.871 147.26C110.007 148.313 116.806 146.244 117.43 145.499C118.296 144.477 118.1 138.903 116.731 139.542C113.505 141.047 110.224 141.107 109.608 141.935C109.299 142.347 109.428 143.799 109.871 147.26Z" fill="#3D9CFB"/>
<path d="M54.451 32.3486C53.0444 31.7094 49.9147 33.661 49.6646 34.9433C51.6746 35.9288 53.6126 37.0551 55.4639 38.3139C58.2724 36.9304 56.7678 33.4093 54.451 32.3486Z" fill="#3D9CFB"/>
<path d="M65.222 87.2882C65.9292 92.3719 67.6214 96.9986 70.4871 95.4569C71.9917 94.6439 68.7725 91.0711 71.8111 90.7553C72.9923 90.6349 73.782 91.8763 73.7064 93.0343C73.552 95.4275 77.9524 96.8403 78.5878 93.5608C78.9869 91.4764 82.3706 92.48 82.657 95.7124C82.9133 98.5858 87.3284 99.9993 87.374 96.5091C87.4743 88.5968 64.643 83.1279 65.222 87.2882Z" fill="#3D9CFB"/>
<path d="M40.4072 36.229C36.9702 38.3651 37.3338 43.394 42.2955 43.2697C44.3182 43.2187 45.4322 39.0653 45.0856 38.1852C44.7389 37.3052 41.8671 35.7032 40.4072 36.229Z" fill="#3D9CFB"/>
<path d="M114.715 42.0063C114.708 44.6766 119.785 44.6164 120.274 42.383C120.762 40.1496 114.726 39.2988 114.715 42.0063Z" fill="#3D9CFB"/>
<path d="M72.3227 34.2282C73.1124 33.9271 74.2928 31.6327 73.5787 30.8051C72.9843 30.1211 70.6227 28.8574 69.7797 29.2565C68.9366 29.6556 68.2603 32.1901 68.539 32.6711C69.1775 33.755 71.3391 34.605 72.3227 34.2282Z" fill="#3D9CFB"/>
<path d="M84.4485 126.913C87.254 130.786 114.445 132.945 114.806 125.214C114.453 118.706 85.825 119.857 84.4485 126.913Z" fill="#3D9CFB"/>
<path d="M97.8819 42.0139C98.4463 39.1575 92.6469 39.6979 92.9179 42.0911C93.1279 43.9995 97.3855 44.526 97.8819 42.0139Z" fill="#3D9CFB"/>
<path d="M92.0076 137.368C94.3915 137.308 93.7747 133.599 95.7827 133.712C97.7907 133.825 97.9644 141.587 100.454 140.866C102.944 140.145 102.929 133.901 104.689 133.712C106.78 133.487 106.886 136.21 108.458 136.157C110.218 136.097 111.677 133.043 112.519 128.869C100.416 132.675 78.746 130.2 82.657 122.166C80.7772 124.13 78.5507 139.722 84.0412 141.181C87.8102 140.971 86.0485 134.465 88.1862 134.269C90.3238 134.073 89.5403 137.428 92.0076 137.368Z" fill="#3D9CFB"/>
<path d="M30.8701 90.8231C29.9599 89.5879 28.9895 88.8444 27.9666 88.8521C25.3193 88.8822 20.9938 91.4322 20.4372 93.7559C20.001 95.5694 21.633 99.9165 24.3258 99.8339C28.8243 99.7058 34.6691 96.0125 30.8701 90.8231ZM22.2498 94.1852C22.415 93.4703 23.6039 92.4397 24.9881 91.6877C25.8108 93.5358 26.7948 95.3077 27.9287 96.9829C26.8107 97.5694 25.5795 97.908 24.3188 97.9757C22.8574 97.9495 22.0622 94.8167 22.2498 94.1852Z" fill="#001434"/>
<path d="M45.3943 88.4609C47.7482 88.4015 52.0135 86.8289 53.0812 84.3693C53.9466 82.2478 51.6075 77.449 49.0351 77.4722C46.3871 77.5015 42.04 80.0445 41.5057 82.376C41.0541 84.1809 42.7062 88.5289 45.3943 88.4609ZM46.0637 80.3001C46.8867 82.1481 47.8709 83.92 49.005 85.5952C45.7325 87.5585 43.1756 86.2499 43.3261 82.7975C43.4913 82.0826 44.6795 81.052 46.0637 80.3001Z" fill="#001434"/>
<path d="M23.9798 81.9022C21.091 83.8052 19.039 85.0913 20.6401 86.2254C21.5727 86.8878 21.9788 85.052 24.8676 83.5481C25.0719 83.423 25.2205 83.2245 25.2829 82.9932C25.3452 82.762 25.3166 82.5156 25.2029 82.3048C25.0892 82.094 24.899 81.9348 24.6715 81.8599C24.444 81.785 24.1965 81.8001 23.9798 81.9022Z" fill="#001434"/>
<path d="M80.0176 95.1032C79.9764 96.8062 79.4606 98.4639 78.5284 99.8897C78.3936 100.09 78.3421 100.336 78.3847 100.574C78.4274 100.812 78.5609 101.024 78.757 101.166C78.9531 101.307 79.1965 101.367 79.4359 101.332C79.6753 101.298 79.8919 101.172 80.04 100.981C80.7618 99.7453 83.4175 94.9481 81.0173 94.2332C80.5263 94.095 80.0546 94.5914 80.0176 95.1032Z" fill="#001434"/>
<path d="M84.6179 90.8165C79.3984 87.6512 70.169 83.663 66.2125 85.3028C61.6244 87.2058 65.7616 90.8466 64.9487 95.0363C64.9213 95.1588 64.9206 95.2858 64.9468 95.4086C64.9729 95.5314 65.0253 95.6471 65.1003 95.7478C65.1753 95.8485 65.2711 95.9318 65.3812 95.9921C65.4914 96.0524 65.6132 96.0881 65.7385 96.097C68.3718 95.931 66.3329 90.222 66.2503 89.4847C65.8967 88.116 65.581 87.2058 66.837 87.063C72.38 86.4454 81.8912 91.3507 83.5726 92.501C85.4872 93.9974 86.7576 96.169 87.1238 98.5713C87.1539 98.8724 87.2072 99.1503 86.9355 99.2707C85.2479 100.05 83.8539 101.348 82.9573 102.976C82.8537 103.196 82.8395 103.447 82.9177 103.676C82.9959 103.906 83.1604 104.096 83.3764 104.206C83.5923 104.317 83.8427 104.339 84.0746 104.268C84.3065 104.197 84.5016 104.038 84.6187 103.826C84.9959 103.08 85.5247 102.422 86.1712 101.894C86.8178 101.365 87.5677 100.978 88.3729 100.756C90.157 100.353 88.1784 93.3957 84.6179 90.8165Z" fill="#001434"/>
<path d="M121.026 105.716C103.184 98.6137 92.8642 114.434 91.304 117.075C86.9939 118.082 83.6688 119.782 81.9465 121.565C79.8103 123.777 79.615 123.98 79.622 135.472C79.622 140.43 79.3441 144.8 80.4419 144.943C82.3078 145.184 80.6225 130.523 82.0893 126.514C84.6995 131.674 113.696 133.825 119.812 125.634C119.857 126.221 119.901 126.822 119.939 127.447C118.044 129.004 116.542 129.982 116.502 130.012C116.332 130.09 116.196 130.226 116.117 130.395C116.038 130.564 116.021 130.756 116.07 130.936C116.119 131.116 116.229 131.273 116.383 131.379C116.536 131.486 116.722 131.534 116.908 131.517C117.826 131.321 118.187 131.08 120.082 129.741C120.428 143.22 120.571 144.868 121.617 144.807C122.534 144.95 121.948 142.722 121.865 128.286C130.218 121.971 134.026 110.889 121.026 105.716ZM118.792 123.28C117.845 125.499 115.543 127.281 110.676 128.417C100.687 130.756 79.6035 128.304 83.4473 122.686C85.0415 120.354 91.2445 118.293 98.6265 117.899C112.511 117.172 120.026 120.414 118.792 123.28ZM121.703 125.913C121.191 114.735 102.172 115.352 93.8339 116.563C98.8882 108.302 110.187 102.933 120.281 107.432C130.977 112.207 128.743 119.955 121.703 125.913Z" fill="#001434"/>
<path d="M38.0238 76.0949C40.2202 74.6883 42.9353 75.2604 42.7091 73.914C42.469 72.485 38.7155 73.3497 36.9476 74.6088C36.843 74.6765 36.7532 74.7649 36.6837 74.8685C36.6143 74.972 36.5666 75.0887 36.5437 75.2112C36.5208 75.3338 36.5231 75.4598 36.5504 75.5814C36.5777 75.7031 36.6296 75.8179 36.7027 75.9189C36.7758 76.0199 36.8688 76.105 36.9758 76.1689C37.0829 76.2328 37.2018 76.2743 37.3254 76.2907C37.449 76.3072 37.5747 76.2983 37.6948 76.2647C37.8148 76.231 37.9268 76.1732 38.0238 76.0949Z" fill="#001434"/>
<path d="M7.64877 107.537C8.0919 107.988 9.50622 107.876 10.5747 107.514C11.1641 108.525 12.087 109.299 13.1848 109.703C7.49437 116.405 6.87676 127.469 7.67965 136.037C7.78541 137.143 9.41049 136.902 9.36494 135.796C8.92876 125.755 9.36494 116.337 15.3094 110.166C15.7674 110.2 16.227 110.208 16.6859 110.189C16.9345 114.182 21.5148 114.589 25.4945 113.46C26.6525 117.071 32.2411 115.776 34.9716 114.341C37.957 116.746 42.4933 115.082 45.6748 112.926C52.7772 112.926 56.0019 111.727 55.7618 104.585C56.5105 103.615 57.1278 102.551 57.5976 101.419C59.4754 101.481 61.2893 102.116 62.7948 103.24C62.6296 105.91 61.697 105.842 64.555 108.054C64.0431 109.135 63.4039 110.551 62.7871 112.04C55.3179 110.611 54.4077 122.586 45.8184 121.187C42.8168 120.698 40.0283 118.036 39.9959 118.013C39.0401 117.265 37.8752 118.749 38.8456 119.48C38.9058 119.525 39.6353 120.097 40.7331 120.792C31.3841 126.035 29.6934 136.716 31.5192 144.03C24.1172 139.57 21.5001 136.418 18.6043 130.401C18.3781 129.937 17.9867 129.513 17.5583 129.791C15.9486 130.859 19.6874 136.576 22.9438 139.968C24.6962 141.796 30.782 147.076 38.2434 149.137C43.4035 150.566 48.8493 150.657 56.2505 148.152C70.0509 143.468 74.8574 139.376 75.482 133.6C76.2339 126.652 76.8584 121.287 71.7887 117.797C72.5146 116.205 73.2042 114.598 73.8569 112.975C74.9555 113.697 77.7988 113.539 78.6487 113.065C80.2128 112.207 82.9434 106.671 82.139 105.123C81.4766 103.844 78.9737 104.686 77.2568 103.753C75.3615 102.723 65.6211 97.6304 65.5153 97.5934C63.7251 96.9387 64.0408 99.308 63.2364 101.241C61.7106 100.314 59.9953 99.7432 58.2183 99.5713C58.7078 97.781 58.8274 95.6526 57.6694 94.3988C58.5341 92.0218 58.2098 88.3586 56.1347 86.6286C59.5423 83.6046 52.2538 74.7891 50.2528 74.1576C34.2614 49.8694 -8.89149 71.7643 8.70256 99.1752C6.56796 100.196 6.82272 106.702 7.64877 107.537ZM74.1804 124.322C73.6237 125.171 71.4984 126.724 69.6371 127.714C69.4602 127.817 69.3217 127.975 69.2428 128.164C69.1639 128.353 69.1489 128.563 69.2 128.761C69.2511 128.959 69.3656 129.136 69.526 129.263C69.6864 129.39 69.884 129.462 70.0887 129.466C71.134 129.203 72.5406 128.166 74.3386 126.804C74.3309 127.834 74.256 128.986 74.1425 130.264C72.9045 131.516 71.5021 132.594 69.9737 133.469C69.8045 133.577 69.6747 133.738 69.6035 133.926C69.5323 134.114 69.5234 134.32 69.5781 134.514C69.6329 134.708 69.7483 134.879 69.9075 135.002C70.0667 135.125 70.2612 135.194 70.4624 135.198C71.3648 135.01 72.1546 134.258 73.87 133.036C73.7874 135.835 72.4634 137.617 68.9956 140.145C56.7878 147.621 43.7671 150.991 33.8237 145.191C31.3532 138.362 32.5113 126.771 42.6616 121.859C47.2875 124.807 52.5757 122.477 55.1928 119.166C57.4571 116.3 59.3756 113.653 62.0907 113.788C60.1877 117.835 60.1877 119.406 60.9397 120.513C62.4837 122.752 66.3028 123.634 67.7549 123.348C69.2071 123.063 70.1389 121.664 70.9812 119.474C71.8626 119.968 72.6129 120.666 73.1695 121.51C73.726 122.353 74.0727 123.317 74.1804 124.322ZM67.6893 121.2C65.9593 121.945 63.1762 120.327 62.943 119.259C62.3254 116.416 64.8306 112.061 66.1468 109.038C67.5311 109.857 69.4665 110.88 72.1685 112.167C70.6832 115.871 68.7346 120.753 67.6893 121.204V121.2ZM65.6265 99.7589C70.5311 102.016 75.9089 106.183 80.595 106.333C79.535 108.906 78.3608 111.094 77.8721 111.373C76.9373 111.611 75.9607 111.635 75.0157 111.441C63.485 105.205 63.3568 108.079 65.6265 99.7589ZM56.0752 95.4642C57.7528 97.2166 55.91 101.181 54.4131 103.234C54.2131 103.517 54.1006 103.851 54.0896 104.197C53.831 110.037 52.2893 111.101 46.1163 111.057C45.6356 111.054 45.1619 111.173 44.7399 111.403C42.098 112.862 37.72 115.088 35.9699 112.638C35.8291 112.432 35.6158 112.287 35.3726 112.231C35.1293 112.175 34.874 112.213 34.6574 112.337C32.3175 113.789 27.1952 115.116 27.2107 112.255C27.2168 112.096 27.1837 111.937 27.1142 111.794C27.0448 111.651 26.9412 111.527 26.8126 111.434C26.684 111.34 26.5343 111.279 26.3767 111.257C26.2191 111.235 26.0585 111.252 25.9091 111.307C22.0282 112.834 18.9062 112.593 18.5526 109.787C18.5221 109.466 18.371 109.167 18.1297 108.953C17.8884 108.738 17.5747 108.622 17.2518 108.629C14.7543 108.742 12.5132 108.351 11.918 105.927C11.3544 104.084 12.3171 101.738 13.462 101.173C15.0639 100.105 17.5768 98.7437 18.8027 97.984C20.0665 100.271 21.9016 103.498 24.1736 103.55C27.362 103.55 35.1477 98.9181 35.9753 96.826C36.6145 95.2087 34.5007 91.5903 33.5226 90.0486C35.1176 89.1221 38.299 87.2956 39.7805 86.4379C42.105 89.9428 44.3762 94.5015 38.502 94.4567C38.3884 94.4415 38.2728 94.4518 38.1637 94.4869C38.0545 94.5219 37.9546 94.5809 37.871 94.6594C37.7875 94.7379 37.7225 94.834 37.6807 94.9408C37.639 95.0475 37.6215 95.1622 37.6297 95.2766C37.7069 96.3968 39.4501 96.4423 41.5669 95.7352C44.1693 94.8628 44.3461 92.9745 44.1238 91.8991C47.0428 92.9027 51.3374 90.0709 54.6702 87.8746C58.0238 90.2145 54.7744 94.3888 56.0752 95.4642ZM18.7657 92.854C19.0135 91.4328 26.7737 87.2076 28.6119 87.3102C28.8296 87.3226 29.7923 87.9348 31.3648 90.1914C33.2902 92.9521 34.3957 95.5954 34.2305 96.149C33.8322 97.4614 26.1067 102.061 24.0532 101.685C22.4381 101.384 18.4661 94.5764 18.7657 92.854ZM49.6892 75.9224C49.9 75.9378 50.9908 76.4628 52.4422 78.8112C54.857 82.7075 56.7299 84.3249 54.0441 86.0094C49.9524 88.5748 46.026 92.7938 42.7018 87.7318C40.483 84.355 39.6099 82.828 39.8453 81.4661C40.0839 80.0449 47.8541 75.7795 49.6892 75.9224ZM39.7234 68.2957C41.3098 67.7615 45.1012 69.3634 48.1552 74.4185C44.394 76.005 36.6994 79.1347 38.1809 82.6396C36.7673 83.4116 33.2918 85.3416 31.0012 86.7915C30.4092 86.0538 29.56 85.5676 28.6242 85.4304C26.4888 85.7608 15.0778 90.2516 17.1614 94.1711C16.0405 94.7802 12.6328 96.6299 10.2643 98.1268C9.81872 97.3978 9.40932 96.6473 9.03761 95.878C18.2901 90.5604 11.0911 81.0377 23.5097 78.314C37.8497 75.1704 36.684 69.3186 39.7234 68.2957ZM8.28181 94.1479C-0.909704 75.9826 24.1759 60.2097 38.0234 66.8189C30.6669 81.4638 16.0443 71.4069 13.0104 86.9682C12.4113 89.6873 11.8771 92.0519 8.28181 94.1479Z" fill="#001434"/>
<path d="M107.84 140.224C109.022 139.72 114.279 139.021 116.671 137.705C117.761 137.096 117.295 135.561 116.024 136.095C111.278 138.081 107.923 138.179 106.675 139.029C105.554 139.788 105.073 141.653 105.809 144.7C106.103 145.935 106.268 148.656 106.915 148.649C109.345 148.639 106.186 140.933 107.84 140.224Z" fill="#001434"/>
<path d="M108.578 42.103C105.359 43.8408 98.8745 39.8086 100.781 45.9314C102.112 50.2114 108.159 51.0691 110.996 47.8722C112.587 46.0757 112 40.254 108.578 42.103ZM109.45 47.0075C106.637 49.0379 102.853 48.0374 102.237 44.9386C101.875 43.0201 105.247 45.7661 109.398 43.7728C110.503 43.383 110.375 46.3397 109.45 47.0091V47.0075Z" fill="#001434"/>
<path d="M104.561 39.8328C105.554 40.5021 106.577 38.8855 105.546 38.2463C105.531 38.2386 104.358 37.4635 104.426 36.5085C104.478 35.7635 105.765 35.1467 106.261 34.763C107.126 34.0937 106.381 32.7403 105.118 33.3039C103.177 34.177 100.605 37.1624 104.561 39.8328Z" fill="#001434"/>
<path d="M49.4561 40.6296C46.0184 42.7665 46.3828 47.7946 51.3444 47.6703C53.3671 47.6201 54.4811 43.4652 54.1352 42.5851C53.7894 41.705 50.9152 40.1031 49.4561 40.6296Z" fill="#001434"/>
<path d="M99.3339 24.5339C97.8687 24.0166 96.2844 23.938 94.7752 24.3077C93.7376 24.5562 94.0912 26.1057 95.294 26.1057C96.4267 26.0408 97.5624 26.1602 98.6568 26.4592C98.905 26.5226 99.1678 26.4907 99.3936 26.3699C99.6194 26.2491 99.7918 26.0481 99.8768 25.8065C99.9617 25.5649 99.9531 25.3002 99.8526 25.0647C99.7521 24.8291 99.5671 24.6397 99.3339 24.5339Z" fill="#001434"/>
<path d="M115.603 27.666C114.657 27.6936 113.728 27.9156 112.872 28.318C112.016 28.7205 111.252 29.2948 110.627 30.0053C110.003 30.7158 109.531 31.5472 109.242 32.4478C108.953 33.3484 108.852 34.2989 108.946 35.2401C109.149 36.9023 110.322 38.8809 111.721 39.1774C113.392 39.531 114.535 38.8917 115.904 38.7412C117.617 38.4959 119.364 38.7005 120.973 39.3349C124.471 40.7245 124.517 32.3328 122.275 30.0013C121.411 29.1341 120.362 28.4735 119.206 28.0691C118.051 27.6647 116.819 27.5269 115.603 27.666ZM121.597 37.3724C120.103 37.0261 118.576 36.8397 117.042 36.8166C116.585 34.3603 115.99 31.9319 115.259 29.5427C120.259 28.8132 122.891 33.0399 121.597 37.3724Z" fill="#001434"/>
<path d="M144.603 41.5177C144.43 39.4495 142.797 37.8321 141.978 36.0194C146.002 35.5678 150.493 31.4986 148.364 27.8501C146.408 25.0971 143.753 26.3238 141.294 25.1426C147.547 20.0126 143.841 13.0098 134.299 15.4547C131.403 16.1997 128.988 15.0255 126.852 13.815C129.191 12.4161 129.014 8.57226 126.536 7.5617C123.257 6.22304 120.835 8.5244 117.721 8.58461C113.877 8.26886 109.589 3.15354 105.377 5.61393C103.429 6.74955 103.557 8.85636 104.084 10.3448C95.0344 16.1897 90.4842 9.28405 84.8053 12.948C81.0665 16.0167 82.4662 21.2741 86.8512 22.9362C83.3084 25.2453 78.7127 21.4625 76.9301 26.2312C74.3948 24.1552 70.5734 22.0114 67.4599 22.7865C66.5041 16.4074 60.186 17.6264 54.3419 20.4704C52.0661 16.8582 47.6811 19.2514 43.7786 21.4046C40.2273 23.5029 37.5508 26.9707 41.4093 30.874C35.911 29.7006 32.1498 40.2925 32.6462 43.1952C33.6228 45.5715 40.8449 49.2825 47.4255 52.0486C46.9816 60.7437 68.9475 77.9271 81.1622 79.3599C87.3275 80.0833 95.5517 76.6517 96.8224 75.4937C98.3417 76.3885 101.396 77.186 101.938 78.4273C103.374 81.6613 106.269 88.5893 108.933 89.65C109.693 89.9503 110.573 88.7321 109.94 88.1832C107.669 86.0918 105.021 80.6005 103.682 77.7657C101.81 73.8092 94.8746 74.3951 93.3545 69.3184C92.0761 65.0384 93.4001 60.3523 94.0849 58.3513C94.6863 56.5911 92.9338 56.3958 92.2722 57.6665C90.5491 60.9862 89.4737 71.7549 95.0174 74.3951C85.179 80.9618 71.9028 76.065 62.5931 68.4754C70.9308 68.1898 77.7646 58.1483 77.0297 50.378C83.5362 55.1922 84.6872 56.2074 85.5596 55.1776C86.3571 54.2218 84.5668 53.6428 81.6031 51.2658C84.0269 48.6114 86.8988 46.404 90.0874 44.7447C92.6227 56.5016 108.644 59.0963 117.098 56.1024C117.52 58.1869 117.181 58.8106 114.067 59.8938C107.786 62.0677 105.605 64.9936 107.305 73.0712C108.584 79.1569 113.24 83.5342 121.484 83.0084C129.938 83.1814 142.071 77.9834 148.968 72.5531C150.005 71.7325 149.637 70.0256 147.937 70.996C145.756 72.2366 142.927 74.1172 141.092 75.2003C143.439 68.5287 136.73 56.561 134.819 53.2753C136.685 51.7861 138.52 50.9068 138.58 49.9557C138.633 49.1428 137.67 48.9922 137.264 49.3088C134.195 51.106 132.743 54.1832 127.074 52.2424C130.873 49.9557 132.693 46.9696 133.34 43.8329C135.86 46.5257 141.975 47.7292 144.179 43.3967C145.555 44.0962 148.172 45.5854 149.519 47.5185C149.664 47.7163 149.882 47.8495 150.124 47.8898C150.366 47.9301 150.615 47.8743 150.816 47.7342C151.018 47.5941 151.158 47.3809 151.205 47.1398C151.252 46.8987 151.203 46.6487 151.068 46.4431C149.278 43.9618 145.946 42.1646 144.603 41.5177ZM85.2454 19.483C83.9739 17.8734 84.3421 15.7774 86.012 14.3762C90.0812 12.0139 93.4966 16.2561 99.2426 14.3083C103.305 13.368 105.667 10.6451 110.194 11.0357C110.317 11.048 110.441 11.0357 110.559 10.9995C110.677 10.9633 110.786 10.9038 110.881 10.8247C110.976 10.7457 111.053 10.6485 111.11 10.5389C111.167 10.4293 111.201 10.3095 111.21 10.1865C110.774 8.06583 107.021 9.49172 105.839 9.66774C105.803 9.36706 105.827 9.06213 105.911 8.7711C105.995 8.48007 106.137 8.2089 106.328 7.97377C106.519 7.73863 106.755 7.54433 107.023 7.40244C107.29 7.26056 107.584 7.17399 107.885 7.14791C110.563 6.90009 115.551 10.7586 117.822 10.4351C119.477 10.5633 121.718 9.1999 123.749 9.08873C125.081 9.01153 126.773 9.40449 126.562 11.3005C126.367 12.999 123.959 12.3381 122.523 11.7745C121.334 11.5483 120.755 12.8422 121.846 13.3765C123.005 13.8626 124.135 14.415 125.231 15.0309C129.4 17.6789 132.046 17.7391 134.804 17.0543C137.767 16.3101 141.28 16.317 142.341 19.0322C143.01 20.7399 141.611 23.3122 138.505 24.5134C131.284 27.3266 125.71 21.3621 125.462 21.0989C124.559 20.1585 123.265 21.3397 124.364 22.5657C126.179 24.4335 128.446 25.8013 130.945 26.5369C125.913 29.5006 117.023 24.7543 115.992 19.6544C116.919 18.6917 115.322 17.3307 114.555 18.4509C112.073 22.1897 108.666 24.017 106.056 22.693C103.062 21.166 107.658 18.7558 106.875 16.9802C106.73 16.8006 106.524 16.6807 106.297 16.6433C106.069 16.6058 105.835 16.6535 105.64 16.7772C98.3101 21.4725 89.0954 24.3752 85.2454 19.483ZM68.0875 24.8415C70.9154 23.5785 75.6694 26.9777 76.866 28.8807C77.5654 29.9947 73.2098 38.6296 71.6079 40.3967C71.1237 39.7785 70.4937 39.29 69.7744 38.975C69.0551 38.66 68.2688 38.5283 67.4861 38.5918C67.1704 34.3195 68.4712 29.3547 68.0875 24.8415ZM64.0051 20.3817C67.473 22.9084 65.2543 31.4607 65.6001 39.0125C64.8945 39.2572 64.2504 39.6523 63.7126 40.1705C63.3358 39.2441 62.8927 38.1548 62.3955 36.9512C63.8477 36.898 63.8029 35.4922 63.7651 34.1906C63.7126 32.1146 63.0123 30.3305 59.8008 30.9188C59.5754 30.4147 59.3422 29.9105 59.116 29.4064C63.5466 28.6167 63.8029 28.7826 62.3361 23.8634C61.9825 22.6599 57.1227 22.9231 56.6719 24.3899C56.2609 23.5991 55.8294 22.8191 55.378 22.0507C58.9871 20.255 62.1755 19.6143 64.0051 20.3817ZM62.0551 35.056C61.9285 35.1185 61.7998 35.1764 61.6691 35.2297C61.3117 34.3845 60.9481 33.5419 60.5782 32.7021C60.8961 32.6567 61.2195 32.6669 61.534 32.7322C61.9131 33.446 62.0931 34.2487 62.0551 35.056ZM41.2348 26.9715C41.129 24.0757 50.6371 19.5101 52.0738 20.6411C55.7593 25.0562 58.5278 32.8488 62.4233 41.9801C62.3708 42.0859 62.3183 42.1831 62.2689 42.3036C58.8088 39.6556 50.5645 33.6687 44.2997 31.5727C42.8599 29.7507 41.3174 27.5196 41.2348 26.9715ZM45.6352 49.213C32.0958 42.7444 32.1637 43.3767 38.8354 33.1916C44.3112 30.9952 53.8262 38.7577 61.7015 44.2259C61.6243 44.6474 61.5664 45.1137 61.5285 45.6024C58.5123 43.24 55.5185 47.3471 56.2851 49.9773C56.834 51.3839 60.4601 53.1966 61.9339 51.1353C62.6117 57.157 52.4119 51.9652 45.6352 49.2123V49.213ZM61.3479 47.6791C61.2242 48.5948 60.8553 49.4601 60.2802 50.1835C59.8544 50.2087 59.4284 50.1365 59.0347 49.9724C58.641 49.8083 58.2899 49.5565 58.0082 49.2362C58.1128 48.3168 58.5082 47.4548 59.1369 46.7758C59.9418 46.8717 60.7058 47.1835 61.3479 47.6783V47.6791ZM63.7473 66.6488C61.9501 67.0927 59.9791 67.1753 55.8342 62.6699C52.337 58.8639 49.1548 54.8248 49.4335 52.8654C58.0082 56.754 64.5069 57.0999 63.87 51.3152C63.5242 48.2272 63.193 45.9598 63.6068 44.1703C63.9002 41.6728 66.8122 39.7505 69.0301 40.687C71.4751 41.7199 71.8287 46.8175 74.9352 48.7583C75.9404 53.2445 74.6689 63.9398 63.7473 66.648V66.6488ZM80.0544 50.1989C75.376 47.1294 74.1725 45.8432 72.7435 42.0604C74.2327 39.8563 77.2211 35.2003 78.3398 31.6422C79.2834 32.7448 80.5233 33.5539 81.9126 33.9736C78.7914 37.6746 83.0706 43.1806 87.4186 44.0761C84.7042 45.7825 82.2279 47.8411 80.0544 50.1981V50.1989ZM89.6003 42.5336C84.7482 42.9552 79.656 35.794 84.5151 34.2299C85.3504 33.9667 87.0581 33.4324 86.9222 32.5524C86.845 32.0413 86.1849 31.8375 85.7117 32.0258C81.8516 33.7034 77.1517 28.9378 78.9265 26.3169C80.4381 24.0981 85.2824 27.3097 89.171 23.6086C89.6091 23.6852 90.0511 23.7367 90.495 23.7631C88.8456 29.8818 88.5404 36.285 89.6003 42.5329V42.5336ZM133.189 54.1616C134.844 57.5391 144.276 72.4999 137.153 77.0431C129.014 80.7665 117.032 84.2568 111 76.7197C112.519 77.1111 115.814 77.3512 115.836 75.9152C115.834 75.7908 115.807 75.668 115.755 75.5547C115.704 75.4414 115.63 75.3399 115.537 75.2565C115.445 75.1732 115.336 75.1098 115.218 75.0704C115.1 75.031 114.975 75.0164 114.851 75.0274C113.128 75.1525 111.396 74.9716 109.736 74.4932C109.161 73.0883 108.786 71.6096 108.623 70.1005C110.616 70.6795 114.104 70.935 114.196 69.6195C114.198 69.4973 114.175 69.376 114.128 69.2629C114.082 69.1498 114.013 69.0474 113.926 68.9616C113.839 68.8759 113.735 68.8086 113.621 68.7639C113.508 68.7192 113.386 68.698 113.264 68.7016C111.685 68.7915 110.103 68.5977 108.592 68.1295C108.623 60.5477 119.777 62.3603 119.214 57.1856C117.235 46.6098 129.029 57.4658 133.189 54.1616ZM124.929 51.3052C121.918 49.643 117.731 50.327 117.197 54.1107C110.712 57.0891 90.6973 55.6755 90.9984 38.9168C92.8635 38.2474 95.5532 38.435 97.9109 39.285C98.3247 39.4394 99.0319 39.5938 99.37 39.3151C101.793 37.3218 101.506 31.9517 99.4302 29.7924C97.843 28.138 95.1958 27.0904 91.5558 27.3027C91.7716 26.1105 92.0683 24.9343 92.4436 23.7823C95.3842 23.6094 99.0249 22.6089 103.418 20.255C102.59 26.8519 111.572 25.6931 114.625 21.4061C115.063 22.4291 115.657 23.378 116.385 24.2193C114.054 24.3737 113.654 25.6483 114.415 26.2497C115.077 26.7762 115.836 25.7988 118.318 26.069C121.056 28.2353 125.005 29.6797 128.563 29.2343C132.346 37.5009 134.644 46.4369 124.93 51.3036L124.929 51.3052ZM94.8576 29.4828C98.852 29.8812 100.371 34.6553 98.4305 37.6067C97.5706 37.1535 96.6395 36.8506 95.6775 36.7112C95.5347 34.2446 95.1734 31.521 94.8576 29.4828ZM142.095 43.1273C139.316 46.1736 134.032 42.4132 133.632 41.5401C133.836 36.7112 131.82 31.8367 130.436 28.8135C131.525 28.451 132.515 27.8436 133.332 27.0379C135.4 27.2801 137.495 26.9764 139.409 26.157C141.974 28.5263 149.571 26.6612 146.337 31.5611C145.006 33.5768 141.628 35.029 137.845 33.7953C137.728 33.757 137.605 33.7422 137.482 33.7517C137.359 33.7612 137.24 33.7949 137.13 33.8508C137.02 33.9066 136.923 33.9836 136.843 34.0773C136.763 34.171 136.702 34.2795 136.664 34.3967C136.355 36.0588 139.003 35.8936 139.996 36.0951C140.643 38.3586 143.87 41.1718 142.095 43.1273Z" fill="#001434"/>
<path d="M51.7506 92.6509C49.8777 92.4255 51.7058 95.2233 48.045 95.2534C47.7991 95.2541 47.5576 95.3185 47.344 95.4403C47.1304 95.562 46.9519 95.737 46.826 95.9482C45.8479 97.6466 44.7416 99.6113 43.0053 97.8581C42.879 97.7029 42.7081 97.59 42.5157 97.5348C42.3233 97.4796 42.1186 97.4847 41.9291 97.5493C40.2894 98.4217 43.4732 101.747 37.6831 101.017C35.953 100.799 36.7281 103.491 34.0547 103.183C33.2572 103.093 32.9337 103.559 33.0395 104.07C33.2116 104.876 33.9945 105.469 35.7415 105.049C36.2681 104.928 36.7558 104.677 37.1596 104.318C37.5633 103.959 37.87 103.504 38.0514 102.995C41.5115 103.258 42.529 102.25 43.2639 100.212C45.4001 100.598 46.7766 100.22 48.2882 97.1054C49.4274 97.1936 50.5566 96.8378 51.4395 96.1126C52.8337 94.8774 52.5929 92.7567 51.7506 92.6509Z" fill="#001434"/>
<path d="M52.7959 28.5044C53.0592 27.5942 51.397 23.9766 49.8623 24.1811C47.598 24.4745 45.5591 26.0617 45.5143 27.3464C45.4842 28.008 46.477 29.8662 47.4845 30.8436C49.2007 32.0703 52.5249 29.3767 52.7959 28.5044ZM47.4258 27.324C47.6134 26.7897 49.1034 25.8649 49.8021 26.0671C50.11 26.2877 50.3681 26.5704 50.5599 26.897C50.7516 27.2236 50.8727 27.5869 50.9153 27.9632C50.886 28.685 49.1551 29.6029 48.5391 29.2941C48.0651 29.061 47.2297 27.835 47.4258 27.324Z" fill="#001434"/>
</svg>
