<svg width="154" height="154" viewBox="0 0 154 154" fill="none" xmlns="http://www.w3.org/2000/svg">
<path d="M4.30811 110.275L15.8998 107.224L80.8918 115.313L69.9035 119.89L4.30811 110.275Z" fill="#FFE55D"/>
<path d="M9.11506 20.2727H112.99C112.99 20.2727 114.595 20.2727 114.595 21.8775V88.2274C114.595 88.2274 114.595 89.8322 112.99 89.8322H9.11506C9.11506 89.8322 7.51025 89.8322 7.51025 88.2274V21.8775C7.51025 21.8775 7.51025 20.2727 9.11506 20.2727Z" fill="white"/>
<path d="M12.6978 23.5544H108.572V85.7968H12.6978V23.5544Z" fill="white"/>
<path d="M108.956 85.7969C108.956 85.8986 108.916 85.9961 108.844 86.068C108.772 86.1399 108.674 86.1803 108.573 86.1803H12.6983C12.5966 86.1803 12.4991 86.1399 12.4272 86.068C12.3553 85.9961 12.3149 85.8986 12.3149 85.7969V23.5545C12.3149 23.4528 12.3553 23.3553 12.4272 23.2834C12.4991 23.2115 12.5966 23.1711 12.6983 23.1711H108.573C108.674 23.1711 108.772 23.2115 108.844 23.2834C108.916 23.3553 108.956 23.4528 108.956 23.5545V85.7969ZM13.0817 85.4135H108.189V23.9379H13.0817V85.4135Z" fill="#4B1010"/>
<path d="M54.4586 64.8944H21.7322C20.6992 64.88 19.7134 64.4595 18.988 63.7239C18.2626 62.9884 17.856 61.9968 17.856 60.9637C17.856 59.9306 18.2626 58.939 18.988 58.2035C19.7134 57.4679 20.6992 57.0474 21.7322 57.033H54.4586C55.4915 57.0474 56.4773 57.4679 57.2027 58.2035C57.9281 58.939 58.3348 59.9306 58.3348 60.9637C58.3348 61.9968 57.9281 62.9884 57.2027 63.7239C56.4773 64.4595 55.4915 64.88 54.4586 64.8944ZM21.7322 57.7997C20.9016 57.8126 20.1093 58.1517 19.5265 58.7436C18.9437 59.3356 18.6171 60.133 18.6171 60.9637C18.6171 61.7944 18.9437 62.5918 19.5265 63.1838C20.1093 63.7757 20.9016 64.1148 21.7322 64.1277H54.4586C55.2892 64.1148 56.0814 63.7757 56.6642 63.1838C57.247 62.5918 57.5737 61.7944 57.5737 60.9637C57.5737 60.133 57.247 59.3356 56.6642 58.7436C56.0814 58.1517 55.2892 57.8126 54.4586 57.7997H21.7322Z" fill="#4B1010"/>
<path d="M30.0711 64.5772C29.9871 64.5772 29.9054 64.5495 29.8387 64.4986C29.7719 64.4476 29.7237 64.3761 29.7015 64.2951C29.1341 62.2248 31.1377 61.2894 32.0547 60.3018C32.3881 59.9481 32.5714 59.479 32.5661 58.993C32.4188 59.0318 32.2767 59.0881 32.1429 59.1609C31.5248 59.5928 31.0038 60.1491 30.6132 60.7941C30.0087 61.9131 29.1582 62.8805 28.1259 63.6234C27.9571 63.8132 27.7245 63.9345 27.4723 63.9644C27.22 63.9943 26.9655 63.9307 26.757 63.7856C26.5485 63.6405 26.4005 63.424 26.3409 63.177C26.2813 62.9301 26.3143 62.6699 26.4336 62.4457C26.8984 61.5367 27.5732 60.7516 28.4019 60.1554C28.9279 59.6716 29.5014 58.822 29.4247 58.6165C29.3481 58.6073 29.1525 58.6694 28.615 59.1448C27.7148 59.9192 26.9079 60.7959 26.2105 61.7571C25.3464 62.9617 24.2684 64.1678 22.8368 63.9362C22.6136 63.914 22.4049 63.8151 22.2464 63.6564C21.8907 63.2561 21.9972 62.7002 22.5148 62.1512L25.1148 59.4392C25.6516 58.9876 25.0619 58.7438 24.5283 59.2859C23.8102 59.8932 23.2067 60.6242 22.7464 61.4443C22.5996 61.7692 22.3964 62.0654 22.146 62.3191C21.9694 62.4863 21.743 62.5912 21.5014 62.6178C21.2597 62.6443 21.0159 62.5912 20.8072 62.4664C20.776 62.4472 20.7476 62.4237 20.7229 62.3966C20.5398 62.1956 20.4281 61.9399 20.4052 61.669C20.3824 61.398 20.4496 61.1272 20.5964 60.8984C21.0127 60.0197 22.0923 59.371 22.3024 58.5214C22.3791 58.2094 22.2173 58.3934 21.9535 58.5828C20.5806 59.5642 19.5533 60.9547 19.0184 62.5553C18.9864 62.6519 18.9173 62.7318 18.8264 62.7775C18.7354 62.8231 18.63 62.8308 18.5334 62.7987C18.4369 62.7667 18.3569 62.6976 18.3113 62.6067C18.2656 62.5157 18.258 62.4104 18.29 62.3138C18.9182 60.4283 20.1701 58.8132 21.8393 57.7348C21.9984 57.6228 22.1869 57.5602 22.3814 57.5546C22.9281 57.5546 23.1711 58.1741 23.0477 58.7001C22.7609 59.8671 21.6829 60.4053 21.2642 61.2741C21.2056 61.3557 21.1731 61.4532 21.1711 61.5537C21.169 61.6542 21.1975 61.7529 21.2527 61.8369C21.3126 61.8608 21.378 61.8674 21.4415 61.8558C21.505 61.8443 21.5639 61.8151 21.6116 61.7717C21.7999 61.5767 21.9525 61.3501 22.0624 61.1023C22.5626 60.1997 23.2213 59.3945 24.0069 58.7254C24.2725 58.4626 24.6114 58.2864 24.9791 58.2201C25.2299 58.1809 25.4862 58.2396 25.695 58.384C25.9037 58.5284 26.0491 58.7475 26.1009 58.9961C26.1063 59.1885 26.0672 59.3797 25.9866 59.5546C25.906 59.7295 25.7861 59.8834 25.6362 60.0043L23.0699 62.6834C22.8445 62.9233 22.7947 63.0982 22.8023 63.135C22.8388 63.161 22.8818 63.1763 22.9265 63.1794C23.9793 63.3443 24.8595 62.3276 25.5887 61.3124C26.3012 60.3337 27.1208 59.4377 28.0323 58.641C28.7991 57.9686 29.2085 57.757 29.6095 57.8689C29.7501 57.9092 29.8771 57.9868 29.9772 58.0934C30.0772 58.2001 30.1465 58.3318 30.1777 58.4747C30.3602 59.3948 28.8987 60.7412 28.8842 60.7542C28.1436 61.2812 27.5391 61.9769 27.1207 62.7838C27.0999 62.8333 27.0893 62.8865 27.0893 62.9402C27.0893 62.9939 27.0999 63.0471 27.1207 63.0966C27.1207 63.0882 27.1375 63.1043 27.1828 63.115C27.3596 63.1345 27.5377 63.0925 27.6873 62.9962C28.6241 62.3176 29.3955 61.4361 29.9438 60.4176C30.4018 59.6598 31.0171 59.009 31.748 58.5092C33.1519 57.7562 33.7254 58.7806 33.0883 60.1193L33.513 59.4799C33.9257 58.6838 34.5895 58.0461 35.4015 57.6657C36.3078 57.3268 37.1244 57.9924 36.6705 59.2077C36.9464 58.9029 37.2579 58.6324 37.5983 58.4018C38.2684 58.0637 38.7285 58.0675 39.0091 58.3903C39.5175 58.9746 38.9179 60.2926 38.5659 60.804C38.0453 61.5608 36.9557 62.4204 36.9166 63.2116C36.9092 63.2608 36.9172 63.311 36.9396 63.3554C36.962 63.3998 36.9976 63.4361 37.0416 63.4593C37.1243 63.4522 37.2027 63.4198 37.2663 63.3665C37.847 62.9015 38.288 62.2851 38.5406 61.5854C38.8108 60.8079 39.1265 60.047 39.486 59.3066C39.5083 59.2675 40.584 57.5262 41.5171 57.5983C42.277 57.6473 42.4817 58.707 41.9841 59.3902C41.2319 60.7251 39.3005 62.428 39.3718 63.5099C39.3826 63.5656 39.4107 63.6164 39.4519 63.6554C39.4932 63.6943 39.5456 63.7193 39.6018 63.7269C40.6367 62.9888 41.4475 61.9792 41.945 60.8094C42.5064 59.5703 43.5134 58.5877 44.7659 58.0568C45.6668 57.7961 46.2066 58.5398 45.9927 59.4208C45.574 61.166 43.5191 61.9511 42.9939 63.4325C42.8873 63.7744 43.3773 63.684 43.6548 63.5214C46.0049 62.0968 45.6537 60.0626 47.2586 59.6363C47.7845 59.4392 48.4232 59.8732 48.1441 60.7718C47.9506 61.378 47.6645 61.9506 47.2961 62.4694C46.9227 62.9939 46.9657 63.1449 47.0009 63.1856C47.0515 63.2253 47.1118 63.2508 47.1756 63.2594C47.2393 63.2681 47.3043 63.2595 47.3636 63.2346C48.0627 62.9075 48.7002 62.4624 49.2483 61.9189C50.1853 61.2698 51.2862 60.8978 52.4249 60.8455C52.4753 60.8432 52.5255 60.851 52.5729 60.8682C52.6203 60.8854 52.6638 60.9118 52.7009 60.9458C52.7381 60.9798 52.7682 61.0209 52.7895 61.0665C52.8108 61.1122 52.8229 61.1616 52.8251 61.212C52.8274 61.2623 52.8196 61.3126 52.8024 61.36C52.7852 61.4073 52.7588 61.4508 52.7248 61.488C52.6908 61.5252 52.6497 61.5553 52.6041 61.5766C52.5584 61.5979 52.509 61.61 52.4586 61.6122C51.4846 61.6544 50.5412 61.9646 49.7321 62.5085C49.1329 63.1007 48.4349 63.5836 47.6695 63.9354C47.4667 64.0209 47.2435 64.0456 47.0269 64.0066C46.8103 63.9675 46.6098 63.8663 46.4496 63.7154C45.9052 63.102 46.4619 62.3184 46.6712 62.0239C47.0302 61.5329 47.2928 60.9782 47.4449 60.3892C46.307 60.7726 46.4688 62.7094 44.0436 64.1785C43.3796 64.568 42.4495 64.5619 42.2586 63.8197C41.9688 62.9118 43.1718 61.7533 43.8565 61.1061C44.4855 60.6274 44.9666 59.9807 45.2443 59.2406C45.2836 59.0966 45.2714 58.9434 45.2098 58.8074C45.15 58.7738 45.0799 58.7631 45.0127 58.7775C43.96 59.24 43.1165 60.077 42.6458 61.1261C42.1043 62.3113 41.3067 63.3617 40.3103 64.2015C40.0996 64.3798 39.8347 64.4814 39.5589 64.4898C39.3215 64.4673 39.0987 64.3654 38.9266 64.2005C38.7544 64.0356 38.643 63.8174 38.6104 63.5812C38.597 63.3886 38.612 63.1951 38.6549 63.0069C38.3991 63.3644 38.0957 63.6853 37.7532 63.9608C37.6346 64.0642 37.4949 64.1404 37.3437 64.1841C37.1926 64.2278 37.0338 64.2379 36.8783 64.2138C36.6517 64.1513 36.4546 64.0104 36.3222 63.8162C36.1898 63.622 36.1306 63.3871 36.1553 63.1534C36.2082 62.0408 37.425 61.113 37.9364 60.3701C38.2511 59.9424 38.4245 59.4273 38.4325 58.8964C38.2778 58.9337 38.1283 58.9895 37.987 59.0628C37.3211 59.5247 36.7997 60.166 36.4834 60.9122C35.8256 62.1259 35.2359 63.3489 34.0797 64.0029C33.8996 64.1176 33.6897 64.1765 33.4762 64.1724C33.4169 64.1694 33.3587 64.1553 33.3045 64.131C33.0824 64.0439 32.904 63.8723 32.8084 63.6537C32.7128 63.4352 32.7078 63.1877 32.7946 62.9655C32.9441 62.6373 33.1744 62.3524 33.464 62.1374C34.4143 61.2868 35.2186 60.2859 35.8447 59.1747C35.9877 58.9549 36.0495 58.6922 36.0195 58.4317C36.0161 58.4163 36.0089 58.4021 35.9986 58.3902C35.9883 58.3782 35.9752 58.3691 35.9605 58.3635C35.875 58.3376 35.7833 58.3408 35.6998 58.3727C35.0425 58.6893 34.5072 59.213 34.1763 59.8632L32.0386 63.079C31.6997 63.6004 31.0679 64.5772 30.0711 64.5772ZM32.6083 60.8324C31.7096 61.7947 30.3019 62.4357 30.3847 63.7461C30.8122 63.4808 31.1616 63.1066 31.3968 62.6619L32.6083 60.8324ZM35.5802 60.9628C35.0933 61.6035 34.5453 62.1954 33.944 62.7301C33.752 62.8683 33.5982 63.053 33.4969 63.2668C33.4915 63.292 33.4937 63.3182 33.5035 63.342C33.5132 63.3658 33.5299 63.3861 33.5514 63.4003C33.5948 63.393 33.6361 63.3766 33.6725 63.352C34.5165 62.7467 35.1767 61.9198 35.5802 60.9628ZM41.1637 58.5092C40.7759 58.8436 40.44 59.2338 40.1669 59.667C39.8527 60.3161 39.5735 60.9815 39.3304 61.6605C39.9599 60.7327 40.814 59.9085 41.3446 58.9769C41.5003 58.7522 41.6843 58.0882 41.1637 58.5092Z" fill="#FFB43B"/>
<path d="M7.97168 90.0631L16.8223 97.4599H126.497L112.999 90.0631H7.97168Z" fill="white"/>
<path d="M126.52 97.0765C126.227 97.0581 127.625 97.8179 113.976 89.9526C114.28 89.7788 114.533 89.5277 114.709 89.2246C114.885 88.9215 114.978 88.5772 114.979 88.2267V21.8776C114.977 21.3506 114.767 20.8456 114.394 20.473C114.022 20.1005 113.517 19.8906 112.99 19.8894H7.5287C7.00091 19.8894 6.49466 20.0987 6.12095 20.4714C5.74724 20.8441 5.53658 21.3498 5.53516 21.8776V88.2274C5.53577 88.4936 5.58968 88.757 5.69371 89.002C5.79774 89.247 5.94979 89.4687 6.14089 89.654C6.33199 89.8393 6.55826 89.9845 6.80636 90.081C7.05446 90.1774 7.31936 90.2232 7.58544 90.2156V92.6769C7.58542 92.7313 7.59696 92.785 7.6193 92.8346C7.64164 92.8842 7.67427 92.9284 7.71502 92.9644L16.4069 100.647C16.4767 100.709 16.5671 100.561 16.6607 100.561H126.498C126.71 100.561 126.882 100.206 126.882 99.9947V97.4599C126.882 97.3619 126.844 97.2676 126.777 97.1963C126.71 97.1251 126.618 97.0822 126.52 97.0765ZM7.89368 21.8776C7.89509 21.5541 8.02423 21.2442 8.25299 21.0155C8.48174 20.7867 8.7916 20.6576 9.11511 20.6562H112.99C113.313 20.6574 113.623 20.7864 113.852 21.0152C114.081 21.244 114.21 21.5539 114.212 21.8776V88.2274C114.21 88.5511 114.081 88.8611 113.852 89.0898C113.623 89.3186 113.313 89.4477 112.99 89.4489H9.11511C8.79123 89.4487 8.48067 89.3199 8.25165 89.0909C8.02263 88.8619 7.89388 88.5513 7.89368 88.2274V21.8776ZM16.9597 97.0765L9.06987 90.4456H112.896L125.057 97.0765H16.9597Z" fill="#4B1010"/>
<path d="M91.9117 79.84C90.984 79.8402 90.0771 79.5652 89.3057 79.0499C88.5343 78.5347 87.9331 77.8022 87.5779 76.9452C87.2228 76.0882 87.1298 75.1451 87.3107 74.2353C87.4916 73.3254 87.9383 72.4896 88.5942 71.8336C89.2501 71.1776 90.0858 70.7308 90.9956 70.5498C91.9054 70.3687 92.8485 70.4616 93.7056 70.8165C94.5627 71.1715 95.2952 71.7727 95.8106 72.544C96.326 73.3153 96.6011 74.2221 96.6011 75.1498C96.5999 76.3932 96.1055 77.5854 95.2263 78.4647C94.3472 79.344 93.1551 79.8386 91.9117 79.84ZM91.9117 71.2271C91.1356 71.227 90.377 71.457 89.7316 71.888C89.0863 72.3191 88.5833 72.9318 88.2863 73.6488C87.9892 74.3657 87.9114 75.1547 88.0628 75.9158C88.2142 76.677 88.5879 77.3761 89.1366 77.9249C89.6854 78.4736 90.3845 78.8473 91.1457 78.9987C91.9068 79.15 92.6958 79.0723 93.4127 78.7752C94.1297 78.4782 94.7424 77.9752 95.1735 77.3298C95.6045 76.6845 95.8345 75.9259 95.8344 75.1498C95.8332 74.1098 95.4195 73.1128 94.6841 72.3774C93.9487 71.642 92.9517 71.2283 91.9117 71.2271Z" fill="#4B1010"/>
<path d="M103.201 79.84C102.274 79.84 101.367 79.5649 100.596 79.0496C99.8244 78.5342 99.2232 77.8017 98.8682 76.9447C98.5133 76.0876 98.4204 75.1446 98.6014 74.2348C98.7823 73.325 99.229 72.4893 99.885 71.8333C100.541 71.1774 101.377 70.7307 102.286 70.5497C103.196 70.3687 104.139 70.4616 104.996 70.8166C105.853 71.1716 106.586 71.7728 107.101 72.5441C107.617 73.3154 107.892 74.2222 107.892 75.1498C107.89 76.3933 107.396 77.5854 106.516 78.4647C105.637 79.344 104.445 79.8386 103.201 79.84ZM103.201 71.2271C102.425 71.2271 101.667 71.4572 101.022 71.8884C100.376 72.3195 99.8735 72.9323 99.5766 73.6493C99.2796 74.3663 99.202 75.1552 99.3534 75.9163C99.5049 76.6774 99.8786 77.3765 100.427 77.9251C100.976 78.4738 101.675 78.8474 102.436 78.9987C103.198 79.15 103.987 79.0722 104.703 78.7751C105.42 78.4781 106.033 77.9751 106.464 77.3298C106.895 76.6844 107.125 75.9258 107.125 75.1498C107.124 74.1097 106.71 73.1125 105.974 72.3771C105.239 71.6417 104.242 71.2281 103.201 71.2271Z" fill="#4B1010"/>
<path d="M68.9495 79.84C68.0219 79.84 67.1152 79.565 66.344 79.0497C65.5727 78.5345 64.9716 77.8021 64.6165 76.9452C64.2615 76.0883 64.1684 75.1454 64.3492 74.2356C64.53 73.3259 64.9765 72.4902 65.6322 71.8341C66.2879 71.1781 67.1234 70.7312 68.0331 70.55C68.9427 70.3688 69.8857 70.4613 70.7428 70.816C71.5998 71.1706 72.3325 71.7714 72.8481 72.5424C73.3638 73.3134 73.6392 74.22 73.6397 75.1475C73.6389 76.3914 73.1445 77.5841 72.2652 78.4639C71.3859 79.3437 70.1934 79.8386 68.9495 79.84ZM68.9495 71.2271C68.1734 71.2271 67.4147 71.4573 66.7694 71.8885C66.1241 72.3198 65.6213 72.9327 65.3244 73.6498C65.0275 74.3669 64.95 75.156 65.1016 75.9171C65.2533 76.6783 65.6273 77.3774 66.1763 77.926C66.7253 78.4745 67.4247 78.848 68.1859 78.999C68.9472 79.15 69.7362 79.0719 70.4531 78.7745C71.1699 78.4771 71.7825 77.9737 72.2132 77.3281C72.644 76.6825 72.8735 75.9236 72.8729 75.1475C72.8711 74.1078 72.4571 73.1112 71.7216 72.3763C70.9861 71.6414 69.9892 71.2281 68.9495 71.2271Z" fill="#4B1010"/>
<path d="M87.2949 109.592C87.9789 109.592 112.235 102.95 112.235 102.95L149.99 109.592L127.339 118.054L87.2949 109.592Z" fill="#FFB43B"/>
<path d="M150.058 109.215C109.514 102.039 112.262 102.544 112.134 102.58C102.561 105.202 88.0583 109.125 87.2824 109.21C87.1893 109.214 87.1008 109.251 87.0335 109.316C86.9662 109.38 86.9246 109.467 86.9165 109.559C86.9084 109.652 86.9344 109.745 86.9896 109.82C87.0448 109.895 87.1254 109.947 87.2164 109.967C129.158 118.855 127.263 118.437 127.34 118.437C127.446 118.437 125.795 119.019 150.125 109.951C150.204 109.922 150.27 109.867 150.315 109.796C150.359 109.725 150.379 109.641 150.372 109.557C150.364 109.474 150.329 109.395 150.272 109.333C150.216 109.271 150.14 109.23 150.058 109.215ZM111.942 103.428L117.846 109.228H90.4728C96.2664 107.728 108.261 104.437 111.942 103.428ZM118.624 109.996L126.13 117.407L90.9819 109.996H118.624ZM127.429 117.612L119.717 110.029H147.685L127.429 117.612ZM118.938 109.261L113.097 103.491L145.981 109.261H118.938Z" fill="#4B1010"/>
<path d="M116.944 93.114C115.105 104.345 112.335 115.403 108.663 126.174L112.545 127.67C117.215 116.798 120.89 105.526 123.526 93.9904L116.944 93.114Z" fill="white"/>
<path d="M105.935 95.4817C103.027 105.451 99.3065 115.165 94.812 124.526L95.2889 127.887L98.7769 126.43C103.123 118.119 107.778 109.959 111.894 97.6769L105.935 95.4817Z" fill="white"/>
<path d="M80.2403 79.84C79.3126 79.8402 78.4057 79.5652 77.6343 79.0499C76.8629 78.5347 76.2617 77.8022 75.9066 76.9452C75.5515 76.0882 75.4585 75.1451 75.6393 74.2353C75.8202 73.3254 76.2669 72.4896 76.9228 71.8336C77.5787 71.1776 78.4144 70.7308 79.3242 70.5498C80.2341 70.3687 81.1771 70.4616 82.0342 70.8165C82.8913 71.1715 83.6238 71.7727 84.1392 72.544C84.6546 73.3153 84.9297 74.2221 84.9297 75.1498C84.9285 76.3932 84.4341 77.5854 83.5549 78.4647C82.6758 79.344 81.4837 79.8386 80.2403 79.84ZM80.2403 71.2271C79.4642 71.227 78.7056 71.457 78.0602 71.888C77.4149 72.3191 76.9119 72.9318 76.6149 73.6488C76.3178 74.3657 76.2401 75.1547 76.3914 75.9158C76.5428 76.677 76.9165 77.3761 77.4652 77.9249C78.014 78.4736 78.7131 78.8473 79.4743 78.9987C80.2354 79.15 81.0244 79.0723 81.7413 78.7752C82.4583 78.4782 83.071 77.9752 83.5021 77.3298C83.9331 76.6845 84.1631 75.9259 84.163 75.1498C84.1618 74.1098 83.7481 73.1128 83.0127 72.3774C82.2773 71.642 81.2803 71.2283 80.2403 71.2271Z" fill="#4B1010"/>
<path d="M46.0681 79.84C45.1406 79.84 44.2339 79.565 43.4626 79.0497C42.6914 78.5345 42.0902 77.8021 41.7352 76.9452C41.3801 76.0883 41.2871 75.1454 41.4679 74.2356C41.6487 73.3259 42.0951 72.4902 42.7508 71.8341C43.4066 71.1781 44.2421 70.7312 45.1517 70.55C46.0614 70.3688 47.0043 70.4613 47.8614 70.816C48.7185 71.1706 49.4511 71.7714 49.9668 72.5424C50.4824 73.3134 50.7579 74.22 50.7583 75.1475C50.7575 76.3914 50.2632 77.5841 49.3839 78.4639C48.5045 79.3437 47.312 79.8386 46.0681 79.84ZM46.0681 71.2271C45.292 71.2271 44.5333 71.4573 43.8881 71.8885C43.2428 72.3198 42.7399 72.9327 42.443 73.6498C42.1462 74.3669 42.0687 75.156 42.2203 75.9171C42.3719 76.6783 42.7459 77.3774 43.2949 77.926C43.8439 78.4745 44.5433 78.848 45.3046 78.999C46.0659 79.15 46.8548 79.0719 47.5717 78.7745C48.2886 78.4771 48.9011 77.9737 49.3319 77.3281C49.7626 76.6825 49.9922 75.9236 49.9916 75.1475C49.9898 74.1078 49.5757 73.1112 48.8402 72.3763C48.1048 71.6414 47.1079 71.2281 46.0681 71.2271Z" fill="#4B1010"/>
<path d="M57.3581 79.84C56.4304 79.8408 55.5233 79.5664 54.7516 79.0516C53.9798 78.5368 53.3781 77.8047 53.0224 76.9478C52.6668 76.091 52.5732 75.148 52.7536 74.238C52.9339 73.328 53.3801 72.4919 54.0356 71.8355C54.6912 71.1791 55.5267 70.7318 56.4364 70.5503C57.3462 70.3687 58.2894 70.4611 59.1466 70.8156C60.0039 71.1701 60.7368 71.7709 61.2526 72.542C61.7685 73.3131 62.044 74.2198 62.0445 75.1475C62.0439 76.3908 61.5501 77.5831 60.6716 78.4628C59.793 79.3425 58.6014 79.8378 57.3581 79.84ZM57.3581 71.2271C56.5818 71.2264 55.8228 71.4559 55.177 71.8867C54.5312 72.3175 54.0277 72.9301 53.7303 73.6472C53.4328 74.3642 53.3548 75.1534 53.506 75.9148C53.6572 76.6762 54.0308 77.3756 54.5797 77.9246C55.1286 78.4736 55.8279 78.8474 56.5893 78.9987C57.3507 79.1501 58.1399 79.0722 58.8569 78.7749C59.574 78.4775 60.1868 77.9742 60.6177 77.3285C61.0486 76.6828 61.2783 75.9238 61.2777 75.1475C61.2759 74.1084 60.8624 73.1124 60.1277 72.3777C59.3931 71.6429 58.3972 71.2291 57.3581 71.2271Z" fill="#4B1010"/>
<path d="M23.2652 79.84C22.3376 79.8402 21.4308 79.5653 20.6595 79.0501C19.8881 78.5349 19.2869 77.8026 18.9317 76.9457C18.5765 76.0889 18.4834 75.1459 18.6641 74.2361C18.8448 73.3263 19.2912 72.4905 19.9469 71.8344C20.6025 71.1783 21.438 70.7313 22.3477 70.5501C23.2574 70.3688 24.2004 70.4613 25.0575 70.8159C25.9146 71.1705 26.6473 71.7713 27.163 72.5423C27.6787 73.3133 27.9542 74.2199 27.9546 75.1475C27.9538 76.3913 27.4596 77.5839 26.5804 78.4636C25.7012 79.3434 24.5089 79.8384 23.2652 79.84ZM23.2652 71.2271C22.489 71.227 21.7303 71.457 21.0849 71.8882C20.4395 72.3193 19.9365 72.9322 19.6396 73.6493C19.3426 74.3664 19.2649 75.1554 19.4165 75.9167C19.568 76.6779 19.942 77.377 20.4909 77.9257C21.0399 78.4743 21.7393 78.8479 22.5006 78.999C23.2619 79.1501 24.0509 79.072 24.7678 78.7746C25.4847 78.4772 26.0973 77.9738 26.5281 77.3282C26.9589 76.6825 27.1885 75.9236 27.1879 75.1475C27.1861 74.1079 26.7721 73.1115 26.0368 72.3766C25.3015 71.6417 24.3048 71.2283 23.2652 71.2271Z" fill="#4B1010"/>
<path d="M34.5557 79.84C33.6281 79.8402 32.7214 79.5653 31.95 79.0501C31.1787 78.5349 30.5774 77.8026 30.2222 76.9457C29.867 76.0889 29.7739 75.1459 29.9546 74.2361C30.1353 73.3263 30.5817 72.4905 31.2374 71.8344C31.8931 71.1783 32.7286 70.7313 33.6382 70.5501C34.5479 70.3688 35.4909 70.4613 36.348 70.8159C37.2051 71.1705 37.9379 71.7713 38.4535 72.5423C38.9692 73.3133 39.2447 74.2199 39.2452 75.1475C39.2443 76.3913 38.7501 77.5839 37.8709 78.4636C36.9918 79.3434 35.7995 79.8384 34.5557 79.84ZM34.5557 71.2271C33.7796 71.227 33.0208 71.457 32.3754 71.8882C31.7301 72.3193 31.2271 72.9322 30.9301 73.6493C30.6331 74.3664 30.5555 75.1554 30.707 75.9167C30.8586 76.6779 31.2325 77.377 31.7815 77.9257C32.3304 78.4743 33.0298 78.8479 33.7911 78.999C34.5524 79.1501 35.3414 79.072 36.0583 78.7746C36.7752 78.4772 37.3878 77.9738 37.8186 77.3282C38.2494 76.6825 38.479 75.9236 38.4784 75.1475C38.4766 74.1079 38.0626 73.1115 37.3273 72.3766C36.592 71.6417 35.5953 71.2283 34.5557 71.2271Z" fill="#4B1010"/>
<path d="M121.499 94.3377C120.62 94.3662 119.741 94.278 118.885 94.0755C117.935 93.8401 117.67 93.2812 116.859 92.8487C115.309 94.7894 115.542 95.7539 114.559 96.9409C113.907 97.6079 112.351 97.4369 111.461 97.4891C109.902 97.5609 108.356 97.1873 107.002 96.4119C105.648 95.6365 104.544 94.4915 103.817 93.111C103.688 92.8609 103.598 92.5932 103.547 92.3166C103.516 91.8007 103.612 91.2851 103.826 90.8145L106.733 82.7345C106.912 82.3476 106.98 81.9189 106.932 81.4955C106.832 81.2413 106.773 80.9729 106.757 80.7003C106.804 80.113 107.552 79.906 108.137 79.906C112.352 79.5148 116.451 78.3086 120.206 76.3544C120.742 76.0723 121.628 75.2342 122.176 75.1315C123.326 74.9152 123.503 76.5944 124.305 77.5145C125.272 78.6386 125.893 80.0182 126.093 81.487C126.389 83.5573 126.323 84.1615 126.189 91.5698C126.214 91.819 126.177 92.0706 126.082 92.3021C125.986 92.5336 125.834 92.7378 125.64 92.8963C124.491 93.8816 123.012 94.3964 121.499 94.3377Z" fill="#FFE55D"/>
<path d="M101.716 32.3991H63.7315C63.6298 32.3991 63.5323 32.3587 63.4604 32.2868C63.3885 32.2149 63.3481 32.1174 63.3481 32.0157V29.7277C63.3481 29.6261 63.3885 29.5285 63.4604 29.4566C63.5323 29.3848 63.6298 29.3444 63.7315 29.3444H101.716C101.818 29.3444 101.915 29.3848 101.987 29.4566C102.059 29.5285 102.1 29.6261 102.1 29.7277V32.0157C102.1 32.1174 102.059 32.2149 101.987 32.2868C101.915 32.3587 101.818 32.3991 101.716 32.3991ZM64.1149 31.6323H101.333V30.1111H64.1149V31.6323Z" fill="#4B1010"/>
<path d="M102.1 42.3207C102.1 42.4223 102.059 42.5199 101.987 42.5918C101.915 42.6637 101.818 42.704 101.716 42.704H63.7315C63.6298 42.704 63.5323 42.6637 63.4604 42.5918C63.3885 42.5199 63.3481 42.4223 63.3481 42.3207V39.8004C63.3481 39.6987 63.3885 39.6012 63.4604 39.5293C63.5323 39.4574 63.6298 39.417 63.7315 39.417H101.716C101.818 39.417 101.915 39.4574 101.987 39.5293C102.059 39.6012 102.1 39.6987 102.1 39.8004V42.3207ZM64.1149 41.9373H101.333V40.1837H64.1149V41.9373Z" fill="#4B1010"/>
<path d="M102.1 52.1565C102.1 52.2582 102.059 52.3557 101.987 52.4276C101.915 52.4995 101.818 52.5399 101.716 52.5399H63.7315C63.6298 52.5399 63.5323 52.4995 63.4604 52.4276C63.3885 52.3557 63.3481 52.2582 63.3481 52.1565V49.6378C63.3481 49.5361 63.3885 49.4386 63.4604 49.3667C63.5323 49.2948 63.6298 49.2544 63.7315 49.2544H101.716C101.818 49.2544 101.915 49.2948 101.987 49.3667C102.059 49.4386 102.1 49.5361 102.1 49.6378V52.1565ZM64.1149 51.7732H101.333V50.0211H64.1149V51.7732Z" fill="#4B1010"/>
<path d="M58.2318 28.8911H18.4161C18.3144 28.8911 18.2169 28.9315 18.145 29.0034C18.0731 29.0753 18.0327 29.1728 18.0327 29.2745V52.6174C18.0327 52.7191 18.0731 52.8166 18.145 52.8885C18.2169 52.9604 18.3144 53.0008 18.4161 53.0008H58.2318C58.3335 53.0008 58.431 52.9604 58.5029 52.8885C58.5748 52.8166 58.6152 52.7191 58.6152 52.6174V29.2745C58.6152 29.1728 58.5748 29.0753 58.5029 29.0034C58.431 28.9315 58.3335 28.8911 58.2318 28.8911ZM18.7995 29.9454L37.4982 40.9651L18.7995 51.9404V29.9454ZM19.8215 29.6579H56.7604L38.255 40.5212L19.8215 29.6579ZM38.2542 41.4106L56.6171 52.234H19.8131L38.2542 41.4106ZM39.0102 40.9666L57.8485 29.9094V52.0684L39.0102 40.9666Z" fill="#4B1010"/>
<path d="M57.9298 55.6293L52.2559 60.9122C52.2106 60.9551 52.1795 61.0108 52.1667 61.0719C52.1539 61.1329 52.16 61.1965 52.1843 61.254C52.2085 61.3114 52.2497 61.3602 52.3024 61.3936C52.355 61.4271 52.4166 61.4437 52.479 61.4412H60.5989L57.9298 55.6293Z" fill="#FFB43B"/>
<path d="M122.239 75.2611L120.443 71.0026L106.92 76.1037L107.445 79.6952C107.478 80.1659 107.619 80.6225 107.858 81.0293C108.389 81.5983 109.103 81.9615 109.875 82.0545C113.96 82.9048 118.036 82.3566 121.389 78.7728C121.956 78.1664 122.362 77.4287 122.573 76.6259C122.571 76.1509 122.456 75.6831 122.239 75.2611Z" fill="white"/>
<path d="M140.688 34.9002C140.688 35.7938 141.013 36.6507 141.593 37.2825C142.172 37.9144 142.959 38.2693 143.778 38.2693C144.598 38.2693 145.384 37.9144 145.964 37.2825C146.543 36.6507 146.869 35.7938 146.869 34.9002C146.869 34.0067 146.543 33.1497 145.964 32.5179C145.384 31.8861 144.598 31.5311 143.778 31.5311C142.959 31.5311 142.172 31.8861 141.593 32.5179C141.013 33.1497 140.688 34.0067 140.688 34.9002Z" fill="#FFE55D"/>
<path d="M143.78 31.1475C143.531 31.1475 149.583 29.2674 59.1307 54.656C58.4215 54.8365 57.7753 55.2077 57.2621 55.7295L51.9953 60.6367C51.8946 60.7319 51.8248 60.8553 51.7952 60.9907C51.7656 61.1262 51.7775 61.2674 51.8293 61.396C51.8811 61.5246 51.9704 61.6346 52.0857 61.7117C52.2009 61.7888 52.3367 61.8294 52.4753 61.8282C61.0759 61.8282 60.3613 61.8842 61.0936 61.681L143.84 38.6501C144.779 38.562 145.651 38.1246 146.283 37.4245C146.915 36.7245 147.262 35.8127 147.254 34.8696C147.246 33.9264 146.884 33.0206 146.241 32.3312C145.597 31.6418 144.718 31.2191 143.777 31.1467L143.78 31.1475ZM52.6218 61.0775L56.5429 57.4439C56.4063 58.1154 56.4605 58.8117 56.6994 59.454C56.9383 60.0962 57.3524 60.6586 57.8947 61.0775H52.6218ZM143.78 37.8834C143.177 37.9424 142.57 37.8175 142.04 37.5251C141.509 37.2327 141.08 36.7866 140.808 36.2454C140.536 35.7042 140.434 35.0933 140.516 34.4932C140.597 33.893 140.859 33.3316 141.266 32.883C141.673 32.4343 142.206 32.1193 142.795 31.9796C143.385 31.8398 144.003 31.8817 144.568 32.0998C145.133 32.318 145.619 32.7021 145.961 33.2016C146.304 33.7011 146.487 34.2927 146.487 34.8984C146.521 35.6526 146.256 36.3897 145.749 36.949C145.242 37.5082 144.534 37.8441 143.78 37.8834Z" fill="#4B1010"/>
<path d="M72.1279 52.2285C72.0506 52.1192 71.9444 52.0337 71.8212 51.9816C71.5352 51.8865 71.2331 52.1886 71.2017 52.4907C71.2095 52.7987 71.303 53.0985 71.4716 53.3564C71.1906 52.9193 70.816 52.5501 70.375 52.2754C69.934 52.0006 69.4375 51.8272 68.9213 51.7677C68.8353 51.7495 68.7465 51.7493 68.6603 51.767C68.5742 51.7847 68.4926 51.8199 68.4207 51.8704C68.3572 51.9386 68.3151 52.0239 68.2996 52.1157C68.2841 52.2076 68.2958 52.3019 68.3333 52.3872C68.4544 52.6425 68.4728 52.6303 69.6597 53.8172C69.1792 53.4622 68.6107 53.2453 68.0158 53.19C67.6501 53.19 67.2207 53.42 67.2207 53.785C67.2207 54.015 67.4668 54.1592 67.6662 54.278L68.929 55.0724C68.6738 54.9833 68.4049 54.9405 68.1347 54.9459C68.0037 54.9493 67.8757 54.9852 67.7619 55.0502C67.6482 55.1153 67.5524 55.2074 67.4829 55.3185C67.2445 55.7716 67.6738 56.2961 68.1186 56.5346C68.5896 56.7626 69.0895 56.9257 69.6045 57.0191C70.29 57.1495 70.9793 57.2737 71.6747 57.3527L73.2159 55.0524C73.1034 54.0329 72.7285 53.06 72.1279 52.2285Z" fill="white"/>
<path d="M121.15 65.902C120.355 64.3125 119.561 62.7238 118.655 61.1343C117.368 58.9337 115.175 54.1745 112.299 53.9844C111.388 53.9814 110.485 54.1513 109.637 54.4851C108.195 55.0177 106.804 55.6798 105.482 56.4633C104.289 57.0032 103.306 57.9188 102.682 59.0702C101.363 58.9588 100.09 58.8425 98.8616 58.7214C98.7849 56.7623 98.7121 54.7879 98.6316 52.8527C98.5334 53.2678 98.3012 53.639 97.971 53.909C97.6407 54.1789 97.2307 54.3326 96.8044 54.3463C96.5659 54.3517 94.9772 53.5995 95.08 53.3372C94.5569 54.9133 94.263 56.5564 94.2074 58.2161C80.3814 56.5775 73.4853 54.482 73.4853 54.482C72.6817 54.8037 72.0226 55.4067 71.6308 56.1786C71.2391 56.9504 71.1414 57.8384 71.356 58.6769C76.4541 62.2522 86.2363 64.3255 93.8302 65.4557C93.8708 66.4624 94.1292 67.4484 94.5877 68.3456C94.9093 68.9896 95.3825 69.5459 95.9665 69.9668C96.5506 70.3876 97.228 70.6603 97.9407 70.7616C98.6791 70.9265 100.552 71.5537 101.744 71.4295C101.771 72.6141 101.794 73.7933 101.786 74.9565C101.786 75.9533 101.939 76.7047 101.939 77.7053C108.875 79.4611 122.533 77.3219 123.264 70.5546C123.385 69.4374 121.674 66.9348 121.15 65.902Z" fill="#FFE55D"/>
<path d="M47.6653 111.078L16.6794 107.224L5.08691 110.275L35.4617 114.722C35.8121 114.712 43.3278 112.565 47.6653 111.078Z" fill="#FFB43B"/>
<path d="M100.643 53.0231C101.967 54.2591 103.893 54.3818 105.609 54.1732C107.325 53.9646 108.787 52.3698 109.581 50.8762C110.199 49.8719 110.564 48.7321 110.643 47.5554C110.722 46.3788 110.513 45.2005 110.034 44.1227C109.632 42.8992 108.867 41.827 107.841 41.048C103.226 37.9258 98.8161 45.282 98.9426 49.1518C98.9578 49.8771 99.1158 50.5924 99.4076 51.2567C99.6994 51.921 100.119 52.5212 100.643 53.0231Z" fill="white"/>
<path d="M101.981 45.0618C101.995 44.8948 101.954 44.7277 101.862 44.5873C101.771 44.4468 101.635 44.3409 101.476 44.2866C101.236 44.1976 101.017 44.0577 100.836 43.8766C100.655 43.6954 100.514 43.4772 100.425 43.2369C100.386 43.1431 100.311 43.0687 100.216 43.0302C100.122 42.9916 100.017 42.9921 99.9228 43.0314C99.829 43.0708 99.7546 43.1458 99.7161 43.24C99.6775 43.3342 99.678 43.4398 99.7173 43.5337C99.9104 44.0196 100.243 44.4374 100.673 44.7344C100.578 44.8954 100.515 45.0732 100.487 45.2581C100.45 45.3673 100.439 45.4837 100.454 45.598C100.47 45.7123 100.512 45.8214 100.577 45.9167C100.642 46.012 100.728 46.091 100.829 46.1472C100.93 46.2035 101.042 46.2356 101.157 46.241C101.293 46.2262 101.423 46.1826 101.541 46.1132C101.658 46.0437 101.759 45.95 101.837 45.8383C101.915 45.7266 101.968 45.5996 101.993 45.4656C102.018 45.3317 102.014 45.194 101.981 45.0618Z" fill="#4B1010"/>
<path d="M102.812 44.6671H102.804C102.754 44.666 102.704 44.655 102.658 44.6347C102.612 44.6144 102.57 44.5853 102.535 44.5489C102.5 44.5125 102.473 44.4696 102.455 44.4227C102.437 44.3757 102.428 44.3256 102.429 44.2753C102.441 44.0252 102.365 43.7787 102.216 43.5779C102.066 43.3771 101.852 43.2345 101.609 43.1742C101.559 43.1816 101.508 43.179 101.459 43.1666C101.41 43.1542 101.364 43.1323 101.323 43.102C101.283 43.0718 101.249 43.0339 101.223 42.9905C101.197 42.9471 101.18 42.899 101.173 42.849C101.166 42.799 101.169 42.7481 101.182 42.6992C101.194 42.6503 101.216 42.6044 101.247 42.5641C101.277 42.5238 101.315 42.4899 101.359 42.4643C101.402 42.4388 101.45 42.4221 101.5 42.4152C101.735 42.425 101.966 42.4816 102.178 42.5814C102.391 42.6813 102.582 42.8226 102.739 42.9969C102.897 43.1713 103.018 43.3753 103.096 43.597C103.174 43.8187 103.207 44.0537 103.193 44.2883C103.192 44.3888 103.152 44.4848 103.08 44.5556C103.009 44.6265 102.913 44.6665 102.812 44.6671Z" fill="#4B1010"/>
<path d="M103.125 49.6783C103.202 49.6169 103.279 49.5541 103.351 49.4896C103.389 49.4565 103.42 49.4161 103.442 49.371C103.464 49.3258 103.478 49.2767 103.481 49.2264C103.484 49.1762 103.478 49.1257 103.462 49.078C103.445 49.0303 103.42 48.9862 103.387 48.9483C103.354 48.9104 103.313 48.8794 103.268 48.8571C103.223 48.8348 103.174 48.8215 103.124 48.8182C103.073 48.8148 103.023 48.8214 102.975 48.8376C102.928 48.8537 102.883 48.8791 102.846 48.9123C102.272 49.4171 101.6 49.7982 100.872 50.0317C100.795 50.0547 100.752 50.0156 100.701 49.9267C100.463 49.569 100.272 49.1825 100.132 48.7766C100.116 48.7289 100.09 48.685 100.057 48.6473C100.023 48.6096 99.9827 48.5788 99.9374 48.5567C99.8921 48.5347 99.8429 48.5217 99.7927 48.5187C99.7424 48.5156 99.692 48.5225 99.6444 48.5389C99.5967 48.5553 99.5528 48.5809 99.5151 48.6143C99.4774 48.6477 99.4466 48.6882 99.4245 48.7335C99.4025 48.7788 99.3895 48.8279 99.3865 48.8782C99.3834 48.9285 99.3903 48.9789 99.4067 49.0265C99.5646 49.4864 99.7803 49.9244 100.048 50.33C100.145 50.5123 100.302 50.6555 100.493 50.7352C100.683 50.8148 100.896 50.8261 101.094 50.7671C101.255 50.7172 101.134 50.6766 101.34 51.142C101.399 51.3601 101.523 51.5546 101.697 51.6987C101.871 51.8428 102.085 51.9293 102.31 51.9461C102.535 51.963 102.76 51.9094 102.954 51.7928C103.147 51.6762 103.299 51.5023 103.389 51.2953C103.473 51.0237 103.493 50.7364 103.447 50.4558C103.401 50.1753 103.291 49.9091 103.125 49.6783Z" fill="#4B1010"/>
<path d="M104.425 48.6296C104.975 49.487 105.365 50.4371 105.575 51.4336C105.746 52.2862 105.259 53.2998 104.344 53.1503C104.036 53.0491 103.77 52.8478 103.589 52.5783C103.411 53.4875 103.551 54.4302 103.985 55.2488C104.419 56.0673 105.12 56.7121 105.973 57.0753C110.215 58.5168 116.111 55.1032 116.961 51.307C117.1 50.3321 117.1 49.3423 116.961 48.3673C116.62 43.6986 117.064 43.2799 116.548 41.2366C115.924 39.6882 114.784 38.4027 113.322 37.5976C111.092 36.0559 108.506 35.1097 105.808 34.8488C103.688 34.6571 101.398 35.1187 99.8969 36.62C100.575 36.2143 101.381 36.0808 102.153 36.2466C100.411 36.7604 98.9241 37.9066 97.9834 39.4602C97.0427 41.0139 96.7163 42.8629 97.0683 44.6448C97.819 43.6909 100.277 41.8201 104.187 42.2456C102.776 43.8581 103.409 46.728 104.425 48.6296Z" fill="#FFB43B"/>
<path d="M98.3879 51.1637L97.6786 51.3523C97.4764 51.0334 97.1761 50.7888 96.8229 50.6553C96.7015 50.5922 96.5627 50.5704 96.4278 50.5934C96.2928 50.6164 96.1691 50.6828 96.0754 50.7826C95.8852 51.1039 96.1306 51.4343 96.4495 51.5931C96.4089 51.6299 96.3729 51.6697 96.3338 51.7088L94.3755 52.2287C94.686 53.4471 95.6736 54.4653 96.9341 54.2383C98.2407 53.8925 98.6601 52.4518 98.3879 51.1637Z" fill="white"/>
<path d="M126.471 81.4424C126.24 79.8875 125.576 78.4292 124.554 77.2345C124.172 76.9053 123.866 76.4965 123.659 76.0369C123.609 75.708 123.521 75.3861 123.397 75.0777C123.297 74.905 123.146 74.768 122.964 74.6863C122.783 74.6045 122.58 74.5821 122.385 74.6222L122.1 73.9459C122.966 73.0268 123.513 71.8533 123.661 70.5991C123.668 70.5329 123.657 70.4661 123.631 70.4051C121 64.3539 118.507 59.4214 114.932 55.0793C116.11 54.1272 116.954 52.8247 117.343 51.3606C117.66 49.137 117.172 48.6164 117.194 44.1493C117.262 43.1229 117.165 42.0922 116.905 41.0969C116.253 39.4778 115.066 38.1317 113.54 37.2838C109.573 34.5749 103.007 32.9716 99.6253 36.353C99.5798 36.3986 99.5465 36.4549 99.5285 36.5167C99.5105 36.5785 99.5083 36.6439 99.5222 36.7068C99.5361 36.7696 99.5656 36.828 99.608 36.8765C99.6505 36.9249 99.7044 36.9619 99.7649 36.984C98.5539 37.8351 97.618 39.0215 97.0722 40.3973C96.5263 41.7731 96.3944 43.2784 96.6925 44.7282C96.7108 44.8173 96.7601 44.8969 96.8317 44.953C96.9032 45.009 96.9924 45.0378 97.0832 45.0342C97.1741 45.0306 97.2607 44.9949 97.3276 44.9334C97.3945 44.8718 97.4373 44.7885 97.4485 44.6983C98.3994 43.8203 99.5597 43.2009 100.818 42.8995C96.6266 48.3304 98.7321 54.1515 103.313 54.5848C103.55 55.3909 104.008 56.1141 104.637 56.6719C103.73 57.1187 102.965 57.8089 102.427 58.6654C101.285 58.5683 100.176 58.466 99.1024 58.3587C98.9951 56.7646 98.8248 53.3465 98.7857 52.5521C98.8733 52.0647 98.8652 51.565 98.762 51.0807C98.742 50.9896 98.6895 50.909 98.6143 50.8538C98.5391 50.7987 98.4464 50.7728 98.3535 50.7811C98.2606 50.7893 98.1739 50.8312 98.1097 50.8988C98.0454 50.9663 98.008 51.055 98.0044 51.1482C97.7433 50.7344 97.3486 50.4222 96.8857 50.2634C95.889 49.9567 95.2204 50.9113 95.889 51.6381C95.6046 52.0041 95.4138 52.4339 95.3331 52.8902C95.3244 52.9399 95.3256 52.9907 95.3366 53.0399C95.3476 53.0891 95.3682 53.1356 95.3972 53.1769C95.4261 53.2181 95.4629 53.2532 95.5055 53.2802C95.548 53.3072 95.5955 53.3255 95.6451 53.3342C95.6948 53.3429 95.7456 53.3417 95.7948 53.3307C95.844 53.3197 95.8905 53.2991 95.9317 53.2701C95.973 53.2411 96.0081 53.2043 96.0351 53.1618C96.0621 53.1192 96.0804 53.0718 96.0891 53.0221C96.1671 52.5815 96.3858 52.1779 96.7125 51.872C96.7576 51.8297 96.7919 51.777 96.8123 51.7185C96.8327 51.6601 96.8387 51.5975 96.8296 51.5362C96.8206 51.475 96.7968 51.4168 96.7604 51.3667C96.724 51.3166 96.6759 51.2761 96.6204 51.2486C96.1995 51.0385 96.1006 50.6421 96.6519 50.6697C96.859 50.7228 97.0533 50.817 97.2233 50.9468C97.3932 51.0765 97.5353 51.2392 97.641 51.425C97.7943 51.7317 97.5919 52.2799 97.5275 52.6165C97.5181 52.6661 97.5185 52.7171 97.5289 52.7665C97.5392 52.8159 97.5592 52.8628 97.5877 52.9045C97.6162 52.9462 97.6526 52.9818 97.6949 53.0094C97.7372 53.0369 97.7846 53.0559 97.8342 53.0651C97.7371 53.2572 97.6012 53.4271 97.435 53.564C97.2689 53.7009 97.0761 53.8017 96.8689 53.8602C95.8184 54.0511 95.0103 53.1494 94.7503 52.1327C94.7381 52.0837 94.7163 52.0375 94.6863 51.997C94.6562 51.9564 94.6183 51.9222 94.575 51.8963C94.5316 51.8703 94.4835 51.8533 94.4335 51.846C94.3835 51.8387 94.3326 51.8414 94.2836 51.8539C94.2347 51.8663 94.1887 51.8884 94.1483 51.9187C94.1078 51.949 94.0738 51.987 94.0482 52.0305C94.0225 52.074 94.0057 52.1222 93.9987 52.1722C93.9917 52.2223 93.9946 52.2732 94.0074 52.3221C94.0996 52.6846 94.2484 53.0303 94.4482 53.3465C94.3164 54.9681 94.1699 56.4288 94.0028 57.8051C80.5463 56.1903 73.6839 54.1423 73.6019 54.117C73.5474 54.1011 73.4902 54.0969 73.434 54.1048C73.2367 53.3495 72.9011 52.6375 72.4441 52.0047C72.3614 51.8629 72.2395 51.748 72.0931 51.6739C71.9466 51.5999 71.7819 51.5698 71.6187 51.5873C71.4555 51.6048 71.3009 51.6692 71.1735 51.7726C71.046 51.8761 70.9513 52.0142 70.9006 52.1703C70.3507 51.7414 69.6934 51.4719 69.0006 51.3913C68.8633 51.3627 68.7216 51.3625 68.5842 51.3908C68.4468 51.419 68.3166 51.475 68.2017 51.5553C68.0622 51.6755 67.966 51.8379 67.9275 52.0179C67.889 52.1978 67.9104 52.3855 67.9885 52.5521C68.0313 52.6461 68.0826 52.7359 68.1418 52.8205C67.9923 52.7932 67.8387 52.797 67.6907 52.8314C67.5426 52.8659 67.4032 52.9304 67.281 53.0208C67.1589 53.1113 67.0566 53.2259 66.9804 53.3574C66.9043 53.489 66.8559 53.6348 66.8384 53.7858C66.8384 54.2773 67.2984 54.5027 67.612 54.6975C66.6835 55.1905 66.922 56.3276 67.9494 56.8789C68.4495 57.1211 68.98 57.2947 69.5266 57.3949C69.9705 57.48 70.4191 57.5674 70.8707 57.6341C70.8542 58.0182 70.8942 58.4026 70.9896 58.775C71.0123 58.8641 71.0669 58.9419 71.1429 58.9936C76.2663 62.5873 85.8975 64.6675 93.4752 65.8061C93.6447 67.8764 94.6192 69.8776 96.5108 70.7287C98.1087 71.2357 99.7564 71.5699 101.426 71.7254C101.367 73.2707 101.393 74.818 101.502 76.3604C101.541 76.8044 101.579 77.223 101.579 77.7084C101.579 77.7938 101.607 77.8768 101.66 77.9441C101.713 78.0115 101.786 78.0594 101.869 78.0802C103.524 78.4716 105.218 78.6732 106.919 78.6814L107.053 79.6713C106.804 79.8487 106.617 80.1008 106.521 80.3911C106.424 80.6813 106.423 80.9947 106.516 81.286C106.606 81.4691 106.683 81.6585 106.746 81.8527C106.756 82.0537 106.712 82.2537 106.617 82.4315C105.498 85.2685 104.45 88.1937 103.511 91.0912C103.341 91.5236 103.257 91.9852 103.265 92.4499C103.347 93.0978 103.633 93.703 104.081 94.1781C104.508 94.6945 104.984 95.1689 105.501 95.5951C102.8 104.803 99.4073 113.794 95.3507 122.491C95.359 122.399 95.3334 122.306 95.2787 122.231C95.224 122.156 95.1438 122.103 95.0532 122.083C94.9625 122.062 94.8675 122.076 94.7859 122.12C94.7042 122.164 94.6415 122.237 94.6093 122.324C94.1116 123.719 93.4345 125.044 92.595 126.265C92.2883 126.704 91.9586 126.707 91.2003 126.286C90.4795 125.859 89.7542 125.519 89.3325 125.931C89.2073 126.051 89.111 126.199 89.0508 126.362C88.9905 126.525 88.9678 126.699 88.9844 126.872C89.1301 128.982 94.2328 132.715 94.4107 132.841C94.8241 133.235 95.3732 133.455 95.9442 133.455C96.0692 133.46 96.1942 133.445 96.3145 133.411C96.5918 133.294 96.8429 133.122 97.0529 132.907C97.263 132.691 97.4277 132.436 97.5375 132.155C98.5979 130.11 99.4298 127.922 100.349 125.622C100.375 125.557 100.383 125.487 100.371 125.418C100.36 125.35 100.331 125.286 100.286 125.233C100.241 125.179 100.183 125.14 100.117 125.117C100.051 125.095 99.9808 125.09 99.9129 125.105C104.803 115.827 108.536 108.858 112.189 98.0165C113.035 98.1123 113.889 97.9121 114.604 97.4499C115.317 96.6015 115.892 95.6455 116.307 94.6175C114.613 104.476 112.201 114.199 109.091 123.706C109.048 123.658 108.994 123.622 108.933 123.6C108.872 123.579 108.807 123.573 108.744 123.583C108.68 123.594 108.62 123.62 108.569 123.659C108.518 123.699 108.478 123.751 108.453 123.81C108.245 124.292 108.053 125.357 107.868 125.836C107.307 127.062 106.916 127.64 106.808 127.864C106.083 127.74 104.487 126.944 103.868 127.506C103.771 127.596 103.702 127.712 103.667 127.839C103.632 127.967 103.633 128.102 103.669 128.229C103.861 129.225 105.012 130.188 105.852 130.893C107.022 131.966 108.294 132.923 109.648 133.751C109.93 133.983 110.267 134.14 110.626 134.206C110.985 134.272 111.355 134.246 111.702 134.129C111.94 133.982 112.146 133.787 112.307 133.557C112.467 133.327 112.578 133.066 112.632 132.791C113.38 130.553 113.995 128.272 114.473 125.961C114.489 125.882 114.479 125.799 114.446 125.726C114.412 125.652 114.356 125.591 114.285 125.551C114.214 125.511 114.133 125.495 114.053 125.504C113.972 125.514 113.897 125.548 113.837 125.603C118.03 115.493 121.373 105.05 123.831 94.3844C124.584 94.1259 125.281 93.7265 125.885 93.2074C126.138 92.9967 126.335 92.726 126.458 92.42C126.606 91.9699 126.471 92.2605 126.676 85.9302C126.735 84.4312 126.666 82.9299 126.471 81.4424ZM122.188 76.5797C121.99 77.3013 121.619 77.964 121.108 78.5112C118.215 81.6027 114.567 82.6393 109.921 81.6732C109.253 81.593 108.633 81.2839 108.167 80.7984C107.875 80.2808 107.886 80.06 107.685 78.6837C112.177 78.6361 118.231 77.5075 121.515 74.531L121.899 75.4373C122.08 75.7913 122.179 76.1819 122.188 76.5797ZM103.214 52.5038C103.132 52.928 103.112 53.3621 103.157 53.7919C99.0618 53.1877 97.605 47.5483 102.017 42.6572C102.504 42.5918 102.995 42.5662 103.486 42.5805C103.07 43.4629 102.908 44.4437 103.019 45.4129C103.162 46.6098 103.529 47.7692 104.101 48.8303C104.626 49.646 104.998 50.5501 105.2 51.4986C105.261 51.8255 105.207 52.1632 105.047 52.4547C104.991 52.5597 104.906 52.6465 104.803 52.7045C104.699 52.7626 104.581 52.7895 104.462 52.7821C104.235 52.7072 104.04 52.5592 103.906 52.3612C103.863 52.2992 103.803 52.2511 103.733 52.223C103.663 52.195 103.587 52.1881 103.513 52.2033C103.439 52.2185 103.372 52.2551 103.318 52.3086C103.265 52.362 103.229 52.4299 103.214 52.5038ZM103.9 53.3641C105.107 54.035 106.234 52.7507 105.952 51.3506C105.734 50.3194 105.332 49.3361 104.763 48.4485C104.246 47.4814 103.913 46.4266 103.781 45.3378C103.73 44.7991 103.764 44.2559 103.881 43.7276C103.965 43.2727 104.17 42.8489 104.475 42.5008C104.521 42.448 104.552 42.3836 104.564 42.3146C104.576 42.2456 104.569 42.1746 104.544 42.1093C104.518 42.044 104.475 41.987 104.42 41.9443C104.364 41.9017 104.298 41.8751 104.228 41.8675C101.771 41.5982 99.3039 42.2791 97.3327 43.7705C97.204 42.1929 97.6242 40.6192 98.5224 39.3157C99.4205 38.0122 100.741 37.0591 102.261 36.6175C102.343 36.5934 102.414 36.5427 102.464 36.4736C102.514 36.4044 102.539 36.3208 102.536 36.2357C102.532 36.1507 102.501 36.0691 102.446 36.0038C102.392 35.9386 102.317 35.8934 102.234 35.8753C102.082 35.8426 101.928 35.8201 101.774 35.8078C105.178 34.3058 110.036 35.8209 113.137 37.9363C114.508 38.6894 115.58 39.8881 116.177 41.3338C116.407 42.2438 116.492 43.1845 116.428 44.1209C116.402 48.6655 116.884 49.1263 116.587 51.2218C116.022 53.7521 113.094 55.8836 110.501 56.6811C109.794 56.8752 109.066 56.9854 108.333 57.0092C105.477 57.1357 103.909 55.3929 103.9 53.3641ZM105.353 57.1879C105.618 57.3513 105.906 57.4726 106.208 57.5475C105.389 57.753 104.598 57.9592 103.821 58.1701C104.265 57.7486 104.785 57.4153 105.353 57.1879ZM95.146 54.1492C95.5724 54.5043 96.1184 54.6828 96.6722 54.648C97.226 54.6132 97.7455 54.3678 98.124 53.9622C98.1647 55.4006 98.2329 56.849 98.3288 58.2843C97.0938 58.1591 95.9043 58.0295 94.7603 57.8956C94.9029 56.7225 95.0302 55.4895 95.146 54.1492ZM70.975 56.8743C70.5387 56.8099 70.1032 56.7209 69.6669 56.6442C69.1923 56.558 68.7315 56.4084 68.2967 56.1995C67.99 56.0332 67.7155 55.6981 67.8053 55.5248C67.8406 55.4678 67.8895 55.4203 67.9475 55.3867C68.0055 55.353 68.071 55.334 68.138 55.3316C68.3635 55.3247 68.5883 55.3606 68.8005 55.4374C68.8907 55.4728 68.991 55.4728 69.0812 55.4372C69.1714 55.4017 69.2448 55.3333 69.2866 55.2458C69.3283 55.1584 69.3354 55.0583 69.3064 54.9658C69.2774 54.8733 69.2145 54.7952 69.1302 54.7473L67.8482 53.9415C67.3659 53.6501 67.9003 53.5711 67.977 53.5704C68.5026 53.6193 69.0047 53.811 69.4292 54.1247C69.507 54.1829 69.604 54.2094 69.7005 54.1989C69.7971 54.1884 69.8861 54.1416 69.9495 54.068C70.0129 53.9943 70.0459 53.8994 70.042 53.8023C70.0381 53.7053 69.9975 53.6133 69.9284 53.545L68.9201 52.5391C68.6709 52.3267 68.5429 52.079 68.8749 52.1473C69.3353 52.1998 69.7783 52.3544 70.1715 52.5996C70.5648 52.8448 70.8985 53.1746 71.1483 53.565C71.2042 53.649 71.2909 53.7075 71.3897 53.728C71.4885 53.7485 71.5914 53.7291 71.676 53.6743C71.7606 53.6194 71.8203 53.5333 71.8419 53.4348C71.8635 53.3363 71.8454 53.2332 71.7916 53.1479C71.6679 52.9635 71.5949 52.7498 71.58 52.5283C71.5892 52.4409 71.6735 52.352 71.672 52.3344C71.7306 52.3582 71.7812 52.3984 71.8176 52.4501C72.2491 53.0478 72.5569 53.7255 72.7232 54.4437C71.846 54.9952 71.2188 55.8673 70.975 56.8743ZM101.42 70.9548C99.8598 70.8001 98.3187 70.4901 96.8198 70.0294C96.0712 69.6272 95.4404 69.0368 94.9898 68.3163C94.5392 67.5958 94.2844 66.7703 94.2504 65.9211C97.0989 66.3337 99.6123 66.6112 101.42 66.7853L101.42 70.9548ZM102.333 77.4055C102.308 76.5253 102.187 75.836 102.187 74.9596V66.8573C103.393 66.967 104.158 67.0207 104.32 67.0314C104.37 67.0348 104.421 67.0282 104.469 67.012C104.517 66.9959 104.561 66.9705 104.599 66.9373C104.637 66.9041 104.668 66.8637 104.69 66.8185C104.713 66.7732 104.726 66.7241 104.729 66.6737C104.733 66.6234 104.726 66.5728 104.71 66.525C104.694 66.4772 104.668 66.4331 104.635 66.3951C104.602 66.3571 104.561 66.326 104.516 66.3037C104.471 66.2813 104.422 66.268 104.372 66.2647C104.135 66.2485 80.6713 64.6092 71.6973 58.4438C71.5504 57.7329 71.65 56.9932 71.9796 56.3464C72.3092 55.6996 72.8492 55.1843 73.5106 54.8853C74.808 55.2572 85.3722 58.1501 104.889 59.6284C104.991 59.6362 105.091 59.6032 105.169 59.5368C105.246 59.4703 105.294 59.3759 105.302 59.2742C105.309 59.1725 105.276 59.0719 105.21 58.9946C105.143 58.9172 105.049 58.8694 104.947 58.8617L104.345 58.8149C105.533 58.4967 107.182 58.0888 108.552 57.7614C110.659 57.6276 112.676 56.8579 114.336 55.5539C117.837 59.8063 120.296 64.6575 122.886 70.6083C122.064 76.9876 108.928 78.929 102.333 77.4055ZM98.7972 125.571C97.4493 125.901 95.8614 125.461 95.3952 124.196C99.715 115.125 103.313 105.727 106.156 96.0904C107.701 97.1747 109.508 97.8267 111.39 97.9789C107.622 109.105 103.659 116.316 98.7972 125.571ZM112.721 126.273C112.128 126.482 111.482 126.493 110.882 126.303C110.282 126.114 109.76 125.735 109.394 125.223C112.819 114.981 115.434 104.485 117.215 93.8331C118.572 94.6942 121.574 94.8782 122.987 94.5999C120.47 105.43 117.036 116.026 112.721 126.273ZM125.909 85.9003C125.7 92.3602 125.827 91.881 125.74 92.1478C125.664 92.3302 125.544 92.4911 125.391 92.6163C124.304 93.5254 122.918 93.9991 121.502 93.9458C120.288 93.919 117.944 93.7764 117.183 92.7957C117.883 91.5114 118.998 90.221 120.452 90.0109C120.552 89.9964 120.643 89.9426 120.704 89.8612C120.765 89.7798 120.791 89.6775 120.777 89.5769C120.762 89.4762 120.709 89.3854 120.627 89.3245C120.546 89.2635 120.444 89.2373 120.343 89.2518C118.911 89.4588 117.575 90.5392 116.586 92.2958C115.91 93.4896 114.88 96.164 114.132 96.8411C113.778 97.0871 113.358 97.2188 112.927 97.2183C111.366 97.3258 109.801 97.0596 108.363 96.4419C106.926 95.8241 105.656 94.8725 104.659 93.666C104.324 93.3177 104.105 92.8741 104.033 92.3962C104.033 92.0365 104.103 91.6802 104.237 91.3465C107.311 81.868 107.986 82.4293 107.236 81.01C107.2 80.8801 107.205 80.742 107.251 80.6151C107.33 80.8532 107.441 81.0796 107.58 81.2883C108.165 81.9173 108.952 82.3205 109.804 82.427C114.368 83.377 118.464 82.4645 121.674 79.0326C122.284 78.38 122.722 77.5862 122.949 76.7223C122.966 76.5825 122.966 76.4412 122.949 76.3014C123.192 76.8654 123.559 77.3673 124.023 77.7697C124.929 78.8469 125.518 80.1552 125.724 81.5483C125.908 82.9912 125.969 84.4471 125.907 85.9003H125.909Z" fill="#4B1010"/>
<path d="M80.9389 114.933C60.0511 112.335 92.3672 116.302 15.9477 106.844C15.8334 106.83 16.6247 106.634 4.21105 109.905C4.1257 109.928 4.05077 109.979 3.99891 110.05C3.94705 110.122 3.92143 110.209 3.92639 110.297C3.93134 110.385 3.96657 110.469 4.02612 110.534C4.08566 110.599 4.16588 110.642 4.25322 110.655C14.2976 112.121 69.7129 120.272 69.9038 120.272C70.0219 120.272 69.2758 120.562 81.0393 115.666C81.1171 115.634 81.1819 115.576 81.2238 115.503C81.2656 115.43 81.282 115.345 81.2706 115.261C81.2591 115.177 81.2204 115.1 81.1605 115.04C81.1005 114.981 81.0226 114.943 80.9389 114.933ZM51.9044 116.864L36.9719 114.676L47.8038 111.582L62.1727 113.37C51.3638 117.007 52.0002 116.77 51.9044 116.864ZM15.9262 107.615L29.5414 109.309L19.3689 112.096L6.2253 110.169L15.9262 107.615ZM31.3379 109.613C31.6545 109.528 30.0528 109.372 45.8632 111.34C35.4768 114.306 35.2391 114.363 35.1601 114.407L21.2628 112.369L31.3379 109.613ZM69.8563 119.495L53.5015 117.098L63.9331 113.588L79.4122 115.515L69.8563 119.495Z" fill="#4B1010"/>
</svg>
