<svg width="156" height="156" viewBox="0 0 156 156" fill="none" xmlns="http://www.w3.org/2000/svg">
<path d="M85.2783 7.03025C80.5613 2.39821 71.938 6.86813 73.868 13.4147C75.6745 19.5908 82.252 18.8188 84.4986 17.1667C88.4513 14.2948 87.4168 9.12239 85.2783 7.03025ZM85.3401 13.4765C84.1512 18.0314 75.9139 17.6222 75.2577 12.8821C74.0919 4.45174 87.7101 4.35138 85.3401 13.4765Z" fill="#3D9CFB"/>
<path d="M59.6556 29.7038C58.0421 26.0985 52.4141 28.9318 57.2315 34.5134C65.0905 35.0461 63.3226 28.5303 59.6556 29.7038Z" fill="#3D9CFB"/>
<path d="M57.254 23.3427C45.9981 25.8363 49.8272 41.2841 60.7126 39.1688C71.3354 37.0999 67.4985 21.073 57.254 23.3427ZM64.8119 33.7648C63.2679 39.524 53.17 38.7751 52.2745 32.6994C50.6919 21.984 67.7687 22.563 64.8042 33.7648H64.8119Z" fill="#3D9CFB"/>
<path d="M80.8467 10.5198C79.048 7.43182 75.3501 9.85592 79.102 14.295C84.8612 14.1097 84.1201 8.82915 80.8467 10.5198Z" fill="#3D9CFB"/>
<path d="M120.412 33.8267C118.933 32.363 116.997 31.4498 114.927 31.2391C112.857 31.0285 110.777 31.533 109.033 32.6687C107.516 33.614 106.33 35.0071 105.638 36.6555C104.947 38.3039 104.784 40.1263 105.173 41.871C106.717 49.0739 114.792 49.869 119.247 47.1825C123.029 44.8896 124.782 38.2194 120.412 33.8267ZM120.335 42.3728C118.451 48.8654 107.674 47.2751 106.972 41.4773C105.644 30.4685 123.408 30.3527 120.335 42.3728Z" fill="#3D9CFB"/>
<path d="M113.75 37.9725C110.261 34.9848 106.03 41.5778 114.36 44.1485C121.601 39.9257 117.471 33.6415 113.75 37.9725Z" fill="#3D9CFB"/>
<path d="M109.187 100.767C108.587 100.432 107.914 100.248 107.227 100.23C106.54 100.213 105.859 100.363 105.242 100.667C107.62 101.694 109.874 102.836 111.102 108.294C119.694 101.964 112.908 95.6335 109.187 100.767Z" fill="#3D9CFB"/>
<path d="M104.733 86.8402C99.4215 86.8402 100.41 94.2052 108.747 91.5881C112.607 84.887 105.366 81.6137 104.733 86.8402Z" fill="#3D9CFB"/>
<path d="M112.291 93.5415C110.818 93.2344 109.296 93.2508 107.829 93.5893C106.363 93.9279 104.988 94.5806 103.799 95.5024C102.485 93.9221 100.778 92.7159 98.8502 92.0052C95.3993 79.1358 116.352 78.109 114.12 91.1714C114.065 91.413 114.108 91.6667 114.24 91.8766C114.372 92.0865 114.581 92.2355 114.823 92.2908C115.065 92.3461 115.318 92.3031 115.528 92.1714C115.738 92.0396 115.887 91.8299 115.942 91.5883C118.768 76.2794 94.2413 76.0864 96.8121 91.5265C95.3433 91.3589 93.8557 91.5266 92.4612 92.0171C91.0666 92.5076 89.8015 93.308 88.7611 94.3581C87.7206 95.4082 86.9319 96.6807 86.4543 98.0797C85.9768 99.4787 85.8228 100.968 86.004 102.435C86.2279 103.979 87.9031 103.593 87.8645 102.234C87.602 94.0047 97.6381 90.0983 102.44 96.753C101.807 97.8029 102.625 99.4319 103.853 98.1349C106.076 95.8189 108.948 94.7072 111.897 95.3634C117.772 96.7067 120.335 105.477 114.151 109.491C113.31 109.916 113.765 111.614 114.607 111.236C123.693 107.121 119.787 95.0932 112.291 93.5415Z" fill="#3D9CFB"/>
<path d="M146.19 52.4628C146.12 48.9193 136.926 48.3557 136.964 52.5477C136.964 55.9832 137.157 58.855 136.686 61.2869C133.598 59.6348 128.696 59.5112 125.762 61.4644C125.353 59.2642 125.353 55.2884 125.284 52.2852C124.99 48.7572 116.413 49.4751 116.367 53.1036C116.13 55.1532 116.037 57.217 116.089 59.2796C108.153 48.1782 95.4765 46.6728 80.6231 54.0068C78.3534 50.9806 73.5978 50.3552 69.9462 51.6908C65.1135 46.418 56.1582 46.2868 51.0784 51.3048C44.6553 46.2945 33.5307 51.3048 32.4112 59.2796C25.2316 61.0167 23.0391 71.1994 29.4622 75.623C29.1823 76.6671 28.9963 77.7342 28.9063 78.8114C21.4333 73.0136 13.4662 63.4408 14.022 79.3673C7.84598 81.8145 8.75695 89.6658 12.5629 92.2752C9.25103 105.083 19.9047 100.119 25.5713 95.7879C23.8728 98.2428 23.1472 101.894 24.2048 104.519C16.3149 108.557 22.1899 115.999 28.0262 113.011C26.8219 119.041 25.826 129.764 24.807 136.465C18.3144 139.808 17.7817 142.641 18.106 144.069C18.5383 145.984 20.283 147.095 23.6721 147.304C31.5312 147.798 43.451 146.825 47.1025 147.373C52.5529 147.883 63.5077 147.945 71.359 147.945C77.4656 149.805 97.1749 153.758 104.957 149.242C111.133 149.543 125.029 150.438 126.395 147.451C128.41 143.93 123.91 140.889 121.763 139.584C123.123 127.429 123.382 115.176 122.535 102.975C134.432 97.7024 144.329 85.5896 142.052 71.6703C146.151 66.8299 146.282 57.8669 146.19 52.4628ZM141.403 51.6908C142.824 51.5441 144.375 52.154 144.383 53.2348C144.391 54.3156 144.422 55.0259 144.383 56.8169C141.982 56.8169 140.793 56.678 138.894 56.5853C138.894 55.5277 138.84 54.3774 138.84 53.2039C138.848 51.6136 140.685 51.7371 141.403 51.6908ZM138.848 58.4536C140.724 58.5462 141.936 58.6543 144.252 58.6852C143.789 65.6333 141.65 73.114 134.671 72.8515C134.756 71.5082 134.602 69.2462 133.351 67.764C137.667 66.6214 138.663 63.0625 138.863 58.4227L138.848 58.4536ZM136.138 63.186C135.065 66.8839 127.577 67.4629 126.287 63.4716C128.518 61.4258 133.536 61.5416 136.154 63.1551L136.138 63.186ZM126.874 67.0846C125.33 68.1346 124.604 69.9797 124.164 71.4619C119.362 68.675 118.127 63.5566 117.988 59.1793C119.875 59.2311 121.764 59.1485 123.639 58.9322C123.809 61.9431 124.365 65.4634 126.874 67.0537V67.0846ZM118.243 53.3043C118.675 51.9764 120.389 51.8915 121.401 51.8838C123.817 51.8838 123.578 54.5858 123.531 57.0331C121.684 57.2502 119.823 57.3251 117.965 57.257C117.988 55.7207 118.119 54.3465 118.243 53.3043ZM80.708 56.0063C96.1018 48.1473 109.141 49.9769 116.606 63.5025C117.236 66.8585 119.056 69.8742 121.732 71.9946C120.35 74.6414 118.436 76.975 116.112 78.85C115.989 73.6776 113.41 68.1732 110.307 63.8654C112.816 62.5452 111.851 60.0053 110.191 61.449C109.028 62.4134 107.593 62.9912 106.086 63.1019C104.579 63.2126 103.075 62.8507 101.784 62.0666C102.803 59.9899 101.012 59.3414 100.549 60.3296C98.2326 65.5869 91.0684 65.9961 86.2819 63.2709C86.0772 63.1286 85.8243 63.0735 85.5789 63.1176C85.3335 63.1618 85.1157 63.3016 84.9734 63.5064C84.8311 63.7111 84.7759 63.964 84.8201 64.2094C84.8642 64.4548 85.0041 64.6726 85.2088 64.8149C85.7201 65.1639 86.2691 65.4539 86.8455 65.6796C86.0735 70.1032 78.5696 70.4737 75.1882 69.7789C74.2386 69.5859 73.4512 70.2653 74.0224 71.1685C75.3966 73.3456 74.4548 76.5726 72.2931 79.1511C70.6796 81.0425 78.145 83.5284 76.6318 90.075C75.7595 95.6103 69.0044 98.1734 65.2679 94.0586C62.2956 91.1481 62.9519 85.3349 64.9128 79.1357C61.485 66.6832 69.1279 61.4721 80.6926 56.0063H80.708ZM50.5303 99.7019C56.0038 96.7529 60.4892 95.3015 63.9014 95.3555C64.2148 95.6898 64.5556 95.9971 64.9205 96.2742C65.2778 100.955 66.1424 105.583 67.499 110.078C61.956 113.868 57.5324 116.115 53.4407 117.026C54.9384 112.162 53.9116 103.716 50.5148 99.7019H50.5303ZM28.5203 101.663C27.5128 101.481 26.5324 101.172 25.6021 100.744C25.7202 99.6649 26.0396 98.6175 26.544 97.6561C27.5984 97.9748 28.6301 98.3643 29.632 98.8218C31.3382 99.5939 31.6161 97.8954 30.7128 97.3319C29.7459 96.8069 28.7264 96.3851 27.6711 96.0735C33.7391 92.3447 44.277 97.6175 48.415 100.204C52.136 103.384 53.294 113.197 51.2791 117.327C42.208 117.883 27.8101 111.429 25.6716 102.767C26.4766 103.112 27.3223 103.354 28.1884 103.485C29.771 103.639 30.0566 101.871 28.5049 101.663H28.5203ZM30.7283 79.6297C30.9367 73.9323 34.4802 67.9956 39.0968 65.5792C41.5055 68.1963 45.6357 69.0378 48.3069 66.1891C48.8607 66.9787 49.5701 67.6466 50.3916 68.1519C51.2131 68.6571 52.1292 68.989 53.0837 69.1271C54.0382 69.2652 55.0108 69.2066 55.9418 68.955C56.8728 68.7033 57.7425 68.2638 58.4974 67.6636C59.362 69.254 60.5355 70.659 62.3574 71.0836C62.0103 73.8577 62.2309 76.6734 63.0059 79.3595C60.3193 86.5238 61.1994 90.9397 62.5813 93.5182C58.9065 93.7806 54.4443 95.3864 49.0017 98.3895C46.0083 96.4888 42.7588 95.0252 39.3516 94.0431C40.3165 93.6969 41.1568 93.0717 41.7657 92.247C42.3746 91.4222 42.7247 90.4352 42.7716 89.4111C43.6054 81.884 36.7731 82.077 30.7128 79.6297H30.7283ZM33.3994 60.9549C33.5937 60.9257 33.7736 60.835 33.9125 60.696C34.0515 60.5571 34.1422 60.3772 34.1714 60.1829C34.9434 53.0032 45.049 48.348 50.5534 53.2811C50.7374 53.4391 50.9755 53.5194 51.2175 53.505C51.4596 53.4905 51.6865 53.3826 51.8504 53.2039C56.2817 48.2168 64.7584 48.2862 68.9967 53.4278C69.1281 53.5797 69.3046 53.6855 69.5004 53.73C69.6962 53.7744 69.9011 53.7551 70.0852 53.6749C72.903 52.3547 76.9252 52.6172 78.8706 54.7788C70.9035 58.6389 64.6194 62.661 62.7589 69.254C61.5391 68.9606 60.7285 67.8489 59.6168 65.7413C58.5977 63.819 56.6137 67.6713 53.2323 67.2853C49.8509 66.8993 49.9976 63.8731 48.6002 63.626C47.2029 63.379 45.6743 66.5983 43.4973 66.0579C39.4365 65.0465 39.1277 60.098 37.437 60.5071C35.7463 60.9163 37.3212 63.0316 37.8771 64.097C34.2383 66.2911 31.4699 69.6758 30.0412 73.6776C29.0078 72.7789 28.2467 71.6089 27.844 70.3001C27.4412 68.9912 27.413 67.5956 27.7625 66.2715C28.112 64.9475 28.8253 63.7477 29.8215 62.808C30.8178 61.8684 32.0572 61.2264 33.3994 60.9549ZM27.6711 80.2551C32.8281 83.2273 42.154 82.8567 40.9188 89.2412C39.8843 94.6453 31.2918 91.8043 26.2506 93.5799C26.3742 90.214 27.0844 84.3004 27.6711 80.2551ZM12.9026 89.8048C10.9031 87.3421 10.4013 83.7754 13.8445 81.5752C13.6206 84.339 13.25 87.2031 12.9026 89.8048ZM24.4133 94.213C7.18205 106.079 16.284 90.8084 15.8363 79.954C15.1106 67.6019 19.6114 73.9555 25.9418 79.182C25.4246 82.6329 24.4055 90.3375 24.4133 94.213ZM24.4827 111.714C22.1281 111.143 21.1245 107.978 24.9459 106.272C25.8272 107.853 26.9706 109.273 28.3273 110.471C27.825 110.96 27.2168 111.326 26.5501 111.542C25.8834 111.757 25.176 111.816 24.4827 111.714ZM23.6335 145.374C17.388 144.648 20.6613 139.406 25.633 138.202C28.7905 137.43 38.7957 141.329 43.8447 143.567C43.8065 144.238 43.9562 144.907 44.277 145.497C38.5719 145.567 28.9449 145.667 23.6335 145.374ZM70.5716 146.03C66.9123 145.173 33.6851 148.964 50.3064 139.476C54.9925 139.553 63.7625 141.792 70.641 143.946C70.5947 144.648 70.5793 145.343 70.5716 146.03ZM70.7337 142.016C64.0249 139.939 55.6564 137.824 50.785 137.623C49.3954 127.17 49.5035 123.943 48.469 124.066C47.4345 124.19 46.925 125.61 49.0017 138.086C46.7397 139.422 45.2961 140.587 44.4623 141.776C39.4751 139.607 32.2491 136.751 26.7061 136.303C27.7329 129.501 28.8369 117.404 30.1493 111.961C41.7294 120.654 55.2086 122.098 68.1089 111.961C69.3215 115.563 71.0959 118.95 73.3662 121.998C72.4553 128.459 71.2123 135.23 70.7337 142.016ZM93.7318 103.562C91.8481 98.8836 96.2485 97.6793 99.1358 101.948C100.047 103.307 103.768 99.4472 106.856 102.813C107.551 103.585 102.934 103.902 103.227 105.345C103.521 106.789 107.265 105.075 108.261 104.488C108.761 105.313 109.133 106.208 109.365 107.144C107.821 107.847 104.594 108.688 105.057 110.085C105.466 111.344 108.315 109.553 109.689 109.082C111.179 117.389 91.4003 125.58 84.4754 125.58C79.9823 125.58 76.3771 123.503 73.5669 119.025C72.8644 113.891 81.9818 109.761 88.5207 106.943C90.4508 106.117 94.3108 104.959 93.7318 103.562ZM75.0106 123.758C82.4605 132.381 100.603 124.175 108.979 116.285C113.139 116.156 117.249 115.335 121.138 113.853C121.257 122.31 120.852 130.767 119.926 139.175C113.945 139.68 108 140.546 102.123 141.769C101.892 139.391 104.355 131.447 103.884 126.969C103.737 125.603 102.077 125.093 102.108 127.494C102.185 133.524 100.441 137.584 100.255 141.823C93.6469 139.314 80.9551 142.757 72.6097 142.664C72.9879 136.141 74.2386 129.223 75.0106 123.758ZM72.4475 146.293C72.4475 145.714 72.4475 145.127 72.5016 144.54C81.9741 145.25 100.055 138.325 103.668 147.875C95.5228 151.28 80.6308 148.616 72.4244 146.293H72.4475ZM124.774 146.478C124.442 147.049 121.841 148.269 104.934 147.319C104.372 145.955 103.601 144.686 102.648 143.56C108.549 142.36 114.513 141.504 120.513 140.997C124.149 143.181 125.577 145.026 124.751 146.478H124.774ZM121.161 101.47C120.15 101.979 120.922 103.299 121.076 111.861C118.598 113.166 114.244 114.069 110.453 114.355C113.541 108.897 110.199 97.0926 100.271 100.32C96.3566 95.1008 90.0648 96.8764 91.7323 103.408C85.0621 106.604 74.1846 110.356 72.0307 116.277C69.0584 110.325 67.6997 104.519 66.92 97.3782C68.9031 98.1404 71.1014 98.122 73.0715 97.3268C75.0416 96.5316 76.6367 95.0188 77.5351 93.0935C79.1872 94.4832 84.1357 95.8033 87.7178 95.5717C88.2498 94.7618 88.9247 94.0554 89.7096 93.4873C86.9613 94.2593 81.4723 94.0894 78.2608 91.2716C79.0328 88.1836 79.2412 84.3853 74.3081 79.6915C76.2767 77.3214 77.0564 74.4573 76.4697 72.0641C80.8161 72.7434 87.6715 71.0682 88.6674 66.2354C93.8244 67.6019 97.9315 66.6909 100.703 63.5952C101.868 64.3312 103.176 64.8104 104.54 65.0008C105.905 65.1912 107.294 65.0883 108.616 64.6991C112.476 69.9256 115.564 77.0512 113.734 82.795C114.285 83.3422 114.753 83.9663 115.124 84.6478C115.51 83.5268 115.799 82.3749 115.989 81.2046C116.909 80.6144 117.772 79.9399 118.567 79.1897C120.111 85.1342 125.098 93.4641 129.097 96.7606C126.573 99.092 124.419 99.8255 121.138 101.47H121.161ZM130.572 95.6026C126.573 92.6072 121.138 83.3431 120.104 77.638C121.352 76.2557 122.423 74.723 123.292 73.0754C123.994 73.5309 125.554 74.2875 125.67 73.0214C126.303 66.0733 133.876 66.6677 132.78 73.5386C132.433 75.7002 138.856 74.8279 140.315 73.1372C141.311 81.9921 136.933 90.0132 130.549 95.6026H130.572Z" fill="#001434"/>
<path d="M106.663 66.0966C100.309 63.2402 93.284 71.8712 99.1976 76.6499C106.169 81.1276 115.85 71.4389 106.663 66.0966ZM100.34 75.1677C98.2789 73.6237 98.3638 69.7096 100.95 68.374C101.844 70.9621 103.213 73.3605 104.988 75.4456C103.096 76.1172 101.483 76.04 100.356 75.1677H100.34Z" fill="#001434"/>
<path d="M93.3224 72.6044C91.8247 72.6585 89.6863 74.0172 90.7748 75.2678C91.8633 76.5185 93.0445 73.0136 95.1675 75.7465C95.3058 75.9493 95.5167 76.0912 95.7567 76.1429C95.9966 76.1946 96.2472 76.1522 96.4568 76.0244C97.553 75.4222 96.2329 72.4886 93.3224 72.6044Z" fill="#001434"/>
<path d="M43.5509 78.7958C43.9677 79.6219 45.1798 79.066 45.2338 78.5565C45.5581 76.8426 46.9554 77.0125 47.9822 77.9929C48.6384 78.626 50.0743 77.6224 49.3332 76.6342C48.9197 76.1163 48.3647 75.7297 47.7356 75.5214C47.1066 75.3131 46.4305 75.292 45.7897 75.4608C43.5663 76.0089 43.1803 78.0779 43.5509 78.7958Z" fill="#001434"/>
<path d="M90.6587 82.8488C88.5202 87.4808 94.2022 88.8009 95.5301 83.7752C96.2866 80.9265 91.4616 81.104 90.6587 82.8488Z" fill="#001434"/>
<path d="M43.5202 72.0953C45.5428 70.8369 40.3164 66.421 39.3436 68.3356C38.919 69.8796 41.8835 70.3892 42.2772 71.663C42.3257 71.7771 42.3975 71.8798 42.488 71.9645C42.5785 72.0492 42.6858 72.114 42.8029 72.1547C42.92 72.1954 43.0443 72.2112 43.1678 72.201C43.2914 72.1907 43.4114 72.1547 43.5202 72.0953Z" fill="#001434"/>
<path d="M76.9169 78.4715C76.0522 88.083 91.3689 85.9368 90.041 77.2518C88.2577 70.0644 77.6271 71.7628 76.9169 78.4715ZM80.6689 75.5688C81.6916 78.1291 83.3655 80.3778 85.5248 82.0922C79.3796 85.7902 76.7007 77.9929 80.6689 75.5688Z" fill="#001434"/>
<path d="M35.2211 71.6316C34.094 72.0716 34.287 73.3377 35.5068 73.3918C37.3505 73.3691 39.1415 74.0072 40.5557 75.1905C41.5979 76.0629 42.6633 74.4185 41.8835 73.6465C40.3086 72.1797 36.8886 70.9908 35.2211 71.6316Z" fill="#001434"/>
<path d="M44.8251 86.3613C45.0251 88.1712 45.4718 89.9453 46.1529 91.6341C47.033 94.1972 51.943 93.6027 52.9157 90.5842C54.9384 84.2228 45.1416 81.8373 44.8251 86.3613Z" fill="#001434"/>
<path d="M53.7572 74.1177C54.838 74.3493 56.1967 73.0292 58.1962 73.9401C59.3002 74.4419 59.9101 72.8979 58.9065 72.2108C57.54 71.2613 55.1005 71.6009 53.5719 72.3421C52.4448 72.8825 52.8925 73.9247 53.7572 74.1177Z" fill="#001434"/>
<path d="M53.5175 79.4834C55.6405 79.3445 57.3775 79.4371 58.9987 81.205C59.7708 82.116 61.0137 80.9888 60.3884 79.9543C58.8443 77.4453 55.9416 77.2678 53.8803 77.4839C52.043 77.6383 52.622 79.4834 53.5175 79.4834Z" fill="#001434"/>
<path d="M134.2 18.6182C120.219 21.4823 123.585 41.8942 137.929 39.4624C152.273 37.0306 147.525 15.8853 134.2 18.6182ZM132.34 34.7068C130.796 34.9461 130.641 33.9348 130.024 30.9008C129.561 28.8241 129.368 27.1334 130.85 26.8709C132.332 26.6085 132.301 28.0984 132.764 30.1674C133.359 32.9852 133.536 34.4984 132.34 34.7068ZM135.173 33.7187C134.177 33.1551 133.699 30.2215 133.39 28.3146C132.934 25.3887 133.753 24.6167 134.687 24.4546C136.462 24.084 136.57 25.9986 137.126 26.3383C137.682 26.6779 141.102 25.435 141.388 26.6779C141.751 28.222 138.678 27.7665 138.894 28.7701C139.11 29.7737 142.036 27.6584 142.314 29.4031C142.523 30.7078 139.342 30.3913 139.62 31.3563C139.851 32.1824 142.353 30.5843 142.584 32.0434C142.816 33.5025 137.698 35.1083 135.173 33.7032V33.7187Z" fill="#3D9CFB"/>
<path d="M107.574 4.79162C95.6151 7.14624 98.3944 24.6862 110.662 22.6559C122.929 20.6255 119.015 2.54507 107.574 4.79162ZM104.802 16.4103C103.528 16.2019 103.806 15.1828 104.377 12.6352C104.779 10.8673 105.242 9.49314 106.462 9.8251C107.682 10.1571 107.025 11.1375 106.632 12.9131C106.091 15.3141 105.891 16.5802 104.802 16.4103ZM114.383 13.4458C114.089 14.7968 112.128 13.2605 111.928 14.1175C111.727 14.9744 114.483 14.5266 114.066 15.9703C113.757 17.0511 111.688 15.5225 111.549 16.364C111.41 17.2055 113.533 16.8272 113.178 18.0547C112.823 19.2822 108.701 18.6414 107.288 16.6574C106.732 15.8854 107.419 13.4381 107.89 11.8323C108.593 9.41594 109.496 9.10714 110.283 9.2847C111.766 9.6321 111.148 11.1761 111.457 11.6007C111.766 12.0253 114.645 12.3882 114.383 13.4458Z" fill="#3D9CFB"/>
<path d="M84.923 21.2891C70.2008 23.8444 73.3429 45.1287 88.4202 42.9053C103.498 40.6819 99.8999 18.6874 84.923 21.2891ZM83.5488 38.8677C82.0048 39.6938 81.4876 38.335 80.013 35.054C78.9786 32.738 78.3455 30.8697 79.905 30.2135C81.4644 29.5573 81.5802 31.2017 82.607 33.4714C84.0198 36.5826 84.8149 38.1729 83.5488 38.8677ZM86.1968 37.1152C84.9616 36.7061 83.7418 33.3942 82.9235 31.2326C81.6806 27.9824 82.5607 26.8707 83.5411 26.4229C85.3939 25.5737 86.2123 27.7199 86.8916 27.967C87.571 28.214 90.8289 26.1527 91.4542 27.5115C92.2262 29.2408 88.7522 29.3025 89.2463 30.4142C89.7403 31.5259 92.5504 28.6077 93.2916 30.5532C93.8551 32.0046 90.1495 32.1667 90.6976 33.2089C91.1608 34.1044 93.4305 31.9119 94.0559 33.5563C94.6812 35.2007 89.3234 38.1343 86.1968 37.1152Z" fill="#3D9CFB"/>
</svg>
