<svg width="154" height="154" viewBox="0 0 154 154" fill="none" xmlns="http://www.w3.org/2000/svg">
<path d="M75.1079 72.0676C75.4522 72.0822 75.3615 72.4088 75.3385 72.7677C75.237 74.118 75.2432 73.7429 69.7722 73.321C65.0973 72.9606 64.5809 72.5118 62.1877 73.2672C60.3871 73.8351 60.7422 73.9911 60.4394 73.902C57.9179 73.1612 57.9256 73.4309 57.8388 73.1489C57.6927 72.6747 57.8595 71.4581 58.5742 71.4666C58.595 71.4666 66.8111 71.6672 67.7748 71.6672C68.219 71.6702 72.8493 71.9753 75.1079 72.0676Z" fill="#82A8D1"/>
<path d="M110.603 76.9361C110.554 77.5437 110.45 78.1456 110.292 78.7344C110.099 79.4322 109.759 80.0201 109.193 80.1054C107.945 80.5186 106.726 81.0133 105.543 81.5863C105.114 81.8307 105.531 81.3934 103.759 79.4399C103.166 78.7851 102.441 79.2147 103.186 79.8541C103.776 80.4327 104.273 81.0979 104.661 81.8269C104.752 81.9736 104.661 82.0367 104.553 82.1104C100.819 84.6242 103.549 83.5122 99.9639 79.9079C97.8997 77.8329 98.2202 78.6975 94.8918 77.8406C94.7465 77.8029 94.7611 77.7076 94.8479 77.6147C95.7079 76.6963 95.6879 76.3405 97.839 76.2605C100.368 76.166 105.128 76.2014 109.387 76.4304C110.634 76.4972 110.621 76.322 110.603 76.9361Z" fill="#FFF59E"/>
<path d="M126.347 56.6531C122.802 51.4665 125.013 54.1071 121.901 49.7973C120.866 48.3632 120.488 47.8967 119.779 46.7632C117.445 43.0252 116.966 40.3515 113.626 38.4502C113.013 38.0955 112.37 37.7959 111.704 37.5549C108.374 36.3776 109.851 36.2277 107.618 35.4415C106.915 35.3161 106.205 35.235 105.492 35.1987C105.447 35.1887 105.331 35.284 105.326 35.3355C105.176 36.1843 104.789 36.9735 104.211 37.6126C103.954 37.8162 103.527 37.5626 103.794 37.0746C104.978 34.8905 105.408 33.8738 102.846 33.551C102.676 33.5295 102.712 33.5648 102.773 33.7047C103.278 34.8244 102.687 35.5399 102.328 36.2162C100.011 40.5667 96.4755 46.2452 91.6976 44.9464C91.0127 44.7527 90.4261 44.3075 90.0553 43.6999C89.0524 42.7009 88.9848 41.2361 89.2154 39.8674C89.4284 38.8142 89.7287 37.7806 90.113 36.7772C90.4865 35.6521 89.9078 36.7941 87.7306 37.7832C83.1464 39.8635 80.5543 40.934 78.9058 45.7196C73.673 60.9076 75.476 56.9398 73.8636 60.3927C73.4432 61.2942 73.5562 61.2703 74.1026 61.517C77.4564 63.0241 77.5471 64.1676 77.6531 63.5843C77.997 61.7554 78.2025 59.9032 78.2679 58.0434C78.2758 55.9496 78.522 53.8635 79.0019 51.8254C79.789 48.8193 80.7508 45.8616 81.8822 42.9675C81.9737 42.8069 82.2235 42.6901 82.3733 43.1773C82.4379 43.3848 80.1131 48.6845 79.2801 53.4846C78.5515 57.6814 79.2386 60.156 78.2679 63.7964C77.8377 65.1296 77.5984 66.5169 77.5571 67.9172C77.5087 70.1259 76.3597 71.3947 75.9025 73.2806C75.7234 74.0184 76.0162 73.983 80.8524 74.8176C95.4587 77.336 90.0085 77.6111 93.6865 74.6001C93.8341 74.4795 93.662 74.4149 93.6389 74.4157C92.3509 74.4357 92.2248 71.1879 93.7803 71.1695C93.9624 71.1695 110.086 71.2717 110.326 71.2817C112.354 71.3693 111.089 71.0212 111.77 68.7702C112.188 67.3869 111.814 67.2539 111.894 66.746C112.218 64.671 112.419 64.266 112.365 63.2539C112.28 61.6507 112.631 61.2058 112.058 60.8246C111.385 59.6487 110.815 58.4171 110.353 57.1434C108.951 53.234 107.068 51.5479 105.5 49.2101C104.744 48.0835 105.215 47.3004 105.934 48.48C108.101 52.0375 108.509 51.8023 109.828 54.3868C110.198 55.1107 110.462 55.6203 110.635 55.9961C111.671 58.237 109.834 55.588 114.017 62.6867C114.253 63.0871 114.156 62.563 115.481 61.9751C118.387 60.6863 118.509 59.386 121.613 58.6589C123.233 58.2801 123.59 57.7928 124.448 57.4808C126.376 56.783 126.527 56.9167 126.347 56.6531ZM87.9404 40.1302C88.5045 40.0295 87.5123 42.0276 88.486 44.0127C88.8119 44.6782 89.3314 46.7432 91.9182 46.8685C92.2979 46.8869 92.6306 46.7793 92.6752 47.1052C92.8005 48.0274 89.4059 47.3304 88.5644 45.6819C87.2249 43.0597 87.3948 42.6079 87.5362 40.9287C87.5861 40.3277 87.6315 40.1878 87.9404 40.1325V40.1302ZM95.9928 46.1199C96.9552 45.6332 97.8435 45.0122 98.6311 44.2755C98.8617 44.0872 99.963 42.7762 99.8692 43.7698C99.3866 44.7689 97.287 46.0861 96.2772 46.6272C95.8791 46.8462 95.6631 46.3528 95.9928 46.1223V46.1199Z" fill="#FFF59E"/>
<path d="M134.427 110.537C135.891 132.174 121.611 147.15 108.965 143.645C105.034 142.48 101.551 140.142 98.9833 136.944C89.5191 125.81 88.8812 104.88 96.7308 91.6792C97.6748 89.9837 98.7679 88.3755 99.9969 86.8737C102.855 83.6916 106.625 81.4682 110.792 80.5066C110.911 80.4789 110.898 80.6272 110.863 80.6687C110.828 80.7102 110.794 80.7494 110.763 80.7886C109.781 81.9975 109.869 81.8937 109.606 81.9145C109.079 81.9575 108.837 82.5431 108.967 82.683C108.84 82.9285 108.656 83.1395 108.429 83.2978C106.175 84.9009 105.486 84.6189 103.999 86.1974C102.676 87.6031 101.468 89.113 100.387 90.7124C87.4364 109.865 95.4919 141.183 112.499 142.474C116.156 142.751 120.377 141.351 124.104 137.548C125.846 135.615 127.408 133.526 128.77 131.307C131.093 126.989 132.098 121.556 132.509 115.86C132.865 110.912 132.841 105.392 131.567 100.666C129.723 93.8264 126.019 87.7682 119.825 84.2761C117.651 83.0504 116.737 84.1547 118.826 82.2872C118.984 82.1458 119.518 82.4302 120.1 82.6961C121.729 83.5175 123.247 84.5447 124.615 85.7524C128.56 89.6472 128.889 90.9545 130.882 94.8078C133.927 100.708 134.479 110.533 134.427 110.537Z" fill="#878787"/>
<path d="M131.789 105.142C132.844 112.863 132.213 122.803 128.598 129.879C128.367 130.341 126.907 132.825 125.808 134.374C122.241 139.41 117.521 141.736 113.68 141.797C108.026 141.885 100.682 137.57 97.1049 127.059C96.236 124.723 95.5346 122.329 95.0061 119.893C94.4874 117.16 94.7056 112.746 94.585 112.746C94.7033 103.656 97.5821 95.5479 101.184 90.5556C101.521 89.9863 101.949 89.4756 102.45 89.0432C102.362 89.3236 102.249 89.5957 102.113 89.8563C101.92 90.3411 101.697 90.8141 101.448 91.2727C100.893 92.1365 100.722 92.5276 100.94 92.9157C101.034 93.1065 101.187 93.2621 101.376 93.3598C101.565 93.4576 101.781 93.4923 101.991 93.4591C102.369 93.4045 102.211 93.6266 101.459 94.8985C85.8293 121.288 112.544 160.457 127.569 128.133C133.774 114.785 130.826 92.7167 119.624 86.5648C116.864 85.0493 115.315 85.4643 116.567 84.3791C118.298 82.8759 129.621 89.2753 131.789 105.142Z" fill="#D8E9FF"/>
<path d="M128.76 67.9651C129.221 69.579 129.199 70.3575 123.073 77.1104C120.455 79.9731 117.657 82.6656 114.696 85.1713C114.51 85.325 114.375 85.3434 114.273 85.3004C114.074 85.1654 113.907 84.9883 113.784 84.7817C113.779 84.6325 113.789 84.4832 113.813 84.3359C113.858 84.0143 113.812 83.6864 113.68 83.3897C113.548 83.093 113.335 82.8393 113.066 82.6575C112.807 82.4778 112.506 82.367 112.193 82.3355C111.879 82.304 111.562 82.353 111.272 82.4777C111.144 82.5453 111.018 82.5722 110.646 82.3324C109.78 81.7737 111.69 82.4292 118.071 70.5443C119.263 68.324 120.187 68.5223 116.414 62.6632C116.167 62.2789 116.26 62.4841 117.208 61.8294C119.796 60.0372 119.874 59.7944 121.599 59.384C122.554 59.1631 123.471 58.8004 124.319 58.3081C124.618 58.1321 128.692 67.7307 128.76 67.9651Z" fill="#FFCEB6"/>
<path d="M117.732 106.702C118.656 108.007 119.115 109.584 119.035 111.182C119.013 112.93 118.461 114.631 117.453 116.06C114.993 119.103 110.877 116.145 112.019 109.835C112.463 107.376 113.95 105.515 115.642 105.455C116.067 105.473 116.48 105.596 116.845 105.814C117.21 106.032 117.515 106.337 117.732 106.702ZM117.361 110.989C117.332 109.743 116.977 108.706 116.142 108.483C115.781 108.421 115.41 108.488 115.094 108.671C114.777 108.855 114.535 109.144 114.41 109.488C114 110.322 113.825 112.417 114.628 113.5C115.772 115.045 117.415 113.273 117.361 110.989Z" fill="#D8E9FF"/>
<path d="M116.955 111.05C116.937 112.721 115.887 114.114 115.099 113.298C114.71 112.752 114.489 112.104 114.463 111.434C114.437 110.764 114.608 110.101 114.954 109.527C115.743 108.434 116.977 108.868 116.955 111.05Z" fill="#B0CCEA"/>
<path d="M116.391 64.2768C116.613 64.2684 115.988 71.0935 115.987 71.1165C115.97 71.2987 115.961 71.4001 115.735 71.3901C113.985 71.3133 113.825 71.5008 113.891 71.0566C113.906 70.9567 114.034 69.8654 113.912 69.8508C114.069 68.5735 114.278 67.045 114.526 64.3575C115.144 64.2737 115.768 64.2467 116.391 64.2768Z" fill="#D8E9FF"/>
<path d="M113.035 85.8948C113.342 86.3144 113.566 86.2106 113.396 86.4173C112.243 87.8107 113.242 89.3846 111.326 92.3195C111.05 92.7406 110.793 92.5931 109.835 93.0534C109.032 93.4377 108.794 92.6576 107.755 93.284C106.819 93.8481 106.36 93.1003 105.718 93.792C105.345 94.194 104.938 94.5625 104.5 94.8932C103.264 95.0562 104.27 94.2016 105.004 90.8201C105.26 89.6543 105.403 89.941 105.535 89.3853C105.539 89.3309 105.525 89.2767 105.495 89.2308C105.466 89.1849 105.422 89.1496 105.371 89.1301C105.32 89.1106 105.265 89.108 105.212 89.1225C105.159 89.137 105.113 89.168 105.079 89.2109C104.587 89.6568 104.171 90.1807 103.849 90.7617C103.477 91.4326 102.587 92.776 102.06 92.8367C101.914 92.8536 101.576 92.9428 101.416 92.6669C101.245 92.3702 101.877 91.7131 101.954 91.4803C102.275 90.691 102.685 89.941 103.176 89.2447C103.413 88.5452 103.705 87.8655 104.049 87.212C105.34 85.4444 106.861 85.2661 108.844 83.7283C109.505 83.215 109.3 83.2042 109.497 83.2718C109.796 83.3347 110.071 83.4788 110.293 83.6884C110.298 84.0131 110.333 84.3367 110.397 84.6552C110.537 85.0107 110.773 85.3202 111.079 85.5492C111.385 85.7781 111.749 85.9175 112.129 85.9516C112.544 85.9901 112.856 85.6511 113.035 85.8948Z" fill="#FFCEB6"/>
<path d="M112.954 77.416C113.103 76.4223 112.964 76.536 113.753 76.5837C112.807 78.4173 112.999 77.4221 112.954 77.416Z" fill="#D8E9FF"/>
<path d="M105.775 11.7606C105.83 12.068 105.727 12.2932 105.378 12.546C104.855 12.9256 104.507 13.1124 105.14 13.5043C105.524 13.7449 105.714 14.1076 105.161 14.4934C104.725 14.7593 104.634 14.8608 104.914 15.3149C105.01 15.4281 105.071 15.5667 105.091 15.714C105.11 15.8613 105.086 16.011 105.021 16.1449C104.698 16.7374 103.611 17.2754 103.667 18.2099C103.695 18.6596 103.584 19.107 103.35 19.4918C103.092 19.9122 102.76 20.1758 102.721 19.886C102.714 19.8299 102.414 16.769 102.402 16.6921C102.336 16.2929 102.153 15.9221 101.877 15.6262C101.578 14.9483 101.526 14.1868 101.73 13.4744C101.759 13.2945 101.566 13.1431 101.205 13.1385C100.759 13.1331 100.406 13.2154 100.436 12.8857C100.455 12.6989 100.403 12.4738 100.206 12.4207C99.8386 12.3247 99.8324 12.6136 99.449 12.9233C99.3831 12.9825 99.3021 13.0222 99.2151 13.0382C99.128 13.0542 99.0382 13.0459 98.9556 13.0141C98.873 12.9823 98.8008 12.9283 98.7469 12.858C98.6931 12.7877 98.6597 12.704 98.6505 12.6159C98.5936 11.9243 98.7365 11.5477 98.0964 11.799C97.5945 11.9965 97.281 11.6745 97.3233 11.3379C97.4078 10.6578 96.8445 10.5417 96.5594 11.1204C96.3449 11.5562 95.259 11.9558 94.9209 11.1204C94.7326 10.6593 94.9847 10.1167 94.4598 10.2351C94.3061 10.2689 93.9318 10.5425 93.9057 10.1375C93.8911 9.90079 93.7151 9.8347 93.5015 9.83854C92.9727 9.8493 93.6214 10.9406 92.5793 11.3133C92.019 11.5139 91.6194 10.8591 91.4618 10.7162C91.2359 10.511 90.9831 10.5494 90.9239 10.8422C90.8978 10.9775 90.9239 11.1204 90.907 11.2572C90.8301 12.018 90.0486 11.7737 89.994 11.7821C89.652 11.8351 89.5875 12.174 89.6728 12.7942C89.6297 13.4859 88.3286 12.1871 88.6107 13.6135C88.8182 14.6609 87.5763 14.4588 87.9536 15.3657C88.2526 16.0834 87.6823 20.1419 87.4395 19.3166C87.1446 18.6412 86.9771 17.9171 86.9453 17.1809C86.9761 16.7597 86.7739 16.7198 86.5826 16.5814C86.1983 16.3025 85.7072 16.1787 86.1514 15.6769C86.4688 15.2665 86.3881 15.139 85.9147 14.9468C85.3384 14.7101 84.6475 13.9362 85.1224 13.5512C85.4206 13.3091 85.7219 13.167 85.9147 12.9956C85.9786 12.9456 86.0307 12.8824 86.0676 12.8103C86.1045 12.7381 86.1252 12.6588 86.1284 12.5779C86.1315 12.4969 86.117 12.4162 86.0858 12.3414C86.0546 12.2667 86.0075 12.1996 85.9478 12.1448C85.0579 11.3225 86.0077 11.2226 86.6225 10.9314C86.9684 10.7677 87.0583 10.7615 86.767 10.1828C86.2237 9.10692 86.651 8.28539 87.4748 8.61124C87.8522 8.76033 88.3271 9.15457 88.4016 8.46368C88.2149 7.68826 88.3771 7.5138 88.4723 7.36856C88.6699 7.06653 89.0987 7.138 89.4368 7.30631C89.8872 7.53148 90.3375 7.93956 90.5258 7.43311C90.7003 6.96278 90.0747 6.75836 91.1329 5.8692C91.594 5.48494 91.9783 5.74009 92.2611 6.01214C92.6046 6.3449 92.8567 6.74914 93.1572 5.64556C93.2386 5.34661 93.7497 4.84785 94.1386 5.13066C94.4898 5.38734 94.8264 6.10974 95.3182 5.43806C95.6187 5.02998 95.8308 4.68569 96.4256 4.75793C96.554 4.76132 96.6804 4.79095 96.7969 4.84499C96.9134 4.89902 97.0176 4.97632 97.1031 5.07214C97.1886 5.16795 97.2536 5.28025 97.2942 5.40213C97.3347 5.524 97.3498 5.65287 97.3386 5.78082C97.3125 6.08361 97.7529 6.36719 97.9534 5.87611C98.2493 5.16217 98.7396 4.72335 99.3944 5.12912C100.646 5.91069 99.9669 7.67442 101.116 6.86749C102.265 6.06055 103.071 7.23099 102.831 8.34379C102.794 8.51748 102.655 8.9878 103.175 8.95399C103.549 8.9294 104.593 8.36839 104.699 9.51346C104.776 10.3327 104.59 11.0712 105.007 11.1604C105.653 11.3018 105.743 11.5846 105.775 11.7606Z" fill="#C6A88B"/>
<path d="M101.665 83.8257C102.111 84.7841 99.7902 84.0225 94.4091 94.4773C94.2201 94.8446 94.3553 94.7632 91.2237 94.654C86.887 94.5003 86.0939 94.6364 85.9886 94.2782C85.954 94.1599 85.9778 91.9304 85.9701 91.3418C85.946 90.2936 86.1907 89.2567 86.681 88.33C88.0144 86.1386 89.4801 84.0305 91.07 82.0174C91.6479 81.2843 91.0046 82.1273 93.8819 78.699C94.0748 78.4685 94.2408 78.3063 94.4376 78.3755C97.7329 79.5367 98.8911 77.8629 101.665 83.8257Z" fill="#D4F2E2"/>
<path d="M93.5421 95.4956C94.0747 95.5348 93.9394 95.2082 92.6729 99.1452C92.5722 99.4588 92.4762 99.697 92.1695 99.6909C91.9451 99.6909 79.3915 99.5003 78.8743 99.5233C77.9698 99.5625 78.0712 99.5933 78.1773 99.3074C78.5231 98.3721 78.6153 96.1626 77.999 95.3626C77.7462 95.0345 77.3957 95.0007 78.1796 94.9607C78.2011 94.9592 93.519 95.4956 93.5421 95.4956Z" fill="#D8E9FF"/>
<path d="M92.1297 125.243C92.4371 126.367 92.7291 126.51 92.2726 126.514C86.163 126.579 87.5593 126.931 80.3768 120.832C78.215 118.997 78.8913 120.239 78.753 116.821C78.7307 116.273 85.5089 122.625 87.3841 123.768C87.7684 123.999 87.899 123.957 91.4096 124.016C92.1589 124.028 91.9006 124.414 92.1297 125.243Z" fill="#D8E9FF"/>
<path d="M90.622 117.141C90.8372 118.797 91.057 119.625 90.6943 119.318C78.5818 109.056 79.1267 109.809 79.192 109.327C79.5524 106.677 77.0494 105.455 89.5477 115.787C90.9848 116.972 90.5644 116.681 90.622 117.141Z" fill="#D8E9FF"/>
<path d="M90.3459 77.3648C91.4311 77.5754 91.6847 76.9214 89.8625 79.1885C89.8456 79.2093 86.0822 83.7089 84.2732 86.4448C81.5396 90.5786 83.351 94.4265 82.2366 94.3604C77.6409 94.0907 77.7385 94.2175 77.3858 93.8478C74.7314 93.2069 74.995 93.4728 75.0864 92.6343C75.3815 89.9115 74.5884 90.1421 73.5986 85.6271C73.368 84.5858 72.1476 85.2098 73.9306 89.445C74.4808 90.7515 74.8489 93.4789 73.4057 93.9124C73.0983 94.0054 73.212 93.94 72.8793 92.1725C72.6535 91.4717 72.3439 90.8008 71.957 90.1743C70.7074 87.7343 71.2439 87.8227 69.6469 85.5702C68.0976 83.3846 68.1575 83.3638 67.7533 83.3761C66.712 83.4076 68.3151 84.2123 70.1487 87.8273C70.3641 88.6415 70.7037 89.4176 71.1555 90.1282C71.9406 91.3292 72.3659 92.7297 72.3813 94.1644C72.3936 94.5126 72.0885 95.3572 72.0554 95.7614C72.0101 96.3316 71.718 95.992 69.8621 96.7228C65.9611 98.2545 65.4993 101.026 60.4394 121.29C60.3111 121.804 55.9498 118.083 55.6677 117.985C55.3465 117.872 55.2481 118.161 55.3065 118.27C55.8445 119.269 58.0194 120.685 59.8799 121.996C60.2204 122.236 60.3349 122.249 58.774 126.87C58.5266 127.604 52.304 122.144 51.3057 121.743C49.3552 120.958 49.077 121.635 49.3275 121.061C49.8309 119.908 49.4597 120.024 49.5581 118.24C49.6349 116.819 50.6824 117.74 53.8033 115.43C53.851 115.395 54.7401 114.585 54.4181 114.277C54.0961 113.97 53.9063 114.466 52.9372 115.219C52.0995 115.87 51.9243 115.971 52.2386 114.757C52.5606 113.511 52.8665 111.311 53.9294 106.507C54.4181 104.294 55.0698 99.4088 55.2082 98.1953C56.6683 85.4772 55.6247 84.0055 57.2178 80.0193C58.502 76.8046 59.6939 74.8918 63.0139 73.8597C64.1242 73.6068 65.2738 73.5781 66.3953 73.7751C76.9716 74.8818 69.2988 73.2979 90.3459 77.3648Z" fill="#D4F2E2"/>
<path d="M81.9568 132.662C82.2688 133.113 83.2886 132.354 81.1437 130.298C80.9408 130.103 81 130.005 81.1522 129.462C81.2367 129.161 81.3159 129.134 81.5295 129.369C87.9081 136.368 82.7968 149.417 73.7545 149.318C62.5865 149.195 62.5819 129.075 74.6175 126.92C75.0364 126.843 77.2305 126.727 77.3173 127.145C77.5763 128.415 77.3296 128.209 76.3382 128.172C73.8144 128.274 70.8311 129.325 68.4326 133.506C67.4581 135.207 66.9248 136.831 67.4888 137.055C68.2066 137.339 67.4304 134.68 71.336 130.884C72.4472 129.898 73.797 129.219 75.2516 128.916C75.8111 128.833 76.3777 128.809 76.9423 128.844C77.3073 128.904 77.2973 129.124 77.2581 129.823C76.7371 132.536 76.6564 132.258 76.4635 132.239C71.0655 131.701 68.0952 141.296 72.8569 144.324C77.6724 147.385 83.0673 139.461 79.9971 134.498C80.1703 133.296 80.4593 132.114 80.8601 130.967C81.331 131.457 81.7033 132.032 81.9568 132.662Z" fill="#878787"/>
<path d="M80.7495 125.592C80.9676 126.024 81.0201 126.521 80.8971 126.989C80.057 131.562 78.9146 136.073 77.4772 140.495C77.44 140.698 77.3576 140.891 77.2361 141.058C77.1146 141.226 76.9571 141.364 76.7752 141.462C76.5933 141.561 76.3916 141.617 76.185 141.628C75.9784 141.638 75.7721 141.602 75.5813 141.522C74.792 141.255 75.1271 140.308 75.2124 139.943C75.8726 137.11 78.371 129.825 78.0521 126.753C77.8653 125.805 76.4958 125.614 75.8703 125.922C75.8072 125.952 75.7596 126.018 75.6958 126.031C75.5045 126.069 75.1333 126.185 75.0111 126.108C74.8681 126.031 75.6328 124.563 75.8695 124.354C76.1846 124.076 76.6249 124.123 77.1352 124.123C78.5362 124.216 80.1378 124.634 80.7495 125.592Z" fill="#D8E9FF"/>
<path d="M79.6176 135.724C79.7537 135.131 80.1387 137.197 80.1302 137.784C80.018 145.588 70.8889 146.52 71.1909 138.937C71.403 133.63 76.7027 132.149 76.4468 133.074C75.7874 135.456 74.4602 140.049 74.3848 140.405C73.8876 142.772 77.1346 142.933 77.9815 141.231C78.3358 140.521 79.4939 136.264 79.6176 135.724Z" fill="#B0CCEA"/>
<path d="M77.5043 104.568C78.9959 104.256 78.6901 105.327 78.5033 111.875C78.4265 114.488 78.6048 114.257 77.9969 114.429C76.9872 114.712 75.9271 114.764 74.8944 114.583C74.3226 114.485 74.1828 114.352 74.1459 113.758C74.1336 113.562 74.1513 105.474 74.1551 105.394C74.2127 103.991 74.7184 105.152 77.5043 104.568Z" fill="#D8E9FF"/>
<path d="M78.0575 121.153C78.0575 121.914 76.1477 121.87 75.3454 121.71C74.3748 121.519 74.6138 120.725 74.6583 115.613C74.6645 114.95 74.7068 115.681 77.4918 115.29C78.0951 115.205 78.0098 115.213 78.0098 115.702C78.0183 120.054 78.0467 116.802 78.0575 121.153Z" fill="#D8E9FF"/>
<path d="M76.9901 99.7479C77.5611 100.432 77.9784 99.9615 77.9754 100.563C77.9577 103.514 78.0269 103.803 77.8924 103.811C77.13 103.924 76.3622 103.995 75.5922 104.026C74.7315 103.985 74.7292 104.012 74.7269 103.141C74.72 99.6441 74.5901 99.6602 75.0235 99.6441C76.7888 99.5803 76.7496 99.4604 76.9901 99.7479Z" fill="#D8E9FF"/>
<path d="M77.3173 96.283C77.836 96.137 77.9167 99.2886 77.2796 99.3032C66.6488 99.5399 71.7025 97.624 60.1249 133.591C59.9467 134.144 60.1595 134.062 57.8763 133.45C57.7372 133.413 57.3207 133.349 57.4152 133.134C58.8408 129.849 64.6499 105.795 66.6711 100.389C68.5155 95.4538 74.4753 97.0838 77.3173 96.283Z" fill="#D8E9FF"/>
<path d="M77.1954 122.991C77.2246 123.068 77.3944 123.307 77.2123 123.369C76.2517 123.697 75.7767 122.559 76.181 122.571C77.3015 122.604 76.9771 122.42 77.1954 122.991Z" fill="#D8E9FF"/>
<path d="M77.204 64.3709C77.3923 64.5385 77.2585 64.6906 76.9381 67.2851C76.716 69.085 77.0733 68.5878 76.231 70.6281C75.7392 71.8186 75.7 71.7041 75.3373 71.6672C75.3165 71.6672 68.8272 71.2007 68.8049 71.2007C69.266 70.041 70.9099 68.3733 72.0112 67.5195C73.399 66.3191 74.5871 64.9056 75.5309 63.3319C75.733 63.0414 75.7722 63.0998 77.204 64.3709Z" fill="#FFCEB6"/>
<path d="M71.712 102.076C72.3875 106.164 67.8764 111.759 66.4646 118.966C65.5593 123.587 63.8309 122.473 64.8016 126.932C64.2021 130.221 64.2006 130.572 62.9518 131.596C62.7158 131.79 62.6444 131.731 62.5967 131.438C62.2063 129.075 61.8413 130.147 62.2048 128.979C66.7075 114.542 69.0576 99.3501 71.7035 100.042C71.6328 100.718 71.6356 101.4 71.712 102.076Z" fill="#D4F2E2"/>
<path d="M59.2744 136.404C60.7737 137.036 60.763 137.305 60.5977 137.881C60.4325 138.458 59.7324 140.949 59.6456 141.162C59.4327 141.686 59.3743 141.878 58.6042 141.623C57.8342 141.369 56.002 140.737 55.5064 140.567C54.7824 140.32 55.0591 140.17 56.0866 137.488C56.6637 135.982 58.1285 135.922 59.2744 136.404Z" fill="#B0CCEA"/>
<path d="M59.542 134.731C59.7924 134.876 60.009 135.072 60.177 135.307C60.3451 135.543 60.4609 135.811 60.5165 136.095C59.6569 135.635 58.6976 135.394 57.723 135.393C55.6265 135.594 55.0878 137.805 54.5022 139.873C54.4292 140.132 54.3 140.079 53.2664 139.313C53.1042 139.193 53.1127 139.136 53.6191 137.712C55.4029 132.717 57.713 134.299 59.542 134.731Z" fill="#D8E9FF"/>
<path d="M59.797 74.5826C59.2145 75.3066 58.7664 75.1598 57.8757 77.1418C55.0176 83.5204 56.0259 83.6649 55.4388 90.1688C54.4182 101.466 54.0639 106.077 51.4425 114.761C51.0306 116.126 51.1812 116.221 50.8277 116.283C50.4882 116.319 50.1603 116.428 49.8661 116.601C49.5719 116.775 49.3181 117.009 49.1217 117.288C48.9253 117.568 48.7908 117.886 48.7271 118.221C48.6635 118.557 48.6722 118.902 48.7527 119.234C49.2784 121.754 46.9198 122.213 45.8747 123.076C44.5767 124.143 37.6324 115.67 34.7659 117.723C34.3662 118.01 34.5053 117.06 34.7605 116.456C35.4122 114.912 37.1621 113.179 38.4417 111.782C39.0242 111.144 38.6238 110.794 38.228 111.025C37.1521 112.331 35.748 114.535 36.7832 111.403C37.5087 109.209 37.4972 107.407 37.8438 105.838C38.105 104.655 40.1785 99.2456 40.044 96.4813C39.8426 92.3459 42.4702 88.5533 44.0725 85.3909C45.6303 82.3169 45.4558 77.984 49.9993 75.8338C52.9649 74.4289 56.7875 73.2969 59.797 74.5826ZM46.7254 116.076C47.4355 116.761 47.8505 116.133 47.2972 115.615C45.2991 113.75 44.0948 113.749 43.0189 112.721C42.0083 111.756 42.2104 111.971 41.8661 111.764C40.7064 111.764 42.5286 113.208 43.4523 113.916C44.6332 114.489 45.7337 115.216 46.7254 116.076Z" fill="#D4F2E2"/>
<path d="M58.173 127.553C58.7002 127.861 58.7571 127.288 56.9104 132.94C56.7943 133.422 56.1196 133.555 56.012 133.352C55.7046 132.775 55.2919 132.854 53.5289 131.991C38.855 124.806 33.0866 125.623 36.2928 125.019C38.4085 125.287 40.5865 125.92 42.3986 125.463C43.8357 125.1 43.3254 124.274 46.6024 126.164C47.2641 126.548 48.1494 125.77 44.8517 124.501C44.9954 124.334 45.1915 124.22 45.4079 124.178C45.6244 124.136 45.8487 124.169 46.0444 124.27C46.9136 124.731 47.9703 125.352 48.1494 125.174C48.7288 124.598 46.6377 123.816 46.617 123.801C46.3864 123.637 46.4448 123.601 46.5855 123.494C47.221 123.006 47.4308 123.277 49.0447 124.102C49.8639 124.52 49.8639 123.925 49.3705 123.546C48.4168 122.813 47.5953 122.816 47.8981 122.629C51.0674 120.668 52.254 124.15 58.173 127.553Z" fill="#FFA87D"/>
<path d="M55.3566 133.626C55.5626 133.779 55.1261 133.687 54.0063 135.256C53.7912 135.557 53.8181 135.355 52.1688 134.575C43.4271 130.446 38.5324 128.777 35.901 128.008C33.7415 127.377 33.1029 127.352 33.0952 127.086C33.0954 126.776 33.1877 126.473 33.3604 126.216C33.5317 125.895 33.6985 125.77 34.4363 125.855C38.4402 126.319 53.337 132.144 55.3566 133.626Z" fill="white"/>
<path d="M56.6407 143.147C55.2574 143.549 55.262 143.694 53.7534 143.128L22.5926 131.414C20.7144 130.712 21.6904 130.637 22.5719 130.569C23.5552 130.543 24.5335 130.718 25.4461 131.085C33.8037 133.911 56.1826 142.717 56.6407 143.147Z" fill="#B0CCEA"/>
<path d="M53.503 136.104C53.1956 137.009 53.0327 137.472 52.7606 137.33C51.7308 136.792 46.0746 134.871 41.0793 132.815C38.7952 131.908 36.5746 130.849 34.4325 129.644C34.0021 129.323 33.6404 128.919 33.3688 128.455C33.0361 127.917 33.4956 128.016 33.7008 128.053C37.4243 128.717 52.9082 135.469 53.503 136.104Z" fill="white"/>
<path d="M38.2573 119.112C44.5868 123.907 44.9503 123.542 44.5952 123.755C40.0126 126.514 36.8548 123.217 34.5616 124.886C33.3665 125.755 33.0476 124.798 22.848 121.856C22.267 121.688 21.676 121.758 21.772 121.576C21.9173 121.443 22.1125 121.225 22.9002 121.285C24.053 121.373 28.2659 122.224 29.2135 121.593C31.0879 120.339 33.0922 122.966 33.6371 122.37C34.225 121.728 31.1148 120.81 31.3953 120.631C32.0977 120.178 31.8641 120.228 34.0252 121.201C34.0851 121.228 34.1366 121.312 34.1912 121.311C34.3318 121.306 34.4778 121.517 34.61 121.319C35.1556 120.504 32.4366 120.063 32.9654 119.701C33.099 119.582 33.263 119.502 33.4392 119.47C33.6155 119.437 33.7972 119.454 33.9644 119.519C34.4944 119.716 35.0026 119.967 35.4807 120.269C36.0778 120.659 36.4137 120.159 35.8204 119.718C34.8398 118.987 33.9829 118.994 34.3318 118.772C35.4238 118.077 36.5512 117.819 38.2573 119.112Z" fill="#FFA87D"/>
<path d="M28.4742 120.96C32.2199 110.184 37.3405 91.2034 40.2961 91.9519C39.6383 94.4511 39.9065 95.5432 39.5076 95.9482C37.5134 97.967 31.2539 119.08 31.0417 119.778C30.9142 120.196 31.0771 120.033 28.8131 121.085C28.6133 121.175 28.3958 121.187 28.4742 120.96Z" fill="#D8E9FF"/>
<path d="M33.1327 129.372C32.979 129.398 25.0702 126.188 23.8429 126.324C23.7722 126.332 23.544 126.341 23.2727 126.361C22.8734 126.395 22.4721 126.398 22.0723 126.371C21.3355 125.951 20.6223 125.491 19.9358 124.993C19.6384 124.725 19.5062 124.418 20.0227 124.403C20.7198 124.417 21.4098 124.546 22.0654 124.783C25.4782 125.754 28.817 126.968 32.056 128.416C32.5157 128.599 32.8966 128.938 33.1327 129.372Z" fill="white"/>
<path d="M32.0614 125.501C32.8852 125.776 32.9344 125.756 32.7892 126.039C32.1328 127.308 32.6846 127.953 32.0383 127.713C30.5828 127.17 24.3809 124.869 23.056 124.408C22.1309 124.079 21.1657 123.876 20.1864 123.805C19.6115 123.766 19.5201 123.836 19.643 123.447C20.2171 121.619 19.4125 121.275 32.0614 125.501Z" fill="white"/>
<path d="M57.6104 142.088C57.572 142.05 55.1889 141.193 54.5287 140.905C54.1208 140.745 53.7325 140.538 53.3713 140.29C52.5798 139.731 52.2555 139.477 52.3492 139.185C52.8872 137.518 53.5296 138.543 45.325 135.167C20.1425 124.81 23.0606 125.753 21.3353 129.861C21.2215 130.131 21.4121 129.964 23.4341 129.842C23.8183 129.819 23.69 129.745 24.2794 128.104C24.5246 127.425 25.1663 127.614 24.9096 128.307C24.261 130.066 23.9036 129.939 25.5836 130.41C26.5826 130.69 38.8788 135.11 42.2525 136.437C47.0173 138.314 51.5976 140.428 54.8369 141.747C55.6521 142.157 56.4973 142.505 57.3653 142.787C57.5566 142.747 57.698 142.172 57.6104 142.088Z" fill="#D8E9FF"/>
<path d="M78.3342 52.8149C78.3779 52.9657 78.46 53.1027 78.5723 53.2124C78.6847 53.3221 78.8236 53.4009 78.9754 53.4409C79.1272 53.481 79.2869 53.4811 79.4388 53.4412C79.5906 53.4012 79.7296 53.3226 79.842 53.213C80.8177 52.008 81.8906 50.885 83.0498 49.8554C83.2243 49.7017 83.4794 49.4135 83.7415 49.1875C84.5199 51.1114 85.484 52.9548 86.6203 54.6916C86.7039 54.8272 86.8168 54.9423 86.9507 55.0286C87.0846 55.115 87.2361 55.1703 87.3941 55.1906C87.5521 55.2108 87.7127 55.1955 87.864 55.1457C88.0153 55.096 88.1536 55.013 88.2688 54.9029C89.5873 53.6999 91.0211 52.6296 92.5493 51.7075C95.5004 55.3441 96.6171 56.1133 97.7299 55.5815C98.9157 55.0151 100.554 52.0717 101.121 50.8936C102.89 51.7815 104.66 52.6678 106.43 53.5527C106.589 53.6404 106.765 53.6916 106.945 53.7024C107.126 53.7133 107.307 53.6835 107.475 53.6152C107.642 53.5469 107.793 53.442 107.914 53.308C108.036 53.174 108.126 53.0144 108.179 52.841C109.055 49.5687 109.342 48.2853 109.473 47.7373C109.636 47.0503 109.639 46.892 110.336 47.1133C111.21 47.3869 112.537 47.6421 114.871 48.376C115.941 48.7126 116.524 48.884 117.283 48.5996C118.196 48.2576 118.273 47.4015 118.869 45.2105C118.239 44.0716 117.741 43.0494 117.202 42.1265C116.315 45.4311 116.51 45.2774 116.163 46.3041C111.943 45.5402 108.478 43.6404 107.675 45.5463C107.539 45.8706 106.778 48.7418 106.244 50.8168L101.151 48.3268C100.996 48.2423 100.825 48.1932 100.65 48.183C100.474 48.1729 100.299 48.202 100.136 48.2683C99.9728 48.3345 99.8268 48.4362 99.7081 48.566C99.5895 48.6957 99.5012 48.8503 99.4498 49.0185C98.7897 50.5254 97.9583 51.9514 96.9721 53.2683C95.7525 52.0982 94.616 50.8446 93.5707 49.5164C93.3998 49.3473 93.1781 49.2391 92.9397 49.2084C92.7012 49.1777 92.4593 49.2263 92.2512 49.3466C90.661 50.2892 89.1548 51.3668 87.7492 52.5674C85.2516 48.5512 85.3576 47.3838 84.2548 47.111C83.0252 46.8036 80.6021 49.6064 79.5423 50.796C79.1584 49.7476 78.7132 48.7227 78.209 47.7266C77.9589 48.4482 77.7112 49.1706 77.4658 49.8938C77.5235 50.0237 78.1413 52.1793 78.3342 52.8149Z" fill="#F4CC69"/>
<path d="M121.9 49.7971C121.392 51.1179 120.758 52.3864 120.006 53.5851C118.98 53.6888 115.209 52.7397 113.506 52.5415C113.302 52.4499 113.072 52.4362 112.858 52.5029C112.645 52.5696 112.463 52.712 112.347 52.9034C111.89 53.7857 109.42 58.1762 108.735 59.5503C108.72 59.5825 108.697 59.6112 108.67 59.6345C108.642 59.6579 108.611 59.6754 108.576 59.6861C108.542 59.6968 108.506 59.7005 108.47 59.6968C108.434 59.6931 108.4 59.6822 108.368 59.6648C107.514 59.2037 104.746 57.6667 104.191 57.4707C103.719 57.2701 103.193 57.2343 102.699 57.3692C101.555 57.6974 98.4367 62.4967 98.4574 62.5021C96.2901 61.3906 94.2721 60.0094 92.4515 58.3914C92.2338 58.1885 91.9472 58.0757 91.6496 58.0757C91.352 58.0757 91.0654 58.1885 90.8477 58.3914C89.2084 59.664 87.5646 60.9274 85.9346 62.2155C84.8441 60.2289 83.7828 58.2238 82.6623 56.2549C82.5955 56.14 82.5067 56.0394 82.4011 55.9588C82.2954 55.8783 82.1748 55.8194 82.0463 55.7855C81.9178 55.7516 81.7839 55.7433 81.6523 55.7612C81.5206 55.7792 81.3937 55.8229 81.279 55.8899C79.8745 56.7511 78.5501 57.7367 77.3219 58.8348C76.7269 57.5658 76.223 56.256 75.8141 54.9154C75.4175 56.1573 75.1808 56.9558 75.0002 57.5429C75.325 58.6651 75.7406 59.759 76.2429 60.8137C76.9154 62.2285 78.0873 60.5647 81.3151 58.4697C82.391 60.5647 83.5276 62.4076 84.6058 64.5025C84.7582 64.7621 85.0071 64.9507 85.2982 65.0272C85.5892 65.1037 85.8988 65.0618 86.159 64.9106C87.9934 63.5119 89.801 62.0794 91.6154 60.6531C93.4314 62.2683 95.4423 63.6501 97.6013 64.7661C99.5295 65.7091 100.147 64.3973 103.507 59.6018C105.512 60.6415 107.232 61.7597 108.195 61.9534C108.504 62.0439 108.831 62.0503 109.143 61.9719C109.455 61.8935 109.74 61.7332 109.969 61.5077C110.673 60.6672 111.278 59.7484 111.771 58.7695C112.41 57.6351 112.924 56.8044 113.941 54.7901C115.695 55.1994 117.469 55.5192 119.256 55.7485C121.382 56.1043 121.523 55.5809 122.063 54.6395C122.514 53.8525 123.421 52.0635 123.502 51.922C123.218 51.4963 122.658 50.8431 121.9 49.7971Z" fill="#F4CC69"/>
<path d="M84.7237 44.4112C86.4759 42.2686 86.8271 41.5032 87.4073 40.78C87.498 40.8838 90.7396 43.3991 92.8499 44.0262C94.9602 44.6533 96.4688 42.7712 98.3401 40.7777C100.137 42.3415 102.262 43.4818 104.558 44.1146C104.774 44.1737 105.003 44.1601 105.211 44.0758C105.418 43.9914 105.592 43.8411 105.705 43.6481C106.373 42.3396 107.115 41.0698 107.927 39.8448C108.278 39.9792 107.5 39.6772 110.951 41.3403C111.19 41.4758 111.473 41.5126 111.74 41.4429C112.006 41.3732 112.235 41.2024 112.378 40.9668C112.787 40.1283 113.223 39.2953 113.626 38.4507C113 38.0895 112.344 37.785 111.664 37.5408C111.428 38.0426 111.203 38.5529 110.972 39.0586C106.582 37.009 107.299 36.6147 104.44 41.7837C102.452 41.0558 100.611 39.9766 99.0049 38.5975C98.7908 38.4508 98.5299 38.3888 98.2727 38.4233C98.0155 38.4578 97.7802 38.5864 97.6123 38.7842C96.205 40.0869 94.6587 41.2309 93.0013 42.1956C92.9805 42.1718 88.4494 38.9441 88.1251 38.7596C87.1652 38.2132 86.3675 39.1631 85.8603 39.8355C85.2931 40.5856 84.7244 41.3326 84.1619 42.0873C83.7889 41.4402 83.41 40.7962 83.0253 40.1552L81.7957 41.0859C82.2814 42.1372 82.777 43.1839 83.2827 44.226C83.3542 44.3464 83.4522 44.4489 83.5692 44.5258C83.6862 44.6027 83.8192 44.6519 83.9581 44.6698C84.0969 44.6876 84.238 44.6736 84.3707 44.6288C84.5034 44.584 84.6241 44.5096 84.7237 44.4112Z" fill="#F4CC69"/>
<path d="M111.544 70.1675C109.798 68.6535 108.099 67.085 106.449 65.4619C106.212 65.2341 105.896 65.1069 105.567 65.1069C105.238 65.1069 104.923 65.2341 104.686 65.4619C102.631 67.3924 97.404 72.1394 96.883 72.6205C96.8684 72.6052 97.3234 73.0048 90.4913 66.2419C90.3046 66.0588 90.0631 65.9417 89.8037 65.9084C89.5443 65.8751 89.2811 65.9275 89.0542 66.0575C86.8332 67.5007 84.6898 68.655 82.4811 70.1167C81.1247 68.3584 77.6926 64.8417 77.5865 64.7817C77.2347 65.6801 77.1666 66.6647 77.3913 67.6029C77.565 67.9618 80.2056 71.0082 81.3691 72.4077C81.6389 72.911 82.1207 73.1716 82.5987 72.8749C84.892 71.4542 87.1813 70.0266 89.4669 68.592C95.8386 75.1789 96.083 75.8298 97.338 75.3818C97.9881 75.1512 97.3587 75.5847 105.532 68.0694C106.618 69.1481 107.723 70.2088 108.844 71.2511C111.977 71.2987 111.514 71.5047 111.544 70.1675Z" fill="#F4CC69"/>
<path d="M105.892 75.1583C105.679 74.9548 105.396 74.8413 105.101 74.8413C104.806 74.8413 104.523 74.9548 104.31 75.1583C102.769 76.6552 101.318 78.2416 99.9631 79.9092C100.427 80.3727 100.849 80.8768 101.223 81.4155C102.443 80.0906 103.771 78.7257 105.077 77.4915C106.129 78.5054 107.222 79.4671 108.358 80.3765C108.629 80.2652 108.908 80.175 109.192 80.1067C109.758 80.0214 110.087 79.4304 110.291 78.7357C108.561 77.4723 106.704 75.9107 105.892 75.1583Z" fill="#F4CC69"/>
<path d="M103.813 22.3163C104.135 22.649 104.473 21.8936 104.134 21.5654C103.783 21.2257 103.212 21.4171 102.848 21.7437C102.661 21.9105 102.711 21.5193 102.897 21.2526C103.916 19.7925 106.056 21.4555 103.719 24.9607C103.49 25.2375 103.206 25.4623 102.883 25.6201C102.618 25.7799 102.261 25.5163 102.261 25.1966C102.261 25.056 102.388 24.5434 102.089 24.505C101.346 24.4035 102.166 26.4846 100.091 30.175C99.9201 30.4778 99.5988 30.7606 99.6296 31.0442C99.6357 31.0965 99.794 31.42 100.008 31.1395C101.193 29.5802 100.085 30.4947 101.571 33.1553C102.471 34.7653 103.124 33.6779 100.495 38.4357C95.7202 47.0891 88.1219 45.506 90.0655 38.8008C91.2029 34.876 91.0645 36.2739 91.2497 36.5137C91.4642 36.7927 91.6586 36.6812 91.7108 36.4368C91.8538 35.8021 90.5904 33.0377 92.3933 33.3982C93.2125 33.5626 93.4961 33.6495 93.4385 33.3213C93.4177 33.203 93.3616 33.0908 93.0112 32.937C92.3249 32.6258 90.4582 31.8865 89.5529 30.5547C87.0729 26.8835 88.477 24.5864 88.1696 23.1532C88.1511 23.064 87.8399 22.8273 87.7084 23.1532C87.567 23.5036 87.8391 23.622 87.3242 24.1845C86.1914 25.4279 85.0771 22.2801 85.3184 20.8845C85.4721 20.0115 86.4619 19.2438 87.245 19.9285C87.4633 20.1191 87.7469 20.561 87.9129 20.697C88.0789 20.833 88.2287 20.5802 88.2203 20.4288C88.1434 19.0954 88.9688 17.0965 88.6453 15.2944C88.6206 15.2356 88.6168 15.1701 88.6346 15.1088C88.6524 15.0476 88.6906 14.9943 88.7429 14.9578C89.0948 14.678 89.3162 14.429 89.204 13.9979C89.0679 13.46 89.2117 13.4776 89.4591 13.5291C89.8864 13.5937 90.2929 13.4023 90.2514 12.8467C90.2614 12.6853 90.1354 12.4401 90.3075 12.4132C91.5933 12.6353 91.2367 11.3412 91.6386 11.76C91.8023 11.9318 92.0181 12.0448 92.2526 12.0812C92.4871 12.1176 92.727 12.0755 92.9351 11.9614C93.3126 11.7851 93.6101 11.4735 93.7689 11.0883C93.9019 10.8332 94.1962 11.0384 94.3122 11.4219C94.3689 11.6107 94.4703 11.783 94.6079 11.9241C94.7454 12.0653 94.915 12.1711 95.1023 12.2326C95.5104 12.3221 95.9349 12.3006 96.3319 12.1704C96.5325 12.1189 96.6731 11.9498 96.7669 11.9967C96.9859 12.1058 97.0389 12.5716 97.6053 12.6115C97.7214 12.6192 97.9634 12.5139 97.9619 12.6115C97.9385 12.7978 97.9684 12.987 98.0481 13.157C98.1278 13.327 98.2541 13.4709 98.4122 13.5722C99.2999 13.9964 99.6188 13.4661 99.8202 13.4907C99.99 13.5122 100.036 13.7274 100.228 13.7858C100.743 13.9395 101.029 13.6113 101.029 13.8765C100.936 14.3013 100.937 14.7412 101.031 15.1658C101.124 15.5904 101.309 15.9895 101.572 16.3357C101.866 16.72 101.803 16.9674 101.887 17.9965C101.926 18.4653 102.292 21.839 102.11 22.586C101.909 23.4037 102.45 23.3829 102.688 23.9885C102.909 24.548 103.245 24.2106 103.339 23.8348C103.425 23.4944 102.74 23.3138 102.904 22.8058C103.092 22.2625 103.398 21.8882 103.813 22.3163ZM100.228 18.6082C100.541 17.9934 98.5275 17.5477 97.8889 17.5323C96.7461 17.5077 95.8831 17.0597 96.056 17.7482C96.3434 18.8949 97.3394 18.0971 98.2847 18.3953C98.8088 18.4668 99.3257 18.5841 99.8294 18.7458C99.8646 18.7629 99.9029 18.773 99.942 18.7754C99.9811 18.7778 100.02 18.7724 100.057 18.7596C100.094 18.7469 100.129 18.7269 100.158 18.7009C100.187 18.6749 100.211 18.6434 100.228 18.6082ZM98.7104 26.9496C98.9925 26.6921 98.6589 25.8737 98.5798 25.6846C98.4537 25.3834 98.1648 25.0998 97.9119 25.2573C97.8906 25.2727 97.8725 25.2921 97.8588 25.3144C97.845 25.3368 97.8357 25.3616 97.8316 25.3875C97.8274 25.4135 97.8285 25.44 97.8346 25.4655C97.8408 25.491 97.8519 25.5151 97.8674 25.5363C98.2301 26.0289 95.2836 26.8735 91.5095 25.6508C91.1252 25.5271 91.823 25.2151 91.2582 25.056C90.8086 24.9292 90.5004 25.7699 90.6011 26.3732C90.6128 26.436 90.6455 26.493 90.6938 26.5348C90.7421 26.5767 90.8031 26.6009 90.867 26.6034C90.9308 26.606 90.9936 26.5869 91.0452 26.5491C91.0967 26.5113 91.1339 26.4572 91.1506 26.3955C91.3128 26.0205 95.2237 27.7227 98.0672 26.4224C98.0967 26.4017 98.1327 26.392 98.1686 26.3951C98.2046 26.3982 98.2383 26.4138 98.2639 26.4393C98.3554 26.5277 98.3223 26.593 98.3969 26.7997C98.466 26.9865 98.6205 27.0334 98.7104 26.9496ZM94.2777 32.0218C98.5521 32.5228 99.3637 28.0086 97.3709 30.5032C96.2573 31.8973 92.922 31.4469 91.9222 30.6361C90.2799 29.3043 92.5754 27.8603 91.5241 28.1001C91.0015 28.2199 90.5973 29.2182 90.7133 29.7654C91.0691 31.4531 92.497 31.8135 94.2777 32.0225V32.0218ZM97.1611 20.8853C97.4823 20.1229 96.5801 19.4251 96.4848 20.501C96.4848 21.4778 97.0128 21.2365 97.1611 20.8853ZM95.7117 24.85C96.6232 24.3297 96.7776 23.9747 96.74 23.7219C96.7023 23.469 96.4748 23.3153 96.1882 23.5766C95.9743 23.8416 95.7016 24.0531 95.3917 24.1943C95.0818 24.3354 94.7432 24.4023 94.4029 24.3897C94.183 24.3457 93.9745 24.2568 93.7904 24.1285C93.6064 24.0002 93.4509 23.8353 93.3335 23.6442C93.2161 23.453 93.1395 23.2397 93.1083 23.0175C93.0772 22.7954 93.0923 22.5692 93.1526 22.3531C93.3385 21.8713 93.6905 20.936 93.855 20.3158C93.9826 19.8309 93.6621 19.4705 93.4776 19.7379C93.3678 19.897 93.181 20.4718 93.0219 20.8184C92.3595 22.2571 92.0313 23.2923 93.005 24.5073C93.3377 24.8832 93.7957 25.1253 94.2937 25.1885C94.7917 25.2517 95.2957 25.1317 95.7117 24.8508V24.85ZM92.5946 18.1033C92.8306 18.1947 93.0811 18.0641 93.0757 17.9603C93.0342 17.2341 93.0112 16.9997 92.4863 16.9982C90.4881 17.3609 90.6887 17.3824 89.7634 17.852C89.5329 17.9688 89.2385 18.4914 89.4691 18.6973C89.848 19.0355 89.7719 18.2462 90.4874 18.2362C91.1641 17.9985 91.8935 17.9528 92.5946 18.1041V18.1033ZM92.082 20.6547C92.1355 20.5234 92.1732 20.3861 92.1942 20.2459C92.0697 19.1054 91.0968 19.8255 91.5971 20.6755C91.6185 20.7232 91.6538 20.7633 91.6982 20.7907C91.7427 20.8182 91.7944 20.8317 91.8466 20.8294C91.8988 20.8272 91.9492 20.8093 91.9911 20.7782C92.0331 20.7471 92.0648 20.7041 92.082 20.6547ZM87.3411 22.7105C87.5099 22.4852 87.6117 22.2168 87.6348 21.9362C87.6579 21.6556 87.6014 21.3742 87.4717 21.1243C87.3967 20.9137 87.2417 20.7412 87.0403 20.6441C86.8389 20.547 86.6074 20.5331 86.3958 20.6056C86.2462 20.6538 86.1148 20.7462 86.0187 20.8706C85.9227 20.995 85.8666 21.1457 85.8579 21.3026C85.8702 21.5178 86.0116 21.7299 86.2421 21.5162C86.3297 21.4394 86.4327 20.9483 86.8208 21.3625C87.3741 21.9558 86.6671 22.0542 86.7939 22.6436C86.8623 22.9764 87.1121 22.9134 87.3411 22.7128V22.7105Z" fill="#FFCEB6"/>
<path d="M109.872 71.8963C116.421 72.1998 116.752 71.7426 116.364 72.4096C115.455 73.9774 115.808 74.3309 113.738 74.2579C112.936 74.2287 94.9047 73.866 94.4775 73.8621C93.2624 73.8498 93.3393 73.6093 93.2886 73.0513C93.2117 72.2114 93.4776 71.9078 93.7558 71.8148C94.034 71.7218 109.851 71.8947 109.872 71.8963Z" fill="#82A8D1"/>
<path d="M114.215 74.7976C115.07 74.7853 114.772 74.8161 114.536 75.3825C114.306 75.9358 113.922 76.0549 113.324 76.0295C107.252 75.7721 103.066 75.799 100.283 75.7805C96.5532 75.7598 95.5181 75.9973 94.934 76.7366C94.9194 76.755 87.6408 84.5684 85.7887 88.9705C85.5362 89.5934 85.41 90.2603 85.4175 90.9325C85.4175 94.5583 85.4775 94.4999 85.1662 94.4768C83.3456 94.3439 83.2719 94.4999 83.2665 94.0926C83.1896 87.6617 83.5693 88.1405 91.1353 78.4803C91.9791 77.3107 92.889 76.1902 93.8604 75.1242C94.3146 74.6976 94.9056 74.4462 95.5281 74.4149C95.694 74.4072 111.793 74.8345 114.215 74.7976Z" fill="#D8E9FF"/>
<path d="M120.337 82.1048C118.39 81.2341 119.437 83.0485 127.702 72.6268C130.545 69.0417 129.817 68.8611 127.787 64.0533C125.431 58.4678 125.212 60.24 126.756 58.842C128.328 57.4188 126.842 56.5772 123.576 50.9894C122.072 48.4157 120.899 47.8385 119.552 45.1703C116.644 39.4065 115.379 38.1269 111.154 36.6444C108.876 35.8452 110.583 35.2527 105.511 34.4519C105.141 34.3942 105.463 33.9908 104.859 33.5873C102.196 31.7936 102.375 34.6017 101.303 30.7377C100.799 28.9232 101.593 29.1238 102.06 26.4694C102.152 25.9468 102.352 26.4279 102.991 26.2288C104.63 25.7185 105.485 23.2155 105.326 21.6854C105.089 19.4006 103.399 20.8539 104.227 19.1424C104.552 18.4707 104.176 18.2448 104.528 17.7675C105.163 16.9053 105.615 16.936 105.795 16.1329C105.959 15.4013 105.357 15.2768 105.689 15.0132C105.874 14.9211 106.026 14.7749 106.126 14.5941C106.226 14.4133 106.268 14.2065 106.247 14.0011C106.207 13.4078 105.65 13.2794 105.669 13.1319C105.704 12.8522 106.398 12.7523 106.452 11.9791C106.488 11.6983 106.416 11.4145 106.252 11.1841C106.087 10.9538 105.842 10.794 105.565 10.7365C104.992 10.612 106.077 8.11814 103.802 8.15042C103.522 8.15042 103.556 7.87683 103.541 7.62322C103.472 6.49736 102.647 5.53211 101.081 6.11387C100.808 6.21531 100.812 5.95172 100.729 5.71117C100.636 5.35213 100.436 5.02983 100.155 4.78663C99.8752 4.54344 99.5279 4.39074 99.1592 4.34861C98.9175 4.30074 98.6671 4.32472 98.4389 4.4176C98.2107 4.51047 98.0147 4.66816 97.8751 4.87119C97.7314 5.03873 97.593 4.6514 97.3071 4.41547C96.9805 4.15441 96.5642 4.03226 96.1483 4.0754C95.7323 4.11853 95.35 4.32348 95.0838 4.64602C94.8932 4.82278 94.8126 4.66446 94.5297 4.45389C93.8004 3.90748 92.9505 4.47234 92.5823 5.08637C92.3987 5.39378 92.3172 5.18167 91.85 5.06332C91.6341 5.00646 91.4076 5.00357 91.1903 5.0549C90.9731 5.10622 90.7718 5.2102 90.6042 5.35766C89.7996 5.99859 89.9379 6.61801 89.7719 6.66874C89.4192 6.77556 88.9527 6.00628 88.2049 6.66874C87.2481 7.51409 88.0512 8.05205 87.3872 7.88221C86.5764 7.67318 85.5774 8.51623 85.9232 9.825C86.1038 10.5097 86.2821 10.3414 85.4836 10.6504C85.3376 10.7286 85.2105 10.8381 85.1115 10.9709C85.0125 11.1038 84.944 11.2568 84.9108 11.4191C84.8775 11.5814 84.8804 11.7491 84.9193 11.9101C84.9581 12.0712 85.0319 12.2218 85.1355 12.3511C85.5082 12.9659 83.6354 12.9144 84.513 14.5798C84.8873 15.2891 85.5205 15.2 85.4483 15.6872C84.752 16.8107 86.3536 16.84 86.3382 17.4232C86.3006 18.7904 86.9476 18.888 86.226 19.0325C85.0087 19.2754 84.5522 20.3705 84.6352 21.6708C84.6856 22.6963 85.0443 23.6828 85.6642 24.5012C85.8453 24.7489 86.0997 24.9334 86.3915 25.0283C86.6832 25.1232 86.9975 25.1238 87.2896 25.03C87.9813 24.7571 86.6372 26.1105 88.5907 30.1021C89.5298 32.0234 90.5704 32.1056 90.6657 32.7773C90.9808 34.9983 90.9923 34.9775 90.6841 35.185C83.816 39.8107 81.8394 38.2383 79.2011 43.5864C76.1424 49.7859 75.2509 55.9978 73.166 60.4375C72.1792 62.537 74.7191 63.2556 74.0636 64.2239C71.9886 67.2918 70.7098 66.6647 68.0738 70.8961C67.8033 71.3303 68.0554 71.1797 61.2164 71.036C59.372 70.9968 57.9887 70.9491 57.6044 71.3734C56.5869 72.5061 57.4807 73.257 56.8682 73.2585C52.1173 73.27 46.8584 75.5218 45.1192 80.1874C43.9665 83.2845 44.0141 83.9938 42.3657 87.044C40.4244 90.636 40.8986 90.8551 39.9679 91.217C36.9992 92.3698 36.3859 95.5806 32.3943 107.227C30.1041 113.913 32.0331 107.488 27.8047 121.018C27.6718 121.442 25.4462 121.094 23.9322 120.901C22.2315 120.687 21.5398 120.861 21.0203 121.286C20.4693 121.736 19.9252 121.363 19.5002 122.038C19.2131 122.508 19.0497 123.043 19.0253 123.594C19.0264 123.75 19.0033 123.905 18.9569 124.055C18.2875 125.444 21.8549 126.591 21.5906 127.257C20.5185 129.977 20.085 130.517 20.8651 131.114C21.3033 131.4 21.7663 131.647 22.2484 131.85C23.5041 132.393 25.347 133.124 27.3129 133.844C44.0218 139.96 54.4581 144.094 55.1659 144.065C55.8634 143.973 56.5545 143.839 57.2355 143.662C57.5194 143.617 57.7796 143.477 57.9747 143.266C58.1697 143.054 58.2883 142.784 58.3115 142.497C58.3368 142.181 58.7011 142.504 59.3758 142.574C59.8047 142.619 59.983 142.381 60.1259 141.938C60.8737 139.625 62.4222 133.068 62.4368 132.793C62.456 132.421 63.0416 132.524 63.5896 132.083C65.0659 130.894 64.9975 129.729 65.4025 127.856C65.8229 125.914 64.7485 125.357 65.4832 123.717C65.9449 122.859 66.3623 121.978 66.7335 121.077C70.6222 106.665 69.6101 113.415 72.0785 105.618C72.9523 102.858 71.7611 99.822 72.8993 99.7836C74.1935 99.7406 74.1204 99.5638 74.1189 100.029C74.1059 103.432 74.1335 103.41 73.8553 103.604C73.3904 103.928 73.4803 104.156 73.4488 107.551L73.3973 114.026C73.3973 115.071 74.0282 114.786 74.019 115.409C73.9322 121.615 73.8484 121.875 74.6853 122.172C74.716 122.183 75.3724 122.464 75.377 122.692C75.377 123.026 75.7505 123.395 75.7005 123.648C75.1909 124.279 74.7785 124.982 74.477 125.735C74.0244 126.811 73.0169 125.959 70.2026 127.942C66.4907 130.559 64.3719 135.605 64.7692 140.211C66.1249 155.94 86.7578 151.897 84.8842 134.916C84.5777 132.502 83.4627 130.263 81.721 128.563C81.4136 128.295 81.3644 128.122 81.638 126.93C82.3089 124.009 78.3204 124.31 77.8677 122.738C77.6771 122.074 78.6454 122.439 78.6785 121.519C78.6913 121.153 78.7386 120.789 78.8199 120.432C79.7221 120.834 85.8979 126.695 86.7301 126.88C89.6728 127.533 92.7345 126.662 92.8214 127.45C92.9604 128.719 96.8944 137.542 102.751 141.594C110.795 147.157 121.008 146.129 128.279 136.279C130.224 133.548 131.801 130.573 132.967 127.429C138.48 113.259 134.293 88.3489 120.337 82.1048ZM128.76 67.9642C129.221 69.5781 129.199 70.3566 123.073 77.1095C120.455 79.9715 117.657 82.6639 114.696 85.1704C114.51 85.3241 114.375 85.3425 114.274 85.2995C114.075 85.1643 113.907 84.9873 113.784 84.7808C113.779 84.6316 113.789 84.4823 113.813 84.335C113.858 84.0134 113.812 83.6855 113.68 83.3888C113.548 83.0921 113.335 82.8384 113.066 82.6566C112.807 82.4769 112.506 82.3661 112.193 82.3346C111.879 82.3032 111.562 82.3521 111.272 82.4768C111.143 82.5444 111.018 82.5713 110.646 82.3315C109.801 81.7851 111.732 82.3484 118.071 70.5434C119.263 68.3239 120.187 68.5214 116.414 62.6623C116.167 62.278 116.26 62.4832 117.208 61.8285C119.796 60.0363 119.874 59.7935 121.599 59.3831C122.554 59.1622 123.471 58.7995 124.319 58.3072C124.618 58.1319 128.693 67.7322 128.76 67.965V67.9642ZM112.133 85.9474C112.544 85.9865 112.856 85.6476 113.035 85.8913C113.342 86.3109 113.566 86.2071 113.396 86.4138C112.225 87.8294 113.26 89.3595 111.326 92.316C111.05 92.7371 110.793 92.5896 109.835 93.0499C109.032 93.4342 108.794 92.6541 107.755 93.2805C106.82 93.8446 106.36 93.0968 105.718 93.7885C105.346 94.1907 104.938 94.5592 104.5 94.8897C103.264 95.0519 104.27 94.1981 105.005 90.8166C105.26 89.6508 105.403 89.9375 105.536 89.3818C105.539 89.3273 105.525 89.2732 105.495 89.2273C105.466 89.1814 105.423 89.1461 105.372 89.1266C105.321 89.1071 105.265 89.1044 105.212 89.119C105.159 89.1335 105.113 89.1645 105.079 89.2074C104.587 89.6533 104.171 90.1772 103.849 90.7582C103.477 91.4291 102.587 92.7725 102.06 92.8332C101.914 92.8501 101.576 92.9393 101.416 92.6634C101.245 92.3667 101.877 91.7096 101.954 91.4768C102.275 90.6876 102.685 89.9376 103.176 89.2412C103.413 88.5417 103.705 87.862 104.049 87.2085C105.35 85.4294 106.845 85.2764 108.844 83.7248C109.505 83.2115 109.3 83.2007 109.497 83.2683C109.796 83.331 110.072 83.4752 110.293 83.6849C110.299 84.0096 110.333 84.3332 110.397 84.6516C110.537 85.0081 110.774 85.3184 111.081 85.5479C111.387 85.7773 111.752 85.9167 112.133 85.9504V85.9474ZM110.992 83.9492C111.008 83.8113 111.051 83.6778 111.118 83.5564C111.186 83.4351 111.277 83.3282 111.386 83.2419C111.494 83.1557 111.619 83.0917 111.753 83.0536C111.886 83.0155 112.026 83.0042 112.164 83.0201C112.302 83.036 112.435 83.079 112.557 83.1465C112.678 83.2141 112.785 83.3048 112.871 83.4137C112.958 83.5225 113.022 83.6472 113.06 83.7808C113.098 83.9144 113.109 84.0541 113.093 84.1921C113.075 85.6246 110.95 85.3925 110.992 83.9508V83.9492ZM118.32 104.084C120.01 102.277 120.68 101.077 120.387 102.101C120.233 102.647 119.578 104.362 119.132 105.862C118.957 106.453 119.439 106.696 119.663 106.044C121.763 99.875 121.785 99.9096 122.034 99.5961C125.631 95.0749 125.824 95.1625 125.804 94.8452C125.71 94.557 125.52 94.5485 124.991 95.1272C124.449 95.7197 123.616 96.6388 122.577 97.8815C122.424 97.7155 124.366 92.2799 124.373 92.2591C124.502 91.9171 124.753 92.1738 124.927 92.5158C125.483 93.3595 125.985 94.2379 126.428 95.1456C128.196 98.5824 129.452 102.331 130.076 109.151C130.218 113.176 130.368 115.112 128.987 121.645C128.246 125.171 126.868 128.532 124.92 131.564C123.537 134.016 121.659 136.152 119.404 137.838C106.765 146.414 93.1887 123.059 98.6274 103.639C100.632 96.4828 104.291 91.5844 103.829 92.7118C103.575 93.2977 103.382 93.908 103.252 94.5331C103.066 95.5322 104.115 95.8196 104.764 95.4769C105.272 95.1979 105.716 94.8172 106.07 94.3587C106.525 93.79 106.993 94.5524 108.047 93.8838C108.773 93.4226 109.194 94.0951 110.092 93.6824C111.199 93.1736 111.542 93.259 111.873 92.6518C112.198 92.1705 112.488 91.6666 112.74 91.144C113.547 88.6248 113.068 89.3887 113.522 87.3783C113.614 86.971 114.055 86.7889 114.864 85.9243C114.969 85.8106 115.103 85.7276 115.252 85.6842C115.401 85.6407 115.559 85.6385 115.709 85.6776C120.858 87.0509 124.207 91.0956 123.888 91.6505C123.762 91.8703 123.908 91.4791 121.806 97.7109C121.146 99.6706 121.481 99.2802 120.087 101.043C118.658 102.854 118.096 103.403 117.822 103.906C117.657 104.221 118.002 104.422 118.32 104.086V104.084ZM102.113 89.8529C101.919 90.3376 101.697 90.8106 101.448 91.2693C100.893 92.1339 100.722 92.5243 100.94 92.9124C101.034 93.1031 101.187 93.2587 101.376 93.3564C101.566 93.4542 101.781 93.4889 101.991 93.4557C102.369 93.4011 102.211 93.6232 101.459 94.8951C85.8318 121.286 112.544 160.454 127.569 128.129C133.773 114.782 130.826 92.7133 119.624 86.5614C116.866 85.0467 115.316 85.4609 116.567 84.3758C118.299 82.8741 129.621 89.2735 131.789 105.14C132.845 112.861 132.212 122.8 128.598 129.878C128.367 130.339 126.907 132.823 125.808 134.372C122.241 139.408 117.521 141.734 113.68 141.795C108.026 141.883 100.682 137.568 97.105 127.057C96.2365 124.721 95.5351 122.327 95.0062 119.892C94.4875 117.158 94.7057 112.744 94.5851 112.744C94.7042 103.654 97.5823 95.546 101.184 90.5538C101.522 89.9845 101.949 89.4737 102.45 89.0414C102.362 89.322 102.249 89.5944 102.113 89.8552V89.8529ZM103.189 79.8523C103.776 80.4331 104.273 81.098 104.664 81.8251C104.756 81.9719 104.664 82.0349 104.556 82.1087C100.691 84.7116 103.766 83.452 99.5128 79.4627C97.8943 77.9449 98.0088 78.6411 94.8917 77.8388C94.7465 77.8012 94.7611 77.7059 94.8479 77.6129C95.7079 76.6945 95.6879 76.3402 97.8389 76.2588C98.7535 76.2234 103.438 76.112 109.387 76.4286C110.637 76.4947 110.625 76.3202 110.606 76.9343C110.488 78.0025 110.257 79.9438 109.196 80.1036C107.945 80.5083 106.725 81.0032 105.546 81.5845C105.116 81.8281 105.553 81.374 103.762 79.4381C103.169 78.8025 102.442 79.2052 103.185 79.8546L103.189 79.8523ZM89.5536 115.783C90.9885 116.97 90.5681 116.678 90.6296 117.138C90.8447 118.795 91.0645 119.623 90.7018 119.315C78.5878 109.056 79.1342 109.806 79.1995 109.325C79.5553 106.676 77.0515 105.454 89.5498 115.785L89.5536 115.783ZM90.5527 115.516C89.7197 115.201 91.312 116.381 80.9563 107.851C79.5023 106.653 79.2249 106.633 79.2871 106.155C79.2948 106.094 79.2871 103.754 78.9382 103.618C78.5893 103.483 78.6585 103.469 78.6308 101.099C78.6255 100.528 78.5132 100.306 79.042 100.254C79.5031 100.206 86.8485 100.325 92.0106 100.436C92.4978 100.447 91.8323 101.027 91.2136 105.378C90.4313 110.887 90.7072 113.695 90.5512 115.518L90.5527 115.516ZM92.1666 99.6891C91.9422 99.6845 79.3886 99.4985 78.8714 99.5215C77.9668 99.5607 78.0683 99.5915 78.1743 99.3056C78.5202 98.3703 78.6124 96.1608 77.996 95.3608C77.7432 95.0327 77.3935 95.0181 78.1766 94.9589L93.5361 95.4968C94.0694 95.536 93.9303 95.2086 92.6669 99.1465C92.5701 99.4593 92.474 99.6975 92.1674 99.6914L92.1666 99.6891ZM77.8915 103.808C77.1294 103.922 76.3615 103.994 75.5914 104.023C74.7306 103.983 74.7283 104.009 74.726 103.138C74.7183 99.6414 74.5892 99.6576 75.0227 99.6414C76.7903 99.5746 76.7488 99.457 76.9893 99.7452C77.5595 100.429 77.9776 99.9588 77.9745 100.561C77.9576 103.514 78.0268 103.803 77.8923 103.811L77.8915 103.808ZM73.0883 95.9172C72.8101 95.9172 72.7172 95.9549 72.8739 95.3793C73.209 94.1543 73.5956 94.9182 74.2888 94.2572C74.7714 93.7961 74.9381 94.0036 76.8433 94.4563C77.1384 94.5262 76.8633 94.6177 76.7111 95.1141C76.5413 95.6721 77.4127 95.6436 73.0891 95.9195L73.0883 95.9172ZM75.0865 92.6319C75.3823 89.909 74.5885 90.1396 73.5986 85.6246C73.3681 84.5833 72.1485 85.2073 73.9306 89.4425C74.4801 90.749 74.849 93.4764 73.4057 93.9099C73.0983 94.0029 73.2121 93.9375 72.8793 92.17C72.6536 91.4692 72.3439 90.7983 71.9571 90.1719C70.7075 87.7318 71.2439 87.8202 69.647 85.5677C68.0976 83.3821 68.1576 83.3613 67.7534 83.3736C66.712 83.4051 68.3151 84.2098 70.1488 87.8248C70.364 88.6395 70.7036 89.4161 71.1555 90.1273C71.9406 91.3283 72.366 92.7287 72.3813 94.1635C72.3936 94.5116 72.0885 95.3562 72.0555 95.7605C72.0286 96.0986 71.9387 96.0279 71.4799 96.117C69.1851 96.5612 67.844 97.4412 67.0709 98.6147C65.2741 101.34 63.9761 107.129 60.4395 121.286C60.3111 121.8 55.9498 118.079 55.6678 117.981C55.3465 117.868 55.2482 118.157 55.3066 118.265C55.8445 119.265 58.0194 120.681 59.88 121.992C60.2204 122.232 60.3349 122.245 58.7741 126.866C58.5266 127.6 52.304 122.14 51.3057 121.739C49.3552 120.954 49.077 121.631 49.3276 121.057C49.831 119.904 49.4598 120.02 49.5581 118.236C49.635 116.815 50.6825 117.736 53.8034 115.426C53.851 115.39 54.7402 114.58 54.4182 114.273C54.0962 113.966 53.9064 114.462 52.9373 115.214C52.0996 115.866 51.9244 115.968 52.2387 114.753C52.5615 113.507 53.2892 110.629 54.349 105.825C54.837 103.612 55.2543 98.9851 55.3942 97.7732C56.8859 84.8 55.8138 84.2167 57.4277 80.1782C58.811 76.7199 59.3182 75.0038 63.0109 73.8556C64.1212 73.6028 65.2708 73.574 66.3923 73.7711C76.9701 74.8816 69.2973 73.2939 90.3444 77.3646C91.4296 77.5752 91.6832 76.9212 89.8611 79.1883C89.8441 79.2091 86.0808 83.7087 84.2717 86.4446C81.522 90.603 83.3602 94.4271 82.2351 94.3602C77.6395 94.0905 77.7363 94.2173 77.3843 93.8476C74.7314 93.2067 74.995 93.4726 75.0865 92.6342V92.6319ZM33.2627 126.411C33.4932 125.934 33.5778 125.755 34.4346 125.854C38.4417 126.316 53.34 132.144 55.3565 133.623C55.5625 133.777 55.126 133.685 54.0063 135.254C53.7911 135.555 53.818 135.352 52.1688 134.573C43.427 130.444 38.5323 128.775 35.901 128.006C33.7414 127.375 33.1028 127.35 33.0951 127.083C33.0865 126.848 33.1445 126.615 33.2627 126.411ZM33.703 128.053C37.4234 128.717 52.9073 135.468 53.5044 136.104C53.197 137.009 53.0341 137.472 52.762 137.33C51.7322 136.792 46.076 134.871 41.0807 132.815C38.7966 131.908 36.576 130.849 34.4339 129.644C34.0035 129.323 33.6418 128.918 33.3703 128.455C33.0383 127.916 33.4978 128.015 33.703 128.053ZM53.6189 137.711C55.4026 132.716 57.7128 134.299 59.5418 134.731C59.7922 134.875 60.0087 135.072 60.1768 135.307C60.3449 135.542 60.4607 135.81 60.5163 136.094C59.6567 135.635 58.6974 135.394 57.7228 135.392C55.6263 135.594 55.0876 137.805 54.502 139.872C54.4289 140.131 54.3006 140.078 53.2662 139.313C53.1048 139.194 53.1102 139.136 53.6189 137.711ZM56.9105 132.942C56.7944 133.424 56.1197 133.556 56.0121 133.354C55.7047 132.777 55.292 132.856 53.529 131.993C38.8551 124.809 33.0867 125.625 36.2929 125.021C38.4086 125.289 40.5866 125.922 42.3987 125.465C43.8358 125.102 43.3263 124.276 46.6024 126.166C47.2641 126.55 48.1495 125.771 44.8518 124.503C44.9955 124.335 45.1915 124.222 45.408 124.18C45.6245 124.138 45.8488 124.171 46.0445 124.272C46.9137 124.733 47.9712 125.354 48.1495 125.176C48.7289 124.6 46.6378 123.818 46.6171 123.803C46.3865 123.639 46.4449 123.602 46.5855 123.496C47.2211 123.007 47.4309 123.279 49.0448 124.104C49.864 124.522 49.864 123.927 49.3706 123.547C48.4169 122.815 47.5954 122.818 47.8982 122.631C51.0667 120.674 52.2533 124.155 58.1724 127.561C58.7011 127.861 58.7564 127.292 56.9105 132.942ZM91.2236 94.6569C86.8869 94.5032 86.0938 94.6392 85.9885 94.2811C85.954 94.1627 85.9778 91.9333 85.9701 91.3446C85.9459 90.2964 86.1907 89.2596 86.681 88.3328C88.0141 86.1413 89.4798 84.0331 91.0699 82.0203C91.6478 81.2871 91.0054 82.1309 93.8819 78.7019C94.0748 78.4713 94.2408 78.3091 94.4375 78.3783C97.7329 79.5365 98.8949 77.8619 101.665 83.8286C102.111 84.7869 99.7856 84.023 94.4091 94.4801C94.22 94.8475 94.3553 94.766 91.2236 94.6569ZM112.665 66.232C113.3 63.6229 112.804 61.9583 113.188 62.5347C113.201 62.5555 113.902 63.6729 113.913 63.7121C113.999 64.0195 113.875 64.4153 113.955 64.4276C112.959 72.3109 113.832 71.3549 112.264 71.2266C112.153 70.3458 112.26 69.4513 112.575 68.6213C112.864 67.5539 112.454 67.0874 112.662 66.232H112.665ZM113.918 69.8502C114.071 68.5729 114.284 67.0443 114.533 64.3569C115.148 64.2734 115.77 64.2464 116.391 64.2762C116.612 64.2677 115.988 71.0928 115.987 71.1159C115.97 71.298 115.961 71.3995 115.735 71.3895C113.985 71.3126 113.825 71.5002 113.891 71.056C113.908 70.9553 114.037 69.8648 113.915 69.8502H113.918ZM116.367 72.4093C115.459 73.9771 115.811 74.3306 113.741 74.2576C112.939 74.2284 94.9079 73.8656 94.4806 73.8618C93.2655 73.8495 93.3424 73.6089 93.2917 73.051C93.2148 72.211 93.4807 71.9075 93.7589 71.8145C94.0371 71.7215 109.855 71.8913 109.875 71.8959C116.421 72.1749 116.751 71.7399 116.367 72.4093ZM113.754 76.5838C112.809 78.4175 113.001 77.4223 112.956 77.4161C113.103 76.4225 112.964 76.5362 113.754 76.5838ZM110.834 79.382C111.679 76.8674 110.68 76.4617 112.037 76.5569C112.383 76.5823 112.498 76.4801 112.225 77.775C111.807 79.7509 111.877 79.6963 111.136 79.7555C110.691 79.7885 110.695 79.7901 110.834 79.382ZM116.622 71.0237C117.129 67.2518 116.836 65.5734 117.151 65.1945C117.255 65.2914 118.823 67.8467 118.457 68.5376C117.754 69.8755 116.621 72.4516 116.621 71.0237H116.622ZM86.588 16.5856C86.2037 16.3066 85.7126 16.1829 86.1568 15.681C86.4742 15.2707 86.3935 15.1431 85.9201 14.951C85.3438 14.7143 84.6536 13.9404 85.1278 13.5553C85.426 13.3133 85.7272 13.1711 85.9201 12.9997C85.9841 12.9499 86.0363 12.8866 86.0733 12.8145C86.1103 12.7424 86.1311 12.663 86.1342 12.582C86.1374 12.501 86.1228 12.4203 86.0915 12.3455C86.0603 12.2707 86.013 12.2036 85.9532 12.149C85.064 11.3259 86.0131 11.2268 86.6279 10.9355C86.9738 10.7718 87.0637 10.7657 86.7724 10.187C86.2291 9.11106 86.6564 8.28952 87.4802 8.61537C87.8576 8.76446 88.3325 9.1587 88.407 8.46781C88.2203 7.69239 88.3824 7.51794 88.4777 7.37269C88.6752 7.07066 89.1041 7.14214 89.4422 7.31044C89.8926 7.53561 90.3429 7.94369 90.5312 7.43724C90.7057 6.96692 90.0801 6.76249 91.1383 5.87333C91.5994 5.48907 91.9837 5.74422 92.2665 6.01627C92.61 6.34903 92.8621 6.75327 93.1626 5.64969C93.244 5.35074 93.7551 4.85198 94.144 5.13479C94.4952 5.39147 94.8318 6.1131 95.3236 5.44219C95.6241 5.03335 95.8362 4.68982 96.431 4.76206C96.5594 4.76546 96.6858 4.79508 96.8023 4.84912C96.9188 4.90315 97.023 4.98046 97.1085 5.07627C97.194 5.17208 97.259 5.28438 97.2995 5.40626C97.34 5.52813 97.3552 5.65701 97.344 5.78495C97.3179 6.08774 97.7583 6.37132 97.9588 5.88024C98.2547 5.1663 98.745 4.72748 99.3998 5.13325C100.651 5.91483 99.9731 7.67856 101.121 6.87162C102.269 6.06469 103.076 7.23589 102.837 8.34793C102.799 8.52161 102.661 8.99194 103.181 8.95812C103.554 8.93353 104.599 8.37252 104.705 9.5176C104.782 10.3368 104.595 11.0754 105.012 11.1645C105.652 11.3013 105.742 11.5834 105.774 11.7601C105.829 12.0675 105.726 12.2927 105.377 12.5455C104.855 12.9252 104.507 13.1119 105.139 13.5039C105.523 13.7444 105.713 14.1071 105.16 14.4929C104.724 14.7588 104.633 14.8603 104.913 15.3145C105.009 15.4276 105.071 15.5662 105.09 15.7135C105.109 15.8608 105.085 16.0105 105.021 16.1445C104.697 16.737 103.61 17.2749 103.667 18.2094C103.694 18.6591 103.584 19.1066 103.349 19.4913C103.092 19.9117 102.76 20.1753 102.721 19.8856C102.713 19.8295 102.413 16.7685 102.402 16.6916C102.335 16.2924 102.153 15.9217 101.877 15.6257C101.577 14.9478 101.525 14.1863 101.729 13.4739C101.758 13.2941 101.565 13.1427 101.204 13.138C100.759 13.1327 100.406 13.2149 100.436 12.8852C100.453 12.6985 100.402 12.4733 100.205 12.4203C99.8378 12.3242 99.8317 12.6132 99.4482 12.9229C99.3824 12.9823 99.3015 13.0223 99.2143 13.0384C99.1272 13.0546 99.0372 13.0463 98.9545 13.0145C98.8718 12.9826 98.7995 12.9285 98.7457 12.858C98.6919 12.7876 98.6587 12.7036 98.6497 12.6155C98.5921 11.9238 98.7358 11.5472 98.0956 11.7985C97.5938 11.996 97.2802 11.674 97.3225 11.3374C97.407 10.6573 96.8437 10.5413 96.5586 11.1199C96.3442 11.5557 95.2583 11.9553 94.9202 11.1199C94.7319 10.6588 94.9839 10.1163 94.459 10.2346C94.3053 10.2684 93.9311 10.542 93.905 10.137C93.8904 9.90032 93.7144 9.83422 93.5007 9.83807C92.972 9.84882 93.6206 10.9401 92.5785 11.3128C92.0183 11.5134 91.6186 10.8586 91.4611 10.7157C91.2351 10.5105 90.9823 10.5489 90.9231 10.8417C90.897 10.977 90.9231 11.1199 90.9062 11.2567C90.8294 12.0176 90.0478 11.7732 89.9932 11.7816C89.6513 11.8347 89.5867 12.1736 89.672 12.7938C89.629 13.4854 88.3279 12.1874 88.6099 13.613C88.8174 14.6605 87.5755 14.4583 87.9528 15.3652C88.2518 16.083 87.6816 20.1415 87.4387 19.3161C87.1442 18.6406 86.9767 17.9166 86.9446 17.1804C86.9822 16.7639 86.7793 16.7239 86.588 16.5856ZM91.2528 36.5099C91.4672 36.7889 91.6617 36.6775 91.7139 36.4331C91.8561 35.7983 90.5934 33.034 92.3964 33.3944C93.2156 33.5589 93.4992 33.6457 93.4415 33.3176C93.4208 33.1992 93.3647 33.087 93.0142 32.9333C92.328 32.6221 90.4613 31.8827 89.556 30.5509C87.0706 26.8728 88.48 24.5919 88.1726 23.1494C88.1534 23.0603 87.8422 22.8236 87.7115 23.1494C87.5701 23.4999 87.8422 23.6182 87.3273 24.1807C86.1937 25.4242 85.0802 22.2764 85.3215 20.8808C85.4752 20.0077 86.465 19.2392 87.2481 19.9247C87.4664 20.1153 87.75 20.5572 87.916 20.6933C88.082 20.8293 88.2318 20.5764 88.2234 20.425C88.1465 19.0917 88.9719 17.0928 88.6483 15.2906C88.6235 15.2318 88.6197 15.1663 88.6375 15.105C88.6553 15.0437 88.6935 14.9904 88.7459 14.954C89.0979 14.6743 89.3193 14.4253 89.2071 13.9942C89.071 13.4562 89.2147 13.4739 89.4622 13.5254C89.8895 13.5899 90.296 13.3986 90.2545 12.8429C90.2653 12.6816 90.1385 12.4364 90.3106 12.4095C91.5963 12.6316 91.2398 11.3374 91.6417 11.7563C91.8053 11.9281 92.0212 12.041 92.2557 12.0774C92.4902 12.1138 92.7301 12.0717 92.9382 11.9576C93.3157 11.7813 93.6132 11.4698 93.772 11.0846C93.9049 10.8294 94.1993 11.0346 94.3153 11.4181C94.372 11.6069 94.4734 11.7792 94.6109 11.9204C94.7485 12.0615 94.9181 12.1674 95.1054 12.2289C95.5134 12.3183 95.938 12.2968 96.335 12.1666C96.5356 12.1152 96.6762 11.9461 96.77 11.993C96.9897 12.1021 97.042 12.5678 97.6084 12.6078C97.7244 12.6155 97.9665 12.5102 97.965 12.6078C97.9414 12.7941 97.9712 12.9833 98.051 13.1533C98.1307 13.3234 98.257 13.4673 98.4153 13.5684C99.303 13.9926 99.6219 13.4624 99.8232 13.4869C99.9931 13.5085 100.039 13.7236 100.231 13.7821C100.746 13.9358 101.032 13.6076 101.032 13.8727C100.939 14.2976 100.94 14.7374 101.034 15.162C101.128 15.5866 101.312 15.9858 101.575 16.332C101.869 16.7162 101.806 16.9637 101.891 17.9927C101.929 18.4615 102.296 21.8353 102.113 22.5823C101.912 23.3999 102.453 23.3792 102.691 23.9848C102.912 24.5443 103.248 24.2069 103.342 23.8311C103.428 23.4906 102.743 23.31 102.907 22.802C103.082 22.2602 103.388 21.8867 103.803 22.3148C104.125 22.6476 104.464 21.8921 104.125 21.564C103.773 21.2243 103.202 21.4157 102.839 21.7423C102.652 21.909 102.701 21.5179 102.888 21.2512C103.907 19.791 106.047 21.4541 103.71 24.9592C103.481 25.236 103.196 25.4608 102.874 25.6186C102.608 25.7785 102.252 25.5149 102.252 25.1952C102.252 25.0545 102.379 24.5419 102.08 24.5035C101.337 24.4013 102.156 26.4824 100.081 30.1736C99.9108 30.4764 99.5896 30.7584 99.6204 31.0428C99.6265 31.095 99.7848 31.4186 99.9985 31.1381C101.184 29.5788 100.075 30.4933 101.562 33.1539C102.462 34.7639 103.115 33.6764 100.486 38.4343C95.7109 47.0877 88.1127 45.5046 90.0563 38.7993C91.2059 34.8715 91.0684 36.2702 91.2528 36.5099ZM74.0989 61.5172C73.4457 61.2237 73.4165 61.3166 74.1527 59.7812C75.1971 57.6032 74.517 58.4393 78.9021 45.7174C80.5559 40.9189 83.1159 39.8768 87.7269 37.7811C88.5733 37.3711 89.3792 36.8822 90.1339 36.3209C90.7341 36.0304 87.6062 41.2693 90.0516 43.6986C90.4212 44.3092 91.01 44.7557 91.6978 44.9466C96.5156 46.2316 99.9938 40.6069 102.329 36.211C102.687 35.5347 103.278 34.8192 102.774 33.6995C102.713 33.5619 102.677 33.5266 102.847 33.5458C105.41 33.8686 104.979 34.8853 103.795 37.0694C103.528 37.5605 103.955 37.8141 104.211 37.6074C104.789 36.9691 105.175 36.1805 105.323 35.3326C105.328 35.2811 105.444 35.1858 105.489 35.1958C106.202 35.232 106.912 35.3131 107.615 35.4386C109.868 36.231 108.375 36.284 111.701 37.552C117.513 39.7623 117.036 43.1414 120.91 48.4318C125.544 54.7613 122.332 50.7788 126.348 56.6503C126.527 56.9139 126.377 56.7801 124.452 57.4779C123.593 57.7892 123.237 58.2772 121.617 58.6561C118.513 59.3831 118.389 60.6834 115.484 61.9722C114.159 62.5601 114.254 63.0842 114.02 62.6838C109.098 54.3386 112.483 59.4561 109.828 54.3839C108.323 51.5074 108.24 52.269 105.934 48.4772C105.216 47.2975 104.744 48.0806 105.5 49.2072C107.146 51.658 108.908 53.1435 110.351 57.1398C110.814 58.4128 111.385 59.6442 112.056 60.8209C112.632 61.2006 112.28 61.6471 112.363 63.2502C112.417 64.2623 112.215 64.6704 111.892 66.7423C111.815 67.2503 112.177 67.3786 111.767 68.7666C111.094 71.0452 112.338 71.3664 110.324 71.2781C108.735 71.2081 94.821 71.1543 93.7781 71.1659C92.2119 71.1835 92.361 74.4328 93.6367 74.412C93.6598 74.412 93.8319 74.4758 93.6844 74.5965C90.0032 77.6067 95.4596 77.3331 80.8503 74.814C76.0141 73.9801 75.7213 74.0155 75.9003 73.2769C76.3614 71.391 77.5011 70.1261 77.5549 67.9135C77.6318 64.7711 78.5017 64.1263 78.7638 60.9032C79.0789 57.036 78.3611 54.7551 81.0578 46.9063C81.6864 45.0773 82.3888 43.2321 82.3704 43.1737C82.2167 42.6864 81.9746 42.8048 81.8793 42.9639C80.7449 45.8569 79.7831 48.8147 78.9989 51.8217C77.8462 56.7686 78.7138 57.697 77.651 63.5799C77.5442 64.1678 77.4527 63.0243 74.0989 61.5172ZM72.0124 67.5193C73.4005 66.3191 74.5886 64.9055 75.5322 63.3317C75.7328 63.0412 75.772 63.1011 77.2037 64.3707C77.392 64.5382 77.2583 64.6904 76.9378 67.2849C76.7157 69.0847 77.0731 68.5875 76.2308 70.6279C75.7397 71.8183 75.6997 71.7038 75.337 71.6669C75.3162 71.6669 68.827 71.2004 68.8047 71.2004C69.2665 70.0408 70.9112 68.3731 72.0124 67.5193ZM58.5904 71.6692C59.2958 71.5936 60.0055 71.5666 60.7146 71.5885C74.8951 72.0189 67.5036 71.8675 75.1479 72.1903C75.4922 72.2049 75.3616 72.4108 75.3347 72.7697C75.234 74.12 75.2394 73.745 69.7684 73.3231C65.0935 72.9626 64.5771 72.5138 62.184 73.2693C60.3841 73.8372 60.7384 73.9932 60.4356 73.9041C57.9141 73.1632 57.9218 73.433 57.835 73.1509C57.689 72.6775 57.8749 71.6531 58.5904 71.67V71.6692ZM44.0748 85.3863C45.6326 82.3123 45.4581 77.9795 50.0016 75.8292C52.9611 74.4289 56.7875 73.2931 59.797 74.5826C59.2145 75.3066 58.7664 75.1598 57.8757 77.1418C55.0184 83.5242 56.0259 83.6649 55.4388 90.1688C54.4182 101.466 54.0631 106.077 51.4425 114.761C51.0306 116.125 51.1812 116.221 50.8277 116.283C50.4882 116.319 50.1603 116.428 49.8661 116.601C49.5719 116.775 49.3181 117.009 49.1217 117.288C48.9253 117.568 48.7908 117.886 48.7271 118.221C48.6635 118.557 48.6722 118.902 48.7527 119.234C49.2776 121.754 46.9198 122.213 45.8747 123.076C44.5767 124.143 37.6316 115.67 34.7659 117.723C34.3662 118.01 34.5053 117.06 34.7605 116.456C35.4122 114.912 37.1621 113.179 38.4417 111.782C39.0242 111.144 38.6238 110.794 38.228 111.025C37.2981 111.563 36.2476 114.26 37.0483 111.059C37.6839 108.515 37.7085 107.301 38.0551 105.732C38.145 105.325 38.5777 104.126 38.8774 103.001C39.4996 100.924 39.9757 98.8062 40.3022 96.6627C40.3095 94.9388 40.5782 93.2261 41.0992 91.5828C41.8815 89.066 43.0512 87.4052 44.0748 85.3863ZM33.3726 118.586C32.9223 118.836 32.4967 119.129 32.1015 119.459C32.0392 119.5 31.7802 119.536 31.8509 119.298C33.1044 115.103 38.2611 99.0812 39.3308 97.4919C39.5076 97.2306 39.443 97.5895 39.5322 97.6041C38.4186 104.136 37.584 103.546 37.2051 106.999C36.9922 108.943 36.6041 110.182 35.6727 113.521C35.4821 114.206 35.3307 113.548 33.7829 116.73C33.2089 117.912 34.1019 118.178 33.3726 118.587V118.586ZM28.4741 120.958C32.2244 110.184 37.3404 91.2017 40.2961 91.9502C39.6382 94.4494 39.9064 95.5414 39.5076 95.9464C37.5141 97.9661 31.2538 119.079 31.0417 119.776C30.9141 120.194 31.077 120.031 28.813 121.083C28.614 121.175 28.3957 121.187 28.4741 120.96V120.958ZM21.7735 121.573C21.9187 121.44 22.1131 121.223 22.9016 121.283C24.0544 121.371 28.2681 122.221 29.2149 121.59C31.0893 120.336 33.0936 122.963 33.6385 122.368C34.2264 121.725 31.1162 120.808 31.3967 120.628C32.0991 120.175 31.8655 120.225 34.0266 121.198C34.0865 121.225 34.138 121.31 34.1926 121.308C34.3332 121.303 34.4792 121.514 34.6114 121.316C35.157 120.501 32.4381 120.06 32.9668 119.699C33.1004 119.579 33.2644 119.499 33.4406 119.467C33.6169 119.435 33.7986 119.452 33.9659 119.516C34.4958 119.713 35.004 119.965 35.4821 120.267C36.0793 120.656 36.4151 120.157 35.8218 119.715C34.8412 118.985 33.9843 118.991 34.3332 118.77C35.4222 118.078 36.5488 117.819 38.2526 119.112C44.582 123.906 44.9455 123.541 44.5905 123.755C40.0079 126.513 36.8501 123.217 34.5568 124.885C33.3618 125.754 33.0452 124.79 22.8432 121.855C22.2676 121.689 21.6766 121.758 21.7735 121.576V121.573ZM19.6416 123.441C20.2172 121.615 19.4111 121.271 32.06 125.497C32.8838 125.772 32.933 125.752 32.7877 126.035C32.1314 127.304 32.6832 127.949 32.0369 127.709C30.5813 127.166 24.3795 124.865 23.0546 124.404C22.1295 124.075 21.1642 123.872 20.1849 123.801C19.6116 123.763 19.5187 123.833 19.6416 123.444V123.441ZM19.936 124.989C19.6393 124.722 19.5064 124.414 20.0228 124.4C20.7199 124.414 21.4099 124.542 22.0655 124.779C25.4784 125.75 28.8172 126.964 32.0561 128.413C32.5155 128.596 32.8962 128.934 33.132 129.369C32.9783 129.394 25.0696 126.184 23.8423 126.32C23.7716 126.328 23.5433 126.338 23.272 126.358C22.8727 126.391 22.4715 126.395 22.0716 126.368C21.3352 125.949 20.6223 125.489 19.936 124.992V124.989ZM55.1621 143.499C54.4405 143.491 55.8814 143.891 22.5927 131.412C20.7152 130.708 21.6905 130.635 22.5719 130.566C24.3825 130.424 26.0594 131.354 32.8254 133.783C42.2289 137.16 56.3464 142.873 56.6407 143.147C56.1662 143.332 55.6687 143.451 55.1621 143.502V143.499ZM57.3685 142.781C57.1379 142.827 47.0466 138.317 42.2558 136.431C38.8835 135.104 26.5889 130.685 25.5868 130.404C23.9068 129.934 24.2634 130.059 24.9128 128.301C25.1695 127.609 24.5286 127.421 24.2826 128.098C23.6901 129.739 23.8162 129.812 23.4373 129.835C21.4138 129.958 21.2255 130.124 21.3385 129.855C22.0371 128.196 21.9848 127.03 23.3258 126.967C23.8545 126.953 24.3822 127.019 24.8913 127.162C28.1867 128.021 36.4128 131.494 45.3283 135.161C53.5429 138.543 52.8858 137.512 52.3524 139.179C52.2587 139.471 52.583 139.724 53.3746 140.284C53.737 140.53 54.125 140.736 54.5319 140.899C55.1951 141.179 57.5745 142.044 57.6136 142.082C57.699 142.172 57.5568 142.746 57.3685 142.784V142.781ZM60.5962 137.879C60.4287 138.453 59.7309 140.946 59.644 141.159C59.4312 141.683 59.3728 141.875 58.6027 141.62C57.8327 141.366 55.9998 140.734 55.5049 140.565C54.7809 140.317 55.0576 140.167 56.0851 137.485C56.6622 135.977 58.1278 135.917 59.2729 136.4C60.7738 137.037 60.7645 137.306 60.5978 137.882L60.5962 137.879ZM61.0981 135.266C60.3634 134.612 60.7699 134.067 61.3717 131.875C61.6791 130.755 61.7713 129.859 61.9042 131.456C61.7605 132.75 61.491 134.027 61.0996 135.268L61.0981 135.266ZM66.463 118.963C65.5577 123.584 63.8293 122.47 64.8 126.929C64.2005 130.218 64.199 130.569 62.9502 131.593C62.7135 131.787 62.6428 131.727 62.5951 131.435C62.2039 129.072 61.8397 130.144 62.2032 128.976C66.7074 114.541 69.0575 99.3494 71.7035 100.041C71.6326 100.718 71.6354 101.401 71.7119 102.078C72.3875 106.163 67.874 111.761 66.4646 118.965L66.463 118.963ZM60.1236 133.589C59.9599 134.147 60.1582 134.061 57.8749 133.447C57.7358 133.41 57.4745 133.302 57.5568 133.082C59.561 127.714 63.1923 112.503 65.0567 105.716C65.5485 103.924 66.1495 102.163 66.8135 100.426C68.694 95.5076 74.474 97.0823 77.3159 96.2807C77.8347 96.1347 77.787 98.9828 77.1499 98.9966C71.6743 99.1158 70.6698 98.6016 69.3349 101.344C67.8948 104.302 66.4784 111.403 63.2192 123.455C62.3968 126.505 61.2441 129.776 60.1251 133.591L60.1236 133.589ZM81.1508 129.459C81.2353 129.158 81.3145 129.131 81.5281 129.366C87.9067 136.364 82.7954 149.414 73.7531 149.315C62.5851 149.192 62.5805 129.072 74.6161 126.917C75.035 126.84 77.2291 126.724 77.3159 127.143C77.5749 128.412 77.329 128.206 76.3368 128.169C73.813 128.271 70.8289 129.322 68.4312 133.503C67.4567 135.204 66.9234 136.828 67.4875 137.052C68.2052 137.336 67.429 134.677 71.3346 130.881C72.4457 129.895 73.7956 129.216 75.2502 128.913C75.8097 128.83 76.3763 128.806 76.9409 128.841C77.3059 128.901 77.2959 129.121 77.2567 129.82C76.7357 132.533 76.655 132.255 76.4621 132.236C71.0641 131.698 68.0938 141.293 72.8555 144.321C77.671 147.382 83.0636 139.459 79.9957 134.495C80.1693 133.293 80.4583 132.111 80.8587 130.964C81.3294 131.453 81.7012 132.029 81.9539 132.659C82.2659 133.11 83.2857 132.351 81.1408 130.295C80.9387 130.102 80.9994 130.005 81.1523 129.461L81.1508 129.459ZM77.9814 141.233C78.3357 140.519 79.4939 136.263 79.6176 135.724C79.7536 135.131 80.1386 137.197 80.1302 137.784C80.018 145.588 70.8889 146.52 71.1909 138.937C71.403 133.629 76.7026 132.149 76.4467 133.074C75.7873 135.456 74.4601 140.049 74.3848 140.405C73.8876 142.774 77.1353 142.935 77.9814 141.233ZM80.7481 125.592C80.9661 126.024 81.0185 126.521 80.8956 126.989C80.0556 131.561 78.9131 136.073 77.4758 140.495C77.4385 140.698 77.3562 140.891 77.2347 141.058C77.1132 141.226 76.9557 141.364 76.7738 141.462C76.5918 141.561 76.3901 141.617 76.1835 141.627C75.9769 141.638 75.7706 141.601 75.5798 141.521C74.7898 141.255 75.1257 140.308 75.211 139.943C75.8703 137.11 78.3695 129.825 78.0506 126.753C77.8639 125.805 76.4944 125.614 75.8688 125.921C75.8058 125.952 75.7589 126.018 75.6944 126.031C75.503 126.069 75.1318 126.185 75.0096 126.108C74.8667 126.031 75.6313 124.563 75.868 124.354C76.1831 124.075 76.6235 124.123 77.1338 124.123C78.5371 124.216 80.1379 124.633 80.7496 125.592H80.7481ZM76.1793 122.57C77.2998 122.602 76.9762 122.416 77.1937 122.99C77.2229 123.067 77.3928 123.306 77.2106 123.368C76.2508 123.696 75.7766 122.558 76.1808 122.57H76.1793ZM75.3455 121.713C74.3748 121.522 74.6131 120.728 74.6584 115.616C74.6646 114.952 74.7068 115.683 77.4919 115.292C78.0952 115.208 78.0099 115.215 78.0099 115.705C78.0145 120.056 78.0468 116.805 78.0575 121.155C78.0598 121.914 76.1478 121.867 75.3455 121.713ZM78.504 111.876C78.4272 114.489 78.6055 114.258 77.9976 114.431C76.9879 114.713 75.9278 114.765 74.8951 114.584C74.3233 114.486 74.1835 114.354 74.1466 113.759C74.1343 113.555 74.1558 105.377 74.1604 105.3C74.2373 104.043 74.7844 105.137 77.5042 104.567C78.9959 104.256 78.69 105.327 78.504 111.876ZM78.9813 114.756C79.3025 114.62 79.0965 111.073 79.2356 110.53C79.4931 110.693 90.5927 120.069 90.6096 120.086C90.9516 120.37 90.8586 120.363 91.5987 122.969C91.6916 123.297 91.3558 123.311 91.0138 123.313C86.5219 123.348 89.234 124.384 78.9936 116.03C78.8915 115.958 78.8079 115.863 78.7499 115.753C78.6918 115.643 78.6609 115.52 78.6597 115.396C78.6585 115.271 78.687 115.148 78.743 115.036C78.7989 114.925 78.8806 114.828 78.9813 114.755V114.756ZM92.2765 126.515C86.1668 126.579 87.5632 126.931 80.3807 120.832C78.2189 118.997 78.8952 120.239 78.7569 116.821C78.7346 116.273 85.5128 122.625 87.388 123.769C87.7722 123.999 87.9029 123.958 91.4134 124.016C92.1604 124.029 91.9045 124.414 92.1335 125.246C92.4402 126.367 92.7291 126.509 92.2726 126.514L92.2765 126.515ZM108.97 143.645C105.038 142.48 101.556 140.142 98.9879 136.945C89.5229 125.811 88.885 104.88 96.7354 91.6797C97.6794 89.9842 98.7725 88.376 100.002 86.8742C102.859 83.6919 106.629 81.4685 110.797 80.5071C110.915 80.4794 110.903 80.6277 110.867 80.6692C110.832 80.7107 110.799 80.7499 110.768 80.7891C109.785 81.998 109.874 81.8942 109.61 81.915C109.084 81.958 108.842 82.5436 108.972 82.6835C108.845 82.929 108.66 83.14 108.434 83.2983C106.18 84.9014 105.491 84.6194 104.004 86.1979C85.7718 105.558 94.4298 141.103 112.503 142.474C116.159 142.752 120.381 141.351 124.107 137.549C125.85 135.615 127.412 133.526 128.774 131.308C131.097 126.99 132.394 121.499 132.805 115.805C133.69 103.529 130.446 90.2656 119.829 84.2797C117.652 83.0501 116.74 84.159 118.83 82.2908C118.988 82.1494 119.522 82.4337 120.103 82.6996C121.733 83.5211 123.25 84.5483 124.618 85.756C128.564 89.6508 128.893 90.958 130.886 94.8113C133.934 100.705 134.486 110.53 134.435 110.533C135.892 132.174 121.612 147.151 108.966 143.645L108.97 143.645ZM100.286 75.7808C96.5571 75.76 95.5211 75.9975 94.9371 76.7368C94.9225 76.7552 87.6439 84.5686 85.7918 88.9707C85.5393 89.5936 85.4131 90.2605 85.4206 90.9327C85.4206 94.5585 85.4806 94.5001 85.1693 94.477C83.3487 94.3441 83.2749 94.5001 83.2695 94.0928C83.1927 87.6619 83.5716 88.1407 91.1383 78.4805C91.9822 77.311 92.892 76.1904 93.8634 75.1244C94.3177 74.6978 94.9087 74.4464 95.5311 74.4151C95.6971 74.4067 111.795 74.8332 114.215 74.7994C115.07 74.7863 114.772 74.8178 114.536 75.3842C114.306 75.9375 113.922 76.0566 113.324 76.0313C107.252 75.7715 103.063 75.7961 100.281 75.78L100.286 75.7808Z" fill="#000001"/>
<path d="M120.2 110.925C119.564 110.954 120.147 111.479 120.678 111.831C121.838 112.6 122.55 112.907 121.837 112.87C121.598 112.86 120.31 112.667 120.122 112.717C120.022 112.741 119.945 112.781 119.898 112.962C119.833 113.209 120.107 113.281 120.359 113.304C125.26 113.747 122.086 112.888 128.874 116.79C129.113 116.927 129.309 116.836 129.341 116.664C129.348 116.592 129.336 116.519 129.309 116.452C129.281 116.385 129.237 116.326 129.181 116.28C129 116.099 126.742 114.734 125.269 113.849C124.655 113.481 129.542 114.324 129.573 113.797C129.6 113.314 129.335 113.336 128.916 113.314C122.962 112.963 123.776 113.039 122.338 112.173C120.298 110.942 120.44 110.915 120.2 110.925Z" fill="#000001"/>
<path d="M119.725 109.254C119.874 109.216 122.288 107.321 124.567 105.633C126.443 104.243 128.277 103.003 128.286 102.997C128.747 102.666 128.624 101.857 127.755 102.507C118.462 109.449 119.287 108.828 119.725 109.254Z" fill="#000001"/>
<path d="M119.888 123.699C119.553 123.177 119.161 120.283 118.724 118.338C118.603 117.8 118.52 117.088 118.409 116.838C118.278 116.544 117.943 116.667 118.015 117.382C118.133 118.567 118.828 121.174 118.766 121.749C118.567 121.554 116.644 118.54 116.629 118.521C116.591 118.449 116.526 118.395 116.448 118.371C116.37 118.347 116.286 118.355 116.214 118.393C116.142 118.431 116.087 118.496 116.063 118.574C116.039 118.651 116.047 118.736 116.085 118.808C116.126 118.885 117.961 121.762 118.621 122.852C120.158 125.388 120.845 135.594 121.732 134.479C122.076 134.045 120.133 126 120.218 125.556C120.517 125.731 123.133 129.971 124.208 131.494C124.37 131.724 124.631 131.532 124.544 131.229C124.436 130.863 120.056 123.956 119.888 123.699Z" fill="#000001"/>
<path d="M111.525 113.855C111.606 114.521 111.823 115.163 112.164 115.74C112.505 116.317 112.962 116.817 113.506 117.209C114.151 117.622 114.924 117.789 115.682 117.679C116.441 117.569 117.135 117.19 117.636 116.611C118.923 115.281 119.481 112.916 119.456 111.078C119.426 109.003 119.113 107.308 117.786 105.9C114.848 102.779 110.197 107.165 111.525 113.855ZM117.73 106.702C118.654 108.007 119.113 109.585 119.033 111.182C119.011 112.931 118.459 114.632 117.45 116.06C114.991 119.104 110.876 116.146 112.016 109.835C112.461 107.376 113.948 105.515 115.64 105.455C116.065 105.473 116.479 105.596 116.844 105.814C117.209 106.032 117.515 106.337 117.733 106.702H117.73Z" fill="#000001"/>
<path d="M114.41 109.488C114 110.321 113.825 112.416 114.628 113.5C115.772 115.045 117.415 113.269 117.361 110.988C117.332 109.743 116.977 108.706 116.142 108.483C115.781 108.421 115.41 108.488 115.094 108.671C114.777 108.855 114.535 109.144 114.41 109.488ZM116.955 111.049C116.937 112.721 115.887 114.113 115.099 113.297C114.71 112.751 114.489 112.103 114.463 111.434C114.437 110.764 114.608 110.101 114.954 109.527C115.743 108.434 116.977 108.867 116.955 111.049Z" fill="#000001"/>
<path d="M115.358 103.872C115.498 102.442 115.881 88.3734 115.878 87.7947C115.876 87.216 115.841 86.6827 115.406 87.103C115.374 87.1338 114.868 100.706 114.868 103.804C114.866 104.203 115.312 104.34 115.358 103.872Z" fill="#000001"/>
<path d="M112.847 120.145C112.418 120.674 113.006 118.938 113.185 118.281C113.185 118.05 113.043 117.982 112.857 117.94C112.593 117.882 112.674 117.809 111.538 121.552C111.278 122.032 110.985 122.495 110.662 122.935C108.613 126.185 104.668 131.378 104.663 131.389C104.547 131.576 104.749 132.102 105.343 131.337C105.937 130.571 109.789 125.26 110.385 124.429C111.393 123.02 110.534 125.369 107.844 134.123C107.402 135.561 107.085 136.443 107.537 136.416C107.91 136.371 107.601 136.829 111.841 122.778C112.084 121.972 113.165 120.744 113.779 119.895C114.115 119.434 114.375 119.135 114.136 118.962C113.843 118.743 113.471 119.374 112.847 120.145Z" fill="#000001"/>
<path d="M112.892 104.774C112.815 104.774 108.58 98.0516 107.252 96.0334C106.749 95.2649 106.373 95.6492 106.721 96.1872C112.909 105.841 112.371 105.487 112.892 104.774Z" fill="#000001"/>
<path d="M111.096 115.186C111.152 114.878 110.706 114.982 110.273 115.14C109.279 115.526 108.26 115.844 107.224 116.093C106.958 115.995 109.821 114.205 110.075 113.579C110.16 113.37 110.16 112.973 109.675 113.268C108.845 113.859 107.54 115.008 105.952 116.202C104.766 117.095 101.97 117.686 100.376 118.118C99.5749 118.336 99.1376 118.386 99.2391 118.672C99.4696 119.317 102.649 117.959 103.397 117.994C102.369 118.924 101.289 119.796 100.164 120.607C99.6379 121.035 99.2352 121.341 99.3905 121.553C99.7517 122.045 100.278 121.229 104.092 118.387C106.301 116.743 105.149 117.496 108.773 116.276C111.054 115.507 111.104 115.592 111.096 115.186Z" fill="#000001"/>
<path d="M109.341 108.986C109.532 109.088 109.798 109.098 109.802 108.702C109.811 108.262 108.336 108 108.865 107.957C108.966 107.949 110.263 108.04 110.393 108.013C110.778 108.023 110.718 107.525 110.294 107.449C109.688 107.34 108.732 107.408 107.483 107.31C106.174 106.862 104.914 106.284 103.721 105.583C102.356 104.861 101.121 104.156 101.031 104.328C100.938 104.512 100.895 104.7 101.074 104.797C105.203 106.997 105.975 107.241 104.908 107.231C104.045 107.223 99.791 106.935 99.3492 106.912C98.9718 106.892 98.669 106.844 98.6736 107.059C98.6821 107.47 98.6959 107.414 102.528 107.63C107.512 107.91 106.657 107.55 109.341 108.986Z" fill="#000001"/>
<path d="M98.2832 18.3969C98.8073 18.4684 99.3242 18.5857 99.8279 18.7473C99.8633 18.7647 99.9017 18.7749 99.9411 18.7773C99.9804 18.7797 100.02 18.7743 100.057 18.7613C100.094 18.7484 100.129 18.7282 100.158 18.7019C100.187 18.6756 100.211 18.6438 100.228 18.6082C100.541 17.9934 98.5276 17.5477 97.8889 17.5323C96.7462 17.5077 95.8831 17.0597 96.056 17.7483C96.3435 18.8964 97.3395 18.0987 98.2832 18.3969Z" fill="#000001"/>
<path d="M96.2774 46.6299C97.288 46.092 99.3868 44.7678 99.8694 43.7726C99.9632 42.7789 98.8642 44.09 98.6313 44.2783C97.8441 45.0154 96.9557 45.6365 95.993 46.1227C95.6641 46.3525 95.8793 46.8459 96.2774 46.6299Z" fill="#000001"/>
<path d="M91.1507 26.3949C91.3129 26.0198 95.2238 27.7221 98.0673 26.4218C98.0969 26.401 98.1328 26.3914 98.1688 26.3945C98.2047 26.3975 98.2385 26.4132 98.264 26.4387C98.3563 26.5278 98.3232 26.5924 98.397 26.7991C98.4639 26.9859 98.6183 27.0297 98.7082 26.9528C98.9903 26.6954 98.6568 25.8769 98.5776 25.6878C98.4516 25.3866 98.1626 25.103 97.9098 25.2606C97.8884 25.2758 97.8702 25.2952 97.8564 25.3175C97.8425 25.3399 97.8332 25.3647 97.8291 25.3907C97.8249 25.4167 97.826 25.4432 97.8322 25.4687C97.8384 25.4943 97.8496 25.5183 97.8652 25.5395C98.2287 26.0321 95.2815 26.8775 91.5073 25.654C91.1231 25.5303 91.8209 25.2183 91.256 25.0592C90.8064 24.9324 90.4975 25.7739 90.5989 26.3764C90.6101 26.4402 90.6429 26.4982 90.6917 26.5407C90.7406 26.5832 90.8026 26.6076 90.8673 26.6097C90.9321 26.6119 90.9956 26.5917 91.0472 26.5526C91.0988 26.5135 91.1353 26.4578 91.1507 26.3949Z" fill="#000001"/>
<path d="M97.371 30.5032C96.2566 31.8972 92.9221 31.4469 91.9222 30.6361C90.2799 29.3043 92.5755 27.8603 91.5241 28.1C91.0016 28.2199 90.5973 29.2182 90.7134 29.7654C91.0692 31.4492 92.4963 31.8112 94.2777 32.0202C98.5522 32.5228 99.3637 28.0093 97.371 30.5032Z" fill="#000001"/>
<path d="M96.4849 20.4998C96.4849 21.4751 97.0128 21.2345 97.1612 20.8841C97.4824 20.121 96.5802 19.4239 96.4849 20.4998Z" fill="#000001"/>
<path d="M93.0043 24.5059C93.3369 24.8819 93.7949 25.1241 94.2928 25.1875C94.7908 25.2508 95.2949 25.1309 95.711 24.8502C96.6224 24.3299 96.7769 23.9748 96.7393 23.722C96.7016 23.4691 96.4741 23.3154 96.1875 23.5767C95.9736 23.8417 95.7009 24.0532 95.391 24.1943C95.0811 24.3355 94.7425 24.4024 94.4022 24.3898C94.1823 24.3458 93.9737 24.2569 93.7897 24.1286C93.6057 24.0003 93.4501 23.8355 93.3328 23.6443C93.2154 23.4531 93.1388 23.2398 93.1076 23.0177C93.0765 22.7955 93.0916 22.5693 93.1519 22.3533C93.3378 21.8714 93.6898 20.9361 93.8543 20.3159C93.9818 19.831 93.6614 19.4706 93.4769 19.738C93.367 19.8971 93.1803 20.472 93.0212 20.8186C92.3588 22.2572 92.0314 23.2924 93.0043 24.5059Z" fill="#000001"/>
<path d="M92.5948 18.1039C92.8307 18.1953 93.0812 18.0647 93.0759 17.961C93.0351 17.2347 93.0113 17.0003 92.4864 16.9988C90.4883 17.3615 90.6889 17.383 89.7636 17.8526C89.533 17.9694 89.2387 18.492 89.4692 18.698C89.8481 19.0361 89.7713 18.2468 90.4875 18.2368C91.1641 17.9985 91.8936 17.9525 92.5948 18.1039Z" fill="#000001"/>
<path d="M92.6755 47.1078C92.6309 46.782 92.2981 46.8896 91.9185 46.8711C89.3271 46.7458 88.8252 44.6762 88.4863 44.0153C87.5403 42.1709 88.4648 40.0398 87.9407 40.1328C87.5026 40.2097 87.6079 40.4633 87.4465 41.9619C87.3197 43.1431 87.9522 44.4857 88.5647 45.6845C89.4062 47.333 92.8007 48.0323 92.6755 47.1078Z" fill="#000001"/>
<path d="M91.5971 20.6773C91.6185 20.7249 91.6537 20.7651 91.6982 20.7925C91.7427 20.8199 91.7943 20.8334 91.8465 20.8312C91.8988 20.8289 91.9491 20.8111 91.9911 20.78C92.033 20.7488 92.0647 20.7058 92.082 20.6565C92.1351 20.525 92.1727 20.3878 92.1942 20.2477C92.0697 19.1072 91.0968 19.8273 91.5971 20.6773Z" fill="#000001"/>
<path d="M86.2605 20.6673C86.1407 20.7257 86.0393 20.8162 85.9675 20.9286C85.8958 21.041 85.8565 21.1711 85.854 21.3044C85.8663 21.5196 86.0077 21.7309 86.2383 21.518C86.3259 21.4412 86.4288 20.9501 86.8169 21.3643C87.3703 21.9576 86.6632 22.056 86.79 22.6454C86.8592 22.9736 87.1097 22.9113 87.338 22.71C87.5069 22.4847 87.6087 22.2163 87.6318 21.9357C87.655 21.6551 87.5984 21.3737 87.4686 21.1238C87.4276 21.0079 87.3618 20.9023 87.2758 20.8145C87.1897 20.7266 87.0856 20.6586 86.9706 20.6151C86.8555 20.5717 86.7324 20.5538 86.6098 20.5628C86.4872 20.5718 86.368 20.6075 86.2605 20.6673Z" fill="#000001"/>
<path d="M43.4526 113.917C44.6336 114.49 45.734 115.216 46.7257 116.076C47.4358 116.761 47.8508 116.133 47.2974 115.615C45.2993 113.75 44.0951 113.749 43.0191 112.721C42.0086 111.756 42.2107 111.971 41.8664 111.764C40.7067 111.762 42.5288 113.208 43.4526 113.917Z" fill="#000001"/>
<path d="M110.992 83.951C111.008 83.8131 111.051 83.6796 111.118 83.5582C111.186 83.4369 111.277 83.33 111.385 83.2437C111.494 83.1575 111.619 83.0935 111.753 83.0554C111.886 83.0173 112.026 83.0059 112.164 83.0219C112.302 83.0378 112.435 83.0808 112.557 83.1483C112.678 83.2158 112.785 83.3066 112.871 83.4154C112.957 83.5243 113.021 83.649 113.059 83.7826C113.097 83.9162 113.109 84.0559 113.093 84.1939C113.074 85.6248 110.95 85.3927 110.992 83.951Z" fill="white"/>
<path d="M112.662 66.2323C113.297 63.6232 112.801 61.9586 113.185 62.535C113.198 62.5558 113.899 63.6732 113.91 63.7124C113.996 64.0198 113.872 64.4155 113.951 64.4278C112.956 72.3112 113.829 71.3552 112.261 71.2268C112.15 70.346 112.257 69.4516 112.572 68.6216C112.864 67.5541 112.454 67.0877 112.662 66.2323Z" fill="#82A8D1"/>
<path d="M110.834 79.3824C111.679 76.8679 110.68 76.4621 112.037 76.5574C112.383 76.5827 112.498 76.4805 112.225 77.7755C111.807 79.7513 111.877 79.6967 111.136 79.7559C110.691 79.789 110.695 79.7905 110.834 79.3824Z" fill="#82A8D1"/>
</svg>
