<svg width="155" height="156" viewBox="0 0 155 156" fill="none" xmlns="http://www.w3.org/2000/svg">
<path d="M131.318 48.2535C141.161 48.0219 140.034 34.118 131.164 34.1952C121.02 34.1952 121.73 48.4773 131.318 48.2535ZM133.573 38.3332C133.738 38.2975 133.909 38.2978 134.073 38.3342C134.238 38.3706 134.393 38.4422 134.528 38.544C134.663 38.6459 134.774 38.7756 134.854 38.9244C134.934 39.0731 134.981 39.2374 134.992 39.4059C135.002 39.5745 134.977 39.7434 134.916 39.901C134.855 40.0587 134.761 40.2014 134.641 40.3194C134.52 40.4375 134.375 40.528 134.216 40.5849C134.057 40.6418 133.888 40.6638 133.719 40.6492C133.554 40.6846 133.383 40.684 133.219 40.6475C133.054 40.6109 132.899 40.5393 132.764 40.4375C132.629 40.3357 132.518 40.206 132.438 40.0574C132.358 39.9087 132.311 39.7446 132.3 39.5761C132.289 39.4076 132.315 39.2386 132.375 39.0809C132.436 38.9232 132.53 38.7805 132.651 38.6628C132.772 38.5449 132.917 38.4544 133.076 38.3975C133.235 38.3406 133.404 38.3187 133.573 38.3332ZM133.272 42.6873C134.098 42.0928 134.816 43.3666 133.719 44.1927C130.863 46.3003 128.161 44.8721 127.335 43.6677C126.733 42.8417 127.628 42.1237 128.385 42.6178C129.45 43.3667 130.639 44.4938 133.31 42.6873H133.272ZM127.628 38.1788C127.793 38.1428 127.964 38.1428 128.129 38.1788C128.293 38.2148 128.449 38.2859 128.583 38.3873C128.718 38.4887 128.83 38.6181 128.91 38.7664C128.99 38.9148 129.038 39.0788 129.049 39.2472C129.06 39.4156 129.035 39.5844 128.975 39.7421C128.915 39.8999 128.822 40.0428 128.702 40.1612C128.582 40.2797 128.437 40.3708 128.279 40.4283C128.12 40.4859 127.951 40.5086 127.783 40.4948C127.622 40.521 127.458 40.5133 127.301 40.4724C127.144 40.4315 126.997 40.3581 126.87 40.257C126.743 40.156 126.639 40.0295 126.563 39.8856C126.488 39.7417 126.444 39.5837 126.433 39.4217C126.422 39.2597 126.445 39.0973 126.501 38.9448C126.557 38.7923 126.643 38.6531 126.756 38.5361C126.868 38.4191 127.004 38.3269 127.154 38.2653C127.304 38.2038 127.466 38.1743 127.628 38.1788Z" fill="#3D9CFB"/>
<path d="M116.133 35.3996C115.006 35.4768 115.006 35.6235 115.006 37.1289C115.006 43.5211 113.894 44.6482 115.832 44.6482C116.735 44.6482 116.735 44.8721 116.959 40.4331C117.299 35.2915 117.677 35.2606 116.133 35.3996Z" fill="#3D9CFB"/>
<path d="M106.807 12.9179C106.506 9.69091 105.379 7.35945 103.58 6.30952C99.89 4.20194 80.0494 3.67698 75.8342 6.83449C73.1322 8.86487 72.9083 12.2385 72.9778 14.8788C72.9778 21.4177 74.8615 24.7219 82.3809 24.9149C79.2234 34.4569 88.2404 28.8985 91.174 24.9844C100.044 24.2741 107.71 24.7991 106.807 12.9179ZM103.279 21.1938C101.92 22.321 96.9641 23.3709 90.7185 23.5098C90.4909 23.5364 90.2802 23.6431 90.1241 23.8109C88.1632 26.6674 83.948 28.9988 83.2764 28.6977C83.0525 28.3272 83.5775 26.1424 84.1024 24.4131C84.148 24.255 84.1373 24.086 84.0721 23.9349C84.0069 23.7838 83.8913 23.66 83.745 23.5847C83.6475 23.5359 83.5399 23.5105 83.4308 23.5106C80.1961 23.2867 77.7179 22.839 76.8919 22.314C73.58 19.9053 73.58 10.2089 76.8147 8.10135C80.474 5.36072 99.6584 5.78533 102.901 7.65359C106.437 9.53728 105.834 19.3881 103.279 21.1946V21.1938Z" fill="#3D9CFB"/>
<path d="M95.0803 8.56469C94.437 8.53762 93.8023 8.72127 93.2729 9.08772C92.7434 9.45418 92.348 9.98342 92.1467 10.5951C91.8224 11.6373 93.2043 12.7721 93.876 11.3671C94.5476 9.96202 97.0335 10.8421 96.5857 12.6409C96.138 14.4397 93.8065 14.3007 93.5749 16.5009C93.5554 16.6127 93.5609 16.7275 93.5909 16.8369C93.6209 16.9464 93.6747 17.0478 93.7485 17.1341C93.8222 17.2204 93.9141 17.2893 94.0175 17.336C94.1209 17.3827 94.2334 17.406 94.3469 17.4042C95.474 17.4814 95.2501 16.5009 96.3773 15.5977C100.044 13.7526 99.2877 8.56469 95.0803 8.56469Z" fill="#3D9CFB"/>
<path d="M123.343 28.5285C110.79 29.0534 101.094 27.6252 96.5082 31.3849C94.4083 33.1142 93.8062 36.0169 93.8062 40.703C93.8062 46.7941 94.8561 52.2059 102.746 52.4298C99.8664 61.5318 108.065 56.7685 111.091 52.9548C122.594 52.9548 138.158 52.6614 141.972 51.4107C147.461 49.6042 148.364 45.0185 148.518 40.8111C148.742 35.7776 147.461 32.4657 145.06 30.2886C142.813 28.181 131.318 28.2582 123.343 28.5285ZM144.018 31.4621C147.754 34.4961 149.151 47.3345 141.617 49.9517C138.305 51.0788 125.003 51.8276 111.169 51.6809C110.903 51.6818 110.639 51.7355 110.394 51.8389C110.149 51.9422 109.927 52.0932 109.74 52.2831C108.298 53.8573 106.562 55.1344 104.63 56.0428C104.182 56.2049 103.58 56.1123 103.726 55.3634C104.962 49.3958 104.074 51.9666 99.2874 50.3299C95.3038 48.9017 95.3038 44.9259 95.2344 41.3052C95.2344 37.1749 95.381 33.7163 98.4614 31.987C103.804 28.9762 109.663 30.5588 126.2 30.0339C131.241 29.9103 141.802 29.6093 144.018 31.493V31.4621Z" fill="#3D9CFB"/>
<path d="M103.503 45.8449C103.352 45.8321 103.2 45.8509 103.056 45.9001C102.912 45.9492 102.781 46.0276 102.669 46.1302C102.557 46.2329 102.468 46.3577 102.407 46.4966C102.346 46.6355 102.315 46.7855 102.315 46.9373C102.315 47.089 102.346 47.239 102.407 47.3779C102.468 47.5168 102.557 47.6416 102.669 47.7443C102.781 47.8469 102.912 47.9253 103.056 47.9744C103.2 48.0236 103.352 48.0424 103.503 48.0296C103.731 48.0492 103.959 47.9967 104.156 47.8797C104.352 47.7627 104.507 47.587 104.598 47.3773C104.675 47.2034 104.704 47.0126 104.685 46.8237C104.665 46.6348 104.597 46.4543 104.486 46.2998C104.376 46.1453 104.227 46.0221 104.055 45.9424C103.882 45.8626 103.692 45.829 103.503 45.8449Z" fill="#3D9CFB"/>
<path d="M104.329 35.3218C101.696 34.7196 102.978 41.7912 102.522 43.8139C102.445 44.8638 103.294 44.995 104.105 44.8638C104.63 44.7789 104.553 44.4083 104.877 40.7258C105.201 35.5379 105.518 35.4762 104.329 35.3218Z" fill="#3D9CFB"/>
<path d="M65.9911 121.941C60.4249 119.085 25.6228 117.309 19.6707 122.088C16.9686 124.273 16.2893 127.955 16.4437 131.939C16.5904 136.069 17.5708 140.13 20.35 141.936C23.1293 143.743 36.9636 145.171 49.0687 144.87C51.0991 147.796 56.0168 151.185 57.638 150.506C58.7651 150.058 58.6107 148.699 58.0858 144.268C62.0693 143.812 65.2268 142.986 66.8866 141.859C72.7539 137.783 72.4528 125.23 65.9911 121.941ZM30.1314 138.401C21.2533 138.663 20.5816 125.099 29.9847 125.099C38.1757 125.029 39.2256 138.154 30.1314 138.385V138.401ZM41.1788 139.173C40.8947 139.14 40.6326 139.004 40.4424 138.79C40.2521 138.577 40.147 138.301 40.147 138.015C40.147 137.729 40.2521 137.453 40.4424 137.239C40.6326 137.026 40.8947 136.889 41.1788 136.857C42.9081 136.81 42.607 139.065 41.1788 139.142V139.173ZM42.4603 134.286C42.3831 135.259 41.781 135.49 41.0321 135.336C40.4299 135.259 40.4299 134.734 40.4299 133.082C40.4299 132.032 40.6538 126.844 40.731 126.087C40.8082 125.331 41.0321 124.96 41.7115 125.037C43.8808 125.246 42.8849 126.164 42.4603 134.294V134.286ZM46.4439 138.046C46.4341 137.747 46.5432 137.456 46.7472 137.238C46.9513 137.019 47.2336 136.89 47.5324 136.88C47.6806 136.874 47.8285 136.898 47.9675 136.949C48.1065 137.001 48.2338 137.08 48.3422 137.181C48.4506 137.282 48.5379 137.404 48.599 137.539C48.6601 137.674 48.6938 137.82 48.6981 137.968C48.7037 138.267 48.5907 138.556 48.3838 138.771C48.1769 138.987 47.8929 139.112 47.5942 139.119C47.4461 139.122 47.2989 139.096 47.1609 139.042C47.023 138.988 46.8971 138.907 46.7905 138.804C46.6835 138.702 46.5977 138.58 46.5381 138.444C46.4785 138.309 46.4462 138.163 46.4431 138.015V138.046H46.4439ZM48.6209 130.974C48.5515 135.413 48.6209 135.606 47.7254 135.606C45.973 135.606 46.6214 135.027 46.4439 127.338C46.4053 125.678 46.3667 125.531 47.4938 125.385C49.2231 125.207 48.6209 125.747 48.6209 130.943V130.974ZM55.9936 139.62C55.6947 139.671 55.3881 139.6 55.1412 139.424C54.8944 139.248 54.7275 138.981 54.6773 138.682C54.6272 138.383 54.6978 138.077 54.8737 137.83C55.0496 137.583 55.3164 137.416 55.6153 137.366C55.8514 137.284 56.1078 137.283 56.345 137.361C56.5821 137.439 56.7869 137.594 56.9277 137.8C57.0212 137.937 57.084 138.092 57.1116 138.255C57.1393 138.418 57.1311 138.586 57.0878 138.745C57.0445 138.905 56.9671 139.054 56.8608 139.181C56.7545 139.308 56.6219 139.41 56.4723 139.481C56.3224 139.551 56.1591 139.588 55.9936 139.59V139.62ZM57.7924 133.684C56.3642 134.888 56.8891 136.239 55.9936 136.316C55.2216 136.386 54.936 136.015 54.8665 135.49C54.6349 132.703 58.2479 132.032 58.3946 129.476C58.5953 125.454 53.4383 126.133 53.4383 128.573C53.4383 129.546 51.6704 129.77 51.6318 128.048C51.5932 126.326 53.0523 124.69 55.3142 124.512C60.5716 124.064 62.3781 130.642 57.7924 133.653V133.684Z" fill="#3D9CFB"/>
<path d="M114.473 46.5244C114.468 46.6803 114.494 46.8357 114.551 46.981C114.608 47.1263 114.694 47.2584 114.804 47.3691C114.914 47.4799 115.045 47.5668 115.19 47.6247C115.335 47.6826 115.49 47.7101 115.646 47.7055C115.881 47.6977 116.109 47.6167 116.296 47.4738C116.483 47.3309 116.621 47.1331 116.691 46.9081C116.737 46.7591 116.752 46.6023 116.735 46.4472C116.805 44.7951 114.404 45.2506 114.473 46.5244Z" fill="#3D9CFB"/>
<path d="M31.8603 128.465C31.7122 128.475 31.5674 128.513 31.4342 128.579C31.3011 128.645 31.1821 128.736 31.0842 128.847C30.9863 128.959 30.9113 129.089 30.8635 129.229C30.8157 129.37 30.7961 129.518 30.8057 129.666C30.8154 129.814 30.8541 129.959 30.9196 130.092C30.9852 130.225 31.0764 130.344 31.1879 130.442C31.2995 130.54 31.4292 130.615 31.5698 130.663C31.7103 130.711 31.8589 130.73 32.007 130.721C32.3061 130.701 32.5853 130.564 32.783 130.339C32.9808 130.113 33.081 129.819 33.0615 129.52C33.0421 129.22 32.9046 128.941 32.6793 128.744C32.454 128.546 32.1594 128.446 31.8603 128.465Z" fill="#3D9CFB"/>
<path d="M109.741 35.2441C109.062 35.1747 108.838 35.5452 108.761 36.2246C108.683 36.9039 108.459 41.6286 108.459 42.6168C108.459 44.1145 108.459 44.57 109.062 44.6472C109.888 44.7167 110.49 44.57 110.49 43.6667C110.922 36.1474 111.694 35.4757 109.741 35.2441Z" fill="#3D9CFB"/>
<path d="M109.378 45.6973C109.232 45.6934 109.088 45.7187 108.952 45.7716C108.817 45.8246 108.694 45.9041 108.589 46.0055C108.485 46.107 108.402 46.2282 108.346 46.3622C108.289 46.4961 108.26 46.64 108.26 46.7854C108.26 46.9308 108.289 47.0747 108.346 47.2087C108.402 47.3426 108.485 47.4639 108.589 47.5653C108.694 47.6667 108.817 47.7463 108.952 47.7992C109.088 47.8522 109.232 47.8774 109.378 47.8736C109.661 47.866 109.931 47.7481 110.129 47.5448C110.327 47.3416 110.437 47.0691 110.437 46.7854C110.437 46.5018 110.327 46.2293 110.129 46.026C109.931 45.8228 109.661 45.7048 109.378 45.6973Z" fill="#3D9CFB"/>
<path d="M87.1129 18.4926C86.9666 18.4871 86.8207 18.5111 86.6839 18.5633C86.5472 18.6155 86.4223 18.6947 86.3169 18.7963C86.2114 18.8978 86.1275 19.0196 86.0702 19.1543C86.0129 19.2891 85.9834 19.434 85.9834 19.5804C85.9834 19.7268 86.0129 19.8716 86.0702 20.0064C86.1275 20.1411 86.2114 20.2629 86.3169 20.3644C86.4223 20.466 86.5472 20.5452 86.6839 20.5974C86.8207 20.6496 86.9666 20.6736 87.1129 20.6681C87.3943 20.6575 87.6607 20.5383 87.856 20.3354C88.0513 20.1326 88.1605 19.862 88.1605 19.5804C88.1605 19.2988 88.0513 19.0281 87.856 18.8253C87.6607 18.6224 87.3943 18.5032 87.1129 18.4926Z" fill="#3D9CFB"/>
<path d="M81.7783 9.69085C80.2343 9.8607 80.7515 10.3702 80.4196 14.3229C80.3501 17.4109 80.1957 17.6348 80.6512 17.7815C81.4232 17.9359 82.3033 17.7815 82.3805 16.886C82.7665 10.2699 83.6234 9.45925 81.7783 9.69085Z" fill="#3D9CFB"/>
<path d="M81.2457 18.6314C81.0945 18.6187 80.9423 18.6375 80.7988 18.6866C80.6552 18.7357 80.5235 18.8141 80.4118 18.9168C80.3001 19.0195 80.211 19.1442 80.15 19.2831C80.089 19.422 80.0575 19.5721 80.0575 19.7238C80.0575 19.8755 80.089 20.0256 80.15 20.1645C80.211 20.3034 80.3001 20.4281 80.4118 20.5308C80.5235 20.6335 80.6552 20.7119 80.7988 20.761C80.9423 20.8101 81.0945 20.8289 81.2457 20.8162C81.3968 20.8289 81.549 20.8101 81.6925 20.761C81.8361 20.7119 81.9679 20.6335 82.0795 20.5308C82.1912 20.4281 82.2804 20.3034 82.3414 20.1645C82.4023 20.0256 82.4338 19.8755 82.4338 19.7238C82.4338 19.5721 82.4023 19.422 82.3414 19.2831C82.2804 19.1442 82.1912 19.0195 82.0795 18.9168C81.9679 18.8141 81.8361 18.7357 81.6925 18.6866C81.549 18.6375 81.3968 18.6187 81.2457 18.6314Z" fill="#3D9CFB"/>
<path d="M87.6384 9.16692C86.9668 9.23641 86.5885 9.39081 86.5113 10.0625C86.4341 10.7341 86.3029 13.22 86.2874 14.1232C86.2874 16.3775 85.9863 17.2112 86.5885 17.3579C87.5612 17.5046 88.2406 17.3579 88.3178 16.4547C88.6884 10.1705 89.5607 8.9276 87.6384 9.16692Z" fill="#3D9CFB"/>
<path d="M130.562 111.906C123.498 114.384 112.898 114.222 107.71 112.508C102.523 110.794 105.078 111.604 97.0336 106.417C96.6631 111.604 94.0305 112.207 94.0305 112.207C94.0305 112.207 99.89 113.257 102.445 113.11C103.584 113.094 104.713 113.328 105.752 113.795C106.791 114.261 107.715 114.95 108.459 115.812C109.818 117.24 108.838 123.478 108.838 123.478C108.838 123.478 109.432 121.038 111.547 120.621C113.663 120.205 115.832 123.933 116.951 124.482C118.071 125.03 118.495 124.103 121.908 122.528C134.916 121.702 141.98 128.241 144.767 133.576C145.726 129.05 145.555 124.359 144.269 119.915C142.983 115.472 140.622 111.413 137.394 108.1C137.394 108.1 137.703 109.443 130.562 111.906Z" fill="#3D9CFB"/>
<path d="M43.4407 109.975C46.8221 113.279 51.7089 116.815 50.2035 109.52C53.2915 109.072 55.8391 108.315 56.9663 107.204C59.8999 104.201 59.7532 94.2032 55.4222 91.6479C51.8092 89.5403 30.6099 88.7142 26.858 92.5434C25.1982 94.2727 24.3721 96.9052 24.4493 100.063C24.0401 110.801 31.7834 109.443 43.4407 109.975ZM40.7309 98.6963C40.7309 93.547 40.5843 93.4852 42.0048 93.6628C43.0624 93.7863 43.0238 93.9562 42.9852 95.4616C42.7999 102.796 43.0856 102.981 41.557 102.981C40.6692 102.981 40.6692 103.205 40.7309 98.6963ZM40.5071 104.872C40.5143 104.649 40.5876 104.434 40.7178 104.252C40.848 104.071 41.0291 103.933 41.2381 103.855C41.3771 103.802 41.5246 103.778 41.6728 103.784C41.821 103.788 41.9668 103.822 42.1018 103.883C42.2367 103.945 42.3581 104.032 42.4587 104.141C42.56 104.249 42.6389 104.376 42.6909 104.515C42.7428 104.654 42.7667 104.802 42.7613 104.95C42.5374 106.501 40.3527 106.362 40.5071 104.857V104.872ZM35.6203 101.869C35.6203 93.8018 35.4118 93.5779 37.1257 93.3771C37.7973 93.2999 38.0212 93.6782 38.0212 94.3499C38.0212 95.0215 37.7973 99.8388 37.7201 100.819C37.6506 102.317 37.5734 102.78 36.9481 102.842C36.1452 102.919 35.5431 102.757 35.6203 101.869ZM36.5235 103.9C36.6763 103.895 36.8283 103.923 36.9695 103.982C37.1108 104.04 37.2382 104.128 37.3434 104.239C37.5028 104.405 37.6058 104.617 37.6376 104.845C37.6694 105.074 37.6285 105.306 37.5206 105.51C37.4126 105.713 37.2433 105.878 37.0366 105.979C36.8298 106.081 36.5963 106.115 36.3691 106.077C36.1525 106.061 35.9454 105.981 35.7738 105.848C35.6021 105.715 35.4735 105.534 35.4041 105.329C35.3469 105.157 35.3329 104.974 35.3632 104.796C35.3936 104.618 35.4674 104.45 35.578 104.307C35.6887 104.165 35.8329 104.051 35.9978 103.977C36.1627 103.904 36.3433 103.872 36.5235 103.884V103.9ZM30.6562 94.2727C30.6562 93.5007 30.8801 93.3771 31.5595 93.2999C33.8755 93.0143 32.7484 96.1718 32.6094 101.715C32.6094 102.772 31.7911 102.904 30.9573 102.772C30.2857 102.641 30.6331 101.939 30.6331 94.2572L30.6562 94.2727ZM31.4823 103.822C32.9877 103.9 32.7638 105.93 31.2584 105.93C29.6063 105.915 30.0541 103.66 31.4823 103.807V103.822Z" fill="#3D9CFB"/>
<path d="M31.6361 133.197C29.4513 134.556 28.6253 133.73 27.9536 133.051C26.2321 131.329 25.6376 134.595 28.7797 135.305C30.5785 135.683 33.0643 134.533 32.4622 133.197C32.385 132.896 32.0067 132.896 31.6361 133.197Z" fill="#3D9CFB"/>
<path d="M94.4088 18.1836C94.2625 18.1781 94.1166 18.2022 93.9798 18.2544C93.8431 18.3065 93.7182 18.3858 93.6128 18.4873C93.5073 18.5889 93.4234 18.7107 93.3661 18.8454C93.3088 18.9801 93.2793 19.125 93.2793 19.2714C93.2793 19.4178 93.3088 19.5627 93.3661 19.6974C93.4234 19.8321 93.5073 19.9539 93.6128 20.0555C93.7182 20.157 93.8431 20.2362 93.9798 20.2884C94.1166 20.3406 94.2625 20.3647 94.4088 20.3592C94.6902 20.3485 94.9566 20.2293 95.1519 20.0265C95.3472 19.8236 95.4564 19.553 95.4564 19.2714C95.4564 18.9898 95.3472 18.7192 95.1519 18.5163C94.9566 18.3135 94.6902 18.1942 94.4088 18.1836Z" fill="#3D9CFB"/>
<path d="M82.0023 95.6164C84.6239 94.9296 87.2844 94.4009 89.9694 94.033L90.1933 90.8763C90.2705 90.8763 86.3332 90.5049 78.6132 91.8559C78.8448 91.9331 79.6708 92.4589 82.0023 95.6164Z" fill="#3D9CFB"/>
<path d="M82.0798 45.5513C82.0798 45.5513 77.9418 48.1762 74.7071 44.4165C71.6191 40.8112 73.2094 34.6506 70.1214 28.4823C65.389 17.5043 54.3338 15.775 48.5052 18.1837C40.0131 15.6283 23.6234 14.949 17.3856 28.4823C15.4247 32.9908 16.4823 43.521 16.1812 46.4469C15.9573 48.9327 14.8997 51.0789 11.9661 51.7119C7.62738 52.6384 12.2285 64.5968 20.7669 64.7898C24.3722 64.7898 25.7232 60.8834 26.8581 55.9966C27.9929 51.1098 26.2559 40.3634 26.2559 37.2059C26.2559 34.0484 29.0892 30.8909 32.1772 28.5286C37.2107 24.8461 49.6169 29.0535 51.1223 21.8353C54.2798 27.4014 61.3436 23.1168 64.725 28.3047C66.3077 30.7056 66.5315 37.5688 66.8326 41.3053C67.1337 45.0418 66.6782 47.7747 65.0261 51.9049C67.5815 53.449 67.2804 57.0156 67.2804 57.0156C67.2804 57.0156 68.6391 57.0928 73.8965 57.5406C82.5275 53.2328 82.0798 45.5513 82.0798 45.5513Z" fill="#3D9CFB"/>
<path d="M27.275 131.02C27.513 131.026 27.7468 130.957 27.9435 130.823C28.1402 130.688 28.2898 130.496 28.3713 130.272C28.4528 130.048 28.4616 129.805 28.3964 129.575C28.3313 129.346 28.1955 129.144 28.0084 128.996C27.8846 128.898 27.7417 128.827 27.5888 128.787C27.4359 128.748 27.2765 128.74 27.1206 128.766C26.8219 128.787 26.5436 128.925 26.3463 129.15C26.1996 129.319 26.1061 129.527 26.0777 129.749C26.0492 129.97 26.0871 130.195 26.1865 130.395C26.2858 130.595 26.4423 130.762 26.636 130.873C26.8298 130.984 27.0521 131.035 27.275 131.02Z" fill="#3D9CFB"/>
<path d="M132.214 85.8427C130.161 83.9916 127.464 83.0188 124.702 83.1329C122.819 83.1329 122.672 85.0166 123.876 84.9394C126.709 84.9381 129.447 85.9514 131.597 87.7958C132.592 88.6219 133.418 86.9698 132.214 85.8427Z" fill="#001434"/>
<path d="M108.537 100.727C109.818 101.63 107.386 103.004 108.537 104.332C110.451 106.548 121.993 108.015 120.418 100.727C119.646 97.0444 114.852 101.399 109.061 98.4109C107.185 97.415 107.062 99.677 108.537 100.727Z" fill="#001434"/>
<path d="M72.3213 59.9036C71.9958 59.9461 71.6662 59.9461 71.3408 59.9036C69.5575 59.6488 70.6228 59.0158 66.0757 61.4476C65.3964 61.8105 63.7597 62.5747 64.3541 63.0997C64.9486 63.6247 64.4236 63.7791 64.1225 63.9258C61.1966 65.4698 58.4097 64.6978 53.7545 64.0802C52.774 63.9257 52.6196 65.2845 55.2985 65.8095C58.8343 66.5815 61.9146 67.3535 66.5003 64.1574C66.6006 64.0885 66.6813 63.9948 66.7345 63.8854C66.7877 63.776 66.8115 63.6547 66.8038 63.5333C66.796 63.4119 66.7568 63.2946 66.6901 63.1929C66.6234 63.0912 66.5314 63.0085 66.4231 62.953C67.4731 62.3509 68.2142 61.8722 69.2795 61.3704C70.3449 60.8686 70.4916 62.6983 73.9116 60.3977C74.9384 59.9036 74.4983 59.1239 72.3213 59.9036Z" fill="#001434"/>
<path d="M31.4056 38.1792C32 40.9662 34.262 41.7922 36.8868 41.715C40.9476 41.6378 44.9311 40.7346 44.8617 36.311C44.8694 26.0201 29.738 30.2353 31.4056 38.1792ZM33.8837 34.4967C35.3119 32.3892 40.0598 31.4087 41.5498 32.8446C40.1987 35.0217 38.6161 37.6543 37.1879 39.7927C33.1349 40.2868 31.9383 37.276 33.8914 34.4967H33.8837Z" fill="#001434"/>
<path d="M13.8187 63.8179C11.5027 74.7187 13.2938 87.7965 29.0041 86.6694C35.6202 86.2139 43.5873 84.114 53.361 80.9565C56.3641 79.9761 58.6183 79.15 60.7259 77.4207C62.6791 79.6055 67.342 81.4043 71.0245 81.3348C83.9556 81.1032 88.4641 65.3928 79.7482 54.4226C82.0642 51.5585 84.1795 47.2043 82.9752 45.0196C82.1414 43.5528 79.3467 45.4442 77.5711 42.2403C75.5407 36.7514 75.3941 30.6602 71.6344 24.1213C66.902 15.8531 55.4222 11.1053 44.7994 13.7533C43.7896 13.8536 42.7706 13.7749 41.7886 13.5217C32.6943 11.9777 23.824 14.4249 18.1111 20.2922C10.5146 28.1049 12.4755 36.4503 12.1744 44.9964C12.0972 47.6289 9.98959 48.455 7.88973 48.0072C7.28757 47.8528 6.08324 47.5518 5.57371 48.3083C3.21909 51.6897 7.65041 61.4093 13.8187 63.8179ZM21.6392 83.7357C13.9654 80.9565 14.2665 68.7742 15.548 64.4896C16.4258 64.8339 17.3291 65.1095 18.2501 65.3156C16.8991 71.1829 18.6284 84.4151 32.7638 84.5618C28.0237 85.0867 24.6423 84.7857 21.6392 83.7357ZM32.4473 31.1157C34.0685 32.3664 35.296 27.9119 41.5415 29.5717C42.6841 29.8959 44.9306 28.3056 41.1632 27.6185C44.6218 27.3174 50.4891 26.8465 51.4618 23.3339C51.9893 24.0859 52.6713 24.7166 53.4621 25.1839C54.2529 25.6512 55.1344 25.9443 56.0475 26.0436C51.9019 26.476 52.6276 29.039 54.1716 28.5218C57.1052 27.3174 61.6137 27.1708 63.4357 28.5218C64.094 29.2072 64.5043 30.0931 64.6014 31.0385C63.3276 29.3864 62.1232 28.8615 59.0429 28.8615C55.5071 28.8615 51.6008 30.9613 51.9791 35.1765C49.5704 34.1188 47.0923 35.0993 46.3357 36.6047C45.5791 38.1101 46.6368 38.4807 47.2389 37.8785C49.2539 35.5625 53.7547 36.8594 52.8746 40.3644C52.8051 40.8893 53.029 41.3371 53.554 41.3371C54.0789 41.3371 54.7583 40.21 54.7583 39.3839C58.6646 40.4338 65.7362 39.685 65.1341 34.4971C66.2612 41.6382 66.4851 49.0803 64.4547 51.0335C60.2009 49.8369 55.9163 53.2337 55.3373 55.5497H53.9091C51.9559 53.7432 46.8452 54.0057 43.6877 55.6192C36.315 55.9975 30.5636 52.4617 28.2012 49.8369C28.5023 43.2903 25.0437 32.6211 32.6326 29.9114C32.2388 30.2897 32.1771 30.8841 32.4627 31.1157H32.4473ZM63.3276 34.9757C63.3276 36.4734 62.5015 36.7745 61.22 37.23C59.1896 35.5007 56.9354 33.6942 54.7583 32.1193C55.8082 30.8378 60.695 30.0117 61.9766 31.2161C62.8818 32.2488 63.3739 33.5794 63.3585 34.9526L63.3276 34.9757ZM66.4851 57.0011C65.8598 59.0315 61.081 59.3171 60.695 56.7695C60.394 55.4185 59.2668 55.5729 57.3908 55.4185C58.0625 53.6892 60.7722 52.3305 63.1037 52.4849C65.0877 52.6161 67.3343 54.2914 66.516 56.978L66.4851 57.0011ZM37.6892 60.3053C34.8328 60.9075 31.5132 61.5096 29.9691 61.7335C28.4251 61.9574 28.1626 60.9615 29.0659 60.6836C29.9691 60.4057 30.7952 60.1586 31.3202 60.0042C30.5481 58.4988 29.2126 57.3022 30.1158 57.1478C31.0191 56.9934 31.8451 58.1283 32.8256 59.5565C39.4957 58.4216 38.5693 60.0428 37.7201 60.2821L37.6892 60.3053ZM58.7419 76.5175C57.0898 76.2164 54.3028 75.3903 54.2333 75.3903C53.1062 75.0198 52.203 76.8185 56.3332 77.8762C46.5596 82.0836 38.523 79.3739 38.7469 67.8401C38.7469 58.1282 46.907 53.944 52.504 56.7155C53.7084 57.3176 54.048 59.873 53.1757 60.8457C51.8247 62.3897 49.1381 60.9924 48.891 63.8565C48.119 72.7115 57.0898 71.0748 62.6482 71.5226C61.975 73.5868 60.6049 75.3526 58.7727 76.5175H58.7419ZM72.7229 70.5035C71.9509 70.1098 71.3024 68.7665 70.6925 69.6775C70.2448 70.3568 70.8469 71.5612 71.5186 71.9935C70.4679 73.0203 69.2484 73.8586 67.9133 74.4716C67.5559 74.0191 67.2235 73.5475 66.9174 73.0589C66.6163 72.6111 65.1109 72.6883 66.0142 75.0198C64.9312 75.2877 63.8177 75.4123 62.7023 75.3903C63.6526 74.1829 64.3034 72.7675 64.6014 71.2601C67.8361 70.5807 71.7502 67.8015 74.6375 66.3733C74.3249 67.8731 73.6813 69.2842 72.7538 70.5035H72.7229ZM70.0209 66.7439C65.4506 69.361 63.7059 69.8319 56.6343 69.4536C53.1757 69.2297 50.4582 68.4731 50.8442 63.8874C50.8442 63.6635 51.0758 63.5169 51.2997 63.4397C54.4572 62.9147 56.4104 61.2626 55.2061 57.2018C56.2637 57.0474 58.3636 56.978 58.9657 57.5724C59.869 60.6604 66.0528 61.7181 67.9905 58.0279C76.2973 58.4679 76.2047 58.8462 76.2587 61.3321C76.3282 63.2158 75.1007 63.8565 70.0518 66.7439H70.0209ZM7.69673 49.8369C19.8404 51.8596 8.9165 31.4786 19.2768 21.6432C24.7658 16.3781 32.8564 14.0466 41.3022 15.4054C42.5343 15.6918 43.8105 15.742 45.0619 15.552C54.905 13.2978 65.5818 17.3585 69.8665 25.0246C72.0308 29.0344 73.5053 33.3796 74.2283 37.8785C76.5443 50.2847 82.9288 43.4756 81.1764 48.4782C79.8905 52.0157 77.2644 54.9053 73.8655 56.5225C72.5145 56.2986 70.708 56.2214 68.3765 56.0747C68.4144 55.2087 68.2434 54.3463 67.878 53.5602C67.5125 52.7742 66.9633 52.0876 66.2766 51.5585C69.3647 47.2738 67.2494 35.0993 66.5777 31.1929C65.6745 26.005 62.9647 24.4996 57.9312 24.4224C54.3955 24.3529 53.2992 22.392 51.6162 20.0606C48.5282 15.7142 45.8416 17.0497 47.7562 18.4085C51.8169 20.8171 49.941 25.1018 45.0542 25.3565C31.8065 26.7076 24.5496 28.2902 25.9547 41.5687C27.3134 55.4031 24.6809 63.4474 22.2722 63.6713C13.4482 64.5899 6.70084 56.8467 6.70084 50.6629C6.70084 49.5358 7.20265 49.7597 7.72761 49.8369H7.69673Z" fill="#001434"/>
<path d="M96.2541 116.213C87.3142 115.525 86.604 115.163 86.7043 122.003C86.7043 125.454 86.5577 127.037 90.0934 127.338C97.1573 127.863 98.8866 128.542 99.1105 123.276C99.4425 117.486 99.2881 116.436 96.2541 116.213ZM90.2401 125.686C89.905 125.656 89.5863 125.527 89.3242 125.316C89.0621 125.105 88.8683 124.821 88.7671 124.5C88.6836 124.233 88.6671 123.95 88.7191 123.675C88.7712 123.4 88.8902 123.142 89.0656 122.925C89.241 122.707 89.4674 122.535 89.7248 122.426C89.9822 122.316 90.2626 122.272 90.5412 122.297C90.7774 122.295 91.0113 122.343 91.2282 122.437C91.4451 122.531 91.6401 122.668 91.8011 122.841C92.043 123.102 92.1973 123.433 92.2426 123.786C92.2878 124.139 92.2217 124.497 92.0536 124.811C91.8846 125.125 91.622 125.377 91.3024 125.534C90.9828 125.691 90.6222 125.744 90.271 125.686H90.2401ZM90.6879 120.645C90.4659 120.631 90.2488 120.574 90.0494 120.475C89.8501 120.376 89.6727 120.238 89.5275 120.07C89.3824 119.901 89.2726 119.705 89.2046 119.493C89.1366 119.281 89.1117 119.058 89.1315 118.837C89.1516 118.615 89.216 118.4 89.321 118.203C89.426 118.007 89.5695 117.834 89.7428 117.694C89.9161 117.555 90.1158 117.451 90.3298 117.39C90.5439 117.329 90.7681 117.312 90.989 117.34C93.2741 117.309 93.2046 120.869 90.7188 120.645H90.6879ZM95.1269 123.733C94.6489 123.692 94.2065 123.464 93.8968 123.097C93.587 122.731 93.4353 122.257 93.4748 121.779C93.4946 121.542 93.5608 121.311 93.6696 121.1C93.7785 120.889 93.9279 120.702 94.1092 120.548C94.2906 120.395 94.5004 120.279 94.7267 120.206C94.953 120.134 95.1913 120.107 95.428 120.127C95.682 120.119 95.936 120.164 96.1715 120.26C96.407 120.357 96.6196 120.502 96.7956 120.686C96.9717 120.87 97.1072 121.088 97.1936 121.328C97.3234 121.689 97.3353 122.082 97.2275 122.45C97.1197 122.818 96.8978 123.143 96.5938 123.377C96.3925 123.533 96.1605 123.644 95.913 123.704C95.6655 123.764 95.4081 123.771 95.1578 123.724L95.1269 123.733Z" fill="#001434"/>
<path d="M40.6689 44.9497C39.0168 50.207 42.9232 51.4114 47.81 51.3342C52.4421 51.2647 55.6304 50.207 54.65 45.0963C54.3489 43.4442 53.299 43.2898 52.249 43.5523C46.6674 45.0269 42.1589 39.9934 40.6689 44.9497ZM51.7936 45.3974C52.6968 45.2507 52.8512 45.4746 52.9207 46.1694C53.0751 47.2966 52.9207 48.1303 52.4729 48.4854C51.6469 49.6126 42.321 50.4386 42.2516 47.4355C43.0236 47.7366 44.3514 47.8833 44.6525 47.2116C45.108 46.2312 43.4559 46.4396 42.3982 45.4823C42.8537 43.9383 43.5331 44.4787 44.583 44.7103C46.6057 45.2044 49.3772 45.9996 51.7781 45.3974H51.7936Z" fill="#001434"/>
<path d="M79.7484 116.058C80.7404 116.218 81.7479 116.27 82.7515 116.213C82.1493 122.898 82.3809 127.94 82.3037 137.258C82.2265 144.399 84.2569 146.059 88.3176 146.653C96.2075 147.78 98.3537 148.081 102.901 147.78C106.962 151.47 113.5 151.841 119.113 150.714C130.091 148.398 141.362 146.128 146.249 138.084C151.136 129.669 148.511 115.695 142.343 107.489C149.183 106.817 152.039 103.204 149.708 98.7731C145.647 89.509 150.966 78.562 139.71 70.2088C131.843 64.3647 111.671 60.8135 104.152 64.1949C97.9754 67.0513 96.4314 71.6371 95.5127 74.8718C92.278 76.1533 89.9466 82.9933 91.6527 86.2203C90.904 87.0316 90.2726 87.9437 89.7767 88.93C58.6957 82.0823 54.3339 120.868 79.7484 116.058ZM89.3058 90.7288C89.1269 91.5196 89.0031 92.3218 88.9352 93.1297C86.7355 93.1275 84.5503 93.4847 82.4658 94.1874C81.3192 92.6266 79.7942 91.3833 78.0345 90.5744C81.7645 89.8757 85.5964 89.9282 89.3058 90.7288ZM80.366 110.122C80.366 110.5 81.138 112.53 83.5235 114.329C80.2888 114.785 75.8034 113.881 74.0509 109.519C73.8193 109.072 73.3716 108.747 73.0705 109.296C72.0206 110.801 74.877 114.329 76.0813 114.785C61.2665 115.155 62.4708 95.5384 75.0237 91.4776C77.1896 92.0329 79.1327 93.2402 80.5898 94.9362C78.5595 95.7082 76.9074 97.1133 76.9768 98.3176C76.976 98.4407 77.0098 98.5615 77.0743 98.6663C77.1388 98.7711 77.2315 98.8557 77.3417 98.9104C77.452 98.9651 77.5753 98.9878 77.6978 98.9758C77.8203 98.9638 77.937 98.9176 78.0345 98.8426C83.5775 93.4849 99.0794 93.2841 95.4741 101.552C94.7948 100.78 93.822 98.8426 92.6949 98.997C92.1622 99.0742 92.1622 99.9002 92.4633 100.271C96.5241 106.285 97.6512 111.697 92.9188 111.473C90.6645 111.326 88.0629 108.385 85.2528 103.961C84.9594 103.498 84.4808 103.282 84.1951 103.66C82.8441 105.389 88.1787 110.801 88.557 111.102C87.1556 111.088 85.8051 111.626 84.7973 112.6C83.068 112.075 81.9409 110.122 81.4159 108.994C81.0222 108.246 79.895 108.616 80.3505 110.122H80.366ZM88.7036 144.777C83.3536 144.005 84.1565 142.291 84.4962 118.614C84.3495 115.757 85.8472 112.299 89.4602 112.901C107.077 114.669 108.675 112.7 108.104 122.829C107.875 123.406 107.722 124.011 107.649 124.628C107.294 127.121 96.9255 124.728 98.4772 138.385C98.7496 141.136 99.7635 143.761 101.411 145.981C99.2184 146.059 95.6054 145.827 88.6882 144.777H88.7036ZM96.7479 111.697C97.5286 110.858 97.9594 109.754 97.9523 108.608C100.121 110.246 102.499 111.586 105.024 112.592C102.43 111.998 99.5195 111.998 96.7325 111.697H96.7479ZM144.79 137.258C143.81 138.539 142.003 141.843 135.016 144.476C129.787 146.383 124.404 147.842 118.928 148.838C112.69 149.965 107.88 149.363 104.491 146.584C106.074 146.128 108.776 145.904 109.123 144.399C109.278 143.727 108.444 143.627 107.996 143.797C106.345 144.301 104.664 144.704 102.963 145.001C101.461 143.042 100.547 140.697 100.33 138.238C107.533 137.837 107.17 134.872 105.286 135.459C103.644 136.039 101.917 136.342 100.176 136.354C99.8051 125.608 108.745 129.816 109.502 124.859C109.803 123.053 110.551 121.771 111.601 121.625C114.388 121.169 114.612 125.153 116.643 125.685C117.615 125.909 119.499 125.083 122.579 123.277C136.128 124.859 144.998 131.769 144.775 137.258H144.79ZM146.064 134.255C143.748 128.241 134.26 122.829 122.834 121.47C122.192 120.656 121.687 119.744 121.336 118.768C121.174 118.32 120.495 117.857 120.132 118.243C119.283 119.123 120.657 121.331 120.958 122.103C119.74 122.73 118.484 123.282 117.198 123.755C115.245 120.829 112.566 118.799 109.98 120.374C109.98 117.672 110.135 115.039 106.977 113.387C117.947 117.147 134.715 114.059 139.749 106.995C145.662 113.503 148.75 125.801 146.048 134.293L146.064 134.255ZM105.024 69.074C104.947 70.9577 105.549 73.2891 107.726 73.706C111.632 74.6093 116.218 67.53 117.276 69.9464C118.102 71.8301 116.148 74.9104 119.152 76.2614C122.911 77.9907 129.45 69.1203 128.925 75.057C128.477 79.7972 132.461 80.1677 135.688 77.844C136.892 77.0179 138.004 76.9485 138.475 77.3113C140.32 78.7858 135.619 87.1621 138.174 91.3001C137.324 91.2229 136.468 91.2229 135.619 91.3001C138.475 79.9438 121.406 75.1342 117.09 85.3556C116.322 84.2894 115.174 83.5583 113.883 83.3128C112.592 83.0672 111.256 83.3259 110.15 84.0355C110.675 76.8944 104.808 72.9881 97.9677 73.9994C101.017 67.9469 105.008 69.074 105.008 69.074H105.024ZM118.102 88.9223C119.453 76.5702 138.699 81.2563 132.986 93.2069C133.029 92.1029 132.762 91.0089 132.214 90.0494C130.84 87.7797 120.526 84.0355 118.086 88.9223H118.102ZM130.655 95.6156C129.45 96.9666 127.566 96.5188 125.845 96.4416C124.718 93.8091 123.359 90.8755 122.162 88.3973C125.088 88.0962 129.975 89.8255 130.732 91.0299C131.488 92.2342 131.164 94.859 130.639 95.6156H130.655ZM104.746 76.8172C102.976 76.6082 101.19 76.5591 99.4114 76.6705C97.1571 76.9716 97.4582 78.8476 98.732 78.7009C101.666 78.3226 105.68 78.3226 107.602 79.9747C107.937 80.8703 108.14 81.809 108.205 82.7617C106.027 81.3335 100.315 79.6042 96.7016 81.4801C95.2734 82.2521 94.0768 84.4138 93.8452 86.5136C91.3979 81.5496 94.4319 72.6793 104.746 76.8172ZM105.95 83.5877C103.696 85.5409 100.986 88.0962 98.732 90.2038C94.4474 89.4318 95.1731 84.5141 97.6049 82.9856C99.8669 81.5882 104.105 82.9084 105.981 83.5877H105.95ZM92.6795 87.9727C95.4587 92.0335 100.346 93.1606 105.155 92.2574C105.232 94.9671 108.76 95.716 110.042 95.6465C111.47 95.5693 111.995 94.2877 110.868 94.2183C109.741 94.1488 107.78 93.6161 107.332 92.9367C106.205 91.2074 107.108 88.7293 108.992 88.351C110.876 87.9727 111.393 88.5054 111.918 88.5054C112.976 88.5749 113.277 86.3978 110.374 86.3978C111.347 84.1436 116.55 84.6685 116.233 88.6521C115.701 95.824 120.425 98.2095 127.435 98.4257C130.894 98.5724 133.526 96.9975 135.032 93.315C144.296 91.5085 143.076 101.807 136.985 107.072C129.265 115.116 106.105 115.116 97.4428 105.644C97.1624 104.788 96.8112 103.956 96.3928 103.158C100.029 97.8004 95.8524 93.2147 90.68 93.122C90.8305 91.2474 91.5255 89.4577 92.6795 87.9727Z" fill="#001434"/>
</svg>
