<svg width="154" height="154" viewBox="0 0 154 154" fill="none" xmlns="http://www.w3.org/2000/svg">
<path d="M108.487 42.9514C107.951 43.1045 90.6623 55.4547 89.2319 56.5397C87.8016 57.6247 84.9868 61.4571 85.3528 61.8071C85.9195 62.3492 90.7649 60.5949 91.4135 60.219C92.062 59.843 110.131 47.0847 111.016 46.4729C111.901 45.8611 109.027 42.799 108.487 42.9514Z" fill="#38A1FF"/>
<path d="M76.6 82.5181C68.9382 82.9576 61.9205 76.8518 50.9738 73.426C46.3795 74.2262 37.6756 73.7836 36.4252 70.9474C20.0604 73.3716 6.25609 83.7348 4.11209 90.7028C2.05768 97.3699 11.5548 110.546 16.1131 114.85C18.1254 103.407 20.9233 91.2212 25.3683 80.4698C25.5934 79.9246 26.0965 80.2585 25.9258 80.7853C21.0559 95.7833 17.606 111.206 15.6215 126.849C24.2741 131.965 51.8398 133.159 60.7711 130.971C60.8439 127.195 61.3768 114.521 61.8684 104.715C58.0314 104.408 54.2036 103.961 50.4064 103.336C49.8 103.237 50.0672 102.596 50.6614 102.676C57.8024 103.634 72.2545 105.313 80.6008 103.027C85.7311 101.621 96.2627 96.2121 104.644 70.7138C102.22 68.8953 98.0982 67.3255 94.0376 66.8853C92.9288 70.0806 80.3696 82.3014 76.6 82.5181Z" fill="#38A1FF"/>
<path d="M72.4785 28.5804C76.6506 31.5016 80.3924 34.9936 83.5944 38.9543C84.102 39.5569 84.6664 39.083 85.0492 38.5906C90.1382 32.0147 92.8595 28.1555 99.6621 22.5106C100.198 22.068 99.5917 21.4202 99.0197 21.8215C94.3573 25.0788 87.1886 31.9434 84.1281 36.7919C80.8583 33.2495 77.1234 30.1667 73.0252 27.6279C72.2404 27.1485 71.7166 28.0735 72.4785 28.5804Z" fill="#38A1FF"/>
<path d="M77.0606 27.8591C78.3815 28.0123 87.9698 27.6072 89.4652 27.5804C90.211 27.5666 90.2661 26.3752 89.5081 26.4043C87.9989 26.4617 78.3286 26.6853 76.9733 26.9257C76.4182 27.0237 76.5637 27.8002 77.0606 27.8591Z" fill="#38A1FF"/>
<path d="M73.8969 57.019C73.2315 56.7189 72.6848 57.6247 73.2912 58.0007C76.6839 60.1152 79.9244 62.4645 82.989 65.0315C83.914 65.8041 85.0518 64.3324 84.1376 63.5529C81.0472 60.9056 77.5999 58.7061 73.8969 57.019Z" fill="#38A1FF"/>
<path d="M93.6142 41.5754C93.6471 38.72 93.3684 35.6594 93.3531 32.7865C93.3531 32.0591 92.3408 32.1808 92.3469 32.9075C92.3719 35.9504 92.3975 38.9911 92.4235 42.0294C90.1386 42.0294 79.829 42.3089 77.4768 42.7507C77.2287 40.1389 77.11 37.5063 76.7256 34.9083C76.706 34.8054 76.6492 34.7134 76.566 34.6498C76.4827 34.5863 76.379 34.5557 76.2746 34.5639C76.1702 34.5722 76.0725 34.6187 76.0003 34.6946C75.9281 34.7704 75.8864 34.8702 75.8833 34.9749C76.005 37.5263 76.113 40.1327 76.3083 42.6841C76.4124 44.0417 76.417 43.9514 77.7562 43.8541C82.3934 43.5164 87.1148 43.2415 91.7634 43.1994C93.105 43.1864 93.5943 43.2783 93.6142 41.5754Z" fill="#38A1FF"/>
<path d="M87.8496 52.0067C85.2852 52.0396 82.4896 52.0794 79.9397 52.3696C77.2789 52.6759 77.4665 52.8995 77.6548 55.2977C77.6983 55.9283 77.7791 56.5558 77.8968 57.1768C77.9108 57.2931 77.967 57.4003 78.0547 57.4781C78.1424 57.5558 78.2555 57.5987 78.3727 57.5987C78.4899 57.5987 78.603 57.5558 78.6907 57.4781C78.7784 57.4003 78.8346 57.2931 78.8486 57.1768C78.8486 56.7403 78.6365 53.7762 78.6955 53.7035C78.7544 53.6308 86.8059 53.0657 87.6658 53.0067C88.407 52.9554 88.5885 51.9967 87.8496 52.0067Z" fill="#38A1FF"/>
<path d="M79.2668 63.7344C79.2409 63.6183 79.1737 63.5155 79.0776 63.4452C78.9816 63.3749 78.8634 63.3419 78.7448 63.3523C78.6263 63.3627 78.5156 63.4158 78.4333 63.5017C78.351 63.5876 78.3027 63.7005 78.2974 63.8194C78.3312 65.4067 78.4465 66.9913 78.6427 68.5668C78.6315 68.7158 78.6799 68.8632 78.7772 68.9766C78.8745 69.09 79.0129 69.1602 79.1619 69.1717C79.2384 69.1779 85.1046 69.027 89.3949 68.6212C90.4921 68.5178 89.8252 67.5354 89.1828 67.5852C86.1521 67.8149 82.7584 67.9366 79.7155 68.027C79.5945 66.553 79.4911 65.1471 79.2668 63.7344Z" fill="#38A1FF"/>
<path d="M53.2287 49.7999C51.7501 49.7096 50.8711 51.5335 51.6651 51.6973C52.0771 51.7823 52.2103 50.7517 53.1621 50.7578C53.2891 50.7667 53.4145 50.7247 53.5105 50.6411C53.6066 50.5575 53.6655 50.4392 53.6744 50.3122C53.6832 50.1851 53.6412 50.0598 53.5576 49.9637C53.4741 49.8677 53.3558 49.8087 53.2287 49.7999Z" fill="#191919"/>
<path d="M55.2955 48.1636C55.0749 47.7195 54.6829 48.0809 54.7863 48.5028C55.4364 51.0994 56.1737 52.5458 56.7258 55.431C57.0229 56.9823 55.6056 56.0367 55.5619 57.2496C55.534 58.1482 55.443 59.0437 55.2893 59.9296C54.6747 59.8216 54.1125 59.515 53.689 59.0567C53.4164 58.6991 52.9439 59.0207 53.1683 59.4992C53.3696 59.8714 53.6575 60.1897 54.0078 60.427C54.358 60.6644 54.7603 60.8139 55.1806 60.863C54.6898 64.7681 52.6262 64.9917 49.3252 64.3087C48.7187 64.1839 48.1115 63.9679 47.4461 63.8784C47.1245 63.8355 46.2975 64.4848 48.4584 65.0905C48.4584 66.1395 48.6881 71.4919 48.986 72.4735C49.1123 72.8855 49.7624 72.8364 49.7257 72.3701C49.5342 69.9451 49.4584 67.6786 49.4194 65.3087C56.0045 66.6548 55.8988 62.6241 56.4257 57.4601C57.7833 57.2656 57.8445 56.1423 57.6378 55.0657C57.1746 52.6692 56.3865 50.3471 55.2955 48.1636Z" fill="#191919"/>
<path d="M36.6579 37.0538C34.8968 30.6831 28.075 24.0887 18.8933 28.8775C9.71166 33.6663 10.9299 46.5525 15.8688 52.0067C18.9714 55.4317 21.9302 59.4739 21.4753 62.6134C21.0205 65.7528 25.8529 63.0253 23.336 52.7395C21.3245 44.5203 27.8935 37.684 33.033 40.9023C33.9754 39.3927 35.2074 38.0847 36.6579 37.0538Z" fill="#191919"/>
<path d="M45.8217 52.2188C47.1931 53.0327 55.717 46.1558 55.1925 44.5754C50.9811 31.8975 35.3191 35.1854 32.8084 44.2538C29.9913 54.4294 38.3782 62.4104 38.9119 62.3407C39.6875 62.2389 42.1279 60.6738 43.0337 57.6247C43.4327 57.8582 43.8866 57.9813 44.3488 57.9813C44.8111 57.9813 45.265 57.8582 45.6639 57.6247C46.1846 57.3284 45.8087 56.7372 45.2581 56.9356C43.9166 57.4141 42.4701 56.3291 42.6156 54.0144C42.6189 53.6413 42.7208 53.2758 42.9108 52.9549C43.1008 52.6339 43.3723 52.3688 43.6978 52.1866C44.0232 52.0043 44.3911 51.9113 44.7641 51.9169C45.137 51.9226 45.5019 52.0267 45.8217 52.2188Z" fill="#191919"/>
<path d="M38.4815 63.5222C37.9843 65.8164 37.7183 68.1545 37.6875 70.5017C37.6971 70.599 37.7408 70.6897 37.811 70.7577C37.8812 70.8257 37.9732 70.8666 38.0707 70.8731C38.1682 70.8796 38.2648 70.8513 38.3434 70.7933C38.422 70.7352 38.4775 70.6512 38.4999 70.5561C38.9639 68.3225 39.0359 65.9136 39.4456 63.5919C39.5428 63.0375 38.5857 62.9832 38.4815 63.5222Z" fill="#191919"/>
<path d="M54.136 52.8903C53.7868 51.6759 52.6367 51.623 53.0877 53.3329C53.4982 54.8812 54.5043 54.1675 54.136 52.8903Z" fill="#191919"/>
<path d="M91.5709 52.7272C91.9361 52.3597 94.6337 52.1499 94.8382 52.0848C95.303 51.9317 95.1958 51.2479 94.8076 51.097C94.0258 50.7907 91.8136 51.2303 91.0739 51.633C90.3343 52.0358 90.2102 53.3858 89.5525 54.8031C89.2148 55.5305 88.7622 56.1998 88.4674 56.9425C88.3243 57.3047 88.7615 57.5551 89.0739 57.3062C90.5647 56.1316 91.5525 52.7456 91.5709 52.7272Z" fill="#191919"/>
<path d="M89.7585 59.0735C89.6566 59.0684 89.5563 59.0997 89.4753 59.1617C89.3943 59.2237 89.3379 59.3124 89.3161 59.412C89.2943 59.5117 89.3086 59.6158 89.3564 59.706C89.4042 59.7961 89.4824 59.8664 89.5771 59.9043C94.8521 61.8369 94.5282 65.3539 95.2625 66.1892C95.421 66.37 96.4585 66.7559 96.202 65.2704C95.6844 62.2734 92.8191 59.3147 89.7585 59.0735Z" fill="#191919"/>
<path d="M100.56 55.5336C102.61 60.5321 102.712 61.7657 102.578 67.1724C102.563 67.7789 103.472 68.0224 103.633 67.4021C104.565 63.8125 103.473 58.0604 101.323 55.0312C101.006 54.5841 100.371 55.0734 100.56 55.5336Z" fill="#191919"/>
<path d="M97.2021 57.1278C97.0818 58.4862 96.2242 58.4755 95.3835 58.7281C94.3329 59.0436 94.9286 59.3338 95.3835 59.4433C95.7333 59.542 96.1024 59.551 96.4566 59.4696C96.8108 59.3882 97.1389 59.219 97.4106 58.9775C97.6823 58.7361 97.8888 58.4301 98.0112 58.0879C98.1336 57.7456 98.1679 57.3781 98.111 57.0191C97.9839 56.4203 97.2534 56.5466 97.2021 57.1278Z" fill="#191919"/>
<path d="M134.823 38.2292C135.987 38.1649 135.647 36.3823 134.495 36.4474C126.174 36.9191 117.711 36.4168 109.645 36.9206C108.726 36.9773 108.888 38.3686 109.722 38.4658C114.531 39.0263 130.126 38.4949 134.823 38.2292Z" fill="#191919"/>
<path d="M148.351 27.1133C138.436 26.7856 117.531 26.8836 108.318 27.853C107.566 27.9296 107.36 29.3132 108.263 29.3079C118.81 29.242 136.196 28.5353 148.521 28.925C149.697 28.9633 149.503 27.1516 148.351 27.1133Z" fill="#191919"/>
<path d="M147.121 52.473C135.113 53.4684 120.722 52.2288 109.779 53.5519C108.912 53.6568 109.13 55.1323 110.021 55.0833C119.791 54.4991 134.265 54.9187 147.17 54.3077C148.333 54.2487 148.303 52.375 147.121 52.473Z" fill="#191919"/>
<path d="M133.296 60.9831C127.682 60.6477 115.258 60.6845 110.554 60.9157C109.675 60.9594 109.548 62.4418 110.463 62.4977C117.47 62.928 125.118 62.9058 133.191 62.7404C134.144 62.7213 134.344 61.0451 133.296 60.9831Z" fill="#191919"/>
</svg>
