<svg width="156" height="156" viewBox="0 0 156 156" fill="none" xmlns="http://www.w3.org/2000/svg">
<path d="M142.75 58.9167C140.565 54.7788 131.78 44.9125 117.914 42.0561C104.049 39.1996 90.9406 49.7761 91.01 63.5488C91.095 82.7872 110.75 89.604 120.292 91.094C129.834 92.5839 136.667 89.604 139.708 86.9097C142.75 84.2154 142.441 81.0965 140.851 77.7382C145.954 72.3574 144.935 63.0624 142.75 58.9167ZM116.023 83.4511C112.233 83.6827 107.878 83.3739 103.995 80.3631C100.112 77.3522 94.8855 74.0326 94.1753 64.699C93.465 55.3655 99.6951 47.0741 112.989 46.1709C112.989 46.1709 124.407 54.3773 127.264 67.1926C130.12 80.0079 119.806 83.2195 116.015 83.4511H116.023Z" fill="#3D9CFB"/>
<path d="M54.7412 44.2486C53.1971 41.5698 54.4555 35.8415 50.7962 35.1775C48.5728 34.7761 46.859 38.613 42.3041 41.3999C38.4441 43.7159 32.7081 45.4066 32.4456 47.9002C32.1754 50.5868 35.4796 52.9414 36.4446 54.8483C37.9037 57.7588 36.5681 62.8617 39.44 64.4598C42.7287 66.2894 46.0484 60.1288 51.1282 57.6661C56.208 55.2034 58.2924 56.5004 60.3923 53.4046C62.7546 49.946 57.4741 49.0042 54.7412 44.2486Z" fill="#3D9CFB"/>
<path d="M48.1557 116.416C38.7527 116.416 30.3995 116.107 28.5158 116.647C27.866 116.774 27.2767 117.113 26.8406 117.612C26.4045 118.11 26.1462 118.739 26.1065 119.4C26.0667 120.061 26.2476 120.716 26.6209 121.263C26.9941 121.81 27.5385 122.218 28.1684 122.422C30.3223 123.117 41.4701 122.7 52.2937 122.7H59.2417C59.2417 120.384 59.2417 118.145 59.3035 116.524C55.8217 116.454 51.8691 116.423 48.1557 116.416Z" fill="#3D9CFB"/>
<path d="M62.6306 35.9109C61.9976 36.0112 59.1411 33.8882 58.346 34.5907C55.6748 37.0226 66.3903 46.1477 66.4906 51.8451C66.4906 52.6789 67.9266 54.3078 69.3471 53.1884C70.2656 52.596 71.1403 51.938 71.9642 51.2198C73.045 50.1467 68.2894 45.5687 65.9966 37.5321C65.433 35.5558 64.5838 35.5944 62.6306 35.9109Z" fill="#3D9CFB"/>
<path d="M71.671 112.494C70.0498 112.023 61.882 111.946 48.3487 111.915C34.4526 111.915 26.9873 112.139 24.8488 113.351C20.3248 115.914 20.1164 123.132 24.5323 125.811C28.7629 128.004 45.6698 126.823 53.0579 127.046C59.6972 127.093 70.5594 127.1 71.3777 126.483C78.511 124.074 77.7004 114.223 71.671 112.494ZM70.7601 124.692C67.1471 125.564 51.6452 125.001 45.1372 125.194C36.3594 125.271 27.2883 125.348 25.559 124.229C22.3243 122.252 22.4093 116.794 25.8138 114.965C32.0362 112.942 64.6689 113.807 71.177 114.301C75.7164 115.605 75.6623 123.487 70.7601 124.692Z" fill="#001434"/>
<path d="M68.7761 115.767C66.4601 115.597 47.986 115.227 40.6287 115.451C31.2334 115.736 25.5669 115.219 25.4511 119.704C25.3121 125.224 31.3492 123.495 52.2938 123.68C58.354 123.734 66.6222 123.68 69.7874 123.086C71.7483 122.7 72.2656 120.932 72.3042 119.403C72.3144 118.932 72.231 118.464 72.0586 118.025C71.8863 117.586 71.6285 117.186 71.3003 116.848C70.9721 116.509 70.5799 116.24 70.1466 116.054C69.7133 115.869 69.2474 115.771 68.7761 115.767ZM68.2511 121.588C63.7889 121.735 34.6997 122.213 31.7738 122.121C28.3152 122.013 27.1418 121.503 27.1418 119.674C27.1418 118.353 28.1454 117.628 31.4959 117.358C35.7265 116.987 42.9756 117.234 48.6267 117.103C54.0308 116.972 62.5229 117.388 67.6721 117.597C71.2851 117.69 71.1385 121.465 68.2511 121.557V121.588Z" fill="#001434"/>
<path d="M115.336 57.4807C117.366 57.033 119.134 58.0134 120.663 58.5075C124.322 56.4694 116.031 54.9563 114.965 55.6279C114.72 55.6771 114.503 55.8218 114.364 56.0303C114.225 56.2388 114.175 56.4939 114.224 56.7396C114.273 56.9853 114.418 57.2014 114.627 57.3404C114.835 57.4794 115.09 57.5299 115.336 57.4807Z" fill="#001434"/>
<path d="M120.856 87.4888C123.774 87.952 123.465 86.1378 121.736 85.6669C119.682 85.111 116.64 84.81 116.054 84.3931C135.779 81.0734 129.711 58.4613 115.344 46.7268C113.897 45.4188 112.327 44.2529 110.657 43.2451C109.113 42.419 108.511 43.8936 109.036 44.2487C109.697 44.7058 110.315 45.2226 110.881 45.7927C100.776 46.3872 93.2178 53.1808 93.2255 63.2246C93.1792 75.6231 102.25 84.5243 120.856 87.4888ZM113.352 47.576C123.565 55.6976 129.417 68.7522 125.457 76.3951C122.886 81.3822 116.965 83.5516 109.731 82.2237C88.9795 75.4301 90.6933 46.7191 113.352 47.576Z" fill="#001434"/>
<path d="M141.778 124.26C143.746 122.8 143.53 119.149 143.067 115.976C141.461 106.889 143.237 94.8538 140.797 87.1723C142.012 85.9695 142.789 84.3941 143.003 82.6978C143.217 81.0016 142.856 79.2826 141.978 77.8156C147.606 69.7095 146.294 60.1906 139.052 51.3743C127.874 37.7638 110.11 33.6182 96.6384 43.716C98.1824 38.1267 95.7969 30.5919 84.4947 27.3109C84.9116 19.3051 74.2888 12.7662 67.2404 16.3483C58.4163 -2.78199 27.7908 2.74558 25.552 23.5512C1.0639 22.6402 9.00786 57.2647 29.0569 52.2544C29.8289 54.1227 30.7785 56.0372 31.7744 58.0059C31.6074 58.1489 31.4933 58.344 31.4505 58.5597C31.4078 58.7754 31.4388 58.9992 31.5385 59.1952C31.6383 59.3912 31.801 59.5479 32.0006 59.6403C32.2002 59.7326 32.4251 59.7551 32.639 59.7043C35.094 63.1165 35.3487 70.0029 40.4594 70.8443C44.9602 70.9447 50.9201 72.3884 55.2974 70.4815C66.3217 63.0548 76.6125 59.5036 76.435 53.9065C80.8123 54.8638 85.8612 54.2925 89.4587 52.293C85.9693 58.415 85.7454 72.0101 91.7748 78.6725C90.6245 79.3827 90.2848 80.9885 88.9338 80.6797C86.4637 79.5325 84.113 78.1439 81.9162 76.534C80.9975 73.446 81.3913 69.4547 79.3686 68.2427C77.3459 67.0306 75.7093 68.4743 74.366 69.8716C74.1498 70.0638 73.8854 70.1933 73.6011 70.2464C73.3168 70.2994 73.0234 70.274 72.7525 70.1727C66.229 65.2087 58.3005 70.0183 57.2429 80.0853C57.2429 89.3494 70.0042 94.6994 76.3887 100.157C74.945 107.878 80.2487 113.096 89.7521 115.435C89.6131 117.149 87.7989 119.597 89.1654 121.31C88.5478 129.031 87.853 129.224 87.6214 138.526C81.2214 141.414 77.9636 144.772 79.3918 148.006C81.3218 152.399 99.1938 150.732 107.3 150.106C110.048 151.897 120.748 151.187 137.624 151.094C141.747 151.094 143.399 151.017 142.774 147.497C144.981 143.899 142.395 127.818 141.778 124.26ZM29.7208 48.3095C29.4352 44.3722 38.3519 42.0871 40.7991 39.0454C51.7462 31.4257 52.1399 29.1096 57.8296 42.4268C54.7782 44.9463 51.4775 47.1476 47.9788 48.9965C41.1234 34.3284 38.3982 36.7679 46.3113 49.8921C42.1656 52.0923 36.3215 53.4896 33.1254 56.4232C31.6988 53.8505 30.5572 51.1298 29.7208 48.3095ZM34.8006 36.4746C34.1753 32.9079 39.0389 32.298 43.4548 34.6449V34.7916C39.1779 37.5863 35.0322 37.3624 34.8006 36.4746ZM48.2721 23.3505C53.4523 21.5208 50.2562 31.1246 45.1841 33.6799C44.1728 27.1873 46.5969 24.0916 48.2721 23.3196V23.3505ZM54.3478 31.9815C61.6356 31.0783 67.3948 36.3974 69.788 43.5616C65.6269 43.3609 63.3494 40.8827 59.5821 41.6548C57.93 39.2538 56.5635 34.3052 54.3478 31.9506V31.9815ZM63.3649 54.3697C62.0911 55.1417 58.3082 57.4577 53.3288 60.4686C52.1675 57.0727 50.6755 53.7991 48.8743 50.695C52.4639 48.809 55.848 46.5556 58.9722 43.9708C62.701 48.6028 63.28 52.9338 63.3649 54.3465V54.3697ZM40.2664 68.8834C39.7461 68.7474 39.2652 68.4905 38.8628 68.1337C38.4604 67.7769 38.1478 67.3302 37.9504 66.8299C36.7664 63.8899 35.4343 61.0118 33.9591 58.2066C36.8233 55.2266 43.1383 53.7675 47.1913 51.5673C49.0267 54.6982 50.5225 58.016 51.6535 61.4645C48.3802 63.7959 43.6247 65.8263 40.2664 68.8834ZM54.3401 68.8834C50.8661 70.2962 46.4734 69.0996 42.8141 69.2154C53.0509 62.8 62.4616 57.0949 64.4457 55.906C67.0966 56.7184 69.8565 57.1193 72.629 57.0949C66.7412 61.327 60.6366 65.249 54.3401 68.8448V68.8834ZM74.6285 55.0182C72.4514 55.4737 68.1513 55.0954 65.2563 54.1921C64.893 50.2439 63.3851 46.4876 60.9176 43.384C64.4148 43.7778 66.229 45.4221 70.7916 45.5071C72.4977 48.7263 74.8138 53.2349 74.6285 55.0182ZM75.8791 51.8452C75.0261 49.6519 74.0306 47.5166 72.8992 45.453C74.4432 44.8895 73.262 43.191 71.9496 43.6157C68.5219 33.4715 60.1919 27.5888 50.7117 30.8466C58.3314 16.4796 40.8454 19.3669 43.1615 32.3907C34.6694 27.5965 27.482 39.0917 37.7574 38.945C34.1985 42.365 25.2663 43.9013 28.4007 50.4402C14.6512 52.3857 9.40158 40.1725 13.7325 30.8621C16.0486 26.8168 20.503 24.9099 26.3471 25.5044C26.6043 25.5194 26.8572 25.4333 27.0519 25.2646C27.2466 25.0959 27.3676 24.8578 27.3894 24.6011C29.7054 2.9849 60.0298 0.568523 65.8816 17.985C65.9313 18.1134 66.0081 18.2296 66.1068 18.3256C66.2055 18.4216 66.3237 18.4952 66.4534 18.5414C66.5831 18.5875 66.7212 18.6052 66.8584 18.5931C66.9955 18.581 67.1284 18.5395 67.2481 18.4714C73.2697 14.5419 83.383 20.6484 82.5338 27.9285C82.512 28.152 82.5708 28.3761 82.6996 28.5601C82.8285 28.7441 83.0188 28.8761 83.2364 28.9321C104.768 34.9769 94.2297 56.3229 75.8791 51.8452ZM89.2735 68.482C85.923 51.6445 99.7959 39.2152 115.946 40.0027C127.418 40.5585 145.066 55.5509 143.569 68.0806C142.889 73.8475 141.168 76.727 136.86 80.0235C135.223 81.2664 136.667 82.5094 137.794 81.8686C138.893 81.2356 139.863 80.3999 140.651 79.4059C143.299 101.2 88.486 87.2418 89.2735 68.482ZM59.3736 78.6416C60.1456 79.2129 61.9753 81.9844 63.2337 80.618C63.372 80.4089 63.4221 80.1535 63.3729 79.9076C63.3238 79.6618 63.1793 79.4453 62.9712 79.3055C61.8553 78.5199 60.8526 77.5848 59.9912 76.5263C60.4764 75.3359 61.1205 74.2167 61.9058 73.199C62.7782 74.743 67.719 78.2942 66.3371 74.6117C65.1437 73.8514 64.0932 72.8871 63.2337 71.763C68.4601 66.9843 71.3938 73.6467 74.8138 71.8788C75.5008 71.5237 75.8019 70.4583 76.9445 69.6477C78.3341 68.6673 79.4381 70.5664 79.6079 75.4764C78.8359 84.9258 72.5209 90.0828 67.3639 91.2794C62.6546 87.7204 58.1847 84.3159 59.3736 78.6416ZM69.3171 92.669C76.1339 90.353 79.8086 84.0071 81.1288 78.2788C85.6141 81.0657 89.5359 85.1033 93.0563 80.093C101.27 88.9942 127.102 97.494 139.284 88.5156C141.137 96.1662 139.778 107.345 141.191 116.223C141.847 120.33 141.461 122.584 140.21 122.916C118.17 128.66 96.8623 122.291 90.8561 120.206C90.1535 119.041 91.6281 117.08 91.6281 115.93C113.877 122.523 125.905 126.938 134.436 102.435C134.499 102.215 134.481 101.981 134.385 101.773C134.289 101.566 134.122 101.4 133.913 101.307C133.705 101.213 133.47 101.197 133.251 101.263C133.032 101.328 132.845 101.47 132.722 101.663C125.457 121.473 118.301 122.569 93.5504 114.555C97.1402 111.884 100.406 105.152 100.344 98.2043C105.748 99.6325 109.045 102.234 111.152 96.2665C111.438 95.4482 112.82 93.9505 111.6 93.2634C109.577 92.5686 108.759 98.6675 107.47 98.1348C106.427 97.88 100.522 96.8996 98.2056 95.1471C97.8273 92.1209 96.1829 88.9711 93.5735 89.2027C91.9678 89.3416 90.8329 90.793 89.8988 92.1363C89.7605 92.3009 89.578 92.4226 89.3728 92.4869C89.1676 92.5512 88.9483 92.5554 88.7408 92.4991C81.9703 90.0056 78.5117 92.337 76.8905 98.1425L69.3171 92.669ZM89.1808 113.251C80.8277 110.85 78.4808 107.075 78.1566 103.523C79.3532 104.033 81.5302 106.295 82.611 104.651C82.6954 104.414 82.6827 104.154 82.5756 103.927C82.4686 103.699 82.2759 103.524 82.0397 103.438C80.6835 102.868 79.39 102.16 78.1797 101.323C78.2979 100.113 78.557 98.9216 78.9517 97.772C79.9244 99.1152 86.224 100.86 83.4294 97.772C82.0499 97.5167 80.7737 96.8679 79.7546 95.9037C82.7654 89.8126 87.7989 96.7606 91.4351 93.1631C92.1376 92.144 92.9791 91.0941 93.7511 91.0246C96.5689 90.9783 95.4032 97.0617 98.4449 97.4863C98.414 104.542 94.7084 115.343 89.1808 113.251ZM99.518 148.485C88.0768 149.049 71.1081 149.597 88.4397 140.225C93.4577 144.355 101.741 143.714 107.207 146.98C107.118 147.405 107.118 147.844 107.207 148.269C104.992 148.277 102.328 148.346 99.518 148.485ZM89.5359 138.681C89.7444 129.826 90.3774 129.362 91.0105 122.26C97.0024 124.218 103.168 125.599 109.423 126.383C109.014 134.103 110.195 137.268 111.523 141.776C110.078 142.632 108.841 143.797 107.902 145.189C102.606 142.016 94.222 142.541 89.5514 138.681H89.5359ZM140.612 149.319C132.436 149.96 121.844 149.643 112.001 149.002C107.122 148.686 108.821 145.799 112.773 143.251C121.265 146.462 133.749 144.857 140.982 147.929C141.477 148.145 141.206 148.917 140.627 149.319H140.612ZM141.453 146.1C132.961 143.012 121.605 144.556 113.406 141.468C112.079 136.836 110.921 134.002 111.299 126.591C120.887 127.72 130.599 127.145 139.987 124.893C141.152 130.907 142.388 143.56 141.469 146.1H141.453Z" fill="#001434"/>
<path d="M107.068 58.26C106.19 57.2586 105.072 56.4971 103.819 56.0473C102.565 55.5976 101.218 55.4743 99.9039 55.6892C97.0398 56.191 95.3723 59.9739 97.0321 62.398C100.082 67.4237 111.098 64.9301 107.068 58.26ZM103.772 58.0747C105.316 58.7772 106.497 59.9661 105.81 61.6568C105.038 63.5869 102.961 63.4247 101.178 62.9384C102.351 61.5019 103.233 59.8496 103.772 58.0747Z" fill="#001434"/>
<path d="M108.45 71.8094C104.196 72.9906 108.295 77.9392 111.468 77.5223C114.595 77.7693 117.899 73.7395 114.95 71.5933C114.497 71.3391 113.978 71.2268 113.461 71.2708C112.943 71.3149 112.451 71.5133 112.047 71.8403C111.159 72.3807 109.484 71.5238 108.45 71.8094ZM114.186 74.0097C113.46 75.5537 111.345 76.3952 109.083 74.7817C108.558 74.388 108.311 73.9016 108.843 73.6931C110.156 73.6931 111.723 74.4034 113.136 73.4229C113.815 72.9134 114.271 73.1373 114.186 74.0097Z" fill="#001434"/>
<path d="M120.825 69.4472C129.819 67.0617 121.303 57.2958 115.344 60.8702C109.824 65.0313 116 70.3581 120.825 69.4472ZM120.524 62.638C121.378 62.9313 122.107 63.5056 122.593 64.267C123.743 66.8918 120.501 68.2197 118.308 67.3936C119.445 66.035 120.208 64.4041 120.524 62.6612V62.638Z" fill="#001434"/>
<path d="M102.96 53.6287C105.091 53.4743 106.357 54.8871 107.762 55.4584C107.951 55.4555 108.134 55.3966 108.289 55.2891C108.444 55.1817 108.563 55.0306 108.632 54.8551C108.701 54.6796 108.716 54.4876 108.675 54.3036C108.634 54.1195 108.539 53.9518 108.403 53.8217C107.677 53.0497 102.953 50.1624 102.011 52.6946C102.017 52.9431 102.119 53.1796 102.296 53.3539C102.474 53.5282 102.712 53.6268 102.96 53.6287Z" fill="#001434"/>
<path d="M107.577 63.9112C104.451 70.9751 115.135 71.0368 111.206 68.1032C108.89 68.2344 108.619 66.2581 109.384 64.4593C109.916 62.2359 111.507 64.2509 112.063 62.622C111.707 60.082 107.847 61.7264 107.577 63.9112Z" fill="#001434"/>
</svg>
