<svg width="154" height="154" viewBox="0 0 154 154" fill="none" xmlns="http://www.w3.org/2000/svg">
<path d="M104.05 71.0308C106.979 64.699 109.994 58.177 114.83 53.1195C114.83 53.1195 105.222 47.4456 103.203 47.2156C101.101 48.2123 94.0351 55.9013 92.6581 62.2324C92.547 62.1931 92.4269 62.1868 92.3123 62.214C92.1977 62.2411 92.0933 62.3008 92.0117 62.3857C91.7663 62.687 92.0117 63.1778 92.2417 63.5496C93.2385 65.1322 92.4947 66.5814 92.3368 68.2981C92.263 68.8879 92.3568 69.4866 92.6074 70.0256C92.858 70.5646 93.2553 71.0222 93.7537 71.3459C94.5972 71.8827 95.6599 71.4617 97.2754 70.8L99.959 70.008C100.163 69.9758 100.358 69.8998 100.53 69.785C100.702 69.6702 100.848 69.5195 100.956 69.3432C101.097 69.0741 100.842 68.8402 100.568 68.8525C99.9931 68.7996 99.4137 68.867 98.8664 69.0503L100.767 68.394C101.835 69.2734 102.906 70.1674 104.05 71.0308Z" fill="white"/>
<path d="M115.207 53.0084C115.11 52.7316 114.736 52.5483 114.44 52.4034C113.497 51.9349 110.386 49.972 105.984 47.8236C105.258 47.4748 104.506 47.1836 103.735 46.9526C103.594 46.8881 103.441 46.8552 103.286 46.856C103.131 46.8568 102.978 46.8913 102.838 46.9572C102.535 47.1328 102.249 47.3353 101.983 47.5621C100.064 49.1642 98.3615 51.008 96.9168 53.0475C94.816 55.6431 93.2616 58.6367 92.347 61.8482C92.1773 61.8662 92.0163 61.9325 91.8832 62.0392C91.75 62.1458 91.6502 62.2885 91.5956 62.4501C91.3809 63.0206 91.8256 63.6286 91.9789 63.8924C93.1291 65.9074 91.4422 67.6916 92.1522 69.8393C93.0792 72.6885 94.9677 72.1618 97.6475 71.1819C98.6202 70.9369 99.5779 70.6361 100.516 70.2809C100.9 70.1019 101.204 69.787 101.37 69.3969C102.2 70.0754 103.017 70.7364 103.856 71.3689C103.901 71.3961 103.951 71.4139 104.003 71.4213C104.055 71.4287 104.108 71.4255 104.159 71.4119C104.209 71.3983 104.257 71.3745 104.298 71.3421C104.34 71.3097 104.374 71.2693 104.4 71.2233C107.261 64.9873 110.109 58.4323 115.108 53.4025C115.16 53.3526 115.196 53.2893 115.214 53.2196C115.231 53.1499 115.229 53.0767 115.207 53.0084ZM114.172 53.2944C113.607 53.9078 113.053 54.558 112.519 55.2289C111.927 54.8162 111.329 54.4121 110.725 54.0166L114.172 53.2944ZM101.656 48.8764C102.14 48.4073 102.675 47.9928 103.249 47.6404C103.953 47.8377 104.637 48.0963 105.295 48.4132C105.295 48.4132 102.42 49.2406 102.408 49.2452C102.158 49.1209 101.908 48.998 101.656 48.8764ZM103.441 49.7673L106.373 48.9239C106.916 49.1892 107.484 49.4775 108.103 49.8026C107.44 49.9291 105.102 50.4359 104.913 50.5448C104.425 50.2805 103.935 50.0215 103.441 49.7681V49.7673ZM105.895 51.0854C108.456 50.4551 108.998 50.472 109.206 50.3953C109.734 50.6813 110.919 51.3353 110.919 51.3353L107.404 51.9556C106.906 51.6587 106.403 51.3686 105.896 51.0854H105.895ZM108.425 52.5621L111.99 51.9334C112.423 52.1793 112.854 52.4269 113.283 52.6764C109.731 53.4224 109.881 53.3818 109.804 53.4201C109.347 53.1295 108.883 52.8412 108.424 52.5621H108.425ZM112.036 55.8484C108.758 60.1422 106.413 65.0065 103.919 70.4496C102.155 69.0787 96.9367 64.6284 95.0145 63.8402C94.5889 63.0428 93.9315 62.3931 93.1291 61.977C93.9086 59.3285 95.1371 56.8335 96.7612 54.6009C98.0376 52.761 99.4745 51.0378 101.055 49.4514C104.878 51.2917 108.549 53.4306 112.036 55.8484H112.036ZM92.6698 63.4239C92.0932 62.5153 92.4957 62.4984 93.1298 62.9263C93.583 63.2167 93.9682 63.6014 94.2593 64.0541C94.5974 64.6077 94.6572 65.3346 95.5627 65.0785L95.6034 65.067C96.6675 65.7275 97.694 66.4468 98.678 67.2216C98.54 67.513 98.793 67.9155 99.1304 67.7997C99.1833 67.7821 99.2592 67.756 99.3298 67.7338C99.5383 67.8986 99.7453 68.0658 99.9524 68.2329L98.7463 68.6661C98.277 68.8341 98.4733 69.5717 98.9633 69.4222C99.3204 69.305 99.6919 69.2369 100.067 69.2197C101.064 69.0058 100.253 69.6921 98.4902 70.0264C97.5348 70.3216 97.1001 70.4266 96.5503 70.6306C94.7515 71.2984 93.2586 71.6434 92.804 69.2205C92.4773 67.5214 93.9204 65.396 92.669 63.4239H92.6698Z" fill="#4B1010"/>
<path d="M105.387 54.9384C105.361 54.8742 105.318 54.818 105.264 54.7755C105.209 54.733 105.144 54.7057 105.076 54.6963C105.007 54.687 104.937 54.696 104.873 54.7223C104.809 54.7486 104.753 54.7915 104.711 54.8464C103.249 56.4036 101.949 58.1053 100.831 59.9253C100.633 59.6523 100.375 59.4295 100.075 59.275C99.776 59.1205 99.4445 59.0386 99.1077 59.0359C98.7753 59.0472 98.4543 59.1596 98.1874 59.3582C97.9206 59.5567 97.7206 59.8318 97.6141 60.1469C97.2346 61.8629 99.6245 62.8205 100.868 61.3936C101.832 59.682 102.959 58.0681 104.235 56.5746C104.125 57.8137 104.256 58.6326 103.661 59.4883C103.496 59.6899 103.292 59.856 103.061 59.9766C102.83 60.0972 102.577 60.1697 102.317 60.1898C102.213 60.191 102.114 60.2333 102.042 60.3076C101.969 60.3818 101.929 60.4819 101.93 60.5859C101.931 60.6898 101.973 60.789 102.047 60.8617C102.122 60.9344 102.222 60.9746 102.326 60.9735C102.928 60.9311 103.499 60.6889 103.948 60.2852C104.397 59.8816 104.698 59.3396 104.804 58.7453C105.034 57.6657 104.799 56.4565 105.264 55.4628C105.327 55.3926 105.371 55.3078 105.392 55.2162C105.413 55.1246 105.412 55.0291 105.387 54.9384Z" fill="#4B1010"/>
<path d="M92.1073 66.2578C87.6433 68.8149 83.1095 73.2015 79.0081 76.3889C75.2894 79.2795 72.1143 80.5209 67.7216 81.8504L57.1558 85.0478L53.5942 85.1827C49.5259 85.3361 44.6631 86.6257 41.2074 89.0211C36.3959 92.2763 32.9153 97.153 31.4007 102.761C30.9117 104.81 30.831 106.934 31.163 109.014C31.7824 113.63 33.3366 118.071 35.7305 122.066C35.9716 122.564 36.369 122.97 36.8622 123.221C37.3055 123.34 37.7723 123.34 38.2155 123.221C41.8189 122.53 45.3103 121.348 48.592 119.707C48.7499 119.63 48.9163 119.533 49.0666 119.438C53.0874 120.665 58.3189 121.234 61.113 118.449C61.972 117.434 62.5674 116.222 62.8466 114.922C64.6745 108.922 66.5899 103.896 66.471 96.4163C75.6843 93.8094 86.1151 89.909 95.9065 80.5002C96.6923 79.7363 97.3474 78.8486 97.8456 77.8725C99.5877 74.5027 94.3945 68.3004 92.1073 66.2578Z" fill="#FFB43B"/>
<path d="M44.2222 89.0448C45.3723 90.9371 48.5321 91.6226 51.4879 92.6485C54.6523 93.745 57.7086 95.6327 59.1654 98.6238C61.9694 95.6335 62.4532 95.1926 63.3518 93.8753C64.0421 92.6907 64.4856 91.3786 64.6558 90.0181C64.8259 88.6576 64.719 87.2768 64.3417 85.9586C64.162 85.3179 63.9426 84.6889 63.6846 84.0755C63.1118 82.7145 63.6179 83.3456 57.5345 84.8668C57.4631 83.8718 57.6542 82.8755 58.0889 81.9777C56.542 82.1056 54.9883 81.8331 53.5773 81.1864C53.8057 82.4923 53.8933 83.819 53.8388 85.1436C51.6242 85.3421 49.4264 85.6964 47.2616 86.204C45.7956 86.6311 43.043 86.8366 44.2222 89.0448Z" fill="white"/>
<path d="M81.7299 88.8308C76.7541 91.2049 71.5826 93.1448 66.273 94.629C66.2431 95.2286 66.2989 95.8293 66.4386 96.4132C75.6518 93.8062 86.0436 89.8652 95.8741 80.497C96.2532 80.1317 96.6 79.7343 96.9107 79.3093C92.2755 83.1153 87.1741 86.3149 81.7299 88.8308Z" fill="#FFB43B"/>
<path d="M46.5259 112.607C46.9361 111.465 47.2926 110.307 47.6813 109.157C48.3294 107.497 48.5444 105.699 48.3062 103.933C48.0916 102.004 47.8301 100.081 47.4437 98.1822C45.2753 100.43 40.8719 98.1822 38.8722 96.8925C37.6874 96.1248 36.6565 95.1423 35.8328 93.9957C33.7368 96.563 32.2121 99.5476 31.3603 102.75C30.8728 104.799 30.7923 106.924 31.1234 109.003C31.7425 113.619 33.2965 118.06 35.6902 122.055C35.9317 122.553 36.329 122.959 36.8219 123.21C37.2652 123.329 37.7319 123.329 38.1752 123.21C40.1013 122.838 41.9976 122.325 43.8491 121.677C44.5449 118.599 45.4391 115.569 46.5259 112.607Z" fill="#FFB43B"/>
<path d="M137.102 28.346C138.979 20.6685 128.834 18.3162 123.544 21.8432C125.481 20.1786 126.692 16.4131 125.461 13.7157C121.889 5.86492 110.816 5.38954 106.465 10.9768C102.52 4.15277 93.1484 2.41916 87.936 6.2437C84.9917 8.4044 83.5203 12.5755 84.9917 15.9001C81.0345 13.4941 75.3046 13.7709 72.3281 17.2849C69.4328 20.7038 70.6505 26.9758 74.8139 28.451C71.9969 27.6076 67.9944 27.6567 65.8621 31.2313C65.5554 31.9028 65.4096 32.6367 65.4362 33.3745C65.4628 34.1123 65.6612 34.8337 66.0155 35.4814C68.4691 38.7976 74.1898 39.4761 78.1408 39.8741C101.734 42.251 117.034 41.5778 132.191 39.0744C134.051 38.7677 136.378 37.8322 136.346 36.0035C136.314 34.1748 134.046 33.3444 132.215 33.2018C133.396 32.9175 134.477 32.3144 135.338 31.4581C136.2 30.6018 136.81 29.5253 137.102 28.346Z" fill="white"/>
<path d="M78.1007 40.252C74.4379 39.8686 68.3124 39.2315 65.7039 35.7052C65.6932 35.6909 65.6838 35.6758 65.6755 35.66C65.295 34.9592 65.0822 34.1796 65.054 33.3827C65.0258 32.5857 65.1829 31.7931 65.513 31.0671C67.2159 28.2087 70.0606 27.4059 72.7495 27.6536C71.3582 26.2735 70.5179 24.4333 70.3864 22.478C70.2548 20.5227 70.841 18.5866 72.0349 17.0326C74.7569 13.8191 80.0758 13.0317 84.2983 15.0812C83.9132 13.3894 84.0309 11.622 84.6368 9.99622C85.2427 8.37043 86.3105 6.95712 87.7088 5.93003C89.268 4.8723 91.0492 4.1865 92.9151 3.92543C94.7811 3.66435 96.682 3.83496 98.4717 4.42413C101.797 5.30801 104.668 7.41001 106.515 10.3128C111.365 4.77147 122.31 5.83648 125.812 13.553C126.82 15.7659 126.282 18.6312 125.045 20.6332C126.605 20.0117 128.286 19.75 129.961 19.8676C131.637 19.9853 133.264 20.4791 134.723 21.3125C137.218 22.8874 138.197 25.417 137.483 28.4349C137.234 29.4355 136.767 30.3689 136.117 31.1691C135.466 31.9693 134.648 32.6167 133.719 33.0653C135.355 33.5062 136.709 34.4776 136.733 35.9927C136.768 37.9863 134.444 39.0858 132.258 39.4485C113.151 42.5875 97.3691 42.1244 78.1007 40.252ZM66.3357 35.2681C68.754 38.5046 74.6511 39.1188 78.1774 39.4853C97.2272 41.337 113.014 41.8292 132.126 38.6886C133.996 38.3781 135.986 37.5093 135.96 36.005C135.93 34.3181 133.571 33.6871 132.182 33.579C132.091 33.5722 132.005 33.5331 131.94 33.4686C131.875 33.4041 131.835 33.3185 131.828 33.2273C131.821 33.1361 131.846 33.0453 131.9 32.9713C131.954 32.8973 132.032 32.845 132.121 32.8237C133.234 32.5556 134.252 31.9876 135.065 31.1814C135.878 30.3751 136.454 29.3616 136.731 28.2509C138.444 21.035 128.879 18.7746 123.763 22.1552C123.581 22.3116 123.386 22.4531 123.182 22.5784C123.098 22.6307 122.998 22.649 122.902 22.6295C122.805 22.61 122.72 22.5542 122.664 22.4737C122.607 22.3932 122.584 22.294 122.599 22.1968C122.613 22.0996 122.665 22.0117 122.742 21.9512C122.925 21.8056 123.114 21.666 123.31 21.5349C125.098 19.9746 126.258 16.3846 125.112 13.8674C121.725 6.41078 111.038 5.7161 106.767 11.2053C106.729 11.2547 106.678 11.294 106.621 11.3196C106.564 11.3452 106.501 11.3563 106.438 11.352C106.376 11.3476 106.315 11.328 106.262 11.2948C106.209 11.2616 106.164 11.2159 106.133 11.1616C104.408 8.19711 101.577 6.03837 98.2624 5.15944C96.585 4.60293 94.8023 4.43852 93.0514 4.67885C91.3006 4.91917 89.6281 5.55784 88.1627 6.54573C85.2491 8.68649 84.007 12.7242 85.3426 15.7375C85.3758 15.8122 85.3842 15.8955 85.3667 15.9753C85.3492 16.0551 85.3067 16.1272 85.2453 16.1811C85.1839 16.235 85.1069 16.2679 85.0256 16.275C84.9442 16.2821 84.8626 16.2631 84.7929 16.2206C80.7644 13.7716 75.3044 14.3566 72.6207 17.524C69.9371 20.6915 70.9998 26.6622 74.921 28.0737C75.0452 28.1105 75.1686 28.1504 75.2906 28.191C75.3864 28.222 75.4662 28.2894 75.5128 28.3786C75.5593 28.4679 75.5689 28.572 75.5394 28.6682C75.5099 28.7645 75.4437 28.8453 75.3551 28.8932C75.2665 28.9411 75.1626 28.9522 75.0659 28.9241C74.9356 28.8878 74.8078 28.8471 74.6825 28.8021C71.7689 27.9365 68.1176 28.1887 66.1923 31.4183C65.9207 32.0288 65.7925 32.6933 65.8173 33.361C65.8422 34.0287 66.0195 34.6818 66.3357 35.2704V35.2681Z" fill="#4B1010"/>
<path d="M93.7178 27.0003C95.6254 30.4353 102.06 37.1873 102.274 37.1873C102.488 37.1873 107.442 30.9582 110.188 27.1038C108.439 27.1038 107.022 26.9297 105.234 26.85C105.376 24.0245 105.534 20.8509 105.685 17.123C103.406 17.123 101.434 17.0517 99.0605 17.1621C99.0605 20.7006 99.1372 23.8819 99.1632 26.9297C94.496 26.9297 94.8441 26.919 93.7178 27.0003Z" fill="white"/>
<path d="M102.27 37.5697C101.591 37.5697 94.9222 29.9659 93.3757 27.1864C93.3445 27.1302 93.328 27.067 93.3276 27.0027C93.3273 26.9384 93.3431 26.875 93.3737 26.8185C93.4042 26.7619 93.4485 26.7139 93.5024 26.6789C93.5564 26.6439 93.6183 26.6231 93.6824 26.6183C95.8155 26.458 96.7916 26.6006 98.7698 26.5546C98.7598 25.4957 98.6693 19.3303 98.6693 17.1619C98.6692 17.0633 98.7072 16.9683 98.7753 16.8969C98.8434 16.8255 98.9365 16.7831 99.0351 16.7786C101.42 16.6674 103.406 16.7387 105.678 16.7387C105.73 16.7387 105.781 16.7491 105.829 16.7693C105.876 16.7895 105.919 16.8191 105.955 16.8564C105.991 16.8936 106.019 16.9377 106.037 16.986C106.055 17.0343 106.064 17.0858 106.062 17.1374C105.918 20.699 105.767 23.7552 105.63 26.4849C107.244 26.57 108.574 26.7195 110.182 26.7195C110.252 26.7195 110.321 26.7389 110.382 26.7756C110.442 26.8122 110.49 26.8647 110.523 26.9273C110.555 26.9898 110.569 27.06 110.564 27.1302C110.559 27.2004 110.535 27.2679 110.494 27.3252C110.424 27.428 102.967 37.5697 102.27 37.5697ZM94.3617 27.3428C96.3146 30.4712 101.14 35.6383 102.252 36.6803C103.178 35.6674 106.893 30.9979 109.444 27.4793C108.053 27.4425 106.683 27.3007 105.213 27.2355C105.162 27.2332 105.113 27.221 105.067 27.1995C105.021 27.178 104.98 27.1477 104.946 27.1103C104.912 27.0729 104.886 27.0291 104.869 26.9815C104.852 26.9339 104.844 26.8834 104.847 26.833C104.984 24.1095 105.136 21.0624 105.282 17.5078C103.251 17.5009 101.5 17.4502 99.4399 17.5315C99.4399 19.5588 99.5335 25.7465 99.5427 26.9288C99.5427 27.0305 99.5023 27.128 99.4304 27.1999C99.3585 27.2718 99.261 27.3122 99.1593 27.3122C99.0987 26.8928 99.0972 26.7156 99.1163 27.3122C97.1857 27.3743 96.0946 27.2508 94.3617 27.3428Z" fill="#4B1010"/>
<path d="M126.844 114L58.7372 144.789C57.7503 145.238 56.6776 145.466 55.5936 145.457C54.5097 145.449 53.4405 145.205 52.4606 144.742L17.3979 128.184C17.2046 128.096 17.0422 127.951 16.9316 127.77C16.821 127.589 16.7674 127.378 16.7776 127.166C16.7878 126.954 16.8615 126.75 16.989 126.58C17.1165 126.41 17.2921 126.282 17.493 126.213L89.8741 100.68C90.8485 100.344 91.9076 100.344 92.882 100.68L126.742 111.959C126.953 112.028 127.138 112.158 127.272 112.334C127.407 112.51 127.485 112.723 127.497 112.944C127.508 113.166 127.451 113.385 127.335 113.574C127.218 113.762 127.047 113.911 126.844 114Z" fill="white"/>
<path d="M127.885 112.981C127.882 112.672 127.781 112.372 127.598 112.123C127.414 111.875 127.157 111.69 126.863 111.595L93.0075 100.318C91.9511 99.9543 90.8036 99.9543 89.7473 100.318L17.3708 125.85C17.0849 125.948 16.8367 126.132 16.661 126.377C16.4854 126.623 16.3912 126.917 16.3916 127.219C15.9423 128.392 15.6648 131.167 16.6937 131.651L51.5294 149.537C52.5605 150.025 53.6856 150.282 54.8262 150.29C55.9668 150.298 57.0955 150.057 58.1334 149.584L126.451 117.47C127.437 117.037 128.206 114.192 127.885 112.981ZM17.6215 126.574L90.0026 101.042C90.4466 100.889 90.9131 100.811 91.3828 100.812C92.3726 100.812 89.367 100.164 126.631 112.323C126.767 112.369 126.886 112.454 126.973 112.569C127.06 112.684 127.109 112.822 127.116 112.966C127.123 113.109 127.086 113.252 127.01 113.374C126.935 113.496 126.824 113.593 126.692 113.651L58.5797 144.44C57.6436 144.866 56.6259 145.083 55.5974 145.075C54.569 145.067 53.5546 144.835 52.6251 144.395L17.5149 127.813C17.4012 127.749 17.3085 127.653 17.2476 127.537C17.1868 127.421 17.1604 127.29 17.1716 127.16C17.1828 127.029 17.2312 126.905 17.3109 126.801C17.3906 126.697 17.4984 126.619 17.6215 126.574Z" fill="#4B1010"/>
<path d="M121.857 113.621L66.6512 137.714C65.7968 138.106 64.872 138.322 63.9323 138.348C62.9925 138.375 62.0571 138.211 61.182 137.868L31.1385 125.018C30.9809 124.958 30.8442 124.854 30.745 124.718C30.6459 124.582 30.5888 124.42 30.5806 124.251C30.5725 124.083 30.6137 123.916 30.6992 123.771C30.7847 123.626 30.9107 123.509 31.0618 123.435L90.0248 102.611C90.7556 102.23 91.5968 102.118 92.4017 102.294L121.33 111.955C122.057 112.204 122.595 113.296 121.857 113.621Z" fill="white"/>
<path d="M121.836 111.636L93.2827 101.989C92.3762 101.677 91.3914 101.677 90.4849 101.989L31.0058 122.973C30.7477 123.065 30.5229 123.232 30.36 123.452C30.1972 123.673 30.1036 123.937 30.0912 124.21C30.0789 124.484 30.1484 124.755 30.2908 124.99C30.4332 125.224 30.6421 125.41 30.8908 125.525L61.0662 138.177C61.9362 138.587 62.8849 138.804 63.8469 138.812C64.8088 138.819 65.7609 138.618 66.6374 138.222L121.997 114.169C122.233 114.043 122.427 113.852 122.557 113.618C122.687 113.384 122.747 113.118 122.731 112.851C122.714 112.584 122.62 112.328 122.462 112.113C122.303 111.897 122.086 111.732 121.836 111.636ZM121.715 113.086C121.626 113.308 125.373 111.104 66.2334 137.316C65.483 137.651 64.6691 137.82 63.8473 137.813C63.0255 137.805 62.215 137.62 61.4711 137.27L31.298 124.619C31.2527 124.598 31.2121 124.568 31.1785 124.531C31.145 124.494 31.119 124.45 31.1023 124.403C31.0855 124.356 31.0783 124.306 31.0809 124.256C31.0836 124.206 31.0961 124.157 31.1178 124.112C31.2182 123.9 26.995 125.257 90.8138 102.935C91.5093 102.695 92.2652 102.695 92.9607 102.935L121.493 112.575C121.59 112.614 121.667 112.689 121.709 112.785C121.75 112.881 121.752 112.989 121.715 113.086Z" fill="#4B1010"/>
<path d="M43.5913 131.589C40.8701 129.317 35.5144 129.714 35.0558 132.442C35.0081 132.919 35.0889 133.401 35.2899 133.837C35.4909 134.273 35.8048 134.647 36.1991 134.92C37.4927 135.903 39.0782 136.425 40.7029 136.403C44.5076 136.403 46.0134 133.614 43.5913 131.589ZM37.3967 131.371C38.3359 131.095 39.3262 131.04 40.2902 131.21C41.2541 131.381 42.1654 131.773 42.9526 132.355C44.2561 133.441 43.9379 134.604 42.3929 135.139C41.4539 135.416 40.4636 135.471 39.4997 135.3C38.5359 135.129 37.6247 134.738 36.8378 134.156C35.5581 133.086 35.828 131.914 37.3967 131.371Z" fill="#4B1010"/>
<path d="M82.9169 45.3041C82.8135 45.3047 82.7145 45.346 82.6413 45.419C82.5681 45.492 82.5267 45.591 82.5259 45.6944C82.4893 50.1611 82.1483 54.6201 81.5053 59.0404C81.4371 59.5372 82.1954 59.7243 82.2721 59.2229C82.9221 54.7421 83.269 50.2226 83.3102 45.6951C83.3098 45.5911 83.2682 45.4916 83.1944 45.4182C83.1207 45.3449 83.0209 45.3039 82.9169 45.3041Z" fill="white"/>
<path d="M87.988 47.0462L86.325 65.9849C86.3231 66.0335 86.331 66.0819 86.3481 66.1274C86.3653 66.1729 86.3913 66.2145 86.4247 66.2498C86.4582 66.2851 86.4983 66.3133 86.5428 66.3329C86.5873 66.3524 86.6352 66.3629 86.6838 66.3637H86.7022C86.8043 66.3652 86.9031 66.3279 86.9787 66.2593C87.0543 66.1907 87.101 66.0959 87.1094 65.9941L88.7717 47.06C88.7674 46.9601 88.7252 46.8655 88.6536 46.7956C88.582 46.7258 88.4864 46.6859 88.3864 46.6841C88.2863 46.6824 88.1894 46.7189 88.1154 46.7862C88.0413 46.8535 87.9958 46.9465 87.988 47.0462Z" fill="white"/>
<path d="M120.062 45.0825C119.746 45.0825 119.593 45.4452 119.705 45.5571C119.577 51.1577 119.302 56.7538 118.878 62.3397C118.881 62.4409 118.923 62.537 118.995 62.6079C119.068 62.6787 119.164 62.719 119.266 62.7202C119.367 62.7213 119.465 62.6834 119.539 62.6142C119.612 62.5451 119.657 62.45 119.662 62.3489C120.087 56.7601 120.352 51.0831 120.454 45.4736C120.453 45.3698 120.412 45.2705 120.338 45.1972C120.265 45.124 120.166 45.0827 120.062 45.0825Z" fill="white"/>
<path d="M42.2352 119.454C41.5549 120.039 40.9271 120.683 40.359 121.377L38.4283 123.411C38.2662 123.54 38.1335 123.702 38.0392 123.886C37.9449 124.07 37.8912 124.273 37.8816 124.479C37.8885 124.786 38.1998 124.875 38.4521 124.757C38.9772 124.516 39.4482 124.171 39.8368 123.743C37.7666 126.109 37.7811 126.044 37.6523 126.403C37.6144 126.511 37.6115 126.629 37.6441 126.739C37.6767 126.849 37.7432 126.946 37.8341 127.017C37.9682 127.071 38.1157 127.083 38.257 127.052C38.3984 127.021 38.527 126.948 38.6261 126.842C39.2988 126.39 39.9151 125.858 40.4617 125.259C39.2142 127.384 38.37 127.713 38.4835 128.575C38.4923 128.647 38.5186 128.715 38.5602 128.774C38.628 128.828 38.7114 128.858 38.7979 128.861C39.5608 128.876 39.9917 128.212 41.5444 126.376C41.3542 127.46 40.1826 128.148 39.961 129.225C39.9429 129.289 39.9378 129.357 39.946 129.423C39.9542 129.49 39.9754 129.554 40.0086 129.613C40.6104 130.404 44.5676 126.304 45.0745 125.774C45.1244 125.705 45.1974 125.658 45.28 125.639C45.3284 125.643 45.3756 125.656 45.419 125.678C45.4625 125.699 45.5012 125.729 45.533 125.766C46.2746 126.379 47.2067 126.715 48.1691 126.716C48.5409 126.716 49.0002 126.581 49.0708 126.217C49.1413 125.853 48.6728 125.527 48.2795 125.315C46.608 124.423 46.5574 122.811 45.9026 121.262C45.6748 120.714 45.2985 120.241 44.8161 119.895C44.3336 119.55 43.7642 119.347 43.1722 119.308C42.8522 119.264 42.5265 119.315 42.2352 119.454Z" fill="white"/>
<path d="M49.2976 125.491C48.9479 125.067 48.3897 124.914 48.0294 124.586C46.6009 123.282 46.9046 121.14 45.4477 119.773C44.2462 118.667 42.6031 118.661 42.0426 119.128C41.0589 120.032 40.124 120.987 39.2417 121.99C38.7687 122.449 38.3218 122.933 37.9029 123.442C37.4191 124.051 37.2834 125.011 38.0724 125.167C37.5794 125.743 36.9598 126.394 37.4061 127.076C37.5305 127.249 37.7141 127.372 37.9225 127.419C38.1308 127.467 38.3494 127.437 38.537 127.335C38.2602 127.735 37.8385 128.51 38.2863 129.027C38.6145 129.405 39.1405 129.318 39.6281 129.054C39.4847 129.71 39.8773 130.225 40.5911 130.032C41.1693 129.811 41.7007 129.483 42.1576 129.065C42.8477 128.509 43.4987 127.902 43.984 127.436C44.0607 127.363 45.2821 126.161 45.3473 126.082C45.5926 126.209 45.9016 126.465 46.1815 126.609C46.7092 126.87 47.2815 127.029 47.8684 127.078C48.1214 127.124 48.3818 127.112 48.6295 127.043C48.8773 126.973 49.1058 126.848 49.2976 126.676C49.4392 126.511 49.517 126.301 49.517 126.083C49.517 125.866 49.4392 125.656 49.2976 125.491ZM40.1411 123.989C40.4478 123.673 39.9218 123.06 39.5537 123.453C39.3166 123.714 39.0441 123.941 38.744 124.127C37.9374 124.697 38.2541 124.084 38.7632 123.606C38.8338 123.54 40.0015 122.325 40.0015 122.325C40.7458 121.453 41.5394 120.625 42.3784 119.845C42.8625 119.609 43.4159 119.558 43.9348 119.702C44.4537 119.846 44.9023 120.174 45.1962 120.625C45.7305 121.432 46.1219 122.324 46.3533 123.264C46.6136 124.063 47.1035 124.768 47.7618 125.291C47.9427 125.429 48.744 125.788 48.7685 126.057C48.7685 126.073 48.7747 126.122 48.6918 126.191C48.5385 126.319 48.1482 126.406 47.1415 126.092C46.6281 125.899 46.1503 125.622 45.7276 125.273C45.5835 125.205 45.4201 125.188 45.2654 125.227C45.1106 125.266 44.974 125.357 44.8788 125.484C43.7183 126.722 42.4565 127.86 41.1064 128.887C40.9088 129.036 40.6895 129.154 40.4562 129.235C40.8396 128.046 41.8256 127.539 42.0564 126.419C42.1331 126.051 41.6539 125.729 41.3878 126.047C39.9371 127.771 39.9172 127.863 39.612 128.14C39.4533 128.283 39.0937 128.446 39.0093 128.395C39.0017 128.39 38.9856 128.354 39.0047 128.265C39.3475 127.294 39.671 127.322 40.7368 125.588C41.1907 125.104 40.5513 124.575 40.2193 124.944C39.7163 125.508 39.1521 126.015 38.537 126.454C38.3407 126.595 38.0954 126.672 38.0379 126.635C38.0256 126.626 38.0141 126.58 38.0379 126.486C38.1398 126.02 38.6681 125.669 38.958 125.336C38.958 125.331 40.1135 124.018 40.1411 123.989Z" fill="#4B1010"/>
<path d="M60.4312 120.665C64.7993 121.682 68.9511 123.469 72.6915 125.944C73.0531 126.203 73.3756 126.513 73.6491 126.864C76.044 124.868 78.5405 122.998 81.1288 121.26C81.3841 120.948 81.3159 121.045 82.2206 118.664C78.7741 115.944 74.686 114.157 70.3491 113.473C70.0879 113.425 69.8216 113.412 69.557 113.433C69.1554 113.518 68.7756 113.685 68.4414 113.923C65.431 115.732 62.7272 118.007 60.4312 120.665Z" fill="white"/>
<path d="M82.5405 118.279C79.0405 115.486 74.8688 113.658 70.442 112.98C70.1158 112.922 69.7832 112.91 69.4536 112.943C68.9952 113.039 68.5612 113.228 68.1785 113.498C65.1335 115.344 62.3937 117.651 60.0571 120.338C60.0011 120.403 59.9627 120.482 59.9458 120.566C59.9289 120.65 59.934 120.737 59.9606 120.819C59.9872 120.9 60.0344 120.974 60.0976 121.032C60.1609 121.09 60.238 121.131 60.3217 121.15C64.4865 122.115 68.4534 123.792 72.0475 126.106C72.3489 126.306 72.9454 126.925 73.3342 127.246C73.4236 127.321 73.5365 127.362 73.6531 127.362C73.7697 127.362 73.8826 127.321 73.9721 127.246C76.2276 125.35 78.5889 123.584 81.0446 121.955C81.8251 121.454 81.7968 121.189 82.6893 118.84C82.7261 118.743 82.7316 118.636 82.705 118.536C82.6783 118.435 82.6208 118.346 82.5405 118.279ZM79.38 118.893C79.2936 118.91 79.2132 118.95 79.1472 119.008C79.0811 119.066 79.0316 119.141 79.0037 119.225C78.9758 119.308 78.9706 119.398 78.9884 119.484C79.0063 119.57 79.0467 119.65 79.1055 119.716C79.268 119.896 80.2633 120.989 80.4158 121.178C78.0757 122.734 75.82 124.413 73.6585 126.208C73.3279 125.873 72.9727 125.562 72.5958 125.28C69.139 123.049 65.343 121.394 61.356 120.38C63.0965 118.46 65.0632 116.759 67.2132 115.314C69.1761 114.004 69.3862 113.802 70.2741 113.967C74.1948 114.577 77.9149 116.108 81.1289 118.435C80.5555 118.622 79.9712 118.774 79.3792 118.889L79.38 118.893Z" fill="#4B1010"/>
<path d="M75.6225 118.536C69.7469 117.218 64.234 114.621 59.4763 110.929C55.3841 113.041 50.9284 114.357 46.3457 114.808C50.958 119.489 56.4761 123.181 62.5632 125.659C62.8854 125.811 63.2304 125.91 63.5845 125.952C64.3605 125.908 65.0992 125.604 65.6816 125.089C68.9786 122.778 72.3063 120.934 75.5987 118.623L75.6225 118.536Z" fill="white"/>
<path d="M63.0684 123.429C62.7141 123.411 62.7839 123.4 61.0894 122.662C58.2957 121.567 55.6428 120.142 53.1873 118.417C53.13 118.374 53.0862 118.315 53.0608 118.248C53.0354 118.18 53.0295 118.107 53.0437 118.036C53.0579 117.966 53.0918 117.901 53.1413 117.849C53.1908 117.796 53.2541 117.759 53.3238 117.741C56.2018 116.999 58.9973 115.967 61.6675 114.661C62.0892 114.456 62.1912 115.017 65.4959 116.55C67.2084 117.354 69.0126 117.947 70.8685 118.315C70.9397 118.33 71.0054 118.364 71.058 118.413C71.1105 118.463 71.1479 118.527 71.1656 118.598C71.1834 118.668 71.1808 118.742 71.1582 118.811C71.1356 118.88 71.0939 118.941 71.038 118.987C69.1798 120.401 67.1642 121.596 65.0313 122.546C63.4019 123.35 63.4012 123.4 63.0684 123.429ZM54.2937 118.272C56.9367 120.123 59.891 121.272 62.8997 122.618C62.943 122.647 62.9945 122.662 63.0469 122.661C63.0993 122.659 63.1498 122.641 63.1911 122.608C65.5284 121.556 67.7758 120.314 69.9109 118.895C67.0414 118.192 64.3055 117.026 61.8102 115.445C59.3943 116.61 56.8787 117.556 54.2937 118.272Z" fill="#4B1010"/>
<path d="M75.9615 118.335C75.9338 118.276 75.8881 118.227 75.831 118.196C75.774 118.165 75.7085 118.153 75.6441 118.161C69.8811 116.787 64.4654 114.234 59.7386 110.662C59.6736 110.613 59.595 110.586 59.5139 110.585C59.4328 110.583 59.3532 110.607 59.2863 110.653C51.6908 114.548 46.4539 114.174 46.0606 114.61C45.9939 114.683 45.957 114.779 45.957 114.878C45.957 114.977 45.9939 115.073 46.0606 115.146C50.7059 119.885 56.2802 123.612 62.4338 126.095C62.9204 126.331 63.4612 126.432 64.0002 126.389C65.1649 126.183 65.6181 125.603 68.6007 123.673C70.9891 122.122 73.4673 120.653 75.8082 119.018C75.8649 118.979 75.9105 118.926 75.9404 118.865C75.9703 118.803 75.9834 118.734 75.9784 118.666C75.9993 118.613 76.0085 118.556 76.0056 118.498C76.0027 118.441 75.9877 118.385 75.9615 118.335ZM57.1762 113.678C56.4679 113.596 55.7664 113.464 55.0768 113.282C56.5724 112.744 58.0322 112.111 59.4473 111.386C59.7862 111.645 60.1294 111.899 60.477 112.148C59.4044 112.717 58.302 113.228 57.1746 113.678H57.1762ZM53.8653 113.696C54.4504 113.933 55.0572 114.113 55.6772 114.233C54.9723 114.476 54.2605 114.696 53.5418 114.892C52.8147 114.772 52.0961 114.605 51.3903 114.394C52.223 114.191 53.0475 113.958 53.8638 113.696H53.8653ZM66.2805 124.289C65.2838 124.972 64.3138 125.91 63.1691 125.55C62.1504 125.207 61.1609 124.782 60.2102 124.281C59.2617 123.805 58.3017 123.331 57.3824 122.82C54.2758 121.078 51.3703 119 48.7181 116.622C53.0892 116.109 57.3206 114.76 61.1817 112.648C65.3231 115.479 69.9378 117.545 74.8075 118.75C72.0542 120.636 68.9557 122.463 66.279 124.289H66.2805ZM49.9595 114.72C50.57 114.952 51.1928 115.151 51.825 115.315C49.4006 115.84 48.1446 115.862 47.9759 115.937C47.7091 115.689 47.4453 115.437 47.1847 115.182C48.1175 115.062 49.042 114.908 49.958 114.72H49.9595Z" fill="#4B1010"/>
<path d="M75.6365 117.499C75.1143 116.708 74.5921 115.873 74.0539 115.061C73.6705 114.479 72.9137 114.524 72.2566 114.388C70.753 114.081 69.2663 113.845 67.7773 113.43C66.8179 113.162 65.8289 113.013 64.833 112.987C63.1818 114.69 61.4414 116.305 59.6191 117.823C58.5224 118.891 57.3391 119.865 56.0813 120.737C54.5953 121.745 53.3823 123.032 51.7515 123.903C51.8703 123.848 53.9597 125.287 54.2373 125.43C55.0871 125.792 55.9119 126.209 56.7062 126.681C58.4642 127.72 60.4257 128.368 62.4568 128.58C63.1311 128.719 63.824 128.743 64.5063 128.651C66.0299 128.436 67.2766 126.86 68.4643 125.961C72.0044 123.277 73.2526 121.514 75.4417 118.663C75.5521 118.52 75.9018 118.228 75.9087 118.038C75.8802 117.833 75.7845 117.643 75.6365 117.499Z" fill="white"/>
<path d="M76.1873 117.42C75.4319 116.496 74.8142 115.467 74.3532 114.366C74.3104 114.269 74.2383 114.188 74.1469 114.134C74.0556 114.08 73.9497 114.056 73.8441 114.066C73.3584 114.111 72.869 114.046 72.4118 113.876C70.9082 113.569 69.4215 113.328 67.9647 112.927C66.9633 112.657 65.9342 112.503 64.8977 112.467C64.8291 112.467 64.7611 112.48 64.6978 112.506C64.6345 112.533 64.5773 112.572 64.5296 112.621C62.7211 114.44 60.8222 116.167 58.8403 117.795C57.9018 118.63 56.9311 119.494 55.9505 120.301C55.5771 120.607 52.096 122.937 51.6567 123.162C51.5723 123.182 51.4947 123.224 51.4315 123.284C51.3683 123.343 51.3217 123.418 51.2963 123.501C51.2709 123.584 51.2675 123.672 51.2866 123.756C51.3058 123.841 51.3466 123.919 51.4052 123.983C52.3602 125.053 53.5379 125.899 54.8556 126.464C57.3784 127.758 60.0763 128.677 62.8642 129.193C63.4073 129.344 63.9798 129.355 64.5284 129.226C65.0771 129.096 65.5842 128.83 66.0025 128.453C68.5531 126.602 70.9405 124.537 73.1387 122.28C75.659 119.873 76.951 118.322 76.1873 117.42ZM72.4494 121.552C70.2753 123.798 67.9065 125.848 65.3707 127.677C65.0671 127.953 64.698 128.147 64.2983 128.241C63.8986 128.335 63.4816 128.326 63.0866 128.213C60.3681 127.71 57.7372 126.814 55.2765 125.554C54.277 125.126 53.3639 124.518 52.5821 123.762C53.0591 123.466 55.0311 122.165 56.0816 121.429C56.5073 121.64 56.953 121.807 57.4119 121.929C58.1326 122.23 59.4545 122.942 60.2535 122.76C60.8451 122.526 61.3776 122.163 61.813 121.699C62.5495 121.117 63.2377 120.476 63.871 119.782C64.0397 119.616 64.167 119.413 64.2429 119.189C64.3487 118.87 63.5336 118.746 63.3228 118.674C62.29 118.352 61.6543 118.072 60.426 117.738C62.0493 116.392 63.6049 114.965 65.0871 113.465C65.9692 113.504 66.8439 113.644 67.694 113.883C68.9814 114.239 70.3232 114.482 72.1358 114.828C72.5956 114.998 73.0827 115.081 73.5727 115.074C74.0573 116.134 74.6718 117.129 75.4021 118.036C75.4198 118.13 75.3653 118.775 72.4494 121.552Z" fill="#4B1010"/>
<path d="M70.2551 121.536C68.6108 121.252 66.9869 120.86 65.3939 120.363C65.2993 120.332 65.2208 120.264 65.1752 120.175C65.1296 120.087 65.1204 119.984 65.1495 119.888C65.1787 119.793 65.2439 119.712 65.3313 119.664C65.4188 119.616 65.5215 119.604 65.6178 119.63C67.1632 120.102 68.7346 120.484 70.3241 120.775C70.4183 120.792 70.5028 120.844 70.5608 120.92C70.6189 120.996 70.6462 121.092 70.6376 121.187C70.6289 121.282 70.5849 121.371 70.5141 121.436C70.4433 121.5 70.3509 121.536 70.2551 121.536Z" fill="#4B1010"/>
<path d="M69.3918 122.963C67.8182 122.768 66.264 122.44 64.746 121.982L64.2292 121.822C64.1811 121.808 64.1364 121.784 64.0976 121.751C64.0588 121.719 64.0266 121.68 64.0031 121.635C63.9795 121.591 63.9649 121.542 63.9602 121.492C63.9555 121.442 63.9606 121.391 63.9754 121.343C63.9902 121.295 64.0144 121.25 64.0465 121.212C64.0786 121.173 64.118 121.141 64.1625 121.117C64.207 121.094 64.2557 121.079 64.3058 121.074C64.3559 121.069 64.4065 121.075 64.4547 121.089C66.0789 121.61 67.747 121.981 69.4385 122.2C69.4889 122.203 69.5381 122.216 69.5834 122.238C69.6287 122.26 69.6692 122.291 69.7025 122.329C69.7359 122.367 69.7615 122.411 69.7778 122.459C69.7941 122.506 69.8009 122.557 69.7977 122.607C69.7946 122.658 69.7815 122.707 69.7593 122.752C69.7371 122.797 69.7062 122.838 69.6684 122.871C69.6305 122.905 69.5865 122.93 69.5388 122.947C69.491 122.963 69.4406 122.97 69.3902 122.966L69.3918 122.963Z" fill="#4B1010"/>
<path d="M67.9045 124.269C66.1147 124.007 64.3594 123.547 62.6707 122.899C62.6236 122.881 62.5805 122.854 62.5438 122.82C62.5072 122.785 62.4777 122.744 62.4571 122.698C62.4364 122.652 62.425 122.602 62.4235 122.552C62.422 122.502 62.4304 122.452 62.4483 122.405C62.4662 122.357 62.4931 122.314 62.5277 122.278C62.5622 122.241 62.6036 122.212 62.6495 122.191C62.6955 122.17 62.745 122.159 62.7953 122.157C62.8457 122.156 62.8958 122.164 62.9429 122.182C64.5651 122.798 66.2473 123.242 67.962 123.507C68.0572 123.522 68.1434 123.572 68.2032 123.648C68.2631 123.723 68.2923 123.819 68.2851 123.915C68.2778 124.011 68.2346 124.101 68.1641 124.166C68.0936 124.232 68.0009 124.269 67.9045 124.269Z" fill="#4B1010"/>
<path d="M31.36 102.75C30.8729 104.799 30.7924 106.924 31.1231 109.003C31.7422 113.619 33.2961 118.06 35.6898 122.055C35.9313 122.553 36.3287 122.959 36.8216 123.21C37.2648 123.329 37.7316 123.329 38.1749 123.21C41.7783 122.519 45.2697 121.337 48.5513 119.696C48.7891 119.635 49.0094 119.52 49.1951 119.359C49.3807 119.199 49.5265 118.997 49.6209 118.771C49.7154 118.544 49.7559 118.299 49.7392 118.054C49.7226 117.809 49.6493 117.572 49.5251 117.36C48.3059 113.134 46.1928 109.548 44.3641 105.615C44.2688 105.457 44.2212 105.276 44.2269 105.092C44.2326 104.908 44.2914 104.729 44.3963 104.578C45.86 101.745 48.8756 98.2458 46.5255 95.1359C45.7112 94.1815 44.736 93.377 43.6441 92.759C42.7992 92.1355 41.8507 91.6665 40.8424 91.3735C35.7849 90.3115 32.3008 99.0647 31.36 102.75Z" fill="#FFB43B"/>
<path d="M38.4754 91.6173C34.7398 93.0818 32.1429 99.6751 31.3523 102.754C30.8634 104.802 30.7826 106.927 31.1147 109.006C31.7341 113.622 33.2882 118.063 35.6822 122.058C35.9235 122.556 36.3208 122.962 36.8139 123.214C37.2572 123.332 37.7239 123.332 38.1672 123.214C38.7039 123.111 39.2353 122.992 39.7498 122.865C34.4078 113.399 32.2548 101.005 38.4754 91.6173Z" fill="#FFB43B"/>
<path d="M92.3539 65.9718C92.2938 65.9183 92.2183 65.885 92.1382 65.8768C92.0581 65.8685 91.9775 65.8857 91.9077 65.9258C88.7205 67.9167 85.7109 70.1786 82.9122 72.6863C73.9197 80.261 73.8423 79.5686 57.8594 84.3738C57.8895 83.7241 58.0142 83.0822 58.2298 82.4684C59.6013 82.478 60.9433 82.0693 62.0767 81.2968C63.2101 80.5244 64.0812 79.4248 64.5738 78.1448C64.6794 79.3578 64.7168 80.5757 64.6858 81.7929C64.6823 81.8907 64.7163 81.9862 64.7809 82.0597C64.8455 82.1332 64.9358 82.1792 65.0332 82.1883C65.1306 82.1974 65.2279 82.169 65.305 82.1087C65.3821 82.0485 65.4332 81.961 65.4479 81.8643C66.2167 76.7964 65.6661 71.616 63.8493 66.8229C63.4971 65.83 62.9417 64.9215 62.2184 64.1554C61.6689 63.4129 61.0552 62.7202 60.3843 62.0852C60.5026 61.29 60.4897 60.4808 60.346 59.6899C60.291 59.0379 60.042 58.4173 59.631 57.9081C59.2201 57.3989 58.6661 57.0244 58.0404 56.833C57.6356 56.6685 57.2123 56.5539 56.7798 56.4918C55.9753 56.389 55.1588 56.5397 54.4441 56.9231C53.7294 57.3064 53.1521 57.9032 52.7927 58.6302C47.5298 58.2936 42.894 61.8851 40.9158 66.6704C40.7983 66.6939 40.6831 66.7278 40.5715 66.7716C39.2113 67.1894 38.0088 68.008 37.1212 69.1201C36.7091 69.6307 36.4182 70.2281 36.2702 70.8673C36.1223 71.5065 36.1211 72.171 36.2668 72.8107C36.4126 73.4505 36.7014 74.0488 37.1117 74.5609C37.5219 75.0729 38.0429 75.4853 38.6355 75.7671C39.4882 76.0938 40.4086 76.2045 41.3145 76.0891C43.2636 79.1561 47.4577 81.6243 51.214 82.1403C51.7819 83.0224 52.4338 83.8474 53.1608 84.6038C53.1416 84.6736 53.1224 84.7442 53.101 84.8139C49.0142 85.0394 44.2734 86.3704 40.9534 88.6983C36.0576 92.0013 32.5197 96.9616 30.991 102.666C30.4718 104.757 30.3885 106.931 30.7464 109.055C31.0413 111.407 31.586 113.72 32.3711 115.956C31.5712 117.689 31.0976 119.555 30.9741 121.459L34.2558 120.301C34.5962 120.953 34.9592 121.595 35.3446 122.227C35.6235 122.799 36.081 123.266 36.6481 123.556C37.1666 123.722 37.7221 123.734 38.2475 123.591C41.8726 122.898 45.3855 121.712 48.6883 120.064C48.9742 119.985 49.2384 119.841 49.461 119.645C49.6836 119.449 49.8588 119.204 49.9736 118.931C50.0884 118.657 50.1397 118.361 50.1238 118.064C50.1078 117.768 50.0249 117.479 49.8814 117.219C48.66 113.012 46.5583 109.421 44.6951 105.43C44.6322 105.328 44.6026 105.209 44.6101 105.09C44.6177 104.97 44.6621 104.856 44.7373 104.763L48.2037 98.0595C48.2285 98.0147 48.2441 97.9653 48.2495 97.9144C48.2548 97.8634 48.25 97.8119 48.2351 97.7628C48.2202 97.7138 48.1957 97.6682 48.1629 97.6288C48.1301 97.5895 48.0898 97.557 48.0442 97.5335C47.9987 97.51 47.9489 97.4958 47.8979 97.4918C47.8468 97.4879 47.7954 97.4942 47.7468 97.5104C47.6982 97.5267 47.6533 97.5525 47.6149 97.5863C47.5764 97.6202 47.5451 97.6614 47.5229 97.7076L44.0725 104.387C43.9363 104.593 43.8594 104.832 43.85 105.079C43.8407 105.325 43.8994 105.57 44.0196 105.785C45.8698 109.765 47.9499 113.282 49.1568 117.476C49.222 117.604 49.2771 117.737 49.3217 117.874C49.3998 118.182 49.3525 118.508 49.1902 118.781C49.0279 119.054 48.7638 119.252 48.456 119.331C45.1779 120.984 41.6836 122.167 38.0758 122.846C37.7107 122.943 37.3269 122.947 36.9601 122.856C36.5481 122.632 36.2178 122.283 36.017 121.859C33.6108 117.925 32.0715 113.524 31.5016 108.947C31.16 106.923 31.2383 104.85 31.7317 102.857C32.5826 99.6983 34.0777 96.7496 36.123 94.1964C38.1682 91.6431 40.7194 89.5404 43.6163 88.0205C43.6248 88.4497 43.7314 88.8714 43.9278 89.2532C44.1242 89.635 44.4053 89.9668 44.7495 90.2234C47.6701 92.5075 52.3235 92.5435 55.9801 95.3997C57.1839 96.3023 58.1661 97.4674 58.8524 98.8063C58.8813 98.8557 58.9212 98.8978 58.969 98.9293C59.0168 98.9607 59.0712 98.9808 59.128 98.9878C59.1848 98.9948 59.2425 98.9887 59.2965 98.9699C59.3506 98.951 59.3996 98.92 59.4397 98.8792C61.6088 96.5789 64.1168 94.4481 64.8384 91.2976C65.3834 88.6275 65.0086 85.8514 63.7749 83.4215C70.1765 81.5346 74.3315 80.5002 79.2333 76.6941C83.2534 73.5887 87.6997 69.2857 92.0472 66.7325C94.2463 68.7851 99.0806 74.6062 97.4643 77.697C96.9857 78.6342 96.3574 79.487 95.6042 80.2219C85.6587 89.7648 74.9955 93.5633 66.8143 95.9149C66.8062 95.5355 66.7924 95.1561 66.7729 94.7771C66.7703 94.7267 66.7578 94.6774 66.7362 94.6318C66.7146 94.5863 66.6842 94.5455 66.6468 94.5117C66.6093 94.4779 66.5656 94.4518 66.5181 94.4349C66.4706 94.4181 66.4203 94.4107 66.3699 94.4132C66.3196 94.4158 66.2702 94.4283 66.2247 94.4499C66.1792 94.4715 66.1384 94.5019 66.1046 94.5394C66.0708 94.5768 66.0447 94.6205 66.0278 94.668C66.0109 94.7155 66.0036 94.7658 66.0061 94.8162C66.2634 99.8623 65.5908 104.913 64.0218 109.716C64.0062 109.764 64.0001 109.814 64.004 109.864C64.0079 109.914 64.0217 109.963 64.0445 110.008C64.0673 110.053 64.0988 110.093 64.137 110.126C64.1753 110.159 64.2196 110.183 64.2675 110.199C64.3154 110.215 64.3659 110.221 64.4161 110.217C64.4663 110.213 64.5152 110.199 64.5601 110.176C64.605 110.154 64.645 110.122 64.6777 110.084C64.7105 110.046 64.7353 110.001 64.7509 109.953C66.1479 105.678 66.8482 101.206 66.825 96.7085C75.1166 94.3431 85.9822 90.5155 96.1332 80.7747C96.9467 79.9826 97.6253 79.0629 98.1421 78.052C99.9884 74.5265 94.944 68.2805 92.3539 65.9718ZM51.6242 92.2713C50.3207 91.8159 48.9736 91.4685 47.6839 90.9625C46.1443 90.3606 43.7788 89.1461 44.4344 87.634C46.0287 86.9405 47.6911 86.4155 49.3945 86.0676C51.1626 87.0574 51.6595 90.2417 51.6227 92.2744L51.6242 92.2713ZM59.81 97.417C59.8287 96.4787 59.6595 95.5462 59.3124 94.6743C59.2857 94.5788 59.2224 94.4977 59.1363 94.4484C59.0502 94.3992 58.9482 94.3859 58.8524 94.4113C58.8048 94.425 58.7604 94.4481 58.7218 94.4791C58.6833 94.5102 58.6513 94.5486 58.6277 94.5921C58.6042 94.6357 58.5895 94.6835 58.5846 94.7327C58.5798 94.782 58.5848 94.8317 58.5993 94.8791C58.9497 95.7483 59.1067 96.6834 59.0594 97.6194C57.5305 95.1834 55.0255 93.594 52.3488 92.5397C52.3609 92.5025 52.3673 92.4638 52.368 92.4247C52.4017 90.2862 51.9769 87.3381 50.4043 85.8797C51.3099 85.7275 52.2232 85.6251 53.1401 85.573C53.1887 85.6062 53.2442 85.6278 53.3025 85.636C53.3608 85.6443 53.4202 85.639 53.4761 85.6206C53.532 85.6022 53.5829 85.5712 53.6249 85.53C53.6669 85.4888 53.6988 85.4384 53.7182 85.3829L53.7765 85.2088C54.531 85.9171 55.3501 86.5532 56.2232 87.1088C56.3023 87.159 56.397 87.1785 56.4895 87.1636C56.582 87.1487 56.6658 87.1005 56.7251 87.028C56.7845 86.9555 56.8153 86.8639 56.8116 86.7703C56.808 86.6766 56.7702 86.5876 56.7055 86.52C55.7442 85.5165 54.8915 84.4144 54.1614 83.2321C54.184 82.895 54.1863 82.5567 54.1683 82.2193C54.5716 82.1883 54.9727 82.134 55.3698 82.0567C56.0388 82.2688 56.7302 82.4024 57.43 82.4546C57.0299 83.7292 56.9788 85.0878 57.2821 86.3888C57.2928 86.4386 57.3133 86.4856 57.3423 86.5273C57.3714 86.5691 57.4085 86.6046 57.4515 86.6318C57.4944 86.6591 57.5423 86.6775 57.5925 86.686C57.6426 86.6945 57.6939 86.693 57.7435 86.6815C57.793 86.67 57.8398 86.6488 57.881 86.6191C57.9223 86.5893 57.9572 86.5517 57.9837 86.5083C58.0103 86.4649 58.028 86.4167 58.0357 86.3665C58.0435 86.3162 58.0411 86.2649 58.0289 86.2156C57.9509 85.8732 57.8997 85.5253 57.8755 85.1751C61.1457 84.1906 60.6542 84.3316 60.8298 84.3416C60.921 84.3961 61.0284 84.2381 61.572 84.8339C62.2955 85.5883 62.8786 86.4656 63.2941 87.4247C63.8189 88.709 64.0698 90.0886 64.031 91.4754C63.3585 93.8623 61.5567 95.6627 59.81 97.4201V97.417ZM64.3131 88.0535C63.951 86.9144 63.3852 85.8506 62.6432 84.9136C62.4013 84.5824 62.1312 84.2727 61.8358 83.9881L63.0526 83.6293C63.7736 85.0023 64.2028 86.5096 64.3131 88.0565V88.0535Z" fill="#4B1010"/>
<path d="M86.9863 108.144C87.1728 108.17 87.3467 108.253 87.4847 108.381C87.6518 108.628 87.4563 107.73 89.4874 119.232C83.3743 117.451 76.8824 117.435 70.7604 119.185C70.9014 116.05 70.0427 112.437 69.9453 111.625C69.8391 111.196 69.8229 110.748 69.8978 110.312C69.952 110.167 70.0326 110.033 70.1355 109.916C70.696 109.175 71.2957 108.464 71.9319 107.787C72.5185 107.162 73.8488 107.355 74.6386 107.32C79.2015 107.121 82.4955 107.125 86.9863 108.144Z" fill="white"/>
<path d="M76.4193 113.185C76.5435 113.718 76.8223 114.202 77.2208 114.577C77.6193 114.951 78.1197 115.2 78.659 115.291C79.756 115.462 80.878 115.237 81.8249 114.657C82.215 114.469 82.5605 114.2 82.8385 113.868C83.1393 113.377 83.2566 112.795 83.1696 112.226C83.0826 111.657 82.7969 111.137 82.3631 110.758C79.9195 108.617 76.0144 110.389 76.4193 113.185Z" fill="#4B1010"/>
<path d="M89.9778 119.145C87.9689 107.721 88.1475 108.472 87.8968 108.104C87.6875 107.862 87.3978 107.703 87.081 107.657C81.371 106.364 77.4752 106.769 74.0539 106.837C73.1821 106.853 72.0964 106.874 71.4401 107.651C70.8129 108.394 70.2049 109.122 69.6605 109.874C68.962 110.836 69.4979 112.01 69.6681 112.975C70.0511 115.015 70.2734 117.081 70.3329 119.155C70.3338 119.232 70.3523 119.307 70.387 119.376C70.4218 119.444 70.4717 119.503 70.5331 119.549C70.5945 119.595 70.6657 119.626 70.7411 119.64C70.8164 119.654 70.894 119.651 70.9678 119.63C77.0293 117.934 83.4445 117.971 89.4863 119.736C89.5597 119.736 89.6323 119.72 89.6989 119.689C89.7655 119.658 89.8243 119.613 89.8713 119.556C89.9183 119.5 89.9522 119.434 89.9706 119.363C89.989 119.292 89.9915 119.217 89.9778 119.145ZM88.8576 118.537C83.1149 116.987 77.0659 116.973 71.3159 118.495C71.2191 116.584 70.9966 114.681 70.6496 112.8C70.4908 111.879 70.0829 110.983 70.4671 110.454C70.9938 109.729 71.5881 109.017 72.2015 108.291C72.5664 107.859 73.3324 107.844 74.0731 107.831C74.7632 107.819 74.4181 107.81 77.6676 107.724C80.7763 107.646 83.8829 107.952 86.9161 108.638C86.9831 108.648 87.0465 108.674 87.1009 108.714C87.1531 108.812 87.0296 108.182 88.8576 118.537Z" fill="#4B1010"/>
<path d="M77.2772 115.052C76.7846 114.68 76.4165 114.168 76.2215 113.582C76.0265 112.997 76.0139 112.366 76.1854 111.774C76.4321 111.097 76.8804 110.511 77.4699 110.097C78.0593 109.682 78.7617 109.458 79.4824 109.454C79.5841 109.453 79.6819 109.493 79.7544 109.564C79.8268 109.636 79.868 109.733 79.8688 109.835C79.8696 109.936 79.83 110.034 79.7587 110.107C79.6874 110.179 79.5902 110.22 79.4885 110.221C78.9282 110.224 78.3821 110.397 77.9224 110.718C77.4627 111.038 77.1113 111.491 76.9145 112.015C76.7929 112.454 76.8058 112.918 76.9514 113.349C77.097 113.78 77.3686 114.158 77.7311 114.433C78.1337 114.708 78.5866 114.901 79.0639 115.002C79.5412 115.102 80.0336 115.107 80.5129 115.017C80.8894 114.995 81.2542 114.878 81.5735 114.677C81.8928 114.476 82.1562 114.198 82.3393 113.868C82.5301 113.568 82.649 113.228 82.6866 112.874C82.7243 112.52 82.6798 112.162 82.5566 111.828C82.4333 111.494 82.2347 111.193 81.9761 110.949C81.7175 110.704 81.406 110.522 81.0657 110.418C81.0568 110.601 81.0325 110.782 80.9929 110.961C80.9768 111.061 80.9215 111.151 80.8391 111.211C80.7567 111.271 80.654 111.295 80.5535 111.279C80.4531 111.263 80.3631 111.208 80.3034 111.125C80.2438 111.043 80.2193 110.94 80.2353 110.84C80.2806 110.558 80.2921 110.384 80.371 109.92C80.387 109.826 80.4371 109.742 80.5118 109.683C80.5865 109.624 80.6803 109.595 80.7751 109.601C81.3528 109.643 81.904 109.859 82.3553 110.222C82.8066 110.585 83.1364 111.077 83.3008 111.633C83.449 112.082 83.4948 112.559 83.4347 113.028C83.3747 113.497 83.2104 113.947 82.9539 114.345C82.6974 114.742 82.3551 115.077 81.9522 115.325C81.5494 115.574 81.0961 115.728 80.6256 115.778C80.0471 115.884 79.4535 115.874 78.8789 115.749C78.3042 115.624 77.7599 115.387 77.2772 115.052Z" fill="white"/>
<path d="M79.1703 113.572C79.0289 113.534 78.8965 113.468 78.7813 113.378C78.666 113.288 78.5702 113.176 78.4996 113.048C78.429 112.919 78.3851 112.778 78.3706 112.633C78.3561 112.487 78.3712 112.34 78.415 112.201C78.5096 111.939 78.6764 111.709 78.8962 111.537C79.116 111.366 79.3798 111.261 79.657 111.233C79.9342 111.206 80.2136 111.257 80.4628 111.382C80.7119 111.507 80.9207 111.699 81.0649 111.938C81.16 112.193 81.1747 112.471 81.1069 112.735C81.0392 112.999 80.8923 113.236 80.686 113.414C80.4797 113.592 80.2239 113.702 79.9529 113.73C79.6819 113.759 79.4088 113.703 79.1703 113.572ZM79.8182 111.993C79.6747 111.991 79.5339 112.031 79.4139 112.11C79.294 112.189 79.2003 112.301 79.145 112.434C79.1243 112.501 79.0591 112.705 79.4555 112.859C80.0689 113.099 80.542 112.699 80.3687 112.257C80.3065 112.17 80.2235 112.1 80.1273 112.054C80.031 112.008 79.9247 111.987 79.8182 111.993Z" fill="white"/>
<path d="M52.5483 108.943C58.4217 107.625 63.932 105.028 68.6869 101.337C72.7814 103.449 77.2397 104.765 81.8251 105.215C77.1605 109.833 71.6558 113.516 65.6076 116.066C65.281 116.214 64.9342 116.313 64.5786 116.359C63.8022 116.316 63.0631 116.012 62.4816 115.496C59.1807 113.185 55.8645 111.341 52.5644 109.03L52.5483 108.943Z" fill="white"/>
<path d="M74.8451 108.144C71.9678 107.404 69.1732 106.374 66.5044 105.068C66.4459 105.04 66.3811 105.026 66.316 105.03C66.2509 105.033 66.1878 105.053 66.1326 105.088C63.4363 106.834 60.4407 108.067 57.2965 108.725C57.2254 108.739 57.1597 108.773 57.1071 108.823C57.0545 108.873 57.0172 108.937 56.9994 109.007C56.9817 109.078 56.9843 109.152 57.0069 109.22C57.0295 109.289 57.0711 109.351 57.1271 109.397C59.3407 111.222 62.0205 112.379 64.5845 113.677C64.7324 113.77 64.9019 113.823 65.0765 113.832C65.2512 113.84 65.425 113.804 65.5813 113.725C67.6193 112.768 71.7812 111.247 74.9801 108.818C75.0367 108.774 75.08 108.716 75.105 108.649C75.1301 108.582 75.136 108.509 75.1219 108.439C75.1079 108.369 75.0745 108.304 75.0256 108.252C74.9767 108.2 74.9142 108.162 74.8451 108.144ZM64.9587 113.01C62.6248 111.959 60.3809 110.719 58.2496 109.302C58.7863 109.178 59.3179 109.034 59.8444 108.871C59.8635 108.878 59.8833 108.883 59.9035 108.886C61.6371 109.163 63.3263 108.886 65.0338 109.193C65.1665 109.203 65.2908 109.261 65.3827 109.358C65.4593 109.571 65.3397 110.512 65.4141 111.23C65.4332 111.771 65.6173 112.294 65.9416 112.728C65.112 113.093 65.145 113.122 64.9587 113.01ZM66.67 112.406C66.3662 112.068 66.1923 111.634 66.1793 111.179C66.0865 110.268 66.325 109.299 66.0091 108.912C65.9021 108.777 65.7689 108.666 65.6177 108.584C65.4664 108.501 65.3002 108.451 65.1289 108.434C63.9608 108.284 62.7829 108.225 61.6057 108.257C63.2549 107.591 64.8451 106.787 66.3595 105.854C68.7742 107.02 71.2891 107.967 73.8736 108.683C71.5998 110.156 69.187 111.403 66.67 112.406Z" fill="#4B1010"/>
<path d="M69.0831 110.213C68.972 110.227 68.8593 110.218 68.752 110.185C68.6447 110.153 68.5453 110.099 68.4601 110.027C68.3749 109.954 68.3057 109.864 68.2569 109.764C68.2081 109.663 68.1809 109.553 68.1768 109.441C68.163 108.521 69.8637 108.015 70.3237 108.845C70.7148 109.56 69.9066 110.213 69.0831 110.213Z" fill="#4B1010"/>
<path d="M81.8052 104.815C77.277 104.402 72.8742 103.102 68.8471 100.991C68.7748 100.95 68.6917 100.933 68.6092 100.942C68.5268 100.951 68.4491 100.985 68.3871 101.04C63.6717 104.677 58.22 107.241 52.4118 108.554C52.3489 108.57 52.2912 108.602 52.2439 108.647C52.1967 108.691 52.1615 108.747 52.1417 108.809C52.122 108.871 52.1182 108.936 52.1309 109C52.1435 109.064 52.1721 109.123 52.214 109.173C52.2425 109.246 52.2918 109.309 52.3559 109.355C55.4995 111.547 59.2643 113.701 61.9234 115.606C63.7551 116.918 64.413 117.054 66.3107 116.181C66.8758 115.92 68.4614 115.285 70.7678 114.023C74.9278 111.742 78.7329 108.866 82.0628 105.487C82.1168 105.433 82.154 105.365 82.17 105.291C82.1859 105.216 82.1799 105.139 82.1526 105.067C82.1253 104.996 82.078 104.935 82.0163 104.89C81.9546 104.845 81.8813 104.819 81.8052 104.815ZM71.1382 102.876C71.6427 103.088 72.1515 103.289 72.6647 103.48C72.0863 103.664 71.4974 103.814 70.9012 103.928C70.8358 103.94 70.7749 103.97 70.7249 104.013C70.3159 103.846 69.9108 103.67 69.5096 103.486C70.0666 103.322 70.6109 103.118 71.1382 102.876ZM71.9394 104.486C72.4884 104.348 73.0297 104.181 73.5611 103.986C74.0043 103.824 73.0949 103.718 75.356 104.365C74.7074 104.578 73.9207 104.812 73.3287 104.96C72.8641 104.811 72.4018 104.652 71.9417 104.483L71.9394 104.486ZM74.6798 105.356C75.3478 105.166 76.0086 104.951 76.661 104.713C77.2003 104.846 77.7422 104.967 78.2866 105.075C77.4899 105.327 76.6757 105.519 75.8506 105.65C75.4593 105.556 75.069 105.459 74.6798 105.357V105.356ZM68.7612 101.777C69.2284 102.013 69.6992 102.239 70.1736 102.455C69.0679 102.869 68.6048 102.921 68.4699 102.991C68.2035 102.858 67.9388 102.722 67.6755 102.582C68.0405 102.318 68.4024 102.048 68.7612 101.774V101.777ZM65.7103 115.612C65.2266 115.88 64.6723 115.993 64.1224 115.935C63.1302 115.621 63.4078 115.561 59.6461 113.138C57.6142 111.839 55.4758 110.531 53.4354 109.14C58.2709 107.948 62.8526 105.896 66.9617 103.083C70.795 105.181 74.9938 106.528 79.3324 107.051C75.2973 110.639 70.6939 113.531 65.7103 115.61V115.612ZM80.093 106.354C79.9696 106.327 79.2412 106.289 77.746 106.031C78.4442 105.846 79.1303 105.617 79.8001 105.347C80.1912 105.408 80.5822 105.464 80.9755 105.513C80.6852 105.796 80.391 106.076 80.093 106.354Z" fill="#4B1010"/>
<path d="M50.2084 70.4895C50.5274 73.7853 51.3252 77.0168 52.5769 80.0823C53.743 80.8989 55.0556 81.4831 56.4428 81.8029C58.1663 82.1495 59.957 81.8689 61.4919 81.0116C62.2656 80.5579 62.9294 79.9387 63.4358 79.1984C63.9421 78.458 64.2785 77.6149 64.4208 76.7293C63.959 73.1743 62.9205 69.7185 61.3462 66.4978C60.2789 63.9001 56.5272 63.0904 53.7278 62.9263C53.4559 62.86 53.1699 62.8841 52.9129 62.9947C52.6559 63.1054 52.4418 63.2967 52.3031 63.5397C50.7489 65.4987 49.9768 67.1649 50.2084 70.4895Z" fill="white"/>
<path d="M52.1055 77.6509C52.1055 78.2673 52.3503 78.8584 52.7862 79.2942C53.222 79.7301 53.8131 79.9749 54.4295 79.9749C55.0459 79.9749 55.637 79.7301 56.0728 79.2942C56.5087 78.8584 56.7535 78.2673 56.7535 77.6509C56.7535 77.0346 56.5087 76.4434 56.0728 76.0076C55.637 75.5718 55.0459 75.3269 54.4295 75.3269C53.8131 75.3269 53.222 75.5718 52.7862 76.0076C52.3503 76.4434 52.1055 77.0346 52.1055 77.6509Z" fill="#FFE55D"/>
<path d="M63.1844 71.1084C62.8673 71.0798 62.5479 71.1277 62.2531 71.2479C61.9582 71.3681 61.6965 71.5572 61.4897 71.7993C61.283 72.0415 61.1372 72.3296 61.0647 72.6396C60.9921 72.9497 60.9949 73.2726 61.0727 73.5813C61.1506 73.8901 61.3012 74.1757 61.5121 74.4142C61.723 74.6528 61.988 74.8374 62.2848 74.9525C62.5817 75.0677 62.9018 75.11 63.2184 75.0761C63.535 75.0421 63.8388 74.9328 64.1045 74.7573C63.867 73.5246 63.5598 72.3063 63.1844 71.1084Z" fill="#FFE55D"/>
<path d="M61.1011 73.3342C60.1247 72.5911 59.2099 71.7706 58.3653 70.8806C58.3167 70.2109 58.4086 69.5384 58.6352 68.9063C58.6612 68.8119 58.651 68.7112 58.6066 68.624C58.5623 68.5368 58.4869 68.4693 58.3953 68.4347C58.3038 68.4002 58.2026 68.401 58.1116 68.4372C58.0207 68.4734 57.9465 68.5422 57.9037 68.6302C57.57 69.3918 57.4686 70.235 57.6124 71.0539C57.7159 71.5991 59.0776 72.6357 60.5636 73.9047C60.9431 74.2275 61.4967 73.6731 61.1011 73.3342Z" fill="#4B1010"/>
<path d="M61.6612 67.02C61.0167 66.6295 60.2655 66.4519 59.5143 66.5124C58.9408 66.5584 59.0842 67.3666 59.5358 67.2961C60.1411 67.2208 60.7535 67.3612 61.2656 67.6925C61.3546 67.7413 61.459 67.7535 61.5569 67.7266C61.6547 67.6996 61.7382 67.6357 61.7897 67.5482C61.8411 67.4607 61.8565 67.3567 61.8325 67.2581C61.8085 67.1595 61.7471 67.0741 61.6612 67.02Z" fill="#4B1010"/>
<path d="M53.2644 69.4558C52.6477 70.1002 52.1676 70.8625 51.8528 71.697C51.8283 71.7962 51.8432 71.9009 51.8943 71.9893C51.9454 72.0777 52.0287 72.1429 52.1268 72.1712C52.225 72.1995 52.3302 72.1886 52.4205 72.141C52.5108 72.0933 52.5791 72.0125 52.6112 71.9156C52.884 71.1913 53.307 70.5331 53.8525 69.9841C53.8899 69.946 53.9192 69.9007 53.9386 69.8509C53.958 69.8011 53.9671 69.748 53.9654 69.6946C53.9637 69.6412 53.9512 69.5887 53.9287 69.5403C53.9062 69.4919 53.8741 69.4485 53.8344 69.4128C53.7946 69.3772 53.7481 69.3499 53.6975 69.3327C53.647 69.3154 53.5935 69.3086 53.5402 69.3126C53.487 69.3167 53.4351 69.3314 53.3877 69.356C53.3403 69.3806 53.2984 69.4146 53.2644 69.4558Z" fill="#4B1010"/>
<path d="M60.7868 75.3162C60.7189 75.6051 60.5937 75.8775 60.4187 76.1172C60.2437 76.3569 60.0223 76.559 59.7678 76.7117C59.3282 76.8582 58.8594 76.8953 58.4022 76.8198C58.4329 76.7508 58.462 76.6802 58.4889 76.6089C58.524 76.5135 58.5198 76.4079 58.4772 76.3155C58.4346 76.2231 58.357 76.1515 58.2615 76.1163C58.166 76.0811 58.0605 76.0853 57.9681 76.1279C57.8757 76.1706 57.8041 76.2482 57.7689 76.3436C57.5806 76.8581 57.2351 77.3003 56.7813 77.6072C56.6989 77.6651 56.6425 77.753 56.6244 77.852C56.6063 77.9511 56.6279 78.0533 56.6845 78.1365C56.741 78.2198 56.8281 78.2775 56.9269 78.2971C57.0256 78.3167 57.1281 78.2967 57.2122 78.2413C57.4281 78.0954 57.6262 77.9248 57.8026 77.733C58.1328 78.2292 58.6447 78.5758 59.228 78.6983C60.6649 79.14 61.7261 77.6686 61.2691 76.2516C61.3955 76.0221 61.4904 75.7766 61.5512 75.5217C61.5621 75.4265 61.5384 75.3305 61.4845 75.2513C61.4306 75.172 61.35 75.1148 61.2575 75.0899C61.1649 75.065 61.0665 75.0742 60.9801 75.1157C60.8938 75.1572 60.8252 75.2284 60.7868 75.3162ZM59.8813 77.9998C59.4742 78.0203 59.0733 77.8943 58.7511 77.6448C59.2277 77.6533 59.7014 77.5678 60.145 77.3933C60.3058 77.303 60.4573 77.1972 60.5974 77.0774C60.5958 77.2884 60.5248 77.4931 60.3954 77.6598C60.266 77.8265 60.0853 77.946 59.8813 77.9998Z" fill="#4B1010"/>
<path d="M55.4371 71.6694C55.4614 71.5744 55.4495 71.4738 55.4035 71.3871C55.3575 71.3005 55.2809 71.2342 55.1885 71.2012C55.0962 71.1682 54.9948 71.1708 54.9044 71.2087C54.8139 71.2465 54.7408 71.3167 54.6994 71.4056C54.5363 71.9726 54.1952 72.4721 53.7264 72.8303C53.1705 73.1454 53.2449 74.0663 53.7264 74.5708C53.808 74.6817 53.9189 74.7676 54.0467 74.8187C54.1745 74.8699 54.314 74.8844 54.4496 74.8605C54.5852 74.8365 54.7113 74.7752 54.8139 74.6834C54.9164 74.5915 54.9912 74.4729 55.0299 74.3407C55.0526 74.1222 55.0185 73.9016 54.9309 73.7001C54.8433 73.4986 54.7052 73.3231 54.53 73.1906C54.9737 72.7824 55.2889 72.2538 55.4371 71.6694Z" fill="#4B1010"/>
<path d="M61.3132 69.7535C61.5931 69.2752 61.7756 68.7462 61.8499 68.197C61.8499 67.7507 61.1598 67.5836 61.0609 68.2545C60.9448 68.8064 60.7005 69.3233 60.3478 69.7634C60.2463 69.9458 60.1859 70.1483 60.1711 70.3566C60.1563 70.5648 60.1873 70.7738 60.262 70.9688C60.3115 71.1097 60.4009 71.2332 60.5193 71.3243C60.6377 71.4154 60.78 71.4702 60.9289 71.482C61.0778 71.4938 61.227 71.462 61.3582 71.3907C61.4894 71.3193 61.5971 71.2113 61.6682 71.0799C61.7827 70.8539 61.8098 70.5936 61.7443 70.3488C61.6788 70.1041 61.5253 69.8921 61.3132 69.7535Z" fill="#4B1010"/>
<path d="M49.1042 77.4999C48.8599 77.4231 48.5963 77.4356 48.3604 77.5351C48.2676 77.5695 48.1651 77.5666 48.0744 77.5271C47.9837 77.4876 47.9117 77.4146 47.8736 77.3233C47.8355 77.232 47.8341 77.1295 47.8698 77.0372C47.9056 76.9449 47.9756 76.87 48.0652 76.8282C48.3154 76.7229 48.5852 76.6724 48.8565 76.6802C48.7476 76.2994 48.6474 75.916 48.5559 75.5301C48.2521 75.5254 47.9554 75.6218 47.7123 75.8042C47.4693 75.9865 47.2938 76.2445 47.2134 76.5376C47.1292 76.9851 47.1575 77.4465 47.2958 77.8804C47.434 78.3143 47.6779 78.707 48.0054 79.0234C48.6056 79.6176 49.3512 80.044 50.1677 80.2601C49.7555 79.3633 49.4003 78.4414 49.1042 77.4999Z" fill="white"/>
<path d="M48.7551 84.6199C48.2344 84.6155 47.7309 84.4324 47.3291 84.1012C46.9272 83.77 46.6514 83.3107 46.5477 82.8004C46.4817 82.195 46.5406 81.5825 46.7208 81.0007C46.9009 80.419 47.1985 79.8804 47.5951 79.4182C47.6266 79.379 47.6655 79.3463 47.7097 79.3221C47.7538 79.2979 47.8023 79.2826 47.8523 79.2771C47.9024 79.2716 47.953 79.276 48.0014 79.2901C48.0497 79.3042 48.0948 79.3277 48.1341 79.3592C48.1733 79.3907 48.206 79.4297 48.2302 79.4738C48.2545 79.5179 48.2698 79.5664 48.2752 79.6165C48.2807 79.6665 48.2763 79.7172 48.2622 79.7655C48.2481 79.8139 48.2246 79.859 48.1931 79.8982C47.8678 80.2728 47.6209 80.709 47.4672 81.1807C47.3135 81.6525 47.2561 82.1503 47.2983 82.6447C47.3524 82.9201 47.4827 83.1749 47.6744 83.3799C47.8661 83.5849 48.1115 83.732 48.3827 83.8044C48.6538 83.8767 48.9399 83.8715 49.2083 83.7893C49.4766 83.7071 49.7165 83.5512 49.9007 83.3394C50.8637 82.1532 50.2718 80.5132 49.1815 79.531C49.1429 79.4976 49.1114 79.4569 49.0888 79.4112C49.0661 79.3655 49.0528 79.3158 49.0497 79.2649C49.0465 79.214 49.0535 79.163 49.0703 79.1148C49.0871 79.0667 49.1133 79.0224 49.1474 78.9845C49.1815 78.9466 49.2228 78.9159 49.269 78.8942C49.3151 78.8725 49.3651 78.8602 49.416 78.858C49.467 78.8558 49.5178 78.8639 49.5656 78.8816C49.6134 78.8993 49.6572 78.9264 49.6944 78.9613C52.2922 81.3006 51.0861 84.6199 48.7551 84.6199Z" fill="#4B1010"/>
</svg>
