<svg width="155" height="156" viewBox="0 0 155 156" fill="none" xmlns="http://www.w3.org/2000/svg">
<path d="M122.437 113.165L97.8572 25.8464C97.7999 25.6459 97.5979 25.5259 97.3919 25.5754L28.0756 42.6337C27.9734 42.6585 27.8867 42.7235 27.834 42.8134C27.7814 42.9039 27.7674 43.0116 27.7953 43.113L52.5233 132.507C52.5806 132.715 52.7967 132.833 52.9995 132.776L122.168 113.643C122.268 113.616 122.351 113.551 122.403 113.461C122.453 113.372 122.466 113.264 122.438 113.165H122.437Z" fill="black"/>
<path d="M122.847 113.784L51.9833 125.136L37.312 33.5533L95.8268 24.1794L97.6315 35.4463L109.98 33.4681L122.847 113.784Z" fill="white"/>
<path d="M47.655 55.8046C47.0239 55.8046 46.4928 55.3508 46.3921 54.726L46.3666 54.5634C46.3333 54.3528 46.4773 54.1546 46.6887 54.1206C46.8923 54.0896 47.0983 54.2313 47.1316 54.4426L47.1571 54.6045C47.2012 54.8785 47.4575 55.0667 47.7386 55.0233L49.2515 54.781C49.4551 54.75 49.661 54.8909 49.6951 55.1023C49.7284 55.3129 49.5844 55.5119 49.3738 55.546C47.9515 55.7744 47.8168 55.8046 47.655 55.8046ZM52.3763 55.0605C51.9025 55.0605 51.8483 54.366 52.3159 54.2909L55.3797 53.8008C55.8883 53.7218 56.006 54.4852 55.502 54.5658C52.9051 54.9831 52.4282 55.0605 52.3763 55.0605ZM58.503 54.0803C58.0291 54.0803 57.975 53.3858 58.4426 53.3107L61.5063 52.8198C61.7092 52.7888 61.9159 52.9298 61.95 53.1411C61.9832 53.3517 61.8392 53.5507 61.6286 53.5848C59.0264 54.0029 58.5556 54.0803 58.503 54.0803ZM64.6304 53.0993C64.1566 53.0993 64.1024 52.4048 64.57 52.3297L67.6337 51.8396C67.8474 51.8063 68.0425 51.9503 68.0774 52.1609C68.1107 52.3715 67.9667 52.5705 67.7561 52.6046C65.1592 53.0219 64.6823 53.0993 64.6304 53.0993ZM47.2167 52.1849C46.7382 52.1849 46.6902 51.4835 47.1594 51.4153L50.2185 50.9252C50.4291 50.8927 50.6281 51.0352 50.6621 51.2465C50.6954 51.4571 50.5514 51.6569 50.3408 51.6902C50.2967 51.6972 47.2616 52.1849 47.2167 52.1849ZM70.7571 52.1191C70.2832 52.1191 70.229 51.4246 70.6967 51.3495L73.7604 50.8586C73.9632 50.8277 74.1692 50.9686 74.204 51.18C74.2373 51.3905 74.0933 51.5895 73.8827 51.6236C71.2805 52.0417 70.8097 52.1191 70.7571 52.1191ZM53.3426 51.204C52.8688 51.204 52.8146 50.5094 53.2822 50.4343L56.3459 49.9442C56.86 49.8715 56.9684 50.6295 56.4683 50.7092C53.8714 51.1265 53.3945 51.204 53.3426 51.204ZM76.8845 51.1381C76.4107 51.1381 76.3565 50.4436 76.8241 50.3685L79.8878 49.8784C80.1007 49.8451 80.2966 49.9892 80.3315 50.1997C80.3647 50.4103 80.2207 50.6093 80.0101 50.6434C77.4133 51.0607 76.9364 51.1381 76.8845 51.1381ZM59.47 50.2238C58.9962 50.2238 58.942 49.5292 59.4096 49.4541L62.4726 48.964C62.6832 48.9315 62.8822 49.074 62.9162 49.2854C62.9495 49.496 62.8055 49.6949 62.5949 49.729C59.988 50.1479 59.5219 50.2238 59.47 50.2238ZM83.0111 50.1572C82.5373 50.1572 82.4831 49.4627 82.9508 49.3876L86.0145 48.8975C86.2243 48.8665 86.4233 49.0074 86.4581 49.2188C86.4914 49.4294 86.3474 49.6284 86.1368 49.6624C83.54 50.0797 83.063 50.1572 83.0111 50.1572ZM65.5967 49.2428C65.1228 49.2428 65.0686 48.5483 65.5363 48.4732L68.6 47.9831C69.1133 47.9103 69.2225 48.6683 68.7223 48.748C66.1255 49.1653 65.6486 49.2428 65.5967 49.2428ZM89.1386 49.177C88.6647 49.177 88.6105 48.4825 89.0782 48.4074L92.1419 47.9173C92.3548 47.884 92.5507 48.028 92.5855 48.2386C92.6188 48.4492 92.4748 48.6481 92.2642 48.6822C89.6674 49.0995 89.1904 49.177 89.1386 49.177ZM71.7241 48.2626C71.2503 48.2626 71.1961 47.5681 71.6637 47.493L74.7267 47.0021C74.9295 46.9711 75.1362 47.112 75.1703 47.3234C75.2036 47.534 75.0596 47.733 74.849 47.7671C72.2475 48.1851 71.7768 48.2626 71.7241 48.2626ZM95.2652 48.196C94.7914 48.196 94.7372 47.5015 95.2048 47.4264L98.4884 46.9022C98.6944 46.8728 98.8972 47.0145 98.929 47.2259C98.9615 47.4364 98.8167 47.6339 98.6061 47.6672C96.0085 48.0798 95.3171 48.196 95.2652 48.196ZM77.8508 47.2816C77.3769 47.2816 77.3227 46.5871 77.7904 46.512L80.8541 46.0219C81.0678 45.9886 81.2629 46.1326 81.2977 46.3432C81.331 46.5538 81.187 46.7528 80.9764 46.7868C78.3796 47.2042 77.9026 47.2816 77.8508 47.2816ZM83.9782 46.3014C83.5043 46.3014 83.4501 45.6069 83.9178 45.5318L86.9807 45.0409C87.1836 45.0099 87.3903 45.1509 87.4244 45.3622C87.4577 45.5728 87.3137 45.7718 87.1031 45.8059C84.5016 46.224 84.0308 46.3014 83.9782 46.3014ZM90.1048 45.3204C89.631 45.3204 89.5768 44.6259 90.0444 44.5508L93.1082 44.0607C93.6168 43.9817 93.7345 44.7451 93.2305 44.8257C90.6336 45.243 90.1567 45.3204 90.1048 45.3204ZM98.7997 44.9952C98.6131 44.9952 98.4482 44.859 98.418 44.6685L98.3932 44.5113C98.3498 44.2403 98.0843 44.0468 97.811 44.0925L96.2934 44.3348C95.7755 44.4053 95.674 43.6496 96.1711 43.5698L97.6902 43.3275C98.4164 43.216 99.0467 43.6984 99.1582 44.3898L99.1829 44.5477C99.2201 44.7808 99.0405 44.9952 98.7997 44.9952Z" fill="black"/>
<path d="M49.3663 66.4846C48.7346 66.4846 48.2026 66.0309 48.102 65.406L48.0819 65.2767C48.047 65.0661 48.191 64.8672 48.4016 64.8331C48.6068 64.7944 48.8112 64.9407 48.8453 65.1529L48.8662 65.2829C48.9111 65.5578 49.1643 65.7506 49.4484 65.7041L51.0256 65.4525C51.535 65.3743 51.6519 66.1369 51.1479 66.2175C49.3942 66.4985 49.522 66.4846 49.3656 66.4846H49.3663ZM54.1822 65.7273C53.7083 65.7273 53.6541 65.0328 54.1218 64.9577L57.2173 64.4638C57.4271 64.4328 57.6268 64.5737 57.6609 64.7851C57.6942 64.9965 57.5502 65.1954 57.3396 65.2287C54.7389 65.6461 54.2341 65.7273 54.1822 65.7273ZM60.3731 64.7402C59.8993 64.7402 59.8451 64.0457 60.3127 63.9706L63.4082 63.4758C63.6188 63.4433 63.8177 63.5858 63.8518 63.7971C63.8851 64.0077 63.7411 64.2075 63.5305 64.2408C60.9352 64.6573 60.425 64.7402 60.3731 64.7402ZM66.564 63.7522C66.0902 63.7522 66.036 63.0577 66.5036 62.9826L69.5991 62.4879C70.1109 62.4128 70.2231 63.1723 69.7214 63.2528C67.1261 63.6694 66.6159 63.7522 66.564 63.7522ZM48.9924 62.8611C48.4334 62.8611 48.4581 62.0915 48.9266 62.0915L51.9609 61.6029C52.1707 61.5712 52.3697 61.7129 52.4045 61.9242C52.4378 62.1356 52.2938 62.3338 52.0832 62.3679L48.9924 62.8611ZM72.7549 62.7643C72.2811 62.7643 72.2269 62.0698 72.6945 61.9947L75.79 61.4999C76.0029 61.4674 76.1988 61.6099 76.2336 61.8213C76.2669 62.0318 76.1229 62.2316 75.9123 62.2649C73.317 62.6814 72.8068 62.7643 72.7549 62.7643ZM55.1159 61.8778C54.6421 61.8778 54.5879 61.1833 55.0555 61.1082L58.151 60.6142C58.3631 60.5809 58.5606 60.7249 58.5946 60.9355C58.6279 61.1469 58.4839 61.3459 58.2733 61.3792C55.6726 61.7965 55.1678 61.8778 55.1159 61.8778ZM78.9458 61.7756C78.472 61.7756 78.4178 61.0811 78.8855 61.006L81.9801 60.512C82.4927 60.4384 82.6034 61.1964 82.1025 61.2769C79.5072 61.6935 78.9977 61.7756 78.9458 61.7756ZM61.3068 60.889C60.833 60.889 60.7788 60.1945 61.2465 60.1194L64.3419 59.6255C64.8529 59.5511 64.9667 60.3099 64.4642 60.3904C61.8635 60.8078 61.3587 60.889 61.3068 60.889ZM85.136 60.7869C84.6621 60.7869 84.6079 60.0923 85.0756 60.0172L88.171 59.5233C88.6805 59.4466 88.7966 60.2077 88.2934 60.2882C85.6927 60.7056 85.1879 60.7869 85.136 60.7869ZM67.4978 59.9003C67.0239 59.9003 66.9697 59.2058 67.4374 59.1307L70.5328 58.6368C71.0423 58.5593 71.1592 59.3212 70.6552 59.4017C68.0545 59.819 67.5496 59.9003 67.4978 59.9003ZM91.3269 59.7981C90.8531 59.7981 90.7989 59.1036 91.2665 59.0285L94.362 58.5346C94.5718 58.5044 94.7715 58.6445 94.8056 58.8559C94.8389 59.0672 94.6949 59.2662 94.4843 59.2995C91.8836 59.7168 91.3788 59.7981 91.3269 59.7981ZM73.6887 58.9124C73.2148 58.9124 73.1606 58.2179 73.6283 58.1428L76.7237 57.648C77.2386 57.576 77.3455 58.3332 76.8461 58.413C74.2508 58.8295 73.7406 58.9124 73.6887 58.9124ZM97.5178 58.8094C97.044 58.8094 96.9898 58.1149 97.4574 58.0398L100.773 57.5118C100.981 57.4831 101.181 57.6248 101.213 57.8354C101.246 58.046 101.101 58.2434 100.89 58.2767C98.2998 58.6871 97.5697 58.8094 97.5178 58.8094ZM79.8796 57.9237C79.4057 57.9237 79.3516 57.2292 79.8192 57.1541L82.9147 56.6593C83.4272 56.5842 83.5379 57.3438 83.037 57.4243C80.4417 57.8408 79.9315 57.9237 79.8796 57.9237ZM86.0705 56.9357C85.5967 56.9357 85.5425 56.2412 86.0101 56.1661L89.1056 55.6714C89.3154 55.6381 89.5151 55.7813 89.5492 55.9927C89.5825 56.2033 89.4385 56.403 89.2279 56.4363C86.6326 56.8529 86.1224 56.9357 86.0705 56.9357ZM92.2614 55.9478C91.7876 55.9478 91.7334 55.2533 92.201 55.1782L95.2957 54.6842C95.8059 54.6083 95.9213 55.3686 95.418 55.4492C92.8227 55.8657 92.3133 55.9478 92.2614 55.9478ZM101.08 55.5738C100.894 55.5738 100.73 55.4383 100.699 55.2486L100.679 55.1232C100.634 54.8491 100.376 54.6563 100.097 54.7028L98.5143 54.9552C98.0025 55.0295 97.8902 54.2707 98.3919 54.1902L99.9753 53.9378C100.453 53.8627 101.292 54.0586 101.463 55.1247C101.501 55.3609 101.319 55.5738 101.081 55.5738H101.08Z" fill="black"/>
<path d="M52.7433 76.9106C52.2695 76.9106 52.2153 76.2161 52.6829 76.141L55.7505 75.6494C55.9549 75.6168 56.1601 75.7593 56.1942 75.9707C56.2275 76.1813 56.0835 76.3803 55.8729 76.4143C53.2729 76.8324 52.796 76.9106 52.7433 76.9106ZM50.1713 76.2556C49.9847 76.2556 49.8205 76.1201 49.7896 75.9296L49.5186 74.2433C49.3242 72.996 50.8952 72.3518 51.0199 73.0951C51.0547 73.3057 50.9122 73.5055 50.7016 73.5403C50.4245 73.586 50.2386 73.8461 50.2835 74.1218L50.5545 75.8073C50.5909 76.038 50.4152 76.2556 50.1713 76.2556ZM58.8793 75.9281C58.4054 75.9281 58.3512 75.2336 58.8189 75.1585L61.8865 74.6676C62.3944 74.5886 62.5128 75.3521 62.0088 75.4326C59.4089 75.8499 58.9319 75.9281 58.8793 75.9281ZM65.0152 74.9456C64.5414 74.9456 64.4872 74.2511 64.9548 74.176L68.0224 73.6851C68.5334 73.6069 68.6472 74.3695 68.1447 74.4501C65.5448 74.8674 65.0679 74.9456 65.0152 74.9456ZM71.1504 73.963C70.6765 73.963 70.6223 73.2685 71.09 73.1934L74.1584 72.7026C74.3705 72.6693 74.5679 72.8133 74.602 73.0239C74.6353 73.2345 74.4913 73.4335 74.2807 73.4675C71.68 73.8856 71.203 73.963 71.1504 73.963ZM53.7057 73.0549C53.2319 73.0549 53.1777 72.3603 53.6453 72.2852L56.7129 71.7936C56.9227 71.7634 57.1217 71.9035 57.1566 72.1149C57.1899 72.3255 57.0458 72.5245 56.8353 72.5586C54.2353 72.9767 53.7584 73.0549 53.7057 73.0549ZM77.2863 72.9813C76.8125 72.9813 76.7583 72.2868 77.2259 72.2117L80.2943 71.72C80.5018 71.6868 80.7031 71.8308 80.7379 72.0414C80.7712 72.252 80.6272 72.4509 80.4166 72.485C77.8159 72.9031 77.339 72.9813 77.2863 72.9813ZM59.8417 72.0723C59.3678 72.0723 59.3136 71.3778 59.7813 71.3027L62.8489 70.8111C63.0533 70.7809 63.2584 70.921 63.2925 71.1324C63.3258 71.343 63.1818 71.542 62.9712 71.576C60.3713 71.9941 59.8943 72.0723 59.8417 72.0723ZM83.4223 71.9988C82.9484 71.9988 82.8942 71.3043 83.3619 71.2292L86.4295 70.7383C86.6401 70.7081 86.839 70.8482 86.8731 71.0596C86.9064 71.2702 86.7624 71.4692 86.5518 71.5032C83.9519 71.9206 83.4749 71.9988 83.4223 71.9988ZM65.9776 71.0898C65.5038 71.0898 65.4496 70.3953 65.9172 70.3202L68.9848 69.8285C69.1923 69.7984 69.3936 69.9385 69.4284 70.1499C69.4617 70.3605 69.3177 70.5594 69.1071 70.5935C66.5072 71.0116 66.0303 71.0898 65.9776 71.0898ZM89.5582 71.0162C89.0844 71.0162 89.0302 70.3217 89.4978 70.2466L92.5654 69.7558C93.0787 69.683 93.1879 70.441 92.6877 70.5207C90.0878 70.938 89.6109 71.0162 89.5582 71.0162ZM72.1128 70.1073C71.6389 70.1073 71.5847 69.4128 72.0524 69.3377L75.1207 68.846C75.3306 68.8158 75.5296 68.956 75.5644 69.1673C75.5977 69.3779 75.4537 69.5769 75.2431 69.611C72.6424 70.0291 72.1654 70.1073 72.1128 70.1073ZM95.6942 70.0337C95.2203 70.0337 95.1661 69.3392 95.6338 69.2641L98.9212 68.7392C99.4346 68.6679 99.5383 69.4252 99.0389 69.5041C96.4328 69.9176 95.746 70.0337 95.6942 70.0337ZM78.2487 69.1248C77.7749 69.1248 77.7207 68.4302 78.1883 68.3551L81.2567 67.8643C81.7685 67.7892 81.8807 68.5487 81.379 68.6292C78.7783 69.0473 78.3014 69.1248 78.2487 69.1248ZM84.3847 68.1422C83.9108 68.1422 83.8566 67.4477 84.3243 67.3726L87.3919 66.8817C87.906 66.8074 88.0144 67.567 87.5142 67.6467C84.9142 68.064 84.4373 68.1422 84.3847 68.1422ZM90.5206 67.1597C90.0468 67.1597 89.9926 66.4652 90.4602 66.3901L93.5278 65.8992C93.7384 65.8682 93.9374 66.0092 93.9714 66.2205C94.0047 66.4311 93.8607 66.6301 93.6501 66.6642C91.0502 67.0815 90.5733 67.1597 90.5206 67.1597ZM99.2325 66.8275C99.0459 66.8275 98.881 66.6913 98.8508 66.5008L98.8268 66.3483C98.7834 66.0788 98.5287 65.883 98.2453 65.9286L96.7177 66.1725C96.2005 66.243 96.0983 65.4873 96.5954 65.4076L98.1238 65.1637C98.826 65.0561 99.4826 65.5345 99.5917 66.2275L99.6157 66.38C99.6521 66.6123 99.4733 66.8275 99.2325 66.8275Z" fill="black"/>
<path d="M54.4538 87.5898C53.98 87.5898 53.9258 86.8953 54.3934 86.8202L57.4611 86.3294C57.6725 86.2968 57.8706 86.4393 57.9047 86.6507C57.938 86.8613 57.7939 87.0602 57.5833 87.0943C54.9834 87.5116 54.5065 87.5898 54.4538 87.5898ZM51.8818 86.934C51.6952 86.934 51.531 86.7986 51.5001 86.6081L51.2298 84.9225C51.0394 83.6574 52.6127 83.0419 52.7304 83.7767C52.7653 83.9872 52.6212 84.1862 52.4106 84.2203C52.1365 84.2652 51.9491 84.5207 51.9948 84.8018L52.265 86.4858C52.3014 86.7165 52.1257 86.934 51.8818 86.934ZM60.5898 86.6081C60.116 86.6081 60.0617 85.9136 60.5294 85.8385L63.597 85.3468C63.8045 85.3143 64.0058 85.4568 64.0406 85.6681C64.0739 85.8787 63.93 86.0777 63.7194 86.1118C61.1194 86.5299 60.6425 86.6081 60.5898 86.6081ZM66.7257 85.6256C66.2519 85.6256 66.1977 84.9311 66.6654 84.856L69.7329 84.3643C69.9427 84.3318 70.1417 84.4742 70.1765 84.6856C70.2098 84.8962 70.0658 85.0952 69.8552 85.1293C67.2553 85.5474 66.7784 85.6256 66.7257 85.6256ZM72.861 84.643C72.3871 84.643 72.3328 83.9485 72.8005 83.8734L75.8688 83.3818C76.074 83.3493 76.2785 83.4917 76.3126 83.7031C76.3459 83.9137 76.2018 84.1127 75.9912 84.1467C73.3905 84.5648 72.9136 84.643 72.861 84.643ZM55.4162 83.7341C54.9424 83.7341 54.8882 83.0396 55.3558 82.9645L58.4242 82.4728C58.6332 82.4395 58.833 82.5835 58.8678 82.7941C58.9011 83.0047 58.7572 83.2037 58.5466 83.2378C55.9459 83.6559 55.4689 83.7341 55.4162 83.7341ZM78.9968 83.6605C78.523 83.6605 78.4688 82.966 78.9364 82.8909L82.0048 82.4C82.5127 82.3211 82.6311 83.0845 82.1271 83.165C79.5264 83.5831 79.0495 83.6605 78.9968 83.6605ZM61.5522 82.7515C61.0783 82.7515 61.0241 82.057 61.4918 81.9819L64.5601 81.4903C64.7638 81.457 64.9697 81.601 65.0038 81.8116C65.0371 82.0222 64.8931 82.2212 64.6825 82.2552C62.0817 82.6733 61.6048 82.7515 61.5522 82.7515ZM85.1328 82.678C84.6589 82.678 84.6047 81.9835 85.0724 81.9084L88.1399 81.4175C88.3505 81.3842 88.5495 81.5282 88.5836 81.7388C88.6169 81.9494 88.4729 82.1484 88.2623 82.1825C85.6623 82.5998 85.1854 82.678 85.1328 82.678ZM67.6882 81.769C67.2143 81.769 67.1601 81.0745 67.6277 80.9994L70.6953 80.5085C71.2094 80.4358 71.3179 81.1937 70.8177 81.2735C68.2178 81.6908 67.7408 81.769 67.6882 81.769ZM91.2687 81.6955C90.7949 81.6955 90.7407 81.001 91.2083 80.9259L94.2759 80.435C94.4888 80.4017 94.6847 80.5457 94.7195 80.7563C94.7528 80.9669 94.6088 81.1659 94.3982 81.1999C91.7983 81.6173 91.3213 81.6955 91.2687 81.6955ZM73.824 80.7865C73.3502 80.7865 73.2961 80.092 73.7637 80.0169L76.8313 79.526C77.3485 79.4555 77.4514 80.2112 76.9536 80.291C74.3536 80.7083 73.8767 80.7865 73.824 80.7865ZM97.4046 80.7129C96.9308 80.7129 96.8766 80.0184 97.3442 79.9433L100.632 79.4184C100.839 79.3866 101.041 79.5314 101.072 79.742C101.105 79.9526 100.96 80.1501 100.749 80.1834C98.1433 80.5968 97.4565 80.7129 97.4046 80.7129ZM79.96 79.8047C79.4861 79.8047 79.4319 79.1102 79.8996 79.0351L82.9672 78.5435C83.1723 78.5141 83.3768 78.6534 83.4108 78.8648C83.4441 79.0754 83.3001 79.2744 83.0895 79.3084C80.4896 79.7265 80.0126 79.8047 79.96 79.8047ZM86.0951 78.8222C85.6213 78.8222 85.5671 78.1277 86.0348 78.0526L89.1031 77.5617C89.6172 77.489 89.7256 78.2469 89.2254 78.3267C86.6247 78.7448 86.1478 78.8222 86.0951 78.8222ZM92.2311 77.8397C91.7573 77.8397 91.703 77.1452 92.1707 77.0701L95.2391 76.5792C95.4489 76.549 95.6479 76.6892 95.6827 76.9005C95.716 77.1111 95.572 77.3101 95.3614 77.3442C92.7607 77.7623 92.2837 77.8397 92.2311 77.8397ZM100.943 77.5068C100.756 77.5068 100.591 77.3705 100.561 77.18L100.537 77.0275C100.494 76.7565 100.225 76.5637 99.9558 76.6086L98.429 76.8525C97.911 76.923 97.8103 76.1673 98.3066 76.0876L99.835 75.8437C100.565 75.7337 101.193 76.2145 101.303 76.9067L101.327 77.0592C101.363 77.2915 101.184 77.5068 100.943 77.5068Z" fill="black"/>
<path d="M54.499 98.5254C53.8664 98.5254 53.3345 98.0717 53.2354 97.4461L53.2191 97.34C53.1363 96.8368 53.9028 96.7067 53.9826 97.2161L53.9996 97.3238C54.0437 97.5986 54.3062 97.793 54.5811 97.745L56.2047 97.4848C56.4145 97.4538 56.6135 97.5947 56.6483 97.8061C56.6816 98.0167 56.5376 98.2157 56.327 98.2498C54.5625 98.5331 54.6554 98.5254 54.499 98.5254ZM59.3837 97.755C58.9099 97.755 58.8557 97.0605 59.3233 96.9854L62.4413 96.4853C62.6449 96.4527 62.8508 96.5952 62.8849 96.8066C62.9182 97.0172 62.7742 97.2161 62.5636 97.2502C59.9598 97.6691 59.4356 97.755 59.3837 97.755ZM65.6203 96.7555C65.1465 96.7555 65.0923 96.061 65.5599 95.9859L68.6778 95.4865C68.8838 95.4555 69.0867 95.5964 69.1215 95.8078C69.1548 96.0184 69.0108 96.2174 68.8002 96.2514C66.1979 96.6695 65.6722 96.7555 65.6203 96.7555ZM71.8569 95.7567C71.3831 95.7567 71.3289 95.0622 71.7965 94.9871L74.9144 94.4869C75.1219 94.4536 75.3232 94.5976 75.3581 94.8082C75.3914 95.0188 75.2474 95.2178 75.0368 95.2519C72.433 95.6707 71.9088 95.7567 71.8569 95.7567ZM54.0615 94.9073C53.631 94.9073 53.5234 94.3057 53.9276 94.1563C54.005 94.1277 53.8424 94.1501 57.1175 93.6368C57.3204 93.605 57.5271 93.7467 57.5611 93.9581C57.5944 94.1687 57.4504 94.3677 57.2398 94.4017C54.8915 94.7788 54.1002 94.9073 54.0615 94.9073ZM78.0935 94.7571C77.6197 94.7571 77.5655 94.0626 78.0331 93.9875L81.151 93.4873C81.3609 93.4564 81.5598 93.5973 81.5947 93.8087C81.628 94.0193 81.484 94.2182 81.2734 94.2523C78.6696 94.6712 78.1454 94.7571 78.0935 94.7571ZM60.2966 93.907C59.8227 93.907 59.7685 93.2125 60.2362 93.1374L63.3541 92.638C63.5593 92.6047 63.7637 92.7487 63.7977 92.9593C63.831 93.1699 63.687 93.3689 63.4764 93.403C60.8742 93.8211 60.3484 93.907 60.2966 93.907ZM84.3301 93.7583C83.8563 93.7583 83.8021 93.0638 84.2697 92.9887L87.3876 92.4886C87.5913 92.4553 87.7972 92.5985 87.8313 92.8099C87.8646 93.0205 87.7206 93.2195 87.51 93.2535C84.9062 93.6724 84.382 93.7583 84.3301 93.7583ZM66.5332 92.9082C66.0593 92.9082 66.0051 92.2137 66.4728 92.1386L69.5907 91.6384C69.7974 91.6067 69.9995 91.7484 70.0343 91.9598C70.0676 92.1703 69.9236 92.3693 69.713 92.4034C67.1092 92.8223 66.585 92.9082 66.5332 92.9082ZM90.5667 92.7588C90.0929 92.7588 90.0387 92.0643 90.5063 91.9892L93.6242 91.489C93.8294 91.4573 94.033 91.599 94.0679 91.8103C94.1012 92.0209 93.9572 92.2199 93.7466 92.254C91.1428 92.6728 90.6186 92.7588 90.5667 92.7588ZM72.7698 91.9086C72.2959 91.9086 72.2417 91.2141 72.7094 91.139L75.8273 90.6389C76.0363 90.6056 76.2361 90.7496 76.2709 90.9602C76.3042 91.1708 76.1602 91.3698 75.9496 91.4038C73.3458 91.8227 72.8216 91.9086 72.7698 91.9086ZM96.8033 91.7592C96.3295 91.7592 96.2753 91.0647 96.7429 90.9896L99.8608 90.4902C100.068 90.46 100.27 90.6002 100.304 90.8115C100.338 91.0221 100.194 91.2211 99.9832 91.2552C97.3809 91.6733 96.8552 91.7592 96.8033 91.7592ZM79.0064 90.9091C78.5325 90.9091 78.4783 90.2146 78.946 90.1395L82.0639 89.6401C82.2667 89.6083 82.4735 89.75 82.5075 89.9614C82.5408 90.172 82.3968 90.371 82.1862 90.4051C79.584 90.8231 79.0582 90.9091 79.0064 90.9091ZM103.04 90.7604C102.566 90.7604 102.512 90.0659 102.979 89.9908L106.313 89.4566C106.522 89.4194 106.723 89.565 106.758 89.7756C106.793 89.9854 106.65 90.1859 106.44 90.22C103.831 90.6443 103.093 90.7604 103.04 90.7604ZM85.243 89.9103C84.7691 89.9103 84.7149 89.2158 85.1826 89.1407L88.3005 88.6405C88.5056 88.6103 88.7101 88.7513 88.7441 88.9618C88.7774 89.1724 88.6334 89.3714 88.4228 89.4055C85.819 89.8244 85.2948 89.9103 85.243 89.9103ZM91.4795 88.9107C91.0057 88.9107 90.9515 88.2162 91.4192 88.1411L94.5371 87.641C94.7438 87.6092 94.9459 87.7509 94.9807 87.9623C95.014 88.1729 94.87 88.3719 94.6594 88.4059C92.0556 88.8248 91.5314 88.9107 91.4795 88.9107ZM97.7161 87.912C97.2423 87.912 97.1881 87.2175 97.6558 87.1424L100.774 86.6422C100.982 86.612 101.182 86.7521 101.217 86.9635C101.251 87.1741 101.107 87.3731 100.896 87.4072C98.2922 87.826 97.768 87.912 97.7161 87.912ZM106.622 87.4962C106.435 87.4962 106.271 87.3607 106.24 87.1702L106.224 87.0665C106.18 86.7963 105.912 86.6004 105.642 86.6468L104.015 86.9078C103.806 86.938 103.606 86.7978 103.571 86.5864C103.538 86.3758 103.682 86.1769 103.892 86.1428L105.521 85.8819C105.98 85.813 106.835 85.9833 107.006 87.0479C107.043 87.2786 106.865 87.4962 106.622 87.4962Z" fill="black"/>
<path d="M58.2326 115.379C57.2447 115.379 56.4488 114.787 56.1569 113.835C56.0942 113.631 56.208 113.414 56.4131 113.352C56.6168 113.289 56.8343 113.404 56.8963 113.609C57.1123 114.31 57.7023 114.687 58.4843 114.587L59.017 114.501C59.2229 114.47 59.4258 114.611 59.4606 114.823C59.4939 115.033 59.3499 115.232 59.1393 115.266C58.7367 115.331 58.5222 115.379 58.2319 115.379L58.2326 115.379ZM62.1798 114.774C61.7059 114.774 61.6517 114.079 62.1194 114.004L65.2203 113.507C65.4239 113.475 65.6298 113.617 65.6639 113.829C65.6972 114.039 65.5532 114.238 65.3426 114.272C62.7426 114.69 62.2324 114.773 62.1798 114.773V114.774ZM68.3823 113.781C67.9085 113.781 67.8543 113.086 68.3219 113.011L71.4236 112.513C71.6318 112.481 71.8324 112.623 71.8672 112.834C71.9005 113.045 71.7565 113.244 71.5459 113.278C68.9398 113.697 68.4349 113.78 68.3823 113.78V113.781ZM74.5848 112.786C74.111 112.786 74.0568 112.092 74.5244 112.017C74.5244 112.017 77.6377 111.517 77.6485 111.516C78.1441 111.452 78.2788 112.196 77.7484 112.285C75.1508 112.723 74.6375 112.786 74.5848 112.786ZM57.9044 111.764C57.5103 111.764 57.3701 111.15 57.8293 110.996C57.9067 110.971 57.8269 110.982 60.9921 110.484C61.1957 110.452 61.4016 110.594 61.4357 110.805C61.469 111.016 61.325 111.215 61.1144 111.249C57.9322 111.76 57.9818 111.764 57.9044 111.764ZM64.1533 110.756C63.6795 110.756 63.6253 110.062 64.0929 109.987L67.1946 109.49C67.4036 109.459 67.6034 109.6 67.6382 109.811C67.6715 110.022 67.5275 110.221 67.3169 110.255C64.7162 110.673 64.206 110.756 64.1533 110.756ZM79.1173 109.922C78.9524 109.922 78.7999 109.816 78.7472 109.651C78.5296 108.953 77.9358 108.577 77.1608 108.677L76.6203 108.764C76.1047 108.836 75.9994 108.08 76.498 107.999L77.0477 107.912C78.2331 107.749 79.1645 108.387 79.4866 109.419C79.564 109.668 79.379 109.922 79.1165 109.922L79.1173 109.922ZM70.3566 109.763C69.8828 109.763 69.8286 109.068 70.2962 108.993L73.3971 108.496C73.6038 108.465 73.8059 108.606 73.8408 108.818C73.8741 109.028 73.7301 109.227 73.5195 109.261C70.9195 109.679 70.4093 109.762 70.3566 109.762V109.763Z" fill="black"/>
<path d="M109.979 33.4681L95.8262 24.1794L97.631 35.4463L109.979 33.4681Z" fill="#FFD997"/>
<path d="M123.229 113.722L110.374 33.4805C110.354 33.3551 110.336 33.2382 110.192 33.1445L96.0387 23.8558C95.938 23.7892 95.8467 23.7838 95.722 23.8039L37.2506 33.1708C37.1492 33.1871 37.0586 33.2436 36.9982 33.3265C36.9386 33.4093 36.9138 33.5131 36.9293 33.6145L51.6006 125.198C51.6347 125.405 51.8275 125.551 52.0442 125.519L122.907 114.167C123.008 114.151 123.099 114.094 123.159 114.011C123.219 113.928 123.244 113.825 123.228 113.723L123.229 113.722ZM108.932 33.2436L97.9519 35.0019L96.3468 24.9847L108.932 33.2436ZM52.3044 124.692L37.7554 33.8739L95.5044 24.6231L97.2481 35.5075C97.2813 35.7112 97.4718 35.8614 97.6917 35.8288L109.658 33.9118L122.402 113.461L52.3044 124.692Z" fill="black"/>
<path d="M140.503 39.6645C119.557 4.87508 74.3784 -6.36318 39.5688 14.5943C4.76542 35.5494 -6.45503 80.7246 14.4993 115.528C35.4622 150.346 80.6506 161.539 115.433 140.597C150.223 119.652 161.461 74.4741 140.503 39.6645ZM110.417 136.356C78.8094 154.085 38.6242 143.601 19.8006 112.337C0.973908 81.0676 10.5081 40.654 40.971 21.0128L110.417 136.356ZM116.033 132.832L46.5766 17.7679C77.8617 1.55896 116.771 12.2444 135.201 42.856C153.605 73.4234 144.896 112.74 116.032 132.833L116.033 132.832Z" fill="#81F8F8"/>
<path d="M14.1665 115.728C-6.85901 80.8059 4.44661 35.2892 39.3684 14.2621C74.291 -6.76114 119.808 4.54294 140.834 39.4648C161.912 74.4749 150.641 119.851 115.631 140.93C80.6129 162.015 35.2517 150.746 14.1665 115.728ZM39.7679 14.9264C5.21157 35.7321 -5.97482 80.7726 14.8308 115.329C35.6876 149.971 80.5912 161.124 115.233 140.266C149.876 119.409 161.027 74.5074 140.171 39.8643C119.363 5.30402 74.3274 -5.88236 39.7679 14.9264ZM19.4678 112.536C0.558319 81.1288 10.0522 40.4868 40.7605 20.6876C40.9487 20.5661 41.191 20.6303 41.3017 20.813L110.79 136.454C110.763 136.556 110.696 136.642 110.605 136.694C78.6842 154.598 38.3456 143.891 19.4678 112.536ZM40.8449 21.5556C10.5275 41.3508 1.41851 81.056 20.1321 112.138C38.8442 143.219 78.1987 153.743 109.878 136.213L40.8449 21.5556ZM115.702 133.031L46.2027 17.6626C46.2321 17.5596 46.3026 17.4737 46.3971 17.4234C78.0021 1.04874 117.154 12.1314 135.533 42.6562C153.869 73.1106 145.4 112.86 116.254 133.149C116.067 133.278 115.816 133.221 115.701 133.032L115.702 133.031ZM47.1218 17.9228L116.149 132.277C144.691 112.148 152.925 73.044 134.869 43.0557C116.773 13.0001 78.2994 2.00958 47.1218 17.9228Z" fill="black"/>
</svg>
