<svg width="155" height="156" viewBox="0 0 155 156" fill="none" xmlns="http://www.w3.org/2000/svg">
<path d="M46.9161 69.1923C45.0324 72.4501 52.3201 76.6576 56.3577 72.6123C60.7273 68.2118 48.931 65.7182 46.9161 69.1923Z" fill="#3D9CFB"/>
<path d="M9.70565 96.6453C10.3387 93.2948 10.3927 92.7853 7.31243 94.7153C2.46422 92.7312 6.74886 95.6957 3.96191 98.8455C6.43234 99.3396 6.58674 99.2084 7.96863 101.494C10.1303 98.1816 8.77924 99.8955 12.122 98.4055C12.3459 97.7416 9.90637 97.1857 9.70565 96.6453Z" fill="#3D9CFB"/>
<path d="M131.814 96.8999C133.219 93.0399 133.62 90.9863 127.491 93.4799C124.85 91.4264 123.476 90.6389 123.314 95.3096C119.454 97.6256 119.917 98.5366 123.731 99.4784C124.441 105.909 126.966 104.674 128.741 100.829C133.597 101.987 135.203 101.872 131.814 96.8999Z" fill="#3D9CFB"/>
<path d="M86.1267 63.317C86.1267 59.0478 78.4066 62.6145 79.0705 65.5558C79.8425 69.0762 86.1267 67.4318 86.1267 63.317Z" fill="#3D9CFB"/>
<path d="M34.7345 129.085C34.1864 124.229 33.3989 125.225 30.6969 128.096C26.4277 127.788 26.9681 128.591 29.0603 131.439C29.0603 132.559 27.5162 134.049 28.2882 134.751C31.9398 134.149 31.3145 134.203 34.4643 136.411C36.2399 132.173 33.2214 134.218 38.1699 131.007C38.1391 130.065 35.1591 129.779 34.7345 129.085Z" fill="#3D9CFB"/>
<path d="M29.809 30.43C22.2048 34.4059 16.9242 43.338 20.3519 59.7663C22.3283 69.2311 8.20827 84.5941 26.528 88.2688C25.5784 83.6985 25.4626 73.9249 36.07 72.3732C38.1544 73.9172 38.9728 77.1751 41.5204 76.9512C28.2882 49.9309 62.8201 49.4755 68.1238 34.3518C75.535 49.02 98.4868 34.128 88.3195 67.8261C122.079 25.8752 60.3188 -16.4154 29.809 30.43ZM54.6831 35.1084C54.4206 36.8454 52.3671 37.6097 49.4489 38.4203C46.523 44.5964 43.543 44.5269 41.7751 38.5979C35.0896 39.5629 34.1323 35.5098 39.6444 31.2484C38.139 26.7012 40.8024 25.1186 45.0871 27.0872C49.1941 24.2849 51.9734 25.8289 50.9466 30.4378C53.803 32.3137 54.9147 33.6879 54.6831 35.1084Z" fill="#3D9CFB"/>
<path d="M124.742 131.208C119.338 131.98 122.426 131.748 118.319 129.764C117.686 130.019 117.887 132.968 117.493 133.331C113.378 134.62 114.814 135.477 117.609 136.767C117.547 141.653 119.315 140.426 121.044 137.253C121.855 137.006 124.704 138.504 125.19 137.716C123.623 132.497 123.052 137.075 124.742 131.208Z" fill="#3D9CFB"/>
<path d="M90.9671 137.809C90.6274 136.975 91.8163 134.018 90.4808 133.755C83.7257 138.92 80.9542 130.714 82.8147 139.661C79.4796 144.031 79.6649 143.938 84.9146 144.07C85.7869 144.71 86.7442 148.169 88.1956 147.821C90.7896 139.7 88.8441 144.309 94.9893 140.788C94.9661 139.6 91.4612 138.99 90.9671 137.809Z" fill="#3D9CFB"/>
<path d="M49.1168 31.9586C47.9279 31.1866 49.1863 28.9632 48.8157 27.9056C48.5455 27.9056 47.7503 28.114 45.7277 29.3106C45.5771 29.4022 45.407 29.4569 45.2313 29.4703C45.0555 29.4838 44.8791 29.4555 44.7164 29.3878C42.1224 28.307 41.5357 28.5309 41.4739 28.5309C41.4122 28.5309 41.3272 29.0636 42.022 31.3179C42.0887 31.5357 42.0882 31.7685 42.0208 31.986C41.9533 32.2035 41.8219 32.3957 41.6438 32.5376C38.2933 35.2088 38.3164 36.251 38.3164 36.251C44.037 37.1619 42.2305 33.935 45.2027 40.7363C45.7817 40.8213 46.5923 37.9648 48.3679 36.3591C49.3098 36.1043 52.1739 35.3323 52.4441 34.7456C52.4364 34.7533 52.2975 34.0276 49.1168 31.9586Z" fill="#3D9CFB"/>
<path d="M64.8579 137.477C64.5166 137.277 64.189 137.056 63.8774 136.813C63.9546 135.06 65.8692 131.609 63.7307 130.691C62.04 129.849 59.6082 132.32 57.9021 133.238C52.2124 128.784 50.5448 129.857 51.9808 136.813C47.4722 140.819 49.1707 142.819 54.7446 142.873C55.5629 144.347 55.8871 146.941 58.0179 146.98C58.1967 146.981 58.3731 146.939 58.5327 146.858C58.6924 146.778 58.8307 146.661 58.9366 146.517C59.863 145.235 60.4343 144.371 60.8434 143.73C61.9397 142.055 61.1908 143.05 66.2475 141.615C66.439 141.555 66.6114 141.446 66.747 141.298C66.8826 141.15 66.9767 140.969 67.0195 140.773C67.4132 139.067 65.8769 138.11 64.8579 137.477ZM62.0709 140.271C59.6236 140.495 59.2454 142.271 57.794 144.224C56.0338 139.53 55.9643 141.012 51.8341 140.287C52.4615 139.471 53.1731 138.723 53.9571 138.056C54.7291 137.407 53.9571 136.172 53.7255 133.099C58.7204 136.488 57.1609 136.326 62.426 132.983C61.5382 136.535 60.635 137.847 64.2866 139.8C63.283 140.047 62.5804 140.179 62.0709 140.271Z" fill="#001434"/>
<path d="M114.112 116.794C114.691 114.872 117.702 111.159 115.571 109.985C114.027 108.943 111.201 110.943 109.395 111.468C103.605 107.36 101.613 108.171 102.315 114.988C96.3555 119.041 99.1038 120.871 104.631 121.843C105.257 123.688 105.071 127.247 107.326 127.51C107.479 127.526 107.635 127.51 107.782 127.463C107.929 127.417 108.066 127.341 108.183 127.24C112.861 123.256 109.58 123.565 115.185 123.434C115.71 123.364 117.138 123.565 117.501 123.086C119.84 120.585 115.131 118.184 114.112 116.794ZM115.131 121.172C109.155 121.172 110.56 121.805 107.58 124.754C106.5 118.655 106.6 120.284 101.458 118.663C102.279 117.834 103.194 117.103 104.184 116.486C104.347 116.371 104.477 116.216 104.562 116.036C104.648 115.856 104.685 115.657 104.67 115.459C104.507 114.062 104.476 112.654 104.577 111.251C109.657 113.567 107.611 114.949 113.841 112.085C111.062 117.59 110.9 117.103 115.486 121.156L115.131 121.172Z" fill="#001434"/>
<path d="M18.7538 107.762C15.3261 104.674 13.62 106.411 14.1218 110.804C12.8789 111.576 10.5783 112.178 11.0724 113.992C11.5664 115.806 13.5891 115.474 14.9324 115.706C15.2566 116.895 15.1177 118.917 17.1017 119.041C17.2861 119.049 17.4696 119.011 17.6355 118.93C17.8014 118.849 17.9444 118.728 18.0513 118.578C19.2402 116.91 19.7266 116.1 21.0313 116.2C21.6257 116.069 23.023 116.316 23.5557 115.59C24.6056 113.93 22.8455 112.873 22.0889 111.861C23.6947 108.372 22.5444 106.426 18.7538 107.762ZM17.2098 115.837C17.0709 114.046 15.797 113.32 14.1218 113.351C17.0709 112.116 16.2911 111.282 16.3452 108.719C16.8161 108.897 17.8892 110.441 18.8465 110.07C19.368 109.89 19.8989 109.738 20.4368 109.615C20.2824 110.124 19.9968 110.873 19.7806 111.468C19.4795 112.402 20.2901 113.266 20.8769 113.899C19.0009 114.108 18.5377 114.139 17.2407 115.837H17.2098Z" fill="#001434"/>
<path d="M142.475 93.3102C141.229 88.9753 140.346 84.5441 139.835 80.0626C134.794 74.6045 140.383 94.0976 140.321 93.8969C143.155 104.435 143.749 106.635 119.477 114.471C119.212 114.579 118.998 114.783 118.877 115.043C118.757 115.302 118.738 115.598 118.826 115.87C118.914 116.142 119.102 116.371 119.351 116.511C119.601 116.651 119.894 116.692 120.172 116.625C145.494 108.434 145.702 105.292 142.475 93.3102Z" fill="#001434"/>
<path d="M150.312 102.582C148.536 95.5024 145.826 82.0926 143.402 76.3335C138.708 70.1574 129.699 68.5208 122.998 70.8831C117.849 63.8656 109.465 58.9942 102.501 54.4625C117.718 14.9666 56.7213 -9.05053 30.805 22.8102C20.1744 34.0198 3.3138 31.9353 9.51301 60.0596C11.4662 73.091 4.10896 89.1333 26.2656 93.3948C27.7478 103.184 31.6079 110.858 37.7916 116.184C52.1587 128.961 78.654 124.607 83.5331 109.059C86.0498 107.824 87.5475 106.094 87.9953 103.886C93.0982 105.091 98.5872 105.654 98.5795 101.262C98.0082 98.3357 92.2027 95.9116 87.8795 94.6223C88.6515 87.5276 75.0873 82.579 70.6946 88.9172C64.6961 87.3114 60.9364 89.5811 64.0708 94.7072C59.9096 96.0891 57.2462 92.893 55.8952 88.454C55.8075 88.1678 55.6117 87.927 55.3493 87.7829C55.087 87.6387 54.7788 87.6025 54.4902 87.682C52.8149 88.315 54.2508 90.4072 54.5982 91.4725C44.979 89.1565 34.526 97.7953 33.4607 107.623C31.6967 104.663 30.3681 101.465 29.5157 98.1272C28.4469 94.352 27.8149 90.4665 27.632 86.5471C27.5239 80.5718 29.948 74.195 36.3866 73.4925C50.5066 89.7046 74.2149 81.2975 90.5969 68.2428C99.089 75.8394 103.598 83.2043 104.022 90.137C104.04 90.4244 104.166 90.6944 104.375 90.8922C104.585 91.0901 104.861 91.2009 105.149 91.2023C108.06 89.8899 104.686 83.5363 103.69 80.8497C105.404 77.036 110.638 68.4976 117.308 67.8646C118.593 69.0542 119.781 70.345 120.86 71.7246C115.193 74.5887 111.927 79.9619 112.244 85.8523C108.971 88.9404 108.901 92.5147 108.832 97.1777C109.565 98.5904 106.678 109.167 109.063 108.874C109.326 108.873 109.581 108.781 109.784 108.614C109.987 108.446 110.125 108.213 110.175 107.955C113.039 97.2472 106.469 88.7319 120.057 84.0227C126.078 88.3382 137.249 86.3001 134.586 77.5919C136.307 76.9356 140.554 75.353 141.31 77.1827C143.155 81.6294 145.479 91.8045 146.869 97.8879C152.697 111.105 139.148 112.981 121.439 119.203C121.287 119.208 121.137 119.242 120.998 119.304C120.859 119.367 120.734 119.456 120.63 119.567C120.526 119.678 120.444 119.808 120.39 119.95C120.336 120.092 120.311 120.244 120.315 120.396C120.32 120.548 120.354 120.698 120.417 120.836C120.479 120.975 120.568 121.1 120.679 121.204C120.79 121.309 120.92 121.39 121.062 121.444C121.205 121.498 121.356 121.524 121.508 121.519C137.141 116.763 153.16 111.645 150.312 102.582ZM90.2495 97.8184C94.7735 99.6558 96.4796 101.022 96.2712 101.871C95.4992 102.535 92.7199 102.821 88.6283 101.717C89.8481 100.713 90.7436 99.3238 90.2495 97.8184ZM85.6175 93.8426C81.4795 92.2986 76.6313 90.5153 73.1805 89.558C77.0328 86.3078 85.3782 89.7973 85.6406 93.8426H85.6175ZM65.2828 91.0634C66.8268 89.2337 78.7698 93.7345 83.2165 95.3712C77.7353 96.3979 72.2 98.5441 66.5335 94.3984C65.1439 92.2677 65.1053 91.2795 65.2828 91.0634ZM56.729 94.7381C57.7953 95.9877 59.2537 96.839 60.8661 97.153C62.4785 97.4671 64.1497 97.2254 65.6071 96.4674C74.0991 102.883 84.3823 94.8771 87.9953 98.2508C88.6206 100.459 82.3905 102.474 80.9391 102.767C80.6609 102.812 80.4095 102.96 80.234 103.181C80.0585 103.401 79.9714 103.679 79.9897 103.961C80.008 104.242 80.1304 104.507 80.333 104.703C80.5356 104.899 80.804 105.012 81.0858 105.021C82.7129 104.74 84.2895 104.22 85.7642 103.477C85.2392 105.793 82.9155 107.376 78.7157 108.279C78.4475 108.343 78.2115 108.502 78.0519 108.726C77.8922 108.951 77.8198 109.226 77.8482 109.5C77.8766 109.774 78.0038 110.029 78.206 110.216C78.4083 110.403 78.6718 110.511 78.9473 110.518C79.5855 110.419 80.2153 110.272 80.831 110.078C73.9911 123.65 48.8082 126.676 35.4988 110.533C34.9352 99.9492 47.2873 89.5194 56.729 94.7304V94.7381ZM28.3114 75.7853C25.3314 79.9773 24.9068 86.2615 25.7715 91.0171C6.38638 87.0798 13.9521 71.6011 11.6824 59.4806C7.05031 42.0949 15.3031 34.6605 23.0077 31.4799C33.9702 26.0758 34.5878 18.4252 48.4145 13.1292C79.0631 -2.03298 122.666 36.4284 93.0519 63.3097C102.47 34.6837 81.1939 46.0245 68.7337 31.8659C59.956 46.7424 23.9032 46.4105 35.2286 71.3617C33.8399 71.6037 32.5132 72.1193 31.3257 72.8788C30.1381 73.6382 29.1135 74.6262 28.3114 75.7853ZM89.6551 66.0658C40.5323 106.256 11.6052 47.4836 60.4887 47.1593C60.7759 47.1521 61.0497 47.0361 61.2548 46.8349C61.4599 46.6337 61.581 46.3622 61.5937 46.0751C61.6065 45.7881 61.5098 45.5069 61.3234 45.2883C61.1369 45.0697 60.8745 44.93 60.589 44.8973C60.4269 44.8973 58.273 44.797 55.2776 44.9745C60.8438 42.3806 66.2015 39.5165 68.9885 35.1083C71.4357 38.096 74.5701 39.694 77.7739 40.798C75.9265 41.2657 74.1195 41.8801 72.3698 42.6354C72.0904 42.7603 71.8719 42.9911 71.7626 43.277C71.6533 43.5629 71.6621 43.8806 71.787 44.1601C71.9119 44.4396 72.1427 44.658 72.4286 44.7673C72.7146 44.8766 73.0322 44.8678 73.3117 44.7429C77.2566 42.3652 88.5048 40.7903 92.1873 47.4913C93.9474 50.919 93.1291 56.987 89.6551 66.0658ZM102.316 78.4179C99.5775 74.0984 96.2283 70.198 92.3725 66.8378C96.0161 63.9841 99.0862 60.4661 101.42 56.4697C105.952 59.4034 110.685 62.2675 115.139 65.9731C109.303 67.5866 104.702 73.8553 102.347 78.4102L102.316 78.4179ZM131.181 82.9573C126.673 87.0258 118.829 78.8425 118.304 82.2702C116.968 82.7991 115.677 83.4368 114.444 84.1771C116.606 66.7065 138.369 74.6891 131.212 82.9496L131.181 82.9573ZM133.459 75.6232C132.063 73.9695 130.218 72.755 128.147 72.126C131.439 71.9401 134.716 72.701 137.589 74.3185C136.18 74.6439 134.799 75.0801 133.459 75.6232Z" fill="#001434"/>
<path d="M81.3943 45.6466C72.1302 45.7392 68.2702 60.1294 79.8503 60.5849C90.3573 60.9941 92.9976 45.5153 81.3943 45.6466ZM75.9053 56.8793C70.3392 49.9312 86.3506 43.4155 86.7134 52.1469C83.1777 52.641 78.8467 54.7177 75.9053 56.8793Z" fill="#001434"/>
<path d="M114.359 107.584C116.837 106.511 115.308 101.709 115.803 98.5442C115.324 95.4561 117.1 91.0325 115.162 90.3146C112.074 90.3146 114.266 103.763 113.24 106.295C113.216 106.455 113.228 106.619 113.273 106.775C113.319 106.93 113.398 107.074 113.504 107.196C113.61 107.319 113.741 107.417 113.889 107.484C114.037 107.551 114.197 107.585 114.359 107.584Z" fill="#001434"/>
<path d="M69.0032 64.8152C66.9882 66.1507 63.8616 65.8265 62.6882 64.1667C62.5162 63.922 62.254 63.7557 61.9594 63.7043C61.6648 63.6529 61.3618 63.7206 61.1171 63.8926C60.8725 64.0646 60.7061 64.3268 60.6547 64.6214C60.6033 64.916 60.6711 65.219 60.8431 65.4637C64.9501 71.2769 74.9862 64.9078 69.0032 64.8152Z" fill="#001434"/>
<path d="M63.8848 57.7978C65.56 58.2455 65.3439 54.8718 66.7721 55.3042C68.9491 55.5126 67.3742 59.3418 69.3043 59.6429C72.6934 58.6315 68.8642 52.633 67.1272 53.0653C65.6449 52.2084 61.2136 56.0993 63.8848 57.7978Z" fill="#001434"/>
<path d="M52.4904 50.0621C41.8058 50.2474 39.8063 66.336 51.9654 65.5022C62.1868 64.8152 64.086 49.6298 52.4904 50.0621ZM46.9783 61.8892C40.864 54.4625 57.7864 47.4373 58.1724 56.8017C54.4436 57.3576 49.8501 59.6273 46.9783 61.8892Z" fill="#001434"/>
</svg>
