<svg width="154" height="154" viewBox="0 0 154 154" fill="none" xmlns="http://www.w3.org/2000/svg">
<path d="M136.087 31.0824C136.72 28.3796 131.863 24.9308 125.24 23.3796C118.616 21.8285 112.733 22.7624 112.1 25.466C111.467 28.1695 116.324 31.6191 122.948 33.1695C129.571 34.7206 135.454 33.7867 136.087 31.0832V31.0824Z" fill="white"/>
<path d="M125.306 23.093C118.421 21.4829 112.495 22.4942 111.812 25.3994C110.809 29.6779 121.013 34.217 129.079 34.217C133.031 34.217 135.907 33.1175 136.369 31.15C137.053 28.244 132.192 24.7063 125.306 23.0938V23.093ZM135.801 31.0166C135.216 33.5147 129.36 34.3696 123.014 32.8844C116.667 31.3992 111.801 28.0324 112.385 25.5336C112.775 23.869 115.504 22.9335 119.157 22.9335C127.409 22.932 136.61 27.5639 135.801 31.0166Z" fill="#FFE55D"/>
<path d="M92.1863 17.7447C92.8296 14.9959 87.799 11.4681 80.9504 9.86405C74.101 8.26078 68.0276 9.18855 67.3836 11.9366C66.7402 14.6854 71.7709 18.2132 78.6195 19.8172C85.4689 21.4213 91.5423 20.4927 92.1863 17.7447Z" fill="white"/>
<path d="M89.5435 13.1345C82.5952 8.26109 68.2401 6.97755 67.0954 11.8694C65.9583 16.7222 79.3358 21.9905 87.7715 20.7024C93.3389 19.8536 94.1547 16.3672 89.5435 13.1345ZM91.8974 17.6775C90.9451 21.749 77.3598 20.9746 70.3571 16.0674C68.3689 14.6719 67.3883 13.192 67.6658 12.0036C68.6243 7.91222 82.2563 8.73954 89.2069 13.6138C91.1981 15.0092 92.1788 16.4914 91.9005 17.6775H91.8974Z" fill="#FFE55D"/>
<path d="M122.538 15.2378C123.36 11.7238 117.015 7.23218 108.363 5.20642C99.7115 3.18067 92.031 4.38754 91.2075 7.90155C90.3848 11.4163 96.7312 15.9079 105.382 17.9337C114.034 19.9594 121.715 18.7526 122.538 15.2378Z" fill="white"/>
<path d="M119.173 9.42438C110.355 3.18611 92.3415 1.77836 90.923 7.83491C89.5298 13.7833 105.957 20.6787 116.942 18.9528C123.908 17.8586 124.929 13.5012 119.173 9.42438ZM116.851 18.3739C106.186 20.0515 90.2444 13.3133 91.4934 7.96909C92.7325 2.68236 109.977 3.63542 118.834 9.9036C124.144 13.6607 123.277 17.3641 116.851 18.3739Z" fill="#FFE55D"/>
<path d="M124.699 33.1652C124.25 31.6218 124.104 30.0062 124.27 28.4075C124.27 28.0724 124.019 27.653 123.683 27.7374C122.904 27.9321 122.901 30.1557 120.463 31.6991C118.928 31.3433 117.426 30.8588 115.973 30.2508C113.884 29.3521 111.913 28.1983 110.107 26.8157C108.935 25.8956 107.424 24.8045 106.84 23.4643C106.484 22.501 106.315 21.4784 106.343 20.4517C106.704 20.4747 107.066 20.4747 107.426 20.4517C107.777 20.4248 108.111 20.2893 108.381 20.0639C108.652 19.8386 108.845 19.5346 108.935 19.1942C109.111 18.4904 108.48 17.5158 107.894 17.0075C107.313 15.3045 107.426 13.311 107.426 11.4869C107.406 11.4304 107.375 11.3787 107.334 11.3349C107.293 11.2912 107.243 11.2562 107.188 11.2323C107.133 11.2088 107.074 11.197 107.014 11.1977C106.954 11.1983 106.895 11.2114 106.84 11.2361C106.756 11.2361 106.756 11.319 106.672 11.319C105.918 12.8858 104.993 14.364 103.912 15.7262C102.04 15.9356 100.796 17.7965 102.786 19.2333C102.688 19.4174 102.586 19.5998 102.484 19.7823C101.479 21.542 97.7919 21.6225 95.9486 21.7099C93.8531 21.7943 91.7568 21.7943 89.6613 21.7099C86.371 21.629 83.1304 20.8888 80.1314 19.5331C80.116 19.4488 80.1084 19.3645 80.1084 19.2793C79.8433 17.7519 79.8719 16.1879 80.1927 14.6712C80.1927 14.2525 79.5226 14.1682 79.3546 14.4197C79.0426 14.7318 78.5695 17.2613 76.8244 18.6023C76.5424 18.6143 76.2643 18.6731 76.0016 18.7764C75.8192 18.8409 75.6513 18.9407 75.5075 19.0702C75.3637 19.1996 75.2468 19.3562 75.1636 19.5308C75.0903 19.7966 75.0907 20.0774 75.1645 20.343C75.2384 20.6086 75.383 20.8492 75.583 21.039C76.5261 22.0243 78.8501 23.3017 80.1912 22.5472C80.3058 22.4425 80.4546 22.3831 80.6098 22.3801C82.1885 22.0159 84.4673 23.8729 87.565 25.7315C88.9888 26.5696 90.3468 27.6308 91.7545 28.4964C95.0776 30.5414 96.3098 32.9727 100.72 33.524C104.834 33.524 108.042 31.588 116.473 33.2725C117.06 33.4404 118.986 33.524 119.238 34.2785C119.254 34.51 119.311 34.737 119.406 34.9486C119.583 35.207 119.853 35.3872 120.159 35.4516C121.313 35.9765 122.587 36.1791 123.847 36.0382C124.199 35.9857 124.531 35.8421 124.81 35.6216C125.089 35.4012 125.306 35.1115 125.439 34.7815C125.485 34.4694 125.44 34.1505 125.308 33.8635C125.177 33.5766 124.965 33.334 124.699 33.1652Z" fill="#FFE55D"/>
<path d="M125.129 33.1175C124.573 31.6135 124.38 30 124.563 28.4073C124.563 27.8706 124.139 27.3201 123.613 27.4527C122.611 27.7027 122.739 29.8381 120.412 31.3823C118.936 31.0367 117.491 30.5684 116.092 29.9822C113.902 29.0399 111.844 27.8141 109.972 26.3363C108.867 25.4753 107.615 24.5007 107.117 23.3637C106.81 22.5279 106.647 21.6461 106.633 20.7567C106.91 20.7644 107.187 20.7575 107.464 20.7368C107.875 20.7069 108.266 20.5481 108.582 20.2829C108.897 20.0178 109.121 19.6598 109.221 19.26C109.265 18.9444 109.243 18.6231 109.156 18.3166C109.069 18.01 108.919 17.725 108.716 17.4796C107.805 15.7606 107.719 13.6597 107.719 11.4798C107.702 11.3778 107.662 11.281 107.603 11.1962C107.544 11.1114 107.467 11.0409 107.377 10.9899C107.287 10.9384 107.187 10.9076 107.085 10.8995C106.982 10.8914 106.878 10.9063 106.782 10.9431C106.706 10.9538 106.635 10.9869 106.579 11.0382C106.51 11.0606 106.452 11.1083 106.416 11.1716C105.598 12.7914 104.529 14.2716 103.249 15.5574L103.221 15.5643C101.489 16.1838 100.754 17.9412 102.407 19.3091L102.227 19.6342C101.315 21.2298 97.7625 21.3364 95.9346 21.413C93.8468 21.4985 91.7565 21.4985 89.6687 21.413C86.4741 21.3328 83.3266 20.6244 80.4056 19.3283C80.1442 17.7823 80.1725 16.2012 80.4892 14.6657C80.4892 13.9434 79.4158 13.787 79.1505 14.2056C78.7057 14.6503 78.4029 16.9513 76.7275 18.3039C76.4556 18.3238 76.1882 18.3851 75.9347 18.4856C75.7052 18.5638 75.4942 18.688 75.3144 18.8507C75.1347 19.0134 74.9902 19.2112 74.8896 19.4318C74.8008 19.7472 74.7985 20.0808 74.8831 20.3975C74.9677 20.7142 75.136 21.0022 75.3704 21.2313C76.3127 22.2143 78.8077 23.6566 80.3389 22.797C81.7191 21.9942 84.3061 24.1097 87.4206 25.9775C88.6996 26.7304 89.8535 27.6643 91.6002 28.7378C94.8696 30.749 96.1807 33.2493 100.724 33.8121C104.191 33.8121 106.307 32.57 112.521 32.9733C114.043 33.1159 115.555 33.3498 117.049 33.6741C117.654 33.7723 118.765 33.9517 118.951 34.332C118.972 34.5751 119.033 34.8127 119.132 35.0359C119.228 35.2078 119.36 35.3573 119.519 35.4744C119.678 35.5915 119.859 35.6736 120.052 35.7152C121.253 36.2617 122.579 36.4719 123.89 36.3232C124.304 36.2601 124.694 36.087 125.019 35.822C125.343 35.557 125.59 35.2098 125.735 34.8166C125.777 34.5055 125.743 34.189 125.638 33.8934C125.532 33.5979 125.358 33.3318 125.129 33.1175ZM123.332 28.5936C123.452 28.3468 123.589 28.0661 123.82 28.0454C123.912 28.1336 123.968 28.254 123.978 28.3813C123.823 29.8063 123.946 31.2479 124.34 32.626C123.304 32.1968 122.236 31.8466 121.146 31.5786C122.118 30.7858 122.871 29.757 123.332 28.5906V28.5936ZM106.934 11.5074C106.992 11.4875 107.088 11.4698 107.134 11.5411C107.067 13.1973 107.245 14.855 107.663 16.4598C106.643 15.7934 105.456 15.4282 104.238 15.4063C105.249 14.1874 106.151 12.8828 106.934 11.5074ZM102.132 17.2511C102.322 16.8457 102.632 16.508 103.019 16.2831C103.406 16.0581 103.853 15.9566 104.299 15.9921C105.751 15.9921 107.889 16.8171 108.506 18.3154C108.653 18.5584 108.703 18.8475 108.65 19.1258C108.572 19.4046 108.41 19.6528 108.186 19.8366C107.962 20.0205 107.688 20.1313 107.399 20.154C106.204 20.2615 105.002 20.0356 103.928 19.5015C102.915 19.122 101.784 18.274 102.132 17.2519V17.2511ZM79.451 14.8121C79.4786 14.7761 79.5216 14.6917 79.5929 14.5867C79.6333 14.5708 79.6766 14.5637 79.7199 14.5658C79.7633 14.5679 79.8057 14.5792 79.8444 14.5989C79.8865 14.6189 79.8973 14.6365 79.9034 14.6281C79.5961 16.0863 79.5559 17.5881 79.7846 19.0607C79.0693 18.7361 78.3191 18.4948 77.5487 18.3414C78.435 17.3195 79.0846 16.1143 79.451 14.8121ZM125.168 34.6709C125.054 34.9511 124.869 35.1969 124.632 35.3843C124.394 35.5718 124.112 35.6945 123.813 35.7405C122.59 35.8753 121.353 35.6744 120.235 35.1593C120.011 35.1145 119.812 34.9893 119.674 34.8074C119.59 34.6073 119.538 34.395 119.521 34.1786C119.201 33.2194 117.21 33.1658 116.535 32.9779C108.088 31.2911 104.69 33.2179 100.761 33.2256C98.7771 32.9756 96.909 32.1549 95.3833 30.8632C92.4075 28.346 92.3738 28.6397 89.8305 26.8662C87.8216 25.4661 88.2311 25.8525 84.106 23.2049C83.1092 22.6521 81.7221 21.8164 80.6142 22.0793C80.3975 22.0823 80.1885 22.1603 80.023 22.3002C78.82 22.9366 76.6348 21.7021 75.7944 20.8249C75.6373 20.6783 75.5212 20.4933 75.4573 20.2882C75.3934 20.083 75.3841 19.8648 75.4302 19.6549C75.5683 19.3679 75.8145 19.1473 76.1149 19.0415C78.5516 18.067 81.4055 21.7887 89.6519 21.995C91.7451 22.0786 93.869 22.0824 95.9614 21.995C98.1083 21.9045 101.67 21.791 102.74 19.9171C102.79 19.8274 102.841 19.7377 102.89 19.6465C103.144 19.8023 103.413 19.933 103.693 20.0367C104.429 20.4078 105.227 20.6394 106.046 20.7191C106.056 21.696 106.234 22.6628 106.572 23.5791C107.186 24.983 108.699 26.0894 109.93 27.0448C116.674 32.2832 121.976 31.7043 124.673 33.4939C124.844 33.636 124.979 33.8173 125.065 34.0225C125.152 34.2276 125.187 34.4506 125.168 34.6724V34.6709Z" fill="#4B1010"/>
<path d="M88.8252 23.6315C87.2304 22.884 86.755 25.0615 86.479 26.1449C86.0128 27.9982 84.3996 29.672 83.6297 31.5084C82.8592 33.2723 82.5703 35.209 82.7925 37.121C82.7081 36.7031 83.379 35.7815 83.5462 35.4464C84.4547 33.4974 85.4614 31.5957 86.5626 29.7487C87.3201 28.5755 91.1669 24.7295 88.8252 23.6315Z" fill="white"/>
<path d="M89.8244 24.3707C89.7239 24.0432 89.5244 23.755 89.2534 23.5456C88.9824 23.3362 88.6531 23.2159 88.3109 23.2014C88.0835 23.1919 87.8567 23.2295 87.6446 23.3118C86.7298 23.7542 86.4109 25.2133 86.1962 26.0721C85.4923 28.8684 81.9024 31.1257 82.4943 37.1064C82.4913 37.1475 82.4973 37.1889 82.5119 37.2275C82.5326 37.2863 82.5717 37.3369 82.6233 37.3719C82.6749 37.4068 82.7364 37.4242 82.7987 37.4215C82.861 37.4199 82.9212 37.3985 82.9705 37.3605C83.0199 37.3225 83.0558 37.2697 83.0732 37.2099C83.0853 37.1704 83.0887 37.1288 83.0832 37.088C83.0272 36.687 83.7733 35.9033 84.7271 33.6606C85.4747 32.2452 86.121 30.9823 86.8096 29.9104C87.4628 28.8937 90.2339 26.1158 89.8244 24.3707ZM87.0503 28.6246C85.0967 31.0667 83.9987 34.1237 83.0042 35.7899C83.0318 31.6586 85.2354 29.6037 86.3089 27.3947C86.5124 27.2607 86.7607 27.213 86.9994 27.2621C87.2381 27.3111 87.4475 27.4528 87.5817 27.6562C87.6124 27.7183 87.64 27.7827 87.663 27.8486C87.4467 28.13 87.2359 28.393 87.0503 28.6246ZM88.0594 27.3157C87.9034 27.0841 87.685 26.9014 87.4295 26.7886C87.174 26.6759 86.8918 26.6377 86.6156 26.6786C86.9146 25.8543 87.183 23.7695 88.2097 23.7695C88.4375 23.7727 88.6591 23.8446 88.8455 23.9758C89.0318 24.107 89.1742 24.2914 89.254 24.5048C89.4211 25.2172 88.7771 26.3205 88.0594 27.3157Z" fill="#4B1010"/>
<path d="M105.835 71.8961C103.977 70.8955 104.288 71.0258 90.417 60.0813C89.8865 59.7865 89.4777 59.3133 89.263 58.7456C89.0484 58.1779 89.0419 57.5526 89.2447 56.9805C91.0005 48.0149 92.764 38.8807 96.7021 30.6703C96.7703 30.3334 96.9523 30.0301 97.2175 29.8113C97.4827 29.5926 97.8151 29.4717 98.1589 29.4688C97.8323 28.9321 96.4575 29.2296 95.7766 29.2457C92.4719 29.3247 89.1971 29.8898 86.0573 30.9218C84.9103 31.1941 83.8463 31.7402 82.9566 32.5136C82.3021 33.187 81.7892 33.9848 81.4484 34.8598C80.4432 36.9546 79.6082 39.1329 78.7647 41.3113C76.2513 47.847 73.7372 54.3828 72.6476 61.2544C72.4383 62.0925 72.9275 62.4559 73.3569 62.8745C77.8967 67.2109 82.8196 71.1276 88.0654 74.5767C91.0672 76.5978 92.2825 77.1575 95.6072 76.2528C98.5392 75.4983 101.444 74.6043 104.321 73.5692C105.477 73.2741 106.597 72.8529 107.661 72.3132C107.027 72.3291 106.399 72.1857 105.835 71.8961Z" fill="white"/>
<path d="M99.4666 30.0837C98.88 29.6635 98.1225 29.2403 97.539 29.5807C97.1287 29.821 96.8283 30.2119 96.7017 30.6703C92.7637 38.8806 91.0002 48.0149 89.2443 56.9805C89.0418 57.5525 89.0485 58.1778 89.2631 58.7454C89.4777 59.313 89.8864 59.7862 90.4167 60.0812C104.265 71.0074 104.089 70.989 105.834 71.8961C107.682 72.8545 108.651 71.7948 109.186 69.8005C111.036 63.039 112.381 56.1491 113.208 49.188C113.475 46.8433 114.109 43.8361 113.04 41.647C112.186 39.895 110.17 38.6567 108.767 37.4575C105.788 34.9127 102.737 32.4254 99.4666 30.0837Z" fill="#FFE55D"/>
<path d="M113.306 41.5207C112.391 39.6 110.077 38.1899 108.962 37.2376C106.117 34.8109 103.116 32.3358 99.6379 29.8454C99.2499 29.5425 98.8039 29.3222 98.3275 29.1983C97.9257 28.7382 96.9474 28.8571 96.2811 28.9177C92.7833 28.9886 89.3145 29.5682 85.9836 30.6382C84.7879 30.9255 83.6793 31.4976 82.7525 32.3059C82.0732 33.0018 81.5405 33.827 81.1861 34.7327C80.1747 36.8382 79.3206 39.0587 78.4948 41.2063C76.0182 47.647 73.4565 54.3062 72.3677 61.1824C72.0986 62.2597 72.4444 62.3885 72.8507 62.7857C77.4851 67.2521 82.5232 71.2797 87.9005 74.8168C90.9169 76.8479 92.2326 77.4789 95.6861 76.5358C100.713 75.2439 103.66 74.0615 105.372 73.5555C107.993 72.7826 108.833 72.2428 109.467 69.882C111.308 63.1006 112.655 56.1949 113.498 49.2189C113.764 46.763 114.432 43.7726 113.306 41.5207ZM72.9428 61.3028C74.0277 54.4619 76.5771 47.8318 79.0438 41.4203C79.8657 39.2833 80.7161 37.0743 81.7236 34.9719C82.0455 34.1425 82.5287 33.3852 83.1451 32.7437C83.9969 31.9968 85.019 31.4703 86.1216 31.2102C89.2432 30.1848 92.4981 29.6222 95.7827 29.5403C96.2021 29.5303 96.7028 29.4528 97.2111 29.4505C96.8413 29.7215 96.5704 30.106 96.4398 30.5455C92.5401 38.6768 90.7114 47.7567 89.0322 56.5543C88.8667 57.0592 88.7944 57.59 88.8191 58.1208C83.8091 59.6022 78.6412 61.5091 73.5784 62.1355C73.4128 62.1439 73.2472 62.1355 73.0838 62.1102C72.8553 61.94 72.8845 61.5367 72.9428 61.2998V61.3028ZM105.207 72.9935C103.437 73.5148 101.125 74.4878 95.5396 75.9684C92.3139 76.8234 91.2566 76.3679 88.2294 74.3299C83.0212 70.905 78.1318 67.0183 73.6206 62.7167C78.7762 62.0803 83.9333 60.1765 88.9325 58.6974C89.1371 59.3856 89.6045 59.9655 90.2337 60.3114C102.203 69.757 104.933 72.1792 106.661 72.5027C106.186 72.6929 105.7 72.857 105.207 72.9935ZM113.069 47.9208C112.236 55.2845 110.842 62.5741 108.902 69.7263C108.273 72.068 107.28 72.2888 105.974 71.634C104.183 70.671 104.524 70.8358 90.5557 59.8199C90.0813 59.5536 89.7176 59.1267 89.5299 58.616C89.3423 58.1053 89.3431 57.5445 89.5321 57.0343C91.2757 48.1255 93.0592 38.9391 96.9796 30.7601C97.0864 30.3716 97.3391 30.0392 97.685 29.8324C98.1496 29.5663 98.8581 30.0064 99.2951 30.3193C104.497 34.0541 107.688 37.0115 109.533 38.4307C113.193 41.2508 113.796 42.3603 113.069 47.9238V47.9208Z" fill="#4B1010"/>
<path d="M95.1065 60.8221C93.8817 59.9532 92.6768 59.0567 91.4928 58.1331C91.4467 58.0975 91.4124 58.049 91.3942 57.9937C91.3759 57.9385 91.3745 57.8791 91.3903 57.8231C91.406 57.7671 91.4381 57.717 91.4825 57.6794C91.5268 57.6417 91.5814 57.6182 91.6392 57.6117C91.7166 57.6027 91.7943 57.6248 91.8554 57.6731C93.0325 58.591 94.2302 59.4822 95.4477 60.346C95.4941 60.38 95.5294 60.427 95.5493 60.481C95.5693 60.535 95.5729 60.5937 95.5597 60.6497C95.5466 60.7058 95.5172 60.7567 95.4753 60.7962C95.4335 60.8357 95.3809 60.8621 95.3242 60.8719C95.2479 60.8848 95.1696 60.8669 95.1065 60.8221Z" fill="#4B1010"/>
<path d="M94.69 58.6147C94.5619 58.6147 94.7306 58.7036 92.1797 56.9723C92.1192 56.9271 92.0783 56.8604 92.0654 56.786C92.0563 56.7304 92.0633 56.6733 92.0856 56.6216C92.108 56.5698 92.1447 56.5256 92.1915 56.4941C92.2382 56.4626 92.293 56.4452 92.3494 56.4439C92.4057 56.4427 92.4613 56.4576 92.5094 56.487L94.8549 58.0787C94.9064 58.1143 94.9454 58.1653 94.9661 58.2244C94.9867 58.2836 94.9881 58.3477 94.9699 58.4077C94.951 58.4673 94.9137 58.5194 94.8635 58.5565C94.8132 58.5937 94.7525 58.6141 94.69 58.6147Z" fill="#4B1010"/>
<path d="M79.8286 55.5996C78.2828 55.8358 76.7539 56.1709 75.2511 56.6033C75.1668 56.5975 75.0822 56.6095 75.0029 56.6387C74.9236 56.6679 74.8514 56.7136 74.7911 56.7728C74.6377 56.9261 74.7197 56.7574 73.6256 60.6725C73.6137 60.7161 73.612 60.7619 73.6207 60.8063C73.6294 60.8507 73.6481 60.8925 73.6756 60.9285C73.703 60.9645 73.7384 60.9936 73.7789 61.0137C73.8194 61.0338 73.8641 61.0443 73.9093 61.0443C73.986 61.0443 73.6624 61.1072 78.9162 59.9486C79.3294 59.8574 78.9928 59.4119 80.1368 55.9846C80.153 55.938 80.157 55.8882 80.1487 55.8396C80.1403 55.7911 80.1198 55.7455 80.089 55.707C80.0582 55.6686 80.0181 55.6386 79.9726 55.6198C79.9271 55.601 79.8775 55.5941 79.8286 55.5996ZM78.6018 59.4165L74.3195 60.3604L75.1936 57.1914C75.7043 57.1546 77.8274 56.473 79.4353 56.2399C79.1032 57.2836 78.8258 58.3439 78.6041 59.4165H78.6018Z" fill="#4B1010"/>
<path d="M110.779 44.1604C110.285 41.9798 108.164 43.7395 108.014 45.0805C107.919 45.9178 108.516 47.0917 109.522 46.7566C110.526 46.5573 111.008 45.1741 110.779 44.1604Z" fill="white"/>
<path d="M107.721 45.0528C107.951 43.2241 110.499 41.6484 111.064 44.0943C111.327 45.279 110.769 46.8079 109.578 47.0456C108.482 47.4182 107.605 46.2083 107.721 45.0528ZM109.846 43.4257C109.263 43.4257 108.401 44.3458 108.304 45.118C108.236 45.7996 108.687 46.7281 109.429 46.4797C109.852 46.3004 110.195 45.9711 110.391 45.5549C110.587 45.1387 110.623 44.6648 110.491 44.2239C110.37 43.6949 110.153 43.4257 109.846 43.4257Z" fill="#4B1010"/>
<path d="M112.873 31.5082C112.794 31.1199 112.565 30.7787 112.235 30.5589C111.905 30.3391 111.502 30.2587 111.113 30.335C110.867 30.3949 110.638 30.5091 110.443 30.6701C109.019 31.9268 110.945 33.1835 111.03 34.3566C111.024 35.9616 110.856 37.5618 110.527 39.1327C110.441 39.5514 109.437 44.0767 109.522 44.0767C109.772 44.2439 110.024 43.9088 110.192 43.7416C111.89 41.28 112.929 38.4238 113.208 35.4462C113.208 32.4635 113.115 32.7204 112.873 31.5082Z" fill="white"/>
<path d="M113.417 32.6544C113.411 32.6084 113.195 31.6216 113.161 31.4499C113.114 31.2167 113.021 30.9953 112.887 30.7985C112.754 30.6018 112.583 30.4336 112.383 30.3039C112.184 30.1741 111.961 30.0854 111.727 30.043C111.493 30.0006 111.253 30.0052 111.021 30.0567C110.737 30.1264 110.473 30.2614 110.249 30.45C109.138 31.4307 109.749 32.4436 110.239 33.2548C111.193 34.8335 110.453 38.0999 110.065 39.8849C109.175 43.9916 109.117 44.1718 109.367 44.3259C109.733 44.5628 110.042 44.3366 110.433 43.908C112.78 40.6522 113.842 36.645 113.417 32.6544ZM110.651 30.8771C110.867 30.7061 111.133 30.608 111.408 30.5957C111.686 30.5986 111.954 30.6964 112.168 30.8728C112.382 31.0493 112.53 31.2938 112.586 31.5656C112.803 32.3362 112.909 33.1344 112.902 33.9349C112.656 33.7633 112.368 33.6631 112.068 33.6457C111.769 33.6282 111.471 33.6941 111.206 33.836C110.788 32.7204 109.586 31.8171 110.651 30.8771ZM109.984 43.5338L109.874 43.6488C110.586 39.8442 111.301 38.0071 111.321 34.48C111.518 34.3097 111.773 34.2208 112.033 34.2313C112.293 34.2418 112.539 34.3511 112.721 34.5368C112.945 34.9148 112.916 34.5475 112.916 35.4208C112.643 38.3302 111.634 41.1222 109.984 43.5338Z" fill="#4B1010"/>
<path d="M99.0515 40.2224C99.2991 39.9537 99.4869 39.6354 99.6026 39.2888C99.7182 38.9421 99.7591 38.5749 99.7224 38.2113C99.4663 35.8658 97.1247 37.4575 96.7896 38.8814C96.5381 39.7194 97.0434 41.0705 98.1299 40.809C98.4972 40.7297 98.8241 40.5217 99.0515 40.2224Z" fill="white"/>
<path d="M97.8667 41.1316C96.781 41.1316 96.2044 39.7967 96.5042 38.7968C96.9443 36.9229 99.7291 35.5612 100.01 38.1834C100.178 39.7031 99.0122 41.1316 97.8667 41.1316ZM98.7868 37.3093C98.3783 37.4001 98.0023 37.6008 97.6996 37.8897C97.3969 38.1786 97.1789 38.5448 97.0692 38.9487C97.0043 39.183 96.9965 39.4296 97.0465 39.6676C97.0965 39.9056 97.2029 40.1281 97.3568 40.3165C97.7762 40.7635 98.4831 40.4699 98.8136 40.0459C99.0358 39.8047 99.2051 39.5198 99.3107 39.2093C99.4163 38.8989 99.456 38.5699 99.427 38.2432C99.3787 37.7955 99.2361 37.3093 98.7883 37.3093H98.7868Z" fill="#4B1010"/>
<path d="M103.405 26.4808C103.421 25.9309 103.306 25.3851 103.07 24.8883C102.65 23.8831 101.562 23.8831 100.807 24.5532C100.481 24.8747 100.265 25.2909 100.19 25.7424C100.115 26.194 100.184 26.6577 100.389 27.0674C100.585 27.2617 100.733 27.4995 100.82 27.7615C100.907 28.0235 100.932 28.3024 100.892 28.5756C100.906 30.4114 100.564 32.2325 99.8856 33.9382C99.23 35.5361 98.7125 37.2061 98.0454 38.7979C98.4641 38.8815 98.803 38.5495 99.135 38.1277C101.68 34.7537 103.166 30.7002 103.405 26.4808Z" fill="white"/>
<path d="M103.341 24.7723C102.854 23.603 101.547 23.5003 100.601 24.3422C100.232 24.7076 99.9876 25.18 99.9025 25.6921C99.8175 26.2043 99.8959 26.7302 100.127 27.1953C100.298 27.3793 100.434 27.594 100.529 27.8263C100.731 28.4328 100.617 31.3188 99.6161 33.8207C98.946 35.411 98.4384 37.0971 97.7759 38.6812C97.7594 38.7212 97.7518 38.7644 97.7537 38.8077C97.7555 38.851 97.7668 38.8934 97.7866 38.9319C97.807 38.9703 97.8357 39.0037 97.8706 39.0297C97.9054 39.0557 97.9456 39.0736 97.9883 39.0822C98.5726 39.1995 99.0065 38.7548 99.3684 38.3039C101.963 34.8889 103.473 30.7735 103.703 26.4906C103.717 25.8975 103.593 25.3092 103.341 24.7723ZM101.003 24.7723C101.617 24.2249 102.46 24.1896 102.808 25.0192C103.108 25.7269 103.195 26.5067 103.06 27.2635C102.75 27.0429 102.375 26.9335 101.995 26.9533C101.616 26.9731 101.254 27.1208 100.969 27.3724C100.879 27.1992 100.765 27.0391 100.632 26.8962C100.468 26.5471 100.415 26.1557 100.481 25.7755C100.548 25.3954 100.73 25.045 101.003 24.7723ZM102.119 31.7597C101.381 34.1673 100.167 36.4021 98.5488 38.3315C99.1085 36.9146 99.5693 35.4455 100.159 34.0469C100.913 32.109 101.259 30.0361 101.175 27.9582C101.466 27.6944 101.841 27.5421 102.233 27.528C102.416 27.5414 102.588 27.6186 102.72 27.7461C102.852 27.8737 102.934 28.0434 102.954 28.2258C102.78 29.4261 102.501 30.6087 102.119 31.7597Z" fill="#4B1010"/>
<path d="M86.4761 112.451C85.885 112.378 85.2882 112.528 84.8008 112.87L84.8844 113.959C85.4709 114.21 85.4709 115.215 86.0575 115.3C86.4018 115.337 86.7491 115.278 87.0627 115.132C88.1967 114.647 88.0027 112.887 86.4761 112.451Z" fill="white"/>
<path d="M86.3946 115.593H86.0595C85.2161 115.479 85.223 114.422 84.7706 114.229C84.2622 114.011 84.9239 112.925 85.7168 114.525C85.9966 115.087 86.0158 115.009 86.3946 115.006C86.5809 114.999 86.7641 114.953 86.9313 114.87C88.3114 114.275 86.9788 111.768 84.9623 113.114C84.8974 113.152 84.8203 113.165 84.7468 113.148C84.6732 113.132 84.6087 113.088 84.5666 113.025C84.5246 112.962 84.5084 112.886 84.5216 112.811C84.5347 112.737 84.5761 112.67 84.6372 112.626C85.1853 112.244 85.8546 112.079 86.5172 112.16C86.8646 112.242 87.185 112.412 87.4474 112.653C87.7098 112.895 87.9052 113.201 88.0147 113.54C88.0837 113.786 88.0936 114.044 88.0438 114.295C87.994 114.545 87.8857 114.78 87.7279 114.98C87.5699 115.18 87.3666 115.34 87.1349 115.447C86.9031 115.553 86.6494 115.603 86.3946 115.593Z" fill="#4B1010"/>
<path d="M84.3 112.953C82.699 112.553 81.3672 113.984 81.3672 115.637L83.5455 114.798C84.0352 114.887 84.5403 114.798 84.9701 114.547C85.9754 113.959 85.0537 113.121 84.3 112.953Z" fill="white"/>
<path d="M81.0742 115.632C81.0736 115.187 81.1625 114.746 81.3357 114.337C81.509 113.927 81.7629 113.556 82.0825 113.246C83.5393 111.995 85.5329 112.763 85.6962 113.817C85.838 114.727 84.4824 115.245 83.4979 115.083C83.4212 115.07 83.3528 115.028 83.3077 114.964C83.2625 114.901 83.2443 114.822 83.2572 114.746C83.27 114.669 83.3127 114.601 83.376 114.555C83.4392 114.51 83.5179 114.492 83.5945 114.505C84.0162 114.582 84.451 114.506 84.8213 114.291C85.0391 114.164 85.138 114.036 85.1181 113.908C85.079 113.655 84.6511 113.329 84.2386 113.237C82.8193 112.882 81.6623 114.169 81.6623 115.632C81.6625 115.671 81.655 115.709 81.6403 115.745C81.6256 115.781 81.6039 115.813 81.5765 115.841C81.5492 115.868 81.5166 115.89 81.4808 115.905C81.445 115.919 81.4066 115.927 81.3679 115.927C81.29 115.926 81.2154 115.895 81.1604 115.84C81.1054 115.785 81.0744 115.71 81.0742 115.632Z" fill="#4B1010"/>
<path d="M65.6973 112.786C64.3367 112.597 63.0425 112.08 61.9272 111.278C59.1566 109.441 56.5742 107.335 54.2176 104.99L47.5146 109.683C58.565 117.685 57.4226 116.94 58.6586 117.559C59.0931 117.736 59.5416 117.876 59.9996 117.978C68.0264 119.752 76.273 120.316 84.4666 119.654L84.8024 116.554L65.6973 112.786Z" fill="white"/>
<path d="M59.9369 118.267C57.9296 117.866 57.6658 117.386 47.3438 109.923C47.3127 109.9 47.2863 109.872 47.2661 109.839C47.2459 109.806 47.2324 109.77 47.2263 109.732C47.2203 109.694 47.2217 109.655 47.2306 109.618C47.2395 109.58 47.2557 109.545 47.2783 109.514C47.3008 109.483 47.3293 109.456 47.3621 109.436C47.3948 109.416 47.4313 109.402 47.4692 109.396C47.5072 109.39 47.546 109.392 47.5835 109.4C47.6209 109.409 47.6562 109.426 47.6873 109.448C57.8184 116.792 58.2048 117.323 60.0581 117.694C67.9783 119.448 76.1151 120.016 84.2022 119.381L84.4821 116.79C64.986 112.936 64.46 112.926 63.2332 112.381C59.8638 110.395 56.7644 107.983 54.0115 105.204C53.9608 105.148 53.9336 105.075 53.9354 105C53.9373 104.924 53.9681 104.853 54.0214 104.799C54.0747 104.746 54.1465 104.715 54.2219 104.713C54.2972 104.712 54.3705 104.739 54.4263 104.789C57.1309 107.52 60.1732 109.895 63.4793 111.855C64.5972 112.352 64.2744 112.225 84.8593 116.273C84.9314 116.287 84.9956 116.328 85.0392 116.387C85.0828 116.446 85.1026 116.519 85.0947 116.592L84.7597 119.692C84.7524 119.76 84.7216 119.823 84.6726 119.871C84.6236 119.919 84.5595 119.948 84.4913 119.953C76.2679 120.622 67.9909 120.053 59.9369 118.267Z" fill="#4B1010"/>
<path d="M52.3946 108.394C52.7105 107.837 54.5829 105.842 55.8948 106.334C53.6628 103.573 49.4196 99.9597 46.0911 99.1263C44.3276 98.7076 42.699 99.1056 40.9393 99.3563C40.9156 99.3563 42.7604 102.048 40.7285 104.07C40.1855 104.512 39.5331 104.801 38.8401 104.904C38.147 105.007 37.4389 104.922 36.7904 104.656C35.1675 104.18 33.6572 103.382 32.3494 102.31C29.836 104.572 26.9868 107.337 25.9808 110.689C25.6217 112.114 25.4251 113.576 25.395 115.046C25.395 128.52 27.4246 134.624 27.0704 141.943C30.9024 144.121 35.231 145.276 39.6389 145.295C44.4158 145.379 51.2023 144.708 54.7216 141.189C55.416 140.555 55.8615 139.693 55.9783 138.76C56.147 137 56.2306 135.24 56.2298 133.48C56.8044 124.938 55.4952 116.374 52.3946 108.394Z" fill="#FFE55D"/>
<path d="M33.2703 97.5367C32.6838 97.6203 32.3502 98.1233 31.8457 98.3748C31.2298 98.6123 30.553 98.6417 29.9189 98.4583C29.3125 98.126 28.7239 97.7624 28.1553 97.3688C27.2352 96.8658 26.1442 97.2852 25.139 96.8658C16.4195 93.2329 19.4167 75.4497 33.6016 79.9406C37.6439 81.2195 42.4 84.8002 43.8246 88.9882C44.2252 90.3881 44.2172 91.8734 43.8015 93.2688C43.3858 94.6643 42.5798 95.9118 41.4784 96.8643C40.7428 97.365 39.9564 97.7865 39.1321 98.1217C39.1421 98.6516 39.2855 99.1706 39.5508 99.6299L41.1433 99.462C41.5089 100.245 41.7123 101.094 41.7414 101.958C41.4109 105.226 38.0418 104.739 35.7868 104.125C34.4729 103.651 33.2514 102.952 32.1769 102.06C32.8945 101.563 33.5777 101.018 34.2219 100.429C33.9676 99.4453 33.6497 98.4792 33.2703 97.5367Z" fill="white"/>
<path d="M52.7208 108.561C52.9761 108.05 54.7711 106.194 55.8752 106.608C55.9357 106.632 56.0022 106.634 56.0643 106.616C56.1265 106.597 56.1807 106.559 56.2186 106.506C56.2565 106.454 56.2759 106.39 56.2737 106.325C56.2715 106.26 56.2478 106.198 56.2065 106.148C53.9507 103.356 49.6438 99.6906 46.2456 98.8418C44.2291 98.3372 42.1466 98.7076 39.8241 99.1929C39.7115 98.8381 39.6158 98.4781 39.5373 98.1141C41.3798 97.4698 42.9126 96.156 43.8311 94.4337C45.9205 90.255 43.0912 85.909 39.9974 83.1434C40.0596 83.1188 40.1116 83.0737 40.1447 83.0156C40.1777 82.9574 40.1899 82.8897 40.1791 82.8236C39.9698 81.5576 39.5128 80.3453 38.8343 79.2562C38.1559 78.167 37.2692 77.2224 36.2252 76.4763C35.1812 75.7303 34.0002 75.1975 32.75 74.9085C31.4998 74.6194 30.2049 74.5798 28.9393 74.7919C28.73 74.8303 27.9763 75.0012 27.7194 75.0565C21.7572 77.3291 15.6048 82.6833 18.9218 88.1349C17.6436 89.8923 17.6451 92.2822 18.931 95.0694C19.5031 96.185 20.3221 97.1556 21.3256 97.9073C22.3291 98.659 23.4907 99.1721 24.7222 99.4076C25.5426 99.653 26.396 99.7749 27.2525 99.7703C29.2565 99.7586 31.2149 99.1709 32.8942 98.0773C33.273 98.8372 33.6042 99.6193 33.8864 100.42C30.9359 102.701 26.9435 106.198 25.6147 110.541C25.2475 111.988 25.0481 113.472 25.0205 114.965C25.0205 128.45 27.0478 134.589 26.6958 141.848C26.6938 141.903 26.7071 141.957 26.7342 142.005C26.7612 142.052 26.8011 142.092 26.8492 142.118C26.9979 142.201 27.1467 142.283 27.2969 142.365C26.796 144.823 26.374 147.297 26.0318 149.783C26.0264 149.821 26.0287 149.86 26.0384 149.897C26.0482 149.935 26.0653 149.97 26.0887 150C26.1121 150.031 26.1413 150.057 26.1747 150.076C26.2081 150.095 26.245 150.108 26.2833 150.113C26.4428 150.134 54.7297 150.199 54.8961 150.199C54.9346 150.2 54.9728 150.192 55.0084 150.178C55.044 150.163 55.0764 150.141 55.1036 150.114C55.1309 150.087 55.1525 150.054 55.1671 150.019C55.1817 149.983 55.1892 149.945 55.189 149.907C55.189 146.993 55.189 144.006 55.1575 141.026C55.7199 140.369 56.0797 139.563 56.1934 138.706C56.3613 136.942 56.4457 135.159 56.4449 133.422C57.0099 124.964 55.7395 116.483 52.7208 108.561ZM29.8717 98.302C28.6664 97.8749 27.1114 96.6052 28.0967 95.6667C28.2949 95.49 28.5331 95.3643 28.7909 95.3004C29.0486 95.2366 29.318 95.2365 29.5757 95.3002C30.0235 95.4581 30.459 95.6483 30.8792 95.8706C30.9301 95.8942 30.9851 95.9075 31.0412 95.9098C31.0972 95.9121 31.1532 95.9033 31.2058 95.8839C31.2584 95.8646 31.3067 95.835 31.3479 95.7969C31.3891 95.7588 31.4224 95.713 31.4458 95.6621L31.8223 95.2097C31.8489 95.1756 31.868 95.1362 31.8782 95.0942C31.8884 95.0521 31.8894 95.0084 31.8813 94.9659C31.8729 94.9235 31.8555 94.8834 31.8302 94.8483C31.805 94.8133 31.7724 94.7841 31.7349 94.7627C31.146 94.4385 30.5738 94.0848 30.0204 93.703C28.4923 92.4274 27.2795 90.8159 26.4765 88.9944C26.9067 89.1222 27.359 89.158 27.8039 89.0995C28.2488 89.0409 28.6764 88.8894 29.0589 88.6547C31.5723 87.2186 32.1742 84.0366 34.4308 82.6158C35.3583 82.0467 36.4659 81.847 37.5338 82.0561C39.6744 83.4877 41.4793 85.3662 42.8244 87.5621C45.2013 91.5293 43.4378 96.2126 39.4729 97.5299C36.8859 98.5642 34.4338 98.1341 31.764 96.6098C31.429 96.4426 31.0939 96.9456 31.5125 97.1128C31.833 97.3083 32.1635 97.4877 32.5024 97.6495C32.1693 97.9944 31.7459 98.2386 31.2806 98.3543C30.8152 98.4699 30.3267 98.4523 29.8709 98.3035L29.8717 98.302ZM34.1985 100.919C34.2503 100.933 34.3049 100.932 34.3563 100.917C34.4077 100.902 34.4541 100.873 34.4904 100.833C34.5268 100.794 34.5517 100.746 34.5625 100.693C34.5734 100.641 34.5697 100.586 34.5519 100.536C34.2813 99.8109 33.9063 98.772 33.5713 98.1095C35.293 98.8164 37.2115 98.8809 38.9768 98.2912C39.1118 98.9729 39.3303 99.6361 39.6278 100.264C39.6639 100.332 39.7247 100.382 39.7975 100.406C39.8703 100.429 39.9494 100.424 40.0181 100.39C40.0866 100.355 40.1388 100.296 40.1638 100.223C40.1887 100.151 40.1843 100.071 40.1515 100.002C40.1093 99.9183 40.0748 99.8347 40.0334 99.7504C40.2581 99.7036 40.4797 99.6584 40.699 99.6147C41.8667 101.397 41.422 103.013 40.2519 103.898C39.387 104.374 38.3754 104.511 37.415 104.281C35.687 104.014 34.0818 103.226 32.8145 102.021C33.2702 101.647 33.7313 101.28 34.1977 100.919H34.1985ZM55.8538 133.398C55.8538 135.14 55.7694 136.907 55.6076 138.62C55.5028 139.497 55.0848 140.307 54.4307 140.9C50.771 144.56 43.5428 144.989 39.5557 144.92C35.2587 144.904 31.0366 143.794 27.2877 141.694C27.6006 134.378 25.6009 128.346 25.6009 114.964C25.6285 113.523 25.821 112.09 26.1744 110.693C27.1873 107.384 29.8594 104.55 32.3621 102.406C33.7189 103.711 35.4432 104.567 37.3023 104.86C38.4103 105.118 39.5747 104.95 40.5655 104.392C41.3033 103.834 41.795 103.011 41.9361 102.097C42.0773 101.183 41.8568 100.251 41.3216 99.4966C42.8904 99.1281 44.52 99.0999 46.1007 99.4138C49.2175 100.192 53.2085 103.539 55.3017 105.979C54.1665 106.285 53.1672 106.963 52.4647 107.906C51.8607 106.389 51.1926 104.899 50.462 103.439C50.4447 103.405 50.4209 103.374 50.3918 103.349C50.3627 103.324 50.329 103.304 50.2924 103.292C50.2559 103.28 50.2174 103.275 50.179 103.278C50.1406 103.281 50.1031 103.291 50.0686 103.308C50.0342 103.325 50.0035 103.349 49.9783 103.378C49.953 103.407 49.9338 103.441 49.9216 103.478C49.9094 103.514 49.9046 103.553 49.9073 103.591C49.91 103.63 49.9203 103.667 49.9375 103.701C54.512 112.899 56.5539 123.15 55.853 133.398H55.8538Z" fill="#4B1010"/>
<path d="M34.3136 92.1693C33.9891 92.1636 33.6667 92.2225 33.3652 92.3427C33.0638 92.4629 32.7893 92.642 32.5578 92.8694C32.3262 93.0969 32.1424 93.3682 32.0168 93.6675C31.8913 93.9667 31.8267 94.288 31.8267 94.6126C31.8267 94.9371 31.8913 95.2584 32.0168 95.5577C32.1424 95.857 32.3262 96.1283 32.5578 96.3557C32.7893 96.5832 33.0638 96.7622 33.3652 96.8824C33.6667 97.0026 33.9891 97.0616 34.3136 97.0558C34.9541 97.0445 35.5645 96.7821 36.0134 96.3251C36.4624 95.8682 36.7139 95.2532 36.7139 94.6126C36.7139 93.972 36.4624 93.357 36.0134 92.9C35.5645 92.4431 34.9541 92.1807 34.3136 92.1693Z" fill="#FFE55D"/>
<path d="M41.7672 87.4072C42.3322 87.4072 42.8739 87.1827 43.2734 86.7833C43.6728 86.3838 43.8973 85.842 43.8973 85.2771C43.8973 84.7122 43.6728 84.1704 43.2734 83.771C42.8739 83.3715 42.3322 83.1471 41.7672 83.1471C41.2023 83.1471 40.6605 83.3715 40.2611 83.771C39.8616 84.1704 39.6372 84.7122 39.6372 85.2771C39.6372 85.842 39.8616 86.3838 40.2611 86.7833C40.6605 87.1827 41.2023 87.4072 41.7672 87.4072Z" fill="#FFE55D"/>
<path d="M35.9008 86.7639C35.8427 86.7525 35.7893 86.7239 35.7475 86.6818C35.6234 86.6565 35.5082 86.5991 35.4132 86.5154C35.1256 86.2287 35.0451 86.0355 34.5966 84.9152C34.5673 84.8435 34.5674 84.7631 34.597 84.6915C34.6266 84.6199 34.6832 84.5628 34.7545 84.5326C34.7901 84.5178 34.8282 84.5101 34.8667 84.51C34.9052 84.5099 34.9434 84.5174 34.979 84.5321C35.0146 84.5468 35.047 84.5683 35.0742 84.5955C35.1015 84.6227 35.1231 84.655 35.1379 84.6906C35.5865 85.8116 35.6493 85.9228 35.828 86.1006C35.9146 86.1221 35.9967 86.1551 36.0749 86.1988C40.062 86.8942 40.5734 86.1988 40.6064 86.7938C40.6101 86.8711 40.5831 86.9468 40.5313 87.0042C40.4794 87.0617 40.4069 87.0963 40.3296 87.1005C38.8452 87.1616 37.3589 87.0486 35.9008 86.7639Z" fill="#4B1010"/>
<path d="M40.5605 89.0725C40.3056 90.0887 39.663 90.9647 38.7701 91.5129C37.8773 92.0611 36.8053 92.2378 35.7837 92.0053C35.707 92.0053 35.6303 91.9348 35.4893 91.9233C35.8481 92.6783 36.3801 93.3379 37.0419 93.8486C37.3749 94.1264 37.7792 94.305 38.2088 94.3643C38.6384 94.4235 39.076 94.3609 39.4718 94.1837C41.0421 93.2429 41.1663 90.5861 40.5605 89.0725Z" fill="#FFE55D"/>
<path d="M36.8485 94.0695C36.1614 93.4942 35.5835 92.8 35.1424 92.0199C35.1216 91.9645 35.1152 91.9046 35.1239 91.846C35.1326 91.7873 35.1561 91.7319 35.1921 91.6849C35.2282 91.6378 35.2756 91.6008 35.33 91.5772C35.3843 91.5535 35.4438 91.5442 35.5028 91.5499C38.2999 92.0682 39.8403 90.8192 40.2758 89.0043C40.2908 88.9441 40.3243 88.8902 40.3717 88.8501C40.419 88.8101 40.4778 88.786 40.5396 88.7812C40.6016 88.7763 40.6636 88.7913 40.7164 88.8242C40.7693 88.857 40.8102 88.9059 40.8332 88.9637C41.495 90.6183 41.3255 93.4108 39.6226 94.436C39.173 94.644 38.6735 94.7201 38.1823 94.6552C37.6912 94.5903 37.2286 94.3872 36.8485 94.0695ZM36.0656 92.3588C36.3739 92.8403 36.763 93.2649 37.2157 93.614C37.5092 93.8608 37.8664 94.0197 38.2462 94.0725C38.626 94.1253 39.013 94.0697 39.3626 93.9123C40.5672 93.1739 40.7428 91.2125 40.5266 90.018C40.1181 90.823 39.4691 91.4809 38.6697 91.9004C37.8703 92.3199 36.9602 92.4801 36.0656 92.3588Z" fill="#4B1010"/>
<path d="M30.7533 90.3913C30.4112 89.7945 30.2387 89.1156 30.2544 88.4279C30.2701 87.7402 30.4733 87.0699 30.8422 86.4893C30.8622 86.4563 30.8886 86.4277 30.9198 86.405C30.9509 86.3823 30.9863 86.3661 31.0238 86.3571C31.0613 86.3482 31.1003 86.3468 31.1383 86.3531C31.1764 86.3593 31.2128 86.373 31.2455 86.3935C31.3115 86.4342 31.3587 86.4994 31.3767 86.5749C31.3946 86.6504 31.3819 86.7299 31.3414 86.796C31.029 87.2874 30.8568 87.8548 30.8433 88.4369C30.8298 89.019 30.9755 89.5938 31.2647 90.0992C31.303 90.1671 31.313 90.2474 31.2925 90.3226C31.2719 90.3978 31.2226 90.4619 31.155 90.5009C31.1214 90.52 31.0845 90.5325 31.0462 90.5377C30.9686 90.5465 30.8906 90.5251 30.8284 90.4779C30.7979 90.4543 30.7723 90.4248 30.7533 90.3913Z" fill="#4B1010"/>
<path d="M34.4599 89.6467C34.1646 89.2919 33.7708 89.0325 33.3282 88.9014C33.6142 88.4483 33.7944 87.9353 33.8534 87.4024C33.8577 87.3642 33.8544 87.3254 33.8437 87.2884C33.833 87.2515 33.8152 87.2169 33.7911 87.1869C33.7671 87.1568 33.7374 87.1317 33.7037 87.1131C33.6699 87.0945 33.6329 87.0828 33.5946 87.0785C33.5564 87.0742 33.5176 87.0775 33.4807 87.0882C33.4437 87.0989 33.4092 87.1167 33.3791 87.1408C33.349 87.1648 33.3239 87.1945 33.3053 87.2282C33.2867 87.2619 33.275 87.299 33.2707 87.3373C33.2091 87.923 32.9705 88.4761 32.5867 88.9229C31.8277 89.2909 32.6703 90.8881 33.6548 90.9555C33.8166 90.9792 33.9818 90.955 34.1301 90.8859C34.2783 90.8169 34.4031 90.7059 34.4891 90.5668C34.5746 90.4274 34.6175 90.2659 34.6123 90.1024C34.6071 89.9389 34.5541 89.7805 34.4599 89.6467Z" fill="#4B1010"/>
<path d="M38.7614 83.8119C38.4658 83.4575 38.0721 83.1985 37.6297 83.0674C37.9157 82.6142 38.0951 82.1013 38.1549 81.5684C38.1619 81.5106 38.1514 81.452 38.1248 81.4001C38.0983 81.3483 38.0568 81.3056 38.0058 81.2775C37.9548 81.2494 37.8965 81.2372 37.8385 81.2424C37.7805 81.2476 37.7254 81.2701 37.6803 81.3069C37.6502 81.3309 37.6251 81.3606 37.6066 81.3943C37.588 81.428 37.5763 81.465 37.5721 81.5032C37.5106 82.0886 37.2723 82.6414 36.889 83.0881C36.1291 83.4569 36.9718 85.054 37.9563 85.1207C38.1181 85.1443 38.2833 85.1201 38.4315 85.051C38.5797 84.9819 38.7045 84.871 38.7905 84.732C38.8763 84.5926 38.9192 84.4311 38.914 84.2676C38.9089 84.104 38.8558 83.9456 38.7614 83.8119Z" fill="#4B1010"/>
<path d="M74.6638 117.478C74.7316 117.21 74.8808 116.969 75.0908 116.789C75.3009 116.609 75.5615 116.498 75.837 116.472C79.2728 115.522 86.0984 114.042 89.663 114.042C90.9005 114.253 92.0752 114.739 93.098 115.467C91.506 119.912 89.8299 124.326 88.0704 128.707C87.9567 129.14 87.7094 129.527 87.3636 129.813C87.0179 130.099 86.5911 130.268 86.1436 130.298C73.1449 133.658 73.7414 133.566 73.0721 133.566C72.497 133.279 73.0291 133.613 69.3855 131.053C69.2176 131.053 69.2176 131.136 69.134 130.968C69.1141 130.769 69.1432 130.568 69.2176 130.382C72.007 123.409 69.647 128.767 74.6638 117.478Z" fill="#FFE55D"/>
<path d="M73.072 133.859C72.7714 133.859 72.0545 133.282 69.3096 131.358C68.7797 131.417 68.7215 130.719 68.9553 130.251C71.5331 123.783 69.4483 128.492 74.3992 117.36C74.4855 117.045 74.6656 116.763 74.9155 116.553C75.1655 116.343 75.4734 116.214 75.7986 116.183C79.7166 115.096 85.8982 113.75 89.666 113.75C90.9672 113.961 92.2032 114.469 93.2774 115.233C93.3273 115.27 93.364 115.323 93.3824 115.383C93.4001 115.443 93.3985 115.507 93.3778 115.566C91.7873 120.015 90.1096 124.433 88.3456 128.816C88.1901 129.261 87.9394 129.666 87.6111 130.003C87.1946 130.312 86.708 130.513 86.1949 130.588C73.1111 133.97 73.7981 133.859 73.072 133.859ZM69.4299 130.763C69.4744 130.77 72.6503 132.991 72.6503 132.991C72.7937 133.112 72.957 133.208 73.1326 133.273C73.3335 133.282 73.5351 133.259 73.7291 133.204C87.2546 129.707 86.7569 129.907 87.2239 129.561C87.4807 129.283 87.6763 128.955 87.7974 128.597C89.4352 124.543 91.0998 120.163 92.7468 115.576C91.7965 114.948 90.726 114.523 89.6031 114.33C85.7088 114.372 79.666 115.717 75.9128 116.755C75.6872 116.77 75.472 116.856 75.2979 117C75.1239 117.144 74.9999 117.34 74.9436 117.559C71.5301 125.248 71.754 124.641 70.3707 128.228C70.0847 128.977 69.4353 130.65 69.4299 130.763Z" fill="#4B1010"/>
<path d="M73.8886 132.034C78.9859 119.069 78.7191 119.542 79.1492 119.114C79.5633 118.696 85.8782 117.46 91.1818 116.105C91.2572 116.086 91.3371 116.097 91.404 116.137C91.471 116.176 91.5194 116.241 91.5387 116.316C91.5581 116.392 91.5466 116.472 91.507 116.538C91.4674 116.605 91.4028 116.654 91.3275 116.673C86.6856 117.858 80.5002 119.122 79.5303 119.563C79.2328 119.884 79.4383 119.541 74.4345 132.249C74.4038 132.318 74.3475 132.373 74.2774 132.401C74.2073 132.429 74.129 132.43 74.0588 132.401C73.9887 132.374 73.932 132.32 73.9003 132.252C73.8686 132.184 73.8644 132.106 73.8886 132.034Z" fill="#4B1010"/>
<path d="M93.8922 102.639C93.8306 102.605 93.7602 102.591 93.6901 102.598C93.6201 102.604 93.5537 102.632 93.4997 102.677C93.464 102.707 93.4348 102.744 93.4138 102.786C93.0396 103.684 89.5563 112.261 88.8976 114.246C88.8162 114.371 88.7695 114.514 88.7626 114.663C88.7557 114.811 88.7888 114.958 88.8584 115.09C88.9279 115.221 89.0315 115.331 89.1582 115.408C89.2849 115.486 89.43 115.528 89.5785 115.53C90.2057 115.53 90.7125 114.73 90.7056 114.177C90.8053 113.612 91.4724 111.537 92.177 109.339C94.2503 102.877 94.1813 102.827 93.8922 102.639Z" fill="#4B1010"/>
<path d="M76.4235 125.187C75.5044 125.616 74.5048 125.844 73.4907 125.857C74.7028 125.699 75.8556 125.238 76.8429 124.517C77.3797 124.337 77.763 123.26 76.675 123.26L73.6586 124.014C72.6527 124.266 71.4803 124.517 70.7258 123.763C71.9848 122.406 71.9825 122.434 71.9825 122.338C72.0669 122.17 71.8989 122.003 71.731 121.919C70.459 121.374 69.4024 122.354 68.6311 123.511L67.0447 125.6C60.1838 126.195 58.4379 126.107 51.6215 126.697C50.8108 126.854 49.9732 126.796 49.1917 126.529C48.6282 126.26 48.1392 125.857 47.7671 125.356C44.2477 121.586 44.3312 120.161 40.8126 116.39C38.129 115.72 35.4454 117.648 34.6955 120.328C34.5011 120.923 34.4722 121.559 34.6119 122.169C34.8691 122.648 35.1776 123.097 35.532 123.51C39.1358 127.197 40.4753 128.872 44.0782 132.557C44.6149 133.148 45.236 133.656 45.9223 134.065C46.8849 134.424 47.9209 134.539 48.9386 134.401C56.2274 133.987 59.7498 132.017 67.1106 130.19C68.9232 130.636 70.8086 130.7 72.6473 130.378C75.3915 130.148 75.6161 128.367 74.8264 128.367L72.9862 128.116C74.5833 127.478 76.3867 127.706 77.6787 125.77C78.0529 125.401 77.4502 124.502 76.4235 125.187Z" fill="white"/>
<path d="M34.9501 108.512L27.4927 114.63L35.3687 124.014C35.5746 122.25 36.3911 120.615 37.6768 119.39C38.9624 118.166 40.6361 117.43 42.4075 117.31L34.9501 108.512Z" fill="#FFE55D"/>
<path d="M78.0418 125.262C77.9813 125.088 77.8698 124.935 77.7218 124.825C77.5737 124.715 77.3959 124.651 77.2114 124.643C77.4054 124.48 77.5487 124.265 77.6224 124.023C77.6816 123.815 77.661 123.594 77.5646 123.401C77.4682 123.208 77.303 123.059 77.1017 122.982C76.9365 122.957 76.7685 122.954 76.6026 122.975C73.0817 123.855 71.9844 124.27 71.1525 123.733C72.2183 122.583 72.2375 122.599 72.2689 122.411C72.3563 122.162 72.2436 121.847 71.8457 121.649C70.4456 121.048 69.2387 122.065 68.3953 123.336L66.8871 125.319C60.129 125.903 58.3555 125.819 51.5613 126.41C50.8082 126.554 50.0308 126.501 49.304 126.257C48.779 126.002 48.324 125.624 47.9783 125.154C46.6924 123.783 45.5384 122.294 44.5318 120.706C42.3013 117.333 42.092 117.623 42.4217 117.6C42.4621 117.597 42.5014 117.585 42.5372 117.566C42.5731 117.548 42.6047 117.522 42.63 117.49C42.6553 117.458 42.6739 117.422 42.6845 117.383C42.6951 117.344 42.6975 117.303 42.6916 117.263C42.6835 117.209 42.6606 117.159 42.6256 117.117L35.1675 108.319C35.1164 108.26 35.0442 108.224 34.9665 108.218C34.8889 108.212 34.812 108.237 34.7527 108.287C34.7232 108.312 34.6989 108.343 34.6813 108.377C34.6637 108.412 34.6531 108.449 34.6501 108.488C34.6471 108.527 34.6518 108.565 34.6639 108.602C34.6759 108.639 34.6952 108.673 34.7204 108.702L41.8182 117.077C40.1993 117.303 38.6907 118.027 37.5006 119.148C36.3105 120.268 35.4977 121.731 35.1744 123.333L27.7116 114.439C27.6604 114.383 27.5898 114.35 27.5144 114.345C27.4391 114.34 27.3648 114.365 27.307 114.413C27.2492 114.462 27.2123 114.531 27.2039 114.606C27.1956 114.681 27.2165 114.756 27.2623 114.816C35.2771 124.377 35.1498 124.305 35.363 124.305C35.4335 124.306 35.5019 124.281 35.5553 124.235C35.6086 124.189 35.6433 124.125 35.6528 124.055C39.038 127.539 40.389 129.206 43.857 132.75C44.4272 133.381 45.0929 133.92 45.8299 134.345C46.828 134.715 47.9015 134.835 48.9567 134.695C56.2569 134.28 59.8445 132.305 67.1156 130.495C68.9374 130.936 70.8305 130.996 72.6768 130.673C73.4727 130.607 74.8889 130.334 75.444 129.216C75.6809 128.508 75.2546 128.047 74.8705 128.078C73.922 127.949 74.5147 128.112 75.6625 127.646C76.5846 127.385 77.377 126.791 77.8861 125.979C77.9599 125.876 78.0117 125.76 78.0385 125.637C78.0653 125.513 78.0664 125.386 78.0418 125.262ZM77.4353 125.61C76.292 127.418 74.4449 127.221 72.8785 127.847C72.8187 127.871 72.7685 127.915 72.7358 127.97C72.7031 128.026 72.6897 128.091 72.6975 128.155C72.7054 128.219 72.7341 128.279 72.7793 128.325C72.8245 128.371 72.8836 128.401 72.9475 128.41C74.8268 128.667 74.7524 128.662 74.8743 128.662C75.1189 128.905 74.6389 129.92 72.6017 130.093C70.7216 130.424 68.7909 130.341 66.9469 129.848C66.8775 129.828 66.8035 129.835 66.7391 129.868C66.6747 129.9 66.6244 129.955 66.598 130.022C59.5286 131.817 56.0169 133.707 48.8907 134.115C47.943 134.248 46.9771 134.147 46.0775 133.82C44.0027 132.524 41.017 128.705 35.774 123.341C36.0812 121.933 36.7977 120.647 37.8333 119.645C38.869 118.642 40.1777 117.969 41.5951 117.708C44.1599 120.718 44.3692 122.146 47.5405 125.542C47.9481 126.085 48.4826 126.518 49.097 126.806C49.9163 127.086 50.7942 127.148 51.6449 126.988C56.1779 126.596 65.4088 126.099 66.9937 125.896C67.0458 125.904 67.099 125.897 67.1479 125.877C67.1967 125.857 67.2393 125.825 67.2712 125.783C69.3798 123.007 69.4465 122.821 70.1335 122.333C70.3472 122.19 70.5925 122.102 70.848 122.076C71.1036 122.05 71.3616 122.087 71.5995 122.184C71.6532 122.211 71.6908 122.243 71.7084 122.229C71.7 122.247 71.7008 122.246 71.7008 122.281C71.6701 122.321 71.6356 122.358 71.5988 122.392L70.51 123.565C70.4586 123.621 70.4307 123.694 70.4321 123.77C70.4335 123.846 70.4642 123.918 70.5177 123.972C71.4217 124.877 72.8102 124.532 73.7288 124.301C77.0971 123.454 76.5658 123.556 76.9492 123.556C76.9937 123.587 77.0286 123.63 77.0497 123.68C77.0709 123.73 77.0775 123.786 77.0688 123.839C77.0467 123.925 77.0071 124.005 76.9525 124.074C76.8978 124.143 76.8293 124.2 76.7513 124.241C75.7785 124.951 74.644 125.408 73.4505 125.57C73.3773 125.581 73.311 125.619 73.2647 125.677C73.2184 125.734 73.1955 125.807 73.2005 125.881C73.2061 125.955 73.2393 126.024 73.2934 126.074C73.3476 126.124 73.4187 126.152 73.4926 126.153C74.5638 126.137 75.6191 125.892 76.5872 125.433C76.8748 125.242 77.3172 125.104 77.4721 125.413C77.4752 125.481 77.4629 125.548 77.436 125.61H77.4353Z" fill="#4B1010"/>
</svg>
