<svg width="154" height="155" viewBox="0 0 154 155" fill="none" xmlns="http://www.w3.org/2000/svg">
<path d="M134.854 100.087C14.491 100.087 14.458 100.266 14.458 99.7896C14.458 99.3126 14.4634 99.4921 134.854 99.4921C134.933 99.4921 135.009 99.5235 135.065 99.5795C135.092 99.6069 135.114 99.6396 135.13 99.6757C135.145 99.7118 135.152 99.7505 135.152 99.7896C135.152 99.8286 135.145 99.8673 135.13 99.9034C135.114 99.9395 135.092 99.9722 135.065 99.9996C135.037 100.027 135.004 100.049 134.968 100.064C134.932 100.079 134.894 100.087 134.854 100.087Z" fill="#4B1010"/>
<path d="M19.8549 103.912H67.0276C63.7129 115.726 61.3329 127.796 58.7827 139.78H3.96094C9.14569 127.796 14.6701 115.982 19.8549 103.912Z" fill="white"/>
<path d="M67.2644 103.689C67.1655 103.56 67.2598 103.54 19.854 103.612C19.5834 103.612 19.7268 103.554 17.2609 109.179H17.1351C17.067 109.179 17.0008 109.202 16.9477 109.245C16.8946 109.287 16.8579 109.347 16.8438 109.414C16.8295 109.48 16.8383 109.549 16.8689 109.61C16.8994 109.671 16.9498 109.719 17.0117 109.747C16.0867 111.856 15.1548 113.961 14.2161 116.064H14.0751C14.024 116.064 13.9739 116.078 13.9296 116.104C13.8854 116.129 13.8484 116.166 13.8223 116.21C13.7961 116.254 13.7817 116.304 13.7803 116.355C13.7789 116.406 13.7906 116.456 13.8144 116.502C13.8465 116.562 13.8985 116.61 13.9616 116.636L10.798 123.711H10.5879C10.5142 123.712 10.4433 123.74 10.389 123.79C10.3347 123.84 10.3006 123.908 10.2934 123.981C10.2868 124.055 10.3076 124.128 10.3519 124.187C10.3963 124.246 10.461 124.287 10.5334 124.301C9.44082 126.743 8.33594 129.216 7.23642 131.698C6.99259 131.698 6.63682 131.659 6.63989 132.005C6.64041 132.047 6.64953 132.088 6.66668 132.126C6.68384 132.164 6.70865 132.198 6.73957 132.226C6.77109 132.253 6.8079 132.274 6.84772 132.287C6.88755 132.299 6.92955 132.304 6.97112 132.3C3.56216 139.999 3.58669 139.877 3.71397 140.071C3.85352 140.283 3.71858 140.224 58.7857 139.949C59.1545 139.949 59.0211 139.972 60.7655 131.709L61.0837 131.705C61.1228 131.704 61.1615 131.696 61.1974 131.681C61.2334 131.665 61.2659 131.643 61.2932 131.615C61.3204 131.587 61.3418 131.553 61.3561 131.517C61.3704 131.481 61.3774 131.442 61.3766 131.403C61.3761 131.363 61.3679 131.325 61.3524 131.289C61.337 131.253 61.3147 131.221 61.2867 131.194C61.2587 131.166 61.2256 131.145 61.1893 131.131C61.153 131.116 61.1143 131.109 61.0752 131.11H60.892C61.4034 128.687 61.9263 126.251 62.4607 123.801H62.782C62.8609 123.801 62.9366 123.77 62.9924 123.714C63.0482 123.658 63.0795 123.582 63.0795 123.503C63.0795 123.425 63.0482 123.349 62.9924 123.293C62.9366 123.237 62.8609 123.206 62.782 123.206H62.5942C63.0817 120.993 63.5826 118.782 64.097 116.575C64.3132 116.575 64.6958 116.625 64.6951 116.277C64.6945 116.198 64.6629 116.123 64.6072 116.067C64.5515 116.012 64.4762 115.981 64.3976 115.98H64.2365C64.7196 113.935 65.2195 111.896 65.7371 109.86H66.0123C66.0912 109.86 66.1669 109.829 66.2227 109.773C66.2785 109.717 66.3098 109.641 66.3098 109.562C66.3098 109.484 66.2785 109.408 66.2227 109.352C66.1669 109.296 66.0912 109.265 66.0123 109.265H65.8904C67.3189 103.705 67.4239 103.901 67.2644 103.689ZM37.6978 139.427L39.9298 131.971L50.5991 131.845L48.7819 139.427H37.6978ZM25.9244 139.482C26.8169 137.016 27.7155 134.568 28.6195 132.092L39.3072 131.978L37.076 139.482H25.9244ZM14.2859 139.537C15.3134 137.083 16.3439 134.656 17.3759 132.202L27.9839 132.098C27.0807 134.574 26.182 137.072 25.2903 139.535L14.2859 139.537ZM38.3066 104.227C37.6825 105.89 37.0584 107.539 36.435 109.207H27.073L29.1547 104.227H38.3066ZM47.8519 104.21C47.3152 105.882 46.7784 107.544 46.2532 109.224H37.0699C37.6932 107.556 38.3181 105.873 38.943 104.21H47.8519ZM31.767 123.509L34.3096 116.619H43.9583C43.2631 118.881 42.573 121.145 41.8881 123.41L31.767 123.509ZM41.7041 124.007L39.4866 131.381L28.8388 131.494L31.5462 124.106L41.7041 124.007ZM34.5311 116.024C35.2979 113.948 36.0738 111.89 36.8475 109.819H46.0661C45.419 111.878 44.778 113.96 44.1416 116.024H34.5311ZM36.2126 109.802C35.439 111.872 34.6661 113.964 33.8955 116.041H24.1892L26.823 109.802H36.2126ZM33.6747 116.636L31.1306 123.515L20.9973 123.614L23.9377 116.636H33.6747ZM30.9144 124.112L28.207 131.501L17.6328 131.605L20.7496 124.212L30.9144 124.112ZM40.1154 131.374L42.3328 124.001L52.5306 123.901C51.9279 126.36 51.3345 128.809 50.7487 131.248L40.1154 131.374ZM42.513 123.4C43.1994 121.132 43.8895 118.864 44.5832 116.598H54.3478C53.7796 118.836 53.2207 121.07 52.6724 123.301L42.513 123.4ZM44.7695 116.002C45.4059 113.938 46.0477 111.891 46.6949 109.832H56.0998C55.5547 111.886 55.0208 113.943 54.4981 116.002H44.7695ZM46.8819 109.237C47.4118 107.556 47.9454 105.864 48.4829 104.188H57.6456C57.1739 105.869 56.712 107.552 56.2601 109.237H46.8819ZM20.0565 104.24H28.5091C27.819 105.894 27.1228 107.533 26.4281 109.187H17.9103C18.6303 107.542 19.3439 105.895 20.0511 104.244L20.0565 104.24ZM17.6542 109.782H26.1782L23.5429 116.054H14.8686C15.7972 113.971 16.7265 111.887 17.6489 109.786L17.6542 109.782ZM14.6079 116.65H23.2914L20.3494 123.616L11.4551 123.704L14.6079 116.65ZM11.1905 124.302L20.1025 124.214L16.9864 131.607L7.89429 131.693C8.98921 129.216 10.0949 126.745 11.1852 124.306L11.1905 124.302ZM7.62286 132.294L16.7295 132.208C15.6975 134.662 14.6678 137.135 13.6411 139.587H4.41478C5.4683 137.155 6.54328 134.732 7.62286 132.294ZM58.5419 139.377H49.3961L51.2141 131.837L60.1551 131.718L58.5419 139.377ZM60.2809 131.121L51.3575 131.24C51.9448 128.804 52.539 126.356 53.1401 123.895L61.8504 123.81C61.3137 126.258 60.7908 128.696 60.2809 131.121ZM61.9792 123.214L53.2866 123.299C53.8356 121.065 54.3938 118.821 54.9619 116.585H63.4805C62.9653 118.791 62.4648 121.001 61.9792 123.214ZM63.6208 115.99H55.1138C55.6382 113.935 56.1719 111.898 56.7163 109.856H65.1191C64.5999 111.896 64.1005 113.941 63.6208 115.99ZM65.2716 109.258H56.8758C57.3283 107.561 57.7909 105.867 58.2636 104.175H66.6357C66.1636 105.865 65.7089 107.559 65.2716 109.258Z" fill="#FFE55D"/>
<path d="M149.643 139.568H96.7757C92.9512 127.159 89.2961 114.749 85.5566 102.34H133.664C139.103 114.664 144.373 127.159 149.643 139.568Z" fill="white"/>
<path d="M149.643 139.865C96.4903 139.865 96.5938 139.989 96.491 139.655C93.9408 131.38 86.5172 106.56 85.2712 102.426C85.0979 101.851 82.7724 102.042 133.664 102.042C133.721 102.042 133.778 102.059 133.826 102.091C133.874 102.122 133.912 102.167 133.936 102.219C138.674 112.954 149.917 139.451 149.917 139.451C149.936 139.496 149.944 139.546 149.939 139.595C149.935 139.644 149.918 139.691 149.891 139.732C149.864 139.772 149.827 139.806 149.784 139.83C149.74 139.853 149.692 139.865 149.643 139.865ZM96.9955 139.27H149.194C149.194 139.27 138.179 113.312 133.47 102.637H85.9567C87.1635 106.644 94.4676 131.064 96.9955 139.27Z" fill="#FFE55D"/>
<path d="M130.18 118.742H131.794L133.835 123.587H132.219C131.37 121.549 130.945 120.614 130.18 118.742Z" fill="#4B1010"/>
<path d="M126.865 118.574H128.481C129.076 120.019 129.416 120.784 130.015 122.314H128.315C127.799 120.784 127.46 120.019 126.865 118.574Z" fill="#FFE55D"/>
<path d="M121.17 112.964H122.785C124.144 116.449 124.909 118.319 126.439 122.228H124.739C123.295 118.234 122.529 116.449 121.17 112.964Z" fill="#4B1010"/>
<path d="M117.686 112.794H119.3C120.067 114.834 120.49 115.938 121.34 118.149H119.64C118.876 115.939 118.45 114.832 117.686 112.794Z" fill="#FFE55D"/>
<path d="M115.9 117.979H117.6L118.11 119.338H116.41L115.9 117.979Z" fill="#FFE55D"/>
<path d="M113.095 119.254H114.795L115.73 121.974H114.03C113.681 121.081 113.369 120.173 113.095 119.254Z" fill="#FFE55D"/>
<path d="M109.101 116.789H110.8C111.481 118.744 111.82 119.764 112.585 121.889H110.886L109.101 116.789Z" fill="#4B1010"/>
<path d="M101.706 104.464H103.321C104.85 108.799 105.616 111.264 107.401 116.704H105.785C104.001 111.264 103.236 108.799 101.706 104.464Z" fill="#4B1010"/>
<path d="M98.7305 104.464H100.264C102.899 112.539 105.534 120.613 108.168 128.603H106.468C103.915 120.613 101.28 112.539 98.7305 104.464Z" fill="#FFE55D"/>
<path d="M105.956 135.998H107.655C106.636 132.938 106.122 131.408 105.279 128.603H103.579C104.426 131.408 104.936 132.938 105.956 135.998Z" fill="#FFE55D"/>
<path d="M9.23065 135.446C9.17358 135.446 9.11768 135.429 9.06963 135.399C9.02158 135.368 8.98339 135.324 8.95963 135.272C8.93587 135.22 8.92753 135.163 8.93562 135.106C8.9437 135.05 8.96786 134.997 9.00523 134.953C11.1774 132.445 21.2295 120.959 21.4741 120.792C27.3903 116.82 30.3124 114.98 35.846 111.522C36.1359 111.342 35.8775 111.462 44.2695 115.869C58.3685 110.675 54.2304 111.793 60.6864 110.716C60.763 110.705 60.8409 110.725 60.9036 110.77C60.9662 110.815 61.0088 110.883 61.0222 110.959C61.0355 111.036 61.0187 111.114 60.9752 111.178C60.9317 111.242 60.8649 111.287 60.7891 111.302C54.3868 112.427 58.5594 111.239 44.3516 116.473C44.1538 116.545 44.2818 116.595 36.0147 112.118C30.5915 115.509 27.6717 117.347 21.8368 121.265C9.22758 135.423 9.51435 135.446 9.23065 135.446Z" fill="#FFE55D"/>
<path d="M51.3029 57.6321C47.8203 60.9291 40.5837 54.4945 41.3589 48.7079C42.0329 43.6742 47.5696 41.7496 50.0286 37.6583C53.6415 31.64 50.1643 24.806 51.1334 17.8539C51.4614 15.7394 52.2281 13.7169 53.3845 11.9165C54.5409 10.1161 56.0613 8.57765 57.8479 7.40005C65.132 2.67917 75.9286 5.49084 79.0968 14.1145C79.5998 15.1204 78.33 15.0737 78.077 16.8341C78.672 12.7543 71.5826 11.8564 69.3223 13.5195C68.2124 14.3384 67.2865 15.3809 66.6041 16.5796C62.65 22.3785 64.754 26.3173 64.8191 29.8382C64.8819 32.5305 64.174 35.1846 62.7788 37.488C58.8002 43.9878 54.534 45.2222 50.4533 49.0445C48.4659 50.9077 47.0873 54.2377 48.6683 56.6092C48.9764 56.9992 49.3831 57.2996 49.8463 57.4795C50.3096 57.6593 50.8125 57.712 51.3029 57.6321Z" fill="#FFE55D"/>
<path d="M41.7612 52.9809C39.875 48.9424 41.5925 45.5273 44.898 42.537C46.6845 40.9207 48.6075 39.5015 49.7707 37.5079C53.9778 30.6961 48.2287 21.9253 52.0525 13.7333C57.6022 1.44541 75.0466 2.2321 79.3749 14.0117C79.9583 15.148 78.6035 15.2385 78.3719 16.867C78.3681 16.9073 78.3562 16.9463 78.337 16.9819C78.3177 17.0175 78.2916 17.0488 78.26 17.0741C78.228 17.0988 78.1914 17.117 78.1523 17.1276C78.1132 17.1381 78.0724 17.1407 78.0323 17.1354C77.9921 17.1297 77.9536 17.1159 77.919 17.0948C77.8844 17.0737 77.8544 17.0457 77.831 17.0126C77.8076 16.9795 77.7912 16.942 77.7828 16.9023C77.7745 16.8626 77.7743 16.8217 77.7823 16.7819C78.2976 13.0732 71.6591 12.2382 69.4922 13.7625C66.7251 16.0957 64.9471 19.3925 64.5176 22.9865C64.3519 25.302 65.0282 27.5241 65.1141 29.8274C65.1149 40.6102 54.9846 45.2061 50.6555 49.2645C48.7639 51.038 47.4459 54.2437 48.915 56.4466C49.191 56.7889 49.553 57.0517 49.9638 57.2084C50.3747 57.365 50.8197 57.4099 51.2536 57.3383C51.3165 57.3279 51.3811 57.3379 51.4379 57.3669C51.4947 57.3959 51.5406 57.4424 51.569 57.4995C51.5973 57.5567 51.6066 57.6214 51.5953 57.6842C51.5841 57.747 51.553 57.8045 51.5066 57.8482C48.2648 60.9198 43.0954 56.3669 41.7612 52.9809ZM52.5938 13.9818C48.8084 22.0924 54.6978 30.6647 50.2813 37.8146C49.0683 39.8933 47.0571 41.3854 45.2975 42.9787C42.2036 45.7773 40.5206 48.9179 42.3071 52.7463C43.3952 55.5066 47.5318 59.4937 50.3979 57.931C46.8034 57.3866 46.8532 52.014 50.2491 48.8305C54.4593 44.8825 64.5191 40.348 64.5191 29.8381C64.434 27.5501 63.7523 25.3572 63.9249 22.932C64.3732 19.1699 66.2375 15.7199 69.1387 13.2832C71.3807 11.7037 77.3384 12.3279 78.2815 15.4608C78.5974 14.964 78.7983 14.9241 78.8995 14.6174C79.0574 14.1435 76.6115 7.77262 69.7567 5.98993C66.4132 5.0223 62.8323 5.29872 59.6769 6.76802C56.5215 8.23733 54.0052 10.8 52.5938 13.9818Z" fill="#4B1010"/>
<path d="M55.5532 69.7866C61.1554 74.7551 67.9009 78.2586 75.1873 79.9844C76.7154 80.3317 78.8416 80.4092 80.2018 81.0042C81.5621 81.5992 81.2094 81.8476 82.4837 82.5277C92.6899 81.6843 94.8521 74.2399 94.8905 74.1586C91.4876 70.262 90.2478 70.0834 86.8442 69.7828C84.2027 69.5489 79.8246 71.7418 74.3838 68.7094C75.1763 67.0416 76.0993 65.439 77.144 63.9164C73.8001 62.5513 71.008 60.1082 69.2113 56.975C68.6745 58.0117 67.9967 60.2575 67.3182 61.2888C66.4947 62.5386 65.8828 62.5225 64.3922 61.0319C61.3459 57.9248 57.9746 55.154 54.3363 52.7671C51.4618 51.2712 49.5058 49.9386 45.5333 51.9628C43.5887 52.9952 41.7119 54.1508 39.9146 55.4224C46.9104 56.4214 48.552 63.6894 55.5532 69.7866Z" fill="white"/>
<path d="M95.1116 74.4837C91.9296 80.1438 87.8965 82.2823 82.3437 82.4525C81.2342 81.8299 81.5095 81.5777 80.2022 81.0057C78.5084 80.265 67.3039 80.1124 55.5535 69.7866C48.3338 63.5522 46.4583 56.8316 39.9985 55.2789C29.0731 62.5101 7.47681 77.3958 4.81083 90.1852C3.96127 94.265 4.81083 98.9399 7.9545 101.66C11.3704 104.472 16.1587 105.389 20.9586 106.079C30.1703 107.405 37.1929 107.015 46.4576 106.334C50.5374 105.995 56.0619 104.974 60.2268 105.825C61.1883 103.718 61.4797 99.4828 61.4797 99.4828H104.812C104.812 99.4828 98.7997 80.5379 95.1116 74.4837Z" fill="#FFE55D"/>
<path d="M105.381 99.4199C101.713 90.3776 102.774 90.6421 99.0053 81.5684C97.1751 77.1596 95.3134 72.4165 90.9545 70.2811C86.4836 68.089 81.8593 71.0157 77.314 69.5849C77.2388 69.5612 77.1572 69.5684 77.0872 69.6049C77.0173 69.6413 76.9647 69.7041 76.941 69.7793C76.9173 69.8545 76.9245 69.9361 76.9609 70.0061C76.9974 70.076 77.0601 70.1286 77.1353 70.1523C83.2218 72.0692 89.0606 66.6145 94.6855 74.2966C92.8506 78.6034 88.9893 81.274 83.2011 82.2409C80.4768 82.7853 79.1373 82.132 79.1373 82.7876C79.1373 82.8666 79.1688 82.9425 79.2247 82.9977C79.2522 83.0254 79.285 83.0474 79.321 83.0624C79.3571 83.0774 79.3958 83.0851 79.4348 83.0851C85.9622 83.0851 92.3438 80.8462 95.0849 74.8663C96.3284 76.8736 97.3746 78.9967 98.2087 81.2058C102.481 91.5001 100.969 90.1346 104.828 99.6438C104.858 99.7169 104.916 99.7753 104.988 99.8063C105.024 99.8221 105.063 99.8304 105.102 99.8308C105.141 99.8312 105.18 99.8236 105.216 99.8086C105.289 99.7788 105.348 99.7212 105.379 99.6483C105.41 99.5755 105.41 99.4933 105.381 99.4199Z" fill="#4B1010"/>
<path d="M66.348 49.8971C64.2655 31.5319 83.8996 12.4705 96.012 20.5743C97.4322 21.5675 98.6931 22.771 99.7514 24.1435C101.119 25.5623 102.239 27.2 103.066 28.9886C104.317 31.7673 103.562 33.4043 102.812 36.1278C101.945 39.2715 101.625 42.6735 100.771 45.818C98.7401 53.2999 94.2109 61.3186 86.3218 63.7515C77.1361 66.5846 67.4076 59.2422 66.348 49.8971Z" fill="white"/>
<path d="M102.811 33.6635C102.658 40.9874 99.7368 50.5917 94.8219 57.037C87.6382 66.4558 76.7059 65.8807 70.6831 58.5667C66.9467 54.0283 65.2944 48.6856 66.8578 41.8232C66.9345 41.4812 66.3479 41.3126 66.2628 41.653C65.7232 44.2809 65.6085 46.9783 65.9231 49.6425C66.3328 52.2677 67.3045 54.7735 68.772 56.9885C70.2394 59.2035 72.1679 61.0755 74.4256 62.4764C81.0641 66.34 89.0452 64.4308 93.8044 58.9922C99.5949 52.3744 102.693 42.7502 103.324 34.8535C103.324 33.8736 103.659 33.2379 103.069 33.2379C102.939 33.3482 102.849 33.4975 102.811 33.6635Z" fill="#4B1010"/>
<path d="M102.98 40.0379C101.536 49.8124 96.0749 62.749 86.5764 65.7064C84.6026 66.3137 82.5231 66.4988 80.473 66.2498C78.423 66.0008 76.4483 65.3232 74.6772 64.261C75.273 60.2793 76.7395 56.478 78.9722 53.1277C81.205 49.7775 84.149 46.9609 87.5947 44.8784C96.2919 39.5932 102.98 40.0379 102.98 40.0379Z" fill="white"/>
<path d="M102.726 39.9531C101.33 49.7184 95.9279 62.5722 86.4915 65.4513C84.5554 66.0234 82.5222 66.1904 80.5187 65.9418C78.5153 65.6933 76.5845 65.0346 74.8469 64.0068C74.7793 63.9664 74.6987 63.9535 74.6219 63.9709C74.5451 63.9882 74.4779 64.0345 74.4343 64.1C74.3906 64.1655 74.3738 64.2453 74.3874 64.3229C74.401 64.4005 74.4439 64.4699 74.5072 64.5167C83.0948 69.5258 94.9027 66.4711 101.026 49.2177C102.065 46.2618 102.833 43.2176 103.321 40.1225C103.321 39.7829 102.726 39.6134 102.726 39.9531Z" fill="#4B1010"/>
<path d="M70.9471 51.2358C71.6792 51.2358 72.4042 51.0916 73.0806 50.8114C73.757 50.5312 74.3716 50.1206 74.8892 49.6029C75.4069 49.0852 75.8176 48.4706 76.0978 47.7942C76.3779 47.1178 76.5221 46.3928 76.5221 45.6607C76.5221 44.9286 76.3779 44.2036 76.0978 43.5273C75.8176 42.8509 75.4069 42.2363 74.8892 41.7186C74.3716 41.2009 73.757 40.7902 73.0806 40.5101C72.4042 40.2299 71.6792 40.0857 70.9471 40.0857C69.4685 40.0857 68.0505 40.6731 67.005 41.7186C65.9594 42.7641 65.3721 44.1821 65.3721 45.6607C65.3721 47.1393 65.9594 48.5573 67.005 49.6029C68.0505 50.6484 69.4685 51.2358 70.9471 51.2358Z" fill="#FFE55D"/>
<path d="M96.4588 49.8112C95.7147 49.8111 94.978 49.9575 94.2906 50.2421C93.6032 50.5268 92.9786 50.944 92.4524 51.47C91.9262 51.996 91.5088 52.6205 91.224 53.3079C90.9392 53.9952 90.7926 54.7319 90.7925 55.4759C90.7924 56.2199 90.9388 56.9566 91.2234 57.6441C91.5081 58.3315 91.9253 58.9561 92.4513 59.4822C92.9773 60.0084 93.6018 60.4258 94.2892 60.7106C94.9765 60.9954 95.7132 61.1421 96.4572 61.1422C97.9598 61.1424 99.4009 60.5457 100.464 59.4833C101.526 58.421 102.123 56.98 102.123 55.4774C102.124 53.9748 101.527 52.5337 100.465 51.4711C99.4023 50.4085 97.9613 49.8114 96.4588 49.8112Z" fill="#FFE55D"/>
<path d="M61.5879 38.8468C61.5847 40.1351 61.9731 41.3938 62.7016 42.4563C63.43 43.5188 64.4642 44.3347 65.667 44.796L67.2818 33.4068C63.2027 31.6233 61.5879 36.3833 61.5879 38.8468Z" fill="white"/>
<path d="M88.8357 52.9327C88.2946 50.1388 88.0695 47.2929 88.1648 44.4486C88.3504 43.6995 90.3685 42.0855 90.899 41.673C90.9299 41.6489 90.9652 41.6311 91.003 41.6208C91.0407 41.6104 91.0802 41.6075 91.119 41.6125C91.1578 41.6174 91.1953 41.6299 91.2293 41.6494C91.2633 41.6689 91.2931 41.6949 91.3169 41.7259C91.3652 41.7883 91.3867 41.8672 91.3768 41.9454C91.3669 42.0236 91.3263 42.0947 91.264 42.143C90.8308 42.4804 88.8787 44.0423 88.7337 44.615C88.6765 47.3637 88.9052 50.1109 89.4162 52.8123C89.4213 52.8846 89.4001 52.9563 89.3564 53.014C89.3127 53.0718 89.2495 53.1118 89.1786 53.1265C89.1077 53.1412 89.0338 53.1297 88.9708 53.094C88.9077 53.0584 88.8597 53.0011 88.8357 52.9327Z" fill="#4B1010"/>
<path d="M80.882 30.0085C84.09 28.4045 90.862 28.1231 95.076 27.2037C96.5213 29.0738 97.8041 30.9378 99.0708 32.8984C100.44 35.0177 101.898 37.5755 101.706 40.2078C101.075 48.8721 97.1163 49.1021 97.1163 56.3571C96.861 60.6072 95.5828 64.3466 92.6109 67.4918C95.3573 65.6396 97.5583 63.0865 98.9857 60.0973C100.397 57.0609 99.7524 53.4695 101.111 50.4079C102.39 47.5195 104.303 44.7048 105.022 41.568C106.152 36.624 107.31 31.7099 106.212 26.6087C103.648 14.7126 86.6755 7.84869 76.0353 13.0948C68.5365 16.7928 63.0205 24.9894 62.3527 32.3034C62.2829 33.0701 62.5229 34.8536 62.0981 35.5329C62.5102 34.6418 63.1563 33.8792 63.9675 33.3262C64.3821 33.0603 64.8802 32.9566 65.3665 33.0351C65.8528 33.1137 66.293 33.3688 66.6028 33.7518C67.3695 35.0261 66.1941 37.5794 65.9227 38.8514C64.9788 43.2702 63.2391 47.3838 65.3277 53.1306C65.2224 48.1436 66.6601 43.2458 69.4442 39.1071C72.2284 34.9683 76.2231 31.7906 80.882 30.0085Z" fill="#FFE55D"/>
<path d="M106.501 26.5466C103.931 14.55 86.8903 7.59713 75.902 12.8294C66.4802 17.6369 61.9111 27.5993 62.0453 33.3093C62.1051 35.8725 61.29 36.9253 61.29 38.8483C61.2922 39.9609 61.5711 41.0554 62.1017 42.0334C62.6323 43.0113 63.3979 43.8418 64.3294 44.4502C63.7651 47.3868 64.0135 50.4231 65.0479 53.2294C65.0727 53.2954 65.12 53.3504 65.1815 53.3848C65.243 53.4192 65.3147 53.4307 65.3838 53.4173C65.453 53.4038 65.5152 53.3664 65.5594 53.3115C65.6035 53.2567 65.6269 53.1879 65.6252 53.1175C65.4729 48.1822 66.8738 43.3237 69.6304 39.2271C72.387 35.1306 76.3601 32.0029 80.9894 30.2852C86.5598 28.2334 89.6214 28.6659 94.9549 27.5341C96.4976 29.543 97.8287 31.5373 98.8201 33.0586C100.259 35.3059 101.568 37.7258 101.409 40.184C100.716 48.7386 96.8174 49.145 96.8189 56.3394C96.549 60.8448 95.1021 64.4255 92.3947 67.287C92.3589 67.3272 92.3346 67.3764 92.3244 67.4293C92.3142 67.4822 92.3185 67.5368 92.3368 67.5875C92.3551 67.6381 92.3868 67.6829 92.4284 67.7171C92.47 67.7512 92.5201 67.7735 92.5734 67.7816C92.6448 67.792 92.7175 67.7762 92.7781 67.7371C95.5508 65.8323 97.7828 63.2416 99.2564 60.2176C100.62 57.1506 100.059 53.5016 101.382 50.5274C102.657 47.636 104.621 44.8182 105.308 41.6377C106.642 36.1187 107.576 31.5036 106.501 26.5466ZM66.3475 33.9012C67.1066 35.1656 65.7096 37.4827 64.4513 43.8138C58.8449 39.8435 63.8027 31.0719 66.3475 33.9012ZM104.729 41.5051C104.062 44.5928 102.112 47.4014 100.839 50.2866C98.7342 55.0221 101.385 59.3059 94.5071 65.604C96.3013 62.8437 97.3058 59.6464 97.4131 56.357C97.3082 53.8933 97.9473 51.4551 99.2472 49.3596C100.799 46.5435 101.738 43.4313 102.003 40.2269C102.172 37.5931 100.814 35.0713 99.3193 32.7358C98.2957 31.1655 96.9147 29.0975 95.3107 27.022C95.0807 26.7275 95.2992 27.0327 89.7387 27.7519C87.5995 28.0279 82.999 28.616 80.7609 29.7362C76.3601 31.4163 72.537 34.3293 69.7492 38.1263C66.9615 41.9234 65.3274 46.4435 65.0425 51.1454C63.9652 46.5334 65.1851 43.4235 66.2095 38.9066C66.4717 37.5954 67.7123 35.0245 66.8229 33.5508C65.7564 32.3516 64.1799 32.2911 62.6472 34.1121C62.6541 33.5754 62.6089 32.7534 62.6472 32.3248C63.2698 25.4685 68.2445 17.4031 76.1627 13.3631C86.7568 8.31865 103.418 15.0078 105.918 26.6715C106.968 31.5059 106.045 36.0543 104.729 41.5051Z" fill="#4B1010"/>
<path d="M102.301 35.7881C102.176 40.184 100.885 44.4676 98.5611 48.201C96.6442 51.2266 95.9265 53.1772 95.9265 57.0409C95.5861 62.3108 93.8862 66.9856 89.6392 70.8102C93.3962 68.6492 96.4611 65.4642 98.4759 61.6268C100.413 57.8352 99.5808 53.382 101.451 49.6425C103.236 46.0725 105.92 42.6866 106.975 38.678C107.243 37.6613 107.486 36.6385 107.742 35.6179C105.956 35.7881 104.171 35.7881 102.301 35.7881Z" fill="#FFE55D"/>
<path d="M89.6372 71.1039C89.5922 71.1039 89.5478 71.0936 89.5073 71.074C89.4669 71.0543 89.4314 71.0257 89.4036 70.9904C89.3757 70.955 89.3563 70.9138 89.3467 70.8699C89.3371 70.8259 89.3376 70.7803 89.3481 70.7366C89.362 70.6781 89.3933 70.6252 89.4378 70.5848C93.2885 67.1199 95.2559 62.8084 95.6293 57.0179C95.4951 53.8071 96.4399 50.6438 98.313 48.0324C100.574 44.3356 101.845 40.1188 102.004 35.7882C102.005 35.7096 102.036 35.6343 102.091 35.5781C102.147 35.5224 102.222 35.491 102.301 35.4907C107.955 35.4907 107.756 35.1802 107.966 35.424C108.109 35.5911 108.127 35.4723 107.264 38.7501C106.191 42.8216 103.502 46.206 101.717 49.7752C99.8764 53.4495 100.643 57.8698 98.7431 61.7572C95.5649 67.7187 90.0581 71.1039 89.6372 71.1039ZM102.599 36.0865C102.599 39.2547 101.372 44.0951 98.8167 48.3544C96.9975 50.8746 96.0839 53.9359 96.2243 57.0409C95.9092 61.9259 94.4953 65.7819 91.8178 68.9846C94.4637 66.9752 96.6454 64.4191 98.2141 61.4904C100.048 57.7379 99.2875 53.3061 101.185 49.5138C102.979 45.9261 105.599 42.5471 106.689 38.6029L107.351 35.9546C105.786 36.078 104.231 36.0865 102.599 36.0865Z" fill="#4B1010"/>
<path d="M85.3772 59.1043C82.2565 58.0639 78.4987 56.5074 77.1293 53.6819C77.1034 53.6288 77.0938 53.5692 77.1019 53.5107C77.11 53.4522 77.1353 53.3975 77.1746 53.3534C77.2139 53.3093 77.2654 53.2779 77.3226 53.2633C77.3798 53.2486 77.4401 53.2512 77.4958 53.2709C77.5703 53.297 77.6315 53.3516 77.666 53.4227C78.9388 56.0473 82.5571 57.5363 85.5673 58.54C85.6422 58.5652 85.7039 58.6191 85.739 58.6899C85.7741 58.7606 85.7796 58.8424 85.7544 58.9173C85.7292 58.9921 85.6753 59.0538 85.6046 59.0889C85.5338 59.124 85.452 59.1296 85.3772 59.1043Z" fill="#4B1010"/>
<path d="M87.342 36.2558C84.5302 35.4818 81.5619 35.4783 78.7483 36.2458C78.6928 36.2596 78.6345 36.2571 78.5803 36.2387C78.5261 36.2203 78.4784 36.1868 78.4427 36.1421C78.4071 36.0974 78.3849 36.0433 78.379 35.9864C78.3731 35.9296 78.3837 35.8722 78.4094 35.8211C78.4448 35.7528 78.5052 35.7008 78.5781 35.6762C81.4736 34.8962 84.5237 34.8944 87.4202 35.6708C87.4889 35.6908 87.5482 35.7348 87.5875 35.7946C87.6267 35.8545 87.6432 35.9264 87.6342 35.9974C87.6241 36.0682 87.5892 36.1331 87.5357 36.1804C87.4822 36.2278 87.4135 36.2545 87.342 36.2558Z" fill="#4B1010"/>
<path d="M101.536 41.3554C101.035 41.3554 101.463 40.778 100.856 39.7659C100.438 38.9574 99.8521 38.2478 99.137 37.685C98.4218 37.1222 97.5943 36.7193 96.7102 36.5034C96.672 36.4949 96.6359 36.4789 96.6039 36.4563C96.5719 36.4338 96.5447 36.4051 96.5238 36.3719C96.503 36.3387 96.489 36.3018 96.4825 36.2631C96.4761 36.2245 96.4774 36.185 96.4863 36.1469C96.4948 36.1087 96.5107 36.0725 96.5332 36.0405C96.5557 36.0085 96.5843 35.9813 96.6174 35.9605C96.6505 35.9397 96.6874 35.9256 96.726 35.9192C96.7646 35.9128 96.804 35.914 96.8421 35.923C100.845 36.8323 102.59 41.3554 101.536 41.3554Z" fill="#4B1010"/>
<path d="M83.6873 40.8456C83.3392 40.8456 81.7559 38.7754 78.2863 39.2278C78.2081 39.2379 78.1291 39.2166 78.0666 39.1685C78.0041 39.1204 77.9633 39.0495 77.9532 38.9713C77.943 38.8931 77.9643 38.8141 78.0124 38.7516C78.0605 38.6891 78.1315 38.6483 78.2096 38.6381C79.2212 38.4902 80.2528 38.5645 81.2326 38.8558C82.2125 39.1471 83.1172 39.6485 83.8836 40.325C83.9289 40.3649 83.9609 40.4177 83.9755 40.4763C83.9901 40.5349 83.9865 40.5966 83.9652 40.6531C83.9439 40.7096 83.9059 40.7582 83.8562 40.7926C83.8066 40.827 83.7477 40.8455 83.6873 40.8456Z" fill="#4B1010"/>
<path d="M101.261 47.0418C101.223 46.3072 99.6657 47.4037 96.8449 45.6494C95.8895 44.3857 94.1382 46.2282 93.7779 47.7702C93.4252 48.7094 94.3146 50.0973 95.4709 49.3136C95.9457 49.0021 96.3417 48.5843 96.6274 48.0934C96.9131 47.6025 97.0807 47.0519 97.1171 46.4851C98.1997 47.0525 99.4019 47.3538 100.624 47.3638C100.927 47.3638 101.277 47.3807 101.261 47.0418Z" fill="#4B1010"/>
<path d="M77.907 53.4249C77.6003 53.4249 76.2017 52.3261 75.5048 50.5112C75.4764 50.4376 75.4784 50.3557 75.5104 50.2836C75.5424 50.2115 75.6017 50.1551 75.6754 50.1267C75.749 50.0983 75.8308 50.1004 75.903 50.1324C75.9751 50.1644 76.0315 50.2237 76.0599 50.2973C76.4415 51.3483 77.1458 52.2516 78.0718 52.8782C78.1254 52.9136 78.1662 52.9652 78.1883 53.0255C78.2104 53.0858 78.2125 53.1516 78.1945 53.2133C78.1756 53.2747 78.1375 53.3284 78.0857 53.3665C78.0339 53.4046 77.9713 53.4251 77.907 53.4249Z" fill="#4B1010"/>
<path d="M126.62 55.0052C124.841 41.834 113.996 33.6497 100.979 35.3765C77.9102 38.435 63.2668 68.3796 77.1228 85.2642L59.6409 108.194C59.5248 108.337 59.439 108.502 59.3889 108.68C59.3388 108.857 59.3254 109.043 59.3495 109.226C59.45 110.002 59.6999 109.937 63.3619 112.786C63.5064 112.9 63.6721 112.984 63.8494 113.034C64.0267 113.083 64.212 113.097 64.3947 113.075C64.5776 113.053 64.7542 112.994 64.9138 112.902C65.0733 112.81 65.2128 112.689 65.3256 112.542L82.5406 89.9613C101.826 101.6 129.959 79.7145 126.62 55.0052ZM120.934 56.9528C121.843 63.5253 119.792 70.6776 115.307 76.5815C107.2 87.2532 93.3978 90.495 84.5388 83.8097C75.166 76.6475 75.7763 62.2771 83.4293 52.281C95.8943 36.0037 118.43 38.8276 120.934 56.9528Z" fill="#4B1010"/>
<path d="M102.315 81.9074C115.204 78.7292 120.975 64.6931 116.723 52.1177C116.698 52.043 116.704 51.9613 116.739 51.8906C116.774 51.8199 116.835 51.766 116.91 51.7408C116.985 51.7156 117.067 51.7211 117.137 51.7561C117.208 51.7911 117.262 51.8528 117.287 51.9275C121.651 64.8342 115.686 79.2238 102.457 82.484C102.419 82.4935 102.38 82.4954 102.341 82.4896C102.303 82.4837 102.266 82.4703 102.232 82.4501C102.199 82.4298 102.17 82.4032 102.147 82.3716C102.123 82.3401 102.107 82.3043 102.098 82.2663C102.079 82.1898 102.092 82.1091 102.133 82.0419C102.173 81.9746 102.239 81.9263 102.315 81.9074Z" fill="#4B1010"/>
<path d="M77.9066 97.3253C77.9066 97.0761 77.4642 97.1052 77.3116 97.4104C75.867 99.1946 73.7416 98.1771 72.2119 97.3253C69.7468 96.0502 70.4269 93.3305 71.9574 91.6306C65.8885 88.9754 64.592 93.1534 61.2336 94.3733C61.4997 96.4941 61.5833 98.6341 61.4828 100.77C61.4019 102.458 61.0242 104.119 60.3672 105.677C60.7728 105.74 61.1439 105.942 61.4176 106.248C62.5088 107.326 63.8417 108.127 65.3053 108.585C66.769 109.044 68.321 109.146 69.8319 108.882C72.9304 108.72 73.8957 106.818 74.598 105.09C77.2372 103.787 77.1145 101.698 76.5625 101.427C78.1665 100.34 78.6311 98.628 77.9066 97.3253Z" fill="white"/>
<path d="M78.1937 97.2301C78.0718 96.6934 77.279 96.793 77.0812 97.2232C75.8705 98.7184 74.0955 98.0306 72.3488 97.0606C70.2226 95.9611 70.6152 93.5666 72.1786 91.8299C72.2098 91.7946 72.2323 91.7525 72.2442 91.707C72.2562 91.6614 72.2574 91.6137 72.2476 91.5677C72.2375 91.5217 72.2168 91.4787 72.1871 91.4423C72.1574 91.4058 72.1196 91.3768 72.0766 91.3576C65.879 88.6486 64.426 92.8458 61.1934 94.0719C61.2194 94.2566 61.2455 94.4552 61.27 94.6753C64.7649 93.4554 65.7939 89.4944 71.4678 91.7486C69.8484 93.8004 69.7403 96.3813 72.0674 97.5851C73.2942 98.2675 75.8505 99.6883 77.5773 97.5429C77.5925 97.5124 77.6173 97.4876 77.6478 97.4724C77.8349 97.8349 77.9325 98.2368 77.9325 98.6448C77.9325 99.0527 77.8349 99.4546 77.6478 99.8171C76.7469 101.542 74.2741 102.212 72.5535 102.212C72.481 102.214 72.4117 102.243 72.3586 102.292C72.3055 102.342 72.2723 102.409 72.2651 102.481C72.258 102.553 72.2774 102.626 72.3198 102.685C72.3621 102.744 72.4245 102.785 72.4953 102.801C73.9098 102.989 75.3432 102.638 76.5107 101.818L76.5176 101.827C77.1264 103.958 73.8286 105.464 71.5989 105.613C71.5257 105.618 71.457 105.65 71.4059 105.703C71.3549 105.755 71.3251 105.825 71.3223 105.899C71.3196 105.972 71.344 106.044 71.391 106.1C71.4379 106.156 71.5041 106.194 71.5767 106.204C72.4227 106.292 73.2751 106.113 74.0134 105.69C73.8601 106.086 73.7175 106.432 73.6691 106.506C73.2318 107.135 72.652 107.652 71.9769 108.014C71.3019 108.377 70.5507 108.574 69.7848 108.591C68.3205 108.843 66.8172 108.743 65.3992 108.3C63.9811 107.856 62.689 107.081 61.6296 106.039C61.326 105.708 60.9257 105.482 60.4857 105.391C60.4052 105.596 60.3223 105.792 60.2388 105.979C60.425 105.988 60.6073 106.035 60.7743 106.118C60.9413 106.201 61.0895 106.318 61.2095 106.46C62.3306 107.567 63.6989 108.391 65.2013 108.864C66.7037 109.337 68.2971 109.446 69.85 109.181C70.6913 109.153 71.5147 108.93 72.256 108.531C72.9973 108.132 73.6365 107.568 74.1238 106.881C74.4184 106.399 74.642 105.876 74.7878 105.33C75.0033 105.221 75.2164 105.1 75.4235 104.973C77.0014 104.053 77.4937 102.331 77.0007 101.476C78.5227 100.282 78.9014 98.5704 78.1937 97.2301Z" fill="#4B1010"/>
<path d="M77.6814 79.86C67.9989 78.8916 57.7374 72.6725 51.3635 64.9222C48.2512 61.1406 45.2954 56.5846 40.5584 55.1991C42.9354 53.5122 45.4426 51.6766 48.3494 51.4689C55.622 50.949 59.5638 59.1708 66.5581 62.4671C67.1523 63.6432 68.0114 64.6652 69.0677 65.4528C71.0773 66.915 72.9911 67.9662 75.355 67.2378C75.4839 67.2378 75.8465 66.8414 75.881 66.7647L77.3263 63.5344C77.3506 63.4807 77.3583 63.421 77.3485 63.3629C77.3387 63.3047 77.3118 63.2509 77.2713 63.2081C77.2307 63.1653 77.1784 63.1356 77.1208 63.1227C77.0633 63.1098 77.0033 63.1143 76.9483 63.1357C76.9118 63.1495 76.8783 63.1705 76.8499 63.1973C76.8215 63.2242 76.7986 63.2564 76.7827 63.2921L75.947 65.1607C74.2847 65.7465 72.4644 65.104 71.0198 64.0934C69.6518 63.2872 68.5435 62.1057 67.8263 60.689C68.4071 59.5288 68.9192 58.3355 69.3598 57.1152L68.7993 56.9128C67.7259 59.8617 67.7665 59.1747 66.5167 61.7893C59.6881 58.3765 55.9172 50.3417 48.3018 50.8769C45.3161 51.0901 42.8142 52.8659 40.3951 54.5826C36.6396 57.2486 7.74465 74.9666 4.60405 90.0402C3.64408 94.6499 4.91688 99.2657 7.85123 101.804C9.30435 103.019 10.9844 103.933 12.7937 104.493C18.039 106.242 27.1994 107.253 32.858 107.253C46.9079 107.253 54.5148 104.86 60.2532 106.031C60.3191 106.045 60.3879 106.036 60.448 106.006C60.5082 105.975 60.556 105.925 60.5836 105.864C62.4016 101.883 61.5451 98.3302 61.5451 94.1806C61.545 94.1094 61.5193 94.0406 61.4727 93.9867C61.4261 93.9328 61.3618 93.8974 61.2913 93.8869C59.5753 93.6293 57.7712 93.7965 56.105 93.5465C44.3439 91.8681 40.3345 88.7375 33.1409 87.8434C37.7268 85.6375 40.7379 78.953 47.0904 72.8059C47.132 72.7647 47.1606 72.7122 47.1726 72.6548C47.1847 72.5975 47.1796 72.5379 47.158 72.4834C47.1365 72.4289 47.0994 72.382 47.0514 72.3484C47.0033 72.3148 46.9465 72.2961 46.888 72.2945C46.8091 72.2932 46.733 72.3233 46.6763 72.3781C39.8239 79.0105 37.0989 85.8177 32.1533 87.6149C31.3981 87.9178 28.1885 86.9762 21.3797 89.1377C21.3073 89.1637 21.2478 89.2168 21.2137 89.2859C21.1795 89.3549 21.1735 89.4344 21.1969 89.5078C21.2202 89.5812 21.2711 89.6427 21.3388 89.6793C21.4065 89.7159 21.4857 89.7249 21.5599 89.7043C35.1621 85.3868 39.8231 91.819 56.0184 94.1354C57.6539 94.3807 59.343 94.2396 60.9517 94.4421C60.9823 98.3678 61.7238 101.74 60.1374 105.407C53.5571 104.187 38.9881 108.28 21.0807 105.703C16.6251 105.062 11.3729 104.068 8.23537 101.354C5.46587 98.9552 4.26744 94.5632 5.18754 90.1613C7.22556 80.3799 21.0117 68.986 29.1239 63.0583C35.7946 58.2684 38.2666 56.8031 39.9243 55.6461C44.7288 56.7962 47.7352 61.4481 50.9065 65.3071C58.5034 74.5457 69.8766 79.8754 77.6231 80.4558C77.6622 80.4596 77.7017 80.4557 77.7393 80.4443C77.7769 80.4328 77.8119 80.4141 77.8423 80.3892C77.8726 80.3642 77.8978 80.3335 77.9163 80.2988C77.9348 80.2642 77.9463 80.2262 77.9501 80.1871C77.9539 80.1479 77.95 80.1084 77.9386 80.0708C77.9271 80.0332 77.9084 79.9983 77.8835 79.9679C77.8585 79.9375 77.8278 79.9124 77.7931 79.8939C77.7585 79.8754 77.7205 79.8639 77.6814 79.86Z" fill="#4B1010"/>
<path d="M88.6163 99.6621C88.5445 99.6622 88.475 99.6362 88.4209 99.589C88.3667 99.5417 88.3316 99.4764 88.3219 99.4052C87.9945 96.9124 87.7951 94.4044 87.7246 91.8911C87.725 91.8142 87.7551 91.7404 87.8087 91.6852C87.8623 91.63 87.9352 91.5977 88.0121 91.5951C88.089 91.5926 88.1639 91.6199 88.2211 91.6713C88.2783 91.7228 88.3133 91.7944 88.3188 91.8712C88.5726 99.2381 89.2865 99.6621 88.6163 99.6621Z" fill="#4B1010"/>
<path d="M56.6018 148.711C61.558 148.269 65.2944 144.765 64.9486 140.884C64.602 137.004 60.3036 134.216 55.3481 134.659C50.3919 135.101 46.6547 138.605 47.0013 142.486C47.3479 146.366 51.6463 149.153 56.6018 148.711Z" fill="#FFE55D"/>
<path d="M65.3679 141.412C64.4624 131.03 45.8327 132.482 46.7559 143.078C47.1001 147.029 50.5727 150.34 56.7604 149.979C62.455 149.629 65.7222 145.486 65.3679 141.412ZM55.3749 134.954C63.0853 134.272 67.5762 141.165 62.5609 145.869C60.8841 147.328 58.7897 148.219 56.5764 148.417C54.3631 148.614 52.1439 148.108 50.2354 146.97C44.4395 143.213 47.7181 135.639 55.3749 134.954Z" fill="#4B1010"/>
<path d="M59.4044 137.118C58.8659 136.951 58.2863 136.975 57.7632 137.185C57.2401 137.395 56.8054 137.779 56.5322 138.273C56.2148 138.907 56.3121 140.142 55.6382 140.021C55.1543 139.93 55.0048 139.312 54.899 138.942C54.2779 136.763 51.6618 137.014 50.7831 138.559C49.8285 139.939 50.5032 142.264 52.3227 142.37C53.0155 142.266 53.7016 142.123 54.3776 141.939C54.5284 141.958 54.6682 142.028 54.7736 142.137C54.8791 142.247 54.9439 142.389 54.9573 142.54C54.9887 142.858 54.7066 142.924 54.3485 143.494C54.1189 143.822 53.9833 144.206 53.9564 144.605C53.9294 145.004 54.0122 145.403 54.1956 145.758C54.3791 146.113 54.6563 146.412 54.9972 146.621C55.3381 146.83 55.7297 146.942 56.1296 146.944C57.542 146.944 59.0011 145.846 58.778 144.436C58.5411 142.777 57.003 142.621 57.1379 141.945C57.5313 141.359 57.8686 141.691 59.2081 141.691C59.7463 141.607 60.2374 141.335 60.5946 140.924C60.9518 140.513 61.1519 139.989 61.1595 139.444C61.1421 138.923 60.9642 138.42 60.6501 138.003C60.336 137.587 59.9009 137.278 59.4044 137.118Z" fill="white"/>
<path d="M92.6059 118.153C92.8183 115.109 89.8395 112.421 85.9528 112.15C82.0654 111.879 78.7423 114.127 78.5307 117.171C78.3183 120.215 81.2971 122.903 85.1838 123.174C89.0704 123.445 92.3935 121.197 92.6059 118.153Z" fill="#FFE55D"/>
<path d="M80.6966 113.171C79.9914 113.638 79.3969 114.253 78.9552 114.975C78.5134 115.696 78.235 116.505 78.1395 117.346C78.0441 118.186 78.1339 119.038 78.4027 119.84C78.6715 120.642 79.1127 121.375 79.6953 121.988C83.2913 125.949 92.4233 125.05 92.9018 118.175C93.2614 113.026 85.5624 109.88 80.6966 113.171ZM81.0302 113.664C85.4083 110.702 92.6395 113.391 92.3091 118.132C91.9832 122.796 84.4951 124.578 80.5188 120.991C78.0629 118.775 78.2898 115.521 81.0302 113.664Z" fill="#4B1010"/>
<path d="M85.1981 122.959C81.806 122.722 78.604 120.374 78.8264 117.189C79.0303 114.267 82.2185 112.106 85.9372 112.359C89.6559 112.611 92.5121 115.207 92.3089 118.128C92.1218 120.812 89.2151 123.236 85.1981 122.959ZM79.4206 117.231C79.2189 120.114 82.2507 122.157 85.2395 122.368C88.6293 122.605 91.5345 120.685 91.7147 118.09C91.8948 115.495 89.2856 113.192 85.8958 112.953C82.8257 112.737 79.6169 114.414 79.4206 117.233V117.231Z" fill="white"/>
<path d="M90.1024 117.384C90.1024 117.083 89.8318 117.087 89.4415 117.038C89.4959 116.211 89.2176 115.385 87.3582 115.132C87.0808 115.087 86.7973 115.1 86.5249 115.169C86.2525 115.237 85.997 115.361 85.7741 115.532C85.6614 115.64 85.6514 115.081 84.4001 114.963C82.9885 114.831 82.3375 115.161 82.0845 116.293L81.593 116.238C81.5516 116.234 81.5098 116.238 81.4703 116.251C81.4307 116.264 81.3943 116.286 81.3633 116.313C81.3324 116.341 81.3075 116.375 81.2903 116.413C81.2731 116.451 81.2639 116.492 81.2633 116.534C81.2495 116.656 81.2572 116.78 81.2848 116.9C81.156 117.015 81.1782 117.13 81.1782 117.384C81.1787 117.457 81.2058 117.527 81.2546 117.582C81.3033 117.636 81.3702 117.671 81.4428 117.679L81.9312 117.734C81.8698 118.396 81.5838 118.904 82.0377 118.954L88.9554 119.721C89.2797 119.721 89.2513 119.456 89.3786 118.565C89.762 118.613 89.8739 118.655 90.002 118.542C90.13 118.428 90.1024 118.329 90.1024 118.064C90.1027 118.024 90.0949 117.985 90.0796 117.949C90.0643 117.912 90.0418 117.879 90.0135 117.852C90.1201 117.745 90.1024 117.656 90.1024 117.384ZM83.8572 117.549C83.9516 116.81 83.7369 116.662 84.4507 116.662C84.8341 116.662 84.7451 116.976 84.6899 117.648L83.8572 117.549ZM86.5769 117.889C86.6712 117.15 86.4558 117.001 87.1704 117.001C87.576 117.001 87.4671 117.292 87.4096 117.987L86.5769 117.889Z" fill="white"/>
<path d="M82.3426 142.628C87.2245 142.615 91.1748 139.561 91.1656 135.806C91.1564 132.051 87.1915 129.016 82.3096 129.028C77.4269 129.04 73.4767 132.094 73.4859 135.849C73.4951 139.604 77.4607 142.639 82.3426 142.628Z" fill="#FFE55D"/>
<path d="M91.4629 135.806C91.4552 132.413 88.0263 128.724 82.3087 128.731C77.2704 128.737 73.1798 131.938 73.189 135.85V137.125C73.1974 140.523 76.6309 144.207 82.3432 144.2C87.3815 144.194 91.4729 140.994 91.4675 137.081C91.4614 135.807 91.4629 135.882 91.4629 135.806ZM82.3102 129.323C86.4054 129.323 90.8587 131.77 90.8679 135.804C90.8771 139.39 87.0518 142.316 82.3417 142.327C78.1445 142.322 73.7939 139.821 73.784 135.846C73.7755 132.263 77.6001 129.337 82.3102 129.323Z" fill="#4B1010"/>
<path d="M82.2407 138.463L75.4404 135.403L82.3251 132.343L84.9604 135.317L82.2407 138.463Z" fill="white"/>
<path d="M85.1825 135.12C82.4031 131.983 82.4851 131.948 82.2045 132.071C75.089 135.215 75.1443 135.106 75.1427 135.403C75.1412 135.699 75.0661 135.568 82.1201 138.734C82.4077 138.863 82.3134 138.83 85.1871 135.514C85.2342 135.459 85.2598 135.388 85.2592 135.316C85.2579 135.244 85.2307 135.174 85.1825 135.12ZM80.4448 135.618L81.588 137.842L76.7782 135.678L80.4448 135.618ZM80.4509 135.023L76.9477 135.058L81.6172 132.983L80.4509 135.023ZM82.3034 137.937L80.9639 135.33L82.3778 132.855L84.5645 135.324L82.3034 137.937Z" fill="#4B1010"/>
<path d="M89.2633 135.054C83.0634 131.828 83.2543 131.804 83.0335 132.064C82.8127 132.324 82.9254 132.305 85.2663 135.399C83.0051 138.33 82.9039 138.312 83.1194 138.567C83.1632 138.619 83.2234 138.654 83.2901 138.667C83.3567 138.68 83.4258 138.67 83.4859 138.638C89.7395 135.314 89.4251 135.571 89.4236 135.315C89.4237 135.261 89.4088 135.208 89.3805 135.162C89.3522 135.116 89.3116 135.079 89.2633 135.054Z" fill="#4B1010"/>
</svg>
