<svg width="155" height="156" viewBox="0 0 155 156" fill="none" xmlns="http://www.w3.org/2000/svg">
<path fill-rule="evenodd" clip-rule="evenodd" d="M114.16 113.046C114.16 113.046 118.863 129.752 118.883 140.802L91.5075 136.936C91.5075 136.936 90.8377 121.528 92.3189 116.513C93.8 111.499 94.3567 112.171 94.3567 112.171L114.16 113.046Z" fill="#FFD997"/>
<path fill-rule="evenodd" clip-rule="evenodd" d="M56.6343 92.4876L58.5103 110.063C103.751 112.726 85.2003 111.844 140.723 113.837C140.723 113.837 148.92 114.806 149.954 107.957C150.988 101.108 150.909 20.4667 150.909 20.4667C150.909 20.4667 152.249 11.8966 146.754 10.7329C141.259 9.56916 70.8944 27.2012 63.3308 29.4697C55.7671 31.7383 54.7289 36.9273 54.701 40.9418C54.6731 44.9563 56.6343 92.4876 56.6343 92.4876Z" fill="#FFD997"/>
<path d="M146.834 10.3558C141.152 9.15183 69.2283 27.2964 63.2201 29.102C55.2957 31.4789 54.3426 36.9993 54.3162 40.9426C54.2876 44.9207 56.2294 92.0316 56.2519 92.5077C56.2539 92.5586 56.266 92.6085 56.2874 92.6547C56.3088 92.7008 56.339 92.7423 56.3765 92.7768C56.4139 92.8113 56.4577 92.8381 56.5055 92.8556C56.5533 92.8731 56.604 92.8811 56.6549 92.879C56.7057 92.8769 56.7556 92.8648 56.8018 92.8434C56.848 92.8221 56.8895 92.7918 56.9239 92.7544C56.9584 92.7169 56.9852 92.6731 57.0027 92.6253C57.0202 92.5776 57.0282 92.5268 57.0261 92.476C57.0068 92.0006 55.0657 44.9083 55.0944 40.9488C55.1199 37.2494 56.0149 32.0735 63.4478 29.8445C71.8259 27.3312 141.312 9.97718 146.68 11.1177C151.75 12.1908 150.546 20.3312 150.529 20.4722C150.529 21.2782 150.594 101.16 149.577 107.901C148.612 114.295 141.092 113.491 140.744 113.453C91.6561 111.694 94.5889 111.773 94.3017 111.835C94.1027 111.932 92.908 112.662 92.0161 116.291C91.9888 116.326 91.9681 116.366 91.9549 116.408C90.6983 120.666 90.9391 132.187 91.1141 136.637L86.6683 136.025C86.5685 136.014 86.4684 136.043 86.3894 136.105C86.3104 136.167 86.2585 136.257 86.2447 136.356C86.2309 136.456 86.2564 136.557 86.3156 136.638C86.3749 136.719 86.4633 136.774 86.5623 136.791C129.517 142.702 129.14 142.662 129.219 142.662C129.322 142.669 129.423 142.635 129.5 142.567C129.578 142.499 129.625 142.404 129.632 142.301C129.639 142.198 129.605 142.097 129.537 142.02C129.469 141.942 129.373 141.895 129.271 141.888L119.273 140.511C119.201 132.532 116.674 120.788 114.634 113.287L140.685 114.22C141.019 114.252 141.355 114.267 141.691 114.264C143.989 114.264 149.491 113.663 150.344 108.014C151.37 101.214 151.307 23.7612 151.301 20.5279C151.349 20.1625 152.621 11.5814 146.834 10.3558ZM118.491 140.404L91.8876 136.741C91.8496 135.781 91.6708 130.824 91.783 125.89C93.8464 124.99 108.471 118.561 114.197 114.676C115.321 118.976 118.386 131.485 118.491 140.404Z" fill="black"/>
<path fill-rule="evenodd" clip-rule="evenodd" d="M60.1471 96.3348L59.1406 37.1348L144.963 17.9744V105.955L70.5779 105.071L60.1471 96.3348Z" fill="white"/>
<path d="M98.625 109.067C98.625 109.651 98.8064 110.211 99.1293 110.624C99.4523 111.037 99.8902 111.269 100.347 111.269C100.804 111.269 101.242 111.037 101.565 110.624C101.887 110.211 102.069 109.651 102.069 109.067C102.069 108.482 101.887 107.922 101.565 107.509C101.242 107.096 100.804 106.864 100.347 106.864C99.8902 106.864 99.4523 107.096 99.1293 107.509C98.8064 107.922 98.625 108.482 98.625 109.067Z" fill="white"/>
<path d="M100.347 111.657C99.186 111.657 98.2383 110.495 98.2383 109.067C98.2383 107.638 99.1844 106.476 100.347 106.476C101.51 106.476 102.456 107.637 102.456 109.067C102.456 110.496 101.51 111.657 100.347 111.657ZM100.347 107.25C99.6118 107.25 99.0125 108.066 99.0125 109.067C99.0125 110.068 99.6118 110.882 100.347 110.882C101.083 110.882 101.682 110.068 101.682 109.067C101.682 108.066 101.084 107.25 100.347 107.25Z" fill="black"/>
<path d="M122.527 40.6964C103.571 41.3212 104.767 41.2531 104.631 41.3367L99.6433 44.4151C99.5671 44.4621 99.5095 44.5341 99.4805 44.6189C99.4514 44.7036 99.4526 44.7957 99.4838 44.8797L113.145 81.1348C113.173 81.2083 113.223 81.2718 113.287 81.3166C113.352 81.3614 113.428 81.3855 113.507 81.3856C113.584 81.3856 113.361 81.4127 118.473 80.4333C118.684 80.393 118.544 80.5146 120.817 77.3363C120.872 77.2527 120.892 77.151 120.874 77.0526C120.856 76.9542 120.8 76.8667 120.718 76.8085C120.637 76.7503 120.536 76.7259 120.437 76.7404C120.338 76.755 120.249 76.8073 120.187 76.8864L118.516 79.2262L105.373 42.0358L122.55 41.4706C122.601 41.4689 122.651 41.4572 122.697 41.4362C122.744 41.4151 122.786 41.3852 122.82 41.348C122.855 41.3108 122.882 41.2672 122.9 41.2195C122.918 41.1719 122.926 41.1212 122.924 41.0703C122.925 41.0192 122.914 40.9684 122.894 40.9214C122.874 40.8743 122.844 40.8319 122.807 40.7968C122.77 40.7617 122.726 40.7347 122.678 40.7174C122.629 40.7001 122.578 40.693 122.527 40.6964ZM100.317 44.9068L104.629 42.248L117.881 79.7605L113.751 80.5579L100.317 44.9068Z" fill="black"/>
<path d="M144.751 17.6763C142.359 18.1548 129.169 21.1845 59.0577 36.7578C58.9703 36.7773 58.8923 36.8265 58.8371 36.8971C58.7818 36.9677 58.7528 37.0553 58.755 37.1449L59.7615 96.3449C59.7633 96.4476 59.8057 96.5454 59.8796 96.6167C59.9534 96.6881 60.0526 96.7272 60.1552 96.7255C60.2579 96.7237 60.3557 96.6813 60.427 96.6074C60.4984 96.5336 60.5375 96.4344 60.5358 96.3318L60.4196 89.4765L144.55 83.7897V105.563L70.5817 104.684C70.479 104.683 70.3801 104.723 70.3067 104.795C70.2333 104.867 70.1914 104.965 70.1903 105.067C70.1892 105.17 70.2289 105.269 70.3007 105.342C70.3725 105.416 70.4705 105.458 70.5732 105.459C131.412 106.197 142.764 106.36 144.798 106.318C145.27 106.309 145.295 106.352 145.314 105.866C145.399 103.789 145.35 91.1551 145.35 17.9744C145.35 17.4882 144.972 17.6322 144.751 17.6763ZM60.3461 85.2143L59.8304 54.8845L64.8871 53.7193L65.7031 84.79L60.3461 85.2143ZM92.239 47.4122L93.0814 82.6089L87.6833 83.0386L86.8363 48.6572L92.239 47.4122ZM86.0659 48.8353L86.9106 83.0998L81.5118 83.5295L80.671 50.0819L86.0659 48.8353ZM79.8998 50.2561L80.7375 83.5915L73.5633 84.1621L72.7233 51.9106L79.8998 50.2561ZM71.9529 52.0879L72.7914 84.224L66.4758 84.7265L65.6536 53.5397L71.9529 52.0879ZM121.013 80.3861L120.176 41.9236L125.735 40.5857L126.675 79.9354L121.013 80.3861ZM127.448 79.8735L126.505 40.3998L132.002 39.0759L132.969 79.4345L127.448 79.8735ZM133.743 79.3726L132.774 38.89L138.3 37.5599L139.264 78.9336L133.743 79.3726ZM144.582 78.5116L140.04 78.8716L139.074 37.3717L144.582 36.0408V78.5116ZM144.606 35.2472L119.694 41.2445C119.608 41.2653 119.531 41.3151 119.477 41.3855C119.423 41.456 119.395 41.5429 119.397 41.6317L120.243 80.4495L93.8572 82.5493L93.0094 47.2349L98.224 46.0333L98.8899 73.8994C98.8922 74.002 98.9353 74.0996 99.0095 74.1705C99.0838 74.2414 99.1832 74.28 99.2859 74.2776C99.3886 74.2752 99.4861 74.2322 99.557 74.1579C99.6279 74.0836 99.6665 73.9842 99.6641 73.8816L98.999 46.041L100.249 46.3678C100.349 46.3937 100.454 46.3792 100.543 46.3273C100.632 46.2754 100.696 46.1904 100.722 46.091C100.748 45.9916 100.734 45.886 100.682 45.7973C100.63 45.7087 100.545 45.6443 100.445 45.6183C98.5802 45.1313 98.6646 45.1367 98.5376 45.1661L59.8173 54.0909L59.5347 37.4445L144.602 18.4576L144.606 35.2472Z" fill="black"/>
<path fill-rule="evenodd" clip-rule="evenodd" d="M41.6765 85.524L44.1332 87.7647C44.1332 87.7647 47.6173 94.8723 39.3878 98.4068C32.3321 101.437 28.316 98.6677 28.316 98.6677C28.316 98.6677 24.6182 87.5239 23.9268 66.9342C23.2354 46.3445 41.1097 48.3104 41.1097 48.3104C41.1097 48.3104 46.3863 55.1571 46.6565 56.6405C46.8089 57.757 46.812 58.8889 46.6658 60.0062C47.8735 60.3628 49.0097 60.9278 50.0229 61.6755C51.9268 63.0072 53.7393 64.2452 53.3375 65.2812C52.9357 66.3171 50.4201 66.6129 50.4805 67.7797C50.5409 68.9465 51.285 69.1292 51.3941 69.7656C51.5033 70.4021 50.5424 70.8542 50.5424 70.8542C51.1288 71.2634 51.5443 71.8737 51.71 72.5692C51.8339 73.5649 50.664 74.8393 50.664 74.8393C51.2337 75.6741 51.5502 76.6557 51.5753 77.6661C51.5281 79.1542 49.7535 81.3748 42.1062 80.5061L41.6765 85.524Z" fill="#FFD997"/>
<path d="M42.5478 60.1076C42.487 60.1076 42.4271 60.0933 42.3729 60.0659C42.3186 60.0384 42.2716 59.9985 42.2357 59.9495C42.1997 59.9005 42.1758 59.8437 42.1659 59.7838C42.1559 59.7238 42.1602 59.6624 42.1785 59.6044C42.2102 59.5045 42.9659 57.1477 44.5283 56.4299C44.8273 56.2912 45.153 56.2194 45.4826 56.2194C45.8122 56.2194 46.1379 56.2912 46.4369 56.4299C46.5313 56.4702 46.6059 56.5463 46.6443 56.6416C46.6826 56.7368 46.6815 56.8434 46.6413 56.9378C46.601 57.0323 46.5249 57.1069 46.4296 57.1452C46.3344 57.1836 46.2278 57.1825 46.1334 57.1422C45.9338 57.0463 45.7156 56.9956 45.4943 56.9938C45.2729 56.9919 45.0538 57.0389 44.8527 57.1314C43.6031 57.7051 42.9241 59.8157 42.9171 59.8374C42.8923 59.9159 42.8431 59.9843 42.7767 60.0329C42.7102 60.0815 42.6301 60.1077 42.5478 60.1076Z" fill="black"/>
<path fill-rule="evenodd" clip-rule="evenodd" d="M43.52 62.058C43.52 62.058 44.2741 60.1169 45.643 59.5029L45.5656 61.643C45.2187 61.8683 44.923 61.9937 43.52 62.058Z" fill="white"/>
<path d="M45.979 59.6849C46.0447 59.6236 46.087 59.5413 46.0986 59.4522C46.1103 59.3631 46.0906 59.2727 46.0429 59.1965C45.9952 59.1203 45.9225 59.0631 45.8372 59.0347C45.752 59.0063 45.6595 59.0084 45.5756 59.0407C44.0829 59.7089 43.1987 61.8195 43.1615 61.9054C43.1224 62.0004 43.1226 62.107 43.1621 62.2019C43.2016 62.2967 43.2771 62.3719 43.3721 62.411C43.4671 62.4502 43.5737 62.4499 43.6685 62.4104C43.7633 62.371 43.8386 62.2954 43.8777 62.2004C44.0781 61.7477 44.3232 61.3161 44.6094 60.9121C44.6674 61.5315 44.9392 61.9387 45.3348 61.9442C46.1579 61.9604 46.3274 60.3964 45.979 59.6849Z" fill="black"/>
<path fill-rule="evenodd" clip-rule="evenodd" d="M28.6066 98.8202C30.312 99.5193 32.1569 99.8112 33.9949 99.6726C35.8328 99.534 37.6131 98.9689 39.1945 98.022C44.4911 94.7546 44.5453 91.5182 44.1334 87.6238L52.0138 93.8294L65.3595 123.161C65.3595 123.161 68.1732 138.213 68.0121 145.79H50.624L31.6912 108.12C31.6912 108.12 27.7603 104.694 26.4395 100.085L28.6066 98.8202Z" fill="white"/>
<path fill-rule="evenodd" clip-rule="evenodd" d="M53.6439 103.869C50.4749 100.716 50.6932 96.8954 49.377 93.7845C48.3178 91.2813 43.8125 87.1909 41.7119 85.4752C41.979 82.8427 41.9225 83.0967 41.9999 83.1207C46.0415 84.344 49.7657 88.4406 49.7657 88.4406C54.6775 89.6794 55.5671 91.4547 59.5019 95.7511C63.4366 100.047 72.9592 106.921 72.9592 106.921C71.9085 114.781 65.2886 123.347 65.2886 123.347C63.1982 116.698 57.3828 107.589 53.6439 103.869Z" fill="#81F8F8"/>
<path fill-rule="evenodd" clip-rule="evenodd" d="M26.9613 99.7671C28.5361 103.769 31.7167 105.221 37.7512 112.141C43.7857 119.061 50.5705 145.931 50.5705 145.931H6.88802C6.88802 145.931 3.41937 130.859 7.22249 118.948C9.38837 112.016 12.3859 105.372 16.1496 99.1601L26.9613 99.7671Z" fill="#81F8F8"/>
<path fill-rule="evenodd" clip-rule="evenodd" d="M65.2896 123.347C65.2896 123.347 78.1421 131.959 82.0505 131.355C85.959 130.751 96.8891 108.828 98.2231 101.245C99.5571 93.6621 101.813 84.9007 103.582 82.2303C105.352 79.5599 110.294 78.7462 111.855 76.0262C113.416 73.3063 112.969 71.5898 114.198 69.0402C115.428 66.4906 116.028 65.0079 114.928 64.517C113.827 64.0261 111.56 69.1106 109.614 69.9971L106.32 71.4984L107.625 65.5831L106.005 61.1908C106.005 61.1908 102.676 64.3792 101.703 66.4201C100.731 68.461 99.1661 75.1281 97.8546 77.6661C96.543 80.2041 91.8789 90.5713 88.7107 95.3547L78.9768 110.051L73.0204 106.977C71.6105 113.173 69.5247 117.204 65.2896 123.347Z" fill="#FFD997"/>
<path d="M33.1965 100.112C31.5647 100.122 29.9477 99.8017 28.4426 99.1709C28.3958 99.1499 28.3536 99.1198 28.3185 99.0824C28.2834 99.0449 28.2561 99.0008 28.2382 98.9527C28.2203 98.9046 28.2121 98.8534 28.2142 98.8021C28.2162 98.7508 28.2285 98.7004 28.2502 98.6539C28.2719 98.6074 28.3027 98.5657 28.3407 98.5311C28.3787 98.4966 28.4232 98.47 28.4716 98.4528C28.5199 98.4357 28.5713 98.4283 28.6225 98.4312C28.6738 98.434 28.7239 98.447 28.7701 98.4695C30.4185 99.1347 32.1981 99.4109 33.9707 99.2766C35.7432 99.1423 37.4609 98.6012 38.9902 97.6952C44.0608 94.568 44.1599 91.5662 43.748 87.6679C43.74 87.5673 43.7716 87.4676 43.836 87.39C43.9004 87.3124 43.9926 87.263 44.0929 87.2523C44.1932 87.2416 44.2937 87.2705 44.373 87.3328C44.4523 87.395 44.5042 87.4858 44.5176 87.5858C44.9466 91.6336 44.8405 94.9962 39.3975 98.3541C37.5366 99.5108 35.3876 100.12 33.1965 100.112Z" fill="black"/>
<path d="M27.5198 101.536C27.4172 101.529 27.3217 101.48 27.2546 101.402C27.1874 101.324 27.154 101.223 27.1617 101.12C27.1694 101.017 27.2176 100.922 27.2956 100.855C27.3737 100.788 27.4752 100.754 27.5779 100.762C27.6623 100.768 36.0947 101.375 40.5915 99.3591C44.8499 97.4498 46.8962 93.5181 45.6853 89.5764C45.6551 89.4783 45.6652 89.3721 45.7132 89.2814C45.7613 89.1906 45.8434 89.1227 45.9416 89.0925C46.0397 89.0623 46.1459 89.0724 46.2366 89.1204C46.3274 89.1685 46.3953 89.2506 46.4255 89.3488C47.7564 93.6846 45.539 97.9887 40.9082 100.065C37.4117 101.635 31.2827 101.817 27.5198 101.536Z" fill="black"/>
<path d="M115.086 64.1639C113.524 63.4632 111.407 68.756 109.454 69.6449L106.866 70.8248C108.105 65.2038 108.044 65.601 107.988 65.4492L106.37 61.0569C106.347 60.9966 106.31 60.9428 106.262 60.9003C106.214 60.8579 106.156 60.8281 106.093 60.8136C106.031 60.7992 105.966 60.8006 105.904 60.8176C105.842 60.8347 105.785 60.8669 105.739 60.9113C105.6 61.0437 102.347 64.1725 101.355 66.2536C100.356 68.3495 98.8066 74.9818 97.5105 77.488C96.1169 80.1824 91.5325 90.3948 88.3875 95.141L78.8457 109.547L73.2138 106.639C72.8181 106.278 63.8716 99.9475 59.7882 95.4902C55.9278 91.2728 54.9228 89.3658 49.9731 88.0937C49.3908 87.4743 45.9005 83.8764 42.0641 82.7351C41.9656 82.7059 41.8596 82.7169 41.7692 82.7659C41.6789 82.8148 41.6118 82.8976 41.5825 82.9961C41.5532 83.0945 41.5643 83.2006 41.6132 83.2909C41.6621 83.3812 41.745 83.4484 41.8434 83.4776C45.7193 84.6297 49.3823 88.5916 49.4744 88.6945C50.1209 89.4177 52.4793 92.5031 53.6461 94.0245C52.4272 93.8881 51.1983 94.1713 50.162 94.8274C50.0358 94.4232 49.9003 94.0245 49.7354 93.6343C48.3967 90.4707 42.2251 85.3908 41.9596 85.1756C41.8801 85.1105 41.778 85.0796 41.6758 85.0898C41.5736 85.1 41.4796 85.1503 41.4145 85.2298C41.3494 85.3092 41.3185 85.4113 41.3287 85.5135C41.3389 85.6158 41.3892 85.7098 41.4687 85.7748C41.5314 85.8259 47.7579 90.9476 49.0223 93.9355C50.3323 97.0325 50.1008 100.889 53.3728 104.144C56.7021 107.455 62.852 116.357 64.9192 123.457C66.7565 129.769 67.4131 142.951 67.5517 145.42H50.8658C50.0753 142.349 43.7992 118.489 38.0411 111.886C32.0096 104.97 28.8515 103.518 27.3192 99.6254C27.3013 99.5772 27.2739 99.5329 27.2387 99.4954C27.2035 99.4578 27.1611 99.4277 27.1141 99.4067C27.067 99.3857 27.0163 99.3743 26.9648 99.3732C26.9133 99.372 26.8621 99.3812 26.8142 99.4001C26.7663 99.419 26.7227 99.4473 26.6858 99.4833C26.649 99.5192 26.6197 99.5622 26.5997 99.6097C26.5796 99.6571 26.5693 99.7081 26.5692 99.7596C26.5691 99.8111 26.5793 99.8621 26.5992 99.9096C28.0703 103.657 30.8235 105.148 35.9305 110.693C33.7409 111.037 32.9806 113.887 32.7607 116.083C27.4478 110.276 22.8355 101.312 22.7875 101.217C22.7653 101.17 22.734 101.129 22.6953 101.094C22.6566 101.06 22.6114 101.033 22.5624 101.017C22.5133 101 22.4614 100.993 22.4097 100.997C22.3581 101.001 22.3077 101.015 22.2616 101.039C22.2154 101.062 22.1745 101.095 22.1412 101.134C22.1079 101.174 22.0829 101.22 22.0677 101.27C22.0525 101.319 22.0474 101.371 22.0527 101.423C22.058 101.474 22.0735 101.524 22.0985 101.57C22.1488 101.668 27.1659 111.421 32.8095 117.265C32.8626 117.32 32.931 117.359 33.0059 117.375C33.0808 117.391 33.1589 117.385 33.2302 117.357C33.3015 117.329 33.3629 117.28 33.4065 117.217C33.4501 117.154 33.4741 117.079 33.4753 117.003C33.4753 116.965 33.5589 113.188 35.1485 111.859C35.3495 111.69 35.584 111.566 35.8366 111.494C36.0893 111.422 36.3543 111.405 36.6141 111.443C36.8898 111.753 37.17 112.062 37.4573 112.394C42.9212 118.66 49.1198 141.856 50.0691 145.494H34.6173C32.6252 127.173 26.912 115.457 19.3104 114.092C13.6165 113.069 9.60204 116.575 7.67261 118.823C9.82865 112.014 12.7839 105.484 16.4766 99.3707C16.506 99.3281 16.5265 99.2801 16.537 99.2295C16.5475 99.1788 16.5477 99.1266 16.5377 99.0758C16.5276 99.0251 16.5076 98.9769 16.4786 98.934C16.4496 98.8912 16.4123 98.8546 16.369 98.8264C16.3256 98.7982 16.2771 98.779 16.2261 98.7699C16.1752 98.7608 16.123 98.7619 16.0726 98.7733C16.0221 98.7847 15.9745 98.8061 15.9324 98.8363C15.8904 98.8664 15.8548 98.9046 15.8278 98.9487C12.0526 105.194 9.04068 111.869 6.85654 118.832C4.27442 126.917 4.80478 138.668 6.51355 146.095C6.55381 146.271 6.71021 146.256 6.89061 146.256H67.9589C68.0698 146.226 68.1678 146.161 68.2378 146.071C68.3079 145.98 68.3459 145.868 68.346 145.754C68.3391 145.607 67.6306 131.617 65.9064 124.215C68.8702 126.139 78.6552 132.274 82.113 131.738C86.3358 131.084 97.2883 108.831 98.6046 101.309C99.8991 93.954 102.135 85.1136 103.906 82.4417C104.716 81.2184 106.32 80.3675 107.87 79.5444C111.48 77.6282 112.626 76.7626 113.593 72.2556C113.78 71.2031 114.1 70.1789 114.548 69.2082C115.392 67.4584 116.782 64.9204 115.086 64.1639ZM7.20341 145.573C6.77447 143.508 4.44785 131.316 7.07256 120.907C7.47362 120.264 11.8667 113.542 19.1733 114.855C26.2964 116.135 31.9044 127.924 33.8384 145.573H7.20341ZM53.9179 103.595C51.4898 101.179 51.1445 98.4029 50.3865 95.5993C50.9748 95.1856 51.6526 94.917 52.3646 94.8154C53.0766 94.7138 53.8025 94.7821 54.4831 95.0148C54.5617 95.0423 54.647 95.0438 54.7265 95.0189C54.806 94.9941 54.8754 94.9443 54.9243 94.877C54.9733 94.8096 54.9992 94.7282 54.9982 94.6449C54.9972 94.5617 54.9695 94.4809 54.919 94.4147C54.7881 94.2428 52.2672 90.9407 50.8441 89.1498C54.6991 90.3685 55.7745 92.2553 59.2176 96.0135C62.8256 99.9537 71.1806 106.104 72.5448 107.099C71.6335 113.281 67.2482 119.94 65.606 122.259C64.7078 114.404 59.086 104.765 58.8398 104.346C58.814 104.302 58.7799 104.264 58.7393 104.233C58.6987 104.203 58.6525 104.18 58.6033 104.168C58.5541 104.155 58.5028 104.152 58.4525 104.159C58.4021 104.166 58.3536 104.183 58.3098 104.209C58.266 104.234 58.2277 104.269 58.1971 104.309C58.1664 104.35 58.1441 104.396 58.1313 104.445C58.1186 104.494 58.1156 104.546 58.1227 104.596C58.1297 104.646 58.1466 104.695 58.1724 104.739C58.2258 104.829 62.8597 112.775 64.4345 119.977C61.6704 113.516 56.8081 106.47 53.9179 103.595ZM113.85 68.8722C112.547 71.5743 113.084 73.1096 111.521 75.8327C110.037 78.4171 105.099 79.2433 103.26 82.0166C101.431 84.7768 99.1504 93.745 97.8404 101.178C96.4986 108.809 85.5398 130.424 81.9899 130.973C78.6258 131.501 67.8985 124.597 65.8444 123.251C67.0298 121.654 72.1027 114.481 73.2471 107.53L78.2797 110.127C77.26 111.104 75.154 113.989 76.9069 120.18C76.9354 120.279 77.0016 120.362 77.0911 120.411C77.1806 120.461 77.2861 120.473 77.3845 120.445C77.4829 120.417 77.5663 120.351 77.6164 120.262C77.6665 120.173 77.6792 120.067 77.6518 119.969C75.6178 112.784 79.0361 110.475 79.184 110.377C79.2249 110.344 79.2627 110.306 79.2971 110.266C90.9883 92.8097 90.2295 94.4542 96.6643 80.9993C98.7966 76.5411 98.6704 77.3014 100.488 71.2646C100.921 69.6776 101.443 68.1163 102.052 66.5881C102.78 65.0613 104.931 62.8129 105.849 61.89L107.221 65.6126L105.941 71.4195C105.925 71.4901 105.929 71.5639 105.953 71.6323C105.976 71.7007 106.019 71.7611 106.076 71.8065C106.132 71.8519 106.2 71.8806 106.272 71.8892C106.344 71.8979 106.417 71.8861 106.483 71.8554L109.777 70.3541C110.819 69.8795 111.843 68.4525 112.832 67.0736C113.435 66.2343 114.458 64.8375 114.772 64.8755C114.842 64.9 114.905 64.9393 114.957 64.9906C115.01 65.042 115.051 65.1041 115.077 65.1728C115.3 65.7814 114.653 67.2083 113.85 68.8722Z" fill="black"/>
<path d="M41.8014 123.978C41.6117 122.739 40.7236 122.081 39.9695 122.197C39.1179 122.328 38.5813 123.315 38.754 124.442C38.7745 124.887 38.9505 125.31 39.2512 125.638C39.5519 125.966 39.9582 126.178 40.3992 126.237C41.271 126.24 42.0035 125.296 41.8014 123.978Z" fill="black"/>
<path d="M45.9715 139.218C45.1198 139.35 44.5832 140.337 44.7567 141.464C45.0439 143.347 46.8975 143.874 47.6105 142.431C48.288 141.059 47.3543 139.005 45.9715 139.218Z" fill="black"/>
<path d="M50.3702 61.4448C49.367 60.7139 48.2616 60.1347 47.0897 59.7259C47.208 58.6764 47.1908 57.616 47.0386 56.5708C46.7583 55.0301 41.4849 48.0874 41.3091 47.9813C41.3131 47.6797 41.2482 47.3812 41.1192 47.1085C40.9903 46.8359 40.8007 46.5963 40.565 46.408C32.7552 40.5833 28.2986 42.6792 19.4202 46.8532C11.8953 50.3939 11.8434 56.6761 11.8024 61.2636C11.749 67.6016 10.7486 68.6058 6.85181 72.6799C4.4586 75.1823 4.24568 77.6351 5.16317 79.4159C4.62493 79.9849 4.2062 80.6559 3.93172 81.3895C3.65724 82.123 3.53258 82.9041 3.56512 83.6867C3.71997 87.0407 6.61412 89.9093 7.31636 90.5582C7.01441 95.4359 13.3424 97.5582 14.5262 97.9135C14.8359 98.5159 16.0747 100.305 20.3509 101.545C23.9899 102.599 27.9509 100.074 30.4936 97.3143C34.3315 98.4695 38.1757 94.3133 39.1288 90.4947C40.1013 86.6033 36.9392 84.4067 33.8422 81.1905C32.3156 79.5031 31.2986 77.4173 30.9094 75.1753C31.8413 74.9463 32.6572 74.3839 33.2027 73.5943C33.2446 73.5339 33.2684 73.4628 33.2713 73.3894C33.2743 73.3159 33.2563 73.2432 33.2194 73.1796C33.1826 73.116 33.1284 73.0642 33.0631 73.0303C32.9979 72.9964 32.9244 72.9817 32.8512 72.9881C32.0217 73.0724 31.1854 73.0628 30.3581 72.9594C27.8031 72.5212 23.8644 68.6182 25.7784 66.3311C26.339 65.6533 27.1061 65.1777 27.9625 64.9771C28.8188 64.7764 29.7174 64.8618 30.5207 65.22C31.5272 65.6969 31.7943 66.4209 32.3255 67.4901C32.3524 67.5442 32.3917 67.5912 32.4401 67.6273C32.4885 67.6635 32.5447 67.6878 32.6042 67.6984C35.3443 68.1838 36.364 64.1035 36.525 63.3626C39.3897 60.1657 39.3982 58.261 39.0738 55.4126C38.7378 52.4704 40.579 51.7736 41.2038 49.0745C43.2834 51.8069 46.0994 55.7548 46.2736 56.7118C46.4179 57.7882 46.4202 58.8789 46.2806 59.9559C46.2674 60.0514 46.2904 60.1483 46.3449 60.2278C46.3995 60.3073 46.4817 60.3635 46.5756 60.3856C47.7759 60.7662 48.9066 61.3391 49.9234 62.082C54.5534 65.3183 53.0979 65.2277 51.1622 66.3566C50.7751 65.7519 49.7484 66.6446 49.2266 67.1262C48.4237 67.8703 47.8941 67.0271 48.4771 66.1971C48.536 66.113 48.5592 66.009 48.5414 65.9078C48.5236 65.8067 48.4664 65.7168 48.3823 65.6578C48.2982 65.5989 48.1941 65.5758 48.093 65.5936C47.9919 65.6114 47.9019 65.6686 47.843 65.7527C46.9952 66.9605 47.6487 68.1916 48.6521 68.1916C49.3334 68.1916 49.7268 67.6906 50.1789 67.3236C50.116 67.4753 50.0869 67.6389 50.0938 67.8029C50.1596 69.0642 50.9354 69.3901 51.0128 69.8338C51.1746 70.7753 48.3316 70.9417 47.4056 70.5391C47.3114 70.498 47.2048 70.4961 47.1092 70.5336C47.0136 70.5711 46.9368 70.6451 46.8957 70.7393C46.8546 70.8334 46.8527 70.94 46.8902 71.0356C46.9277 71.1312 47.0017 71.208 47.0959 71.2491C47.6264 71.4975 48.203 71.632 48.7887 71.644C49.3744 71.656 49.9561 71.5452 50.4964 71.3188C50.9143 71.6418 51.2071 72.0999 51.3248 72.6149C51.4077 73.2823 50.669 74.2563 50.3771 74.5753C50.3173 74.6407 50.2817 74.7247 50.2764 74.8132C50.271 74.9017 50.2962 74.9894 50.3477 75.0615C50.8671 75.8279 51.1584 76.726 51.1878 77.6514C51.1718 77.9227 51.098 78.1874 50.9712 78.4277C50.8445 78.6681 50.6678 78.8786 50.453 79.045C49.5131 79.8596 47.3072 80.7058 42.1492 80.1205C40.9828 79.8631 39.831 79.5441 38.6983 79.165C38.6248 79.1445 38.5468 79.1461 38.4742 79.1697C38.4016 79.1934 38.3376 79.2379 38.2902 79.2979C38.2429 79.3578 38.2143 79.4304 38.2081 79.5065C38.202 79.5826 38.2184 79.6588 38.2555 79.7256C39.0188 81.0664 40.1491 82.1612 41.5135 82.8815L40.8778 90.3685C40.8691 90.4711 40.9015 90.5731 40.968 90.6518C41.0344 90.7306 41.1294 90.7798 41.2321 90.7885C41.3347 90.7972 41.4367 90.7648 41.5154 90.6984C41.5942 90.632 41.6434 90.5369 41.6521 90.4343C41.7527 89.252 42.3721 82.1188 42.472 80.9342C47.627 81.4584 49.9343 80.5231 50.9656 79.6319C51.2594 79.3939 51.5003 79.0971 51.6728 78.7606C51.8453 78.4241 51.9457 78.0552 51.9674 77.6777C51.9567 76.6852 51.6739 75.7147 51.1498 74.8718C52.3112 73.4302 52.5102 72.1798 51.1986 70.8999C51.3968 70.7726 51.5561 70.5932 51.6592 70.3814C51.7623 70.1696 51.8052 69.9336 51.7832 69.6991C51.6415 68.8752 50.9315 68.8156 50.875 67.7596C50.8332 66.9683 53.2496 66.5982 53.7064 65.4205C54.2027 64.1244 52.4266 62.8818 50.3702 61.4448Z" fill="black"/>
</svg>
