<svg width="154" height="154" viewBox="0 0 154 154" fill="none" xmlns="http://www.w3.org/2000/svg">
<path d="M73.0952 72.6557C73.0646 74.8371 73.2421 77.0165 73.625 79.1642C74.965 86.2308 81.7185 79.2408 85.4076 81.7905C86.9145 82.8319 86.1664 87.6374 87.0776 89.4315C88.4099 92.0547 91.7063 90.3227 93.8311 90.616C95.1703 90.8013 96.3273 91.58 97.7101 91.5961C98.1029 91.6167 98.4931 91.5223 98.8331 91.3246C99.1731 91.1269 99.4481 90.8343 99.6244 90.4828C100.395 88.9429 99.3395 87.642 99.4927 86.1566C99.6144 84.9667 100.974 84.3472 100.668 82.9284C100.568 82.459 98.9176 80.2944 99.3143 79.8602C99.632 79.5118 100.567 80.0179 100.826 80.2055C103.263 81.9666 102.767 85.9046 104.052 88.3802C105 90.2094 106.699 91.5716 106.518 93.8097C106.199 97.7462 103.487 99.2248 105.719 103.806C106.706 105.832 108.892 106.921 110.109 108.772C110.891 109.961 111.717 117.802 113.739 113.769C115.15 110.954 113.702 104.317 113.262 101.128C112.245 93.7531 110.036 83.9391 104.32 78.5394C101.042 75.4452 96.9253 73.9161 92.923 72.0677C88.3288 69.9475 83.8111 67.9046 78.9045 66.6167C76.9091 66.0922 74.6074 65.1228 73.3915 67.3824C73.7154 66.8096 73.3632 66.7805 73.0952 72.6557Z" fill="#38A1FF"/>
<path d="M60.0047 60.5447C60.1 60.566 60.2012 60.5556 60.3024 60.514C60.4036 60.4725 60.5028 60.4007 60.5942 60.3027C60.6857 60.2047 60.7676 60.0824 60.8353 59.943C60.9029 59.8036 60.955 59.6498 60.9885 59.4904C61.022 59.331 61.0362 59.1692 61.0304 59.0143C61.0246 58.8595 60.9988 58.7146 60.9545 58.588C60.9103 58.4615 60.8484 58.3557 60.7725 58.2769C60.6966 58.1982 60.6082 58.1478 60.5123 58.1289C60.417 58.1076 60.3158 58.118 60.2146 58.1596C60.1134 58.2011 60.0143 58.273 59.9228 58.371C59.8314 58.469 59.7495 58.5912 59.6818 58.7306C59.6141 58.87 59.562 59.0238 59.5285 59.1832C59.495 59.3426 59.4808 59.5044 59.4866 59.6593C59.4925 59.8142 59.5182 59.959 59.5625 60.0856C59.6068 60.2122 59.6686 60.3179 59.7445 60.3967C59.8204 60.4755 59.9088 60.5258 60.0047 60.5447Z" fill="#191919"/>
<path d="M58.6106 66.0286L58.603 66.037C58.7194 66.2147 58.8848 65.6588 58.9858 65.5048C59.4779 64.6877 60.0596 63.928 60.7201 63.2399C60.7472 63.1928 60.7835 63.1517 60.8269 63.119C60.8702 63.0863 60.9197 63.0627 60.9724 63.0496C61.0251 63.0364 61.0799 63.0341 61.1335 63.0426C61.1871 63.0512 61.2385 63.0705 61.2845 63.0994C61.3305 63.1282 61.3701 63.1661 61.4012 63.2107C61.4322 63.2552 61.4539 63.3056 61.465 63.3588C61.476 63.4119 61.4763 63.4668 61.4656 63.52C61.455 63.5733 61.4338 63.6239 61.4031 63.6687C61.0668 64.5573 60.6391 65.4084 60.1267 66.2085C59.8151 66.7445 59.4812 67.2598 58.8648 67.3571C58.2094 67.3742 57.5739 67.1308 57.0976 66.6802C56.8159 66.4303 56.5801 66.1331 56.4008 65.8019C56.3288 65.7252 56.2903 65.623 56.2937 65.5178C56.297 65.4126 56.3421 65.3131 56.4188 65.2411C56.4956 65.1691 56.5978 65.1305 56.703 65.1339C56.8082 65.1373 56.9077 65.1823 56.9797 65.2591L57.8105 65.6266C58.0609 65.7908 58.3294 65.9257 58.6106 66.0286ZM58.6106 66.0286H58.6443C58.6331 66.0301 58.6218 66.0301 58.6106 66.0286Z" fill="#191919"/>
<path d="M52.3794 67.6557C51.5156 66.3742 51.0519 64.865 51.0471 63.3196C50.6547 63.0488 50.2814 62.7513 49.93 62.4291C50.2649 61.9346 50.5528 61.4099 50.7898 60.8617C51.4966 57.8793 51.7852 54.818 52.6099 51.8525C48.7247 49.1786 46.0387 43.906 47.9116 39.1786C32.0218 45.1985 28.2614 59.1687 28.3862 59.2055C26.034 61.9237 23.5838 64.5738 21.168 67.2346C22.0482 68.3742 22.9985 69.458 24.0133 70.4796C27.4467 74.4 31.9215 77.5241 36.4345 80.1007C37.8533 78.9774 39.0693 77.6007 40.4161 76.3939C43.9675 73.2124 47.92 69.7576 52.2592 67.6266L52.3794 67.6557Z" fill="#38A1FF"/>
<path d="M111.383 55.6664C108.684 53.5989 105.831 51.7396 102.85 50.1043C100.462 48.6634 97.9274 47.4811 95.289 46.5775C92.8338 43.0438 89.57 40.1476 85.7693 38.1301C81.9685 36.1126 77.7409 35.0322 73.4383 34.9787C70.4015 34.9297 67.2506 34.7842 64.3203 35.6762C66.0692 37.4764 67.0646 40.0943 68.0784 42.36C75.2162 42.4741 78.8449 50.6809 77.2469 56.8578C78.7553 59.6082 78.9245 63.2131 75.606 64.4788C78.975 64.8326 82.2178 66.2476 85.4069 67.3119C92.8227 69.7821 100.262 73.2178 106.499 78.0118C110.386 72.0276 113.168 65.3944 114.712 58.4275C113.674 57.4241 112.561 56.5011 111.383 55.6664Z" fill="#38A1FF"/>
<path d="M20.6864 70.0171C19.0381 72.6245 17.6186 75.3695 16.4436 78.2216C13.7872 84.9347 12.3106 92.0563 12.0791 99.2722C11.6825 110.285 13.7966 119.817 17.6098 129.319C17.6511 129.415 17.7282 129.492 17.8249 129.532C17.9216 129.573 18.0302 129.574 18.1278 129.536C18.2254 129.498 18.3044 129.423 18.3479 129.328C18.3914 129.232 18.3961 129.124 18.3609 129.025C14.8248 119.531 13.1506 109.445 13.4298 99.3174C13.6778 92.2541 15.096 85.2809 17.6266 78.6818C18.6867 75.8438 19.9379 73.081 21.3717 70.4122C21.4248 70.3208 21.4394 70.2121 21.4123 70.1099C21.3853 70.0078 21.3187 69.9205 21.2273 69.8674C21.136 69.8143 21.0272 69.7997 20.9251 69.8268C20.8229 69.8538 20.7356 69.9204 20.6825 70.0118L20.6864 70.0171Z" fill="#191919"/>
<path d="M18.0293 123.36C18.4597 125.139 19.2261 126.82 20.2874 128.311C20.6994 128.856 21.1673 129.357 21.6832 129.805C21.7544 129.879 21.8516 129.924 21.9549 129.93C22.0581 129.935 22.1594 129.9 22.238 129.833C22.3165 129.766 22.3663 129.671 22.3771 129.569C22.3878 129.466 22.3587 129.363 22.2958 129.281C22.0737 128.942 20.8279 126.707 20.7866 126.63C19.939 125.062 19.5462 123.901 19.1786 123.234C18.7368 122.438 18.5661 122.143 18.2314 122.249C17.8409 122.375 17.9566 122.812 18.0293 123.36Z" fill="#191919"/>
<path d="M21.405 121.806C21.987 123.666 22.8572 125.423 23.9839 127.013C24.4153 127.594 24.8912 128.14 25.4073 128.647C25.4391 128.69 25.4791 128.726 25.5251 128.754C25.571 128.781 25.622 128.8 25.6751 128.807C25.7281 128.815 25.7822 128.812 25.834 128.798C25.8859 128.785 25.9346 128.761 25.9772 128.729C26.0198 128.696 26.0555 128.656 26.0823 128.609C26.109 128.563 26.1262 128.511 26.1329 128.458C26.1396 128.405 26.1356 128.351 26.1212 128.299C26.1068 128.248 26.0822 128.2 26.049 128.157C25.6715 127.525 25.7305 127.537 24.5942 125.542C23.2251 123.143 23.0513 122.432 22.5176 121.578C22.0115 120.769 21.8606 120.515 21.5222 120.645C21.1677 120.781 21.2695 121.148 21.405 121.806Z" fill="#191919"/>
<path d="M35.0501 81.3809C33.7018 83.2498 32.485 85.2101 31.4084 87.2477C28.9592 92.0477 27.1308 97.14 25.9673 102.402C24.2269 110.365 24.1496 117.796 26.5516 125.239C26.5661 125.291 26.5909 125.34 26.6246 125.382C26.6582 125.424 26.7 125.459 26.7474 125.485C26.7948 125.511 26.8469 125.527 26.9006 125.532C26.9543 125.538 27.0085 125.532 27.06 125.516C27.1116 125.5 27.1593 125.474 27.2006 125.439C27.2418 125.404 27.2756 125.361 27.3 125.313C27.3244 125.265 27.3389 125.213 27.3427 125.159C27.3464 125.105 27.3394 125.051 27.3219 125C25.756 119.726 25.3012 111.618 27.2836 102.69C28.444 97.5427 30.2092 92.5504 32.5424 87.8174C33.3433 86.1512 34.7315 83.3886 35.7116 81.8151C35.7408 81.7715 35.761 81.7226 35.7711 81.6711C35.7813 81.6197 35.7811 81.5667 35.7706 81.5153C35.7602 81.4639 35.7396 81.4151 35.7102 81.3718C35.6807 81.3284 35.643 81.2913 35.5991 81.2626C35.5552 81.2339 35.506 81.2141 35.4545 81.2046C35.4029 81.195 35.35 81.1957 35.2987 81.2067C35.2475 81.2177 35.1989 81.2388 35.1558 81.2687C35.1127 81.2986 35.076 81.3367 35.0478 81.3809H35.0501Z" fill="#191919"/>
<path d="M108.435 81.7339C109.095 83.067 110.116 85.7408 110.637 87.149C112.254 91.3914 113.413 95.7948 114.093 100.284C115.079 106.705 114.999 113.244 113.859 119.639C113.837 119.743 113.857 119.851 113.915 119.94C113.972 120.029 114.062 120.092 114.165 120.115C114.268 120.138 114.377 120.12 114.467 120.064C114.557 120.009 114.621 119.92 114.646 119.817C116.236 113.36 116.501 106.648 115.426 100.086C114.754 95.4936 113.544 90.996 111.82 86.6865C111.043 84.8568 110.148 83.0799 109.14 81.3672C109.091 81.274 109.007 81.204 108.907 81.1726C108.806 81.1412 108.697 81.151 108.604 81.1999C108.511 81.2487 108.441 81.3326 108.41 81.433C108.378 81.5335 108.388 81.6423 108.437 81.7355L108.435 81.7339Z" fill="#191919"/>
<path d="M118.396 114.468C118.224 114.791 117.959 115.587 117.723 116.198C117.471 116.853 117.151 117.608 116.958 118.2C116.837 118.568 116.75 118.928 116.634 119.294C116.61 119.341 116.595 119.392 116.591 119.445C116.586 119.498 116.593 119.551 116.609 119.601C116.625 119.652 116.651 119.698 116.685 119.739C116.72 119.779 116.762 119.812 116.809 119.836C116.856 119.86 116.907 119.875 116.96 119.879C117.013 119.884 117.066 119.877 117.116 119.861C117.167 119.845 117.213 119.819 117.254 119.785C117.294 119.75 117.327 119.708 117.351 119.661C117.998 118.874 118.506 117.983 118.853 117.025C119.13 116.369 119.357 115.693 119.532 115.004C119.557 114.849 119.57 114.693 119.57 114.537C119.582 114.022 119.621 113.667 119.278 113.575C118.934 113.483 118.737 113.824 118.396 114.468Z" fill="#191919"/>
<path d="M121.76 116.077C121.495 116.479 121.273 116.907 121.098 117.356C120.668 118.274 120.175 119.161 119.623 120.011C119.53 120.164 118.996 121.071 118.751 121.433C118.715 121.472 118.686 121.517 118.667 121.566C118.649 121.616 118.64 121.668 118.641 121.721C118.643 121.774 118.655 121.826 118.677 121.875C118.698 121.923 118.729 121.966 118.768 122.003C118.806 122.039 118.851 122.067 118.901 122.086C118.95 122.105 119.003 122.114 119.056 122.112C119.109 122.111 119.161 122.099 119.209 122.077C119.258 122.055 119.301 122.024 119.337 121.986C119.82 121.624 120.261 121.209 120.649 120.747C121.657 119.481 122.381 118.013 122.772 116.443C122.835 115.919 122.925 115.517 122.559 115.396C122.193 115.276 122.053 115.627 121.76 116.077Z" fill="#191919"/>
<path d="M117.165 60.5607C125.617 69.0393 129.455 89.7875 129.024 101.772C128.75 109.404 126.969 117.308 122.769 123.654C122.74 123.698 122.719 123.748 122.708 123.8C122.698 123.852 122.698 123.905 122.708 123.957C122.718 124.009 122.738 124.059 122.767 124.103C122.797 124.147 122.834 124.185 122.878 124.215C122.922 124.245 122.971 124.265 123.023 124.276C123.075 124.286 123.129 124.287 123.181 124.277C123.233 124.267 123.283 124.246 123.327 124.217C123.371 124.188 123.409 124.15 123.439 124.106C126.988 118.855 129.22 112.827 129.947 106.531C131.143 97.4032 129.84 87.4468 127.454 78.5501C125.525 71.3579 123.024 65.0508 117.72 59.9941C117.683 59.9554 117.639 59.9245 117.59 59.9032C117.541 59.882 117.488 59.8708 117.435 59.8704C117.382 59.87 117.329 59.8803 117.279 59.9008C117.23 59.9213 117.186 59.9515 117.148 59.9896C117.111 60.0277 117.082 60.073 117.062 60.1227C117.043 60.1724 117.034 60.2255 117.035 60.2788C117.037 60.3321 117.049 60.3846 117.072 60.433C117.094 60.4815 117.126 60.5249 117.165 60.5607H117.165Z" fill="#191919"/>
<path d="M109.618 34.6877C103.161 29.7719 102.426 18.1991 107.368 11.9648C112.728 5.2044 124.351 2.56733 131.992 6.54821C141.863 11.6914 144.389 28.9756 136.204 36.7099C131.341 41.3041 124.375 43.2183 114.478 39.5813C112.071 41.7788 108.827 43.971 105.595 44.5285C105.521 44.5428 105.443 44.5355 105.373 44.5073C105.302 44.479 105.241 44.4312 105.197 44.3693C105.152 44.3074 105.127 44.2341 105.123 44.1581C105.119 44.0821 105.137 44.0065 105.174 43.9404C106.422 41.775 108.867 37.1088 109.618 34.6877ZM106.344 43.5254C109.139 42.6831 111.893 40.5897 113.974 38.5575C114.048 38.4863 114.14 38.4373 114.241 38.4162C114.341 38.395 114.446 38.4026 114.542 38.4381C121.927 41.1088 129.544 41.1946 135.288 35.7428C142.787 28.6218 140.418 12.4655 131.37 7.74193C124.298 4.04973 113.387 6.52294 108.373 12.7665C103.722 18.5574 104.396 29.6563 110.482 34.0912C110.565 34.1506 110.627 34.2339 110.66 34.3297C110.694 34.4256 110.697 34.5294 110.67 34.6272C110.024 36.922 107.527 41.4542 106.344 43.5254Z" fill="#191919"/>
<path d="M131.458 18.0958C131.372 17.3793 131.074 16.7045 130.604 16.1573C130.133 15.6101 129.511 15.215 128.815 15.0222C126.212 14.2129 123.92 15.7267 122.338 17.9924C121.901 17.5464 121.429 17.1367 120.926 16.7673C119.165 15.5422 116.868 15.5039 115.386 17.3033C114.816 18.0774 114.416 18.9625 114.21 19.9013C114.005 20.8401 113.999 21.8115 114.193 22.7528C114.663 24.8967 117.095 27.278 118.878 28.6287C120.005 29.47 121.206 30.2085 122.465 30.8355C122.534 30.8722 122.612 30.8877 122.69 30.8802C122.768 30.8727 122.842 30.8425 122.903 30.7934C124.826 29.2061 128.024 26.4335 129.523 24.399C130.62 23.0895 131.304 21.4835 131.487 19.7849C131.534 19.2223 131.525 18.6564 131.458 18.0958Z" fill="#38A1FF"/>
<path d="M31.2871 58.0178C31.7192 57.7632 32.1313 57.476 32.5199 57.1587C32.784 56.9198 33.343 56.3425 33.1324 56.004C32.915 55.6526 32.0022 55.9964 31.8751 56.0523C31.3895 56.3069 30.9386 56.6229 30.5336 56.9926C30.4762 57.0653 30.0742 57.723 30.2656 57.9788C30.4571 58.2345 31.2136 58.0462 31.2871 58.0178Z" fill="#191919"/>
<path d="M89.893 46.3049C90.1173 46.3669 91.2429 46.4803 91.4742 46.504C92.0461 46.5637 93.6342 46.7398 93.7353 46.1755C93.8187 45.7107 92.576 45.3562 92.4336 45.3187C91.6331 45.1441 90.8171 45.0503 89.9979 45.0385C89.8838 45.0499 88.9757 45.2015 88.9473 45.5943C88.9213 45.9611 89.7973 46.2789 89.893 46.3049Z" fill="#191919"/>
<path d="M76.3403 56.9933C76.9283 52.0117 76.1979 47.5982 72.0011 44.8861C70.3066 43.8141 68.4919 43.4312 66.7507 42.687C65.2193 37.9312 62.6159 33.8301 57.6174 33.7964C56.6971 33.7446 55.7779 33.9151 54.9374 34.2934C49.3363 37.1311 46.6809 45.1058 51.5553 49.6786C54.8478 52.7552 60.7506 54.037 65.2055 53.6602C65.2935 55.3226 65.9949 56.6733 67.5677 57.1786C68.9459 57.6212 70.7354 57.2896 72.1542 57.0079C72.6732 56.9131 73.2017 56.8799 73.7285 56.9091C74.7867 56.9742 76.5899 57.9045 76.459 59.7146C76.3854 60.5832 76.0054 61.3974 75.387 62.0117C74.4521 62.9214 72.7491 63.1855 71.4475 63.246C71.3156 63.2534 71.1891 63.3007 71.0847 63.3816C70.9804 63.4626 70.9031 63.5734 70.8632 63.6993C70.6087 64.7088 70.1359 65.6502 69.4781 66.4572C68.8203 67.2642 67.9936 67.9172 67.0562 68.3701C65.1679 69.2736 62.2973 69.2124 61.841 68.9061C61.6988 68.8102 61.5255 68.7722 61.3563 68.7996C59.6931 69.1307 57.9718 69.0139 56.3685 68.4612C54.1863 67.5975 53.2368 65.6725 52.9397 63.3548C53.3624 63.4719 53.7935 63.5554 54.1886 63.6649C54.2869 63.6992 54.3946 63.6941 54.4893 63.6508C54.584 63.6075 54.6583 63.5293 54.6966 63.4325C54.735 63.3357 54.7344 63.2279 54.6951 63.1315C54.6558 63.0351 54.5808 62.9576 54.4857 62.9152C53.8869 62.6005 53.0982 62.256 52.6319 61.9359C53.3283 60.5445 54.138 59.2127 55.0531 57.9543C55.1756 57.7651 55.2828 57.5714 55.4022 57.3831C55.8264 56.7238 56.0554 56.5561 55.8126 56.2713C55.4129 55.8004 54.2874 56.8884 53.89 57.3624C53.6289 57.6748 53.2123 58.2682 52.9857 58.6044C53.1318 57.0036 53.4174 55.4187 53.8394 53.8677C53.8559 53.8173 53.862 53.7642 53.8576 53.7113C53.8531 53.6585 53.8381 53.6071 53.8135 53.5602C53.7888 53.5133 53.755 53.4718 53.714 53.4382C53.6731 53.4045 53.6258 53.3795 53.5749 53.3644C53.5241 53.3494 53.4708 53.3446 53.4181 53.3506C53.3655 53.3565 53.3145 53.3729 53.2683 53.3988C53.222 53.4247 53.1815 53.4597 53.149 53.5016C53.1165 53.5434 53.0927 53.5914 53.0791 53.6426C52.9168 54.1533 52.7353 54.6526 52.5806 55.1633C52.0833 56.9223 51.7528 58.7243 51.5936 60.5454C51.5316 61.3808 51.6495 60.8739 51.2376 61.8639C51.1838 61.9888 51.1707 62.1273 51.1999 62.26C51.2292 62.3928 51.2994 62.5129 51.4007 62.6036C51.4566 62.6472 51.514 62.6894 51.5722 62.7307C51.9275 68.6924 55.8333 70.9765 61.3624 70.1695C62.6503 70.6764 65.6503 70.5378 67.6366 69.5807C68.6721 69.0855 69.5923 68.3787 70.3378 67.5059C71.0832 66.633 71.6373 65.6135 71.9643 64.5133C73.5353 64.4753 75.0447 63.8947 76.2361 62.8701C77.8005 61.2552 78.1665 58.367 76.3403 56.9933ZM60.8808 36.7796C60.8632 36.8286 60.836 36.8737 60.801 36.9122C60.7659 36.9508 60.7236 36.982 60.6765 37.0042C60.6293 37.0264 60.5783 37.0391 60.5262 37.0415C60.4742 37.044 60.4222 37.0362 60.3731 37.0185C60.1656 36.9932 59.9773 36.994 59.7797 36.9802C57.8333 36.8462 56.831 36.909 55.1932 38.239C54.6837 38.6458 54.2034 39.088 53.756 39.5622C53.7271 39.6086 53.689 39.6486 53.6442 39.6798C53.5993 39.7111 53.5486 39.7329 53.4951 39.744C53.4415 39.755 53.3863 39.7551 53.3327 39.7441C53.2792 39.7332 53.2284 39.7115 53.1835 39.6803C53.1386 39.6492 53.1005 39.6092 53.0714 39.5629C53.0424 39.5166 53.0232 39.4648 53.0148 39.4108C53.0063 39.3568 53.009 39.3016 53.0226 39.2487C53.0361 39.1957 53.0603 39.1461 53.0936 39.1027C53.4202 38.4467 53.8406 37.8419 54.3417 37.3072C55.344 36.2807 56.6961 35.6694 58.1289 35.5951C59.0206 35.5179 59.9108 35.7582 60.6427 36.2735C60.7413 36.3091 60.8218 36.3824 60.8664 36.4773C60.9111 36.5722 60.9162 36.6809 60.8808 36.7796Z" fill="#191919"/>
<path d="M49.2981 106.41C49.851 105.721 50.3567 104.995 50.8119 104.238C51.4107 103.282 52.1136 102.094 53.145 101.664C54.2744 101.189 55.7047 101.716 56.8311 102.222C57.7022 102.61 58.5525 103.043 59.3786 103.52C59.4669 103.575 59.5731 103.593 59.675 103.572C59.7768 103.55 59.8663 103.49 59.9247 103.404C59.9831 103.318 60.0059 103.212 59.9883 103.11C59.9707 103.007 59.9141 102.915 59.8303 102.853C59.0623 102.214 58.2428 101.639 57.3801 101.135C55.9176 100.313 54.1733 99.7707 52.6258 100.417C51.4283 100.918 50.5171 102.056 49.6871 103.579C49.274 104.365 48.9158 105.179 48.6151 106.015C48.5892 106.06 48.5724 106.11 48.5657 106.162C48.5591 106.214 48.5627 106.266 48.5763 106.316C48.59 106.367 48.6134 106.414 48.6453 106.455C48.6772 106.497 48.7169 106.531 48.7621 106.557C48.8074 106.583 48.8573 106.6 48.909 106.606C48.9608 106.613 49.0133 106.61 49.0636 106.596C49.114 106.582 49.1611 106.559 49.2024 106.527C49.2437 106.495 49.2783 106.455 49.3042 106.41H49.2981Z" fill="#191919"/>
<path d="M82.0701 100.242C82.7341 99.6281 83.3485 98.9624 83.9078 98.2515C84.6076 97.3955 85.5196 96.1933 86.5624 95.8327C87.7523 95.42 88.982 96.263 89.9476 97.0662C90.7462 97.7301 91.1459 98.1137 92.2684 99.1696C92.3411 99.246 92.4409 99.2908 92.5463 99.2944C92.6516 99.2981 92.7543 99.2603 92.8321 99.1891C92.9098 99.1179 92.9566 99.0191 92.9623 98.9138C92.9681 98.8085 92.9323 98.7051 92.8626 98.6259C92.2192 97.7579 91.5207 96.932 90.7715 96.1535C89.4752 94.8855 87.8434 93.9644 86.1222 94.554C84.8143 95.0019 83.6796 96.3327 82.8725 97.459C82.0961 98.5433 81.946 98.9483 81.4506 99.7416C81.4123 99.781 81.3826 99.828 81.3633 99.8795C81.3441 99.9311 81.3359 99.9861 81.339 100.041C81.3422 100.096 81.3568 100.15 81.3818 100.199C81.4068 100.248 81.4418 100.291 81.4844 100.326C81.5271 100.36 81.5765 100.386 81.6295 100.4C81.6825 100.415 81.738 100.418 81.7924 100.411C81.8469 100.403 81.899 100.383 81.9457 100.354C81.9923 100.325 82.0323 100.286 82.0632 100.241L82.0701 100.242Z" fill="#191919"/>
<path d="M66.2546 119.072C67.0319 119.717 67.8681 120.286 68.7523 120.773C70.7232 121.835 73.7699 122.832 75.8733 122.03C79.0249 120.827 80.6895 117.314 82.1076 114.872C82.1661 114.782 82.1867 114.674 82.1648 114.569C82.143 114.464 82.0806 114.373 81.9912 114.314C81.9015 114.257 81.7929 114.237 81.6886 114.259C81.5843 114.28 81.4926 114.342 81.433 114.43C80.798 115.34 80.1442 116.237 79.4721 117.12C76.0984 121.568 74.3197 121.835 69.3135 119.625C68.7913 119.396 67.4843 118.829 66.6918 118.411C66.6484 118.38 66.5991 118.357 66.547 118.346C66.4948 118.334 66.4408 118.333 66.3882 118.342C66.3355 118.352 66.2854 118.372 66.2408 118.402C66.1962 118.431 66.158 118.469 66.1285 118.514C66.0991 118.559 66.079 118.609 66.0694 118.661C66.0598 118.714 66.061 118.768 66.0728 118.82C66.0847 118.872 66.107 118.922 66.1383 118.965C66.1697 119.008 66.2095 119.045 66.2553 119.072H66.2546Z" fill="#191919"/>
<path d="M28.0122 128.867C30.1667 134.33 33.9926 138.971 38.9434 142.128C49.0506 148.798 66.8562 152.588 83.0477 148.348C92.2782 146.005 100.637 141.049 107.121 134.075C110.376 130.565 113.162 127.174 115.181 122.912C115.206 122.864 115.221 122.811 115.226 122.757C115.23 122.703 115.224 122.649 115.206 122.597C115.189 122.546 115.162 122.498 115.126 122.458C115.09 122.417 115.047 122.384 114.998 122.361C114.949 122.337 114.896 122.324 114.842 122.321C114.788 122.319 114.733 122.328 114.683 122.346C114.632 122.365 114.585 122.394 114.546 122.432C114.507 122.469 114.475 122.514 114.454 122.563C112.485 126.608 109.391 130.144 106.333 133.33C99.8885 140.011 91.7102 144.763 82.7154 147.055C63.9672 151.913 36.2083 146.448 28.7504 128.569C28.7082 128.475 28.6314 128.402 28.5361 128.363C28.4408 128.325 28.3345 128.326 28.2394 128.364C28.1444 128.403 28.068 128.477 28.0263 128.571C27.9847 128.665 27.981 128.771 28.0161 128.867H28.0122Z" fill="#191919"/>
<path d="M34.2775 135.39C27.511 127.268 26.7874 121.181 27.1312 110.976C27.2529 107.343 27.2843 103.735 28.1871 100.185C28.9669 98.916 30.0094 97.8288 31.2445 96.9966C34.3073 95.1375 38.0057 95.6696 41.3663 94.9828C43.2913 94.5892 45.0026 93.5142 46.8265 92.8251C52.0011 90.8702 59.6543 90.1543 62.4254 96.1742C63.9698 99.5311 62.2883 102.912 60.1183 105.523C58.2002 107.885 55.7868 109.797 53.0486 111.124C51.3219 111.956 49.3097 112.373 47.7882 113.595C46.217 114.856 46.5241 116.773 45.5761 118.35C44.4758 120.18 42.609 121.386 41.7423 123.366C40.4858 126.234 40.9544 130.501 43.7744 132.364C44.9996 133.174 46.387 133.337 47.776 133.692C48.8235 132.62 50.0118 131.377 51.4513 130.849C53.1841 130.215 55.09 130.51 56.8763 130.165C58.2347 129.903 59.6589 129.051 61.0578 129.141C62.6122 129.241 63.8649 130.25 65.4843 130.213C67.8013 130.162 70.492 128.579 72.7409 129.653C73.8687 130.189 74.8266 131.037 75.9568 131.558C77.1237 132.094 78.4729 132.324 79.4315 133.236C80.4587 134.253 81.1197 135.581 81.311 137.014C81.5024 138.446 81.2133 139.902 80.489 141.152C78.7968 143.914 75.7003 144.269 72.8488 144.943C71.6283 145.232 70.4897 145.745 69.2378 145.918C66.7784 146.258 64.2538 146.178 61.8189 146.695C60.901 146.922 60.0044 147.228 59.139 147.609C50.1979 146.551 40.0662 142.339 34.2775 135.39ZM50.9192 100.383C50.0564 101.243 49.2984 102.202 48.6611 103.241C48.4147 103.839 48.21 104.453 48.0486 105.079C47.8388 105.972 47.3862 108.564 49.2645 107.535C51.0509 106.555 51.8235 103.144 53.9881 102.542C55.5103 102.118 57.1987 103.997 58.5915 104.43C58.9384 104.598 59.328 104.657 59.7091 104.599C60.0902 104.541 60.4448 104.369 60.7263 104.106C62.1122 102.49 60.4644 100.379 58.9812 99.6168C56.4904 98.3404 52.9406 98.1689 50.9192 100.383Z" fill="#38A1FF"/>
<path d="M91.7888 96.2117C94.4098 95.4047 97.7843 94.7737 99.5186 96.1053C100.93 97.1895 100.425 99.6275 100.313 101.121C100.053 104.554 101.786 108.109 97.7475 110.309C94.9045 111.858 92.5844 108.854 90.1878 107.865C88.0116 106.965 85.383 107.466 83.4098 106.036C80.0507 103.603 86.2544 98.6045 88.1701 97.5686C88.1701 97.5686 88.4473 97.4399 88.9182 97.2477C89.6366 98.0607 90.4018 98.831 91.21 99.5548C91.5489 99.9248 91.9794 100.199 92.4581 100.35C93.4336 100.474 93.9045 99.3358 93.6066 98.5655C93.1908 97.6509 92.5686 96.8453 91.7888 96.2117Z" fill="#38A1FF"/>
</svg>
