<svg width="156" height="156" viewBox="0 0 156 156" fill="none" xmlns="http://www.w3.org/2000/svg">
<path d="M147.7 4.40336L7.56842 10.1677C7.46845 10.1717 7.37392 10.2142 7.30464 10.2864C7.23535 10.3585 7.1967 10.4547 7.19678 10.5548V110.024C7.19676 110.125 7.23648 110.222 7.30741 110.295C7.37835 110.367 7.47484 110.409 7.57616 110.411L147.716 113.305C147.818 113.305 147.917 113.264 147.989 113.192C148.062 113.119 148.103 113.02 148.103 112.918V4.79048C148.103 4.73831 148.092 4.68668 148.072 4.63867C148.051 4.59066 148.022 4.54728 147.984 4.51112C147.946 4.47496 147.902 4.44678 147.853 4.42826C147.804 4.40974 147.752 4.40127 147.7 4.40336Z" fill="black"/>
<path fill-rule="evenodd" clip-rule="evenodd" d="M144.67 8.81657C144.67 8.71224 144.649 8.60896 144.608 8.51295C144.567 8.41693 144.507 8.33016 144.432 8.25785C144.357 8.18553 144.268 8.12916 144.17 8.09213C144.073 8.05509 143.969 8.03815 143.864 8.04232L11.3737 13.3436C11.1737 13.3516 10.9847 13.4367 10.8461 13.5811C10.7075 13.7254 10.6302 13.9178 10.6304 14.1179V106.047C10.6303 106.25 10.7097 106.444 10.8514 106.589C10.9931 106.734 11.1859 106.817 11.3884 106.821L143.881 109.558C143.984 109.56 144.086 109.541 144.182 109.503C144.277 109.465 144.365 109.408 144.438 109.336C144.512 109.264 144.57 109.178 144.61 109.083C144.65 108.988 144.67 108.886 144.67 108.783L144.67 8.81657Z" fill="white"/>
<path d="M34.4355 19.101L22.5228 19.3193C22.4214 19.3211 22.3247 19.3627 22.2536 19.4351C22.1825 19.5075 22.1427 19.605 22.1427 19.7064V23.9416L18.7731 24.0128C18.672 24.015 18.5757 24.0568 18.5049 24.1292C18.4341 24.2015 18.3945 24.2987 18.3945 24.3999V35.416C18.3945 35.5187 18.4353 35.6171 18.5079 35.6897C18.5805 35.7623 18.679 35.8031 18.7817 35.8031L30.0919 35.5639C30.1931 35.5616 30.2894 35.5199 30.3602 35.4475C30.4309 35.3752 30.4706 35.278 30.4705 35.1767V30.9648L34.4471 30.892C34.5485 30.8902 34.6452 30.8486 34.7163 30.7762C34.7874 30.7038 34.8273 30.6064 34.8272 30.5049V19.4881C34.8272 19.4369 34.8171 19.3861 34.7973 19.3389C34.7776 19.2916 34.7487 19.2487 34.7122 19.2127C34.6758 19.1767 34.6326 19.1483 34.585 19.1291C34.5375 19.1099 34.4867 19.1003 34.4355 19.101ZM29.6986 34.7981L19.1688 35.0203V24.7786L22.1427 24.7158V30.7225C22.1427 30.8251 22.1835 30.9236 22.2561 30.9962C22.3287 31.0688 22.4271 31.1096 22.5298 31.1096L29.6963 30.9788L29.6986 34.7981ZM29.6986 30.2045L22.9193 30.3284V24.6996L29.6986 24.5563V30.2045ZM34.0553 30.1271L30.4729 30.1929V24.1615C30.4729 24.1099 30.4626 24.0589 30.4426 24.0113C30.4226 23.9638 30.3933 23.9207 30.3565 23.8847C30.3196 23.8486 30.2759 23.8203 30.228 23.8013C30.18 23.7824 30.1288 23.7732 30.0772 23.7743L22.9193 23.9292V20.0866L34.0592 19.8822L34.0553 30.1271Z" fill="black"/>
<path d="M42.206 24.4704C42.1357 24.4107 42.0526 24.3682 41.9631 24.346C41.8737 24.3238 41.7803 24.3227 41.6903 24.3427C41.0709 24.4781 40.4136 25.4622 40.2332 25.7967C40.1844 25.887 40.1017 25.9543 40.0034 25.9837C39.905 26.0131 39.799 26.0023 39.7086 25.9535C39.6183 25.9047 39.551 25.822 39.5216 25.7237C39.4922 25.6253 39.5031 25.5193 39.5518 25.4289C39.6401 25.2648 40.4484 23.8208 41.5254 23.5854C41.7245 23.5423 41.9306 23.5438 42.129 23.5898C42.3274 23.6359 42.5131 23.7253 42.6728 23.8518C44.0231 24.8707 43.653 25.8331 45.5376 25.2036C46.2037 24.9655 46.8273 24.6223 47.3849 24.187C48.1538 23.6358 48.8792 23.117 49.9175 23.844C51.3383 24.8389 51.0015 25.5815 52.9232 24.7499C55.194 23.7689 55.3272 23.7759 57.6794 25.0341C57.7739 25.0834 57.8461 25.167 57.8809 25.2678C57.9157 25.3686 57.9107 25.4789 57.8667 25.576C57.8471 25.6211 57.8183 25.6617 57.7823 25.6952C57.7462 25.7287 57.7036 25.7543 57.6572 25.7706C57.6108 25.7869 57.5615 25.7934 57.5124 25.7898C57.4633 25.7861 57.4155 25.7724 57.372 25.7495C55.2242 24.6013 55.2235 24.6005 53.2375 25.4599C50.8009 26.5152 50.7599 25.3825 49.4723 24.4805C48.911 24.0871 48.633 24.2482 47.8363 24.818C47.2158 25.2988 46.5227 25.6778 45.783 25.9407C43.3759 26.7397 43.3503 25.3329 42.206 24.4704Z" fill="black"/>
<path d="M37.0834 31.7112C36.9982 31.7114 36.9154 31.6835 36.8477 31.6319C36.7799 31.5802 36.7311 31.5077 36.7088 31.4255C36.6865 31.3433 36.6919 31.2561 36.7242 31.1773C36.7565 31.0984 36.8139 31.0325 36.8875 30.9896C37.9316 30.3892 38.934 29.719 39.8877 28.9835C39.9595 28.9092 40.0462 28.8509 40.1422 28.8126C40.2382 28.7743 40.3412 28.7568 40.4444 28.7613C41.3913 28.807 41.7429 30.7117 43.3866 30.3454C45.3842 29.8933 46.3125 28.2093 47.8641 29.0292C48.0429 29.1229 48.2195 29.222 48.3983 29.3219C49.5179 29.949 50.5747 30.5421 52.2564 30.0396C54.2633 29.4434 55.9728 28.3657 57.248 29.4891C57.2861 29.5228 57.3173 29.5636 57.3396 29.6093C57.362 29.655 57.3751 29.7046 57.3783 29.7554C57.3814 29.8061 57.3746 29.857 57.3581 29.9051C57.3415 29.9532 57.3157 29.9976 57.2821 30.0357C57.2484 30.0739 57.2076 30.105 57.1619 30.1273C57.1162 30.1497 57.0666 30.1628 57.0158 30.166C56.9651 30.1691 56.9142 30.1623 56.8661 30.1458C56.818 30.1293 56.7736 30.1035 56.7355 30.0698C55.8838 29.3149 54.621 30.1418 52.4771 30.7821C50.4818 31.3744 49.1741 30.6427 48.0197 29.9978C47.1177 29.4922 47.0294 29.3614 45.7697 30.1232C45.0929 30.5718 44.345 30.9027 43.5577 31.1019C43.0379 31.2028 42.4998 31.1467 42.012 30.9405C41.5243 30.7343 41.109 30.3876 40.8192 29.9444C40.6987 29.7882 40.5563 29.6503 40.3964 29.5348C39.415 30.3237 38.3724 31.0334 37.2785 31.657C37.2194 31.6921 37.1521 31.7108 37.0834 31.7112Z" fill="black"/>
<path fill-rule="evenodd" clip-rule="evenodd" d="M77.5396 30.9013L71.4556 38.3342L72.4807 50.9359L78.0042 43.1678L77.5396 30.9013Z" fill="#81F8F8"/>
<path d="M77.9262 30.8866C77.9234 30.8083 77.8968 30.7327 77.8501 30.6698C77.8034 30.6069 77.7386 30.5597 77.6645 30.5343C77.5871 30.4902 78.599 30.5181 63.3525 31.1684C63.2562 31.173 63.1651 31.2133 63.097 31.2815L55.4319 38.9535C55.3936 38.9922 55.3638 39.0383 55.3443 39.0891C55.3248 39.1399 55.3162 39.1942 55.3188 39.2485L55.9777 51.3826C55.9833 51.4815 56.0265 51.5744 56.0985 51.6424C56.1705 51.7104 56.2658 51.7482 56.3648 51.748L72.5134 51.323C72.5694 51.3184 72.6238 51.3018 72.6728 51.2741C72.7217 51.2464 72.764 51.2084 72.7968 51.1627L78.3203 43.3939C78.3696 43.3244 78.3947 43.2406 78.3915 43.1554L77.9262 30.8866ZM63.5383 31.9349L76.6913 31.3272L71.2661 37.9571L56.6931 38.7801L63.5383 31.9349ZM56.7249 50.9645L56.1055 39.5915L71.0973 38.7398L72.0574 50.558L56.7249 50.9645ZM72.7782 49.8457L71.8561 38.4572L77.1914 31.9373L77.6126 43.0501L72.7782 49.8457Z" fill="black"/>
<path d="M83.1468 42.6514L81.5573 41.3777C81.5181 41.3429 81.4722 41.3164 81.4224 41.2998C81.3726 41.2832 81.3199 41.2769 81.2676 41.2814C81.2153 41.2858 81.1645 41.3008 81.1182 41.3254C81.0718 41.3501 81.031 41.3839 80.9982 41.4249C80.9653 41.4658 80.9412 41.513 80.9271 41.5635C80.9131 41.6141 80.9095 41.667 80.9165 41.719C80.9235 41.771 80.9411 41.821 80.968 41.8661C80.995 41.9111 81.0308 41.9501 81.0734 41.9809L81.8585 42.6103L67.6324 43.2228C67.5464 41.2724 66.0583 40.406 64.1258 40.4935L63.4507 27.0216L64.3263 28.1729C64.3571 28.2135 64.3956 28.2478 64.4395 28.2736C64.4835 28.2994 64.5321 28.3163 64.5826 28.3233C64.6332 28.3303 64.6845 28.3273 64.7339 28.3144C64.7832 28.3016 64.8296 28.2791 64.8702 28.2484C64.9109 28.2176 64.9451 28.1791 64.9709 28.1352C64.9967 28.0912 65.0136 28.0426 65.0206 27.992C65.0276 27.9415 65.0246 27.8901 65.0118 27.8408C64.9989 27.7915 64.9765 27.7451 64.9457 27.7045L63.3105 25.5582C63.2709 25.5061 63.2187 25.465 63.1588 25.4385C63.0989 25.4121 63.0333 25.4013 62.9681 25.4071C62.9029 25.4129 62.8403 25.4351 62.786 25.4717C62.7317 25.5083 62.6876 25.558 62.6578 25.6163L61.258 28.3502C61.233 28.3956 61.2175 28.4455 61.2122 28.4971C61.2069 28.5486 61.212 28.6007 61.2272 28.6502C61.2424 28.6997 61.2674 28.7457 61.3007 28.7854C61.334 28.825 61.375 28.8576 61.4211 28.8812C61.4672 28.9048 61.5176 28.9189 61.5693 28.9226C61.6209 28.9264 61.6728 28.9197 61.7219 28.9031C61.7709 28.8864 61.8161 28.86 61.8548 28.8256C61.8935 28.7911 61.9249 28.7493 61.9471 28.7025L62.688 27.2562L63.5087 43.6223L51.7897 55.4095L52.1342 53.4026C52.1445 53.3519 52.1445 53.2995 52.1343 53.2488C52.124 53.198 52.1036 53.1498 52.0744 53.107C52.0452 53.0643 52.0076 53.0278 51.9641 52.9998C51.9205 52.9718 51.8717 52.9529 51.8207 52.9441C51.7696 52.9352 51.7173 52.9368 51.6669 52.9485C51.6164 52.9603 51.5689 52.9821 51.527 53.0126C51.4851 53.0431 51.4498 53.0816 51.4231 53.126C51.3964 53.1704 51.3789 53.2197 51.3716 53.271L50.8195 56.4857C50.8083 56.5514 50.8142 56.6188 50.8366 56.6816C50.8591 56.7443 50.8974 56.8001 50.9477 56.8437C50.9981 56.8873 51.0589 56.9172 51.1242 56.9304C51.1895 56.9437 51.2571 56.9398 51.3205 56.9193C51.3367 56.9139 52.9386 56.3943 53.7206 56.217C53.7712 56.2068 53.8192 56.1866 53.8618 56.1575C53.9045 56.1284 53.9409 56.0912 53.9689 56.0478C53.9969 56.0045 54.016 55.956 54.025 55.9052C54.034 55.8544 54.0328 55.8024 54.0214 55.752C54.0099 55.7017 53.9886 55.6542 53.9586 55.6122C53.9285 55.5703 53.8904 55.5348 53.8465 55.5078C53.8025 55.4808 53.7536 55.4628 53.7026 55.455C53.6516 55.4471 53.5996 55.4496 53.5495 55.4621C53.2785 55.5241 52.9232 55.6216 52.5662 55.7254L64.0716 44.1542L81.781 43.3923L80.5144 44.4546C80.4355 44.5204 80.386 44.6149 80.3768 44.7172C80.3676 44.8195 80.3994 44.9212 80.4652 45.0001C80.531 45.0789 80.6255 45.1284 80.7278 45.1376C80.8301 45.1468 80.9318 45.115 81.0107 45.0492L83.1577 43.2537C83.202 43.2167 83.2374 43.1701 83.2614 43.1176C83.2853 43.065 83.2972 43.0077 83.2962 42.95C83.2952 42.8922 83.2812 42.8354 83.2554 42.7837C83.2295 42.7321 83.1924 42.6869 83.1468 42.6514ZM64.1668 41.2717C64.9164 41.199 65.6666 41.4045 66.2743 41.8493C66.4624 42.0323 66.6113 42.2517 66.7119 42.4941C66.8125 42.7364 66.8628 42.9968 66.8597 43.2592L64.2721 43.3707L64.1668 41.2717Z" fill="black"/>
<path d="M107.185 27.5287C107.185 28.1581 108.08 28.7617 109.673 29.2067C111.267 29.6518 113.428 29.9018 115.682 29.9018C117.936 29.9018 120.097 29.6518 121.691 29.2067C123.284 28.7617 124.179 28.1581 124.179 27.5287C124.179 26.8993 123.284 26.2957 121.691 25.8507C120.097 25.4056 117.936 25.1556 115.682 25.1556C113.428 25.1556 111.267 25.4056 109.673 25.8507C108.08 26.2957 107.185 26.8993 107.185 27.5287Z" fill="#FFD997"/>
<path d="M107.185 46.1912C107.185 46.8206 108.08 47.4242 109.673 47.8693C111.267 48.3143 113.428 48.5643 115.682 48.5643C117.936 48.5643 120.097 48.3143 121.691 47.8693C123.284 47.4242 124.179 46.8206 124.179 46.1912C124.179 45.5619 123.284 44.9583 121.691 44.5132C120.097 44.0682 117.936 43.8182 115.682 43.8182C113.428 43.8182 111.267 44.0682 109.673 44.5132C108.08 44.9583 107.185 45.5619 107.185 46.1912Z" fill="#FFD997"/>
<path d="M124.57 27.5318C124.57 25.72 120.1 24.7685 115.684 24.7685C111.269 24.7685 106.8 25.72 106.8 27.5318V46.1912C106.8 48.0022 111.269 48.9507 115.684 48.9507C120.1 48.9507 124.57 48.003 124.57 46.192V27.5318ZM115.297 29.5115C111.318 29.462 108.561 28.649 107.794 27.9228H115.297V29.5115ZM116.071 44.2084C120.065 44.2579 122.823 45.0763 123.582 45.8049H116.071V44.2084ZM116.071 43.4341V30.2858C119.246 30.2463 122.385 29.7167 123.795 28.728V44.9873C122.382 44.0032 119.246 43.4736 116.069 43.4334L116.071 43.4341ZM116.071 29.5123V27.9228H123.575C122.801 28.649 120.049 29.462 116.069 29.5115L116.071 29.5123ZM115.684 25.5435C119.901 25.5435 122.818 26.3952 123.59 27.1493H107.776C108.549 26.3921 111.465 25.5404 115.682 25.5404L115.684 25.5435ZM115.297 30.2866V43.4334C112.123 43.4736 108.984 44.0032 107.574 44.9912V28.7319C108.982 29.7167 112.117 30.2463 115.295 30.2858L115.297 30.2866ZM115.297 44.2092V45.8057H107.787C108.543 45.0763 111.301 44.2579 115.295 44.2084L115.297 44.2092ZM107.787 46.5799H123.582C122.797 47.3309 119.886 48.178 115.684 48.178C111.482 48.178 108.568 47.3302 107.784 46.5791L107.787 46.5799Z" fill="black"/>
<path d="M129.447 51.3811C129.506 51.4652 129.596 51.5224 129.697 51.5402C129.798 51.558 129.902 51.5348 129.986 51.4759C130.071 51.417 130.128 51.327 130.146 51.2259C130.163 51.1248 130.14 51.0207 130.081 50.9366C129.19 49.6201 128.033 48.5048 126.685 47.6623C126.625 47.6294 126.559 47.6126 126.491 47.6136C126.423 47.6146 126.357 47.6333 126.299 47.6679C126.24 47.7026 126.192 47.7519 126.159 47.811C126.126 47.87 126.109 47.9368 126.109 48.0045C126.137 50.4551 126.078 53.8726 126.078 53.9067C126.076 54.0092 126.115 54.1082 126.186 54.182C126.258 54.2557 126.355 54.2982 126.458 54.3C126.509 54.3009 126.559 54.2918 126.607 54.2732C126.654 54.2546 126.697 54.2268 126.734 54.1915C126.77 54.1562 126.8 54.1141 126.82 54.0675C126.84 54.0208 126.851 53.9707 126.852 53.9198C126.852 53.8927 126.89 51.7055 126.891 49.5716C128.147 52.043 130.512 57.6525 128.464 61.5849C128.439 61.6301 128.423 61.6799 128.418 61.7314C128.412 61.7828 128.417 61.8348 128.432 61.8843C128.447 61.9338 128.472 61.9798 128.505 62.0196C128.538 62.0594 128.578 62.0922 128.624 62.116C128.67 62.1399 128.72 62.1543 128.772 62.1584C128.823 62.1626 128.875 62.1563 128.924 62.1401C128.973 62.1238 129.019 62.0979 129.057 62.0639C129.096 62.0298 129.128 61.9884 129.151 61.9419C131.343 57.7315 129.004 52.0136 127.663 49.3626C128.332 49.9655 128.931 50.6427 129.447 51.3811Z" fill="black"/>
<path d="M121.008 60.7526C119.936 60.7824 118.875 60.5358 117.926 60.0364C116.41 59.1522 114.959 59.5517 113.74 60.0565C113.572 60.1262 113.415 60.1967 113.267 60.2617C112.267 60.7061 111.476 61.0569 110.141 60.0093C109.014 59.1236 107.933 59.8591 106.203 60.4545C104.306 61.108 103.509 59.8909 102.509 59.3574C101.883 59.0206 100.924 60.048 100.636 60.4328C100.574 60.515 100.482 60.5693 100.381 60.5838C100.279 60.5983 100.176 60.5719 100.094 60.5103C100.012 60.4487 99.9574 60.3569 99.9429 60.2553C99.9283 60.1537 99.9548 60.0504 100.016 59.9683C100.078 59.8909 101.537 57.9552 102.875 58.6737C103.992 59.2691 104.473 60.2315 105.952 59.7213C107.655 59.1344 109.105 58.2084 110.62 59.3992C111.748 60.2842 112.141 59.88 113.444 59.3404C114.197 58.9473 115.034 58.7443 115.884 58.7488C116.733 58.7534 117.568 58.9655 118.317 59.3667C119.716 60.0265 121.308 60.1577 122.796 59.736C122.843 59.7138 122.894 59.7013 122.946 59.6991C122.998 59.6969 123.049 59.7051 123.098 59.7233C123.146 59.7415 123.191 59.7692 123.228 59.8049C123.266 59.8406 123.296 59.8834 123.317 59.9309C123.338 59.9784 123.349 60.0296 123.349 60.0815C123.35 60.1333 123.34 60.1847 123.32 60.2327C123.301 60.2807 123.272 60.3242 123.235 60.3607C123.198 60.3972 123.154 60.4259 123.106 60.4452C122.43 60.6683 121.72 60.7723 121.008 60.7526Z" fill="black"/>
<path d="M103.192 65.1619C102.573 64.8104 101.43 65.5963 101.079 65.899C101.04 65.9323 100.996 65.9577 100.947 65.9738C100.899 65.9898 100.848 65.9962 100.798 65.9926C100.747 65.989 100.697 65.9754 100.652 65.9526C100.606 65.9299 100.566 65.8984 100.533 65.8599C100.499 65.8215 100.474 65.7769 100.458 65.7286C100.442 65.6804 100.435 65.6294 100.439 65.5787C100.443 65.528 100.456 65.4785 100.479 65.433C100.502 65.3875 100.533 65.347 100.572 65.3137C100.753 65.1588 102.377 63.8008 103.577 64.4899C103.881 64.6807 104.164 64.9034 104.42 65.1542C105.195 65.8572 105.675 66.2273 106.533 65.6273C108.283 64.4055 109.074 65.8131 111.623 65.7256C114.078 65.6273 114.487 63.6227 117.151 64.4791C119.208 65.1395 119.701 64.0006 119.721 63.951C119.759 63.8561 119.833 63.7799 119.926 63.7392C120.02 63.6984 120.126 63.6964 120.221 63.7335C120.316 63.7704 120.392 63.8429 120.434 63.9354C120.475 64.0279 120.479 64.1331 120.444 64.2282C120.437 64.246 119.701 66.112 116.914 65.2154C114.646 64.486 114.392 66.3868 111.654 66.4999C108.976 66.5982 108.345 65.3083 106.975 66.2629C105.136 67.5466 104.077 65.6675 103.192 65.1619Z" fill="black"/>
<path d="M117.395 71.8546L115.198 72.5444C115.1 72.5752 115.018 72.6437 114.97 72.7348C114.923 72.826 114.913 72.9322 114.944 73.0303C114.975 73.1283 115.044 73.2101 115.135 73.2577C115.226 73.3052 115.332 73.3146 115.43 73.2838L116.396 72.9803L113.444 76.6038C111.392 75.4154 107.637 77.1961 104.652 80.8622L104.502 81.048L101.984 79.1573H103.222C103.325 79.1573 103.424 79.1165 103.496 79.0439C103.569 78.9713 103.61 78.8729 103.61 78.7702C103.61 78.6675 103.569 78.5691 103.496 78.4965C103.424 78.4239 103.325 78.3831 103.222 78.3831H100.829C100.769 78.383 100.71 78.3969 100.656 78.4236C100.603 78.4504 100.556 78.4892 100.52 78.5371C100.484 78.585 100.459 78.6407 100.448 78.6997C100.437 78.7587 100.44 78.8194 100.457 78.877L101.059 80.9869C101.072 81.0371 101.095 81.0842 101.126 81.1254C101.157 81.1667 101.197 81.2012 101.242 81.227C101.286 81.2528 101.336 81.2693 101.388 81.2756C101.439 81.2818 101.491 81.2777 101.541 81.2635C101.591 81.2492 101.637 81.2251 101.677 81.1926C101.718 81.1601 101.751 81.1198 101.776 81.0742C101.8 81.0285 101.815 80.9785 101.82 80.9269C101.825 80.8753 101.819 80.8233 101.803 80.774L101.518 79.7721L104.038 81.6636C101.541 85.0981 100.797 88.6891 102.262 90.3352L98.7264 94.6756V92.2484C98.7264 92.1457 98.6856 92.0472 98.613 91.9746C98.5404 91.902 98.4419 91.8612 98.3393 91.8612C98.2366 91.8612 98.1381 91.902 98.0655 91.9746C97.9929 92.0472 97.9521 92.1457 97.9521 92.2484V95.7627C97.9521 95.8227 97.966 95.8819 97.9927 95.9356C98.0195 95.9893 98.0583 96.036 98.1062 96.0721C98.1541 96.1082 98.2098 96.1327 98.2688 96.1437C98.3277 96.1546 98.3885 96.1517 98.4461 96.1351L102.013 95.1053C102.062 95.0913 102.108 95.0677 102.147 95.036C102.187 95.0043 102.22 94.9651 102.245 94.9206C102.269 94.8761 102.285 94.8271 102.291 94.7766C102.296 94.7261 102.292 94.6749 102.278 94.6261C102.264 94.5772 102.24 94.5316 102.209 94.4919C102.177 94.4521 102.138 94.419 102.093 94.3944C102.049 94.3698 102 94.3543 101.949 94.3486C101.899 94.3429 101.847 94.3472 101.799 94.3613L99.4225 95.0473L102.862 90.8245C103.315 91.0767 103.826 91.2037 104.344 91.1923C106.322 91.1923 108.959 89.6662 111.234 87.0686L115.693 90.4157H114.918C114.816 90.4157 114.717 90.4565 114.645 90.5291C114.572 90.6017 114.531 90.7002 114.531 90.8028C114.531 90.9055 114.572 91.004 114.645 91.0766C114.717 91.1492 114.816 91.19 114.918 91.19H116.854C116.909 91.1905 116.964 91.179 117.015 91.1564C117.066 91.1338 117.111 91.1005 117.148 91.0589C117.185 91.0173 117.212 90.9682 117.228 90.9151C117.244 90.8619 117.249 90.806 117.241 90.751L116.806 87.5409C116.801 87.4899 116.785 87.4406 116.76 87.3959C116.734 87.3512 116.7 87.3122 116.659 87.2812C116.619 87.2501 116.572 87.2278 116.522 87.2155C116.472 87.2031 116.421 87.2011 116.37 87.2095C116.32 87.2164 116.271 87.2331 116.227 87.2587C116.183 87.2843 116.145 87.3184 116.114 87.3588C116.083 87.3993 116.061 87.4455 116.048 87.4946C116.035 87.5438 116.032 87.5951 116.039 87.6454L116.348 89.9388L111.735 86.4755C114.661 82.8366 115.619 78.8538 114.052 77.0978L117.132 73.3171V75.0615C117.132 75.1642 117.173 75.2627 117.245 75.3353C117.318 75.4079 117.416 75.4487 117.519 75.4487C117.622 75.4487 117.72 75.4079 117.793 75.3353C117.865 75.2627 117.906 75.1642 117.906 75.0615V72.2278C117.907 72.1658 117.893 72.1044 117.866 72.0489C117.838 71.9933 117.797 71.9453 117.747 71.9087C117.697 71.8721 117.639 71.8481 117.578 71.8387C117.517 71.8293 117.454 71.8347 117.395 71.8546ZM105.251 81.3492C107.419 78.6889 110.133 77.0134 111.967 77.0134C112.304 77.0063 112.639 77.0765 112.946 77.2186L107.804 83.5287L105.121 81.5157C105.164 81.4568 105.208 81.4034 105.251 81.3492ZM102.756 89.7197C101.689 88.333 102.497 85.116 104.654 82.132L107.314 84.1296L102.756 89.7197ZM103.356 90.209L107.935 84.591L110.607 86.5979C108.078 89.4564 104.973 90.9964 103.355 90.209H103.356ZM111.107 86.0056L108.423 83.9925L113.546 77.7064C114.699 79.2014 113.664 82.835 111.107 86.0094V86.0056Z" fill="black"/>
<path fill-rule="evenodd" clip-rule="evenodd" d="M119.724 151.898C119.724 151.898 116.445 138.606 115.681 136.165C114.917 133.723 109.724 130.417 103.887 130.831C98.05 131.244 92.5729 135.429 91.1777 136.751C91.1777 136.751 98.6105 139.026 102.218 138.941C105.825 138.856 113.754 137.611 113.754 137.611C113.754 137.611 116.827 148.532 117.803 151.898H119.724Z" fill="#81F8F8"/>
<path fill-rule="evenodd" clip-rule="evenodd" d="M123.408 151.898H125.473L122.479 134.4C122.479 134.4 123.872 124.747 122.243 117.536C120.613 110.326 112.607 98.7296 111.614 99.8492C110.62 100.969 109.678 114.815 112.678 121.859C115.678 128.902 118.153 129.502 119.724 134.904C121.295 140.306 123.408 151.898 123.408 151.898Z" fill="#81F8F8"/>
<path fill-rule="evenodd" clip-rule="evenodd" d="M126.587 151.898C126.587 151.898 126.425 125.995 140.94 117.045C140.94 117.045 140.842 128.054 139.267 133.632C137.692 139.211 129.769 151.898 129.769 151.898H126.587Z" fill="#81F8F8"/>
<path d="M117.803 152.285C117.72 152.286 117.638 152.259 117.571 152.209C117.504 152.159 117.455 152.089 117.432 152.009C116.562 149.011 113.993 139.899 113.472 138.045C111.9 138.287 105.438 139.252 102.226 139.328C98.5824 139.392 91.371 137.214 91.0644 137.121C90.9994 137.101 90.9407 137.065 90.8941 137.016C90.8475 136.966 90.8147 136.906 90.7991 136.84C90.7834 136.774 90.7853 136.705 90.8047 136.639C90.8241 136.574 90.8603 136.516 90.9096 136.469C92.5293 134.934 98.0133 130.858 103.858 130.445C109.993 130.01 115.261 133.529 116.049 136.049C116.807 138.473 119.963 151.26 120.097 151.803C120.112 151.86 120.113 151.92 120.101 151.977C120.089 152.035 120.064 152.089 120.028 152.136C119.992 152.182 119.945 152.22 119.892 152.246C119.84 152.272 119.781 152.285 119.723 152.285H117.803ZM113.752 137.224C113.836 137.224 113.918 137.251 113.985 137.302C114.052 137.353 114.101 137.425 114.124 137.506C114.153 137.613 117.051 147.9 118.094 151.512H119.227C118.633 149.112 115.98 138.42 115.309 136.28C114.586 133.967 109.481 130.827 103.912 131.217C98.848 131.575 93.9245 134.922 91.9548 136.577C93.8517 137.124 99.3055 138.618 102.206 138.554C105.832 138.466 113.666 137.222 113.752 137.222V137.224Z" fill="black"/>
<path d="M125.474 152.285H123.408C123.317 152.286 123.229 152.254 123.16 152.196C123.09 152.138 123.043 152.057 123.026 151.968C123.006 151.852 120.898 140.329 119.351 135.012C117.809 129.705 115.337 129.083 112.321 122.011C109.246 114.796 110.195 100.864 111.324 99.5914C111.406 99.5006 111.513 99.4356 111.632 99.404C111.751 99.3724 111.876 99.3756 111.993 99.4133C114.064 99.946 121.12 110.816 122.619 117.453C124.178 124.35 122.985 133.558 122.869 134.396L125.855 151.839C125.863 151.894 125.86 151.951 125.844 152.004C125.829 152.058 125.803 152.107 125.766 152.15C125.73 152.192 125.685 152.226 125.635 152.249C125.584 152.273 125.53 152.285 125.474 152.285ZM123.731 151.511H125.015L122.097 134.461C122.066 134.28 123.49 124.823 121.864 117.618C120.31 110.736 113.299 100.62 111.856 100.171C111.087 101.527 110.085 114.787 113.033 121.703C116.002 128.671 118.503 129.322 120.095 134.792C121.508 139.65 123.379 149.607 123.731 151.511Z" fill="black"/>
<path d="M140.736 116.716C126.206 125.676 126.195 151.64 126.199 151.898C126.199 152.001 126.24 152.099 126.313 152.172C126.385 152.245 126.484 152.285 126.586 152.285H129.769C129.834 152.285 129.899 152.269 129.956 152.237C130.014 152.205 130.062 152.159 130.097 152.103C130.422 151.583 138.068 139.304 139.64 133.737C141.211 128.169 141.323 117.501 141.327 117.049C141.327 116.98 141.309 116.912 141.275 116.852C141.24 116.792 141.19 116.742 141.13 116.708C141.069 116.674 141.001 116.657 140.932 116.658C140.862 116.66 140.795 116.68 140.736 116.716ZM138.893 133.526C137.452 138.628 130.524 149.94 129.552 151.511H128.714C129.281 148.801 132.365 134.912 137.04 129.677C137.074 129.639 137.1 129.595 137.117 129.547C137.134 129.499 137.141 129.448 137.138 129.398C137.135 129.347 137.122 129.297 137.1 129.251C137.078 129.205 137.047 129.164 137.009 129.131C136.972 129.097 136.927 129.071 136.879 129.054C136.831 129.037 136.78 129.03 136.73 129.033C136.679 129.036 136.629 129.049 136.583 129.071C136.538 129.093 136.497 129.124 136.463 129.162C131.495 134.721 128.405 149.129 127.921 151.508H126.977C127.036 148.316 127.907 126.214 140.541 117.759C140.485 120.296 140.209 128.881 138.893 133.526Z" fill="black"/>
<path d="M120.793 132.293C120.696 132.294 120.602 132.257 120.53 132.191C120.458 132.125 120.414 132.034 120.406 131.937C119.964 126.339 115.162 114.249 115.114 114.129C115.095 114.081 115.085 114.031 115.086 113.98C115.087 113.929 115.097 113.879 115.117 113.832C115.158 113.738 115.234 113.664 115.33 113.625C115.425 113.587 115.532 113.589 115.626 113.629C115.72 113.67 115.795 113.746 115.833 113.841C116.033 114.342 120.727 126.163 121.175 131.877C121.179 131.93 121.172 131.983 121.155 132.033C121.138 132.083 121.11 132.129 121.075 132.168C121.039 132.207 120.995 132.238 120.947 132.26C120.899 132.281 120.846 132.293 120.793 132.293Z" fill="black"/>
<path d="M114.022 136.706C113.94 136.705 113.86 136.678 113.795 136.628C110.435 134.183 99.7382 135.103 99.6306 135.112C99.5287 135.119 99.4278 135.087 99.3494 135.021C99.271 134.955 99.2214 134.862 99.211 134.76C99.2019 134.658 99.2339 134.556 99.2998 134.478C99.3658 134.399 99.4602 134.35 99.5625 134.341C100.013 134.301 110.658 133.389 114.249 136.003C114.317 136.05 114.367 136.118 114.393 136.197C114.419 136.275 114.419 136.359 114.394 136.438C114.369 136.516 114.319 136.584 114.252 136.633C114.185 136.681 114.105 136.707 114.022 136.706Z" fill="black"/>
<path fill-rule="evenodd" clip-rule="evenodd" d="M53.5538 78.5805L49.4077 75.1266C50.2917 74.4651 51.0995 73.7077 51.8164 72.8681C52.641 71.7903 51.8691 69.4552 52.3839 68.1645C52.8988 66.8738 53.8194 65.5785 54.5751 65.5785C54.7438 65.2 55.028 64.8846 55.387 64.6775C55.746 64.4704 56.1613 64.3822 56.5734 64.4256C56.5734 64.4256 57.3655 63.272 58.1637 63.272C58.1637 63.272 59.4753 59.2211 60.4005 59.3907C61.3258 59.5602 60.2209 64.8987 59.9515 65.5785C59.9515 65.5785 61.5774 67.5606 61.4225 68.3821C61.2584 69.2415 61.157 70.1117 61.119 70.9859C61.119 71.6192 60.0684 73.0353 58.6832 73.8436C57.5585 74.4795 56.5478 75.2988 55.6931 76.2678C54.9537 77.1001 53.5538 78.5805 53.5538 78.5805Z" fill="#FFD997"/>
<path fill-rule="evenodd" clip-rule="evenodd" d="M62.1149 87.0493C60.6989 90.4969 58.5908 93.6174 55.9209 96.2179C55.9209 96.2179 66.2959 102.936 70.5844 102.399C74.5107 101.906 72.7911 101.729 75.59 96.7963C78.3889 91.8636 79.7028 89.4409 80.9145 85.4326C82.1262 81.4243 82.1618 77.7428 84.9476 75.4812C87.7333 73.2196 89.6543 71.0827 88.9319 69.2206C88.5143 68.1244 87.9169 67.1054 87.1643 66.2056C87.1643 66.2056 87.9548 63.471 86.8623 63.1334C85.7698 62.7958 84.3359 65.1906 83.6476 66.3953L79.0548 69.2353C79.0548 69.2353 79.0013 71.9545 78.7404 74.1905C78.3254 77.742 71.3285 85.6843 68.3004 90.3724L62.1149 87.0493Z" fill="#FFD997"/>
<path fill-rule="evenodd" clip-rule="evenodd" d="M42.5303 69.833C42.5303 69.833 44.0014 66.1553 44.6448 63.9247C44.6448 63.9247 48.314 64.0571 49.0534 63.272C49.7928 62.4869 48.9558 60.9237 48.9558 60.9237C48.9558 60.9237 49.8617 60.0767 49.7548 59.7314C49.648 59.386 48.6709 58.6993 48.6709 58.6993C48.6709 58.6993 49.9027 58.2835 50.0568 57.8375C50.2109 57.3916 49.4072 56.5569 49.4072 56.5569C49.4072 56.5569 50.8868 56.3378 51.0184 55.6093C51.15 54.8807 50.5748 54.1157 49.991 53.5134C49.4072 52.911 48.7073 52.4054 49.0572 51.6195C49.4072 50.8337 48.986 50.0826 48.3767 49.4299C48.3125 49.0432 48.1371 48.6835 47.8719 48.3948C47.8045 48.9124 47.5969 49.4018 47.2716 49.8101C46.9463 50.2184 46.5156 50.53 46.026 50.7113C46.026 50.7113 44.7973 53.6612 40.5134 55.9577C40.5134 55.9577 39.9714 53.5753 38.4461 53.7301C36.9209 53.885 36.2465 56.3285 37.8732 58.7906C37.8732 58.7906 37.5008 62.1145 33.2277 61.6205C33.2277 61.6205 33.0225 64.6401 32.4751 65.2866C36.0409 66.2754 39.4326 67.809 42.5303 69.833Z" fill="#FFD997"/>
<path fill-rule="evenodd" clip-rule="evenodd" d="M27.5333 115.189C27.2948 119.463 27.6236 123.75 28.5112 127.937C29.3467 131.794 29.9184 135.703 30.2222 139.638C30.4496 143.583 30.4677 147.537 30.2764 151.484H52.4564L52.8559 119.36C52.8559 119.36 44.5893 121.403 38.2714 117.95C32.2849 114.678 27.5333 115.189 27.5333 115.189Z" fill="white"/>
<path fill-rule="evenodd" clip-rule="evenodd" d="M28.4709 70.2921C29.0903 69.0742 29.5548 67.4274 30.7162 66.7306C31.3777 66.3466 31.9727 65.8582 32.4784 65.2843C32.4784 65.2843 40.1543 66.8932 44.6667 71.9545C47.1429 73.5162 49.5217 75.2274 51.7898 77.0785C54.701 79.5653 62.6092 85.6332 62.6092 85.6332C62.6092 85.6332 60.418 93.5305 53.7703 97.8717C53.7703 97.8717 53.8702 113.858 52.8598 119.36C52.8598 119.36 44.2718 121.262 39.5729 118.633C34.8739 116.005 29.0585 114.557 27.5371 115.189C27.5371 115.189 28.9517 106.784 28.4298 103.437C27.908 100.09 22.6725 81.2733 25.106 73.3752C26.4028 72.5568 27.5425 71.5126 28.4709 70.2921Z" fill="#81F8F8"/>
<path d="M72.1602 63.7451C71.8257 63.5515 69.9482 64.3381 68.1496 65.4345C68.1062 65.4637 68.0573 65.4838 68.0059 65.4936C67.9546 65.5033 67.9018 65.5026 67.8507 65.4914C67.7996 65.4802 67.7513 65.4588 67.7087 65.4285C67.6662 65.3981 67.6302 65.3594 67.603 65.3148C67.5757 65.2701 67.5579 65.2204 67.5504 65.1687C67.5429 65.1169 67.546 65.0642 67.5594 65.0136C67.5729 64.9631 67.5964 64.9158 67.6287 64.8746C67.6609 64.8335 67.7011 64.7993 67.747 64.7741C69.2575 63.8535 71.9101 62.4203 72.7022 63.1899C72.9719 63.4975 73.174 63.8584 73.2952 64.2491C73.6297 65.1008 73.7939 65.3532 74.4713 65.1008C74.9856 64.8982 75.459 64.6045 75.8688 64.2336C76.0832 63.974 76.3714 63.7857 76.6952 63.6936C77.0191 63.6015 77.3633 63.61 77.6821 63.718C78.828 64.167 78.3859 64.6471 79.6526 63.9921C81.3289 63.128 82.3942 62.5341 84.2981 63.1071C84.3925 63.1398 84.4705 63.2077 84.516 63.2965C84.5615 63.3854 84.5709 63.4884 84.5422 63.5841C84.5135 63.6797 84.449 63.7606 84.3621 63.8098C84.2752 63.8589 84.1727 63.8727 84.0759 63.848C82.4268 63.3556 81.5302 63.8945 80.0041 64.6804C78.2923 65.5615 78.3403 64.8089 77.3972 64.4396C77.0333 64.2963 76.8552 64.4194 76.3597 64.8313C75.8834 65.2582 75.3339 65.5955 74.7377 65.827C72.7718 66.5564 72.6998 64.27 72.1602 63.7451Z" fill="black"/>
<path d="M47.2217 52.2575C47.1547 52.2576 47.0888 52.2403 47.0304 52.2073C46.9721 52.1743 46.9233 52.1267 46.8889 52.0692C46.8545 52.0117 46.8356 51.9462 46.8341 51.8792C46.8326 51.8122 46.8485 51.7459 46.8802 51.6869C46.9987 51.4662 47.6313 50.366 48.476 50.3289C48.6874 50.3296 48.8947 50.3876 49.0759 50.4967C49.257 50.6057 49.4053 50.7618 49.5049 50.9483C49.55 51.0169 49.572 51.0981 49.5679 51.1801C49.5638 51.2621 49.5337 51.3407 49.482 51.4044C49.4303 51.4682 49.3596 51.5139 49.2802 51.5349C49.2009 51.5559 49.1169 51.5511 49.0404 51.5212C49.0009 51.5088 48.3242 51.2889 47.4981 52.136C47.4625 52.1737 47.4197 52.2039 47.3722 52.2248C47.3247 52.2457 47.2735 52.2568 47.2217 52.2575Z" fill="black"/>
<path fill-rule="evenodd" clip-rule="evenodd" d="M46.9609 54.1358C46.9609 54.1358 47.7073 52.8645 48.3708 52.6222L48.5427 53.7681C48.3692 54.0116 48.1126 54.1833 47.8214 54.251C47.5301 54.3187 47.2241 54.2778 46.9609 54.1358Z" fill="white"/>
<path d="M48.7144 52.801C48.7503 52.7318 48.7644 52.6534 48.755 52.576C48.7456 52.4986 48.713 52.4259 48.6615 52.3673C48.6101 52.3087 48.5421 52.2671 48.4666 52.2478C48.3911 52.2284 48.3115 52.2324 48.2382 52.2591C47.6368 52.5659 47.1344 53.0364 46.7888 53.6163C46.7348 53.7037 46.7177 53.809 46.7413 53.9089C46.7649 54.0089 46.8273 54.0954 46.9146 54.1494C47.002 54.2034 47.1072 54.2205 47.2072 54.1969C47.3072 54.1733 47.3937 54.111 47.4477 54.0236C47.5355 53.8855 47.6319 53.7531 47.7365 53.6272C47.7719 53.7225 47.8351 53.8051 47.9179 53.8641C48.0007 53.9232 48.0994 53.9561 48.201 53.9586C48.6927 53.9555 48.8475 53.2733 48.7144 52.801Z" fill="black"/>
<path fill-rule="evenodd" clip-rule="evenodd" d="M84.9959 63.7884C82.8017 64.764 84.138 64.0981 79.1813 66.7306C79.1813 66.7306 79.1433 64.2321 80.561 63.3642C81.9786 62.4962 84.9959 63.7884 84.9959 63.7884Z" fill="#FFD997"/>
<path d="M89.2947 69.0805C88.8809 68.0095 88.3066 67.0077 87.5913 66.1096C87.7957 65.316 88.2293 63.1505 86.9773 62.7633C86.6637 62.7099 86.3416 62.7424 86.0449 62.8573C85.7483 62.9722 85.4883 63.1653 85.2926 63.416C84.7343 63.1574 81.9091 61.945 80.3064 63.0529C79.7495 63.4374 79.3061 63.9645 79.0226 64.5791C78.7392 65.1937 78.6261 65.8731 78.6952 66.5463L74.9161 68.5826C74.8361 68.6263 74.7737 68.6963 74.7395 68.7808C74.5558 69.0153 74.444 69.298 74.4175 69.5946C74.391 69.8913 74.451 70.1893 74.5902 70.4526C74.7294 70.716 74.9418 70.9334 75.2019 71.0786C75.462 71.2237 75.7585 71.2905 76.0558 71.2708C76.2617 71.3118 76.1967 71.3064 78.6503 69.8384C78.6185 70.7675 78.538 72.5847 78.3561 74.1487C78.0959 76.3723 74.7171 81.0186 72.1953 84.32C70.9085 86.0056 69.2601 88.2455 68.1692 89.8691L62.5946 86.8712C62.8346 86.2216 62.9523 85.8074 62.9717 85.7369C62.9923 85.6626 62.9902 85.5839 62.9658 85.5108C62.9414 85.4377 62.8957 85.3736 62.8346 85.3266C62.7704 85.277 57.6231 81.326 54.1375 78.5186C54.5935 78.0331 55.4537 77.1164 55.9771 76.5249C56.804 75.5853 57.7831 74.7917 58.8736 74.1773C60.2463 73.3768 61.499 71.8546 61.5014 70.9867C61.5396 70.1362 61.639 69.2895 61.7987 68.4533C61.9535 67.6101 60.8789 66.1306 60.3756 65.4972C60.6853 64.4133 61.5215 60.429 60.9385 59.3744C60.8923 59.2814 60.8255 59.2002 60.7431 59.137C60.6607 59.0738 60.5649 59.0302 60.4631 59.0098C59.4194 58.8309 58.4144 61.2752 57.8647 62.919C57.2608 63.1289 56.7374 63.5218 56.3673 64.0432C55.9505 64.0408 55.5404 64.1487 55.1787 64.3559C54.817 64.5631 54.5166 64.8623 54.3078 65.2231C53.2912 65.4647 52.4031 67.0527 52.0168 68.0213C51.4748 69.3785 52.2003 71.7199 51.5019 72.6327C50.8598 73.3915 50.137 74.0781 49.3464 74.6806C47.2397 73.1368 45.2429 71.8639 44.9123 71.6556C44.306 70.9852 43.6477 70.3639 42.9433 69.7974C43.1416 69.3003 44.3045 66.3675 44.9247 64.3211C45.9536 64.3405 48.6008 64.3126 49.3286 63.5391C50.0448 62.7796 49.6468 61.5524 49.4161 61.0112C49.8466 60.5737 50.2453 60.0318 50.1183 59.6176C49.9619 59.2947 49.7281 59.0154 49.4378 58.8046C49.8538 58.6511 50.2008 58.3532 50.4156 57.9653C50.4517 57.7582 50.4415 57.5457 50.3857 57.343C50.3299 57.1403 50.2298 56.9525 50.0928 56.7931C50.6216 56.6266 51.2812 56.2976 51.3927 55.6789C51.522 54.9589 51.152 54.1629 50.2623 53.2455C49.694 52.6563 49.1784 52.2947 49.4045 51.7783C49.7598 50.98 49.5392 50.1523 48.7301 49.2503C48.6512 48.8899 48.4924 48.5518 48.2655 48.2608C48.3639 46.367 47.115 44.8541 44.8914 44.1991C44.6072 44.1155 44.272 44.0048 43.9057 43.8824C41.3151 43.0246 36.9793 41.5891 33.6415 43.7276C29.538 46.36 28.207 49.6181 29.5651 53.6899L30.6343 56.8976C29.181 57.5766 23.3447 60.4212 22.14 62.8679C20.7626 65.6652 23.4872 68.4765 21.6987 70.1636C19.3248 72.4035 17.448 76.1153 19.9713 79.2053C20.0246 79.2707 20.0978 79.3169 20.1798 79.3368C20.2618 79.3568 20.348 79.3494 20.4254 79.3159C20.5028 79.2823 20.5671 79.2244 20.6085 79.1509C20.65 79.0774 20.6663 78.9924 20.655 78.9088C20.6356 78.7594 20.1989 75.2319 22.7091 74.6372C23.3248 74.4926 23.9282 74.3 24.5138 74.0612C22.5782 82.53 27.5295 100.218 28.039 103.493C28.4958 106.419 27.4343 113.315 27.1912 114.846C26.9047 116.651 26.9775 122.455 28.1273 128.009C28.9665 131.846 29.5357 135.737 29.8306 139.654C30.0546 143.603 30.0725 147.562 29.884 151.513C29.8814 151.565 29.8894 151.618 29.9076 151.668C29.9258 151.718 29.9539 151.763 29.9901 151.801C30.0869 151.902 28.6638 151.906 52.4527 151.863C52.5601 151.85 52.659 151.798 52.7304 151.717C52.8018 151.636 52.8408 151.531 52.8398 151.423L53.2393 119.388C54.187 114.165 54.1599 100.048 54.1506 98.0707C54.7801 97.6489 55.3833 97.1892 55.957 96.6941C59.1113 98.694 66.9467 103.233 70.6306 102.775C74.7906 102.253 73.1686 101.834 75.9249 96.9798C78.6704 92.1392 80.0462 89.6314 81.2835 85.5372C82.4952 81.5242 82.5277 77.934 85.1896 75.7739C87.7152 73.7368 90.1711 71.3405 89.2947 69.0805ZM80.7268 63.7033C81.6427 63.0715 83.3082 63.471 84.3658 63.8674L82.585 64.4535L79.4772 66.1275C79.4693 65.6517 79.5793 65.1813 79.7973 64.7583C80.0154 64.3353 80.3347 63.9729 80.7268 63.7033ZM52.1236 73.1027C53.0659 71.8724 52.2638 69.5102 52.743 68.3085C53.3021 66.9079 54.1413 65.9664 54.5749 65.9664C54.6554 65.9654 54.7336 65.9398 54.7991 65.893C54.8645 65.8462 54.9141 65.7805 54.9411 65.7047C55.0745 65.3989 55.3156 65.1529 55.6186 65.0133C55.1943 65.841 54.6237 66.8986 54.6121 66.9133C54.5861 66.9582 54.5694 67.0078 54.563 67.0592C54.5566 67.1107 54.5606 67.1629 54.5747 67.2127C54.5888 67.2626 54.6128 67.3091 54.6453 67.3495C54.6777 67.3899 54.718 67.4234 54.7636 67.448C54.8092 67.4726 54.8593 67.4877 54.9109 67.4926C54.9625 67.4975 55.0146 67.4919 55.064 67.4763C55.1134 67.4606 55.1592 67.4352 55.1986 67.4016C55.238 67.3679 55.2702 67.3267 55.2934 67.2803C55.3314 67.2099 56.1877 65.625 56.5826 64.8112C57.0471 63.7064 57.4923 63.6421 57.5039 64.1918C57.188 65.059 56.8032 65.8952 56.797 65.9091C56.7778 65.9562 56.768 66.0066 56.7683 66.0574C56.7686 66.1083 56.7788 66.1586 56.7985 66.2055C56.8182 66.2523 56.847 66.2949 56.8831 66.3306C56.9193 66.3664 56.9621 66.3947 57.0092 66.4139C57.0562 66.4331 57.1066 66.4429 57.1575 66.4426C57.2083 66.4424 57.2586 66.4321 57.3055 66.4124C57.3524 66.3927 57.3949 66.364 57.4307 66.3278C57.4665 66.2917 57.4948 66.2489 57.514 66.2018C58.464 63.8697 59.4968 60.1773 60.2873 59.7848C60.5529 60.3113 60.2006 62.7881 59.877 64.3227C59.5789 65.738 59.4179 65.3013 59.0733 69.6944C59.0695 69.7453 59.0756 69.7964 59.0915 69.8448C59.1074 69.8933 59.1327 69.9381 59.1659 69.9768C59.1991 70.0155 59.2396 70.0472 59.2851 70.0703C59.3306 70.0933 59.3802 70.1071 59.431 70.111C59.4819 70.1148 59.533 70.1087 59.5814 70.0928C59.6299 70.0769 59.6747 70.0516 59.7134 70.0184C59.7521 69.9852 59.7838 69.9447 59.8068 69.8992C59.8299 69.8537 59.8437 69.8041 59.8476 69.7533C59.9103 68.9364 60.0396 67.494 60.1743 66.5169C60.6113 67.0319 60.9102 67.6494 61.043 68.3116C60.8741 69.1937 60.7706 70.087 60.7333 70.9843C60.7333 71.4024 59.8576 72.7109 58.488 73.5084C57.3277 74.1644 56.2851 75.0097 55.4034 76.0092C54.8653 76.6139 53.9803 77.5577 53.5382 78.0292C51.8163 76.6302 51.6026 76.3654 49.9952 75.1576C50.7771 74.5518 51.4908 73.8628 52.1236 73.1027ZM33.5463 61.9821C34.6023 62.0595 37.1171 61.9395 38.1066 59.4224C38.935 59.8407 39.8429 60.0782 40.77 60.1193L41.511 62.0603C41.5477 62.1563 41.6211 62.2338 41.715 62.2757C41.8089 62.3176 41.9155 62.3204 42.0115 62.2837C42.1075 62.2469 42.185 62.1735 42.2269 62.0797C42.2688 61.9858 42.2717 61.8791 42.2349 61.7831L41.4026 59.6075C41.3747 59.5347 41.3255 59.472 41.2614 59.4277C41.1973 59.3834 41.1213 59.3594 41.0433 59.3589C40.3844 59.3528 38.5324 59.1398 37.8867 58.2363C37.5965 57.7959 37.3988 57.3012 37.3057 56.7821C37.2125 56.2631 37.2258 55.7305 37.3447 55.2167C37.4007 54.9851 37.5111 54.7703 37.667 54.5901C37.8228 54.4099 38.0195 54.2695 38.2405 54.1808C38.3583 54.1271 38.4867 54.1008 38.6161 54.1037C38.7454 54.1067 38.8725 54.1388 38.9877 54.1978C39.5804 54.677 39.9904 55.3453 40.1491 56.0908C40.1632 56.1475 40.19 56.2003 40.2275 56.2452C40.2649 56.2901 40.312 56.3259 40.3653 56.3499C40.4186 56.374 40.4766 56.3857 40.535 56.3841C40.5934 56.3826 40.6508 56.3678 40.7027 56.3409C40.8792 56.2496 44.9672 54.0956 46.2989 51.0086C47.0216 50.6808 47.6152 50.1226 47.9868 49.4214C47.9935 49.5223 48.0329 49.6183 48.0991 49.6947C48.9461 50.6037 48.8532 51.1395 48.7092 51.4631C48.2981 52.3853 48.9523 53.0279 49.478 53.5443C49.9673 54.0244 50.7648 54.8605 50.6394 55.5411C50.5867 55.8361 49.8582 56.0993 49.3534 56.1752C49.2921 56.1844 49.2338 56.2082 49.1836 56.2446C49.1334 56.2809 49.0927 56.3288 49.0648 56.3842C49.037 56.4396 49.0228 56.5009 49.0236 56.5628C49.0244 56.6248 49.04 56.6857 49.0692 56.7404C48.4645 57.1276 46.8239 58.3153 47.1506 59.5277C47.1702 59.6011 47.2109 59.6671 47.2677 59.7176C47.3245 59.768 47.3948 59.8006 47.47 59.8113C47.5452 59.822 47.6219 59.8104 47.6905 59.7779C47.7591 59.7454 47.8167 59.6934 47.856 59.6284C48.0128 59.3916 48.2 59.1763 48.4127 58.9881C48.4242 58.9985 48.4364 59.0084 48.449 59.0175C48.7789 59.247 49.0896 59.5028 49.3781 59.7825C49.2064 60.1101 48.9739 60.402 48.6929 60.6427C48.6307 60.7008 48.5894 60.7778 48.5755 60.8618C48.5615 60.9458 48.5755 61.032 48.6155 61.1072C48.8106 61.475 49.2202 62.5326 48.7704 63.0072C48.3437 63.4602 46.1069 63.6266 44.6575 63.5384C44.5703 63.5313 44.4834 63.5555 44.4124 63.6067C44.3415 63.658 44.2911 63.7328 44.2704 63.8179C43.7424 65.6466 42.66 68.4231 42.3116 69.3034C39.5148 67.3175 36.374 65.8676 33.0484 65.0272C33.415 64.0553 33.5842 63.0201 33.5463 61.9821ZM31.9304 66.3744C32.2105 66.2079 32.4544 65.9867 32.6473 65.7241C36.3362 66.6339 39.7895 68.3174 42.7784 70.663C39.7999 69.3762 34.247 67.2749 30.4144 67.6148C30.8335 67.1059 31.3486 66.6844 31.9304 66.3744ZM52.0741 151.078H38.5247C38.2429 149.401 36.9398 141.696 36.2143 137.849C35.3882 133.466 30.1535 125.742 29.9313 125.415C29.9038 125.371 29.8676 125.332 29.8248 125.302C29.7821 125.272 29.7337 125.251 29.6826 125.24C29.6315 125.229 29.5787 125.229 29.5275 125.239C29.4762 125.249 29.4275 125.269 29.3843 125.299C29.3411 125.328 29.3043 125.366 29.2761 125.41C29.2479 125.454 29.2289 125.503 29.2203 125.555C29.2116 125.606 29.2135 125.659 29.2258 125.71C29.2381 125.76 29.2605 125.808 29.2917 125.85C29.3444 125.928 34.6565 133.768 35.454 137.992C36.1617 141.745 37.4214 149.234 37.7404 151.135H30.6831C30.8502 147.296 30.8244 143.451 30.6056 139.615C30.3085 135.661 29.7344 131.733 28.8876 127.86C28.0402 123.792 27.7075 119.634 27.8973 115.483C29.4892 115.152 34.768 116.394 39.3764 118.972C42.8411 120.908 48.5458 120.583 52.4612 119.835L52.0741 151.078ZM52.5201 119.034C51.0807 119.315 43.8306 120.574 39.7581 118.297C35.7265 116.042 30.3223 114.417 28.0073 114.685C28.317 112.72 29.2608 106.277 28.8086 103.381C28.2968 100.096 23.1465 81.5033 25.4267 73.6447C27.0556 72.8304 28.3642 71.4931 29.1431 69.847C29.3932 69.298 29.62 68.8505 29.8399 68.4765C34.7254 67.5637 44.0242 72.0729 44.4779 72.2936C44.7102 72.4376 47.2195 74.0287 49.6259 75.8474C48.542 75.7933 47.4651 76.049 46.5212 76.5846C45.5773 77.1201 44.8055 77.9134 44.296 78.8716C42.2829 82.3232 42.6545 87.6431 44.3773 89.5772C46.8169 92.3165 52.4426 97.2338 53.3802 98.0483C53.3864 99.7718 53.4104 113.728 52.5201 119.033V119.034ZM53.7976 97.3863C52.6424 96.3798 47.2939 91.6909 44.9556 89.0623C42.5082 86.3153 43.2136 75.2032 50.8066 76.7695C51.9208 77.6692 53.1898 78.884 62.1572 85.7772C61.7267 87.1166 59.4124 93.5793 53.7976 97.3855V97.3863ZM84.7049 75.1808C81.7899 77.5484 81.7736 81.2586 80.5464 85.3235C79.3324 89.338 77.9728 91.8179 75.2552 96.6074C72.4168 101.611 74.2022 101.557 70.5377 102.017C66.9211 102.467 58.5484 97.4064 56.5609 96.1661C59.0648 93.7498 61.0276 90.8299 62.3198 87.599L69.6418 91.5477C69.6993 91.5791 69.7638 91.5954 69.8293 91.595C69.8948 91.5947 69.9591 91.5778 70.0163 91.5459C70.0734 91.5139 70.1216 91.468 70.1561 91.4124C70.1907 91.3568 70.2106 91.2933 70.214 91.2279C70.2852 90.4854 70.0647 89.7443 69.5993 89.1614C70.2891 88.1774 71.3522 86.7016 72.8124 84.7885C75.6059 81.1293 78.8516 76.6224 79.1272 74.2362C79.3595 72.2742 79.4268 69.9221 79.4408 69.3646C84.2109 66.5092 83.9136 66.712 83.9849 66.5874C85.72 63.5678 86.495 63.4284 86.7505 63.5012C87.215 63.6468 87.0726 65.1271 86.7938 66.0965C86.7755 66.1598 86.7736 66.2267 86.7884 66.2909C86.8032 66.3552 86.8341 66.4145 86.8782 66.4635C87.5984 67.3288 88.171 68.3069 88.5731 69.3584C89.1197 70.7706 87.9266 72.5654 84.7049 75.18V75.1808Z" fill="black"/>
</svg>
