<svg width="154" height="155" viewBox="0 0 154 155" fill="none" xmlns="http://www.w3.org/2000/svg">
<path d="M110.702 138.507C110.373 137.793 110.197 137.018 110.185 136.233L106.362 135.926C99.4019 139.254 98.9855 139.376 98.4028 139.957C98.2884 140.08 98.2166 140.237 98.1981 140.405C98.1796 140.572 98.2154 140.741 98.3001 140.887C98.5247 141.093 98.8214 141.203 99.1266 141.193C102.151 141.452 105.187 141.555 108.222 141.504C108.631 141.568 109.05 141.537 109.444 141.411C109.839 141.285 110.199 141.069 110.496 140.78C110.707 140.444 110.835 140.063 110.871 139.668C110.907 139.273 110.849 138.875 110.702 138.507Z" fill="#FFE55D"/>
<path d="M149.771 124.76C149.524 124.445 149.211 124.189 148.853 124.01C148.494 123.832 148.101 123.735 147.701 123.727C147.006 123.726 146.312 123.656 145.631 123.52L143.771 126.93C144.461 135.671 144.348 134.969 144.597 135.716C144.661 135.873 144.78 136.002 144.932 136.078C145.085 136.154 145.259 136.172 145.424 136.129C145.57 136.085 145.703 136.005 145.811 135.897C145.919 135.789 145.999 135.656 146.044 135.51C147.398 132.821 148.606 130.06 149.661 127.241C149.857 126.86 149.967 126.441 149.986 126.013C150.005 125.585 149.932 125.158 149.771 124.76Z" fill="#FFE55D"/>
<path d="M125.276 62.3332C124.552 55.6149 121.432 49.4733 118.557 43.419C117.672 41.393 116.488 39.5116 115.043 37.8379C109.216 31.4739 100.146 32.9874 100.056 32.9805C99.4455 33.9117 98.5334 34.6049 97.4725 34.9442C98.6096 35.6672 96.3354 37.0144 95.9222 37.3211C89.5466 43.6974 89.0099 53.3599 82.1759 60.7836C78.4839 64.769 74.3978 68.3701 69.98 71.5319C70.91 72.7725 72.1506 73.9088 73.1842 75.0459C73.4035 75.3641 73.7363 75.5865 74.1143 75.6662C74.2501 75.6701 74.3852 75.6443 74.5101 75.5907C74.6349 75.537 74.7466 75.4568 74.8373 75.3557C83.6549 69.3091 90.7389 62.9566 95.7957 51.9652C97.1089 54.8237 98.2218 57.77 99.1264 60.7828C100.155 64.1949 100.987 67.9136 99.6432 71.2221C107.5 73.1041 115.779 71.9213 122.795 67.9144C123.521 67.5854 124.158 67.0897 124.655 66.4675C125.375 65.2166 125.596 63.7403 125.276 62.3332Z" fill="#FFB43B"/>
<path d="M83.9404 27.7674C83.9404 27.7674 85.2792 34.8637 89.7869 36.1135C94.2946 37.3633 97.1477 35.1313 97.1477 35.1313L97.9857 35.7616C98.7146 35.595 99.3628 35.18 99.819 34.5877C100.179 34.0387 100.396 33.4084 100.449 32.7544L99.1888 31.523C99.3268 30.2555 99.3076 28.9758 99.1313 27.7138C99.6682 27.3561 100.07 26.8289 100.272 26.2164C100.475 25.6038 100.466 24.9411 100.248 24.3339C99.4755 22.1571 98.4443 22.0421 98.4443 22.0421C93.7703 24.3349 88.9202 26.2494 83.9404 27.7674Z" fill="white"/>
<path d="M89.6182 33.6738C89.5605 33.6739 89.5036 33.661 89.4516 33.636C89.3996 33.611 89.3539 33.5746 89.3179 33.5295C89.282 33.4844 89.2567 33.4317 89.2439 33.3755C89.2311 33.3192 89.2311 33.2608 89.2441 33.2046C89.6336 31.5177 89.8038 29.3708 89.4503 29.0135C89.1492 28.814 88.8374 28.631 88.5164 28.4653C88.446 28.4332 88.3871 28.3804 88.3476 28.314C88.308 28.2475 88.2896 28.1706 88.2948 28.0934C88.2977 28.042 88.311 27.9917 88.3339 27.9455C88.3569 27.8994 88.389 27.8584 88.4282 27.8251C88.4871 27.775 88.5598 27.7438 88.6367 27.7357C88.7136 27.7277 88.7911 27.743 88.8592 27.7798C89.2533 27.9815 89.6328 28.2123 89.9924 28.4699C90.8857 29.3632 90.086 32.9669 89.9924 33.3771C89.9722 33.4613 89.9243 33.5362 89.8565 33.59C89.7887 33.6438 89.7048 33.6733 89.6182 33.6738Z" fill="#4B1010"/>
<path d="M101.743 18.8555C101.242 17.8051 98.3207 17.4593 97.2802 17.112C94.5889 16.2463 94.6242 12.8611 92.3285 11.0723C91.478 10.3959 90.452 9.97663 89.3712 9.86388C87.0357 9.47514 83.9464 9.90989 82.2795 12.2899C79.9739 15.4612 81.6561 19.9896 81.2827 21.944C81.0266 23.2897 77.1377 26.247 78.2157 28.2981C78.4074 28.6408 78.7065 28.9099 79.0668 29.0648C80.4025 29.9558 82.3462 29.3293 83.8667 28.8125C86.0995 36.7768 92.9013 39.077 97.1284 35.484C97.4442 35.82 97.7939 36.1225 98.1719 36.3865C98.2369 36.4363 98.3163 36.4637 98.3981 36.4645C98.48 36.4654 98.5599 36.4396 98.6258 36.3911C98.6914 36.3442 98.7403 36.2776 98.7654 36.2009C98.7911 36.1247 98.792 36.0422 98.7681 35.9654C98.7441 35.8886 98.6965 35.8213 98.632 35.7731C98.2885 35.535 97.9711 35.2613 97.685 34.9565C98.4381 34.17 99.0054 33.2247 99.345 32.1901C100.172 33.0174 100.169 33.0534 100.366 33.0534C100.442 33.0532 100.516 33.0307 100.579 32.9887C100.642 32.9467 100.691 32.8871 100.721 32.8173C100.75 32.7473 100.758 32.6701 100.743 32.5957C100.728 32.5212 100.692 32.4529 100.638 32.3994L99.5735 31.3329C99.8158 30.2096 99.8036 29.0472 99.5367 27.9293C101.421 26.9087 101.011 23.1992 99.5666 22.2553C100.437 21.6358 102.396 20.2234 101.743 18.8555ZM99.3558 27.1364C99.2871 26.877 99.2104 26.6198 99.1258 26.3651C99.0222 25.9518 98.2992 26.1588 98.4019 26.5721C100.109 30.6244 98.1328 34.9297 94.5782 36.1841C90.0543 37.5152 86.0074 33.5296 84.5836 28.5672C89.0483 27.2744 93.3715 25.5356 97.488 23.3771C97.4657 23.5435 97.4749 23.7121 97.514 23.8747C97.5269 23.9383 97.5557 23.9976 97.5977 24.047C97.6397 24.0964 97.6937 24.1343 97.7544 24.1572C97.8151 24.18 97.8806 24.1871 97.9448 24.1776C98.009 24.1682 98.0697 24.1426 98.1213 24.1032C98.1624 24.0717 98.1968 24.0324 98.2224 23.9875C98.2481 23.9426 98.2646 23.8931 98.2708 23.8417C98.2763 23.7902 98.2716 23.7381 98.257 23.6884C98.2324 23.5519 98.2449 23.4113 98.2932 23.2812C98.3415 23.1512 98.4238 23.0366 98.5315 22.9492C99.6878 22.0675 100.793 26.0116 99.3558 27.1364Z" fill="#4B1010"/>
<path d="M91.6923 33.8816C92.514 32.9083 93.6636 32.2695 94.9241 32.0858C94.9737 32.0769 95.0246 32.0778 95.0738 32.0885C95.123 32.0992 95.1697 32.1195 95.2111 32.1482C95.2525 32.1769 95.2878 32.2135 95.3151 32.2559C95.3424 32.2983 95.361 32.3456 95.37 32.3952C95.3789 32.4448 95.378 32.4957 95.3673 32.5449C95.3566 32.5942 95.3363 32.6408 95.3076 32.6822C95.2789 32.7236 95.2423 32.759 95.1999 32.7862C95.1575 32.8135 95.1102 32.8321 95.0606 32.8411C93.9871 32.9914 93.0057 33.5289 92.3003 34.3523C92.254 34.413 92.1907 34.4585 92.1184 34.4829C92.0461 34.5074 91.9682 34.5097 91.8945 34.4897C91.8209 34.4696 91.755 34.428 91.7051 34.3702C91.6553 34.3124 91.6239 34.241 91.6148 34.1653C91.6021 34.0642 91.63 33.9622 91.6923 33.8816Z" fill="#4B1010"/>
<path d="M91.7873 26.7485C91.7307 26.7486 91.6747 26.7361 91.6235 26.7119C91.5723 26.6877 91.5271 26.6524 91.4912 26.6086C91.4553 26.5648 91.4296 26.5135 91.416 26.4585C91.4024 26.4035 91.4011 26.3462 91.4124 26.2907C91.4268 26.2164 91.4632 26.148 91.5167 26.0944C92.4613 25.1498 93.9611 25.4266 93.6943 26.0944C93.6759 26.1414 93.6484 26.1841 93.6132 26.2202C93.578 26.2563 93.536 26.285 93.4895 26.3045C93.396 26.3446 93.2904 26.346 93.1959 26.3083C92.9947 26.2506 92.7812 26.2508 92.5801 26.3088C92.379 26.3669 92.1983 26.4804 92.0588 26.6365C91.9862 26.7075 91.8889 26.7477 91.7873 26.7485Z" fill="#4B1010"/>
<path d="M86.4132 30.366C86.3564 30.366 86.3002 30.3533 86.2489 30.329C86.1975 30.3046 86.1522 30.2691 86.1162 30.2251C86.0803 30.1811 86.0545 30.1296 86.0409 30.0744C86.0273 30.0192 86.0262 29.9616 86.0375 29.9059C86.0906 29.6085 86.2112 29.3273 86.39 29.0837C86.5687 28.8402 86.801 28.641 87.0688 28.5012C87.1598 28.4558 87.2651 28.4483 87.3616 28.4806C87.4581 28.5128 87.5378 28.582 87.5833 28.673C87.6287 28.764 87.6362 28.8693 87.604 28.9658C87.5718 29.0623 87.5025 29.142 87.4115 29.1875C87.2483 29.2751 87.1073 29.3989 86.9993 29.5495C86.8914 29.7001 86.8194 29.8734 86.7889 30.0562C86.7724 30.1436 86.7258 30.2225 86.6572 30.2791C86.5885 30.3357 86.5022 30.3664 86.4132 30.366Z" fill="#4B1010"/>
<path d="M81.2861 22.1956L81.4119 21.4396C83.1892 21.7272 85.0102 21.5554 86.7024 20.9397C90.0755 20.0408 93.2361 18.4798 96 16.3477L96.4701 16.9526C93.634 19.1433 90.3902 20.7476 86.9279 21.672C85.1227 22.3249 83.1806 22.5051 81.2861 22.1956Z" fill="white"/>
<path d="M150.129 124.626C150.114 124.585 150.092 124.548 150.065 124.514C149.783 124.156 149.425 123.865 149.016 123.663C148.608 123.46 148.159 123.351 147.703 123.344C147.102 123.339 146.501 123.287 145.908 123.186C145.916 123.148 145.918 123.108 145.915 123.068C145.79 121.83 144.056 120.877 143.308 120.238C138.116 115.561 131.09 109.788 129.373 100.511C127.839 91.5465 131.588 76.7045 125.406 65.9493C125.55 65.5797 125.6 65.1806 125.554 64.7869C125.108 58.8129 123.813 52.9329 121.708 47.3242C120.092 42.6747 117.813 37.529 113.179 34.62C108.978 31.9785 104.044 31.9938 100.61 32.4838C100.555 32.4441 100.49 32.4199 100.422 32.4136C100.354 32.4074 100.286 32.4193 100.224 32.4482C100.163 32.4771 100.11 32.5219 100.071 32.578C100.033 32.6341 100.01 32.6996 100.005 32.7675C99.9831 33.3493 99.7757 33.9088 99.4129 34.3641C99.0502 34.8195 98.5512 35.1467 97.989 35.2978C97.9317 35.282 97.8716 35.2795 97.8133 35.2905C97.7549 35.3015 97.6999 35.3258 97.6523 35.3614C89.097 41.8788 89.1177 52.4354 81.7929 60.622C78.0939 64.5657 74.0288 68.1492 69.6522 71.3242C69.6108 71.354 69.5758 71.3918 69.5491 71.4352C69.5225 71.4787 69.5048 71.5271 69.4971 71.5775C69.4894 71.6279 69.4918 71.6794 69.5042 71.7288C69.5166 71.7783 69.5388 71.8248 69.5694 71.8656C70.5738 73.0839 71.6396 74.2501 72.7614 75.3619C73.0328 75.7606 73.4468 76.039 73.9176 76.141C74.1065 76.1643 74.2982 76.1434 74.4775 76.08C74.6569 76.0165 74.8191 75.9122 74.9512 75.7752C82.8142 70.3811 89.1813 64.8276 94.0387 56.1656C94.2985 59.4281 94.2021 62.7092 93.7511 65.9509C95.6757 66.4577 97.7168 66.2783 99.5232 65.4417C99.6773 67.42 99.5907 69.4081 99.2648 71.3649C99.2488 71.4583 99.268 71.5543 99.3187 71.6343C99.3694 71.7143 99.448 71.7727 99.5393 71.7981C99.7057 71.8449 99.8721 71.8893 100.038 71.933C99.1881 82.8101 97.7183 92.9972 98.3302 103.8C98.9553 114.901 100.958 125.881 104.293 136.487C99.0409 139.004 98.7511 139.049 98.0825 139.741C97.9179 139.937 97.8232 140.183 97.8132 140.439C97.8032 140.695 97.8785 140.947 98.0273 141.155C98.1683 141.294 98.3362 141.404 98.5207 141.476C98.7052 141.549 98.9026 141.583 99.1007 141.577C102.119 141.835 105.147 141.937 108.175 141.884C108.654 141.955 109.144 141.911 109.603 141.756C110.062 141.601 110.478 141.34 110.816 140.993C111.063 140.604 111.214 140.162 111.255 139.703C111.297 139.244 111.229 138.782 111.056 138.355C110.836 137.867 110.686 137.351 110.609 136.821C110.665 136.82 110.72 136.806 110.77 136.781C110.82 136.756 110.864 136.721 110.899 136.677C110.934 136.633 110.959 136.582 110.972 136.528C110.985 136.473 110.986 136.416 110.975 136.361C109.333 128.334 108.607 120.145 108.812 111.953C109.012 104.307 109.398 95.4853 111.496 87.5164C111.682 86.492 112.085 85.5191 112.678 84.6634C112.9 84.3212 113.2 84.036 113.553 83.8309C113.905 83.6258 114.301 83.5065 114.709 83.4826C114.577 86.2038 116.096 96.7052 116.116 96.8194C117.162 102.434 119.409 107.757 122.705 112.421C126 117.086 130.266 120.983 135.208 123.844C137.752 125.422 140.495 126.653 143.364 127.505C143.487 127.539 143.399 126.927 144.02 134.789C144.039 135.149 144.117 135.504 144.25 135.84C144.346 136.094 144.535 136.303 144.778 136.424C145.021 136.546 145.301 136.572 145.562 136.496C145.757 136.438 145.935 136.334 146.082 136.192C146.229 136.051 146.339 135.877 146.405 135.684C147.76 132.995 148.968 130.235 150.023 127.416C150.239 126.985 150.36 126.514 150.379 126.032C150.397 125.551 150.312 125.071 150.129 124.626ZM74.4666 75.191C74.4162 75.2501 74.3541 75.2981 74.2841 75.3319C74.2141 75.3657 74.1379 75.3845 74.0602 75.3872C73.7767 75.3149 73.5305 75.139 73.3702 74.8942C72.4248 73.8545 71.3076 72.8133 70.4282 71.7153C74.7242 68.567 78.7198 65.0282 82.3641 61.1441C88.0174 54.8261 89.2166 47.6447 93.0848 41.5828C92.7413 42.9829 93.0503 44.5731 93.1377 45.7999C93.3608 48.7212 93.7189 51.7974 93.9459 54.7502C89.0809 63.8883 82.5942 69.6021 74.4666 75.191ZM109.845 136.881C109.928 137.495 110.099 138.095 110.354 138.66C110.471 138.959 110.521 139.28 110.499 139.6C110.478 139.92 110.385 140.232 110.228 140.512C109.963 140.764 109.643 140.951 109.293 141.057C108.943 141.164 108.573 141.187 108.212 141.125C105.181 141.177 102.15 141.074 99.1299 140.819C98.9487 140.822 98.7706 140.771 98.6192 140.671C98.5724 140.602 98.5027 140.496 98.6744 140.225C99.1859 139.713 99.4557 139.651 104.616 137.183C104.762 137.269 104.361 137.269 109.841 136.878L109.845 136.881ZM123.915 66.5742C120.543 69.0841 116.648 70.7993 112.519 71.5917C108.391 72.3841 104.138 72.2332 100.076 71.1502C100.484 68.4158 100.456 65.6342 99.9948 62.9084C99.2779 54.5761 92.7313 47.0812 96.0759 37.7744C96.6752 37.1572 97.322 36.5881 98.0104 36.0722C98.0394 36.0727 98.0682 36.0693 98.0963 36.0622C98.7644 35.9073 99.3709 35.5562 99.8379 35.0539C100.305 34.5516 100.611 33.9212 100.717 33.2436C104.023 32.7713 108.768 32.7506 112.772 35.2686C117.206 38.0527 119.412 43.0527 120.988 47.5834C123.07 53.1326 124.351 58.9505 124.791 64.8613C124.829 65.2014 124.765 65.5449 124.609 65.8491C124.452 66.1533 124.21 66.4047 123.911 66.5719L123.915 66.5742ZM149.311 127.11C148.253 129.933 147.044 132.697 145.69 135.391C145.664 135.48 145.616 135.562 145.55 135.628C145.484 135.694 145.402 135.743 145.313 135.769C145.245 135.779 145.175 135.769 145.114 135.738C145.053 135.707 145.002 135.658 144.97 135.598C144.74 134.898 144.837 135.598 144.162 126.904C144.159 126.861 144.148 126.819 144.13 126.779C144.684 125.817 145.15 124.853 145.587 123.906C147.409 124.332 148.337 123.699 149.434 124.959C149.567 125.306 149.625 125.676 149.603 126.047C149.581 126.417 149.48 126.779 149.307 127.108L149.311 127.11Z" fill="#4B1010"/>
<path d="M94.4795 79.4901C94.3594 78.226 93.7754 77.0512 92.8402 76.1923C91.905 75.3334 90.6848 74.8513 89.4151 74.839H36.6382L31.1176 65.5375C30.7773 64.9346 30.2812 64.4343 29.6812 64.0888C29.0812 63.7434 28.3994 63.5655 27.7071 63.5739H7.76017C7.24372 63.6408 6.74556 63.809 6.29433 64.069C5.84309 64.3289 5.44766 64.6755 5.13075 65.0887C4.81384 65.502 4.5817 65.9737 4.44766 66.4769C4.31361 66.9802 4.28031 67.5049 4.34967 68.021L11.9972 144.711H100.884L94.4795 79.4901Z" fill="#FFE55D"/>
<path d="M101.303 145.092L94.8535 79.4463C94.7163 78.0915 94.0858 76.8345 93.082 75.9144C92.0782 74.9943 90.7711 74.4753 89.4096 74.4563H36.8566L31.4525 65.3443C31.079 64.6831 30.5346 64.1344 29.8764 63.7558C29.2181 63.3772 28.4701 63.1824 27.7108 63.192H7.70555C6.56721 63.3496 5.53676 63.9493 4.83731 64.8611C4.13786 65.773 3.8257 66.9236 3.96842 68.0639C5.25119 77.7802 4.1371 68.1406 11.6497 145.092H101.303ZM7.75999 63.9572H27.7077C28.3333 63.9498 28.9494 64.1107 29.4914 64.4231C30.0334 64.7355 30.4814 65.188 30.7885 65.733L35.9649 74.4563H5.51572L4.72827 67.9635C4.60562 67.0313 4.85496 66.0882 5.42235 65.3385C5.98973 64.5887 6.82952 64.0925 7.75999 63.9572ZM89.4111 75.223C90.5837 75.2416 91.7086 75.6903 92.572 76.4839C93.4354 77.2775 93.9772 78.3607 94.0944 79.5276L100.458 144.325H12.3452L5.59776 75.223H89.4111Z" fill="#4B1010"/>
<path d="M100.883 144.708H11.9966L31.3248 94.1671C32.4611 90.5496 34.0084 88.7922 37.0095 88.7922H114.528C117.835 88.7922 121.763 90.4461 120.212 94.8902L100.883 144.708Z" fill="white"/>
<path d="M101.146 145.091H11.4404L30.9672 94.0299C32.2193 90.0428 33.9721 88.4088 37.0092 88.4088H114.528C118.89 88.4088 122.042 90.8149 120.574 95.0167L101.146 145.091ZM12.5545 144.325H100.621L119.854 94.7521C120.113 94.1806 120.225 93.554 120.183 92.9282C120.14 92.3024 119.943 91.697 119.609 91.166C118.567 89.6985 116.3 89.1725 114.527 89.1725H37.0092C34.3371 89.1725 32.8458 90.6048 31.691 94.279L12.5545 144.325Z" fill="#4B1010"/>
<path d="M51.609 81.9429C54.5787 80.3649 56.1743 76.2874 55.2419 72.6606C54.4383 69.5354 52.0714 66.5312 48.5788 64.2026C45.5118 62.1608 41.8721 60.8029 38.5038 59.2717C29.1157 54.9687 23.2738 49.3614 21.14 42.6041C20.2551 39.8499 20.1631 35.8943 22.8199 33.8156C24.062 32.9144 25.5834 32.4829 27.1137 32.598C32.0086 32.8104 35.6737 36.6917 39.3295 39.9281C41.0218 41.4271 46.9204 46.1005 51.8038 43.2934C57.4892 39.8438 57.4264 26.0423 46.5408 20.087C46.4619 20.0449 46.4001 19.9767 46.3661 19.894C46.3321 19.8113 46.328 19.7193 46.3545 19.634C46.3811 19.5486 46.4366 19.4751 46.5114 19.4262C46.5863 19.3774 46.6759 19.3561 46.7647 19.3662C46.8155 19.3725 46.8645 19.389 46.9089 19.4145C49.702 20.8937 52.0472 23.095 53.7 25.789C55.3529 28.4829 56.2528 31.571 56.3061 34.7311C56.4319 38.8646 54.8946 42.3143 52.1948 43.9536C46.8629 47.0206 40.6115 42.0865 38.822 40.5032C35.3049 37.3864 31.6858 33.5649 27.07 33.364C25.7211 33.2604 24.3791 33.6374 23.2815 34.4282C20.9467 36.2554 21.0579 39.8515 21.8707 42.3725C23.9409 48.916 29.6401 54.366 38.822 58.5747C42.1957 60.1082 45.8714 61.4768 49.0044 63.5655C52.6549 65.9991 55.1338 69.1627 55.9818 72.4705C57.0161 76.4913 55.2917 80.8549 51.9663 82.6207C51.8769 82.6641 51.7741 82.6709 51.6798 82.6397C51.5854 82.6085 51.507 82.5417 51.461 82.4536C51.4149 82.3658 51.4045 82.2636 51.4321 82.1684C51.4597 82.0732 51.5231 81.9924 51.609 81.9429Z" fill="#4B1010"/>
<path d="M46.519 12.5597C44.6956 13.0689 42.62 13.4737 41.1126 14.8102C40.9345 14.5023 40.6458 14.2738 40.3052 14.1712C39.9647 14.0687 39.5978 14.0997 39.2793 14.2581C38.7809 13.9552 38.9726 13.4147 39.3867 13.4147C39.4883 13.4147 39.5858 13.3743 39.6577 13.3024C39.7296 13.2305 39.77 13.133 39.77 13.0313C39.77 12.9296 39.7296 12.8321 39.6577 12.7602C39.5858 12.6883 39.4883 12.6479 39.3867 12.6479C39.1395 12.6511 38.8995 12.7312 38.7 12.8772C38.5005 13.0231 38.3515 13.2277 38.2737 13.4623C38.1959 13.6969 38.1932 13.95 38.266 14.1862C38.3388 14.4224 38.4834 14.6301 38.6797 14.7803L38.6644 14.8063C38.4412 14.7517 38.207 14.7617 37.9892 14.835C37.7714 14.9084 37.579 15.0422 37.4343 15.2208C37.2897 15.3993 37.1988 15.6154 37.1722 15.8436C37.1456 16.0719 37.1845 16.303 37.2842 16.51C37.3315 16.5977 37.4111 16.6636 37.5061 16.6936C37.6011 16.7236 37.704 16.7155 37.7931 16.671C37.8822 16.6264 37.9505 16.5489 37.9835 16.4549C38.0164 16.3609 38.0115 16.2577 37.9697 16.1673C37.8593 15.9457 37.9206 15.8292 37.9873 15.7533C38.0685 15.6708 38.1703 15.6116 38.282 15.5817C38.3938 15.5518 38.5115 15.5522 38.623 15.583C38.7239 15.8423 38.8879 16.0723 39.1001 16.2522C39.3123 16.4321 39.566 16.5563 39.8383 16.6135C40.0346 16.625 40.2316 16.6051 40.421 16.5537C40.2621 17.2236 40.2017 17.913 40.2416 18.6002L40.1396 22.0245C40.1396 22.1094 40.1678 22.1919 40.2198 22.2591C40.2717 22.3263 40.3445 22.3743 40.4267 22.3956C40.5089 22.4169 40.5959 22.4104 40.674 22.3769C40.752 22.3435 40.8168 22.285 40.858 22.2108C41.9162 21.2577 42.8163 20.7471 43.1307 19.0756C43.5581 19.1469 43.9971 19.0854 44.3884 18.8994C44.7798 18.7133 45.1046 18.4116 45.319 18.0351C45.45 17.6861 45.4931 17.3103 45.4445 16.9407C45.396 16.5711 45.2573 16.2191 45.0407 15.9158C45.3873 15.672 45.6819 15.3616 45.9071 15.0026C46.3165 14.3946 46.6738 13.7528 46.9744 13.0842C47.004 13.0176 47.014 12.9439 47.0033 12.8718C46.9925 12.7996 46.9614 12.7321 46.9136 12.677C46.8658 12.622 46.8032 12.5817 46.7333 12.5609C46.6634 12.5402 46.5891 12.5397 46.519 12.5597ZM44.6343 17.697C44.4929 17.9395 44.2773 18.1301 44.0192 18.2406C43.7611 18.3511 43.4743 18.3755 43.2012 18.3104C43.2005 18.136 43.1887 17.9619 43.166 17.789C42.9787 17.2894 42.6683 16.8453 42.2635 16.4978C42.9702 16.6287 43.6996 16.5542 44.3652 16.2831C44.5234 16.4775 44.6308 16.7083 44.6778 16.9545C44.7248 17.2008 44.7098 17.4549 44.6343 17.6939V17.697Z" fill="#4B1010"/>
<path d="M107.705 87.1383C107.692 87.9638 107.49 88.7754 107.113 89.5102C106.737 90.245 106.197 90.8834 105.534 91.3761C105.248 91.5876 104.935 91.7613 104.604 91.8929C104.458 91.9082 104.312 91.8716 104.191 91.7894C104.132 91.6907 104.11 91.5741 104.129 91.4606C104.147 91.3471 104.206 91.244 104.294 91.1699L104.708 90.4461C104.505 90.9155 104.193 91.3294 103.797 91.6531C103.401 91.9768 102.934 92.2008 102.433 92.3062H102.127C101.92 92.2035 101.92 91.7894 102.127 91.5832C102.433 91.1699 102.747 90.6531 103.057 90.2391C102.674 90.8395 102.086 91.2805 101.403 91.4797C101.091 91.5763 100.68 91.5832 100.576 91.2726C100.289 90.41 102.436 89.5996 102.436 87.7586C101.503 88.2256 101.941 88.3168 101.403 88.5859C100.943 89.046 100.362 88.3866 100.576 88.1719C100.675 87.526 101.005 86.9382 101.506 86.5188C102.208 85.8147 103.111 85.3451 104.09 85.1747L104.194 85.0712L107.705 87.1383Z" fill="white"/>
<path d="M102.123 92.6895C101.982 92.6622 101.852 92.5907 101.754 92.4853C101.655 92.38 101.593 92.2461 101.575 92.1029C101.563 92.008 101.571 91.9116 101.599 91.82C101.012 92.0101 100.396 91.9526 100.209 91.3937C100.167 91.218 100.166 91.0351 100.206 90.8589C100.246 90.6828 100.326 90.5181 100.44 90.3777C100.576 90.1891 100.73 90.0143 100.9 89.8548C101.212 89.5451 101.492 89.2039 101.735 88.8366C101.699 88.8602 101.663 88.8819 101.625 88.9017C100.865 89.5627 99.8829 88.6326 100.213 88.023C100.342 87.317 100.715 86.6787 101.266 86.2189C102.003 85.5092 102.922 85.0181 103.921 84.8004C103.995 84.7361 104.09 84.7021 104.187 84.7053C104.285 84.7085 104.377 84.7486 104.446 84.8176C104.515 84.8866 104.555 84.9792 104.559 85.0766C104.562 85.1741 104.528 85.2691 104.463 85.3425C104.331 85.4751 104.292 85.525 104.164 85.5503C103.26 85.7076 102.426 86.1403 101.777 86.7893C101.33 87.175 101.034 87.7058 100.94 88.2883C101.017 88.3711 101.08 88.365 101.131 88.3144C101.252 88.1925 101.347 88.2523 101.472 88.0008C101.686 87.7459 101.958 87.5454 102.264 87.4158C102.323 87.3864 102.388 87.3725 102.453 87.3754C102.518 87.3783 102.582 87.3979 102.637 87.4322C102.693 87.4666 102.739 87.5146 102.771 87.5717C102.802 87.6289 102.819 87.6931 102.819 87.7585C102.819 89.6401 100.785 90.689 100.939 91.1514C101.263 91.13 101.578 91.0373 101.862 90.88C102.146 90.7227 102.392 90.5046 102.582 90.2412L102.749 90.0112C102.808 89.9282 102.897 89.872 102.997 89.8548C103.097 89.8376 103.2 89.8609 103.283 89.9196C103.366 89.9783 103.422 90.0675 103.439 90.1676C103.457 90.2678 103.433 90.3707 103.375 90.4536C102.289 92.0822 102.291 91.9243 102.435 91.9243C103.088 91.7715 103.661 91.3836 104.046 90.8347L104.375 90.2573C104.424 90.1721 104.504 90.1089 104.598 90.0808C104.692 90.0526 104.793 90.0617 104.881 90.106C104.969 90.1504 105.036 90.2267 105.069 90.3192C105.102 90.4117 105.098 90.5133 105.058 90.6031C104.921 90.8979 104.756 91.1788 104.565 91.442C104.206 91.8039 107.322 90.3516 107.322 87.1405C107.322 87.0385 107.362 86.9411 107.434 86.8691C107.506 86.7977 107.604 86.7577 107.705 86.7577C107.807 86.7577 107.904 86.7977 107.977 86.8691C108.048 86.9413 108.088 87.0388 108.089 87.1405C108.079 88.0251 107.864 88.8955 107.462 89.6833C107.059 90.4711 106.48 91.1549 105.768 91.6812C105.421 91.9503 105.026 92.1526 104.604 92.2777C104.479 92.2925 104.353 92.2799 104.233 92.241C104.113 92.2021 104.003 92.1377 103.911 92.0523C103.496 92.3649 103.017 92.5808 102.509 92.6841L102.123 92.6895Z" fill="#4B1010"/>
<path d="M108.429 87.2419C114.965 74.3414 116.878 62.581 116.49 49.8246C116.405 47.0336 117.081 37.9476 113.577 36.7952C112.645 36.4885 110.454 36.7645 109.731 37.4853C107.457 39.7595 109.466 48.686 109.466 51.4762C109.428 55.3827 109.152 59.2824 108.639 63.1553C108.413 65.0139 104.192 85.4807 102.954 85.0667C104.82 85.6846 106.648 86.4109 108.429 87.2419Z" fill="#FFB43B"/>
<path d="M124.139 55.4089C123.409 50.6358 121.871 46.0219 119.591 41.7653C118.451 39.7401 117.062 37.8652 115.457 36.1842C113.778 34.6042 111.709 33.4986 109.462 32.9807C108.222 32.6702 106.361 31.9463 105.224 32.5666C103.778 33.394 103.467 35.5639 103.364 37.0138C102.82 44.0886 104.701 51.3865 107.292 62.8532C107.668 62.8601 108.044 62.8463 108.419 62.8134C107.44 70.3961 105.518 77.8269 102.697 84.9333C102.678 84.9818 102.669 85.0336 102.671 85.0857C102.672 85.1378 102.684 85.189 102.706 85.2362C102.728 85.2834 102.76 85.3256 102.799 85.3603C102.838 85.395 102.883 85.4213 102.933 85.4378C104.762 86.0031 106.54 86.7212 108.249 87.5847C108.294 87.6083 108.344 87.6227 108.395 87.627C108.445 87.6314 108.497 87.6256 108.545 87.6101C108.594 87.5945 108.639 87.5695 108.678 87.5365C108.716 87.5034 108.748 87.463 108.771 87.4176C112.811 79.5914 115.408 71.102 116.439 62.3556C118.374 61.1595 125.293 58.8715 124.139 55.4089ZM108.258 86.7229C106.74 85.9793 105.169 85.3488 103.558 84.8367C109.066 70.8142 111.046 55.654 109.326 40.6873C109.324 40.6691 109.32 40.6512 109.315 40.6336C109.516 39.9349 109.924 39.3136 110.485 38.8515C111.046 38.3894 111.734 38.1082 112.459 38.0451C113.006 38.0849 113.535 38.2559 114.003 38.5437C114.47 38.8314 114.861 39.2274 115.142 39.6982C115.253 39.8561 115.355 40.0187 115.449 40.1874C117.098 56.6257 116.415 70.2393 108.258 86.7229Z" fill="#4B1010"/>
<path d="M87.9286 31.9309C87.0607 31.7929 86.8222 30.218 87.4609 29.9373C88.0996 29.6567 89.1132 30.5438 88.9423 31.3175C88.7713 32.0919 88.2859 31.9884 87.9286 31.9309Z" fill="#4B1010"/>
<path d="M93.1565 28.8792C92.2885 28.7404 92.0501 27.1663 92.6895 26.8857C93.329 26.605 94.3411 27.4929 94.1701 28.2658C93.9991 29.0387 93.5138 28.9337 93.1565 28.8792Z" fill="#4B1010"/>
<path d="M72.7682 74.839C71.3766 73.4021 69.9796 71.6355 69.9796 71.6355C67.5436 72.0787 65.6183 72.7956 64.4214 74.839H67.0076C66.9716 75.0437 66.9632 75.253 66.9823 75.4593C67.0858 75.9761 67.3933 76.5841 68.0159 76.4929C68.7006 76.3932 68.8179 75.319 69.3117 74.839H72.7682Z" fill="white"/>
<path d="M73.0438 74.5729C70.3173 71.7566 70.3901 71.1693 69.9117 71.2583C67.4021 71.7145 65.3648 72.4705 64.0913 74.6458C64.0571 74.704 64.0389 74.7702 64.0386 74.8377C64.0382 74.9052 64.0557 74.9716 64.0892 75.0302C64.1228 75.0888 64.1712 75.1375 64.2296 75.1713C64.2879 75.2052 64.3542 75.2231 64.4217 75.2231H66.5947C66.5824 76.0888 67.1721 77.005 68.0638 76.8732C68.9295 76.7459 69.1273 75.7123 69.4876 75.2231H72.7686C72.8439 75.2231 72.9175 75.2009 72.9803 75.1593C73.0431 75.1177 73.0922 75.0586 73.1216 74.9892C73.151 74.9198 73.1592 74.8434 73.1454 74.7693C73.1316 74.6953 73.0963 74.627 73.0438 74.5729ZM67.9534 76.1148C67.5547 76.1739 67.396 75.5727 67.3645 75.4248C67.3353 74.9443 67.4675 74.4678 67.7402 74.0711C68.013 73.6745 68.4105 73.3804 68.8697 73.2357C68.9187 73.2198 68.964 73.1943 69.0029 73.1605C69.0418 73.1267 69.0735 73.0855 69.0961 73.0392C69.1187 72.9929 69.1317 72.9425 69.1344 72.8911C69.1372 72.8396 69.1295 72.7882 69.1118 72.7398C69.0942 72.6913 69.067 72.647 69.0318 72.6093C68.9967 72.5717 68.9543 72.5415 68.9072 72.5206C68.8601 72.4997 68.8093 72.4885 68.7578 72.4876C68.7063 72.4868 68.6552 72.4963 68.6074 72.5157C68.1611 72.6676 67.7568 72.9224 67.4273 73.2596C67.0977 73.5967 66.8522 74.0067 66.7105 74.4564H65.1387C65.5905 73.8523 66.1732 73.3585 66.8431 73.0118C67.7885 72.5594 68.7907 72.2374 69.8235 72.0549C70.4278 72.8024 71.0514 73.5341 71.6936 74.2493C69.5981 74.2493 69.6525 74.2417 69.5758 74.2608C68.5821 74.5093 68.4717 76.0389 67.9534 76.1148Z" fill="#4B1010"/>
<path d="M88.0774 36.3644C88.348 36.3644 88.6158 36.3111 88.8657 36.2076C89.1156 36.1041 89.3427 35.9523 89.534 35.761C89.7253 35.5698 89.877 35.3427 89.9805 35.0928C90.084 34.8429 90.1373 34.575 90.1373 34.3045C90.1373 34.034 90.084 33.7661 89.9805 33.5162C89.877 33.2663 89.7253 33.0392 89.534 32.848C89.3427 32.6567 89.1156 32.5049 88.8657 32.4014C88.6158 32.2979 88.348 32.2446 88.0774 32.2446C87.5311 32.2446 87.0072 32.4617 86.6209 32.848C86.2346 33.2343 86.0176 33.7582 86.0176 34.3045C86.0176 34.8508 86.2346 35.3747 86.6209 35.761C87.0072 36.1474 87.5311 36.3644 88.0774 36.3644Z" fill="#FFE55D"/>
<path d="M97.6285 30.0792C98.2782 30.0792 98.9013 29.8211 99.3607 29.3617C99.8201 28.9023 100.078 28.2792 100.078 27.6295C100.078 26.9797 99.8201 26.3566 99.3607 25.8972C98.9013 25.4378 98.2782 25.1797 97.6285 25.1797C96.9788 25.1797 96.3556 25.4378 95.8962 25.8972C95.4368 26.3566 95.1787 26.9797 95.1787 27.6295C95.1787 28.2792 95.4368 28.9023 95.8962 29.3617C96.3556 29.8211 96.9788 30.0792 97.6285 30.0792Z" fill="#FFE55D"/>
</svg>
