<svg width="155" height="154" viewBox="0 0 155 154" fill="none" xmlns="http://www.w3.org/2000/svg">
<path d="M149.773 127.281C148.556 130.794 146.266 139.914 138.987 140.619C136.097 140.898 127.555 139.983 113.337 140.773C102.149 141.394 85.1545 140.586 75.2092 140.353C65.2639 140.12 41.3364 140.818 30.5373 140.584C19.5376 140.348 6.87568 143.767 5.30869 130.3C3.9907 118.983 5.52311 110.685 6.1871 105.579C7.28607 97.1182 6.41765 93.0228 6.45223 91.2499C6.83649 91.0962 147.119 91.3267 147.851 91.3267C147.471 96.2917 147.838 101.286 148.938 106.142C150.203 111.11 151.143 123.329 149.773 127.281Z" fill="#FFF5DB"/>
<path d="M150.226 125.192C150.151 125.903 149.999 126.603 149.773 127.281C148.556 130.795 146.265 139.915 138.987 140.619C135.234 137.238 125.599 128.845 120.491 127.11C114.059 124.924 106.441 123.361 104.506 121.864C102.572 120.366 100.446 118.679 99.4479 117.741C98.4496 116.804 96.5752 115.932 95.9497 115.056C95.3241 114.181 94.5763 112.433 96.6375 111.934C98.6986 111.434 101.696 113.745 103.194 114.806C104.691 115.868 108.502 118.803 107.129 114.744C105.756 110.686 103.381 110.06 101.883 108.874C100.355 107.213 98.2535 106.193 96.0027 106.019C92.3907 105.846 90.162 107.393 88.7295 106.563C87.297 105.733 86.8682 104.903 87.9572 104.245C89.0461 103.586 91.5369 101.639 92.5106 101.555C93.4843 101.471 98.2944 100.466 99.5255 101.125C100.757 101.783 98.8339 99.3786 97.6358 98.4626C96.4377 97.5465 95.7145 97.8047 94.2282 98.1183C92.7419 98.4318 89.9906 98.3773 89.7032 97.5749C89.4158 96.7726 89.0454 96.3999 90.3949 95.6852C91.7444 94.9705 95.1758 92.9954 97.0648 93.5372C98.9538 94.079 100.846 94.4825 101.647 95.2548C102.449 96.0272 102.965 97.2598 104.052 97.0024C105.139 96.7449 107.46 97.233 108.202 98.0322C108.944 98.8314 108.602 96.6873 106.541 95.2548C104.48 93.8223 103.449 94.1674 102.733 93.4511C102.016 92.7349 101.042 91.7819 102.847 91.4476C104.709 91.1456 106.609 91.1841 108.457 91.5613C109.553 91.8511 111.807 93.7385 112.896 95.2548C114.489 97.6734 116.353 99.9024 118.451 101.899C120.91 104.046 123.948 110.173 126.326 112.178C128.704 114.183 128.301 112.952 130.534 115.185C132.767 117.417 140.47 120.453 142.618 121.542C143.838 122.157 147.388 123.849 150.226 125.192Z" fill="#FFCEB6"/>
<path d="M36.1905 126.47L20.8756 140.809C13.5325 140.919 7.03245 139.956 5.4939 131.537C9.14047 128.622 24.174 117.354 24.174 117.354C24.174 117.354 32.9789 122.171 34.7918 124.348C36.6047 126.525 36.1905 126.47 36.1905 126.47Z" fill="#FFCEB6"/>
<path d="M29.1203 118.979C29.092 119.156 29.0082 119.32 28.881 119.446C28.7538 119.572 28.5897 119.655 28.4125 119.682C28.2313 119.679 28.0571 119.612 27.9206 119.493C27.784 119.374 27.694 119.21 27.6663 119.031C27.6975 118.847 27.7888 118.678 27.926 118.551C28.0633 118.424 28.2387 118.347 28.4248 118.33C28.5986 118.339 28.7635 118.409 28.8907 118.528C29.0179 118.647 29.0992 118.807 29.1203 118.979Z" fill="#C5CDF3"/>
<path d="M30.4027 115.624C30.6135 115.688 30.7991 115.817 30.9339 115.991C31.0687 116.166 31.146 116.377 31.1551 116.598C31.1208 116.828 31.0076 117.039 30.8347 117.196C30.6619 117.352 30.4402 117.443 30.2075 117.454C29.9884 117.436 29.7825 117.342 29.6264 117.187C29.4703 117.032 29.3739 116.827 29.3545 116.608C29.4195 116.363 29.5522 116.14 29.7375 115.966C29.9228 115.792 30.1533 115.673 30.4027 115.624Z" fill="#B8D7FF"/>
<path d="M33.4054 119.548C33.3739 119.987 33.1879 120.4 32.8805 120.715C32.5732 121.03 32.1642 121.225 31.7263 121.268C31.3579 121.224 31.0201 121.042 30.7826 120.757C30.5451 120.472 30.426 120.107 30.4498 119.737C30.463 119.349 30.6158 118.978 30.8801 118.694C31.1443 118.409 31.5023 118.229 31.8884 118.187C32.2659 118.182 32.6315 118.319 32.9126 118.571C33.1936 118.823 33.3696 119.172 33.4054 119.548Z" fill="#D3FFB0"/>
<path d="M34.7457 115.76C34.7514 116.107 34.6315 116.444 34.4081 116.71C34.1847 116.976 33.8728 117.152 33.5299 117.206C33.1671 117.204 32.8178 117.068 32.5502 116.823C32.2825 116.578 32.1156 116.242 32.082 115.881C32.1138 115.508 32.2692 115.156 32.5236 114.882C32.7779 114.607 33.1167 114.426 33.4861 114.365C33.8249 114.416 34.1356 114.583 34.3653 114.837C34.5949 115.091 34.7294 115.417 34.7457 115.76Z" fill="#B8D7FF"/>
<path d="M30.0485 112.097C30.4781 112.061 31.0161 112.712 31.0038 113.201C31.0161 113.363 30.9939 113.526 30.9386 113.679C30.8833 113.831 30.7961 113.971 30.6829 114.087C30.5696 114.204 30.4329 114.295 30.2818 114.355C30.1307 114.414 29.9686 114.441 29.8063 114.434C29.644 114.426 29.4851 114.384 29.3403 114.31C29.1955 114.236 29.068 114.133 28.9663 114.006C28.8646 113.879 28.791 113.732 28.7503 113.575C28.7097 113.418 28.7029 113.254 28.7305 113.093C28.7513 112.433 29.3822 112.156 30.0485 112.097Z" fill="#FFF59E"/>
<path d="M26.0385 114.499C26.2498 114.402 26.4811 114.356 26.7134 114.366C26.9457 114.375 27.1724 114.44 27.3749 114.554C27.5775 114.668 27.75 114.829 27.8784 115.023C28.0068 115.217 28.0873 115.438 28.1135 115.669C28.0451 116.766 27.5233 117.36 26.5765 117.398C25.1263 117.461 24.5407 115.443 26.0385 114.499Z" fill="#FF9C9F"/>
<path d="M39.916 121.95C40.4993 122.83 40.7576 123.055 39.883 123.915C39.0101 124.843 37.9841 125.614 36.8497 126.195C36.636 125.904 36.4178 125.609 36.1772 125.286C37.3946 124.153 38.8763 123.312 39.916 121.95Z" fill="#DDDDDD"/>
<path d="M39.0394 120.934C39.2484 121.179 39.3291 121.16 39.0394 121.522C38.1794 122.585 36.2851 123.893 35.6172 124.543L34.8003 123.591C36.139 122.388 38.1456 120.463 38.3062 120.281C38.5475 120.487 38.9887 120.876 39.0394 120.934Z" fill="#DDDDDD"/>
<path d="M36.7907 118.868L37.6491 119.581L34.0648 123.017C33.722 122.731 33.4208 122.479 33.1426 122.253L36.7907 118.868Z" fill="#DDDDDD"/>
<path d="M72.7423 93.4305C73.9481 93.4904 74.3224 93.5619 74.2217 94.0553C73.8813 95.7106 71.731 95.8082 70.0456 95.6791C64.6069 95.2626 56.9041 98.0285 54.7907 99.4172C53.5857 100.208 53.8516 102.112 55.8175 100.171C56.5337 99.464 60.4669 98.3589 61.9163 97.99C66.3145 96.8695 65.9564 97.7472 70.0848 101.295C70.4113 101.586 70.7111 101.905 70.9809 102.249C71.1423 102.449 71.0747 102.562 70.8387 102.723C68.2635 104.472 65.6044 97.6242 59.378 103.61C57.2521 105.681 55.4115 108.025 53.9046 110.581C53.3021 111.686 54.5364 112.413 55.5815 112.003C59.3949 110.509 59.6254 110.187 61.0587 108.738C62.724 107.052 64.8874 104.089 66.1793 105.654C66.4167 105.941 66.1731 106.253 66.011 106.464C63.5686 109.642 63.2851 112.34 61.0041 113.88C60.2794 114.374 59.5972 114.928 58.9645 115.536C58.2944 116.034 57.5882 116.481 56.8519 116.875C55.1104 118.104 52.881 118.747 46.8428 119.876C43.9225 120.423 41.7837 121.675 41.3395 121.675C40.2174 120.313 38.9306 119.095 37.5085 118.049C36.9705 117.647 38.1049 116.837 37.0328 115.603C32.3449 110.211 30.9877 113.022 34.8295 109.087C35.704 108.191 36.6316 108.062 38.8864 104.512C40.5341 101.917 39.3959 102.487 43.549 98.4327C44.1876 97.8094 45.086 97.6527 45.9314 96.0703C46.1281 95.7022 47.9141 93.5342 47.9295 93.5212C48.8225 92.4253 49.953 92.1071 51.357 91.0404C52.3323 90.2988 52.4821 90.4817 55.6184 90.7545C55.0774 91.5551 54.2885 92.1558 53.3728 92.4645C52.1048 93.0224 48.0002 95.756 48.9201 96.5637C49.4627 97.0402 50.1074 96.34 51.543 94.9421C53.0593 93.4658 54.7477 93.3482 55.7091 92.32C57.0647 90.869 57.7764 91.0012 59.5347 90.4563C60.2724 90.1724 61.0789 90.1193 61.8475 90.3041C62.616 90.4888 63.3103 90.9026 63.8384 91.4908L63.7807 91.6406C60.5914 92.1386 63.302 91.3931 56.191 94.5148C54.5223 95.1522 53.0566 96.2284 51.9488 97.6296C51.42 98.2867 52.2685 99.0321 52.6666 98.3704C53.7955 96.4945 55.2495 96.1986 60.0527 94.003C61.549 93.319 61.4852 92.5067 68.6708 92.861C70.2162 92.934 69.3547 93.2606 72.7423 93.4305Z" fill="#FFCEB6"/>
<path d="M23.1849 116.43C23.2925 116.862 23.3209 117.144 23.1442 117.291C23.1242 117.308 19.3132 120.457 18.9988 120.672C18.7237 120.859 18.9796 120.87 12.86 120.835C9.81439 120.818 8.92292 120.951 8.71004 119.605C8.71004 119.588 8.2059 116.009 8.27122 115.785C12.5518 116.391 22.9928 115.662 23.1849 116.43Z" fill="white"/>
<path d="M143.15 116.486C142.996 117.907 142.836 119.363 142.664 120.954C129.03 114.321 133.488 117.445 143.15 116.486Z" fill="white"/>
<path d="M99.5471 118.638C100.239 119.465 101.683 120.123 102.444 120.992C83.7096 120.992 59.3171 120.735 57.4466 120.842C55.7561 121.017 54.0526 121.025 52.3606 120.866C46.7904 120.754 47.2116 121.088 47.177 120.76C51.7389 119.824 56.28 119.532 59.354 116.716C59.5285 116.557 59.7333 116.435 59.9561 116.358C60.1789 116.28 60.4151 116.248 60.6505 116.264C71.7216 116.948 78.2494 116.233 94.8914 116.43C97.2677 116.457 97.1931 115.809 99.5471 118.638Z" fill="white"/>
<path d="M106.679 116.188L106.578 116.275C101.142 113.351 97.9296 109.24 95.0546 112.344C94.2369 113.227 95.0223 114.178 95.6417 115.309C94.2807 115.309 74.0143 115.526 61.566 115.194C64.5893 111.628 64.2489 111.459 65.822 108.643C66.1686 108.024 66.6098 107.46 66.9617 106.844C68.0553 104.927 66.2401 103.962 65.1388 104.092C61.9249 104.47 62.1117 108.273 55.5494 110.822C54.8224 111.104 54.8923 110.996 54.8254 110.907C55.7436 109.339 56.852 107.89 58.1254 106.593C60.3479 104.364 60.7591 103.007 64.3696 102.152C66.3408 101.686 69.4817 106.02 72.0293 103.274C72.182 103.072 72.2682 102.826 72.276 102.573C72.2838 102.319 72.213 102.069 72.0731 101.857C79.9403 101.857 79.1695 102.328 89.881 102.072C91.6532 102.029 87.7169 103.14 86.9676 104.468C86.2329 105.77 87.7853 107.849 90.5842 107.388C93.4822 106.907 94.0486 106.144 95.3489 106.399C97.4931 106.818 97.7252 106.46 98.974 107.414C102.457 110.075 105.908 112.224 106.679 116.188Z" fill="white"/>
<path d="M116.454 94.3148C116.987 95.0548 117.499 95.8111 118.064 96.6257C114.548 96.9815 114.429 97.0453 114.145 96.5711C112.937 94.563 112.833 94.5038 112.735 94.2226C116.337 94.2233 116.366 94.1918 116.454 94.3148Z" fill="white"/>
<path d="M124.744 94.6056C126.798 97.878 129.837 100.422 128.433 100.515C125.447 100.715 121.344 100.788 118.35 100.801C117.612 100.801 115.597 98.4013 115.126 97.8411C115.28 97.8119 115.409 97.7757 115.537 97.7642C118.659 97.4952 118.586 97.3876 118.88 97.8234C120.065 99.5733 120.326 100.221 120.843 99.8645C121.443 99.4503 120.613 98.6595 119.695 97.3385C122.769 97.1079 124.016 97.6128 124.161 96.9204C124.295 96.2802 123.169 96.3455 122.513 96.3532C121.562 96.2484 120.6 96.2795 119.657 96.4454C118.966 96.6545 118.988 96.3863 117.44 94.0431C120.001 94.0431 121.257 94.4051 121.217 93.6742C121.198 93.3484 120.975 93.2192 120.661 93.2131C116.875 93.1739 116.847 93.2131 116.648 92.9826C116.033 92.2909 115.854 91.6369 115.353 91.9543C114.907 92.2371 115.331 92.7051 115.737 93.3522C112.004 93.3522 112.181 93.3822 112.01 93.2623C108.799 91.0159 109.162 91.2742 109.078 91.1243C112.075 91.0013 113.367 91.1166 117.971 91.112C120.902 91.112 121.805 90.8499 122.812 92.1879C123.435 93.0171 124.201 93.738 124.744 94.6056Z" fill="white"/>
<path d="M107.248 96.9096C102.54 95.4495 104.702 98.0071 102.016 94.747C104.619 94.5319 106.233 95.1936 107.248 96.9096Z" fill="white"/>
<path d="M82.6693 91.2014C107.876 91.7255 100.26 89.9379 101.28 92.4763C101.467 92.9244 101.681 93.3607 101.92 93.7828C100.874 93.8774 99.8195 93.7192 98.8465 93.3217C96.5071 92.0736 93.39 93.4854 93.1672 93.4039C92.1796 93.0481 85.021 93.2825 84.2701 93.3271C83.9689 93.3432 83.9927 93.3501 83.693 92.255C83.5631 91.7824 82.9821 91.7009 82.9014 92.3319C82.8323 92.8767 83.3041 93.3709 82.7032 93.4024C79.3578 93.5784 80.3907 93.3255 78.275 93.3255C78.3718 92.4172 78.4671 92.2627 78.0837 92.1236C77.5103 91.9169 77.495 92.6431 77.3359 93.3678H75.3777C74.8913 92.464 73.989 92.3334 73.0261 92.2673C68.9415 91.9891 70.4393 91.5518 67.5843 91.6794C66.7635 91.7155 65.9397 91.6871 65.1204 91.6871C64.9129 90.7948 63.2307 91.2329 81.0555 91.0723C81.5927 91.0738 82.1306 91.1891 82.6693 91.2014Z" fill="white"/>
<path d="M84.2009 94.2242C98.4045 94.2242 87.6592 93.7016 88.8635 97.4105C87.5078 97.3544 86.1691 97.2998 84.7773 97.2437C84.6021 96.323 84.41 95.3165 84.2009 94.2242Z" fill="white"/>
<path d="M83.2549 94.3289C83.447 95.3102 83.6391 96.287 83.8397 97.3214C81.8147 97.565 79.855 97.1454 77.7546 97.2346C78.2319 93.4143 77.6878 94.3681 80.2139 94.3911C81.246 94.4034 81.8762 94.3289 83.2549 94.3289Z" fill="white"/>
<path d="M96.5606 98.2517C96.2717 98.0004 94.9468 98.4284 94.5925 98.5483C91.656 99.5535 88.9877 97.9435 84.9331 98.3285C85.0376 99.6626 85.501 99.9293 85.0099 100.779C84.9585 100.865 84.6257 100.792 84.5265 100.739C84.2752 100.57 84.256 100.174 83.9409 98.4253L77.5846 98.1802C77.5078 99.3053 77.4885 99.8794 77.4248 100.178C77.4036 100.272 77.3523 100.356 77.2786 100.418C77.2049 100.48 77.113 100.516 77.017 100.52C76.921 100.525 76.8262 100.497 76.7471 100.443C76.6681 100.388 76.6091 100.309 76.5794 100.218C76.4747 99.5725 76.5099 98.9126 76.6824 98.2824C75.4528 98.2824 75.6887 98.2371 73.9742 98.1433C72.5978 98.0664 73.158 98.2778 72.5247 97.8128C72.6007 97.6737 72.7102 97.5558 72.8433 97.4699C72.9765 97.384 73.1291 97.3328 73.2871 97.321C74.2587 97.2224 75.2384 97.234 76.2074 97.3556C77.0905 97.5738 76.9283 96.8599 77.1496 94.3C75.4397 94.0556 75.5081 94.0133 75.1384 94.9086C74.0157 97.633 70.18 96.8015 66.5542 96.8015C66.6633 96.9652 69.7712 99.5912 71.0884 100.682C71.3827 100.925 71.7155 100.766 75.1776 100.819C80.8239 100.908 75.8647 101.013 83.0226 101.108C95.9796 101.293 89.5203 100.447 98.777 100.447C98.4189 99.9385 98.7785 100.172 96.5606 98.2517Z" fill="white"/>
<path d="M45.8061 94.2858C43.4929 97.4989 45.0061 97.0055 39.844 97.0055C41.3357 93.9315 41.019 94.2389 41.9397 94.3035C42.3985 94.3342 41.909 94.2858 45.8061 94.2858Z" fill="white"/>
<path d="M40.1992 94.2105C38.2548 98.2659 39.5244 96.8334 35.6304 96.9771C34.7189 97.0109 33.8029 96.9156 32.8953 96.8757C34.284 94.1183 34.1963 94.1213 34.619 94.1136C37.6869 94.0575 38.3932 94.1352 40.1992 94.2105Z" fill="white"/>
<path d="M43.1962 91.1246C37.8935 90.9187 31.863 91.0478 31.6033 91.1154C28.9496 91.784 31.4088 88.2012 23.7714 99.0764C21.5235 102.277 21.9362 100.05 39.5819 100.838C39.8947 100.852 40.0138 100.462 40.9184 99.413C42.4715 97.6101 42.825 98.1204 39.8586 98.0835C39.0017 98.0727 38.8849 99.32 38.589 99.9863C38.3185 100.595 37.8443 100.46 37.7552 100.012C37.7041 99.4242 37.8554 98.8368 38.184 98.3471C38.2243 98.2743 38.2504 98.1945 38.2609 98.1119C37.2282 97.9863 36.1872 97.9429 35.1476 97.982C31.4903 97.833 32.4455 97.6047 30.9915 99.9325C30.8217 100.204 30.6795 100.421 30.3544 100.278C29.7665 100.017 30.2392 99.4069 31.116 97.9375C30.1831 97.7838 29.2908 97.637 28.4009 97.4679C28.3275 97.4577 28.2593 97.4244 28.2061 97.3729C28.1529 97.3213 28.1175 97.2542 28.105 97.1812C28.0925 97.1082 28.1035 97.0331 28.1366 96.9668C28.1696 96.9005 28.2229 96.8464 28.2887 96.8124C29.3692 96.5426 28.6914 96.7248 30.9331 96.9123C31.9399 96.9961 31.8991 96.8462 33.3224 94.0381C29.8541 93.7038 28.8912 93.7529 29.4945 93.1051C29.9402 92.6278 30.595 92.9806 31.3389 92.9975C34.0287 93.059 33.9595 93.0744 34.1447 92.7462C34.3968 92.3035 34.7503 91.6103 35.1868 91.8017C35.7194 92.0323 35.2883 92.498 34.8948 93.175C41.8467 93.175 40.0622 93.8313 41.1704 92.0722C41.4594 91.6111 42.0435 92.0599 41.8229 92.498C41.6922 92.7577 41.5923 93.0359 41.4609 93.3595C42.0757 93.3595 42.6268 93.3779 43.1724 93.3549C46.59 93.2081 46.334 93.806 46.6852 93.3034C48.6795 90.4399 52.071 91.4689 43.1962 91.1246Z" fill="white"/>
<path d="M142.914 114.021C142.953 114.201 142.953 114.387 142.912 114.566C142.872 114.745 142.792 114.913 142.679 115.058C142.567 115.203 142.424 115.322 142.26 115.406C142.097 115.49 141.917 115.537 141.733 115.543C129.368 115.557 132.977 116.081 129.053 113.072C127.931 112.213 126.954 112.498 125.491 110.265C120.01 101.901 119.642 102.802 119.074 101.812C120.113 101.812 128.573 101.819 129.408 101.225C130.658 100.336 129.458 99.2626 128.482 97.9769C121.488 88.7763 123.846 90.2295 115.523 90.1796C115.505 90.1796 68.8976 90.0259 64.73 90.1972C63.515 90.2472 64.1436 89.2796 61.118 89.0207C60.0613 88.93 59.2736 89.3357 56.7021 90.0489C56.1527 90.2026 56.6729 89.6831 54.9346 89.5217C52.1149 89.2589 51.7483 89.4295 51.0774 89.926C49.8616 90.8251 50.6563 89.5202 30.9809 90.1519C28.8445 90.2203 29.9988 88.5695 22.0086 99.8136C21.8646 99.9682 21.7647 100.159 21.7195 100.365C21.6743 100.571 21.6854 100.786 21.7516 100.987C21.8179 101.187 21.9368 101.366 22.0959 101.505C22.2551 101.644 22.4487 101.738 22.6564 101.776C27.7209 101.972 26.273 101.776 27.5434 101.769C30.7811 101.756 31.7809 101.868 32.6201 101.859C33.0543 101.854 33.4878 101.754 33.922 101.756C35.3522 101.761 38.7744 101.814 39.1225 101.814C35.7288 107.359 35.9209 106.762 34.722 107.827C31.3974 110.783 31.784 110.486 31.6534 110.557C30.9064 110.965 30.3146 109.445 28.1551 110.952C23.7346 114.036 24.125 115.77 22.8409 115.645C18.219 115.195 18.7931 115.491 12.5052 115.138C8.10623 115.126 7.68509 115.2 9.47649 112.508C9.95373 111.79 27.2729 88.6133 27.2859 88.598C28.4541 87.1555 29.4762 87.5159 33.945 87.5697C46.1451 87.7165 122.869 87.2446 122.885 87.2446C124.637 87.28 125.061 87.9194 127.631 91.164C129.865 93.9821 141.028 108.824 142.914 114.021Z" fill="white"/>
<path d="M124.086 16.4069C124.521 23.611 124.679 78.4656 124.27 82.6032C124.072 84.6052 123.301 86.359 121.457 86.4389C116.286 86.6633 44.7948 86.4919 33.7967 86.7071C26.9185 86.8416 26.1408 85.4352 26.2899 78.5079C26.3875 73.9813 26.2361 26.2623 26.4436 19.4157C26.502 17.4944 26.3721 16.2648 26.9047 15.3272C27.5433 14.2082 29.0265 13.5427 31.5342 13.3252C32.816 13.2146 25.6512 11.653 118.865 13.276C121.245 13.3175 123.925 13.7487 124.086 16.4069ZM121.732 60.6454C121.931 49.4329 121.48 50.9822 121.682 45.724C122.038 36.3936 121.929 36.0708 121.61 21.3738C121.574 19.7231 121.558 19.1928 118.559 18.973C113.564 18.6057 76.7525 18.973 73.6469 19.0122C72.3666 19.0291 34.8534 18.7478 32.7684 18.8216C27.5026 19.0068 28.4747 20.4816 28.3203 29.3317C28.2534 33.1651 28.4478 72.7033 28.4478 72.721C28.4701 81.3198 28.5039 82.4672 30.4314 82.4542C93.5598 82.0338 116.819 82.1575 116.819 82.259C122.95 82.2582 121.314 84.1495 121.732 60.6454ZM73.7499 17.6212C75.0325 17.9847 75.5851 16.3086 74.666 15.3864C73.3879 14.1045 71.6949 17.041 73.7499 17.6212Z" fill="white"/>
<path d="M74.3977 40.6289C74.4999 40.9501 74.463 41.1369 74.0995 41.1499C73.8528 41.1592 71.9231 41.1553 71.6718 41.1499C71.1961 41.1461 71.1592 40.9793 71.2722 40.6258C71.4259 40.1555 71.7041 39.0312 71.9508 38.351C71.9605 38.3242 71.9601 38.2947 71.9494 38.2682C71.9388 38.2416 71.9188 38.22 71.8931 38.2073C71.647 38.043 71.4635 37.8004 71.3725 37.5188C71.2815 37.2372 71.2883 36.9331 71.3917 36.6558C71.4952 36.3785 71.6893 36.1443 71.9425 35.9911C72.1957 35.8379 72.4933 35.7748 72.7869 35.8119C73.786 35.7973 74.2471 36.1961 74.3631 37.0415C74.3969 37.2723 74.3587 37.5079 74.2537 37.7162C74.1488 37.9245 73.9823 38.0955 73.7768 38.2058C73.7513 38.2186 73.7313 38.2402 73.7207 38.2667C73.7101 38.2932 73.7095 38.3226 73.7191 38.3495C73.962 39.0358 74.2471 40.1593 74.3977 40.6289Z" fill="white"/>
<path d="M80.2331 31.954C81.4696 33.3596 82.1428 36.0455 81.9015 38.3003C81.3828 43.135 78.2796 46.7662 72.7232 46.6771C68.6563 46.6102 65.5999 44.5898 64.1743 40.675C63.2567 38.1535 63.329 35.101 64.8237 33.0445C65.529 32.0593 66.3587 31.1694 67.2922 30.397C69.3349 28.7347 70.8273 28.2744 74.3963 28.5526C76.804 28.7316 79.1572 30.7305 80.2331 31.954ZM77.2843 42.6801C77.6179 42.6593 77.8338 42.4441 77.7401 41.8401C77.5495 40.6105 76.9347 35.4615 76.9031 35.2993C76.7748 34.6207 76.7494 34.7437 75.7127 34.6937C75.5775 34.6876 75.5859 34.6391 75.5682 34.3963C75.4038 32.1423 74.2672 31.2754 72.8608 31.2877C71.0302 31.3046 70.2363 32.5473 70.1018 34.3963C70.0765 34.749 70.1518 34.6876 69.3333 34.7298C69.0513 34.7444 68.8238 34.759 68.7685 35.2993C68.7539 35.443 68.2859 39.4531 68.0292 41.3067C67.9262 42.0491 67.6972 42.6747 68.7285 42.69C70.3485 42.72 77.2843 42.6801 77.2843 42.6801Z" fill="white"/>
<path d="M42.3163 63.335C42.8404 63.7961 42.7344 63.6424 43.7719 62.4427C43.7758 62.4381 43.7811 62.4348 43.7869 62.4333C43.7928 62.4318 43.7991 62.4322 43.8047 62.4344C43.8104 62.4366 43.8152 62.4405 43.8186 62.4456C43.8219 62.4506 43.8236 62.4566 43.8233 62.4627C43.7913 62.9562 43.7751 63.4506 43.7749 63.9452C43.7749 64.2349 43.9494 64.1665 44.2568 64.1934C44.5102 64.2143 44.7652 64.2063 45.0168 64.1696C45.1805 64.1335 45.2382 64.1527 45.2336 63.8968C45.2274 63.5502 45.2505 62.9745 45.2105 62.455C45.2096 62.4494 45.2106 62.4437 45.2134 62.4387C45.2161 62.4338 45.2204 62.4299 45.2257 62.4277C45.2309 62.4255 45.2367 62.4251 45.2422 62.4265C45.2476 62.428 45.2524 62.4313 45.2558 62.4358C46.2933 63.6516 46.2418 63.833 46.769 63.368C47.2355 62.9561 47.4192 62.817 47.3531 62.5611C47.0443 62.1867 46.6956 61.8471 46.3133 61.5482C46.2603 61.5067 46.2011 61.4752 46.1688 61.4437C46.1366 61.4122 46.145 61.3484 46.2311 61.3545C46.7362 61.3962 47.2434 61.4059 47.7497 61.3837C47.848 61.3791 47.9802 61.426 48.0102 61.23C48.0539 60.898 48.0476 60.5612 47.9917 60.231C47.9602 60.0965 47.9556 60.0319 47.838 60.0173C47.254 59.9405 46.0758 60.0803 46.2326 59.8905C46.3248 59.7783 46.7614 59.5724 47.3308 59.1274C47.7666 58.7877 47.8442 58.6924 47.599 58.3865C46.8966 57.5081 46.925 57.5481 46.6445 57.708C46.2029 58.0108 45.7812 58.3417 45.3819 58.6986C45.3737 58.7051 45.3638 58.7091 45.3533 58.7101C45.3429 58.7111 45.3324 58.7091 45.3231 58.7043C45.3138 58.6996 45.306 58.6922 45.3008 58.6831C45.2955 58.6741 45.293 58.6637 45.2935 58.6532C45.3404 57.0555 45.3842 57.034 45.0983 56.9663C44.7092 56.9371 44.3185 56.9371 43.9294 56.9663C43.6504 57.0324 43.6865 57.0324 43.7342 58.6532C43.7347 58.6637 43.7322 58.6741 43.7269 58.6831C43.7217 58.6922 43.7139 58.6996 43.7046 58.7043C43.6953 58.7091 43.6848 58.7111 43.6744 58.7101C43.6639 58.7091 43.654 58.7051 43.6458 58.6986C43.2465 58.3417 42.8248 58.0108 42.3832 57.708C42.0619 57.525 42.1065 57.5735 41.4279 58.3865C41.1774 58.6878 41.2611 58.7877 41.6969 59.1274C42.2663 59.5724 42.6406 59.7783 42.7328 59.8905C42.7697 59.9359 42.7105 59.9797 42.6498 59.9812C42.1303 59.9541 41.6094 59.9643 41.0913 60.0119C40.9806 60.0388 40.946 60.1249 40.9376 60.2617C40.9414 60.5782 40.9653 60.8942 41.0091 61.2077C41.0091 61.4091 41.2104 61.4076 41.3088 61.4152C41.8073 61.4496 42.3081 61.4285 42.802 61.3522C42.8865 61.3353 42.8973 61.4122 42.8642 61.4414C42.8312 61.4706 42.7728 61.5044 42.7198 61.5459C42.3538 61.8334 42.0217 62.1616 41.7299 62.5242C41.6646 62.784 41.8498 62.9207 42.3163 63.335ZM52.5951 63.335C53.12 63.7961 53.0139 63.6424 54.0514 62.4427C54.0554 62.4381 54.0606 62.4348 54.0665 62.4333C54.0724 62.4318 54.0786 62.4322 54.0843 62.4344C54.09 62.4366 54.0948 62.4405 54.0982 62.4456C54.1015 62.4506 54.1032 62.4566 54.1029 62.4627C54.0701 62.9562 54.0539 63.4506 54.0545 63.9452C54.0545 64.2349 54.229 64.1665 54.5364 64.1934C54.7898 64.2143 55.0448 64.2063 55.2964 64.1696C55.4601 64.1335 55.5185 64.1527 55.5131 63.8968C55.5062 63.5502 55.5131 62.9745 55.4885 62.455C55.488 62.4495 55.4893 62.4439 55.4921 62.4391C55.495 62.4343 55.4993 62.4305 55.5045 62.4284C55.5097 62.4262 55.5154 62.4258 55.5208 62.4271C55.5262 62.4285 55.5311 62.4315 55.5347 62.4358C56.5714 63.6516 56.5214 63.833 57.0486 63.368C57.5151 62.9561 57.6988 62.817 57.6319 62.5611C57.3233 62.1868 56.975 61.8471 56.5929 61.5482C56.5399 61.5059 56.4807 61.4752 56.4476 61.4437C56.4146 61.4122 56.4246 61.3484 56.5099 61.3545C57.0144 61.3969 57.5211 61.4074 58.0269 61.386C58.1268 61.3814 58.2629 61.4283 58.289 61.2323C58.3364 60.9004 58.3297 60.563 58.269 60.2333C58.2421 60.098 58.2329 60.0335 58.1207 60.0196C57.5389 59.9428 56.3593 60.0826 56.513 59.8928C56.606 59.7791 57.044 59.5747 57.6135 59.1297C58.0484 58.79 58.133 58.6901 57.8817 58.3889C57.1954 57.5658 57.2431 57.5304 56.9272 57.7103C56.4857 58.013 56.0642 58.3439 55.6653 58.7009C55.6569 58.7071 55.6469 58.7109 55.6364 58.7118C55.6259 58.7127 55.6154 58.7107 55.6061 58.706C55.5967 58.7013 55.5888 58.6941 55.5832 58.6852C55.5777 58.6763 55.5747 58.666 55.5746 58.6555C55.6007 57.1077 55.693 57.0417 55.381 56.9686C54.9921 56.9394 54.6016 56.9394 54.2128 56.9686C53.9254 57.0363 53.9677 57.057 54.0176 58.6555C54.0178 58.6661 54.015 58.6766 54.0096 58.6857C54.0041 58.6948 53.9961 58.7021 53.9866 58.7069C53.9771 58.7116 53.9665 58.7136 53.9559 58.7125C53.9453 58.7115 53.9353 58.7074 53.9269 58.7009C53.5282 58.345 53.1078 58.0141 52.6681 57.7103C52.3799 57.5466 52.4099 57.5174 51.7129 58.3889C51.4677 58.6963 51.5461 58.79 51.9811 59.1297C52.5505 59.5747 52.9248 59.7806 53.0178 59.8928C53.0547 59.9382 52.9955 59.982 52.9348 59.9835C52.4152 59.9564 51.8944 59.9666 51.3763 60.0142C51.2648 60.0411 51.231 60.1272 51.2225 60.264C51.2248 60.5806 51.2487 60.8967 51.294 61.21C51.294 61.4114 51.4954 61.4099 51.5937 61.4175C52.0923 61.4519 52.5931 61.4308 53.087 61.3545C53.1707 61.3376 53.1823 61.4145 53.1492 61.4437C53.1162 61.4729 53.057 61.5067 53.004 61.5482C52.6382 61.8357 52.3064 62.1639 52.0149 62.5265C51.9434 62.784 52.1302 62.9207 52.5951 63.335ZM111.413 55.7959C111.558 58.8123 111.615 62.1914 111.538 64.0189C111.508 64.7252 111.653 65.8511 110.923 65.9817C109.518 66.2323 40.465 66.1977 40.3858 66.1954C38.5667 66.1431 38.6436 65.7181 38.6105 64.2841C38.5575 62.0462 38.5783 56.8726 38.6912 55.5146C38.7589 54.7038 39.1193 54.7054 39.9754 54.6554C42.0027 54.5363 47.1748 54.4748 57.3383 54.5432C83.1841 54.7154 74.357 54.4118 94.2983 54.4664C97.609 54.4756 109.565 54.4979 110.226 54.5432C111.428 54.6208 111.368 54.8729 111.413 55.7959ZM88.6343 63.6124C88.682 63.2805 88.675 62.943 88.6136 62.6133C88.5875 62.4765 88.5782 62.4135 88.4653 62.3982C88.068 62.3436 82.0667 62.3113 81.7185 62.3982C81.6079 62.4243 81.5733 62.5104 81.5648 62.6479C81.5678 62.9643 81.5919 63.2801 81.6371 63.5932C81.6371 63.793 81.8369 63.7907 81.936 63.7992C82.3064 63.8307 87.9903 63.7922 88.3738 63.7676C88.4683 63.7592 88.6051 63.8091 88.6343 63.6124ZM78.6015 63.6124C78.6457 63.2803 78.6393 62.9435 78.5822 62.6133C78.5515 62.4773 78.5469 62.4135 78.4285 62.3982C78.0328 62.3444 72.0299 62.3121 71.6833 62.3982C71.5711 62.4251 71.5366 62.5104 71.5258 62.6479C71.531 62.9643 71.5567 63.2801 71.6026 63.5932C71.6026 63.793 71.8025 63.7907 71.9001 63.7992C72.2705 63.8307 77.9544 63.7922 78.3402 63.7676C78.437 63.7592 78.573 63.8091 78.5999 63.6124H78.6015ZM68.5701 63.6124C68.6177 63.2805 68.6107 62.943 68.5494 62.6133C68.5232 62.4765 68.514 62.4135 68.401 62.3982C68.0037 62.3436 62.0024 62.3113 61.6543 62.3982C61.5436 62.4243 61.5098 62.5104 61.5006 62.6479C61.5035 62.9643 61.5277 63.2801 61.5728 63.5932C61.5728 63.793 61.7726 63.7907 61.871 63.7992C62.2407 63.8307 67.9246 63.7922 68.3104 63.7676C68.4049 63.7592 68.5417 63.8091 68.5686 63.6124H68.5701Z" fill="white"/>
<path d="M120.646 21.7094C120.686 23.2918 120.885 52.9424 120.525 75.3514C120.428 81.4326 121.42 81.3173 115.69 81.2328C105.223 81.0791 42.3239 81.2243 34.8064 81.3865C29.5413 81.501 29.7081 81.3488 29.6866 80.2337C29.4391 67.4127 29.2293 26.9914 29.4983 21.3867C29.5913 19.4408 32.4317 19.8981 41.0259 19.9795C41.8713 19.9872 42.722 19.8904 43.5689 19.9073C57.5396 20.1901 101.424 19.689 118.767 19.9634C119.008 19.9419 119.25 19.9713 119.479 20.0497C119.708 20.128 119.918 20.2536 120.095 20.4182C120.272 20.5828 120.413 20.7828 120.507 21.0053C120.602 21.2277 120.65 21.4676 120.646 21.7094ZM112.334 64.7997C112.403 61.8494 112.343 56.3538 112.229 55.2456C112.115 54.1374 111.942 54.0714 111.26 53.8869C109.986 53.5418 62.9008 53.8147 62.8231 53.8154C38.2654 53.9853 38.081 53.1284 37.8781 55.3102C37.7797 56.3707 37.7928 62.9061 37.8143 64.3832C37.8435 66.3759 37.8866 66.6741 39.5757 66.8839C41.4109 67.1145 109.321 66.9877 110.833 66.8547C112.367 66.7195 112.304 66.044 112.334 64.7997ZM80.5941 44.0953C81.6104 42.7636 82.32 41.2238 82.6723 39.5861C83.0246 37.9483 83.0109 36.253 82.6322 34.6212C81.9659 31.4242 79.3276 29.5897 77.3848 28.4177C75.4421 27.2458 70.7811 26.87 67.8354 28.686C65.6426 30.0362 63.977 32.0949 63.1144 34.5212C62.6066 36.0454 62.4754 37.6698 62.732 39.2556C62.9887 40.8415 63.6255 42.3416 64.5881 43.6278C65.5507 44.9139 66.8105 45.9478 68.2597 46.6411C69.7088 47.3344 71.3044 47.6665 72.9098 47.609C76.4588 47.5536 79.0172 46.3701 80.5934 44.0953H80.5941Z" fill="#D8E9FF"/>
<path d="M73.5483 34.7022C73.7359 34.6983 74.1393 34.7475 74.1293 34.5285C74.0894 33.677 73.9695 32.89 73.118 32.7094C72.9313 32.6695 72.7383 32.6695 72.5516 32.7094C71.6993 32.8908 71.5802 33.6739 71.5402 34.5285C71.5302 34.7475 71.9337 34.6983 72.1212 34.7022C72.3333 34.706 73.3362 34.706 73.5483 34.7022Z" fill="white"/>
<path d="M150.352 124.777C150.495 124.858 150.612 124.978 150.689 125.122C150.767 125.267 150.801 125.431 150.789 125.595C150.381 126.576 150.021 126.165 143.817 123.083C140.76 121.565 133.988 118.375 131.161 116.407C130.5 115.946 129.031 114.332 127.947 113.841C125.421 112.688 124.819 111.603 121.39 106.337C118.757 102.293 116.871 102.719 112.199 95.8705C111.213 94.4242 111.859 94.518 109.538 92.8311C108.612 92.1161 107.474 91.7307 106.305 91.736C103.494 91.6445 105.551 91.3679 102.655 91.9604C102.101 92.0741 102.87 93.0309 103.467 93.3068C105.207 94.113 106.529 93.7318 108.272 96.1326C112.433 101.864 110.947 99.6854 111.683 100.662C112.079 101.188 111.298 101.634 110.875 101.358C109.103 100.206 107.807 97.9724 104.768 97.489C108.408 102.1 106.893 100.481 108.622 102.029C108.787 102.178 109.05 102.249 108.975 102.563C108.886 102.931 108.762 103.02 108.4 102.903C106.863 102.408 106.282 100.949 104.024 98.4174C103.546 97.8794 102.936 97.469 102.404 96.9818C101.88 96.3512 101.285 95.7838 100.63 95.2911C95.5056 92.9218 94.3283 94.2152 91.0729 95.9697C90.3043 96.3839 89.6027 96.9403 90.4127 97.2808C92.4539 98.1376 93.2562 97.6174 95.1467 97.0963C96.7975 96.6421 97.4399 97.2031 99.5733 99.3742C101.648 101.486 101.042 101.315 102.334 102.038C105.166 103.622 105.242 103.549 105.378 103.943C105.605 104.6 104.986 104.589 104.846 104.522C97.4561 101.007 99.3443 101.327 94.382 101.634C92.7682 101.733 92.5953 102.15 89.0709 104.31C88.0572 104.931 87.6 105.001 88.3923 105.775C89.4221 106.783 90.7216 106.236 93.5882 105.347C94.5726 105.04 94.6364 105.229 97.3923 105.538C98.6058 105.674 99.2859 106.254 103.041 109.163C103.785 109.666 104.482 110.236 105.122 110.866C107.783 113.88 107.756 115.122 107.981 116.847C108.051 117.385 107.302 117.857 106.796 117.658C101.386 115.529 99.1107 111.37 96.2503 112.673C95.1744 113.163 96.2019 114.529 97.2494 115.09C99.6102 116.354 99.6694 117.549 101.448 118.769C104.753 121.041 103.775 121.689 110.19 123.489C112.488 124.133 111.027 123.371 116.849 125.219C119.945 126.202 124.15 126.557 140.212 140.599C140.589 140.928 140.366 141.362 139.982 141.681C139.537 142.052 139.507 141.978 137.522 140.375C132.135 136.026 124.596 129.327 120.095 127.628C112.758 124.861 106.554 124.35 103.916 122.194C103.443 121.81 102.273 122.018 101.109 122.041C89.7064 122.251 73.5117 122.091 67.9254 122.081C67.91 122.081 44.1784 121.712 43.6958 121.966C41.8944 122.907 41.7838 122.997 41.7261 123.216C41.4756 124.175 40.797 124.51 39.19 125.901C38.0503 126.886 37.4724 127.268 36.2697 127.427C36.1929 127.319 24.6337 138.539 22.9238 140.128C21.8748 141.254 20.7873 141.385 20.4115 141.112C20.2694 141.008 19.8989 140.881 20.6574 140.19C23.2012 137.876 32.9459 129.212 35.502 126.228C35.4897 126.211 32.6531 122.636 32.0644 122.892C31.6334 123.071 31.1634 123.135 30.7003 123.078C30.2371 123.021 29.7966 122.845 29.4215 122.568C24.9865 119.77 24.3632 117.793 23.8076 118.208C22.0469 119.523 19.8113 121.457 13.2475 126.354C7.19394 130.87 5.83522 132.738 5.39717 132.143C5.24347 131.934 5.09514 131.738 5.57854 131.214C7.71883 129.195 15.0535 123.966 17.432 121.82C17.1624 121.763 16.8892 121.723 16.6143 121.702C7.12478 121.644 8.07619 122.449 7.36993 117.352C6.968 114.455 6.91882 114.374 12.5043 106.724C12.5174 106.707 23.6277 92.1387 23.8183 91.7314C23.3142 91.6545 6.14262 91.8359 5.6623 91.6499C4.94682 91.3709 5.39256 90.9698 5.47863 90.9429C6.60296 90.597 6.60219 90.8068 11.9979 90.7746C13.8047 90.7638 15.6099 90.6862 17.4166 90.6823C28.1043 90.6593 22.6717 91.4923 27.7493 87.0957C26.5757 86.4809 25.7142 85.601 25.4437 83.3646C24.9826 79.5105 25.4107 69.9326 25.2216 40.272C25.2216 40.2566 25.5359 18.4571 25.4791 17.1483C25.1878 10.3993 33.6522 12.6303 53.2591 12.5081C115.304 12.1192 111.843 12.3052 111.992 12.3052C118.289 12.2998 122.885 11.9916 124.415 14.2019C125.469 15.7258 125.183 16.7333 125.221 18.9021C125.466 31.4841 125.567 80.7985 125.287 83.1025C125.044 85.0953 124.495 85.8438 123.93 86.3687C125.613 87.0835 127.002 88.3502 127.868 89.9599C127.984 90.1782 128.051 90.0791 128.548 90.6577C147.597 90.6577 149.682 89.9492 149.581 90.9913C149.504 91.7598 149.619 91.6753 129.178 91.6753C130.945 94.2405 136.081 100.407 141.299 108.89C144.802 114.587 144.404 114.947 143.746 120.575C143.65 121.405 143.448 121.349 144.17 121.692C144.603 121.9 144.939 122.395 150.352 124.777ZM142.667 120.958C142.839 119.366 142.998 117.911 143.152 116.489C133.488 117.446 129.03 114.322 142.664 120.958H142.667ZM141.735 115.543C141.919 115.536 142.099 115.489 142.262 115.405C142.426 115.322 142.569 115.203 142.682 115.058C142.794 114.913 142.874 114.744 142.914 114.565C142.955 114.386 142.956 114.2 142.916 114.02C141.031 108.823 129.867 93.9815 127.638 91.165C125.068 87.918 124.641 87.2786 122.891 87.2456C122.876 87.2456 46.152 87.7174 33.9519 87.5706C29.483 87.5169 28.4609 87.1564 27.2928 88.5989C27.2797 88.6143 9.96057 111.791 9.48333 112.509C7.69194 115.199 8.11308 115.092 12.512 115.139C17.4827 115.192 19.0259 115.25 22.9315 115.196C24.2218 115.178 23.7415 114.037 28.1619 110.953C30.3214 109.446 30.9132 110.966 31.6602 110.558C31.7908 110.487 31.4043 110.783 34.7289 107.828C35.9277 106.763 35.7356 107.36 39.1293 101.815C38.7812 101.815 35.359 101.762 33.9288 101.757C33.4946 101.757 33.0612 101.855 32.627 101.86C31.7878 101.869 30.7879 101.757 27.5502 101.77C26.2799 101.774 27.7277 101.973 22.6633 101.777C22.4555 101.739 22.262 101.645 22.1028 101.506C21.9436 101.367 21.8247 101.188 21.7585 100.988C21.6923 100.787 21.6812 100.572 21.7264 100.366C21.7716 100.16 21.8714 99.9691 22.0154 99.8145C30.0079 88.5705 28.8513 90.2212 30.9877 90.1528C50.6616 89.5211 49.8685 90.826 51.0843 89.9269C51.7552 89.4304 52.1217 89.2598 54.9414 89.5227C56.6767 89.684 56.1564 90.202 56.709 90.0499C59.2773 89.3367 60.0681 88.9309 61.1248 89.0216C64.1504 89.2806 63.5218 90.2512 64.7368 90.1982C68.9044 90.026 115.511 90.1805 115.53 90.1805C123.853 90.2305 121.497 88.7772 128.488 97.9778C129.465 99.2635 130.665 100.337 129.415 101.226C128.58 101.82 120.12 101.813 119.081 101.813C119.649 102.804 120.016 101.903 125.497 110.266C126.958 112.499 127.937 112.214 129.059 113.073C132.977 116.078 129.365 115.557 141.733 115.543H141.735ZM128.44 100.515C129.843 100.422 126.804 97.8779 124.751 94.6056C124.208 93.7395 123.445 93.0171 122.822 92.1948C121.812 90.8576 120.91 91.1189 117.98 91.1189C113.377 91.1235 112.086 91.0082 109.087 91.1311C109.171 91.2849 108.809 91.0228 112.019 93.2691C112.191 93.389 112.013 93.3591 115.747 93.3591C115.341 92.712 114.917 92.2439 115.362 91.9611C115.863 91.6437 116.045 92.297 116.657 92.9894C116.856 93.2146 116.888 93.1769 120.67 93.22C120.984 93.22 121.208 93.3521 121.226 93.6811C121.266 94.4119 120.01 94.0499 117.45 94.0499C118.997 96.3931 118.976 96.6629 119.667 96.4523C120.61 96.2863 121.571 96.2553 122.523 96.3601C123.178 96.3524 124.304 96.2871 124.17 96.9272C124.025 97.6189 122.782 97.1186 119.704 97.3453C120.62 98.6664 121.453 99.4572 120.853 99.8714C120.335 100.228 120.074 99.5801 118.89 97.8302C118.595 97.3945 118.668 97.5021 115.546 97.7711C115.418 97.7818 115.292 97.8179 115.136 97.8479C115.607 98.4082 117.622 100.811 118.36 100.808C121.346 100.788 125.446 100.714 128.435 100.515H128.44ZM124.276 82.603C124.684 78.4654 124.528 23.6107 124.091 16.4067C123.93 13.7484 121.248 13.3588 118.875 13.2758C118.875 13.2758 33.2126 13.1805 31.5441 13.325C29.0365 13.5425 27.5533 14.208 26.9147 15.327C26.3767 16.2676 26.5081 17.4926 26.4535 19.4154C25.9717 35.2467 26.6434 62.4811 26.2998 78.5076C26.1508 85.435 26.9285 86.8413 33.8066 86.7068C44.8048 86.4917 116.295 86.6623 121.467 86.4386C123.301 86.3602 124.072 84.605 124.27 82.603H124.276ZM118.068 96.626C117.503 95.8114 116.992 95.0559 116.458 94.3151C116.37 94.1914 116.341 94.2229 112.737 94.2229C112.835 94.5041 112.939 94.5633 114.147 96.5714C114.429 97.0425 114.548 96.981 118.068 96.626ZM106.581 116.275L106.683 116.188C105.914 112.224 102.461 110.075 98.9816 107.414C97.7327 106.459 97.5007 106.817 95.3565 106.398C94.0501 106.143 93.486 106.906 90.5918 107.387C87.7929 107.849 86.2405 105.774 86.9752 104.467C87.7245 103.139 91.6631 102.028 89.8886 102.071C79.1771 102.327 79.9479 101.856 72.0807 101.856C72.2206 102.068 72.2914 102.318 72.2836 102.572C72.2758 102.826 72.1896 103.071 72.0369 103.274C69.4893 106.019 66.3499 101.686 64.3772 102.152C60.7652 103.005 60.3555 104.365 58.133 106.592C56.8596 107.889 55.7512 109.338 54.833 110.906C54.8999 110.996 54.833 111.103 55.557 110.821C62.1193 108.272 61.9356 104.469 65.1464 104.091C66.2477 103.961 68.0668 104.927 66.9693 106.843C66.6174 107.458 66.1762 108.023 65.8296 108.642C64.2565 111.458 64.6 111.627 61.5736 115.193C74.0235 115.525 94.2883 115.308 95.6493 115.308C95.0299 114.177 94.2445 113.227 95.0622 112.344C97.9333 109.24 101.142 113.351 106.578 116.275H106.581ZM102.019 94.747C104.709 98.007 102.544 95.4494 107.252 96.9096C106.233 95.1935 104.619 94.5318 102.016 94.747H102.019ZM101.284 92.4753C100.263 89.9392 107.879 91.7244 82.673 91.2003C82.1351 91.1896 81.5971 91.0743 81.0592 91.0789C63.2344 91.2326 64.9205 90.7984 65.1241 91.6937C65.9434 91.6937 66.7672 91.7221 67.588 91.686C70.443 91.5584 68.9452 91.9934 73.0298 92.2739C73.9927 92.34 74.895 92.4707 75.3814 93.3744H77.3373C77.4964 92.6497 77.5117 91.9235 78.0851 92.1302C78.4693 92.2693 78.3732 92.4238 78.2764 93.3322C80.3921 93.3322 79.3592 93.5842 82.7046 93.409C83.3055 93.3775 82.8337 92.8833 82.9028 92.3385C82.9835 91.7037 83.5645 91.7851 83.6944 92.2616C83.9941 93.3568 83.9703 93.3498 84.2715 93.3337C85.0247 93.2914 92.181 93.057 93.1686 93.4105C93.393 93.492 96.5085 92.0803 98.8479 93.3283C99.8209 93.7259 100.875 93.884 101.922 93.7894C101.681 93.3649 101.467 92.926 101.28 92.4753H101.284ZM102.447 120.987C101.685 120.118 100.237 119.459 99.5495 118.632C97.1971 115.806 97.2716 116.454 94.8916 116.427C78.2472 116.23 71.7218 116.945 60.6507 116.261C60.415 116.245 60.1787 116.278 59.9559 116.356C59.7331 116.434 59.5284 116.557 59.3542 116.716C56.2848 119.532 51.7459 119.824 47.1802 120.763C47.2148 121.09 46.796 120.756 52.3638 120.869C54.0558 121.025 55.759 121.016 57.4491 120.84C59.3196 120.733 65.9979 121.044 68.1728 121.038C71.8294 121.029 102.443 120.99 102.443 120.99L102.447 120.987ZM98.7787 100.445C98.4229 99.9383 98.7787 100.176 96.5646 98.2514C96.2749 98.0008 94.9508 98.4274 94.5965 98.548C91.6592 99.5471 88.9917 97.9424 84.9371 98.3282C85.0416 99.6624 85.5081 99.9313 85.0139 100.778C84.9986 100.804 84.9371 100.816 84.8602 100.817C84.7454 100.819 84.6317 100.793 84.5298 100.74C84.2785 100.571 84.2593 100.175 83.9442 98.4258L77.5878 98.1807C77.4449 100.278 77.5179 100.512 77.0107 100.513C76.2422 100.513 76.5357 99.1621 76.6841 98.2844C75.4544 98.2844 75.6904 98.2399 73.9758 98.1453C73.3341 98.11 73.1136 98.1369 72.9967 98.1284C72.1468 98.0677 72.7293 97.3107 73.2888 97.323C74.2604 97.2249 75.2401 97.2365 76.2091 97.3576C77.0921 97.5759 76.93 96.8612 77.1513 94.302C75.4414 94.0576 75.5098 94.0154 75.1401 94.9107C74.0166 97.635 70.1817 96.8035 66.5559 96.8035C66.665 96.9672 69.7729 99.594 71.0901 100.684C71.3844 100.927 71.7172 100.767 75.1793 100.821C80.7341 100.907 76.0785 101.014 83.0243 101.11C95.9245 101.285 89.5727 100.445 98.7787 100.445ZM88.8649 97.4106C87.6591 93.7018 98.406 94.2244 84.2024 94.2244C84.4119 95.3152 84.6041 96.3217 84.7788 97.2439L88.8649 97.4106ZM83.8404 97.3215L83.2556 94.3289C81.8776 94.3289 81.2475 94.4058 80.2146 94.3927C77.6885 94.3681 78.2326 93.4144 77.7554 97.2362C79.8542 97.1455 81.8139 97.5651 83.8389 97.3215H83.8404ZM74.2233 94.0523C74.324 93.5589 73.9497 93.4866 72.7439 93.4275C69.3563 93.2607 70.2178 92.9348 68.6708 92.858C61.4853 92.5022 61.549 93.3191 60.0528 94C55.2496 96.1956 53.7956 96.4915 52.6666 98.3674C52.2685 99.0291 51.4201 98.2837 51.9488 97.6266C53.0567 96.2254 54.5223 95.1492 56.191 94.5118C63.302 91.3901 60.5915 92.1356 63.7808 91.6376L63.8384 91.4877C63.3103 90.8996 62.6161 90.4858 61.8475 90.3011C61.079 90.1163 60.2725 90.1694 59.5348 90.4533C57.7764 90.9982 57.0648 90.866 55.7091 92.317C54.7477 93.3452 53.0593 93.4628 51.5431 94.9391C50.1075 96.337 49.4627 97.0371 48.9201 96.5607C47.9979 95.753 52.1048 93.0194 53.3729 92.4614C54.2885 92.1528 55.0774 91.5521 55.6185 90.7515C52.4822 90.4787 52.3323 90.2958 51.3571 91.0374C49.953 92.1041 48.821 92.4207 47.9295 93.5181C47.9165 93.5335 46.1305 95.6992 45.9314 96.0673C45.086 97.6496 44.1907 97.8064 43.549 98.4297C39.3991 102.484 40.5342 101.914 38.8865 104.509C36.6317 108.059 35.7041 108.188 34.8295 109.084C30.987 113.019 32.348 110.208 37.0328 115.6C38.1088 116.834 36.9729 117.644 37.5085 118.046C38.9306 119.092 40.2175 120.31 41.3396 121.672C41.7838 121.672 43.9202 120.42 46.8429 119.873C52.881 118.744 55.1105 118.106 56.8519 116.872C57.5883 116.478 58.2944 116.031 58.9645 115.533C59.5972 114.925 60.2795 114.371 61.0042 113.877C63.2851 112.34 63.5687 109.639 66.011 106.461C66.1732 106.25 66.4168 105.938 66.1793 105.651C64.8874 104.086 62.721 107.049 61.0587 108.735C59.6255 110.184 59.3949 110.506 55.5816 112C54.5364 112.41 53.3022 111.683 53.9047 110.578C55.4115 108.022 57.2521 105.678 59.378 103.607C65.6029 97.6212 68.2635 104.469 70.8388 102.719C71.0747 102.559 71.1423 102.446 70.9809 102.246C70.7112 101.902 70.4113 101.583 70.0849 101.292C65.9564 97.7442 66.3146 96.8665 61.9164 97.987C60.467 98.3559 56.5368 99.461 55.8175 100.168C53.8517 102.109 53.5888 100.205 54.7908 99.4141C56.908 98.0254 64.6069 95.2596 70.0457 95.6761C71.731 95.8052 73.879 95.7069 74.2218 94.0523H74.2233ZM46.6838 93.303C48.6819 90.4403 52.0726 91.4693 43.1978 91.1242C37.8951 90.9183 31.8654 91.0474 31.6049 91.115C28.952 91.7836 31.4112 88.2008 23.773 99.076C21.5343 102.265 21.8963 100.059 39.5835 100.837C39.8963 100.851 40.0154 100.462 40.92 99.4126C42.4731 97.6097 42.8259 98.12 39.8602 98.0831C38.616 98.0677 38.9326 100.723 37.9881 100.361C37.4763 100.165 37.849 98.7471 38.1856 98.3467C38.226 98.2739 38.252 98.1941 38.2625 98.1115C37.2298 97.9859 36.1888 97.9425 35.1492 97.9816C31.4919 97.8333 32.4471 97.6043 30.9931 99.9321C30.821 100.207 30.6811 100.421 30.356 100.277C29.7674 100.017 30.2408 99.4065 31.1176 97.9371C30.1847 97.7834 29.2924 97.6366 28.4025 97.4675C28.3291 97.4573 28.2609 97.424 28.2077 97.3725C28.1545 97.3209 28.1191 97.2538 28.1066 97.1808C28.0941 97.1078 28.1051 97.0327 28.1382 96.9664C28.1712 96.9001 28.2245 96.846 28.2903 96.812C29.3708 96.5422 28.693 96.7244 30.9347 96.9119C31.9415 96.9956 31.9007 96.8465 33.324 94.0377C29.855 93.7041 28.8928 93.7525 29.4961 93.1047C29.941 92.6274 30.5966 92.9802 31.3405 92.9971C34.0303 93.0586 33.9611 93.0739 34.1463 92.7458C34.3984 92.3031 34.7519 91.6099 35.1884 91.8013C35.721 92.0318 35.2899 92.4976 34.8964 93.1746C41.8475 93.1746 40.0638 93.8309 41.172 92.0718C41.461 91.6107 42.0451 92.0595 41.8245 92.4976C41.6938 92.7565 41.5939 93.0355 41.4625 93.3591C42.0773 93.3591 42.6284 93.3775 43.174 93.3544C46.5869 93.2077 46.331 93.8048 46.6822 93.303H46.6838ZM39.844 97.0064C45.0061 97.0064 43.4929 97.4998 45.8061 94.2867C41.9106 94.2867 42.3986 94.3351 41.9398 94.3043C41.0191 94.2413 41.3365 93.9339 39.844 97.0064ZM39.8832 123.914C40.7578 123.055 40.498 122.83 39.9163 121.95C38.8773 123.312 37.3948 124.153 36.1775 125.286C36.418 125.609 36.6386 125.901 36.8499 126.194C37.9845 125.614 39.0106 124.843 39.8832 123.914ZM39.0379 121.522C39.3307 121.16 39.25 121.179 39.0379 120.934C38.9887 120.876 38.546 120.487 38.3016 120.281C38.141 120.463 36.1345 122.388 34.7957 123.591L35.6126 124.543C36.282 123.893 38.1764 122.585 39.0363 121.522H39.0379ZM35.6303 96.9787C39.5243 96.8335 38.2548 98.266 40.1991 94.2121C38.3931 94.1353 37.6868 94.0584 34.619 94.1168C34.1963 94.1245 34.2839 94.1214 32.8952 96.8788C33.8028 96.9173 34.7189 97.0126 35.6303 96.9787ZM37.6492 119.58L36.7908 118.867L33.148 122.25C33.4232 122.48 33.7244 122.728 34.0702 123.014C35.2607 121.87 36.4396 120.739 37.6492 119.58ZM33.53 117.207C33.8729 117.153 34.1848 116.977 34.4082 116.711C34.6316 116.445 34.7515 116.107 34.7458 115.76C34.7296 115.418 34.5952 115.092 34.3655 114.838C34.1358 114.584 33.825 114.417 33.4862 114.366C33.1168 114.426 32.778 114.608 32.5236 114.883C32.2693 115.157 32.1139 115.509 32.0821 115.882C32.1157 116.243 32.283 116.58 32.5511 116.825C32.8193 117.069 33.1691 117.206 33.5323 117.207H33.53ZM31.7263 121.268C32.1643 121.226 32.5732 121.03 32.8806 120.716C33.1879 120.401 33.3739 119.987 33.4055 119.548C33.3696 119.173 33.1937 118.824 32.9126 118.572C32.6315 118.32 32.2659 118.183 31.8884 118.188C31.5024 118.23 31.1443 118.41 30.8801 118.694C30.6158 118.979 30.4631 119.349 30.4498 119.737C30.4258 120.108 30.5449 120.473 30.7824 120.758C31.02 121.042 31.3579 121.225 31.7263 121.268ZM31.1553 116.598C31.1461 116.378 31.0688 116.166 30.9341 115.991C30.7993 115.817 30.6137 115.689 30.4029 115.624C30.1533 115.674 29.9227 115.793 29.7373 115.967C29.552 116.141 29.4194 116.364 29.3547 116.61C29.3741 116.829 29.4704 117.034 29.6266 117.189C29.7827 117.344 29.9886 117.438 30.2077 117.456C30.4406 117.445 30.6624 117.353 30.8352 117.197C31.008 117.04 31.1212 116.829 31.1553 116.598ZM31.0016 113.201C31.0139 112.715 30.4759 112.061 30.0463 112.098C29.377 112.156 28.7491 112.432 28.7283 113.097C28.7023 113.256 28.7104 113.42 28.752 113.576C28.7936 113.732 28.8678 113.878 28.9697 114.003C29.0716 114.129 29.199 114.232 29.3433 114.305C29.4877 114.377 29.6459 114.419 29.8074 114.426C29.969 114.434 30.1303 114.407 30.2807 114.348C30.4312 114.288 30.5674 114.198 30.6804 114.082C30.7934 113.966 30.8806 113.828 30.9364 113.676C30.9921 113.524 31.0151 113.363 31.0039 113.201H31.0016ZM28.4102 119.683C28.5874 119.656 28.7514 119.573 28.8787 119.447C29.0059 119.321 29.0897 119.157 29.118 118.98C29.0969 118.808 29.0156 118.648 28.8884 118.529C28.7612 118.41 28.5962 118.34 28.4225 118.331C28.2363 118.348 28.061 118.425 27.9237 118.552C27.7865 118.679 27.6951 118.848 27.6639 119.032C27.6917 119.211 27.7821 119.375 27.9191 119.494C28.0561 119.613 28.2309 119.68 28.4125 119.683H28.4102ZM28.1074 115.67C28.081 115.439 28.0005 115.218 27.8723 115.025C27.7442 114.831 27.572 114.671 27.37 114.557C27.168 114.443 26.9419 114.378 26.71 114.368C26.4782 114.358 26.2473 114.403 26.0362 114.499C24.5392 115.443 25.124 117.461 26.5742 117.398C27.5195 117.357 28.0413 116.766 28.1097 115.67H28.1074ZM23.142 117.292C23.3188 117.145 23.3088 116.772 23.2004 116.341C23.1497 116.137 22.3382 116.236 21.1485 116.187C17.8585 116.06 11.4092 116.228 8.26601 115.783C8.20069 116.007 8.70176 119.586 8.70483 119.603C8.92078 120.947 9.81225 120.814 12.8548 120.832C18.9744 120.868 18.7185 120.857 18.9936 120.67C19.3149 120.457 23.1244 117.309 23.1443 117.292H23.142Z" fill="#000001"/>
<path d="M121.68 45.7233C121.479 50.9814 121.929 49.4321 121.73 60.6447C121.312 84.1495 122.948 82.2582 116.818 82.2582C116.818 82.1568 93.5582 82.033 30.4298 82.4534C28.5024 82.4665 28.4685 81.3191 28.4463 72.7202C28.4463 72.7026 28.2518 33.1643 28.3187 29.331C28.4724 20.4808 27.501 19.0061 32.7668 18.8209C34.8518 18.744 113.56 18.6049 118.558 18.9746C121.555 19.1944 121.573 19.7246 121.608 21.3754C121.928 36.0708 122.038 36.3928 121.68 45.7233ZM120.527 75.3501C120.887 52.9427 120.688 23.292 120.648 21.7081C120.652 21.4664 120.605 21.2264 120.51 21.0039C120.416 20.7814 120.275 20.5813 120.098 20.4165C119.921 20.2518 119.712 20.126 119.483 20.0475C119.254 19.9689 119.012 19.9393 118.771 19.9606C101.428 19.6862 57.5435 20.1873 43.5728 19.9045C42.7275 19.8875 41.8767 19.9813 41.0298 19.9767C32.434 19.8952 29.5936 19.4387 29.5022 21.3838C29.2332 26.9886 29.443 67.4098 29.6905 80.2309C29.712 81.3483 29.5452 81.5005 34.8103 81.3836C42.3278 81.2192 105.226 81.0762 115.694 81.2299C121.42 81.316 120.428 81.4313 120.527 75.3501Z" fill="#000001"/>
<path d="M112.227 55.2468C112.342 56.355 112.401 61.8506 112.332 64.8009C112.303 66.0444 112.365 66.7222 110.831 66.8559C108.944 67.0219 87.8848 66.872 82.5391 66.9074C60.4829 67.0542 49.0674 67.0227 42.884 66.9773C37.785 66.9404 37.8518 66.9443 37.8119 64.3844C37.7934 63.1386 37.7742 56.4065 37.8756 55.3114C38.0785 53.1311 38.2315 53.9865 62.8207 53.8166C80.0998 53.6967 100.994 53.7144 107.218 53.7459C111.971 53.7697 112.074 53.7159 112.227 55.2468ZM111.536 64.0163C111.613 62.1918 111.555 58.8127 111.41 55.7932C111.367 54.871 111.426 54.6212 110.22 54.539C109.144 54.4622 96.2393 54.4675 94.2927 54.4622C74.3514 54.4061 83.1785 54.7096 57.3328 54.539C47.1692 54.4706 41.9972 54.5321 39.9698 54.6512C39.1137 54.7012 38.7533 54.6996 38.6856 55.5104C38.5727 56.8684 38.5519 62.0427 38.605 64.2799C38.638 65.7139 38.5611 66.1389 40.3802 66.1911C40.4571 66.1911 109.525 66.2265 110.918 65.9775C111.653 65.8476 111.508 64.7218 111.536 64.0163Z" fill="#000001"/>
<path d="M88.6121 62.6124C88.6735 62.942 88.6805 63.2795 88.6329 63.6114C88.6052 63.8113 88.4684 63.7605 88.37 63.7651C87.9858 63.7897 82.3026 63.8282 81.9322 63.7967C81.8323 63.7882 81.6333 63.7905 81.6333 63.5907C81.5881 63.2776 81.564 62.9618 81.561 62.6454C81.5718 62.5079 81.6064 62.4218 81.7147 62.3957C82.0629 62.3119 88.0642 62.3442 88.4615 62.3957C88.5768 62.4133 88.586 62.4764 88.6121 62.6124Z" fill="#000001"/>
<path d="M82.6316 34.6217C83.0103 36.2536 83.024 37.9489 82.6716 39.5867C82.3193 41.2244 81.6097 42.7642 80.5935 44.0959C79.0173 46.3707 76.4589 47.5542 72.9084 47.6095C71.4926 47.6423 70.0843 47.3947 68.7646 46.881C66.4331 45.9189 64.5533 44.1083 63.5044 41.8146C62.4555 39.5209 62.3157 36.9147 63.113 34.5218C63.9756 32.0955 65.6412 30.0367 67.8339 28.6865C70.7796 26.8706 75.4345 27.2425 77.3834 28.4183C79.3324 29.5942 81.9653 31.4247 82.6316 34.6217ZM81.9015 38.2998C82.1428 36.045 81.4696 33.3591 80.2331 31.9535C79.1571 30.73 76.804 28.7311 74.3924 28.5459C70.8196 28.2708 69.331 28.7311 67.2883 30.3903C66.3548 31.1627 65.5251 32.0526 64.8198 33.0378C63.3235 35.0944 63.2528 38.1469 64.1704 40.6684C65.596 44.5832 68.6524 46.6036 72.7193 46.6704C78.2795 46.7657 81.3827 43.1345 81.9015 38.2998Z" fill="#000001"/>
<path d="M78.5806 62.6128C78.6376 62.9429 78.6441 63.2798 78.5998 63.6119C78.5729 63.8117 78.4369 63.7609 78.3393 63.7656C77.955 63.7901 72.2681 63.8286 71.8992 63.7971C71.8016 63.7886 71.6018 63.7909 71.6018 63.5911C71.5558 63.278 71.5302 62.9622 71.5249 62.6458C71.5357 62.5083 71.5702 62.423 71.6824 62.3961C72.029 62.3131 78.0319 62.3453 78.4277 62.3961C78.5452 62.4137 78.5498 62.4775 78.5806 62.6128Z" fill="#000001"/>
<path d="M74.6661 15.3851C75.5883 16.3073 75.0326 17.9835 73.75 17.6199C71.695 17.0397 73.388 14.1032 74.6661 15.3851Z" fill="#000001"/>
<path d="M72.8608 31.287C74.274 31.2739 75.4045 32.1493 75.5682 34.3956C75.5859 34.6385 75.5774 34.6869 75.7127 34.693C76.7448 34.7422 76.774 34.6162 76.9031 35.2986C76.9346 35.4623 77.5494 40.6129 77.74 41.8394C77.8338 42.4435 77.6178 42.6594 77.2843 42.6794C77.1306 42.6886 70.3485 42.7194 68.7262 42.6917C67.6948 42.674 67.9239 42.0484 68.0268 41.3084C68.2835 39.4547 68.7515 35.4446 68.7661 35.3009C68.8215 34.763 69.049 34.7461 69.331 34.7315C70.1495 34.6892 70.0764 34.753 70.0995 34.3979C70.2363 32.5558 71.024 31.3039 72.8608 31.287ZM74.0996 41.1501C74.4631 41.137 74.5 40.9502 74.3978 40.629C74.2441 40.1594 73.962 39.0351 73.7192 38.3542C73.7096 38.3274 73.7102 38.2979 73.7208 38.2714C73.7314 38.245 73.7513 38.2233 73.7768 38.2105C73.9823 38.1002 74.1489 37.9293 74.2538 37.7209C74.3587 37.5126 74.3969 37.277 74.3632 37.0462C74.2487 36.1955 73.7876 35.8005 72.787 35.8166C72.4934 35.7795 72.1958 35.8426 71.9426 35.9958C71.6893 36.149 71.4952 36.3832 71.3918 36.6605C71.2883 36.9378 71.2815 37.2419 71.3726 37.5235C71.4636 37.8051 71.647 38.0478 71.8932 38.212C71.9188 38.2247 71.9389 38.2464 71.9495 38.2729C71.9601 38.2994 71.9606 38.3289 71.9508 38.3558C71.7041 39.0359 71.4229 40.1602 71.2722 40.6305C71.1593 40.9841 71.1954 41.1508 71.6719 41.1547C71.9232 41.1554 73.8529 41.1593 74.0996 41.1501ZM73.5486 34.703C73.7361 34.6992 74.1396 34.7484 74.1296 34.5294C74.0896 33.6778 73.9697 32.8909 73.1182 32.7103C72.9315 32.6703 72.7385 32.6703 72.5518 32.7103C71.6995 32.8917 71.5804 33.6748 71.5405 34.5294C71.5305 34.7484 71.9339 34.6992 72.1214 34.703C72.3336 34.7069 73.3365 34.7069 73.5486 34.703Z" fill="#000001"/>
<path d="M68.5476 62.6124C68.609 62.942 68.616 63.2795 68.5684 63.6114C68.5415 63.8113 68.4047 63.7605 68.3063 63.7651C67.9221 63.7897 62.2351 63.8282 61.867 63.7967C61.7686 63.7882 61.5688 63.7905 61.5688 63.5907C61.5237 63.2776 61.4995 62.9618 61.4966 62.6454C61.5081 62.5079 61.5419 62.4218 61.6503 62.3957C61.9984 62.3119 67.9997 62.3442 68.397 62.3957C68.5123 62.4133 68.5215 62.4764 68.5476 62.6124Z" fill="#000001"/>
<path d="M58.2688 60.2304C58.3295 60.5601 58.3363 60.8975 58.2888 61.2294C58.2627 61.4277 58.1267 61.3831 58.0268 61.3831C57.5209 61.4045 57.0142 61.394 56.5097 61.3516C56.4244 61.3455 56.4137 61.4116 56.4475 61.4408C56.4813 61.47 56.5397 61.503 56.5927 61.5453C56.9748 61.8442 57.3232 62.1839 57.6318 62.5582C57.6986 62.8141 57.5149 62.9532 57.0485 63.3651C56.5213 63.8301 56.5712 63.6487 55.5345 62.4329C55.5309 62.4286 55.5261 62.4256 55.5206 62.4242C55.5152 62.4229 55.5095 62.4233 55.5043 62.4255C55.4992 62.4276 55.4948 62.4314 55.492 62.4362C55.4891 62.441 55.4878 62.4466 55.4884 62.4521C55.5137 62.9732 55.5061 63.5473 55.513 63.8939C55.5183 64.1498 55.4599 64.1306 55.2963 64.1667C55.0446 64.2034 54.7896 64.2114 54.5362 64.1905C54.2288 64.1636 54.0574 64.232 54.0543 63.9423C54.0538 63.4477 54.0699 62.9533 54.1028 62.4598C54.103 62.4537 54.1013 62.4477 54.098 62.4427C54.0947 62.4376 54.0898 62.4337 54.0841 62.4315C54.0785 62.4293 54.0723 62.4289 54.0664 62.4304C54.0605 62.4319 54.0552 62.4352 54.0513 62.4398C53.0138 63.641 53.1191 63.794 52.5949 63.3321C52.1285 62.9202 51.9432 62.7811 52.0101 62.5236C52.3016 62.161 52.6334 61.8328 52.9992 61.5453C53.0522 61.5038 53.1114 61.4723 53.1444 61.4408C53.1775 61.4093 53.1659 61.3347 53.0822 61.3516C52.5883 61.4279 52.0875 61.449 51.589 61.4146C51.4906 61.407 51.2892 61.4085 51.2892 61.2072C51.2439 60.8938 51.2201 60.5777 51.2178 60.2611C51.2285 60.1243 51.2623 60.0383 51.3715 60.0114C51.8896 59.9637 52.4104 59.9535 52.93 59.9806C52.9907 59.9806 53.0499 59.9353 53.013 59.8899C52.92 59.7777 52.5458 59.5718 51.9763 59.1268C51.5413 58.7871 51.4629 58.6918 51.7081 58.386C52.4105 57.5075 52.3828 57.5475 52.6633 57.7074C53.1035 58.0112 53.5245 58.342 53.9237 58.698C53.9321 58.7045 53.9421 58.7086 53.9527 58.7096C53.9632 58.7107 53.9739 58.7087 53.9834 58.704C53.9929 58.6992 54.0008 58.6919 54.0063 58.6828C54.0118 58.6737 54.0146 58.6632 54.0144 58.6526C53.9652 57.0626 53.9214 57.0341 54.2096 56.9657C54.5984 56.9365 54.9889 56.9365 55.3777 56.9657C55.6905 57.0426 55.5975 57.091 55.5714 58.6526C55.5714 58.6631 55.5744 58.6734 55.58 58.6823C55.5855 58.6912 55.5934 58.6984 55.6028 58.7031C55.6122 58.7078 55.6227 58.7098 55.6332 58.7089C55.6436 58.708 55.6536 58.7042 55.6621 58.698C56.0612 58.3409 56.483 58.0101 56.9247 57.7074C57.2452 57.5245 57.2014 57.5729 57.8792 58.386C58.1305 58.6872 58.046 58.7871 57.611 59.1268C57.0415 59.5718 56.6035 59.7762 56.5105 59.8899C56.3568 60.0805 57.5349 59.9414 58.1182 60.0167C58.2327 60.0329 58.2419 60.0982 58.2688 60.2304Z" fill="#000001"/>
<path d="M47.9911 60.2304C48.047 60.5606 48.0532 60.8974 48.0095 61.2294C47.9834 61.4277 47.8474 61.3831 47.749 61.3831C47.2429 61.4045 46.736 61.394 46.2312 61.3516C46.1451 61.3455 46.1359 61.4116 46.1689 61.4408C46.202 61.47 46.2604 61.5038 46.3134 61.5453C46.6958 61.8442 47.0444 62.1838 47.3532 62.5582C47.4193 62.8141 47.2356 62.9532 46.7692 63.3651C46.242 63.8301 46.2934 63.6487 45.256 62.4329C45.2526 62.4284 45.2477 62.4251 45.2423 62.4236C45.2368 62.4222 45.231 62.4226 45.2258 62.4248C45.2205 62.427 45.2162 62.4309 45.2135 62.4358C45.2107 62.4408 45.2097 62.4465 45.2106 62.4521C45.2506 62.9724 45.2275 63.5473 45.2337 63.8939C45.2383 64.1498 45.1806 64.1306 45.017 64.1667C44.7653 64.2034 44.5103 64.2114 44.2569 64.1905C43.9495 64.1636 43.7781 64.232 43.775 63.9423C43.7712 63.588 43.7935 62.8725 43.8235 62.4598C43.8237 62.4537 43.822 62.4477 43.8187 62.4427C43.8154 62.4376 43.8105 62.4337 43.8048 62.4315C43.7992 62.4293 43.793 62.4289 43.7871 62.4304C43.7812 62.4319 43.7759 62.4352 43.772 62.4398C42.7345 63.641 42.8405 63.794 42.3164 63.3321C41.8492 62.9202 41.6647 62.7811 41.7308 62.5236C42.0226 62.161 42.3546 61.8328 42.7206 61.5453C42.7737 61.5038 42.8329 61.4723 42.8651 61.4408C42.8974 61.4093 42.8874 61.3347 42.8029 61.3516C42.309 61.4279 41.8082 61.449 41.3097 61.4146C41.2113 61.407 41.0099 61.4085 41.0099 61.2072C40.9662 60.8936 40.9423 60.5777 40.9385 60.2611C40.9492 60.1243 40.9838 60.0383 41.0922 60.0114C41.6103 59.9637 42.1311 59.9535 42.6507 59.9806C42.7114 59.9806 42.7706 59.9353 42.7337 59.8899C42.6415 59.7777 42.2672 59.5718 41.6978 59.1268C41.262 58.7871 41.1783 58.6872 41.4288 58.386C42.1158 57.5629 42.0682 57.5275 42.384 57.7074C42.8257 58.0102 43.2474 58.3411 43.6467 58.698C43.6549 58.7045 43.6648 58.7085 43.6752 58.7095C43.6857 58.7105 43.6962 58.7085 43.7055 58.7037C43.7148 58.699 43.7226 58.6916 43.7278 58.6825C43.733 58.6735 43.7356 58.6631 43.7351 58.6526C43.6882 57.0549 43.6444 57.0334 43.9303 56.9657C44.3194 56.9365 44.7101 56.9365 45.0992 56.9657C45.3782 57.0318 45.342 57.0318 45.2944 58.6526C45.2939 58.6631 45.2964 58.6735 45.3017 58.6825C45.3069 58.6916 45.3147 58.699 45.324 58.7037C45.3333 58.7085 45.3438 58.7105 45.3542 58.7095C45.3646 58.7085 45.3746 58.7045 45.3828 58.698C45.782 58.3411 46.2038 58.0102 46.6454 57.7074C46.9328 57.5437 46.9036 57.5145 47.5999 58.386C47.8451 58.6934 47.7674 58.7871 47.3317 59.1268C46.7622 59.5718 46.3257 59.7777 46.2335 59.8899C46.0798 60.0797 47.2564 59.9414 47.8389 60.0167C47.955 60.0336 47.9596 60.099 47.9911 60.2304Z" fill="#000001"/>
</svg>
