<svg width="156" height="156" viewBox="0 0 156 156" fill="none" xmlns="http://www.w3.org/2000/svg">
<path d="M73.9623 124.537C99.1254 124.537 119.525 103.62 119.525 77.818C119.525 52.0158 99.1254 31.0989 73.9623 31.0989C48.7989 31.0989 28.3999 52.0158 28.3999 77.818C28.3999 103.62 48.7989 124.537 73.9623 124.537Z" fill="white"/>
<path d="M73.9622 114.67C54.136 114.67 38.0083 98.1375 38.0083 77.8157C38.0083 57.4939 54.136 40.9613 73.9622 40.9613C93.7885 40.9613 109.915 57.4939 109.915 77.8157C109.915 98.1375 93.7877 114.67 73.9622 114.67ZM73.9622 42.1149C54.7716 42.1149 39.1596 58.1311 39.1596 77.8157C39.1596 97.5002 54.7716 113.521 73.9622 113.521C93.1528 113.521 108.764 97.5049 108.764 77.8195C108.764 58.1342 93.1528 42.1149 73.9622 42.1149Z" fill="black"/>
<path d="M55.1117 44.8565C55.1959 44.8559 55.2784 44.8334 55.3512 44.7912C55.4241 44.7489 55.4846 44.6884 55.527 44.6157C55.5693 44.5429 55.592 44.4605 55.5928 44.3763C55.5935 44.2921 55.5723 44.2092 55.5314 44.1357L54.092 41.5807C54.0609 41.5254 54.0193 41.4768 53.9695 41.4376C53.9196 41.3985 53.8626 41.3695 53.8015 41.3524C53.7405 41.3353 53.6767 41.3303 53.6137 41.3379C53.5508 41.3454 53.4899 41.3653 53.4347 41.3964C53.3794 41.4274 53.3308 41.4691 53.2916 41.5189C53.2524 41.5688 53.2235 41.6259 53.2064 41.6869C53.1893 41.748 53.1844 41.8118 53.1919 41.8747C53.1995 41.9377 53.2193 41.9984 53.2504 42.0537L54.6898 44.6087C54.7316 44.6839 54.7928 44.7465 54.867 44.79C54.9412 44.8336 55.0256 44.8565 55.1117 44.8565Z" fill="black"/>
<path d="M38.3282 67.7504L32.831 66.2406C32.7685 66.2185 32.7021 66.2094 32.6359 66.2141C32.5697 66.2187 32.5052 66.2369 32.4463 66.2676C32.3875 66.2982 32.3356 66.3407 32.2939 66.3923C32.2522 66.444 32.2215 66.5036 32.2039 66.5675C32.1863 66.6315 32.182 66.6984 32.1913 66.7641C32.2007 66.8298 32.2235 66.8929 32.2583 66.9494C32.2931 67.0058 32.3392 67.0546 32.3936 67.0925C32.4481 67.1304 32.5097 67.1567 32.5748 67.1697L38.0719 68.6803C38.1909 68.7021 38.3137 68.6786 38.4162 68.6143C38.5186 68.5502 38.5933 68.4499 38.6255 68.3334C38.6578 68.2168 38.6452 68.0924 38.5904 67.9847C38.5355 67.8769 38.4423 67.7936 38.329 67.7512L38.3282 67.7504Z" fill="black"/>
<path d="M32.2502 78.5388H37.0049C37.133 78.5388 37.2559 78.4877 37.3465 78.3972C37.4371 78.3066 37.488 78.1835 37.488 78.0557C37.488 77.928 37.4371 77.8048 37.3465 77.7143C37.2559 77.6237 37.133 77.5726 37.0049 77.5726H32.2502C32.1221 77.5726 31.9992 77.6237 31.9085 77.7143C31.818 77.8048 31.7671 77.928 31.7671 78.0557C31.7671 78.1835 31.818 78.3066 31.9085 78.3972C31.9992 78.4877 32.1221 78.5388 32.2502 78.5388Z" fill="black"/>
<path d="M37.1187 80.8786L30.7698 81.4492C30.7067 81.4547 30.6453 81.4732 30.5891 81.5027C30.5329 81.5313 30.4831 81.5716 30.4424 81.6203C30.4018 81.6691 30.3711 81.7256 30.3521 81.786C30.3332 81.8464 30.3264 81.9099 30.332 81.9734C30.3377 82.0361 30.3556 82.0973 30.385 82.1538C30.4144 82.2096 30.4546 82.2599 30.5032 82.3001C30.5518 82.3412 30.608 82.3721 30.6685 82.3907C30.729 82.4093 30.7926 82.4163 30.8558 82.4109L37.2046 81.841C37.3309 81.8278 37.4468 81.7659 37.5275 81.6676C37.6083 81.57 37.6472 81.4446 37.6361 81.3176C37.6248 81.1914 37.5644 81.0745 37.4677 80.9924C37.3711 80.9104 37.246 80.8693 37.1195 80.8786H37.1187Z" fill="black"/>
<path d="M53.1744 108.566C53.0687 108.494 52.9385 108.466 52.8126 108.49C52.6867 108.514 52.5754 108.586 52.5031 108.692L50.8911 111.053C50.8265 111.159 50.8051 111.285 50.8311 111.406C50.8572 111.527 50.9289 111.633 51.0314 111.703C51.1338 111.773 51.2591 111.801 51.3812 111.781C51.5035 111.76 51.6132 111.694 51.6879 111.595L53.3006 109.234C53.3721 109.129 53.3989 108.999 53.3753 108.874C53.3516 108.749 53.2794 108.638 53.1744 108.566Z" fill="black"/>
<path d="M55.8525 110.3C55.741 110.237 55.6091 110.222 55.4859 110.256C55.3627 110.29 55.2581 110.372 55.1951 110.484L54.0469 112.522C53.9886 112.633 53.9759 112.762 54.0115 112.883C54.0471 113.003 54.1283 113.105 54.2378 113.166C54.3472 113.228 54.4765 113.245 54.5979 113.213C54.7194 113.181 54.8236 113.103 54.8885 112.995L56.036 110.958C56.0987 110.846 56.1145 110.714 56.0802 110.591C56.0457 110.467 55.9639 110.363 55.8525 110.3Z" fill="black"/>
<path d="M80.8566 115.063C80.8458 115 80.8233 114.94 80.7893 114.887C80.7552 114.833 80.7111 114.787 80.6592 114.75C80.6081 114.713 80.5492 114.688 80.4873 114.673C80.4254 114.659 80.3619 114.658 80.2992 114.668C80.2364 114.679 80.1768 114.702 80.1234 114.736C80.07 114.77 80.0235 114.814 79.9864 114.866C79.95 114.917 79.9236 114.976 79.9097 115.038C79.8958 115.1 79.8942 115.163 79.9051 115.226L80.3696 117.928C80.3805 117.991 80.4029 118.05 80.437 118.105C80.4703 118.158 80.5144 118.204 80.5663 118.241C80.6181 118.278 80.6762 118.304 80.7382 118.318C80.8001 118.332 80.8644 118.334 80.9271 118.323C80.9898 118.312 81.0494 118.29 81.1028 118.256C81.1563 118.222 81.2027 118.177 81.2399 118.126C81.2763 118.074 81.3018 118.015 81.3157 117.953C81.3297 117.891 81.3312 117.827 81.3204 117.765L80.8566 115.063Z" fill="black"/>
<path d="M81.5902 33.9497C81.5275 33.9389 81.464 33.9406 81.4021 33.9546C81.3401 33.9686 81.2821 33.9946 81.2302 34.0312C81.1783 34.0679 81.1342 34.1143 81.1009 34.168C81.0668 34.2215 81.0444 34.2813 81.0335 34.3438L80.305 38.5728C80.2941 38.6352 80.2957 38.6993 80.3096 38.7612C80.3235 38.8231 80.3491 38.8817 80.3863 38.9336C80.4226 38.9854 80.4691 39.0296 80.5225 39.0635C80.576 39.0974 80.6356 39.1204 80.6983 39.1311C80.761 39.1418 80.8253 39.1401 80.8872 39.1261C80.9491 39.1121 81.0072 39.0859 81.0591 39.0492C81.111 39.0125 81.1551 38.966 81.1884 38.9123C81.2225 38.8585 81.2449 38.7987 81.2557 38.7361L81.9843 34.5072C81.9952 34.4447 81.9936 34.3806 81.9797 34.3188C81.9657 34.2568 81.9394 34.1983 81.903 34.1465C81.8666 34.0947 81.8202 34.0507 81.766 34.0169C81.7126 33.9831 81.6529 33.9603 81.5902 33.9497Z" fill="black"/>
<path d="M77.55 36.4885C77.4868 36.483 77.4232 36.4902 77.3627 36.5094C77.3022 36.5286 77.2462 36.5595 77.1977 36.6005C77.1492 36.6414 77.1093 36.6915 77.0802 36.7478C77.0511 36.8042 77.0334 36.8657 77.0281 36.929L76.7649 40.026C76.7596 40.0891 76.7668 40.1528 76.786 40.2131C76.8052 40.2735 76.8361 40.3294 76.877 40.3779C76.9179 40.4263 76.9679 40.4662 77.0242 40.4953C77.0805 40.5244 77.142 40.5421 77.2051 40.5475C77.3326 40.5582 77.4592 40.5179 77.557 40.4354C77.6053 40.3945 77.6453 40.3445 77.6744 40.2882C77.7034 40.2319 77.7212 40.1704 77.7265 40.1073L77.9905 37.0103C78.0013 36.8827 77.9609 36.756 77.8783 36.6582C77.7957 36.5603 77.6776 36.4993 77.55 36.4885Z" fill="black"/>
<path d="M74.0046 34.5884C73.8765 34.5884 73.7536 34.6393 73.663 34.73C73.5724 34.8206 73.5215 34.9434 73.5215 35.0716V38.253C73.5215 38.3811 73.5724 38.504 73.663 38.5946C73.7536 38.6852 73.8765 38.7361 74.0046 38.7361C74.1328 38.7361 74.2556 38.6852 74.3463 38.5946C74.4369 38.504 74.4878 38.3811 74.4878 38.253V35.0716C74.4878 35.0082 74.4753 34.9453 74.451 34.8867C74.4267 34.8281 74.3911 34.7748 74.3463 34.73C74.3014 34.6851 74.2481 34.6495 74.1895 34.6252C74.1309 34.6009 74.0681 34.5884 74.0046 34.5884Z" fill="black"/>
<path d="M110.011 44.4516C99.3137 33.482 87.0286 30.5213 73.9623 30.5213C48.5189 30.5213 27.8247 51.6514 27.8247 77.818C27.8247 103.84 48.3602 125.115 73.9623 125.115C87.3995 125.115 99.5126 121.955 110.011 111.187C118.658 102.231 123.491 90.268 123.491 77.8195C123.491 65.37 118.658 53.4071 110.011 44.4516ZM108.64 107.219L104.907 104.006C104.81 103.922 104.684 103.881 104.556 103.89C104.428 103.899 104.31 103.96 104.226 104.057C104.143 104.153 104.102 104.28 104.111 104.407C104.12 104.535 104.181 104.654 104.277 104.737L108.028 107.964C107.385 108.725 106.716 109.468 106.021 110.193L102.55 106.631C102.461 106.539 102.339 106.486 102.21 106.485C102.082 106.483 101.959 106.533 101.866 106.622C101.774 106.712 101.722 106.833 101.72 106.962C101.718 107.09 101.768 107.213 101.857 107.305L105.341 110.882C104.634 111.59 103.907 112.271 103.162 112.925L99.6698 108.657C99.6296 108.608 99.58 108.567 99.5243 108.537C99.4685 108.507 99.4073 108.488 99.3438 108.482C99.2811 108.475 99.2177 108.481 99.1565 108.5C99.0961 108.518 99.0396 108.548 98.99 108.588C98.9412 108.629 98.9002 108.678 98.87 108.734C98.8398 108.79 98.8212 108.851 98.815 108.914C98.8081 108.977 98.8143 109.04 98.8329 109.102C98.8507 109.162 98.8809 109.219 98.9211 109.268L102.428 113.555C100.664 115.041 98.7872 116.389 96.8159 117.587L95.3046 114.902C95.2395 114.794 95.1358 114.716 95.0142 114.684C94.8927 114.652 94.7634 114.668 94.6542 114.73C94.5443 114.792 94.463 114.894 94.4274 115.014C94.3917 115.135 94.4049 115.264 94.463 115.375L95.9852 118.078C95.1273 118.574 94.2547 119.038 93.3682 119.472L91.9227 116.294C91.87 116.178 91.7725 116.086 91.6524 116.041C91.5332 115.996 91.4 116.001 91.2839 116.054C91.167 116.107 91.0764 116.204 91.0315 116.324C90.9866 116.444 90.9912 116.576 91.0439 116.693L92.4972 119.888C91.6029 120.3 90.6955 120.685 89.7757 121.041L87.8269 115.549C87.782 115.43 87.6929 115.334 87.5783 115.281C87.4637 115.228 87.3329 115.222 87.2137 115.264C87.0944 115.306 86.9961 115.394 86.9411 115.507C86.8854 115.621 86.8769 115.752 86.9163 115.872L88.8706 121.377C87.9446 121.71 87.0077 122.011 86.06 122.281L84.6323 116.815C84.5967 116.695 84.5154 116.594 84.4062 116.533C84.2978 116.472 84.1693 116.455 84.0477 116.486C83.927 116.518 83.8224 116.595 83.7574 116.702C83.6924 116.809 83.6707 116.936 83.6978 117.059L85.1286 122.535C84.1801 122.782 83.2224 122.998 82.2538 123.182L81.8233 120.679C81.8125 120.616 81.79 120.557 81.756 120.502C81.7227 120.449 81.6785 120.403 81.6267 120.366C81.5748 120.329 81.5167 120.303 81.4548 120.289C81.3928 120.275 81.3286 120.273 81.2659 120.284C81.2031 120.295 81.1435 120.317 81.0901 120.351C81.0367 120.386 80.9902 120.43 80.9538 120.482C80.9167 120.533 80.8911 120.592 80.8772 120.654C80.8632 120.716 80.8617 120.78 80.8725 120.842L81.3038 123.352C80.3391 123.513 79.3666 123.642 78.3864 123.739L77.9528 118.662C77.9387 118.537 77.8763 118.423 77.779 118.343C77.6817 118.263 77.5571 118.225 77.4318 118.235C77.3064 118.246 77.1902 118.305 77.1078 118.4C77.0254 118.495 76.9833 118.619 76.9904 118.744L77.4248 123.824C75.1479 124 72.8608 124.002 70.5835 123.83L70.7926 121.372C70.8004 121.308 70.795 121.242 70.7769 121.179C70.7587 121.117 70.7281 121.058 70.687 121.008C70.6458 120.958 70.5949 120.917 70.5373 120.886C70.4797 120.856 70.4165 120.838 70.3517 120.832C70.2868 120.828 70.2216 120.835 70.1598 120.856C70.0981 120.876 70.0412 120.91 69.9925 120.952C69.9438 120.996 69.9043 121.048 69.8765 121.107C69.8486 121.166 69.8329 121.229 69.8302 121.295L69.6211 123.75C68.6405 123.654 67.6675 123.525 66.7022 123.363L67.6832 117.661C67.7008 117.596 67.7046 117.528 67.6943 117.461C67.684 117.395 67.6599 117.331 67.6236 117.275C67.5872 117.218 67.5393 117.169 67.483 117.132C67.4268 117.095 67.3634 117.07 67.297 117.059C67.2305 117.048 67.1625 117.051 67.0972 117.068C67.032 117.085 66.971 117.115 66.9182 117.157C66.8654 117.199 66.8219 117.251 66.7905 117.311C66.7593 117.371 66.7407 117.436 66.7363 117.503L65.753 123.199C62.2123 122.533 58.7675 121.432 55.4972 119.921L57.58 115.34C57.6062 115.282 57.6208 115.22 57.623 115.156C57.6252 115.093 57.6148 115.03 57.5926 114.97C57.5703 114.912 57.5366 114.857 57.4933 114.81C57.45 114.764 57.3981 114.727 57.3403 114.701C57.2827 114.675 57.2203 114.66 57.157 114.658C57.0937 114.655 57.0305 114.666 56.9712 114.688C56.9118 114.71 56.8574 114.744 56.8111 114.787C56.7648 114.83 56.7274 114.882 56.7012 114.94L54.6254 119.508C53.7381 119.074 52.8643 118.609 52.0038 118.115L53.4029 115.63C53.4613 115.519 53.474 115.389 53.4383 115.269C53.4027 115.149 53.3215 115.046 53.212 114.985C53.1025 114.923 52.9734 114.907 52.8519 114.939C52.7304 114.97 52.6261 115.049 52.5613 115.156L51.1738 117.625C48.0671 115.741 45.1978 113.492 42.6276 110.923L46.2666 107.187C46.356 107.095 46.4051 106.97 46.403 106.842C46.4009 106.713 46.3478 106.591 46.2554 106.502C46.163 106.412 46.0389 106.363 45.9103 106.365C45.7817 106.367 45.6592 106.42 45.5698 106.513L41.9424 110.234C41.2461 109.511 40.5751 108.769 39.9294 108.006L42.1925 106.06C42.2896 105.976 42.3494 105.858 42.359 105.73C42.3686 105.602 42.3271 105.476 42.2436 105.379C42.1601 105.282 42.0416 105.222 41.9139 105.213C41.7863 105.203 41.6601 105.244 41.563 105.328L39.3138 107.264C31.8699 98.0414 28.2125 86.3324 29.0836 74.5127L37.0724 75.2297C37.199 75.239 37.324 75.1981 37.4207 75.1159C37.5173 75.0337 37.5778 74.9168 37.5889 74.7904C37.6002 74.6641 37.5612 74.5383 37.4805 74.4405C37.3997 74.3426 37.2837 74.2804 37.1575 74.2673L29.1595 73.5495C29.2509 72.5291 29.3745 71.515 29.5304 70.5075L35.3574 71.5613C35.4199 71.5725 35.484 71.5713 35.546 71.5578C35.608 71.5442 35.6668 71.5187 35.7189 71.4824C35.771 71.4462 35.8155 71.4001 35.8498 71.3466C35.8841 71.2932 35.9075 71.2335 35.9187 71.171C35.93 71.1086 35.9288 71.0445 35.9153 70.9824C35.9018 70.9204 35.8761 70.8617 35.8399 70.8095C35.8037 70.7574 35.7575 70.713 35.7041 70.6787C35.6507 70.6444 35.591 70.6209 35.5285 70.6097L29.6876 69.5544C30.9193 62.4489 33.8018 55.7317 38.103 49.9433C42.4042 44.1549 48.0041 39.457 54.452 36.2275L56.4875 40.705C56.5137 40.7627 56.5511 40.8147 56.5974 40.8579C56.6437 40.9012 56.6981 40.935 56.7575 40.9572C56.8168 40.9795 56.88 40.9898 56.9433 40.9876C57.0066 40.9855 57.069 40.9709 57.1266 40.9447C57.1844 40.9184 57.2364 40.8811 57.2796 40.8348C57.3229 40.7885 57.3566 40.7341 57.3789 40.6748C57.4011 40.6154 57.4115 40.5522 57.4093 40.4889C57.4071 40.4255 57.3925 40.3632 57.3663 40.3055L55.3222 35.8087C56.2142 35.3921 57.1115 35.0058 58.0778 34.6303L60.1551 40.4844C60.1981 40.6052 60.2872 40.7039 60.4029 40.7589C60.5186 40.814 60.6515 40.8207 60.7722 40.7778C60.893 40.7349 60.9917 40.6458 61.0468 40.53C61.1018 40.4143 61.1086 40.2815 61.0656 40.1607L58.9814 34.2911C64.8946 32.152 71.1978 31.3058 77.4658 31.8097L77.2452 34.3864C77.2401 34.5111 77.2836 34.6329 77.3663 34.7263C77.4491 34.8198 77.5648 34.8775 77.6892 34.8875C77.8136 34.8975 77.937 34.859 78.0337 34.7801C78.1304 34.701 78.1926 34.5877 78.2076 34.4638L78.4275 31.8917C80.7278 32.1221 83.0056 32.534 85.2409 33.1236L83.7148 38.9661C83.687 39.0885 83.7079 39.2171 83.7729 39.3245C83.8379 39.4318 83.9424 39.5096 84.064 39.5413C84.1856 39.5731 84.3141 39.5562 84.424 39.4943C84.5332 39.4325 84.6137 39.3305 84.6493 39.2099L86.1715 33.3798C90.9541 34.7576 95.4687 36.9377 99.5212 39.827L96.2623 44.6127C96.1981 44.7184 96.1764 44.8449 96.2027 44.966C96.2283 45.0871 96.3003 45.1934 96.4025 45.2631C96.5047 45.3327 96.6301 45.3604 96.7524 45.3402C96.8748 45.32 96.9847 45.2536 97.059 45.1546L100.305 40.3992C101.108 40.9954 101.892 41.6204 102.658 42.2744L99.182 46.5235C99.1007 46.6228 99.0628 46.7502 99.076 46.8777C99.0884 47.0052 99.1518 47.1223 99.2509 47.2033C99.3501 47.2843 99.4778 47.3226 99.6048 47.3097C99.7325 47.2968 99.8494 47.2337 99.9307 47.1344L103.388 42.9093C104.136 43.5752 104.865 44.2681 105.577 44.9882L99.8835 50.8253C99.8177 50.8937 99.7736 50.9799 99.7565 51.0733C99.7387 51.1666 99.7496 51.263 99.7867 51.3504C99.8239 51.4378 99.8851 51.5123 99.9648 51.5649C100.044 51.6175 100.136 51.6457 100.231 51.646C100.546 51.646 100.355 51.7234 106.248 45.6842C106.945 46.4198 107.616 47.1749 108.261 47.9497L104.804 50.9236C104.728 50.9875 104.674 51.0732 104.648 51.1691C104.623 51.265 104.627 51.3665 104.661 51.4596C104.695 51.5528 104.758 51.633 104.839 51.6895C104.922 51.746 105.018 51.776 105.117 51.7753C105.376 51.7753 105.162 51.8937 108.871 48.703C112.937 53.8483 115.878 59.7886 117.505 66.1408C119.134 72.493 119.412 79.1156 118.322 85.5822L112.761 84.5757C112.698 84.5633 112.633 84.5633 112.57 84.5757C112.507 84.588 112.447 84.6136 112.394 84.65C112.34 84.6856 112.296 84.7321 112.26 84.7863C112.225 84.8397 112.201 84.9001 112.19 84.9636C112.179 85.027 112.18 85.0921 112.194 85.1548C112.208 85.2175 112.234 85.2764 112.272 85.329C112.309 85.3816 112.356 85.4258 112.411 85.4599C112.465 85.4939 112.526 85.5164 112.59 85.5264L118.156 86.533C117.97 87.5341 117.752 88.5251 117.504 89.5076L112.805 88.217C112.685 88.193 112.561 88.2154 112.457 88.2797C112.353 88.3432 112.277 88.4446 112.244 88.5623C112.212 88.68 112.225 88.8054 112.282 88.9138C112.338 89.0222 112.433 89.105 112.549 89.1461L117.257 90.4398C116.988 91.4208 116.686 92.3886 116.354 93.3441L112.352 91.8505C112.292 91.8288 112.229 91.818 112.165 91.8211C112.103 91.8234 112.04 91.8381 111.982 91.8645C111.925 91.8908 111.873 91.9287 111.829 91.9752C111.786 92.0216 111.753 92.0766 111.731 92.1362C111.709 92.1951 111.699 92.2585 111.701 92.322C111.703 92.3855 111.718 92.4482 111.745 92.5055C111.771 92.5636 111.809 92.6155 111.856 92.6581C111.902 92.7014 111.956 92.7355 112.016 92.7572L116.027 94.2538C115.675 95.203 115.293 96.1391 114.879 97.0628L109.826 94.6479C109.768 94.6185 109.706 94.6007 109.641 94.5952C109.576 94.5906 109.512 94.5983 109.45 94.6192C109.389 94.6402 109.332 94.6727 109.284 94.7152C109.236 94.7578 109.196 94.8105 109.168 94.8686C109.14 94.9266 109.125 94.9901 109.122 95.0544C109.119 95.1194 109.129 95.1837 109.151 95.2441C109.173 95.3052 109.208 95.361 109.252 95.4074C109.296 95.4547 109.35 95.4926 109.408 95.5189L114.475 97.9408C114.043 98.8529 113.582 99.7502 113.091 100.634L111.28 99.5621C111.171 99.5017 111.041 99.4862 110.92 99.5195C110.8 99.5528 110.696 99.631 110.632 99.7394C110.568 99.847 110.549 99.9755 110.578 100.098C110.607 100.219 110.683 100.325 110.788 100.393L112.613 101.477C111.435 103.488 110.107 105.408 108.64 107.219Z" fill="black"/>
<path d="M92.3762 75.7987L75.4348 45.1686L56.2705 72.8868C61.2087 77.0677 73.1747 85.4428 73.1747 85.4428C73.1747 85.4428 86.6258 78.912 92.3762 75.7987Z" fill="white"/>
<path d="M92.1717 79.7529C90.7007 80.4551 74.508 88.3711 72.7473 89.4938C71.0533 88.5391 61.5021 81.519 56.7776 77.5525C56.677 77.4692 56.551 77.4225 56.4203 77.4201C56.2897 77.4177 56.1621 77.4598 56.0584 77.5394C55.9548 77.6191 55.8813 77.7313 55.8499 77.8583C55.8185 77.9853 55.8312 78.1192 55.8857 78.2377L71.1888 110.966C71.232 111.058 71.2987 111.136 71.3822 111.194C71.4657 111.252 71.563 111.287 71.6641 111.294C71.7653 111.302 71.8667 111.284 71.9581 111.239C72.0495 111.195 72.1276 111.128 72.1844 111.043L92.9344 80.6007C93.0203 80.4939 93.066 80.3599 93.0621 80.2229C93.0583 80.0858 93.0056 79.9542 92.9142 79.852C92.8221 79.7506 92.6975 79.684 92.5612 79.6662C92.4249 79.6476 92.2871 79.6786 92.1717 79.7529Z" fill="black"/>
<path d="M92.3762 75.7987L74.0605 64.7324L56.2705 72.8899C61.2087 77.0708 73.1747 85.4459 73.1747 85.4459C73.1747 85.4459 86.6258 78.912 92.3762 75.7987Z" fill="#81F8F8"/>
<path d="M92.8794 75.5223L75.938 44.8914C75.8905 44.8058 75.8221 44.7335 75.739 44.6817C75.6559 44.6299 75.561 44.6001 75.4632 44.5951C75.3654 44.5901 75.268 44.6102 75.1801 44.6534C75.0922 44.6965 75.0167 44.7614 74.9609 44.8419L55.7966 72.5631C55.7152 72.6808 55.6805 72.8247 55.6994 72.9665C55.7183 73.1085 55.7894 73.2381 55.8988 73.3304C60.7967 77.4742 72.4221 85.9507 72.539 86.0367C72.6236 86.0971 72.7227 86.1342 72.8261 86.1435C72.9296 86.1536 73.0338 86.1358 73.1282 86.0924C73.2653 86.0258 86.9525 79.3913 92.6494 76.3074C92.716 76.271 92.7749 76.2219 92.8229 76.1627C92.8701 76.1036 92.9057 76.0355 92.9274 75.9626C92.9491 75.8896 92.9553 75.8132 92.9475 75.7377C92.939 75.6622 92.9158 75.5889 92.8794 75.5223ZM75.8459 47.0972L90.7935 74.124L74.7952 64.0588C75.2481 56.3039 75.6399 50.0433 75.8459 47.0972ZM73.6385 64.1586L57.9483 71.4722L74.6876 47.2591C74.4429 50.6031 74.0449 57.1555 73.6385 64.1586ZM72.4933 84.5741C70.0064 82.7515 61.7313 76.6551 57.3374 73.0285L73.5626 65.4648C73.1577 72.4602 72.7543 79.7296 72.4933 84.5741ZM74.7193 65.3727L91.2295 75.7546C86.1674 78.4397 76.751 83.0426 73.647 84.5532C74.0055 77.8838 74.3786 71.2469 74.7193 65.375V65.3727Z" fill="black"/>
<path d="M71.459 107.941L72.2906 91.8265C72.2974 91.7236 72.3441 91.6268 72.4209 91.5579C72.4977 91.489 72.5985 91.4526 72.7017 91.4565C72.753 91.4588 72.8034 91.4712 72.8499 91.4928C72.8963 91.5153 72.938 91.5463 72.9724 91.5842C73.0067 91.6221 73.0331 91.6671 73.0501 91.7158C73.067 91.7638 73.0742 91.8157 73.071 91.8668L72.241 107.98C72.2321 108.08 72.1844 108.174 72.1081 108.241C72.0317 108.307 71.9325 108.341 71.8314 108.337C71.7302 108.331 71.635 108.287 71.5655 108.214C71.4961 108.14 71.4579 108.042 71.459 107.941Z" fill="white"/>
<path d="M18.2062 134.361L15.0627 134.389L15.0194 129.639C15.0177 129.444 14.9381 129.256 14.7982 129.118C14.6583 128.981 14.4695 128.905 14.2734 128.906C14.0773 128.909 13.89 128.988 13.7525 129.128C13.615 129.268 13.5388 129.457 13.5406 129.653L13.5847 134.403L10.4242 134.432C10.3186 134.433 10.2141 134.455 10.1169 134.496C10.0196 134.537 9.93145 134.597 9.85744 134.672C9.7835 134.748 9.72504 134.837 9.68555 134.935C9.64614 135.033 9.6264 135.138 9.62748 135.243L9.71497 144.905C9.71706 145.118 9.8037 145.322 9.95584 145.471C10.108 145.621 10.3132 145.704 10.5264 145.702L13.6869 145.673L13.7302 150.418C13.732 150.614 13.8116 150.801 13.9515 150.939C14.0914 151.076 14.2802 151.153 14.4762 151.15C14.6724 151.149 14.8597 151.069 14.9972 150.93C15.1346 150.79 15.2108 150.601 15.2091 150.405L15.1657 145.66L18.3084 145.632C18.5216 145.629 18.7253 145.543 18.8748 145.391C19.0241 145.238 19.107 145.033 19.1052 144.82L19.0176 135.158C19.0168 135.053 18.995 134.948 18.9537 134.851C18.9125 134.753 18.8525 134.666 18.7771 134.592C18.7018 134.517 18.6126 134.459 18.5146 134.42C18.4166 134.38 18.3119 134.36 18.2062 134.361Z" fill="black"/>
<path d="M30.079 125.424L26.9348 125.452L26.8953 121.084C26.8934 120.888 26.8136 120.701 26.6736 120.563C26.5335 120.426 26.3447 120.35 26.1485 120.352C25.9524 120.354 25.7651 120.434 25.6279 120.574C25.4906 120.714 25.4145 120.903 25.4165 121.099L25.4567 125.465L22.2962 125.494C22.083 125.496 21.8794 125.582 21.73 125.735C21.5806 125.887 21.4977 126.093 21.4995 126.306L21.6335 141.079C21.6356 141.292 21.7221 141.496 21.8743 141.645C22.0264 141.794 22.2317 141.877 22.4449 141.876L25.6054 141.847L25.6449 146.211C25.6468 146.407 25.7266 146.594 25.8666 146.731C26.0067 146.869 26.1955 146.945 26.3917 146.942C26.5878 146.941 26.7751 146.861 26.9123 146.721C27.0496 146.581 27.1256 146.392 27.1237 146.196L27.0842 141.834L30.2269 141.805C30.3326 141.804 30.437 141.783 30.5342 141.741C30.6315 141.7 30.7196 141.64 30.7937 141.564C30.8678 141.489 30.9263 141.4 30.9658 141.302C31.0054 141.204 31.0253 141.099 31.0244 140.994L30.8881 126.219C30.8856 126.006 30.7992 125.803 30.6476 125.654C30.496 125.505 30.2916 125.422 30.079 125.424Z" fill="black"/>
<path d="M42.7728 118.377C42.7718 118.271 42.75 118.167 42.7086 118.07C42.6672 117.972 42.607 117.884 42.5315 117.81C42.456 117.736 42.3667 117.678 42.2686 117.639C42.1705 117.599 42.0656 117.58 41.9599 117.58L38.8133 117.608L38.77 112.86C38.7722 112.761 38.7546 112.662 38.7181 112.57C38.6816 112.479 38.627 112.395 38.5576 112.324C38.4881 112.254 38.4052 112.198 38.3138 112.161C38.2223 112.123 38.1242 112.103 38.0254 112.104C37.9264 112.105 37.8286 112.126 37.7378 112.165C37.6471 112.205 37.5651 112.261 37.4969 112.333C37.4286 112.405 37.3754 112.49 37.3405 112.582C37.3055 112.675 37.2895 112.773 37.2935 112.872L37.3368 117.622L34.1771 117.651C33.9639 117.653 33.7602 117.739 33.6108 117.892C33.4614 118.044 33.3785 118.249 33.3804 118.462L33.4679 128.124C33.4701 128.337 33.5569 128.541 33.7089 128.69C33.8611 128.84 34.0662 128.922 34.2793 128.921L37.4398 128.892L37.4824 133.638C37.4842 133.834 37.5636 134.022 37.7034 134.159C37.8431 134.296 38.0317 134.372 38.2276 134.37C38.4235 134.369 38.6107 134.29 38.748 134.149C38.8852 134.01 38.9614 133.821 38.9597 133.625L38.9163 128.879L42.0621 128.85C42.2753 128.848 42.479 128.761 42.6284 128.61C42.7778 128.457 42.8606 128.252 42.8588 128.039L42.7728 118.377Z" fill="black"/>
<path d="M122.42 34.2865L119.268 34.3152L119.225 29.5589C119.227 29.4601 119.209 29.3617 119.172 29.2698C119.136 29.178 119.081 29.0944 119.011 29.0241C118.942 28.9538 118.858 28.8981 118.767 28.8605C118.676 28.8229 118.577 28.804 118.479 28.8049C118.38 28.8059 118.282 28.8267 118.192 28.8662C118.1 28.9057 118.019 28.9629 117.951 29.0346C117.883 29.1063 117.83 29.191 117.795 29.2836C117.76 29.3761 117.744 29.4748 117.748 29.5737L117.792 34.3283L114.638 34.357C114.425 34.3588 114.221 34.4452 114.072 34.597C113.923 34.7488 113.84 34.9539 113.841 35.1668L113.929 44.8287C113.93 44.9344 113.951 45.0389 113.992 45.1363C114.033 45.2337 114.093 45.322 114.168 45.3962C114.244 45.4704 114.333 45.529 114.431 45.5685C114.529 45.6081 114.633 45.628 114.739 45.627L117.894 45.5991L117.936 50.3399C117.939 50.5357 118.018 50.7228 118.158 50.8598C118.227 50.9277 118.31 50.9813 118.399 51.0175C118.489 51.0536 118.586 51.0718 118.683 51.0707C118.78 51.0697 118.876 51.0496 118.965 51.0115C119.054 50.9735 119.135 50.9182 119.203 50.8489C119.27 50.7796 119.324 50.6976 119.36 50.6076C119.397 50.5176 119.414 50.4214 119.414 50.3244L119.37 45.5852L122.521 45.5565C122.627 45.5556 122.731 45.5339 122.829 45.4927C122.926 45.4514 123.014 45.3913 123.088 45.316C123.163 45.2406 123.221 45.1514 123.26 45.0535C123.3 44.9556 123.32 44.8507 123.319 44.7451L123.231 35.0832C123.228 34.8702 123.142 34.6665 122.99 34.5172C122.838 34.3678 122.633 34.2848 122.42 34.2865Z" fill="black"/>
<path d="M134.251 21.2187L131.1 21.2473L131.058 16.6591C131.06 16.5602 131.043 16.4619 131.006 16.3699C130.97 16.278 130.915 16.1943 130.845 16.1239C130.776 16.0535 130.693 15.9978 130.601 15.96C130.51 15.9222 130.412 15.9032 130.313 15.9041C130.214 15.905 130.117 15.9258 130.026 15.9651C129.935 16.0045 129.853 16.0617 129.784 16.1333C129.716 16.205 129.664 16.2897 129.629 16.3822C129.594 16.4748 129.578 16.5734 129.582 16.6723L129.623 21.2605L126.469 21.2892C126.256 21.2912 126.053 21.3778 125.903 21.5299C125.754 21.6821 125.671 21.8873 125.672 22.1006L125.794 35.5013C125.796 35.7145 125.883 35.9182 126.035 36.0676C126.187 36.217 126.392 36.2999 126.605 36.298L129.76 36.2694L129.802 40.8444C129.81 41.0362 129.892 41.2175 130.031 41.3498C130.17 41.4821 130.355 41.5552 130.547 41.5535C130.739 41.5518 130.923 41.4754 131.059 41.3406C131.196 41.2058 131.275 41.0231 131.279 40.8313L131.237 36.2562L134.388 36.2276C134.601 36.2255 134.805 36.1389 134.954 35.9868C135.104 35.8346 135.186 35.6294 135.185 35.4161L135.063 22.0154C135.063 21.9097 135.041 21.8053 134.999 21.7081C134.958 21.6109 134.898 21.5228 134.822 21.4488C134.747 21.3749 134.658 21.3164 134.559 21.2769C134.462 21.2374 134.356 21.2177 134.251 21.2187Z" fill="black"/>
<path d="M146.911 10.2901C146.911 10.1845 146.889 10.0801 146.847 9.98284C146.806 9.88567 146.746 9.79756 146.671 9.72354C146.595 9.6496 146.506 9.59114 146.407 9.55166C146.31 9.51217 146.205 9.49243 146.099 9.49343L142.945 9.52208L142.901 4.77359C142.893 4.58182 142.811 4.40058 142.672 4.26823C142.533 4.13588 142.348 4.06283 142.156 4.06454C141.964 4.06625 141.78 4.1426 141.644 4.27739C141.507 4.4122 141.429 4.59487 141.424 4.78675L141.468 9.53524L138.317 9.56389C138.212 9.5649 138.107 9.58673 138.01 9.62807C137.913 9.66942 137.825 9.7295 137.75 9.80499C137.677 9.8804 137.618 9.9696 137.579 10.0676C137.539 10.1656 137.52 10.2704 137.521 10.3761L137.682 27.7015C137.682 27.8071 137.704 27.9116 137.746 28.0087C137.787 28.106 137.847 28.1941 137.922 28.2681C137.998 28.342 138.087 28.4004 138.186 28.4399C138.283 28.4794 138.388 28.4992 138.494 28.4982L141.644 28.4696L141.688 33.218C141.686 33.3169 141.704 33.4152 141.74 33.5072C141.777 33.5991 141.832 33.6828 141.901 33.7533C141.97 33.8237 142.054 33.8794 142.145 33.9172C142.236 33.9549 142.335 33.9739 142.433 33.973C142.532 33.9722 142.63 33.9514 142.721 33.912C142.812 33.8727 142.894 33.8155 142.962 33.7438C143.03 33.6721 143.083 33.5875 143.118 33.4949C143.153 33.4024 143.169 33.3038 143.165 33.2049L143.121 28.4564L146.276 28.4277C146.489 28.4257 146.692 28.3391 146.842 28.187C146.991 28.0348 147.074 27.8296 147.072 27.6163L146.911 10.2901Z" fill="black"/>
</svg>
