<svg width="154" height="155" viewBox="0 0 154 155" fill="none" xmlns="http://www.w3.org/2000/svg">
<path d="M5.7928 115.215C14.0844 110.019 30.3196 101.251 40.3164 101.349C43.2163 101.377 46.2465 102.871 48.5529 104.654C55.0948 109.715 56.5784 118.367 67.3673 120.42C81.6381 123.136 100.679 108.648 117.49 105.473C123.437 104.349 128.273 105.026 131.545 106.737C136.29 109.217 138.153 113.771 139.949 119.158L138.164 121.315C136.462 116.212 134.522 111.385 129.76 108.894C126.488 107.183 121.652 106.506 115.705 107.629C98.8938 110.805 79.8554 125.284 65.5824 122.581C54.7206 120.521 53.1994 111.847 46.7679 106.741C44.4878 104.917 41.6566 103.921 38.7369 103.914C35.0174 103.878 30.2559 105.67 25.5742 107.315C19.4716 109.454 9.58514 114.525 4.00781 117.944L5.7928 115.215Z" fill="#FFE55D"/>
<path d="M65.5252 122.877C58.3485 121.497 55.1741 117.243 52.0979 113.126C48.4037 108.178 44.9786 104.217 38.7358 104.217C34.9787 104.135 29.6881 106.183 25.6742 107.6C19.5256 109.768 9.72583 114.797 4.16767 118.205C4.10842 118.242 4.03843 118.257 3.96936 118.248C3.90029 118.239 3.83633 118.207 3.78813 118.157C3.73963 118.107 3.70948 118.043 3.70265 117.973C3.69583 117.904 3.71272 117.835 3.75056 117.777C5.70423 114.786 5.54782 115.004 5.62909 114.953C10.9266 111.634 29.0916 100.832 40.3222 101.041C42.9031 101.041 45.9739 102.268 48.7403 104.415C55.4003 109.557 56.7306 118.052 67.4252 120.118C75.8181 121.692 85.7551 117.34 96.278 112.735C106.612 108.211 121.689 101.238 131.686 106.464C136.505 108.983 138.485 113.796 140.239 119.058C140.255 119.107 140.259 119.16 140.249 119.211C140.239 119.262 140.217 119.31 140.184 119.35L138.399 121.506C138.365 121.548 138.319 121.58 138.267 121.599C138.216 121.618 138.161 121.623 138.107 121.613C138.053 121.603 138.003 121.578 137.962 121.542C137.92 121.506 137.889 121.46 137.872 121.408C136.195 116.377 134.297 111.61 129.618 109.164C119.88 104.071 104.944 110.986 94.7384 115.451C85.8625 119.339 74.5828 124.575 65.5252 122.877ZM38.5196 103.601C41.5866 103.54 44.5769 104.566 46.9599 106.497C53.4528 111.572 54.9426 120.222 65.6395 122.274C79.7967 124.928 98.806 110.53 115.647 107.327C121.239 106.278 126.305 106.738 129.902 108.62C134.56 111.055 136.578 115.643 138.279 120.69L139.603 119.09C137.916 114.072 136.017 109.42 131.403 107.008C121.665 101.915 106.738 108.826 96.5241 113.295C85.9123 117.94 75.8894 122.327 67.311 120.719C56.4124 118.614 54.8337 109.893 48.3654 104.895C45.704 102.834 42.7681 101.653 40.3145 101.653C31.5107 101.484 16.8459 108.653 6.01093 115.436L4.99576 116.988C11.9712 112.846 19.3054 109.34 26.9094 106.513C30.9701 105.084 35.1627 103.601 38.5196 103.601Z" fill="#4B1010"/>
<path d="M12.4858 107.182C11.7421 110.751 12.4092 116.031 14.4932 118.411C16.0551 120.196 18.5094 121.609 22.3018 121.683C35.5665 121.943 62.2425 107.032 80.4558 105.099C98.8225 103.151 91.8934 118.664 102.393 122.491C106.107 123.844 111.937 123.488 118.01 121.971C129.128 119.197 135.279 116.054 147.607 110.518L149.69 107.701C139.04 112.482 115.545 123.817 104.476 119.673C94.0097 115.755 100.901 101.035 82.5383 102.941C64.279 104.836 37.6482 119.795 24.3843 119.525C22.9259 119.559 21.4767 119.285 20.1312 118.721C18.7857 118.158 17.5742 117.316 16.5757 116.253C14.4664 113.898 13.8238 108.593 14.5676 105.023L12.4858 107.182Z" fill="#FFE55D"/>
<path d="M107.959 123.605C89.0971 123.605 101.224 103.218 80.4881 105.404C62.2149 107.359 35.8134 122.235 22.2956 121.99C18.8667 121.922 16.1616 120.786 14.2624 118.612C12.0319 116.064 11.4477 110.662 12.1853 107.119C12.2114 106.995 12.0687 107.172 14.3475 104.812C14.3942 104.765 14.4545 104.735 14.5197 104.725C14.5849 104.715 14.6515 104.726 14.7098 104.757C14.7681 104.788 14.8149 104.837 14.8434 104.896C14.8719 104.956 14.8806 105.023 14.8681 105.088C14.1574 108.501 14.7662 113.721 16.8065 116.052C17.7811 117.078 18.9588 117.89 20.2647 118.435C21.5705 118.98 22.9756 119.247 24.3904 119.219C37.8169 119.47 64.006 104.605 82.5054 102.637C101.091 100.757 94.3248 115.604 104.582 119.387C115.344 123.477 139.019 112.179 149.564 107.426C149.626 107.398 149.695 107.392 149.761 107.408C149.826 107.424 149.884 107.461 149.927 107.513C149.969 107.566 149.993 107.63 149.995 107.698C149.997 107.765 149.976 107.831 149.937 107.886C147.662 110.962 147.838 110.752 147.733 110.799C136.425 115.857 120.305 123.605 107.959 123.605ZM83.4078 104.628C98.3203 104.628 92.8143 118.632 102.5 122.203C105.819 123.398 111.304 123.21 117.941 121.672C129.069 118.695 135.363 115.691 147.409 110.272L148.746 108.463C138.308 113.154 115.21 124.083 104.367 119.964C93.6117 115.998 100.763 101.409 82.5682 103.249C64.3886 105.184 37.7403 120.107 24.3781 119.835C22.8788 119.861 21.3903 119.576 20.0077 118.995C18.6254 118.414 17.3795 117.551 16.3495 116.461C14.313 114.133 13.6467 109.442 14.1022 105.948L12.768 107.328C12.0848 110.742 12.7013 115.894 14.724 118.207C19.346 123.488 28.0923 121.037 34.8558 119.007C50.0519 114.421 70.3601 104.628 83.4078 104.628Z" fill="#4B1010"/>
<path d="M16.2517 116.009L21.7462 107.535C21.7905 107.467 21.8602 107.419 21.9399 107.402C22.0195 107.385 22.1027 107.4 22.171 107.445C22.2393 107.489 22.2872 107.559 22.3042 107.638C22.3212 107.718 22.3058 107.801 22.2615 107.869L16.7662 116.344C16.7218 116.412 16.6522 116.46 16.5726 116.476C16.493 116.493 16.41 116.478 16.3418 116.434C16.2736 116.389 16.2257 116.32 16.2088 116.24C16.1919 116.16 16.2074 116.077 16.2517 116.009Z" fill="#4B1010"/>
<path d="M23.594 119.372L30.9502 104.443C30.9862 104.37 31.0497 104.314 31.1267 104.288C31.2038 104.262 31.2881 104.267 31.3611 104.303C31.4341 104.339 31.4899 104.403 31.516 104.48C31.5422 104.557 31.5367 104.641 31.5007 104.714L24.1445 119.642C24.1082 119.715 24.0449 119.77 23.9681 119.797C23.9107 119.817 23.8486 119.819 23.7898 119.803C23.7311 119.788 23.6784 119.755 23.6384 119.709C23.6117 119.679 23.5913 119.644 23.5784 119.606C23.5655 119.568 23.5604 119.527 23.5633 119.487C23.5658 119.447 23.5762 119.408 23.594 119.372Z" fill="#4B1010"/>
<path d="M33.987 117.822L39.615 103.276C39.6445 103.2 39.7029 103.139 39.7774 103.106C39.8518 103.073 39.9363 103.071 40.0121 103.101C40.088 103.13 40.149 103.189 40.1818 103.263C40.2146 103.338 40.2165 103.422 40.187 103.498L34.559 118.043C34.5371 118.1 34.4989 118.149 34.4493 118.184C34.3996 118.218 34.3407 118.238 34.2801 118.239C34.2194 118.241 34.1597 118.224 34.1085 118.191C34.0573 118.159 34.0169 118.112 33.9924 118.056C33.9596 117.982 33.9576 117.898 33.987 117.822Z" fill="#4B1010"/>
<path d="M42.0804 115.31L45.885 104.993C45.9131 104.917 45.9705 104.855 46.0444 104.821C46.1183 104.787 46.2027 104.783 46.2791 104.812C46.3554 104.84 46.4175 104.897 46.4516 104.971C46.4856 105.045 46.489 105.129 46.4608 105.206L42.6562 115.522C42.6281 115.598 42.5709 115.66 42.497 115.694C42.4232 115.728 42.3388 115.732 42.2625 115.704C42.1861 115.676 42.124 115.618 42.0899 115.544C42.0557 115.471 42.0523 115.386 42.0804 115.31Z" fill="#4B1010"/>
<path d="M61.9991 118.559L66.6371 107.215C66.6709 107.144 66.7302 107.089 66.803 107.061C66.8758 107.033 66.9566 107.033 67.029 107.063C67.1014 107.092 67.1598 107.148 67.1925 107.219C67.2251 107.29 67.2294 107.371 67.2045 107.445L62.5665 118.792C62.5514 118.83 62.529 118.864 62.5005 118.892C62.4721 118.921 62.4382 118.944 62.4009 118.959C62.3448 118.982 62.2832 118.988 62.2238 118.976C62.1643 118.965 62.1096 118.936 62.0666 118.893C62.0377 118.865 62.0149 118.831 61.9993 118.794C61.9838 118.756 61.9759 118.716 61.9761 118.676C61.9761 118.636 61.9837 118.596 61.9991 118.559Z" fill="#4B1010"/>
<path d="M70.6974 120.659L75.4029 105.456C75.4273 105.379 75.4813 105.314 75.5532 105.275C75.6069 105.246 75.6681 105.234 75.729 105.24C75.7898 105.246 75.8474 105.27 75.8944 105.309C75.9414 105.348 75.9757 105.4 75.9928 105.459C76.0099 105.517 76.009 105.58 75.9903 105.638L71.284 120.84C71.2722 120.878 71.2529 120.914 71.2271 120.945C71.2013 120.976 71.1695 121.002 71.1337 121.021C71.0981 121.04 71.0591 121.051 71.0189 121.055C70.9788 121.059 70.9383 121.054 70.8998 121.042C70.8613 121.03 70.8255 121.011 70.7945 120.985C70.7635 120.96 70.7378 120.928 70.719 120.892C70.7002 120.857 70.6886 120.818 70.6849 120.778C70.6812 120.738 70.6854 120.697 70.6974 120.659Z" fill="#4B1010"/>
<path d="M78.4287 119.609L83.0614 104.044C83.0851 103.966 83.1382 103.901 83.2094 103.862C83.2813 103.824 83.365 103.816 83.4428 103.839C83.5206 103.862 83.5862 103.915 83.6257 103.986C83.6639 104.058 83.6724 104.142 83.6495 104.22L79.0168 119.785C78.9993 119.843 78.965 119.894 78.9182 119.933C78.8715 119.971 78.8144 119.995 78.754 120.002C78.6937 120.008 78.6329 119.996 78.5793 119.968C78.5256 119.94 78.4815 119.896 78.4525 119.843C78.4142 119.771 78.4057 119.687 78.4287 119.609Z" fill="#4B1010"/>
<path d="M86.3572 117.037L89.53 104.799C89.5534 104.724 89.6047 104.66 89.6736 104.621C89.7424 104.582 89.8236 104.571 89.9004 104.59C89.9771 104.61 90.0431 104.659 90.0846 104.727C90.1262 104.794 90.1401 104.875 90.1235 104.953L86.9515 117.19C86.9418 117.229 86.9243 117.266 86.9 117.298C86.8758 117.331 86.8453 117.358 86.8104 117.378C86.7579 117.408 86.6978 117.422 86.6373 117.419C86.5769 117.415 86.5187 117.395 86.4699 117.359C86.4215 117.322 86.385 117.272 86.365 117.215C86.3449 117.157 86.3422 117.095 86.3572 117.037Z" fill="#4B1010"/>
<path d="M104.291 119.593L109.027 108.327C109.061 108.256 109.121 108.2 109.194 108.172C109.268 108.144 109.35 108.145 109.423 108.176C109.495 108.206 109.554 108.264 109.585 108.336C109.617 108.408 109.619 108.49 109.592 108.564L104.856 119.83C104.822 119.901 104.762 119.957 104.688 119.985C104.615 120.013 104.533 120.012 104.46 119.981C104.387 119.951 104.329 119.893 104.298 119.821C104.266 119.749 104.264 119.667 104.291 119.593Z" fill="#4B1010"/>
<path d="M112.465 120.318L116.975 106.418C116.994 106.36 117.029 106.309 117.077 106.271C117.124 106.233 117.182 106.21 117.243 106.206C117.303 106.201 117.364 106.214 117.417 106.244C117.47 106.274 117.513 106.319 117.54 106.373C117.559 106.409 117.57 106.448 117.573 106.489C117.576 106.529 117.571 106.569 117.559 106.607L113.048 120.505C113.019 120.578 112.964 120.637 112.894 120.671C112.823 120.704 112.742 120.71 112.668 120.686C112.594 120.662 112.531 120.61 112.494 120.542C112.456 120.473 112.446 120.393 112.465 120.318Z" fill="#4B1010"/>
<path d="M120.788 118.801L124.259 106.577C124.27 106.539 124.288 106.502 124.313 106.471C124.338 106.439 124.369 106.413 124.404 106.393C124.44 106.374 124.478 106.361 124.518 106.356C124.558 106.352 124.599 106.355 124.638 106.366C124.676 106.377 124.713 106.395 124.744 106.42C124.776 106.445 124.802 106.476 124.822 106.511C124.841 106.547 124.854 106.585 124.859 106.625C124.863 106.665 124.86 106.706 124.849 106.745L121.378 118.972C121.355 119.05 121.302 119.116 121.231 119.155C121.16 119.194 121.076 119.204 120.998 119.182C120.959 119.171 120.923 119.152 120.891 119.127C120.859 119.102 120.833 119.071 120.814 119.035C120.794 119 120.782 118.961 120.777 118.921C120.773 118.88 120.776 118.84 120.788 118.801Z" fill="#4B1010"/>
<path d="M128.757 116.315L130.723 108.077C130.742 107.999 130.792 107.932 130.861 107.89C130.93 107.848 131.013 107.835 131.091 107.854C131.17 107.873 131.237 107.922 131.28 107.99C131.323 108.059 131.337 108.141 131.319 108.22L129.354 116.457C129.339 116.515 129.307 116.567 129.263 116.607C129.218 116.647 129.163 116.673 129.104 116.682C129.045 116.691 128.985 116.682 128.931 116.658C128.876 116.633 128.831 116.593 128.799 116.542C128.756 116.475 128.741 116.393 128.757 116.315Z" fill="#4B1010"/>
<path d="M130.819 106.249C130.396 103.389 128.141 97.0775 126.703 92.8788C126.677 92.802 126.621 92.7386 126.549 92.7025C126.475 92.6672 126.391 92.662 126.314 92.6879C126.213 92.7216 120.556 95.6621 120.385 95.7618C120.314 95.8026 120.263 95.8696 120.242 95.948C120.221 96.0265 120.232 96.11 120.273 96.1804C122.436 99.9484 124.989 103.478 127.891 106.712C129.908 109.066 131.274 109.34 130.819 106.249Z" fill="#4B1010"/>
<path d="M126.413 91.5646H107.748C107.748 91.5646 106.186 94.4652 109.161 104.727C112.756 117.026 121.405 117.026 125.001 104.727C127.974 94.4652 126.413 91.5646 126.413 91.5646Z" fill="#FFE55D"/>
<path d="M113.115 97.5798C111.373 97.507 108.603 96.2434 108.093 95.2872C108.065 95.2349 108.023 95.1918 107.971 95.1631C107.919 95.1344 107.86 95.1214 107.801 95.1257C107.742 95.1299 107.685 95.1511 107.638 95.1869C107.59 95.2226 107.554 95.2713 107.534 95.3271C106.384 98.503 107.313 95.4091 105.298 102.262C104.577 104.628 104.026 107.042 103.65 109.487C103.65 111.031 105.126 110.804 105.585 110.076C107.255 108.407 112.625 100.288 113.394 97.9831C113.409 97.938 113.413 97.89 113.406 97.8429C113.399 97.7959 113.382 97.751 113.355 97.7117C113.328 97.6727 113.293 97.6404 113.251 97.6175C113.209 97.5947 113.163 97.5818 113.115 97.5798Z" fill="#4B1010"/>
<path d="M117.042 96.2496C122.218 96.2496 126.413 94.3189 126.413 91.9366C126.413 89.5543 122.218 87.6237 117.042 87.6237C111.868 87.6237 107.672 89.5543 107.672 91.9366C107.672 94.3189 111.868 96.2496 117.042 96.2496Z" fill="#FFE55D"/>
<path d="M117.043 87.3169C113.05 87.3169 108.013 88.3183 107.213 92.2816C106.913 93.7691 106.716 97.3958 108.866 104.814C112.562 117.459 121.613 117.409 125.295 104.814C127.595 96.8928 127.211 93.2945 126.885 92.0094C125.953 88.3098 120.809 87.3169 117.043 87.3169ZM117.043 87.9303C121.956 87.9303 126.107 89.7651 126.107 91.9366C126.107 94.108 121.956 95.9436 117.043 95.9436C113.209 95.9436 106.692 94.2031 108.172 91.133C109.041 89.3304 112.751 87.9303 117.043 87.9303ZM124.706 104.642C121.173 116.728 112.933 116.542 109.455 104.642C107.65 98.4156 107.538 94.9261 107.708 93.1802C110.278 97.7309 124.112 97.655 126.44 93.0637C126.627 94.7697 126.551 98.2745 124.706 104.642Z" fill="#4B1010"/>
<path d="M108.045 91.1937C106.17 89.3496 106.523 83.747 107.227 81.2259C109.282 73.8651 124.785 73.8498 126.785 81.2259C127.47 83.7501 127.735 89.2431 125.967 91.1937C122.614 94.8863 112.342 95.4208 108.045 91.1937Z" fill="#FFE55D"/>
<path d="M107.831 91.4136C105.838 89.42 106.269 83.6503 106.93 81.1499C109.201 73.4249 124.984 73.5974 127.08 81.1499C127.727 83.592 128.147 89.2874 126.192 91.4052C122.788 95.2128 112.328 95.7657 107.831 91.4136ZM107.518 81.3147C106.85 83.845 106.522 89.2406 108.259 90.9758C112.493 95.0725 122.555 94.5504 125.736 90.988C127.428 89.1555 127.123 83.7108 126.486 81.3063C124.551 74.3289 109.612 74.2031 107.518 81.3147Z" fill="#4B1010"/>
<path d="M127.397 84.7819C127.421 84.0987 127.369 83.415 127.244 82.7431C127.183 81.9687 126.999 81.209 126.698 80.4927C126.674 80.436 126.632 80.3882 126.579 80.3557C126.526 80.3233 126.465 80.3076 126.403 80.311C126.341 80.3139 126.282 80.3354 126.233 80.3728C126.183 80.4102 126.147 80.4616 126.127 80.5203C125.915 81.1224 125.482 81.6219 124.917 81.9189C122.145 83.5536 118.053 83.8764 115.081 83.437C114.007 83.2936 113.01 83.2944 112.729 84.8823C112.504 86.3317 112.452 87.8028 112.576 89.2643C112.665 90.3071 112.902 91.3261 114.289 91.6964C115.161 91.9037 116.051 92.032 116.946 92.0798C120.82 92.3551 126.164 90.6759 127.237 87.0752C127.405 86.3231 127.458 85.5502 127.397 84.7819Z" fill="#4B1010"/>
<path d="M117.043 81.3861C111.509 81.3861 109.248 78.8321 110.066 78.4249C110.138 78.3888 110.223 78.383 110.3 78.4089C110.377 78.4348 110.44 78.4902 110.477 78.563C111.026 79.6609 113.458 80.7727 117.044 80.7727C120.194 80.7727 123.047 79.7614 123.682 78.4196C123.708 78.3645 123.75 78.3184 123.802 78.2873C123.854 78.2561 123.915 78.2413 123.975 78.2448C124.015 78.2463 124.055 78.2562 124.091 78.2739C124.924 78.6688 122.633 81.3861 117.043 81.3861Z" fill="#4B1010"/>
<path d="M116.473 87.2601C117.488 84.9775 120.065 85.1807 120.402 87.0301C120.503 87.5798 119.794 87.5898 119.794 87.1597C119.55 85.7281 117.731 85.9382 117.034 87.507C116.998 87.5772 116.937 87.6312 116.864 87.6576C116.79 87.684 116.708 87.6809 116.636 87.6489C116.565 87.6168 116.509 87.5588 116.478 87.4867C116.448 87.4145 116.446 87.3335 116.473 87.2601Z" fill="white"/>
<path d="M124.407 85.854C124.827 82.9112 127.76 83.293 127.468 85.3464C127.46 85.4068 127.434 85.4635 127.394 85.5092C127.353 85.5548 127.3 85.5872 127.241 85.6023C127.182 85.6174 127.12 85.6145 127.062 85.5939C127.005 85.5733 126.955 85.5359 126.919 85.4867C126.895 85.4544 126.877 85.4177 126.867 85.3786C126.857 85.3396 126.855 85.2989 126.861 85.259C127.056 83.8888 125.28 84.0682 125.014 85.9406C125.009 85.9805 124.996 86.019 124.975 86.0537C124.955 86.0885 124.928 86.1188 124.895 86.143C124.863 86.1672 124.826 86.1847 124.787 86.1946C124.748 86.2045 124.708 86.2065 124.668 86.2005C124.587 86.1887 124.515 86.1457 124.466 86.0808C124.417 86.016 124.396 85.9344 124.407 85.854Z" fill="white"/>
<path d="M121.019 88.7354C120.961 88.6822 120.924 88.6084 120.918 88.5292C120.914 88.4701 120.927 88.411 120.956 88.3591C120.984 88.3072 121.027 88.2647 121.079 88.2367C121.132 88.2087 121.191 88.1965 121.25 88.2014C121.309 88.2064 121.365 88.2284 121.412 88.2647C121.607 88.4285 121.839 88.5425 122.087 88.5967C122.336 88.6509 122.594 88.6437 122.839 88.5757C123.085 88.5078 123.31 88.3811 123.495 88.2067C123.68 88.0323 123.821 87.8153 123.903 87.5746C123.917 87.537 123.939 87.5027 123.966 87.4734C123.994 87.4442 124.027 87.4207 124.064 87.4043C124.1 87.3878 124.14 87.3787 124.18 87.3776C124.22 87.3764 124.26 87.3832 124.297 87.3975C124.373 87.4259 124.435 87.4831 124.468 87.5566C124.502 87.6302 124.505 87.7141 124.478 87.79C124.361 88.1226 124.165 88.4219 123.907 88.662C123.649 88.9022 123.336 89.076 122.996 89.1686C122.656 89.2616 122.299 89.2708 121.955 89.1953C121.61 89.1199 121.289 88.9621 121.019 88.7354Z" fill="white"/>
<path d="M40.0755 51.5562C40.6672 51.5562 41.2348 51.3212 41.6532 50.9027C42.0716 50.4843 42.3067 49.9168 42.3067 49.325C42.3067 48.7332 42.0716 48.1657 41.6532 47.7473C41.2348 47.3288 40.6672 47.0937 40.0755 47.0938C39.4837 47.0937 38.9162 47.3288 38.4978 47.7473C38.0793 48.1657 37.8442 48.7332 37.8442 49.325C37.8442 49.9168 38.0793 50.4843 38.4978 50.9027C38.9162 51.3212 39.4837 51.5562 40.0755 51.5562Z" fill="white"/>
<path d="M40.075 51.8629C39.4019 51.8629 38.7564 51.5955 38.2805 51.1195C37.8045 50.6436 37.5371 49.998 37.5371 49.3249C37.5371 48.6518 37.8045 48.0063 38.2805 47.5303C38.7564 47.0544 39.4019 46.787 40.075 46.787C40.7482 46.787 41.3937 47.0544 41.8696 47.5303C42.3456 48.0063 42.613 48.6518 42.613 49.3249C42.613 49.998 42.3456 50.6436 41.8696 51.1195C41.3937 51.5955 40.7482 51.8629 40.075 51.8629ZM40.075 47.4004C39.5646 47.4004 39.0751 47.6032 38.7142 47.9641C38.3533 48.325 38.1505 48.8145 38.1505 49.3249C38.1505 49.8353 38.3533 50.3249 38.7142 50.6858C39.0751 51.0467 39.5646 51.2495 40.075 51.2495C40.5855 51.2495 41.075 51.0467 41.4359 50.6858C41.7968 50.3249 41.9996 49.8353 41.9996 49.3249C41.9996 48.8145 41.7968 48.325 41.4359 47.9641C41.075 47.6032 40.5855 47.4004 40.075 47.4004Z" fill="#4B1010"/>
<path d="M30.1848 58.9186L30.8542 59.0673C31.011 59.1052 31.1588 59.174 31.2889 59.2695C31.4189 59.365 31.5286 59.4855 31.6117 59.6238C31.6948 59.7622 31.7495 59.9157 31.7726 60.0754C31.7958 60.2351 31.787 60.3978 31.7467 60.5541L28.1767 74.8325C28.139 74.9895 28.0704 75.1375 27.9748 75.2677C27.8793 75.3979 27.7587 75.5078 27.6202 75.5909C27.4818 75.674 27.3281 75.7286 27.1682 75.7516C27.0084 75.7747 26.8455 75.7656 26.6892 75.725L26.0206 75.5762C25.8637 75.5383 25.7158 75.4696 25.5857 75.374C25.4556 75.2784 25.3458 75.1579 25.2628 75.0194C25.1797 74.881 25.125 74.7274 25.1019 74.5676C25.0788 74.4078 25.0877 74.245 25.1281 74.0887L28.6973 59.8103C28.7355 59.6536 28.8044 59.5059 28.9001 59.376C28.9958 59.2461 29.1163 59.1365 29.2547 59.0535C29.3931 58.9706 29.5465 58.9159 29.7062 58.8927C29.8659 58.8696 30.0286 58.8784 30.1848 58.9186Z" fill="#FFE55D"/>
<path d="M26.9904 76.0645C26.6389 76.0399 26.2913 75.9767 25.9537 75.8759C25.757 75.8301 25.5714 75.7454 25.4078 75.6268C25.2442 75.5083 25.1059 75.3583 25.0011 75.1856C24.8962 75.0129 24.8269 74.821 24.7972 74.6212C24.7675 74.4214 24.7781 74.2176 24.8281 74.0219L28.3997 59.7359C28.4471 59.5406 28.5328 59.3566 28.6517 59.1946C28.7706 59.0326 28.9204 58.8957 29.0925 58.7918C29.2645 58.688 29.4555 58.6192 29.6542 58.5895C29.853 58.5598 30.0557 58.5697 30.2506 58.6187L30.9207 58.7675C31.1172 58.814 31.3024 58.8991 31.4656 59.0179C31.6289 59.1366 31.7668 59.2867 31.8715 59.4593C31.9762 59.6319 32.0455 59.8236 32.0754 60.0233C32.1053 60.2229 32.0951 60.4265 32.0455 60.6222L28.474 74.9068C28.3974 75.2408 28.2081 75.5384 27.9379 75.7492C27.6677 75.9601 27.3331 76.0714 26.9904 76.0645ZM28.997 59.8769L25.4254 74.163C25.3948 74.2795 25.3876 74.401 25.4043 74.5203C25.421 74.6396 25.4613 74.7544 25.5228 74.858C25.5843 74.9616 25.6658 75.052 25.7626 75.1238C25.8593 75.1956 25.9694 75.2474 26.0864 75.2763L26.7557 75.4251C26.8727 75.4565 26.9948 75.4643 27.1148 75.4481C27.2348 75.4318 27.3504 75.3918 27.4548 75.3305C27.5592 75.2691 27.6504 75.1875 27.723 75.0906C27.7955 74.9936 27.8481 74.8832 27.8775 74.7657L31.449 60.4796C31.5038 60.2382 31.4657 59.985 31.3424 59.7704C31.1124 59.387 30.8325 59.3778 30.1156 59.2175C29.9989 59.1863 29.877 59.1786 29.7573 59.1949C29.6375 59.2112 29.5221 59.2512 29.418 59.3126C29.3139 59.374 29.223 59.4555 29.1507 59.5524C29.0784 59.6493 29.0261 59.7596 28.997 59.8769Z" fill="#4B1010"/>
<path d="M40.0751 48.4311L40.5957 48.8773C40.8309 49.0915 40.9768 49.3863 41.0043 49.7032C41.0319 50.0201 40.9391 50.3357 40.7444 50.5872L31.1509 61.7442C30.9368 61.9797 30.6419 62.1259 30.3248 62.1536C30.0078 62.1813 29.6919 62.0885 29.4402 61.8937L28.9196 61.4474C28.6842 61.2333 28.5382 60.9383 28.5106 60.6212C28.483 60.3042 28.576 59.9884 28.7709 59.7368L38.3652 48.5844C38.4666 48.4609 38.5915 48.3587 38.7328 48.284C38.874 48.2092 39.0288 48.1634 39.188 48.1491C39.3471 48.1348 39.5076 48.1524 39.6599 48.2008C39.8122 48.2492 39.9533 48.3275 40.0751 48.4311Z" fill="#FFE55D"/>
<path d="M30.2402 62.4626C29.9474 62.4411 29.6619 62.3606 29.4009 62.2261C29.1399 62.0916 28.9087 61.9058 28.7213 61.6798C28.4274 61.4159 28.2438 61.051 28.207 60.6578C28.1702 60.2646 28.2829 59.872 28.5227 59.5582L38.1323 48.3813C38.2618 48.2281 38.4204 48.102 38.5988 48.0103C38.7772 47.9186 38.9719 47.8631 39.1719 47.8469C39.3718 47.8307 39.573 47.8542 39.7638 47.9161C39.9547 47.9779 40.1314 48.0768 40.2838 48.2072L40.7953 48.6458C41.0891 48.9098 41.2727 49.2748 41.3097 49.668C41.3466 50.0613 41.2341 50.4541 40.9946 50.7682L31.3811 61.9443C31.2399 62.1083 31.0647 62.2395 30.8677 62.329C30.6707 62.4185 30.4566 62.4641 30.2402 62.4626ZM39.3507 48.4449C39.0589 48.4579 38.7837 48.5845 38.584 48.7976L29.0042 59.937C28.8627 60.1269 28.7962 60.3623 28.8176 60.5982C28.839 60.834 28.9466 61.0537 29.12 61.2151L29.6406 61.6614C29.8309 61.8032 30.0671 61.8697 30.3035 61.8479C30.5399 61.8261 30.7599 61.7176 30.9211 61.5433L40.5123 50.3902C40.6538 50.2004 40.7202 49.965 40.6988 49.7293C40.6775 49.4936 40.5698 49.274 40.3965 49.1128C39.7387 48.5454 39.6773 48.4457 39.3507 48.4457V48.4449Z" fill="#4B1010"/>
<path d="M51.4584 112.188C51.246 110.917 49.346 111.554 46.2284 108.886C45.4356 108.208 44.8222 108.434 44.0424 108.363C43.1798 108.291 42.3717 108.148 41.4646 107.994C41.3862 107.981 41.3057 107.999 41.2402 108.044C41.1747 108.089 41.1293 108.158 41.1135 108.236L40.4594 111.456C40.1573 112.213 40.4249 112.984 41.3205 112.99C49.9847 113.538 49.9081 113.56 49.9847 113.56C51.0559 113.559 51.5926 112.859 51.4584 112.188Z" fill="#4B1010"/>
<path d="M34.7959 79.5917C35.1026 79.7129 35.4331 79.7642 35.7628 79.7405C37.2518 79.3686 37.3507 76.9526 34.8703 76.0217C34.0521 75.6506 29.7392 74.3119 30.6317 76.4687C31.3754 77.8819 33.234 79.0711 34.7959 79.5917Z" fill="#FFE55D"/>
<path d="M35.6194 80.041C35.2974 80.0571 34.9753 80.0004 34.6778 79.8762C33.1014 79.3471 31.16 78.1341 30.3588 76.6114C30.0628 75.8991 30.2537 75.5126 30.4646 75.3079C31.3962 74.4085 34.5521 75.5379 34.9961 75.7426C36.2267 76.2027 37.2718 77.2654 37.1069 78.588C37.0777 78.9695 36.9106 79.3274 36.6369 79.5947C36.3632 79.8621 36.0015 80.0207 35.6194 80.041ZM31.6055 75.574C30.7927 75.574 30.7015 75.8377 30.9154 76.3514C31.6254 77.6971 33.4779 78.8296 34.8941 79.3011C35.1663 79.4238 35.4668 79.469 35.7636 79.4338C36.8616 79.1332 36.9237 77.1205 34.7668 76.31C33.7613 75.8905 32.6929 75.6417 31.6055 75.574Z" fill="#4B1010"/>
<path d="M40.6219 73.91L36.062 75.2748L41.0091 91.8029L45.5682 90.4381L40.6219 73.91Z" fill="#FFE55D"/>
<path d="M40.7141 91.8913L35.7678 75.3624C35.7457 75.2855 35.7545 75.203 35.7924 75.1324C35.8775 74.9737 35.5746 75.0857 40.5332 73.6196C40.5718 73.6077 40.6125 73.6036 40.6527 73.6075C40.693 73.6114 40.7321 73.6233 40.7678 73.6424C40.8034 73.6615 40.8349 73.6875 40.8605 73.7188C40.886 73.7502 40.9051 73.7863 40.9166 73.8251L45.8629 90.3539C45.8749 90.3926 45.8791 90.4332 45.8752 90.4735C45.8714 90.5138 45.8595 90.553 45.8404 90.5887C45.8213 90.6243 45.7952 90.6558 45.7638 90.6814C45.7324 90.7069 45.6962 90.7259 45.6574 90.7373L41.0983 92.1013C41.0599 92.1128 41.0185 92.1167 40.9779 92.1128C40.9168 92.1065 40.8591 92.082 40.8121 92.0425C40.7651 92.003 40.731 91.9503 40.7141 91.8913ZM36.4433 75.4828L41.2141 91.4235L45.1858 90.2351L40.4151 74.2944L36.4433 75.4828Z" fill="#4B1010"/>
<path d="M45.653 89.929C45.8762 96.3988 45.8018 102.794 45.5043 109.264C44.8373 109.634 44.0729 109.789 43.3146 109.709C42.5564 109.629 41.8411 109.318 41.2657 108.818C41.4144 107.553 40.5963 95.2832 40.2988 90.3008C42.0838 90.6022 44.0176 90.1521 45.653 89.929Z" fill="#FFE55D"/>
<path d="M41.0643 109.048C41.0272 109.015 40.9985 108.974 40.9807 108.927C40.9628 108.881 40.9562 108.831 40.9615 108.782C41.1057 107.555 40.2837 95.1828 39.9931 90.3193C39.9893 90.25 40.009 90.1813 40.0489 90.1244C40.0888 90.0676 40.1467 90.0258 40.2132 90.0057C40.2576 89.9932 40.3042 89.9906 40.3497 89.9981C42.0749 90.2856 44.0071 89.8447 45.6119 89.6247C45.6759 89.6168 45.7408 89.6289 45.7976 89.6594C45.8545 89.6898 45.9005 89.7372 45.9293 89.7949C45.9483 89.8334 45.9587 89.8755 45.96 89.9183C46.1739 96.1152 46.1256 102.448 45.8112 109.278C45.8092 109.33 45.7941 109.38 45.7673 109.425C45.7405 109.469 45.7028 109.506 45.6579 109.532C44.9353 109.933 44.1066 110.102 43.2847 110.015C42.4628 109.929 41.6875 109.591 41.0643 109.048ZM41.5834 108.683C42.0884 109.084 42.6969 109.334 43.3382 109.403C43.9795 109.472 44.6273 109.358 45.2063 109.074C45.5068 102.452 45.5567 96.2992 45.3596 90.281C43.8054 90.6076 42.2159 90.7334 40.6288 90.6559C40.8979 95.0279 41.6647 106.835 41.5834 108.683Z" fill="#4B1010"/>
<path d="M42.604 90.8214C41.993 90.6567 41.3719 90.5322 40.7446 90.4488C41.6997 90.3247 42.6287 90.0485 43.4965 89.6307C43.671 89.5542 43.8274 89.4418 43.9555 89.3008C44.0837 89.1599 44.1807 88.9935 44.2402 88.8125C44.2402 88.7359 44.8352 87.6225 44.9096 87.6969C45.7314 88.2881 46.3071 89.1609 46.5271 90.149C46.7471 91.1372 46.596 92.1717 46.1027 93.0557C45.7239 93.7213 44.9878 92.7582 44.7647 92.4607C44.2655 91.6718 43.4982 91.0897 42.604 90.8214Z" fill="white"/>
<path d="M44.5156 92.6409C44.4249 92.5236 44.3255 92.4134 44.2181 92.3112C43.8218 91.714 43.2157 91.2874 42.5198 91.1158C41.9228 90.9601 41.3173 90.839 40.7064 90.7531C40.633 90.744 40.5653 90.7087 40.516 90.6535C40.4667 90.5984 40.439 90.5273 40.438 90.4533C40.4296 89.8813 41.411 90.3306 43.3594 89.3569C43.5012 89.2982 43.6283 89.2088 43.7313 89.095C43.8344 88.9812 43.9108 88.846 43.9551 88.699C44.1338 88.2175 44.4129 87.7789 44.774 87.4132C44.8332 87.3907 44.8974 87.3851 44.9595 87.397C45.0217 87.4089 45.0793 87.4379 45.1259 87.4806C46.0009 88.1153 46.6111 89.0505 46.8396 90.107C47.0681 91.1635 46.8988 92.2672 46.3642 93.2067C45.9088 94.0271 45.0776 93.3915 44.5156 92.6409ZM44.6521 91.8741C44.7794 91.9976 44.8975 92.1294 45.0063 92.2697C45.5431 92.9836 45.7654 92.9821 45.7731 92.9729C46.0943 92.9545 47.1877 90.0247 44.9511 88.1178C44.7901 88.3754 44.6483 88.6446 44.5271 88.9237C44.4536 89.144 44.334 89.3462 44.1763 89.5167C44.0186 89.6873 43.8263 89.8223 43.6124 89.9128C42.2729 90.5844 41.9386 90.3345 42.6808 90.52C43.4828 90.7138 44.1849 91.1971 44.6521 91.8772V91.8741Z" fill="#4B1010"/>
<path d="M32.2323 73.7798L25.4834 89.6584L29.8638 91.5201L36.6128 75.6422L32.2331 73.7806L32.2323 73.7798Z" fill="#FFE55D"/>
<path d="M29.7438 91.8028L25.3633 89.9404C25.2889 89.9081 25.2302 89.8479 25.1998 89.7728C25.1694 89.6976 25.1697 89.6135 25.2008 89.5386L31.9482 73.6608C31.9799 73.586 32.0401 73.5269 32.1154 73.4964C32.1908 73.4659 32.2751 73.4666 32.3499 73.4982C37.0225 75.4841 36.827 75.3584 36.8945 75.5278C36.9711 75.7118 36.9765 75.5639 30.1471 91.6403C30.1147 91.7149 30.0542 91.7738 29.9787 91.8042C29.9033 91.8346 29.8189 91.8341 29.7438 91.8028ZM25.8855 89.4957L29.7008 91.1181L36.2121 75.8038L32.3967 74.1822L25.8855 89.4957Z" fill="#4B1010"/>
<path d="M30.3341 91.1933C26.3923 96.25 22.228 101.232 17.8407 105.992C17.0975 105.838 16.4173 105.465 15.8873 104.922C15.3572 104.379 15.0015 103.69 14.8657 102.943C15.7582 102.05 23.0462 92.085 25.9468 88.068C27.0616 89.4083 28.8466 90.3008 30.3341 91.1933Z" fill="#FFE55D"/>
<path d="M17.78 106.292C16.976 106.128 16.2398 105.727 15.6666 105.14C15.0934 104.553 14.7097 103.807 14.565 103C14.5556 102.951 14.5584 102.9 14.5731 102.853C14.5878 102.805 14.614 102.761 14.6493 102.726C15.4881 101.887 22.3712 92.4954 25.6974 87.8903C25.7384 87.8327 25.7982 87.7912 25.8664 87.7729C25.9347 87.7545 26.0072 87.7605 26.0716 87.7898C26.1143 87.8089 26.1521 87.8375 26.182 87.8734C27.2639 89.1715 29.019 90.0449 30.4919 90.9305C30.5293 90.9526 30.5614 90.9826 30.5862 91.0183C30.6109 91.054 30.6277 91.0947 30.6353 91.1375C30.6432 91.1802 30.6419 91.224 30.6316 91.2662C30.6213 91.3084 30.6022 91.3479 30.5755 91.3821C26.399 96.7409 22.1903 101.726 18.066 106.199C18.0302 106.238 17.9851 106.267 17.935 106.283C17.885 106.299 17.8316 106.303 17.78 106.292ZM15.1983 103.034C15.3387 103.662 15.6497 104.239 16.097 104.701C16.5442 105.163 17.1105 105.493 17.7332 105.654C21.7371 101.302 25.8209 96.4687 29.8762 91.2793C28.4534 90.5577 27.1374 89.6424 25.9658 88.5597C23.2538 92.3167 16.4864 101.577 15.1983 103.034Z" fill="#4B1010"/>
<path d="M27.9541 91.6389C27.9218 91.0241 27.7155 90.4311 27.3591 89.929C27.0082 89.3985 26.6102 88.9007 26.1699 88.4415C26.967 88.9598 27.8473 89.3372 28.7723 89.5571C28.9588 89.6075 29.1535 89.6203 29.345 89.5947C29.5365 89.5692 29.7211 89.5059 29.8879 89.4084C30.2833 89.1943 30.71 89.0437 31.1523 88.9621C31.3926 89.9477 31.2689 90.9869 30.804 91.8885C30.3391 92.7901 29.5642 93.4936 28.622 93.8693C27.8767 94.1622 27.9526 92.9025 27.9526 92.5306C27.916 92.2344 27.9165 91.9349 27.9541 91.6389Z" fill="white"/>
<path d="M28.417 94.2219C27.6939 94.2219 27.6387 93.3019 27.6464 92.6225C27.61 92.387 27.6051 92.1477 27.6318 91.911C27.6457 91.7711 27.6508 91.6305 27.6472 91.49C27.5746 90.9908 27.3889 90.5148 27.1043 90.0984C26.7601 89.5884 26.3755 89.1068 25.9542 88.6584C25.8984 88.6054 25.8647 88.5333 25.8596 88.4565C25.8545 88.3797 25.8784 88.3038 25.9267 88.2439C25.975 88.1839 26.044 88.1443 26.1201 88.1329C26.1962 88.1215 26.2738 88.1391 26.3376 88.1823C27.1126 88.6725 27.9607 89.0362 28.8502 89.2596C28.9977 89.2998 29.1517 89.3104 29.3033 89.2908C29.4549 89.2712 29.6011 89.2217 29.7335 89.1453C29.7228 89.1453 31.0515 88.4253 31.3728 88.7451C31.4099 88.7842 31.4363 88.8323 31.4495 88.8846C31.7114 89.943 31.5806 91.0606 31.0813 92.0299C30.5821 92.9993 29.7482 93.7547 28.7344 94.156C28.6338 94.1981 28.526 94.2205 28.417 94.2219ZM27.365 89.4114C27.9792 90.1146 28.2942 91.0301 28.2429 91.9623C28.2215 92.1847 28.2276 92.4094 28.2598 92.6309C28.2506 93.3862 28.3472 93.5664 28.4055 93.6062C28.4414 93.6069 28.477 93.5995 28.5098 93.5848C29.3395 93.2567 30.0312 92.6534 30.4691 91.876C30.907 91.0986 31.0644 90.1944 30.915 89.3148C29.5487 89.7587 29.597 90.3468 27.365 89.4114Z" fill="#4B1010"/>
<path d="M45.9493 104.802H46.026C46.026 108.064 46.496 109.516 45.2823 109.786C44.5971 109.934 43.8892 109.944 43.1999 109.817C42.5105 109.689 41.8534 109.426 41.2668 109.042C40.3659 108.46 41.713 108.372 42.0105 108.224C44.2341 107.11 44.4749 105.369 45.9493 104.802Z" fill="white"/>
<path d="M46.3327 104.802C46.3327 104.595 46.0359 104.441 45.8419 104.516C44.244 105.129 44.0439 106.863 41.8732 107.948C41.6586 108.056 40.7569 108.09 40.6649 108.612C40.602 108.966 40.9716 109.214 41.1042 109.302C42.3644 110.105 43.8877 110.385 45.3512 110.084C46.851 109.737 46.3327 108.128 46.3327 104.802ZM45.2193 109.484C43.9159 109.752 42.5587 109.501 41.437 108.785C41.4099 108.768 41.3843 108.749 41.3603 108.728C41.6041 108.641 41.9737 108.586 42.1508 108.498C42.8213 108.158 43.4301 107.707 43.9519 107.166C44.4638 106.461 45.0596 105.821 45.7262 105.259C45.7522 106.716 45.763 105.752 45.8028 108.001C45.8105 108.836 45.7829 109.354 45.2178 109.484H45.2193Z" fill="#4B1010"/>
<path d="M20.2242 110.658L19.9228 110.751L20.1858 110.593C19.3094 109.249 18.7152 107.741 18.4392 106.16C18.2092 104.89 17.5682 105.206 15.2434 102.59C15.1902 102.53 15.1156 102.493 15.0356 102.488C14.9555 102.482 14.8765 102.508 14.8155 102.56L12.2692 104.733C12.0614 104.941 11.5101 105.493 11.7654 106.129C11.9326 106.464 11.7133 106.211 18.1156 111.902C18.3963 112.239 18.7689 112.487 19.1891 112.613C19.4308 112.661 19.6812 112.638 19.91 112.547C20.1389 112.455 20.3364 112.3 20.4787 112.099C20.7885 111.59 20.4626 111.051 20.2242 110.658Z" fill="#4B1010"/>
<path d="M20.666 102.793C20.7503 102.793 20.7426 102.865 20.7426 102.942C20.1476 103.686 19.6439 104.517 19.0328 105.247C18.5252 105.854 17.9862 106.82 17.099 106.363C15.8484 105.728 14.8897 104.636 14.4215 103.314C14.0719 102.339 15.1653 103.017 15.5372 103.165C17.908 103.429 19.2789 102.367 20.666 102.793Z" fill="white"/>
<path d="M20.7289 102.492C19.2422 102.054 17.8973 103.11 15.6124 102.866C15.1731 102.675 14.5436 102.294 14.1893 102.624C13.921 102.873 14.0835 103.287 14.1288 103.412C14.6278 104.808 15.6401 105.962 16.9596 106.638C18.3658 107.34 19.0651 105.53 20.9804 103.134C21.0185 103.078 21.0424 103.013 21.0499 102.946C21.0575 102.878 21.0485 102.81 21.0237 102.747C20.999 102.684 20.9592 102.628 20.9078 102.583C20.8564 102.539 20.795 102.508 20.7289 102.492ZM18.5307 105.375C18.0047 106.038 17.7056 106.325 17.2402 106.092C16.0343 105.477 15.1158 104.415 14.68 103.133C14.9331 103.21 15.3962 103.459 15.5012 103.471C17.7248 103.72 19.0574 102.85 20.2888 103.024C19.3365 104.27 19.8702 103.689 18.5307 105.375Z" fill="#4B1010"/>
<path d="M30.7803 68.5115V49.3995C30.7803 49.3995 30.7059 46.0542 36.212 46.0542C41.3431 46.0542 41.3431 49.4003 41.3431 49.4003V68.5115H30.7803Z" fill="#FFE55D"/>
<path d="M41.4139 68.8181H30.7798C30.6985 68.8181 30.6205 68.7858 30.563 68.7283C30.5055 68.6708 30.4731 68.5928 30.4731 68.5114V49.3995C30.5097 48.5936 30.8509 47.8317 31.4277 47.2679C32.4146 46.2581 34.0232 45.7474 36.2115 45.7474C41.5872 45.7474 41.6493 49.3634 41.6493 49.4002V68.3113C41.6878 68.356 41.7125 68.4108 41.7207 68.4693C41.7288 68.5277 41.7199 68.5872 41.695 68.6407C41.6702 68.6941 41.6305 68.7393 41.5806 68.7708C41.5307 68.8023 41.4729 68.8187 41.4139 68.8181ZM31.0865 68.2047H41.0328V49.3995C41.0328 49.2768 40.95 46.3601 36.2084 46.3601C34.2041 46.3601 32.7466 46.8056 31.8778 47.6842C31.4075 48.1337 31.1247 48.7446 31.0865 49.3941V68.2047Z" fill="#4B1010"/>
<path d="M36.1352 65.9818C37.1619 66.6021 38.3588 67.1573 39.4813 66.7256C40.8875 66.1889 41.3407 64.5703 41.6382 63.0828C41.8122 71.7739 41.8613 71.3368 41.6382 72.007C41.3426 72.5917 40.8379 73.0438 40.2243 73.2736C37.5476 74.6124 34.2659 74.0404 31.4496 73.0505C30.6284 72.7614 30.5571 72.01 30.5571 71.2663C30.5571 68.9607 30.5571 66.7294 30.7059 64.4246C30.7112 64.2176 30.7619 64.0144 30.8546 63.8296C31.8215 62.5621 35.3041 65.4819 36.1352 65.9826V65.9818Z" fill="#FFE55D"/>
<path d="M31.3495 73.3381C30.9621 73.1631 30.6438 72.8643 30.4448 72.4887C30.2458 72.1131 30.1772 71.682 30.2499 71.2632C30.2499 68.9254 30.2499 66.7172 30.4033 64.4016C30.4103 64.1538 30.4718 63.9106 30.5835 63.6893C31.7696 62.1267 34.9877 64.8816 36.2965 65.7204C37.314 66.3016 38.389 66.8353 39.3704 66.4419C40.6517 65.9696 41.0573 64.4292 41.3402 63.0222C41.3551 62.9482 41.3969 62.8823 41.4574 62.8371C41.5179 62.792 41.593 62.7707 41.6682 62.7775C41.7434 62.7842 41.8135 62.8185 41.865 62.8737C41.9166 62.9289 41.9459 63.0012 41.9475 63.0767C42.1169 71.7547 42.1775 71.3576 41.9314 72.1036C41.6039 72.7743 41.0334 73.2952 40.3358 73.5604C37.5839 74.9337 34.2363 74.3256 31.3495 73.3381ZM31.098 64.0129C30.8434 64.6033 30.8633 70.9473 30.8633 71.2632C30.8633 72.0706 30.973 72.5483 31.5534 72.7592C35.1502 73.9898 37.9435 74.0688 40.0873 72.9961C40.6385 72.7938 41.0936 72.3918 41.3624 71.8697C41.548 71.2931 41.5012 71.5247 41.3716 65.1308C40.4661 67.267 38.5178 68.092 35.378 65.8262C34.5246 65.209 31.7428 63.1671 31.098 64.0129Z" fill="#4B1010"/>
<path d="M30.4825 75.5018C31.5349 75.1698 32.6706 75.219 33.6904 75.6405C34.7102 76.0621 35.549 76.8292 36.0598 77.8074C36.177 78.1183 36.2306 78.4496 36.2174 78.7816C36.2043 79.1137 36.1246 79.4397 35.9832 79.7404C38.5671 79.6545 38.4897 79.6775 38.6607 79.5916C38.8255 79.5188 38.9758 79.4183 39.1061 79.2941C39.8009 78.6986 40.4248 78.025 40.9655 77.2868C41.2986 76.9216 41.5519 76.491 41.7092 76.0224C41.7999 75.632 41.8498 75.2332 41.858 74.8324C41.858 74.163 41.9347 73.4937 41.9347 72.8243C41.9347 72.4524 42.1578 71.5607 41.858 71.2632C41.4117 72.4524 40.3705 72.8987 39.1805 73.1962C36.9384 73.6975 34.6034 73.5949 32.414 72.8987C31.74 72.6901 30.629 72.1557 30.5546 71.4119C30.2571 72.2301 30.5546 72.973 30.5546 73.7889C30.4932 74.3578 30.4695 74.9298 30.4825 75.5018Z" fill="white"/>
<path d="M35.9857 80.0472C35.9069 80.0467 35.8312 80.0161 35.7742 79.9617C35.7172 79.9072 35.6831 79.8331 35.679 79.7543C35.6767 79.7021 35.6878 79.6501 35.7112 79.6033C35.835 79.3386 35.904 79.0517 35.914 78.7597C35.9241 78.4677 35.8749 78.1767 35.7695 77.9042C35.2852 77.0014 34.5003 76.2964 33.5509 75.9113C32.6015 75.5262 31.5473 75.4853 30.5709 75.7956C30.5252 75.8093 30.4768 75.8122 30.4297 75.8039C30.3826 75.7956 30.3381 75.7765 30.2997 75.748C30.2614 75.7194 30.2302 75.6823 30.2087 75.6396C30.1873 75.5969 30.1761 75.5497 30.1761 75.5019C30.1761 73.2922 30.3379 74.2268 30.186 73.023C30.069 72.4532 30.0974 71.863 30.2688 71.3071C30.2927 71.2416 30.3382 71.1863 30.3977 71.1502C30.4572 71.114 30.5272 71.0992 30.5962 71.1081C30.6653 71.117 30.7293 71.1492 30.7776 71.1992C30.826 71.2493 30.8558 71.3144 30.8623 71.3837C30.9137 71.8997 31.7824 72.3675 32.5131 72.6105C34.6531 73.2923 36.9361 73.3913 39.1271 72.8973C40.3079 72.6013 41.1866 72.1903 41.5738 71.1568C41.592 71.1089 41.6218 71.0663 41.6607 71.0329C41.6995 70.9995 41.7461 70.9763 41.7962 70.9656C41.8463 70.9548 41.8983 70.9568 41.9475 70.9713C41.9966 70.9858 42.0413 71.0124 42.0775 71.0487C42.4011 71.3722 42.3298 71.9856 42.2723 72.4779C42.2148 72.9701 42.2677 72.6918 42.2041 73.8481C42.1044 75.6384 42.2907 76.1276 41.2073 77.4809C40.6582 78.2345 40.0223 78.9209 39.3127 79.5258C38.779 80.0618 38.4355 80.0066 35.9857 80.0472ZM36.3346 77.6703C36.5418 78.23 36.5768 78.8388 36.435 79.4185C38.5436 79.3487 38.5543 79.4185 38.8886 79.0773C39.5718 78.4953 40.1844 77.8351 40.7135 77.1106C41.0256 76.7717 41.264 76.373 41.4143 75.9374C41.4971 75.5748 41.5431 75.2044 41.5508 74.8326C41.5508 74.154 41.6275 73.48 41.6275 72.8237C41.6275 72.6627 41.6643 72.4158 41.6865 72.1819C41.0409 72.872 40.1883 73.332 39.2574 73.4946C38.079 73.7468 36.8729 73.8496 35.6691 73.8013C34.5097 73.7246 31.8591 73.3865 30.7335 72.323C30.7412 72.5277 30.7665 72.7355 30.7933 72.9471C30.8738 73.6648 30.8738 74.3894 30.7933 75.1078C31.8705 74.8523 33.0023 74.966 34.0072 75.4306C35.012 75.8953 35.8317 76.684 36.3346 77.6703Z" fill="#4B1010"/>
<path d="M31.97 52.8207C32.6209 52.8207 33.2452 52.5621 33.7055 52.1018C34.1658 51.6416 34.4244 51.0173 34.4244 50.3664C34.4244 49.7154 34.1658 49.0911 33.7055 48.6309C33.2452 48.1706 32.6209 47.912 31.97 47.912C31.3191 47.912 30.6948 48.1706 30.2345 48.6309C29.7742 49.0911 29.5156 49.7154 29.5156 50.3664C29.5156 51.0173 29.7742 51.6416 30.2345 52.1018C30.6948 52.5621 31.3191 52.8207 31.97 52.8207Z" fill="white"/>
<path d="M31.9698 53.1265C31.2377 53.1265 30.5356 52.8357 30.0179 52.3181C29.5003 51.8004 29.2095 51.0983 29.2095 50.3663C29.2095 49.6342 29.5003 48.9321 30.0179 48.4144C30.5356 47.8968 31.2377 47.606 31.9698 47.606C32.7018 47.606 33.4039 47.8968 33.9216 48.4144C34.4392 48.9321 34.7301 49.6342 34.7301 50.3663C34.7301 51.0983 34.4392 51.8004 33.9216 52.3181C33.4039 52.8357 32.7018 53.1265 31.9698 53.1265ZM31.9698 48.2194C31.4002 48.2194 30.8539 48.4456 30.4511 48.8484C30.0484 49.2512 29.8221 49.7974 29.8221 50.367C29.8221 50.9366 30.0484 51.4829 30.4511 51.8856C30.8539 52.2884 31.4002 52.5147 31.9698 52.5147C32.5395 52.5147 33.0858 52.2884 33.4887 51.8855C33.8915 51.4827 34.1178 50.9363 34.1178 50.3666C34.1178 49.7969 33.8915 49.2506 33.4887 48.8477C33.0858 48.4449 32.5395 48.2186 31.9698 48.2186V48.2194Z" fill="#4B1010"/>
<path d="M41.6396 62.0416L41.8604 61.2978C41.9711 60.9741 42.2046 60.7069 42.5106 60.5539C42.8166 60.4008 43.1704 60.3742 43.4959 60.4797L58.8147 65.5403C59.1385 65.651 59.4057 65.8845 59.5587 66.1905C59.7118 66.4964 59.7384 66.8503 59.6329 67.1757L59.4097 67.9195C59.299 68.2432 59.0655 68.5104 58.7595 68.6635C58.4536 68.8165 58.0997 68.8431 57.7743 68.7376L42.4546 63.6771C42.1315 63.5657 41.865 63.332 41.7125 63.0261C41.5601 62.7202 41.5339 62.3666 41.6396 62.0416Z" fill="#FFE55D"/>
<path d="M58.1815 69.1079C57.7858 69.1079 58.1477 69.2061 42.3596 63.9707C41.9594 63.834 41.629 63.5452 41.4399 63.1669C41.2508 62.7885 41.2182 62.351 41.349 61.9488L41.5714 61.2096C41.7059 60.8065 41.9944 60.473 42.3739 60.2816C42.7533 60.0903 43.193 60.0568 43.5971 60.1883L58.9122 65.245C59.3134 65.3813 59.6447 65.6702 59.8343 66.0491C60.0239 66.4281 60.0565 66.8665 59.9251 67.2693L59.705 68.0038C59.5988 68.3242 59.3945 68.6031 59.1211 68.8011C58.8477 68.9991 58.519 69.1062 58.1815 69.1072V69.1079ZM43.0949 60.722C42.887 60.7211 42.684 60.7857 42.5148 60.9065C42.3455 61.0273 42.2186 61.1983 42.1518 61.3952C41.8881 62.2264 41.7738 62.4648 41.9862 62.8904C42.0431 63.0064 42.1224 63.11 42.2195 63.1953C42.3166 63.2806 42.4296 63.3458 42.5521 63.3872L57.8725 68.4432C58.1207 68.5233 58.3905 68.5028 58.6239 68.3863C58.8572 68.2697 59.0356 68.0664 59.1207 67.8198L59.3408 67.0837C59.4233 66.8348 59.4044 66.5633 59.2882 66.3282C59.1719 66.0931 58.9677 65.9133 58.7197 65.8278C43.1264 60.6553 43.3365 60.7212 43.0957 60.7212L43.0949 60.722Z" fill="#4B1010"/>
<path d="M30.9286 50.2919L31.4493 49.7706C31.5706 49.6472 31.7152 49.5493 31.8748 49.4824C32.0343 49.4155 32.2056 49.3811 32.3786 49.3811C32.5516 49.3811 32.7228 49.4155 32.8824 49.4824C33.0419 49.5493 33.1866 49.6472 33.3079 49.7706L44.6864 61.1491C44.8099 61.2704 44.9079 61.4151 44.9749 61.5747C45.0418 61.7344 45.0763 61.9057 45.0763 62.0788C45.0763 62.2519 45.0418 62.4232 44.9749 62.5828C44.9079 62.7425 44.8099 62.8872 44.6864 63.0085L44.1658 63.5291C44.0445 63.6525 43.8998 63.7506 43.7402 63.8175C43.5805 63.8845 43.4092 63.9189 43.2361 63.9189C43.063 63.9189 42.8917 63.8845 42.7321 63.8175C42.5724 63.7506 42.4277 63.6525 42.3064 63.5291L30.9286 52.1498C30.7122 51.8885 30.5938 51.5598 30.5938 51.2205C30.5938 50.8812 30.7122 50.5525 30.9286 50.2912V50.2919Z" fill="#FFE55D"/>
<path d="M42.09 63.7452L30.7122 52.3667C30.44 52.0468 30.2905 51.6404 30.2905 51.2204C30.2905 50.8003 30.44 50.394 30.7122 50.0741L31.2336 49.555C31.5405 49.2569 31.9516 49.0901 32.3795 49.0901C32.8074 49.0901 33.2185 49.2569 33.5254 49.555L44.9032 60.9289C45.0559 61.0783 45.1772 61.2566 45.26 61.4534C45.3429 61.6503 45.3855 61.8617 45.3855 62.0752C45.3855 62.2888 45.3429 62.5002 45.26 62.6971C45.1772 62.8939 45.0559 63.0722 44.9032 63.2215L44.3826 63.7421C44.2331 63.8944 44.0548 64.0154 43.8581 64.098C43.6614 64.1807 43.4503 64.2234 43.2369 64.2237C43.0236 64.224 42.8123 64.1818 42.6154 64.0997C42.4185 64.0175 42.2399 63.897 42.09 63.7452ZM31.1515 50.5012C30.9874 50.708 30.8986 50.9646 30.9 51.2286C30.9014 51.4927 30.9929 51.7483 31.1592 51.9534L42.524 63.312C42.7145 63.4982 42.9703 63.6024 43.2367 63.6024C43.503 63.6024 43.7588 63.4982 43.9494 63.312L44.4707 62.7906C44.5656 62.6978 44.6409 62.587 44.6923 62.4647C44.7438 62.3423 44.7703 62.211 44.7703 62.0783C44.7703 61.9456 44.7438 61.8143 44.6923 61.6919C44.6409 61.5696 44.5656 61.4588 44.4707 61.366L33.0914 49.9874C32.9011 49.8009 32.6452 49.6964 32.3787 49.6964C32.1122 49.6964 31.8564 49.8009 31.666 49.9874L31.1508 50.5012H31.1515Z" fill="#4B1010"/>
<path d="M36.3568 47.4665C39.3548 47.4665 41.7854 44.4033 41.7854 40.6248C41.7854 36.8462 39.3548 33.7831 36.3568 33.7831C33.3588 33.7831 30.9282 36.8462 30.9282 40.6248C30.9282 44.4033 33.3588 47.4665 36.3568 47.4665Z" fill="#FFE55D"/>
<path d="M34.3361 44.3496C34.3361 45.019 34.2334 47.0133 34.2334 47.0133C34.9066 47.1873 35.5913 47.3139 36.2829 47.3921C36.9904 47.3939 37.6904 47.2471 38.3376 46.9613C38.9848 46.6754 39.5648 46.2569 40.04 45.7328C40.3475 45.3295 40.6166 44.8978 40.8428 44.4439C38.6908 44.8633 36.4751 44.8312 34.3361 44.3496Z" fill="white"/>
<path d="M36.3574 33.4795C33.1945 33.4795 30.6221 36.686 30.6221 40.6271C30.6221 44.5682 33.1945 47.7755 36.3574 47.7755C39.5202 47.7755 42.0926 44.569 42.0926 40.6271C42.0926 36.6853 39.5194 33.4795 36.3574 33.4795ZM31.2355 40.6271C31.2355 37.0234 33.5357 34.0921 36.3574 34.0921C38.689 34.0921 40.6611 36.0903 41.2783 38.8145C39.1836 39.4755 36.9385 39.4954 34.8323 38.8697C34.7904 38.8586 34.7465 38.8564 34.7037 38.8634C34.6609 38.8704 34.62 38.8863 34.5838 38.9102C34.5476 38.9341 34.5169 38.9654 34.4936 39.0021C34.4704 39.0387 34.4551 39.0798 34.4489 39.1228C34.129 41.5552 33.9967 44.0086 34.0533 46.4613C33.1419 45.7931 32.4085 44.9114 31.9172 43.8937C31.4259 42.876 31.1918 41.7533 31.2355 40.6241V40.6271ZM34.6636 46.7949C34.6636 46.1462 34.669 45.4975 34.6797 44.8488C36.4801 45.2468 38.3398 45.2989 40.1597 45.0022C38.686 47.0816 36.4877 47.6099 34.6636 46.7918V46.7949Z" fill="#4B1010"/>
<path d="M32.1934 43.5238L29.5903 42.78V38.9141L32.1934 39.6578V43.5238Z" fill="#FFE55D"/>
<path d="M32.9536 39.1418L31.3097 38.6242V33.2723C31.4963 33.2007 31.652 33.066 31.7496 32.8916C31.8473 32.7172 31.8808 32.5141 31.8444 32.3175C31.8079 32.121 31.7039 31.9434 31.5502 31.8156C31.3965 31.6878 31.2029 31.6178 31.003 31.6178C30.8031 31.6178 30.6096 31.6878 30.4559 31.8156C30.3022 31.9434 30.1981 32.121 30.1617 32.3175C30.1252 32.5141 30.1588 32.7172 30.2564 32.8916C30.3541 33.066 30.5097 33.2007 30.6963 33.2723V38.4325C30.1297 38.2539 30.3521 38.2255 29.4634 38.6342C29.4097 38.6585 29.3642 38.6977 29.3322 38.7472C29.3003 38.7967 29.2833 38.8544 29.2832 38.9133V42.7808C29.2831 42.8475 29.3048 42.9124 29.3449 42.9656C29.385 43.0189 29.4414 43.0576 29.5056 43.076C32.1723 43.8427 32.2758 43.9148 32.4959 43.7906C33.0525 43.4724 33.1706 43.4479 33.1706 43.227V39.4347C33.1705 39.3691 33.1494 39.3052 33.1104 39.2525C33.0713 39.1998 33.0164 39.161 32.9536 39.1418ZM31.8863 43.1174L29.8966 42.5492V39.3204L31.8863 39.8878V43.1174Z" fill="#4B1010"/>
<path d="M31.8862 66.4289V65.2397C31.8862 65.1583 31.9185 65.0803 31.9761 65.0228C32.0336 64.9653 32.1116 64.933 32.1929 64.933C32.2743 64.933 32.3523 64.9653 32.4098 65.0228C32.4673 65.0803 32.4996 65.1583 32.4996 65.2397V66.4281C32.4996 66.4684 32.4917 66.5083 32.4763 66.5455C32.4609 66.5827 32.4383 66.6165 32.4098 66.645C32.3813 66.6735 32.3475 66.6961 32.3103 66.7115C32.2731 66.7269 32.2332 66.7348 32.1929 66.7348C32.1527 66.7348 32.1128 66.7269 32.0756 66.7115C32.0383 66.6961 32.0045 66.6735 31.9761 66.645C31.9476 66.6165 31.925 66.5827 31.9096 66.5455C31.8942 66.5083 31.8862 66.4684 31.8862 66.4281V66.4289Z" fill="#4B1010"/>
<path d="M97.3041 91.2388C88.2733 80.3303 88.3998 80.3763 88.2319 80.3602C88.0786 80.3464 88.1775 80.3104 85.9194 82.1697C85.8929 82.1912 85.871 82.2178 85.855 82.2479C85.8391 82.2783 85.8289 82.3113 85.8251 82.3453C85.8195 82.4139 85.8407 82.4821 85.8841 82.5355L94.7784 93.3198C94.8 93.3465 94.8269 93.3684 94.8574 93.3842C94.8873 93.4003 94.9202 93.4102 94.954 93.4133C94.9885 93.4172 95.023 93.4133 95.0552 93.4034C95.0881 93.3936 95.1187 93.3772 95.1449 93.3551C97.4452 91.4551 97.3463 91.5793 97.3608 91.429C97.3643 91.3951 97.3611 91.3609 97.3514 91.3283C97.3417 91.2956 97.3256 91.2652 97.3041 91.2388Z" fill="#4B1010"/>
<path d="M98.4519 90.896C99.4341 91.4649 99.4932 92.234 99.5676 93.2729C99.5676 93.2729 96.8157 92.4548 96.5182 92.3804C96.7505 93.4109 96.9246 94.4537 97.0388 95.5042C97.0096 95.5326 96.9744 95.5543 96.9359 95.5675C96.8973 95.5808 96.8562 95.5853 96.8157 95.5808C95.329 95.7296 94.2854 94.019 94.4388 92.6802C94.5088 92.2501 94.6848 91.844 94.9507 91.4987C95.2167 91.1534 95.5643 90.8796 95.9623 90.702C96.3608 90.5252 96.797 90.4504 97.2316 90.4843C97.6663 90.5181 98.0856 90.6596 98.4519 90.896Z" fill="white"/>
<path d="M96.6214 95.8976C95.0879 95.8976 93.9646 94.1486 94.1317 92.6466C94.247 91.9218 94.6295 91.2666 95.2038 90.8098C95.7781 90.3529 96.5027 90.1277 97.2348 90.1784C97.7197 90.2126 98.1886 90.3665 98.5996 90.6262C99.7367 91.3262 99.8034 92.2624 99.8739 93.2538C99.877 93.3032 99.8683 93.3527 99.8484 93.398C99.8285 93.4434 99.7981 93.4833 99.7597 93.5145C99.7211 93.5456 99.6755 93.5668 99.6268 93.5762C99.5782 93.5857 99.528 93.5832 99.4806 93.569C98.7767 93.3596 97.5737 93.0039 96.905 92.8107L97.3459 95.5065C97.3459 95.8309 96.9465 95.8976 96.6214 95.8976ZM94.7382 92.7347C94.6125 93.8772 95.5004 95.3455 96.7195 95.2811L96.2165 92.4357C96.2081 92.3854 96.2122 92.3338 96.2283 92.2854C96.2445 92.237 96.2723 92.1933 96.3093 92.1581C96.3468 92.1234 96.3924 92.0986 96.4419 92.0859C96.4915 92.0732 96.5434 92.073 96.593 92.0853C96.823 92.1428 98.4332 92.622 99.226 92.8521C99.2384 92.5112 99.1581 92.1734 98.9936 91.8746C98.8291 91.5758 98.5867 91.3272 98.2921 91.1552C97.9681 90.9446 97.5967 90.8182 97.2115 90.7877C96.8262 90.7571 96.4395 90.8233 96.0864 90.9802C95.7333 91.1372 95.425 91.3799 95.1895 91.6863C94.9541 91.9927 94.7989 92.3531 94.7382 92.7347Z" fill="#4B1010"/>
<path d="M86.628 83.3105C87.3974 83.3105 88.1353 83.0049 88.6794 82.4609C89.2234 81.9168 89.529 81.1789 89.529 80.4095C89.529 79.6401 89.2234 78.9023 88.6794 78.3582C88.1353 77.8142 87.3974 77.5085 86.628 77.5085C85.8587 77.5085 85.1208 77.8142 84.5767 78.3582C84.0327 78.9023 83.7271 79.6401 83.7271 80.4095C83.7271 81.1789 84.0327 81.9168 84.5767 82.4609C85.1208 83.0049 85.8587 83.3105 86.628 83.3105Z" fill="white"/>
<path d="M86.6276 83.6174C85.9935 83.617 85.3736 83.4289 84.8462 83.0767C84.3188 82.7245 83.9075 82.224 83.6642 81.6384C83.4829 81.2002 83.401 80.7273 83.4243 80.2537C83.4476 79.7801 83.5757 79.3176 83.7991 78.8993C84.0226 78.4811 84.336 78.1176 84.7168 77.835C85.0975 77.5524 85.5362 77.3577 86.0012 77.2649C86.4663 77.1724 86.9461 77.1841 87.4061 77.2993C87.8661 77.4146 88.2948 77.6303 88.6614 77.9311C89.028 78.2319 89.3233 78.6103 89.5261 79.0389C89.7289 79.4676 89.8341 79.9359 89.8342 80.4101C89.8336 81.2604 89.4956 82.0757 88.8944 82.677C88.2932 83.2784 87.478 83.6166 86.6276 83.6174ZM86.6276 77.8162C86.1147 77.8162 85.6132 77.9687 85.1862 78.2532C84.7602 78.5388 84.4282 78.944 84.232 79.4178C84.0358 79.8917 83.9842 80.413 84.0836 80.9161C84.1834 81.4194 84.4303 81.8818 84.7931 82.2446C85.156 82.6074 85.6183 82.8543 86.1216 82.9541C86.6673 83.0628 87.2335 82.993 87.7365 82.7551C88.2394 82.5172 88.6526 82.1238 88.9148 81.6331C89.1771 81.1424 89.2745 80.5803 89.1928 80.03C89.1111 79.4796 88.8545 78.9701 88.4609 78.5768C87.9747 78.0905 87.3154 77.817 86.6276 77.8162Z" fill="#4B1010"/>
<path d="M87.1237 108.028C87.1152 105.937 85.3318 104.278 83.0852 105.384C82.4235 105.71 81.3393 106.567 81.5011 108.655C81.6261 110.265 82.4641 111.677 84.0644 111.677C85.8079 111.677 87.2993 110.308 87.1237 108.028Z" fill="#4B1010"/>
<path d="M71.1602 74.4609C69.9006 74.4695 68.6951 74.9737 67.8045 75.8644C66.9138 76.755 66.4096 77.9606 66.401 79.2201V106.066C66.3175 106.935 66.4718 107.809 66.8472 108.597C67.2919 109.134 67.8509 109.566 68.4835 109.861C73.0073 111.91 78.7985 111.977 83.6536 110.53C84.7239 110.23 85.7145 109.697 86.5542 108.968C86.8586 108.711 87.0894 108.377 87.2236 108.002C87.4536 107.077 87.3723 107.969 87.3723 79.1473C87.3637 77.8877 86.8595 76.6822 85.9688 75.7915C85.0782 74.9009 83.8727 74.3967 82.6131 74.3881L71.1602 74.4609Z" fill="#FFE55D"/>
<path d="M77.4789 111.811C74.2585 111.811 71.5112 111.594 68.3545 110.138C67.6803 109.827 67.0853 109.368 66.614 108.794C66.188 107.943 66.0085 106.989 66.0957 106.041V79.22C66.0971 77.8769 66.6313 76.5891 67.581 75.6394C68.5308 74.6897 69.8185 74.1555 71.1616 74.1541L82.6122 74.0774C83.9558 74.0782 85.2441 74.6121 86.1943 75.5619C87.1445 76.5117 87.679 77.7998 87.6805 79.1433C87.6805 108.044 87.7679 107.092 87.5225 108.072C87.3685 108.515 87.0981 108.908 86.7397 109.21C85.8752 109.968 84.849 110.519 83.7394 110.82C81.7142 111.463 79.6037 111.798 77.4789 111.811ZM82.6161 74.6931L71.1631 74.7698C69.9871 74.7854 68.8637 75.2596 68.0321 76.0912C67.2004 76.9228 66.7263 78.0463 66.7106 79.2223V106.068C66.6303 106.888 66.7734 107.715 67.1247 108.46C67.5321 108.938 68.0394 109.32 68.6106 109.581C71.2133 110.738 74.0449 111.289 76.8915 111.191C79.1547 111.249 81.4115 110.927 83.5684 110.239C84.5986 109.959 85.5512 109.447 86.3532 108.743C86.6223 108.516 86.8263 108.221 86.9436 107.889C87.1468 107.063 87.0717 107.648 87.0709 79.1487C87.0562 77.9712 86.5817 76.846 85.7488 76.0136C84.9159 75.1811 83.7905 74.7072 82.613 74.6931H82.6161Z" fill="#4B1010"/>
<path d="M87.6034 89.2223C86.9854 88.8543 85.6282 91.2328 76.8122 91.4099C73.2951 91.3778 69.8083 90.7557 66.4971 89.5697C66.451 89.5548 66.402 89.5509 66.3541 89.5582C66.3062 89.5655 66.2606 89.5839 66.2211 89.6119C66.1818 89.6404 66.1499 89.6777 66.1278 89.7209C66.1056 89.764 66.094 89.8118 66.0938 89.8603V95.8103C66.0931 95.8645 66.107 95.9179 66.1339 95.965C66.1609 96.012 66.2 96.051 66.2471 96.0779C69.9007 98.1235 74.4674 98.8044 78.6792 98.5706C81.8012 98.4939 84.8586 97.6642 87.5911 96.1522C87.6389 96.1255 87.6787 96.0866 87.7065 96.0395C87.7342 95.9923 87.7489 95.9386 87.7491 95.8839C87.7529 88.9425 87.8135 89.3466 87.6034 89.2223Z" fill="#4B1010"/>
<path d="M83.9507 75.9483V63.9011C83.8019 62.3392 82.5383 59.6617 76.7379 59.6617C70.9374 59.6617 69.6731 62.2687 69.5243 63.9019V75.9483C69.5243 75.9483 69.0781 78.5552 76.8084 78.5552C84.5388 78.5552 83.9507 75.9483 83.9507 75.9483Z" fill="#FFE55D"/>
<path d="M76.8117 78.8572C72.1245 78.8572 70.3273 77.8934 69.6449 77.0837C69.4938 76.9275 69.3779 76.7407 69.3049 76.536C69.2319 76.3313 69.2035 76.1134 69.2216 75.8968L69.217 63.901C69.3412 62.5147 70.3211 59.3557 76.7365 59.3557C83.135 59.3557 84.1264 62.514 84.256 63.8719V75.9213C84.277 76.1311 84.2543 76.343 84.1894 76.5435C84.1244 76.7441 84.0187 76.9291 83.8788 77.0868C82.9433 78.2614 80.5657 78.8572 76.8117 78.8572ZM76.735 59.9691C70.8249 59.9691 69.9354 62.7378 69.8273 63.9286V75.9482C69.8199 76.0912 69.8435 76.2342 69.8964 76.3673C69.9494 76.5005 70.0304 76.6206 70.134 76.7195C70.6378 77.2884 72.1744 78.2446 76.8048 78.2446C81.4206 78.2446 82.8996 77.2969 83.3712 76.7325C83.4648 76.6381 83.5375 76.5249 83.5844 76.4005C83.6313 76.276 83.6514 76.143 83.6434 76.0103L83.6365 63.901C83.5314 62.7386 82.6313 59.9691 76.7365 59.9691H76.735Z" fill="#4B1010"/>
<path d="M75.6222 70.2221C75.9891 70.2308 76.354 70.166 76.6954 70.0316C77.0369 69.8972 77.348 69.6959 77.6105 69.4395C77.873 69.1831 78.0816 68.8768 78.224 68.5386C78.3665 68.2005 78.4398 67.8372 78.4398 67.4703C78.4398 67.1033 78.3665 66.7401 78.224 66.4019C78.0816 66.0637 77.873 65.7574 77.6105 65.501C77.348 65.2447 77.0369 65.0433 76.6954 64.9089C76.354 64.7745 75.9891 64.7098 75.6222 64.7184C74.9036 64.7354 74.2202 65.0328 73.718 65.547C73.2157 66.0612 72.9346 66.7515 72.9346 67.4703C72.9346 68.1891 73.2157 68.8793 73.718 69.3936C74.2202 69.9078 74.9036 70.2052 75.6222 70.2221Z" fill="white"/>
<path d="M75.6222 70.5289C75.2164 70.5354 74.8134 70.4612 74.4366 70.3104C74.0598 70.1597 73.7168 69.9355 73.4275 69.6508C73.1382 69.3662 72.9084 69.0269 72.7515 68.6526C72.5946 68.2783 72.5138 67.8766 72.5137 67.4707C72.5136 67.0649 72.5942 66.6631 72.7509 66.2887C72.9076 65.9144 73.1372 65.5749 73.4264 65.2902C73.7155 65.0054 74.0585 64.781 74.4352 64.6301C74.8119 64.4792 75.2149 64.4047 75.6207 64.411C76.4236 64.4235 77.1894 64.7512 77.7528 65.3233C78.3162 65.8955 78.6321 66.6662 78.6323 67.4692C78.6325 68.2722 78.317 69.0431 77.7539 69.6155C77.1907 70.1879 76.4251 70.516 75.6222 70.5289ZM75.6222 65.0259C75.2974 65.0201 74.9747 65.079 74.6729 65.1992C74.3711 65.3194 74.0963 65.4986 73.8645 65.7262C73.6327 65.9538 73.4486 66.2252 73.3228 66.5248C73.1971 66.8243 73.1323 67.1459 73.1322 67.4707C73.1321 67.7956 73.1967 68.1172 73.3223 68.4168C73.4478 68.7164 73.6318 68.988 73.8634 69.2157C74.0951 69.4434 74.3698 69.6228 74.6715 69.7432C74.9732 69.8636 75.2959 69.9227 75.6207 69.917C76.2618 69.9059 76.8729 69.6434 77.3224 69.1862C77.7719 68.7289 78.0239 68.1135 78.0241 67.4722C78.0243 66.831 77.7727 66.2154 77.3234 65.7579C76.8742 65.3003 76.2633 65.0375 75.6222 65.0259Z" fill="#4B1010"/>
<path d="M82.3149 69.5528C82.9855 69.5528 83.6287 69.2864 84.103 68.8122C84.5772 68.338 84.8436 67.6948 84.8436 67.0241C84.8436 66.3534 84.5772 65.7102 84.103 65.236C83.6287 64.7618 82.9855 64.4954 82.3149 64.4954C81.6442 64.4954 81.001 64.7618 80.5268 65.236C80.0525 65.7102 79.7861 66.3534 79.7861 67.0241C79.7861 67.6948 80.0525 68.338 80.5268 68.8122C81.001 69.2864 81.6442 69.5528 82.3149 69.5528Z" fill="white"/>
<path d="M82.3152 69.8595C81.8958 69.8593 81.4817 69.7661 81.1026 69.5866C80.7235 69.4072 80.3889 69.146 80.1228 68.8217C79.8567 68.4975 79.6658 68.1184 79.5638 67.7116C79.4618 67.3047 79.4511 66.8804 79.5327 66.469C79.6143 66.0574 79.7863 65.6691 80.0361 65.3321C80.286 64.995 80.6075 64.7176 80.9776 64.5199C81.3476 64.3221 81.7569 64.209 82.176 64.1885C82.5951 64.1681 83.0135 64.241 83.401 64.4018C83.9195 64.6162 84.3628 64.9797 84.6746 65.4462C84.9863 65.9128 85.1526 66.4614 85.1522 67.0226C85.1522 67.775 84.8533 68.4966 84.3213 69.0286C83.7893 69.5606 83.0677 69.8595 82.3152 69.8595ZM82.3152 64.8028C82.0184 64.795 81.7231 64.8468 81.4466 64.955C81.1701 65.0632 80.918 65.2256 80.7053 65.4328C80.4926 65.64 80.3236 65.8877 80.2082 66.1612C80.0928 66.4348 80.0333 66.7287 80.0333 67.0256C80.0333 67.3225 80.0928 67.6165 80.2082 67.89C80.3236 68.1636 80.4926 68.4113 80.7053 68.6184C80.918 68.8256 81.1701 68.9881 81.4466 69.0963C81.7231 69.2045 82.0184 69.2562 82.3152 69.2484C82.8947 69.2332 83.4452 68.9923 83.8497 68.5772C84.2541 68.162 84.4804 67.6052 84.4804 67.0256C84.4804 66.446 84.2541 65.8893 83.8497 65.4741C83.4452 65.0589 82.8947 64.818 82.3152 64.8028Z" fill="#4B1010"/>
<path d="M77.3321 66.1968C77.1721 66.1927 77.0129 66.2208 76.8639 66.2792C76.7149 66.3376 76.5791 66.4253 76.4646 66.537C76.35 66.6487 76.2589 66.7822 76.1967 66.9297C76.1346 67.0772 76.1025 67.2356 76.1025 67.3956C76.1025 67.5556 76.1346 67.714 76.1967 67.8615C76.2589 68.009 76.35 68.1425 76.4646 68.2542C76.5791 68.3659 76.7149 68.4536 76.8639 68.512C77.0129 68.5704 77.1721 68.5985 77.3321 68.5944C77.6447 68.5865 77.942 68.4567 78.1603 68.2328C78.3787 68.0088 78.5009 67.7084 78.5009 67.3956C78.5009 67.0828 78.3787 66.7824 78.1603 66.5584C77.942 66.3345 77.6447 66.2047 77.3321 66.1968Z" fill="#4B1010"/>
<path d="M83.9509 66.048C83.7934 66.048 83.6373 66.079 83.4917 66.1393C83.3461 66.1996 83.2139 66.288 83.1024 66.3994C82.991 66.5109 82.9026 66.6431 82.8423 66.7887C82.782 66.9343 82.751 67.0904 82.751 67.2479C82.751 67.4055 82.782 67.5616 82.8423 67.7071C82.9026 67.8527 82.991 67.985 83.1024 68.0964C83.2139 68.2079 83.3461 68.2963 83.4917 68.3566C83.6373 68.4169 83.7934 68.4479 83.9509 68.4479C84.2692 68.4479 84.5744 68.3215 84.7994 68.0964C85.0245 67.8714 85.1509 67.5662 85.1509 67.2479C85.1509 66.9297 85.0245 66.6245 84.7994 66.3994C84.5744 66.1744 84.2692 66.048 83.9509 66.048Z" fill="#4B1010"/>
<path d="M76.8184 71.2574C76.7633 71.1994 76.733 71.1222 76.7339 71.0423C76.7349 70.9623 76.767 70.8858 76.8235 70.8292C76.88 70.7726 76.9564 70.7403 77.0364 70.7392C77.1164 70.7382 77.1936 70.7683 77.2516 70.8234C77.4785 71.0881 77.7662 71.2938 78.0901 71.4228C78.4139 71.5518 78.7643 71.6003 79.111 71.5641C79.4577 71.5279 79.7905 71.4083 80.081 71.2155C80.3714 71.0227 80.6108 70.7624 80.7787 70.4569C80.7967 70.4208 80.8217 70.3887 80.8521 70.3623C80.8825 70.3359 80.9179 70.3157 80.9561 70.303C80.9944 70.2902 81.0347 70.2851 81.0749 70.288C81.1151 70.2909 81.1544 70.3016 81.1904 70.3196C81.2265 70.3377 81.2586 70.3626 81.285 70.393C81.3114 70.4235 81.3316 70.4588 81.3443 70.4971C81.3571 70.5353 81.3622 70.5757 81.3593 70.6159C81.3564 70.6561 81.3457 70.6953 81.3277 70.7314C81.1169 71.1242 80.8142 71.4603 80.4455 71.711C80.0768 71.9616 79.653 72.1195 79.2102 72.1711C78.7673 72.2226 78.3186 72.1664 77.9021 72.0072C77.4857 71.848 77.1139 71.5905 76.8184 71.2566V71.2574Z" fill="#4B1010"/>
<path d="M68.7641 82.8199C68.725 82.6443 68.8078 82.7363 66.1165 81.0349C66.0477 80.9918 65.9646 80.9776 65.8853 80.9954C65.8061 81.0132 65.7371 81.0616 65.6933 81.13L57.5711 93.9424C57.5494 93.9764 57.5346 94.0144 57.5276 94.0541C57.5206 94.0938 57.5215 94.1346 57.5303 94.174C57.539 94.2134 57.5555 94.2506 57.5787 94.2836C57.6019 94.3167 57.6313 94.3448 57.6654 94.3664C60.392 96.0939 60.2149 96.0065 60.3421 96.0065C60.3939 96.0068 60.4449 95.9939 60.4903 95.969C60.5357 95.944 60.5739 95.9078 60.6013 95.8639C68.8369 82.8751 68.8078 83.0116 68.7641 82.8199Z" fill="#4B1010"/>
<path d="M61.1949 96.9941C60.8974 98.1833 60.1536 98.5552 59.1124 99.0014C59.1124 99.0014 59.0357 95.8785 59.0357 95.5066C57.9109 96.0832 56.5997 96.7564 55.9871 97.0685C55.8205 96.6951 55.7442 96.2878 55.7644 95.8795C55.7847 95.4711 55.9009 95.0733 56.1037 94.7183C56.3065 94.3633 56.5901 94.0611 56.9315 93.8363C57.273 93.6114 57.6626 93.4702 58.0688 93.4241C58.5363 93.3529 59.0142 93.4009 59.4582 93.5636C59.9025 93.7254 60.2988 93.9967 60.6103 94.3524C60.9218 94.7082 61.1385 95.1368 61.2401 95.5986C61.3424 96.0602 61.3269 96.5401 61.1949 96.9941Z" fill="white"/>
<path d="M58.8058 99.0089C58.8058 99.0089 58.7583 96.9931 58.7391 96.004L56.2778 97.2668C56.2107 97.3171 56.1312 97.3481 56.0477 97.3565C55.9643 97.3649 55.8802 97.3505 55.8043 97.3147C55.7285 97.2789 55.6638 97.2231 55.6173 97.1534C55.5708 97.0836 55.5441 97.0025 55.5402 96.9187C54.6048 94.4467 58.2637 91.5047 60.7426 94.025C61.1211 94.4266 61.3887 94.9197 61.5193 95.4558C61.65 95.992 61.6391 96.5529 61.4879 97.0836C61.1689 98.3648 60.3516 98.8042 59.2337 99.2834C59.1879 99.3033 59.1378 99.3115 59.088 99.3071C59.0377 99.3035 58.9892 99.2871 58.9469 99.2596C58.9047 99.2325 58.8697 99.1955 58.8451 99.1518C58.8205 99.1081 58.807 99.059 58.8058 99.0089ZM59.0358 95.1997C59.1172 95.1997 59.1952 95.232 59.2527 95.2895C59.3102 95.347 59.3425 95.425 59.3425 95.5064C59.3425 95.7878 59.3855 97.6533 59.4062 98.535C59.7722 98.4162 60.1014 98.2051 60.3622 97.9222C60.6229 97.6392 60.8065 97.2939 60.8952 96.9195C61.0145 96.5152 61.0301 96.0874 60.9404 95.6756C60.8508 95.2637 60.6589 94.8811 60.3824 94.563C60.1059 94.2448 59.7538 94.0015 59.3584 93.8553C58.9631 93.7092 58.5373 93.6649 58.1203 93.7267C56.8353 93.9836 55.646 95.3967 56.0992 96.6672C59.157 95.1008 58.9331 95.2027 59.0381 95.2027L59.0358 95.1997Z" fill="#4B1010"/>
<path d="M69.7835 113.419C71.0126 113.324 71.892 111.753 71.7494 109.911C71.606 108.068 70.4943 106.652 69.2652 106.747C68.0368 106.843 67.1566 108.413 67.3 110.256C67.4434 112.098 68.5551 113.514 69.7842 113.419H69.7835Z" fill="white"/>
<path d="M71.8286 106.884C70.9361 106.141 69.8956 106.513 68.9287 106.808C69.0427 106.747 69.1718 106.72 69.3006 106.731C70.4906 106.654 71.6054 108.07 71.7542 109.855C71.9029 111.64 71.0104 113.275 69.8212 113.35C72.0517 113.273 73.2417 111.713 73.0185 109.557C72.9884 108.545 72.5609 107.584 71.8286 106.884Z" fill="#FFE55D"/>
<path d="M73.3256 109.562C73.3256 107.375 71.825 105.612 69.4052 106.302C65.5438 107.402 66.789 113.731 69.6636 113.731C70.7393 113.715 71.765 113.274 72.5159 112.504C72.8483 112.097 73.0921 111.625 73.2315 111.118C73.371 110.612 73.403 110.081 73.3256 109.562ZM68.3762 112.378C66.9524 110.564 67.5911 107.187 69.2886 107.055C69.5617 107.055 69.8306 107.123 70.0713 107.252C70.3121 107.381 70.5173 107.567 70.6688 107.794C71.1266 108.419 71.3929 109.163 71.4355 109.937C71.6349 112.383 69.7855 114.171 68.3762 112.378ZM71.4785 112.59C72.5933 110.768 72.0957 107.822 70.4664 106.763C70.8832 106.722 71.2991 106.849 71.6226 107.115C72.2978 107.767 72.6896 108.659 72.7137 109.597C72.8241 110.161 72.7662 110.746 72.5471 111.277C72.328 111.809 71.9575 112.265 71.4815 112.587L71.4785 112.59Z" fill="#4B1010"/>
<path d="M67.59 84.8725C68.4185 84.8725 69.213 84.5434 69.7989 83.9575C70.3847 83.3717 70.7138 82.5772 70.7138 81.7487C70.7138 80.9203 70.3847 80.1257 69.7989 79.5399C69.213 78.9541 68.4185 78.625 67.59 78.625C66.7616 78.625 65.967 78.9541 65.3812 79.5399C64.7954 80.1257 64.4663 80.9203 64.4663 81.7487C64.4663 82.5772 64.7954 83.3717 65.3812 83.9575C65.967 84.5434 66.7616 84.8725 67.59 84.8725Z" fill="white"/>
<path d="M67.5898 85.1785C66.9115 85.1787 66.2484 84.9777 65.6844 84.6009C65.1205 84.224 64.681 83.6883 64.4216 83.0615C64.1627 82.4348 64.0953 81.7455 64.2278 81.0805C64.3604 80.4155 64.687 79.8048 65.1664 79.3253C65.6458 78.8458 66.2565 78.519 66.9215 78.3864C67.5865 78.2537 68.2758 78.321 68.9025 78.5799C69.4232 78.7961 69.8826 79.1373 70.24 79.5733C70.5975 80.0094 70.8419 80.5267 70.9519 81.0797C71.0618 81.6327 71.0337 82.2043 70.8702 82.7438C70.7067 83.2834 70.4127 83.7744 70.0143 84.1733C69.3711 84.8161 68.4992 85.1776 67.5898 85.1785ZM67.5898 78.9326C67.1732 78.9323 66.7617 79.0246 66.3851 79.2026C66.0084 79.3806 65.676 79.64 65.4117 79.9621C65.1474 80.2842 64.9579 80.6609 64.8568 81.0651C64.7558 81.4692 64.7457 81.8908 64.8272 82.2994C64.9314 82.8227 65.182 83.3058 65.55 83.6922C65.918 84.0787 66.3882 84.3526 66.9058 84.4823C67.4235 84.6119 67.9673 84.5918 68.474 84.4244C68.9807 84.257 69.4294 83.9491 69.7679 83.5365C70.1064 83.124 70.3207 82.6238 70.386 82.0942C70.4513 81.5646 70.3648 81.0273 70.1366 80.5449C69.9084 80.0626 69.5479 79.6549 69.097 79.3695C68.6461 79.084 68.1235 78.9325 67.5898 78.9326Z" fill="#4B1010"/>
<path d="M85.5887 88.4416L79.1909 89.2597V85.0203L85.5864 84.2773L85.5887 88.4416Z" fill="white"/>
<path d="M79.1915 89.5664C79.1101 89.5664 79.0321 89.5341 78.9746 89.4766C78.9171 89.4191 78.8848 89.3411 78.8848 89.2597V85.0204C78.8843 84.9448 78.9117 84.8717 78.9618 84.8151C79.0119 84.7585 79.0811 84.7224 79.1562 84.7137C86.1076 83.9055 85.6444 83.9147 85.7909 84.0459C85.9373 84.177 85.8936 83.9293 85.8936 88.4393C85.8945 88.5144 85.8675 88.5871 85.8177 88.6433C85.7687 88.7001 85.7004 88.7367 85.626 88.746L79.1915 89.5664ZM79.4982 85.2934V88.9109L85.2833 88.1717V84.6217L79.4982 85.2934Z" fill="#4B1010"/>
<path d="M82.9004 87.6978V85.8384C82.9004 85.7571 82.9327 85.6791 82.9902 85.6216C83.0477 85.5641 83.1257 85.5317 83.2071 85.5317C83.2884 85.5317 83.3664 85.5641 83.424 85.6216C83.4815 85.6791 83.5138 85.7571 83.5138 85.8384V87.6978C83.5138 87.7791 83.4815 87.8572 83.424 87.9147C83.3664 87.9722 83.2884 88.0045 83.2071 88.0045C83.1257 88.0045 83.0477 87.9722 82.9902 87.9147C82.9327 87.8572 82.9004 87.7791 82.9004 87.6978Z" fill="#4B1010"/>
<path d="M84.165 87.6236V85.6899C84.165 85.6085 84.1974 85.5305 84.2549 85.473C84.3124 85.4155 84.3904 85.3832 84.4717 85.3832C84.5531 85.3832 84.6311 85.4155 84.6886 85.473C84.7461 85.5305 84.7784 85.6085 84.7784 85.6899V87.6236C84.7784 87.705 84.7461 87.783 84.6886 87.8405C84.6311 87.898 84.5531 87.9303 84.4717 87.9303C84.3904 87.9303 84.3124 87.898 84.2549 87.8405C84.1974 87.783 84.165 87.705 84.165 87.6236Z" fill="#4B1010"/>
<path d="M80.2993 87.9953V86.0616C80.2993 85.9802 80.3316 85.9022 80.3891 85.8447C80.4467 85.7872 80.5247 85.7549 80.606 85.7549C80.6874 85.7549 80.7654 85.7872 80.8229 85.8447C80.8804 85.9022 80.9127 85.9802 80.9127 86.0616V87.9953C80.9127 88.0767 80.8804 88.1547 80.8229 88.2122C80.7654 88.2697 80.6874 88.302 80.606 88.302C80.5247 88.302 80.4467 88.2697 80.3891 88.2122C80.3316 88.1547 80.2993 88.0767 80.2993 87.9953Z" fill="#4B1010"/>
<path d="M81.6367 87.8467V85.9874C81.6367 85.906 81.669 85.828 81.7265 85.7705C81.7841 85.713 81.8621 85.6807 81.9434 85.6807C82.0248 85.6807 82.1028 85.713 82.1603 85.7705C82.2178 85.828 82.2501 85.906 82.2501 85.9874V87.8467C82.2501 87.9281 82.2178 88.0061 82.1603 88.0636C82.1028 88.1211 82.0248 88.1534 81.9434 88.1534C81.8621 88.1534 81.7841 88.1211 81.7265 88.0636C81.669 88.0061 81.6367 87.9281 81.6367 87.8467Z" fill="#4B1010"/>
<path d="M78.6056 55.7206C78.6052 55.3497 78.4987 54.9865 78.2986 54.6741C78.0986 54.3617 77.8133 54.113 77.4765 53.9574C77.1398 53.8019 76.7655 53.7459 76.3979 53.7961C76.0304 53.8463 75.6848 54.0006 75.4021 54.2408C75.1194 54.4816 74.9117 54.7983 74.8035 55.1535C74.6953 55.5087 74.6912 55.8874 74.7917 56.2449C74.8921 56.6023 75.0929 56.9235 75.3703 57.1703C75.6477 57.4171 75.99 57.5793 76.3567 57.6375V61.0749C76.3567 61.1562 76.389 61.2342 76.4465 61.2917C76.5041 61.3492 76.5821 61.3815 76.6634 61.3815C76.7448 61.3815 76.8228 61.3492 76.8803 61.2917C76.9378 61.2342 76.9701 61.1562 76.9701 61.0749V57.6391C77.426 57.5654 77.8409 57.3319 78.1405 56.9805C78.4401 56.629 78.6049 56.1825 78.6056 55.7206Z" fill="#4B1010"/>
</svg>
