<svg width="154" height="154" viewBox="0 0 154 154" fill="none" xmlns="http://www.w3.org/2000/svg">
<path d="M141.78 76.5679C136.673 70.27 130.194 66.0678 122.405 63.9162C120.25 63.3205 118.1 62.7171 116.022 61.907C114.992 61.5058 115.528 60.9721 115.293 59.4445C115.079 58.0517 115.031 56.6581 115.002 55.2492C114.99 54.714 115.148 54.5379 115.665 54.374C118.195 53.5731 120.362 52.2025 121.562 49.7408C124.742 43.2193 121.798 38.5065 121.773 37.8502C123.624 37.3878 125.003 37.3051 125.839 35.5172C126.711 33.6527 126.813 31.7423 126.406 29.7499C125.939 27.4651 124.802 25.5876 122.825 24.4038C120.152 22.8019 117.255 22.1947 114.159 22.9298C113.397 23.1105 112.717 23.4482 112.085 23.9023C111.162 24.5661 110.708 25.5056 110.611 26.6404C110.368 26.5922 110.174 26.5746 109.979 26.5271C105.142 25.3479 100.488 26.1266 96.0313 28.1634C92.5497 29.7545 90.3598 32.4237 89.6484 36.2308C89.1125 39.0983 89.5351 41.8679 90.7495 44.5249C91.9302 45.6657 91.6462 47.2469 91.7702 48.3641C92.0359 50.7645 92.4195 53.1267 93.552 55.3143C95.2381 58.5693 97.7955 60.4897 101.506 60.7577C102.43 60.8243 103.353 60.7416 104.292 60.6765C104.438 61.6811 104.746 62.6046 104.681 63.6252C102.276 63.6252 100.437 63.7393 97.1002 64.5648C89.7648 66.3795 82.4601 71.0441 77.4332 76.0503C77.1247 76.3573 76.9976 76.5824 77.385 76.9415C77.8896 77.4086 77.872 77.4452 78.3406 77.0388C79.9103 75.6751 81.836 73.8772 84.6423 71.9193C89.7288 68.371 95.2771 65.9874 101.409 64.953C101.96 64.8595 102.103 64.969 102.17 65.4874C102.658 69.2715 107.379 72.1237 111.582 71.2057C115.115 70.4346 117.821 68.5495 119.196 65.0655C119.407 64.5311 119.535 64.4706 120.201 64.6444C149.633 72.3435 157.367 107.507 130.293 115.771C130.048 115.846 129.759 116.046 129.419 115.819C130.542 112.709 128.307 111.026 126.195 108.869C127.443 108.172 128.22 106.973 129.047 105.872C130.179 104.364 131.12 102.745 131.671 100.947C133.435 95.1957 131.703 90.3848 127.685 86.1887C127.637 86.1566 127.588 86.0915 127.54 86.0593C127.248 85.8327 126.925 85.5739 126.568 85.9138C126.244 86.2224 126.472 86.5287 126.665 86.8051C127.204 87.5792 127.705 88.358 128.253 89.1214C132.857 95.5356 130.602 103.117 124.705 108.415C124.526 108.576 124.348 108.579 124.155 108.529C122.904 108.202 121.644 108.178 120.38 108.27C118.728 108.39 117.14 108.724 115.957 110.052C115.107 111.007 114.581 112.094 114.221 113.262C114.499 113.559 114.768 113.857 115.026 114.155C115.95 111.827 117.188 109.567 120.299 109.63C121.903 109.662 123.476 109.895 125.045 110.31C126.181 110.611 126.929 111.23 127.556 112.125C128.896 114.035 128.368 115.147 128.026 116.903C127.91 117.502 128.123 117.709 128.739 117.664C129.5 117.61 130.263 117.553 131.007 117.34C149.513 112.039 154.162 91.8335 141.78 76.5656L141.78 76.5679ZM91.5612 43.423H91.5772C91.4318 43.4391 91.4157 43.3258 91.3828 43.2446C89.3636 36.9038 91.6821 32.1649 95.1737 30.0906C98.7518 27.9651 102.642 27.1442 106.789 27.4337C111.622 27.7713 114.676 30.292 118.291 31.305C118.404 31.3372 118.534 31.4184 118.728 31.2729C118.68 30.8357 118.309 30.5906 117.999 30.3334C116.914 29.4306 113.688 27.8203 112.75 27.4337C111.972 27.1121 111.781 26.5278 112.248 25.7813C112.753 24.9735 113.544 24.5508 114.435 24.3073C116.268 23.8058 119.008 23.9635 121.709 25.3441C123.219 26.1159 124.191 27.4007 124.722 28.9566C125.358 30.8181 125.601 32.7162 124.803 34.6267C124.126 36.2492 123.04 36.0868 122.519 36.328C121.691 36.7109 120.916 36.9437 120.299 36.0041C120.235 35.923 120.057 35.923 119.878 35.8747C119.716 36.4743 120.008 36.9437 120.202 37.4138C120.657 38.5149 121.075 39.6496 121.352 40.8158C122.061 43.7974 121.594 46.6152 120.186 49.2561C119.132 51.2324 117.319 52.4307 115.245 53.3059C115.164 52.3503 115.63 51.067 116.411 50.1956C117.195 49.3212 119.347 48.0241 118.906 45.0601C118.73 43.8771 118.113 43.2905 116.93 43.165C115.99 43.0647 115.123 43.25 114.354 43.7967C114.108 43.9713 113.854 44.1389 113.641 44.3472C112.92 45.0517 112.084 45.0631 111.227 44.7193C105.616 42.4751 103.626 37.0884 100.697 35.0968C100.244 34.7882 99.8223 34.7063 99.2878 34.9023C97.0497 35.7224 95.1286 36.9789 93.5367 38.7737C92.4861 39.9582 91.8751 41.3327 91.722 42.9046C91.7051 43.083 91.787 43.3097 91.5604 43.423H91.5612ZM111.26 69.7799C108.636 70.2669 106.299 69.4415 104.505 67.3986C103.898 66.7079 103.565 65.8756 103.403 64.9683C103.662 64.6765 103.969 64.9078 104.245 64.904C105.347 64.8879 105.855 64.4177 105.816 63.3167C105.73 60.8465 105.181 60.4338 106.027 60.2225C106.45 60.1168 106.854 59.9491 107.242 59.7684C107.518 59.6405 107.773 59.4568 107.987 59.2661C108.211 59.0678 108.463 58.7929 108.295 58.4882C108.122 58.1773 107.792 58.4399 107.566 58.4882C106.351 58.7477 105.184 59.1505 103.953 59.2983C98.8973 59.9055 96.1033 57.8932 94.2978 53.9522C93.5489 52.3174 93.2809 50.5662 92.9693 48.8327C92.8093 47.9414 92.758 47.0348 92.6615 46.1435C92.5964 45.544 92.6079 44.9429 92.807 44.3618C93.101 43.5049 92.4241 41.9682 94.346 39.8418C95.3996 38.6764 96.5076 37.5731 97.9747 36.8931C98.3169 36.7346 98.5918 36.4743 98.8981 36.2775C99.4999 35.8924 99.6255 35.8901 100.097 36.4069C101.315 37.7453 104.704 42.2936 107.825 44.6366C109.25 45.7063 110.806 46.24 112.571 46.24C114.222 46.24 113.729 45.2063 115.828 44.5065C116.119 44.4092 116.411 44.374 116.719 44.3932C117.384 44.4345 117.595 44.652 117.659 45.3166C117.775 46.5318 117.337 47.5708 116.476 48.3786C112.907 51.7263 113.831 55.59 113.852 60.5287C113.854 60.8044 113.982 61.0632 113.982 61.3228C113.982 63.247 116.054 62.9392 118.031 64.1092C117.037 67.0923 114.752 69.1314 111.26 69.7792L111.26 69.7799Z" fill="#191919"/>
<path d="M118.518 112.37C117.548 113.561 117.032 114.955 116.812 116.438C117.035 116.754 117.249 117.068 117.452 117.379C117.821 116.306 118.229 115.28 118.777 114.313C119.171 113.619 119.586 112.909 120.494 112.774C120.85 112.721 121.106 112.499 121.061 112.093C121.008 111.608 120.624 111.51 120.251 111.51C119.538 111.51 118.954 111.832 118.518 112.368V112.37Z" fill="#191919"/>
<path d="M119.846 120.389C119.149 119.984 118.949 119.546 118.988 119.012C119.127 117.082 120.022 115.548 121.612 114.411C122.047 114.1 122.963 113.976 123.167 114.573C123.282 114.912 123.102 115.189 122.827 115.318C121.287 116.046 120.645 117.484 119.959 118.883C119.626 119.562 119.846 120.241 119.846 120.389Z" fill="#191919"/>
<path d="M121.272 120.923C121.24 119.19 121.958 117.801 123.167 116.647C123.424 116.402 123.754 116.27 124.058 116.566C124.37 116.87 124.255 117.2 124.026 117.457C123.111 118.485 122.401 119.644 121.661 120.81C121.598 120.909 121.516 120.939 121.272 120.907V120.923Z" fill="#191919"/>
<path d="M106.999 46.6798C106.838 47.2939 105.149 46.3168 103.76 47.1009C103.551 47.2188 103.323 47.2456 103.128 47.0358C102.886 46.7755 103.047 46.5175 103.209 46.323C104.319 44.813 107.202 45.9064 107 46.679L106.999 46.6798Z" fill="#191919"/>
<path d="M101.41 51.5717C99.512 51.5717 99.6973 49.5717 99.806 47.7164C99.806 47.2172 100.507 47.0702 100.551 47.7646C100.551 48.2991 100.563 48.8336 100.583 49.3688C100.623 50.4209 100.794 50.6483 101.814 50.7945C101.912 50.7945 102.009 50.8106 102.106 50.8267C102.252 50.8267 102.366 50.9239 102.382 51.0694C102.382 51.4331 101.827 51.6115 101.426 51.5878L101.41 51.5717Z" fill="#191919"/>
<path d="M106.708 52.0089C106.7 53.0947 105.43 54.5227 104.327 54.633C104.133 54.6521 103.938 54.6368 103.727 54.6169C103.452 54.5909 103.308 54.0579 103.695 53.953C104.87 53.6322 105.484 52.7823 105.979 51.7662C106.059 51.6031 106.157 51.3971 106.416 51.4262C106.65 51.4523 106.709 51.8573 106.708 52.0089Z" fill="#191919"/>
<path d="M96.6041 43.5485C95.8958 43.6175 95.186 43.5899 93.9747 44.3303C93.5543 44.5868 93.2189 44.1236 93.4081 43.7798C93.833 43.0041 94.5574 42.7208 95.3683 42.5975C96.3445 42.4482 98.6569 43.3495 96.6049 43.5493L96.6041 43.5485Z" fill="#191919"/>
<path d="M97.3928 48.0884C96.3721 48.348 95.5176 48.5646 94.7519 49.06C94.2841 49.3633 93.8859 48.7798 94.2175 48.2821C94.5735 47.6665 95.1899 47.5409 95.8216 47.4398C96.4051 47.3464 96.9234 47.4728 97.3928 48.0884Z" fill="#191919"/>
<path d="M117.768 101.08C118.122 100.506 117.945 99.7523 117.37 99.3971C116.795 99.0418 116.042 99.2202 115.687 99.7945C115.332 100.369 115.51 101.122 116.084 101.477C116.659 101.833 117.413 101.654 117.768 101.08Z" fill="#38A1FF"/>
<path d="M82.5617 79.2568C83.237 79.2568 83.7845 78.7093 83.7845 78.034C83.7845 77.3586 83.237 76.8112 82.5617 76.8112C81.8863 76.8112 81.3389 77.3586 81.3389 78.034C81.3389 78.7093 81.8863 79.2568 82.5617 79.2568Z" fill="#38A1FF"/>
<path d="M95.7487 70.4928C96.424 70.4928 96.9715 69.9453 96.9715 69.2699C96.9715 68.5946 96.424 68.0471 95.7487 68.0471C95.0734 68.0471 94.5259 68.5946 94.5259 69.2699C94.5259 69.9453 95.0734 70.4928 95.7487 70.4928Z" fill="#38A1FF"/>
<path d="M125.284 69.6043C125.638 69.0298 125.461 68.2763 124.887 67.9212C124.312 67.5662 123.558 67.744 123.204 68.3185C122.848 68.893 123.026 69.6466 123.601 70.0016C124.175 70.3567 124.929 70.1788 125.284 69.6043Z" fill="#38A1FF"/>
<path d="M131.035 78.8702C131.39 78.296 131.213 77.5417 130.638 77.1871C130.064 76.832 129.31 77.0099 128.955 77.5846C128.6 78.1589 128.778 78.9123 129.352 79.2676C129.926 79.6221 130.68 79.4445 131.035 78.8702Z" fill="#38A1FF"/>
<path d="M108.886 79.7461C109.242 79.1719 109.064 78.4184 108.489 78.0631C107.915 77.7079 107.161 77.8855 106.806 78.4605C106.452 79.0348 106.629 79.7883 107.203 80.1435C107.778 80.4988 108.532 80.3204 108.886 79.7461Z" fill="#38A1FF"/>
<path d="M121.25 77.8985C121.605 77.3238 121.427 76.5703 120.853 76.2152C120.278 75.8602 119.524 76.0381 119.17 76.6126C118.815 77.187 118.992 77.9406 119.567 78.2959C120.141 78.6504 120.895 78.4727 121.25 77.8985Z" fill="#38A1FF"/>
<path d="M125.284 92.7868C125.64 92.2118 125.462 91.4583 124.887 91.1038C124.313 90.7485 123.559 90.9261 123.204 91.5012C122.849 92.0755 123.027 92.8289 123.601 93.1842C124.176 93.5387 124.929 93.3611 125.284 92.7868Z" fill="#38A1FF"/>
<path d="M125.284 103.219C125.639 102.644 125.462 101.891 124.887 101.536C124.312 101.181 123.559 101.359 123.203 101.934C122.849 102.508 123.027 103.262 123.601 103.617C124.176 103.971 124.929 103.794 125.284 103.219Z" fill="#38A1FF"/>
<path d="M143.314 99.8649C143.669 99.2906 143.492 98.5364 142.917 98.1819C142.342 97.8266 141.589 98.0043 141.234 98.5793C140.879 99.1536 141.057 99.907 141.631 100.262C142.205 100.617 142.96 100.439 143.314 99.8649Z" fill="#38A1FF"/>
<path d="M136.705 91.5547C137.06 90.9804 136.882 90.227 136.308 89.8717C135.733 89.5172 134.98 89.6948 134.625 90.2691C134.269 90.8434 134.448 91.5968 135.022 91.9521C135.596 92.3074 136.35 92.1297 136.705 91.5547Z" fill="#38A1FF"/>
<path d="M140.091 83.4705C140.446 82.8955 140.268 82.142 139.694 81.7875C139.119 81.4322 138.365 81.6099 138.011 82.1849C137.655 82.7592 137.833 83.5126 138.407 83.8679C138.982 84.2224 139.736 84.0448 140.091 83.4705Z" fill="#38A1FF"/>
<path d="M132.442 105.809C133.117 105.809 133.665 106.357 133.665 107.032C133.665 107.707 133.117 108.255 132.442 108.255C131.767 108.255 131.219 107.707 131.219 107.032C131.219 106.357 131.767 105.809 132.442 105.809Z" fill="#38A1FF"/>
<path d="M68.5153 70.4712L67.699 68.6466L65.9892 67.485C65.8935 68.1971 65.8116 68.9582 65.771 69.7315C66.2396 70.0631 66.7764 70.4636 67.3598 70.9161C67.6385 70.6848 68.0405 70.534 68.516 70.4705L68.5153 70.4712Z" fill="#38A1FF"/>
<path d="M22.2577 64.1761L21.7554 64.5314L16.9131 75.9541C18.6727 74.5238 20.1168 73.5789 21.7102 72.6678C21.8572 69.9549 22.0394 66.9763 22.2577 64.1761Z" fill="#38A1FF"/>
<path d="M23.1644 63.5345C22.9431 66.3454 22.7502 69.3844 22.5947 72.1754C24.6437 71.0682 26.4745 70.3132 28.6889 69.582C28.9186 65.9051 29.2074 62.0705 29.5481 59.0222C28.6469 59.5597 23.1644 63.5345 23.1644 63.5345Z" fill="#38A1FF"/>
<path d="M43.6093 57.0144C40.5702 57.189 34.9799 57.509 37.9875 57.3383C37.6797 59.6813 37.4117 62.751 37.1851 65.9287C37.9316 66.0696 38.6859 66.31 39.4439 66.653C40.6438 66.4004 41.8987 66.1683 43.12 65.9915C43.3605 62.676 43.6491 59.4754 43.9814 57.081L43.6093 57.0144Z" fill="#38A1FF"/>
<path d="M50.4777 58.2481L44.823 57.2321C44.5021 59.5506 44.225 62.6486 43.9922 65.8737C45.8521 65.644 47.5787 65.5675 48.8414 65.778C49.225 65.1203 49.5979 64.4273 49.9447 63.7168C50.1032 61.7497 50.2809 59.8752 50.4777 58.2481Z" fill="#38A1FF"/>
<path d="M32.1397 66.5239C33.4782 65.9313 34.887 65.6847 36.3319 65.8111C36.5563 62.7199 36.8227 59.7261 37.1298 57.3868L34.0034 58.5048H30.4559C30.1206 61.3823 29.8327 65.1189 29.5991 68.7782C30.2477 67.7391 31.0976 66.9834 32.1405 66.5232L32.1397 66.5239Z" fill="#38A1FF"/>
<path d="M36.9768 48.676C36.757 48.2181 36.1804 48.1507 35.9905 48.1293C35.3305 48.0527 34.8581 47.6109 34.2616 46.9953C33.8114 46.5321 33.2225 46.6645 32.989 47.186C32.0579 49.2595 33.3718 50.8475 34.9492 50.8475C36.4369 50.8475 37.2968 49.3437 36.9768 48.676ZM36.1253 49.4073C35.1965 50.8828 32.6574 49.7993 33.6858 47.5045C34.0939 47.8514 34.7172 48.7534 35.9025 48.8904C36.2187 48.9272 36.2861 49.006 36.2861 49.006C36.2861 49.006 36.3098 49.1148 36.1253 49.4073Z" fill="#191919"/>
<path d="M30.8603 44.6861C30.7485 44.8331 30.5525 44.8155 30.407 44.7022C30.1964 44.5567 30.2316 44.363 30.3258 44.1677C30.4422 43.9265 30.6022 43.7167 30.8442 43.5843C31.8052 43.059 32.7623 43.085 33.7278 43.5521C33.8909 43.631 34.018 43.7466 33.9874 43.9411C33.9537 44.1516 33.7768 44.1677 33.6145 44.1838C31.678 44.1838 31.2875 44.1264 30.8603 44.6861Z" fill="#191919"/>
<path d="M37.2101 43.86C37.2101 43.86 37.3885 43.9082 37.4528 43.9733C37.9107 44.4389 38.3441 44.9618 38.4896 45.6257C38.6351 46.2896 37.8265 46.9519 37.2101 46.6946C36.9352 46.5798 37.0845 46.3899 37.2101 46.2245C37.3441 46.0491 37.6649 46.079 37.6963 45.7712C37.7308 45.4312 37.4804 45.2398 37.3234 44.9771C37.0217 44.4725 36.6282 44.0422 37.2262 43.8431L37.2101 43.86Z" fill="#191919"/>
<path d="M41.4545 42.2726C41.1788 42.4832 40.9522 42.4181 40.7255 42.4181C40.0938 42.4181 39.4583 42.4449 38.9277 42.8232C38.7485 42.951 38.5601 43.013 38.3932 42.8232C38.1214 42.513 38.4843 42.2029 38.5226 42.1264C39.2033 41.3974 40.6934 41.4464 41.4545 42.2726Z" fill="#191919"/>
<path d="M20.1521 44.4113C17.9155 47.6134 19.1345 50.5751 21.7884 50.8753C22.1782 50.9189 22.5664 50.9235 22.9546 50.9396C23.084 52.2191 23.7816 53.0445 24.8175 53.6609C25.9852 54.3562 27.0534 53.9848 28.0572 53.3049C28.3329 53.5805 28.3612 53.873 28.4462 54.1632C28.7724 55.285 29.1009 56.4021 29.5151 57.5001C29.705 58.004 29.5948 58.1785 29.1422 58.4075C26.803 59.5936 24.6843 61.1096 22.7923 62.9106C18.8459 66.6671 16.78 71.2942 16.1797 76.5645C16.6621 76.1534 17.1605 75.7475 17.6743 75.3517C18.4423 70.7199 20.7119 66.8593 24.1208 63.6081C25.8206 61.9871 27.7915 60.7153 29.7257 59.4121C30.0649 59.1839 30.3421 59.1502 30.7464 59.2344C32.7096 59.6418 34.6147 59.3738 36.3674 58.4243C37.0305 58.0652 37.6805 57.8309 38.4248 57.7436C40.63 57.4864 42.8314 57.4848 45.0343 57.566C47.2526 57.6471 49.2112 58.432 51.5688 59.4435C51.6821 59.0017 51.797 58.4511 51.8858 58.004C46.9057 55.8332 45.7464 55.9695 40.4662 56.1893C39.3482 56.236 38.2303 56.3998 37.0963 56.7559C37.0963 56.2053 36.8046 55.8324 36.9018 55.347C37.6629 55.347 38.31 54.9557 38.9753 54.6824C43.2954 52.9075 44.895 48.6647 44.5642 44.1685C44.4608 42.7642 45.3896 42.5123 46.2656 41.8033C48.029 40.3753 48.0856 38.1333 46.5083 36.0039C46.15 35.5199 45.931 35.1869 46.2977 34.6754C46.3919 34.5437 46.4279 34.3676 46.4761 34.2052C47.0328 32.3277 45.261 30.4112 43.787 30.5927C43.1392 30.6723 42.4907 30.706 41.875 30.9487C41.3528 29.4985 40.8781 28.2504 39.1538 27.7902C37.388 27.3193 35.7043 27.5168 34.1805 28.5352C33.7923 28.7948 33.581 28.8109 33.2732 28.438C32.2693 27.2228 29.9056 26.8216 28.2678 27.644C25.5718 28.9992 26.5029 30.0368 24.4929 30.6899C22.695 31.2741 21.1192 32.2596 20.2647 34.108C19.6139 35.5161 19.6774 36.1693 20.7509 37.2504C20.9607 37.4618 21.107 37.6876 21.2042 37.9794C20.1024 38.5628 19.3642 39.4411 18.8229 40.507C18.2785 41.5789 18.4829 43.0667 19.2769 43.8599C19.5358 44.1188 19.9247 44.1517 20.1514 44.4105L20.1521 44.4113ZM43.48 46.5009C42.9516 50.6303 41.3804 52.7413 37.5833 54.0981C35.349 54.896 33.1767 54.4542 31.0389 53.6609C30.9439 53.6372 30.437 53.2405 30.2609 53.677C30.1767 53.886 30.3107 54.0323 30.5036 54.1632C31.3995 54.7712 32.3827 55.1885 33.4523 55.2972C34.2778 55.3814 35.0886 55.5889 35.9309 55.4917C36.0442 55.9128 36.1101 56.2038 36.2066 56.4963C36.3949 57.0667 36.4547 57.236 36.1836 57.4243C35.3222 58.0231 33.2716 58.7084 31.7839 58.4404C31.0396 58.3056 30.5978 57.955 30.3911 57.128C29.8153 54.8301 28.96 52.6356 27.9776 50.4695C27.29 48.9549 26.1568 48.9105 25.2234 48.5575C24.1514 48.1532 24.0809 46.775 25.2877 46.3546C25.875 46.1502 27.7173 46.4779 27.7984 44.3454C27.8321 43.4702 27.7984 43.6815 27.7984 39.8255C28.5595 40.1004 29.0947 40.4717 29.7908 40.4893C30.9569 40.5192 32.1185 40.0016 32.545 38.6746C32.7847 37.9304 32.7464 37.8507 33.9378 38.5131C35.4608 39.2259 36.6591 38.9832 37.7931 37.752C38.5488 36.9311 39.3383 36.9135 40.1583 37.7037C40.6285 38.1563 41.1614 38.3301 41.7947 38.206C42.0535 38.1555 42.2809 37.9955 42.6048 38.0276C42.8965 38.7244 43.0933 39.4694 43.1714 40.2145C43.3904 42.3033 43.751 44.3776 43.4792 46.5001L43.48 46.5009ZM20.0227 40.4901C20.4125 39.778 20.9623 39.1945 21.61 38.7083C22.2578 38.2221 22.3237 37.5896 21.8206 36.9587C21.1093 36.0659 20.6529 35.6026 21.2211 34.4801C21.8466 33.2458 22.8727 32.4058 24.1047 31.8071C24.6391 31.5475 25.1414 31.2412 25.7731 31.1754C26.2272 31.1279 26.486 30.6891 26.7287 30.3492C28.1208 28.4043 30.4585 27.4257 32.4638 29.0697C32.8168 29.3584 33.4776 30.3231 34.5534 29.5069C35.9631 28.438 37.5328 28.4441 39.1384 28.8423C39.8666 29.023 40.2127 29.6983 40.5642 30.3002C40.6959 30.526 40.7418 30.8193 40.8881 31.0291C41.4531 31.8408 41.1767 31.974 42.362 31.6769C45.0711 30.9977 46.1553 32.912 45.2939 34.4633C44.5841 35.7428 44.4807 35.657 45.4394 36.1317C45.8613 36.3408 46.0887 36.7144 46.2173 37.1203C46.9945 39.5713 46.4731 40.7198 44.5489 41.7857C44.3544 40.8783 44.1408 40.0529 44.0144 39.2099C43.9149 38.546 43.5948 37.9457 43.3988 37.3147C42.9738 35.9449 42.0734 38.1762 40.5312 36.634C39.3972 35.5 38.5879 35.5651 37.5021 36.7313C36.4095 37.9036 35.6882 38.389 34.4079 37.7037C34.0504 37.5123 33.7112 37.3178 33.3061 37.2336C32.398 37.0452 31.9929 37.2336 31.6698 38.0927C31.1828 39.3883 30.4439 39.7305 29.1261 39.2749C28.5036 39.0598 27.4776 38.2887 27.166 39.6471C26.9094 40.765 26.8666 41.899 26.8742 43.033C26.8872 44.8913 26.9852 45.376 25.6591 45.3982C25.3834 45.4028 25.1238 45.4296 24.8811 45.5276C24.2149 45.7987 23.6215 46.1111 23.5365 46.9534C23.4439 47.8776 23.6981 48.5736 24.4921 49.0912C24.865 49.3347 25.2701 49.5085 25.6912 49.5614C26.9439 49.7183 27.1767 50.7505 27.7486 51.8937C26.0312 53.3516 24.6705 52.9304 24.0228 50.7926L24.0067 50.8248C23.8773 50.4036 23.6989 50.1134 23.2287 50.0307C22.7747 49.9511 22.3374 49.7436 21.8681 49.6908C20.6682 49.5552 20.0564 48.4113 20.1024 47.5039C20.1537 46.4993 20.3145 45.5292 21.123 44.7826C21.5763 44.3638 21.5794 44.1004 20.8635 43.6486C19.5549 42.8217 19.2769 41.8508 20.0212 40.4893L20.0227 40.4901Z" fill="#191919"/>
<path d="M67.9519 70.599C68.3807 70.4543 68.9159 70.4045 69.4986 70.4573C68.6127 69.1725 67.4427 67.9183 66.0989 66.7207C66.0215 67.2276 65.9465 67.7697 65.8853 68.3317C66.6594 69.0706 67.3569 69.8287 67.9519 70.599Z" fill="#191919"/>
<path d="M81.8498 98.6375C81.3812 97.9009 81.0404 97.1222 80.8038 96.3197C77.7908 96.6482 71.4791 97.041 70.5335 97.0609C39.0196 97.7332 20.227 89.4231 12.0846 84.1819C11.5823 83.8587 11.129 83.5662 10.7078 83.2584C10.1734 83.907 9.68715 84.5708 9.21777 85.2515C12.4483 87.6122 18.3924 90.9185 25.7906 93.6589C43.0663 100.059 63.2126 100.69 81.8513 98.6375H81.8498Z" fill="#38A1FF"/>
<path d="M79.6705 85.5103C54.1988 87.9751 31.701 82.8847 18.5156 75.6936C19.2936 75.1101 20.1029 74.5596 20.9291 74.0573C34.021 80.6029 55.1023 85.093 78.4715 83.145C78.8604 83.8418 79.2655 84.6351 79.6705 85.5103Z" fill="#38A1FF"/>
<path d="M39.6802 71.4741C39.7706 71.9382 39.7453 72.357 39.6396 72.697C47.1718 74.4895 56.0563 75.6801 65.858 75.8233C65.943 74.4091 65.5999 73.9504 65.6444 73.3034C64.0257 73.2697 62.5586 73.2208 61.7201 73.181C58.5563 75.462 54.4529 74.6464 51.6764 72.2896C48.8816 71.8807 45.6427 71.331 42.4666 70.6564C42.9214 73.004 40.8487 73.3922 39.6795 71.4726L39.6802 71.4741Z" fill="#38A1FF"/>
<path d="M66.2686 113.852C67.1698 112.935 68.1415 112.066 69.1783 111.251C51.0335 112.079 34.9767 109.489 23.6513 105.356C14.8273 102.134 9.19485 98.4782 6.51183 96.4453C5.82959 95.9292 5.32882 95.5218 5.02178 95.2469C4.84337 96.2194 4.76221 97.2232 4.76221 98.2278C21.283 110.76 44.3428 114.582 66.2694 113.853L66.2686 113.852Z" fill="#38A1FF"/>
<path d="M59.9721 124.111C46.8648 124.204 33.1772 122.334 21.145 117.992C21.1289 118.554 20.9796 118.647 20.5562 120.551C32.8372 124.913 46.1244 126.651 59.3457 126.582C59.5073 125.746 59.7179 124.922 59.9721 124.111Z" fill="#38A1FF"/>
<path d="M75.2103 79.0448C75.1269 79.626 74.9822 80.2025 74.8252 80.8105C77.055 83.3649 78.9378 86.3205 80.5182 90.7738C80.6262 89.9867 80.7824 89.2133 80.9654 88.4706C78.7816 83.1359 77.7862 81.76 75.2103 79.0448Z" fill="#191919"/>
<path d="M26.5348 92.6053C26.2109 92.5571 26.0378 92.7692 25.9513 93.0425C25.5937 94.1834 23.1971 108.347 21.3181 116.906C20.2652 116.533 19.4413 116.01 18.5799 115.577C9.43975 110.982 5.73148 102.796 6.52704 96.4284V96.3641C6.91602 93.2378 8.1013 90.3809 9.65338 87.665C11.9107 83.7171 16.4934 79.1474 20.2154 76.5357C23.2491 74.4063 26.3878 72.8963 29.6642 71.7133C29.2078 71.5196 28.8694 71.0357 28.9391 70.3466C27.0807 70.9116 24.704 71.7057 20.9283 74.0411C16.2767 76.9178 11.8127 81.459 9.2154 85.2347C7.33715 87.9659 5.62505 91.727 5.01938 95.2301C4.12581 100.401 5.73684 105.608 8.87466 109.696C10.5554 111.886 12.7483 113.549 14.9497 115.172C16.6358 116.415 18.2935 117.291 20.1657 118.331C21.0087 118.799 20.9413 118.801 20.7491 119.66C20.5217 120.674 19.6465 124.526 19.7124 125.573C19.7775 126.61 20.0202 126.771 21.1381 126.496C20.838 125.386 21.3824 124.72 22.6611 118.509C24.1014 111.512 26.2438 100.997 26.9054 93.2048C26.9299 92.9131 26.8571 92.6543 26.5325 92.6053H26.5348Z" fill="#191919"/>
<path d="M84.0445 27.8869C83.1326 26.3509 81.8064 25.2689 80.1081 24.6472C78.3561 24.0055 76.5767 23.759 74.7137 23.8861C72.0414 24.0676 69.5123 24.6602 67.0996 25.8624C65.5437 26.638 64.013 27.4297 62.5314 28.357C61.8224 28.8011 61.0574 29.0783 60.1823 29.0699C59.3239 29.0622 58.4487 29.184 57.5904 29.3455C54.3836 29.9474 52.3047 31.7582 51.5643 34.9995C51.124 36.9267 50.8943 38.8701 51.0942 40.864C51.1286 41.2039 51.2588 41.5661 50.7703 41.7874C49.4487 42.3854 49.0107 43.5209 49.0046 44.8816C48.9969 46.6794 49.8323 48.0546 51.2726 49.0125C52.5375 49.8533 53.0015 51.0056 53.1516 52.4467C53.3874 54.7155 52.9303 56.9023 52.4877 59.0884C52.1363 60.8227 51.4456 62.4712 50.7059 64.0777C50.3629 64.8219 49.9242 65.5425 49.5069 66.2645C48.9303 67.2615 48.941 65.5899 40.5015 67.2507C40.9938 67.6167 41.3667 68.0555 41.6561 68.5325C43.758 68.1382 45.7549 67.8579 47.5796 67.7063C48.4869 67.6305 48.4533 67.6742 48.5681 68.5647C48.8062 70.4154 49.5321 72.2645 50.9816 73.4736C51.9464 74.2783 53.1547 74.9368 54.0919 75.2722C57.7711 76.5885 59.7404 75.6122 60.0046 75.6122C61.608 75.1443 64.1348 73.6658 64.7351 71.7561C65.1072 72.0287 65.4908 72.3166 65.8837 72.6175C66.01 72.446 66.1968 72.2921 66.4686 72.1773C66.6141 72.0961 66.7925 72.08 66.9709 72.0639C66.9388 71.9024 66.9342 71.7515 66.9549 71.6122C66.203 71.0272 65.5192 70.5249 64.9457 70.1359C64.9939 68.5486 65.2052 66.9582 65.4962 65.3893C65.6616 64.4988 66.3882 64.7737 66.6624 64.7737C69.2382 65.0164 71.7466 64.8671 74.033 63.4942C76.0077 62.3081 77.4342 60.6106 78.4878 58.5853C80.9756 53.8043 81.7987 47.0906 81.4848 41.9153C81.4136 40.7384 82.4251 41.2437 83.5583 40.1005C87.1311 36.4995 86.6234 32.2314 84.0445 27.8869ZM80.2865 43.8111C80.2045 49.6818 79.0284 57.06 74.827 61.1611C73.0483 62.8977 70.8584 63.5348 68.4281 63.5264C67.1647 63.5225 65.9013 63.3809 64.6539 63.0892V63.1052C60.9487 62.2591 59.4518 59.632 58.9518 59.4444C58.4816 59.2362 58.2611 59.583 58.4012 59.8977C58.5467 60.3189 58.8101 60.6718 59.0819 60.9996C60.281 62.4437 61.7045 63.5486 63.5368 64.0938C64.6379 64.4207 64.6348 64.449 64.4441 65.5677C64.1631 67.2193 63.8446 68.8564 63.8607 70.5417C63.8637 70.8656 63.6991 71.0923 63.5207 71.3518C60.827 75.2661 55.5077 75.541 51.6784 72.2913C51.6623 72.2913 51.6462 72.2913 51.6301 72.2592C50.4479 71.2385 50.0138 69.8442 49.621 68.4192C49.5406 68.1275 49.6332 67.897 49.8476 67.6903C51.1363 66.4498 51.8622 64.8901 52.5046 63.2676C53.8943 59.7568 54.6746 56.1236 54.3997 52.3165C54.2695 50.5179 53.683 49.0347 52.0666 48.024C50.8323 47.2514 50.1064 46.1121 50.1876 44.5898C50.1876 43.5462 50.9234 42.4727 52.1156 42.7101C53.2029 42.9275 54.0061 43.5071 54.513 44.4926C54.964 45.3678 55.0145 46.1833 55.8093 46.6955C56.1524 46.9176 56.4893 46.9536 56.83 46.7116C57.3798 46.3211 57.8752 45.8831 58.0773 45.1886C58.2335 44.6519 58.4028 44.1036 58.4342 43.5362C58.6348 39.9076 60.6861 38.0783 63.4395 37.1051C66.5506 36.0056 69.742 35.8073 72.9978 36.5056C74.0506 36.7315 75.1027 36.8655 76.1241 37.1863C78.1264 37.8149 80.3401 40.05 80.2872 43.8119L80.2865 43.8111ZM82.1333 39.6633C81.4189 40.3754 81.3041 40.3624 80.8209 39.5179C79.4342 37.0929 77.324 35.7644 74.5843 35.3218C72.8362 35.0393 71.1172 34.6273 69.3193 34.6901C63.4947 34.8946 58.1141 36.7452 57.4127 42.5309C57.2335 44.0102 57.2489 44.3954 57.0237 44.9934C56.9211 45.2667 56.8292 45.6251 56.4732 45.6251C56.1654 45.6251 56.1171 45.269 55.987 45.0416C55.575 44.4536 55.2067 42.377 52.7634 41.769C52.3438 41.6649 52.245 41.429 52.2289 41.0561C52.1148 38.4152 52.4066 35.8478 53.5574 33.4259C53.7971 32.9221 54.1707 32.5645 54.5942 32.2269C55.8668 31.2138 57.3476 30.7437 58.9357 30.5906C59.4702 30.5393 59.9885 30.4313 60.523 30.3961C61.657 30.321 62.6616 29.9267 63.6172 29.3432C64.7029 28.6794 65.8369 28.1127 66.9541 27.5124C70.0008 25.8777 73.2558 25.1127 76.69 25.3585C78.7153 25.5025 80.6441 26.1028 82.0683 27.6908C83.0415 28.7758 83.5905 30.1212 84.1096 31.4489C85.3562 34.6403 84.4618 37.3425 82.1333 39.6633Z" fill="#191919"/>
<path d="M84.5444 104.432C84.5176 103.332 84.4633 102.271 84.3821 101.267C83.7206 100.796 83.157 100.285 82.6792 99.7424C82.876 101.349 83.0023 103.059 83.0689 104.746C83.2259 104.71 84.2428 104.491 84.5444 104.432Z" fill="#191919"/>
<path d="M70.9692 109.942C71.8161 104.51 71.8283 101.24 71.895 94.9874C71.9003 94.4851 71.862 93.9828 71.8138 93.4805C71.7809 93.1405 71.6522 92.7837 71.2303 92.8166L71.2464 92.8005C70.8735 92.8327 70.8199 93.1727 70.7763 93.4812C70.0825 98.3871 70.8574 101.026 69.2954 111.16C69.836 110.739 70.3942 110.332 70.9685 109.942L70.9692 109.942Z" fill="#191919"/>
<path d="M64.6852 52.2523C64.3789 53.018 64.3583 54.2018 64.4747 54.7148C64.7082 55.747 65.1554 56.6084 66.2404 56.9346C67.2611 57.2409 68.1523 56.9346 68.9295 56.2539C70.7411 54.6689 68.3414 54.7791 66.4187 52.933C65.7487 52.2899 65.1063 51.2003 64.6852 52.2523ZM68.7028 55.3304C67.8927 55.9943 67.147 56.5625 66.2082 56.0112C65.1064 55.3641 65.2365 54.2455 65.2686 53.0624C65.5611 53.5954 66.2893 54.051 66.8559 54.4231C67.7687 55.0226 68.8031 55.3304 68.7028 55.3304Z" fill="#191919"/>
<path d="M73.8223 41.9001C74.268 41.9797 75.258 41.4031 77.2894 42.4185C77.5812 42.5639 77.856 42.7584 78.2611 42.7914C78.3262 42.4675 78.2458 42.2561 78.1317 42.0463C77.3759 40.6558 74.6623 40.2477 73.6447 41.3013C73.4134 41.5402 73.516 41.8457 73.8231 41.9008L73.8223 41.9001Z" fill="#191919"/>
<path d="M65.8032 46.8733C67.0973 47.2501 66.8852 46.7523 66.6455 46.5494C65.4878 45.5701 63.4242 45.4032 62.1416 46.2095C61.7473 46.4576 61.1876 46.9116 61.4939 47.2623C61.9724 47.8105 62.6447 45.9545 65.8032 46.8733Z" fill="#191919"/>
<path d="M72.0727 50.4213C72.0727 50.0813 72.0566 49.7574 71.9433 49.4328C71.1646 47.2038 71.1692 46.8302 70.7611 46.9703C70.2626 47.141 70.7787 48.3922 71.0367 49.3034C71.3729 50.4925 71.4188 50.651 69.8545 51.5714C71.2641 52.0737 72.0413 51.5714 72.0574 50.4213H72.0727Z" fill="#191919"/>
<path d="M66.3703 41.6252C66.4353 41.0418 66.0938 40.7715 65.6413 40.6857C64.2615 40.4246 62.9935 40.6612 61.9315 41.6413C61.6704 41.8825 61.4131 42.1758 61.6719 42.6459C63.08 41.6214 64.6566 41.626 66.3703 41.6252Z" fill="#191919"/>
<path d="M73.5794 47.1329C73.6583 47.2638 73.806 47.2784 73.9354 47.2462C75.7854 46.9376 76.8244 47.7194 77.5802 47.6191C77.6613 47.4246 77.6453 47.3274 77.5802 47.2462C76.9247 46.4323 75.4316 46.1704 74.4844 46.3366C74.0051 46.4208 73.3857 46.8113 73.5794 47.1329Z" fill="#191919"/>
<path d="M41.7622 71.1893C41.7622 71.5132 41.7453 71.723 41.5516 71.8371C41.3074 71.981 41.1113 71.8409 40.9199 71.6916C40.6565 71.4864 40.5103 71.1763 40.3364 70.8815C39.119 68.8118 37.1128 67.7911 34.7315 68.1273C33.2254 68.3401 31.9 68.8914 31.0217 70.2169C30.8601 70.4604 30.6488 70.687 30.4222 70.8807C30.1396 71.1235 29.7583 70.9573 29.7583 70.5247C29.7583 70.249 29.8686 70.0048 29.9849 69.7636C30.5209 68.6548 31.328 67.7842 32.4796 67.2689C34.8425 66.2107 37.1795 66.4236 39.4291 67.5446C40.9528 68.3041 41.4544 69.7643 41.7622 71.1893Z" fill="#191919"/>
<path d="M36.169 70.4521C36.3896 70.9858 36.6782 71.7438 36.7081 72.129C36.7724 72.9552 36.6583 73.8625 36.0603 72.8097C34.6162 70.2676 33.8046 70.4352 34.1484 69.7967C34.5128 69.1205 35.5871 69.0463 36.169 70.4521Z" fill="#191919"/>
<path d="M38.3112 69.8257C38.5355 70.3594 38.8632 71.1986 38.8946 71.6105C38.9589 72.4367 38.8449 73.3441 38.2468 72.2913C36.8027 69.7491 35.9911 69.9168 36.3349 69.2782C36.7108 68.5807 37.7912 68.5899 38.3104 69.8265L38.3112 69.8257Z" fill="#191919"/>
<path d="M32.4475 71.2704C32.2699 71.0912 32.2369 70.8332 32.3824 70.6226C32.5608 70.3638 32.8342 70.3853 33.1114 70.4603C33.7523 70.6341 34.6267 71.8317 34.5264 73.3233C34.3411 76.0943 34.0807 72.919 32.4475 71.2704Z" fill="#191919"/>
<path d="M73.9519 80.9422C73.9159 81.1037 73.8225 81.25 73.7252 81.3794C73.677 81.4445 73.5629 81.4927 73.4825 81.5088C73.3202 81.5088 73.2734 81.3786 73.2558 81.2492C73.0614 79.825 74.3753 78.067 72.0085 74.1536C70.8508 72.2394 67.7152 73.0862 67.7642 71.8856C67.7811 71.4806 68.1203 71.3833 68.4771 71.3351C70.4863 71.0602 72.5881 72.2279 73.5315 74.0081C74.8875 76.5679 74.5024 78.4529 73.9526 80.9414L73.9519 80.9422Z" fill="#191919"/>
<path d="M68.104 74.9316C68.0389 76.0978 67.7549 77.2295 67.4402 78.3495C67.3904 78.5271 67.261 78.7048 67.1324 78.8518C66.8215 79.2078 66.4141 78.9605 66.4195 78.6412C66.4493 76.8918 66.9149 75.6276 66.5167 73.8788C66.4394 73.538 66.3368 73.1139 66.7924 72.9232C67.1477 72.7746 67.6186 73.0204 67.8613 73.4737C68.104 73.927 68.137 74.4293 68.1209 74.9316H68.104Z" fill="#191919"/>
<path d="M70.2418 77.1512C70.274 78.1397 69.839 78.9995 69.3834 79.8403C69.287 80.0187 69.1407 80.1642 68.8972 80.1159C68.5733 80.0508 68.6055 79.7599 68.6216 79.5654C68.6537 79.1764 68.7487 78.7874 68.8482 78.3992C69.4883 75.9054 68.2303 75.0019 69.1078 74.5922C69.4294 74.4422 69.7724 74.7377 69.9661 75.3533C70.336 76.5272 70.1652 77.0746 70.2418 77.1512Z" fill="#191919"/>
<path d="M71.3276 79.6298C71.9554 76.9102 70.6178 76.1514 71.5381 75.7095C71.8781 75.5464 72.1515 75.8075 72.4126 76.4706C72.9164 77.7492 72.7265 79.3595 71.9822 80.4636C71.0312 81.8756 71.0351 80.8932 71.3268 79.629L71.3276 79.6298Z" fill="#191919"/>
<path d="M73.0441 124.374C73.2899 123.034 73.7684 121.585 74.9721 120.956C75.4384 120.713 75.9614 120.789 76.3657 121.086H76.3818C76.7869 121.377 76.9584 121.816 76.852 122.397C76.6988 123.234 76.0135 123.12 75.8964 127.046C75.842 128.855 76.0954 130.973 75.5518 132.076L107.612 131.669C107.369 131.075 107.598 130.728 107.389 128.731C107.265 127.542 107.004 123.968 106.384 122.964C105.3 121.204 108.371 119.366 109.576 122.527C110.482 124.904 110.677 128.391 110.726 130.934C110.73 131.164 110.702 131.359 110.646 131.524L119.995 130.583C119.789 129.92 119.806 129.331 118.567 126.56C114.922 118.586 110.71 110.655 98.9968 107.46C97.6897 111.442 91.6109 112.212 89.1798 108.545C88.6935 107.816 88.5641 107.232 88.4991 106.844C78.6659 107.183 63.7776 113.713 61.7531 130.495C61.7492 130.803 61.6995 131.049 61.6206 131.243L72.855 132.042C72.6498 129.494 72.649 126.53 73.0441 124.373V124.374Z" fill="#38A1FF"/>
<path d="M73.66 131.955C73.4976 130.303 73.5306 131.356 73.5306 129.687C73.5306 127.577 73.4402 122.61 75.3284 121.684C75.5237 121.589 75.7182 121.618 75.8951 121.749C76.0903 121.894 76.0735 122.089 76.0405 122.284C76.0405 122.635 75.1722 123.159 75.0849 127.047C75 130.817 75.2166 130.075 75.1355 131.158C75.0826 131.86 74.4425 132.047 73.6753 131.972L73.66 131.955Z" fill="#191919"/>
<path d="M109.948 130.416C109.948 131.066 110.052 131.515 109.43 131.502C108.814 131.489 108.291 131.886 108.296 130.968C108.304 129.386 107.921 123.897 107.065 122.543C106.901 122.285 106.935 122.025 107.162 121.814C107.405 121.588 107.696 121.555 107.988 121.717C109.64 122.635 109.829 128.589 109.948 130.432V130.416Z" fill="#191919"/>
<path d="M114.694 92.201C114.84 91.3748 114.63 90.6129 114.37 89.8847C113.966 88.7507 113.464 87.6481 112.766 86.6772C111.812 85.348 111.008 85.1581 109.478 85.7377C109.3 85.8051 109.122 85.9804 108.959 85.7377C108.413 84.8028 111.613 83.0623 113.446 85.495C114.519 86.9176 115.173 88.5072 115.309 90.2898C115.361 90.9697 115.309 91.6834 114.694 92.2178V92.2017L114.694 92.201Z" fill="#191919"/>
<path d="M92.8874 94.9086C92.2519 97.5449 88.7412 97.7286 87.4946 95.6835C86.5849 94.1896 88.5773 95.7233 91.4961 93.1237C91.7879 92.8641 92.1118 92.5073 92.549 92.7026C93.1715 92.9805 93.0452 94.2539 92.8874 94.9086ZM88.8882 95.6674C90.7511 96.5747 92.0306 95.7485 92.1118 93.6099C91.1883 94.6145 90.1837 95.3435 88.8882 95.6674Z" fill="#191919"/>
<path d="M98.5107 93.7401C98.3936 93.0617 98.6493 92.4246 98.8668 90.8082C99.2925 87.652 98.1026 86.9254 98.0566 86.0617C98.0566 85.8511 98.1056 85.6581 98.2994 85.5433C98.5436 85.3993 98.7527 85.4621 98.9311 85.6405C99.0766 85.786 99.2052 85.933 99.304 86.1107C99.8468 87.0869 100.23 88.1038 100.13 89.2531C100.005 90.6949 99.7282 92.0801 98.9479 93.3519C98.8491 93.5127 98.8024 93.7079 98.5107 93.757V93.7401Z" fill="#191919"/>
<path d="M97.4739 88.1512C96.4371 88.103 95.8506 87.603 95.3514 87.0333C94.6178 86.1949 94.1569 85.1895 93.8935 84.1014C93.7917 83.6811 93.794 83.2416 94.039 82.838C94.1676 82.6267 94.3476 82.4766 94.6056 82.5302C94.8169 82.5746 94.9747 82.7247 94.9785 82.9513C94.9946 83.9399 95.4134 84.8151 95.8047 85.7056C96.4081 87.0792 97.3874 88.1091 97.4731 88.152L97.4739 88.1512Z" fill="#191919"/>
<path d="M92.177 85.9636C89.788 84.8587 89.1854 81.2324 90.654 81.0386C91.0269 80.9896 91.249 81.1834 91.1724 81.5409C90.8615 82.995 91.3087 84.3089 92.0147 85.5425C92.0614 85.6244 92.0798 85.7209 92.177 85.9636Z" fill="#191919"/>
<path d="M88.532 92.8649C87.7219 92.8328 87.3015 92.4109 86.993 91.8442C86.702 91.309 86.8513 90.8274 87.2357 90.3864C87.6285 89.9361 88.0305 89.4966 88.4991 89.123C88.6614 88.9935 88.8758 88.9078 89.0496 89.0747C89.2319 89.2485 89.1316 89.4484 89.0014 89.6092C88.712 89.9675 88.4026 90.3228 88.094 90.6781C87.7709 91.051 87.7051 91.407 87.9968 91.8442C88.1867 92.1291 88.6431 93.087 88.532 92.8649Z" fill="#191919"/>
<path d="M84.644 87.5356C84.7252 86.8066 85.2275 86.2561 85.6486 86.3533C86.0698 86.4506 86.1195 86.7745 86.0698 87.1313C85.8661 88.5899 84.5522 88.4016 84.6601 87.5363L84.644 87.5356Z" fill="#191919"/>
<path d="M93.1166 89.544C93.2973 88.1719 94.7368 88.2531 94.5424 89.3656C94.4428 89.9322 93.9918 90.3702 93.5538 90.2891C93.1159 90.2079 93.1005 89.8679 93.1166 89.5601V89.544Z" fill="#191919"/>
<path d="M122.195 129.606C121.661 127.225 120.885 126.252 120.009 123.985C116.21 114.154 108.396 107.819 98.8676 105.226C99.9855 100.884 100.407 99.3595 101.378 99.3128C103.452 99.2125 105.149 98.2562 106.578 96.8182C108.517 94.8687 108.781 91.5693 108.587 88.8319C111.308 90.9376 110.58 95.1987 111.357 92.9307C111.973 91.1329 110.724 87.7056 108.668 87.358C106.884 87.0563 107.645 88.6214 106.821 92.8656C106.025 96.9637 101.864 98.3733 101.524 98.0333C102.706 94.6803 104.012 95.9392 105.396 94.129C107.17 91.8067 104.577 88.8449 101.233 90.5326C100.942 90.6796 100.584 90.8894 100.747 91.2937C100.891 91.6505 101.265 91.5203 101.541 91.4391C103.793 90.776 105.306 92.028 104.262 93.4476C103.425 94.5862 102.041 94.322 101.216 95.8128C99.6915 98.5663 98.3645 101.418 97.7818 104.528C96.5981 110.846 89.0957 109.079 90.5245 104.204C91.0421 102.438 90.7994 102.112 91.6585 102.017C93.7481 101.786 98.8025 99.3764 98.252 97.433C96.8753 97.3519 93.7474 101.617 88.0138 100.511C84.4977 99.8335 81.9456 97.1245 82.3599 91.8281C82.487 90.2079 83.6233 84.7163 84.66 83.4529C85.4862 84.3763 86.1019 85.5264 87.7703 85.5754C86.928 84.9437 86.4916 84.2462 86.0858 83.5341C82.1623 76.6581 96.3714 69.5386 103.646 78.7063C106.95 82.8702 106.352 85.057 107.875 83.3396C110.159 80.7638 114.879 81.2147 116.299 84.4896C117.113 86.3671 117.574 88.2799 117.206 90.322C116.993 91.5042 117.706 90.5969 117.935 89.7554C118.947 86.0272 117.272 82.5287 115.246 81.2339C112.428 79.4337 108.28 80.4238 107.049 82.7729C106.466 82.4491 104.489 71.2652 92.5016 73.0692C86.8147 73.9253 83.6968 78.7729 84.0452 81.5417C84.2351 83.0486 76.4127 95.6436 85.6325 101.079C87.0276 101.901 87.657 101.566 89.2129 101.807C90.1524 101.954 89.6042 102.667 89.0674 104.61C88.987 104.902 88.8408 104.951 88.549 104.918C86.8959 104.729 85.2764 105.048 83.6891 105.388C70.4226 108.227 60.1416 118.053 59.7457 130.303C59.7166 131.202 60.7978 131.363 60.9279 130.206C62.7687 113.863 77.3867 106.039 88.6945 105.825C89.683 105.807 88.8239 106.392 89.8285 107.899C91.9342 111.058 97.2627 110.296 98.2527 106.862C98.4633 106.133 99.2091 106.471 99.9534 106.765C105.963 109.128 110.208 111.597 113.705 116.097C117.506 120.988 119.975 126.986 120.705 129.979C120.737 130.109 120.77 130.303 120.851 130.319C121.272 130.448 121.727 130.42 122.13 130.271C122.472 130.144 122.244 129.785 122.179 129.558L122.195 129.606H122.195Z" fill="#191919"/>
</svg>
