<svg width="155" height="155" viewBox="0 0 155 155" fill="none" xmlns="http://www.w3.org/2000/svg">
<path d="M57.0613 131.86C57.0805 127.052 57.5535 122.258 58.4741 117.539C58.5698 117.054 58.5368 116.552 58.3783 116.083C58.2199 115.614 57.9415 115.196 57.5708 114.868C54.8149 112.416 52.3537 109.651 50.2368 106.631C49.9712 106.245 49.8118 105.796 49.7746 105.329C49.7373 104.862 49.8235 104.393 50.0245 103.97C50.2255 103.547 50.5342 103.184 50.9197 102.918C51.3052 102.652 51.7539 102.492 52.2208 102.454C57.8256 101.852 62.2106 98.2466 63.0289 96.7334C74.416 104.894 97.5917 99.8909 102.401 97.1966C105.26 95.6207 107.593 93.2395 109.11 90.3489C109.11 90.3489 115.07 91.121 118.837 104.438C119.189 105.636 119.227 106.904 118.947 108.121C118.667 109.338 118.079 110.462 117.239 111.386C112.607 116.335 103.204 118.141 98.356 113.44C98.6802 116.481 91.6704 118.689 86.1119 118.712C84.2977 117.547 81.0553 113.378 79.3337 113.872C77.6121 114.366 76.6085 115.107 76.3383 116.829C74.0223 113.864 69.0351 112.814 66.3563 114.86C63.6774 116.906 63.3918 134.986 71.6445 136.97C67.3527 136.989 63.0918 136.244 59.0608 134.77C58.47 134.548 57.9615 134.149 57.604 133.629C57.2465 133.109 57.0571 132.491 57.0613 131.86Z" fill="#3D9CFB"/>
<path d="M50.4448 45.9273C60.3111 14.5298 22.3515 30.5412 36.6336 43.0554C38.1236 43.8274 39.4977 41.1795 40.1231 40.2376C36.263 36.2386 43.9368 29.1979 46.2991 36.2155C46.7855 39.0564 43.8441 41.0019 44.207 44.6381C44.0835 49.4631 49.7268 49.0153 50.4448 45.9273Z" fill="#3D9CFB"/>
<path d="M53.2089 51.2931C50.422 50.8531 47.527 54.2499 50.8466 56.3961C53.8343 56.759 56.7833 53.5011 53.2089 51.2931Z" fill="#3D9CFB"/>
<path d="M115.101 35.135C120.019 36.5786 118.189 31.5837 122.759 31.3907C125.847 31.4756 127.785 33.6218 126.04 36.1772C124.296 38.7325 121.184 37.8601 118.32 40.4927C114.383 43.241 117.818 47.0239 120.806 45.5416C151.81 32.1782 112.986 16.9542 115.101 35.135Z" fill="#3D9CFB"/>
<path d="M112.352 51.7099C113.68 53.748 118.157 54.4429 117.663 50.5211C116.559 48.3672 112.066 48.1047 112.352 51.7099Z" fill="#3D9CFB"/>
<path d="M79.7657 41.2107C79.2175 41.674 78.0827 43.0327 79.3951 45.4336C80.9391 46.9776 84.1043 47.1012 85.6792 45.7193C86.1965 45.2561 87.2232 43.8896 85.8491 41.4346C84.3745 39.8906 81.2556 39.9369 79.7657 41.2107ZM84.6447 44.5535C83.8727 45.2792 81.9273 45.2483 80.7229 44.5072C79.2793 41.8747 82.9154 41.2648 84.583 42.3688C84.9381 43.0867 85.2237 44.0054 84.6447 44.5535Z" fill="#001434"/>
<path d="M83.1009 21.0999C88.4586 19.7875 88.667 25.0989 84.421 27.1601C81.3947 28.6501 77.4729 34.3244 80.8929 36.8411C81.7323 37.4829 82.7737 37.803 83.8287 37.7435C84.8836 37.684 85.8824 37.2489 86.6444 36.5169C97.4525 26.8745 96.086 20.9995 94.3181 18.3515C88.3737 9.75138 68.7338 14.808 74.6088 26.8436C81.5568 29.7464 78.8317 22.5281 83.1009 21.0999ZM79.318 16.7766C87.5553 12.8317 103.953 19.0386 85.4941 35.4129C83.124 37.5745 79.4724 34.8879 81.8193 31.9312C83.263 28.6887 87.3546 28.2718 88.6516 24.9831C90.2728 21.0613 86.1271 18.3052 82.6299 19.579C77.8049 20.6598 80.1364 27.5848 75.5738 25.5235C74.0607 20.2121 77.2336 17.7571 79.2949 16.7766H79.318Z" fill="#001434"/>
<path d="M29.5312 89.2448C25.0304 87.7934 19.5646 93.1743 24.4437 96.7487C28.9059 97.8836 34.8118 93.6453 29.5312 89.2448ZM29.7705 93.5758C29.0603 94.8573 26.8215 95.6448 25.0459 95.2742C22.313 92.6185 26.2888 90.0554 28.9059 90.7039C29.647 91.4605 30.3573 92.5258 29.7705 93.5526V93.5758Z" fill="#001434"/>
<path d="M26.3045 85.3464C40.355 58.4342 18.0054 52.9221 6.0007 65.8609C3.02075 70.0915 4.13244 74.8471 9.08873 78.931C9.20239 79.0277 9.34163 79.0893 9.48961 79.1085C9.63758 79.1277 9.78794 79.1036 9.92249 79.0391C18.1907 75.2794 9.67545 72.616 14.9097 68.4935C24.2355 65.1507 21.0394 74.299 17.2257 81.193C15.5118 87.8091 23.0621 90.4648 26.3045 85.3464ZM20.4681 86.2496C18.9241 85.6552 18.2988 83.9336 18.7311 81.6176C20.1979 79.0005 24.3899 70.8095 21.6493 67.5362C18.0672 63.985 9.29717 67.8604 11.8525 73.5578C12.3234 75.0401 12.6245 75.9588 9.68317 77.4179C-2.31382 67.1733 17.5885 57.3457 25.3626 62.2557C30.566 65.529 30.4888 73.334 24.9303 84.5975C24.478 85.3318 23.7928 85.8935 22.984 86.1929C22.1753 86.4923 21.2895 86.5123 20.4681 86.2496Z" fill="#001434"/>
<path d="M81.6495 91.0746C81.6147 90.8698 81.5 90.6873 81.3306 90.5671C81.1612 90.447 80.951 90.399 80.7463 90.4338C80.5415 90.4686 80.359 90.5833 80.2388 90.7527C80.1187 90.9221 80.0707 91.1323 80.1055 91.3371C80.4375 93.0432 79.1714 92.8811 79.9897 93.9387C81.0782 94.6412 81.9429 93.2439 81.6495 91.0746Z" fill="#001434"/>
<path d="M110.067 89.7697C110.15 89.2827 110.186 88.789 110.175 88.2952C125.801 82.6827 121.477 68.223 110.005 59.7309C93.9785 46.599 57.4934 46.8307 52.2206 69.9368C27.0686 82.0342 34.7732 102.122 53.3632 116.211C52.2206 119.531 50.0513 134.67 52.2438 134.739C52.3492 134.739 52.4535 134.718 52.5503 134.676C52.6471 134.635 52.7344 134.574 52.8067 134.497C52.879 134.42 52.9349 134.33 52.9708 134.23C53.0068 134.131 53.0221 134.026 53.0158 133.921C52.7456 125.429 53.4867 115.13 61.0678 102.709C60.7127 96.6406 53.5948 114.397 53.8418 114.582C49.5231 111.231 45.6839 107.303 42.4315 102.909C48.6076 103.581 55.9108 100.176 60.4425 95.0193C62.0751 97.3104 64.3666 99.0499 67.0123 100.007C70.8723 106.028 74.8327 108.962 79.4647 104.639C79.1399 107.382 79.0109 110.145 79.0787 112.907C77.4344 112.853 76.4693 113.795 75.6587 115.717C72.0843 113.239 64.6576 111.934 61.7008 115.176C59.5006 118.334 60.0796 129.659 64.2562 134.477C67.1898 137.835 72.3391 138.375 77.4961 138.445C80.7617 139.989 85.0309 140.668 89.6243 140.668C109.697 140.969 132.285 128.98 126.99 107.371C124.836 98.7173 118.212 91.8309 110.067 89.7697ZM125.376 107.348C122.218 115.369 105.049 117.23 99.205 113.053C99.2899 112.444 99.0042 108.306 97.2286 108.838C97.1352 108.885 97.0522 108.95 96.9845 109.029C96.9169 109.108 96.866 109.2 96.835 109.3C96.804 109.4 96.7934 109.504 96.804 109.608C96.8146 109.712 96.8461 109.812 96.8967 109.904C100.054 116.126 92.2646 117.894 86.7062 117.933C84.9228 117.083 82.6531 114.25 80.6845 113.355C80.5612 110.073 80.7317 106.786 81.194 103.535C84.5059 110.861 92.6429 104.893 95.3912 100.64C100.942 99.2345 107.743 96.1619 109.635 91.2905C117.131 93.1665 123.245 99.4429 125.376 107.348ZM82.4061 102.4C85.9279 102.348 89.4375 101.97 92.8899 101.273C89.4468 104.986 84.7144 107.896 82.4061 102.4ZM59.1687 87.5154C58.709 89.5155 58.8706 91.6082 59.6319 93.5139C55.6869 98.532 46.7007 102.886 41.1654 101.01C22.9924 72.2606 82.3984 60.7113 62.5964 72.7083C61.8244 72.3841 60.5042 71.0562 59.8403 72.1756C59.7938 72.269 59.7667 72.3708 59.7607 72.4749C59.7546 72.5791 59.7697 72.6833 59.8051 72.7815C59.8404 72.8796 59.8953 72.9695 59.9664 73.0458C60.0374 73.1222 60.1232 73.1833 60.2186 73.2256C65.1363 75.6034 67.3133 79.2009 64.0246 81.2236C63.3607 79.2704 61.5696 77.6183 58.9448 76.5915C58.7492 76.5168 58.532 76.5228 58.3409 76.6082C58.1498 76.6936 58.0005 76.8515 57.9257 77.047C57.851 77.2425 57.857 77.4598 57.9424 77.6509C58.0278 77.842 58.1857 77.9913 58.3812 78.0661C65.0977 80.1968 63.4533 88.3955 56.5438 85.2766C56.4501 85.2289 56.3476 85.2008 56.2427 85.1941C56.1377 85.1873 56.0324 85.2022 55.9334 85.2376C55.8344 85.273 55.7436 85.3283 55.6667 85.4001C55.5898 85.4718 55.5284 85.5585 55.4862 85.6549C55.077 87.2529 58.2654 87.3765 59.1687 87.5154ZM75.2727 105.086C73.5048 105.086 71.5594 103.681 69.4827 100.879C72.672 101.776 75.9598 102.277 79.2717 102.369C77.9902 104.144 76.6469 105.063 75.2805 105.086H75.2727ZM63.8007 96.3781C60.9057 94.0621 59.9407 91.0203 60.8285 87.3302C61.8366 87.0799 62.7297 86.4942 63.361 85.6693C63.9923 84.8444 64.3244 83.8293 64.3025 82.7907C64.823 82.6092 65.3048 82.3316 65.723 81.9724C64.8815 87.4845 72.9027 90.3024 76.2455 86.0177C80.9856 79.9498 71.8913 73.38 67.1203 78.6296C67.02 76.8772 65.9237 75.1479 64.0323 73.6425C66.4731 74.3633 69.0171 74.6712 71.5594 74.5534C71.8373 75.2405 79.5265 78.7145 79.6809 76.0974C79.6696 75.9935 79.6374 75.893 79.5861 75.8019C79.5348 75.7108 79.4656 75.6311 79.3825 75.5676C79.2995 75.504 79.2045 75.458 79.1031 75.4323C79.0018 75.4066 78.8963 75.4018 78.7931 75.4181C77.7123 75.5648 75.7051 74.9703 74.2768 74.345C80.3633 73.724 86.0291 70.9541 90.2574 66.5323C102.108 74.2523 99.6141 81.2004 108.577 88.1948C109.156 98.3081 78.3067 105.55 63.8007 96.3781ZM67.3211 81.8412C68.3864 75.6651 77.8821 78.4135 75.5507 84.1572C73.5357 83.0146 69.5522 82.7213 67.3365 83.3389C67.2535 82.8433 67.2509 82.3376 67.3288 81.8412H67.3211ZM65.4528 133.388C61.5928 128.965 61.3226 118.457 62.9978 116.049C63.4456 115.4 64.7117 114.991 66.3406 114.883C63.9628 116.751 63.4996 131.165 69.197 135.727C67.7636 135.293 66.4714 134.486 65.4528 133.388ZM115.525 132.153C106.261 138.329 86.7602 141.942 76.9789 136.329C78.245 136.329 81.3176 136.793 80.9933 134.963C80.9525 134.866 80.8924 134.779 80.8167 134.706C80.7411 134.634 80.6513 134.577 80.5531 134.54C80.4548 134.503 80.3501 134.487 80.2452 134.492C80.1404 134.497 80.0377 134.523 79.9434 134.569C78.9629 135.017 76.23 134.785 74.4698 134.299C73.3497 133.078 72.5953 131.566 72.2928 129.937C73.389 130.354 78.0211 131.898 78.106 129.76C78.0868 129.658 78.0473 129.561 77.9899 129.475C77.9325 129.389 77.8584 129.315 77.772 129.258C77.6856 129.202 77.5886 129.163 77.4868 129.144C77.3851 129.125 77.2806 129.127 77.1796 129.15C68.9809 129.922 64.0555 119.754 75.9058 121.908C76.6778 122.101 77.6968 122.233 78.2218 121.561C79.6346 119.43 74.8636 116.381 78.5924 114.482C80.8312 114.111 84.174 118.936 86.3124 119.477C91.0062 119.639 96.8735 118.473 98.734 114.651C106.3 118.882 120.644 116.883 125.831 109.772C127.267 118.566 123.539 126.687 115.525 132.153Z" fill="#001434"/>
<path d="M129.128 68.8949C128.178 72.0832 135.783 72.7009 136.215 69.8907C136.802 67.0961 141.874 68.4934 142.63 70.2459C143.673 72.6623 140.044 74.4687 137.829 74.5151C134.293 74.6 128.016 78.0123 129.599 81.5326C130.078 83.316 132.865 84.474 135.049 83.7714C139.867 82.652 151.068 79.1394 151.038 71.1414C151.038 62.0472 135.597 55.3693 129.128 68.8949ZM134.686 82.2351C130.525 83.0072 129.39 79.4405 133.714 77.3715C137.002 75.3874 140.291 76.9469 143.047 73.9438C146.846 69.8213 142.275 66.849 138.608 66.7487C136.701 66.6869 134.818 67.8063 134.656 69.6514C134.609 70.1069 131.344 70.4234 130.641 69.4121C140.368 51.1387 165.111 75.7348 134.686 82.2351Z" fill="#001434"/>
<path d="M83.5332 88.0406C83.738 88.0406 83.9343 87.9593 84.0791 87.8145C84.2239 87.6697 84.3052 87.4734 84.3052 87.2686C84.3052 87.0639 84.2239 86.8675 84.0791 86.7227C83.9343 86.5779 83.738 86.4966 83.5332 86.4966C79.596 86.4966 79.071 82.1888 83.6104 81.7719C83.7141 81.7643 83.8151 81.7358 83.9075 81.6881C83.9998 81.6405 84.0816 81.5747 84.148 81.4947C84.2143 81.4146 84.2638 81.322 84.2934 81.2224C84.3231 81.1228 84.3324 81.0183 84.3207 80.915C84.313 80.8113 84.2845 80.7103 84.2369 80.6179C84.1892 80.5256 84.1234 80.4438 84.0434 80.3774C83.9634 80.3111 83.8708 80.2616 83.7712 80.232C83.6716 80.2023 83.567 80.193 83.4637 80.2047C77.0484 80.7066 77.4344 87.9094 83.5332 88.0406Z" fill="#001434"/>
<path d="M126.627 84.0806C121.168 85.1846 123.832 91.3452 128.441 90.9437C129.359 90.7791 130.18 90.2724 130.739 89.5259C131.298 88.7794 131.552 87.8486 131.452 86.9216C130.888 85.1691 128.649 83.8722 126.627 84.0806ZM128.24 89.3766C127.577 89.4024 126.922 89.2286 126.359 88.8776C125.796 88.5266 125.351 88.0146 125.083 87.408C125.553 84.5515 129.105 85.586 129.892 87.2613C129.769 88.1491 129.375 89.2299 128.24 89.3766Z" fill="#001434"/>
<path d="M92.435 90.4185C92.435 90.4185 91.4159 90.4185 89.7021 88.8745C89.5444 88.7353 89.3379 88.6644 89.128 88.6774C88.918 88.6905 88.7219 88.7864 88.5827 88.944C88.4434 89.1017 88.3725 89.3082 88.3856 89.5181C88.3986 89.728 88.4945 89.9242 88.6521 90.0634C90.6825 91.8468 92.0644 91.9857 92.435 91.9857C92.6428 91.9857 92.8421 91.9032 92.9891 91.7562C93.136 91.6093 93.2186 91.41 93.2186 91.2021C93.2186 90.9943 93.136 90.795 92.9891 90.6481C92.8421 90.5011 92.6428 90.4185 92.435 90.4185Z" fill="#001434"/>
<path d="M88.9912 94.6335C85.9881 97.1425 83.4404 94.896 82.9309 96.4477C82.9309 97.6366 83.6334 97.405 85.0925 97.5285C85.7642 97.6598 91.1142 96.7565 90.1029 94.7184C90.0367 94.6379 89.955 94.5716 89.8626 94.5236C89.7702 94.4755 89.669 94.4466 89.5651 94.4387C89.4613 94.4308 89.3569 94.4439 89.2582 94.4774C89.1596 94.5109 89.0687 94.564 88.9912 94.6335Z" fill="#001434"/>
<path d="M77.7356 91.2369C77.6363 91.2064 77.5318 91.1963 77.4285 91.2072C77.3252 91.218 77.2251 91.2496 77.1343 91.3001C77.0434 91.3506 76.9637 91.4188 76.8999 91.5008C76.8361 91.5828 76.7895 91.6769 76.7629 91.7773C76.2379 93.5684 75.2189 93.9389 75.1185 93.9621C74.9138 94.0184 74.7398 94.1537 74.6348 94.3383C74.5298 94.5229 74.5025 94.7416 74.5588 94.9464C74.6151 95.1511 74.7505 95.3251 74.9351 95.4301C75.1196 95.5351 75.3384 95.5624 75.5431 95.5061C75.6203 95.5061 77.4809 94.958 78.276 92.2405C78.3114 92.1393 78.3254 92.0318 78.3169 91.9249C78.3085 91.818 78.2779 91.714 78.2271 91.6196C78.1762 91.5252 78.1063 91.4424 78.0216 91.3765C77.937 91.3106 77.8396 91.2631 77.7356 91.2369Z" fill="#001434"/>
<path d="M86.8375 92.7812C87.0345 92.8192 87.2385 92.7791 87.4064 92.6693C87.5742 92.5596 87.6928 92.3888 87.7369 92.1931C87.7811 91.9975 87.7474 91.7923 87.6429 91.6211C87.5384 91.4499 87.3714 91.326 87.1772 91.2758C86.453 90.8825 85.882 90.2571 85.556 89.5002C85.1854 88.5429 83.6646 89.1451 84.0815 90.0792C85.0079 92.1559 86.2894 92.6577 86.8375 92.7812Z" fill="#001434"/>
<path d="M86.961 79.6567C86.0732 89.2837 102.123 87.7551 98.325 78.1127C96.1016 72.4771 87.1231 74.4457 86.961 79.6567ZM88.505 79.8574C89.8174 73.1333 100.317 76.7694 96.4104 83.0922C94.7583 81.1776 90.8288 80.8456 88.6363 81.5481C88.4863 80.9979 88.4418 80.4242 88.505 79.8574Z" fill="#001434"/>
<path d="M85.5868 75.5804C89.3464 74.9551 91.6393 71.8593 92.1565 71.0256C92.2681 70.8485 92.3048 70.6343 92.2585 70.4302C92.2121 70.226 92.0866 70.0486 91.9095 69.9371C91.7324 69.8255 91.5182 69.7888 91.3141 69.8351C91.1099 69.8815 90.9326 70.007 90.821 70.1841C89.6021 72.1359 87.6585 73.5242 85.4169 74.0441C85.2132 74.0667 85.0268 74.1692 84.8986 74.3292C84.7705 74.4891 84.7112 74.6935 84.7337 74.8972C84.7562 75.1009 84.8587 75.2874 85.0187 75.4155C85.1787 75.5436 85.383 75.6029 85.5868 75.5804Z" fill="#001434"/>
</svg>
