<svg width="154" height="154" viewBox="0 0 154 154" fill="none" xmlns="http://www.w3.org/2000/svg">
<path d="M142.615 81.8081C141.919 75.0102 139.593 65.1687 130.109 61.6702C126.559 66.1771 119.474 63.1074 117.628 60.0485C113.916 65.8525 107.608 71.2974 103.437 78.3487C101.424 81.7545 98.9957 85.7637 101.459 89.5034C108.87 88.8236 116.327 88.8072 123.741 89.4544C126.032 85.4774 126.3 84.0072 126.268 80.4957C126.268 80.1228 126.804 79.9597 126.851 80.4145C127.207 83.6047 126.484 86.822 124.798 89.5532C125.708 89.6107 126.612 89.7444 127.5 89.9529C128.265 90.1382 128.04 90.6611 127.364 90.5961C119.024 89.7939 110.627 89.7795 102.284 90.5532C104.937 93.9146 104.797 95.9575 104.137 99.4353C108.51 102.435 124.505 106.403 131.703 104.213C138.32 102.199 143.432 89.8066 142.615 81.8081Z" fill="#38A1FF"/>
<path d="M75.073 67.7193C70.9765 65.2392 62.3409 64.5853 57.5798 67.1251C56.553 71.1948 53.1211 76.0532 51.4243 77.593C48.9059 76.9805 44.5231 74.9292 42.8852 71.7837C35.6111 74.1076 28.4993 85.1696 26.3974 92.59C23.4793 89.5203 17.8476 81.5326 16.673 78.8197C14.1932 80.5098 11.3523 81.5962 8.37744 81.992C10.6853 98.0717 21.196 112.858 28.6539 112.305C34.5988 111.863 38.4465 105.571 40.716 101.383C39.3286 99.8363 38.1296 98.1309 37.144 96.3021C36.9442 95.9269 37.2206 95.2164 37.6846 95.8159C46.7964 107.608 59.5224 114.839 76.429 115.811C67.9719 104.285 65.102 79.0739 75.073 67.7193Z" fill="#38A1FF"/>
<path d="M51.6947 57.981C54.0401 57.6679 54.1909 54.0362 52.197 52.955C52.506 50.8917 52.6201 48.8038 52.5377 46.7191C52.4252 43.7574 50.7858 42.4511 48.0737 42.1364C45.6826 41.8572 43.4477 40.8061 41.7077 39.1425C38.6931 36.2612 38.919 40.801 41.7077 42.7796C39.155 42.4953 36.6705 41.7731 34.3631 40.6448C32.7796 39.6938 32.0086 40.02 32.3478 41.396C32.5121 42.1039 32.8307 42.7669 33.2807 43.3376C33.7307 43.9083 34.3011 44.3727 34.9511 44.6977C32.3576 45.0398 29.722 44.8655 27.1961 44.1847C25.02 43.5721 23.9542 43.7735 25.0943 45.6709C26.0317 47.0315 27.2452 48.1794 28.6558 49.0397C30.0664 49.9 31.6424 50.4534 33.2812 50.664C37.0369 51.0737 41.0844 50.0208 45.4619 48.3294C45.9799 50.7992 47.3518 53.0074 49.3364 54.566C49.5714 54.7521 49.9083 54.7819 50.0255 54.4412C50.7223 52.3738 53.3992 54.4412 52.3869 56.3761C52.0339 57.0507 51.5278 57.0032 51.0362 57.0086C50.5446 57.014 50.7062 57.3111 50.7766 57.7544C51.0638 59.5699 54.1779 66.5117 55.5163 67.6871C55.8356 67.9673 56.1335 67.5998 55.9375 67.282C54.135 64.3739 52.7093 61.2486 51.6947 57.981Z" fill="#191919"/>
<path d="M38.519 52.7176C38.1441 52.7765 37.7913 52.9327 37.4956 53.1707C37.2 53.4087 36.9721 53.72 36.8345 54.0737C36.5833 54.7307 36.9264 55.014 37.3743 54.4359C37.7695 54.0184 38.2616 53.7049 38.8069 53.5232C39.2533 53.3447 39.2916 52.5928 38.519 52.7176Z" fill="#191919"/>
<path d="M37.6054 56.3976C37.4875 56.733 37.7585 56.8945 38.0487 56.6464C38.2093 56.5083 38.3971 56.4055 38.6001 56.345C38.803 56.2844 39.0164 56.2674 39.2264 56.295C39.6429 56.295 39.6728 55.9428 39.3397 55.7544C39.1867 55.6664 39.0161 55.6131 38.8402 55.5984C38.6643 55.5837 38.4873 55.6079 38.3217 55.6693C38.1562 55.7307 38.0062 55.8278 37.8824 55.9536C37.7586 56.0795 37.6641 56.2311 37.6054 56.3976Z" fill="#191919"/>
<path d="M44.009 54.5661C43.8448 54.4637 43.6606 54.3977 43.4688 54.3727C43.277 54.3477 43.082 54.3641 42.8971 54.421C42.7121 54.4778 42.5416 54.5737 42.397 54.7022C42.2523 54.8307 42.137 54.9887 42.0587 55.1656C41.9393 55.4903 42.1537 55.6572 42.365 55.5064C42.7876 55.196 43.2994 55.031 43.8237 55.0362C44.0901 55.0033 44.3551 54.7537 44.009 54.5661Z" fill="#191919"/>
<path d="M43.431 60.8348C43.1569 60.9933 43.1247 61.4129 43.653 61.2889C45.4256 60.8678 46.3912 59.8119 45.6898 58.4841C45.4884 58.1013 44.9394 58.4191 45.1117 58.8027C45.6638 60.0293 44.0933 60.4512 43.431 60.8348Z" fill="#191919"/>
<path d="M43.4647 51.8907C43.0536 51.691 42.5985 51.5987 42.1421 51.6224C41.6856 51.6461 41.2426 51.785 40.8544 52.0262C40.7801 52.0832 40.7278 52.1642 40.7064 52.2554C40.6851 52.3467 40.6961 52.4424 40.7374 52.5265C40.7787 52.6106 40.848 52.6777 40.9332 52.7164C41.0185 52.7552 41.1146 52.7632 41.2051 52.7391C41.8639 52.4781 42.576 52.3798 43.2809 52.4527C43.7449 52.5331 43.9325 52.1579 43.4647 51.8907Z" fill="#191919"/>
<path d="M40.308 56.0247C40.1104 56.7996 39.8003 59.308 40.7345 59.5645C41.2215 59.6985 42.6732 59.1273 42.3884 58.6296C42.1656 58.2414 41.1258 58.9803 40.9941 58.7598C40.7261 57.8668 40.6561 56.9261 40.7888 56.0033C40.7996 55.5768 40.5163 55.2054 40.308 56.0247Z" fill="#191919"/>
<path d="M87.0162 70.4161C86.9358 68.6221 84.8547 66.2875 83.1464 66.2767C82.7467 66.2767 82.4389 66.8602 82.8401 66.9659C83.7127 67.1987 84.5077 67.6591 85.1439 68.3C85.7802 68.941 86.2347 69.7394 86.4611 70.6137C86.5936 71.0792 87.0484 71.1458 87.0162 70.4161Z" fill="#191919"/>
<path d="M88.488 67.7139C87.9276 65.3135 85.2461 64.2951 82.9926 64.6014C80.4367 64.949 78.3065 66.7139 76.6695 68.6596C74.929 70.727 76.4474 73.998 73.1028 75.3495C72.3371 75.6558 72.6381 76.1872 73.416 75.9498C77.4643 74.7124 75.9183 70.5991 77.4099 69.1565C78.9015 67.7139 80.4796 66.1358 82.6251 65.6167C84.7706 65.0975 87.0125 65.9 87.8885 67.9781C88.0524 68.374 88.5845 68.1358 88.488 67.7139Z" fill="#191919"/>
<path d="M84.3675 71.6703C84.6907 72.3595 85.1669 72.1083 84.9893 71.4406C84.5605 69.8204 83.0911 67.5233 81.1034 67.7553C80.7037 67.802 80.7733 68.4215 81.1034 68.5118C83.4028 69.1366 83.8576 70.5746 84.3675 71.6703Z" fill="#191919"/>
<path d="M78.9367 69.3196C78.5102 69.3893 78.3961 70.0562 78.9367 70.0761C79.6583 70.0668 80.3625 70.2988 80.9372 70.7354C81.5119 71.172 81.9244 71.788 82.109 72.4858C82.3142 72.9023 82.6449 72.9023 82.6495 72.3403C82.658 70.6864 80.6985 69.0309 78.9367 69.3196Z" fill="#191919"/>
<path d="M7.94715 71.2867C7.00917 67.6381 6.81238 66.5394 6.86675 64.207C6.879 63.6664 6.39661 63.7959 6.21284 64.5041C5.81782 66.9259 6.19585 69.4105 7.29324 71.6052C7.4885 71.9942 8.05052 71.6864 7.94715 71.2867Z" fill="#191919"/>
<path d="M4.73708 66.9038C4.73708 66.2821 4.13218 66.5577 4.11533 66.9521C4.04613 70.0056 4.87494 73.0123 6.49896 75.5991C7.42605 77.1858 8.1385 78.8885 8.61765 80.6627C8.75777 81.1596 9.37186 81.2408 9.293 80.263C8.96084 78.4019 8.26564 76.6244 7.24705 75.0317C5.75708 72.569 4.89515 69.7779 4.73708 66.9038Z" fill="#191919"/>
<path d="M15.4154 68.0769C15.0471 67.4398 14.6061 67.8954 14.8756 68.3832C16.6184 71.5164 12.845 75.4873 15.4154 78.3809C15.4796 78.4394 15.5618 78.4744 15.6485 78.4801C15.7352 78.4857 15.8212 78.4617 15.8924 78.412C15.9637 78.3623 16.0159 78.2899 16.0405 78.2066C16.0652 78.1233 16.0608 78.0341 16.028 77.9536C14.3496 74.7385 17.2485 71.2461 15.4154 68.0769Z" fill="#191919"/>
<path d="M11.5518 64.1718C11.5441 63.815 11.0862 63.4903 10.9469 64.1718C10.6796 65.4735 10.8335 69.3609 11.6758 70.4406C11.7244 70.5 11.791 70.5419 11.8656 70.56C11.9402 70.5781 12.0186 70.5713 12.089 70.5407C12.1593 70.5101 12.2178 70.4574 12.2555 70.3905C12.2931 70.3236 12.3079 70.2463 12.2976 70.1703C11.8691 68.1973 11.6195 66.1896 11.5518 64.1718Z" fill="#191919"/>
<path d="M9.33595 63.2124C9.33595 62.8127 8.87653 62.7645 8.73105 63.2124C8.15371 65.0302 8.36657 68.874 9.43855 70.5631C9.66826 70.9299 10.3069 70.7798 10.2043 70.2982C9.54856 67.9957 9.25561 65.6051 9.33595 63.2124Z" fill="#191919"/>
<path d="M99.0892 90.9713C99.4888 91.1344 99.5953 90.5035 99.3594 90.2822C97.9919 88.9859 93.9551 88.8121 91.923 90.3366C91.8469 90.3777 91.7896 90.4465 91.7629 90.5288C91.7363 90.6111 91.7424 90.7004 91.78 90.7783C91.8175 90.8562 91.8837 90.9167 91.9646 90.947C92.0456 90.9774 92.1352 90.9754 92.2147 90.9415C95.6787 89.5847 97.4728 90.3167 99.0892 90.9713Z" fill="#191919"/>
<path d="M96.0954 96.9131C99.639 96.3289 99.9445 97.3006 101.062 97.3779C101.164 97.3864 101.266 97.3542 101.345 97.2881C101.425 97.2221 101.474 97.1275 101.484 97.0249C101.569 96.0839 97.92 95.3159 95.8733 96.3189C95.4698 96.5165 95.7064 96.9774 96.0954 96.9131Z" fill="#191919"/>
<path d="M94.0468 95.2056C97.6746 94.0808 98.9067 94.7913 100.932 95.3457C101.336 95.4567 101.44 94.8587 101.169 94.6382C99.7443 93.4736 95.8094 93.485 93.8362 94.6053C93.4847 94.8051 93.6088 95.3411 94.0468 95.2056Z" fill="#191919"/>
<path d="M92.9658 93.3136C96.2093 92.3281 97.6465 92.8036 99.8135 93.1605C99.8982 93.1734 99.9848 93.1585 100.06 93.118C100.136 93.0774 100.196 93.0134 100.232 92.9357C100.268 92.8579 100.278 92.7706 100.26 92.6868C100.241 92.6031 100.197 92.5274 100.132 92.4713C98.7446 91.2638 94.3188 91.42 92.6741 92.7255C92.3165 93.0119 92.5554 93.4384 92.9658 93.3136Z" fill="#191919"/>
<path d="M146.229 44.2383C144.536 45.0772 142.651 45.4503 140.766 45.3194C138.728 49.2858 135.731 56.1985 130.295 55.5193C128.517 55.2981 127.51 53.932 126.447 52.6549C126.155 52.3042 125.828 52.6242 125.988 52.9688C126.565 54.2015 127.44 55.2712 128.533 56.0814C127.993 57.2299 127.452 60.2697 127.701 61.3938C127.715 61.4626 127.753 61.5244 127.807 61.5687C127.862 61.6131 127.93 61.6373 128.001 61.6373C128.071 61.6373 128.139 61.6131 128.194 61.5687C128.248 61.5244 128.286 61.4626 128.3 61.3938C128.336 60.8635 128.418 60.3373 128.544 59.821C132.192 60.5776 136.947 63.1136 139.536 67.3379C147.145 65.7169 147.815 57.2536 143.497 54.0546C148.786 52.7069 148.581 46.0545 146.229 44.2383Z" fill="#191919"/>
<path d="M133.26 48.0048C133.873 48.1648 134.485 46.7621 133.978 46.4435C133.305 46.0247 132.426 47.7858 133.26 48.0048Z" fill="#191919"/>
<path d="M136.913 49.7001C137.367 49.7284 137.871 48.808 137.751 48.4459C137.403 47.403 135.838 49.6342 136.913 49.7001Z" fill="#191919"/>
<path d="M138.124 46.2214C138.505 46.449 138.804 46.7916 138.978 47.2C139.08 47.5675 139.577 47.6862 139.572 47.0323C139.54 46.6909 139.414 46.3651 139.208 46.0911C139.002 45.8172 138.724 45.6059 138.405 45.481C137.825 45.2635 137.345 45.7643 138.124 46.2214Z" fill="#191919"/>
<path d="M135.156 44.9359C135.853 45.1656 136.075 44.5676 135.524 44.1626C135.104 43.903 134.617 43.7705 134.123 43.7811C133.63 43.7917 133.149 43.9449 132.741 44.2223C132.481 44.4979 132.622 44.7629 132.97 44.7085C133.704 44.544 134.472 44.6238 135.156 44.9359Z" fill="#191919"/>
<path d="M129.801 50.5424C129.748 50.8175 129.75 51.1006 129.808 51.3747C129.867 51.6489 129.98 51.9085 130.14 52.138C130.301 52.3675 130.507 52.5623 130.745 52.7105C130.983 52.8588 131.248 52.9576 131.525 53.001C131.563 53.0273 131.606 53.0445 131.651 53.0512C131.697 53.0578 131.744 53.0538 131.787 53.0394C131.831 53.0251 131.871 53.0007 131.904 52.9683C131.936 52.936 131.961 52.8964 131.976 52.8528C131.991 52.8092 131.995 52.7628 131.989 52.7172C131.983 52.6716 131.966 52.628 131.94 52.5899C131.914 52.5519 131.88 52.5204 131.84 52.4979C131.799 52.4754 131.755 52.4626 131.709 52.4604C131.523 52.4141 131.35 52.3304 131.198 52.2145C131.047 52.0986 130.92 51.9529 130.827 51.7864C130.734 51.6198 130.676 51.436 130.656 51.2462C130.636 51.0564 130.656 50.8645 130.713 50.6825C130.947 49.3456 129.954 49.6159 129.801 50.5424Z" fill="#191919"/>
<path d="M134.881 51.6695C135.519 51.367 136.087 48.8908 135.767 48.5615C135.271 48.0523 135.231 50.2162 134.524 50.8318C134.218 51.0967 133.835 50.3341 133.444 50.5615C132.964 50.8402 134.011 52.0807 134.881 51.6695Z" fill="#191919"/>
<path d="M95.4306 121.102C94.7553 121.697 95.8701 122.489 96.511 122.075C104.168 117.13 112.519 122.275 110.595 131.062C110.533 131.25 110.548 131.454 110.635 131.631C110.723 131.808 110.876 131.944 111.062 132.01C111.248 132.076 111.453 132.066 111.632 131.983C111.811 131.9 111.951 131.75 112.021 131.565C115.944 121.684 103.308 114.152 95.4306 121.102Z" fill="#191919"/>
<path d="M112.524 118.265C106.04 112.522 92.6845 112.12 85.954 117.811C71.7885 129.791 84.7901 149.905 102.772 146.388C116.391 143.728 122.745 127.314 112.524 118.265ZM104.58 144.362C89.5436 149.221 73.8751 133.46 85.3675 120.443C91.1975 113.838 104.411 113.559 111.119 119.038C120.434 126.647 115.76 140.749 104.58 144.362Z" fill="#191919"/>
<path d="M126.813 45.1059C127.052 45.8348 127.042 46.0799 128.061 45.4413C129.65 44.4458 131.173 43.5661 132.13 40.3509C133.729 42.0586 135.776 43.2833 138.037 43.8855C140.298 44.4877 142.683 44.4434 144.92 43.7575C149.54 42.3302 153.788 31.7169 141.781 30.9603C142.18 24.6211 131.458 24.5782 130.27 29.674C126.411 26.8853 121.623 29.138 120.99 31.625C124.774 41.9474 121.531 52.1067 118.829 57.6082C118.072 59.1488 119.058 58.9099 119.288 58.4566C121.023 54.9872 122.378 51.5814 124.801 48.4696C125.224 47.9267 124.85 47.7185 124.391 47.5025C124.222 47.405 124.074 47.2744 123.957 47.1185C123.84 46.9626 123.756 46.7846 123.71 46.5953C123.663 46.4059 123.655 46.2091 123.687 46.0167C123.718 45.8243 123.789 45.6403 123.893 45.4757C124.52 44.0439 126.347 43.6962 126.813 45.1059Z" fill="#191919"/>
<path d="M48.3225 62.5584C47.9073 63.2839 47.3315 63.9046 46.6392 64.373C45.9469 64.8414 45.1565 65.145 44.3286 65.2605C38.1571 66.0117 36.7061 57.0576 35.7574 52.7881C35.6004 52.0798 35.1578 52.4634 35.2168 52.8646C35.6655 57.6043 37.5461 66.6725 43.8638 66.2299C44.1472 67.9337 44.1962 69.6683 44.0093 71.3854C43.9672 71.8012 44.4044 72.2177 44.7283 71.331C45.1234 70.2506 45.0798 67.5025 44.847 66.0676C45.6948 65.8458 46.4866 65.4483 47.1709 64.9009C47.8552 64.3535 48.4169 63.6684 48.8195 62.8899C49.043 62.4596 48.5469 62.1809 48.3225 62.5584Z" fill="#191919"/>
<path d="M83.3685 113.671C87.1518 112.905 97.2552 109.546 100.202 106.992C100.683 106.575 100.137 105.695 99.5539 105.976C92.1266 109.547 88.7453 110.299 81.2391 112.542C73.0032 101.263 69.419 87.6979 79.3639 73.9237C79.8785 73.2108 78.8333 72.5531 78.2827 73.2537C69.592 84.3219 69.6303 98.3886 78.9581 112.164C80.4267 114.332 80.5247 114.249 83.3685 113.671Z" fill="#191919"/>
<path d="M44.2036 18.6387C60.5451 8.19916 80.3239 6.27113 97.9756 14.7076C117.764 24.1678 124.99 40.0331 113.172 59.7844C108.462 67.6565 97.7237 77.276 96.36 85.4055C96.2068 86.3128 97.4473 86.6712 97.6081 85.7508C98.9343 78.1573 108.811 69.263 113.313 62.3204C125.744 43.1411 121.594 26.1074 101.674 15.0284C83.889 5.14019 60.0528 5.44264 43.6178 17.8876C43.0052 18.3531 43.4853 19.0981 44.2036 18.6387Z" fill="#191919"/>
<path d="M91.3555 43.8493C96.9559 49.8624 93.7047 58.1794 87.7728 62.6128C87.1297 63.0937 87.8969 64.034 88.6151 63.5041C94.6082 59.0891 98.3395 51.076 93.6733 44.2766C87.1266 34.739 72.4297 36.6456 63.4098 44.1235C57.8661 38.1319 49.5904 28.0889 44.6854 21.422C44.1769 20.7329 43.4802 21.2489 44.0529 22.0346C48.9197 28.7444 56.1885 38.3516 61.7842 44.7314C62.8164 45.9091 63.1066 46.2276 64.3669 45.2291C71.6947 39.4267 84.0768 36.0338 91.3555 43.8493Z" fill="#191919"/>
<path d="M108.303 27.9664C98.848 14.4993 76.1756 10.2244 61.8271 17.7474C61.6305 17.8372 61.4775 18.0014 61.4018 18.2039C61.3261 18.4064 61.3338 18.6306 61.4232 18.8275C61.5127 19.0243 61.6765 19.1776 61.8789 19.2537C62.0812 19.3299 62.3055 19.3226 62.5025 19.2336C80.0937 12.5054 94.5853 17.4403 107.32 28.8906C108.082 29.5767 108.932 28.8638 108.303 27.9664Z" fill="#191919"/>
<path d="M101.024 104.343C101.86 105.804 103.11 105.033 102.228 103.631C101.347 102.229 100.409 100.684 99.4673 99.2316C99.1166 98.6903 98.1595 99.2316 98.478 99.8151C99.3115 101.333 100.16 102.843 101.024 104.343Z" fill="#191919"/>
</svg>
