<svg width="156" height="155" viewBox="0 0 156 155" fill="none" xmlns="http://www.w3.org/2000/svg">
<path d="M79.1554 81.5419L79.6958 72.741C79.6958 72.741 77.8429 73.6674 72.9793 73.9762C68.1929 74.2851 66.4172 72.8182 66.4172 72.8182C66.4172 72.8182 66.8804 83.5491 67.884 86.6372C68.8877 89.7252 71.4353 90.42 73.7513 90.6516C73.8285 87.332 77.3025 86.8688 77.3025 86.8688C77.3025 82.5455 79.1554 81.5419 79.1554 81.5419ZM83.1119 87.4555C84.6559 86.5291 81.8767 84.3675 80.9503 85.1395C80.1783 85.9099 81.9539 88.1488 83.1119 87.454V87.4555ZM93.7656 90.6207C95.464 90.9295 96.8536 88.8451 96.236 88.4591C94.5376 87.3768 92.376 90.3104 93.7656 90.6192V90.6207ZM90.3688 86.7607C91.9128 86.2975 89.5968 83.3639 88.5931 83.9815C87.5895 84.5991 88.9019 87.2224 90.3688 86.7591V86.7607ZM96.6992 84.7535C95.3868 85.0623 97.4712 87.3011 98.7836 86.2203C99.8644 85.2923 98.0116 84.5203 96.6992 84.7519V84.7535ZM91.218 81.511C90.2144 82.5146 91.8356 83.2867 93.148 83.1323C95.078 82.8991 92.376 80.3515 91.218 81.5095V81.511ZM89.9874 28.6123C90.2815 27.7993 90.8211 27.0979 91.5314 26.6051C100.332 24.2119 128.742 29.8475 141.557 37.5676C141.557 37.5676 142.329 38.108 142.329 35.2516C137.543 26.5279 124.805 16.569 112.298 14.8706C111.218 14.7162 108.824 15.6426 107.898 16.2602C106.118 17.4827 104.508 18.9365 103.112 20.5835C103.112 20.5835 85.2009 17.6498 84.4289 21.8959C83.7341 26.7595 89.9874 28.6123 89.9874 28.6123ZM148.316 78.0416C147.003 71.0164 144.842 60.5943 136.581 55.3446C133.339 58.5871 126.931 62.2155 111.568 61.2119C96.1279 60.2083 90.5695 49.709 90.5695 49.709C90.5695 49.709 84.8566 52.4882 81.0738 60.9803C82.8494 61.9067 83.081 61.9839 83.6986 63.2963C83.6986 63.2963 84.9338 65.4579 84.625 67.0791C84.0074 70.6304 82.3862 71.4024 82.3862 71.4024L81.4598 79.8173C81.4598 79.8173 86.0146 78.6592 87.0954 78.582C86.941 75.494 87.2498 69.6268 87.5586 69.0864C88.1763 68.0827 88.4079 69.0864 89.2571 70.1672C89.1027 68.16 88.5623 64.2227 89.1027 63.4507C89.6431 62.6015 92.1135 63.0647 92.7311 63.7595L91.0327 63.2963C91.0327 63.2963 91.6503 73.178 91.6503 73.2552L92.3451 73.6412L93.6575 70.9392L92.6539 63.6823L92.7311 63.7595C93.1943 64.4543 93.5803 65.9983 94.2751 66.1527C95.0471 66.3071 95.0471 62.1383 96.0507 61.6751C96.8474 61.5047 97.6758 61.5581 98.444 61.8295L97.0543 68.3915L99.3704 67.9283L100.374 62.6787L100.528 62.8331C100.837 63.5279 99.9108 67.3879 99.9108 67.3879L101.223 67.7739C101.223 67.7739 102.844 63.5279 103.694 63.0647C104.234 62.7559 105.392 63.1419 106.318 63.6823L101.223 73.2552L100.374 76.1888L102.999 74.8764C102.999 74.8764 107.476 65.5351 107.631 65.2263C107.528 65.9817 107.236 66.6988 106.782 67.3107C106.782 67.3107 110.024 67.6967 110.333 68.3915L108.634 67.9283L106.55 72.5604C106.55 72.5604 109.02 72.406 109.02 72.3288C109.02 72.3083 109.029 72.2887 109.043 72.2742C109.058 72.2597 109.077 72.2516 109.098 72.2516C109.406 72.4832 109.638 72.4832 109.715 72.8692C110.024 73.95 109.638 78.0416 109.638 78.0416C109.638 78.0416 120.832 82.2877 124.229 86.1477C124.229 86.1477 124.692 85.4529 124.152 81.8245C130.561 79.1225 140.443 77.1152 148.317 78.0416H148.316ZM86.1227 89.8472C86.1227 91.0824 90.2916 91.2368 89.5967 89.6928C88.9791 88.0716 86.1227 88.5348 86.1227 89.8472ZM83.8839 81.2779C82.6487 81.9727 85.4279 83.5939 86.2771 83.2851C87.1263 82.9763 85.7367 80.1971 83.8839 81.2779ZM102.798 68.6942L101.022 67.6906C101.022 67.6906 98.552 76.1826 98.552 76.337H100.636L102.798 68.6942ZM101.366 88.8436C100.054 90.7736 97.3516 93.0896 91.6387 93.63C85.7715 94.2476 80.3674 91.8544 78.5918 88.9208C76.5846 90.4648 78.0514 93.244 79.2094 94.3248C82.3746 97.3356 87.0067 98.0305 91.9475 97.6445C98.1236 97.1813 100.826 95.0196 101.906 93.8616C103.914 91.8544 103.759 88.3804 101.366 88.8436Z" fill="#3D9CFB"/>
<path d="M12.4969 70.0296C12.3792 69.9865 12.254 69.9679 12.1289 69.975C12.0039 69.982 11.8815 70.0146 11.7695 70.0706C11.6574 70.1266 11.558 70.2049 11.4773 70.3008C11.3966 70.3966 11.3364 70.5079 11.3003 70.6279C10.9041 71.7145 10.7787 72.8813 10.935 74.0273C11.0914 75.1732 11.5246 76.2638 12.1973 77.2046C12.9446 78.1009 14.44 76.9059 13.6178 76.0088C11.8986 74.0656 13.9915 70.553 12.4969 70.0296Z" fill="#001434"/>
<path d="M36.5647 102.914C36.5344 103.515 36.3712 104.101 36.0869 104.631C35.8025 105.161 35.4041 105.621 34.9203 105.978C34.7582 106.093 34.6365 106.256 34.5723 106.444C34.5081 106.633 34.5047 106.836 34.5626 107.026C34.6204 107.216 34.7367 107.384 34.8948 107.504C35.053 107.624 35.245 107.692 35.4437 107.697C36.4157 107.62 37.0881 106.576 37.5366 105.904C39.181 106.95 43.2912 104.409 44.8607 102.54C45.7577 101.494 44.636 99.9247 43.7397 101.046C43.0809 101.895 42.2587 102.603 41.3217 103.129C40.3847 103.656 39.3518 103.989 38.2839 104.11C38.8035 102.167 36.8611 100.971 36.5647 102.914Z" fill="#001434"/>
<path d="M20.5676 66.7412C19.073 66.1437 17.7273 68.5354 17.4286 71.0019C17.129 73.318 17.2788 74.2899 17.7273 75.4109C17.7868 75.6289 17.9305 75.8144 18.1267 75.9266C18.323 76.0387 18.5557 76.0683 18.7738 76.0088C18.9919 75.9493 19.1774 75.8056 19.2895 75.6094C19.4016 75.4131 19.4312 75.1804 19.3717 74.9623C19.3717 74.8851 18.3998 70.4036 20.5676 68.0868C20.9412 67.7132 21.0902 66.9659 20.5676 66.7412Z" fill="#001434"/>
<path d="M36.6364 92.0026C43.4377 92.0026 38.6544 96.4123 40.8214 97.6831C42.316 98.5794 43.5119 94.2445 41.9431 91.7031C41.0453 90.2085 36.1129 89.2373 35.7393 91.1056C35.5903 91.5541 36.1129 92.0026 36.6364 92.0026Z" fill="#001434"/>
<path d="M8.90899 99.7006C8.67131 99.7211 8.45139 99.8348 8.29732 100.017C8.14325 100.199 8.06756 100.435 8.08681 100.673C8.38557 108.37 14.4397 109.417 15.1893 115.47C15.1893 115.994 15.6378 116.517 16.0863 116.442C18.2541 115.994 15.7127 110.762 13.8475 108.894C11.5049 106.744 10.0854 103.771 9.88635 100.598C9.88263 100.474 9.85421 100.353 9.80276 100.24C9.75131 100.128 9.67789 100.027 9.5868 99.9431C9.49572 99.8595 9.38882 99.795 9.27241 99.7534C9.156 99.7117 9.03244 99.6938 8.90899 99.7006Z" fill="#001434"/>
<path d="M33.5724 92.601C27.743 86.2482 17.3541 97.0848 23.0338 102.989C28.7891 109.042 40.4479 99.9999 33.5724 92.601ZM30.8812 101.793C24.4543 106.203 19.9697 97.6082 26.6213 93.2734C27.9052 96.1443 29.4834 98.8743 31.3305 101.42C31.2001 101.566 31.0486 101.692 30.8812 101.793Z" fill="#001434"/>
<path d="M105.619 43.4981C108.833 43.1245 102.853 38.7117 108.833 37.7428C109.356 37.6656 109.804 37.1453 109.58 36.6968C108.982 35.0524 105.245 36.0992 104.124 38.9356C103.527 40.7328 104.274 43.6471 105.619 43.4981Z" fill="#001434"/>
<path d="M108.534 54.1112C114.438 54.4848 117.203 48.7295 115.26 47.0087C114.438 46.3355 112.196 47.3823 107.188 46.8589C104.274 46.5601 103.078 46.1857 102.402 47.2326C101.284 48.8793 104.346 53.8865 108.534 54.1112ZM105.768 48.2068C108.103 48.4432 110.452 48.493 112.794 48.3558C113.691 48.2786 113.167 50.299 112.42 50.5236C110.027 51.2709 104.648 51.8685 104.274 48.6546C104.424 48.0571 105.32 48.132 105.768 48.2068Z" fill="#001434"/>
<path d="M29.0875 121.971C40.5974 120.552 47.9963 114.647 51.2102 107.844C54.8182 109.773 57.9222 112.523 60.272 115.873C62.6217 119.222 64.1512 123.077 64.7373 127.126C58.684 133.927 52.7796 130.788 45.0063 126.603C43.9602 126.005 43.5866 127.873 44.7075 128.396C45.1561 128.621 46.5766 129.517 48.8934 130.635C42.6895 136.914 41.7183 144.763 42.3907 148.498C42.6154 149.918 44.1849 149.544 44.1849 148.575C44.1849 146.781 43.5866 138.41 50.7616 131.534C58.6091 136.243 64.9619 130.114 69.6704 124.957C72.4357 122.342 69.4465 118.009 71.9864 115.839C72.7337 115.242 74.8266 115.317 76.5451 117.857C76.6452 118.013 76.7758 118.147 76.9291 118.25C77.0824 118.354 77.255 118.425 77.4367 118.46C77.6184 118.495 77.8052 118.493 77.986 118.453C78.1667 118.414 78.3376 118.338 78.4883 118.231C81.3285 116.139 85.1399 113.821 90.3 116.885C89.179 118.081 87.3849 119.95 86.5635 120.623C85.8903 121.146 86.04 122.192 86.8622 122.192C87.9832 121.893 89.9263 119.876 91.7946 118.007C93.3413 119.294 94.5907 120.9 95.457 122.716C94.3479 124.002 93.0941 125.156 91.7205 126.154C90.9724 126.678 91.346 127.574 92.2431 127.574C93.2892 127.35 94.4858 126.378 96.2792 124.66C99.1935 133.553 93.2151 140.949 83.7974 147.678C83.3496 147.977 82.8262 148.576 83.0508 149.024C83.3496 149.472 83.9471 149.771 84.9191 149.101C92.9904 143.496 96.5764 139.31 98.0725 134.452C99.0851 130.487 98.8237 126.303 97.3252 122.494C94.2611 114.123 84.9191 110.611 77.8189 116.516C74.0824 111.284 68.0283 113.675 69.0003 120.027C69.5229 122.719 68.1032 123.989 66.384 125.633C65.6255 121.507 63.9309 117.609 61.4303 114.241C58.9297 110.872 55.6898 108.122 51.9598 106.202C54.5005 98.578 52.4083 91.9264 48.2974 84.4526C52.5573 82.5843 52.4083 71.3732 48.671 69.8786C47.3262 69.356 46.8777 72.1213 45.3082 71.8967C44.4111 71.8195 43.514 70.7008 42.5428 69.1313C38.5068 62.4048 35.7414 59.4156 29.6132 57.921C22.6652 56.2018 14.5159 57.6971 7.4165 62.3307C6.36965 63.0031 7.4165 64.5695 8.38768 63.9002C14.5432 59.8115 22.0697 58.333 29.3145 59.7893C39.8524 62.0281 41.4219 78.9968 48.2974 72.2703C49.8669 73.8398 50.5362 81.0148 47.2513 82.8831C41.8673 72.9443 31.9277 67.7873 25.3502 70.7008C26.3587 68.6587 27.8151 66.8705 29.6109 65.4697C30.508 64.5726 29.1624 63.3768 27.5929 64.7216C25.1263 66.7396 21.6137 71.8241 21.8384 77.5771C13.3926 80.791 10.6273 89.6845 14.065 98.4282C16.9052 107.323 27.2941 111.658 27.1459 121.225C26.6225 134.528 17.0566 140.506 12.572 142.525C11.8897 142.836 11.1913 143.11 10.4798 143.347C9.50786 143.72 10.3301 145.215 11.8247 144.842C16.4567 143.72 29.3122 134.378 29.0875 121.971ZM45.1561 88.1906C41.0451 89.835 37.6823 83.7061 40.4468 80.7917C41.8309 83.3714 43.405 85.8446 45.1561 88.1906ZM25.9485 111.807C21.9125 105.679 15.5604 101.569 14.8872 93.0473C14.7382 90.5816 14.5136 88.115 15.8592 85.2748C16.5885 83.8148 17.6074 82.5185 18.8538 81.465C20.1002 80.4114 21.548 79.6226 23.1091 79.1466C23.2946 79.076 23.4562 78.9543 23.5753 78.7955C23.6943 78.6367 23.7658 78.4473 23.7815 78.2495C23.7172 76.5051 23.9445 74.7621 24.4539 73.0925C26.6927 71.5979 33.4223 71.4481 36.4123 73.69C33.8709 74.5122 32.675 76.68 34.5433 76.8298C35.5152 76.907 36.4864 75.4093 38.5045 75.1105C39.4063 75.8755 40.2551 76.7009 41.0451 77.5809C33.0487 82.4392 40.9679 94.9202 48.2202 88.5674C55.2454 102.695 49.267 116.892 29.0134 120.181C28.6595 117.189 27.6098 114.321 25.9485 111.807Z" fill="#001434"/>
<path d="M21.9121 90.0593C24.005 90.3581 23.0331 87.5187 26.8452 85.7994C26.9606 85.7483 27.0643 85.6741 27.15 85.5815C27.2357 85.4889 27.3015 85.3797 27.3435 85.2608C27.3855 85.1418 27.4028 85.0155 27.3942 84.8896C27.3857 84.7637 27.3515 84.6409 27.2938 84.5287C25.3498 82.2868 19.6702 89.7606 21.9121 90.0593Z" fill="#001434"/>
<path d="M63.99 61.0612C63.0066 61.4765 62.1722 62.1801 61.5968 63.0792C49.8646 55.2318 40.7464 52.0959 27.8917 43.7219C26.9205 43.0495 25.3502 43.8709 26.3971 44.5441C39.3267 52.9899 49.0424 56.8761 60.9259 64.7977C60.7335 65.7356 60.7337 66.7028 60.9264 67.6406C61.1191 68.5785 61.5003 69.4674 62.0468 70.2535C58.0116 71.8979 55.545 76.6063 57.1894 80.6424C54.7228 82.9584 53.2282 86.3969 55.0216 89.5359C57.4881 93.7217 83.0454 110.164 89.6253 112.182C95.23 113.9 103.451 110.388 105.544 108.071C113.317 121.449 131.03 113.975 140.67 105.832C145.08 107.775 150.012 111.438 151.807 111.438C154.946 111.361 143.809 105.682 142.24 104.49C147.621 99.7033 151.504 93.8769 152.18 88.7199C153.077 78.3318 151.208 67.4943 145.078 58.451C148.441 57.405 149.71 53.7418 147.693 49.2587C149.932 45.8959 147.544 42.3825 144.33 38.9447C144.418 38.7766 144.493 38.6019 144.554 38.4221C152.327 40.4393 148.366 32.2182 147.096 28.6307C151.654 23.3996 150.085 22.2038 143.657 20.1108C145.75 16.1497 145.451 14.5061 143.359 13.0856C141.266 11.7407 136.333 12.637 134.764 11.8149C133.269 11.0675 132.596 6.65861 130.354 6.20931C126.841 5.38789 121.909 10.0215 119.368 5.46277C117.723 2.54768 113.388 1.50161 111.147 5.16324C109.801 7.40206 107.784 7.47926 105.84 6.06031C101.431 3.0711 100.907 7.48003 99.114 10.1705C95.0826 11.435 92.6894 12.7057 95.1598 17.6381C94.7679 17.967 94.3937 18.3164 94.0388 18.6849C88.8069 18.3113 81.7817 16.8167 80.2122 21.3005C79.539 23.2436 80.135 27.1299 88.5831 30.7923C87.5362 35.0523 87.1626 42.1524 89.1065 47.6082C84.8458 48.953 80.5109 53.2886 77.7456 57.3988C76.2092 57.0031 74.6159 56.8767 73.0364 57.0251C72.3609 49.1028 68.8482 47.3866 63.2427 43.9466C60.0288 42.0034 58.1606 47.8321 60.5522 49.4765C65.859 52.9899 66.5314 52.9142 67.2039 58.3708C65.878 58.9101 64.7542 59.8509 63.99 61.0612ZM58.9827 75.6351C59.7297 73.9659 61.0965 72.6526 62.7941 71.9727C62.9439 73.2435 63.2427 74.813 63.5414 76.4566C61.8207 77.248 60.1919 78.2256 58.684 79.3717C58.3747 78.1268 58.4796 76.8151 58.9827 75.6351ZM104.797 106.277C103.302 107.622 97.3978 112.331 90.0738 110.388C83.1975 108.594 58.4593 92.1522 56.666 88.5647C54.3499 84.0052 58.833 81.0909 63.9159 78.2507C64.7373 84.304 64.5883 91.1054 73.6308 91.1054C73.8555 93.7217 75.425 94.7678 76.8455 95.8918C74.7525 108.299 103.302 108.896 103.003 97.686C105.096 96.7889 105.769 96.2655 106.216 94.9948C106.457 94.3228 106.508 93.5975 106.363 92.8986C106.218 92.1998 105.883 91.5544 105.395 91.0336C109.206 90.2871 108.309 89.39 110.552 79.0011C115.933 81.3943 121.239 84.1581 122.287 85.5029C121.078 87.1496 119.584 88.5671 117.877 89.6888C117.204 90.1373 116.531 90.8097 115.709 90.6607C112.421 90.1373 109.432 90.511 108.011 92.9767C107.264 94.3224 107.189 96.0416 108.46 98.1338C104.648 101.196 104.347 104.26 104.797 106.277ZM102.705 76.2327C103.078 77.1298 102.705 82.0621 103.527 82.2868C105.096 82.7353 104.947 77.2787 104.648 74.813C106.292 73.9908 108.16 73.2435 109.206 73.3184C109.505 75.4854 107.338 87.1442 106.74 88.4898C106.516 89.0133 105.021 89.2371 103.751 89.3869C103.647 89.0465 103.474 88.7314 103.242 88.4612C103.011 88.1911 102.726 87.9719 102.405 87.8174C103.451 81.3897 95.8283 77.6524 88.5792 77.3544C88.1307 74.4393 88.1307 70.9267 88.5792 70.0296C91.7182 74.2895 97.4758 80.1197 102.705 76.2327ZM90.4505 64.2002C90.6744 63.8265 92.6176 63.9755 92.7666 64.2002C93.1402 66.7408 93.6636 70.553 92.7666 72.1225C92.0941 71.3003 91.421 70.4781 90.8234 69.7293C90.6067 67.8937 90.4822 66.0483 90.4505 64.2002ZM99.0453 67.0404C96.3549 66.7409 96.4297 71.7496 95.159 74.5134C94.8602 74.2895 94.4866 73.9908 94.1878 73.7669C94.7854 71.4509 96.7285 64.1253 97.0273 62.7048C101.359 62.257 99.4907 64.4248 99.0422 67.0404H99.0453ZM101.137 69.3564C100.615 70.7012 99.6428 74.2139 99.27 75.5595C98.4907 75.6236 97.7063 75.5475 96.9539 75.3348C97.4025 73.7661 98.2995 70.3276 98.5234 68.9828C98.8176 68.6848 100.91 69.0576 101.134 69.3572L101.137 69.3564ZM102.558 68.0857C103.23 66.4413 104.053 65.0965 104.576 63.9747C104.875 63.7509 106.969 64.7969 106.892 65.3204C105.472 67.7136 103.902 73.4666 101.361 74.8871C102.031 72.1966 103.451 69.4313 102.555 68.0865L102.558 68.0857ZM107.49 68.3845C108.174 68.5125 108.848 68.6874 109.508 68.9079C109.102 69.7554 108.752 70.6292 108.462 71.5234C107.508 71.6318 106.576 71.8838 105.697 72.2707C106.292 71.0757 106.965 69.5811 107.487 68.3852L107.49 68.3845ZM99.3441 97.6072C96.4297 100.298 91.5715 100.372 87.6867 99.3257C85.3707 98.6533 83.4268 99.9989 81.1841 98.5784C79.6154 97.6821 79.5398 96.1119 78.4937 94.9168C76.4757 92.8239 73.2626 90.731 77.5966 87.8143C77.6648 88.0513 77.7657 88.2776 77.8962 88.4868C73.6354 100.594 100.691 100.968 103.681 91.9245C107.039 95.2905 101.284 95.8888 99.341 97.608L99.3441 97.6072ZM100.988 98.8031C100.016 105.305 81.6311 105.455 79.4641 99.6994C82.5282 102.465 85.5182 100.596 87.3857 101.194C93.1379 103.064 97.6966 101.868 100.985 98.8023L100.988 98.8031ZM79.0156 90.2076C84.4713 96.1119 97.2512 95.3653 101.512 89.5351C103.975 98.0558 78.3401 98.8795 79.0125 90.2083L79.0156 90.2076ZM98.2231 90.2076C94.8602 93.721 78.1185 93.4222 79.2394 84.9764C81.1795 73.9908 108.683 81.3148 98.22 90.2083L98.2231 90.2076ZM81.4072 79.296C78.9407 80.8655 77.2214 83.1823 77.2214 85.9476C76.451 86.2318 75.7514 86.6796 75.1708 87.2604C74.5902 87.8411 74.1425 88.5408 73.8586 89.3113C70.5706 89.2341 67.2818 87.8908 66.8333 85.574C66.0111 81.314 65.4877 77.0541 64.8153 72.7942C69.1501 75.7834 77.4461 75.6344 82.0048 73.2427C81.9276 74.7381 81.628 76.9059 81.4042 79.2968L81.4072 79.296ZM140.076 104.109C132.827 110.013 124.307 114.722 115.114 113.302C116.534 112.629 118.104 111.733 118.328 111.583C119.374 110.985 118.477 109.939 117.132 110.387C115.711 110.91 113.469 112.031 112.345 112.33C111.001 111.686 109.805 110.77 108.833 109.64C110.626 109.041 112.869 108.07 113.168 107.92C114.289 107.398 113.915 106.052 112.719 106.352C111.374 106.725 109.057 107.622 107.637 107.995C104.947 104.707 107.338 100.447 111.448 98.2048C114.737 96.4114 112.719 95.2156 109.954 96.9341C109.431 95.888 108.982 94.3934 110.402 93.1227C113.317 90.8066 115.783 93.9448 118.4 91.7022C124.453 86.5459 125.2 86.3213 124.976 82.1362C135.364 78.0261 145.753 77.129 150.237 79.743C151.583 89.8354 148.742 96.6361 140.073 104.11L140.076 104.109ZM146.653 46.8609C146.73 47.8321 145.158 48.4304 145.681 49.4765C147.774 53.1389 146.579 57.6983 143.288 56.2778C142.2 55.115 140.998 54.0635 139.702 53.1389C142.691 49.0287 142.466 45.2914 141.42 43.5721C139.925 41.1056 137.16 41.4051 135.441 40.508C134.096 39.8356 133.202 38.5649 133.573 34.9025C139.627 37.2201 145.977 40.8068 146.653 46.8609ZM96.8034 40.8817C102.109 40.5829 104.202 36.472 102.558 32.4367C101.212 29.2228 93.8134 27.8772 90.9732 29.148C91.1421 28.6027 91.3677 28.0766 91.6464 27.5785C94.8602 26.0839 101.212 26.9809 103.679 29.3726C104.651 30.3438 105.398 29.0738 105.024 28.2517C104.784 27.7386 104.356 27.3372 103.829 27.1299C107.246 27.5151 110.639 28.089 113.993 28.8492C112.124 29.0738 111.078 30.6426 112.872 31.1652C113.395 31.1652 115.936 29.8196 119.225 30.1184C123.473 31.2074 127.642 32.5808 131.706 34.2293C131.033 43.0487 134.545 41.7031 138.581 43.725C138.951 43.9007 139.266 44.175 139.49 44.5178C139.714 44.8607 139.839 45.2587 139.852 45.6681C140.524 58.0002 120.196 63.3811 104.803 59.345C103.238 58.8705 101.713 58.2708 100.244 57.5516C93.2962 54.3378 89.1829 48.056 89.5566 38.9416C91.1948 40.4332 94.3337 41.0315 96.8003 40.8817H96.8034ZM94.6356 30.5685C97.4009 30.7923 100.465 32.1372 100.914 33.184C102.259 37.0703 99.5687 39.9846 95.3829 38.9386C95.2781 36.1374 95.0276 33.3436 94.6325 30.5685H94.6356ZM142.991 37.0703C137.162 31.166 122.438 26.009 117.655 24.3646C110.727 22.052 103.631 20.2781 96.4297 19.0586C105.473 9.41777 132.228 20.2544 142.991 34.5288C143.287 34.9774 143.212 36.0991 142.988 37.0703H142.991ZM96.1302 13.5241C97.0273 12.3282 99.5687 12.1792 100.241 11.6558C101.212 10.9085 102.48 7.24611 103.23 7.02377C104.875 6.50112 106.818 9.56522 109.21 8.96769C111.975 8.74303 112.498 5.15552 114.516 4.70698C117.804 3.95968 118.253 8.81792 121.691 9.49343C124.381 10.0168 128.193 6.95275 130.211 8.14859C130.809 8.44735 131.257 9.64319 131.78 10.5418C132.602 12.1862 133.051 13.0076 134.173 13.531C136.341 14.503 141.198 13.3071 142.768 14.9507C145.084 17.4212 138.733 20.7802 144.487 22.3504C151.289 24.1438 144.861 25.3396 145.309 28.8523C145.608 31.0201 150.096 37.447 145.085 36.55C140.751 20.0336 103.606 8.00036 96.73 16.5202C95.9781 14.9477 95.9781 13.7518 96.1271 13.5279L96.1302 13.5241ZM81.8558 22.1188C82.6031 15.9906 126.323 27.0512 133.574 32.9563C125.802 29.6675 91.6464 18.8285 89.1065 29.07C83.9448 26.6814 81.5539 24.5144 81.8527 22.1227L81.8558 22.1188ZM89.7032 49.4726C96.9524 67.1855 128.866 65.0185 138.432 54.6296C145.158 59.0393 148.82 68.6801 150.012 77.5744C144.632 75.3317 134.766 76.3786 124.751 80.2649C124.377 77.9489 123.929 75.3317 123.406 74.6593C122.659 73.6874 121.911 75.1827 122.21 76.3037C122.776 78.8129 123.151 81.3614 123.331 83.9273C121.015 81.8344 115.633 79.1408 110.775 76.9792C111.298 72.3472 110.925 72.1928 110.327 71.7481C111.672 68.9828 112.345 67.4874 108.234 66.8898C109.803 64.4966 106.291 61.8077 104.273 62.0316C102.255 62.4053 102.18 65.2455 100.985 66.8181C101.134 65.4732 102.778 62.3342 101.062 61.7359C96.8759 60.2413 95.3072 60.6899 94.8587 65.0247C95.0077 63.0067 94.1863 62.4832 91.0465 62.4832C87.1602 62.4832 88.8795 65.3983 88.7305 68.0139C85.2928 67.7151 86.3373 74.8153 86.6384 77.3552C85.5147 77.5046 84.4115 77.7802 83.3496 78.1766C83.6484 75.1125 83.9471 72.5711 84.022 71.6748C88.8085 67.1153 85.0681 60.7624 79.4633 57.9979C82.0766 54.4845 86.0377 50.5974 89.7001 49.4765L89.7032 49.4726ZM66.3114 51.6404C64.2193 49.7714 60.1832 48.0529 61.2293 46.0348C61.4539 45.6612 61.7527 45.2875 62.2012 45.5114C64.8168 46.7073 70.1236 49.9211 71.0199 53.9572C71.5882 56.4567 71.8395 59.0177 71.768 61.58C71.6908 62.4771 70.3475 62.8507 69.4519 61.9544C68.6985 61.2102 69.147 54.2575 66.3068 51.6442L66.3114 51.6404ZM65.5641 62.1783C65.9507 61.3311 66.6455 60.663 67.5073 60.31C68.0307 64.0466 68.4043 64.6449 71.6931 64.3453C73.8601 64.1214 73.4116 60.9824 73.2626 59.0393C77.5966 58.8895 82.7583 60.31 81.0351 64.719C78.7886 69.0576 64.0649 68.535 65.5595 62.1821L65.5641 62.1783ZM83.2709 63.527C90.2189 74.8878 62.0453 77.2788 62.6436 65.4709C62.7717 64.7783 63.0815 64.1322 63.5414 63.5988C63.3925 70.9267 83.4971 71.3744 83.2709 63.527Z" fill="#001434"/>
<path d="M121.314 44.994C126.845 44.994 128.564 41.855 128.19 38.6411C128.011 37.4114 127.508 36.2514 126.733 35.2797C125.958 34.3079 124.939 33.5594 123.781 33.1105C121.317 31.8936 118.477 31.6795 115.858 32.513C114.731 32.9219 113.761 33.6777 113.09 34.6718C112.419 35.6658 112.079 36.8471 112.121 38.0459C112.121 41.8542 115.708 44.994 121.314 44.994ZM125.946 36.847C127.515 41.0328 124.526 43.8723 120.042 42.9011C120.017 39.9468 119.767 36.9987 119.294 34.0824C122.211 34.3804 125.577 35.8002 125.948 36.8462L125.946 36.847Z" fill="#001434"/>
</svg>
