<svg width="154" height="154" viewBox="0 0 154 154" fill="none" xmlns="http://www.w3.org/2000/svg">
<path d="M94.2251 102.081C82.2393 102.664 71.2904 102.397 60.5535 102.407C60.0604 102.407 60.0604 103.221 60.5535 103.256C70.8669 103.989 84.0457 103.699 94.8575 103.137C95.124 106.182 92.8843 107.229 90.2242 107.44C83.9339 107.937 70.6602 108.304 64.4326 108.037C60.7074 107.877 60.3162 106.393 59.4555 103.335C59.3024 102.792 58.4746 102.919 58.5673 103.473C58.9754 105.891 59.8812 108.461 62.5153 108.901C66.6708 109.59 86.1307 108.94 90.725 108.491C93.7595 108.195 96.258 106.432 95.9602 103.107C95.8767 102.155 94.941 102.049 94.2251 102.081Z" fill="#191919"/>
<path d="M58.4658 81.3619C59.2721 78.482 60.0976 76.6374 62.5119 74.6312C67.4821 70.5017 74.6507 70.635 80.6953 71.6067C86.7398 72.5784 91.1167 76.2844 93.776 81.7616C82.7229 81.7616 69.4094 82.2172 59.2354 82.5656C59.1757 82.5679 59.1172 82.5819 59.0629 82.6069C59.0087 82.6318 58.96 82.6672 58.9195 82.711C58.8376 82.7995 58.7942 82.9168 58.7989 83.0373C58.8036 83.1577 58.8559 83.2713 58.9444 83.3532C59.0328 83.435 59.1502 83.4784 59.2706 83.4737C70.1246 83.3121 81.1486 83.4829 94.6788 82.8964C94.7727 82.8906 94.8638 82.8621 94.9443 82.8133C95.0247 82.7645 95.0921 82.6969 95.1407 82.6163C95.1893 82.5357 95.2176 82.4446 95.2232 82.3506C95.2287 82.2567 95.2114 82.1628 95.1726 82.0771C92.6917 76.5027 88.0967 71.9612 82.0024 70.6985C75.7365 69.4007 67.623 69.2957 62.2952 73.3877C59.9061 75.2254 57.6925 78.2117 57.7706 81.3672C57.7828 81.8803 58.3487 81.7815 58.4658 81.3619Z" fill="#191919"/>
<path d="M96.9051 89.6813C87.0404 96.7259 87.862 86.2356 80.799 89.8536C79.106 90.722 76.7086 92.8147 74.6611 91.9463C73.1013 91.2848 70.8378 87.3245 65.2612 90.6086C63.8944 91.4134 62.4632 92.5298 60.7756 92.1829C59.1967 91.8583 58.0075 90.6285 56.8283 89.6071C56.7329 89.5493 56.6207 89.5255 56.51 89.5396C56.3993 89.5537 56.2967 89.6049 56.2188 89.6848C56.1409 89.7648 56.0924 89.8687 56.0811 89.9797C56.0699 90.0907 56.0966 90.2023 56.1568 90.2962C61.5405 96.3553 64.4717 91.7082 67.6295 90.7503C73.4428 88.9853 72.5002 96.2634 79.6742 91.8307C84.1919 89.0381 83.9377 90.0489 87.7272 92.4081C91.0083 94.451 94.5535 92.5015 97.3752 90.5328C97.9962 90.0948 97.5176 89.2434 96.9051 89.6813Z" fill="#191919"/>
<path d="M105.728 66.9488C105.563 64.0858 105.288 61.235 105.071 58.3782C107.686 58.9747 107.085 59.163 107.424 63.3124C107.473 63.8997 108.267 63.9334 108.224 63.3469C107.934 59.6715 109.17 58.1867 104.672 57.3743C104.605 57.3631 104.537 57.3669 104.472 57.3853C104.408 57.4037 104.348 57.4363 104.297 57.4807C104.247 57.5252 104.207 57.5803 104.18 57.6422C104.153 57.704 104.141 57.7711 104.143 57.8383C104.226 59.4463 104.625 65.5583 105.027 67.0798C105.142 67.5154 105.749 67.324 105.728 66.9488Z" fill="#191919"/>
<path d="M106.566 65.1525C106.796 70.2896 106.848 75.7377 107.335 80.819C107.379 81.2731 108.064 81.4652 108.066 81.0066C108.08 75.9245 107.775 70.7338 107.573 65.6464C109.546 66.1395 109.845 67.6196 110.119 69.3915C110.713 73.2119 111.02 77.0714 111.038 80.9377C111.038 81.5939 111.775 81.525 111.773 80.8611C111.763 78.1918 111.688 68.4481 110.263 66.3738C109.278 64.9335 106.507 63.8454 106.566 65.1525Z" fill="#191919"/>
<path d="M117.419 64.7382C117.645 63.9794 117.621 62.8431 117.912 61.9817C118.321 62.1353 118.75 62.2285 119.186 62.2581C119.245 62.2616 119.303 62.2484 119.355 62.2198C119.407 62.1913 119.449 62.1487 119.478 62.0969C119.506 62.0452 119.519 61.9865 119.515 61.9276C119.512 61.8687 119.491 61.812 119.457 61.7642C119.2 61.5106 118.889 61.3181 118.547 61.201C118.205 61.084 117.841 61.0454 117.483 61.0881C116.888 61.3737 116.614 64.1035 116.763 64.6655C116.834 65.0246 117.3 65.1288 117.419 64.7382Z" fill="#191919"/>
<path d="M109.201 60.9242C109.605 60.8109 110.013 60.709 110.426 60.6325C110.163 62.1235 110.153 63.6482 110.397 65.1425C110.453 65.4603 110.944 65.3546 110.993 65.0093C111.189 63.6478 111.127 62.0146 111.389 60.2427C111.406 60.1748 111.409 60.1037 111.395 60.0348C111.381 59.966 111.352 59.9011 111.31 59.845C111.268 59.789 111.213 59.7433 111.151 59.7114C111.088 59.6795 111.019 59.6622 110.949 59.6608C107.618 59.8338 108.699 61.0636 109.201 60.9242Z" fill="#191919"/>
<path d="M102.021 62.5521C102.145 62.8829 102.594 62.7742 102.574 62.3745C102.515 61.1853 102.377 59.9962 102.273 58.807C102.583 58.9005 102.897 58.9746 103.216 59.0291C103.599 59.0635 103.709 58.5359 103.452 58.3039C102.991 58.0086 102.456 57.8511 101.908 57.8499C101.202 57.8897 101.372 58.722 101.414 59.1967C101.508 60.3321 101.712 61.4558 102.021 62.5521Z" fill="#191919"/>
<path d="M121.473 66.1196C119.899 68.2467 118.515 76.0876 118.32 78.4208C118.281 78.8848 118.817 79.1719 118.912 78.6972C119.425 76.1405 120.668 67.8646 122.529 66.2482C122.814 66.0001 123.827 65.5231 124.009 65.7543C123.036 69.6602 122.26 73.6127 121.685 77.5969C121.596 78.214 122.37 78.2286 122.465 77.5969C122.708 75.9781 124.031 69.1464 124.932 65.5323C125.225 64.3538 122.485 64.7528 121.473 66.1196Z" fill="#191919"/>
<path d="M117.294 65.6709C116.375 65.9672 114.644 66.7076 114.16 67.6051C113.145 69.4857 112.988 78.652 113.241 80.7845C113.302 81.3075 113.906 81.2042 113.912 80.6812C113.846 76.6538 114.156 72.629 114.84 68.6595C115.042 67.579 116.222 67.1349 117.137 66.7452C116.515 70.9634 116.276 75.2292 116.421 79.4905C116.436 80.1559 117.212 80.0625 117.191 79.3963C116.901 70.3486 119.344 65.0085 117.294 65.6709Z" fill="#191919"/>
<path d="M101.809 63.5292C101.316 63.4985 98.9685 63.5935 99.1155 64.4128C100.07 69.7307 100.971 75.0256 102.165 80.3014C102.276 80.7953 102.899 80.6314 102.825 80.0893C102.142 75.0172 101.084 69.7812 100.186 64.7237C101.894 64.2543 101.998 64.432 102.391 65.5177C103.271 67.9405 104.693 77.6214 104.987 80.1727C105.064 80.819 105.861 80.5326 105.786 79.8864C105.389 76.4322 104.478 67.5836 103.097 64.615C102.822 64.0223 102.505 63.5721 101.809 63.5292Z" fill="#191919"/>
<path d="M95.8535 65.3845C94.1889 63.9358 91.551 64.0767 91.9752 64.9947C93.9327 69.2668 95.5929 73.6689 96.9439 78.1696C97.1063 78.6612 97.6622 78.5142 97.5511 78.041C96.5032 73.635 95.0154 69.3453 93.11 65.2367C93.632 65.2559 94.1426 65.3944 94.6028 65.6416C95.063 65.8887 95.4604 66.2379 95.7647 66.6625C96.4956 67.8123 96.9982 69.0921 97.2448 70.4321C97.9853 73.3954 98.9991 76.3541 99.7518 79.3534C99.9049 79.9606 100.569 79.6995 100.418 79.0923C98.1897 70.1243 97.8612 67.1326 95.8535 65.3845Z" fill="#191919"/>
<path d="M119.228 68.5323C119.449 67.2903 120.653 61.876 121.176 60.9785L122.489 60.9433C122.247 62.0789 122.055 63.3615 121.863 64.5062C121.786 64.9457 122.399 65.1333 122.598 64.6195C122.968 63.3278 123.231 62.0075 123.382 60.6723C123.288 59.9831 122.602 60.0237 122.065 60.026C120.278 60.0344 120.482 60.0865 119.874 62.2313C119.288 64.2648 118.878 66.345 118.649 68.4489C118.598 68.942 119.14 69.0216 119.228 68.5323Z" fill="#191919"/>
<path d="M97.8278 67.1855C97.9963 67.6296 98.7115 67.6794 98.5729 67.1855C97.8194 64.5009 97.033 61.6248 96.2681 58.9456C96.9442 59.0536 98.3011 58.9456 98.8585 59.4977C99.4159 60.0498 99.8447 62.069 100.068 62.8668C100.205 63.36 100.734 63.2811 100.719 62.7336C100.654 61.9313 100.488 61.1404 100.225 60.3798C99.6043 58.1837 98.9734 58.3989 96.278 57.9862C94.7688 57.7565 95.324 59.1577 95.5675 60.0145C96.2589 62.4442 96.9427 64.8554 97.8278 67.1855Z" fill="#191919"/>
<path d="M114.955 59.8874C114.861 61.7136 114.795 63.6333 114.684 65.4534C114.651 65.9771 115.332 65.9779 115.419 65.4534C115.748 63.4408 115.903 61.4036 115.883 59.3644C115.882 59.307 115.87 59.2503 115.847 59.1976C115.824 59.1449 115.791 59.0972 115.75 59.0573C115.709 59.0175 115.66 58.9862 115.607 58.9653C115.553 58.9444 115.496 58.9343 115.439 58.9356C114.727 58.9571 113.268 59.2419 112.823 59.8729C112.148 60.8308 112.032 68.9964 112.162 70.2797C112.207 70.7284 112.754 70.9688 112.769 70.5094C112.792 67.1333 113.066 63.7636 113.588 60.428C114.013 60.1791 114.474 59.9968 114.955 59.8874Z" fill="#191919"/>
<path d="M41.7983 37.1648C41.3586 38.2871 41.3082 39.5244 41.6551 40.6787C42.0058 41.3839 42.4706 40.9995 42.5188 40.7078C42.4715 39.6512 42.5796 38.5935 42.8396 37.5684C42.8431 37.446 42.8086 37.3256 42.7408 37.2237C42.6731 37.1218 42.5755 37.0433 42.4614 36.9991C42.3472 36.9549 42.2222 36.9471 42.1035 36.9768C41.9848 37.0064 41.8782 37.0721 41.7983 37.1648Z" fill="#191919"/>
<path d="M47.5363 42.8449C48.3229 48.108 49.1907 53.3712 50.1397 58.6347C50.1657 58.7633 50.241 58.8767 50.3495 58.9504C50.458 59.0241 50.5911 59.0524 50.7202 59.0292C50.8493 59.0059 50.9642 58.933 51.0402 58.8261C51.1162 58.7191 51.1473 58.5867 51.1267 58.4571C50.2186 53.2173 49.3449 47.9415 48.2798 42.7309C48.2809 42.6751 48.2698 42.6197 48.2472 42.5686C48.2247 42.5176 48.1913 42.4721 48.1493 42.4353C48.1073 42.3985 48.0578 42.3714 48.0042 42.3558C47.9506 42.3401 47.8943 42.3364 47.8391 42.3449C47.784 42.3533 47.7313 42.3737 47.6848 42.4046C47.6384 42.4356 47.5993 42.4763 47.5702 42.5239C47.5411 42.5715 47.5228 42.625 47.5166 42.6804C47.5103 42.7359 47.5163 42.792 47.534 42.8449H47.5363Z" fill="#191919"/>
<path d="M44.8293 44.0142C45.2121 47.0089 46.667 53.9386 47.4687 58.8468C47.5552 59.3744 48.5843 59.1531 48.4902 58.6592C47.5973 53.957 46.1256 46.8098 45.5299 43.7822C45.4258 43.2615 44.7313 43.5126 44.8293 44.0142Z" fill="#191919"/>
<path d="M47.1421 40.2292C46.3082 40.374 44.8281 41.8824 44.4131 42.2377C43.9981 42.593 44.2362 43.1849 44.7959 42.8794C45.5662 42.4598 46.3764 41.766 47.515 41.2407C47.93 41.0501 47.7883 40.1174 47.1421 40.2292Z" fill="#191919"/>
<path d="M40.52 40.4168C37.6868 41.4345 34.4655 42.5608 31.7319 43.7623C31.3789 43.06 31.0916 42.3266 30.8735 41.5715C33.9126 40.4712 37.0214 39.3464 40.0559 38.2361C40.1136 38.2209 40.1674 38.1938 40.214 38.1566C40.2607 38.1195 40.299 38.073 40.3267 38.0202C40.3544 37.9674 40.3708 37.9094 40.3748 37.8499C40.3789 37.7905 40.3705 37.7308 40.3502 37.6747C40.3299 37.6186 40.2982 37.5674 40.2571 37.5243C40.2159 37.4811 40.1662 37.447 40.1112 37.4241C40.0561 37.4012 39.9969 37.3901 39.9373 37.3913C39.8777 37.3925 39.819 37.4062 39.765 37.4313C37.9939 37.9252 31.4746 40.2775 30.2563 40.8855C29.4669 41.2798 30.6216 43.6979 30.9455 44.2707C30.9766 44.3532 31.0237 44.4287 31.084 44.493C31.1444 44.5572 31.2168 44.6089 31.2972 44.6452C31.3776 44.6814 31.4643 44.7013 31.5524 44.704C31.6406 44.7066 31.7283 44.6918 31.8107 44.6604L31.8237 44.6551C33.5259 44.1865 38.7573 41.9621 40.706 41.2362C41.2918 41.0164 41.1264 40.1986 40.52 40.4168Z" fill="#191919"/>
<path d="M44.5269 38.256C43.8525 39.0509 43.3606 39.984 43.0858 40.9896C43.0674 41.0841 43.0823 41.1821 43.1282 41.2668C43.174 41.3515 43.2479 41.4176 43.3371 41.4539C43.4264 41.4901 43.5254 41.4941 43.6173 41.4653C43.7092 41.4365 43.7883 41.3766 43.8408 41.2959C44.2346 40.4425 44.7533 39.6525 45.3799 38.952C45.4594 38.8378 45.4929 38.6978 45.4736 38.56C45.4543 38.4223 45.3836 38.2968 45.2758 38.2089C45.168 38.1209 45.031 38.0769 44.8921 38.0856C44.7533 38.0944 44.6228 38.1552 44.5269 38.256Z" fill="#191919"/>
<path d="M59.5816 87.9792C63.8842 88.1239 69.8345 87.6017 74.3844 87.5841C75.134 87.5841 75.2527 85.5036 74.4977 85.4523C70.8009 85.2011 63.0319 85.228 59.5318 85.9883C58.9101 86.1223 58.9644 87.96 59.5816 87.9792Z" fill="#38A1FF"/>
<path d="M78.5338 87.4118C79.0269 87.6193 92.6757 87.2487 93.3886 87.2433C94.2079 87.238 94.2769 85.1514 93.4529 85.117C92.2439 85.0672 79.7229 84.8497 78.4526 85.6101C78.0299 85.862 78.0108 87.1943 78.5338 87.4118Z" fill="#38A1FF"/>
<path d="M94.921 100.428C100.204 99.6808 97.2602 94.8675 94.9608 94.7244C92.6614 94.5812 63.1071 94.8936 59.0189 95.0988C55.7424 95.2642 56.404 100.103 59.0189 100.612C61.6338 101.121 89.636 101.175 94.921 100.428Z" fill="#38A1FF"/>
<path d="M97.8821 87.5695C99.8553 87.6039 100.872 91.2204 98.5712 94.0237C102.682 96.392 100.002 101.068 97.7573 102.501C97.6884 103.62 97.5107 106.877 96.7014 108.372C101.014 108.866 114.026 108.748 120.132 108.372C120.882 103.759 122.19 93.7128 123.187 78.6926C113.525 84.4262 98.8798 81.9346 95.9785 79.1267C96.8427 81.8842 97.4794 84.7079 97.8821 87.5695Z" fill="#38A1FF"/>
<path d="M85.8275 43.8312C86.6631 39.0506 87.5564 34.2807 88.5075 29.5215C89.228 29.5215 89.9531 29.5215 90.6783 29.5858C91.764 34.2636 92.6599 39.0095 93.5451 43.8365C93.6745 44.5418 94.588 44.3297 94.4731 43.6068C93.7358 38.952 92.823 34.3417 91.8184 29.7903C91.4991 28.3454 92.0098 28.5651 88.5519 28.4235C87.5649 28.389 87.6116 28.4235 87.4316 29.376C86.8711 32.3378 85.1567 41.835 85.0533 43.7156C85.0444 43.8151 85.0739 43.9143 85.1357 43.9929C85.1975 44.0715 85.287 44.1235 85.3859 44.1382C85.4848 44.153 85.5855 44.1294 85.6676 44.0723C85.7497 44.0153 85.8069 43.929 85.8275 43.8312Z" fill="#38A1FF"/>
<path d="M79.0568 68.7154C79.2306 66.2873 78.6739 62.3354 79.0568 59.088C79.8477 52.3237 84.6204 52.9294 95.306 52.9057C97.9607 52.8995 100.513 53.7196 101.351 56.4785C101.553 57.1439 102.443 56.9724 102.243 56.32C100.847 51.7701 97.1514 51.7854 93.2845 51.8352C85.0148 51.9409 78.8048 51.2042 77.9633 58.9946C77.7942 62.2441 77.9164 65.5022 78.3286 68.7299C78.4281 69.1893 79.0215 69.2085 79.0568 68.7154Z" fill="#38A1FF"/>
<path d="M82.6788 51.2823C82.7745 49.6988 82.6788 48.1046 82.7132 46.5157C87.335 46.2527 91.9684 46.2657 96.5887 46.5548C96.653 47.8565 96.6561 49.1582 96.7763 50.4484C96.8368 51.0993 97.7197 51.2624 97.7388 50.5028C97.7748 49.0227 97.6944 47.5418 97.6347 46.0617C97.6373 45.9222 97.5868 45.787 97.4933 45.6835C97.3999 45.58 97.2706 45.5159 97.1316 45.5042C92.1686 45.08 87.1785 45.08 82.2155 45.5042C82.074 45.5017 81.9371 45.5544 81.8339 45.6512C81.7306 45.748 81.6692 45.8812 81.6626 46.0226C81.5607 47.8037 81.6183 49.5904 81.8349 51.3612C81.8625 51.4579 81.9231 51.5419 82.0061 51.5987C82.0892 51.6554 82.1894 51.6814 82.2896 51.672C82.3897 51.6627 82.4835 51.6186 82.5545 51.5474C82.6256 51.4762 82.6695 51.3825 82.6788 51.2823Z" fill="#38A1FF"/>
<path d="M33.3438 67.1655C43.3463 67.3769 53.8649 66.8646 63.9371 66.7061C63.9371 67.9841 64.0206 69.3409 64.0405 70.6189C64.0466 71.0018 64.3468 71.354 64.7013 70.9298C65.0558 70.5056 64.8544 67.3968 64.7779 66.6916H66.4356C66.9939 66.6916 66.9893 66.1035 66.7909 65.7045C66.3001 64.7168 64.8169 60.9441 64.0772 60.3063C63.4601 59.7741 40.0476 60.4357 37.18 60.6669C34.526 60.8798 34.4502 60.9571 33.7259 62.3737C33.1274 63.5722 32.5761 64.7936 32.0735 66.0353C31.5275 67.4121 32.1416 67.1403 33.3438 67.1655Z" fill="#38A1FF"/>
<path d="M56.7586 75.4559C50.1665 75.7002 42.0301 75.9835 36.1233 76.2844C35.8242 73.6958 35.5103 71.1046 35.1815 68.5109C35.1049 67.9182 34.193 67.9481 34.2443 68.5553C35.3523 81.6008 37.2206 94.7542 38.9863 107.76C39.1701 109.117 39.1341 109.055 40.6342 109.087C44.6656 109.173 56.4592 108.596 59.1085 108.505C59.8046 108.481 59.6713 107.663 58.9799 107.681C53.0594 107.847 44.207 108.002 40.1655 108.046C39.6397 104.269 39.1293 100.486 38.6341 96.6969C42.9275 96.9932 50.809 96.6969 55.11 96.4671C55.7662 96.4327 55.7616 95.6624 55.11 95.6777C49.5203 95.8079 44.1013 95.7864 38.5261 95.7811C37.7604 89.5834 36.9988 83.3841 36.2413 77.1834C42.2713 77.0601 50.2906 76.4583 56.9063 76.1972C57.5687 76.1742 57.4301 75.4307 56.7586 75.4559Z" fill="#38A1FF"/>
<path d="M79.6052 77.7645C79.8594 78.8365 81.7798 77.8097 81.6083 77.1681C81.3801 76.3143 79.3755 76.8005 79.6052 77.7645Z" fill="#38A1FF"/>
<path d="M82.2791 73.2155C81.2936 72.5715 80.1711 73.4544 80.799 73.9751C82.4652 75.3572 83.1987 73.8158 82.2791 73.2155Z" fill="#38A1FF"/>
<path d="M86.6514 75.7614C86.5802 74.7254 84.8137 74.9276 84.8849 75.668C84.9714 76.5555 86.7372 77.0149 86.6514 75.7614Z" fill="#38A1FF"/>
<path d="M73.1062 73.2645C72.4332 72.0814 70.5265 72.8403 70.8803 73.6695C71.123 74.2362 73.7012 74.312 73.1062 73.2645Z" fill="#38A1FF"/>
<path d="M71.9174 78.3419C73.4817 78.0356 71.9618 76.3687 70.7328 76.6451C69.5039 76.9215 70.9204 78.5356 71.9174 78.3419Z" fill="#38A1FF"/>
<path d="M77.7199 74.5034C77.5231 73.7484 76.2314 74.1374 76.1119 75.4222C76.0055 76.5555 78.0561 75.7913 77.7199 74.5034Z" fill="#38A1FF"/>
<path d="M66.2381 76.0279C66.1523 74.5777 63.4777 74.7339 64.2097 76.8273C64.408 77.3932 66.3109 77.2714 66.2381 76.0279Z" fill="#38A1FF"/>
<path d="M149.717 121.043C145.688 116.464 128.301 106.495 122.499 104.238C122.03 104.055 121.611 108.617 122.116 108.679C122.935 108.778 127.637 108.679 128.53 108.318L134.393 111.52H123.085C122.152 110.806 121.151 110.187 120.095 109.67C119.754 109.547 109.57 109.78 109.822 110.163C109.953 110.364 110.443 111.19 110.695 111.491H101.449C100.956 110.948 100.441 110.427 99.9049 109.927C99.5358 109.59 89.0585 110.049 89.3204 110.504C89.4896 110.797 89.6757 111.126 89.8878 111.491H81.9244C81.8602 111.255 81.7836 111.023 81.6946 110.795C81.5055 110.303 73.9525 110.16 73.7504 110.632C73.6439 110.88 73.5329 111.168 73.4295 111.474H66.277C66.3651 111.21 66.4247 110.937 66.4546 110.66C66.5235 110.278 57.0203 109.915 56.5861 110.196C56.1269 110.551 55.7286 110.977 55.4069 111.46H46.5246C46.7584 111.247 46.9612 111.003 47.1272 110.735C47.2674 110.505 42.0345 110.522 38.6347 109.881C37.1155 109.595 36.6622 108.17 36.5129 108.268C34.8804 109.334 33.6798 110.285 32.1016 111.435C29.077 111.435 26.0425 111.405 23.0225 111.512L29.2156 107.565C30.2019 107.565 36.2602 107.83 36.8092 107.5C37.0389 107.359 37.0703 101.939 36.5382 102.151C33.3 103.443 30.9201 105.069 27.9522 106.975C20.668 111.657 12.2597 116.738 5.47161 121.99C5.01218 122.345 5.54818 123.159 6.04896 122.844C11.4717 119.417 16.7758 115.561 22.1741 112.023C22.204 112.2 14.7727 117.671 17.1457 117.974C19.3105 118.153 21.4848 118.187 23.6543 118.077C21.9086 119.369 20.2745 120.805 18.769 122.37C18.4198 122.79 34.0618 123.352 34.4998 122.952C35.5267 122.014 37.8261 119.839 39.7251 118.018H50.5806C49.5583 119.464 48.6542 120.99 47.8769 122.582C47.6211 123.123 59.6558 123.237 59.9614 122.789C60.9958 121.251 61.9304 119.647 62.7593 117.988H71.6063C71.1913 119.468 70.7694 120.948 70.3812 122.459C70.202 123.148 84.6557 123.169 84.7207 122.804C84.8187 122.252 83.7728 118.642 83.5951 117.952H93.8687C94.698 119.397 95.6827 121.64 96.5924 122.874C96.8987 123.285 109.875 123.11 109.505 122.256C108.705 120.741 107.778 119.297 106.733 117.939H115.921C116.993 119.464 117.983 121.048 119.133 122.518C119.454 122.928 135.186 123.007 134.651 121.729C134.55 121.486 131.75 118.965 130.655 117.909H140.603C142.577 117.909 135.101 112.363 134.928 111.924C139.507 114.68 146.873 119.246 149.306 121.822C149.692 122.174 150.133 121.517 149.717 121.043ZM39.2243 116.963C35.0795 116.963 30.9347 116.993 26.7899 116.963L32.4883 112.493H43.7573L39.2243 116.963ZM62.0801 116.914H52.563L55.9322 112.507H64.4515L62.0801 116.914ZM73.0091 116.874C73.3545 115.631 73.843 113.978 74.1791 112.552H81.1471L82.2276 116.874H73.0091ZM94.4736 116.825C93.6308 115.391 92.759 113.975 91.8587 112.576H101.041C102.285 114.013 103.671 115.675 104.563 116.825H94.4736ZM116.515 116.778L113.061 112.606H122.762C124.533 113.879 126.216 115.386 127.889 116.778H116.515Z" fill="#38A1FF"/>
<path d="M148.385 123.521C130.191 123.521 9.88399 123.755 4.80041 124.158C4.69102 124.17 4.59016 124.223 4.51696 124.305C4.44376 124.388 4.40332 124.494 4.40332 124.604C4.40332 124.714 4.44376 124.82 4.51696 124.903C4.59016 124.985 4.69102 125.038 4.80041 125.05C14.4653 125.465 9.23236 125.384 148.385 124.668C148.537 124.668 148.683 124.607 148.791 124.499C148.899 124.392 148.959 124.246 148.959 124.093C148.959 123.941 148.899 123.795 148.791 123.687C148.683 123.58 148.537 123.519 148.385 123.519V123.521Z" fill="#38A1FF"/>
</svg>
