<svg width="155" height="155" viewBox="0 0 155 155" fill="none" xmlns="http://www.w3.org/2000/svg">
<path d="M89.3949 92.6926C88.8776 93.2253 88.7927 94.1208 89.997 93.6653C91.2014 93.2099 93.6795 91.1872 95.1849 89.9829C96.6903 88.7785 95.5632 88.323 93.8339 89.4502C92.1046 90.5773 90.8617 91.1486 89.3949 92.6926Z" fill="#3D9CFB"/>
<path d="M63.8106 75.4621C63.965 76.7359 66.2965 77.1142 70.7587 78.3185C72.9357 78.9207 73.9162 77.7935 69.3999 76.2109C63.5867 74.2114 63.8106 75.161 63.8106 75.4621Z" fill="#3D9CFB"/>
<path d="M94.8063 80.0474C96.3889 78.9202 94.953 78.3721 93.9802 78.843C88.9004 81.3135 88.5607 84.5173 94.8063 80.0474Z" fill="#3D9CFB"/>
<path d="M69.0057 28.9635C65.0376 31.0093 67.9481 32.4298 71.6382 29.4113C72.5415 28.8091 73.0587 28.2919 72.8426 27.8673C72.5261 27.1647 70.5111 28.1375 69.0057 28.9635Z" fill="#3D9CFB"/>
<path d="M80.9649 21.8918C80.9649 22.3396 80.3627 22.6639 79.7605 22.4168C79.1584 22.1698 78.7878 21.8918 78.4095 22.1929C78.0313 22.494 78.2551 23.4667 79.7605 23.845C79.9149 24.2928 79.9149 24.617 80.5326 24.617C81.1502 24.617 81.3046 24.1693 81.3046 23.6443C81.6128 23.4795 81.8764 23.2424 82.0727 22.9533C82.269 22.6642 82.3922 22.3317 82.4317 21.9845C82.617 20.0313 79.7297 19.6685 79.6525 18.302C79.6525 17.53 80.4785 17.53 81.0035 18.1476C81.0795 18.2449 81.1829 18.3173 81.3004 18.3556C81.4178 18.3938 81.544 18.3961 81.6628 18.3622C81.8218 18.3172 81.9566 18.2112 82.038 18.0673C82.0978 17.9596 82.1246 17.8366 82.115 17.7137C82.1053 17.5908 82.0598 17.4735 81.9839 17.3764C81.8408 17.1113 81.6366 16.8841 81.3882 16.7137C81.1399 16.5432 80.8545 16.4343 80.5557 16.3959C80.1851 15.1067 78.5871 15.4 79.0117 16.5503C78.6986 16.7231 78.4492 16.992 78.3005 17.3172C78.1518 17.6425 78.1115 18.0069 78.1857 18.3568C78.3323 20.2328 81.0421 20.9894 80.9649 21.8926V21.8918Z" fill="#3D9CFB"/>
<path d="M96.9917 105.477C97.895 105.176 102.033 101.571 103.314 100.367C104.596 99.1624 105.422 96.9776 103.091 98.7069C100.759 100.436 97.0844 103.339 96.544 104.204C96.0035 105.068 96.0885 105.778 96.9917 105.477Z" fill="#3D9CFB"/>
<path d="M101.284 75.5311C102.141 75.2223 106.874 72.0262 105.492 71.7714C104.287 71.5475 102.288 73.0838 100.983 74.2572C99.9487 75.1837 100.45 75.8321 101.284 75.5311Z" fill="#3D9CFB"/>
<path d="M75.9235 20.0855C74.9508 23.0192 77.0506 25.3506 78.556 25.3506C79.3898 25.3506 79.5288 24.8334 79.0115 24.5786C77.2668 23.8066 76.6955 21.8766 76.7495 20.0701C76.765 19.329 76.2246 19.329 75.9235 20.0855Z" fill="#3D9CFB"/>
<path d="M82.3932 9.36263C83.1652 8.94575 83.2887 3.18657 81.791 4.09754C81.2584 4.37546 81.0731 10.2041 82.3932 9.36263Z" fill="#3D9CFB"/>
<path d="M78.7878 28.8095C81.5578 29.2711 84.3911 29.1955 87.1332 28.5856C93.9732 26.424 94.0195 12.0646 84.5007 11.1305C82.7036 10.8809 80.8775 10.9305 79.0966 11.2772C71.1064 13.2227 71.2222 27.003 78.7878 28.8095ZM88.2681 14.1413C88.1619 14.1604 88.0609 14.2017 87.9718 14.2625C87.8827 14.3233 87.8074 14.4023 87.7508 14.4942C87.6945 14.5859 87.6578 14.6885 87.6432 14.7952C87.6286 14.9019 87.6363 15.0105 87.6659 15.1141C87.8126 15.7162 88.7158 15.6468 89.3952 15.6468C89.5419 15.9478 89.7658 16.3184 89.9202 16.6195C89.6963 16.6195 88.5692 16.6195 88.7158 17.3915C88.8625 18.1635 89.6191 18.0709 90.3679 18.1635C90.5247 18.6499 90.6034 19.1578 90.5995 19.6689C89.9974 19.5917 89.0169 19.5917 89.0555 20.3483C89.0941 21.1048 89.8816 21.1743 90.5995 21.1743C90.5981 21.6596 90.5199 22.1417 90.3679 22.6025C89.5959 22.4559 88.9397 22.3787 88.8702 22.9808C88.8008 23.583 89.2408 23.8841 89.9202 24.0308C89.7096 24.4844 89.4508 24.9141 89.1482 25.3123C87.4883 24.8645 87.0406 26.2927 87.7894 26.671C87.0018 27.2552 86.0591 27.5936 85.0797 27.6437C89.4492 24.2624 89.2176 16.1331 85.0102 12.7517C85.6194 12.7482 86.2229 12.8697 86.7832 13.1087C87.3436 13.3477 87.849 13.6992 88.2681 14.1413ZM80.548 12.6359C88.9011 12.6359 88.9706 27.4585 80.6947 27.5357C72.882 27.5357 72.3879 12.6359 80.4862 12.6359H80.548Z" fill="#3D9CFB"/>
<path d="M70.2099 10.0035C69.6154 9.54028 68.7739 8.87636 68.249 9.23148C67.0832 10.0035 70.565 12.5125 71.5609 13.1456C72.3869 13.686 73.8769 12.8676 70.2099 10.0035Z" fill="#3D9CFB"/>
<path d="M127.987 12.4503C113.396 12.7514 109.459 25.6131 115.125 31.9358C116.476 33.2868 119.564 33.1401 121.448 31.3336C123.478 29.3727 121.595 27.4736 122.12 25.3892C123.401 20.2708 133.785 20.6491 133.26 27.4196C132.881 32.4608 126.112 36.977 123.85 41.6399C121.588 46.3029 123.247 50.9735 128.142 50.904C133.631 50.904 131.6 46.6889 133.63 43.184C134.989 40.9297 137.243 38.5905 139.127 36.3363C146.801 26.856 141.08 12.1107 127.987 12.4503ZM132.356 42.466C130.496 45.554 131.422 48.2483 130.172 48.9354C125.81 51.4213 122.876 46.6812 125.13 42.3888C127.616 37.5792 134.464 33.0629 134.688 27.574C134.835 23.5055 131.902 20.4947 127.687 20.4947C124.305 20.5719 121.294 22.6022 120.615 25.1653C120.09 27.0413 121.818 29.1489 120.39 30.3532C115.125 34.6456 113.697 25.837 114.747 22.2317C117.156 13.7628 134.526 9.18476 139.876 20.9424C144.261 30.5076 137.32 35.433 132.356 42.4274V42.466Z" fill="#3D9CFB"/>
<path d="M124.228 57.7054C124.442 58.9785 125.104 60.133 126.095 60.96C127.087 61.787 128.341 62.2318 129.632 62.2139C130.354 62.2191 131.069 62.0693 131.728 61.7746C132.388 61.48 132.976 61.0473 133.454 60.5058C133.932 59.9643 134.288 59.3266 134.498 58.6358C134.709 57.9449 134.768 57.217 134.673 56.5011C133.932 50.4794 123.325 51.3827 124.228 57.7054ZM125.733 57.551C125.054 53.112 132.805 52.587 133.183 56.779C133.631 61.9129 126.336 61.9129 125.733 57.551Z" fill="#3D9CFB"/>
<path d="M102.334 19.3988C101.562 18.5728 95.8642 19.0205 94.6598 19.3216C93.4555 19.6227 93.4555 20.827 94.6598 20.827C95.8642 20.827 100.303 20.6032 101.129 20.6032C101.955 20.6032 103.09 20.2326 102.334 19.3988Z" fill="#3D9CFB"/>
<path d="M107.753 94.7927C108.996 94.6924 112.385 91.1025 112.385 89.9059C112.416 88.2152 105.962 94.9471 107.753 94.7927Z" fill="#3D9CFB"/>
<path d="M100.751 32.1214C101.731 32.1214 101.955 31.6737 97.9713 29.5661C96.242 28.6628 93.4396 27.0648 92.7062 27.7596C91.7566 28.6628 99.6465 32.2141 100.751 32.1214Z" fill="#3D9CFB"/>
<path d="M107.375 79.5229C107.375 78.6968 106.603 78.8435 100.149 84.0391C99.3772 84.6413 99.022 85.9151 100.002 85.7684C101.384 85.5522 107.375 80.8662 107.375 79.5229Z" fill="#3D9CFB"/>
<path d="M96.7673 9.92619C99.7009 7.67193 98.0489 6.83816 96.7673 7.81861C95.4858 8.79906 92.1739 10.7522 92.4055 11.9566C92.7066 13.5392 95.9258 10.6056 96.7673 9.92619Z" fill="#3D9CFB"/>
<path d="M56.2138 72.5277C53.3497 71.694 54.029 73.431 55.0095 73.8015C59.4949 75.6698 61.8263 74.2107 56.2138 72.5277Z" fill="#3D9CFB"/>
<path d="M55.5342 81.1054C54.407 80.7271 53.6505 81.1749 54.7622 82.3097C55.8738 83.4446 61.2316 84.8651 61.8337 85.089C63.895 85.6062 63.6634 83.9464 59.4251 82.5336C58.1667 82.0781 56.6613 81.5532 55.5342 81.1054Z" fill="#3D9CFB"/>
<path d="M145.976 132.266C145.976 123.45 129.763 123.002 126.714 129.711C125.802 131.552 125.588 133.661 126.112 135.648C126.783 138.056 128.289 141.893 137.02 141.893C142.139 141.893 143.783 140.017 144.015 140.017C146.145 138.273 145.898 136.451 145.898 132.49C146.045 132.344 146.045 132.344 145.976 132.266ZM128.219 130.313C129.609 125.149 146.655 124.84 144.393 133.247C142.888 138.589 126.035 137.755 128.219 130.313ZM144.169 137.686C144.092 137.385 143.791 136.914 143.266 137.308C142.888 137.609 142.965 138.589 142.888 139.037C142.529 139.269 142.152 139.47 141.76 139.639C141.683 138.813 141.606 138.041 140.934 138.358C140.263 138.674 140.332 139.338 140.332 140.095C139.785 140.209 139.23 140.284 138.672 140.318C138.75 139.415 138.371 138.736 137.769 138.89C137.167 139.045 137.167 139.793 137.167 140.388C136.642 140.388 135.816 140.318 135.368 140.318C135.368 139.338 135.368 138.96 134.766 138.89C134.164 138.821 133.786 139.261 133.863 140.164C133.329 140.07 132.8 139.946 132.28 139.793C132.28 138.96 132.126 138.211 131.601 138.134C131.076 138.056 130.829 138.435 130.829 139.191C130.45 138.96 130.057 138.736 129.771 138.512C129.848 137.74 129.848 137.084 129.401 136.929C128.953 136.775 128.798 136.929 128.629 137.308C128.107 136.515 127.772 135.615 127.648 134.675C131.022 138.744 140.355 139.67 144.632 135.578C144.47 136.327 144.47 137.308 144.169 137.686Z" fill="#3D9CFB"/>
<path d="M62.0044 18.5028C61.0317 18.6495 61.1784 19.63 62.6066 19.9311C64.6702 20.3016 66.7569 20.5294 68.8521 20.6104C70.2109 20.6104 70.7358 19.63 67.1228 19.0278C65.4395 18.6759 63.7241 18.4999 62.0044 18.5028Z" fill="#3D9CFB"/>
<path d="M76.4479 90.9558C74.9039 90.4232 64.6439 86.3624 63.1307 87.0495C62.3047 87.42 63.9028 88.2538 64.8678 88.5549C65.8328 88.856 73.0665 91.558 76.3012 92.4149C79.5359 93.2719 78.0922 91.5194 76.4479 90.9558Z" fill="#3D9CFB"/>
<path d="M89.0931 149.945C92.2506 149.042 109.706 144.981 103.537 139.716C104.062 139.191 103.985 137.608 103.761 136.782C101.013 126.538 101.198 124.893 96.3885 124.893C92.5707 125.173 88.7928 125.854 85.1172 126.924C76.2392 129.41 77.5207 136.782 81.2572 146.262C83.5269 151.003 86.9855 150.246 89.0931 149.945Z" fill="#3D9CFB"/>
<path d="M82.6942 82.2327C83.7518 81.4067 79.8377 80.349 78.0621 79.7468C76.2865 79.1447 76.1089 80.6501 77.46 81.1056C81.4204 82.4566 82.3236 82.4566 82.6942 82.2327Z" fill="#3D9CFB"/>
<path d="M132.28 130.012C131.755 131.51 132.581 133.548 136.495 132.946C137.468 132.791 138.672 132.791 138.973 133.247C139.051 133.393 139.506 134.019 137.769 134.219C135.909 134.405 136.951 136.829 139.506 135.123C140.278 136.026 141.822 134.899 140.633 133.849C140.934 132.413 139.506 131.131 136.341 131.44C135.368 131.533 134.233 131.664 133.863 131.209C133.778 131.129 133.711 131.032 133.666 130.924C133.621 130.816 133.6 130.7 133.602 130.584C133.605 130.467 133.633 130.352 133.683 130.247C133.733 130.142 133.805 130.048 133.894 129.973C134.012 129.871 134.156 129.804 134.31 129.78C134.835 129.634 135.507 129.78 135.97 129.41C136.264 129.17 135.97 128.429 135.438 128.352C134.675 128.299 133.915 128.483 133.261 128.877C132.211 128.02 130.667 128.923 132.28 130.012Z" fill="#3D9CFB"/>
<path d="M147.928 118.571C148.6 115.351 148.608 112.781 146.948 110.897C147.025 108.581 146.5 106.612 145.52 105.709C145.821 102.019 146.045 95.094 136.341 94.7234C137.468 90.4311 137.321 86.8181 134.796 84.4866C135.02 81.028 134.264 79.2215 133.893 78.4727C132.233 75.3074 126.891 74.1803 122.313 74.6126C118.7 74.9832 112.532 76.3419 114.338 84.3862C114.605 86.0959 115.486 87.6496 116.816 88.7558C116.724 90.2998 116.531 93.2257 117.195 94.5459C116.982 95.8296 117.035 97.1432 117.349 98.4059C112.007 100.135 113.057 105.933 114.184 107.438C113.786 107.911 113.504 108.47 113.361 109.07C113.217 109.671 113.216 110.296 113.358 110.897C109.606 113.113 109.189 119.852 112.678 122.933C117.944 127.356 129.23 125.604 130.666 121.203C135.406 123.859 146.878 123.496 147.928 118.571ZM146.276 113.306C146.276 116.216 139.181 118.077 134.534 116.764C140.409 117.22 144.995 115.56 146.276 113.306ZM144.848 113.005C144.694 112.626 144.547 112.024 143.945 112.325C143.343 112.626 143.412 113.097 143.412 114.132C143.072 114.325 142.721 114.501 142.362 114.657C142.362 113.985 142.061 113.151 141.382 113.452C140.702 113.753 140.857 114.811 140.857 115.189C140.438 115.304 140.009 115.379 139.575 115.413C139.575 114.51 139.205 113.684 138.602 113.985C138 114.286 138.07 115.112 138.07 115.529H136.117C136.117 114.703 136.039 113.877 135.291 114.024C134.766 114.101 134.611 114.626 134.611 115.382C132.673 114.996 133.986 115.56 133.484 113.066C138.07 113.738 143.343 112.24 145.373 110.202C145.575 111.169 145.386 112.176 144.848 113.005ZM144.995 107.438C145.767 109.7 139.791 112.649 133.561 111.422C133.573 111.243 133.547 111.065 133.484 110.897C138.904 111.654 143.945 109.724 144.995 107.408V107.438ZM144.169 104.729C143.775 107.253 144.022 106.558 143.489 107.361C143.49 107.255 143.468 107.15 143.426 107.053C143.383 106.955 143.321 106.868 143.244 106.795C143.166 106.723 143.075 106.667 142.975 106.632C142.875 106.596 142.769 106.582 142.663 106.589C141.837 106.589 142.061 108.133 142.061 108.318C141.76 108.465 141.459 108.62 141.081 108.766C141.081 107.994 140.78 107.338 140.108 107.562C139.436 107.786 139.575 108.843 139.575 109.222C139.105 109.331 138.627 109.405 138.147 109.446C138 108.465 137.769 107.863 137.244 108.017C136.719 108.172 136.642 108.789 136.719 109.523C136.241 109.54 135.763 109.515 135.291 109.446C135.213 108.766 135.213 107.863 134.611 107.863C134.009 107.863 133.785 108.635 133.839 109.291C133.685 109.291 133.461 109.222 133.307 109.222C133.228 108.693 133.041 108.185 132.756 107.732C132.472 107.279 132.097 106.89 131.654 106.589C135.507 107.755 141.374 107.67 144.169 104.729ZM122.174 104.049C121.897 104.033 121.618 104.059 121.348 104.126C121.572 103.447 121.271 103.216 121.047 103.146C120.522 102.984 120.067 103.077 119.766 103.972C119.345 103.187 119.138 102.306 119.163 101.417C120.522 102.474 122.475 103.146 125.185 103.671V104.126C124.634 104.063 124.08 104.037 123.525 104.049C123.626 103.547 122.576 103.3 122.174 104.049ZM124.884 102.096C125.031 100.815 125.108 99.9113 124.282 99.9885C123.456 100.066 123.456 100.761 123.456 101.718C123.077 101.641 122.776 101.494 122.475 101.417C122.622 100.29 122.707 99.5948 122.027 99.4636C121.201 99.2937 121.124 100.29 121.047 100.815C120.746 100.668 120.522 100.513 120.221 100.367C121.109 98.1357 119.31 97.8964 119.017 99.0853C118.562 98.2299 118.353 97.2651 118.414 96.2983C120.221 97.8809 123.224 98.7842 126.011 98.9309C125.665 99.9832 125.437 101.071 125.332 102.173C125.188 102.16 125.046 102.134 124.907 102.096H124.884ZM131.878 111.422C131.106 115.413 120.221 115.792 116.531 112.256C108.046 104.319 133.538 102.513 131.901 111.422H131.878ZM143.69 102.243C142.717 107.739 125.409 106.682 127.362 99.4636C128.667 95.2484 144.918 94.1213 143.713 102.243H143.69ZM134.526 94.7234C134.38 94.0441 134.225 93.5191 133.7 93.5886C133.175 93.6581 132.874 94.1213 132.874 94.8701L131.67 95.094C131.67 94.569 131.446 94.1213 130.898 94.2679C130.35 94.4146 130.126 94.7234 130.126 95.5495C129.497 95.7633 128.891 96.0397 128.319 96.3755C128.319 95.5495 128.242 95.0245 127.493 95.2484C126.968 95.4723 126.891 96.3755 126.891 97.4332C126.314 97.4465 125.736 97.4207 125.162 97.356C125.239 95.2484 124.861 95.04 124.336 95.1712C123.958 95.2484 123.656 95.4723 123.734 97.1321C123.297 97.0396 122.869 96.9131 122.452 96.7538C122.599 95.2484 122.298 94.3451 121.626 94.4378C121.171 94.5073 121.101 94.8855 121.024 96.2443C120.723 96.0899 120.499 96.0127 120.252 95.866C120.182 94.9628 120.329 93.8356 119.727 93.604C118.955 93.2335 118.955 94.5073 118.901 94.8855C117.928 93.9205 117.92 92.6081 117.92 91.2031C121.896 95.5958 131.492 95.0091 135.152 91.3498C135.298 93.4419 134.766 94.6462 134.526 94.7234ZM134.526 86.517C134.847 86.8655 135.061 87.2992 135.142 87.7661C135.223 88.2331 135.167 88.7134 134.982 89.1495C133.322 93.2952 122.491 94.1213 119.102 90.2844C126.104 93.2798 134.526 89.4197 134.526 86.517ZM115.944 79.2215C116.925 74.8597 135.059 74.3347 132.874 82.0085C131.377 87.4202 113.999 87.5746 115.952 79.2215H115.944ZM115.643 84.0388C119.688 88.7558 129.717 88.0378 133.175 84.2627C133.175 86.5788 133.052 86.4552 132.496 87.1964C132.419 86.5942 132.048 86.2159 131.593 86.4243C131.137 86.6328 131.068 87.1964 131.068 88.2308C130.801 88.3968 130.525 88.5458 130.242 88.6786C130.164 87.6287 130.095 87.0342 129.47 87.2504C128.844 87.4666 128.798 88.5319 128.798 89.2808C128.42 89.358 128.026 89.5047 127.663 89.5819C127.594 88.4547 127.663 87.8526 126.991 87.8526C126.32 87.8526 126.088 88.6246 126.165 89.8057C125.566 89.8829 124.958 89.8829 124.359 89.8057C124.359 88.833 124.359 87.9992 123.68 88.0764C123 88.1536 122.908 88.7558 122.908 89.7285C122.305 89.5819 121.711 89.5047 121.178 89.358C121.255 88.4547 121.333 87.5515 120.576 87.5515C119.974 87.5515 119.804 88.0764 119.75 88.9025C119.372 88.7558 119.071 88.6014 118.77 88.4547C118.924 87.3276 118.7 86.8721 118.322 86.7254C117.944 86.5787 117.419 86.7254 117.341 87.5515C116.355 86.6356 115.751 85.381 115.651 84.0388H115.643ZM117.596 99.7646C117.422 101.433 117.688 103.118 118.368 104.651C118.067 104.729 117.843 104.806 117.596 104.875C114.609 103.439 114.045 101.077 117.604 99.7646H117.596ZM115.944 105.632C115.607 105.816 115.279 106.016 114.964 106.234C114.773 105.677 114.672 105.093 114.663 104.505C115.043 104.933 115.476 105.312 115.952 105.632H115.944ZM113.157 112.626C112.864 117.143 116.623 118.949 121.14 119.929C116.469 119.929 112.787 117.891 112.03 115.938C111.212 113.831 112.717 113.005 113.165 112.626H113.157ZM127.918 122.076C127.918 121.551 127.841 120.725 127.239 120.949C126.636 121.172 126.467 121.775 126.467 122.902C125.569 123.265 124.635 123.523 123.68 123.674C123.757 122.168 123.379 121.867 122.776 122.014C122.174 122.161 122.174 122.917 122.174 123.82C121.425 123.885 120.672 123.911 119.92 123.898C119.989 122.77 119.989 122.014 119.241 122.091C118.492 122.168 118.469 122.392 118.414 123.751C117.701 123.653 116.997 123.5 116.307 123.295C116.23 122.392 116.384 121.265 115.535 121.265C114.686 121.265 114.863 122.091 114.863 122.77C114.342 122.544 113.857 122.24 113.427 121.867C113.427 120.964 113.589 120.122 112.902 119.76C112.215 119.397 112.3 120.061 112.13 120.439C111.677 119.662 111.442 118.776 111.451 117.876C114.346 121.79 124.953 122.338 129.06 119.381C129.108 119.89 129.028 120.402 128.829 120.873C128.63 121.343 128.317 121.756 127.918 122.076ZM129.794 116.208C129.022 116.509 129.122 117.112 129.122 117.791C128.891 117.86 127.987 118.162 127.015 118.393C127.015 117.714 127.015 116.957 126.335 117.034C125.656 117.112 125.563 117.806 125.563 118.617C124.837 118.694 124.104 118.694 123.379 118.617C123.456 117.791 123.525 117.189 122.776 117.112C122.027 117.034 121.873 117.637 121.873 118.463C121.138 118.383 120.409 118.259 119.688 118.092C119.766 117.413 119.989 116.509 119.086 116.432C118.183 116.355 118.314 117.444 118.314 117.667C117.789 117.444 117.341 117.22 116.886 116.988C116.886 116.764 116.963 115.56 116.207 115.259C115.682 115.035 115.435 115.259 115.435 115.714C114.886 114.896 114.825 114.356 114.663 112.927C118.43 117.637 128.752 117.498 132.272 113.985C132.317 114.601 132.198 115.218 131.927 115.773C131.656 116.327 131.242 116.8 130.728 117.143C130.55 116.841 130.473 116.015 129.794 116.239V116.208ZM145.597 119.065C145.597 118.54 145.373 117.938 144.771 118.239C144.169 118.54 144.091 119.219 144.169 119.968C144.091 120.045 143.265 120.346 142.887 120.501C142.887 119.729 142.887 119.065 142.285 119.142C141.683 119.219 141.474 119.76 141.474 120.979C141.007 121.116 140.529 121.216 140.046 121.28C140.123 120.454 140.193 119.628 139.444 119.698C138.695 119.767 138.618 120.3 138.541 121.427H136.811C136.881 120.532 136.811 119.698 136.209 119.628C135.437 119.551 135.306 120.454 135.383 121.28C134.822 121.192 134.267 121.066 133.723 120.902C133.801 119.929 133.947 119.096 133.198 119.026C132.673 119.026 132.372 119.474 132.295 120.3C131.794 120.071 131.315 119.795 130.867 119.474C130.879 119.245 130.853 119.015 130.79 118.795C131.424 118.483 132.007 118.077 132.519 117.59C135.468 119.459 143.837 119.042 146.739 116.046C146.184 117.999 146.755 118.131 145.597 119.096V119.065Z" fill="#3D9CFB"/>
<path d="M119.789 83.5138C120.692 83.5833 121.071 82.9811 120.314 82.6105C119.672 82.3258 119.125 81.8621 118.739 81.2748C118.352 80.6875 118.144 80.0014 118.137 79.2986C118.137 78.4726 117.458 78.7737 117.234 79.2214C116.924 79.8955 116.872 80.6599 117.087 81.3698C117.303 82.0797 117.772 82.6857 118.405 83.073C118.824 83.3302 119.299 83.4815 119.789 83.5138Z" fill="#3D9CFB"/>
<path d="M35.37 104.728C35.7036 104.708 36.0283 104.613 36.3193 104.449C36.6104 104.284 36.8603 104.056 37.0499 103.781C37.2388 103.505 37.3623 103.19 37.411 102.859C37.4596 102.528 37.4323 102.19 37.3309 101.872C38.5275 101.1 38.7591 99.0848 37.0993 98.5599C36.8611 98.4615 36.6056 98.4119 36.3479 98.4139C36.0902 98.416 35.8355 98.4697 35.5989 98.5719C35.3624 98.6741 35.1487 98.8228 34.9705 99.009C34.7924 99.1952 34.6534 99.4152 34.5617 99.6561C34.4397 99.9788 34.4073 100.328 34.4668 100.667C32.8147 101.493 32.8147 104.728 35.37 104.728ZM36.5743 99.9881C37.1688 100.227 36.4971 100.891 36.0494 100.667C35.9929 100.612 35.9527 100.543 35.9331 100.466C35.9135 100.39 35.9153 100.309 35.9382 100.234C35.9612 100.158 36.0044 100.09 36.0632 100.038C36.122 99.9849 36.1941 99.9493 36.2717 99.9348C36.3757 99.9148 36.4834 99.9338 36.5743 99.9881ZM35.2928 101.941H35.5939C36.196 102.242 35.8255 103.447 34.9917 103.076C34.4668 102.922 34.845 101.941 35.2928 101.941Z" fill="#3D9CFB"/>
<path d="M121.148 79.9701C122.468 81.823 125.656 80.2018 126.258 81.3289C126.559 81.8538 125.656 82.7571 124.151 82.5332C123.626 82.3788 123.178 82.5332 123.101 82.9115C122.877 83.6835 123.247 84.2625 125.733 84.0386C125.888 84.4092 126.258 84.8106 126.637 84.7103C127.54 84.5636 127.409 84.0386 127.015 83.2821C127.395 82.9915 127.667 82.5824 127.789 82.1196C127.911 81.6568 127.875 81.1667 127.687 80.7267C126.637 78.0942 122.916 80.4334 122.645 78.9974C122.56 78.5497 123.417 78.017 123.85 78.017C124.529 77.9398 125.054 77.9398 125.131 77.492C125.208 77.0442 124.081 76.4344 122.576 77.1137C122.345 76.9217 122.059 76.8102 121.759 76.7962C121.459 76.7823 121.163 76.8667 120.916 77.0365C120.391 77.3376 120.615 77.6387 121.07 78.0942C120.882 78.3745 120.789 78.7075 120.802 79.0448C120.816 79.3821 120.937 79.7062 121.148 79.9701Z" fill="#3D9CFB"/>
<path d="M128.443 78.6967C128.873 78.9352 129.232 79.2844 129.483 79.7081C129.735 80.1311 129.868 80.6136 129.871 81.1054C129.871 81.476 130.025 82.1553 130.473 82.2325C131.338 82.3715 132.187 77.971 128.52 77.6005C127.763 77.4152 127.686 78.0714 128.443 78.6967Z" fill="#3D9CFB"/>
<path d="M24.4619 105.091C22.3543 107.122 11.7778 113.167 9.79375 115.398C9.21664 115.963 8.84649 116.706 8.74287 117.507C8.63925 118.309 8.80817 119.121 9.22247 119.815C9.49776 120.275 9.8723 120.667 10.3187 120.964C13.4067 123.28 26.7162 128.684 30.1825 129.842C32.7378 130.668 35.1465 130.9 37.9025 129.541C41.8089 127.657 49.1121 121.566 51.0653 118.933C54.2228 114.039 59.4184 105.091 52.7174 101.625C50.0153 100.498 33.9885 91.9209 29.9972 96.221C32.1048 94.1134 44.8969 100.282 47.2284 100.853C49.2588 101.756 50.0848 103.169 49.637 105.138C48.6566 107.925 48.2783 111.159 43.3915 109.43C40.6818 108.527 30.885 104.945 29.2483 103.864C27.0404 102.397 27.2874 101.154 28.1907 98.9693C27.0944 101.116 25.7434 103.902 24.4619 105.091Z" fill="#3D9CFB"/>
<path d="M68.852 44.234C66.8217 49.4991 70.5813 53.4131 69.9097 55.7446C67.1227 61.5424 66.9683 65.302 73.3683 60.4847C75.6843 61.6118 81.0884 62.5923 81.0884 62.5923C84.6164 67.3015 84.7477 67.703 86.3535 67.4096C88.1599 67.0313 87.3339 62.5151 87.3339 62.5151L91.0164 62.7467C93.2012 66.0509 95.9804 67.1085 95.6098 61.5424C95.6098 61.5424 97.4858 60.4847 98.389 60.1141C100.419 59.2804 101.855 57.5511 101.855 55.9685C102.501 54.2898 102.722 52.4777 102.498 50.6931C102.275 48.9085 101.614 47.2068 100.574 45.7394C102.118 39.9184 102.025 38.5751 94.1044 41.6786C88.7158 36.7146 73.5381 34.0666 68.852 44.234Z" fill="#3D9CFB"/>
<path d="M38.6048 68.313C35.7715 67.1936 28.6922 67.2245 29.8811 73.7171C30.3289 76.1952 31.2321 78.905 34.6212 78.6811C40.4113 78.2256 41.0906 76.3651 40.4113 72.0573C40.1102 70.4206 39.6624 68.7608 38.6048 68.313ZM35.9722 77.0367C32.8147 77.5694 31.9115 76.6662 31.3402 73.5009C30.6608 70.0423 33.0695 69.2935 35.9259 69.2935C37.964 69.2935 38.7129 70.1195 38.9367 72.2271C39.2841 75.6085 39.2841 76.5272 35.9722 77.0367Z" fill="#3D9CFB"/>
<path d="M32.0574 27.6823C30.7836 27.7595 26.9467 28.1377 26.4912 32.8702C26.1901 36.0354 27.9194 55.7447 28.5216 59.4349C29.0365 62.7445 30.6909 64.3989 33.4856 64.3989C38.4573 64.3989 39.43 60.9403 39.5072 57.2501C39.5844 51.7612 39.0595 33.8506 38.8279 31.5191C38.5268 28.0605 35.4465 27.3812 32.0574 27.6823ZM38.0018 57.1729C37.9323 61.3881 36.8747 62.8163 33.7172 62.8935C32.289 62.9707 30.552 62.5924 30.027 59.1338C29.502 55.6752 27.9194 36.0354 27.9966 32.9474C28.0738 28.9638 33.4007 28.3616 35.9714 29.4888C36.3882 29.6562 36.7428 29.9488 36.9862 30.3263C37.2296 30.7039 37.3498 31.1476 37.3302 31.5963C37.4769 33.5495 38.079 51.3829 38.025 57.1729H38.0018Z" fill="#3D9CFB"/>
<path d="M125.261 113.684C126.612 113.908 129.893 113.452 130.665 110.82C130.82 110.295 130.596 109.77 130.14 109.917C129.237 110.218 129.368 112.233 125.099 112.85C124.227 112.982 124.381 113.584 125.261 113.684Z" fill="#3D9CFB"/>
<path d="M129.725 102.003C130.999 102.304 130.026 100.05 131.269 99.1469C132.512 98.2437 132.327 97.1165 130.497 97.8654C128.667 98.6142 128.443 101.641 129.725 102.003Z" fill="#3D9CFB"/>
<path d="M131.754 134.976C133.638 135.316 133.561 134.15 132.279 133.695C130.998 133.239 130.473 132.112 130.249 130.761C130.094 129.711 129.122 129.557 128.89 131.062C128.828 131.948 129.081 132.827 129.606 133.543C130.13 134.26 130.891 134.768 131.754 134.976Z" fill="#3D9CFB"/>
<path d="M121.596 110.82C120.306 110.179 120.746 108.504 119.866 108.643C119.094 108.713 118.963 109.994 119.411 110.673C118.507 110.897 118.206 111.121 118.438 111.654C118.67 112.187 119.341 112.326 120.546 112.024C120.992 112.369 121.528 112.578 122.09 112.627C124.653 112.256 123.209 108.906 124.575 108.411C125.471 108.095 126.984 109.315 126.459 110.45C126.305 110.82 126.529 111.276 127.285 111.121C128.042 110.967 128.188 109.469 127.733 108.713C129.663 107.431 127.802 106.713 126.683 107.585C126.32 107.315 125.905 107.121 125.464 107.018C125.023 106.914 124.566 106.902 124.12 106.983C121.534 107.639 123.402 111.422 121.596 110.82Z" fill="#3D9CFB"/>
<path d="M133.485 103.076C133.485 103.146 132.882 103.848 133.631 104.126C133.932 104.273 134.465 104.273 134.913 103.524C138.001 103.524 138.387 100.567 135.97 99.834C135.291 99.5329 135.137 99.4635 135.137 99.1624C135.137 98.8613 136.117 98.1819 137.321 99.3862C138.001 100.066 138.904 99.1624 137.846 98.0352C138.572 96.8232 137.182 96.7923 136.418 97.4331C133.863 96.9776 132.103 99.9035 135.067 100.969C137.561 101.857 134.89 102.976 134.087 101.571C133.863 101.193 133.863 100.892 133.407 100.969C132.581 101.116 132.581 102.474 133.485 103.076Z" fill="#3D9CFB"/>
<path d="M117.758 108.488C118.283 108.488 119.341 107.361 121.294 107.284C122.645 107.207 122.12 106.381 120.916 106.311C119.607 106.255 118.323 106.684 117.311 107.516C116.855 108.041 117.233 108.488 117.758 108.488Z" fill="#3D9CFB"/>
<path d="M139.05 104.273C141.459 104.126 143.412 101.872 142.439 100.212C142.138 99.6099 141.459 99.5327 141.304 100.59C141.15 101.648 139.876 102.621 138.903 102.999C137.93 103.377 137.923 104.319 139.05 104.273Z" fill="#3D9CFB"/>
<path d="M138.672 128.807C139.652 129.031 141.304 129.935 141.606 131.363C141.683 131.741 141.837 132.266 142.378 132.135C143.204 131.834 143.08 129.819 141.922 128.831C140.965 127.974 138.618 127.549 138.162 127.927C137.707 128.306 138.147 128.73 138.672 128.807Z" fill="#3D9CFB"/>
<path d="M44.549 108.264C45.0526 108.236 45.531 108.034 45.9031 107.694C46.2752 107.353 46.5182 106.894 46.5909 106.395C46.6395 106.064 46.6117 105.727 46.5099 105.408C47.7065 104.636 47.9381 102.621 46.2783 102.096C46.0401 101.998 45.7845 101.948 45.5268 101.95C45.2691 101.952 45.0145 102.006 44.7779 102.108C44.5413 102.21 44.3276 102.359 44.1495 102.545C43.9713 102.731 43.8323 102.951 43.7407 103.192C43.6187 103.515 43.5863 103.864 43.6457 104.204C41.9936 104.952 41.9936 108.264 44.549 108.264ZM45.7533 103.447C46.3555 103.671 45.6761 104.35 45.2283 104.126C44.9272 103.902 45.2283 103.3 45.7456 103.447H45.7533ZM44.4718 105.477H44.7728C45.375 105.778 45.0044 106.983 44.1707 106.612C43.7229 106.458 44.024 105.477 44.4718 105.477Z" fill="#3D9CFB"/>
<path d="M82.3235 15.3455C83.0658 15.8793 83.6335 16.6209 83.955 17.4768C84.2765 18.3327 84.3374 19.2647 84.13 20.1552C84.0528 20.6106 84.5083 20.9966 84.902 20.7573C86.4923 19.7537 85.5428 14.9595 82.7944 14.4423C81.8757 14.2725 81.8603 14.975 82.3235 15.3455Z" fill="#3D9CFB"/>
<path d="M39.9634 106.458C40.2972 106.439 40.6222 106.344 40.9133 106.18C41.2043 106.015 41.4536 105.786 41.6418 105.51C41.8305 105.234 41.9534 104.918 42.0011 104.587C42.0487 104.257 42.0198 103.919 41.9166 103.601C43.1209 102.829 43.3448 100.737 41.6155 100.212C41.1407 100.046 40.6199 100.071 40.1634 100.283C39.707 100.494 39.3506 100.875 39.1698 101.344C39.0501 101.654 39.0123 101.99 39.0602 102.32C37.4003 103.146 37.3309 106.458 39.9634 106.458ZM41.1677 101.718C41.7622 101.957 41.0905 102.621 40.6351 102.397C40.1796 102.173 40.6351 101.501 41.1677 101.718ZM39.8862 103.671C40.8435 103.671 40.5579 105.215 39.5851 104.806C39.0602 104.651 39.3612 103.671 39.8862 103.671Z" fill="#3D9CFB"/>
<path d="M100.682 56.2001C99.7788 56.5012 99.7788 58.2305 100.906 58.0066C102.033 57.7827 101.655 55.899 100.682 56.2001Z" fill="#001434"/>
<path d="M37.4776 127.07C49.4051 121.288 61.6182 103.779 51.4741 98.1819C48.386 96.5298 38.6819 92.4613 33.3396 91.4885C26.1059 90.207 26.16 97.8808 22.4312 101.795C19.1192 105.176 6.1804 110.449 6.48149 115.637C6.47502 116.316 6.6444 116.985 6.97315 117.579C7.3019 118.172 7.77881 118.671 8.35747 119.026C12.5726 121.882 21.2268 125.797 27.3952 127.75C33.0385 129.556 35.7483 127.904 37.4776 127.07ZM23.4116 102.845C27.4724 98.8612 27.2716 92.4613 31.9037 92.8087C37.4699 93.187 47.4056 97.7032 50.787 99.4325C56.8086 102.59 51.9913 111.244 48.9033 115.683C47.0968 118.316 40.2568 124.036 36.4894 125.843C33.8569 127.117 31.3015 127.271 27.6885 126.213C24.7549 125.387 13.5454 120.948 9.10631 117.49C3.5633 113.251 20.092 106.164 23.4116 102.845Z" fill="#001434"/>
<path d="M89.6962 49.429C89.9973 49.5757 90.4682 49.5217 91.2402 48.9735C92.0123 48.4254 92.7843 47.9931 92.599 47.3214C92.0663 44.99 88.1136 48.6725 89.6962 49.429Z" fill="#001434"/>
<path d="M113.999 93.0632C112.038 94.8697 102.017 104.558 97.7869 108.565C97.5553 108.789 97.1847 108.565 96.8836 108.565C95.6793 108.488 95.5326 110.217 94.6294 110.673C93.3478 111.198 92.7457 109.769 92.4446 108.11C91.9968 105.709 92.1435 104.049 92.9773 103.748C93.5794 103.524 94.0272 103.902 94.4055 102.976C94.8533 101.926 109.66 89.1955 111.035 87.5356C112.764 85.5747 112.988 83.9998 111.405 85.4281C94.7761 100.474 94.475 100.474 93.8033 101.532C93.1471 102.397 92.4677 101.764 91.6185 102.659C90.1517 104.203 90.5686 112.217 94.1739 112.217C96.4127 112.217 96.4899 110.356 96.8836 110.109C97.2774 109.862 97.563 110.109 98.1652 109.808C99.0144 109.391 112.818 96.2748 114.455 94.283C115.427 93.0632 115.273 91.967 113.999 93.0632Z" fill="#001434"/>
<path d="M98.7209 42.3501C98.838 42.3598 98.9557 42.3426 99.0652 42.2999C99.1746 42.2573 99.2728 42.1902 99.3525 42.1039C99.4321 42.0176 99.491 41.9142 99.5247 41.8017C99.5584 41.6892 99.5661 41.5705 99.547 41.4546C99.547 40.9219 100.381 40.5513 100.751 40.3969C102.589 39.6635 99.6165 38.7989 98.196 40.6208C97.7482 41.3002 97.8949 42.2806 98.7209 42.3501Z" fill="#001434"/>
<path d="M36.5743 120.531C37.4004 121.056 38.157 120.3 37.2537 119.474C35.4371 118.121 33.4679 116.986 31.3865 116.092C32.2897 115.413 33.1158 114.733 33.8646 114.131C36.0223 115.04 38.09 116.149 40.0407 117.443C40.8744 118.123 41.7777 117.366 40.9439 116.463C39.1899 115.219 37.3269 114.136 35.3777 113.228L37.5625 111.576C38.3886 110.974 37.192 110.611 36.5049 110.897C35.5798 111.341 34.6984 111.871 33.8723 112.479C32.143 111.653 30.1898 110.897 28.3834 110.163C29.2181 109.686 30.0226 109.157 30.792 108.581C31.2398 108.279 29.8116 107.677 28.6844 108.202C27.931 108.54 27.223 108.97 26.5769 109.484C18.3936 106.504 18.7796 108.936 19.7292 109.105C20.5552 109.329 22.8867 109.785 25.0714 110.534C24.1337 111.163 23.2293 111.841 22.3617 112.564C17.9999 111.066 15.8151 110.387 14.989 111.066C14.4641 111.437 14.9118 112.039 15.2901 112.116C17.18 112.514 19.0397 113.043 20.8563 113.699C19.5053 114.749 18.3781 115.428 17.2433 116.478C16.1084 117.528 17.0117 118.022 17.6988 117.76C18.3859 117.497 20.9335 115.351 22.5161 114.224C24.4693 114.903 26.4997 115.729 28.4606 116.54C27.2055 117.481 25.9995 118.486 24.8476 119.551C24.037 120.4 24.3921 120.979 25.2953 120.832C26.1986 120.686 28.6072 118.346 30.0354 117.219C32.2826 118.185 34.4665 119.291 36.5743 120.531ZM24.0138 113.228C24.9865 112.549 25.8898 111.877 26.793 111.275C28.5995 111.954 30.5527 112.78 32.4364 113.591C31.6103 114.193 30.7843 114.872 29.881 115.544C27.9896 114.733 25.967 113.907 24.0138 113.228Z" fill="#001434"/>
<path d="M84.3463 43.3304C82.0843 42.4272 81.7137 43.4848 82.0843 46.5651C82.1615 46.9434 82.3854 47.4684 82.7636 47.1673C83.2886 46.7967 82.9181 44.913 83.2886 44.6119C83.6592 44.3108 85.2495 45.2913 85.319 45.5924C84.794 47.4684 85.319 47.4684 86.2222 46.7967C87.8126 45.6464 86.531 44.2336 84.3463 43.3304Z" fill="#001434"/>
<path d="M66.0728 133.995C65.4707 134.149 64.1119 133.547 62.8304 132.644C62.6987 132.53 62.5379 132.456 62.366 132.428C62.1942 132.401 62.0181 132.422 61.8577 132.49C61.0857 132.961 62.0043 134.296 61.5566 134.898C61.0316 135.354 60.0126 134.597 59.2406 133.771C58.7851 133.246 57.6965 132.945 57.8046 133.995C58.1829 136.55 57.4341 138.357 55.9286 136.103C55.1026 134.821 54.0449 136.249 55.4037 137.909C56.2915 138.975 58.8391 139.453 59.2637 135.647C60.6147 136.929 62.9462 136.782 63.1238 134.674C64.8531 136.025 66.8834 135.277 66.9838 134.373C67.1228 133.918 66.9683 133.694 66.0728 133.995Z" fill="#001434"/>
<path d="M98.4195 45.9633C98.4195 46.6427 99.4771 46.9438 100.149 47.1676C100.681 47.3915 101.052 47.4687 101.284 47.1676C102.032 46.1177 98.3809 43.9329 98.4195 45.9633Z" fill="#001434"/>
<path d="M51.8521 93.2948C54.1064 95.3252 62.9845 97.8805 64.9376 98.4827C67.7246 99.3087 68.9289 98.2588 66.7441 97.5022C64.5594 96.7456 53.5042 92.6926 52.601 92.3915C51.6977 92.0904 50.8717 92.3915 51.8521 93.2948Z" fill="#001434"/>
<path d="M63.2858 41.8253C62.7563 41.8275 62.2316 41.7252 61.7418 41.5242C63.4711 40.8525 64.5982 37.309 62.645 36.4135C60.6919 35.518 58.0516 37.8417 58.9548 40.1732C58.5873 39.9537 58.2965 39.626 58.1224 39.2349C57.9483 38.8438 57.8993 38.4084 57.9821 37.9884C58.2832 36.4444 56.2142 37.1315 56.6234 39.1927C56.8473 40.922 58.3527 41.8253 59.9353 41.9025C60.6606 42.6926 61.6602 43.1758 62.7299 43.2535C61.7495 46.5654 61.8962 50.5953 64.274 54.9957C64.4241 55.2411 64.516 55.5175 64.5428 55.8039C64.5695 56.0902 64.5304 56.3789 64.4284 56.6478C63.6023 59.1337 63.0696 61.2413 63.3707 62.6695C63.9652 65.1862 66.9837 66.6376 72.0249 62.3684C74.442 63.5286 77.067 64.1927 79.745 64.3216C81.5052 64.3679 82.447 70.0113 86.5927 70.1193C90.2057 70.1888 90.5068 66.9541 90.4527 64.6227C90.5994 64.6227 91.2247 64.6999 91.4332 64.6999C93.2397 66.8074 93.7492 67.7107 96.0189 67.8574C96.5053 67.8898 96.9924 67.8043 97.4386 67.608C97.8849 67.4118 98.2771 67.1107 98.582 66.7302C99.3293 65.2347 99.7153 63.5847 99.7091 61.9129C102.342 61.1409 104.295 59.0565 104.449 57.0261C106.101 53.5675 105.654 48.534 103.546 45.06C104.372 42.8829 104.75 37.6178 103.693 36.9385C102.264 35.958 99.4775 36.483 96.845 38.1428C86.3071 28.8864 67.9487 31.5962 63.2858 41.8253ZM60.6533 40.3199C59.9739 39.0461 60.5761 37.5406 61.7032 37.6178C63.363 37.6873 61.4793 40.3199 60.6533 40.3199ZM94.8841 66.1281C94.2507 65.6956 93.6703 65.1904 93.1548 64.6227C94.8227 64.389 96.4463 63.9076 97.9721 63.1944C97.8949 65.3792 97.0302 67.425 94.8841 66.1281ZM100.226 60.1836C93.533 63.0169 93.6488 54.6174 100.002 54.6174C103.693 54.6174 103.917 58.6087 100.226 60.1836ZM87.7353 38.1428C89.5032 37.7414 87.0096 35.2941 85.3266 34.4526C89.1278 35.0567 92.7062 36.6397 95.7101 39.0461C94.3591 40.3971 95.1002 41.5937 95.7873 40.922C98.3118 38.4748 101.508 37.6178 102.558 38.1428C103.09 38.4439 102.859 40.7754 102.411 43.5469C101.145 42.4969 99.987 43.2303 100.983 44.2262C103.461 46.6349 104.519 51.2283 103.693 54.7641C99.6859 50.7574 92.8846 55.1347 93.7569 59.126C92.6248 59.1067 91.5448 58.647 90.7461 57.8444C90.5222 57.5433 89.92 57.7672 89.9741 58.4466C90.1208 60.1759 93.1316 61.0097 94.3359 60.6314C94.8731 61.4324 95.706 61.9876 96.652 62.1754C93.7955 63.5341 90.0281 63.5341 87.2489 63.0092C86.8706 62.932 86.2685 62.7081 86.2685 63.1558C86.2685 63.8352 87.6272 64.4374 88.8315 64.8157C88.901 66.545 88.8315 67.9037 87.9977 68.4981C87.4728 68.9536 86.5618 69.1312 85.288 68.5753C84.1532 68.0735 82.9179 65.8424 81.8294 64.2135C81.6044 63.8548 81.2943 63.5572 80.9266 63.3471C80.559 63.137 80.1451 63.0209 79.7218 63.0092C76.0975 62.7989 72.5999 61.6001 69.6085 59.5428C68.8365 58.9407 68.4042 60.4461 70.5118 61.7971C66.011 65.3329 63.2086 64.2058 65.7717 57.2809C65.9265 56.8106 65.9798 56.3127 65.9279 55.8203C65.876 55.3279 65.7201 54.8521 65.4706 54.4244C60.9621 44.7203 65.5632 37.1238 74.5725 34.7846C77.4467 35.1544 80.158 36.3286 82.393 38.1737C84.1995 39.6482 86.2376 38.4748 87.7353 38.1428Z" fill="#001434"/>
<path d="M100.828 125.573C100.316 125.663 99.8613 125.952 99.563 126.378C99.2648 126.804 99.1478 127.33 99.2379 127.842C99.328 128.354 99.6178 128.809 100.043 129.108C100.469 129.406 100.996 129.523 101.508 129.433C104.063 128.954 103.762 125.272 100.828 125.573Z" fill="#001434"/>
<path d="M116.408 70.7213C121.904 66.5293 123.935 64.9621 116.554 62.8931C119.411 60.94 120.993 58.6085 116.855 57.4042C114.539 56.7248 109.907 55.7444 108.201 55.4433C106.495 55.1422 105.491 55.9682 107.298 56.6476C118.554 60.8705 128.042 54.2235 90.6689 78.2638C87.4341 80.2247 82.6245 76.9128 75.0203 74.6585C67.1226 72.3425 58.9934 68.7836 54.9481 67.8108C52.6938 67.2781 52.6938 68.1119 52.3927 68.1119C52.0916 68.1119 52.0145 66.9771 50.7329 66.9771C48.1776 66.9771 47.2743 74.1259 49.8297 74.5813C50.7329 74.728 50.9645 74.2031 51.3737 74.2031C51.7828 74.2031 51.4509 75.1063 52.8791 75.7471C60.4062 78.9046 82.3775 86.3544 85.1567 87.0338C87.4187 87.5588 87.6426 87.4121 89.5263 86.5783C93.286 84.9262 116.686 67.5484 117.064 67.2782C118.152 66.3981 116.33 66.151 115.859 64.2673C116.832 64.5684 118.175 65.0934 118.947 65.3945C119.851 65.7727 119.851 66.2205 119.102 66.9385C116.261 69.5015 93.4326 86.1074 90.059 88.1532C89.4661 88.5458 88.7914 88.7979 88.0864 88.8902C87.3813 88.9825 86.6645 88.9126 85.9905 88.6859C81.6827 87.5742 52.1766 76.604 51.5358 75.9632C50.8564 74.9905 49.6521 75.8166 48.6022 74.9133C46.9578 73.4388 46.5255 68.1505 49.7293 66.1819C50.9336 65.5875 58.5302 60.994 62.6682 58.3615C63.4942 57.8365 62.3671 56.9333 60.2595 58.1376C56.052 60.6157 50.0304 64.3136 49.0499 64.9081C44.6186 67.2241 45.0278 75.1217 48.4478 76.5654C44.912 79.0513 44.7653 88.6859 49.7293 88.7554C49.3859 88.9022 49.0831 89.1298 48.8465 89.4188C48.6099 89.7077 48.4467 90.0496 48.3706 90.4152C47.9895 90.4392 47.6176 90.542 47.2783 90.7172C46.939 90.8924 46.6398 91.1361 46.3996 91.4329C46.1594 91.7297 45.9834 92.0731 45.8828 92.4415C45.7822 92.8098 45.7592 93.195 45.8152 93.5727C45.8924 94.8542 47.3206 95.2248 47.0968 93.7966C46.9424 92.9706 47.2434 91.7662 48.3706 91.689C50.648 91.5423 48.7103 89.9057 51.4586 89.373C55.4499 91.9361 61.8421 93.812 72.6039 97.5022C86.5 102.304 88.5381 103.354 92.3904 100.59C100.442 94.9469 110.973 84.3395 111.575 83.6679C112.702 82.533 112.702 81.1048 111.652 82.1625C110.108 83.6679 100.967 91.8666 92.3132 98.7838C89.7579 100.822 88.1598 101.1 85.095 100.142C84.4928 99.9572 56.1679 90.7395 52.2152 88.4775C51.5358 88.1069 51.613 87.5047 51.0803 87.2731C50.5476 87.0415 49.7293 87.8753 48.6022 87.0493C46.0005 85.235 47.0582 77.4223 50.5554 77.4223C48.3706 79.1516 47.2434 85.0189 49.876 86.0688C50.648 86.3699 51.0108 85.9221 51.613 86.146C52.2152 86.3699 51.8369 87.2037 53.157 87.8058C62.0351 91.6659 78.2164 96.7534 85.4347 98.7838C88.5999 99.687 89.9509 98.7143 92.3827 96.9078C96.2428 94.1363 111.86 80.356 112.023 80.2016C113.127 79.1285 113.451 77.2679 112.092 78.3256C110.363 79.6766 97.8022 90.5079 91.5567 95.4796C88.1676 98.1121 87.3492 97.2012 87.0404 96.8306C85.8747 95.4487 84.3307 91.7894 85.8361 89.8825C86.6502 90.1349 87.5097 90.2056 88.3541 90.0895C89.1985 89.9735 90.0071 89.6735 90.7229 89.2109C95.8181 85.9376 113.242 73.1068 114.2 72.358C114.277 72.9601 114.609 74.0795 114.879 75.2916C115.049 76.0636 116.354 75.6004 116.006 73.9328C115.659 72.2653 115.705 72.3888 115.628 71.9025C115.859 71.9025 119.488 72.5046 120.445 72.6745C121.071 72.8984 122.499 71.7712 116.408 70.7213ZM53.103 74.2571C51.9759 73.7321 52.0531 72.9756 51.4509 72.8289C50.8487 72.6822 50.5476 73.431 49.8683 72.9756C49.1889 72.5201 49.0963 68.6909 50.6403 68.4593C51.2424 68.3898 51.5435 69.1387 51.9913 69.2313C52.8173 69.4552 52.8173 68.6292 53.7206 68.853C54.3228 69.0074 80.2776 77.955 85.2494 79.6611C84.2689 81.2052 84.4233 83.7219 85.3188 85.4512C80.4861 84.1156 63.7335 79.1439 53.1261 74.2571H53.103ZM87.1099 85.6905C85.9596 84.3936 85.481 81.4522 86.7393 80.2016C88.2736 80.5636 89.8884 80.3203 91.2479 79.5222C93.7337 78.094 107.051 69.3626 114.122 64.4758C114.26 65.2517 114.598 65.9782 115.103 66.5833C107.9 71.694 92.4754 84.409 87.1331 85.6905H87.1099ZM85.1799 97.371C81.0419 96.0895 62.3825 90.67 53.5276 86.5629C52.5471 86.1151 52.7015 84.9108 51.42 84.9108C50.1385 84.9108 49.6135 84.6097 49.9146 81.6761C50.2929 80.0163 51.1961 78.0631 52.771 78.287C53.3114 78.287 75.1592 86.7791 84.2226 89.6509C82.9488 91.9669 83.7362 95.1245 85.1799 97.371Z" fill="#001434"/>
<path d="M90.9003 54.0153C92.6296 54.8413 95.9415 52.9653 94.0578 50.7034C92.066 48.3719 88.3372 52.7337 90.9003 54.0153Z" fill="#001434"/>
<path d="M79.9148 50.7028C80.2853 50.6333 80.3625 50.255 80.2853 49.7995C79.3898 44.9899 80.7408 41.7552 81.2658 41.4541C81.7908 41.1531 85.1258 41.5236 87.8124 43.6312C88.1907 43.9323 89.2406 44.1562 89.6189 43.6312C90.3292 42.45 82.9951 38.6749 80.5169 40.1726C78.0388 41.6703 77.7454 51.3204 79.9148 50.7028Z" fill="#001434"/>
<path d="M82.9948 104.273C85.5579 105.045 87.6654 104.35 84.9557 103.501C82.2459 102.652 75.5449 100.567 73.5145 99.9651C71.4842 99.363 70.2104 100.266 72.9124 101.316C75.6144 102.366 81.0416 103.748 82.9948 104.273Z" fill="#001434"/>
<path d="M111.59 136.404C111.994 135.374 112.072 134.245 111.814 133.169C114.979 131.27 111.86 123.65 108.579 122.708C106.85 118.725 106.263 116.918 100.149 116.764C95.8181 116.764 84.3461 118.833 81.4202 119.929C80.0615 115.791 78.3322 113.529 72.241 114.957C68.1031 115.938 53.8827 119.327 51.3196 120.361C46.6876 122.314 47.4596 126.684 47.861 128.56C48.5327 131.668 49.3734 134.738 50.3778 137.755C53.2265 145.544 57.2255 142.425 74.0784 137.755C77.6837 148.563 80.4166 152.461 91.5335 149.867C98.829 148.323 109.212 144.981 112.378 142.147C113.845 140.24 113.466 137.986 111.59 136.404ZM108.958 124.515C110.61 125.873 112.339 129.857 111.366 131.741C110.533 130.235 109.629 130.235 108.502 130.235C105.792 130.235 102.558 131.084 99.7013 131.362C98.4198 131.486 97.146 131.362 96.6133 128.506C96.3894 127.371 96.2427 125.341 97.4471 124.739C99.848 123.619 107.298 123.31 108.958 124.515ZM73.6692 136.326C51.9758 142.981 53.4195 143.413 50.1925 132.343C57.3413 130.081 65.54 128.128 73.6692 126.097C72.2796 129.232 72.905 132.984 73.6692 136.326ZM48.9882 125.935C48.959 125.04 49.2125 124.159 49.7128 123.416C50.2131 122.673 50.9347 122.107 51.7751 121.797C54.2533 120.824 68.5508 117.358 72.6193 116.393C77.3594 115.258 78.2627 116.463 79.0193 118.122C70.0563 120.377 57.8663 123.689 48.9882 125.935ZM111.135 141.213C109.182 143.529 93.0775 148.509 88.7465 149.034C85.589 149.412 80.9184 149.566 78.4403 144.595C74.3023 136.396 72.4186 129.154 76.0316 125.109C78.6641 122.098 82.8021 121.048 83.6281 120.894C89.0298 119.512 94.5472 118.631 100.111 118.261C105.306 118.153 106.124 120.577 106.804 122.399C103.492 122.021 98.829 122.554 96.8758 123.457C95.2932 124.229 94.7682 126.09 95.216 128.799C96.5901 137.832 109.166 128.313 110.34 133.007C110.641 133.91 110.718 135.493 110.193 136.095C109.514 136.774 105.376 138.65 85.288 142.186C84.7181 142.234 84.1739 142.444 83.7197 142.792C83.2655 143.139 82.9203 143.609 82.7249 144.147C81.096 150.477 93.0389 146.895 99.2844 145.05C105.376 143.321 110.563 141.283 111.544 138.426C111.891 139.059 112.138 139.831 111.135 141.221V141.213ZM109.861 137.978C109.182 141.437 98.2808 144.155 89.3178 145.876C82.6168 147.15 83.2499 144 85.3266 143.622C101.585 140.765 107.506 139.059 109.861 137.986V137.978Z" fill="#001434"/>
<path d="M113.62 96.8306C101.407 109.044 109.127 101.316 99.176 110.727C98.7051 111.19 97.7092 110.727 97.4467 111.028C96.8291 111.8 96.6747 114.317 93.3782 113.884C87.8738 113.166 59.6724 103.802 57.7192 103.2C55.766 102.597 56.7388 104.404 58.0203 104.852C59.3018 105.299 85.8125 114.185 93.3087 115.312C95.6248 115.691 97.5934 114.54 98.0489 112.757C98.2805 112.039 98.9212 112.757 99.701 111.985C104.063 108.125 113.165 98.8609 114.222 97.9191C115.272 97.1316 115.126 95.3946 113.62 96.8306Z" fill="#001434"/>
<path d="M28.9003 104.505C31.9884 106.234 42.0708 110.518 45.8845 110.681C49.042 110.758 49.8449 107.685 50.4702 105.277C50.8794 103.732 50.5474 101.416 47.5366 100.158C45.3518 99.1854 35.8021 95.9507 33.1695 95.1169C29.1783 93.8431 26.8468 99.2549 26.8468 101.44C26.85 102.096 27.0465 102.736 27.4117 103.282C27.7769 103.827 28.2947 104.252 28.9003 104.505ZM28.4526 101.339C28.6765 99.9111 29.7264 96.2286 31.9112 96.4525C35.0687 96.6763 44.4022 100.59 47.0348 101.571C50.1228 102.698 49.0652 105.856 47.8068 108.04C47.359 108.812 46.8341 109.584 43.746 108.812C40.411 107.886 27.9894 104.126 28.4526 101.339Z" fill="#001434"/>
<path d="M82.3237 140.24C81.791 139.26 80.6562 137.222 80.1389 137.832C79.4518 138.65 80.9109 140.842 81.7216 141.445C82.6943 142.047 82.8487 141.221 82.3237 140.24Z" fill="#001434"/>
<path d="M98.6512 49.7302C97.5163 52.1312 100.682 52.8878 101.955 51.6834C103.762 49.9541 99.7011 47.3911 98.6512 49.7302Z" fill="#001434"/>
<path d="M97.6705 56.9486C96.4662 57.3268 96.6901 59.3572 97.8944 59.0561C99.2531 58.7705 99.0138 56.5008 97.6705 56.9486Z" fill="#001434"/>
<path d="M80.0616 135.578C79.3513 133.153 78.7738 130.692 78.3315 128.205C78.1076 126.699 77.0731 127.147 76.9805 128.274C76.7875 130.536 77.7525 134.898 79.1576 136.249C79.7134 136.782 80.216 136.18 80.0616 135.578Z" fill="#001434"/>
</svg>
