<svg width="156" height="155" viewBox="0 0 156 155" fill="none" xmlns="http://www.w3.org/2000/svg">
<path d="M134.95 114.685C135.174 113.859 133.808 108.887 134.124 108.215C134.441 107.544 139.073 108.601 139.691 109.35C140.131 109.883 141.235 113.411 142.099 116.568C148.19 107.389 147.743 94.0026 141.497 84.5223C141.574 91.8178 137.135 86.0664 134.425 85.2017C133.009 85.6102 131.625 86.1264 130.287 86.7457C129.685 89.9109 128.404 92.1498 124.644 90.3587C124.644 90.3587 122.537 94.35 124.042 94.875C125.547 95.3999 130.511 96.6815 130.666 97.8086C129.986 104.502 126.806 98.3335 123.139 98.2563C116.669 100.14 115.017 102.549 118.097 108.115C118.7 108.485 121.788 109.466 122.313 110.145C124.196 114.052 121.409 114.353 119.603 116.916C119.302 117.688 120.058 122.181 120.583 122.559C121.108 122.937 123.293 122.026 124.945 121.725C129.763 121.501 127.802 119.324 129.986 116.761C130.967 116.267 134.727 115.518 134.95 114.685Z" fill="#3D9CFB"/>
<path d="M113.288 117.171C112.462 117.171 110.053 117.696 109.227 118.676C105.012 123.717 107.868 123.787 112.609 124.165C113.589 123.864 116.368 121.008 116.368 120.305C116.368 119.602 114.114 117.171 113.288 117.171Z" fill="#3D9CFB"/>
<path d="M94.4045 88.3514C94.5589 92.2114 97.6393 93.8403 98.5425 96.4034C98.7664 99.1826 94.86 103.351 94.7828 104.973C94.7056 106.594 97.261 107.837 97.7165 109.265C98.0175 110.315 97.1915 116.638 98.4885 118.213C99.2605 119.193 103.306 112.646 104.209 112.646C107.969 113.55 109.698 112.044 111.427 108.964C111.651 108.285 108.27 106.254 107.668 105.274C107.22 104.448 107.289 99.5609 106.463 98.6577C105.483 97.5305 102.487 97.2217 101.955 96.5501C101.584 96.0946 100.82 90.0035 102.626 88.83C103.754 88.058 106.764 89.3627 107.822 89.1311C108.88 88.8995 110.678 85.9736 111.582 85.7497C117.148 89.1311 115.642 90.4898 118.576 82.9628C118.877 76.7249 116.26 80.6467 112.933 78.9792C112.408 78.2998 116.167 74.6946 117.565 72.8881C106.741 73.3127 98.7818 80.1604 94.4045 88.3514Z" fill="#3D9CFB"/>
<path d="M123.069 81.8124C124.567 82.9395 130.141 81.3106 131.415 81.2875C133.677 81.2489 137.282 84.2211 139.011 81.3647C134.726 76.3234 126.976 73.467 120.73 73.0115C119.456 75.0419 120.962 75.7213 122.166 77.5278C122.536 78.2071 121.865 80.9092 123.069 81.8124Z" fill="#3D9CFB"/>
<path d="M13.6913 46.5317C17.2271 43.8297 20.3074 47.5121 23.3954 46.385C27.9039 44.841 23.3182 36.6809 34.4506 32.4889C33.0224 34.8975 36.0332 41.9691 52.4306 35.1986C51.6046 44.3778 60.1044 44.7483 70.6346 40.1626C70.0324 42.718 70.5574 46.7864 78.2311 47.3886C83.2134 45.3238 88.7298 44.9257 93.9569 46.2538C93.9569 46.2538 93.9569 32.0411 80.7864 32.4889C78.9877 24.5912 70.7504 18.199 59.1239 22.7847C53.635 15.4121 40.6961 15.1882 37.9864 22.9391C27.9039 23.0858 22.9399 26.3977 21.365 34.0715C3.90996 36.0247 3.68608 55.209 13.1663 65.662C10.0011 61.1303 9.47613 49.8436 13.6913 46.5317Z" fill="#3D9CFB"/>
<path d="M133.599 142.523C130.889 141.998 127.13 141.543 123.44 141.018C120.807 140.562 121.71 136.88 121.039 136.123C120.058 134.996 118.329 134.927 117.804 135.753C116.97 137.026 117.125 140.114 115.395 141.018C114.492 141.404 97.3921 142.971 103.36 143.874C105.081 144.137 145.48 144.708 133.599 142.523Z" fill="#001434"/>
<path d="M52.9559 75.4205C42.8735 73.5368 42.4257 70.3021 41.6537 67.9011C41.6123 67.7934 41.5444 67.6978 41.4563 67.6232C41.3683 67.5487 41.2628 67.4975 41.1497 67.4744C41.0366 67.4513 40.9196 67.4571 40.8093 67.4912C40.6991 67.5253 40.5992 67.5866 40.5189 67.6695C35.7092 73.3129 41.2137 83.3413 47.8915 77.0031C48.0734 76.8172 48.3022 76.684 48.5536 76.6174C48.805 76.5508 49.0697 76.5534 49.3197 76.6248C53.0331 77.4509 55.0635 75.7988 52.9559 75.4205Z" fill="#001434"/>
<path d="M149.248 89.5636C146.237 81.141 140.756 74.7411 133.376 71.4369C133.97 69.6999 136.309 66.8048 134.649 66.2413C133.584 65.7086 132.38 69.1363 131.561 70.7575C128.095 69.476 126.296 67.9706 125.995 69.9855C125.918 70.8888 127.423 70.8193 130.627 72.3942L129.724 74.2007C122.351 71.4215 115.828 71.4909 110.238 73.2974C111.791 68.2391 111.476 62.7915 109.351 57.9458C107.226 53.1002 103.431 49.1786 98.6583 46.8948C100.009 39.2982 93.2543 27.1082 84.438 27.7104C82.5543 17.6743 69.546 13.5672 60.2896 17.0335C54.9473 9.0587 39.8314 8.75761 34.5663 17.103C26.5915 15.227 16.3547 19.89 16.2852 28.768C0.188828 32.6281 2.74417 53.7425 11.5451 65.0987C8.53423 66.828 3.19194 69.3139 6.58105 69.916C7.35305 70.0627 9.89296 67.8857 12.8266 66.6813C21.4731 79.7669 42.8345 91.5786 63.6787 89.9959C64.697 91.5023 65.8803 92.8903 67.2068 94.1339C66.9057 94.7361 66.3807 95.4926 65.933 96.3187C64.6514 89.1699 55.4028 90.8297 51.0409 95.6393C46.4767 94.4868 42.0408 92.8754 37.801 90.8297C36.2184 89.9265 36.1412 91.8796 37.6466 92.7829C40.202 94.3269 46.0692 96.1643 49.605 97.2219C43.29 103.691 38.4727 124.373 40.3409 132.425C23.7119 125.732 16.7175 124.373 13.3207 115.804C12.5487 113.92 11.437 113.843 11.5142 114.6C11.8153 118.738 15.05 123.547 20.2379 126.033C26.7845 129.191 34.9832 132.425 42.6261 135.297C50.2689 138.169 56.6148 139.659 62.5593 139.929C72.8656 140.462 79.5434 138.957 83.6197 121.502C86.0283 111.049 81.5198 106.988 75.6525 104.803C76.2784 103.292 77.0434 101.842 77.9377 100.472C82.0611 101.725 86.4676 101.698 90.5754 100.395C89.6722 110.925 94.8678 121.239 104.942 127.021C104.719 127.554 104.418 128.002 104.17 128.457C102.793 127.802 101.525 126.937 100.411 125.894C100.32 125.802 100.212 125.731 100.092 125.684C99.9109 125.612 99.7114 125.601 99.5237 125.653C99.3361 125.705 99.1705 125.817 99.0521 125.971C98.3804 127.176 101.685 129.361 103.19 130.109C102.063 132.217 100.635 134.741 102.418 134.548C103.09 134.471 103.545 133.12 104.896 130.858C131.793 142.971 158.998 116.646 149.248 89.5636ZM17.3737 30.59C19.5585 30.1345 17.1498 24.9466 21.8127 21.6347C23.643 20.2726 25.7572 19.3416 27.9977 18.9111C30.2382 18.4807 32.5469 18.5619 34.7516 19.1488C34.9514 19.1908 35.1593 19.1704 35.3471 19.0903C35.5349 19.0102 35.6935 18.8743 35.8015 18.7011C40.781 10.5796 54.2371 10.981 59.1239 18.7011C59.2529 18.8903 59.4419 19.0305 59.6604 19.0991C59.8789 19.1678 60.1141 19.1608 60.3282 19.0794C63.0679 18.0691 65.9962 17.6734 68.9058 17.9202C71.8154 18.167 74.6352 19.0503 77.1657 20.5076C83.28 24.2132 81.4812 29.4551 84.4611 29.4551C91.9805 29.6095 97.8477 39.2365 96.9445 46.1614C91.108 44.1056 84.7488 44.0784 78.895 46.0842C75.282 46.9102 70.2408 45.0265 71.4451 40.518C71.669 39.746 71.5223 38.7115 70.0941 39.3909C61.741 43.2509 52.1912 44.7949 53.2412 35.4768C53.2673 35.3044 53.2469 35.1283 53.1823 34.9664C53.1177 34.8045 53.011 34.6628 52.8734 34.5558C52.7358 34.4489 52.5721 34.3805 52.3993 34.3579C52.2265 34.3352 52.0507 34.359 51.8902 34.4269C43.7609 38.1093 35.8633 39.0589 35.1144 33.5931C34.7362 30.8911 29.0233 32.6204 26.4602 38.2251C24.9162 41.6914 24.5071 46.6555 21.9517 45.675C17.1344 43.8685 14.7643 43.9843 12.1704 46.5783C9.57644 49.1722 9.01287 53.8042 9.85436 58.7682C4.73595 48.4156 4.59699 33.2225 17.3737 30.59ZM15.5672 67.2217C10.6804 60.374 8.87391 48.6395 15.9455 46.3775C18.6552 45.5515 20.1607 47.2036 22.4921 47.5819C28.205 48.4851 25.0475 36.9745 33.0995 34.0409C34.6435 40.4331 41.746 40.2169 51.149 36.6734C51.921 46.1537 60.4826 45.1655 69.2835 41.7146C69.2063 44.7177 71.916 47.0569 74.7724 47.8057C69.2063 50.7394 64.5434 56.2978 61.8336 62.3967C61.3086 60.0807 57.7728 58.4903 57.0163 59.7641C56.9595 59.8812 56.9303 60.0098 56.9311 60.1399C56.9319 60.27 56.9626 60.3982 57.0208 60.5146C57.0789 60.631 57.1631 60.7325 57.2667 60.8111C57.3704 60.8898 57.4907 60.9437 57.6184 60.9685C65.215 63.9793 57.3946 73.0813 52.2762 67.0596C51.3034 65.9325 50.0991 67.1368 50.9251 68.3411C51.8189 69.6738 53.1807 70.6222 54.7406 70.9982C56.3006 71.3743 57.9449 71.1506 59.3477 70.3715C58.3246 76.4781 59.4427 82.7508 62.513 88.1277C42.8731 89.1853 23.542 78.4313 15.5672 67.2217ZM66.7976 90.8452C50.4002 69.3988 74.9191 39.6147 97.0371 48.0373C102.078 49.921 105.691 53.0786 108.247 58.9458C90.0427 31.1149 52.0523 65.1913 66.7976 90.8452ZM89.1395 58.5675C85.1559 63.3077 80.3386 72.3401 77.1039 78.7324C73.1898 76.9259 70.5573 74.44 69.5846 71.6608C71.1153 65.961 74.5678 60.9649 79.3582 57.5176C82.6532 57.3617 85.9526 57.7158 89.1395 58.5675ZM82.1451 118.9C78.7264 118.71 75.3669 117.926 72.2171 116.584C70.3334 115.905 70.0323 117.865 72.8888 118.769C75.7947 119.752 78.7965 120.424 81.844 120.776C81.2543 123.542 80.449 126.257 79.4354 128.897C76.4655 128.41 73.5457 127.656 70.7117 126.643C68.6813 126.041 68.7508 127.847 71.5377 128.897C73.8448 129.779 76.2549 130.363 78.7097 130.634C73.738 143.874 50.1454 135.598 42.5257 133.12C40.7192 127.4 43.73 107.389 51.1722 98.3799C54.708 94.0953 59.0003 92.2888 62.7523 94.242C65.6087 95.6702 62.1733 102.734 66.3653 103.946C74.1394 106.185 83.8744 107.165 82.1451 118.9ZM74.7724 102.047C72.0591 101.033 69.5018 99.6429 67.1759 97.9167C67.7009 97.083 68.2258 96.2569 68.6041 95.5081C70.7854 97.3254 73.2499 98.7729 75.8996 99.7927C75.6217 100.472 75.2202 101.221 74.7724 102.047ZM68.9052 74.5944C73.5372 81.3649 85.6037 84.8235 93.2775 81.8899C99.8936 79.404 101.098 67.6695 98.6815 62.8599C96.2651 58.0503 88.5991 55.9118 82.4694 55.5644C97.8091 47.8443 110.825 61.1306 103.53 76.5476C97.207 81.141 93.1462 86.4756 91.2702 94.2265C78.9104 100.85 65.9716 89.0387 68.9052 74.5944ZM93.7252 111.45C82.7473 78.2537 130.342 56.5449 143.906 91.5168C156.32 123.532 107.868 144.932 93.7252 111.45ZM105.838 129.129C106.062 128.681 106.363 128.226 106.61 127.701C123.231 134.024 138.054 125.971 144.523 113.558C149.927 103.105 148.059 83.542 131.654 74.8955C131.955 74.2933 132.256 73.6912 132.557 73.1662C148.059 79.404 153.849 103.027 145.427 116.723C136.155 132.518 118.63 134.247 105.838 129.129Z" fill="#001434"/>
<path d="M45.2817 60.297C59.726 58.753 54.0131 36.9824 36.4809 40.5182C30.768 41.6453 26.9852 49.9213 30.1658 54.507C31.8951 56.9156 34.5277 56.4679 37.1139 57.2939C40.6188 58.4211 41.746 60.6753 45.2817 60.297ZM34.9754 54.893C30.4669 54.2136 29.8648 50.0757 31.8179 46.5399C34.2266 42.3324 39.0362 40.4487 46.1078 43.4518C42.9135 47.1847 40.0465 51.1856 37.5385 55.4102C36.6353 55.1555 35.8015 55.0319 34.9754 54.8853V54.893Z" fill="#001434"/>
</svg>
