<svg width="154" height="154" viewBox="0 0 154 154" fill="none" xmlns="http://www.w3.org/2000/svg">
<path d="M100.822 69.0603C100.698 63.0425 100.898 57.024 100.81 51.0063C100.62 37.9019 100.434 24.7964 100.25 11.6899C100.216 9.23504 99.9673 6.37051 97.9067 5.0374C96.6578 4.2288 95.0682 4.23263 93.5812 4.27168C84.0626 4.52131 74.57 4.10782 65.0629 4.64152C61.3875 4.8475 58.4847 6.00296 58.3499 10.0712C58.0773 18.2911 58.5107 71.5152 58.7328 75.9755C58.8094 77.5773 58.2917 84.1686 59.7428 85.723C60.6333 86.6763 70.3303 86.0722 70.9283 85.8639C71.9605 85.5048 74.9284 78.9794 77.8917 76.0321C75.191 76.1753 64.8294 76.951 64.262 75.6278C63.6946 74.3047 63.5667 17.4634 63.2666 13.3622C73.9279 13.5491 84.5897 13.4587 95.252 13.0912C95.729 33.8114 94.8998 50.7498 95.2842 64.1191C95.3607 66.8581 96.1823 71.8812 94.5912 74.2763C93.7213 75.5857 91.9878 75.5015 90.4318 75.4885C89.1975 75.4808 83.7487 75.905 83.486 75.8438C84.2517 76.0222 84.496 76.9816 84.4815 77.7634C84.4432 80.3492 83.2211 82.7459 82.1659 85.1066C81.5641 86.4535 82.4891 86.3593 83.5396 86.3532C84.5902 86.3471 92.3622 86.2177 95.1838 85.9244C97.5154 85.6824 99.3363 86.0193 100.152 83.6058C101.595 79.3385 100.914 73.5313 100.822 69.0603Z" fill="#38A1FF"/>
<path d="M79.3316 44.2933C78.9585 44.0692 78.5144 43.9944 78.0884 44.0838C77.6624 44.1733 77.286 44.4204 77.0345 44.7757C75.4043 46.7535 75.9717 49.968 76.3293 52.2506C76.376 52.5477 76.8545 52.4726 76.8484 52.1801C76.7446 50.5675 76.832 48.9482 77.1088 47.3561C77.2489 46.7282 77.4151 45.716 77.9618 45.2994C80.0866 43.6845 79.9128 52.4206 79.0468 51.8593C78.9411 51.7904 78.9771 47.6479 78.984 46.7459C78.9804 46.6307 78.9361 46.5206 78.859 46.4351C78.7819 46.3495 78.677 46.294 78.5628 46.2785C78.4487 46.263 78.3328 46.2884 78.2356 46.3503C78.1385 46.4122 78.0664 46.5065 78.0322 46.6164C77.7275 48.1141 77.6804 49.6528 77.8929 51.1663C77.974 51.9397 78.0789 53.0959 79.0912 53.1319C80.2398 53.1725 80.4565 51.8692 80.5797 51.0025C80.7637 49.6986 80.7541 48.3747 80.5514 47.0736C80.4082 46.1317 80.2084 44.8767 79.3316 44.2933Z" fill="#38A1FF"/>
<path d="M82.6712 55.1189C84.1108 52.8884 84.0074 48.1732 83.6123 45.5735C83.2065 42.9004 81.3083 39.323 78.057 39.8307C72.6289 40.673 71.5577 51.1748 75.1473 55.2384C75.1902 55.2813 75.2461 55.3088 75.3063 55.3166C75.3664 55.3244 75.4275 55.3121 75.4799 55.2816C75.5323 55.2511 75.5732 55.2041 75.5962 55.148C75.6191 55.0918 75.6228 55.0297 75.6068 54.9712C75.2576 53.72 74.6611 52.5974 74.3946 51.3072C73.6167 47.5483 74.4069 41.843 77.9629 40.9234C81.1605 40.0964 82.5089 44.4763 82.7057 46.788C83.0523 49.4756 82.7318 52.2071 81.7723 54.7414C81.5487 55.2797 82.3803 55.57 82.6712 55.1189Z" fill="#38A1FF"/>
<path d="M72.7426 55.7047C72.8781 55.9888 73.2786 55.7813 73.2212 55.5033C72.0542 49.7007 72.8988 49.4542 72.6959 47.0406C72.6691 46.7175 72.176 46.4909 72.0114 46.8546C71.5094 48.2965 71.3662 49.8389 71.594 51.3486C71.7081 52.8585 72.0973 54.3348 72.7426 55.7047Z" fill="#38A1FF"/>
<path d="M73.928 39.9218C72.9892 41.1665 72.3973 42.638 72.2128 44.1861C72.1706 44.51 72.6171 44.6608 72.7174 44.3254C73.3111 42.3174 74.4829 40.5286 76.0865 39.1821C76.6507 38.8111 77.1802 38.3898 77.6685 37.9233C77.8377 37.7227 77.745 37.3214 77.4342 37.3582C76.0352 37.5213 74.7465 38.8567 73.928 39.9218Z" fill="#38A1FF"/>
<path d="M80.0766 37.6653C80.0374 37.6708 80.0007 37.6878 79.971 37.714C79.9413 37.7403 79.92 37.7747 79.9098 37.8129C79.8995 37.8512 79.9007 37.8916 79.9132 37.9292C79.9257 37.9668 79.949 37.9999 79.9801 38.0244C84.3883 40.0918 83.579 43.9778 84.4213 46.5475C84.5063 46.8041 84.9328 46.8538 84.9932 46.5475C85.6204 43.3851 84.0468 37.7518 80.0766 37.6653Z" fill="#38A1FF"/>
<path d="M84.3477 55.511C85.6846 53.8004 85.6348 51.2804 85.1555 49.2704C85.0636 48.8875 84.5284 49.0683 84.5797 49.4304C84.8722 51.4979 84.1899 53.197 83.7535 55.1656C83.6846 55.4788 84.1149 55.8081 84.3477 55.511Z" fill="#38A1FF"/>
<path d="M74.9897 36.0512C75.0603 36.0296 75.1222 35.986 75.1662 35.9266C75.2102 35.8673 75.2339 35.7954 75.2339 35.7215C75.2339 35.6476 75.2102 35.5757 75.1662 35.5164C75.1222 35.457 75.0603 35.4134 74.9897 35.3919C73.6994 35.0366 68.0829 35.1285 66.6434 35.1315C66.5044 35.1327 66.3715 35.1885 66.2733 35.2867C66.175 35.385 66.1193 35.5179 66.1181 35.6568C66.0979 38.1315 66.2072 40.6056 66.4458 43.0689C66.4514 43.1226 66.4766 43.1724 66.5167 43.2086C66.5568 43.2448 66.6089 43.2648 66.6629 43.2648C66.7169 43.2648 66.769 43.2448 66.8091 43.2086C66.8492 43.1724 66.8744 43.1226 66.88 43.0689C67.1051 40.7718 67.1648 38.4892 67.1687 36.1882C68.4321 36.1875 73.6887 36.362 74.9897 36.0512Z" fill="#38A1FF"/>
<path d="M91.5172 42.1033C91.6239 39.9754 91.6058 37.8431 91.4629 35.7173C91.4605 35.5782 91.4041 35.4454 91.3057 35.3471C91.2072 35.2488 91.0744 35.1926 90.9353 35.1905C88.4457 35.2125 85.9592 35.3722 83.4872 35.669C83.4208 35.669 83.3571 35.6954 83.3102 35.7424C83.2632 35.7893 83.2368 35.853 83.2368 35.9194C83.2368 35.9858 83.2632 36.0495 83.3102 36.0965C83.3571 36.1434 83.4208 36.1698 83.4872 36.1698C85.8043 36.323 88.1075 36.3077 90.4261 36.2548C90.4256 38.2421 90.5607 40.2271 90.8304 42.196C90.9001 42.6102 91.4836 42.4663 91.5172 42.1033Z" fill="#38A1FF"/>
<path d="M83.5395 61.5172C85.8229 61.7194 88.1177 61.6451 90.4088 61.6183C90.5478 61.6175 90.681 61.5619 90.7793 61.4636C90.8776 61.3652 90.9332 61.2321 90.934 61.093C90.9999 59.0733 90.8596 57.052 90.5152 55.0607C90.4547 54.782 89.9738 54.7613 89.9279 55.0607C89.7297 56.8922 89.7087 58.7384 89.8651 60.5739C87.754 60.5961 85.6407 60.606 83.5418 60.838C83.4545 60.8419 83.3721 60.8792 83.3115 60.9422C83.251 61.0053 83.2171 61.0892 83.2168 61.1765C83.2165 61.2639 83.2499 61.3481 83.31 61.4115C83.3701 61.4749 83.4523 61.5128 83.5395 61.5172Z" fill="#38A1FF"/>
<path d="M67.4431 59.9476C67.2134 58.0118 67.1032 56.0662 66.9477 54.1235C66.9424 54.0498 66.9093 53.9809 66.8552 53.9305C66.8011 53.8802 66.7299 53.8522 66.656 53.8522C66.5821 53.8522 66.5109 53.8802 66.4568 53.9305C66.4026 53.9809 66.3696 54.0498 66.3642 54.1235C66.2075 56.239 66.2454 58.3643 66.4776 60.4728C66.4832 60.6074 66.5393 60.7348 66.6346 60.8299C66.73 60.9249 66.8576 60.9806 66.9921 60.9859C67.7683 61.1249 68.5684 61.0283 69.2893 60.7087C69.3505 60.6705 69.3994 60.6155 69.4302 60.5503C69.461 60.4851 69.4724 60.4124 69.463 60.3409C69.4537 60.2694 69.4239 60.2021 69.3774 60.147C69.3308 60.0919 69.2694 60.0514 69.2004 60.0303C68.6235 59.9043 68.0294 59.8763 67.4431 59.9476Z" fill="#38A1FF"/>
<path d="M79.9357 115.938C75.3092 115.091 69.8122 115.504 65.5824 117.821C68.9033 112.614 71.9064 107.178 74.8475 101.755C77.8751 96.1757 80.9824 90.537 83.2436 84.6027C84.1762 82.1525 85.6885 78.8852 84.5453 76.2817C83.5843 74.0872 81.0406 73.738 79.0765 74.7802C77.1737 75.7909 75.7924 77.7726 74.5588 79.4939C71.9314 83.3371 69.5198 87.3234 67.3351 91.4345C66.4782 88.7077 62.9652 87.2429 60.8702 89.2246C59.8318 86.5362 56.7269 84.8332 54.1893 86.4144C53.9772 85.0572 53.3117 83.8118 52.301 82.8814C50.9641 81.8056 49.1149 81.9067 47.5797 82.4549C44.7358 83.4718 40.578 87.014 38.4608 89.122C33.1105 94.4346 29.2332 101.047 27.2094 108.31C26.2308 111.896 25.7001 115.916 26.7729 119.53C25.805 120.744 24.9271 122.027 24.1465 123.369C23.1363 122.904 22.1153 122.468 21.0836 122.061C16.7382 128.007 12.4839 134.022 8.47386 140.199C6.617 143.058 4.52813 146.286 8.56651 148.413C12.3645 150.413 47.0934 150.048 48.5965 147.985C48.8772 147.596 49.0619 147.146 49.1357 146.673C49.2094 146.199 49.17 145.714 49.0207 145.259C48.6095 143.976 45.0451 139.419 44.0957 138.33C44.8956 137.343 45.5738 136.263 46.1156 135.114C46.2213 134.849 45.8675 134.613 45.6447 134.752C44.5857 135.415 43.3805 137.58 43.3805 137.58C43.3805 137.58 31.93 127.078 24.7912 123.673C25.6398 122.721 26.4309 121.718 27.1604 120.672C27.2982 121.009 27.449 121.342 27.6198 121.667C27.6646 121.74 27.7341 121.795 27.8158 121.822C27.8976 121.848 27.986 121.844 28.0652 121.811C28.1444 121.778 28.209 121.717 28.2474 121.64C28.2858 121.564 28.2954 121.476 28.2745 121.392C25.9314 114.522 28.0448 107.109 31.2202 100.847C34.2159 94.9199 38.5546 89.7739 43.8904 85.8195C45.4785 84.6456 47.2841 83.2972 49.3125 83.1004C51.7367 82.8653 53.1854 85.1487 53.2398 87.3884C53.2431 87.4915 53.276 87.5915 53.3347 87.6763C53.3933 87.7612 53.4752 87.8273 53.5706 87.8667C53.6659 87.9062 53.7705 87.9173 53.872 87.8987C53.9735 87.8802 54.0674 87.8327 54.1426 87.7621C56.1373 85.8692 59.5087 86.9389 60.1305 90.4857C60.1611 90.5835 60.219 90.6705 60.2975 90.7363C60.376 90.8021 60.4717 90.8441 60.5733 90.8572C60.6749 90.8704 60.7781 90.8541 60.8708 90.8104C60.9634 90.7667 61.0416 90.6973 61.096 90.6105C61.4175 90.0665 61.9246 89.6568 62.524 89.4568C63.1235 89.2567 63.775 89.2798 64.3587 89.5217C66.2416 90.2874 66.4484 92.3441 66.7325 92.5922C65.7851 94.4254 64.9388 96.3091 64.1972 98.2348C64.0777 98.5479 64.5877 98.76 64.7385 98.4645C66.9476 94.1252 75.2572 78.1217 79.4678 75.7664C80.7826 75.0306 82.5958 74.9578 83.4495 76.4104C84.2405 77.758 83.8324 79.3921 83.4235 80.7941C80.4372 91.0455 69.9691 108.174 64.0463 118.349C63.9368 118.537 63.8166 119.566 65.1329 118.897C69.2563 116.795 78.9226 115.431 83.1547 118.2C84.1647 118.861 85.154 120.528 83.6073 120.826C81.1409 121.302 72.4278 123.594 68.3795 125.028C64.4246 126.429 60.9574 128.519 57.3333 130.585C53.3554 132.854 48.268 134.831 43.9517 132.238C43.8309 132.167 43.6867 132.147 43.551 132.182C43.4153 132.217 43.2992 132.305 43.2281 132.425C43.157 132.546 43.1369 132.69 43.172 132.826C43.2072 132.962 43.2949 133.078 43.4157 133.149C47.2879 135.47 51.9756 134.481 55.8057 132.599C58.0163 131.513 60.0026 130.022 62.2132 128.941C72.9439 123.698 79.6164 123.433 83.4074 122.056C84.9488 121.496 86.1242 120.111 85.0499 118.515C83.9756 116.918 81.7129 116.264 79.9357 115.938Z" fill="#191919"/>
<path d="M103.363 39.7013C104.62 44.6019 103.823 49.3539 106.222 53.9842C107.763 56.9613 110.168 59.4384 110.984 62.7738C111.699 66.0809 111.213 69.5344 109.616 72.5168C109.566 72.6014 109.552 72.7023 109.577 72.7973C109.602 72.8922 109.663 72.9733 109.748 73.0229C109.833 73.0724 109.934 73.0863 110.029 73.0615C110.123 73.0366 110.205 72.9751 110.254 72.8904C110.568 72.4549 110.848 71.9956 111.09 71.5167C111.626 72.1837 114.661 75.0497 115.535 75.8989C115.787 76.1432 116.143 75.7756 115.918 75.5161C115.117 74.5849 112.282 71.1668 111.518 70.5672C112.34 68.4037 112.59 66.0652 112.245 63.7769C111.709 60.178 109.538 57.5156 107.722 54.4941C103.904 48.1387 106.524 39.454 102.007 34.6767C101.625 34.2739 100.909 34.8046 101.229 35.2824C102.195 36.6185 102.917 38.1143 103.363 39.7013Z" fill="#191919"/>
<path d="M101.357 92.7323C101.828 93.0386 102.413 92.3066 101.964 91.9452C100.821 91.034 99.6217 90.1971 98.3719 89.4398C99.3426 89.1653 100.227 88.6465 100.939 87.9328C101.195 87.6174 100.966 87.0691 100.513 87.2039C99.3643 87.5446 98.3635 88.3417 97.1958 88.7146C95.342 89.275 93.3951 89.4607 91.4688 89.2608C89.5424 89.061 87.6751 88.4797 85.9758 87.5507C85.7744 87.4435 85.5011 87.7345 85.7093 87.8984C87.8781 89.5504 90.5386 90.4268 93.2646 90.387C94.6868 90.2773 96.0984 90.0579 97.4868 89.7307C97.4868 89.7307 99.9868 91.8479 101.357 92.7323Z" fill="#191919"/>
<path d="M144.678 95.76C141.373 89.7966 136.494 84.3853 131.584 79.7075C130.84 78.9993 123.908 71.846 123.554 72.1522C114.105 80.3271 105.856 89.794 99.0509 100.273C97.4161 102.792 97.5731 103.864 99.2852 106.011C104.208 112.181 109.606 117.958 115.428 123.289C119.544 127.059 125.697 133.365 131.725 132.764C135.618 132.376 139.062 129.817 141.266 126.586C143.452 123.384 144.68 119.527 145.563 115.737C147.026 109.472 147.92 101.612 144.678 95.76ZM112.253 106.985C111.209 107.201 107.659 106.999 107.164 103.86C107.082 103.058 107.257 102.251 107.665 101.555C108.072 100.86 108.691 100.313 109.431 99.9928C110.943 99.2846 112.46 99.7195 113.796 100.779C114.985 101.733 116.666 106.073 112.253 106.985Z" fill="#191919"/>
</svg>
