<svg width="154" height="154" viewBox="0 0 154 154" fill="none" xmlns="http://www.w3.org/2000/svg">
<path d="M101.239 69.4789C101.115 63.4612 101.316 57.4429 101.227 51.4252C101.038 38.321 100.851 25.2158 100.667 12.1096C100.634 9.65475 100.385 6.79027 98.3244 5.45718C97.0756 4.6486 95.486 4.65243 93.999 4.69148C84.4806 4.9411 74.9882 4.52762 65.4813 5.06131C61.8059 5.26729 58.9031 6.42273 58.7684 10.4909C58.4958 18.7107 58.9292 71.9337 59.1512 76.3939C59.2278 77.9958 58.7102 84.5869 60.1612 86.1413C61.0517 87.0946 70.7485 86.4904 71.3465 86.2822C72.3787 85.9231 75.3465 79.3978 78.3098 76.4506C75.6092 76.5938 65.2477 77.3694 64.6804 76.0463C64.113 74.7232 63.9851 17.883 63.6849 13.7819C74.346 13.9687 85.0076 13.8784 95.6698 13.5108C96.1468 34.2307 95.3175 51.1687 95.7019 64.5378C95.7785 67.2767 96.6001 72.2997 95.009 74.6948C94.1391 76.0042 92.4056 75.92 90.8497 75.9069C89.6154 75.8993 84.1666 76.3235 83.904 76.2622C84.6697 76.4406 84.914 77.4001 84.8994 78.1818C84.8611 80.7676 83.6391 83.1642 82.5839 85.5249C81.9821 86.8718 82.9071 86.7776 83.9576 86.7715C85.0082 86.7653 92.78 86.6359 95.6016 86.3427C97.9332 86.1007 99.754 86.4376 100.569 84.0241C102.013 79.7569 101.331 73.9498 101.239 69.4789Z" fill="#38A1FF"/>
<path d="M79.7495 44.7123C79.3764 44.4883 78.9323 44.4135 78.5064 44.5029C78.0804 44.5924 77.7039 44.8395 77.4524 45.1947C75.8223 47.1725 76.3896 50.3869 76.7472 52.6695C76.7939 52.9666 77.2725 52.8915 77.2664 52.599C77.1626 50.9864 77.25 49.3672 77.5267 47.7751C77.6668 47.1473 77.833 46.135 78.3797 45.7185C80.5045 44.1036 80.3307 52.8395 79.4647 52.2782C79.359 52.2093 79.395 48.0669 79.4019 47.1649C79.3983 47.0497 79.354 46.9396 79.2769 46.8541C79.1998 46.7685 79.0949 46.713 78.9808 46.6975C78.8666 46.682 78.7507 46.7075 78.6536 46.7693C78.5564 46.8312 78.4843 46.9255 78.4501 47.0355C78.1454 48.5331 78.0983 50.0718 78.3108 51.5853C78.392 52.3586 78.4969 53.5148 79.5091 53.5508C80.6577 53.5914 80.8744 52.2882 80.9976 51.4214C81.1816 50.1175 81.172 48.7937 80.9693 47.4926C80.8261 46.5508 80.6263 45.2958 79.7495 44.7123Z" fill="#38A1FF"/>
<path d="M83.0885 55.5377C84.5281 53.3072 84.4247 48.5921 84.0296 45.9925C83.6238 43.3195 81.7256 39.7421 78.4744 40.2498C73.0464 41.092 71.9752 51.5936 75.5648 55.6572C75.6077 55.7001 75.6635 55.7276 75.7237 55.7354C75.7839 55.7432 75.8449 55.7309 75.8973 55.7004C75.9498 55.6699 75.9907 55.6229 76.0136 55.5668C76.0365 55.5106 76.0403 55.4484 76.0242 55.3899C75.675 54.1388 75.0785 53.0163 74.8121 51.7261C74.0341 47.9672 74.8243 42.262 78.3802 41.3424C81.5778 40.5155 82.9262 44.8953 83.123 47.2069C83.4696 49.8944 83.1491 52.626 82.1896 55.1602C81.966 55.6985 82.7976 55.9887 83.0885 55.5377Z" fill="#38A1FF"/>
<path d="M73.1606 56.1235C73.2961 56.4075 73.6966 56.2 73.6391 55.9221C72.4722 50.1196 73.3168 49.873 73.1139 47.4596C73.0871 47.1364 72.5939 46.9098 72.4293 47.2735C71.9274 48.7154 71.7842 50.2578 72.012 51.7674C72.126 53.2773 72.5153 54.7536 73.1606 56.1235Z" fill="#38A1FF"/>
<path d="M74.3459 40.341C73.4071 41.5857 72.8153 43.0571 72.6307 44.6051C72.5886 44.929 73.035 45.0799 73.1353 44.7445C73.7291 42.7365 74.9008 40.9478 76.5044 39.6013C77.0686 39.2303 77.5981 38.809 78.0863 38.3425C78.2556 38.1419 78.1629 37.7406 77.852 37.7774C76.4531 37.9405 75.1644 39.2759 74.3459 40.341Z" fill="#38A1FF"/>
<path d="M80.4941 38.0844C80.4549 38.0899 80.4181 38.1069 80.3885 38.1331C80.3588 38.1594 80.3375 38.1938 80.3272 38.232C80.317 38.2703 80.3181 38.3107 80.3307 38.3483C80.3432 38.3859 80.3664 38.419 80.3976 38.4435C84.8057 40.5109 83.9964 44.3968 84.8387 46.9665C84.9236 47.223 85.3501 47.2727 85.4106 46.9665C86.0377 43.8041 84.4642 38.1709 80.4941 38.0844Z" fill="#38A1FF"/>
<path d="M84.7656 55.9297C86.1025 54.2192 86.0528 51.6992 85.5734 49.6893C85.4816 49.3064 84.9463 49.4871 84.9976 49.8493C85.2901 51.9167 84.6079 53.6158 84.1714 55.5844C84.1025 55.8976 84.5329 56.2268 84.7656 55.9297Z" fill="#38A1FF"/>
<path d="M75.4079 36.4703C75.4786 36.4488 75.5405 36.4052 75.5845 36.3458C75.6284 36.2865 75.6522 36.2146 75.6522 36.1407C75.6522 36.0668 75.6284 35.9949 75.5845 35.9356C75.5405 35.8762 75.4786 35.8326 75.4079 35.8111C74.1177 35.4558 68.5013 35.5477 67.0618 35.5507C66.9229 35.5519 66.79 35.6076 66.6917 35.7059C66.5935 35.8041 66.5377 35.9371 66.5365 36.076C66.5163 38.5507 66.6257 41.0247 66.8643 43.488C66.8698 43.5417 66.8951 43.5914 66.9352 43.6276C66.9753 43.6638 67.0273 43.6838 67.0813 43.6838C67.1354 43.6838 67.1874 43.6638 67.2275 43.6276C67.2676 43.5914 67.2929 43.5417 67.2984 43.488C67.5235 41.1909 67.5833 38.9083 67.5871 36.6074C68.8505 36.6066 74.107 36.7812 75.4079 36.4703Z" fill="#38A1FF"/>
<path d="M91.9346 42.5224C92.0412 40.3945 92.0231 38.2622 91.8802 36.1364C91.8778 35.9973 91.8215 35.8646 91.723 35.7663C91.6246 35.668 91.4918 35.6118 91.3526 35.6096C88.8631 35.6316 86.3766 35.7914 83.9047 36.0882C83.8383 36.0882 83.7746 36.1146 83.7276 36.1615C83.6807 36.2085 83.6543 36.2722 83.6543 36.3386C83.6543 36.405 83.6807 36.4687 83.7276 36.5156C83.7746 36.5626 83.8383 36.5889 83.9047 36.5889C86.2217 36.7421 88.5249 36.7268 90.8435 36.6739C90.843 38.6612 90.9781 40.6461 91.2477 42.615C91.3174 43.0293 91.9009 42.8853 91.9346 42.5224Z" fill="#38A1FF"/>
<path d="M83.957 61.9359C86.2403 62.1381 88.5351 62.0638 90.8261 62.037C90.9652 62.0362 91.0983 61.9806 91.1966 61.8823C91.295 61.7839 91.3506 61.6508 91.3514 61.5117C91.4173 59.492 91.2769 57.4708 90.9325 55.4796C90.872 55.2008 90.3912 55.1802 90.3452 55.4796C90.1471 57.3109 90.126 59.1572 90.2825 60.9926C88.1714 61.0148 86.0581 61.0248 83.9593 61.2568C83.872 61.2606 83.7895 61.2979 83.729 61.3609C83.6685 61.424 83.6346 61.5079 83.6343 61.5953C83.634 61.6826 83.6673 61.7668 83.7274 61.8302C83.7875 61.8936 83.8697 61.9315 83.957 61.9359Z" fill="#38A1FF"/>
<path d="M67.8611 60.3663C67.6314 58.4306 67.5211 56.4849 67.3657 54.5423C67.3603 54.4686 67.3273 54.3997 67.2731 54.3493C67.219 54.299 67.1479 54.271 67.0739 54.271C67 54.271 66.9289 54.299 66.8747 54.3493C66.8206 54.3997 66.7876 54.4686 66.7822 54.5423C66.6254 56.6577 66.6634 58.7831 66.8955 60.8915C66.9012 61.026 66.9573 61.1535 67.0526 61.2485C67.1479 61.3436 67.2756 61.3993 67.4101 61.4045C68.1863 61.5435 68.9863 61.447 69.7072 61.1274C69.7684 61.0892 69.8173 61.0342 69.8481 60.969C69.8789 60.9038 69.8903 60.8311 69.8809 60.7596C69.8716 60.6881 69.8418 60.6208 69.7953 60.5657C69.7487 60.5106 69.6873 60.4701 69.6184 60.449C69.0414 60.323 68.4473 60.295 67.8611 60.3663Z" fill="#38A1FF"/>
<path d="M80.3532 116.356C75.7269 115.509 70.2299 115.922 66.0002 118.239C69.321 113.032 72.3241 107.595 75.2652 102.173C78.2927 96.5939 81.4 90.9552 83.6611 85.0211C84.5937 82.5708 86.1059 79.3036 84.9628 76.7002C84.0018 74.5057 81.4582 74.1566 79.4941 75.1987C77.5914 76.2094 76.21 78.191 74.9765 79.9123C72.3492 83.7555 69.9376 87.7417 67.7529 91.8526C66.8961 89.126 63.383 87.6612 61.2881 89.6428C60.2498 86.9545 57.1449 85.2515 54.6073 86.8327C54.3953 85.4755 53.7297 84.2302 52.7191 83.2998C51.3822 82.224 49.5331 82.325 47.9978 82.8733C45.154 83.8901 40.9963 87.4323 38.8791 89.5402C33.5289 94.8528 29.6517 101.465 27.6279 108.728C26.6493 112.314 26.1187 116.334 27.1915 119.948C26.2235 121.161 25.3457 122.444 24.5651 123.786C23.5549 123.322 22.534 122.886 21.5023 122.479C17.157 128.425 12.9027 134.439 8.89276 140.616C7.03594 143.475 4.94711 146.703 8.98541 148.83C12.7833 150.83 47.5116 150.465 49.0147 148.402C49.2953 148.013 49.4801 147.564 49.5538 147.09C49.6275 146.616 49.5881 146.132 49.4389 145.676C49.0277 144.393 45.4634 139.836 44.5139 138.747C45.3138 137.76 45.992 136.68 46.5338 135.531C46.6395 135.266 46.2857 135.03 46.0629 135.17C45.0039 135.832 43.7987 137.998 43.7987 137.998C43.7987 137.998 32.3484 127.495 25.2098 124.091C26.0584 123.138 26.8495 122.136 27.5789 121.089C27.7167 121.427 27.8676 121.76 28.0383 122.085C28.0831 122.158 28.1527 122.213 28.2344 122.239C28.3161 122.266 28.4046 122.262 28.4838 122.229C28.5629 122.195 28.6276 122.135 28.666 122.058C28.7044 121.981 28.7139 121.893 28.693 121.81C26.35 114.94 28.4633 107.527 31.6386 101.265C34.6343 95.338 38.9729 90.1922 44.3087 86.2378C45.8967 85.0639 47.7023 83.7156 49.7306 83.5188C52.1548 83.2837 53.6035 85.567 53.6579 87.8067C53.6611 87.9098 53.6941 88.0098 53.7527 88.0946C53.8114 88.1794 53.8933 88.2455 53.9886 88.285C54.0839 88.3244 54.1886 88.3356 54.2901 88.317C54.3915 88.2984 54.4855 88.251 54.5606 88.1803C56.5553 86.2875 59.9267 87.3572 60.5484 90.9039C60.579 91.0017 60.637 91.0887 60.7155 91.1545C60.7939 91.2203 60.8896 91.2623 60.9912 91.2754C61.0928 91.2886 61.1961 91.2723 61.2887 91.2286C61.3813 91.1849 61.4595 91.1155 61.514 91.0288C61.8355 90.4847 62.3425 90.075 62.9419 89.875C63.5414 89.675 64.1928 89.698 64.7766 89.9399C66.6595 90.7056 66.8662 92.7623 67.1503 93.0104C66.203 94.8436 65.3566 96.7272 64.615 98.6528C64.4956 98.966 65.0056 99.1781 65.1564 98.8825C67.3654 94.5433 75.6748 78.5402 79.8854 76.1849C81.2001 75.4491 83.0133 75.3763 83.867 76.8288C84.658 78.1765 84.2499 79.8105 83.841 81.2125C80.8548 91.4637 70.3869 108.592 64.4642 118.767C64.3547 118.955 64.2345 119.984 65.5507 119.314C69.674 117.213 79.3402 115.849 83.5722 118.618C84.5822 119.278 85.5715 120.945 84.0248 121.243C81.5585 121.72 72.8456 124.012 68.7973 125.445C64.8425 126.847 61.3754 128.936 57.7513 131.003C53.7735 133.272 48.6862 135.249 44.3699 132.655C44.2491 132.584 44.105 132.564 43.9693 132.599C43.8336 132.634 43.7174 132.722 43.6464 132.843C43.5753 132.964 43.5551 133.108 43.5903 133.244C43.6255 133.379 43.7131 133.495 43.834 133.566C47.7061 135.887 52.3937 134.899 56.2237 133.017C58.4343 131.931 60.4205 130.439 62.6311 129.358C73.3616 124.115 80.034 123.85 83.8249 122.474C85.3663 121.914 86.5416 120.529 85.4674 118.932C84.3931 117.336 82.1304 116.682 80.3532 116.356Z" fill="#191919"/>
<path d="M103.781 40.1204C105.037 45.0208 104.24 49.7728 106.639 54.403C108.181 57.38 110.585 59.857 111.401 63.1924C112.116 66.4995 111.631 69.9529 110.033 72.9352C109.983 73.0199 109.969 73.1208 109.994 73.2157C110.019 73.3106 110.081 73.3918 110.165 73.4413C110.25 73.4909 110.351 73.5048 110.446 73.4799C110.541 73.4551 110.622 73.3936 110.671 73.3089C110.985 72.8734 111.265 72.4141 111.508 71.9352C112.044 72.6021 115.078 75.4681 115.953 76.3173C116.204 76.5616 116.56 76.194 116.335 75.9344C115.534 75.0034 112.699 71.5853 111.936 70.9857C112.757 68.8223 113.007 66.4838 112.662 64.1955C112.126 60.5967 109.956 57.9344 108.139 54.9129C104.322 48.5576 106.941 39.873 102.425 35.0958C102.042 34.6931 101.326 35.2237 101.647 35.7015C102.612 37.0376 103.335 38.5334 103.781 40.1204Z" fill="#191919"/>
<path d="M101.775 93.1505C102.245 93.4568 102.831 92.7247 102.381 92.3633C101.239 91.4522 100.039 90.6153 98.7892 89.858C99.7598 89.5835 100.644 89.0647 101.357 88.3511C101.612 88.0356 101.383 87.4874 100.93 87.6221C99.7815 87.9629 98.7808 88.76 97.6131 89.1329C95.7593 89.6932 93.8124 89.8789 91.8861 89.679C89.9598 89.4792 88.0926 88.8979 86.3933 87.969C86.1919 87.8618 85.9185 88.1528 86.1268 88.3166C88.2955 89.9686 90.956 90.8449 93.682 90.8051C95.1041 90.6955 96.5157 90.4761 97.904 90.1489C97.904 90.1489 100.404 92.2661 101.775 93.1505Z" fill="#191919"/>
<path d="M145.094 96.178C141.789 90.2147 136.91 84.8035 132.001 80.1259C131.257 79.4176 124.325 72.2644 123.971 72.5707C114.522 80.7454 106.273 90.2121 99.4684 100.691C97.8336 103.209 97.9906 104.282 99.7027 106.428C104.626 112.599 110.023 118.376 115.845 123.706C119.961 127.476 126.114 133.782 132.142 133.181C136.034 132.793 139.479 130.234 141.683 127.004C143.868 123.801 145.096 119.945 145.98 116.155C147.443 109.889 148.337 102.029 145.094 96.178ZM112.671 107.403C111.626 107.618 108.076 107.417 107.582 104.278C107.499 103.476 107.675 102.669 108.082 101.973C108.49 101.278 109.108 100.731 109.848 100.411C111.36 99.7025 112.877 100.137 114.213 101.197C115.402 102.15 117.083 106.49 112.671 107.403Z" fill="#191919"/>
</svg>
