<svg width="155" height="155" viewBox="0 0 155 155" fill="none" xmlns="http://www.w3.org/2000/svg">
<path d="M74.6399 115.719C74.5087 113.017 71.9332 113.614 70.3545 111.961C69.5284 111.058 68.9263 110.908 69.1525 104.668C61.2587 106.773 45.4719 105.871 45.4719 105.871C45.4719 105.871 46.7504 113.389 47.2012 116.546C47.6521 119.704 47.7162 121.272 54.2674 121.733C61.9257 122.271 75.0089 123.321 74.6399 115.719Z" fill="#3D9CFB"/>
<path d="M96.5164 85.6487C97.117 85.1979 96.9672 83.7689 95.8393 84.2954C94.7114 84.8219 90.7271 86.4007 91.0282 87.754C91.3285 88.8062 95.9142 86.1752 96.5164 85.6487Z" fill="#3D9CFB"/>
<path d="M80.5033 116.546C88.3971 116.546 96.6661 112.186 86.6678 106.773C85.3901 105.646 85.6904 103.315 85.465 98.6542C82.834 101.433 73.5877 100.834 73.5877 100.834C73.2109 117.749 76.895 107.372 80.5033 116.546Z" fill="#3D9CFB"/>
<path d="M90.4266 79.1842C87.493 80.1616 87.4196 81.2138 88.021 81.4393C88.6224 81.6647 90.5015 80.8379 91.1777 80.4619C91.8548 80.1616 92.5311 78.4323 90.4266 79.1842Z" fill="#3D9CFB"/>
<path d="M29.0838 89.257C33.1438 93.0159 39.7584 95.7218 48.479 91.0612C45.3971 89.7835 44.2692 88.881 41.7887 87.5277C54.794 89.1065 63.0629 85.0472 67.1222 81.2135C63.8898 77.8305 62.311 69.5616 67.2727 65.2761C73.1361 60.1639 74.7149 62.1943 74.7149 62.1943L76.3685 61.9689C76.3685 61.9689 75.4668 58.2848 73.5121 57.0821C69.3023 64.4478 49.0803 60.2396 45.6225 56.0329C43.217 59.0399 38.7818 58.9665 36.976 60.2427C28.484 66.4071 28.484 75.0521 29.6096 77.8336C24.6517 80.6121 27.3537 87.6782 29.0838 89.257Z" fill="#3D9CFB"/>
<path d="M13.6731 116.621C13.3728 117.448 15.0265 118.651 18.4094 118.801C22.0178 119.027 24.2767 115.945 23.1449 115.343C22.0927 114.817 21.0404 117.297 18.4094 117.297C16.2293 117.297 13.8986 115.869 13.6731 116.621Z" fill="#3D9CFB"/>
<path d="M35.6242 101.813C35.3232 101.061 32.7902 102.164 30.4371 103.166C29.4914 103.568 29.9245 105.116 31.4894 104.594C34.6469 103.54 35.6991 103.465 35.6242 101.813Z" fill="#3D9CFB"/>
<path d="M34.1203 36.8606C34.1975 36.8335 65.0006 21.1487 75.3162 28.817C81.4058 25.4341 70.2796 15.5107 64.1908 16.3375C54.4928 3.2574 35.1733 11.6769 35.0977 26.0355C31.0385 32.5003 34.1203 36.8606 34.1203 36.8606Z" fill="#3D9CFB"/>
<path d="M16.2292 101.961C15.5537 102.049 15.1769 102.789 16.3836 103.465C18.4132 104.593 22.9233 105.871 22.9233 111.659C22.9233 112.035 23.2992 112.486 23.6752 112.336C25.4045 111.659 24.502 108.201 22.5481 105.57C20.8149 103.24 18.2634 101.697 16.2292 101.961Z" fill="#3D9CFB"/>
<path d="M38.8568 109.705C38.1805 109.782 32.016 111.434 32.5418 112.862C33.0675 114.29 36.6018 111.81 40.285 110.757C41.1875 110.532 40.4356 109.479 38.8568 109.705Z" fill="#3D9CFB"/>
<path d="M11.6434 106.547C9.61382 107.524 9.6887 111.133 10.2901 113.012C10.7417 114.29 12.3197 114.741 11.8688 113.012C11.042 109.93 11.3423 107.073 14.049 107.524C14.1425 107.561 14.2431 107.575 14.3431 107.567C14.4432 107.56 14.5402 107.529 14.6269 107.479C14.7136 107.428 14.7878 107.359 14.844 107.276C14.9002 107.193 14.9369 107.098 14.9515 106.998C15.1012 105.42 12.6208 106.172 11.6434 106.547Z" fill="#3D9CFB"/>
<path d="M137.711 98.579C137.26 97.9776 132.076 29.5963 130.57 21.4493C130.546 21.349 130.498 21.2561 130.43 21.1786C130.362 21.101 130.276 21.0412 130.18 21.0042C130.084 20.9671 129.98 20.9541 129.878 20.9661C129.776 20.9782 129.678 21.015 129.593 21.0733C124.105 25.7339 89.5257 64.4493 88.8479 64.5998C88.6225 65.6521 89.5998 65.9524 90.3518 65.1264C95.9102 59.3363 129.217 22.0483 129.442 23.028C129.818 23.6294 135.532 99.0298 136.583 99.2552C135.005 100.985 131.697 110.907 131.697 110.907C133.878 112.186 135.005 110.607 135.005 110.607C135.005 110.607 137.636 100.985 137.186 99.2583C137.342 99.2298 137.482 99.1447 137.579 99.0193C137.676 98.8939 137.723 98.7371 137.711 98.579Z" fill="#3D9CFB"/>
<path d="M16.7554 112.486C17.8825 113.163 19.0536 110.257 17.356 108.201C16.7438 107.459 15.3272 108.427 16.1532 109.028C17.732 110.382 16.1532 112.186 16.7554 112.486Z" fill="#3D9CFB"/>
<path d="M150.266 126.318C150.21 126.206 150.132 126.107 150.036 126.027C149.94 125.947 149.829 125.887 149.709 125.852C149.589 125.817 149.463 125.807 149.339 125.822C149.215 125.838 149.096 125.879 148.988 125.942C147.503 126.746 145.941 127.401 144.327 127.897C143.35 128.273 143.061 128.646 143.2 129.25C143.611 131.047 151.204 127.8 150.266 126.318Z" fill="#001434"/>
<path d="M51.7869 25.7344C51.336 23.8553 50.5084 20.6978 49.2308 21.2243C47.8774 21.8257 49.1536 25.0581 49.7573 26.3358C49.8451 26.5952 50.03 26.8106 50.2732 26.9366C50.5163 27.0626 50.7989 27.0896 51.0615 27.0117C51.3241 26.9339 51.5463 26.7574 51.6816 26.5193C51.8168 26.2811 51.8546 25.9998 51.7869 25.7344Z" fill="#001434"/>
<path d="M126.361 145.939C128.089 145.788 128.239 143.939 126.812 143.909C123.961 143.93 121.131 143.421 118.467 142.406C117.415 142.105 116.888 142.181 116.663 142.932C116.135 144.66 122.902 146.164 126.361 145.939Z" fill="#001434"/>
<path d="M17.131 124.214C25.0997 124.665 37.5035 117.523 43.668 115.567C44.4948 123.01 51.3364 122.56 61.1084 123.01C62.4618 123.088 75.1667 123.536 79.8273 120.68C81.105 119.928 81.3312 119.177 81.406 117.372C85.6907 117.222 95.611 116.546 96.366 114.064C97.0423 111.809 96.8169 107.9 94.5618 107.148C89.1493 105.194 89.8256 102.563 89.5245 97.8267C99.373 92.8651 100.275 90.0835 100.5 86.4782C100.876 80.164 98.1702 75.6531 93.0579 73.849C95.5384 69.5643 92.3817 63.4747 87.1189 63.7758C88.9239 61.8211 91.0283 59.6409 93.2834 57.3102C94.4113 61.0692 100.124 61.8234 100.049 57.8368C100.022 56.4085 98.0945 56.8594 98.1702 57.6824C98.3956 60.1628 93.9241 56.9103 94.9378 55.5771C95.0896 55.3729 95.3098 55.2303 95.5582 55.1751C95.8065 55.12 96.0664 55.1561 96.2903 55.2768C97.2677 55.5771 98.2451 53.8486 96.8169 53.6231C100.952 49.2628 105.463 44.5266 109.822 40.0165C110.949 43.3994 116.512 43.7754 116.137 39.9393C115.987 38.7365 114.408 39.4885 114.408 40.2404C114.331 41.4432 112.904 40.9167 112.152 40.086C111.1 39.1843 111.246 37.9244 112.306 38.132C113.58 38.3806 114.111 36.7031 113.284 36.4776C118.997 30.4637 124.109 25.0519 127.266 21.7439C127.717 22.5699 129.145 24.5231 130.2 23.3219C130.334 23.1206 130.385 22.8758 130.343 22.638C130.301 22.4001 130.169 22.1876 129.975 22.0442C129.223 21.5933 128.025 19.6795 129.599 19.9397C129.863 19.9721 130.118 20.0608 130.345 20.1998C130.573 20.3389 130.768 20.525 130.918 20.7458C131.067 20.9665 131.168 21.2167 131.213 21.4795C131.257 21.7424 131.245 22.0118 131.177 22.2696C130.897 23.1034 132.531 23.8484 132.906 22.0442C133.005 21.6435 133.021 21.2268 132.952 20.8198C132.882 20.4129 132.73 20.0246 132.505 19.679C132.279 19.3335 131.985 19.0381 131.64 18.8113C131.295 18.5845 130.907 18.4312 130.5 18.3609C132.756 16.0302 129.824 13.0233 127.869 14.9023C117.571 24.7508 92.086 48.656 80.3584 59.7066C79.3395 58.1775 78.1548 56.7656 76.8257 55.4968C80.4341 50.3853 80.6595 43.6944 79.7594 38.5072C80.4356 37.6055 81.7133 35.1251 80.6611 30.9145C84.7913 25.3584 77.1963 15.889 70.205 15.9615C62.3869 4.15909 32.6924 6.26435 31.0387 26.1103C27.9561 29.044 28.2595 36.1086 30.8133 39.341C28.4826 44.9767 19.3104 43.025 17.8081 53.7775C17.131 59.4132 19.9126 66.3319 25.3251 66.7836C23.2955 69.7172 22.3915 75.3528 24.4983 78.0595C19.0858 81.2919 21.3416 88.3581 22.4687 93.0943C17.8081 94.8236 11.6436 96.4773 9.01261 98.432C-1.21031 106.247 5.40425 124.439 17.131 124.214ZM128.84 16.3375C129.291 16.0372 130.419 16.1831 127.939 18.1417C127.722 17.9856 127.52 17.8096 127.337 17.6159C127.809 17.1566 128.312 16.7295 128.841 16.3375H128.84ZM24.0474 91.3619C30.8882 96.2488 42.1649 95.2714 50.5088 91.2122C56.7481 91.0578 62.6123 88.7309 66.5217 86.777C71.9335 87.9041 72.3851 96.7753 72.3118 102.413C66.9734 105.495 53.5173 106.247 44.1204 104.969C42.7663 98.2035 27.2768 105.646 24.0474 91.3619ZM73.9639 69.7874C74.4896 73.2453 79.1502 73.0947 80.8047 70.4637C80.7034 71.9527 81.1587 73.4262 82.0823 74.5986C82.085 75.3243 81.9312 76.0421 81.6315 76.7031C80.3512 76.4461 79.1119 76.0163 77.9474 75.4254C77.8354 75.3638 77.7115 75.3267 77.5841 75.3163C77.4566 75.3058 77.3284 75.3225 77.2078 75.365C77.0872 75.4076 76.9769 75.4751 76.8842 75.5632C76.7915 75.6513 76.7184 75.758 76.6698 75.8763C76.2938 77.079 78.775 78.0564 80.6541 78.4324C79.897 79.4517 78.954 80.3186 77.8749 80.9877C76.911 80.5885 75.9814 80.1108 75.0957 79.5595C74.3437 79.1843 73.5169 79.8606 74.1183 80.9128C74.5421 81.3823 75.0528 81.7653 75.6222 82.0407C64.9476 85.7996 62.5413 69.1853 68.7057 65.1268C72.4647 62.6456 75.2462 61.7431 76.3733 63.9233C77.1206 66.254 73.5879 67.3047 73.9639 69.7874ZM72.7611 84.3707C75.8519 84.288 78.8005 83.055 81.0301 80.9128C88.4722 84.0703 87.044 91.1365 87.5705 96.8502C84.9388 98.354 80.1284 99.4811 74.0388 99.8571C74.1893 94.2215 72.7611 87.4533 68.5506 85.6522C69.3533 85.2196 70.1314 84.7428 70.8813 84.224C71.5047 84.3071 72.1323 84.3561 72.7611 84.3707ZM78.924 119.029C77.0535 120.9 58.9028 122.167 50.2826 120.081C44.87 119.18 45.7725 115.796 45.0206 112.188C45.9223 112.79 55.7708 113.542 60.7317 113.015C63.2878 112.714 63.8143 111.06 61.4087 111.211C56.2216 111.436 49.8286 111.662 44.7951 110.234C44.7179 109.106 44.5689 107.903 44.4941 106.926C52.7638 107.903 65.9945 107.603 72.4593 104.445C71.8579 113.316 76.1078 112.837 78.3265 114.443C79.2861 115.139 79.7524 118.2 78.924 119.029ZM93.2062 108.655C94.7093 109.181 95.3107 111.589 94.5595 113.542C94.1828 114.518 88.6922 115.27 81.1783 115.571C80.2009 110.91 73.6605 112.714 74.4873 107.227C76.6326 107.086 78.7668 106.81 80.8772 106.4C82.6814 105.949 82.9068 104.445 80.6518 104.821C78.6009 105.248 76.5058 105.424 74.4124 105.347C74.3352 104.22 74.258 102.942 74.258 101.664C78.0169 101.438 83.8803 100.686 87.7898 98.8072C87.796 103.616 88.0963 106.848 93.2062 108.653V108.655ZM98.6187 86.4782C98.4643 89.0343 98.3176 91.2894 89.4473 95.8751C88.9964 90.1623 90.2741 83.5461 82.3803 79.412C83.0707 78.3873 83.5559 77.2385 83.8093 76.0291C86.14 77.3824 89.8232 77.3824 91.778 75.5026C97.8691 77.2296 98.919 82.341 98.621 86.4759L98.6187 86.4782ZM87.193 65.7298C94.2592 65.9552 93.085 76.2576 86.516 75.0518C80.4518 73.9362 82.0823 65.878 87.1946 65.7274L87.193 65.7298ZM125.983 18.8959L126.66 19.573C123.427 23.0308 117.338 29.4207 110.647 36.4869C110.027 36.0384 109.47 35.5073 108.994 34.9081C116.366 27.9145 122.526 22.0511 125.985 18.8936L125.983 18.8959ZM107.64 36.1117C108.113 36.7359 108.67 37.2923 109.294 37.7653C104.257 43.0281 98.9198 48.6661 94.1087 53.7027C93.1084 53.1015 92.2597 52.2785 91.6282 51.2971C97.1172 46.1825 102.605 40.9198 107.643 36.1086L107.64 36.1117ZM90.3498 52.6473C91.0065 53.6539 91.8795 54.5013 92.9051 55.1278C84.8615 62.5707 77.7197 73.7718 75.8437 69.5643C76.2197 67.7594 78.8546 66.7079 78.3998 64.0012C82.0823 60.4654 86.1423 56.6317 90.3498 52.6473ZM78.924 60.9163C78.5185 61.3383 78.0921 61.7397 77.6464 62.1191C75.1659 59.864 71.8563 60.9163 68.0241 63.3219C63.8143 63.5481 58.7021 65.5777 56.5984 66.555L54.0422 63.9233C53.2154 63.0216 51.8621 64.3741 52.6889 65.2017L54.8691 67.4591C50.2833 69.9395 48.6892 77.8812 50.9604 78.5852C51.483 78.7466 51.8621 78.1336 51.8621 77.6079C51.3364 69.8646 59.6802 66.5574 65.9952 65.2789C62.3869 69.9395 62.8377 80.4643 68.7011 83.3964C65.1684 85.5009 55.997 90.3877 47.051 89.1864C39.7586 88.3588 25.9265 75.5042 28.6332 66.335C31.3391 65.133 32.9178 62.6518 34.9482 60.9225C37.7274 58.6674 42.6158 59.2688 45.6227 57.0887C53.1398 62.3515 68.4742 64.9068 75.6175 56.8633C76.8745 58.0803 77.9842 59.4406 78.924 60.9163ZM74.038 55.7292C67.8735 62.4202 54.1164 60.4654 47.0502 55.8064C49.6812 52.2729 47.877 49.4165 46.973 46.1084C45.5479 40.9198 44.7241 35.884 58.0266 34.1539C60.3573 34.1539 62.7057 36.5764 63.5897 35.5829C64.5107 34.5468 62.0109 33.4027 60.8104 33.1016C62.9443 32.0456 64.8379 30.5616 66.3735 28.7421C67.7346 30.6612 69.5746 32.1903 71.7104 33.1773C70.1316 33.6282 69.4554 34.9815 70.5076 35.4323C71.1847 35.7326 73.5902 33.7787 76.5972 33.8536C76.949 34.7307 77.2256 35.6362 77.424 36.5602C68.5529 36.1086 67.3501 49.4898 78.1003 46.4072C77.7572 49.8635 76.3364 53.1245 74.0388 55.7292H74.038ZM77.1199 38.4362C75.8422 40.4658 75.1659 42.1195 73.8875 44.6007C73.662 45.0515 72.8352 44.901 72.5349 44.2996C71.1067 41.8222 73.6628 37.6874 77.1206 38.4393L77.1199 38.4362ZM78.9997 35.3544C77.7969 28.4379 73.7377 35.4316 68.1746 28.062C74.8648 28.2874 77.9467 30.4676 78.7743 31.0728C79.1716 32.4657 79.2492 33.9304 79.0012 35.3574L78.9997 35.3544ZM38.3304 15.5107C37.4287 17.3149 36.6018 19.6456 38.2532 19.1939C39.5308 18.8187 39.4884 16.3908 40.5838 14.3836C41.0756 13.4803 42.9454 12.6079 43.8162 12.2034C43.4426 13.857 41.7905 17.1242 43.668 17.0894C44.2694 17.0771 44.6454 16.488 44.7959 15.9615C45.2468 13.6316 45.6976 11.6769 46.3747 11.3766C48.7046 10.3236 49.4565 12.1277 50.3582 14.3836C50.6593 15.5863 52.7646 15.4358 52.4635 14.3064C51.9009 12.934 51.1958 11.6244 50.3598 10.3992C51.8636 10.2448 53.3667 10.2448 54.1187 10.6247C55.3971 11.1512 56.7497 13.5583 57.727 13.6316C59.7566 13.786 58.103 11.5264 56.9759 10.698C60.8954 11.2539 64.5454 13.0139 67.4211 15.7346C57.7988 14.5318 39.9068 18.9677 33.3671 24.2266C34.0356 20.8611 35.777 17.8029 38.3304 15.5107ZM31.4896 28.5159C35.6994 20.6229 65.7667 14.9093 73.5879 18.4428C76.9709 20.6229 81.7064 25.9606 79.378 29.2679C68.7011 22.8031 43.4426 27.2375 31.7907 37.5368C30.5879 35.132 30.3648 30.5463 31.4896 28.5159ZM24.6519 64.8257C21.0436 63.8484 19.0888 58.3602 19.6154 54.0755C20.5927 47.3097 26.0801 45.4291 29.7634 43.777C32.9966 42.0477 32.0192 38.4393 35.4762 36.5602C44.4972 31.3723 56.2996 28.6665 64.2721 28.2156C58.3269 35.5072 41.1876 30.6212 44.8708 45.5811C45.7733 48.8884 48.0283 53.1738 45.0252 55.1278C42.0916 57.5341 36.8311 56.7065 33.8242 59.4132C31.1136 61.7462 28.7837 65.878 24.6519 64.8257ZM23.2237 82.717C23.9 80.9128 25.1028 79.71 26.0029 79.4097C26.6667 79.8443 27.4063 80.1501 28.1831 80.3114C29.2353 80.3114 29.4608 78.7335 28.4834 78.5073C24.3493 77.5299 24.8002 72.193 26.3781 68.8101C27.0552 78.2818 37.5043 89.032 46.4503 90.9111C34.6471 94.8954 20.3634 92.6404 23.2206 82.717H23.2237ZM23.2237 94.8954C27.2829 103.388 36.0035 102.789 40.8147 103.992C42.6189 104.443 43.0697 110.682 43.3708 113.689C41.1906 114.592 34.0488 117.599 28.2603 119.779C33.6728 112.336 27.8843 97.677 18.1871 96.6247C19.4617 96.1731 21.1161 95.5725 23.2206 94.8954H23.2237ZM15.851 98.2784C29.758 97.677 34.1939 124.218 17.3541 122.41C3.2241 121.808 1.19449 98.957 15.851 98.2784Z" fill="#001434"/>
<path d="M27.4308 133.234C25.6266 133.759 22.4691 136.241 23.1454 136.992C23.973 138.045 26.228 135.639 27.8817 135.038C29.0088 134.663 29.1593 132.708 27.4308 133.234Z" fill="#001434"/>
<path d="M126.811 106.172C126.285 104.292 120.872 106.773 121.924 108.126C122.676 109.103 123.955 107.299 125.909 107.149C126.032 107.145 126.154 107.117 126.267 107.065C126.38 107.014 126.481 106.941 126.565 106.85C126.649 106.759 126.714 106.652 126.756 106.536C126.799 106.419 126.817 106.296 126.811 106.172Z" fill="#001434"/>
<path d="M139.967 130.077C139.952 129.956 139.913 129.84 139.851 129.735C139.789 129.63 139.705 129.54 139.606 129.469C139.507 129.398 139.394 129.349 139.275 129.324C139.156 129.299 139.033 129.3 138.914 129.325C132.825 130.378 125.834 129.55 121.548 127.897C119.82 127.221 119.5 128.987 120.948 129.701C126.739 132.559 140.256 132.551 139.967 130.077Z" fill="#001434"/>
<path d="M141.47 116.173C143.35 115.872 143.801 115.12 143.575 114.368C143.35 113.691 142.824 113.691 141.17 114.067C139.516 114.443 139.215 115.045 139.441 115.646C139.666 116.247 140.493 116.32 141.47 116.173Z" fill="#001434"/>
<path d="M86.8931 73.1714C90.7269 73.9226 91.2534 67.8338 87.4945 67.6832C84.1872 67.4586 83.2847 72.5685 86.8931 73.1714ZM86.0662 70.3922C86.6676 68.1379 89.6746 69.5661 88.3969 71.2947C87.5701 72.3423 85.8408 71.2152 86.0662 70.3876V70.3922Z" fill="#001434"/>
<path d="M67.1222 50.1658C61.5637 50.3155 60.2814 48.8124 59.68 49.8647C58.4023 52.0448 64.0403 52.5667 67.0473 52.0448C68.5504 51.8202 68.9264 50.1658 67.1222 50.1658Z" fill="#001434"/>
<path d="M47.2011 65.0512C44.6465 65.5777 38.8565 70.0129 36.7512 72.9449C35.6241 74.5229 37.5032 75.9519 38.8565 74.2226C40.8861 71.5916 42.6154 69.2609 47.8025 66.7805C48.0276 66.6975 48.2111 66.5295 48.3136 66.3126C48.4161 66.0957 48.4293 65.8472 48.3505 65.6207C48.2717 65.3941 48.1072 65.2075 47.8922 65.101C47.6773 64.9945 47.4291 64.9766 47.2011 65.0512Z" fill="#001434"/>
<path d="M61.6348 41.8221C60.9577 35.5827 54.418 35.2816 50.734 37.8377C48.4041 39.4914 46.7505 42.6489 49.4563 45.3548C50.5843 46.4827 52.9149 47.0092 55.0194 47.1597C58.5529 47.3867 62.0856 46.1067 61.6348 41.8221ZM53.6661 45.0545C52.4633 44.9001 51.3979 44.6136 50.8097 43.8517C48.3477 40.6617 53.6661 36.8604 57.425 38.5897C55.9803 40.6273 54.7223 42.791 53.6661 45.0545Z" fill="#001434"/>
<path d="M59.7548 25.5086C61.0332 25.1326 60.1308 22.575 59.3039 20.6226C58.7782 19.3441 58.0324 19.2777 57.6503 19.5703C56.5402 20.4195 58.0263 23.1787 58.4771 24.9072C58.5814 25.145 58.7683 25.3369 59.0032 25.4474C59.2381 25.558 59.5051 25.5797 59.7548 25.5086Z" fill="#001434"/>
<path d="M66.296 41.5194C65.6792 41.4532 65.0558 41.5502 64.4884 41.8009C63.9209 42.0516 63.4293 42.447 63.0628 42.9476C62.5942 43.6887 63.3639 44.4514 64.3405 43.9257C64.8943 43.6504 65.5087 43.5197 66.1265 43.5459C66.7444 43.5721 67.3455 43.7543 67.874 44.0755C68.0542 44.1572 68.2566 44.1759 68.4488 44.1285C68.6409 44.0812 68.8114 43.9705 68.933 43.8144C69.0545 43.6582 69.1199 43.4657 69.1187 43.2679C69.1175 43.07 69.0497 42.8783 68.9262 42.7237C68.6018 42.3437 68.1984 42.0391 67.7441 41.8311C67.2898 41.6231 66.7956 41.5167 66.296 41.5194Z" fill="#001434"/>
<path d="M67.7988 23.7793C67.5749 22.4267 65.6936 18.8222 64.5641 18.9689C62.7592 19.2692 65.2404 22.5016 65.9923 24.2309C66.5211 25.358 68.0243 24.9828 67.7988 23.7793Z" fill="#001434"/>
<path d="M74.3386 25.434C74.4965 25.4305 74.651 25.3875 74.7878 25.3087C74.9247 25.23 75.0397 25.1181 75.122 24.9834C75.2044 24.8487 75.2516 24.6954 75.2594 24.5377C75.2671 24.38 75.235 24.2228 75.1662 24.0807C73.2856 20.5071 72.0087 19.4201 71.1819 19.495C70.2794 19.5722 70.5805 20.7726 71.933 22.7274C72.3098 23.2539 73.4369 25.434 74.3386 25.434Z" fill="#001434"/>
<path d="M121.925 110.306C121.91 110.19 121.866 110.081 121.799 109.986C121.732 109.892 121.642 109.815 121.538 109.763C121.434 109.711 121.319 109.685 121.203 109.688C121.087 109.691 120.974 109.722 120.872 109.779C119.307 110.413 121.624 114.365 123.127 114.515C124.03 114.666 124.631 113.388 123.955 112.937C123.443 112.676 122.995 112.304 122.644 111.849C122.293 111.394 122.047 110.867 121.925 110.306Z" fill="#001434"/>
<path d="M44.5693 28.0652C44.0435 24.7579 44.5693 22.7275 43.1411 23.1035C41.8634 23.4046 42.4648 27.3133 42.6902 28.4412C42.7087 28.5703 42.7534 28.6943 42.8215 28.8056C42.8895 28.9169 42.9796 29.0131 43.0861 29.0884C43.1926 29.1638 43.3134 29.2166 43.441 29.2436C43.5686 29.2707 43.7004 29.2715 43.8284 29.2459C43.9563 29.2203 44.0776 29.1689 44.185 29.0948C44.2924 29.0207 44.3836 28.9255 44.4529 28.815C44.5222 28.7045 44.5683 28.581 44.5883 28.4521C44.6083 28.3232 44.6019 28.1915 44.5693 28.0652Z" fill="#001434"/>
<path d="M34.8725 32.5755C34.6471 30.3953 34.7953 28.365 33.7446 28.5155C32.4669 28.6699 32.768 30.9211 32.9178 32.425C33.0668 34.0037 35.0231 33.7783 34.8725 32.5755Z" fill="#001434"/>
<path d="M104.259 103.315C106.384 99.7815 108.906 96.5026 111.776 93.5422C112.626 92.6582 110.799 91.8885 110.123 92.5656C108.995 93.6927 103.808 99.3307 102.454 102.564C101.929 103.766 103.808 104.067 104.259 103.315Z" fill="#001434"/>
<path d="M38.0295 31.4474C39.758 31.1463 38.8185 28.2158 38.7815 25.96C38.7591 24.6067 37.3525 25.208 36.9765 26.3352C36.6762 27.3141 36.6013 31.6728 38.0295 31.4474Z" fill="#001434"/>
<path d="M34.196 132.332C45.9228 128.799 52.6887 127.596 57.2744 126.92C59.5294 126.543 58.7034 124.89 56.1473 125.266C51.3721 125.867 46.6481 126.822 42.0141 128.122C38.1803 129.25 36.3785 129.475 33.5946 130.753C31.941 131.505 32.4667 132.858 34.196 132.332Z" fill="#001434"/>
<path d="M127.56 87.829C128.537 87.2276 127.548 86.0008 126.358 86.6262C120.43 89.7404 110.571 101.51 105.459 108.803C101.55 114.438 97.641 118.349 89.4469 122.108C82.2302 125.491 71.4051 128.122 53.6636 132.257C42.1607 134.959 30.1343 140.376 30.5095 142.706C30.5867 143.233 31.412 143.233 31.788 142.932C37.7218 138.965 44.3542 136.159 51.3337 134.663C65.9169 131.355 79.2981 128.498 89.9726 123.612C98.3929 119.928 102.678 115.568 107.639 108.652C114.106 99.7063 120.797 92.2641 127.56 87.829Z" fill="#001434"/>
<path d="M100.576 127.676C100.425 125.571 103.959 123.015 102.831 122.112C100.876 120.534 97.1179 128.126 99.5983 128.578C99.8448 128.578 100.082 128.485 100.263 128.318C100.444 128.15 100.556 127.921 100.576 127.676Z" fill="#001434"/>
<path d="M111.401 141.803C113.43 142.479 113.956 140.976 112.829 140.45C108.018 138.194 103.786 135.154 101.778 132.03C101.718 131.922 101.636 131.828 101.537 131.753C101.439 131.679 101.326 131.626 101.205 131.597C101.085 131.569 100.96 131.566 100.839 131.589C100.717 131.611 100.602 131.659 100.5 131.729C97.794 132.708 105.988 140.15 111.401 141.803Z" fill="#001434"/>
<path d="M141.846 89.5587C141.916 89.4374 141.959 89.3027 141.972 89.1636C141.986 89.0244 141.969 88.884 141.924 88.7516C141.879 88.6193 141.807 88.498 141.711 88.3959C141.616 88.2938 141.5 88.2131 141.371 88.1594C141.242 88.1056 141.103 88.0799 140.963 88.084C140.823 88.0881 140.686 88.1219 140.56 88.1831C140.435 88.2443 140.323 88.3316 140.234 88.4391C140.145 88.5467 140.079 88.672 140.042 88.8067C139.686 89.642 137.411 95.121 138.313 95.6475C140.042 96.6248 141.456 90.3785 141.846 89.5587Z" fill="#001434"/>
<path d="M137.26 97.7515C133.501 96.399 129.969 106.244 128.768 108.953C127.34 112.937 135.008 113.614 135.986 110.832C137.035 108.126 140.267 98.8794 137.26 97.7515ZM134.327 110.156C134.101 110.607 132.146 110.982 130.944 110.456C130.417 110.156 130.417 109.93 130.567 109.554C131.92 105.57 135.53 99.03 136.581 99.5557C137.486 100.007 136.129 105.72 134.329 110.156H134.327Z" fill="#001434"/>
<path d="M115.084 124.288C112.382 122.56 111.25 120.53 111.025 118.876C110.649 116.32 112.378 115.493 112.453 114.666C112.53 113.914 111.551 113.839 111.175 114.14C107.116 118.2 109.37 122.863 114.109 125.942C115.384 126.77 116.588 125.266 115.084 124.288Z" fill="#001434"/>
<path d="M119.219 86.8516C120.346 86.2502 119.219 84.5209 118.241 85.2728C117.715 85.7237 115.761 86.7767 114.784 87.9795C113.956 89.0317 114.408 89.4826 114.933 89.708C115.61 90.084 117.715 87.6784 119.219 86.8516Z" fill="#001434"/>
<path d="M126.059 116.095C127.638 117.298 132.525 117.975 135.907 117.147C137.336 116.847 137.04 114.919 135.682 115.193C132.766 115.852 129.718 115.589 126.958 114.441C126.74 114.339 126.492 114.324 126.263 114.399C126.035 114.474 125.843 114.633 125.729 114.844C125.614 115.056 125.584 115.303 125.646 115.535C125.707 115.768 125.855 115.968 126.059 116.095Z" fill="#001434"/>
<path d="M149.439 141.128C144.842 143.067 139.918 144.114 134.93 144.21C133.878 144.231 133.803 145.939 135.682 145.939C140.267 146.016 150.792 143.684 150.642 141.654C150.566 140.827 149.89 140.902 149.439 141.128Z" fill="#001434"/>
</svg>
