<svg width="154" height="154" viewBox="0 0 154 154" fill="none" xmlns="http://www.w3.org/2000/svg">
<path d="M123.749 110.774L125.872 109.209C126.849 110.396 127.032 110.635 128.127 110.839C128.626 110.932 129.174 111.338 129.108 111.59C129.042 111.842 128.691 111.93 128.691 111.93C128.691 111.93 128.916 112.215 128.724 112.489C128.533 112.762 128.122 112.746 128.122 112.746C128.122 112.746 128.303 113.042 128.012 113.288C127.722 113.535 126.67 113.294 126.302 113.113C126.33 113.529 125.963 114.034 125.513 114.072C125.064 114.11 124.773 113.787 124.74 113.321C124.645 111.968 124.487 111.901 123.749 110.774V110.774Z" fill="#FFE55D"/>
<path d="M118.382 94.3558C117.921 94.8098 117.152 94.9593 116.544 94.9179C116.044 94.8834 115.716 94.707 114.643 95.8433C114.008 96.5158 113.728 96.9436 113.408 97.008C112.662 97.1606 113.03 95.8257 113.156 95.5274C113.347 95.0928 113.586 94.6814 113.871 94.3014C113.559 94.3045 113.248 94.2999 112.938 94.2784C112.53 94.25 111.844 94.2462 111.558 93.8935C111.196 93.4472 111.88 93.0455 112.237 92.9527C112.879 92.7848 113.585 92.8592 114.24 92.9535C113.89 92.7602 113.926 92.7832 113.585 92.5854C110.43 92.4282 107.33 94.0292 105.666 96.7726C103.194 100.849 104.45 106.501 108.967 108.933C113.007 111.109 118.161 109.889 120.624 105.689C122.894 101.818 121.877 97.0272 118.382 94.3558Z" fill="#FFE55D"/>
<path d="M117.428 91.8127C117.334 91.1732 117.47 90.5107 117.271 90.5C116.96 90.4824 116.156 91.4048 116.488 92.6707C116.553 92.9199 116.188 93.0264 116.092 92.7803C116.01 92.5928 115.918 92.4098 115.816 92.2321C114.744 90.3604 113.187 89.8958 112.064 90.306C111.963 90.3428 111.849 90.4095 111.819 90.4578C111.586 90.8473 113.264 91.9346 113.677 92.1853C114.318 92.5733 115.014 92.9229 115.695 93.248C115.912 93.3515 115.568 93.4558 115.351 93.3991C114.764 93.2465 113.43 92.8854 112.574 92.9521C111.645 93.0241 111.504 93.9166 112.467 94.0385C113.732 94.198 114.733 93.8844 114.443 94.2364C113.98 94.7961 113.255 95.8611 113.38 96.5765C113.661 96.3955 114.331 95.4954 114.927 95.01C115.857 94.2532 116.215 94.5362 116.857 94.5132C117.297 94.4971 117.797 94.3552 118.112 94.0493C117.82 93.4037 117.539 92.5518 117.43 91.8142L117.428 91.8127Z" fill="#FFB43B"/>
<path d="M108.339 97.8262C108.178 97.7946 108.013 97.7952 107.852 97.8282C107.692 97.8611 107.54 97.9256 107.404 98.018C107.269 98.1104 107.154 98.2288 107.065 98.3663C106.976 98.5038 106.915 98.6577 106.886 98.8189C106.857 98.9801 106.861 99.1454 106.896 99.3053C106.932 99.4651 106.999 99.6163 107.094 99.7499C107.188 99.8836 107.309 99.997 107.448 100.084C107.587 100.17 107.742 100.228 107.903 100.255C108.223 100.306 108.55 100.23 108.814 100.043C109.078 99.8562 109.258 99.5729 109.315 99.2545C109.372 98.936 109.302 98.6078 109.119 98.3407C108.936 98.0735 108.656 97.8888 108.339 97.8262Z" fill="white"/>
<path d="M117.741 101.307C117.581 101.276 117.415 101.276 117.255 101.309C117.094 101.342 116.942 101.407 116.807 101.499C116.672 101.592 116.556 101.71 116.467 101.848C116.378 101.985 116.317 102.139 116.288 102.3C116.26 102.461 116.263 102.627 116.299 102.787C116.334 102.946 116.401 103.098 116.496 103.231C116.591 103.365 116.711 103.478 116.85 103.565C116.989 103.651 117.144 103.71 117.306 103.736C117.625 103.787 117.952 103.712 118.216 103.524C118.48 103.337 118.66 103.054 118.717 102.736C118.774 102.417 118.704 102.089 118.521 101.822C118.339 101.555 118.059 101.37 117.741 101.307Z" fill="white"/>
<path d="M129.386 111.481C129.352 110.54 127.856 110.721 127.133 110.089C125.561 108.712 126.486 108.288 124.701 109.634L121.464 105.255C123.373 101.295 122.173 96.5158 118.598 93.8544C118.114 92.8162 117.882 91.7964 117.908 90.8219C117.94 89.5759 116.405 89.6518 115.957 91.4544C114.258 89.0714 111.608 89.4632 111.309 90.3105C111.095 90.917 111.89 91.6185 112.548 92.0755C104.153 92.6122 100.924 103.05 107.117 108.297L98.0315 108.921C97.9417 108.779 97.8253 108.656 97.6888 108.558C97.4105 108.348 96.4467 106.551 96.3769 106.187C96.336 105.967 96.2835 105.749 96.2197 105.534C96.1453 105.291 95.9306 105.137 95.6285 105.113C95.5227 105.105 95.4537 105.208 95.4315 105.241C95.1723 105.634 94.835 107.22 95.5772 108.637C95.6048 108.689 95.6232 108.739 95.6301 108.767C95.4185 109.023 95.5618 109.249 95.6063 109.581C95.6922 110.239 96.1499 110.192 96.9627 110.041L108.478 109.256C109.401 109.792 110.409 110.166 111.458 110.362L106.199 115.274C105.81 114.939 105.211 114.192 105.143 113.978C105.085 113.792 105.014 113.609 104.932 113.432C104.828 113.214 104.584 113.136 104.261 113.216C104.075 113.262 103.972 113.738 103.972 113.738C103.646 115.484 104.25 116.164 104.54 116.49C104.573 116.527 104.613 116.572 104.632 116.6C104.436 116.958 104.616 117.091 104.682 117.346C104.724 117.501 104.785 117.678 104.951 117.678C105.171 117.678 106.348 116.782 106.408 116.518L112.834 110.517C116.055 110.634 119.127 109.008 120.901 106.257L123.867 110.27L123.597 110.477C123.434 110.602 123.399 110.816 123.541 110.969C124.089 111.559 124.196 112.164 124.3 112.749C124.389 113.248 124.472 113.72 124.825 114.123C125.333 114.702 126.38 114.162 126.431 113.429C127.01 113.696 127.968 113.836 128.367 113.38C128.497 113.233 128.54 113.074 128.494 112.92C128.96 112.801 129.141 112.374 129.04 112.025C129.274 111.941 129.395 111.752 129.385 111.48L129.386 111.481ZM112.428 91.1593C111.942 90.7452 111.894 90.5551 111.917 90.519C111.971 90.4725 112.035 90.4369 112.103 90.414C113.688 89.8343 115.352 91.2129 115.984 92.8223C116.134 93.2011 116.701 93.0309 116.599 92.6414C116.431 92.0004 116.547 91.3486 116.909 90.8993C117.107 90.6524 117.224 90.611 117.238 90.6103C117.238 90.6103 117.263 90.6371 117.267 90.7513C117.301 91.8639 117.301 92.5149 117.971 94.0192C117.19 94.674 116.328 94.217 115.684 94.4317C114.769 94.7361 113.948 95.8763 113.481 96.3386C113.515 95.7406 114.023 94.9217 114.53 94.3091C114.699 94.1043 114.577 93.9287 114.298 93.9349C113.715 93.9471 112.036 94.076 112.047 93.6036C112.062 92.9197 114.317 93.2471 115.436 93.5385C115.786 93.6282 116.087 93.3084 115.743 93.1451C114.578 92.5892 113.37 91.9636 112.428 91.1608V91.1593ZM120.526 105.631C116.672 112.204 106.812 110.805 104.843 103.57C103.354 98.1029 107.346 92.9266 112.814 92.6973C112.295 92.7947 111.53 92.9833 111.365 93.4856C111.328 93.5998 111.315 93.7762 111.47 93.9655C111.76 94.3236 112.365 94.3581 112.806 94.385C113.077 94.4011 113.259 94.4149 113.647 94.4172C113.413 94.7513 113.213 95.1081 113.051 95.4822C112.976 95.6555 112.665 96.6139 112.97 96.9873C113.633 97.7978 114.764 95.3311 115.944 95.0221C116.085 94.9861 116.225 95.0014 116.374 95.0168C117.081 95.0911 117.87 94.9577 118.389 94.5061C121.835 97.1982 122.737 101.861 120.526 105.631H120.526ZM128.954 111.553C128.86 111.832 127.939 111.483 127.663 111.376C127.36 111.258 127.219 111.509 127.486 111.727C127.771 111.959 128.173 111.98 128.444 112.12C128.678 112.24 128.469 112.352 128.297 112.373C127.943 112.416 127.542 112.219 127.211 112.106C126.816 111.97 126.636 112.58 127.028 112.72C127.176 112.772 127.745 112.822 127.843 112.973C127.873 113.015 127.83 113.076 127.784 113.104C127.622 113.203 127.232 113.181 126.932 113.106C126.393 112.973 125.886 112.265 125.615 112.547C125.359 112.814 125.884 113.136 125.773 113.546C125.72 113.738 125.455 113.898 125.296 113.824C125.114 113.739 125.01 113.435 124.931 113.104C124.736 112.292 124.872 111.612 124.232 110.794L125.865 109.523C126.858 110.805 127.318 110.948 128.306 111.135C128.488 111.168 128.675 111.203 128.803 111.292C128.922 111.375 128.98 111.476 128.954 111.554V111.553Z" fill="#4B1010"/>
<path d="M117.304 98.725C117.134 98.6882 117.16 98.7763 116.827 98.8438C116.667 98.7089 116.391 98.6698 116.105 98.8461C115.451 99.2479 115.263 100.375 115.863 100.65C116.427 100.906 117.086 100.154 117.078 99.4519C117.75 99.3054 117.648 98.7955 117.304 98.725Z" fill="#4B1010"/>
<path d="M111.643 97.331C111.551 97.1884 111.351 97.124 111.201 97.2237C111.126 97.278 111.034 97.303 110.942 97.2942C110.879 97.2449 110.805 97.2104 110.726 97.1933C110.648 97.1762 110.566 97.1769 110.488 97.1953C109.681 97.3656 109.28 98.784 109.985 99.1068C110.549 99.3645 111.208 98.6115 111.2 97.9092C111.541 97.8356 111.821 97.6071 111.644 97.3318L111.643 97.331Z" fill="#4B1010"/>
<path d="M114.323 100.76C114.18 100.554 113.821 100.561 113.746 100.849C113.542 101.621 111.761 102.125 111.462 100.657C111.396 100.189 110.776 100.312 110.823 100.685C110.929 101.525 111.524 102.226 112.514 102.226C113.836 102.226 114.575 101.122 114.323 100.76Z" fill="#4B1010"/>
<path d="M106.099 86.1838C106.429 85.9361 106.707 85.2591 106.652 85.3902C106.724 85.2192 106.993 85.1732 107.048 85.3902C107.164 85.8541 107.323 86.3072 107.435 86.7711C107.496 87.0234 107.55 87.4642 107.884 87.4796C108.256 87.4972 108.248 86.8999 108.171 86.5533C108.146 86.4802 108.122 86.4065 108.099 86.3325C108.033 86.124 108.378 85.9254 108.495 86.2236C108.632 86.6592 108.803 87.1123 109.124 87.4366C109.192 87.5049 109.278 87.5831 109.382 87.5762C109.534 87.5662 109.683 87.3906 109.702 87.2488C109.733 87.0203 109.519 86.6423 109.481 86.0688C109.465 85.8303 109.822 85.7989 109.885 86.0143C109.97 86.308 110.087 86.6944 110.314 86.9099C110.471 87.0594 110.577 86.8562 110.616 86.6852C110.695 86.3402 110.516 85.9438 110.407 85.6217C110.054 84.5744 109.974 83.4526 109.901 82.3516L106.395 82.5755C106.817 84.8128 105.426 85.6731 105.62 86.1385C105.706 86.3448 105.965 86.2842 106.099 86.183V86.1838Z" fill="#FFE55D"/>
<path d="M67.3732 80.26L64.0601 79.0914C62.8356 82.538 62.282 82.2957 62.1976 83.0302C62.1424 83.5071 62.456 83.6229 63.0786 82.6238C63.1982 82.4322 63.5348 82.5564 63.4543 82.7826C63.2481 83.3599 62.9314 83.6306 62.9153 83.8851C62.8946 84.2194 63.189 84.3329 63.4329 84.1918C63.9466 83.8936 64.2295 83.3576 64.3905 83.1606C64.5393 82.9781 64.8391 83.2173 64.7133 83.4098L64.5968 83.5838C64.4174 83.915 64.2188 84.5905 64.6888 84.5836C64.9848 84.5798 65.1343 84.1826 65.2585 83.9664C65.487 83.5685 65.75 83.192 65.9785 82.7933C66.0896 82.5993 66.3381 82.709 66.3618 82.8968C66.345 82.7642 66.4178 83.4236 66.6501 83.7701C66.746 83.9135 66.92 84.06 67.0995 83.9403C67.4414 83.7126 66.7054 82.5165 66.9936 81.2981C67.078 80.9439 67.2091 80.5897 67.374 80.2592L67.3732 80.26Z" fill="#FFE55D"/>
<path d="M71.5936 77.1024C71.2009 78.562 70.8201 80.0248 70.4512 81.4905C75.5774 83.9754 81.2264 85.1896 86.9209 85.0307C92.6154 84.8717 98.188 83.3443 103.168 80.5773C102.669 79.2035 102.165 77.8315 101.656 76.4614C92.1134 81.0926 81.2309 81.2827 71.5936 77.1024Z" fill="#FFE55D"/>
<path d="M85.5788 37.3704C79.9713 50.114 75.3321 63.2621 71.7007 76.703C76.4175 78.769 81.5277 79.7832 86.676 79.6751C91.8243 79.5671 96.8874 78.3394 101.513 76.0774C96.6538 62.9936 91.339 50.0834 85.5788 37.3704Z" fill="#FFB43B"/>
<path d="M80.6388 64.4043C81.8273 64.4043 82.7903 63.853 82.7903 63.1721C82.7903 62.4913 81.8273 61.9392 80.6388 61.9392C79.4503 61.9392 78.4873 62.4913 78.4873 63.1721C78.4873 63.853 79.4503 64.4051 80.6388 64.4051V64.4043Z" fill="white"/>
<path d="M92.5846 64.4044C93.7731 64.4044 94.7361 63.8531 94.7361 63.1723C94.7361 62.4914 93.7731 61.9393 92.5846 61.9393C91.3961 61.9393 90.4331 62.4914 90.4331 63.1723C90.4331 63.8531 91.3961 64.4052 92.5846 64.4052V64.4044Z" fill="white"/>
<path d="M88.6096 63.741C88.4954 63.3438 87.8759 63.5102 87.9924 63.9143C88.3735 65.2385 86.143 65.7054 85.4821 64.5584C85.2735 64.1965 84.7199 64.5208 84.9277 64.8804C85.7987 66.3909 88.4164 66.0458 88.6441 64.4349C88.6802 64.1834 88.6679 63.9442 88.6096 63.741Z" fill="#4B1010"/>
<path d="M110.939 85.5528C110.172 83.2748 110.745 81.7551 110.084 81.8134L108.805 81.8954C106.957 77.3647 101.156 70.1703 98.7365 67.275C98.4168 66.8909 94.9802 56.8204 85.8598 36.7147C85.7685 36.5138 85.4081 36.4602 85.2947 36.7155C80.6891 47.1231 76.7317 57.8057 73.4453 68.702C71.3705 70.7937 67.6088 74.8835 65.452 79.0255L64.0281 78.5233C63.8479 78.4604 63.6908 78.5608 63.6286 78.7364C63.2736 79.7508 62.9209 80.8166 62.3305 81.6884C61.9824 82.2036 61.5178 82.7626 61.7125 83.4013C61.8283 83.7808 62.1135 83.9426 62.3911 83.912C62.3995 84.599 63.0981 85.1188 63.9047 84.5231C64.0557 85.1434 64.9651 85.4409 65.5332 84.5453C65.7035 84.2762 65.8706 84.004 66.0355 83.7302C66.2387 84.2447 66.5576 84.5162 66.9617 84.5039C67.5237 84.4932 67.7722 84.0247 67.6985 83.478C67.5743 82.5517 67.0744 81.8333 67.9416 80.3044C68.0459 80.1212 67.9516 79.9057 67.7568 79.8375L66.4372 79.3728C68.1701 76.0651 71.2409 72.5679 72.7882 70.9064C71.7556 74.4244 70.7929 77.9627 69.9007 81.5189C69.8685 81.6447 69.9183 81.8149 70.0563 81.8824C74.1337 83.872 78.5464 85.084 83.068 85.4562C83.0466 85.7345 83.0519 93.8268 83.0519 96.857C78.765 100.072 78.4668 99.7637 77.4286 99.7676C76.0952 99.7729 76.908 101.925 79.7403 101.712C80.379 101.712 80.8966 101.79 81.3605 101.332C81.5537 101.14 81.579 101.162 81.7439 101.308C81.9133 101.457 82.1686 101.683 82.7192 101.686C83.2705 101.689 83.8923 101.693 84.4689 101.386C84.8454 101.186 84.8714 101.043 84.7656 100.658C84.6422 100.206 84.5594 99.2201 84.3799 98.7992C84.3194 98.6588 84.2044 98.5454 84.1001 98.458C84.1116 97.4949 84.1277 86.9437 84.087 85.5214C86.7277 85.6578 89.3929 85.4984 92.0137 85.0491L92.0091 98.405C91.6065 98.7187 91.5828 98.8935 91.4218 99.8994C91.3742 100.192 91.3305 100.468 91.2784 100.658C91.1726 101.043 91.1986 101.186 91.5751 101.386C92.1517 101.692 92.7751 101.691 93.3248 101.686C93.8677 101.683 94.1238 101.459 94.294 101.31C94.4589 101.166 94.4888 101.139 94.6827 101.332C95.0861 101.731 95.5369 101.724 96.0575 101.715C96.5728 101.707 96.2914 101.729 96.7131 101.729C97.8141 101.729 98.8032 101.26 99.1529 100.647C99.3806 100.248 99.1774 99.7821 98.6146 99.7683C96.72 99.7208 97.5718 99.9385 93.0611 96.9091C93.0649 86.716 93.0756 85.2124 93.0396 84.8574C96.7366 84.1153 100.294 82.7973 103.582 80.9515C103.645 80.9152 103.694 80.8586 103.72 80.7911C103.747 80.7235 103.749 80.649 103.728 80.5797C103.241 79.2371 100.959 73.1123 99.9227 70.3842C103.871 75.3359 106.55 79.326 107.697 81.9667C106.005 82.0756 106.01 82.0357 105.888 82.2006C105.86 82.2388 105.841 82.2827 105.833 82.3291C105.824 82.3755 105.825 82.4233 105.837 82.4689C106.379 84.6687 105.042 85.1694 105.087 86.111C105.12 86.7781 106.048 87.1553 106.735 86.2827C106.814 86.5802 106.911 86.9261 107.023 87.2642C107.328 88.1866 108.224 88.1904 108.575 87.6192C109.181 88.4036 109.984 88.1045 110.193 87.4658C110.4 87.5617 110.617 87.5203 110.817 87.3424C111.374 86.8463 111.113 86.0681 110.939 85.5536L110.939 85.5528ZM64.6906 83.649L64.8087 83.4726C65.0142 83.1598 64.5411 82.7925 64.3011 83.0877C64.1562 83.2618 63.8786 83.8 63.3749 84.0921C63.2023 84.1926 63.0152 84.1259 63.0298 83.892C63.0352 83.8061 63.1142 83.6773 63.2054 83.5271C63.3173 83.3446 63.4561 83.1176 63.5619 82.8209C63.6892 82.4643 63.1717 82.2573 62.98 82.5633C62.5284 83.2878 62.3359 83.271 62.3359 83.271C62.3282 83.2664 62.2914 83.2073 62.3106 83.044C62.3888 82.3647 62.9363 82.5579 64.1286 79.2386L67.2117 80.3259C66.6558 81.4944 66.7539 82.1661 67.0161 83.3101C67.0759 83.57 67.1273 83.7839 67.0345 83.846C66.908 83.9288 66.78 83.7609 66.7439 83.7072C66.5477 83.4143 66.4702 82.8531 66.4702 82.8531C66.4181 82.5755 66.0362 82.4582 65.8775 82.7373C65.623 83.1813 65.2956 83.6459 65.0924 84.0323C64.9912 84.2263 64.8654 84.4671 64.6868 84.4702C64.5794 84.4656 64.5533 84.4272 64.5426 84.4096C64.4567 84.2677 64.5556 83.8989 64.6906 83.6497V83.649ZM71.6695 77.2604C76.4127 79.2998 81.5381 80.2979 86.6998 80.1874C91.8616 80.077 96.9396 78.8605 101.591 76.6202C102.074 77.9201 102.552 79.2215 103.026 80.5245C98.0815 83.2489 92.5577 84.7523 86.9147 84.9094C81.2717 85.0665 75.6728 83.8728 70.5846 81.4277C70.9273 80.0675 71.2923 78.6666 71.6695 77.2604ZM71.8375 76.637C75.4482 63.3202 80.0419 50.2896 85.5807 37.6525C87.7474 42.4413 89.8515 47.2581 91.8925 52.1018C93.8708 56.7982 100.341 73.2764 101.369 76.019C96.7818 78.2444 91.7679 79.4517 86.6707 79.5584C81.5735 79.6651 76.5135 78.6685 71.8375 76.637ZM109.366 86.0773C109.384 86.3464 109.443 86.6079 109.522 86.8662C109.562 86.9943 109.603 87.1254 109.588 87.2343C109.576 87.3271 109.468 87.4559 109.375 87.462C109.322 87.4658 109.261 87.4106 109.206 87.3554C108.882 87.028 108.724 86.5503 108.639 86.2935C108.587 86.1378 108.543 85.9561 108.319 85.9561C108.104 85.9561 107.923 86.1555 107.99 86.3679C108.012 86.4384 108.036 86.5135 108.059 86.5787C108.115 86.831 108.148 87.3792 107.89 87.3646C107.624 87.3524 107.641 87.0135 107.346 86.0221C107.28 85.8028 107.215 85.5842 107.159 85.3626C107.083 85.0583 106.69 85.0598 106.557 85.3182C106.43 85.6019 106.226 85.9454 106.03 86.0926C105.94 86.1601 105.771 86.2076 105.726 86.0957C105.582 85.7506 106.877 84.8229 106.531 82.6829L109.793 82.4743C110.025 85.973 110.651 86.0152 110.502 86.6608C110.491 86.729 110.463 86.7934 110.421 86.8486C110.421 86.8486 110.411 86.8463 110.392 86.8279C110.181 86.6278 110.069 86.2398 109.995 85.9837C109.894 85.6379 109.34 85.7008 109.366 86.0773Z" fill="#4B1010"/>
<path d="M84.4233 60.5582C83.849 59.7983 83.1413 59.3958 82.3761 59.395C81.7404 59.395 80.9906 59.6841 80.4707 60.1311C80.1625 60.3949 80.5696 60.8779 80.9338 60.5781C81.3302 60.2515 81.8647 60.1081 81.8877 60.102C82.6567 59.8995 83.3292 60.1687 83.8858 60.9047C84.135 61.2329 84.6763 60.8917 84.4233 60.5582Z" fill="#4B1010"/>
<path d="M92.4337 60.5582C91.8587 59.7983 91.151 59.3958 90.3865 59.395C89.7509 59.395 89.001 59.6841 88.4811 60.1311C88.1737 60.3949 88.58 60.8779 88.9443 60.5781C89.3407 60.2515 89.8751 60.1081 89.8981 60.102C90.6679 59.8995 91.3396 60.1687 91.8962 60.9047C92.1431 61.2322 92.6883 60.8948 92.4353 60.5582H92.4337Z" fill="#4B1010"/>
<path d="M84.2421 50.5667C84.1899 50.4862 84.1347 50.3589 83.986 50.3643C83.8303 50.3712 83.825 50.4632 83.6141 50.8059C83.3933 51.1648 83.1656 51.5367 83.1809 51.9936C83.2077 52.8156 83.9492 53.1353 84.5404 52.7957C85.3431 52.3356 84.7251 51.3074 84.2429 50.5675L84.2421 50.5667Z" fill="#4B1010"/>
<path d="M89.2909 52.4867C89.2296 52.3931 89.1782 52.2773 89.0348 52.2842C88.8792 52.2911 88.8677 52.3931 88.6629 52.7251C88.4421 53.084 88.2144 53.4558 88.2297 53.9128C88.2566 54.7332 88.9957 55.0553 89.5884 54.7148C90.392 54.2563 89.7732 53.2258 89.2909 52.4867Z" fill="#4B1010"/>
<path d="M86.8022 46.7605C86.7063 46.6141 86.6726 46.5504 86.5461 46.5581C86.3889 46.5681 86.385 46.6563 86.1742 46.999C85.9534 47.3578 85.7256 47.7297 85.741 48.1867C85.7678 49.0063 86.507 49.3291 87.1004 48.9887C87.9024 48.5279 87.2852 47.5004 86.8029 46.7598H86.8022V46.7605Z" fill="#4B1010"/>
<path d="M86.8019 74.0324C86.7444 73.945 86.6922 73.8269 86.5458 73.83C86.3878 73.8369 86.3733 73.945 86.1739 74.2717C85.9531 74.6305 85.7254 75.0016 85.7399 75.4586C85.7668 76.2767 86.5044 76.601 87.0994 76.2606C87.9022 75.8006 87.2842 74.7716 86.8019 74.0324Z" fill="#4B1010"/>
<path d="M79.0519 69.8567C78.956 69.7103 78.9223 69.6466 78.7958 69.6543C78.6417 69.6612 78.6325 69.7555 78.4239 70.096C78.2031 70.4548 77.9754 70.8267 77.9899 71.2836C78.0298 72.502 79.5181 72.4315 79.7143 71.618C79.8455 71.072 79.3678 70.3405 79.0519 69.8567Z" fill="#4B1010"/>
<path d="M95.4252 69.4894C95.37 69.4043 95.3155 69.2824 95.1691 69.287C95.0104 69.2939 94.992 69.4112 94.798 69.7279C94.5772 70.0867 94.3487 70.4586 94.364 70.9156C94.3916 71.7383 95.1315 72.0573 95.7235 71.7176C96.527 71.2575 95.9082 70.2278 95.426 69.4886L95.4252 69.4894Z" fill="#4B1010"/>
<path d="M8.6557 92.9245L5.15012 92.6998C5.07728 93.8009 4.99754 94.9226 4.64407 95.97C4.53596 96.2905 4.35654 96.6892 4.43551 97.0335C4.47385 97.2006 4.57966 97.4077 4.73761 97.2582C4.9638 97.0427 5.08111 96.6563 5.16622 96.3626C5.2291 96.1448 5.58564 96.1809 5.5703 96.417C5.53273 96.9768 5.30807 97.3854 5.35178 97.6178C5.41158 97.939 5.72902 97.9827 5.92607 97.7841C6.34932 97.3571 6.4766 96.7483 6.57627 96.5213C6.67058 96.3051 7.02022 96.4623 6.95198 96.68C6.92975 96.7506 6.90598 96.8242 6.87991 96.9001C6.80323 97.2467 6.7948 97.844 7.16667 97.8263C7.50097 97.811 7.55541 97.3701 7.61599 97.1178C7.7287 96.654 7.88742 96.2008 8.00319 95.7369C8.05763 95.5192 8.32753 95.5659 8.3996 95.7369C8.31679 95.5414 8.60433 96.2698 8.95166 96.5305C9.08891 96.6333 9.3427 96.6908 9.43088 96.486C9.62717 96.0329 8.23475 95.1603 8.6557 92.923V92.9245Z" fill="#FFE55D"/>
<path d="M42.1837 91.7023L38.6781 91.9262C39.0998 94.1636 37.709 95.0239 37.903 95.4893C37.9888 95.6955 38.248 95.635 38.3822 95.5337C38.7157 95.2838 38.9925 94.6021 38.9342 94.7402C39.0063 94.5692 39.2762 94.5232 39.3306 94.7402C39.4464 95.204 39.6059 95.6572 39.7178 96.1211C39.7792 96.3733 39.8329 96.8142 40.1672 96.8296C40.539 96.8472 40.5306 96.2499 40.4539 95.9033C40.4286 95.8301 40.4046 95.7565 40.3819 95.6825C40.3128 95.4624 40.664 95.3106 40.7576 95.5238C40.858 95.753 40.983 96.3588 41.4078 96.7866C41.4752 96.8549 41.5619 96.9331 41.6654 96.9262C41.818 96.9162 41.9667 96.7406 41.9859 96.5988C42.0166 96.3703 41.8026 95.9923 41.7643 95.4187C41.7482 95.1803 42.1055 95.1488 42.1684 95.3643C42.2535 95.658 42.37 96.0444 42.597 96.2599C42.7542 96.4094 42.86 96.2062 42.8991 96.0352C42.9781 95.6902 42.7994 95.2938 42.6905 94.9717C42.3371 93.9243 42.2573 92.8026 42.1845 91.7015L42.1837 91.7023Z" fill="#FFE55D"/>
<path d="M27.2435 54.8838C26.1508 56.6695 24.2938 57.5337 22.9328 59.0848C22.0587 60.0808 21.5626 60.9541 21.89 63.5051C22.0372 64.6506 22.2634 65.7862 22.8462 67.3833C26.5956 64.6997 28.9334 60.3499 27.5057 55.6099C27.4353 55.3622 27.3474 55.1198 27.2427 54.8846L27.2435 54.8838Z" fill="#FFE55D"/>
<path d="M30.9161 65.764C28.9417 65.2311 26.8976 65.4358 24.9876 66.0853C23.2594 67.858 22.5693 68.5465 19.9171 68.9468C17.3462 69.3355 14.2478 68.5143 11.6147 72.171C8.94723 75.8751 8.70724 81.9616 10.1901 85.4342C12.1032 89.9143 17.8515 95.0531 22.4067 93.9367C22.6 93.8523 23.0753 93.8876 25.3787 92.6777C27.3707 91.6311 27.7771 91.1909 30.2889 91.4677C31.5165 91.6035 31.8746 91.7392 32.3484 91.7024C38.0308 91.2599 42.6543 68.9314 30.9161 65.764Z" fill="#FFB43B"/>
<path d="M21.9841 77.7022C22.8083 77.7022 23.4769 77.1501 23.4769 76.4693C23.4769 75.7884 22.8083 75.2363 21.9841 75.2363C21.1598 75.2363 20.4912 75.7884 20.4912 76.4693C20.4912 77.1501 21.1598 77.7022 21.9841 77.7022Z" fill="white"/>
<path d="M33.1743 72.1202C32.8338 71.5306 31.9935 71.378 31.298 71.7797C30.6026 72.1815 30.3143 72.9851 30.6547 73.5747C30.9952 74.1643 31.8355 74.3169 32.531 73.9151C33.2264 73.5134 33.5147 72.7098 33.1743 72.1202Z" fill="white"/>
<path d="M43.2211 94.9035C42.8668 93.8507 42.7764 92.7075 42.6943 91.4769C42.6836 91.2998 42.5601 91.1495 42.3669 91.1641L41.4369 91.2239C41.1716 87.7927 39.7063 82.4722 38.718 79.2311C38.8836 75.1796 38.126 70.8935 35.4639 67.8756C34.178 66.3498 31.3641 64.84 28.2633 64.929C27.4543 64.9546 26.6505 65.0693 25.8665 65.2709C28.2825 62.3105 28.9381 59.0265 28.1 55.7755C27.975 55.2917 27.8179 54.7381 27.5242 54.2988C27.39 54.0971 27.0841 54.094 26.9714 54.3095C26.3449 55.5087 25.3236 56.3031 24.2693 57.1465C21.7337 59.1753 20.9992 60.3699 21.3457 63.3449C20.2715 61.3644 18.6644 59.5794 16.4554 59.1377C16.0452 59.0557 15.8949 59.679 16.3013 59.7588C17.8333 60.0655 19.1843 61.1121 20.3168 62.8687C21.2606 64.3324 22.0021 66.2294 22.3433 67.6908C21.2798 68.2398 19.8352 68.4737 18.6422 68.5611C17.7435 68.6262 16.8211 68.5825 15.9202 68.7505C10.3858 69.7802 8.30486 76.5981 8.83009 82.121C7.7505 85.4211 6.89251 88.7473 6.37956 92.2521L4.96797 92.1616C4.27483 92.124 4.92273 93.5985 4.13298 95.8389C3.94973 96.3626 3.722 97.0144 4.09771 97.5334C4.29707 97.8095 4.58076 97.9023 4.85219 97.7926C4.93347 98.0832 5.18113 98.3201 5.46099 98.4068C5.8735 98.5333 6.2124 98.3109 6.47693 97.969C6.80127 98.5279 7.7114 98.5294 8.02117 97.6416C8.08634 97.4529 8.02423 97.6032 8.30946 96.6179C8.99034 97.4951 9.93497 97.1424 9.96718 96.4585C10.0155 95.4602 8.66447 95.0576 9.21653 92.8156C9.22851 92.7688 9.22981 92.7199 9.22032 92.6725C9.21083 92.6251 9.1908 92.5805 9.16171 92.5419C9.13262 92.5033 9.09522 92.4718 9.05228 92.4496C9.00934 92.4275 8.96197 92.4152 8.91366 92.4139L7.42233 92.318C7.79728 89.7402 8.40607 87.0489 9.23416 84.3116C10.7094 89.455 17.0205 95.3543 22.0711 94.5408L22.1171 99.1336C22.0396 99.1896 20.4985 100.484 19.4396 100.662C18.8392 100.761 18.4083 100.807 18.3493 101.384C18.3278 101.59 18.7848 101.731 18.7848 101.731C20.658 102.289 21.7866 101.519 22.0013 101.468C22.2543 101.687 22.4882 101.546 22.8156 101.511C23.3025 101.459 23.3393 101.332 23.3431 101.008C23.3431 100.929 23.4037 99.9502 23.1752 99.6635L23.1215 94.2694C26.3143 93.1131 26.8564 92.0144 28.8238 91.9208L28.4382 99.6995C28.33 99.882 28.1468 101.166 28.3945 101.38C28.5562 101.521 28.7794 101.487 29.0608 101.552C29.2294 101.591 29.438 101.64 29.6343 101.47C29.8513 101.521 30.9784 102.29 32.8508 101.733C32.8508 101.733 33.3078 101.591 33.2863 101.386C33.2265 100.808 32.7987 100.763 32.196 100.663C31.8303 100.602 30.0108 99.6811 29.7953 99.4074C29.716 99.3046 29.6231 99.2131 29.5193 99.1352L29.875 91.9484C31.7498 92.111 32.4283 92.5657 33.7563 91.7591C36.4476 90.1228 37.9619 85.1781 38.4481 82.0428C39.2002 84.7088 40.1556 88.5471 40.3872 91.2913L38.4251 91.4171C38.3767 91.4186 38.3293 91.4309 38.2864 91.4531C38.2435 91.4754 38.2061 91.507 38.177 91.5457C38.1479 91.5843 38.1279 91.629 38.1184 91.6764C38.1089 91.7238 38.1102 91.7728 38.1222 91.8196C38.2602 92.3801 38.2863 92.946 38.1966 93.4129C38.0486 94.1774 37.3417 94.8475 37.3716 95.4625C37.4053 96.1472 38.3469 96.4884 39.0201 95.6342C39.099 95.9325 39.1956 96.2783 39.3076 96.6156C39.6112 97.5342 40.5329 97.538 40.8618 96.9737C41.1263 97.3165 41.4652 97.5373 41.8793 97.41C42.1553 97.3249 42.3938 97.0941 42.4804 96.8181C42.6867 96.9131 42.9029 96.871 43.103 96.6931C43.6604 96.197 43.3982 95.4187 43.2249 94.9043L43.2211 94.9035ZM41.6492 95.428C41.6669 95.6902 41.7267 95.9662 41.8057 96.2169C41.8455 96.345 41.8869 96.4761 41.8724 96.585C41.8593 96.6777 41.752 96.8066 41.6584 96.8127C41.6048 96.8112 41.5442 96.7613 41.4898 96.7069C41.0611 96.2737 40.9231 95.5943 40.8787 95.5161C40.7176 95.1021 40.1633 95.3681 40.2729 95.7178C40.2952 95.7883 40.3197 95.8635 40.3427 95.9286C40.3987 96.1809 40.4316 96.7307 40.1733 96.7146C40.0069 96.7069 39.9417 96.5681 39.8305 96.0935C39.7193 95.6189 39.5583 95.1742 39.4425 94.7118C39.3659 94.4059 38.9618 94.3944 38.8184 94.7126C38.6957 94.984 38.3614 95.5867 38.0747 95.5062C37.8791 95.4548 38.113 95.0737 38.2104 94.9142C38.8491 93.8745 38.9825 93.074 38.8138 92.032L42.0763 91.8235C42.153 92.9736 42.245 94.0838 42.6353 95.1634C42.7334 95.4387 42.8454 95.7508 42.7856 96.0099C42.7739 96.0781 42.746 96.1425 42.7043 96.1978C42.7043 96.1978 42.6943 96.1955 42.6752 96.1771C42.4643 95.9769 42.3524 95.589 42.278 95.3329C42.1768 94.9863 41.6232 95.0515 41.6492 95.4272V95.428ZM24.8935 59.5548C25.2965 58.9707 25.7537 58.426 26.2591 57.9278C26.5566 57.6357 26.1057 57.181 25.8074 57.4723C24.4618 58.7927 23.6759 60.0425 23.4052 61.2946C23.0679 62.8534 22.8248 64.4728 22.5626 66.1435C22.3093 65.2745 22.123 64.3873 22.0051 63.4898C21.6793 60.9488 22.183 60.1146 23.0203 59.1607C24.3338 57.6633 26.0934 56.8275 27.2236 55.1292C28.9327 59.4996 26.93 64.1699 23.0625 67.0805C24.014 60.8683 24.0968 60.7073 24.8935 59.5548ZM35.9446 88.0626C35.2354 89.4787 33.9189 91.4654 32.3401 91.5881C31.7436 91.6356 29.7938 91.1188 28.2741 91.3189C27.1784 91.4623 26.2652 92.0819 25.3252 92.5756C22.9866 93.804 22.5288 93.7511 22.3793 93.8247C17.867 94.9311 12.18 89.8031 10.2953 85.3889C8.23739 80.5684 9.6068 71.7185 14.8882 69.7043C15.9079 69.3155 17.0052 69.2634 18.0671 69.2128C22.2942 69.0112 23.0985 68.1869 25.0507 66.1849C28.7993 64.919 32.1285 65.7318 34.4518 67.7782C39.1849 71.9417 38.8797 82.2015 35.9446 88.0626ZM6.98835 96.9384L7.06196 96.7153C7.17007 96.3711 6.60115 96.0659 6.43783 96.5627C5.97395 97.972 5.52693 97.9276 5.46559 97.5979C5.43032 97.4115 5.64731 96.9929 5.68565 96.4255C5.71018 96.0506 5.15659 95.9838 5.05691 96.3312C4.89743 96.8809 4.75405 97.1133 4.63597 97.1945C4.6168 97.183 4.57463 97.1202 4.54856 97.0082C4.40134 96.3665 5.02624 96.3166 5.2578 92.8218L8.52109 93.0303C8.33247 94.1881 8.52722 94.8437 9.05934 95.8037C9.13219 95.934 9.38751 96.2997 9.32617 96.4416C9.2771 96.5535 9.11302 96.5083 9.02177 96.4401C8.75878 96.2422 8.55712 95.7837 8.49578 95.6687C8.3593 95.4126 7.96903 95.4003 7.89235 95.7101C7.76737 96.2116 7.60175 96.6563 7.48291 97.1876C7.42003 97.469 7.35409 97.7037 7.16164 97.7129C6.90708 97.7221 6.93392 97.1876 6.98912 96.9384H6.98835Z" fill="#4B1010"/>
<path d="M22.8954 72.4361C22.928 72.2606 22.9265 72.0804 22.8908 71.9055C22.88 71.8639 22.8611 71.8249 22.835 71.7907C22.8089 71.7566 22.7763 71.728 22.7389 71.7067C22.7016 71.6854 22.6604 71.6718 22.6177 71.6667C22.5751 71.6616 22.5318 71.6651 22.4905 71.677C22.3234 71.7307 22.2367 71.8887 22.2697 72.0635C22.2964 72.1885 22.286 72.3185 22.2398 72.4377C21.0889 72.8364 22.0673 74.8951 23.4006 74.8943C24.7333 74.8943 24.2954 72.8425 22.8954 72.4361Z" fill="#4B1010"/>
<path d="M29.8586 70.1466C29.6392 69.9098 29.3616 69.7345 29.0535 69.6382C29.0865 69.4557 29.0857 69.2778 29.0489 69.1084C29.0383 69.0666 29.0194 69.0274 28.9933 68.9931C28.9672 68.9587 28.9345 68.93 28.8971 68.9085C28.8597 68.8871 28.8184 68.8734 28.7756 68.8682C28.7328 68.863 28.6893 68.8665 28.6479 68.8784C28.5687 68.9029 28.5019 68.9567 28.4609 69.0287C28.4199 69.1008 28.4078 69.1857 28.4271 69.2663C28.4536 69.3911 28.443 69.521 28.3964 69.6397C27.2616 70.0339 28.2254 72.0995 29.5573 72.0995C30.4804 72.0995 30.6499 70.9754 29.8586 70.1466Z" fill="#4B1010"/>
<path d="M30.0473 75.1099C30.0457 75.767 29.8709 76.408 29.5673 76.8665C28.733 78.1286 26.7019 77.2476 25.6576 76.2968C25.3502 76.0162 24.9031 76.4762 25.2121 76.7568C26.5133 77.943 28.7062 78.7949 29.8801 77.5037C30.4467 76.8811 30.686 75.8505 30.6883 75.1106C30.6898 74.6966 30.048 74.6889 30.0473 75.1099Z" fill="#4B1010"/>
<path d="M71.1511 53.3088C71.5805 52.9653 72.1065 52.8503 72.3457 52.6586C72.4661 52.562 72.483 52.4194 72.3664 52.3029C72.1165 52.0521 71.3198 52.2937 70.9863 52.4332C70.8076 52.5076 70.6803 52.2714 70.7539 52.1311C71.0591 51.5507 71.8941 51.1589 71.8366 50.8437C71.8239 50.7828 71.7915 50.7276 71.7444 50.6869C71.6973 50.6462 71.6381 50.6221 71.5759 50.6183C71.1826 50.5838 70.4925 51.0945 70.2172 51.3383C70.0202 51.5123 69.7319 51.2294 69.9266 51.0477C70.4756 50.5347 70.5485 49.5947 69.9972 49.8684C69.6667 50.0325 69.4114 50.3783 69.1829 50.6574C68.8739 51.0331 68.5534 51.3989 68.2574 51.7853C68.1424 51.9356 67.8725 51.9042 67.874 51.6818C67.8786 51.2424 67.7575 50.4059 67.3312 50.5079C67.0958 50.5646 67.1487 50.9127 67.1602 51.0937C67.2307 52.2193 67.3764 52.8787 66.5215 54.1331L69.6537 55.7341C70.5155 54.0802 70.7739 53.6109 71.1511 53.3096V53.3088Z" fill="#FFE55D"/>
<path d="M39.8942 42.7429C39.7838 40.3652 41.2207 39.9327 41.1632 39.3523C41.1333 39.0502 40.6027 38.9751 40.0231 39.9419C39.9103 40.1298 39.6604 40.0316 39.6397 39.8384C39.5852 39.3216 39.5017 38.8095 39.4265 38.2957C39.3774 37.9599 39.3383 37.5297 39.1283 37.2491C38.7909 36.7975 38.4182 37.6785 38.5992 38.3279C38.6705 38.584 38.2802 38.6891 38.2028 38.4376C38.0701 38.0059 37.8639 37.4339 37.4912 37.1548C37.3931 37.0812 37.2896 37.0482 37.173 37.1004C36.7628 37.2852 37.3739 38.1056 37.3295 38.8233C37.3164 39.0356 37.0657 39.0916 36.9461 38.9268C36.1609 37.841 35.5782 38.0718 35.6932 38.4353C35.7745 38.6921 35.9961 38.9199 36.1372 39.1453C36.5635 39.8269 36.4929 40.2134 36.46 41.1496C36.4446 41.5912 36.4201 42.0329 36.3894 42.4737L39.8942 42.7429Z" fill="#FFE55D"/>
<path d="M67.8414 39.6576C68.1358 39.5004 68.1021 39.1907 68.0476 38.9108C67.9344 38.3226 67.7476 37.751 67.4917 37.2094C67.3093 36.8237 67.1091 36.264 66.5832 36.4112C65.0489 36.8398 61.2113 39.344 59.8833 40.2503C60.5838 40.3932 61.2502 40.6697 61.8462 41.0646C64.2599 40.2572 67.6213 39.7749 67.8414 39.6576Z" fill="#FFE55D"/>
<path d="M61.7589 41.5055C60.8595 40.8714 60.118 40.6851 59.1772 40.5471C58.629 40.4674 58.6068 40.5111 58.3499 40.6223C52.0457 43.3549 45.9815 50.3462 43.958 58.3127C42.9153 62.4194 43.0418 66.7975 43.7702 70.9564C44.9893 77.9162 47.9536 84.5416 50.7215 88.3409C50.9577 88.6652 51.1938 89.0102 51.4898 89.2832C51.9538 89.7028 52.5595 89.9313 53.1851 89.9227C54.0308 89.9135 55.697 89.57 56.9176 89.021C58.0424 88.5157 58.7548 87.8502 58.764 86.4761C58.8483 73.5073 61.0849 56.4932 63.4266 43.3933C63.139 42.7983 62.5425 42.0568 61.7604 41.5055H61.7589Z" fill="#FFB43B"/>
<path d="M48.1035 55.155C47.9428 55.1233 47.7774 55.124 47.617 55.1569C47.4566 55.1898 47.3043 55.2544 47.1691 55.3468C47.0338 55.4392 46.9183 55.5576 46.8294 55.6951C46.7404 55.8326 46.6796 55.9864 46.6507 56.1476C46.6218 56.3088 46.6253 56.4742 46.6609 56.634C46.6966 56.7939 46.7637 56.945 46.8584 57.0787C46.9531 57.2123 47.0735 57.3258 47.2125 57.4124C47.3515 57.499 47.5063 57.5571 47.668 57.5833C47.9874 57.635 48.3143 57.5591 48.5783 57.372C48.8423 57.185 49.0223 56.9017 49.0794 56.5832C49.1365 56.2647 49.0662 55.9366 48.8837 55.6694C48.7011 55.4023 48.421 55.2175 48.1035 55.155Z" fill="white"/>
<path d="M58.4556 56.1679C58.2949 56.1363 58.1295 56.1369 57.969 56.1698C57.8086 56.2028 57.6563 56.2673 57.5211 56.3597C57.3859 56.4521 57.2704 56.5705 57.1814 56.708C57.0924 56.8455 57.0317 56.9994 57.0028 57.1606C56.9739 57.3218 56.9773 57.4871 57.013 57.647C57.0487 57.8068 57.1158 57.958 57.2105 58.0916C57.3052 58.2253 57.4255 58.3387 57.5645 58.4253C57.7035 58.512 57.8584 58.5701 58.02 58.5962C58.3394 58.6479 58.6664 58.572 58.9304 58.385C59.1944 58.1979 59.3743 57.9146 59.4314 57.5961C59.4885 57.2777 59.4183 56.9495 59.2357 56.6824C59.0532 56.4152 58.773 56.2305 58.4556 56.1679Z" fill="white"/>
<path d="M71.9125 51.6755C72.0322 51.5666 72.1449 51.4486 72.2346 51.3059C72.6318 50.6726 72.0506 49.7142 70.8882 50.2402C70.974 49.7065 70.754 49.3339 70.2196 49.2932C69.6943 49.2526 69.2657 49.7517 68.9767 50.0868C68.762 50.336 68.5435 50.5967 68.3142 50.8796C68.1785 50.3299 67.8956 50.0201 67.4869 49.981C66.9294 49.9296 66.6281 50.349 66.6281 50.9019C66.6266 51.8787 67.0345 52.6094 65.9503 54.0348C65.8422 54.1767 65.9097 54.4097 66.063 54.488L67.2645 55.1021C65.9357 57.4882 63.8249 60.4947 61.1681 61.6525C62.8703 47.9913 64.094 43.6001 63.9207 43.2114C63.6363 42.5711 63.131 41.9332 62.4869 41.3957C64.9666 40.6642 67.7552 40.346 68.1716 40.0723C68.8011 39.6583 68.6056 38.9069 68.4568 38.3333C68.3056 37.7564 68.089 37.1987 67.8112 36.671C67.2047 35.5148 66.5691 35.7985 65.6053 36.2286C64.1063 36.898 59.5901 39.6422 59.3425 40.0462C58.7191 39.9703 58.5351 39.9757 58.167 40.1314C51.563 42.9315 45.5464 50.2701 43.4976 58.0081C37.0745 55.2493 38.079 46.0967 38.5835 43.1684L40.1063 43.285C40.2911 43.295 40.4528 43.124 40.4352 42.953C40.2159 40.7992 41.4519 40.4158 41.6658 39.5471C41.8338 38.8647 41.0678 38.4338 40.4843 38.7282C40.3307 38.8084 40.1901 38.9112 40.0672 39.0334C40.0143 38.6339 39.9598 38.2758 39.9031 37.9438C39.8341 37.5474 39.7191 36.8834 39.2314 36.6679C38.7652 36.4617 38.398 36.6656 38.2001 37.1395C37.5507 36.201 36.6168 36.5123 36.5102 37.1962C36.4757 37.4201 36.5156 37.6325 36.5754 37.8395C36.067 37.4953 35.564 37.46 35.2474 37.9799C34.8065 38.7029 35.903 39.2849 35.9482 40.1129C35.9781 40.6619 35.896 42.0866 35.8539 42.6524C35.85 42.7099 35.8508 42.7958 35.9114 42.8648C36.0456 43.0189 36.3362 42.9975 37.5377 43.0864C36.9051 47.0428 36.2779 56.1986 43.2484 59.0478C41.1674 68.7065 45.1852 81.6738 50.3033 88.6535C50.9174 89.4916 51.3683 90.1149 52.4678 90.3657C52.4517 90.5735 52.0875 97.9665 52.0875 97.9665C51.1981 97.8591 51.2134 97.9803 51.1367 98.5983C51.1168 98.7623 51.0945 98.9487 51.0133 99.0368C50.1047 100.028 49.4184 99.9715 48.8664 99.9247C48.3251 99.8787 47.796 99.9316 47.6879 100.461C47.5974 100.901 47.8995 101.116 48.1725 101.256C49.1148 101.735 50.1177 101.755 50.9734 101.71C52.2385 101.645 52.3022 101.822 54.0619 101.51C54.1991 101.486 54.3586 101.293 54.3509 101.161C54.2712 99.6962 54.1508 99.3819 54.0343 99.0782C53.8004 98.4672 53.9499 98.2985 53.6402 98.0792C53.4676 97.9573 53.3089 97.9642 53.1372 97.9925L53.5067 90.4308C54.2367 90.3733 55.4573 90.1341 56.5929 89.7193L58.0122 97.978C57.8837 97.9766 57.7582 98.0158 57.6533 98.0899C57.3673 98.2985 57.5 98.4863 57.2761 99.0744C57.1595 99.3819 57.0392 99.7001 56.9594 101.159C56.9517 101.292 57.1112 101.484 57.2485 101.509C59.0204 101.822 59.0802 101.643 60.3369 101.708C61.3153 101.759 62.2553 101.703 63.1386 101.254C63.4108 101.116 63.7129 100.899 63.6232 100.459C63.535 100.028 63.1739 99.9401 62.8687 99.9117C62.2293 99.8511 61.4549 100.299 60.2978 99.0361C60.2074 98.9379 60.1913 98.7232 60.1621 98.4994C60.0686 97.7863 59.8639 97.8951 59.0772 97.9826C58.5857 95.1218 57.6196 89.4755 57.5805 89.2915C58.4377 88.8345 58.9645 88.1988 59.1891 87.3501C59.4974 86.1831 58.9346 80.1311 61.0247 62.8363C63.6186 61.9024 66.0324 59.4611 68.2007 55.5775L69.1492 56.0644C69.4889 56.2392 69.8485 56.4999 70.021 56.1618C71.1995 53.87 71.3521 53.6913 72.0697 53.3953C72.4232 53.2481 72.825 53.0817 72.9446 52.6991C73.0964 52.2145 72.7491 51.6702 71.9141 51.674L71.9125 51.6755ZM67.2944 51.3596C67.263 50.9939 67.2346 50.6488 67.3581 50.6189C67.6724 50.5484 67.7621 51.3543 67.7591 51.6794C67.7552 52.0068 68.1608 52.0988 68.3487 51.8542C68.5458 51.5965 68.7581 51.3435 68.9636 51.0989C69.4659 50.5001 69.712 50.1374 70.0486 49.971C70.1122 49.9388 70.195 49.9112 70.228 49.9595C70.3307 50.1075 70.1958 50.6381 69.8477 50.9632C69.5441 51.2469 69.9826 51.697 70.2932 51.4248C70.6129 51.1419 71.2393 50.7018 71.566 50.7332C71.6335 50.7393 71.7086 50.7823 71.7232 50.8643C71.7408 50.9617 71.523 51.1518 71.3314 51.3205C71.0875 51.5337 70.8107 51.776 70.652 52.0773C70.5255 52.3181 70.754 52.6539 71.03 52.5389C71.431 52.3717 72.1073 52.2061 72.2844 52.384C72.45 52.5496 72.1173 52.6685 71.8734 52.7758C70.777 53.2581 70.6973 53.4805 69.6046 55.5783L66.6887 54.0885C67.3527 53.0572 67.3841 52.43 67.2944 51.3596ZM52.8734 70.5652C52.8358 74.7432 53.6639 82.3984 55.5701 89.3819C54.88 89.5798 53.8824 89.7983 53.1824 89.8067C52.592 89.8083 51.9947 89.5913 51.5669 89.1979C51.2855 88.9388 51.0524 88.6014 50.8139 88.2725C48.4523 85.0245 45.2151 78.5378 43.8833 70.9355C43.0675 66.2775 43.1303 62.0397 44.0696 58.3401C45.9865 50.7961 51.8774 43.5526 58.4139 40.7194C58.7367 40.5784 58.7076 40.5998 59.3869 40.6934C60.0452 40.7794 60.6805 40.9921 61.2578 41.3198C59.6415 43.1048 57.8381 45.7018 56.5285 48.1354C56.3299 48.505 56.8904 48.8163 57.0859 48.4521C58.4132 45.987 60.1276 43.5234 61.7999 41.6779C62.5505 42.2353 63.0635 42.9254 63.3058 43.4092C61.9341 51.0874 58.7521 70.569 58.6486 86.4744C58.6386 88.0003 57.7009 88.6551 56.1819 89.188C54.2973 82.2719 53.4784 74.6995 53.5152 70.5675C53.519 70.1488 52.878 70.1519 52.8742 70.5659L52.8734 70.5652ZM66.6143 36.5215C67.0153 36.4088 67.1748 36.8021 67.3887 37.2583C67.5659 37.6364 68.144 39.1169 67.9071 39.4597C67.8043 39.6069 67.5344 39.6199 67.2492 39.6744C65.4481 40.0186 63.4016 40.4281 61.8635 40.9372C61.343 40.598 60.7695 40.3479 60.1667 40.1973C61.921 39.0119 65.248 36.9049 66.6143 36.5215ZM39.7758 42.6179L36.5125 42.3672C36.5394 41.9562 36.6245 40.5492 36.5838 40.0347C36.5156 39.1675 35.9428 38.8371 35.804 38.4C35.7251 38.1501 36.212 38.1056 36.8545 38.9935C36.8937 39.0507 36.9499 39.094 37.0151 39.1174C37.0804 39.1408 37.1513 39.1431 37.2179 39.1238C37.6251 39.0058 37.4096 38.3103 37.2639 37.8495C37.1382 37.4546 37.0929 37.2622 37.2218 37.2039C37.2693 37.1832 37.3268 37.1725 37.4242 37.2461C37.7623 37.4991 37.9601 38.0335 38.0951 38.4706C38.2162 38.8624 38.8243 38.6998 38.7123 38.2965C38.5919 37.8648 38.7484 37.3258 38.9117 37.2461C38.9262 37.2384 38.9653 37.2192 39.039 37.3174C39.2084 37.5443 39.2559 37.8932 39.2996 38.2014C39.4085 38.9682 39.4783 39.3845 39.5274 39.85C39.5596 40.1551 39.9552 40.2816 40.1231 40.001C40.5694 39.2565 41.0294 39.1499 41.0501 39.3631C41.0678 39.5402 40.7802 39.8408 40.6675 39.9887C40.1461 40.6765 39.7505 41.1795 39.7766 42.6172L39.7758 42.6179Z" fill="#4B1010"/>
<path d="M51.4162 52.9728C51.4378 52.936 51.4519 52.8953 51.4577 52.853C51.4635 52.8107 51.4608 52.7677 51.4498 52.7265C51.4388 52.6852 51.4198 52.6466 51.3937 52.6128C51.3677 52.579 51.3352 52.5507 51.2981 52.5296C51.2249 52.4897 51.1391 52.4794 51.0586 52.5008C50.978 52.5222 50.9086 52.5736 50.8649 52.6446C50.798 52.7543 50.7012 52.8427 50.5858 52.8992C49.8635 52.5718 49.2754 53.4121 49.2754 54.2762C49.2754 55.6771 50.5206 56.233 51.0826 55.1542C51.331 54.6773 51.3931 53.9243 51.0581 53.3523C51.1915 53.2595 51.3065 53.1499 51.4154 52.972L51.4162 52.9728Z" fill="#4B1010"/>
<path d="M58.8327 53.0418C58.8542 53.005 58.8683 52.9643 58.874 52.9221C58.8797 52.8798 58.877 52.8368 58.866 52.7956C58.855 52.7544 58.836 52.7158 58.81 52.682C58.784 52.6482 58.7516 52.6199 58.7146 52.5987C58.6416 52.5582 58.5558 52.5476 58.4752 52.5691C58.3946 52.5905 58.3254 52.6423 58.2821 52.7137C58.2154 52.8238 58.1182 52.9122 58.0023 52.9682C57.2815 52.6408 56.6919 53.4766 56.6919 54.3453C56.6919 55.75 57.9386 56.3005 58.4991 55.2232C58.7476 54.7479 58.8097 53.9941 58.4754 53.4221C58.6088 53.3301 58.7238 53.2197 58.8327 53.0418Z" fill="#4B1010"/>
<path d="M54.8926 57.3234L51.6393 56.8511C51.2321 56.7913 51.0803 57.4146 51.4967 57.4752L54.4747 57.9077C54.3589 58.9834 53.9142 61.0023 52.8576 60.737C52.4559 60.6358 52.2872 61.2545 52.6928 61.3565C54.3865 61.7828 55.0237 59.3783 55.1426 57.6431C55.151 57.5136 55.0436 57.3449 54.8926 57.3234Z" fill="#4B1010"/>
<path d="M113.629 83.409L110.315 82.2405C109.091 85.687 108.537 85.4447 108.453 86.1793C108.398 86.6562 108.711 86.772 109.334 85.7729C109.454 85.5812 109.79 85.7054 109.71 85.9316C109.503 86.509 109.187 86.7796 109.171 87.0342C109.15 87.3685 109.444 87.482 109.688 87.3409C110.202 87.0426 110.485 86.5067 110.646 86.3096C110.795 86.1271 111.094 86.3664 110.969 86.5588L110.852 86.7329C110.673 87.0641 110.474 87.7396 110.944 87.7327C111.24 87.7289 111.39 87.3317 111.514 87.1155C111.742 86.7175 112.005 86.3411 112.234 85.9423C112.345 85.7484 112.593 85.858 112.617 86.0459C112.6 85.9048 112.673 86.5726 112.906 86.9192C113.001 87.0626 113.175 87.209 113.355 87.0894C113.697 86.8617 112.961 85.6655 113.249 84.4472C113.333 84.0929 113.464 83.7387 113.629 83.4082L113.629 83.409Z" fill="#FFE55D"/>
<path d="M148.97 85.4263C148.513 84.4134 148.324 83.3062 148.143 82.2136L144.675 82.7787C145.054 84.0684 144.836 84.7247 144.41 85.7276C144.339 85.8956 144.13 86.2728 144.282 86.4407C144.433 86.6071 144.649 86.4859 144.769 86.361C144.981 86.1409 145.12 85.825 145.21 85.5352C145.273 85.3343 145.539 85.3466 145.607 85.5352C145.761 85.9676 145.954 86.3855 146.108 86.8172C146.195 87.0625 146.281 87.4996 146.607 87.5142C147.05 87.5333 146.94 86.8187 146.754 86.3824C146.653 86.1463 146.976 85.9377 147.109 86.1746C147.178 86.2981 147.409 86.9636 147.856 87.3416C147.928 87.4022 148.026 87.4804 148.128 87.4659C148.27 87.4459 148.408 87.2734 148.424 87.1369C148.442 86.969 148.342 86.7796 148.284 86.6278C148.199 86.4222 148.136 86.2084 148.095 85.9899C148.08 85.9373 148.087 85.8811 148.114 85.8337C148.141 85.7862 148.186 85.7514 148.238 85.7368C148.291 85.7223 148.347 85.7292 148.394 85.7561C148.442 85.783 148.477 85.8276 148.491 85.8802C148.579 86.1003 148.766 86.5504 149.013 86.7236C149.182 86.8425 149.263 86.5925 149.279 86.4445C149.316 86.0987 149.108 85.7307 148.97 85.4255L148.97 85.4263Z" fill="#FFE55D"/>
<path d="M130.463 43.6277C129.292 45.0447 128.521 47.8149 128.234 49.6313C132.77 49.1054 136.936 46.47 138.009 41.6096C138.064 41.3597 138.115 41.0936 138.135 40.8298C135.712 42.2008 132.169 41.5659 130.463 43.6277Z" fill="#FFE55D"/>
<path d="M142.669 73.4321C142.368 66.9178 137.541 64.6375 137.597 59.3201C137.623 56.9608 138.763 53.1616 136.342 50.619C135.371 49.5992 134.059 49.0065 132.678 48.7758C131.233 49.475 129.656 49.8983 128.057 50.0639C127.55 50.1513 127.802 49.5088 127.821 49.4313C126.283 50.1628 125.023 51.4141 124.628 53.1501C124.25 54.8162 124.818 56.7844 124.288 59.5102C123.175 65.2402 119.429 66.9078 118.984 73.2703C118.774 76.266 119.583 79.1567 121.659 81.2767C125.028 84.7186 132.61 86.279 137.089 84.0263C140.891 82.1148 142.865 77.6991 142.668 73.4313L142.669 73.4321Z" fill="#FFB43B"/>
<path d="M149.495 85.3151C149.043 84.3053 148.841 83.2196 148.624 81.9054C148.62 81.8688 148.609 81.8333 148.592 81.801C148.574 81.7687 148.55 81.7403 148.521 81.7175C148.356 81.601 148.075 81.6914 146.782 81.9046C145.824 78.5241 144.582 75.2309 143.067 72.0603C142.613 69.1819 141.463 67.3011 140.35 65.4824C138.071 61.756 137.946 60.4088 138.268 57.3594C138.44 55.727 138.636 53.8769 137.867 52.0236C137.152 50.2969 135.59 49.0034 133.557 48.4414C136.049 46.9945 137.689 44.8637 138.429 42.105C138.566 41.5951 138.708 41.0054 138.663 40.4541C138.643 40.2172 138.386 40.0508 138.176 40.1904C136.878 41.0445 135.386 41.1741 133.866 41.4663C131.221 41.9723 129.984 42.6708 128.879 45.369C128.89 43.3509 128.464 40.8743 126.636 39.324C126.322 39.0579 125.875 39.5187 126.197 39.7901C128.917 42.0965 128.267 46.8381 127.842 48.8347C126.693 49.3254 125.606 50.1175 124.875 51.2346C122.639 54.652 125.805 57.1984 121.901 64.2502C121.021 65.8389 119.079 68.2726 118.546 72.3524C115.149 76.2169 112.828 79.5139 111.648 82.1538L110.282 81.6723C110.101 81.6086 109.945 81.7098 109.883 81.8854C109.525 82.8945 109.175 83.9656 108.584 84.8374C108.236 85.3527 107.772 85.9116 107.966 86.5503C108.082 86.9322 108.37 87.0909 108.644 87.061C108.649 87.59 109.132 88.047 109.649 87.9221C109.818 87.8806 109.989 87.7971 110.159 87.6721C110.309 88.2893 111.217 88.5922 111.787 87.6943C111.957 87.4252 112.125 87.153 112.289 86.8793C112.368 87.0763 112.607 87.659 113.216 87.6529C113.778 87.6475 114.026 87.1737 113.952 86.627C113.826 85.6969 113.331 84.9777 114.196 83.4534C114.301 83.2686 114.203 83.054 114.011 82.9865L112.644 82.505C114.018 79.484 116.768 76.0313 118.429 74.0861C118.395 79.9471 122.143 84.0132 128.762 85.2768L128.749 98.1359C128.489 98.5469 128.252 99.4102 128.146 99.8772C126.419 100.238 125.848 100.021 125.333 100.425C125.006 100.682 124.822 101.223 124.905 101.469C124.977 101.676 125.068 101.625 126.054 101.635C128.601 101.661 128.503 101.668 129.147 101.231C129.494 100.996 129.688 100.866 129.751 100.876C129.817 100.888 129.887 101.181 129.872 101.496C129.871 101.525 129.876 101.554 129.887 101.581C129.897 101.608 129.913 101.632 129.934 101.653C129.954 101.674 129.978 101.691 130.005 101.702C130.032 101.713 130.06 101.719 130.089 101.719H130.681C130.738 101.719 130.793 101.696 130.833 101.656C130.874 101.617 130.898 101.563 130.899 101.506C130.944 100.37 130.717 98.5453 129.802 97.8844V85.4477C130.828 85.5919 131.866 85.6415 132.901 85.5957L132.895 98.1129C132.201 98.8919 131.999 100.37 132.043 101.506C132.048 101.625 132.143 101.719 132.261 101.719H132.853C132.882 101.719 132.911 101.713 132.937 101.702C132.964 101.69 132.988 101.674 133.008 101.653C133.029 101.632 133.045 101.608 133.055 101.581C133.066 101.554 133.071 101.525 133.071 101.496C133.062 101.319 133.075 100.828 133.241 100.889C133.585 101.017 133.987 101.464 134.478 101.588C134.739 101.654 135.395 101.648 137.833 101.626C138.251 101.623 138.02 100.808 137.689 100.494C137.18 100.011 136.565 100.242 134.797 99.8772C134.675 99.3351 134.382 98.2279 133.948 97.853C133.948 97.853 133.951 85.7767 133.939 85.5037C139.146 84.8251 142.807 80.6119 143.187 74.9149C144.179 77.2482 145.029 79.6394 145.732 82.0756L144.335 82.3033C144.159 82.3324 144.044 82.5441 144.102 82.7074C144.898 84.9678 143.514 85.4776 143.724 86.4668C143.861 87.1139 144.799 87.3393 145.38 86.4261C145.493 86.7206 145.608 87.0142 145.724 87.3056C146.112 88.2755 147.023 88.2111 147.33 87.5847C148.011 88.3123 148.79 87.9274 148.928 87.2741C149.152 87.3531 149.369 87.2841 149.556 87.071C150.033 86.5258 149.707 85.7974 149.492 85.3143L149.495 85.3151ZM147.982 86.0082C148.066 86.512 148.33 86.9283 148.309 87.1239C148.299 87.2174 148.192 87.3409 148.111 87.3516C148.054 87.3585 147.971 87.2879 147.93 87.2534C147.503 86.8915 147.281 86.2444 147.209 86.1179C147.005 85.7529 146.49 86.0573 146.647 86.4261C146.774 86.7229 146.936 87.4053 146.612 87.3984C146.377 87.3884 146.299 87.0088 146.216 86.7781C146.059 86.3402 145.868 85.9277 145.715 85.4968C145.61 85.2039 145.195 85.1955 145.1 85.5014C145.01 85.7905 144.737 86.4069 144.458 86.4069C144.422 86.4 144.394 86.3931 144.367 86.3632C144.287 86.2743 144.422 85.9806 144.479 85.8549C144.981 84.7431 145.145 84.063 144.82 82.8715L148.047 82.3447C148.619 85.7928 149.234 85.7705 149.163 86.4323C149.152 86.5411 149.111 86.6285 149.078 86.6301C148.847 86.4683 148.659 85.9937 148.596 85.8373C148.57 85.7602 148.515 85.6963 148.443 85.6584C148.37 85.6205 148.287 85.6115 148.208 85.6333C148.129 85.6551 148.062 85.706 148.02 85.7756C147.977 85.8453 147.963 85.9285 147.98 86.0082H147.982ZM132.719 44.4405C133.503 43.8248 134.83 43.2789 135.798 43.0105C136.154 42.9123 136.069 42.3802 135.717 42.3802C135.48 42.3802 134.357 42.8272 133.99 42.9875C131.983 43.8631 131.565 44.5624 128.597 48.3969C128.926 46.9953 129.552 44.912 130.553 43.7006C132.167 41.7484 135.592 42.2667 138 41.033C137.887 41.9255 137.446 43.3256 136.654 44.6552C135.489 46.6127 132.762 48.8815 128.571 49.4704C131.431 45.7631 132.407 44.6866 132.721 44.4405H132.719ZM126.43 50.4595C126.625 50.806 127.003 51.0575 127.555 51.2055C127.958 51.3174 128.131 50.6971 127.723 50.5867C127.439 50.5108 127.041 50.3429 126.952 50.0653C127.178 49.9105 127.411 49.7709 127.647 49.6467L127.62 49.7425C127.544 49.9971 127.804 50.2072 128.038 50.1811C129.677 50.0163 131.286 49.5716 132.696 48.8945C136.227 49.4987 138.023 52.0106 137.755 55.9724C137.726 56.4148 137.679 56.8511 137.634 57.2743C137.237 60.9915 137.645 62.3073 139.764 65.7408C140.676 67.2206 141.619 68.7495 142.187 70.9524C143.538 76.1923 141.325 81.7689 137.04 83.9235C132.768 86.0696 125.191 84.7193 121.743 81.1954C119.82 79.2302 118.881 76.4185 119.101 73.2771C119.547 66.9101 123.277 65.3237 124.403 59.5309C125.184 55.5162 123.513 52.9414 126.431 50.4579L126.43 50.4587V50.4595ZM110.947 86.7972C110.988 86.7367 111.028 86.6776 111.065 86.6209C111.271 86.3073 110.797 85.9415 110.557 86.236C110.414 86.41 110.125 86.9529 109.63 87.2404C109.458 87.3409 109.271 87.2734 109.286 87.0403C109.291 86.9544 109.37 86.8256 109.462 86.6753C109.574 86.4928 109.712 86.2651 109.818 85.9691C109.945 85.6149 109.429 85.4033 109.236 85.7115C109.127 85.8937 109.002 86.0657 108.861 86.2252C108.589 86.5204 108.538 86.4484 108.567 86.1923C108.644 85.5152 109.192 85.7061 110.385 82.3869L113.468 83.4741C112.912 84.6427 113.012 85.3136 113.272 86.4583C113.331 86.7144 113.385 86.9314 113.29 86.9943C113.163 87.0779 113.036 86.9092 113 86.8555C112.804 86.5634 112.726 86.0006 112.726 86.0006C112.677 85.7245 112.292 85.6065 112.134 85.8848C111.883 86.3211 111.531 86.8264 111.349 87.1798C111.247 87.3738 111.122 87.6176 110.943 87.6176C110.836 87.6176 110.81 87.5739 110.799 87.5571C110.713 87.4152 110.813 87.0464 110.947 86.7972Z" fill="#4B1010"/>
<path d="M125.551 69.721C125.391 69.6894 125.225 69.69 125.065 69.7229C124.904 69.7559 124.752 69.8204 124.617 69.9128C124.482 70.0052 124.366 70.1236 124.277 70.2611C124.188 70.3986 124.127 70.5525 124.098 70.7137C124.07 70.8749 124.073 71.0402 124.109 71.2001C124.144 71.3599 124.212 71.5111 124.306 71.6447C124.401 71.7784 124.521 71.8918 124.66 71.9784C124.799 72.0651 124.954 72.1232 125.116 72.1493C125.435 72.201 125.762 72.1251 126.026 71.9381C126.29 71.751 126.47 71.4677 126.527 71.1492C126.584 70.8308 126.514 70.5026 126.331 70.2355C126.149 69.9683 125.869 69.7836 125.551 69.721Z" fill="white"/>
<path d="M136.719 70.4202C136.559 70.3886 136.393 70.3892 136.233 70.4222C136.072 70.4551 135.92 70.5196 135.785 70.612C135.65 70.7044 135.534 70.8228 135.445 70.9603C135.356 71.0978 135.295 71.2517 135.266 71.4129C135.238 71.5741 135.241 71.7394 135.277 71.8993C135.312 72.0591 135.379 72.2103 135.474 72.3439C135.569 72.4776 135.689 72.591 135.828 72.6776C135.967 72.7643 136.122 72.8224 136.284 72.8485C136.603 72.9002 136.93 72.8243 137.194 72.6373C137.458 72.4502 137.638 72.1669 137.695 71.8485C137.752 71.53 137.682 71.2018 137.499 70.9347C137.317 70.6675 137.037 70.4828 136.719 70.4202Z" fill="white"/>
<path d="M128.215 67.0366C128.237 66.9998 128.251 66.9591 128.257 66.9168C128.263 66.8745 128.26 66.8315 128.249 66.7903C128.238 66.749 128.219 66.7104 128.193 66.6766C128.167 66.6428 128.134 66.6145 128.097 66.5934C128.024 66.5533 127.939 66.543 127.858 66.5644C127.778 66.5858 127.708 66.6373 127.665 66.7084C127.598 66.8182 127.501 66.9065 127.385 66.963C126.662 66.6363 126.075 67.4767 126.075 68.34C126.075 69.7378 127.319 70.2991 127.882 69.218C128.13 68.7426 128.192 67.9889 127.857 67.4169C128.003 67.3177 128.125 67.1876 128.215 67.0358L128.215 67.0366Z" fill="#4B1010"/>
<path d="M135.51 67.2995C135.531 67.2627 135.545 67.222 135.551 67.1798C135.557 67.1375 135.554 67.0945 135.543 67.0533C135.532 67.0121 135.513 66.9735 135.487 66.9397C135.461 66.9059 135.429 66.8776 135.392 66.8564C135.319 66.8159 135.233 66.8053 135.152 66.8268C135.072 66.8482 135.002 66.9 134.959 66.9714C134.891 67.0806 134.794 67.1688 134.679 67.2259C133.956 66.8985 133.37 67.7396 133.37 68.603C133.37 70.0016 134.613 70.5613 135.178 69.4809C135.426 69.0048 135.488 68.2518 135.153 67.6798C135.287 67.5871 135.402 67.4766 135.511 67.2988L135.51 67.2995Z" fill="#4B1010"/>
<path d="M133.49 73.452C133.243 74.3935 131.976 75.1695 130.726 75.1779C129.373 75.171 128.487 74.2463 128.288 72.9513C128.277 72.8846 128.203 72.7765 128.09 72.7289C127.869 72.6361 127.623 72.7734 127.655 73.0256C127.777 73.9948 128.32 74.8942 129.073 75.3719C130.624 76.3556 133.593 75.582 134.108 73.6199C134.213 73.2181 133.595 73.0471 133.49 73.452Z" fill="#4B1010"/>
</svg>
