<svg width="155" height="155" viewBox="0 0 155 155" fill="none" xmlns="http://www.w3.org/2000/svg">
<path d="M39 81.8792C33.21 84.9672 15.3766 88.9508 10.3377 80.9767C5.90022 73.98 4.99619 32.6035 11.3151 25.5319C17.2595 18.8363 39 15.5259 45.6208 23.3502C47.5763 26.2839 49.006 31.9265 49.6831 44.7155C49.7603 46.0696 51.5212 45.0159 51.4888 43.6625C51.075 26.4946 51.7142 18.6858 34.6366 16.88C26.0612 16.203 14.4 18.6109 9.73555 24.2527C2.58908 32.8289 3.11558 71.1213 8.08114 82.0297C12.5943 91.9601 33.9604 87.5218 39.6022 84.0609C41.3353 83.0079 40.8806 80.9018 39 81.8792Z" fill="#3D9CFB"/>
<path d="M33.4334 58.182C32.5034 58.6591 31.7111 59.3662 31.1316 60.236C30.5522 61.1058 30.205 62.1095 30.123 63.1514C22.2995 60.5181 18.9891 67.2886 18.9142 70.599C18.837 72.2542 20.6837 72.7127 21.0959 70.4446C22.0107 65.4196 26.9632 63.0719 30.9514 65.7052C31.6284 66.1568 32.3047 65.4798 32.2298 64.7271C31.8538 61.3418 34.6369 58.558 36.8186 60.3637C36.9099 60.4621 37.0205 60.5406 37.1435 60.5943C37.2665 60.648 37.3993 60.6757 37.5335 60.6757C37.6677 60.6757 37.8005 60.648 37.9235 60.5943C38.0465 60.5406 38.1571 60.4621 38.2484 60.3637C39.4519 58.6336 35.7656 56.9754 33.4334 58.182Z" fill="#3D9CFB"/>
<path d="M36.4423 39.675C35.1638 40.5775 34.7122 42.2296 34.7871 43.8878C30.2739 42.8348 26.8879 47.2731 27.0385 51.6365C21.321 49.3799 15.304 54.3447 15.304 60.4373C15.304 62.3249 17.1853 61.6672 17.1853 60.6628C17.1853 55.3961 23.5042 51.1084 28.0181 54.4188C28.7701 54.9453 29.5984 54.1926 29.3722 53.2901C28.4698 49.3027 30.7263 44.6382 35.6919 46.4439C38.5483 47.4977 36.4438 42.9082 38.0241 41.253C38.3793 40.944 38.809 40.7329 39.2706 40.6407C39.7323 40.5485 40.21 40.5783 40.6567 40.7272C42.7619 41.1796 40.2792 37.0417 36.4423 39.675Z" fill="#3D9CFB"/>
<path d="M131.308 31.1746C139.659 43.7374 126.418 55.7746 134.091 61.6426C142.292 67.9615 133.791 74.3568 127.922 75.6352C126.869 94.6683 116.487 98.5052 99.4854 97.6027C96.1001 97.4522 90.0067 100.988 92.1884 107.308C97.7553 114.53 108.438 108.511 118.519 104.451C118.75 104.364 118.999 104.341 119.242 104.385C119.484 104.429 119.71 104.538 119.895 104.7C120.081 104.862 120.218 105.071 120.294 105.306C120.37 105.54 120.38 105.791 120.324 106.031C117.993 114.08 102.729 114.933 97.6804 117.688C96.2306 118.48 94.6696 123.105 94.5206 128.447C104.827 131.831 130.18 116.861 135.669 111.82C142.891 104.975 148.608 53.2161 144.922 42.4582C142.367 35.0107 131.308 31.1746 131.308 31.1746Z" fill="#3D9CFB"/>
<path d="M58.86 87.5969C58.9372 87.6501 86.0169 95.1023 86.0941 95.1201C83.006 90.6818 78.6457 79.9988 86.6206 75.2594C85.2665 73.3032 63.675 66.833 60.1407 67.7362C56.6049 68.7143 61.4948 72.1745 61.4948 72.1745C65.7826 77.665 63.6009 86.4659 58.86 87.5969Z" fill="#3D9CFB"/>
<path d="M32.303 24.4787C26.3585 24.1776 18.3103 25.9077 15.3767 30.2687C10.3378 37.9448 5.97752 77.819 21.6971 79.2464C28.3927 80.0732 36.969 76.9891 40.8807 72.4751C46.748 65.7795 45.9219 34.7101 42.16 28.6915C40.6553 26.2087 37.1195 24.7049 32.303 24.4787ZM39.3753 71.121C34.6352 76.312 20.9437 80.9016 16.1286 72.9268C11.1639 64.7265 12.819 37.1921 17.0319 31.5472C19.3641 28.3873 26.3601 26.2056 32.2281 26.5067C36.2912 26.7322 39.2588 27.884 40.4283 29.8171C43.7032 35.2304 44.6427 65.4035 39.3769 71.121H39.3753Z" fill="#3D9CFB"/>
<path d="M105.278 49.0042C112.651 47.725 115.134 37.5693 104.15 35.5373C96.8528 34.1832 93.8435 40.3523 95.6492 44.7906C97.1886 48.487 102.679 49.4142 105.278 49.0042ZM109.265 41.6308C110.018 44.0387 108.588 46.5963 104.526 46.8225C103.625 43.6413 102.389 40.5646 100.839 37.6441C105.88 37.1176 108.363 38.7728 109.265 41.6308Z" fill="#001434"/>
<path d="M97.4537 51.4864C96.1999 52.3029 94.7909 52.8514 93.315 53.0975C91.8392 53.3435 90.3284 53.2818 88.8775 52.9161C87.5983 52.3896 87.2223 54.4208 88.4266 55.0222C91.2831 56.5268 94.7455 56.2265 98.0559 53.7437C99.5605 52.6151 98.5824 50.8093 97.4537 51.4864Z" fill="#001434"/>
<path d="M90.0068 48.5525C89.5319 48.1448 89.1863 47.6072 89.0126 47.0059C88.8388 46.4045 88.8444 45.7655 89.0287 45.1673C89.7057 43.7375 92.1885 45.5433 92.5644 44.1892C92.7188 43.587 92.6416 42.9856 90.8344 42.7594C90.203 42.6422 89.551 42.7156 88.9615 42.9702C88.372 43.2248 87.8715 43.6492 87.524 44.1892C86.6964 45.5433 86.6964 47.725 88.6527 49.6056C89.6308 50.5837 90.9664 49.4743 90.0068 48.5525Z" fill="#001434"/>
<path d="M133.791 32.152C131.684 29.9703 129.427 28.3908 128.224 25.3059C120.776 5.37033 109.792 7.54971 101.817 9.05667C90.9097 11.0878 85.0416 4.24166 73.3048 11.2384C61.1928 18.4605 64.2021 26.8105 58.0337 34.9359C52.0893 42.7594 57.1305 55.7747 64.9548 58.784C63.9533 59.6351 63.0223 60.5658 62.1709 61.5671C60.2903 56.7528 54.3736 57.1666 52.9933 62.5452C52.7243 63.5111 52.1742 64.3753 51.413 65.028C45.0185 70.5949 46.8242 86.2427 56.604 87.6725C56.1531 89.0266 55.1742 89.9291 54.8739 91.2832C36.7433 94.6692 36.2925 104.749 29.2201 118.893C26.5119 120.398 20.7195 120.698 18.0106 122.504C16.6565 123.406 16.2805 124.836 16.3561 127.018C16.4333 132.962 36.0663 140.032 47.3507 142.44C47.8772 144.922 49.3818 146.352 53.6703 146.577C60.8925 147.029 80.073 147.481 84.6649 147.481C90.2318 147.481 92.3386 147.105 94.6709 132.961C97.3191 133.495 100.033 133.622 102.72 133.338C104.075 138.453 103.322 145.825 108.965 145.751C115.585 145.596 114.532 135.068 116.036 128.597C120.4 126.717 124.161 124.987 127.396 123.332C128.299 127.771 127.923 132.961 133.038 133.111C139.734 133.262 138.756 121.676 140.336 114.83C147.783 102.869 153.2 53.8941 150.191 43.1362C147.858 34.8602 135.972 32.528 133.791 32.152ZM61.5695 53.7435C58.0337 50.0572 55.4004 41.2548 59.6889 36.2143C65.7067 29.0679 63.3752 19.664 74.3571 13.0441C84.7382 6.79932 91.8106 13.2695 102.193 11.0878C109.791 9.50829 119.119 7.85311 126.266 26.0586C128.899 32.8291 134.24 32.7542 136.196 40.7267C137.926 46.8951 134.391 50.1298 133.939 55.2459C133.262 62.6178 143.193 63.0694 141.312 67.4328C139.281 72.1721 134.09 74.6549 131.682 75.633C131.457 64.8002 125.815 58.5555 120.021 56.0727C128.073 45.3178 117.841 35.3119 106.933 32.528C101.893 31.2496 100.162 29.7488 98.8837 27.8635C97.5296 25.908 101.131 23.4793 98.507 22.9736C97.4493 22.7706 96.3261 24.5539 94.8963 25.5321C87.2225 30.9485 74.3609 34.1832 66.61 29.8955C65.5562 29.0679 64.6537 30.4976 65.7067 31.3244C66.3907 31.8016 67.1233 32.205 67.8923 32.528C65.8611 38.5497 65.7862 48.1009 70.2994 55.022C69.4726 55.5493 68.269 56.3012 66.9898 57.2037C65.4813 57.0524 63.4501 55.6998 61.5695 53.7435ZM88.3505 88.8012C86.7104 88.7979 85.0825 88.5181 83.5354 87.9736C83.2437 86.7868 83.0426 85.5794 82.9341 84.3621C84.5166 84.7017 86.1298 84.8781 87.7483 84.8886C89.0275 84.8886 89.4035 83.2334 88.125 83.1586C86.4001 82.9818 84.6902 82.6802 83.0089 82.2561C83.7616 74.0551 92.4876 78.5698 91.9642 75.6354C91.738 74.2812 91.738 71.1971 93.9197 71.3476C96.553 70.8211 98.2082 76.6891 100.54 77.0643C104.678 77.0643 109.794 77.2905 114.308 78.7195C123.636 81.8075 126.197 85.1897 127.698 87.146C125.667 92.4118 122.131 97.3766 116.564 98.5809C110.62 99.8594 89.8574 100.687 84.5159 90.5312C86.8481 90.9821 89.256 91.1334 89.4058 90.0047C89.4185 89.8558 89.401 89.7058 89.3544 89.5638C89.3078 89.4218 89.2329 89.2906 89.1344 89.1782C89.0358 89.0658 88.9156 88.9745 88.7809 88.9097C88.6462 88.8449 88.4998 88.808 88.3505 88.8012ZM86.7709 32.9078C86.3888 32.6917 86.0182 32.5311 85.6423 32.3057C89.6069 31.1953 93.3311 29.3587 96.6256 26.8893C96.7028 29.071 98.0554 30.6505 100.012 31.7792C98.1302 31.8564 96.2682 32.6037 96.4002 33.5092C96.4288 33.646 96.4858 33.7752 96.5673 33.8887C96.6488 34.0022 96.753 34.0974 96.8735 34.1682C96.9939 34.2391 97.1278 34.284 97.2665 34.3002C97.4053 34.3163 97.5459 34.3033 97.6794 34.2619C109.414 30.8767 128.768 44.0664 117.39 55.9283C102.981 70.9485 60.0641 65.1029 69.9203 33.0553C75.1862 34.7854 80.6782 32.3782 85.4176 34.5592C86.6212 35.0864 87.8872 33.5347 86.7717 32.9047L86.7709 32.9078ZM100.161 100.844C103.652 101.305 107.179 101.431 110.694 101.22C106.557 102.575 103.547 104.231 99.7854 104.154C99.1833 104.077 98.4954 104.609 98.6575 105.132C99.1501 106.723 103.321 105.659 105.428 105.209C111.218 103.554 126.118 97.9873 131.382 95.2791C133.865 93.9999 132.511 92.5709 130.253 93.3985C128.449 94.0755 126.267 95.1285 125.138 95.5045C126.71 93.6735 128.003 91.6202 128.975 89.411C155.455 96.0318 107.76 111.152 102.87 111.829C99.56 112.281 92.7138 112.582 92.9393 107.467C93.0157 104.449 93.0906 102.568 100.162 100.838L100.161 100.844ZM128.449 84.5196C128.043 84.0245 127.617 83.5474 127.169 83.0899C128.373 77.9745 129.276 69.3226 126.492 64.3579C130.179 70.6706 130.33 77.4411 128.449 84.5127L128.449 84.5196ZM71.6496 66.7634C82.3319 69.0208 88.0494 71.8795 89.8551 72.9325C89.7363 73.5268 89.6858 74.1326 89.7046 74.7383C79.6993 73.6096 78.6456 87.8277 84.2882 93.8462C76.9904 90.6115 68.6403 87.8246 60.7419 87.3012C65.8573 85.0446 65.9329 77.2203 63.3752 73.0074C66.3861 73.3842 68.5655 73.7601 71.2744 74.1361C73.3048 74.4372 73.155 72.406 70.9733 71.9544C68.5655 71.4279 66.234 71.353 62.848 70.9763C61.5695 70.8265 56.9807 68.5692 58.334 66.162C58.7826 65.1785 61.7934 64.652 71.6504 66.758L71.6496 66.7634ZM55.7015 85.2646C47.9529 82.7069 48.4794 69.4662 53.6703 65.5545C54.2474 65.1043 54.6469 64.4648 54.7982 63.7488C55.5509 60.2878 59.1624 58.1069 60.5883 63.3728C54.7982 63.3728 54.6438 68.6386 58.7077 71.3476C60.6632 72.7017 62.1678 74.2812 62.6194 77.0643C60.8894 76.9146 58.3309 75.7859 58.1055 76.8389C57.8044 78.4941 60.5126 79.0206 62.8449 79.0963C62.8483 80.215 62.6963 81.3289 62.3933 82.4059C59.7607 82.1804 57.8801 80.8263 57.6539 81.8045C57.2779 83.2334 59.5353 83.9862 61.2654 84.2865C59.9892 85.6413 58.1086 86.0922 55.7015 85.2646ZM34.0351 113.627C39.9024 100.386 40.2034 97.0763 55.3255 93.2394C56.604 95.1949 61.9455 98.581 69.092 101.289C56.1531 104.975 58.6351 119.57 57.657 130.703C57.3567 131.38 54.4223 133.11 52.7671 134.163C46.8998 132.508 33.6584 124.76 31.2512 119.495C32.3027 117.6 33.2325 115.64 34.0351 113.627ZM47.0496 140.184C37.2698 138.003 23.8786 132.962 19.6657 128.598C18.1611 127.019 18.9138 124.236 20.0425 123.708C21.8474 122.881 27.6398 122.129 29.6717 121C32.8315 126.643 44.2665 133.338 50.5105 135.668C49.9125 136.001 49.3567 136.406 48.8553 136.872C48.016 137.829 47.3989 138.959 47.0481 140.183L47.0496 140.184ZM86.7717 144.923C84.1384 145.3 59.6889 145.6 52.0152 143.946C51.399 143.847 50.8237 143.575 50.3562 143.162C49.8887 142.749 49.5483 142.211 49.3748 141.612C49.2013 141.012 49.2018 140.376 49.3762 139.777C49.5507 139.178 49.8918 138.641 50.36 138.228C51.9403 137.024 57.657 133.789 58.7108 132.661C64.8791 138.303 83.5362 139.958 90.5329 140.259C90.157 141.462 89.4042 144.546 86.7717 144.922V144.923ZM91.9627 135.143C91.6616 136.197 91.3605 137.25 91.1351 138.231C78.0449 137.554 63.6007 135.071 59.7638 130.859C60.9674 118.37 57.5821 106.86 71.8758 102.346C78.0373 104.495 84.5359 105.515 91.0594 105.357C90.157 110.247 92.5641 112.73 95.2723 113.783C101.667 116.265 113.929 110.548 121.979 107.539C120.851 114.761 104.977 117.243 102.57 117.921C93.7676 120.322 94.2177 126.416 91.9627 135.142V135.143ZM108.965 143.419C105.429 143.645 105.877 136.272 104.827 132.736C107.76 131.984 111.071 130.404 113.854 129.275C111.69 143.14 112.32 143.226 108.963 143.418L108.965 143.419ZM137.176 122.129C135.897 130.705 135.596 130.852 133.038 130.78C129.803 130.703 130.182 125.363 129.427 122.056C132.426 120.54 135.295 118.778 138.004 116.79C137.627 118.818 137.401 120.623 137.176 122.128V122.129ZM139.583 112.198C138.756 113.854 133.866 118.517 108.212 129.351C103.548 131.307 100.087 131.533 95.2723 130.705C96.0999 124.915 97.6802 121 103.022 119.871C105.955 119.27 125.44 114.831 124.161 106.556C129.201 104.374 135.355 101.412 137.251 99.0326C141.907 93.2001 137.174 89.4033 129.653 87.3753C130.764 84.3019 131.423 81.0835 131.609 77.8209C133.791 76.9933 140.41 74.1346 143.119 68.1917C146.053 61.872 134.467 60.819 135.897 55.1015C137.327 49.3114 140.636 40.8078 135.746 34.6387C139.659 35.6917 146.429 38.2501 148.085 43.6665C151.094 53.217 145.075 101.211 139.583 112.198V112.198Z" fill="#001434"/>
<path d="M79.023 35.1613C71.2551 34.3445 69.393 40.8788 72.1769 44.9418C73.3804 46.7468 75.637 47.7249 78.6463 47.7983C81.4301 47.8755 83.4613 47.1969 84.7397 45.6922C87.6741 42.2298 86.1556 35.9117 79.023 35.1613ZM83.2359 44.4146C82.7842 45.0916 81.5807 45.5432 80.1478 45.6938C79.1834 42.7889 77.9761 39.9704 76.5387 37.2681C80.9785 36.29 86.2452 39.9763 83.2359 44.4146Z" fill="#001434"/>
</svg>
