<svg width="156" height="155" viewBox="0 0 156 155" fill="none" xmlns="http://www.w3.org/2000/svg">
<path d="M48.6068 32.6341C49.4891 33.0585 50.3936 33.4347 51.3166 33.7612C52.1426 34.0623 52.4592 33.9156 52.6676 33.3829C52.876 32.8503 55.9023 23.0072 56.5276 20.5985C56.7592 19.6953 56.9059 19.0931 56.381 18.8692C55.4163 18.4509 54.4057 18.1478 53.3701 17.966C52.9918 17.966 52.768 17.8888 52.3974 19.0159C51.5636 21.4246 49.2322 28.6428 48.5374 31.6537C48.383 32.2558 48.4602 32.4797 48.6068 32.6341Z" fill="#3D9CFB"/>
<path d="M104.416 102.949C106.145 103.929 109.002 104.909 110.731 105.658C112.46 106.407 113.518 105.28 111.333 104.307C109.148 103.335 106.894 102.2 105.095 101.52C103.297 100.841 102.687 101.976 104.416 102.949Z" fill="#3D9CFB"/>
<path d="M104.863 98.9649C106.222 99.7369 106.222 99.4898 107.727 100.246C109.233 101.003 109.271 99.3431 108.553 98.9649C103.62 96.0081 103.489 98.1543 104.863 98.9649Z" fill="#3D9CFB"/>
<path d="M112.645 85.7248C107.079 84.2271 103.165 90.766 107.38 94.4562C108.777 95.8536 108.785 92.2715 110.537 89.5617C110.885 88.9595 114.189 86.1803 112.645 85.7248Z" fill="#3D9CFB"/>
<path d="M45.1484 31.2055C45.9745 31.5066 46.0517 31.1283 46.2756 30.75C46.5766 30.2251 48.5375 24.2806 49.2092 21.8797C49.3636 21.0459 49.6647 20.6753 49.1397 20.3742C48.6147 20.0732 46.5766 19.1699 45.7506 19.3938C45.4495 19.471 45.2025 19.8416 44.7779 20.9764C43.589 24.1108 41.767 29.399 42.0681 29.924C42.3692 30.4489 44.7084 31.0511 45.1484 31.2055Z" fill="#3D9CFB"/>
<path d="M50.8853 70.6861C51.7113 74.7468 56.7525 96.2549 59.1535 101.744C60.6589 105.21 63.0135 105.133 67.275 104.376C72.8412 103.481 87.2074 99.7444 96.3094 96.8571C96.3094 96.8571 99.0114 76.3294 103.003 74.0674C106.538 72.1143 114.737 75.7273 114.737 75.7273C114.737 75.7273 115.864 67.6752 116.536 63.2439C117.416 56.8748 112.205 59.7622 80.5913 67.8296C69.6057 70.6089 68.4091 72.1143 65.5449 78.7304C66.371 73.6969 67.0889 68.6943 70.4394 66.7797C74.2995 64.5949 89.9867 61.283 106.84 57.4538C106.068 54.2191 104.207 52.9376 100.664 53.2387C93.6691 53.81 83.8029 56.9212 81.6335 55.6473C79.4642 54.3735 79.1554 51.2855 73.8131 52.0344C50.1125 55.4929 47.8428 55.6937 50.8845 70.6861H50.8853Z" fill="#3D9CFB"/>
<path d="M25.4082 125.514C25.5626 126.865 26.8364 126.865 26.8364 125.592C26.8873 124.688 26.8642 123.782 26.7669 122.882C26.5353 121.678 25.1071 121.979 25.1843 123.26C25.2615 124.542 25.2924 124.163 25.4082 125.514Z" fill="#3D9CFB"/>
<path d="M37.1047 28.2718C37.9269 28.6494 38.7823 28.9512 39.66 29.1751C40.185 29.1751 40.3394 28.4957 41.3893 25.1838C41.6132 24.4118 41.6904 24.1339 41.5437 23.7556C41.2427 23.4545 38.3855 22.3274 37.93 22.7057C37.4745 23.084 36.386 26.5657 36.3474 27.2914C36.2779 27.7392 36.3474 27.8936 37.1039 28.2718H37.1047Z" fill="#3D9CFB"/>
<path d="M17.2484 113.703C18.7924 114.158 20.1203 113.209 21.3091 112.575C25.9412 110.12 26.0493 108.368 22.8532 104.307C20.5371 101.443 17.7347 103.705 15.3338 105.133C13.0718 106.484 12.7013 108.438 14.0523 110.699C14.7245 112.05 15.8584 113.116 17.2484 113.703ZM17.7734 105.512C18.5994 104.979 19.657 104.23 20.5603 104.608C21.8341 105.133 22.8763 107.009 23.4167 108.291C23.5167 108.581 23.502 108.899 23.3757 109.178C23.2495 109.458 23.0211 109.679 22.7374 109.796C18.8773 112.05 18.2983 113.255 16.4995 111.224C13.674 108.044 15.4882 107.032 17.7734 105.512Z" fill="#3D9CFB"/>
<path d="M29.5084 122.056C31.0524 122.434 31.7627 122.727 32.2181 122.357C33.2681 121.454 32.3641 117.169 32.1402 116.111C31.9163 115.054 30.5576 115.061 30.712 116.791C30.8864 118.071 30.9869 119.359 31.013 120.651C30.1098 120.419 28.5272 119.971 28.3805 120.651C28.3033 121.037 28.1566 121.678 29.5076 122.056H29.5084Z" fill="#3D9CFB"/>
<path d="M34.2481 115.362C35.7921 116.034 37.1817 116.636 37.7839 116.188C38.7566 115.586 38.3089 111.224 38.3861 110.398C38.3975 110.277 38.3835 110.155 38.345 110.04C38.3066 109.925 38.2445 109.819 38.1627 109.729C38.081 109.639 37.9814 109.567 37.8703 109.518C37.7592 109.469 37.639 109.444 37.5175 109.444C37.3961 109.444 37.2759 109.469 37.1648 109.518C37.0537 109.567 36.9541 109.639 36.8724 109.729C36.7906 109.819 36.7285 109.925 36.69 110.04C36.6516 110.155 36.6376 110.277 36.649 110.398C36.5796 111.826 36.5024 114.305 36.5024 114.305C35.8606 114 35.1757 113.797 34.472 113.702C34.2767 113.717 34.0925 113.799 33.9502 113.934C33.808 114.068 33.7163 114.248 33.6907 114.442C33.6643 114.636 33.7052 114.833 33.8066 115.001C33.9081 115.168 34.0639 115.296 34.2481 115.362Z" fill="#3D9CFB"/>
<path d="M109.557 94.6803C109.487 95.0509 109.256 95.5835 110.012 95.653C110.737 95.7477 111.472 95.7243 112.189 95.5835C113.177 95.2516 112.56 94.7421 111.217 92.4955C110.329 91.1445 109.827 94.3792 109.557 94.6803Z" fill="#3D9CFB"/>
<path d="M136.578 98.7413C137.249 98.1314 139.048 97.0351 138.014 96.1859C137.473 95.7459 135.605 95.1283 135.698 96.487C135.698 97.1046 135.234 99.9996 136.578 98.7413Z" fill="#3D9CFB"/>
<path d="M133.219 96.1081C128.379 99.0417 131.181 106.723 136.23 106.106C138.639 105.843 136.029 104.114 134.802 101.898C133.999 100.107 135.373 94.788 133.219 96.1081Z" fill="#3D9CFB"/>
<path d="M117.2 45.4954C118.744 46.6225 119.909 46.5453 121.06 45.9432C125.645 43.3878 141.742 26.8437 143.317 24.4351C144.598 22.5514 144.753 21.7253 143.317 20.1504C142.729 19.3177 141.991 18.6028 141.14 18.0428C140.314 17.6645 138.715 18.2899 137.457 17.3635C131.513 13.0248 135.573 13.0788 133.466 10.5235C132.038 9.24195 130.162 8.20746 127.753 9.68972C124.364 11.8745 109.997 25.7089 107.148 30.7501C106.736 31.4312 106.518 32.2121 106.518 33.0082C106.518 33.8043 106.736 34.5852 107.148 35.2663C108.623 37.9683 114.119 43.0636 117.2 45.4954ZM124.341 17.3635C129.158 11.7973 137.581 18.9461 132.918 24.5817C128.031 29.8468 119.678 23.4546 124.341 17.3635ZM119.593 26.3882C121.137 27.9322 123.499 30.0012 125.082 31.5066C126.664 33.0121 124.495 32.8422 123.538 32.0316C122.581 31.221 119.554 28.4958 118.203 27.0676C117.053 25.8633 118.103 24.8828 119.593 26.3882ZM115.98 28.6425C117.038 29.7001 118.219 30.9199 118.913 31.7305C119.608 32.5411 119.292 34.1392 118.01 32.8577L114.853 29.7001C113.888 28.7197 114.961 27.6234 115.995 28.6425H115.98ZM113.046 31.9544C114.227 33.1819 115.532 34.2087 117.037 35.8144C118.543 37.4202 117.709 38.447 116.435 37.2427C115.162 36.0383 113.347 34.5329 111.996 33.1047C110.645 31.6765 112.143 30.9971 113.062 31.9544H113.046Z" fill="#3D9CFB"/>
<path d="M115.015 87.609C114.189 86.1808 112.838 88.2111 112.39 89.0372C111.618 90.4654 114.12 90.1643 115.015 90.3882C116.752 90.7665 115.471 88.2883 115.015 87.609Z" fill="#3D9CFB"/>
<path d="M129.907 109.117C130.816 109.706 131.803 110.164 132.841 110.475C133.976 110.823 134.57 109.642 133.52 109.117C132.47 108.592 131.636 108.213 130.587 107.688C129.537 107.163 129.382 108.684 129.907 109.117Z" fill="#3D9CFB"/>
<path d="M136.901 102.879C137.503 103.929 138.26 105.658 139.464 104.608C140.136 104.075 141.34 102.423 139.611 102.122C138.785 101.976 135.851 101.149 136.901 102.879Z" fill="#3D9CFB"/>
<path d="M117.88 104.307C119.424 104.979 121.184 105.581 122.311 105.959C123.438 106.338 124.573 105.187 122.844 104.531C121.396 103.876 119.914 103.299 118.405 102.802C117.054 102.424 116.374 103.628 117.88 104.307Z" fill="#3D9CFB"/>
<path d="M116.899 108.214C118.25 108.739 121.4 110.043 122.612 110.476C123.824 110.908 124.418 109.642 123.144 109.117C121.871 108.592 118.705 107.241 117.501 106.801C116.297 106.361 115.617 107.689 116.899 108.214Z" fill="#3D9CFB"/>
<path d="M123.145 94.3793C124.874 94.7499 125.322 100.772 126.904 99.1117C127.74 98.2795 128.271 97.1906 128.414 96.02C128.556 94.8495 128.301 93.665 127.689 92.6569C127.283 91.9886 126.732 91.4192 126.078 90.9902C121.956 88.3345 117.332 92.9202 119.833 93.476C121.184 93.7771 122.465 94.2249 123.145 94.3793Z" fill="#3D9CFB"/>
<path d="M118.25 95.1278C118.327 96.1083 118.813 99.8139 120.357 97.7604C121.214 96.6255 122.758 95.398 121.261 95.0506C120.365 94.8268 118.18 93.6996 118.25 95.1278Z" fill="#3D9CFB"/>
<path d="M129.382 113.401C130.587 113.934 134.207 115.624 135.559 116.111C136.91 116.597 137.589 115.439 136.161 114.76C134.732 114.08 131.799 112.652 129.985 111.973C128.17 111.293 128.178 112.876 129.382 113.401Z" fill="#3D9CFB"/>
<path d="M58.7673 26.08C60.7205 26.7594 61.6932 27.2071 62.8975 27.6626C64.1019 28.1181 64.0247 26.4583 62.527 25.8561C61.0293 25.2539 60.5661 25.0301 59.3695 24.6518C58.1728 24.2735 56.8064 25.4083 58.7673 26.08Z" fill="#001434"/>
<path d="M64.325 31.3524C62.359 30.4208 60.3222 29.6464 58.2339 29.0364C55.9179 28.5114 56.5046 30.0863 57.6317 30.5418C62.2638 32.3792 63.2982 32.6957 64.325 33.0199C65.7609 33.46 65.9076 32.0318 64.325 31.3524Z" fill="#001434"/>
<path d="M99.073 96.3321C98.6253 99.2657 97.529 103.705 100.277 105.21C112.159 111.602 124.874 116.636 137.334 121.832C139.287 122.658 140.87 123.028 141.842 120.025C143.718 114.397 145.702 103.813 146.474 97.9147C147.138 93.082 145.571 92.1942 141.842 90.4649C132.298 85.9919 122.502 82.0739 112.506 78.7304C103.636 75.9434 102.786 74.052 99.073 96.3321ZM107.797 79.0314C119.022 82.3202 130.362 87.2302 141.194 91.9703C142.622 92.5724 144.428 93.2518 144.876 94.7495C145.556 97.0655 144.799 99.644 144.428 102.045C143.448 108.144 142.398 114.536 140.136 120.326C139.688 120.998 138.785 120.627 137.959 120.326C131.636 118.141 124.418 115.138 117.115 111.834C102.061 104.932 99.7447 104.407 99.7447 101.906C99.7447 96.7027 102.146 87.8632 103.504 82.876C104.794 78.1359 106.592 78.684 107.797 79.0314Z" fill="#001434"/>
<path d="M29.3533 60.3104C27.1762 59.106 21.3089 56.4503 21.0079 55.6783C20.7068 54.7828 23.5632 53.0458 22.135 53.0458C20.7068 53.0458 18.5992 55.3618 19.8807 56.8132C20.8303 57.8399 28.8978 61.9161 30.5576 62.3021C31.538 62.5646 31.538 61.5147 29.3533 60.3104Z" fill="#001434"/>
<path d="M59.7396 34.4404C58.6764 33.9526 57.5975 33.4995 56.5049 33.0816C55.3006 32.6262 54.4051 33.8536 55.9027 34.5099C57.4004 35.1661 58.1647 35.3359 59.1375 35.7914C60.1102 36.2469 60.5657 34.7337 59.7396 34.4404Z" fill="#001434"/>
<path d="M67.7145 42.1065C69.3358 36.44 71.397 29.3993 72.6013 23.5783C73.4274 19.5871 73.3733 18.5371 69.2894 17.1089C60.4191 14.0209 51.9965 11.1645 41.9913 8.38523C39.8142 7.78307 37.1044 7.40479 36.2012 9.92925C30.3339 27.5465 30.1023 30.7734 33.1904 32.1167C64.8504 45.5651 65.6456 49.3248 67.7145 42.1065ZM33.7462 30.9742C32.5419 30.4492 32.5419 29.021 32.7658 27.8861C33.4451 24.2731 35.545 14.7234 37.9537 10.0605C38.633 8.70948 40.7406 9.45832 41.8137 9.75941C51.1395 12.4692 60.0871 15.4028 68.888 18.5603C70.3162 19.0853 71.8216 19.6874 71.3661 21.9417C71.1423 23.146 67.9075 38.4163 65.7305 43.2259C64.9585 44.8857 62.8741 43.6042 61.7392 43.1564C54.1735 39.8522 35.9773 32.0318 33.7231 30.9742H33.7462Z" fill="#001434"/>
<path d="M19.7349 49.1782L34.8508 57.3769C38.1396 59.0059 41.6291 58.396 20.4838 47.8272C19.0556 47.0552 17.9972 46.3218 17.4722 46.8468C16.9472 47.3717 19.132 48.7999 19.7342 49.1782H19.7349Z" fill="#001434"/>
<path d="M30.4888 41.5814C33.3453 42.7086 35.1209 43.6118 37.4369 44.5151C36.1554 45.565 35.1827 46.4682 33.9011 47.5259C31.2686 46.6921 30.4425 47.4487 32.5501 48.5758C32.0174 49.2552 30.8208 50.2279 31.9479 50.3051C32.3405 50.3019 32.7284 50.2204 33.089 50.0653C33.4496 49.9102 33.7755 49.6846 34.0478 49.4019C36.0087 50.3823 37.5836 51.1312 39.8456 52.2583C39.0118 53.1615 38.3402 54.142 39.4673 54.142C40.2933 54.142 40.5944 53.6865 41.3433 53.0149C41.876 53.316 42.3237 53.4626 43.7519 54.2192C45.1801 54.9758 45.7051 54.142 45.1107 53.617C44.305 52.9715 43.4478 52.3932 42.5476 51.8877C43.4509 51.1157 44.4313 50.3051 45.4117 49.5717C46.2054 49.8404 46.9789 50.1662 47.7278 50.5444C48.9167 51.1003 50.1287 50.0967 49.0016 49.4945C48.3234 49.0954 47.6193 48.742 46.894 48.4369C47.4267 47.8424 48.3222 47.0087 48.3222 46.337C48.3222 45.0786 46.3382 46.862 45.3963 47.688C44.8926 47.3556 44.3287 47.1248 43.7365 47.0087C43.1343 47.0087 42.7638 48.0663 44.0376 48.8151C43.0648 49.5872 42.1616 50.3592 41.2583 51.1312C39.2975 50.1584 37.3443 49.178 35.5378 48.3519C36.7518 47.3639 37.9312 46.334 39.0736 45.2639C40.7179 46.0359 42.3932 44.9088 40.2779 44.1368C40.579 43.9129 40.7334 43.689 41.405 43.0869C42.0767 42.4847 40.8801 41.6586 39.6757 42.6314C39.5291 42.7858 39.2975 42.9325 38.7725 43.4034C36.3638 42.3457 31.7086 40.3926 30.5738 39.9448C29.4389 39.497 28.9834 40.9793 30.4888 41.5814Z" fill="#001434"/>
<path d="M37.3287 91.7465C34.3179 88.3574 31.392 87.9868 27.5551 89.5617C21.6878 91.9704 11.0805 97.6832 7.54466 100.995C4.98932 103.404 3.78499 105.434 6.27085 110.622C9.20448 116.636 23.0388 137.92 26.428 141.911C29.2844 145.293 32.4419 143.787 34.8506 142.884C40.4167 140.854 51.5414 134.238 54.4055 131.157C57.2697 128.077 58.2655 125.437 55.6021 119.871C52.8229 114.088 43.7209 98.9647 37.3287 91.7465ZM52.2207 127.166C50.2675 129.799 37.4059 137.249 32.8202 139.279C30.8593 140.182 29.8094 139.951 28.605 138.299C25.9725 134.763 11.3043 113.1 9.05008 107.99C8.44791 106.638 8.52511 105.511 9.57504 104.608C10.4088 103.836 21.6106 96.0311 28.3811 93.4758C30.6354 92.6497 32.2875 92.2714 33.7234 93.6997C37.182 97.2354 55.1544 123.26 52.2207 127.166Z" fill="#001434"/>
<path d="M24.4674 44.7389C23.8653 45.4182 23.4939 46.2829 24.2428 46.391C24.9916 46.4991 25.7868 45.7193 26.0493 45.4954C26.9525 45.9432 27.022 45.866 28.1568 46.4682C29.2917 47.0703 30.4729 46.0204 29.5078 45.4954C28.5428 44.9705 27.9638 44.6617 27.4003 44.3606C27.7014 44.1367 27.6242 44.1367 28.1723 43.6889C29.145 42.8629 28.3962 41.6586 27.5701 42.2607C25.1846 43.99 26.25 43.7121 24.5593 43.0327C23.6406 42.6313 22.3205 43.2335 24.4666 44.7389H24.4674Z" fill="#001434"/>
<path d="M5.96898 55.4159C10.4312 58.7896 29.0443 67.7217 33.7612 70.0068C38.4782 72.292 43.0871 74.4459 46.8854 71.5509C47.5647 74.6389 48.0897 77.0398 48.8385 80.1279C48.0665 80.5756 44.6311 86.8906 44.2065 89.6004C44.0598 90.5808 45.1329 91.0363 45.488 90.1254C47.032 86.1804 47.3717 84.7213 49.4021 82.1582C57.8247 111.41 51.502 112.166 82.1121 104.793C83.6561 108.105 85.5706 111.487 88.8826 113.594C90.3108 114.498 90.8357 113.517 90.4652 113.216C87.7863 111.008 85.4857 108.785 83.7719 104.492C87.6705 103.566 91.5112 102.411 95.2748 101.034C94.6726 104.57 94.2248 107.982 97.9073 110.059C107.025 115.27 122.882 121.986 132.578 126.001C138.592 128.633 144.459 130.517 146.189 121.561C147.563 114.312 152.048 98.6792 150.821 92.1557C149.987 87.8711 145.926 86.9678 139.464 84.1886C132.47 81.1778 125.846 78.6224 118.62 76.2138C119.601 71.5817 120.504 67.2662 121.477 62.75C123.507 53.9491 117.192 54.4818 110.877 56.0567C110.244 44.1986 95.9001 51.8029 84.3277 52.5209C78.3061 52.8992 82.444 45.9048 69.4357 48.5373L75.8279 24.3195C77.3333 18.375 76.2062 15.3719 70.1845 13.4187C66.4943 12.2298 53.8875 7.89114 41.682 4.84171C37.1735 3.71458 34.6104 4.61783 33.0356 9.12635C30.3258 17.2479 27.2455 25.6705 26.9444 34.2475C24.9912 34.703 7.45895 48.0046 5.4363 50.5677C4.9152 51.3006 4.68155 52.1993 4.77976 53.0932C4.87797 53.9871 5.30119 54.8137 5.96898 55.4159ZM138.754 85.6554C144.243 87.7553 149.863 89.7779 149.284 95.0508C148.214 103.994 146.582 112.862 144.398 121.6C144.019 123.183 143.564 125.136 141.765 126.116C138.831 127.66 131.536 123.932 128 122.434C118.149 118.296 108.522 114.158 98.8183 108.893C95.8847 107.31 96.0391 105.434 96.4096 102.578C97.4463 94.5243 99.0562 86.555 101.227 78.7305C103.666 70.4469 106.747 73.7897 138.785 85.6554H138.754ZM112.058 57.3768C114.614 56.9985 119.778 55.2692 120.18 59.1061C120.025 64.6723 117.918 70.1612 117.022 75.6502C111.526 74.2992 102.732 68.7021 100.169 76.9317C97.9806 84.2429 96.347 91.7088 95.2825 99.2659C91.3272 100.913 87.2215 102.172 83.023 103.026C81.6417 98.2127 81.009 93.216 81.147 88.2108C82.0503 89.4923 83.1774 91.6694 84.1501 91.6694C84.9222 91.6694 84.5284 90.3878 84.0807 89.7934C81.4636 86.1727 81.4018 83.6173 79.6416 85.6554C79.0395 86.3271 78.2443 87.6472 76.8547 89.4151C75.6504 90.9591 76.8547 91.9936 79.6416 88.0564C79.0686 93.2176 79.6866 98.4416 81.4481 103.327C75.7276 104.678 62.1479 108.669 59.0599 106.484C63.0744 103.473 63.2674 85.1227 68.5324 70.4623C70.8562 66.7258 71.9756 66.7567 112.089 57.3768H112.058ZM70.7635 50.0813C80.2438 48.4987 76.9396 53.4627 83.023 54.2193C92.565 55.4082 108.314 45.2872 109.348 56.5353C57.4542 70.1458 70.9874 56.682 59.7856 101.505C59.3378 102.331 58.7357 105.496 57.7552 105.264C54.2966 97.3668 52.7912 88.7975 50.6064 80.5216C53.2177 77.3086 56.4736 74.6787 60.1639 72.8015C59.4845 74.4536 58.3574 77.31 58.7357 77.9122C59.2606 78.9698 60.1639 77.6883 60.465 76.9395C62.3409 71.8983 63.8464 70.5472 61.6616 70.0918C59.8579 69.7082 58.0163 69.5321 56.1726 69.5668C54.8988 69.5668 54.9683 70.6939 55.2694 70.8483C56.5509 71.3733 58.0563 71.1494 59.4073 71.52C55.8874 73.2835 52.7416 75.711 50.1432 78.6688C43.7201 52.7911 45.3027 54.2888 70.7944 50.0813H70.7635ZM34.4792 9.76712C36.6408 3.85354 37.189 4.78767 69.5283 14.955C74.9324 16.6843 75.5423 18.7147 74.1604 23.9798C72.0528 32.2557 69.868 40.5316 67.691 48.7998C66.4866 48.9542 64.379 49.3248 63.6302 49.402C61.1907 47.0859 53.3779 44.1292 37.4592 36.9958C34.5255 35.8687 32.1169 34.1394 28.6583 34.0622C28.6814 27.8089 32.6032 14.9859 34.4715 9.76712H34.4792ZM6.68695 51.8878C7.92216 49.2167 24.6979 37.4204 25.7941 36.6175C28.2028 34.811 31.1364 35.8455 33.6146 36.9958C41.8905 40.7555 53.9956 45.4184 61.8932 49.7031C50.6142 51.5868 42.7165 53.0844 45.9512 66.6255C46.1751 67.6754 46.399 68.733 46.5534 69.783C42.8632 73.0177 38.2003 70.609 34.4406 68.6558C25.493 63.8462 16.0128 59.7855 7.36631 54.4432C6.96105 54.1733 6.66534 53.7677 6.53233 53.2993C6.39931 52.8309 6.43771 52.3304 6.64063 51.8878H6.68695Z" fill="#001434"/>
<path d="M115.093 48.7231C121.184 53.6177 125.476 49.5569 130.062 45.4189C134.129 41.7175 137.995 37.8003 141.642 33.6844C146.907 27.74 153.454 23.2315 146.081 15.5577C136.408 5.39037 131.637 0.210201 122.149 9.46657C104.092 27.0297 98.7493 31.4842 106.068 39.93C108.811 43.1211 111.831 46.0636 115.093 48.7231ZM122.689 11.1187C126.974 6.98842 130.286 4.132 135.929 8.41664C139.99 11.6513 144.498 15.4882 147.131 19.7729C149.617 23.8336 143.827 28.7976 140.438 32.6345C136.832 36.6953 132.918 40.6016 128.935 44.2918C125.021 47.8276 120.736 51.8884 115.919 47.5265C100.077 32.372 99.2048 33.7539 122.682 11.1187H122.689Z" fill="#001434"/>
<path d="M124.225 21.4477C126.634 21.4477 128.209 23.6325 128.811 25.964C128.965 26.4118 128.888 27.2455 129.267 27.3922C130.757 27.948 130.471 23.9336 129.189 22.7602C135.28 22.158 130.841 13.9593 126.873 17.9428C126.605 18.3055 126.413 18.7191 126.309 19.1585C126.205 19.5978 126.193 20.0537 126.271 20.4982C123.137 19.0236 120.365 21.4477 124.225 21.4477ZM130.015 18.8152C130.26 19.0058 130.431 19.2762 130.497 19.5794C130.563 19.8826 130.521 20.1994 130.378 20.4748C130.235 20.7501 129.999 20.9666 129.713 21.0865C129.427 21.2065 129.108 21.2223 128.811 21.1312C126.541 20.4364 128.34 17.3947 129.985 18.792L130.015 18.8152Z" fill="#001434"/>
<path d="M135.551 13.0791C135.633 13.1641 135.733 13.2315 135.842 13.277C135.952 13.3225 136.07 13.3453 136.188 13.3439C136.307 13.3425 136.424 13.3171 136.533 13.2694C136.642 13.2216 136.74 13.1524 136.821 13.066C136.902 12.9792 136.965 12.8772 137.005 12.7658C137.046 12.6544 137.063 12.536 137.057 12.4177C137.051 12.2993 137.021 12.1834 136.969 12.0769C136.917 11.9703 136.844 11.8753 136.755 11.7975C135.906 10.9869 134.57 12.253 135.551 13.0791Z" fill="#001434"/>
<path d="M139.31 16.4607C140.137 17.0629 141.04 16.3835 140.592 15.6347C140.126 15.0029 139.566 14.4458 138.932 13.9826C137.612 12.9558 136.145 14.4458 139.31 16.4607Z" fill="#001434"/>
<path d="M87.8714 44.6077C86.7443 44.4533 85.1617 44.0055 84.4128 44.3761C83.8802 44.6077 84.1118 45.2793 84.6367 45.5109C85.4628 45.8815 87.9409 46.2829 89.2224 47.0086C89.7474 47.3097 90.5735 47.163 90.5735 46.4836C90.7665 44.4147 90.6159 42.3272 90.1257 40.3076C90.1036 40.1359 90.0248 39.9765 89.9016 39.8548C89.7785 39.7331 89.6183 39.6561 89.4463 39.6359C88.0104 39.3657 89.0758 42.338 88.9214 43.496C86.4074 39.9672 82.92 37.247 78.8853 35.6678C78.2136 35.4439 77.5343 35.8994 77.7581 36.4398C78.2985 37.5361 83.7335 38.9334 87.8714 44.6077Z" fill="#001434"/>
<path d="M140.368 51.811C140.437 50.5295 139.233 50.0817 139.086 51.039C138.183 57.5084 135.025 64.2789 128.278 66.2321C128.982 65.2832 129.506 64.2129 129.822 63.0746C129.969 62.5496 129.05 62.3026 128.695 62.9279C127.766 64.3513 126.706 65.6849 125.53 66.9115C123.716 68.9033 132.432 70.123 133.057 70.3701C133.883 70.6712 134.392 70.0072 133.829 69.3896C133.057 68.6176 130.37 68.4941 128.564 67.7375C135.921 65.5759 139.966 58.5043 140.368 51.811Z" fill="#001434"/>
<path d="M140.067 100.964C141.611 101.042 140.592 98.7873 140.214 98.1079C139.233 97.0503 138.183 99.0806 137.28 99.6519C135.852 101.219 139.387 100.771 140.067 100.964Z" fill="#001434"/>
<path d="M121.137 100.015C121.963 100.471 125.375 101.359 124.665 99.4903C124.38 98.7183 123.994 97.8382 123.615 97.0816C123.237 96.3251 123.013 96.2556 122.565 96.8577C121.786 98.0621 119.979 99.2664 121.137 100.015Z" fill="#001434"/>
<path d="M114.568 94.3022C115.34 93.5302 116.598 91.8936 115.093 91.523C114.267 91.523 111.333 90.3882 112.159 91.8936C112.838 92.7196 113.587 95.2827 114.568 94.3022Z" fill="#001434"/>
<path d="M31.0142 131.845C30.7903 132.447 31.0142 132.902 31.6163 132.748C32.0641 132.671 32.288 131.459 32.8206 131.204C33.3533 130.949 34.5499 131.868 35.2988 132.03C38.4717 132.725 37.0281 128.425 36.727 126.842C41.2432 128.726 40.4172 125.298 39.815 121.955C41.9921 124.742 45.9062 128.425 45.9911 125.715C46.0683 122.781 43.8835 119.485 43.5902 116.312C43.4821 115.193 43.2119 114.768 42.7641 114.884C41.1043 115.416 43.5361 121.06 44.1151 123.909C42.7641 122.781 38.024 116.767 38.2479 121.731C38.3251 123.16 38.7728 124.441 38.6956 125.792C33.6621 123.909 35.5381 127.599 35.8392 130.602C33.2684 129.421 32.0641 129.12 31.0142 131.845Z" fill="#001434"/>
<path d="M135.474 136.793C126.542 139.703 125.499 153.368 135.327 150.558C138.863 149.577 141.943 146.273 143.294 142.838C144.8 138.221 139.99 135.288 135.474 136.793ZM141.797 142.359C140.739 145.517 137.435 148.535 134.648 149.13C126.38 150.859 129.607 139.727 136.377 137.851C139.388 137.017 142.847 139.047 141.797 142.359Z" fill="#001434"/>
<path d="M120.582 131.072C119.231 130.995 118.929 131.296 119.084 131.898C119.238 132.501 120.813 132.802 121.716 132.67C124.032 132.223 126.449 129.968 127.892 128.61C129.097 127.336 127.892 126.657 126.395 127.784C123.075 130.239 122.064 131.18 120.582 131.072Z" fill="#001434"/>
<path d="M124.118 124.464C124.118 123.631 122.689 123.785 122.574 124.464C122.455 124.954 122.406 125.458 122.427 125.962C122.465 126.711 124.118 127.985 124.118 124.464Z" fill="#001434"/>
<path d="M136.531 138.747C134.045 140.028 134.346 143.186 135.404 143.186C136.462 143.186 138.785 141.981 139.264 140.329C139.612 138.978 137.959 138.021 136.531 138.747Z" fill="#001434"/>
<path d="M109.758 120.102C109.645 120.703 109.713 121.324 109.953 121.886C110.194 122.448 110.596 122.926 111.109 123.259C118.25 127.421 120.496 125.768 116.822 124.163C110.646 121.468 111.07 121.6 111.333 119.646C111.487 118.666 110.206 118.295 109.758 120.102Z" fill="#001434"/>
<path d="M88.3195 124.688C87.859 124.402 87.3097 124.295 86.7755 124.387C86.0035 124.596 85.7951 125.159 87.2233 125.892C86.845 126.34 86.5439 126.495 86.32 126.942C86.272 127.086 86.2773 127.241 86.3348 127.381C86.3924 127.521 86.4984 127.635 86.6335 127.703C86.723 127.748 86.8221 127.77 86.9222 127.768C87.6016 127.768 88.3504 126.942 88.6515 126.641C89.6319 127.166 90.6819 127.691 91.7395 128.224C90.6819 129.274 89.6319 130.401 88.7287 131.381C87.1847 130.779 86.4744 130.177 85.8723 130.609C85.0385 131.381 86.5439 132.038 87.6016 132.64C86.7755 133.62 86.0961 134.693 87.3005 134.601C88.0725 134.539 88.4276 133.999 89.0298 133.396C90.5738 134.168 90.7591 134.3 92.7894 135.272C92.4402 135.628 92.1128 136.004 91.809 136.4C91.1374 137.303 92.4652 137.735 93.4688 136.855C93.7606 136.569 94.0362 136.268 94.2949 135.952C96.773 137.156 98.7339 138.137 101.66 139.634C99.861 141.742 102.115 141.742 103.096 140.314C104.068 140.839 105.196 141.518 105.875 141.364C107.157 141.062 105.35 139.82 104.223 139.186C105.126 138.206 106.624 136.631 107.604 135.573C109.334 136.345 109.859 136.701 110.916 136.778C111.974 136.855 111.889 136.006 111.063 135.504C109.936 134.902 109.557 134.732 108.747 134.3C109.874 133.095 110.553 132.038 109.519 131.814C109.141 131.737 108.616 132.192 107.257 133.543C105.713 132.771 104.254 132.038 102.972 131.443C103.196 131.212 103.652 130.764 104.022 130.308C104.624 129.536 103.351 129.181 102.524 129.783C101.992 130.239 101.845 130.308 101.467 130.687C100.494 130.239 99.9228 129.706 99.0581 130.084C98.0854 130.54 99.3592 131.366 100.34 131.891C100.34 131.891 99.8919 132.416 99.4364 132.871C98.9809 133.327 100.039 134.524 101.166 133.396L101.938 132.624C103.212 133.227 104.717 133.983 106.222 134.732C105.018 136.014 103.814 137.365 102.91 138.345C100.355 137.063 97.5759 135.635 95.5455 134.655C97.0046 133.196 96.2172 132.015 94.0015 133.883C93.1755 133.504 90.9907 132.455 90.2418 131.999C91.2146 130.949 92.2722 129.899 93.3299 128.842C94.6114 129.668 95.8157 129.822 95.7385 128.919C95.6613 128.471 95.0592 128.093 94.5342 127.714C95.1364 127.112 95.9624 125.908 94.982 125.684C94.6114 125.607 94.0092 125.985 93.0288 126.966C91.9788 126.441 90.8517 125.838 89.8713 125.383C90.0951 125.159 90.4734 124.711 90.9212 124.256C91.369 123.8 90.1492 123.052 88.8908 124.109C88.6776 124.278 88.4857 124.473 88.3195 124.688Z" fill="#001434"/>
<path d="M103.513 121.376C104.192 120.025 105.697 119.199 106.601 118.52C107.504 117.841 106.161 117.107 105.327 117.617C104.493 118.126 102.47 119.5 101.868 121.531C101.629 122.28 102.687 123.106 103.513 121.376Z" fill="#001434"/>
<path d="M84.637 121.754C80.9468 124.765 76.145 128.224 75.1568 132.207C73.883 137.851 80.4219 140.483 84.1816 142.738C90.651 146.644 99.7529 152.21 107.427 150.936C112.391 150.11 125.777 138.584 119.308 134.238C110.954 128.772 102.057 124.185 92.7586 120.55C89.6705 119.346 87.0457 119.724 84.637 121.754ZM117.648 134.987C120.134 136.646 119.153 139.426 117.501 141.309C109.913 150.095 106.099 155.537 79.2175 137.619C71.9993 132.732 81.7806 125.661 85.8414 122.503C89.3694 119.724 93.8085 122.503 97.7998 124.387C104.563 127.544 111.487 130.856 117.648 134.987Z" fill="#001434"/>
<path d="M84.938 136.948C83.1315 135.89 81.078 134.385 80.5762 134.763C79.6729 135.442 83.2087 137.55 87.4162 139.951C92.0019 142.583 97.4986 145.355 100.88 146.42C104.941 147.624 107.496 146.721 109.079 145.818C111.416 144.216 113.516 142.293 115.317 140.105C116.089 139.125 115.548 138.6 114.792 139.202C105.28 147.076 106.516 148.829 84.938 136.948Z" fill="#001434"/>
<path d="M30.1106 104.006C29.3123 104.466 28.5392 104.969 27.7946 105.512C26.9685 106.106 27.8718 106.94 28.6978 106.639C29.4801 106.283 30.2121 105.827 30.8749 105.28C31.5851 104.824 31.4616 103.18 30.1106 104.006Z" fill="#001434"/>
<path d="M29.2693 101.073C27.7253 101.945 27.3084 102.2 26.1813 102.949C25.0542 103.697 26.3357 104.678 27.1618 104.153C28.5128 103.327 28.9451 103.08 30.0954 102.277C31.2457 101.474 30.8134 100.192 29.2693 101.073Z" fill="#001434"/>
<path d="M38.756 108.368C41.2419 106.708 38.6093 103.404 36.5017 104.909C34.1703 106.484 36.5017 109.796 38.756 108.368Z" fill="#001434"/>
<path d="M32.1407 114.382C34.3949 112.876 31.9863 109.873 30.1103 111.224C28.0027 112.73 30.1103 115.733 32.1407 114.382Z" fill="#001434"/>
<path d="M24.5441 101.736C24.9224 101.968 25.3161 101.914 26.3506 101.288C27.3851 100.663 29.4386 99.4125 30.3341 98.8103C31.2297 98.2081 31.3146 96.4943 29.5081 97.606C26.5899 99.4202 23.4015 100.895 24.5441 101.736Z" fill="#001434"/>
<path d="M24.3973 117.84C22.2125 119.346 24.4668 122.472 26.4972 121.075C26.8348 120.875 27.1037 120.578 27.268 120.222C27.4324 119.866 27.4845 119.468 27.4174 119.082C27.3725 118.825 27.2762 118.581 27.1344 118.362C26.9926 118.144 26.8081 117.957 26.5921 117.812C26.3761 117.667 26.1329 117.567 25.8773 117.518C25.6217 117.469 25.3588 117.472 25.1045 117.528C24.8497 117.583 24.6096 117.69 24.3973 117.84Z" fill="#001434"/>
</svg>
