<svg width="154" height="155" viewBox="0 0 154 155" fill="none" xmlns="http://www.w3.org/2000/svg">
<path d="M96.0136 104.529C93.2211 108.865 90.0933 114.433 87.63 114.433C86.8765 115.252 86.1729 119.132 83.6032 119.132C82.8176 119.132 81.4562 118.626 80.5419 117.413C80.2463 117.02 80.1682 116.895 77.8084 116.168C75.6506 115.504 71.6445 112.973 72.4224 110.667C73.5396 107.357 78.414 110.863 81.4914 110.16C80.6078 107.95 80.7463 107.781 82.986 104.528H5.98952L4.68018 132.554H148.234V104.528H96.0136V104.529ZM9.98418 115.661C7.28279 115.661 7.29964 112.141 9.98418 112.141C12.6687 112.141 12.6856 115.661 9.98418 115.661ZM13.684 128.839C10.9827 128.839 10.9827 125.319 13.684 125.319C16.3854 125.319 16.3854 128.839 13.684 128.839ZM22.9659 126.465C19.1511 126.465 19.1511 121.636 22.9659 121.636C23.4283 121.636 23.8349 121.707 24.1856 121.832C23.4712 120.793 24.0363 119.115 25.913 119.115C28.6305 119.115 28.6144 122.635 25.913 122.635C25.6787 122.635 25.4659 122.607 25.2721 122.559C26.4827 123.961 25.7132 126.465 22.9659 126.465ZM29.3993 129.494C25.5846 129.494 25.5846 124.664 29.3993 124.664C33.214 124.664 33.214 129.494 29.3993 129.494ZM34.8342 125.532C32.1328 125.532 32.1328 122.012 34.8342 122.012C37.5356 122.012 37.5188 125.532 34.8342 125.532ZM59.1934 107.688C61.8948 107.688 61.8948 111.208 59.1934 111.208C56.492 111.208 56.492 107.688 59.1934 107.688ZM60.9944 125.532C58.293 125.532 58.293 122.012 60.9944 122.012C63.6957 122.012 63.6789 125.532 60.9944 125.532ZM64.5794 128.544C61.878 128.544 61.878 125.024 64.5794 125.024C67.2807 125.024 67.2807 128.544 64.5794 128.544ZM67.4607 124.877C63.646 124.877 63.646 120.048 67.4607 120.048C71.2754 120.048 71.2754 124.877 67.4607 124.877ZM73.7632 125.532C71.0618 125.532 71.0618 122.012 73.7632 122.012C76.4646 122.012 76.4477 125.532 73.7632 125.532ZM98.2702 122.635C95.5688 122.635 95.5688 119.115 98.2702 119.115C100.972 119.115 100.955 122.635 98.2702 122.635ZM114.903 130.148C112.201 130.148 112.201 126.628 114.903 126.628C117.604 126.628 117.604 130.148 114.903 130.148ZM121.271 126.465C118.57 126.465 118.57 122.945 121.271 122.945C123.972 122.945 123.972 126.465 121.271 126.465ZM127.983 130.148C124.168 130.148 124.168 125.319 127.983 125.319C131.798 125.319 131.798 130.148 127.983 130.148ZM138.509 120.31C135.808 120.31 135.808 116.79 138.509 116.79C141.211 116.79 141.211 120.31 138.509 120.31Z" fill="#38A1FF"/>
<path d="M148.136 104.529C148.057 103.595 6.07831 103.547 6.00633 104.529C5.94661 105.348 0.636482 104.987 77.071 104.987C153.505 104.987 148.204 105.347 148.136 104.529Z" fill="#191919"/>
<path d="M129.424 30.2068C128.965 32.0077 127.441 32.8883 125.495 34.2995C124.233 35.2145 124.858 37.8646 120.551 38.2612C119.634 38.3454 118.714 38.3753 118.455 39.5874C118.173 40.9128 116.11 42.2053 117.44 38.4741C117.913 37.1471 119.192 36.9526 120.665 36.8041C123.906 36.4786 122.547 34.2321 124.84 33.0223C127.883 31.4158 127.819 31.3691 129.423 30.1899V30.206L129.424 30.2068Z" fill="#191919"/>
<path d="M117.844 23.7222C116.854 26.3738 118.096 29.958 112.987 31.8439C111.875 32.2551 112.559 36.0744 111.187 35.6418C110.777 35.5132 110.684 35.2819 111.023 31.942C111.122 30.9596 112.316 30.5185 113.314 30.1249C116.196 28.9886 115.421 24.6425 117.115 23.167C117.444 22.8814 117.984 23.347 117.844 23.7222H117.844Z" fill="#191919"/>
<path d="M135.612 37.197C136.414 39.3088 131.608 39.8678 130.88 42.0921C129.26 47.0416 125.892 43.9268 125.494 45.3173C124.539 48.6595 123.617 47.7912 123.759 47.4291C124.54 45.4428 124.12 43.5294 125.855 43.6473C127.492 43.7583 128.804 44.1396 129.538 42.0431C130.902 38.1488 134.4 39.0148 135.628 37.2139L135.612 37.1978V37.197Z" fill="#191919"/>
<path d="M6.33301 91.2522L27.3201 91.8257L26.8943 98.0953L6.87359 98.6848L6.33301 91.2522Z" fill="#38A1FF"/>
<path d="M69.3111 48.2467C50.2268 44.4963 57.3609 49.4741 56.2636 65.174C56.2636 76.9114 56.723 78.4657 57.9007 79.3179C60.8823 81.4757 86.0807 82.8248 88.1374 78.8761C91.7997 71.8425 74.6159 49.2896 69.3111 48.2467ZM62.9918 69.9872C72.6503 56.311 72.2415 56.5469 72.8793 57.0055C73.5179 57.4642 73.5424 56.8876 63.8915 70.6258C63.4788 71.2131 62.5645 70.5921 62.9918 69.9872ZM68.132 70.4619C67.7192 71.0492 66.8042 70.4282 67.2315 69.8233C73.7078 60.6564 73.5615 60.5163 74.1886 60.9672C74.8379 61.4336 74.501 61.3922 68.1312 70.4619H68.132Z" fill="#38A1FF"/>
<path d="M20.314 51.8814C18.5789 51.8025 9.16619 51.0629 8.80554 52.7329C8.49467 54.1739 8.90968 52.7321 8.44566 67.8754C8.1501 77.517 8.2328 75.0316 16.1563 74.9313C21.1984 74.867 21.1325 76.0446 21.0835 70.4129C20.9358 53.5024 22.5728 51.984 20.314 51.8814ZM10.7045 67.7934V67.7773C17.3347 58.4297 17.1547 58.3317 17.7436 58.7574C18.3331 59.1831 18.2351 59.0713 11.5391 68.383C11.1494 68.9251 10.3109 68.3501 10.7045 67.7934ZM14.4863 68.2521C14.0965 68.7942 13.2581 68.2192 13.6517 67.6625C18.0177 61.4871 18.0675 61.0706 18.6609 61.4909C19.2466 61.906 18.922 62.0867 14.4863 68.2521Z" fill="#38A1FF"/>
<path d="M49.9932 92.9881C49.8393 97.982 50.1081 98.1083 49.2727 98.0953C35.997 97.9 36.0139 98.423 36.0123 97.3916C36.0039 90.5654 34.4894 93.3694 48.2903 92.6772C49.6165 92.6106 50.0124 92.3502 49.9932 92.9881Z" fill="#38A1FF"/>
<path d="M90.3268 92.8158C77.4929 92.7836 63.8811 92.7048 51.074 92.6443C50.992 92.7262 51.074 94.8886 50.94 97.9827C50.9147 98.5739 68.0603 98.4858 87.1377 98.1948C88.2992 96.3196 89.2832 94.655 90.3268 92.8158Z" fill="#38A1FF"/>
<path d="M108.386 97.8103C107.419 96.3295 106.574 94.6005 105.769 92.8271L104.003 92.8294C103.333 93.7069 102.228 95.1939 100.343 97.9688L108.386 97.8103Z" fill="#38A1FF"/>
<path d="M140.631 92.2943C139.436 93.6251 135.25 92.3517 131.24 93.0202C131.601 94.756 130.985 95.3272 127.048 97.3915C132.073 97.2683 135.741 97.1664 137.232 97.1121C141.817 96.9467 144.141 93.8219 145.156 91.9551C144.031 92.0845 142.506 92.197 140.631 92.2927L140.631 92.2943Z" fill="#38A1FF"/>
<path d="M50.5669 77.0753C43.56 76.3716 43.4803 80.1036 43.2162 59.9351C43.086 49.9818 42.6924 50.1089 44.5914 50.1946C50.1412 50.445 50.0347 50.3906 50.0263 51.1602C50.0263 51.1762 50.5669 66.8922 50.5669 77.0745V77.0753Z" fill="#38A1FF"/>
<path d="M70.8004 47.445C69.622 47.0177 64.547 46.1042 58.8992 46.2007C56.9512 46.2344 55.158 47.1662 55.0194 49.1471C54.9497 50.1456 55.2131 73.6212 55.6909 77.272C56.3747 82.4948 65.2016 82.9971 83.3242 82.2161C102.052 81.409 76.5164 49.5169 70.8004 47.445ZM88.1367 78.8761C86.0808 82.8248 60.8816 81.4756 57.8999 79.3179C57.1993 78.811 56.8303 77.7191 56.8724 74.7085C56.9489 69.2406 56.1235 53.2428 56.5661 50.3883C56.8012 48.8753 56.8548 48.1624 58.5929 47.8263C60.5745 47.4434 63.9053 47.1838 69.3096 48.2459C74.6144 49.2888 91.7982 71.8417 88.1359 78.8753L88.1367 78.8761Z" fill="#191919"/>
<path d="M18.4471 50.6203C4.43481 49.9335 7.87204 49.2619 7.15152 72.442C6.95933 78.6136 12.8981 75.9405 18.1692 76.1748C23.9479 76.4313 21.6891 74.7835 22.3928 63.1762C22.3928 51.0131 23.9977 50.8921 18.4471 50.6203ZM21.0827 70.4121C21.1317 76.0438 21.1975 74.8662 16.1554 74.9305C8.23192 75.0308 8.14922 77.5163 8.44479 67.8746C8.9088 52.7306 8.49379 54.1724 8.80466 52.7321C9.16531 51.0621 18.5781 51.8018 20.3131 51.8806C22.5719 51.9832 20.9349 53.5016 21.0827 70.4121Z" fill="#191919"/>
<path d="M148.347 83.2261C148.028 80.9704 147.174 78.2337 145.352 74.9964C118.128 26.6217 54.7575 25.9341 6.69375 27.1455C5.79329 27.1784 5.7933 28.0459 6.74277 28.0299C24.5376 27.7182 49.6809 28.1585 73.4651 31.7826C120.217 38.9059 143.274 69.3294 146.529 81.4711C147.413 84.7698 147.127 88.0316 145.45 91.3839L140.964 91.4053C140.938 91.8869 140.759 92.2231 140.457 92.4551C141.637 92.4589 142.99 92.4773 144.829 92.5163C143.678 94.3854 141.384 96.9505 137.233 97.1136C135.718 97.1634 132.135 97.2246 127.244 97.2897C126.676 97.5891 125.046 98.4314 124.915 98.4995C132.51 98.3801 137.818 98.2361 139.475 98.0623C140.589 97.9475 141.685 97.6205 142.537 96.8839C145.275 94.4742 149.492 91.3379 148.347 83.2261Z" fill="#191919"/>
<path d="M108.998 98.6896C108.718 98.3144 108.449 97.917 108.189 97.502L100.614 97.5716C100.359 97.9438 100.09 98.3412 99.8042 98.7654L108.998 98.6896Z" fill="#191919"/>
<path d="M87.456 97.6787C69.6512 97.8104 53.4436 97.8747 51.1365 97.7583C51.2835 94.6641 50.9926 92.7261 51.0737 92.6442C67.0799 92.7192 79.9483 92.7567 90.3534 92.7682C90.58 92.3685 90.8036 91.9704 91.0234 91.576C78.2683 91.5998 64.6343 91.6074 51.5653 91.5799C50.3211 91.5799 52.1381 91.1212 51.5163 65.8777C50.7468 34.7413 56.8862 38.997 25.7651 38.3263C23.9971 38.2933 7.41353 38.0315 6.13711 38.1953C5.46559 38.2933 5.41658 39.3247 6.12103 39.4557C7.33236 39.6846 26.4044 38.7191 26.4044 40.2252V91.0393C26.2406 91.0722 8.23283 91.1702 8.06973 91.1702C6.36682 91.1702 6.1708 91.0232 6.18688 91.792C6.18688 92.7414 22.3776 91.3823 25.8807 92.2008C26.6341 92.3808 26.4534 92.6427 26.4373 96.965C26.4213 99.0929 2.84766 96.4244 7.28413 98.9949C7.38979 99.0523 49.8632 99.0539 86.7316 98.8486C86.9652 98.4758 87.2071 98.0852 87.4575 97.6779L87.456 97.6787ZM49.9933 92.988C49.8134 97.9811 49.9987 97.8303 49.1641 97.8134C45.7506 97.7797 37.076 97.5768 36.0132 97.3915C35.9971 90.5653 34.491 93.3808 48.2912 92.6771C49.6174 92.6113 50.0094 92.3494 49.9933 92.988ZM50.4841 78.9749C50.0094 90.5002 50.0255 89.8938 50.0423 91.2361C50.0423 91.7437 50.0263 91.7927 41.9229 91.7766C35.9803 91.7606 36.0293 92.0875 36.0293 91.1381C36.0951 40.9787 36.0783 39.9963 36.1931 39.7344C50.354 39.7344 49.7805 39.1287 49.9604 49.5568C48.6342 49.6716 48.2085 49.4917 44.8034 49.164C41.5132 48.8531 41.906 49.3439 42.3149 65.0928C42.5768 75.8976 42.7896 77.3708 45.3601 77.8616C50.2223 78.7781 50.5492 77.5508 50.4841 78.9749ZM43.2154 59.9359C43.0844 49.9825 42.6916 50.1135 44.5906 50.1954C50.1404 50.4573 50.0423 50.3922 50.0255 51.1609C50.0255 51.177 50.5661 66.893 50.5661 77.0753C43.5592 76.3716 43.4772 80.1043 43.2154 59.9359Z" fill="#191919"/>
<path d="M98.8272 79.8418C99.0263 82.0355 94.9321 80.0049 94.3418 76.7965C94.1457 75.7321 93.6572 65.3538 93.6702 64.6494C93.7721 59.4112 75.2046 51.0643 75.6464 48.3767C75.7996 47.4449 76.5806 45.5413 77.5454 45.9372C78.2177 46.2136 91.952 53.3691 92.05 53.5498C93.7774 56.7374 97.3571 54.2382 96.5684 56.4143C94.2529 62.8018 98.5531 76.8125 98.8272 79.8418Z" fill="#38A1FF"/>
<path d="M101.643 55.3026C100.35 55.3516 100.186 64.4703 102.739 72.3938C105.195 80.0554 106.063 81.3976 113.675 78.4512C115.267 77.8272 114.249 77.7575 109.939 63.5997C112.547 64.4297 116.56 66.272 121.484 69.857C122.122 69.0385 122.449 68.1541 122.957 67.3685C123.808 66.0423 118.21 54.7796 101.642 55.3033L101.643 55.3026Z" fill="#38A1FF"/>
<path d="M134.188 69.5522C133.096 68.6242 132.528 68.2214 131.13 69.2375C130.601 69.6234 130.569 69.1027 129.289 68.1571C127.354 66.7291 126.126 70.1403 128.47 69.1219C130.912 71.3149 129.096 69.5652 122.162 78.0415C121.386 78.9902 121.379 79.2996 122.112 80.2483C127.571 87.3226 128.955 86.2269 132.964 82.6357C139.855 76.4642 141.551 75.8095 134.188 69.5522ZM125.626 80.1786C126.301 80.3325 126.957 80.1219 127.529 79.5691C134.031 73.285 133.766 74.2628 133.172 69.9343C133.797 70.3998 136.546 73.0691 137.743 74.7781C138.492 75.8486 138.651 75.9535 131.517 82.3716C130.257 83.5063 128.701 85.1495 127.392 84.1197C126.168 83.1572 123.748 80.7712 123.289 79.9244C124.093 80.1181 124.859 80.0025 125.626 80.1786ZM127.03 78.7391C126.361 79.3784 126.345 79.393 123.076 78.8884C122.948 78.5362 123.418 78.3585 127.955 73.5898C130.303 71.1204 131.4 69.9672 132.497 69.7467C132.76 74.0178 133.423 72.6265 127.03 78.7391Z" fill="#191919"/>
<path d="M123.175 75.0233C122.408 74.2775 122.594 74.0631 122.791 73.8357C122.935 73.6703 123.113 73.4643 122.839 73.0853C122.363 72.426 121.11 73.7667 121.429 74.6144C122.307 76.9444 124.904 76.7078 123.175 75.0233Z" fill="#191919"/>
<path d="M125.201 72.2078C125.22 72.2231 125.244 72.2223 125.266 72.2162C125.573 72.2813 125.809 71.9643 125.933 71.6733C126.616 70.0807 125.25 68.9183 124.819 69.3984C124.717 69.511 124.72 69.6741 124.825 69.8334C125.654 71.0807 124.864 71.9344 125.201 72.2078Z" fill="#191919"/>
<path d="M124.174 72.7192C124.174 72.7629 124.208 72.7981 124.25 72.7981C125.824 72.6855 124.479 69.3387 123.766 70.1664C123.618 70.3379 123.686 70.4589 123.78 70.6273C123.928 70.8923 124.204 71.3846 124.174 72.7192Z" fill="#191919"/>
<path d="M106.001 76.0009C105.514 76.0828 105.484 77.1579 106.128 77.1517C106.992 77.1441 106.759 75.958 106.001 76.0009Z" fill="#191919"/>
<path d="M103.351 67.6027C102.745 67.5667 102.433 68.6104 103.302 68.7367C103.316 68.7375 103.31 68.7375 103.327 68.7367C103.895 68.6364 103.92 68.2727 103.913 68.1632C103.897 67.873 103.645 67.6211 103.351 67.6027Z" fill="#191919"/>
<path d="M102.997 63.3899C102.997 62.85 102.44 62.6555 102.065 62.9113C101.649 63.1954 101.843 63.9457 102.421 63.9457C102.724 63.9457 102.997 63.7306 102.997 63.3899Z" fill="#191919"/>
<path d="M104.597 71.9717C103.94 72.0383 103.886 73.033 104.624 73.033C105.329 73.033 105.287 71.9097 104.597 71.9717Z" fill="#191919"/>
<path d="M94.7296 52.6036C94.5795 52.9551 96.908 52.3287 96.9547 51.9106C97.0428 51.403 95.31 51.2736 94.7296 52.6036Z" fill="#191919"/>
<path d="M96.4861 47.1387C96.4685 47.1387 96.4524 47.1471 96.4394 47.1609C95.9332 47.2351 95.8536 47.422 95.8521 47.5276C95.8498 47.6647 95.98 47.7849 96.1622 47.8148C97.1637 47.9771 97.3513 48.5445 97.7043 48.1678C97.9447 47.909 97.6469 47.1387 96.4861 47.1387Z" fill="#191919"/>
<path d="M95.1588 50.9487C95.1588 50.6624 94.9597 50.546 94.7989 50.4518C94.5891 50.3285 94.4727 50.2604 94.671 49.8722C94.7882 49.6417 94.7185 49.2489 94.4398 49.2466C93.7254 49.2412 93.6128 51.8569 95.0983 51.0498C95.1351 51.0299 95.1588 50.9909 95.1588 50.9487Z" fill="#191919"/>
<path d="M92.7863 47.8983C93.2082 47.8401 93.5053 47.3126 94.0068 47.3577C94.1147 47.3677 94.2051 47.292 94.235 47.1733C94.3644 46.6641 93.3896 46.5484 92.8536 47.1479C92.5282 47.5124 92.6676 47.8983 92.7863 47.8983Z" fill="#191919"/>
<path d="M96.5219 48.8745C95.8137 48.9243 95.8772 50.1716 96.6177 50.1073C97.2892 50.0475 97.2831 48.8255 96.5219 48.8745Z" fill="#191919"/>
<path d="M93.0657 48.5206C92.3559 48.5703 92.4218 49.8176 93.1615 49.7533C93.8299 49.6944 93.8307 48.4746 93.0657 48.5206Z" fill="#191919"/>
<path d="M70.0226 44.0452C69.5027 43.9548 69.3771 44.7573 69.8955 44.8392C69.9108 44.8415 71.4843 45.1455 72.4851 45.9992C72.7722 46.2427 73.2607 45.9579 73.1122 45.5597C72.8587 44.8752 70.6719 44.1501 70.0226 44.0452Z" fill="#191919"/>
<path d="M70.6053 42.7434C70.0884 42.6546 69.9491 43.4586 70.4774 43.5374C70.4927 43.5397 72.0678 43.8445 73.067 44.6975C73.3541 44.9425 73.8381 44.6561 73.6941 44.2626C73.4468 43.5887 71.2561 42.8537 70.6053 42.7434Z" fill="#191919"/>
<path d="M71.7599 41.6763C71.2331 41.628 71.1344 42.3922 71.6436 42.4718C71.6589 42.4741 73.2285 42.7551 74.2308 43.6303C74.2477 43.6449 74.2676 43.6548 74.2883 43.6594C74.5846 43.847 74.9889 43.5614 74.861 43.2015C74.6122 42.5078 72.3112 41.7773 71.7599 41.6763Z" fill="#191919"/>
<path d="M140.106 90.4796C139.722 89.0271 137.351 87.8793 136.007 87.2063C133.923 86.1618 133.369 87.4988 132.356 86.5792C130.279 84.7331 129.408 85.9582 127.656 87.8816C125.919 86.0217 124.782 87.6442 119.669 90.2162C115.788 92.1688 119.331 90.4544 112.725 80.39C111.911 79.1235 115.369 80.0186 115.274 77.6105C115.269 77.5009 114.696 75.723 113.687 72.589C112.686 69.4802 111.455 65.6586 111.297 65.0131C113.016 65.2681 121.449 70.7651 121.591 70.713C122.269 70.4733 122.844 72.2145 123.051 72.906C123.165 73.2896 123.767 73.1755 123.82 72.8355C123.977 71.8424 123.384 70.7827 122.723 70.3332C122.465 70.1456 122.485 70.0116 122.629 69.7804C123.84 67.8018 123.145 67.3225 125.069 68.2214C126.409 68.8577 126.403 69.8784 126.4 70.6234C126.4 70.7681 126.387 71.4259 126.558 71.468C126.579 71.4734 126.6 71.4688 126.618 71.4573C128.318 70.3286 126.923 67.6854 125.118 67.324C123.425 66.9802 124.293 64.8761 120.393 60.9603C113.464 54.0315 106.485 54.3263 103.127 54.4672C100.798 54.5636 101.095 54.4128 100.932 53.9166C100.853 53.6762 100.795 53.5016 101.09 53.3393C101.927 52.8936 102.979 52.0912 103.241 50.7987C104.866 43.0031 100.944 43.8645 100.518 42.9273C99.9362 41.6042 98.6383 41.1325 97.0449 42.1455C91.8382 38.5881 88.1728 44.4886 91.2455 46.9434C91.4193 47.1019 91.4622 47.1762 91.4346 47.399C90.9568 50.5567 91.5334 51.6808 91.3366 52.0468C85.2639 49.3814 78.2807 44.8515 77.1758 44.8255C76.992 44.1953 77.1023 43.9127 76.201 42.6892C75.5065 41.7519 74.4706 41.732 75.4951 43.1999C75.9269 43.8232 76.1834 44.5238 76.2386 44.9112C76.3259 45.5276 75.4047 46.2604 74.6543 47.6463C73.3672 46.9602 72.3787 46.5736 71.1995 46.1287C70.8304 45.9893 70.0295 45.7098 70.1045 46.108C70.1444 46.3155 70.5157 46.6088 70.7202 46.6769C71.394 46.8967 73.75 48.2596 74.2883 48.4135C74.9024 48.5851 74.273 49.2734 75.0065 49.9388C78.4438 53.0353 84.6008 56.3339 91.3627 62.0706C95.4829 65.5675 90.2026 78.0952 96.4232 81.1787C96.8849 81.4076 97.1108 81.6189 96.6169 82.4865C94.5572 86.1113 94.9645 86.6818 88.9568 96.6451C81.0005 109.863 81.0609 106.464 82.4591 110.666C79.7248 111.564 78.6061 110.503 74.7914 109.951C74.2209 109.869 73.4353 110.175 73.165 110.822C72.9713 111.285 72.9215 112.271 74.7669 113.657C77.4951 115.711 77.1275 114.962 80.3335 116.286C81.2807 116.675 81.0066 117.417 82.7547 118.184C85.809 119.536 86.2761 113.546 87.574 113.689C90.2616 113.972 94.9898 103.41 104.226 91.2966C104.333 91.158 100.994 85.1542 102.553 84.6274C103.676 84.2308 107.731 99.1014 112.847 101.128C114.318 101.697 117.224 101.729 120.572 99.946C131.175 94.3112 130.996 94.9751 130.322 92.4383C136.429 91.1473 140.987 93.7415 140.108 90.4781L140.106 90.4796ZM130.098 86.7415C130.765 86.439 131.521 87.024 132.038 87.5416C133.232 88.7185 133.717 87.119 135.609 88.1282C137.885 89.3242 139.389 90.5072 139.266 91.0049C139.228 91.1573 139.001 91.3395 138.136 91.3403C135.583 91.1098 133.009 90.3571 130.189 91.4184C129.952 91.2599 128.763 89.5294 128.366 88.9413C128.121 88.5784 128.172 88.6458 128.965 87.8441C129.356 87.4498 130.01 86.7905 130.098 86.7423V86.7415ZM106.563 63.1977C106.571 63.3554 106.806 63.5323 107.262 63.7222C109.061 64.4657 109.952 63.9856 110.312 65.1311C114.141 77.5837 115.146 77.792 113.648 78.3793C106.13 81.2889 105.274 80.0477 102.814 72.37C100.234 64.3661 100.475 55.4205 101.647 55.3791C112.161 55.0407 119.253 59.5966 122.135 64.6778C122.893 66.0131 123.091 67.0208 122.895 67.3256C122.383 68.1188 122.082 68.9442 121.471 69.7498C112.907 63.53 106.524 62.3179 106.564 63.1969L106.563 63.1977ZM75.7225 48.3898C75.8718 47.4488 76.6375 45.654 77.5165 46.0092C78.4606 46.4013 91.7202 53.3546 91.9829 53.5874C93.7111 56.7964 97.2249 54.3691 96.4967 56.3898C94.1621 62.7995 98.4722 76.821 98.7509 79.8494C98.937 81.9191 94.9798 79.8494 94.417 76.7842C94.2302 75.7735 93.7287 65.4557 93.7471 64.6525C93.8298 59.3898 75.2807 50.9756 75.7217 48.3906L75.7225 48.3898ZM101.137 50.0728C101.407 50.4993 100.809 50.7244 100.358 51.2252C99.427 52.2903 100.308 53.0146 100.405 55.0598C100.465 56.6149 98.9898 57.4503 97.878 56.9358C97.3688 56.6961 97.5273 56.0039 97.3443 55.4886C97.1498 54.9595 98.6307 54.6739 98.9324 53.9381C99.107 53.4702 98.7624 53.2535 98.4446 53.4526C92.8803 56.7666 90.8795 51.8431 92.685 45.8569C93.8068 46.4832 94.4653 46.3821 95.1016 46.2841C96.6468 46.046 96.6958 46.5169 98.1873 47.0269C98.6123 47.1716 98.6567 47.1869 98.6207 47.5858C98.2731 51.3492 100.654 49.2681 101.137 50.0736V50.0728ZM100.908 76.8042C99.1437 77.1801 99.2279 76.8876 98.9676 75.8463C97.4102 69.2651 96.0893 62.909 97.0181 57.5039C98.0962 58.1287 99.1429 58.1111 100.135 57.4511C99.7861 64.4971 100.825 70.664 103.309 76.2965C102.762 76.5094 102.203 76.5944 101.661 76.6763C101.583 76.6878 100.83 76.8034 100.907 76.8034L100.908 76.8042ZM86.2807 113.386C86.345 113.595 85.6758 114.698 85.0502 115.813C84.7669 116.318 84.1467 117.293 83.2738 117.285C82.6168 117.28 82.0923 116.7 81.8381 116.215C81.3779 115.337 78.7623 114.554 78.0885 114.392C76.6827 114.056 73.9277 111.899 74.051 111.229C74.0977 110.979 74.6337 111.023 74.8848 111.055C78.3435 111.511 78.1444 112.122 81.3358 111.792C82.6842 111.658 82.6697 110.854 83.3228 111.445C83.4277 111.541 86.2501 113.362 86.2807 113.386Z" fill="#191919"/>
</svg>
