<svg width="156" height="155" viewBox="0 0 156 155" fill="none" xmlns="http://www.w3.org/2000/svg">
<path d="M115.215 83.5854C120.619 72.1442 109.649 71.6193 104.16 75.9116L106.869 72.0516C103.859 69.2646 104.16 71.82 102.237 74.3676C100.693 76.6836 93.6603 82.0414 93.6603 82.0414C92.5433 81.8338 91.4058 81.7587 90.2712 81.8175C88.9202 81.9642 90.4951 83.0141 90.4256 83.7707C88.318 85.8782 90.7267 85.3147 90.2017 87.0054C89.5995 87.6847 87.6386 87.1521 89.2212 90.3173C85.0833 89.1824 86.6659 80.3815 90.8733 80.6826C88.7596 76.4729 88.2123 71.6484 89.3293 67.0721C88.6958 67.2578 88.0303 67.3078 87.3762 67.2188C86.6041 68.5698 85.9479 73.6882 87.7544 79.5709C81.8872 72.7232 76.0894 72.3527 74.4373 73.7809C72.4841 75.5102 75.3406 82.0568 74.5145 86.0404C72.9705 90.0316 69.5428 91.6837 70.9015 96.5011L86.3957 90.958L89.7076 99.3806C86.3262 100.732 82.636 102.391 82.636 102.391C82.5588 103.071 81.5861 109.085 81.81 109.34L91.9619 105.657C93.5522 109.973 93.9845 110.22 98.2846 121.676C98.8868 113.408 103.025 112.126 98.3618 103.248C99.1899 102.966 99.993 102.615 100.763 102.198C100.693 101.897 97.3042 99.1104 95.7987 97.9833C95.9805 97.9191 96.1584 97.8444 96.3314 97.7594C101.82 102.793 108.135 101.619 109.34 99.4887C111 96.5551 108.815 92.4866 109.571 89.9313C110.482 86.7429 114.242 84.9364 115.215 83.5854Z" fill="#3D9CFB"/>
<path d="M80.683 103.071C80.49 103.141 76.5991 104.615 75.5723 104.947C74.7463 105.449 74.5533 110.158 74.0283 112.397C74.0283 112.397 78.0196 110.891 79.4324 110.367C79.7103 109.996 80.4437 103.225 80.683 103.071Z" fill="#3D9CFB"/>
<path d="M71.288 106.607L60.2251 110.366L62.2555 116.311C64.9528 115.514 67.6003 114.558 70.184 113.447C69.4815 111.493 71.288 106.607 71.288 106.607Z" fill="#3D9CFB"/>
<path d="M131.62 84.0333C131.018 84.4116 131.998 90.055 131.998 90.7266C140.645 87.1908 140.266 90.4255 137.109 82.3812L131.62 84.0333Z" fill="#3D9CFB"/>
<path d="M102.608 114.806C102.418 115.952 102.065 117.064 101.558 118.11C100.379 120.389 99.7601 122.916 99.7517 125.482L101.558 128.794C101.859 129.095 104.191 121.499 104.793 120.441C104.762 120.441 102.608 114.728 102.608 114.806Z" fill="#3D9CFB"/>
<path d="M128.91 85.2374L112.961 90.4253C113.038 91.0275 113.038 97.7285 113.038 97.7285L129.289 91.6296C128.941 88.8581 129.335 89.0357 128.91 85.2374Z" fill="#3D9CFB"/>
<path d="M112.135 137.974C112.135 137.974 105.959 122.626 105.959 122.479C105.881 122.479 105.279 125.637 104.005 127.884C103.344 129.106 102.885 130.428 102.647 131.798L105.959 140.599L112.135 137.974Z" fill="#3D9CFB"/>
<path d="M63.6138 82.9832C64.7409 82.8828 65.868 79.7484 66.7713 76.3593C67.3734 73.2713 63.7527 68.0217 63.3127 67.4118C62.6179 66.4468 61.0739 67.4658 61.8073 68.4617C66.0842 74.3058 65.3431 76.9538 62.78 81.6244C62.7024 81.7664 62.6637 81.9263 62.6678 82.088C62.6719 82.2497 62.7186 82.4075 62.8032 82.5454C62.8878 82.6832 63.0073 82.7963 63.1496 82.8732C63.292 82.9501 63.4521 82.988 63.6138 82.9832Z" fill="#001434"/>
<path d="M49.7721 41.6815C58.7969 34.386 50.8838 25.1296 40.2918 27.9475C36.6017 28.9974 33.668 35.6675 36.3006 39.0026C38.9331 42.3377 46.2517 44.4607 49.7721 41.6815ZM41.1179 40.0989C33.3978 37.5435 38.3309 27.8394 44.8776 29.4143C43.2255 32.2784 41.9439 36.7175 41.1179 40.0989Z" fill="#001434"/>
<path d="M45.7036 82.8291C45.0319 83.1301 44.0437 81.9413 43.5265 81.4781C39.5275 77.8805 38.2614 77.564 41.72 72.986C41.8623 72.7929 41.9255 72.5527 41.8969 72.3146C41.8682 72.0765 41.7497 71.8582 41.5656 71.7044C40.0679 70.5001 37.281 76.3365 37.8831 77.7956C38.3309 79.3782 41.2645 81.9335 43.3721 83.8944C37.4354 88.6346 29.005 99.5353 25.6931 104.43C17.5716 97.4818 9.51958 90.8888 7.4892 83.9639C3.35124 71.1795 13.1326 58.3873 20.6133 52.9755C23.3362 54.8472 26.4039 56.1593 29.6381 56.8356C32.5966 58.973 35.9073 60.5748 39.4194 61.568C42.1292 65.0343 47.7725 69.62 49.9496 70.0601C51.6789 70.3612 53.5626 69.1568 59.0516 62.9885C67.4047 61.7069 73.3491 57.7929 75.9045 53.2843C77.4206 52.1875 78.8086 50.9238 80.0424 49.5169C85.9869 54.4115 82.4511 56.5191 92.6802 53.5777C92.8346 54.9364 94.3323 71.3339 97.8681 71.635C98.4008 71.7122 98.3236 70.7317 98.1692 70.2067C95.691 64.1156 94.7878 55.9169 94.4095 51.4778C95.0117 47.1855 100.508 46.5833 103.288 50.4974C103.53 50.8382 103.864 51.1037 104.25 51.2635C104.636 51.4232 105.06 51.4708 105.472 51.4006C109.981 50.6286 114.875 50.4202 118.033 54.7126C112.235 57.0286 110.313 56.1717 110.514 57.4918C110.838 59.4604 117.655 56.6657 118.936 56.3647C119.742 58.1347 120.298 60.0079 120.588 61.9308C115.956 64.1619 113.092 63.4748 113.293 64.8645C113.671 66.3699 118.481 64.6406 120.889 63.884C121.062 65.0695 120.97 66.2787 120.619 67.4242C120.268 68.5697 119.667 69.6229 118.859 70.5078C118.087 71.4265 119.384 72.9165 120.889 70.8861C123.599 67.3503 122.92 63.5134 122.171 59.9776C119.314 47.1855 109.757 48.7681 105.187 49.4475C101.651 44.5529 93.4522 44.4757 92.549 51.2462C92.549 51.4778 92.0163 51.7017 91.7152 51.7789C82.9915 54.2571 86.9056 52.0028 81.3394 47.8649C84.4969 43.9508 87.2762 38.6857 86.3034 33.9687C85.6781 30.8807 83.5551 32.4247 79.9035 20.8832C76.2519 9.70453 62.2631 4.01484 51.1231 7.97524C50.4935 8.19089 49.8145 8.21772 49.1699 8.05244C36.4549 4.96441 22.8367 11.8121 18.5521 23.3999C16.514 28.804 15.464 30.3943 11.9282 32.5019C4.85665 36.7171 12.9087 47.2472 18.9226 51.8021C11.1022 57.7002 1.32086 71.0173 5.6055 84.4889C7.92152 91.7071 14.8001 97.2347 23.0606 104.646C31.5141 112.227 42.4457 119.391 50.7448 111.64C61.3521 102.013 55.1838 93.9614 53.5317 91.0278C56.5425 84.9366 51.9491 79.9726 45.7036 82.8291ZM50.4437 68.1609C49.0927 67.7826 45.333 65.0729 42.6233 62.2937C47.0969 63.2386 51.6822 63.5427 56.2415 63.1969C53.6089 65.9761 51.1231 68.1609 50.4437 68.1609ZM61.8076 26.8585C61.8634 27.028 61.9762 27.1729 62.1268 27.2687C62.2774 27.3644 62.4565 27.4049 62.6337 27.3835C66.0151 26.3336 72.7161 22.7515 74.5921 29.19C69.4814 26.7813 60.0011 27.646 59.7001 35.2889C59.1647 35 58.613 34.7422 58.048 34.5168C56.3881 33.8375 55.4077 35.644 56.5039 35.9451C57.7932 36.3156 61.0511 37.7747 60.8658 39.257C60.8658 40.3841 59.8853 42.1134 59.0593 43.2405C58.6115 43.8427 59.0593 44.4449 59.7387 44.4449C60.6419 44.5221 61.3907 43.171 62.294 41.0635C66.0537 43.4721 72.8242 43.5416 75.7578 40.083C75.6111 44.2982 76.2133 48.5751 74.2138 52.273C67.4433 66.339 25.3843 63.8531 24.4811 44.9003C24.1105 37.1803 30.2017 42.1906 31.7071 37.4505C33.5136 31.2744 36.2233 27.9007 39.3808 26.017C43.5188 25.191 48.56 25.8626 51.0381 26.9203C52.0186 27.3681 52.6207 25.8626 52.0958 25.4921C50.8142 24.5888 47.2013 24.0639 45.5492 23.9481C49.0849 22.8981 55.6316 24.473 58.1097 21.5394C60.2945 23.122 62.8498 23.647 65.9379 24.1719C64.0079 24.9826 61.2055 25.2836 61.8076 26.8585ZM67.5977 30.016C66.7716 33.1041 65.9456 37.3192 65.4206 40.3995C64.4118 40.1586 63.4799 39.6674 62.7109 38.9713C62.6173 38.1092 62.2173 37.3093 61.5837 36.7171C61.0511 32.4247 64.0619 30.016 67.5977 30.016ZM16.9694 47.695C13.3565 44.0897 8.39245 36.8869 12.8315 34.154C16.8922 31.6759 18.2355 29.715 20.2814 24.1179C24.3421 12.8389 37.5048 6.81723 49.5404 9.97474C50.162 10.1332 50.816 10.1091 51.4241 9.90525C55.9143 8.35582 60.7809 8.27471 65.3203 9.67365C61.3752 9.2272 57.3844 9.90706 53.8096 11.6346C52.816 12.0683 51.7099 12.1738 50.6521 11.9356C34.7719 8.02156 25.67 18.0268 23.794 23.4463C21.6864 29.5374 23.9407 31.5678 21.6864 33.521C20.1038 34.8797 16.6452 34.3547 15.1398 35.837C13.2098 37.9214 14.9391 43.9353 16.9694 47.695ZM53.9718 104.499C49.193 101.736 48.5677 99.0953 47.4329 100.284C45.9274 101.867 51.7947 105.248 53.0685 106.151C51.9464 107.96 50.5234 109.563 48.8611 110.892C44.3448 107.665 43.8585 105.248 42.5383 106.298C41.1873 107.657 45.9969 110.814 47.1704 112.019C41.9825 114.875 35.5131 112.791 27.0133 105.626C30.248 100.809 39.1261 88.6963 45.2172 85.1605C50.7062 81.9258 53.9409 85.6855 51.7638 90.2789C51.5906 90.6541 51.5269 91.0706 51.5802 91.4804C51.6334 91.8902 51.8015 92.2766 52.0649 92.595C53.6784 94.5636 56.3881 98.9717 53.9718 104.499Z" fill="#001434"/>
<path d="M46.2515 47.7723C42.3915 52.4043 48.8069 56.0482 55.3535 56.4265C63.0736 56.8047 65.8065 48.7064 61.6685 47.5484C59.4915 46.9462 58.7349 48.3204 56.2645 48.1505C52.057 48.0193 50.1502 43.2097 46.2515 47.7723ZM59.6381 49.5015C63.7761 48.0733 61.6068 55.0986 54.6741 54.5428C49.8645 54.1568 45.9505 51.6091 47.1548 49.7332C47.7762 50.3264 48.5616 50.7191 49.4091 50.8603C50.3123 50.8603 50.6751 49.9725 49.934 49.5015C49.3726 49.137 48.8546 48.7096 48.39 48.2277C50.4435 46.1202 53.3077 51.7635 59.6227 49.5015H59.6381Z" fill="#001434"/>
<path d="M83.694 124.278C82.7212 122.325 81.7408 120.372 80.8375 118.264C82.5262 117.582 84.414 117.582 86.1026 118.264C86.5581 118.488 87.2452 118.419 87.3842 117.886C87.9555 115.717 82.7984 115.03 80.0887 116.535C79.7104 115.763 79.1854 114.35 78.2822 114.728C77.0779 115.253 78.0583 116.535 78.3594 117.361C77.1969 117.951 76.2755 118.926 75.753 120.121C75.2305 121.315 75.1394 122.654 75.4953 123.908C76.4757 127.22 79.6332 126.841 82.5668 126.386C83.9951 129.25 85.3538 131.952 86.5581 134.816C84.1495 135.488 81.3625 135.264 79.4093 133.689C79.2133 133.536 78.9689 133.459 78.7209 133.472C78.4728 133.485 78.2377 133.587 78.0583 133.758C76.7768 136.769 85.3538 137.672 87.2298 136.545C88.0018 137.896 88.0635 138.746 89.0363 138.653C90.395 138.522 89.2679 136.769 88.9668 135.866C97.9143 131.35 92.0471 121.8 83.694 124.278ZM77.379 123.383C76.7768 121.275 77.9811 119.916 79.1855 119.09C80.0115 120.974 80.9147 122.78 81.818 124.579C79.1082 125.035 77.8267 124.88 77.379 123.383ZM88.3646 134.137C87.1603 131.28 85.8787 128.648 84.5972 126.085C91.2905 124.348 94.4017 131.55 88.3646 134.137Z" fill="#001434"/>
<path d="M140.12 87.1909C135.905 74.6303 132.068 72.8238 117.778 78.6988C118.45 72.7544 111.98 71.3261 107.248 73.2948C108.445 71.4111 109.649 67.497 107.016 67.3503C104.384 67.2036 104.013 65.4666 102.508 65.9916C101.674 66.2232 101.605 67.2731 101.605 67.5742C101.149 70.8089 98.2928 76.3751 93.1744 80.8913C92.7115 80.72 92.2332 80.5933 91.7462 80.513C87.284 70.8629 91.6458 67.937 89.9397 66.5243C88.967 65.4666 87.2299 66.972 85.0529 66.6709C81.8182 66.146 83.0225 72.0132 83.7713 74.2675C82.4313 73.2117 80.9971 72.2814 79.4867 71.4883C81.0307 66.972 81.216 64.1928 77.3019 58.5494C77.2359 58.4466 77.1495 58.3584 77.0479 58.2905C76.9463 58.2226 76.8318 58.1763 76.7116 58.1546C76.5914 58.1328 76.4679 58.1361 76.349 58.1642C76.2301 58.1923 76.1182 58.2446 76.0204 58.3178C74.2911 60.2015 80.9921 63.359 77.7574 70.7317C75.8737 70.06 73.9823 69.8825 72.5618 70.6622C67.2427 73.5727 71.2108 79.9263 71.0178 84.2032C70.1145 89.09 64.0234 90.14 68.7018 95.9377C59.8237 98.4931 56.2184 102.407 59.152 110.683C62.0857 118.805 69.4583 138.668 70.8866 142.274C72.9169 147.392 75.3256 149.345 79.7646 149.422C87.7935 149.422 139.981 129.072 144.76 127.034C151.453 124.178 152.434 120.719 150.025 113.648C148.041 107.896 140.244 87.2835 140.12 87.1909ZM138.167 87.492C130.864 89.9778 122.217 93.2125 113.787 96.3701C113.864 94.9418 113.486 93.2126 113.718 91.7843C123.869 88.0247 131.018 85.4616 136.577 83.5316C136.963 84.4889 137.565 85.8476 138.167 87.492ZM117.4 80.7987C126.664 77.1162 133.496 75.1553 135.828 81.7791C130.424 83.6551 123.792 86.5192 114.088 89.5996C114.96 86.6196 116.721 83.9562 117.4 80.7987ZM103.504 67.8598C104.549 68.4436 105.661 68.8974 106.816 69.2108C106.214 74.0282 99.0957 79.9726 95.3051 82.335C95.1585 82.1806 95.0813 82.0339 94.9269 81.9567C100.099 77.1162 102.956 71.4728 103.481 67.8598H103.504ZM99.5203 92.0237C97.2043 91.3443 96.5867 90.4796 94.703 89.4683C94.7431 89.2125 94.7431 88.9521 94.703 88.6963L95.1585 88.0247C96.7025 87.8703 104.484 89.5687 104.484 87.4225C104.461 87.2246 104.362 87.0434 104.208 86.9168C104.054 86.7902 103.857 86.728 103.658 86.7431C100.122 87.1909 98.3932 86.6659 95.6062 86.5192C95.6184 86.3634 95.5919 86.2069 95.529 86.0638C95.8858 85.5586 96.0724 84.9529 96.0617 84.3345C101.172 84.7127 112.907 83.8095 114.188 79.8182C115.47 75.8269 110.274 76.2824 106.368 78.1661C104.484 79.0694 105.086 80.1193 105.99 79.7101C118.705 74.8156 113.139 83.7709 97.791 82.7982C100.147 81.0187 102.359 79.0569 104.407 76.9309C107.642 73.6962 115.771 72.1908 115.987 77.9886C115.686 83.7786 111.17 87.8394 111.926 94.0077C113.069 105.588 101.188 106.19 92.8888 91.298C93.2524 91.1645 93.5857 90.9598 93.8692 90.6958C94.9963 91.0741 99.0571 94.4632 100.045 92.8806C100.246 92.5332 99.8754 92.0854 99.5203 92.0237ZM94.3247 97.0649C92.9737 97.5898 91.6227 98.0453 90.3411 98.6089C89.1368 95.4514 88.2336 93.1122 87.7086 91.5373C88.0097 91.4601 88.2336 91.3134 88.5346 91.2362C89.2745 91.531 90.056 91.7082 90.8507 91.7612C91.8807 93.5995 93.0336 95.3663 94.3015 97.0494L94.3247 97.0649ZM93.9541 83.6705C94.4791 84.8054 93.1821 85.3998 93.653 86.5347C93.9541 87.3067 92.109 88.0401 92.7498 88.9356C92.7885 88.9911 92.8093 89.0571 92.8093 89.1248C92.8093 89.1924 92.7885 89.2584 92.7498 89.3139C91.6227 90.5954 87.9711 89.6922 87.9325 87.9629C87.9325 87.3607 88.2336 87.5074 88.388 87.0596C88.5346 86.3803 87.1913 85.7241 87.9325 85.2531C88.1456 85.1259 88.3077 84.9283 88.3909 84.6944C88.474 84.4604 88.473 84.2049 88.388 83.9716C87.6082 81.2156 93.4755 82.7596 93.931 83.6551L93.9541 83.6705ZM84.8522 68.5392C86.0475 68.4533 87.2316 68.2516 88.388 67.937C87.6159 70.4924 87.1064 74.5531 89.6618 80.4976C89.4379 80.4976 89.214 80.5748 89.0596 80.5748C85.8789 75.3792 84.4507 71.3184 84.8522 68.5392ZM73.0173 84.3036C73.3184 80.7601 69.7054 73.9201 73.5423 72.268C77.3791 70.6159 85.655 77.0853 87.3843 81.4472C86.9236 81.925 86.6101 82.5253 86.4811 83.1765C83.8485 82.196 77.6802 79.5635 76.252 75.5799C77.078 75.5027 79.6643 76.7688 82.4975 78.6679C83.2695 79.2161 83.6247 78.5907 83.3931 78.2896C81.5171 75.7343 76.9236 73.179 75.2716 74.3061C73.2412 75.5181 76.5685 81.1924 86.0333 84.6124C86.0333 84.6896 85.9561 84.7668 85.9561 84.9135C83.3931 84.8363 81.8182 85.3612 78.8073 84.6896C78.4291 84.6124 77.8269 84.8363 77.9041 85.2918C78.2052 86.9438 84.4507 86.1178 86.0333 86.4189C86.1028 86.6428 86.18 86.7972 86.2572 87.021C86.1939 87.1364 86.1669 87.2683 86.18 87.3993C83.5475 87.4688 82.567 88.7503 79.8573 88.5265C79.4867 88.5265 78.8845 88.8275 79.0312 89.1981C79.7106 91.3057 84.5974 88.6731 86.3344 88.8275C86.4641 89.1526 86.6409 89.4567 86.8594 89.7308C80.9149 91.8384 76.0976 93.4133 70.9097 95.2198C65.8376 90.4796 72.5695 89.5224 73.0173 84.3036ZM85.9561 92.0237C86.4811 93.5677 87.3843 95.93 88.5887 99.0952C77.078 103.457 67.3739 107.371 60.7964 109.131C57.9863 99.4272 63.1665 100.246 85.9561 92.0854V92.0237ZM61.4295 110.969C68.4238 108.707 80.7296 103.519 95.5831 98.5548C96.6734 99.7979 97.8836 100.93 99.1961 101.936C84.6746 107.433 69.7826 113.146 62.9117 115.331C62.3327 113.64 61.8077 112.243 61.4295 110.969ZM72.8629 141.587C71.7358 138.8 66.9184 126.386 63.5988 117.06C70.0682 114.273 79.618 111.339 91.6535 106.831C94.2166 113.3 95.6448 117.284 98.7251 124.587C100.833 129.404 103.357 134.623 104.971 140.089C79.2551 149.307 76.0281 149.392 72.8629 141.587ZM106.715 139.402C103.712 131.882 99.9449 123.305 96.6793 115.107C95.475 112.173 94.4173 108.861 93.3674 106.229C94.7956 105.704 96.2238 105.171 97.652 104.569C102.392 115.331 106.005 126.687 111.046 137.896C109.556 138.421 108.144 138.954 106.715 139.402ZM144.104 125.336C141.927 126.463 127.12 132.029 112.814 137.225C107.619 126.417 103.55 114.505 99.4199 103.897L101.226 103.218C105.858 106.005 112.737 104.499 113.64 98.5857C122.364 95.2738 131.018 91.5141 138.916 89.3216C142.151 97.5975 147.037 110.614 148.319 114.296C150.426 120.441 149.701 122.549 144.104 125.336Z" fill="#001434"/>
<path d="M135.804 96.9723C131.373 96.9723 129.034 98.331 129.412 103.365C115.045 108.483 112.714 108.483 113.764 111.64C114.219 112.922 118.056 118.488 121.816 118.341C124.224 118.187 127.76 116.381 129.868 115.632C129.937 116.612 129.937 117.508 130.014 118.264C129.541 118.361 129.113 118.614 128.8 118.982C128.486 119.349 128.305 119.812 128.285 120.295C127.235 120.673 126.1 121.067 125.05 121.422C124.76 121.116 124.393 120.893 123.989 120.775C123.584 120.656 123.155 120.647 122.746 120.748C122.336 120.849 121.961 121.057 121.658 121.35C121.354 121.643 121.134 122.011 121.019 122.417C120.864 122.959 120.905 123.539 121.136 124.054C122.039 126.239 125.652 125.714 125.652 123.228L128.856 122.132C131.304 124.734 134.978 120.542 131.944 118.519C131.72 114.605 131.172 104.978 131.265 100.994C131.342 99.0336 134.276 98.9641 136.082 98.4314C137.186 98.0994 136.507 96.9723 135.804 96.9723ZM122.341 116.311C119.631 117.083 115.192 111.64 115.346 110.668C115.57 109.463 122.866 107.433 129.412 105.264C129.489 107.896 129.567 110.907 129.713 113.617C128.609 114.049 124.548 115.709 122.364 116.311H122.341Z" fill="#001434"/>
</svg>
