<svg width="154" height="155" viewBox="0 0 154 155" fill="none" xmlns="http://www.w3.org/2000/svg">
<path d="M26.2844 71.9612C27.8051 71.9457 29.323 71.8257 30.8273 71.6021C33.7423 71.2032 44.1375 69.3992 48.6681 68.9911C48.7243 68.9897 48.7797 68.9771 48.8311 68.9541C48.8824 68.9311 48.9286 68.8982 48.9671 68.8571C49.0056 68.8161 49.0355 68.7678 49.0551 68.7151C49.0748 68.6624 49.0837 68.6064 49.0815 68.5502C49.0793 68.494 49.0659 68.4388 49.0421 68.3878C49.0184 68.3368 48.9847 68.2911 48.9431 68.2532C48.9015 68.2154 48.8528 68.1862 48.7998 68.1673C48.7468 68.1485 48.6906 68.1404 48.6344 68.1434C45.595 68.1142 42.5583 68.3342 39.5547 68.8012C38.2936 68.9781 29.1121 70.5102 28.583 70.6121C27.7622 70.7813 26.9827 70.9712 26.1826 71.1274C26.0755 71.1449 25.9793 71.2032 25.9142 71.29C25.849 71.3768 25.82 71.4855 25.8332 71.5932C25.8463 71.7009 25.9007 71.7994 25.9848 71.868C26.0689 71.9366 26.1762 71.97 26.2844 71.9612Z" fill="#38A1FF"/>
<path d="M7.99725 72.5539C8.56462 72.5418 9.12973 72.4782 9.68562 72.364C12.6795 71.7469 14.008 71.58 14.6971 71.4283C15.2461 71.3135 15.7691 71.178 16.2974 71.0555C16.3531 71.051 16.4073 71.0356 16.457 71.0102C16.5067 70.9847 16.5509 70.9497 16.5871 70.9072C16.6233 70.8647 16.6508 70.8155 16.668 70.7623C16.6851 70.7092 16.6917 70.6532 16.6872 70.5976C16.6827 70.5419 16.6673 70.4877 16.6419 70.438C16.6164 70.3883 16.5815 70.344 16.539 70.3079C16.4964 70.2717 16.4472 70.2442 16.3941 70.227C16.3409 70.2099 16.2849 70.2033 16.2293 70.2078C15.1228 70.1361 14.012 70.1771 12.9138 70.3303C11.5946 70.4902 10.2904 70.7566 9.0141 71.1267C8.57247 71.3033 8.1463 71.5164 7.73997 71.7637C7.6352 71.7977 7.54797 71.8715 7.49711 71.9692C7.44626 72.0669 7.43586 72.1806 7.46815 72.2859C7.50434 72.3905 7.57976 72.4769 7.67849 72.527C7.77722 72.577 7.89152 72.5866 7.99725 72.5539Z" fill="#38A1FF"/>
<path d="M56.2584 66.7031C57.0808 66.89 56.9904 66.9428 59.7102 66.5201C60.4289 66.4146 61.1353 66.2376 61.8189 65.9918C61.9291 65.9763 62.0292 65.9192 62.0986 65.8322C62.168 65.7451 62.2013 65.6348 62.1918 65.5239C62.1772 65.4113 62.1197 65.3086 62.0313 65.2372C61.9429 65.1659 61.8303 65.1315 61.7171 65.1411C60.7723 65.0178 59.8142 65.0406 58.8763 65.2085C56.4682 65.4995 56.7883 65.5913 56.1367 65.8731C56.0826 65.8801 56.0304 65.8979 55.9833 65.9253C55.9362 65.9528 55.895 65.9894 55.8622 66.033C55.8294 66.0765 55.8056 66.1262 55.7922 66.1791C55.7789 66.232 55.7762 66.287 55.7844 66.341C55.8001 66.4515 55.8585 66.5514 55.9472 66.6192C56.0359 66.6869 56.1477 66.7171 56.2584 66.7031Z" fill="#38A1FF"/>
<path d="M132.923 78.587C133.111 79.4132 133.361 80.2245 133.668 81.0142C135.2 84.8427 138.875 88.9668 142.933 90.1414C143.943 90.4599 145.011 90.5502 146.06 90.4056C146.172 90.3921 146.275 90.3344 146.344 90.2454C146.414 90.1564 146.446 90.0432 146.433 89.9308C146.419 89.8184 146.361 89.716 146.272 89.6461C146.183 89.5761 146.07 89.5444 145.958 89.5579C144.302 89.6345 142.241 88.6199 140.872 87.6934C137.41 85.4025 135.72 82.2937 133.725 78.3021C133.684 78.2 133.606 78.1175 133.505 78.0722C133.405 78.0269 133.291 78.0222 133.188 78.059C133.084 78.0959 132.999 78.1715 132.95 78.27C132.901 78.3684 132.892 78.4821 132.925 78.587H132.923Z" fill="#38A1FF"/>
<path d="M131.446 83.8979C131.66 84.9458 132.025 85.9571 132.529 86.9002C133.694 89.1328 135.338 91.0803 137.344 92.6031C138.306 93.3723 139.426 93.921 140.623 94.2103C141.82 94.4997 143.066 94.5227 144.274 94.2777C144.328 94.2697 144.381 94.251 144.429 94.2226C144.476 94.1943 144.518 94.1569 144.551 94.1125C144.584 94.0682 144.608 94.0177 144.621 93.9641C144.635 93.9104 144.638 93.8546 144.63 93.7999C144.622 93.7451 144.603 93.6925 144.575 93.645C144.546 93.5974 144.509 93.556 144.465 93.5229C144.42 93.4898 144.37 93.4658 144.316 93.4523C144.262 93.4387 144.207 93.4358 144.152 93.4438C141.987 93.5358 139.863 92.8341 138.18 91.4706C136.36 90.0374 134.846 88.2552 133.725 86.2286C133.307 85.5196 132.591 84.3711 132.225 83.6115C132.185 83.5074 132.106 83.4231 132.005 83.3762C131.904 83.3294 131.789 83.3237 131.683 83.3603C131.631 83.3783 131.583 83.4068 131.543 83.4441C131.502 83.4815 131.47 83.5268 131.447 83.5772C131.425 83.6277 131.413 83.6822 131.413 83.7374C131.413 83.7926 131.424 83.8472 131.446 83.8979Z" fill="#38A1FF"/>
<path d="M109.635 95.4905C109.263 99.2556 109.382 103.053 109.987 106.788C114.681 104.371 118.959 101.221 122.661 97.4568C122.121 97.4852 121.58 97.4556 121.047 97.3687C120.349 98.1621 119.58 98.8905 118.75 99.5449C116.498 101.498 113.976 103.117 111.263 104.353C110.589 100.979 110.554 101.502 110.483 98.6367C110.437 97.6713 110.456 96.7039 110.538 95.7409C110.645 95.7409 110.028 95.639 109.635 95.4905Z" fill="#38A1FF"/>
<path d="M55.5436 108.115C58.7596 113.177 59.3629 116.577 67.4717 127.64C69.1869 126.262 70.6991 124.69 72.3201 123.205C74.3339 121.341 76.4158 119.489 78.301 117.475C77.6884 117.177 77.0598 116.906 76.4289 116.648C73.791 119.184 70.9227 121.517 68.1294 123.89C64.827 119.279 61.6463 114.586 59.4357 109.311C58.1271 108.823 56.8047 108.422 55.4893 107.988L55.5436 108.115Z" fill="#38A1FF"/>
<path d="M116.443 82.2116C116.149 82.0837 115.848 82.5309 115.636 82.8693C115.255 83.7255 114.999 84.6322 114.877 85.5615C114.877 85.8969 114.76 86.2162 115.08 86.3142C115.374 86.3961 115.498 86.1151 115.759 85.534C116.081 84.7697 116.354 83.9862 116.579 83.1878C116.639 82.7652 116.707 82.3195 116.443 82.2116Z" fill="#191919"/>
<path d="M117.548 87.4177C117.356 87.2255 117.156 87.3518 116.829 87.5532C116.522 87.7234 116.205 87.875 115.879 88.0073C115.557 88.0839 115.44 88.0364 115.045 87.8174C114.82 87.6918 114.61 87.5486 114.433 87.6956C114.22 87.8725 114.33 88.1122 114.548 88.5379C114.675 88.7195 114.847 88.8654 115.046 88.9616C115.246 89.0578 115.467 89.1009 115.688 89.0869C115.97 89.0793 116.248 89.0119 116.503 88.8891C116.758 88.7664 116.984 88.5911 117.166 88.3748C117.54 87.9483 117.762 87.6574 117.548 87.4177Z" fill="#191919"/>
<path d="M126.84 84.1995C127.051 83.8471 127.186 83.4541 127.234 83.0461C127.282 82.6382 127.244 82.2246 127.121 81.8326C126.998 81.4407 126.793 81.0792 126.521 80.772C126.248 80.4647 125.913 80.2187 125.539 80.0502C125.574 79.611 125.497 79.1701 125.316 78.7687C125.135 78.3672 124.854 78.0184 124.501 77.7548C124.148 77.4912 123.734 77.3216 123.298 77.2617C122.861 77.2018 122.417 77.2536 122.006 77.4123C121.887 77.0305 121.691 76.6772 121.429 76.3748C121.127 76.0409 120.733 75.8026 120.297 75.6893C119.861 75.576 119.401 75.5926 118.974 75.737C118.466 75.9217 118.001 76.2108 117.611 76.5857C117.221 76.9606 116.914 77.413 116.709 77.9139C115.998 77.8187 115.278 78.0094 114.708 78.4442C114.137 78.8789 113.762 79.5223 113.665 80.2332C113.582 80.989 113.706 81.7532 114.024 82.4437C114.036 82.4814 114.056 82.5161 114.083 82.5457C114.109 82.5753 114.141 82.5993 114.177 82.616C113.737 83.2446 113.34 83.9023 112.99 84.5846C112.221 86.1863 111.818 87.9385 111.81 89.7148C111.812 90.5441 112.004 91.3619 112.371 92.1057C112.738 92.8496 113.269 93.5 113.925 94.0074C113.61 94.799 113.339 95.6072 113.112 96.4285C113.086 96.5076 113.092 96.5939 113.128 96.6687C113.165 96.7436 113.229 96.8011 113.308 96.829C113.386 96.8547 113.472 96.8485 113.545 96.8116C113.619 96.7747 113.675 96.7103 113.702 96.6322C113.914 96.0793 114.617 94.6551 114.895 94.0211C114.937 93.9287 114.946 93.8249 114.922 93.7266C114.897 93.6282 114.84 93.541 114.76 93.479C112.688 91.8511 112.539 89.368 113.261 86.8335C113.665 85.522 114.136 84.232 114.672 82.9683C114.626 82.9422 114.589 82.9046 114.563 82.8593C114.537 82.8139 114.524 82.7624 114.524 82.7102C114.525 82.6579 114.539 82.6067 114.566 82.5619C114.593 82.5171 114.631 82.4803 114.677 82.4552C115.505 81.0224 116.765 79.8878 118.276 79.2133C118.547 79.5856 118.902 79.8893 119.312 80.1002C119.722 80.311 120.175 80.4232 120.636 80.4277C120.599 80.6465 120.593 80.8693 120.616 81.09C120.133 81.0215 119.64 81.0681 119.178 81.226C118.717 81.384 118.299 81.6488 117.959 81.9989C117.725 82.3343 117.539 82.5892 117.735 82.786C117.91 82.982 118.065 82.848 118.392 82.7179C119.146 82.42 119.705 81.8955 120.996 82.1375C121.2 82.4547 121.473 82.7217 121.795 82.9185C121.252 84.1543 121.37 85.8381 122.568 86.4514C123.116 86.7294 124.109 87.1222 124.284 87.7324C124.311 87.8412 124.331 87.9223 124.297 87.9836C124.242 88.1084 123.891 88.1666 123.755 88.1804C123.273 88.2268 122.787 88.157 122.338 87.9767C122.184 87.9237 122.016 87.9214 121.86 87.9701C121.705 88.0189 121.569 88.1162 121.472 88.2478C118.087 93.1758 117.601 95.1574 117.184 96.466C117.158 96.5443 117.163 96.6296 117.199 96.7041C117.234 96.7786 117.297 96.8365 117.374 96.8657C117.448 96.8909 117.529 96.8867 117.6 96.854C117.672 96.8212 117.728 96.7624 117.757 96.6896L119.015 94.3412C119.673 94.37 120.327 94.2264 120.912 93.9248C121.497 93.6232 121.993 93.1739 122.352 92.6214C122.822 92.5908 123.272 92.421 123.645 92.1337C124.018 91.8464 124.298 91.4546 124.447 91.0081C125.04 90.8023 125.543 90.3968 125.869 89.8611C126.196 89.3254 126.326 88.6928 126.238 88.0716C126.756 87.5858 127.096 86.9409 127.205 86.2393C127.314 85.5377 127.186 84.8197 126.84 84.1995Z" fill="#191919"/>
<path d="M137.26 68.8786C137.443 68.3028 137.619 67.7668 137.768 67.2515C138.493 64.7414 138.949 62.1617 139.131 59.5554C139.201 57.422 138.995 55.2884 138.518 53.2078C138.515 53.1675 138.503 53.1284 138.484 53.0929C138.465 53.0574 138.438 53.0262 138.407 53.0014C138.375 52.9766 138.338 52.9587 138.299 52.9487C138.26 52.9388 138.219 52.937 138.179 52.9436C138.138 52.9489 138.099 52.9622 138.063 52.9829C138.027 53.0035 137.995 53.031 137.97 53.0638C137.945 53.0966 137.927 53.134 137.916 53.174C137.905 53.2139 137.903 53.2556 137.908 53.2966C138.616 60.4176 137.557 63.1052 136.864 67.0547C136.803 67.5907 136.735 68.1535 136.661 68.75C136.645 68.8299 136.661 68.9128 136.705 68.9811C136.75 69.0494 136.819 69.0978 136.898 69.116C136.938 69.1257 136.978 69.1272 137.019 69.1203C137.059 69.1135 137.097 69.0985 137.131 69.0762C137.165 69.0539 137.194 69.0248 137.216 68.9908C137.238 68.9568 137.253 68.9186 137.26 68.8786Z" fill="#191919"/>
<path d="M141.596 58.7729C141.303 58.4597 141.089 58.2208 140.851 58.3801C140.636 58.5233 140.714 58.6864 140.932 59.3633C140.932 59.3633 141.438 60.5692 141.549 60.9023C142.302 63.3449 141.648 63.923 142.161 64.0555C142.59 64.1673 142.758 63.2775 142.826 62.8418C142.941 61.3792 142.502 59.9268 141.596 58.7729Z" fill="#191919"/>
<path d="M143.2 50.152C142.878 50.0493 142.801 50.4123 142.569 50.9115C142.134 51.8736 141.815 52.8844 141.62 53.9223C141.429 54.506 141.339 55.1183 141.355 55.7324C141.423 56.5586 141.457 56.7753 141.714 56.7906C142.04 56.8105 142.086 56.4988 142.298 55.7668C142.431 55.3074 142.482 54.7982 142.725 53.8204C142.842 53.3526 143.191 51.9177 143.234 51.6504C143.419 50.495 143.531 50.2484 143.2 50.152Z" fill="#191919"/>
<path d="M145.662 51.1121C145.384 50.9857 145.175 51.3173 144.972 51.6955C144.445 52.5913 144.022 53.5444 143.711 54.5363C143.569 54.8798 143.482 55.2437 143.454 55.6144C143.417 55.9865 143.373 56.2981 143.637 56.3946C143.858 56.4536 144.032 56.3525 144.376 55.6687C144.548 55.3265 145.509 52.6825 145.57 52.4681C145.847 51.5248 145.941 51.2461 145.662 51.1121Z" fill="#191919"/>
<path d="M147.368 52.7989C146.836 52.5209 145.708 54.7185 145.453 55.2598C145.257 55.6695 145.104 56.0993 144.999 56.5416C144.944 57.0561 144.914 57.3839 145.182 57.4704C145.399 57.537 145.535 57.426 145.901 56.7927C146.046 56.5753 146.325 55.8739 146.519 55.4834C146.781 55.0066 147.011 54.5129 147.208 54.0056C147.473 53.3249 147.649 52.952 147.368 52.7989Z" fill="#191919"/>
<path d="M86.2811 54.4856C86.2352 54.2015 86.193 53.9228 86.128 53.638C85.9465 52.9489 85.5667 51.8003 85.3278 51.1426C85.2303 50.747 85.0755 50.3678 84.8684 50.017C84.6264 49.6135 84.533 49.3608 84.2374 49.4404C83.9549 49.543 84.0269 49.8455 84.0751 50.2674C84.1108 50.6975 84.2058 51.1206 84.3577 51.5247C84.3691 51.5606 85.1042 53.7299 85.1234 53.7827C85.1946 53.978 85.2765 54.1763 85.36 54.3662C85.7987 55.3087 85.8485 55.5254 86.1609 55.4504C86.4587 55.3532 86.376 55.0599 86.2811 54.4856Z" fill="#191919"/>
<path d="M87.6589 53.2192C87.6382 53.0025 87.6244 52.7927 87.5908 52.5753C87.5571 52.3578 87.0548 50.2069 86.9782 49.9918C86.9238 49.8762 86.8725 49.7736 86.8251 49.6595C86.6719 49.3027 86.541 49.0469 86.2829 49.1036C86.0249 49.1602 85.9912 49.4635 85.9912 49.9106V50.2085C86.157 51.0908 86.3743 51.9626 86.6421 52.8195C86.7232 53.0232 86.809 53.2177 86.8932 53.416C87.0708 53.8348 87.1627 54.1097 87.456 54.0332C87.7699 53.9512 87.6957 53.6235 87.6589 53.2192Z" fill="#191919"/>
<path d="M89.7023 52.7178C89.6832 51.9429 89.5692 51.1732 89.363 50.426C89.3015 49.943 89.1809 49.4693 89.0039 49.0156C88.8408 48.6488 88.7535 48.3671 88.4748 48.4122C88.1686 48.4605 88.1494 49.2239 88.1494 49.3004C88.1605 49.7485 88.2195 50.1942 88.3255 50.6297C88.4309 51.4025 88.6336 52.1589 88.9289 52.8809C89.0882 53.2989 89.1701 53.5991 89.4856 53.5386C89.7704 53.4605 89.7421 53.1603 89.7023 52.7178Z" fill="#191919"/>
<path d="M89.9563 56.6885C89.6883 56.5775 89.5619 56.8126 89.3437 57.1365C89.244 57.2798 89.1532 57.4291 89.0719 57.5836C88.8047 58.2245 88.6444 58.9047 88.5972 59.5974C88.611 59.6924 88.6316 59.7743 88.6446 59.8624C88.7511 60.1816 88.7381 60.4359 89.0183 60.4519C89.2404 60.465 89.3322 60.3095 89.5466 59.808C89.6339 59.6043 89.7319 58.9113 89.954 58.1127C89.9946 57.9841 90.0084 57.8547 90.042 57.7299C90.1362 56.9657 90.2228 56.8011 89.9563 56.6885Z" fill="#191919"/>
<path d="M117.547 48.5385C106.383 50.2322 106.735 50.393 105.009 50.5048C104.932 50.5079 104.857 50.5283 104.789 50.5647C104.721 50.601 104.662 50.6523 104.616 50.7146C101.561 54.8984 99.2488 58.6664 96.248 63.0837C96.1903 63.1664 96.1578 63.2639 96.1541 63.3646C96.1505 63.4653 96.176 63.5649 96.2276 63.6514C96.2791 63.738 96.3546 63.8079 96.4449 63.8526C96.5351 63.8974 96.6364 63.9152 96.7365 63.9038C96.9999 63.8709 97.2725 63.8272 97.5428 63.779C98.002 64.5471 98.3439 65.3794 98.5573 66.2484C98.7327 67.0983 98.5397 68.2553 97.6622 68.2821C95.9823 68.3525 93.2663 66.9574 92.0818 69.6519C91.9141 70.031 91.8195 70.4383 91.8031 70.8525C91.7929 70.9362 91.8164 71.0205 91.8684 71.0868C91.9204 71.1532 91.9966 71.1961 92.0803 71.2063C92.1639 71.2164 92.2482 71.1929 92.3146 71.141C92.3809 71.089 92.4239 71.0128 92.434 70.9291C92.4837 70.6019 92.594 70.2869 92.7595 70.0003C92.9171 69.6813 93.1639 69.4148 93.47 69.2334C93.7761 69.0519 94.1283 68.9632 94.4838 68.9781C94.0544 69.2913 93.6832 69.6774 93.3873 70.119C93.1944 70.5057 92.8513 71.4015 93.2587 71.5432C93.3347 71.5677 93.4172 71.5615 93.4887 71.5261C93.5602 71.4906 93.6151 71.4286 93.6415 71.3533C93.9847 70.8879 94.3728 70.4573 94.8 70.0677C94.5677 70.5121 94.408 70.9909 94.3268 71.4858C94.2503 71.9008 94.2028 72.9911 94.6454 72.9911C94.9685 72.9911 94.9249 72.7369 95.0726 72.2859C95.3022 71.3229 95.7261 70.4169 96.3184 69.6236C96.3993 69.5152 96.5065 69.4292 96.63 69.3739C96.7534 69.3185 96.8889 69.2956 97.0236 69.3074C97.2458 69.3281 97.469 69.3353 97.6921 69.3288C99.3001 69.2706 99.882 67.6106 99.5635 66.047C99.3754 65.1455 98.9591 64.3074 98.3544 63.6128C99.1806 63.4222 100.07 63.1618 100.876 62.9367C101.843 64.4467 102.784 66.3058 103.358 66.6052C103.682 66.7138 104.034 66.7065 104.353 66.5845C106.24 66.0459 108.048 65.2618 109.73 64.2522C112.473 62.6442 115.505 60.1358 116.469 57.0914C116.509 57.0833 116.547 57.0697 116.583 57.0508C116.652 57.0046 116.7 56.9332 116.717 56.8519C116.734 56.7707 116.718 56.6862 116.672 56.6166C115.725 55.1396 115.44 54.5898 114.881 53.6266C115.939 52.1909 116.872 50.5232 117.944 49.246C117.998 49.1779 118.031 49.0952 118.038 49.0085C118.045 48.9218 118.026 48.8349 117.984 48.759C117.941 48.683 117.877 48.6215 117.799 48.5823C117.721 48.543 117.634 48.5278 117.547 48.5385ZM104.141 58.011C104.09 58.0763 104.015 58.1192 103.933 58.1306C103.85 58.142 103.767 58.1211 103.7 58.0722C103.634 58.0207 103.592 57.9454 103.582 57.8627C103.572 57.7801 103.595 57.6969 103.646 57.6312C104.664 56.1667 105.987 54.9404 107.524 54.037C108.97 53.1549 111.637 51.8165 113.397 51.9015C113.458 51.8938 113.52 51.903 113.576 51.9281C113.632 51.9532 113.68 51.9933 113.715 52.0439L114.041 52.6335C114.081 52.7031 114.093 52.7856 114.074 52.8639C114.055 52.9422 114.007 53.0102 113.939 53.0538C113.905 53.0758 113.866 53.0907 113.826 53.0975C113.786 53.1043 113.744 53.1029 113.705 53.0935C113.665 53.0841 113.627 53.0668 113.594 53.0426C113.561 53.0184 113.533 52.9879 113.512 52.9528L113.275 52.7016C109.824 53.6554 106.678 55.4842 104.141 58.011ZM113.109 58.9765C110.659 61.7805 109.322 62.2782 107.443 63.3571C106.555 63.8919 105.628 64.3587 104.67 64.7537C105.26 63.8564 105.934 63.0164 106.681 62.2445C107.611 61.2918 108.616 60.4141 109.685 59.6197C110.576 58.9681 111.527 58.404 112.526 57.9352C113.178 57.6575 113.849 57.4272 114.534 57.246C114.131 57.8785 113.653 58.4596 113.109 58.9765Z" fill="#191919"/>
<path d="M88.4248 77.5968C87.7896 77.4733 87.1354 77.4871 86.506 77.6374C85.6066 77.8838 84.7229 78.1842 83.8597 78.5371C84.6254 77.6818 85.702 76.1986 87.0756 75.6114C87.1517 75.5879 87.2156 75.5357 87.2539 75.4659C87.2921 75.3962 87.3018 75.3142 87.2807 75.2375C87.2595 75.1607 87.2094 75.0952 87.1408 75.0548C87.0723 75.0144 86.9907 75.0023 86.9133 75.021C85.5035 75.3907 84.272 76.2518 83.4409 77.449C82.96 78.0409 82.5037 78.8855 81.9692 79.165C79.6721 79.1742 78.849 78.3778 78.1966 76.4651C77.8837 75.3873 77.6571 74.2863 77.5189 73.1726L77.6216 73.0876C77.6878 73.0332 77.7393 72.963 77.7713 72.8834C77.8033 72.8039 77.8147 72.7176 77.8046 72.6325C77.7944 72.5473 77.763 72.4661 77.7132 72.3963C77.6635 72.3265 77.5969 72.2704 77.5197 72.2331C71.3757 69.1848 74.6101 71.1818 66.7999 66.7614C66.3278 66.4904 65.8422 66.2435 65.3451 66.0217C65.2557 65.9834 65.1578 65.9695 65.0614 65.9815C64.9649 65.9934 64.8733 66.0309 64.7961 66.0899L57.8734 71.7522C56.2006 72.9515 54.6041 74.2536 53.0931 75.6512C53.0389 75.7059 52.9979 75.7723 52.9731 75.8453C52.9484 75.9183 52.9406 75.996 52.9504 76.0724C52.9601 76.1489 52.9871 76.2221 53.0294 76.2866C53.0716 76.351 53.128 76.405 53.1942 76.4444C54.9331 77.4685 56.8308 78.195 58.8091 78.5937L58.9239 81.044C58.9245 81.1032 58.9375 81.1616 58.9622 81.2155C58.9869 81.2693 59.0226 81.3173 59.0671 81.3564C60.2922 82.3441 61.7218 82.4054 63.2019 82.6114C63.2371 82.6169 63.2731 82.6153 63.3078 82.6067C63.3424 82.598 63.3749 82.5825 63.4035 82.5611C63.432 82.5397 63.456 82.5128 63.474 82.482C63.492 82.4512 63.5036 82.4171 63.5082 82.3817L63.5327 82.1879C63.5387 82.1435 63.5348 82.0984 63.5214 82.0556C63.508 82.0128 63.4854 81.9735 63.4552 81.9404C63.425 81.9074 63.3879 81.8813 63.3465 81.8642C63.3051 81.847 63.2604 81.8391 63.2157 81.8411C62.3858 81.7733 61.5807 81.5253 60.8565 81.1144C60.8377 81.1047 60.8213 81.0908 60.8086 81.0738C60.7959 81.0568 60.7872 81.0371 60.7831 81.0163C60.7791 80.9954 60.7798 80.9739 60.7852 80.9534C60.7906 80.9329 60.8006 80.9139 60.8144 80.8977C61.6053 79.9807 62.6412 79.3082 63.8007 78.959C66.986 77.9559 71.3352 79.2163 71.4362 79.8541C71.4998 80.1956 70.4316 80.8089 70.058 80.9391C69.9791 80.9646 69.9134 81.0201 69.875 81.0935C69.8367 81.167 69.8287 81.2526 69.8528 81.3319C69.9431 81.6497 70.0656 81.7293 70.3834 81.9345C70.4402 81.9701 70.5052 81.9906 70.5722 81.9941C70.6392 81.9976 70.706 81.9839 70.7662 81.9544C71.7299 81.6256 72.6326 81.1397 73.4378 80.5164C74.3987 79.521 73.8313 78.7262 73.6077 76.8755C73.5832 76.6726 73.5733 76.4689 73.5534 76.263C74.7402 75.4521 75.5702 74.7737 76.7999 73.7645C76.7686 74.7914 76.9152 75.8159 77.2333 76.7928C78.8934 82.7216 84.9524 78.7071 87.7372 80.4613C87.771 80.4849 87.8092 80.5016 87.8495 80.5104C87.8898 80.5192 87.9314 80.52 87.972 80.5128C88.0126 80.5055 88.0514 80.4904 88.0861 80.4681C88.1208 80.4459 88.1508 80.417 88.1744 80.3832C88.198 80.3494 88.2147 80.3112 88.2235 80.2709C88.2324 80.2306 88.2332 80.189 88.2259 80.1484C88.2187 80.1078 88.2035 80.069 88.1813 80.0343C88.159 79.9996 88.1302 79.9696 88.0963 79.946C87.3017 79.4227 86.3819 79.1209 85.4317 79.0715C86.033 78.8542 86.6466 78.6727 87.2694 78.5279C88.0121 78.3663 88.0971 78.2507 88.4225 78.2163C88.5047 78.2166 88.5836 78.1842 88.6419 78.1264C88.7002 78.0685 88.7331 77.9898 88.7334 77.9077C88.7337 77.8255 88.7014 77.7466 88.6435 77.6883C88.5856 77.63 88.507 77.5971 88.4248 77.5968ZM72.7571 74.7852C72.7318 74.8181 72.7002 74.8455 72.664 74.8659C72.6279 74.8862 72.588 74.899 72.5467 74.9034C72.5055 74.9078 72.4638 74.9039 72.4241 74.8917C72.3844 74.8795 72.3477 74.8594 72.316 74.8326C70.8037 73.9114 69.0692 73.4191 67.2984 73.4084C65.5261 73.4569 63.7848 73.8848 62.1919 74.6634C62.1235 74.7084 62.04 74.7243 61.9598 74.7078C61.8796 74.6912 61.8093 74.6434 61.7643 74.575C61.7193 74.5065 61.7034 74.423 61.7199 74.3428C61.7365 74.2626 61.7843 74.1923 61.8527 74.1473C63.3985 72.915 65.337 72.2818 67.3122 72.364C69.2974 72.3133 71.2274 73.0208 72.7096 74.3426C72.7721 74.3966 72.8117 74.4724 72.8205 74.5545C72.8293 74.6367 72.8067 74.7191 72.7571 74.7852Z" fill="#191919"/>
<path d="M33.1052 36.8011C34.0102 35.5296 35.1274 34.4233 36.4077 33.5308C37.7331 32.7237 39.2563 32.2996 40.8081 32.3057C40.8488 32.3112 40.8901 32.3086 40.9296 32.2979C40.9692 32.2872 41.0062 32.2686 41.0385 32.2433C41.0708 32.2181 41.0977 32.1866 41.1175 32.1507C41.1374 32.1148 41.1499 32.0754 41.1542 32.0346C41.162 31.9521 41.1374 31.8698 41.0855 31.8052C41.0336 31.7405 40.9585 31.6987 40.8763 31.6885C40.0184 31.5091 39.1337 31.5006 38.2725 31.6636C37.4114 31.8265 36.5909 32.1576 35.8579 32.638C34.354 33.5223 33.1936 34.8895 32.5654 36.517C32.5304 36.5902 32.5251 36.6741 32.5505 36.7511C32.5759 36.8282 32.63 36.8924 32.7017 36.9305C32.7365 36.9492 32.7748 36.9606 32.8141 36.9642C32.8535 36.9678 32.8932 36.9634 32.9309 36.9513C32.9685 36.9393 33.0033 36.9197 33.0333 36.8939C33.0632 36.8681 33.0877 36.8365 33.1052 36.8011Z" fill="#191919"/>
<path d="M40.267 35.8218C38.864 35.901 37.5069 36.3501 36.3336 37.1234C34.7134 38.0729 33.1851 39.5936 33.0725 41.4772C33.0659 41.5174 33.0672 41.5586 33.0765 41.5983C33.0857 41.638 33.1027 41.6755 33.1265 41.7086C33.1502 41.7417 33.1803 41.7699 33.2149 41.7914C33.2495 41.8129 33.288 41.8274 33.3282 41.834C33.3685 41.8407 33.4096 41.8393 33.4493 41.8301C33.489 41.8208 33.5265 41.8038 33.5596 41.7801C33.5928 41.7563 33.6209 41.7263 33.6424 41.6916C33.6639 41.657 33.6784 41.6185 33.6851 41.5783C34.0396 40.1411 35.5993 38.8034 36.8857 38.0254C38.0224 37.425 39.1928 36.8906 40.3911 36.4251C40.4307 36.4171 40.4683 36.4014 40.5019 36.3789C40.5354 36.3563 40.5642 36.3274 40.5866 36.2937C40.6089 36.2601 40.6244 36.2223 40.6322 36.1827C40.64 36.143 40.6399 36.1022 40.6319 36.0626C40.6239 36.0229 40.6082 35.9853 40.5856 35.9517C40.5631 35.9182 40.5341 35.8894 40.5005 35.8671C40.4668 35.8447 40.4291 35.8292 40.3894 35.8214C40.3497 35.8136 40.3089 35.8138 40.2693 35.8218H40.267Z" fill="#191919"/>
<path d="M46.541 45.3012C47.0005 49.1588 47.0648 49.6174 47.4974 54.8081C47.504 54.8482 47.5026 54.8892 47.4932 54.9288C47.4839 54.9684 47.4667 55.0056 47.4427 55.0385C47.4188 55.0714 47.3886 55.0991 47.3538 55.1202C47.319 55.1412 47.2803 55.1551 47.2401 55.1611C47.1991 55.1674 47.1573 55.1656 47.1171 55.1557C47.0768 55.1458 47.0389 55.1281 47.0054 55.1036C46.972 55.0791 46.9437 55.0482 46.9223 55.0127C46.9008 54.9772 46.8865 54.9379 46.8802 54.8969C46.0548 50.4145 45.8274 47.8525 45.4836 45.22C45.4678 45.0807 45.5041 44.9405 45.5855 44.8264C46.2138 44.1061 46.6766 43.2568 46.9411 42.3383C47.2057 41.4197 47.2657 40.4544 47.1169 39.5102C46.9411 38.4907 46.5149 37.5309 45.8764 36.7169C45.8221 36.6551 45.7939 36.5746 45.7976 36.4924C45.8013 36.4101 45.8367 36.3326 45.8963 36.2759C45.9257 36.2491 45.9601 36.2283 45.9975 36.2149C46.0349 36.2014 46.0745 36.1955 46.1143 36.1974C46.154 36.1993 46.1929 36.209 46.2288 36.2261C46.2647 36.2431 46.2969 36.267 46.3236 36.2965C47.2175 37.0884 47.8391 38.1419 48.1 39.3073C48.2968 40.3595 48.2591 41.4422 47.9896 42.4782C47.7201 43.5142 47.2255 44.4781 46.541 45.3012Z" fill="#191919"/>
<path d="M64.8475 92.1069C64.6454 92.7141 64.6178 92.5464 64.7258 94.1957C64.7465 94.3986 64.7465 94.6023 64.7802 94.8083C64.8153 95.1482 64.8718 95.4855 64.9494 95.8182C64.9471 95.8592 64.953 95.9002 64.9665 95.939C64.9801 95.9777 65.0012 96.0133 65.0286 96.0439C65.056 96.0745 65.0891 96.0994 65.1261 96.1171C65.1631 96.1349 65.2032 96.1452 65.2442 96.1475C65.2852 96.1498 65.3262 96.1439 65.3649 96.1303C65.4036 96.1167 65.4393 96.0957 65.4699 96.0683C65.5004 96.0409 65.5253 96.0078 65.5431 95.9708C65.5609 95.9338 65.5712 95.8937 65.5734 95.8527C65.7443 95.3613 65.8113 94.8399 65.7702 94.3213C65.7702 93.8512 65.7105 93.0257 65.6822 92.7616C65.633 92.5366 65.5577 92.3182 65.4578 92.1107C65.4578 92.0705 65.4499 92.0307 65.4345 91.9935C65.4191 91.9564 65.3965 91.9226 65.3681 91.8942C65.3397 91.8657 65.3059 91.8431 65.2687 91.8278C65.2316 91.8124 65.1918 91.8044 65.1515 91.8044C65.0714 91.805 64.9946 91.837 64.9378 91.8936C64.8809 91.9501 64.8485 92.0267 64.8475 92.1069Z" fill="#191919"/>
<path d="M67.8722 97.587C67.8263 98.1791 67.7033 98.7627 67.5062 99.3229C66.9579 100.757 65.1715 101.773 63.8645 100.422C63.2386 99.6415 62.8693 98.687 62.8071 97.6889C62.8006 97.6145 62.8107 97.5397 62.8364 97.4696C62.8622 97.3996 62.903 97.3361 62.9561 97.2836C63.0091 97.2311 63.0731 97.191 63.1434 97.166C63.2137 97.141 63.2887 97.1318 63.363 97.1391C64.5881 97.2846 66.3492 97.0702 67.5804 97.1123C67.7987 97.0954 67.9809 97.2937 67.8722 97.587ZM67.1126 97.8037C66.0576 98.0163 64.9873 98.1443 63.912 98.1866C64.0135 98.6239 64.1876 99.0412 64.4273 99.4209C64.8974 100.161 65.399 100.131 66.0552 99.6712C66.5294 99.126 66.889 98.4909 67.1126 97.8037Z" fill="#191919"/>
<path d="M98.2756 129.55C95.3928 134.135 93.206 137.454 92.0987 139.436C92.0811 139.474 92.0561 139.508 92.0251 139.536C91.9941 139.565 91.9578 139.586 91.9183 139.6C91.8788 139.614 91.837 139.62 91.7951 139.618C91.7533 139.615 91.7125 139.604 91.6749 139.586C91.6374 139.567 91.6039 139.541 91.5765 139.51C91.5491 139.478 91.5283 139.441 91.5154 139.401C91.5024 139.361 91.4976 139.319 91.5011 139.278C91.5047 139.236 91.5165 139.195 91.536 139.158C93.7687 134.429 94.5421 133.645 97.5911 128.681C97.649 128.588 97.7341 128.516 97.8349 128.473C97.9356 128.431 98.0471 128.421 98.1539 128.444C104.934 130.052 110.884 132.536 116.612 134.994C116.66 135.016 116.704 135.048 116.738 135.088C116.773 135.128 116.799 135.176 116.813 135.227C116.828 135.278 116.831 135.331 116.823 135.384C116.815 135.436 116.795 135.486 116.765 135.53L115.846 136.785C115.799 136.856 115.726 136.906 115.642 136.924C115.558 136.942 115.471 136.926 115.399 136.88C115.332 136.831 115.287 136.76 115.271 136.679C115.256 136.598 115.273 136.515 115.317 136.445L115.934 135.497C109.744 133.192 103.681 130.844 98.2756 129.55Z" fill="#191919"/>
<path d="M114.604 137.94C114.043 137.628 113.455 137.367 112.848 137.161C111.905 136.802 110.94 136.508 109.959 136.279C109.605 136.218 109.245 136.195 108.887 136.211C108.847 136.201 108.807 136.199 108.767 136.205C108.727 136.211 108.688 136.224 108.654 136.245C108.619 136.266 108.589 136.293 108.565 136.326C108.541 136.358 108.523 136.395 108.514 136.435C108.497 136.516 108.512 136.6 108.556 136.67C108.601 136.739 108.671 136.789 108.751 136.808C109.133 137.022 109.538 137.193 109.958 137.317C110.034 137.342 113.272 138.384 113.694 138.51C114.962 138.863 115.209 138.949 115.335 138.645C115.462 138.341 115.093 138.185 114.604 137.94Z" fill="#191919"/>
<path d="M112.596 139.81C111.47 139.263 110.305 138.8 109.11 138.426C108.356 138.273 108.196 138.287 108.106 138.495C107.986 138.772 108.245 138.908 108.601 139.165C108.715 139.251 108.836 139.327 108.961 139.395C110.085 139.9 111.235 140.343 112.407 140.724C113.215 140.95 113.544 141.136 113.702 140.819C113.829 140.521 113.546 140.338 112.596 139.81Z" fill="#191919"/>
<path d="M111.692 142.297C111.044 141.86 110.339 141.513 109.597 141.266C108.964 141.028 108.319 140.822 107.664 140.649C107.519 140.624 107.371 140.608 107.223 140.602C106.807 140.574 106.481 140.504 106.403 140.792C106.324 141.08 106.602 141.21 107.223 141.524C107.52 141.678 108.54 142.002 108.926 142.137C111.835 143.217 112.119 143.393 112.309 143.073C112.482 142.763 112.07 142.539 111.692 142.297Z" fill="#191919"/>
<path d="M45.0503 46.9305C44.9375 46.1596 44.7766 45.3965 44.5687 44.6457C44.3344 43.749 44.2303 43.5247 43.9715 43.54C43.5886 43.563 43.6177 44.4259 43.633 44.808C43.9043 46.1958 44.0874 47.5993 44.1813 49.0102C43.8747 48.8548 43.5348 48.7765 43.1912 48.782C42.8475 48.7875 42.5103 48.8766 42.2088 49.0416C41.6828 49.2713 40.816 49.8402 41.2525 50.2077C41.2834 50.2332 41.3191 50.2523 41.3575 50.2638C41.396 50.2752 41.4363 50.2788 41.4761 50.2744C41.516 50.27 41.5545 50.2576 41.5895 50.238C41.6245 50.2184 41.6552 50.1919 41.6797 50.1603C42.0855 49.8628 42.574 49.6992 43.0771 49.6924C43.2303 49.684 43.5212 49.6993 43.6192 49.821C43.7594 49.9972 43.4868 50.6495 43.0565 51.0217C41.9975 51.9405 39.8819 52.1151 38.875 51.2391C39.1606 50.3383 39.7038 49.5408 40.4375 48.9452C41.1712 48.3496 42.0633 47.982 43.0036 47.8877C43.077 47.8832 43.1485 47.8624 43.2129 47.8269C43.2772 47.7913 43.3329 47.7418 43.3757 47.682C43.4185 47.6223 43.4475 47.5537 43.4605 47.4813C43.4735 47.4089 43.4702 47.3345 43.4508 47.2636C42.9799 45.5794 42.6152 43.8672 42.3589 42.1372C42.3547 42.0952 42.3419 42.0545 42.3212 42.0176C42.3005 41.9808 42.2724 41.9486 42.2386 41.9231C42.2049 41.8977 42.1663 41.8795 42.1252 41.8697C42.0841 41.8599 42.0414 41.8587 41.9998 41.8662C41.9187 41.8775 41.8451 41.9197 41.7946 41.9842C41.744 42.0486 41.7204 42.1301 41.7287 42.2115C41.836 43.8036 42.0465 45.3871 42.3589 46.952C41.5837 47.0923 40.8459 47.3919 40.1924 47.8318C39.5388 48.2717 38.9836 48.8424 38.5618 49.5079C38.5388 49.0033 38.2096 44.7276 38.1889 44.2935C38.1928 44.2535 38.1884 44.2131 38.1759 44.1749C38.1635 44.1368 38.1432 44.1016 38.1164 44.0717C38.0896 44.0417 38.0569 44.0177 38.0204 44.001C37.9838 43.9844 37.9442 43.9755 37.9041 43.9749C37.8229 43.9731 37.7441 44.0022 37.6836 44.0564C37.6232 44.1106 37.5856 44.1858 37.5786 44.2667C37.2894 46.6978 37.335 49.1572 37.7142 51.576C37.7231 51.6628 37.7536 51.7459 37.8028 51.8179C37.852 51.8899 37.9183 51.9485 37.9959 51.9884C38.0734 52.0284 38.1597 52.0483 38.2468 52.0465C38.334 52.0447 38.4194 52.0211 38.4952 51.978C39.7203 53.3509 42.3643 53.0171 43.7349 51.808C44.3545 51.2139 44.8119 50.4711 45.0634 49.6503C45.2296 48.7509 45.2252 47.8283 45.0503 46.9305Z" fill="#191919"/>
<path d="M47.6185 16.2465C44.1728 15.5061 38.4431 15.5222 37.888 19.0199C37.368 22.4968 37.2813 26.0248 37.6299 29.523C37.636 29.6032 37.6724 29.678 37.7317 29.7322C37.791 29.7864 37.8688 29.8159 37.9492 29.8147C37.9904 29.8145 38.0311 29.8057 38.0686 29.7888C38.1062 29.7719 38.1398 29.7474 38.1672 29.7167C38.1947 29.6861 38.2155 29.65 38.2282 29.6108C38.2409 29.5717 38.2452 29.5303 38.2409 29.4893C38.2234 26.0417 38.4521 22.5972 38.9255 19.1822C39.3236 16.6455 44.1422 16.7113 46.6966 17.1279C44.3543 21.2527 42.2555 25.095 41.597 29.7879C41.584 29.8687 41.6029 29.9514 41.6498 30.0184C41.6967 30.0854 41.7678 30.1316 41.8482 30.1471C42.705 30.3002 41.5947 28.5682 45.7938 20.8369C46.1414 21.2829 46.4232 21.7765 46.6307 22.3025C45.4627 24.826 44.7972 27.5529 44.6713 30.3308C44.6383 31.2641 44.6225 32.1979 44.6238 33.1318C44.6203 33.1728 44.6251 33.2142 44.6379 33.2534C44.6507 33.2926 44.6714 33.3288 44.6985 33.3599C44.7257 33.3909 44.7589 33.4161 44.796 33.434C44.8332 33.4519 44.8736 33.4622 44.9148 33.4641C44.9967 33.4661 45.0763 33.4372 45.1379 33.3831C45.1995 33.3291 45.2385 33.2538 45.2471 33.1723C45.2923 32.7305 45.5932 30.5345 45.6744 29.8798C45.908 27.3525 46.5685 24.8831 47.6277 22.5766C47.6613 22.5173 47.6817 22.4514 47.6875 22.3835C47.6934 22.3155 47.6844 22.2472 47.6614 22.183C47.3811 21.3737 46.8574 20.6708 46.1621 20.1707C46.7486 19.1101 47.3471 18.0561 47.9577 17.0092C47.9959 16.9382 48.0173 16.8595 48.0204 16.7789C48.0234 16.6984 48.008 16.6182 47.9752 16.5446C47.9425 16.471 47.8933 16.4058 47.8315 16.3542C47.7696 16.3025 47.6968 16.2657 47.6185 16.2465Z" fill="#191919"/>
<path d="M67.8811 91.8342C68.3015 91.8342 68.6338 92.2891 68.6338 92.8587C68.6338 93.4284 68.3015 93.8756 67.8811 93.8756C67.4607 93.8756 67.1284 93.4215 67.1284 92.8587C67.1284 92.2959 67.4607 91.8342 67.8811 91.8342Z" fill="#191919"/>
<path d="M119.625 83.4445C119.836 83.5498 119.998 83.7333 120.077 83.9562C120.155 84.179 120.144 84.4236 120.045 84.6382C119.883 85.1803 119.429 85.5195 119.028 85.397C118.817 85.2898 118.655 85.1051 118.577 84.8815C118.499 84.658 118.51 84.4128 118.608 84.1972C118.771 83.6612 119.225 83.3227 119.625 83.4445Z" fill="#191919"/>
<path d="M62.7883 92.0195C63.2087 92.0195 63.541 92.4736 63.541 93.0371C63.541 93.6007 63.2087 94.0609 62.7883 94.0609C62.368 94.0609 62.0356 93.6015 62.0356 93.0371C62.0356 92.4728 62.368 92.0195 62.7883 92.0195Z" fill="#191919"/>
<path d="M94.6991 130.483C92.2488 125.474 88.2075 122.508 83.4563 119.586C82.1477 118.678 80.7509 117.904 79.287 117.277C78.4777 116.321 77.3912 115.075 77.9141 113.939C78.4417 112.726 80.5619 112.097 80.2465 110.047C79.9531 109.065 79.2927 108.234 78.4027 107.727C78.0129 107.498 77.4532 107.298 77.3177 106.975C77.3611 106.842 77.4227 106.717 77.5007 106.602C77.9911 106.077 78.3429 105.438 78.5244 104.743C78.625 104.21 78.6098 103.662 78.48 103.136C78.3501 102.609 78.1086 102.117 77.7717 101.692C76.5466 99.9768 75.1883 99.5756 75.1883 96.0166C75.2219 94.4025 75.5275 92.7616 75.4455 91.1544C75.2457 87.8918 73.0129 84.6789 69.7296 83.8649C69.0911 83.0156 68.1431 82.4525 67.0917 82.2983C64.3352 81.8389 61.4332 83.7662 59.6124 85.9063C58.0444 87.7544 56.9856 89.9795 56.5404 92.3619C56.3019 93.7303 56.1726 95.1155 56.1537 96.5043C55.96 98.2501 54.947 99.0717 54.316 100.431C53.8788 101.176 53.7469 102.062 53.9479 102.902C54.1488 103.743 54.6671 104.473 55.3941 104.94C55.6683 105.197 56.3658 105.806 56.303 106.181C56.2517 106.438 55.8528 106.727 55.6453 106.818C55.4156 106.919 55.2624 106.907 55.1154 107.088L53.6032 106.493C53.0404 106.276 52.4983 105.991 51.9554 105.747C51.7976 105.677 51.6602 105.568 51.5557 105.43C51.4512 105.292 51.383 105.131 51.3574 104.96C50.0404 96.1858 50.4837 87.1957 50.1836 78.5785C49.9048 71.1849 49.0932 62.8051 49.2348 55.8755C49.2382 55.7978 49.2241 55.7204 49.1936 55.6489C49.1632 55.5773 49.1171 55.5135 49.0587 55.4621C48.6422 55.0953 49.1943 55.5493 35.7225 57.3893C35.5296 54.7859 35.2754 51.3993 35.7095 48.8694C35.7206 48.7365 35.6921 48.6033 35.6276 48.4865C34.1605 46.4023 35.3979 44.6044 37.3573 42.9735C38.147 42.3234 38.9831 41.7317 39.8589 41.2032C39.9274 41.1638 39.9791 41.1007 40.0042 41.0258C40.0293 40.9508 40.0261 40.8693 39.9951 40.7966C39.9553 40.723 39.889 40.6674 39.8097 40.6409C39.7303 40.6145 39.6439 40.6192 39.5679 40.6542C38.5811 41.0632 37.64 41.5746 36.7601 42.1802C34.3734 43.9276 33.0012 46.3855 34.6383 48.9069C34.1789 52.1228 34.623 54.6918 35.0663 57.4827C29.6023 58.2239 28.1597 58.6696 25.806 58.714C25.6745 58.7176 25.5492 58.7706 25.455 58.8624C25.3608 58.9542 25.3046 59.0781 25.2975 59.2094C24.2937 78.3328 23.7324 105.049 29.1084 123.31C29.1084 123.558 28.5548 131.367 28.9185 135.244C28.9204 135.285 28.9303 135.325 28.9477 135.361C28.9652 135.398 28.9898 135.431 29.02 135.458C29.0503 135.485 29.0857 135.506 29.1242 135.52C29.1626 135.533 29.2033 135.538 29.244 135.536C29.2846 135.533 29.3244 135.522 29.3608 135.504C29.3973 135.486 29.4297 135.461 29.4562 135.43C29.4828 135.399 29.5028 135.363 29.5153 135.324C29.5278 135.285 29.5323 135.244 29.5288 135.204C29.4682 131.269 29.6065 127.333 29.943 123.412V123.269C29.943 123.269 29.943 123.249 29.9086 123.229C29.905 123.201 29.8933 123.174 29.8749 123.152L29.9224 123.145C24.8573 104.858 25.3389 78.6903 26.3152 59.7454C27.2202 59.7033 41.9354 57.6696 48.1835 56.4843C47.9921 63.5233 48.9492 71.5808 49.2348 78.6168C49.2348 78.6934 49.8558 104.628 50.5243 106.118C51.3581 108.369 52.2938 110.559 53.3114 112.703C55.1614 116.635 59.9531 125.949 62.6147 129.981C63.7139 131.661 64.9622 133.238 66.3444 134.694C66.4155 134.768 66.5082 134.818 66.6093 134.836C66.7104 134.854 66.8146 134.84 66.9072 134.795C68.9792 133.776 70.8123 132.13 72.4202 130.89C76.3758 127.901 79.9384 124.424 83.0237 120.542C87.3744 123.233 91.4732 126.351 94.1562 130.787C94.1761 130.823 94.2029 130.855 94.2352 130.881C94.2675 130.907 94.3046 130.926 94.3443 130.937C94.384 130.949 94.4256 130.952 94.4666 130.947C94.5077 130.943 94.5474 130.93 94.5834 130.91C94.6197 130.89 94.6515 130.863 94.677 130.83C94.7026 130.798 94.7213 130.761 94.7321 130.721C94.7429 130.681 94.7456 130.64 94.7399 130.599C94.7342 130.558 94.7203 130.518 94.6991 130.483ZM62.5687 91.6154C64.0004 89.9102 65.6997 88.4491 67.6002 87.2891C68.4509 90.5288 69.1063 92.1567 69.591 94.2532C69.9077 96.4499 69.8202 98.686 69.3329 100.851C69.077 102.282 68.4636 103.626 67.5496 104.756C67.4701 104.849 67.4269 104.967 67.4279 105.089C67.6734 107.497 67.782 109.917 67.7533 112.338C67.754 112.403 67.7711 112.467 67.8031 112.524C67.8351 112.581 67.8809 112.628 67.9363 112.663C68.5907 113.071 69.2661 113.456 69.9624 113.817C69.1721 114.473 68.3788 115.126 67.5826 115.775C66.7954 114.806 66.0021 113.85 65.2701 112.846C63.607 110.493 63.9133 110.486 63.6315 110.313C63.5366 108.796 63.581 107.087 63.5358 105.367C64.3542 105.528 65.1952 105.536 66.0167 105.393C66.0572 105.39 66.0969 105.38 66.1335 105.363C66.17 105.345 66.2028 105.32 66.2299 105.29C66.2569 105.26 66.2777 105.224 66.2911 105.186C66.3046 105.148 66.3103 105.107 66.308 105.067C66.3058 105.026 66.2956 104.987 66.278 104.95C66.2604 104.913 66.2357 104.881 66.2055 104.854C66.1752 104.827 66.1399 104.806 66.1016 104.792C66.0633 104.779 66.0228 104.773 65.9822 104.775C64.8322 104.86 63.6862 104.564 62.7211 103.933C61.4684 103.007 60.9654 101.33 60.7609 99.7762C60.3314 96.4477 60.5534 94.1628 62.5687 91.6154ZM71.8858 130.179C70.2961 131.516 68.5946 132.714 66.8 133.759C65.5716 132.408 64.458 130.956 63.4707 129.419C59.0874 122.199 55.2325 114.671 51.9362 106.893C52.3566 107.096 52.7908 107.3 53.2111 107.47C56.6062 108.791 59.643 110.025 62.996 111.179C64.1969 113.174 65.5746 115.058 67.1124 116.807C67.1521 116.859 67.2019 116.903 67.259 116.936C67.316 116.968 67.379 116.989 67.4443 116.996C67.5095 117.004 67.5756 116.998 67.6386 116.98C67.7015 116.961 67.7601 116.93 67.8107 116.888C68.8671 116.046 69.9064 115.183 70.9279 114.299C71.6323 114.644 72.346 114.97 73.0627 115.289C78.7227 118.024 79.5045 118.254 82.4877 120.19C79.3755 123.941 75.815 127.295 71.8858 130.179Z" fill="#191919"/>
<path d="M96.8757 65.0731C96.0235 65.0686 95.1728 65.1432 94.3344 65.2959C93.9284 63.4185 93.5401 61.5374 93.1697 59.6527C92.6289 56.8398 92.2709 53.9949 92.0977 51.1358C92.0991 51.0956 92.0925 51.0555 92.0784 51.0178C92.0642 50.9801 92.0428 50.9456 92.0153 50.9162C91.9879 50.8868 91.9549 50.8631 91.9182 50.8465C91.8816 50.8298 91.842 50.8206 91.8018 50.8192C91.7616 50.8178 91.7215 50.8244 91.6838 50.8386C91.6461 50.8527 91.6116 50.8741 91.5822 50.9016C91.5528 50.9291 91.5291 50.9621 91.5125 50.9987C91.4958 51.0354 91.4865 51.0749 91.4852 51.1151C91.3655 51.8733 91.3087 52.6401 91.3152 53.4076C91.4086 55.5771 91.6879 57.7346 92.1498 59.8564C92.5143 61.5876 92.7578 62.3503 93.6812 65.4368C91.5145 65.9946 89.4162 66.7907 87.4247 67.8105C87.1513 66.7224 83.3879 53.0899 83.2317 52.6419C83.0081 51.9704 82.7723 51.3196 82.5334 50.6511C82.5247 50.6115 82.5079 50.5741 82.484 50.5413C82.4601 50.5086 82.4297 50.4811 82.3946 50.4607C82.3595 50.4404 82.3206 50.4275 82.2803 50.423C82.24 50.4184 82.1992 50.4223 82.1605 50.4344C82.084 50.4578 82.0191 50.5092 81.979 50.5783C81.9388 50.6475 81.9262 50.7293 81.9438 50.8073C82.0541 51.4444 82.3167 52.9413 82.4859 53.5807C83.0678 56.0156 84.8381 62.0953 85.3611 63.7316C85.587 64.4521 85.3611 63.7316 86.8297 68.116C86.1797 68.4506 85.3259 68.9468 84.6858 69.3143C84.5961 69.3571 84.5245 69.4302 84.4834 69.5207C84.4424 69.6112 84.4346 69.7133 84.4614 69.8089C84.7179 70.8128 84.9055 71.3158 85.2271 72.3656C85.2354 72.4058 85.2518 72.4438 85.2754 72.4774C85.2989 72.511 85.3291 72.5394 85.364 72.5609C85.3989 72.5825 85.4379 72.5966 85.4785 72.6025C85.519 72.6084 85.5604 72.606 85.6 72.5953C85.6408 72.5859 85.6793 72.5684 85.7133 72.5441C85.7473 72.5197 85.7762 72.4888 85.7983 72.4532C85.8203 72.4176 85.8351 72.3781 85.8418 72.3367C85.8485 72.2954 85.847 72.2532 85.8374 72.2125L85.3971 69.9544C87.1697 69.0677 89.2662 68.0486 90.8964 67.4276C92.8703 66.7085 94.8914 66.1262 96.9454 65.6849C97.0265 65.6756 97.1007 65.6346 97.1515 65.5706C97.2023 65.5067 97.2257 65.4253 97.2164 65.3441C97.2072 65.263 97.1661 65.1889 97.1022 65.138C97.0383 65.0872 96.9568 65.0638 96.8757 65.0731Z" fill="#191919"/>
<path d="M96.4349 110.992C93.5107 102.656 89.6201 90.0601 87.9448 81.4881C87.9292 81.4082 87.9452 81.3254 87.9895 81.2571C88.0338 81.1888 88.1029 81.1404 88.1822 81.1221C88.2205 81.1127 88.2603 81.111 88.2993 81.1172C88.3383 81.1234 88.3756 81.1373 88.4091 81.1581C88.4426 81.179 88.4717 81.2063 88.4945 81.2385C88.5173 81.2707 88.5335 81.3071 88.542 81.3456C91.0275 90.2951 94.3728 102.029 97.4241 110.85C97.5451 111.144 97.4134 111.023 95.8238 114.796C95.0581 116.607 94.3254 118.431 93.5589 120.242C93.5264 120.317 93.4658 120.377 93.3899 120.409C93.314 120.44 93.2288 120.441 93.1523 120.411C93.1142 120.397 93.0794 120.375 93.05 120.347C93.0207 120.318 92.9973 120.285 92.9814 120.247C92.9655 120.21 92.9574 120.169 92.9575 120.129C92.9577 120.088 92.9661 120.048 92.9823 120.01C94.0643 117.082 95.1424 114.026 96.4349 110.992Z" fill="#191919"/>
<path d="M149.425 54.8434C149.442 54.8064 149.451 54.7665 149.453 54.7259C149.454 54.6852 149.448 54.6447 149.434 54.6066C149.42 54.5685 149.398 54.5335 149.37 54.5037C149.343 54.474 149.309 54.4499 149.273 54.433C149.236 54.416 149.196 54.4065 149.155 54.405C149.114 54.4035 149.074 54.41 149.036 54.4241C148.998 54.4383 148.963 54.4598 148.933 54.4875C148.903 54.5151 148.879 54.5484 148.862 54.5853C146.323 59.8447 144.24 65.3122 142.636 70.9277C142.132 72.8054 141.695 74.7007 141.328 76.6099C141.315 76.6491 141.311 76.6905 141.316 76.7313C141.321 76.7721 141.334 76.8115 141.355 76.8467C141.377 76.882 141.405 76.9124 141.439 76.9358C141.472 76.9593 141.511 76.9753 141.551 76.9828C141.591 76.9927 141.632 76.9946 141.672 76.9883C141.713 76.9821 141.751 76.9678 141.786 76.9464C141.821 76.925 141.851 76.8969 141.875 76.8637C141.898 76.8305 141.915 76.7929 141.924 76.7531C142.141 76.0073 143.215 72.4062 143.545 71.3511C144.673 72.8135 145.679 74.3666 146.551 75.9943C147.324 77.5978 147.925 79.2787 148.343 81.0089C145.351 80.7063 142.55 79.3974 140.398 77.2963C138.247 75.1952 136.872 72.4262 136.498 69.4422C136.482 69.3232 136.426 69.2132 136.339 69.1306C136.252 69.048 136.139 68.9978 136.019 68.9883C135.9 68.9788 135.78 69.0107 135.681 69.0785C135.582 69.1463 135.509 69.246 135.475 69.361C133.196 77.2853 130.256 90.6475 124.367 96.5396C123.53 97.3772 119.662 96.7693 118.346 96.7425C118.305 96.7399 118.265 96.7454 118.226 96.7587C118.188 96.7721 118.152 96.7929 118.122 96.8201C118.092 96.8472 118.067 96.8802 118.05 96.9169C118.032 96.9537 118.022 96.9936 118.02 97.0342C118.017 97.0747 118.022 97.1155 118.034 97.1541C118.047 97.1926 118.068 97.228 118.096 97.258C118.123 97.288 118.157 97.312 118.194 97.3283C118.231 97.3446 118.272 97.3529 118.312 97.3527L118.501 97.3665C117.492 98.5266 116.221 99.4293 114.794 99.9998C112.703 100.599 111.785 98.6889 112.169 96.2226C112.192 96.1485 112.185 96.0685 112.151 95.999C112.116 95.9296 112.057 95.8761 111.984 95.8497C111.4 95.6177 110.804 95.4216 110.197 95.2624C109.79 95.1605 109.383 95.0863 108.719 94.9706C106.245 87.7057 102.062 77.1467 99.6659 70.492C99.6384 70.4144 99.5825 70.3501 99.5094 70.3123C99.4363 70.2745 99.3515 70.2659 99.2723 70.2883C99.2338 70.3 99.1979 70.3192 99.1668 70.3448C99.1357 70.3704 99.11 70.4019 99.0911 70.4375C99.0721 70.473 99.0604 70.512 99.0566 70.5521C99.0527 70.5922 99.0568 70.6326 99.0686 70.6712C101.405 79.2056 106.214 90.7394 107.893 95.1498C106.624 101.974 106.852 105.513 106.574 112.761C106.57 112.825 106.579 112.889 106.599 112.949C105.909 114.17 105.645 114.9 104.749 116.739C102.593 121.253 104.399 117.29 102.187 122.191C102.149 122.266 102.142 122.353 102.167 122.433C102.193 122.512 102.248 122.579 102.322 122.619C102.394 122.656 102.478 122.664 102.555 122.64C102.633 122.616 102.698 122.562 102.736 122.49C103.936 120.68 104.99 118.777 105.889 116.8C106.466 115.669 106.935 114.486 107.288 113.267C107.331 113.25 107.371 113.228 107.409 113.202C112.386 109.554 123.087 101.704 125.524 96.4844C131.045 90.6253 133.71 79.6061 135.902 71.6957C136.678 74.4639 138.272 76.9332 140.475 78.7798C142.679 80.6265 145.389 81.7643 148.25 82.0441C145.498 93.2853 135.571 107.681 128.334 116.694C128.105 116.847 126.379 124.226 124.13 127.874C124.084 127.942 124.067 128.026 124.082 128.107C124.097 128.188 124.144 128.26 124.211 128.308C124.285 128.351 124.372 128.364 124.455 128.345C124.538 128.326 124.611 128.276 124.659 128.206C125.483 126.825 126.176 125.37 126.726 123.859C127.73 121.318 128.911 117.465 128.991 117.166C136.639 107.896 146.771 93.3604 149.402 81.688C149.436 81.559 149.417 81.422 149.35 81.3065C149.284 81.191 149.174 81.1064 149.046 81.0709C148.791 78.2739 147.807 75.5926 146.192 73.2944C145.536 72.2758 144.718 71.3707 143.771 70.6145C145.353 65.2537 147.24 59.9881 149.425 54.8434ZM107.666 111.72C107.802 107.457 107.886 100.676 108.44 95.7478C109.467 95.8362 110.483 96.0307 111.47 96.3282C111.36 96.6164 111.27 96.9116 111.2 97.2118C110.817 99.522 112.443 101.806 115.085 100.996C116.854 100.345 118.334 99.0856 119.26 97.4439C120.594 97.597 122.84 97.8987 124.122 97.5204C121.076 101.742 112.598 108.067 107.666 111.72Z" fill="#191919"/>
<path d="M13.0996 30.7322C12.133 31.6062 11.1923 32.5086 10.2788 33.4382C12.6016 35.1828 14.5321 37.396 15.945 39.9344C16.7083 39.4371 17.5166 39.0126 18.3592 38.6664C17.0223 35.8049 15.3638 32.7651 13.0996 30.7322Z" fill="#38A1FF"/>
<path d="M18.6128 39.249C17.6974 39.695 16.8315 40.2361 16.0293 40.8631C15.9822 40.8963 15.9286 40.9192 15.872 40.9304C15.8154 40.9416 15.7572 40.9408 15.7009 40.928C15.6447 40.9152 15.5918 40.8908 15.5456 40.8563C15.4994 40.8217 15.461 40.7779 15.4328 40.7276C13.8478 38.0555 11.7201 35.7455 9.18701 33.9466C9.12624 33.9023 9.07547 33.8457 9.03801 33.7804C9.00055 33.7152 8.97724 33.6429 8.96958 33.568C8.96193 33.4932 8.9701 33.4176 8.99358 33.3462C9.01706 33.2747 9.05531 33.209 9.10585 33.1533C10.1778 32.0178 11.6135 30.6464 12.7406 29.641C12.8348 29.5578 12.9559 29.5113 13.0816 29.51C13.2073 29.5088 13.3293 29.5528 13.4252 29.6342C14.8534 30.8601 16.062 32.3208 16.9987 33.9535C17.9212 35.5568 18.6563 37.261 19.1893 39.0324C19.2181 39.1088 19.2153 39.1936 19.1815 39.2679C19.1478 39.3423 19.0859 39.4003 19.0094 39.429C18.933 39.4577 18.8482 39.4549 18.7738 39.4212C18.6994 39.3874 18.6415 39.3255 18.6128 39.249ZM13.0997 30.7322C12.1332 31.6063 11.1925 32.5087 10.2789 33.4382C12.6019 35.1827 14.5323 37.3959 15.9451 39.9344C16.7082 39.4368 17.5165 39.0122 18.3593 38.6664C17.9956 37.8853 17.3838 36.6503 16.8808 35.7705C15.9167 33.8879 14.6379 32.1839 13.0997 30.7322Z" fill="#191919"/>
<path d="M57.3434 16.4894C57.3673 16.4451 57.4017 16.4073 57.4435 16.3793C57.4852 16.3512 57.5332 16.3338 57.5833 16.3284C57.6334 16.3231 57.684 16.33 57.7307 16.3486C57.7775 16.3671 57.8191 16.3968 57.8518 16.4351L57.9399 16.4213C58.0207 16.4081 58.1034 16.4269 58.1705 16.4738C58.2376 16.5208 58.2837 16.592 58.299 16.6724C58.3102 16.7473 58.2946 16.8237 58.255 16.8881C58.2153 16.9526 58.1542 17.0009 58.0823 17.0247C58.9475 19.6371 59.4604 22.3532 59.6076 25.1013C59.6095 25.2274 59.5661 25.3501 59.4854 25.447C59.4046 25.544 59.2917 25.6087 59.1673 25.6296C57.8824 25.8203 56.2446 26.1181 54.8273 26.2467C54.6972 26.2583 54.5674 26.2209 54.4633 26.1419C54.3593 26.0629 54.2884 25.9479 54.2645 25.8195C53.9077 23.8287 53.2354 20.0408 52.6849 17.7643C52.6539 17.6317 52.6768 17.4922 52.7486 17.3765C52.8204 17.2608 52.9352 17.1783 53.0677 17.1472C53.6313 17.0499 54.9743 16.772 57.3434 16.4894ZM57.4315 17.1671C56.6765 17.3631 54.8664 17.8133 53.7898 18.0285C54.3403 20.2789 54.8533 23.1587 55.2209 25.1618C57.6305 24.8448 56.6313 24.9665 58.57 24.687C58.4518 22.1477 58.0702 19.6276 57.4315 17.1671Z" fill="#191919"/>
<path d="M79.3768 30.8057C78.631 31.1717 76.0743 32.3792 75.5659 32.6097C75.6042 33.4558 75.7604 34.1411 75.8645 34.9489C76.6938 34.8792 77.5376 34.9305 78.373 34.8815C79.1647 34.8355 79.8584 34.7383 80.7535 34.7383C80.223 33.4536 79.7634 32.1408 79.3768 30.8057Z" fill="#38A1FF"/>
<path d="M81.1463 35.39C80.2275 35.4451 79.3753 35.6151 78.4549 35.7422C77.5077 35.8632 76.3722 35.8601 75.5322 36.0072C75.4005 36.0248 75.267 35.991 75.1596 35.9127C75.0522 35.8344 74.9791 35.7176 74.9557 35.5868C74.738 34.4956 74.5818 33.393 74.4878 32.2843C74.4868 32.1796 74.5172 32.0771 74.5753 31.9899C74.6333 31.9028 74.7162 31.8352 74.8132 31.7958C75.2811 31.5921 78.373 30.1281 79.458 29.612C79.5246 29.5803 79.5972 29.5632 79.671 29.5621C79.7448 29.5609 79.8179 29.5757 79.8855 29.6053C79.9531 29.6349 80.0135 29.6788 80.0626 29.7339C80.1117 29.7889 80.1483 29.8539 80.1701 29.9244C80.6887 31.5143 81.1232 33.1304 81.4718 34.766C81.5469 34.7922 81.6096 34.8455 81.6474 34.9155C81.6853 34.9855 81.6957 35.0671 81.6765 35.1443C81.6573 35.2216 81.61 35.2889 81.5438 35.333C81.4776 35.3772 81.3973 35.3951 81.3186 35.3831C81.2625 35.3988 81.2035 35.4012 81.1463 35.39ZM79.3768 30.8058C78.631 31.1718 76.0743 32.3793 75.5659 32.6097C75.6042 33.4574 75.7612 34.1496 75.8646 34.949C76.7007 34.8793 77.5361 34.9306 78.373 34.8816C79.1647 34.8356 79.8584 34.7384 80.7535 34.7384C80.2321 33.4918 79.7604 32.0623 79.3768 30.8058Z" fill="#191919"/>
<path d="M97.4217 20.857C97.4762 20.8538 97.5305 20.8647 97.5795 20.8887C97.6285 20.9127 97.6705 20.949 97.7013 20.994C97.7321 21.039 97.7508 21.0912 97.7555 21.1455C97.7601 21.1999 97.7507 21.2545 97.728 21.3042C97.1537 22.6763 96.2027 24.2835 95.7211 25.5492C95.6657 25.6674 95.569 25.7614 95.4493 25.8134C95.3215 25.8598 95.1808 25.8551 95.0565 25.8003C93.7732 25.2231 92.4937 24.6375 91.218 24.0438C91.1529 24.0136 91.0946 23.9704 91.0468 23.9168C90.999 23.8632 90.9627 23.8004 90.9401 23.7322C90.8168 23.3792 90.9538 23.4221 92.9003 19.9481C93.1506 19.4665 93.4217 18.9848 93.6591 18.4971C93.6951 18.4274 93.7465 18.3669 93.8094 18.32C93.8722 18.2731 93.9449 18.241 94.022 18.2263C94.099 18.2115 94.1784 18.2145 94.2541 18.2349C94.3299 18.2552 94.4 18.2925 94.4592 18.344C94.7287 18.5852 96.6422 20.2475 97.4217 20.857ZM94.2892 19.5415C93.3252 21.3486 93.1353 21.6288 92.1667 23.3386L95.035 24.7016C95.6591 23.4542 96.3206 22.5744 96.9952 21.3516C96.0345 20.841 95.1279 20.2345 94.2892 19.5415Z" fill="#191919"/>
<path d="M118.154 30.2222C118.206 30.1689 118.238 30.0996 118.246 30.0256C118.253 29.9516 118.235 29.8774 118.195 29.8149C118.195 29.8149 117.578 28.7842 116.981 27.8348C116.655 27.3263 116.344 26.8447 116.167 26.5469C116.128 26.4848 116.075 26.4321 116.013 26.3925C115.951 26.3529 115.881 26.3273 115.808 26.3176C115.735 26.3079 115.661 26.3143 115.591 26.3363C115.521 26.3583 115.456 26.3954 115.402 26.445C113.863 27.7781 112.424 29.4818 110.736 31.1158C110.655 31.191 110.601 31.2901 110.58 31.3986C110.559 31.5072 110.574 31.6195 110.622 31.7192C111.025 32.5492 112.102 34.308 112.635 35.1908C112.676 35.2615 112.733 35.3213 112.801 35.3654C112.87 35.4094 112.948 35.4363 113.029 35.4438C113.11 35.4513 113.192 35.4392 113.267 35.4085C113.343 35.3778 113.409 35.3294 113.462 35.2674C114.599 33.8968 116.962 31.419 118.154 30.2222ZM115.659 27.5844C115.333 27.9029 112.749 30.602 111.746 31.5982C111.899 31.9045 112.455 32.9144 113.157 34.0806C114.522 32.6186 115.976 31.2416 117.51 29.9573C116.866 29.1875 116.249 28.3961 115.659 27.5844Z" fill="#191919"/>
<path d="M124.065 19.471C124.142 19.497 123.978 19.461 127.449 20.4878C127.535 19.4527 127.701 18.4257 127.944 17.4159C128.141 16.4327 128.448 14.4296 128.633 13.6325C127.206 13.2428 126.725 13.3554 125.331 13.0154C124.89 14.7956 124.539 16.5971 124.28 18.4128C124.214 18.765 124.146 19.118 124.065 19.471Z" fill="#38A1FF"/>
<path d="M129.266 13.7206L128.825 17.5652C128.724 18.2497 128.581 18.9963 128.5 19.7352C128.352 21.1954 128.612 21.2352 128.296 21.5323C128.237 21.5841 128.166 21.6214 128.09 21.6413C128.013 21.6612 127.933 21.6632 127.856 21.6471C127.632 21.6066 127.415 21.5453 127.167 21.4779C124.175 20.5805 123.798 20.5239 123.241 20.2712C123.125 20.223 123.029 20.1349 122.972 20.0226C122.915 19.9103 122.899 19.7812 122.929 19.6586C123.388 17.8646 123.528 16.4427 123.851 14.7283C124.063 13.7191 124.329 12.8722 124.448 12.2872C124.463 12.2167 124.493 12.1501 124.536 12.0919C124.579 12.0336 124.633 11.9849 124.695 11.9488C124.758 11.9128 124.827 11.8902 124.899 11.8826C124.971 11.8749 125.044 11.8823 125.112 11.9044C126.129 12.2956 127.869 12.4756 129.228 13.1793C129.279 13.2016 129.323 13.2376 129.356 13.2833C129.388 13.329 129.407 13.3826 129.411 13.4384C129.415 13.4941 129.404 13.5499 129.378 13.5997C129.353 13.6494 129.314 13.6913 129.266 13.7206ZM125.333 13.0154C124.892 14.7957 124.541 16.5971 124.282 18.4128C124.214 18.765 124.147 19.118 124.065 19.471C124.142 19.4971 123.978 19.4611 127.449 20.4879C127.535 19.4527 127.701 18.4257 127.944 17.4159C128.141 16.4327 128.448 14.4297 128.633 13.6326C127.208 13.2398 126.727 13.3554 125.331 13.0154H125.333Z" fill="#191919"/>
<path d="M135.936 23.2452C135.934 23.1736 135.956 23.1035 136 23.0463C136.043 22.9892 136.104 22.9484 136.173 22.9306C136.243 22.9128 136.316 22.9191 136.381 22.9484C136.447 22.9777 136.5 23.0284 136.533 23.0921C138.315 26.638 138.746 30.4956 139.198 33.9482C139.214 34.0674 139.187 34.1886 139.123 34.2903C139.058 34.392 138.96 34.4677 138.845 34.5041C137.748 34.8555 136.709 35.4413 135.645 35.7453C135.52 35.7818 135.387 35.7707 135.27 35.714C135.153 35.6574 135.062 35.5593 135.014 35.439C134.248 33.4344 133.828 31.9581 133.312 30.4818C132.658 28.7933 132.137 27.0566 131.752 25.2873C131.733 25.164 131.76 25.038 131.828 24.933C131.895 24.8281 131.999 24.7515 132.119 24.7176C133.482 24.506 134.784 24.0038 135.936 23.2452ZM136.187 23.8754C135.194 24.6614 134.049 25.232 132.824 25.5507C133.218 27.1121 133.712 28.6466 134.302 30.1449C135.221 32.8938 134.651 31.3103 135.814 34.5936C136.469 34.3639 137.335 33.9459 138.126 33.6572C137.758 30.3448 137.332 26.7705 136.187 23.8754Z" fill="#191919"/>
<path d="M127.598 51.1632C127.58 53.9646 127.278 56.7568 126.696 59.4971C128.262 59.88 129.246 60.1824 130.189 60.4535C130.671 57.3948 130.943 54.3066 131.003 51.2107C129.872 51.0916 128.732 51.0757 127.598 51.1632Z" fill="#38A1FF"/>
<path d="M130.257 61.1656C128.657 60.8003 127.424 60.5109 126.066 60.2705C125.955 60.2432 125.858 60.1755 125.794 60.0806C125.578 59.7184 125.878 59.9458 126.358 55.2322C126.504 53.7268 126.568 52.2146 126.547 50.7023C126.543 50.5733 126.588 50.4476 126.672 50.3497C126.756 50.2519 126.874 50.1889 127.002 50.1732C128.519 50.0036 130.052 50.0195 131.565 50.2206C131.689 50.2332 131.803 50.2906 131.887 50.3819C131.97 50.4733 132.018 50.5922 132.019 50.7161C132.102 54.0649 131.691 57.4076 130.799 60.6365L130.969 60.6839C131.049 60.7066 131.118 60.7584 131.162 60.8293C131.206 60.9001 131.222 60.9849 131.206 61.0668C131.182 61.1454 131.13 61.2122 131.059 61.2536C130.988 61.2951 130.904 61.3082 130.823 61.2904L130.477 61.2092C130.401 61.2244 130.322 61.2087 130.257 61.1656ZM131.003 51.2115C129.872 51.0924 128.732 51.0765 127.598 51.164C127.58 53.9653 127.278 56.7576 126.696 59.4979C128.262 59.8807 129.246 60.1832 130.189 60.4542C130.671 57.3953 130.943 54.3068 131.003 51.2107V51.2115Z" fill="#191919"/>
<path d="M8.13341 53.076C7.64501 51.5921 6.92644 50.1943 6.004 48.9335C5.73524 48.6158 5.50706 48.3715 5.27888 48.5193C5.00782 48.661 5.11655 48.929 5.36004 49.5974C5.52697 50.0147 6.88149 52.5538 7.12958 52.9665C7.69466 53.8953 7.81871 54.1663 8.11963 54.0308C8.42055 53.8953 8.29344 53.6173 8.13341 53.076Z" fill="#191919"/>
<path d="M8.32194 47.0071C8.18717 46.8018 7.70938 46.2498 7.44062 46.4098C7.16037 46.5683 7.38319 47.3286 7.42071 47.4343C7.7382 48.1082 8.06596 48.7773 8.40387 49.4412C8.68641 49.9504 9.06926 50.6862 9.41383 50.5461C10.0654 50.2827 8.68335 47.5538 8.32194 47.0071Z" fill="#191919"/>
<path d="M11.0127 47.5185C10.9487 47.1686 10.8581 46.824 10.7417 46.4879C10.6832 46.2569 10.6082 46.0304 10.5173 45.8102C10.414 45.5805 10.1008 45.1211 9.83969 45.1862C9.70263 45.2214 9.58854 45.2153 9.56787 46.0813C9.6894 46.6723 9.86445 47.251 10.0908 47.8102C10.3726 48.3256 10.5503 48.7482 10.8565 48.6441C11.1705 48.5384 11.0334 47.6196 11.0127 47.5185Z" fill="#191919"/>
<path d="M22.1841 88.2331C18.5578 80.7515 17.6052 72.3379 16.3319 64.0048C16.3238 63.9367 16.3018 63.8709 16.2673 63.8116C16.2328 63.7522 16.1865 63.7006 16.1312 63.6599C16.0759 63.6192 16.0129 63.5903 15.946 63.575C15.8791 63.5596 15.8098 63.5582 15.7423 63.5707C15.3594 63.6342 14.9766 63.7047 14.5937 63.7789C14.5777 63.2927 14.5761 62.8057 14.557 62.3195C14.4513 56.2759 14.2745 57.2605 14.4215 50.298C14.4414 49.8738 14.4552 48.2758 14.4552 47.7146C14.4642 47.6333 14.4406 47.5518 14.3895 47.488C14.3385 47.4242 14.2642 47.3832 14.183 47.3742C14.1017 47.3652 14.0202 47.3888 13.9564 47.4398C13.8926 47.4909 13.8516 47.5652 13.8426 47.6464C13.6533 48.5006 13.5176 49.3657 13.436 50.2368C13.1554 54.7995 13.3336 59.3789 13.9682 63.9061C12.2622 64.2606 10.9184 64.6021 9.04702 64.965C8.94612 63.8489 8.78818 62.7388 8.57381 61.6388C8.12358 59.2529 7.13047 55.5232 5.56308 53.6572C5.23563 53.272 4.88452 52.9076 4.51178 52.566C4.45375 52.5065 4.37529 52.4713 4.29227 52.4675C4.20925 52.4636 4.12787 52.4915 4.06461 52.5454C4.03509 52.5729 4.01132 52.606 3.99464 52.6428C3.97796 52.6795 3.96872 52.7192 3.96744 52.7596C3.96616 52.7999 3.97287 52.8401 3.98718 52.8779C4.00149 52.9156 4.02312 52.9502 4.05082 52.9795C4.99458 54.3659 5.7708 55.8592 6.36324 57.4282C7.00719 59.2307 7.1366 59.8134 8.41914 65.0852C7.9268 65.1718 7.42986 65.2491 6.92679 65.3103C6.85895 65.3169 6.79311 65.3369 6.73311 65.3693C6.67311 65.4016 6.62016 65.4456 6.57738 65.4986C6.53459 65.5517 6.50283 65.6128 6.48394 65.6783C6.46505 65.7437 6.45942 65.8123 6.46737 65.88C8.60215 86.3839 11.4306 106.017 18.8357 125.105C18.8656 125.183 18.9251 125.246 19.0013 125.281C19.0775 125.315 19.1641 125.318 19.2423 125.288C19.3187 125.257 19.3794 125.196 19.4113 125.12C19.4431 125.043 19.4435 124.958 19.4123 124.881C18.2377 121.876 17.3028 118.792 16.3878 115.706C11.619 99.639 9.31578 82.864 7.5585 66.2797C10.3916 65.8685 12.7653 65.1603 15.3977 64.6863C16.652 73.0508 17.6711 80.9521 21.6428 88.5149C21.6586 88.5545 21.6825 88.5903 21.7129 88.6201C21.7434 88.65 21.7798 88.6731 21.8197 88.6881C21.8596 88.703 21.9022 88.7095 21.9447 88.7071C21.9873 88.7046 22.0289 88.6933 22.0668 88.6739C22.1047 88.6545 22.1382 88.6274 22.1651 88.5943C22.1919 88.5612 22.2116 88.5228 22.2228 88.4817C22.234 88.4406 22.2364 88.3975 22.23 88.3554C22.2237 88.3133 22.2085 88.2729 22.1857 88.2369L22.1841 88.2331Z" fill="#191919"/>
<path d="M59.1352 42.0017C59.1352 41.1541 59.1015 40.8532 58.8097 40.8149C58.4904 40.7781 58.4912 41.0446 58.2806 41.5951C58.1471 42.0873 58.0675 42.5926 58.0433 43.102C57.8538 44.5346 57.8379 45.9849 57.9958 47.4213C58.0724 48.0461 58.054 48.4374 58.3963 48.4321C58.825 48.4244 58.8227 47.6434 58.9047 45.8892C58.9123 45.7858 59.152 42.2345 59.1352 42.0017Z" fill="#191919"/>
<path d="M61.2739 41.9651C60.9309 41.8609 60.5687 42.7706 60.5419 42.874C60.1796 44.0916 59.9968 45.3555 59.999 46.6259C59.999 47.0332 59.999 47.4398 60.3245 47.4735C60.6307 47.5049 60.6782 47.2109 60.901 46.2737C61.0542 45.6213 61.0205 45.7262 61.2402 44.4965C61.3612 43.8678 61.7977 42.1121 61.2739 41.9651Z" fill="#191919"/>
<path d="M63.5057 42.9059C63.1994 42.7995 62.9284 43.3301 62.7324 43.7482C62.4311 44.6584 62.1889 45.587 62.0072 46.5284C61.8641 47.5552 61.8281 48.0376 62.1558 48.1081C62.4667 48.1754 62.521 47.9228 62.8204 47.1249C63.0425 46.5346 63.6481 44.301 63.6887 44.0192C63.7232 43.824 63.8273 42.9955 63.5057 42.9059Z" fill="#191919"/>
<path d="M65.8369 43.9396C65.7617 43.9053 65.676 43.9021 65.5985 43.9308C65.521 43.9595 65.458 44.0178 65.4234 44.0928C64.7421 45.2371 64.1851 46.451 63.7618 47.7138C62.5625 50.7021 61.8037 53.8488 61.5091 57.0553C60.4367 56.8136 59.3289 56.7712 58.2411 56.9305C58.2618 54.9927 57.9926 53.0628 57.4425 51.2046C57.0602 49.8105 56.5565 48.4526 55.9371 47.1464C55.6359 46.5998 55.2983 46.0741 54.9264 45.5729C54.9095 45.5374 54.8855 45.5057 54.8559 45.4799C54.8263 45.454 54.7917 45.4344 54.7543 45.4224C54.7169 45.4103 54.6774 45.4061 54.6383 45.4098C54.5991 45.4136 54.5612 45.4253 54.5267 45.4442C54.49 45.4627 54.4574 45.4884 54.4311 45.52C54.4048 45.5516 54.3852 45.5882 54.3737 45.6277C54.3622 45.6672 54.359 45.7086 54.3643 45.7493C54.3695 45.7901 54.3831 45.8294 54.4042 45.8646C55.4502 48.7919 55.7687 49.0515 56.4249 51.4925C56.9132 53.318 57.2967 55.1699 57.5734 57.0392C57.1393 57.1196 56.7005 57.2215 56.2564 57.3394C56.1558 57.3665 56.066 57.424 55.9992 57.504C55.9325 57.584 55.8921 57.6827 55.8835 57.7866C55.7304 59.517 54.9815 70.8946 54.9134 71.3762C54.9019 71.4568 54.9215 71.5387 54.9681 71.6053C55.0147 71.672 55.085 71.7185 55.1645 71.7353C55.2453 71.7483 55.328 71.7294 55.395 71.6825C55.462 71.6356 55.5082 71.5645 55.5237 71.4842C56.3276 67.8854 56.5045 62.1258 56.8866 58.2613C58.5063 57.7675 60.2337 57.7489 61.8637 58.2077C61.7503 60.4864 61.9402 63.2973 61.9716 65.9306C61.9714 66.0131 62.0031 66.0925 62.0603 66.1521C62.1174 66.2116 62.1954 66.2467 62.2779 66.2499C62.3621 66.2503 62.4432 66.2179 62.5039 66.1596C62.5647 66.1013 62.6003 66.0216 62.6033 65.9374C62.6439 64.0576 62.82 58.6817 62.8882 57.8815C62.8974 57.7745 62.8711 57.6673 62.8134 57.5767C62.7557 57.486 62.6698 57.4169 62.5689 57.38C62.4223 57.3254 62.2745 57.2744 62.1255 57.2268C63.6209 50.6732 64.2457 49.6188 66.0061 44.337C66.0349 44.2618 66.0333 44.1783 66.0018 44.1042C65.9702 44.03 65.9111 43.971 65.8369 43.9396Z" fill="#191919"/>
<path d="M54.1797 80.0303C53.5993 81.9269 54.0167 80.796 52.6338 86.6758C52.5189 87.2118 52.4102 87.7401 52.2946 88.2692C52.269 88.3466 52.2737 88.4309 52.3076 88.505C52.3416 88.5791 52.4023 88.6377 52.4776 88.6689C52.5586 88.6945 52.6464 88.6885 52.7232 88.6522C52.8 88.6158 52.8602 88.5518 52.8918 88.4729C53.0067 88.208 53.1292 87.9438 53.2242 87.6789C54.1959 85.2705 54.7285 82.7076 54.7969 80.1115C54.8039 80.0303 54.7798 79.9494 54.7295 79.8853C54.6791 79.8212 54.6064 79.7786 54.5258 79.7661C54.4857 79.7605 54.4449 79.7629 54.4058 79.7732C54.3666 79.7835 54.3299 79.8014 54.2977 79.826C54.2655 79.8506 54.2385 79.8813 54.2183 79.9163C54.198 79.9514 54.1849 79.9901 54.1797 80.0303Z" fill="#191919"/>
<path d="M93.4611 73.7553C93.3079 73.305 92.1762 73.449 91.9963 73.4842C91.3073 73.6456 90.6352 73.8725 89.9894 74.1618C89.6915 74.3502 89.1785 74.766 89.311 75.0906C89.4182 75.4444 90.3347 75.4398 90.4159 75.4298C91.1925 75.241 91.9455 74.966 92.6609 74.6098C93.2176 74.2537 93.5392 74.1236 93.4611 73.7553Z" fill="#38A1FF"/>
<path d="M100.913 75.0501C100.802 74.58 100.263 74.6948 98.1669 75.1856C95.6986 75.9151 93.2738 76.7843 90.9043 77.789C89.7611 78.3503 89.4395 78.5425 89.5819 78.8939C89.6868 79.2293 89.9448 79.2645 91.4471 78.9284C92.4487 78.6949 97.974 76.6236 98.6447 76.3579C100.654 75.5731 101.051 75.5042 100.913 75.0501Z" fill="#38A1FF"/>
</svg>
