<svg width="155" height="156" viewBox="0 0 155 156" fill="none" xmlns="http://www.w3.org/2000/svg">
<path d="M144.641 57.0017C144.475 55.7456 142.943 56.3246 136.277 57.9644C135.036 58.2732 135.096 59.9353 136.367 59.7778C142.219 59.056 144.852 58.5519 144.641 57.0017Z" fill="#3D9CFB"/>
<path d="M126.221 31.1338C124.331 32.3245 122.559 33.6928 120.929 35.22C119.711 36.4684 120.674 37.9274 122.517 36.5965C126.594 33.6474 137.365 27.2992 135.486 24.5764C134.276 22.8224 128.327 29.9078 126.221 31.1338Z" fill="#3D9CFB"/>
<path d="M99.2771 27.2151C96.1327 27.2228 94.0568 30.991 94.4559 33.7517C94.855 36.5124 99.0362 38.4378 100.676 39.0994C102.316 39.761 104.073 37.5206 103.764 36.9933C99.7133 30.0962 101.18 27.2151 99.2771 27.2151Z" fill="#3D9CFB"/>
<path d="M114.795 88.0669C113.38 87.8569 111.642 94.6112 111.417 96.7474C111.281 98.0189 113.2 98.733 113.56 97.507C114.328 94.8444 116.291 88.2931 114.795 88.0669Z" fill="#3D9CFB"/>
<path d="M17.0549 59.9727C18.2902 65.6671 24.003 66.7502 24.4871 66.9154L28.4961 57.9871C19.161 51.9925 37.8158 34.0549 45.9435 32.7888C40.053 35.8877 29.3345 46.0944 33.9905 51.3077C43.1781 40.2727 65.808 30.9831 75.1392 41.3558C82.6084 34.857 56.0143 19.8353 43.3364 22.6416C31.2275 25.322 16.3401 56.6554 17.0549 59.9727Z" fill="#3D9CFB"/>
<path d="M112.568 8.97162C111.778 13.5527 109.432 15.6217 108.739 21.15C108.585 22.4138 110.071 22.7072 110.334 21.4434C111.372 16.4338 113.26 15.0272 114.396 10.3937C114.96 8.09384 112.786 7.71788 112.568 8.97162Z" fill="#3D9CFB"/>
<path d="M139.933 93.8518C142.249 93.8518 139.03 90.3616 138.203 88.8122C137.45 87.4056 135.141 84.5322 134.088 85.0957C132.81 85.7805 136.916 93.8441 139.933 93.8518Z" fill="#3D9CFB"/>
<path d="M73.5518 20.0118C75.7559 20.9969 79.6893 23.2542 80.4721 22.3587C81.2549 21.4632 76.5827 18.5295 73.8375 18.0355C72.2657 17.7382 71.5886 19.1371 73.5518 20.0118Z" fill="#3D9CFB"/>
<path d="M94.9809 128.295C97.2529 123.54 86.0534 101.197 87.0292 95.2654C87.8112 90.5191 89.5869 83.3286 87.1064 78.5823C89.1375 80.0869 91.845 84.6904 91.0328 92.6182C96.2609 89.3086 101.557 86.1873 110.236 76.5735C105.678 75.37 102.428 72.5591 99.7658 68.9615C97.6437 65.8499 95.7484 62.5895 94.0946 59.2057C90.0209 61.9042 85.7197 64.2424 81.2399 66.1939C79.2578 70.6615 75.7606 74.2848 71.3659 76.4238C64.3407 89.534 63.9716 96.4095 47.9803 81.5761C49.4471 86.517 36.0806 87.6989 31.3821 86.2545C27.4557 88.3389 21.1222 107.752 21.4757 109.878C21.8293 112.004 28.5782 121.589 39.6642 122.334C40.1452 124.087 39.9275 127.472 36.6851 127.449C35.4498 133.602 38.0392 132.902 42.7932 134.016C54.7168 137.82 94.6582 134.161 94.9809 128.295ZM72.5811 89.1881C68.6624 94.6864 66.5594 98.1619 63.5393 98.8313C60.8242 99.4327 57.2814 97.7034 52.6332 94.085C52.4324 93.9211 52.3042 93.6848 52.2764 93.4271C52.2485 93.1694 52.3233 92.9111 52.4844 92.7082C52.6456 92.5052 52.8802 92.3738 53.1375 92.3425C53.3948 92.3113 53.654 92.3825 53.8591 92.541C56.2361 94.4223 60.8172 97.2572 63.036 96.821C64.1338 96.6102 68.0378 92.1056 70.9938 88.0278C71.1477 87.8173 71.3789 87.6766 71.6365 87.6366C71.8941 87.5965 72.1571 87.6605 72.3676 87.8143C72.5781 87.9682 72.7188 88.1994 72.7589 88.457C72.7989 88.7147 72.7349 88.9777 72.5811 89.1881Z" fill="#3D9CFB"/>
<path d="M92.372 16.1732C92.9286 17.3312 94.2448 16.7221 93.8534 15.5108C92.9363 12.6382 92.541 8.4408 92.2361 6.07846C91.9805 4.04036 90.1455 4.66414 90.1903 6.40965C90.2729 9.54632 91.9281 15.6012 92.372 16.1732Z" fill="#3D9CFB"/>
<path d="M85.9628 34.1391C86.4893 37.2526 90.5284 39.5246 91.1005 38.8776C91.6726 38.2307 88.9119 35.1396 88.7536 33.5894C88.2726 28.9187 91.8602 27.1508 90.6195 26.3086C89.3789 25.4663 85.3313 30.3361 85.9628 34.1391Z" fill="#3D9CFB"/>
<path d="M125.047 64.215C124.934 63.3504 121.459 60.8529 120 61.9762C118.736 62.9466 119.436 67.5571 121.602 67.0383C123.113 66.6747 125.273 65.8471 125.047 64.215Z" fill="#3D9CFB"/>
<path d="M71.017 70.1347C69.3958 71.4965 66.7903 71.7899 66.9555 73.0683C67.2265 75.1597 71.0325 73.2567 72.1982 71.586C72.8529 70.6388 72.0855 69.2399 71.017 70.1347Z" fill="#001434"/>
<path d="M133.682 65.6895C129.958 63.8691 123.625 57.5958 122.158 56.1166C122.248 49.3924 117.126 42.8111 110.038 40.0349C105.091 36.2235 104.67 21.98 99.3746 23.331C94.4337 15.1994 81.1266 27.1138 82.7061 34.6795C83.787 39.8697 92.5068 43.4426 97.4638 46.6997C94.4175 49.0991 91.8977 53.5296 88.9494 56.2069C85.9575 50.2774 81.6617 45.1024 76.3842 41.0702C81.7249 29.9 54.0068 14.2167 42.8667 16.6693C30.388 19.4146 -8.7111 68.5173 22.6332 69.8336C21.2937 76.1602 21.7979 81.3427 25.5668 84.9009C21.8511 91.7833 9.2373 110.437 15.9615 115.191C12.963 123.059 28.2325 133.056 33.6922 127.552C34.2167 127.924 34.8061 128.194 35.43 128.349C34.0234 130.462 34.7352 132.659 36.5285 133.344C36.1425 134.833 35.054 138.902 34.5869 139.926C33.8728 141.076 30.5856 142.528 29.074 143.423C24.4706 146.138 25.8092 150.704 29.6978 150.989C32.7218 151.214 55.6264 151.906 62.1098 150.921C66.6005 150.312 65.7583 140.917 67.1649 136.644H67.4582C67.8041 142.007 65.1268 150.508 70.0306 150.921C76.4845 151.906 100.359 151.384 103.323 150.966C106.527 150.515 107.183 147.792 105.203 145.272C104.466 144.324 98.4404 140.631 97.5156 139.322C97.057 138.675 96.854 137.434 96.5452 134.267C107.798 132.289 90.6709 102.931 91.9571 94.1758C98.9445 89.6171 108.37 81.433 113.823 73.7948C114.75 89.1925 139.022 84.2169 137.276 70.8689C136.646 67.8635 135.171 66.4044 133.682 65.6895ZM119.554 52.0898C120.577 55.9861 119.817 58.3431 117.44 59.6269C116.28 60.2286 114.995 60.5491 113.689 60.5625C112.382 60.5759 111.091 60.2819 109.919 59.7041C110.358 58.3751 111.173 57.202 112.266 56.3266C113.228 55.4318 111.776 54.1078 110.49 55.323C109.434 56.256 108.632 57.441 108.158 58.7677C103.698 56.8948 105.104 52.2311 108.076 50.3435C109.527 49.4171 107.767 47.5303 105.616 49.8317C105.395 48.766 104.869 47.7873 104.103 47.0144C103.336 46.2414 102.362 45.7073 101.298 45.4768C104.794 35.4515 117.898 45.8157 119.556 52.0898H119.554ZM94.3403 42.5447C88.7517 39.8218 85.5549 38.1219 84.7952 35.2554C82.788 27.6511 94.3557 19.9041 97.4399 23.8822C91.6406 26.1982 88.7741 31.5475 90.6462 35.7449C91.5858 37.8362 96.7451 41.6044 97.9124 40.1901C99.0796 38.7758 93.0001 38.6407 92.2628 33.977C91.5858 29.6892 97.4353 23.8899 100.909 25.4996C102.692 29.419 103.941 35.0076 106.964 39.3185C102.587 38.7696 99.6008 42.7562 99.2441 45.5239C97.6834 44.4148 96.0451 43.4192 94.3418 42.5447H94.3403ZM87.4239 57.5811C86.793 58.1745 86.151 58.7562 85.4985 59.3258C84.3853 56.5427 81.0008 48.7648 75.9758 43.1685C80.8278 47.0499 84.7411 51.9766 87.4239 57.5811ZM68.9636 76.5586C44.9681 87.7735 37.8904 69.4052 40.6055 57.0677C42.6475 53.098 51.0762 53.8122 47.5111 47.4261C56.1012 52.5337 63.0439 39.9291 71.1523 45.4104C59.0318 50.9164 68.8803 63.1395 78.5535 55.0157C82.8636 63.9448 79.0862 71.8578 68.9636 76.5586ZM69.4222 78.5064C62.2835 90.7373 62.1561 93.2718 49.7221 81.3273C56.2286 82.6289 62.908 81.3805 69.4222 78.5064ZM28.2696 56.4447C20.1087 49.0659 49.384 23.2129 57.3797 36.3393C47.9025 38.5658 34.001 47.3659 28.2696 56.4447ZM74.0103 55.1663C69.1814 58.0713 64.7809 51.405 69.6932 48.554C70.8846 50.9102 72.3324 53.1277 74.0103 55.1663ZM12.7824 61.4319C12.3083 58.8449 13.3228 53.6469 15.9792 48.4266C22.6587 35.2709 37.8904 19.43 43.2458 18.6024C54.243 16.9025 78.3914 31.2055 74.7475 39.9191C68.0534 35.3681 64.8041 36.286 60.0176 36.2235C58.0876 33.3733 56.7752 31.9435 53.4432 30.8913C44.1166 27.9345 16.9273 48.5069 27.2521 58.2103C25.5381 61.2868 24.1564 64.537 23.1303 67.9059C18.4914 67.269 13.7976 67.1563 12.7824 61.4319ZM29.2323 58.702C26.1033 76.5995 27.2621 86.4573 46.3979 83.7645C26.2539 91.2939 17.4306 79.4173 29.2323 58.702ZM33.0236 124.586C31.7977 123.149 30.5864 125.12 32.2261 126.233C28.2171 129.761 16.2726 122.224 17.6638 116.387C23.2523 119.772 32.843 123.585 38.6276 123.27C39.2591 127.496 35.0046 126.903 33.0236 124.586ZM37.0327 143.316C33.9562 145.82 31.3762 145.038 31.0527 146.867C30.872 147.897 31.3383 148.657 34.3322 149.213C30.1201 149.409 26.3967 148.287 30.1502 145.077C31.7151 143.737 34.8363 142.737 35.9572 141.398C41.8245 142.406 49.3462 144.301 55.7098 145.475C40.6958 145.008 38.65 141.989 37.0327 143.316ZM63.7233 144.73C55.3084 143.79 45.0847 141.051 36.8258 139.547C37.4117 137.756 38.1567 134.928 38.3829 134.048C43.58 135.636 54.1936 136.493 65.1754 136.621C64.6728 139.388 64.1726 142.375 63.7233 144.73ZM69.1543 144.714C69.1767 142.862 69.2825 140.269 69.4407 136.636C79.256 136.583 88.8467 135.941 94.6236 134.725C94.778 135.997 95.0521 138.005 95.3756 139.442C86.9252 141.397 76.703 144.7 69.1512 144.714H69.1543ZM99.9188 143.88C103.831 146.234 105.47 149.649 100.333 149.115C102.258 145.557 98.4296 146.851 94.917 143.895C93.6046 142.789 88.6815 144.512 80.5576 144.97C85.876 144.198 91.9455 142.443 95.5863 141.811C97.1025 142.022 98.3362 142.932 99.9157 143.88H99.9188ZM103.181 83.0072C100.942 85.1132 96.0009 89.5515 92.1084 91.6274C93.4849 87.0988 89.4527 79.1263 86.7901 76.32C85.4661 74.9212 84.4586 76.388 85.263 77.373C88.7988 81.6608 90.7443 86.1662 90.0549 92.5376C88.2021 99.9612 102.428 125.724 98.1332 131.042C94.9888 134.923 68.783 135.578 52.7685 134.539C45.6004 134.076 38.5149 133.291 37.1153 131.418C35.5211 129.282 41.9828 126.83 40.5383 122.64C42.727 121.587 47.684 106.333 46.157 105.046C44.7504 103.865 44.3667 107.506 44.1498 108.943C43.5708 112.803 41.8183 117.796 40.3368 119.744C37.651 123.28 29.9919 120.639 19.3382 115.096C15.9082 113.313 15.0505 112.56 16.1568 107.739C17.2021 103.18 22.671 91.9208 27.2436 85.9253C32.8932 88.2499 45.334 89.6943 49.0142 83.3777C63.7194 98.225 65.231 89.1994 72.5427 76.8929C78.0108 73.6659 81.3729 69.3859 82.1549 64.6179C85.5349 62.0204 88.7393 59.2021 91.7471 56.1814C94.47 63.0415 100.57 74.0465 108.754 76.8072C107.002 78.9661 105.141 81.0354 103.181 83.0072ZM111.138 73.943C104.64 78.765 94.6128 58.7862 93.2363 54.4614C96.7567 48.3687 100.044 46.6464 102.391 48.5718C104.136 50.0015 103.978 51.4753 103.436 54.3788C102.955 56.9812 104.82 59.7944 108.341 61.1485C110.688 67.4497 115.554 70.6689 111.138 73.9407V73.943ZM132.862 77.8694C130.131 81.247 118.631 83.3986 116.532 76.591C115.02 71.6864 116.78 72.1226 111.079 62.1792C114.952 63.2399 119.571 61.9229 121.564 58.313C124.02 60.7697 126.622 63.0755 129.356 65.2178C125.593 65.9952 122.284 68.218 120.142 71.4085C119.693 69.573 119.063 67.7866 118.262 66.0755C117.578 64.8117 115.78 64.9545 116.495 66.8197C117.502 69.4445 117.833 73.056 119.638 76.3802C120.812 78.5419 122.354 78.9533 125.274 78.7495C127.786 78.5689 130.486 76.5385 131.69 74.7034C133.405 72.0856 132.385 69.0917 127.455 70.7168C127.18 70.8209 126.951 71.0197 126.81 71.2774C126.668 71.5351 126.623 71.8348 126.683 72.1226C127.223 73.4466 129.91 71.566 130.173 72.6947C130.692 74.8988 127.766 76.6134 125.058 76.794C115.942 77.4116 125.284 66.7973 130.82 67.0606C136.097 67.2914 136.879 74.5575 132.862 77.8671V77.8694Z" fill="#001434"/>
<path d="M68.8132 67.9012C69.9566 68.4416 71.6334 67.57 72.1908 66.5471C72.8223 65.3891 72.1908 64.072 71.0621 65.1853C70.1295 66.1032 69.1892 65.9897 69.0085 65.8469C66.8346 64.5345 67.6019 69.6081 62.9537 67.983C63.8801 66.5162 61.7501 64.6634 61.2236 66.6521C60.8021 68.2316 60.8098 68.2694 59.8618 69.1796C58.1842 70.7893 60.8546 72.5116 62.1408 69.7972C64.5178 70.7144 67.6475 70.1045 68.8132 67.9012Z" fill="#001434"/>
<path d="M49.2096 54.7074C50.6687 53.6845 53.6247 53.7447 53.241 52.1644C52.8797 51.1268 50.8269 51.7962 49.3146 52.6461C47.18 53.8574 48.226 55.3914 49.2096 54.7074Z" fill="#001434"/>
<path d="M64.2324 64.4859C64.2324 66.5618 66.7028 63.8613 68.4522 63.7486C68.7075 63.7266 68.9443 63.6062 69.1124 63.4128C69.2806 63.2194 69.367 62.9682 69.3533 62.7123C69.3397 62.4564 69.2271 62.2159 69.0394 62.0415C68.8516 61.867 68.6034 61.7725 68.3472 61.7777C66.0675 61.9058 64.2324 63.6583 64.2324 64.4859Z" fill="#001434"/>
<path d="M62.6303 48.3818C65.601 47.4484 66.7744 47.4036 66.8871 46.6587C67.0377 45.7037 65.3717 44.8159 62.1563 46.5313C61.2715 47.003 61.6977 48.6751 62.6303 48.3818Z" fill="#001434"/>
<path d="M58.1845 57.145C54.7622 51.6097 44.743 57.206 43.6707 61.9067C43.4299 66.2245 45.9497 68.1723 49.0563 68.4811C54.9876 69.0594 62.4575 64.0498 58.1845 57.145ZM49.6252 66.9495C47.188 66.9572 45.4039 63.8321 45.6162 62.2032C45.7799 60.944 47.7006 59.2093 49.8962 58.0058C50.9744 60.6112 52.3605 63.0783 54.0249 65.3545C52.3628 66.2547 50.5949 66.9495 49.6252 66.9495Z" fill="#001434"/>
<path d="M61.4073 56.8436C63.4377 56.0238 65.7846 57.2798 64.6791 59.5457C64.5378 59.7621 64.4874 60.0255 64.5388 60.2789C64.5901 60.5322 64.7392 60.7552 64.9537 60.8994C65.1682 61.0437 65.4309 61.0978 65.6849 61.0499C65.939 61.002 66.1639 60.856 66.3111 60.6435C68.5453 57.2065 64.5664 53.2044 60.5944 55.0395C60.3672 55.1547 60.1931 55.3531 60.1084 55.5934C60.0236 55.8337 60.0348 56.0974 60.1394 56.3297C60.2441 56.562 60.4343 56.745 60.6704 56.8407C60.9065 56.9365 61.1705 56.9375 61.4073 56.8436Z" fill="#001434"/>
</svg>
