<svg width="156" height="156" viewBox="0 0 156 156" fill="none" xmlns="http://www.w3.org/2000/svg">
<path d="M59.9406 111.031C58.7355 109.223 57.0031 106.134 57.0031 106.134C55.5718 106.057 54.0649 105.985 52.6336 105.833C52.6336 105.833 50.9768 107.641 49.3193 109.148C50.5252 110.353 52.8598 111.332 52.7849 111.935C52.71 112.538 47.2859 119.015 45.403 121.954L46.0808 122.631C52.334 118.639 57.0031 124.59 54.1405 129.336C54.0229 129.559 53.968 129.81 53.9816 130.062C53.9952 130.314 54.0768 130.558 54.2177 130.767C55.8162 133.195 56.5821 136.077 56.4002 138.978C58.0577 138.753 63.4811 131.973 63.7072 129.487C63.9334 126.926 57.681 114.647 57.7566 113.367C57.8315 112.537 58.4344 112.086 59.9406 111.031Z" fill="#3D9CFB"/>
<path d="M144.081 116.379C142.047 115.476 138.884 125.72 137.679 124.816C136.474 123.912 139.26 110.429 137.377 109.675C135.494 108.922 134.891 116.982 133.761 116.53C132.632 116.079 133.535 103.875 131.953 103.348C130.372 102.822 129.393 110.655 128.187 110.202C126.981 109.75 120.955 94.5352 119.148 95.7403C117.416 96.9454 122.763 110.956 122.086 111.86C121.483 112.764 117.566 108.922 116.436 110.655C115.307 112.387 123.291 118.64 123.14 119.996C122.99 121.352 116.135 116.456 115.155 118.188C114.176 119.92 122.462 127.153 121.935 129.035C121.408 130.918 115.265 126.333 114.704 128.131C114.136 129.95 124.948 144.93 135.494 141.991C146.112 139.204 146.112 117.285 144.081 116.379Z" fill="#3D9CFB"/>
<path d="M118.772 94.3836C119.75 94.0826 118.997 90.5421 117.792 87.2279C116.587 83.9137 91.2773 13.5576 91.2773 13.5576C91.1018 13.1191 90.8267 12.7276 90.4735 12.4141C90.1205 12.1005 89.6992 11.8735 89.2431 11.7511C88.781 11.6557 88.3033 11.6672 87.8464 11.7846C87.3895 11.9021 86.9654 12.1225 86.6067 12.4289C83.2168 15.7423 72.8217 25.685 69.0551 29.2254L60.3175 19.5082C60.0282 19.1619 59.6725 18.8768 59.2715 18.6699C58.8705 18.4629 58.4321 18.3382 57.9822 18.3031C57.5346 18.2975 57.0928 18.4051 56.6978 18.6157C56.3028 18.8264 55.9673 19.1334 55.7225 19.5082C53.2367 22.3708 46.4584 30.2051 44.0467 32.9921C42.1638 32.2386 38.5477 30.8081 36.1375 29.904C33.4262 28.8495 32.4465 28.7738 29.2072 31.8618C25.5919 35.3274 23.4071 37.286 21.1474 39.47C18.8877 41.654 21.3736 44.0657 23.1817 42.3326C26.3469 39.3218 30.7898 35.4779 33.1243 33.1457C33.2226 33.0515 33.3455 32.9871 33.4788 32.9598C33.6121 32.9325 33.7504 32.9434 33.8778 32.9913L42.3892 36.3055C43.2932 36.6823 44.4234 37.059 45.2518 36.6823C45.919 36.3234 46.4881 35.8065 46.9093 35.1768C49.0941 32.7659 55.7225 25.1577 58.0578 22.5213L66.7954 32.1637C67.3656 32.7768 68.1455 33.1532 68.9802 33.2183C69.8233 33.2276 70.6358 32.9025 71.2399 32.3142L88.2642 16.0434C88.2642 16.0434 113.724 85.6461 114.704 88.2825C115.833 91.3705 117.792 94.7604 118.772 94.3836Z" fill="#3D9CFB"/>
<path d="M46.1556 85.8716C58.1333 86.026 58.8103 68.4714 46.608 68.0197C31.9947 67.4901 32.3706 85.7219 46.1556 85.8716ZM45.704 69.8278C49.7717 69.6016 52.2575 71.7856 53.1616 74.422C49.2444 76.6068 44.1221 79.8461 40.3555 82.2563C35.1584 78.4897 37.1162 69.8278 45.704 69.8278Z" fill="#001434"/>
<path d="M149.731 24.6314C149.504 10.8465 145.437 5.64853 134.213 4.89505C128.564 4.59396 40.5818 5.12125 31.9948 5.1969C21.2979 5.3513 14.8956 11.5274 14.82 21.7688C14.82 27.3427 14.3683 45.9489 14.5189 52.2762C14.6733 58.5295 16.1756 60.2611 16.3262 57.0218C16.628 49.5642 16.628 27.2678 16.628 21.7688C16.7824 8.73733 27.4747 7.15471 32.0682 7.07983C40.6552 6.92543 128.487 6.40201 134.137 6.77874C144.306 7.45657 147.696 11.8254 147.922 24.6314C148.373 54.1592 147.62 97.1715 146.716 99.5817C146.264 100.787 144.155 102.444 139.786 102.67C138.656 102.747 138.882 104.177 141.293 104.025C145.285 103.724 147.469 102.594 148.373 100.26C149.504 97.4726 150.183 51.4479 149.731 24.6314Z" fill="#001434"/>
<path d="M67.6993 66.1362C69.1244 66.3987 71.3903 66.513 73.575 66.9654C75.3074 67.3413 75.3074 66.0613 74.6296 65.609C73.1234 64.5544 68.7538 64.0271 67.7749 64.329C66.268 64.6339 66.261 65.8691 67.6993 66.1362Z" fill="#001434"/>
<path d="M133.234 125.192C128.262 124.59 123.739 130.315 126.379 135.135C126.928 136.266 127.785 137.219 128.851 137.886C129.917 138.552 131.149 138.904 132.406 138.902C140.691 139.055 141.746 126.247 133.234 125.192ZM128.036 134.231C125.099 128.808 134.063 123.46 136.925 130.013C137.202 130.597 137.361 131.229 137.394 131.875C137.427 132.52 137.332 133.165 137.115 133.774C136.898 134.382 136.563 134.942 136.13 135.421C135.697 135.901 135.173 136.29 134.59 136.567C134.006 136.844 133.374 137.003 132.728 137.036C132.083 137.068 131.438 136.973 130.829 136.756C130.221 136.54 129.661 136.205 129.182 135.772C128.702 135.338 128.313 134.815 128.036 134.231Z" fill="#001434"/>
<path d="M50.676 97.3963C52.5589 98.6014 58.9619 97.9993 59.6398 96.9447C60.2419 94.4588 57.3793 96.2669 59.6398 90.8458C60.0165 89.8669 62.05 90.0175 61.2973 88.8124C60.8449 88.1346 56.6266 87.4567 54.2913 88.7352C52.0316 90.0144 48.4912 95.965 50.676 97.3963Z" fill="#001434"/>
<path d="M119.826 69.6014C124.194 69.5242 132.409 69.5242 134.74 69.5242C137.071 69.5242 139.411 68.4696 137 68.3191C132.555 68.1685 124.493 68.2419 119.901 68.3191C119.75 62.2202 119.148 41.6532 118.997 38.8662C124.269 39.0206 127.057 39.0206 132.933 39.243C138.809 39.4653 138.808 37.8873 135.72 37.8117C132.632 37.736 120.125 37.4349 118.922 37.4349C118.695 28.7722 118.545 20.4106 118.469 17.5488C118.469 15.364 117.415 16.4186 117.34 18.6783C117.189 22.3692 117.189 30.7308 117.494 37.3608C111.091 37.438 109.359 37.438 106.119 37.5152C104.99 37.5152 105.818 38.6447 107.476 38.7203C110.941 38.8747 111.995 38.6431 117.569 38.8747C117.724 42.3395 117.795 45.5032 117.795 47.688C118.021 54.9194 118.248 62.3013 118.398 68.3276C117.344 68.3276 116.289 68.3276 115.084 68.4048C113.879 68.482 114.406 69.911 118.398 69.6848C118.475 73.9787 118.398 76.3889 118.398 79.6282C118.475 82.8707 119.904 81.8879 119.83 77.1424C119.755 72.3968 119.901 73.8976 119.826 69.6014Z" fill="#001434"/>
<path d="M59.4152 78.4894C60.5454 79.0167 61.5243 79.1673 61.7505 80.0713C61.9767 81.051 59.4909 84.0641 61.4487 84.2903C62.7294 84.4401 63.8597 81.0479 63.5586 79.5448C63.3324 78.1884 61.5969 77.0844 60.2436 76.9076C58.7312 76.7107 58.2827 78.0378 59.4152 78.4894Z" fill="#001434"/>
<path d="M43.4445 65.1568C46.0809 64.2528 51.3537 64.8557 52.3326 64.7801C53.3115 64.7044 53.7639 62.3691 51.4286 62.2193C49.0933 62.0696 42.9172 62.3691 41.8626 64.0266C41.3353 64.8557 41.9375 65.6841 43.4445 65.1568Z" fill="#001434"/>
<path d="M69.2061 26.0618C65.7475 25.753 63.1073 29.8285 64.9122 32.9922C65.2703 33.7665 65.845 34.4204 66.5669 34.875C67.2888 35.3296 68.1269 35.5653 68.9799 35.5537C75.1567 35.6286 75.1714 26.5961 69.2061 26.0618ZM66.2679 32.3151C66.0468 31.9391 65.9068 31.521 65.8567 31.0877C65.8067 30.6544 65.8477 30.2154 65.9772 29.7989C66.1067 29.3824 66.3218 28.9975 66.6087 28.6689C66.8955 28.3403 67.2479 28.0753 67.6432 27.8909C68.0384 27.7064 68.4679 27.6066 68.904 27.5978C69.3401 27.589 69.7732 27.6713 70.1756 27.8397C70.578 28.008 70.9408 28.2585 71.2408 28.5752C71.5407 28.8919 71.7712 29.2677 71.9174 29.6787C73.7254 33.4445 68.0759 36.0053 66.2679 32.3143V32.3151Z" fill="#001434"/>
<path d="M87.5854 68.9987C88.264 69.4503 89.8458 69.6765 94.0641 69.6765C103.932 69.6765 104.61 68.2452 101.597 68.0946C97.3783 67.9402 91.352 68.0174 89.6196 68.0946C87.8872 68.1718 86.9076 68.5463 87.5854 68.9987Z" fill="#001434"/>
<path d="M47.5871 43.0859C47.5871 44.8939 47.4327 47.8314 48.4162 47.7558C49.3997 47.6801 49.1295 44.5905 49.094 43.0859C49.0562 41.5025 49.1712 39.3949 48.4162 39.7717C47.6612 40.1484 47.5871 41.2779 47.5871 43.0859Z" fill="#001434"/>
<path d="M46.5326 32.691C46.1554 32.385 45.7098 32.1748 45.2338 32.0783C44.7578 31.9818 44.2656 32.0019 43.799 32.1369C43.3325 32.2719 42.9055 32.5177 42.5545 32.8534C42.2036 33.1891 41.939 33.6047 41.7835 34.0648C41.6279 34.5249 41.586 35.0158 41.6612 35.4956C41.7365 35.9754 41.9267 36.4299 42.2156 36.8203C42.5045 37.2106 42.8836 37.5253 43.3205 37.7375C43.7573 37.9497 44.2391 38.053 44.7245 38.0387C47.286 38.3405 48.7922 34.2728 46.5326 32.691ZM46.1558 35.3274C45.7798 37.286 42.9906 36.7587 43.145 34.875C43.1466 34.6912 43.1852 34.5096 43.2586 34.3411C43.3319 34.1726 43.4386 34.0206 43.572 33.8942C43.7055 33.7679 43.8631 33.6698 44.0354 33.6057C44.2077 33.5417 44.3911 33.5131 44.5747 33.5216C45.478 33.5988 46.3071 34.0466 46.1558 35.3274Z" fill="#001434"/>
<path d="M47.1354 12.428C47.0582 15.4388 47.0582 22.8987 47.0582 25.7605C47.0582 28.6223 48.4146 27.6442 48.4895 24.2536C48.5644 20.8629 48.7157 17.324 48.6439 14.0098C48.5721 10.6956 47.2111 9.41481 47.1354 12.428Z" fill="#001434"/>
<path d="M73.4243 39.0182C75.684 39.0954 79.6004 39.0954 82.991 39.2444C82.9138 60.3357 82.3881 61.6921 83.7437 60.6368C84.4972 60.0346 84.3467 59.884 84.5729 47.6809C84.6501 45.1194 84.5729 41.8808 84.4957 39.2444C89.1663 39.0182 93.3089 39.6961 92.1038 38.2648C91.8776 37.9637 91.426 37.5869 90.0703 37.5869C88.0361 37.5869 86.2281 37.7413 84.42 37.6641C84.3428 33.4459 84.42 28.4 84.3428 25.1576C84.3428 24.0282 82.9872 24.4798 83.0621 27.4929C83.1393 29.8283 82.761 33.7462 82.9077 37.5869C79.5934 37.5869 77.333 37.5869 75.0733 37.6641C71.9174 37.7375 71.2395 38.9426 73.4243 39.0182Z" fill="#001434"/>
<path d="M32.4463 25.9869C25.4411 26.6647 26.4247 36.5564 33.0493 36.683C40.9647 36.8336 40.1301 25.0072 32.4463 25.9869ZM32.5235 27.4182C37.9654 26.7234 39.0717 34.8534 33.3519 35.1769C28.2219 35.4664 27.3387 28.0759 32.522 27.4182H32.5235Z" fill="#001434"/>
<path d="M59.3386 14.4618C50.8527 12.5534 49.0841 25.6852 58.2084 25.6852C64.6863 25.6103 66.1555 15.9973 59.3386 14.4618ZM57.3044 24.1034C51.0512 22.8982 53.2128 14.6385 58.8863 15.8174C64.4408 16.9723 62.8034 25.0074 57.3044 24.1034Z" fill="#001434"/>
<path d="M91.1258 8.74018C82.4638 5.19975 80.2034 18.9839 89.0923 19.1353C94.5913 19.0565 97.0015 11.0716 91.1258 8.74018ZM87.5105 17.3272C86.6201 17.0525 85.8564 16.4704 85.3555 15.6848C84.8546 14.8991 84.6492 13.9611 84.7759 13.038C84.9026 12.1149 85.3532 11.2669 86.0472 10.6453C86.7413 10.0236 87.6336 9.66883 88.565 9.6442C95.1186 9.41491 93.8548 19.6733 87.5105 17.3241V17.3272Z" fill="#001434"/>
<path d="M53.4628 37.1349C51.6548 37.1349 51.4286 38.6419 54.5174 38.6419C57.6062 38.6419 60.7706 38.5647 63.255 38.6419C65.7393 38.7191 65.5903 37.1349 61.975 37.06C59.2614 36.9851 55.2708 37.1349 53.4628 37.1349Z" fill="#001434"/>
<path d="M96.2487 99.6563C92.7831 94.3086 86.079 98.0745 86.753 103.498C84.4933 104.251 83.2882 104.703 82.3085 104.251C81.7812 103.95 79.0661 98.5261 77.8641 97.2461C80.8611 93.3099 82.4525 88.4829 82.3842 83.536C82.4121 82.3039 82.3605 81.0713 82.2298 79.8458C82.1486 78.6863 82.0229 77.5302 81.853 76.3803C85.0183 65.7598 78.237 56.7952 72.362 53.7072C72.362 50.4648 69.3512 46.5507 66.1859 45.798C65.5766 45.6587 64.9379 45.7321 64.3761 46.0061C63.8143 46.2801 63.3632 46.7382 63.0979 47.3042C60.6877 52.3508 58.428 51.7486 53.2301 50.315C40.6464 47.0008 20.9903 48.5826 16.5459 66.0585C15.6418 69.7495 12.7044 68.2426 11.5741 73.2899C10.369 78.4122 13.5327 84.6639 17.673 87.1498C18.2276 88.2466 18.8567 89.3042 19.5559 90.315C14.8925 94.2741 11.1217 99.1772 8.49228 104.701C6.85084 108.235 6.13484 112.129 6.41155 116.016C6.68825 119.903 7.94858 123.656 10.0741 126.923C17.0044 137.468 31.1654 151.704 41.186 151.48C47.7396 151.402 52.5608 145.754 53.6153 142.44C63.8599 143.118 72.6731 141.159 72.9742 133.551C75.985 135.66 82.3927 137.167 83.4449 136.866C86.7405 136.783 89.9586 135.849 92.7862 134.154C115.158 121.802 114.932 113.138 111.314 105.605C108.15 98.9785 102.957 96.945 96.2487 99.6563ZM16.4772 83.8379C14.1418 81.1258 12.56 77.2843 13.3891 73.9701C14.4437 69.2246 17.3063 71.0365 18.3609 66.7387C22.1267 51.2985 41.1096 48.886 52.936 52.2759C58.7361 54.0083 62.6532 53.9326 64.7623 48.8111C65.9204 45.9231 71.0365 50.2471 70.5624 54.1588C70.5324 54.3572 70.5676 54.56 70.6626 54.7366C70.7577 54.9133 70.9076 55.0543 71.0897 55.1385C75.8893 57.2013 81.4848 63.8761 80.8819 72.162C80.2744 70.078 79.5193 68.0399 78.6222 66.0632C75.9765 60.4646 69.233 57.2947 67.2474 59.2811C65.0627 61.2397 59.9404 60.0346 55.4959 58.3022C49.9969 56.268 44.8754 53.5559 39.4513 55.2921C37.2673 55.97 35.0825 56.9496 33.1209 61.7701C31.539 65.7629 33.0437 72.9186 29.2794 74.045C25.9651 74.4209 22.8014 72.1613 19.9381 73.7431C16.251 75.853 15.4975 79.8458 16.4772 83.8379ZM79.9771 76.6065C76.588 78.6407 72.5951 81.352 69.6576 83.3863C65.891 79.6196 65.9667 72.2377 75.01 71.4086C76.3708 71.3369 77.7183 71.7071 78.8515 72.4639C79.2965 73.8248 79.6722 75.2075 79.9771 76.6065ZM18.3601 79.3186C18.8117 76.6821 20.9965 74.8741 23.1813 75.3257C30.9392 77.0581 33.5007 76.8412 33.7269 68.0194C33.9778 58.2296 40.2805 53.9326 49.3214 57.6993C56.7041 60.7873 61.2235 61.8426 64.0104 61.9175C65.5786 62.0805 67.1479 61.6205 68.38 60.6367C71.0913 60.3357 74.8579 62.8215 76.8913 66.9672C77.3585 67.9962 77.7609 69.0533 78.0965 70.1324C73.0499 68.1739 68.2287 70.2868 66.4963 73.8983C63.8599 79.2467 65.4417 87.156 74.8579 87.2316C76.851 87.3208 78.8233 86.795 80.5074 85.7254C79.8296 93.2571 75.7619 99.3591 67.6257 102.222C62.1275 104.18 52.6357 105.762 39.1526 101.318C27.5501 97.4723 17.7571 89.1833 18.3601 79.3186ZM20.7703 92.0482C26.2693 98.7523 37.6433 104.176 48.5625 105.758C48.036 106.286 45.0978 109.826 44.0432 109.901C42.9887 109.976 42.0846 108.696 40.9552 108.168C40.2774 107.867 40.0512 108.922 40.5028 109.449C41.4068 110.504 42.9138 111.784 44.1189 111.784C44.42 111.784 45.0978 111.633 47.2069 109.75C47.9596 110.353 49.0898 110.805 49.6171 111.332C48.788 113.065 44.6454 117.132 43.1392 119.844C40.4271 117.283 37.8656 113.894 37.7151 113.366C37.6379 112.839 38.0162 110.579 37.5607 109.374C37.5121 109.241 37.4199 109.129 37.2992 109.055C37.1786 108.982 37.0366 108.952 36.8965 108.97C36.7565 108.988 36.6266 109.053 36.5284 109.154C36.4301 109.256 36.3692 109.387 36.3556 109.528C36.0072 110.88 35.8549 112.275 35.9032 113.671C36.0244 115.48 43.0597 122.408 43.1353 122.484C36.5061 126.401 29.3504 134.611 27.1656 143.199C5.3286 124.364 0.959034 110.954 20.7703 92.0482ZM52.5585 140.936C49.2442 139.053 47.2856 136.567 46.9846 137.925C46.6827 139.356 48.8675 140.863 51.805 142.595C50.9225 144.163 49.8047 145.585 48.4907 146.814C45.1765 144.855 42.7663 141.616 42.5401 143.349C42.239 145.232 44.9503 146.437 46.9846 148.094C42.239 151.484 36.212 150.278 28.6803 144.554C30.2613 136.946 36.3633 129.338 42.3139 125.194C43.3685 124.442 46.4565 122.183 49.0937 122.407C53.0857 122.784 51.1063 127.823 50.7504 128.738C50.5796 129.122 50.5044 129.542 50.5313 129.962C50.5582 130.382 50.6863 130.789 50.9048 131.149C52.7154 134.069 53.3091 137.583 52.5585 140.936ZM52.4041 129.938C52.9313 128.507 54.5132 125.041 52.7051 122.33C50.3698 118.79 44.7203 121.124 44.6454 121.049C45.8505 119.166 51.9524 111.935 51.7262 111.332C51.9524 110.202 49.7677 109.299 48.7154 108.47C49.3176 107.867 50.9751 106.134 51.0507 106.134C51.8034 106.211 55.5701 106.289 55.6449 106.289C55.9468 106.816 56.549 107.72 57.1519 108.774C50.5443 112.621 53.9342 110.052 59.7883 128.585C59.864 128.882 59.864 129.192 59.7883 129.489C58.7663 132.224 57.1447 134.695 55.0428 136.72C54.8938 136.039 54.8938 132.198 52.4079 129.938H52.4041ZM92.0258 132.725C85.3973 136.341 80.1245 136.039 73.2699 131.52C73.7964 125.041 74.6255 115.777 72.2153 108.621C71.6124 106.888 70.1811 107.038 70.5578 108.168C71.6124 112.688 72.2902 115.851 71.8386 128.205C71.6842 133.026 71.4618 135.965 69.0508 137.922C65.9628 140.408 59.0325 141.165 54.287 140.634C54.4375 140.032 54.5132 139.505 54.6637 138.902C57.1496 137.848 61.0667 131.821 61.9708 129.335C62.4224 128.055 56.698 115.55 55.2667 111.859C55.7183 111.257 57.0739 110.805 58.1293 110.202C60.0122 112.99 60.4638 112.99 61.1401 113.065C63.2492 113.142 65.8856 109.449 65.0573 109.072C64.9708 108.988 64.8676 108.923 64.7544 108.881C64.6412 108.839 64.5204 108.82 64.3998 108.828C64.2792 108.835 64.1615 108.867 64.0541 108.923C63.9468 108.978 63.8522 109.056 63.7765 109.15C62.8725 110.129 61.6674 111.334 61.2914 111.184C60.7641 111.107 58.1262 106.665 57.751 106.062C66.5642 105.534 72.741 102.747 76.6574 98.6797C78.3906 101.166 79.8999 105.233 81.6292 106.438C82.4583 106.891 84.9434 106.438 86.7514 105.534C88.2584 113.519 93.305 123.688 100.085 127.681C97.4908 129.503 94.802 131.187 92.0296 132.724L92.0258 132.725ZM101.667 126.626C96.2448 123.616 89.0883 113.143 88.4105 103.577C88.1843 100.187 91.9509 96.6463 94.8135 100.79C95.0801 101.16 95.4793 101.414 95.9281 101.498C96.377 101.582 96.841 101.49 97.2237 101.241C101.216 99.6594 104.379 100.036 106.865 102.371C105.745 103.106 104.56 103.736 103.325 104.254C102.12 104.782 102.422 106.364 103.551 105.912C105.098 105.3 106.608 104.596 108.07 103.803C109.353 105.241 110.259 106.975 110.707 108.849C107.92 110.582 106.661 110.952 107.016 112.164C107.257 112.988 108.146 112.54 111.235 110.808C112.066 115.099 110.484 120.145 101.671 126.626L101.667 126.626Z" fill="#001434"/>
</svg>
