<svg width="155" height="156" viewBox="0 0 155 156" fill="none" xmlns="http://www.w3.org/2000/svg">
<path d="M63.7585 31.5974C54.2782 38.3756 64.7389 53.2136 74.3658 45.3005C83.6222 37.619 72.4899 25.5062 63.7585 31.5974Z" fill="#3D9CFB"/>
<path d="M101.834 80.6661C100.873 80.3411 99.8241 80.3936 98.9002 80.8128C99.7263 79.9868 101.687 77.1998 99.5024 77.6553C98.3753 77.8792 98.4525 79.4618 98.1514 80.4423C97.7731 79.4618 97.6187 77.6708 96.7927 77.6553C95.0634 77.6167 96.0207 79.9096 97.3253 80.8128C95.4416 79.9868 93.3881 80.7588 94.5384 81.9477C94.909 82.326 96.4221 82.0172 97.3948 81.7933C95.7427 82.8509 95.0788 85.4835 96.8699 84.9508C97.3948 84.8041 97.9198 83.152 98.2209 82.2488C98.522 83.152 99.0546 84.8041 99.5796 84.9508C101.162 85.4063 100.784 83.2987 99.0546 81.7933C100.56 82.3954 103.571 82.0866 101.834 80.6661Z" fill="#3D9CFB"/>
<path d="M89.0805 71.6335C88.4587 71.3016 87.7497 71.1695 87.0501 71.2552C87.8222 70.8846 89.6827 69.3792 87.9534 69.2248C87.4284 69.1553 86.9035 69.827 86.4094 70.8846C86.3322 70.2052 86.4866 68.8542 85.8844 68.6998C84.7573 68.3987 84.9812 69.9814 85.73 70.9541C83.414 69.2325 81.7773 71.9345 85.6605 71.6335C84.379 72.0117 83.4757 73.8182 84.7573 73.6638C85.205 73.6638 85.8072 72.8918 86.1855 72.1198C86.2627 72.7915 86.3322 74.0035 86.7105 74.2274C87.6755 74.7755 87.7681 73.3242 86.8649 71.9654C88.1387 72.7606 89.9992 73.0076 89.0805 71.6335Z" fill="#3D9CFB"/>
<path d="M69.1006 88.1932C68.2746 87.7377 67.3713 88.8649 66.4681 89.3204C66.993 88.2627 67.8191 86.0084 65.9431 86.3095C65.1171 86.4562 65.5648 88.3399 65.5648 89.3204C64.8855 88.5483 64.1366 87.0043 63.3106 87.29C61.2725 88.1932 63.7583 89.467 64.8546 89.9225C63.4959 90.0692 60.6549 90.8644 62.5926 91.9529C63.5036 92.4624 64.3991 91.3507 65.2252 90.8258C64.2524 92.4084 64.2524 95.0409 65.9045 93.6822C66.3523 93.3116 66.2056 91.8757 66.2056 90.9725C66.8078 91.7445 67.4794 93.1418 68.3904 92.9334C70.1892 92.5165 68.0893 90.8258 66.8464 90.3008C67.9735 90.1464 70.6832 89.0965 69.1006 88.1932Z" fill="#3D9CFB"/>
<path d="M73.1693 69.7341C74.4431 69.5103 73.2387 68.4603 71.8105 68.4603C72.4899 68.1592 73.9953 66.8777 72.791 66.8005C72.4899 66.8005 71.8877 67.1016 71.4323 68.0048C71.5867 67.2328 71.5095 65.5962 70.529 66.2756C70.1584 66.5766 70.6062 67.4799 70.9073 68.1593C70.004 67.4799 69.3633 67.256 69.1008 67.3872C68.1203 67.7655 69.1008 68.6688 70.529 68.6688C69.3247 68.9699 68.4986 70.2128 69.5563 70.3209C69.9268 70.3981 70.529 69.5489 70.9845 69.1243C70.7606 70.5525 71.1312 71.6024 71.8877 70.8536C72.1116 70.622 71.7333 69.572 71.5866 68.9699C72.0962 69.3018 72.791 69.8268 73.1693 69.7341Z" fill="#3D9CFB"/>
<path d="M96.8697 31.3737C94.6849 31.0726 92.5079 35.4422 92.2763 36.716C91.7225 39.2543 92.1267 41.9076 93.4111 44.1659C93.9515 45.0614 95.1404 43.942 94.6849 43.1159C93.1409 40.4062 93.0328 36.1138 95.7426 33.4813C95.5882 35.1411 96.723 36.4921 97.773 36.191C98.1513 36.0444 98.1513 35.6661 97.9197 35.365C96.669 33.6897 97.7112 31.3737 96.8697 31.3737Z" fill="#3D9CFB"/>
<path d="M107.555 27.5364C109.214 27.6908 111.415 25.9924 111.924 24.3017C113.051 20.3877 107.624 19.6157 106.728 23.3985C106.571 24.3423 106.496 25.2981 106.505 26.2549C105.146 29.2657 103.339 31.0028 103.417 32.9559C103.595 33.677 103.979 34.3311 104.521 34.8396C107.755 38.4526 107.23 46.8752 100.383 46.3503C100.184 46.3347 99.9867 46.3968 99.8326 46.5235C99.6786 46.6502 99.5797 46.8316 99.5565 47.0296C99.6337 47.9329 100.46 47.9329 101.101 47.9329C108.095 47.8557 109.832 38.746 105.686 33.9364C104.034 31.9678 105.007 32.624 107.555 27.5364ZM109.438 22.2714C111.847 22.4489 109.816 25.8071 108.01 25.8843C107.933 24.7495 108.087 22.171 109.438 22.2714Z" fill="#3D9CFB"/>
<path d="M81.5919 68.0976C81.1441 67.7193 80.3875 68.3214 79.7854 68.553C80.2409 67.9509 80.9202 66.237 79.7854 66.5921C79.1137 66.816 79.3376 67.8737 79.2604 68.4758C78.8821 67.9509 78.4884 66.8932 78.0561 66.9318C76.6279 67.0785 78.0561 68.2134 78.7354 68.6611C77.9094 68.5839 76.4194 69.1861 77.0756 69.7111C77.5311 70.0199 78.28 69.4872 78.8821 69.2633C78.3572 69.9427 77.755 71.3709 78.8821 71.2165C79.2604 71.147 79.3376 70.0199 79.4148 69.4177C79.7159 69.9427 80.2409 70.9154 80.6191 70.9154C81.5147 70.8459 81.0669 69.7883 79.9398 69.1166C80.6886 69.2247 82.4951 68.8541 81.5919 68.0976Z" fill="#3D9CFB"/>
<path d="M94.0136 94.3614C92.7321 91.2734 89.8679 91.505 85.8844 93.7592C84.6801 90.2235 79.8627 79.3845 73.6944 76.6053C73.1694 76.3042 72.4901 76.6747 72.0346 77.053C71.4324 77.578 68.0124 81.5693 67.9738 83.453C67.9949 83.7186 68.091 83.9728 68.2509 84.186C68.4108 84.3992 68.6279 84.5627 68.8771 84.6573C72.4437 86.3248 74.366 88.0387 78.1412 97.5961C73.0227 100.159 66.561 103.317 61.211 105.949C57.4436 99.4026 53.7612 87.5909 64.4457 85.4061C64.614 85.3863 64.7757 85.3288 64.9187 85.2379C65.0617 85.147 65.1824 85.0251 65.2718 84.8812C66.7 82.9203 67.0783 81.0829 64.7468 81.0211C64.0675 81.0211 65.102 79.8631 67.3022 77.4081C67.7654 76.8909 68.2054 76.1266 66.7 76.1266C55.9382 75.9027 49.4688 85.3058 48.72 91.1807C48.1178 95.9904 49.1677 101.333 53.7612 109.763C49.7699 111.724 47.2145 112.851 49.6232 117.591C51.2753 121.127 54.5872 129.333 57.8991 133.394C63.2414 139.941 75.1303 146.518 88.6019 138.736C103.417 130.26 105.146 114.681 94.0136 94.3614Z" fill="#3D9CFB"/>
<path d="M100.483 45.6016C99.8041 43.4168 99.0552 41.3865 98.1674 40.2516C95.9054 37.4878 93.9445 39.302 95.3805 39.881C96.8164 40.4601 97.8663 42.1353 99.0707 45.9027C100.275 49.6701 103.054 60.2698 103.957 64.0372C105.162 68.6692 104.861 70.6533 100.8 72.1587C98.9935 72.838 88.3861 76.0187 84.3176 76.9065C82.8122 77.1999 83.5456 78.6358 85.6763 78.1031C104.977 73.2858 107.694 72.6991 105.617 64.207C104.621 60.2003 102.977 54.0242 100.483 45.6016Z" fill="#001434"/>
<path d="M33.8126 74.0421C35.2949 69.5799 36.1286 70.4909 43.9645 70.182C46.0721 70.1048 46.4504 68.7924 44.7365 68.831C36.2444 69.0163 34.1986 67.9355 32.3226 73.5712C31.4889 75.9798 25.4749 105.702 24.9422 109.315C24.4095 112.928 26.3782 114.657 29.9834 114.657H42.3356C43.9877 114.657 43.7638 113.152 40.8301 113.152H29.8985C27.1888 113.152 25.9072 112.249 26.2855 109.539C27.0344 105.949 32.9788 76.3735 33.8126 74.0421Z" fill="#001434"/>
<path d="M14.3966 135.224C23.1203 135.602 45.5471 135.996 47.6547 135.903C51.8698 135.826 51.5147 134.359 49.0829 134.321C45.6243 134.244 17.1758 133.865 12.7986 133.719C11.1079 133.641 11.2314 135.07 14.3966 135.224Z" fill="#001434"/>
<path d="M87.39 61.242C85.4291 61.6974 76.4043 64.0984 74.5978 64.7005C72.7913 65.3027 73.2391 66.507 75.8716 65.8354C86.95 62.9018 90.7559 61.1339 92.0838 64.0984C92.4621 65.3027 92.0066 66.8853 90.2001 67.9584C89.6057 68.2595 89.899 69.3094 91.2577 68.7304C95.442 66.8081 94.1065 59.8755 87.39 61.242Z" fill="#001434"/>
<path d="M84.5257 39.8807C83.0975 40.4057 82.8736 41.9883 84.0779 41.61C85.2822 41.2317 87.1659 40.784 89.1963 40.3285C90.6786 40.0351 91.0105 37.7191 84.5257 39.8807Z" fill="#001434"/>
<path d="M68.8 60.7251C70.0815 60.8023 71.116 58.9958 71.9652 58.0153C73.7871 59.5593 75.9642 59.706 76.5509 57.3359C77.6317 57.9536 79.3301 57.6988 79.4845 56.5639C80.5731 56.8727 81.8006 56.6257 82.1171 55.5835C84.7573 56.3555 86.0312 53.3987 84.1552 54.1553C82.7192 54.7497 81.2061 53.144 80.6889 55.2052C79.5231 54.9504 78.1335 54.9118 78.1335 56.1085C77.3615 55.9618 76.2498 55.4291 75.7249 55.8074C75.1227 56.3323 75.501 57.39 74.7444 57.5367C73.9878 57.6834 72.714 56.1857 71.8108 56.3323C70.9075 56.479 69.7804 58.9726 69.101 59.1193C68.4217 59.266 68.2364 58.1543 67.4644 58.6175C66.5457 59.0652 67.5184 60.6479 68.8 60.7251Z" fill="#001434"/>
<path d="M111.245 125.967C110.789 127.017 111.693 127.511 112.974 125.89C114.518 125.89 120.694 125.813 122.007 125.813C123.319 125.813 121.93 124.346 119.822 124.385C117.714 124.423 115.831 124.462 113.955 124.462C114.193 124.098 114.451 123.748 114.727 123.412C116.015 123.478 117.308 123.427 118.587 123.257C120.092 123.034 120.015 122.13 117.985 121.976C117.261 121.916 116.534 121.893 115.808 121.906C116.58 120.471 115.506 119.946 114.001 121.906C111.137 121.976 110.535 122.81 110.766 123.111C110.998 123.412 112.573 123.412 112.943 123.412C112.71 123.779 112.452 124.13 112.171 124.462C110.257 124.253 108.419 125.651 111.245 125.967Z" fill="#001434"/>
<path d="M125.165 114.603C128.855 114.603 130.808 112.874 130.206 109.261C129.604 105.648 123.659 75.9259 122.833 73.5172C120.78 67.6731 119.019 68.8852 109.06 68.8852C107.254 68.8852 108.759 70.2439 110.79 70.2439C119.66 70.2439 120.1 69.8656 121.474 74.0036C122.308 76.4123 128.253 105.911 128.778 109.516C129.225 112.226 127.951 113.129 125.165 113.129H112.751C109.964 113.129 109.439 114.673 111.546 114.634C113.654 114.596 121.328 114.603 125.165 114.603Z" fill="#001434"/>
<path d="M108.682 128.222C107.03 128.222 106.652 129.658 110.944 129.658C115.236 129.658 131.711 129.881 134.274 128.222C135.324 127.55 134.421 125.967 132.915 124.763C129.904 122.354 129.696 123.767 130.599 124.539C131.502 125.311 133.533 126.793 132.406 127.172C129.526 128.299 115.082 128.299 108.682 128.222Z" fill="#001434"/>
<path d="M105.146 134.398C103.193 134.467 104.374 135.672 106.273 135.826C108.682 135.973 138.86 135.602 141.569 135.301C144.279 135 144.279 133.757 142.627 133.719L105.146 134.398Z" fill="#001434"/>
<path d="M90.702 46.2034C91.1497 46.4273 93.1801 45.8251 93.6356 46.049C94.0911 46.2729 94.9171 48.0948 95.4421 47.9327C95.9671 47.7706 95.666 45.6707 95.9671 45.223C96.2681 44.7752 97.8508 44.3969 97.6192 43.6789C97.4725 43.3007 96.1215 43.0768 95.8899 42.7757C95.2182 40.5137 95.0638 40.9692 94.1606 41.7952C94.332 42.26 94.5327 42.7139 94.7627 43.154C95.2877 43.98 94.0834 45.1071 93.4812 44.2039C93.1756 43.706 92.8997 43.1904 92.6552 42.6599C91.9758 42.6599 91.0031 42.5132 90.702 42.8143C90.3237 43.2621 91.8291 44.0958 91.8291 44.4664C91.8291 44.8369 90.2465 45.9718 90.702 46.2034Z" fill="#001434"/>
<path d="M4.15991 137.108C4.15991 142.149 6.12081 143.037 10.2588 143.199C11.5326 143.253 55.483 143.153 57.7372 143.199C59.6209 143.237 58.7177 141.771 56.7645 141.771C54.8113 141.771 13.6402 141.848 10.4441 141.771C6.75386 141.616 5.81201 141.091 5.81201 137.139C5.81201 132.128 6.58401 133.132 19.2758 123.667C22.4179 121.351 24.4714 119.977 27.93 119.9C30.192 119.83 41.7798 119.977 43.0614 119.9C44.3429 119.822 43.8334 118.394 41.7026 118.394C26.2625 118.394 25.4133 117.916 21.6304 120.131C21.7771 112.411 28.6248 80.5428 30.2074 73.8495C31.7901 67.1561 34.7237 66.7779 38.7844 66.7779C40.3284 66.7779 42.2507 66.7007 44.4278 66.7007C46.6049 66.7007 45.1072 65.2725 43.8256 65.2725C35.2641 65.2725 30.2229 65.0023 28.7792 73.4712C28.2543 76.4048 19.3685 113.955 20.2871 121.035C5.58812 131.951 4.15991 131.017 4.15991 137.108Z" fill="#001434"/>
<path d="M62.0601 63.2805C63.2644 63.2033 65.4492 62.4544 64.9165 61.1729C64.7698 60.8023 63.9438 60.5013 63.2644 60.5707C64.0905 59.7447 63.4883 57.861 62.0601 58.3937C61.7819 58.4724 61.537 58.6398 61.3626 58.8704C61.1882 59.101 61.0938 59.3822 61.0938 59.6713C61.0938 59.9605 61.1882 60.2417 61.3626 60.4723C61.537 60.7029 61.7819 60.8703 62.0601 60.949C60.8249 61.474 60.3694 63.3577 62.0601 63.2805Z" fill="#001434"/>
<path d="M36.669 122.656C38.6222 122.656 38.0973 121.073 32.6778 121.305C30.8713 121.374 31.1337 122.656 32.0061 122.656H36.669Z" fill="#001434"/>
<path d="M49.0136 75.1383C49.3842 76.4893 50.5191 75.2077 50.1408 73.7023C44.4974 51.1288 41.9884 53.3059 57.3668 48.89C58.9108 48.4423 57.6678 47.346 56.008 47.7629C53.4725 48.3555 50.9828 49.1295 48.5582 50.0789C42.4593 52.6188 43.1387 53.9467 49.0136 75.1383Z" fill="#001434"/>
<path d="M101.387 96.1677C98.6768 90.0688 96.9475 87.5135 89.7215 91.1265C87.7683 86.0853 82.5727 75.6863 75.3467 71.7105C73.4708 70.6529 71.286 73.0615 70.5294 73.8181C68.5762 75.7018 70.1588 76.605 72.2664 76.605C70.3827 78.3343 65.7893 80.8125 68.9545 82.3179C73.3936 84.4255 74.9684 85.7842 79.1836 96.214C73.4708 98.9932 66.5458 102.305 60.6014 105.169C57.3667 99.7653 51.0439 84.2479 63.6122 82.0631C64.9632 81.8392 65.7893 80.3338 66.4686 79.3534C67.9741 77.0991 68.3523 76.1959 67.8969 75.6709C67.4414 75.1459 66.4687 75.1382 64.6622 75.6709C65.7198 74.235 70.9077 70.1742 66.2062 69.9503C62.8171 69.7496 59.7213 71.255 66.6539 68.221C68.0127 67.6189 67.5495 66.677 65.7584 67.2406C62.3461 68.3059 60.9411 69.1938 60.3544 70.5525C49.9709 73.6405 44.9142 81.3606 44.1422 87.8609C43.3702 93.8053 45.1226 101.101 50.1639 110.249C44.891 112.882 42.9533 114.233 45.5704 119.953C51.5921 132.9 57.0116 147.043 74.621 147.043C95.3572 147.043 115.036 126.021 107.277 109.114C106.065 106.474 103.417 100.761 101.387 96.1677ZM69.4795 80.9669C70.3055 79.6081 74.2968 77.5778 74.1115 76.2267C74.042 75.3235 72.3822 75.4007 71.2551 75.0996C71.4018 74.7213 73.5711 72.5134 74.4898 72.9148C81.1908 75.9102 86.5331 87.1352 88.3396 91.7287C86.4559 92.6319 83.7076 93.9829 80.6195 95.4883C76.4044 85.3287 74.0729 82.92 69.4795 80.9669ZM45.7711 88.1157C47.2071 77.5778 57.6678 71.4866 65.4187 71.3322C66.9627 71.3322 66.0904 72.0039 65.7893 72.3127C62.2535 75.9565 61.6127 77.7167 66.6231 76.8289C65.8369 78.2636 64.7896 79.5387 63.535 80.5886C49.2374 83.5222 55.2591 99.0241 59.3199 105.802C56.4634 107.231 53.8232 108.435 51.7928 109.485C46.7516 100.614 44.9451 94.2068 45.7711 88.1157ZM91.1497 140.944C75.3467 149.899 62.6318 144.48 56.834 137.408C53.0743 132.776 49.7624 124.763 47.1299 119.266C45.47 115.885 45.7711 114.526 48.3342 112.951C50.2179 111.816 64.2144 105.123 75.5011 99.6263C96.2604 89.5902 95.9284 87.9381 100.028 96.7699C102.066 100.985 105.146 107.377 106.273 110.01C109.439 117.46 106.729 132.058 91.1497 140.944Z" fill="#001434"/>
<path d="M135.023 121.073C135.926 114.001 127.125 76.5281 126.531 73.5172C125.326 66.8934 121.559 65.6119 117.575 65.3108C114.895 65.1246 112.204 65.1246 109.523 65.3108C107.717 65.5424 106.582 66.8548 108.466 66.8548C117.73 66.8548 122.979 64.9788 125.025 73.8569C126.569 80.473 133.68 112.612 133.448 120.062C131.631 118.838 129.458 118.254 127.272 118.402C125.018 118.402 113.121 118.402 111.832 118.479C110.542 118.556 109.516 119.907 111.453 119.907C130.576 119.907 129.866 119.174 135.911 123.767C148.741 133.325 149.382 132.259 149.382 137.239C149.382 141.23 148.402 141.755 144.712 141.871C141.554 141.948 100.614 141.871 98.3911 141.871C96.1677 141.871 94.6314 143.453 96.8471 143.453C96.8471 143.453 143.507 143.453 144.712 143.376C148.857 143.229 150.718 142.249 150.81 137.285C150.942 131.171 150.069 132.352 135.023 121.073Z" fill="#001434"/>
<path d="M111.168 22.2712C113.801 19.2604 118.541 13.0921 119.375 11.4631C120.347 9.50997 119.22 8.9078 118.541 9.91913C117.861 10.9305 110.697 20.9125 109.215 22.4179C108.759 22.7962 109.362 24.3788 111.168 22.2712Z" fill="#001434"/>
<path d="M30.1998 124.308C29.5196 124.299 28.8394 124.324 28.1617 124.385C26.4324 124.462 25.6836 125.443 26.7335 125.666C27.6314 125.79 28.5377 125.839 29.4433 125.813C29.1422 126.716 29.065 127.172 29.4433 127.172C29.8216 127.172 30.5704 126.948 31.1031 125.813L41.5638 125.89C42.0888 127.017 42.166 127.319 42.6909 127.319C43.2159 127.319 43.517 126.948 43.2159 125.89C44.868 125.89 45.0224 125.666 45.2463 125.365C45.6246 124.987 44.9452 124.385 42.6137 124.385C42.467 124.014 42.2354 123.482 41.9344 122.733C41.4094 121.451 39.6801 121.003 40.2051 122.509C40.5833 123.412 40.9771 124.385 40.9771 124.385C38.3368 124.385 32.7706 124.308 31.8674 124.308C32.0758 123.111 31.2498 122.879 30.1998 124.308Z" fill="#001434"/>
<path d="M73.4707 27.0888C63.3111 23.0203 52.696 33.6354 57.0655 43.795C58.0287 46.0227 59.6267 47.9172 61.6601 49.2422C63.6934 50.5671 66.0721 51.2637 68.499 51.2449C83.6226 51.2063 85.9926 32.0528 73.4707 27.0888ZM79.1141 43.4862C75.3467 51.6077 61.4274 51.6849 58.4937 43.1851C55.4057 34.3765 62.0295 27.9071 69.4022 27.745C76.7749 27.5829 82.2716 36.6462 79.1141 43.4862Z" fill="#001434"/>
<path d="M24.7027 122.88C23.9307 122.579 20.7887 125.365 20.0707 126.74C19.3527 128.114 20.2946 129.148 22.1783 129.226C29.6282 129.75 43.1692 129.681 46.18 129.527C49.1908 129.372 48.442 128.245 47.3843 128.245C44.8985 128.322 28.7867 128.307 22.9271 127.797C22.2478 127.736 21.1978 127.72 22.0239 126.74C24.1006 124.084 25.3821 123.111 24.7027 122.88Z" fill="#001434"/>
<path d="M69.2554 40.2514C74.8216 38.9776 72.4902 30.7017 66.8468 32.3538C62.0603 33.782 63.6044 41.5329 69.2554 40.2514Z" fill="#001434"/>
<path d="M59.165 57.112C54.8804 58.9185 56.988 65.9129 61.2031 65.5423C64.7389 65.2413 80.5033 61.1033 84.0777 59.4435C88.895 57.3359 89.42 55.6838 89.1189 53.8773C88.7406 51.9164 87.2352 50.1099 81.5918 51.1676C77.6778 51.8469 62.1758 55.9077 59.165 57.112ZM87.4668 55.6838C86.0309 59.1424 64.3606 63.8825 61.5737 64.2608C57.9684 64.7086 57.0652 59.6288 59.5433 58.463C62.4074 57.0348 79.5615 52.673 84.1549 52.0708C86.5636 51.7697 88.3701 53.4218 87.4668 55.6838Z" fill="#001434"/>
<path d="M89.5749 125.967C88.7412 124.987 85.7689 122.107 83.7 120.1C83.4467 119.833 83.2656 119.506 83.1738 119.149C83.0819 118.792 83.0823 118.418 83.175 118.062C83.4719 117.077 83.5648 116.042 83.448 115.02C83.3312 113.998 83.0071 113.01 82.4956 112.118C77.9794 105.27 66.6926 112.048 70.985 119.266C72.8764 122.354 75.3082 121.374 75.5707 123.713C76.0802 128.16 75.3468 136.351 80.388 134.467C82.4956 133.695 88.6717 130.607 89.5749 129.881C90.0414 129.543 90.3718 129.05 90.5065 128.489C90.6413 127.929 90.5716 127.339 90.3099 126.826C90.1364 126.486 89.8844 126.191 89.5749 125.967Z" fill="#001434"/>
<path d="M69.4018 41.456C66.3138 42.3592 64.2525 44.6289 64.6617 46.3505C65.0708 48.0721 71.6638 48.6048 74.8985 45.9722C79.0442 42.5908 75.5701 39.7267 69.4018 41.456Z" fill="#001434"/>
<path d="M125.844 126.569C126.616 126.492 126.369 124.539 124.941 122.277C123.883 120.548 122.818 121.235 123.211 122.13C124.941 126.091 125.165 126.646 125.844 126.569Z" fill="#001434"/>
</svg>
