<svg width="154" height="154" viewBox="0 0 154 154" fill="none" xmlns="http://www.w3.org/2000/svg">
<path d="M51.7142 38.2548C51.5419 38.4271 52.4799 39.2388 52.6124 39.3322C52.9261 39.5558 53.2954 39.6886 53.6798 39.7161C54.0641 39.7435 54.4485 39.6645 54.7909 39.4878C55.1332 39.311 55.4203 39.0433 55.6204 38.7141C55.8206 38.3849 55.9262 38.0069 55.9256 37.6216C55.9066 37.1241 55.7226 36.6471 55.4024 36.2658C55.0823 35.8845 54.6443 35.6206 54.1576 35.5159C54.3354 34.7893 54.2429 34.0228 53.8973 33.3595C53.5516 32.6961 52.9764 32.1811 52.279 31.9106C51.5816 31.64 50.8096 31.6324 50.107 31.8892C49.4045 32.146 48.8193 32.6496 48.4607 33.306C47.5203 32.5122 46.3327 32.0707 45.1021 32.0576C43.8715 32.0445 42.6748 32.4605 41.7177 33.2341C40.7606 34.0076 40.1029 35.0905 39.8576 36.2965C39.6124 37.5025 39.795 38.7562 40.3739 39.8422C39.551 39.511 38.6417 39.461 37.7874 39.6999C36.9332 39.9389 36.1818 40.4533 35.65 41.1634C35.1183 41.8734 34.8361 42.7392 34.8472 43.6262C34.8583 44.5132 35.1622 45.3717 35.7115 46.0682C35.0293 45.9869 34.3376 46.0556 33.6847 46.2696C33.0318 46.4836 32.4336 46.8377 31.9319 47.3071C31.2663 47.8716 30.7376 48.5799 30.3857 49.3785C30.0338 50.1772 29.8679 51.0453 29.9005 51.9175C29.984 54.0102 31.8875 56.5011 33.9649 56.3778C36.3006 55.9212 38.6045 55.315 40.8625 54.563C41.5342 54.3894 42.1442 54.0316 42.6236 53.5301C44.2056 51.5775 44.6191 47.461 44.6145 45.1838C44.6145 44.1616 44.4207 43.1501 44.4016 42.1408C44.8904 42.1366 45.3718 42.0214 45.8096 41.8038C46.2473 41.5863 46.6299 41.2721 46.9285 40.8851C47.4445 40.1868 47.6933 39.3268 47.6299 38.4608C48.2169 38.9346 48.9579 39.1755 49.7113 39.1375C50.4648 39.0995 51.1778 38.7853 51.7142 38.2548Z" fill="#38A1FF"/>
<path d="M55.7485 50.9711C54.8657 49.6718 53.762 48.5375 52.4873 47.6195C52.5846 47.69 51.3387 48.7681 51.2124 48.85C50.8234 49.1127 50.1243 49.239 49.8418 49.6089C49.6361 50.0666 49.5441 50.5673 49.5738 51.0683C49.4906 51.8202 49.4303 52.576 49.3931 53.3356C51.3886 53.241 53.373 52.9815 55.3258 52.5599C56.0479 52.4711 56.3848 51.8846 55.7485 50.9711Z" fill="#38A1FF"/>
<path d="M114.626 33.1246C115.786 33.7475 116.772 34.6495 117.496 35.749C118.22 36.8485 118.659 38.111 118.773 39.4226C118.778 39.5153 118.817 39.6027 118.884 39.6668C118.952 39.7309 119.041 39.7666 119.134 39.7666C119.226 39.7666 119.316 39.7309 119.383 39.6668C119.45 39.6027 119.49 39.5153 119.494 39.4226C119.481 37.9694 119.034 36.5533 118.211 35.3555C117.388 34.1578 116.226 33.233 114.874 32.6996C114.592 32.5886 114.337 32.9799 114.626 33.1246Z" fill="#38A1FF"/>
<path d="M121.516 38.5933C121.573 38.0022 121.578 37.4074 121.533 36.8153C121.498 36.3367 120.754 36.3306 120.784 36.8153C120.818 37.4359 120.906 38.0523 121.047 38.6576C121.115 38.9363 121.491 38.8467 121.516 38.5933Z" fill="#38A1FF"/>
<path d="M93.7641 63.7532C93.0841 62.9874 90.3605 61.4078 88.947 59.3717C84.61 53.1227 83.2677 45.6861 83.2485 38.0765C83.2715 38.0657 85.4691 36.5052 87.022 36.434C88.0907 36.4054 89.1493 36.6483 90.0986 37.14C90.065 38.0939 90.1666 39.0477 90.4003 39.9731C91.6254 46.8133 95.0612 54.4781 101.843 55.9582C101.877 55.9675 101.912 55.9701 101.947 55.9658C101.981 55.9615 102.015 55.9505 102.045 55.9333C102.075 55.916 102.102 55.893 102.123 55.8655C102.145 55.838 102.161 55.8065 102.17 55.7729C102.179 55.7393 102.182 55.7041 102.178 55.6695C102.173 55.6348 102.162 55.6014 102.145 55.571C102.128 55.5407 102.105 55.514 102.077 55.4925C102.05 55.4711 102.018 55.4552 101.985 55.4459C98.5285 54.0036 95.7309 51.3295 94.1339 47.9419C91.4363 42.5145 91.5818 38.8636 90.8635 36.895C90.5458 36.0236 88.0189 35.2824 86.8412 35.3482C85.5985 35.4179 82.8488 36.7418 82.7148 37.2013C81.1987 42.4142 82.7271 48.4151 84.6107 53.4413C85.54 55.891 86.7765 58.2129 88.2907 60.3511C89.9876 62.7685 92.457 64.4017 93.467 64.45C93.5481 64.4509 93.6277 64.4278 93.6957 64.3835C93.7637 64.3392 93.8169 64.2757 93.8488 64.201C93.8806 64.1264 93.8895 64.0439 93.8744 63.9642C93.8594 63.8845 93.821 63.811 93.7641 63.7532Z" fill="#38A1FF"/>
<path d="M102.042 56.0409C100.839 57.9008 102.343 60.6673 104.38 61.1168C106.367 61.5555 108.981 60.6413 109.598 58.5669C109.707 58.2017 109.176 57.8502 108.921 58.1741C108.48 58.8176 107.878 59.334 107.175 59.6714C106.472 60.0089 105.693 60.1556 104.915 60.0968C102.903 59.8625 102.49 57.8816 102.618 56.1917C102.643 55.8732 102.196 55.8042 102.042 56.0409Z" fill="#38A1FF"/>
<path d="M133 84.2942C132.719 79.4518 132.254 75.755 130.042 71.0473C127.584 65.8145 123.722 60.6336 118.682 57.6382C116.091 56.0975 113.012 55.2537 110.051 56.1312C109.756 56.2185 109.796 56.7139 110.128 56.6879C117.516 56.1144 123.298 61.9216 126.965 67.7241C130.54 73.3866 131.497 77.6019 131.835 83.5675C131.844 85.3853 131.994 87.1996 132.284 88.9942C132.389 89.4804 133.065 89.3257 133.104 88.8816C133.181 87.352 133.146 85.8188 133 84.2942Z" fill="#38A1FF"/>
<path d="M131.587 88.8096C130.666 89.0427 129.724 89.1808 128.775 89.2216C128.306 89.207 127.724 89.0095 127.211 89.0095C127.031 85.6442 124.73 80.2344 122.694 76.9656C120.466 73.3874 117.475 69.7763 113.719 67.7402C113.453 67.5955 113.154 67.9523 113.387 68.1652L113.429 68.2073C113.385 68.2348 113.349 68.2731 113.324 68.3185C113.299 68.3639 113.285 68.415 113.285 68.4669C113.137 76.8071 115.977 85.1204 120.142 92.1818C120.563 92.8963 121.048 94.1183 121.821 94.4897C121.883 94.5203 121.953 94.5351 122.023 94.5327C122.092 94.5303 122.16 94.5108 122.221 94.476C122.281 94.4411 122.332 94.392 122.369 94.3328C122.406 94.2737 122.428 94.2063 122.433 94.1367C122.403 93.3251 121.662 92.5639 121.256 91.8824C117.373 85.3739 114.058 76.2833 113.927 68.6767C118.609 73.124 122.044 76.5904 124.545 83.1832C125.298 85.1671 125.623 87.22 126.23 89.2323C126.23 89.3344 126.259 89.4344 126.313 89.5211C126.368 89.6077 126.445 89.6777 126.536 89.7231C128.238 90.4031 130.747 90.7301 131.986 89.4835C132.29 89.1802 131.96 88.7484 131.587 88.8096Z" fill="#38A1FF"/>
<path d="M121.242 94.3618C118.515 95.7554 116.918 98.1904 110.886 98.5671C106.751 98.8237 102.436 98.499 98.6109 96.8228C98.6109 96.7968 96.8604 93.9621 95.7777 88.1358C93.1398 73.9862 94.502 69.529 96.326 60.7386C96.3834 60.4644 95.9638 60.2385 95.8397 60.5265C94.692 63.4232 93.945 66.4631 93.6192 69.5619C92.8036 75.8043 93.1591 82.144 94.6674 88.256C95.4136 91.3169 96.4561 94.2979 97.7801 97.1567C101.451 99.9056 106.887 99.9584 111.283 99.6552C113.299 99.5275 115.274 99.0321 117.111 98.1935C118.634 97.489 120.94 96.4155 121.706 94.8174C121.742 94.753 121.757 94.6783 121.746 94.6049C121.736 94.5315 121.702 94.4635 121.649 94.4115C121.596 94.3595 121.528 94.3265 121.454 94.3175C121.381 94.3085 121.306 94.3241 121.242 94.3618Z" fill="#38A1FF"/>
<path d="M76.315 4.53894C76.2101 4.07952 75.5776 4.22653 75.5417 4.64538C75.3449 6.91496 75.8296 9.35758 76.1542 11.6042C76.496 14.0036 76.9648 16.3832 77.5586 18.733C77.6673 19.158 78.2852 18.975 78.2132 18.5523C76.4031 7.90809 77.0294 7.65693 76.315 4.53894Z" fill="#38A1FF"/>
<path d="M84.519 17.5599C88.6424 13.0085 91.3507 10.6731 92.6999 8.98392C92.9388 8.68529 92.6302 8.1378 92.2512 8.40351C89.5237 10.3178 86.0237 14.5292 84.0006 17.1579C83.7717 17.4581 84.2686 17.8363 84.519 17.5599Z" fill="#38A1FF"/>
<path d="M90.0898 18.0255C92.6251 16.9282 95.4498 15.9971 97.7286 14.4128C98.0586 14.1831 97.8695 13.5874 97.4376 13.7237C94.7897 14.579 92.3173 16.2383 89.9091 17.6012C89.6893 17.7291 89.8379 18.1342 90.0898 18.0255Z" fill="#38A1FF"/>
<path d="M68.6636 15.1632C67.4356 13.4578 66.0805 11.8475 64.6099 10.3461C64.5411 10.2845 64.4529 10.2491 64.3606 10.2459C64.2683 10.2427 64.1778 10.272 64.1049 10.3287C64.032 10.3853 63.9813 10.4658 63.9617 10.556C63.942 10.6462 63.9546 10.7405 63.9974 10.8224C65.1116 12.4846 66.351 14.0594 67.7049 15.533C69.0403 17.1533 70.4163 18.7215 71.7908 20.318C72.0458 20.6136 72.5818 20.2093 72.339 19.893C71.1239 18.3103 69.9194 16.7199 68.6636 15.1632Z" fill="#38A1FF"/>
<path d="M66.4747 22.8954C64.2458 21.508 61.7645 20.5751 59.1736 20.1503C58.8321 20.1051 58.8107 20.6182 59.097 20.7215C61.4962 21.4897 63.8344 22.4367 66.0918 23.5547C66.1784 23.5947 66.2768 23.6009 66.3677 23.5722C66.4587 23.5435 66.5356 23.4818 66.5835 23.3994C66.6314 23.3169 66.6468 23.2195 66.6267 23.1263C66.6065 23.0331 66.5524 22.9508 66.4747 22.8954Z" fill="#38A1FF"/>
<path d="M24.8496 146.027C23.7446 145.797 22.9843 146.186 21.949 145.371C20.4283 144.173 18.7575 140.159 17.746 138.709C17.5776 138.468 17.1495 138.606 17.2445 138.922C17.622 140.183 19.7782 145.813 22.4207 146.945C23.0747 147.107 23.7515 147.157 24.4223 147.093C24.8304 147.432 20.5462 148.714 19.7514 148.677C18.7056 148.559 17.6675 148.38 16.6426 148.141C14.5063 146.41 12.605 143.24 11.2987 140.827C11.6517 138.118 12.1647 137.574 11.6816 137.468C11.6308 137.457 11.5779 137.462 11.5298 137.481C11.4818 137.501 11.4407 137.535 11.412 137.578C11.0583 138.103 10.3301 140.269 10.6004 140.674C11.0234 142.39 11.7871 144.003 12.8462 145.417C13.6885 146.545 15.2529 149.28 19.3693 149.721C21.3732 149.937 25.3664 148.597 25.7692 148.158C26.5318 147.325 25.8167 146.226 24.8496 146.027Z" fill="#38A1FF"/>
<path d="M32.0339 37.9884C32.4027 36.4504 33.0236 34.9841 33.8717 33.6491C34.7858 32.3689 35.8212 31.1799 36.9636 30.0985C37.0184 30.0416 37.051 29.967 37.0553 29.8882C37.0597 29.8094 37.0356 29.7316 36.9875 29.669C36.9393 29.6065 36.8703 29.5633 36.7929 29.5474C36.7156 29.5315 36.6351 29.5439 36.5662 29.5824C33.7453 31.1842 32.0485 34.7617 31.3984 37.8054C31.3088 38.2257 31.9344 38.4026 32.0339 37.9884Z" fill="#38A1FF"/>
<path d="M31.1442 31.3121C29.9364 32.5944 29.2142 34.258 29.102 36.0159C29.0561 36.4218 29.6862 36.4118 29.7398 36.0159C30.0424 34.4488 30.6814 32.9659 31.6128 31.6697C31.6475 31.6072 31.6585 31.5342 31.6439 31.4642C31.6293 31.3942 31.5899 31.3318 31.533 31.2884C31.4762 31.245 31.4056 31.2235 31.3342 31.2279C31.2628 31.2322 31.1953 31.2621 31.1442 31.3121Z" fill="#38A1FF"/>
<path d="M105.591 49.0629C106.448 48.9182 106.964 47.9251 106.409 47.7872C106.138 47.7199 106.094 47.9909 105.357 48.2145C105.058 48.2679 104.753 48.2759 104.452 48.2382C104.374 48.2393 104.3 48.2709 104.246 48.3262C104.191 48.3816 104.161 48.4562 104.161 48.5338C104.163 48.8263 104.777 49.2498 105.591 49.0629Z" fill="#191919"/>
<path d="M103.835 52.0653C103.659 52.4221 102.982 54.5837 102.763 55.2866C102.674 55.5684 103.114 55.7629 103.248 55.4987C103.578 54.8471 104.566 52.8341 104.688 52.4665C106.886 53.184 109.14 51.7215 109.372 50.0423C109.412 49.749 109.046 49.406 108.8 49.7084C108.025 50.6625 107.287 51.6066 105.926 51.589C105.304 51.5738 104.702 51.3716 104.197 51.0088C103.693 50.646 103.309 50.1394 103.097 49.5553C102.204 47.3209 102.729 44.6654 103.616 42.5207C103.692 42.3269 103.403 42.2404 103.299 42.3867C101.298 45.1853 100.916 50.308 103.835 52.0653Z" fill="#191919"/>
<path d="M104.729 44.4572C104.882 44.2803 104.684 43.9717 104.466 44.1149C103.794 44.5552 102.858 45.2857 102.858 46.193C102.858 46.8875 103.833 47.628 104.401 46.994C104.445 46.945 104.469 46.8815 104.469 46.8156C104.469 46.7497 104.445 46.6861 104.401 46.6371C104.074 46.2704 103.537 46.3439 103.876 45.7183C104.114 45.2684 104.4 44.8456 104.729 44.4572Z" fill="#191919"/>
<path d="M106.366 43.5383C106.3 43.5094 106.225 43.506 106.156 43.5287C106.087 43.5514 106.029 43.5987 105.993 43.6616C105.849 43.831 105.732 44.0207 105.644 44.2244C105.612 44.3124 105.617 44.4095 105.656 44.4943C105.696 44.5791 105.768 44.6448 105.855 44.6769C106.636 44.8147 106.653 43.6646 106.366 43.5383Z" fill="#191919"/>
<path d="M107.087 44.2328C107.105 44.2909 107.14 44.3426 107.187 44.3817C107.233 44.4209 107.29 44.446 107.35 44.454C107.411 44.462 107.472 44.4527 107.528 44.4271C107.583 44.4015 107.63 44.3606 107.663 44.3094C107.771 44.0852 107.819 43.837 107.803 43.5888C107.787 43.3405 107.707 43.1005 107.572 42.892C107.479 42.6707 107.324 42.4813 107.126 42.3473C106.927 42.2132 106.693 42.1404 106.454 42.1378C106.394 42.1393 106.338 42.1618 106.294 42.2012C106.25 42.2407 106.221 42.2946 106.213 42.3532C106.205 42.4119 106.218 42.4714 106.25 42.5212C106.282 42.5709 106.331 42.6077 106.388 42.6248C106.666 42.706 106.856 43.147 106.93 43.3982C107.004 43.6493 106.98 43.9648 107.087 44.2328Z" fill="#191919"/>
<path d="M108.8 41.4349C108.475 43.2037 109.814 46.1953 111.978 46.0582C110.996 47.413 110.304 48.9559 109.945 50.5905C109.398 52.2852 109.262 54.0856 109.548 55.8433C109.618 56.1833 110.072 56.0554 110.106 55.7667C110.241 54.0505 110.541 52.3512 111.001 50.6923C111.334 49.5958 113.52 46.4618 114.345 43.9119C114.603 42.9757 114.576 41.9838 114.269 41.0627C114.071 40.4507 113.659 39.9306 113.109 39.5976C112.559 39.2647 111.907 39.1414 111.273 39.2503C110.981 38.0519 109.152 37.0588 107.395 37.7648C106.802 36.7257 105.338 36.4945 104.173 36.5396C102.699 36.5986 101.876 37.8674 101.836 39.2656C101.743 42.4716 106.354 42.16 108.8 41.4349Z" fill="#191919"/>
<path d="M83.5393 35.2579C81.7153 35.0618 81.713 32.4484 81.6839 31.0862C81.6533 29.6161 82.0714 28.1972 82.0622 26.7416C82.0601 26.663 82.0327 26.5873 81.9842 26.5255C81.9356 26.4638 81.8684 26.4193 81.7926 26.3988C81.7168 26.3782 81.6364 26.3827 81.5633 26.4115C81.4902 26.4403 81.4283 26.4918 81.3868 26.5586C80.373 28.4346 79.7023 36.6997 83.622 35.8651C83.9941 35.7862 83.8662 35.2931 83.5393 35.2579Z" fill="#191919"/>
<path d="M83.2232 30.8443C83.5295 29.038 84.1773 27.3174 84.4981 25.5325C84.5166 25.4542 84.5068 25.3719 84.4704 25.3001C84.434 25.2284 84.3734 25.1718 84.2993 25.1404C84.2252 25.1091 84.1424 25.1049 84.0655 25.1288C83.9887 25.1526 83.9227 25.2029 83.8794 25.2707C82.9726 26.9566 82.5429 28.858 82.6366 30.77C82.6336 31.0993 83.1658 31.1866 83.2232 30.8443Z" fill="#191919"/>
<path d="M86.168 24.8457C84.8488 26.4872 84.164 28.5483 84.2384 30.6529C84.2391 30.7279 84.2669 30.8001 84.3165 30.8564C84.3661 30.9126 84.4343 30.9492 84.5086 30.9593C84.5829 30.9694 84.6584 30.9525 84.7213 30.9115C84.7842 30.8706 84.8302 30.8084 84.851 30.7363C85.1504 29.7983 85.3671 28.8366 85.6864 27.9032C86.0057 26.9698 86.4215 26.09 86.6703 25.1405C86.6841 25.0773 86.6776 25.0115 86.6518 24.9522C86.6259 24.893 86.5819 24.8435 86.5261 24.8108C86.4704 24.7781 86.4057 24.7638 86.3414 24.7701C86.2771 24.7764 86.2164 24.8028 86.168 24.8457Z" fill="#191919"/>
<path d="M89.9393 25.5256C90.1399 25.2354 89.7563 24.9284 89.4845 25.0708C87.5235 26.0991 86.3887 28.6199 85.9622 30.6766C85.9475 30.7442 85.9594 30.8148 85.9953 30.874C86.0311 30.9331 86.0883 30.9762 86.155 30.9945C86.2218 31.0127 86.2929 31.0047 86.3539 30.9721C86.4149 30.9394 86.4611 30.8846 86.4829 30.819C87.7072 27.6666 88.9967 26.8901 89.9393 25.5256Z" fill="#191919"/>
<path d="M90.2568 29.4905C88.4275 30.0924 87.0944 32.3711 86.6809 34.1614C86.6619 34.2449 86.6769 34.3326 86.7225 34.4051C86.7682 34.4777 86.8408 34.5291 86.9244 34.5481C87.3961 34.6553 87.3294 33.9554 88.9152 31.9446C89.5226 31.312 90.0824 30.6353 90.5899 29.9201C90.6169 29.8694 90.6287 29.812 90.6238 29.7547C90.6189 29.6975 90.5976 29.6429 90.5624 29.5975C90.5272 29.5521 90.4796 29.5178 90.4254 29.4988C90.3712 29.4799 90.3126 29.477 90.2568 29.4905Z" fill="#191919"/>
<path d="M125.863 95.5578C125.742 95.9789 125.765 96.4281 125.928 96.8347C126.09 97.2414 126.384 97.5825 126.761 97.8045C128.321 98.7034 130.686 98.4806 132.369 98.1398C133.984 97.8129 135.343 97.2769 135.343 95.4139C135.193 93.4037 134.319 91.5163 132.883 90.1014C132.798 90.0209 132.686 89.9736 132.569 89.9678C132.452 89.9621 132.337 89.9983 132.244 90.0699C132.151 90.1416 132.087 90.244 132.062 90.3588C132.038 90.4737 132.056 90.5933 132.112 90.6963C132.73 91.8993 133.663 92.8602 134.051 94.1964C134.211 94.7424 134.443 95.7324 134.087 96.2761C133.732 96.8197 132.672 96.9652 132.08 97.0862C130.743 97.3719 129.361 97.3769 128.021 97.1008C126.016 96.6727 127.131 94.9568 127.078 93.5884C127.076 93.5225 127.051 93.4593 127.007 93.4102C126.964 93.361 126.904 93.3289 126.838 93.3197C126.773 93.3106 126.707 93.3248 126.651 93.36C126.595 93.3952 126.554 93.449 126.534 93.5119C126.423 93.7753 126.304 94.0685 126.188 94.3748C124.962 94.5425 125.498 93.1497 125.694 92.6213C125.921 92.0046 126.213 91.4141 126.566 90.8602C126.731 90.6029 126.377 90.3786 126.168 90.5539C125.168 91.3893 124.101 92.8066 124.292 94.2025C124.393 94.9399 125.186 95.6941 125.863 95.5578Z" fill="#191919"/>
<path d="M142.938 135.694C142.9 135.637 135.408 126.056 132.601 121.033C126.316 109.768 123.482 100.129 121.618 96.0617C121.51 95.8258 121.174 96.0019 121.219 96.2294C122.057 100.481 125.326 108.529 127.098 112.499C130.302 119.678 136.193 130.633 141.866 135.471C141.008 136.49 139.868 137.233 138.589 137.606C136.353 135.429 127.187 129.465 116.17 112.038C114.107 108.775 112.341 105.4 110.37 102.122C110.242 101.909 109.853 102.049 109.945 102.296C112.031 107.982 115.667 113.501 119.198 118.538C119.086 118.85 118.56 121.164 118.56 121.164C115.428 121.104 112.306 120.792 109.224 120.231C106.134 119.637 103.121 118.699 100.241 117.434C96.8401 116.021 96.6074 115.101 96.7659 108.968C96.9141 105.449 97.3987 101.953 98.2131 98.5265C98.2238 98.4876 98.2268 98.4469 98.2219 98.4069C98.2169 98.3668 98.2041 98.3281 98.1842 98.293C98.1643 98.2578 98.1377 98.227 98.1058 98.2022C98.074 98.1773 98.0376 98.159 97.9987 98.1483C97.9598 98.1375 97.9191 98.1345 97.879 98.1395C97.839 98.1444 97.8003 98.1572 97.7651 98.1771C97.73 98.197 97.6992 98.2236 97.6743 98.2555C97.6495 98.2873 97.6312 98.3237 97.6204 98.3626C96.3673 102.033 95.7054 105.88 95.6594 109.758C95.5966 114.176 95.5913 116.496 98.7001 117.964C104.361 120.636 112.713 122.699 118.776 121.899C119.368 125.015 119.585 128.19 119.423 131.357C119.428 131.459 119.461 131.558 119.52 131.642C119.578 131.726 119.66 131.791 119.754 131.83C119.849 131.869 119.952 131.88 120.053 131.862C120.154 131.844 120.247 131.798 120.322 131.729C122.227 129.628 123.315 126.914 123.391 124.08C129.309 131.413 136.045 137.23 138.037 138.423C138.037 138.435 137.57 143.663 134.448 144.661C134.165 144.717 133.896 144.83 133.658 144.993C133.419 145.156 133.217 145.366 133.062 145.61C132.356 146.998 140.438 146.72 140.464 146.707C141.282 146.297 143.967 137.221 142.938 135.694Z" fill="#191919"/>
<path d="M107.763 100.949C107.289 104.367 106.484 107.731 105.362 110.993C105.326 111.133 105.347 111.281 105.418 111.406C105.489 111.531 105.606 111.624 105.744 111.665C109.045 112.674 112.118 114.331 115.392 115.355C115.713 115.456 115.845 115.024 115.605 114.848C113.507 113.309 108.844 111.479 106.564 110.772C107.506 107.598 108.082 104.326 108.281 101.021C108.299 100.726 107.803 100.65 107.763 100.949Z" fill="#191919"/>
<path d="M76.3782 26.1887C76.3246 26.1382 76.256 26.1063 76.1828 26.0979C76.1096 26.0895 76.0356 26.1049 75.9718 26.1419C75.9081 26.1789 75.858 26.2355 75.829 26.3032C75.8 26.371 75.7936 26.4463 75.8109 26.518C76.1554 27.8886 77.1309 29.0632 76.9992 31.662C76.9135 33.4173 76.3233 35.1106 75.2994 36.5389C75.0758 36.8452 75.5811 37.2395 75.8285 36.947C77.111 35.5306 77.9002 33.7368 78.0781 31.8343C78.2229 29.9981 77.8224 27.4843 76.3782 26.1887Z" fill="#191919"/>
<path d="M75.1725 30.6529C75.1853 30.7281 75.2243 30.7963 75.2826 30.8455C75.3409 30.8947 75.4147 30.9217 75.491 30.9217C75.5673 30.9217 75.6411 30.8947 75.6994 30.8455C75.7577 30.7963 75.7967 30.7281 75.8095 30.6529C75.9037 28.6153 75.5308 25.8978 73.8952 24.4399C73.8454 24.3933 73.7819 24.364 73.7141 24.3564C73.6463 24.3489 73.5779 24.3633 73.519 24.3977C73.4601 24.4321 73.4138 24.4846 73.3871 24.5474C73.3604 24.6101 73.3547 24.6798 73.3707 24.7461C73.8118 26.2186 74.8914 27.4215 75.1725 30.6529Z" fill="#191919"/>
<path d="M73.3914 30.0946C73.4374 30.5196 74.0905 30.5487 74.0859 30.0946C74.0645 28.0479 73.5101 24.946 71.5805 23.8158C71.5241 23.7844 71.4598 23.7702 71.3954 23.7749C71.331 23.7797 71.2694 23.8031 71.2182 23.8424C71.167 23.8818 71.1284 23.9352 71.1072 23.9962C71.086 24.0572 71.0831 24.123 71.0989 24.1856C71.6203 25.5769 73.0224 26.6972 73.3914 30.0946Z" fill="#191919"/>
<path d="M70.844 27.6038C71.9291 30.7753 71.233 31.708 71.8341 31.7064C71.9078 31.7064 71.9785 31.6772 72.0306 31.625C72.0828 31.5729 72.1121 31.5022 72.1121 31.4285C72.2686 30.0563 72.1464 28.6665 71.7529 27.3426C71.4639 26.0595 70.823 24.8822 69.9022 23.9429C69.6396 23.7277 69.0791 23.9214 69.2414 24.3257C69.6993 25.4674 70.4405 26.4268 70.844 27.6038Z" fill="#191919"/>
<path d="M70.5907 35.1369C70.6405 35.3949 71.0548 35.3344 71.0502 35.0748C70.9981 33.0625 70.3901 30.5655 68.5325 29.4629C68.4637 29.4246 68.3842 29.4097 68.3062 29.4207C68.2282 29.4317 68.1559 29.4678 68.1004 29.5236C68.0448 29.5795 68.009 29.6519 67.9984 29.73C67.9878 29.808 68.003 29.8874 68.0417 29.956C68.6757 31.0724 70.0601 32.3665 70.5907 35.1369Z" fill="#191919"/>
<path d="M74.9596 37.5803C74.5972 38.4698 74.3743 39.41 74.2988 40.3675C73.6249 43.4715 72.4653 46.4498 70.863 49.1923C68.7711 52.9443 62.1507 58.7799 62.1507 58.7799C62.1507 58.7799 60.7724 56.1466 60.5657 51.066C64.998 48.6007 68.4711 44.7147 70.425 40.0344C71.0254 38.8081 71.4138 37.4891 71.5736 36.1331C71.5951 35.6783 70.863 35.4401 70.6724 35.8888C70.0169 37.4325 68.9112 43.7979 62.3774 48.6104C58.6979 51.2638 54.3233 52.7843 49.7913 52.9849C49.8488 52.4903 49.7913 51.9895 49.8365 51.4979C49.8817 51.0063 49.9897 50.4588 50.0701 49.9382C54.0809 49.1188 54.5793 42.0513 51.6719 39.0842C51.3856 38.7909 50.9728 39.1607 51.1359 39.4992C52.0992 41.5375 52.8588 43.4526 52.4476 45.7604C52.3373 46.9215 51.7792 47.9939 50.8917 48.7505C50.3499 49.0867 49.7097 49.2278 49.0768 49.1505C48.4439 49.0733 47.8564 48.7822 47.4115 48.3256C47.2193 48.1456 46.8694 48.383 47.0286 48.6188C47.2877 49.0417 47.6506 49.3914 48.0827 49.6346C48.5149 49.8779 49.0021 50.0066 49.4981 50.0086C49.1199 50.9658 49.0456 52.0162 49.2852 53.0171C48.4308 53.0439 47.5755 53.0163 46.7247 52.9344C46.3004 52.89 41.7039 53.2529 39.6303 54.5615C38.5675 54.4321 35.4909 55.6665 34.6325 56.093C32.02 57.3873 29.6308 59.0902 27.555 61.1375C27.1277 61.5609 26.4217 62.0985 26.4608 62.7761C26.5973 63.3735 26.9548 63.8971 27.4616 64.2417C25.2808 66.169 23.6384 69.176 24.1231 72.0742C24.7035 75.5436 27.7878 78.5537 30.81 80.1318C30.8856 80.1732 30.9735 80.1862 31.0579 80.1685C31.1422 80.1508 31.2175 80.1036 31.27 80.0353C31.3226 79.967 31.3491 79.8822 31.3446 79.7961C31.3401 79.7101 31.3051 79.6284 31.2457 79.5659C29.0298 77.2267 26.1047 75.6662 25.2961 72.2863C24.5511 69.1752 26.5006 67.0978 28.0987 64.7823C28.8991 65.62 29.7859 66.3707 30.7442 67.022C30.8112 67.0584 30.8882 67.0721 30.9637 67.061C31.0391 67.05 31.109 67.0148 31.1628 66.9608C31.2165 66.9067 31.2514 66.8367 31.2621 66.7612C31.2727 66.6857 31.2587 66.6088 31.222 66.5419C30.8032 65.8007 27.6285 62.806 27.7035 62.4936C27.8261 61.9813 30.7296 59.6405 31.4372 59.1244C33.5478 57.5891 35.8688 56.3661 38.3286 55.4934C36.4111 57.0086 34.8876 58.9642 33.8875 61.1942C32.6501 63.9829 32.4004 67.0641 32.3055 70.0818C31.7649 87.2338 30.0581 85.9275 28.7273 90.1657C28.7036 90.2224 27.2403 96.3404 27.0274 97.2302C23.9033 107.792 21.8971 114.628 16.8626 125.742C14.2515 131.504 12.9283 133.671 11.7499 136.391C11.5653 136.816 12.3387 137.942 14.544 138.573C15.1818 138.756 17.1765 138.573 17.7485 137.855C18.3205 137.137 21.061 133.511 22.6246 131.37C24.5388 128.755 35.2175 112.409 37.9235 106.472C39.3018 103.449 41.1671 96.9921 41.5354 96.7715C41.6755 96.6881 41.8547 96.8481 41.9037 97.0013C41.9527 97.1544 41.1732 100.486 40.8241 101.991C40.6104 102.91 40.308 104.965 40.6112 105.365C41.2966 106.174 42.0365 106.935 42.8256 107.642C41.1797 108.242 39.5908 108.988 38.0782 109.871C36.265 111.189 34.8086 113.777 33.6776 115.675C33.2772 116.346 31.3851 120.039 31.0689 120.774C31.0215 120.857 30.994 120.949 30.9887 121.045C30.9833 121.14 31.0002 121.235 31.0379 121.322C31.0757 121.409 31.1333 121.487 31.2062 121.548C31.2791 121.609 31.3652 121.653 31.4578 121.675C34.3767 121.516 37.3753 120.539 40.1525 119.684C43.2007 118.755 46.1764 117.604 49.0555 116.238C51.5471 115.048 54.3144 113.631 55.9975 111.366C58.1859 108.419 51.4851 90.093 49.0088 89.6542C48.7959 89.6167 45.8012 93.0731 33.8545 91.2523C32.4762 91.0417 31.379 90.145 30.0528 89.7545C31.967 87.0493 32.379 83.5117 32.7619 80.3309C33.9104 70.8008 32.2259 63.7578 37.0054 58.2684C39.424 55.5184 42.8038 53.7991 46.4505 53.4635C46.5309 53.4635 50.2393 55.4903 59.9371 51.4145C59.8467 53.0219 59.9622 54.6343 60.2809 56.2124C60.4593 57.0869 61.4202 60.2967 61.9195 60.8404C58.5657 63.6368 56.4247 64.2861 54.3864 65.4278C54.3052 65.516 54.2468 65.6227 54.2164 65.7387C53.7516 68.5642 49.6405 85.5944 49.2875 87.354C49.2639 87.4784 49.2881 87.6071 49.3551 87.7145C49.4221 87.8219 49.5272 87.9002 49.6493 87.9336C49.7714 87.9671 49.9016 87.9534 50.014 87.8953C50.1265 87.8371 50.2129 87.7387 50.2561 87.6197C50.9215 85.8425 54.8351 67.6637 54.7179 65.9868C57.8122 65.4508 60.6714 63.2853 62.7288 61.0379C62.882 60.8687 62.5673 59.8289 62.3843 59.3917C62.4608 59.4506 69.4181 53.6664 71.7 49.8968C72.8257 48.0352 73.7469 46.0574 74.4473 43.9977C74.7988 42.9671 75.9236 38.676 75.6411 37.6997C75.6218 37.6299 75.5831 37.5669 75.5295 37.5182C75.4758 37.4695 75.4095 37.437 75.3381 37.4245C75.2668 37.412 75.1933 37.42 75.1263 37.4476C75.0593 37.4751 75.0015 37.5212 74.9596 37.5803Z" fill="#191919"/>
<path d="M50.5365 44.9725C50.9882 45.2987 52.2103 45.8217 52.3619 44.8959C52.4285 44.4893 51.5235 42.7121 51.2317 42.2733C51.097 42.072 50.7087 42.1968 50.8067 42.4502C51.0143 42.9862 51.5058 44.5299 51.4959 44.5452C51.4859 44.5605 51.0525 44.3576 50.8228 44.2864C50.3925 44.1509 50.2103 44.7374 50.5365 44.9725Z" fill="#191919"/>
<path d="M48.9085 43.2106C49.0192 42.8652 49.0192 42.4939 48.9085 42.1485C48.8854 42.0739 48.839 42.0087 48.7761 41.9624C48.7132 41.916 48.6371 41.891 48.559 41.891C48.4809 41.891 48.4048 41.916 48.3419 41.9624C48.279 42.0087 48.2326 42.0739 48.2095 42.1485C48.0988 42.4939 48.0988 42.8652 48.2095 43.2106C48.2453 43.2714 48.2964 43.3218 48.3577 43.3568C48.419 43.3918 48.4884 43.4102 48.559 43.4102C48.6296 43.4102 48.699 43.3918 48.7603 43.3568C48.8216 43.3218 48.8727 43.2714 48.9085 43.2106Z" fill="#191919"/>
<path d="M47.6656 41.7235C48.1786 40.8131 48.854 40.8208 49.2169 40.457C49.252 40.421 49.2771 40.3765 49.2898 40.3279C49.3025 40.2793 49.3025 40.2282 49.2896 40.1796C49.2767 40.1311 49.2515 40.0866 49.2163 40.0507C49.1812 40.0148 49.1373 39.9886 49.0891 39.9746C48.1909 39.7901 47.4673 40.8215 47.1901 41.526C47.0875 41.7863 47.5301 41.9655 47.6656 41.7235Z" fill="#191919"/>
<path d="M47.3829 45.3354C47.8852 47.1877 49.742 48.0484 50.6318 47.4289C50.6887 47.3926 50.734 47.3409 50.7626 47.2797C50.7911 47.2186 50.8017 47.1506 50.793 47.0837C50.7843 47.0168 50.7568 46.9537 50.7136 46.9019C50.6704 46.8501 50.6134 46.8116 50.5491 46.791C49.9882 46.7583 49.441 46.6047 48.9449 46.3408C48.509 45.971 48.1091 45.5608 47.7504 45.1157C47.7213 45.0669 47.674 45.0318 47.6189 45.0179C47.5638 45.004 47.5055 45.0126 47.4568 45.0418C47.408 45.0709 47.3729 45.1182 47.359 45.1733C47.3452 45.2284 47.3537 45.2867 47.3829 45.3354Z" fill="#191919"/>
</svg>
