<svg width="155" height="156" viewBox="0 0 155 156" fill="none" xmlns="http://www.w3.org/2000/svg">
<path d="M15.7271 65.8787C23.4472 68.5884 58.6044 58.4288 60.8586 53.4648C63.1129 50.6856 53.1849 51.9208 43.7818 55.0088C34.1549 23.3797 2.71104 44.2161 15.7271 65.8787Z" fill="#3D9CFB"/>
<path d="M106.145 108.378C103.512 106.726 104.037 101.229 101.706 103.939C97.6452 107.629 105.767 119.062 96.4408 118.306C87.4855 114.847 97.043 107.328 94.8968 98.7509C92.9977 88.6221 79.8041 86.8311 81.2786 77.9067C82.3131 71.6843 73.0104 80.8403 74.2147 84.7544C74.2147 91.1466 77.2179 92.652 76.8473 97.6855C76.469 103.483 69.0191 103.554 68.417 98.7439C68.1159 95.957 69.3974 93.1777 66.7649 90.1669C65.8616 89.117 65.1128 89.8651 64.9584 90.6911C64.7345 92.1965 63.8312 93.7791 61.2759 95.1301C51.7957 100.534 53.0772 105.938 53.7488 115.588C52.9228 119.58 48.5609 119.804 49.6109 115.967C50.9773 110.98 46.3453 108.371 46.9783 111.335C47.2099 116.979 43.072 117.349 43.2187 124.575C43.2187 128.635 45.6273 136.61 52.6217 142.624C54.0499 142.624 55.4781 142.701 56.9835 142.701C53.9804 140.895 53.6022 138.718 54.9532 135.854C53.1467 134.425 49.5491 133.221 49.9892 130.967C51.7957 128.489 53.0772 123.672 56.3119 122.614C56.9141 118.932 57.5857 119.309 55.177 117.65C56.3119 115.998 57.2074 111.636 56.8369 109.984C59.4694 110.432 59.6933 110.656 59.3922 114.871C62.1081 114.974 64.8117 114.445 67.2898 113.327C65.8616 109.567 71.3506 104.379 75.2647 105.876C76.8087 106.857 76.5462 112.724 77.6733 113.705C80.1515 112.647 82.4135 113.404 79.4798 116.114L80.908 117.658C82.8612 116.153 84.8916 116.306 83.0851 119.317L84.8916 120.969C86.2426 119.912 89.4078 118.784 87.6013 122.251L89.4773 123.448C90.7589 122.174 93.2447 121.132 92.5653 124.351C92.5653 124.351 99.8608 126.011 103.25 126.837C108.585 122.622 111.896 139.853 104.794 140.679C101.181 141.582 97.7224 138.046 93.7388 142.632L108.33 142.485C117.355 133.352 119.23 118.229 106.145 108.378Z" fill="#3D9CFB"/>
<path d="M54.9914 131.916L55.1458 133.878L56.9523 132.897L58.3805 133.276V131.769H59.9554L59.4305 130.265L60.9359 129.963L60.0326 128.458L61.0826 127.177L59.0522 127.03L58.6044 125.223L57.3229 126.281L55.6708 125L55.5164 126.953H53.6404L54.2426 128.458L52.5828 129.137L53.8643 130.188L52.8838 131.916H54.9914Z" fill="#3D9CFB"/>
<path d="M23.7017 73.2509C21.3857 77.0105 23.3234 83.1797 27.2375 84.5307C30.8428 85.8122 36.0384 84.7623 39.3503 81.8981C42.3534 79.2656 41.1491 72.5723 38.2926 70.318C34.7568 67.5311 26.0332 69.4148 23.7017 73.2516V73.2509ZM25.2457 74.378C26.7511 72.062 33.9694 69.7923 36.903 71.5911C33.8922 74.378 29.6076 78.895 26.7511 81.9753C24.6822 80.6938 23.8484 76.1081 25.2071 74.3788H25.2457V74.378Z" fill="#001434"/>
<path d="M45.5883 93.7093C48.6763 93.6321 53.6403 85.8117 45.8122 86.5605C37.0113 86.5065 42.1297 93.03 45.5883 93.7093Z" fill="#001434"/>
<path d="M35.3593 67.8315C35.4811 67.8664 35.6096 67.8709 35.7335 67.8444C35.8574 67.818 35.9729 67.7615 36.0698 67.6798C36.1667 67.5982 36.242 67.494 36.2891 67.3764C36.3362 67.2588 36.3536 67.1314 36.3398 67.0054C36.3398 64.7512 29.1138 66.1022 26.0335 67.6848C24.5281 68.4568 24.4895 69.5608 25.4313 69.5608C26.3732 69.5608 31.2291 67.3142 35.3593 67.8315Z" fill="#001434"/>
<path d="M69.5825 116.801C69.9717 116.959 70.408 116.958 70.7958 116.795C71.1836 116.633 71.4913 116.324 71.6515 115.935C71.7711 115.645 71.8018 115.326 71.7396 115.019C71.6775 114.712 71.5253 114.43 71.3025 114.209C71.1548 114.062 70.9796 113.946 70.7868 113.867C68.7565 113.041 67.7837 115.975 69.5825 116.801Z" fill="#001434"/>
<path d="M52.0579 141.629C50.2514 141.475 49.2014 141.173 47.5493 142.401C45.8123 144.13 44.9168 147.519 46.4917 147.365C48.0666 147.211 47.3177 144.81 48.6765 143.906C49.5025 143.134 51.309 143.528 52.5828 143.528C53.8567 143.528 54.3121 141.776 52.0579 141.629Z" fill="#001434"/>
<path d="M53.9414 64.5203C55.2152 64.2964 57.3228 62.6443 61.538 62.5671C62.9662 62.5671 62.6651 60.8378 61.1597 60.7606C59.1293 60.6911 55.2152 61.5326 53.5631 62.5671C52.5827 63.1693 52.8838 64.6747 53.9414 64.5203Z" fill="#001434"/>
<path d="M108.322 65.1997C107.493 65.0831 106.647 65.1506 105.847 65.3974C105.046 65.6443 104.31 66.0644 103.69 66.6279C102.432 67.8554 103.32 69.5616 104.146 68.6583C104.777 68.0541 105.54 67.6045 106.375 67.3446C107.209 67.0848 108.092 67.0218 108.955 67.1606C110.129 67.3845 109.982 65.4236 108.322 65.1997Z" fill="#001434"/>
<path d="M150.218 77.4588C148.494 75.6758 146.517 74.1566 144.35 72.9503C145.559 70.0217 145.974 66.8264 145.555 63.6862C145.728 63.3376 145.783 62.9415 145.709 62.559C146.089 62.2822 146.376 61.896 146.531 61.452C146.686 61.008 146.702 60.5273 146.577 60.074C146.494 59.7732 146.351 59.4923 146.158 59.2479C146.312 58.8372 146.312 58.384 146.158 57.9741C146.984 56.7698 146.158 55.2644 145.185 54.3611C145.485 53.6183 145.485 52.7879 145.185 52.0451C146.837 50.7635 146.312 47.9071 144.652 47.0039C144.502 46.7619 144.326 46.5367 144.127 46.3322C144.323 45.8931 144.378 45.4039 144.284 44.9323C144.19 44.4607 143.952 44.0299 143.602 43.6997C143.591 43.2309 143.462 42.7725 143.225 42.3675C142.989 41.9624 142.654 41.6239 142.251 41.3837C142.246 40.5856 142.029 39.8032 141.622 39.1168C141.215 38.4303 140.633 37.8645 139.935 37.4773C139.966 36.6336 139.757 35.7984 139.332 35.0686C140.305 35.3697 142.189 35.9719 142.567 34.6209C145.199 34.6904 145.656 31.4556 143.695 30.2513C144.143 28.5992 143.015 26.5688 141.208 26.3913C141.063 25.9006 140.78 25.462 140.392 25.128C140.004 24.794 139.529 24.5786 139.022 24.5076C138.515 24.4363 137.999 24.5119 137.534 24.7254C137.069 24.9389 136.675 25.2813 136.399 25.7119C135.905 25.4481 135.358 25.2974 134.799 25.2707C134.239 25.244 133.681 25.3419 133.164 25.5575C133.036 24.9749 132.747 24.4399 132.33 24.0135C134.368 23.6352 136.399 21.9059 136.021 19.6517C137.974 18.3701 138.731 15.2126 136.546 13.7072C137.527 10.6964 133.535 7.61606 131.736 10.7736C130.077 10.4725 128.502 11.9779 128.27 13.5528C127.784 13.3284 127.242 13.2528 126.714 13.3357C126.185 13.4185 125.692 13.656 125.298 14.0183C124.904 14.3808 124.626 14.852 124.499 15.3724C124.373 15.8928 124.404 16.439 124.588 16.9419C124.222 17.1598 123.92 17.4684 123.709 17.8376C123.498 18.2068 123.386 18.6242 123.383 19.0495C122.936 19.1962 122.479 19.3506 122.101 19.4973C122.154 18.9269 122.089 18.3517 121.908 17.8082C121.727 17.2646 121.435 16.7646 121.051 16.3397C121.305 15.9179 121.449 15.4391 121.47 14.9472C121.491 14.4553 121.388 13.9661 121.17 13.5243C120.953 13.0825 120.628 12.7024 120.226 12.4187C119.823 12.1351 119.356 11.9569 118.867 11.9007C118.746 11.2896 118.418 10.7389 117.939 10.341C117.459 9.94318 116.857 9.72245 116.235 9.71592C115.107 7.98662 111.873 8.44211 111.95 10.6964C111.453 11.0195 111.074 11.4952 110.871 12.0522C110.667 12.6091 110.65 13.217 110.822 13.7844C110.432 13.9242 110.098 14.186 109.868 14.5308C109.639 14.8757 109.527 15.2853 109.548 15.699C109.564 15.9738 109.637 16.2425 109.764 16.4864C109.487 16.8786 109.327 17.3408 109.301 17.8202C109.275 18.2995 109.385 18.7764 109.618 19.1962C109.329 19.3537 109.069 19.5571 108.846 19.7983C108.429 19.2916 107.861 18.9309 107.225 18.7685C106.59 18.6061 105.919 18.6504 105.31 18.8951C105.31 18.8951 104.932 19.0495 105.01 18.9723C103.203 17.5441 96.9575 16.9419 98.5401 20.7016C98.2951 21.0784 98.1974 21.5323 98.2658 21.9766C98.3341 22.4209 98.5637 22.8245 98.9107 23.1102C99.003 23.4376 99.1873 23.7316 99.4417 23.9574C99.696 24.1832 100.01 24.3313 100.346 24.3841C100.447 24.8829 100.661 25.3516 100.974 25.7534C101.286 26.1552 101.687 26.4793 102.145 26.7001C102.058 26.8182 101.983 26.9448 101.922 27.0784C101.363 27.0536 100.808 27.1719 100.308 27.4218C99.8081 27.6717 99.3803 28.0451 99.0651 28.5066C97.2586 27.8349 94.7727 28.4371 94.1011 30.3903C93.2037 30.288 92.3015 30.536 91.5824 31.0825C90.8633 31.629 90.3828 32.4319 90.2411 33.3239C89.8278 33.3044 89.4152 33.3739 89.0311 33.5276C88.647 33.6812 88.3003 33.9156 88.0146 34.2148C87.7291 34.5143 87.5113 34.8715 87.3759 35.2624C87.2404 35.6533 87.1905 36.0688 87.2295 36.4806C85.9479 37.0056 84.8208 38.3643 85.0524 39.7926C84.196 40.2616 83.5268 41.0108 83.1572 41.9146C82.7875 42.8184 82.7398 43.8218 83.022 44.7566C81.285 46.6403 81.7405 48.3696 82.4893 49.0412C81.9644 53.0325 82.3426 57.016 82.3426 61.0073C78.0503 70.4026 87.3839 83.797 97.6902 85.2252C94.6793 89.587 94.5249 94.7749 98.3618 100.573C99.9058 102.889 101.373 101.924 100.678 100.797C97.4431 95.3925 96.5399 91.3171 98.4236 87.6346C99.7537 89.3786 101.312 90.9365 103.056 92.2667C104.26 93.0927 106.066 92.4898 104.6 91.2082C102.731 89.644 101.041 87.8786 99.5592 85.9439C100.965 84.0757 102.668 82.4507 104.6 81.1335C105.877 83.2902 107.502 85.2205 109.41 86.8464C110.545 87.6724 112.42 87.078 110.915 85.7193C109.107 84.1003 107.547 82.2252 106.283 80.1539C112.528 76.9964 117.569 80.3075 119.407 81.4346C121.584 82.7856 125.421 78.7249 127.977 81.4346C133.775 87.3791 116.397 99.3382 108.044 104.001C106.77 104.681 107.217 106.108 109.703 105.205C116.095 102.943 127.374 93.6246 130.161 88.2206C131.589 89.4249 142.721 101.159 145.601 99.654C146.203 97.9247 139.364 94.4592 137.032 91.6027C135.149 89.6496 132.4 88.0669 131.087 86.1987C131.272 85.4591 131.348 84.6971 131.312 83.9359C137.032 82.06 141.24 78.6708 143.664 74.3862C147.277 76.1927 148.18 77.5437 149.686 78.748C151.052 80.2457 150.82 78.0146 150.218 77.4588ZM142.32 73.0197C140.521 76.9338 136.917 80.3229 130.818 82.3533C129.011 78.1382 124.27 78.4933 120.511 80.1685C118.076 78.3238 115.133 77.2726 112.08 77.1577C112.984 74.9806 112.467 70.3949 108.777 70.3177C107.719 70.3177 107.943 68.8663 107.117 69.0362C106.137 69.2369 106.815 70.5802 105.989 70.8427C103.357 71.6147 104.337 77.1577 106.761 78.061C103.83 79.2999 101.229 81.2062 99.1655 83.6279C89.7624 82.7246 80.8843 71.2217 83.9646 62.4209C87.2765 64.899 94.3474 64.5979 97.5049 62.5675C97.9604 63.8491 98.4861 65.3545 99.4665 65.5784C100.447 65.8022 100.663 64.9762 100.069 64.1502C99.4743 63.3241 97.8832 60.6144 100.292 58.5068C102.168 56.8547 105.781 58.8079 107.24 58.9545C108.143 59.1089 108.969 58.059 107.919 57.3024C106.19 56.0981 101.743 54.8938 99.4272 56.8547C99.0489 49.7831 88.8206 48.2005 84.3043 52.4928C84.3313 51.4321 84.4325 50.3745 84.6054 49.3276C88.2956 47.5211 93.7992 48.1696 95.2892 48.8798C95.4529 48.9582 95.6365 48.9848 95.8157 48.9561C95.9949 48.9274 96.161 48.8448 96.292 48.7193C96.3785 48.6351 96.4472 48.5348 96.4935 48.4236C96.5707 45.5672 88.8206 46.0227 84.9837 47.1498C85.663 45.1889 86.2644 42.1086 88.2948 40.6804C88.3743 40.9929 88.5454 41.2746 88.7861 41.4892C89.0268 41.7038 89.3262 41.8415 89.6458 41.8847C91.1899 45.2661 96.9413 44.2856 96.4935 40.2249C96.9184 39.9195 97.2728 39.5264 97.5326 39.0722C97.7925 38.6181 97.9518 38.1134 97.9997 37.5923C98.5758 37.1444 98.975 36.5073 99.1269 35.7936C100.671 34.5892 100.408 35.6392 100.933 36.7663C100.161 37.8239 100.161 39.476 101.536 40.001C99.729 41.9542 103.264 44.8183 104.692 42.9346C105.328 43.0343 105.977 42.8877 106.508 42.5247C107.039 42.1617 107.412 41.6097 107.549 40.9814C108.271 40.7363 108.888 40.2524 109.298 39.6096C109.707 38.9668 109.886 38.2034 109.803 37.4457C110.7 36.9555 111.414 36.1893 111.841 35.2609C112.285 35.0401 112.774 34.9252 113.27 34.9252C113.765 34.9252 114.254 35.0401 114.698 35.2609C114.596 35.5636 114.57 35.8867 114.623 36.2018C114.675 36.5168 114.805 36.8141 114.999 37.0674C114.769 37.4983 114.654 37.9815 114.666 38.4699C114.678 38.9583 114.817 39.4353 115.068 39.8543C113.524 42.4869 116.953 45.1889 119.284 43.3901C119.929 43.4177 120.564 43.2333 121.094 42.8653C121.624 42.4972 122.019 41.9657 122.218 41.352C123.084 41.3787 123.935 41.1217 124.642 40.6199C125.348 40.1182 125.871 39.3994 126.132 38.5728C127.938 38.5728 129.992 36.9902 131.242 39.1749C130.96 39.6225 130.852 40.1585 130.941 40.6804C130.56 40.9046 130.244 41.2223 130.021 41.6034C129.798 41.9844 129.676 42.4161 129.667 42.8574C127.56 43.8379 127.707 47.1498 130.192 47.227C130.64 48.6552 132.748 48.578 133.427 47.3737C134.108 47.5095 134.814 47.4301 135.447 47.1465C136.081 46.8629 136.61 46.3892 136.962 45.791C137.464 45.9539 138.004 45.9539 138.506 45.791C138.847 46.4102 138.977 47.1228 138.878 47.8214C138.304 47.7352 137.718 47.8443 137.213 48.1314C136.709 48.4184 136.316 48.8666 136.098 49.404C135.572 49.4597 135.085 49.7039 134.726 50.0914C134.367 50.479 134.16 50.9836 134.145 51.5116C132.038 52.8626 134.515 56.1437 136.399 54.3681C136.779 54.5734 137.205 54.6809 137.638 54.6809C138.071 54.6809 138.497 54.5734 138.878 54.3681C139.155 54.5147 139.466 54.5919 139.781 54.5919C139.009 55.0474 137.981 55.5724 137.981 56.6223C135.573 58.0582 137.379 62.3429 140.012 60.4823C145.786 61.293 144.057 69.0362 142.32 73.0197ZM85.2307 54.2214C89.0908 49.929 99.2195 52.191 97.4902 59.1854C93.5066 57.4561 88.3882 55.4257 85.2307 54.2214Z" fill="#001434"/>
<path d="M50.9309 81.7516C52.583 82.1221 52.9612 76.7876 50.5526 75.0583C48.1439 73.329 43.0332 74.3789 43.6045 76.1082C44.1295 77.5364 47.5186 75.1277 49.3946 76.556C51.2705 77.9842 49.2016 81.3733 50.9309 81.7516Z" fill="#001434"/>
<path d="M113.517 48.8015C115.17 47.7515 120.736 46.9178 124.796 49.1025C124.941 49.1898 125.115 49.2168 125.28 49.1777C125.444 49.1386 125.587 49.0365 125.677 48.8933C125.737 48.7986 125.771 48.6901 125.777 48.5783C126.155 45.7219 114.722 44.5176 112.236 47.2273C112.099 47.3597 112.002 47.5276 111.956 47.7122C111.91 47.8968 111.917 48.0907 111.975 48.2717C112.033 48.4528 112.141 48.6139 112.287 48.7367C112.432 48.8596 112.609 48.9392 112.797 48.9667C113.05 49.0037 113.307 48.945 113.517 48.8015Z" fill="#001434"/>
<path d="M143.155 79.1187C142.097 81.2262 135.929 86.1902 136.384 87.7651C136.84 89.34 143.378 82.9555 144.652 80.0451C145.185 78.8948 144.205 77.0111 143.155 79.1187Z" fill="#001434"/>
<path d="M125.553 51.4346C119.307 47.7521 110.051 51.3574 109.904 57.3019C109.897 58.4413 110.135 59.5689 110.603 60.608C111.07 61.6471 111.756 62.5733 112.614 63.3235C115.092 65.1995 124.495 64.7518 126.981 62.4203C130.138 59.5561 129.312 53.5422 125.553 51.4346ZM126.68 59.7877C122.465 58.1279 116.15 56.0975 112.614 54.9704C116.296 49.1804 129.914 51.7666 126.68 59.7877Z" fill="#001434"/>
<path d="M115.695 142.755C114.923 141.929 112.313 141.474 108.924 141.775C107.195 141.929 107.048 143.559 108.253 143.505C114.112 143.25 114.791 143.882 115.849 146.739C116.297 147.866 117.957 147.117 117.578 146.059C117.156 144.853 116.518 143.733 115.695 142.755Z" fill="#001434"/>
<path d="M34.2322 106.872C34.155 106.347 33.7072 105.065 34.3094 105.143C42.9558 105.444 50.6605 104.108 51.6795 102.433C52.2277 101.545 51.0079 101.661 50.5524 101.831C44.0521 103.853 37.9146 103.413 34.0083 103.259C32.0474 97.1677 26.1801 98.5265 20.9922 101.159C14.2989 100.557 10.5393 94.8363 11.5892 88.2897C12.6391 81.743 19.8651 86.5604 19.3093 78.7399C18.3288 63.624 23.4472 67.0054 35.3284 65.0522C46.9085 63.3924 55.6399 60.9143 61.2833 57.8263C62.6193 60.009 63.8232 62.2699 64.8886 64.5968C42.5004 62.0414 53.1541 91.0766 68.8026 75.4049C71.8907 79.1645 71.0569 84.2829 69.7831 86.6144C68.8799 88.197 69.3276 89.1003 69.9298 88.8687C70.5319 88.6371 71.8135 86.7688 72.184 85.5645C73.7281 80.9324 71.5896 75.4049 69.4048 73.0734C68.2005 67.7311 65.869 61.0378 62.8582 56.7532C73.5505 49.5581 66.394 45.2657 53.5941 47.7284C49.0779 35.1678 35.9923 27.4169 24.4817 33.8863C23.4318 32.682 22.8296 32.0798 21.4709 32.3037C18.8383 32.7592 15.3797 35.0134 14.4765 35.7623C14.1057 36.1144 13.8661 36.5825 13.7973 37.0892C13.7285 37.596 13.8347 38.111 14.0982 38.5492C3.72243 45.8447 6.43218 58.8607 9.28861 66.4573C5.29733 72.9267 -0.94049 92.7055 10.4929 95.7164C10.8442 96.6801 11.3247 97.5916 11.9212 98.4261C10.3771 98.3489 7.18103 97.2218 6.65606 97.9011C6.35498 98.2717 6.80274 98.8739 7.33543 99.0283C11.2418 100.078 15.0015 101.205 18.6917 102.263C11.1646 107.605 9.28861 117.834 11.6201 127.237C5.59841 123.323 4.77236 123.377 4.672 124.003C4.672 124.775 4.60252 125.956 13.1641 130.094C21.0617 133.854 32.0397 135.058 35.1972 121.069C40.5395 121.594 42.346 119.039 42.8709 116.7C43.8591 112.438 41.1493 109.427 34.2322 106.872ZM67.1814 72.0466C63.4912 70.9195 58.8283 69.638 55.2925 68.7347C57.7012 66.2566 63.1129 65.5772 65.5988 66.7043L67.1814 72.0466ZM65.8227 50.994C65.4521 52.345 58.7511 61.8947 23.177 64.5273C33.9851 61.1459 45.8123 55.8808 53.486 49.7897C64.0934 47.7516 66.2782 49.45 65.8227 50.994ZM24.9835 35.8704C35.5137 29.4009 47.8504 36.7736 52.0038 48.5081C44.7855 54.1515 33.9542 59.0383 23.8023 62.3502C17.9042 51.434 18.4369 40.1859 24.9835 35.8626V35.8704ZM15.8815 37.0979C16.4606 35.9398 22.6984 32.543 22.9454 35.0675C18.9619 37.6228 16.6304 38.5261 16.3293 38.5261C16.2061 38.4618 16.0967 38.3738 16.0075 38.2672C15.9183 38.1606 15.8509 38.0374 15.8094 37.9048C15.7678 37.7721 15.7527 37.6326 15.7651 37.4941C15.7775 37.3557 15.8171 37.221 15.8815 37.0979ZM11.2495 44.3161C13.2876 40.8575 17.1168 39.5065 19.7416 39.051C16.5841 44.9955 17.2634 54.0203 21.9264 62.9833C18.3404 64.0967 14.6994 65.0243 11.0179 65.7625C7.30455 54.4449 8.1306 49.7047 11.2109 44.2852L11.2495 44.3161ZM9.82129 93.4389C1.47589 90.0576 8.39308 71.1743 10.8789 67.6385C14.3375 66.8665 14.2603 66.9591 19.371 66.658C16.9624 69.8927 17.1862 74.9339 17.4873 78.6936C17.9042 85.356 7.86811 78.3616 9.78269 93.4081L9.82129 93.4389ZM30.8122 117.958C30.3567 117.734 29.5306 117.958 29.6078 118.491C29.685 119.687 32.3871 120.367 33.5219 120.807C33.172 122.416 32.6141 123.973 31.8621 125.439C29.384 125.215 27.5775 123.98 25.9176 123.709C24.8677 123.54 24.2655 124.759 25.5471 125.508C27.1567 126.383 28.9167 126.946 30.735 127.168C26.7514 131.978 20.9536 131.375 14.0365 128.519C10.9484 119.116 13.2644 107.235 21.8569 102.718C26.9753 100.086 33.0664 99.7076 32.5415 106.177C31.8467 105.97 31.1673 105.712 30.5111 105.405C29.384 105.027 28.6274 106.833 30.9589 107.513C46.8776 112.268 42.0063 122.791 30.7736 117.927L30.8122 117.958Z" fill="#001434"/>
<path d="M109.225 137.336C110.283 133.476 108.553 123.872 103.049 126.057C99.1889 125.231 94.6263 124.513 93.0128 123.872C93.8388 121.464 91.0519 120.414 89.3998 122.444C89.0987 122.298 88.7204 122.143 88.4194 121.996C89.477 119.588 87.2922 117.928 84.9608 119.958C84.6597 119.734 84.2814 119.511 83.9803 119.287C85.5243 117.102 83.0076 114.994 81.0467 116.724L80.5989 116.276C82.7837 113.798 80.375 111.536 77.9664 112.894C76.6154 110.71 77.6653 108.077 76.2371 105.946C73.0024 102.488 66.0775 107.676 66.3785 112.038C65.7026 112.075 65.0467 112.281 64.4698 112.635C63.893 112.99 63.4135 113.482 63.0744 114.068C62.0578 114.272 61.0232 114.373 59.9863 114.369C60.8896 111.667 59.7624 108.502 56.7516 109.737C55.7017 111.767 56.6127 113.767 54.8756 116.886C54.1654 118.152 55.6476 119.14 56.4196 119.665C56.1331 120.502 55.9086 121.358 55.748 122.228C52.4361 123.502 51.4556 127.871 49.4253 130.72C48.3753 133.43 52.2122 134.781 54.1654 136.286C52.0578 140.795 55.5936 143.505 59.7316 143.659C64.6184 143.806 65.2977 141.775 69.5129 141.775C74.3225 142.154 76.8856 145.435 81.093 142.547C85.6092 139.459 87.8635 143.072 92.0015 143.744C94.7807 143.821 95.7611 141.945 97.8687 141.343C101.783 141.173 107.797 143.281 109.225 137.336ZM94.4873 125.756C95.9155 126.057 99.9763 126.883 102.207 127.3C101.435 128.659 94.3098 131.16 93.0282 127.902C93.5898 127.241 94.0789 126.522 94.4873 125.756ZM95.6839 131.021C99.2969 130.797 102.833 129.964 103.883 127.262C105.62 126.428 106.816 128.759 107.349 130.35C100.51 131.725 93.5573 132.456 86.582 132.534C88.578 131.786 90.3971 130.632 91.9243 129.145C92.3517 129.739 92.9174 130.221 93.5724 130.548C94.2274 130.874 94.9521 131.037 95.6839 131.021ZM90.195 123.795C93.9546 120.414 89.5156 127.107 88.844 126.505C88.7668 126.281 88.9289 125.378 90.195 123.795ZM87.1069 120.414C87.933 120.638 84.2428 125.525 83.6406 124.629C83.6483 122.954 85.9875 120.414 87.1147 120.414H87.1069ZM83.8722 120.939C79.6571 125.525 84.4744 128.659 87.7323 123.193C87.9562 123.347 88.2572 123.425 88.5043 123.571C85.4162 127.632 89.4075 130.118 92.3643 125.154L93.0437 125.378C87.4775 133.43 81.7569 132.071 76.4146 132.148C66.1083 131.994 65.9617 125.301 72.8094 118.461C74.3534 120.715 77.8428 118.53 79.5799 117.179L79.9504 117.557C78.2983 119.209 76.3452 121.464 77.7734 123.046C79.5799 124.328 81.9113 122.22 83.2623 120.491L83.8722 120.939ZM82.8918 117.627C83.4167 118.399 79.356 122.591 78.6071 121.919C78.6149 120.723 82.2973 116.793 82.8995 117.627H82.8918ZM79.6571 113.767C81.4636 114.593 74.6699 118.816 74.0909 117.828C73.7049 117.187 78.2366 113.643 79.6648 113.798L79.6571 113.767ZM76.4224 113.165C76.7929 113.528 76.2757 113.373 74.9941 114.438C74.7247 113.708 74.3445 113.023 73.867 112.408C74.1929 112.745 74.5989 112.994 75.0471 113.132C75.4953 113.27 75.9711 113.291 76.4301 113.196L76.4224 113.165ZM75.8202 111.729C74.1681 111.659 72.3616 108.27 75.4419 108.27C75.4921 109.44 75.6133 110.605 75.8048 111.76L75.8202 111.729ZM75.0327 106.873C72.1763 107.097 71.5742 109.961 73.4501 111.991C71.9061 110.447 69.5438 111.088 67.7373 112.292C68.0152 106.688 74.3457 105.228 75.0327 106.873ZM63.9004 115.295C67.4362 114.925 72.2458 109.66 73.7512 115.45C70.4856 118.082 62.6806 126.883 68.2314 131.284C66.5793 131.06 64.9195 130.759 63.2674 130.512C64.8114 129.076 63.6456 124.946 63.6456 123.208C63.5854 122.82 63.4298 122.452 63.1927 122.138C62.9555 121.824 62.6444 121.574 62.2869 121.41C62.8428 119.704 62.9277 117.071 63.8695 115.295H63.9004ZM62.0939 115.527C61.6119 117.179 61.2354 118.86 60.9668 120.561C59.9091 119.889 58.257 120.939 57.2766 121.333C57.7321 119.75 58.4114 118.021 59.3147 115.689C60.234 115.74 61.1561 115.686 62.063 115.527H62.0939ZM56.2266 117.48C56.8288 114.994 58.0331 112.516 57.6549 110.787C60.2102 111.559 57.2766 116.191 56.8829 117.928L56.2266 117.48ZM50.8844 131.847C50.4366 130.342 54.0496 125.756 54.7444 124.397C55.1227 123.494 59.1834 122.298 59.9323 121.842C60.0326 121.813 60.1378 121.805 60.2414 121.818C60.345 121.831 60.4448 121.866 60.5344 121.919C60.4641 122.087 60.3618 122.239 60.2334 122.367C58.6894 122.22 58.3574 124.93 60.1639 124.93C60.4555 124.933 60.7388 124.833 60.9644 124.648C61.1899 124.464 61.3432 124.205 61.3976 123.919C61.4323 123.729 61.4223 123.533 61.3682 123.347L61.816 122.668C62.642 122.668 62.4953 127.563 62.7192 128.01C62.1171 130.566 59.1062 133.414 57.9019 135.607C56.0491 136.734 52.4361 132.974 50.8535 131.847H50.8844ZM105.542 139.776C101.929 141.204 98.247 137.823 95.0818 140.826C94.1862 141.428 93.3525 142.107 91.9243 142.03C87.7168 140.903 85.3854 137.892 80.267 140.98C76.2062 143.759 74.3997 140.154 69.4589 140C64.9426 139.93 64.4948 142.03 59.6775 141.883C57.1222 141.806 53.6636 140.154 55.4701 136.842C59.0059 139.158 60.3569 134.063 62.4645 131.724C77.7348 134.433 91.8007 135.036 107.82 131.724C108.399 134.626 108.322 138.541 105.542 139.776Z" fill="#001434"/>
</svg>
