<svg width="154" height="155" viewBox="0 0 154 155" fill="none" xmlns="http://www.w3.org/2000/svg">
<path d="M25.7773 17.5469C26.6924 18.2475 26.5882 19.2283 26.6633 19.9902C27.177 25.2383 30.9542 24.1954 30.7552 25.3524C30.6931 25.7107 30.5676 26.7406 30.4152 28.0262C30.8065 28.0278 31.1686 28.0614 31.4994 28.1219C31.8769 25.0316 31.8984 25.0484 32.5339 25.0936C38.8984 25.5438 37.7468 20.0438 40.2942 18.7605C41.2644 18.272 41.609 17.2199 41.2843 16.1655C41.2299 15.9879 41.1396 15.8539 41.295 15.6594C42.8356 13.7352 41.5102 12.2153 41.7652 11.1035C42.2345 9.05524 40.6074 9.07668 39.9987 7.96259C39.1105 6.33701 38.2881 7.62645 37.4443 6.61342C36.1618 5.07284 35.2483 6.50546 34.2023 6.00316C32.9305 5.3929 31.6304 5.72292 30.8141 6.86075C30.5898 7.17315 30.3486 7.21603 30.0155 7.2436C28.6847 7.35386 27.6702 8.28801 27.4672 9.58587C27.3424 10.3845 25.1885 10.8615 25.9496 13.236C26.0744 13.6249 26.0675 13.8133 25.6992 14.0683C24.4167 14.9557 24.6801 16.7061 25.7773 17.5453V17.5469ZM27.0599 14.6533C27.9879 14.7168 28.2865 15.0936 28.4749 14.5522C30.6962 8.1632 31.0523 12.2842 33.3463 10.3493C34.1105 9.70456 34.3379 11.4113 36.4688 10.7137C37.0714 10.5162 37.2452 10.566 37.4543 11.1326C39.0331 15.4236 37.8976 15.4626 38.3785 15.919C38.6243 16.1525 38.9328 15.8929 39.2146 15.9098C40.514 15.9887 40.7521 16.8233 40.1779 17.6472C39.5707 18.5185 38.9137 18.0392 38.1947 19.4136C37.1143 21.478 37.1518 21.8554 36.344 22.8378C34.9757 24.5017 31.9481 24.2329 30.1725 23.5431C27.7911 22.6173 27.6763 20.4925 27.4519 18.8907C27.2015 17.1043 26.321 16.8141 26.0821 16.458C25.5844 15.7153 25.8593 14.5706 27.0599 14.6533Z" fill="#191919"/>
<path d="M32.627 20.8263C32.3238 20.8095 31.8223 20.8095 31.8223 20.5055C31.8223 20.079 32.3575 20.4106 33.1714 20.1196C34.9846 19.471 34.4011 18.5086 34.9739 18.7704C35.6791 19.0928 34.4433 20.9282 32.627 20.8263Z" fill="#191919"/>
<path d="M31.2996 12.3469C32.9466 12.5927 33.0285 14.1211 31.8302 13.4396C31.39 13.1892 30.9864 13.1563 30.2628 13.5889C29.4359 14.0835 29.589 12.5445 31.2996 12.3469Z" fill="#191919"/>
<path d="M37.0302 13.8968C36.9322 14.5446 35.7745 13.0645 34.8043 13.6855C34.3158 13.9987 34.0317 13.2253 34.8196 12.8386C35.5914 12.4596 36.8633 12.9987 37.0302 13.8968Z" fill="#191919"/>
<path d="M32.7374 18.7842C32.2367 18.8715 31.8094 18.5591 31.729 18.1227C31.693 17.9266 31.8309 17.1808 31.9158 17.0063C31.9825 16.8684 32.0843 16.7781 32.2428 16.8233C32.5544 16.9113 32.3592 17.1502 32.3178 17.337C32.0904 18.3524 32.497 18.1602 33.0162 18.2903C33.7351 18.471 33.1486 18.7122 32.7374 18.7842Z" fill="#191919"/>
<path d="M36.0079 16.1769C35.9573 17.301 34.9489 16.9985 35.001 16.3201C35.0745 15.3584 36.0393 15.4748 36.0079 16.1769Z" fill="#191919"/>
<path d="M30.0032 15.765C30.1341 14.3316 31.3562 14.9886 30.7689 16.023C30.4795 16.5337 29.8914 16.2765 30.0032 15.765Z" fill="#191919"/>
<path d="M135.576 31.946C135.519 34.0692 134.721 38.2293 134.161 40.0815C133.93 40.2339 133.725 39.9981 133.484 39.887C132.798 39.5723 132.109 39.8204 131.903 40.5141C128.999 50.2385 126.733 60.7355 126.738 60.7171C125.674 65.1949 125.678 65.4308 126.798 65.5763C129.35 65.9078 127.9 61.198 117.056 111.164C110.938 139.358 110.669 145.744 103.789 147.523C106.913 141.199 117.178 93.7854 118.034 89.6208C129.399 34.3258 132.922 33.0179 130.131 26.2913C133.143 27.2331 135.66 28.792 135.576 31.946H135.576Z" fill="#38A1FF"/>
<path d="M115.376 31.1727C87.8695 26.4246 79.0379 23.0854 75.4285 24.7385C77.0448 24.8878 78.6513 25.1957 80.2271 25.6712C81.2332 25.7784 82.4323 25.9422 83.8879 26.08C85.0089 26.1865 93.515 27.9706 97.4055 28.871C107.252 31.1474 120.102 32.4713 122.65 33.8358C124.1 34.613 124.141 34.6903 122.267 44.3144C119.203 60.0503 109.762 96.627 109.128 101.124C109.087 101.412 102.536 130.828 102.466 131.111C101.664 134.355 95.5878 131.856 78.652 127.981C78.6321 127.976 57.6581 122.924 55.2025 121.802C53.8595 121.188 53.5065 120.834 55.1658 112.812C54.8794 112.094 54.603 111.325 54.3434 110.508C53.7845 113.594 53.2339 116.747 52.6918 119.976C52.2531 122.593 56.9468 123.634 59.5448 124.247C79.8251 129.033 85.2876 131.024 96.8535 133.269C103.899 134.636 103.264 133.331 105.898 121.037C112.448 90.4624 123.073 48.3091 124.246 40.2792C125.307 33.0058 126.146 33.0334 115.375 31.1735L115.376 31.1727Z" fill="#191919"/>
<path d="M67.5544 131.044C67.853 129.968 68.474 129.596 69.5904 129.69C71.5529 129.854 78.4082 131.628 80.2911 132.205C81.4075 132.547 82.8263 133.165 82.618 134.315C81.5131 140.414 82.8952 140.096 68.8278 136.918C64.8446 136.018 68.0307 131.044 67.5544 131.044ZM81.4817 134.683C81.7375 133.863 81.2528 133.777 80.4748 133.472C78.1525 132.561 69.8347 130.663 69.7428 130.642C68.2481 130.318 68.2811 133.103 68.1409 134.534C68.0131 135.835 67.8546 135.474 79.5315 138.03C81.2046 138.03 80.4771 137.908 81.4817 134.683Z" fill="#191919"/>
<path d="M103.438 26.1075C102.63 26.0562 93.7502 25.2484 94.0212 23.8028C94.2203 22.7385 95.4064 23.3847 103.933 24.4329C104.797 24.5394 105.418 25.9085 103.439 26.1075H103.438Z" fill="#191919"/>
<path d="M91.3975 22.4566C91.8026 22.4765 92.2712 22.9328 92.2765 23.3111C92.2834 23.7483 91.7704 24.256 91.347 24.2292C90.9235 24.2024 90.4312 23.6457 90.4549 23.2422C90.4947 22.5607 91.4121 22.4719 91.3967 22.4558L91.3975 22.4566Z" fill="#191919"/>
<path d="M136.799 33.9107C137.182 29.5325 135.896 27.0248 131.322 25.3594C126.195 23.4926 75.9238 16.2682 75.2982 16.9497C73.6573 17.0707 71.9161 17.5209 71.0133 18.766C70.5141 19.4536 69.7844 21.8288 68.9796 24.9544C69.5103 24.8709 70.0432 24.8035 70.5777 24.7522C71.3694 21.5623 71.8793 19.6488 72.0003 19.4819C74.5172 16.0148 83.8219 19.8862 127.286 25.5661C133.752 26.4115 126.471 44.2171 118.106 82.9018C104.644 145.162 103.606 148.196 101.046 147.642C100.076 147.432 100.979 147.978 91.2522 145.839C84.5685 144.37 84.4881 143.995 81.7377 143.296C45.6442 134.129 45.6465 137.157 48.625 119.953C48.818 118.839 50.3869 111.786 52.6297 101.889C52.4528 99.9118 52.4068 97.8184 52.5362 95.6361C50.8417 102.963 49.3578 109.565 48.426 114.082C42.7973 141.376 44.9305 134.045 83.766 145.283C115.732 154.533 108.827 147.431 119.304 107.913C119.31 107.89 129.174 66.2577 129.21 66.1207C129.569 64.7968 130.606 65.7983 131.212 63.9928C133.034 58.5602 134.919 51.2761 135.956 43.5984C136.337 40.776 134.957 41.9782 135.48 40.302C136.491 37.0616 136.88 33.8832 136.8 33.91L136.799 33.9107ZM131.034 61.5426C130.275 64.2072 130.222 64.9354 127.319 64.7631C126.371 64.7072 126.718 64.3703 129.147 54.2416C129.353 53.384 129.209 53.7447 132.186 54.5961C133.05 54.8435 132.902 54.9897 131.034 61.5426ZM133.286 53.116C133.095 54.1903 133.121 53.6467 130.047 52.8389C128.933 52.5464 129.908 52.1229 132.296 42.1788C132.719 40.4154 132.885 40.4322 134.29 41.6359C135.527 42.6956 135.208 42.3564 133.286 53.116ZM134.161 40.0823C133.93 40.2347 133.725 39.9988 133.484 39.8878C132.798 39.5731 132.109 39.8212 131.902 40.5149C128.999 50.2393 126.733 60.7363 126.738 60.7179C125.674 65.1957 125.678 65.4315 126.798 65.577C129.35 65.9086 127.9 61.1988 117.056 111.165C110.938 139.358 110.669 145.745 103.789 147.524C106.913 141.2 117.178 93.7862 118.034 89.6215C129.399 34.3265 132.922 33.0187 130.131 26.292C133.143 27.2338 135.66 28.7936 135.576 31.9467C135.52 34.07 134.721 38.2301 134.161 40.0823Z" fill="#191919"/>
<path d="M79.5637 99.7784C77.8348 99.394 77.7153 98.7493 79.3195 92.3649C79.8279 90.3396 81.8693 91.0265 84.733 91.453C92.6243 92.6276 91.0822 93.9354 89.9972 99.1697C89.4574 101.775 87.2858 101.494 79.5637 99.7784ZM86.6411 96.2838C86.3096 96.2279 84.4979 97.5464 82.5193 95.8274C82.367 95.6949 82.2406 95.7263 82.1112 95.8665C81.3333 96.7118 80.3869 97.3603 79.5086 98.0908C78.2245 99.1582 86.8892 100.123 87.8854 100.056C88.6342 100.007 88.3249 99.9798 86.6411 96.2838ZM88.8639 93.6253C87.4757 93.0043 82.1365 92.0954 81.0316 92.2822C83.9328 97.0992 84.9183 96.2049 88.8639 93.6253ZM89.8846 94.2118C87.3119 95.8366 87.3073 95.6597 87.5531 96.1375C88.9129 98.7777 88.759 98.7133 89.0362 98.7087C89.259 97.244 89.7675 95.8259 89.8846 94.2118ZM79.344 96.9338C80.2108 96.3749 80.8195 95.6896 81.6005 95.2386C81.8945 95.0686 81.7858 95.0609 80.3103 93.0066L79.344 96.9338Z" fill="#38A1FF"/>
<path d="M98.6825 105.563C98.3027 107.953 97.6955 109.882 97.0309 111.341C96.1005 113.383 93.8057 112.7 92.8739 111.096C86.9313 100.874 98.782 100.067 98.6825 105.563V105.563ZM92.0331 105.804C92.5814 110.242 95.2889 113.183 96.2047 110.559C97.4635 106.949 98.4474 104.535 96.5408 103.628C95.1227 102.953 92.0577 103.04 92.0331 105.804Z" fill="#38A1FF"/>
<path d="M96.1524 106.19C96.0544 108.577 93.0153 107.805 93.0781 106.202C93.1095 105.4 93.9204 104.558 94.6516 104.568C95.523 104.579 96.1891 105.298 96.1524 106.19ZM95.2244 106.075C95.2343 105.184 93.9303 105.301 93.9778 106.193C94.0092 106.787 95.2136 107.05 95.2244 106.075Z" fill="#38A1FF"/>
<path d="M78.4787 63.1128C72.4533 64.4528 67.3308 65.5362 56.2772 67.1281C55.5957 66.6718 55.0145 66.0447 55.0306 66.0447C75.0705 63.2085 78.1816 61.6197 78.2597 61.9482C78.3508 62.3325 78.4182 62.723 78.4795 63.112L78.4787 63.1128Z" fill="#38A1FF"/>
<path d="M78.6129 67.8289C78.5784 68.2722 78.5279 68.7148 78.4437 69.1489C75.1909 69.8871 71.3624 70.6076 68.3632 71.1275C66.524 70.7094 65.4336 70.423 65.4336 70.423C65.4336 70.423 78.2132 67.9223 78.6129 67.8289Z" fill="#38A1FF"/>
<path d="M57.4955 47.4679C49.294 48.7084 37.4395 50.1785 24.3575 51.4113C24.3047 51.0032 24.261 50.5897 24.2266 50.1678C35.1562 49.1655 44.964 47.9756 55.8347 46.4534C55.8347 46.9702 56.1861 46.6264 57.4955 47.4679Z" fill="#38A1FF"/>
<path d="M59.7278 47.0805C59.6451 47.1472 57.8656 46.1456 57.881 46.1456C58.1474 46.1066 59.0173 45.9756 59.0808 45.9634C59.714 46.4802 59.9874 47.0009 59.7278 47.0805Z" fill="#38A1FF"/>
<path d="M79.1051 43.3768C74.7704 44.4572 70.7099 45.2887 66.3063 46.0429C63.3308 46.5529 64.2045 46.7773 63.0444 45.3339C69.1394 44.3194 73.775 43.4365 77.3011 42.533C78.5652 42.2091 78.2551 42.105 79.1051 43.3768Z" fill="#38A1FF"/>
<path d="M24.3866 44.2682C24.3307 44.6932 24.2855 45.1197 24.2495 45.537C37.6087 44.2935 48.6723 42.9374 57.3385 41.6679C58.5743 39.1694 62.2987 40.5201 24.3866 44.2682Z" fill="#38A1FF"/>
<path d="M73.9136 37.5491C71.2956 38.0935 67.7405 38.7619 63.7137 39.4197C63.7137 40.8737 63.6624 40.6923 63.8446 40.6616C67.5238 40.043 71.3408 39.3791 75.0545 38.5851C74.6839 38.2321 74.3041 37.8867 73.9136 37.5491Z" fill="#38A1FF"/>
<path d="M54.6073 53.7206C55.1471 53.9772 55.6126 54.2965 55.9939 54.7C54.1042 54.9802 50.7282 55.4488 48.0437 55.7926C47.8477 55.3991 47.6486 55.0032 47.4487 54.6112C54.5942 53.6992 54.3492 53.5981 54.6073 53.7206Z" fill="#38A1FF"/>
<path d="M82.1558 49.5637C75.606 51.4733 67.3258 52.935 60.6113 54.004C60.8104 52.3837 60.5302 52.7536 61.7132 52.5644C67.6573 51.6111 75.936 50.0897 81.7247 48.3853C81.9345 48.9189 82.142 49.517 82.1558 49.5637Z" fill="#38A1FF"/>
<path d="M82.8748 55.9688C74.295 58.6242 60.1127 60.7873 51.2145 61.9956C51.0016 61.6036 50.7926 61.2131 50.5874 60.8187C85.5723 56.1043 83.361 52.8991 82.8748 55.9688Z" fill="#38A1FF"/>
<path d="M32.4886 38.4626C32.2505 37.5147 32.2038 37.6854 31.3462 37.7505L25.8094 38.1686C25.6647 38.5981 25.5292 39.0246 25.4028 39.4527C33.6042 38.8501 32.6364 39.053 32.4886 38.4626Z" fill="#38A1FF"/>
<path d="M62.438 35.3745C61.1509 34.7297 55.0528 35.4572 53.5988 35.6172C52.9901 35.9671 51.8959 36.1187 51.3032 35.8775C51.2764 35.8637 51.3001 35.8683 50.1386 35.9931C36.6385 37.451 37.9157 36.7749 36.7434 38.1164C36.1914 38.7481 35.9134 38.6348 37.4035 38.5023C45.7794 37.7596 54.9717 36.8071 63.3002 35.6478C63.3216 35.6478 62.8569 35.4786 62.438 35.3745Z" fill="#38A1FF"/>
<path d="M44.2756 56.2719C40.3285 56.7681 33.9203 57.494 26.4433 58.2268C26.2365 57.8424 26.042 57.4419 25.8613 57.0254C47.5023 54.9802 45.5008 54.0943 44.2756 56.2719Z" fill="#38A1FF"/>
<path d="M38.6754 62.2974C36.4572 63.5363 33.9021 63.9796 31.5269 63.0784C33.6953 62.851 36.1057 62.5899 38.6754 62.2974Z" fill="#38A1FF"/>
<path d="M103.716 71.9275C101.556 69.9091 97.5135 69.027 93.1758 71.2315C86.9063 74.4183 87.7845 71.7529 85.6191 75.9834C88.4721 76.2032 90.8849 76.4206 92.9477 76.6136C96.4951 72.4359 101.081 74.1572 101.624 77.3058C103.743 77.3433 105.135 77.1059 106.543 76.4114C108.487 75.452 104.381 72.5485 103.716 71.9275Z" fill="#38A1FF"/>
<path d="M47.0482 22.1969C42.4103 22.3148 41.3874 21.3623 41.1745 23.2421C41.1155 23.7651 41.0183 25.8884 41.3675 26.2819C42.052 25.9688 42.7786 24.432 44.8338 25.8554C47.7251 27.857 50.7021 26.8455 52.2067 24.5897C48.0612 22.8187 48.6646 22.1563 47.0482 22.1969Z" fill="#38A1FF"/>
<path d="M32.9287 31.7765C32.1332 31.8982 30.5474 30.5759 29.2044 32.0383C29.0428 32.2145 28.8453 32.4074 28.6002 32.1662C27.9846 31.559 30.1669 29.3393 32.3797 30.9258C32.66 31.1264 32.892 31.3737 32.9295 31.7772L32.9287 31.7765Z" fill="#191919"/>
<path d="M30.5884 33.7206C32.5448 33.804 33.1037 35.6011 31.9054 35.0651C30.1496 34.2811 29.3112 35.386 29.0807 34.6356C28.897 34.0376 30.0463 33.6976 30.5884 33.7206Z" fill="#191919"/>
<path d="M32.8728 33.001C32.8544 33.1694 32.7855 33.2575 32.6691 33.2529C32.5137 33.2468 32.3483 33.2315 32.2051 33.1748C30.313 32.4275 29.4019 33.8693 29.0489 33.3601C28.5427 32.6304 31.4118 31.1365 32.8728 33.001Z" fill="#191919"/>
<path d="M61.7438 52.2515C61.1979 58.7063 61.4514 59.7768 60.4491 59.7768C60.0379 59.6083 58.3664 58.6297 58.0539 58.6657C55.6397 57.4176 56.312 56.0271 54.7308 54.8862C53.8349 54.24 51.5953 53.828 52.936 52.2231C53.2744 51.8181 53.5754 51.3809 53.8931 50.9574C53.9774 50.9436 54.0241 50.8954 54.0256 50.8096C54.0723 50.7553 54.1703 50.7913 54.1673 50.6588C54.933 49.8977 55.1887 49.5248 55.5042 49.7484C56.1803 50.2269 54.2469 51.8418 54.2867 52.0799L53.521 53.0447C54.2216 53.8678 55.802 53.6994 56.8127 55.9215C57.4973 57.4261 58.4628 57.6458 60.0968 58.3403C60.3587 58.616 59.9445 58.7239 60.7661 52.7867C60.8832 51.9429 60.9391 51.0715 61.678 51.4712L61.7431 52.2507L61.7438 52.2515Z" fill="#191919"/>
<path d="M64.6329 37.014C64.773 35.769 68.6391 38.2981 68.4369 41.5447C68.0227 41.632 67.9139 40.047 66.0012 38.1779C65.1888 37.3839 64.5816 37.4681 64.6329 37.014Z" fill="#191919"/>
<path d="M64.3976 38.0178C65.0408 37.491 65.3402 38.8034 65.4076 39.6419C65.4405 40.0477 65.4436 40.5531 65.3923 41.1962C65.1404 41.3004 65.1503 41.1855 65.0377 40.7399C64.6871 39.344 64.0408 38.3096 64.3976 38.0178Z" fill="#191919"/>
<path d="M45.25 30.3286C44.9216 30.3133 44.492 30.2911 44.4859 29.9565C44.4782 29.5146 45.6505 29.909 46.5295 28.7765C47.2554 27.8408 47.8963 29.827 45.25 30.3286Z" fill="#191919"/>
<path d="M42.5336 26.2973C42.6378 26.0775 42.9808 26.1227 43.0038 26.3562C43.0428 26.7544 42.9586 27.1227 43.4954 27.1893C43.6944 27.2138 43.9777 27.2529 43.931 27.5331C43.8323 28.1319 41.7932 27.8608 42.5336 26.2973Z" fill="#191919"/>
<path d="M46.8327 23.8378C46.528 23.6402 46.0846 23.814 46.0586 24.3515C46.0364 24.7688 46.273 24.9886 46.5203 24.9886C47.0257 24.9886 47.2661 24.1188 46.8335 23.8385L46.8327 23.8378Z" fill="#191919"/>
<path d="M42.1871 23.5132C41.576 23.5124 41.4918 24.6464 42.1227 24.7054C42.3494 24.7261 42.6105 24.5461 42.6626 24.1066C42.6733 23.8738 42.5347 23.5139 42.1871 23.5132Z" fill="#191919"/>
<path d="M109.958 69.194C109.732 61.9359 106.507 58.9107 104.762 54.625C103.683 51.9757 101.85 46.7605 100.572 44.8057C96.515 38.5905 90.4927 32.432 86.5157 29.7046C78.5792 24.1747 68.4153 24.3952 60.364 28.7911C56.6128 30.8454 57.8127 31.2796 56.7828 31.1104C54.8961 30.8018 54.1878 31.347 54.1228 29.7765C56.305 29.8026 57.8724 27.0384 58.2208 25.4465C59.06 21.6188 60.3341 20.6463 59.3165 18.6946C58.1588 16.4763 55.4421 14.7114 52.0776 14.8714C48.1664 15.0613 46.0431 15.108 44.4558 16.4311C43.2651 17.4212 41.0063 19.5927 41.3317 21.448C41.4964 22.3975 39.981 22.1816 40.7077 26.1517C40.7935 26.6418 41.2245 26.2842 41.22 27.3255C41.2077 29.3133 41.8065 31.6387 43.3769 33.396C39.5898 34.9557 36.5798 37.494 33.9335 40.6211C31.6732 35.1441 31.1862 35.8286 30.5078 36.0093C29.2536 36.3424 26.909 36.4764 26.8171 35.2827C26.713 33.9427 26.7674 32.6211 27.3325 31.373C28.0997 29.6778 30.6916 29.5468 32.2023 30.252C32.4672 30.3753 32.7919 30.5606 32.9833 30.2352C33.8394 28.7658 24.1923 26.6257 25.9389 35.9351C26.0461 36.5377 26.5009 36.2965 26.2053 37.0775C17.9526 58.7682 34.9167 72.9911 44.2759 56.2736C46.5561 52.2238 45.9213 51.6962 46.5324 52.8524C48.9773 57.5278 51.0416 62.1917 53.7108 66.1932C50.3364 65.7774 41.4114 65.9038 36.3869 68.3724C31.775 70.4735 29.8355 73.1106 28.6418 74.9858C26.9795 78.2936 25.7543 83.5716 25.7781 88.5394C25.8478 101.88 25.8623 103.122 28.8738 105.144C27.5836 109.353 20.4144 108.07 17.1969 111.18C15.4878 112.837 16.0682 114.961 18.6257 115.628C20.2666 116.052 24.2605 115.404 25.8615 115.316C30.6257 115.053 31.0913 116.36 34.4894 116.011C36.004 115.854 36.762 116.011 37.4297 114.724C38.4006 112.86 37.2115 106.26 38.0775 105.651C39.3991 104.722 38.367 97.1137 39.1702 90.6359C40.0446 83.6428 45.1847 79.9115 52.4826 82.6481C53.0837 82.8732 54.1182 83.3549 55.0401 83.8181C55.5271 82.6558 56.7346 79.9138 58.2216 77.5815C58.3578 77.3686 58.6427 77.3043 58.8563 77.4414C59.07 77.5777 59.1327 77.8617 58.9964 78.0761C46.6602 97.4254 58.2484 120.749 60.4298 119.686C60.6335 119.586 73.5478 121.969 73.5647 121.961C74.8081 121.419 70.8656 113.11 69.6006 104.04C69.034 99.9698 69.5241 97.8894 70.6795 94.2378C73.8173 84.2936 72.1427 90.8465 75.3097 82.6221C77.5386 76.8257 76.8924 75.6596 77.4031 74.8786C80.6114 77.2239 80.4598 76.6481 92.1742 77.668C92.4116 77.2936 92.6712 76.9421 92.9476 76.6159C90.8848 76.4222 88.4713 76.2048 85.6191 75.9858C87.7845 71.7553 86.9062 74.4214 93.1758 71.2338C97.5135 69.0301 101.556 69.9107 103.716 71.9299C104.381 72.5508 108.487 75.4551 106.543 76.4138C105.134 77.1083 103.743 77.3456 101.624 77.3081C101.682 77.6443 101.705 77.998 101.707 78.3725C104.173 78.4927 104.203 78.3809 104.209 78.3709C104.304 78.2055 110.237 78.1994 109.957 69.1955L109.958 69.194ZM36.4979 113.389C36.38 114.491 36.2797 114.575 35.2199 114.768C33.9205 115.007 32.6005 115.037 31.344 114.683C26.5736 113.333 22.7069 114.974 19.0698 114.61C17.9304 114.501 16.7627 113.651 17.4243 112.49C19.337 109.134 27.9986 110.586 29.566 105.923C29.922 104.853 29.6234 106.124 36.6196 106.124C36.3907 108.612 36.7521 111.005 36.4963 113.388L36.4979 113.389ZM96.5387 41.1541C100.269 45.955 100.097 45.733 102.335 51.5354C102.679 52.4275 102.933 53.3547 103.342 54.2223C103.471 54.4995 103.435 54.6687 103.146 54.7843C101.772 55.3302 101.86 55.5638 101.461 54.7621C101 53.8578 100.243 54.0538 100.446 55.0301C100.642 56.0546 100.687 55.9252 98.7592 56.5087C98.2876 55.6495 98.1229 55.1748 97.7148 55.3379C97.0785 55.5898 97.9109 56.5906 97.6528 56.9328C97.4958 57.1404 97.1582 57.2146 96.8963 57.3425C95.5402 58.0041 94.6145 58.6748 93.7225 57.4405C93.0808 56.55 93.0019 55.3831 92.6497 53.7919C92.4736 52.9994 93.2784 53.331 94.2485 52.3272C93.9277 52.0163 93.5823 52.1235 93.263 52.1618C91.783 52.3501 92.7669 52.1465 91.1245 48.7376C90.6107 47.6694 91.0716 46.5385 92.175 46.0683C92.4284 45.9611 92.4828 46.1617 93.1022 46.5745C93.4338 46.7942 93.7983 46.5369 93.5678 46.151C92.9652 45.1204 92.7271 45.6526 94.4974 44.0744C95.3764 44.7192 95.6183 44.9512 95.8281 44.7559C96.0395 44.5614 95.7049 43.8547 95.5915 43.7352C95.2209 43.3417 95.3128 43.0132 95.6137 42.6303C96.1941 41.8907 96.2546 40.7865 96.5395 41.1533L96.5387 41.1541ZM51.9283 15.7619C54.6626 15.5996 57.2453 16.7504 58.4658 19.1831C59.1879 20.6241 58.0952 21.1938 57.1833 25.3094C57.0248 26.0284 55.8724 28.9595 53.6856 28.8133C53.1097 27.2206 54.2675 27.3799 55.0722 26.0491C55.5408 25.2681 55.3854 24.2949 54.4964 24.1257C53.2935 23.8967 53.7851 24.4228 51.8754 23.6693C46.8509 21.6877 48.171 19.7949 42.4527 19.7949C45.9099 16.1011 45.3057 16.1547 51.9283 15.7619ZM42.0507 21.0789C41.9742 20.1739 45.024 20.1203 46.9175 21.6019C45.2177 21.8217 43.6633 21.6019 42.1112 21.605C41.9466 21.4472 42.0653 21.2543 42.0507 21.0789ZM41.285 23.3998C41.4994 21.51 42.5706 22.5621 47.2154 22.327C48.426 22.2665 48.0845 22.8669 51.9849 24.5323C50.38 26.9388 47.5255 27.4955 45.2376 25.8891C42.7161 24.154 42.2904 25.5843 41.406 25.9856C41.0576 25.592 41.2253 23.9197 41.2843 23.399L41.285 23.3998ZM43.3524 32.1096C42.3808 30.8056 42.0515 28.9021 41.8547 27.2865C41.6709 25.7903 43.3907 25.0016 44.9596 26.5361C46.3341 27.8791 50.2499 28.1111 52.0898 25.5277C52.5914 24.8209 53.3195 24.7497 54.0791 24.7865C55.063 24.8332 54.4512 25.9771 53.6373 26.5047C50.1243 28.785 57.2254 33.5262 53.5983 35.6181C53.5829 35.6181 52.2973 36.2835 51.3027 35.8784C50.4329 35.4427 50.6832 34.9932 49.9903 33.8187C49.4704 32.9396 50.2767 33.2742 51.4221 31.3692C51.5852 31.1035 51.7751 30.7842 51.5156 30.579C51.1779 30.3156 50.8417 30.6954 50.5975 31.0897C48.893 33.8041 45.0109 34.3378 43.3524 32.1096ZM56.0049 67.1695C56.0278 67.1572 56.0516 67.1526 56.073 67.1603C56.0493 67.1634 56.0278 67.1649 56.0049 67.1695ZM74.6244 79.5616C69.8809 78.6519 67.5539 72.8586 68.7614 72.6343C69.0133 72.5876 69.2522 72.7514 69.2974 73.0018C69.3395 73.1994 70.3931 77.9123 74.7821 78.6558C75.3931 78.7607 75.2147 79.6749 74.6244 79.5616ZM77.0379 69.9053C76.521 71.4413 75.4789 72.3341 72.8801 71.9926C68.1244 71.3671 59.0554 68.351 57.4612 67.7491C53.4038 66.1971 47.2506 51.834 45.7192 47.8203C44.0944 43.5415 44.527 43.1288 43.8547 43.4795C42.9734 43.8769 45.5155 49.9298 45.4267 50.5722C45.3907 50.818 44.2315 53.7958 43.5033 55.1074C34.9925 71.0815 20.6701 58.5148 26.3524 39.3868C27.3684 35.7107 26.4703 37.788 30.3057 37.2122C30.9282 37.1188 31.0576 37.0576 31.347 37.7513C31.347 38.0132 34.9519 43.6947 35.4994 52.442C35.6227 55.9612 37.308 55.0691 36.3088 48.929C35.0653 41.4313 33.6441 42.4182 35.2521 40.7322C35.2521 40.6594 36.8708 38.824 39.0515 37.1012C41.9152 34.8363 43.6059 34.3975 44.1258 34.0912C44.4994 33.87 44.7108 34.1579 45.3846 34.2076C49.3739 34.5063 48.8149 32.8998 49.3785 34.3975C50.4061 37.1242 50.9788 36.7896 52.9275 36.7773C54.7767 36.4412 56.05 34.6747 55.3196 32.2949C55.2139 32.1908 55.0531 31.9825 55.2713 31.971C55.766 31.9473 56.2889 31.8355 56.7621 32.1112C56.916 32.3975 56.4474 33.909 57.4689 35.2383C58.8134 36.958 60.6565 35.5109 63.6312 36.7383C64.2913 37.0139 65.7683 34.7536 68.3135 35.0637C70.315 35.4305 74.7523 38.7306 78.0853 43.6349C82.5823 50.2667 83.7975 57.9152 79.0317 59.9826C72.7362 62.7123 63.3112 52.9443 63.3655 52.099C62.2698 51.0301 63.1971 51.9298 65.132 47.1403C65.4413 46.3731 73.1818 48.4711 73.3847 48.7353C74.5379 48.8876 78.3656 51.2713 78.691 51.1304C80.8962 49.4183 68.5149 46.125 67.1404 46.125C64.8433 45.87 65.1106 46.4397 64.7622 46.004C64.681 45.9029 63.8265 44.465 63.4344 44.2092C63.2055 43.9305 63.4421 44.1702 63.5807 43.6334C63.8311 42.661 63.439 42.8585 63.9421 39.5446C64.1427 38.334 64.0493 37.9289 62.789 37.4312C61.6871 36.9986 60.5386 36.8148 59.351 36.9856C58.9559 37.3853 58.3693 38.8424 57.975 39.8378C57.6955 40.543 58.2744 40.9726 58.7009 40.1885C59.0883 39.4772 59.5654 38.517 59.7085 38.138C59.9513 37.6541 59.9375 37.6923 61.1358 37.8998C64.1603 38.4243 62.8609 38.625 62.8226 41.0951C62.5049 43.6303 63.0669 43.7383 62.3571 43.187C59.926 41.2973 56.3816 40.0821 56.1113 43.1464C56.1986 43.3677 55.3517 43.6587 55.3732 44.7835C55.7744 45.2896 54.8395 45.3202 55.0508 46.7054C55.4911 47.1847 54.2246 48.2758 55.8724 49.2177C56.6534 49.6595 56.7039 49.5706 57.0845 49.5676C57.6029 49.0025 56.23 48.7506 55.9497 48.1717C55.7706 48.0316 55.7415 47.8103 55.8624 47.7138C56.4604 47.2123 59.5623 50.6465 61.1978 50.844C61.5141 50.8876 62.0569 50.8547 62.0914 50.8999C62.1067 50.9344 62.0554 50.9152 62.0868 51.0492C62.1259 51.4412 61.8188 51.2782 61.9765 51.7154C62.1948 52.3272 62.7828 53.197 66.5355 56.9436C66.596 56.9436 71.1787 60.978 75.0478 61.3716C77.2752 61.8525 76.9812 61.0102 77.1757 62.1419C77.4804 63.949 77.7951 67.6549 77.0386 69.9038L77.0379 69.9053ZM56.6373 44.9137C55.511 44.7705 56.488 42.4466 60.2637 45.4665C60.8693 45.9504 61.2223 45.3325 60.7461 44.9198C57.9229 42.4512 56.9467 43.3164 56.8487 42.9963C57.2935 42.128 57.4635 42.0109 58.3755 42.1679C60.3395 42.504 61.8096 43.8026 63.0439 45.3348C64.1925 46.7636 64.1779 46.8455 64.0286 47.161C63.1044 49.0944 62.9 50.0393 62.0799 50.1725C60.8893 50.2912 59.0363 48.4642 57.4957 47.468C56.1848 46.6242 55.8349 46.968 55.8349 46.4535C56.0278 44.4986 59.5003 47.2674 59.7277 47.0806C60.2239 46.9313 58.7905 45.187 56.6373 44.9137ZM108.386 73.3893C107.931 74.9942 107.923 74.3763 107.374 73.7599C98.9315 64.3647 93.417 70.8226 88.0004 72.1021C84.2209 72.9972 86.0877 76.2032 83.2607 75.8533C74.7668 74.8028 77.9582 71.6083 78.4445 69.1496C79.0953 65.792 78.3771 63.1044 78.2599 61.9489C78.1558 60.9696 78.3832 61.4865 79.8725 60.6886C89.6375 55.4451 75.0179 34.2475 67.642 34.2475C66.462 34.2475 65.3196 34.8378 64.4544 35.4894C63.1596 36.2069 63.0501 34.9435 59.8801 35.1563C57.4612 35.3309 56.9911 31.7566 59.1955 30.5162C67.6052 25.7796 77.1091 24.8538 85.1995 30.1196C88.9192 32.5292 92.2722 36.0499 95.041 39.3263C95.9422 40.3708 95.8381 39.9381 95.2929 41.2299C95.1092 41.6701 94.871 42.0813 94.5004 42.4826C93.7454 41.8815 93.3251 41.4244 92.9568 41.7881C92.417 42.3202 93.5096 42.9879 93.7026 43.3899C91.7339 45.1893 92.5134 44.3907 91.4131 43.8493C90.9882 43.6411 90.6145 44.0921 90.8312 44.4382C91.5287 45.5492 91.7071 45.0017 90.8074 45.87C88.6872 47.9244 90.4897 48.648 91.2156 52.102C91.384 52.8961 91.3963 52.5377 89.7041 53.5293C89.2515 53.7927 89.3993 54.3586 89.9828 54.354C90.613 54.3494 91.0647 53.9244 91.5333 53.8946C91.93 55.3999 92.0096 57.3838 93.3013 58.5577C94.6972 59.818 96.1298 58.9451 97.7837 58.1097C98.492 57.7537 98.2401 58.5018 98.9032 59.1243C99.2409 59.4405 99.5058 59.2177 99.44 58.8846C99.2233 57.8027 98.858 57.5446 99.5893 57.3762C100.581 57.1549 100.694 56.8547 101.013 56.9528C101.295 57.04 101.54 58.2912 102.067 58.0829C102.526 57.8992 101.925 56.6871 102.15 56.4459C102.377 56.2016 103.312 56.024 103.839 55.4995C105.568 58.9926 110.591 65.6197 108.387 73.39L108.386 73.3893Z" fill="#191919"/>
<path d="M96.5562 90.7808C95.6037 90.7019 90.5486 89.4607 89.4574 88.9194C88.4176 88.404 87.8288 87.8282 88.5891 85.4247C90.0577 80.78 90.3809 78.7417 92.2231 78.7616C92.9919 78.77 93.1152 76.7103 95.7545 75.4806C98.4054 74.2463 100.588 75.7654 100.805 77.7685C100.974 79.3175 100.419 80.2823 101.004 80.4859C102.501 81.0074 102.134 83.087 101.687 84.6077C100.197 89.6858 99.825 91.0518 96.5562 90.7808ZM93.0172 79.878C91.5761 79.8565 91.5179 79.2248 89.4031 85.9952C88.7201 88.182 89.2185 87.9324 96.3633 89.6077C97.4376 89.8596 98.5624 89.757 98.9904 88.741C99.7546 86.9278 100.487 85.097 100.823 83.1513C101.088 81.6199 101.079 81.5679 99.5386 81.1843C98.7216 80.9806 93.5355 79.8856 93.0172 79.878ZM99.7691 79.9898C100.639 73.7424 94.8472 75.6521 93.5355 78.6804C94.0493 78.8114 94.4483 78.6881 94.7339 78.3114C95.7722 76.9438 97.6029 76.3718 98.6466 77.7524C99.665 79.1 98.5218 79.9928 99.7691 79.9898ZM95.3702 79.0617C96.2216 79.3313 97.0325 79.4538 97.8388 79.5985C98.018 79.6307 98.2369 79.6766 98.2699 79.4086C98.498 77.5395 96.276 77.0227 95.3702 79.0617Z" fill="#38A1FF"/>
<path d="M95.1563 87.607C90.7222 87.352 94.5859 85.4975 94.0139 84.4585C93.2329 83.0388 95.2965 81.1759 96.7582 82.6016C97.4557 83.2816 97.236 84.6736 96.3455 84.9286C95.455 85.1836 96.0109 85.5266 95.9611 86.8941C95.9396 87.4837 95.7574 87.6415 95.1563 87.607Z" fill="#38A1FF"/>
</svg>
