<svg width="155" height="155" viewBox="0 0 155 155" fill="none" xmlns="http://www.w3.org/2000/svg">
<path d="M10.4384 105.623L4.68012 121.66C4.65959 121.703 4.65601 121.752 4.67007 121.797C4.68414 121.843 4.71482 121.881 4.75601 121.905C4.7972 121.929 4.84588 121.936 4.89235 121.926C4.93881 121.916 4.97966 121.888 5.00675 121.849L16.7142 108.266L10.4384 105.623Z" fill="white"/>
<path d="M116.139 84.851L82.9799 138.222C82.6207 138.799 82.0601 139.223 81.4065 139.411C80.7529 139.598 80.053 139.537 79.4422 139.238L8.69195 104.556C8.41225 104.42 8.16202 104.23 7.95557 103.998C7.74912 103.766 7.59049 103.495 7.48874 103.201C7.38699 102.907 7.34412 102.596 7.36257 102.286C7.38102 101.975 7.46043 101.672 7.59627 101.392C7.83856 100.892 4.99852 104.119 50.6876 55.1786C51.0947 54.7423 51.6274 54.4433 52.2119 54.3231C52.7964 54.2029 53.4038 54.2674 53.9501 54.5077L114.991 81.107C115.332 81.2561 115.636 81.4771 115.883 81.7547C116.131 82.0323 116.315 82.3601 116.424 82.7156C116.533 83.0711 116.564 83.4459 116.515 83.8145C116.465 84.183 116.337 84.5366 116.139 84.851Z" fill="white"/>
<path d="M115.149 80.7551L54.1082 54.1543C53.4891 53.8822 52.8007 53.8092 52.1384 53.9454C51.476 54.0817 50.8723 54.4205 50.4109 54.9149L7.72372 100.543C7.42842 100.857 7.21108 101.236 7.08922 101.65C6.96735 102.064 6.94435 102.5 7.02209 102.925C7.09982 103.349 7.27611 103.749 7.53675 104.093C7.79739 104.436 8.13509 104.714 8.52267 104.903L10.027 105.64L4.33622 121.49C4.27328 121.617 4.25942 121.762 4.2973 121.899C4.33518 122.035 4.42213 122.153 4.54143 122.229C4.66073 122.305 4.80396 122.334 4.94357 122.311C5.08318 122.288 5.20931 122.214 5.29772 122.104L16.677 108.9L79.2737 139.585C79.9695 139.928 80.7679 139.999 81.5133 139.785C82.2588 139.571 82.8978 139.087 83.306 138.428L116.464 85.062C116.693 84.7008 116.842 84.2944 116.899 83.8705C116.957 83.4466 116.922 83.0153 116.797 82.6062C116.672 82.1971 116.46 81.8198 116.176 81.5003C115.891 81.1808 115.541 80.9266 115.149 80.7551ZM5.38743 120.825L10.7179 105.977L15.9632 108.548L5.38743 120.825ZM114.842 81.4582C115.107 81.574 115.346 81.7408 115.546 81.9492C115.746 82.1575 115.903 82.4032 116.008 82.6723C116.113 82.9413 116.164 83.2284 116.158 83.5172C116.152 83.8059 116.089 84.0906 115.973 84.355C115.873 84.5804 117.937 81.2934 82.6573 138.02C82.3491 138.517 81.8667 138.883 81.304 139.044C80.7413 139.206 80.1387 139.152 79.6133 138.894L8.85927 104.211C8.57997 104.074 8.33662 103.874 8.14879 103.626C7.96096 103.379 7.83389 103.09 7.7778 102.784C7.72172 102.479 7.73818 102.164 7.82587 101.866C7.91356 101.567 8.07002 101.294 8.28268 101.067L50.9722 55.4401C51.2056 55.1898 51.4881 54.9902 51.8021 54.8538C52.1161 54.7174 52.4547 54.6471 52.7971 54.6473C53.5899 54.6473 49.5982 52.9413 114.842 81.4582Z" fill="#4B1010"/>
<path d="M110.096 83.1474L79.5199 130.578L15.6045 99.3734L53.5747 57.8562L110.096 83.1474Z" fill="white"/>
<path d="M79.8418 130.786C79.8071 130.84 79.7594 130.884 79.7032 130.915C79.6469 130.946 79.5839 130.962 79.5198 130.962C79.3826 130.962 82.3959 132.399 15.4357 99.7182C15.3821 99.692 15.3354 99.6537 15.2992 99.6063C15.2631 99.5589 15.2385 99.5037 15.2274 99.4451C15.2163 99.3866 15.219 99.3262 15.2354 99.2688C15.2517 99.2115 15.2812 99.1588 15.3214 99.1148L53.2916 57.5977C53.3461 57.5379 53.4181 57.4969 53.4972 57.4805C53.5764 57.4641 53.6588 57.4732 53.7325 57.5064C114.408 84.6493 110.388 82.7777 110.464 83.0391C110.541 83.3006 112.689 79.8602 79.8418 130.786ZM16.2331 99.2536L79.3818 130.085L109.532 83.3129L53.6712 58.3192L16.2331 99.2536Z" fill="#4B1010"/>
<path d="M47.8716 105.49C44.779 105.594 41.7331 104.716 39.1713 102.98C36.1181 100.751 34.0072 96.1607 35.7608 92.3361C36.4309 90.8494 37.9613 89.3933 39.7325 89.7169C42.1094 90.1409 42.7405 93.2363 44.619 94.046C45.2315 94.304 45.9191 94.3203 46.5432 94.0915C47.1673 93.8627 47.6814 93.4059 47.982 92.813C48.8185 90.9836 47.3026 88.8474 46.2691 87.0202C43.9443 82.741 43.8155 78.264 45.911 74.7308C47.7071 71.8255 50.4584 69.6359 53.6927 68.5378C56.6761 67.4643 59.8597 67.8147 61.9951 69.4579C65.1725 71.8578 64.8635 75.887 63.5132 78.8559C62.8316 80.3802 61.1049 81.5564 60.8212 83.073C60.6954 83.7363 60.8373 84.1879 61.2414 84.4171C61.9399 84.8112 63.3216 84.5061 64.1404 83.7754C65.0115 82.9833 65.3941 81.7726 66.1026 80.7444C66.1603 80.6606 66.249 80.6032 66.3491 80.5848C66.4491 80.5664 66.5524 80.5885 66.6362 80.6463C66.72 80.704 66.7774 80.7927 66.7958 80.8928C66.8142 80.9928 66.7921 81.0961 66.7344 81.1799C66.0343 82.1943 65.6609 83.4265 64.6534 84.345C62.7749 86.0219 59.5422 85.7091 60.0675 82.9312C60.4041 81.1354 62.1722 79.9769 62.8147 78.5415C64.0415 75.8403 64.3482 72.1974 61.5304 70.069C59.2202 68.2924 56.098 68.4879 53.9457 69.2631C50.8797 70.3025 48.271 72.3766 46.5673 75.1295C44.6159 78.4188 44.7509 82.6199 46.9392 86.6499C48.1039 88.704 49.6719 90.9613 48.6728 93.1473C48.2856 93.9171 47.6205 94.5111 46.8119 94.8091C46.0033 95.107 45.1118 95.0867 44.3177 94.7521C42.2222 93.8497 41.5436 90.8202 39.5968 90.4729C38.2887 90.2337 37.029 91.393 36.4585 92.6543C34.8675 96.1246 36.8189 100.315 39.6229 102.362C43.0119 104.836 47.3755 104.928 50.4402 104.573C55.6289 103.973 60.5309 101.876 64.5484 98.5376C64.5871 98.505 64.6318 98.4804 64.6801 98.4652C64.7283 98.4501 64.7791 98.4446 64.8295 98.4491C64.8799 98.4536 64.9289 98.4681 64.9736 98.4917C65.0184 98.5152 65.0581 98.5474 65.0904 98.5863C65.1226 98.6253 65.1469 98.6702 65.1617 98.7186C65.1765 98.767 65.1816 98.8178 65.1767 98.8682C65.1718 98.9185 65.157 98.9674 65.1331 99.012C65.1092 99.0566 65.0767 99.096 65.0375 99.128C60.21 103.147 54.1522 105.392 47.8716 105.49Z" fill="#4B1010"/>
<path d="M108.248 87.1154C106.923 87.2787 102.145 87.6406 100.269 87.7955C98.4889 87.9104 96.7213 88.1696 94.9835 88.5706C93.3994 88.954 91.4104 90.1371 91.0731 91.7381C90.7357 93.3391 91.4564 95.1294 92.2355 96.4981C94.6505 100.723 97.5198 104.672 100.792 108.275L104.442 104.306C102.461 101.268 100.654 98.1214 99.0273 94.8802C101.094 94.8035 102.746 94.6502 104.727 94.6502L108.248 87.1154Z" fill="white"/>
<path d="M68.2001 88.6042L64.3349 98.5559C64.3042 98.637 64.2993 98.7256 64.3208 98.8097C64.3423 98.8937 64.3891 98.9691 64.455 99.0255C64.5209 99.082 64.6026 99.1167 64.689 99.125C64.7754 99.1333 64.8622 99.1148 64.9376 99.0719L74.4062 93.5651L68.2001 88.6042Z" fill="#FFB43B"/>
<path d="M107.764 55.8848C108.591 55.0861 109.282 54.1588 109.813 53.139L110.349 56.5817C110.349 56.6584 109.222 58.2686 109.084 58.4327C108.433 57.4221 107.162 56.466 107.764 55.8848Z" fill="white"/>
<path d="M85.4677 79.4631C85.1488 79.5314 84.9172 79.8672 84.6067 80.0397C84.3571 80.1395 84.0883 80.182 83.8201 80.1641C83.5519 80.1462 83.2912 80.0683 83.0571 79.9362C82.868 79.8245 82.644 79.7875 82.4291 79.8327C82.3584 79.8689 82.2963 79.92 82.2472 79.9825C82.1981 80.045 82.1631 80.1173 82.1446 80.1946C81.9729 80.9 83.0318 81.6921 83.6942 81.3999C82.6123 81.8746 82.0028 81.0748 81.3618 81.6836C81.2558 81.802 81.1973 81.9553 81.1973 82.1142C81.1973 82.273 81.2558 82.4263 81.3618 82.5447C81.8524 82.8728 82.4494 83.0019 83.0318 82.9058C82.6652 83.0205 82.3316 83.2214 82.0588 83.4916C81.44 84.0115 82.0074 84.7361 82.7818 84.1633C84.1765 83.3705 85.2523 82.0877 86.7589 81.5801L85.4677 79.4631Z" fill="white"/>
<path d="M132.318 16.306C133.121 16.9685 133.628 17.9228 133.728 18.9591C133.827 19.9954 133.511 21.0288 132.849 21.832L130.484 24.7011C129.921 25.3845 129.108 25.816 128.227 25.9007C127.345 25.9854 126.465 25.7164 125.782 25.1527L124.879 24.4082C124.541 24.1292 124.261 23.7863 124.055 23.399C123.849 23.0117 123.721 22.5877 123.679 22.1511C123.637 21.7145 123.682 21.2739 123.81 20.8544C123.938 20.435 124.148 20.0449 124.427 19.7065L126.793 16.8374C127.456 16.0344 128.41 15.5274 129.446 15.4277C130.482 15.3281 131.515 15.644 132.318 16.306Z" fill="#FFB43B"/>
<path d="M133.144 22.0758C133.871 21.1941 134.218 20.0598 134.109 18.9223C134 17.7848 133.443 16.7374 132.561 16.0104C132.125 15.6504 131.622 15.38 131.08 15.2145C130.539 15.0489 129.971 14.9916 129.408 15.0458C128.27 15.1551 127.223 15.7119 126.496 16.5935C127.335 15.3521 75.7371 78.7216 68.1079 88.0737C67.8012 88.4525 68.1608 87.527 63.9767 98.4194C63.9186 98.5742 63.9095 98.7431 63.9507 98.9032C63.9919 99.0633 64.0814 99.2068 64.2071 99.3143C64.3327 99.4217 64.4884 99.4879 64.6529 99.5038C64.8175 99.5197 64.9829 99.4846 65.1268 99.4032C74.9726 93.7476 74.4903 94.0237 74.8645 93.572C120.422 37.6561 81.3474 85.614 133.144 22.0758ZM64.6921 98.6947L67.736 90.8577C68.2988 92.5285 70.5631 94.1348 72.3365 94.3081L64.6921 98.6947ZM132.554 21.5881L130.188 24.4573C129.688 25.0615 128.969 25.4428 128.189 25.5177C127.409 25.5926 126.63 25.3549 126.025 24.8568L125.123 24.1123C124.518 23.6131 124.137 22.8944 124.062 22.1141C123.986 21.3338 124.224 20.5556 124.722 19.9503L127.089 17.0812C127.691 16.372 128.548 15.9284 129.475 15.8462C130.402 15.7639 131.324 16.0497 132.042 16.6417C132.76 17.2337 133.216 18.0844 133.312 19.01C133.408 19.9355 133.135 20.8616 132.554 21.5881Z" fill="#4B1010"/>
<path d="M111.271 37.2006L119.855 26.7046C120.019 26.5155 120.25 26.3977 120.499 26.3762C120.748 26.3548 120.996 26.4314 121.19 26.5898C121.383 26.7481 121.507 26.9758 121.536 27.2243C121.564 27.4728 121.495 27.7227 121.342 27.9206L112.758 38.4167C112.594 38.6058 112.363 38.7236 112.114 38.745C111.865 38.7665 111.617 38.6899 111.423 38.5315C111.23 38.3731 111.105 38.1455 111.077 37.8969C111.049 37.6484 111.118 37.3986 111.271 37.2006Z" fill="white"/>
<path d="M112.05 36.0949C111.462 35.7086 110.792 35.4667 110.094 35.3889C109.395 35.311 108.688 35.3995 108.03 35.6472L111.741 43.698C113.983 46.0149 115.414 48.9958 115.82 52.1944C116.018 51.2517 116.113 50.2905 116.104 49.3275C116.114 44.5353 116.011 38.7985 112.05 36.0949Z" fill="#FFB43B"/>
<path d="M115.44 52.2374C115.039 49.1217 113.645 46.2181 111.465 43.9565C111.429 43.9203 111.402 43.8775 111.383 43.8306C111.364 43.7836 111.355 43.7335 111.356 43.683C111.356 43.6325 111.367 43.5826 111.387 43.5362C111.407 43.4897 111.436 43.4477 111.472 43.4125C111.508 43.3772 111.551 43.3495 111.598 43.3308C111.645 43.312 111.695 43.3028 111.746 43.3034C111.796 43.3041 111.846 43.3147 111.892 43.3347C111.939 43.3547 111.981 43.3836 112.016 43.4198C113.752 45.2211 115.023 47.418 115.72 49.8206C115.802 46.2759 115.84 42.5694 114.347 39.4442C113.813 38.2133 112.941 37.1586 111.834 36.4017C111.297 36.0512 110.685 35.832 110.048 35.7617C109.411 35.6913 108.766 35.7719 108.165 35.9969C108.117 36.0259 108.064 36.0441 108.008 36.0501C107.952 36.0561 107.896 36.0497 107.843 36.0315C107.789 36.0133 107.741 35.9837 107.701 35.9447C107.66 35.9058 107.629 35.8584 107.609 35.806C107.589 35.7536 107.58 35.6975 107.584 35.6415C107.588 35.5855 107.605 35.5311 107.632 35.4821C107.659 35.4331 107.697 35.3907 107.743 35.3579C107.788 35.3251 107.84 35.3027 107.896 35.2922C108.61 35.0247 109.378 34.9293 110.136 35.0137C110.895 35.0982 111.622 35.3601 112.261 35.7783C113.487 36.6133 114.452 37.7784 115.044 39.139C116.521 42.2298 116.57 45.7277 116.488 49.3368C116.506 50.3248 116.407 51.3115 116.195 52.2765C116.175 52.3646 116.124 52.4427 116.052 52.4973C115.98 52.5518 115.891 52.5791 115.801 52.5744C115.711 52.5697 115.625 52.5334 115.559 52.4717C115.493 52.41 115.451 52.3271 115.44 52.2374Z" fill="#4B1010"/>
<path d="M108.34 55.3428C107.667 56.1799 106.75 56.7865 105.716 57.0781C104.683 57.3697 103.584 57.3319 102.572 56.9698C97.4069 55.1189 95.8251 46.8733 99.8888 43.3086C102.664 40.8704 108.042 40.0216 109.909 43.2994C110.351 44.3628 110.523 45.5194 110.408 46.6655C110.153 49.458 110.57 52.2098 108.34 55.3428Z" fill="white"/>
<path d="M105.74 49.3054C105.527 48.7441 104.876 48.577 104.601 48.853C104.345 49.0824 104.038 49.2482 103.706 49.337C103.374 49.4259 103.025 49.4353 102.689 49.3644C102.638 49.3574 102.587 49.3605 102.537 49.3736C102.488 49.3867 102.442 49.4096 102.401 49.4408C102.361 49.472 102.327 49.511 102.302 49.5554C102.277 49.5999 102.261 49.6489 102.255 49.6996C102.249 49.7504 102.253 49.8017 102.268 49.8508C102.282 49.8998 102.306 49.9456 102.338 49.9853C102.37 50.025 102.41 50.0578 102.455 50.082C102.5 50.1061 102.549 50.121 102.6 50.1258C103.269 50.2302 103.955 50.1258 104.563 49.8268C104.632 50.1227 104.808 50.5414 105.246 50.5667C105.924 50.605 105.924 49.79 105.74 49.3054Z" fill="#4B1010"/>
<path d="M100.764 50.9583C100.551 50.3971 99.8998 50.2299 99.6253 50.506C99.3685 50.7359 99.0611 50.902 98.728 50.9908C98.3949 51.0795 98.0456 51.0884 97.7084 51.0166C97.6584 51.0108 97.6077 51.0148 97.5592 51.0286C97.5107 51.0423 97.4654 51.0655 97.4259 51.0968C97.3864 51.128 97.3534 51.1668 97.3289 51.2108C97.3043 51.2548 97.2887 51.3032 97.2829 51.3532C97.277 51.4032 97.2811 51.454 97.2949 51.5024C97.3086 51.5509 97.3318 51.5962 97.363 51.6357C97.3943 51.6752 97.433 51.7082 97.477 51.7327C97.521 51.7573 97.5694 51.7729 97.6195 51.7788C98.2889 51.8827 98.9742 51.7783 99.5823 51.4797C99.6521 51.7749 99.8277 52.1943 100.266 52.2189C100.948 52.258 100.948 51.4429 100.764 50.9583Z" fill="#4B1010"/>
<path d="M135.783 86.9711C135.043 81.5479 134.414 76.1423 132.202 71.0718C128.897 63.5139 123.25 56.4376 115.411 53.9073C114.748 53.641 114.029 53.5404 113.319 53.6144C110.814 54.0362 108.774 58.685 107.62 60.6302C106.706 62.1734 105.87 63.758 105.112 65.384C103.533 66.572 101.919 67.7114 100.272 68.8022C97.7672 67.7065 95.1386 66.9192 92.4441 66.4575C91.5694 66.272 90.6692 66.2398 89.7835 66.3624C89.372 66.4276 88.9777 66.5746 88.6239 66.7945C88.2701 67.0144 87.9639 67.303 87.7233 67.6431C87.4827 67.9832 87.3126 68.368 87.2231 68.7749C87.1335 69.1818 87.1263 69.6024 87.2018 70.0121C87.5124 71.7419 88.7806 73.0377 90.3378 73.9946C90.1201 74.0383 89.9008 74.0774 89.6807 74.1096C88.3318 74.211 87.0734 74.827 86.1659 75.8302C85.7096 76.426 85.429 77.1375 85.356 77.8844C85.283 78.6313 85.4204 79.3837 85.7527 80.0566C86.103 80.7224 86.6109 81.2925 87.2321 81.7171C87.8533 82.1417 88.5689 82.4079 89.3165 82.4925C90.9206 82.5629 92.515 82.2096 93.9392 81.4681C96.5263 80.3679 99.6201 79.2254 101.837 77.2863C103.465 77.5301 105.101 77.7134 106.744 77.836C107.105 77.8901 107.475 77.8516 107.817 77.7241C108.675 77.274 108.531 76.6921 111.605 73.6603C111.605 73.737 113.923 80.4652 111.261 100.484C120.105 98.4779 128.333 94.3637 135.243 88.4916C135.444 88.3434 135.608 88.1525 135.726 87.9326C135.836 87.6241 135.856 87.2905 135.783 86.9711Z" fill="#FFB43B"/>
<path d="M101.161 54.1168C101.101 54.1168 101.041 54.1027 100.988 54.0757C100.934 54.0486 100.888 54.0093 100.852 53.961C100.816 53.9126 100.792 53.8565 100.782 53.7973C100.772 53.7381 100.776 53.6773 100.794 53.6199C101.085 52.6778 101.311 51.7168 101.471 50.7438C101.48 50.6893 101.48 50.6335 101.471 50.579C101.254 50.3148 101.013 50.0714 100.751 49.8521C100.675 49.7862 100.629 49.6934 100.621 49.5937C100.613 49.4939 100.644 49.395 100.708 49.3181C100.773 49.2412 100.864 49.1925 100.964 49.1822C101.063 49.1719 101.163 49.201 101.241 49.2632C101.509 49.487 101.757 49.7324 101.984 49.997C102.092 50.1127 102.17 50.2525 102.212 50.4046C102.254 50.5567 102.259 50.7167 102.226 50.8711C102.061 51.8777 101.827 52.8717 101.526 53.8461C101.502 53.9242 101.453 53.9926 101.388 54.0413C101.322 54.09 101.243 54.1164 101.161 54.1168Z" fill="#4B1010"/>
<path d="M112.963 42.2751C113.682 44.0778 113.977 46.0219 113.823 47.9567C113.799 50.1002 113.568 52.2363 113.133 54.3353C112.708 56.6355 111.73 58.7979 110.284 60.6364C110.632 57.2478 110.272 53.8238 109.225 50.5821C108.514 48.4467 107.227 46.5493 105.506 45.099C105.901 46.9753 105.89 46.8748 105.868 46.9753C105.825 47.1048 105.653 47.0941 105.524 47.0872C104.266 47.0265 103.023 47.3804 101.986 48.0947C100.479 48.9311 99.1695 50.0817 98.1464 51.4684C97.1249 52.8678 96.6392 54.5872 96.7777 56.3143C95.4075 54.0183 94.7512 51.3666 94.8923 48.6966C94.7774 46.1413 95.3168 43.599 96.4595 41.3105C97.0971 40.1095 98.003 39.0716 99.1066 38.2773C100.21 37.4831 101.482 36.9538 102.824 36.7307C107.082 35.9778 111.112 38.4966 112.963 42.2751Z" fill="#FFB43B"/>
<path d="M103.77 48.8483C103.688 48.8485 103.609 48.8229 103.543 48.7751C103.478 48.7273 103.429 48.6598 103.404 48.5824C103.379 48.505 103.379 48.4216 103.405 48.3444C103.43 48.2672 103.48 48.2001 103.546 48.1528C103.974 47.8438 104.479 47.6597 105.006 47.6211C105.532 47.5826 106.059 47.691 106.528 47.9343C106.573 47.9574 106.612 47.9891 106.645 48.0276C106.677 48.0661 106.702 48.1106 106.717 48.1586C106.733 48.2065 106.738 48.2571 106.734 48.3073C106.73 48.3575 106.716 48.4063 106.693 48.4511C106.67 48.4959 106.638 48.5356 106.599 48.5681C106.561 48.6006 106.516 48.6252 106.468 48.6405C106.42 48.6559 106.37 48.6616 106.32 48.6573C106.27 48.6531 106.221 48.6391 106.176 48.6159C105.833 48.4378 105.447 48.3584 105.062 48.3867C104.676 48.415 104.306 48.5498 103.993 48.7762C103.928 48.8229 103.85 48.8481 103.77 48.8483Z" fill="#4B1010"/>
<path d="M102.759 55.0934C102.711 55.0806 102.665 55.0583 102.625 55.0278C102.585 54.9973 102.551 54.9592 102.526 54.9157C102.5 54.8722 102.484 54.8241 102.477 54.7742C102.47 54.7243 102.473 54.6736 102.486 54.6249C102.499 54.5762 102.521 54.5306 102.552 54.4905C102.582 54.4504 102.621 54.4168 102.664 54.3914C102.708 54.3661 102.756 54.3495 102.805 54.3428C102.855 54.336 102.906 54.3391 102.955 54.352C103.266 54.4332 103.593 54.4332 103.904 54.352C104.099 54.2367 104.267 54.0801 104.395 53.893C104.523 53.7059 104.609 53.493 104.645 53.2693C104.657 53.2202 104.679 53.1739 104.709 53.1331C104.739 53.0923 104.776 53.0578 104.82 53.0317C104.863 53.0055 104.911 52.9882 104.961 52.9807C105.011 52.9732 105.062 52.9756 105.111 52.9879C105.16 53.0002 105.206 53.0221 105.247 53.0523C105.288 53.0825 105.322 53.1204 105.348 53.1639C105.373 53.2074 105.39 53.2555 105.398 53.3056C105.405 53.3557 105.402 53.4067 105.389 53.4556C105.329 53.8069 105.185 54.1382 104.968 54.421C104.751 54.7037 104.469 54.9292 104.145 55.0781C103.692 55.2058 103.214 55.2111 102.759 55.0934Z" fill="#4B1010"/>
<path d="M88.5226 65.9369C88.4881 65.7407 88.4148 65.5533 88.3072 65.3856C88.2525 65.2956 88.1713 65.2248 88.0747 65.183C87.9781 65.1412 87.8709 65.1304 87.7679 65.1521C87.6649 65.1738 87.5711 65.227 87.4996 65.3042C87.4281 65.3815 87.3824 65.479 87.3687 65.5834C87.3257 65.7936 87.3257 66.0104 87.3687 66.2206C87.2678 65.8973 87.082 65.607 86.8308 65.3799C86.5796 65.1528 86.272 64.9972 85.9402 64.9294C85.8738 64.9075 85.8027 64.904 85.7345 64.9191C85.6662 64.9342 85.6033 64.9674 85.5523 65.0152C85.5284 65.068 85.516 65.1253 85.516 65.1832C85.516 65.2411 85.5284 65.2983 85.5523 65.3511C85.5942 65.5352 85.6608 65.7129 85.7501 65.8794C85.5592 65.6286 85.221 65.4738 84.9833 65.6494C84.8943 65.728 84.8318 65.8323 84.8043 65.9478C84.7769 66.0634 84.7858 66.1847 84.83 66.295C84.9057 66.4757 85.0132 66.6414 85.1474 66.7841C85.0517 66.7373 84.9419 66.7283 84.8399 66.7588C84.7378 66.7894 84.6511 66.8573 84.5969 66.949C84.5437 67.0686 84.5207 67.1994 84.5298 67.33C84.5389 67.4606 84.5798 67.587 84.649 67.6981C85.2019 68.5273 86.0471 69.1176 87.016 69.3512C87.1176 68.7551 87.3146 68.1793 87.5995 67.646C87.8596 67.2506 88.2079 66.921 88.617 66.6829C88.5996 66.4327 88.5681 66.1836 88.5226 65.9369Z" fill="white"/>
<path d="M115.819 93.7751C115.387 93.5384 115.039 93.1746 114.822 92.7331C114.607 92.1282 114.648 92.0308 114.554 89.6884C114.484 87.9049 114.41 86.0609 114.401 84.2445C114.401 84.154 114.433 84.0664 114.492 83.9974C114.55 83.9284 114.631 83.8822 114.72 83.8672C114.81 83.8521 114.901 83.8691 114.979 83.9151C115.057 83.9612 115.116 84.0333 115.146 84.1187C115.325 84.6365 115.559 85.1336 115.843 85.6016C116.296 86.3975 116.973 87.0425 117.79 87.4564C119.553 88.3389 121.759 88.1924 122.606 86.3791C122.643 86.3 122.706 86.2359 122.784 86.1974C122.862 86.1589 122.951 86.1482 123.036 86.1671C123.122 86.1861 123.198 86.2335 123.252 86.3016C123.307 86.3697 123.337 86.4544 123.337 86.5416C123.337 87.6396 123.285 88.8097 123.183 90.1185C123.164 90.5452 123.082 90.9666 122.939 91.3691C122.527 92.0855 121.956 92.6975 121.27 93.1574C120.584 93.6174 119.8 93.913 118.981 94.0213C117.931 94.3123 116.811 94.2252 115.819 93.7751ZM115.196 86.0049C115.224 87.2317 115.372 90.9389 115.395 91.5784C115.388 91.8708 115.434 92.1621 115.529 92.4387C115.674 92.7132 115.895 92.9401 116.165 93.092C117 93.4591 117.938 93.5226 118.815 93.2714C120.126 93.0506 121.667 92.2746 122.232 91.0754C122.341 90.7504 122.404 90.4114 122.419 90.0687C122.485 89.2452 122.529 88.483 122.553 87.7615C120.753 89.4913 116.88 88.9201 115.196 86.0049Z" fill="#4B1010"/>
<path d="M105.278 51.8441C105.278 52.3984 105.498 52.93 105.89 53.322C106.282 53.714 106.814 53.9342 107.368 53.9342C107.922 53.9342 108.454 53.714 108.846 53.322C109.238 52.93 109.458 52.3984 109.458 51.8441C109.458 51.2897 109.238 50.7581 108.846 50.3661C108.454 49.9741 107.922 49.7539 107.368 49.7539C106.814 49.7539 106.282 49.9741 105.89 50.3661C105.498 50.7581 105.278 51.2897 105.278 51.8441Z" fill="white"/>
<path d="M102.555 106.191C103.503 105.338 104.14 104.193 104.363 102.937C105.127 105.081 106.4 107.007 108.073 108.55C108.423 108.86 108.743 109.203 109.029 109.574C109.571 110.656 109.672 111.905 109.312 113.06C109.055 114.351 108.719 115.624 108.306 116.873C108.306 116.96 108.253 116.917 108.159 116.926L106.764 116.995C106.661 116.082 106.627 115.333 106.438 114.266C106.402 114.267 106.368 114.276 106.337 114.292C106.305 114.309 106.278 114.332 106.257 114.36C104.776 115.785 102.938 116.784 100.937 117.252C99.9815 117.585 98.9668 117.714 97.9583 117.631C97.815 117.611 97.6852 117.535 97.5968 117.421C97.5084 117.306 97.4684 117.161 97.4852 117.018C97.5413 116.871 97.6366 116.744 97.7605 116.648C98.4406 116.035 99.1905 115.504 99.8437 114.857C100.973 113.74 102.374 111.925 101.565 110.278C101.209 109.572 100.728 108.936 100.145 108.401L98.9397 107.144C100.223 107.311 101.521 106.969 102.555 106.191Z" fill="#FFB43B"/>
<path d="M138.96 114.191L138.4 109.981L124.437 111.367L127.665 106.451L117.508 108.182C116.929 111.095 114.977 113.892 117.077 116.79C118.377 118.314 120.681 118.356 122.675 118.185C128.129 117.726 133.502 116.569 138.661 114.741C138.754 114.717 138.839 114.67 138.91 114.604C138.946 114.542 138.969 114.474 138.977 114.402C138.986 114.331 138.98 114.259 138.96 114.191Z" fill="white"/>
<path d="M145.235 106.716C145.231 106.487 145.154 106.264 145.015 106.081C144.875 105.899 144.681 105.765 144.461 105.7C144.1 105.646 144.063 105.687 141.74 106.2C141.151 106.288 140.573 106.444 140.019 106.664C139.624 106.888 139.271 107.18 138.977 107.525C138.367 108.231 137.643 109.247 136.687 109.531C135.784 109.682 134.873 109.78 133.958 109.824C136.478 109.796 137.546 113.839 135.129 116.203L141.301 114.661C144.981 113.645 146.096 114.101 149.471 115.014C149.577 115.059 149.691 115.083 149.806 115.083C149.921 115.083 150.035 115.059 150.142 115.014C150.426 114.825 150.364 114.387 150.228 114.067C149.514 112.393 147.913 111.278 146.363 110.305C146.363 110.229 145.692 109.891 145.596 109.832C144.02 108.85 143.761 108.751 143.255 108.395C144.412 107.307 145.148 107.303 145.226 106.742C145.227 106.753 145.235 106.733 145.235 106.716Z" fill="#FFB43B"/>
<path d="M150.581 113.919C149.844 112.166 148.232 111.03 146.632 110.023C146.423 109.845 146.191 109.698 145.942 109.586C145.718 109.465 144 108.425 143.885 108.353C144.795 107.614 145.473 107.522 145.6 106.835C145.612 106.797 145.618 106.757 145.618 106.716V106.708C145.615 106.482 145.558 106.26 145.453 106.059C145.347 105.859 145.196 105.687 145.011 105.556C144.826 105.426 144.613 105.341 144.389 105.308C144.166 105.276 143.937 105.297 143.723 105.369L141.683 105.821C141.048 105.917 140.427 106.088 139.832 106.33C139.254 106.672 138.751 107.125 138.353 107.665C137.911 108.308 137.307 108.823 136.602 109.157C135.713 109.299 134.817 109.394 133.918 109.442C133.85 109.449 133.785 109.475 133.729 109.516C133.674 109.557 133.631 109.612 133.605 109.676C133.578 109.739 133.569 109.809 133.579 109.877C133.588 109.945 133.616 110.01 133.659 110.063L125.196 110.907L126.749 108.541C127.781 108.853 128.881 108.856 129.914 108.55L130.122 108.511C130.441 108.501 130.756 108.428 131.047 108.295C131.338 108.162 131.6 107.973 131.817 107.738C131.927 107.537 131.994 107.316 132.014 107.089C132.035 106.861 132.008 106.632 131.935 106.415C131.705 105.46 132.291 104.155 132.76 103.107C133.143 102.258 132.97 102.628 133.68 100.875C135.23 97.0638 136.805 93.0537 135.471 88.7178C135.7 88.4784 135.913 88.2243 136.109 87.9571C136.161 87.882 136.185 87.7906 136.176 87.6995C134.796 74.0974 131.772 67.8591 127.007 61.6791C123.599 57.2649 118.641 54.0883 113.732 53.1682C114.031 51.4591 114.187 49.7283 114.199 47.9934C114.355 45.9999 114.052 43.9972 113.313 42.1393C112.805 41.0928 112.132 40.1348 111.319 39.3023C111.498 39.1458 111.629 38.9415 111.696 38.7134C111.763 38.4852 111.764 38.2427 111.698 38.0142C111.632 37.836 111.52 37.6783 111.374 37.5572C111.227 37.436 111.051 37.3556 110.864 37.3241C110.86 36.9559 110.772 36.5934 110.608 36.2639C110.443 35.9344 110.206 35.6465 109.915 35.4218C109.606 35.2157 109.249 35.0917 108.879 35.0614C108.509 35.0311 108.137 35.0955 107.799 35.2485C107.628 34.9771 107.387 34.757 107.101 34.6115C106.815 34.466 106.495 34.4005 106.175 34.422C105.765 34.4775 105.391 34.6884 105.131 35.0113C104.872 35.3341 104.746 35.7442 104.78 36.1571C104.785 36.1862 104.792 36.2146 104.799 36.2437C103.033 36.1472 101.277 36.5579 99.7366 37.4274C98.1967 38.297 96.9378 39.589 96.1085 41.1509C94.9442 43.4853 94.392 46.0772 94.5037 48.6835C94.3552 51.4301 95.0304 54.1585 96.4428 56.5189C96.4872 56.5937 96.5557 56.6512 96.637 56.6819C96.7184 56.7126 96.8077 56.7148 96.8905 56.6881C96.9732 56.6613 97.0444 56.6072 97.0924 56.5347C97.1403 56.4622 97.1622 56.3755 97.1544 56.2889C97.0529 54.9883 97.3223 53.6856 97.9311 52.5318C98.3927 53.8747 99.1854 55.0796 100.236 56.0351C101.189 56.9548 102.431 57.517 103.751 57.6268C105.072 57.7366 106.389 57.3873 107.482 56.6377C107.933 57.1424 108.319 57.7016 108.632 58.3023C107.355 60.2416 106.202 62.2601 105.181 64.3459C103.696 65.8888 102.018 67.2342 100.189 68.3491C97.7293 67.2933 95.1533 66.5318 92.5148 66.0802C91.3377 65.8019 90.1077 65.8427 88.9517 66.1983C88.9262 65.8409 88.8169 65.4944 88.6327 65.187C88.5553 65.0601 88.4476 64.9545 88.3192 64.8797C88.1908 64.8049 88.0458 64.7633 87.8972 64.7586C87.7487 64.7539 87.6013 64.7862 87.4684 64.8527C87.3356 64.9192 87.2213 65.0178 87.136 65.1395C86.8385 64.8492 86.4642 64.6499 86.0572 64.5652C85.9258 64.522 85.7852 64.5151 85.6502 64.5453C85.5152 64.5756 85.3909 64.6418 85.2905 64.7369C85.1821 64.8648 85.1272 65.0296 85.1371 65.197C84.9981 65.2231 84.8672 65.2816 84.755 65.3677C84.6428 65.4538 84.5523 65.565 84.491 65.6925C84.4297 65.8199 84.3991 65.96 84.4019 66.1014C84.4046 66.2428 84.4406 66.3816 84.5069 66.5066C84.3093 66.6783 84.1823 66.9171 84.1504 67.1769C84.1186 67.4368 84.1841 67.6992 84.3343 67.9135C84.9107 68.7794 85.7795 69.4089 86.7818 69.687C86.8764 70.4773 87.138 71.2385 87.5493 71.9199C87.9605 72.6014 88.512 73.1876 89.1672 73.6396C87.9126 73.9672 86.7731 74.6354 85.8747 75.5703C85.4803 76.0809 85.2039 76.6725 85.0652 77.3026C84.9266 77.9327 84.9291 78.5857 85.0727 79.2147C84.809 79.368 84.6173 79.5904 84.4724 79.6816C84.2774 79.7602 84.0673 79.7941 83.8575 79.7808C83.6478 79.7676 83.4436 79.7075 83.2601 79.6049C82.9872 79.4425 82.6629 79.3891 82.3523 79.4554C82.21 79.5058 82.0827 79.5913 81.9823 79.704C81.8819 79.8168 81.8116 79.9531 81.778 80.1003C81.7419 80.2657 81.7414 80.437 81.7767 80.6027C81.812 80.7684 81.8823 80.9246 81.9827 81.061C81.8156 81.0576 81.6495 81.0881 81.4945 81.1507C81.3396 81.2133 81.1989 81.3067 81.081 81.4252C80.9122 81.6138 80.8188 81.858 80.8188 82.1111C80.8188 82.3641 80.9122 82.6083 81.081 82.7969C81.3037 82.971 81.5562 83.103 81.8263 83.1864L81.8171 83.1949C81.66 83.2884 81.5378 83.4306 81.469 83.6C81.4002 83.7694 81.3886 83.9566 81.436 84.1331C81.4834 84.3097 81.5872 84.4659 81.7315 84.5781C81.8759 84.6902 82.0529 84.7522 82.2357 84.7544C82.5027 84.7405 82.7599 84.6497 82.9764 84.493C84.3865 83.6925 85.4653 82.4227 86.8868 81.9404L86.9206 81.9274C87.625 82.4347 88.4485 82.7517 89.3113 82.8475C90.9648 82.9263 92.6101 82.5715 94.0843 81.8185C96.8462 80.6314 99.5242 79.2581 102.1 77.708C103.63 77.9304 105.162 78.0985 106.695 78.2125C107.139 78.2771 107.592 78.2242 108.009 78.0592C108.33 77.8882 108.607 77.6474 108.822 77.3545C109.682 76.3097 110.493 75.2288 111.253 74.1119C111.773 77.2929 112.053 80.5086 112.088 83.7316C109.884 85.2173 107.378 86.1957 104.75 86.5962C104.696 86.6042 104.645 86.6233 104.6 86.6524C104.555 86.6815 104.516 86.7198 104.486 86.7649C104.457 86.81 104.437 86.8608 104.428 86.914C104.42 86.9673 104.422 87.0217 104.436 87.0738C99.4217 87.4848 97.8613 87.5117 94.894 88.1956C93.1305 88.6257 91.0718 89.8924 90.7014 91.6567C90.3311 93.421 91.1523 95.3685 91.906 96.6858C93.9451 100.251 96.3063 103.623 98.9601 106.758C98.8831 106.754 98.8069 106.774 98.7414 106.815C98.6759 106.855 98.6241 106.914 98.5927 106.985C98.5614 107.055 98.5519 107.133 98.5656 107.209C98.5793 107.285 98.6155 107.355 98.6695 107.41L99.8901 108.681C100.438 109.184 100.89 109.781 101.225 110.444C101.915 111.847 100.698 113.478 99.5804 114.585C98.6173 115.536 97.3568 116.308 97.1337 116.88C97.1031 117.007 97.0997 117.139 97.1239 117.267C97.1481 117.395 97.1992 117.517 97.2738 117.624C97.3485 117.73 97.445 117.82 97.557 117.887C97.669 117.954 97.7939 117.996 97.9234 118.011C98.9744 118.1 100.033 117.969 101.03 117.627C102.937 117.18 104.702 116.266 106.168 114.967C106.27 115.7 106.307 116.301 106.391 117.038C106.403 117.134 106.45 117.223 106.525 117.285C106.599 117.348 106.694 117.381 106.791 117.377L108.207 117.309C108.313 117.327 108.421 117.303 108.509 117.243C108.598 117.182 108.659 117.09 108.68 116.985C109.093 115.736 109.429 114.464 109.686 113.175C110.082 111.902 109.958 110.523 109.342 109.341C109.044 108.952 108.711 108.593 108.345 108.268C106.718 106.763 105.479 104.888 104.732 102.801C104.703 102.721 104.648 102.653 104.575 102.608C104.503 102.563 104.418 102.544 104.333 102.552C104.248 102.561 104.169 102.598 104.107 102.657C104.045 102.716 104.005 102.794 103.993 102.878C102.429 100.397 100.978 97.8469 99.6463 95.2343C101.318 95.1577 102.769 95.0427 104.416 95.0289C104.277 97.086 106.542 98.1112 106.927 99.7336C107.18 100.807 106.611 102.001 107.031 103.212C107.538 104.694 109.243 105.309 110.669 105.391C111.99 105.467 113.522 105.079 114.759 105.46C116.008 105.854 115.647 107.247 117.093 108.327C116.463 111.151 114.596 114.007 116.795 117.033C117.891 118.317 119.595 118.632 121.23 118.632C125.823 118.393 130.373 117.633 134.794 116.367C134.826 116.432 134.874 116.486 134.935 116.524C134.996 116.562 135.066 116.582 135.138 116.582C135.214 116.582 134.78 116.77 141.413 115.027C144.921 114.107 145.983 114.457 149.33 115.364C149.495 115.431 149.672 115.463 149.851 115.457C150.029 115.451 150.203 115.407 150.364 115.329C150.561 115.158 150.692 114.923 150.732 114.664C150.772 114.406 150.718 114.142 150.581 113.919ZM104.432 104.113C106.036 107.626 107.86 108.69 108.686 109.746C109.19 110.752 109.28 111.914 108.937 112.985C108.696 114.19 108.386 115.38 108.008 116.549L107.108 116.594C106.845 114.017 106.849 114.593 106.849 114.266C106.843 114.161 106.797 114.063 106.72 113.992C106.644 113.92 106.543 113.881 106.438 113.882C106.354 113.882 106.27 113.899 106.192 113.934C106.115 113.969 106.047 114.02 105.991 114.084C104.547 115.47 102.756 116.44 100.807 116.892C99.9112 117.202 98.9609 117.325 98.0154 117.252C97.9781 117.247 97.9435 117.23 97.9169 117.203C97.8902 117.176 97.8729 117.142 97.8675 117.104C98.0009 116.861 99.3296 115.905 100.114 115.131C101.97 113.291 102.617 111.544 101.906 110.105C101.381 109.144 100.691 108.284 99.8687 107.561C100.939 107.514 101.967 107.135 102.812 106.476C103.531 105.827 104.086 105.017 104.432 104.113ZM105.622 92.1766C105.316 92.8743 104.832 93.5069 104.57 94.2644C102.644 94.2728 101.023 94.4178 99.0114 94.4944C98.9473 94.4969 98.8848 94.5153 98.8297 94.5482C98.7745 94.581 98.7285 94.6272 98.6959 94.6824C98.6632 94.7377 98.6449 94.8003 98.6427 94.8644C98.6405 94.9285 98.6545 94.9922 98.6833 95.0496C100.202 98.074 101.878 101.017 103.704 103.867C103.406 104.638 102.932 105.328 102.32 105.884C101.646 106.405 100.834 106.717 99.9845 106.782C97.1798 103.536 94.6957 100.027 92.5669 96.3032C91.8768 95.1009 91.1262 93.3451 91.4475 91.8116C91.7327 90.4514 93.5277 89.3158 95.0665 88.9393C98.0346 88.2546 99.3649 88.2615 105.034 87.7892C105.512 88.4031 105.818 89.1327 105.921 89.9035C106.024 90.6742 105.921 91.4586 105.622 92.1766ZM97.8383 51.2406C97.0724 52.2951 96.5879 53.5275 96.4306 54.8213C95.5577 52.8973 95.1632 50.7907 95.2804 48.6812C95.1706 46.1948 95.6938 43.7212 96.8009 41.4921C97.4091 40.3408 98.2754 39.3458 99.3321 38.5849C100.389 37.8241 101.607 37.318 102.892 37.1063C106.745 36.4285 110.742 38.6168 112.615 42.4276C113.31 44.1821 113.593 46.0725 113.443 47.9535C113.42 50.0748 113.191 52.1889 112.761 54.2662C112.431 56.0427 111.766 57.7403 110.802 59.2684C110.887 56.6504 110.589 54.034 109.918 51.5021C109.283 48.8807 107.824 46.532 105.756 44.8007C105.695 44.75 105.619 44.7196 105.54 44.7138C105.46 44.7079 105.381 44.7268 105.313 44.7679C105.245 44.809 105.192 44.8703 105.16 44.9432C105.128 45.0161 105.12 45.097 105.136 45.1748L105.475 46.6984C104.171 46.6604 102.888 47.0303 101.804 47.7565C100.248 48.6211 98.896 49.8092 97.8383 51.2406ZM104.994 56.8118C102.463 57.2151 99.6087 55.4217 98.4855 51.6554C99.481 50.3223 100.748 49.2156 102.203 48.4082C103.174 47.7524 104.329 47.4226 105.5 47.4667C105.897 47.495 106.142 47.3677 106.241 47.0664C106.292 46.864 106.253 46.7796 106.129 46.1877C107.74 47.8893 108.85 50.0031 109.335 52.2956C109.159 53.4018 108.648 54.4275 107.872 55.2353C107.096 56.0431 106.092 56.5942 104.994 56.8149V56.8118ZM108.084 56.147C108.376 55.8741 108.64 55.5734 108.874 55.2492C109.185 54.8192 109.447 54.3564 109.655 53.869C109.793 54.6954 109.898 55.527 109.969 56.3617C109.679 56.7635 109.395 57.1693 109.115 57.5793C108.819 57.0693 108.474 56.5898 108.084 56.1478V56.147ZM104.29 66.2689C103.797 67.3853 103.342 68.5183 102.923 69.6679C102.302 69.3336 101.674 69.0197 101.037 68.7263C102.185 67.9947 103.272 67.1729 104.29 66.2689ZM84.9738 67.4957C84.9382 67.4438 84.918 67.383 84.9156 67.3202C84.9131 67.2573 84.9285 67.1951 84.96 67.1407C85.3579 67.5164 85.9384 66.9106 85.4001 66.4935C85.0167 66.0603 85.1701 65.7912 85.4277 66.0872C85.4576 66.1416 85.4898 66.1945 85.5243 66.2474C85.5767 66.3284 85.6577 66.3866 85.7512 66.4105C85.8446 66.4345 85.9436 66.4223 86.0285 66.3764C86.1133 66.3305 86.1778 66.2544 86.209 66.1631C86.2402 66.0718 86.2358 65.9722 86.1968 65.884C86.1634 65.8086 86.1223 65.7369 86.0741 65.67C85.8111 65.1594 86.4322 65.3035 86.5157 65.3633C86.7594 65.6369 86.9273 65.9694 87.0026 66.3279C87.0322 66.4214 87.0965 66.5001 87.1822 66.5477C87.268 66.5953 87.3688 66.6081 87.4638 66.5837C87.5588 66.5592 87.6408 66.4993 87.6929 66.4162C87.7451 66.3331 87.7634 66.2332 87.7441 66.137C87.7104 65.9683 87.7119 65.7944 87.7487 65.6263C87.751 65.6077 87.7575 65.5898 87.7677 65.574C87.778 65.5582 87.7916 65.5449 87.8077 65.5351C87.9841 65.4285 88.1144 65.818 88.1458 66.0036C88.1773 66.1891 88.211 66.3969 88.2225 66.5955C87.4663 67.1432 86.9581 67.9685 86.8094 68.8904C86.0594 68.6427 85.4134 68.1519 84.9738 67.4957ZM82.5547 83.8512C82.028 84.2399 81.9873 83.6212 82.0648 83.5514C82.3445 83.296 82.6731 83.1001 83.0309 82.9756C83.4825 82.8345 83.4372 82.4488 82.9703 82.5247C82.5701 82.5914 82.1591 82.5302 81.7956 82.3499C81.357 82.1329 81.6423 81.794 82.0425 81.8316C82.6384 81.9953 83.2708 81.966 83.849 81.748C83.939 81.7053 84.0089 81.6293 84.0439 81.536C84.0788 81.4427 84.0761 81.3394 84.0362 81.2481C83.9963 81.1568 83.9224 81.0846 83.8303 81.0468C83.7381 81.009 83.6348 81.0086 83.5423 81.0457C83.1589 81.2136 82.4282 80.6623 82.5217 80.2789C82.5293 80.246 82.547 80.2162 82.5723 80.1938C82.6801 80.1861 82.7876 80.2129 82.879 80.2705C83.1702 80.4333 83.4947 80.5273 83.8278 80.5452C84.1608 80.5631 84.4936 80.5046 84.8005 80.374C84.986 80.2574 85.1608 80.1245 85.3227 79.9768C85.552 80.4911 85.8714 80.9603 86.2658 81.3623C84.8688 81.9627 83.8758 83.0967 82.5547 83.8543V83.8512ZM93.7546 81.1246C92.4005 81.8197 90.8887 82.1501 89.368 82.0831C88.6841 82.0063 88.0293 81.7636 87.4606 81.3761C86.8918 80.9886 86.4264 80.4679 86.1048 79.8595C85.8028 79.2587 85.675 78.5855 85.7357 77.9158C85.7964 77.2462 86.0432 76.6069 86.4483 76.0702C87.4174 75.1 88.6681 74.4606 90.0221 74.2431C91.5938 75.1783 93.2967 75.8727 95.0742 76.3033C96.9908 76.795 98.9282 77.2015 100.881 77.5217C98.5884 78.8796 96.2085 80.0843 93.7569 81.1277L93.7546 81.1246ZM111.422 100.096C113.978 86.9335 112.509 75.2713 111.897 73.1313C113.234 71.0554 114.396 68.8725 115.372 66.6047C115.413 66.5113 115.415 66.4055 115.378 66.3107C115.34 66.2158 115.267 66.1397 115.173 66.099C115.08 66.0584 114.974 66.0565 114.879 66.0938C114.784 66.1311 114.708 66.2046 114.668 66.298C113.025 70.112 110.851 73.6744 108.21 76.8791C108.072 77.0725 107.895 77.2347 107.69 77.3553C107.398 77.4626 107.084 77.4932 106.776 77.4442C102.891 77.1542 99.0389 76.5212 95.2651 75.5527C92.6505 74.8802 88.1734 73.2524 87.57 69.901C87.4517 69.1813 87.623 68.444 88.0465 67.8502C88.4701 67.2564 89.1114 66.8544 89.8304 66.732C90.6778 66.6147 91.5392 66.6458 92.376 66.824C96.084 67.4588 99.6579 68.7164 102.946 70.5435C102.995 70.5705 103.049 70.5867 103.105 70.5907C103.16 70.5947 103.216 70.5866 103.268 70.5669C103.32 70.5472 103.367 70.5164 103.406 70.4766C103.445 70.4368 103.475 70.389 103.494 70.3365C105.097 65.8123 107.299 61.5231 110.04 57.5831C110.076 58.5834 110.031 59.585 109.905 60.5781C109.895 60.661 109.911 60.7452 109.953 60.8178C109.994 60.8904 110.059 60.9474 110.135 60.9801C110.212 61.0129 110.298 61.0196 110.379 60.9992C110.46 60.9787 110.532 60.9324 110.585 60.8671C112.067 58.9818 113.071 56.7656 113.51 54.408C113.542 54.2416 113.574 54.0753 113.605 53.9081C118.331 54.7975 123.113 57.8684 126.41 62.1353C131.072 68.1819 134.041 74.299 135.407 87.6136C134.691 88.513 129.189 94.7636 111.422 100.099V100.096ZM135.299 115.421C131.171 116.64 126.929 117.437 122.64 117.798C120.821 117.952 118.576 117.952 117.388 116.56C115.528 113.998 117.104 111.483 117.778 108.726C118.317 108.953 118.905 109.039 119.486 108.975C120.534 108.763 121.552 108.42 122.515 107.953C123.352 107.537 124.32 107.468 125.209 107.761C125.483 107.885 125.726 108.062 126.03 108.238L124.113 111.152C124.074 111.213 124.052 111.283 124.05 111.355C124.049 111.428 124.068 111.499 124.106 111.561C124.143 111.623 124.197 111.673 124.262 111.705C124.327 111.738 124.399 111.751 124.471 111.744L135.191 110.68C135.764 111.332 136.089 112.165 136.109 113.032C136.129 113.9 135.842 114.747 135.299 115.424V115.421ZM149.57 114.642C144.098 113.128 144.56 113.45 136.137 115.552C137.326 113.645 137.02 111.226 135.637 110.046C136.027 110.025 136.414 109.973 136.796 109.892C138.33 109.436 138.971 107.692 140.16 107.015C140.695 106.803 141.253 106.653 141.823 106.568C144.152 106.052 144.146 106.036 144.353 106.062C144.487 106.101 144.607 106.18 144.695 106.289C144.784 106.397 144.838 106.529 144.851 106.669C144.811 106.962 144.068 107.1 142.994 108.11C142.953 108.149 142.921 108.196 142.9 108.249C142.88 108.302 142.871 108.359 142.875 108.416C142.879 108.473 142.896 108.528 142.924 108.577C142.952 108.627 142.991 108.67 143.037 108.702C143.783 109.225 145.951 110.452 146.056 110.527C146.293 110.848 148.959 112.027 149.878 114.214C149.928 114.358 149.967 114.505 149.995 114.655C149.927 114.683 149.854 114.696 149.781 114.694C149.708 114.692 149.636 114.675 149.57 114.645V114.642Z" fill="#4B1010"/>
<path d="M89.7358 92.3192C89.7358 92.7463 89.82 93.1693 89.9834 93.5639C90.1469 93.9585 90.3865 94.3171 90.6885 94.6191C90.9905 94.9211 91.3491 95.1607 91.7437 95.3242C92.1383 95.4876 92.5613 95.5717 92.9884 95.5717C93.4155 95.5717 93.8385 95.4876 94.2331 95.3242C94.6277 95.1607 94.9863 94.9211 95.2883 94.6191C95.5903 94.3171 95.8299 93.9585 95.9934 93.5639C96.1568 93.1693 96.2409 92.7463 96.2409 92.3192C96.2409 91.8921 96.1568 91.4691 95.9934 91.0745C95.8299 90.6799 95.5903 90.3213 95.2883 90.0193C94.9863 89.7173 94.6277 89.4777 94.2331 89.3142C93.8385 89.1508 93.4155 89.0667 92.9884 89.0667C92.5613 89.0667 92.1383 89.1508 91.7437 89.3142C91.3491 89.4777 90.9905 89.7173 90.6885 90.0193C90.3865 90.3213 90.1469 90.6799 89.9834 91.0745C89.82 91.4691 89.7358 91.8921 89.7358 92.3192Z" fill="white"/>
<path d="M114.825 115.952C114.825 116.823 115.171 117.658 115.786 118.274C116.402 118.889 117.237 119.235 118.108 119.235C118.979 119.235 119.814 118.889 120.43 118.274C121.045 117.658 121.391 116.823 121.391 115.952C121.391 115.081 121.045 114.246 120.43 113.63C119.814 113.015 118.979 112.669 118.108 112.669C117.237 112.669 116.402 113.015 115.786 113.63C115.171 114.246 114.825 115.081 114.825 115.952Z" fill="white"/>
<path d="M109.764 102.076C109.666 102.055 109.58 101.996 109.525 101.912C109.47 101.828 109.45 101.726 109.47 101.627C109.489 101.529 109.546 101.442 109.629 101.385C109.712 101.328 109.814 101.306 109.912 101.324C113.04 101.93 116.265 101.814 119.341 100.985C122.417 100.156 125.263 98.6357 127.663 96.5401C127.739 96.4754 127.838 96.4433 127.938 96.4508C128.038 96.4582 128.132 96.5046 128.198 96.58C128.264 96.6554 128.298 96.7537 128.293 96.8539C128.287 96.9541 128.243 97.0482 128.169 97.1159C125.681 99.289 122.73 100.865 119.54 101.725C116.351 102.585 113.007 102.705 109.764 102.076Z" fill="white"/>
<path d="M117.925 105.468C120.645 104.73 123.171 103.408 125.327 101.594C127.501 99.7482 129.539 97.7476 131.423 95.6077C131.491 95.5313 131.585 95.4848 131.687 95.4783C131.788 95.4718 131.888 95.506 131.965 95.5732C132.041 95.6404 132.088 95.7352 132.094 95.8367C132.101 95.9382 132.066 96.0381 131.999 96.1145C130.089 98.2827 128.025 100.31 125.822 102.179C123.579 104.066 120.952 105.441 118.124 106.208C118.027 106.231 117.926 106.215 117.84 106.164C117.755 106.113 117.693 106.03 117.667 105.934C117.641 105.838 117.654 105.736 117.702 105.649C117.75 105.562 117.83 105.497 117.925 105.468Z" fill="white"/>
<path d="M97.3271 53.8178C97.3271 54.2995 97.5185 54.7615 97.8592 55.1022C98.1998 55.4428 98.6618 55.6342 99.1436 55.6342C99.6253 55.6342 100.087 55.4428 100.428 55.1022C100.769 54.7615 100.96 54.2995 100.96 53.8178C100.96 53.336 100.769 52.874 100.428 52.5334C100.087 52.1927 99.6253 52.0013 99.1436 52.0013C98.6618 52.0013 98.1998 52.1927 97.8592 52.5334C97.5185 52.874 97.3271 53.336 97.3271 53.8178Z" fill="white"/>
</svg>
