<svg width="154" height="155" viewBox="0 0 154 155" fill="none" xmlns="http://www.w3.org/2000/svg">
<path d="M25.028 88.4736C24.9882 97.4132 24.7363 97.2884 25.6352 97.2026C27.1888 97.0771 28.7487 97.0471 30.306 97.113C30.4374 97.1292 30.5589 97.1911 30.6493 97.2877C30.7398 97.3844 30.7934 97.5098 30.8009 97.6419C30.8084 97.7741 30.7692 97.9047 30.6902 98.0109C30.6113 98.1172 30.4975 98.1923 30.3688 98.2233C29.4162 98.492 21.0272 98.639 19.0157 98.6061C17.4032 98.5778 19.113 102.128 17.9721 146.344C17.9499 147.206 17.819 148.067 17.7301 148.927C17.7064 149.161 17.7026 149.463 17.3741 149.44C16.2477 149.354 17.3649 98.7968 17.3649 98.7807C17.3764 97.8029 17.5349 97.6613 18.4981 97.5969C24.0625 97.2233 24.149 97.5579 24.1184 96.5785C23.907 89.7738 24.0257 82.9675 23.9599 76.1612C23.9453 74.7063 23.7761 74.5915 25.0104 74.4644C27.8052 74.1765 33.6222 73.9001 34.2807 73.9108C34.3374 73.9039 34.3948 73.9087 34.4495 73.9248C34.5042 73.9409 34.5551 73.968 34.5989 74.0044C34.6428 74.0409 34.6788 74.0859 34.7046 74.1367C34.7305 74.1876 34.7456 74.2432 34.7492 74.3001C34.7528 74.357 34.7448 74.4141 34.7256 74.4678C34.7063 74.5215 34.6763 74.5707 34.6374 74.6124C34.5985 74.654 34.5515 74.6874 34.4992 74.7102C34.447 74.7331 34.3906 74.7451 34.3336 74.7454C32.1559 74.9751 27.0832 75.2171 25.5816 75.2684C24.3274 75.3074 25.0847 75.6443 25.028 88.4736Z" fill="#38A1FF"/>
<path d="M134.422 88.4161C134.422 93.3724 134.162 93.4352 135.072 93.41C137.866 93.3334 138.32 93.3617 138.332 94.2959C138.842 135.198 139.454 135.004 138.528 135.216C138.114 135.31 137.966 134.783 137.956 134.297C137.807 127.897 137.239 101.232 137.343 94.9781C137.361 93.9536 137.015 94.7767 127.091 94.5562C126.001 94.5325 125.696 94.4283 125.719 93.9766C125.754 93.2874 127.403 93.4735 130.345 93.4107C133.249 93.3487 133.516 93.6404 133.513 92.7867C133.476 82.1289 133.16 82.498 135.286 82.4382C142.018 82.2483 142.744 81.962 142.733 82.7277C142.726 83.279 142.714 83.3234 135.129 83.3326C134.164 83.3364 134.422 83.3548 134.422 88.4161Z" fill="#38A1FF"/>
<path d="M11.6626 150.3C11.1519 150.271 11.3149 149.554 11.2989 149.152C11.256 148.067 11.0278 81.4537 11.9574 81.4422C12.6656 81.433 12.3839 81.4361 12.3525 110.086C11.916 110.087 12.6197 150.354 11.6626 150.3Z" fill="#38A1FF"/>
<path d="M74.3419 86.3755C74.0693 86.8916 73.6275 86.8242 73.4346 86.364C73.1566 85.701 72.8052 60.6786 73.0517 58.9168C73.0517 58.7908 73.1018 58.6699 73.1909 58.5808C73.28 58.4917 73.4008 58.4417 73.5268 58.4417C73.6529 58.4417 73.7737 58.4917 73.8628 58.5808C73.9519 58.6699 74.002 58.7908 74.002 58.9168C74.2455 60.5875 74.6298 85.8281 74.3419 86.3755Z" fill="#38A1FF"/>
<path d="M123.823 103.392C123.364 103.43 123.062 104.649 123.147 80.4344C123.147 79.6121 123.2 79.8724 117.104 79.8318C116.658 79.8318 116.228 79.7744 116.236 79.3831C116.244 78.9919 116.638 79.0179 117.346 79.0156C124.361 78.988 124.209 78.7338 124.238 79.9574C124.233 79.975 124.477 103.34 123.823 103.392Z" fill="#38A1FF"/>
<path fill-rule="evenodd" clip-rule="evenodd" d="M36.583 67.9873V67.9582C36.5983 67.0799 36.5991 67.0753 37.5126 66.9995C38.0631 66.9536 38.4927 66.9306 38.8265 66.9115C39.9475 66.8502 40.0072 66.8464 39.998 66.2614C39.9138 60.6082 39.9843 57.0447 40.0455 53.926C40.0631 53.0531 40.0792 52.2154 40.0915 51.377C40.1022 50.6488 40.4062 50.6388 42.2729 50.5806L42.4261 50.5753C42.8518 50.5615 42.8541 50.2736 42.8564 49.9083C42.8602 49.3739 42.8656 48.674 44.1987 48.4259C44.4406 48.3808 44.5134 48.3218 44.5325 48.0799C44.6091 47.0714 44.5854 47.0377 43.5739 46.9933C41.9804 46.9221 41.7262 45.7835 42.4827 45.1143C42.9322 44.7169 43.4023 44.5538 43.7722 44.4252C44.2362 44.2644 44.5425 44.1572 44.4506 43.7138C44.4246 43.589 44.4376 43.3876 44.4521 43.1641C44.4743 42.8187 44.4996 42.4198 44.3909 42.1671C44.3242 42.0124 44.0708 41.9573 43.7729 41.8915C43.2668 41.7812 42.6321 41.6418 42.5693 40.942C42.4981 40.1549 43.2684 39.8884 43.8227 39.6962C44.106 39.5982 44.3319 39.5201 44.3625 39.4022C44.4437 38.8463 44.4621 38.2827 44.4154 37.7222C44.42 37.4673 44.2737 37.4619 44.005 37.4504C43.838 37.4435 43.6236 37.4351 43.3687 37.3631C42.3143 37.0668 42.6734 36.0507 43.4552 35.4228C43.5455 35.3501 43.642 35.2835 43.7385 35.2161C44.142 34.9351 44.5425 34.6571 44.436 34.0139C44.4343 33.9651 44.4472 33.9168 44.4731 33.8753C44.4991 33.8338 44.5368 33.801 44.5815 33.7812C44.6115 33.768 44.6438 33.7609 44.6765 33.7605C45.0907 33.7643 45.0632 34.9022 45.0417 35.8003C45.0356 36.0484 45.0295 36.2789 45.0341 36.4611C45.0448 36.9152 45.1229 36.9297 45.4138 36.9856C45.57 37.0163 45.7867 37.0568 46.0869 37.1839C47.1864 37.6487 47.2806 38.759 45.8756 39.5446C45.093 39.9818 44.9506 40.3057 45.0884 41.2131C45.1282 41.4772 45.2615 41.5094 45.4751 41.5301C47.1596 41.6924 47.4384 42.5255 47.0226 43.223C46.6436 43.8601 46.1612 44.0852 45.7798 44.2621C45.387 44.4451 45.1022 44.5775 45.1512 45.0607C45.1642 45.1909 45.1573 45.3325 45.1497 45.4765C45.1236 45.9941 45.0961 46.527 46.0226 46.5339C47.1527 46.5423 47.5739 48.1342 46.2186 48.7728C46.0157 48.8685 45.8357 48.903 45.6834 48.9321C45.2592 49.014 45.0616 49.0523 45.2232 50.2644C45.2569 50.5171 45.4483 50.4811 45.616 50.4497C45.6673 50.4397 45.7171 50.4298 45.7592 50.4298L59.992 50.1763C61.0502 50.1626 61.054 50.8678 61.0701 53.89C61.0724 54.3226 61.0747 54.8035 61.0808 55.3364C61.1153 58.403 61.0946 60.4842 61.0808 61.8954C61.0586 64.0822 61.0533 64.658 61.2929 64.7905C61.3787 64.838 61.4951 64.8288 61.6543 64.8165L61.7301 64.8112C62.7387 64.7102 63.7539 64.6925 64.7654 64.7583C65.1444 64.8004 65.404 70.1856 65.5786 78.201C65.2416 78.2017 64.8971 78.204 64.5464 78.2071C64.4323 70.6902 64.2485 65.7001 63.9423 65.6925C63.2998 65.6772 62.7677 65.6703 62.3266 65.6657C60.2209 65.6412 60.1972 65.6404 60.1811 64.7193L60.1788 64.6404C60.1513 63.7093 59.8902 54.8456 59.9422 51.5936C59.9422 51.5477 59.9476 51.5048 59.9514 51.4665C59.9591 51.3976 59.9644 51.341 59.9438 51.2958C59.8595 51.1051 59.309 51.122 56.4215 51.2093C54.0195 51.282 50.0004 51.4038 43.2852 51.4956C42.7071 51.5033 42.2668 51.4834 41.9314 51.4681C41.0524 51.4283 40.9023 51.4214 40.9115 52.0454C40.9445 54.8708 41.0141 63.3938 40.8112 66.2109L40.8089 66.2461C40.7944 66.439 40.7844 66.5723 40.8418 66.6619C40.972 66.8655 41.4429 66.8502 42.9759 66.8012C44.5808 66.7499 47.3495 66.6611 52.1084 66.7468C52.5471 66.7545 52.9927 66.8012 52.9958 67.2706C52.9958 67.7629 52.6352 67.8556 50.6803 67.8763C46.9774 67.9161 44.3143 67.9076 42.3978 67.9023C38.6481 67.8916 37.7614 67.8893 37.5486 68.266C37.4827 68.3831 37.482 68.5363 37.4804 68.7377V68.7515C37.4245 76.923 37.3901 86.7316 37.3564 96.6497L37.3487 98.5808C37.0348 98.5877 36.6726 98.5992 36.2568 98.6168C36.3181 87.737 36.4276 76.8602 36.583 67.9873ZM44.4812 45.7475C44.4613 44.7521 44.4605 44.7521 43.5899 45.1801C43.1221 45.4099 42.3832 45.7812 42.7408 46.1579C42.9525 46.3286 43.2032 46.444 43.4705 46.4939C43.7378 46.5437 44.0132 46.5264 44.2722 46.4436C44.5578 46.4122 44.5203 46.2161 44.4843 46.027C44.4644 45.9213 44.4445 45.8187 44.4812 45.7475ZM45.142 43.1778C45.1367 43.6909 45.1359 43.7774 45.3097 43.7896C45.6298 43.8118 46.6665 42.9734 46.6298 42.6694C46.5716 42.1847 46.204 42.1357 45.8518 42.0882C45.7824 42.0797 45.7132 42.0693 45.6443 42.0569C45.0409 41.9297 45.093 42.2207 45.142 42.491C45.165 42.6135 45.1857 42.7322 45.1443 42.8049C45.1443 42.9489 45.1428 43.0729 45.142 43.1778ZM45.0478 38.6303C45.0218 38.8447 44.9942 39.0699 45.1681 39.1686C45.387 39.2927 45.6481 39.0836 45.874 38.9029C45.9156 38.8691 45.9577 38.8359 46.0004 38.8034C46.9054 38.1258 46.0823 37.4075 45.2707 37.4856C45.0187 37.5101 45.0256 37.6135 45.0448 37.9297C45.0509 38.0369 45.0593 38.1686 45.0593 38.331C45.0739 38.4152 45.0609 38.5216 45.0478 38.6303ZM45.1841 47.6312C45.1979 48.1335 45.2017 48.295 45.2775 48.3417C45.3135 48.3647 45.3656 48.3609 45.4422 48.3555C46.5739 48.2789 47.0884 47.0584 45.5532 46.9512C45.1076 46.9206 45.1474 47.1503 45.1849 47.3632C45.2017 47.4642 45.2186 47.5615 45.1826 47.6243H45.1841V47.6319V47.6312ZM44.4276 40.1204C43.7546 40.2131 42.7285 40.6878 43.2354 41.1395C43.3752 41.2735 43.5451 41.3721 43.7308 41.427C43.9165 41.4818 44.1126 41.4915 44.3028 41.455C44.4582 41.4167 44.456 41.3509 44.4406 40.9075C44.4345 40.7207 44.4261 40.4673 44.4261 40.1212L44.4276 40.1204ZM44.4085 35.3225C43.933 35.5032 43.1068 36.3095 43.253 36.6893C43.3472 36.9297 43.5723 36.9374 43.7921 36.9443C43.861 36.9473 43.9299 36.9496 43.9935 36.9588C44.4353 37.03 44.4322 36.8547 44.4161 36.0002C44.4123 35.8103 44.4085 35.5859 44.4085 35.3225ZM44.3319 49.3103C43.9537 49.256 43.5402 49.7927 43.5432 50.2575C43.5432 50.5561 43.6994 50.5247 43.8472 50.4949C43.8978 50.4811 43.9503 50.4757 44.0027 50.4788C44.2684 50.5178 44.4728 50.4857 44.5386 50.3034C44.5769 50.223 44.6076 49.3501 44.3319 49.3103Z" fill="#191919"/>
<path d="M55.0554 59.5899C55.1611 54.3923 54.7905 54.1251 55.7698 54.2208C57.387 54.38 57.7844 53.8785 57.7698 55.1136C57.6711 63.8579 57.6581 63.8295 57.6757 64.5409C57.6948 65.3165 57.1274 65.1772 55.6787 65.1703C55.0662 65.168 54.9368 65.2668 55.0554 59.5899Z" fill="#191919"/>
<path d="M49.2862 59.5899C49.3918 54.3923 49.0212 54.1251 50.0005 54.2208C51.6177 54.38 52.0151 53.8785 52.0006 55.1136C51.9018 63.8579 51.8888 63.8295 51.9064 64.5409C51.9255 65.3165 51.3581 65.1772 49.9094 65.1703C49.2969 65.168 49.1705 65.2668 49.2862 59.5899Z" fill="#191919"/>
<path d="M43.6767 59.5899C43.7824 54.3923 43.4125 54.1251 44.3911 54.2208C46.0082 54.38 46.4056 53.8785 46.3919 55.1136C46.2923 63.8579 46.2793 63.8295 46.2969 64.5409C46.3161 65.3165 45.7487 65.1772 44.3 65.1703C43.6882 65.168 43.5611 65.2668 43.6767 59.5899Z" fill="#191919"/>
<path d="M43.152 75.439C40.7263 75.3747 40.6314 75.4482 40.6061 75.0722C40.3879 71.9045 40.4438 71.6488 41.0334 71.6579C43.1773 71.6932 43.4836 71.5285 43.4759 72.1174C43.4576 74.759 43.8098 75.4566 43.152 75.439ZM42.9223 73.6403C42.9063 72.501 42.9752 72.256 42.7079 72.2621C40.4032 72.2896 41.0456 71.9688 41.0395 74.2851C41.0395 74.7942 41.1742 74.9543 41.6965 74.9374C42.9614 74.8923 42.9438 74.9198 42.9246 73.6403H42.9223Z" fill="#191919"/>
<path d="M50.3642 75.439C47.9377 75.3747 47.8435 75.4482 47.8175 75.0722C47.6 71.9045 47.6559 71.6488 48.2455 71.6579C50.3894 71.6932 50.6957 71.5285 50.6881 72.1174C50.6697 74.759 51.0219 75.4566 50.3642 75.439ZM50.1345 73.6403C50.1176 72.501 50.1873 72.256 49.9201 72.2621C47.6153 72.2896 48.2577 71.9688 48.2516 74.2851C48.2516 74.7942 48.3864 74.9543 48.9086 74.9374C50.1735 74.8923 50.1551 74.9198 50.1368 73.6403H50.1345Z" fill="#191919"/>
<path d="M50.3642 83.7729C47.9377 83.7086 47.8435 83.7821 47.8175 83.4062C47.6 80.2385 47.6559 79.9827 48.2455 79.9919C50.3894 80.0271 50.6957 79.8625 50.6881 80.4513C50.6697 83.093 51.0219 83.7906 50.3642 83.7729ZM50.1345 81.9743C50.1176 80.835 50.1873 80.5899 49.9201 80.5961C47.6153 80.6236 48.2577 80.3028 48.2516 82.619C48.2516 83.1282 48.3864 83.2883 48.9086 83.2714C50.1735 83.2247 50.1551 83.2538 50.1368 81.9743H50.1345Z" fill="#191919"/>
<path d="M43.152 90.1834C40.7263 90.119 40.6314 90.1933 40.6061 89.8166C40.3879 86.6497 40.4438 86.3931 41.0334 86.4031C43.1773 86.4383 43.4836 86.2729 43.4759 86.8625C43.4576 89.5034 43.8098 90.201 43.152 90.1834ZM42.9223 88.3855C42.9063 87.2461 42.9752 87.0003 42.7079 87.0072C40.4032 87.034 41.0456 86.714 41.0395 89.0294C41.0395 89.5394 41.1742 89.6994 41.6965 89.6818C42.9614 89.6366 42.9438 89.6642 42.9246 88.3855H42.9223Z" fill="#191919"/>
<path d="M64.3549 129.537C64.3403 128.813 63.704 110.471 64.449 110.446C65.0823 110.423 65.1642 147.922 65.0731 148.484C65.0072 148.888 64.5003 148.978 64.4016 148.507C64.3265 148.148 64.7377 148.478 64.3549 129.537Z" fill="#191919"/>
<path d="M55.5409 129.537C55.5263 128.813 54.89 110.471 55.6351 110.446C56.2683 110.423 56.3502 147.922 56.2591 148.484C56.1933 148.888 55.6864 148.978 55.5876 148.507C55.5118 148.148 55.9253 148.478 55.5409 129.537Z" fill="#191919"/>
<path fill-rule="evenodd" clip-rule="evenodd" d="M69.6015 78.2101C67.1865 78.1918 61.5923 78.1474 57.8886 78.4376C56.727 78.5287 56.7247 78.7308 56.7018 81.7209C56.6979 82.2117 56.6941 82.7775 56.6834 83.4299C56.6688 84.3564 56.6482 85.2837 56.6275 86.2102C56.5685 88.8748 56.5096 91.5394 56.5969 94.2048C56.6122 94.6819 56.6122 94.6819 54.9866 94.7033C53.9123 94.7179 52.1305 94.7416 49.1757 94.9192L49.1098 94.9231C48.8327 94.9392 48.632 94.9506 48.4873 95.0471C48.1068 95.2998 48.116 96.1398 48.1489 99.1903C48.1573 100.023 48.168 101.02 48.1734 102.216C48.1749 102.523 48.1619 102.66 48.1428 102.86C48.0945 103.381 48.0072 104.327 48.0279 109.852C48.0279 110.048 48.0233 110.751 48.0157 111.836L47.998 114.224L49.1941 114.194C49.1864 107.438 49.1481 101.014 49.0823 96.3457C49.0746 95.8113 49.2354 95.8159 50.4843 95.8526C51.5739 95.8848 53.4904 95.9407 56.8442 95.6857C57.7332 95.6176 57.7868 95.5326 57.786 90.9751C57.786 86.9889 57.7454 84.3618 57.7186 82.6298C57.6673 79.2837 57.6673 79.2821 58.1099 79.2905C63.7286 79.3977 66.662 79.1918 68.1842 79.0846C69.6681 78.9797 69.8105 78.9697 69.7906 79.4376C69.7845 79.5838 69.7684 82.8097 69.7569 87.7998H70.7738C70.724 81.9942 70.6497 78.2163 70.5357 78.2163C70.3335 78.2163 70.0142 78.214 69.6015 78.2101ZM69.8282 125.845H70.894L70.8879 122.164C70.8756 113.558 70.8611 104.203 70.8266 96.3457H69.7447C69.7393 105.209 69.7546 116.198 69.8282 125.845Z" fill="#191919"/>
<path d="M55.3105 102.615C55.3296 103.901 55.4545 103.925 54.8404 103.908C52.9498 103.86 52.3136 104.215 52.3136 103.372C52.2998 99.7331 51.9728 99.0325 52.9774 99.0149C55.9323 98.9605 55.2493 98.508 55.3105 102.615ZM54.7125 101.095C54.6819 99.5463 54.9881 99.5057 53.0731 99.6765C52.786 99.7017 52.7033 99.7737 52.7201 100.043C52.9146 103.099 52.7584 103.242 53.116 103.228C55.3197 103.139 54.763 103.641 54.7125 101.095Z" fill="#191919"/>
<path d="M61.7209 102.615C61.74 103.901 61.8649 103.925 61.2515 103.908C59.3603 103.86 58.7247 104.215 58.7209 103.372C58.7063 99.7331 58.3794 99.0325 59.384 99.0149C62.3442 98.9605 61.6596 98.508 61.7209 102.615ZM61.1229 101.095C61.0923 99.5463 61.3985 99.5057 59.4835 99.6765C59.1964 99.7017 59.1137 99.7737 59.1313 100.043C59.3258 103.099 59.1696 103.242 59.5272 103.228C61.7286 103.139 61.1734 103.641 61.1229 101.095Z" fill="#191919"/>
<path d="M67.9715 102.615C67.9906 103.901 68.1154 103.925 67.5021 103.908C65.6108 103.86 64.9753 104.215 64.9753 103.372C64.9607 99.7331 64.6338 99.0325 65.6384 99.0149C68.5948 98.9605 67.9102 98.508 67.9715 102.615ZM67.3735 101.095C67.3428 99.5463 67.6491 99.5057 65.7341 99.6765C65.447 99.7017 65.3643 99.7737 65.3819 100.043C65.5764 103.099 65.4202 103.242 65.7777 103.228C67.9791 103.139 67.424 103.641 67.3735 101.095Z" fill="#191919"/>
<path d="M64.5317 85.704C64.5409 83.8097 64.4697 84.0149 66.3127 84.0501C66.9084 84.0616 66.7599 84.3495 66.8318 86.544C66.8525 87.1704 66.449 87.1313 66.0799 87.1512C64.5179 87.2385 64.5248 87.2362 64.5317 85.704Z" fill="#191919"/>
<path d="M60.1841 86.0922C60.1894 84.106 60.1741 84.3502 61.9789 84.3785C62.5715 84.3877 62.4245 84.7101 62.5026 86.8678C62.5248 87.4735 62.1343 87.4429 61.743 87.4804C60.1757 87.6267 60.1795 87.6259 60.1841 86.0922Z" fill="#191919"/>
<path fill-rule="evenodd" clip-rule="evenodd" d="M113.536 56.289C114.246 56.6489 113.685 59.5141 113.855 81.3243C113.921 89.8711 113.922 100.122 113.917 109.98C114.381 109.968 114.825 109.959 115.245 109.955C115.204 103.46 115.15 96.427 115.095 89.1069C115.044 82.4912 114.992 75.6405 114.946 68.7423C114.935 67.178 114.928 65.7952 114.921 64.5723C114.871 55.2362 114.871 55.2193 113.884 55.2346C113.31 55.2438 112.851 55.2576 112.482 55.2691C111.042 55.312 110.998 55.3135 110.998 54.8449C111.006 53.0937 111.006 51.3426 111.006 49.5922C111.007 47.9383 111.007 46.2844 111.013 44.6304L111.016 44.2859C111.031 43.1128 111.034 42.9405 109.468 43.0294C108.976 43.0577 108.977 42.9252 108.982 42.0722C108.985 41.6618 108.988 41.0845 108.939 40.279C108.871 39.1756 108.854 39.1695 107.695 39.2154C107.269 39.2307 107.183 38.9934 107.059 38.6488C106.816 37.978 106.429 36.9045 103.074 36.5355C102.93 36.5201 102.825 36.5087 102.748 36.4574C102.495 36.2881 102.531 35.684 102.456 33.0561C102.331 28.6258 102.278 25.6931 102.242 23.6709C102.169 19.6288 102.162 19.2283 101.767 17.7766C101.56 17.0147 101.32 16.8983 101.14 16.811C100.967 16.7268 100.85 16.6701 100.868 16.092C100.98 12.6027 100.972 9.11421 100.952 5.62492C100.953 5.55652 100.959 5.48825 100.968 5.42048C100.998 5.1387 101.034 4.81787 100.617 4.81787C100.23 4.8194 100.229 5.17316 100.227 5.47408C100.227 5.53074 100.227 5.5851 100.224 5.63564C99.9891 9.20208 99.9533 12.7789 100.117 16.3493C100.142 16.7942 99.9287 17.0078 99.6347 17.3026C99.2718 17.6663 98.7863 18.1525 98.4792 19.3486C97.2955 23.9558 97.6714 31.7108 97.8728 35.8685L97.8736 35.8831C97.905 36.5393 97.6278 36.5592 96.9402 36.6082C96.3284 36.6511 95.3919 36.7177 94.0604 37.2767C92.6507 37.8701 92.6615 38.563 92.6699 39.0653C92.6768 39.4934 92.6814 39.7828 91.8039 39.7537C91.0688 39.7284 91.0948 40.2032 91.1584 41.3563C91.1676 41.514 91.1768 41.6848 91.1852 41.8686V41.8732C91.2556 43.4314 91.2556 43.4314 89.6821 43.5163C88.6967 43.5692 88.6507 43.622 88.6507 44.6236C88.6683 54.06 88.8919 55.5164 88.4631 55.7438C88.3835 55.7859 88.2817 55.7859 88.1515 55.7867C87.7296 55.789 87.3077 55.8143 86.885 55.8395C86.4195 55.8671 85.9547 55.8947 85.4899 55.8924C85.3299 55.8916 85.1982 55.8908 85.0902 55.9406C84.4195 56.2515 84.6591 58.5287 84.614 74.9843C84.6124 75.4437 84.6063 80.3136 84.604 87.3335L85.7556 87.3113C85.7503 70.4169 85.823 56.5754 86.2112 56.5823C90.0275 56.6504 92.0022 56.6336 113.122 56.2407C113.293 56.2377 113.429 56.2346 113.536 56.289ZM96.2687 44.2889C97.4678 44.2552 98.6661 44.2216 99.8644 44.207C108.091 44.1052 109.695 43.5569 110.014 43.9796C110.092 44.083 110.093 44.2445 110.095 44.4842C110.106 45.949 110.107 47.7813 110.109 49.5187C110.111 51.8479 110.113 54.008 110.136 54.8901C110.139 55.0233 110.142 55.1198 110.101 55.1887C109.936 55.4651 109.057 55.3166 104.587 55.413C104.455 55.4161 104.36 55.4184 104.291 55.3763C103.979 55.1864 104.225 54.0784 104.105 47.9023C104.094 47.3173 104.387 47.3648 104.673 47.4107C104.794 47.4298 104.914 47.449 105.008 47.4199C105.443 47.2859 105.437 47.4038 105.381 48.6473C105.302 50.2499 105.283 51.8549 105.324 53.459C105.325 53.5141 105.322 53.5754 105.319 53.6389C105.306 53.9352 105.291 54.2821 105.661 54.2959C106.059 54.3097 106.037 53.985 106.019 53.7009C106.015 53.6244 106.009 53.5508 106.013 53.4881C106.13 51.4911 106.136 49.4911 106.077 47.4911C106.055 46.7392 105.91 46.6174 105.13 46.6174C103.22 46.6082 103.186 46.6848 103.258 48.537C103.311 49.8747 103.328 51.2147 103.345 52.5547C103.355 53.3847 103.366 54.2155 103.385 55.0455C103.387 55.1282 103.388 55.1956 103.363 55.2499C103.217 55.5646 102.171 55.4613 95.039 55.5654C94.6339 55.5715 94.3797 55.5815 94.222 55.4636C93.7648 55.1221 94.1132 53.7032 93.9425 47.9712C93.9241 47.3533 94.2304 47.3877 94.5313 47.4214C94.6431 47.4337 94.7534 47.4459 94.8468 47.4252C94.9946 47.3916 95.0903 47.364 95.15 47.3984C95.3736 47.5263 95.1041 48.5148 95.1592 53.2698L95.1599 53.4038C95.163 53.8633 95.1653 54.3188 95.5007 54.3311C95.7526 54.3403 95.8146 54.1481 95.8292 53.9414C95.9823 51.7109 95.9754 49.4766 95.9057 47.2422C95.8851 46.5715 95.3988 46.596 94.5581 46.6373C94.3521 46.6473 94.1255 46.658 93.8789 46.6603C92.9976 46.668 93.0076 47.0041 93.1094 50.4857C93.14 51.5248 93.1783 52.8441 93.2043 54.5202C93.212 55.0309 93.2243 55.312 93.0903 55.4674C92.8468 55.7507 92.1201 55.6182 90.0053 55.6917C89.5902 55.7063 89.5902 55.7055 89.6255 53.8893C89.6538 52.4199 89.7051 49.7622 89.5788 44.962C89.5673 44.4727 89.6944 44.3601 90.1798 44.3686C92.2097 44.403 94.2396 44.3456 96.2687 44.2889ZM108.052 42.2522C108.049 42.8724 108.047 43.0118 107.638 43.0095C107.056 43.0064 106.554 43.0018 106.09 42.998C103.314 42.9735 101.894 42.9612 92.7763 43.3755C92.117 43.4061 92.1201 43.2047 92.1324 42.3931C92.1377 42.0317 92.1446 41.5493 92.0964 40.9122C92.0864 40.7843 92.0788 40.6886 92.1163 40.6174C92.2901 40.2897 93.4149 40.4658 99.6209 40.2996C106.697 40.1105 107.97 39.8709 108.146 40.2078C108.191 40.292 108.166 40.4122 108.147 40.5784C108.057 41.3517 108.054 41.8862 108.052 42.2529V42.2522ZM101.413 23.4696C101.419 24.7575 101.426 26.1801 101.467 27.6641C101.671 34.942 101.962 36.1618 101.633 36.3609C101.567 36.4015 101.476 36.3999 101.354 36.3984C100.671 36.3896 99.9877 36.4006 99.3054 36.4313C98.5267 36.4627 98.4509 36.4665 98.4609 36.1633C98.5068 34.8126 98.5084 33.223 98.5099 31.5492C98.516 26.0745 98.5221 19.6993 100.081 17.8447C101.377 16.3034 101.39 19.1234 101.413 23.4688V23.4696ZM106.239 38.7591C106.396 39.1603 106.302 39.279 105.871 39.279C100.551 39.2407 97.4333 39.4528 95.6377 39.5753C93.5665 39.7162 93.2549 39.7369 93.3514 39.1174C93.4655 38.3839 94.0275 38.1258 94.6316 37.9168C97.2381 37.0179 105.412 36.6518 106.239 38.7591Z" fill="#191919"/>
<path d="M105.535 90.496C107.136 90.4301 107.4 90.1085 107.4 90.8842C107.413 96.1086 107.351 103.139 107.293 110.293H108.201C108.11 87.6575 107.896 60.6988 107.826 59.8642C107.763 59.0908 107.373 59.3925 107.321 59.8228C107.177 61.0142 107.264 65.9614 107.391 86.7249C107.396 87.4975 107.103 87.2395 105.386 87.3773C104.71 87.4317 104.747 88.1338 105.424 88.1614C107.315 88.2379 107.413 87.7395 107.391 89.1882C107.384 89.7012 107.283 89.5481 105.505 89.6246C104.79 89.6537 104.808 90.5266 105.535 90.496Z" fill="#191919"/>
<path d="M110.932 106.043C110.9 106.405 110.63 106.38 110.595 106.051C110.212 102.463 109.766 61.3037 110.164 59.5831C111.25 54.8687 111.048 104.681 110.932 106.043Z" fill="#191919"/>
<path d="M105.562 68.7018C105.527 68.1551 105.082 68.286 102.924 68.4162C102.924 59.3097 102.958 59.3411 102.576 59.3182C102.27 59.3013 102.226 59.3289 102.245 61.3051C102.43 81.7815 102.455 98.3237 102.467 110.436H103.243C103.183 99.9608 103.066 86.7218 102.945 72.1972C102.939 71.4537 102.93 71.8006 105.067 71.6069C105.334 71.5831 105.597 71.4851 105.563 71.1421C105.532 70.8174 105.262 70.8328 105.022 70.8266C103.078 70.7776 102.982 71.1107 102.966 70.8458C102.937 70.3358 102.932 69.8248 102.95 69.3144C102.958 68.9453 105.62 69.6566 105.562 68.7018Z" fill="#191919"/>
<path d="M99.6086 107.03C99.1615 107.053 99.2947 108.584 98.8537 79.8351C98.6592 67.1858 98.5045 61.1054 98.5749 59.538C98.6002 58.9729 98.9371 59.0785 98.9831 59.5525C99.408 63.8657 100.399 106.988 99.6086 107.03Z" fill="#191919"/>
<path d="M92.0834 70.5072C92.7794 70.3939 92.5176 70.0585 92.5023 79.2836C92.5007 80.2354 92.4915 83.1412 92.4808 87.1305H93.0819C93.0528 84.0616 93.0329 82.0149 93.0329 81.6397C93.7955 81.7178 94.5635 81.727 95.3277 81.6688C96.052 81.6083 95.9862 80.7101 95.2703 80.7101C93.2075 80.7147 93.0344 80.9812 93.0919 80.1542C93.0972 80.1366 93.5735 60.1365 92.9387 60.1465C92.6424 60.1465 92.67 60.5148 92.6631 60.8356C92.5314 67.4306 92.9663 67.0523 91.235 67.148C90.8637 67.1687 90.245 66.9957 90.2595 67.5776C90.2741 68.1595 90.879 67.9528 91.2549 67.9528C92.611 67.9459 92.5926 67.9337 92.5566 69.2767C92.5405 69.8632 92.3866 69.6274 90.709 69.8295C89.9793 69.9176 90.0214 70.8448 92.0834 70.5072Z" fill="#191919"/>
<path d="M88.9662 60.3594C88.993 61.4827 88.6431 58.3831 88.8062 70.1152C88.8399 72.5815 88.8338 79.008 88.8185 87.1298H89.6309C89.6584 72.4666 89.6753 60.6917 89.6592 60.3448C89.64 59.9428 88.957 59.9681 88.9662 60.3594Z" fill="#191919"/>
<path d="M99.046 46.6665C101.665 46.2622 101.234 46.3196 101.107 53.5463C101.1 53.92 101.113 54.3273 100.756 54.3235C100.373 54.3235 100.383 54.2056 100.402 50.2163C100.414 47.6037 100.751 47.3648 100.036 47.4069C99.1938 47.4559 99.1938 47.4337 99.1999 48.2821C99.2505 54.9215 99.4174 54.9054 98.8937 54.9123C98.4848 54.9169 98.4404 54.7194 98.4419 54.4085C98.4779 47.1696 97.9159 46.8411 99.046 46.6665Z" fill="#191919"/>
<path d="M100.055 35.178C99.2558 34.191 99.5805 23.8808 99.706 22.1037C99.7466 21.5301 99.8745 20.4643 100.436 20.2974C99.9786 25.2767 100.286 30.2323 100.055 35.178Z" fill="#191919"/>
<path d="M129.685 117.178C129.656 117.871 129.526 117.926 129.081 117.902C127.251 117.805 126.754 118.181 126.774 117.456C126.974 110.374 126.59 110.585 127.95 110.527C129.43 110.463 129.747 110.297 129.783 111.299C129.804 111.857 129.707 116.654 129.685 117.178Z" fill="#191919"/>
<path fill-rule="evenodd" clip-rule="evenodd" d="M134.348 126.373C134.38 126.373 134.234 114.396 134.17 109.63C134.117 105.661 134.142 104.707 133.742 104.471C133.596 104.384 133.392 104.395 133.107 104.389C130.545 104.334 130.099 104.401 130.022 104.262C130.005 104.232 130.005 104.192 130.005 104.139C129.939 103.604 129.951 103.063 130.041 102.531C130.092 102.364 130.369 102.367 130.664 102.368C131.045 102.371 131.456 102.374 131.441 102.011C131.433 101.788 131.266 101.745 131.08 101.743C130.434 101.736 130.144 101.818 130.007 101.707C129.828 101.564 129.909 101.097 129.804 99.6927C129.802 99.6652 129.801 99.6353 129.8 99.6054C129.791 99.4018 129.782 99.1644 129.486 99.1774C129.158 99.1904 129.165 99.4469 129.17 99.6721L129.172 99.7555C129.172 101.167 129.309 101.589 129.165 101.738C129.067 101.84 128.84 101.816 128.352 101.89C127.757 101.981 127.752 101.833 127.718 100.789C127.708 100.475 127.695 100.078 127.663 99.5825C127.628 99.0465 127.042 98.9331 126.937 99.5825C126.872 99.9737 126.937 103.37 126.95 103.765C126.972 104.433 126.878 104.432 125.286 104.41C124.868 104.405 124.348 104.398 123.7 104.401C118.961 104.426 117.497 104.354 117.058 104.99C116.715 105.487 116.999 106.417 116.832 108.165C116.828 108.213 116.806 108.913 116.773 110.097H117.595C117.597 109.343 117.596 108.952 117.595 108.792V108.701C117.677 107.739 117.649 107.049 117.629 106.556C117.584 105.432 117.58 105.337 119.022 105.374C125.394 105.537 128.873 105.371 130.77 105.281C132.993 105.175 133.045 105.173 133.034 105.923C132.973 109.462 133.052 113.001 133.131 116.539C133.165 118.061 133.198 119.583 133.221 121.104C133.223 121.22 133.224 121.306 133.186 121.37C132.971 121.736 131.483 121.352 121.42 121.768C120.62 121.759 119.82 121.776 119.022 121.82V122.692C120.945 122.741 124.37 122.637 129.828 122.471L131.63 122.416C133.257 122.368 133.257 122.387 133.278 123.921L133.279 123.976C133.28 124.113 133.283 124.216 133.239 124.292C133.035 124.648 131.829 124.427 124.933 124.46C120.545 124.481 120.545 124.521 120.546 124.926V124.928C120.546 125.239 120.816 125.263 121.061 125.272C125.67 125.46 128.61 125.341 130.45 125.267C132.701 125.176 133.31 125.151 133.321 125.834C133.66 146.41 133.616 147.94 134.021 148.07C134.054 148.08 134.09 148.082 134.13 148.083C134.2 148.086 134.26 148.103 134.31 148.089C134.669 147.984 134.56 146.272 134.348 126.373ZM128.037 102.533C127.929 102.537 127.816 102.543 127.816 102.68C127.798 104.447 127.81 104.445 128.303 104.373C128.47 104.349 128.692 104.316 128.987 104.342C129.354 104.373 129.342 104.267 129.295 103.851C129.286 103.763 129.274 103.662 129.264 103.545V103.542C129.23 102.373 129.23 102.369 128.116 102.527C128.09 102.53 128.063 102.532 128.037 102.533Z" fill="#191919"/>
<path d="M85.8177 96.4392C76.4861 96.7822 76.4976 96.5158 76.4961 96.1008C76.4961 95.6023 76.4724 95.6329 90.7795 95.4116C94.2718 95.3573 94.3783 95.368 94.3737 95.8029C94.3645 96.6459 90.7886 96.2562 85.8177 96.4392Z" fill="#191919"/>
<path d="M82.1191 114.772C82.0425 115.384 81.7209 115.402 80.42 115.421C78.9697 115.441 79.3702 115.541 79.1887 112.305C79.1474 111.565 79.567 111.886 81.5034 111.688C81.9139 111.647 82.0494 111.744 82.0892 112.121C82.1191 112.411 82.1505 114.499 82.1191 114.772Z" fill="#191919"/>
<path d="M82.3339 120.794C82.3208 121.204 82.2473 121.271 81.9617 121.274C80.2688 121.291 79.4472 121.671 79.4349 120.932C79.3943 117.931 79.1416 117.748 79.8423 117.74C81.791 117.718 82.1968 117.42 82.2603 118.01C82.2917 118.278 82.3423 120.526 82.3339 120.794Z" fill="#191919"/>
<path d="M81.8773 102.082C81.8267 102.716 81.558 102.744 80.3037 102.792C78.7287 102.853 79.0985 102.978 78.937 99.6859C78.901 98.96 79.2509 99.2456 81.3106 99.0641C81.7157 99.0281 81.8244 99.1407 81.8466 99.5855C81.8635 99.8819 81.8972 101.831 81.8773 102.082Z" fill="#191919"/>
<path d="M81.8783 108.434C81.8255 109.081 81.5475 109.105 80.2612 109.143C78.7298 109.19 79.0935 109.323 78.9357 105.992C78.9013 105.273 79.3952 105.627 81.2244 105.416C81.7451 105.355 81.8431 105.503 81.8531 106.113C81.8576 106.399 81.8998 108.171 81.8783 108.434Z" fill="#191919"/>
<path d="M86.7612 93.2755C86.7612 94.5205 86.8829 94.4003 85.5927 94.4386C84.3577 94.4761 84.3577 94.4661 84.409 93.2739C84.4541 92.2066 84.4534 92.2058 85.5208 92.1422C86.7489 92.0695 86.7597 92.0703 86.7612 93.2755Z" fill="#191919"/>
<path d="M81.4302 93.4792C81.4356 94.5802 81.4425 94.5894 80.2817 94.5925C78.8988 94.5963 79.0864 94.7694 79.091 93.4485C79.091 92.4929 79.0045 92.3283 80.6224 92.2724C81.5252 92.241 81.4241 92.4807 81.4302 93.4792Z" fill="#191919"/>
<path d="M68.084 95.0411C68.0189 96.0893 68.6016 95.3405 72.9562 95.5395C74.2579 95.5985 73.9592 95.4124 74.0588 103.348C74.1369 109.426 74.192 117.798 74.2165 125.648H73.2418C73.1675 117.264 73.0833 107.278 73.0159 97.0847C73.0105 96.3313 73.0174 96.6322 68.3244 96.6253C66.9339 96.623 67.3512 96.7356 67.1981 87.6582C67.1866 86.9836 67.2058 87.1184 73.4615 86.9913C96.3414 86.528 92.0328 86.6322 96.346 86.6429C97.7243 86.6459 97.1959 86.5946 97.4946 103.676C97.5099 104.541 97.5213 107.099 97.5298 110.579H96.5673V109.988V106.638C96.2924 85.7868 96.503 87.4239 95.8713 87.4522C89.2717 87.7524 74.1598 87.9116 68.7042 87.9522C67.548 87.9606 68.499 88.4055 68.084 95.0411Z" fill="#191919"/>
<path d="M91.7531 93.1659C91.757 94.4369 91.8366 94.2378 90.6046 94.2639C89.1942 94.293 89.3902 94.4208 89.4185 93.126C89.4446 91.9239 89.2164 92.0296 90.76 91.9775C91.8205 91.9461 91.7501 91.9691 91.7531 93.1659Z" fill="#191919"/>
<path d="M54.2155 115.469C54.2446 114.796 55.1658 115.181 39.3793 115.453C29.0232 115.631 29.0646 115.158 29.0745 116.272C29.0944 118.592 29.1993 136.563 29.1511 137.661C29.0837 139.211 29.4176 137.947 50.3227 138.076C50.5631 138.076 50.9559 137.981 50.949 138.33C50.9429 138.692 50.9445 138.653 35.8119 138.881C29.0738 138.982 29.1159 138.442 29.1289 139.57C29.1434 140.864 29.1511 146.579 28.8992 147.752C28.7836 148.288 28.2491 148.272 28.2047 147.726C27.8471 143.341 27.8984 129.971 27.9183 125.571C27.9627 114.396 27.6565 114.5 28.939 114.486C29.5225 114.479 30.2774 114.645 30.6358 114.348C30.9237 114.109 30.7392 113.291 30.7483 112.731C30.88 104.756 30.5087 107.049 31.9023 102.353C32.8265 99.2378 33.0255 98.9621 33.622 98.93C38.8196 98.6528 39.2216 98.6781 39.4413 99.3833C41.4697 105.853 40.9444 106.331 40.9222 108.982C40.8786 114.245 40.717 114.2 41.4735 114.183C54.7324 113.882 54.9437 113.606 55.0723 115.083C55.2768 117.435 55.2959 117.37 55.8235 144.132C55.9184 148.939 55.9123 149.061 55.3556 149.065C54.6749 149.07 54.8556 149.093 54.5287 135.754C54.4659 133.164 54.0846 118.5 54.2155 115.469ZM31.6978 105.496C32.2943 105.526 35.1932 105.349 39.7691 105.194C40.2928 105.177 40.1726 105.506 38.8058 99.822C38.6718 99.2646 38.8058 99.6689 33.7476 99.6428C33.1549 99.639 33.6787 99.6872 31.6978 105.496ZM31.4482 113.958C31.4352 114.589 31.4336 114.409 35.1067 114.34C35.8326 114.327 35.5179 114.366 35.6259 106.621C35.6358 105.939 35.6021 106.272 32.0271 106.281C31.1932 106.28 31.5707 108.033 31.4482 113.958ZM40.2147 110.033C40.2913 110.033 40.256 106.343 40.256 106.327C40.256 106.17 40.3908 105.915 40.0263 105.945C36.3885 106.209 36.3663 106.004 36.3962 106.498C36.5493 108.966 36.4406 111.435 36.4582 113.906C36.4635 114.555 36.694 114.151 39.7292 114.212C40.3885 114.219 40.2147 114.21 40.2147 110.033Z" fill="#191919"/>
<path d="M52.9928 139.912C53.2876 139.906 53.6451 139.871 53.6275 140.163C53.5586 141.226 0.702347 140.734 52.9928 139.912Z" fill="#191919"/>
<path d="M50.7967 125.882C47.3755 125.87 46.9804 126.134 47.0225 125.252C47.1894 121.745 46.6557 121.28 47.5792 121.264C51.0149 121.205 51.361 121.072 51.3503 121.841C51.3051 124.938 51.7461 125.885 50.7967 125.882ZM50.6435 123.803C50.5585 122.027 50.6259 122.059 49.2522 122.051C47.4988 122.04 47.4995 122.04 47.5486 123.834C47.5891 125.306 47.5884 125.308 49.08 125.303C49.596 125.303 50.2798 125.491 50.5815 125.234C50.9383 124.928 50.5585 124.231 50.6489 123.807L50.6435 123.803Z" fill="#191919"/>
<path d="M40.0303 121.426C43.3894 121.385 43.7922 121.197 43.7822 122.099C43.7516 125.438 44.1651 126.125 43.0051 126.067C40.2049 125.928 39.3366 126.472 39.4522 125.263C39.7133 122.547 38.9407 121.439 40.0303 121.426ZM43.0724 123.97C42.9553 122.187 43.0319 122.209 41.5832 122.209C39.907 122.209 39.907 122.209 39.9752 123.887C40.0403 125.469 40.041 125.47 41.5893 125.464C42.0793 125.464 42.7486 125.642 43.0158 125.395C43.3496 125.087 42.9966 124.419 43.0724 123.97Z" fill="#191919"/>
<path d="M35.4467 135.55C32.0631 135.53 31.6948 135.785 31.7201 134.955C31.8365 131.399 31.315 130.927 32.3326 130.919C35.5654 130.893 36.0938 130.661 36.0463 131.618C35.9092 134.339 36.5157 135.557 35.4467 135.55ZM35.3219 133.514C35.2224 131.707 35.3748 131.697 33.8166 131.701C32.1627 131.706 32.1627 131.706 32.2239 133.403C32.2798 134.962 32.2798 134.962 33.8036 134.956C34.2974 134.956 34.9353 135.14 35.2477 134.902C35.6412 134.603 35.2002 133.94 35.3219 133.514Z" fill="#191919"/>
<path d="M35.4615 126.055C32.051 126.027 31.6896 126.297 31.7172 125.475C31.8389 121.853 31.3474 121.447 32.2532 121.429C35.6866 121.363 36.061 121.223 36.0472 122.042C35.989 125.203 36.4209 126.063 35.4615 126.055ZM33.8726 125.486C35.2157 125.491 35.4485 125.608 35.3857 125.042C35.0847 122.327 35.7287 122.203 33.8137 122.209C32.1644 122.215 32.1651 122.215 32.2317 123.914C32.293 125.473 32.293 125.479 33.8726 125.486Z" fill="#191919"/>
<path fill-rule="evenodd" clip-rule="evenodd" d="M118.49 109.571C114.033 109.423 96.559 109.896 94.8446 109.945C85.5964 110.206 84.1156 110.207 83.8751 110.755C83.8269 110.864 83.8284 110.996 83.8277 111.156C83.8101 113.961 83.7618 117.294 83.712 120.787C83.6883 122.481 83.663 124.213 83.6416 125.94H84.9142L84.8705 124.072C84.86 123.705 84.8521 123.337 84.8468 122.97C85.0275 118.109 84.8254 117.069 85.1523 116.86C85.2404 116.805 85.3675 116.809 85.5505 116.815C87.3054 116.848 89.0607 116.784 90.8085 116.623L90.8782 116.619C91.0566 116.61 91.2442 116.601 91.2412 116.359C91.2373 116.058 91.0635 116.06 90.2994 116.07C90.061 116.074 89.8226 116.076 89.5842 116.075C88.402 116.069 88.402 116.069 88.4824 114.894L88.4847 114.855C88.5061 114.549 88.5888 114.458 88.9012 114.458C92.8001 114.458 93.3683 114.466 93.4579 114.263C93.4732 114.227 93.474 114.184 93.4755 114.134C93.487 113.747 93.1516 113.789 92.8637 113.824C92.7795 113.835 92.6991 113.845 92.6332 113.844C90.2504 113.788 87.8637 113.761 85.4808 113.849C84.9578 113.868 84.9594 113.765 84.9747 112.903C84.98 112.61 84.9869 112.229 84.9754 111.736C84.9655 111.296 85.905 111.301 89.369 111.318C93.7726 111.338 102.258 111.38 118.063 110.55C118.605 110.522 118.595 110.651 118.532 111.524C118.503 111.934 118.462 112.508 118.46 113.307C118.403 144.775 118.103 147.55 118.778 147.811C118.843 147.836 118.918 147.838 119.003 147.84C119.1 147.841 119.183 147.844 119.254 147.815C119.852 147.573 119.582 145.173 119.705 122.473C119.712 120.956 119.722 119.618 119.731 118.437C119.793 109.98 119.796 109.615 118.49 109.571ZM85.3208 114.389C85.0612 114.376 85.0038 114.471 84.9846 114.719H84.9808C84.9218 115.472 84.8905 115.846 85.062 116.018C85.235 116.193 85.614 116.161 86.3805 116.108C87.2312 116.05 87.6171 116.071 87.7794 115.891C87.9134 115.742 87.8943 115.454 87.8598 114.868C87.8353 114.447 87.7886 114.446 86.8453 114.433C86.3369 114.428 85.8286 114.413 85.3208 114.389Z" fill="#191919"/>
<path d="M98.2793 138.397C98.1767 137.772 99.107 138.308 99.0588 137.704C99.0044 137.028 99.3214 136.188 98.9508 135.825C98.5136 135.395 95.8758 136.086 95.8467 135.442C95.8291 135.059 95.9945 135.119 101.13 135.022C101.387 135.017 101.73 134.946 101.752 135.298C101.805 136.128 99.4623 135.208 99.5948 136.072C99.6522 136.445 99.3528 137.427 99.6668 137.833C99.973 138.226 100.756 137.929 101.332 137.953C104.165 138.072 104.611 137.838 104.611 138.296C104.611 138.597 104.335 138.574 104.122 138.585C102.753 138.655 98.3689 138.94 98.2793 138.397Z" fill="#191919"/>
<path d="M103.839 130.98C103.958 132.863 103.958 132.873 102.07 132.995C99.9979 133.128 100.385 133.193 100.322 131.426C100.257 129.622 100.015 129.174 100.721 129.161C104.346 129.09 103.839 128.554 103.839 130.98ZM100.836 131.057C100.836 132.523 100.738 132.503 101.71 132.459C102.241 132.435 102.942 132.694 103.26 132.335C103.566 131.988 103.317 131.305 103.307 130.771C103.287 129.622 103.279 129.622 102.112 129.691C100.838 129.765 100.836 129.765 100.836 131.054V131.057Z" fill="#191919"/>
<path d="M93.7325 122.527C90.9806 122.624 90.623 122.834 90.6008 122.155C90.5013 119.101 90.2516 118.76 91.0066 118.75C93.7134 118.714 94.1223 118.384 94.0978 119.232C94.0465 121.08 94.561 122.498 93.7325 122.527ZM93.5641 120.742C93.535 119.151 93.5755 119.195 92.3573 119.277C91.0947 119.362 91.0954 119.362 91.0962 120.854C91.0962 122.073 91.0962 122.073 92.303 122.053C93.6108 122.031 93.5878 122.031 93.5641 120.744V120.742Z" fill="#191919"/>
<path d="M103.666 120.412C103.793 122.318 103.793 122.348 101.899 122.422C99.9449 122.498 100.206 122.779 100.146 120.782C100.092 119.032 99.8569 118.577 100.626 118.569C104.172 118.531 103.666 117.965 103.666 120.412ZM103.147 120.54C103.071 119 103.173 119 101.899 119.096C100.65 119.191 100.649 119.191 100.649 120.596C100.649 121.913 100.649 121.914 101.914 121.893C103.218 121.87 103.213 121.87 103.147 120.54Z" fill="#191919"/>
<path d="M114.404 120.29C114.58 122.06 114.583 122.107 112.851 122.236C110.554 122.406 110.942 122.526 110.884 120.564C110.834 118.857 110.595 118.408 111.347 118.402C114.916 118.37 114.404 117.766 114.404 120.29ZM111.4 120.367C111.4 122.174 111.62 121.592 113.423 121.718C114.077 121.765 113.913 121.504 113.875 119.979C113.848 118.883 113.85 118.882 112.759 118.928C111.4 118.983 111.4 118.983 111.4 120.361V120.367Z" fill="#191919"/>
<path d="M107.753 128.766C107.312 128.822 104.851 129.086 104.809 128.643C104.752 128.056 106.192 128.586 106.459 128.095C106.67 127.712 106.4 127.18 106.459 126.498C106.496 126.083 106.872 126.098 106.926 126.486C107.232 128.707 106.39 128.214 110.191 128.158C110.4 128.158 110.685 128.122 110.717 128.404C110.772 128.86 110.404 128.766 107.753 128.766Z" fill="#191919"/>
<path d="M110.249 130.419C112.689 130.419 112.81 130.35 112.815 130.658C112.815 130.903 112.598 130.887 112.432 130.9C110.644 131.07 108.847 131.146 107.051 131.125C106.829 131.121 106.486 131.174 106.502 130.841C106.515 130.573 106.516 130.632 110.249 130.419Z" fill="#191919"/>
<path d="M110.768 124.818C110.758 124.571 110.734 124.423 115.822 124.265C116.383 124.247 116.407 124.864 115.848 124.901C114.688 124.977 110.786 125.282 110.768 124.818Z" fill="#191919"/>
<path d="M95.022 147.274C94.9293 126.217 94.8351 127.603 94.9385 126.21C95.0266 125.032 94.7494 125.379 81.1689 125.337C80.2264 125.337 68.5494 125.36 66.5104 125.497C64.6865 125.619 65.2087 125.382 64.5961 146.957C64.5739 147.75 65.4483 147.821 65.479 146.994C65.5509 145.06 65.3863 144.876 66.0816 144.916C67.2661 144.986 71.1413 144.979 72.1926 144.975C72.9009 144.975 72.8641 144.302 72.2056 144.298C72.1781 144.298 67.0693 144.305 66.0287 144.315C65.394 144.322 65.5693 144.354 65.6987 140.54C66.1781 126.249 65.7692 126.24 66.5257 126.268C72.5035 126.486 87.5258 126.4 93.5066 126.321C94.0112 126.314 94.1077 126.441 94.0962 126.926C93.937 133.709 94.0319 140.493 94.0549 147.276C94.0549 147.658 94.1093 148.014 94.574 147.998C95.0166 147.985 95.0235 147.62 95.022 147.274Z" fill="#191919"/>
<path d="M73.4913 139.89C70.4216 139.89 69.8558 140.235 69.8627 139.251C69.9186 130.68 69.6284 130.802 70.3175 130.697C71.3508 130.589 72.3898 130.545 73.4285 130.566C73.855 130.556 73.9829 130.796 73.9798 131.19C73.9201 139.399 74.5212 139.89 73.4913 139.89ZM73.1751 131.829C73.185 131.086 72.7118 131.527 71.1146 131.414C70.3405 131.359 70.5365 131.386 70.6399 137.769C70.6674 139.468 70.8244 138.918 72.8144 139.125C73.6368 139.215 73.0886 138.661 73.1751 131.829Z" fill="#191919"/>
<path d="M90.1026 139.644C87.2886 139.584 86.5735 140.065 86.5803 138.955C86.6447 130.408 86.3369 130.532 87.1393 130.43C88.1347 130.308 89.1255 130.349 90.1171 130.313C90.5658 130.297 90.7243 130.52 90.7197 130.949C90.6401 139.07 91.3484 139.67 90.1026 139.644ZM89.9249 131.69C89.9395 130.771 89.4104 131.307 87.83 131.166C87.0145 131.093 87.3637 131.097 87.3958 138.389C87.3958 139.069 87.7067 138.74 89.5015 138.887C90.3736 138.959 89.82 138.432 89.9249 131.694V131.69Z" fill="#191919"/>
<path d="M81.5526 130.383C82.0059 130.364 82.2334 130.55 82.2418 131.026C82.3329 139.713 82.7242 139.792 81.4661 139.74C78.8627 139.633 78.0871 140.154 78.097 139.079C78.1996 129.052 76.9562 130.579 81.5526 130.383ZM81.424 131.716C81.4355 130.924 80.9883 131.361 79.3375 131.256C78.5189 131.203 78.8574 131.167 78.8949 138.475C78.8949 139.168 79.2257 138.826 81.0029 138.967C81.9148 139.038 81.326 138.461 81.424 131.716Z" fill="#191919"/>
<path d="M76.7349 145.044C76.7189 144.598 78.0489 145.051 78.2962 144.654C78.48 144.358 78.3039 143.855 78.349 143.449C78.4493 142.543 78.15 142.856 75.5588 142.858C75.3345 142.858 75.0129 142.902 75.0037 142.569C74.9945 142.236 74.9815 142.309 80.5634 142.078C80.7625 142.07 80.9739 142.078 80.9999 142.349C81.0673 143.064 79.4287 142.381 79.0703 142.865C78.8291 143.191 79.0359 143.827 78.9869 144.32C78.9042 145.146 79.6117 144.514 83.1117 144.682C83.6186 144.706 83.6171 145.211 83.1117 145.228C82.3958 145.253 76.7495 145.443 76.7349 145.044Z" fill="#191919"/>
<path d="M71.4413 146.855C68.7453 146.894 68.7307 146.912 68.7085 146.642C68.681 146.317 68.5753 146.381 73.7828 146.242C73.959 146.237 74.2361 146.17 74.2423 146.446C74.2698 147.127 72.7775 146.832 71.4413 146.855Z" fill="#191919"/>
</svg>
