<svg width="156" height="155" viewBox="0 0 156 155" fill="none" xmlns="http://www.w3.org/2000/svg">
<path d="M121.852 36.4205C151.242 28.4688 158.769 68.2812 129.626 72.8361C120.686 74.2411 114.363 71.9483 110.534 67.9184C121.689 54.7943 115.343 46.2095 109.306 45.4452C112.202 40.964 116.682 37.741 121.852 36.4205Z" fill="#3D9CFB"/>
<path d="M29.2114 100.821C27.0807 100.226 25.7219 104.619 28.3313 105.144C30.9407 105.669 31.1183 101.354 29.2114 100.821Z" fill="#001434"/>
<path d="M102.212 28.1911C94.7624 29.3877 95.3723 39.7712 102.984 39.4856C110.326 39.1845 110.102 26.9173 102.212 28.1911ZM102.459 37.6482C97.2869 37.4552 97.642 30.3141 102.814 29.9822C102.517 32.5261 102.399 35.0877 102.459 37.6482Z" fill="#001434"/>
<path d="M36.6378 100.497C34.7386 101.03 35.0938 105.654 37.6568 105.129C40.2199 104.604 38.7762 99.9335 36.6378 100.497Z" fill="#001434"/>
<path d="M95.5494 44.272C93.1871 43.9786 90.1454 43.0599 89.273 44.3878C88.308 45.87 88.9179 48.1706 90.3461 48.8191C93.6117 50.2936 98.6143 44.658 95.5494 44.272Z" fill="#001434"/>
<path d="M143.708 35.8567C137.13 30.0204 127.495 29.3487 117.513 33.201C116.834 16.2169 102.228 7.02998 88.9491 13.1288C78.774 12.6502 67.1862 16.3481 65.0632 28.8237C63.5192 34.637 63.1486 36.4821 58.8871 39.6318C55.1197 42.4188 54.9731 47.9618 59.111 50.0539C63.4729 52.2696 61.6818 57.388 65.4724 60.2444C54.9422 60.862 38.5293 65.0695 27.2426 73.1756C13.385 64.0581 9.34743 65.6562 10.3974 86.0372C0.700948 99.7944 3.25629 108.827 16.8591 120.067C17.1833 125.973 18.8894 142.618 21.8076 143.351C24.4633 144.023 28.3234 143.737 30.5082 143.59C31.5195 143.521 32.2838 141.907 32.9709 140.348C34.3141 137.26 36.7305 131.439 38.0352 129.818C38.869 128.783 45.3847 128.814 46.7898 129.818C48.7738 131.269 51.4218 140.996 52.7265 142.764C53.5603 143.915 56.4399 143.845 58.9026 143.861C66.1208 143.915 66.4451 138.148 70.2202 132.342C76.4812 133.794 87.104 133.33 91.9985 131.632C95.9126 138.92 97.9816 141.969 99.2708 143.212C100.043 143.984 107.763 144.223 110.38 143.212C112.696 142.332 112.001 128.366 112.31 123.317C118.486 115.42 119.984 107.877 119.922 102.983C126.97 103.979 133.818 101.979 127.094 95.2627C126.839 90.1983 127.549 84.0454 125.689 77.7844C147.907 77.7458 160.036 50.9495 143.708 35.8567ZM148.154 60.561L146.101 60.7308C146.323 59.6302 146.473 58.5161 146.549 57.3957L149.096 56.809C148.893 58.0848 148.578 59.3403 148.154 60.561ZM149.312 54.8635L146.618 55.4889C146.617 54.0207 146.503 52.5547 146.278 51.1039L149.173 50.0925C149.373 51.675 149.407 53.2741 149.274 54.8635H149.312ZM148.849 48.2474L145.939 49.2665C145.544 47.4981 144.975 45.7732 144.24 44.1172L147.05 43.1522C147.845 44.7714 148.437 46.4828 148.811 48.2474H148.849ZM146.139 41.5155L143.422 42.4419C142.595 40.8915 141.59 39.4432 140.427 38.1264L142.403 37.1151C143.854 38.3836 145.101 39.8678 146.101 41.5155H146.139ZM140.735 35.8722L139.037 36.7368C137.226 35.0216 135.089 33.6879 132.753 32.815C135.613 33.1994 138.345 34.2404 140.735 35.8567V35.8722ZM64.3066 54.5161C63.6581 52.3468 62.9325 49.8841 59.9448 48.3401C56.9571 46.7961 57.2891 43.0441 60.0143 41.0369C64.793 37.5088 65.2948 35.1774 66.8465 29.2329C68.8692 17.344 79.6773 14.5648 89.2347 14.889C101.834 9.09124 115.305 17.5293 115.73 33.8881C114.639 34.356 113.584 34.903 112.573 35.5248C111.538 26.8937 107.601 22.1613 100.576 21.1037C101.039 20.1695 101.957 17.205 101.085 16.7418C100.969 16.6952 100.844 16.6747 100.719 16.6819C100.594 16.6892 100.473 16.7239 100.363 16.7836C100.253 16.8434 100.157 16.9267 100.083 17.0275C100.009 17.1284 99.9587 17.2444 99.9348 17.3672C98.2132 25.2957 93.5039 27.7352 87.104 28.7311C80.4493 29.7733 72.9222 31.0471 66.3988 47.1666C66.3523 47.2791 66.3287 47.3996 66.3292 47.5213C66.3297 47.6429 66.3544 47.7633 66.4018 47.8753C66.4492 47.9873 66.5184 48.0888 66.6053 48.1739C66.6923 48.259 66.7953 48.326 66.9083 48.371C68.5372 48.9731 69.3092 42.9669 73.0149 38.6591C71.9263 42.8897 72.5671 46.3792 75.1997 49.0503C73.1538 53.196 72.2043 57.002 72.3664 60.4297C65.9433 60.036 65.1713 57.4729 64.2989 54.5161H64.3066ZM109.037 49.8841C109.631 50.6561 110.457 49.5985 112.781 47.7456C113.572 48.3561 114.257 49.0915 114.811 49.9227C112.495 51.9222 112.704 52.3391 113.051 52.7174C113.399 53.0956 113.599 53.2964 115.483 51.706C117.104 63.8651 101.108 80.4942 87.3356 74.5034C85.5445 65.386 94.1447 59.6731 98.9157 53.4508C99.294 52.949 99.2014 52.5552 99.0778 51.9068C98.7382 50.2315 98.7613 48.3324 99.7263 47.7534C100.173 47.4986 100.688 47.3893 101.2 47.4405C101.712 47.4916 102.195 47.7008 102.583 48.039C106.119 50.0539 107.57 44.5341 111.075 46.7034C109.091 48.811 108.342 49.0272 109.029 49.915L109.037 49.8841ZM125.249 95.1546C121.937 95.9266 113.854 95.9807 109.531 95.2241C110.442 89.187 112.086 79.6218 105.37 73.6079C106.415 72.8603 107.408 72.0427 108.342 71.1606C110.342 73.2425 112.739 74.9036 115.39 76.0464C118.042 77.1892 120.895 77.7906 123.782 77.8153C125.766 83.7212 125.079 90.0902 125.257 95.1855L125.249 95.1546ZM107.323 98.3893C101.973 98.8216 91.8827 96.3358 86.9959 93.8267C92.4617 75.8544 73.9876 88.1679 73.8718 66.2584C78.5038 74.9743 94.0675 81.6445 103.756 74.681C111.739 81.2122 107.392 93.7032 107.323 98.3893ZM107.485 105.09C101.494 104.573 85.1817 102.103 86.772 95.7799C92.2919 98.3121 101.44 100.682 107.701 100.204C112.163 104.89 109.384 105.26 107.485 105.098V105.09ZM85.3207 73.6851C74.5126 68.7056 71.4245 61.1322 76.6124 50.301C81.3217 53.7673 89.8446 54.5161 96.3449 53.7364C91.3732 59.2408 84.4097 65.0154 85.3207 73.6851ZM103.447 46.495C99.7109 44.4955 96.1982 46.0858 97.364 51.7524C85.7839 53.6206 68.0277 50.0848 76.404 34.9149C84.6722 27.6503 93.8282 33.9344 99.734 22.8716C106.481 23.6436 110.017 28.0826 110.805 36.6905C107.455 39.1744 104.899 42.5779 103.447 46.4873V46.495ZM110.712 122.437C109.6 123.842 111.067 138.595 109.4 141.151C107.91 142.201 101.402 141.961 100.375 141.552C97.2868 138.819 92.84 129.339 91.1107 125.718C90.9949 125.519 90.8089 125.37 90.5891 125.3C90.3692 125.231 90.1313 125.246 89.9219 125.342C89.7125 125.439 89.5466 125.61 89.4566 125.822C89.3666 126.035 89.3591 126.273 89.4355 126.49C89.5204 126.668 90.2075 128.034 91.157 129.988C87.4205 131.146 78.8049 132.157 71.1312 130.675L71.7874 129.447C71.8551 129.241 71.848 129.017 71.7673 128.815C71.6867 128.613 71.5376 128.446 71.3462 128.343C71.1549 128.24 70.9333 128.208 70.7204 128.251C70.5075 128.295 70.3168 128.412 70.1816 128.583L69.1857 130.451C66.0977 135.616 65.1018 139.769 62.1296 141.421C60.4003 142.378 54.6257 142.386 54.1084 141.259C51.2983 135.129 49.5767 129.007 47.7162 128.088C45.4002 126.961 39.1778 127.224 37.2401 128.15C36.1824 128.66 35.1865 130.381 33.8123 133.5C32.1139 137.36 31.0408 140.996 29.9523 141.606C29.4582 141.869 24.1314 142.147 22.433 141.197C21.4834 140.672 19.4067 129.617 18.8277 121.434C19.7927 122.059 23.6064 124.591 25.8375 125.41C27.2348 125.919 28.802 124.977 27.0882 124.028C8.49822 113.737 0.83991 102.504 11.7793 87.7433C12.2916 87.0604 12.5631 86.2269 12.5513 85.3733C12.3814 67.0921 13.3773 67.0458 26.0382 74.9435C26.3474 75.1396 26.6974 75.2625 27.0613 75.3026C27.4253 75.3428 27.7936 75.2991 28.1381 75.1751C33.0635 73.3994 36.8309 73.963 40.8067 75.0515C41.2015 75.1574 41.6151 75.1722 42.0163 75.0946C42.4176 75.017 42.7959 74.8492 43.1227 74.6038C54.7801 65.6948 56.2855 68.8986 55.83 85.6126C55.8154 86.0633 55.9452 86.5069 56.2006 86.8787C62.8784 96.9148 63.7508 103.778 56.2006 112.926C54.3323 115.188 56.5016 115.412 57.5824 114.154C65.6731 104.743 65.3566 97.3162 58.4085 87.1334C57.923 86.4125 57.6821 85.5545 57.7214 84.6862C58.4934 65.772 53.8614 64.0968 42.1191 72.998C41.9161 73.1465 41.6798 73.243 41.4309 73.2794C41.182 73.3157 40.928 73.2907 40.6909 73.2064C37.8135 72.2137 34.7271 71.9875 31.7356 72.5502C46.8515 63.9655 64.2835 61.1554 72.3046 62.2825C72.2043 63.1626 72.1348 64.0041 72.0962 64.8147C64.2912 64.9768 57.0575 65.965 62.3766 71.5389C63.4111 72.6197 69.178 71.1761 72.5517 72.1179C74.5589 81.1813 78.8667 81.9378 84.3016 84.7479C84.9444 85.0151 85.48 85.4887 85.8239 86.094C86.1678 86.6992 86.3004 87.4018 86.2008 88.0907C85.7993 91.889 83.4524 96.8762 85.7916 100.119C87.1812 102.033 92.7397 104.82 104.659 106.665C111.376 107.707 113.229 105.422 110.836 101.925C113.576 102.311 115.985 102.62 118.092 102.836C117.843 109.999 115.25 116.882 110.712 122.43V122.437ZM126.09 96.8453C129.865 100.705 127.634 101.477 123.002 101.346C118.533 101.22 114.081 100.748 109.685 99.9333C109.021 99.0764 109.091 98.6904 109.276 97.1155C113.499 97.8103 122.207 97.9338 126.09 96.8453ZM128.352 75.7077C121.188 77.1746 112.488 73.5384 109.662 69.8405C113.924 65.3551 117.058 59.4879 117.791 54.0993C119.132 54.7286 120.561 55.1478 122.03 55.3422C122.647 58.8857 123.095 62.8307 123.404 65.9264C121.41 65.5746 119.597 64.5534 118.262 63.0314C118.181 62.9381 118.081 62.8633 117.968 62.812C117.856 62.7608 117.734 62.7342 117.61 62.7342C117.486 62.7342 117.364 62.7608 117.251 62.812C117.139 62.8633 117.039 62.9381 116.958 63.0314C115.583 65.1235 120.709 68.0263 123.589 67.8564C124.114 70.5276 123.875 71.2378 124.732 71.122C126.152 70.929 125.928 70.5739 125.442 67.8256C135.625 65.826 133.224 53.6978 123.612 53.775C122.941 50.2238 122.138 46.1013 121.752 43.0827C124.122 42.5578 126.538 42.6967 128.044 46.2634C128.499 47.321 130.004 46.935 129.588 45.584C128.816 42.936 125.728 40.5351 121.528 41.2453C121.072 39.0992 121.103 38.0724 119.984 38.3349C118.864 38.5974 119.328 39.655 119.714 41.6854C118.484 42.0649 117.375 42.7588 116.497 43.6985C115.618 44.6382 115 45.7911 114.703 47.0431C114.195 46.3691 113.558 45.8022 112.83 45.3751C112.101 44.9479 111.296 44.669 110.459 44.5542C109.623 44.4394 108.772 44.4911 107.955 44.7062C107.139 44.9214 106.373 45.2958 105.702 45.8079C110.473 34.0425 130.475 28.5844 139.052 39.4388C149.312 50.8105 145.545 73.9398 128.352 75.7386V75.7077ZM117.274 45.6689C117.954 44.7347 118.882 44.0099 119.953 43.5768C120.323 46.4023 121.018 50.0076 121.667 53.4431C117.544 53.3427 115.166 48.6875 117.274 45.6689ZM123.96 55.705C131.68 55.705 132.166 64.9691 125.264 65.9959C124.994 63.0082 124.546 59.2099 123.96 55.6973V55.705ZM142.681 69.053C144 67.082 144.99 64.9102 145.614 62.6222L147.367 62.4755C146.242 64.9486 144.651 67.1818 142.681 69.053Z" fill="#001434"/>
<path d="M16.774 83.6595C16.9235 83.6647 17.0721 83.6336 17.207 83.5689C17.3419 83.5042 17.4591 83.4078 17.5486 83.288C17.6382 83.1681 17.6973 83.0283 17.7211 82.8806C17.7448 82.7329 17.7324 82.5816 17.6849 82.4397C16.7508 79.6682 16.442 75.013 17.1445 74.6656C18.9047 73.7932 22.2552 77.4988 22.6026 78.3481C22.3633 78.6955 20.0087 80.6641 20.8424 81.4901C21.5527 82.1695 25.0499 79.5138 24.7025 78.1859C24.1698 76.1633 18.9433 71.3923 16.2104 73.0598C13.4775 74.7273 15.4615 83.976 16.774 83.6595Z" fill="#001434"/>
<path d="M92.5233 36.7834C93.9515 36.6521 94.6926 38.2656 93.6427 39.0453C93.5061 39.2186 93.4358 39.435 93.4446 39.6554C93.4533 39.8759 93.5404 40.086 93.6903 40.248C93.8401 40.4099 94.0429 40.5131 94.262 40.5388C94.4811 40.5646 94.7022 40.5114 94.8856 40.3886C97.3174 38.2888 95.3025 34.6449 92.3457 34.9846C92.139 35.0438 91.9596 35.1736 91.8387 35.3515C91.7179 35.5294 91.6633 35.744 91.6844 35.958C91.7055 36.172 91.801 36.3718 91.9543 36.5226C92.1076 36.6734 92.3089 36.7657 92.5233 36.7834Z" fill="#001434"/>
<path d="M44.9986 87.3501C39.5482 87.1107 37.2245 91.434 38.0119 95.433C34.9513 94.1856 31.536 94.1223 28.4313 95.2554C29.5816 90.8241 26.3391 86.4159 21.4832 86.9641C12.3195 87.9908 13.9716 101.709 23.2202 100.158C17.4765 113.706 47.0521 115.366 42.891 100.451C53.0583 102.775 54.942 88.0294 44.9986 87.3501ZM22.3787 98.3898C16.6968 98.7835 15.5002 91.7582 19.6227 89.3727C20.5105 92.013 21.9387 95.6646 23.6834 98.1427C23.2604 98.2784 22.8221 98.3614 22.3787 98.3898ZM33.3258 109.198C21.406 110.124 22.124 96.0737 32.9012 96.259C43.7248 96.3053 44.8133 108.982 33.3258 109.198ZM44.1339 98.7681C39.1853 98.3666 38.1663 91.8895 42.0572 89.7047C43.422 92.724 45.0278 95.6284 46.8591 98.3898C46.0066 98.7683 45.0678 98.9097 44.1416 98.7989L44.1339 98.7681Z" fill="#001434"/>
<path d="M47.199 106.388C45.8248 106.187 46.62 108.209 44.3117 110.502C43.3541 111.432 42.1518 112.069 40.8453 112.34C39.6796 112.618 40.1814 114.409 41.3394 114.115C42.9372 113.771 44.4331 113.06 45.709 112.039C47.6467 110.333 48.6812 106.604 47.199 106.388Z" fill="#001434"/>
<path d="M101.2 26.8631C102.443 26.7318 104.667 27.2105 104.867 26.3613C105.292 24.6011 102.104 24.4776 100.783 25.2418C100.035 25.6664 100.166 26.9789 101.2 26.8631Z" fill="#001434"/>
<path d="M52.2864 73.0757C49.3914 71.771 45.4001 76.488 44.7517 78.364C44.1726 80.0315 48.2102 82.6949 48.9745 81.452C49.5072 80.5874 46.5195 79.4216 46.5813 78.7037C46.674 77.6614 50.2638 73.9867 51.4372 74.7433C52.2092 75.2605 51.5299 80.0006 51.059 82.0078C50.8042 83.0887 52.325 83.5519 52.8037 82.3244C53.7378 79.8617 54.0389 73.8709 52.2864 73.0757Z" fill="#001434"/>
<path d="M88.5781 34.4748C85.3588 29.8428 77.2296 34.166 78.2023 39.1069C80.0474 48.4173 94.1134 42.4188 88.5781 34.4748ZM83.8997 42.0791C78.3644 42.0791 78.9512 34.4285 84.3475 34.4053C83.9649 36.9443 83.815 39.5129 83.8997 42.0791Z" fill="#001434"/>
<path d="M15.7626 100.443C21.3905 102.836 19.0745 107.345 15.7085 107.167C8.00388 106.773 10.4666 98.2042 15.7626 100.443Z" fill="#3D9CFB"/>
<path d="M52.7881 99.6406C47.1525 102.026 49.4685 106.535 52.8345 106.357C60.5391 105.963 58.0764 97.394 52.7881 99.6406Z" fill="#3D9CFB"/>
</svg>
