<svg width="155" height="155" viewBox="0 0 155 155" fill="none" xmlns="http://www.w3.org/2000/svg">
<path d="M95.9473 133.901C95.7929 134.874 95.569 137.182 96.7733 137.059C97.6766 136.966 97.5994 135.029 97.4527 134.125C97.306 133.222 96.094 132.921 95.9473 133.901Z" fill="#3D9CFB"/>
<path d="M77.5118 108.619C76.3075 108.843 77.0949 110.719 77.0563 113.058C77.0563 114.185 77.8283 114.409 78.1834 114.332C79.9899 113.961 78.6389 108.464 77.5118 108.619Z" fill="#3D9CFB"/>
<path d="M99.3286 133.523C98.5026 133.601 98.8422 134.875 98.8036 136.457C98.8036 137.136 99.1819 137.507 99.7069 137.438C100.911 137.283 100.765 133.3 99.3286 133.523Z" fill="#3D9CFB"/>
<path d="M135.675 121.712C136.447 121.634 136.809 120.731 136.508 118.925C136.354 117.798 134.964 117.72 134.771 118.624C134.578 119.527 134.308 121.858 135.675 121.712Z" fill="#3D9CFB"/>
<path d="M93.0133 134.126C92.8589 135.176 92.7817 136.604 93.6155 136.758C94.8198 136.982 94.5882 135.176 94.5882 134.126C94.5877 133.97 94.5413 133.818 94.4547 133.689C94.3681 133.56 94.2452 133.459 94.1016 133.4C93.9579 133.34 93.7998 133.325 93.6472 133.355C93.4946 133.385 93.3544 133.459 93.2441 133.569C93.1709 133.642 93.1128 133.729 93.0732 133.824C93.0336 133.92 93.0132 134.022 93.0133 134.126Z" fill="#3D9CFB"/>
<path d="M90.2265 134.126C89.7787 134.898 89.7015 137.059 90.6048 137.059C91.8091 137.136 91.7937 135.515 91.7319 134.743C91.6315 133.523 90.6742 133.369 90.2265 134.126Z" fill="#3D9CFB"/>
<path d="M144.483 127.579C144.406 126.522 144.406 125.549 143.657 125.773C142.553 125.989 142.499 129.633 143.657 129.633C144.483 129.61 144.553 128.583 144.483 127.579Z" fill="#3D9CFB"/>
<path d="M82.2514 126.22C81.8731 127.123 82.3286 128.93 83.0234 129.084C83.8572 129.161 83.7954 126.977 83.6256 126.073C83.5252 125.618 82.6297 125.317 82.2514 126.22Z" fill="#3D9CFB"/>
<path d="M104.601 141.421C103.829 141.575 103.999 142.556 103.829 143.83C103.76 144.509 104.277 144.872 104.887 144.509C105.945 143.884 105.744 141.12 104.601 141.421Z" fill="#3D9CFB"/>
<path d="M102.039 133.902C101.521 134.064 101.668 134.674 101.591 135.631C101.514 136.588 101.892 136.905 102.27 136.982C103.042 137.059 103.174 136.457 103.174 135.477C103.174 134.496 102.726 133.686 102.039 133.902Z" fill="#3D9CFB"/>
<path d="M146.513 129.455C147.494 129.308 147.494 126.598 146.359 126.521C145.834 126.452 145.687 126.676 145.587 127.88C145.61 128.93 145.757 129.532 146.513 129.455Z" fill="#3D9CFB"/>
<path d="M139.365 121.256C139.581 118.554 138.986 118.168 138.461 118.246C137.481 118.323 137.635 119.527 137.635 121.48C137.635 122.538 139.249 122.692 139.365 121.256Z" fill="#3D9CFB"/>
<path d="M87.2929 134.504C86.9918 135.477 87.069 137.152 87.9723 136.982C89.0299 136.781 88.8755 134.805 88.7983 134.427C88.7516 134.257 88.6484 134.109 88.5059 134.006C88.3634 133.903 88.1901 133.852 88.0147 133.861C87.8392 133.87 87.672 133.939 87.5408 134.056C87.4096 134.173 87.3221 134.331 87.2929 134.504Z" fill="#3D9CFB"/>
<path d="M120.474 126.822C125.747 127.355 124.99 143.228 118.158 142.625C116.73 142.479 116.807 143.752 118.614 143.907C126.287 144.355 127.793 126.753 120.721 125.317C115.147 124.267 112.893 133.145 113.341 136.38C113.495 137.584 114.699 136.681 114.699 135.778C114.684 131.864 116.035 126.375 120.474 126.822Z" fill="#3D9CFB"/>
<path d="M84.6603 134.35C84.4287 135.477 84.5831 137.283 85.5636 137.059C86.2352 136.905 86.0885 135.631 86.1657 134.743C86.2352 133.601 84.8996 133.215 84.6603 134.35Z" fill="#3D9CFB"/>
<path d="M123.94 119.226C123.786 120.13 123.786 121.334 124.612 121.481C125.438 121.627 125.384 120.353 125.384 119.226C125.384 118.099 124.087 118.323 123.94 119.226Z" fill="#3D9CFB"/>
<path d="M118.667 142.177C119.27 142.023 119.501 142.177 119.648 140.896C122.883 140.294 123.415 135.777 120.25 134.272C120.25 133.145 120.327 131.863 120.404 130.736C121.23 130.96 121.377 131.624 121.948 131.508C122.72 131.338 122.327 129.702 120.404 129.246C120.404 127.895 120.258 127.602 119.632 127.818C119.185 127.98 118.86 127.972 118.86 129.323C115.703 130.003 115.556 134.519 118.637 135.345C118.66 136.779 118.559 138.213 118.335 139.63C118.156 139.612 117.983 139.555 117.827 139.465C117.671 139.374 117.537 139.252 117.432 139.105C116.606 138.124 115.703 140.989 118.034 141.135C117.996 142.1 118.22 142.1 118.667 142.177ZM120.211 135.932C121.192 136.534 121.115 138.487 119.91 139.167C120.106 138.099 120.22 137.017 120.25 135.932H120.211ZM118.667 133.523C117.224 132.558 117.942 131.254 118.822 130.813C118.822 131.67 118.822 132.62 118.745 133.523H118.667Z" fill="#3D9CFB"/>
<path d="M141.256 122.082C142.607 122.237 142.546 117.906 141.025 118.547C140.253 118.863 140.5 120.206 140.654 121.256C140.636 121.444 140.688 121.631 140.799 121.784C140.909 121.936 141.072 122.042 141.256 122.082Z" fill="#3D9CFB"/>
<path d="M82.0972 134.65C81.8733 135.855 82.2516 136.604 83.0005 136.681C83.9809 136.758 83.6798 135.33 83.6026 134.573C83.5254 133.523 82.2516 133.747 82.0972 134.65Z" fill="#3D9CFB"/>
<path d="M117.54 147.52C123.863 148.948 130.185 146.694 131.76 140.294C133.196 135.106 133.644 127.124 129.058 123.966C127.514 122.908 125.067 122.422 123.484 122.16C108.685 119.164 106.384 144.795 117.54 147.52ZM128.132 125.093C127.074 125.996 128.502 126.753 129.56 126.637C129.707 126.861 129.784 127.093 129.938 127.409C128.132 127.409 127.831 128.837 130.533 128.953C130.61 129.177 130.687 129.478 130.764 129.725C128.278 129.501 129.105 131.455 131.065 131.231C131.13 131.553 131.156 131.883 131.143 132.211C129.861 132.211 129.707 133.562 131.212 133.716C131.151 134.063 131.125 134.415 131.135 134.766C128.356 134.087 128.278 136.426 130.988 136.272C130.988 136.573 130.911 136.874 130.911 137.098C128.356 136.326 127.977 138.68 130.61 138.642C130.533 138.943 130.463 139.167 130.386 139.414C128.356 138.58 127.452 140.765 129.861 140.919C129.784 141.143 129.637 141.444 129.56 141.691C129.035 141.691 128.58 141.614 128.132 141.614C126.472 141.769 127.36 143.158 128.734 143.158C128.574 143.427 128.396 143.685 128.201 143.93C127.298 144.154 125.793 143.475 125.569 144.532C125.422 145.057 125.947 145.436 126.472 145.436C125.376 146.007 124.171 146.339 122.936 146.408C129.182 141.599 130.61 129.779 125.252 124.136C126.246 124.342 127.212 124.663 128.132 125.093ZM120.304 123.441C131.065 123.588 128.132 147.821 117.818 146.092C108.585 144.509 110.615 123.287 120.327 123.441H120.304Z" fill="#3D9CFB"/>
<path d="M146.591 121.859C147.718 121.558 147.363 118.277 146.29 118.4C145.464 118.493 145.61 119.373 145.688 121.179C145.61 121.859 145.989 122.013 146.591 121.859Z" fill="#3D9CFB"/>
<path d="M143.95 121.858C144.784 121.858 144.854 120.955 144.854 119.975C144.854 118.994 144.707 118.099 143.804 117.944C143.032 117.867 143.202 118.716 143.202 119.372C143.202 120.654 143.124 121.858 143.95 121.858Z" fill="#3D9CFB"/>
<path d="M127.02 118.546C126.117 118.701 126.349 120.052 126.418 121.179C126.488 122.306 127.962 122.314 127.962 120.577C128.001 118.701 127.777 118.4 127.02 118.546Z" fill="#3D9CFB"/>
<path d="M85.332 125.618C84.506 125.695 84.3361 127.278 84.506 128.258C84.7067 129.386 85.9342 129.455 86.05 128.783C86.0886 127.88 86.3897 125.394 85.332 125.618Z" fill="#3D9CFB"/>
<path d="M129.506 118.469C128.688 118.824 128.58 122.53 129.962 122.013C130.41 121.936 130.734 121.241 130.734 119.905C130.734 118.57 130.263 118.099 129.506 118.469Z" fill="#3D9CFB"/>
<path d="M104.447 134.203C103.845 134.272 103.999 135.253 103.999 136.079C103.999 136.905 104.447 137.121 104.972 136.982C105.945 136.735 105.651 133.987 104.447 134.203Z" fill="#3D9CFB"/>
<path d="M91.3536 100.412C90.8286 99.2075 88.9449 96.6522 88.4199 97.6249C88.0416 98.3969 89.1919 99.8097 90.0025 100.937C90.6742 101.771 91.8476 101.562 91.3536 100.412Z" fill="#3D9CFB"/>
<path d="M141.318 140.973C140.492 141.12 140.715 142.023 140.646 143.004C140.576 143.984 140.793 144.355 141.472 144.355C142.707 144.355 142.545 140.834 141.318 140.973Z" fill="#3D9CFB"/>
<path d="M135.605 134.048C135.548 133.913 135.458 133.795 135.342 133.704C135.227 133.614 135.09 133.554 134.945 133.531C134.8 133.508 134.652 133.522 134.514 133.572C134.376 133.623 134.254 133.707 134.158 133.818C134.029 133.966 133.954 134.153 133.945 134.349C133.428 138.618 136.624 137.345 135.605 134.048Z" fill="#3D9CFB"/>
<path d="M92.7822 103.647C92.5429 102.875 91.8789 102.141 91.4312 102.373C90.6592 102.744 91.5779 104.172 91.8789 104.774C92.4116 105.832 93.2068 104.936 92.7822 103.647Z" fill="#3D9CFB"/>
<path d="M81.2716 109.221C80.4995 109.668 81.6498 111.537 81.9509 112.224C82.5531 113.505 83.8346 112.996 83.4949 111.853C83.1553 110.348 82.0976 108.688 81.2716 109.221Z" fill="#3D9CFB"/>
<path d="M138.539 144.432C139.813 144.432 139.743 140.572 138.608 140.749C137.636 140.896 137.836 141.954 137.836 142.556C137.937 143.305 137.705 144.432 138.539 144.432Z" fill="#3D9CFB"/>
<path d="M87.1385 89.8741C86.0114 90.7078 89.7788 92.136 91.1298 93.1165C92.3341 93.9425 93.384 92.9621 92.033 91.5725C90.9754 90.5534 87.9877 89.3491 87.1385 89.8741Z" fill="#3D9CFB"/>
<path d="M78.1833 116.292C77.1334 116.439 76.6856 120.152 77.8822 120.507C78.4844 120.731 78.9939 120.206 79.0171 119.149C79.0557 117.342 78.8627 116.23 78.1833 116.292Z" fill="#3D9CFB"/>
<path d="M135.907 144.957C136.957 145.034 137.034 140.896 135.907 140.896C135.003 140.896 135.227 141.668 135.227 142.625C135.081 143.752 134.849 144.887 135.907 144.957Z" fill="#3D9CFB"/>
<path d="M80.3683 97.1774C80.8238 96.7297 80.6694 96.1275 79.3184 95.5253C78.7162 95.147 77.8979 94.9232 77.7743 95.4481C77.6508 95.9731 77.6122 96.2896 78.5464 96.8763C79.4805 97.4631 79.99 97.5557 80.3683 97.1774Z" fill="#3D9CFB"/>
<path d="M134.1 129.455C135.227 129.386 135.227 125.773 133.945 125.997C133.498 126.074 133.173 126.452 133.266 127.201C133.359 127.95 133.197 129.455 134.1 129.455Z" fill="#3D9CFB"/>
<path d="M146.661 141.499C145.989 141.259 145.834 141.954 145.834 142.78C145.912 143.452 145.834 144.525 146.514 144.587C147.564 144.679 147.649 141.854 146.661 141.499Z" fill="#3D9CFB"/>
<path d="M94.2873 117.003C92.1797 116.779 87.7407 119.867 83.7571 123.256C80.2908 123.928 79.017 124.985 79.1637 127.888C79.2409 129.393 79.843 130.822 81.1246 131.424C78.1832 133.153 78.8626 137.747 80.9702 139.144C77.9593 140.688 79.1637 146.092 81.5723 146.972C82.3443 147.273 84.8842 147.273 90.9059 147.343C100.834 147.497 104.3 148.115 107.118 146.37C108.855 145.312 108.778 139.97 106.971 139.144C108.098 138.464 108.778 137.337 108.778 135.153C108.778 132.968 108.253 131.841 107.049 131.293C108.253 130.768 108.554 129.339 108.554 127.834C108.554 125.047 107.496 123.318 104.941 123.202C102.193 119.828 95.9471 117.118 94.2873 117.003ZM105.952 145.297C104.246 146.385 95.5688 145.976 91.0526 145.752C85.7103 145.528 81.4256 146.733 81.1246 143.042C80.7463 138.41 84.5059 139.954 89.6166 139.731C94.9346 139.533 100.26 139.633 105.566 140.032C107.612 140.163 107.326 144.386 105.952 145.258V145.297ZM104.825 138.148C104.748 138.148 83.1318 138.418 82.0973 138.001C80.6691 137.399 80.4452 133.485 82.0278 132.659C85.9342 131.679 103.544 132.204 105.875 132.505C108.137 132.543 107.836 138.04 104.825 138.109V138.148ZM106.933 127.618C107.079 132.204 102.115 130.775 94.7428 130.629C83.7571 130.551 80.7463 131.902 80.7463 127.093C80.7463 124.198 84.1663 124.368 91.0526 124.607C104.871 125.132 106.794 123.047 106.933 127.579V127.618Z" fill="#3D9CFB"/>
<path d="M145.008 143.305C145.008 142.478 145.008 140.749 144.182 140.819C143.356 140.888 143.356 141.591 143.356 142.625C143.356 143.66 143.356 144.733 144.182 144.656C145.008 144.578 145.008 143.907 145.008 143.305Z" fill="#3D9CFB"/>
<path d="M90.8287 125.618C90.0567 125.773 89.9255 126.676 90.0027 127.726C90.0799 128.776 90.3038 129.532 90.8287 129.532C91.732 129.532 91.6548 128.405 91.6548 127.425C91.6548 126.444 91.5081 125.495 90.8287 125.618Z" fill="#3D9CFB"/>
<path d="M137.481 129.988C138.84 130.212 138.91 126.452 137.481 126.452C136.578 126.452 136.709 127.579 136.81 128.104C136.91 128.629 136.509 129.834 137.481 129.988Z" fill="#3D9CFB"/>
<path d="M96.6267 126.074C95.6462 125.997 95.7234 127.278 95.7929 128.027C95.8624 128.776 95.8701 129.687 96.6267 129.61C97.6766 129.532 97.6766 126.22 96.6267 126.074Z" fill="#3D9CFB"/>
<path d="M141.549 127.88C141.472 126.977 141.472 125.695 140.646 125.773C140.191 125.85 139.874 126.151 139.874 127.278C139.874 128.405 139.797 129.231 140.476 129.532C141.156 129.833 141.619 129.308 141.549 127.88Z" fill="#3D9CFB"/>
<path d="M133.799 141.876C133.799 140.973 132.363 140.595 132.293 141.722C132.224 142.849 131.691 144.81 132.895 144.81C134.1 144.81 133.799 142.702 133.799 141.876Z" fill="#3D9CFB"/>
<path d="M93.6155 125.317C92.7123 125.85 92.8435 127.424 93.0134 128.706C93.1832 129.987 94.2177 129.764 94.4416 128.181C94.6655 126.598 94.5188 124.869 93.6155 125.317Z" fill="#3D9CFB"/>
<path d="M87.2929 126.598C87.069 127.579 87.2157 129.162 87.8951 129.308C89.0994 129.687 89.1766 127.355 88.7983 125.919C88.5745 125.016 87.4396 125.394 87.2929 126.598Z" fill="#3D9CFB"/>
<path d="M146.66 136.982C147.641 136.758 147.718 135.106 147.432 134.35C147.147 133.593 146.074 133.902 146.004 134.875C145.935 135.847 145.533 137.206 146.66 136.982Z" fill="#3D9CFB"/>
<path d="M138.238 137.136C139.666 137.136 139.21 133.369 138.238 133.222C137.404 133.145 137.111 133.994 137.334 134.874C137.558 135.754 137.257 137.136 138.238 137.136Z" fill="#3D9CFB"/>
<path d="M104.601 129.084C105.651 128.706 105.651 125.773 104.601 125.919C103.922 125.996 103.829 126.521 103.829 127.355C103.829 128.189 103.922 129.308 104.601 129.084Z" fill="#3D9CFB"/>
<path d="M101.367 127.81C101.367 130.003 103.019 130.188 103.019 128.111C103.019 127.432 103.173 126.081 102.193 126.158C101.436 126.22 101.367 126.822 101.367 127.81Z" fill="#3D9CFB"/>
<path d="M142.075 135.531C141.998 134.249 142.152 133.5 141.249 133.577C139.998 133.685 139.898 136.943 141.094 137.183C141.697 137.283 142.152 136.835 142.075 135.531Z" fill="#3D9CFB"/>
<path d="M144.707 136.009C144.854 135.106 144.707 133.369 143.804 133.369C142.901 133.369 142.754 135.631 143.202 136.603C143.65 137.576 144.63 137.074 144.707 136.009Z" fill="#3D9CFB"/>
<path d="M99.4829 125.549C98.7109 125.472 98.7109 126.452 98.7109 127.278C98.7109 128.104 98.7881 129.007 99.3903 129.007C99.9925 129.007 100.448 128.405 100.448 127.425C100.463 126.22 100.162 125.618 99.4829 125.549Z" fill="#3D9CFB"/>
<path d="M133.722 120.129C133.722 118.585 133.42 117.96 132.664 118.022C131.537 118.114 131.892 120.338 132.062 121.032C132.216 122.013 133.76 121.781 133.722 120.129Z" fill="#3D9CFB"/>
<path d="M146.29 114.185C147.494 114.185 147.641 110.796 146.29 110.796C145.387 110.796 145.935 112.61 145.611 113.66C145.472 114.108 145.834 114.185 146.29 114.185Z" fill="#3D9CFB"/>
<path d="M84.2821 100.937C85.0541 100.396 84.2821 99.2845 83.4561 98.6824C82.1746 97.8563 81.3485 98.6052 82.0279 99.4544C82.5837 100.111 83.2863 101.67 84.2821 100.937Z" fill="#3D9CFB"/>
<path d="M144.028 114.262C144.854 114.262 144.931 112.718 144.8 111.699C144.669 110.68 144.568 110.495 143.819 110.348C143.295 110.271 142.993 110.873 143.14 112.224C143.287 113.575 143.202 114.262 144.028 114.262Z" fill="#3D9CFB"/>
<path d="M84.6604 93.2631C83.68 92.7381 82.1591 93.3635 83.3017 94.3207C87.8951 98.1422 88.5899 95.3398 84.6604 93.2631Z" fill="#3D9CFB"/>
<path d="M140.484 113.66C140.337 114.787 141.688 114.486 141.843 114.262C142.368 113.49 142.291 110.494 141.241 110.27C140.044 110.054 140.646 112.525 140.484 113.66Z" fill="#3D9CFB"/>
<path d="M126.194 79.946C127.955 80.2779 124.99 76.4642 131.838 75.808C132.216 75.808 132.664 75.4297 132.61 75.036C132.378 74.0633 128.541 74.3644 126.511 76.4642C125.669 77.3829 125.137 79.7452 126.194 79.946Z" fill="#3D9CFB"/>
<path d="M85.0314 118.099C85.0314 116.894 84.5064 114.03 83.3021 114.787C82.6999 115.165 83.0782 117.103 83.3793 118.4C83.6032 119.318 85.0314 119.604 85.0314 118.099Z" fill="#3D9CFB"/>
<path d="M136.277 111.398C136.207 110.348 135.003 110.193 134.733 110.95C133.791 114.1 136.74 116.03 136.277 111.398Z" fill="#3D9CFB"/>
<path d="M56.4433 141.576C56.2889 140.595 55.0691 140.595 55.0074 141.275C54.6136 145.69 57.0378 145.436 56.4433 141.576Z" fill="#3D9CFB"/>
<path d="M138.462 114.262C139.666 114.486 139.365 111.853 139.365 111.174C139.365 110.495 138.006 109.97 137.713 111.02C137.481 111.776 137.257 114.185 138.462 114.262Z" fill="#3D9CFB"/>
<path d="M52.9762 144.656C53.8794 144.656 53.8022 142.703 53.8022 141.498C53.8022 140.294 52.4512 140.217 52.2582 141.575C52.0652 142.934 52.1501 144.656 52.9762 144.656Z" fill="#3D9CFB"/>
<path d="M58.6967 144.509C59.6 144.586 59.8239 142.78 59.6772 141.799C59.5305 140.819 58.0946 140.672 58.1332 141.799C58.1718 142.926 57.7935 144.432 58.6967 144.509Z" fill="#3D9CFB"/>
<path d="M134.308 76.2558C135.212 77.0278 136.794 76.2558 135.659 75.283C134.702 74.3026 133.042 75.2058 134.308 76.2558Z" fill="#3D9CFB"/>
<path d="M132.818 114.633C134.169 114.787 133.59 112.316 133.498 111.475C133.467 111.329 133.398 111.194 133.298 111.083C133.197 110.972 133.07 110.89 132.927 110.845C132.785 110.8 132.633 110.794 132.488 110.827C132.342 110.86 132.208 110.931 132.099 111.033C131.953 111.169 131.86 111.354 131.838 111.552C131.761 112.602 131.459 114.486 132.818 114.633Z" fill="#3D9CFB"/>
<path d="M129.676 114.332C130.649 114.409 130.502 112.981 130.348 111.553C130.278 110.781 128.997 110.348 128.843 111.475C128.688 112.603 128.68 114.262 129.676 114.332Z" fill="#3D9CFB"/>
<path d="M100.232 94.6143C101.436 95.7414 102.1 94.0198 101.212 93.0703C100.062 91.8814 98.6571 91.4104 98.1244 91.7115C97.252 92.2133 99.2593 93.7187 100.232 94.6143Z" fill="#3D9CFB"/>
<path d="M61.4845 144.023C62.5345 144.1 62.5345 142.147 62.3106 141.244C62.0867 140.34 60.7666 140.641 60.7666 141.39C60.7666 142.139 60.4269 144.023 61.4845 144.023Z" fill="#3D9CFB"/>
<path d="M78.7239 87.396C78.7239 88.0754 79.9977 88.0754 82.7074 89.1253C83.6107 89.5036 84.1356 88.9014 84.1356 88.5232C84.1279 87.1335 78.7239 86.0064 78.7239 87.396Z" fill="#3D9CFB"/>
<path d="M103.621 115.389C103.522 115.418 103.43 115.466 103.35 115.53C103.27 115.595 103.203 115.675 103.155 115.765C103.106 115.856 103.075 115.955 103.065 116.058C103.055 116.16 103.066 116.264 103.096 116.362C103.397 117.944 102.941 119.373 103.922 119.373C105.35 119.373 104.671 115.312 103.621 115.389Z" fill="#3D9CFB"/>
<path d="M83.8345 83.6287C82.5529 83.6287 82.2905 84.9102 83.3018 85.0646C84.5833 85.1341 86.3898 85.9678 87.0692 85.8906C89.4701 85.6359 87.7717 83.6287 83.8345 83.6287Z" fill="#3D9CFB"/>
<path d="M42.0679 141.12C41.2959 141.274 41.0875 144.285 42.2918 144.054C42.9712 143.907 42.9712 142.78 42.9712 141.738C43.0406 141.352 42.894 140.973 42.0679 141.12Z" fill="#3D9CFB"/>
<path d="M135.605 79.9459C133.996 80.9597 132.095 81.4104 130.201 81.2275C128.542 81.1039 127.715 80.6253 127.414 81.2969C126.735 82.841 129.823 82.841 131.027 82.841C134.339 83.0648 138.747 81.1117 137.574 77.3443C137.501 77.1565 137.358 77.0046 137.175 76.921C136.992 76.8373 136.783 76.8285 136.594 76.8965C135.374 77.4601 136.81 78.9655 135.605 79.9459Z" fill="#3D9CFB"/>
<path d="M103.242 113.729C104.223 113.884 104.146 111.251 103.32 109.514C102.795 108.464 101.667 109.066 101.969 110.348C102.27 111.853 102.416 113.66 103.242 113.729Z" fill="#3D9CFB"/>
<path d="M78.5617 92.3602C79.4572 92.6767 80.9704 93.2634 81.4258 93.0396C82.1978 92.6613 81.4258 91.0632 78.7161 90.7235C77.7356 90.5769 77.3496 91.9356 78.5617 92.3602Z" fill="#3D9CFB"/>
<path d="M77.357 105.754C78.3915 104.758 76.3071 100.867 75.3266 101.693C74.5546 102.295 75.5505 104.171 76.3071 105.607C76.3587 105.695 76.4296 105.77 76.5144 105.826C76.5991 105.883 76.6956 105.919 76.7965 105.933C76.8974 105.947 77.0001 105.938 77.097 105.907C77.194 105.876 77.2828 105.824 77.357 105.754Z" fill="#3D9CFB"/>
<path d="M78.114 84.7634C78.886 84.9719 80.9704 84.9873 80.5226 83.8602C79.8433 82.2003 76.0913 84.1921 78.114 84.7634Z" fill="#3D9CFB"/>
<path d="M64.7194 142.178C64.4878 141.275 63.5151 141.352 63.4379 141.722C62.2258 145.775 65.5995 145.613 64.7194 142.178Z" fill="#3D9CFB"/>
<path d="M97.3756 112.525C97.4528 113.428 97.2984 115.312 98.5027 115.536C99.707 115.76 99.3288 113.359 98.881 112.224C98.4332 111.089 97.2984 111.598 97.3756 112.525Z" fill="#3D9CFB"/>
<path d="M94.0634 94.9927C93.8396 95.4482 94.5189 96.1971 95.345 97.1003C96.171 98.0036 96.696 98.6443 97.2287 98.459C97.7614 98.2738 97.5992 96.915 96.7732 95.9732C95.9471 95.0313 94.4417 94.2439 94.0634 94.9927Z" fill="#3D9CFB"/>
<path d="M91.13 87.6199C93.0137 88.4459 94.5191 89.8278 95.7235 89.7274C97.2675 89.6039 94.2875 86.5699 91.5083 86.4155C90.6051 86.3383 90.0029 87.1721 91.13 87.6199Z" fill="#3D9CFB"/>
<path d="M87.988 67.9024C92.4271 66.2504 93.0292 58.9472 88.5902 57.5189C89.7198 56.3996 90.4548 54.9434 90.6846 53.3699C90.9144 51.7964 90.6264 50.1908 89.864 48.7953C89.864 48.7953 93.1759 39.6084 86.1815 29.9814C90.3967 38.9367 86.1043 57.5189 80.7775 61.958C80.7466 61.958 85.9345 62.9616 87.988 67.9024Z" fill="#3D9CFB"/>
<path d="M96.5495 141.12C95.7234 141.12 96.0245 142.101 95.9473 143.228C95.8701 144.355 96.0245 145.034 96.7734 144.888C97.5222 144.741 97.6766 143.83 97.5994 142.479C97.6766 141.421 97.2983 141.12 96.5495 141.12Z" fill="#3D9CFB"/>
<path d="M87.9878 141.051C87.0846 141.275 87.1541 141.954 87.1541 142.857C87.1541 143.761 87.1541 144.509 87.9878 144.656C88.9606 144.811 88.8139 143.984 88.8911 143.112C89.0223 141.576 88.5746 140.935 87.9878 141.051Z" fill="#3D9CFB"/>
<path d="M85.1856 141.421C84.4136 141.722 84.5835 142.402 84.5835 143.081C84.5835 144.285 85.1084 144.432 85.3555 144.432C86.9535 144.432 86.3282 140.997 85.1856 141.421Z" fill="#3D9CFB"/>
<path d="M83.0778 141.275C81.9506 141.198 81.9506 143.907 82.9311 144.208C84.0737 144.556 83.7726 141.445 83.0778 141.275Z" fill="#3D9CFB"/>
<path d="M91.0756 141.12C89.879 141.22 89.8712 144.432 90.9984 144.586C92.1255 144.74 91.9016 143.382 91.8321 142.556C91.7627 141.73 91.8476 141.058 91.0756 141.12Z" fill="#3D9CFB"/>
<path d="M109.604 121.634C109.079 121.781 109.357 122.916 109.458 124.043C109.573 125.471 109.527 126.598 110.43 126.521C111.735 126.405 111.21 121.14 109.604 121.634Z" fill="#3D9CFB"/>
<path d="M93.0829 141.575C92.6892 142.618 92.9362 144.509 93.9167 144.509C94.8971 144.509 94.7582 142.193 94.5883 141.421C94.4571 140.819 93.3917 140.819 93.0829 141.575Z" fill="#3D9CFB"/>
<path d="M101.29 142.023C100.988 143.004 101.367 144.656 102.193 144.509C103.173 144.355 102.965 142.402 102.718 141.722C102.471 141.043 101.436 141.498 101.29 142.023Z" fill="#3D9CFB"/>
<path d="M108.739 109.893C108.438 108.017 107.01 105.075 106.176 105.376C105.049 105.832 106.64 107.801 107.234 110.418C107.574 111.938 108.963 111.251 108.739 109.893Z" fill="#3D9CFB"/>
<path d="M99.4058 141.576C98.5797 141.877 98.7264 143.382 98.8036 144.131C98.8808 144.586 99.1047 145.111 99.7069 144.903C100.487 144.725 100.71 141.081 99.4058 141.576Z" fill="#3D9CFB"/>
<path d="M127.175 114.563C128.078 114.864 128.078 112.903 127.854 111.776C127.631 110.649 126.419 111.097 126.31 112.224C126.202 113.351 126.349 114.331 127.175 114.563Z" fill="#3D9CFB"/>
<path d="M44.7555 141.12C43.389 140.973 43.4971 144.656 44.6783 144.509C45.2804 144.432 45.3576 143.83 45.2804 142.78C45.2032 141.73 45.3808 141.197 44.7555 141.12Z" fill="#3D9CFB"/>
<path d="M36.1241 56.4697C34.1632 53.9838 32.4339 49.097 33.8621 45.9318C34.8425 43.8242 36.0469 45.1598 38.8338 45.1058C41.6208 45.0517 43.7206 41.7939 41.8446 37.5787C47.3336 36.1505 44.9327 25.8442 54.2585 24.5627C39.7371 24.2616 32.5111 27.8746 31.5306 42.1721C30.4035 45.183 24.8373 43.7162 25.2079 51.1969C25.2851 52.1774 24.3046 53.1578 23.4091 52.8567C18.1363 51.4285 13.6972 54.4007 16.3298 61.5109C24.6057 54.3621 28.9753 56.9175 36.1241 56.4697Z" fill="#3D9CFB"/>
<path d="M49.3877 141.498C49.241 142.556 49.0866 144.432 50.067 144.586C51.0475 144.741 50.8931 142.703 50.8391 141.653C50.785 140.603 49.5189 140.371 49.3877 141.498Z" fill="#3D9CFB"/>
<path d="M47.1873 140.935C46.1297 141.236 46.2069 144.47 47.334 144.548C48.4611 144.625 48.16 142.44 48.0134 141.838C48.0134 141.197 47.7895 140.749 47.1873 140.935Z" fill="#3D9CFB"/>
<path d="M42.1449 138.41C37.9298 138.564 37.6287 145.713 40.6009 146.902C41.3729 147.203 42.4074 147.126 50.2278 147.203C65.4287 147.28 67.459 148.33 67.6134 142.687C67.7601 140.054 67.0885 138.773 64.3015 138.394C62.3483 136.217 58.5809 132.905 55.5006 131.925C51.8568 133.168 50.498 131.408 42.1449 138.41ZM64.8651 139.992C67.0499 140.517 66.7488 145.489 63.8846 145.636C62.6803 145.713 42.5 145.867 41.5427 145.489C40.184 144.956 39.8057 140.749 41.4655 140.147C45.0785 138.788 64.4173 139.915 64.8651 139.992Z" fill="#3D9CFB"/>
<path d="M124.612 114.107C125.67 114.262 125.384 112.154 125.384 111.251C125.404 111.046 125.342 110.842 125.212 110.683C125.082 110.524 124.894 110.423 124.689 110.402C124.485 110.381 124.28 110.443 124.121 110.573C123.962 110.704 123.861 110.892 123.84 111.096C123.717 111.853 123.562 113.961 124.612 114.107Z" fill="#3D9CFB"/>
<path d="M122.659 116.362C121.115 117.196 120.79 119.882 121.755 120.577C121.804 120.614 121.86 120.64 121.92 120.654C121.98 120.667 122.041 120.667 122.101 120.654C122.161 120.641 122.217 120.616 122.266 120.579C122.315 120.542 122.356 120.495 122.385 120.441C122.423 120.37 122.441 120.288 122.435 120.207C122.512 118.925 122.96 117.721 123.639 117.566C127.175 116.663 135.374 117.119 139.512 117.343C144.483 117.566 148.776 115.613 148.845 120.353C148.884 122.762 148.173 122.932 147.34 123.063C144.19 123.573 134.47 123.217 132.895 123.364C131.321 123.511 131.459 124.792 132.895 124.87C147.672 125.217 148.467 124.098 148.467 127.958C148.366 131.378 147.317 130.745 139.288 130.961C133.945 131.038 133.884 131.115 133.721 131.563C133.567 132.242 134.771 132.543 136.277 132.466C138.909 132.319 145.688 132.165 147.417 132.767C148.845 133.223 148.961 137.06 147.494 138.109C146.722 138.642 141.851 138.411 137.334 138.488C134.702 138.488 132.895 138.488 132.965 139.468C133.034 140.449 134.169 140.07 135.605 140.148C138.006 140.217 145.834 139.847 147.564 140.371C148.999 140.819 149.223 144.888 147.641 145.714C145.541 146.764 135.142 145.675 130.657 146.162C129.113 146.316 128.549 147.52 130.132 147.52C135.173 147.597 145.031 148.501 148.343 146.995C151.354 145.559 151.053 140.294 148.791 139.013C150.976 137.361 150.675 132.922 148.722 131.493C150.52 130.66 150.675 124.87 148.722 124.113C151.2 123.441 150.899 117.041 148.722 116.393C151.2 114.741 150.52 108.349 146.614 108.271C143.75 105.183 137.504 101.007 135.474 101.045C132.764 101.099 128.626 104.056 124.789 108.349C120.705 108.464 120.026 114.185 122.659 116.362ZM123.863 109.97C127.175 109.144 134.926 109.445 138.987 109.592C144.028 109.815 148.621 108.688 148.621 112.757C148.621 116.547 146.305 115.582 131.236 115.768C125.893 115.837 122.744 117.041 122.744 112.456C122.813 111.251 123.261 110.117 123.863 109.97Z" fill="#3D9CFB"/>
<path d="M108.663 119.226C108.698 119.405 108.797 119.566 108.94 119.679C109.083 119.793 109.262 119.851 109.445 119.845C109.565 119.842 109.684 119.809 109.79 119.751C111.071 118.979 109.79 114.262 108.516 114.262C107.08 114.262 108.361 117.342 108.663 119.226Z" fill="#3D9CFB"/>
<path d="M72.0919 86.6393C71.1886 87.172 71.2581 90.6075 72.3157 90.2523C73.5124 89.8509 73.0723 86.1916 72.0919 86.6393Z" fill="#001434"/>
<path d="M104.972 96.6527C99.3283 97.4247 93.461 101.841 93.3916 108.387C92.1178 105.006 78.9473 98.683 81.2016 104.705C84.1815 112.587 89.8095 111.946 93.7698 113.807C94.1481 116.671 92.6427 119.303 94.2948 119.45C95.9469 119.597 95.5763 114.046 95.1286 111.923C99.2665 108.688 105.659 105.608 106.709 99.5091C106.933 98.0809 106.778 96.3516 104.972 96.6527ZM82.5835 104.172C81.3869 102.18 92.7971 106.133 93.5691 111.892C89.7477 109.684 86.6288 111.954 82.5835 104.172ZM105.203 99.2466C104.068 104.442 98.8805 107.221 94.9665 110.055C93.9165 104.712 99.3283 98.8374 104.825 97.9342C105.203 97.7798 105.427 98.0809 105.203 99.2466Z" fill="#001434"/>
<path d="M73.2189 96.5749C74.4155 96.1735 73.5972 92.437 72.694 92.9619C71.7907 93.4869 72.1613 96.9301 73.2189 96.5749Z" fill="#001434"/>
<path d="M145.989 84.9876C142.523 85.5126 137.783 87.3963 136.131 90.631C135.897 89.865 135.621 89.1125 135.305 88.3767C135.912 88.0081 136.425 87.5028 136.803 86.901C137.181 86.2993 137.413 85.6177 137.482 84.9104C141.697 85.8137 144.785 80.9269 141.396 77.8388C143.58 74.828 141.998 70.5356 137.86 71.3694C137.404 68.5825 133.228 67.2315 131.159 69.2618C128.156 66.3282 122.211 69.2618 124.164 73.8476C118.969 73.5465 118.444 79.9464 122.281 81.6757C120.551 86.1148 125.214 88.9789 129.059 86.9408C129.548 87.7336 130.282 88.3461 131.149 88.6858C132.017 89.0256 132.971 89.0742 133.869 88.8245C134.742 90.4613 135.11 92.3206 134.926 94.1668C131.761 90.106 127.206 91.2332 122.659 90.3068C121.887 90.1523 121.532 90.384 121.532 91.0788C121.91 97.4015 128.48 100.111 134.17 97.857C134.023 100.567 134.702 105.454 136.578 105.075C136.679 105.066 136.776 105.031 136.86 104.975C136.943 104.918 137.011 104.84 137.057 104.75C137.102 104.66 137.124 104.559 137.12 104.458C137.116 104.357 137.086 104.258 137.034 104.172C135.83 101.856 135.374 97.5559 136.262 95.07C142.808 95.07 146.8 91.3104 146.8 85.7365C146.809 85.6303 146.794 85.5233 146.756 85.4238C146.718 85.3243 146.657 85.2349 146.579 85.1626C146.5 85.0902 146.407 85.0368 146.304 85.0065C146.202 84.9762 146.094 84.9697 145.989 84.9876ZM122.883 91.6809C127.253 92.7386 131.838 91.3104 134.324 96.313C128.341 98.7371 123.501 95.5101 122.883 91.6809ZM133.197 87.543C132.56 87.6741 131.897 87.5611 131.339 87.2266C130.782 86.892 130.37 86.3602 130.186 85.7365C129.731 83.7833 126.951 87.6202 124.242 85.3659C122.057 83.5594 125.361 80.8188 123.416 80.4714C120.328 79.931 120.25 74.635 124.767 75.5074C125.971 75.7313 126.272 74.6041 125.971 74.2258C124.319 71.9098 125.67 69.5938 128.287 69.5938C128.716 69.6266 129.133 69.7511 129.51 69.9589C129.887 70.1667 130.215 70.4528 130.472 70.7981C131.545 71.9098 132.425 69.3004 134.756 69.8949C137.227 70.5588 135.86 73.3689 137.466 72.9057C138.524 72.6046 139.782 72.5351 140.4 73.5079C142.075 75.8239 138.261 77.3216 139.798 78.5491C143.032 80.6489 140.261 84.6325 136.864 83.2197C136.74 83.1452 136.592 83.119 136.45 83.146C136.308 83.1731 136.18 83.2515 136.092 83.3664C135.853 84.0844 136.138 87.1492 133.197 87.543ZM145.549 86.493C145.248 88.1451 143.743 93.4411 136.671 93.5646C137.35 88.6778 141.488 87.844 145.549 86.4158V86.493Z" fill="#001434"/>
<path d="M67.274 40.3653C68.9338 39.2381 69.9837 39.3076 70.6631 39.462C72.2071 39.8403 71.8674 41.9479 73.2184 41.5696C74.9477 41.1141 73.4423 37.8794 71.0336 37.3544C70.0981 37.2047 69.1403 37.2784 68.2387 37.5695C67.337 37.8607 66.5171 38.361 65.8458 39.0297C65.0197 39.987 66.2935 41.0446 67.274 40.3653Z" fill="#001434"/>
<path d="M55.3081 111.776C53.8798 112.224 51.0234 117.798 48.9158 124.947C48.3909 126.676 50.3904 125.912 50.7918 124.715C51.9537 120.969 53.571 117.381 55.6091 114.031C55.8407 113.73 56.2113 113.961 56.4429 114.262C57.7702 116.1 58.9994 118.007 60.1254 119.975C60.5037 120.747 62.0091 120.508 61.7852 119.828C60.5809 116.594 57.1918 111.251 55.3081 111.776Z" fill="#001434"/>
<path d="M70.664 43.4458C68.8012 42.8664 66.7894 43.0013 65.0206 43.8241C63.963 44.4263 64.5651 46.0089 65.6923 45.5534C66.6822 45.1905 67.7523 45.1044 68.7875 45.3044C69.8227 45.5043 70.7837 45.9828 71.5673 46.6883C71.686 46.7719 71.8224 46.8269 71.966 46.849C72.1095 46.871 72.2562 46.8596 72.3946 46.8154C72.5329 46.7713 72.6592 46.6957 72.7634 46.5947C72.8677 46.4936 72.9471 46.3697 72.9955 46.2328C73.2193 45.2523 72.2543 43.9476 70.664 43.4458Z" fill="#001434"/>
<path d="M78.114 139.09C75.026 139.09 72.2468 139.051 70.7336 139.012C69.6219 139.012 69.2823 137.847 68.9349 136.604C72.5401 135.06 74.8021 134.349 77.0564 133.516C78.5618 132.914 77.5813 131.709 76.0836 132.088C73.8217 132.69 70.062 134.195 68.3636 134.797C66.3255 127.849 65.2755 127.347 64.5035 127.795C63.7315 128.243 65.0362 130.953 65.1829 131.485C67.4449 137.731 67.746 140.811 70.0774 140.811C71.3512 140.811 74.4393 140.888 76.9251 140.888C79.0868 140.935 79.3184 139.09 78.114 139.09Z" fill="#001434"/>
<path d="M73.7436 49.066C72.2382 50.0387 69.6056 50.2626 69.0035 48.0855C68.9719 47.8595 68.8701 47.649 68.7125 47.484C68.5548 47.319 68.3492 47.2077 68.1248 47.1658C67.9004 47.124 67.6686 47.1538 67.462 47.2509C67.2555 47.3481 67.0847 47.5077 66.9739 47.7072C64.8663 50.1931 61.2764 48.6182 60.9522 46.5029C60.7746 45.3063 59.2229 45.7309 59.524 47.5606C60.1262 50.7953 65.0902 51.9224 67.576 50.1159C69.3053 52.7485 72.9801 51.9996 74.4237 50.7181C75.7053 49.7685 75.1803 48.1936 73.7444 49.066H73.7436Z" fill="#001434"/>
<path d="M41.0116 132.921C32.6121 130.057 21.0706 127.201 15.5353 126.599C15.0104 121.858 17.7896 109.97 18.0907 104.55C25.8108 108.603 40.1469 121.303 44.2772 108.317C50.8238 104.249 63.9942 96.5752 65.7235 96.1274C67.3834 97.5556 70.6181 100.868 73.1734 100.713C76.3386 100.489 76.7864 95.2242 76.4158 90.1058C75.6438 78.8036 71.1971 75.7928 65.4997 86.4928C62.8547 86.3222 60.2328 85.8929 57.6715 85.2113C58.1945 84.8406 58.5862 84.3133 58.7902 83.7056C58.9942 83.0978 58.9998 82.441 58.8064 81.8299C57.9726 79.5679 54.3673 78.1397 54.0662 79.5679C54.0503 79.6917 54.059 79.8174 54.092 79.9378C54.125 80.0582 54.1815 80.1708 54.2584 80.2692C54.3352 80.3676 54.4308 80.4497 54.5396 80.5109C54.6484 80.5721 54.7683 80.611 54.8923 80.6255C60.5357 82.5015 54.8151 86.6395 49.4882 81.7527C49.4747 80.7356 49.6986 79.7294 50.1422 78.814C50.5858 77.8987 51.2369 77.0994 52.0436 76.4799C52.4991 76.1865 52.7229 75.4299 52.2752 75.206C50.7312 74.3028 48.1372 76.4104 47.7589 80.1701C44.2231 77.2364 43.8449 73.0213 47.6045 71.1376C47.704 71.0891 47.7919 71.0199 47.8623 70.9345C47.9326 70.8491 47.9838 70.7496 48.0124 70.6427C48.0409 70.5358 48.0462 70.4241 48.0277 70.315C48.0093 70.2059 47.9677 70.102 47.9056 70.0104C47.0255 68.9451 44.5937 70.0104 43.7677 72.5735C43.1732 66.9301 49.3879 64.7917 48.2839 63.4638C47.4578 62.3367 45.1959 64.6681 44.2926 65.5714C42.4938 64.0274 42.7486 62.5606 44.2926 61.5878C47.3806 59.7196 52.3369 62.8616 53.3251 62.8616C58.9685 63.541 61.3771 65.1236 64.6891 70.767C65.8162 72.643 67.1749 70.9909 66.4184 69.4855C65.3684 67.5323 63.037 64.6681 62.5043 64.5215C74.9954 63.0855 82.6768 72.3419 82.6768 81.2972C82.6768 82.5787 84.4061 82.6559 84.4061 80.6255C84.4702 77.1939 83.5188 73.8198 81.6714 70.9271C79.824 68.0344 77.163 65.7522 74.0226 64.3671C75.974 64.1464 77.892 63.6929 79.7355 63.016C86.8148 63.3866 91.6861 75.0825 87.0387 81.6755C86.7221 82.1232 86.8148 82.7177 87.2626 82.8026C89.455 83.2118 92.3038 75.5843 89.9723 70.6126C95.6157 69.1844 97.345 60.7541 93.2842 56.5389C96.0711 53.5358 94.9363 48.9424 91.7402 46.387C91.7402 45.5532 91.8174 44.8044 91.8174 43.9783C102.556 39.8095 108.03 14.6421 69.9233 13.0981C63.8244 3.06197 37.939 7.00692 34.4109 17.5371C15.4504 23.7826 14.6167 34.9999 25.6023 41.1682C22.4448 42.5193 20.9703 45.5301 20.9703 49.0736C13.5204 48.5409 8.93468 56.7937 13.7443 63.294C11.5672 66.7526 11.6367 70.7438 13.8987 74.5807C1.85537 90.7929 -1.37934 92.0358 16.3846 103.245C16.3074 108.896 12.9182 122.059 13.8987 127.255C11.4128 128.305 8.6336 130.412 7.42927 132.597C6.22494 134.782 7.12818 137.414 10.664 137.785C13.0726 138.017 34.519 138.163 38.2787 138.163C40.1624 138.163 40.008 136.511 37.5067 136.511C27.4706 136.511 11.9224 136.056 10.8724 135.909C5.93157 135.199 11.0963 129.625 15.3887 128.382C20.7927 128.907 33.4459 131.47 41.5752 134.558C42.5942 135.029 43.1114 133.632 41.0116 132.921ZM72.3937 81.6755C72.7284 82.0358 72.9626 82.4777 73.0731 82.957C72.0926 83.5128 72.6253 87.481 73.8991 85.8906C74.1626 87.0544 74.338 88.2363 74.4241 89.4264C73.0808 89.1253 73.2738 94.1125 74.6479 92.7383C74.6479 94.0199 74.8023 96.8763 73.8759 98.1424C73.5749 98.6673 72.8955 98.5901 72.5172 98.0652C69.6685 93.9735 71.2202 81.6755 72.3937 81.6755ZM53.356 85.6667C56.6068 86.875 59.9924 87.6839 63.4384 88.0754C60.8831 88.2221 54.9463 87.921 52.831 87.396C53.0549 86.7167 53.2016 86.1917 53.356 85.6667ZM61.4852 89.9823C67.1286 90.2833 66.7503 86.9714 69.6839 83.5128C68.7832 88.1868 68.9895 93.0066 70.2861 97.5865C68.7035 96.6061 67.1981 93.8963 65.4688 94.1974C63.5851 94.4985 51.6962 101.501 45.5278 105.26C47.5582 100.366 50.8701 92.7692 52.2983 89.1562C54.3364 89.6503 58.32 89.8047 61.4852 89.9823ZM43.2736 66.822C40.4866 71.3383 42.2931 76.9817 45.8289 80.5947C42.5942 82.3239 36.0476 84.2771 27.9955 77.9544C34.0944 75.4762 39.4367 70.5045 37.1747 62.9852C38.5464 62.7513 39.9496 62.7749 41.3127 63.0546C41.3197 63.7927 41.501 64.5186 41.8418 65.1733C42.1826 65.8279 42.6731 66.3929 43.2736 66.822ZM21.225 72.8437C21.9546 74.3641 22.9185 75.7604 24.0815 76.9817C15.7283 79.012 11.0654 68.5513 15.8827 63.2863C19.7968 58.3145 27.9183 56.0603 32.2879 57.4113C34.766 58.1833 40.641 57.1102 39.1356 60.9548C38.1971 60.923 37.2588 61.0244 36.3487 61.2559C35.9009 60.4839 35.2987 58.9398 34.2411 59.5961C34.1396 59.6633 34.0528 59.7505 33.9861 59.8524C33.9195 59.9543 33.8743 60.0687 33.8533 60.1886C33.8324 60.3086 33.8361 60.4315 33.8643 60.55C33.8924 60.6685 33.9445 60.7799 34.0172 60.8776C35.3413 62.5599 35.9891 64.6762 35.8334 66.8114C35.6777 68.9467 34.7298 70.9467 33.1757 72.4191C31.7525 71.0617 30.4885 69.5465 29.4083 67.9029C29.2523 67.7423 29.0445 67.6421 28.8218 67.6199C28.599 67.5977 28.3755 67.6549 28.1909 67.7814C28.0062 67.9079 27.8721 68.0956 27.8124 68.3113C27.7526 68.5271 27.771 68.757 27.8643 68.9605C28.9784 70.6865 30.2893 72.2772 31.7707 73.7006C30.1464 75.0042 28.2812 75.9748 26.2817 76.5571C24.8991 75.3073 23.774 73.7993 22.9698 72.118C22.8694 71.8867 22.6813 71.7046 22.4468 71.6119C22.2122 71.5193 21.9505 71.5236 21.7191 71.6239C21.4878 71.7243 21.3057 71.9124 21.2131 72.1469C21.1204 72.3815 21.1247 72.6432 21.225 72.8746V72.8437ZM80.0674 60.4916C77.1338 62.2981 68.7807 63.348 58.3972 61.8503C53.4332 61.472 45.2267 56.0525 41.691 61.171C41.4969 61.1076 41.2926 61.0814 41.0888 61.0938C41.5443 58.4612 40.7877 56.8786 37.1747 55.9753C35.1443 54.7015 32.8129 48.3016 34.8587 45.9392C35.237 45.4838 35.6847 45.561 36.6652 45.7154C40.8031 47.2594 44.64 41.5774 43.0574 38.1111C45.3734 37.0612 46.1454 35.1003 47.1259 31.7884C50.7389 20.0538 78.9557 25.7744 83.0937 29.5341C82.1133 29.3797 78.4617 28.7621 78.8013 30.3061C79.141 31.8501 81.6423 30.3061 85.0469 32.1898C85.2013 32.5681 85.4252 33.0158 85.5796 33.3941C77.1801 29.7657 72.0386 38.0571 76.4081 43.299C78.0602 45.3294 83.3562 46.2326 86.7144 46.387C85.788 52.4781 82.8544 59.102 80.0674 60.5302V60.4916ZM86.313 35.5866C85.1858 37.0148 81.9511 41.1528 80.3685 43.1832C78.1837 42.2105 76.5085 41.2918 77.0566 37.6942C77.8055 33.2011 84.2826 34.3437 86.313 35.6252V35.5866ZM93.1607 51.9918C93.3151 54.6398 90.5513 55.6279 91.8792 57.1797C94.5194 61.0397 94.5194 67.1154 89.5631 68.6208C88.914 66.9488 87.9033 65.4409 86.6034 64.205C85.3035 62.9692 83.7465 62.0359 82.0438 61.472C87.8338 56.6547 91.0685 41.4539 87.6099 33.178C90.4664 36.1116 90.6285 41.9094 90.2425 46.194C90.2096 46.5245 90.2636 46.8578 90.399 47.1611C90.5344 47.4644 90.7465 47.7271 91.0145 47.9233C91.6697 48.3912 92.2055 49.0068 92.5783 49.7204C92.9512 50.434 93.1507 51.2253 93.1607 52.0304V51.9918ZM67.4992 12.8201C57.1845 12.7907 46.9117 14.1329 36.9508 16.8114C43.8449 6.85252 62.3653 7.68629 67.4992 12.8201ZM20.4685 31.935C19.7968 14.4028 86.4674 7.77893 95.5694 24.215C100.309 31.742 97.2986 38.2115 91.8097 41.8244C92.0336 25.1182 73.1425 22.7095 58.7755 22.7095C37.8541 22.7867 29.3543 31.5876 27.3162 40.0179C23.7032 38.335 20.7001 36.3741 20.4685 31.935ZM14.6012 53.9836C15.9599 51.6675 18.3609 50.826 21.6728 51.0499C24.3825 51.2738 20.4685 43.1446 28.451 42.3957C30.1803 36.899 32.589 27.496 50.6462 25.0873C44.3235 28.3992 46.0142 34.2819 41.9148 36.7524C41.6559 36.9032 41.4602 37.1425 41.3637 37.4262C41.2673 37.7099 41.2765 38.019 41.3899 38.2964C41.9148 39.9485 42.0692 42.1564 39.8459 43.6387C37.7383 45.0669 35.5612 42.581 33.5308 44.7658C31.1222 47.4755 32.5504 53.0417 34.5808 56.0525C28.7135 54.3232 20.1365 55.7515 14.8637 61.8503C14.0568 60.7078 13.602 59.3541 13.5553 57.9562C13.5087 56.5583 13.8723 55.1773 14.6012 53.9836ZM10.2394 97.1002C0.905805 90.8546 8.88064 84.4624 14.9795 76.1865C17.2955 78.8885 22.1283 79.4907 25.7876 78.5874C32.4886 84.1613 39.9385 86.0373 47.1645 81.9765C48.4618 83.246 49.9621 84.2897 51.6035 85.0646C50.0981 90.6307 43.9993 103.724 41.8917 108.92C39.7841 114.115 33.4691 112.008 26.3898 107.785C19.5652 103.724 14.6475 100.111 10.2394 97.1002Z" fill="#001434"/>
<path d="M64.1177 121.179C58.621 121.256 54.0816 124.645 53.132 128.405C48.693 125.549 37.3985 127.425 42.3702 130.814C49.3183 136.364 62.6663 133.284 65.0209 122.159C65.0811 121.965 65.0616 121.754 64.9669 121.574C64.8721 121.394 64.7097 121.258 64.5153 121.198C64.3866 121.157 64.2496 121.15 64.1177 121.179ZM52.5993 131.864C49.4295 132.325 46.1994 131.632 43.4974 129.91C42.7254 129.455 42.818 129.138 43.1191 129.007C45.1495 128.405 49.519 127.803 52.8309 129.91C52.6819 130.551 52.6047 131.207 52.5993 131.864ZM63.4074 122.908C62.2803 125.695 59.5474 130.358 54.0739 131.64C54.3055 126.9 57.3163 123.742 62.7281 122.684C63.5155 122.461 63.5155 122.762 63.4383 122.908H63.4074Z" fill="#001434"/>
<path d="M53.7327 28.4765C56.6476 27.8164 59.686 27.947 62.5336 28.8548C62.6521 28.8969 62.7778 28.9146 62.9033 28.9069C63.0288 28.8992 63.1514 28.8663 63.2639 28.81C63.3763 28.7538 63.4763 28.6755 63.5577 28.5797C63.6392 28.4839 63.7005 28.3727 63.7379 28.2526C64.2629 25.844 56.4656 25.9907 53.2 27.0483C51.7023 27.527 51.9957 28.7776 53.7327 28.4765Z" fill="#001434"/>
<path d="M70.663 53.9839C68.7793 55.5279 65.0891 54.7559 63.9619 53.0807C63.6609 52.6329 62.9892 52.4785 62.6881 52.8568C61.8544 54.0611 63.3598 56.0143 67.05 56.6165C70.7402 57.2186 72.6933 55.3427 72.014 54.0611C71.8281 53.9026 71.5954 53.8092 71.3515 53.7953C71.1075 53.7813 70.8657 53.8476 70.663 53.9839Z" fill="#001434"/>
<path d="M65.2447 36.1505C66.0167 31.5184 62.6122 29.4495 56.5905 29.6039C51.1865 29.7505 47.8591 31.1865 47.3264 35.0079C46.5004 40.9524 50.5611 42.6817 55.9806 42.728C61.1068 42.8438 64.4187 41.1145 65.2447 36.1505ZM52.9775 40.6667C48.4613 40.8134 47.7896 34.1973 51.0244 32.3908C54.1124 30.6538 59.6014 31.1093 61.9328 32.2364C58.7672 34.8484 55.7758 37.6645 52.9775 40.6667Z" fill="#001434"/>
</svg>
