<svg width="156" height="156" viewBox="0 0 156 156" fill="none" xmlns="http://www.w3.org/2000/svg">
<path d="M38.3169 104.204C38.4568 104.204 38.5937 104.164 38.7112 104.088C38.8287 104.012 38.9215 103.904 38.9785 103.776C39.035 103.648 39.0529 103.507 39.03 103.369C39.0071 103.231 38.9444 103.102 38.8496 103C36.9617 100.839 35.3678 98.4375 34.1095 95.8586C35.6457 96.6259 37.2576 97.2313 38.9191 97.6651C39.9767 97.5879 40.1234 96.3063 39.2974 96.1211C37.1865 95.5051 35.1453 94.672 33.2062 93.6352C30.426 87.2291 28.8204 80.3753 28.4661 73.4009C32.4095 75.7969 36.7331 77.5018 41.2505 78.4421C41.4502 78.453 41.6464 78.3866 41.7982 78.2565C41.9501 78.1265 42.046 77.9429 42.0659 77.7439C42.0858 77.5449 42.0282 77.346 41.905 77.1884C41.7819 77.0309 41.6028 76.9269 41.4049 76.8981C36.7962 75.9033 32.3931 74.1222 28.3889 71.633C28.1104 61.6925 30.1731 51.8258 34.4105 42.8294C40.4245 47.3379 48.5537 50.7965 56.7988 52.7574V54.0312C56.7988 54.4095 58.3428 54.4095 58.3428 54.0312V53.0585C68.8884 55.2664 82.0125 54.7955 89.4855 53.2052C89.64 54.1084 89.64 54.1856 90.0877 54.3323C90.5355 54.479 90.6899 54.0312 90.7671 52.7883C95.4532 51.7352 99.9033 49.8217 103.891 47.1449C104.577 49.4609 105.093 51.8248 105.435 54.2165C105.959 54.2307 106.481 54.155 106.979 53.9926C106.539 51.384 105.936 48.8056 105.173 46.2725C107.414 44.5593 109.07 42.1942 109.913 39.502C109.982 39.2782 108.562 38.4521 108.562 38.8227C108.562 41.7023 105.142 44.2267 104.648 44.6899C101.941 37.0663 97.4393 30.2057 91.5237 24.6872C92.3978 23.6864 92.8804 22.4031 92.8824 21.0742C92.8824 20.7731 91.1454 19.5688 91.3384 20.4721C91.4165 21.6229 91.0363 22.758 90.2807 23.6296C83.7204 17.9437 76.0295 13.7128 67.7149 11.2157C61.2367 12.3728 55.1738 15.2046 50.1286 19.4299C45.1878 15.1993 49.0015 13.8251 47.5733 12.9604C45.6896 12.5127 45.6896 15.9713 46.4461 17.2528C47.0524 18.4606 47.8951 19.5344 48.9243 20.4103C42.6318 26.0987 37.5647 33.0098 34.0323 40.7218C31.0369 38.2746 24.8608 31.4577 25.8335 27.783C26.0574 26.8797 24.4825 28.1613 24.4825 28.555C24.4825 33.5962 28.5433 38.1819 33.4301 42.096C29.372 51.088 27.1464 60.7985 26.8835 70.6603C18.1598 64.7158 13.1186 56.7641 13.0491 53.8845C13.0477 53.7877 13.026 53.6922 12.9854 53.6042C12.9449 53.5163 12.8864 53.4378 12.8136 53.3738C12.7409 53.3098 12.6556 53.2617 12.5632 53.2327C12.4708 53.2037 12.3733 53.1943 12.2771 53.2052C10.1 56.5171 16.9091 65.9201 26.868 72.3896C26.8635 79.2201 28.174 85.9877 30.7281 92.3228C24.3359 88.6326 17.7892 83.3675 15.6894 80.0633C15.5787 79.8937 15.4058 79.7743 15.2079 79.731C15.0101 79.6877 14.8032 79.7239 14.6317 79.8317C13.8597 82.9969 23.8109 90.3619 31.7085 94.577C33.4104 98.1026 35.6387 101.349 38.3169 104.204ZM58.3891 51.3987C58.8495 43.2025 60.0825 35.0681 62.0716 27.1036C68.5468 29.2039 75.4364 29.6941 82.1438 28.5318C87.4089 37.711 88.3893 46.5891 89.1382 51.3987C79.0017 53.5029 68.541 53.5029 58.4045 51.3987H58.3891ZM90.3888 25.6754C96.3184 31.1184 100.77 37.9767 103.328 45.6086C99.4564 48.1479 95.1758 49.9996 90.6744 51.0822C90.4506 46.1954 88.5669 37.0162 83.6801 28.2925C86.3898 27.7058 88.7213 26.9569 90.3888 25.6754ZM89.2617 24.6255C87.3747 25.8458 85.2426 26.6365 83.0161 26.9415C80.095 21.9603 76.2389 17.5904 71.6599 14.0721C78.0559 16.6122 83.9957 20.1766 89.2462 24.6255H89.2617ZM67.823 12.891C73.2888 16.6588 77.9194 21.5128 81.4258 27.1499C75.0949 28.0469 68.6436 27.5194 62.5425 25.6059C64.1405 19.5071 66.0783 14.6203 67.8076 12.891H67.823ZM65.9393 12.8138C64.2872 15.2224 62.5579 19.8081 61.1297 25.2199C57.6882 24.1677 54.4379 22.5699 51.5028 20.4875C56.6752 16.1257 61.8631 13.4159 65.9239 12.8138H65.9393ZM50.2985 21.4602C53.5127 23.6702 57.0348 25.3948 60.7514 26.5786C58.7381 34.5933 57.4794 42.7788 56.9918 51.0281C48.7004 49.1444 40.9803 45.9869 35.1594 41.4707C38.8984 33.9094 44.0292 27.1208 50.283 21.4602H50.2985Z" fill="#3D9CFB"/>
<path d="M84.506 75.2459C85.6331 75.2459 86.1581 74.196 86.6908 74.1188C87.2234 74.0416 87.8951 75.4158 88.8678 75.3231C90.1493 75.1996 90.9754 73.4394 92.0253 74.0416C93.9862 75.1687 94.8895 73.4086 96.1633 73.5166C97.4371 73.6247 97.3676 72.5362 96.2405 72.2351C94.6965 71.7873 93.8318 73.0612 92.9286 72.6906C92.0253 72.32 91.7242 72.0884 90.9754 72.2351C90.2266 72.3818 89.1689 73.5938 88.7211 73.4394C88.2734 73.285 87.6635 72.2351 86.6908 72.459C85.718 72.6829 85.0309 73.8949 84.5832 73.8949C83.981 73.9644 83.3016 73.4394 83.0006 73.8949C82.6995 74.3504 83.4406 75.2459 84.506 75.2459Z" fill="#3D9CFB"/>
<path d="M84.0587 89.165C84.5837 88.393 84.8847 88.0302 85.2553 87.9607C86.0273 87.7291 86.7607 88.3312 87.664 88.2618C88.1889 88.1846 88.5672 87.5824 88.7911 87.3585C89.1694 86.7564 89.6943 86.9802 90.3737 87.1269C92.4272 87.6442 92.049 86.4861 95.4149 86.903C96.6887 87.0574 95.6388 85.0271 93.6856 85.359C92.9136 85.4285 91.8019 85.884 91.0531 85.8068C89.5091 85.6369 88.5981 84.9344 87.3629 86.7872C86.6912 86.7872 85.8189 86.3317 85.1086 86.4861C84.4915 86.5889 83.9399 86.9313 83.574 87.4388C83.2082 87.9464 83.0577 88.5779 83.1554 89.1959C83.2048 89.2725 83.2731 89.335 83.3537 89.3775C83.4343 89.4199 83.5245 89.4409 83.6156 89.4383C83.7068 89.435 83.7955 89.4081 83.8732 89.3602C83.9509 89.3123 84.0148 89.245 84.0587 89.165Z" fill="#3D9CFB"/>
<path d="M95.5612 77.9553C94.2873 77.8781 93.8319 79.4993 92.9286 79.6074C92.0254 79.7155 91.2765 78.627 89.8406 78.627C88.4046 78.627 86.382 80.171 86.5287 81.5606C86.6059 81.9389 86.9842 82.24 87.5091 81.715C90.4736 78.7505 91.3692 81.3753 92.9981 81.2672C95.3141 80.9353 94.9127 78.82 96.2328 80.1324C97.7768 81.1977 98.7881 80.1324 99.0892 80.364C99.3131 80.4335 99.5447 80.7345 99.8612 80.8117C100.764 81.1128 101.289 80.9661 101.513 80.5878C101.814 80.0629 100.988 80.2096 100.162 79.1596C99.1124 78.1097 98.2323 79.1596 97.5993 79.0824C97.1438 79.0052 96.7655 77.9553 95.5612 77.9553Z" fill="#3D9CFB"/>
<path d="M118.807 91.0411C118.807 91.0411 121.895 60.7321 126.326 56.3625C123.238 56.3625 120.235 56.7408 118.282 56.818C119.556 61.4501 116.622 89.0107 115.649 96.1904C117.68 94.6541 118.807 91.0411 118.807 91.0411Z" fill="#3D9CFB"/>
<path d="M89.9176 59.5276C88.9449 60.8786 88.4894 61.3264 87.5167 61.6275C86.544 61.9286 80.9701 61.8591 78.0364 61.7047C72.918 62.0058 75.2495 57.119 69.7605 57.5667C49.0476 57.9141 47.5499 57.1344 46.8165 61.7819C44.4155 77.222 42.6013 89.1341 41.1036 106.466C40.818 109.77 42.4546 110.017 43.5123 110.071C57.4084 110.797 86.6134 110.673 105.041 110.974C110.445 110.974 110.384 108.72 110.53 106.913C110.53 106.821 114.066 72.2349 114.892 61.7047C115.394 56.7175 112.453 58.5086 93.685 57.5667C90.6742 57.4201 90.8981 58.1689 89.9176 59.5276ZM106.168 69.3785V71.486C106.994 71.9338 109.025 72.011 108.878 73.2925C108.724 76.5272 107.751 86.4167 106.693 95.3333C105.721 103.825 105.149 103.756 103.536 104.358C103.011 105.632 103.235 106.612 89.6938 106.087C72.8563 105.423 53.2936 106.296 50.885 105.562C49.1479 105.03 50.2056 97.7343 50.2056 97.7343C50.2056 97.7343 49.1479 97.5876 49.2251 96.831C49.6806 92.7008 51.7805 71.5632 52.1588 68.6296C53.9653 64.8622 75.4039 65.0166 79.3875 74.0337C85.4863 64.7155 100.077 66.2209 106.168 69.3785Z" fill="#3D9CFB"/>
<path d="M100.155 93.1487C99.1049 93.1487 99.8614 92.1374 97.7461 92.7704C97.1517 93.0715 97.2212 91.7668 96.0168 91.4194C94.8666 91.1878 94.8202 91.898 94.0559 91.6433C91.4234 89.9989 90.9216 92.1682 90.2963 92.1682C89.6709 92.1682 88.4898 90.6242 87.6637 90.8172C86.3032 91.2397 85.0658 91.9869 84.0585 92.9943C83.2864 93.8975 83.9041 94.2758 84.6529 93.9747C85.4017 93.6737 87.0616 92.4307 87.6637 92.5465C88.7445 92.8167 89.8562 95.1482 91.5778 93.0715C92.5042 91.9598 92.7127 93.2645 94.2876 93.3726C95.1522 93.3726 95.461 92.8013 95.7852 93.2954C95.974 93.7065 96.3183 94.0259 96.7425 94.1832C97.1674 94.3389 97.6367 94.3195 98.0472 94.1291C98.4255 94.0519 98.5722 94.2758 98.7266 94.353C99.0972 94.7313 99.3982 94.6541 100.078 94.4997C100.757 94.3453 101.205 94.8857 101.622 94.7313C102.262 94.4379 101.583 92.9943 100.155 93.1487Z" fill="#3D9CFB"/>
<path d="M125.654 98.5681C128.657 96.1595 128.958 96.0051 128.958 96.0051C128.958 96.0051 135.806 86.9803 138.817 86.3781C134.455 86.2314 134.077 86.2314 134.077 86.2314C134.077 86.2314 126.557 95.4029 125.654 98.5681Z" fill="#3D9CFB"/>
<path d="M56.2197 87.428C57.3546 87.5052 57.7637 85.884 58.1034 85.884C58.4431 85.884 59.6474 87.0883 60.2882 86.9339C60.9289 86.7795 61.3381 85.9612 61.7164 85.884C62.0947 85.8068 62.6196 87.7368 64.9511 87.428C65.4761 87.3663 65.8543 86.602 64.4956 86.2314C63.5924 85.9998 63.1446 84.4249 61.8631 84.3477C60.8826 84.2705 60.5815 85.3977 60.0566 85.3977C59.5316 85.3977 59.0066 84.0466 57.8795 84.2705C56.7524 84.4944 56.7524 85.6987 56.1502 85.8145C55.5481 85.9303 54.8532 83.9231 54.4209 84.9113C53.9886 85.8995 55.0926 87.3663 56.2197 87.428Z" fill="#3D9CFB"/>
<path d="M55.4713 73.1384C56.7528 73.8177 57.4244 72.1656 57.7873 72.1656C58.1501 72.1656 59.3313 73.8177 60.4198 73.8177C61.3231 73.8177 61.7785 72.845 62.1491 72.7601C62.5197 72.6752 63.6931 73.8177 64.4034 73.7405C65.1136 73.6633 65.9474 72.459 66.4338 72.459C67.1077 72.5285 67.7539 72.7616 68.3175 73.1384C68.8424 73.4394 69.5758 72.9299 68.7729 72.0884C67.97 71.2469 66.6654 70.8069 65.9088 71.108C65.1522 71.4091 64.4034 72.4667 64.0328 72.3123C63.3457 72.0267 62.7513 71.2701 62.0719 71.4091C61.2536 71.5789 60.9448 72.459 60.5279 72.3895C60.111 72.32 58.8681 70.583 57.741 70.6602C56.8377 70.7297 56.691 72.0884 55.4249 71.8645C54.4908 71.7101 54.6452 72.6983 55.4713 73.1384Z" fill="#3D9CFB"/>
<path d="M71.3434 79.6461C70.6255 80.3641 70.2395 77.9554 68.4098 79.1211C68.1087 79.2678 67.8694 79.5071 67.4294 79.0439C64.3413 75.8478 63.3223 79.8159 62.0253 78.519C60.4813 77.2374 59.2924 77.5231 58.1653 78.8973C58.0783 78.9781 58.0191 79.0843 57.9961 79.2007C57.973 79.3172 57.9873 79.4379 58.037 79.5457C58.0866 79.6536 58.169 79.743 58.2725 79.8012C58.3759 79.8594 58.4951 79.8835 58.613 79.87C59.138 79.7079 59.4391 79.2678 60.0413 79.2678C60.6434 79.2678 61.1684 80.4027 62.5271 80.4027C63.8858 80.4027 64.7814 79.2678 65.3063 79.345C65.8313 79.4222 66.7346 80.889 67.6224 81.0048C68.5102 81.1206 69.1664 80.1633 69.5061 80.4027C70.0696 80.7578 71.0501 82.0162 71.9919 81.0743C72.4397 80.5494 73.5359 81.9776 74.5473 82.132C74.995 82.2014 75.1494 81.9004 74.0223 80.7732C72.7717 79.4608 72.0923 79.1597 71.3434 79.6461Z" fill="#3D9CFB"/>
<path d="M129.862 62.384C123.392 73.2924 115.865 104.204 115.865 104.204C115.865 104.204 114.584 114.51 114.321 117.366C119.725 98.9385 132.525 77.2219 138.848 72.5359C137.425 72.3472 135.991 72.2467 134.556 72.2348C128.579 81.8426 123.165 91.79 118.344 102.027C121.957 84.7953 135.328 62.9089 135.328 62.9089C133.531 62.5309 131.698 62.3548 129.862 62.384Z" fill="#3D9CFB"/>
<path d="M67.954 90.9639C66.8269 90.9639 66.302 92.1682 65.8542 92.0987C65.216 91.8038 64.5613 91.546 63.8933 91.3267C63.2216 91.3267 62.3879 92.0061 62.0173 92.0061C61.6467 92.0061 61.0369 91.3267 60.4733 91.3267C59.7939 91.3267 58.8135 92.3844 58.5124 92.3844C58.2113 92.3844 57.7404 91.3267 56.8603 91.3267C55.656 91.2495 54.9071 92.531 54.2278 92.531C53.7028 92.531 53.1778 92.1528 52.9462 92.531C52.7146 92.9093 53.3245 93.6582 54.3822 93.7354C55.4398 93.8126 56.1115 92.7549 56.482 92.6854C56.8526 92.616 57.5397 94.0365 58.3657 93.9593C59.1918 93.8821 59.8711 92.8321 60.3961 92.8321C60.9211 92.8321 61.446 93.5115 62.1254 93.5115C62.6504 93.5115 63.6308 92.531 64.0091 92.7395C66.8192 94.5305 66.8038 92.5156 67.9927 92.3689C68.5948 92.2917 70.4013 94.4688 71.0035 93.7199C71.4204 93.2953 69.6139 90.9639 67.954 90.9639Z" fill="#3D9CFB"/>
<path d="M57.123 131.132C55.3937 131.811 52.5372 131.734 47.3494 131.734C36.603 131.734 33.0132 132.328 35.8387 129.858C36.1398 129.557 35.8387 129.333 35.2366 129.479C34.4611 129.748 33.8157 130.299 33.4301 131.024C32.6581 132.753 34.1094 133.054 42.7559 133.131C51.7884 133.131 55.9186 133.285 57.949 131.927C59.0067 131.371 58.1806 130.761 57.123 131.132Z" fill="#001434"/>
<path d="M107.149 71.1077C107.149 69.2472 107.296 68.7454 105.566 68.0969C97.6687 65.0088 84.2049 65.1632 79.542 72.9142C76.23 66.9697 68.1857 65.3948 61.863 65.5415C57.4239 65.6187 52.0817 66.3135 51.7111 68.5524C51.41 70.4283 48.7389 95.6267 48.7775 97.2865C48.7775 97.8886 48.9241 98.0585 49.2252 98.1897C48.3915 103.192 47.3106 106.134 51.41 106.612C55.0153 107.068 66.8502 107.292 73.2192 106.388C73.6926 106.342 74.1685 106.447 74.5779 106.69C76.755 108.195 78.1909 107.068 80.0669 106.612C84.9537 106.836 100.757 107.323 102.332 106.991C103.621 106.713 104.648 105.786 104.74 104.736C105.088 104.606 105.398 104.394 105.647 104.119C105.896 103.843 106.074 103.513 106.168 103.154C107.373 99.1624 109.781 78.0326 109.781 73.2925C109.689 72.0881 109.257 71.154 107.149 71.1077ZM51.7111 102.806C53.2551 103.408 55.1697 102.505 57.5783 102.281C64.1172 101.602 69.6834 102.135 75.1801 104.389C53.0158 104.08 51.7111 105.122 51.7111 102.806ZM74.8713 102.806C63.6077 97.989 55.0076 101.525 52.6066 101.262C51.3482 101.054 52.4754 100.019 52.6066 98.2592C60.2804 97.8037 68.4791 95.9972 76.1451 102.544C76.3844 102.853 76.3922 103.424 74.879 102.806H74.8713ZM50.1671 96.9391C50.2443 94.2293 51.9736 76.782 52.7224 69.5637C52.7561 69.1756 52.906 68.8067 53.1525 68.5052C53.399 68.2036 53.7307 67.9833 54.1043 67.873C61.3535 65.8967 73.9989 66.6378 78.1755 73.5936C78.8857 74.7053 78.6927 74.3192 77.3417 93.5268C77.195 95.48 77.2723 95.6344 77.6428 95.7038C78.0134 95.7733 77.9902 95.0245 78.1755 93.8279C79.5574 84.4866 79.4879 75.9019 80.808 73.663C84.3361 67.2708 96.2482 66.3676 104.648 69.3012C105.929 69.7567 105.628 70.1273 105.628 70.8452C105.628 76.8669 103.744 92.2067 102.617 99.5021C102.393 101.162 101.714 100.637 101.073 100.336C94.2255 97.1707 82.8693 97.4023 77.6042 101.834C68.1857 94.1984 58.9294 96.6843 50.2443 96.9082L50.1671 96.9391ZM78.6773 104.088C85.8184 100.629 93.7932 103.107 100.185 104.466C98.5874 104.806 97.383 104.698 78.7159 104.057L78.6773 104.088ZM104.663 102.806C103.613 105.663 90.9522 98.1743 79.9588 102.034C81.4411 100.259 90.4272 97.2633 101.397 102.112C102.679 102.706 103.713 102.413 104.03 100.753C105.111 95.5803 106.964 79.8391 107.265 72.6208C108.168 72.698 108.168 72.7675 108.168 73.3002C108.145 77.8782 106.022 99.0158 104.663 102.806Z" fill="#001434"/>
<path d="M84.807 116.093C88.1884 116.239 86.0886 114.664 80.947 114.51C75.8054 114.356 61.2377 113.908 56.5747 114.209C51.9118 114.51 51.8346 115.714 53.7183 115.714C55.602 115.714 81.4256 116.015 84.807 116.093Z" fill="#001434"/>
<path d="M68.0008 124.423C67.6225 124.423 66.3487 124.276 64.9128 124.199C65.9627 123.674 67.5453 122.917 68.0008 122.693C69.3441 122.122 68.6956 120.208 61.7553 124.122C28.7751 123.442 36.0474 124.693 37.051 122.624C37.2054 122.392 36.5956 121.991 35.2523 122.47C34.3858 122.846 33.554 123.299 32.7664 123.821C29.4545 123.898 28.3351 123.913 27.5013 124.353C26.9069 124.662 26.5981 125.48 27.6557 125.48H30.2883C27.6557 127.356 28.4046 127.735 29.3078 127.735C30.2111 127.735 32.087 126.229 33.2219 125.48C39.9152 125.403 50.8237 125.403 59.2463 125.55C58.4743 126.005 57.2931 126.754 57.517 127.132C57.7408 127.511 58.7213 127.735 62.149 125.627C64.7043 125.704 66.7347 125.704 69.0971 125.781C71.0888 125.866 70.3168 124.593 68.0008 124.423Z" fill="#001434"/>
<path d="M89.7713 118.872C92.0873 117.521 90.7518 116.772 89.5474 117.367C88.3431 117.961 87.8876 118.2 86.691 118.872C86.4594 118.872 77.2108 118.571 74.7249 118.725C72.239 118.88 70.5175 120.076 72.7717 120.154C75.026 120.231 79.7198 120.378 83.8269 120.378C81.5108 121.582 78.7316 123.195 77.2108 123.991C75.6899 124.786 77.4346 125.535 79.3878 124.515C81.341 123.496 83.9041 122.107 86.9921 120.378C90.0801 120.378 92.6277 120.571 94.7122 120.601C96.7966 120.632 96.2562 119.104 93.3611 118.949C92.4811 118.949 92.18 118.872 89.7713 118.872Z" fill="#001434"/>
<path d="M132.193 102.173C128.889 103.154 122.721 108.496 121.138 110.372C117.201 115.066 129.398 105.609 132.95 103.301C134.625 102.212 135.505 101.201 132.193 102.173Z" fill="#001434"/>
<path d="M110.909 57.3429C108.5 57.2657 96.7653 56.8951 92.3263 56.8951C89.3078 56.8951 89.493 60.7551 87.5167 60.9559C85.1003 61.2106 77.2104 61.1797 76.3072 60.8015C75.681 60.4492 75.1814 59.9091 74.8789 59.2574C73.6746 57.2271 73.0724 56.7793 69.0117 56.7793C63.7466 56.7793 54.9457 56.7793 50.0512 57.3043C47.1948 57.6053 46.4459 59.7901 46.1448 61.89C45.6199 65.2791 41.1036 95.3642 40.5015 106.728C40.3471 109.886 41.2735 110.588 43.134 110.635C46.6698 110.858 93.0829 111.461 104.817 111.461C109.179 111.461 111.055 110.936 111.356 106.651C111.472 105.061 115.595 65.6651 115.726 61.5194C115.726 57.4973 113.317 57.4201 110.909 57.3429ZM109.928 106.612C109.704 109.245 109.025 109.924 106.168 110.071C102.633 110.225 46.7238 109.7 43.3579 109.245C42.2308 109.098 41.9297 109.168 42.0841 106.836C42.609 95.5572 47.1176 65.5416 47.6502 62.1602C48.0208 59.5276 48.9241 58.995 50.2828 58.8483C55.849 58.3233 64.5726 58.3233 70.5171 58.3233C74.3771 58.3233 73.1265 60.8864 75.7822 62.083C77.2181 62.7315 85.9341 62.4613 87.8178 62.3069C90.5198 62.083 90.3731 58.3233 92.4498 58.2461C98.1627 58.1689 108.546 58.6244 110.978 58.6939C117.015 58.8792 113.95 58.802 109.928 106.612Z" fill="#001434"/>
<path d="M81.3483 59.8984C83.3787 60.0528 83.757 57.042 81.6494 57.042C79.3874 57.042 79.2407 59.7517 81.3483 59.8984Z" fill="#001434"/>
<path d="M103.992 124.816C105.343 124.044 106.246 123.612 107.373 122.933C108.5 122.253 109.025 119.775 107.898 120.377C106.771 120.979 102.71 123.164 101.884 123.689C101.058 124.214 102.633 125.565 103.992 124.816Z" fill="#001434"/>
<path d="M97.2905 128.283C97.7268 128.27 98.156 128.17 98.5535 127.99C98.951 127.81 99.3089 127.552 99.6065 127.233C101.042 124.825 98.0625 125.126 96.9045 126.708C96.3178 127.372 96.6189 128.214 97.2905 128.283Z" fill="#001434"/>
<path d="M90.5974 132.266C91.9587 131.644 93.2677 130.914 94.5114 130.081C95.3375 129.479 95.2835 127.673 94.2104 127.974C92.7698 128.528 91.4054 129.262 90.1496 130.159C89.5474 130.537 89.5474 132.637 90.5974 132.266Z" fill="#001434"/>
<path d="M135.883 94.654C130.178 98.074 126.812 103.648 135.729 96.6072C137.69 95.0863 138.894 92.8475 135.883 94.654Z" fill="#001434"/>
<path d="M39.9769 119.929C43.2116 119.929 47.1952 119.852 51.4103 119.929C50.8854 120.3 49.6038 121.057 49.8663 121.474C50.1288 121.89 51.2945 122.246 54.0043 119.929C57.764 119.999 61.4541 119.999 63.8551 120.076C66.256 120.153 66.1711 118.532 61.9019 118.532C58.59 118.463 59.2694 118.463 56.3357 118.463C57.7639 117.328 57.5401 116.919 56.8607 116.88C56.0347 116.733 55.3553 117.104 53.4021 118.463C48.8164 118.463 45.2034 118.385 41.7448 118.532C38.2862 118.679 37.8925 119.929 39.9769 119.929Z" fill="#001434"/>
<path d="M150.397 95.4029C148.908 94.8834 147.342 94.6223 145.765 94.6309C143.657 92.2222 143.958 88.8408 143.958 87.6365C143.958 86.4322 144.73 85.0734 135.991 85.2278C145.255 73.254 150.119 72.2195 135.76 71.5401C137.188 69.5793 138.693 67.5489 139.898 66.1361C140.878 65.009 141.704 63.5808 138.693 62.8242C136.063 62.2577 133.385 61.9449 130.695 61.8901C130.695 61.8129 131.29 60.0836 131.467 59.574C131.846 57.6131 132.07 56.3393 128.379 55.8838C125.271 55.66 122.148 55.735 119.053 56.1077C118.15 54.3784 116.421 53.5524 113.943 53.4057C113.719 22.3247 66.0783 -3.22876 33.6077 19.4374C13.0723 33.5033 3.1366 62.3841 17.3956 86.7564C22.9154 96.3447 30.6818 102.119 37.5527 104.057C37.1744 107.817 36.881 111.275 36.6494 114.286C32.2027 115.498 32.1872 116.417 8.44029 130.383C4.90449 132.49 4.75781 134.243 4.75781 137.076C4.75781 142.194 5.58386 145.128 10.324 145.352C23.6411 145.884 63.7314 145.352 67.5683 145.282C72.679 145.128 75.466 144.225 79.6811 142.271C83.8963 140.318 107.288 126.7 109.318 125.287C110.08 124.871 110.704 124.244 111.117 123.481C117.355 125.596 117.201 119.389 119.393 118.293C128.348 113.661 148.583 100.46 150.273 98.9927C151.964 97.5259 151.377 95.8584 150.397 95.4029ZM140.623 86.9803C137.01 88.5243 131.591 92.7703 127.005 97.3638C129.259 94.1291 131.822 90.5933 134.826 86.7564C135.729 86.8336 138.439 86.6792 140.623 86.9803ZM138.307 64.0362C140.315 64.4377 139.01 64.4454 134.015 71.71C126.092 82.4393 119.9 94.344 115.664 106.991C118.189 91.8671 124.156 78.3338 130.178 63.2102C132.899 63.2835 135.611 63.5599 138.292 64.0362H138.307ZM119.571 57.4201C122.44 57.0747 125.337 57.0204 128.217 57.258C130.248 57.4896 130.626 57.9374 129.499 61.0177C126.334 69.2936 120.397 82.6879 116.784 95.1713C119.957 58.9719 120.103 59.574 119.555 57.4201H119.571ZM103.992 32.1446C109.102 38.3207 112.113 45.5312 112.036 53.205C109.897 53.205 85.5098 52.8267 67.5066 52.9811C67.2635 52.474 67.1438 51.9166 67.1572 51.3545C67.1707 50.7923 67.3168 50.2413 67.5838 49.7464C68.3017 48.3722 70.1391 47.716 70.6718 46.2106C72.5555 40.6444 73.4587 39.9651 79.3955 41.0922C85.7954 42.2965 85.7182 37.8575 87.2931 37.2321C89.1768 36.4601 95.4223 38.7376 96.5572 32.6464C96.7039 31.666 97.0822 30.7704 97.5376 30.5388C98.9504 29.9598 102.185 29.9598 103.992 32.1446ZM29.6705 97.8888C4.96625 80.5881 8.15465 37.5564 34.3025 20.7884C35.5834 19.8417 36.9131 18.963 38.2861 18.1558C39.1893 21.0895 36.4873 22.5177 37.0123 25.9763C37.5913 30.3304 42.2851 29.5044 43.1034 33.4261C43.9295 37.7108 39.4904 38.2358 37.9155 41.5477C35.5995 46.5117 40.6947 55.8375 35.6535 59.9755C31.0215 63.8355 37.46 68.3286 27.4548 67.9503C23.5948 67.7959 19.9355 68.5525 20.2366 73.061C20.7615 80.3642 31.2145 77.2762 32.1949 82.8423C32.8743 86.3781 27.6092 89.0879 29.4157 93.1486C30.5737 95.8584 30.1182 97.2094 29.6705 97.8888ZM31.2145 98.9387C31.9865 97.8888 32.3493 95.9356 31.145 92.6237C29.8635 89.1651 34.9047 86.4476 34.0786 82.6957C32.5887 75.8634 22.6143 79.0904 22.1203 73.1382C21.8192 69.8263 24.5212 69.9035 27.4548 69.9807C31.8939 70.1274 36.1862 68.6992 35.6535 64.2601C35.5069 62.9863 36.0473 62.3301 37.0123 61.4809C42.8332 56.3393 37.159 48.0171 39.5676 42.5976C41.1116 39.0618 45.8132 38.6912 44.9099 33.2717C44.2305 28.9099 39.3437 29.2882 38.8188 25.8991C38.2938 22.51 41.3741 21.0895 39.9459 17.407C58.6439 7.91131 83.379 11.8717 100.68 28.6937C97.3369 28.3849 95.376 28.9639 94.8124 32.3762C93.9864 36.7381 89.8484 34.6922 86.9148 35.6109C83.0548 36.8153 85.3708 40.7293 79.766 39.471C74.5009 38.2666 70.363 38.7916 69.3131 44.5894C68.9348 46.6892 66.9044 47.1447 65.9239 49.0207C65.3696 50.3011 65.2135 51.7188 65.4762 53.0892C50.2754 53.2822 44.4544 53.0892 42.8332 60.2302C42.0072 64.0903 39.2974 85.058 37.5681 102.135C35.374 101.253 33.2588 100.186 31.2454 98.9464L31.2145 98.9387ZM112.777 117.899C112.677 119.043 112.26 120.137 111.573 121.057C111.874 116.015 109.99 114.664 107.134 114.433C96.5803 113.591 93.7162 115.521 96.9046 115.792C100.093 116.062 106.308 115.869 107.96 116.618C106.755 117.745 85.9961 128.73 76.0681 133.694C70.6023 136.35 62.2183 134.744 51.6186 135.347C47.0638 135.486 49.5033 138.134 44.7709 138.658C42.8641 138.859 36.7344 138.882 34.0169 138.882C32.056 138.882 33.1677 135.431 29.0529 135.269C27.8485 135.2 23.3323 135.269 18.5999 135.269C13.4043 135.347 11.0188 135.779 12.2 136.929C12.7018 137.408 16.6158 137.076 28.6746 137.076C32.7354 137.153 29.1301 141.291 37.2516 140.612C39.0581 140.465 42.4395 140.534 45.072 140.388C50.3371 140.164 48.7622 137.23 51.6959 137.076C60.3578 136.582 71.6368 138.064 76.8942 135.269C85.0157 130.838 106.91 119.698 109.388 117.297C109.612 117.598 109.766 117.598 109.843 119.25C109.913 122.107 109.766 122.639 108.184 123.689C105.868 125.233 87.4243 136.103 80.2756 139.708C70.7027 144.58 76.4618 143.468 10.324 143.468C6.72643 143.468 6.56431 140.727 6.56431 137.076C6.56431 134.899 6.26323 133.918 9.34353 131.965C39.9536 113.205 33.9242 116.093 46.6546 115.753C49.7427 115.753 47.5579 113.947 44.6243 113.947C41.6906 113.947 39.8069 113.869 38.4482 113.947C39.6525 96.723 43.6361 65.3564 44.6937 60.539C45.5198 56.9261 47.2491 55.7989 53.1858 55.1968C61.0835 54.3707 111.086 54.9729 111.627 55.0501C116.606 55.0501 118.243 55.6214 117.803 61.7434C117.154 69.9035 113.094 115.792 112.777 117.899ZM115.031 113.267C120.073 97.3252 127.893 82.5027 134.663 73.0224C136.988 73.0672 139.308 73.2447 141.612 73.5551C144.7 74.0106 142.854 73.9565 133.891 85.5907C113.92 111.823 116.074 113.306 115.047 113.306L115.031 113.267ZM129.398 107.925C125.415 110.565 119.918 114.17 116.274 116.417C116.054 116.324 115.827 116.249 115.595 116.193C116.722 113.939 118.606 110.403 121.462 105.74C127.329 98.5218 136.431 90.022 142.453 87.8372C142.075 91.373 143.047 94.7853 145.834 96.7848C141.75 100.822 134.525 104.582 129.414 107.963L129.398 107.925Z" fill="#001434"/>
<path d="M140.021 95.8584C138.292 96.6304 136.408 99.3942 137.389 99.2398C138.369 99.0854 140.569 97.2325 141.341 96.6304C142.523 95.7348 142.276 94.9551 140.021 95.8584Z" fill="#001434"/>
</svg>
