<svg width="156" height="155" viewBox="0 0 156 155" fill="none" xmlns="http://www.w3.org/2000/svg">
<path d="M151.762 131.766H4.93714C4.59647 131.766 4.59647 132.282 4.93714 132.282H151.762C152.103 132.282 152.103 131.766 151.762 131.766Z" fill="black"/>
<path d="M123.385 8.48096H23.7842V71.0552H123.385V8.48096Z" fill="white"/>
<path d="M123.527 8.22314L23.5259 8.33928C23.5259 50.3186 23.5646 71.3097 23.642 71.3122L123.643 71.1961C123.643 29.2167 123.604 8.2257 123.527 8.22314ZM24.0423 70.7974V8.7388H123.127V70.7974H24.0423Z" fill="black"/>
<path d="M121.326 10.4243C57.596 10.4243 25.7296 10.463 25.7271 10.5405C25.7271 49.5767 25.7658 69.1002 25.8432 69.111C89.5733 69.111 121.44 69.0723 121.442 68.9949C121.442 29.9587 121.404 10.4352 121.326 10.4243ZM26.2435 68.5961V10.94H120.926V68.5961H26.2435Z" fill="black"/>
<path d="M53.5273 47.14V34.0675C53.5273 32.1412 52.4875 30.3519 50.8144 29.3996L47.2954 27.395C50.0649 25.8279 52.0268 23.2861 52.8654 20.2673L53.5165 17.9252C53.5335 17.8648 53.4995 17.7997 53.436 17.7819C53.165 17.706 53.0581 17.6519 53.021 17.7873L52.3698 20.1302C51.5561 23.0608 49.749 25.4068 46.7774 27.1C43.7826 25.3936 41.9941 23.029 41.1904 20.1333L40.5401 17.7912C40.523 17.73 40.4619 17.6929 40.3968 17.7107L40.1243 17.7858C40.0639 17.8028 40.0252 17.8648 40.0438 17.929L40.6949 20.2711C41.5466 23.3387 43.5434 25.8574 46.2587 27.3966L42.7459 29.398C41.0735 30.3519 40.0337 32.1412 40.0337 34.0652V47.1377C40.0337 49.064 41.0735 50.8533 42.7459 51.8056L46.2618 53.8094C43.4234 55.4392 41.5195 57.9694 40.6957 60.9356C40.0461 63.2723 39.9516 63.3729 40.1258 63.4209C40.4138 63.5007 40.3713 63.496 40.4131 63.5022C40.5571 63.5162 40.4804 63.6362 41.1912 61.0757C42.008 58.1336 43.8237 55.7915 46.7836 54.1052C49.7784 55.8116 51.5662 58.1769 52.3706 61.0719C53.0767 63.6145 53.0063 63.5131 53.1495 63.4968C53.1913 63.4922 53.1495 63.4968 53.4368 63.4163C53.6102 63.3675 53.5181 63.2754 52.8669 60.931C52.0222 57.8928 50.0417 55.3571 47.3055 53.8078L50.8159 51.8079C52.4891 50.8541 53.5289 49.0655 53.5289 47.1408L53.5273 47.14ZM40.5478 35.2483H53.0132V45.9546H40.5478V35.2483ZM42.9991 29.844L46.7766 27.6908L50.5612 29.8471C52.0741 30.708 53.0132 32.3255 53.0132 34.0668V34.7326H40.5478V34.0629C40.5478 32.3216 41.487 30.705 42.9991 29.844ZM46.7836 53.5113L42.9991 51.355C41.487 50.494 40.5478 48.8774 40.5478 47.1353V46.471H53.0132V47.1392C53.0132 48.8805 52.0741 50.4971 50.5612 51.3581L46.7836 53.5113Z" fill="black"/>
<path d="M48.8692 37.8584C47.6885 37.8584 46.7261 38.82 46.7261 40.0015C46.7261 41.183 47.6877 42.1447 48.8692 42.1447C50.0507 42.1447 51.0123 41.183 51.0123 40.0015C51.0123 38.82 50.0507 37.8584 48.8692 37.8584ZM50.4967 40.0031C50.4967 40.9004 49.7673 41.6306 48.8692 41.6306C47.9711 41.6306 47.2417 40.9012 47.2417 40.0031C47.2417 39.1049 47.9711 38.3756 48.8692 38.3756C49.7673 38.3756 50.4967 39.1049 50.4967 40.0031Z" fill="black"/>
<path d="M96.0142 50.6731C94.8335 50.6731 93.8711 51.6347 93.8711 52.8162C93.8711 53.9977 94.8327 54.9593 96.0142 54.9593C97.1957 54.9593 98.1574 53.9977 98.1574 52.8162C98.1574 51.6347 97.1957 50.6731 96.0142 50.6731ZM97.6417 52.8178C97.6417 53.7151 96.9124 54.4452 96.0142 54.4452C95.1161 54.4452 94.3867 53.7159 94.3867 52.8178C94.3867 51.9196 95.1161 51.1903 96.0142 51.1903C96.9124 51.1903 97.6417 51.9196 97.6417 52.8178Z" fill="black"/>
<path d="M64.6823 28.1446L48.7173 39.794C48.5198 39.9395 48.6181 40.2608 48.869 40.2608C49.0037 40.2608 48.9294 40.322 64.9858 28.5619C65.2615 28.3598 64.9556 27.9456 64.6815 28.1453L64.6823 28.1446Z" fill="black"/>
<path d="M92.9312 19.6982H64.8345C64.692 19.6982 64.5767 19.8136 64.5767 19.9561V36.2324C64.5767 36.3748 64.692 36.4902 64.8345 36.4902H92.9312C93.0737 36.4902 93.189 36.3748 93.189 36.2324V19.9561C93.189 19.8136 93.0737 19.6982 92.9312 19.6982ZM65.0923 35.9746V20.2139H92.6734V35.9746H65.0923Z" fill="black"/>
<path d="M88.9049 22.3115H67.318C66.9773 22.3115 66.9773 22.8272 67.318 22.8272H88.9049C89.2471 22.8272 89.2471 22.3115 88.9049 22.3115Z" fill="black"/>
<path d="M85.7577 25.9944H67.3165C66.9759 25.9944 66.9759 26.5108 67.3165 26.5108H85.7577C86.0983 26.5108 86.0983 25.9944 85.7577 25.9944Z" fill="black"/>
<path d="M84.1064 29.6775H67.316C66.9754 29.6775 66.9754 30.1931 67.316 30.1931H84.1064C84.4486 30.1931 84.4486 29.6775 84.1064 29.6775Z" fill="black"/>
<path d="M88.9049 33.3616H67.318C66.9773 33.3616 66.9773 33.8772 67.318 33.8772H88.9049C89.2471 33.8772 89.2471 33.3616 88.9049 33.3616Z" fill="black"/>
<path d="M78.6059 41.6299H58.4932C58.3507 41.6299 58.2354 41.7452 58.2354 41.8877V53.5371C58.2354 53.6796 58.3507 53.7949 58.4932 53.7949H78.6059C78.7484 53.7949 78.8637 53.6796 78.8637 53.5371V41.8877C78.8637 41.7452 78.7484 41.6299 78.6059 41.6299ZM78.3481 42.1455V53.2793H58.751V42.1455H78.3481Z" fill="black"/>
<path d="M76.2763 44.2344H60.8253C60.4847 44.2344 60.4847 44.75 60.8253 44.75H76.2763C76.617 44.75 76.617 44.2344 76.2763 44.2344Z" fill="black"/>
<path d="M74.0248 47.4536H60.8253C60.4847 47.4536 60.4847 47.97 60.8253 47.97H74.0248C74.3654 47.97 74.3654 47.4536 74.0248 47.4536Z" fill="black"/>
<path d="M76.2763 50.6731H60.8253C60.4847 50.6731 60.4847 51.1887 60.8253 51.1887H76.2763C76.617 51.1887 76.617 50.6731 76.2763 50.6731Z" fill="black"/>
<path d="M103.296 38.9741C96.2573 38.9741 90.5317 44.7005 90.5317 51.7377C90.5317 58.7748 96.2581 64.502 103.296 64.502C110.334 64.502 116.06 58.7756 116.06 51.7377C116.06 44.6997 110.333 38.9741 103.296 38.9741ZM115.541 51.4798H103.554V39.4921C110.103 39.6284 115.405 44.9304 115.541 51.4798ZM103.296 63.9863C96.5423 63.9863 91.0482 58.4915 91.0482 51.7377C91.0482 45.0706 96.4037 39.6299 103.038 39.4921V51.7377C103.038 51.8801 103.154 51.9963 103.296 51.9963H115.541C115.403 58.6316 109.962 63.9863 103.296 63.9863Z" fill="black"/>
<path d="M96.0879 52.5677L78.6796 47.4615C78.349 47.3686 78.2089 47.8626 78.5341 47.957L95.9346 53.0601C96.0577 53.1066 96.2172 53.0377 96.2637 52.8875C96.3032 52.7504 96.2242 52.6072 96.0879 52.5677Z" fill="black"/>
<path d="M108.793 15.5002C105.881 15.5002 103.514 17.8695 103.514 20.7799C103.514 23.6903 105.882 26.0587 108.793 26.0587C111.703 26.0587 114.071 23.6903 114.071 20.7799C114.071 17.8695 111.703 15.5002 108.793 15.5002ZM113.556 20.7799C113.556 23.4069 111.419 25.5431 108.793 25.5431C106.166 25.5431 104.029 23.4061 104.029 20.7799C104.029 18.1536 106.166 16.0167 108.793 16.0167C111.419 16.0167 113.556 18.1536 113.556 20.7799Z" fill="black"/>
<path d="M114.403 12.2725C113.35 11.5788 110.988 14.13 109.678 15.711C107.733 18.0531 105.793 21.0316 104.48 23.5882C103.545 25.4185 102.132 28.593 103.182 29.2867C104.338 30.0408 107.014 26.9268 107.909 25.8467C108.127 25.5835 107.728 25.2559 107.512 25.5176C105.15 28.3669 103.801 29.0769 103.467 28.8554C103.135 28.6363 103.254 27.1149 104.941 23.8213C106.271 21.2267 108.198 18.3016 110.075 16.0385C112.433 13.1939 113.782 12.4746 114.119 12.7015C114.451 12.9206 114.331 14.442 112.645 17.7349C112.491 18.0306 112.942 18.2784 113.104 17.9695C114.04 16.1399 115.453 12.9655 114.402 12.2725H114.403Z" fill="black"/>
<path d="M113.532 22.7897C113.326 22.5218 112.917 22.8269 113.123 23.101C115.361 26.0462 115.745 27.5219 115.456 27.7952C115.167 28.067 113.715 27.6063 110.89 25.2185C108.708 23.3766 106.263 20.8146 104.469 18.4578C102.233 15.5086 101.849 14.0345 102.137 13.7627C102.422 13.4886 103.876 13.9516 106.702 16.3386C106.961 16.5601 107.297 16.1652 107.035 15.9445C105.464 14.6167 102.694 12.5247 101.782 13.3872C100.867 14.2536 102.816 17.1315 104.058 18.7698C105.839 21.1134 108.304 23.7165 110.555 25.6142C111.621 26.5154 114.798 29.1269 115.81 28.1692C116.727 27.2982 114.776 24.4249 113.533 22.7897H113.532Z" fill="black"/>
<path d="M113.374 18.4819C113.043 18.4927 113.047 18.9968 113.383 18.9968H113.393C117.498 18.8458 119.127 19.4335 119.217 19.867C119.31 20.306 117.838 21.3877 113.496 22.4182C110.595 23.1011 107.518 23.5184 104.852 23.6601C100.31 23.9001 98.4667 23.2745 98.3714 22.8208C98.2375 22.1906 100.609 21.1128 103.887 20.3153C104.215 20.2333 104.093 19.7308 103.765 19.8152C101.889 20.2696 97.5592 21.4837 97.8666 22.9284C98.1275 24.1672 101.67 24.2299 102.943 24.2299C106.655 24.2299 110.163 23.6624 113.486 22.9509C121.315 21.2731 122.376 18.1459 113.374 18.4827V18.4819Z" fill="black"/>
<path d="M108.222 17.1843C107.686 17.1843 107.249 17.621 107.249 18.1583C107.249 18.6957 107.685 19.1316 108.222 19.1316C108.758 19.1316 109.195 18.6949 109.195 18.1583C109.195 17.6218 108.758 17.1843 108.222 17.1843Z" fill="black"/>
<path d="M102.782 17.6744C103.438 17.6744 103.969 17.143 103.969 16.4875C103.969 15.832 103.438 15.3005 102.782 15.3005C102.126 15.3005 101.595 15.832 101.595 16.4875C101.595 17.143 102.126 17.6744 102.782 17.6744Z" fill="black"/>
<path d="M101.24 25.1265C101.895 25.1265 102.427 24.5952 102.427 23.9396C102.427 23.2841 101.895 22.7527 101.24 22.7527C100.584 22.7527 100.053 23.2841 100.053 23.9396C100.053 24.5952 100.584 25.1265 101.24 25.1265Z" fill="black"/>
<path d="M113.948 30.7546H103.639C103.299 30.7546 103.299 31.2711 103.639 31.2711H113.948C114.288 31.2711 114.288 30.7546 113.948 30.7546Z" fill="black"/>
<path d="M110.855 32.3164H103.639C103.299 32.3164 103.299 32.8321 103.639 32.8321H110.855C111.196 32.8321 111.196 32.3164 110.855 32.3164Z" fill="black"/>
<path d="M112.25 33.8757H103.639C103.299 33.8757 103.299 34.3914 103.639 34.3914H112.25C112.59 34.3914 112.59 33.8757 112.25 33.8757Z" fill="black"/>
<path d="M36.4633 18.0344H28.8826C28.5404 18.0344 28.5404 18.5501 28.8826 18.5501H36.4633C36.804 18.5501 36.804 18.0344 36.4633 18.0344Z" fill="black"/>
<path d="M34.1886 19.5945H28.8826C28.5404 19.5945 28.5404 20.1101 28.8826 20.1101H34.1886C34.5293 20.1101 34.5293 19.5945 34.1886 19.5945Z" fill="black"/>
<path d="M35.2152 21.1553H28.8826C28.5404 21.1553 28.5404 21.6709 28.8826 21.6709H35.2152C35.5559 21.6709 35.5559 21.1553 35.2152 21.1553Z" fill="black"/>
<path d="M96.6873 100.812H8.5249V107.984H96.6873V100.812Z" fill="#FFD997"/>
<path d="M98.1808 98.4224H7.02979V100.812H98.1808V98.4224Z" fill="#FFD997"/>
<path d="M98.1816 98.4223H7.02979L11.7496 93.2488H93.4625L98.1816 98.4223Z" fill="white"/>
<path d="M98.3733 98.2491C93.2439 92.7008 93.6302 92.9896 93.463 92.9896L11.5612 93.0732L6.84134 98.2483C6.69269 98.4086 6.80263 98.6811 7.03026 98.6811H98.1844C98.412 98.6811 98.5227 98.4109 98.3733 98.2491ZM97.599 98.1655H7.61405L11.864 93.5053H93.3492L97.599 98.1655Z" fill="black"/>
<path d="M94.7081 146.615H96.6871V107.985H92.4062L94.7081 146.615Z" fill="#FFD997"/>
<path d="M10.5046 146.615H8.5249V107.985H12.8065L10.5046 146.615Z" fill="#FFD997"/>
<path d="M98.1824 98.1646H7.0298C6.88734 98.1646 6.77197 98.2799 6.77197 98.4224V100.812C6.77197 100.954 6.88734 101.07 7.0298 101.07H8.26705V146.614C8.26705 146.757 8.38242 146.872 8.52488 146.872H10.5077C10.6417 146.869 10.7524 146.764 10.7601 146.63L13.0457 108.242H92.1657L94.4513 146.63C94.459 146.766 94.5721 146.872 94.7083 146.872H96.6912C96.8313 146.869 96.9444 146.755 96.9444 146.614L96.9459 101.07H98.1832C98.3256 101.07 98.441 100.954 98.441 100.812V98.4224C98.441 98.2799 98.3256 98.1646 98.1832 98.1646H98.1824ZM8.7827 108.242H12.5316L10.2607 146.357H8.7827V108.242ZM96.4295 146.357H94.9515L92.6798 108.242H96.4295V146.357ZM96.4295 107.725H8.7827V101.07H96.4295V107.725ZM97.9246 100.554H7.28762V98.6802H97.9246V100.554Z" fill="black"/>
<path d="M105.574 90.6784C105.511 89.908 105.487 88.8248 104.277 88.8326C103.505 88.8372 102.649 89.0857 102.356 89.5619C101.469 90.1728 100.863 90.1836 100.626 93.5803C100.204 99.6427 100.024 104.546 101.384 105.126C101.401 105.118 101.418 105.115 101.433 105.107C101.351 106.294 101.195 108.871 101.326 109.503C101.459 110.148 101.897 110.773 103.325 111.287L103.682 109.808C103.682 109.808 102.99 109.64 102.803 108.97C102.665 108.478 102.818 106.433 102.91 105.379C104.117 105.562 104.76 105.367 105.021 105.2C105.52 104.879 105.532 104.109 105.581 103.546C105.698 102.188 105.918 94.8996 105.575 90.6784H105.574Z" fill="white"/>
<path d="M103.963 112.542C102.834 112.542 103.384 110.715 103.74 109.775C103.865 109.446 104.172 109.23 104.515 109.23H119.565C119.908 109.23 120.215 109.446 120.34 109.775C120.696 110.714 121.246 112.542 120.117 112.542H103.963Z" fill="white"/>
<path d="M104.836 112.542C103.828 112.542 104.317 113.561 104.636 114.086C104.747 114.268 105.023 114.389 105.327 114.389H118.754C119.06 114.389 119.335 114.268 119.445 114.086C119.762 113.561 120.253 112.542 119.245 112.542H104.835H104.836Z" fill="white"/>
<path d="M120.585 109.682C120.424 109.257 120.015 108.972 119.568 108.972H104.518C104.139 108.972 103.787 109.178 103.591 109.498C103.418 109.418 103.15 109.241 103.053 108.899C102.934 108.48 103.033 106.812 103.136 105.683C103.571 105.744 104.136 105.754 104.562 105.644C105.629 105.521 105.751 104.545 105.836 103.573C106.006 101.63 106.133 94.631 105.821 90.5546C105.765 89.8152 105.671 88.5771 104.273 88.5771C103.426 88.5833 102.44 88.8636 102.105 89.4776C100.678 89.9584 100.487 91.8654 100.368 93.5618C99.8674 100.749 99.8566 104.582 101.188 105.316C101.138 105.957 100.925 108.839 101.078 109.616C101.301 110.748 102.528 111.301 103.038 111.485C102.985 112.248 103.24 112.797 104.005 112.797C103.912 113.137 104.05 113.613 104.417 114.217C104.575 114.477 104.933 114.645 105.329 114.645L118.757 114.646C119.155 114.646 119.513 114.478 119.669 114.219C120.036 113.615 120.174 113.138 120.081 112.797C121.488 112.797 121.086 110.997 120.586 109.682L120.585 109.682ZM104.292 89.0912C105.057 89.0742 105.231 89.5775 105.308 90.5925C105.59 94.2625 105.516 101.249 105.311 103.655C105.236 104.536 105.132 105.165 104.29 105.138C103.43 105.11 103.074 104.603 103.102 103.446C103.167 100.864 103.2 95.3503 103.203 93.1073C103.206 90.721 103.133 89.8407 102.71 89.5395C102.985 89.3003 103.458 89.1091 104.292 89.0905V89.0912ZM100.882 93.5989C101.062 91.0315 101.466 90.3595 102.145 90.0196C102.482 89.8516 102.692 89.7083 102.687 93.1065C102.684 95.4533 102.649 100.911 102.587 103.433C102.578 103.776 102.558 104.603 103.049 105.146C102.963 105.132 102.419 104.463 101.398 104.843C100.153 104.015 100.608 97.505 100.882 93.5989ZM101.583 109.518C101.448 108.831 101.652 105.937 101.706 105.285C102.052 105.192 102.352 105.258 102.635 105.488C102.58 106.075 102.375 108.397 102.555 109.039C102.71 109.587 103.132 109.857 103.393 109.975C103.266 110.339 103.172 110.67 103.112 110.965C102.656 110.788 101.743 110.336 101.584 109.518L101.583 109.518ZM119.224 113.951C119.06 114.225 119.168 114.13 105.327 114.13C105.091 114.13 104.908 114.038 104.855 113.95C104.521 113.4 104.444 113.024 104.515 112.896C104.607 112.733 104.518 112.799 119.245 112.799C119.366 112.799 119.519 112.815 119.566 112.897C119.638 113.023 119.56 113.397 119.225 113.951H119.224ZM120.432 112.152C120.29 112.359 120.428 112.285 103.963 112.285C103.166 112.285 103.698 110.615 103.981 109.867C104.067 109.638 104.277 109.49 104.515 109.49H119.564C119.803 109.49 120.012 109.638 120.098 109.867C120.522 110.985 120.646 111.839 120.43 112.152H120.432Z" fill="black"/>
<path d="M110.709 117.953C110.391 117.953 110.259 117.458 110.094 116.199C109.976 115.294 109.959 114.388 110.096 114.388H113.986C114.124 114.388 114.106 115.294 113.987 116.199C113.821 117.458 113.69 117.953 113.372 117.953H110.709Z" fill="white"/>
<path d="M114.208 114.232C114.079 114.087 114.334 114.13 110.096 114.13C110.012 114.13 109.932 114.166 109.874 114.232C109.651 114.485 109.755 115.593 109.837 116.231C109.998 117.463 110.137 118.212 110.707 118.212H113.373C113.942 118.212 114.082 117.463 114.243 116.231C114.309 115.719 114.439 114.499 114.207 114.232H114.208ZM113.373 117.695H110.709C110.492 117.627 110.197 115.369 110.265 114.646H113.815C113.88 115.332 113.598 117.627 113.373 117.695H113.373Z" fill="black"/>
<path d="M119.449 126.496L113.487 124.363C113.209 124.264 113.023 124 113.023 123.706V117.953H111.057V123.706C111.057 124.002 110.871 124.264 110.593 124.363L104.631 126.496C103.966 126.734 103.556 127.402 103.646 128.103L103.787 129.213H105.282L105.567 128.284C105.657 127.991 105.9 127.775 106.201 127.718C111.694 126.684 111.805 126.578 112.793 126.762L117.88 127.718C118.181 127.775 118.424 127.993 118.514 128.284L118.798 129.213H120.294L120.435 128.103C120.525 127.401 120.115 126.733 119.45 126.496H119.449Z" fill="white"/>
<path d="M119.538 126.253L113.577 124.121C113.402 124.057 113.285 123.89 113.285 123.704V117.951C113.285 117.809 113.169 117.694 113.026 117.694H111.06C110.917 117.694 110.802 117.809 110.802 117.951V123.704C110.802 123.891 110.685 124.058 110.509 124.12L104.548 126.253C103.775 126.529 103.29 127.321 103.394 128.135L103.535 129.243C103.55 129.373 103.659 129.472 103.791 129.472H105.286C105.399 129.472 105.497 129.398 105.532 129.289L105.816 128.36C105.878 128.159 106.044 128.011 106.251 127.972C111.65 126.96 111.804 126.838 112.747 127.016L117.833 127.972C118.04 128.011 118.206 128.159 118.268 128.36L118.553 129.289C118.586 129.398 118.685 129.472 118.798 129.472H120.297C120.425 129.472 120.535 129.375 120.552 129.245L120.694 128.135C120.797 127.321 120.311 126.529 119.54 126.253H119.538ZM104.016 128.955L103.903 128.069C103.83 127.493 104.174 126.934 104.721 126.738L110.682 124.604C111.06 124.468 111.315 124.106 111.315 123.703V118.208H112.766V123.703C112.766 124.107 113.021 124.468 113.399 124.604L119.361 126.738C119.908 126.934 120.251 127.493 120.179 128.069L120.066 128.955H118.989L118.76 128.209C118.643 127.824 118.324 127.54 117.928 127.465C112.58 126.462 112.308 126.309 111.242 126.51L106.155 127.465C105.76 127.539 105.441 127.824 105.323 128.209L105.094 128.955H104.015H104.016Z" fill="black"/>
<path d="M104.583 132.141C105.569 132.141 106.368 131.342 106.368 130.357C106.368 129.371 105.569 128.572 104.583 128.572C103.597 128.572 102.798 129.371 102.798 130.357C102.798 131.342 103.597 132.141 104.583 132.141Z" fill="black"/>
<path d="M104.582 131.236C105.069 131.236 105.463 130.842 105.463 130.356C105.463 129.869 105.069 129.475 104.582 129.475C104.096 129.475 103.702 129.869 103.702 130.356C103.702 130.842 104.096 131.236 104.582 131.236Z" fill="white"/>
<path d="M119.497 128.572C118.513 128.572 117.712 129.373 117.712 130.357C117.712 131.341 118.512 132.141 119.497 132.141C120.482 132.141 121.282 131.341 121.282 130.357C121.282 129.373 120.481 128.572 119.497 128.572Z" fill="black"/>
<path d="M119.498 131.236C119.984 131.236 120.378 130.842 120.378 130.356C120.378 129.869 119.984 129.475 119.498 129.475C119.011 129.475 118.617 129.869 118.617 130.356C118.617 130.842 119.011 131.236 119.498 131.236Z" fill="white"/>
<path d="M151.762 91.8088H118.773V93.4735H151.762V91.8088Z" fill="white"/>
<path d="M151.762 93.4736H122.869V99.2031H151.762V93.4736Z" fill="white"/>
<path d="M124.762 132.024H122.869V99.2029L126.277 99.2037L124.762 132.024Z" fill="white"/>
<path d="M149.869 132.024H151.762V99.2029L148.353 99.2037L149.869 132.024Z" fill="white"/>
<path d="M152.02 91.8081C152.02 91.6657 151.905 91.5503 151.762 91.5503H118.773C118.63 91.5503 118.515 91.6657 118.515 91.8081V93.4728C118.515 93.6152 118.63 93.7314 118.773 93.7314H122.612V132.024C122.612 132.166 122.728 132.281 122.87 132.281H124.763C124.902 132.281 125.014 132.172 125.02 132.035L126.524 99.4616H148.108L149.612 132.034C149.618 132.173 149.73 132.281 149.869 132.281H151.761C151.904 132.281 152.019 132.166 152.019 132.024V91.8081H152.02ZM119.031 92.0667H151.504V93.2149H119.031V92.0667ZM124.516 131.766H123.128V99.4608H126.009L124.516 131.766ZM151.504 131.766H150.116L148.623 99.4608H151.504V131.766ZM151.504 98.9452H123.128V93.7314H151.504V98.9452Z" fill="black"/>
<path d="M131.513 63.2539L140.229 64.5307C140.941 64.6344 141.435 65.2964 141.332 66.0103L138.242 87.3347C138.124 88.1492 137.292 88.6525 136.514 88.3784L127.777 85.2891C127.225 85.094 126.892 84.5327 126.985 83.9559L130.14 64.262C130.245 63.6078 130.855 63.1587 131.513 63.2539H131.513Z" fill="white"/>
<path d="M140.266 64.2774L131.548 63.0015C130.689 62.8776 130.002 63.4978 129.886 64.2225L126.731 83.9163C126.618 84.6147 127.022 85.2953 127.692 85.5337L136.43 88.6222C137.344 88.9528 138.352 88.3621 138.498 87.3733L141.587 66.0497C141.709 65.1965 141.117 64.4021 140.266 64.2782V64.2774ZM127.238 83.9968L130.394 64.3022C130.462 63.8771 130.809 63.5628 131.21 63.5078L138.778 64.6158C139.349 64.6986 139.746 65.2313 139.664 65.8027L136.575 87.1271C136.526 87.4732 136.305 87.7705 135.993 87.9207L127.862 85.0459C127.427 84.8934 127.166 84.4513 127.238 83.9968ZM141.076 65.9738L137.987 87.2982C137.897 87.9324 137.248 88.3644 136.591 88.1329C136.855 87.8929 137.033 87.5661 137.085 87.2022L140.174 65.8778C140.234 65.462 140.123 65.0602 139.895 64.7427L140.19 64.7861C140.761 64.8697 141.158 65.4024 141.076 65.9738Z" fill="black"/>
<path d="M143.6 90.3262H132.636V91.8089H143.6V90.3262Z" fill="white"/>
<path d="M138.242 87.3347C138.124 88.1492 137.292 88.6525 136.515 88.3784L136.122 88.2398L136.402 90.3256H140.942L139.541 78.3511L138.241 87.3339L138.242 87.3347Z" fill="white"/>
<path d="M143.6 90.0676H141.175L139.801 78.323C139.768 78.0226 139.333 78.0172 139.291 78.3137L137.988 87.2974C137.943 87.6102 137.763 87.8827 137.494 88.0445C137.021 88.3287 136.649 88.1622 136.214 87.9981C136.036 87.9315 135.844 88.0786 135.871 88.2706L136.112 90.0676H132.637C132.494 90.0676 132.379 90.183 132.379 90.3255V91.8082C132.379 91.9506 132.494 92.0668 132.637 92.0668H143.601C143.743 92.0668 143.859 91.9506 143.859 91.8082V90.3255C143.859 90.183 143.743 90.0676 143.601 90.0676H143.6ZM136.431 88.6213C137.353 88.9481 138.354 88.3542 138.499 87.3725L139.515 80.3516L140.656 90.0684H136.633L136.431 88.6221V88.6213ZM143.342 91.5503H132.894V90.5833H143.342V91.5503Z" fill="black"/>
<path d="M136.67 67.5633C136.699 70.3228 132.468 69.3131 131.314 72.4102C130.386 74.9001 132.806 76.9837 133.537 78.6591C134.55 80.9803 131.435 80.1302 128.747 81.6005L129.495 82.7371C130.961 81.8065 132.457 81.8343 133.584 81.3125C134.879 80.7132 135.132 79.4984 134.569 78.2077C133.793 76.4246 131.686 74.6408 132.37 72.8043C132.944 71.2666 134.901 71.0831 136.321 70.2244C137.14 69.7289 137.898 68.9585 137.874 67.6756C137.863 66.9052 136.664 66.9966 136.669 67.5626L136.67 67.5633Z" fill="white"/>
<path d="M134.383 66.6403C134.394 66.6643 134.389 66.6891 134.377 66.7108C133.456 68.3003 134.132 69.5484 135.087 71.0984C137.09 74.3464 136.177 75.1524 133.649 76.1164C132.244 76.6522 130.889 77.1794 130.745 78.6412C130.593 80.1928 132.268 82.5396 133.287 83.639C133.307 83.6607 133.314 83.6924 133.304 83.7211C133.184 84.0795 132.899 84.2839 132.546 84.4256C132.515 84.438 132.479 84.4303 132.457 84.4055C131.165 82.9708 129.434 80.453 129.622 78.532C129.82 76.5074 131.477 75.7362 133.247 75.0626C135.303 74.2791 135.61 74.1018 134.126 71.6938C133.242 70.2599 132.117 68.4358 133.36 66.2168C133.368 66.2029 133.379 66.192 133.393 66.185C133.732 66.0077 134.209 66.254 134.382 66.6411L134.383 66.6403Z" fill="white"/>
<path d="M136.646 67.5192C136.664 67.7585 136.923 67.918 137.252 67.9141C138.059 67.904 137.991 67.1104 137.203 67.1282C136.87 67.136 136.635 67.3675 136.646 67.52V67.5192Z" fill="white"/>
<path d="M138.073 67.6717C138.055 66.6528 136.477 66.7294 136.477 67.5648C136.491 68.8277 135.535 69.2109 134.321 69.6971C134.086 69.7869 134.214 70.1539 134.469 70.0579C135.5 69.6453 136.56 69.2202 136.811 68.1146C137.048 68.2547 137.366 68.2725 137.653 68.137C137.434 69.5872 136.101 70.1919 134.876 70.6905C134.65 70.778 134.761 71.1458 135.021 71.0498C136.731 70.3607 138.107 69.5345 138.073 67.6717H138.073ZM137.282 67.8389C137.01 67.873 136.746 67.6005 136.927 67.4263C137.009 67.3488 137.161 67.3055 137.318 67.314C137.713 67.3357 137.843 67.7677 137.282 67.8382V67.8389Z" fill="black"/>
<path d="M133.43 83.5082C132.067 82.0325 132.101 81.4518 131.78 81.6546C131.692 81.7135 131.666 81.8343 131.724 81.9233C132.126 82.5481 132.623 83.1985 133.096 83.7196C133.005 83.9286 132.826 84.0873 132.543 84.212C131.947 83.5616 131.374 82.7943 130.919 82.041C130.781 81.8257 130.455 82.0193 130.586 82.2438C131.071 83.0475 131.684 83.862 132.311 84.5364C132.379 84.6138 132.438 84.6192 132.516 84.6262C132.551 84.6262 132.586 84.6192 132.619 84.6061C133.086 84.4187 133.363 84.157 133.488 83.7846C133.521 83.6901 133.499 83.5841 133.43 83.5082Z" fill="black"/>
<path d="M133.264 70.1524C132.514 70.5217 131.595 71.104 131.133 72.3428C130.609 73.7496 131.128 74.9954 131.567 75.8122C131.697 76.0359 132.029 75.8478 131.908 75.6248C130.665 73.3067 131.443 71.4818 133.436 70.5024C133.665 70.3924 133.499 70.0386 133.264 70.1524Z" fill="black"/>
<path d="M134.752 78.1302C134.464 77.469 133.971 76.7784 133.534 76.1156C133.394 75.9043 133.064 76.1087 133.209 76.3293C133.625 76.965 134.119 77.6517 134.394 78.2828C134.948 79.5549 134.616 80.621 133.506 81.1351C132.523 81.5865 131.087 81.636 129.71 82.3863C129.635 82.1145 129.436 81.7893 129.209 81.5834C131.775 80.4119 134.77 81.0035 133.715 78.5777C133.445 77.9568 132.959 77.2956 132.479 76.5655C132.342 76.3502 132.014 76.56 132.153 76.7784C132.59 77.4442 133.095 78.1333 133.359 78.7318C134.059 80.3469 132.702 80.0573 130.106 80.8386C129.688 80.9655 128.942 81.2396 128.643 81.434C128.153 81.7553 129.082 83.2178 129.603 82.9019C131.288 81.8823 132.356 82.0952 133.669 81.4874C134.998 80.8742 135.402 79.6183 134.752 78.1287V78.1302Z" fill="black"/>
<path d="M130.752 82.1525L131.879 81.8157L131.925 81.9055C130.648 82.2167 130.856 82.3073 130.752 82.1525Z" fill="black"/>
<path d="M133.813 71.1473C132.061 71.9734 131.566 73.4205 132.558 75.2733C132.684 75.4916 133.019 75.3097 132.897 75.0844C132.071 73.5452 132.307 72.3249 133.983 71.4973C134.212 71.3873 134.05 71.035 133.812 71.1473H133.813Z" fill="black"/>
<path d="M135.252 70.9955C134.356 69.55 133.733 68.4273 134.556 66.7208C134.582 66.6674 134.581 66.6094 134.559 66.5598C134.272 65.8963 133.403 65.7646 133.189 66.1185C131.884 68.4312 133.035 70.2963 133.959 71.7937C134.609 72.8483 134.96 73.5358 134.828 73.9268C134.463 74.9991 129.771 75.0115 129.426 78.5119C129.353 79.2537 129.541 80.1278 129.987 81.1111C130.097 81.3395 130.448 81.1862 130.343 80.9493C129.928 80.0341 129.751 79.2273 129.816 78.5514C130.001 76.6584 131.578 75.9073 133.317 75.2446C135.489 74.4161 135.855 74.1281 134.286 71.5816C133.424 70.181 132.351 68.4397 133.513 66.3422C133.728 66.2563 134.028 66.4181 134.164 66.6396C133.647 67.6995 133.654 68.7966 134.185 69.903C134.802 71.1829 136.339 73.0658 135.911 74.3255C135.159 76.5306 128.709 75.7153 131.037 80.693C131.139 80.9315 131.503 80.765 131.39 80.5312C129.234 75.9104 135.417 76.9866 136.277 74.4487C136.547 73.6527 136.23 72.5881 135.251 70.9955H135.252Z" fill="black"/>
<path d="M133.84 71.3586C133.739 71.2122 133.44 70.7972 133.217 70.4039L133.351 70.325C133.474 70.5998 133.728 71.0342 133.902 71.3214L133.841 71.3578L133.84 71.3586Z" fill="black"/>
<path d="M134.089 67.7205C136.911 68.2229 136.895 68.1672 136.888 68.3995C136.882 68.6163 136.688 68.6774 136.548 68.6465L134.05 68.0758L134.088 67.7205H134.089Z" fill="black"/>
<path d="M133.952 68.6875C136.672 69.1644 136.522 69.1056 136.547 69.2248C136.592 69.4385 136.408 69.6058 136.248 69.5694L134.019 69.0692L133.952 68.6875Z" fill="black"/>
<path d="M132.888 72.0911C135.769 73.422 135.614 73.3244 135.625 73.4073C135.638 73.5041 135.551 73.6039 135.464 73.5722L132.531 72.5208L132.888 72.0918V72.0911Z" fill="black"/>
<path d="M132.324 73.2842C135.6 74.2652 135.557 74.2148 135.578 74.2938C135.612 74.42 135.519 74.5106 135.456 74.4998L132.227 73.8083L132.324 73.285V73.2842Z" fill="black"/>
<path d="M131.867 76.9458C134.464 78.3526 134.335 78.2582 134.338 78.3402C134.341 78.4339 134.249 78.5237 134.167 78.4912L131.372 77.3469L131.868 76.9458H131.867Z" fill="black"/>
<path d="M131.074 77.96C134.643 79.4868 134.441 79.3753 134.456 79.4566C134.472 79.5449 134.397 79.6572 134.3 79.6277L130.84 78.5128C130.865 78.3386 130.939 78.1543 131.075 77.9592L131.074 77.96Z" fill="black"/>
<path d="M130.709 79.1345C134.353 80.1728 134.136 80.0861 134.161 80.1643C134.19 80.2518 134.127 80.371 134.034 80.3547L130.774 79.726L130.71 79.1353L130.709 79.1345Z" fill="black"/>
<path d="M29.596 86.2715C29.596 86.2715 28.3115 88.5013 28.3115 89.3236C28.3115 90.1458 28.9425 90.7908 28.9425 90.7908H30.2502C30.2502 90.7908 30.8805 90.1458 30.8805 89.3236C30.8805 88.5013 29.596 86.2715 29.596 86.2715Z" fill="#FFD997"/>
<path d="M30.2509 91.062C28.8627 91.062 28.8565 91.0914 28.7497 90.9815C28.721 90.9513 28.042 90.2467 28.042 89.3246C28.042 88.4543 29.2274 86.3716 29.3621 86.137C29.4589 85.969 29.7353 85.969 29.8321 86.137C29.9668 86.3716 31.1522 88.4543 31.1522 89.3246C31.1522 90.2459 30.4731 90.9513 30.4445 90.9815C30.3942 91.0334 30.3237 91.062 30.2509 91.062ZM29.0663 90.5208H30.1278C30.2773 90.3373 30.611 89.8681 30.611 89.3246C30.611 88.8213 30.007 87.591 29.5967 86.8299C29.1871 87.5903 28.5824 88.8205 28.5824 89.3246C28.5824 89.8681 28.9161 90.3373 29.0656 90.5208H29.0663Z" fill="black"/>
<path d="M29.8146 88.9102C29.7117 88.7708 29.4802 88.7708 29.378 88.9102C29.3315 88.9729 28.9274 89.5389 28.9459 90.0452C28.9575 90.358 29.0776 90.9225 29.3904 90.9225C29.8417 90.9225 29.9114 90.9434 30.0098 90.8249C30.0322 90.7986 30.2273 90.55 30.2467 90.0452C30.2653 89.5389 29.8611 88.9729 29.8146 88.9102Z" fill="black"/>
<path d="M37.0172 94.9727H14.6738V96.5893H37.0172V94.9727Z" fill="#81F8F8"/>
<path d="M37.0173 94.7148H14.6738C14.5314 94.7148 14.416 94.8302 14.416 94.9727V96.5893C14.416 96.7318 14.5314 96.8479 14.6738 96.8479H37.0173C37.1597 96.8479 37.2751 96.7318 37.2751 96.5893V94.9727C37.2751 94.8302 37.1597 94.7148 37.0173 94.7148ZM36.7587 95.2313V96.3315H14.9317V95.2313H36.7587Z" fill="black"/>
<path d="M41.8811 72.9258V74.0121C41.8811 74.1127 42.0538 74.2056 42.3387 74.2761V92.4478C42.3387 93.133 42.993 93.6897 43.8005 93.6897C44.6081 93.6897 45.2623 93.133 45.2623 92.4478V74.2761C45.5472 74.2056 45.7199 74.1127 45.7199 74.0121V72.9258H41.8804H41.8811Z" fill="white"/>
<path d="M45.2634 82.9956V92.4484C45.2634 93.1337 44.6092 93.6903 43.8016 93.6903C42.9941 93.6903 42.3398 93.1337 42.3398 92.4484V82.9956H45.2642H45.2634Z" fill="#FFD997"/>
<path d="M45.7198 72.6556H41.8811C41.7022 72.6556 41.5698 72.8267 41.6217 73.004V74.012C41.6217 74.2103 41.7696 74.3612 42.0809 74.4696V92.4485C42.0809 93.2747 42.8528 93.9482 43.8012 93.9482C44.7497 93.9482 45.5209 93.2754 45.5209 92.4485V74.4696C45.8298 74.3605 45.9784 74.2103 45.9784 74.0113V73.0078C46.0342 72.8336 45.9049 72.6548 45.7206 72.6548L45.7198 72.6556ZM43.8005 93.4326C43.1362 93.4326 42.5957 92.992 42.5957 92.4485V83.2659H45.0037V92.4485C45.0037 92.9913 44.464 93.4326 43.7997 93.4326H43.8005ZM45.462 73.9362C45.3877 73.9757 45.1662 74.0647 44.6289 74.1212C44.313 74.153 44.3285 74.6392 44.6545 74.6345C44.7272 74.6338 44.9324 74.6028 45.0044 74.592V82.7247H42.5965V74.592C42.6995 74.6082 42.8102 74.6229 42.9302 74.6353C43.2763 74.6353 43.291 74.1545 42.972 74.122C42.4331 74.0639 42.2117 73.9741 42.1381 73.9362V73.1975H45.4628V73.9369L45.462 73.9362Z" fill="black"/>
<path d="M52.866 72.9258V74.0121C52.866 74.1127 53.0387 74.2056 53.3236 74.2761V92.4478C53.3236 93.133 53.9778 93.6897 54.7854 93.6897C55.5929 93.6897 56.2472 93.133 56.2472 92.4478V74.2761C56.5321 74.2056 56.7047 74.1127 56.7047 74.0121V72.9258H52.8652H52.866Z" fill="white"/>
<path d="M56.2473 80.4043V92.4478C56.2473 93.133 55.5931 93.6897 54.7855 93.6897C53.978 93.6897 53.3237 93.133 53.3237 92.4478V80.4043H56.2481H56.2473Z" fill="#FFD997"/>
<path d="M47.3728 72.9258V74.0121C47.3728 74.1127 47.5455 74.2056 47.8304 74.2761V92.4478C47.8304 93.133 48.4847 93.6897 49.2922 93.6897C50.0998 93.6897 50.754 93.133 50.754 92.4478V74.2761C51.0389 74.2056 51.2116 74.1127 51.2116 74.0121V72.9258H47.3721H47.3728Z" fill="white"/>
<path d="M56.7048 72.6556H52.8661C52.7236 72.6556 52.606 72.7841 52.606 72.9265V74.012C52.606 74.2103 52.7538 74.3612 53.0651 74.4696V92.4485C53.0651 93.2747 53.837 93.9482 54.7855 93.9482C55.7339 93.9482 56.5059 93.2754 56.5059 92.4485V74.4696C56.8148 74.3605 56.9634 74.2103 56.9634 74.0113V72.9258C56.9634 72.7833 56.8481 72.6548 56.7056 72.6548L56.7048 72.6556ZM55.9894 92.4485C55.9894 92.9913 55.4498 93.4326 54.7847 93.4326C54.1196 93.4326 53.5807 92.992 53.5807 92.4485V80.6753H55.9887V92.4485H55.9894ZM56.447 73.9362C56.3727 73.9757 56.1513 74.0647 55.6139 74.1212C55.2965 74.153 55.3127 74.6392 55.6387 74.6345C55.7123 74.6338 55.9174 74.6036 55.9894 74.592V80.1341H53.5815V74.592C53.6837 74.6082 53.7944 74.6229 53.9144 74.6353C54.2621 74.6353 54.2783 74.1545 53.957 74.122C53.4181 74.0639 53.1967 73.9741 53.1232 73.9362V73.1975H56.4478V73.9369L56.447 73.9362Z" fill="black"/>
<path d="M50.7541 86.6663V92.4476C50.7541 93.1328 50.0999 93.6895 49.2924 93.6895C48.4848 93.6895 47.8306 93.1328 47.8306 92.4476V86.6663H50.7549H50.7541Z" fill="#81F8F8"/>
<path d="M51.2117 72.6555H47.3729C47.2305 72.6555 47.1128 72.784 47.1128 72.9265V74.012C47.1128 74.2102 47.2607 74.3612 47.5727 74.4704V92.4493C47.5727 93.2754 48.3439 93.949 49.2923 93.949C50.2408 93.949 51.0127 93.2762 51.0127 92.4493V74.4711C51.3224 74.362 51.4718 74.211 51.4718 74.0128V72.9273C51.4718 72.7848 51.3549 72.6563 51.2125 72.6563L51.2117 72.6555ZM50.4963 92.4485C50.4963 92.9912 49.9566 93.4326 49.2915 93.4326C48.6265 93.4326 48.0876 92.992 48.0876 92.4485V86.9366H50.4955V92.4485H50.4963ZM50.9554 73.9361C50.8811 73.9756 50.6596 74.0647 50.1223 74.1212C49.8033 74.1529 49.8219 74.6391 50.1479 74.6345C50.2206 74.6337 50.4243 74.6035 50.4963 74.5919V86.3946H48.0884V74.5911C48.1913 74.6074 48.302 74.6221 48.4221 74.6345C48.7689 74.6345 48.7844 74.1537 48.4639 74.1212C47.925 74.0631 47.7035 73.9733 47.63 73.9354V73.1967H50.9562V73.9361H50.9554Z" fill="black"/>
<path d="M58.9097 76.4192H39.6772V77.8423H58.9097V76.4192Z" fill="#FFD997"/>
<path d="M22.1086 63.1145H14.7842C14.6418 63.1145 14.5264 63.2299 14.5264 63.3723V63.8547C14.5264 63.9971 14.6418 64.1125 14.7842 64.1125H22.1086C22.251 64.1125 22.3664 63.9971 22.3664 63.8547V63.3723C22.3664 63.2299 22.251 63.1145 22.1086 63.1145Z" fill="black"/>
<path d="M14.8313 62.7737C14.5998 62.5252 13.4121 62.488 12.7246 62.488C10.8037 62.488 10.5381 62.7226 10.5381 62.9758V63.6912C10.5381 63.939 10.8455 64.0373 10.9941 63.8554C11.5748 63.6633 14.0803 63.6928 14.469 63.8585C14.5402 63.9219 14.6447 63.9413 14.7384 63.9057C14.9474 63.8205 14.901 63.6804 14.901 62.9503C14.901 62.8883 14.8762 62.8256 14.8313 62.7745V62.7737Z" fill="black"/>
<path d="M11.3502 62.1124L11.0266 61.9599V60.8721H14.4147V61.9359C14.4147 61.9359 14.0849 62.1132 14.0764 62.1132C14.0764 64.3601 13.9401 65.7282 14.6989 67.5817H10.7285C11.495 65.7119 11.3518 64.3585 11.3502 62.1117V62.1124Z" fill="white"/>
<path d="M14.6991 67.5835C15.5639 69.6995 17.0241 73.4074 17.0241 74.335C17.0241 76.7158 8.40283 76.7158 8.40283 74.335C8.40283 73.4074 9.86386 69.698 10.7287 67.5835H14.6991Z" fill="#FFD997"/>
<path d="M13.3526 68.9734H12.0758C11.7351 68.9734 11.7351 69.4898 12.0758 69.4898H13.3526C13.6932 69.4898 13.6932 68.9734 13.3526 68.9734Z" fill="black"/>
<path d="M13.3526 70.7578H12.0758C11.7351 70.7578 11.7351 71.2742 12.0758 71.2742H13.3526C13.6932 71.2742 13.6932 70.7578 13.3526 70.7578Z" fill="black"/>
<path d="M13.3526 72.5442H12.0758C11.7351 72.5442 11.7351 73.0606 12.0758 73.0606H13.3526C13.6932 73.0606 13.6932 72.5442 13.3526 72.5442Z" fill="black"/>
<path d="M13.3526 74.3296H12.0758C11.7351 74.3296 11.7351 74.846 12.0758 74.846H13.3526C13.6932 74.846 13.6932 74.3296 13.3526 74.3296Z" fill="black"/>
<path d="M19.6595 59.3083H18.3843V94.224H19.6595V59.3083Z" fill="white"/>
<path d="M19.6595 94.494H18.3843C18.2348 94.494 18.1133 94.3732 18.1133 94.223V59.3074C18.1133 59.1579 18.2341 59.0364 18.3843 59.0364H19.6595C19.8089 59.0364 19.9304 59.1572 19.9304 59.3074V94.223C19.9304 94.3724 19.8097 94.494 19.6595 94.494ZM18.6545 93.9528H19.3885V59.5791H18.6545V93.9528Z" fill="black"/>
<path d="M33.7742 73.803C31.6953 71.5174 31.614 71.3533 31.614 69.1304V60.1963C31.9299 60.1289 32.1173 60.0438 32.1173 59.954V58.8677H26.9701V59.954C26.9701 60.0608 27.1606 60.1568 27.4734 60.2288V69.1304C27.4734 71.3533 27.3882 71.5166 25.3101 73.803C24.0597 75.1781 22.9912 76.7978 22.9912 78.8023C22.9912 82.4212 25.9248 85.3533 29.5422 85.3533C33.1595 85.3533 36.0931 82.4196 36.0931 78.8023C36.0931 76.7978 35.0254 75.1788 33.7742 73.803Z" fill="white"/>
<path d="M32.7613 75.1184C36.2849 78.1055 34.1627 83.8976 29.5435 83.8976C24.9243 83.8976 22.8021 78.1047 26.3257 75.1184H32.762H32.7613Z" fill="#81F8F8"/>
<path d="M29.5438 84.1688C24.6745 84.1688 22.4354 78.06 26.1503 74.9118C26.2625 74.8166 25.7848 74.8476 32.7601 74.8476C32.8243 74.8476 32.8878 74.87 32.9374 74.9118C36.6398 78.0522 34.4417 84.1688 29.5438 84.1688ZM26.4274 75.3888C23.1895 78.2496 25.2235 83.6276 29.5438 83.6276C33.8641 83.6276 35.9097 78.262 32.6602 75.3888H26.4267H26.4274Z" fill="black"/>
<path d="M33.9672 73.6311C31.91 71.3688 31.8713 71.2844 31.8713 69.1319V60.3984C32.3119 60.2668 32.3746 60.1011 32.3746 59.9547V59.0241C32.3746 58.8104 32.2011 58.637 31.9875 58.637H27.0988C26.8851 58.637 26.7117 58.8104 26.7117 59.0241V59.9563C26.7117 60.1615 26.8813 60.3202 27.215 60.4278V69.1319C27.215 71.282 27.1763 71.3672 25.1191 73.6311C24.0955 74.7577 22.7344 76.5199 22.7344 78.8047C22.7344 82.559 25.7888 85.6134 29.5431 85.6134C33.2975 85.6134 36.3519 82.559 36.3519 78.8047C36.3519 76.5199 34.9908 74.7569 33.9672 73.6311ZM29.5431 85.0978C26.0729 85.0978 23.25 82.2749 23.25 78.8047C23.25 76.6979 24.5337 75.041 25.5 73.978C27.5487 71.7265 27.7198 71.4338 27.7298 69.3751H28.7782C29.1188 69.3751 29.1188 68.8594 28.7782 68.8594H27.7298V67.5904H28.7782C29.1188 67.5904 29.1188 67.0748 28.7782 67.0748H27.7298V65.8042H28.7782C29.1188 65.8042 29.1188 65.2886 28.7782 65.2886H27.7298V64.018H28.7782C29.1188 64.018 29.1188 63.5024 28.7782 63.5024H27.7298V62.2318H28.7782C29.1188 62.2318 29.1188 61.7162 28.7782 61.7162H27.7298V60.5416C27.8127 60.554 28.0349 60.5796 28.0349 60.5796C28.357 60.5796 28.3825 60.0957 28.0612 60.0647C27.5231 60.0066 27.3009 59.9176 27.2266 59.8789V59.1983H31.8582V59.858C31.7544 59.9029 31.4455 60.0027 30.6681 60.0639C30.3491 60.0887 30.346 60.578 30.7076 60.578C30.9492 60.5594 31.1667 60.5347 31.3549 60.5068V69.1327C31.3549 71.4144 31.4594 71.6405 33.5847 73.978C34.551 75.041 35.8355 76.6972 35.8355 78.8047C35.8355 82.2749 33.0126 85.0978 29.5424 85.0978H29.5431Z" fill="black"/>
<path d="M35.7708 82.6697H15.0859V83.9449H35.7708V82.6697Z" fill="white"/>
<path d="M35.7713 84.2158H15.0864C14.937 84.2158 14.8154 84.0951 14.8154 83.9449V82.6697C14.8154 82.5202 14.9362 82.3987 15.0864 82.3987H35.7713C35.9207 82.3987 36.0423 82.5195 36.0423 82.6697V83.9449C36.0423 84.0943 35.9215 84.2158 35.7713 84.2158ZM15.3574 83.6746H35.5011V82.9407H15.3566V83.6746H15.3574Z" fill="black"/>
<path d="M19.0225 84.4954C19.6789 84.4954 20.2109 83.9635 20.2109 83.3069C20.2109 82.6503 19.6789 82.1184 19.0225 82.1184C18.3661 82.1184 17.834 82.6503 17.834 83.3069C17.834 83.9635 18.3661 84.4954 19.0225 84.4954Z" fill="#81F8F8"/>
<path d="M19.0225 81.8606C18.225 81.8606 17.5762 82.5094 17.5762 83.3069C17.5762 84.1044 18.225 84.7532 19.0225 84.7532C19.82 84.7532 20.4688 84.1044 20.4688 83.3069C20.4688 82.5094 19.82 81.8606 19.0225 81.8606ZM19.9531 83.3084C19.9531 83.8218 19.5358 84.2391 19.0225 84.2391C18.5091 84.2391 18.0926 83.8218 18.0926 83.3084C18.0926 82.7951 18.5099 82.3778 19.0225 82.3778C19.535 82.3778 19.9531 82.7951 19.9531 83.3084Z" fill="black"/>
<path d="M19.0225 64.8025C19.6789 64.8025 20.2109 64.2704 20.2109 63.614C20.2109 62.9576 19.6789 62.4255 19.0225 62.4255C18.3661 62.4255 17.834 62.9576 17.834 63.614C17.834 64.2704 18.3661 64.8025 19.0225 64.8025Z" fill="#81F8F8"/>
<path d="M19.0225 62.1677C18.225 62.1677 17.5762 62.8165 17.5762 63.614C17.5762 64.4115 18.225 65.0603 19.0225 65.0603C19.82 65.0603 20.4688 64.4115 20.4688 63.614C20.4688 62.8165 19.82 62.1677 19.0225 62.1677ZM19.9531 63.6156C19.9531 64.1289 19.5358 64.5462 19.0225 64.5462C18.5091 64.5462 18.0926 64.1289 18.0926 63.6156C18.0926 63.1022 18.5099 62.6849 19.0225 62.6849C19.535 62.6849 19.9531 63.1022 19.9531 63.6156Z" fill="black"/>
<path d="M18.2547 93.5076H19.7885C20.0007 93.5076 20.1733 93.6802 20.1733 93.8924V94.9694H17.8691V93.8924C17.8691 93.6802 18.0418 93.5076 18.2539 93.5076H18.2547Z" fill="#81F8F8"/>
<path d="M20.1738 95.2414H17.8696C17.7202 95.2414 17.5986 95.1206 17.5986 94.9704V93.8926C17.5986 93.531 17.8928 93.2368 18.2544 93.2368H19.7882C20.1498 93.2368 20.444 93.531 20.444 93.8926V94.9704C20.444 95.1198 20.3232 95.2414 20.173 95.2414H20.1738ZM18.1406 94.7002H19.9028V93.8934C19.9028 93.8307 19.8517 93.7796 19.789 93.7796H18.2552C18.1925 93.7796 18.1414 93.8307 18.1414 93.8934V94.7002H18.1406Z" fill="black"/>
<path d="M30.8091 91.6518H30.5102V90.9139C30.5102 90.7111 30.3453 90.5461 30.1425 90.5461H28.9416C28.7388 90.5461 28.5738 90.7111 28.5738 90.9139V91.6518H28.2812C27.5611 91.6518 26.9766 92.2363 26.9766 92.9564V94.9702H32.1145V92.9564C32.1145 92.2363 31.5299 91.6518 30.8091 91.6518Z" fill="white"/>
<path d="M30.7811 91.3932V90.9139C30.7811 90.5616 30.4947 90.2751 30.1424 90.2751H28.9407C28.5884 90.2751 28.3027 90.5616 28.3027 90.9139V91.3932H28.2795C27.4178 91.3932 26.7163 92.0939 26.7163 92.9564V94.971C26.7163 95.1134 26.8317 95.2288 26.9741 95.2288H32.1136C32.2561 95.2288 32.3722 95.1134 32.3722 94.971V92.9564C32.3722 92.2851 31.8597 91.3932 30.7811 91.3932ZM28.8439 90.9139C28.8439 90.8605 28.8881 90.8163 28.9407 90.8163H30.1424C30.195 90.8163 30.2399 90.8613 30.2399 90.9139V91.3932H28.8439V90.9139ZM31.8542 94.7124H27.2304V92.9541C27.2304 92.3772 27.6996 91.9073 28.278 91.9073H30.8082C31.385 91.9073 31.855 92.3765 31.855 92.9541V94.7124H31.8542Z" fill="black"/>
<path d="M28.5735 55.5098H13.6847C12.8214 55.5098 12.1191 56.212 12.1191 57.0753V60.8312H13.3099V57.0753C13.3099 56.8678 13.4787 56.6998 13.6847 56.6998H28.5743C28.7818 56.6998 28.9498 56.8686 28.9498 57.0753V58.9273H30.1383V57.0753C30.1383 56.212 29.436 55.5098 28.5728 55.5098H28.5735Z" fill="#FFD997"/>
<path d="M13.3099 61.1014H12.1191C11.9697 61.1014 11.8481 60.9807 11.8481 60.8305V57.0746C11.8481 56.0611 12.6712 55.238 13.6847 55.238H28.5727C29.5862 55.238 30.4093 56.0611 30.4093 57.0746V58.9273C30.4093 59.0768 30.2885 59.1983 30.1383 59.1983H28.9498C28.8004 59.1983 28.6788 59.0775 28.6788 58.9273V57.0746C28.6788 57.0173 28.6308 56.9693 28.5735 56.9693H13.6847C13.536 56.9693 13.5801 56.8005 13.5801 60.8297C13.5801 60.9791 13.4594 61.1007 13.3092 61.1007L13.3099 61.1014ZM12.3901 60.5602H13.0397V57.0753C13.0397 56.7184 13.3293 56.4288 13.6854 56.4288H28.5751C28.932 56.4288 29.2216 56.7184 29.2216 57.0753V58.6571H29.8688V57.0753C29.8688 56.3615 29.2874 55.78 28.5735 55.78H13.6847C12.9708 55.78 12.3893 56.3615 12.3893 57.0753V60.5602H12.3901Z" fill="black"/>
<path d="M14.9334 67.4842C14.1815 65.6431 14.331 64.2695 14.331 62.0931C14.5951 62.0025 14.6662 61.881 14.6662 61.7362V60.9294C14.7359 60.7529 14.6058 60.5593 14.4146 60.5593H11.0265C10.877 60.5593 10.7555 60.6801 10.7555 60.8303C10.7555 60.9077 10.7624 60.8319 10.7624 61.7377C10.7624 61.9042 10.867 62.0258 11.093 62.1117C11.093 64.2455 11.2355 65.664 10.4907 67.4842C9.42066 70.1004 8.14551 73.4119 8.14551 74.3348C8.14551 77.0602 17.2802 77.0602 17.2802 74.3348C17.2802 73.4127 16.0049 70.1004 14.9349 67.4842H14.9334ZM11.6079 62.2247C11.6373 62.2286 11.6668 62.2317 11.697 62.2348C11.8247 62.2604 11.961 62.1481 11.9757 62.0056C11.9896 61.8678 11.8921 61.7377 11.7465 61.7223C11.4871 61.6952 11.3447 61.6557 11.2773 61.6301V61.1005H14.1498V61.6115C14.0561 61.6402 13.8502 61.6882 13.4468 61.7207C13.3051 61.7331 13.1998 61.8577 13.2098 61.9994C13.2238 62.1527 13.3701 62.2549 13.4909 62.2333C13.6101 62.224 13.7171 62.2131 13.8146 62.2007C13.8146 64.3183 13.6962 65.602 14.3365 67.3665C13.642 67.5648 11.779 67.5655 11.0853 67.3665C11.7349 65.5819 11.6071 64.3028 11.6071 62.2255L11.6079 62.2247ZM8.65806 74.3356C8.65806 73.7092 9.49421 71.2866 10.9003 67.8396C11.6102 68.099 13.8122 68.0982 14.523 67.8404C15.9484 71.3369 16.7644 73.6999 16.7644 74.3356C16.7644 76.361 8.65806 76.361 8.65806 74.3356Z" fill="black"/>
<path d="M39.7313 93.5076H41.2651C41.4772 93.5076 41.6499 93.6802 41.6499 93.8924V94.9694H39.3457V93.8924C39.3457 93.6802 39.5184 93.5076 39.7305 93.5076H39.7313Z" fill="#81F8F8"/>
<path d="M57.3206 93.5076H58.8544C59.0666 93.5076 59.2392 93.6802 59.2392 93.8924V94.9694H56.9351V93.8924C56.9351 93.6802 57.1077 93.5076 57.3199 93.5076H57.3206Z" fill="#81F8F8"/>
<path d="M58.8539 93.2375H58.4746V78.0994H58.9097C59.0514 78.0994 59.1667 77.984 59.1667 77.8415V76.4185C59.1667 76.276 59.0514 76.1606 58.9097 76.1606H39.6773C39.5348 76.1606 39.4187 76.276 39.4187 76.4185V77.8415C39.4187 77.984 39.5348 78.0994 39.6773 78.0994H40.1116V93.2375H39.7315C39.3699 93.2375 39.0757 93.5317 39.0757 93.8933V94.9711C39.0757 95.1205 39.1965 95.2421 39.3468 95.2421H41.6508C41.8003 95.2421 41.9219 95.1213 41.9219 94.9711V93.8933C41.9219 93.5317 41.6277 93.2375 41.2661 93.2375H40.8867V78.0994H57.7012V93.2375H57.3217C56.9601 93.2375 56.6659 93.5317 56.6659 93.8933V94.9711C56.6659 95.1205 56.7868 95.2421 56.937 95.2421H59.2411C59.3905 95.2421 59.512 95.1213 59.512 94.9711V93.8933C59.512 93.5317 59.2178 93.2375 58.8555 93.2375H58.8539ZM41.3799 93.8933V94.7001H39.6177V93.8933C39.6177 93.8306 39.6688 93.7795 39.7315 93.7795H41.2653C41.3281 93.7795 41.3792 93.8306 41.3792 93.8933H41.3799ZM39.9351 76.6771H58.6519V77.5845H39.9351V76.6771ZM58.9694 94.7001H57.2072V93.8933C57.2072 93.8306 57.2582 93.7795 57.3209 93.7795H58.8539C58.9174 93.7795 58.9686 93.8306 58.9686 93.8933V94.7001H58.9694Z" fill="black"/>
<path d="M14.6422 64.0297C14.6422 64.3123 11.0651 64.3425 10.7949 64.0568V62.9968C11.0613 63.2825 14.6422 63.2539 14.6422 62.9697V64.0297Z" fill="#81F8F8"/>
<path d="M14.445 62.8063C13.8743 62.9975 11.3689 62.9704 10.9686 62.8039C10.8021 62.653 10.5381 62.7745 10.5381 62.996V64.0551C10.5381 64.5816 12.3049 64.4848 12.7153 64.5181C14.637 64.5181 14.9025 64.2835 14.9025 64.0304V62.9712C14.9025 62.7257 14.5936 62.6243 14.445 62.8063ZM14.3853 63.3436V63.8809C13.728 64.0365 11.756 64.0389 11.0537 63.8856V63.3459C11.8117 63.4884 13.656 63.4961 14.3853 63.3436Z" fill="black"/>
<path d="M60.4644 94.9548H38.1211V96.5715H60.4644V94.9548Z" fill="#81F8F8"/>
<path d="M60.464 94.696H38.1206C37.9782 94.696 37.8628 94.8114 37.8628 94.9539V96.5705C37.8628 96.713 37.9782 96.8291 38.1206 96.8291H60.464C60.6064 96.8291 60.7218 96.713 60.7218 96.5705V94.9539C60.7218 94.8114 60.6064 94.696 60.464 94.696ZM60.2054 95.2125V96.3127H38.3784V95.2125H60.2054Z" fill="black"/>
<path d="M74.4439 77.1757L72.3115 76.3271L73.2291 74.0222C73.2291 74.0222 73.6154 73.8511 74.4075 74.1662C75.1996 74.4813 75.3629 74.8716 75.3629 74.8716L74.4439 77.1757Z" fill="#81F8F8"/>
<path d="M74.4455 77.4476C74.368 77.4476 74.5399 77.5072 72.211 76.5789C72.0724 76.5239 72.0043 76.366 72.06 76.2266L72.9775 73.9217C73.1331 73.5353 74.0971 73.7513 74.509 73.9147C74.9092 74.0734 75.7718 74.5806 75.6161 74.9716C74.6754 77.3353 74.6994 77.4468 74.4462 77.4468L74.4455 77.4476ZM72.6631 76.1755L74.2937 76.8243L75.0587 74.9019C74.7621 74.5488 73.9523 74.2027 73.4281 74.2538L72.6631 76.1755Z" fill="black"/>
<path d="M73.6197 78.1954L72.209 77.6341L72.312 76.3271L74.4442 77.1757L73.6197 78.1954Z" fill="white"/>
<path d="M73.6194 78.1954C73.5412 78.3913 73.3189 78.4873 73.1231 78.4091L72.4216 78.1296C72.2257 78.0514 72.1297 77.8292 72.2079 77.6333L73.6194 78.1946V78.1954Z" fill="black"/>
<path d="M74.7051 77.1069C74.6564 76.9211 74.6711 76.9729 72.4126 76.0756C72.2446 76.009 72.0564 76.1228 72.0417 76.3063L71.9418 77.5769C71.8938 77.7263 71.9 77.8866 71.9628 78.0321C72.0944 78.3395 72.2717 78.3627 73.0219 78.6608C73.3502 78.7909 73.7056 78.6407 73.8504 78.3403C74.7175 77.2656 74.7501 77.2826 74.7044 77.1069H74.7051ZM73.5345 77.8695L72.4947 77.4553L72.5527 76.7143L74.0006 77.2904L73.5337 77.8688L73.5345 77.8695Z" fill="black"/>
<path d="M75.8986 74.6354C76.0968 75.0651 75.8653 75.5792 75.3977 75.7046C74.961 75.8223 74.0141 75.8819 72.7892 74.8251C70.9179 73.2092 71.4095 71.4354 72.4579 71.7033C73.5364 71.9789 75.4333 73.6242 75.8986 74.6354Z" fill="black"/>
<path d="M77.6446 82.1464L66.5747 77.7417L65.8857 79.4729L76.9556 83.8784L77.6446 82.1464Z" fill="#81F8F8"/>
<path d="M77.7437 81.895L66.6742 77.4903C66.5341 77.4361 66.3777 77.5027 66.3219 77.6412L65.6328 79.3717C65.5779 79.5111 65.646 79.669 65.7838 79.724C76.9439 84.1713 76.8695 84.1488 76.9539 84.1488C77.0677 84.1488 77.1661 84.0799 77.2056 83.9785L77.8946 82.2465C77.9496 82.1079 77.8815 81.95 77.7437 81.895ZM76.8022 83.5256L66.2367 79.3206L66.7245 78.0934L77.2907 82.2976L76.8014 83.5256H76.8022Z" fill="black"/>
<path d="M69.4625 80.896L73.378 82.4546L72.2254 85.3503C72.0674 85.7475 71.6169 85.9418 71.2198 85.7838L68.7429 84.7982C68.3459 84.6403 68.1519 84.1897 68.3099 83.7925L69.4625 80.896Z" fill="#81F8F8"/>
<path d="M73.4777 82.203C69.2278 80.5097 69.5012 80.5833 69.3548 80.6476C69.2108 80.7087 69.306 80.5624 68.0579 83.6919C67.8466 84.223 68.0982 84.8332 68.6417 85.05C71.4012 86.1502 71.2362 86.1099 71.5041 86.1099C71.9191 86.1099 72.314 85.8606 72.4766 85.451L73.6287 82.5553C73.6837 82.4159 73.6155 82.258 73.4777 82.203ZM71.9733 85.2505C71.8704 85.5091 71.5738 85.6337 71.3199 85.5323L68.843 84.5467C68.5852 84.4437 68.4582 84.1518 68.562 83.8932L69.6134 81.2491L73.0255 82.6064L71.9733 85.2505Z" fill="black"/>
<path d="M73.8944 84.1434C73.8317 83.9963 74.2684 84.1859 68.1348 81.7656C67.9962 81.7107 67.8382 81.7788 67.7825 81.9166L67.4488 82.7528C67.393 82.8953 67.4643 83.0509 67.5997 83.1051C73.618 85.4999 73.2332 85.3574 73.3122 85.3574C73.4198 85.3574 73.522 85.2931 73.5638 85.1871C73.9176 84.3013 73.954 84.2812 73.8944 84.1426V84.1434Z" fill="black"/>
<path d="M76.9548 83.8775L75.5304 83.3108L72.4028 91.1702L73.8272 91.737L76.9548 83.8775Z" fill="#FFD997"/>
<path d="M77.0546 83.6269C75.5681 83.0346 75.5696 82.999 75.4225 83.0625C75.263 83.1306 75.3482 83.0338 72.1513 91.0705C72.0956 91.2099 72.1637 91.3678 72.3031 91.4228C73.8399 92.0306 73.7493 92.0082 73.8268 92.0082C73.9344 92.0082 74.0366 91.9439 74.0784 91.8378L77.2064 83.9784C77.2614 83.839 77.1932 83.6819 77.0554 83.6261L77.0546 83.6269ZM73.675 91.3857L72.7552 91.0187L75.6811 83.6633L76.6017 84.0295L73.675 91.3857Z" fill="black"/>
<path d="M71.7944 88.3483L66.5638 86.2664L66.0425 87.5764L71.2731 89.6583L71.7944 88.3483Z" fill="white"/>
<path d="M72.0424 88.2413C71.9797 88.0942 72.3878 88.2738 66.6637 86.0145C66.5251 85.9595 66.3672 86.0269 66.3114 86.1655L65.7896 87.4755C65.7338 87.618 65.8051 87.7736 65.9406 87.8278C71.5578 90.0631 71.1923 89.9291 71.2721 89.9291C71.3797 89.9291 71.4819 89.8649 71.5237 89.7588C72.0982 88.3187 72.1021 88.3791 72.0424 88.2405V88.2413ZM71.1211 89.3066L66.3943 87.4252L66.7148 86.6184L71.4416 88.4999L71.1211 89.3066Z" fill="black"/>
<path d="M73.0974 89.422L71.6024 88.8274C71.4653 88.7724 71.3058 88.8406 71.2509 88.9784C70.8823 89.9021 70.8374 89.7766 71.7495 90.139C72.1165 90.2845 72.2961 90.7034 72.1513 91.0696C72.0189 91.4041 72.5222 91.6031 72.6546 91.2694L73.2492 89.7728C73.3042 89.6334 73.236 89.4762 73.0974 89.4213V89.422Z" fill="black"/>
<path d="M85.7071 78.4818C86.1368 74.8514 84.0726 71.385 80.676 70.0332L77.97 76.8327L79.5665 77.4683C79.894 77.5992 80.2656 77.4389 80.3965 77.1106L81.8552 77.6913C82.5187 77.9553 82.8423 78.7071 82.5783 79.3707L80.3647 84.9321C80.1007 85.5957 79.3489 85.9193 78.6854 85.6553L78.2526 85.4826C78.0884 85.4168 78.0079 85.231 78.0737 85.0668L78.3292 84.425L76.9541 83.8776L73.8262 91.737C77.4001 93.1593 81.451 91.4149 82.8733 87.841C84.2476 84.387 85.265 82.2145 85.7071 78.4818Z" fill="#81F8F8"/>
<path d="M80.7766 69.7817C80.6388 69.7267 80.48 69.7933 80.4243 69.9327L77.7183 76.7314C77.6633 76.8707 77.7314 77.0287 77.87 77.0837L79.4673 77.7193C79.8467 77.8711 80.2663 77.748 80.511 77.446L81.756 77.9423C82.2794 78.1506 82.5364 78.746 82.3274 79.2701L80.1146 84.8316C79.9055 85.3558 79.3094 85.612 78.7867 85.4038L78.3532 85.2311C78.3276 85.221 78.3152 85.1916 78.3253 85.1668C78.7496 84.0961 78.9168 84.3562 77.054 83.6261C76.9107 83.5703 76.7559 83.6408 76.7017 83.7771C73.5079 91.8037 73.5071 91.6829 73.5768 91.844C73.6047 91.9098 73.6589 91.9617 73.7255 91.9888C77.4326 93.463 81.6499 91.6481 83.1249 87.941C84.5054 84.4723 85.5274 82.2874 85.9764 78.5129C86.4193 74.7663 84.2816 71.1754 80.7766 69.7809V69.7817ZM85.4383 78.4502C84.9993 82.1496 83.9905 84.3012 82.6216 87.7405C81.2899 91.086 77.5479 92.7669 74.1799 91.5807L77.1051 84.2308L77.9769 84.5769L77.822 84.9671C77.7028 85.2698 77.8507 85.6144 78.1526 85.7351L78.587 85.9078C79.386 86.2252 80.2996 85.8335 80.6186 85.0329L82.8314 79.4707C83.1504 78.6678 82.7594 77.758 81.9565 77.439L80.4978 76.8584C80.3577 76.8042 80.2013 76.8715 80.1456 77.0093C80.0697 77.1975 79.8544 77.2896 79.6678 77.2161L78.323 76.6811L80.8261 70.3895C83.9541 71.7622 85.8425 75.0373 85.4383 78.4502Z" fill="black"/>
<path d="M81.5757 67.7741C80.0783 67.1771 80.1402 67.1725 80.0032 67.2336C79.8429 67.3018 79.9064 67.2081 76.3533 76.1886C76.2976 76.3295 76.3665 76.4859 76.5051 76.5409C77.9638 77.1177 77.8918 77.103 77.9708 77.103C78.0784 77.103 78.1806 77.0388 78.2224 76.9327L81.7267 68.1264C81.7816 67.987 81.7135 67.829 81.5757 67.7741Z" fill="black"/>
<path d="M80.3826 66.7976L76.1407 65.1094L73.4048 71.9845L77.647 73.6727L80.3826 66.7976Z" fill="#81F8F8"/>
<path d="M77.6469 73.9433C77.5687 73.9433 77.887 74.0595 73.3042 72.2361C73.1687 72.1819 73.0967 72.0263 73.1532 71.8838C76.0411 64.5834 75.8793 64.9264 76.0342 64.8606C76.1821 64.7971 75.8646 64.705 80.4838 66.5461C80.6224 66.6011 80.6905 66.759 80.6348 66.8984L77.8993 73.7738C77.8591 73.8744 77.7615 73.9441 77.6477 73.9441L77.6469 73.9433ZM73.7571 71.8327L77.496 73.3201L80.0309 66.9487L76.292 65.4614L73.7571 71.8327Z" fill="black"/>
<path d="M81.0833 61.6522L79.167 60.8899L77.8149 64.2882L79.7307 65.0506L81.0833 61.6522Z" fill="#81F8F8"/>
<path d="M79.7299 65.3213C79.6478 65.3213 79.7663 65.3569 77.7138 64.5401C77.5783 64.4859 77.5063 64.3302 77.5629 64.1878C79.0184 60.5085 78.9131 60.7037 79.0602 60.6409C79.2088 60.5767 79.1275 60.5813 81.1832 61.4005C81.3218 61.4554 81.3899 61.6134 81.3342 61.7528L79.9815 65.151C79.939 65.257 79.8368 65.3213 79.7299 65.3213ZM78.1668 64.1375L79.5782 64.6988L80.7295 61.8046L79.318 61.2425L78.1668 64.1375Z" fill="black"/>
<path d="M76.1406 65.109L77.8146 64.2883L79.7301 65.051L80.3827 66.7969L76.1406 65.109Z" fill="#FFD997"/>
<path d="M80.3824 67.0678C80.3004 67.0678 80.5744 67.1631 76.0405 65.3606C75.8245 65.2747 75.809 64.9704 76.0219 64.8651C77.8987 63.9399 77.7679 63.977 77.9158 64.0366C79.9852 64.862 79.9249 64.7993 79.9845 64.9564L80.6372 66.7032C80.7022 66.8789 80.5737 67.0686 80.3832 67.0686L80.3824 67.0678ZM76.8093 65.0834L79.9148 66.3199L79.5184 65.2584L77.8259 64.5856L76.8093 65.0842V65.0834Z" fill="black"/>
<path d="M73.404 71.9844C73.404 71.9844 72.66 73.5894 74.872 74.4697C77.0833 75.35 77.6462 73.6722 77.6462 73.6722L73.404 71.9844Z" fill="#FFD997"/>
<path d="M76.0482 74.9962C75.0835 74.9962 73.5721 74.376 73.1455 73.3068C72.8467 72.5573 73.1455 71.8977 73.1587 71.8698C73.2175 71.7389 73.3677 71.6793 73.5048 71.732L77.7469 73.4206C77.8801 73.4733 77.949 73.6227 77.9033 73.759C77.6741 74.4279 76.9812 74.997 76.0482 74.997V74.9962ZM73.5799 72.3452C73.4088 73.2681 74.101 73.8705 74.9728 74.2173C75.8446 74.565 76.7613 74.599 77.27 73.8139L73.5799 72.3452Z" fill="black"/>
<path d="M81.1831 60.5223L79.8708 60.0005L79.167 60.8901L81.0825 61.652L81.1831 60.5223Z" fill="#FFD997"/>
<path d="M79.0668 61.1418C78.8957 61.0737 78.8446 60.8607 78.9545 60.7221L79.6575 59.8333C79.7311 59.7396 79.8581 59.7048 79.9696 59.7497L81.2819 60.2715C81.3942 60.3157 81.4623 60.4279 81.4523 60.5472C81.3423 61.786 81.3748 61.7914 81.2239 61.8843C81.0566 61.9873 81.0682 61.9416 79.066 61.1426L79.0668 61.1418ZM79.6049 60.7725L80.8452 61.2664L80.8948 60.6997L79.958 60.3281L79.6049 60.7732V60.7725Z" fill="black"/>
<path d="M71.3206 75.7852L70.0903 73.848L72.1839 72.5178C72.1839 72.5178 72.5261 72.6185 72.9829 73.3385C73.4405 74.0586 73.415 74.4566 73.415 74.4566L71.3198 75.7852H71.3206Z" fill="#81F8F8"/>
<path d="M71.3221 76.0571C71.1193 76.0571 71.2099 76.133 69.8611 73.993C69.7798 73.8644 69.8201 73.698 69.9447 73.619C72.1699 72.2037 72.0956 72.2083 72.2605 72.2579C72.8614 72.4375 73.7246 73.8389 73.6859 74.4738C73.672 74.6712 73.696 74.6085 71.4669 76.0153C71.422 76.0432 71.3717 76.0571 71.3214 76.0571H71.3221ZM70.4651 73.931L71.4058 75.4122L73.1293 74.3182C73.0294 73.8234 72.5524 73.0886 72.1955 72.8324L70.4658 73.931H70.4651Z" fill="black"/>
<path d="M70.0552 76.1273L69.2407 74.8459L70.0901 73.8479L71.3204 75.7851L70.0552 76.1273Z" fill="white"/>
<path d="M70.0557 76.1274C69.8776 76.2404 69.6415 76.1878 69.5284 76.0097L69.1235 75.3725C69.0105 75.1944 69.0631 74.9583 69.2412 74.8452L70.0557 76.1274Z" fill="black"/>
<path d="M71.5493 75.6381C70.2485 73.591 70.302 73.5902 70.11 73.577C69.9218 73.567 69.9443 73.6026 69.0577 74.644C68.7852 74.846 68.7109 75.2247 68.8959 75.5173L69.3009 76.1553C69.4898 76.4511 69.8692 76.5386 70.1618 76.3791C71.4943 76.0167 71.5075 76.0508 71.5725 75.8804C71.6035 75.7999 71.595 75.7101 71.5493 75.6381ZM70.1781 75.8139L69.578 74.8693L70.0596 74.3033L70.895 75.6187L70.1781 75.8139Z" fill="black"/>
<path d="M79.8248 69.9165C78.936 69.5627 77.9287 69.9963 77.5749 70.8851C77.221 71.774 77.6554 72.7813 78.5435 73.1351C79.4315 73.4889 80.4396 73.0553 80.7934 72.1665C81.1473 71.2777 80.7129 70.2704 79.8248 69.9165Z" fill="#FFD997"/>
<path d="M79.9258 69.6639C78.8999 69.2574 77.7324 69.7584 77.3236 70.7835C76.9156 71.8101 77.4173 72.9769 78.4431 73.3857C79.4899 73.8 80.6435 73.2742 81.0453 72.2662C81.4534 71.2395 80.9517 70.0727 79.9258 69.6639ZM80.5421 72.0656C80.244 72.8143 79.3923 73.1806 78.6444 72.8832C77.8957 72.5852 77.5295 71.7343 77.8268 70.9856C78.1273 70.2307 78.9835 69.8722 79.7245 70.168C80.4732 70.466 80.8394 71.3169 80.5421 72.0656Z" fill="black"/>
<path d="M78.8762 70.8114C78.4844 70.981 78.2986 71.4363 78.4705 71.8335C78.7453 72.4683 79.6497 72.456 79.9067 71.8133C80.1614 71.1746 79.5142 70.5366 78.8762 70.8114Z" fill="black"/>
<path d="M80.8548 74.2598C80.384 74.0725 79.8498 74.3024 79.6624 74.7732C79.475 75.2439 79.705 75.7781 80.1757 75.9655C80.6465 76.1529 81.1807 75.9229 81.3681 75.4522C81.5555 74.9814 81.3255 74.4472 80.8548 74.2598Z" fill="#FFD997"/>
<path d="M80.9536 74.0076C79.9772 73.6189 79.0048 74.6115 79.4229 75.5839C79.618 76.0369 80.0593 76.3017 80.5146 76.3017C81.8192 76.3017 82.166 74.4891 80.9528 74.0076H80.9536ZM81.1161 75.3517C80.9032 75.8836 80.1499 75.896 79.9207 75.3687C79.7372 74.9405 80.05 74.4651 80.5161 74.4651C80.9721 74.4651 81.2842 74.9274 81.1161 75.3517Z" fill="black"/>
<path d="M86.0346 94.5632H66.0674V96.8922H86.0346V94.5632Z" fill="#81F8F8"/>
<path d="M86.0355 94.2922H66.0684C65.9189 94.2922 65.7974 94.413 65.7974 94.5632V96.8922C65.7974 97.0416 65.9181 97.1632 66.0684 97.1632H86.0355C86.185 97.1632 86.3065 97.0424 86.3065 96.8922V94.5632C86.3065 94.4138 86.1857 94.2922 86.0355 94.2922ZM85.7645 96.6212H66.3386V94.8334H85.7645V96.6212Z" fill="black"/>
<path d="M79.5559 88.2066C78.8638 86.8253 76.7888 87.2 76.6238 88.7361L75.999 94.55H82.735L79.5559 88.2066Z" fill="#81F8F8"/>
<path d="M79.7978 88.085C78.9841 86.4621 76.5484 86.9027 76.3548 88.7082L75.7292 94.5221C75.7114 94.6839 75.8384 94.8217 75.9986 94.8217C83.2332 94.8217 82.8515 94.879 82.9653 94.6932C83.0837 94.502 83.2417 94.9572 79.7978 88.0857V88.085ZM76.2998 94.2797L76.8929 88.7655C77.03 87.4965 78.741 87.1884 79.3139 88.3289L82.2963 94.2805H76.3006L76.2998 94.2797Z" fill="black"/>
<path d="M78.17 88.1919C77.7279 88.1919 77.3687 88.5511 77.3687 88.9932C77.3687 89.4353 77.7279 89.7954 78.17 89.7954C78.612 89.7954 78.972 89.4353 78.972 88.9932C78.972 88.5511 78.612 88.1919 78.17 88.1919Z" fill="black"/>
</svg>
