<svg width="154" height="154" viewBox="0 0 154 154" fill="none" xmlns="http://www.w3.org/2000/svg">
<path d="M43.7121 86.2664C44.3821 87.1761 55.4872 89.0015 56.7185 89.1332C56.2345 87.9272 54.4129 82.0887 53.746 81.4217C53.079 80.7548 46.0773 77.8543 43.7151 76.2195C43.6033 78.0709 43.0375 85.3544 43.7121 86.2664Z" fill="#38A1FF"/>
<path d="M70.7632 59.455C69.29 60.7283 67.0755 62.9007 67.0732 63.5393C67.0671 65.387 71.055 69.1703 71.5994 69.3909C72.1438 69.6114 74.4149 68.7883 76.67 67.1787C74.7381 65.8671 71.12 61.9435 70.7632 59.455Z" fill="#38A1FF"/>
<path d="M22.3201 49.2763C21.8506 46.061 21.9254 42.7897 22.5414 39.5992C20.5835 39.5992 17.1094 39.6497 16.7067 40.1429C15.8774 41.1567 16.235 46.937 16.4984 47.4631C16.7618 47.9891 19.5689 48.9922 22.3201 49.2763Z" fill="#38A1FF"/>
<path d="M45.5613 51.8414C45.837 50.6821 46.1394 49.4424 46.4802 48.3191C46.608 47.8942 47.0162 47.8957 46.9051 48.4164C45.8406 53.1979 45.0699 58.0402 44.5973 62.9159C45.5651 63.1326 47.3615 63.612 48.0836 63.8287C48.2528 61.8455 48.4664 59.9557 48.7161 58.1555C47.8669 53.4846 47.4909 45.6881 48.1425 41.6796C40.3323 42.2233 25.6665 41.0808 23.0087 40.8726C22.6409 43.3147 22.5951 45.7946 22.8724 48.2487C24.8893 48.4057 38.8981 50.2786 45.5613 51.8414Z" fill="#38A1FF"/>
<path d="M77.1924 88.4196C76.6449 87.6195 71.2006 73.7018 70.7466 70.4743C70.4319 71.0264 69.2151 73.3534 67.9823 73.7822C66.7495 74.211 64.8429 73.1283 63.3406 71.1704C61.8383 69.2124 62.7663 67.0899 63.2341 66.024C63.6078 65.1748 65.9057 64.2108 66.3215 64.037C66.2639 63.7062 66.2769 63.3669 66.3598 63.0416C66.6018 62.2988 68.2496 60.6296 68.9418 60.1204C68.8017 59.3133 68.6064 57.5085 68.5168 56.2987C67.6676 55.9671 66.5558 55.6432 65.7955 55.4066C65.5657 55.3339 65.4792 54.9931 65.9693 55.0628C68.4814 55.718 70.9515 56.5248 73.3661 57.4786C73.7412 57.0268 74.147 56.6014 74.5805 56.2053C74.9251 55.9587 75.2612 56.1042 74.8822 56.4771C74.6379 56.7168 72.216 59.9121 71.8331 60.3539C72.1264 61.4787 75.0185 64.7315 76.4787 65.9038C77.0147 65.5049 84.8082 59.9312 83.5708 55.8354C82.1971 51.2886 70.3239 44.8857 68.1516 44.0136C64.1431 49.186 60.8482 55.9587 58.4193 63.9719C57.972 71.9553 58.6611 79.9617 60.4661 87.7512C60.9202 89.6953 78.0316 89.6463 77.1924 88.4196Z" fill="#38A1FF"/>
<path d="M52.7199 38.9155C52.5721 38.3121 50.0154 39.6544 48.9832 40.8604C47.951 42.0664 48.6226 53.2044 49.0514 55.8331C50.6096 46.1047 52.9205 39.7302 52.7199 38.9155Z" fill="#38A1FF"/>
<path d="M67.387 42.6773C66.691 41.25 64.7798 39.8917 64.4995 40.2271C61.9727 43.2532 59.4719 51.1193 58.6143 61.1617C60.7797 55.1194 62.7928 49.7525 66.8181 44.6223C67.4414 43.8282 67.8633 43.6536 67.387 42.6773Z" fill="#38A1FF"/>
<path d="M142.692 115.906C142.211 117.148 141.533 118.304 140.684 119.329C140.524 119.525 140.574 120.184 141.257 119.635C142.234 118.634 142.961 117.417 143.381 116.082C143.531 115.598 143.019 115.223 142.692 115.906Z" fill="#38A1FF"/>
<path d="M101.053 119.91C89.8235 128.816 77.5039 128.104 68.9417 115.46C68.5244 114.844 68.1477 115.083 67.8077 115.583C58.0732 129.918 37.9318 131.628 27.4676 117.89C27.1827 117.516 26.6169 117.562 26.2149 118.426C23.5349 124.175 18.2369 127.123 12.1418 127.453C12.0431 127.46 11.9506 127.504 11.8843 127.577C11.818 127.651 11.783 127.747 11.7869 127.846C11.7908 127.945 11.8333 128.038 11.9052 128.106C11.9771 128.174 12.0728 128.211 12.1717 128.209C16.9022 128.511 25.2807 124.409 27.0342 118.617C37.9173 133.097 58.8818 130.244 68.4869 116.142C76.1601 127.836 88.3641 130.938 101.545 120.481C101.865 120.226 101.406 119.631 101.053 119.91Z" fill="#38A1FF"/>
<path d="M138.068 122.671C136.401 124.481 134.344 125.453 131.801 126.25C131.713 126.279 131.639 126.34 131.593 126.421C131.547 126.501 131.533 126.596 131.553 126.687C131.573 126.777 131.626 126.857 131.702 126.91C131.777 126.964 131.87 126.987 131.962 126.976C133.883 126.773 137.58 124.781 138.663 123.155C139.17 122.397 138.553 122.145 138.068 122.671Z" fill="#38A1FF"/>
<path d="M127.175 127.46C117.952 128.526 112.313 125.108 107.948 121.335C107.89 121.298 107.821 121.282 107.753 121.291C107.685 121.3 107.622 121.333 107.575 121.383C107.529 121.434 107.501 121.499 107.498 121.568C107.495 121.636 107.515 121.704 107.557 121.759C111.593 126.865 120.555 129.849 127.285 128.086C127.769 128.078 127.65 127.297 127.175 127.46Z" fill="#38A1FF"/>
<path d="M54.7844 30.2736C54.9705 30.4267 55.2905 30.2223 55.1366 29.9895C54.459 28.9665 53.6596 27.7866 53.8885 26.4734C54.1443 25.0055 55.6451 24.8952 56.9414 25.7222C58.0356 26.4198 58.8733 27.4205 60.1574 27.798C61.4415 28.1755 62.9086 28.2161 64.1751 28.8517C64.9707 29.2506 64.7563 29.7093 64.1368 30.55C63.824 30.9674 63.4487 31.3342 63.0242 31.6373C61.0541 31.7813 56.714 31.9298 54.8924 30.9405C51.7882 34.5072 61.2616 33.7262 63.2578 32.3188C63.6613 31.936 64.1077 31.5937 64.4676 31.1771C65.8367 29.5944 65.6614 28.7521 63.8818 28.0683C62.1023 27.3846 60.3657 27.5423 59.028 26.6288C58.3442 26.1617 57.7546 25.5622 57.041 25.1425C55.874 24.4572 54.1067 24.3914 53.4911 25.8432C53.2465 26.6269 53.2387 27.4655 53.4688 28.2537C53.6989 29.0418 54.1565 29.7445 54.7844 30.2736Z" fill="#191919"/>
<path d="M56.856 27.9933C56.5674 26.6686 55.2052 26.9404 56.0574 28.9887C56.317 29.6158 57.1746 29.4543 56.856 27.9933Z" fill="#191919"/>
<path d="M58.8901 34.9154C59.3871 35.1045 59.4698 34.0968 59.0984 33.985C58.8243 33.9031 58.5004 34.7668 58.8901 34.9154Z" fill="#191919"/>
<path d="M57.2652 33.8157C56.964 34.3736 56.7982 34.9944 56.7812 35.6282C56.8747 35.998 58.4023 35.91 57.9359 35.5179C57.7698 35.3786 57.2269 35.5608 57.2016 35.4459C57.2856 34.9467 57.4105 34.4552 57.5753 33.9765C57.6595 33.7323 57.3984 33.6105 57.2652 33.8157Z" fill="#191919"/>
<path d="M56.1164 34.6856C56.5406 34.7522 56.5881 33.8747 56.2351 33.8364C55.9633 33.841 55.7772 34.6328 56.1164 34.6856Z" fill="#191919"/>
<path d="M61.544 43.7218C62.9552 42.4538 63.0899 39.9698 62.9368 37.956C64.7462 37.0555 65.0601 34.1335 63.4805 33.9681C63.4972 33.5974 63.4744 33.226 63.4123 32.8601C62.8348 33.1828 62.2123 33.4174 61.5654 33.5562C61.6311 34.2316 61.5252 34.9128 61.2575 35.5364C60.9898 36.1601 60.5689 36.706 60.034 37.1236C59.3908 36.522 58.5664 36.1505 57.6896 36.0674C56.8129 35.9842 55.9333 36.1941 55.1885 36.6642C55.2074 35.7123 55.3125 34.764 55.5025 33.8311C55.5431 33.6274 54.9665 32.7728 54.7169 35.5294C54.674 36.0049 52.1954 40.8128 53.1931 42.7991C54.4404 45.2678 59.3188 45.7226 61.544 43.7218ZM63.4583 34.5332C64.4261 34.7936 64.0402 36.7584 62.8763 37.3066C62.7963 36.6054 62.6844 35.9081 62.5409 35.217C62.7201 34.9919 63.1236 34.4482 63.4552 34.537L63.4583 34.5332ZM57.6633 37.6964C58.0857 37.7188 58.5087 37.664 58.9114 37.5348C59.3104 37.3311 59.4918 37.6267 59.2131 37.9177C59.0026 38.1405 58.4145 38.1612 57.7054 38.0831C57.1748 38.0287 57.112 37.7086 57.6633 37.6964Z" fill="#191919"/>
<path d="M11.4408 44.6307C11.584 44.4216 11.4837 44.0235 11.1185 44.185C10.7532 44.3466 9.94847 44.8489 9.78537 44.61C9.53575 44.2463 9.89563 43.2845 9.43697 43.3083C9.05411 43.329 9.10235 44.1276 9.11001 44.5518C9.13375 45.888 11.1185 45.1039 11.4408 44.6307Z" fill="#191919"/>
<path d="M15.4373 45.6331C14.618 45.7625 13.4289 46.4141 13.1057 46.4233C12.7826 46.4325 11.5337 45.4409 9.45864 45.7946C9.39365 45.8117 9.33727 45.8522 9.30031 45.9083C9.26335 45.9644 9.24842 46.0322 9.25839 46.0987C9.26836 46.1651 9.30252 46.2256 9.35431 46.2684C9.40611 46.3112 9.4719 46.3333 9.53904 46.3306C12.5498 46.2158 11.9847 47.6323 13.9978 46.9164C14.559 46.7585 15.1037 46.5467 15.6242 46.2839C15.9167 46.1001 15.8623 45.5664 15.4373 45.6331Z" fill="#191919"/>
<path d="M11.9893 44.447C11.9464 44.7272 12.35 44.7617 12.4488 44.532C12.5375 44.2431 12.5251 43.9327 12.4138 43.6518C12.3024 43.3709 12.0987 43.1363 11.8362 42.9867C10.7144 42.2631 6.09869 41.8657 4.99912 41.3558C6.61707 41.4109 8.29169 41.5855 9.88285 41.6023C11.6616 41.6245 13.458 41.3941 15.2199 41.7294C15.2608 41.7402 15.3036 41.7429 15.3455 41.7372C15.3875 41.7315 15.428 41.7176 15.4646 41.6963C15.5012 41.6749 15.5333 41.6466 15.559 41.6129C15.5846 41.5791 15.6034 41.5407 15.6142 41.4997C15.625 41.4587 15.6277 41.416 15.622 41.374C15.6163 41.3321 15.6024 41.2916 15.581 41.255C15.5597 41.2184 15.5314 41.1863 15.4976 41.1606C15.4639 41.135 15.4255 41.1162 15.3845 41.1054C14.1218 40.7731 11.1409 41.0541 9.52985 40.9989C7.95018 40.9453 6.28169 40.6735 4.71045 40.7692C3.66142 40.8313 3.82375 41.5572 4.6423 41.8987C5.91798 42.4347 9.08344 42.878 10.5873 43.1728C11.2703 43.2984 12.121 43.5733 11.9893 44.447Z" fill="#191919"/>
<path d="M66.4615 70.8641C66.3321 70.3043 65.5319 70.8985 65.8543 72.0831C65.924 72.4137 66.1221 72.703 66.4051 72.8875C66.6882 73.0721 67.0329 73.1366 67.3635 73.067C68.0242 72.8053 68.5762 72.3265 68.9286 71.7094C68.9922 71.4927 68.8275 71.3671 68.6223 71.433C68.1629 71.5777 67.4638 72.5816 66.9837 72.4606C66.1605 72.2546 66.5243 71.1367 66.4615 70.8641Z" fill="#191919"/>
<path d="M63.6928 66.5424C63.2617 67.2315 62.7486 68.9406 63.29 69.655C63.3251 69.7016 63.3737 69.7361 63.4293 69.7537C63.4848 69.7714 63.5445 69.7713 63.6 69.7536C63.6555 69.7358 63.7042 69.7013 63.7392 69.6547C63.7742 69.608 63.7938 69.5517 63.7954 69.4934C63.6744 69.0273 63.6831 68.5369 63.8206 68.0753C64.4095 65.7782 65.519 66.3387 66.738 65.06C66.782 65.0195 66.8104 64.965 66.8183 64.9058C66.8261 64.8466 66.813 64.7865 66.7811 64.736C66.7492 64.6855 66.7006 64.6478 66.6437 64.6295C66.5869 64.6111 66.5254 64.6134 66.47 64.6357C65.4106 65.0506 64.4605 65.7028 63.6928 66.5424Z" fill="#191919"/>
<path d="M67.6672 71.5954C68.4038 70.1911 68.3885 71.8956 70.0753 70.2072C71.3479 68.9322 70.449 68.8404 70.2828 68.982C69.9873 69.2301 69.3487 70.2531 68.6993 70.3748C68.4099 70.4292 68.0225 70.2845 67.6335 70.6122C67.5004 70.7234 67.3934 70.8624 67.3199 71.0194C67.2465 71.1765 67.2085 71.3477 67.2085 71.5211C67.2168 71.5718 67.2409 71.6186 67.2772 71.6548C67.3136 71.6911 67.3604 71.715 67.4111 71.7233C67.4618 71.7315 67.5138 71.7235 67.5597 71.7006C67.6057 71.6776 67.6433 71.6408 67.6672 71.5954Z" fill="#191919"/>
<path d="M64.5396 69.0517C63.9316 68.7454 63.7203 70.9851 64.4668 70.75C64.79 70.649 64.6315 70.2707 64.607 70.1375C64.5174 69.6175 64.793 69.1796 64.5396 69.0517Z" fill="#191919"/>
<path d="M64.8399 70.8948C64.836 71.9943 65.591 72.1689 65.5106 71.5234C65.4322 71.0789 65.4497 70.6229 65.5619 70.1857C65.6485 69.8304 64.846 69.7056 64.8399 70.8948Z" fill="#191919"/>
<path d="M38.4908 87.8339C38.5428 86.657 38.6822 82.5726 38.7795 80.8061C40.8262 80.7296 40.8844 80.7005 41.1111 79.4937C41.2286 78.8792 41.2868 78.2548 41.2849 77.6292C41.2803 76.9584 40.6179 76.9929 40.5758 77.5235C40.5337 78.0542 40.5169 79.8781 40.1769 79.8972C37.939 80.0062 35.696 79.9437 33.4677 79.7104C32.7885 79.643 32.8942 77.9355 32.8008 77.2854C32.7073 76.6353 32.2234 76.5197 32.0955 77.2218C32.0435 77.7326 32.0636 78.2481 32.1553 78.7533C32.4692 80.6063 32.4524 80.4776 34.6607 80.6262C34.6607 83.1056 35.0749 89.0942 35.1967 90.0315C35.251 90.4572 35.787 90.3753 35.7778 89.9511C35.7235 87.2374 35.4639 83.6661 35.3023 80.6859C36.2314 80.7625 37.1615 80.8064 38.0926 80.8176C38.0076 81.9386 37.8973 86.6439 37.8629 87.7818C37.82 89.1922 38.4326 89.154 38.4908 87.8339Z" fill="#191919"/>
<path d="M112.374 105.851C114.105 106.114 117.894 106.35 118.251 106.352C119.032 106.356 119.469 105.663 118.251 105.592C116.531 105.497 113.945 105.243 112.278 105.056C111.775 105 111.829 105.768 112.374 105.851Z" fill="#191919"/>
<path d="M94.6406 103.821C96.3412 104.363 103.324 105.016 105.086 105.146C105.622 105.186 105.763 104.357 105.218 104.297C102.119 103.951 97.5809 103.48 94.7386 103.197C94.42 103.165 94.3435 103.726 94.6406 103.821Z" fill="#191919"/>
<path d="M124.824 105.668C124.399 105.662 124.399 106.334 124.824 106.412C128.41 106.606 132.006 106.578 135.589 106.327C135.276 112.005 133.634 113.59 134.423 113.763C134.484 113.777 134.548 113.771 134.606 113.745C134.664 113.72 134.712 113.676 134.743 113.622C135.682 112.305 136.428 107.435 136.412 105.868C136.412 105.473 135.988 105.49 135.958 105.49C132.695 105.551 128.086 105.715 124.824 105.668Z" fill="#191919"/>
<path d="M96.1635 114.663C79.3446 112.409 62.6873 109.528 46.6724 103.703C45.8207 103.403 45.0125 102.991 44.2688 102.478C44.2036 102.425 44.1202 102.399 44.0363 102.406C43.9524 102.413 43.8745 102.453 43.8193 102.516C43.764 102.58 43.7356 102.662 43.7402 102.746C43.7448 102.83 43.782 102.909 43.8438 102.967C45.069 104.056 46.6846 104.568 48.1877 105.132C63.4522 110.863 79.8324 113.861 95.9981 115.485C96.5464 115.545 96.6926 114.74 96.1635 114.663Z" fill="#191919"/>
<path d="M61.0218 117.452C59.9543 117.182 58.8548 117.036 57.7774 116.819C54.4946 116.097 51.2587 115.176 48.0873 114.063C47.7649 113.962 47.5245 114.484 47.8453 114.623C52.3003 116.557 59.387 118.145 60.9161 118.207C61.012 118.213 61.1065 118.182 61.1807 118.121C61.255 118.06 61.3036 117.973 61.3169 117.878C61.3302 117.783 61.3072 117.686 61.2525 117.607C61.1979 117.528 61.1155 117.473 61.0218 117.452Z" fill="#191919"/>
<path d="M39.6414 89.5475C53.4296 96.491 73.6889 100.613 88.6104 103.319C89.154 103.418 89.2811 102.565 88.7383 102.47C71.2647 99.3739 56.2337 96.3302 40.1468 88.6692C39.3267 88.2787 39.2723 88.5207 38.5801 89.2335C34.9124 93.01 28.9268 94.6479 23.9045 95.9979C23.5262 96.0997 23.3784 96.1931 23.4205 96.8179C23.8187 102.728 27.4788 116.218 31.106 121.069C31.3227 121.358 31.8993 121.048 31.7301 120.729C28.4903 114.615 25.8831 107.85 24.1495 96.7199C28.9314 95.9473 35.3435 93.5606 38.8803 90.1256C39.2203 99.0891 41.924 117.271 46.4609 124.389C46.7335 124.816 47.3032 124.576 47.0474 124.105C42.7119 116.118 40.2272 100.547 39.6414 89.5475Z" fill="#191919"/>
<path d="M112.586 116.123C110.888 116.123 107.46 115.9 104.756 115.698C104.416 115.673 104.382 116.234 104.709 116.289C107.333 116.706 109.989 116.889 112.646 116.836C113.368 116.773 113.486 116.123 112.586 116.123Z" fill="#191919"/>
<path d="M37.7518 102.255C34.6736 103.81 31.3825 104.901 27.9851 105.494C27.6406 105.556 27.688 106.123 28.0403 106.107C31.582 105.777 35.015 104.708 38.1171 102.967C38.1773 102.904 38.2163 102.823 38.2287 102.736C38.2411 102.649 38.2262 102.56 38.1862 102.482C38.1461 102.404 38.0829 102.34 38.0051 102.299C37.9273 102.259 37.8389 102.243 37.7518 102.255Z" fill="#191919"/>
<path d="M132.637 118.17C131.867 120.266 130.896 122.17 130.089 124.219C129.969 124.525 130.409 124.835 130.603 124.533C131.703 122.608 132.626 120.587 133.36 118.495C133.538 118.01 132.815 117.685 132.637 118.17Z" fill="#191919"/>
<path d="M38.7113 114C36.4889 115.015 34.1412 115.729 31.7303 116.123C31.6483 116.148 31.5782 116.202 31.533 116.274C31.4879 116.347 31.4707 116.434 31.4848 116.518C31.4988 116.603 31.5432 116.679 31.6095 116.733C31.6758 116.787 31.7596 116.815 31.8451 116.812C34.372 116.473 36.8313 115.745 39.1362 114.655C39.5964 114.447 39.1699 113.787 38.7113 114Z" fill="#191919"/>
<path d="M149.317 129.211C139.695 120.777 126.294 108.976 116.454 100.892C116.123 100.62 115.728 101.207 116.029 101.466C125.912 109.932 138.303 120.815 148.725 129.827C149.134 130.178 149.733 129.575 149.317 129.211Z" fill="#191919"/>
<path d="M84.5719 93.8042C84.3177 93.481 83.846 93.9573 84.0627 94.2544C91.3531 104.124 102.716 119.267 110.165 129.218C110.569 129.754 111.62 129.678 111.04 128.912C103.504 118.867 92.4726 103.815 84.5719 93.8042Z" fill="#191919"/>
<path d="M103.055 98.0033C102.767 97.7054 102.26 98.2078 102.541 98.5087C112.074 108.72 122.519 119.769 131.892 130.017C132.67 130.869 133.187 130.14 132.856 129.762C124.078 119.743 112.842 108.118 103.055 98.0033Z" fill="#191919"/>
<path d="M59.3915 50.879C59.6049 49.9157 59.8604 48.9623 60.1572 48.0213C57.2613 48.0849 53.3377 47.4853 51.5498 46.3529C51.2747 47.3727 51.0591 48.4076 50.9043 49.4525C53.604 50.5106 56.4942 50.9964 59.3915 50.879Z" fill="#191919"/>
<path d="M58.236 57.4764C58.3476 56.3957 58.5192 55.3221 58.7498 54.2604C55.8726 54.2379 53.018 53.7494 50.297 52.8139C50.02 53.8867 49.855 54.9852 49.8047 56.092C51.5651 57.0177 55.1279 57.6801 58.236 57.4764Z" fill="#191919"/>
<path d="M57.9007 60.8394C54.9306 60.9134 51.9721 60.4429 49.1716 59.4511C49.0314 60.4956 48.84 61.795 48.7466 62.6993C50.7681 63.6848 54.7896 64.3976 57.6641 64.4359C57.7246 63.1235 57.8417 61.8624 57.9007 60.8394Z" fill="#191919"/>
<path d="M41.6584 76.623C42.4119 76.1391 42.2311 73.5739 42.1507 72.8013C42.1002 72.3089 42.4754 72.4238 42.5757 72.8013C42.7329 73.3849 42.7975 73.9895 42.7671 74.5931C46.2404 77.4086 53.6173 79.9171 54.5507 81.2134C55.537 82.5841 57.9091 90.4533 60.0708 95.337C61.8794 96.1862 69.6973 97.991 70.9799 98.233C70.9799 96.3815 70.6185 91.4641 70.4232 90.0674C68.6781 89.961 61.0049 89.621 60.1221 88.415C59.5317 87.6125 57.4183 77.8374 57.6036 67.9543C55.1878 67.2323 41.1408 61.1732 35.9852 62.808C31.3013 64.2927 30.5295 68.9337 31.5732 75.4828C31.8626 77.296 41.1469 76.9515 41.6584 76.623Z" fill="#191919"/>
<path d="M83.4473 77.519C83.3118 77.3788 82.5981 77.4424 82.7168 77.0947C83.0335 76.5223 83.4076 75.9835 83.8332 75.4867C83.9182 75.2616 83.7651 75.2134 83.6035 75.2746C83.0078 75.7897 82.5299 76.4269 82.2023 77.143C81.9886 77.97 83.9021 77.9899 83.4473 77.519Z" fill="#191919"/>
<path d="M82.5897 79.0304C82.9503 79.3198 84.0706 79.4898 84.4274 79.133C84.677 78.8811 84.4994 78.5204 84.2321 78.6529C83.5828 78.9715 83.3829 78.7762 82.6823 78.6529C82.4748 78.6529 82.3347 78.8275 82.5897 79.0304Z" fill="#191919"/>
<path d="M85.5788 74.6613C85.7058 74.7358 85.8091 74.8448 85.8769 74.9755C85.9446 75.1062 85.974 75.2535 85.9617 75.4002C85.9617 75.8244 86.5176 75.8972 86.4839 75.2348C86.4945 74.9902 86.4329 74.7478 86.3068 74.5379C86.1808 74.3279 85.9958 74.1597 85.7748 74.0541C85.7009 74.0473 85.6268 74.0659 85.5648 74.1068C85.5028 74.1477 85.4566 74.2085 85.4338 74.2792C85.411 74.3499 85.4129 74.4263 85.4393 74.4957C85.4656 74.5651 85.5148 74.6235 85.5788 74.6613Z" fill="#191919"/>
<path d="M82.5336 75.3366C82.7587 75.4132 83.2189 75.0487 83.1155 74.7294C82.9202 74.1406 82.1048 75.1835 82.5336 75.3366Z" fill="#191919"/>
<path d="M83.9012 73.7356C83.9621 73.7719 84.0347 73.7835 84.1039 73.7679C84.1731 73.7522 84.2336 73.7106 84.273 73.6516C84.3123 73.5925 84.3275 73.5206 84.3153 73.4508C84.3031 73.3809 84.2645 73.3184 84.2075 73.2761C83.732 72.8519 82.7351 73.3221 82.9341 73.6284C83.0865 73.8665 83.4257 73.4974 83.9012 73.7356Z" fill="#191919"/>
<path d="M85.0773 75.6C84.7128 75.2509 84.0819 76.4056 84.6064 76.3941C84.8185 76.3887 85.2818 75.7945 85.0773 75.6Z" fill="#191919"/>
<path d="M85.3625 81.9141C85.5876 81.8008 85.5447 81.3413 85.2691 81.3957C83.7583 81.6936 80.9206 82.0029 81.0737 79.3666C81.3192 76.9597 82.0654 74.6308 83.2644 72.5295C83.4176 72.2784 83.0141 72.1022 82.8402 72.3388C81.5117 74.4544 80.6703 76.839 80.3769 79.3199C80.0553 82.4738 84.1213 82.5397 85.3625 81.9141Z" fill="#191919"/>
<path d="M83.0007 91.4258C82.4961 90.7504 80.8781 92.8271 81.4003 94.4887C81.4116 94.5552 81.4477 94.615 81.5013 94.6561C81.5548 94.6971 81.622 94.7164 81.6891 94.71C81.7563 94.7036 81.8186 94.672 81.8635 94.6216C81.9083 94.5711 81.9325 94.5056 81.931 94.4381C81.774 92.1509 83.4303 91.9978 83.0007 91.4258Z" fill="#191919"/>
<path d="M81.8593 90.3982C80.5086 90.0414 79.7023 93.3394 80.5852 93.3026C81.0737 93.2827 80.6273 91.566 81.8593 91.0223C81.9236 90.9992 81.9791 90.9569 82.0184 90.901C82.0577 90.8452 82.0788 90.7785 82.0788 90.7103C82.0788 90.642 82.0577 90.5754 82.0184 90.5195C81.9791 90.4637 81.9236 90.4213 81.8593 90.3982Z" fill="#191919"/>
<path d="M83.9444 93.1885C84.4414 92.9128 84.0156 92.4993 83.596 92.6019C82.4015 92.8853 82.0447 95.6878 83.596 95.5071C83.6504 95.4992 83.7005 95.4731 83.7382 95.433C83.7758 95.3929 83.7987 95.3413 83.8031 95.2865C83.8076 95.2317 83.7933 95.177 83.7626 95.1314C83.732 95.0858 83.6867 95.0519 83.6343 95.0354C82.8594 94.7934 83.3158 93.5369 83.9444 93.1885Z" fill="#191919"/>
<path d="M86.1325 89.2688C85.4661 88.7974 84.7235 88.4441 83.9372 88.2244C83.4275 88.0683 82.8889 88.0304 82.3623 88.1134C81.8357 88.1963 81.3349 88.3981 80.8978 88.7034C80.4608 89.0086 80.099 89.4094 79.8398 89.8752C79.5806 90.3411 79.4309 90.8598 79.4019 91.3922C79.3958 91.6594 79.8537 91.8156 79.9287 91.5277C80.2633 90.2505 81.4602 88.2864 83.8607 88.9802C84.7106 89.226 85.3814 89.7022 85.8393 89.8041C85.9082 89.8271 85.983 89.8252 86.0507 89.7986C86.1183 89.7721 86.1745 89.7227 86.2094 89.6589C86.2444 89.5952 86.2558 89.5212 86.2417 89.4499C86.2277 89.3786 86.189 89.3145 86.1325 89.2688Z" fill="#191919"/>
<path d="M95.3074 92.3516C94.1419 91.2152 89.3623 89.4595 87.3791 89.0222C86.8431 88.9036 86.2122 88.9625 86.8271 89.6555C88.3654 91.3868 88.6732 93.0131 87.252 95.0017C86.9856 95.3731 87.445 95.6824 87.7444 95.3539C88.4014 94.6129 88.7846 93.6692 88.8302 92.6799C88.8758 91.6906 88.5809 90.7156 87.9948 89.9174C90.4467 90.641 92.8297 91.5804 95.1159 92.7245C95.4222 92.8692 95.5072 92.5468 95.3074 92.3516Z" fill="#191919"/>
<path d="M76.16 83.7488C77.8306 83.0521 79.6292 82.715 81.4388 82.7595C81.636 83.62 82.1149 84.3901 82.7994 84.9477C83.4839 85.5053 84.3349 85.8185 85.2176 85.8376C87.2644 85.9578 89.0393 84.8146 90.4834 83.4601C96.0035 85.3491 100.768 92.2497 100.942 96.8785C101.04 99.4605 100.547 101.46 97.6214 101.473C94.6956 101.485 91.828 99.7062 89.978 98.462C89.7391 98.3019 89.39 98.6603 89.6342 98.8869C91.3678 100.495 95.4728 102.467 98.0035 102.256C100.471 102.049 101.457 100.405 101.673 97.9497C102.163 92.3745 97.0234 86.0206 92.6741 83.6439C91.8839 83.212 90.6733 82.3046 89.8509 82.9853C88.5753 84.0413 87.0814 85.16 85.3662 85.1087C83.4297 85.0512 82.5077 84.042 81.9266 82.3276C81.8086 81.9792 81.3837 82.0397 81.0077 82.0343C79.5467 82.0152 77.0199 82.4379 75.9119 83.287C75.8609 83.325 75.8253 83.38 75.8115 83.442C75.7977 83.504 75.8067 83.5689 75.8367 83.6249C75.8668 83.6809 75.916 83.7242 75.9753 83.7469C76.0347 83.7697 76.1002 83.7703 76.16 83.7488Z" fill="#191919"/>
<path d="M99.4682 78.4447C100.318 78.4975 100.178 78.1223 99.9697 78.0618C99.7614 78.0013 99.5149 78.1215 99.4337 77.96C99.3526 77.7984 100.099 76.5579 100.219 76.3849C100.408 76.1115 100.107 75.5702 99.1068 77.561C98.8434 78.084 98.8908 78.4087 99.4682 78.4447Z" fill="#191919"/>
<path d="M99.0311 75.1666C99.2566 75.1044 99.4948 75.1044 99.7203 75.1666C99.7715 75.1707 99.8228 75.1603 99.8683 75.1364C99.9138 75.1125 99.9516 75.0762 99.9774 75.0318C100.003 74.9873 100.016 74.9364 100.014 74.8851C100.012 74.8337 99.9952 74.784 99.9661 74.7416C99.767 74.3511 99.1467 74.5119 98.9216 74.7845C98.7394 75.0028 98.8106 75.2554 99.0311 75.1666Z" fill="#191919"/>
<path d="M98.7669 76.793C99.0854 76.9423 99.2906 76.3688 99.2386 76.1559C99.0801 75.5005 98.3726 76.6069 98.7669 76.793Z" fill="#191919"/>
<path d="M101.983 75.8504C102.536 76.2639 102.429 74.9935 101.512 74.7715C101.121 74.7332 100.879 75.1965 101.312 75.3703C101.745 75.5441 101.759 75.6835 101.983 75.8504Z" fill="#191919"/>
<path d="M99.9737 80.0113C100.399 80.0978 101.323 80.1797 101.749 79.6468C102.045 79.2762 101.775 78.7969 101.324 79.2984C100.899 79.7226 99.9951 79.5955 99.9063 79.6292C99.6682 79.7195 99.7157 79.9592 99.9737 80.0113Z" fill="#191919"/>
<path d="M103.647 81.2013C103.775 80.8705 103.332 80.6875 103.124 80.9294C101.5 82.8253 99.0333 82.248 98.4536 80.594C97.7966 78.7196 98.4804 75.829 98.9421 73.953C98.956 73.8948 98.9479 73.8334 98.9193 73.7808C98.8907 73.7282 98.8437 73.688 98.7873 73.668C98.7308 73.6479 98.669 73.6494 98.6136 73.6722C98.5583 73.695 98.5133 73.7375 98.4873 73.7914C97.7162 75.5457 97.1312 79.7135 98.1312 81.4348C99.3028 83.4578 102.915 83.0918 103.647 81.2013Z" fill="#191919"/>
<path d="M101.265 76.5763C101.206 76.3259 100.644 76.2364 100.696 77.0947C100.723 77.5572 101.436 77.3061 101.265 76.5763Z" fill="#191919"/>
<path d="M107.435 82.4746C106.959 82.2449 106.827 82.143 106.399 82.581C103.85 85.1844 100.565 85.9792 100.072 83.1622C100.029 82.9164 99.5708 82.9034 99.5708 83.1622C99.5708 86.0076 103.392 86.9372 106.908 82.895C109.377 84.1654 111.457 86.0787 112.93 88.4329C114.402 90.7872 115.212 93.4952 115.273 96.2712C115.35 99.5071 114.941 102.501 110.891 101.791C109.781 101.519 108.694 101.163 107.638 100.725C107.561 100.692 107.473 100.69 107.394 100.721C107.315 100.752 107.252 100.813 107.218 100.891C107.184 100.968 107.183 101.056 107.214 101.135C107.245 101.214 107.306 101.277 107.383 101.311C109.103 102.23 111.393 103.01 113.328 102.424C115.264 101.837 115.867 99.7231 115.966 97.9014C116.315 91.4158 113.406 85.3988 107.435 82.4746Z" fill="#191919"/>
<path d="M110.386 94.6916C108.577 92.8906 103.469 90.791 101.286 90.7634C101.224 90.767 101.164 90.7927 101.119 90.8359C101.074 90.8791 101.045 90.937 101.039 90.9992C101.032 91.0615 101.048 91.1241 101.083 91.1759C101.118 91.2276 101.171 91.2652 101.231 91.2818C104.397 91.9575 107.408 93.2236 110.106 95.0139C110.352 95.1717 110.559 94.9167 110.386 94.6916Z" fill="#191919"/>
<path d="M94.5303 83.9739C94.4906 84.0271 94.471 84.0926 94.4751 84.1589C94.4792 84.2251 94.5067 84.2877 94.5527 84.3356C94.5986 84.3835 94.6601 84.4135 94.7261 84.4203C94.7921 84.4272 94.8584 84.4103 94.9132 84.3728C97.6429 82.2158 98.7126 83.2549 98.7073 82.5619C98.707 82.5206 98.6977 82.4798 98.6801 82.4425C98.6625 82.4051 98.6369 82.372 98.6052 82.3455C98.5736 82.319 98.5365 82.2997 98.4966 82.2889C98.4567 82.2781 98.4149 82.2762 98.3742 82.2832C96.9244 82.3371 95.5498 82.9418 94.5303 83.9739Z" fill="#191919"/>
<path d="M117.729 85.0221C117.223 84.8383 117.186 84.8077 116.705 85.1538C116.285 85.4268 115.81 85.6013 115.313 85.6642C114.817 85.7271 114.312 85.6769 113.838 85.5172C113.364 85.3574 112.932 85.0924 112.575 84.742C112.217 84.3916 111.944 83.9648 111.775 83.4938C111.567 82.8904 111.525 82.7548 111.045 82.7679C110.554 82.751 110.065 82.8422 109.614 83.0351C109.342 83.2173 109.473 83.4601 109.779 83.4601C110.23 83.4218 110.683 83.4218 111.133 83.4601C111.305 84.0833 111.626 84.6557 112.067 85.1281C112.509 85.6004 113.058 85.9588 113.668 86.1725C114.279 86.3862 114.932 86.4488 115.571 86.355C116.211 86.2612 116.819 86.0138 117.342 85.6339C121.448 87.235 127.155 90.8783 127.351 97.8042C127.41 99.9061 126.79 101.709 125.589 102.645C124.211 103.717 122.664 103.403 121.092 103.244C120.667 103.2 120.633 103.696 121.02 103.8C122.716 104.259 124.871 104.365 126.26 103.104C129.978 99.7254 128.609 88.9809 117.729 85.0221Z" fill="#191919"/>
<path d="M123.35 96.2751C122.135 95.0231 118.632 93.481 116.438 93.651C116.064 93.6801 116.136 94.0767 116.438 94.118C118.831 94.4591 121.111 95.3565 123.095 96.7383C123.432 96.9688 123.639 96.5729 123.35 96.2751Z" fill="#191919"/>
<path d="M117.232 81.29C116.849 81.1108 116.849 80.7632 116.76 80.4026C116.671 80.0419 116.293 80.156 116.268 80.4791C116.271 80.734 116.348 80.9825 116.49 81.1943C116.631 81.4061 116.832 81.5721 117.066 81.6721C117.402 81.7778 117.604 81.4631 117.232 81.29Z" fill="#191919"/>
<path d="M118.955 80.7763C119.381 80.4838 119.508 79.3214 119.617 78.7931C119.624 78.7508 119.614 78.7077 119.59 78.6723C119.566 78.637 119.529 78.6122 119.488 78.6031C119.446 78.5939 119.402 78.601 119.365 78.6229C119.329 78.6448 119.302 78.68 119.29 78.7211C119.187 79.2789 118.992 79.8156 118.713 80.3092C118.6 80.4585 118.289 80.0335 118.152 80.2625C117.945 80.6109 118.714 80.9424 118.955 80.7763Z" fill="#191919"/>
<path d="M117.775 77.2854C118.049 77.196 118.337 77.1602 118.624 77.1797C118.688 77.179 118.75 77.1566 118.799 77.1163C118.848 77.0759 118.883 77.02 118.896 76.9576C118.909 76.8953 118.901 76.8303 118.873 76.7732C118.844 76.7162 118.797 76.6705 118.739 76.6437C118.537 76.5971 118.327 76.5943 118.123 76.6353C117.919 76.6764 117.727 76.7604 117.558 76.8819C117.18 77.2196 117.639 77.3536 117.775 77.2854Z" fill="#191919"/>
<path d="M117.97 78.9079C118.264 79.0511 118.692 78.483 118.395 78.1897C118.097 77.8964 117.68 78.7663 117.97 78.9079Z" fill="#191919"/>
<path d="M119.924 79.731C120.251 79.8842 120.543 79.107 120.297 78.9546C120.052 78.8022 119.601 79.5779 119.924 79.731Z" fill="#191919"/>
<path d="M120.879 77.2516C120.636 77.1329 120.291 77.3933 120.561 77.6758C120.688 77.8071 120.789 77.9615 120.858 78.1307C120.993 78.3765 121.338 78.3106 121.253 77.829C121.233 77.7124 121.19 77.601 121.126 77.5017C121.061 77.4024 120.977 77.3173 120.879 77.2516Z" fill="#191919"/>
<path d="M92.5555 26.0231C93.5302 24.9174 99.6176 23.5943 101.438 26.9106C101.471 26.9868 101.525 27.0526 101.593 27.101C101.66 27.1494 101.74 27.1786 101.823 27.1856C101.906 27.1925 101.989 27.177 102.064 27.1406C102.139 27.1042 102.203 27.0483 102.249 26.9787C104.423 24.6349 108.858 24.203 111.26 26.0867C111.518 26.2903 111.847 26.0223 111.625 25.739C109.617 23.18 104.007 23.8064 101.964 25.883C100.177 23.3354 94.1313 23.1739 92.1037 25.6288C91.8939 25.8837 92.3265 26.2827 92.5555 26.0231Z" fill="#191919"/>
<path d="M108.144 39.1635C108.101 39.2134 108.078 39.2774 108.079 39.3432C108.08 39.4091 108.105 39.4723 108.15 39.5207C108.194 39.5692 108.255 39.5994 108.321 39.6057C108.387 39.612 108.452 39.5939 108.505 39.5548C110.892 37.7699 114.282 37.3825 116.459 39.7539C116.947 40.2853 117.035 40.649 117.647 39.894C119.375 37.7676 123.127 38.2791 125.002 39.6482C125.333 39.8894 125.516 39.5586 125.282 39.283C123.428 37.0915 119.01 37.1597 117.142 39.1214C114.875 36.6857 110.406 36.4789 108.144 39.1635Z" fill="#191919"/>
<path d="M88.5829 73.4384C88.1448 74.7821 87.9902 76.202 88.1289 77.6085C88.282 78.2977 88.9267 77.0725 89.8272 77.6085C90.4084 77.9569 89.0929 80.421 87.7973 80.1989C87.0967 80.0779 87.2919 81.0481 88.6465 80.7548C88.585 81.357 88.6544 81.9654 88.8502 82.5382C88.9819 82.7503 89.4168 82.9631 89.3173 82.1645C89.2476 81.6002 89.2882 80.9669 89.2583 80.398C90.1458 79.7272 90.9567 78.2364 90.511 77.3834C92.2094 76.1988 94.2431 72.6742 91.4873 72.5594C92.838 71.5739 91.4873 68.5777 89.364 70.1857C89.632 68.534 86.9696 66.5041 85.3823 68.5164C84.3868 65.2552 80.4051 67.7913 82.0614 70.5257C83.2765 72.5257 87.3708 73.4507 88.5829 73.4384Z" fill="#191919"/>
<path d="M104.849 71.1964C104.39 68.0569 97.4263 66.4911 96.3558 69.7905C95.2854 73.09 101.452 73.8542 103.338 73.9139C103.241 74.9148 103.508 75.9171 104.089 76.7378C104.175 76.891 104.356 77.0441 104.534 76.9247C105.017 76.5954 105.989 76.479 105.775 77.5786C105.56 78.6782 104.468 78.9508 104.501 79.4163C104.521 79.7058 104.743 79.6583 105.103 79.5396C105.013 80.4225 105.084 81.3144 105.312 82.1721C105.513 82.6469 105.956 82.5971 105.855 82.045C105.675 81.0364 105.624 80.009 105.702 78.9875C106.288 78.3121 106.725 77.1406 106.126 76.4055C109.482 73.2133 108.433 68.9199 104.849 71.1964Z" fill="#191919"/>
<path d="M124.801 75.2003C126.673 72.1979 121.06 69.5486 116.261 70.8143C114.806 66.8946 109.174 72.7462 109.395 82.3812C110.268 82.2733 111.15 82.2533 112.028 82.3214C111.858 82.9968 112.388 82.9218 112.452 82.7464C112.867 81.5865 113.349 80.452 113.897 79.3489C113.945 79.2802 113.977 79.2017 113.991 79.1191C114.006 79.0365 114.002 78.9517 113.98 78.8707C113.958 78.7897 113.919 78.7146 113.865 78.6505C113.811 78.5864 113.743 78.5349 113.667 78.4998C112.546 77.7823 114.652 74.9162 115.175 77.0013C115.281 77.4255 116.966 76.4109 117.485 75.0219C119.15 75.7225 122.934 78.1981 124.801 75.2003Z" fill="#191919"/>
<path d="M121.117 80.1055C121.561 79.3799 121.904 78.5966 122.136 77.7777C122.297 77.1942 121.836 77.146 121.617 77.7777C121.144 79.156 118.594 83.4256 116.921 83.5573C115.796 83.6462 114.992 82.8621 114.297 82.1392C114.28 82.1168 114.259 82.0981 114.234 82.0843C114.21 82.0704 114.183 82.0617 114.155 82.0587C114.127 82.0556 114.099 82.0583 114.072 82.0665C114.045 82.0748 114.02 82.0884 113.999 82.1066C113.977 82.1248 113.96 82.1472 113.947 82.1723C113.935 82.1975 113.928 82.225 113.926 82.253C113.925 82.2811 113.929 82.3092 113.938 82.3356C113.948 82.3619 113.963 82.3861 113.983 82.4065C114.649 83.4019 115.907 84.3897 117.176 84.1607C119.3 84.7733 123.737 87.0398 126.234 90.2864C128.323 88.4908 127.679 85.7794 125.21 84.8215C123.111 84.0045 121.21 82.4746 121.117 80.1055Z" fill="#191919"/>
</svg>
