<svg width="155" height="154" viewBox="0 0 155 154" fill="none" xmlns="http://www.w3.org/2000/svg">
<path d="M79.2555 142.024C78.9139 142.049 78.5709 142.003 78.2479 141.888C77.925 141.774 77.6293 141.594 77.3791 141.36C77.129 141.126 76.9299 140.843 76.7945 140.529C76.659 140.214 76.59 139.875 76.5918 139.532C76.5918 139.446 80.7169 56.2556 80.7169 56.2556C80.7591 55.5863 81.0613 54.9599 81.559 54.5103C82.0567 54.0608 82.7104 53.8236 83.3806 53.8496H126.779C127.445 53.8392 128.09 54.0817 128.584 54.5282C129.079 54.9747 129.385 55.592 129.442 56.2556L133.052 139.36C133.057 140.039 132.802 140.694 132.338 141.19C131.874 141.686 131.237 141.984 130.559 142.024H79.2555Z" fill="#FFE55D"/>
<path d="M129.751 56.2365C129.69 55.4947 129.349 54.8039 128.797 54.3039C128.246 53.8038 127.525 53.5319 126.781 53.543H83.3998C82.6476 53.512 81.9132 53.7771 81.3542 54.2814C80.7952 54.7857 80.456 55.489 80.4095 56.2404C77.2091 113.363 76.1924 141.688 76.1924 141.777C76.195 142.174 76.2767 142.566 76.4329 142.931C76.589 143.295 76.8163 143.625 77.1015 143.901C77.3867 144.177 77.7241 144.392 78.0938 144.536C78.4636 144.68 78.8583 144.748 79.2548 144.737H130.474C130.861 144.747 131.247 144.68 131.609 144.539C131.971 144.398 132.301 144.187 132.58 143.918C132.859 143.649 133.083 143.327 133.237 142.972C133.391 142.616 133.473 142.233 133.478 141.845C133.426 139.351 129.751 56.2365 129.751 56.2365ZM81.0229 56.2749C81.0611 55.6836 81.3291 55.1308 81.7698 54.7347C82.2105 54.3386 82.7887 54.1307 83.3807 54.1556H126.779C127.366 54.1437 127.936 54.3553 128.374 54.7475C128.812 55.1397 129.084 55.6834 129.136 56.2688L132.745 139.36C132.754 139.958 132.532 140.537 132.125 140.977C131.718 141.416 131.157 141.681 130.559 141.718H79.2379C78.9245 141.74 78.6098 141.695 78.3153 141.586C78.0208 141.476 77.7533 141.304 77.5311 141.082C77.3089 140.86 77.1373 140.592 77.028 140.297C76.9187 140.003 76.8743 139.688 76.8978 139.374L81.0229 56.2749Z" fill="#4B1010"/>
<path d="M126.867 126.555H82.8676C82.3269 126.555 81.8059 126.352 81.4082 125.986C81.0104 125.62 80.765 125.117 80.7207 124.578L83.9863 58.6616C84.0028 58.3964 84.0714 58.137 84.1883 57.8983C84.3052 57.6597 84.468 57.4464 84.6674 57.2708C84.8669 57.0952 85.099 56.9606 85.3505 56.8748C85.602 56.789 85.868 56.7537 86.1332 56.7708H123.947C124.479 56.7518 124.998 56.9371 125.397 57.2888C125.796 57.6405 126.046 58.1317 126.094 58.6616L128.931 124.492C128.934 124.764 128.883 125.034 128.781 125.286C128.678 125.538 128.526 125.767 128.334 125.959C128.142 126.151 127.913 126.303 127.661 126.406C127.409 126.508 127.139 126.559 126.867 126.555Z" fill="#FFB43B"/>
<path d="M104.866 138.845C108.141 138.845 110.796 136.613 110.796 133.86C110.796 131.107 108.141 128.875 104.866 128.875C101.591 128.875 98.936 131.107 98.936 133.86C98.936 136.613 101.591 138.845 104.866 138.845Z" fill="white"/>
<path d="M104.866 139.151C101.427 139.151 98.6289 136.774 98.6289 133.86C98.6289 130.946 101.427 128.57 104.866 128.57C108.305 128.57 111.102 130.946 111.102 133.86C111.102 136.774 108.305 139.151 104.866 139.151ZM104.866 129.183C101.765 129.183 99.2423 131.282 99.2423 133.86C99.2423 136.439 101.765 138.537 104.866 138.537C107.966 138.537 110.489 136.439 110.489 133.86C110.489 131.282 107.966 129.183 104.866 129.183Z" fill="#4B1010"/>
<path d="M120.592 88.7897H90.1705C90.0891 88.7897 90.0111 88.7574 89.9536 88.6998C89.8961 88.6423 89.8638 88.5643 89.8638 88.483C89.8638 88.4016 89.8961 88.3236 89.9536 88.2661C90.0111 88.2086 90.0891 88.1763 90.1705 88.1763H120.592C120.673 88.1763 120.751 88.2086 120.809 88.2661C120.866 88.3236 120.899 88.4016 120.899 88.483C120.899 88.5643 120.866 88.6423 120.809 88.6998C120.751 88.7574 120.673 88.7897 120.592 88.7897Z" fill="#4B1010"/>
<path d="M113.632 94.548H90.17C90.0886 94.548 90.0106 94.5157 89.9531 94.4581C89.8956 94.4006 89.8633 94.3226 89.8633 94.2413C89.8633 94.1599 89.8956 94.0819 89.9531 94.0244C90.0106 93.9669 90.0886 93.9346 90.17 93.9346H113.632C113.714 93.9346 113.792 93.9669 113.849 94.0244C113.907 94.0819 113.939 94.1599 113.939 94.2413C113.939 94.3226 113.907 94.4006 113.849 94.4581C113.792 94.5157 113.714 94.548 113.632 94.548Z" fill="#4B1010"/>
<path d="M126.399 58.6419C126.343 58.0356 126.058 57.4735 125.602 57.0698C125.146 56.666 124.554 56.4509 123.945 56.4681H86.1547C85.6934 56.4364 85.2331 56.543 84.8327 56.7744C84.4324 57.0058 84.1102 57.3514 83.9074 57.767C83.7732 58.043 83.6942 58.3421 83.6758 58.6488L80.4141 124.601C80.4659 125.217 80.7467 125.791 81.201 126.209C81.6552 126.628 82.25 126.861 82.8677 126.862H126.869C127.182 126.865 127.493 126.805 127.782 126.686C128.072 126.567 128.335 126.392 128.556 126.17C128.776 125.948 128.951 125.684 129.068 125.393C129.185 125.103 129.242 124.792 129.238 124.479L126.399 58.6419ZM84.2884 58.6886C84.3156 58.2545 84.5065 57.8468 84.8226 57.548C85.1387 57.2491 85.5564 57.0813 85.9914 57.0785L123.945 57.0831C124.399 57.0617 124.843 57.2158 125.185 57.5132C125.528 57.8106 125.743 58.2285 125.786 58.6802L126.743 80.8768H83.1874L84.2884 58.6886ZM126.766 81.4879L127.673 102.532H82.1132L83.1575 81.4879H126.766ZM126.864 126.251H82.8677C82.408 126.252 81.9646 126.082 81.6242 125.773C81.2838 125.464 81.071 125.039 81.0275 124.582L82.0879 103.145H127.709L128.63 124.495C128.631 124.727 128.587 124.956 128.499 125.171C128.411 125.385 128.281 125.58 128.117 125.743C127.953 125.907 127.758 126.036 127.543 126.122C127.328 126.209 127.098 126.252 126.867 126.248L126.864 126.251Z" fill="#4B1010"/>
<path d="M116.038 110.963H89.8257C89.7444 110.963 89.6664 110.93 89.6089 110.873C89.5514 110.815 89.519 110.737 89.519 110.656C89.519 110.574 89.5514 110.496 89.6089 110.439C89.6664 110.381 89.7444 110.349 89.8257 110.349H116.038C116.119 110.349 116.197 110.381 116.255 110.439C116.312 110.496 116.345 110.574 116.345 110.656C116.345 110.737 116.312 110.815 116.255 110.873C116.197 110.93 116.119 110.963 116.038 110.963Z" fill="#4B1010"/>
<path d="M121.711 116.978H89.6544C89.573 116.978 89.495 116.946 89.4375 116.889C89.38 116.831 89.3477 116.753 89.3477 116.672C89.3477 116.59 89.38 116.512 89.4375 116.455C89.495 116.397 89.573 116.365 89.6544 116.365H121.711C121.792 116.365 121.87 116.397 121.927 116.455C121.985 116.512 122.017 116.59 122.017 116.672C122.017 116.753 121.985 116.831 121.927 116.889C121.87 116.946 121.792 116.978 121.711 116.978Z" fill="#4B1010"/>
<path d="M140.273 48.6925H110.452C109.462 48.6774 108.502 49.0295 107.756 49.6808C107.01 50.3321 106.531 51.2365 106.413 52.2195L105.124 60.6354L102.977 51.784C102.762 50.8992 102.255 50.1127 101.538 49.5513C100.82 48.9899 99.9353 48.6863 99.0246 48.6894H71.4347C70.3407 48.6892 69.2916 48.2546 68.518 47.481C67.7444 46.7074 67.3098 45.6583 67.3096 44.5643V19.0431C67.3096 17.949 67.7442 16.8998 68.5178 16.1262C69.2914 15.3526 70.3406 14.918 71.4347 14.918H140.273C141.367 14.9182 142.417 15.3528 143.19 16.1264C143.964 16.9 144.398 17.9491 144.399 19.0431V44.6525C144.381 45.7332 143.938 46.7635 143.166 47.5198C142.394 48.2761 141.354 48.6975 140.273 48.6925Z" fill="white"/>
<path d="M104.825 60.7116L102.679 51.8603C102.482 51.0405 102.014 50.3114 101.35 49.792C100.687 49.2725 99.8663 48.9935 99.0234 49.0003H71.435C70.2599 48.9991 69.1333 48.5318 68.3023 47.701C67.4713 46.8701 67.0039 45.7436 67.0024 44.5685V19.0426C67.0039 17.8676 67.4713 16.741 68.3023 15.9102C69.1333 15.0793 70.2599 14.6121 71.435 14.6108H140.273C141.448 14.6125 142.574 15.0799 143.405 15.9107C144.236 16.7415 144.703 17.8678 144.705 19.0426V44.6521C144.691 45.8154 144.217 46.9259 143.387 47.7404C142.556 48.5549 141.436 49.0068 140.273 48.9972H110.452C109.537 48.9831 108.65 49.3077 107.96 49.9086C107.271 50.5095 106.828 51.3442 106.717 52.2521L105.427 60.6863C105.416 60.7565 105.381 60.8207 105.328 60.868C105.275 60.9153 105.207 60.9428 105.136 60.9457C105.065 60.9487 104.996 60.927 104.939 60.8843C104.882 60.8416 104.842 60.7806 104.825 60.7116ZM71.435 15.2242C70.4226 15.2253 69.4518 15.6279 68.7358 16.3437C68.0199 17.0595 67.6171 18.0302 67.6158 19.0426V44.567C67.6171 45.5794 68.0199 46.5501 68.7358 47.2659C69.4518 47.9818 70.4226 48.3843 71.435 48.3854H99.0219C100.002 48.3788 100.956 48.7043 101.728 49.309C102.5 49.9136 103.045 50.7618 103.274 51.7154L105.055 59.057L106.109 52.1693C106.238 51.1138 106.753 50.1434 107.555 49.4449C108.357 48.7463 109.389 48.369 110.452 48.3854H140.273C141.274 48.3956 142.238 48.0085 142.954 47.3089C143.67 46.6093 144.079 45.6544 144.091 44.6536V19.0442C144.089 18.0321 143.686 17.062 142.971 16.3464C142.255 15.6307 141.285 15.2278 140.273 15.2258L71.435 15.2242Z" fill="#4B1010"/>
<path d="M70.8335 9.76127L72.4659 13.1135C72.5391 13.2424 72.6382 13.3547 72.757 13.4434C72.8758 13.532 73.0116 13.5952 73.156 13.6287L76.7658 14.1448C76.8834 14.1425 76.9999 14.167 77.1066 14.2164C77.2134 14.2658 77.3075 14.3387 77.3819 14.4297C77.4563 14.5208 77.5091 14.6275 77.5363 14.7419C77.5634 14.8563 77.5643 14.9754 77.5387 15.0902C77.5443 15.2126 77.5149 15.3341 77.4541 15.4405C77.3933 15.547 77.3035 15.6339 77.1952 15.6913L74.5315 18.2699C74.412 18.3546 74.3225 18.4752 74.276 18.6141C74.2296 18.7531 74.2286 18.9032 74.2731 19.0428L74.875 22.6526C74.9162 22.8192 74.9071 22.9943 74.8487 23.1557C74.7902 23.3171 74.6852 23.4575 74.5469 23.5591C74.4086 23.6607 74.2432 23.7189 74.0717 23.7264C73.9003 23.7339 73.7305 23.6903 73.5838 23.6011L70.3175 21.882C70.19 21.798 70.0407 21.7532 69.8881 21.7532C69.7354 21.7532 69.5861 21.798 69.4587 21.882L66.1923 23.6011C66.0976 23.6668 65.9904 23.7124 65.8773 23.735C65.7643 23.7577 65.6478 23.7569 65.535 23.7328C65.4223 23.7086 65.3157 23.6616 65.2218 23.5947C65.128 23.5277 65.0488 23.4422 64.9893 23.3435C64.9111 23.2484 64.8616 23.133 64.8464 23.0109C64.8312 22.8887 64.851 22.7647 64.9034 22.6534L65.5053 19.0435C65.5292 18.9034 65.5181 18.7595 65.4731 18.6247C65.428 18.4899 65.3503 18.3682 65.2469 18.2706L62.5833 15.6921C62.4966 15.6201 62.4254 15.5313 62.374 15.431C62.3225 15.3308 62.2919 15.2212 62.2839 15.1089C62.2758 14.9965 62.2906 14.8837 62.3273 14.7771C62.364 14.6706 62.4219 14.5726 62.4974 14.489C62.6661 14.3257 62.8723 14.2076 63.0985 14.1455L66.7942 13.6295C67.0519 13.6295 67.3095 13.3719 67.4843 13.1143L69.1167 9.76203C69.1907 9.5962 69.3111 9.45534 69.4633 9.35646C69.6156 9.25758 69.7933 9.20492 69.9749 9.20483C70.1564 9.20475 70.3341 9.25726 70.4865 9.356C70.6389 9.45475 70.7594 9.5955 70.8335 9.76127Z" fill="#FFB43B"/>
<path d="M65.6927 24.052C65.4967 24.0526 65.304 24.0018 65.1339 23.9045C64.9638 23.8072 64.8223 23.6669 64.7235 23.4976C64.6188 23.3666 64.5528 23.2091 64.5327 23.0426C64.5127 22.8761 64.5394 22.7074 64.61 22.5553L65.1996 18.993C65.2134 18.901 65.205 18.8071 65.1751 18.7191C65.1452 18.6311 65.0948 18.5515 65.0279 18.4869L62.3673 15.9114C61.7493 15.298 61.7692 14.2644 62.9991 13.8534L66.7492 13.3252C66.8804 13.3252 67.0559 13.1917 67.2239 12.9418L68.834 9.6256C68.9336 9.40606 69.0947 9.22009 69.2978 9.09022C69.5008 8.96034 69.7372 8.89213 69.9783 8.89383C70.2193 8.89553 70.4547 8.96708 70.6559 9.09982C70.8572 9.23255 71.0156 9.42077 71.112 9.6417L72.7368 12.9771C72.7885 13.0667 72.8585 13.1444 72.9423 13.2052C73.026 13.266 73.1216 13.3084 73.2229 13.3298L76.8013 13.8396C76.9603 13.8427 77.1166 13.8808 77.259 13.9514C77.4015 14.0219 77.5265 14.1231 77.6253 14.2477C77.724 14.3723 77.7939 14.5172 77.83 14.672C77.8661 14.8268 77.8675 14.9877 77.8341 15.1431C77.8339 15.3077 77.7896 15.4692 77.7059 15.6109C77.6221 15.7526 77.502 15.8693 77.358 15.949L74.7403 18.49C74.6656 18.5369 74.6078 18.6065 74.5754 18.6885C74.543 18.7706 74.5376 18.8609 74.5601 18.9462L75.1735 22.6021C75.2242 22.8242 75.2088 23.0564 75.1293 23.2699C75.0498 23.4835 74.9097 23.6691 74.7261 23.8041C74.5425 23.9391 74.3234 24.0175 74.0959 24.0296C73.8683 24.0418 73.6422 23.9872 73.4453 23.8726L70.1735 22.1504C70.0943 22.0937 70 22.0619 69.9027 22.059C69.8053 22.0561 69.7093 22.0824 69.6269 22.1343C66.017 24.0374 66.1075 24.052 65.6927 24.052ZM69.9098 9.49831C69.7957 9.50071 69.6852 9.53822 69.5933 9.60573C69.5013 9.67324 69.4325 9.76746 69.3961 9.87556L67.7544 13.2493C67.6599 13.4322 67.5233 13.5901 67.3559 13.71C67.1885 13.83 66.995 13.9086 66.7914 13.9393L63.1386 14.4523C62.8411 14.5604 62.5528 14.7482 62.5843 15.0657C62.6157 15.3831 62.559 15.2052 65.458 18.056C65.6029 18.1938 65.7098 18.3665 65.7685 18.5577C65.8272 18.7488 65.8357 18.9518 65.7931 19.1471C65.103 23.3228 65.1222 23.0491 65.2035 23.1342C65.2405 23.206 65.2924 23.2692 65.3556 23.3195C65.4188 23.3699 65.492 23.4062 65.5704 23.4262C65.6487 23.4462 65.7303 23.4494 65.81 23.4355C65.8896 23.4217 65.9654 23.3911 66.0323 23.3458L69.3155 21.6076C69.4918 21.4972 69.6962 21.4401 69.9041 21.4429C70.112 21.4458 70.3147 21.5085 70.4879 21.6237C73.9022 23.4186 73.8992 23.4854 74.1744 23.3933C74.3135 23.3496 74.4313 23.2556 74.5049 23.1298C74.5785 23.0039 74.6025 22.8551 74.5724 22.7125L73.9689 19.0934C73.9112 18.8954 73.9178 18.6842 73.988 18.4903C74.0582 18.2964 74.1882 18.1298 74.3592 18.0146L76.98 15.4736C77.2016 15.3202 77.2299 15.239 77.2299 15.0902C77.2503 15.0079 77.2521 14.9222 77.2351 14.8391C77.2181 14.7561 77.1828 14.6779 77.1318 14.6102C76.9884 14.44 77.2414 14.519 73.111 13.9324C72.9245 13.8916 72.7485 13.8129 72.5938 13.7012C72.439 13.5895 72.3089 13.4471 72.2116 13.283L70.5423 9.85869C70.4776 9.74857 70.3851 9.65734 70.2741 9.59411C70.1631 9.53088 70.0375 9.49785 69.9098 9.49831Z" fill="#4B1010"/>
<path d="M88.9674 9.76145L90.5998 13.1137C90.6617 13.2511 90.7575 13.3704 90.8782 13.4606C90.9989 13.5507 91.1406 13.6086 91.2899 13.6289L94.899 14.145C95.0168 14.1422 95.1336 14.1663 95.2406 14.2154C95.3477 14.2646 95.4421 14.3375 95.5167 14.4287C95.5913 14.5199 95.6441 14.6269 95.6711 14.7415C95.6982 14.8562 95.6987 14.9755 95.6726 15.0904C95.6778 15.2127 95.6483 15.3341 95.5875 15.4404C95.5268 15.5468 95.4372 15.6338 95.3291 15.6915L92.6647 18.2701C92.5455 18.355 92.4563 18.4757 92.41 18.6145C92.3637 18.7534 92.3627 18.9034 92.4071 19.0429L93.0089 22.6528C93.0389 22.777 93.0411 22.9063 93.0152 23.0315C92.9894 23.1566 92.9362 23.2745 92.8595 23.3767C92.7828 23.4789 92.6845 23.5629 92.5715 23.6227C92.4586 23.6824 92.3338 23.7165 92.2062 23.7224C92.0352 23.73 91.8657 23.6868 91.7193 23.5982L88.4537 21.8791C88.3262 21.7949 88.1767 21.75 88.0239 21.75C87.8711 21.75 87.7217 21.7949 87.5942 21.8791L84.3248 23.6013C84.23 23.667 84.1228 23.7126 84.0097 23.7352C83.8967 23.7579 83.7802 23.7571 83.6675 23.733C83.5547 23.7088 83.4481 23.6618 83.3542 23.5948C83.2604 23.5279 83.1812 23.4424 83.1217 23.3436C83.0437 23.2485 82.9943 23.1331 82.9791 23.011C82.9639 22.8889 82.9835 22.765 83.0358 22.6536L83.637 19.0437C83.661 18.9036 83.6501 18.7598 83.6052 18.6249C83.5602 18.4901 83.4826 18.3685 83.3793 18.2708L80.721 15.6915C80.5901 15.5833 80.4954 15.4378 80.4495 15.2743C80.4036 15.1108 80.4087 14.9372 80.4642 14.7768C80.501 14.6694 80.5585 14.572 80.6344 14.4885C80.8031 14.3251 81.0101 14.2071 81.2363 14.145L84.932 13.6289C85.1896 13.6289 85.4473 13.3713 85.6221 13.1137L87.2553 9.76145C87.34 9.54877 87.5031 9.37673 87.711 9.28085C87.9189 9.18497 88.1557 9.17256 88.3724 9.24619C88.5094 9.269 88.6374 9.32917 88.7424 9.42008C88.8474 9.511 88.9253 9.62912 88.9674 9.76145Z" fill="#FFB43B"/>
<path d="M83.8291 24.0519C83.6332 24.0525 83.4405 24.0016 83.2704 23.9043C83.1004 23.807 82.9588 23.6668 82.86 23.4976C82.7547 23.3669 82.6882 23.2093 82.668 23.0428C82.6478 22.8762 82.6747 22.7073 82.7457 22.5552L83.3361 18.9929C83.3496 18.9009 83.341 18.807 83.311 18.719C83.281 18.631 83.2305 18.5514 83.1636 18.4869L80.503 15.9114C79.8666 15.2757 79.9202 14.2598 81.1348 13.8534L84.8849 13.3251C85.0168 13.3251 85.1916 13.1917 85.3603 12.9417L86.9705 9.62556C87.0869 9.34116 87.3089 9.11289 87.59 8.98866C87.871 8.86443 88.1893 8.85389 88.4779 8.95925C88.6551 8.99542 88.8197 9.07759 88.9551 9.19751C89.0905 9.31743 89.192 9.47088 89.2493 9.64243L90.874 12.977C90.921 13.0703 90.9897 13.151 91.0743 13.2124C91.1588 13.2737 91.2568 13.314 91.3601 13.3297L94.9386 13.8396C95.0974 13.8429 95.2535 13.8812 95.3958 13.9517C95.5381 14.0222 95.6632 14.1232 95.762 14.2475C95.8611 14.372 95.9313 14.5169 95.9675 14.6718C96.0037 14.8266 96.005 14.9876 95.9714 15.1431C95.9711 15.3077 95.9268 15.4692 95.8431 15.6109C95.7594 15.7526 95.6393 15.8693 95.4952 15.9489L92.8745 18.4922C92.7998 18.5392 92.7421 18.6088 92.7097 18.6909C92.6773 18.7729 92.6719 18.8631 92.6943 18.9485L93.3077 22.6043C93.344 22.7702 93.3439 22.9421 93.3074 23.108C93.2709 23.2738 93.1988 23.4298 93.0962 23.5652C92.9936 23.7005 92.8628 23.812 92.713 23.8919C92.5631 23.9719 92.3977 24.0184 92.2281 24.0282C92.0013 24.041 91.7757 23.9877 91.5787 23.8748L88.3115 22.1504C88.2324 22.0935 88.1381 22.0615 88.0407 22.0587C87.9432 22.0558 87.8472 22.0821 87.7649 22.1343C84.0285 24.1018 84.2217 24.0519 83.8291 24.0519ZM87.5325 9.87552L85.8909 13.2492C85.7963 13.4321 85.6597 13.59 85.4923 13.71C85.3249 13.8299 85.1315 13.9085 84.9279 13.9393L81.2743 14.4522C80.6095 14.6938 80.5934 15.1385 80.9331 15.4782L83.5937 18.0529C83.7384 18.1909 83.8452 18.3636 83.904 18.5546C83.9628 18.7457 83.9716 18.9486 83.9296 19.144C83.2395 23.3197 83.2587 23.046 83.3399 23.1311C83.3764 23.2033 83.4281 23.2669 83.4913 23.3174C83.5546 23.368 83.6279 23.4043 83.7065 23.424C83.7847 23.444 83.8664 23.4472 83.946 23.4331C84.0256 23.4191 84.1013 23.3883 84.168 23.3427L87.4489 21.6075C87.6252 21.4972 87.8296 21.44 88.0375 21.4429C88.2454 21.4457 88.4481 21.5085 88.6213 21.6236L91.8601 23.3266C91.9216 23.368 91.991 23.3962 92.064 23.4096C92.1369 23.423 92.2119 23.4213 92.2841 23.4046C92.3564 23.3878 92.4244 23.3564 92.484 23.3122C92.5436 23.2681 92.5935 23.2122 92.6306 23.1479C92.784 22.8665 92.7518 22.99 92.1023 19.0934C92.0445 18.8954 92.0511 18.6842 92.1212 18.4902C92.1914 18.2963 92.3215 18.1297 92.4926 18.0146L95.1134 15.4736C95.335 15.3202 95.3633 15.2389 95.3633 15.0902C95.3832 15.0079 95.3847 14.9222 95.3677 14.8393C95.3507 14.7563 95.3157 14.6781 95.2652 14.6102C95.121 14.44 95.3748 14.5189 91.2436 13.9324C91.0388 13.9026 90.8452 13.8205 90.6814 13.694C90.5177 13.5674 90.3894 13.4008 90.3089 13.2101L88.6911 9.89545C88.6692 9.80251 88.6188 9.71869 88.5471 9.65562C88.4754 9.59256 88.3858 9.55338 88.2908 9.54352C88.1459 9.49062 87.9862 9.4957 87.8449 9.55769C87.7036 9.61969 87.5917 9.73382 87.5325 9.87628V9.87552Z" fill="#4B1010"/>
<path d="M107.53 9.76131L109.162 13.1135C109.224 13.2509 109.32 13.3703 109.441 13.4604C109.561 13.5506 109.703 13.6085 109.852 13.6288L113.548 14.1448C113.666 14.1431 113.782 14.168 113.888 14.2175C113.994 14.2671 114.088 14.3401 114.162 14.431C114.237 14.5219 114.289 14.6284 114.317 14.7426C114.344 14.8568 114.345 14.9756 114.32 15.0902C114.324 15.2126 114.295 15.334 114.234 15.4403C114.173 15.5466 114.083 15.6336 113.975 15.6913L111.314 18.2699C111.211 18.3676 111.133 18.4892 111.088 18.624C111.043 18.7588 111.032 18.9027 111.055 19.0428L111.657 22.6527C111.697 22.8187 111.687 22.9929 111.629 23.1533C111.57 23.3137 111.465 23.4532 111.328 23.5542C111.19 23.6553 111.025 23.7133 110.855 23.7211C110.684 23.7289 110.515 23.6861 110.368 23.5981L107.102 21.879C106.975 21.795 106.825 21.7501 106.673 21.7501C106.52 21.7501 106.371 21.795 106.243 21.879L102.977 23.5981C102.882 23.6638 102.775 23.7094 102.662 23.732C102.549 23.7547 102.432 23.7539 102.32 23.7297C102.207 23.7056 102.1 23.6586 102.007 23.5916C101.913 23.5247 101.834 23.4392 101.774 23.3404C101.696 23.2452 101.647 23.1299 101.631 23.0078C101.616 22.8857 101.636 22.7618 101.688 22.6504L102.29 19.0405C102.335 18.9009 102.334 18.7507 102.287 18.6117C102.241 18.4727 102.151 18.3522 102.032 18.2676L99.3679 15.689C99.2368 15.5811 99.142 15.4355 99.0962 15.2719C99.0504 15.1083 99.0559 14.9347 99.1118 14.7743C99.1486 14.667 99.2062 14.5696 99.2821 14.486C99.45 14.3227 99.657 14.2046 99.8832 14.1425L103.493 13.6265C103.751 13.6265 104.008 13.3689 104.183 13.1112L105.816 9.75901C105.9 9.54633 106.063 9.37429 106.271 9.27841C106.479 9.18253 106.716 9.17012 106.933 9.24375C107.071 9.26585 107.2 9.32601 107.305 9.41745C107.411 9.50889 107.488 9.62798 107.53 9.76131Z" fill="#FFB43B"/>
<path d="M102.478 24.052C102.282 24.0526 102.089 24.0017 101.919 23.9044C101.749 23.8071 101.608 23.6669 101.509 23.4977C101.404 23.3669 101.337 23.2093 101.317 23.0428C101.297 22.8762 101.324 22.7073 101.395 22.5553L101.985 18.993C102.016 18.9117 102.021 18.8227 101.998 18.7385C101.976 18.6544 101.928 18.5795 101.86 18.5245L99.1526 15.9115C98.5162 15.2758 98.5691 14.2599 99.7844 13.8535L103.447 13.3252C103.58 13.3252 103.754 13.1918 103.923 12.9418L105.533 9.62566C105.652 9.34317 105.874 9.11674 106.154 8.99284C106.434 8.86894 106.751 8.85696 107.04 8.95936C107.217 8.99552 107.382 9.07769 107.517 9.19761C107.653 9.31753 107.754 9.47098 107.812 9.64253L109.436 12.9771C109.483 13.0704 109.552 13.1511 109.636 13.2125C109.721 13.2739 109.819 13.3141 109.922 13.3298L113.586 13.8389C113.825 13.8437 114.057 13.9282 114.243 14.079C114.429 14.2298 114.56 14.4383 114.614 14.6716C114.65 14.8265 114.652 14.9868 114.619 15.1424C114.619 15.307 114.575 15.4685 114.491 15.6102C114.407 15.7519 114.287 15.8686 114.143 15.9483L111.523 18.4916C111.461 18.55 111.413 18.621 111.382 18.6998C111.351 18.7786 111.337 18.8632 111.342 18.9478L111.956 22.6037C112.005 22.8256 111.989 23.0572 111.909 23.2701C111.83 23.4831 111.69 23.6682 111.506 23.8029C111.323 23.9376 111.105 24.0161 110.878 24.0287C110.65 24.0414 110.425 23.9877 110.228 23.8742L106.956 22.152C106.877 22.095 106.782 22.063 106.685 22.0601C106.587 22.0573 106.491 22.0837 106.409 22.1359C102.803 24.0375 102.89 24.052 102.478 24.052ZM106.096 9.87639L104.454 13.2501C104.359 13.433 104.223 13.5909 104.055 13.7109C103.888 13.8308 103.694 13.9094 103.491 13.9402L99.9247 14.4523C99.2623 14.6931 99.2393 15.1363 99.5828 15.479L102.243 18.0538C102.407 18.1771 102.528 18.349 102.588 18.545C102.648 18.7409 102.645 18.9509 102.578 19.1448C101.888 23.3206 101.908 23.0468 101.989 23.1319C102.045 23.2401 102.134 23.3277 102.243 23.382C102.352 23.4363 102.475 23.4545 102.595 23.434C102.675 23.42 102.751 23.3892 102.818 23.3436L106.1 21.6076C106.276 21.4973 106.481 21.4401 106.689 21.443C106.897 21.4458 107.099 21.5086 107.272 21.6237C110.717 23.4348 110.688 23.4839 110.959 23.3934C111.099 23.3509 111.217 23.2573 111.291 23.1312C111.365 23.0052 111.388 22.8559 111.357 22.7133L110.754 19.0935C110.72 18.9052 110.734 18.7115 110.794 18.5298C110.854 18.3482 110.958 18.1843 111.097 18.053L113.762 15.4737C113.984 15.3203 114.012 15.239 114.012 15.0903C114.075 14.6663 113.847 14.4508 113.546 14.4508L109.808 13.9325C109.603 13.9034 109.409 13.8215 109.245 13.6949C109.081 13.5683 108.952 13.4013 108.872 13.2102L107.239 9.85875C107.19 9.71154 107.108 9.60726 106.855 9.54362C106.71 9.48827 106.55 9.49215 106.408 9.55442C106.266 9.61668 106.154 9.73234 106.096 9.87639Z" fill="#4B1010"/>
<path d="M125.75 9.76141L127.382 13.1136C127.444 13.251 127.54 13.3703 127.661 13.4604C127.782 13.5506 127.923 13.6085 128.073 13.6289L131.768 14.1449C131.886 14.1428 132.002 14.1673 132.109 14.2165C132.216 14.2658 132.31 14.3386 132.385 14.4294C132.459 14.5204 132.512 14.6272 132.539 14.7417C132.567 14.8563 132.567 14.9755 132.541 15.0903C132.546 15.2127 132.517 15.3341 132.456 15.4404C132.395 15.5468 132.306 15.6338 132.198 15.6915L129.533 18.27C129.431 18.3681 129.353 18.4898 129.309 18.6245C129.264 18.7592 129.252 18.9028 129.276 19.0429L129.877 22.6528C129.917 22.8188 129.907 22.993 129.849 23.1534C129.79 23.3138 129.685 23.4533 129.548 23.5543C129.41 23.6554 129.245 23.7134 129.075 23.7212C128.904 23.729 128.735 23.6862 128.589 23.5982L125.322 21.8791C125.195 21.7949 125.045 21.75 124.892 21.75C124.74 21.75 124.59 21.7949 124.463 21.8791L121.195 23.6012C121.1 23.6669 120.993 23.7125 120.88 23.7352C120.767 23.7578 120.65 23.7571 120.537 23.7329C120.425 23.7088 120.318 23.6618 120.224 23.5948C120.13 23.5278 120.051 23.4424 119.992 23.3436C119.914 23.2484 119.864 23.1331 119.849 23.011C119.834 22.8889 119.854 22.7649 119.906 22.6535L120.508 19.0437C120.553 18.9041 120.552 18.7539 120.505 18.6149C120.459 18.4759 120.369 18.3553 120.249 18.2708L117.586 15.6922C117.455 15.5842 117.36 15.4387 117.314 15.2751C117.268 15.1115 117.274 14.9378 117.33 14.7775C117.366 14.6701 117.424 14.5728 117.5 14.4892C117.668 14.3259 117.875 14.2078 118.101 14.1457L121.711 13.6297C121.991 13.5392 122.234 13.3575 122.401 13.1144L124.034 9.76218C124.119 9.5495 124.282 9.37746 124.49 9.28158C124.698 9.1857 124.934 9.1733 125.151 9.24693C125.289 9.26918 125.417 9.329 125.523 9.41979C125.629 9.51058 125.707 9.62881 125.75 9.76141Z" fill="#FFB43B"/>
<path d="M120.697 24.0519C120.501 24.0524 120.309 24.0015 120.139 23.9042C119.969 23.807 119.827 23.6667 119.728 23.4975C119.623 23.3668 119.556 23.2093 119.536 23.0427C119.516 22.8761 119.543 22.7072 119.614 22.5552L120.204 18.9929C120.235 18.9115 120.24 18.8224 120.217 18.7383C120.195 18.6542 120.146 18.5793 120.079 18.5244L117.371 15.9113C116.753 15.2979 116.773 14.2643 118.003 13.8533L121.665 13.3266C121.859 13.2499 122.025 13.1165 122.141 12.9432L123.751 9.62702C123.868 9.34262 124.09 9.11436 124.371 8.99013C124.652 8.86589 124.97 8.85535 125.259 8.96072C125.436 8.99688 125.601 9.07906 125.736 9.19898C125.871 9.3189 125.973 9.47234 126.03 9.64389L127.655 12.9785C127.702 13.0718 127.771 13.1524 127.855 13.2138C127.94 13.2751 128.038 13.3154 128.141 13.3312L131.804 13.8403C131.963 13.8438 132.119 13.8823 132.262 13.9529C132.404 14.0235 132.529 14.1246 132.628 14.249C132.727 14.3732 132.797 14.518 132.834 14.6727C132.87 14.8275 132.872 14.9884 132.838 15.1438C132.839 15.3086 132.795 15.4706 132.711 15.6126C132.627 15.7546 132.507 15.8713 132.362 15.9504L129.741 18.4937C129.68 18.5521 129.632 18.6231 129.601 18.7019C129.57 18.7807 129.556 18.8654 129.561 18.9499L130.174 22.6058C130.213 22.7719 130.214 22.9444 130.178 23.111C130.143 23.2777 130.071 23.4346 129.968 23.5707C129.866 23.7067 129.735 23.8187 129.584 23.8986C129.433 23.9786 129.267 24.0246 129.097 24.0335C128.869 24.0456 128.643 23.991 128.446 23.8763L125.174 22.1542C125.095 22.0972 125.001 22.0653 124.903 22.0624C124.806 22.0596 124.71 22.0859 124.628 22.1381C120.898 24.1017 121.09 24.0519 120.697 24.0519ZM124.315 9.87622L122.673 13.2499C122.47 13.5663 122.164 13.8036 121.807 13.9224L118.144 14.4499C117.846 14.5588 117.557 14.7458 117.589 15.0633C117.62 15.3807 117.581 15.2649 120.463 18.0536C120.626 18.177 120.747 18.3489 120.807 18.5448C120.867 18.7408 120.864 18.9507 120.798 19.1447C120.108 23.3204 120.127 23.0467 120.208 23.1318C120.245 23.204 120.296 23.2676 120.36 23.3181C120.423 23.3687 120.496 23.405 120.575 23.4247C120.653 23.4447 120.735 23.4479 120.814 23.4338C120.894 23.4198 120.97 23.389 121.036 23.3434L124.317 21.6075C124.493 21.4971 124.698 21.4399 124.906 21.4428C125.114 21.4457 125.316 21.5084 125.49 21.6236C128.904 23.4185 128.901 23.4852 129.176 23.3932C129.315 23.3494 129.433 23.2554 129.506 23.1295C129.58 23.0037 129.604 22.855 129.574 22.7124L128.971 19.0933C128.937 18.905 128.951 18.7113 129.011 18.5297C129.071 18.348 129.175 18.1842 129.314 18.0528L131.982 15.4735C132.203 15.3201 132.232 15.2389 132.232 15.0901C132.252 15.0079 132.254 14.922 132.237 14.839C132.22 14.7559 132.185 14.6777 132.133 14.6101C131.986 14.4361 132.168 14.5066 128.027 13.9323C127.822 13.9032 127.628 13.8213 127.464 13.6947C127.3 13.5681 127.172 13.4011 127.091 13.21L125.473 9.89539C125.451 9.80244 125.401 9.71862 125.329 9.65555C125.258 9.59249 125.168 9.55331 125.073 9.54345C124.928 9.49035 124.768 9.49534 124.627 9.55735C124.486 9.61937 124.374 9.73362 124.315 9.87622Z" fill="#4B1010"/>
<path d="M143.539 9.76131L145.172 13.1135C145.234 13.2507 145.33 13.3698 145.451 13.4599C145.571 13.55 145.713 13.6081 145.862 13.6288L149.558 14.1448C149.676 14.142 149.792 14.1661 149.899 14.2153C150.006 14.2645 150.101 14.3374 150.176 14.4286C150.25 14.5197 150.303 14.6267 150.33 14.7414C150.357 14.856 150.357 14.9753 150.331 15.0902C150.337 15.2126 150.307 15.334 150.246 15.4403C150.186 15.5467 150.096 15.6337 149.988 15.6913L147.323 18.2699C147.221 18.368 147.144 18.4897 147.099 18.6244C147.054 18.7591 147.043 18.9027 147.066 19.0428L147.667 22.6527C147.707 22.8188 147.698 22.9932 147.639 23.1538C147.581 23.3145 147.476 23.4544 147.339 23.5559C147.201 23.6572 147.036 23.7153 146.865 23.7228C146.694 23.7303 146.524 23.6869 146.378 23.5981L143.113 21.879C142.985 21.7948 142.836 21.7499 142.683 21.7499C142.53 21.7499 142.38 21.7948 142.253 21.879L138.984 23.6011C138.89 23.6668 138.782 23.7124 138.669 23.7351C138.556 23.7577 138.44 23.757 138.327 23.7328C138.214 23.7087 138.108 23.6617 138.014 23.5947C137.92 23.5277 137.841 23.4422 137.781 23.3435C137.703 23.2485 137.653 23.1332 137.638 23.011C137.623 22.8889 137.642 22.7649 137.695 22.6534L138.297 19.0436C138.341 18.904 138.339 18.7542 138.293 18.6153C138.247 18.4765 138.158 18.3559 138.039 18.2707L135.374 15.6921C135.288 15.6202 135.216 15.5315 135.165 15.4313C135.113 15.331 135.082 15.2214 135.074 15.109C135.066 14.9965 135.081 14.8836 135.118 14.7771C135.155 14.6705 135.213 14.5726 135.289 14.4891C135.457 14.325 135.664 14.2069 135.89 14.1456L139.5 13.6296C139.757 13.6296 140.016 13.3719 140.19 13.1143L141.822 9.76208C141.907 9.54958 142.071 9.37777 142.278 9.28194C142.486 9.18611 142.723 9.17355 142.94 9.24682C143.078 9.26883 143.206 9.32856 143.312 9.41939C143.418 9.51021 143.496 9.62857 143.539 9.76131Z" fill="#FFB43B"/>
<path d="M138.488 24.052C138.292 24.0527 138.099 24.0018 137.929 23.9045C137.759 23.8072 137.617 23.6669 137.518 23.4977C137.414 23.3666 137.348 23.2091 137.328 23.0427C137.307 22.8763 137.334 22.7076 137.404 22.5553L137.995 18.993C138.026 18.9117 138.03 18.8225 138.008 18.7384C137.985 18.6542 137.937 18.5793 137.869 18.5245L135.16 15.9115C134.543 15.2942 134.562 14.2645 135.792 13.8535L139.454 13.3268C139.586 13.3268 139.76 13.1933 139.929 12.9434L141.539 9.62719C141.655 9.34273 141.877 9.11435 142.158 8.99009C142.439 8.86582 142.757 8.85536 143.046 8.96089C143.223 8.99708 143.388 9.07925 143.523 9.19916C143.659 9.31906 143.761 9.47249 143.818 9.64406L145.442 12.9787C145.489 13.072 145.558 13.1527 145.643 13.214C145.727 13.2754 145.826 13.3156 145.929 13.3314L149.592 13.8405C149.75 13.8439 149.907 13.8823 150.049 13.953C150.191 14.0237 150.316 14.1249 150.415 14.2493C150.513 14.3738 150.583 14.5185 150.62 14.6731C150.656 14.8278 150.658 14.9885 150.625 15.144C150.626 15.3088 150.582 15.4708 150.498 15.6128C150.414 15.7547 150.294 15.8715 150.149 15.9506L147.528 18.4939C147.467 18.5523 147.419 18.6233 147.388 18.7021C147.357 18.7809 147.343 18.8655 147.348 18.9501L147.962 22.606C148.011 22.8281 147.996 23.06 147.916 23.2734C147.836 23.4867 147.696 23.6723 147.513 23.8074C147.329 23.9424 147.111 24.0209 146.883 24.0331C146.656 24.0454 146.429 23.9909 146.233 23.8765L142.962 22.1543C142.882 22.0975 142.788 22.0656 142.691 22.0627C142.593 22.0599 142.497 22.0862 142.415 22.1382C138.687 24.1011 138.879 24.052 138.488 24.052ZM142.105 9.87639L140.464 13.2501C140.369 13.4331 140.232 13.5911 140.065 13.7111C139.897 13.8311 139.703 13.9096 139.5 13.9402L135.934 14.4523C135.635 14.5612 135.348 14.7483 135.379 15.0657C135.411 15.3832 135.372 15.2674 138.252 18.0561C138.416 18.1793 138.537 18.3512 138.597 18.5471C138.657 18.7431 138.654 18.9531 138.588 19.1471C137.898 23.3229 137.916 23.0491 137.998 23.1342C138.035 23.2061 138.087 23.2693 138.15 23.3198C138.213 23.3702 138.286 23.4068 138.364 23.4271C138.443 23.4471 138.524 23.4501 138.604 23.4361C138.684 23.4221 138.76 23.3913 138.827 23.3459L142.107 21.6076C142.284 21.4973 142.488 21.4401 142.696 21.443C142.904 21.4458 143.107 21.5086 143.28 21.6237C146.669 23.4057 146.686 23.4854 146.966 23.3934C147.105 23.35 147.223 23.2561 147.296 23.1301C147.37 23.0041 147.394 22.8552 147.363 22.7125L146.76 19.0935C146.727 18.9052 146.74 18.7115 146.8 18.5298C146.86 18.3482 146.964 18.1843 147.104 18.053L149.771 15.4737C149.993 15.3203 150.022 15.239 150.022 15.0903C150.042 15.008 150.043 14.9223 150.026 14.8394C150.009 14.7564 149.974 14.6782 149.924 14.6103C149.776 14.4362 149.958 14.5068 145.817 13.9325C145.612 13.9033 145.418 13.8214 145.254 13.6949C145.089 13.5683 144.961 13.4013 144.881 13.2102L143.264 9.89556C143.242 9.80261 143.191 9.71879 143.12 9.65572C143.048 9.59266 142.958 9.55348 142.863 9.54362C142.719 9.49052 142.559 9.49551 142.417 9.55752C142.276 9.61954 142.164 9.73379 142.105 9.87639Z" fill="#4B1010"/>
<path d="M135.289 32.7565H78.1382C78.0569 32.7565 77.9789 32.7242 77.9214 32.6666C77.8639 32.6091 77.8315 32.5311 77.8315 32.4498C77.8315 32.3684 77.8639 32.2904 77.9214 32.2329C77.9789 32.1754 78.0569 32.1431 78.1382 32.1431H135.289C135.329 32.1431 135.369 32.151 135.406 32.1664C135.443 32.1818 135.477 32.2044 135.506 32.2329C135.534 32.2614 135.557 32.2952 135.572 32.3324C135.587 32.3696 135.595 32.4095 135.595 32.4498C135.595 32.49 135.587 32.5299 135.572 32.5671C135.557 32.6043 135.534 32.6382 135.506 32.6666C135.477 32.6951 135.443 32.7177 135.406 32.7331C135.369 32.7485 135.329 32.7565 135.289 32.7565Z" fill="#4B1010"/>
<path d="M117.327 38.8597H79.4273C79.346 38.8597 79.268 38.8274 79.2104 38.7699C79.1529 38.7124 79.1206 38.6344 79.1206 38.553C79.1206 38.4717 79.1529 38.3937 79.2104 38.3362C79.268 38.2787 79.346 38.2463 79.4273 38.2463H117.327C117.408 38.2463 117.486 38.2787 117.544 38.3362C117.601 38.3937 117.634 38.4717 117.634 38.553C117.634 38.6344 117.601 38.7124 117.544 38.7699C117.486 38.8274 117.408 38.8597 117.327 38.8597Z" fill="#4B1010"/>
<path d="M64.3879 112.117H6.89404V136.438H64.3879V112.117Z" fill="white"/>
<path d="M64.6958 112.084C64.6827 111.957 64.7379 112.051 53.6316 97.9198C53.4859 97.7335 53.6316 97.8025 16.6083 97.8025C16.5587 97.8025 16.5099 97.8145 16.466 97.8374C16.422 97.8604 16.3843 97.8937 16.3561 97.9344L6.64212 111.942C6.63215 111.957 6.62372 111.967 6.61758 112.084C6.58538 112.676 6.59458 116.002 6.58691 136.437C6.58691 136.519 6.61923 136.597 6.67674 136.654C6.73426 136.712 6.81227 136.744 6.89361 136.744H64.3891C64.4704 136.744 64.5484 136.712 64.6059 136.654C64.6634 136.597 64.6958 136.519 64.6958 136.437V112.084ZM7.20031 136.132V112.424H64.0824V136.132H7.20031Z" fill="#4B1010"/>
<path d="M35.7705 92.7797C52.9526 92.7797 66.8813 87.1625 66.8813 80.2326C66.8813 73.3027 52.9526 67.6855 35.7705 67.6855C18.5884 67.6855 4.65967 73.3027 4.65967 80.2326C4.65967 87.1625 18.5884 92.7797 35.7705 92.7797Z" fill="#FFE55D"/>
<path d="M35.7701 93.0871C18.4462 93.0871 4.35254 87.318 4.35254 80.2325C4.35254 73.147 18.4462 67.3826 35.7701 67.3826C53.094 67.3826 67.1869 73.1485 67.1869 80.2363C67.1869 87.3242 53.0932 93.0871 35.7701 93.0871ZM35.7701 67.9921C18.7843 67.996 4.96594 73.4836 4.96594 80.2325C4.96594 86.9814 18.7843 92.4737 35.7701 92.4737C52.7559 92.4737 66.5735 86.9822 66.5735 80.2325C66.5735 73.4828 52.7551 67.996 35.7701 67.996V67.9921Z" fill="#4B1010"/>
<path d="M45.6801 34.7351C45.6517 34.6675 45.6 34.6123 45.5344 34.5795C45.4688 34.5467 45.3936 34.5385 45.3225 34.5564C45.2513 34.5743 45.189 34.6171 45.1467 34.677C45.1044 34.737 45.085 34.8101 45.092 34.8831C45.7943 42.9432 41.3863 45.3439 33.4543 47.5383C28.7587 48.8686 23.7472 49.7166 19.9227 53.2805C15.9816 56.9524 16.8036 62.5167 21.2553 65.366C21.3175 65.407 21.3924 65.4241 21.4662 65.4139C21.54 65.4037 21.6076 65.3671 21.6563 65.3107C21.7051 65.2544 21.7316 65.1822 21.7311 65.1077C21.7305 65.0333 21.7028 64.9615 21.6533 64.9059C19.6635 62.5842 19.4657 58.4223 21.9661 56.4847C24.3698 54.3815 27.469 54.9773 35.8588 52.5084C38.8608 51.6135 41.5774 49.9508 43.7402 47.6847C45.2126 45.9078 46.1715 43.7623 46.5134 41.4801C46.8553 39.1978 46.5671 36.8655 45.6801 34.7351Z" fill="#FFE55D"/>
<path d="M75.2816 52.407C72.9814 54.2671 73.0788 57.8731 70.9602 59.905C68.5496 62.2183 63.8111 61.6187 60.7571 61.2982C52.2178 60.4049 50.1967 64.1705 50.5931 66.4492C50.6045 66.5144 50.6366 66.5741 50.6847 66.6195C50.7328 66.6649 50.7943 66.6935 50.86 66.7011C50.9257 66.7087 50.9921 66.6948 51.0493 66.6616C51.1065 66.6284 51.1514 66.5775 51.1773 66.5167C51.6769 65.3481 52.5749 64.3947 53.7115 63.8262C59.3915 60.5821 68.9414 68.4696 74.0403 64.0516C77.7475 60.8872 73.3264 56.1311 75.7225 52.8256C75.7661 52.7654 75.7863 52.6915 75.7795 52.6175C75.7726 52.5435 75.7391 52.4746 75.6853 52.4234C75.6314 52.3722 75.5608 52.3424 75.4865 52.3394C75.4123 52.3363 75.3395 52.3604 75.2816 52.407Z" fill="#FFE55D"/>
<path d="M56.0521 81.6077C46.9838 79.3964 45.448 77.4673 36.5429 74.8181C30.6336 73.254 23.4745 73.3751 17.8082 76.4513C14.0266 78.5982 10.761 82.9825 10.9328 87.4519C11.1045 92.1781 16.6067 94.6708 20.4726 96.0456C23.5399 97.1666 26.7046 98.0008 29.9259 98.5375C43.2972 100.326 57.2912 94.2031 65.7384 83.7209C63.3508 82.1329 61.0222 82.9158 56.0521 81.6077Z" fill="#FFB43B"/>
<path d="M11.2436 88.2379C10.7912 86.865 10.7912 85.383 11.2436 84.0101C12.293 80.6985 14.5542 77.9052 17.5747 76.1892C20.6026 74.5421 23.9812 73.6445 27.4274 73.5716C30.5228 73.4105 33.625 73.7326 36.6215 74.5269C39.7639 75.4657 42.8487 76.5876 45.86 77.8868C50.6754 80.014 55.7662 81.4527 60.9826 82.1607C62.7899 82.3409 64.2467 82.2573 65.8569 83.4204C65.9156 83.4706 65.9532 83.541 65.9624 83.6177C65.9716 83.6943 65.9516 83.7716 65.9064 83.8342C65.8612 83.8968 65.7941 83.9401 65.7184 83.9555C65.6428 83.9709 65.5641 83.9572 65.498 83.9173C64.0312 82.8584 62.6511 82.9443 60.9198 82.771C55.6408 82.0573 50.4888 80.6025 45.6162 78.4496C42.6304 77.1591 39.5718 76.0441 36.4559 75.1104C33.521 74.3335 30.4829 74.0189 27.4512 74.1781C24.0992 74.247 20.8126 75.1183 17.8668 76.7191C14.9832 78.3594 12.8253 81.028 11.8248 84.191C11.4126 85.4412 11.4126 86.7907 11.8248 88.0409C11.8509 88.1179 11.8454 88.2022 11.8095 88.2752C11.7735 88.3482 11.7101 88.404 11.6331 88.4304C11.5949 88.4434 11.5545 88.4487 11.5142 88.4461C11.474 88.4434 11.4346 88.4329 11.3984 88.415C11.3622 88.3971 11.3299 88.3723 11.3034 88.3419C11.2768 88.3115 11.2565 88.2762 11.2436 88.2379Z" fill="#4B1010"/>
<path d="M17.1981 90.526C14.5144 85.8289 17.8713 78.9872 24.7712 77.0159C28.5283 75.9424 32.8313 76.2821 37.9333 78.0525C45.0157 80.5061 51.2356 84.4572 61.8888 84.2233C62.9339 84.0761 63.9974 84.3046 64.8899 84.8682C64.9416 84.8997 64.983 84.9456 65.0089 85.0004C65.0348 85.0552 65.0441 85.1164 65.0355 85.1764C65.0267 85.2366 65.0001 85.2927 64.9591 85.3377C64.9181 85.3826 64.8646 85.4143 64.8055 85.4286C64.7665 85.4385 64.726 85.4405 64.6863 85.4346C64.6465 85.4286 64.6084 85.4149 64.574 85.3941C63.7945 84.9001 62.8644 84.7005 61.9509 84.8314C57.9508 84.9302 53.9596 84.4059 50.1207 83.2772C41.7938 80.9002 33.6356 75.1212 24.9399 77.6032C21.1468 78.6866 17.1712 82.0987 16.9113 86.522C16.7687 87.8112 17.0569 89.1112 17.731 90.2193C17.7716 90.29 17.7826 90.3739 17.7614 90.4526C17.7401 90.5313 17.6885 90.5984 17.6179 90.6391C17.5472 90.6798 17.4633 90.6907 17.3845 90.6695C17.3058 90.6483 17.2387 90.5967 17.1981 90.526Z" fill="#4B1010"/>
<path d="M24.7482 92.246C24.2921 91.89 23.9162 91.4419 23.6448 90.9309C23.3735 90.4199 23.2128 89.8575 23.1733 89.2802C23.0315 88.1924 23.1262 87.0867 23.4509 86.0388C23.7757 84.9909 24.3228 84.0254 25.0549 83.2084C30.0833 77.884 37.0162 80.6543 43.8334 83.203C49.3156 85.254 53.2314 86.7208 59.0219 86.03C60.4184 85.7002 61.8568 85.5838 63.2881 85.685C63.3488 85.6885 63.4071 85.7101 63.4555 85.747C63.5038 85.7838 63.5401 85.8343 63.5595 85.892C63.5796 85.9493 63.5821 86.0113 63.5667 86.0701C63.5512 86.1289 63.5186 86.1816 63.4729 86.2217C63.4428 86.2486 63.4076 86.2692 63.3694 86.2824C63.3312 86.2955 63.2908 86.301 63.2505 86.2984C61.8687 86.2012 60.4802 86.3142 59.1323 86.6334C50.7939 87.6302 45.7403 84.14 38.0007 81.8175C35.6782 80.9618 33.1923 80.642 30.7289 80.882C28.7233 81.1645 26.8776 82.1331 25.5058 83.6232C24.8275 84.3738 24.3217 85.2639 24.0241 86.2309C23.7264 87.1978 23.6441 88.2183 23.7829 89.2204C23.816 89.7156 23.9532 90.1983 24.1856 90.6368C24.4181 91.0753 24.7404 91.4599 25.1316 91.7653C25.1944 91.8164 25.2344 91.8903 25.243 91.9708C25.2517 92.0513 25.2282 92.132 25.1777 92.1953C25.1272 92.2586 25.0538 92.2994 24.9734 92.3089C24.893 92.3184 24.8121 92.2958 24.7482 92.246Z" fill="#4B1010"/>
<path d="M35.3295 93.0685C34.52 92.7773 33.7479 92.3912 33.0293 91.9183C32.6624 91.6471 32.3541 91.3046 32.1228 90.9113C31.8916 90.518 31.7422 90.0821 31.6836 89.6296C31.6812 89.042 31.8266 88.4632 32.1065 87.9465C32.3864 87.4298 32.7918 86.9919 33.2854 86.673C35.1646 85.4034 37.4683 84.9249 39.6977 85.3412C41.8333 85.7569 43.9409 86.3056 46.008 86.9843C50.9368 88.4887 56.2067 88.458 61.1176 86.8961C61.1949 86.8736 61.2779 86.8822 61.3489 86.9202C61.4198 86.9582 61.4731 87.0225 61.4971 87.0993C61.5213 87.1763 61.514 87.2597 61.477 87.3313C61.4399 87.403 61.3761 87.4571 61.2993 87.4819C56.2679 89.0809 50.869 89.1109 45.8202 87.5678C43.7751 86.8968 41.6901 86.3541 39.5773 85.9431C37.5051 85.5579 35.3647 86.0048 33.6197 87.1867C33.2154 87.4459 32.8825 87.8021 32.6512 88.2229C32.4199 88.6437 32.2976 89.1157 32.2955 89.5959C32.3464 89.9552 32.468 90.3008 32.6535 90.6128C32.8389 90.9247 33.0845 91.1967 33.3758 91.4131C34.0472 91.8533 34.7677 92.2135 35.5227 92.4865C35.5981 92.5135 35.6598 92.5688 35.6948 92.6408C35.7298 92.7127 35.7352 92.7955 35.7098 92.8714C35.6843 92.9471 35.6304 93.01 35.5595 93.0468C35.4885 93.0835 35.4061 93.0913 35.3295 93.0685Z" fill="#4B1010"/>
<path d="M42.3543 92.019C42.2881 91.9448 42.2518 91.8486 42.2524 91.7491C42.099 90.8612 42.875 89.8951 44.6216 89.8951C47.1541 89.8214 49.6862 90.0547 52.1626 90.5898C52.2201 90.6043 52.2723 90.6351 52.3127 90.6785C52.3531 90.722 52.3801 90.7762 52.3904 90.8346C52.4007 90.8931 52.3939 90.9533 52.3707 91.0079C52.3476 91.0626 52.3091 91.1094 52.26 91.1426C52.1938 91.1871 52.1129 91.2039 52.0345 91.1894C49.6036 90.665 47.1182 90.4364 44.6323 90.5085C43.7889 90.5085 42.753 90.8221 42.8558 91.6586C42.9 91.7108 42.9303 91.7733 42.944 91.8404C42.9675 91.8977 43.0027 91.9495 43.0473 91.9925C43.0919 92.0356 43.145 92.0689 43.2031 92.0903C43.2613 92.1114 43.3232 92.1206 43.385 92.1171C43.4468 92.1137 43.5072 92.0978 43.5627 92.0704C43.6383 92.0405 43.7226 92.0416 43.7974 92.0734C43.8344 92.0892 43.868 92.1122 43.8962 92.141C43.9244 92.1698 43.9465 92.2039 43.9614 92.2414C44.1861 92.7996 42.7385 93.0549 42.3543 92.019Z" fill="#4B1010"/>
<path d="M48.1451 74.1299C45.8878 71.4969 37.7595 72.3457 35.5114 75.2471C34.7224 76.2661 35.5973 77.223 36.6286 77.739C37.4885 78.1437 38.4285 78.3494 39.3789 78.3409C42.076 78.4213 44.7369 77.7038 47.028 76.2783C47.9895 75.6634 48.6581 75.1574 48.1451 74.1299Z" fill="white"/>
<path d="M48.1456 74.13C47.5961 73.5288 46.8767 73.109 46.083 72.9262C41.4059 71.7845 36.8537 73.5151 35.5119 75.2472C35.4025 75.3769 35.3205 75.5273 35.2708 75.6895C35.2212 75.8518 35.2048 76.0223 35.2228 76.191C35.1653 76.8811 35.2052 77.5758 35.3401 78.2551C36.0961 79.577 37.9961 80.0593 39.4652 80.0593C42.1663 80.1744 44.8373 79.4542 47.1143 77.9967C47.6572 77.7256 48.0842 77.2681 48.3173 76.7078C48.4338 75.8457 48.3754 74.969 48.1456 74.13Z" fill="white"/>
<path d="M48.378 73.9313C47.7895 73.2818 47.0162 72.8283 46.1621 72.6317C41.3669 71.4601 36.6905 73.2267 35.2666 75.0638C34.7245 75.7638 34.8771 77.5028 35.0366 78.3163C35.043 78.3487 35.0547 78.3797 35.0711 78.4083C35.8946 79.8498 37.8575 80.3429 39.4515 80.3674C42.2052 80.4861 44.9287 79.7539 47.2517 78.2703C49.1839 77.3058 48.8097 74.7072 48.378 73.9313ZM35.7512 75.4395C37.9096 72.6524 45.8063 71.9308 47.8712 74.2679C48.286 75.0975 47.7179 75.4863 46.8606 76.023C44.633 77.4468 42.0207 78.1493 39.3795 78.0349C38.476 78.0514 37.5812 77.8566 36.7664 77.466C35.8723 77.019 35.1286 76.2446 35.7512 75.4395ZM46.9457 77.7397C44.718 79.1631 42.1058 79.8656 39.4646 79.7517C38.0975 79.7517 36.3086 79.2978 35.6308 78.1415C35.579 77.8753 35.5431 77.6062 35.5235 77.3357C36.6031 78.2245 37.9704 78.6881 39.368 78.6391C42.1604 78.7604 44.9229 78.0226 47.2831 76.5252C47.5637 76.3489 47.8275 76.1457 48.069 75.9187C48.102 76.3028 48.0107 76.6873 47.8086 77.0156C47.6065 77.3439 47.3043 77.5985 46.9465 77.742L46.9457 77.7397Z" fill="#4B1010"/>
<path d="M59.4897 79.0294C57.5989 76.1073 54.5909 74.6467 51.3253 73.7871C45.2205 72.0428 41.5968 75.8842 42.9034 79.8038C43.5573 81.1902 44.6027 82.355 45.9106 83.1545C48.5266 84.8567 51.4944 85.9439 54.5909 86.3342C55.7818 86.4991 56.9934 86.2559 58.0283 85.6441C59.712 84.2993 61.2517 81.3787 59.4897 79.0294Z" fill="white"/>
<path d="M59.7409 78.8536C58.054 76.2467 55.4011 74.5422 51.4086 73.4925C48.9167 72.781 45.1634 72.9504 43.4858 75.0452C42.9455 75.7217 42.5833 76.5228 42.4324 77.3754C42.2814 78.2279 42.3465 79.1046 42.6217 79.9255C43.3003 81.3656 44.3843 82.5764 45.7408 83.4097C48.3945 85.1374 51.4053 86.241 54.5469 86.6377C55.8209 86.8104 57.1158 86.5455 58.2196 85.8863C60.4524 84.1013 61.5021 81.2137 59.7409 78.8536ZM51.2468 74.0837C55.7285 75.2629 57.6875 77.0617 59.244 79.2132C59.5954 79.6828 59.8359 80.2259 59.9473 80.8017C60.0587 81.3775 60.0382 81.9711 59.8873 82.5379C59.3583 84.0499 57.3778 84.5598 55.6556 84.3965C52.6031 84.0117 49.6776 82.9395 47.0995 81.2605C43.2749 78.8398 41.8519 73.7371 48.5425 73.7371C49.4549 73.731 50.3651 73.8475 51.2468 74.0837ZM57.8715 85.3817C56.8918 85.9562 55.7472 86.1844 54.6221 86.0296C51.5694 85.6449 48.644 84.5718 46.0667 82.8913C44.8199 82.1306 43.821 81.0241 43.1914 79.7063C42.8642 78.7189 42.8861 77.6492 43.2535 76.6761C43.3616 78.7156 45.017 80.6685 46.7698 81.7765C49.7808 83.6818 55.3328 86.0013 58.6099 84.6043C58.4056 84.9002 58.1565 85.1625 57.8715 85.3817Z" fill="#4B1010"/>
<path d="M48.4888 76.0214C46.2928 78.2097 51.1517 81.2208 53.0433 81.2637C53.3324 81.2782 53.6222 81.2492 53.9028 81.1778C54.1828 81.0899 54.4418 80.9454 54.6637 80.7532C54.8855 80.5611 55.0655 80.3253 55.1925 80.0607C56.2237 77.5687 50.3405 74.1767 48.4888 76.0214Z" fill="#FFB43B"/>
<path d="M53.0417 81.5672C50.8779 81.5189 45.8557 78.2518 48.2664 75.8058C50.3105 73.731 56.647 77.3393 55.4738 80.1763C55.2679 80.6358 54.9215 81.0181 54.4844 81.268C54.0473 81.518 53.5421 81.6227 53.0417 81.5672ZM48.7034 76.236C46.8372 78.0915 51.2682 80.8733 53.0563 80.9546C53.4361 81.0031 53.8215 80.9289 54.1562 80.7428C54.4909 80.5567 54.7572 80.2685 54.9164 79.9202C55.802 77.7848 50.3144 74.6396 48.7057 76.2391L48.7034 76.236Z" fill="#4B1010"/>
<path d="M35.7705 92.7801C18.9258 92.7801 5.26157 87.4512 4.65967 80.7483V81.1777C4.65967 88.0531 9.38668 108.25 35.7705 108.25C59.3181 108.25 66.8806 88.0539 66.8806 81.1784V80.7491C66.2787 87.4512 52.6145 92.7801 35.7705 92.7801Z" fill="white"/>
<path d="M35.7704 108.557C4.71246 108.557 4.35285 81.4517 4.35285 81.1779V80.7486C4.35104 80.7083 4.35718 80.668 4.37091 80.6301C4.38465 80.5922 4.40572 80.5574 4.43292 80.5276C4.46012 80.4979 4.49291 80.4738 4.52943 80.4567C4.56595 80.4396 4.60547 80.4299 4.64575 80.428C4.68602 80.4262 4.72626 80.4324 4.76417 80.4461C4.80207 80.4598 4.8369 80.4809 4.86666 80.5081C4.89642 80.5353 4.92053 80.5681 4.93762 80.6046C4.95471 80.6411 4.96444 80.6807 4.96625 80.7209C5.55818 87.3112 19.089 92.4737 35.7719 92.4737C52.4548 92.4737 65.9818 87.3112 66.5768 80.7209C66.5808 80.6397 66.6167 80.5634 66.6768 80.5085C66.7368 80.4536 66.8161 80.4247 66.8973 80.428C66.9785 80.4322 67.0547 80.4682 67.1096 80.5282C67.1644 80.5882 67.1934 80.6673 67.1902 80.7486C67.1872 91.5812 56.6674 108.557 35.7704 108.557ZM5.1242 83.1776C5.88635 89.3998 10.2959 107.944 35.7704 107.944C57.0032 107.944 65.1614 91.2998 66.402 83.206C63.1863 88.9075 50.7136 93.0878 35.7704 93.0878C20.8058 93.0871 8.31924 88.8945 5.1242 83.1776Z" fill="#4B1010"/>
<path d="M63.0575 36.7803C62.8445 35.8992 62.8661 34.9777 63.1201 34.1076C63.3741 33.2374 63.8516 32.449 64.5051 31.8209C64.5518 31.7819 64.5858 31.7299 64.6028 31.6715C64.6197 31.6131 64.6189 31.5509 64.6004 31.493C64.5819 31.4351 64.5465 31.384 64.4988 31.3462C64.4511 31.3085 64.3932 31.2858 64.3326 31.2811C64.2924 31.2777 64.252 31.2823 64.2136 31.2945C64.1751 31.3067 64.1395 31.3264 64.1087 31.3524C63.9902 31.4506 63.8768 31.5547 63.769 31.6645C62.7657 32.6389 61.9652 33.8023 61.4136 35.0877C60.8621 36.373 60.5705 37.7548 60.5556 39.1533C60.5556 41.0863 60.998 43.0477 60.7319 44.6847C60.5158 46.0107 59.9587 47.2577 59.1152 48.3033C58.2717 49.349 57.1708 50.1574 55.9206 50.6492C51.281 52.803 45.2873 51.416 40.8103 54.8196C39.2771 56.1261 38.0951 57.7954 37.3719 59.6755C36.6487 61.5556 36.4074 63.5867 36.6698 65.5839C36.6813 65.6645 36.7243 65.7371 36.7894 65.786C36.8545 65.8348 36.9363 65.8557 37.0168 65.8443C37.0973 65.8328 37.17 65.7898 37.2188 65.7247C37.2676 65.6596 37.2886 65.5778 37.2771 65.4973C36.9988 63.3243 38.3743 60.5395 39.6226 58.9347C41.3539 56.6843 44.4761 56.031 46.7909 55.8738C49.2905 55.7044 51.8722 56.0487 54.3051 55.9589C56.8691 56.1876 59.4479 55.7323 61.7786 54.6394C63.0226 54.0007 64.0846 53.0573 64.8656 51.8973C65.6466 50.7373 66.1211 49.3984 66.2449 48.0055C66.2418 43.0661 64.111 42.0317 63.0575 36.7803Z" fill="#FFE55D"/>
</svg>
