<svg width="154" height="154" viewBox="0 0 154 154" fill="none" xmlns="http://www.w3.org/2000/svg">
<path d="M44.8896 68.9904C45.296 69.1533 45.7347 69.2191 46.1709 69.1827C46.6072 69.1462 47.029 69.0086 47.4027 68.7806C47.8707 68.5126 48.2601 68.1266 48.5322 67.661C48.8043 67.1954 48.9495 66.6666 48.9532 66.1274C48.9705 66.0357 48.9509 65.9409 48.8985 65.8638C48.8461 65.7866 48.7653 65.7332 48.6738 65.7154C48.5824 65.7003 48.4887 65.7209 48.412 65.7729C48.3353 65.825 48.2816 65.9044 48.2618 65.9949C48.1265 66.3845 47.9334 66.7515 47.6891 67.0838C46.9425 68.1558 46.0994 68.1512 44.9103 68.0478C44.5351 67.9973 44.2755 67.9146 44.1629 68.1941C44.0083 68.5379 44.5489 68.8258 44.8896 68.9904Z" fill="#191919"/>
<path d="M45.2331 54.8606C45.5614 54.5074 45.9735 54.2428 46.4313 54.0914C46.8891 53.9401 47.3778 53.9067 47.8519 53.9946C48.25 54.0574 48.5563 54.2611 48.7171 53.9387C48.9323 53.5252 48.1857 53.1875 47.747 53.0382C47.1482 52.8895 46.5193 52.9174 45.9361 53.1185C45.3528 53.3196 44.8404 53.6853 44.4605 54.1715C44.2821 54.4088 43.9192 55.1485 44.2653 55.3583C44.5248 55.5145 45.1566 54.9372 45.2331 54.8606Z" fill="#191919"/>
<path d="M48.6912 57.5269C48.8796 57.9098 48.398 58.5323 47.6192 58.9052C46.8367 59.2965 46.0549 59.3034 45.8665 58.9197C45.6781 58.5361 46.1598 57.9243 46.9385 57.5369C47.7172 57.1494 48.5029 57.1425 48.6912 57.5269Z" fill="#191919"/>
<path d="M57.4548 61.9772C57.3343 61.629 57.1289 61.3164 56.857 61.0677C56.5852 60.819 56.2556 60.6421 55.8981 60.553C55.7171 60.509 55.5326 60.4808 55.3468 60.4687C54.6237 60.3913 53.8933 60.5172 53.238 60.8324C53.1731 60.8592 53.115 60.8999 53.0679 60.9519C53.0208 61.0038 52.9857 61.0655 52.9654 61.1326C52.7259 61.9157 52.8062 62.7617 53.189 63.4856C53.1893 63.5438 53.205 63.6009 53.2344 63.651C53.2638 63.7012 53.306 63.7427 53.3567 63.7713C53.6889 64.0153 54.0764 64.1731 54.4846 64.2307C53.5175 71.7347 50.3811 80.8099 45.5609 87.0972C41.521 82.1459 39.449 75.8786 39.7415 69.495C39.748 69.407 39.7193 69.3201 39.6617 69.2533C39.6041 69.1866 39.5224 69.1454 39.4344 69.1389C39.3465 69.1324 39.2596 69.1611 39.1928 69.2187C39.1261 69.2763 39.0849 69.358 39.0784 69.446C38.9633 70.4544 38.905 71.4686 38.9038 72.4836C38.9421 78.2632 41.3863 83.7817 45.1597 88.3116C45.1799 88.336 45.2022 88.3585 45.2263 88.379C45.1296 91.1322 45.2681 93.8885 45.6406 96.6181C45.7987 97.6272 46.0109 98.6272 46.2761 99.6136C46.2955 99.7016 46.3485 99.7787 46.424 99.8281C46.4994 99.8776 46.5911 99.8956 46.6796 99.8783C46.7681 99.861 46.8464 99.8098 46.8976 99.7355C46.9488 99.6613 46.969 99.57 46.9538 99.4811C46.3466 94.8646 46.2983 89.6585 46.087 88.1907C51.2594 81.6132 54.3666 72.7998 55.2089 64.2498C56.4969 64.1319 57.7909 63.236 57.4548 61.9772ZM56.2472 62.7169C55.5468 63.1953 54.6891 63.3856 53.8521 63.2483C53.6674 62.7379 53.6553 62.1811 53.8176 61.6632C55.9103 61.1119 56.7955 62.1686 56.2472 62.7169Z" fill="#191919"/>
<path d="M8.73411 100.574C9.29002 100.756 10.3957 101.181 11.2058 101.545C14.4764 102.927 17.4635 104.901 20.0169 107.368C21.1243 108.369 22.1969 109.407 23.2329 110.481C23.2945 110.549 23.3794 110.59 23.4702 110.596C23.561 110.603 23.6509 110.574 23.7214 110.517C23.7556 110.487 23.7835 110.45 23.8035 110.409C23.8234 110.368 23.8351 110.324 23.8377 110.278C23.8403 110.233 23.8339 110.187 23.8188 110.144C23.8037 110.101 23.7803 110.062 23.7498 110.028C19.8821 105.086 15.2779 101.893 11.5864 100.574C10.7101 100.274 9.80779 100.057 8.89108 99.9245C8.80596 99.9051 8.7166 99.9197 8.64217 99.9654C8.56773 100.011 8.51415 100.084 8.49291 100.169C8.47276 100.254 8.48665 100.344 8.53165 100.42C8.57665 100.496 8.64924 100.551 8.73411 100.574Z" fill="#191919"/>
<path d="M25.1227 108.585C27.3624 106.264 30.2223 104.633 33.0616 103.104C37.0602 100.981 40.672 99.364 45.1339 98.5722C45.2228 98.5604 45.3129 98.583 45.3857 98.6355C45.4584 98.6879 45.5084 98.7662 45.5254 98.8543C45.5423 98.9424 45.5249 99.0336 45.4767 99.1093C45.4286 99.185 45.3533 99.2394 45.2663 99.2614C42.1312 99.972 39.1045 101.097 36.2661 102.606C33.5029 103.952 30.8439 105.503 28.3111 107.244C25.3524 109.425 25.4879 110.264 24.8271 110.141C24.7334 110.121 24.6465 110.076 24.5745 110.013C24.5024 109.949 24.4476 109.869 24.4152 109.778C23.7877 108.057 22.8159 106.482 21.559 105.149C18.7383 102.251 15.4624 99.8333 11.8613 97.9926C11.8208 97.9761 11.7841 97.9518 11.753 97.9211C11.722 97.8904 11.6974 97.8538 11.6805 97.8136C11.6637 97.7733 11.6549 97.7301 11.6548 97.6865C11.6547 97.6428 11.6632 97.5995 11.6798 97.5592C11.7153 97.4781 11.7814 97.4143 11.8637 97.3817C11.9461 97.3491 12.0379 97.3505 12.1193 97.3854C13.3072 97.8511 14.4559 98.4114 15.5543 99.0607C19.2573 101.129 23.4687 104.709 25.1227 108.585Z" fill="#191919"/>
<path d="M27.2254 110.412C28.1821 109.693 29.1851 109.037 30.2277 108.45C35.6145 105.286 43.1093 102.78 49.157 101.314C49.2439 101.292 49.3189 101.237 49.3662 101.161C49.4134 101.084 49.4292 100.993 49.4103 100.905C49.3914 100.817 49.3392 100.74 49.2646 100.69C49.1901 100.64 49.0991 100.621 49.0107 100.637C44.4729 101.381 40.0433 102.678 35.8205 104.498C32.3151 106.03 29.2652 107.379 26.7851 109.916C26.7194 109.975 26.6796 110.057 26.6744 110.144C26.6692 110.232 26.6991 110.318 26.7575 110.384C26.8159 110.45 26.898 110.49 26.9857 110.495C27.0735 110.5 27.1597 110.47 27.2254 110.412Z" fill="#191919"/>
<path d="M4.97069 111.78C6.22455 111.012 7.60908 110.482 9.05501 110.216C9.57646 110.095 9.93405 110.089 9.92104 109.734C9.89424 109.362 9.51597 109.371 8.97155 109.371C7.381 109.352 5.83493 109.896 4.60698 110.907C4.22412 111.367 3.97909 111.664 4.20192 111.899C4.39794 112.116 4.60315 111.975 4.97069 111.78Z" fill="#191919"/>
<path d="M6.43739 113.736C7.80649 113.277 7.34936 113.067 10.8916 112.068C11.3747 111.925 11.7936 111.93 11.7645 111.537C11.7224 111.161 11.289 111.206 10.7591 111.223C9.11769 111.339 7.53723 111.892 6.18165 112.825C5.71609 113.252 5.45805 113.507 5.64565 113.768C5.81487 114.014 6.0285 113.89 6.43739 113.736Z" fill="#191919"/>
<path d="M9.31375 115.387C9.54876 115.331 9.77623 115.246 9.99141 115.136C11.0175 114.706 12.0535 114.396 12.1768 114.354C13.2197 113.983 13.4241 113.948 13.3774 113.621C13.3253 113.267 12.9547 113.315 12.4984 113.334C11.2252 113.457 9.99561 113.862 8.8995 114.521C8.50592 114.876 8.24711 115.084 8.39719 115.338C8.53732 115.593 8.77852 115.527 9.31375 115.387Z" fill="#191919"/>
<path d="M12.8925 116.758C14.4385 116.243 15.0051 116.11 14.9454 115.704C14.8864 115.387 14.5847 115.41 14.1797 115.41C13.2076 115.45 12.2623 115.74 11.4354 116.253C11.1222 116.526 10.8833 116.758 11.0303 117.006C11.2638 117.482 12.3902 116.926 12.8925 116.758Z" fill="#191919"/>
<path d="M65.8935 107.371C65.1545 106.788 64.3243 106.33 63.4364 106.016C62.5055 105.681 61.5083 105.571 60.5266 105.696C57.5722 106.06 54.7639 107.189 52.3787 108.97C52.3385 108.994 52.3037 109.026 52.2763 109.064C52.2488 109.102 52.2293 109.145 52.219 109.191C52.2087 109.237 52.2077 109.284 52.2161 109.33C52.2245 109.376 52.2422 109.42 52.268 109.459C52.2938 109.498 52.3273 109.532 52.3664 109.558C52.4055 109.583 52.4494 109.601 52.4955 109.61C52.5416 109.618 52.589 109.617 52.6347 109.607C52.6804 109.596 52.7235 109.577 52.7615 109.549C55.2049 108.142 57.8869 107.198 60.6729 106.764C61.3242 106.679 61.9858 106.722 62.6209 106.889C63.6248 107.179 64.609 107.534 65.5673 107.951C65.6437 107.988 65.7316 107.995 65.8129 107.97C65.8942 107.945 65.9627 107.889 66.0044 107.815C66.0462 107.741 66.058 107.654 66.0373 107.571C66.0167 107.488 65.9652 107.417 65.8935 107.371Z" fill="#191919"/>
<path d="M59.7537 109.294C57.8958 109.695 56.1398 110.472 54.5935 111.577C54.0391 111.993 53.7236 112.173 53.9227 112.492C54.1969 112.942 54.5728 112.43 57.4979 111.165C58.5591 110.706 59.6128 110.417 60.2766 110.097C60.6327 109.944 60.9872 109.844 60.9122 109.531C60.854 109.237 60.5638 109.206 59.7537 109.294Z" fill="#191919"/>
<path d="M59.8583 113.087C59.0645 113.298 58.2946 113.59 57.5611 113.959C56.7853 114.289 56.0573 114.721 55.3964 115.244C54.9623 115.588 54.6108 115.843 54.8306 116.145C55.0503 116.446 55.254 116.261 56.4784 115.67C59.2924 114.302 59.4532 114.383 60.2143 113.974C60.7725 113.63 61.0505 113.524 60.9402 113.208C60.83 112.893 60.4241 112.978 59.8583 113.087Z" fill="#191919"/>
<path d="M59.6044 117.361C58.3117 117.891 57.058 118.512 55.8524 119.218C55.779 119.271 55.688 119.293 55.5987 119.279C55.5095 119.266 55.429 119.218 55.3744 119.146C55.3198 119.074 55.2954 118.984 55.3062 118.894C55.3171 118.805 55.3625 118.723 55.4328 118.666C56.6336 117.695 57.964 116.896 59.3854 116.292C59.7897 116.11 59.5462 116.248 66.6597 119.266C66.7431 119.295 66.8127 119.354 66.8542 119.432C66.8957 119.51 66.9061 119.601 66.8833 119.686C66.8712 119.728 66.851 119.767 66.8237 119.801C66.7963 119.835 66.7625 119.863 66.7241 119.884C66.6858 119.905 66.6436 119.918 66.6002 119.922C66.5568 119.926 66.513 119.922 66.4713 119.909C64.1956 119.529 63.0608 118.887 59.6044 117.361Z" fill="#191919"/>
<path d="M59.7949 101.698C64.0875 104.964 63.0109 103.951 66.5118 106.941C66.9521 107.319 68.4115 108.533 68.6971 108.792C68.7638 108.858 68.8539 108.895 68.9476 108.894C69.0413 108.893 69.131 108.855 69.1967 108.789C69.2625 108.722 69.2991 108.632 69.2985 108.538C69.2979 108.445 69.26 108.355 69.1933 108.289C68.5647 107.612 67.9437 106.921 67.279 106.265C65.4254 104.471 63.3697 102.899 61.1533 101.579C60.8118 101.411 60.4764 101.273 60.1204 101.125C60.0827 101.104 60.0413 101.09 59.9983 101.084C59.9553 101.078 59.9116 101.081 59.8698 101.093C59.8279 101.104 59.7887 101.124 59.7544 101.15C59.7201 101.177 59.6913 101.21 59.6697 101.247C59.6482 101.285 59.6342 101.326 59.6287 101.369C59.6231 101.412 59.6261 101.456 59.6375 101.498C59.6488 101.54 59.6683 101.579 59.6948 101.613C59.7213 101.648 59.7543 101.676 59.7919 101.698H59.7949Z" fill="#191919"/>
<path d="M45.1508 97.8088C45.1434 97.7579 45.1252 97.7092 45.0975 97.6659C45.0697 97.6226 45.0331 97.5857 44.99 97.5577C44.9003 96.7027 44.8281 95.8459 44.7733 94.9879C44.6339 92.8654 44.5711 90.7497 44.4318 88.6325C44.425 88.5257 44.3773 88.4256 44.2985 88.353C42.4736 86.5793 41.0165 84.4631 40.0105 82.1255C39.0034 79.7798 38.3651 77.2925 38.1184 74.7516C38.1097 74.6608 38.0766 74.5739 38.0228 74.5002C37.9689 74.4265 37.8961 74.3687 37.8122 74.3328C37.7285 74.295 37.6361 74.2809 37.545 74.292C37.4538 74.3031 37.3675 74.3389 37.2953 74.3956C36.6224 74.9232 35.9831 75.4922 35.381 76.0993C34.4943 77.0074 33.6773 77.9914 32.9024 78.9554C29.8152 82.7071 27.5826 87.0865 26.3601 91.7888C25.2541 96.4885 24.8924 101.333 25.2881 106.144C25.2942 106.251 25.3315 106.353 25.3955 106.439C25.4595 106.524 25.5473 106.589 25.6479 106.625C25.7485 106.66 25.8574 106.666 25.9609 106.64C26.0644 106.614 26.158 106.558 26.23 106.479C26.9418 105.708 27.7302 105.011 28.583 104.399C29.4554 103.785 30.3617 103.222 31.2975 102.71C32.4974 102.05 33.7302 101.451 34.9913 100.916C36.2449 100.382 37.5354 99.938 38.8528 99.5891C38.9312 99.5698 39.0041 99.5326 39.0658 99.4806C39.1276 99.4285 39.1765 99.363 39.2088 99.289C39.2385 99.2151 39.2514 99.1355 39.2465 99.0561C39.2416 98.9766 39.219 98.8992 39.1805 98.8295C38.9921 98.4804 38.8175 98.1243 38.6567 97.7683C38.4959 97.4122 38.329 97.0355 38.1751 96.658C37.9401 96.1427 37.7373 95.6133 37.5679 95.0729C37.4709 94.7496 37.4168 94.4149 37.4071 94.0775C37.5346 94.1189 37.6515 94.188 37.7494 94.2797C37.8814 94.4604 37.9938 94.6547 38.0848 94.8593C38.2379 95.2154 38.3635 95.599 38.5105 95.9481C38.7831 96.6044 39.0411 97.2751 39.3482 97.9314C39.5483 98.3794 39.777 98.8142 40.0327 99.2331C40.0802 99.3209 40.1591 99.3877 40.2536 99.42C40.3481 99.4524 40.4513 99.448 40.5427 99.4076C41.2323 99.1126 41.9388 98.8584 42.6584 98.6465C43.3803 98.4441 44.115 98.2907 44.8575 98.1871C44.902 98.1825 44.9451 98.169 44.9842 98.1472C45.0234 98.1255 45.0577 98.0961 45.0851 98.0607C45.1125 98.0254 45.1325 97.9848 45.1437 97.9415C45.155 97.8982 45.1574 97.8531 45.1508 97.8088Z" fill="#38A1FF"/>
<path d="M47.8137 81.3146C46.6864 80.5521 45.746 79.5449 45.0625 78.3681C44.8193 78.0166 44.65 77.6195 44.5647 77.2007C44.4794 76.7819 44.48 76.3502 44.5663 75.9316C44.5839 75.8876 44.5912 75.8402 44.5876 75.7929C44.5841 75.7456 44.5697 75.6998 44.5456 75.659C44.5238 75.617 44.4931 75.5803 44.4557 75.5514C44.4183 75.5224 44.375 75.5019 44.3289 75.4913C43.6634 75.2412 43.0414 74.8877 42.4859 74.4438C41.9444 74.0279 41.503 73.496 41.1941 72.8871C41.1371 72.7768 41.0422 72.6907 40.9269 72.6446C40.8116 72.5985 40.6836 72.5954 40.5662 72.636C40.4472 72.6748 40.3466 72.756 40.2835 72.8641C40.2204 72.9722 40.1992 73.0998 40.224 73.2225C40.2584 73.4384 40.3074 73.6551 40.3564 73.8718C40.4682 74.3466 40.6007 74.8213 40.7125 75.3029C41.1278 77.0816 41.6666 78.8291 42.3251 80.5328C42.9983 82.2543 43.885 83.8845 44.9645 85.3851C45.0146 85.4566 45.0817 85.5145 45.1598 85.5535C45.2378 85.5926 45.3244 85.6115 45.4117 85.6087C45.4979 85.605 45.5821 85.5809 45.6573 85.5385C45.7325 85.496 45.7966 85.4364 45.8443 85.3644L47.9669 82.0129C48.0366 81.8993 48.0596 81.7631 48.0311 81.6329C48.0025 81.5026 47.9246 81.3886 47.8137 81.3146Z" fill="#38A1FF"/>
<path d="M107.841 113.821C107.83 113.759 107.805 113.701 107.767 113.651C107.728 113.601 107.679 113.562 107.622 113.536C107.565 113.51 107.502 113.498 107.44 113.501C107.377 113.504 107.316 113.523 107.262 113.555C105.777 114.494 104.116 115.122 102.38 115.401C100.645 115.679 98.8706 115.602 97.1656 115.175C95.821 114.649 94.595 113.859 93.5591 112.854C92.5232 111.848 91.6982 110.645 91.1325 109.317C90.6079 107.984 90.3677 106.556 90.4274 105.124C90.4871 103.693 90.8453 102.29 91.4792 101.005C92.113 99.7208 93.0084 98.5828 94.1079 97.6645C95.2075 96.7462 96.4868 96.068 97.8639 95.6732C99.2031 95.2283 100.632 95.1229 102.022 95.3667C103.412 95.6105 104.719 96.1958 105.827 97.0699C105.911 97.1392 106.014 97.1806 106.122 97.1881C106.23 97.1956 106.337 97.1688 106.429 97.1115C106.521 97.0543 106.593 96.9695 106.634 96.8693C106.675 96.769 106.684 96.6584 106.658 96.553C104.861 88.768 95.3256 79.9309 85.2457 79.1797C88.4326 83.6263 90.5146 90.2535 92.0437 95.0231C92.0613 95.0667 92.07 95.1133 92.0692 95.1603C92.0684 95.2072 92.0581 95.2535 92.039 95.2964C92.0199 95.3393 91.9923 95.3779 91.9579 95.4099C91.9235 95.4419 91.883 95.4666 91.8389 95.4826C91.7947 95.4986 91.7478 95.5055 91.7009 95.5029C91.654 95.5003 91.6081 95.4883 91.5659 95.4676C91.5238 95.4468 91.4863 95.4178 91.4556 95.3822C91.4249 95.3466 91.4018 95.3053 91.3875 95.2605C89.291 89.9771 88.4081 87.5314 87.0796 84.6615C86.2436 82.7075 85.1922 80.853 83.9447 79.1323C77.6735 72.7631 65.2269 67.0256 56.7619 70.1183C56.6462 70.1625 56.5488 70.2445 56.4854 70.3509C56.4221 70.4573 56.3965 70.582 56.4127 70.7048C57.0016 74.8136 54.0681 78.9271 50.6239 81.2135C50.565 81.2525 50.5144 81.3027 50.475 81.3613C50.4356 81.4199 50.4081 81.4857 50.3942 81.555C49.9187 83.9218 48.8 86.9089 46.6591 88.0138C46.5692 88.0615 46.4943 88.133 46.4425 88.2206C46.3908 88.3081 46.3642 88.4083 46.3658 88.51C46.4422 91.5205 46.7386 94.5214 47.2525 97.4887C47.2693 97.5819 47.3095 97.6692 47.3694 97.7425C47.4293 97.8157 47.5068 97.8726 47.5948 97.9076C48.1645 98.122 48.8138 98.4267 48.656 99.011C48.6348 99.0877 48.631 99.1682 48.6448 99.2466C48.6586 99.325 48.6897 99.3994 48.7358 99.4643C48.7819 99.5292 48.8419 99.583 48.9114 99.6218C48.9809 99.6606 49.0582 99.6834 49.1377 99.6886C50.0068 99.7422 51.104 100.29 50.7855 101.134C50.7535 101.217 50.7431 101.308 50.7552 101.397C50.7674 101.486 50.8017 101.571 50.8551 101.643C50.9085 101.715 50.9791 101.773 51.0606 101.811C51.1421 101.849 51.2318 101.865 51.3215 101.859L52.8644 101.755C53.186 102.921 53.3958 104.115 53.6883 105.288C53.9487 106.329 53.9862 106.498 54.2611 106.636C54.6983 106.811 54.6975 106.449 56.9771 105.853C60.1479 105.065 60.9013 105.373 61.0545 104.736C61.2023 104.147 60.4082 104.069 59.5606 102.879C59.0529 102.159 58.7229 101.232 59.4557 100.742C59.8975 100.476 60.4237 100.386 60.9289 100.491C63.7575 101.021 65.746 102.817 67.73 104.883C67.8061 104.962 67.9048 105.015 68.0123 105.035C68.1199 105.055 68.231 105.041 68.3303 104.995C68.4409 104.917 68.5665 104.862 68.6991 104.835C68.8318 104.808 68.9688 104.808 69.1013 104.836C69.2338 104.864 69.359 104.92 69.4691 104.999C69.5791 105.078 69.6716 105.179 69.7407 105.295C71.0157 107.2 69.995 112.795 69.5034 115.014C69.0158 117.199 68.379 119.348 67.5975 121.446C67.557 121.558 67.5571 121.681 67.5978 121.793C67.6386 121.905 67.7173 121.999 67.8203 122.059C73.1979 125.189 80.5833 126.077 86.4839 123.965C88.5574 123.221 90.6899 122.361 92.0629 120.62C93.8546 121.087 95.8692 120.773 97.6908 120.586C101.062 120.229 104.391 119.55 107.634 118.56C107.705 118.536 107.769 118.493 107.818 118.435C107.868 118.377 107.9 118.307 107.913 118.233C108.118 116.767 108.093 115.279 107.841 113.821ZM84.9233 108.602C84.8879 108.687 84.8203 108.755 84.7352 108.79C84.6501 108.826 84.5545 108.826 84.4693 108.791C81.3911 107.7 71.7446 104.268 68.8433 104.552C68.8002 104.561 68.756 104.56 68.713 104.552C68.67 104.543 68.6292 104.525 68.5929 104.501C68.5566 104.476 68.5255 104.445 68.5014 104.408C68.4773 104.371 68.4607 104.33 68.4524 104.287C68.4442 104.244 68.4445 104.2 68.4534 104.157C68.4622 104.114 68.4795 104.073 68.5041 104.037C68.5288 104 68.5603 103.969 68.597 103.945C68.6336 103.921 68.6747 103.904 68.7178 103.896C70.4123 103.413 71.9146 103.761 73.5632 104.192C72.6696 102.786 71.9178 101.295 71.3189 99.7407C69.828 96.0591 69.6963 94.7636 69.5463 93.5545C69.5252 93.4684 69.5391 93.3775 69.5848 93.3016C69.6306 93.2257 69.7045 93.171 69.7905 93.1494C69.8327 93.1391 69.8764 93.1372 69.9193 93.1439C69.9622 93.1506 70.0033 93.1658 70.0403 93.1885C70.0772 93.2112 70.1093 93.2411 70.1347 93.2763C70.16 93.3115 70.1781 93.3514 70.1879 93.3937C71.8143 97.6381 71.8472 98.8885 74.6834 104.484C78.1397 105.39 81.5028 106.621 84.7281 108.159C84.7706 108.175 84.8094 108.199 84.8424 108.23C84.8753 108.262 84.9017 108.299 84.9199 108.341C84.9381 108.382 84.9478 108.427 84.9484 108.472C84.949 108.518 84.9404 108.563 84.9233 108.605V108.602Z" fill="#38A1FF"/>
<path d="M108.175 102.223C104.788 95.1648 94.664 95.2843 92.1088 102.852C91.373 105.079 91.5207 107.504 92.5213 109.626C93.5218 111.748 95.2989 113.404 97.4856 114.253C104.932 117.092 111.621 109.412 108.175 102.223ZM103.351 109.089C103.162 109.349 102.954 109.181 102.555 109.075C102.406 109.039 102.254 109.018 102.101 109.012C100.659 108.888 99.8226 110.131 99.3785 109.71C99.1059 109.451 99.5492 108.791 99.7207 108.67C100.072 108.374 100.485 108.161 100.93 108.047C101.375 107.934 101.84 107.922 102.29 108.013C102.755 108.13 103.666 108.679 103.351 109.089ZM104.168 107.19C103.69 106.727 103.112 106.378 102.479 106.171C101.745 105.921 100.949 105.916 100.212 106.158C99.4753 106.4 98.8371 106.875 98.3938 107.511C98.1366 107.828 97.8988 108.161 97.6817 108.507C97.6497 108.587 97.5878 108.652 97.5092 108.687C97.4305 108.723 97.341 108.726 97.2597 108.698C97.1783 108.669 97.1113 108.609 97.0728 108.532C97.0342 108.455 97.0271 108.365 97.053 108.283C97.2226 107.47 97.6267 106.725 98.2154 106.14C98.8042 105.554 99.5516 105.154 100.365 104.99C101.179 104.825 102.023 104.902 102.793 105.212C103.564 105.522 104.226 106.051 104.699 106.733C104.759 106.804 104.789 106.896 104.782 106.989C104.775 107.081 104.731 107.168 104.661 107.228C104.59 107.289 104.498 107.319 104.405 107.312C104.313 107.305 104.226 107.261 104.166 107.19H104.168ZM105.788 105.22C105.711 105.271 105.618 105.29 105.527 105.275C105.436 105.259 105.355 105.21 105.299 105.136C104.555 104.098 103.527 103.298 102.339 102.832C101.271 102.539 100.138 102.597 99.1063 102.997C98.0743 103.396 97.198 104.117 96.6066 105.052C96.2762 105.511 95.9976 106.006 95.7758 106.526C95.7529 106.611 95.6977 106.683 95.6219 106.727C95.5461 106.772 95.4559 106.785 95.3707 106.763C95.329 106.753 95.2897 106.734 95.2552 106.708C95.2207 106.682 95.1916 106.65 95.1696 106.613C95.1475 106.576 95.133 106.535 95.1268 106.493C95.1205 106.45 95.1228 106.407 95.1334 106.365C95.6594 102.758 99.5301 100.836 102.66 101.827C104.032 102.392 105.164 103.416 105.865 104.724C105.918 104.801 105.94 104.895 105.925 104.988C105.91 105.08 105.86 105.163 105.786 105.22H105.788Z" fill="#191919"/>
<path d="M115.224 126.603C115.214 126.532 115.19 126.463 115.153 126.402C115.116 126.34 115.068 126.286 115.01 126.243C114.952 126.2 114.886 126.169 114.816 126.152C114.746 126.135 114.673 126.133 114.602 126.144C110.071 126.918 101 129.229 100.1 129.418C96.7197 128.599 86.9683 127.427 82.505 126.73C82.3688 126.707 82.2292 126.739 82.1166 126.819C82.0039 126.899 81.9275 127.02 81.9039 127.156C81.7139 128.199 81.5878 129.253 81.5264 130.312C79.0432 130.348 58.7847 130.983 55.7371 131.053C54.1154 131.091 50.0042 130.875 48.6635 129.859C48.5672 129.803 48.4887 129.721 48.4368 129.622C48.385 129.523 48.3619 129.412 48.3702 129.3C50.165 128.535 58.9087 128.518 60.4218 128.344C62.1577 128.12 64.804 127.496 64.304 125.823C63.4808 123.078 52.4928 124.236 50.1995 122.046C50.1356 121.99 50.0528 121.961 49.9682 121.965C49.8836 121.969 49.8036 122.005 49.7447 122.065C49.6858 122.126 49.6525 122.207 49.6516 122.292C49.6508 122.377 49.6824 122.459 49.7401 122.521C52.2761 125.022 62.8338 124.573 63.2856 126.123C63.356 126.388 62.8874 126.614 62.6362 126.724C60.2686 127.767 55.9875 127.144 50.2079 127.827C49.4928 127.888 48.786 128.024 48.0991 128.232C47.9412 128.276 47.7946 128.354 47.6692 128.459C47.5438 128.565 47.4426 128.696 47.3725 128.845C46.982 129.976 47.799 130.855 49.2929 131.359C51.4055 131.907 53.5833 132.163 55.7655 132.12C58.3835 132.05 77.4658 131.175 81.6405 131.009C81.8518 131.269 80.433 130.982 99.8285 133.201C99.8285 133.201 113.486 130.066 114.784 129.808C114.894 129.787 114.993 129.732 115.069 129.65C115.144 129.568 115.191 129.464 115.203 129.354C115.317 128.441 115.324 127.518 115.224 126.603Z" fill="#191919"/>
<path d="M111.754 125.761C108.794 125.359 107.823 124.451 95.5544 123.352C95.4971 123.342 95.4381 123.346 95.3831 123.366C95.3282 123.385 95.2792 123.418 95.2412 123.463C94.0226 123.556 92.8097 123.715 91.6079 123.937C89.8093 124.227 88.0408 124.681 86.3245 125.292C85.4332 125.688 85.0994 125.858 85.2142 126.185C85.3429 126.528 85.7035 126.386 86.6178 126.192C86.8283 126.148 87.0435 126.102 87.2533 126.046C91.6355 124.921 90.8943 125.204 93.2718 124.691C93.3484 124.674 95.6769 124.123 95.755 124.095C98.7543 124.91 100.607 124.893 104.484 125.446C106.494 125.724 108.704 126.22 111.669 126.452C111.76 126.463 111.853 126.438 111.926 126.381C111.998 126.324 112.045 126.241 112.057 126.149C112.068 126.057 112.042 125.965 111.986 125.892C111.929 125.82 111.845 125.772 111.754 125.761Z" fill="#191919"/>
<path d="M53.6163 117.011C53.3701 116.753 53.2236 116.416 53.2031 116.061C53.1826 115.705 53.2895 115.354 53.5045 115.069C53.5522 115 53.5816 114.919 53.5898 114.836C53.598 114.752 53.5847 114.667 53.5513 114.59C53.5178 114.512 53.4653 114.444 53.3986 114.393C53.3319 114.341 53.2532 114.307 53.1699 114.295C51.8819 114.113 50.8873 113.031 51.3544 111.746C51.3772 111.68 51.3863 111.61 51.3809 111.541C51.3755 111.471 51.3558 111.404 51.323 111.342C51.2902 111.28 51.2451 111.226 51.1904 111.183C51.1357 111.14 51.0727 111.108 51.0052 111.09C50.0565 110.835 49.5588 110.497 50.0488 109.651C50.8837 108.466 51.9928 107.501 53.2817 106.837C53.3843 106.786 53.4667 106.702 53.516 106.598C53.5653 106.494 53.5785 106.377 53.5535 106.265L52.8414 103.144C52.8127 103.019 52.7394 102.909 52.6352 102.835C52.5309 102.76 52.403 102.726 52.2755 102.739C44.5196 103.578 32.7636 108.771 25.8829 112.409C25.6169 112.532 25.3322 112.61 25.0406 112.639C24.6545 112.672 24.266 112.665 23.8813 112.618C18.7916 107.718 12.6253 105.022 6.46054 101.852C6.35391 101.8 6.23313 101.784 6.11662 101.806C6.00011 101.829 5.89424 101.889 5.81515 101.978C5.73606 102.067 5.68808 102.179 5.67853 102.297C5.66897 102.415 5.69835 102.533 5.76221 102.634C6.61827 103.925 7.75306 105.885 8.4782 107.13C9.02492 108.076 10.587 108.374 10.587 109.092C10.5861 109.198 10.6169 109.302 10.6755 109.39C10.734 109.479 10.8176 109.547 10.9155 109.588C11.5847 109.863 12.3466 110.379 12.3466 111.103C12.3417 111.213 12.3733 111.322 12.4364 111.413C12.4994 111.504 12.5906 111.571 12.6958 111.605C13.3673 111.835 14.4569 112.478 14.3083 113.177C14.2817 113.291 14.2949 113.41 14.3457 113.516C14.3966 113.621 14.482 113.706 14.5878 113.756C15.7732 114.342 16.6499 115.717 15.5833 116.589C15.5181 116.644 15.4675 116.714 15.436 116.793C15.4045 116.872 15.3931 116.957 15.4028 117.042C15.4125 117.126 15.4431 117.207 15.4917 117.277C15.5403 117.347 15.6054 117.403 15.6813 117.442C20.2945 119.98 24.1372 123.716 26.804 128.257C27.0031 128.576 27.1601 128.303 28.3048 128.515C28.7025 128.582 29.0946 128.677 29.4779 128.802V128.822C29.531 128.842 29.5883 128.846 29.6436 128.835C29.6989 128.824 29.7502 128.798 29.7919 128.76C36.9275 123.226 44.4469 122.139 52.0167 119.801C52.091 119.777 52.1587 119.736 52.2143 119.681C52.27 119.627 52.3122 119.56 52.3375 119.486C52.5451 118.801 52.9782 118.205 53.5665 117.797C53.6307 117.755 53.6843 117.699 53.723 117.633C53.7616 117.567 53.7843 117.493 53.7891 117.416C53.7939 117.34 53.7808 117.263 53.7508 117.193C53.7208 117.122 53.6747 117.06 53.6163 117.011ZM26.3699 124.132C26.3258 124.142 26.2801 124.143 26.2354 124.136C26.1907 124.129 26.148 124.112 26.1096 124.088C26.0712 124.064 26.038 124.033 26.0118 123.996C25.9857 123.959 25.9671 123.917 25.9572 123.873C25.7412 123.154 25.5039 122.462 25.3009 121.743C25.111 121.073 24.098 116.837 23.9816 115.753C23.954 115.452 23.9464 115.159 23.9326 114.859C23.9165 114.774 23.934 114.686 23.9813 114.614C24.0286 114.542 24.1021 114.491 24.1863 114.472C24.2705 114.453 24.3588 114.467 24.4326 114.512C24.5064 114.557 24.5599 114.628 24.5819 114.712C24.6868 115.005 24.8055 115.271 24.9035 115.554C25.2098 116.444 26.1945 120.963 26.2925 121.517C26.4258 122.25 26.5223 122.976 26.6348 123.717C26.6446 123.761 26.6456 123.807 26.6376 123.852C26.6295 123.897 26.6128 123.94 26.5882 123.979C26.5636 124.017 26.5316 124.05 26.4942 124.077C26.4567 124.103 26.4145 124.121 26.3699 124.131V124.132ZM29.1264 127.313C29.0154 126.524 28.8684 125.742 28.7359 124.953C27.4618 117.511 27.5805 119.799 27.1371 116.372C27.1238 116.329 27.1194 116.284 27.124 116.239C27.1286 116.195 27.1423 116.151 27.1641 116.112C27.1859 116.073 27.2155 116.038 27.251 116.011C27.2865 115.983 27.3272 115.963 27.3706 115.952C27.4141 115.941 27.4594 115.938 27.5038 115.945C27.5482 115.952 27.5908 115.967 27.629 115.991C27.6672 116.014 27.7003 116.045 27.7261 116.082C27.752 116.119 27.7702 116.16 27.7796 116.204C27.9327 116.574 28.0858 116.93 28.226 117.308C29.1992 120.54 29.7347 123.888 29.8179 127.262C29.8212 127.352 29.7896 127.439 29.7296 127.506C29.6697 127.573 29.5861 127.614 29.4965 127.621C29.4069 127.627 29.3183 127.599 29.2493 127.541C29.1803 127.484 29.1362 127.402 29.1264 127.312V127.313Z" fill="#191919"/>
<path d="M113.535 92.1992C122.455 91.1647 122.816 89.7649 123.136 90.461C123.175 90.5432 123.18 90.6378 123.15 90.7239C123.12 90.8101 123.057 90.8807 122.975 90.9204C119.901 92.5338 116.869 92.8745 113.374 93.2941C113.283 93.3071 113.189 93.2959 113.103 93.2615C113.018 93.2271 112.942 93.1707 112.885 93.0981C112.049 92.0857 111.119 91.1552 110.106 90.3193C110.069 90.2969 110.037 90.2674 110.011 90.2325C109.985 90.1976 109.967 90.1579 109.956 90.1158C109.946 90.0737 109.944 90.03 109.951 89.9871C109.957 89.9443 109.972 89.9031 109.994 89.866C110.041 89.7914 110.115 89.7376 110.2 89.7154C110.286 89.6932 110.376 89.7044 110.454 89.7466C111.659 90.3114 112.714 91.1515 113.535 92.1992Z" fill="#191919"/>
<path d="M130.037 76.6598C131.85 81.1112 133.211 85.7332 134.101 90.4564C134.512 93.2088 134.703 95.9894 134.673 98.7721C134.142 109.326 121.565 110.053 112.609 112.429C112.564 112.439 112.52 112.458 112.482 112.485C112.444 112.512 112.412 112.547 112.388 112.586C112.363 112.626 112.347 112.67 112.339 112.716C112.332 112.762 112.334 112.809 112.345 112.854C112.356 112.899 112.377 112.942 112.404 112.979C112.432 113.017 112.467 113.048 112.508 113.072C112.548 113.095 112.592 113.11 112.639 113.117C112.685 113.123 112.732 113.119 112.777 113.107C120.324 111.321 135.204 110.726 135.756 98.828C135.789 95.9702 135.59 93.1145 135.162 90.2887C134.318 85.4579 132.795 80.7708 130.638 76.3665C130.619 76.3271 130.592 76.2918 130.559 76.2628C130.526 76.2337 130.488 76.2115 130.446 76.1972C130.405 76.1829 130.361 76.177 130.317 76.1797C130.273 76.1824 130.23 76.1937 130.191 76.213C130.152 76.2322 130.116 76.2591 130.087 76.2919C130.058 76.3248 130.036 76.3631 130.022 76.4046C130.007 76.4461 130.002 76.49 130.004 76.5337C130.007 76.5775 130.018 76.6203 130.037 76.6598Z" fill="#191919"/>
<path d="M113.063 105.974C114.096 105.011 114.839 103.777 115.207 102.413C115.343 101.844 115.395 101.258 115.36 100.674C115.367 100.583 115.338 100.494 115.279 100.424C115.221 100.355 115.137 100.312 115.046 100.304C114.953 100.297 114.862 100.327 114.791 100.387C114.721 100.447 114.677 100.533 114.669 100.625C114.562 101.134 114.414 101.634 114.229 102.12C113.212 105.002 111.243 105.886 111.687 106.441C111.952 106.806 112.731 106.25 113.063 105.974Z" fill="#191919"/>
<path d="M149.41 55.2205C148.399 53.1064 145.211 51.6217 143.706 50.7794C140.929 49.248 136.878 46.4539 133.771 46.8697C133.133 46.9619 132.529 47.213 132.014 47.5999C131.499 47.9867 131.09 48.4968 130.823 49.0833C130.353 49.9805 129.94 50.9069 129.588 51.8568C129.198 51.9331 128.815 52.0438 128.444 52.1875C128.37 52.216 128.308 52.2702 128.269 52.3404C128.231 52.4106 128.219 52.4922 128.236 52.5704C123.937 60.4741 120.865 68.1872 117.434 75.0058C116.289 77.3252 114.364 82.663 112.26 83.957C109.468 85.6776 103.6 84.6569 100.418 83.8039C100.332 83.7789 100.241 83.7888 100.163 83.8314C100.085 83.874 100.027 83.9457 100.002 84.0309C99.9773 84.1161 99.9872 84.2077 100.03 84.2856C100.072 84.3636 100.144 84.4214 100.229 84.4463C103.949 85.6416 109.473 86.9135 112.818 84.8721C115.313 83.323 117.118 78.0572 118.404 75.4944C122.322 67.5991 125.519 59.5468 128.971 52.7266C129.718 52.5335 130.495 52.4915 131.258 52.6031C132.021 52.7147 132.754 52.9777 133.414 53.3765C134.074 53.7753 134.647 54.302 135.101 54.9256C135.554 55.5491 135.879 56.2571 136.055 57.0077C135.849 57.595 134.235 61.0101 132.487 64.877C128.054 74.6835 125.825 82.1155 122.886 89.7405C122.851 89.8266 122.851 89.9232 122.887 90.009C122.923 90.0948 122.992 90.1628 123.078 90.198C123.164 90.2332 123.261 90.2328 123.346 90.1968C123.432 90.1609 123.5 90.0923 123.535 90.0062C125.176 86.0819 126.397 82.9333 127.969 78.8206C132.63 66.5998 131.749 69.3396 136.53 58.5996C136.801 57.9993 136.989 57.5521 137.066 57.3362C137.128 57.1935 137.145 57.0349 137.114 56.8821C137.036 56.574 136.938 56.2712 136.821 55.9755C136.957 55.6347 137.154 55.3217 137.402 55.0521C137.746 55.1248 146.538 57.4717 148.316 57.1884C148.546 57.1897 148.773 57.1292 148.971 57.013C149.17 56.8969 149.334 56.7295 149.446 56.5284C149.558 56.3272 149.613 56.0997 149.607 55.8696C149.601 55.6395 149.533 55.4154 149.41 55.2205Z" fill="#191919"/>
<path d="M126.885 49.908C126.409 47.934 121.713 48.2686 119.665 48.5121C116.268 48.9195 111.736 49.3865 110.818 52.7151C110.396 54.2044 111.043 55.9441 111.419 57.3584C111.419 57.3691 111.425 57.3798 111.429 57.3906C111.326 57.5544 111.23 57.7206 111.142 57.8875C111.108 57.9472 111.086 58.0135 111.079 58.0821C111.072 58.1507 111.079 58.2201 111.1 58.2857C112.486 63.5778 114.308 68.7462 116.547 73.7378C116.583 73.8215 116.651 73.8875 116.736 73.9215C116.821 73.9555 116.916 73.9547 117 73.9193C117.786 73.5563 116.387 73.283 112.197 58.2022C113.494 55.928 116.326 54.0888 118.885 54.7565C119.781 57.5216 120.816 60.2398 121.985 62.9006C122 62.9417 122.023 62.9794 122.052 63.0116C122.082 63.0437 122.118 63.0697 122.157 63.0879C122.197 63.1062 122.24 63.1164 122.283 63.1179C122.327 63.1193 122.37 63.1121 122.411 63.0967C122.492 63.0644 122.558 63.0021 122.594 62.9226C122.631 62.8431 122.635 62.7527 122.606 62.6702C119.435 53.5903 119.787 54.0497 119.711 53.9632C121.305 53.5268 124.425 52.6416 125.809 51.7518C126.502 51.3192 127.07 50.6959 126.885 49.908Z" fill="#191919"/>
<path d="M23.0973 50.8246C29.5423 40.8389 42.7188 43.4584 52.271 38.6053C59.0392 35.1588 63.6871 29.0278 71.5333 29.452C71.6245 29.4563 71.7139 29.4253 71.7828 29.3654C71.8517 29.3055 71.8948 29.2213 71.9032 29.1304C71.907 29.0848 71.9017 29.039 71.8875 28.9955C71.8734 28.9521 71.8506 28.9119 71.8206 28.8774C71.7906 28.843 71.754 28.8148 71.7129 28.7948C71.6719 28.7747 71.6272 28.763 71.5816 28.7605C63.3172 28.076 58.2582 34.3916 51.7871 37.6489C42.0878 42.5595 28.9236 39.5579 22.5315 50.4754C22.4852 50.5505 22.4706 50.6408 22.4909 50.7266C22.5112 50.8124 22.5648 50.8866 22.6398 50.9329C22.7148 50.9792 22.8052 50.9938 22.891 50.9735C22.9768 50.9532 23.051 50.8996 23.0973 50.8246Z" fill="#38A1FF"/>
<path d="M27.0145 54.9901C27.1439 54.8668 27.8246 54.2688 28.0964 54.0054C30.0308 52.088 32.4181 50.6902 35.0369 49.9417C35.1265 49.9201 35.2039 49.8639 35.2524 49.7855C35.3009 49.7071 35.3164 49.6127 35.2957 49.5229C35.2851 49.4779 35.2655 49.4356 35.2382 49.3984C35.2108 49.3612 35.1762 49.3299 35.1364 49.3064C35.0966 49.283 35.0525 49.2678 35.0067 49.2618C34.9609 49.2559 34.9144 49.2592 34.8699 49.2717C31.9688 49.6983 29.3071 51.1228 27.343 53.3001C27.0182 53.6975 26.7328 54.1255 26.4907 54.5781C26.4361 54.6476 26.4113 54.7359 26.4218 54.8236C26.4323 54.9114 26.4772 54.9913 26.5466 55.046C26.6161 55.1006 26.7044 55.1254 26.7921 55.1149C26.8799 55.1044 26.9599 55.0595 27.0145 54.9901Z" fill="#38A1FF"/>
<path d="M54.1801 43.7869C61.3181 42.6858 67.5157 33.9667 74.1491 34.3189C74.1956 34.3249 74.2428 34.3214 74.2879 34.3087C74.333 34.2959 74.375 34.2742 74.4114 34.2447C74.4478 34.2152 74.4779 34.1786 74.4997 34.1372C74.5216 34.0958 74.5348 34.0503 74.5386 34.0036C74.5424 33.9569 74.5367 33.91 74.5218 33.8655C74.5069 33.8211 74.4831 33.7802 74.4519 33.7452C74.4207 33.7103 74.3827 33.682 74.3403 33.6622C74.2979 33.6423 74.2519 33.6313 74.205 33.6297C68.5303 32.9551 63.8051 38.0648 58.2299 41.254C56.9007 42.0227 55.4965 42.6539 54.0392 43.1376C53.9527 43.1573 53.8773 43.2098 53.829 43.2842C53.7807 43.3585 53.7632 43.4488 53.7804 43.5358C53.8004 43.6219 53.8537 43.6966 53.9285 43.7436C54.0034 43.7906 54.0938 43.8062 54.1801 43.7869Z" fill="#38A1FF"/>
<path d="M30.4243 61.6456C33.0866 59.8707 32.2275 59.9925 36.6664 57.84C36.7501 57.8061 36.8174 57.7411 36.8541 57.6586C36.8909 57.5761 36.8943 57.4826 36.8636 57.3977C36.8328 57.3127 36.7704 57.243 36.6894 57.2031C36.6083 57.1633 36.515 57.1563 36.429 57.1838C35.8027 57.3291 35.1867 57.5159 34.5851 57.7428C33.1405 58.3417 31.8124 59.19 30.6616 60.249C30.3895 60.5345 30.1484 60.8482 29.9426 61.1847C29.8815 61.2485 29.8482 61.3341 29.8502 61.4225C29.8521 61.5108 29.8891 61.5948 29.953 61.656C30.0168 61.7171 30.1024 61.7503 30.1907 61.7484C30.2791 61.7465 30.3631 61.7095 30.4243 61.6456Z" fill="#38A1FF"/>
<path d="M61.2438 49.3169C67.5295 46.6476 70.9063 42.8696 76.9409 40.296C79.2624 39.2545 81.7701 38.6918 84.314 38.6413C84.3598 38.6422 84.4054 38.6342 84.4481 38.6175C84.4909 38.6008 84.5299 38.5759 84.563 38.5442C84.5961 38.5124 84.6226 38.4745 84.641 38.4325C84.6595 38.3905 84.6695 38.3452 84.6704 38.2994C84.6714 38.2535 84.6633 38.208 84.6466 38.1652C84.6299 38.1225 84.605 38.0835 84.5733 38.0504C84.5415 38.0173 84.5036 37.9907 84.4616 37.9723C84.4196 37.9539 84.3744 37.9439 84.3285 37.943C75.2035 37.4835 68.9867 44.316 60.9581 48.7166C60.8785 48.7544 60.8172 48.8224 60.7877 48.9054C60.7582 48.9885 60.7629 49.0799 60.8008 49.1595C60.8387 49.2391 60.9066 49.3004 60.9897 49.3299C61.0728 49.3595 61.1642 49.3548 61.2438 49.3169Z" fill="#38A1FF"/>
<path d="M89.5102 21.1731C87.4282 22.752 84.236 20.5911 81.4702 21.6264C81.3573 21.6677 81.2618 21.7462 81.1996 21.8491C81.1374 21.952 81.1121 22.073 81.1279 22.1922C81.4074 24.4434 82.0414 28.1778 82.3975 29.8057C80.693 28.9298 79.072 31.6006 79.072 31.9536H79.0865C78.7274 33.4613 80.1716 34.5646 81.8584 34.4115C83.5912 34.2668 84.5109 32.8969 83.5759 31.109C83.3531 30.6947 83.4871 31.1427 83.3554 29.7889C83.1823 27.8876 82.5897 25.118 82.252 22.5062C84.5782 21.9541 87.6465 23.6777 89.9536 21.7037C90.0239 21.6449 90.0681 21.5606 90.0762 21.4692C90.0844 21.3779 90.056 21.2871 89.9972 21.2167C89.9384 21.1463 89.8541 21.1022 89.7627 21.094C89.6714 21.0858 89.5806 21.1143 89.5102 21.1731ZM79.7466 32.1144C80.1388 31.5068 80.6859 31.0149 81.3316 30.6894C81.7711 30.5293 82.1969 30.7522 82.6234 31.6082C83.8477 33.9567 79.889 33.7515 79.7466 32.1144Z" fill="#191919"/>
<path d="M25.4015 59.8891C24.1464 60.0422 20.8654 58.6938 19.311 59.2956C18.8959 58.3046 18.5764 57.2762 18.3569 56.2244C18.3469 56.1133 18.3079 55.9763 18.3714 55.9349C20.654 54.4295 22.6893 58.0108 25.2629 57.5429C25.3491 57.5227 25.4244 57.4705 25.4737 57.3968C25.5229 57.3232 25.5424 57.2337 25.5282 57.1462C25.5141 57.0588 25.4672 56.98 25.3972 56.9257C25.3272 56.8715 25.2393 56.8457 25.1511 56.8538C22.9305 57.1463 20.8439 53.2289 17.7841 55.1011C16.9801 55.5605 17.3944 56.9809 17.68 57.873C18.5093 60.4802 21.5805 66.9084 19.677 68.7162C18.8041 69.5585 18.0521 69.2522 17.6861 68.2346C17.5058 67.7296 17.4772 67.1829 17.6037 66.6618C17.7303 66.1407 18.0064 65.668 18.3982 65.3019C18.4323 65.2735 18.4604 65.2384 18.4807 65.1989C18.501 65.1595 18.5131 65.1163 18.5164 65.072C18.5197 65.0277 18.5141 64.9832 18.4999 64.9412C18.4856 64.8991 18.4631 64.8603 18.4336 64.8271C18.4041 64.7939 18.3682 64.767 18.3281 64.7479C18.288 64.7289 18.2445 64.718 18.2001 64.7161C18.1558 64.7142 18.1115 64.7212 18.0699 64.7367C18.0283 64.7523 17.9902 64.776 17.9579 64.8065C15.6478 66.6702 16.536 70.3127 18.775 70.2668C19.4008 70.2242 19.987 69.9449 20.4144 69.4858C22.4711 67.5301 20.6686 62.9075 19.6647 60.2382C21.7322 60.0307 23.6219 61.2099 25.5477 60.5683C25.6378 60.5489 25.7164 60.4945 25.7664 60.4171C25.8164 60.3397 25.8336 60.2456 25.8142 60.1555C25.7948 60.0655 25.7404 59.9868 25.663 59.9368C25.5856 59.8869 25.4915 59.8697 25.4015 59.8891Z" fill="#191919"/>
<path d="M42.1997 60.8233C41.8498 61.1286 41.5832 61.5178 41.4248 61.9543C41.3548 62.1816 41.3303 62.4205 41.3528 62.6573C41.3753 62.8941 41.4443 63.1242 41.5558 63.3343C41.6674 63.5444 41.8192 63.7305 42.0028 63.8818C42.1863 64.0331 42.3979 64.1467 42.6254 64.2162C43.1446 64.3831 44.094 64.4214 44.0358 63.8816C43.9983 63.5508 43.7219 63.6251 43.2119 63.4551C42.849 63.3019 42.2716 62.8172 42.4516 62.2896C42.6072 61.959 42.814 61.6548 43.0642 61.3884C43.1851 61.1893 43.5504 60.53 43.2318 60.3271C42.96 60.161 42.6024 60.4879 42.1997 60.8233Z" fill="#191919"/>
<path d="M47.9169 77.3872C47.3043 76.1751 47.4621 73.7715 45.753 73.7884C43.0876 73.8711 41.8387 71.8228 41.2491 69.1872C40.6283 65.9864 40.2784 62.739 40.2031 59.4795C40.7705 59.8141 41.9038 60.1411 42.1702 59.6097C42.4214 59.0974 41.3861 58.0836 40.2 57.9404C40.2123 56.9281 40.2613 55.6884 40.3639 54.6892C40.4468 54.719 40.5311 54.7446 40.6166 54.7657C41.439 54.971 41.8456 55.68 42.2361 55.4082C42.5179 55.203 42.3042 54.8201 42.1182 54.4931C41.928 54.2446 41.6826 54.0438 41.4013 53.9065C41.1201 53.7692 40.8108 53.6993 40.4979 53.7022C40.5101 53.6311 40.5231 53.5601 40.537 53.4893C40.5533 53.4047 40.5363 53.317 40.4894 53.2447C40.4426 53.1723 40.3697 53.1209 40.2858 53.1011C40.2019 53.0813 40.1136 53.0948 40.0394 53.1386C39.9652 53.1824 39.9108 53.2532 39.8876 53.3362C39.2925 55.43 39.0427 57.6069 39.1479 59.7812C39.2128 63.0203 39.5654 66.2472 40.2016 69.4238C40.8486 72.1605 42.1764 74.4844 45.0057 74.7019C45.877 74.7494 46.0294 74.5441 46.3258 75.0847C46.8939 76.1146 47.0402 78.2111 47.7806 77.8566C47.8592 77.8108 47.9172 77.7365 47.9426 77.6492C47.9679 77.5618 47.9588 77.468 47.9169 77.3872Z" fill="#191919"/>
<path d="M57.37 58.6318C57.9774 56.3937 58.4126 54.1124 58.6717 51.8078C58.785 50.1324 58.2276 48.614 56.6808 47.9394C56.0093 45.9968 54.1218 45.1239 52.1838 44.4416C48.2021 43.0633 42.1529 43.7563 38.757 46.6691C37.1214 48.0573 36.76 50.8866 38.855 51.745C40.4798 52.3943 42.3283 51.8652 49.2587 50.5857C49.4783 52.6205 50.0599 54.5996 50.9762 56.4296C51.5759 57.5758 52.4081 58.5843 53.4196 59.3907C53.6999 59.6204 54.1088 59.3631 55.8937 59.1724C56.1115 59.1497 56.3317 59.1719 56.5406 59.2377C56.7495 59.3036 56.9427 59.4117 57.1081 59.5553C58.958 61.1587 58.7245 63.2238 57.386 64.403C57.3116 64.456 57.2605 64.5357 57.2435 64.6255C57.2265 64.7153 57.245 64.8082 57.2949 64.8847C57.3198 64.9231 57.352 64.9562 57.3898 64.982C57.4277 65.0078 57.4702 65.0258 57.5151 65.035C57.56 65.0441 57.6062 65.0442 57.6511 65.0352C57.696 65.0262 57.7386 65.0084 57.7765 64.9827C60.5959 63.4413 59.6288 59.3891 57.37 58.6318ZM48.1048 45.7165C43.5503 46.8544 42.9033 47.2663 41.4507 48.0765C41.3313 48.1416 40.3703 48.6316 40.3405 48.6485C40.2725 48.6993 40.1875 48.7219 40.1033 48.7117C40.019 48.7015 39.9419 48.6593 39.888 48.5937C39.8341 48.5282 39.8075 48.4444 39.8138 48.3598C39.82 48.2751 39.8587 48.1962 39.9216 48.1393C40.1384 47.8778 40.3741 47.6326 40.6268 47.4057C42.2043 46.3002 44.0098 45.5631 45.9103 45.2487C46.5994 45.13 47.3 45.0741 47.9984 45.0251C48.0456 45.0135 48.0946 45.0119 48.1425 45.0204C48.1903 45.0288 48.2359 45.0471 48.2762 45.0742C48.3166 45.1012 48.3509 45.1363 48.377 45.1773C48.403 45.2183 48.4203 45.2643 48.4276 45.3123C48.4349 45.3603 48.4321 45.4094 48.4194 45.4563C48.4068 45.5032 48.3845 45.5469 48.354 45.5847C48.3235 45.6225 48.2854 45.6536 48.2423 45.6759C48.1991 45.6982 48.1518 45.7112 48.1033 45.7142L48.1048 45.7165ZM52.0643 46.1553C51.9663 46.6453 50.6592 46.4616 50.3882 46.3084C50.3116 46.264 49.8889 45.921 49.9349 45.6867C49.9869 45.4194 50.5306 45.2985 50.6118 45.2962C50.8393 45.3207 51.064 45.3673 51.2825 45.4355C51.5988 45.5397 52.1348 45.8092 52.0658 46.1553H52.0643Z" fill="#191919"/>
</svg>
