<svg width="154" height="154" viewBox="0 0 154 154" fill="none" xmlns="http://www.w3.org/2000/svg">
<path d="M38.4836 57.8831C22.487 59.2141 13.286 61.772 13.286 61.772C13.286 61.772 13.0835 62.482 14.0044 65.1457C14.6522 66.9115 15.5781 68.5625 16.7471 70.036C16.516 70.3146 16.3428 70.6364 16.2375 70.9826C16.1322 71.3288 16.0969 71.6926 16.1337 72.0526C16.1951 72.7713 16.4056 73.4693 16.7518 74.1021C17.098 74.7348 17.5722 75.2886 18.1443 75.7279C18.7164 76.1672 19.3737 76.4825 20.0744 76.6537C20.7751 76.8249 21.5038 76.8482 22.214 76.7221C22.214 77.1055 25.6858 80.0881 25.7372 80.3396C25.4742 81.1654 25.179 82.4995 25.0364 83.1819C25.6616 84.0374 26.5811 84.6314 27.6179 84.8498C28.6547 85.0682 29.7356 84.8956 30.6528 84.365C30.7305 84.3304 30.7958 84.2728 30.8399 84.2001C30.8841 84.1273 30.9049 84.0428 30.8997 83.9579C31.0316 83.0378 30.9565 82.1867 31.8467 81.9597C32.6763 81.8179 33.0804 81.9743 33.7505 81.8647C37.9722 80.9346 41.5621 76.8808 41.924 71.9291C42.147 67.0142 40.9528 62.1386 38.4836 57.8831Z" fill="white"/>
<path d="M115.213 131.559C120.991 133.621 127.246 133.95 133.209 132.506C134.436 132.237 135.595 131.715 136.609 130.972C138.611 129.282 139.009 126.304 139.536 123.546C139.63 123.316 139.63 123.057 139.536 122.826C139.365 122.543 138.977 122.504 138.655 122.495C132.355 122.318 126.054 122.768 119.844 123.84C117.779 124.197 114.19 124.066 113.574 126.397C113.077 128.282 113.164 130.814 115.213 131.559Z" fill="white"/>
<path d="M134.166 137.009C133.248 137.671 132.403 138.43 131.647 139.272C131.542 139.369 131.468 139.493 131.432 139.631C131.397 139.769 131.402 139.914 131.447 140.049C131.521 140.169 131.633 140.261 131.765 140.311C131.897 140.361 132.042 140.365 132.176 140.323C132.633 140.177 132.804 139.974 133.54 139.357C132.543 140.466 131.9 141.848 131.694 143.326C131.677 143.424 131.683 143.524 131.711 143.619C131.739 143.714 131.788 143.802 131.855 143.875C132.11 144.083 132.48 143.875 132.707 143.6C133.272 143.003 133.762 142.338 134.164 141.621C133.309 143.728 133.244 143.773 133.235 144.254C133.349 146.404 135.849 143.089 136.077 142.54C135.973 142.956 135.31 144.529 135.707 144.84C135.805 144.897 135.916 144.927 136.029 144.927C136.142 144.927 136.254 144.897 136.351 144.84C136.551 144.73 136.726 144.578 136.863 144.395C138.155 142.839 138.953 140.932 139.155 138.92L134.166 137.009Z" fill="white"/>
<path d="M133.673 136.611C135.193 137.558 136.838 138.289 138.56 138.78C138.761 138.876 138.981 138.928 139.204 138.932C139.427 138.935 139.648 138.89 139.852 138.8C140.056 138.71 140.238 138.577 140.386 138.41C140.533 138.243 140.643 138.046 140.707 137.832C142.845 134.468 144.744 130.958 146.39 127.328C147.484 125.311 148.433 123.219 149.232 121.067C149.962 119.029 149.615 116.575 149.308 114.485C148.554 109.679 147.31 104.962 145.595 100.41C143.973 95.9916 142.1 89.6406 136.891 88.2183C134.845 89.8376 132.382 91.6564 129.845 92.3955C128.024 92.7835 126.164 92.9582 124.303 92.9161C121.35 93.025 117.827 92.2874 115.447 90.4441C114.935 90.0477 113.97 88.5503 113.345 88.4644C113.213 88.4561 113.083 88.4929 112.975 88.5687C106.765 91.7277 102.931 100.397 98.9959 105.667C93.9354 102.399 87.8014 99.501 83.595 95.05C81.9379 96.0522 80.467 97.334 79.2476 98.8385C81.8744 104.629 85.6733 109.811 90.4045 114.059C92.4455 115.816 94.7369 117.259 97.2033 118.34C100.73 119.813 104.148 118.53 106.639 115.252C106.516 117.495 106.516 119.744 106.639 121.987C106.64 122.532 106.784 123.067 107.056 123.54C107.457 124.002 107.989 124.332 108.581 124.487C117.352 127.802 126.905 128.46 136.048 126.382C135.443 129.832 134.65 133.247 133.673 136.611Z" fill="#FFB43B"/>
<path d="M82.9836 95.5988C83.0011 94.0436 82.768 92.4956 82.2935 91.0144C82.2218 90.7102 82.0677 90.4317 81.848 90.2093C81.7369 90.0992 81.5902 90.0321 81.4342 90.02C81.2782 90.0079 81.1229 90.0517 80.9962 90.1434C80.5963 90.8257 80.4581 91.6302 80.6074 92.4068C80.0251 91.03 79.0666 89.8451 77.8418 88.9879C77.4737 88.7311 76.8948 88.5141 76.6104 88.8269C76.3259 89.1397 76.5061 89.7669 76.7637 90.1304C77.2276 90.7951 77.6945 91.4584 78.2129 92.0818C77.369 91.2079 76.2843 90.6048 75.0968 90.3489C74.9981 90.3064 74.8918 90.2845 74.7843 90.2845C74.6769 90.2845 74.5706 90.3064 74.4719 90.3489C74.1215 90.595 74.3377 91.1448 74.6045 91.4852C75.1074 92.1245 75.6862 92.7003 76.3282 93.1997C75.8243 93.1891 75.3292 93.066 74.879 92.8393C73.7044 92.4874 72.8755 93.5225 74.386 94.4686C76.2277 95.6378 77.909 97.042 79.3875 98.6459L82.9836 95.5988Z" fill="white"/>
<path d="M46.516 124.203C47.6255 117.332 47.6992 110.334 46.7345 103.441C46.5901 101.015 46.0525 98.6287 45.1427 96.3753C43.8899 93.3643 41.4378 91.0541 39.1567 88.7316C37.8078 87.3403 36.3683 86.0399 34.8476 84.8388C34.4733 84.5069 34.0371 84.2524 33.564 84.0899C33.0909 83.9274 32.5904 83.8601 32.0912 83.8919C30.6635 84.138 29.5003 84.9116 27.9507 84.7729C27.0889 84.6962 25.1091 84.1288 24.853 83.106C24.8379 83.6264 24.7517 84.1423 24.5969 84.6395C24.5969 84.6395 19.6016 86.1507 18.3479 86.6989C17.6636 86.9175 17.0639 87.3428 16.6311 87.9161C16.1983 88.4895 15.9538 89.1829 15.9311 89.9009C15.1828 94.9676 14.4421 100.263 16.0922 105.112C17.9577 110.595 22.3657 114.308 27.5052 126.101C28.9904 129.507 30.2701 133.054 32.4124 136.093C35.3951 140.328 40.0393 139.708 42.831 135.657C45.1174 132.338 45.8673 128.084 46.516 124.203Z" fill="#FFB43B"/>
<path d="M41.3823 141.441C44.526 140.828 46.9612 138.41 49.1871 136.117C49.5821 135.756 49.9037 135.322 50.134 134.839C50.3011 134.33 50.3655 133.792 50.3234 133.258C50.2674 130.789 50.0014 128.33 49.5283 125.907C48.2226 126.147 46.9033 126.305 45.578 126.381C44.3054 126.377 43.0363 126.247 41.7895 125.993H41.6852C41.5817 125.993 41.5725 126.173 41.5817 126.277C41.9851 129.426 42.13 132.603 42.0149 135.776C42.008 136.17 41.5978 141.398 41.3823 141.441Z" fill="white"/>
<path d="M42.0452 85.6249C39.1998 84.1934 36.1251 84.2709 33.0474 83.8538C36.8359 86.4492 38.4146 91.4538 39.4405 95.6747C40.0523 98.0722 40.3391 100.541 40.2931 103.015L42.358 103.29C42.4615 103.29 44.9557 94.2524 45.195 93.4105C45.3362 92.9401 45.507 92.4792 45.7064 92.0304C45.7064 92.0304 47.4254 92.0066 48.4629 92.0656C47.0775 89.2804 44.8254 87.0203 42.0452 85.6249Z" fill="white"/>
<path d="M25.7632 80.8611C26.6764 82.5053 28.0357 83.8579 29.6843 84.7631C30.0343 84.6728 30.3717 84.5394 30.6888 84.3659C30.7667 84.3314 30.8322 84.2738 30.8762 84.2008C30.9203 84.1278 30.9408 84.043 30.9349 83.958C31.02 83.2196 30.9916 82.5372 31.4371 82.1684C29.4495 81.8793 27.5286 81.241 25.7632 80.283C25.7777 80.4754 25.7777 80.6686 25.7632 80.8611Z" fill="#FFE55D"/>
<path d="M28.2644 66.9761C27.7277 65.9931 26.6903 66.0866 26.6351 67.1179C26.5844 67.5339 26.6674 67.9552 26.872 68.3209C26.9261 68.4762 27.0222 68.6133 27.1496 68.7172C27.277 68.821 27.4308 68.8875 27.5937 68.9091C27.7567 68.9307 27.9224 68.9067 28.0725 68.8397C28.2226 68.7726 28.3512 68.6653 28.4438 68.5295C28.5332 68.2738 28.5634 68.0012 28.5324 67.7322C28.5013 67.4631 28.4097 67.2046 28.2644 66.9761Z" fill="#4B1010"/>
<path d="M38.6828 65.2991C37.9927 62.3303 35.7692 65.4088 37.1861 66.5022C37.3666 66.5979 37.5712 66.6387 37.7747 66.6194C37.9781 66.6 38.1714 66.5215 38.3306 66.3935C38.4899 66.2655 38.6081 66.0936 38.6707 65.8991C38.7333 65.7046 38.7375 65.496 38.6828 65.2991Z" fill="#4B1010"/>
<path d="M36.4093 71.9831C36.3459 71.9832 36.2836 71.9675 36.2278 71.9375C36.172 71.9075 36.1245 71.8642 36.0895 71.8114C35.0552 70.2495 32.9934 67.7806 33.4504 65.8308L33.9104 63.8334C33.9211 63.7837 33.9416 63.7366 33.9707 63.6949C33.9998 63.6531 34.0369 63.6176 34.0798 63.5904C34.1228 63.5632 34.1707 63.5447 34.2209 63.5362C34.271 63.5277 34.3223 63.5292 34.3719 63.5407C34.4214 63.5522 34.4681 63.5734 34.5094 63.6032C34.5506 63.6329 34.5856 63.6705 34.6121 63.7139C34.6387 63.7573 34.6564 63.8055 34.6641 63.8557C34.6718 63.906 34.6695 63.9573 34.6572 64.0067L34.1972 66.0025C33.8269 67.5843 35.8549 70.0663 36.7275 71.3874C36.7658 71.4451 36.7879 71.5121 36.7912 71.5813C36.7946 71.6505 36.7791 71.7193 36.7465 71.7804C36.7138 71.8415 36.6652 71.8926 36.6059 71.9283C36.5465 71.964 36.4785 71.983 36.4093 71.9831Z" fill="#4B1010"/>
<path d="M39.5489 61.9382C39.1029 61.7037 38.6026 61.5919 38.0993 61.6144C37.5959 61.6369 37.1076 61.7929 36.6843 62.0663C36.5817 62.1258 36.5051 62.2217 36.4697 62.335C36.4344 62.4483 36.4429 62.5708 36.4935 62.6781C36.5441 62.7855 36.6331 62.87 36.743 62.9148C36.8529 62.9597 36.9756 62.9617 37.0869 62.9204C37.3857 62.7665 37.7141 62.6783 38.0498 62.6616C38.3856 62.6449 38.721 62.7002 39.0336 62.8238C39.5934 63.2777 40.2313 62.3001 39.5489 61.9382Z" fill="#4B1010"/>
<path d="M28.8237 63.8409C28.2548 63.7199 27.6646 63.7432 27.107 63.9086C26.5494 64.074 26.042 64.3762 25.631 64.7878C25.5868 64.832 25.5518 64.8844 25.5279 64.9421C25.504 64.9998 25.4917 65.0616 25.4917 65.124C25.4917 65.1865 25.504 65.2483 25.5279 65.306C25.5518 65.3637 25.5868 65.4161 25.631 65.4603C25.6751 65.5044 25.7275 65.5394 25.7852 65.5633C25.8429 65.5872 25.9047 65.5995 25.9672 65.5995C26.0296 65.5995 26.0915 65.5872 26.1491 65.5633C26.2068 65.5394 26.2593 65.5044 26.3034 65.4603C27.1008 64.5532 28.5684 64.8706 28.7731 64.7809C29.1404 64.6222 29.2078 63.9513 28.8237 63.8409Z" fill="#4B1010"/>
<path d="M29.7909 75.0662C29.7485 75.0391 29.7118 75.0039 29.6829 74.9627C29.6541 74.9214 29.6336 74.8749 29.6228 74.8257C29.6119 74.7765 29.6109 74.7257 29.6196 74.6761C29.6284 74.6266 29.6469 74.5792 29.674 74.5368C29.7011 74.4943 29.7362 74.4576 29.7775 74.4288C29.8188 74.3999 29.8653 74.3795 29.9145 74.3686C29.9636 74.3578 30.0145 74.3567 30.064 74.3655C30.1136 74.3743 30.161 74.3927 30.2034 74.4198C31.0025 74.9335 31.9204 75.2327 32.8686 75.2886C33.8169 75.3445 34.7636 75.1551 35.6174 74.7388C35.6629 74.7152 35.7127 74.701 35.7638 74.697C35.8149 74.693 35.8662 74.6992 35.9149 74.7154C35.9635 74.7316 36.0084 74.7574 36.0469 74.7912C36.0854 74.825 36.1167 74.8662 36.139 74.9124C36.1613 74.9585 36.1741 75.0086 36.1767 75.0598C36.1793 75.111 36.1716 75.1622 36.1541 75.2103C36.1365 75.2585 36.1095 75.3026 36.0746 75.3402C36.0398 75.3777 35.9977 75.4079 35.951 75.4289C34.9796 75.903 33.9024 76.1188 32.8234 76.0552C31.7443 75.9917 30.6999 75.6511 29.7909 75.0662Z" fill="#4B1010"/>
<path d="M17.4666 66.8091C17.4014 66.809 17.3373 66.7923 17.2804 66.7605C17.2234 66.7287 17.1755 66.6829 17.1412 66.6274C17.1069 66.572 17.0874 66.5087 17.0844 66.4435C17.0814 66.3784 17.0951 66.3135 17.1242 66.2552L17.1901 66.1226C17.2126 66.0776 17.2437 66.0375 17.2817 66.0045C17.3197 65.9715 17.3638 65.9463 17.4116 65.9304C17.4593 65.9144 17.5097 65.9081 17.5599 65.9116C17.6101 65.9151 17.6591 65.9285 17.7041 65.951C17.7492 65.9735 17.7893 66.0046 17.8223 66.0426C17.8553 66.0806 17.8805 66.1248 17.8964 66.1725C17.9123 66.2202 17.9187 66.2707 17.9152 66.3209C17.9116 66.3711 17.8982 66.4201 17.8757 66.4651C17.8244 66.5677 17.7424 66.8091 17.4666 66.8091Z" fill="#4B1010"/>
<path d="M18.9148 65.5115H18.8489C18.7473 65.5115 18.6498 65.4711 18.578 65.3993C18.5062 65.3275 18.4658 65.23 18.4658 65.1284C18.4658 65.0268 18.5062 64.9294 18.578 64.8576C18.6498 64.7857 18.7473 64.7454 18.8489 64.7454C18.9539 64.7443 19.0554 64.7834 19.1327 64.8545C19.21 64.9257 19.2573 65.0236 19.2649 65.1284C19.2685 65.1769 19.2622 65.2256 19.2464 65.2716C19.2305 65.3175 19.2054 65.3597 19.1726 65.3956C19.1398 65.4315 19.1 65.4603 19.0557 65.4802C19.0113 65.5001 18.9634 65.5108 18.9148 65.5115Z" fill="#4B1010"/>
<path d="M16.2913 65.218H16.1687C16.0671 65.218 15.9697 65.1777 15.8978 65.1058C15.826 65.034 15.7856 64.9365 15.7856 64.835C15.7856 64.7334 15.826 64.6359 15.8978 64.5641C15.9697 64.4923 16.0671 64.4519 16.1687 64.4519H16.2913C16.3929 64.4519 16.4903 64.4923 16.5621 64.5641C16.634 64.6359 16.6743 64.7334 16.6743 64.835C16.6743 64.9365 16.634 65.034 16.5621 65.1058C16.4903 65.1777 16.3929 65.218 16.2913 65.218Z" fill="#4B1010"/>
<path d="M19.247 68.0879C19.1825 68.0879 19.1191 68.0716 19.0625 68.0406C19.006 68.0096 18.9582 67.9648 18.9236 67.9104C18.889 67.856 18.8687 67.7938 18.8646 67.7294C18.8604 67.6651 18.8726 67.6008 18.8999 67.5424L18.9666 67.4007C18.9873 67.3543 19.0171 67.3125 19.0542 67.2778C19.0913 67.2431 19.1349 67.2161 19.1825 67.1984C19.2301 67.1807 19.2808 67.1726 19.3315 67.1746C19.3823 67.1767 19.4321 67.1888 19.4781 67.2103C19.5242 67.2318 19.5655 67.2622 19.5996 67.2998C19.6338 67.3374 19.6601 67.3814 19.6771 67.4293C19.6941 67.4772 19.7014 67.5279 19.6985 67.5787C19.6957 67.6294 19.6828 67.679 19.6606 67.7247C19.6246 67.8021 19.5411 68.0879 19.247 68.0879Z" fill="#4B1010"/>
<path d="M20.7339 69.3096C20.6288 69.3108 20.5272 69.2718 20.4499 69.2006C20.3725 69.1294 20.3253 69.0314 20.3179 68.9265C20.3142 68.878 20.3205 68.8293 20.3364 68.7834C20.3523 68.7374 20.3774 68.6952 20.4102 68.6593C20.443 68.6234 20.4828 68.5946 20.5271 68.5747C20.5715 68.5548 20.6194 68.5442 20.668 68.5435H20.7339C20.8355 68.5435 20.9329 68.5838 21.0048 68.6557C21.0766 68.7275 21.117 68.8249 21.117 68.9265C21.117 69.0281 21.0766 69.1255 21.0048 69.1974C20.9329 69.2692 20.8355 69.3096 20.7339 69.3096Z" fill="#4B1010"/>
<path d="M20.4211 66.6478C20.3195 66.6478 20.2221 66.6074 20.1503 66.5356C20.0784 66.4638 20.0381 66.3663 20.0381 66.2647V66.0571C20.0381 65.9555 20.0784 65.8581 20.1503 65.7863C20.2221 65.7144 20.3195 65.6741 20.4211 65.6741C20.5227 65.6741 20.6202 65.7144 20.692 65.7863C20.7638 65.8581 20.8042 65.9555 20.8042 66.0571V66.2647C20.8042 66.3663 20.7638 66.4638 20.692 66.5356C20.6202 66.6074 20.5227 66.6478 20.4211 66.6478Z" fill="#4B1010"/>
<path d="M17.0964 68.4189C16.9948 68.4189 16.8974 68.3785 16.8256 68.3067C16.7537 68.2348 16.7134 68.1374 16.7134 68.0358V67.8374C16.7134 67.7358 16.7537 67.6384 16.8256 67.5665C16.8974 67.4947 16.9948 67.4543 17.0964 67.4543C17.198 67.4543 17.2955 67.4947 17.3673 67.5665C17.4391 67.6384 17.4795 67.7358 17.4795 67.8374V68.0358C17.4795 68.1374 17.4391 68.2348 17.3673 68.3067C17.2955 68.3785 17.198 68.4189 17.0964 68.4189Z" fill="#4B1010"/>
<path d="M20.7548 73.0567C20.4238 72.5549 20.0088 72.114 19.528 71.7532C19.3151 71.5933 19.0695 71.4824 18.8088 71.4284C18.5481 71.3745 18.2786 71.3788 18.0198 71.4412C17.9208 71.4649 17.8165 71.4483 17.7298 71.3951C17.6431 71.3419 17.5811 71.2564 17.5574 71.1575C17.5337 71.0585 17.5503 70.9542 17.6035 70.8675C17.6567 70.7808 17.7422 70.7188 17.8411 70.6951C18.2097 70.6069 18.5931 70.601 18.9642 70.6779C19.3353 70.7547 19.6849 70.9125 19.988 71.1398C20.5395 71.5546 21.0152 72.0614 21.3942 72.6381C21.4405 72.7227 21.4531 72.8216 21.4297 72.9151C21.4062 73.0086 21.3484 73.0898 21.2678 73.1426C21.1871 73.1954 21.0895 73.2159 20.9945 73.2C20.8994 73.1841 20.8138 73.1329 20.7548 73.0567Z" fill="#4B1010"/>
<path d="M35.548 126.031C36.0768 123.924 36.8219 121.876 37.7716 119.922C38.0085 119.335 38.8795 114.059 39.1257 114.018C37.3736 114.283 35.8287 112.55 35.64 110.788C35.6018 109.007 36.0402 107.248 36.9098 105.693L33.957 106.64C31.2857 101.63 28.4234 96.5653 24.4286 92.4333C22.8783 90.83 20.0712 87.8021 17.7986 87.385C15.5259 86.9679 12.0326 89.9344 10.2208 91.4196C4.65034 95.9887 3.44654 103.304 4.21636 110.136C4.72625 114.66 6.19841 118.398 7.85305 122.563C8.65507 124.581 7.90366 126.294 7.50265 128.491C7.03289 131.068 6.66025 133.66 6.38473 136.268C6.24936 136.967 6.30229 137.689 6.53808 138.361C7.0495 139.516 8.43195 139.927 9.68175 140.208C12.6721 140.879 15.5918 142.993 18.6136 143.305C23.9364 143.855 29.1947 144.591 34.3649 142.746C35.199 142.443 35.9674 141.984 36.6284 141.392C37.4043 140.558 37.2755 126.44 37.3675 125.944C36.7411 125.956 36.1821 126.012 35.548 126.031Z" fill="white"/>
<path d="M129.382 85.3603C129.297 83.9035 129.193 78.731 128.992 77.6691C130.912 75.8575 132.274 73.5339 132.915 70.973C133.285 69.599 134.127 67.0987 133.389 65.8013C132.651 64.504 130.689 63.7365 129.43 63.0257C125.664 60.9279 120.014 56.1932 116.406 57.8931C114.152 59.0003 113.196 61.5489 112.618 63.8315C112.173 65.5697 111.966 67.3604 112.004 69.1543C112.014 70.9131 112.387 72.6508 113.101 74.2581C113.815 75.8654 114.855 77.3074 116.153 78.4933C117.11 79.3223 118.23 79.9408 119.441 80.3088C120.653 80.6768 121.928 80.7861 123.184 80.6295C123.016 82.1276 122.951 83.6356 122.991 85.1426C120.238 85.8435 117.525 86.6938 114.864 87.6897C114.491 87.8219 114.142 88.014 113.832 88.2586C115.773 91.3939 120.898 92.511 124.317 92.6245C126.464 92.6912 129.166 92.6245 131.08 91.6109C132.027 91.081 133.078 90.7207 134.044 90.1908C134.357 90.0199 136.714 88.2203 136.829 88.2962C134.424 87.1306 131.935 86.1492 129.382 85.3603Z" fill="white"/>
<path d="M116.634 66.5873C116.488 66.0872 116.254 65.6171 115.944 65.1987C115.871 65.1168 115.779 65.0545 115.676 65.0174C115.573 64.9803 115.462 64.9696 115.354 64.9863C114.923 64.9627 114.509 64.8111 114.165 64.5508C113.901 64.3844 113.488 64.6812 113.786 64.9871C114.178 65.2607 114.618 65.4576 115.083 65.5675C114.854 65.8784 114.707 66.2425 114.658 66.6256C114.625 66.8314 114.654 67.0422 114.741 67.2315C114.827 67.4209 114.968 67.5803 115.146 67.6897C115.323 67.7991 115.529 67.8535 115.737 67.8462C115.945 67.8389 116.146 67.7701 116.315 67.6485C116.451 67.511 116.551 67.3424 116.606 67.1574C116.662 66.9724 116.671 66.7767 116.634 66.5873Z" fill="#4B1010"/>
<path d="M125.092 65.5928C124.966 65.6297 124.832 65.6237 124.71 65.5757C124.588 65.5276 124.486 65.4403 124.419 65.3275C124.384 65.2918 124.341 65.2645 124.294 65.2476C124.247 65.2307 124.197 65.2246 124.147 65.2299C124.098 65.2351 124.05 65.2515 124.007 65.2779C123.965 65.3042 123.929 65.3399 123.902 65.3821C123.875 65.4243 123.858 65.472 123.852 65.5217C123.847 65.5714 123.852 65.6217 123.868 65.669C123.885 65.7162 123.912 65.7591 123.947 65.7945C123.982 65.8299 124.025 65.8569 124.072 65.8734C124.259 65.9842 124.454 66.0791 124.656 66.1571C124.488 66.4827 124.385 66.838 124.353 67.203C124.299 67.4488 124.338 67.7061 124.465 67.9239C124.591 68.1417 124.794 68.3042 125.035 68.3792C126.59 68.6329 126.693 65.4218 125.092 65.5928Z" fill="#4B1010"/>
<path d="M119.599 76.6416C119.257 76.6428 118.923 76.5425 118.639 76.3534C118.355 76.1644 118.133 75.895 118.002 75.5796C117.983 75.5331 117.973 75.4832 117.974 75.4328C117.974 75.3824 117.984 75.3326 118.003 75.2861C118.022 75.2396 118.051 75.1974 118.086 75.1618C118.122 75.1263 118.164 75.0981 118.211 75.0789C118.258 75.0598 118.307 75.0499 118.358 75.05C118.408 75.0501 118.458 75.0602 118.505 75.0795C118.551 75.0989 118.593 75.1272 118.629 75.1629C118.664 75.1986 118.692 75.2409 118.712 75.2875C118.792 75.4816 118.934 75.6438 119.116 75.7489C119.298 75.854 119.509 75.8961 119.718 75.8687C120.533 75.723 120.978 75.0943 121.374 74.2831C120.214 74.5224 119.027 74.5998 117.847 74.5131C117.796 74.5094 117.747 74.4958 117.702 74.473C117.657 74.4503 117.617 74.419 117.584 74.3807C117.551 74.3425 117.526 74.2982 117.51 74.2502C117.494 74.2023 117.488 74.1517 117.492 74.1013C117.495 74.051 117.509 74.0019 117.532 73.9568C117.555 73.9117 117.586 73.8715 117.624 73.8386C117.662 73.8056 117.707 73.7805 117.755 73.7647C117.803 73.7488 117.853 73.7426 117.904 73.7463C119.252 73.8471 120.609 73.7198 121.915 73.3699C121.982 73.3524 122.053 73.3533 122.119 73.3726C122.185 73.3919 122.245 73.4288 122.293 73.4795C122.34 73.5301 122.372 73.5925 122.387 73.6602C122.401 73.7278 122.397 73.7981 122.375 73.8637C122.174 74.4537 121.89 75.0123 121.532 75.5229C121.317 75.8455 121.031 76.1143 120.696 76.3083C120.361 76.5024 119.985 76.6164 119.599 76.6416Z" fill="#4B1010"/>
<path d="M127.639 65.5031C127.545 65.5029 127.454 65.4682 127.384 65.4057C126.8 64.8829 126.091 64.5184 125.326 64.347C124.561 64.1756 123.765 64.203 123.014 64.4266C122.916 64.4552 122.811 64.444 122.722 64.3952C122.632 64.3465 122.566 64.2642 122.538 64.1666C122.509 64.069 122.52 63.964 122.569 63.8747C122.618 63.7854 122.7 63.7192 122.797 63.6905C123.674 63.4296 124.603 63.3976 125.496 63.5976C126.388 63.7976 127.215 64.2229 127.896 64.8329C127.955 64.8847 127.996 64.9531 128.014 65.0289C128.033 65.1048 128.028 65.1844 128 65.2573C127.972 65.3301 127.922 65.3927 127.858 65.4366C127.793 65.4805 127.717 65.5037 127.639 65.5031Z" fill="#4B1010"/>
<path d="M113.233 64.0155C113.153 64.0155 113.075 63.9902 113.009 63.9432C112.944 63.8961 112.895 63.8297 112.87 63.7534C112.844 63.6771 112.844 63.5947 112.868 63.5179C112.892 63.4411 112.939 63.3738 113.003 63.3255C113.564 62.9066 114.256 62.7019 114.954 62.7481C115.582 62.7865 116.203 62.9 116.804 63.0863C116.901 63.1168 116.982 63.1846 117.029 63.2748C117.077 63.365 117.086 63.4703 117.055 63.5674C117.025 63.6645 116.957 63.7455 116.867 63.7926C116.777 63.8397 116.671 63.849 116.574 63.8185C116.031 63.6501 115.47 63.5472 114.903 63.5118C114.386 63.4774 113.875 63.6289 113.46 63.9389C113.395 63.988 113.315 64.0149 113.233 64.0155Z" fill="#4B1010"/>
<path d="M135.123 131.187C133.809 131.875 132.403 132.369 130.947 132.652C125.996 133.532 120.331 133.478 115.584 131.467C113.821 130.721 112.658 129.763 112.07 132.32C116.389 135.549 122.234 135.429 127.595 135.161C129.929 135.045 132.398 134.872 134.456 133.867C134.692 132.933 134.909 132.047 135.123 131.187Z" fill="white"/>
<path d="M121.91 130.762C121.844 130.762 121.779 130.745 121.722 130.713C121.665 130.681 121.617 130.635 121.582 130.579C121.548 130.523 121.529 130.459 121.526 130.393C121.524 130.327 121.538 130.262 121.568 130.204C121.639 130.066 121.675 129.913 121.675 129.758C121.675 129.603 121.639 129.45 121.568 129.312C121.544 129.267 121.528 129.218 121.523 129.167C121.518 129.116 121.523 129.064 121.538 129.015C121.553 128.966 121.578 128.92 121.611 128.881C121.644 128.842 121.684 128.81 121.73 128.786C121.776 128.763 121.825 128.749 121.877 128.745C121.928 128.741 121.979 128.748 122.028 128.765C122.076 128.781 122.121 128.807 122.159 128.841C122.198 128.875 122.229 128.917 122.251 128.963C122.376 129.209 122.442 129.482 122.442 129.758C122.442 130.034 122.376 130.307 122.251 130.553C122.219 130.616 122.17 130.668 122.11 130.705C122.049 130.742 121.98 130.762 121.91 130.762Z" fill="#4B1010"/>
<path d="M107.085 106.452C107.036 106.436 106.991 106.41 106.952 106.376C106.913 106.342 106.882 106.3 106.86 106.254C106.838 106.207 106.825 106.157 106.823 106.105C106.82 106.054 106.828 106.002 106.847 105.954C106.865 105.906 106.892 105.861 106.928 105.824C106.963 105.787 107.006 105.757 107.053 105.736C107.101 105.716 107.151 105.705 107.203 105.705C107.255 105.704 107.306 105.715 107.353 105.734C116.607 109.192 126.625 110.073 136.34 108.283C136.39 108.273 136.442 108.272 136.492 108.282C136.542 108.292 136.59 108.311 136.632 108.34C136.675 108.368 136.711 108.405 136.739 108.448C136.768 108.49 136.787 108.538 136.796 108.588C136.805 108.639 136.805 108.69 136.794 108.74C136.783 108.79 136.762 108.837 136.732 108.879C136.703 108.921 136.665 108.956 136.622 108.984C136.579 109.011 136.53 109.029 136.48 109.037C126.628 110.852 116.469 109.959 107.085 106.452Z" fill="white"/>
<path d="M106.439 112.942C106.393 112.92 106.351 112.889 106.317 112.851C106.283 112.813 106.257 112.768 106.24 112.719C106.223 112.671 106.217 112.619 106.22 112.568C106.224 112.517 106.238 112.467 106.261 112.421C106.284 112.376 106.316 112.335 106.356 112.302C106.395 112.269 106.44 112.244 106.489 112.229C106.538 112.214 106.59 112.208 106.641 112.214C106.692 112.219 106.742 112.234 106.787 112.259C116.759 117.354 128.336 118.318 139.014 114.942C139.062 114.927 139.112 114.922 139.163 114.926C139.213 114.931 139.261 114.945 139.306 114.968C139.351 114.991 139.39 115.023 139.423 115.062C139.455 115.1 139.479 115.145 139.495 115.193C139.51 115.241 139.515 115.292 139.511 115.342C139.506 115.392 139.492 115.441 139.469 115.485C139.445 115.53 139.414 115.57 139.375 115.602C139.336 115.634 139.292 115.659 139.244 115.674C128.375 119.11 116.59 118.129 106.439 112.942Z" fill="white"/>
<path d="M106.541 119.537C106.447 119.497 106.372 119.423 106.334 119.328C106.295 119.234 106.296 119.129 106.335 119.035C106.374 118.941 106.449 118.867 106.543 118.828C106.637 118.789 106.743 118.79 106.837 118.829C116.744 122.96 127.719 123.79 138.135 121.198C138.185 121.184 138.237 121.179 138.288 121.185C138.339 121.191 138.389 121.208 138.434 121.233C138.478 121.259 138.518 121.293 138.549 121.334C138.58 121.376 138.603 121.422 138.615 121.473C138.628 121.523 138.63 121.575 138.622 121.626C138.614 121.677 138.596 121.725 138.569 121.769C138.541 121.813 138.505 121.851 138.463 121.88C138.421 121.91 138.373 121.931 138.322 121.941C127.745 124.574 116.601 123.731 106.541 119.537Z" fill="white"/>
<path d="M80.5519 102.14C82.6924 101.261 84.5196 99.7601 85.7965 97.8307C85.8233 97.7867 85.8588 97.7485 85.9007 97.7185C85.9426 97.6886 85.9902 97.6673 86.0405 97.6561C86.0908 97.6449 86.1429 97.644 86.1936 97.6534C86.2443 97.6628 86.2926 97.6823 86.3356 97.7108C86.3785 97.7392 86.4153 97.7761 86.4437 97.8191C86.4721 97.8622 86.4916 97.9105 86.5009 97.9612C86.5102 98.0119 86.5091 98.064 86.4979 98.1143C86.4866 98.1646 86.4653 98.2121 86.4352 98.254C85.0741 100.311 83.1262 101.912 80.8441 102.848C80.7509 102.883 80.6478 102.881 80.5565 102.841C80.4653 102.801 80.3931 102.727 80.3551 102.635C80.3172 102.543 80.3165 102.44 80.3532 102.348C80.39 102.255 80.4612 102.181 80.5519 102.14Z" fill="white"/>
<path d="M83.3218 106.397C84.7698 105.985 86.1152 105.274 87.2715 104.309C88.4277 103.345 89.369 102.15 90.0347 100.799C90.057 100.754 90.0879 100.714 90.1258 100.68C90.1637 100.647 90.2078 100.621 90.2556 100.605C90.3034 100.589 90.3539 100.582 90.4043 100.585C90.4546 100.588 90.5039 100.602 90.5492 100.624C90.5945 100.646 90.635 100.677 90.6683 100.715C90.7017 100.753 90.7272 100.797 90.7435 100.845C90.7598 100.892 90.7666 100.943 90.7634 100.993C90.7601 101.044 90.747 101.093 90.7248 101.138C90.0116 102.585 89.0031 103.866 87.7645 104.898C86.5258 105.931 85.0845 106.693 83.5334 107.134C83.485 107.148 83.4343 107.152 83.3843 107.147C83.3342 107.141 83.2857 107.126 83.2417 107.101C83.1976 107.077 83.1588 107.044 83.1274 107.004C83.096 106.965 83.0727 106.92 83.0588 106.871C83.0449 106.823 83.0407 106.772 83.0464 106.722C83.0521 106.672 83.0676 106.624 83.092 106.58C83.1164 106.535 83.1493 106.497 83.1887 106.465C83.2282 106.434 83.2734 106.411 83.3218 106.397Z" fill="white"/>
<path d="M142.529 135.776C142.433 135.776 142.974 135.943 134.442 133.093C134.393 133.078 134.347 133.053 134.308 133.021C134.269 132.988 134.236 132.947 134.213 132.902C134.189 132.856 134.175 132.807 134.171 132.755C134.167 132.704 134.173 132.653 134.19 132.604C134.206 132.556 134.232 132.511 134.266 132.472C134.3 132.434 134.341 132.403 134.387 132.38C134.433 132.358 134.483 132.345 134.535 132.343C134.586 132.34 134.637 132.348 134.685 132.366L142.651 135.027C142.739 135.055 142.814 135.113 142.862 135.192C142.911 135.27 142.929 135.364 142.915 135.455C142.9 135.546 142.853 135.628 142.782 135.687C142.711 135.747 142.621 135.778 142.529 135.776Z" fill="white"/>
<path d="M144.356 131.832C141.939 130.742 139.464 129.788 136.941 128.973C136.558 128.815 136.134 128.786 135.733 128.892C135.636 128.917 135.532 128.903 135.445 128.852C135.358 128.802 135.294 128.719 135.267 128.621C135.241 128.524 135.254 128.42 135.304 128.332C135.353 128.244 135.436 128.18 135.533 128.152C136.084 128.003 136.668 128.038 137.198 128.252C139.705 129.024 142.152 129.976 144.521 131.103C144.6 131.14 144.663 131.203 144.701 131.281C144.739 131.359 144.749 131.448 144.73 131.533C144.71 131.618 144.663 131.693 144.595 131.748C144.527 131.802 144.443 131.832 144.356 131.832Z" fill="white"/>
<path d="M98.3249 26.9017C101.839 13.272 83.3971 5.53397 72.6856 4.47279C63.5043 3.60918 54.3212 6.1028 46.8377 11.4916C41.334 15.4787 38.5499 21.569 42.9158 27.877C45.0753 30.8113 48.0351 33.0605 51.4405 34.3553C58.2324 37.1723 68.3581 38.3991 75.8017 38.3224C76.2323 38.2693 76.6694 38.3282 77.0706 38.4934C79.3625 39.7248 83.5014 44.7639 85.5187 46.828C88.795 50.1595 92.1242 52.768 95.5631 55.7721C89.6166 50.5188 84.5388 44.3577 80.518 37.5174C83.6149 37.4139 89.0043 35.4149 90.1506 34.8935C93.9008 33.2098 97.2254 31.1825 98.3249 26.9017Z" fill="white"/>
<path d="M98.6963 26.9978C99.2078 25.1317 99.2908 23.1742 98.9392 21.2716C98.5876 19.3689 97.8105 17.5703 96.666 16.0103C91.4061 8.48233 79.4655 4.7567 72.722 4.08886C63.4478 3.2161 54.1718 5.7354 46.6134 11.1798C41.5528 14.8463 37.841 21.2165 42.6087 28.1034C44.8085 31.0972 47.8266 33.3916 51.2998 34.7105C58.1223 37.536 68.2625 38.7827 75.8534 38.706C76.2054 38.6624 76.5629 38.7064 76.8938 38.8341C79.0975 40.0179 83.2862 45.09 85.2514 47.1004C88.4357 50.3376 91.2566 52.5344 95.7674 56.4601C95.8439 56.5271 95.944 56.561 96.0455 56.5542C96.147 56.5474 96.2417 56.5006 96.3087 56.4241C96.3757 56.3475 96.4095 56.2475 96.4028 56.1459C96.396 56.0444 96.3492 55.9498 96.2727 55.8828C90.3176 50.712 85.2194 44.6304 81.1677 37.8641C84.388 37.549 89.214 35.7479 90.3096 35.2503C93.7385 33.7038 97.4979 31.6673 98.6963 26.9978ZM80.506 37.1365C80.4396 37.1388 80.3749 37.1583 80.3183 37.1931C80.2617 37.2278 80.2152 37.2767 80.1832 37.3349C80.1511 37.3932 80.1348 37.4587 80.1358 37.5251C80.1367 37.5915 80.1549 37.6566 80.1886 37.7139C82.5179 41.6786 85.2045 45.4224 88.2149 48.8984C87.3886 48.14 86.5815 47.361 85.7943 46.5621C83.7447 44.4659 79.6342 39.436 77.2174 38.1402C76.7691 37.9538 76.2805 37.8852 75.7982 37.9408C68.4159 38.016 58.534 36.7363 51.5781 33.9974C48.2534 32.7152 45.36 30.5175 43.2328 27.6587C39.4566 22.2041 40.8888 16.2763 47.0665 11.8024C54.473 6.46898 63.5615 4.00073 72.6483 4.85484C79.2493 5.50811 90.9253 9.13636 96.0342 16.4519C97.1132 17.922 97.846 19.6169 98.178 21.41C98.5099 23.2031 98.4323 25.048 97.9511 26.8069C96.9489 30.7111 94.0445 32.7239 89.9899 34.5464C88.895 35.0456 83.5316 37.0345 80.506 37.1365Z" fill="#4B1010"/>
<path d="M91.5341 19.3999L89.1756 19.0503L88.1274 16.9203C88.0959 16.856 88.0471 16.8018 87.9864 16.7638C87.9257 16.7259 87.8555 16.7057 87.7839 16.7056C87.7135 16.7098 87.6452 16.7315 87.5853 16.7687C87.5253 16.806 87.4755 16.8575 87.4404 16.9187L86.3831 19.0503L84.033 19.3999C83.9623 19.4104 83.896 19.4405 83.8415 19.4867C83.787 19.5329 83.7465 19.5935 83.7246 19.6615C83.7026 19.7295 83.7001 19.8023 83.7174 19.8716C83.7346 19.941 83.7709 20.0041 83.8221 20.054L85.5251 21.7124L85.1233 24.0526C85.1112 24.1231 85.1191 24.1957 85.146 24.262C85.173 24.3283 85.218 24.3857 85.2759 24.4278C85.3339 24.4698 85.4024 24.4948 85.4738 24.4999C85.5452 24.505 85.6167 24.49 85.68 24.4566L87.7839 23.3471C90.0558 24.5448 89.9308 24.4973 90.0666 24.4973C90.1224 24.4973 90.1775 24.4851 90.2281 24.4616C90.2787 24.4381 90.3236 24.4038 90.3596 24.3612C90.3956 24.3186 90.4218 24.2686 90.4365 24.2147C90.4512 24.1609 90.4539 24.1045 90.4446 24.0495L90.0428 21.7094L91.745 20.0509C91.7953 20.001 91.8308 19.938 91.8475 19.8691C91.8643 19.8002 91.8615 19.728 91.8397 19.6606C91.8178 19.5931 91.7777 19.533 91.7238 19.487C91.6698 19.441 91.6042 19.4109 91.5341 19.3999Z" fill="#4B1010"/>
<path d="M78.6993 17.0891L79.8456 19.4001L82.3935 19.7796L80.5464 21.5792L80.9819 24.1171L78.6993 22.9141L76.4167 24.1171L76.853 21.5792L75.0059 19.7796L77.563 19.4001L78.6993 17.0891Z" fill="#FFB43B"/>
<path d="M80.9828 24.5006C80.8517 24.5006 81.0058 24.5627 78.7002 23.3505L76.5962 24.4592C76.5329 24.4926 76.4615 24.5076 76.3901 24.5025C76.3187 24.4974 76.2501 24.4724 76.1922 24.4303C76.1342 24.3883 76.0892 24.3308 76.0623 24.2645C76.0353 24.1982 76.0274 24.1257 76.0395 24.0551L76.4413 21.715L74.7391 20.0565C74.6879 20.0067 74.6516 19.9435 74.6344 19.8742C74.6171 19.8048 74.6196 19.7321 74.6415 19.664C74.6635 19.596 74.704 19.5355 74.7585 19.4893C74.813 19.4431 74.8793 19.413 74.95 19.4025L77.3085 19.0528L78.3567 16.9228C78.3881 16.858 78.4371 16.8033 78.4981 16.7651C78.5591 16.7268 78.6297 16.7065 78.7017 16.7065C78.7737 16.7065 78.8443 16.7268 78.9053 16.7651C78.9663 16.8033 79.0153 16.858 79.0467 16.9228L80.1041 19.0544L82.4534 19.404C82.5241 19.4144 82.5906 19.4444 82.6452 19.4906C82.6998 19.5367 82.7404 19.5973 82.7624 19.6653C82.7844 19.7333 82.787 19.8062 82.7697 19.8756C82.7525 19.945 82.7163 20.0082 82.665 20.058L80.9621 21.7165L81.3639 24.0566C81.3727 24.1116 81.3694 24.1679 81.3542 24.2214C81.3391 24.275 81.3125 24.3247 81.2762 24.3669C81.2399 24.4092 81.1949 24.443 81.1442 24.4661C81.0935 24.4892 81.0385 24.501 80.9828 24.5006ZM78.7002 22.5277C78.832 22.5277 78.7577 22.5086 80.4737 23.4126L80.167 21.6406C80.1564 21.5793 80.161 21.5163 80.1802 21.4571C80.1994 21.398 80.2328 21.3444 80.2774 21.3009L81.5701 20.0419L79.7882 19.7766C79.727 19.7677 79.6689 19.744 79.6188 19.7077C79.5687 19.6714 79.5282 19.6235 79.5007 19.5681L78.6994 17.9518L77.9058 19.5666C77.8784 19.6223 77.8378 19.6706 77.7876 19.7072C77.7374 19.7438 77.679 19.7676 77.6175 19.7766L75.8264 20.0419L77.1184 21.3009C77.1629 21.3444 77.1963 21.398 77.2155 21.4571C77.2348 21.5163 77.2393 21.5793 77.2288 21.6406L76.9221 23.4126C78.645 22.5101 78.5683 22.5277 78.7002 22.5277Z" fill="#4B1010"/>
<path d="M69.0677 17.0891L70.204 19.4001L72.7611 19.7796L70.914 21.5792L71.3503 24.1171L69.0677 22.9141L66.7843 24.1171L67.2206 21.5792L65.3643 19.7796L67.9214 19.4001L69.0677 17.0891Z" fill="#FFB43B"/>
<path d="M71.3501 24.5004C71.2144 24.5004 71.3394 24.5449 69.0675 23.3503L66.9643 24.459C66.901 24.4924 66.8295 24.5074 66.7581 24.5023C66.6867 24.4972 66.6182 24.4722 66.5602 24.4301C66.5023 24.3881 66.4573 24.3307 66.4303 24.2643C66.4034 24.198 66.3955 24.1255 66.4076 24.0549L66.8086 21.7156L65.0972 20.0571C65.0458 20.0073 65.0093 19.9441 64.9919 19.8746C64.9746 19.8052 64.977 19.7322 64.9989 19.6641C65.0209 19.5959 65.0615 19.5353 65.1161 19.489C65.1708 19.4427 65.2373 19.4127 65.3081 19.4023L67.6674 19.0527L68.724 16.9211C68.7554 16.8563 68.8044 16.8016 68.8654 16.7634C68.9264 16.7251 68.997 16.7048 69.069 16.7048C69.141 16.7048 69.2116 16.7251 69.2726 16.7634C69.3336 16.8016 69.3827 16.8563 69.414 16.9211L70.4622 19.0511L72.8199 19.4008C72.8907 19.4112 72.9571 19.4411 73.0117 19.4873C73.0663 19.5335 73.1069 19.594 73.1289 19.662C73.151 19.7301 73.1535 19.8029 73.1363 19.8723C73.1191 19.9417 73.0828 20.0049 73.0316 20.0548L71.3294 21.7125L71.7312 24.0526C71.7406 24.1079 71.7378 24.1646 71.7229 24.2186C71.7081 24.2727 71.6815 24.3228 71.6452 24.3655C71.6089 24.4082 71.5636 24.4424 71.5126 24.4657C71.4616 24.489 71.4061 24.5009 71.3501 24.5004ZM69.0675 22.5276C69.1994 22.5276 69.1257 22.5084 70.841 23.4124L70.5343 21.6404C70.5237 21.5791 70.5283 21.5161 70.5475 21.457C70.5667 21.3978 70.6001 21.3442 70.6447 21.3008L71.9428 20.0448L70.1517 19.7795C70.0902 19.7705 70.0318 19.7467 69.9816 19.7101C69.9314 19.6735 69.8908 19.6252 69.8634 19.5694L69.0698 17.9547L68.2624 19.571C68.2348 19.6264 68.1943 19.6743 68.1442 19.7106C68.0942 19.7469 68.0361 19.7705 67.9749 19.7795L66.186 20.0448L67.488 21.3008C67.5328 21.3442 67.5664 21.3979 67.5858 21.4572C67.6051 21.5165 67.6097 21.5797 67.5991 21.6412L67.2925 23.4132C69.0123 22.5099 68.9364 22.5276 69.0675 22.5276Z" fill="#4B1010"/>
<path d="M59.9844 17.0891L61.1307 19.4001L63.6786 19.7796L61.8315 21.5792L62.2671 24.1171L59.9844 22.9141L57.7018 24.1171L58.1374 21.5792L56.291 19.7796L58.8481 19.4001L59.9844 17.0891Z" fill="#FFB43B"/>
<path d="M62.267 24.5004C62.1351 24.5004 62.29 24.5626 59.9843 23.3503L57.8804 24.4567C57.8171 24.4901 57.7457 24.5051 57.6742 24.5C57.6028 24.4949 57.5343 24.4699 57.4763 24.4279C57.4184 24.3858 57.3734 24.3284 57.3464 24.2621C57.3195 24.1958 57.3116 24.1232 57.3237 24.0527L57.7255 21.7125L56.0233 20.0541C55.9721 20.0042 55.9358 19.9411 55.9186 19.8718C55.9013 19.8024 55.9038 19.7296 55.9257 19.6616C55.9476 19.5936 55.9881 19.5331 56.0427 19.4868C56.0972 19.4406 56.1635 19.4106 56.2342 19.4L58.5927 19.0504L59.6401 16.9204C59.6715 16.8555 59.7205 16.8009 59.7815 16.7626C59.8425 16.7244 59.9131 16.7041 59.9851 16.7041C60.0571 16.7041 60.1277 16.7244 60.1887 16.7626C60.2497 16.8009 60.2988 16.8555 60.3301 16.9204L61.3875 19.0519L63.7368 19.4016C63.8076 19.412 63.874 19.4419 63.9286 19.4881C63.9832 19.5343 64.0238 19.5948 64.0458 19.6628C64.0678 19.7309 64.0704 19.8037 64.0532 19.8731C64.036 19.9425 63.9997 20.0057 63.9484 20.0556L62.2432 21.7125L62.645 24.0527C62.6543 24.1077 62.6516 24.1641 62.6369 24.2179C62.6222 24.2717 62.596 24.3217 62.56 24.3644C62.524 24.407 62.4791 24.4413 62.4285 24.4648C62.3779 24.4883 62.3228 24.5005 62.267 24.5004ZM59.9813 22.5276C60.1132 22.5276 60.0388 22.5084 61.7548 23.4124L61.4481 21.6405C61.4375 21.5791 61.4421 21.5162 61.4613 21.457C61.4805 21.3978 61.5139 21.3442 61.5585 21.3008L62.8512 20.0418L61.0685 19.7765C61.0075 19.7674 60.9495 19.7437 60.8996 19.7074C60.8497 19.6711 60.8092 19.6232 60.7818 19.568L59.9805 17.9516L59.1869 19.5664C59.1595 19.6222 59.1189 19.6704 59.0687 19.707C59.0185 19.7436 58.9601 19.7675 58.8986 19.7765L57.1075 20.0418L58.4048 21.3008C58.4494 21.3442 58.4828 21.3978 58.502 21.457C58.5213 21.5162 58.5258 21.5791 58.5153 21.6405L58.2086 23.4124C59.9291 22.51 59.8525 22.5276 59.9813 22.5276Z" fill="#4B1010"/>
<path d="M50.9866 17.0891L52.1229 19.4001L54.6808 19.7796L52.8337 21.5792L53.2692 24.1171L50.9866 22.9141L48.704 24.1171L49.1395 21.5792L47.2832 19.7796L49.8403 19.4001L50.9866 17.0891Z" fill="#FFB43B"/>
<path d="M53.269 24.5004C53.1333 24.5004 53.2583 24.5449 50.9864 23.3503L48.8825 24.459C48.8191 24.4924 48.7477 24.5074 48.6763 24.5023C48.6049 24.4972 48.5364 24.4722 48.4784 24.4301C48.4205 24.3881 48.3755 24.3307 48.3485 24.2643C48.3215 24.198 48.3137 24.1255 48.3258 24.0549L48.7276 21.7156L47.0162 20.0571C46.9647 20.0073 46.9283 19.9441 46.9109 19.8746C46.8935 19.8052 46.8959 19.7322 46.9179 19.6641C46.9398 19.5959 46.9804 19.5353 47.0351 19.489C47.0897 19.4427 47.1562 19.4127 47.227 19.4023L49.5856 19.0527L50.6429 16.9211C50.6743 16.8563 50.7233 16.8016 50.7843 16.7634C50.8454 16.7251 50.9159 16.7048 50.988 16.7048C51.06 16.7048 51.1305 16.7251 51.1916 16.7634C51.2526 16.8016 51.3016 16.8563 51.333 16.9211L52.3804 19.0511L54.7389 19.4008C54.8096 19.4113 54.8759 19.4413 54.9304 19.4876C54.9849 19.5338 55.0254 19.5943 55.0473 19.6623C55.0693 19.7303 55.0718 19.8031 55.0545 19.8725C55.0373 19.9418 55.001 20.005 54.9497 20.0548L53.2476 21.7133L53.6493 24.0534C53.6586 24.1085 53.6557 24.1651 53.6409 24.219C53.626 24.2729 53.5995 24.3229 53.5633 24.3655C53.527 24.4081 53.4819 24.4422 53.4311 24.4655C53.3803 24.4888 53.325 24.5007 53.269 24.5004ZM50.9864 22.5276C51.1183 22.5276 51.0439 22.5084 52.7599 23.4124L52.4532 21.6404C52.4427 21.5791 52.4472 21.5161 52.4664 21.457C52.4857 21.3978 52.519 21.3442 52.5636 21.3008L53.8556 20.0418L52.0645 19.7765C52.0031 19.7673 51.9449 19.7434 51.8948 19.7068C51.8447 19.6702 51.8043 19.622 51.7769 19.5664L50.9826 17.9516L50.1813 19.5679C50.1539 19.6232 50.1134 19.671 50.0635 19.7073C50.0136 19.7437 49.9556 19.7674 49.8946 19.7765L48.105 20.0418L49.4061 21.3008C49.451 21.3442 49.4846 21.3979 49.5039 21.4572C49.5233 21.5165 49.5279 21.5797 49.5173 21.6412L49.2106 23.4132C50.9335 22.5099 50.8568 22.5276 50.9864 22.5276Z" fill="#4B1010"/>
<path d="M35.6139 109.124C35.4385 110.184 35.6045 111.272 36.0877 112.231C36.3346 112.705 36.7078 113.1 37.166 113.374C37.6241 113.649 38.1493 113.791 38.6832 113.785L42.405 103.19C39.9406 102.046 36.1974 104.85 35.6139 109.124Z" fill="white"/>
<path d="M36.5142 106.302C36.0301 107.184 35.7093 108.147 35.5673 109.144C35.3941 110.203 35.5597 111.29 36.0403 112.25C36.3491 112.753 36.7821 113.169 37.2977 113.456C37.8133 113.744 38.3942 113.895 38.9847 113.894L39.9715 110.195C38.0607 110.321 36.4644 108.384 36.5142 106.302Z" fill="#FFE55D"/>
<path d="M62.1907 114.731C61.8157 116.299 61.355 117.845 60.8105 119.362C61.4015 120.027 61.7047 120.9 61.654 121.788C61.6014 122.668 61.4328 123.537 61.1525 124.373C62.7569 121.318 63.303 117.817 62.7052 114.418L62.1907 114.731Z" fill="white"/>
<path d="M59.0655 126.049H35.6045L45.6067 91.8669H69.0677L59.0655 126.049Z" fill="white"/>
<path d="M69.0671 91.4839H48.6831C47.9969 89.8907 46.9678 88.4684 45.6689 87.3185C44.3701 86.1687 42.8336 85.3195 41.1689 84.8316C37.977 83.8513 34.6403 83.4273 31.3047 83.578C31.3913 83.1823 31.4734 82.7882 31.5347 82.391C33.45 82.3829 35.3265 81.8502 36.9605 80.8509C38.5944 79.8516 39.9234 78.4238 40.8032 76.7225C42.3666 73.9376 42.4709 70.8499 42.1013 67.7431C41.6842 64.2805 40.5777 60.9366 38.8472 57.9087C38.9963 57.6299 39.0641 57.3148 39.0427 56.9994C39.3332 57.1151 39.6529 57.1359 39.9559 57.0587C40.2589 56.9816 40.5298 56.8105 40.7296 56.57C40.8725 56.3408 40.9483 56.0761 40.9483 55.8059C40.9483 55.5358 40.8725 55.2711 40.7296 55.0419C40.6611 54.9295 40.5869 54.8207 40.5072 54.716C40.8276 54.6191 41.1131 54.4318 41.3297 54.1767C41.5463 53.9216 41.6847 53.6094 41.7284 53.2775C41.772 52.9457 41.719 52.6083 41.5757 52.3059C41.4324 52.0034 41.2049 51.7487 40.9205 51.5723C41.2993 50.801 40.6 50.0151 39.8187 49.8686C39.6551 49.8379 39.4928 49.8006 39.3318 49.7567C39.5189 49.4861 39.6316 49.1711 39.6585 48.8433C39.6854 48.5155 39.6256 48.1863 39.4851 47.8889C39.3234 47.6185 39.0772 47.409 38.7845 47.2926C38.4918 47.1761 38.1689 47.1594 37.8658 47.2448C37.8176 46.8842 37.6797 46.5415 37.4647 46.248C37.2057 46.0408 36.8917 45.9139 36.5614 45.8831C36.2311 45.8523 35.899 45.919 35.6061 46.0747C35.7311 44.6332 34.7735 44.1096 33.6969 44.6601C33.6284 44.3867 33.4951 44.1338 33.3083 43.9228C33.1215 43.7119 32.8866 43.5489 32.6235 43.4479C32.3475 43.3583 32.0522 43.3457 31.7695 43.4115C31.4869 43.4773 31.2275 43.619 31.0195 43.8213C30.8996 43.6391 30.7409 43.4856 30.5548 43.372C30.3687 43.2583 30.1597 43.1872 29.9429 43.1638C29.7261 43.1403 29.5067 43.1651 29.3006 43.2363C29.0945 43.3076 28.9067 43.4236 28.7506 43.5759C28.5969 43.3846 28.4164 43.2165 28.2147 43.0767C27.178 42.4979 25.9911 43.2638 25.4398 44.2982C24.4845 43.6135 22.872 43.75 22.3537 44.7897C22.0977 44.6059 21.795 44.4981 21.4805 44.4785C21.166 44.459 20.8523 44.5286 20.5756 44.6793C20.1441 44.9553 19.8181 45.3685 19.6501 45.8524C19.4047 45.6676 19.1159 45.5493 18.8114 45.5087C18.507 45.4682 18.1972 45.5068 17.9121 45.6209C17.6269 45.7349 17.3759 45.9206 17.1834 46.1599C16.991 46.3993 16.8634 46.6842 16.8131 46.9872C16.5208 46.8603 16.2011 46.8099 15.8839 46.8406C15.5668 46.8714 15.2626 46.9823 15.0002 47.163C14.7377 47.3436 14.5255 47.5881 14.3835 47.8734C14.2415 48.1586 14.1744 48.4753 14.1885 48.7936C13.9128 48.7628 13.6337 48.7992 13.375 48.8998C13.1164 49.0004 12.886 49.1621 12.7036 49.3712C12.5211 49.5802 12.3921 49.8304 12.3274 50.1002C12.2627 50.37 12.2644 50.6515 12.3322 50.9206C12.0253 50.9513 11.7308 51.0583 11.4757 51.2318C11.2206 51.4053 11.0129 51.6398 10.8715 51.914C10.7301 52.1882 10.6594 52.4934 10.666 52.8018C10.6726 53.1103 10.7562 53.4122 10.9092 53.6801C10.6531 53.7675 10.4228 53.9171 10.2388 54.1155C10.0548 54.3138 9.92292 54.5548 9.85498 54.8167C9.78704 55.0785 9.78516 55.3532 9.84951 55.616C9.91386 55.8788 10.0424 56.1215 10.2237 56.3223C10.0012 56.4783 9.82515 56.6918 9.71443 56.94C9.60372 57.1882 9.56245 57.4618 9.59504 57.7316C9.62762 58.0014 9.73284 58.2574 9.89946 58.4721C10.0661 58.6868 10.2878 58.8522 10.5411 58.9508C9.78204 60.1776 10.6278 62.0016 12.2494 61.5968C12.2479 61.6431 12.2494 61.6895 12.254 61.7356C12.2212 62.0389 12.306 62.3433 12.491 62.5859C12.6531 62.7543 12.8648 62.8666 13.0952 62.9064C13.6368 65.4871 14.7072 67.9275 16.2388 70.074C15.8491 70.6689 15.6764 71.38 15.7497 72.0875C16.0771 75.7157 19.7873 77.8197 22.1075 77.0384C23.0383 78.2328 24.133 79.2898 25.3593 80.1782C25.3593 80.1782 24.6064 83.2306 24.4131 84.0464C18.3673 85.79 13.6296 88.1217 9.99827 91.1366C5.11177 95.1804 2.93114 101.948 3.85737 110.19C4.27372 113.898 5.38167 119.595 8.32139 123.98C7.33815 127.836 6.60413 131.75 6.12388 135.7C5.95686 136.499 6.02095 137.33 6.30867 138.094C6.77938 138.89 7.49901 139.51 8.35666 139.857C9.12647 140.257 9.90677 140.629 10.6975 140.974C10.665 143.751 10.398 146.519 9.89936 149.251C9.88825 149.301 9.88739 149.353 9.89684 149.404C9.90629 149.454 9.92584 149.503 9.95434 149.546C9.98284 149.588 10.0197 149.625 10.0627 149.654C10.1057 149.682 10.154 149.701 10.2047 149.711C10.2553 149.72 10.3074 149.719 10.3576 149.708C10.4079 149.696 10.4554 149.675 10.4972 149.645C10.5391 149.615 10.5744 149.577 10.6012 149.533C10.628 149.489 10.6456 149.44 10.6531 149.389C11.1411 146.718 11.4112 144.012 11.4605 141.297C19.0556 144.427 27.4546 145.039 35.4229 143.041C35.9216 142.97 36.3793 142.726 36.7156 142.351C36.9644 141.959 37.084 141.499 37.0576 141.036L37.1166 139.537C38.7221 139.419 40.2552 138.822 41.517 137.822C41.4148 139.042 41.2719 140.259 41.0884 141.474C41.0785 141.538 41.0852 141.604 41.1078 141.665C41.1304 141.726 41.1682 141.78 41.2176 141.823C41.267 141.865 41.3264 141.894 41.3902 141.907C41.454 141.921 41.5201 141.917 41.5822 141.898C43.8452 141.186 45.9363 140.013 47.7239 138.453V142.413C47.7239 142.515 47.7642 142.612 47.8361 142.684C47.908 142.756 48.0055 142.796 48.1072 142.796C48.2089 142.796 48.3064 142.756 48.3783 142.684C48.4502 142.612 48.4906 142.515 48.4906 142.413V137.741C49.3905 136.95 50.0907 135.957 50.534 134.844C50.744 134.014 50.7961 133.152 50.6873 132.303C50.5682 130.341 50.3997 128.382 50.182 126.429H59.0656C59.1485 126.429 59.2291 126.403 59.2954 126.353C59.3618 126.303 59.4103 126.233 59.4336 126.154L69.4351 91.9746C69.4518 91.9175 69.4549 91.8573 69.4443 91.7987C69.4336 91.7401 69.4095 91.6849 69.3738 91.6373C69.3381 91.5896 69.2918 91.551 69.2385 91.5244C69.1853 91.4978 69.1266 91.4839 69.0671 91.4839ZM40.9343 85.5615C42.4401 86.0055 43.835 86.7625 45.0278 87.7831C46.2206 88.8038 47.1843 90.0649 47.8557 91.4839H45.6069C45.5239 91.4839 45.4432 91.5108 45.3768 91.5606C45.3105 91.6104 45.262 91.6803 45.2388 91.7599L42.8558 99.902C42.6724 99.8606 42.4947 99.797 42.3267 99.7127C42.1734 99.6529 42.1642 100.293 43.0743 90.6067C43.1566 90.185 43.1192 89.7486 42.9662 89.347C41.7855 87.6908 40.357 86.2263 38.7307 85.0049C39.4713 85.1628 40.2112 85.33 40.9343 85.5615ZM36.9786 84.6836C38.8747 85.9442 40.5631 87.4921 41.9832 89.2718C42.0912 89.3848 42.184 89.5114 42.2592 89.6483C42.4126 90.0693 42.4126 89.4114 41.4879 99.2963C41.4307 99.5142 41.4518 99.7452 41.5475 99.949C41.6432 100.153 41.8074 100.317 42.0116 100.412C42.2105 100.513 42.4205 100.59 42.6372 100.642L42.0484 102.653C41.7094 102.563 41.3582 102.526 41.0079 102.546C40.8838 102.457 40.7609 102.366 40.6391 102.274C40.44 97.1039 39.0955 92.043 36.7026 87.4562C36.1995 86.2719 35.4209 85.2249 34.4315 84.4022C35.2872 84.4595 36.1362 84.5533 36.9786 84.6836ZM41.8322 103.392L38.8978 113.423C38.4046 113.422 37.9195 113.297 37.4876 113.059C37.0556 112.821 36.6907 112.478 36.4266 112.061C35.9772 111.171 35.8246 110.161 35.9911 109.178C36.2235 107.499 36.9962 105.94 38.1924 104.739C39.1194 103.819 40.5624 103.069 41.8352 103.39L41.8322 103.392ZM13.9302 63.1295C14.0355 63.2963 14.1734 63.4402 14.3355 63.5527C14.4976 63.6651 14.6806 63.7438 14.8738 63.7841C15.0669 63.8244 15.2662 63.8254 15.4597 63.7871C15.6533 63.7488 15.8371 63.672 16.0004 63.5612C16.8131 63.059 16.235 63.0245 16.8254 63.7912C16.968 63.9782 17.1559 64.1256 17.3714 64.2195C17.5869 64.3134 17.8228 64.3508 18.0568 64.328C18.8128 64.1143 19.4531 63.6094 19.8372 62.924C19.9702 63.174 20.1555 63.3924 20.3804 63.5644C20.6053 63.7364 20.8646 63.8579 21.1407 63.9208C21.0773 66.3373 21.5954 68.7336 22.6512 70.9082C22.1543 70.8461 21.6544 70.8078 21.1537 70.7932C20.6507 69.4567 18.9301 68.2629 17.4212 69.0212C17.1787 69.1447 16.9534 69.2994 16.751 69.4813C15.4136 67.5637 14.456 65.4075 13.9302 63.1295ZM22.6857 76.7777C22.9938 76.5967 23.2689 76.3647 23.4992 76.0914C23.5327 76.0531 23.5582 76.0085 23.5742 75.9602C23.5903 75.9119 23.5965 75.8609 23.5927 75.8102C23.5888 75.7594 23.5749 75.71 23.5517 75.6647C23.5286 75.6194 23.4966 75.5791 23.4577 75.5463C23.4188 75.5135 23.3738 75.4887 23.3253 75.4735C23.2767 75.4582 23.2256 75.4528 23.175 75.4575C23.1243 75.4622 23.0751 75.477 23.0302 75.5009C22.9853 75.5248 22.9456 75.5574 22.9134 75.5969C22.6544 75.9052 22.3205 76.142 21.9438 76.2844C21.5671 76.4269 21.1602 76.4702 20.7619 76.4104C19.66 76.2694 18.6389 75.7575 17.8666 74.959C17.0943 74.1605 16.6168 73.1229 16.5126 72.0169C16.4634 71.5486 16.5574 71.0763 16.782 70.6624C17.0066 70.2485 17.3513 69.9123 17.7708 69.6983C18.3407 69.5582 18.9427 69.6428 19.452 69.9344C19.9612 70.226 20.3389 70.7023 20.5066 71.2647C20.5282 71.3453 20.5756 71.4166 20.6415 71.4678C20.7073 71.519 20.7881 71.5473 20.8715 71.5484C21.6988 71.5598 22.5238 71.6367 23.3389 71.7785C23.4056 71.7784 23.471 71.7611 23.5289 71.7281C23.5867 71.695 23.635 71.6475 23.6689 71.5902C23.7028 71.5328 23.7212 71.4676 23.7222 71.401C23.7232 71.3344 23.7069 71.2687 23.6748 71.2103C22.4434 68.9689 21.8345 66.4387 21.9112 63.8825C22.3262 63.7482 22.6941 63.4981 22.9717 63.1617C23.1223 63.346 23.3133 63.4931 23.5299 63.5917C23.7465 63.6903 23.9829 63.7377 24.2208 63.7303C24.4587 63.7229 24.6917 63.6608 24.9017 63.5489C25.1118 63.4371 25.2933 63.2783 25.4322 63.0851C25.596 62.8719 25.732 62.6387 25.837 62.3912C26.0636 62.5814 26.3345 62.7114 26.6247 62.769C26.9149 62.8266 27.215 62.8099 27.497 62.7206C27.7791 62.6313 28.034 62.4721 28.2382 62.258C28.4423 62.0438 28.589 61.7816 28.6648 61.4956C28.8732 61.6124 29.1054 61.6807 29.344 61.6952C29.5825 61.7098 29.8212 61.6703 30.0424 61.5797C30.2635 61.4891 30.4614 61.3498 30.6211 61.172C30.7809 60.9943 30.8984 60.7828 30.965 60.5533C31.1824 60.7556 31.4394 60.9108 31.7196 61.0091C31.9999 61.1074 32.2974 61.1467 32.5936 61.1245C32.8846 61.0664 33.1558 60.9342 33.3808 60.7406C33.6058 60.5471 33.777 60.2987 33.8779 60.0196C34.972 60.8439 36.3905 60.0388 36.6129 58.6218C36.8995 58.766 37.2214 58.8251 37.5404 58.7919C37.8595 58.7587 38.1624 58.6348 38.4132 58.4347C39.7419 60.828 40.6777 63.4191 41.185 66.1091C41.734 69.0228 41.9901 72.3037 40.853 75.1169C39.8227 77.7085 37.8452 79.8113 35.3217 80.9986C34.0147 81.5204 32.6097 81.7508 31.2045 81.6738C29.7994 81.5969 28.4279 81.2144 27.1857 80.5531C25.4514 79.6027 23.9221 78.3188 22.6857 76.7754V76.7777ZM30.8745 82.3527C30.7979 82.7782 30.7074 83.1961 30.6184 83.6194C30.4442 83.8802 30.2081 84.0938 29.9311 84.241C29.6541 84.3882 29.3449 84.4644 29.0313 84.4628C28.3303 84.531 27.6237 84.4127 26.9833 84.1196C26.3428 83.8266 25.7913 83.3694 25.3846 82.7943C25.3846 82.7943 25.768 81.3153 25.9436 80.5761C27.4225 81.5517 29.1131 82.16 30.8745 82.3504V82.3527ZM24.2307 84.9098C24.2138 85.0287 24.2008 85.1481 24.1916 85.2679C24.1957 85.3531 24.2324 85.4334 24.2941 85.4923C24.3559 85.5511 24.4379 85.5839 24.5232 85.5839C24.6085 85.5839 24.6905 85.5511 24.7522 85.4923C24.814 85.4334 24.8507 85.3531 24.8548 85.2679C24.913 84.7474 25.0156 84.2328 25.1615 83.7298C26.7333 85.4166 29.1846 85.583 30.4114 84.8117C30.362 85.2051 30.3313 85.6007 30.3194 85.9971C30.3235 86.0822 30.3602 86.1626 30.422 86.2214C30.4837 86.2803 30.5657 86.3131 30.651 86.3131C30.7363 86.3131 30.8183 86.2803 30.8801 86.2214C30.9418 86.1626 30.9786 86.0822 30.9827 85.9971C30.9975 85.4459 31.0521 84.8965 31.146 84.3531C31.7747 84.3296 32.4024 84.3248 33.0291 84.3386C33.0406 84.3477 33.0527 84.3561 33.0651 84.3639C34.3824 85.1668 35.4138 86.3637 36.0133 87.7851C38.2604 92.0855 39.5672 96.8146 39.847 101.659C38.3818 100.503 36.0018 98.6147 34.2275 98.1531C33.6617 98.0059 32.9701 97.966 32.7868 98.5219C32.6411 98.9635 32.977 99.5079 33.9247 100.323C35.0348 101.273 36.2044 102.15 37.4264 102.951C37.7329 103.19 38.0677 103.39 38.4232 103.546C37.653 104.119 36.9979 104.832 36.4925 105.647C35.8668 105.825 35.2384 106.015 34.6071 106.215C30.5709 99.1882 25.6307 91.4762 18.122 87.118C20.1088 86.2512 22.1492 85.5128 24.2307 84.9075V84.9098ZM15.9375 88.1616C16.3669 87.9392 16.8065 87.7228 17.2563 87.5121C24.8234 91.6925 29.8049 99.4083 33.8626 106.459C32.5019 106.911 31.1563 107.407 29.8279 107.947C28.7916 107.024 27.8481 106.002 27.0109 104.896L30.13 103.121C30.1847 103.09 30.2308 103.046 30.2644 102.992C30.298 102.939 30.318 102.879 30.3226 102.816C30.3273 102.753 30.3164 102.69 30.2909 102.633C30.2655 102.575 30.2263 102.525 30.1768 102.486C25.6053 98.9166 20.6621 95.8508 15.433 93.3417L15.9375 88.1616ZM4.61569 110.104C3.98159 104.461 4.48534 96.6917 10.4852 91.727C11.9292 90.5377 13.4827 89.488 15.1247 88.5917L14.6409 93.535C14.6334 93.6135 14.6502 93.6925 14.6892 93.7611C14.7282 93.8297 14.7873 93.8846 14.8587 93.9183C19.9544 96.3405 24.779 99.2963 29.2513 102.736L26.2556 104.44C26.2087 104.467 26.168 104.503 26.136 104.547C26.1041 104.59 26.0817 104.64 26.0704 104.693C26.059 104.746 26.0589 104.8 26.0701 104.853C26.0813 104.906 26.1035 104.956 26.1353 104.999C26.9939 106.182 27.9684 107.275 29.0443 108.264C26.462 109.345 23.9573 110.602 21.5478 112.027L19.6601 105.127C20.3862 104.452 18.5099 103.818 18.868 105.137L20.9421 112.714C20.9578 112.772 20.9865 112.824 21.0261 112.869C21.0657 112.913 21.115 112.947 21.1702 112.969C21.2253 112.991 21.2848 113 21.344 112.995C21.4031 112.99 21.4603 112.971 21.511 112.941C26.031 110.199 30.8923 108.063 35.9696 106.59C35.6012 107.37 35.3538 108.201 35.2358 109.055C35.0446 110.197 35.2241 111.37 35.748 112.402C36.0362 112.93 36.4593 113.372 36.9741 113.683C37.489 113.994 38.0771 114.163 38.6785 114.173L36.6965 120.949C33.3783 124.531 29.1396 127.133 24.4431 128.47C21.547 129.325 17.3644 129.959 13.8841 128.128C7.18966 124.634 5.20378 115.335 4.61569 110.104ZM36.0884 141.911C35.8629 142.119 35.579 142.253 35.2749 142.294C26.3245 144.54 16.8613 143.427 8.67639 139.165C7.9822 138.892 7.3941 138.403 6.99874 137.77C6.77852 137.145 6.73605 136.471 6.87606 135.823C7.32727 132.112 8.00299 128.431 8.89951 124.801C12.8437 130.02 18.1772 131.125 24.6531 129.213C29.0073 127.973 32.9865 125.673 36.2349 122.52L35.2335 125.942C35.2168 126 35.2137 126.06 35.2244 126.118C35.235 126.177 35.2591 126.232 35.2948 126.28C35.3306 126.327 35.3769 126.366 35.4301 126.393C35.4833 126.419 35.542 126.433 35.6015 126.433H36.8629L36.2893 141.05C36.3105 141.35 36.2405 141.65 36.0884 141.911ZM37.1473 138.767L37.6334 126.43H41.2149C41.6792 129.843 41.8076 133.294 41.5983 136.732C40.3966 137.908 38.8225 138.627 37.1473 138.767ZM49.8033 134.617C49.5294 135.334 49.1137 135.988 48.5811 136.54C46.7491 138.522 44.4722 140.041 41.938 140.971C42.6181 136.149 42.6349 131.257 41.9878 126.43H49.4115C49.4421 126.835 49.6929 128.584 49.9244 132.376C50.0232 133.125 49.9821 133.886 49.8033 134.62V134.617ZM58.7742 125.663C58.6976 125.663 36.6919 125.556 36.1122 125.663C38.8342 116.362 36.1122 126.011 45.8898 92.2476C45.945 92.2476 62.2261 92.2537 68.5518 92.2476L58.7742 125.663Z" fill="#4B1010"/>
<path d="M53.127 127.992C52.2082 127.851 51.3513 127.443 50.6642 126.817C50.2156 126.407 49.9856 125.693 50.5031 125.36C50.8206 125.155 51.2431 125.352 51.6111 125.437C51.9356 125.514 52.2728 125.52 52.5998 125.454C52.9267 125.389 53.2358 125.254 53.5057 125.058C52.7229 125.123 51.9361 124.996 51.2132 124.689C50.9269 124.587 50.6645 124.427 50.4415 124.22C50.2186 124.014 50.0397 123.764 49.9158 123.486C49.8374 123.308 49.8229 123.107 49.8747 122.919C49.9265 122.731 50.0415 122.567 50.2003 122.453C50.6358 122.223 51.1472 122.607 51.5735 122.785C51.9412 122.881 52.3242 122.901 52.6999 122.846C53.0756 122.79 53.4364 122.66 53.7611 122.463C52.9787 122.302 52.2375 121.983 51.5827 121.526C50.5944 120.696 50.6987 119.149 52.5297 119.83C53.9028 120.343 55.3977 120.436 56.8235 120.095C56.5536 119.597 56.1414 119.192 55.6396 118.93C55.4471 118.853 55.2706 118.741 55.119 118.599C54.7402 118.051 55.0162 117.201 56.0889 117.142C56.8806 117.175 57.6609 117.343 58.3961 117.639C59.4039 117.969 60.2821 118.609 60.9056 119.467C62.1393 121.195 61.6057 123.873 60.4042 125.491C58.7541 127.706 55.7285 128.398 53.127 127.992Z" fill="white"/>
<path d="M60.2114 125.747C60.0052 123.436 59.1012 120.207 56.7917 119.988C56.7735 120.343 56.6181 120.676 56.3583 120.918C56.0986 121.16 55.755 121.292 55.4001 121.285C53.8565 121.353 52.3263 120.972 50.9959 120.186C50.7919 120.617 51.1914 121.275 51.564 121.588C52.2194 122.045 52.9607 122.364 53.7431 122.525C53.4184 122.723 53.0575 122.853 52.6816 122.908C52.3057 122.963 51.9226 122.943 51.5548 122.847C51.1002 122.667 50.6079 122.289 50.1816 122.516C50.0232 122.63 49.9085 122.794 49.8568 122.982C49.805 123.17 49.8192 123.37 49.8971 123.548C50.0199 123.826 50.1986 124.075 50.4219 124.28C50.6452 124.486 50.9085 124.643 51.1952 124.742C51.9161 125.056 52.7037 125.185 53.487 125.119C53.2189 125.318 52.91 125.455 52.5826 125.52C52.2551 125.586 51.9172 125.578 51.5932 125.497C51.2228 125.405 50.8034 125.217 50.4844 125.421C49.9677 125.753 50.2015 126.473 50.6455 126.878C51.3353 127.499 52.1909 127.908 53.1083 128.052C54.3906 128.287 55.7111 128.199 56.9511 127.797C58.191 127.394 59.3114 126.69 60.2114 125.747Z" fill="#FFE55D"/>
<path d="M63.0816 114.358C63.0749 114.307 63.0582 114.258 63.0323 114.214C63.0064 114.17 62.9719 114.131 62.9308 114.1C62.8897 114.07 62.8428 114.048 62.793 114.035C62.7432 114.023 62.6914 114.021 62.6408 114.029C62.5901 114.037 62.5416 114.055 62.4981 114.082C62.4546 114.11 62.417 114.145 62.3876 114.187C62.3581 114.229 62.3374 114.277 62.3266 114.327C62.3158 114.377 62.3152 114.429 62.3248 114.479C62.6906 116.754 62.5657 119.081 61.9583 121.303C61.8874 120.565 61.631 119.857 61.213 119.244C60.5283 118.311 59.5674 117.618 58.4665 117.262C57.5832 116.96 56.1156 116.472 55.2224 116.995C55.0689 117.081 54.9351 117.198 54.8296 117.339C54.724 117.48 54.649 117.641 54.6093 117.813C54.5696 117.984 54.5661 118.162 54.5991 118.335C54.632 118.508 54.7007 118.672 54.8007 118.817C54.9839 119.015 55.2092 119.17 55.4601 119.271C55.7312 119.411 55.9733 119.602 56.1739 119.832C54.9928 120.014 53.7847 119.89 52.6653 119.472C50.4517 118.639 49.9947 120.679 51.3388 121.821C51.6992 122.103 52.1021 122.327 52.5326 122.483C52.2618 122.514 51.9876 122.497 51.7229 122.432C51.2874 122.247 50.6564 121.783 49.977 122.142C49.7483 122.308 49.5829 122.548 49.5084 122.82C49.4338 123.093 49.4544 123.383 49.5668 123.643C49.8083 124.179 50.2202 124.62 50.7384 124.897C49.757 124.978 49.4518 126.243 50.4034 127.101C50.9737 127.603 51.6392 127.986 52.3603 128.226C53.0814 128.467 53.8435 128.56 54.6013 128.5C56.0809 128.567 57.5472 128.193 58.8138 127.425C60.0804 126.658 61.0903 125.531 61.7152 124.188C63.1432 121.122 63.6191 117.698 63.0816 114.358ZM60.0912 125.264C58.5577 127.361 55.7208 128.003 53.1805 127.611C52.3353 127.488 51.5473 127.112 50.9201 126.532C50.6832 126.319 50.4371 125.858 50.7047 125.688C50.8473 125.596 51.246 125.749 51.5197 125.81C51.8989 125.9 52.2929 125.907 52.675 125.831C53.0571 125.754 53.4181 125.596 53.7333 125.367C53.8003 125.317 53.8493 125.247 53.8728 125.167C53.8964 125.087 53.8932 125.002 53.8638 124.924C53.8345 124.846 53.7805 124.78 53.71 124.735C53.6396 124.691 53.5565 124.67 53.4734 124.677C52.7457 124.735 52.0148 124.615 51.3434 124.329C51.1071 124.243 50.8904 124.11 50.7061 123.939C50.5217 123.768 50.3735 123.561 50.2699 123.332C50.2303 123.242 50.2196 123.142 50.2394 123.046C50.2591 122.95 50.3084 122.862 50.3804 122.795C50.6104 122.674 51.0428 122.986 51.4799 123.158C51.8974 123.265 52.332 123.288 52.7584 123.225C53.1848 123.162 53.5944 123.015 53.9634 122.792C54.0289 122.753 54.081 122.694 54.113 122.625C54.145 122.555 54.1554 122.477 54.1429 122.402C54.1303 122.326 54.0954 122.256 54.0427 122.2C53.9899 122.145 53.9217 122.106 53.8468 122.09C53.3576 121.982 52.8824 121.818 52.4306 121.602C51.3794 121.142 51.1839 120.263 51.4653 120.095C51.7778 120.011 52.1104 120.045 52.3992 120.191C53.8422 120.731 55.4137 120.828 56.9123 120.47C56.9696 120.456 57.023 120.43 57.0683 120.392C57.1137 120.355 57.1498 120.307 57.1738 120.253C57.1978 120.2 57.2091 120.141 57.2069 120.082C57.2046 120.023 57.1888 119.966 57.1607 119.914C56.8472 119.338 56.3658 118.871 55.7806 118.576C55.6456 118.521 55.5209 118.443 55.4118 118.346C55.3468 118.228 55.3313 118.089 55.3687 117.96C55.4061 117.83 55.4933 117.721 55.6111 117.656C56.19 117.282 57.5633 117.762 58.2733 118.006C59.2021 118.311 60.012 118.9 60.5896 119.689C61.7022 121.285 61.2122 123.777 60.092 125.264H60.0912Z" fill="#4B1010"/>
<path d="M139.299 56.9645C138.926 55.4946 138.23 54.1262 137.263 52.9582C136.193 51.9337 134.946 51.1122 133.582 50.5337C133.659 50.1026 133.585 49.6583 133.373 49.2753C133.16 48.8922 132.823 48.5937 132.417 48.4296C132.011 48.2656 131.561 48.246 131.143 48.3742C130.724 48.5023 130.362 48.7705 130.117 49.1337C127.898 48.3194 125.58 47.8057 123.225 47.6063C119.915 47.3663 116.386 48.4398 114.177 50.9217C113.323 51.9472 112.624 53.0927 112.103 54.3215C111.556 55.4578 111.467 56.7614 111.856 57.9612C111.064 58.4152 109.88 59.3736 110.616 59.9096C110.878 60.0588 111.178 60.1251 111.478 60.0997C112.705 60.1657 113.978 60.4977 115.209 60.6364C122.177 61.5067 128.704 63.9795 135.173 66.5067C135.558 66.7111 135.948 66.9074 136.341 67.0955C136.838 67.3838 137.405 67.5312 137.98 67.5218C139.353 67.3685 139.921 65.6816 140.034 64.3015C140.203 61.8319 139.955 59.3515 139.299 56.9645Z" fill="#FFB43B"/>
<path d="M149.646 121.226C150.427 119.042 150.007 116.392 149.737 114.464C148.981 109.633 147.73 104.894 146.006 100.319C144.62 96.4497 143.316 91.8078 139.712 89.4593C136.582 87.5661 133.245 86.0392 129.766 84.9086C129.568 83.302 129.444 81.6888 129.394 80.0689C132.795 80.7373 136.271 80.9436 139.728 80.6823C140.85 80.7299 142.443 80.2606 142.631 79.155C142.821 78.0278 141.273 77.0625 141.02 76.3878C140.895 76.0489 141.151 75.621 141.472 75.1418C142.162 74.1028 141.986 73.4549 141.715 73.0969C141.32 72.5747 140.39 72.4574 140.335 72.1377C140.274 71.7719 140.851 71.5243 141.025 70.9484C141.48 69.4487 139.705 69.2677 139.308 68.8782C139.085 68.6612 139.297 68.0678 138.947 67.5625C139.867 66.936 140.313 65.5835 140.416 64.3322C140.588 61.8206 140.334 59.2981 139.666 56.8709C139.272 55.3315 138.54 53.8993 137.523 52.6783C136.502 51.7036 135.326 50.9057 134.042 50.3175C134.093 49.8243 133.981 49.3281 133.725 48.9035C133.469 48.479 133.082 48.1492 132.622 47.9636C132.162 47.7781 131.655 47.747 131.176 47.8749C130.697 48.0028 130.272 48.2828 129.966 48.6728C127.796 47.9012 125.535 47.4133 123.24 47.2214C121.521 47.054 119.787 47.2775 118.167 47.875C116.547 48.4725 115.083 49.4286 113.885 50.6718C112.997 51.7163 112.281 52.8951 111.762 54.1643C111.647 54.4227 110.699 56.6332 111.442 57.7565C110.379 58.3968 109.421 59.52 110.426 60.2416C110.606 60.3443 110.801 60.4165 111.005 60.4555C110.376 61.1356 108.927 61.4768 108.858 62.7312C108.86 62.8627 108.872 62.9939 108.893 63.1238C108.977 63.7264 108.871 63.8759 108.026 64.3973C107.477 64.6551 107.035 65.0963 106.776 65.6448C106.668 66.0437 106.663 66.4633 106.761 66.8647C106.897 67.7082 106.879 67.8531 105.984 68.3921C105.529 68.6096 105.15 68.9598 104.897 69.3965C104.762 69.7734 104.735 70.1808 104.821 70.572C104.907 70.9633 105.101 71.3223 105.382 71.6078C104.964 71.8617 104.612 72.211 104.355 72.6271C104.099 73.0432 103.944 73.5143 103.904 74.0016C103.905 74.509 104.075 75.0016 104.387 75.4018C104.698 75.802 105.135 76.0868 105.627 76.2114C105.534 76.4336 105.513 76.6787 105.564 76.9136C105.616 77.1485 105.739 77.3619 105.916 77.5248C106.322 77.7894 105.686 77.646 116.207 78.9648C117.778 80.1804 119.676 80.8994 121.659 81.0297C122.064 81.0303 122.468 81.0078 122.871 80.9622C122.85 82.1725 122.764 83.3808 122.614 84.582C116.592 86.3348 110.663 87.3024 105.164 96.3516C104.558 97.3315 99.7441 104.115 98.7113 105.273C93.7642 102.009 87.996 99.0122 83.7106 95.0504C83.6634 95.0067 83.6059 94.9755 83.5434 94.9598C83.481 94.9442 83.4156 94.9445 83.3533 94.9607C83.311 93.589 83.0769 92.2299 82.6578 90.923C82.5676 90.55 82.3779 90.2084 82.1089 89.9347C81.9227 89.7554 81.6773 89.6507 81.4191 89.6404C81.1609 89.63 80.9078 89.7149 80.708 89.8787C80.5732 90.0213 80.4739 90.1936 80.4182 90.3817C80.3518 90.5682 80.2985 90.759 80.2587 90.9529C79.6753 90.0586 78.9263 89.2841 78.052 88.6711C76.5507 87.6314 75.445 88.862 76.4725 90.4016C76.0768 90.2228 75.6629 90.0873 75.238 89.9975C75.0795 89.9292 74.9078 89.8972 74.7353 89.9039C74.5628 89.9105 74.394 89.9556 74.2412 90.0359C73.6907 90.4193 73.8717 91.1814 74.2934 91.7227C74.4953 91.9783 74.7082 92.2237 74.9321 92.4588C73.3334 92.0256 72.3067 93.6572 74.1692 94.7913C75.9749 95.954 77.6297 97.336 79.0955 98.9056C79.0117 99.1448 78.9856 99.4003 79.0192 99.6514C79.0527 99.9026 79.1451 100.142 79.2888 100.351C81.589 105.509 86.1036 110.677 93.0902 116.146C95.6343 118.14 98.6507 119.972 101.793 119.258C103.556 118.861 105.143 117.903 106.317 116.529C106.333 118.36 106.418 120.193 106.571 122.03C106.53 122.539 106.67 123.045 106.965 123.461C107.261 123.877 107.693 124.176 108.187 124.305C109.815 124.994 111.483 125.584 113.182 126.072C113.105 129.676 113.128 129.661 113.036 129.978C112.927 130.209 112.785 130.422 112.615 130.612C108.475 135.395 105.602 141.463 102.718 147.241C102.695 147.287 102.682 147.336 102.678 147.387C102.675 147.437 102.681 147.488 102.697 147.536C102.714 147.584 102.739 147.628 102.772 147.666C102.805 147.704 102.846 147.735 102.891 147.758C102.937 147.78 102.986 147.794 103.036 147.797C103.087 147.801 103.137 147.794 103.185 147.778C103.233 147.762 103.278 147.736 103.316 147.703C103.354 147.67 103.385 147.63 103.408 147.584C105.946 142.498 108.562 137.258 111.882 132.794C114 134.405 116.696 135.018 119.304 135.44C123.991 136.198 129.396 136.284 133.841 134.681C133.688 135.277 133.522 135.895 133.345 136.542C133.321 136.628 133.327 136.719 133.363 136.8C133.399 136.881 133.462 136.947 133.541 136.987C132.761 137.586 132.037 138.255 131.379 138.986C131.221 139.133 131.108 139.322 131.055 139.531C131.001 139.741 131.009 139.961 131.077 140.166C131.17 140.357 131.321 140.514 131.509 140.613C131.696 140.713 131.911 140.751 132.121 140.72C131.707 141.513 131.432 142.371 131.309 143.257C131.283 143.421 131.296 143.59 131.348 143.748C131.399 143.906 131.488 144.05 131.606 144.168C131.802 144.3 132.041 144.355 132.275 144.32C132.509 144.285 132.721 144.163 132.87 143.979C132.793 144.612 133.002 145.349 133.651 145.349C134.274 145.216 134.827 144.86 135.205 144.348C135.183 144.498 135.199 144.652 135.252 144.795C135.304 144.937 135.392 145.065 135.506 145.165C135.66 145.257 135.837 145.306 136.016 145.308C136.196 145.309 136.373 145.263 136.529 145.174C136.772 145.041 136.985 144.858 137.154 144.638C138.412 143.125 139.22 141.289 139.486 139.339C139.852 139.298 140.199 139.153 140.485 138.921C140.772 138.689 140.985 138.38 141.102 138.031C141.289 137.736 141.474 137.439 141.658 137.142C143.797 140.823 145.653 144.661 147.208 148.624C147.228 148.67 147.256 148.712 147.292 148.748C147.328 148.783 147.37 148.811 147.417 148.83C147.463 148.849 147.513 148.859 147.564 148.859C147.614 148.858 147.664 148.848 147.71 148.829C147.757 148.809 147.799 148.781 147.834 148.745C147.87 148.709 147.898 148.667 147.917 148.62C147.936 148.573 147.945 148.523 147.945 148.473C147.945 148.423 147.935 148.373 147.915 148.326C146.304 144.204 144.36 140.219 142.105 136.41C143.832 133.548 145.391 130.586 146.773 127.541C147.878 125.507 148.838 123.396 149.646 121.226ZM133.282 50.0009C132.419 49.6735 132.23 49.5086 130.762 48.9588C130.974 48.7673 131.236 48.6398 131.517 48.5911C131.798 48.5423 132.088 48.5744 132.352 48.6835C132.615 48.7926 132.843 48.9742 133.008 49.2074C133.172 49.4406 133.268 49.7157 133.282 50.0009ZM112.471 54.4664C112.958 53.2712 113.631 52.1607 114.465 51.1763C115.585 50.0227 116.951 49.1368 118.461 48.5848C119.971 48.0327 121.587 47.8288 123.187 47.9881C127.727 48.3186 134.115 50.4816 136.967 53.202C137.898 54.3296 138.568 55.6493 138.928 57.0665C139.574 59.4097 139.819 61.8451 139.653 64.2701C139.556 65.4547 139.131 66.7482 138.261 67.071C138.233 67.0603 135.122 66.0428 135.094 66.0336C130.557 63.6061 126.578 60.3205 121.888 58.1361C118.239 56.4377 115.212 55.0208 112.118 57.3762C111.67 56.8403 112.092 55.3175 112.471 54.4664H112.471ZM111.846 58.4113C113.423 57.3847 115.343 57.0262 117.184 57.4145C121.688 58.0763 127.124 62.035 130.985 64.4932C125.924 62.4773 120.645 61.0564 115.255 60.2592C114.676 60.1925 112.668 59.7784 111.447 59.7179C110.298 59.8198 110.853 59.004 111.846 58.4113ZM122.667 80.3012C116.614 80.6018 112.521 75.1134 112.372 69.3521C112.283 66.4332 112.82 63.5293 113.947 60.835C118.967 61.4525 123.896 62.6661 128.629 64.4502C128.69 64.7424 129.908 65.3059 129.366 66.5289C129.151 67.0142 128.538 67.623 128.758 68.3883C128.965 69.1075 129.992 69.3935 130.108 69.8773C130.202 70.2683 129.387 70.8074 129.117 71.4108C128.641 72.4934 129.686 73.3453 129.27 73.8951C129.117 74.1005 128.711 74.3421 128.616 74.7921C128.593 74.981 128.61 75.1726 128.666 75.3546C128.721 75.5365 128.814 75.7049 128.939 75.8487C129.057 75.984 129.133 76.1504 129.159 76.3279C129.094 76.9498 127.753 77.2726 127.549 78.4833C126.126 79.5393 124.433 80.17 122.667 80.302V80.3012ZM129.107 85.006C127.616 86.2749 125.996 87.3838 124.273 88.3145C123.903 87.151 123.6 85.9669 123.368 84.7683C123.534 83.4691 123.626 82.1615 123.644 80.8518C125.084 80.5832 126.454 80.0241 127.671 79.2086C127.921 79.5654 128.299 79.8124 128.726 79.8987C128.777 81.6065 128.904 83.3092 129.108 85.0068L129.107 85.006ZM122.743 85.4998C122.968 86.5827 123.252 87.6527 123.593 88.7048C123.109 89.0959 122.796 89.6593 122.718 90.2766C122.631 90.5364 122.646 90.8198 122.761 91.0688C122.875 91.3177 123.081 91.5133 123.335 91.6155C123.59 91.7177 123.873 91.7187 124.129 91.6183C124.384 91.5179 124.591 91.3237 124.707 91.0756C124.867 90.738 124.956 90.3712 124.97 89.9978C124.983 89.6244 124.92 89.2522 124.784 88.9042C126.468 87.9831 128.056 86.895 129.523 85.6562C131.259 86.3287 133.74 87.2296 136.117 88.3651C133.566 90.4379 130.498 91.775 127.243 92.2323C123.989 92.6895 120.671 92.2496 117.648 90.9598C116.263 90.4082 115.046 89.503 114.121 88.3345C116.856 87.0096 119.756 86.0565 122.744 85.5006L122.743 85.4998ZM113.432 88.6925C114.45 90.0204 115.808 91.0488 117.362 91.6691C119.715 92.6621 122.239 93.1866 124.793 93.2133C129.226 93.1818 133.51 91.6026 136.902 88.7485C137.158 88.8773 137.411 89.01 137.661 89.1442C135.109 91.2833 132.079 92.7771 128.829 93.4995C125.578 94.2219 122.201 94.1516 118.983 93.2946C117.554 92.9219 114.142 91.7503 113.089 88.8973C113.206 88.8252 113.321 88.7572 113.433 88.6933L113.432 88.6925ZM73.9514 93.3751C74.0174 93.165 74.4421 93.1144 74.7013 93.1857C75.2017 93.4369 75.7517 93.5739 76.3115 93.5867C76.3919 93.5884 76.4709 93.5646 76.5372 93.5189C76.6034 93.4732 76.6536 93.4077 76.6806 93.3319C76.7075 93.256 76.71 93.1736 76.6875 93.0963C76.665 93.019 76.6187 92.9508 76.5553 92.9012C75.9396 92.4197 75.3833 91.8665 74.8983 91.2535C74.7567 91.0974 74.6789 90.8938 74.6806 90.683C74.7916 90.6649 74.9056 90.6801 75.008 90.7267C76.1216 90.9657 77.1385 91.5317 77.9285 92.3522C77.9965 92.428 78.0917 92.4737 78.1933 92.4792C78.2949 92.4847 78.3945 92.4497 78.4702 92.3818C78.546 92.3138 78.5917 92.2186 78.5972 92.117C78.6027 92.0154 78.5677 91.9158 78.4998 91.84C77.9914 91.2266 77.5298 90.5726 77.0636 89.9071C76.8582 89.6126 76.7838 89.1994 76.8873 89.0851C76.9509 89.0153 77.2745 89.066 77.6149 89.3021C78.7802 90.1192 79.6926 91.2473 80.248 92.5577C80.2846 92.6435 80.3514 92.713 80.4356 92.7531C80.5198 92.7932 80.6158 92.8012 80.7056 92.7756C80.7953 92.7501 80.8726 92.6926 80.923 92.6141C80.9734 92.5356 80.9935 92.4414 80.9794 92.3492C80.8912 91.7663 80.9499 91.1707 81.1504 90.6163C81.1719 90.5396 81.2133 90.463 81.2133 90.4553C81.2657 90.4172 81.3299 90.3986 81.3946 90.4028C81.4593 90.407 81.5205 90.4337 81.5675 90.4783C81.7427 90.6602 81.8652 90.8862 81.9218 91.1323C82.3834 92.569 82.6107 94.0706 82.595 95.5795L79.8117 98.0415C79.7106 98.1007 79.616 98.1704 79.5295 98.2493C76.0063 94.5298 73.7452 94.0322 73.9514 93.3751ZM119.432 134.688C116.922 134.286 114.336 133.701 112.351 132.189C113.271 130.993 113.223 131.123 113.408 130.87C118.647 133.913 125.013 134.062 130.962 133.068C132.199 132.833 133.403 132.446 134.546 131.918C134.397 132.523 134.243 133.14 134.081 133.78C129.109 135.762 123.068 135.276 119.432 134.688V134.688ZM113.954 126.29C121.124 128.215 128.658 128.33 135.883 126.626C135.492 128.064 135.148 129.463 134.783 130.951C133.538 131.592 132.208 132.05 130.833 132.312C123.907 133.47 118.172 132.758 113.776 130.198C113.917 129.708 113.884 129.699 113.954 126.289V126.29ZM136.555 144.171C136.448 144.312 136.312 144.429 136.156 144.513C136.099 144.547 136.032 144.556 135.968 144.539C136.053 143.887 136.215 143.247 136.451 142.633C136.474 142.54 136.461 142.44 136.414 142.356C136.367 142.271 136.29 142.208 136.198 142.177C136.107 142.147 136.007 142.153 135.919 142.193C135.831 142.233 135.762 142.305 135.725 142.394C135.51 142.912 134.078 144.634 133.7 144.605C133.642 144.501 133.615 144.382 133.623 144.263C133.631 143.88 133.664 143.885 134.523 141.765C134.56 141.675 134.561 141.574 134.526 141.482C134.491 141.391 134.422 141.317 134.334 141.274C134.246 141.232 134.145 141.225 134.052 141.255C133.959 141.284 133.88 141.349 133.833 141.434C133.441 142.131 132.964 142.777 132.413 143.357C131.57 144.374 132.321 141.287 133.827 139.614C133.891 139.542 133.926 139.448 133.924 139.351C133.922 139.254 133.883 139.162 133.816 139.093C133.749 139.023 133.658 138.982 133.561 138.976C133.465 138.971 133.37 139.002 133.295 139.064C132.487 139.743 132.389 139.853 132.064 139.957C131.791 140.043 131.691 139.757 131.933 139.529C132.636 138.747 133.416 138.039 134.262 137.415C135.581 138.162 136.985 138.749 138.443 139.164C138.535 139.208 138.63 139.244 138.727 139.273C138.474 141.076 137.721 142.772 136.555 144.17V144.171ZM140.389 137.761C140.345 137.907 140.273 138.043 140.177 138.161C140.08 138.279 139.962 138.377 139.828 138.449C139.693 138.521 139.546 138.566 139.395 138.582C139.243 138.597 139.09 138.583 138.944 138.539C137.268 138.06 135.661 137.364 134.164 136.469C135.783 130.522 136.371 126.799 138.483 120.911C139.649 117.676 139.94 115.385 138.32 111.841C136.897 108.729 135.407 105.648 133.851 102.601C133.829 102.554 133.798 102.513 133.76 102.479C133.722 102.445 133.677 102.418 133.628 102.402C133.58 102.385 133.528 102.379 133.477 102.383C133.426 102.386 133.376 102.4 133.33 102.424C133.285 102.447 133.244 102.479 133.211 102.519C133.178 102.558 133.154 102.603 133.139 102.652C133.123 102.701 133.118 102.753 133.124 102.804C133.129 102.855 133.144 102.905 133.169 102.949C134.719 105.987 136.204 109.058 137.623 112.16C139.906 117.144 138.091 118.805 136.119 125.776C126.897 128.043 117.19 127.275 108.44 123.585C108.102 123.499 107.806 123.296 107.606 123.011C107.406 122.726 107.314 122.378 107.348 122.032C106.517 112.216 107.687 102.333 110.787 92.9825C110.819 92.8859 110.811 92.7806 110.765 92.6898C110.719 92.599 110.639 92.5301 110.543 92.4983C110.446 92.4665 110.341 92.4743 110.25 92.5201C110.159 92.5659 110.09 92.6459 110.058 92.7425C107.639 100.051 106.38 107.693 106.327 115.392C104.879 117.061 103.664 118.06 101.633 118.517C98.6936 119.184 95.7815 117.281 93.5725 115.548C86.6718 110.145 82.2246 105.062 79.9811 100.01C79.9543 99.9601 79.9246 99.9119 79.8922 99.8656C79.8361 99.7627 79.8011 99.6496 79.7894 99.5329C79.7777 99.4163 79.7895 99.2985 79.824 99.1864C79.8585 99.0744 79.9151 98.9704 79.9904 98.8806C80.0657 98.7907 80.1582 98.7169 80.2625 98.6633L83.453 95.8501C87.8487 99.825 93.6346 102.814 98.5288 106.071C98.6193 106.13 98.7295 106.151 98.8355 106.13C99.5355 105.981 105.765 96.8523 105.823 96.7557C107.527 93.8785 109.773 91.359 112.436 89.3366C113.629 92.2894 116.906 93.5476 118.789 94.0383C122.171 94.9423 125.724 95.0051 129.137 94.2213C132.55 93.4375 135.719 91.8308 138.368 89.5413C138.726 89.7484 139.074 89.9615 139.409 90.1808C142.44 92.4044 143.584 95.7014 144.797 99.1909C146.728 104.158 148.13 109.316 148.979 114.577C149.237 116.425 149.639 118.971 148.924 120.97C148.127 123.114 147.181 125.199 146.091 127.209C144.428 130.85 142.524 134.374 140.39 137.76L140.389 137.761Z" fill="#4B1010"/>
<path d="M22.6138 73.1305C22.6138 74.0584 22.9824 74.9483 23.6385 75.6044C24.2946 76.2606 25.1845 76.6292 26.1124 76.6292C27.0403 76.6292 27.9303 76.2606 28.5864 75.6044C29.2425 74.9483 29.6111 74.0584 29.6111 73.1305C29.6111 72.2026 29.2425 71.3127 28.5864 70.6566C27.9303 70.0004 27.0403 69.6318 26.1124 69.6318C25.1845 69.6318 24.2946 70.0004 23.6385 70.6566C22.9824 71.3127 22.6138 72.2026 22.6138 73.1305Z" fill="#FFE55D"/>
<path d="M38.2549 69.7497C38.2549 70.5216 38.5615 71.2619 39.1074 71.8078C39.6532 72.3536 40.3935 72.6603 41.1655 72.6603C41.9374 72.6603 42.6777 72.3536 43.2236 71.8078C43.7694 71.2619 44.076 70.5216 44.076 69.7497C44.076 68.9778 43.7694 68.2374 43.2236 67.6916C42.6777 67.1458 41.9374 66.8391 41.1655 66.8391C40.3935 66.8391 39.6532 67.1458 39.1074 67.6916C38.5615 68.2374 38.2549 68.9778 38.2549 69.7497Z" fill="#FFE55D"/>
<path d="M110.513 70.9954C110.513 71.3486 110.583 71.6984 110.718 72.0247C110.853 72.3511 111.051 72.6476 111.301 72.8974C111.551 73.1471 111.847 73.3453 112.174 73.4804C112.5 73.6156 112.85 73.6852 113.203 73.6852C113.556 73.6852 113.906 73.6156 114.232 73.4804C114.559 73.3453 114.855 73.1471 115.105 72.8974C115.355 72.6476 115.553 72.3511 115.688 72.0247C115.823 71.6984 115.893 71.3486 115.893 70.9954C115.893 70.6422 115.823 70.2924 115.688 69.9661C115.553 69.6398 115.355 69.3432 115.105 69.0935C114.855 68.8437 114.559 68.6456 114.232 68.5104C113.906 68.3752 113.556 68.3057 113.203 68.3057C112.85 68.3057 112.5 68.3752 112.174 68.5104C111.847 68.6456 111.551 68.8437 111.301 69.0935C111.051 69.3432 110.853 69.6398 110.718 69.9661C110.583 70.2924 110.513 70.6422 110.513 70.9954Z" fill="#FFE55D"/>
<path d="M123.932 71.1871C123.932 71.6011 124.014 72.0111 124.172 72.3936C124.331 72.7761 124.563 73.1237 124.856 73.4165C125.148 73.7092 125.496 73.9415 125.878 74.0999C126.261 74.2584 126.671 74.3399 127.085 74.3399C127.499 74.3399 127.909 74.2584 128.292 74.0999C128.674 73.9415 129.022 73.7092 129.314 73.4165C129.607 73.1237 129.839 72.7761 129.998 72.3936C130.156 72.0111 130.238 71.6011 130.238 71.1871C130.238 70.773 130.156 70.363 129.998 69.9805C129.839 69.598 129.607 69.2504 129.314 68.9576C129.022 68.6649 128.674 68.4326 128.292 68.2742C127.909 68.1157 127.499 68.0342 127.085 68.0342C126.671 68.0342 126.261 68.1157 125.878 68.2742C125.496 68.4326 125.148 68.6649 124.856 68.9576C124.563 69.2504 124.331 69.598 124.172 69.9805C124.014 70.363 123.932 70.773 123.932 71.1871Z" fill="#FFE55D"/>
<path d="M115.8 71.4224C115.728 71.4224 115.658 71.4021 115.597 71.364C115.536 71.3258 115.487 71.2712 115.456 71.2065C115.424 71.1418 115.412 71.0696 115.419 70.9981C115.427 70.9266 115.455 70.8586 115.499 70.8021C116.573 69.4364 117.557 68.0021 118.445 66.5083C118.524 66.419 118.574 66.3076 118.587 66.1891C118.601 66.0706 118.578 65.9508 118.521 65.8458C118.338 65.3163 118.11 64.8033 117.84 64.3123C117.791 64.2233 117.779 64.1183 117.807 64.0206C117.836 63.9229 117.901 63.8404 117.991 63.7913C118.08 63.7422 118.185 63.7305 118.282 63.7587C118.38 63.787 118.462 63.8529 118.512 63.942C118.799 64.4645 119.042 65.0103 119.238 65.5736C119.333 65.7903 119.369 66.028 119.344 66.2631C119.318 66.4983 119.232 66.7226 119.093 66.9139C118.192 68.4321 117.193 69.89 116.102 71.2782C116.066 71.3235 116.02 71.3601 115.968 71.385C115.916 71.41 115.858 71.4228 115.8 71.4224Z" fill="#4B1010"/>
<path d="M114.313 137.596C114.191 137.74 114.106 137.912 114.067 138.097C114.054 138.311 114.103 138.524 114.209 138.711C114.537 139.412 115.018 140.031 115.616 140.523C116.214 141.014 116.915 141.366 117.666 141.552C117.773 141.59 117.89 141.59 117.997 141.552C118.155 141.453 117.839 141.93 121.531 135.775C121.639 135.621 121.705 135.441 121.72 135.254C121.633 134.902 121.473 134.572 121.251 134.285C121.029 133.998 120.75 133.76 120.432 133.587C119.788 133.407 118.727 134.042 118.187 134.316C116.658 135.093 115.331 136.216 114.313 137.596Z" fill="white"/>
<path d="M127.364 140.769C127.642 140.972 127.969 141.096 128.312 141.128C128.899 141.128 129.338 140.6 129.638 140.096C130.385 138.83 130.784 137.389 130.793 135.919C130.811 135.755 130.778 135.589 130.698 135.445C130.59 135.314 130.445 135.218 130.282 135.171C128.125 134.378 125.908 133.763 123.652 133.33C123.585 133.299 123.512 133.282 123.437 133.281C123.363 133.28 123.29 133.295 123.222 133.325C123.154 133.354 123.093 133.398 123.043 133.452C122.993 133.507 122.955 133.572 122.932 133.642C121.284 136.85 124.94 139.272 127.364 140.769Z" fill="white"/>
<path d="M123.074 133.381C122.374 133.198 121.643 133.169 120.931 133.297C120.722 133.751 120.613 134.244 120.611 134.744C120.597 134.854 120.624 134.966 120.687 135.057C120.75 135.148 120.845 135.212 120.952 135.237C121.509 135.465 122.104 135.587 122.705 135.597C122.781 135.614 122.859 135.612 122.934 135.592C123.009 135.572 123.078 135.535 123.136 135.483C123.193 135.431 123.237 135.366 123.265 135.294C123.292 135.221 123.301 135.143 123.293 135.066L123.369 133.788C123.382 133.742 123.385 133.693 123.376 133.645C123.367 133.598 123.348 133.553 123.32 133.513C123.291 133.474 123.255 133.442 123.212 133.419C123.17 133.396 123.122 133.383 123.074 133.381Z" fill="white"/>
<path d="M130.993 135.202C130.843 135.017 130.641 134.881 130.413 134.811C128.255 134.018 126.035 133.403 123.777 132.971C123.539 132.89 123.28 132.892 123.043 132.978C122.537 132.852 122.015 132.807 121.495 132.844C120.751 132.905 120.615 133.055 120.544 133.223C119.786 132.98 118.543 133.699 118.232 133.862C116.567 134.673 115.121 135.872 114.015 137.358C113.846 137.565 113.733 137.811 113.688 138.074C113.668 138.353 113.73 138.631 113.865 138.876C114.212 139.625 114.723 140.287 115.36 140.813C115.997 141.34 116.744 141.717 117.545 141.917C117.652 141.955 117.766 141.972 117.88 141.965C117.994 141.959 118.105 141.93 118.208 141.879C118.344 141.795 118.456 141.676 118.531 141.534C118.531 141.534 121.89 135.937 121.905 135.907C122.006 135.925 122.107 135.939 122.212 135.95C122.702 138.332 125.569 140.107 127.156 141.087C127.497 141.332 127.899 141.479 128.317 141.512C128.936 141.512 129.477 141.114 129.975 140.29C130.746 138.976 131.162 137.484 131.18 135.961C131.204 135.694 131.138 135.427 130.993 135.202ZM120.994 134.746C120.996 134.369 121.065 133.995 121.2 133.642C121.797 133.565 122.403 133.601 122.986 133.748C122.994 134.231 122.96 134.715 122.886 135.192C122.83 135.215 122.77 135.223 122.711 135.214C122.154 135.206 121.605 135.092 121.091 134.878C121 134.843 120.986 134.879 120.994 134.746ZM117.83 141.198C117.113 141.034 116.444 140.707 115.874 140.244C115.304 139.78 114.848 139.192 114.542 138.524C114.481 138.418 114.447 138.299 114.441 138.177C114.471 138.046 114.532 137.924 114.621 137.823C115.661 136.425 117.022 135.299 118.59 134.54C119.101 134.209 119.684 134.007 120.29 133.949L120.308 133.961C120.257 134.207 120.232 134.457 120.232 134.709C120.21 134.9 120.256 135.093 120.362 135.254C120.467 135.415 120.625 135.535 120.809 135.592C120.913 135.635 121.019 135.674 121.125 135.71C118.616 139.893 117.899 141.122 117.83 141.198ZM130.41 135.915C130.396 137.316 130.016 138.689 129.309 139.898C128.97 140.46 128.634 140.741 128.347 140.747C128.064 140.716 127.794 140.61 127.566 140.44C125.399 139.103 123.443 137.651 123.001 135.958C123.158 135.922 123.303 135.849 123.426 135.745C123.589 135.565 123.677 135.33 123.675 135.087C123.775 133.39 123.751 133.898 123.76 133.743C125.942 134.172 128.086 134.772 130.173 135.537C130.24 135.558 130.304 135.589 130.362 135.628C130.408 135.716 130.425 135.817 130.41 135.915Z" fill="#4B1010"/>
</svg>
