<svg width="155" height="155" viewBox="0 0 155 155" fill="none" xmlns="http://www.w3.org/2000/svg">
<path d="M32.4949 89.3642C35.11 87.7175 37.5152 85.7588 39.6574 83.5313C42.3164 80.5802 44.8986 78.5129 45.7132 77.5523C46.5278 76.5916 48.9563 73.4177 49.771 72.9412C50.5856 72.4647 54.8662 69.3215 55.1505 69.2524C55.4349 69.1832 65.1949 67.0006 65.1949 67.0006C65.1949 67.0006 94.0601 60.207 94.3522 59.915C94.6442 59.6229 96.2734 59.8381 97.9718 60.061C99.6702 60.2839 104.389 60.061 105.496 60.9448C107.387 62.4729 109.174 64.1264 110.844 65.894C111.805 67.0698 112.62 69.3599 114.979 70.2437C117.338 71.1275 118.599 73.1948 119.336 74.0094C120.074 74.824 122.287 77.5523 123.179 78.0672C124.07 78.5821 127.682 80.5033 127.752 81.61C127.821 82.7166 122.372 108.408 122.372 108.408C121.147 107.375 119.864 106.413 118.529 105.526C114.687 102.544 116.162 103.651 111.851 100.692L112.335 105.664C112.335 105.664 112.097 114.548 111.206 120.604C110.314 126.66 110.153 130.779 110.437 131.425C110.721 132.07 112.335 139.425 112.497 140.716C112.658 142.007 113.265 146.096 113.265 146.096C68.6916 146.096 82.5248 146.303 51.5078 145.327C51.3564 143.846 51.4133 142.351 51.6769 140.885C52.1149 139.31 52.7605 127.198 52.6452 124.285C52.5299 121.373 52.5606 112.942 51.7537 110.275C51.2555 108.589 50.931 106.856 50.7854 105.103C50.7854 105.103 42.3318 112.858 41.3712 113.142C40.4105 113.426 32.4949 89.3642 32.4949 89.3642Z" fill="white"/>
<path d="M55.9881 70.6664C55.5293 70.4084 55.0878 70.1209 54.6663 69.8057C55.2426 69.4752 55.6884 69.2447 55.8959 69.1524C56.6644 68.8066 59.4618 67.7614 61.5905 68.0612C63.7193 68.3609 94.3444 62.6124 94.3444 62.6124C94.3444 62.6124 94.0908 60.1301 94.5442 59.7843C94.9976 59.4385 95.9813 59.8842 96.8497 59.8842C100.731 60.4452 100.838 60.061 102.675 60.3914C101.063 61.634 99.241 62.5764 97.2955 63.1734C92.3232 64.7105 78.0827 67.8537 73.049 68.9219L66.9624 70.1746C62.8048 71.0199 58.7163 72.1957 55.9881 70.6664Z" fill="#C5CDF3"/>
<path d="M48.1492 74.9239C49.1898 73.7026 50.3712 72.6089 51.6689 71.6654C52.5119 72.7548 53.5814 73.6481 54.8034 74.2837C56.0255 74.9193 57.371 75.2819 58.7469 75.3465C60.7588 75.4081 62.7704 75.2144 64.7336 74.7702C73.9557 73.1332 86.8974 70.3435 96.9572 67.6845C101.63 66.4472 103.697 65.1177 107.332 62.1359C108.3 62.8352 108.239 63.0196 110.614 66.1167C100.193 72.4877 89.0031 74.2552 76.4226 76.7222C66.1477 78.7049 63.527 79.3966 60.1994 79.2506C55.8408 79.0435 51.644 77.5366 48.1492 74.9239Z" fill="#C5CDF3"/>
<path d="M42.5698 80.9179C43.1361 80.3807 43.6319 79.7739 44.0454 79.1119L45.859 77.2752C47.1079 78.4917 48.5017 79.5499 50.009 80.426C58.4626 85.2984 64.9795 83.5001 74.4399 81.8631C84.5688 80.1494 94.8976 78.5278 104.473 74.6545C107.743 73.3849 110.878 71.794 113.834 69.9052C113.97 70.0445 114.132 70.1567 114.31 70.2356C115.552 70.8657 116.715 71.6395 117.776 72.5411C116.931 72.9792 112.074 75.6152 109.837 77.0062C107.601 78.3972 105.288 80.0802 102.736 81.1407C99.8007 82.3166 96.8266 82.6778 89.5411 84.1456C88.4959 84.3531 88.688 85.3445 86.1212 86.3051C83.7465 87.1889 82.7167 86.6049 80.3267 87.6808C78.3593 88.5645 77.6984 88.1034 75.608 88.4493C74.2862 88.6645 73.3717 88.3033 71.6502 87.2658C67.5541 87.919 63.7038 89.3023 57.6787 88.1419C53.4903 87.358 49.7554 84.5529 42.5698 80.9179Z" fill="#C5CDF3"/>
<path d="M67.6232 120.65C70.044 120.566 72.4571 120.543 74.8779 120.366C86.2288 119.528 100.738 116.793 112.005 114.318C112.235 111.249 112.279 108.17 112.135 105.096C107.744 106.625 103.266 107.893 98.7247 108.892C90.7138 110.584 82.6136 111.82 74.4629 112.596C66.9776 113.365 58.8622 114.979 51.7996 111.736C52.2368 113.966 52.4938 116.227 52.5681 118.499C57.4003 120.182 62.5129 120.913 67.6232 120.65Z" fill="#C5CDF3"/>
<path d="M120.481 75.4928C119.398 75.9385 118.237 76.4073 117.192 76.9222C114.256 78.367 112.858 80.7648 110.16 82.6246C107.601 84.3614 106.487 86.713 103.467 87.4585C100.446 88.2039 94.329 89.3798 91.2703 89.9792C85.0531 91.1934 79.9655 91.8159 73.7022 92.7689C70.4668 93.253 64.8951 93.5912 61.6366 93.8909C58.6317 94.1676 55.8651 93.1224 52.9601 92.0772C50.0552 91.0321 48.6872 88.5805 46.105 86.9666C44.0377 85.6755 42.078 84.738 40.0492 83.3931C38.9271 84.761 38.3277 84.8148 37.198 86.0444C40.2322 89.1944 42.6787 92.8616 44.422 96.8727C45.9259 100.277 47.1569 103.795 48.1031 107.394C49.2098 106.325 50.2934 105.265 50.6853 104.873C50.6847 105.723 50.7308 106.572 50.8237 107.417C55.0545 108.821 59.5171 109.392 63.9652 109.1C73.7329 108.331 74.7243 108.454 88.0964 106.103C95.7454 104.774 103.27 102.807 110.591 100.223C110.884 100.123 111.196 100.086 111.505 100.116C109.369 95.5048 110.821 90.4634 112.02 88.104C113.495 85.623 115.385 83.4134 117.607 81.5717C118.814 80.5902 120.099 79.7086 121.45 78.9357C122.003 78.6283 122.587 78.3517 123.163 78.0596C122.082 77.4236 121.164 76.5449 120.481 75.4928ZM98.5481 98.6019C87.5815 101.1 68.338 104.227 57.3099 103.574C54.6739 103.413 52.8372 103.144 50.6162 101.783C50.0014 101.407 50.6162 98.7095 49.3481 96.9342C49.5104 96.8893 49.6801 96.8784 49.8467 96.9022C50.0134 96.9261 50.1733 96.984 50.3164 97.0725C53.2752 98.8017 56.795 98.94 60.138 98.8247C67.3312 98.5788 73.9712 98.3175 81.0338 97.0802C90.2559 95.4817 96.6268 94.4289 105.011 91.4163C106.141 92.7151 106.433 93.9678 107.094 95.1205C105.034 95.8275 100.7 98.11 98.5481 98.6019Z" fill="#C5CDF3"/>
<path d="M35.0079 87.8423C33.7936 88.7491 32.0337 90.0172 31.9338 90.0633L41.594 113.119C41.863 113.188 43.0849 112.181 44.9678 110.436C43.8606 106.367 42.5291 102.362 40.9792 98.44C39.445 94.6691 37.4386 91.1081 35.0079 87.8423Z" fill="#C5CDF3"/>
<path d="M59.0697 131.425C61.2198 131.706 63.3926 131.773 65.5559 131.625C80.6873 131.075 95.7438 129.229 110.56 126.107C110.644 124.677 110.952 121.557 111.167 119.336C100.823 121.449 89.7024 123.563 79.1739 124.377C74.217 124.769 66.993 125.492 62.0592 124.839C57.7017 124.262 56.6258 123.886 52.6603 122.087C52.3913 124.262 52.4374 127.152 52.3606 129.319C52.5241 129.329 52.6825 129.379 52.8217 129.465C54.7621 130.507 56.882 131.172 59.0697 131.425Z" fill="#C5CDF3"/>
<path d="M126.506 80.4807C123.371 82.7862 120.158 83.5548 117.538 88.7191C117.269 89.2494 117.115 89.6337 117.069 89.7105C115.893 92.5819 115.498 95.7132 115.924 98.7866C116.165 99.6625 116.212 100.58 116.062 101.476C115.982 101.78 115.833 102.061 115.627 102.297C115.42 102.533 115.161 102.717 114.871 102.837C117.397 104.544 119.793 106.434 122.041 108.493C122.041 108.493 127.836 82.9707 127.99 82.279C128.059 81.9486 127.382 81.2339 126.506 80.4807Z" fill="#C5CDF3"/>
<path d="M77.9519 145.242C73.0641 145.473 67.6308 145.75 62.7431 145.473C58.9005 145.258 55.1579 145.119 51.3768 144.174C51.3602 144.687 51.3782 145.201 51.4306 145.711C52.4758 147.394 57.8246 146.556 61.3444 147.248C64.8641 147.94 77.4831 146.649 80.5571 147.348C83.6311 148.047 95.52 146.948 98.2328 147.194C100.946 147.44 104.719 146.357 107.048 147.194C109.376 148.032 113.196 146.649 113.196 146.649C113.196 146.649 112.957 145.112 112.735 143.536C111.182 143.69 88.1192 144.797 77.9519 145.242Z" fill="#C5CDF3"/>
<path d="M65.164 141.846C79.1585 141.792 98.1484 140.586 112.043 139.156C111.674 136.621 111.161 134.109 110.506 131.633C99.4105 134.155 88.0702 135.444 76.6916 135.475C72.1651 135.798 64.8643 136.244 60.3377 135.836C58.2628 135.637 53.7824 134.223 52.3914 133.162C52.2146 136.636 51.7228 140.847 51.6997 140.985C56.1522 141.682 60.659 141.97 65.164 141.846Z" fill="#C5CDF3"/>
<path d="M146.357 82.985C146.37 83.1216 146.346 83.2592 146.288 83.3836C146.23 83.5079 146.14 83.6144 146.026 83.692C145.412 84.1531 146.026 83.4307 145.419 81.5248C145.319 81.202 145.473 81.325 146.034 80.8716C146.195 80.7256 146.119 80.6871 146.357 82.985Z" fill="#F0F6FF"/>
<path d="M144.659 81.6093C144.766 81.5555 145.343 84.3375 144.474 84.1454C144.297 84.1454 144.305 83.9302 144.013 82.4546C143.944 81.9397 143.844 82.0397 144.659 81.6093Z" fill="#F0F6FF"/>
<path d="M143.629 84.2683C143.49 84.5296 143.782 84.3298 142.576 84.7448C142.284 84.8524 142.307 84.7448 141.907 82.616C141.907 82.4623 142.184 82.3624 143.022 82.1472C143.375 82.0627 143.283 82.1318 143.629 84.2683Z" fill="#F0F6FF"/>
<path d="M136.282 81.1492C136.482 81.8639 136.912 80.8956 137.05 83.8774C137.05 84.1464 137.05 84.1464 136.797 84.0849C136.113 83.9158 136.028 83.8082 136.028 83.1089C135.982 82.1482 135.759 80.8033 136.028 80.8033C136.297 80.8033 136.243 81.0108 136.282 81.1492Z" fill="#F0F6FF"/>
<path d="M138.879 82.386C139.271 84.8683 139.34 84.7453 139.048 84.6915C138.026 84.461 137.942 84.5532 137.903 84.2996C137.558 81.7789 137.45 81.9556 137.857 81.848C138.964 82.3322 138.856 82.263 138.879 82.386Z" fill="#F0F6FF"/>
<path d="M141.216 82.7852C141.569 84.7372 141.692 84.8217 141.377 84.8217C140.355 84.8217 140.086 85.0369 140.024 84.6603C139.602 82.2395 139.463 82.424 139.878 82.4701C141.047 82.6007 141.154 82.4624 141.216 82.7852Z" fill="#F0F6FF"/>
<path d="M31.7569 51.039C31.9721 51.3079 31.9644 51.5769 31.6186 51.9458C31.0361 52.5296 30.4175 53.0763 29.7665 53.5827C28.0988 54.9353 28.168 54.7201 28.0835 54.5357C27.5198 53.2331 27.1123 51.8685 26.8692 50.4703C26.7155 49.8708 26.4004 49.5404 25.9163 49.5557C25.6099 49.5615 25.3095 49.6423 25.0416 49.791C24.7736 49.9397 24.5462 50.1518 24.3792 50.4088C22.8422 52.4069 24.3178 56.7105 24.3792 57.5405C24.3792 57.5405 18.1236 62.9201 14.5423 65.7482C12.6748 67.2237 12.8362 67.2852 8.91684 61.6905C7.72565 59.9998 8.08685 60.6453 8.85535 61.0142C9.33801 61.2611 9.85681 61.4297 10.3924 61.5137C12.2061 61.752 12.5058 60.6761 12.5903 60.4686C13.1283 59.0314 12.6979 58.8777 11.1993 57.2485C10.7689 56.772 12.4136 57.9632 13.9352 58.3782C15.2494 58.7394 15.9871 57.7327 16.4021 56.4339C16.5174 56.0727 17.5395 56.211 18.1082 55.0736C18.5309 54.2436 17.7163 53.6826 18.6538 53.4598C20.3599 53.0448 19.8988 50.8161 19.4762 49.1023C19.4762 49.0101 19.4762 48.8487 19.7374 48.6028C20.7826 47.4577 24.7866 44.3376 24.9787 44.1762C25.1708 44.0148 25.3476 43.9226 25.5474 44.0378C26.385 44.5451 28.7444 47.304 31.7569 51.039Z" fill="#F0F6FF"/>
<path d="M6.5344 59.2763C8.10342 61.892 9.8874 64.3726 11.8679 66.6924C12.8131 67.7222 13.743 67.3149 14.8804 66.4004C19.4069 62.7423 19.7374 61.9738 18.3003 64.3101C17.2935 65.9393 18.4847 64.7712 14.6345 67.8145C13.6815 68.583 13.0975 68.752 12.7286 68.6752C12.3475 68.6351 11.9972 68.4475 11.7526 68.1526C9.54416 65.8594 7.56959 63.3519 5.85812 60.6673C5.47386 59.9603 5.61219 59.8297 5.70441 59.6913C5.8649 59.4785 6.07631 59.3093 6.31922 59.1995C6.33818 59.1892 6.35908 59.1831 6.38056 59.1815C6.40205 59.1798 6.42363 59.1827 6.44393 59.19C6.46422 59.1972 6.48276 59.2087 6.49834 59.2235C6.51393 59.2384 6.52622 59.2564 6.5344 59.2763Z" fill="white"/>
<path d="M28.8213 56.4873C28.6215 56.6564 28.6292 56.4874 28.5754 56.2107C28.4371 55.6266 28.2526 55.5267 28.6215 55.2424C32.733 52.0838 32.9866 51.7303 32.3257 50.7312C30.3464 48.1898 28.2218 45.7649 25.9625 43.4688C25.3938 43.0154 25.4399 43.1153 19.4378 48.0799C19.2764 48.2182 19.2534 48.003 19.2226 47.9185C18.9306 47.1039 18.6001 47.3037 21.4206 45.0519C23.2957 43.5533 24.3793 42.5543 25.1017 42.1162C26.2622 41.4246 26.0701 41.3477 30.9962 47.0501C35.7917 52.5756 35.6149 50.8695 28.8213 56.4873Z" fill="white"/>
<path d="M85.4218 46.3273V46.6423C85.4756 47.5799 85.2835 47.5876 84.5457 47.5184C84.3075 47.5184 84.1308 47.48 84.0616 47.3571C84.027 47.2053 84.027 47.0477 84.0616 46.8959C84.0616 46.5271 84.0616 46.358 84.1538 46.3119C84.246 46.2658 84.4458 46.358 84.6303 46.3734C85.0837 46.4272 85.3373 46.2273 85.4218 46.3273Z" fill="white"/>
<path d="M84.7147 39.3728C85.7368 40.4949 85.4832 43.9839 85.4832 45.398C85.4832 45.8206 84.6378 45.8437 84.3227 45.7207C84.0077 45.5978 84.3227 45.4825 84.1537 43.5612C84.0538 42.1318 82.8318 42.6544 83.1469 41.7245C83.2907 41.3488 83.3448 40.9447 83.3048 40.5444C83.2647 40.1441 83.1317 39.7587 82.9164 39.419C82.632 38.8118 84.1306 38.7427 84.7147 39.3728Z" fill="white"/>
<path d="M85.76 18.6758C86.0474 19.2388 86.1876 19.8654 86.1674 20.4972C86.1212 20.943 86.1136 21.3195 85.76 21.3887C84.8401 21.6019 84.0024 22.0791 83.3499 22.7617C82.6973 23.4443 82.2582 24.3026 82.0866 25.2312C81.9252 26.4993 82.2864 27.6674 82.0866 28.4667C81.7331 30.0037 82.4017 30.7722 82.2249 32.8702C82.1634 33.5696 81.9098 33.4082 80.9799 33.8309C79.489 34.5071 79.3507 35.7444 79.074 37.2815C78.7512 39.0798 79.3968 39.587 78.9587 39.7099C75.8232 40.4785 77.3526 40.709 76.1614 37.6503C75.5773 36.1594 77.6139 35.6215 74.6244 33.8078C74.4149 33.6833 74.2424 33.5051 74.1249 33.2916C74.0073 33.0782 73.9489 32.8372 73.9557 32.5935C74.3016 30.9566 76.2613 29.9038 73.3563 27.8288C72.7953 27.4215 73.1334 26.7529 73.4946 26.0766C74.8165 23.6097 72.4802 24.5396 71.4735 24.4704C70.1209 24.4089 70.8356 21.8959 68.2688 23.6327C66.847 24.6011 66.7856 21.942 65.3561 22.7951C63.9267 23.6481 64.0497 23.9401 61.9209 23.0179C61.7042 22.9051 61.452 22.8813 61.218 22.9517C60.9841 23.022 60.7868 23.1809 60.6682 23.3945C60.4013 23.8679 59.9645 24.2222 59.4463 24.3859C58.6778 24.7548 57.7863 23.6712 57.0716 24.847C56.4952 25.7922 56.1571 26.261 55.3578 26.0151C53.206 25.3388 53.5672 26.1381 52.5067 27.6213C52.1762 28.0824 51.7382 27.9825 51.1848 28.044C50.4163 28.1362 50.8083 28.5819 49.9168 29.581C48.3337 31.387 47.5037 30.5493 45.6516 30.557C42.8465 30.557 43.2308 33.2468 41.6169 30.1651C41.5093 29.9576 41.4555 29.6655 41.6169 29.5272C42.8545 28.535 44.4236 28.0514 46.0051 28.1746C46.7736 28.1746 46.7736 27.5291 46.397 27.2063C45.8182 26.7774 45.2066 26.3945 44.568 26.0612C43.0309 25.1083 40.5794 26.0612 40.6332 25.2927C40.81 22.895 40.8407 22.8489 40.9867 22.8258C42.8234 22.5107 46.5738 23.8095 47.4345 24.6549C48.2952 25.5002 49.5479 24.2399 46.3893 21.2734C45.7714 20.7928 45.0314 20.4947 44.2529 20.4127C43.602 20.2538 42.9885 19.9692 42.4469 19.575C42.3217 19.5078 42.225 19.3979 42.1742 19.2653C42.1234 19.1326 42.122 18.9862 42.1702 18.8526C42.6774 17.1311 42.4161 17.1849 43.0924 17.2695C46.0896 17.6537 45.5209 18.9448 47.3269 19.3675C48.2645 19.5904 48.6795 20.4742 49.717 21.8728C49.9783 22.2264 50.5546 22.2494 50.4471 21.6807C50.2088 20.4204 46.2203 15.2252 46.8351 12.6354C46.8351 12.5201 46.8965 12.4279 47.0195 12.4202C47.8879 12.3357 48.9869 11.0215 49.2866 12.2281C50.0551 15.3021 50.0551 13.8957 50.4086 15.694C50.7219 16.8229 51.3511 17.8388 52.2223 18.6221C52.937 19.4367 52.9908 19.844 53.3751 19.9977C53.7593 20.1514 53.9515 19.6057 53.7824 19.306C52.8525 17.7152 52.8755 18.0303 52.8371 17.769C52.6528 16.9389 52.56 16.091 52.5605 15.2406C52.9063 11.9591 51.6306 10.1377 54.036 10.1377C55.4116 10.0609 55.304 9.92253 55.1273 10.7295C54.6508 12.889 54.9505 12.2127 54.9275 13.035C54.9275 15.0177 54.2358 15.1868 55.8804 17.7921C56.2877 18.4453 57.4174 18.1072 57.1638 15.525C57.087 14.6796 57.4943 14.6104 57.8324 13.8035C58.6855 11.7439 57.5711 12.3049 58.7316 10.0301C59.3003 8.91579 59.869 9.53828 61.3599 9.58439C61.675 9.58439 61.6673 9.58439 61.6827 9.95327C61.6936 10.3575 61.5661 10.7533 61.3215 11.0753C60.284 12.6123 60.9449 13.7036 60.2071 14.7565C59.9541 15.1489 59.8075 15.6004 59.7819 16.0666C59.7563 16.5329 59.8526 16.9977 60.0611 17.4155C60.2686 17.9842 60.9756 17.9458 60.8296 17.2157C60.6836 16.4856 60.4069 16.1475 60.8296 15.3943C61.2123 14.8751 61.422 14.2487 61.429 13.6037C61.6596 11.3673 62.651 11.4058 62.5357 9.65355C62.4665 8.73134 61.9824 8.73134 61.283 8.61607C61.283 8.49311 61.3445 7.76302 62.0515 7.71691C62.7586 7.6708 64.3571 7.6708 64.3186 8.32403C63.9651 14.1493 62.3666 10.6834 63.7115 16.4549C63.7576 16.647 63.773 16.8775 64.065 16.9236C64.9411 17.062 64.3724 16.086 65.433 14.5566C67.2774 11.913 66.1477 11.0446 67.4234 8.98495C68.0075 8.032 68.0152 7.40951 70.8356 8.50848C71.2967 8.69292 70.5128 10.253 70.2054 10.6449C68.7683 12.5278 67.1775 17.477 69.5983 16.793C70.6512 16.4933 70.8894 15.8938 71.1353 14.8103C71.6877 13.3201 72.514 11.9465 73.5715 10.7602C74.8549 9.59976 74.9932 9.87642 75.4851 10.0609C75.8434 10.2158 76.1753 10.4258 76.4688 10.6834C76.83 11.1521 76.7454 10.8524 74.9318 13.2886C74.4706 13.8957 74.9318 13.9418 73.8558 15.3405C72.68 16.8775 73.7021 18.5221 74.8011 17.9381C75.2699 17.6922 75.5696 17.7306 75.9462 17.1696C76.8146 15.8554 77.4832 13.8804 80.3728 12.205C80.5265 12.1205 80.8416 11.9745 80.9569 12.1051C81.8176 13.035 82.8474 13.9265 82.4939 15.1791C82.3709 15.5864 78.6513 17.1235 78.6513 19.3829C78.6513 20.8584 79.7734 21.4502 80.4958 20.7739C81.2992 19.9201 82.2493 19.2173 83.3008 18.6989C84.3383 18.1533 85.3066 17.5385 85.76 18.6758Z" fill="#585858"/>
<path d="M65.5022 52.0142C67.7309 51.8298 69.0834 50.7923 69.46 50.8615C69.38 51.0843 69.2631 51.2922 69.1142 51.4763C67.0161 53.7818 66.5704 54.5503 65.3408 54.4888C64.0449 54.3475 62.7765 54.0187 61.5751 53.5128C61.5575 53.5027 61.543 53.4882 61.5328 53.4706C61.5227 53.4531 61.5173 53.4332 61.5173 53.4129C61.5173 53.3926 61.5227 53.3727 61.5328 53.3552C61.543 53.3377 61.5575 53.3231 61.5751 53.313C62.7202 52.4062 65.0949 52.0526 65.5022 52.0142Z" fill="white"/>
<path d="M19.1304 51.3916C19.1633 51.644 19.1166 51.9004 18.9967 52.125C18.8769 52.3496 18.6898 52.5311 18.4618 52.6442C17.4397 52.9747 17.4474 52.6442 16.1563 50.8152C15.4323 49.9093 15.0103 48.7993 14.9497 47.6412C14.9648 47.2098 15.1332 46.7978 15.4248 46.4795C15.7164 46.1611 16.112 45.9572 16.5405 45.9044C16.7264 45.8537 16.9231 45.8587 17.1062 45.9188C17.2893 45.979 17.4507 46.0915 17.5703 46.2425C18.3619 47.257 18.9536 49.8084 19.1304 51.3916Z" fill="#C49E91"/>
<path d="M17.0861 54.9957C16.8973 55.1881 16.6693 55.3375 16.4175 55.4337C16.2664 55.4763 16.1062 55.4742 15.9563 55.4279C15.8063 55.3815 15.6729 55.2928 15.5722 55.1724C12.5442 52.6517 11.9141 52.7363 11.4529 51.668C10.8612 50.3001 10.3002 49.547 11.2224 48.886C12.99 47.6411 12.6902 47.3106 15.9103 52.1138C17.3474 54.2425 17.6702 54.5576 17.0861 54.9957Z" fill="#C49E91"/>
<path d="M15.3879 56.2335C15.5493 56.5102 15.3879 56.7945 15.2265 57.0866C15.1468 57.2683 14.9999 57.4122 14.8166 57.4882C14.6332 57.5641 14.4276 57.5661 14.2428 57.4939C11.0227 56.7254 10.039 54.3046 9.83155 55.7494C9.83155 55.8646 9.83155 55.9415 9.7009 55.8262C9.3935 55.6033 7.54908 54.6888 8.21768 53.4669C8.57119 52.829 8.40212 52.3833 9.60868 52.1989C10.0808 52.2043 10.5376 52.3665 10.9075 52.66C12.7519 54.4198 14.8883 55.3344 15.3879 56.2335Z" fill="#C49E91"/>
<path d="M11.7986 59.3306C11.8908 59.4459 12.0906 59.784 11.691 60.4142C11.5603 60.6294 11.2683 60.6448 10.9225 60.6294C8.5247 60.3681 6.96463 57.7859 6.23455 58.2009C5.97325 58.3469 5.58132 57.6322 5.83492 57.0789C6.24992 56.1874 6.8801 55.3113 7.77157 55.734C9.30875 56.695 10.6706 57.9114 11.7986 59.3306Z" fill="#C49E91"/>
<path d="M144.935 63.1727C144.935 63.9413 144.559 63.2496 143.483 64.9019C140.447 69.5667 140.808 67.0384 140.908 71.5802C140.954 73.6322 140.908 73.6629 140.601 73.586C140.463 73.586 140.217 73.8934 139.886 73.6322C139.63 73.4802 139.443 73.2351 139.364 72.9482C139.233 72.3302 139.149 71.7034 139.11 71.073C139.033 68.7675 138.057 67.4457 139.11 66.3697C140.409 65.071 142.714 61.4743 143.498 61.9354C144.413 62.458 144.912 62.4811 144.935 63.1727Z" fill="#C49E91"/>
<path d="M141.815 60.7367C142.207 61.705 142.153 61.2132 140.486 63.2651C137.88 66.4621 138.28 65.9088 138.18 66.0625C136.866 68.4679 138.949 70.1125 137.919 72.0491C137.9 72.0678 137.877 72.0817 137.851 72.0897C137.826 72.0977 137.799 72.0996 137.773 72.0953C137.581 71.9646 137.389 72.0415 137.189 72.0953C136.489 72.1798 136.589 71.5573 136.505 70.5044C136.605 68.2911 135.26 65.3016 136.328 64.0643C137.78 62.389 139.141 59.73 140.424 59.7223C140.741 59.6871 141.059 59.7717 141.317 59.9595C141.574 60.1472 141.752 60.4245 141.815 60.7367Z" fill="#C49E91"/>
<path d="M137.819 59.9302C137.919 60.4989 137.719 60.6372 136.282 62.6661C135.99 63.0734 136.159 60.96 135.329 61.1905C135.006 61.2828 135.106 61.8284 135.175 62.0128C135.682 63.327 134.852 65.0331 135.129 66.8545C135.313 68.038 133.054 69.8516 133.085 65.7555C133.011 64.7403 132.81 63.7384 132.485 62.7737C132.216 61.7977 132.554 61.4365 134.022 58.2625C134.284 57.7092 134.422 57.494 134.791 57.494C138.026 57.5094 137.219 56.6717 137.819 59.9302Z" fill="#C49E91"/>
<path d="M141.338 74.5931C141.239 74.9697 139.801 77.0293 140.57 79.4655C140.854 80.3492 141.838 80.4415 141.385 79.3041C140.816 77.89 141.277 76.4375 142.061 75.0773C142.368 74.5547 143.321 75.7536 144.405 72.9716C144.743 72.1031 144.704 71.7112 144.712 70.1665C144.712 69.8514 144.835 70.0051 145.481 70.0589C145.78 70.0589 145.957 69.4748 145.588 69.4057C145.219 69.3365 145.588 69.1674 145.873 68.7063C146.242 67.9993 145.788 67.6535 145.419 67.9378C145.304 68.0224 144.651 68.8139 144.19 69.3211C143.313 70.251 144.535 71.1579 143.106 73.5326C142.576 74.4164 141.615 74.009 141.623 73.4634C141.623 72.0878 141.569 72.2645 141.715 72.2645C141.262 67.1386 141.715 69.0445 143.29 66.6237C144.582 64.6102 144.827 64.3719 145.596 64.5103C148.824 65.102 147.133 67.7918 147.379 70.7198C147.825 75.6306 145.358 77.1061 145.719 79.2195C145.719 79.3579 145.903 79.573 145.857 79.6268C145.637 79.93 145.364 80.1905 145.05 80.3954C140.816 82.6394 139.079 81.2638 137.803 81.0563C137.358 80.9871 137.119 81.1792 136.95 80.8027C135.874 78.3127 134.568 78.2666 134.191 77.1907C133.844 76.1911 133.586 75.1623 133.423 74.1166C133.031 72.4259 132.293 72.9024 131.794 71.1118C130.218 65.4786 130.456 68.0377 129.488 63.5189C129.286 62.5646 128.99 61.6327 128.604 60.7369C128.258 59.6994 129.373 59.5611 130.449 60.5601C130.88 61.0171 131.217 61.5552 131.44 62.1433C131.348 62.9809 132.147 64.6717 132.109 65.9858C132.109 66.5852 132.47 68.7524 133 69.0598C135.344 70.2664 135.528 66.5468 135.644 71.1886C135.713 73.9322 137.511 72.7256 137.949 73.3328C139.033 74.7929 138.964 77.2675 139.525 77.3828C139.663 77.3828 139.871 77.4596 139.94 77.3828C140.004 77.314 140.051 77.2302 140.075 77.139C140.099 77.0478 140.1 76.952 140.078 76.8602C139.74 75.6383 139.409 74.5547 139.648 74.6315C140.216 74.8006 140.531 74.5239 141.338 74.5931Z" fill="#C49E91"/>
<path d="M149.27 97.7489C150.115 102.06 150.53 103.828 148.601 107.509C147.172 110.237 148.155 113.657 142.138 113.119C137.619 112.696 127.936 105.119 122.456 101.814C122.103 101.599 122.303 101.384 122.456 100.539C122.879 97.8949 121.734 96.9035 122.064 94.1446C122.295 92.2618 122.702 92.3309 123.601 88.9111C124.431 85.6679 124.255 85.7602 125.192 83.6314C125.338 83.3009 125.377 83.3086 125.676 83.5161C127.029 84.4307 136.151 91.2934 136.159 91.378C136.282 92.8458 134.43 104.788 136.397 103.759C136.797 103.551 136.466 103.121 136.397 102.56C136.136 98.1024 136.528 97.0265 136.881 94.0216C137.235 91.0168 136.981 85.1992 137.396 85.2914C140.17 85.9139 141.239 86.0599 144.159 85.2914C146.18 84.7381 146.134 84.7765 146.196 84.9609C147.542 89.1398 148.569 93.4147 149.27 97.7489Z" fill="#C49E91"/>
<path d="M70.8818 83.3162C70.8357 83.2317 70.659 83.2163 70.5283 83.2009C70.1133 83.1471 70.3439 82.8244 70.5898 82.7629C71.097 82.6476 71.6196 83.3931 71.7195 84.0156C71.8425 84.7841 71.6503 84.8456 72.1268 84.8302C72.6033 84.8148 72.4496 83.6544 72.2575 83.1471C71.6657 81.6101 69.998 81.687 69.6522 82.4478C69.022 83.8311 70.3131 84.5612 70.8203 83.8388C70.8858 83.7701 70.9272 83.682 70.9383 83.5878C70.9494 83.4935 70.9296 83.3982 70.8818 83.3162ZM86.252 81.956C86.0445 82.7245 88.1272 82.8859 87.5662 81.272C87.0051 79.6581 84.6689 81.4949 84.738 83.1395C84.6458 83.908 85.0608 83.908 85.1915 83.908C85.3221 83.908 85.4066 83.7466 85.3913 83.5314C85.3913 82.4555 86.4364 81.3719 86.2904 81.9175L86.252 81.956ZM64.4263 46.6199C64.4955 47.1425 65.8173 47.2117 66.3399 46.6814C67.1622 45.8514 67.339 43.9916 65.802 43.8456C65.5484 43.8456 65.3101 43.8917 65.2486 44.1376C65.2269 44.1872 65.216 44.2409 65.2169 44.2951C65.2177 44.3492 65.2302 44.4026 65.2536 44.4514C65.2769 44.5003 65.3105 44.5436 65.3521 44.5783C65.3937 44.613 65.4423 44.6383 65.4946 44.6525C65.656 44.714 65.9787 44.6525 66.0633 45.0137C66.0896 45.151 66.0875 45.2922 66.0571 45.4285C66.0267 45.5649 65.9686 45.6937 65.8865 45.8067C65.8044 45.9198 65.7 46.0149 65.5797 46.086C65.4594 46.1571 65.3258 46.2028 65.1872 46.2203C64.7337 46.2433 64.3802 46.228 64.4263 46.6199ZM64.0498 47.3884C64.3188 46.3356 63.2813 46.105 63.0584 47.2117C62.4129 50.3549 57.5789 49.1714 58.2399 46.5661C58.5396 45.398 60.6069 42.8773 57.8863 40.3181C57.8429 40.2847 57.792 40.262 57.7381 40.2521C57.6841 40.2421 57.6285 40.2451 57.576 40.2609C57.5234 40.2767 57.4754 40.3047 57.4358 40.3427C57.3962 40.3808 57.3663 40.4276 57.3484 40.4795C57.2562 40.7331 57.3484 40.8791 57.5021 41.079C59.6078 43.7918 57.2331 44.7447 57.2408 47.1732C57.2562 50.4932 62.9354 51.7535 64.0498 47.4115V47.3884ZM90.7401 60.7605C94.2906 60.845 93.9525 59.8383 93.8141 62.6356C93.4606 72.5494 93.0456 71.8577 92.938 72.9798C92.8304 74.1018 93.0226 77.4756 91.6239 79.6889C88.2655 85.0069 88.8342 83.8158 86.3442 85.2221C83.5392 86.8053 82.8168 85.5218 79.6966 87.2356C77.9367 88.1963 75.9156 87.9042 73.9328 87.3048C69.6522 86.0214 70.4361 86.2058 67.2929 83.224C64.3754 79.9886 62.2404 76.1261 61.0526 71.9346C60.8912 71.3275 60.8144 70.6896 60.6607 70.0825C60.2918 68.63 59.9767 68.7069 60.2841 68.5455C63.5118 66.7779 67.6541 65.2025 67.777 63.6885C67.8923 62.3129 70.5206 64.8105 74.9395 61.1832C76.6456 59.7845 79.1356 56.0495 78.7821 54.866C78.613 54.2743 78.1289 54.5509 78.0136 54.7892C74.5322 64.1803 65.0873 64.5953 58.3936 56.6413C56.0112 53.8132 54.1744 50.0167 52.8295 44.983C52.7681 44.7524 52.7834 44.7832 52.9679 44.8523C53.7289 45.0795 54.5441 45.0456 55.2836 44.7559C56.0231 44.4663 56.6444 43.9375 57.0487 43.2538C57.2177 42.8465 57.0487 42.4853 56.5261 42.6851C56.0035 42.885 56.0496 43.5997 54.3128 44.03C53.844 44.153 52.891 43.9762 52.7758 44.1223C52.5375 44.5142 52.599 43.9378 52.1456 42.6467C51.2541 40.0953 50.8852 39.834 51.1619 39.0808C51.7459 37.4747 53.0678 37.221 53.9593 37.6591C54.0853 37.7274 54.2324 37.7455 54.3712 37.71C54.51 37.6744 54.6303 37.5878 54.708 37.4674C54.7857 37.3469 54.8151 37.2016 54.7902 37.0605C54.7654 36.9194 54.6882 36.7928 54.5741 36.7061C54.2392 36.4796 53.8586 36.3297 53.4592 36.267C53.0599 36.2043 52.6516 36.2304 52.2635 36.3434C51.8753 36.4563 51.5169 36.6535 51.2136 36.9207C50.9103 37.188 50.6696 37.5188 50.5086 37.8896C50.4663 37.9703 50.4174 38.0474 50.3626 38.1202C49.9784 37.5669 48.1263 32.5408 48.4337 31.8492C48.5566 31.5725 49.9169 31.3573 50.7392 30.1892C51.4309 29.2362 51.2234 28.9903 51.915 28.9596C52.2391 28.9906 52.5648 28.918 52.8449 28.7521C53.3852 28.2966 53.7894 27.7009 54.0131 27.0306C54.3512 26.362 54.3128 26.8923 55.8344 27.0306C56.7874 27.0921 57.2331 26.4619 57.8633 25.4936C58.04 25.2092 58.1861 25.3553 58.6856 25.4936C59.2329 25.5492 59.7845 25.4452 60.2741 25.1943C60.7636 24.9434 61.1701 24.5563 61.4445 24.0795C61.5291 23.8797 61.5829 24.0104 62.6818 24.41C64.7875 25.1785 65.6713 23.4033 66.0633 23.8874C67.0931 25.1939 68.2228 25.1555 69.3986 24.118C69.6445 23.9028 69.6215 24.2947 70.3439 25.0402C71.0663 25.7856 71.5965 25.5167 72.7416 25.4629C72.6955 25.6012 71.4966 27.5071 72.5495 28.5369C73.4717 29.413 74.2709 29.6435 73.7945 30.6196C73.1259 31.9875 72.5264 32.9251 73.4794 34.1547C74.4323 35.3843 75.4468 35.1922 75.2854 36.1067C75.0955 36.7723 75.0955 37.4777 75.2854 38.1433C75.9694 39.9108 75.5851 41.2173 76.9223 41.3018C77.3296 41.3018 77.2835 41.3018 79.2278 40.8254C81.1722 40.3489 79.2278 40.2413 80.2038 36.2143C80.5881 34.6773 82.4402 34.3391 82.7937 34.3622C83.5905 34.4954 84.3278 34.8684 84.9072 35.4313C85.4866 35.9942 85.8807 36.7204 86.0368 37.5131C86.1104 37.9367 86.1336 38.3675 86.106 38.7965C86.106 40.2797 86.106 40.0492 85.7294 39.3498C85.5895 39.0752 85.3949 38.8321 85.1576 38.6354C84.9203 38.4388 84.6452 38.2928 84.3493 38.2064C84.0535 38.12 83.7431 38.0951 83.4372 38.1331C83.1314 38.1712 82.8365 38.2714 82.5708 38.4276C82.0021 38.735 82.1943 37.4209 82.5708 36.8906C83.1011 36.1759 83.7159 36.8906 84.008 36.9982C84.5075 37.2287 84.6381 36.1451 83.7006 35.8147C83.5243 35.719 83.3293 35.663 83.1292 35.6506C82.929 35.6382 82.7286 35.6697 82.5419 35.7429C82.3552 35.8161 82.1867 35.9292 82.0484 36.0744C81.91 36.2196 81.805 36.3932 81.7409 36.5832C81.4855 37.0242 81.3588 37.528 81.3751 38.0373C81.3914 38.5467 81.5501 39.0413 81.8331 39.4651C82.0867 39.857 82.6016 40.2336 82.4556 41.1712C82.348 41.7783 82.0406 42.47 82.9551 43.0233C83.4777 43.3461 83.4239 43.5843 83.593 44.7371C83.7159 45.5747 81.2106 44.4835 81.7101 47.7266C82.3053 51.3018 83.2157 54.8174 84.4306 58.2321C85.6679 61.798 87.2972 60.7067 90.7401 60.7835V60.7605ZM86.2289 77.6677C86.2134 77.5358 86.1903 77.405 86.1598 77.2757C85.9753 76.7224 84.9532 76.7762 85.2991 77.5293C85.4528 77.8598 85.4528 77.8598 85.153 78.0904C84.4767 78.6437 86.0983 79.4276 86.252 77.683L86.2289 77.6677ZM84.6074 80.7878C84.6484 80.6175 84.647 80.4397 84.6031 80.2701C84.5593 80.1005 84.4744 79.9443 84.356 79.8152C84.2375 79.6862 84.0892 79.5882 83.9239 79.53C83.7587 79.4718 83.5817 79.4551 83.4085 79.4814C80.396 80.0577 81.9637 84.6073 82.64 83.0626C82.8552 82.5554 81.6947 81.3027 83.2932 80.4574C83.2969 80.5188 83.2969 80.5804 83.2932 80.6418C83.347 81.4795 84.4691 81.3796 84.6074 80.8032V80.7878ZM82.8552 74.9933C83.0396 75.3929 83.9004 75.1009 83.5776 74.2248C83.2548 73.3487 81.1722 74.317 81.2721 75.5543C81.2029 76.6456 81.787 78.2287 82.3249 77.6292C82.7092 77.2066 82.1482 77.2296 82.0175 75.8386C81.9637 75.2161 82.7015 74.6859 82.8552 75.0086V74.9933ZM79.2739 80.4727C79.8426 80.6341 79.8811 79.5813 79.7504 78.9818C79.5352 77.9136 77.8215 77.5524 77.9444 78.5668C78.0136 79.1509 78.7129 78.4746 79.005 79.2354C79.2355 79.8195 78.7898 80.3575 79.2739 80.4881V80.4727ZM78.9358 82.7091C79.3662 82.8551 79.7043 81.8407 78.7283 81.8023C76.4228 81.7254 77.3373 86.152 78.2441 85.2682C78.5669 84.9531 78.175 85.0377 78.0443 83.5314C78.037 83.4161 78.0558 83.3006 78.0993 83.1935C78.1428 83.0865 78.2099 82.9906 78.2956 82.9131C78.3812 82.8355 78.4833 82.7783 78.5941 82.7456C78.705 82.713 78.8218 82.7057 78.9358 82.7245V82.7091ZM76.7532 52.084C76.7532 51.3847 75.9847 51.3616 75.9309 52.0148C75.8771 52.6681 76.7302 52.7065 76.7532 52.084ZM76.6456 76.3151C76.7071 76.3151 76.6456 75.7695 76.5765 75.6772C76.3985 75.3971 76.1347 75.1821 75.8244 75.0643C75.5141 74.9466 75.174 74.9324 74.855 75.024C74.794 75.0569 74.7431 75.1057 74.7075 75.1653C74.672 75.2248 74.6533 75.2928 74.6533 75.3622C74.6533 75.4315 74.672 75.4995 74.7075 75.559C74.7431 75.6186 74.794 75.6674 74.855 75.7003C75.3392 75.8309 75.9079 75.7003 75.9847 76.4688C76.0462 77.0221 76.0846 77.0529 76.2383 77.0068C76.6072 76.8838 76.6456 76.9299 76.6456 76.3151ZM75.8771 84.9685C75.808 86.1674 76.93 85.6986 76.5227 84.0463C76.4323 83.8295 76.2827 83.6425 76.0911 83.5066C75.8995 83.3707 75.6736 83.2914 75.4391 83.2778C75.1853 83.2851 74.9382 83.3603 74.7233 83.4954C74.5085 83.6306 74.3337 83.8208 74.2171 84.0463C73.9559 84.6457 74.1326 85.3374 74.7858 85.299C74.8514 85.3 74.9165 85.2878 74.9771 85.263C75.0378 85.2382 75.0928 85.2013 75.1388 85.1546C75.1848 85.1079 75.2208 85.0523 75.2447 84.9913C75.2685 84.9302 75.2798 84.865 75.2777 84.7994C75.2777 84.4306 75.0548 84.4075 74.9703 84.3076C74.8858 84.2077 75.0625 84.0232 75.4007 83.9695C76.0155 83.8542 75.8464 84.8532 75.8464 84.9685H75.8771ZM75.5236 55.7652C75.5236 56.4184 76.3536 56.4261 76.2921 55.7652C76.3032 55.706 76.301 55.6452 76.2857 55.587C76.2705 55.5288 76.2425 55.4747 76.2038 55.4286C76.1652 55.3825 76.1168 55.3456 76.0622 55.3204C76.0075 55.2952 75.948 55.2825 75.8878 55.2831C75.8277 55.2836 75.7684 55.2975 75.7142 55.3238C75.6601 55.35 75.6124 55.3879 75.5747 55.4347C75.5369 55.4815 75.51 55.5361 75.4959 55.5946C75.4817 55.6531 75.4807 55.7139 75.4929 55.7729L75.5236 55.7652ZM75.8387 81.71C76.0143 81.329 76.068 80.903 75.9923 80.4904C75.9166 80.0777 75.7154 79.6985 75.416 79.4045C75.2279 79.1855 74.9819 79.024 74.7063 78.9383C74.4306 78.8526 74.1364 78.8463 73.8573 78.9201C73.5782 78.9939 73.3256 79.1448 73.1282 79.3555C72.9309 79.5662 72.7969 79.8282 72.7416 80.1115C72.7113 80.274 72.7284 80.4417 72.7909 80.5947C72.8534 80.7477 72.9585 80.8794 73.0939 80.9742C73.2292 81.0691 73.389 81.1229 73.5541 81.1294C73.7192 81.1358 73.8827 81.0946 74.025 81.0107C74.4246 80.8109 74.4784 80.0808 73.7637 80.2422C73.3487 80.3498 73.3564 79.9578 73.6715 79.6658C73.7932 79.5639 73.9469 79.508 74.1057 79.508C74.2645 79.508 74.4182 79.5639 74.5399 79.6658C75.3699 80.2038 75.3084 80.7801 75.3084 81.5102C75.3007 81.833 75.5697 81.8945 75.808 81.7177L75.8387 81.71ZM74.0942 53.3444C74.1027 53.2232 74.0631 53.1037 73.9839 53.0116C73.9048 52.9195 73.7925 52.8623 73.6715 52.8525C73.6119 52.8483 73.5521 52.856 73.4955 52.875C73.4389 52.894 73.3866 52.924 73.3416 52.9633C73.2966 53.0025 73.2598 53.0503 73.2334 53.1038C73.2069 53.1574 73.1912 53.2156 73.1873 53.2752C73.1782 53.3955 73.2171 53.5144 73.2957 53.6059C73.3742 53.6975 73.4859 53.754 73.6062 53.7632C73.7264 53.7724 73.8454 53.7334 73.9369 53.6549C74.0284 53.5763 74.085 53.4646 74.0942 53.3444ZM73.8713 58.5241C73.8683 58.4767 73.856 58.4303 73.835 58.3876C73.8141 58.345 73.7849 58.3069 73.7492 58.2755C73.7135 58.2441 73.672 58.22 73.627 58.2046C73.5821 58.1893 73.5345 58.1829 73.4871 58.186C73.4396 58.189 73.3933 58.2013 73.3506 58.2223C73.3079 58.2432 73.2698 58.2724 73.2384 58.3081C73.207 58.3437 73.1829 58.3853 73.1676 58.4302C73.1522 58.4752 73.1459 58.5228 73.1489 58.5702C73.1873 59.0467 73.8406 59.162 73.8713 58.5318V58.5241ZM71.8348 50.1627C71.9193 49.986 71.8348 49.8553 71.6119 49.5787C71.3766 49.3156 71.089 49.1045 70.7674 48.9589C70.4458 48.8133 70.0974 48.7365 69.7444 48.7333C69.4754 48.7333 69.3525 49.0023 69.5292 49.1867C69.706 49.3712 70.2209 49.4864 69.9289 49.6863C68.6617 50.5244 67.2071 51.0366 65.6944 51.1772C58.5857 52.1609 59.677 55.6499 60.407 54.5509C60.6453 54.1974 60.6607 54.0053 60.9681 54.1129C64.6185 55.4347 66.0248 55.9342 67.8385 54.1129C68.9264 52.9668 69.8474 51.6733 70.5744 50.2703C70.7973 49.7708 70.7973 49.8015 71.3429 50.1551C71.5735 50.3779 71.7502 50.3472 71.8348 50.1627ZM71.1201 56.1187C71.7579 56.1648 71.7272 55.1734 71.2968 55.1273C70.6513 55.0581 70.4668 56.0649 71.1201 56.1187ZM70.2901 60.0842C70.2771 60.1952 70.3086 60.3069 70.3777 60.3948C70.4468 60.4826 70.548 60.5395 70.659 60.553C70.7135 60.5594 70.7688 60.5549 70.8216 60.5398C70.8744 60.5246 70.9237 60.4992 70.9666 60.4649C71.0095 60.4306 71.0451 60.3881 71.0715 60.3399C71.0978 60.2917 71.1143 60.2387 71.1201 60.1841C71.2046 59.4386 70.2901 59.3387 70.2901 60.0842ZM70.3669 80.1807C70.7281 80.1807 70.6436 79.3584 70.3669 78.9818C69.706 77.9367 68.4533 77.9981 68.584 78.8281C68.6762 79.4199 69.2372 78.8281 69.5754 79.2739C69.9135 79.7196 69.9827 80.1884 70.3669 80.1807ZM65.7559 41.6092C67.5388 41.4555 70.2593 38.858 69.4524 38.2816C69.3329 38.2104 69.1901 38.189 69.055 38.2221C68.9199 38.2552 68.8031 38.34 68.73 38.4583C68.3393 39.058 67.8214 39.5644 67.2131 39.9415C66.6049 40.3187 65.9211 40.5575 65.2102 40.6409C63.4965 40.6409 63.8961 40.2797 63.2582 40.3335C62.6204 40.3873 62.7741 41.8552 65.7482 41.6092H65.7559ZM68.4457 32.0951C64.7568 30.1738 63.0123 33.1095 61.9056 33.8319C60.4993 34.7464 59.6001 33.3093 59.2235 34.124C59.1811 34.2032 59.1573 34.291 59.1539 34.3808C59.1505 34.4707 59.1676 34.5601 59.2039 34.6423C59.2401 34.7245 59.2947 34.7974 59.3634 34.8554C59.432 34.9134 59.513 34.955 59.6001 34.977C60.1696 35.2376 60.805 35.318 61.4215 35.2076C62.3019 34.9098 63.0943 34.3974 63.727 33.7166C64.2021 33.2477 64.7776 32.8929 65.41 32.6792C66.6243 32.2872 67.6618 33.0711 68.2151 33.0711C68.3352 33.0786 68.454 33.0432 68.5504 32.9711C68.6468 32.8991 68.7144 32.7951 68.7412 32.6778C68.768 32.5605 68.7522 32.4375 68.6966 32.3307C68.6411 32.224 68.5494 32.1405 68.438 32.0951H68.4457ZM67.5388 57.8863C67.9999 57.8863 68.046 56.9564 67.5388 56.9717C67.0316 56.9871 66.9317 57.9093 67.5388 57.8863ZM66.4322 59.9305C66.4322 59.2542 65.6175 59.2773 65.6022 59.9843C65.5868 60.6913 66.4245 60.5837 66.4322 59.9305ZM64.5186 57.8786C64.649 57.8786 64.7741 57.8267 64.8664 57.7345C64.9586 57.6423 65.0104 57.5172 65.0104 57.3867C65.0104 57.2563 64.9586 57.1312 64.8664 57.0389C64.7741 56.9467 64.649 56.8949 64.5186 56.8949C63.8346 56.8718 63.9652 57.8709 64.5186 57.8786ZM62.0517 57.8786C62.0596 57.8209 62.0552 57.7622 62.0385 57.7064C62.0219 57.6507 61.9935 57.5991 61.9553 57.5552C61.9171 57.5113 61.8699 57.4761 61.8169 57.452C61.7639 57.4279 61.7064 57.4154 61.6482 57.4154C61.59 57.4154 61.5325 57.4279 61.4795 57.452C61.4265 57.4761 61.3793 57.5113 61.3411 57.5552C61.3028 57.5991 61.2745 57.6507 61.2578 57.7064C61.2412 57.7622 61.2367 57.8209 61.2447 57.8786C61.2447 58.4396 62.0363 58.5241 62.0517 57.8863V57.8786Z" fill="#C49E91"/>
<path d="M39.2421 107.339C39.8954 108.653 39.8646 108.669 39.6955 108.822C37.7439 110.762 35.593 112.491 33.2785 113.979C31.1036 115.516 25.2399 118.905 22.1351 119.535C20.9747 119.766 20.2984 119.482 18.6845 118.767C18.1114 118.437 17.6198 117.983 17.246 117.437C16.8722 116.892 16.6258 116.269 16.525 115.616C14.0735 105.072 13.205 90.5549 12.7747 81.4557C12.6056 77.7361 12.4058 75.0925 12.352 73.7706C12.3876 73.5315 12.3528 73.2871 12.2518 73.0674C12.1508 72.8476 11.988 72.6621 11.7833 72.5333C11.2698 72.1452 10.8757 71.6206 10.6459 71.0194C6.61123 61.9971 9.10888 67.0001 11.6219 69.2902C11.8487 69.472 12.1146 69.5985 12.3987 69.6599C12.6828 69.7212 12.9772 69.7157 13.2588 69.6437C14.0652 69.4111 14.7965 68.9713 15.3799 68.368C15.5182 68.2527 15.6028 68.2681 15.9409 68.783C17.0937 70.5813 16.5327 69.9819 16.7094 71.8571C16.7632 72.395 17.5702 72.3489 17.5779 71.8571C17.5779 71.1961 17.8238 69.9204 17.378 69.2441C17.1235 68.7125 16.8005 68.2165 16.4174 67.7686C16.233 67.5995 16.3098 67.5073 16.4635 67.392C17.5779 66.5774 17.5164 66.416 17.5932 66.8233C17.9621 69.0059 19.0073 68.9444 18.9151 68.099C18.5499 67.5013 18.4236 66.7877 18.5615 66.1009C19.7143 61.7742 25.4781 60.9519 25.3091 57.8856C25.1938 55.9566 23.6183 52.3292 25.1938 50.7307C26.3389 49.5703 25.9623 51.8067 27.3225 55.0728C27.8682 56.4254 27.8144 57.2477 28.0911 59.9375C28.3985 62.781 25.3552 65.5937 24.5405 66.6927C23.7259 67.7916 24.2716 67.4074 22.3503 70.6198C21.0976 72.7101 21.2206 74.5468 21.8123 76.7678C22.5808 79.6728 22.1889 80.7257 22.7883 83.6844C22.8268 83.8689 25.2783 93.8902 26.4541 96.6645C27.2226 98.5013 29.1823 105.602 29.1977 105.618C29.239 105.697 29.3054 105.761 29.3866 105.799C29.4678 105.837 29.5593 105.847 29.6468 105.828C29.7344 105.809 29.8132 105.761 29.8709 105.693C29.9287 105.624 29.9622 105.538 29.9662 105.449C29.9662 104.065 27.3225 96.6261 27.4916 96.58C27.8605 96.4801 31.2189 93.8595 31.3342 93.7826C34.0009 91.7153 33.217 91.6462 34.1777 93.5521C35.6609 96.5031 36.2142 96.9489 36.7137 99.3697C37.2133 101.79 37.2209 101.437 38.2507 103.712C38.8271 104.964 38.6043 106.01 39.2421 107.339Z" fill="#C49E91"/>
<path d="M143.36 66.6008C141.823 69.0216 141.331 67.1157 141.784 72.2416C141.638 72.2416 141.707 72.0648 141.692 73.4405C141.692 73.9861 142.645 74.3934 143.175 73.5096C144.605 71.135 143.383 70.2281 144.259 69.2982C144.751 68.791 145.373 67.9994 145.489 67.9149C145.857 67.6536 146.311 67.9994 145.942 68.6834C145.696 69.1445 145.266 69.3136 145.658 69.3828C146.05 69.4519 145.85 70.0514 145.55 70.036C144.866 69.9822 144.782 69.8285 144.782 70.1436C144.782 71.6806 144.781 72.0802 144.474 72.9486C143.391 75.7306 142.438 74.5318 142.13 75.0544C141.362 76.4146 140.885 77.8671 141.454 79.2812C141.907 80.4185 140.924 80.3263 140.639 79.4425C139.871 77.0064 141.277 74.9468 141.408 74.5702C140.601 74.501 140.286 74.7777 139.779 74.5702C139.54 74.478 139.871 75.5769 140.209 76.7989C140.231 76.8906 140.23 76.9864 140.206 77.0776C140.182 77.1689 140.135 77.2527 140.071 77.3214C140.001 77.3829 139.794 77.3214 139.656 77.3214C139.095 77.2062 139.164 74.7316 138.08 73.2714C137.619 72.6566 135.821 73.8708 135.775 71.1273C135.659 66.5162 135.475 70.2051 133.131 68.9985C132.601 68.7218 132.216 66.5546 132.239 65.9245C132.278 64.5796 131.471 62.8504 131.571 62.0819C131.348 61.4939 131.011 60.9558 130.579 60.4988C129.496 59.4997 128.389 59.6381 128.735 60.6755C129.121 61.5714 129.417 62.5033 129.619 63.4576C130.587 67.9533 130.349 65.4172 131.924 71.0504C132.424 72.841 133.162 72.3646 133.554 74.0553C133.715 75.1013 133.973 76.1302 134.322 77.1293C134.699 78.2052 136.005 78.2514 137.081 80.7413C137.25 81.1179 137.488 80.9258 137.934 80.9949C139.21 81.2024 140.947 82.5781 145.181 80.334C145.495 80.1291 145.768 79.8687 145.988 79.5655C146.034 79.5117 145.873 79.2965 145.85 79.1582C145.489 77.0448 147.955 75.5693 147.51 70.6585C147.248 67.7305 148.955 65.0407 145.727 64.4489C144.92 64.349 144.659 64.5873 143.36 66.6008ZM150.468 99.4545C151.099 102.721 150.891 105.141 149.431 107.839C148.939 108.738 148.186 112.181 147.125 112.903C142.299 116.277 135.921 111.935 127.774 106.402C124.754 104.35 125.292 104.458 124.969 105.318C123.432 109.476 123.056 110.483 118.621 106.594C117.669 105.756 117.484 105.149 115.394 103.704C111.728 101.161 112.212 101.722 112.227 101.891C113.096 108.208 112.558 114.317 111.513 120.627C111.19 122.571 110.883 130.226 110.852 130.387C110.598 131.617 111.428 132.693 112.389 138.894C113.695 147.087 113.88 147.01 113.227 147.14C112.166 147.348 112.181 141.315 110.591 134.499C109.868 131.424 109.73 131.517 109.914 130.003C110.152 128.051 109.96 124.531 110.683 119.39C111.344 114.825 112.22 107.739 111.513 103.151C111.19 101.084 111.513 100.922 110.99 100.507C109.776 99.5852 107.955 97.8791 107.417 96.4496C106.556 94.1441 103.313 91.4466 102.337 82.9623C102.291 82.6088 102.652 82.286 102.836 82.3936C103.689 82.8778 103.182 88.4187 107.171 93.9674C108.623 95.9809 107.855 96.442 110.16 98.5784C111.151 99.5262 112.192 100.419 113.28 101.253C119.121 105.057 120.197 107.147 121.273 107.57C121.327 106.602 120.55 105.772 120.912 103.312C121.088 102.083 121.465 100.138 121.488 99.8234C121.626 98.0942 120.643 96.6033 121.05 93.8213C121.265 92.3381 121.626 92.0691 122.587 88.5955C123.256 86.1824 123.686 82.9777 125.407 81.8249C126.606 81.0564 128.028 82.3091 124.516 79.7038C122.625 78.2975 121.027 77.3983 119.644 75.5308C115.417 69.8746 114.771 72.2416 111.474 67.8073C103.905 57.6476 102.198 61.9436 95.1435 60.2759C94.7362 60.176 94.6517 60.0377 94.6517 60.7217V64.2491C94.1752 74.4472 93.6219 72.2493 93.7294 75.1927C93.837 78.1361 92.1924 80.9719 90.3096 83.5387C87.8042 86.9509 82.832 87.2275 82.0942 87.3812C79.5197 87.8347 79.8655 90.1632 72.1958 87.9038C68.3533 86.7664 68.0459 85.0373 66.8163 84.2073C65.5866 83.3773 61.844 77.9363 60.8065 74.3089C58.9083 67.6997 59.8613 68.2684 56.4798 69.6133C49.7323 72.2877 46.2433 78.4665 43.1001 80.8335C40.9021 82.4858 37.2825 87.2045 33.1786 89.7713C32.9942 89.8866 32.779 89.925 32.9634 90.0633C34.5005 91.2853 34.9462 93.5062 36.0375 95.1355C36.9577 96.7307 37.5679 98.4856 37.8358 100.308C38.1509 101.921 39.2729 102.882 39.5957 105.495C39.8185 107.316 40.3027 106.087 41.7629 112.412C41.9166 113.088 46.2433 108.292 48.372 106.356C50.1934 104.68 50.1319 104.834 50.1319 104.504C49.6478 96.4189 50.9004 102.037 46.7812 91.1469C46.4892 90.3784 46.0665 89.4716 46.7812 89.6099C46.8363 89.6204 46.8884 89.6432 46.9336 89.6764C46.9788 89.7096 47.016 89.7526 47.0425 89.802C47.4268 90.8242 47.9724 91.7694 48.2798 92.8223C48.6494 94.1557 49.1648 95.4444 49.8168 96.6648C49.8477 93.7798 49.5902 90.899 49.0483 88.0652C48.4643 85.3216 48.5872 86.0594 48.5642 85.5522C48.5411 85.045 49.179 84.9681 49.3327 85.4984C51.131 93.2988 50.3855 91.0317 50.9619 102.406C51.2693 108.554 52.5604 112.558 52.7449 114.479C53.3366 120.719 52.8448 133.738 52.4759 138.456C52.2223 141.669 51.8918 141.254 51.7074 144.604C51.7074 145.104 51.7765 145.949 51.7765 146.141C51.7727 146.25 51.7299 146.354 51.656 146.434C51.5821 146.513 51.482 146.564 51.3739 146.576C51.2658 146.588 51.157 146.561 51.0673 146.5C50.9776 146.438 50.9129 146.346 50.8851 146.241C50.7692 144.526 50.8517 142.804 51.131 141.108C51.5537 139.648 51.6766 135.989 51.6997 134.475C51.6997 133.33 51.9917 131.309 52.0071 130.633C52.4298 109.022 51.0618 113.864 50.301 106.041C50.2549 105.549 43.1692 112.765 42.9079 113.111C42.4492 113.587 41.8307 113.877 41.1711 113.926C40.3411 114.195 38.6504 112.473 38.4198 111.697C38.3046 111.343 37.8127 111.935 37.3055 112.296C36.3457 112.911 35.4244 113.583 34.5466 114.31C33.317 115.378 27.6838 118.49 25.5089 119.42C23.334 120.35 21.3436 120.957 19.5837 120.258C16.8785 119.236 16.0332 118.275 15.0341 113.341C13.5478 106.029 12.6484 98.6101 12.3443 91.1546C12.1906 88.1267 11.7449 73.5788 11.1762 73.2637C10.0542 72.6335 9.63918 71.2195 9.16271 70.1128C8.31735 68.1839 7.57958 67.2232 7.48736 64.5719C7.48736 64.1646 7.48736 64.2261 5.87349 62.0665C3.72166 59.1155 5.50461 59.6381 5.10498 58.5007C4.87443 57.8167 4.63619 57.2173 4.99739 56.6486C5.51998 55.8186 5.85044 54.7657 7.19533 54.6504C7.51041 54.6504 7.34134 54.4429 7.26449 54.1202C7.09542 53.344 8.00226 51.0384 10.0542 51.3074C10.4538 51.3535 10.3232 51.3074 9.91585 50.2392C9.85244 49.829 9.90522 49.4093 10.0682 49.0276C10.2312 48.6459 10.4979 48.3175 10.8381 48.0797C11.9293 47.3112 12.329 46.8116 13.4202 47.388C13.6892 47.5264 13.7738 47.6954 14.0889 47.8799C14.0972 47.4576 14.1751 47.0395 14.3194 46.6426C14.9188 45.2208 16.5097 44.437 17.8008 45.2669C18.6307 45.8049 18.5693 46.6272 18.9996 46.2814C24.2562 42.1007 25.3552 39.8413 27.4532 41.8394C27.4532 41.8394 32.6022 47.7492 34.0701 49.4476C34.5542 50.0086 35.2536 51.123 35.0538 51.8223C34.854 52.5217 33.8549 53.3593 31.3803 55.3882C27.9451 58.1318 28.8212 56.5025 29.0748 60.3835C29.2208 62.8197 27.1381 65.325 25.5166 67.1387C24.9885 67.9014 24.5428 68.7181 24.1871 69.5749C23.3494 70.9966 22.0813 72.3723 22.3196 74.4011C22.5271 76.1917 23.0343 76.9756 23.2879 79.3426C23.3734 81.1358 23.6308 82.9167 24.0564 84.6607C25.532 90.463 26.9921 96.2345 27.4071 95.8733C32.1411 91.7541 31.6877 93.4448 31.4725 90.9625C31.388 89.9481 32.0797 89.3486 33.0095 88.9029C34.1085 88.3572 35.7301 86.5974 36.5447 85.9749C37.761 84.9538 38.8638 83.8047 39.8339 82.5473C42.37 79.7499 42.6543 80.48 45.6438 76.9679C50.5546 71.1964 53.1752 69.8131 58.2397 67.7458C59.0697 67.4 59.2311 68.0225 59.5615 67.8765C60.5375 67.4461 61.967 66.5162 62.7893 66.2703C63.8339 65.8495 64.8205 65.2968 65.725 64.6257C67.1237 63.8572 66.97 63.9494 66.6779 63.0887C66.6318 62.9734 64.6875 62.5661 63.1428 61.7899C60.5446 60.3104 58.2811 58.3087 56.4952 55.9108C53.1522 51.0615 52.7141 47.8414 51.4845 43.6915C50.3702 39.9181 48.08 36.4214 47.5728 32.1639C47.519 31.7565 47.5344 31.7181 47.1501 31.6566C45.006 31.3416 44.9599 31.5644 43.4766 32.5097C42.785 32.9477 41.7859 32.2945 41.3863 31.6566C39.7109 28.9361 41.1481 28.6902 41.8858 28.1984C43.2153 27.3607 43.2153 27.5528 44.5141 27.3684C44.5987 27.3684 44.6371 27.2838 44.5526 27.2147C42.785 25.839 39.6725 27.4683 39.7878 25.4778C40.003 21.7659 40.0491 21.812 40.7331 21.8505C41.1404 21.8505 42.5237 21.3125 46.2048 22.8342C46.4738 22.9418 46.274 22.9264 46.6429 22.9571C45.4287 21.0282 44.053 21.7582 42.5391 20.8053C41.2556 20.0368 40.6716 19.8908 41.7705 16.8859C41.9857 16.3018 42.101 16.2327 42.7235 16.248C43.6926 16.3232 44.6428 16.5568 45.5362 16.9397C45.9897 17.1165 47.7265 18.9378 47.4883 18.2308C46.6429 15.7485 45.4901 15.3873 45.9512 12.2979C46.1049 11.2912 46.566 11.6677 47.7111 11.0529C48.4796 10.6379 49.8629 10.4842 50.0167 11.3911C50.1786 12.3677 50.4761 13.317 50.9004 14.2115C51.0757 14.891 51.3018 15.5563 51.5767 16.2019C52.107 13.4737 51.0849 12.0443 51.7996 10.246C51.8995 9.91762 52.1035 9.63063 52.3807 9.42826C52.6579 9.22588 52.9934 9.11909 53.3366 9.12396C53.8746 9.12396 54.4125 9.07016 54.9505 9.08553C57.256 9.13933 55.4577 11.2758 55.7651 12.5669C55.9726 13.4122 55.2502 15.5718 56.2108 16.5785C56.2954 16.2019 56.2108 15.6563 56.28 14.9569C56.3876 13.9502 56.987 13.8042 57.1715 12.7129C57.3252 11.8214 57.1177 11.222 57.4712 10.5073C58.086 9.23924 58.2397 8.40925 59.5462 8.42462C60.3147 8.42462 60.5452 8.62443 60.5529 8.27091C60.5606 6.46492 63.2811 6.50334 64.8104 7.23343C64.9523 7.30197 65.0697 7.41245 65.1467 7.54991C65.2236 7.68737 65.2565 7.84517 65.2408 8.00194C64.8335 13.2124 63.9497 12.2825 64.0573 13.4507C64.0833 13.8017 64.1637 14.1465 64.2955 14.4728C64.9193 13.697 65.3794 12.8029 65.6481 11.8445C66.1169 9.67729 65.479 10.0923 67.2774 7.46398C67.7615 6.74927 68.5685 6.99519 68.9066 6.97982C69.7415 6.97928 70.5632 7.18801 71.2967 7.58694C72.6262 8.09416 71.5503 10.4765 70.9662 11.245C70.0987 12.463 69.5157 13.8602 69.2601 15.3335C69.1909 15.6102 69.1679 15.9022 69.4215 15.7869C70.2976 15.4027 69.921 15.2029 70.4974 13.8426C71.3581 11.7984 73.4639 8.38619 75.4159 8.97026C75.9128 9.05724 76.3783 9.27244 76.7665 9.59459C77.1547 9.91674 77.4521 10.3347 77.6292 10.807C77.8597 11.6754 75.5696 13.6274 75.462 14.2115C75.2929 15.1183 74.5321 15.7485 74.2093 16.517C73.8865 17.2855 74.8625 17.6314 76.1844 14.9262C76.9529 13.3892 77.9443 12.9511 78.6052 12.2672C79.4506 11.4064 80.8492 10.5764 81.7714 11.4987C82.9165 12.6668 82.9012 12.636 83.3085 13.5967C83.7158 14.5573 83.9771 15.0722 83.3699 15.7716C82.7628 16.4709 78.8972 18.1924 79.7118 19.7601C79.9578 20.2443 80.4803 18.9916 82.7859 17.7927C83.1087 17.6237 83.4391 17.4777 83.7465 17.3009C86.298 15.8177 87.8119 19.6064 86.7591 21.8735C86.4363 22.5652 85.6294 22.2194 84.784 22.9264C83.9386 23.6334 83.0241 24.0484 82.9626 25.5086C82.9012 26.9687 83.2393 27.7603 82.9165 28.9361C82.7321 29.6201 83.0702 30.1581 83.1471 32.1254C83.1932 33.186 82.8089 33.3704 83.3392 33.4396C84.3416 33.6797 85.2383 34.2404 85.893 35.0366C86.5477 35.8328 86.9246 36.8209 86.9666 37.8508C86.9281 42.923 86.1981 42.4619 86.1981 43.5301C85.9675 48.0489 86.0828 48.0182 85.1913 48.1412C84.9437 48.1902 84.6886 48.1869 84.4424 48.1313C84.1962 48.0757 83.9644 47.9691 83.7619 47.8184C83.3623 47.4341 83.5313 46.7886 83.5774 46.1354C83.5774 45.8971 83.4775 46.0047 83.0625 46.1354C82.6475 46.266 82.3863 46.4274 82.6245 47.8184C83.3017 51.1501 84.1716 54.4397 85.2297 57.6707C85.6063 58.9233 86.4363 60.0761 87.7504 59.9762C89.6871 59.8148 93.2222 59.907 93.2376 59.907C93.7602 59.907 93.9216 59.1385 95.4817 59.4997C99.5855 60.445 103.735 58.6774 107.832 62.2817C110.79 64.8793 112.589 67.7612 113.449 68.6604C115.033 70.328 116.193 70.2358 118.06 72.1186C119.229 73.312 120.327 74.5719 121.35 75.892C123.271 78.0362 126.568 79.3042 128.382 81.8095C128.627 82.1477 128.574 82.9623 128.75 83.5541C128.927 84.1458 128.658 84.6069 128.981 84.8682C131.087 86.605 135.721 89.7867 136.005 89.925C136.289 90.0633 136.213 90.217 136.412 85.2601C136.412 84.5531 135.452 85.2602 135.283 83.7923C135.183 82.8701 134.868 80.7183 135.521 80.0189C135.652 79.8883 134.337 78.7278 134.322 78.7201C133.338 77.844 133.277 77.0986 132.685 74.478C132.378 73.1331 131.579 73.4021 131.056 71.5269C129.419 65.6939 129.45 67.8073 128.75 64.0954C128.374 62.0204 127.452 60.9676 127.721 60.0531C128.128 58.6467 129.811 58.7696 130.987 59.7072C131.824 60.3835 131.755 60.86 131.978 60.4757C133.677 56.9483 133.661 56.7485 134.361 56.6332C135.379 56.4763 136.416 56.4763 137.435 56.6332C138.91 56.8484 138.303 60.1683 138.756 59.6534C139.871 58.3546 141.984 58.8849 142.399 59.8609C142.814 60.8369 142.699 61.1674 142.976 61.0905C143.613 60.9215 146.149 61.7438 145.796 63.4652C145.704 63.911 148.101 63.4652 148.555 65.9014C148.878 67.6767 148.432 68.2684 148.393 69.4827C148.355 70.9505 148.662 71.2272 148.309 73.5558C147.863 76.4838 147.003 77.1063 146.772 78.2283C146.641 78.8892 147.663 77.9977 148.309 79.212C149.024 80.5415 149.585 85.0757 147.663 85.5599C146.964 85.6214 147.479 84.1458 150.468 99.4545ZM148.593 107.478C150.522 103.797 150.13 102.029 149.262 97.7177C148.562 93.3783 147.535 89.0983 146.188 84.9143C146.126 84.7299 146.188 84.6915 144.151 85.2448C141.208 86.0133 140.163 85.8826 137.388 85.2448C136.973 85.1526 137.242 90.878 136.874 93.975C136.505 97.0721 136.105 98.0558 136.389 102.513C136.428 103.074 136.758 103.505 136.389 103.712C134.422 104.742 136.274 92.7992 136.151 91.3314C136.151 91.2468 127.021 84.4148 125.669 83.4695C125.369 83.262 125.331 83.2543 125.185 83.5848C124.247 85.7136 124.416 85.6214 123.594 88.8645C122.718 92.2843 122.31 92.2152 122.057 94.098C121.726 96.8569 122.871 97.8483 122.449 100.492C122.318 101.337 122.118 101.553 122.449 101.768C127.928 105.072 137.611 112.65 142.13 113.072C148.148 113.687 147.164 110.214 148.593 107.508V107.478ZM146.026 83.654C146.14 83.5764 146.23 83.4699 146.288 83.3455C146.346 83.2212 146.37 83.0836 146.357 82.9469C146.149 80.6414 146.211 80.6875 146.034 80.8335C145.473 81.287 145.319 81.164 145.419 81.4868C146.019 83.4311 145.427 84.1535 146.026 83.6924V83.654ZM143.483 64.8716C144.559 63.2193 144.966 63.9263 144.935 63.1425C144.904 62.3586 144.413 62.4277 143.506 61.9052C142.737 61.4441 140.432 65.0407 139.118 66.3395C138.057 67.4154 139.033 68.7603 139.118 71.0427C139.156 71.6731 139.241 72.2999 139.371 72.9179C139.451 73.2048 139.638 73.4499 139.894 73.6019C140.224 73.8632 140.47 73.5173 140.609 73.5558C140.901 73.6326 140.962 73.6019 140.916 71.5499C140.816 67.0388 140.447 69.5749 143.483 64.8716ZM144.505 84.0843C145.373 84.2688 144.797 81.4945 144.689 81.5482C143.844 81.9786 143.921 81.8787 144.044 82.3936C144.336 83.9306 144.328 84.0843 144.505 84.1458V84.0843ZM142.576 84.6838C143.782 84.2688 143.49 84.4686 143.629 84.2073C143.283 82.0708 143.375 82.0017 143.022 82.0862C142.184 82.3014 141.877 82.4013 141.907 82.555C142.307 84.7068 142.284 84.8528 142.576 84.7453V84.6838ZM140.486 63.2039C142.153 61.152 142.215 61.6669 141.815 60.6755C141.757 60.3605 141.582 60.0789 141.326 59.8867C141.07 59.6945 140.75 59.6057 140.432 59.6381C139.148 59.6381 137.788 62.3048 136.336 63.9801C135.267 65.2174 136.612 68.2069 136.512 70.4202C136.597 71.4731 136.512 72.0956 137.196 72.0111C137.396 72.0111 137.588 71.9035 137.78 72.0111C137.807 72.0154 137.834 72.0135 137.859 72.0055C137.884 71.9975 137.907 71.9836 137.926 71.965C138.933 70.0283 136.874 68.3837 138.188 65.9783C138.28 65.9091 137.88 66.4624 140.486 63.2654V63.2039ZM141.377 84.8528C141.692 84.8528 141.569 84.7683 141.216 82.8163C141.154 82.4935 141.047 82.6242 139.878 82.5012C139.463 82.4551 139.602 82.2707 140.024 84.6915C140.086 85.0373 140.355 84.8067 141.377 84.8528ZM139.071 84.7068C139.364 84.776 139.302 84.8989 138.902 82.4013C138.902 82.2783 138.987 82.3475 137.88 81.848C137.473 81.9556 137.581 81.7788 137.926 84.2995C137.942 84.5378 138.026 84.4455 139.048 84.6761L139.071 84.7068ZM136.282 62.6967C137.742 60.6679 137.942 60.5295 137.819 59.9608C137.219 56.7024 138.019 57.54 134.745 57.5016C134.391 57.5016 134.261 57.7398 133.976 58.2701C132.508 61.4441 132.17 61.8053 132.439 62.7813C132.764 63.746 132.965 64.7479 133.039 65.7631C133.039 69.8592 135.267 68.0686 135.083 66.862C134.806 65.0407 135.636 63.3346 135.129 62.0204C135.06 61.836 134.96 61.2519 135.283 61.1981C136.136 60.9599 135.967 63.0733 136.259 62.666L136.282 62.6967ZM136.85 84.1151C137.119 84.1766 137.119 84.1766 137.104 83.9076C136.935 80.9258 136.505 81.8941 136.336 81.1794C136.336 81.0334 136.266 80.8259 136.082 80.8412C135.898 80.8566 136.082 82.1784 136.082 83.1468C136.074 83.8077 136.143 83.9153 136.827 84.0843L136.85 84.1151ZM93.8524 62.6583C93.9523 59.8609 94.2905 60.8677 90.7784 60.7831C87.2663 60.6986 85.7062 61.7899 84.4305 58.2009C83.192 54.7884 82.2585 51.2728 81.6408 47.6954C81.1413 44.4523 83.6466 45.5436 83.5236 44.7059C83.3546 43.5532 83.4161 43.3149 82.8858 42.9921C81.9713 42.4388 82.2787 41.7472 82.3863 41.14C82.5553 40.1717 82.0174 39.8259 81.7638 39.434C81.4808 39.0101 81.3221 38.5155 81.3058 38.0062C81.2895 37.4968 81.4162 36.9931 81.6715 36.552C81.7357 36.3621 81.8407 36.1884 81.9791 36.0433C82.1174 35.8981 82.2859 35.785 82.4725 35.7118C82.6592 35.6385 82.8597 35.607 83.0598 35.6194C83.26 35.6318 83.455 35.6878 83.6312 35.7835C84.5688 36.114 84.4382 37.1976 83.9386 36.967C83.6466 36.8364 83.0318 36.1447 82.5015 36.8594C82.1326 37.3513 81.9405 38.6654 82.5015 38.3965C82.7672 38.2402 83.062 38.14 83.3679 38.102C83.6738 38.0639 83.9842 38.0889 84.28 38.1753C84.5759 38.2616 84.851 38.4076 85.0883 38.6043C85.3256 38.8009 85.5202 39.044 85.6601 39.3187C86.0136 40.018 86.0367 40.2486 86.0367 38.7654C86.0643 38.3363 86.041 37.9055 85.9675 37.4819C85.8114 36.6893 85.4173 35.9631 84.8379 35.4002C84.2585 34.8372 83.5212 34.4643 82.7244 34.3311C82.3709 34.3311 80.5188 34.6385 80.1345 36.1832C79.1201 40.2178 81.026 40.3638 79.1585 40.7942C77.291 41.2246 77.268 41.2861 76.853 41.2707C75.5158 41.2169 75.9 39.8797 75.2161 38.1121C75.0262 37.4465 75.0262 36.7411 75.2161 36.0756C75.3774 35.161 74.3015 35.2533 73.4101 34.1236C72.5186 32.9939 73.0565 31.9564 73.7252 30.5884C74.2016 29.6124 73.4024 29.3819 72.4802 28.5058C71.4273 27.4913 72.6262 25.5854 72.6723 25.4317C71.5272 25.4855 70.8817 25.6469 70.2746 25.009C69.6674 24.3712 69.5752 23.8716 69.3293 24.0868C68.1535 25.1243 67.0238 25.1627 65.994 23.8563C65.602 23.3721 64.7182 25.1551 62.6125 24.3789C61.5135 23.9792 61.4597 23.8486 61.3752 24.0484C61.1008 24.5251 60.6943 24.9123 60.2047 25.1632C59.7152 25.4141 59.1635 25.518 58.6163 25.4625C58.1167 25.3164 57.9707 25.1704 57.794 25.4625C57.1638 26.4385 56.7181 27.0686 55.7651 26.9995C54.2281 26.8996 54.2819 26.3693 53.9437 26.9995C53.7444 27.673 53.3643 28.279 52.8448 28.7517C52.583 28.9079 52.2808 28.9828 51.9764 28.9669C51.2847 28.9669 51.4922 29.2435 50.8005 30.1965C49.9552 31.3646 48.5949 31.5798 48.495 31.8565C48.1876 32.5481 50.032 37.5742 50.424 38.1275C50.4788 38.0547 50.5276 37.9776 50.57 37.8969C50.7309 37.5261 50.9716 37.1953 51.2749 36.928C51.5782 36.6608 51.9367 36.4636 52.3248 36.3506C52.7129 36.2376 53.1212 36.2116 53.5206 36.2743C53.9199 36.337 54.3006 36.4869 54.6354 36.7134C54.7495 36.8001 54.8267 36.9267 54.8515 37.0678C54.8764 37.2089 54.847 37.3542 54.7693 37.4746C54.6916 37.5951 54.5714 37.6817 54.4325 37.7173C54.2937 37.7528 54.1466 37.7346 54.0206 37.6664C53.1291 37.2283 51.8073 37.4819 51.2232 39.0881C50.9465 39.8566 51.3154 40.1026 52.2069 42.654C52.4528 43.3457 52.5451 43.8375 52.6142 44.0757C52.9831 44.0143 53.9284 44.1449 54.3587 44.0757C56.0956 43.6454 56.0956 42.8922 56.572 42.7309C57.0485 42.5695 57.2637 42.8922 57.0946 43.2996C56.6871 43.9915 56.0576 44.5252 55.3084 44.8141C54.5591 45.1029 53.7342 45.1298 52.9677 44.8904C52.7833 44.8212 52.7679 44.7905 52.8294 45.021C54.1743 50.0547 56.011 53.8512 58.3934 56.6793C65.0794 64.6257 74.5321 64.2261 78.098 54.8502C78.1902 54.612 78.6744 54.3353 78.8665 54.9271C79.1969 56.1106 76.707 59.8456 75.0239 61.2442C70.5589 64.8716 67.9306 62.3355 67.8076 63.7112C67.6847 65.2482 63.5424 66.7852 60.3147 68.5681C60.0073 68.7295 60.3147 68.6527 60.6912 70.1052C60.8449 70.7123 60.9218 71.3501 61.0832 71.9573C62.271 76.1488 64.406 80.0113 67.3235 83.2467C70.4667 86.2285 69.6828 86.0517 73.9634 87.3274C75.9462 87.9269 77.9673 88.2189 79.7272 87.2583C82.8474 85.5445 83.5698 86.8279 86.3748 85.2448C88.8648 83.8384 88.2961 85.0296 91.6545 79.7115C93.0532 77.4982 92.8841 74.1552 92.9686 73.0024C93.0532 71.8497 93.4989 72.5567 93.8524 62.6583ZM86.1673 20.4979C86.1833 19.8665 86.0434 19.2409 85.76 18.6765C85.3066 17.5391 84.3383 18.1539 83.3008 18.6765C82.2492 19.1949 81.2992 19.8977 80.4957 20.7515C79.7733 21.4278 78.6513 20.836 78.6513 19.3605C78.6513 17.1011 82.3401 15.5641 82.4938 15.1568C82.8627 13.9271 81.8329 13.0357 80.9568 12.0827C80.8416 11.9521 80.5265 12.0827 80.3728 12.1826C77.4985 13.858 76.8146 15.833 75.9461 17.1472C75.5773 17.7005 75.2699 17.6621 74.8011 17.9157C73.7021 18.4998 72.68 16.8475 73.8558 15.3181C74.924 13.9195 74.4706 13.8733 74.9317 13.2662C76.7838 10.83 76.8684 11.1298 76.4687 10.661C76.175 10.4177 75.8459 10.2207 75.4927 10.0769C75.0009 9.89247 74.8625 9.61581 73.5791 10.7763C72.5216 11.9625 71.6953 13.3362 71.143 14.8263C70.874 15.9099 70.6357 16.5093 69.6059 16.809C67.1851 17.5007 68.776 12.5515 70.2131 10.661C70.5205 10.269 71.3044 8.70896 70.8432 8.52452C68.0228 7.42555 68.0151 8.04805 67.4311 9.001C66.1553 11.0606 67.285 11.929 65.4406 14.5727C64.3801 16.1097 64.9488 17.078 64.0727 16.9397C63.7806 16.8936 63.7653 16.663 63.7192 16.4709C62.3743 10.6763 63.942 14.1193 64.3493 8.30166C64.3955 7.64842 62.7355 7.64842 62.0822 7.69453C61.429 7.74064 61.3137 8.46304 61.3137 8.59369C62.0131 8.70897 62.4972 8.70896 62.5664 9.63118C62.6817 11.3834 61.6903 11.345 61.4597 13.5813C61.4633 14.2255 61.2644 14.8546 60.8911 15.3796C60.4607 16.1481 60.7527 16.4402 60.8911 17.201C61.0294 17.9618 60.307 17.9695 60.1225 17.4008C59.914 16.983 59.8178 16.5182 59.8434 16.0519C59.869 15.5857 60.0155 15.1342 60.2686 14.7418C61.0371 13.6889 60.3454 12.5823 61.3829 11.0606C61.5927 10.7343 61.6899 10.3483 61.6596 9.96163C61.6596 9.62349 61.6596 9.60812 61.3368 9.59275C59.8459 9.54664 59.2772 8.92415 58.7085 10.0385C57.548 12.344 58.6624 11.7523 57.8093 13.8119C57.4712 14.6188 57.0408 14.688 57.1407 15.5333C57.3636 18.1155 56.2646 18.4537 55.8573 17.8004C54.2127 15.1952 54.8736 15.0261 54.9044 13.0434C54.9044 12.1903 54.6277 12.8666 55.1042 10.7378C55.2809 9.96932 55.3885 10.0692 54.0129 10.1461C51.6075 10.1461 52.8832 11.9674 52.5374 15.249C52.5369 16.0994 52.6297 16.9472 52.814 17.7774C52.8525 18.0617 52.814 17.7774 53.7593 19.3144C53.9284 19.6141 53.7593 20.1597 53.352 20.006C52.9447 19.8523 52.9139 19.445 52.1992 18.6304C51.3256 17.843 50.6961 16.8214 50.3855 15.687C50.032 13.8887 50.0243 15.2643 49.2635 12.2211C48.9638 11.0145 47.8648 12.3286 46.9964 12.4132C46.8734 12.4132 46.8427 12.5131 46.812 12.6284C46.1972 15.2182 50.1857 20.4134 50.424 21.6737C50.5316 22.2424 49.9552 22.2194 49.6939 21.8658C48.6564 20.4672 48.2414 19.5603 47.3038 19.3605C45.4978 18.9378 46.0665 17.6467 43.0693 17.2625C42.393 17.1779 42.6543 17.1241 42.1471 18.8456C42.0989 18.9792 42.1003 19.1256 42.1511 19.2583C42.2019 19.3909 42.2987 19.5008 42.4238 19.568C42.9895 19.9778 43.6327 20.2681 44.3143 20.421C45.0928 20.503 45.8328 20.8012 46.4508 21.2818C49.6093 24.2482 48.4643 25.6238 47.4959 24.6632C46.5276 23.7026 42.8849 22.5191 41.0482 22.8342C40.9021 22.8342 40.8714 22.9033 40.6946 25.3011C40.6408 26.0696 43.1231 25.1243 44.6294 26.0696C45.2691 26.4011 45.8808 26.784 46.4585 27.2147C46.812 27.5374 46.8735 28.183 46.0665 28.183C44.4871 28.0554 42.9182 28.5335 41.6783 29.5202C41.4785 29.6585 41.5323 29.9506 41.6783 30.1581C43.2922 33.2321 42.9079 30.5654 45.713 30.55C47.5651 30.55 48.3951 31.38 49.9782 29.574C50.8697 28.5519 50.5085 28.1061 51.2463 28.037C51.7919 27.9755 52.2376 28.0754 52.5681 27.6143C53.6286 26.1311 53.2674 25.3088 55.4193 26.0081C56.1878 26.254 56.5567 25.7852 57.133 24.84C57.8478 23.6642 58.6701 24.7477 59.5077 24.3789C60.0142 24.2031 60.4365 23.8439 60.6912 23.3721C60.8098 23.1585 61.0071 22.9996 61.2411 22.9293C61.475 22.859 61.7272 22.8827 61.9439 22.9955C64.0727 23.9178 64.0573 23.5566 65.3791 22.7727C66.701 21.9888 66.8701 24.5787 68.2918 23.6104C70.8586 21.8735 70.1439 24.3789 71.4965 24.448C72.5032 24.4941 74.8395 23.5873 73.5177 26.0542C73.1565 26.7305 72.8183 27.3991 73.3793 27.8064C76.315 29.8814 74.3246 30.9342 73.9788 32.5712C73.9605 32.8222 74.0118 33.0733 74.127 33.2971C74.2423 33.5208 74.417 33.7084 74.632 33.8392C77.6292 35.6298 75.5926 36.1447 76.169 37.6818C77.3602 40.7558 75.8309 40.5022 78.9664 39.7414C79.4044 39.6338 78.7589 39.1112 79.0817 37.3129C79.3583 35.7759 79.4967 34.5386 80.9876 33.8623C81.9175 33.4396 82.1711 33.601 82.2326 32.9016C82.4093 30.7805 81.7407 30.0428 82.0942 28.4981C82.2787 27.7296 81.9175 26.5307 82.0942 25.2626C82.2659 24.334 82.7049 23.4758 83.3575 22.7932C84.0101 22.1106 84.8477 21.6333 85.7677 21.4201C86.1135 21.3202 86.1212 20.9436 86.1673 20.4979ZM85.4833 45.3976C85.4833 43.9758 85.737 40.4945 84.7148 39.3725C84.1154 38.7192 82.6168 38.8115 82.9165 39.4186C83.1319 39.7584 83.2649 40.1438 83.3049 40.544C83.3449 40.9443 83.2909 41.3484 83.1471 41.7241C82.832 42.654 84.0539 42.1314 84.1538 43.5608C84.3306 45.413 84.0616 45.6128 84.3229 45.7204C84.5842 45.828 85.4833 45.8203 85.4833 45.3976ZM85.4219 46.6426V46.3275C85.4219 46.2967 85.0837 46.4043 84.6072 46.3736C84.4228 46.3736 84.223 46.2737 84.1308 46.3121C84.0385 46.3505 84.0462 46.5273 84.0386 46.8962C84.0079 47.0484 84.0079 47.2051 84.0386 47.3573C84.1077 47.4802 84.2845 47.4956 84.5227 47.5187C85.2989 47.5878 85.4833 47.5878 85.4372 46.6426H85.4219ZM39.6956 108.823C39.8646 108.669 39.8954 108.654 39.2422 107.339C38.5889 106.025 38.8272 104.965 38.2815 103.743C37.2748 101.437 37.2594 101.783 36.7445 99.4007C36.2296 97.0183 35.6916 96.5342 34.2084 93.5831C33.2478 91.6772 34.0317 91.7464 31.3649 93.8137C31.265 93.8905 27.9066 96.5111 27.5224 96.611C27.3533 96.6571 29.9739 104.096 29.997 105.48C29.9929 105.569 29.9595 105.655 29.9017 105.724C29.844 105.792 29.7652 105.84 29.6776 105.859C29.59 105.878 29.4985 105.868 29.4173 105.83C29.3361 105.792 29.2697 105.728 29.2285 105.649C29.2285 105.649 27.2611 98.5323 26.4849 96.6956C25.3091 93.9212 22.8575 83.8999 22.8191 83.7154C22.2197 80.7874 22.6039 79.7346 21.8431 76.7989C21.2514 74.5471 21.1284 72.7104 22.3811 70.6508C24.3023 67.4384 23.8105 67.7381 24.5713 66.7237C25.3321 65.7093 28.4139 62.812 28.1218 59.9685C27.8221 57.2787 27.8759 56.4564 27.3533 55.1039C26.0392 51.8454 26.3696 49.6013 25.2246 50.7618C23.6491 52.3603 25.2245 55.9876 25.3398 57.9166C25.5396 60.9829 19.7528 61.7976 18.6231 66.132C18.4851 66.8188 18.6114 67.5323 18.9766 68.1301C19.0688 68.9754 18.0236 69.0369 17.6547 66.8544C17.5779 66.4471 17.6547 66.6084 16.525 67.4231C16.3713 67.5383 16.2945 67.6306 16.4789 67.7996C16.8621 68.2475 17.185 68.7436 17.4396 69.2752C17.8853 69.9515 17.6547 71.2272 17.6394 71.8881C17.6394 72.3492 16.8247 72.3953 16.7709 71.8881C16.5558 69.9822 17.1168 70.5816 16.0024 68.8141C15.6643 68.2992 15.5798 68.2838 15.4414 68.3991C14.8294 68.9915 14.0708 69.4106 13.2435 69.6133C12.9619 69.6853 12.6675 69.6908 12.3834 69.6294C12.0993 69.5681 11.8334 69.4415 11.6066 69.2598C9.08586 66.9543 6.59589 61.9666 10.6306 70.9889C11.5067 72.9563 12.2829 72.1187 12.3367 73.7171C12.3904 75.0697 12.5903 77.7211 12.7593 81.4022C13.2435 90.5398 14.0735 105.057 16.525 115.593C16.6258 116.247 16.8722 116.869 17.246 117.415C17.6198 117.96 18.1115 118.414 18.6845 118.744C20.2984 119.474 20.9901 119.759 22.1351 119.513C25.2092 118.882 31.1036 115.47 33.2785 113.956C35.5883 112.47 37.7387 110.75 39.6956 108.823ZM30.9961 47.0576C26.0469 41.3399 26.2544 41.4398 25.1016 42.1237C24.3792 42.5618 23.2956 43.5608 21.4204 45.0594C18.6231 47.2958 18.9305 47.1037 19.2225 47.9644C19.2225 48.0489 19.2763 48.2641 19.4377 48.1258C25.2937 43.2765 25.3706 43.0306 25.9623 43.5147C28.2216 45.8108 30.3463 48.2357 32.3256 50.7772C32.7252 51.3766 32.7559 51.6456 32.1488 52.3142C31.05 53.3824 29.8679 54.3615 28.6137 55.2422C28.2448 55.5265 28.4292 55.6264 28.5676 56.2105C28.6214 56.4564 28.6137 56.6562 28.8135 56.4872C35.6225 50.8617 35.7992 52.5755 30.9961 47.0576ZM29.7664 53.6129C30.4225 53.1127 31.0415 52.5657 31.6185 51.976C31.9721 51.6071 31.9721 51.3382 31.7569 51.0692C28.7443 47.3035 26.3773 44.5445 25.6088 44.0681C25.409 43.9528 25.2399 44.0681 25.0401 44.2064C24.8403 44.3447 20.844 47.4879 19.7989 48.633C19.5683 48.8789 19.5145 49.0403 19.5376 49.1325C19.9603 50.8463 20.4214 53.075 18.7153 53.49C17.7777 53.7129 18.5923 54.2585 18.1696 55.1039C17.6009 56.2412 16.5788 56.1029 16.4635 56.4641C16.0486 57.7629 15.3108 58.7696 13.9966 58.4084C12.4596 57.9935 10.8304 56.8023 11.2607 57.2787C12.7593 58.908 13.1897 59.0617 12.6517 60.4988C12.5672 60.7063 12.2675 61.7822 10.4538 61.544C9.91824 61.4599 9.39944 61.2913 8.91679 61.0444C8.14828 60.6755 7.78708 60.03 8.97827 61.7207C12.89 67.2924 12.7363 67.2617 14.6038 65.7784C18.185 62.9426 24.4407 57.5938 24.4407 57.5708C24.3946 56.7408 22.9037 52.4371 24.4407 50.439C24.6077 50.182 24.8351 49.9699 25.103 49.8212C25.371 49.6725 25.6713 49.5917 25.9777 49.586C26.4618 49.586 26.7462 49.9011 26.9306 50.5005C27.1737 51.8988 27.5813 53.2634 28.1449 54.5659C28.1679 54.7503 28.0988 54.9655 29.7664 53.6129ZM18.4617 52.6446C18.6897 52.5315 18.8767 52.35 18.9966 52.1254C19.1165 51.9008 19.1632 51.6444 19.1303 51.392C18.9535 49.8088 18.3618 47.2574 17.5933 46.2429C17.4736 46.0919 17.3122 45.9794 17.1291 45.9192C16.9461 45.8591 16.7494 45.8541 16.5635 45.9048C16.135 45.9576 15.7394 46.1615 15.4478 46.4799C15.1562 46.7982 14.9877 47.2102 14.9726 47.6416C15.0333 48.7997 15.4552 49.9097 16.1792 50.8156C17.4472 52.5755 17.4396 52.9751 18.4617 52.6446ZM18.3003 64.3106C18.7306 63.6036 18.9996 63.1886 19.0688 63.0349C19.1764 62.6814 18.039 63.8572 14.8958 66.4009C13.7584 67.3155 12.8285 67.7228 11.8832 66.693C10.6075 65.3173 7.01857 60.4066 6.54978 59.2769C6.54159 59.2569 6.52931 59.2389 6.51372 59.2241C6.49813 59.2092 6.47959 59.1978 6.4593 59.1905C6.43901 59.1833 6.41742 59.1804 6.39594 59.182C6.37446 59.1836 6.35356 59.1898 6.3346 59.2C6.09169 59.3099 5.88027 59.479 5.71979 59.6919C5.62757 59.8302 5.48924 59.9608 5.87349 60.6679C7.58329 63.3536 9.55798 65.8612 11.768 68.1531C12.0136 68.4468 12.3634 68.634 12.744 68.6757C13.1128 68.7526 13.6969 68.5758 14.6499 67.815C18.5001 64.7563 17.332 65.886 18.3003 64.3106ZM17.086 54.9963C17.6855 54.5428 17.3166 54.2278 15.9102 52.1144C12.6902 47.3112 12.9899 47.6416 11.2223 48.8866C10.3001 49.5475 10.8611 50.3007 11.4529 51.6686C11.914 52.7368 12.5441 52.6523 15.5721 55.173C15.6728 55.2934 15.8062 55.3821 15.9562 55.4284C16.1062 55.4748 16.2663 55.4768 16.4174 55.4343C16.6692 55.338 16.8972 55.1886 17.086 54.9963ZM15.2262 57.0866C15.403 56.7946 15.549 56.5102 15.3876 56.2336C14.8881 55.3344 12.7516 54.4199 10.9072 52.66C10.5374 52.3665 10.0805 52.2043 9.60845 52.1989C8.40189 52.3833 8.57096 52.8291 8.21744 53.4669C7.54884 54.6889 9.39326 55.6034 9.70067 55.8263C9.85437 55.9415 9.80826 55.8263 9.83131 55.7494C10.0388 54.3046 11.0225 56.6947 14.2426 57.4939C14.4274 57.5662 14.633 57.5641 14.8164 57.4882C14.9997 57.4123 15.1466 57.2684 15.2262 57.0866ZM11.7065 60.4143C12.1061 59.7841 11.9063 59.4459 11.8141 59.3307C10.6787 57.907 9.30596 56.6903 7.75634 55.734C6.86487 55.3114 6.21932 56.1875 5.81969 57.0789C5.56609 57.6323 5.95803 58.347 6.21932 58.2009C6.98783 57.786 8.52485 60.3681 10.9072 60.6294C11.2684 60.6448 11.5605 60.6294 11.7065 60.4143Z" fill="#000001"/>
<path d="M136.628 11.1368C136.958 12.0975 136.228 12.305 135.944 12.0129C135.321 11.3828 134.092 11.1906 132.824 12.1666C132.278 12.5816 133.177 12.8813 133.992 16.6701C134.384 18.5145 134.276 19.4982 133.946 20.0515C133.545 20.4882 133.022 20.7948 132.446 20.9318C131.869 21.0688 131.265 21.0298 130.71 20.82C130.537 20.7272 130.387 20.5966 130.271 20.438C130.155 20.2793 130.076 20.0967 130.039 19.9035C130.003 19.7103 130.011 19.5115 130.062 19.3216C130.113 19.1318 130.206 18.9558 130.334 18.8065C131.871 17.2695 133.408 18.576 133.277 17.9612C132.908 16.1552 132.07 12.6815 130.779 11.3751C129.488 10.0686 135.436 7.8015 136.628 11.1368Z" fill="#000001"/>
<path d="M122.495 35.668C123.026 36.5806 123.454 37.5498 123.771 38.5576C123.908 39.1456 123.853 39.7625 123.612 40.3163C123.371 40.8702 122.957 41.3315 122.433 41.6316C122.001 41.9021 121.479 41.9924 120.981 41.8833C120.482 41.7741 120.047 41.4741 119.767 41.0475C118.806 39.4106 122.226 38.2271 122.272 38.5345C122.51 38.5345 122.702 38.5729 122.595 38.3424C120.059 33.0166 120.474 33.47 119.989 33.6237C117.544 34.4969 115.239 35.7242 113.15 37.2665C112.035 38.035 112.381 38.035 112.704 38.7497C113.193 39.5467 113.546 40.4193 113.749 41.3319C113.849 42.0082 113.995 43.6989 113.503 44.16C111.574 45.989 109.046 44.4597 109.891 42.623C110.127 42.2767 110.468 42.0152 110.864 41.8769C111.259 41.7386 111.689 41.7307 112.089 41.8545C112.256 41.9018 112.425 41.9403 112.596 41.9697C113.611 42.2157 111.182 37.8736 110.006 36.6363C108.224 34.7688 114.264 31.91 116.616 30.8725C118.283 30.104 118.645 30.0194 119.213 30.5497C121.296 32.4556 121.142 33.1857 122.495 35.668ZM112.735 36.5518C117.423 33.0704 119.521 33.0243 119.759 32.7092C119.89 32.5401 119.513 32.2865 118.729 31.4181C118.36 31.0031 112.066 34.0003 110.929 35.4605C110.468 36.0522 111.474 36.3289 111.836 37.205C111.943 37.4509 112.066 37.0359 112.735 36.5364V36.5518Z" fill="#000001"/>
<path d="M108.746 23.3724C108.808 23.5261 108.485 23.8335 108.3 23.8412C100.362 23.8412 104.458 23.626 104.458 29.2207C104.545 30.3863 104.42 31.5582 104.089 32.679C103.889 33.1939 102.79 34.0777 101.015 33.6704C98.7632 33.1555 99.6008 30.1122 101.53 30.1583C103.835 30.2198 103.505 31.6262 103.497 29.8356C103.497 25.5319 101.038 23.2571 101.422 22.2196C101.806 21.1821 107.77 20.8286 108.746 23.3724Z" fill="#000001"/>
<path d="M106.479 88.5804C106.694 89.3489 105.98 89.3489 105.787 88.9186C104.012 85.2758 104.174 75.3159 104.735 72.4725C104.85 71.85 105.565 71.9191 105.557 72.4187C104.804 77.8144 105.117 83.3054 106.479 88.5804Z" fill="#000001"/>
<path d="M92.646 146.18C92.7612 149.316 78.5284 134.968 77.3142 133.338C75.2776 130.61 74.3093 129.942 71.9884 127.367C68.0767 123.017 69.1911 123.986 65.2102 117.461C64.8797 116.923 64.6799 116.746 64.6415 116.462C64.5569 115.955 65.0795 115.886 65.3254 116.162C67.1007 118.137 68.1305 120.658 69.5138 122.695C70.5513 124.232 70.4207 124.116 74.6014 128.497C75.5236 129.457 83.8235 139.433 91.2473 145.02C92.2386 145.765 92.6229 145.688 92.646 146.18Z" fill="#000001"/>
<path d="M87.6044 81.2338C88.1654 82.8477 86.0674 82.6556 86.2903 81.9178C86.4363 81.3721 85.3911 82.4557 85.4295 83.4548C85.4295 83.67 85.4295 83.816 85.2297 83.8314C85.0299 83.8467 84.6841 83.8314 84.7763 83.0629C84.7148 81.4567 87.0204 79.5892 87.6044 81.2338Z" fill="#000001"/>
<path d="M86.1596 77.2908C86.1901 77.42 86.2132 77.5509 86.2287 77.6828C86.0981 79.4273 84.4765 78.6434 85.1528 78.1054C85.4526 77.8749 85.4526 77.8749 85.2989 77.5444C84.953 76.7913 85.9751 76.7375 86.1596 77.2908Z" fill="#000001"/>
<path d="M83.4083 79.4732C83.5811 79.4488 83.7573 79.4668 83.9216 79.5257C84.0859 79.5846 84.2334 79.6825 84.3514 79.8111C84.4694 79.9397 84.5543 80.0951 84.5989 80.2638C84.6434 80.4325 84.6463 80.6096 84.6072 80.7797C84.4765 81.356 83.3468 81.456 83.3007 80.6337C83.3044 80.5722 83.3044 80.5106 83.3007 80.4492C81.7022 81.2946 82.8627 82.5472 82.6475 83.0545C81.9635 84.6222 80.3958 80.0726 83.4083 79.4732Z" fill="#000001"/>
<path d="M83.5775 74.2549C83.9003 75.1156 83.0395 75.4077 82.8551 75.0234C82.6706 74.6391 81.9636 75.2309 82.0174 75.8841C82.1481 77.2751 82.7091 77.2521 82.3248 77.6748C81.7869 78.2742 81.2028 76.6911 81.272 75.5998C81.1721 74.3471 83.2778 73.4556 83.5775 74.2549Z" fill="#000001"/>
<path d="M79.7502 78.9959C79.8809 79.5953 79.8425 80.6481 79.2738 80.4868C78.7051 80.3254 79.2738 79.8182 79.0048 79.2495C78.6974 78.481 78.0134 79.1649 77.9442 78.5809C77.7982 77.5664 79.5351 77.9353 79.7502 78.9959Z" fill="#000001"/>
<path d="M78.7282 81.8176C79.6734 81.8176 79.366 82.8705 78.9357 82.7245C78.8203 82.7054 78.702 82.7128 78.59 82.7463C78.4779 82.7798 78.3749 82.8384 78.289 82.9178C78.203 82.9971 78.1362 83.0949 78.0938 83.204C78.0514 83.313 78.0344 83.4302 78.0442 83.5468C78.1748 85.0838 78.5668 84.9685 78.244 85.2836C77.3372 86.1674 76.3919 81.7792 78.7282 81.8176Z" fill="#000001"/>
<path d="M75.9308 52.0151C75.9308 51.3619 76.7838 51.3849 76.7531 52.0843C76.7224 52.7836 75.8847 52.7529 75.9308 52.0151Z" fill="#000001"/>
<path d="M76.5764 75.6771C76.5764 75.7693 76.7071 76.3073 76.6456 76.315C76.6456 76.9298 76.6456 76.8837 76.2613 76.9989C76.1076 77.045 76.0692 76.9989 76.0077 76.461C75.9309 75.6925 75.3622 75.8308 74.878 75.6925C74.817 75.6596 74.7661 75.6107 74.7305 75.5512C74.695 75.4917 74.6763 75.4236 74.6763 75.3543C74.6763 75.285 74.695 75.217 74.7305 75.1575C74.7661 75.0979 74.817 75.0491 74.878 75.0162C75.1946 74.9308 75.5302 74.9489 75.8357 75.0678C76.1413 75.1867 76.4008 75.4002 76.5764 75.6771Z" fill="#000001"/>
<path d="M76.4917 84.0844C76.899 85.7367 75.777 86.2055 75.8462 85.0066C75.8462 84.9067 76.0153 83.9 75.3697 83.9999C75.0316 84.0537 74.947 84.1382 74.9393 84.338C74.9317 84.5378 75.2621 84.461 75.2467 84.8299C75.2488 84.8954 75.2376 84.9607 75.2137 85.0217C75.1898 85.0827 75.1538 85.1383 75.1078 85.185C75.0618 85.2317 75.0068 85.2686 74.9462 85.2934C74.8855 85.3182 74.8204 85.3305 74.7549 85.3294C74.1017 85.3678 73.9249 84.6762 74.1862 84.0767C74.3027 83.8512 74.4775 83.661 74.6924 83.5259C74.9073 83.3907 75.1544 83.3156 75.4081 83.3082C75.6435 83.3225 75.87 83.4029 76.0617 83.5402C76.2534 83.6775 76.4025 83.8662 76.4917 84.0844Z" fill="#000001"/>
<path d="M76.2999 55.735C76.2999 56.4344 75.5314 56.4267 75.5314 55.735C75.5098 55.6736 75.5032 55.6079 75.5122 55.5434C75.5213 55.479 75.5456 55.4176 75.5833 55.3645C75.6209 55.3114 75.6707 55.268 75.7285 55.2381C75.7864 55.2082 75.8505 55.1926 75.9156 55.1926C75.9807 55.1926 76.0449 55.2082 76.1027 55.2381C76.1605 55.268 76.2103 55.3114 76.248 55.3645C76.2856 55.4176 76.31 55.479 76.319 55.5434C76.328 55.6079 76.3215 55.6736 76.2999 55.735Z" fill="#000001"/>
<path d="M75.3853 79.4033C75.6846 79.6973 75.8859 80.0765 75.9615 80.4892C76.0372 80.9019 75.9836 81.3278 75.808 81.7089C75.5697 81.8856 75.3007 81.8241 75.3007 81.509C75.3007 80.7405 75.3699 80.2026 74.5322 79.6646C74.4105 79.5627 74.2568 79.5068 74.098 79.5068C73.9393 79.5068 73.7855 79.5627 73.6638 79.6646C73.3487 79.9567 73.341 80.3486 73.756 80.241C74.4708 80.0566 74.417 80.7866 74.0173 81.0095C73.8735 81.1051 73.7043 81.1552 73.5317 81.1533C73.3591 81.1515 73.191 81.0978 73.0493 80.9992C72.9075 80.9005 72.7988 80.7616 72.737 80.6003C72.6753 80.4391 72.6635 80.263 72.7032 80.095C72.7596 79.8112 72.895 79.5491 73.0938 79.3388C73.2926 79.1285 73.5467 78.9786 73.8269 78.9064C74.1071 78.8341 74.402 78.8424 74.6777 78.9303C74.9534 79.0182 75.1986 79.1822 75.3853 79.4033Z" fill="#000001"/>
<path d="M73.1874 53.3438C73.179 53.2787 73.1845 53.2127 73.2036 53.1499C73.2227 53.0872 73.255 53.0293 73.2983 52.98C73.3416 52.9308 73.3948 52.8913 73.4546 52.8643C73.5143 52.8372 73.5791 52.8232 73.6447 52.8232C73.7103 52.8232 73.7751 52.8372 73.8348 52.8643C73.8946 52.8913 73.9478 52.9308 73.9911 52.98C74.0344 53.0293 74.0667 53.0872 74.0858 53.1499C74.1049 53.2127 74.1104 53.2787 74.102 53.3438C74.1104 53.4088 74.1049 53.4749 74.0858 53.5376C74.0667 53.6003 74.0344 53.6582 73.9911 53.7075C73.9478 53.7567 73.8946 53.7962 73.8348 53.8232C73.7751 53.8503 73.7103 53.8643 73.6447 53.8643C73.5791 53.8643 73.5143 53.8503 73.4546 53.8232C73.3948 53.7962 73.3416 53.7567 73.2983 53.7075C73.255 53.6582 73.2227 53.6003 73.2036 53.5376C73.1845 53.4749 73.179 53.4088 73.1874 53.3438Z" fill="#000001"/>
<path d="M73.1873 58.5781C73.1842 58.5307 73.1906 58.4831 73.2059 58.4381C73.2213 58.3931 73.2453 58.3516 73.2767 58.3159C73.3081 58.2803 73.3463 58.2511 73.3889 58.2302C73.4316 58.2092 73.478 58.1969 73.5254 58.1939C73.5728 58.1908 73.6204 58.1972 73.6654 58.2125C73.7104 58.2279 73.7519 58.2519 73.7876 58.2833C73.8232 58.3147 73.8524 58.3529 73.8733 58.3955C73.8943 58.4382 73.9066 58.4846 73.9097 58.532C73.8405 59.1622 73.1873 59.0469 73.1873 58.5781Z" fill="#000001"/>
<path d="M72.4187 145.865C72.4187 146.634 71.8192 146.78 71.4427 146.28C68.2841 142.092 68.9527 140.608 67.4849 138.549C66.017 136.489 65.7864 136.243 65.479 135.436C63.0121 128.673 63.3118 129.565 63.0044 128.712C62.6279 127.528 63.5885 127.705 63.773 128.059C66.2476 134.207 66.1553 134.845 67.6155 136.912C70.6895 141.208 68.0766 139.217 71.9729 145.227C72.1728 145.488 72.0959 145.212 72.4187 145.865Z" fill="#000001"/>
<path d="M72.2881 83.1081C72.4802 83.6153 72.6647 84.7758 72.1575 84.7911C71.6503 84.8065 71.8731 84.722 71.7502 83.9765C71.6502 83.354 71.1277 82.6086 70.6205 82.7238C70.3745 82.7853 70.144 83.1081 70.559 83.1619C70.6896 83.1619 70.8664 83.1619 70.9125 83.2772C70.9602 83.3592 70.98 83.4545 70.969 83.5487C70.9579 83.643 70.9165 83.7311 70.851 83.7998C70.3438 84.5222 69.0527 83.7998 69.6829 82.4088C70.0287 81.6479 71.6964 81.5788 72.2881 83.1081Z" fill="#000001"/>
<path d="M71.6502 49.5774C71.8731 49.8464 71.9576 49.9847 71.8731 50.1615C71.7886 50.3382 71.6118 50.3767 71.3889 50.2306C70.8356 49.8771 70.8356 49.8541 70.6204 50.3459C69.8934 51.7488 68.9723 53.0424 67.8845 54.1885C66.0708 55.9714 64.6645 55.4719 61.0141 54.1885C60.7067 54.0809 60.6913 54.273 60.453 54.6265C59.6845 55.7178 58.6086 52.2365 65.7404 51.2835C67.2531 51.1429 68.7077 50.6308 69.9749 49.7926C70.2669 49.5928 69.7213 49.4544 69.5752 49.2931C69.4292 49.1317 69.5214 48.8627 69.7904 48.8396C70.1342 48.8305 70.4762 48.8912 70.7959 49.018C71.1156 49.1448 71.4062 49.3351 71.6502 49.5774ZM69.5291 50.8608C69.1526 50.7917 67.8 51.8291 65.5713 52.0136C65.1333 52.0136 62.7586 52.4055 61.6135 53.3124C61.5959 53.3225 61.5813 53.337 61.5712 53.3546C61.5611 53.3721 61.5557 53.392 61.5557 53.4123C61.5557 53.4325 61.5611 53.4524 61.5712 53.47C61.5813 53.4875 61.5959 53.5021 61.6135 53.5122C62.8149 54.0181 64.0833 54.3468 65.3792 54.4882C66.6088 54.565 67.0545 53.7888 69.1526 51.4756C69.2987 51.291 69.413 51.0832 69.4907 50.8608H69.5291Z" fill="#000001"/>
<path d="M71.2968 55.1269C71.7272 55.173 71.7579 56.1644 71.12 56.1183C70.4822 56.0722 70.6513 55.0578 71.2968 55.1269Z" fill="#000001"/>
<path d="M71.1276 60.0987C71.1386 60.1572 71.1372 60.2174 71.1233 60.2753C71.1095 60.3332 71.0836 60.3875 71.0473 60.4347C71.011 60.4819 70.9652 60.521 70.9128 60.5492C70.8603 60.5775 70.8025 60.5943 70.7432 60.5987C70.6838 60.603 70.6241 60.5948 70.5682 60.5745C70.5122 60.5542 70.4611 60.5223 70.4183 60.4809C70.3755 60.4395 70.342 60.3895 70.3198 60.3343C70.2977 60.279 70.2875 60.2197 70.2899 60.1602C70.2284 59.3763 71.1276 59.3916 71.1276 60.0987Z" fill="#000001"/>
<path d="M70.4054 78.9813C70.6436 79.3578 70.7282 80.1725 70.4054 80.1801C70.0826 80.1878 70.0442 79.7959 69.6369 79.2733C69.2296 78.7507 68.7377 79.4193 68.6455 78.8276C68.4918 77.9976 69.7445 77.9361 70.4054 78.9813Z" fill="#000001"/>
<path d="M69.4445 38.2811C70.2515 38.8575 67.531 41.455 65.748 41.6087C62.7739 41.8546 62.674 40.3945 63.2504 40.333C63.8267 40.2715 63.4886 40.6097 65.2024 40.6404C65.9073 40.5564 66.5857 40.3205 67.1907 39.949C67.7957 39.5775 68.3129 39.0792 68.7068 38.4886C68.7404 38.4253 68.7865 38.3696 68.8423 38.3247C68.8981 38.2797 68.9624 38.2466 69.0313 38.2272C69.1003 38.2078 69.1724 38.2026 69.2435 38.2118C69.3145 38.2211 69.3829 38.2447 69.4445 38.2811Z" fill="#000001"/>
<path d="M68.4378 32.0955C68.5443 32.1389 68.6329 32.2172 68.689 32.3176C68.7451 32.418 68.7655 32.5345 68.7467 32.6479C68.728 32.7614 68.6712 32.8651 68.5858 32.9421C68.5003 33.0191 68.3912 33.0647 68.2764 33.0715C67.5617 33.0715 66.6241 32.303 65.4252 32.6796C63.796 33.2098 63.0429 34.8391 61.4136 35.208C60.7972 35.3184 60.1617 35.238 59.5923 34.9774C59.5062 34.9551 59.4263 34.9136 59.3584 34.8562C59.2906 34.7987 59.2366 34.7267 59.2004 34.6454C59.1642 34.5642 59.1468 34.4759 59.1494 34.387C59.1521 34.2981 59.1747 34.211 59.2157 34.1321C59.623 33.3174 60.4914 34.7545 61.8978 33.84C63.0044 33.1099 64.7336 30.1819 68.4378 32.0955Z" fill="#000001"/>
<path d="M67.5311 56.9711C68.046 56.9711 67.9999 57.8702 67.5311 57.8856C66.9317 57.9087 66.9624 56.9864 67.5311 56.9711Z" fill="#000001"/>
<path d="M65.602 59.9834C65.602 59.2764 66.4474 59.2149 66.432 59.9296C66.4166 60.6443 65.5866 60.6597 65.602 59.9834Z" fill="#000001"/>
<path d="M65.802 43.8443C67.339 43.9903 67.1623 45.8501 66.34 46.6801C65.8174 47.2103 64.4955 47.1412 64.4264 46.6186C64.3803 46.2266 64.7645 46.242 65.1949 46.219C65.3335 46.2015 65.4671 46.1558 65.5874 46.0846C65.7077 46.0135 65.8121 45.9185 65.8942 45.8054C65.9763 45.6923 66.0344 45.5636 66.0648 45.4272C66.0952 45.2908 66.0973 45.1496 66.071 45.0124C65.9864 44.6512 65.6637 44.7127 65.5023 44.6512C65.45 44.637 65.4014 44.6117 65.3598 44.577C65.3183 44.5423 65.2846 44.499 65.2613 44.4501C65.238 44.4012 65.2254 44.3479 65.2246 44.2937C65.2237 44.2396 65.2346 44.1859 65.2564 44.1363C65.3102 43.8904 65.5484 43.8212 65.802 43.8443Z" fill="#000001"/>
<path d="M64.5493 56.8952C64.6797 56.8952 64.8048 56.947 64.8971 57.0392C64.9893 57.1315 65.0411 57.2566 65.0411 57.387C65.0411 57.5175 64.9893 57.6426 64.8971 57.7348C64.8048 57.827 64.6797 57.8789 64.5493 57.8789C63.9652 57.8712 63.8346 56.8721 64.5493 56.8952Z" fill="#000001"/>
<path d="M63.0583 47.2335C63.2812 46.1269 64.3187 46.3574 64.0497 47.4103C62.9354 51.7447 57.2561 50.4843 57.2407 47.1951C57.2407 44.7666 59.6077 43.8137 57.502 41.1008C57.356 40.901 57.2561 40.755 57.3483 40.5014C57.3662 40.4495 57.3961 40.4026 57.4357 40.3646C57.4753 40.3266 57.5234 40.2985 57.5759 40.2828C57.6285 40.267 57.684 40.264 57.738 40.2739C57.792 40.2839 57.8428 40.3065 57.8863 40.34C60.6068 42.8991 58.5395 45.4198 58.2398 46.588C57.5789 49.1932 62.4282 50.3767 63.0583 47.2335Z" fill="#000001"/>
<path d="M61.2446 57.8555C61.2366 57.7978 61.2411 57.7391 61.2577 57.6833C61.2743 57.6275 61.3027 57.576 61.3409 57.5321C61.3792 57.4882 61.4263 57.453 61.4793 57.4289C61.5323 57.4048 61.5898 57.3923 61.648 57.3923C61.7062 57.3923 61.7638 57.4048 61.8167 57.4289C61.8697 57.453 61.9169 57.4882 61.9551 57.5321C61.9934 57.576 62.0218 57.6275 62.0384 57.6833C62.055 57.7391 62.0595 57.7978 62.0515 57.8555C62.0361 58.5164 61.2446 58.4395 61.2446 57.8555Z" fill="#000001"/>
<path d="M47.7497 52.7829C47.7582 52.8861 47.7344 52.9893 47.6817 53.0783C47.629 53.1674 47.5499 53.2379 47.4555 53.2801C47.361 53.3222 47.2557 53.334 47.1542 53.3138C47.0527 53.2936 46.96 53.2424 46.8889 53.1672C46.3894 52.6139 45.2443 52.3987 43.861 53.3516C43.1617 53.8512 44.8524 54.8041 45.2751 59.9993C45.4288 61.8667 43.0541 62.5661 41.763 62.0051C40.226 61.3518 41.056 58.785 44.0224 59.2769C44.3067 59.323 44.3144 59.323 44.276 59.0617C44.0224 57.394 42.9695 53.7974 41.8398 52.6216C40.7101 51.4457 43.8994 49.8934 46.5431 50.9385C46.8641 51.1422 47.1378 51.4122 47.3458 51.7303C47.5539 52.0484 47.6916 52.4073 47.7497 52.7829Z" fill="#000001"/>
<path d="M34.1391 26.9758C34.2624 27.4725 34.2565 27.9924 34.122 28.4861C33.9875 28.9798 33.7288 29.4308 33.3706 29.7963C31.6107 31.3333 29.3589 29.7502 30.2043 28.3976C30.9728 27.2371 31.603 27.1219 32.848 27.0757C33.2783 27.0757 32.9094 26.9605 30.8806 22.4186C30.7115 22.042 30.7269 22.0497 30.358 22.165C27.6681 23.1531 25.1559 24.5701 22.9188 26.361C22.7113 26.5532 22.6883 26.5685 23.6182 28.2516C24.2253 29.3428 24.6172 32.2017 23.7488 32.8626C23.3937 33.1648 22.9651 33.368 22.5063 33.4516C22.0476 33.5353 21.5749 33.4965 21.1359 33.3391C19.5989 32.7012 19.8141 30.2651 22.0812 30.2651C23.2032 30.5187 24.1715 31.2564 21.743 26.922C20.9284 25.5234 20.5211 25.5541 20.2367 24.9854C19.2223 22.9642 24.7709 20.4358 26.8075 19.529C28.7211 18.6836 29.0285 18.576 29.5972 19.0986C31.6875 21.066 31.5031 21.7423 32.8633 24.2015C33.3475 25.0981 33.7736 26.0247 34.1391 26.9758ZM29.7816 21.4041C29.9276 21.3657 30.2274 21.2812 30.1274 21.1582C29.0669 19.8671 29.0285 19.8133 28.844 19.8748C26.7229 20.5127 22.573 22.58 21.3126 23.9787C21.0514 24.2784 21.0898 24.3168 21.3126 24.6242C22.6422 26.2534 22.0043 25.6002 22.2963 25.8461C22.9035 25.093 26.5462 22.4263 29.7816 21.4041Z" fill="#000001"/>
</svg>
