<svg width="156" height="156" viewBox="0 0 156 156" fill="none" xmlns="http://www.w3.org/2000/svg">
<path d="M33.5031 23.7577C33.4221 23.5793 33.2742 23.4399 33.0914 23.3696C32.9086 23.2993 32.7054 23.3036 32.5257 23.3817C23.0548 26.1609 21.476 33.1538 16.6656 37.2122C16.2897 37.5133 15.2374 37.8893 14.5604 38.3401C13.8841 38.7161 13.5884 39.9413 14.7858 39.6927C19.7676 38.6597 21.5517 33.1538 26.2115 28.7186C29.1436 25.9371 34.0289 25.1859 33.5031 23.7577Z" fill="#3D9CFB"/>
<path d="M8.9982 59.1622C16.1408 51.4198 21.6267 55.7044 27.1141 47.2849C30.4963 42.0993 33.8036 39.5432 38.6896 38.87C39.667 38.7156 39.8924 37.2913 38.915 37.5167C27.7155 39.0167 28.9183 45.9323 21.4762 50.7427C17.6431 53.2239 12.6814 52.8472 8.02161 58.1833C7.34456 58.936 8.32192 59.9134 8.9982 59.1622Z" fill="#3D9CFB"/>
<path d="M26.7387 34.8825C24.0035 37.339 21.9314 42.3247 18.9206 43.9011C17.7178 44.7279 15.2373 45.1788 12.8317 45.8558C11.0276 46.3816 8.5471 47.2833 8.24679 48.6351C8.16959 49.5375 8.84818 49.8378 9.22337 49.4619C12.2342 46.6054 15.8387 47.3574 19.8979 45.1772C23.5055 42.7724 24.5578 39.4644 27.039 36.909C27.9014 35.8901 29.0147 35.1139 30.2691 34.6571C30.369 34.6192 30.4602 34.5616 30.5374 34.4876C30.6145 34.4137 30.676 34.325 30.718 34.2267C30.7601 34.1285 30.782 34.0228 30.7823 33.916C30.7826 33.8091 30.7614 33.7033 30.7199 33.6048C30.3463 33.0034 27.8859 33.8519 26.7387 34.8825Z" fill="#3D9CFB"/>
<path d="M28.6173 122.077C31.6243 127.564 37.412 134.705 45.3791 137.862C57.1808 142.598 110.024 140.042 115.887 137.862C124.907 134.705 138.437 119.446 130.091 112.981C129.415 112.155 114.908 112.53 121.297 110.351C123.101 110.351 126.784 110.428 129.039 110.651C133.925 111.178 133.85 113.959 136.481 113.809C141.141 113.583 142.569 99.1506 139.864 93.3629C137.533 88.4019 121.222 89.3036 116.412 89.4542C117.464 98.5492 109.571 102.534 109.571 102.534C110.323 105.089 110.172 118.018 109.571 123.28C128.739 134.783 95.2354 132.902 88.6741 130.496C86.5511 129.717 86.6445 112.756 86.9456 108.847C84.6156 108.096 80.7818 108.77 78.6774 110.2C80.0654 112.05 81.6817 113.717 83.4877 115.161C83.4877 121.701 72.2126 137.261 68.8304 137.712C66.4248 135.907 66.5005 132.826 66.2743 128.917C63.6441 127.639 50.2636 121.701 42.5968 111.856C35.3068 112.23 22.2282 110.2 28.6173 122.077Z" fill="#3D9CFB"/>
<path d="M136.033 67.5797C138.59 75.1716 150.316 71.2629 147.614 64.1219C145.578 56.9059 133.476 60.0634 136.033 67.5797ZM139.266 67.0539C138.59 66.6031 138.89 66.1515 139.867 64.8738C140.994 63.3707 140.994 62.845 141.821 63.3707C142.648 63.8964 142.348 64.047 141.295 65.6257C140.165 67.2794 139.94 67.5048 139.263 67.0539H139.266ZM143.625 67.2794C142.573 69.0835 142.197 68.6327 141.746 68.3316C141.295 68.0305 141.22 67.8051 142.197 66.4525C143.325 64.9494 143.325 64.4229 144.152 64.9494C144.976 65.5501 144.603 65.6257 143.623 67.2794H143.625Z" fill="#3D9CFB"/>
<path d="M37.5617 88.7774C32.827 88.623 24.4831 88.9272 20.7242 92.2345C15.9895 96.4442 18.6954 112.68 23.356 112.981C25.9113 113.131 26.4371 111.327 31.3231 110.801C34.864 110.375 38.4347 110.249 41.9969 110.425C38.5398 105.013 42.3728 99.6766 42.3728 99.6766C42.3728 99.6766 37.9376 96.9707 37.5617 88.7774Z" fill="#3D9CFB"/>
<path d="M87.1727 20.9014C93.7124 26.6142 101.378 21.8787 106.341 23.9832C107.243 24.3592 108.52 25.7117 109.347 24.6595C110.024 23.8327 107.919 22.7804 106.792 22.4045C103.409 21.2773 98.068 22.2501 94.8403 22.1041C92.1061 22.1834 89.4446 21.217 87.3981 19.4021C86.7967 18.9466 86.1953 20.0745 87.1727 20.9014Z" fill="#3D9CFB"/>
<path d="M91.0063 7.44606C89.8035 10.0022 96.7964 12.4078 99.801 12.8586C102.806 13.3095 107.844 12.0318 111.227 13.3095C113.783 14.2112 114.61 15.6401 116.789 16.8422C119.025 18.0288 121.562 18.5258 124.081 18.2704C125.058 18.1932 124.907 17.046 123.93 17.0676C117.085 17.222 116.564 12.9335 111.227 11.5809C106.416 10.3781 103.184 11.8064 99.801 11.3547C97.546 11.0544 95.2161 9.92729 92.0585 7.29552C91.9888 7.21637 91.9005 7.15582 91.8016 7.11933C91.7026 7.08283 91.5962 7.07155 91.4917 7.08648C91.3873 7.10142 91.2883 7.14211 91.2036 7.20489C91.1188 7.26766 91.051 7.35054 91.0063 7.44606Z" fill="#3D9CFB"/>
<path d="M107.994 18.4248C109.497 18.7251 112.279 21.3584 114.834 22.6338C116.413 23.3857 118.367 24.062 119.119 22.711C119.344 22.335 118.893 21.8842 118.443 21.8842C116.068 21.6736 113.826 20.6984 112.053 19.1049C108.821 15.7976 103.407 16.5496 99.4999 16.8499C97.8814 16.9119 96.2748 16.5491 94.84 15.7976C93.9376 15.3468 94.0124 16.775 94.9172 17.151C100.101 19.8491 102.883 17.0676 107.994 18.4248Z" fill="#3D9CFB"/>
<path d="M92.5851 75.3218C93.5617 77.4263 96.7941 74.495 98.8237 73.0668C102.131 70.7368 101.154 68.4818 99.6505 67.655C97.4704 66.5271 92.9603 68.4069 95.3659 72.2399C95.5164 72.5426 91.9837 74.0449 92.5851 75.3218Z" fill="#3D9CFB"/>
<path d="M61.0148 5.64253C52.6709 10.1526 58.2008 22.3457 66.8048 20.0744C78.7424 16.9223 71.3875 0.38053 61.0148 5.64253ZM68.907 12.4076C68.9842 13.6853 64.397 16.1658 63.4204 16.0152C62.1419 15.7149 61.9165 9.55121 63.1193 9.0247C64.021 8.64873 68.8321 11.2048 68.907 12.4076Z" fill="#3D9CFB"/>
<path d="M122.877 57.4329C126.41 49.3901 120.923 43.3052 112.128 42.7756C109.272 32.101 102.206 29.6962 91.8331 33.8303C83.5649 27.7415 70.6361 26.9155 66.1253 36.2359C56.0537 36.9122 49.8143 38.9418 50.4906 47.9619C43.8011 51.7201 43.5001 56.681 46.883 62.0935C40.4939 71.1136 30.2709 91.033 41.2473 99.8269C31.3232 112.981 61.8437 127.639 65.3741 129.293C65.8999 150.34 77.8521 129.969 82.8879 120.573C86.1203 114.334 83.2638 114.034 80.1086 110.501C81.5369 109.975 82.5134 109.448 82.9651 109.298C83.7919 109.375 84.6187 109.448 85.5204 109.524C85.2968 116.265 85.7241 123.012 86.7965 129.671C87.0227 131.024 88.8261 131.851 92.4322 132.373C101.377 132.975 127.986 134.628 110.247 122.601C110.848 118.317 111.149 110.875 110.998 102.606C116.335 98.9985 118.29 93.8114 116.862 86.2952C123.627 86.5955 128.061 79.8304 125.656 73.2907C130.293 68.1576 129.73 59.095 122.877 57.4329ZM92.9602 41.4971C97.2449 40.0697 101.53 42.5502 103.259 47.0556C105.363 47.8075 109.347 49.0064 109.196 57.2036C109.189 57.6545 108.37 57.805 108.22 56.6771C107.543 51.3402 105.664 49.4612 103.259 48.7092C103.01 48.6179 102.782 48.4778 102.589 48.2973C102.395 48.1167 102.239 47.8993 102.131 47.6577C100.762 45.0692 99.4289 43.5229 97.3954 42.9215C94.6162 42.0198 93.2613 44.1999 92.2091 42.9215C89.1272 39.3139 84.3161 37.81 80.558 40.0651C78.604 38.7866 73.342 39.5385 71.9115 41.7936C69.5808 41.7164 75.2936 36.9824 80.0299 38.6368C84.0907 36.2359 89.3527 37.4379 92.9602 41.4971ZM56.8048 95.6148C55.9362 95.2607 55.0295 95.0083 54.1028 94.8629C53.652 91.2553 56.0575 79.8296 61.4693 75.3944C64.0044 77.7371 66.9969 79.5297 70.2586 80.6595C62.9693 83.14 52.145 85.5455 56.8048 95.6179V95.6148ZM57.0303 66.6005C57.351 69.3089 58.4475 71.867 60.1878 73.967C59.1723 74.8608 58.2643 75.8696 57.4819 76.9732C52.5959 74.4178 47.7855 69.8321 47.3338 64.9469C50.1903 60.2106 55.9803 56.7535 59.5864 57.4298C57.9327 59.312 56.6543 62.7698 57.0303 66.6036V66.6005ZM57.9327 89.5268C59.8118 85.9184 63.7954 84.2648 73.9434 81.7087C77.2507 80.8819 78.1532 81.7859 80.182 85.9184C82.7373 89.902 79.3999 89.614 76.4239 91.1048C69.509 94.5688 72.6657 107.041 79.8817 108.694C76.6493 109.972 70.711 112.753 66.7274 111.099C64.8484 110.273 62.5177 105.762 60.7135 101.177C57.4819 92.8364 57.1059 91.1835 57.9327 89.5268ZM80.0322 81.5589C77.6266 78.8522 75.1462 79.3788 72.7406 79.9053C67.5566 78.2555 62.3671 75.2447 60.1878 71.1885C58.9689 69.0955 58.4709 66.6602 58.77 64.2566C59.0692 61.8531 60.149 59.6142 61.8437 57.8838C62.0778 57.6943 62.2375 57.4283 62.2946 57.1326C62.3718 53.3737 64.0231 50.5921 65.6767 49.465C67.3312 49.9915 70.037 49.9915 72.5175 49.7661C75.0728 49.465 75.8248 48.3379 76.4262 48.4128C77.1773 48.49 76.9519 49.3145 78.9066 50.217C81.3596 51.3068 84.0517 51.7468 86.724 51.4946C89.355 51.3402 90.1123 50.3528 90.8581 50.6678C91.5405 50.9558 90.9353 52.472 92.2863 54.1256C95.7441 58.2597 102.208 60.5896 101.908 64.574C101.16 64.1457 100.347 63.841 99.5022 63.6715C98.2995 63.5217 98.2168 64.4389 99.0514 64.8743C100.117 65.4032 101.063 66.1452 101.831 67.0544C105.213 72.5426 96.4181 83.14 80.0322 81.562V81.5589ZM47.0335 54.8019C47.5593 52.5469 49.2129 50.7427 52.145 49.465C52.3361 49.3718 52.4911 49.2182 52.5862 49.028C52.6812 48.8378 52.7109 48.6216 52.6707 48.4128C51.4664 40.2403 57.1808 38.9418 66.126 38.2655C66.3849 38.2568 66.6374 38.1834 66.8605 38.0521C67.0837 37.9207 67.2705 37.7356 67.4037 37.5136C68.4935 35.7497 69.9765 34.2619 71.7369 33.1665C73.4972 32.0711 75.4872 31.3978 77.551 31.1993C80.8583 30.899 83.7903 31.8007 83.6398 32.101C83.4893 32.4013 81.4597 31.5753 78.3786 31.8007C75.9336 31.9205 73.5903 32.8158 71.6884 34.3568C70.705 35.3434 69.8921 36.4863 69.2828 37.739C68.9981 38.2922 68.5815 38.7667 68.0698 39.1207C67.5582 39.4747 66.9672 39.6972 66.3492 39.7686C65.5972 39.8458 64.9209 39.923 64.2439 39.994C56.8805 40.8957 54.7413 42.0962 54.8509 48.7131C54.8453 48.9829 54.7739 49.2472 54.6428 49.483C54.5118 49.7189 54.3251 49.9192 54.0989 50.0664C47.9352 53.2239 48.9126 57.2831 49.89 59.1622C49.3635 59.6131 48.8369 60.1388 48.3112 60.6653C47.7096 59.8268 47.2859 58.8741 47.0662 57.8657C46.8464 56.8574 46.8353 55.8147 47.0335 54.8019ZM38.8379 92.7615C37.2592 85.5455 41.3932 74.5715 45.9033 67.2081C47.181 71.4919 51.0897 75.7001 56.5022 78.5566C53.3455 83.9683 51.9921 91.1094 52.2176 94.6421C50.4484 94.5916 48.6877 94.906 47.0453 95.5655C45.4028 96.2251 43.9138 97.2158 42.6709 98.4759C41.6583 97.8555 40.7916 97.0237 40.1301 96.0375C39.4685 95.0512 39.0278 93.9338 38.8379 92.7615ZM69.3554 136.81C67.5519 137.261 67.7017 132.3 67.4763 129.969C70.3327 126.211 73.3397 122.077 82.3598 115.537C82.3621 121.701 71.4629 136.283 69.3577 136.81H69.3554ZM81.0814 114.185C72.7383 120.198 69.3554 124.332 66.722 127.865C62.6628 126.587 40.4885 113.357 41.3153 106.217C41.1609 99.2263 49.1326 93.8137 57.6262 98.0984C63.1137 111.629 64.1659 116.214 78.2226 111.327C79.2425 112.27 79.8245 112.919 81.0837 114.185H81.0814ZM79.9542 106.668C78.5245 106.193 77.2857 105.271 76.4215 104.037C76.4215 104.037 77.9246 103.736 79.278 103.435C80.6305 103.059 80.8559 101.331 78.8263 101.782C77.7134 102.04 76.583 102.216 75.4442 102.308C75.0334 101.355 74.804 100.334 74.7679 99.2973C75.8075 99.204 76.838 99.0282 77.8498 98.7716C79.4378 98.3555 79.3528 96.742 77.3989 97.1179C75.4449 97.4939 74.6197 97.568 74.6197 97.568C74.7741 95.6141 75.4465 93.6601 77.1001 92.6071C79.0541 91.4051 85.8238 91.104 82.3621 85.9177C84.1663 85.5417 87.022 88.3225 89.9541 87.7967C92.8105 90.3521 94.9899 102.304 94.3136 107.19C88.4502 108.096 83.0384 107.87 79.9566 106.665L79.9542 106.668ZM87.5516 109.599C94.241 109.599 102.661 107.945 109.199 103.886C109.277 111.478 109.05 118.245 108.448 122.227C101.232 122.377 96.1208 123.731 88.3035 126.662C87.6301 121.001 87.3787 115.297 87.5516 109.599ZM114.236 129.744C112.582 131.473 94.5421 132.224 88.7543 129.369C88.6772 129.143 88.6772 128.917 88.6 128.691C96.6427 125.685 101.754 124.256 109.196 124.181C110.676 125.657 115.602 128.27 114.233 129.744H114.236ZM113.256 98.0961C109.292 102.764 102.582 105.463 96.1942 106.743C96.5702 101.782 94.9914 91.7093 92.0601 87.4246C93.6388 86.9738 95.0709 86.6727 96.2691 86.2975C96.6552 86.1767 97.0101 85.9728 97.3089 85.7C97.6077 85.4272 97.843 85.0923 97.9984 84.7187C98.5241 83.5159 99.3517 81.7079 99.3517 81.7079C99.8774 80.5808 98.8252 79.9045 97.9984 81.1065C97.2608 82.2222 96.5833 83.3764 95.9688 84.5643C86.8737 87.498 86.7981 83.5877 81.3863 83.888C81.239 83.5717 81.0627 83.2695 80.8598 82.9856C95.7433 83.7375 101.907 77.0473 103.788 71.6371C112.73 74.7212 119.343 90.9311 113.256 98.0961ZM124.758 71.3368C124.234 72.0223 123.992 72.8829 124.082 73.7416C124.382 76.974 124.834 79.9809 122.578 82.2336C122.51 82.2998 122.421 82.3406 122.327 82.3493C122.232 82.3579 122.137 82.3338 122.058 82.2811C121.979 82.2284 121.921 82.1501 121.893 82.0594C121.864 81.9688 121.868 81.8711 121.903 81.7828C122.538 79.382 122.46 76.8481 121.677 74.4912C121.558 74.1416 121.523 73.7686 121.575 73.4029C121.627 73.0371 121.765 72.6888 121.978 72.3867C125.811 66.3735 123.857 62.1638 119.422 60.2847C119.06 60.1229 118.77 59.8357 118.604 59.4763C118.439 59.117 118.409 58.7098 118.52 58.33C120.85 49.7607 116.791 46.3785 110.252 45.1757C109.958 45.1276 109.688 44.9844 109.484 44.768C109.28 44.5517 109.153 44.2742 109.121 43.9784C108.295 37.5136 104.311 34.8077 99.9508 34.4317C98.8993 34.3545 97.546 33.7554 100.853 33.8303C106.114 33.9847 109.293 36.9338 110.55 43.9027C110.58 44.1039 110.679 44.2884 110.83 44.4253C110.98 44.5622 111.173 44.6432 111.376 44.6546C116.117 44.7674 119.72 46.5337 121.298 49.3145C122.953 51.4946 121.825 54.3511 121.073 57.2075C120.98 57.5665 121.02 57.9471 121.186 58.2788C121.352 58.6105 121.632 58.8708 121.975 59.0117C127.542 60.8158 127.989 66.907 124.756 71.3391L124.758 71.3368Z" fill="#001434"/>
<path d="M45.2292 141.019C41.0951 146.578 41.6209 150.641 45.9055 151.092C50.1901 151.543 51.7519 150.474 52.896 149.438C54.4393 147.562 55.8462 145.577 57.1058 143.5C58.0075 141.921 57.7079 141.832 56.8047 141.771C55.3031 141.671 55.3773 143.65 51.6184 148.01C50.265 149.589 47.7097 149.288 46.432 149.138C43.8759 148.837 43.5756 146.359 46.9577 141.395C47.7097 140.417 45.379 140.568 45.2292 141.019Z" fill="#001434"/>
<path d="M77.0999 58.4101C76.4935 58.2705 75.8624 58.2797 75.2603 58.4367C74.6582 58.5937 74.1031 58.8939 73.642 59.3118C72.8152 60.2135 73.9431 61.1908 74.8448 60.5894C75.0797 60.4162 75.3478 60.2934 75.6324 60.2287C75.9169 60.164 76.2118 60.1588 76.4985 60.2135C76.8667 60.2762 77.2151 60.4245 77.5155 60.6466C77.8158 60.8687 78.0598 61.1582 78.2278 61.4919C78.2786 61.6084 78.3528 61.7132 78.4459 61.7997C78.5389 61.8863 78.6488 61.9528 78.7686 61.9951C78.8884 62.0373 79.0157 62.0545 79.1425 62.0455C79.2692 62.0365 79.3928 62.0015 79.5054 61.9428C81.0394 61.0658 78.8701 58.7891 77.0999 58.4101Z" fill="#001434"/>
<path d="M76.4237 68.7829C73.7927 69.3094 75.2958 66.7541 73.6445 66.3781C72.5922 66.1519 72.3668 67.7306 71.6905 67.8812C71.3145 67.9584 71.0142 67.7268 70.6383 67.5052C69.3598 66.8289 69.21 69.4592 71.0142 69.7603C70.1866 72.3164 74.8472 73.293 74.9229 70.5871C76.7996 71.4139 78.9821 68.2572 76.4237 68.7829Z" fill="#001434"/>
<path d="M85.068 57.0568C86.5065 56.8663 87.9693 56.9946 89.3527 57.4327C90.3231 57.7531 90.8627 56.1365 89.8784 55.7791C87.0413 54.7485 83.5649 56.6059 82.3622 54.0498C81.9862 53.2986 81.3848 53.2237 81.1594 53.4492C80.4831 53.9749 80.7209 54.496 80.9339 55.0271C81.4126 56.2191 82.9635 57.2073 85.068 57.0568Z" fill="#001434"/>
<path d="M69.6586 52.9975C72.214 53.4491 72.2897 54.3509 74.2436 54.9522C75.5213 55.3282 78.6788 55.0294 77.852 53.0732C77.4011 51.9453 76.0478 53.5997 74.3941 52.9188C72.8154 52.2425 72.59 51.6411 70.0346 51.2651C68.8318 51.1941 68.4559 52.7721 69.6586 52.9975Z" fill="#001434"/>
<path d="M23.9569 71.7896C21.627 71.9402 21.9273 75.9994 24.258 76.0743C31.474 75.6227 23.3563 64.7991 22.2284 62.7695C22.1293 62.649 22.0061 62.5506 21.8666 62.4807C21.7272 62.4108 21.5746 62.3709 21.4187 62.3636C21.2629 62.3564 21.1073 62.3819 20.9619 62.4385C20.8165 62.4951 20.6846 62.5816 20.5748 62.6923C17.4929 66.2999 13.5842 66.8264 13.4337 68.1041C13.0577 70.5845 19.6731 76.3723 17.117 78.4775C16.4407 78.9284 15.3884 78.0267 15.9898 77.5002C17.117 77.8005 17.6435 75.9971 16.5156 75.696C14.0351 75.0197 12.6818 79.1538 15.4633 80.2809C18.0943 81.0329 19.5225 79.6796 19.5225 77.5789C19.5225 75.0985 17.5678 71.4901 15.7644 68.7842C17.7287 67.7496 19.5483 66.4608 21.1762 64.9512C21.2842 65.1617 21.41 65.3627 21.5521 65.5518C20.6246 66.7109 19.5058 67.7031 18.2441 68.4855C17.7932 68.7109 17.7183 69.0112 18.0187 69.462C18.996 70.891 21.627 67.8841 22.6793 67.2078C24.0326 70.0642 26.6628 73.4464 24.5583 74.1983C24.1824 74.1211 24.258 73.8972 24.258 73.6718C24.4744 73.5986 24.6579 73.4512 24.7759 73.2556C24.894 73.0601 24.939 72.829 24.9029 72.6035C24.8668 72.3779 24.752 72.1724 24.5788 72.0235C24.4057 71.8745 24.1854 71.7916 23.9569 71.7896Z" fill="#001434"/>
<path d="M139.113 32.4024C139.19 32.177 138.738 31.9515 138.511 31.8759C133.4 30.6739 131.295 26.163 129.717 27.9672C128.289 29.6208 124.53 36.6137 122.275 35.3337C121.524 34.8828 122.198 33.0787 122.802 33.8306C122.911 33.9981 123.068 34.129 123.253 34.2066C123.854 34.5825 124.53 34.1294 124.38 33.2292C124.005 30.8244 119.569 31.425 119.945 34.5076C120.246 36.9873 121.673 37.2506 123.178 37.2869C126.034 37.3587 129.867 31.8743 130.77 29.8447C132.593 31.247 134.589 32.4091 136.708 33.3025L136.256 33.9796C134.841 33.5935 133.497 32.9844 132.273 32.1754C132.189 32.0947 132.088 32.0337 131.978 31.9972C131.867 31.9606 131.75 31.9493 131.634 31.9641C131.519 31.9789 131.408 32.0195 131.311 32.0828C131.213 32.1461 131.131 32.2305 131.07 32.3298C130.318 33.6075 134.077 34.8852 135.129 35.5614C133.025 38.0427 130.995 42.0262 129.339 40.2977C129.189 39.9217 129.489 39.8461 129.714 39.7712C132.345 41.1994 131.669 36.992 128.963 38.0427C126.332 39.0193 127.46 42.7782 130.016 42.7782C133.701 42.7758 138.662 34.2066 139.113 32.4024Z" fill="#001434"/>
<path d="M62.2921 92.6869C62.5399 92.5959 62.7668 92.4558 62.959 92.2748C63.1512 92.0939 63.3048 91.8759 63.4106 91.6341C63.5164 91.3922 63.5721 91.1314 63.5744 90.8674C63.5767 90.6035 63.5256 90.3418 63.4241 90.0981C63.3225 89.8544 63.1728 89.6338 62.9837 89.4495C62.7947 89.2652 62.5703 89.1211 62.3241 89.0259C62.0779 88.9306 61.815 88.8861 61.5512 88.8952C61.2873 88.9042 61.0281 88.9666 60.789 89.0785C58.6088 90.0559 59.7367 93.7391 62.2921 92.6869Z" fill="#001434"/>
<path d="M70.8619 64.5738C71.013 64.7789 71.2332 64.9223 71.4819 64.9775C71.7305 65.0327 71.9908 64.996 72.2145 64.8741C72.507 64.7034 72.8317 64.5953 73.1682 64.5565C73.5046 64.5176 73.8455 64.5491 74.1692 64.6487C74.5036 64.6971 74.8239 64.8159 75.1089 64.9973C75.394 65.1787 75.6373 65.4185 75.8228 65.701C76.4242 66.754 77.7768 65.9264 77.251 64.7992C77.017 64.2681 76.6535 63.804 76.1939 63.4495C75.7343 63.0949 75.1932 62.8612 74.62 62.7696C72.5904 62.2431 70.259 63.5216 70.8619 64.5738Z" fill="#001434"/>
<path d="M91.0062 64.1977C91.833 65.1751 93.1106 63.5963 92.1333 62.7695C90.7051 61.5667 87.5483 59.9131 85.1428 59.7625C83.9407 59.6853 83.0383 59.6853 82.8877 60.5894C82.5874 62.5441 87.9992 61.1938 91.0062 64.1977Z" fill="#001434"/>
<path d="M46.1308 15.5681C46.0619 15.4594 45.9721 15.3654 45.8668 15.2914C45.7614 15.2175 45.6425 15.165 45.5169 15.1371C45.3912 15.1092 45.2613 15.1064 45.1345 15.1288C45.0078 15.1512 44.8867 15.1985 44.7783 15.2677C42.2978 16.6203 41.4702 14.891 40.2682 15.8691C39.3657 17.1468 42.9741 22.1077 42.8235 26.3924C42.9007 28.046 40.3431 27.5952 40.6442 26.3924C40.6442 26.3152 40.8696 26.0164 41.4702 26.0913C42.673 26.2457 42.5232 24.2871 41.3204 24.1373C37.7121 23.6865 37.5615 29.0234 41.6207 29.3986C47.4108 28.9477 43.5755 20.6795 42.5981 17.6725C44.7821 18.4245 46.8827 17.3684 46.1308 15.5681Z" fill="#001434"/>
<path d="M73.6425 74.0446C73.2354 74.1722 72.8031 74.1979 72.3838 74.1193C71.9644 74.0406 71.5708 73.8602 71.2376 73.5937C70.3352 72.7669 69.1324 74.1194 70.3352 75.3222C71.9139 76.901 74.8452 76.3745 74.8452 74.6459C74.8452 74.1194 74.169 73.8191 73.6425 74.0446Z" fill="#001434"/>
<path d="M115.285 148.686C113.104 149.137 110.006 149.464 108.821 148.686C107.6 147.886 106.34 145.303 104.461 141.695C104.16 141.094 102.506 141.169 102.506 142.147C102.506 142.823 104.987 147.183 106.566 149.212C107.843 150.866 109.046 151.467 113.255 151.242C119.72 150.866 118.968 147.408 114.608 140.793C114.458 140.192 113.556 140.117 113.03 140.343C111.676 140.869 117.841 148.16 115.285 148.686Z" fill="#001434"/>
<path d="M71.3123 56.6808C70.0347 55.2534 65.8998 55.1777 64.6229 55.4811C63.4209 55.7815 63.2703 57.4351 64.5457 57.2853C67.1018 56.9086 68.3038 57.3625 70.3357 58.1114C70.5237 58.1912 70.7335 58.2035 70.9294 58.1461C71.1254 58.0886 71.2954 57.9651 71.4105 57.7965C71.5256 57.6278 71.5787 57.4245 71.5609 57.2211C71.543 57.0177 71.4551 56.8268 71.3123 56.6808Z" fill="#001434"/>
</svg>
