<svg width="154" height="154" viewBox="0 0 154 154" fill="none" xmlns="http://www.w3.org/2000/svg">
<path d="M110.154 82.4412C110.139 82.3398 110.093 82.2455 110.023 82.1717C109.952 82.0979 109.859 82.0483 109.759 82.03C109.658 82.0117 109.554 82.0256 109.461 82.0697C109.369 82.1138 109.293 82.1859 109.244 82.2758C108.114 83.6733 107.112 85.17 106.251 86.7475C99.4476 78.752 91.3549 76.265 80.7783 75.4013C82.3028 73.5636 83.0333 72.1486 84.7599 69.9166C84.8589 69.787 84.9168 69.6308 84.9261 69.468C84.9355 69.3053 84.8959 69.1434 84.8124 69.0034C84.7289 68.8633 84.6055 68.7515 84.4579 68.6823C84.3103 68.613 84.1453 68.5896 83.9843 68.6149C80.8946 69.2055 77.9283 70.319 75.2132 71.9074C75.117 71.9565 75.0322 72.0254 74.9645 72.1095C74.8968 72.1937 74.8477 72.2912 74.8203 72.3957C74.793 72.5002 74.7881 72.6093 74.8059 72.7159C74.8237 72.8224 74.8639 72.924 74.9237 73.0139C75.3248 73.5797 75.7938 74.094 76.3204 74.5453C76.8773 75.0258 77.4875 75.4409 78.1389 75.7826C77.5809 76.6423 77.0472 77.5176 76.5386 78.4074C76.4789 78.5173 76.445 78.6394 76.4395 78.7643C76.434 78.8892 76.457 79.0137 76.5068 79.1284C76.5567 79.2431 76.632 79.345 76.727 79.4262C76.8221 79.5075 76.9344 79.566 77.0555 79.5973C82.3487 80.9082 83.2339 86.0836 83.5095 91.5124C83.5823 92.7222 84.482 104.813 84.7507 109.654C84.7575 109.786 84.7968 109.914 84.8651 110.028C84.9335 110.141 85.0287 110.235 85.1423 110.303C85.256 110.37 85.3845 110.409 85.5166 110.415C85.6487 110.42 85.7801 110.394 85.8993 110.336C88.3717 109.199 91.0915 108.516 93.6153 107.44C96.58 106.186 98.7791 104.752 102.191 99.9726C104.358 96.8288 106.31 93.5426 108.035 90.1364C108.09 90.0014 108.094 89.8507 108.046 89.713H108.128C107.997 89.3947 107.848 89.084 107.682 88.7827C108.668 88.7513 109.967 88.5905 111.051 88.5377C111.259 88.5246 111.454 88.4328 111.596 88.281C111.738 88.1291 111.817 87.9287 111.817 87.7207C111.878 85.823 111.291 83.9611 110.154 82.4412Z" fill="#191919"/>
<path d="M119.733 43.1049C117.499 44.1294 114.686 45.474 112.153 45.1723C108.926 44.7894 107.099 42.1929 108.895 39.235C104.85 38.2526 100.517 38.6355 96.4413 39.1523C88.3358 40.164 80.5045 42.7428 73.3838 46.745C77.3884 49.9998 80.4205 54.2935 82.148 59.1562C79.4792 63.4639 77.2024 68.0022 75.3448 72.7168C78.4405 70.7951 81.9513 69.6425 85.5837 69.3554C96.7958 68.8071 108.659 77.1334 111.141 88.3034C112.6 85.7766 114.172 83.3263 115.693 80.8363C116.664 79.2436 117.482 77.5262 118.598 76.0269C116.406 73.203 116.065 69.4174 115.868 65.9733C115.394 58.1554 116.717 50.3329 119.733 43.1049ZM99.9521 41.7572C99.2078 41.892 98.4207 42.0574 97.5945 42.2228C94.2721 42.9004 88.9076 43.3782 82.0691 46.4012C81.0023 46.8542 79.9628 47.3688 78.9558 47.9426C78.8512 48.0182 78.7211 48.0497 78.5935 48.0304C78.4659 48.0111 78.351 47.9424 78.2736 47.8392C78.2348 47.7878 78.2067 47.7292 78.1909 47.6669C78.1751 47.6045 78.1719 47.5396 78.1816 47.476C78.1912 47.4123 78.2134 47.3513 78.247 47.2964C78.2805 47.2415 78.3247 47.1938 78.3769 47.1562C82.076 43.8269 89.1832 41.9632 94.1289 41.2197C96.037 40.8855 97.9798 40.7949 99.9107 40.9502C100.016 40.9484 100.117 40.9874 100.194 41.059C100.27 41.1305 100.316 41.229 100.321 41.3337C100.327 41.4384 100.291 41.5411 100.222 41.6201C100.153 41.6991 100.056 41.7483 99.9521 41.7572Z" fill="#38A1FF"/>
<path d="M119.03 23.9087C119.444 24.0328 119.62 24.653 119.433 25.3046C119.246 25.9562 118.751 26.3766 118.337 26.2663C117.924 26.156 117.748 25.5113 117.944 24.8597C118.14 24.2081 118.616 23.7885 119.03 23.9087Z" fill="#191919"/>
<path d="M144.479 67.164C145.628 61.8577 143.465 56.4174 140.352 52.1976C138.997 50.36 136.141 48.216 133.671 48.5054C133.803 53.5608 133.651 58.6196 133.216 63.6579C136.908 63.2337 141.573 64.5989 144.22 67.2881L144.479 67.164Z" fill="#38A1FF"/>
<path d="M113.409 31.1453C113.311 32.581 114.934 33.2127 116.337 32.1797C116.641 31.9726 116.895 31.7007 117.082 31.3834C117.134 31.308 117.172 31.224 117.195 31.1353C117.249 30.9098 117.263 30.6766 117.236 30.4462C117.26 30.3963 117.273 30.3421 117.275 30.2871C117.277 30.232 117.268 30.1771 117.248 30.1256C117.228 30.0742 117.198 30.0272 117.16 29.9875C117.122 29.9479 117.076 29.9163 117.025 29.8948C116.974 29.8732 116.92 29.8621 116.865 29.8621C116.81 29.862 116.755 29.8731 116.704 29.8946C116.654 29.9162 116.608 29.9477 116.569 29.9873C116.531 30.027 116.501 30.0739 116.481 30.1254C116.389 30.1973 116.316 30.1874 116.213 30.2594C116.144 30.2784 116.078 30.3065 116.016 30.3428C115.965 30.3699 115.917 30.4008 115.871 30.4355C115.622 30.712 115.31 30.9249 114.962 31.0565C114.924 31.0721 114.883 31.0774 114.842 31.0719C114.802 31.0664 114.764 31.0502 114.732 31.0251C114.69 30.9837 114.628 30.9944 114.579 30.9531C114.493 30.9102 114.41 30.8616 114.331 30.8076C114.309 30.7463 114.276 30.69 114.232 30.6417C114.189 30.5934 114.136 30.5542 114.078 30.5264C114.019 30.4986 113.955 30.4826 113.89 30.4795C113.826 30.4764 113.761 30.4861 113.7 30.5082C113.578 30.5556 113.479 30.6487 113.425 30.7677C113.371 30.8868 113.365 31.0222 113.409 31.1453Z" fill="#191919"/>
<path d="M112.422 27.1974C112.946 27.3796 113.423 27.6765 113.818 28.0664C113.918 28.1093 113.997 28.1888 114.04 28.2886C114.083 28.3883 114.086 28.5007 114.048 28.6024C114.007 28.7038 113.928 28.7848 113.827 28.8278C113.727 28.8709 113.613 28.8724 113.512 28.8321C113.17 28.8015 112.87 28.8222 112.53 28.7808C111.84 28.6721 111.131 28.5963 110.781 28.0358C110.432 27.4753 110.894 26.7341 111.236 26.1016C112.651 23.5136 113.325 23.182 114.069 22.6682C114.113 22.6207 114.167 22.5823 114.226 22.5552C114.285 22.5282 114.348 22.513 114.413 22.5106C114.478 22.5082 114.543 22.5186 114.603 22.5411C114.664 22.5637 114.72 22.5981 114.768 22.6422C114.815 22.6863 114.854 22.7394 114.881 22.7984C114.908 22.8574 114.923 22.9211 114.925 22.986C114.928 23.0508 114.917 23.1155 114.895 23.1763C114.872 23.2372 114.838 23.293 114.794 23.3405C114.7 23.5082 114.411 24.1399 114.204 24.4577C113.259 25.8781 112.618 26.947 112.422 27.1974Z" fill="#191919"/>
<path d="M132.648 25.1981C132.659 25.9733 132.608 26.7481 132.494 27.5151C132.435 28.7708 132.501 29.022 132.774 29.1185C133.229 29.2716 133.805 28.1782 133.942 27.8666C134.476 26.0814 134.392 24.1687 133.705 22.437C133.547 22.0809 132.895 20.9645 132.37 21.2264C131.674 21.5579 132.577 23.3956 132.648 25.1981Z" fill="#191919"/>
<path d="M136.71 24.5542C136.696 25.5068 136.589 26.4557 136.389 27.3873C136.377 27.4638 136.131 29.0504 136.504 29.2181C136.98 29.408 137.664 28.1591 137.827 27.8008C138.532 26.0971 138.555 22.937 137.621 21.2433C137.373 20.7709 136.585 19.5833 136.038 19.9416C135.35 20.3758 136.668 21.9217 136.71 24.5542Z" fill="#191919"/>
<path d="M139.922 26.2923C139.911 28.9338 139.019 31.496 137.389 33.5741C135.766 35.5726 133.589 36.7135 132.817 39.5313C130.541 47.6768 130.616 57.5681 131.183 66.0092C131.255 66.951 131.327 67.8813 131.389 68.8124C131.391 68.9188 131.435 69.0203 131.51 69.0956C131.585 69.1708 131.687 69.214 131.793 69.2159C131.903 69.2155 132.008 69.1718 132.085 69.0942C132.163 69.0166 132.207 68.9114 132.207 68.8017C132.774 58.5934 131.771 49.3177 134.379 39.9662C135.012 37.6178 136.991 36.555 138.609 34.5466C140.382 32.1641 141.201 29.2058 140.906 26.251C140.904 26.1868 140.89 26.1237 140.863 26.0654C140.837 26.007 140.798 25.9546 140.751 25.9112C140.704 25.8678 140.648 25.8343 140.588 25.8127C140.528 25.7911 140.463 25.7818 140.399 25.7854C140.27 25.7912 140.147 25.8474 140.058 25.942C139.969 26.0367 139.92 26.1624 139.922 26.2923Z" fill="#191919"/>
<path d="M143.89 68.1924C143.781 68.1834 143.674 68.2175 143.591 68.2871C143.507 68.3568 143.455 68.4564 143.445 68.5645C143.096 71.6543 141.588 74.4967 139.225 76.5178C134.346 80.7866 126.897 81.1779 123.255 78.39C121.457 76.9306 120.135 74.9682 119.459 72.7537C115.592 61.7146 118.779 50.1471 123.504 39.4901C125.724 34.3699 131.691 30.5544 129.916 23.6968C129.903 23.6333 129.876 23.5732 129.839 23.52C129.802 23.4668 129.754 23.4215 129.7 23.3868C129.645 23.3521 129.583 23.3287 129.519 23.3179C129.455 23.3071 129.39 23.3091 129.327 23.3239C129.2 23.3535 129.089 23.4319 129.019 23.5422C128.95 23.6526 128.926 23.7859 128.954 23.9135C128.994 24.0881 129.027 24.2603 129.054 24.4303C128.326 24.4131 127.603 24.5434 126.927 24.8131C126.25 25.0829 125.636 25.4866 125.12 26C123.129 27.8599 122.268 30.631 122.566 32.2787C122.642 32.8429 122.89 33.37 123.276 33.7889C123.661 34.2079 124.166 34.4986 124.722 34.6218C123.685 35.93 122.794 37.3478 122.066 38.85C117.095 50.0078 113.897 61.8608 117.918 73.2912C119.395 77.5791 122.109 80.6419 126.564 81.4934C134.461 83.0837 143.708 77.8027 144.261 68.6365C144.266 68.5829 144.26 68.5288 144.245 68.4773C144.229 68.4259 144.203 68.3781 144.168 68.3368C144.134 68.2955 144.091 68.2614 144.043 68.2366C143.995 68.2118 143.943 68.1968 143.89 68.1924Z" fill="#191919"/>
<path d="M124.318 10.2985C125.01 10.3113 125.697 10.4048 126.367 10.5772C127.891 10.8644 129.247 11.7276 130.152 12.9876C131.069 14.2882 131.609 15.8164 131.713 17.4042C131.817 18.1063 131.872 18.8147 131.879 19.5244C131.86 19.6314 131.884 19.7417 131.946 19.8309C132.008 19.9202 132.103 19.9811 132.21 20.0003C132.317 20.0195 132.427 19.9954 132.517 19.9333C132.606 19.8711 132.667 19.7761 132.686 19.6691C132.986 18.9278 133.157 18.141 133.193 17.3421C133.214 15.4273 132.611 13.5576 131.476 12.0152C130.908 11.2187 130.182 10.5471 129.344 10.0419C128.506 9.53671 127.574 9.20865 126.604 9.07795C125.794 9.00823 124.977 9.08923 124.197 9.31685C124.072 9.33966 123.961 9.40914 123.887 9.51106C123.812 9.61299 123.779 9.73964 123.794 9.8651C123.81 9.99056 123.873 10.1053 123.97 10.1859C124.068 10.2665 124.192 10.3067 124.318 10.2985Z" fill="#191919"/>
<path d="M97.8904 16.3014C98.0581 14.4094 98.0182 12.8489 98.0328 12.1751C98.0363 11.9972 97.9802 11.8233 97.8735 11.681C97.7668 11.5387 97.6156 11.4361 97.444 11.3895C93.156 10.3313 92.0374 10.1766 89.5519 9.55869C89.4304 9.52946 89.3039 9.52832 89.1819 9.55535C89.0599 9.58238 88.9457 9.63688 88.848 9.7147C88.7502 9.79251 88.6715 9.8916 88.6178 10.0044C88.5641 10.1172 88.5369 10.2408 88.5381 10.3657C88.6024 12.7624 88.7525 15.1414 88.921 16.9286C85.7533 15.8282 83.826 18.9263 85.4791 21.1177C85.7107 21.4187 85.9995 21.6709 86.3288 21.8599C86.6582 22.049 87.0217 22.171 87.3983 22.2191C87.775 22.2672 88.1575 22.2404 88.5238 22.1402C88.8901 22.04 89.233 21.8684 89.5328 21.6353C90.0518 21.2365 90.4161 20.6697 90.5632 20.0319C90.7103 19.3941 90.631 18.7249 90.339 18.1391C90.4066 15.8847 90.3581 13.6282 90.1936 11.3788L96.4508 12.806C96.4876 13.7632 96.5113 14.3627 96.6155 15.2877C95.9549 15.1126 95.262 15.0984 94.5948 15.2463C94.1701 15.3689 93.7916 15.6155 93.5079 15.9545C93.2242 16.2935 93.0481 16.7094 93.0021 17.1491C92.9463 17.5548 92.9871 17.968 93.121 18.3551C93.2549 18.7421 93.4783 19.0921 93.7729 19.3766C94.0675 19.6611 94.4251 19.872 94.8166 19.9923C95.2081 20.1126 95.6225 20.1388 96.026 20.0689C96.4296 19.9989 96.8109 19.8347 97.1391 19.5896C97.4672 19.3445 97.7329 19.0255 97.9146 18.6584C98.0962 18.2913 98.1887 17.8866 98.1845 17.477C98.1803 17.0675 98.0795 16.6647 97.8904 16.3014Z" fill="#191919"/>
<path d="M136.148 92.6044C136.131 92.4997 136.075 92.4055 135.99 92.3418C135.906 92.2782 135.799 92.2501 135.694 92.2636C135.589 92.277 135.494 92.331 135.428 92.4139C135.362 92.4969 135.331 92.6023 135.341 92.7077C135.311 93.3225 135.127 93.9198 134.805 94.4451C134.772 94.5253 134.722 94.598 134.66 94.6589C134.598 94.7197 134.524 94.7674 134.443 94.7992C134.362 94.8311 134.275 94.8464 134.188 94.8442C134.101 94.842 134.016 94.8224 133.936 94.7866C133.414 94.5944 132.926 93.8065 132.396 93.3494C131.164 92.2851 129.467 92.3938 128 93.38C127.87 93.4713 127.769 93.5976 127.709 93.7442C127.648 93.8908 127.631 94.0516 127.658 94.2077C128.042 96.1878 128.575 98.1358 129.255 100.035C128.759 99.8775 128.234 99.8312 127.718 99.8991C127.202 99.967 126.707 100.147 126.269 100.428C125.904 100.683 125.595 101.011 125.362 101.39C125.129 101.769 124.975 102.192 124.911 102.633C124.847 103.074 124.874 103.523 124.99 103.953C125.107 104.383 125.309 104.785 125.586 105.133C125.859 105.491 126.2 105.791 126.59 106.016C126.98 106.242 127.41 106.387 127.856 106.445C128.302 106.503 128.756 106.471 129.19 106.353C129.624 106.234 130.03 106.031 130.385 105.754C130.739 105.483 131.034 105.143 131.254 104.755C131.473 104.368 131.613 103.94 131.664 103.497C131.715 103.054 131.677 102.606 131.551 102.178C131.426 101.75 131.216 101.352 130.933 101.007C130.801 100.862 130.937 101.107 130.515 99.2238C130.394 98.6304 129.727 96.194 129.377 94.4665C131.548 93.465 131.694 95.7682 133.443 96.2966C135.737 96.9696 136.693 94.576 136.148 92.6044Z" fill="#191919"/>
<path d="M73.6979 54.5919C72.0471 53.9234 70.6098 52.1669 69.6879 50.6638C69.7645 50.621 72.0662 49.209 72.1435 49.1608C72.4123 48.9931 73.2354 48.2932 73.0126 47.8476C72.7775 47.3974 71.8893 47.6095 71.4192 47.7856C70.5304 48.1942 69.684 48.6895 68.8924 49.2641C66.0868 44.0535 63.874 39.3322 58.5041 38.1982C58.379 38.1615 58.2445 38.1757 58.1298 38.2376C58.0151 38.2996 57.9295 38.4043 57.8916 38.529C57.8544 38.6552 57.8682 38.791 57.9301 38.9071C57.9919 39.0232 58.0969 39.1104 58.2223 39.15C59.3496 39.6155 60.3914 40.2656 61.3051 41.0734C67.0555 45.7932 67.3296 54.4464 73.4797 55.3783C73.5832 55.4049 73.6931 55.3898 73.7856 55.3363C73.8782 55.2828 73.9461 55.1952 73.9746 55.0921C74.0032 54.9891 73.9903 54.879 73.9385 54.7855C73.8868 54.6919 73.8004 54.6224 73.6979 54.5919Z" fill="#191919"/>
<path d="M53.8285 52.6793C54.0867 54.7141 54.5859 56.711 55.3155 58.628C57.8423 64.5553 62.6134 69.0806 69.03 69.282C71.6839 69.282 73.0461 68.6694 75.3906 67.8233C75.4914 67.7915 75.5759 67.7219 75.6263 67.6291C75.6768 67.5363 75.6893 67.4275 75.6613 67.3257C75.6332 67.2238 75.5667 67.1368 75.4758 67.083C75.385 67.0291 75.2767 67.0126 75.1739 67.0369C70.092 67.9749 66.0031 68.429 61.6142 64.7192C57.7903 61.5032 56.2696 57.2352 54.7879 52.4419C54.7565 52.3143 54.6756 52.2044 54.5631 52.1364C54.4506 52.0684 54.3156 52.0479 54.188 52.0794C54.0604 52.1108 53.9505 52.1917 53.8825 52.3042C53.8145 52.4167 53.794 52.5516 53.8255 52.6793H53.8285Z" fill="#191919"/>
<path d="M82.5334 114.591C82.5987 114.502 82.6336 114.395 82.6329 114.284C82.7823 105.919 82.0089 97.5632 80.3266 89.3677C79.2753 84.4611 76.0708 79.7628 71.3181 81.445C65.6045 83.5032 64.2086 89.599 64.9881 95.6457C66.4169 106.419 68.7599 116.724 70.521 127.38C70.5495 127.557 70.6379 127.72 70.7714 127.84C69.858 132.349 71.7071 135.14 73.9874 135.886C74.4629 136.037 74.9653 136.085 75.461 136.027C75.9566 135.969 76.4342 135.805 76.8617 135.548C77.2893 135.291 77.657 134.945 77.9404 134.534C78.2238 134.123 78.4162 133.657 78.505 133.166C78.8358 131.852 78.6183 130.269 78.8672 129.039C79.3473 126.682 81.3128 124.953 82.1865 120.999C82.7059 118.904 82.8236 116.729 82.5334 114.591ZM79.7577 123.243C78.1249 123.293 76.4988 123.476 74.8955 123.789C72.7653 124.371 73.0907 125.49 75.1436 125.32C75.3572 125.32 75.763 125.215 78.907 124.915C78.4827 125.646 78.1012 126.4 77.7646 127.176C76.6454 127.163 75.5273 127.246 74.4223 127.424C73.7975 127.528 72.6084 127.976 72.7155 128.51C72.8243 129.077 74.1704 129.046 74.247 129.037C74.4552 129.037 75.7056 128.884 77.2646 128.801C76.9629 130.539 77.4713 132.87 76.361 133.931C76.1198 134.181 75.8136 134.357 75.4772 134.441C75.1408 134.525 74.7876 134.513 74.4575 134.407C72.616 133.881 71.8005 131.709 71.6964 129.794C71.6662 129.165 71.6867 128.534 71.7577 127.908C71.9291 127.789 72.0466 127.607 72.0846 127.402C72.8021 123.573 72.4077 124.798 73.1137 122.068C73.7753 119.541 75.028 115.083 76.4751 112.946C76.769 112.539 77.0938 112.155 77.4468 111.797C78.43 110.837 79.2546 111.13 80.002 112.284C81.8052 115.105 81.0586 120.241 79.7577 123.243Z" fill="#191919"/>
<path d="M65.948 122.174C65.5009 115.806 63.7091 109.965 63.445 103.681C63.4369 103.521 63.3803 103.367 63.2828 103.239C63.1852 103.112 63.0513 103.018 62.8987 102.968C62.7462 102.919 62.5822 102.917 62.4285 102.963C62.2749 103.009 62.1388 103.1 62.0384 103.225C58.6187 107.585 56.6341 108.115 49.7305 118.223C47.1447 121.998 44.745 125.866 42.2933 129.745C42.2464 129.827 42.2129 129.916 42.1937 130.009C41.6126 128.902 40.4433 126.716 39.7902 125.631C37.6393 122.001 33.2664 117.475 29.9961 120.046L29.9341 120.108C28.2542 121.521 28.1485 123.86 28.444 126.014C29.3774 132.424 35.5574 134.467 36.8507 140.742C36.8491 140.81 36.863 140.878 36.8912 140.94C37.2664 142.843 37.4272 144.786 38.5184 146.503C40.0789 148.954 43.3063 150.391 45.8691 148.706C48.2971 147.126 47.7274 143.832 46.9242 141.063C45.853 137.554 44.4298 134.162 42.6761 130.939C42.6983 130.948 42.7221 130.957 42.7458 130.965C44.2152 131.442 45.5725 132.212 46.7355 133.229C47.8985 134.246 48.8429 135.488 49.5115 136.881C48.7155 137.829 48.0715 138.896 47.6026 140.042C47.5559 140.195 47.281 141.275 47.7473 141.49C48.2137 141.704 48.9104 140.837 49.1026 140.486C49.3117 140.168 50.1241 138.738 50.1685 138.66C50.397 139.509 50.5093 140.385 50.5023 141.264C50.5 141.461 50.5704 141.652 50.7002 141.801C50.8299 141.95 51.0099 142.045 51.2057 142.07C51.4015 142.094 51.5994 142.045 51.7617 141.933C51.9239 141.821 52.039 141.652 52.085 141.461C52.6823 138.865 54.206 136.437 55.6739 134.148C57.69 130.928 63.0667 125.189 65.7275 122.522V122.574C65.7784 122.521 65.8169 122.457 65.8402 122.388C65.8635 122.318 65.871 122.244 65.8623 122.171L65.948 122.174ZM45.3553 141.508C45.9074 143.434 46.6233 146.235 44.9617 147.352C43.2381 148.48 41.0084 147.359 39.8936 145.634C39.1788 144.269 38.7298 142.78 38.5704 141.247C38.6271 141.236 41.2397 140.647 41.2596 140.642C41.67 140.547 42.4755 140.121 42.4119 139.633C42.356 139.201 41.5812 139.097 41.3001 139.081C40.2618 139.156 39.2369 139.36 38.2488 139.688C38.089 138.985 37.8533 138.302 37.5459 137.65C36.8897 136.276 36.7534 136.461 37.0245 136.408C38.9847 135.995 39.4441 135.983 39.9517 135.859C40.3874 135.766 41.1501 135.261 41.1355 134.946C41.1141 134.474 40.0704 134.312 39.9931 134.308C38.6189 134.355 37.2619 134.628 35.977 135.117C33.6983 132.098 30.464 129.608 29.7473 125.797C28.9119 121.411 30.8575 120.884 31.0091 120.429C33.1707 119.587 35.6799 122.196 37.0291 124.091C38.3085 126.012 39.4525 128.02 40.4525 130.1C42.4691 133.727 44.1118 137.549 45.3553 141.508Z" fill="#191919"/>
<path d="M83.1985 58.2957C83.8608 57.4419 83.9642 57.422 84.4918 56.6303C85.49 55.0692 86.5779 53.5671 87.7498 52.1318C88.6166 51.0545 88.2131 49.7941 87.991 48.167C87.9877 48.0505 87.9435 47.9389 87.8661 47.8518C87.7887 47.7647 87.683 47.7077 87.5677 47.6908C87.4524 47.6739 87.3348 47.6982 87.2357 47.7593C87.1365 47.8205 87.0621 47.9147 87.0255 48.0254C86.4826 49.7267 86.9106 50.6532 86.5086 51.0882C85.4819 52.3095 84.5384 53.5985 83.6847 54.9465C83.087 55.8276 82.6331 56.7981 82.3402 57.8217C82.3068 57.8782 82.2851 57.9408 82.2764 58.0058C82.2676 58.0708 82.272 58.1369 82.2892 58.2002C82.3064 58.2635 82.3362 58.3227 82.3767 58.3743C82.4171 58.4259 82.4676 58.4688 82.5249 58.5006C82.5823 58.5324 82.6455 58.5524 82.7107 58.5593C82.7759 58.5663 82.8419 58.5601 82.9047 58.5411C82.9675 58.5222 83.0258 58.4908 83.0763 58.4489C83.1267 58.407 83.1683 58.3554 83.1985 58.2972V58.2957Z" fill="#191919"/>
<path d="M32.2262 54.8216C34.3341 55.0375 35.7438 54.99 41.9176 54.1593C43.1001 54.0314 44.2742 53.8346 45.4337 53.5697C45.9613 53.4357 46.4582 53.2703 46.985 53.1256C47.0383 53.1209 47.0901 53.1056 47.1374 53.0805C47.1847 53.0555 47.2264 53.0212 47.2602 52.9797C47.294 52.9382 47.3191 52.8904 47.334 52.839C47.349 52.7877 47.3534 52.7338 47.3472 52.6807C47.3347 52.5743 47.2812 52.477 47.1982 52.4094C47.1151 52.3418 47.009 52.3092 46.9023 52.3185C44.3855 52.1906 45.0646 52.1439 40.6037 52.6906C30.8885 53.9158 37.0899 52.9885 32.1848 53.8491C32.1194 53.8495 32.0547 53.8631 31.9946 53.8891C31.9345 53.915 31.8802 53.9528 31.8351 54.0002C31.7899 54.0476 31.7548 54.1036 31.7318 54.1649C31.7088 54.2261 31.6983 54.2914 31.7011 54.3568C31.7039 54.4222 31.7198 54.4864 31.748 54.5455C31.7761 54.6046 31.8159 54.6574 31.8649 54.7008C31.9139 54.7441 31.9711 54.7772 32.0332 54.798C32.0953 54.8187 32.1609 54.8268 32.2262 54.8216Z" fill="#38A1FF"/>
<path d="M21.0851 62.7404C22.4472 62.8573 23.8147 62.902 25.1816 62.8744C30.3317 62.7565 47.929 60.5045 48.0079 60.4953C48.1148 60.4925 48.2163 60.4474 48.2901 60.3699C48.3638 60.2924 48.4039 60.1888 48.4014 60.0819C48.4007 60.0287 48.3894 59.9761 48.3681 59.9273C48.3468 59.8786 48.3159 59.8346 48.2773 59.798C48.2386 59.7614 48.1931 59.7329 48.1432 59.7141C48.0934 59.6954 48.0404 59.6869 47.9872 59.6891C46.1749 59.5267 44.3529 59.5024 42.5369 59.6163C39.4695 59.8055 26.8569 61.369 21.0851 61.7603C20.9551 61.7627 20.8313 61.8162 20.7404 61.9092C20.6496 62.0022 20.599 62.1272 20.5996 62.2572C20.6002 62.3856 20.6516 62.5085 20.7426 62.599C20.8336 62.6895 20.9567 62.7404 21.0851 62.7404Z" fill="#38A1FF"/>
<path d="M32.5501 68.0537C36.6772 67.9006 36.8993 67.4526 43.0892 66.8539C44.1997 66.7641 45.3024 66.5947 46.3886 66.347C46.4437 66.3499 46.4987 66.3417 46.5505 66.3229C46.6023 66.304 46.6498 66.2748 46.69 66.2372C46.7303 66.1995 46.7625 66.1541 46.7847 66.1036C46.8069 66.0532 46.8187 65.9988 46.8194 65.9437C46.8201 65.8885 46.8096 65.8339 46.7886 65.7829C46.7676 65.7319 46.7365 65.6857 46.6972 65.6471C46.6579 65.6084 46.6112 65.5781 46.5598 65.558C46.5085 65.5379 46.4537 65.5284 46.3986 65.53C44.5177 65.1702 42.5874 65.1525 40.7002 65.4779C34.8043 66.1295 33.3832 66.7796 32.384 67.0912C32.2566 67.1123 32.1427 67.1829 32.0673 67.2876C31.9918 67.3924 31.9609 67.5227 31.9812 67.6502C32.0044 67.7785 32.077 67.8926 32.1833 67.968C32.2897 68.0435 32.4214 68.0742 32.5501 68.0537Z" fill="#38A1FF"/>
<path d="M38.7262 33.8139C38.6366 33.7764 37.923 33.3759 34.8479 31.9762C32.2338 30.7695 27.4482 28.9034 27.5255 28.9356C27.3981 28.8857 27.2601 28.8691 27.1245 28.8873C26.9889 28.9055 26.8602 28.958 26.7505 29.0397C26.6408 29.1215 26.5537 29.2298 26.4975 29.3545C26.4412 29.4793 26.4177 29.6163 26.4291 29.7526L27.3594 40.6125C27.3702 40.7495 27.416 40.8814 27.4924 40.9956C27.5689 41.1098 27.6733 41.2025 27.7958 41.2647C27.9183 41.327 28.0547 41.3567 28.192 41.3511C28.3293 41.3455 28.4629 41.3048 28.5799 41.2327C34.1956 37.8154 36.7729 36.0497 38.8089 34.6133C38.8833 34.5714 38.9439 34.5087 38.9832 34.4329C39.0224 34.357 39.0387 34.2714 39.0299 34.1864C39.0211 34.1015 38.9877 34.021 38.9337 33.9548C38.8798 33.8886 38.8076 33.8396 38.7262 33.8139Z" fill="#38A1FF"/>
<path d="M22.0308 41.0674L21.1204 30.2075C21.1078 30.0702 21.0605 29.9385 20.9829 29.8246C20.9053 29.7106 20.8001 29.6183 20.677 29.5563C20.554 29.4943 20.4172 29.4646 20.2795 29.47C20.1418 29.4754 20.0077 29.5157 19.8899 29.5872C15.2191 32.4043 13.2137 33.7366 10.2987 35.8507C9.76274 30.5084 9.8439 31.6975 9.43731 29.735C9.42586 29.6072 9.36495 29.4889 9.26756 29.4053C9.17017 29.3218 9.04399 29.2795 8.91591 29.2876C8.78783 29.2957 8.66798 29.3535 8.58187 29.4486C8.49576 29.5438 8.45021 29.6688 8.45492 29.797C8.32179 30.927 8.31486 32.0683 8.43425 33.1998C8.48096 33.8055 9.02843 39.8224 9.25125 41.0191C9.38065 41.6749 9.54293 42.3238 9.73747 42.9633C9.74048 43.017 9.75415 43.0697 9.77767 43.1181C9.8012 43.1665 9.83411 43.2098 9.8745 43.2455C9.91489 43.2811 9.96196 43.3083 10.013 43.3256C10.064 43.3429 10.1179 43.3498 10.1716 43.3461C10.2779 43.3362 10.3761 43.2853 10.4455 43.2043C10.5149 43.1233 10.5502 43.0185 10.5438 42.912C10.7375 41.3139 10.8271 40.99 10.4634 37.4188C13.02 38.6148 15.0576 39.5628 20.945 41.8744C21.071 41.9253 21.2079 41.9429 21.3426 41.9255C21.4773 41.9082 21.6053 41.8566 21.7143 41.7755C21.8234 41.6945 21.9097 41.5868 21.9651 41.4628C22.0205 41.3388 22.0431 41.2026 22.0308 41.0674Z" fill="#38A1FF"/>
<path d="M55.2903 35.2083C55.2658 34.7963 54.8952 29.8177 54.7941 28.7649C54.7092 27.8406 54.5536 26.9242 54.3286 26.0237C54.3255 25.9591 54.3096 25.8958 54.2819 25.8374C54.2541 25.7789 54.2151 25.7266 54.1671 25.6833C54.119 25.64 54.0629 25.6067 54.0019 25.5852C53.9409 25.5637 53.8763 25.5545 53.8117 25.5581C53.684 25.5698 53.5656 25.63 53.4809 25.7262C53.3961 25.8225 53.3515 25.9476 53.3561 26.0758C53.2482 27.5643 53.082 27.5306 53.4243 32.1049C50.3332 30.6033 47.703 29.4288 43.0391 27.6171C42.9112 27.5677 42.7728 27.5513 42.6368 27.5696C42.5009 27.5878 42.3718 27.6401 42.2614 27.7216C42.1511 27.8031 42.0631 27.9111 42.0056 28.0357C41.9481 28.1602 41.9231 28.2973 41.9327 28.4341L42.8638 39.2917C42.875 39.4285 42.9211 39.5602 42.9976 39.6741C43.0741 39.788 43.1785 39.8805 43.3008 39.9427C43.4232 40.0049 43.5594 40.0347 43.6966 40.0293C43.8337 40.0239 43.9672 39.9835 44.0843 39.912C50.5123 35.9127 50.2995 36.0835 53.5583 33.82C53.5988 35.6619 53.8857 37.49 54.4113 39.2557C54.4195 39.3641 54.4704 39.4647 54.5529 39.5355C54.6353 39.6063 54.7425 39.6415 54.8508 39.6332C54.9591 39.625 55.0598 39.5741 55.1306 39.4917C55.2014 39.4092 55.2365 39.3021 55.2283 39.1937C55.4316 37.8744 55.4525 36.5333 55.2903 35.2083Z" fill="#38A1FF"/>
<path d="M50.3501 43.8415C50.2465 43.8782 50.1487 43.9298 50.0599 43.9947C49.7884 44.1998 49.56 44.4563 49.3876 44.7497C48.4803 46.216 48.8915 48.1731 49.7912 48.7727C50.0415 48.9212 50.7866 49.3584 51.0431 49.0207C51.2644 48.752 51.0538 48.6272 50.8769 48.1417C50.5316 47.2436 50.2644 46.304 50.8356 45.4426C51.3524 44.6302 51.9275 44.3232 51.7154 43.8599C51.5025 43.4173 50.8425 43.6287 50.3501 43.8415Z" fill="#191919"/>
<path d="M53.8867 41.9356C52.399 42.4318 51.8622 45.3353 53.1838 46.683C53.2911 46.8119 53.4208 46.9203 53.5667 47.003C53.6687 47.0617 53.7761 47.1104 53.8875 47.1485C54.3431 47.2358 55.0468 47.3736 55.1601 46.9188C55.2367 46.5758 55.0315 46.5474 54.6739 46.1845C54.3076 45.7101 54.0911 45.1371 54.0521 44.539C54.0398 44.0717 54.1979 43.6158 54.497 43.2565C55.1096 42.552 55.3883 42.6439 55.304 42.222C55.1968 41.6699 54.4304 41.7886 53.8867 41.9356Z" fill="#191919"/>
<path d="M128.115 16.1315C127.04 14.9396 125.665 14.0575 124.133 13.5771C122.589 9.48678 120.857 5.23638 116.593 4.16516C112.473 3.13453 108.93 6.17742 108.184 10.2257C107.895 11.9036 108.046 13.6277 108.622 15.23C109.198 16.8322 110.179 18.2579 111.47 19.3681C111.176 19.9654 110.857 20.6698 110.616 21.2449C110.24 20.7868 109.764 20.4202 109.226 20.1729C109.389 19.8854 109.538 19.5895 109.67 19.2862C109.916 18.7939 109.775 18.2142 109.453 18.0818C109.131 17.9493 108.563 17.9638 108.128 18.738C107.917 19.0604 107.77 19.4208 107.695 19.7992C104.7 19.6629 102.504 22.8666 102.209 25.5198C101.677 29.6691 105.478 32.9562 108.579 30.4202C108.61 31.405 108.854 32.3713 109.294 33.2531C109.733 34.1349 110.358 34.9115 111.125 35.5298C111.561 35.8711 112.037 36.1593 112.542 36.3881C112.148 37.3904 111.857 38.4299 111.673 39.4907C111.081 39.4246 110.501 39.282 109.945 39.0665C109.846 39.0276 109.736 39.0283 109.637 39.0684C109.539 39.1086 109.459 39.1851 109.415 39.2822C109.372 39.3794 109.367 39.4896 109.402 39.5901C109.437 39.6906 109.51 39.7738 109.605 39.8223C110.361 40.3053 111.198 40.6484 112.076 40.8353C112.238 40.8651 112.404 40.8326 112.543 40.7444C112.681 40.6561 112.781 40.5187 112.821 40.3598C113.828 37.4632 113.7 37.7488 113.987 37.0589C114.896 37.4819 115.911 37.6222 116.901 37.4616C117.149 37.3535 117.374 37.1992 117.563 37.0068C117.667 36.9779 117.755 36.9098 117.809 36.817C117.863 36.7243 117.879 36.6141 117.853 36.5099C117.825 36.4056 117.757 36.3163 117.665 36.2605C117.572 36.2047 117.462 36.1868 117.357 36.2105C117.115 36.0871 116.857 35.9999 116.591 35.9517C116.332 35.9203 116.063 35.9103 115.795 35.869C114.47 35.6043 113.219 35.0542 112.128 34.2572C109.154 31.8958 110.19 27.4669 111.259 23.8521C111.388 23.4516 112.037 21.2288 112.376 20.0649C115.186 21.9792 118.617 22.0979 121.93 21.2701C121.93 23.0037 122.313 24.6239 123.761 25.6346C123.869 25.711 123.998 25.7512 124.13 25.7493C124.262 25.7473 124.39 25.7034 124.495 25.6239C125.355 24.8439 126.459 24.387 127.619 24.3314C127.695 24.3326 127.771 24.3162 127.84 24.2833C127.909 24.2504 127.969 24.2019 128.016 24.1418C128.063 24.0816 128.096 24.0114 128.111 23.9365C128.126 23.8617 128.124 23.7843 128.105 23.7104C128.967 22.6362 129.438 21.3003 129.44 19.9227C129.442 18.5451 128.974 17.208 128.115 16.1315ZM118.62 8.81679C117.953 8.18124 117.188 7.65742 116.354 7.26548C115.602 6.97841 114.769 6.99323 114.027 7.30683C112.89 7.83286 111.961 8.72526 111.39 9.8413C111.081 10.3236 110.808 10.8283 110.573 11.3513C110.561 11.4159 110.536 11.4774 110.5 11.5321C110.463 11.5868 110.416 11.6336 110.361 11.6696C110.306 11.7057 110.244 11.7303 110.18 11.7419C110.115 11.7535 110.048 11.752 109.984 11.7373C109.92 11.7227 109.86 11.6952 109.807 11.6567C109.753 11.6181 109.708 11.5691 109.675 11.5128C109.641 11.4564 109.618 11.3938 109.609 11.3287C109.6 11.2636 109.604 11.1973 109.622 11.1338C109.648 10.4592 109.792 9.79441 110.046 9.16901C110.707 7.66513 111.909 6.46511 113.415 5.80759C114.21 5.46142 115.089 5.35526 115.943 5.50219C116.798 5.64913 117.591 6.04273 118.224 6.63454C118.694 7.13686 119.06 7.72771 119.3 8.37268C119.349 8.46291 119.362 8.56835 119.337 8.66789C119.312 8.76744 119.25 8.85373 119.163 8.9095C119.077 8.96527 118.973 8.98638 118.872 8.96862C118.771 8.95086 118.68 8.89554 118.618 8.81373L118.62 8.81679ZM121.645 13.0588C121.451 13.166 121.279 13.0197 121.097 12.8934C120.851 12.7599 120.645 12.5628 120.502 12.3226C120.358 12.0824 120.281 11.808 120.28 11.5281C120.269 11.2601 120.261 10.9921 120.497 10.8765C120.733 10.7609 120.941 10.9317 121.148 11.0932C121.373 11.2513 121.552 11.4653 121.668 11.7139C121.784 11.9625 121.833 12.2371 121.811 12.5105C121.813 12.7295 121.841 12.9462 121.643 13.0557L121.645 13.0588Z" fill="#191919"/>
</svg>
