<svg width="154" height="154" viewBox="0 0 154 154" fill="none" xmlns="http://www.w3.org/2000/svg">
<path d="M12.5212 42.3468C10.6215 44.2465 9.09316 47.748 8.11306 50.199C7.27775 52.7793 6.85927 55.4763 6.87339 58.1884C7.36957 67.1195 11.1238 72.7121 17.8933 76.0973C18.3068 76.2344 18.5779 75.8278 18.169 75.546C16.1256 74.2952 14.2308 72.8164 12.5212 71.1379C8.53956 66.7925 6.5227 58.6141 8.52654 51.4387C9.14529 49.099 10.121 46.8686 11.4194 44.8261C11.877 44.0607 12.3831 43.3254 12.9347 42.6247C13.0725 42.3468 12.659 42.0711 12.5212 42.3468Z" fill="#191919"/>
<path d="M123.691 48.546C122.316 51.9809 121.364 54.9442 119.556 55.8469C117.984 56.2397 116.866 56.0927 116.249 56.3983C116.215 56.4205 116.187 56.4511 116.167 56.4872C116.147 56.5232 116.137 56.5636 116.137 56.6046C116.137 56.6456 116.147 56.686 116.167 56.7221C116.187 56.7581 116.215 56.7887 116.249 56.811C117.435 57.2913 118.751 57.3401 119.969 56.9488C122.214 56.2007 124.011 50.8829 124.24 48.8216C124.106 48.4082 123.828 48.2703 123.691 48.546Z" fill="#191919"/>
<path d="M128.925 41.9356C127.098 38.7434 121.788 40.284 121.384 43.8951C120.867 43.5265 120.231 43.3628 119.6 43.4357C119.494 38.4188 113.262 38.6738 111.843 42.6286C111.494 43.5042 111.454 44.4728 111.729 45.3743C112.005 46.2758 112.579 47.0564 113.358 47.5873C115.732 49.0099 119.291 47.4632 119.584 43.9762C119.999 44.1102 120.502 44.1248 120.797 44.4188C121.278 44.7795 121.299 48.2473 121.211 48.6899C121.149 49.1763 120.902 49.6203 120.522 49.9296C120.384 50.0674 119.143 50.7557 119.832 50.7557C121.348 51.0314 122.037 49.6539 122.037 48.4142V46.3821C122.65 47.2416 123.571 47.8318 124.608 48.0301C125.645 48.2284 126.719 48.0195 127.606 47.4469C128.493 46.8742 129.125 45.9818 129.372 44.955C129.618 43.9283 129.459 42.8461 128.928 41.9334L128.925 41.9356ZM118.318 45.2396C118.02 45.989 117.448 46.5974 116.719 46.9424C115.99 47.2873 115.157 47.3431 114.389 47.0985C113.62 46.854 112.973 46.3272 112.577 45.6243C112.182 44.9215 112.067 44.0948 112.257 43.3108C112.343 42.8149 112.535 42.3432 112.819 41.9275C113.103 41.5117 113.473 41.1616 113.904 40.9005C114.334 40.6394 114.816 40.4735 115.316 40.4138C115.816 40.3541 116.323 40.402 116.803 40.5543C118.869 41.2465 119.174 43.6018 118.318 45.2396ZM128.099 45.6531C127.684 46.2949 127.056 46.7706 126.326 46.9971C125.596 47.2237 124.809 47.1867 124.103 46.8928C123.418 46.6191 122.857 46.103 122.526 45.4427C122.196 44.7823 122.12 44.0236 122.313 43.3108C122.481 42.7117 122.816 42.1731 123.28 41.7583C123.744 41.3435 124.316 41.0698 124.93 40.9693C125.476 40.8747 126.036 40.913 126.564 41.0808C127.091 41.2486 127.571 41.541 127.961 41.9334C128.323 42.4811 128.527 43.1179 128.552 43.7739C128.576 44.43 128.419 45.0801 128.099 45.6531Z" fill="#191919"/>
<path d="M118.869 52.5406C118.593 52.2649 117.904 52.5406 117.629 52.4028C117.078 52.2649 116.389 51.3009 115.838 51.4387C115.287 51.4387 115.563 52.2649 115.838 52.5406C117.386 53.7787 119.304 53.1914 118.869 52.5406Z" fill="#191919"/>
<path d="M114.736 38.9026C115.268 38.8954 115.789 38.7531 116.251 38.4891C116.527 38.3521 116.664 37.9386 116.389 37.8C115.498 37.5037 113.846 38.9026 114.736 38.9026Z" fill="#191919"/>
<path d="M103.578 58.0514C107.459 69.69 111.808 89.9451 113.358 109.297C113.752 114.202 114.048 115.085 114.048 115.633C114.048 115.688 114.069 115.74 114.108 115.779C114.147 115.818 114.199 115.84 114.254 115.84C114.309 115.84 114.362 115.818 114.4 115.779C114.439 115.74 114.461 115.688 114.461 115.633C114.534 113.933 114.488 112.23 114.323 110.536C113.345 97.8256 111.043 81.3409 107.573 69.0713C104.9 59.6226 104.587 60.1065 103.854 57.9135C103.716 57.7757 103.44 57.9135 103.578 58.0514Z" fill="#191919"/>
<path d="M99.4454 33.1171C98.7168 34.5946 98.0728 36.1124 97.5166 37.663C97.5166 39.199 99.8581 34.8399 99.8581 33.1171C99.8581 32.9769 99.5825 32.9769 99.4454 33.1171Z" fill="#191919"/>
<path d="M102.889 33.666C102.79 33.8306 100.961 37.9539 100.961 38.212C100.961 38.3498 101.098 38.3498 101.236 38.3498C102.078 38.0696 103.303 34.5672 103.303 33.666C103.302 33.5305 103.027 33.3927 102.889 33.666Z" fill="#191919"/>
<path d="M106.195 35.1837C106.147 35.2602 102.398 41.2212 102.338 41.5198C102.343 41.5912 102.374 41.6584 102.424 41.7091C102.475 41.7598 102.542 41.7905 102.613 41.7955C104.08 41.0627 106.387 37.0742 106.748 35.4585C106.609 35.1836 106.333 35.0443 106.195 35.1837Z" fill="#191919"/>
<path d="M83.1898 52.1271C77.8368 56.8117 76.1454 59.2841 72.032 64.9388C68.6423 69.5966 66.0396 73.5353 65.4194 79.2658C65.1478 81.8317 65.4778 84.4256 66.3834 86.8417C67.1413 88.7408 68.2646 90.4726 69.6897 91.9389C74.261 96.8647 82.3123 98.3379 92.0061 90.9749C92.5551 90.5584 93.1087 90.0101 93.6592 89.5967C93.9349 89.321 93.5145 88.6219 93.1087 88.9075C89.3223 91.5699 85.2656 94.5056 80.5726 94.9688C72.9922 95.7177 66.1775 89.3493 66.5213 80.9175C66.7357 75.6854 69.0014 71.1372 72.0343 66.8669C72.7361 65.7547 73.5187 64.6957 74.3758 63.6984C76.0604 61.4503 76.9662 59.4549 82.2281 54.193C82.6416 53.6417 83.1921 53.229 83.6063 52.6777C83.7411 52.265 83.4654 51.9901 83.1898 52.1271Z" fill="#191919"/>
<path d="M148.348 85.4641C146.936 75.7244 145.069 69.7672 137.603 64.2496C133.288 60.8769 127.952 59.0784 122.475 59.1516C121.786 58.6079 120.384 57.3238 120.384 58.1883C123.753 67.8683 126.019 81.7259 126.72 92.0767C127.764 107.456 127.41 105.846 127.41 115.633C127.41 115.908 127.823 116.046 127.961 115.633C129.918 103.399 126.668 71.5345 121.489 59.2082C128.879 65.1738 131.174 68.9786 131.68 69.4847C132.025 69.83 131.48 70.16 130.44 72.2412C130.018 72.9474 129.65 73.6843 129.338 74.4457C129.201 74.5835 129.476 74.7205 129.614 74.5835C130.623 73.3642 131.544 72.0751 132.371 70.7259C132.508 70.4502 132.783 70.1753 132.783 69.8997C132.783 68.8086 126.298 61.8537 122.697 59.3177C127.397 59.6157 131.928 61.1765 135.815 63.8353C137.863 65.2373 139.717 66.9047 141.328 68.794C142.57 70.1925 143.592 71.7718 144.358 73.4778C147.067 79.487 148.154 91.5177 148.353 97.9986C148.606 102.873 148.422 107.759 147.802 112.6C147.802 113.014 148.353 113.014 148.492 112.738C149.816 103.691 149.768 94.4965 148.348 85.4641Z" fill="#191919"/>
<path d="M130.716 74.7198C131.499 76.2864 133.195 79.0988 133.195 79.1279C133.195 79.8859 132.806 79.7864 131.68 82.1585C129.717 86.2933 129.677 91.3569 129.339 93.7298C129.339 94.556 129.201 95.2451 129.201 96.0713C129.201 96.347 129.476 96.347 129.614 96.0713C130.287 92.7022 130.198 87.5177 132.371 82.4334C133.374 80.0843 134.272 79.4472 133.749 78.5766C133.255 77.5888 131.605 75.6149 130.856 74.3063C130.854 74.1715 130.578 74.4441 130.716 74.7198Z" fill="#191919"/>
<path d="M106.884 45.653C107.159 46.2036 107.711 45.5152 107.711 45.2396C108.027 43.3437 105.369 43.0351 105.369 43.7242C107.54 43.9953 106.485 44.8544 106.884 45.653Z" fill="#191919"/>
<path d="M106.057 44.9639C105.644 44.9639 105.368 45.5152 105.507 45.9286C105.507 46.2035 106.057 46.8927 106.196 46.3414C106.057 46.0657 106.471 44.9639 106.057 44.9639Z" fill="#191919"/>
<path d="M109.088 51.9902C109.492 54.0376 111.768 55.4948 111.845 55.5713C111.901 55.5794 111.958 55.5743 112.012 55.5564C112.066 55.5384 112.115 55.5082 112.155 55.4681C112.195 55.428 112.225 55.379 112.243 55.3252C112.261 55.2713 112.266 55.214 112.258 55.1579C112.258 54.6824 111.234 54.7995 109.228 51.9902C109.154 51.8309 109.069 51.8899 109.088 51.9902Z" fill="#191919"/>
<path d="M122.45 38.2144C122.588 38.6271 123.966 39.5927 124.104 38.6271C124.107 37.8867 122.263 37.4632 122.45 38.2144Z" fill="#191919"/>
<path d="M87.1851 95.7965C86.0143 106.565 87.0473 115.312 87.0473 117.286C87.0023 118.168 87.0953 119.051 87.3229 119.904C87.46 120.179 87.8735 120.316 88.0121 119.904C88.1116 119.405 87.2594 103.652 87.8742 95.6586C87.7356 95.5208 87.1851 95.5208 87.1851 95.7965Z" fill="#191919"/>
<path d="M137.603 73.755C138.577 83.0062 138.446 97.6448 137.741 105.715C137.575 107.616 136.915 113.497 136.915 114.117C136.917 114.235 136.961 114.347 137.038 114.435C137.116 114.523 137.222 114.581 137.338 114.597C137.454 114.614 137.573 114.588 137.672 114.526C137.771 114.463 137.844 114.367 137.879 114.255C138.73 109.109 139.191 103.905 139.257 98.6892C139.348 91.4281 139.237 80.9648 138.155 73.755C138.017 73.4824 137.603 73.4824 137.603 73.755Z" fill="#191919"/>
<path d="M129.889 24.9892C129.751 24.5765 129.338 24.0252 129.063 24.5765C128.609 25.6123 127.882 26.5053 126.96 27.1603C126.038 27.8153 124.955 28.2076 123.828 28.2955C120.795 28.6921 117.764 28.1423 114.736 28.8468C113.612 29.06 112.544 29.4998 111.597 30.1391C110.649 30.7785 109.841 31.6042 109.223 32.5658C107.193 36.0313 107.432 40.5559 107.432 40.6937C106.896 40.5428 106.333 40.5141 105.785 40.6095C105.236 40.7049 104.716 40.922 104.263 41.245C103.25 42.1074 102.528 43.2619 102.196 44.5505C101.961 45.1518 101.901 45.8072 102.023 46.441C102.145 47.0749 102.444 47.6613 102.885 48.1325C103.562 48.6276 104.39 48.8713 105.227 48.8216C105.747 48.8533 106.267 48.7587 106.743 48.5459C106.196 51.8462 105.985 55.1933 106.112 58.536C105.567 58.0756 105.042 57.592 104.538 57.0866C104.262 57.0866 103.988 57.3622 104.125 57.5C105.612 59.4317 107.491 61.0277 109.638 62.1838C112.494 63.6593 113.492 63.0138 113.357 63.1478C112.438 64.5307 109.528 68.6165 108.811 71.0001C108.673 71.2757 109.086 71.4136 109.224 71.1379C109.224 71.1379 112.22 66.3622 113.908 64.1126C115.409 66.5154 119.645 73.0583 118.732 70.311C117.42 67.9503 114.145 63.0644 114.067 63.0115C115.022 62.8185 115.915 62.3921 116.665 61.7703C117.845 60.9333 118.831 59.8528 119.558 58.6019C119.702 58.3293 119.42 58.0513 119.145 58.3262C118.367 58.9104 115.079 63.2573 111.706 61.9082C109.892 61.1984 108.197 60.2156 106.68 58.9939C106.953 57.7313 107.587 47.9364 107.573 47.8568C107.573 47.5812 102.16 48.5735 103.303 44.4112C103.755 42.7687 105.086 40.8652 107.022 41.2435C109.357 41.699 109.226 45.1003 109.779 46.2021C109.826 46.2961 109.906 46.3697 110.004 46.4097C110.101 46.4498 110.21 46.4535 110.31 46.4202C110.41 46.3869 110.495 46.3189 110.549 46.2284C110.603 46.138 110.623 46.0311 110.605 45.9272C110.605 43.3093 110.018 39.6944 111.983 37.6615C115.225 34.3055 123.311 37.5903 127.963 34.0796C130.556 32.1232 131.266 28.1576 129.889 24.9892Z" fill="#191919"/>
<path d="M97.6521 46.7273C97.6542 45.4761 97.4692 44.2316 97.1031 43.0351C97.0349 42.8651 96.8412 42.8621 96.8274 43.0351C96.8274 44.4134 97.1413 46.4655 96.8274 47.7189C96.6571 48.2066 96.5641 48.7179 96.5518 49.2342C96.5636 49.2755 96.5853 49.3133 96.615 49.3443C96.6447 49.3753 96.6815 49.3985 96.7222 49.4121C96.7629 49.4257 96.8063 49.4291 96.8487 49.4222C96.891 49.4152 96.931 49.398 96.9652 49.3721C97.4629 49.0405 97.5464 48.1515 97.6214 47.3629L99.858 46.6171C99.9959 46.6171 100.409 46.4793 100.409 46.2036C100.409 45.5604 98.3351 46.1393 97.6521 46.7273Z" fill="#191919"/>
<path d="M103.716 50.0612C101.645 52.1286 100.45 52.954 97.379 52.954C97.3075 52.9588 97.2402 52.9894 97.1895 53.0401C97.1388 53.0908 97.1082 53.1581 97.1034 53.2297C96.8392 54.0045 96.3438 54.8085 96.2772 55.0206C94.1026 54.8907 91.9841 54.2789 90.075 53.2297C90.5068 52.5769 90.8757 51.8846 91.1769 51.1623C91.1742 51.116 91.1605 51.071 91.1369 51.031C91.1133 50.9911 91.0806 50.9573 91.0413 50.9326C91.0897 49.3794 91.321 47.8373 91.7305 46.3384C92.281 44.823 92.6945 43.1699 93.2458 41.6546C93.2749 41.5742 96.4143 32.8597 96.4143 32.4248C96.4143 32.1499 96.1386 32.1499 96.0008 32.287C94.9663 33.3222 90.4632 47.003 90.2749 48.6293C89.7283 48.3882 89.1524 48.2201 88.562 48.1293C85.3729 47.5979 83.5796 48.6584 86.3576 51.4356C90.3246 54.7764 94.8071 56.1102 96.6363 56.0505C82.6508 76.8676 84.2626 74.1723 80.0206 79.2619C79.8836 79.3997 80.0206 79.5376 80.1584 79.3997C85.0199 76.1593 90.8093 66.1907 94.6233 60.6654C95.2963 59.6899 95.863 58.7366 96.4143 57.7726C96.8063 57.0834 97.2688 56.4709 97.6516 55.8216C97.857 55.7239 98.0441 55.5915 98.2045 55.4303C98.2917 55.1049 98.2806 54.761 98.1725 54.442C98.0644 54.123 97.8643 53.8431 97.5973 53.6378C98.8908 53.6829 100.179 53.4478 101.373 52.9486C102.533 52.3833 103.564 51.5861 104.404 50.6064C104.68 50.199 104.129 49.7855 103.716 50.0612Z" fill="#191919"/>
<path d="M102.338 58.0512C102.886 56.9698 103.82 56.1338 104.956 55.709C105.093 55.5711 105.093 55.2955 104.818 55.4333C102.613 55.8468 101.508 58.1898 100.823 59.9793C99.1888 64.5026 97.9444 69.1574 97.1033 73.8928C97.089 74.0017 97.1076 74.1124 97.1568 74.2107C97.2059 74.3089 97.2833 74.3902 97.379 74.4441C97.4425 74.4755 103.207 77.3132 103.854 77.4748C104.129 77.6126 104.404 77.1991 104.129 77.0613C102.301 75.6829 100.288 74.5698 98.1493 73.755C98.8897 69.9717 100.26 64.2749 101.099 61.2189C101.38 60.1161 101.797 59.0521 102.338 58.0512Z" fill="#191919"/>
<path d="M100.823 77.1993C98.8926 82.9902 99.4263 82.2774 100.823 83.674C102.255 84.746 106.735 89.9114 109.226 96.7606C109.226 96.8984 109.501 96.8984 109.501 96.6228C109.253 94.1327 107.47 90.9566 106.333 88.9083C104.748 86.5885 102.847 84.501 100.685 82.7062C100.08 82.1817 100.024 82.0293 100.134 81.6043C100.155 81.5224 100.887 78.0714 101.098 77.334C101.236 77.0614 100.823 76.9236 100.823 77.1993Z" fill="#191919"/>
<path d="M124.93 99.3778C124.93 99.3219 117.214 76.2689 115.838 72.9289C116.425 72.6174 116.905 72.1374 117.217 71.5507C117.354 71.4129 115.012 68.3822 114.186 66.8669C114.048 66.4534 110.74 71.1372 111.017 71.4129C111.314 71.8981 111.716 72.3108 112.193 72.6206C112.67 72.9304 113.21 73.1294 113.774 73.2031C114.05 78.4381 114.531 83.5301 114.876 88.7697C115.048 91.3854 115.289 99.1013 115.427 100.204C115.427 100.754 120.94 107.091 121.764 108.745C122.588 110.398 125.068 100.48 124.93 99.3778Z" fill="#38A1FF"/>
<path d="M49.9903 34.2188C48.7438 34.8421 46.6741 36.8513 45.3065 39.3161C42.5247 44.3306 42.3969 51.8674 45.1687 56.8108C46.4188 59.1196 48.3416 60.9935 50.6817 62.1837C51.0952 62.3215 51.3709 61.9119 50.9574 61.6324C47.1182 59.0244 45.3999 56.5022 44.3448 51.5765C43.6067 46.5941 44.2093 41.1047 47.5133 37.2494C48.409 36.2613 49.3759 35.34 50.4061 34.4929C50.5416 34.4945 50.266 34.081 49.9903 34.2188Z" fill="#191919"/>
<path d="M34.8374 45.2397C25.7769 30.5789 9.76611 39.2259 9.76611 56.2604C9.76611 66.1334 15.1207 73.5652 20.9239 76.0974C25.4415 78.0668 29.4301 77.0339 33.0465 73.893C38.4531 69.1977 39.7303 59.6609 38.0059 52.6785C37.335 50.0519 36.2665 47.5433 34.8374 45.2397ZM23.1283 71.2735C16.9262 70.4986 13.4085 62.3914 14.4499 62.0438C16.4683 61.4932 27.6421 58.9871 34.9753 56.6708C35.2509 56.5338 35.6644 56.8087 35.6644 57.2222C35.205 61.7957 32.8474 67.0821 29.1896 69.896C27.3891 71.0419 25.2475 71.5294 23.1283 71.2758V71.2735ZM19.1337 49.7857C19.6873 49.6609 20.3734 50.6119 20.5119 51.7145C20.6505 52.8171 20.3741 53.9182 19.685 53.9182C19.1345 54.056 18.4453 53.092 18.3067 51.9901C18.1681 50.8883 18.4484 49.9396 19.1337 49.7857ZM29.466 51.301C28.9147 51.4388 28.2264 50.4748 28.0878 49.3722C27.9492 48.2696 28.2256 47.1685 28.914 47.1685C29.4653 47.0307 30.1536 47.9947 30.2922 49.0965C30.4308 50.1984 30.1552 51.301 29.466 51.301Z" fill="#38A1FF"/>
<path d="M66.3833 39.454C64.8519 35.1561 61.43 32.1439 56.8786 32.4279C52.8258 32.4279 47.1167 37.2825 45.7201 44.964C43.6803 56.183 52.5348 67.2895 61.6995 60.1172C67.6084 55.4962 68.8994 46.5214 66.3833 39.454ZM51.2301 52.4028C50.6795 52.4028 49.302 52.6784 49.302 52.1271C49.302 51.1953 58.3251 50.3982 59.2202 50.3369C61.149 50.2037 64.0441 49.51 64.0441 50.3369C64.2439 51.144 51.3066 52.3959 51.2301 52.4028ZM62.5264 42.3468C62.3886 43.173 61.9751 43.8621 61.5624 43.8621C61.1497 43.8621 60.7355 43.0352 60.8733 42.209C61.0111 41.3828 61.4246 40.6937 61.8373 40.6937C62.25 40.6937 62.5264 41.5199 62.5264 42.3468ZM54.8105 42.6248C54.6727 43.451 54.2592 44.1401 53.7086 44.1401C53.2952 44.1401 52.8817 43.3131 53.0195 42.487C53.3557 40.4586 54.8105 40.4188 54.8105 42.6248Z" fill="#38A1FF"/>
<path d="M36.3524 97.8624C38.3524 98.3073 39.674 100.225 38.2812 102.546C38.1434 102.822 37.7299 103.097 37.5921 103.373C37.4543 103.649 37.5921 104.062 37.8678 103.924C38.6082 103.592 39.2076 103.009 39.5605 102.278C39.9133 101.547 39.9969 100.715 39.7966 99.929C39.3831 98.4137 37.8678 97.1725 36.3509 97.4489C36.0768 97.4489 36.0768 97.7246 36.3524 97.8624Z" fill="#191919"/>
<path d="M29.8785 108.332C30.4291 109.159 31.5309 109.159 32.3579 109.297C35.1144 109.434 39.7966 108.332 40.3479 104.889C40.3479 104.475 39.9345 104.475 39.6588 104.751C39.0655 105.721 38.2624 106.547 37.3084 107.167C36.3544 107.786 35.2738 108.184 34.1458 108.332C32.9061 108.608 31.1151 108.745 30.011 108.194C29.8785 108.056 29.7407 108.194 29.8785 108.332Z" fill="#191919"/>
<path d="M30.4292 112.602C31.4063 113.093 32.476 113.371 33.5682 113.418C34.6604 113.466 35.7503 113.282 36.7662 112.878C38.4239 112.201 40.3481 110.81 40.901 109.021C41.0388 108.745 40.6253 108.47 40.3504 108.745C39.11 109.985 38.0081 111.362 36.355 111.914C34.5055 112.622 32.4778 112.718 30.5694 112.189C30.2914 112.052 30.1551 112.465 30.4292 112.602Z" fill="#191919"/>
<path d="M33.8733 95.3816C33.2633 95.551 32.6729 95.7849 32.1122 96.0791C31.7631 94.4367 28.1551 78.2299 27.5364 76.3723C27.2608 76.3723 26.8473 76.3723 26.8473 76.648C26.9889 78.3539 30.7462 94.8816 31.1804 96.5562C28.1459 98.1205 32.0525 96.1565 25.6068 99.3793C22.8993 100.733 20.5869 101.042 20.2347 103.514C19.959 105.167 20.2347 106.82 20.2347 108.474C20.2347 113.262 19.0938 111.542 16.6528 113.987C16.3771 114.537 16.6528 115.088 16.9284 114.813C17.1214 114.736 20.0846 113.183 20.3741 112.608C20.7012 112.016 20.8895 111.356 20.9246 110.68C21.0961 109.823 21.0624 109.428 21.0624 104.343C21.0624 102.199 21.9483 102.229 25.0578 100.761C26.0977 100.271 30.6643 98.0301 31.6697 97.4551C32.221 97.1802 33.4606 96.2154 34.1498 96.3533C35.1773 96.5592 35.234 102.237 34.976 103.654C34.976 104.068 34.5632 103.93 34.2868 103.792C33.6797 103.594 33.1207 103.271 32.6459 102.844C32.1712 102.417 31.7911 101.896 31.5303 101.313C31.2669 100.755 30.4277 101.037 30.7033 101.588C30.8067 101.796 30.9208 102.003 31.0441 102.207C30.42 102.493 30.1398 103.509 30.015 104.068C29.7654 105.176 29.4637 106.135 29.188 107.098C28.3427 108.897 27.065 110.459 25.469 111.644C25.3312 111.782 25.469 111.92 25.6061 111.92C26.6114 111.92 29.4017 110.117 30.5655 105.17C30.9897 103.473 30.4246 104.237 31.4622 102.83C32.639 104.402 34.2355 104.922 34.9737 104.757C35.6628 104.604 35.8006 104.068 35.8006 103.379C35.8021 101.516 35.7087 95.0156 33.8733 95.3816Z" fill="#191919"/>
<path d="M41.4499 111.638C41.4499 111.5 41.1742 111.5 41.1742 111.638C40.9824 112.402 40.7052 113.141 40.348 113.842C40.0394 114.386 39.624 114.861 39.1268 115.24C38.6297 115.619 38.0611 115.893 37.4552 116.046C36.077 116.322 34.8373 115.496 33.4598 115.771C33.1842 115.771 33.1842 116.184 33.322 116.184C34.2305 116.503 35.1574 116.766 36.0976 116.973C36.3427 118.199 38.3947 127.97 39.2454 128.995C39.2796 129.021 39.3197 129.038 39.362 129.045C39.4044 129.052 39.4478 129.049 39.4885 129.035C39.5292 129.021 39.566 128.998 39.5957 128.967C39.6254 128.936 39.6471 128.898 39.6589 128.857C39.8565 127.278 37.2148 118.514 36.7156 116.997C37.5495 116.929 38.3623 116.7 39.1084 116.321C40.6229 115.358 41.8634 113.429 41.4499 111.638Z" fill="#191919"/>
<path d="M60.46 74.8608C60.46 74.7237 60.1851 74.5859 60.0473 74.5859C59.29 74.7114 58.5036 74.8669 57.7149 75.0246C57.6774 73.2911 56.5718 63.824 56.1889 61.7673C56.1889 61.6295 55.9133 61.7673 55.9133 61.9051C56.0113 66.3426 56.3567 70.7711 56.9477 75.1701C53.2241 75.9098 51.7578 75.8876 50.2655 76.7827C49.2797 77.3146 48.394 78.0142 47.6483 78.8501C46.7761 79.979 45.6411 80.8776 44.342 81.4672C42.8267 82.2934 41.3114 82.7069 39.9339 83.396C39.6582 83.5338 39.9339 83.8087 40.0717 83.8087C41.9017 82.9956 44.0732 82.7727 45.8573 81.8807C47.5105 81.0537 48.4745 79.2628 49.9921 78.1609C52.0664 76.7061 54.1912 76.9396 59.7731 75.5438C59.7468 75.8396 59.6598 76.1268 59.5175 76.3876C59.3752 76.6483 59.1807 76.8769 58.9462 77.0591C57.6721 78.0782 55.9408 78.1357 55.2272 78.8501C54.5381 79.5392 54.4002 80.5032 53.7119 81.1916C53.0227 81.8648 52.2304 82.4237 51.365 82.847C51.0901 82.9848 51.365 83.2605 51.5028 83.2605C52.5282 82.9794 53.4726 82.4603 54.2593 81.7452C54.6229 81.3664 54.9462 80.9509 55.2241 80.5055C55.4998 80.092 55.6376 79.4029 56.0503 79.1272C57.0877 78.7835 58.1003 78.369 59.081 77.8868C59.611 77.6037 60.0332 77.154 60.2825 76.6071C60.5317 76.0603 60.5941 75.4466 60.46 74.8608Z" fill="#191919"/>
<path d="M60.598 77.7498C61.0696 79.6357 58.6385 80.5063 56.4632 81.7452C55.6753 82.5331 60.3728 81.7246 61.2871 78.9887C61.4249 78.5752 61.4249 77.6104 60.8736 77.4734L60.598 77.7498Z" fill="#191919"/>
<path d="M61.7017 81.056C60.1021 83.056 57.2936 82.7099 56.743 83.2605C56.6052 83.3983 56.6052 83.674 56.743 83.674C58.0646 84.0514 60.6986 83.2505 61.9773 81.3317C61.975 81.056 61.8372 80.9182 61.7017 81.056Z" fill="#191919"/>
<path d="M55.6389 85.0515C56.995 85.9558 60.3495 85.4343 61.0111 84.7758C61.1489 84.638 61.0111 84.5002 60.8732 84.5002C60.7967 84.4849 55.7155 84.9044 55.6389 84.9136C55.5624 84.9228 55.593 85.0262 55.6389 85.0515Z" fill="#191919"/>
<path d="M56.7407 86.429C56.8785 86.8417 57.5669 87.1181 57.9804 87.393C58.6695 87.6687 60.1848 87.8065 60.7369 86.9796C61.0126 86.7047 60.7369 86.429 60.4613 86.429C60.0485 86.429 59.7721 86.7047 59.3594 86.7047C58.9274 86.7466 58.4933 86.6501 58.1198 86.429C57.8441 86.2912 57.2928 85.8777 57.0179 86.0155C56.7407 86.2912 56.7407 86.2912 56.7407 86.429Z" fill="#191919"/>
<path d="M57.4294 87.3929C56.1993 87.9949 54.9056 88.4572 53.5726 88.7711C52.9506 88.882 52.3127 88.8659 51.6972 88.7239C51.0816 88.5819 50.5012 88.317 49.9906 87.9449C49.7795 87.7272 49.519 87.5635 49.2313 87.4675C48.9436 87.3716 48.637 87.3462 48.3375 87.3936C47.3467 87.5177 43.0541 88.2933 41.8635 88.6333C41.5878 88.7711 41.5878 89.1846 41.8635 89.1846C44.5434 89.1846 47.0917 88.0828 48.4753 88.0828C49.0266 88.0828 49.5718 88.6463 50.1284 88.909C52.5787 90.0675 55.3635 88.909 57.5672 87.6693C57.705 87.6685 57.5672 87.255 57.4294 87.3929Z" fill="#191919"/>
<path d="M57.9805 88.4949C58.8649 94.2422 59.129 100.717 59.6336 101.72C59.7714 101.858 60.0471 101.858 60.0471 101.72C60.3495 100.205 59.0073 90.0492 58.6688 88.357C58.5318 87.9443 57.9805 88.22 57.9805 88.4949Z" fill="#191919"/>
<path d="M113.772 43.8621C113.772 44.0812 113.83 44.2913 113.933 44.4463C114.037 44.6012 114.177 44.6883 114.323 44.6883C114.469 44.6883 114.61 44.6012 114.713 44.4463C114.816 44.2913 114.875 44.0812 114.875 43.8621C114.875 43.643 114.816 43.4328 114.713 43.2779C114.61 43.1229 114.469 43.0359 114.323 43.0359C114.177 43.0359 114.037 43.1229 113.933 43.2779C113.83 43.4328 113.772 43.643 113.772 43.8621Z" fill="#191919"/>
<path d="M123.552 43.8621C123.552 44.0812 123.61 44.2913 123.714 44.4463C123.817 44.6012 123.957 44.6883 124.104 44.6883C124.25 44.6883 124.39 44.6012 124.493 44.4463C124.597 44.2913 124.655 44.0812 124.655 43.8621C124.655 43.643 124.597 43.4328 124.493 43.2779C124.39 43.1229 124.25 43.0359 124.104 43.0359C123.957 43.0359 123.817 43.1229 123.714 43.2779C123.61 43.4328 123.552 43.643 123.552 43.8621Z" fill="#191919"/>
<path d="M33.3222 117.148C31.944 117.699 30.5657 118.663 29.1874 119.077C28.4761 119.304 27.729 119.397 26.9837 119.352C24.6752 119.352 23.2954 120.783 21.7487 121.557C21.1254 121.912 20.5029 122.269 19.9171 122.662C19.6827 122.62 19.4611 122.524 19.2693 122.383C16.045 120.119 15.2739 115.633 15.2739 114.117C15.2739 113.291 15.4117 111.5 16.7892 112.05C17.754 112.326 17.2027 111.361 16.5136 111.361C14.4669 111.665 12.527 112.47 10.8658 113.703C10.5663 113.981 10.3358 114.325 10.1924 114.707C10.0489 115.09 9.99663 115.501 10.0396 115.907C10.043 116.646 10.1392 117.382 10.3259 118.097C9.78995 118.346 4.19269 121.241 4.11612 121.28C3.84046 121.418 3.97829 121.692 4.25318 121.555C6.13603 120.927 9.24478 119.443 10.5419 118.885C11.0017 120.562 11.7148 122.159 12.6567 123.621C13.4829 124.999 14.4477 126.652 15.963 127.341C17.754 128.167 19.8199 127.203 21.1974 126.101C21.473 125.964 21.6108 125.137 21.0595 125.412C19.6813 125.964 18.0289 127.203 16.5136 126.652C15.1353 126.238 14.1721 124.584 13.4829 123.483C12.1047 121.142 10.7264 118.387 10.7264 115.494C10.7264 113.565 14.4462 112.738 14.584 112.463C14.0327 114.254 14.4462 116.597 15.1345 118.387C15.8229 120.176 16.7877 122.382 18.4408 123.621C19.2678 124.173 20.4094 124.585 21.3336 124.035C21.9462 123.669 22.6606 123.12 22.2165 122.212C28.1537 118.774 26.3873 120.728 29.5994 119.761C30.2885 119.486 30.9776 119.21 31.5282 118.934C32.2173 118.522 32.9064 118.245 33.5956 117.833C33.8735 117.699 33.7357 117.011 33.3222 117.148Z" fill="#191919"/>
</svg>
