<svg width="154" height="154" viewBox="0 0 154 154" fill="none" xmlns="http://www.w3.org/2000/svg">
<path d="M94.7029 61.1318C95.3003 60.6752 96.0018 60.374 96.7443 60.2552C97.4868 60.1364 98.2471 60.2037 98.9572 60.4511C97.7129 55.8568 96.4472 50.65 93.2986 47.1767C92.8736 46.7295 90.2993 44.1138 87.1086 43.6238C85.3121 43.3734 83.4842 43.4745 81.7264 43.9216C79.5778 44.4324 79.0885 44.9002 78.4927 45.7938C77.8217 46.8946 77.2247 48.0388 76.7056 49.2188C77.2324 49.2188 81.0104 47.2624 85.2364 48.3038C90.2357 49.5167 91.2564 52.3881 91.9586 53.6431C93.0088 56.0877 93.9249 58.5876 94.7029 61.1318Z" fill="#38A1FF"/>
<path d="M53.8589 61.4083C53.476 61.4259 53.1138 61.4297 52.731 61.4297C52.5395 60.919 52.3481 60.4083 52.1352 59.919C51.9652 59.5147 51.3266 59.4083 51.221 59.919C51.1153 60.4297 51.0081 60.919 50.8802 61.4083C50.3442 61.3869 49.7952 61.3654 49.2638 61.3233C49.1507 61.3281 49.0422 61.3691 48.9542 61.4402C48.8661 61.5112 48.8031 61.6087 48.7745 61.7181C48.7459 61.8276 48.7531 61.9434 48.7952 62.0485C48.8372 62.1535 48.9118 62.2424 49.0081 62.3019C49.4552 62.5354 49.9016 62.7697 50.3274 63.0247C50.0854 63.5019 49.9407 64.0225 49.9016 64.5562C49.7952 64.9605 50.3909 65.2575 50.7317 64.9811C51.1352 64.6833 51.5181 64.3686 51.9224 64.0669C52.2845 64.3218 52.6245 64.5983 52.9859 64.8747C53.3481 65.1726 54.071 64.8961 53.8589 64.3647C53.6881 63.8961 53.4967 63.4283 53.3229 62.9818C53.5778 62.7904 53.8589 62.5775 54.11 62.3861C54.4753 62.0676 54.4117 61.3823 53.8589 61.4083Z" fill="#38A1FF"/>
<path d="M47.3485 61.919C46.9219 61.926 46.4959 61.9543 46.0721 62.004C45.945 61.6632 45.8424 61.3232 45.7321 60.9825C45.7006 60.8742 45.6349 60.7791 45.5447 60.7114C45.4546 60.6437 45.3448 60.6071 45.2321 60.6071C45.1193 60.6071 45.0096 60.6437 44.9195 60.7114C44.8293 60.7791 44.7635 60.8742 44.7321 60.9825C44.6471 61.3868 44.5407 61.7911 44.4342 62.174C43.898 62.2417 43.3582 62.2773 42.8178 62.2804C42.3071 62.2804 42.0306 63.0675 42.5406 63.3011C42.9449 63.4933 43.3706 63.6839 43.7749 63.8761C43.5608 64.316 43.4309 64.792 43.3921 65.2797C43.3939 65.3553 43.418 65.4287 43.4615 65.4907C43.505 65.5526 43.5658 65.6002 43.6364 65.6276C43.7069 65.655 43.784 65.6608 43.8578 65.6444C43.9317 65.628 43.999 65.5901 44.0514 65.5354C44.4771 65.2161 44.9021 64.9397 45.3278 64.599C45.7107 64.769 46.0935 64.9604 46.4764 65.135C46.5805 65.1903 46.6997 65.2108 46.8163 65.1933C46.933 65.1758 47.0409 65.1214 47.1243 65.0379C47.2076 64.9545 47.262 64.8465 47.2793 64.7298C47.2967 64.6132 47.2761 64.494 47.2207 64.3899C47.0495 64.0895 46.8864 63.7847 46.7314 63.4757C47.0292 63.2414 47.3064 63.0285 47.6249 62.8164C47.7137 62.7584 47.7812 62.6731 47.8172 62.5734C47.8532 62.4737 47.8558 62.3649 47.8246 62.2636C47.7934 62.1623 47.7301 62.0739 47.6442 62.0117C47.5583 61.9495 47.4545 61.917 47.3485 61.919Z" fill="#38A1FF"/>
<path d="M40.3715 62.089C39.9251 62.1181 39.4993 62.1525 39.0522 62.174C38.8393 61.7482 38.6264 61.3018 38.4143 60.8761C38.2229 60.4718 37.6693 60.6425 37.5422 60.9825C37.389 61.4083 37.2443 61.8547 37.095 62.2842C36.5207 62.3264 35.9464 62.3478 35.3721 62.3692C34.9464 62.3907 34.67 63.05 35.1378 63.2414C35.5421 63.4328 35.9679 63.6028 36.3928 63.7942C36.1929 64.2171 36.0361 64.6592 35.925 65.1136C35.8944 65.204 35.8923 65.3016 35.9188 65.3932C35.9453 65.4849 35.9992 65.5663 36.0733 65.6265C36.1474 65.6866 36.2381 65.7227 36.3332 65.7298C36.4284 65.737 36.5235 65.7148 36.6057 65.6664C36.6271 65.645 37.7972 64.8586 38.2014 64.5814C38.6693 64.7943 39.1157 65.0071 39.5629 65.2414C39.652 65.2922 39.7554 65.3123 39.857 65.2986C39.9587 65.2849 40.053 65.2381 40.1255 65.1656C40.198 65.093 40.2447 64.9986 40.2582 64.8969C40.2718 64.7952 40.2516 64.6919 40.2007 64.6028C40.0522 64.2628 39.8822 63.9221 39.7329 63.5607C40.0307 63.3693 40.3286 63.1778 40.6265 62.965C40.7141 62.9103 40.7814 62.8284 40.8182 62.732C40.855 62.6355 40.8593 62.5296 40.8305 62.4305C40.8016 62.3313 40.7412 62.2443 40.6583 62.1827C40.5755 62.121 40.4747 62.0881 40.3715 62.089Z" fill="#38A1FF"/>
<path d="M124.805 23.3293C124.442 23.3109 124.081 23.2864 123.741 23.2864C123.57 22.755 123.422 22.2229 123.252 21.6915C123.223 21.5923 123.163 21.5051 123.08 21.4431C122.998 21.3811 122.897 21.3475 122.794 21.3475C122.691 21.3475 122.591 21.3811 122.508 21.4431C122.425 21.5051 122.365 21.5923 122.337 21.6915C122.187 22.1808 122.039 22.6486 121.911 23.1379C121.401 23.0743 120.915 23.0315 120.401 22.9465C120.28 22.9189 120.153 22.9347 120.043 22.9912C119.933 23.0477 119.846 23.1413 119.797 23.2555C119.749 23.3697 119.743 23.4973 119.779 23.6158C119.816 23.7343 119.893 23.8362 119.997 23.9036C120.422 24.1594 120.826 24.4396 121.23 24.7122C120.95 25.1962 120.769 25.7315 120.699 26.2865C120.699 26.3715 120.997 27.0943 121.422 26.7329C121.84 26.4106 122.281 26.1191 122.741 25.8608C123.081 26.1586 123.422 26.4565 123.762 26.7796C123.844 26.8594 123.95 26.91 124.064 26.9238C124.178 26.9375 124.293 26.9136 124.392 26.8556C124.491 26.7977 124.568 26.709 124.612 26.603C124.655 26.4971 124.663 26.3797 124.634 26.2689C124.507 25.8011 124.357 25.35 124.23 24.886C124.507 24.6946 124.805 24.5032 125.081 24.3117C125.176 24.249 125.248 24.1579 125.287 24.0516C125.327 23.9452 125.332 23.829 125.301 23.7198C125.27 23.6105 125.205 23.5139 125.116 23.4437C125.027 23.3735 124.918 23.3335 124.805 23.3293Z" fill="#38A1FF"/>
<path d="M118.294 23.3508C117.869 23.3209 117.465 23.3293 117.039 23.3293C116.933 22.9679 116.848 22.6057 116.763 22.2443C116.731 22.136 116.666 22.0409 116.576 21.9732C116.485 21.9055 116.376 21.8689 116.263 21.8689C116.15 21.8689 116.04 21.9055 115.95 21.9732C115.86 22.0409 115.794 22.136 115.763 22.2443C115.656 22.6272 115.533 23.01 115.402 23.3722C114.848 23.3964 114.294 23.3893 113.742 23.3508C113.624 23.3545 113.51 23.3962 113.417 23.4697C113.324 23.5432 113.257 23.6445 113.226 23.7588C113.195 23.8731 113.202 23.9943 113.245 24.1046C113.288 24.2149 113.366 24.3085 113.466 24.3715C113.87 24.6058 114.295 24.8401 114.699 25.0736C114.524 25.487 114.361 25.9055 114.21 26.3286C114.082 26.7115 114.593 26.9458 114.869 26.7115C114.934 26.6479 115.788 26.0522 116.082 25.8608C116.465 26.0736 116.869 26.3079 117.252 26.52C117.356 26.5738 117.475 26.593 117.591 26.575C117.706 26.557 117.814 26.5027 117.896 26.4198C117.979 26.337 118.034 26.23 118.052 26.1143C118.07 25.9985 118.051 25.88 117.997 25.7758C117.848 25.4779 117.72 25.1586 117.592 24.8607C117.912 24.6486 118.231 24.4572 118.55 24.265C118.997 24.0315 118.763 23.3837 118.294 23.3508Z" fill="#38A1FF"/>
<path d="M111.534 23.6057H110.232C110.062 23.1807 109.891 22.7764 109.721 22.3507C109.593 22.01 109.041 21.8147 108.849 22.2443L108.275 23.5843C107.701 23.5843 107.105 23.5636 106.531 23.5422C106.429 23.5442 106.33 23.5792 106.25 23.642C106.17 23.7048 106.112 23.7919 106.086 23.8902C106.06 23.9886 106.066 24.0929 106.104 24.1874C106.142 24.2819 106.209 24.3615 106.296 24.4143C106.679 24.6272 107.083 24.84 107.466 25.0315C107.26 25.4325 107.076 25.8443 106.913 26.265C106.869 26.3565 106.854 26.4598 106.872 26.5601C106.89 26.6603 106.938 26.7525 107.012 26.8232C107.085 26.894 107.178 26.9399 107.279 26.9542C107.38 26.9685 107.483 26.9505 107.573 26.9029C107.594 26.8822 108.786 26.2015 109.211 25.9672L110.551 26.7329C110.633 26.7793 110.726 26.8008 110.82 26.7947C110.913 26.7886 111.003 26.7552 111.077 26.6986C111.152 26.642 111.209 26.5647 111.24 26.4764C111.271 26.388 111.275 26.2924 111.253 26.2015C111.126 25.8186 110.976 25.4358 110.828 25.0529C111.146 24.8829 111.466 24.6915 111.785 24.5215C111.873 24.4633 111.94 24.3789 111.976 24.2804C112.013 24.1819 112.018 24.0743 111.99 23.9728C111.963 23.8714 111.904 23.7813 111.822 23.7154C111.74 23.6495 111.639 23.6111 111.534 23.6057Z" fill="#38A1FF"/>
<path d="M98.8299 24.4143C99.2127 24.6226 99.617 24.8401 99.9999 25.0315C99.7939 25.4327 99.6091 25.8445 99.4463 26.2651C99.4014 26.3566 99.3868 26.4601 99.4044 26.5605C99.422 26.6609 99.471 26.7532 99.5443 26.824C99.6177 26.8949 99.7115 26.9407 99.8125 26.9548C99.9135 26.969 100.016 26.9508 100.106 26.9029C100.648 26.5843 101.194 26.2723 101.744 25.9672L103.084 26.7329C103.166 26.7796 103.259 26.8012 103.353 26.7953C103.446 26.7893 103.536 26.7559 103.611 26.6993C103.686 26.6426 103.742 26.5653 103.773 26.4768C103.805 26.3883 103.809 26.2925 103.786 26.2015C103.658 25.8187 103.51 25.4358 103.361 25.0529C103.68 24.883 103.999 24.6915 104.319 24.5215C104.41 24.4648 104.48 24.38 104.519 24.2799C104.558 24.1798 104.564 24.0698 104.535 23.9663C104.506 23.8628 104.444 23.7715 104.359 23.7059C104.274 23.6404 104.17 23.6041 104.063 23.6027H102.765C102.595 23.1777 102.425 22.7734 102.255 22.3477C102.127 22.0077 101.573 21.8163 101.382 22.2412L100.808 23.5812C100.234 23.5812 99.6385 23.5606 99.0634 23.5391C98.9625 23.5435 98.8656 23.58 98.7868 23.6433C98.708 23.7066 98.6515 23.7934 98.6254 23.891C98.5994 23.9886 98.6052 24.092 98.6419 24.1862C98.6787 24.2803 98.7445 24.3602 98.8299 24.4143Z" fill="#38A1FF"/>
<path d="M101.979 63.9397C101.522 63.2263 100.92 62.6173 100.212 62.1525C97.3729 60.1265 93.7748 62.5423 93.3414 65.769C93.1714 67.1305 93.0435 69.7048 94.2135 71.665C94.7749 72.6547 95.6988 73.3875 96.7903 73.709C97.8818 74.0304 99.0554 73.9153 100.064 73.3879C103.003 71.8871 103.595 66.6595 101.979 63.9397ZM100.979 70.6014C100.914 70.6594 100.834 70.6979 100.749 70.7124C100.663 70.727 100.575 70.7169 100.495 70.6835C100.415 70.6501 100.346 70.5947 100.296 70.5236C100.246 70.4526 100.217 70.3688 100.213 70.2821C100.256 69.155 100.682 68.1121 100.618 66.9635C100.618 66.3496 100.496 65.7418 100.259 65.1757C100.021 64.6096 99.6731 64.0965 99.2351 63.6664C98.8729 63.3471 99.3637 62.7276 99.7458 63.0071C100.299 63.4221 100.761 63.9455 101.105 64.5453C101.449 65.1451 101.667 65.8088 101.745 66.4957C101.936 67.7905 101.914 69.5769 100.979 70.5984V70.6014Z" fill="#38A1FF"/>
<path d="M63.9833 31.3708C63.1747 28.6908 46.3282 29.9305 44.3044 30.3708C43.7975 30.4235 43.3319 30.6743 43.0092 31.0688C42.6865 31.4632 42.5328 31.9692 42.5815 32.4765C42.5479 34.3702 42.0287 42.1138 42.3258 44.071C42.7944 47.2188 45.6237 47.0274 48.1552 47.1124C49.6016 47.1553 55.7495 47.0489 55.7495 47.0489C60.5735 50.5091 59.8645 50.124 59.961 50.0275C60.046 49.3889 59.5567 46.9853 60.5988 46.836C61.0245 46.7724 63.1096 46.7724 63.5139 46.0917C64.4741 44.496 64.1762 31.9658 63.9833 31.3708ZM48.391 39.623C48.1069 39.6506 47.8231 39.5659 47.6006 39.387C47.3781 39.2082 47.2344 38.9493 47.2003 38.6658C47.2009 38.4728 47.2536 38.2835 47.3528 38.118C47.452 37.9524 47.5941 37.8167 47.764 37.7252C47.934 37.6337 48.1255 37.5897 48.3183 37.598C48.5111 37.6063 48.6982 37.6665 48.8596 37.7722C49.0375 37.8861 49.175 38.0531 49.2527 38.2495C49.3304 38.4459 49.3443 38.6618 49.2924 38.8665C49.2406 39.0712 49.1256 39.2545 48.9638 39.3902C48.8021 39.526 48.6017 39.6074 48.391 39.623ZM53.3268 39.623C52.3482 39.623 52.1568 39.0701 52.1354 38.6658C52.1359 38.4728 52.1886 38.2835 52.2878 38.118C52.3871 37.9524 52.5291 37.8167 52.6991 37.7252C52.869 37.6337 53.0605 37.5897 53.2533 37.598C53.4462 37.6063 53.6332 37.6665 53.7947 37.7722C53.972 37.8864 54.1091 38.0533 54.1865 38.2495C54.2639 38.4457 54.2777 38.6613 54.226 38.8658C54.1743 39.0703 54.0597 39.2533 53.8984 39.3892C53.737 39.5251 53.5371 39.6068 53.3268 39.623ZM58.1562 39.623C57.1133 39.623 56.9854 39.0701 56.9647 38.6658C56.9657 38.473 57.0186 38.2841 57.1179 38.1189C57.2172 37.9537 57.3592 37.8183 57.5289 37.7269C57.6987 37.6356 57.8899 37.5918 58.0825 37.6C58.2751 37.6083 58.4619 37.6683 58.6233 37.7738C58.7987 37.8889 58.9338 38.0558 59.01 38.2513C59.0861 38.4468 59.0994 38.6612 59.048 38.8646C58.9966 39.068 58.8831 39.2504 58.7233 39.3863C58.5634 39.5222 58.3652 39.6049 58.1562 39.623Z" fill="#38A1FF"/>
<path d="M149.396 65.1978C149.422 64.9461 149.398 64.6917 149.326 64.4492C149.253 64.2068 149.134 63.9811 148.973 63.7853C148.813 63.5895 148.615 63.4274 148.392 63.3084C148.169 63.1894 147.924 63.1159 147.672 63.0921C145.673 62.6663 128.803 61.4328 127.993 64.1128C127.823 64.7085 127.525 77.2386 128.461 78.8336C128.865 79.5143 130.95 79.5143 131.375 79.5786C132.524 79.7425 131.853 82.6721 132.036 82.8544C132.036 82.8123 136.481 80.2594 136.481 80.2594C136.481 80.2594 142.373 79.8972 143.821 79.8551C146.352 79.7701 149.181 79.9401 149.649 76.8129C149.949 74.8527 149.429 67.1121 149.396 65.1978ZM135.015 71.3886C134.972 71.7921 134.845 72.4307 133.823 72.3457C133.615 72.3308 133.417 72.2508 133.257 72.1171C133.097 71.9834 132.983 71.8028 132.931 71.6007C132.887 71.4089 132.899 71.2088 132.963 71.023C133.027 70.8371 133.142 70.6729 133.294 70.5486C133.446 70.4244 133.63 70.3451 133.825 70.3197C134.02 70.2942 134.219 70.3236 134.398 70.4046C134.588 70.4857 134.75 70.6231 134.86 70.7985C134.97 70.9738 135.024 71.1786 135.015 71.3855V71.3886ZM139.823 71.3886C139.78 71.7921 139.695 72.3457 138.631 72.3457C138.421 72.3384 138.219 72.2611 138.057 72.1262C137.895 71.9913 137.783 71.8064 137.738 71.6007C137.696 71.4091 137.708 71.2097 137.772 71.0246C137.837 70.8395 137.952 70.6761 138.104 70.5526C138.257 70.429 138.44 70.3503 138.635 70.3251C138.829 70.2999 139.027 70.3293 139.206 70.41C139.395 70.4909 139.556 70.6276 139.666 70.8018C139.776 70.976 139.831 71.1795 139.823 71.3855V71.3886ZM144.779 71.41C144.737 71.8135 144.503 72.3457 143.567 72.3671C143.356 72.351 143.156 72.2685 142.995 72.1314C142.834 71.9944 142.72 71.8099 142.671 71.6043C142.621 71.3988 142.638 71.1828 142.719 70.9874C142.799 70.7919 142.94 70.6271 143.12 70.5164C143.281 70.4092 143.468 70.3477 143.661 70.3385C143.854 70.3293 144.046 70.3727 144.217 70.4642C144.387 70.5556 144.529 70.6916 144.628 70.8577C144.728 71.0237 144.78 71.2136 144.779 71.4069V71.41Z" fill="#38A1FF"/>
<path d="M77.4291 73.6406C77.0891 73.6168 76.9613 74.0655 77.1527 74.2784C78.7691 76.0442 82.322 74.2363 82.283 72.0019C82.2797 71.9108 82.2474 71.8231 82.1906 71.7517C82.1339 71.6803 82.0558 71.629 81.9677 71.6053C81.8796 71.5815 81.7863 71.5867 81.7014 71.6199C81.6164 71.6531 81.5444 71.7127 81.4958 71.7898C81.1525 72.5302 80.5877 73.1456 79.8794 73.551C79.0455 73.9805 78.302 73.6972 77.4291 73.6406Z" fill="#191919"/>
<path d="M75.4686 54.3032C75.1301 54.5819 75.49 55.1325 75.8943 55.026C77.1064 54.6432 77.915 55.5153 77.8936 56.7106C77.8591 58.1563 76.5153 60.0935 75.4686 64.4543C75.0428 66.1771 74.0007 70.985 77.2979 70.6022C77.6386 70.5593 77.7872 70.0279 77.3829 69.9429C74.7879 69.4107 76.3407 65.3264 76.7871 63.6885C77.9212 59.6739 80.0483 56.8346 78.3829 54.7113C78.2214 54.4892 78.0168 54.3019 77.7813 54.1605C77.5459 54.0192 77.2843 53.9267 77.0124 53.8886C76.7404 53.8505 76.4635 53.8676 76.1983 53.9388C75.9331 54.0101 75.6849 54.134 75.4686 54.3032Z" fill="#191919"/>
<path d="M83.5769 62.0675C84.619 62.177 86.1083 61.3018 85.9805 60.1104C85.9769 60.0147 85.9431 59.9226 85.8839 59.8473C85.8247 59.772 85.7431 59.7175 85.6509 59.6915C85.5587 59.6655 85.4607 59.6695 85.3709 59.7028C85.2811 59.7361 85.2042 59.797 85.1512 59.8768C84.789 60.4082 84.5126 61.004 83.7683 61.0254C83.4144 61.0125 83.0771 60.8717 82.819 60.6291C82.5609 60.3865 82.3995 60.0586 82.3648 59.7061C82.3606 59.6158 82.3217 59.5306 82.2563 59.4682C82.191 59.4058 82.1041 59.371 82.0137 59.371C81.9233 59.371 81.8364 59.4058 81.771 59.4682C81.7057 59.5306 81.6668 59.6158 81.6626 59.7061C81.6216 60.2693 81.7967 60.827 82.1523 61.2657C82.5079 61.7044 83.0174 61.9911 83.5769 62.0675Z" fill="#191919"/>
<path d="M76.2348 59.5361C76.233 59.4623 76.2122 59.3902 76.1742 59.3268C76.1363 59.2635 76.0826 59.211 76.0183 59.1746C75.9541 59.1382 75.8815 59.1191 75.8076 59.1191C75.7338 59.1191 75.6612 59.1382 75.597 59.1747C75.3627 59.3018 75.1712 59.579 74.8519 59.5146C74.5541 59.4511 74.4476 59.1318 74.3626 58.8768C74.3467 58.822 74.3151 58.7731 74.2716 58.7362C74.2282 58.6993 74.1748 58.676 74.1182 58.6691C74.0616 58.6623 74.0042 58.6722 73.9532 58.6977C73.9022 58.7232 73.8598 58.7631 73.8312 58.8125C73.76 58.9677 73.7224 59.1363 73.7208 59.3071C73.7191 59.4779 73.7535 59.6471 73.8218 59.8037C73.89 59.9603 73.9905 60.1007 74.1166 60.2159C74.2428 60.331 74.3919 60.4182 74.5541 60.4718C75.1957 60.7061 76.2846 60.3439 76.2348 59.5361Z" fill="#191919"/>
<path d="M82.6201 55.4089C84.6806 54.9073 86.1936 56.2175 87.2358 57.7918C87.2905 57.8804 87.3752 57.9463 87.4746 57.9776C87.5739 58.0088 87.6812 58.0032 87.7767 57.9618C87.8723 57.9205 87.9497 57.8461 87.9949 57.7523C88.0402 57.6585 88.0501 57.5516 88.0229 57.451C87.6401 54.9839 84.4922 54.0053 82.4286 54.7496C82.3458 54.7788 82.2773 54.8386 82.2372 54.9167C82.1971 54.9949 82.1884 55.0854 82.2129 55.1697C82.2373 55.254 82.2932 55.3258 82.3689 55.3703C82.4446 55.4147 82.5345 55.4286 82.6201 55.4089Z" fill="#191919"/>
<path d="M70.1531 80.6178C71.3017 81.2303 73.2803 81.1071 73.6425 80.1285C74.4503 77.937 72.0896 76.1077 69.8346 77.0013C69.0024 75.9094 68.4474 74.6319 68.2174 73.2784C67.8116 70.9407 68.5773 68.9605 69.196 66.7476C69.3024 66.3648 68.7917 66.1948 68.5796 66.4926C66.1538 69.8327 66.4945 74.8956 69.026 78.0863C68.9127 78.5734 68.9614 79.0842 69.1649 79.5411C69.3683 79.998 69.7153 80.376 70.1531 80.6178Z" fill="#191919"/>
<path d="M145.971 138.906C144.327 138.854 142.681 138.819 141.036 138.8C141.419 132.971 141.929 127.142 142.036 121.292C142.035 121.21 142.015 121.129 141.978 121.055C141.94 120.982 141.887 120.918 141.821 120.869C141.755 120.82 141.679 120.786 141.598 120.771C141.517 120.756 141.434 120.76 141.355 120.782C139.413 121.4 137.393 121.735 135.356 121.777C133.301 121.776 131.256 121.504 129.272 120.969C129.196 120.949 129.116 120.945 129.038 120.96C128.96 120.975 128.887 121.007 128.823 121.054C128.76 121.101 128.708 121.162 128.672 121.232C128.635 121.302 128.615 121.38 128.613 121.459C128.625 127.276 129.173 133.079 130.251 138.796C128.588 138.813 111.161 138.768 90.8699 138.709C99.4734 138.245 109.66 134.761 115.976 128.904C115.716 131.915 115.16 134.893 114.317 137.796C114.189 138.264 114.934 138.626 115.146 138.137C115.815 136.438 116.286 134.668 116.551 132.861C116.954 131.241 117.104 129.57 116.998 127.904C119.516 125.339 121.425 122.241 122.585 118.839C123.745 115.436 124.125 111.817 123.698 108.248C122.82 99.4628 119.257 92.9802 111.381 88.4641C112.678 88.1057 113.845 87.382 114.743 86.379C115.217 85.8488 115.56 85.2145 115.745 84.5274C115.93 83.8402 115.951 83.1193 115.806 82.4226C115.465 81.0818 114.317 80.3551 113.126 79.8054C111.82 79.1864 110.719 78.2041 109.957 76.976C107.191 72.956 108.34 67.6588 108.318 65.1274C108.233 56.5514 108.085 44.1093 99.2989 39.5142C94.2359 36.8549 86.5773 37.2592 83.408 42.5135C84.6995 42.3696 86.0056 42.4272 87.2794 42.6843C89.9101 43.1179 92.2965 44.4847 94.0016 46.5343C95.7172 48.5464 97.0251 50.873 97.8524 53.3844C98.5546 55.2987 100.128 61.1702 100.128 61.1702C101.087 61.7275 101.897 62.5085 102.49 63.4466C104.323 66.6282 103.628 72.469 100.299 74.1896C99.3117 74.7151 98.1746 74.8877 97.076 74.6788C95.9773 74.4699 94.9829 73.8921 94.2574 73.041C93.8101 75.7222 94.0442 78.4727 94.9381 81.0397C95.576 82.869 96.2567 84.8261 97.746 85.9962C96.628 86.6348 91.0697 91.3477 89.0666 92.4848C86.7266 93.8034 82.3651 95.7605 81.5358 91.8248C81.4508 91.3998 80.8122 91.5912 80.8765 91.9948C81.9401 97.7376 89.0697 93.6969 91.853 91.8677C92.9166 91.1655 96.8738 87.7833 97.9374 87.0812C101.49 84.7197 106.595 87.1447 109.893 88.9319C113.747 90.8922 117.003 93.8546 119.317 97.5079C121.556 101.573 122.72 106.142 122.699 110.782C122.763 119.887 117.593 127.525 109.872 132.034C105.789 134.33 101.353 135.934 96.746 136.781C91.9809 137.739 86.8966 138.1 82.1974 136.717C81.7259 134.479 81.7332 132.166 82.2188 129.931C85.3247 130.605 88.5502 130.483 91.5968 129.579C94.6434 128.675 97.4126 127.016 99.6481 124.757C101.884 122.499 103.513 119.712 104.386 116.656C105.258 113.601 105.346 110.374 104.64 107.275C104.47 106.425 103.152 106.786 103.343 107.637C103.994 110.565 103.887 113.612 103.033 116.488C102.178 119.364 100.604 121.974 98.4598 124.072C96.3151 126.17 93.6706 127.686 90.7766 128.477C87.8825 129.268 84.8345 129.307 81.921 128.591C81.7632 128.55 81.5956 128.571 81.4531 128.651C81.3105 128.73 81.2039 128.861 81.1553 129.016C80.9892 129.699 80.8543 130.389 80.751 131.084C79.5794 130.317 78.2609 129.803 76.8795 129.574C73.4246 128.833 71.2523 130.25 68.2637 132.147C66.7691 132.946 65.3456 133.872 64.0086 134.913C63.7322 135.168 64.03 135.722 64.3915 135.572C68.7652 133.753 71.7584 129.375 76.8359 130.552C78.1429 130.931 79.4221 131.4 80.6644 131.956C80.518 133.469 80.5954 134.996 80.8941 136.487C81.1284 137.679 81.3834 137.742 82.5328 138.04C83.9571 138.399 85.412 138.622 86.8782 138.707L79.9048 138.686C80.0234 138.553 80.1138 138.396 80.1705 138.227C80.2272 138.057 80.2491 137.878 80.2349 137.699C80.243 137.146 80.0796 136.604 79.767 136.147C79.2563 135.636 68.0033 136.232 63.259 136.04C61.5361 132.53 59.8554 128.996 58.1532 125.468C62.1 124.098 65.63 121.739 68.4069 118.618C68.4482 121.858 69.2599 127.108 71.0662 129.637C71.4069 130.105 72.2148 129.85 72.0233 129.233C71.4705 127.382 70.5348 125.68 70.1091 123.766C68.8732 117.788 69.6356 111.569 72.2791 106.066C72.327 105.982 72.3393 105.881 72.3133 105.788C72.2874 105.694 72.2252 105.614 72.1405 105.566C72.0558 105.518 71.9556 105.506 71.8618 105.532C71.768 105.558 71.6884 105.62 71.6405 105.705C69.7242 109.1 68.6244 112.895 68.4283 116.789C65.5672 120.248 61.8999 122.951 57.7489 124.659C56.1539 121.341 54.5582 117.998 52.9417 114.682C56.4158 111.021 60.752 103.434 64.9183 99.0256C70.7898 92.7712 75.5977 91.154 77.1927 90.6862C81.7456 89.4097 82.7242 90.7711 82.8092 90.1969C83.0605 88.6277 83.1531 87.0372 83.0856 85.4494C83.0942 84.2754 82.9657 83.1043 82.7028 81.9601C85.1492 81.4287 87.1278 79.408 86.745 76.6208C86.6806 76.1315 85.9149 76.2808 85.8935 76.7272C85.8341 77.6477 85.4853 78.5259 84.897 79.2365C84.3088 79.947 83.511 80.4535 82.6178 80.6836C81.6286 80.8618 80.6113 80.8023 79.6496 80.5102C78.6878 80.2182 77.8093 79.7018 77.0862 79.0037C74.4484 76.6636 72.9805 72.8979 72.2998 69.5157C71.6175 66.1087 71.7661 62.5876 72.7329 59.2502C73.6998 55.9129 75.4565 52.8576 77.8543 50.343C77.9135 50.2838 77.9467 50.2035 77.9467 50.1198C77.9467 50.036 77.9135 49.9558 77.8543 49.8966C77.7951 49.8374 77.7148 49.8041 77.6311 49.8041C77.5473 49.8041 77.467 49.8374 77.4078 49.8966C75.1221 52.0923 73.3495 54.7658 72.2169 57.7261C71.0842 60.6864 70.6194 63.8603 70.8556 67.021C71.2385 72.6375 74.0716 81.1254 80.5993 81.9976C80.9876 82.0434 81.3789 82.0574 81.7693 82.0397C81.8099 84.3483 82.3635 84.2496 81.9179 89.0605C81.8965 89.0605 81.8965 89.0391 81.8758 89.0391C78.7907 88.3584 75.3236 89.6984 72.6214 91.1234C66.1013 94.5454 62.0193 100.265 57.9197 106.143C56.1539 108.674 54.2817 111.12 52.431 113.588C51.6439 111.95 46.8367 102.715 46.1131 102.485C45.3627 102.243 10.8902 102.814 7.01267 103.549C5.09838 103.91 6.80056 106.591 7.26842 107.633C11.4163 117.142 23.095 138.479 23.1187 138.5C19.0336 138.437 15.0787 138.394 10.9714 138.352C10.8784 138.352 10.7892 138.389 10.7234 138.455C10.6577 138.52 10.6207 138.61 10.6207 138.703C10.6207 138.796 10.6577 138.885 10.7234 138.951C10.7892 139.016 10.8784 139.053 10.9714 139.053C45.3918 140.7 137.258 140.061 145.928 139.692C145.981 139.699 146.036 139.694 146.088 139.679C146.14 139.664 146.188 139.638 146.229 139.603C146.271 139.569 146.305 139.526 146.329 139.478C146.353 139.429 146.367 139.376 146.37 139.322C146.373 139.268 146.365 139.214 146.346 139.164C146.328 139.113 146.299 139.067 146.261 139.028C146.224 138.989 146.179 138.958 146.129 138.937C146.079 138.916 146.025 138.906 145.971 138.906ZM139.972 138.8C136.994 138.778 134.016 138.8 131.058 138.821C130.237 133.305 129.776 127.74 129.676 122.164C131.541 122.63 133.455 122.866 135.377 122.866C137.265 122.832 139.139 122.546 140.951 122.015C140.823 127.631 140.334 133.205 139.972 138.8Z" fill="#191919"/>
<path d="M32.0956 119.334C31.7978 119.036 30.7771 118.291 29.947 119.036C28.692 120.142 30.5642 122.971 32.0145 122.886C34.3085 122.76 32.6492 119.76 32.0956 119.334Z" fill="#38A1FF"/>
<path d="M131.527 120.696C131.322 118.507 131.356 116.102 130.803 113.974C130.775 113.877 130.713 113.794 130.628 113.739C130.544 113.684 130.443 113.661 130.343 113.674C130.243 113.687 130.151 113.735 130.084 113.809C130.016 113.884 129.977 113.98 129.974 114.08C129.931 116.272 130.505 118.633 130.803 120.802C130.867 121.207 131.567 121.122 131.527 120.696Z" fill="#191919"/>
<path d="M134.463 120.611C134.152 117.127 133.995 113.697 134.015 110.187C133.999 110.058 133.936 109.939 133.838 109.852C133.74 109.766 133.614 109.718 133.484 109.718C133.353 109.718 133.227 109.766 133.129 109.852C133.031 109.939 132.968 110.058 132.952 110.187C132.752 113.718 133.024 117.259 133.76 120.717C133.788 120.798 133.842 120.866 133.914 120.91C133.987 120.954 134.072 120.971 134.156 120.958C134.24 120.946 134.316 120.904 134.373 120.84C134.429 120.777 134.46 120.696 134.463 120.611Z" fill="#191919"/>
<path d="M138.27 120.292C138.658 118.162 138.844 115.952 139.057 113.804C139.4 111.536 139.584 109.247 139.61 106.954C139.607 106.834 139.562 106.72 139.482 106.631C139.403 106.543 139.294 106.485 139.176 106.47C139.057 106.454 138.938 106.482 138.838 106.547C138.738 106.612 138.665 106.711 138.632 106.826C138.245 108.977 137.996 111.151 137.887 113.334C137.674 115.611 137.398 117.908 137.398 120.184C137.398 120.654 138.181 120.781 138.27 120.292Z" fill="#191919"/>
<path d="M148.694 20.5429C148.609 18.9686 148.864 17.0329 147.418 16.0328C145.461 14.6921 142.588 14.5435 140.313 14.3735C133.021 13.761 120.624 14.5872 118.107 15.1178C116.958 15.3521 116.491 16.4578 116.342 17.5428C116.246 18.6329 116.246 19.7293 116.342 20.8193C116.347 20.9513 116.403 21.0761 116.498 21.1676C116.593 21.2591 116.72 21.3103 116.852 21.3103C116.984 21.3103 117.111 21.2591 117.206 21.1676C117.302 21.0761 117.358 20.9513 117.363 20.8193C117.363 19.7343 117.001 16.3728 118.192 16.1599C124.928 15.3028 131.724 15.0182 138.508 15.3092C141.019 15.4371 143.868 15.5435 146.188 16.5857C146.462 16.6678 146.715 16.8096 146.929 17.0008C147.142 17.1921 147.31 17.4282 147.422 17.6921C147.422 18.2634 148.535 35.2431 147.762 37.5609C147.337 38.9009 145.209 39.5609 143.912 39.5824C141.332 39.6666 133.739 39.2286 130.129 39.1352C129.235 39.1138 124.364 44.4952 124.364 44.4952C124.364 44.4952 124.3 41.5595 124.257 40.0916C124.254 40.0073 124.233 39.9247 124.194 39.8498C124.155 39.775 124.1 39.7097 124.033 39.6588C123.965 39.6079 123.888 39.5726 123.805 39.5556C123.722 39.5385 123.637 39.5401 123.555 39.5602C121.704 39.8366 119.471 39.8787 117.939 38.6237C117.024 37.8794 117.067 36.5394 117.046 35.4544C116.982 33.0715 117.471 30.4773 116.982 28.115C116.918 27.7536 116.301 27.8386 116.344 28.2C116.62 31.1358 115.748 34.1144 116.131 37.0708C116.578 40.4744 120.258 40.9852 123.172 40.6873C123.215 42.4745 123.279 44.2617 123.321 46.0473C123.325 46.163 123.366 46.2744 123.438 46.3653C123.51 46.4563 123.608 46.5219 123.72 46.5528C123.832 46.5836 123.95 46.578 124.058 46.5368C124.166 46.4956 124.259 46.421 124.322 46.3237C125.989 44.097 127.878 42.0447 129.959 40.198C130.086 40.2195 136.702 40.5173 139.872 40.6023C142.659 40.6873 146.956 41.2616 148.615 38.2837C149.572 36.5601 148.811 22.4863 148.694 20.5429Z" fill="#191919"/>
<path d="M124.422 37.3909C124.428 37.4771 124.466 37.5579 124.529 37.6169C124.592 37.676 124.675 37.7088 124.762 37.7088C124.848 37.7088 124.931 37.676 124.995 37.6169C125.058 37.5579 125.096 37.4771 125.102 37.3909C125.417 31.4757 127.582 29.2743 130.697 28.0729C131.058 27.9458 131.058 27.3072 130.59 27.3501C128.633 27.4986 127.017 28.9665 125.996 30.5661C124.677 32.6258 124.433 34.9873 124.422 37.3909Z" fill="#191919"/>
<path d="M127.804 32.328C127.421 34.0497 127.179 35.7998 127.081 37.5609C127.084 37.6563 127.12 37.7477 127.184 37.8187C127.248 37.8897 127.334 37.9357 127.429 37.9485C127.524 37.9613 127.62 37.94 127.7 37.8885C127.78 37.837 127.84 37.7586 127.867 37.6673C128.198 35.9339 128.39 34.1769 128.442 32.413C128.463 32.0723 127.865 31.9873 127.804 32.328Z" fill="#191919"/>
<path d="M141.695 31.9658C142.982 29.6312 142.014 26.8355 140.376 24.9458C140.1 24.6264 139.653 25.0307 139.823 25.3707C140.611 26.9236 141.568 28.5615 141.206 30.3701C140.908 31.8594 138.972 34.0501 137.483 32.3694C137.431 32.3195 137.365 32.2878 137.293 32.2791C137.222 32.2704 137.149 32.2852 137.087 32.3212C137.025 32.3573 136.976 32.4126 136.947 32.4788C136.919 32.5451 136.913 32.6187 136.931 32.6887C137.011 32.9497 137.149 33.1896 137.334 33.3908C137.191 34.2231 136.956 36.5685 137.249 37.3725C137.271 37.4462 137.315 37.5109 137.377 37.5569C137.438 37.603 137.513 37.6278 137.589 37.6278C137.666 37.6278 137.741 37.603 137.802 37.5569C137.864 37.5109 137.908 37.4462 137.93 37.3725C138.031 36.1983 138.066 35.0193 138.036 33.8411C139.271 34.2423 141.084 33.0753 141.695 31.9658Z" fill="#191919"/>
<path d="M137.845 30.7322C139.066 29.9803 139.993 28.4772 139.483 27.0093C139.462 26.9428 139.417 26.8859 139.358 26.8489C139.299 26.8118 139.228 26.7971 139.159 26.8074C139.09 26.8176 139.027 26.8521 138.981 26.9047C138.935 26.9572 138.909 27.0245 138.908 27.0943C138.928 27.5839 138.836 28.0715 138.641 28.5209C138.446 28.9703 138.152 29.3699 137.781 29.6901C137.353 29.0102 136.784 28.4304 136.113 27.9899C135.441 27.5494 134.682 27.2586 133.888 27.1372C133.852 27.1272 133.814 27.1244 133.777 27.129C133.739 27.1336 133.703 27.1455 133.67 27.164C133.638 27.1826 133.609 27.2074 133.586 27.2371C133.562 27.2668 133.545 27.3008 133.535 27.3371C133.525 27.3734 133.522 27.4113 133.527 27.4487C133.532 27.4861 133.544 27.5222 133.562 27.555C133.581 27.5877 133.606 27.6165 133.635 27.6397C133.665 27.6629 133.699 27.68 133.735 27.6901C134.481 27.9071 135.175 28.2736 135.775 28.7674C136.375 29.2612 136.868 29.8719 137.224 30.5623C137.252 30.6155 137.291 30.6623 137.338 30.7C137.385 30.7376 137.439 30.7653 137.498 30.7812C137.556 30.7971 137.617 30.801 137.676 30.7926C137.736 30.7841 137.793 30.7636 137.845 30.7322Z" fill="#191919"/>
<path d="M137.44 26.3286C136.325 25.0644 135.005 27.9029 136.717 27.9029C139.695 27.9029 140.525 22.5636 139.972 21.2657C139.589 20.3515 138.079 20.0536 137.802 21.2443C137.767 21.4123 137.782 21.5868 137.845 21.7464C137.908 21.906 138.016 22.0439 138.156 22.1432C138.296 22.2425 138.461 22.2989 138.633 22.3056C138.804 22.3122 138.974 22.2689 139.121 22.1808C139.121 22.3293 138.972 24.8822 137.44 26.3286Z" fill="#191919"/>
<path d="M127.059 25.8179C127.249 26.0552 127.496 26.2418 127.776 26.361C128.056 26.4801 128.361 26.5281 128.664 26.5008C128.967 26.4734 129.259 26.3715 129.513 26.2041C129.768 26.0368 129.977 25.8091 130.122 25.5415C130.324 25.8933 130.615 26.1857 130.966 26.389C131.317 26.5924 131.716 26.6994 132.121 26.6994C132.527 26.6994 132.926 26.5924 133.277 26.389C133.628 26.1857 133.919 25.8933 134.121 25.5415C134.166 25.736 134.276 25.9095 134.432 26.0337C134.589 26.158 134.783 26.2256 134.982 26.2256C135.182 26.2256 135.376 26.158 135.532 26.0337C135.689 25.9095 135.799 25.736 135.844 25.5415C135.999 25.464 136.131 25.3461 136.225 25.2002C136.32 25.0543 136.373 24.8858 136.38 24.7122C136.551 24.6289 136.686 24.4847 136.756 24.3077C136.827 24.1307 136.829 23.9336 136.763 23.755C136.784 23.6425 136.784 23.5269 136.763 23.4143C136.88 23.2853 136.967 23.1314 137.016 22.9641C137.065 22.7968 137.076 22.6205 137.047 22.4484C137.019 22.2764 136.951 22.1131 136.85 21.9708C136.75 21.8286 136.618 21.711 136.465 21.6271C136.384 21.5829 136.298 21.5473 136.21 21.5207C136.252 21.2871 136.06 20.9043 135.508 20.9464C135.447 20.8409 135.367 20.7472 135.273 20.67C135.272 20.5328 135.239 20.3979 135.176 20.276C135.113 20.1541 135.023 20.0485 134.912 19.9678C134.945 19.7725 134.919 19.572 134.839 19.3908C134.759 19.2097 134.628 19.056 134.462 18.9486C134.355 18.7952 134.217 18.6663 134.057 18.5709C133.897 18.4754 133.718 18.4155 133.532 18.3953C133.347 18.3752 133.159 18.3951 132.982 18.4538C132.804 18.5126 132.642 18.6087 132.505 18.7358C132.34 18.5318 132.119 18.38 131.869 18.2986C131.619 18.2172 131.351 18.2098 131.097 18.2772C130.843 18.3446 130.614 18.4839 130.437 18.6784C130.26 18.8729 130.144 19.1143 130.101 19.3736C129.947 19.2794 129.772 19.2246 129.591 19.2142C129.411 19.2037 129.231 19.2378 129.067 19.3135C128.903 19.3892 128.76 19.5041 128.651 19.6482C128.542 19.7922 128.47 19.9609 128.442 20.1393C128.369 20.0758 127.318 20.232 128.102 21.1386C127.932 21.24 127.787 21.3778 127.677 21.5422C127.568 21.7066 127.496 21.8933 127.467 22.0889C127.439 22.2844 127.454 22.4839 127.513 22.6728C127.571 22.8616 127.67 23.0351 127.804 23.1808C127.545 23.2628 127.31 23.4078 127.121 23.6029C126.932 23.798 126.794 24.037 126.72 24.2985C126.647 24.56 126.639 24.8357 126.698 25.1009C126.757 25.3661 126.881 25.6125 127.059 25.8179ZM131.867 26.0307C129.849 25.6326 130.037 22.7971 130.08 22.6915C130.534 22.6068 130.961 22.4162 131.327 22.1352C131.693 21.8541 131.987 21.4906 132.186 21.0743C132.379 21.4882 132.69 21.8361 133.08 22.0744C133.47 22.3128 133.921 22.431 134.377 22.4143C134.34 22.8031 134.325 23.1938 134.335 23.5843C134.335 23.6272 133.529 26.3585 131.867 26.0307Z" fill="#191919"/>
<path d="M26.3305 83.1063C29.1813 84.9578 32.032 86.8293 34.7978 88.7864C34.8809 88.8355 34.9754 88.8618 35.0719 88.8627C35.1684 88.8637 35.2634 88.8392 35.3474 88.7918C35.4315 88.7444 35.5015 88.6757 35.5506 88.5926C35.5997 88.5096 35.6261 88.4151 35.627 88.3186C35.4571 86.6807 35.2656 85.0635 35.0956 83.4257C38.1799 84.2342 42.0943 84.4257 43.1793 80.6821C43.7107 78.8099 43.5836 76.6399 43.5836 74.7256C43.6043 72.2998 43.6257 69.8327 43.4128 67.4069C43.4128 67.2603 43.3546 67.1197 43.2509 67.016C43.1472 66.9123 43.0066 66.8541 42.86 66.8541C42.7134 66.8541 42.5727 66.9123 42.4691 67.016C42.3654 67.1197 42.3071 67.2603 42.3071 67.4069C42.2221 71.0663 42.5368 74.7042 42.3071 78.3628C42.2007 80.1499 41.8393 81.8942 39.9457 82.5742C38.2014 83.1913 36.2863 82.6163 34.5857 82.1063C34.5007 82.0842 34.4119 82.0818 34.3259 82.0991C34.2398 82.1165 34.1589 82.1532 34.0892 82.2064C34.0194 82.2597 33.9627 82.3282 33.9234 82.4066C33.8841 82.4851 33.8631 82.5714 33.8621 82.6592L34.3728 87.1907C32.0328 85.5949 27.1827 82.1063 26.7999 82.1484C23.7791 82.4892 11.8685 83.2549 8.99396 83.042C7.86683 82.957 6.50539 82.7227 5.82467 81.702C5.01531 80.4899 5.20674 62.135 5.31318 59.0897C5.35529 57.8133 5.35529 56.239 6.39819 55.3025C7.41889 54.3882 8.92964 54.4097 10.2061 54.3882C15.6733 54.3032 38.9035 53.3461 40.2435 53.7711C41.945 54.3032 42.0943 56.4304 42.1364 57.8983C42.1578 58.4511 43.0728 58.6425 43.1793 58.0468C43.5193 55.8132 43.0093 53.2603 40.4771 52.7289C38.7328 52.3507 38.6593 52.7588 11.4611 53.2818C9.20607 53.3247 6.24888 53.1968 4.97243 55.4939C4.49995 56.5497 4.27447 57.6994 4.31315 58.8554C4.22816 60.7276 4.22816 78.1713 4.39815 79.8521C4.62786 82.3942 5.75423 83.7764 9.01464 83.9578C10.8868 84.0857 22.459 83.5535 26.3305 83.1063Z" fill="#191919"/>
<path d="M30.0751 74.0655C29.8485 75.8935 30.0079 77.7487 30.543 79.5113C30.5723 79.6099 30.6357 79.695 30.7218 79.7514C30.808 79.8078 30.9113 79.8317 31.0135 79.8191C31.1156 79.8064 31.21 79.7579 31.2797 79.6822C31.3495 79.6064 31.3902 79.5084 31.3944 79.4056C31.3687 78.5124 31.2691 77.623 31.0966 76.7463C30.9902 75.8527 30.9434 74.9591 30.8408 74.0663C30.8409 73.9647 30.8007 73.8673 30.729 73.7954C30.6572 73.7236 30.5599 73.6831 30.4584 73.683C30.3568 73.6829 30.2594 73.7232 30.1875 73.7949C30.1157 73.8666 30.0752 73.964 30.0751 74.0655Z" fill="#191919"/>
<path d="M32.7765 72.3642C34.2444 74.77 33.772 76.5082 33.9473 77.9585C33.9894 78.2992 34.5216 78.5756 34.713 78.1713C36.004 75.2256 33.641 70.0548 29.7558 68.6413C29.7558 68.5348 28.9694 67.6412 28.7137 67.2155C28.6806 67.1609 28.6356 67.1144 28.5821 67.0795C28.5285 67.0447 28.4679 67.0223 28.4045 67.0142C28.3412 67.006 28.2768 67.0122 28.2162 67.0324C28.1555 67.0525 28.1002 67.0861 28.0544 67.1305C27.6501 67.5348 26.0758 68.2791 26.2037 68.5769C26.4441 69.2575 26.7503 69.913 27.1179 70.5341C27.1598 70.5973 27.2167 70.6491 27.2835 70.685C27.3503 70.7208 27.425 70.7396 27.5008 70.7396C27.5766 70.7396 27.6512 70.7208 27.718 70.685C27.7848 70.6491 27.8417 70.5973 27.8836 70.5341C28.2595 70.0341 28.7117 69.5964 29.2236 69.237C30.6615 69.95 31.8868 71.0284 32.7765 72.3642ZM27.5865 69.5555L27.1394 68.7898C27.5421 68.6018 27.9208 68.366 28.2673 68.0877C28.3944 68.2584 28.5222 68.4284 28.6716 68.5984C28.2801 68.882 27.9167 69.2025 27.5865 69.5555Z" fill="#191919"/>
<path d="M24.3313 70.7048C24.7601 70.1971 25.0971 69.6405 25.4799 69.0876C25.5384 68.9887 25.5556 68.8708 25.5278 68.7593C25.5 68.6478 25.4294 68.5518 25.3314 68.4919C24.9271 68.2155 24.5013 67.9812 24.097 67.7262C23.8386 67.5135 23.5321 67.3674 23.2042 67.3004C22.4561 67.3004 22.4645 68.0263 22.1192 68.1519C22.0837 68.1636 22.0509 68.1824 22.0229 68.2072C21.9949 68.232 21.9722 68.2622 21.9562 68.296C21.9403 68.3298 21.9313 68.3665 21.93 68.4039C21.9287 68.4412 21.9349 68.4785 21.9484 68.5133C21.2892 68.4919 19.3106 69.9177 18.6513 71.3212C18.0187 70.5502 17.6921 69.5733 17.734 68.5769C17.8396 68.6627 17.9461 68.7683 18.0739 68.8541C19.7332 69.8748 21.0526 68.5562 20.9071 67.7691C20.6942 66.7055 19.2478 66.0669 18.9078 67.4926C18.2704 66.9047 17.7817 66.1737 17.482 65.3599C17.1824 64.5461 17.0803 63.6728 17.1842 62.8118C17.1842 62.8333 17.9078 63.174 18.2271 62.2375C18.3436 62.0177 18.3794 61.764 18.3281 61.5205C18.2769 61.277 18.1419 61.0592 17.9467 60.9049C17.7515 60.7507 17.5083 60.6698 17.2596 60.6762C17.0109 60.6827 16.7723 60.7762 16.5854 60.9404C15.9047 61.3868 15.9475 64.5569 16.0754 65.3226C16.0111 65.344 12.7568 70.5555 15.2239 73.917C15.6385 74.5053 16.2076 74.9676 16.8683 75.2528C17.5291 75.5381 18.2558 75.6352 18.9683 75.5334C18.9217 77.1251 18.9928 78.718 19.1812 80.2992C19.2447 80.8727 20.0954 80.9156 20.0954 80.2992C20.1199 78.6049 20.0062 76.9114 19.7554 75.2355C20.1536 75.0216 20.5071 74.7333 20.7968 74.3864C21.0526 74.0456 20.6054 73.5778 20.329 73.9185C19.9736 74.2907 19.5467 74.5874 19.074 74.7907C17.5425 75.2371 15.8403 73.8971 15.3725 72.2378C14.7768 70.1106 15.7553 68.217 16.3296 66.3418C16.5371 66.92 16.8157 67.4702 17.1589 67.9796C16.8752 68.8967 16.8903 69.8803 17.2018 70.7883C17.4147 71.3626 17.8396 72.4261 18.5847 72.4476C19.3075 72.469 19.6697 71.7669 19.9247 71.2347C20.414 70.1925 22.3076 69.1075 22.329 69.0225C22.8206 69.3855 24.0779 71.0042 24.3313 70.7048ZM22.9064 68.4705C22.9913 68.3434 23.0763 68.1519 23.1361 68.1305C23.2739 68.0792 23.4515 68.2698 24.4975 69.0026L24.179 69.5769C23.7948 69.1644 23.3682 68.7936 22.9064 68.4705Z" fill="#191919"/>
<path d="M25.4381 70.2576C25.3531 69.9812 24.8424 69.8327 24.8209 70.1726C24.8187 70.298 24.8431 70.4224 24.8927 70.5375C24.9422 70.6527 25.0158 70.756 25.1083 70.8405C25.2009 70.9251 25.3104 70.9889 25.4296 71.0278C25.5488 71.0667 25.6749 71.0798 25.7995 71.0662C25.938 71.0597 26.0729 71.0201 26.1929 70.9508C26.313 70.8816 26.4147 70.7846 26.4897 70.668C26.5646 70.5514 26.6106 70.4185 26.6237 70.2805C26.6369 70.1426 26.6168 70.0034 26.5652 69.8748C26.5319 69.8178 26.482 69.7724 26.4221 69.7448C26.3621 69.7171 26.2952 69.7085 26.2302 69.7201C26.1653 69.7317 26.1055 69.763 26.0588 69.8097C26.0122 69.8564 25.981 69.9162 25.9695 69.9812C25.9274 70.3855 25.7145 70.7684 25.4381 70.2576Z" fill="#191919"/>
<path d="M25.7356 79.7671C26.0289 80.0894 26.2249 79.7242 26.4163 79.4056C26.8361 78.9202 27.1934 78.3842 27.4799 77.8099C27.6897 77.1437 27.3099 76.3604 26.5227 71.577C26.4923 71.4813 26.4277 71.4003 26.3412 71.3493C26.2548 71.2983 26.1526 71.2809 26.0541 71.3006C25.62 71.3871 25.035 71.2883 24.9906 71.577C24.6077 73.2615 24.3527 74.9806 24.0549 76.682C23.8787 77.6223 23.6153 77.4393 25.7356 79.7671ZM25.0334 75.5556C25.2325 74.3443 25.3313 73.1306 25.4798 71.8963C25.6707 71.9177 25.8633 71.9177 26.0541 71.8963C26.4799 71.9606 26.7349 76.4278 26.7992 76.9171C26.9263 77.8359 25.9906 78.9845 25.9477 79.0442C25.6379 78.6443 25.3538 78.2251 25.097 77.7892C24.6291 77.1506 24.9109 76.3007 25.0334 75.5549V75.5556Z" fill="#191919"/>
<path d="M27.352 59.2597C27.0533 59.0978 26.7108 59.0352 26.3742 59.081C26.0376 59.1269 25.7243 59.2788 25.4798 59.5147C25.1402 59.3027 24.7463 59.1939 24.3459 59.2015C23.9456 59.2091 23.5562 59.3328 23.2248 59.5575C21.5655 60.8126 22.5655 63.6847 22.6719 63.9183C23.0119 65.769 24.0119 67.6841 26.1605 67.4069C28.182 67.1519 28.8199 64.5569 28.692 62.5147C28.777 60.1533 28.0113 59.6219 27.352 59.2597ZM25.7356 63.9183C25.3534 63.9032 24.973 63.9785 24.6255 64.1382C24.2779 64.2978 23.973 64.5373 23.7355 64.8371C23.5485 64.3198 23.4131 63.7853 23.3312 63.2414C23.7049 62.2812 25.0357 61.9879 25.5227 61.1357C26.2455 61.6885 27.7777 61.7483 27.7984 62.8157C27.89 63.4545 27.8541 64.1051 27.6927 64.7299C27.6713 64.684 27.2456 64.0492 25.7356 63.9183Z" fill="#191919"/>
</svg>
