<svg width="155" height="156" viewBox="0 0 155 156" fill="none" xmlns="http://www.w3.org/2000/svg">
<path d="M92.7186 32.1213C91.3652 31.9669 90.9144 33.9255 90.9144 33.9255C90.9144 33.9255 88.4331 31.2196 87.0798 32.0464C84.3006 33.7 91.4965 39.1666 92.4175 38.3614C93.3022 37.5886 95.5001 32.3467 92.7186 32.1213Z" fill="#3D9CFB"/>
<path d="M97.1543 40.9929C96.102 40.6918 95.0498 43.173 95.0498 43.173C95.0498 43.173 94.3727 41.8197 93.471 42.1957C91.7417 42.9476 94.2222 46.3305 94.9741 46.7065C95.7261 47.0068 99.3344 41.5943 97.1543 40.9929Z" fill="#3D9CFB"/>
<path d="M79.562 90.4597C76.0286 94.068 87.6063 103.391 88.8091 101.586C90.0868 99.7816 96.1772 87.6781 91.4401 86.4753C88.2826 85.6485 86.0276 91.5876 86.0276 91.5876C86.0276 91.5876 81.4419 88.5049 79.562 90.4597Z" fill="#3D9CFB"/>
<path d="M99.9355 127.598C103.094 129.402 111.062 112.261 105.803 109.179C101.518 106.698 98.1344 111.585 98.1344 111.585C98.1344 111.585 93.3232 106.999 90.0152 109.103C82.5699 113.767 97.6063 126.319 99.9355 127.598Z" fill="#3D9CFB"/>
<path d="M97.606 84.894C98.8088 85.646 103.545 76.2476 100.162 75.3466C98.4329 74.895 97.3057 77.0759 97.3057 77.0759C97.3057 77.0759 95.351 73.4668 93.3963 74.5947C90.6889 76.1758 96.4025 84.1444 97.606 84.894Z" fill="#3D9CFB"/>
<path d="M95.6508 60.7646C95.6508 60.7646 94.4411 58.5613 93.0947 59.1866C90.29 60.4913 94.5986 66.0281 95.7967 66.6288C96.9949 67.2294 102.413 58.0595 98.8793 57.0813C97.2296 56.6297 95.6508 60.7646 95.6508 60.7646Z" fill="#3D9CFB"/>
<path d="M97.6064 105.871C98.8092 106.322 104.071 97.7522 100.54 97.2249C98.8107 96.9246 97.3817 100.758 97.3817 100.758C97.3817 100.758 96.104 98.8793 94.7507 99.5556C91.9707 100.835 96.3272 105.421 97.6064 105.871Z" fill="#3D9CFB"/>
<path d="M103.845 70.6894C104.671 70.9905 108.271 65.1773 105.875 64.7504C104.742 64.5489 103.694 67.1567 103.694 67.1567C103.694 67.1567 102.792 65.8783 101.89 66.3291C100.011 67.3049 102.943 70.3876 103.845 70.6894Z" fill="#3D9CFB"/>
<path d="M104.446 46.8566C103.093 46.4057 102.341 48.1343 102.341 48.1343C102.341 48.1343 100.537 46.1795 99.3337 46.7809C97.003 47.9845 102.267 54.4493 103.093 53.6973C103.845 52.8705 106.701 47.6062 104.446 46.8566Z" fill="#3D9CFB"/>
<path d="M37.3898 122.711C37.3898 122.711 40.8484 136.845 42.4271 140.303C48.5916 151.729 69.9422 145.265 81.6698 143.686C96.1063 139.777 129.634 139.1 126.1 119.78C125.874 119.629 119.183 113.69 119.033 113.54C118.884 113.39 119.71 117.449 119.56 120.005C118.432 132.785 89.7141 133.763 83.0231 136.319C79.2642 136.168 54.2273 142.634 48.8919 136.544C46.7118 134.74 43.4794 121.659 43.4037 121.509C38.2143 97.5269 33.2526 64.373 30.2456 39.8649C27.539 25.8067 28.2909 20.9198 45.4318 18.8154C52.9496 17.1617 48.9653 21.898 53.9239 23.476C58.5096 22.8746 78.6574 25.2801 78.8072 17.5377C78.2066 11.8248 87.4537 12.9512 93.0893 11.523C97.5245 11.0721 99.3287 11.0721 101.96 13.5526C104.517 16.0338 107.824 37.5342 107.824 37.5342C107.824 37.5342 111.433 58.9605 113.237 70.3877C118.123 72.5679 120.454 70.6881 121.961 68.7341C123.468 66.7802 116.999 26.7091 115.721 22.4986C113.09 4.08005 105.722 3.47866 89.4084 5.28284C85.499 5.73369 42.5723 12.5744 35.2807 14.0783C21.2996 18.1383 21.901 25.1304 22.4267 36.2581C26.2613 66.5532 31.9742 94.2937 37.3898 122.711Z" fill="#3D9CFB"/>
<path d="M56.6328 108.954C56.8524 108.907 57.0815 108.932 57.2851 109.027C57.4887 109.122 57.6557 109.281 57.7607 109.48C57.892 109.81 58.1062 110.102 58.3827 110.325C58.6592 110.549 58.9887 110.698 59.3395 110.758C61.2942 110.908 61.8207 108.277 62.4221 108.202C63.3238 107.976 63.6249 109.48 65.2785 109.329C66.5562 109.252 68.5866 107.3 69.4134 107.15C70.0148 106.999 71.5935 107.901 73.0974 107.675C73.3505 107.638 73.5792 107.504 73.735 107.301C73.8908 107.098 73.9616 106.843 73.9323 106.589C73.903 106.335 73.7759 106.102 73.578 105.94C73.3801 105.778 73.1269 105.699 72.872 105.721C71.2917 105.684 70.5413 105.044 69.188 105.195C67.9095 105.345 66.1771 107.45 65.2785 107.375C64.3799 107.3 63.8503 105.721 62.2715 106.097C60.6928 106.473 60.6928 108.126 59.6398 108.653C59.5434 108.33 59.3796 108.031 59.1592 107.776C58.9389 107.522 58.667 107.316 58.3616 107.174C58.0561 107.032 57.724 106.957 57.3871 106.952C57.0503 106.948 56.7163 107.015 56.4074 107.15C56.1912 107.205 56.0027 107.337 55.8771 107.521C55.7515 107.706 55.6974 107.93 55.7251 108.151C55.7527 108.372 55.8602 108.576 56.0273 108.724C56.1944 108.872 56.4097 108.953 56.6328 108.954Z" fill="#001434"/>
<path d="M71.368 117.524C72.3453 117.749 73.3227 118.727 74.5255 118.351C75.7283 118.05 75.5777 116.396 74.8258 116.547C74.5229 116.621 74.2063 116.618 73.9046 116.539C73.6029 116.461 73.3255 116.308 73.0973 116.096C71.2931 114.742 69.4132 116.245 68.1348 117.599C65.3556 115.118 63.6996 117.522 61.1435 118.727C60.9056 118.773 60.6929 118.904 60.546 119.097C60.399 119.29 60.3281 119.53 60.3467 119.771C60.3653 120.013 60.4721 120.239 60.6468 120.407C60.8215 120.575 61.0519 120.672 61.294 120.681C62.8743 120.644 64.3049 118.952 65.5795 118.501C68.8875 120.305 68.6613 119.855 71.368 117.524Z" fill="#001434"/>
<path d="M60.3957 56.9295C60.6961 56.4786 61.448 56.2532 62.5002 56.3288C62.758 56.3426 63.0112 56.2565 63.2072 56.0885C63.4032 55.9204 63.5268 55.6833 63.5525 55.4264C63.5525 53.6971 60.0947 53.6971 58.817 55.7267C57.764 57.456 58.0643 60.4637 59.643 60.764C60.3201 60.9146 60.8466 60.0121 60.5455 59.4107C60.3397 59.0335 60.2196 58.6157 60.1937 58.1868C60.1678 57.7579 60.2368 57.3286 60.3957 56.9295Z" fill="#001434"/>
<path d="M70.0147 43.0223C68.8868 42.7968 63.9251 43.5488 64.4516 45.0526C64.9773 46.7063 67.308 44.5261 69.6387 44.7516C70.8415 44.9044 71.2931 43.2477 70.0147 43.0223Z" fill="#001434"/>
<path d="M50.2431 114.668C56.633 114.141 56.3327 103.842 48.8148 105.27C41.673 106.548 44.6051 115.118 50.2431 114.668ZM46.6347 109.856C46.2587 105.796 54.4528 106.247 52.6486 110.908C51.672 113.536 46.935 113.013 46.6347 109.856Z" fill="#001434"/>
<path d="M92.1926 18.7404C87.3814 20.5446 89.3362 27.6108 94.8244 26.1077C100.086 24.678 97.3048 16.785 92.1926 18.7404Z" fill="#001434"/>
<path d="M61.0688 62.8698C61.8956 63.922 63.3231 62.3055 65.128 62.2684C65.2601 62.2573 65.3882 62.2181 65.5038 62.1532C65.6193 62.0884 65.7197 61.9995 65.798 61.8926C65.8763 61.7857 65.9307 61.6632 65.9576 61.5335C65.9846 61.4038 65.9833 61.2697 65.9541 61.1405C65.7997 60.2388 64.593 60.1369 63.3979 60.4642C61.8856 60.8796 60.3184 62.043 61.0688 62.8698Z" fill="#001434"/>
<path d="M53.3999 126.17C59.715 125.643 59.4895 115.344 51.9717 116.772C44.7542 118.05 47.762 126.62 53.3999 126.17ZM49.7159 121.358C49.3407 117.298 57.5348 117.749 55.7306 122.411C54.7533 125.039 50.017 124.515 49.7159 121.358Z" fill="#001434"/>
<path d="M64.6772 69.1838C68.4361 69.7103 70.4673 61.5162 66.7825 62.9444C64.6772 63.7712 63.9261 64.2228 61.8957 64.5231C59.2647 64.9763 61.5197 68.7337 64.6772 69.1838Z" fill="#001434"/>
<path d="M65.5039 71.8154C66.147 73.6319 69.7893 71.8154 70.3159 70.5369C70.9172 69.3342 69.6388 68.0565 68.7371 69.409C67.8346 70.689 65.1048 70.6952 65.5039 71.8154Z" fill="#001434"/>
<path d="M55.2792 128.349C48.0625 129.627 51.0695 138.273 56.7082 137.746C63.0973 137.22 62.7978 126.996 55.2792 128.349ZM59.1138 134.062C58.1364 136.693 53.4009 136.167 53.0998 133.009C52.6482 128.951 60.8431 129.402 59.1138 134.063V134.062Z" fill="#001434"/>
<path d="M61.4448 17.8374C58.3622 18.2883 56.558 19.7165 56.6329 20.6167C56.7101 21.7446 58.8887 21.8194 61.8956 21.1432C67.9852 19.9404 69.4134 19.4139 69.4134 18.4365C69.3386 17.3109 67.2333 16.935 61.4448 17.8374Z" fill="#001434"/>
<path d="M91.6666 81.5883C87.3056 81.2879 87.5318 81.6654 86.7049 79.4838C84.8251 74.0704 79.7885 73.0931 77.2324 78.3559C69.4135 75.345 62.2717 86.9251 66.4066 94.7448C68.4362 98.5037 74.4509 101.436 75.202 99.7065C75.8791 98.0528 69.3386 98.6535 67.6093 92.4141C68.5034 92.7718 69.4361 93.0241 70.3886 93.166C70.6109 93.1904 70.8342 93.1292 71.013 92.9947C71.1917 92.8603 71.3125 92.6628 71.3508 92.4424C71.3891 92.222 71.3419 91.9954 71.2189 91.8085C71.096 91.6217 70.9064 91.4887 70.6889 91.4367C69.4115 91.1007 68.1942 90.5681 67.0805 89.858C66.9558 88.3226 67.1875 86.7791 67.7576 85.3479C69.1858 86.174 72.2676 87.6778 72.6444 86.3245C72.9447 85.1217 69.6335 84.3698 68.6593 83.6225C72.0422 78.5103 76.3276 79.713 80.085 81.5921C80.3243 81.7111 80.6011 81.7304 80.8547 81.6459C81.1083 81.5614 81.3181 81.38 81.4383 81.1413C81.7386 80.4642 80.0101 79.4876 79.1076 78.9611C81.7386 74.3754 84.2947 78.3597 85.4975 81.8175C85.9484 83.096 86.1746 83.1709 91.2104 83.2457C92.4934 83.2419 92.9443 81.6639 91.6666 81.5883Z" fill="#001434"/>
<path d="M73.5486 15.357C70.3911 15.8835 71.8942 19.4918 74.15 19.2664C74.4357 19.2627 74.7174 19.1978 74.9759 19.0759C75.2344 18.954 75.4637 18.7781 75.6484 18.56C75.833 18.3419 75.9688 18.0868 76.0464 17.8117C76.124 17.5367 76.1416 17.2482 76.0982 16.9657C76.0547 16.6833 75.9512 16.4134 75.7945 16.1744C75.6378 15.9354 75.4317 15.7329 75.19 15.5804C74.9483 15.4279 74.6767 15.329 74.3935 15.2905C74.1104 15.2519 73.8222 15.2746 73.5486 15.357Z" fill="#001434"/>
<path d="M84.9 126.32C84.6199 126.361 84.3342 126.342 84.062 126.264C83.7898 126.186 83.5373 126.052 83.3212 125.869C80.8407 123.538 77.9087 127.598 75.578 128.35C74.2254 123.012 69.6389 129.628 67.0087 130.229C66.7196 129.642 66.2488 129.164 65.6663 128.866C65.0838 128.568 64.4206 128.466 63.7755 128.575C62.4978 128.876 62.423 130.304 63.6257 130.304C63.9335 130.245 64.252 130.296 64.5264 130.447C64.8009 130.598 65.0139 130.84 65.1289 131.131C67.685 134.514 71.1436 129.102 73.3986 128.352C74.2262 133.013 79.1114 128.202 81.2175 127.149C81.9262 126.973 82.6596 128.587 85.1269 128.352C86.4787 128.127 86.1807 126.094 84.9 126.32Z" fill="#001434"/>
<path d="M145.719 76.4023C139.929 55.5781 125.493 45.7296 115.272 40.2414C113.768 33.701 112.792 26.1083 111.889 20.3947C110.461 10.8473 107.002 5.88095 92.7936 7.31379C87.3054 7.91519 39.9435 14.6062 33.0271 17.1623C22.2012 21.2207 21.149 28.2877 21.2995 35.8804C11.0002 35.279 4.45973 42.1205 5.96283 52.6453C7.01508 60.7645 15.0594 66.7784 20.9236 70.237C16.1873 75.1987 11.6016 88.7305 16.1873 109.329C22.9532 139.1 44.0784 151.204 55.5805 151.204C64.0008 151.204 75.3524 149.249 88.133 146.919C125.421 140.152 128.277 135.266 127.225 120.682C128.202 121.959 130.609 120.759 129.029 119.554C108.431 103.917 101.74 89.9332 108.356 78.2057C111.964 71.8907 121.136 75.9506 129.255 79.935C133.465 82.0402 134.668 83.2423 135.269 81.7392C135.946 80.0099 124.218 74.8227 121.136 74.0708C119.332 62.8698 117.377 51.8934 115.723 42.6463C132.788 52.9456 139.855 62.1178 144.215 78.4319C147.072 89.257 147.523 102.563 145.87 113.464C143.013 132.259 133.164 147.445 110.836 149.325C109.558 149.402 109.784 151.43 111.062 151.279C152.11 148.874 152.187 99.7817 145.719 76.4023ZM7.91755 52.4199C6.48934 42.9473 12.203 37.3086 21.4501 37.9061C21.8253 42.7929 23.78 55.7233 26.3361 70.8346C21.7504 68.6583 9.196 61.8924 7.91755 52.4199ZM22.7277 71.2144C24.0298 71.9178 25.3589 72.5699 26.7121 73.1691C28.7417 85.1221 31.0724 98.2786 33.3274 109.781C29.4187 109.254 21.2239 107.002 17.0141 102.488C14.6085 85.7984 18.8183 74.8976 22.7277 71.2144ZM33.4779 137.371C27.9897 132.86 19.4946 119.855 17.4657 105.646C22.5772 109.63 30.1707 111.513 33.7041 111.81C37.0114 127.823 38.2142 136.244 41.0714 142.935C38.3218 141.398 35.7716 139.53 33.4779 137.371ZM106.777 77.077C99.7849 88.8046 105.048 99.8559 118.28 113.538C125.647 136.544 92.3404 137.144 71.6691 140.452C42.2001 145.113 49.2663 140.602 40.094 102.787C43.7618 100.283 47.6358 98.0953 51.6741 96.2475C52.6564 98.3765 53.8662 100.393 55.2825 102.261C56.4629 103.709 57.614 102.261 56.7115 100.908C54.2303 97.2997 50.2459 92.1844 52.1258 82.4147C52.4261 80.8351 50.7724 80.7603 50.3965 82.3375C49.5697 85.5706 49.7194 90.0807 50.923 94.441C47.0627 96.2103 43.3429 98.2714 39.796 100.606C38.3678 92.6368 36.9396 83.3905 35.4357 72.6395C41.2258 72.3384 45.2842 73.4663 50.0205 74.4437C60.3183 82.4162 78.059 76.1004 85.4263 65.6513C87.3527 65.9519 89.2419 66.456 91.062 67.1552C92.1899 67.7558 93.3178 66.3276 92.1899 65.7262C90.3635 64.8659 88.4475 64.2104 86.477 63.7715C93.0174 53.6227 89.8599 39.7149 80.538 33.0988C70.84 26.1824 66.4797 33.3243 58.0594 30.6176C45.2796 26.5584 28.9656 39.2641 35.9576 54.5244C39.0395 61.1405 35.5068 64.9742 38.3632 70.613C37.2351 70.565 36.105 70.5908 34.9803 70.6902C33.4764 60.1654 30.3945 38.5894 30.3945 34.8305C30.3945 31.0715 30.5443 28.5154 32.2736 27.0872C35.8071 24.1536 46.257 23.3283 49.1891 22.8018C50.6929 23.7035 50.4667 27.0872 53.0985 27.6886C55.8777 28.5911 78.5083 24.6816 80.9896 23.4032C83.0941 22.351 81.801 18.5789 82.5683 17.6903C83.8205 16.2397 87.3795 16.0367 96.1001 15.6607C107.226 15.1342 106.775 47.611 112.338 73.0209C111.185 73.2862 110.098 73.7826 109.142 74.48C108.186 75.1775 107.382 76.0614 106.777 77.0785V77.077ZM65.6544 49.1118C63.36 51.5514 65.5 58.0578 68.9625 58.4338C73.8493 58.9603 81.5917 56.5547 79.7127 50.9916C103.319 61.5913 52.8738 92.8653 45.732 64.2231C60.7676 66.8541 60.3924 46.7811 45.5776 52.9456C46.5557 50.3146 49.7125 50.6157 52.7194 50.0892C59.4861 48.8864 62.6436 42.8717 66.0265 40.9926C68.3572 39.7149 71.7394 40.0153 74.5186 45.5783C71.5935 45.654 67.2587 47.4064 65.6544 49.1118ZM74.6776 47.6064C77.3094 47.5292 78.2119 51.8169 77.8359 53.696C77.5348 54.5228 75.6558 55.5002 73.6254 56.1023C73.0997 53.5462 72.3477 50.7647 71.5209 48.1329C72.5465 47.824 73.6073 47.647 74.6776 47.6064ZM50.2428 53.8481C55.3551 52.5704 56.7084 60.3885 52.3481 61.5913C51.749 59.1093 50.9948 56.4073 50.2428 53.8481ZM119.029 73.3945C117.518 72.9415 115.943 72.7383 114.367 72.7931C110.984 51.4425 106.925 27.4609 105.497 22.273C103.617 15.3566 101.286 13.2521 96.0244 13.7037C84.4443 14.6811 81.9654 15.5828 81.1386 16.3347C79.786 17.3121 81.2158 21.2964 79.9358 21.8986C76.7791 23.4017 64.4493 25.1309 55.6531 25.7323C52.5712 25.9578 52.5712 25.4313 52.1952 23.702C51.3684 19.7933 47.6095 21.071 35.8812 23.4765C29.7924 24.755 28.439 28.5895 28.5896 35.0566C28.6668 39.8678 38.4373 111.813 45.5043 134.743C48.9629 146.02 57.5329 143.914 62.1186 143.614C65.2013 143.389 68.4337 142.938 72.042 142.411C91.9644 139.632 127.073 136.998 120.607 115.572C122.11 116.832 123.639 118.06 125.193 119.256C126.472 133.239 126.472 137.976 87.9052 145.041C59.8636 150.154 46.2462 152.693 42.048 139.929C38.1092 127.956 23.78 47.838 23.3291 36.9334C23.0304 29.0396 23.5546 22.7995 33.7041 19.0421C40.0917 16.635 86.1034 10.0189 92.9441 9.26774C106.927 7.68899 108.28 14.6054 109.484 20.6935C111.137 28.964 115.272 50.6172 119.031 73.3914L119.029 73.3945Z" fill="#001434"/>
</svg>
