<svg width="154" height="154" viewBox="0 0 154 154" fill="none" xmlns="http://www.w3.org/2000/svg">
<path d="M34.3604 64.5209C33.0457 64.2276 31.6337 64.1794 30.4193 63.174C29.1643 62.151 29.0487 61.0568 28.8596 59.4473C28.4889 56.2742 28.6191 53.1891 28.2263 49.9524C28.0718 48.7392 27.8396 47.5371 27.531 46.3536C27.5571 45.0641 28.4499 42.5618 28.8864 41.3604C29.7628 38.8569 30.8916 36.4491 32.2555 34.1741C32.2812 34.1277 32.2882 34.0732 32.275 34.0217C32.2617 33.9703 32.2293 33.9259 32.1843 33.8977C31.8763 33.6503 31.5508 33.4256 31.2103 33.2254C31.6103 32.6194 32.1334 32.1044 32.7456 31.7139C32.8535 31.6427 32.96 31.5799 32.9753 31.4459C32.9764 31.4183 32.9683 31.3911 32.9522 31.3686C32.9361 31.3461 32.913 31.3297 32.8864 31.3218C32.7471 31.2682 32.5534 31.4329 32.2532 31.6519C31.7177 32.0233 31.278 32.5164 30.9699 33.0906C30.0174 32.6066 28.9817 32.3078 27.9177 32.2101C27.6597 32.1925 27.5969 32.6289 27.8557 32.6649C29.2774 32.8218 30.6393 33.3236 31.8229 34.1267C29.0717 38.8902 27.4414 44.1001 27.312 45.7265C27.2289 45.4743 27.1244 45.2296 26.9996 44.9952C26.9762 44.9577 26.9401 44.9297 26.8979 44.9164C26.8557 44.903 26.8101 44.9052 26.7693 44.9224C26.7286 44.9397 26.6953 44.9709 26.6755 45.0105C26.6556 45.0501 26.6506 45.0954 26.6612 45.1384C26.75 45.4952 26.8978 45.852 27.0088 46.2165C28.3519 50.6224 27.9185 54.5789 28.3994 59.1893C28.4711 59.9859 28.6053 60.7758 28.8006 61.5515C29.4599 63.6143 31.5878 64.6511 33.7578 64.7882C33.9483 64.7923 34.1389 64.7836 34.3283 64.7621C34.4493 64.7529 34.5036 64.5531 34.3604 64.5209Z" fill="#191919"/>
<path d="M82.0068 58.0928C82.2195 58.4238 82.5107 58.6971 82.8546 58.8885C83.1985 59.0798 83.5843 59.1831 83.9777 59.1893C84.0157 59.18 84.0495 59.1583 84.0736 59.1275C84.0978 59.0968 84.1109 59.0588 84.1109 59.0197C84.1109 58.9806 84.0978 58.9426 84.0736 58.9119C84.0495 58.8811 84.0157 58.8594 83.9777 58.8501C83.5647 58.764 83.1738 58.5941 82.8292 58.3508C82.5904 58.1683 82.3928 57.9374 82.2495 57.6732C82.803 56.726 83.2371 55.7139 83.542 54.6601C83.6961 54.1026 83.7711 53.5263 83.7649 52.948C83.7649 52.7695 83.4708 52.7182 83.444 52.9035C83.3218 53.9653 83.0485 55.0042 82.6324 55.9886C81.9157 57.5989 81.5328 57.3876 82.0068 58.0928Z" fill="#191919"/>
<path d="M86.7591 54.0536C86.5838 54.1319 86.4419 54.2698 86.3586 54.4427C86.2754 54.6157 86.2561 54.8127 86.3043 54.9985C86.3298 55.0813 86.3747 55.1568 86.4351 55.2188C86.4956 55.2809 86.5699 55.3276 86.6519 55.3553C86.7625 55.3907 86.8809 55.3935 86.993 55.3635C87.1051 55.3335 87.2063 55.272 87.2844 55.1861C87.3774 55.0886 87.4388 54.9654 87.4608 54.8325C87.4827 54.6996 87.4642 54.5632 87.4075 54.441C87.3508 54.3188 87.2587 54.2165 87.143 54.1474C87.0274 54.0783 86.8936 54.0456 86.7591 54.0536Z" fill="#191919"/>
<path d="M79.9918 54.0535C79.8167 54.1321 79.6749 54.27 79.5917 54.4429C79.5085 54.6158 79.4891 54.8126 79.5369 54.9984C79.5705 55.095 79.6289 55.181 79.7063 55.2477C79.7837 55.3145 79.8773 55.3596 79.9777 55.3787C80.0781 55.3977 80.1818 55.3899 80.2782 55.3561C80.3747 55.3223 80.4605 55.2636 80.527 55.186C80.6196 55.0875 80.6803 54.9635 80.7014 54.83C80.7224 54.6965 80.7028 54.5597 80.6451 54.4375C80.5873 54.3153 80.4941 54.2133 80.3776 54.1449C80.2611 54.0764 80.1266 54.0446 79.9918 54.0535Z" fill="#191919"/>
<path d="M86.0453 52.9035C86.1772 52.653 86.3421 52.4212 86.5353 52.2143C86.6607 52.0727 86.8084 51.9524 86.9725 51.8583C87.3026 51.66 87.5353 51.5995 87.69 51.4884C87.9197 51.3215 87.8983 51.088 87.7574 51.029C87.1211 50.7296 85.4802 51.8897 85.7152 52.8476C85.7224 52.8832 85.7401 52.9157 85.7661 52.941C85.7922 52.9663 85.8252 52.983 85.861 52.9891C85.8968 52.9952 85.9336 52.9902 85.9664 52.9749C85.9993 52.9596 86.0268 52.9347 86.0453 52.9035Z" fill="#191919"/>
<path d="M79.1897 52.6179C79.4986 52.3723 79.8371 52.1665 80.1974 52.0053C80.5609 51.8582 80.9644 51.8424 81.3383 51.9609C81.3799 51.9607 81.4208 51.9495 81.4568 51.9286C81.4928 51.9076 81.5227 51.8776 81.5435 51.8415C81.5642 51.8054 81.5752 51.7644 81.5752 51.7228C81.5752 51.6811 81.5643 51.6402 81.5435 51.6041C81.323 51.1929 80.5481 51.2587 80.0726 51.4617C79.5849 51.6218 79.1751 51.9589 78.924 52.4066C78.7976 52.5827 79.045 52.7588 79.1897 52.6179Z" fill="#191919"/>
<path d="M81.57 61.311C81.6068 61.517 82.0157 63.7146 82.1765 64.2269C82.8327 66.4145 84.5754 66.9406 85.9116 65.9298C87.525 64.7047 87.2669 62.5362 87.2669 60.4818C87.2657 60.4364 87.2528 60.3922 87.2295 60.3533C87.2062 60.3144 87.1732 60.2822 87.1338 60.2598C87.0943 60.2373 87.0498 60.2255 87.0044 60.2254C86.9591 60.2252 86.9144 60.2368 86.8749 60.2589C85.7047 60.996 84.3152 61.3048 82.9429 61.1326C82.1964 61.063 81.4575 60.687 81.57 61.311ZM82.7109 61.6051C84.0932 61.8333 85.5121 61.6017 86.7501 60.9458C86.7825 61.7036 86.7705 62.4628 86.7141 63.2192C86.4844 65.4114 85.0433 66.1978 84.0394 65.8402C82.8488 65.4229 82.5922 63.8892 82.3725 62.7912C82.2829 62.3539 82.2033 61.9083 82.1229 61.4718C82.178 61.4994 82.6474 61.5936 82.7109 61.6051Z" fill="#191919"/>
<path d="M76.8892 93.363C76.1128 92.3362 74.4328 92.0437 73.1533 92.0437C73.1072 92.0437 73.063 92.062 73.0304 92.0946C72.9978 92.1272 72.9795 92.1714 72.9795 92.2175C72.9795 92.2636 72.9978 92.3078 73.0304 92.3404C73.063 92.373 73.1072 92.3914 73.1533 92.3914C73.9588 92.4367 74.7526 92.605 75.5071 92.8906C75.9 92.9967 76.2426 93.2385 76.4742 93.573C76.7059 93.9075 76.8117 94.3133 76.7728 94.7184C76.7016 95.0576 76.4321 95.2827 76.6128 95.4412C76.9895 95.8133 77.7246 94.4687 76.8892 93.363Z" fill="#191919"/>
<path d="M74.5264 94.8792C73.9582 94.6968 73.3665 94.5977 72.7698 94.5851C72.6098 94.576 72.5654 94.8432 72.7346 94.87C73.64 95.0263 74.5192 95.3086 75.3464 95.7084C75.5647 95.8079 75.7426 95.9785 75.8513 96.1923C75.9599 96.4061 75.9928 96.6504 75.9445 96.8853C75.9008 97.3919 75.7615 97.8855 75.5341 98.3402C75.5065 98.3932 75.5002 98.4546 75.5165 98.5121C75.5328 98.5695 75.5703 98.6186 75.6215 98.6492C75.6727 98.6799 75.7337 98.6899 75.792 98.6772C75.8503 98.6644 75.9016 98.6299 75.9353 98.5806C76.1065 98.2784 76.227 97.9502 76.2921 97.6089C76.6068 96.161 76.3771 95.4872 74.5264 94.8792Z" fill="#191919"/>
<path d="M74.6157 97.9107C73.7552 97.3295 72.7541 96.9907 71.7175 96.9298C71.5927 96.9474 71.5038 97.1258 71.6463 97.1971C72.0184 97.3831 73.9396 97.7216 74.5445 98.4222C74.5621 98.4398 74.5705 98.4574 74.5889 98.4758C74.5889 98.4842 74.6157 98.5202 74.6241 98.5202C74.7941 98.7991 74.8808 99.1209 74.8738 99.4475C74.8738 99.9988 74.5759 100.172 74.4909 100.428C74.4852 100.447 74.4849 100.468 74.4901 100.488C74.4952 100.508 74.5055 100.526 74.5201 100.541C74.5346 100.556 74.5527 100.566 74.5726 100.571C74.5926 100.577 74.6135 100.576 74.6333 100.571C74.7275 100.538 74.8139 100.486 74.8875 100.418C74.961 100.351 75.0202 100.269 75.0614 100.178C75.2661 99.8081 75.3337 99.3778 75.2521 98.963C75.1706 98.5482 74.9452 98.1755 74.6157 97.9107Z" fill="#191919"/>
<path d="M137.731 79.8383C137.769 79.8478 137.809 79.8459 137.846 79.8328C137.883 79.8198 137.915 79.7961 137.939 79.7648C137.963 79.7335 137.977 79.6959 137.979 79.6567C137.982 79.6175 137.973 79.5784 137.953 79.5443C137.664 79.0733 135.044 77.5419 132.096 77.7969C131.502 77.8371 130.917 77.96 130.358 78.1621C130.323 78.1751 130.295 78.2005 130.278 78.2333C130.261 78.2661 130.257 78.304 130.266 78.3397C130.276 78.3753 130.298 78.4061 130.329 78.4261C130.36 78.4461 130.398 78.4538 130.434 78.4477C131.68 78.1589 132.973 78.1334 134.229 78.3729C135.486 78.6123 136.678 79.1114 137.731 79.8383Z" fill="#191919"/>
<path d="M131.57 76.9316C131.648 76.7222 131.744 76.5194 131.855 76.3252C132.481 74.8856 133.769 72.5594 135.127 71.7692C135.969 71.348 135.224 70.3511 133.255 72.9553C132.521 73.9069 131.937 74.9657 131.525 76.0947C131.484 76.2172 131.451 76.3423 131.427 76.4691C131.4 76.6024 131.356 76.7272 131.32 76.8612C131.249 77.0388 131.508 77.1024 131.57 76.9316Z" fill="#191919"/>
<path d="M134.708 75.5763C134.592 75.7861 134.557 76.0315 134.61 76.2654C134.617 76.2925 134.631 76.3174 134.649 76.3383C134.668 76.3592 134.691 76.3755 134.717 76.3858C134.743 76.3962 134.771 76.4003 134.799 76.3979C134.827 76.3955 134.854 76.3865 134.877 76.3719C135.122 76.2088 135.12 75.9745 135.386 75.3114C135.999 73.8789 136.793 72.5306 137.748 71.299C137.865 71.1206 137.615 70.9514 137.463 71.0854C136.208 72.3473 135.264 73.8851 134.708 75.5763Z" fill="#191919"/>
<path d="M137.195 77.7249C137.208 77.7467 137.225 77.7654 137.246 77.7795C137.267 77.7936 137.291 77.8028 137.316 77.8062C137.341 77.8097 137.366 77.8074 137.39 77.7996C137.414 77.7917 137.436 77.7785 137.454 77.7609C137.841 77.378 137.493 76.5893 139.228 72.5364C139.299 72.358 139.032 72.2684 138.934 72.4116C137.975 73.894 136.915 77.1383 137.195 77.7249Z" fill="#191919"/>
<path d="M112.731 70.1466C113.012 70.9592 113.109 71.824 113.016 72.6788C113.016 73.1091 113.33 73.1084 113.435 72.946C113.549 72.7163 113.505 72.8518 113.542 72.59C113.644 70.9496 113.171 69.3251 112.205 67.9957C110.601 65.7077 107.887 64.2299 105.206 63.3685C105.028 63.3057 104.894 63.5982 105.072 63.6801C108.311 65.1212 111.56 66.6733 112.731 70.1466Z" fill="#191919"/>
<path d="M113.453 73.9178C116.11 75.9086 117.535 79.0764 118.696 82.1109C122.165 91.2306 122.754 95.9405 123.269 96.9114C123.341 97.0645 123.576 96.9826 123.576 96.831C123.576 95.1204 119.531 80.9486 116.461 76.4676C115.333 74.7225 113.735 73.3317 111.851 72.4552C109.98 71.6612 107.447 71.4016 106.108 69.9858C106.009 69.887 105.823 70.021 105.911 70.139C107.716 72.4514 110.538 71.7317 113.453 73.9178Z" fill="#191919"/>
<path d="M76.4787 89.9671C75.8766 89.6601 75.2187 89.4778 74.5445 89.4311C71.6416 89.0735 68.4188 88.7948 66.0657 90.7328C64.2609 92.2083 64.5557 93.7298 62.9324 95.1548C62.6575 94.8255 62.2433 94.9373 61.8604 95.0016C59.8555 95.3845 57.9315 96.1098 56.1727 97.1456C54.8135 97.1456 51.913 98.3517 51.1887 99.4995C51.1259 99.5975 51.2499 99.6932 51.3418 99.6526C52.0202 99.331 52.0792 99.1587 53.1244 98.5737C53.8077 98.2006 54.5317 97.9074 55.2822 97.7C53.9845 98.54 52.8332 99.5868 51.874 100.799C51.7675 100.978 52.0011 101.133 52.1504 101.013C53.087 100.08 54.0847 99.2105 55.1367 98.4098C57.1728 96.9567 59.4965 95.9564 61.9515 95.4764C62.8467 95.3278 62.4385 95.2536 63.2173 96.9565C64.1092 99.0036 65.4975 100.796 67.2564 102.172C66.1706 103.81 64.6445 106.035 63.3957 107.539C60.6092 110.904 56.9262 113.798 52.5539 114.146C47.3471 114.56 46.0553 109.613 46.857 104.482C48.0875 96.4343 54.603 87.6362 60.623 81.9868C62.6238 80.1319 64.7443 78.4105 66.9708 76.8335C67.1408 76.7087 66.9892 76.4231 66.8016 76.5395C58.0594 81.9317 46.491 95.6058 46.1526 106.693C46.0907 107.894 46.205 109.099 46.4918 110.268C47.0438 112.327 48.5416 114.245 50.753 114.601C52.8303 114.945 55.325 114.25 57.2615 113.299C61.4301 111.232 64.362 107.435 66.9095 103.545C67.2304 103.055 67.5336 102.555 67.8636 102.065C67.9662 101.911 67.7243 101.625 67.4448 101.905L67.3529 101.815C68.2268 101.474 69.0336 100.982 69.7358 100.36C70.2718 99.9007 70.3644 99.7215 70.5291 99.6112C71.1766 99.5874 71.8223 99.6936 72.428 99.9237C73.768 100.399 73.7397 100.685 74.069 100.536C74.0858 100.526 74.0996 100.512 74.109 100.494C74.1184 100.477 74.1231 100.458 74.1226 100.438C74.1134 100.153 73.7474 100.029 73.5337 99.9221C72.7897 99.5377 71.9839 99.2871 71.1531 99.1817C70.8758 99.1051 70.5808 99.124 70.3154 99.2353C70.1104 99.3977 69.9194 99.577 69.7442 99.7713C68.9496 100.492 68.053 101.09 67.0833 101.549C66.715 101.186 66.3521 100.821 66.0113 100.432C64.7268 98.9786 63.7433 97.2849 63.1177 95.4488C64.4141 94.6686 64.7487 92.7604 65.8238 91.5605C67.1446 90.0965 69.1814 89.6225 71.147 89.6171C72.6107 89.6385 74.0695 89.7904 75.5062 90.0712C76.0532 90.1783 76.5367 90.4952 76.8531 90.9541C76.9724 91.1435 77.0402 91.3608 77.0496 91.5844C77.059 91.8081 77.0097 92.0303 76.9067 92.229C76.8531 92.3056 76.7811 92.4074 76.7099 92.4962C76.6776 92.5293 76.6582 92.5728 76.6552 92.619C76.6523 92.6651 76.6658 92.7108 76.6936 92.7478C76.7213 92.7847 76.7614 92.8106 76.8065 92.8206C76.8516 92.8307 76.8988 92.8242 76.9396 92.8025C77.7551 92.4518 77.7965 90.7527 76.4787 89.9671Z" fill="#191919"/>
<path d="M80.8831 72.5364C80.3157 68.3885 74.5767 67.3939 71.8423 70.3786C71.162 71.1096 70.6898 72.0094 70.4751 72.9846C70.2603 73.9599 70.3107 74.9748 70.621 75.9239C70.6329 75.9555 70.6527 75.9835 70.6785 76.0052C70.7043 76.0269 70.7352 76.0416 70.7684 76.0479C70.8015 76.0542 70.8357 76.0519 70.8677 76.0412C70.8997 76.0305 70.9284 76.0117 70.951 75.9867C73.6007 75.9946 76.2402 76.3148 78.8149 76.9408C79.0809 77.0462 79.3669 77.0917 79.6526 77.074C79.9382 77.0028 80.0722 76.7088 80.1886 76.4684C80.8017 75.2545 81.0432 73.8868 80.8831 72.5364Z" fill="#191919"/>
<path d="M73.3764 100.808C73.336 100.798 73.2932 100.801 73.2546 100.817C73.2161 100.833 73.1838 100.861 73.1628 100.897C73.003 101.327 72.904 101.777 72.8687 102.235C72.3955 105.27 72.5487 105.857 71.041 105.857C70.2467 105.864 69.458 105.725 68.714 105.447C68.2048 105.147 68.3686 104.448 68.5356 103.137C68.5968 102.587 68.6887 102.181 68.714 102.023C68.7316 101.889 68.7048 101.774 68.7224 101.64C68.74 101.471 68.4927 101.453 68.446 101.604C68.3283 101.824 68.2506 102.062 68.2163 102.309C68.0667 103.018 67.9626 103.735 67.9046 104.458C67.8242 105.425 68.1343 105.924 69.2155 106.16C70.0894 106.384 71.0002 106.424 71.8902 106.277C72.8029 105.993 72.9231 105.23 73.0671 104.306C73.5227 101.508 73.6842 100.911 73.3764 100.808Z" fill="#38A1FF"/>
<path d="M81.6855 77.172C81.478 77.1031 78.7927 76.6445 78.6993 76.6284C77.455 76.4209 71.647 75.8673 69.1148 75.7991C69.0988 75.7984 69.0829 75.802 69.0688 75.8096C69.0547 75.8172 69.0429 75.8284 69.0347 75.8421C69.0264 75.8559 69.0221 75.8716 69.022 75.8876C69.022 75.9036 69.0263 75.9193 69.0344 75.9331C69.0125 75.9342 68.9917 75.9428 68.9754 75.9575C68.9591 75.9721 68.9483 75.9919 68.9448 76.0135C68.2099 78.9149 67.6237 81.8519 67.1883 84.8131C67.1377 85.0665 67.1883 84.9218 70.9242 85.3123C70.7136 86.5183 70.6616 86.4364 70.3537 88.5842C70.3453 88.6214 70.3515 88.6603 70.3709 88.6931C70.3904 88.7258 70.4217 88.7498 70.4583 88.7602C70.495 88.7705 70.5342 88.7663 70.5679 88.7485C70.6016 88.7308 70.6272 88.7007 70.6394 88.6646C71.0095 87.5949 71.2954 86.4979 71.4947 85.3836C72.0758 85.4387 73.7152 85.6133 75.409 85.8384C75.3784 86.0352 75.3569 86.3376 75.2222 87.1493C75.115 87.8001 74.9365 88.4418 74.8921 89.1019C74.8931 89.1341 74.9044 89.1651 74.9245 89.1903C74.9446 89.2154 74.9724 89.2334 75.0036 89.2414C75.0348 89.2495 75.0677 89.2471 75.0975 89.2348C75.1272 89.2225 75.1522 89.2008 75.1686 89.1731C75.5611 88.118 75.8069 87.014 75.899 85.892C80.1572 86.4242 80.3142 86.6332 80.3662 86.4004C80.9535 83.0864 81.3961 80.1981 81.7836 77.2884C81.7927 77.2348 81.7369 77.1904 81.6855 77.172Z" fill="#38A1FF"/>
<path d="M11.8127 80.5963C10.5171 82.7112 7.9688 88.4487 6.285 94.7368C5.39245 98.0002 4.76634 101.331 4.41282 104.696C4.39045 104.898 4.40236 105.103 4.44805 105.302C4.46566 105.418 4.61727 105.379 4.65326 105.302C5.32785 103.652 5.10503 95.3355 11.9015 81.3268C11.9911 81.14 12.0715 80.9348 12.1511 80.7387C12.2308 80.5427 11.9214 80.4187 11.8127 80.5963Z" fill="#191919"/>
<path d="M20.8885 93.4435C19.5707 94.3263 14.0108 100.678 11.9641 107.432C11.9013 107.638 12.2045 107.709 12.2757 107.522C13.7913 103.497 15.9603 99.7496 18.6955 96.4305C18.6243 97.8571 18.2046 107.432 18.187 107.664C18.1634 107.903 18.1756 108.143 18.223 108.378C18.2353 108.416 18.2591 108.448 18.2912 108.472C18.3232 108.495 18.3618 108.508 18.4014 108.508C18.441 108.508 18.4796 108.495 18.5117 108.472C18.5437 108.448 18.5676 108.416 18.5798 108.378C18.6896 107.971 18.7376 107.551 18.7223 107.13C18.7284 107.036 19.161 98.7836 19.1319 95.9045C20.632 94.1908 20.7437 94.2666 21.1228 93.7023C21.1478 93.6693 21.1605 93.6286 21.1587 93.5873C21.1568 93.5459 21.1407 93.5065 21.1129 93.4758C21.0851 93.4451 21.0475 93.4251 21.0065 93.4192C20.9655 93.4133 20.9238 93.4219 20.8885 93.4435Z" fill="#191919"/>
<path d="M40.04 73.5349C39.1257 74.4928 34.3476 81.2403 30.5872 89.0115C30.2159 89.7543 30.1837 89.7061 29.0183 89.5728C22.4676 88.8247 16.0547 85.2749 11.4903 78.8115C11.5144 78.7975 11.535 78.7781 11.5504 78.7548C11.5658 78.7316 11.5756 78.7051 11.5791 78.6775C12.1243 76.0457 13.5355 74.064 14.8066 71.7768C21.0273 60.6594 19.4009 56.6471 20.3527 48.8544C20.7452 45.7798 21.3593 42.7376 22.1904 39.7516C22.1999 39.711 22.1935 39.6684 22.1724 39.6324C22.1513 39.5965 22.1173 39.57 22.0772 39.5585C22.0372 39.547 21.9942 39.5513 21.9573 39.5706C21.9203 39.5899 21.8922 39.6226 21.8788 39.662C21.0299 42.2861 20.415 44.9802 20.041 47.7127C18.9912 54.9664 20.0127 57.4595 17.946 63.7522C15.544 71.0173 11.7706 74.6628 11.1794 78.4447C11.1521 78.4388 11.1237 78.4409 11.0976 78.451C11.0715 78.461 11.049 78.4785 11.0327 78.5012C11.0164 78.5239 11.0071 78.5509 11.006 78.5788C11.0048 78.6067 11.0119 78.6344 11.0263 78.6583C12.3523 80.8604 14.0509 82.8152 16.0463 84.4356C19.7391 87.4967 24.2281 89.4413 28.9869 90.0414C28.7304 92.8172 27.9754 106.997 27.9731 107.072C27.9501 107.929 27.9417 108.221 28.1423 108.241C28.1834 108.247 28.2253 108.237 28.2599 108.214C28.2945 108.191 28.3194 108.156 28.3299 108.116C28.4404 107.528 28.5001 106.932 28.5083 106.334C28.5435 105.747 29.3207 91.5193 29.3284 90.082C29.9961 90.1647 30.5283 90.2206 30.8881 89.5353C31.2281 88.8737 31.4111 88.3997 32.4135 86.4946C34.7715 82.0826 37.4174 77.8306 40.334 73.7662C40.4144 73.5793 40.1839 73.3841 40.04 73.5349Z" fill="#191919"/>
<path d="M59.2717 47.9822C59.555 48.0488 59.7403 47.5289 58.5228 47.2242C57.782 47.1183 57.0287 47.1364 56.2938 47.2778C55.9575 47.3247 55.6498 47.4927 55.4285 47.7502C55.3397 47.8658 55.4553 48.071 55.5985 47.973C56.1396 47.6916 56.7449 47.5565 57.3543 47.581C58.021 47.4764 58.7029 47.6191 59.2717 47.9822Z" fill="#191919"/>
<path d="M55.9814 44.7992C56.1116 46.1216 55.8865 46.395 56.0886 46.5826C56.1146 46.6098 56.1491 46.6274 56.1865 46.6322C56.2238 46.6371 56.2617 46.629 56.2938 46.6094C56.4768 46.4907 56.463 46.2043 56.463 45.6905C56.4788 44.7417 56.306 43.7993 55.9546 42.9178C55.8658 42.7302 55.607 42.8734 55.6338 43.0518C55.7861 43.6265 55.9022 44.2101 55.9814 44.7992Z" fill="#191919"/>
<path d="M57.4639 46.0741C57.4639 46.3291 57.4019 46.4041 57.4907 46.6354C57.5443 46.7609 57.7204 46.7341 57.7848 46.6354C57.8662 46.4634 57.9001 46.2728 57.8828 46.0833C57.9671 44.8236 57.8284 43.5589 57.4731 42.3474C57.4629 42.3067 57.4371 42.2718 57.4012 42.2503C57.3653 42.2288 57.3223 42.2224 57.2817 42.2325C57.2411 42.2427 57.2061 42.2685 57.1846 42.3044C57.1631 42.3403 57.1567 42.3833 57.1668 42.4239C57.4048 43.6253 57.5045 44.85 57.4639 46.0741Z" fill="#191919"/>
<path d="M58.8616 46.4309C58.8892 46.584 59.102 46.5557 59.1472 46.4309C59.2826 45.2815 59.2795 44.12 59.138 42.9714C59.1112 42.7838 58.8317 42.7754 58.844 42.9714C58.9282 45.718 58.7843 46.0067 58.8616 46.4309Z" fill="#191919"/>
<path d="M60.68 46.6177C60.7005 45.8687 60.6493 45.1195 60.5268 44.3803C60.4993 44.2203 60.2504 44.2639 60.2504 44.4155C60.2588 45.0664 60.304 45.7172 60.2948 46.3681C60.2412 50.2158 58.7795 50.6561 58.137 52.4754C58.0561 52.6935 58.0066 52.9219 57.99 53.1539C56.6977 53.1999 55.4068 53.0283 54.1714 52.6462C54.3318 52.389 54.4162 52.0917 54.4149 51.7886C54.4287 50.9892 53.96 50.2939 53.96 49.4976C53.96 48.7809 54.431 48.0197 54.3881 47.153C54.3596 46.7114 54.2183 46.2846 53.9777 45.9133C53.8437 45.7249 53.8015 45.6514 53.5856 45.6728C53.5603 45.6806 53.5373 45.6944 53.5187 45.7131C53.5 45.7318 53.4862 45.7548 53.4784 45.78C53.434 45.9332 53.5144 46.0205 53.5948 46.1361C53.7889 46.4202 53.9085 46.7485 53.9424 47.0909C54.032 48.0986 53.3299 48.8705 53.5948 50.0772C53.764 50.8391 54.346 51.712 53.8245 52.539C53.0113 52.3292 53.7035 53.173 50.2348 59.2428C49.9048 59.8133 49.5664 60.3837 49.2448 60.9634C48.7969 60.9815 48.3504 61.0262 47.9078 61.0974C46.3534 61.3409 39.2047 63.0469 36.7284 63.8876C36.7048 63.8935 36.6844 63.9086 36.6718 63.9295C36.6593 63.9504 36.6555 63.9754 36.6614 63.9991C36.6673 64.0227 36.6824 64.0431 36.7032 64.0556C36.7241 64.0682 36.7492 64.0719 36.7728 64.066C39.155 63.5706 46.8404 61.4573 49.0671 61.3378C49.7279 61.2919 50.2785 61.4021 50.5986 61.347C50.6206 61.3406 50.6403 61.3279 50.6552 61.3104C50.6701 61.293 50.6796 61.2716 50.6825 61.2488C50.6855 61.2261 50.6817 61.2029 50.6717 61.1823C50.6616 61.1617 50.6458 61.1444 50.6261 61.1326C50.2823 61.0004 49.9143 60.9428 49.5465 60.9634C51.2152 58.4484 52.6018 55.7573 53.6813 52.9387C55.0872 53.3426 56.5425 53.5487 58.0053 53.5513C57.6307 56.733 56.855 59.8546 55.6967 62.8417C55.1997 64.1128 54.4455 66.0378 53.5029 66.9337C52.7318 67.6856 50.5725 68.6244 49.2325 69.2071C45.7485 70.7201 39.7147 72.0126 37.4903 74.1321C37.4553 74.1694 37.4347 74.2179 37.4321 74.269C37.4295 74.3201 37.4451 74.3705 37.4762 74.4111C37.5073 74.4517 37.5518 74.48 37.6017 74.4909C37.6517 74.5018 37.7039 74.4946 37.7491 74.4706C38.5693 73.9205 39.4272 73.429 40.3166 72.9996C42.9407 71.7661 46.0418 71.0854 48.8313 69.9368C50.3773 69.3117 51.8761 68.5757 53.3161 67.7346C54.1427 67.1017 54.7834 66.2576 55.1706 65.2912C56.904 61.6413 57.9691 57.7102 58.3154 53.6845C58.3154 53.6301 58.3399 53.0872 58.3445 53.0497C58.5651 51.2779 60.5957 50.6676 60.68 46.6177Z" fill="#191919"/>
<path d="M45.6481 51.343C45.1214 51.4788 44.5697 51.4851 44.0401 51.3613C44.7907 50.9133 45.3598 50.2156 45.6481 49.3904C45.653 49.3731 45.6532 49.3548 45.6487 49.3374C45.6441 49.32 45.635 49.3041 45.6223 49.2913C45.6096 49.2786 45.5937 49.2695 45.5763 49.265C45.5589 49.2605 45.5406 49.2607 45.5233 49.2656C44.7919 49.3091 44.0615 49.1649 43.4015 48.8467C41.3688 48.0392 39.1833 47.6891 37.0001 47.8214C36.3086 47.8563 35.633 48.0418 35.0207 48.3651C34.6464 47.8635 34.1165 47.5001 33.5138 47.3314C33.451 47.313 33.3798 47.3758 33.4066 47.4378C34.0835 49.3728 31.186 50.271 31.124 53.706C31.124 54.0888 31.3591 53.7366 32.0245 54.5796C32.0636 54.6294 32.1141 54.6776 32.1677 54.66C32.8405 54.4742 33.4648 54.1443 33.9974 53.6932C34.53 53.242 34.9581 52.6805 35.252 52.0474C38.6587 54.5077 41.9367 54.5046 44.1236 53.2687C44.5049 53.0925 44.8478 52.8427 45.1324 52.5336C45.417 52.2246 45.6378 51.8624 45.7821 51.4678C45.7868 51.4496 45.7865 51.4305 45.7813 51.4125C45.776 51.3945 45.766 51.3782 45.7523 51.3655C45.7385 51.3527 45.7216 51.3438 45.7033 51.3399C45.6849 51.3359 45.6659 51.337 45.6481 51.343Z" fill="#38A1FF"/>
<path d="M149.579 89.1731C149.579 74.4637 150.276 60.1916 149.552 48.2587C149.169 41.9033 147.992 34.3319 142.116 30.6473C138.889 28.6327 134.965 28.2735 131.257 28.0086C119.055 27.1487 105.293 26.6709 95.7805 26.6709C77.5657 26.8317 59.821 26.69 41.9026 27.8838C38.0962 28.1372 34.1091 28.2904 30.5868 29.9183C24.1893 32.8847 22.435 39.9622 21.8784 46.9386C21.2053 55.3982 21.3355 89.7191 21.0667 101.37C20.9779 105.105 21.0315 109.02 22.5108 112.514C23.8512 115.59 26.3548 118.01 29.4743 119.246C32.6001 120.413 35.901 121.043 39.2371 121.11C42.7326 121.315 46.2449 121.35 49.7404 121.404C54.4212 121.475 121.878 121.404 125.953 121.306C130.74 121.19 135.733 121.234 140.298 119.647C143.486 118.647 146.175 116.473 147.823 113.566C150.703 108.168 149.579 102.009 149.579 89.1731ZM146.521 113.745C142.981 119.424 135.51 119.947 129.491 120.177C117.699 120.626 46.2281 120.302 44.7556 120.266C40.0212 120.151 35.064 120.195 30.5616 118.564C28.9568 118.027 27.4849 117.155 26.2437 116.005C25.0026 114.855 24.0208 113.453 23.3639 111.894C21.9465 108.382 22.0001 104.458 22.1065 100.732C22.6586 81.9662 22.1165 57.5499 22.8723 47.3084C23.3539 40.7731 24.9941 33.132 31.8311 30.4934C35.4951 29.0752 39.6054 29.0484 43.4753 28.8088C67.3204 27.3401 95.3226 27.9795 95.962 27.6602C107.893 27.749 119.041 28.174 130.496 28.9703C134.267 29.2383 138.297 29.4704 141.599 31.5294C147.194 35.0157 148.266 42.6636 148.58 49.2809C149.126 60.7973 148.541 77.1529 148.554 89.6785C148.554 102.272 149.72 108.621 146.521 113.744L146.521 113.745Z" fill="#38A1FF"/>
<path d="M105.527 69.0593C100.16 60.1732 106.446 47.2257 98.5987 39.3779C96.8049 37.6197 94.4653 36.5256 91.966 36.276C89.2381 35.8354 86.4459 36.0186 83.7989 36.812C79.1028 38.4966 76.2888 43.0296 74.9167 47.8498C73.474 52.9318 73.0138 61.3371 71.6356 64.0944C71.3986 64.6021 71.0573 65.0543 70.634 65.4214C70.6075 65.4479 70.5875 65.4801 70.5755 65.5157C70.5636 65.5512 70.5601 65.589 70.5653 65.6262C70.5705 65.6633 70.5843 65.6987 70.6055 65.7296C70.6267 65.7605 70.6548 65.7861 70.6876 65.8042C72.5149 67.0677 74.6693 67.7741 76.8899 67.838C78.091 67.871 79.2886 67.6932 80.4283 67.3127C81.7041 68.3625 83.3315 68.8879 84.9804 68.7821C84.9804 68.8587 85.472 71.2148 84.6504 72.7761C84.6014 72.8702 84.5356 72.966 84.4804 73.0647C84.0375 72.0861 83.654 71.0817 83.3319 70.057C83.3189 70.0225 83.2935 69.994 83.2607 69.9771C83.2279 69.9602 83.19 69.9562 83.1543 69.9657C83.1187 69.9753 83.0878 69.9978 83.0679 70.0288C83.0479 70.0598 83.0402 70.0972 83.0462 70.1336C83.27 71.2268 83.6232 72.2894 84.0983 73.299C85.7416 77.0128 87.3595 79.4454 88.0219 85.5665C88.0364 85.7044 88.0747 86.2741 88.0747 86.2986C85.4414 93.1433 84.1519 100.085 83.3586 107.349C83.1488 109.25 82.2867 118.463 82.3954 119.946C82.413 120.125 82.6802 120.187 82.7254 119.991C83.5761 116.086 82.779 94.6893 92.1759 78.9692C94.6529 74.8251 97.5175 71.8335 98.7089 69.7706C100.925 70.0873 103.181 70.0111 105.371 69.5455C105.454 69.5004 105.518 69.4245 105.547 69.3339C105.576 69.2432 105.569 69.1448 105.527 69.0593ZM78.4581 44.4798C78.6378 43.5851 79.009 42.7398 79.5462 42.002C80.0056 41.4308 80.1373 41.4514 80.3034 41.3688C80.3395 41.3545 80.3788 41.3506 80.417 41.3575C80.4551 41.3643 80.4906 41.3817 80.5194 41.4077C80.5482 41.4336 80.5692 41.4671 80.58 41.5043C80.5908 41.5415 80.591 41.581 80.5806 41.6184C80.4405 42.0908 79.9497 42.7363 79.7154 43.3213C79.5025 43.7471 79.3057 44.8168 79.1181 45.1139C78.7552 45.6736 78.4037 45.6254 78.3425 45.3987C78.3486 45.0885 78.3874 44.7797 78.4581 44.4776V44.4798ZM88.4529 85.3154C88.1735 82.3906 87.4315 79.5287 86.2546 76.8366C88.0598 77.836 90.137 78.2328 92.1835 77.9691C90.7392 80.3098 89.4914 82.7662 88.4529 85.3131V85.3154ZM86.1436 76.4078C86.116 76.3944 86.0854 76.3883 86.0547 76.3902C85.5884 75.3634 85.1305 74.4759 84.6826 73.518C85.142 73.2669 85.9843 71.5471 85.4215 68.7492C87.0964 68.6251 88.7127 68.0794 90.1199 67.1626C92.1948 65.7773 93.8654 63.8668 94.9615 61.6257C94.9691 61.5792 94.9604 61.5315 94.9369 61.4907C94.9134 61.4499 94.8765 61.4184 94.8324 61.4017C94.7884 61.385 94.7399 61.3839 94.6952 61.3988C94.6505 61.4137 94.6123 61.4435 94.5871 61.4833C94.4263 61.6969 94.2571 61.9106 94.1139 62.1334C89.9936 68.8342 83.7836 69.2744 80.9934 67.0493C78.7912 65.2935 78.2942 61.8095 78.1817 58.0054C78.0606 55.3931 78.1407 52.7753 78.4213 50.1752C79.9459 50.8866 83.1129 51.1952 86.2148 50.2755C86.2474 50.2655 86.2773 50.2484 86.3025 50.2254C86.3276 50.2023 86.3473 50.174 86.3602 50.1424C86.373 50.1108 86.3786 50.0767 86.3767 50.0427C86.3747 50.0086 86.3652 49.9754 86.3488 49.9455C85.814 49.208 85.3426 48.4265 84.9398 47.6093C87.1978 49.9894 89.8376 51.9754 92.7501 53.4854C92.8157 53.5219 92.8922 53.5338 92.9657 53.519C93.0393 53.5041 93.1051 53.4634 93.1513 53.4042C93.1975 53.3451 93.2211 53.2714 93.2177 53.1964C93.2143 53.1214 93.1843 53.0501 93.133 52.9954C92.9006 52.7352 92.7055 52.444 92.5533 52.1301C93.5194 53.293 94.6253 54.3323 95.8459 55.2244C95.906 55.2592 95.9758 55.2736 96.0449 55.2655C96.1139 55.2573 96.1784 55.2271 96.2288 55.1792C96.4355 54.9701 96.6848 54.8079 96.9597 54.7038C97.2347 54.5997 97.5289 54.556 97.8222 54.5758C99.5711 54.9441 100.152 57.8898 98.8177 59.2267C98.5826 59.4709 98.2948 59.6582 97.9763 59.7742C97.6578 59.8902 97.317 59.9318 96.9799 59.896C96.9138 59.8789 96.8436 59.8879 96.7839 59.9211C96.7242 59.9543 96.6795 60.0092 96.6591 60.0744C95.907 63.0281 95.7916 66.1081 96.3207 69.1098C96.4823 69.8759 96.7222 70.6233 97.0366 71.3403C95.7004 73.0816 93.9898 75.1574 92.4952 77.4814C92.1299 77.3198 89.9392 78.1445 86.1436 76.4055V76.4078ZM97.3628 70.8947C97.1822 70.4112 97.032 69.9169 96.9133 69.4146C97.3481 69.5431 97.7916 69.6401 98.2403 69.7048C97.9401 70.0984 97.6545 70.4958 97.3628 70.8932V70.8947Z" fill="#191919"/>
<path d="M41.8852 54.464C40.9136 56.3148 40.0881 60.5254 38.4617 61.9527C37.4403 62.821 35.6539 62.3356 34.4586 61.7299C33.526 61.2133 32.658 60.5879 31.8728 59.8669C31.8392 59.8489 31.8006 59.8422 31.7629 59.8478C31.7252 59.8534 31.6903 59.871 31.6634 59.8979C31.6364 59.9249 31.6188 59.9598 31.6132 59.9975C31.6077 60.0352 31.6143 60.0737 31.6323 60.1073C31.7713 60.3281 31.9496 60.5214 32.1584 60.6778C33.4207 61.909 35.0593 62.6815 36.8124 62.8716C37.3318 62.9293 37.8567 62.8313 38.3203 62.59C38.7839 62.3486 39.1652 61.9749 39.4158 61.5162C40.0385 60.55 40.519 59.4991 40.8423 58.396C41.339 57.1385 41.7589 55.852 42.0996 54.5437C42.1071 54.516 42.1039 54.4866 42.0908 54.4612C42.0777 54.4358 42.0555 54.4162 42.0287 54.4062C42.0019 54.3963 41.9723 54.3967 41.9458 54.4073C41.9193 54.418 41.8977 54.4382 41.8852 54.464Z" fill="#191919"/>
<path d="M31.9653 54.7313C32.0365 54.8653 32.2149 54.7673 32.1881 54.6333C32.1494 54.4247 32.0583 54.2293 31.9233 54.0657C31.7883 53.902 31.6138 53.7754 31.4164 53.6977C31.2189 53.6201 31.005 53.5939 30.7947 53.6218C30.5843 53.6496 30.3846 53.7305 30.2141 53.8568C29.7858 54.1093 29.4661 54.5115 29.3169 54.9858C29.1678 55.4601 29.1996 55.9728 29.4063 56.425C29.5173 56.6249 29.6708 56.798 29.856 56.932C30.0413 57.0661 30.2537 57.1578 30.4783 57.2007C30.2951 58.541 29.7242 59.7986 28.8358 60.8187C28.7707 60.8953 28.7937 61.3547 28.9629 61.2666C29.4296 60.8648 29.8064 60.369 30.0686 59.8118C30.4938 58.9402 30.7909 58.0117 30.9507 57.0552C30.9585 57.0226 30.9589 56.9887 30.9519 56.9559C30.9448 56.9232 30.9305 56.8924 30.91 56.8659C30.8895 56.8394 30.8634 56.8178 30.8334 56.8027C30.8035 56.7877 30.7706 56.7795 30.7371 56.7788C30.5649 56.7739 30.3964 56.7275 30.2459 56.6437C30.0955 56.5599 29.9674 56.441 29.8726 56.2972C29.0211 55.049 30.9392 53.023 31.9653 54.7313Z" fill="#191919"/>
<path d="M36.8034 57.5131C36.6977 57.4365 36.4971 57.5414 36.5737 57.7428C36.7568 58.0368 37.0234 58.2695 37.3394 58.4113C37.488 58.4689 37.651 58.4776 37.8049 58.4363C37.9589 58.395 38.0956 58.3058 38.1954 58.1816C38.405 57.9089 38.5401 57.5865 38.5875 57.2459C38.7399 56.4246 38.83 55.5929 38.857 54.7581C38.857 54.6156 38.6273 54.5705 38.599 54.7221C38.3455 56.0016 38.3784 58.8301 37.2345 57.932C37.0798 57.8163 36.9665 57.6349 36.8034 57.5131Z" fill="#191919"/>
<path d="M34.6101 60.785C35.2226 60.8546 35.6706 60.2068 35.9884 59.6793C36.0994 59.5054 36.1977 59.3237 36.2824 59.1356C36.7216 59.3423 37.1819 59.5007 37.6553 59.608C37.7977 59.644 37.9049 59.4296 37.7625 59.3584C36.859 58.9067 35.3521 58.5238 34.6062 57.2458C34.535 57.121 34.437 56.9066 34.2494 57.0161C33.9914 57.1692 34.339 57.5958 34.4454 57.7474C34.1989 58.0561 34.0088 58.4061 33.8842 58.7811C33.7566 59.1936 33.729 59.6307 33.8038 60.056C33.8554 60.2413 33.9586 60.4082 34.1014 60.5372C34.2441 60.6663 34.4205 60.7522 34.6101 60.785ZM34.6545 57.9763C35.4968 58.9028 35.2671 58.1118 34.8076 59.1249C34.7486 59.2309 34.7237 59.3526 34.7364 59.4733C34.7376 59.5041 34.7486 59.5337 34.7679 59.5577C34.7873 59.5817 34.8138 59.5988 34.8436 59.6065C34.8561 59.6052 34.8686 59.6084 34.8788 59.6157C35.0412 59.6157 35.0825 59.3523 35.1377 59.1877C35.208 58.9943 35.3139 58.8159 35.4501 58.6616C35.6312 58.7815 35.8185 58.8917 36.0113 58.9916C35.8467 59.2114 35.3467 60.3102 34.7992 60.4358C34.218 60.5606 33.643 59.6142 34.6545 57.9763Z" fill="#191919"/>
<path d="M36.1768 55.7658C36.192 55.8323 36.2248 55.8935 36.2716 55.9431C36.3184 55.9927 36.3776 56.029 36.4431 56.048C36.5086 56.0671 36.578 56.0683 36.6442 56.0515C36.7103 56.0347 36.7708 56.0006 36.8193 55.9526C36.892 55.8729 36.9379 55.7725 36.9507 55.6654C36.9635 55.5583 36.9424 55.4499 36.8905 55.3553C36.7427 55.0965 36.3346 55.082 36.2396 55.3201C36.2304 55.3285 36.2304 55.3462 36.222 55.3553C36.2164 55.3595 36.2118 55.365 36.2086 55.3712C36.2055 55.3774 36.2037 55.3843 36.2036 55.3913C36.1658 55.4597 36.1446 55.5361 36.1416 55.6142C36.1416 55.6494 36.15 55.703 36.15 55.7298C36.1707 55.739 36.1707 55.7474 36.1768 55.7658Z" fill="#191919"/>
<path d="M39.3714 56.8447C39.3929 56.9301 39.4432 57.0056 39.5138 57.0583C39.5315 57.0675 39.5406 57.0851 39.5583 57.0943C40.1088 57.3692 40.4205 56.4388 39.8439 56.2466C39.8347 56.2466 39.8263 56.2466 39.8263 56.2382C39.7642 56.2272 39.7007 56.2272 39.6387 56.2382C39.5953 56.2495 39.5548 56.2695 39.5195 56.297C39.4842 56.3245 39.4549 56.359 39.4334 56.3982C39.425 56.4074 39.425 56.425 39.4158 56.4342C39.4104 56.4385 39.406 56.444 39.4029 56.4502C39.3999 56.4564 39.3983 56.4633 39.3982 56.4702C39.3633 56.5256 39.3426 56.5888 39.3379 56.6541C39.3333 56.7194 39.3448 56.7848 39.3714 56.8447Z" fill="#191919"/>
<path d="M109.11 126.388C109.112 126.438 109.132 126.487 109.166 126.524C109.201 126.562 109.247 126.586 109.297 126.592C109.348 126.599 109.399 126.587 109.441 126.559C109.484 126.532 109.515 126.49 109.53 126.441C109.606 125.934 109.623 123.422 109.69 122.296H109.182C109.182 122.408 109.034 125.694 109.11 126.388Z" fill="#191919"/>
<path d="M140.816 73.7738C140.008 75.1008 139.595 77.9308 139.131 79.9615C138.804 81.5628 138.252 83.1096 137.491 84.5558C136.988 85.6247 136.683 86.7757 136.59 87.9533C136.538 88.5122 136.542 89.0751 136.603 89.6333C134.057 89.701 131.525 89.25 129.159 88.3078C129.366 87.9669 129.5 87.5867 129.553 87.1913C129.606 86.796 129.576 86.3939 129.465 86.0107C128.929 83.9379 127.529 83.2847 128.235 80.411C128.664 78.7264 129.818 76.2953 128.592 74.4461C128.556 74.3908 128.5 74.3514 128.436 74.3362C128.372 74.3211 128.305 74.3314 128.248 74.3649C128.192 74.3984 128.15 74.4525 128.133 74.5159C128.115 74.5793 128.123 74.6471 128.154 74.7049C129.218 76.2991 128.243 78.45 127.834 79.9837C127.011 82.9578 128.116 83.6898 128.859 85.627C129.144 86.2646 129.216 86.9774 129.064 87.6592C129.004 87.8418 128.924 88.0169 128.825 88.1815C128.69 88.173 128.556 88.2088 128.442 88.2833C127.818 89.1172 122.597 99.0906 122.398 99.5002C122.157 99.4398 120.843 100.496 119.777 102.032C118.489 103.904 117.827 106.493 118.029 107.221C118.037 107.25 118.054 107.276 118.078 107.296C118.101 107.316 118.129 107.329 118.16 107.333C118.19 107.336 118.221 107.331 118.248 107.318C118.276 107.304 118.299 107.283 118.314 107.257C118.686 106.428 118.423 103.5 122.066 100.142C120.927 102.377 120.159 104.782 119.793 107.263C119.796 107.314 119.816 107.362 119.85 107.4C119.885 107.438 119.931 107.462 119.981 107.47C120.032 107.477 120.083 107.466 120.127 107.44C120.171 107.414 120.204 107.373 120.221 107.325C120.465 106.036 120.804 104.766 121.237 103.527C122.768 99.1442 128.282 89.7565 128.637 88.6822C130.717 89.5582 132.935 90.0621 135.19 90.1708C135.734 90.1976 136.278 90.1976 136.822 90.18C136.829 93.8166 136.458 97.4441 135.716 101.004C134.987 104.568 133.881 108.043 132.417 111.373C130.995 114.414 128.934 117.116 125.739 118.148C124.194 118.682 122.507 118.631 120.997 118.006C117.837 116.764 113.614 113.08 111.51 107.949C111.376 107.611 111.225 107.281 111.082 106.95C111.225 105.954 112.607 97.9099 112.643 97.6778C112.653 97.6358 112.646 97.5915 112.624 97.5542C112.602 97.517 112.566 97.4898 112.525 97.4783C112.483 97.4667 112.438 97.4718 112.401 97.4925C112.363 97.5132 112.334 97.5478 112.321 97.589C111.382 101.071 109.859 109.968 109.272 119.655H109.78C110.029 115.472 110.427 111.539 110.948 107.834C111.959 110.582 113.585 113.064 115.7 115.09C117.353 116.681 119.92 118.536 122.164 118.96C123.386 119.151 124.634 119.071 125.821 118.724C127.008 118.377 128.103 117.773 129.03 116.954C131.698 114.772 133.165 111.347 134.308 108.109C136.353 102.259 137.378 96.1009 137.339 89.9036C137.349 89.8686 137.351 89.8316 137.344 89.7958C137.338 89.76 137.322 89.7264 137.3 89.6976C137.277 89.6689 137.248 89.6459 137.215 89.6306C137.182 89.6153 137.146 89.608 137.11 89.6095H137.047C137.045 89.5426 137.039 89.4758 137.029 89.4097C136.847 86.6822 137.795 85.0145 138.492 83.4899C139.828 80.5213 140.023 76.9163 140.988 74.3511C141.045 74.198 141.064 74.0448 141.113 73.8963C141.127 73.7309 140.903 73.6321 140.816 73.7738Z" fill="#191919"/>
<path d="M64.1255 119.629C64.8575 110.845 65.3369 110.49 65.9088 106.773C65.9199 106.728 65.9129 106.679 65.8893 106.639C65.8657 106.599 65.8274 106.569 65.7823 106.556C65.7373 106.544 65.689 106.549 65.6478 106.571C65.6065 106.593 65.5755 106.63 65.5612 106.675C64.4547 110.039 63.7465 115.813 63.519 119.629H64.1255Z" fill="#191919"/>
<path d="M64.0148 122.304H63.4084C63.35 124.02 63.3978 125.738 63.5516 127.449C63.6052 127.654 63.9528 127.679 63.988 127.449C64.1381 126.499 63.9252 125.907 64.0148 122.304Z" fill="#191919"/>
<path d="M135.805 36.142C135.406 35.9143 134.954 35.7971 134.494 35.8025C134.035 35.8079 133.585 35.9358 133.192 36.1729C132.799 36.4101 132.475 36.7479 132.256 37.1515C132.037 37.5551 131.929 38.0099 131.944 38.469C131.415 41.1191 135.726 41.8979 136.901 39.9239C137.249 39.2751 137.328 38.5163 137.123 37.8096C136.918 37.1029 136.445 36.5044 135.805 36.142Z" fill="#38A1FF"/>
</svg>
