<svg width="154" height="154" viewBox="0 0 154 154" fill="none" xmlns="http://www.w3.org/2000/svg">
<path d="M120.53 96.7713C112.948 52.069 114.231 52.2596 109.211 22.7151C106.28 5.4654 105.901 5.79619 67.6263 10.2227C49.2854 12.3437 39.218 13.3253 34.3474 17.9425C24.4423 25.9463 26.574 36.1998 30.4194 60.6754C37.7846 107.553 37.3589 112.34 41.6935 136.442C45.0113 154.889 72.4655 149.162 91.2558 146.306C110.662 143.356 118.773 140.327 120.825 130.66C122.561 122.48 125.023 123.271 120.528 96.7728L120.53 96.7713ZM50.2579 14.8835C65.1997 12.9999 86.9357 10.0359 98.425 10.2648C109.662 10.4892 105.223 17.7534 119.798 103.868C120.797 109.773 122.742 124.67 118.698 129.088C111.641 136.797 83.9487 138.967 70.4923 140.791C66.4011 141.347 62.3131 140.868 58.2464 140.253C45.2678 138.291 47.8475 136.951 35.6016 57.056C30.2233 21.9639 29.169 17.5405 50.2579 14.8827V14.8835ZM68.8039 147.115C64.7128 147.67 60.5588 147.523 56.5565 146.576C40.9248 142.88 44.5549 140.677 32.3099 60.7826C27.4438 29.0321 28.3374 28.6906 31.1988 23.5313C29.5648 29.8698 31.0511 39.9962 33.7142 56.9465C41.081 103.823 40.8191 106.194 45.1553 130.297C48.473 148.743 74.1607 142.836 92.951 139.98C106.44 137.93 114.469 135.84 118.803 131.51C116.182 142.601 91.0069 144.103 68.8039 147.115Z" fill="#191919"/>
<path d="M39.4537 27.6019C40.5464 32.1256 53.9714 124.255 54.2815 129.009C54.3129 129.491 53.3244 129.685 53.2218 129.233C52.1889 124.673 38.8657 32.5713 38.5533 27.8408C38.5196 27.3285 39.3197 27.0475 39.4537 27.6019Z" fill="#191919"/>
<path d="M99.1093 15.5022C94.8145 16.6408 91.885 16.5542 88.1009 17.4187C83.7303 18.4172 85.5519 21.385 80.8581 22.8077C74.7356 24.663 61.7937 27.1722 57.2745 22.2411C53.7171 18.3598 39.7584 24.7702 39.6129 23.7197C39.5608 23.3468 39.9246 23.1507 40.2775 23.0229C62.5326 14.9478 53.0372 24.0022 65.7156 23.6201C70.0806 23.4943 74.4226 22.9393 78.6789 21.9631C89.2854 19.5198 76.8543 15.5818 98.4639 14.9623C98.6897 14.9562 98.9148 15.0098 99.1086 15.5022L99.1093 15.5014V15.5022Z" fill="#191919"/>
<path d="M112.328 125.833C99.6231 134.395 64.2493 136.65 56.9284 133.019C54.1696 131.65 57.2079 132.047 57.3281 132.065C76.0648 134.827 94.0289 131.486 111.673 125.366C113.455 124.747 112.406 125.779 112.328 125.833Z" fill="#191919"/>
<path d="M66.8284 18.1047C67.6362 14.715 70.9287 16.202 70.3353 18.4562C69.5895 21.2908 66.4126 19.5128 66.8284 18.104V18.1047Z" fill="#191919"/>
<path d="M74.159 16.3667C75.5786 16.9578 75.1521 18.7833 73.8091 18.5145C72.4852 18.2488 72.646 16.2151 74.159 16.3667Z" fill="#191919"/>
<path d="M102.283 18.8981C103.336 23.431 115.953 115.674 116.221 120.431C116.248 120.913 115.258 121.099 115.159 120.646C114.166 116.077 101.649 23.8621 101.379 19.1286C101.35 18.6163 102.153 18.3422 102.283 18.8981Z" fill="#191919"/>
<path d="M95.3255 114.322C97.1471 114.176 96.7589 113.833 97.9404 121.976C98.1257 123.251 97.9182 122.565 70.9816 126.157C69.6279 126.338 68.9816 126.555 68.8331 125.431C67.8951 118.365 67.2404 117.908 68.5015 117.753C70.222 117.542 90.2359 114.728 95.3255 114.322ZM84.67 120.224C81.925 120.412 76.5881 121.524 73.9548 121.565C71.7619 121.598 72.0414 122.747 72.657 122.806C74.8584 123.014 82.0751 122.223 84.7497 121.384C85.4128 121.176 86.8469 120.075 84.67 120.224Z" fill="#38A1FF"/>
<path d="M59.5942 103.671C58.2083 103.707 58.5199 104.113 57.6424 98.9428C57.4127 97.5829 57.6593 97.8562 63.6562 97.0829C90.2689 93.651 103.544 91.8049 103.587 92.187C103.907 93.9198 104.342 95.9627 104.467 97.7276C104.533 98.6587 104.159 98.5408 98.8983 99.1656C98.8723 99.1687 60.8721 103.638 59.5949 103.671H59.5942ZM102.722 93.1916C91.8363 94.978 58.2458 98.3111 58.4081 99.1564C59.1064 102.795 58.8943 102.839 59.5498 102.754C70.1677 101.385 101.958 97.7697 102.871 97.71C103.94 97.6396 103.849 97.7567 103.069 93.7337C103.015 93.4588 102.965 93.1296 102.722 93.1916Z" fill="#38A1FF"/>
<path d="M101.217 96.8448C101.145 97.383 100.696 97.138 100.293 96.8922C99.4198 96.3585 99.4665 96.9933 99.1748 97.1748C98.8831 97.3562 98.6572 97.8103 98.282 97.5186C97.867 97.1955 98.2789 96.8785 98.4673 96.6242C99.1993 95.6365 97.5577 95.9872 97.9811 95.151C98.4045 94.3149 99.0822 96.0959 99.939 94.9175C100.126 94.661 100.392 94.4167 100.711 94.6977C101.01 94.9611 100.793 95.2314 100.582 95.4313C99.6924 96.2758 101.073 96.2077 101.216 96.8448H101.217Z" fill="#38A1FF"/>
<path d="M62.3391 100.76C62.8008 100.821 63.4769 100.911 63.4547 101.481C63.4355 101.978 62.8054 101.636 60.9991 102.074C60.0657 102.3 60.5113 100.698 62.3391 100.76Z" fill="#38A1FF"/>
<path d="M61.8359 100.5C60.5534 100.539 60.4975 98.8999 61.6269 98.8739C62.8214 98.8463 62.7333 100.359 61.8359 100.5Z" fill="#38A1FF"/>
<path d="M68.2474 109.568C68.2382 109.786 68.2689 110.05 67.9947 110.114C67.3592 110.259 67.762 108.947 67.0346 109.314C66.68 109.493 66.0292 109.146 65.9955 109.896C65.9848 110.134 66.0384 110.431 65.7084 110.475C65.1724 110.546 65.5146 109.456 64.8523 109.617C64.5024 109.703 64.0682 109.516 63.8416 110.019C63.0973 111.659 61.4327 110.918 61.2551 109.877C61.0521 108.688 62.5468 107.855 63.3837 108.625C63.9251 109.123 64.0162 108.857 67.3937 108.44C68.066 108.357 68.2344 108.593 68.2482 109.566V109.568H68.2474ZM62.5667 110.142C63.4365 109.948 63.1417 109.033 62.4978 109.008C61.7474 108.978 61.7275 110.134 62.5667 110.142Z" fill="#38A1FF"/>
<path d="M60.9072 112.858C59.5213 112.894 59.8329 113.3 58.9554 108.13C58.7257 106.77 58.9722 107.043 64.9692 106.27C91.5819 102.838 104.895 100.925 104.939 101.307C105.258 103.04 105.655 105.149 105.78 106.914C105.846 107.846 105.472 107.728 100.211 108.352C100.185 108.355 62.1851 112.825 60.9079 112.858H60.9072ZM104.035 102.378C93.1493 104.165 59.5588 107.498 59.7211 108.343C60.4194 111.982 60.2073 112.025 60.8628 111.94C71.4807 110.572 103.271 106.957 104.184 106.897C105.253 106.826 105.162 106.944 104.382 102.921C104.328 102.646 104.278 102.316 104.035 102.378Z" fill="#38A1FF"/>
<path d="M102.531 106.029C102.459 106.568 102.011 106.323 101.608 106.077C100.734 105.543 100.781 106.178 100.489 106.359C100.198 106.541 99.9716 106.995 99.5964 106.703C99.1814 106.38 99.5934 106.063 99.7818 105.809C100.514 104.821 98.8721 105.172 99.2955 104.336C99.719 103.499 100.397 105.28 101.253 104.102C101.44 103.846 101.706 103.601 102.025 103.882C102.325 104.146 102.108 104.416 101.897 104.616C101.007 105.46 102.387 105.392 102.531 106.029H102.531Z" fill="#38A1FF"/>
<path d="M70.8218 108.894C70.86 107.531 72.8202 107.761 72.7467 108.968C72.6717 110.21 70.7873 110.15 70.8218 108.894Z" fill="#38A1FF"/>
<path d="M73.98 108.425C74.0182 107.062 75.9784 107.291 75.9049 108.499C75.8299 109.741 73.9455 109.681 73.98 108.425Z" fill="#38A1FF"/>
<path d="M77.3647 107.941C77.4022 106.578 79.3624 106.808 79.2897 108.016C79.2147 109.258 77.3303 109.198 77.3647 107.941Z" fill="#38A1FF"/>
<path d="M65.7344 100.01C65.7719 98.6473 67.7321 98.877 67.6593 100.084C67.5843 101.326 65.6999 101.267 65.7344 100.01Z" fill="#38A1FF"/>
<path d="M68.8935 99.5415C68.9311 98.1785 70.8912 98.4082 70.8185 99.6157C70.7435 100.858 68.8591 100.798 68.8935 99.5415Z" fill="#38A1FF"/>
<path d="M72.2781 99.0583C72.3148 97.6954 74.275 97.9251 74.2023 99.1326C74.1273 100.375 72.2429 100.315 72.2773 99.0583H72.2781Z" fill="#38A1FF"/>
<path d="M75.4394 98.5891C75.4762 97.2261 77.4387 97.4558 77.3659 98.6633C77.2909 99.9053 75.4057 99.8456 75.4394 98.5891Z" fill="#38A1FF"/>
<path d="M79.8153 46.5636C80.0221 46.5055 80.264 46.4718 80.5466 46.4718C86.9417 46.4718 90.6868 54.6035 86.3889 59.6594C85.7296 60.4351 84.5788 61.4129 83.5703 61.2383C83.3439 61.7252 83.0169 62.1587 82.6109 62.5101C82.7265 63.4734 82.8368 64.4328 82.9425 65.3815C83.1737 65.3869 83.4555 65.4573 83.7939 65.6395C88.1699 67.9956 91.6385 67.648 93.8238 67.8072C92.6156 57.0132 89.5826 45.0514 84.127 38.6218C80.6944 34.5758 76.0106 32.1861 71.4585 34.7389C71.5443 34.8056 71.6599 34.899 71.8 35.0161C74.313 36.8017 78.15 41.4174 79.3039 44.8829C79.4807 45.4143 79.6515 45.9764 79.8153 46.5636Z" fill="#191919"/>
<path d="M94.4367 77.1686C93.3762 77.5369 92.0683 77.5867 90.7705 77.5867C89.2789 77.5867 86.0071 77.5384 84.1426 76.8623C84.5652 80.6885 84.942 83.1732 85.3937 83.0813C95.5775 81.0109 94.6197 81.3501 94.4466 78.4588C94.4466 78.0361 94.4435 77.6058 94.4367 77.1686Z" fill="#191919"/>
<path d="M80.3451 63.406C79.0595 63.4619 78.0005 62.8064 78.2938 61.775C77.6797 61.3807 77.5595 60.7934 77.7586 60.3148C77.8811 60.0201 77.9064 60.2643 77.705 59.9642C77.5204 59.6885 77.4638 59.3753 77.5473 59.0782C76.6162 58.2911 77.2111 57.3822 77.9531 56.484C78.2823 56.0859 78.6989 55.7934 79.1682 55.615C79.0968 55.3724 79.0979 55.1142 79.1713 54.8723C78.2149 48.7122 77.1001 43.494 75.8872 41.6348C74.6108 39.6785 74.9377 41.9725 76.3022 54.0093C77.084 60.9006 77.2394 60.8317 76.6437 60.7712C76.2211 60.7283 76.0572 60.7582 75.9546 60.3164C75.8382 59.8202 74.133 45.8906 73.5932 39.8377C73.4569 38.3094 71.2785 36.6624 69.7517 35.7183C68.7777 35.1149 70.0311 35.3645 75.1705 85.9398C75.2578 86.7973 75.6376 86.5868 78.3045 87.0385C79.1108 87.1748 78.9202 86.8701 78.5358 83.537C77.3796 73.5002 76.8849 69.6273 76.7517 67.3463C76.7325 67.0331 77.3505 66.2712 77.5534 66.3562C77.728 66.429 77.8405 66.3317 79.8888 86.9068C79.9393 87.4183 79.8696 87.2506 82.5924 87.72C83.1116 87.8096 83.0848 87.9168 82.4983 83.6358C82.2977 82.1733 81.5182 72.9252 80.3436 63.406H80.3451ZM75.9439 65.3861C73.6583 65.3103 73.7279 61.739 76.2241 61.7658C78.5664 61.7911 78.3926 65.4672 75.9439 65.3861Z" fill="#38A1FF"/>
<path d="M67.7916 34.9527C69.323 35.3792 67.4217 34.9994 73.9815 85.8311C74.0772 86.5723 73.7503 86.3005 70.5849 85.8863C69.6591 85.7653 66.8804 56.9107 63.7081 35.5461C63.6484 35.1449 63.6959 34.8983 64.2104 34.86C65.4179 34.7689 66.5956 34.6196 67.7916 34.9527Z" fill="#38A1FF"/>
<path d="M68.1919 85.7958C67.1659 85.3961 65.4921 85.9122 65.3619 84.8188C63.8496 72.1312 64.7937 79.4956 62.5479 61.8539C59.4982 37.899 59.221 38.3584 59.5954 37.8814C60.3052 36.9779 61.1674 36.2458 62.1421 35.6402C62.7937 35.2344 62.1015 32.4702 66.6437 69.1932C68.7953 86.5883 68.8673 86.0592 68.1927 85.7966L68.1919 85.7958Z" fill="#38A1FF"/>
<path d="M58.1606 39.7191C58.7004 38.6066 58.6185 40.7766 62.4148 71.3533C64.2119 85.8288 64.4501 85.1458 63.3812 85.0103C60.8544 84.6895 61.3459 85.0907 60.7939 82.1634C59.3352 74.4367 54.7303 46.7942 58.1606 39.7191Z" fill="#38A1FF"/>
<path d="M89.7456 76.6817C88.8567 76.658 83.4608 76.3732 83.6675 75.5079C83.8 74.952 87.4761 76.2346 92.127 75.7583C94.3245 75.5332 94.8375 75.351 94.9095 74.4298C95.0542 72.5822 94.7257 70.7843 94.7273 70.3739C94.7334 68.3701 91.2411 71.0362 83.1828 67.2828C82.8145 67.1113 82.5963 66.7162 82.7188 66.4359C82.8781 66.0707 83.2724 66.3861 83.5059 66.4926C92.5527 70.6365 95.2725 66.8701 95.6599 70.3578C96.2418 75.5944 96.1737 76.851 89.7456 76.6817Z" fill="#191919"/>
<path d="M101.144 76.5951C101.011 77.4022 100.828 77.6709 100.223 77.0645C96.8666 73.6992 96.797 74.442 96.7357 73.6188C96.4731 70.0951 95.4654 68.9649 96.9417 69.0514C99.3337 69.1916 99.8613 70.5637 101.144 76.5951Z" fill="#191919"/>
<path d="M80.0996 48.0506C79.8554 48.0476 79.7505 47.9511 79.7505 47.6969C79.7505 46.716 86.3156 47.7061 87.236 53.3807C88.0024 58.1058 84.1387 60.9527 83.5706 60.2758C83.2275 59.8677 83.7199 59.6701 83.9611 59.4703C89.2766 55.0514 85.3432 48.118 80.1004 48.0514L80.0996 48.0506Z" fill="#191919"/>
<path d="M78.6421 57.0522C80.1513 55.2229 83.7792 56.9672 83.0303 60.1104C82.3098 63.1341 79.0265 62.7107 79.1429 62.0399C79.2409 61.4749 81.322 62.5062 82.1934 60.6739C83.2011 58.5545 81.93 56.3967 79.4392 56.9358C79.1827 56.9909 78.9407 57.2298 78.6421 57.0522Z" fill="#191919"/>
<path d="M82.9596 53.4902C81.4588 54.2391 80.5752 55.8616 80.1158 55.4971C79.4955 55.0048 81.6204 53.2084 82.6793 53.0522C83.0783 52.9933 83.4381 53.2513 82.9596 53.4902Z" fill="#191919"/>
<path d="M79.4668 58.824C78.8298 58.8362 77.816 58.4181 77.9814 58.0606C78.2394 57.5031 79.0089 58.716 80.7295 57.9993C81.2899 57.7658 81.038 58.7941 79.4668 58.824Z" fill="#191919"/>
<path d="M80.0697 61.4181C79.5834 61.3454 78.3997 61.0858 78.5788 60.6601C78.7427 60.2719 79.9257 61.2382 81.1478 60.6142C81.4785 60.4457 81.7067 61.2551 80.0697 61.4181Z" fill="#191919"/>
<path d="M79.8821 60.0751C79.1501 60.017 78.3216 59.5774 78.4058 59.3094C78.5314 58.9105 79.1095 59.5055 80.0697 59.4963C81.1853 59.4856 81.2251 59.0966 81.3369 59.432C81.4648 59.8171 80.2872 60.0315 79.8829 60.0751H79.8821Z" fill="#191919"/>
</svg>
