<svg width="154" height="154" viewBox="0 0 154 154" fill="none" xmlns="http://www.w3.org/2000/svg">
<path d="M8.80196 128.731C7.65183 128.3 7.59279 127.588 8.71761 127.138C8.7785 127.114 8.8304 127.072 8.86622 127.017C8.90204 126.962 8.92003 126.897 8.91774 126.832L8.82649 124.462C8.8237 124.383 8.79214 124.309 8.73783 124.252C8.68351 124.195 8.61026 124.161 8.53206 124.155C7.3712 124.065 5.49343 123.089 4.43072 124.365C3.62333 125.373 3.55739 127.555 3.72531 128.705C3.83298 129.537 4.2422 130.301 4.87544 130.852C5.75996 131.412 6.78422 131.712 7.83125 131.718C9.56717 131.718 10.7679 131.212 10.2503 129.938C10.1392 129.626 9.94619 129.349 9.6914 129.136C9.4366 128.924 9.12942 128.784 8.80196 128.731Z" fill="#4B1010"/>
<path d="M20.5389 109.616L7.32324 112.624C13.3752 114.137 21.1324 119.586 25.1885 124.655C20.818 124.655 14.3329 124.42 10.6969 124.017C9.42107 123.835 8.44423 123.753 7.87147 125.11C7.10089 126.937 7.85307 127.845 8.96562 127.845C13.6135 128.575 18.3003 129.032 23.0017 129.212C26.0089 129.303 30.5665 129.394 31.1132 125.566C31.1116 120.974 24.0085 112.763 20.5389 109.616Z" fill="#FFE55D"/>
<path d="M24.4863 129.56C19.2696 129.448 14.0667 128.98 8.91363 128.16C7.64312 128.173 6.69005 126.979 7.57795 124.981C8.23275 123.342 9.56383 123.533 10.74 123.701C14.2931 124.096 20.4578 124.318 24.5108 124.334C21.5205 120.791 18.3071 118.542 14.4427 116.083C12.2301 114.65 9.79922 113.586 7.24518 112.934C7.17532 112.916 7.11333 112.876 7.06927 112.819C7.02521 112.762 7.00166 112.692 7.00246 112.62C7.00326 112.548 7.02836 112.479 7.07367 112.423C7.11899 112.367 7.18186 112.328 7.25208 112.313L20.4678 109.305C20.518 109.293 20.5701 109.294 20.6198 109.308C20.6695 109.321 20.7152 109.346 20.753 109.381C24.257 112.559 31.43 120.836 31.43 125.567C30.9262 129.112 27.3532 129.56 24.4863 129.56ZM9.60447 124.232C9.28573 124.203 8.96686 124.287 8.70374 124.469C8.44061 124.651 8.24999 124.92 8.16528 125.229C7.65999 126.369 7.74203 127.529 8.96346 127.529C13.6154 128.26 18.3063 128.717 23.0118 128.897C26.6922 129.008 30.322 128.841 30.7951 125.524C30.7844 121.145 23.7088 112.949 20.444 109.966L8.61766 112.658C10.7934 113.339 12.8672 114.311 14.7831 115.547C18.9297 118.186 22.3524 120.607 25.4325 124.458C25.4704 124.505 25.4942 124.561 25.5011 124.621C25.5081 124.681 25.498 124.742 25.4719 124.796C25.4458 124.85 25.4048 124.896 25.3537 124.928C25.3026 124.96 25.2435 124.976 25.1833 124.976C19.9806 125.014 14.7798 124.766 9.60447 124.232Z" fill="#4B1010"/>
<path d="M39.4056 86.8296C38.4947 81.8166 35.7605 77.4415 33.0255 73.1584C32.0876 73.7005 31.074 74.0995 30.0183 74.3423C31.9352 78.5357 33.2992 82.9107 35.213 87.1033C30.2912 85.9179 25.3695 84.915 20.4477 83.3662L18.1689 89.8375C24.2332 91.2192 30.4618 91.7406 36.6714 91.3864C39.4968 91.2047 39.8618 89.3813 39.4056 86.8296Z" fill="#FFE55D"/>
<path d="M18.0983 90.1487C18.0549 90.1389 18.0139 90.1203 17.9779 90.0943C17.9421 90.0676 17.9121 90.0339 17.8897 89.9953C17.7877 89.8098 17.6972 90.2192 20.147 83.2641C20.1743 83.1859 20.2309 83.1214 20.3049 83.0844C20.3789 83.0473 20.4645 83.0405 20.5434 83.0655C25.2398 84.5438 30.0258 85.5436 34.6562 86.6454C33.8051 84.7285 33.0506 82.7534 32.3176 80.8411C29.7712 74.1934 29.5941 74.4902 29.7306 74.2088C29.7508 74.1664 29.7801 74.1291 29.8164 74.0994C29.8527 74.0697 29.8952 74.0484 29.9407 74.037C30.9664 73.8025 31.951 73.4147 32.8612 72.8869C32.9326 72.8441 33.0178 72.831 33.0987 72.8502C33.1797 72.8694 33.2499 72.9194 33.2944 72.9896C35.8631 77.0135 38.7821 81.5726 39.7198 86.7765C40.2366 89.6426 39.6209 91.5196 36.6919 91.7083C30.4515 92.067 24.1917 91.542 18.0983 90.1487ZM18.589 89.6051C24.5137 90.9254 30.5929 91.4177 36.6528 91.068C39.1562 90.907 39.5435 89.4149 39.0918 86.8854C38.1886 81.9176 35.416 77.4973 32.921 73.5862C32.1451 74.0066 31.3213 74.332 30.4674 74.5553C32.3015 78.6459 33.6571 82.9206 35.5065 86.9705C35.5313 87.0249 35.5403 87.0852 35.5325 87.1445C35.5247 87.2038 35.5004 87.2597 35.4623 87.3058C35.4243 87.352 35.374 87.3865 35.3173 87.4054C35.2606 87.4243 35.1997 87.427 35.1415 87.4129C30.3877 86.2674 25.4805 85.2622 20.65 83.7624L18.589 89.6051Z" fill="#4B1010"/>
<path d="M11.1502 74.7087C8.8776 67.1317 14.6098 64.008 19.2993 67.3042C20.8013 68.407 21.9326 69.9403 22.5434 71.7008C22.8708 72.4997 24.7953 74.0877 24.7953 74.0877C24.7953 74.0877 23.4359 74.8621 23.4596 75.1741C23.6283 77.6277 22.2819 79.3759 21.4998 79.767C21.2302 79.9648 20.9263 80.1112 20.6035 80.1986C20.4501 80.8895 20.3505 81.5903 20.3045 82.2965C19.0419 82.1636 17.7715 82.1219 16.5029 82.1715C16.6846 81.6248 17.4391 80.3581 16.8924 79.9027C14.1245 78.3891 12.3272 77.2957 11.1502 74.7087Z" fill="white"/>
<path d="M19.8952 74.2105C19.6741 74.2057 19.4544 74.2452 19.2488 74.3265C19.0432 74.4078 18.8559 74.5293 18.6978 74.684C18.5398 74.8386 18.4143 75.0233 18.3286 75.2271C18.2429 75.4309 18.1987 75.6498 18.1987 75.8709C18.1987 76.092 18.2429 76.3108 18.3286 76.5147C18.4143 76.7185 18.5398 76.9031 18.6978 77.0578C18.8559 77.2124 19.0432 77.334 19.2488 77.4153C19.4544 77.4966 19.6741 77.536 19.8952 77.5313C20.3357 77.5313 20.7581 77.3563 21.0695 77.0448C21.381 76.7334 21.556 76.311 21.556 75.8705C21.556 75.43 21.381 75.0076 21.0695 74.6961C20.7581 74.3847 20.3357 74.2097 19.8952 74.2097V74.2105Z" fill="#FFE55D"/>
<path d="M21.6328 72.7915C21.4534 72.4335 21.1943 72.1505 20.8661 72.1781C20.5832 72.1988 20.2926 72.4235 20.3593 72.9694C20.5387 74.4285 22.168 73.865 21.6328 72.7915Z" fill="#4B1010"/>
<path d="M19.3241 72.1456C19.4457 71.8159 19.6499 71.5228 19.9172 71.2946C20.1845 71.0664 20.5059 70.9106 20.8507 70.8421C20.9325 70.8317 21.0151 70.8534 21.0812 70.9026C21.1474 70.9518 21.1919 71.0247 21.2055 71.106C21.2191 71.1873 21.2007 71.2707 21.1541 71.3388C21.1075 71.4068 21.0364 71.4541 20.9557 71.4709C20.7243 71.5191 20.5089 71.6251 20.3295 71.779C20.1501 71.9329 20.0126 72.1297 19.9298 72.3511C19.9026 72.4314 19.8445 72.4976 19.7685 72.5352C19.6924 72.5727 19.6045 72.5785 19.5242 72.5512C19.4439 72.524 19.3777 72.4659 19.3401 72.3899C19.3026 72.3138 19.2968 72.2259 19.3241 72.1456Z" fill="#4B1010"/>
<path d="M19.9921 97.038C18.6573 99.7626 18.4287 102.898 19.3542 105.787C19.4454 106.244 18.4425 106.972 18.0783 107.244C15.6109 108.478 11.4797 108.34 8.9632 107.882C7.76058 107.805 6.58433 107.496 5.49979 106.97C4.67937 106.424 4.04297 106.242 4.04297 105.148C4.42775 99.328 6.44999 93.7355 9.8764 89.0155C11.7308 86.4575 13.9492 84.1843 16.4612 82.2681C19.4968 81.9806 23.8803 82.3248 23.5391 84.9517C22.8552 90.2063 23.2393 90.4271 19.9921 97.038Z" fill="#FFE55D"/>
<path d="M24.74 73.449C23.9806 72.8773 23.351 72.1511 22.8929 71.3182C23.1053 71.5191 23.2985 71.7399 23.4695 71.9776C23.5143 72.0407 23.5806 72.0853 23.6559 72.1032C23.7312 72.1211 23.8104 72.111 23.8788 72.0747C23.9472 72.0385 24.0001 71.9787 24.0276 71.9064C24.0551 71.8341 24.0555 71.7542 24.0285 71.6817C23.6796 70.7232 23.675 69.7142 23.3982 68.699C21.8793 63.1278 14.6151 61.7983 11.0014 65.9295C10.6524 66.4662 10.3621 67.039 10.1357 67.6378C9.9577 67.9862 9.85502 68.3681 9.83441 68.7588C9.75683 68.8182 9.68472 68.8844 9.61896 68.9566C8.47803 70.4771 8.83687 72.6225 10.5145 75.2394C12 77.5642 14.1507 79.3881 16.6868 80.474C16.7154 80.4848 16.7449 80.493 16.775 80.4985C16.7454 81.056 16.5559 81.5931 16.2291 82.0458C13.6923 83.9545 11.4635 86.2412 9.62049 88.8262C6.10884 93.5776 4.05921 99.25 3.72266 105.149C3.72266 106.387 4.44647 106.667 5.35737 107.257C6.46836 107.797 7.67381 108.116 8.90665 108.197C11.8203 108.727 15.8074 108.733 18.2211 107.53C18.238 107.522 18.2978 107.478 18.3147 107.467C19.03 106.93 19.7845 106.31 19.6588 105.692C18.7619 102.881 18.9838 99.8321 20.2783 97.1807C23.4718 90.6817 23.1597 90.3367 23.8537 84.9993C24.0837 83.2074 22.4398 82.3724 20.6502 82.0565C20.6292 81.4652 20.7291 80.8758 20.9438 80.3244C22.6307 79.6888 23.8705 78.0763 23.8046 75.2815C24.4203 74.639 25.5934 74.2771 24.74 73.449ZM23.2203 84.915C22.5302 90.2055 22.873 90.3351 19.7048 96.897C18.3299 99.681 18.0915 102.891 19.04 105.847C19.04 105.911 18.9733 106.177 17.9343 106.961C15.5651 108.145 11.555 108.034 8.98792 107.566C7.83932 107.493 6.71518 107.202 5.67633 106.707C4.84058 106.149 4.36059 106.049 4.35982 105.169C4.69122 99.3978 6.69875 93.8482 10.1365 89.2003C12.5771 85.7132 14.6481 84.2809 16.5994 82.5779C19.0193 82.3648 23.5332 82.5158 23.2211 84.915H23.2203ZM17.0649 81.9032C17.2719 81.4332 17.3915 80.9294 17.4176 80.4165C18.3158 80.7011 19.2732 80.7437 20.1932 80.5399C20.0685 81.0034 20.0069 81.4815 20.0099 81.9615C19.0319 81.8589 18.0469 81.8394 17.0656 81.9032H17.0649ZM23.8284 74.4312C23.0723 74.9909 23.1973 74.9925 23.2042 75.2133C23.2233 75.8533 23.1431 76.4925 22.9665 77.1079C22.677 77.2866 22.3419 77.3776 22.0017 77.37C21.6616 77.3624 21.3309 77.2565 21.0497 77.065L20.8672 76.9738C20.7918 76.938 20.7054 76.9332 20.6265 76.9605C20.5476 76.9877 20.4825 77.0447 20.4452 77.1193C20.4079 77.194 20.4013 77.2802 20.4269 77.3597C20.4524 77.4391 20.5081 77.5053 20.5819 77.5442L20.7353 77.6209C21.0168 77.8056 21.3344 77.9284 21.6669 77.9813C21.9995 78.0341 22.3395 78.0159 22.6644 77.9276C22.174 78.8761 21.3318 79.5948 20.318 79.93C19.3043 80.2652 18.1996 80.1902 17.2404 79.721C17.7005 78.4375 18.1966 77.5358 17.9988 77.2038C18.126 77.1831 18.2518 77.1501 18.3729 77.1049C18.4522 77.0752 18.5165 77.0152 18.5516 76.9381C18.5867 76.8611 18.5897 76.7732 18.56 76.6939C18.5303 76.6146 18.4703 76.5503 18.3933 76.5152C18.3162 76.4801 18.2283 76.4771 18.149 76.5068C17.8608 76.6059 17.5493 76.6158 17.2553 76.5351C16.9613 76.4544 16.6986 76.2868 16.5013 76.0544C16.1563 75.6411 15.9339 74.8276 16.3533 74.4857C16.4604 74.4171 16.5809 74.3721 16.7068 74.3537C16.8327 74.3353 16.961 74.344 17.0833 74.3791C17.9543 74.6168 18.3231 76.0889 19.4801 76.296C19.5605 76.3102 19.6432 76.2931 19.7114 76.2482C19.7795 76.2032 19.8278 76.1339 19.8464 76.0544C19.865 75.975 19.8524 75.8914 19.8112 75.8209C19.77 75.7505 19.7034 75.6985 19.625 75.6756C19.2033 75.28 17.7703 71.8227 18.3085 71.4708C18.5562 71.3098 19.2463 71.4938 19.816 71.8733C19.8747 71.9102 19.9438 71.927 20.0129 71.9213C20.082 71.9156 20.1474 71.8876 20.1992 71.8415C20.2511 71.7955 20.2866 71.7338 20.3004 71.6659C20.3143 71.5979 20.3057 71.5273 20.276 71.4647C20.0213 70.9352 19.6878 70.4473 19.2869 70.0178C20.146 69.9738 21.0021 70.1515 21.7727 70.5338C21.8731 70.7217 21.9697 70.9172 22.061 71.1089C22.5926 72.2395 23.3864 73.2269 24.3766 73.9888C24.2754 74.0885 23.9495 74.3415 23.8291 74.4312H23.8284Z" fill="#4B1010"/>
<path d="M32.3305 131.849C31.9165 130.598 29.3349 130.175 28.0636 129.961C27.6667 129.919 27.2828 129.795 26.9365 129.597C26.4764 129.24 26.5347 128.55 27.1082 127.547C27.1358 127.498 27.1503 127.443 27.1501 127.388C27.1498 127.332 27.135 127.277 27.107 127.229C27.0789 127.18 27.0388 127.14 26.9904 127.112C26.942 127.085 26.8872 127.07 26.8314 127.07H24.5488C24.4927 127.07 24.4378 127.085 24.3893 127.113C24.3408 127.142 24.3004 127.182 24.272 127.23C23.5305 128.479 22.9156 129.799 22.4364 131.17C22.321 131.4 22.269 131.657 22.2858 131.913C22.3026 132.17 22.3876 132.418 22.532 132.631C22.6764 132.845 22.8751 133.015 23.1075 133.126C23.3398 133.237 23.5976 133.284 23.8541 133.262C25.3462 133.466 26.849 133.577 28.3549 133.593C29.9912 133.595 32.8443 133.412 32.3305 131.849Z" fill="#4B1010"/>
<path d="M34.1189 102.871C27.7549 102.164 19.0784 106.162 14.0884 108.18C10.9111 108.384 7.72861 107.872 4.77545 106.682C4.0731 110.872 4.74171 114.8 8.96343 115.27C16.6194 116.546 23.455 112.9 30.2024 109.892C23.9534 126.857 23.6321 126.437 23.2756 128.577C24.0669 128.932 24.8911 129.206 25.7368 129.397C26.0964 129.397 26.3372 129.474 26.5565 129.032C29.1389 125.566 31.4537 121.909 33.4802 118.092C35.3028 114.81 37.7641 110.709 37.7641 106.79C37.7648 104.511 36.3065 103.144 34.1189 102.871Z" fill="#FFE55D"/>
<path d="M14.0888 108.18C13.0528 108.63 12.062 109.178 11.1299 109.816C11.1299 109.816 15.1929 107.71 14.0888 108.18Z" fill="#FFE55D"/>
<path d="M34.1553 102.567C27.8825 101.825 19.4951 105.662 14.0205 107.878C10.9087 108.072 7.79295 107.567 4.90154 106.4C4.85867 106.381 4.81204 106.372 4.76515 106.374C4.71826 106.375 4.67235 106.388 4.63088 106.409C4.58937 106.432 4.55353 106.463 4.52614 106.501C4.49875 106.54 4.48054 106.584 4.47293 106.63C3.74298 110.983 4.5105 115.082 8.91317 115.571C16.3261 116.806 22.9155 113.514 29.6599 110.469C23.7559 126.418 22.4187 128.53 23.1486 128.856C24.0473 129.279 25.0034 129.565 25.9856 129.707C26.1561 129.723 26.3271 129.684 26.4733 129.595C26.6195 129.505 26.733 129.371 26.7968 129.213C29.5414 125.515 31.9964 121.611 34.14 117.535C35.8882 114.406 38.068 110.514 38.068 106.792C38.0719 104.452 36.6081 102.856 34.1553 102.567ZM33.6086 117.234C31.4693 121.302 29.0192 125.199 26.28 128.889C26.1574 129.134 26.1328 129.073 25.8008 129.091C25.0532 128.924 24.3224 128.687 23.6179 128.386C23.8211 127.408 24.1411 126.459 24.571 125.558C26.54 120.456 28.5757 115.182 30.488 109.993C30.5033 109.95 30.5092 109.905 30.5051 109.86C30.501 109.816 30.487 109.772 30.4642 109.734C30.4415 109.695 30.4104 109.662 30.3733 109.636C30.3361 109.611 30.2939 109.594 30.2495 109.587C30.1903 109.577 30.1295 109.585 30.0747 109.609C23.2368 112.658 16.5278 116.216 8.99751 114.962C5.10856 114.529 4.44763 110.984 5.01732 107.117C7.46057 108.043 10.0512 108.52 12.6641 108.523C12.1818 108.782 12.0867 108.852 10.9673 109.556C10.9165 109.589 10.8764 109.636 10.852 109.691C10.8276 109.746 10.8199 109.807 10.83 109.867C10.84 109.926 10.8673 109.982 10.9085 110.026C10.9497 110.07 11.0029 110.101 11.0616 110.115C11.1009 110.124 11.1416 110.126 11.1813 110.119C11.2211 110.112 11.2591 110.098 11.2932 110.076C12.7327 109.095 14.2976 108.313 15.9458 107.749C20.9396 105.679 28.4844 102.552 34.084 103.176C36.2309 103.444 37.4577 104.762 37.4577 106.791C37.4585 110.352 35.3208 114.167 33.6086 117.234Z" fill="#4B1010"/>
<path d="M81.9689 78.5354L78.9609 80.4492V68.2349H81.9689V78.5354Z" fill="white"/>
<path d="M112.243 125.222L81.5064 79.2081C82.1558 78.7949 82.2877 78.7611 82.2877 78.5357V68.236C82.2875 68.1514 82.2538 68.0704 82.1941 68.0106C82.1343 67.9509 82.0533 67.9172 81.9687 67.917H74.4952C74.4106 67.917 74.3295 67.9506 74.2697 68.0104C74.2099 68.0702 74.1763 68.1514 74.1763 68.236C74.1763 80.6466 74.1356 80.5154 74.2491 80.6519L42.9466 126.771C42.9128 126.82 42.8891 126.876 42.8768 126.935C42.8645 126.993 42.864 127.054 42.8752 127.112C42.8864 127.171 42.9091 127.227 42.942 127.277C42.9749 127.327 43.0174 127.37 43.067 127.404C43.1669 127.472 43.2898 127.497 43.4085 127.475C43.5273 127.452 43.6322 127.383 43.7003 127.283L75.272 80.7662H78.4432L87.625 141.399C87.6339 141.458 87.6543 141.515 87.6853 141.566C87.7162 141.618 87.757 141.662 87.8052 141.697C87.8531 141.733 87.9077 141.759 87.9657 141.774C88.0238 141.788 88.0842 141.791 88.1434 141.782C88.2327 141.769 88.316 141.729 88.3827 141.668C88.4493 141.608 88.4963 141.528 88.5175 141.441C88.5322 141.383 88.5351 141.322 88.526 141.263L79.338 80.5852L80.7373 79.695L111.484 125.725C111.543 125.812 111.63 125.876 111.731 125.906C111.831 125.937 111.939 125.931 112.036 125.891C112.133 125.851 112.214 125.778 112.263 125.686C112.313 125.593 112.33 125.486 112.31 125.383C112.298 125.325 112.274 125.269 112.242 125.219L112.243 125.222ZM79.2805 79.8683V68.5549H81.6498V78.3601L79.2805 79.8683Z" fill="#4B1010"/>
<path d="M23.4541 71.0613L26.9175 70.2408C27.161 70.1773 27.4179 70.1875 27.6556 70.2702C27.8932 70.3529 28.101 70.5042 28.2525 70.7051C28.4041 70.906 28.4925 71.1474 28.5067 71.3986C28.5209 71.6499 28.4601 71.8996 28.3322 72.1163C28.2476 72.2602 28.1354 72.386 28.0022 72.4866C27.8689 72.5871 27.7171 72.6603 27.5555 72.7021L24.0921 73.5225C23.7663 73.5953 23.4251 73.5417 23.1374 73.3724C22.8497 73.2032 22.6371 72.931 22.5425 72.6109C22.4581 72.2845 22.5067 71.938 22.6776 71.6474C22.8486 71.3569 23.1278 71.146 23.4541 71.0613Z" fill="#FFE55D"/>
<path d="M22.2355 72.6984C22.1332 72.2909 22.1942 71.8596 22.4055 71.4964C22.6168 71.1333 22.9616 70.8671 23.3665 70.7547L26.8437 69.9312C27.2483 69.8354 27.6744 69.9019 28.0306 70.1165C28.3868 70.331 28.6448 70.6766 28.7493 71.0791C28.8538 71.4816 28.7965 71.909 28.5896 72.2697C28.3827 72.6305 28.0428 72.8958 27.6426 73.0089L24.1654 73.8332C23.7599 73.9228 23.3355 73.8556 22.9774 73.6451C22.6194 73.4346 22.3544 73.0964 22.2355 72.6984ZM23.539 71.3704C23.295 71.4355 23.0865 71.5941 22.9587 71.8118C22.8308 72.0295 22.7938 72.2888 22.8558 72.5336C22.931 72.7682 23.0896 72.9672 23.3015 73.0929C23.5134 73.2186 23.764 73.2624 24.0059 73.216L27.4831 72.3917C27.7277 72.3285 27.9371 72.1707 28.0653 71.953C28.1935 71.7354 28.2299 71.4758 28.1667 71.2312C28.1035 70.9867 27.9457 70.7773 27.728 70.6491C27.5104 70.5209 27.2508 70.4844 27.0062 70.5477L23.539 71.3704Z" fill="#4B1010"/>
<path d="M25.6416 69.1471L120.523 16.8303L131.916 70.5143L27.0087 73.9777C26.4354 73.9884 25.8746 73.8089 25.414 73.4673C24.9535 73.1257 24.619 72.6412 24.4628 72.0895C24.3067 71.5377 24.3376 70.9498 24.5509 70.4175C24.7641 69.8852 25.1477 69.4385 25.6416 69.1471Z" fill="#FFE55D"/>
<path d="M27.0194 74.2967C26.3759 74.3104 25.7459 74.1105 25.2279 73.7284C24.7099 73.3463 24.333 72.8034 24.1561 72.1845C23.9792 71.5656 24.0123 70.9055 24.2501 70.3073C24.4879 69.7092 24.917 69.2066 25.4706 68.8781L120.659 16.5398C120.889 16.6464 120.777 16.5168 132.231 70.4484C132.245 70.5171 132.236 70.5884 132.205 70.6515C132.175 70.7146 132.125 70.766 132.062 70.798C132.021 70.8189 131.975 70.8304 131.929 70.8318L27.0194 74.2967ZM25.8049 69.4217C25.3718 69.6778 25.0357 70.07 24.8491 70.5373C24.6625 71.0045 24.6358 71.5204 24.7733 72.0043C24.9108 72.4883 25.2047 72.9131 25.6091 73.2124C26.0135 73.5117 26.5057 73.6687 27.0087 73.6588L131.525 70.2084L120.3 17.3173L25.8049 69.4217Z" fill="#4B1010"/>
<path d="M82.7891 73.34H79.2345C68.5506 72.9291 62.3859 47.0244 72.6718 41.9861L75.3156 40.8015C75.3156 40.8015 69.3909 46.27 72.6718 58.3003C75.9528 70.3305 82.7891 73.34 82.7891 73.34Z" fill="white"/>
<path d="M83.6291 72.2204C83.5639 72.1958 77.0834 69.6487 73.8914 57.9489C73.1622 55.0812 71.1932 45.4233 76.506 41.5136C76.5723 41.4652 76.6173 41.3929 76.6316 41.3121C76.6459 41.2312 76.6284 41.1479 76.5827 41.0796C76.346 40.7324 75.9851 40.4893 75.5744 40.4003C75.3229 40.339 74.6543 40.707 72.5312 41.7038C61.97 46.6562 68.1806 73.4472 79.2341 73.6619C83.0832 73.7385 82.9912 73.8359 83.1445 73.6182L83.7824 72.7057C83.8108 72.6655 83.8296 72.6192 83.8373 72.5706C83.845 72.5219 83.8415 72.4722 83.8269 72.4251C83.8117 72.3782 83.786 72.3353 83.7517 72.2998C83.7174 72.2643 83.6755 72.2372 83.6291 72.2204ZM72.8026 42.275L74.1613 41.6616C72.594 43.8223 69.8629 49.2064 72.364 58.3767C74.9035 67.6874 79.5025 71.6415 81.5888 73.0132H79.2464C68.9244 72.6237 62.8126 47.1699 72.8026 42.2742V42.275Z" fill="#4B1010"/>
<path d="M139.205 71.5098C147.893 69.53 151.96 54.8751 148.292 38.7772C144.623 22.6786 134.607 11.2341 125.92 13.2138C117.234 15.1928 113.165 29.8477 116.834 45.9463C120.502 62.0442 130.519 73.4895 139.205 71.5098Z" fill="white"/>
<path d="M148.603 38.7061C146.817 30.8699 143.487 23.8734 139.227 19.006C135.844 15.1393 129.95 11.2197 125.426 12.8851L120.248 14.7935C111.895 17.3276 108.156 31.4657 111.737 46.9793C115.079 61.6089 123.734 72.4791 131.985 72.4791C132.34 72.4791 132.036 72.4922 138.458 72.0459C149.131 71.3045 151.757 52.5498 148.603 38.7061ZM139.137 71.1971C135.055 72.1279 130.524 70.0317 126.38 65.2931C117.705 55.3867 113.527 37.0614 117.054 24.371C120.543 11.804 130.192 9.6494 138.753 19.4255C142.945 24.2153 146.224 31.113 147.987 38.8472C151.604 54.748 147.636 69.2603 139.137 71.1979V71.1971Z" fill="#4B1010"/>
<path d="M146.307 39.1623C143.141 25.2703 134.805 15.2842 127.724 16.8951C120.642 18.5053 117.458 31.1237 120.624 45.0149C123.565 57.9169 130.965 67.453 137.681 67.453C138.197 67.4533 138.711 67.396 139.214 67.282C146.287 65.668 149.473 53.0535 146.307 39.1623Z" fill="#4B1010"/>
<path d="M143.084 56.1617C144.478 45.3335 141.976 34.3624 136.024 25.2095C135.978 25.1389 135.961 25.0526 135.978 24.9697C135.995 24.8868 136.045 24.8141 136.115 24.7675C136.186 24.7209 136.272 24.7043 136.355 24.7214C136.438 24.7384 136.511 24.7877 136.557 24.8584C142.594 34.14 145.131 45.2664 143.716 56.2475C143.704 56.3312 143.66 56.4069 143.593 56.4581C143.525 56.5093 143.441 56.532 143.357 56.5213C143.273 56.5096 143.197 56.4653 143.146 56.3979C143.095 56.3305 143.072 56.2455 143.084 56.1617Z" fill="white"/>
<path d="M46.058 73.4318C45.7643 73.4318 45.9253 73.3881 44.5084 73.9785C44.9803 73.7475 45.3875 73.4032 45.6938 72.9763C45.7549 72.9007 45.7954 72.8105 45.8113 72.7146C45.8272 72.6186 45.8178 72.5202 45.7843 72.4289C45.6938 72.1559 45.3288 72.2472 45.1463 72.3384C44.1562 72.6856 43.2541 73.2454 42.5033 73.9785C42.2745 73.8107 42.0874 73.5924 41.9567 73.3406C41.765 73.0523 41.1362 72.7509 41.1362 73.7048C41.2336 74.3488 41.5142 74.9523 41.9444 75.4422L44.6909 76.0748C45.2631 75.6843 45.7572 75.1902 46.1477 74.618C46.2934 74.4324 46.3869 74.2131 46.4214 73.98C46.4253 73.8622 46.3924 73.7461 46.3273 73.6479C46.2621 73.5496 46.168 73.4741 46.058 73.4318Z" fill="white"/>
<path d="M42.4115 75.3455C42.0473 75.3455 41.591 75.5279 41.7735 75.8017C40.3343 80.107 38.472 84.259 36.2138 88.1969C27.6776 85.1146 26.1487 83.1517 22.6332 82.2723C20.9463 81.9058 20.323 81.9924 18.186 82.1879L21.9017 87.9232C25.6569 89.854 29.6822 91.2063 33.8415 91.9341C35.0054 92.2055 36.2046 92.2975 37.3962 92.207C38.4903 92.207 39.2195 91.0224 39.6749 90.202C41.8625 86.2831 43.1383 81.9081 44.4142 77.533C45.1334 76.0946 44.0124 75.5747 42.4115 75.3455Z" fill="#FFE55D"/>
<path d="M45.9818 73.1127C46.063 73.001 46.1152 72.8708 46.1335 72.7338C46.1518 72.5969 46.1358 72.4576 46.0869 72.3284C46.0444 72.2333 45.9815 72.1489 45.9026 72.081C45.8237 72.0131 45.7308 71.9635 45.6305 71.9358C45.5302 71.908 45.425 71.9027 45.3224 71.9204C45.2199 71.938 45.1225 71.9781 45.0372 72.0378C44.097 72.369 43.2314 72.8826 42.4901 73.549C42.3929 73.4268 42.3032 73.2988 42.2217 73.1656C42.1284 73.0144 41.9913 72.8951 41.8286 72.8236C41.6659 72.7521 41.4853 72.7318 41.3108 72.7654C41.0854 72.8344 40.817 73.0529 40.8201 73.7522C40.9075 74.3495 41.1421 74.9146 41.5033 75.3984C41.4609 75.4585 41.4325 75.5272 41.4201 75.5997C41.4078 75.6721 41.4118 75.7464 41.432 75.8171C40.0323 79.9762 38.2373 83.9916 36.0716 87.8083C28.1227 84.9069 26.0617 82.8022 22.6888 81.961C21.0841 81.6804 19.443 81.6804 17.8383 81.961C17.7776 81.9736 17.7219 82.0036 17.6779 82.0472C17.6339 82.0909 17.6036 82.1464 17.5906 82.207C17.5776 82.2677 17.5825 82.3307 17.6047 82.3886C17.6269 82.4465 17.6654 82.4967 17.7156 82.533C17.7834 82.5813 17.8672 82.6014 17.9495 82.589C19.4734 82.3229 21.0317 82.3214 22.5561 82.5844C25.7358 83.3795 27.8827 85.5302 36.1053 88.4991C36.1755 88.5241 36.2522 88.5239 36.3222 88.4984C36.3922 88.4729 36.4511 88.4238 36.4887 88.3595C38.7566 84.4031 40.6279 80.2321 42.0753 75.9075C42.2616 75.3631 44.1631 76.0149 44.2896 76.5209C44.3439 76.8412 44.2802 77.1703 44.1102 77.4472C42.8604 81.7318 41.5684 86.1628 39.3978 90.051C38.8925 90.9611 38.2591 91.8912 37.3735 91.8912C36.2083 91.9791 35.0365 91.8884 33.8986 91.6221C29.7711 90.899 25.7763 89.5572 22.0493 87.6419C21.9743 87.6049 21.8878 87.5992 21.8085 87.6258C21.7288 87.6514 21.6626 87.7077 21.6242 87.7821C21.5858 87.8565 21.5785 87.9431 21.6038 88.0229C21.6287 88.1029 21.6841 88.1699 21.7579 88.2093C25.5364 90.1521 29.5865 91.5133 33.7714 92.247C34.9591 92.5238 36.182 92.6188 37.3981 92.5284C38.7506 92.5284 39.5641 91.0639 39.9552 90.36C42.1604 86.4089 43.4631 81.9434 44.7014 77.678C44.937 77.2675 45.0067 76.7825 44.8961 76.3224C45.5739 75.8623 46.7409 74.6838 46.7409 73.9807C46.753 73.7655 46.6803 73.5541 46.5384 73.3919C46.3965 73.2297 46.1967 73.1294 45.9818 73.1127ZM44.5434 75.7887C43.822 75.2683 42.9424 75.0141 42.0545 75.0695C41.7434 74.672 41.5372 74.2027 41.455 73.7047C41.455 73.5268 41.4335 73.1235 41.7655 73.628C42.0062 73.996 42.4172 74.5113 42.7285 74.2008C43.5227 73.461 44.4596 72.8914 45.4819 72.5269C45.5157 72.6282 45.5134 72.6297 45.4528 72.7447C45.1768 73.1587 44.7934 73.4907 44.3441 73.7047C44.2746 73.7459 44.2234 73.812 44.2008 73.8896C44.1782 73.9672 44.1858 74.0505 44.2223 74.1226C44.2587 74.1947 44.3211 74.2504 44.3969 74.2783C44.4728 74.3061 44.5564 74.3042 44.6308 74.2728C45.9972 73.707 45.8431 73.7514 45.9926 73.7514C46.0273 73.7788 46.0553 73.8138 46.0745 73.8537C46.0936 73.8935 46.1034 73.9372 46.103 73.9815C45.7644 74.7192 45.2236 75.3458 44.5434 75.7887Z" fill="#4B1010"/>
</svg>
