<svg width="156" height="155" viewBox="0 0 156 155" fill="none" xmlns="http://www.w3.org/2000/svg">
<path d="M102.95 34.6377C101.823 33.3561 101.143 34.4833 100.634 35.5409C100.379 36.3129 99.2442 35.2012 98.1557 36.3129C97.3296 37.139 96.658 38.2584 97.0285 38.49C97.3991 38.7216 98.5726 37.44 98.9045 37.2934C99.6765 36.9923 101.089 38.1194 102.139 35.9346C103.413 37.3628 105.227 35.3402 105.899 34.5836C106.571 33.827 106.725 32.6304 105.667 33.3098C103.506 34.6685 103.382 35.07 102.95 34.6377Z" fill="#3D9CFB"/>
<path d="M81.7508 62.746C85.0627 61.202 102.95 55.3038 106.185 54.3311C108.207 53.729 107.158 52.7871 104.641 53.4279C100.503 54.3311 84.198 59.7429 80.8166 61.3178C76.3004 63.4254 74.5016 65.7568 75.9298 72.0641C77.9602 81.3282 82.6926 92.808 84.5686 94.7689C85.549 95.7416 86.1512 95.2938 85.2479 93.6417C83.4415 90.407 79.1568 80.0312 77.4275 71.763C76.1691 66.0579 77.9216 64.6297 81.7508 62.746Z" fill="#3D9CFB"/>
<path d="M57.4781 113.706C58.0802 107.167 67.5142 106.72 67.5142 106.72C68.0391 104.689 74.0531 82.8878 74.4622 79.6995C75.0644 75.0674 73.4123 76.0865 71.6058 74.2954C71.0036 73.6932 70.9342 71.1379 69.7993 70.7596C68.6645 70.3813 66.9506 72.1106 66.194 70.5357C65.4375 68.9608 69.5754 58.0601 68.8266 56.933C68.0777 55.8058 66.6495 56.161 66.6495 54.3776C66.6495 52.4244 65.2213 52.795 64.843 51.8223C64.3181 50.3941 67.4756 44.4573 64.2409 45.0595C63.5615 45.2062 62.3649 46.1094 61.3072 45.8855C60.2496 45.6617 61.0834 43.9246 60.3345 43.4769C59.5857 43.0291 58.528 43.7008 57.8486 43.3997C56.7987 43.0291 56.652 40.8443 55.5944 40.5433C54.5367 40.2422 53.1934 42.0873 51.9891 41.4465C50.7848 40.8057 50.6921 38.3044 49.9201 37.9802C48.654 37.4321 47.5192 39.5242 45.7899 39.3389C44.74 39.1845 44.3617 37.378 43.5356 37.5324C41.7291 37.9107 39.5521 49.2592 38.3477 49.6298C37.7456 49.7842 37.5757 49.2592 36.9967 49.5603C36.0935 50.0081 33.9087 57.5274 32.8588 57.2804C31.8088 57.0333 34.0631 48.6416 32.7121 47.5145C31.8088 46.7425 30.6045 48.1861 29.4774 47.5917C28.5741 47.1362 28.5046 45.3297 27.6786 45.1058C26.8526 44.8819 26.4743 45.6308 25.4243 45.2602C24.3744 44.8897 24.5211 43.6004 23.5406 43.4537C22.5602 43.307 21.8113 44.4342 20.7614 44.1331C20.2646 43.9063 19.8498 43.5318 19.5735 43.0608C19.2972 42.5897 19.1728 42.0449 19.2174 41.5005C18.623 45.3606 23.5792 57.5815 25.3085 62.5455C27.7172 60.3684 31.0214 59.0869 37.7842 62.5455C39.4363 63.8193 42.146 70.7365 37.7147 76.2254C35.9082 78.4797 34.6961 79.3135 37.9386 79.7535C38.533 79.8461 38.5407 80.734 39.2896 80.734C40.0384 80.734 41.3972 80.0546 41.7677 80.209C42.1383 80.3634 41.6211 82.1622 42.0688 82.386C42.5166 82.6099 43.6128 82.2394 44.2536 82.5404C44.8944 82.8415 44.7091 83.7293 45.3035 83.9687C45.898 84.208 47.2567 83.3665 47.7817 83.5904C48.3066 83.8143 48.5537 84.0381 49.0632 84.2697C49.5727 84.5014 50.6072 84.3392 51.1631 84.4936C51.7189 84.648 51.6185 85.6902 52.0663 85.8446C52.6685 86.0608 53.6103 85.3042 54.0967 85.4664C54.7761 85.6825 54.7761 86.8251 55.3705 86.8251C56.7987 86.8946 56.4976 87.7206 57.0303 87.9522C57.9258 88.4 58.914 87.1339 59.6551 86.8251C61.0216 86.2461 59.5085 88.2533 60.3345 88.4772C63.1137 89.1488 66.5723 80.2862 63.6387 74.3417C69.7298 77.4298 70.1081 82.0618 68.3788 86.2229C66.1246 91.7042 63.6387 92.9857 60.2573 92.3063C59.1302 92.0825 47.2567 89.1488 31.0214 81.4982C32.6735 86.2384 34.4028 91.4263 36.1321 95.8576C36.885 96.591 37.4596 97.4874 37.8116 98.4779C38.1636 99.4683 38.2837 100.526 38.1625 101.57C40.1156 106.905 41.3972 110.286 42.0688 111.414C45.4502 117.088 52.8924 115.737 57.4781 113.706Z" fill="#3D9CFB"/>
<path d="M138.2 115.181C137.073 114.355 134.741 112.772 133.915 112.247C133.992 110.518 133.768 107.886 132.942 106.99C132.433 106.372 128.218 102.59 126.172 102.25C124.241 102.041 122.289 102.143 120.39 102.551C118.583 103.076 115.58 106.612 114.986 107.955C114.306 109.461 114.831 114.949 115.657 116.3C116.483 117.652 121.146 121.411 122.798 121.411C124.046 121.361 125.282 121.159 126.481 120.809C130.765 123.442 131.522 124.669 133.846 124.87C137.752 125.217 142.338 118.215 138.2 115.181ZM131.815 107.963C132.263 108.418 132.487 110.518 132.41 111.946C126.295 107.739 129.6 113.05 127.677 104.581C129.133 105.623 130.515 106.763 131.815 107.994V107.963ZM132.039 113.529C131.144 115.294 130.06 116.956 128.804 118.485C127.264 117.804 125.823 116.919 124.52 115.853C125.945 114.514 127.14 112.949 128.056 111.221C129.47 111.842 130.807 112.627 132.039 113.56V113.529ZM117.008 115.482C116.105 114.502 115.951 109.391 116.406 108.488C116.931 107.361 119.633 104.358 120.837 103.979C122.515 103.615 124.239 103.513 125.948 103.678C126.404 105.222 127.152 109.082 126.928 110.14C126.705 111.198 123.918 114.726 123.246 115.027C120.837 115.583 117.533 116.115 117.008 115.513V115.482ZM122.721 119.913C122.119 119.836 120.011 118.408 118.506 117.134C120.048 117.105 121.583 116.929 123.092 116.609C124.205 117.671 125.472 118.559 126.851 119.242C125.505 119.631 124.12 119.867 122.721 119.944V119.913ZM132.487 123.002C133.401 122.687 134.237 122.18 134.938 121.514C135.638 120.848 136.187 120.039 136.548 119.141C136.965 117.775 136.254 117.597 135.868 118.014C135.135 118.856 133.992 121.319 130.758 121.998C129.986 121.473 128.959 120.647 128.442 120.346C129.127 120.171 129.735 119.775 130.171 119.219C131.475 117.598 132.587 115.831 133.483 113.954C133.629 115.081 133.027 116.957 131.754 118.539C131.659 118.62 131.596 118.731 131.575 118.854C131.555 118.976 131.578 119.102 131.64 119.209C131.702 119.317 131.8 119.399 131.917 119.442C132.034 119.484 132.162 119.484 132.278 119.443C133.56 119.25 134.757 116.656 134.911 114.811C136.841 116.216 140.107 117.551 137.389 121.272C135.614 123.55 134.07 123.673 132.526 123.025L132.487 123.002Z" fill="#3D9CFB"/>
<path d="M58.1501 120.323C57.849 120.099 57.3781 120.245 57.7023 121.149C58.0266 122.052 59.8099 123.102 60.8598 123.781C61.6859 124.306 61.9098 124.306 61.6859 125.58C59.2618 138.704 60.4121 139.26 56.2818 136.635C55.9036 136.403 55.3786 136.403 55.5098 137.006C55.8046 137.68 56.286 138.257 56.8974 138.667C57.5087 139.077 58.2246 139.305 58.9607 139.322C61.2767 139.468 61.0914 137.052 63.0987 125.796C63.6931 122.585 61.5547 123.727 58.1501 120.323Z" fill="#3D9CFB"/>
<path d="M98.5573 32.3832C98.894 32.5676 99.2813 32.6378 99.6612 32.5836C100.041 32.5293 100.393 32.3534 100.665 32.0821C101.568 31.1017 101.344 30.5381 99.9855 31.1789C99.6338 31.2207 99.2774 31.1944 98.9356 31.1017C98.7694 31.0524 98.5946 31.0393 98.423 31.0632C98.2513 31.0872 98.0868 31.1477 97.9405 31.2406C97.7942 31.3335 97.6695 31.4567 97.5748 31.6018C97.4801 31.747 97.4176 31.9108 97.3916 32.0821C94.3808 30.9087 95.0756 33.3251 97.3221 33.5103C97.5566 33.5249 97.7901 33.468 97.9917 33.3473C98.1933 33.2266 98.3536 33.0477 98.4516 32.8341C98.5164 32.692 98.5527 32.5392 98.5573 32.3832Z" fill="#3D9CFB"/>
<path d="M129.785 83.1893C129.507 81.7611 126.551 71.9952 124.597 68.6833C123.771 67.3323 122.042 66.8073 122.945 68.8377C124.142 71.4703 128.056 81.3906 128.28 83.4209C128.504 85.2969 127.755 85.8991 124.52 87.6284C122.343 88.825 101.746 95.9661 96.7897 97.1704C92.5746 98.1508 90.9997 95.2172 90.0192 93.1868C88.8921 91.0098 83.3337 77.407 82.2065 72.2963C81.3805 68.5366 81.3033 67.0312 85.063 65.5258C101.522 58.6858 113.141 56.9488 113.921 55.3044C114.5 54.0924 101.823 57.1109 84.3836 64.1748C79.574 66.128 79.8751 68.6138 80.7011 72.5974C81.8282 77.8548 87.4639 91.6119 88.591 93.789C89.4943 95.5183 91.1464 99.0541 95.1299 98.8225C100.92 98.5214 121.587 90.6315 125.238 88.9022C129.438 86.8718 130.21 85.3664 129.785 83.1893Z" fill="#3D9CFB"/>
<path d="M93.4081 35.9116C92.636 34.6378 90.3972 36.3671 89.4245 35.3866C88.8918 34.8617 90.0189 33.8889 89.3473 32.2986C88.143 29.6661 84.0127 31.0248 85.0627 33.8812C85.5104 35.3789 86.792 35.3789 86.792 36.1355C86.8614 37.3321 83.8583 37.6332 84.3833 39.293C85.1553 42.52 90.0961 40.065 91.9798 39.1386C93.1533 38.5441 94.3036 37.4942 93.4081 35.9116Z" fill="#3D9CFB"/>
<path d="M16.2152 20.7335C17.7012 20.6477 19.17 20.3701 20.5848 19.9075C22.2446 21.2585 24.9466 22.8334 26.2976 22.8334C28.0732 22.7137 29.8211 22.3339 31.4855 21.7063C32.2416 21.4308 32.9142 20.9656 33.4387 20.3552C34.7974 18.927 36.8201 17.1205 36.8973 15.8467C36.9745 14.5729 36.3569 9.09938 35.0213 7.80241C33.392 6.49393 31.5954 5.40869 29.679 4.57542C28.8325 4.10779 27.8592 3.92126 26.8998 4.04273C25.4245 4.17662 23.966 4.4559 22.5457 4.8765C21.7196 5.16986 20.137 6.97636 18.9327 8.62846C17.5276 8.82069 16.1442 9.14879 14.8024 9.60891C9.6763 11.1838 10.5487 20.3552 16.2152 20.7335ZM25.9116 21.3357C24.4973 20.6993 23.1389 19.9452 21.8509 19.0814C22.9965 18.8498 24.1074 18.4715 25.155 17.9543C26.6482 19.0437 28.2344 19.9995 29.8952 20.8107C28.3048 21.1813 26.3594 21.5596 25.9116 21.3357ZM27.942 6.07311C28.467 5.54815 29.1386 5.84923 29.5941 6.07311C31.1515 6.8249 32.6133 7.76055 33.9482 8.86006C34.7202 9.58574 35.415 14.1946 35.3764 15.6923C35.3764 16.2945 33.6548 18.101 31.6939 19.7531C30.7212 19.7531 26.9615 17.4371 25.8344 16.5261C25.3094 15.9239 24.1051 11.4849 24.4062 10.5122C24.5529 9.83279 26.5138 7.43185 27.942 6.07311ZM23.0552 6.32787C24.1572 5.99207 25.2899 5.76707 26.4366 5.65623C20.9708 11.4849 25.2554 8.79058 19.7433 10.1648C20.7237 8.6439 22.5225 6.51316 23.0552 6.32787ZM22.8313 11.2147C22.9901 13.1289 23.4459 15.0068 24.1823 16.7809C22.9338 17.2956 21.642 17.6986 20.3223 17.9852C19.6652 16.0326 19.2125 14.0172 18.9713 11.9712C20.2296 11.5851 21.5223 11.3214 22.8313 11.1838V11.2147ZM13.5055 12.1951C14.2775 11.0757 16.2152 10.7669 17.7901 10.543C17.5278 11.0125 17.4224 11.5534 17.489 12.087C17.5662 12.9131 18.3923 17.4216 19.1488 18.7804C18.6161 18.8498 18.0912 19.0042 17.4195 19.1509C16.5858 18.7032 16.0608 17.3521 15.8755 16.5956C15.7288 16.225 15.6516 15.9239 15.1961 16.0706C14.3701 16.2945 14.5245 17.7227 15.2734 19.0814C13.1812 18.1627 11.8611 14.5498 13.5055 12.1643V12.1951Z" fill="#3D9CFB"/>
<path d="M74.8405 46.5106C75.5121 46.4334 76.0448 45.5378 76.7165 45.6845C77.6969 45.9084 78.5237 46.1323 79.1259 44.7118C80.4306 42.087 78.5392 42.5733 77.5819 44.4107C75.3045 43.4534 72.973 46.5106 74.8413 46.5106H74.8405Z" fill="#3D9CFB"/>
<path d="M15.7592 15.1676C16.5312 15.2448 16.4385 13.5155 16.5852 12.3111C16.7396 10.8829 15.5353 11.3384 15.2342 12.1645C14.9331 12.9905 14.8636 15.0209 15.7592 15.1676Z" fill="#3D9CFB"/>
<path d="M70.1776 47.9388C72.4087 52.0845 76.7165 51.4746 80.9247 49.367C82.0518 48.842 83.4105 48.0932 82.5845 47.823C80.7471 46.9892 74.3626 52.4164 71.5293 47.298C70.3327 45.0438 66.5731 36.0962 65.8165 33.6181C65.0445 30.9855 65.8165 29.1018 68.1325 28.0519C71.2205 26.7009 84.8233 22.4934 88.2047 21.3663C91.5861 20.2392 89.4785 19.9381 85.8887 20.7641C82.2988 21.5902 70.7033 25.2727 67.5458 26.6237C64.5427 27.9747 63.4155 30.6072 64.3883 33.9886C65.0676 36.5903 68.9045 45.6073 70.1783 47.9388H70.1776Z" fill="#3D9CFB"/>
<path d="M75.5122 29.8278C77.5348 29.1098 76.1915 28.2838 74.1612 29.0018C71.5286 29.905 67.6995 30.8777 69.2744 34.7146C71.0809 39.1459 71.7602 42.0796 74.5395 41.8557C75.3655 41.7785 77.4654 41.323 77.5426 40.4969C77.6198 39.6709 76.1143 40.1959 75.1416 40.4275C73.1884 40.8752 72.4319 38.8448 70.5096 34.3363C69.3593 31.7192 71.104 31.3873 75.5122 29.8278Z" fill="#3D9CFB"/>
<path d="M105.359 39.5937C103.931 39.4856 103.475 39.6709 102.95 40.2731C102.796 40.4275 102.348 40.3503 102.047 40.3503C101.538 40.3777 101.057 40.5921 100.696 40.9524C99.152 40.497 98.519 41.4774 97.6852 42.3807C97.2915 42.9751 96.4577 40.2113 94.0027 43.2067C91.7407 40.69 91.4319 44.3647 90.6213 44.7121C90.0963 44.936 88.8225 44.11 88.1432 43.8783C87.4638 43.6467 86.7922 43.9556 87.4638 44.7121C88.2433 45.5797 89.3152 46.1294 90.4746 46.2561C91.7484 46.2561 92.505 44.8279 92.5745 44.0019C94.628 46.9278 95.2379 42.5505 96.257 43.5464C97.5925 44.8511 98.1407 43.9247 99.4917 42.5737C99.7928 42.2726 100.264 42.4965 100.843 42.4193C101.422 42.3421 101.815 41.8943 102.047 41.7476C102.418 41.516 103.027 41.8943 103.699 41.5237C104.371 41.1532 104.301 40.4661 105.729 40.5433C106.787 40.6514 106.864 39.7095 105.359 39.5937Z" fill="#3D9CFB"/>
<path d="M96.7895 29.0017C97.6851 29.0712 98.1406 27.7202 98.4416 26.9713C99.9857 28.2451 101.074 28.1757 102.047 26.3692C104.456 26.8941 104.363 25.9909 103.591 25.4659C102.047 24.4932 101.113 24.7943 100.279 26.3692C98.3258 24.941 97.8781 25.242 96.751 27.4191C96.4093 27.1162 95.9939 26.9085 95.5466 26.8169C95.0989 26.7475 94.7206 27.1952 94.875 27.4963C95.0231 27.9001 95.2806 28.2547 95.6187 28.5206C95.9568 28.7864 96.3622 28.953 96.7895 29.0017Z" fill="#3D9CFB"/>
<path d="M112.454 36.745C111.851 34.6374 110.423 30.1289 109.443 27.4809C108.316 24.3928 107.127 19.892 100.125 20.7953C93.9486 21.5673 85.3947 24.6553 81.5965 26.2765C78.439 27.6276 77.2423 30.5612 78.6706 34.6991C85.6958 55.1805 84.5996 53.1887 108.956 45.2216C112.454 44.0327 113.619 40.8752 112.454 36.745ZM91.6094 49.0971C88.6758 50.0003 86.2748 48.5721 84.9161 46.3179C82.9629 43.1603 80.7859 36.6986 80.1065 34.3672C79.0566 30.8314 79.7359 28.7315 82.2913 27.6739C85.3793 26.3229 95.6702 22.0382 101.977 22.0382C106.262 22.0382 107.088 25.4196 107.991 27.975C108.895 30.5303 110.4 35.0465 111.002 37.1464C111.975 40.605 111.149 42.8593 108.37 43.8397C105.953 44.7121 94.8364 48.0935 91.6094 49.0662V49.0971Z" fill="#3D9CFB"/>
<path d="M60.4817 116.941C62.3963 122.222 86.9546 128.815 95.1301 124.306C99.1137 120.701 93.0303 114.988 79.1264 113.328C65.5237 111.676 59.5406 114.324 60.4825 116.941H60.4817ZM87.0935 116.787C89.4096 117.613 90.4749 119.566 87.5413 118.516C81.7513 116.64 70.7038 116.339 66.7975 117.088C63.3389 117.767 63.7094 115.884 68.3029 115.212C73.2592 114.455 81.9829 115.058 87.0935 116.787Z" fill="#3D9CFB"/>
<path d="M141.582 46.7348C146.623 41.1764 144.816 34.6375 138.725 34.6375C133.993 34.6375 131.515 38.0961 126.026 44.8589C123.71 38.2814 119.85 25.5587 116.252 16.5957C112.57 7.43195 103.9 8.87561 101.074 9.30793C78.1304 13.276 23.2793 28.7702 17.6436 31.6267C12.3786 34.3364 11.2514 40.1187 12.008 44.635C12.834 49.6685 15.9144 60.5692 17.9447 66.0582C8.91997 70.1112 7.46087 87.3887 20.4229 92.3605C22.1522 93.3409 24.7075 94.3137 27.039 95.3713C28.3128 99.3549 28.9922 101.308 30.4976 105.214C29.7256 106.72 24.7847 119.273 24.8542 124.383C25.0009 131.331 35.0679 131.192 34.6278 126.337C34.4811 124.383 32.6746 123.179 30.3432 123.102C28.0117 123.025 28.0889 124.453 29.216 124.453C30.6442 124.383 32.5434 124.816 33.1224 125.734C34.2958 127.587 31.1692 128.591 29.5943 128.212C28.1661 127.765 26.3596 126.707 26.3596 124.453C26.3596 120.593 29.8954 110.171 31.4703 106.643C32.3735 104.612 36.8049 104.327 38.5342 106.264C40.2635 108.202 35.9093 122.955 35.5311 124.383C35.1528 125.812 36.5038 125.58 37.0751 124.229C37.6333 122.76 38.0873 121.253 38.4338 119.72C40.4565 121.674 43.4673 122.353 46.4009 122.5C48.1302 122.577 52.7854 121.45 54.893 120.848C53.9125 125.812 53.1637 131.594 52.577 135.655C50.701 149.404 91.9493 155.503 95.269 146.254C95.4156 145.799 95.7167 144.896 96.041 143.699C102.356 140.464 100.928 131.447 99.3529 128.892C101.213 118.809 101.569 114.17 90.2586 109.499C103.483 104.759 127.539 96.043 130.619 94.4681C141.62 89.589 138.911 82.5946 130.318 56.8095C130.936 56.1842 138.826 49.6222 141.582 46.7348ZM13.8068 44.4188C13.2046 40.5047 14.1079 35.5485 18.4388 33.3637C24.6766 30.1907 81.2493 14.6193 101.414 11.1916C104.425 10.6667 111.45 9.53953 114.538 17.4294C116.854 23.2195 121.826 37.4244 124.682 46.5959C124.312 46.9742 124.011 47.4219 123.633 47.8697C122.089 41.1841 114.685 21.413 113.334 17.8077C111.157 12.0177 105.444 12.4732 100.982 13.3764C81.7357 17.5066 38.5187 28.4846 23.1095 34.9463C17.551 37.2623 17.551 42.234 18.902 47.4991C19.8053 50.8805 23.3333 61.3258 24.0127 62.6768C20.3302 66.7376 23.8274 64.7612 19.5814 65.6104C17.7131 60.1137 14.5633 49.2207 13.8068 44.4111V44.4188ZM32.5974 61.5497C41.4678 63.7344 58.6063 73.1298 63.2616 75.1601C66.0485 76.8122 67.1756 77.6383 67.8936 80.0392C68.7196 82.749 67.1216 88.7629 63.3079 91.2411C59.4942 93.7192 29.3396 80.294 25.356 77.9394C30.3818 76.681 35.7318 67.7798 32.5974 61.5419V61.5497ZM20.9478 76.5034C21.0636 76.9589 23.2639 83.5519 24.7075 88.3769C24.1053 88.0758 23.426 87.7747 22.8315 87.4737C17.7131 84.9955 15.6133 81.5369 16.5165 77.2523C17.1882 74.2492 18.2458 72.3655 19.8207 71.5394C19.6194 73.2742 20.0171 75.0257 20.9478 76.5034ZM23.6576 78.6805C25.7219 79.9935 27.8819 81.1496 30.1193 82.1391C30.5671 83.4901 32.0725 87.7747 33.879 92.8082C31.6933 91.4799 29.4062 90.326 27.039 89.3574C26.7611 88.5313 24.2597 80.7109 23.673 78.6805H23.6576ZM30.8681 70.7134C27.5717 77.8004 20.4306 79.1283 21.4728 71.0145C22.0327 70.983 22.5935 71.0589 23.1249 71.2384C23.6576 73.7242 26.8151 72.7824 28.1661 69.9645C29.6638 66.8765 27.9422 64.1745 25.6108 65.7571C25 65.5415 24.3688 65.3889 23.7271 65.3016C29.5094 56.7246 34.5583 62.6845 30.8681 70.7134ZM33.6551 103.408C33.0451 103.495 32.4578 103.699 31.9258 104.01C31.1538 101.98 30.3432 99.5015 29.2932 96.4984C33.0452 98.4439 33.8944 99.5015 33.6551 103.408ZM37.6386 103.863C36.8443 103.541 36.0066 103.338 35.1528 103.261C35.9248 95.7419 29.7487 95.3713 21.025 91.0095C15.0883 88.0758 10.9503 83.2894 12.6024 75.6774C14.3086 67.8261 20.446 65.1627 25.8346 67.5559C27.039 68.0808 26.3596 70.4895 24.9314 70.2656C24.3225 70.0365 23.6948 69.8609 23.0554 69.7407C19.1954 69.1617 16.3621 71.2847 15.1578 76.9512C14.0307 82.3553 17.0415 86.3465 22.2989 88.9019C34.6278 94.8386 38.0864 94.6919 37.6386 103.863ZM35.9788 94.4681C35.6777 93.696 32.7518 85.3738 31.9953 83.1195C42.8034 87.9986 58.3825 93.4104 61.6095 93.2637C67.5462 93.0398 70.557 83.6445 69.3295 79.7304C68.3491 76.6424 66.6275 75.6002 63.995 74.0253C58.2821 71.5394 36.7122 59.5193 29.3473 59.7432C27.8154 59.8393 26.3604 60.4484 25.217 61.4725C21.2566 49.5604 15.8217 39.5243 23.7271 36.2896C39.5918 29.7507 81.9827 19.0043 101.298 14.8664C107.235 13.5926 110.315 14.6425 111.967 18.4022C113.774 22.6096 121.363 45.4224 122.644 49.1435C117.31 55.3813 110.918 62.6691 108.663 63.2018C103.475 64.3289 98.8897 61.2409 93.3312 67.1081C90.0193 70.4123 88.9694 78.6882 92.5052 80.4098C94.111 81.3053 96.7821 76.0557 99.5691 73.2687C100.48 72.0567 101.113 72.8518 104.826 73.7242C105.375 73.8555 105.104 73.6161 106.556 78.3022C107.235 79.4294 104.757 81.1586 103.252 82.6641C98.6195 87.4737 98.9669 89.1258 105.058 89.4268C108.439 89.5813 111.234 88.0758 113.473 85.2966C117.904 79.962 115.125 74.998 116.105 70.1884C116.329 68.9841 121.51 64.5528 126.404 60.3453C128.959 67.4092 131.515 76.5575 132.943 82.363C133.838 86.1227 132.789 87.6976 130.758 88.9019C118.059 94.3059 97.3148 101.076 80.8556 106.944C71.1592 105.214 60.7834 105.979 57.6954 110.402C57.1769 111.398 56.7976 112.461 56.5683 113.56C43.1122 118.269 42.2012 110.997 39.2907 103.601C39.5918 99.2777 38.2331 96.4984 35.9788 94.4681ZM49.2882 120.245C46.3546 120.925 41.2439 120.624 38.9124 117.466C39.5146 114.687 40.0396 111.977 40.3407 110.472C42.5949 115.737 46.1307 116.416 48.6089 116.416C51.1407 116.374 53.6508 115.941 56.051 115.135C55.8271 116.185 55.526 117.312 55.279 118.593C53.3198 119.273 51.3187 119.825 49.2882 120.245ZM93.8562 145.652C92.428 152.191 53.2641 148.864 54.0978 135.655C54.4761 129.556 56.576 119.566 57.7803 114.455C58.6063 117.011 62.366 119.72 67.1756 121.975C66.7685 122.195 66.4175 122.506 66.1497 122.883C65.882 123.261 65.7047 123.695 65.6316 124.152C65.4309 125.433 65.6316 128.074 66.1566 128.784C66.5966 129.394 68.5652 130.212 69.6924 130.59C72.4253 138.635 83.7661 147.181 94.1959 144.116C94.1363 144.638 94.0224 145.153 93.8562 145.652ZM96.6354 141.213C97.3148 138.511 98.1794 135.037 98.8202 131.671C100.017 136.18 98.9669 139.337 96.6354 141.213ZM94.8366 142.34C87.3327 145.698 74.9729 140.117 71.3831 130.544C72.2202 129.974 72.9964 129.32 73.6991 128.591C74.5251 127.765 74.2241 125.812 73.5447 125.958C72.572 126.105 73.6219 127.386 70.9199 129.116C70.8427 128.737 70.7655 128.344 70.6883 128.066C71.8926 127.533 71.9698 125.132 70.4644 124.53C68.2873 123.704 67.3764 126.707 69.1906 127.834C69.2006 128.214 69.25 128.592 69.3372 128.961C68.6725 128.754 68.0408 128.452 67.4613 128.066C67.0993 126.898 66.9966 125.665 67.1602 124.453C67.2297 123.681 67.8318 123.326 68.959 122.724C74.6718 125.04 81.589 126.584 87.0008 126.337C92.7136 126.182 96.6972 125.209 98.8048 122.724C98.1408 128.135 96.1105 137.23 94.8366 142.34ZM98.743 119.18C98.0328 129.803 60.1426 124.198 58.5292 111.661C63.0454 102.582 98.743 109.005 98.743 119.195V119.18ZM129.855 92.6461C125.524 94.8618 88.2437 107.955 87.7651 108.434C86.4141 107.978 84.9858 107.6 83.5576 107.229C99.6463 101.594 119.487 94.9776 131.422 89.8669C133.522 88.5854 135.483 86.6322 134.279 81.6759C132.85 75.7314 130.141 66.1894 127.516 58.9712C127.963 58.6006 128.342 58.1992 128.79 57.9212C137.397 83.8607 138.957 88.6548 129.855 92.6616V92.6461ZM114.222 69.4241C113.095 74.0562 116.028 78.9661 111.967 83.853C110.931 85.2007 109.534 86.2267 107.938 86.8117C106.342 87.3966 104.612 87.5164 102.95 87.1571C102.348 87.0105 101.406 86.8792 102.503 85.8061C104.942 83.4438 109.057 80.2631 108.208 77.6151C106.139 71.084 107.582 72.4041 100.773 70.5513C98.5191 69.9028 98.2103 71.8405 93.3312 77.6923C93.0224 78.0552 92.5592 78.5184 92.2736 77.4607C91.8929 75.8438 91.9044 74.1592 92.3073 72.5476C92.7102 70.936 93.4927 69.4442 94.5896 68.1966C99.6308 62.7926 103.684 66.2435 109.096 64.7381C112.253 63.8348 119.248 55.4199 127.74 45.7235C132.325 40.5356 133.754 36.9998 138.71 36.4594C140.74 36.2355 144.423 39.3159 141.118 44.1795C137.93 48.9582 115.086 65.7031 114.222 69.4396V69.4241Z" fill="#001434"/>
<path d="M99.5691 80.3335C102.58 81.4606 103.522 80.8044 105.058 78.6042C105.583 77.8322 105.282 77.6314 104.525 75.3C104.232 74.3195 104.078 74.4739 102.271 73.949C101.298 73.6479 100.318 73.424 99.1136 74.9217C97.9093 76.4194 97.7626 76.3499 98.0637 77.3303C98.8202 79.6695 98.743 80.0324 99.5691 80.3335Z" fill="#001434"/>
<path d="M138.648 39.5246C136.247 38.6214 134.788 41.5164 136.85 42.7516C139.05 44.064 141.057 40.4973 138.648 39.5246Z" fill="#001434"/>
<path d="M94.5357 128.661C89.5871 130.792 81.2263 129.564 77.4666 128.591C77.096 128.514 76.6946 128.738 77.0188 129.116C78.7327 131.556 94.9294 132.668 95.4312 128.815C95.4698 128.368 94.9062 128.507 94.5357 128.661Z" fill="#001434"/>
</svg>
