<svg width="154" height="154" viewBox="0 0 154 154" fill="none" xmlns="http://www.w3.org/2000/svg">
<path d="M124.731 11.1379C124.731 12.9458 125.449 14.6795 126.727 15.9579C128.006 17.2362 129.74 17.9543 131.547 17.9543C133.355 17.9543 135.089 17.2362 136.367 15.9579C137.646 14.6795 138.364 12.9458 138.364 11.1379C138.364 9.33011 137.646 7.59633 136.367 6.31801C135.089 5.03969 133.355 4.32153 131.547 4.32153C129.74 4.32153 128.006 5.03969 126.727 6.31801C125.449 7.59633 124.731 9.33011 124.731 11.1379Z" fill="white"/>
<path d="M126.694 11.1464C126.694 12.4247 127.202 13.6507 128.106 14.5545C129.01 15.4584 130.236 15.9662 131.514 15.9662C132.792 15.9662 134.018 15.4584 134.922 14.5545C135.826 13.6507 136.334 12.4247 136.334 11.1464C136.334 9.86816 135.826 8.64223 134.922 7.73834C134.018 6.83446 132.792 6.32666 131.514 6.32666C130.236 6.32666 129.01 6.83446 128.106 7.73834C127.202 8.64223 126.694 9.86816 126.694 11.1464Z" fill="white"/>
<path d="M54.8146 40.0303C56.8488 46.0432 51.3643 51.4833 47.3871 49.479C47.3144 50.501 47.1655 51.5162 46.9417 52.5161C45.6885 52.4599 44.4429 52.2916 43.2199 52.0131L43.5703 48.6984C42.6969 48.2384 41.0047 47.3022 41.0047 47.3022C40.4527 47.4854 38.4814 48.5436 36.6772 45.209C34.8646 41.8567 36.4035 37.2838 39.176 34.5673C43.4016 29.8993 49.5509 29.9936 51.4225 33.0483C52.8105 35.2416 53.9483 37.5836 54.8146 40.0303Z" fill="white"/>
<path d="M35.3382 133.738H8.29572C8.17551 133.737 8.05764 133.705 7.95396 133.644C7.85028 133.583 7.76444 133.496 7.70507 133.391C7.6457 133.287 7.61489 133.169 7.61574 133.048C7.61659 132.928 7.64907 132.81 7.70992 132.707L11.7285 126.055C11.8593 125.837 12.0443 125.656 12.2655 125.53C12.4868 125.404 12.7368 125.338 12.9913 125.337H30.1557C30.3949 125.337 30.6301 125.397 30.8404 125.511C31.0506 125.625 31.2293 125.789 31.3603 125.989L35.8166 132.847C35.8725 132.934 35.9041 133.034 35.9082 133.137C35.9123 133.24 35.8887 133.342 35.8398 133.433C35.791 133.524 35.7187 133.6 35.6305 133.654C35.5423 133.708 35.4414 133.737 35.3382 133.738Z" fill="white"/>
<path d="M36.1387 132.638L31.6823 125.778C31.5164 125.525 31.2901 125.317 31.0237 125.173C30.7573 125.029 30.4593 124.953 30.1565 124.953H12.9897C12.6696 124.955 12.3554 125.039 12.0771 125.197C11.7987 125.356 11.5657 125.583 11.4003 125.857L7.37638 132.513C6.87569 133.365 7.36948 134.987 8.29648 134.987H35.3734C36.0528 134.926 36.7605 133.595 36.1387 132.638ZM12.0574 126.252C12.1545 126.091 12.2914 125.957 12.4549 125.864C12.6184 125.771 12.8031 125.721 12.9913 125.72H30.1557C30.3311 125.72 30.5038 125.764 30.6581 125.847C30.8124 125.931 30.9436 126.051 31.0398 126.198L35.4961 133.055C35.5148 133.084 35.5254 133.118 35.5268 133.152C35.5281 133.187 35.5202 133.221 35.5039 133.252C35.4876 133.282 35.4634 133.308 35.4339 133.326C35.4043 133.344 35.3705 133.354 35.3359 133.355H8.29648C8.24404 133.354 8.19266 133.34 8.14739 133.313C8.10212 133.287 8.06453 133.249 8.0383 133.204C8.01208 133.158 7.99812 133.107 7.99782 133.054C7.99751 133.002 8.01086 132.95 8.03655 132.905L12.0574 126.252Z" fill="#4B1010"/>
<path d="M13.074 127.714L21.3841 104.606C21.4171 104.507 21.4803 104.422 21.5647 104.361C21.6491 104.3 21.7505 104.268 21.8545 104.268C21.9584 104.268 22.0598 104.3 22.1442 104.361C22.2286 104.422 22.2918 104.507 22.3249 104.606C30.9193 130.15 30.5421 128.411 30.5199 128.523C30.5605 129.018 30.5199 132.4 21.3672 132.385C11.5221 132.369 13.074 127.714 13.074 127.714Z" fill="white"/>
<path d="M22.7875 114.939C23.3029 114.891 23.8022 114.734 24.2518 114.478C24.7015 114.222 25.091 113.872 25.3944 113.453L24.0081 109.459C23.6865 109.841 23.2631 110.125 22.7869 110.277C22.3108 110.429 21.8014 110.443 21.3176 110.318C20.8123 110.223 19.6998 109.986 19.6423 109.417L18.2476 113.296C19.0879 114.784 21.1704 115.172 22.7875 114.939Z" fill="#FFE55D"/>
<path d="M14.4847 125.716C15.7115 127.097 16.9099 128.008 20.2698 128.572C23.7271 129.152 27.1821 128.366 29.5866 125.766L27.9365 121.021C25.9982 122.682 24.3574 123.501 20.6992 123.2C19.3534 123.11 18.0409 122.742 16.8448 122.119C16.2769 121.816 15.8159 121.347 15.5244 120.773L13.9702 125.089C14.104 125.327 14.2781 125.539 14.4847 125.716Z" fill="#FFE55D"/>
<path d="M30.9048 128.535C30.9109 128.45 30.9032 128.364 30.8818 128.281C24.507 109.673 22.7189 104.576 22.689 104.487C22.6302 104.313 22.5188 104.162 22.3701 104.055C22.2215 103.948 22.0432 103.89 21.8599 103.888C21.6766 103.887 21.4976 103.943 21.3477 104.049C21.1978 104.154 21.0845 104.304 21.0237 104.477C17.8309 113.748 12.308 128.729 12.7129 127.584C12.5881 128.037 12.5679 128.512 12.6539 128.974C12.7398 129.436 12.9296 129.872 13.209 130.249C14.3982 131.906 17.1424 132.754 21.3672 132.768C25.7821 132.768 28.728 132.002 30.1127 130.495C30.3705 130.239 30.5737 129.933 30.7098 129.596C30.846 129.259 30.9123 128.898 30.9048 128.535ZM15.6572 121.658C17.3808 123.652 23.8836 124.865 27.7588 121.681L29.1466 125.668C24.9954 129.922 17.0228 128.705 14.425 125.084L15.6572 121.658ZM15.97 120.789L18.3722 114.11C19.7992 115.637 23.3906 115.967 25.2239 114.209L27.5196 120.876C23.8875 124.113 17.2605 122.912 15.9716 120.791L15.97 120.789ZM19.78 110.194C20.3957 110.555 21.0968 110.745 21.8106 110.743C22.5243 110.741 23.2245 110.548 23.8384 110.184L24.9433 113.394C23.5256 115.009 19.9165 115.128 18.6766 113.264L19.78 110.194ZM21.7467 104.726C21.7543 104.703 21.769 104.684 21.7886 104.67C21.8082 104.656 21.8317 104.649 21.8556 104.65C21.8796 104.65 21.9027 104.659 21.9216 104.673C21.9405 104.688 21.9542 104.708 21.9606 104.731L23.567 109.396C22.6737 110.372 20.4179 109.906 20.0553 109.429L21.7467 104.726ZM29.5468 129.976C28.6965 130.9 26.5864 132.002 21.3672 132.002C16.4477 131.985 14.5584 130.804 13.84 129.816C13.6287 129.538 13.4827 129.215 13.4126 128.873C13.3426 128.53 13.3503 128.176 13.4351 127.837L14.1252 125.911C18.8538 130.448 25.8434 129.874 29.4395 126.457L30.1349 128.479C30.1321 128.505 30.1321 128.53 30.1349 128.556C30.1404 128.82 30.0911 129.083 29.9902 129.327C29.8892 129.571 29.7388 129.792 29.5484 129.976H29.5468Z" fill="#4B1010"/>
<path d="M59.882 98.7635C58.636 87.1664 57.5419 85.8675 54.0969 78.1985H35.2901C33.722 81.2931 34.1016 84.9658 34.9266 88.3326C36.3382 94.0679 37.6102 100.01 37.7575 105.985C37.789 112.765 37.1114 119.531 35.7355 126.17C37.8186 125.964 39.9199 126.039 41.983 126.393C42.8655 126.547 45.2839 107.941 45.4073 106.215C45.6594 103.309 45.7173 100.389 45.5806 97.4746C45.4403 94.7511 45.2425 91.6979 44.1698 89.1316C47.489 88.821 49.33 88.5389 50.1197 90.0141C51.1238 91.9932 51.7972 94.1233 52.1133 96.3198C53.7442 106.143 54.251 116.695 52.0067 126.442L58.2289 127.267C61.1862 109.302 60.4432 103.599 59.882 98.7635Z" fill="#FFB43B"/>
<path d="M47.3715 50.6017C47.025 51.9473 47.9243 53.2508 48.5431 54.4891C50.7429 59.634 49.6403 61.7985 51.9598 62.6749C52.9765 63.0583 54.7339 63.3175 54.6664 64.8372C54.5831 68.2793 54.7347 71.7231 55.1203 75.1446C55.5136 79.3885 49.6764 81.6328 46.1171 81.747C42.9558 81.8482 36.417 80.4612 34.9924 77.2079C34.1075 75.1867 37.0549 74.18 38.4259 73.082C40.0707 71.7547 41.5824 70.2704 42.9397 68.6502C46.3487 64.6071 45.1633 59.2499 43.9219 54.4968C43.5838 53.201 42.9397 51.6337 43.1874 50.2881C44.5407 50.9237 45.9515 51.6 47.3715 50.6017Z" fill="#FFE55D"/>
<path d="M47.264 50.6101C48.9309 51.1546 50.7156 51.2289 52.4219 50.8248C53.0162 50.6838 53.7093 50.5028 54.1793 50.9015C54.3728 51.094 54.5197 51.3282 54.6087 51.5862C55.6553 53.7751 56.3538 56.114 56.6789 58.5184C54.405 58.5251 52.14 58.802 49.9315 59.3434C49.8113 59.3848 49.6807 59.3848 49.5604 59.3434C49.3871 59.2614 49.3465 59.0298 49.3304 58.8404C49.1587 56.9779 48.7136 55.1508 48.0093 53.418C47.8395 52.8631 47.5046 52.3731 47.0493 52.0133L47.346 50.5603L47.264 50.6101Z" fill="#FFB43B"/>
<path d="M45.4403 65.6614C45.3253 69.8701 46.9339 74.0704 46.1994 78.2131C44.5493 78.9722 42.6255 78.8104 40.8275 78.5351C38.2681 78.1433 35.6527 77.5039 33.6063 75.919C33.5372 75.8766 33.4803 75.8169 33.4414 75.7457C33.4207 75.6644 33.4207 75.5793 33.4414 75.498L33.3755 72.1558C33.2597 65.6691 32.4017 59.2322 32.4017 52.7379C32.3851 52.6292 32.4085 52.5182 32.4676 52.4255C32.5267 52.3329 32.6174 52.2648 32.723 52.2341C34.056 51.7266 35.4652 51.4477 36.891 51.4091L38.4245 51.2772C38.959 51.2831 39.4847 51.1403 39.9427 50.8647C40.3019 50.5234 40.7793 50.3344 41.2747 50.3374C41.7702 50.3404 42.2452 50.5352 42.6002 50.8808C43.9704 52.0708 44.9519 54.6271 45.2984 56.3937C45.4273 57.6037 45.2655 58.4218 45.4058 60.1071C45.4058 61.0563 45.3943 62.014 45.4058 62.9625C45.4165 63.6725 45.5047 64.9568 45.4403 65.6614Z" fill="#FFB43B"/>
<path d="M47.1325 27.272C48.7977 27.6381 50.3083 28.5117 51.4562 29.7724C52.6252 31.0888 53.4153 32.6975 53.7427 34.4273C53.2642 34.5508 52.5795 34.6926 52.0919 34.8314C48.0137 35.9821 44.2196 37.9689 40.951 40.6656C41.2591 41.5093 41.4425 42.3935 41.4954 43.2902C41.5712 43.7195 41.5401 44.161 41.4049 44.5755C41.2697 44.99 41.0345 45.3649 40.7202 45.6671C39.7288 46.3181 37.69 46.19 36.1565 44.7838C35.2254 43.9442 34.4697 42.9286 33.9329 41.7955C33.3961 40.6625 33.0889 39.4344 33.029 38.1821C32.95 37.4635 32.95 36.7384 33.029 36.0198C33.5726 32.8179 36.5023 29.0639 40.8605 27.5281C42.8784 26.8167 45.0634 26.7275 47.1325 27.272Z" fill="#FFB43B"/>
<path d="M42.4946 44.3365C42.4946 45.0125 42.7632 45.6607 43.2411 46.1387C43.7191 46.6167 44.3674 46.8852 45.0433 46.8852C45.7193 46.8852 46.3675 46.6167 46.8455 46.1387C47.3235 45.6607 47.592 45.0125 47.592 44.3365C47.592 44.0018 47.5261 43.6704 47.398 43.3612C47.2699 43.052 47.0822 42.771 46.8455 42.5343C46.6088 42.2977 46.3279 42.1099 46.0186 41.9818C45.7094 41.8538 45.378 41.7878 45.0433 41.7878C44.7086 41.7878 44.3772 41.8538 44.068 41.9818C43.7588 42.1099 43.4778 42.2977 43.2411 42.5343C43.0045 42.771 42.8167 43.052 42.6886 43.3612C42.5606 43.6704 42.4946 44.0018 42.4946 44.3365Z" fill="white"/>
<path d="M52.8223 40.865C52.8223 41.4594 53.0584 42.0295 53.4787 42.4498C53.899 42.8701 54.4691 43.1062 55.0635 43.1062C55.6579 43.1062 56.2279 42.8701 56.6482 42.4498C57.0686 42.0295 57.3047 41.4594 57.3047 40.865C57.3047 40.2706 57.0686 39.7005 56.6482 39.2802C56.2279 38.8599 55.6579 38.6238 55.0635 38.6238C54.4691 38.6238 53.899 38.8599 53.4787 39.2802C53.0584 39.7005 52.8223 40.2706 52.8223 40.865Z" fill="white"/>
<path d="M52.6912 42.7498C52.6059 42.7498 52.5231 42.7215 52.4558 42.6693C51.4904 41.92 50.574 41.1097 49.7123 40.2433C49.5654 40.1132 49.4556 39.9465 49.3941 39.7602C49.3589 39.5874 49.3589 39.4093 49.3941 39.2365C49.4239 38.8222 49.4917 38.4116 49.5966 38.0097C49.6244 37.9141 49.6883 37.833 49.7749 37.7837C49.8614 37.7344 49.9637 37.7207 50.0602 37.7455C50.1567 37.7703 50.2397 37.8317 50.2917 37.9166C50.3437 38.0016 50.3606 38.1034 50.3388 38.2006C50.224 38.6454 50.1567 39.1011 50.1379 39.5601C51.0017 40.464 51.9338 41.3002 52.9258 42.0612C52.9898 42.1099 53.0369 42.1776 53.0604 42.2545C53.0839 42.3315 53.0826 42.4139 53.0566 42.4901C53.0307 42.5662 52.9814 42.6323 52.9158 42.6789C52.8502 42.7255 52.7716 42.7503 52.6912 42.7498Z" fill="#4B1010"/>
<path d="M50.6133 46.6117C50.1021 46.0197 49.6334 45.4319 49.2071 44.8481C49.1774 44.8075 49.156 44.7613 49.1441 44.7124C49.1322 44.6634 49.1301 44.6126 49.1379 44.5629C49.1456 44.5131 49.1631 44.4653 49.1893 44.4223C49.2156 44.3793 49.25 44.3419 49.2907 44.3122C49.3313 44.2825 49.3775 44.2611 49.4264 44.2492C49.4754 44.2373 49.5262 44.2352 49.576 44.243C49.6257 44.2507 49.6735 44.2682 49.7165 44.2944C49.7595 44.3207 49.7969 44.3551 49.8266 44.3958C50.1962 44.9018 51.1876 46.1593 51.3049 46.236C51.9052 45.5875 52.4473 44.8876 52.9251 44.1443C52.9814 44.0616 53.0678 44.0043 53.1658 43.9844C53.2638 43.9646 53.3657 43.9838 53.4497 44.038C53.5337 44.0923 53.5933 44.1772 53.6156 44.2747C53.6379 44.3721 53.6212 44.4745 53.5691 44.5598C53.0869 45.3071 52.5442 46.0136 51.9467 46.6722C51.8712 46.7825 51.7688 46.8718 51.6492 46.9314C51.5295 46.9911 51.3967 47.0192 51.2631 47.0131C51.1296 47.007 50.9998 46.967 50.8861 46.8967C50.7724 46.8265 50.6785 46.7284 50.6133 46.6117Z" fill="#4B1010"/>
<path d="M55.9463 36.733C55.8308 36.3231 55.563 35.9727 55.1977 35.7538C54.8323 35.5348 54.3971 35.4638 53.9811 35.5553C52.9835 35.6444 52.0012 35.8593 51.0575 36.1948C48.7932 36.9334 46.634 37.962 44.6337 39.2549C43.9629 39.6116 43.3401 40.0522 42.7805 40.566C42.5638 40.8416 42.4531 41.1857 42.4684 41.536C42.085 41.7798 41.707 42.0366 41.3428 42.3027C41.2784 42.351 41.2309 42.4183 41.2069 42.4951C41.1829 42.5719 41.1837 42.6543 41.2091 42.7306C41.2346 42.807 41.2834 42.8734 41.3487 42.9204C41.4139 42.9675 41.4924 42.9928 41.5728 42.9928C41.7722 42.9928 41.7423 42.9261 42.5941 42.3656C42.7675 42.9712 43.0791 43.5283 43.5045 43.993C43.9299 44.4576 44.4575 44.8171 45.0455 45.0431C45.6335 45.2691 46.266 45.3555 46.8931 45.2953C47.5202 45.2351 48.1248 45.0302 48.6591 44.6965C49.0405 44.4779 49.3664 44.1744 49.6114 43.8094C49.8774 43.3486 50.0543 42.8419 50.1328 42.3157C50.2432 41.815 50.4456 40.9049 50.9218 40.7056C51.2185 40.6189 51.8879 41.1012 52.3457 41.2561C53.0365 41.4724 53.7703 41.5138 54.481 41.3765C54.981 41.2874 55.4385 41.0382 55.7845 40.6665C56.0405 40.3253 56.1966 39.9196 56.2354 39.4949C56.3653 38.5645 56.2661 37.6164 55.9463 36.733Z" fill="#4B1010"/>
<path d="M37.6319 44.4087C37.0117 44.1415 36.5118 43.655 36.228 43.0423C35.245 40.9146 37.3014 39.6686 38.7322 40.9675C39.178 41.3413 39.5035 41.8385 39.6676 42.3967C39.7767 42.6802 39.8008 42.9893 39.7369 43.2863C39.673 43.5832 39.5239 43.8551 39.3079 44.0686C39.0918 44.2821 38.8182 44.428 38.5205 44.4884C38.2229 44.5488 37.914 44.5211 37.6319 44.4087ZM36.9134 42.7004C37.1124 43.1462 37.4706 43.5016 37.9179 43.6971C38.0652 43.7591 38.2278 43.775 38.3844 43.7426C38.5409 43.7102 38.6839 43.631 38.7944 43.5156C38.905 43.4002 38.978 43.254 39.0037 43.0962C39.0294 42.9385 39.0066 42.7766 38.9384 42.6321C38.8153 42.2075 38.5683 41.8292 38.2292 41.5456C37.3719 40.7704 36.3246 41.3769 36.9134 42.7004Z" fill="#4B1010"/>
<path d="M63.3751 136.657C62.9986 135.933 62.4268 135.329 61.7246 134.913C61.0224 134.497 60.2177 134.286 59.4018 134.304C58.847 134.435 58.273 134.463 57.708 134.387C58.4679 131.696 59.204 128.966 59.8986 126.266C59.9116 126.215 59.9142 126.163 59.9061 126.111C59.8981 126.06 59.8796 126.01 59.8518 125.966C59.824 125.922 59.7875 125.884 59.7446 125.855C59.7016 125.825 59.6531 125.805 59.6019 125.794C59.3637 125.747 59.1232 125.7 58.8804 125.655C61.4827 109.211 60.8233 103.535 60.2897 98.9444C59.1664 90.5247 58.941 86.9601 54.6341 78.2246C54.817 77.9917 54.9828 77.746 55.1302 77.4892C55.4966 76.5619 55.6415 75.5619 55.5535 74.5687C55.4447 68.4041 54.8633 62.257 53.8145 56.1813C53.8073 56.1305 53.7899 56.0817 53.7635 56.0377C53.737 55.9938 53.702 55.9555 53.6606 55.9253C53.6191 55.8952 53.572 55.8736 53.522 55.8619C53.4721 55.8503 53.4203 55.8488 53.3697 55.8575C53.3192 55.8662 53.2709 55.885 53.2277 55.9127C53.1846 55.9405 53.1474 55.9766 53.1185 56.0189C53.0895 56.0613 53.0693 56.109 53.0592 56.1593C53.049 56.2096 53.049 56.2614 53.0592 56.3116C54.1023 62.3582 54.6803 68.4759 54.7882 74.6109C54.8682 75.4744 54.7499 76.3448 54.4424 77.1557C53.9208 78.0572 53.129 78.772 52.179 79.1991C50.1234 80.3822 47.8104 81.0467 45.4402 81.135C43.0701 81.2233 40.7141 80.7328 38.5761 79.7059C37.5717 79.1876 35.8334 78.5796 35.5091 77.4984C38.0062 78.5049 40.6612 79.063 43.3522 79.147C44.3846 79.1727 45.4102 78.9733 46.3578 78.5627C46.4139 78.5369 46.463 78.4978 46.5007 78.449C46.5385 78.4001 46.5639 78.3429 46.5748 78.2821C46.8739 75.8437 46.7786 73.3731 46.2927 70.965C45.8921 67.3502 45.7231 63.7135 45.7866 60.0771C45.6647 58.6096 45.8012 57.4917 45.6739 56.3201C45.3287 54.5043 44.5921 52.7856 43.5155 51.2833L43.5822 50.8531C43.9872 51.2528 44.5016 51.5233 45.0603 51.6306C45.6191 51.7378 46.1971 51.677 46.7213 51.4558C46.7049 51.7042 46.776 51.9505 46.9222 52.152C47.8939 53.6727 48.5249 55.3858 48.7716 57.1735C48.7856 57.2742 48.8391 57.3653 48.9203 57.4266C49.0014 57.4879 49.1036 57.5145 49.2044 57.5005C49.3052 57.4864 49.3962 57.433 49.4576 57.3518C49.5189 57.2706 49.5455 57.1684 49.5314 57.0677C49.2655 55.1208 48.5619 53.2596 47.4735 51.6237C47.4926 51.4581 47.5141 51.2825 47.5386 51.0947C49.1794 51.5535 50.9103 51.5841 52.5662 51.1836C53.0861 51.0609 53.6228 50.9329 53.9065 51.1706C54.0639 51.3289 54.1825 51.5216 54.2531 51.7334C55.03 53.5713 55.675 55.4623 56.183 57.392C56.2088 57.4904 56.2727 57.5745 56.3605 57.6259C56.4484 57.6772 56.553 57.6915 56.6514 57.6657C56.7499 57.6399 56.834 57.576 56.8853 57.4882C56.9367 57.4003 56.951 57.2957 56.9252 57.1972C56.41 55.2405 55.7563 53.3229 54.9692 51.4589C54.8559 51.1361 54.6693 50.844 54.424 50.6055C54.1126 50.4152 53.7603 50.3021 53.3964 50.2754C53.0324 50.2487 52.6674 50.3093 52.3316 50.4521C50.7864 50.8181 49.1724 50.7748 47.649 50.3264C47.6767 50.1439 47.5302 50.2942 48.8866 50.2942C50.0551 50.2337 51.1872 49.8672 52.1695 49.2316C53.1519 48.5959 53.9499 47.7132 54.4839 46.6721C55.3613 44.8809 55.6207 42.8495 55.2215 40.8954C54.82 38.7938 53.9649 36.8051 52.7157 35.0681C52.8691 35.0321 53.6435 34.8511 53.8405 34.8005C53.9362 34.7758 54.0186 34.7151 54.0706 34.6311C54.1226 34.5471 54.1402 34.4463 54.1196 34.3496C53.7726 32.5562 52.9519 30.8883 51.7427 29.5191C50.5416 28.2053 48.966 27.292 47.2289 26.903C41.6883 25.4423 35.9577 28.5584 33.4197 33.5982C32.6985 35.0169 32.4283 36.6221 32.6453 38.1987C32.7766 40.8267 33.9443 43.2956 35.8925 45.0642C36.0595 45.2193 36.2359 45.364 36.4208 45.4974C37.3539 47.205 39.3022 48.661 41.0274 47.6359C41.6689 48.1262 42.3551 48.5552 43.0769 48.9171C43.0079 49.4753 42.9312 50.0335 42.8469 50.5917C42.4245 50.1887 41.8647 49.9614 41.281 49.9559C40.6972 49.9503 40.1332 50.1669 39.7032 50.5618C39.3031 50.7892 38.8492 50.9052 38.389 50.8976L36.8808 51.0287C35.4148 51.066 33.9656 51.3511 32.5947 51.8722C32.4147 51.9304 32.2595 52.0476 32.1541 52.2047C32.0486 52.3619 31.9991 52.5499 32.0135 52.7386C32.0135 59.2475 32.8723 65.6913 32.988 72.1642L33.0532 75.4612C33.017 75.6049 33.028 75.7565 33.0846 75.8935C33.1412 76.0305 33.2404 76.1456 33.3676 76.2218C33.7896 76.5473 34.2365 76.8393 34.704 77.0951C34.6852 77.4226 34.7571 77.749 34.9118 78.0382C33.583 80.7088 33.4688 84.0104 34.5507 88.4223C35.9308 94.0196 37.2213 100.019 37.37 105.986C37.4082 111.971 36.8752 117.946 35.7782 123.83C35.3949 123.782 35.0115 123.746 34.6327 123.723C34.5813 123.719 34.5298 123.727 34.4812 123.744C34.4326 123.761 34.388 123.788 34.35 123.822C34.312 123.857 34.2814 123.899 34.26 123.946C34.2386 123.993 34.2269 124.044 34.2256 124.095C34.1934 125.272 34.3437 124.172 31.8157 139.229C31.7171 139.478 31.7164 139.755 31.8135 140.004C31.9106 140.254 32.0985 140.457 32.3394 140.574C34.7654 142.214 37.7917 142.595 40.404 142.865C42.3555 143.114 44.3369 142.982 46.2382 142.477C46.5505 142.411 46.8401 142.264 47.0783 142.051C47.3165 141.839 47.495 141.568 47.5961 141.265C47.9239 140.499 48.0829 139.67 48.0624 138.837C48.0419 138.003 47.8423 137.184 47.4773 136.435C47.0905 135.673 46.4941 135.037 45.7583 134.602C45.0225 134.168 44.1779 133.952 43.3238 133.981C42.7364 134.083 42.1418 134.138 41.5457 134.145C42.3492 131.311 43.116 128.466 43.846 125.612C43.8589 125.561 43.8614 125.508 43.8532 125.457C43.845 125.405 43.8263 125.356 43.7983 125.312C43.7703 125.267 43.7336 125.229 43.6903 125.2C43.6471 125.171 43.5983 125.15 43.5469 125.14C43.3369 125.101 43.1275 125.064 42.9174 125.022C44.1304 120.242 45.7414 106.896 45.7874 106.247C46.1838 101.676 46.2635 93.6508 44.7139 89.4659C47.4489 89.2113 49.148 89.0104 49.7745 90.1881C50.7638 92.1339 51.4266 94.2289 51.7366 96.3896C53.3958 106.385 53.6903 116.054 52.0088 124.591C51.6944 124.555 51.3795 124.526 51.0641 124.507C51.0129 124.504 50.9614 124.511 50.913 124.528C50.8645 124.545 50.8199 124.572 50.782 124.606C50.744 124.641 50.7133 124.683 50.6919 124.73C50.6704 124.776 50.6585 124.827 50.657 124.878C50.621 126.08 50.7943 124.832 48.3345 139.374C48.2541 139.611 48.2614 139.869 48.3552 140.102C48.4489 140.334 48.6227 140.525 48.8452 140.639C51.1715 142.214 54.0744 142.581 56.5801 142.839C58.4477 143.078 60.3439 142.952 62.1636 142.469C62.4661 142.405 62.7467 142.263 62.978 142.058C63.2093 141.853 63.3834 141.591 63.4832 141.298C63.7979 140.562 63.9511 139.766 63.9324 138.966C63.9138 138.165 63.7237 137.378 63.3751 136.657ZM46.857 50.4429C46.6206 50.6376 46.3433 50.7765 46.0459 50.8494C45.7484 50.9223 45.4384 50.9272 45.1387 50.8639C44.8391 50.8005 44.5576 50.6705 44.3151 50.4835C44.0726 50.2965 43.8753 50.0572 43.7379 49.7835L43.8069 49.2537C44.7979 49.6767 45.8376 49.9747 46.9022 50.1408C46.8861 50.2413 46.8716 50.3417 46.857 50.4429ZM54.4187 45.3425C53.4618 48.4387 51.0189 50.3095 46.9321 48.8627C45.347 48.1614 43.9534 47.0899 42.8684 45.7382C42.4733 45.3116 42.138 44.8334 41.8716 44.3166C41.9389 43.9705 41.9418 43.6149 41.88 43.2677C41.8303 42.4251 41.67 41.5927 41.4031 40.7919C44.5537 38.223 48.1982 36.3283 52.1108 35.2253C54.1549 38.0507 55.5711 41.8975 54.4187 45.3425ZM36.4108 44.4991C35.5175 43.6886 34.7927 42.7099 34.2777 41.6192C33.7628 40.5284 33.4679 39.3468 33.4098 38.142C33.3354 37.4585 33.3354 36.769 33.4098 36.0856C33.9296 33.0293 36.7535 29.3819 40.9906 27.8906C44.819 26.5388 49.0461 27.646 51.1738 30.029C52.2126 31.2025 52.9384 32.6193 53.2839 34.148C48.662 35.2083 44.3544 37.3411 40.7092 40.374C40.648 40.4244 40.6039 40.4925 40.5831 40.569C40.5622 40.6455 40.5655 40.7266 40.5927 40.8011C40.8921 41.624 41.0698 42.4862 41.1202 43.3605C41.2735 44.2461 40.9155 45.4782 39.7945 45.6278C39.1822 45.7001 38.5615 45.6365 37.9766 45.4414C37.3917 45.2463 36.8571 44.9245 36.4108 44.4991ZM37.9236 46.2251C38.4819 46.3856 39.0639 46.4476 39.6434 46.4083C39.8791 46.6501 40.1232 46.8816 40.3757 47.103C39.4678 47.4511 38.5884 46.9228 37.9236 46.2235V46.2251ZM40.526 46.2021C40.9647 46.0215 41.3202 45.6835 41.5227 45.2543C41.7453 45.6014 41.9974 45.9285 42.2764 46.232C43.217 47.3995 44.3752 48.3734 45.6869 49.0996C43.7542 48.5729 41.9814 47.577 40.526 46.2005V46.2021ZM33.8123 75.5938C33.8376 75.4942 33.8223 75.6521 33.7586 72.1504C33.7042 69.1309 33.4872 66.077 33.2771 63.1242C32.5226 52.5331 32.8937 53.2515 32.7757 52.6519C32.7975 52.6227 32.8286 52.6017 32.8638 52.5921C34.1626 52.0948 35.5372 51.8243 36.9276 51.7924L38.4251 51.6613C39.0312 51.6712 39.6277 51.5093 40.1456 51.1944C40.3966 50.9257 40.7367 50.7576 41.1025 50.7213C41.5615 50.706 42.0088 50.8668 42.3531 51.1706C43.6459 52.3008 44.5882 54.7444 44.9225 56.4359C45.0467 57.6044 44.888 58.4769 45.0275 60.1086C45.1372 63.654 44.671 65.1622 45.5397 71.0731C45.9953 73.3335 46.1032 75.6502 45.8595 77.9432C44.3574 78.5566 42.5862 78.4116 40.8894 78.1548C38.5592 77.7975 35.9032 77.214 33.8123 75.5938ZM53.8774 124.913C53.5124 124.83 53.1441 124.759 52.7725 124.699C54.4639 116.077 54.1656 106.325 52.4957 96.2662C52.173 94.0217 51.4828 91.8457 50.4531 89.8255C49.7231 88.4614 48.2555 88.5059 47.0993 88.5266C46.1071 88.5414 45.1168 88.6157 44.1335 88.749C44.0737 88.7546 44.016 88.7741 43.9652 88.8061C43.9143 88.8381 43.8717 88.8816 43.8407 88.9331C43.8097 88.9846 43.7913 89.0426 43.7869 89.1025C43.7825 89.1624 43.7922 89.2225 43.8153 89.278C45.5382 93.3985 45.4094 101.738 45.0245 106.186C44.898 107.949 43.1973 120.802 42.1975 124.894C40.6582 124.626 39.1156 124.377 37.5701 124.147C37.2297 124.069 36.8867 124.002 36.5412 123.943C37.6438 118.019 38.1794 112.002 38.1406 105.976C37.9872 99.9289 36.6838 93.8793 35.299 88.2414C34.3122 84.2175 34.3529 81.1811 35.4324 78.7429C36.2741 79.4317 37.2167 79.9869 38.2272 80.3891C40.4715 81.4741 42.9465 81.9952 45.4377 81.9073C47.9289 81.8194 50.3611 81.1251 52.5233 79.8846C53.0952 79.6251 53.6197 79.2719 54.0752 78.8395C57.9795 86.7316 58.6941 91.2923 59.5275 99.0341C60.0558 103.576 60.7091 109.193 58.1251 125.52C56.7158 125.274 55.2992 125.072 53.8774 124.913Z" fill="#4B1010"/>
<path d="M108.803 30.1356C109.712 31.193 110.313 32.4797 110.54 33.8553C110.768 35.2309 110.612 36.6425 110.092 37.936C109.572 39.2295 108.706 40.3551 107.589 41.19C106.472 42.0248 105.148 42.5368 103.76 42.6701C102.372 42.8033 100.974 42.5527 99.7192 41.9455C98.4641 41.3383 97.3999 40.398 96.6429 39.2272C95.8859 38.0563 95.4651 36.7 95.4265 35.3063C95.3879 33.9125 95.733 32.535 96.4241 31.3241C94.4065 32.5727 92.7411 34.3158 91.5858 36.3882C90.4304 38.4607 89.8235 40.7938 89.8224 43.1665C89.8129 43.5278 89.8321 43.8894 89.8799 44.2476C33.9179 73.1755 37.9211 71.1759 37.8314 71.0348C35.5703 68.9469 32.8138 68.1978 29.4463 68.1978C26.8826 68.196 24.376 68.9547 22.2436 70.3779C20.1112 71.801 18.449 73.8248 17.4671 76.193C16.4852 78.5612 16.2278 81.1674 16.7276 83.6819C17.2274 86.1964 18.4618 88.5061 20.2746 90.3189C22.0875 92.1316 24.3973 93.3659 26.9118 93.8655C29.4263 94.3651 32.0325 94.1076 34.4007 93.1256C36.7688 92.1435 38.7924 90.4811 40.2155 88.3487C41.6386 86.2162 42.3971 83.7096 42.3951 81.1459C42.4281 80.8442 42.4281 80.5398 42.3951 80.2381L94.2787 53.3597C95.7855 54.7609 97.5836 55.8116 99.5441 56.4364C101.505 57.0613 103.579 57.2448 105.619 56.974C107.658 56.7031 109.613 55.9845 111.342 54.8697C113.072 53.7549 114.533 52.2714 115.622 50.5255C116.711 48.7796 117.401 46.8145 117.641 44.7709C117.881 42.7274 117.667 40.656 117.013 38.705C116.359 36.7541 115.281 34.9719 113.858 33.4862C112.434 32.0004 110.7 30.8479 108.779 30.1111L108.803 30.1356ZM29.7108 89.653C27.948 89.653 26.2249 89.1303 24.7592 88.1509C23.2935 87.1716 22.1511 85.7796 21.4765 84.151C20.802 82.5224 20.6255 80.7304 20.9694 79.0015C21.3133 77.2726 22.1621 75.6845 23.4086 74.4381C24.655 73.1916 26.2431 72.3428 27.972 71.9989C29.7009 71.655 31.493 71.8315 33.1215 72.506C34.7501 73.1806 36.1421 74.323 37.1214 75.7887C38.1008 77.2543 38.6235 78.9775 38.6235 80.7403C38.6235 83.1041 37.6845 85.3711 36.013 87.0425C34.3416 88.714 32.0746 89.653 29.7108 89.653Z" fill="white"/>
<path d="M96.292 35.0215C96.292 35.9166 96.4683 36.803 96.8109 37.63C97.1534 38.457 97.6555 39.2084 98.2885 39.8414C98.9214 40.4744 99.6729 40.9765 100.5 41.319C101.327 41.6616 102.213 41.8379 103.108 41.8379C104.004 41.8379 104.89 41.6616 105.717 41.319C106.544 40.9765 107.295 40.4744 107.928 39.8414C108.561 39.2084 109.063 38.457 109.406 37.63C109.748 36.803 109.925 35.9166 109.925 35.0215C109.925 34.1263 109.748 33.24 109.406 32.413C109.063 31.586 108.561 30.8345 107.928 30.2016C107.295 29.5686 106.544 29.0665 105.717 28.7239C104.89 28.3814 104.004 28.2051 103.108 28.2051C102.213 28.2051 101.327 28.3814 100.5 28.7239C99.6729 29.0665 98.9214 29.5686 98.2885 30.2016C97.6555 30.8345 97.1534 31.586 96.8109 32.413C96.4683 33.24 96.292 34.1263 96.292 35.0215Z" fill="white"/>
<path d="M29.7106 71.4443C27.872 71.4443 26.0747 71.9895 24.546 73.011C23.0173 74.0325 21.8258 75.4843 21.1222 77.1829C20.4186 78.8816 20.2345 80.7507 20.5932 82.554C20.9519 84.3572 21.8372 86.0136 23.1373 87.3137C24.4374 88.6138 26.0938 89.4992 27.897 89.8578C29.7003 90.2165 31.5694 90.0324 33.2681 89.3288C34.9667 88.6252 36.4185 87.4337 37.44 85.905C38.4615 84.3763 39.0067 82.579 39.0067 80.7404C39.004 78.2757 38.0238 75.9128 36.281 74.17C34.5382 72.4272 32.1753 71.447 29.7106 71.4443ZM29.7267 89.2697C25.6683 89.2697 23.0629 85.3532 23.0629 81.5654C23.0647 80.2366 23.3766 78.9265 23.9738 77.7394C24.5711 76.5524 25.4371 75.5211 26.5031 74.7276C27.569 73.9342 28.8054 73.4005 30.114 73.169C31.4225 72.9375 32.767 73.0146 34.0405 73.3942C35.6514 74.3431 36.9058 75.7951 37.6107 77.5268C38.3156 79.2585 38.4319 81.1738 37.9416 82.9781C37.4514 84.7823 36.3818 86.3754 34.8975 87.5122C33.4131 88.649 31.5964 89.2665 29.7267 89.2697Z" fill="#4B1010"/>
<path d="M115.942 88.3161C115.942 92.4003 117.564 96.3172 120.452 99.2051C123.34 102.093 127.257 103.716 131.341 103.716C135.425 103.716 139.342 102.093 142.23 99.2051C145.118 96.3172 146.741 92.4003 146.741 88.3161C146.741 84.232 145.118 80.3151 142.23 77.4271C139.342 74.5392 135.425 72.9167 131.341 72.9167C127.257 72.9167 123.34 74.5392 120.452 77.4271C117.564 80.3151 115.942 84.232 115.942 88.3161Z" fill="white"/>
<path d="M120.357 88.3244C120.357 91.2134 121.505 93.9841 123.548 96.027C125.591 98.0699 128.362 99.2176 131.251 99.2176C134.14 99.2176 136.91 98.0699 138.953 96.027C140.996 93.9841 142.144 91.2134 142.144 88.3244C142.144 86.8938 141.862 85.4773 141.315 84.1557C140.767 82.8341 139.965 81.6332 138.953 80.6217C137.942 79.6102 136.741 78.8078 135.419 78.2603C134.098 77.7129 132.681 77.4312 131.251 77.4312C129.82 77.4312 128.404 77.7129 127.082 78.2603C125.76 78.8078 124.559 79.6102 123.548 80.6217C122.536 81.6332 121.734 82.8341 121.187 84.1557C120.639 85.4773 120.357 86.8938 120.357 88.3244Z" fill="white"/>
<path d="M142.635 77.3024C138.084 10.5554 138.326 13.8294 138.268 13.7182C138.623 12.7943 138.783 11.8073 138.739 10.8187C138.695 9.83007 138.447 8.86118 138.012 7.97248C137.577 7.08378 136.963 6.29436 136.209 5.65349C135.455 5.01263 134.577 4.53408 133.63 4.24772C132.682 3.96137 131.686 3.87336 130.704 3.98919C129.721 4.10501 128.772 4.42219 127.918 4.92092C127.063 5.41964 126.32 6.08921 125.736 6.88781C125.152 7.68642 124.738 8.59692 124.521 9.56246L101.471 28.0097C100.518 28.2343 99.6204 28.6502 98.8332 29.2322C98.0459 29.8141 97.3851 30.5499 96.8908 31.3949C96.8908 31.1648 96.5426 30.7991 96.2221 30.9985C94.1436 32.2753 92.428 34.065 91.2402 36.1957C90.0523 38.3264 89.432 40.7266 89.4387 43.166C89.4387 43.4466 89.4387 43.7349 89.4663 44.0294L37.9761 70.6494C35.8215 68.7148 33.1057 67.8124 29.4467 67.8124C26.8083 67.8111 24.2287 68.5921 22.0341 70.0567C19.8395 71.5214 18.1284 73.6038 17.1173 76.0408C16.1061 78.4779 15.8402 81.16 16.3533 83.7481C16.8663 86.3362 18.1353 88.714 19.9996 90.581C23.1096 93.4298 27.1154 95.1055 31.3276 95.3195C33.1256 95.3231 34.9057 94.963 36.5609 94.2608C38.2161 93.5585 39.7121 92.5287 40.959 91.2333C42.2059 89.9379 43.1778 88.4036 43.8163 86.7228C44.4548 85.042 44.7467 83.2494 44.6744 81.4528L95.759 55.0284C96.2982 55.3838 96.8565 55.7094 97.4313 56.0037C100.147 57.4863 103.183 58.2875 106.277 58.3384C108.16 58.3392 110.025 57.9686 111.765 57.2477C113.505 56.5268 115.086 55.4698 116.418 54.1373C117.749 52.8047 118.804 51.2227 119.523 49.4818C120.242 47.7409 120.611 45.8753 120.608 43.9918C120.608 37.5105 116.562 32.4238 109.483 29.9603C108.671 29.6781 108.469 29.514 107.884 29.639C106.959 28.8158 105.837 28.2456 104.627 27.9836L124.417 12.1426C124.592 13.3845 125.09 14.5587 125.861 15.5477L121.53 75.9599C119.03 77.9428 117.19 80.6369 116.252 83.6869C115.314 86.7369 115.323 89.9995 116.277 93.0445C117.231 96.0894 119.085 98.7738 121.595 100.744C124.106 102.713 127.154 103.876 130.338 104.079C133.523 104.281 136.694 103.513 139.433 101.877C142.173 100.241 144.352 97.8128 145.684 94.913C147.015 92.0133 147.437 88.778 146.892 85.6339C146.348 82.4897 144.864 79.5844 142.635 77.3009V77.3024ZM101.579 28.7718L101.77 29.9902C100.69 30.2697 99.7291 30.8878 99.0269 31.7537L98.0953 30.9916C98.982 29.8901 100.206 29.1103 101.579 28.7718ZM103.066 39.4657C102.189 39.4658 101.331 39.2058 100.601 38.7184C99.8715 38.231 99.3028 37.5382 98.9669 36.7275C98.631 35.9169 98.543 35.0249 98.7141 34.1642C98.8852 33.3036 99.3077 32.513 99.9281 31.8925C100.549 31.272 101.339 30.8494 102.2 30.6782C103.06 30.5069 103.952 30.5947 104.763 30.9305C105.574 31.2662 106.267 31.8349 106.754 32.5644C107.242 33.294 107.502 34.1518 107.502 35.0293C107.501 36.2054 107.033 37.333 106.201 38.1647C105.37 38.9964 104.242 39.4642 103.066 39.4657ZM108.403 38.6675C107.6 39.8339 106.435 40.7035 105.088 41.1418L104.821 39.9273C105.858 39.5532 106.749 38.8614 107.369 37.9506L108.403 38.6675ZM100.152 39.3353C100.722 39.7225 101.363 39.9925 102.038 40.1294C102.713 40.2663 103.409 40.2674 104.084 40.1327L104.349 41.3342C103.509 41.4997 102.645 41.4953 101.807 41.3213C100.969 41.1473 100.174 40.8074 99.4693 40.3214L100.152 39.3353ZM98.8644 39.849C97.8119 38.9246 97.0899 37.6819 96.8079 36.3097L97.9765 36.0943C98.2007 37.1559 98.7511 38.121 99.5506 38.8546L98.8644 39.849ZM97.6506 31.618L98.5876 32.3847C98.0607 33.2736 97.8121 34.2999 97.8737 35.3314L96.6975 35.5476C96.5822 34.1691 96.9166 32.7904 97.6506 31.618ZM113.724 52.3869C112.51 53.6925 111.051 54.7461 109.43 55.4875C107.809 56.2288 106.058 56.6434 104.276 56.7075C102.495 56.7716 100.719 56.4839 99.0484 55.861C97.3783 55.238 95.8473 54.292 94.543 53.077C94.4851 53.0232 94.4121 52.9886 94.3339 52.9779C94.2557 52.9672 94.1761 52.9809 94.1059 53.0172L42.3297 79.8066C42.253 79.8833 41.9815 79.9822 42.0138 80.2782C42.0448 80.5718 42.0448 80.8679 42.0138 81.1615C42.0124 83.6482 41.2737 86.0787 39.8912 88.1457C38.5086 90.2127 36.5443 91.8234 34.2464 92.774C31.9486 93.7247 29.4204 93.9728 26.9816 93.4868C24.5428 93.0008 22.3029 91.8027 20.545 90.0438C18.7871 88.2849 17.5901 86.0443 17.1055 83.6052C16.6209 81.1662 16.8703 78.6382 17.8222 76.3409C18.7742 74.0435 20.3859 72.0801 22.4537 70.6986C24.5214 69.3172 26.9523 68.5799 29.4391 68.5799C32.5015 68.5799 35.2756 69.2178 37.5352 71.2835L37.5658 71.3318C37.6172 71.4127 37.697 71.4714 37.7896 71.4964C37.8821 71.5214 37.9806 71.5108 38.0658 71.4667L90.0567 44.5883C90.1283 44.5513 90.1865 44.4926 90.2228 44.4206C90.2592 44.3486 90.2719 44.2669 90.2591 44.1873C90.2146 43.8491 90.1969 43.5078 90.2062 43.1668C90.1998 41.0898 90.674 39.0395 91.5918 37.1763C92.5096 35.3131 93.8462 33.6876 95.4968 32.4269C95.0483 33.6939 94.9264 35.0535 95.1426 36.38C95.3588 37.7065 95.906 38.957 96.7336 40.016C97.5612 41.075 98.6425 41.9082 99.8774 42.4385C101.112 42.9688 102.461 43.1791 103.799 43.05C105.137 42.9209 106.42 42.4565 107.531 41.6998C108.642 40.9431 109.544 39.9185 110.154 38.7208C110.763 37.5231 111.061 36.191 111.02 34.8476C110.978 33.5043 110.599 32.193 109.916 31.0353C111.793 31.9852 113.423 33.3583 114.678 35.0461C115.933 36.734 116.778 38.6905 117.147 40.7611C117.517 42.8317 117.4 44.9598 116.806 46.9774C116.211 48.995 115.156 50.8469 113.724 52.3869ZM109.491 34.1805C109.666 35.4983 109.427 36.8381 108.808 38.0142L107.759 37.2873C108.205 36.3636 108.366 35.3287 108.224 34.3131L109.491 34.1805ZM109.345 33.4245L108.061 33.5556C107.765 32.5583 107.177 31.6722 106.374 31.0115L107.171 30.0331C108.238 30.903 108.998 32.0914 109.341 33.4245H109.345ZM106.547 29.5838L105.746 30.5683C104.779 29.9859 103.648 29.7355 102.526 29.8552L102.335 28.6346C103.806 28.4555 105.292 28.7909 106.543 29.5838H106.547ZM146.095 85.5204L142.345 86.3033C141.834 83.5177 140.295 81.0259 138.033 79.3221L140.431 76.3724C143.383 78.6186 145.401 81.8768 146.095 85.5204ZM131.25 98.8343C129.171 98.8343 127.139 98.2179 125.411 97.0631C123.682 95.9082 122.335 94.2668 121.54 92.3464C120.744 90.426 120.536 88.3128 120.942 86.2741C121.347 84.2354 122.348 82.3627 123.818 80.8929C125.288 79.423 127.16 78.4221 129.199 78.0166C131.238 77.611 133.351 77.8192 135.271 78.6146C137.192 79.4101 138.833 80.7572 139.988 82.4855C141.143 84.2138 141.759 86.2458 141.759 88.3244C141.756 91.1108 140.648 93.7822 138.678 95.7524C136.707 97.7227 134.036 98.831 131.25 98.8343ZM129.61 77.1667L129.029 73.4779C132.803 72.8876 136.659 73.7621 139.809 75.9223L137.404 78.8796C135.103 77.3747 132.33 76.7653 129.61 77.1667ZM137.242 14.1262L136.204 13.397C136.599 12.5771 136.771 11.6676 136.703 10.7601L137.947 10.4879C138.076 11.7436 137.83 13.0092 137.242 14.1262ZM131.514 15.583C130.637 15.5831 129.779 15.3231 129.049 14.8357C128.319 14.3483 127.751 13.6555 127.415 12.8448C127.079 12.0342 126.991 11.1422 127.162 10.2815C127.333 9.42091 127.756 8.63034 128.376 8.00982C128.996 7.3893 129.787 6.9667 130.648 6.79546C131.508 6.62422 132.4 6.71203 133.211 7.04778C134.022 7.38354 134.714 7.95217 135.202 8.68175C135.689 9.41133 135.95 10.2691 135.95 11.1466C135.948 12.3229 135.48 13.4506 134.648 14.2823C133.817 15.114 132.689 15.5818 131.513 15.583H131.514ZM132.795 17.45C131.954 17.616 131.088 17.6118 130.249 17.4377C129.41 17.2636 128.614 16.9231 127.909 16.4364L128.599 15.4488C129.168 15.8357 129.808 16.1057 130.482 16.2428C131.157 16.38 131.851 16.3817 132.526 16.2477L132.795 17.45ZM135.82 14.0633L136.845 14.7833C136.042 15.9472 134.88 16.8159 133.537 17.256L133.262 16.0469C134.304 15.6716 135.199 14.9758 135.82 14.0594V14.0633ZM137.824 9.72961L136.589 10.0003C136.333 8.87297 135.709 7.86286 134.816 7.1288L135.605 6.1512C136.725 7.06171 137.507 8.32189 137.824 9.72961ZM134.983 5.70188L134.188 6.68562C133.219 6.10236 132.087 5.85218 130.963 5.97331L130.771 4.75188C132.243 4.57159 133.731 4.90734 134.983 5.70188ZM130.017 4.88913L130.208 6.10979C129.132 6.39093 128.174 7.00887 127.474 7.87331L126.537 7.10657C127.423 6.00598 128.646 5.22688 130.017 4.88913ZM126.092 7.733L127.034 8.49975C126.509 9.38619 126.26 10.4092 126.319 11.4379L125.135 11.658C125.021 10.2806 125.357 8.90364 126.092 7.733ZM125.242 12.4209L126.419 12.2024C126.641 13.2686 127.192 14.2383 127.994 14.9749L127.304 15.9671C126.248 15.0413 125.524 13.7961 125.242 12.4209ZM127.701 17.2223C129.058 18.0822 130.664 18.4626 132.262 18.3028C133.86 18.143 135.359 17.4521 136.519 16.3405L140.552 75.5082C138.109 73.7476 135.214 72.7236 132.207 72.5576C129.201 72.3915 126.21 73.0903 123.589 74.5713L127.701 17.2223ZM128.275 73.6151L128.855 77.3032C126.191 77.8866 123.829 79.4132 122.202 81.6016L119.353 79.2822C121.544 76.3761 124.714 74.3627 128.275 73.6151ZM118.906 79.9071L121.763 82.2334C120.394 84.3586 119.781 86.8836 120.024 89.4002L116.426 90.065C116.004 86.491 116.884 82.8845 118.906 79.9071ZM116.534 90.8248L120.122 90.1608C120.558 92.791 121.912 95.1817 123.943 96.9082L121.842 99.9392C119.03 97.6421 117.144 94.4045 116.534 90.8248ZM122.448 100.409L124.544 97.3851C125.871 98.3701 127.398 99.0508 129.017 99.379C130.636 99.7071 132.307 99.6745 133.912 99.2836L134.723 102.948C132.615 103.436 130.426 103.462 128.307 103.024C126.188 102.586 124.189 101.694 122.448 100.409ZM135.465 102.756L134.652 99.0758C137.231 98.2537 139.431 96.5349 140.852 94.2307L143.988 96.4029C142.012 99.4849 138.983 101.743 135.465 102.756ZM144.385 95.7466L141.234 93.5629C142.284 91.5681 142.71 89.3038 142.456 87.0639L146.218 86.278C146.669 89.5499 146.025 92.8792 144.385 95.7466Z" fill="#4B1010"/>
<path d="M112.236 148H71.4607C71.2788 147.999 71.1004 147.95 70.9435 147.858C70.7866 147.766 70.6568 147.634 70.5672 147.475C70.4776 147.317 70.4314 147.138 70.4332 146.956C70.4349 146.774 70.4847 146.596 70.5774 146.439L76.6347 136.413C76.8321 136.083 77.1115 135.81 77.4457 135.621C77.7799 135.431 78.1575 135.332 78.5416 135.332H104.429C104.79 135.333 105.144 135.423 105.461 135.594C105.778 135.766 106.047 136.013 106.245 136.314L112.971 146.654C113.055 146.786 113.102 146.938 113.107 147.095C113.112 147.251 113.075 147.406 113 147.543C112.925 147.681 112.815 147.795 112.68 147.876C112.546 147.956 112.393 147.999 112.236 148Z" fill="white"/>
<path d="M106.565 136.103C106.333 135.748 106.016 135.457 105.643 135.255C105.27 135.053 104.853 134.948 104.429 134.948H78.5404C78.0905 134.949 77.6485 135.066 77.2571 135.288C76.8658 135.51 76.5382 135.829 76.3061 136.215L70.2495 146.247C69.6952 147.178 69.8845 150.391 71.4618 150.391H112.237C113.57 150.391 113.748 148.156 113.581 147.008C113.548 146.775 114.031 147.519 106.565 136.103ZM70.9051 146.638L76.9624 136.61C77.1256 136.337 77.3566 136.111 77.6328 135.955C77.9091 135.798 78.2212 135.715 78.5388 135.715H104.427C104.723 135.715 105.015 135.789 105.276 135.93C105.537 136.071 105.759 136.275 105.922 136.523L112.651 146.86C112.698 146.934 112.724 147.02 112.727 147.107C112.73 147.195 112.71 147.282 112.668 147.359C112.626 147.436 112.564 147.501 112.489 147.546C112.413 147.591 112.328 147.615 112.24 147.616H71.4618C71.3475 147.616 71.2354 147.585 71.1368 147.528C71.0381 147.47 70.9564 147.388 70.8999 147.288C70.8434 147.189 70.8142 147.077 70.8151 146.962C70.816 146.848 70.847 146.736 70.9051 146.638ZM112.605 149.226C112.451 149.513 112.298 149.621 112.237 149.621H71.4602C71.3245 149.621 71.096 149.43 70.9166 149.011C70.8016 148.749 70.7389 148.467 70.7318 148.181C70.9514 148.314 71.2034 148.384 71.4602 148.383H112.237C112.458 148.383 112.674 148.325 112.865 148.214C112.862 148.567 112.772 148.914 112.605 149.226Z" fill="#4B1010"/>
<path d="M78.6559 138.913L91.1999 104.005C91.2512 103.858 91.3471 103.73 91.4742 103.64C91.6014 103.549 91.7535 103.501 91.9095 103.501C92.0655 103.501 92.2176 103.549 92.3448 103.64C92.472 103.73 92.5678 103.858 92.6191 104.005C105.869 142.366 105.015 139.866 104.998 140.077C105.064 140.82 104.998 145.891 91.1838 145.895C76.3288 145.899 78.6559 138.913 78.6559 138.913Z" fill="white"/>
<path d="M97.2086 117.44L95.1284 111.399C93.5114 113.742 88.6824 112.708 88.5022 111.374L86.3975 117.234C88.1963 120.14 94.3924 121.031 97.2086 117.44Z" fill="#FFE55D"/>
<path d="M103.588 135.959L101.112 128.804C96.3239 134.125 84.499 132.492 82.3951 128.399L80.0596 134.911C82.8582 140.701 96.8199 143.395 103.588 135.959Z" fill="#FFE55D"/>
<path d="M92.9823 103.879C92.9039 103.658 92.7588 103.466 92.567 103.331C92.3751 103.195 92.146 103.122 91.9111 103.122C91.6762 103.122 91.4471 103.195 91.2553 103.331C91.0635 103.466 90.9184 103.658 90.84 103.879C89.3832 107.974 80.5525 132.187 78.2929 138.796C78.1176 139.446 78.0923 140.127 78.2189 140.789C78.3455 141.45 78.6206 142.074 79.0236 142.614C80.7795 145.048 84.8616 146.291 91.1574 146.282C97.7867 146.274 102.199 145.149 104.256 142.905C104.624 142.541 104.914 142.105 105.108 141.625C105.301 141.145 105.394 140.63 105.381 140.112C105.408 139.77 106.265 142.314 92.9823 103.879ZM82.5177 129.31C85.005 132.635 95.0402 134.405 100.942 129.475L103.153 135.867C96.4319 142.997 83.3389 139.99 80.5011 134.922L82.5177 129.31ZM82.8413 128.411L86.5554 118.073C88.6977 120.443 94.2535 121.24 97.1082 118.149C98.5864 122.426 99.7772 125.87 100.734 128.643C94.6492 134.02 84.6201 131.503 82.8382 128.411H82.8413ZM88.6432 112.264C90.087 113.401 93.4285 113.596 94.9858 112.152L96.7792 117.366C94.2236 120.429 88.6294 119.743 86.8583 117.232L88.6432 112.264ZM91.5661 104.13C91.5913 104.058 91.6383 103.996 91.7005 103.952C91.7627 103.907 91.8371 103.884 91.9134 103.884C91.9897 103.884 92.0641 103.907 92.1263 103.952C92.1886 103.996 92.2355 104.058 92.2608 104.13C93.1482 106.695 93.9732 109.081 94.7358 111.289C93.279 113.136 89.4583 112.332 88.9338 111.454L91.5661 104.13ZM104.617 140.113C104.628 140.535 104.551 140.955 104.392 141.346C104.233 141.737 103.994 142.091 103.691 142.385C101.167 145.145 94.8731 145.514 91.1582 145.514C83.6586 145.514 80.7641 143.7 79.6569 142.178C79.3216 141.737 79.0902 141.225 78.9802 140.681C78.8701 140.138 78.8842 139.576 79.0213 139.039L80.1783 135.818C84.5848 141.443 96.9264 143.266 103.482 136.629C104.861 140.65 104.619 140.015 104.617 140.113Z" fill="#4B1010"/>
<path d="M67.0538 72.3223C67.6788 71.8967 68.1748 71.3077 68.4877 70.6194C68.8006 69.9312 68.9183 69.1702 68.8281 68.4195C68.8138 68.0221 68.6449 67.646 68.3573 67.3714C68.2846 67.3097 68.2 67.2638 68.1087 67.2365C68.0174 67.2092 67.9215 67.2011 67.8269 67.2126C67.7323 67.2242 67.6412 67.2553 67.5592 67.3039C67.4772 67.3524 67.4062 67.4174 67.3506 67.4948C67.28 67.7037 67.28 67.93 67.3506 68.1389C67.6849 70.3924 67.681 69.3143 67.1113 68.3865C66.9197 68.0097 66.5968 67.716 66.2035 67.5607C66.0086 67.5079 65.801 67.5282 65.6201 67.6179C65.4391 67.7076 65.2973 67.8605 65.2213 68.0476C65.1883 68.1971 65.1883 68.352 65.2213 68.5016C65.3327 69.1809 65.5125 69.8473 65.758 70.4905C65.6754 70.1776 65.5285 69.8854 65.3267 69.6324C65.1248 69.3795 64.8724 69.1714 64.5857 69.0214C64.4882 68.9572 64.3769 68.9167 64.2609 68.9034C64.1449 68.8901 64.0274 68.9042 63.9178 68.9447C63.6203 69.0935 63.5958 69.506 63.6449 69.8365C63.6939 70.1669 64.118 70.6615 64.0658 71.107C63.9953 71.7204 63.2408 71.9734 62.7539 72.2793C63.3885 72.7047 64.1335 72.9353 64.8975 72.9429C65.6614 72.9506 66.4109 72.7348 67.0538 72.3223Z" fill="white"/>
<path d="M69.211 68.4058C69.1842 67.6506 68.662 66.7565 67.8186 66.8294C67.6116 66.8381 67.4132 66.9147 67.254 67.0473C67.0948 67.1799 66.9836 67.3612 66.9376 67.5632C66.7481 67.4066 66.5341 67.2823 66.3042 67.1951C66.0085 67.118 65.6946 67.1548 65.4248 67.2982C65.155 67.4416 64.9489 67.6813 64.8474 67.9695C64.7969 68.2273 64.8061 68.4933 64.8743 68.747C63.8997 68.1881 63.0893 68.7217 63.2641 69.8971C63.3067 70.0958 63.3794 70.2869 63.4795 70.4638C63.7931 71.0971 63.846 71.2428 62.9029 71.7565C62.6116 71.9098 62.3708 72.0042 62.3662 72.2794C62.3657 72.3437 62.3814 72.4072 62.4118 72.4638C62.4422 72.5205 62.4864 72.5686 62.5403 72.6038C63.2348 73.0588 64.0454 73.3048 64.8756 73.3124C65.7059 73.32 66.5209 73.089 67.2236 72.6467C67.9263 72.2045 68.4872 71.5697 68.8395 70.8179C69.1919 70.066 69.3208 69.2288 69.211 68.4058ZM63.5501 72.2725C65.2101 71.298 64.0868 70.1877 64.0247 69.7814C63.9626 69.375 64.0331 69.1219 64.4081 69.3612C64.7835 69.5582 65.0846 69.872 65.2661 70.2552C65.3082 70.3802 65.3535 70.5044 65.4003 70.6271C65.437 70.7157 65.5055 70.7874 65.5925 70.8279C65.6794 70.8684 65.7784 70.8749 65.8699 70.846C65.9614 70.8171 66.0387 70.755 66.0866 70.6719C66.1345 70.5887 66.1495 70.4907 66.1287 70.3971C65.8866 69.7578 65.7081 69.0962 65.5958 68.4219C65.5813 68.3461 65.5751 68.269 65.5774 68.1919C65.6139 68.0969 65.6823 68.0176 65.7708 67.9676C65.8593 67.9175 65.9625 67.8998 66.0627 67.9174C66.3776 68.0441 66.6347 68.2824 66.785 68.5868C66.9723 68.8923 67.1129 69.2242 67.2021 69.5713C67.2285 69.6656 67.2901 69.7462 67.3741 69.7966C67.4581 69.847 67.5582 69.8633 67.6538 69.8422C67.7495 69.8211 67.8334 69.7642 67.8884 69.6832C67.9435 69.6021 67.9654 69.5031 67.9497 69.4064C67.8663 68.9439 67.7875 68.4805 67.7135 68.0163C67.5602 67.5562 67.9497 67.5317 68.0915 67.6483C68.2015 67.7543 68.2895 67.881 68.3504 68.0212C68.4114 68.1613 68.444 68.3121 68.4465 68.4648C68.5369 69.0886 68.4605 69.7251 68.225 70.3097C67.9895 70.8943 67.6034 71.406 67.1059 71.7929C66.6083 72.1798 66.0172 72.428 65.3926 72.5122C64.7681 72.5965 64.1323 72.5138 63.5501 72.2725Z" fill="#4B1010"/>
<path d="M30.4555 58.4749C30.9752 60.1117 32.0605 61.5101 33.5171 62.4198C35.5797 63.6995 38.241 64.178 40.6226 64.6809C43.2797 65.2083 45.9769 65.5091 48.6849 65.5803C57.8859 66.5004 63.3651 64.6303 71.9075 60.736C69.4922 59.7454 67.997 57.0242 69.424 54.6703C64.3151 56.8578 58.4556 57.5072 52.9182 57.4106C47.9673 57.3209 43.0156 56.2053 38.1797 54.9348C37.4419 54.7882 36.737 54.5084 36.0995 54.109C35.5475 53.5838 34.9634 53.0934 34.3506 52.6407C32.0104 51.3725 29.152 54.4188 30.4555 58.4749Z" fill="#FFB43B"/>
<path d="M75.2069 48.8696C76.5211 47.9357 80.4561 45.9399 80.2913 49.1993C80.2913 49.0514 79.5728 49.4968 79.4655 49.5628C79.1964 49.8654 79.0347 50.2484 79.0054 50.6523C79.0053 51.2776 79.0608 51.9016 79.171 52.5171C79.1766 54.3713 78.4464 56.1521 77.1407 57.4687C75.833 58.7844 74.3533 59.9169 72.7418 60.8355C72.5387 60.9941 72.2961 61.0941 72.0403 61.1246C71.8424 61.122 71.6477 61.074 71.4713 60.9843C70.4667 60.4865 69.6386 59.6929 69.0986 58.7103C68.5587 57.7276 68.3327 56.6032 68.4511 55.4882C68.4594 55.2517 68.5185 55.0197 68.6243 54.8081C68.7301 54.5964 68.8803 54.41 69.0645 54.2614C70.3806 53.5852 71.7302 52.9767 73.1083 52.4381C73.9073 52.1207 73.481 51.3048 73.7217 50.7213C74.0293 49.9746 74.5448 49.3319 75.2069 48.8696Z" fill="white"/>
<path d="M79.8375 47.2449C78.192 46.334 75.0185 48.5323 74.9824 48.5583C74.26 49.0619 73.6964 49.7612 73.3577 50.5741C73.2719 50.8293 73.2335 51.0979 73.2442 51.3669C73.2587 51.5569 73.2347 51.7477 73.1737 51.9282C73.1156 51.9922 73.0441 52.0427 72.9644 52.0762C71.5473 52.6245 70.1629 53.2535 68.8178 53.9601C68.5608 54.168 68.358 54.435 68.2266 54.7383C63.3157 56.4639 58.1216 57.2406 52.9208 57.0271C47.9369 56.9351 42.9346 55.7888 38.249 54.5581C37.5701 54.4238 36.9208 54.1685 36.3322 53.8044C35.7642 53.2658 35.162 52.7643 34.5295 52.3031C31.9141 50.8854 28.6455 54.1832 30.0862 58.5905C30.6299 60.3175 31.7746 61.7925 33.3127 62.7478C35.1773 63.7491 37.1952 64.4336 39.2841 64.7735C42.3536 65.4994 45.4912 65.8983 48.6446 65.9635C57.499 66.853 63.1638 65.1101 71.4171 61.3822C71.6275 61.467 71.8527 61.5093 72.0795 61.5064C72.3887 61.4726 72.6832 61.3563 72.9321 61.1698C74.5734 60.2335 76.0806 59.0799 77.413 57.7401C78.1034 57.045 78.648 56.2189 79.0147 55.3104C79.3814 54.4019 79.5629 53.4292 79.5484 52.4496C79.4438 51.8654 79.3902 51.2733 79.3882 50.6799C79.3941 50.4312 79.4784 50.1908 79.629 49.9928C79.7797 49.7948 79.9889 49.6494 80.227 49.5773C80.2805 49.5867 80.3354 49.5847 80.388 49.5713C80.4407 49.5579 80.4899 49.5334 80.5324 49.4996C80.5749 49.4657 80.6097 49.4232 80.6345 49.3749C80.6593 49.3266 80.6735 49.2735 80.6763 49.2193C80.7466 48.8441 80.7044 48.4566 80.5552 48.1053C80.406 47.7541 80.1563 47.4547 79.8375 47.2449ZM48.6975 65.1968C45.5822 65.1315 42.4825 64.7378 39.4498 64.0221C37.4462 63.6968 35.5096 63.0454 33.7168 62.0937C32.5686 61.3933 31.661 60.3597 31.1147 59.1307C30.5685 57.9016 30.4095 56.5353 30.659 55.2137C31.0424 53.6273 32.6219 52.1467 34.1209 52.9487C34.7213 53.3931 35.2934 53.8745 35.8338 54.3902C36.5144 54.8426 37.278 55.1553 38.0803 55.3103C42.7889 56.5478 47.8449 57.7056 52.91 57.7992C58.0467 57.9977 63.1766 57.2617 68.0503 55.627C67.9698 56.6534 68.1614 57.6829 68.6056 58.6117C69.0498 59.5406 69.731 60.3359 70.5805 60.9176C62.4768 64.5404 57.0344 66.031 48.6975 65.1968ZM78.6199 50.6508C78.6173 51.2769 78.6725 51.9019 78.7847 52.5178C78.7892 53.3853 78.6221 54.2451 78.2932 55.0477C77.9642 55.8504 77.4798 56.5801 76.8679 57.195C75.5696 58.4972 74.1022 59.619 72.5051 60.5303C72.3709 60.636 72.213 60.7073 72.045 60.7381C71.9045 60.7369 71.7662 60.7022 71.6417 60.6369C70.7028 60.1727 69.9297 59.4305 69.4276 58.5113C68.9255 57.5921 68.7187 56.5406 68.8354 55.4997C68.841 55.3241 68.8831 55.1517 68.959 54.9933C69.035 54.8349 69.143 54.694 69.2763 54.5796C72.6216 52.8437 73.2465 52.9955 73.7648 52.4212C74.1482 51.9305 73.9374 51.1998 74.0715 50.8639C74.2878 50.3439 74.6176 49.8789 75.0369 49.503C75.9217 48.7224 78.4826 47.3699 79.471 47.9166C79.6224 48.024 79.7429 48.1692 79.8205 48.3378C79.8982 48.5064 79.9302 48.6924 79.9134 48.8773C79.5398 49.0012 79.2143 49.2387 78.9824 49.5567C78.7504 49.8747 78.6237 50.2572 78.6199 50.6508Z" fill="#4B1010"/>
</svg>
