<svg width="156" height="156" viewBox="0 0 156 156" fill="none" xmlns="http://www.w3.org/2000/svg">
<path d="M101.345 94.6113C99.9662 92.2818 98.7603 89.8545 97.7366 87.3488C96.3987 84.1811 94.2651 81.4127 91.5426 79.3121L88.4456 81.8981C87.501 80.1715 82.9097 77.5004 82.0735 77.9804C81.2373 78.4604 79.4255 82.6801 79.4255 82.6801L78.1171 82.0607C77.853 82.4491 77.5165 82.783 77.126 83.044C76.5995 83.3537 76.4757 82.9743 76.4757 82.9743C76.3941 83.3042 76.2636 83.6199 76.0885 83.9112C75.6665 84.2179 75.2121 84.4776 74.7336 84.6854C74.7932 85.315 74.775 85.9495 74.6794 86.5746C74.5168 86.954 73.5645 87.3488 73.5645 87.3488C73.5645 87.3488 71.5437 87.194 71.5127 87.1785L70.3126 86.8301L69.7164 86.3268L67.4401 92.6757C66.2091 96.1134 64.5677 98.8 64.9006 102.625C65.0787 104.731 66.4491 105.149 68.346 105.815C70.2429 106.481 71.8998 107.092 73.7116 107.626C75.553 107.983 77.4195 108.195 79.2939 108.261V106.109L81.6167 106.961L83.5523 108.029L83.2504 108.47L92.3168 109.105V108.47L94.5312 109.345C95.9713 109.523 95.1196 109.345 98.4025 110.329C98.7745 109.543 99.0551 108.716 99.2386 107.866L109.304 113.565L112.308 106.062L101.345 94.6113ZM84.3111 97.9019C82.6792 97.2353 80.9517 96.8329 79.1933 96.7095L82.5767 92.5905L88.523 99.6594C88.523 99.6594 86.8351 98.9394 84.3111 97.9019Z" fill="#81F8F8"/>
<path d="M76.5609 82.8427C76.5609 82.8427 74.0911 80.2567 73.642 80.2876C73.1929 80.3186 69.9953 82.0761 69.5307 82.8427C69.0662 83.6092 68.5861 84.4918 68.8416 84.9796C69.0972 85.4674 69.8404 86.6907 70.1966 86.7604C70.5527 86.8301 71.598 87.1243 71.598 87.1243L73.5491 87.2791C73.5491 87.2791 74.6408 86.7526 74.7492 86.2571C74.8239 85.7108 74.8498 85.1589 74.8266 84.6079C75.2897 84.3922 75.7284 84.1274 76.1351 83.8182C76.314 83.5104 76.4568 83.1831 76.5609 82.8427Z" fill="#FFD997"/>
<path d="M55.6559 52.6548C55.6559 52.6548 57.1657 51.1063 56.3837 50.634C55.8027 50.3324 55.1358 50.2395 54.4945 50.3707C54.4945 50.3707 55.501 48.6442 55.2146 48.2416C54.9281 47.8389 53.8596 47.6841 53.3641 47.5525C52.5835 47.2209 51.8257 46.8381 51.0956 46.4066C50.2826 46.2259 49.4891 45.9666 48.7263 45.6323C48.2108 46.1745 47.8872 46.8708 47.805 47.6144C47.805 48.4661 47.9985 49.2945 47.5727 49.8133C47.1469 50.332 46.2565 50.8043 46.3804 51.2534C46.5042 51.7025 47.263 52.0276 47.263 52.0276C47.263 52.0276 47.6192 57.0525 48.7263 57.2461C49.4772 57.3594 50.239 57.3802 50.9949 57.308L53.1009 64.1524C53.1009 64.1524 55.292 64.1524 56.4998 61.3883C57.2267 59.7287 57.7694 57.9943 58.118 56.2163C57.1749 55.1186 56.3496 53.9249 55.6559 52.6548ZM48.8889 48.9151C49.2141 48.7216 50.4374 50.0146 50.4374 50.0146C48.316 50.7424 48.5638 49.1165 48.8889 48.9151Z" fill="#FFD997"/>
<path d="M25.0656 32.1215C25.9659 31.7584 26.8228 31.2962 27.6207 30.7434L28.8982 29.6207C28.8982 29.6207 28.302 26.9728 28.0078 25.9198C27.5665 24.3248 27.6904 24.681 25.3753 23.9377C25.3753 23.9377 24.6011 22.6834 24.1443 22.7918C23.7659 22.9507 23.4447 23.2207 23.2229 23.566C23.0571 23.4409 22.859 23.3657 22.6519 23.3493C22.4448 23.3328 22.2373 23.3758 22.0538 23.4731C21.4731 23.7983 21.4189 24.1003 21.6125 24.3635C21.806 24.6268 21.0163 24.8745 20.9389 25.2229C20.8615 25.5714 21.326 26.214 21.326 26.214C21.1764 26.3459 21.072 26.5216 21.0275 26.716C20.9831 26.9105 21.0008 27.1141 21.0782 27.2979C21.3415 27.8631 24.3766 31.7267 25.0656 32.1215Z" fill="#FFD997"/>
<path d="M55.656 52.6546C56.0286 53.2753 56.4424 53.8702 56.8948 54.4354C57.0187 54.4354 58.1181 52.1127 58.722 51.5088C59.3259 50.9048 60.2705 50.3474 60.046 49.0234C59.5943 46.9988 58.7784 45.0732 57.6381 43.3404C56.5851 42.0087 54.7656 39.5079 53.0235 39.5311C52.5138 39.5021 52.0035 39.5779 51.5241 39.7537C51.0447 39.9294 50.6064 40.2015 50.2362 40.5531C49.9082 40.858 49.6311 41.2135 49.4155 41.6061C49.3774 41.1215 49.4379 40.6342 49.5936 40.1737C49.8336 39.7246 50.4375 38.7026 50.4375 38.7026C49.8843 38.8143 49.3734 39.0788 48.9628 39.4661C48.5523 39.8533 48.2585 40.348 48.1148 40.8938C47.6657 42.7675 47.5418 44.6411 48.7806 45.5393C49.4699 46.0239 50.2674 46.3323 51.1034 46.4374C51.724 46.9146 52.3967 47.3198 53.1087 47.6452C53.6894 47.8001 54.0146 47.5988 54.6572 48.0401C55.2998 48.4814 55.1682 48.6208 55.0056 49.0544C54.7641 49.557 54.49 50.0432 54.1849 50.51C54.1849 50.51 56.1747 50.0532 56.6083 50.7268C57.0419 51.4004 55.9347 52.6159 55.656 52.6546Z" fill="#81F8F8"/>
<path d="M89.0801 124.73C89.0801 124.73 84.241 131.822 86.316 136.823C88.391 141.825 93.7411 144.434 106.934 139.316C120.128 134.199 136.162 119.782 139.855 107.154C142.039 99.6826 139.732 95.881 136.433 94.5028C134.327 93.6279 131.71 93.9299 129.945 94.2938C126.467 94.9857 123.047 95.946 119.717 97.1662C117.518 97.9792 118.099 98.7844 118.099 98.7844L119.144 98.8928L119.036 100.248C119.036 100.248 126.778 96.2294 133.592 99.7987C140.405 103.368 129.899 119.155 122.342 124.73C114.785 130.304 109.644 134.144 101.453 135.794C93.261 137.443 89.0646 135.414 89.9085 130.668C90.2824 128.149 91.0671 125.709 92.2313 123.444L89.0801 124.73Z" fill="#FFD997"/>
<path d="M96.7608 123.862C96.7608 123.862 94.167 131.179 99.7029 131.512C105.239 131.845 116.411 125.589 123.829 118.141C131.246 110.692 132.64 104.793 128.327 103.244C124.014 101.696 118.177 104.847 118.177 104.847C118.177 104.847 118.486 105.373 118.68 105.459C118.873 105.544 120.948 106.535 120.948 106.535L120.561 107.402C120.561 107.402 123.991 105.699 125.207 107.913C126.422 110.127 123.589 116.089 117.782 120.518C111.975 124.946 107.918 126.828 104.101 126.565C100.284 126.301 101.972 122.299 101.972 122.299L96.7608 123.862Z" fill="#FFD997"/>
<path d="M110.744 116.415L115.715 119.024C115.715 119.024 110.341 122.57 107.314 122.268C104.287 121.966 107.879 117.413 107.879 117.413L110.744 116.415Z" fill="#FFD997"/>
<path d="M116.853 111.63L116.233 118.598C116.233 118.598 118.804 116.43 119.563 114.556C120.321 112.683 119.795 110.762 116.853 111.63Z" fill="#FFD997"/>
<path d="M54.665 33.5384C55.0986 33.8481 55.8187 33.4377 56.4768 32.9577C56.9181 32.6325 57.3285 32.1447 57.7621 31.7731C64.9582 40.8535 72.7296 49.4628 81.0283 57.5479C81.0756 57.592 81.1378 57.6165 81.2025 57.6165C81.2672 57.6165 81.3294 57.592 81.3767 57.5479C81.3992 57.5256 81.417 57.4991 81.4292 57.4698C81.4414 57.4406 81.4476 57.4092 81.4476 57.3776C81.4476 57.3459 81.4414 57.3145 81.4292 57.2853C81.417 57.2561 81.3992 57.2295 81.3767 57.2072C73.033 49.076 65.2226 40.4147 57.9943 31.2776C57.972 31.2551 57.9455 31.2372 57.9162 31.2251C57.887 31.2129 57.8557 31.2066 57.824 31.2066C57.7923 31.2066 57.761 31.2129 57.7317 31.2251C57.7025 31.2372 57.676 31.2551 57.6537 31.2776C57.1039 31.7034 56.6704 32.2608 56.1826 32.617C55.3619 33.2132 55.0677 33.2132 54.9825 33.1977C54.5412 32.075 53.1011 18.1772 53.2636 16.6829C54.1695 16.6055 58.6834 17.6352 59.597 17.8211C68.3074 19.7257 70.6456 20.4458 71.0172 20.709C70.963 21.0807 69.1435 22.2575 68.5706 22.815C68.5275 22.8597 68.5035 22.9194 68.5035 22.9814C68.5035 23.0435 68.5275 23.1032 68.5706 23.1479C71.6676 26.965 71.0327 26.0049 74.6175 30.2943C82.5458 39.7633 75.8331 30.9524 93.8886 51.8572C98.9135 57.664 100.083 59.0964 108.785 68.341C113.044 72.8858 112.656 72.5839 112.85 72.5839C112.896 72.5808 112.941 72.565 112.978 72.5381C113.016 72.5112 113.045 72.4743 113.063 72.4316C113.08 72.3889 113.086 72.3421 113.078 72.2965C113.071 72.2509 113.051 72.2083 113.02 72.1735C108.282 67.0712 103.404 61.9766 98.7819 56.7195C95.0732 52.5308 84.2027 39.6859 80.9741 36.5889C77.7455 33.4919 75.0279 29.8684 72.078 26.5236C71.0327 25.3468 70.0262 24.1312 69.0893 22.9853C70.1501 22.1104 71.7295 21.2123 71.505 20.4922C71.2805 19.7722 65.6594 18.6185 59.0628 17.1707C53.3178 15.9009 53.0701 16.1332 52.9152 16.2803C52.7604 16.4274 52.7217 16.4661 52.9152 18.9128C53.1088 21.3594 54.1231 33.159 54.665 33.5384Z" fill="black"/>
<path d="M48.0526 54.3039C48.1891 54.4335 48.3513 54.5329 48.5287 54.5956C48.7062 54.6583 48.8948 54.6829 49.0824 54.6678C49.8509 54.6046 50.5925 54.3548 51.2426 53.94C51.32 54.0019 51.4284 54.3194 51.6839 54.1336C51.7354 54.095 51.7699 54.0378 51.78 53.9742C51.7901 53.9106 51.7751 53.8456 51.7381 53.7929L51.2968 53.189C51.2549 53.1486 51.2001 53.1243 51.1421 53.1202C51.084 53.1162 51.0264 53.1327 50.9794 53.1668C50.9323 53.201 50.8987 53.2506 50.8845 53.3071C50.8704 53.3635 50.8765 53.4231 50.9019 53.4755L50.9561 53.5451C49.0747 54.6368 48.4398 54.0174 48.4243 53.9942C48.404 53.9698 48.379 53.9496 48.3509 53.9349C48.3228 53.9201 48.292 53.911 48.2604 53.9082C48.2287 53.9053 48.1968 53.9087 48.1665 53.9181C48.1362 53.9276 48.108 53.9429 48.0836 53.9632C48.0592 53.9836 48.0391 54.0085 48.0243 54.0366C48.0095 54.0648 48.0005 54.0955 47.9976 54.1272C47.9947 54.1588 47.9981 54.1907 48.0075 54.221C48.017 54.2513 48.0323 54.2795 48.0526 54.3039Z" fill="black"/>
<path d="M50.3058 54.8536C49.4619 55.4266 49.1057 55.0239 49.067 54.9775C49.0262 54.9288 48.9687 54.897 48.9057 54.8884C48.8427 54.8798 48.7787 54.895 48.7264 54.931C48.6766 54.9694 48.6438 55.0258 48.6351 55.088C48.6264 55.1503 48.6425 55.2134 48.6799 55.264C48.7834 55.3836 48.912 55.4788 49.0565 55.5431C49.2011 55.6073 49.358 55.6389 49.5161 55.6356C49.8974 55.6189 50.2647 55.4866 50.5691 55.2562C50.5964 55.2397 50.62 55.2178 50.6385 55.1918C50.657 55.1657 50.6699 55.1362 50.6764 55.1049C50.683 55.0737 50.683 55.0414 50.6765 55.0102C50.67 54.9789 50.6572 54.9494 50.6388 54.9233C50.6215 54.8968 50.5992 54.874 50.5731 54.8561C50.5471 54.8383 50.5177 54.8258 50.4868 54.8193C50.4558 54.8128 50.4239 54.8125 50.3929 54.8184C50.3618 54.8243 50.3322 54.8363 50.3058 54.8536Z" fill="black"/>
<path d="M54.4325 51.6249C54.4826 51.6238 54.5312 51.6076 54.5719 51.5784C55.1371 51.1913 55.4468 51.2997 55.5397 51.4236C55.5757 51.4758 55.631 51.5117 55.6934 51.5233C55.7558 51.5349 55.8202 51.5213 55.8726 51.4855C55.9 51.469 55.9236 51.4471 55.9421 51.4211C55.9605 51.395 55.9734 51.3655 55.98 51.3342C55.9865 51.303 55.9865 51.2707 55.9801 51.2395C55.9736 51.2082 55.9607 51.1787 55.9423 51.1526C55.8221 50.9869 55.6412 50.8755 55.4391 50.8429C55.235 50.8209 55.0286 50.8397 54.8319 50.8982C54.6352 50.9567 54.4521 51.0537 54.2932 51.1836C54.249 51.2121 54.2155 51.2544 54.1977 51.3038C54.18 51.3533 54.1789 51.4072 54.1947 51.4573C54.2106 51.5074 54.2424 51.551 54.2853 51.5812C54.3283 51.6115 54.38 51.6268 54.4325 51.6249Z" fill="black"/>
<path d="M51.475 49.0235C51.4896 49.0241 51.5041 49.02 51.5163 49.0119C51.5285 49.0038 51.5378 48.9921 51.543 48.9784C51.5481 48.9646 51.5488 48.9497 51.5449 48.9355C51.5411 48.9214 51.5329 48.9088 51.5215 48.8996C50.7834 48.4692 50.1301 47.9077 49.5936 47.2427C48.9432 46.2982 48.5019 48.319 51.475 49.0235Z" fill="black"/>
<path d="M48.9202 49.0854C48.9842 49.0742 49.0497 49.0742 49.1138 49.0854C48.7886 49.4029 48.8892 50.1384 49.2531 50.1617C49.617 50.1849 49.6944 49.7823 49.6712 49.4648C49.8627 49.641 50.0364 49.8355 50.19 50.0455C50.2279 50.0969 50.2848 50.131 50.3479 50.1404C50.4111 50.1499 50.4754 50.1338 50.5268 50.0958C50.5781 50.0579 50.6122 50.001 50.6217 49.9379C50.6311 49.8747 50.6151 49.8104 50.5771 49.759C49.4931 48.2725 48.5408 48.4506 48.6337 48.8841C48.6383 48.9166 48.6495 48.9478 48.6667 48.9758C48.6838 49.0038 48.7065 49.028 48.7334 49.0468C48.7602 49.0657 48.7906 49.0789 48.8228 49.0855C48.8549 49.0921 48.8881 49.0921 48.9202 49.0854Z" fill="black"/>
<path d="M63.5686 112.342C63.406 112.295 63.2279 112.582 63.3983 112.752C64.7222 114.076 67.858 117.165 68.307 117.297C68.8877 117.467 75.4456 113.581 75.5695 113.131C75.5772 113.093 75.577 113.053 75.569 113.014C75.5611 112.976 75.5454 112.939 75.523 112.907C75.4766 112.799 75.2211 112.504 63.5686 112.342ZM68.4232 116.817C68.0438 116.592 66.0462 114.695 64.1648 112.829C67.9276 112.891 73.2855 113.023 74.8185 113.193C73.5642 114.068 69.1045 116.693 68.4232 116.817Z" fill="black"/>
<path d="M67.1611 122.105C66.6579 122.337 65.9688 125.527 65.9301 126.015C65.8913 126.503 66.0694 126.511 66.3714 126.425C66.9985 126.24 71.7911 124.041 71.9924 123.475C72.022 123.41 72.029 123.336 72.0122 123.266C71.9953 123.196 71.9557 123.133 71.8995 123.088C71.3808 122.585 67.6102 121.896 67.1611 122.105ZM66.3869 125.899C66.5847 124.745 66.9066 123.616 67.3469 122.531C68.7443 122.595 70.1257 122.856 71.4505 123.305C69.8405 124.29 68.1611 125.157 66.4256 125.899H66.3869Z" fill="black"/>
<path d="M108.275 73.606C106.915 73.7011 105.58 74.0122 104.318 74.5273C103.916 74.8448 103.931 77.7095 104.132 78.2824C104.217 78.5302 104.357 78.5844 104.465 78.5844C104.999 78.5844 107.949 74.9222 108.336 74.3028C108.499 74.055 108.569 73.9002 108.499 73.7531C108.475 73.7136 108.442 73.68 108.403 73.6546C108.364 73.6292 108.32 73.6126 108.275 73.606ZM104.55 78.0269C104.418 76.9972 104.439 75.9536 104.612 74.9299C105.688 74.5324 106.801 74.2445 107.934 74.0705C106.909 75.4744 105.778 76.7971 104.55 78.0269Z" fill="black"/>
<path d="M112.726 78.0347C112.881 78.6773 116.985 83.9577 118.487 84.8404C118.569 84.9009 118.663 84.9444 118.763 84.9683C118.863 84.9922 118.966 84.9961 119.067 84.9797C119.331 84.9101 119.942 84.7397 118.889 76.9043C118.115 71.26 117.914 71.26 117.705 71.26C117.496 71.26 117.434 71.26 115.738 73.4202C114.298 75.2551 112.641 77.5469 112.726 78.0347ZM117.596 71.9181C118.038 73.7918 119.424 83.5319 118.905 84.5075C117.999 84.3758 113.415 78.6309 113.199 77.9495C113.245 77.3998 116.59 72.9788 117.596 71.9181Z" fill="black"/>
<path d="M150.726 101.107L146.553 95.2308C143.595 88.7581 134.165 88.9672 127.197 91.4215C127.787 90.0008 128.263 88.5355 128.621 87.0393C128.621 86.9541 128.621 86.7141 128.459 86.6134C127.971 86.3889 122.373 87.5967 121.56 88.1077C121.499 88.1391 121.448 88.1854 121.41 88.2423C121.372 88.2991 121.349 88.3648 121.343 88.4329C121.343 88.8742 123.217 90.957 124.526 92.25C121.551 93.256 118.648 94.4641 115.838 95.8657C117.008 86.4508 116.876 86.296 116.799 86.2108C116.775 86.1842 116.747 86.1629 116.715 86.1482C116.683 86.1335 116.648 86.1258 116.613 86.1257C116.535 86.1257 109.706 89.4007 108.46 90.415C108.421 90.4138 108.383 90.4216 108.348 90.4377C108.313 90.4538 108.283 90.4779 108.259 90.5079C107.972 90.8641 107.337 91.7467 107.624 92.219C107.755 92.4358 109.621 95.6722 111.263 98.5059L109.784 99.5589C109.613 99.6905 109.613 99.8222 109.683 99.9305C113.098 103.585 112.858 103.376 113.005 103.376C113.152 103.376 113.485 103.306 118.061 102.602C117.642 104.328 117.612 104.336 117.673 104.452C118.215 105.428 118.208 105.443 118.301 105.49L120.546 106.574L117.224 110.445C117.488 107.65 117.697 105.118 117.627 104.855C117.557 104.592 117.426 104.452 116.543 104.081C115.66 103.709 113.702 103.136 113.183 103.446C112.779 104.002 112.461 104.615 112.238 105.265L101.569 94.7431C100.261 91.64 98.7748 88.6154 97.1171 85.6843C94.6008 81.2014 92.5335 79.591 91.7593 79.1032L92.2238 78.6928C93.0675 79.1982 93.8019 79.8668 94.384 80.6594C94.4226 80.711 94.4797 80.7454 94.5433 80.7556C94.6069 80.7657 94.6719 80.7506 94.7246 80.7136C96.188 79.6374 99.7495 76.7804 98.4798 75.4797C96.0493 72.1497 92.7416 69.5603 88.9255 68.0004C89.9011 64.3305 86.7653 60.916 83.3431 59.2978C78.59 57.2025 73.6523 55.5539 68.5937 54.3736C68.4462 54.0183 68.2508 53.6849 68.013 53.3826C66.8516 51.6947 65.4347 53.2742 64.343 50.9359C63.7314 49.6274 61.246 50.0688 59.9608 50.4249C60.6343 49.4184 60.3401 48.3654 59.682 47.1421C58.9078 45.7252 56.7786 39.4848 52.7138 39.1828C52.7046 39.135 52.6801 39.0916 52.6441 39.0589C52.5821 38.997 46.1868 32.7333 40.3567 26.3689C34.9369 20.4614 30.1676 14.5306 29.9663 14.1203C29.7649 13.7099 31.3754 12.897 32.1342 12.4711C33.4504 11.6969 34.1317 11.3175 34.0078 10.8529C33.9813 10.7879 33.9403 10.7297 33.888 10.6827C33.8357 10.6358 33.7734 10.6013 33.7059 10.582C31.4606 9.57543 5.21344 4.20213 4.44693 4.58925C3.68042 4.97638 6.31288 26.6399 7.11036 31.1461C7.58265 33.7785 7.76847 33.8018 7.97752 33.8327C8.91436 33.9643 10.85 31.4325 11.5933 30.7357C12.5146 31.4325 19.2351 37.8821 36.8803 58.8797C55.8495 81.4414 66.8593 92.5365 66.9987 92.6681C66.1625 94.8747 64.8927 97.36 64.5056 99.8299C59.4885 93.1094 53.8442 88.4639 46.0552 78.3986C46.783 77.9108 48.1302 77.3534 48.076 76.8501C48.076 76.6566 47.9134 76.5637 47.054 76.3236C45.5055 75.9055 34.1085 73.3815 33.5356 74.1402C32.9626 74.899 33.853 85.1733 34.2092 87.1864C34.3021 87.7129 34.3717 87.8367 34.4801 87.9064C35.0841 88.2936 36.2996 86.6444 37.0197 86.0869C38.0727 87.109 46.0397 96.4387 51.1343 103.02C56.554 109.988 66.9677 120.193 67.0761 120.301C67.0984 120.324 67.125 120.341 67.1542 120.354C67.1834 120.366 67.2148 120.372 67.2465 120.372C67.2781 120.372 67.3095 120.366 67.3387 120.354C67.3679 120.341 67.3945 120.324 67.4168 120.301C67.4393 120.279 67.4571 120.252 67.4693 120.223C67.4814 120.194 67.4877 120.162 67.4877 120.131C67.4877 120.099 67.4814 120.068 67.4693 120.039C67.4571 120.009 67.4393 119.983 67.4168 119.96C67.3161 119.86 56.9025 109.663 51.5292 102.726C48.1534 98.3743 44.0267 93.4346 42.4085 91.5299C37.3062 85.4908 37.159 85.5295 36.9887 85.5759C36.5784 85.6921 35.2002 87.3335 34.7821 87.4961C34.3717 86.3347 33.6594 75.41 33.9227 74.4732C34.9369 74.2409 45.8461 76.2617 47.5185 76.9663C47.1744 77.2196 46.8121 77.4473 46.4346 77.6476C45.7532 78.0425 45.5519 78.1586 45.5132 78.3522C45.4745 78.5457 45.5984 78.6077 45.6836 78.7083C47.1237 80.582 51.0259 85.5062 56.0198 90.8021C59.0456 93.9124 61.8671 97.215 64.4669 100.689C64.4026 101.388 64.4444 102.093 64.5908 102.78C65.1095 105.103 66.689 105.598 68.5085 106.156C69.2827 106.38 69.4298 106.434 70.8854 106.93C74.6096 108.246 75.0896 108.246 78.8912 108.478C78.913 109.716 79.0009 110.951 79.1544 112.179C79.1544 112.334 79.2241 112.489 79.379 112.543C79.5338 112.597 79.6732 112.504 79.8048 112.411C81.1829 111.305 82.4532 110.072 83.5986 108.726C90.5669 109.09 91.3412 109.276 92.1154 109.33C92.4019 110.669 93.5245 113.635 96.0409 120.657C96.2671 120.927 96.5273 121.167 96.8151 121.37C96.857 121.403 96.9086 121.422 96.9622 121.424C97.2579 121.365 97.5392 121.249 97.7907 121.083C98.9133 120.502 107.082 115.718 107.082 114.951C107.051 114.539 106.888 114.148 106.617 113.836C106.02 113.506 105.396 113.229 104.751 113.008L104.209 110.948L109.079 113.743L109.033 113.875C108.831 114.138 108.32 114.866 108.483 115.338C108.951 115.768 109.494 116.106 110.086 116.337L103.543 118.42C103.498 118.435 103.458 118.464 103.429 118.503C103.4 118.542 103.383 118.588 103.381 118.636L103.172 121.656L95.4834 123.979L94.1285 122.647C94.0947 122.616 94.0531 122.594 94.0082 122.585C93.9632 122.575 93.9165 122.578 93.873 122.593L93.3852 122.771L94.9879 119.248C95.0101 119.201 95.016 119.149 95.0048 119.098C94.9936 119.048 94.9658 119.002 94.9259 118.969C91.7283 116.066 91.8289 116.089 91.6509 116.174C91.5734 116.174 91.527 116.26 89.3281 117.901C88.0661 117.498 78.0937 114.51 77.6214 114.649C77.4356 114.703 77.4201 114.912 77.4124 114.982C77.7264 118.092 78.2594 121.176 79.0073 124.211C79.139 124.529 79.4951 125.28 79.9597 125.28C79.9984 125.28 82.685 124.165 85.4723 122.957C83.7458 125.713 77.0872 137.273 82.685 143.397C84.28 145.72 87.075 149.591 88.5306 151.054C89.0726 151.589 91.1708 152.154 94.4304 152.154C102.405 152.154 117.317 148.778 133.383 133.34C155.689 111.893 150.959 101.564 150.726 101.107ZM121.862 88.4639C123.908 87.7774 126.016 87.2925 128.157 87.016C127.772 88.6053 127.254 90.1594 126.608 91.6615C126.575 91.6974 126.556 91.7442 126.554 91.7932C126.406 92.1701 126.225 92.5328 126.012 92.8771C124.47 91.5639 123.078 90.0838 121.862 88.4639ZM89.3436 124.699L91.7205 123.855C90.8998 125.45 88.7706 130.049 89.8856 133.254C90.8224 135.941 93.7568 136.514 96.5441 136.514C104.511 136.514 118.572 131.249 129.69 117.158C137.208 107.642 136.658 102.911 134.846 100.62C132.02 97.0271 124.781 97.391 119.222 99.8454L119.47 98.8156C119.478 98.7802 119.478 98.7434 119.47 98.7079C119.462 98.6724 119.447 98.639 119.424 98.6102C119.402 98.5814 119.374 98.5578 119.342 98.5411C119.309 98.5244 119.274 98.5151 119.237 98.5137H118.246L118.161 98.0956C122.295 96.1264 126.714 94.82 131.254 94.2243C135.032 93.6746 137.905 94.7895 139.36 97.3755C141.637 101.409 140.413 109.764 132.547 119.302C120.84 133.502 106.222 140.796 96.8538 141.756C87.4854 142.716 82.2824 135.895 89.3591 124.73L89.3436 124.699ZM116.38 86.6754C116.295 88.2239 115.389 95.618 114.7 100.968C112.378 96.9574 109.141 91.437 108.777 90.686C109.583 90.144 115.126 87.2793 116.396 86.7063L116.38 86.6754ZM108.437 91.0344C108.847 91.8087 110.186 94.2321 114.545 101.665C114.058 102.145 114.205 102.037 113.949 102.168C112.92 100.38 108.251 92.2887 108.042 91.9403C107.995 91.8783 108.166 91.4912 108.452 91.0654L108.437 91.0344ZM111.534 98.8931C112.068 99.8299 112.571 100.689 112.958 101.363C112.881 101.425 112.958 101.402 112.803 101.44L110.318 99.7834L111.534 98.8931ZM118.618 105.087L118.525 104.932C119.849 104.336 126.477 101.556 129.55 104.158C129.88 104.458 130.136 104.83 130.299 105.245C130.461 105.66 130.526 106.106 130.487 106.55C130.371 110.7 124.944 117.715 117.279 123.584C111.51 128.028 101.166 133.045 97.5739 130.552C96.126 129.53 95.917 127.331 96.97 124.002L101.561 122.624C100.624 124.947 101.561 126.797 104.945 126.797C114.011 126.797 128.621 112.388 125.346 107.627C124.572 106.55 123.024 106.31 120.879 106.938L121.142 106.62C121.166 106.592 121.183 106.559 121.192 106.524C121.201 106.488 121.202 106.451 121.195 106.415C121.187 106.379 121.171 106.346 121.149 106.317C121.126 106.288 121.098 106.264 121.065 106.248L118.618 105.087ZM117.17 111.777C120.198 110.94 121.374 113.859 116.481 118.094C116.574 117.731 117.108 112.055 117.139 111.784L117.17 111.777ZM113.454 103.949C113.918 103.748 116.946 104.661 117.178 105.056C117.248 105.536 116.574 112.628 116.071 117.514L109.544 113.821C110.852 110.143 113.028 104.383 113.454 103.949ZM94.6472 80.2723C94.0811 79.5562 93.3978 78.941 92.6264 78.4528C93.6143 77.5745 94.7002 76.8133 95.8628 76.1843C97.1016 75.5804 97.992 75.6268 98.1855 75.9752C98.3791 76.3236 97.992 77.7483 94.6472 80.2413V80.2723ZM97.6513 75.2474C95.0421 75.1003 90.4895 79.6065 88.5074 81.6814C87.0313 79.6932 84.8769 78.3157 82.4528 77.8102C86.6647 71.6626 88.1667 70.3 88.7939 68.5192C92.2777 69.9448 95.3303 72.2529 97.6513 75.2165V75.2474ZM63.9172 51.2456C65.1018 53.7774 66.6813 52.3683 67.6336 53.7619C68.3149 54.753 68.0981 54.5362 68.1601 54.7375C68.0749 54.9853 66.9058 55.2872 65.1327 56.1621C63.7475 56.8455 62.5382 57.8386 61.5983 59.0644C60.6585 60.2902 60.0134 61.7159 59.713 63.231C59.5349 62.9601 59.442 62.7975 59.4343 62.7897C59.4033 62.7344 59.3517 62.6937 59.2908 62.6763C59.2299 62.6589 59.1646 62.6662 59.1091 62.6968C59.0809 62.7114 59.0561 62.7315 59.036 62.756C59.0159 62.7805 59.0011 62.8089 58.9924 62.8393C58.9837 62.8698 58.9813 62.9017 58.9854 62.9331C58.9895 62.9645 59 62.9948 59.0162 63.022C59.1851 63.3233 59.3739 63.613 59.5814 63.8892C59.4521 64.6043 59.395 65.3305 59.411 66.0571C59.4213 66.1143 59.4513 66.1661 59.4959 66.2034C59.5405 66.2407 59.5968 66.2612 59.6549 66.2612C59.7131 66.2612 59.7694 66.2407 59.8139 66.2034C59.8585 66.1661 59.8886 66.1143 59.8988 66.0571C59.8797 65.4979 59.9108 64.9382 59.9917 64.3847C61.7732 66.6586 64.2031 68.338 66.96 69.2005C67.0586 69.4355 67.2156 69.6414 67.4161 69.7986C67.6167 69.9558 67.8541 70.0591 68.1059 70.0986C68.1572 70.1084 68.2103 70.1017 68.2576 70.0794C68.3049 70.0572 68.3439 70.0205 68.3691 69.9748L68.7098 69.3321C68.7259 69.2995 68.7347 69.2637 68.7355 69.2273C68.7362 69.191 68.729 69.1548 68.7142 69.1216C68.6994 69.0883 68.6775 69.0587 68.6499 69.0349C68.6224 69.0111 68.59 68.9936 68.5549 68.9837C68.1227 68.8532 67.6746 68.7829 67.2232 68.7747C64.3697 67.9064 61.8754 66.1348 60.1156 63.7266C60.3562 62.1998 60.9581 60.7525 61.8712 59.5054C62.7843 58.2583 63.9822 57.2475 65.365 56.557C67.4323 55.535 68.3614 55.4266 68.6014 54.9311C73.5936 56.1074 78.4663 57.7428 83.1573 59.8166C85.2478 60.8154 87.7409 62.7897 88.4455 65.3525C88.6527 66.0918 88.6908 66.8683 88.5567 67.6242C88.4227 68.3802 88.12 69.0963 87.6712 69.7193C86.3705 71.6704 79.9984 79.862 79.2241 82.3628C78.326 81.9602 75.3064 80.5046 73.967 78.4064C75.3142 76.7108 76.0961 74.7132 77.2111 72.4756C78.2021 70.5013 79.0538 68.7979 78.8835 67.1797C78.8763 67.1161 78.8441 67.0579 78.794 67.0179C78.7439 66.978 78.68 66.9596 78.6163 66.9668C78.5527 66.974 78.4945 67.0062 78.4546 67.0563C78.4146 67.1064 78.3962 67.1703 78.4034 67.2339C78.4151 67.4144 78.4151 67.5954 78.4034 67.7759C77.1646 67.7759 70.8312 67.7759 68.0981 65.1434C65.1715 62.3252 64.8153 58.9494 68.0981 56.4254C68.1473 56.3845 68.1787 56.3263 68.1859 56.2628C68.1931 56.1993 68.1756 56.1355 68.1368 56.0847C68.0985 56.0349 68.0421 56.0021 67.9799 55.9935C67.9176 55.9848 67.8544 56.0009 67.8039 56.0382C64.583 58.5081 64.3508 62.1858 67.8039 65.4919C70.1809 67.8146 75.1361 68.3256 78.3879 68.2637C78.0695 69.6638 77.5478 71.0098 76.8394 72.2588C76.0652 73.7376 75.6471 74.8138 75.1748 75.6887C65.1095 73.7221 60.0072 70.8884 59.1246 66.7771C58.2419 62.6658 59.3413 60.6373 60.5105 58.5391C61.4009 56.9906 62.8332 54.4201 61.6796 53.0574C60.9053 52.1747 59.3568 52.1283 58.5826 52.1747C58.8293 51.8188 59.1121 51.4893 59.4265 51.1914C60.495 50.7888 63.3984 50.092 63.9172 51.2069V51.2456ZM73.3398 85.754C73.31 85.8105 73.3039 85.8765 73.3228 85.9374C73.3417 85.9984 73.384 86.0494 73.4405 86.0792C73.4969 86.109 73.5629 86.1151 73.6239 86.0962C73.6849 86.0773 73.7359 86.035 73.7657 85.9785C73.9715 85.6219 74.2328 85.3005 74.5399 85.0262V85.6843C74.5529 85.8622 74.5529 86.0407 74.5399 86.2186C74.416 86.4741 73.6108 87.1786 73.4172 87.1012C73.0956 86.3643 72.8968 85.5796 72.8288 84.7785C72.8196 84.7148 72.7854 84.6574 72.7339 84.6189C72.6823 84.5805 72.6176 84.564 72.5539 84.5733C72.4903 84.5825 72.4329 84.6167 72.3944 84.6682C72.356 84.7198 72.3395 84.7845 72.3488 84.8481C72.4429 85.5794 72.6062 86.3001 72.8365 87.0006C72.7164 87.0238 72.5928 87.0238 72.4727 87.0006C71.9441 86.3484 71.4896 85.6395 71.1177 84.8868C71.103 84.8294 71.0675 84.7794 71.0181 84.7466C70.9687 84.7138 70.9089 84.7004 70.8502 84.7091C70.7915 84.7177 70.7381 84.7478 70.7003 84.7935C70.6625 84.8392 70.6429 84.8973 70.6454 84.9565C70.9389 85.6173 71.2967 86.2475 71.7139 86.838C71.5586 86.8746 71.3969 86.8746 71.2416 86.838C70.7619 86.253 70.3441 85.6199 69.995 84.9488C69.9583 84.9031 69.9064 84.8719 69.8488 84.8609C69.7912 84.8498 69.7315 84.8595 69.6804 84.8883C69.6293 84.9171 69.5901 84.9632 69.5697 85.0182C69.5493 85.0732 69.5492 85.1337 69.5692 85.1888C69.7783 85.5527 70.0725 86.0482 70.3435 86.4741C69.8944 86.3812 68.973 84.5926 68.9343 84.43C69.4314 83.2912 70.2917 82.3491 71.381 81.7511C72.1927 81.4097 72.9704 80.9923 73.7037 80.5046C74.6588 81.0988 75.5177 81.835 76.251 82.688C76.2175 82.7299 76.1985 82.7815 76.1968 82.8351C76.1875 83.115 76.0917 83.3852 75.9225 83.6084C75.7534 83.8316 75.5192 83.997 75.2522 84.0816C74.4262 84.3772 73.7429 84.9748 73.3398 85.754ZM25.615 32.3307C25.8163 31.9668 26.7067 31.719 27.8758 30.8209C28.5803 30.2789 28.8978 29.7834 29.1301 29.7989C29.3623 29.8144 29.734 30.3563 29.9043 30.5731C28.614 31.3624 27.4695 32.3682 26.5208 33.5462C25.9247 33.0275 25.5608 32.4933 25.615 32.3616V32.3307ZM21.8056 24.201C21.8056 24.023 22.4638 23.481 22.7502 23.5352C23.1952 23.8866 23.5685 24.3203 23.8497 24.8127C23.6019 25.1534 23.3309 25.5405 23.1219 25.7882C22.6492 25.2882 22.2096 24.758 21.8056 24.201ZM24.1284 24.3869C23.9557 24.1118 23.7587 23.8527 23.54 23.6126C23.7089 23.3563 23.9645 23.1694 24.26 23.0861C24.3762 23.0861 24.6549 23.3726 24.9181 23.7442C24.7943 23.7327 24.6699 23.7598 24.562 23.8217C24.4104 23.998 24.2708 24.1842 24.1439 24.3791L24.1284 24.3869ZM22.8277 26.1599C22.6496 26.6012 23.1761 27.0038 23.7335 27.0116C24.1594 27.5148 24.7555 28.3975 24.0974 28.3975C23.6329 28.3355 21.2637 25.8192 21.2172 25.3547C21.2559 25.1379 21.5037 24.9598 21.6895 24.8591C22.0534 25.3469 22.6651 25.9896 22.8277 26.1599ZM24.2833 26.9341C24.4501 26.8775 24.6088 26.7994 24.7555 26.7019C24.5388 27.8013 24.9956 27.84 24.2755 26.9264L24.2833 26.9341ZM21.3953 26.5238C22.0071 27.2737 22.6918 27.9609 23.4393 28.5756C23.4522 28.6512 23.4404 28.729 23.4055 28.7974C23.3706 28.8657 23.3146 28.921 23.2458 28.9549C22.9593 29.1562 22.4173 28.653 22.2702 28.4981C21.4108 27.298 20.923 27.0038 21.3953 26.5238ZM23.9039 28.8465C24.0084 28.8738 24.1174 28.8789 24.224 28.8615C24.3306 28.8441 24.4324 28.8047 24.5228 28.7456C24.6132 28.6865 24.6903 28.6092 24.749 28.5186C24.8078 28.428 24.8469 28.326 24.8639 28.2194C24.9912 28.4885 25.1779 28.7251 25.4099 28.9115C25.6419 29.098 25.9132 29.2293 26.2034 29.2956C26.2339 29.3043 26.2658 29.3068 26.2973 29.3031C26.3288 29.2994 26.3592 29.2896 26.3869 29.2741C26.4146 29.2587 26.439 29.2379 26.4586 29.213C26.4783 29.1882 26.4928 29.1596 26.5015 29.1291C26.5101 29.0986 26.5127 29.0667 26.509 29.0352C26.5053 29.0038 26.4954 28.9733 26.48 28.9456C26.4645 28.9179 26.4438 28.8936 26.4189 28.8739C26.394 28.8543 26.3655 28.8397 26.335 28.8311C26.1193 28.7825 25.9164 28.6882 25.7401 28.5547C25.5638 28.4211 25.4182 28.2514 25.313 28.0568C25.1103 27.4032 25.1543 26.698 25.4369 26.0747L25.5685 25.9044C25.5882 25.8791 25.6027 25.8502 25.611 25.8192C25.6194 25.7883 25.6215 25.756 25.6171 25.7243C25.6128 25.6925 25.6022 25.6619 25.5858 25.6344C25.5695 25.6068 25.5478 25.5828 25.5221 25.5637C25.4694 25.5267 25.4043 25.5117 25.3407 25.5218C25.2771 25.5319 25.22 25.5664 25.1814 25.6179C24.4071 26.6554 23.7413 26.5702 23.5477 26.5238C23.4389 26.4985 23.3411 26.4388 23.269 26.3535C23.7026 25.9508 24.5852 24.5727 24.8717 24.2243C25.6643 24.331 26.4431 24.5231 27.1944 24.7972C27.5351 24.9288 27.628 24.9675 27.9222 26.9264C28.0244 27.8341 28.2538 28.7228 28.6036 29.5666C28.3868 29.7369 28.0151 30.1473 27.5816 30.488C26.4744 31.3319 25.7621 31.51 25.3595 31.9281C24.4386 31.2277 23.6181 30.4045 22.9206 29.4814C23.1339 29.5157 23.3525 29.4699 23.534 29.3526C23.7156 29.2354 23.8473 29.0551 23.9039 28.8465ZM31.7935 30.3099C34.1774 33.7077 36.9384 36.8245 40.0238 39.6009C42.5866 42.0088 45.2809 44.6026 47.6037 47.1963C47.5203 47.5774 47.4942 47.9689 47.5263 48.3577C47.5263 49.5423 47.3946 49.7978 46.6591 50.394C46.3184 50.6727 45.9623 50.9592 46.1326 51.3463C46.3449 51.6611 46.6432 51.9084 46.992 52.0586C46.992 52.8329 46.992 55.9299 48.1689 57.1764C48.7573 57.7958 49.9961 57.7416 50.8323 57.5868C50.8323 57.6642 52.4195 62.031 52.7912 63.9201C52.7407 63.9106 52.6887 63.9126 52.6391 63.926C52.5895 63.9394 52.5435 63.9639 52.5047 63.9976C52.4817 64.0239 52.4643 64.0546 52.4537 64.0879C52.443 64.1212 52.4393 64.1563 52.4428 64.1911C52.4428 64.1911 52.5202 64.7641 52.6983 65.6544C50.4684 63.3936 41.8046 54.6291 38.5992 50.2314C35.0763 45.3845 26.9854 36.2948 26.1182 35.3657C26.3505 33.6701 29.9198 30.6118 31.7935 30.3099ZM48.7728 45.8801C49.4303 46.4063 50.2539 46.6809 51.0956 46.6543C51.1307 46.6661 51.1688 46.6661 51.204 46.6543C51.5661 47.0446 52.0061 47.3545 52.4956 47.5639C52.9851 47.7733 53.5131 47.8775 54.0455 47.8699C54.4004 48.0047 54.7342 48.1899 55.0365 48.4196C55.2068 48.6287 54.6029 49.6197 53.7745 50.4946C53.7395 50.5353 53.7191 50.5866 53.7167 50.6403C53.7143 50.694 53.73 50.7469 53.7612 50.7906C53.7924 50.8343 53.8374 50.8663 53.8889 50.8814C53.9405 50.8965 53.9956 50.8939 54.0455 50.874C54.479 50.6804 55.6946 50.2778 56.2211 50.8275C56.7476 51.3773 56.0663 52.136 55.5243 52.4767C55.2321 52.6614 54.8794 52.7253 54.541 52.6548C54.4784 52.6435 54.4138 52.6575 54.3616 52.6938C54.3093 52.7301 54.2736 52.7857 54.2623 52.8483C54.2543 52.8789 54.2529 52.9109 54.2582 52.9421C54.2634 52.9733 54.2752 53.003 54.2928 53.0293C54.3103 53.0556 54.3332 53.0779 54.36 53.0948C54.3867 53.1116 54.4168 53.1226 54.4481 53.1271C54.8292 53.2069 55.2259 53.1607 55.5785 52.9954C56.149 54.1919 56.881 55.3043 57.7541 56.3015C57.6457 57.1454 56.7321 63.3472 53.3022 63.9046C52.7599 61.7355 52.1061 59.5957 51.3433 57.4938C52.8918 57.1067 55.261 55.9453 54.9436 54.3968C54.937 54.3658 54.9243 54.3364 54.9064 54.3103C54.8884 54.2842 54.8655 54.2618 54.8388 54.2446C54.8122 54.2273 54.7825 54.2155 54.7513 54.2097C54.7201 54.204 54.6881 54.2044 54.6571 54.211C54.6261 54.2176 54.5967 54.2303 54.5706 54.2482C54.5445 54.2662 54.5221 54.2892 54.5049 54.3158C54.4876 54.3424 54.4758 54.3721 54.47 54.4033C54.4643 54.4345 54.4647 54.4665 54.4713 54.4975C54.8275 56.2163 49.6477 57.9816 48.5483 56.8202C47.6037 55.8369 47.5108 53.2122 47.503 52.2522C47.5646 52.2696 47.6307 52.2619 47.6866 52.2307C47.7425 52.1994 47.7837 52.1473 47.8011 52.0857C47.8186 52.0241 47.8109 51.9581 47.7796 51.9022C47.7484 51.8463 47.6963 51.8051 47.6347 51.7876C47.3947 51.6947 46.7133 51.3618 46.6049 51.1295C46.6049 50.9204 47.4488 50.5333 47.7895 49.8984C48.1302 49.2635 47.9986 48.4506 48.045 47.5757C48.1772 46.9692 48.4242 46.3936 48.7728 45.8801ZM58.1567 52.709C58.629 52.6548 60.4795 52.5077 61.2537 53.3903C61.8499 54.0871 61.5247 55.1324 61.1996 55.9841C60.1772 55.7807 59.1249 55.7807 58.1025 55.9841L57.0728 54.6523C57.3933 53.9701 57.7552 53.3082 58.1567 52.6703V52.709ZM53.0235 64.4002C57.0805 64.1989 58.1103 57.5713 58.2574 56.4021C59.171 56.2329 60.1079 56.2329 61.0215 56.4021C59.7207 59.3443 57.429 61.3109 58.6136 66.8545C59.5349 71.1594 64.7069 74.1015 74.8728 76.1456C73.634 78.3444 73.3243 78.2206 73.4637 78.5148C73.5643 78.6851 73.6727 78.8477 73.7889 79.0103C73.5489 79.2968 73.0921 79.8852 73.2624 80.2259C72.6012 80.654 71.9044 81.0244 71.1796 81.333C70.2269 81.8439 69.4257 82.5971 68.8569 83.5164C66.3561 81.1937 64.6759 81.7821 59.3878 77.4463C54.572 73.4821 53.2248 65.91 53.0235 64.4002ZM73.7037 79.9471C73.8109 79.735 73.9407 79.5352 74.0908 79.351C75.1334 80.4901 76.371 81.434 77.7453 82.1383C77.6629 82.3 77.5482 82.4432 77.4084 82.5591C77.2686 82.6749 77.1066 82.7609 76.9323 82.8119C76.3129 81.6427 74.7025 80.6052 73.7037 79.9471ZM59.2794 47.4286C60.0072 48.7835 60.2085 49.7513 59.0781 50.7656C58.1274 51.7441 57.3428 52.8713 56.7554 54.1026L55.9811 52.7554C56.6315 52.0896 57.1812 51.1295 56.5386 50.4327C56.2841 50.2212 55.9795 50.0788 55.654 50.0191C55.3286 49.9595 54.9933 49.9846 54.6804 50.092C55.2068 49.4261 55.7643 48.5435 55.3772 48.048C54.8275 47.3744 53.3486 47.5989 52.7292 45.3691C52.7118 45.3075 52.6706 45.2553 52.6147 45.2241C52.5588 45.1929 52.4928 45.1851 52.4312 45.2026C52.3696 45.2201 52.3174 45.2613 52.2862 45.3172C52.255 45.3731 52.2472 45.4391 52.2647 45.5007C52.4237 46.1566 52.7552 46.758 53.2248 47.2428C52.735 47.1301 52.2769 46.9088 51.8842 46.5952C51.4915 46.2816 51.1744 45.8837 50.9562 45.431C50.6532 44.9161 50.482 44.3343 50.4577 43.7374C50.4334 43.1404 50.5568 42.5467 50.8168 42.0088C50.8338 41.9819 50.8453 41.9519 50.8506 41.9206C50.8559 41.8892 50.855 41.8571 50.8478 41.8262C50.8406 41.7952 50.8273 41.7659 50.8087 41.7401C50.7901 41.7143 50.7665 41.6925 50.7394 41.6759C50.6846 41.6436 50.6194 41.6336 50.5575 41.648C50.4955 41.6624 50.4414 41.7001 50.4065 41.7533C50.0985 42.3674 49.9511 43.0495 49.9782 43.736C50.0053 44.4225 50.2059 45.0909 50.5613 45.6788C50.6398 45.8387 50.7277 45.9938 50.8246 46.1433C49.5084 46.0427 48.0683 45.2916 48.0528 42.4888C48.0336 41.8368 48.1911 41.1918 48.5087 40.622C48.8263 40.0523 49.2921 39.579 49.8568 39.2525C49.5391 39.6488 49.3064 40.1064 49.1732 40.5965C49.04 41.0867 49.0091 41.5991 49.0825 42.1017C49.0959 42.1531 49.126 42.1987 49.168 42.2312C49.21 42.2636 49.2617 42.2813 49.3148 42.2813C49.3679 42.2813 49.4196 42.2636 49.4616 42.2312C49.5036 42.1987 49.5337 42.1531 49.5471 42.1017C49.5935 41.9701 50.7084 38.9505 53.488 39.8409C56.8173 40.9558 58.5516 46.0969 59.2794 47.4286ZM11.601 30.3176C11.3997 30.3176 11.1829 30.5499 10.4087 31.3861C9.76604 32.0752 8.60466 33.3217 8.08591 33.4069C7.34263 31.7964 4.40048 7.30687 4.74889 5.09251C6.97099 5.09251 31.569 10.2568 33.5123 11.0775C33.0165 11.4771 32.4791 11.8223 31.9096 12.1072C30.5082 12.8815 29.1843 13.6557 29.5404 14.3913C29.8037 14.9332 34.8208 21.0885 40.016 26.7793C45.2113 32.47 50.9562 38.1376 52.1098 39.2602C51.5738 39.3553 51.0653 39.5677 50.6209 39.8822C50.1765 40.1968 49.8072 40.6057 49.5393 41.0797C49.7693 40.2062 50.2199 39.4063 50.8478 38.757C50.8835 38.7187 50.9057 38.6698 50.911 38.6178C50.9164 38.5657 50.9045 38.5133 50.8773 38.4686C50.8502 38.4239 50.8091 38.3893 50.7605 38.3701C50.7118 38.3508 50.6582 38.348 50.6078 38.3621C49.7311 38.6425 48.9669 39.1955 48.4265 39.9406C47.8862 40.6857 47.5979 41.5839 47.6037 42.5043C47.5397 43.5636 47.8402 44.6128 48.4554 45.4775C48.2072 45.8502 47.9922 46.244 47.8127 46.6543C47.2321 45.9962 45.1803 43.7509 40.3567 39.2447C34.5498 33.825 32.1419 29.9537 32.1187 29.9537C32.0983 29.9184 32.0689 29.8891 32.0336 29.8687C31.9983 29.8483 31.9582 29.8376 31.9174 29.8376C31.3459 29.8977 30.7941 30.0799 30.2992 30.3718C30.1443 30.0466 29.5249 29.3266 29.0449 29.3808C28.7104 28.5801 28.494 27.7351 28.4023 26.8722C28.1003 24.8591 27.9919 24.6036 27.3648 24.3636C26.7764 24.1586 26.1767 23.988 25.5685 23.8526C25.3207 23.45 24.7478 22.5906 24.2368 22.6293C23.8247 22.716 23.4569 22.9466 23.1993 23.2797C23.0965 23.1794 22.9678 23.1097 22.8277 23.0784C22.5673 23.0855 22.312 23.152 22.0812 23.2727C21.8504 23.3935 21.6502 23.5653 21.4959 23.7752C21.4045 23.8689 21.346 23.9898 21.3292 24.1197C21.3124 24.2496 21.3384 24.3814 21.403 24.4953C21.2375 24.5723 21.0912 24.6852 20.9747 24.8259C20.8582 24.9665 20.7744 25.1312 20.7294 25.3082C20.7294 25.4011 20.6907 25.5792 21.1011 26.1599C20.2107 27.0425 21.1011 27.7084 21.8753 28.8156C22.7122 30.2068 23.8176 31.4175 25.1272 32.3771C25.1272 32.8959 25.7698 33.585 26.2034 33.9876C25.8669 34.4235 25.665 34.9483 25.6227 35.4974C25.6246 35.5523 25.6467 35.6047 25.6846 35.6445C25.7698 35.7374 34.5189 45.4852 38.2043 50.5488C41.8897 55.6124 52.4737 66.1267 52.9151 66.5603C53.6196 69.5644 55.323 74.7519 59.0704 77.8257C64.3275 82.1305 66.209 81.6969 68.6014 83.95C68.4902 84.129 68.4312 84.3355 68.4311 84.5462C68.6929 85.1754 69.0254 85.7728 69.4221 86.327C68.6479 88.309 67.8736 90.3143 67.1923 92.2964C65.7831 90.8641 55.0055 79.8 37.2597 58.6862C19.2661 37.2394 12.081 30.3176 11.601 30.3176ZM79.5803 111.908C79.3744 110.019 79.3072 108.117 79.379 106.217C80.1532 106.303 83.2502 107.596 83.4593 107.975C83.3354 108.478 80.37 111.335 79.5803 111.908ZM96.9932 120.859C96.8742 120.764 96.7604 120.663 96.6525 120.557L106.369 114.262C106.483 114.442 106.555 114.646 106.578 114.858C106.021 115.563 98.1081 120.495 96.9932 120.859ZM96.3893 120.154C94.8408 116.05 92.518 109.702 92.4406 108.587C93.9891 108.819 104.434 113.341 105.913 114.006L96.3893 120.154ZM104.132 112.698C102.661 112.063 101.174 111.428 99.765 110.848L99.1146 109.833C99.359 109.327 99.4986 108.777 99.525 108.215L103.567 110.538L104.132 112.698ZM92.7968 103.748C90.3966 102.308 81.5391 90.9105 81.2449 90.5853C80.9507 90.2602 77.2343 89.3078 75.0509 88.7349C75.0199 88.7268 74.9876 88.725 74.9558 88.7297C74.9241 88.7343 74.8937 88.7452 74.8662 88.7618C74.8388 88.7784 74.815 88.8004 74.7962 88.8263C74.7774 88.8523 74.7639 88.8817 74.7567 88.913C74.7485 88.9435 74.7464 88.9753 74.7506 89.0066C74.7547 89.0379 74.765 89.0681 74.7808 89.0954C74.7966 89.1228 74.8177 89.1467 74.8428 89.1659C74.8679 89.185 74.8965 89.1991 74.927 89.2072C77.0872 89.7646 80.6178 90.7557 80.912 90.926C80.9739 90.988 81.454 91.5919 82.236 92.5674L78.7441 96.7406C78.7238 96.765 78.7084 96.7932 78.699 96.8235C78.6895 96.8539 78.6861 96.8857 78.689 96.9174C78.6919 96.949 78.701 96.9798 78.7157 97.0079C78.7305 97.036 78.7507 97.061 78.7751 97.0813C78.7995 97.1016 78.8276 97.117 78.858 97.1264C78.8883 97.1359 78.9202 97.1393 78.9518 97.1364C78.9834 97.1335 79.0142 97.1244 79.0423 97.1097C79.0704 97.0949 79.0954 97.0747 79.1157 97.0503L79.2783 96.849C79.8745 96.849 83.0722 97.1123 88.4687 100.062C89.6784 101.568 91.0521 102.934 92.5645 104.135C93.4936 104.692 96.1493 106.225 99.0682 107.913C99.112 108.638 98.8951 109.355 98.4565 109.934C97.4096 109.373 96.2574 109.035 95.073 108.943C94.9879 108.943 92.4019 107.905 92.0844 108.122C92.0302 108.122 91.9373 108.231 91.9993 108.742C89.2507 108.463 86.4789 108.3 83.8619 108.169C83.895 108.106 83.916 108.038 83.9238 107.967C83.9238 107.812 83.9238 107.456 81.8488 106.55C80.7107 106.055 79.2861 105.521 79.0073 105.776C78.8109 106.462 78.7504 107.18 78.8293 107.89C75.1593 107.681 74.7257 107.704 71.0016 106.388C69.5924 105.892 69.3524 105.823 68.6091 105.614C66.8593 105.072 65.5121 104.653 65.0166 102.594C64.4669 100.085 65.6592 97.2284 66.7122 94.7044C67.7652 92.1803 67.6413 92.25 69.7628 86.6909C69.8367 86.7929 69.939 86.871 70.057 86.9154C70.2179 86.9547 70.3807 86.9857 70.5448 87.0083C70.5927 87.0232 70.644 87.0232 70.6919 87.0083C70.7688 87.1412 70.8834 87.2482 71.0213 87.3157C71.1592 87.3833 71.314 87.4083 71.4661 87.3877C71.6513 87.3841 71.8356 87.3607 72.0158 87.318C72.09 87.406 72.1862 87.4728 72.2946 87.5116C72.5455 87.5977 72.8179 87.5977 73.0688 87.5116C73.5566 88.0148 74.8031 86.9076 74.9812 86.4741C75.0431 86.2209 75.0589 85.9586 75.0277 85.6998C74.9808 85.3635 75.0019 85.0213 75.0896 84.6933C75.1912 84.6458 75.2976 84.6094 75.4071 84.5849C75.7133 84.5077 75.9924 84.3477 76.2137 84.1223C76.4349 83.897 76.5898 83.615 76.6614 83.3074C76.8781 83.4777 77.7143 83.2532 78.2099 82.4092C78.837 82.7344 79.2783 82.9125 79.3325 82.9357C79.367 82.9489 79.404 82.9541 79.4408 82.9511C79.4776 82.9481 79.5132 82.9369 79.5452 82.9184C79.5771 82.8998 79.6044 82.8744 79.6252 82.8439C79.646 82.8134 79.6598 82.7786 79.6655 82.7422C79.7584 82.0221 80.8423 80.2491 82.1895 78.267C84.6728 78.7169 86.8787 80.1273 88.3293 82.1925C88.4222 82.3163 88.5848 82.3473 88.7784 82.146C88.9719 81.9447 89.5526 81.2324 91.4341 79.5368C91.9915 79.862 94.1362 81.3408 96.7532 86.0095C98.8949 89.7656 100.718 93.6945 102.204 97.7549C102.219 97.8025 102.249 97.8441 102.289 97.8734C102.33 97.9027 102.379 97.9181 102.428 97.9175C102.467 97.9183 102.505 97.9098 102.54 97.8927C102.574 97.8756 102.604 97.8504 102.627 97.8193C102.65 97.7881 102.665 97.7519 102.671 97.7138C102.677 97.6756 102.673 97.6366 102.661 97.6001C102.661 97.6001 102.459 97.0039 102.049 95.9741L112.045 105.838C111.147 108.006 109.97 111.204 109.234 113.248C107.693 112.334 95.1118 105.11 92.8355 103.748H92.7968ZM87.5706 99.1021C83.3896 96.9652 80.7029 96.5316 79.65 96.4387L82.5302 92.9933C83.8929 94.6579 85.782 96.9807 87.6093 99.0866L87.5706 99.1021ZM108.886 115.137C108.839 114.997 109.033 114.603 109.265 114.262L115.962 118.009C115.909 118.23 115.834 118.446 115.738 118.652C113.398 117.612 111.123 116.433 108.924 115.121L108.886 115.137ZM115.382 119.008C113.113 120.696 110.341 122.004 107.91 122.105C107.082 122.144 106.547 121.958 106.362 121.571C105.874 120.588 107.384 118.396 108.065 117.553C109.776 117.011 110.55 116.778 110.643 116.732C112.362 117.56 114.538 118.567 115.42 118.969L115.382 119.008ZM103.435 122.105C103.482 122.09 103.523 122.061 103.553 122.023C103.583 121.984 103.602 121.937 103.605 121.888L103.814 118.869L107.26 117.769C105.456 120.262 104.937 122.647 107.933 122.546C113.864 122.322 122.087 114.982 119.88 111.986C119.539 111.616 119.096 111.355 118.607 111.235C118.118 111.115 117.605 111.142 117.131 111.312C117.224 111.312 116.984 111.537 120.228 107.72C122.551 106.891 124.2 106.945 124.874 107.991C127.808 112.141 113.926 126.402 104.898 126.402C103.814 126.402 102.428 126.216 101.894 125.28C101.36 124.343 101.956 122.879 102.126 122.523L103.435 122.105ZM93.8575 123.119L95.2047 124.451C95.2365 124.48 95.2754 124.501 95.3175 124.51C95.3596 124.52 95.4034 124.518 95.4447 124.505L96.3583 124.234C95.0885 128.485 95.7234 131.768 100.16 131.768C104.976 131.768 112.664 127.804 117.519 124.064C125.261 118.087 130.797 110.902 130.913 106.636C130.956 106.118 130.878 105.598 130.686 105.116C130.494 104.634 130.193 104.202 129.806 103.856C126.453 100.976 119.547 103.933 118.239 104.537L118.123 104.328L119.059 100.457C124.355 98.0336 131.734 97.5459 134.436 100.976C136.124 103.128 136.604 107.642 129.279 116.918C116.017 133.688 98.6269 137.822 92.6187 135.461C92.083 135.271 91.5965 134.964 91.1947 134.562C90.7928 134.16 90.4858 133.674 90.2959 133.138C89.1113 129.739 91.9683 124.358 92.3554 123.654L93.8575 123.119ZM90.3811 118.807C88.701 119.736 80.5791 123.398 79.3016 123.793C78.6221 120.953 78.1255 118.072 77.815 115.168C79.3945 115.439 88.5693 118.102 90.4198 118.799L90.3811 118.807ZM79.4564 124.227C81.5624 123.615 90.714 119.171 90.8069 119.117C90.8784 119.074 90.9458 119.025 91.0082 118.969C91.1708 119.209 91.3334 119.535 91.2328 119.697C90.6908 120.224 80.3932 124.707 79.89 124.815C79.8358 124.792 79.65 124.521 79.4951 124.219L79.4564 124.227ZM86.1692 122.678C86.2311 122.593 85.9833 122.786 89.0029 121.385L88.3835 124.707C88.3781 124.74 88.3797 124.775 88.3882 124.808C88.3967 124.841 88.412 124.872 88.4331 124.899C88.4542 124.926 88.4806 124.948 88.5107 124.964C88.5408 124.981 88.574 124.99 88.608 124.993C81.7946 136.189 87.2841 143.265 96.8771 142.298C106.307 141.353 121.103 133.998 132.895 119.697C144.904 105.141 142.542 92.1571 131.161 93.8372C121.823 95.1999 116.806 98.1962 115.405 99.1486C115.529 98.1962 115.637 97.3058 115.738 96.4851C118.254 94.9366 123.96 92.97 124.882 92.6139C125.137 92.8539 125.362 93.0475 125.509 93.1636C125.656 93.2797 125.881 93.4346 126.074 93.3804C126.268 93.3262 126.562 92.7765 126.903 92.01C133.097 89.7337 140.026 89.0368 144.579 93.6281C150.943 100.039 142.581 112.613 136.898 119.643C122.11 137.923 105.154 145.271 94.1672 146.06C86.0762 146.641 83.6296 144.094 81.8179 141.415C78.3879 134.462 86.1227 122.786 86.2079 122.655L86.1692 122.678ZM132.973 133.03C110.961 154.175 90.5359 152.464 88.7939 150.745C87.096 148.835 85.5235 146.818 84.0864 144.706C92.6651 150.334 117.534 144.404 137.285 119.984C146.886 108.122 148.04 100.953 147.056 96.8568L150.277 101.378C150.362 101.456 155.101 111.792 133.011 133.007L132.973 133.03Z" fill="black"/>
</svg>
