<svg width="154" height="154" viewBox="0 0 154 154" fill="none" xmlns="http://www.w3.org/2000/svg">
<path d="M33.7524 146.612C33.7524 146.612 35.1127 142.67 35.1127 141.84C35.1127 141.01 34.5286 138.574 34.6747 137.359C34.8207 136.145 35.5969 129.567 35.5969 129.029C35.5969 128.491 37.9792 128.199 39.4932 125.186C41.0072 122.174 42.4596 120.222 43.0437 118.954C43.3588 118.277 48.8921 107.072 49.5299 106.096C50.1678 105.12 52.4042 103.368 52.8422 101.954C53.2803 100.54 56.3005 98.98 57.7069 98.6879C59.1132 98.3959 69.1576 98.4497 69.1576 98.4497C70.9942 99.5895 72.7366 100.874 74.3681 102.292C75.9052 103.829 78.0724 103.514 78.6564 104.874C79.2405 106.235 86.2032 115.495 86.7411 116.517C87.2791 117.539 90.3454 122.074 90.3916 122.758C90.4377 123.442 90.3454 130.596 90.3916 133.225C90.4377 135.853 90.3916 136.345 90.8373 138.051C91.283 139.757 92.0515 145.114 92.4896 146.09C92.9276 147.066 93.6577 148.28 93.8037 148.618C93.9497 148.956 91.2215 150.278 85.573 149.694C79.9245 149.11 77.3884 150.57 71.0559 149.202C64.7234 147.834 63.0711 149.971 57.4686 149.402C51.8662 148.833 50.3522 148.526 45.3877 148.28C40.4231 148.034 35.5508 147.734 33.7524 146.612Z" fill="#D3FFB0"/>
<path d="M44.4118 114.996C44.1121 115.618 44.0275 115.764 43.8431 115.626C41.576 113.912 40.769 112.598 39.3319 110.062C38.5634 108.755 38.8093 108.732 39.5241 108.271C41.2763 112.429 43.8738 114.258 44.4118 114.996Z" fill="#FF9C9F"/>
<path d="M106.154 105.02C102.042 104.943 104.402 105.535 100.144 105.02C98.2228 104.797 98.0921 105.52 96.2323 105.727C93.9268 105.989 94.2496 105.797 93.6732 105.927C92.5973 105.758 91.9517 106.696 91.4829 106.281C88.7701 104.014 89.2466 104.959 92.8048 104.244C92.9892 104.244 96.3937 103.084 97.7847 103.322C98.3611 103.422 98.3841 103.26 100.136 102.984C101.134 102.833 102.151 102.872 103.134 103.099C105.439 103.46 105.562 103.383 105.739 103.768C106.3 104.99 106.392 105.028 106.154 105.02Z" fill="white"/>
<path d="M57.7682 77.7168C57.8143 77.1865 56.9997 76.6946 56.5079 76.8791C56.3575 76.9297 56.2189 77.0102 56.1004 77.1158C55.9819 77.2213 55.8861 77.3498 55.8186 77.4934C55.7511 77.637 55.7134 77.7928 55.7077 77.9514C55.702 78.1099 55.7284 78.268 55.7855 78.4161C56.016 79.054 57.6299 79.4613 57.7682 77.7168ZM58.091 75.9184C58.237 77.0789 58.3523 79.1078 58.3523 80.1222C58.3523 80.4834 58.4522 80.8369 57.8681 80.9445C57.3083 81.0531 56.7399 81.1123 56.1697 81.1213C54.5097 81.1213 54.0947 81.4901 53.8642 80.591C53.7566 80.0991 53.3109 76.2566 53.2724 75.9338C53.2551 75.8287 53.2598 75.7211 53.2863 75.6179C53.3127 75.5148 53.3604 75.4182 53.4261 75.3344C53.5079 75.2562 53.6043 75.1949 53.7098 75.1541C53.8153 75.1132 53.9278 75.0935 54.0409 75.0961C55.0192 75.0039 56.0018 74.9654 56.9843 74.9809C58.1678 74.9809 58.0295 75.4189 58.091 75.9184ZM54.5251 80.3143C55.5857 81.3288 56.8306 79.0617 55.0784 78.8772C54.9234 78.8999 54.7772 78.9635 54.6548 79.0613C54.5324 79.1592 54.4382 79.2878 54.3819 79.4341C54.3256 79.5803 54.3092 79.7389 54.3343 79.8936C54.3595 80.0483 54.4253 80.1935 54.5251 80.3143ZM54.8402 77.3094C55.747 77.3094 56.2005 75.5726 54.7403 75.5265C54.5277 75.5545 54.3326 75.6588 54.1912 75.8199C54.0498 75.9811 53.9718 76.1882 53.9718 76.4026C53.9841 76.6276 54.0745 76.8413 54.2274 77.0068C54.3803 77.1724 54.5861 77.2794 54.8095 77.3094H54.8402Z" fill="white"/>
<path d="M35.5969 110.062C35.608 110.128 35.6011 110.195 35.5767 110.258C35.5523 110.32 35.5115 110.374 35.4586 110.415C34.959 110.799 33.5834 112.206 32.6228 111.952C20.7262 111.514 20.0423 110.415 17.3064 110.3C17.0835 110.3 17.1143 110.384 17.4908 108.44C17.4908 108.263 17.5677 108.102 17.7367 108.102C22.7321 108.194 19.5965 108.701 27.7812 109.708C35.2203 110.592 35.5508 109.07 35.5969 110.062Z" fill="white"/>
<path d="M129.563 5.08411C129.908 5.08411 130.247 4.26181 126.658 10.0026C123.545 14.9595 122.231 17.5801 121.048 18.8865C120.548 19.4399 120.11 20.07 117.243 20.0009C115.794 20.0108 114.344 19.9442 112.901 19.8011C109.882 19.3563 106.838 19.0997 103.787 19.0326C102.457 19.1401 102.304 19.1939 102.096 19.3246C101.889 19.4552 101.812 19.3784 101.858 19.1555C102.073 15.0824 127.38 5.07643 129.563 5.08411Z" fill="white"/>
<path d="M134.235 19.6166C134.028 19.5244 132.998 19.0095 128.54 16.6732C125.097 14.8672 124.882 15.0517 125.067 14.7212C125.251 14.3907 130.246 6.10621 131.007 5.39918C131.384 5.03798 131.407 5.17631 132.368 6.85935C134.353 11.0915 135.965 15.4887 137.186 20.0009C137.278 20.3928 137.478 20.9922 136.94 20.9615C135.983 20.6355 135.073 20.1832 134.235 19.6166Z" fill="white"/>
<path d="M131.661 19.502C137.532 22.576 136.733 22.0918 135.849 22.8527C134.984 23.5452 134.017 24.1 132.983 24.4973C129.739 25.8575 130.431 25.8652 126.873 27.5098C122.416 29.5541 122.654 29.654 122.692 29.239C122.808 28.0094 122.539 24.3513 122.531 23.6442C122.531 23.1524 122.001 22.9141 121.701 23.3829C121.309 23.9977 121.624 24.7586 121.701 25.8498C121.67 26.4412 121.67 27.0337 121.701 27.6251C121.762 28.1767 121.762 28.7335 121.701 29.2851C121.639 30.2611 122.3 29.7769 115.837 32.5282C114.131 33.2506 110.142 35.1872 110.081 33.3582C110.035 31.752 112.34 22.7604 112.755 21.185C112.894 20.6624 112.986 20.7008 113.255 20.7008C118.196 20.7008 120.31 22.2993 122.746 18.2723C124.521 15.3213 124.452 15.6364 124.621 15.744C124.79 15.8515 130.454 18.8564 131.661 19.502Z" fill="white"/>
<path d="M111.833 20.6998C112.225 20.6998 109.919 27.1783 109.205 33.2649C108.484 32.4108 107.844 31.4924 107.291 30.5213C106.361 28.9843 102.396 21.5067 102.242 21.1916C102.088 20.8765 101.988 20.6153 101.981 20.6076C101.973 20.5999 101.881 20.4078 102.203 20.2387C102.693 20.0504 103.218 19.9742 103.741 20.0158C104.271 20.0158 105.124 19.9774 106.277 20.0542C107.629 20.1465 108.951 20.4923 111.833 20.6998Z" fill="white"/>
<path d="M66.537 50.9874C65.538 52.8242 65 54.2382 63.586 54.7608C62.2564 54.1306 62.0489 53.3006 60.9807 51.3102C60.5427 50.4802 60.9807 51.1334 64.3698 51.0489C65.9069 51.0105 66.0682 51.0028 66.4141 50.8568C66.4448 50.8491 66.6139 50.8491 66.537 50.9874Z" fill="white"/>
<path d="M65.9146 71.4914C66.6831 72.2138 66.6293 72.1062 65.7916 72.1062C55.3937 71.5605 51.5742 72.9515 52.6117 71.9602C53.4724 71.1379 53.6492 71.6681 60.7271 71.3454C62.3949 71.2288 64.0682 71.2134 65.7378 71.2992C65.9376 71.3454 65.684 71.3915 65.7378 71.4222C65.7916 71.453 65.8761 71.4914 65.9146 71.4914Z" fill="#C5CDF3"/>
<path d="M67.3749 87.4684C67.3984 87.6573 67.3984 87.8483 67.3749 88.0371C67.3749 89.8585 67.667 89.5741 66.1607 89.9353C63.7322 90.5117 64.3854 91.9796 63.0867 95.1535C62.5564 96.4292 63.5324 97.3591 64.6237 97.6204C65.323 97.7972 65.1232 97.6742 65.2462 97.8279C65.0925 97.9124 57.4381 98.3966 57.3843 98.0431C57.3305 97.6896 57.0462 97.6512 57.3459 97.2746C57.6123 96.9133 57.7629 96.4798 57.778 96.0312C57.7931 95.5826 57.6719 95.1399 57.4304 94.7616C57.2537 94.5003 57.4765 94.4542 57.8608 93.6395C57.9589 93.1129 57.8585 92.5685 57.5789 92.1116C57.2993 91.6546 56.8604 91.3174 56.3468 91.1649C54.2949 90.4579 55.3093 90.6116 53.5879 90.3503C52.9423 90.2504 52.9423 90.3119 52.9116 89.8431C52.7348 87.5376 52.5811 87.5376 53.1422 86.9919C53.3355 87.0307 53.522 87.098 53.6955 87.1917C54.5579 87.7033 55.5439 87.969 56.5466 87.9603C58.8522 87.8527 59.1903 86.1235 58.345 85.501C57.93 85.2013 56.8079 84.9246 55.8089 84.4021C55.0865 84.0255 53.2421 82.9112 52.3736 83.0802C51.8434 83.1801 52.0278 79.5681 51.4514 75.2875C51.1287 72.982 52.5427 73.2817 54.5946 73.1818C57.1511 72.9818 59.7167 72.9228 62.2797 73.0051C67.8745 72.9513 67.106 72.129 67.2443 81.2051C67.2443 83.3338 67.3673 83.0649 67.0599 83.2109C62.6409 85.355 64.7543 82.9726 61.4651 88.1985C61.0655 88.844 60.7965 89.4512 61.3729 89.9276C62.5333 90.896 63.8552 89.9891 64.616 89.0054C65.8379 87.43 65.4614 87.6452 67.0906 87.2532C67.2904 87.2071 67.3673 87.2609 67.3749 87.4684ZM59.1826 80.2829C59.2364 79.5143 59.1826 78.7458 59.1135 77.2088C58.9137 73.689 58.8061 74.227 55.5706 74.1809C53.4649 74.1809 52.7809 74.4499 52.5735 75.1723C52.3045 76.1483 53.0422 80.9668 53.1345 81.2435C53.1796 81.3864 53.2532 81.5187 53.351 81.6323C53.4487 81.7459 53.5686 81.8385 53.7032 81.9044C54.0272 81.9666 54.3571 81.9924 54.6869 81.9813C55.8802 82.0345 57.076 81.983 58.2604 81.8276C58.5257 81.7794 58.7728 81.6598 58.9751 81.4817C59.2825 81.159 59.1673 80.5979 59.1826 80.2829Z" fill="#C5CDF3"/>
<path d="M102.634 95.8913C102.803 97.6896 105.324 102.416 104.939 102.316C101.02 101.363 99.6982 102.047 98.7299 102.231C97.7616 102.416 98.2073 102.139 97.0161 102.27C93.7115 102.623 93.8191 103.038 92.4051 103.307C89.6384 103.761 90.2071 103.569 89.8152 103.676C89.6378 103.763 89.4438 103.81 89.2465 103.815C89.0602 103.792 88.8718 103.792 88.6855 103.815C87.917 103.899 88.2936 103.1 87.917 101.747C87.4373 100.389 87.1577 98.9674 87.087 97.5282C87.4405 90.4195 84.989 92.4714 85.3348 85.0399C85.5577 80.2598 84.6124 83.3338 89.9459 78.8919C91.3522 77.7084 94.5569 75.8178 94.7029 76.1483C95.6251 78.4538 96.3245 81.0667 96.7856 82.4731C98.7222 88.2984 99.4139 86.8459 102.549 95.6377C102.586 95.7193 102.614 95.8042 102.634 95.8913Z" fill="#D3FFB0"/>
<path d="M93.2735 72.3446C95.1256 76.6944 94.457 73.5512 88.8238 78.4158C87.9244 79.1071 86.9824 79.7411 86.0034 80.3141C84.8968 81.0826 85.9573 81.0211 84.7507 77.3169C84.597 76.8481 83.8823 76.9787 84.0207 77.5782C84.1359 78.0393 84.9505 81.3208 84.3127 81.6128C82.0072 82.6426 76.9581 83.78 76.812 83.8338C76.3012 83.9414 75.771 83.9122 75.275 83.7493C74.7371 83.6801 74.3221 85.586 78.3491 84.5178C81.9534 83.5341 82.4529 83.5956 83.7824 82.9808C84.7661 82.535 84.4203 82.781 84.4126 84.5716C84.4126 86.8771 83.9669 86.3084 84.5663 89.8051C84.9044 91.7418 86.1033 93.102 86.1033 96.3067H86.0341C86.0341 100.964 86.4722 99.8034 86.9333 102.516C83.6748 99.5729 83.3982 100.318 81.3923 97.3135C76.1819 89.5131 77.8188 92.7024 76.7813 90.9579C74.5372 87.0231 74.4758 88.2527 72.8773 86.4391C71.4786 84.8406 70.7869 83.5418 70.1875 83.3112C67.6284 82.3352 68.2816 84.2719 68.1279 80.2833C68.0664 78.485 68.0049 78.5618 68.1894 78.4235C68.7734 77.9778 73.5689 75.9643 75.2443 73.1362C80.2473 64.575 75.9513 64.6826 80.7852 65.259C82.0302 65.4203 84.7968 64.7748 87.8709 65.8507C89.869 66.5116 90.8834 66.7422 93.2735 72.3446Z" fill="#D3FFB0"/>
<path d="M51.2208 83.0196C51.3053 83.6882 50.8596 83.2502 49.8913 85.0331C48.8307 86.9928 48.0392 87.3002 47.4705 88.2378C46.3331 90.1053 47.0401 90.1514 45.895 96.2995C44.9651 101.302 45.0113 100.557 43.9123 101.863C43.7816 102.025 42.6519 101.863 42.7057 103.162C42.7057 103.539 42.6442 103.439 42.3445 103.785C41.8834 104.323 41.9065 104.015 41.4838 104.054C41.3737 104.06 41.2674 104.097 41.1764 104.159C41.0853 104.221 41.013 104.307 40.9672 104.408C40.9214 104.508 40.9038 104.619 40.9162 104.728C40.9287 104.838 40.9708 104.942 41.0381 105.03C41.138 105.199 41.1303 105.16 39.9468 106.39C39.747 106.597 39.5241 106.498 39.3166 106.943C38.5315 107.814 37.6613 108.605 36.719 109.303C36.5884 108.842 36.8497 106.229 36.6422 104.93C36.2349 102.255 36.1042 103.147 35.9659 101.456C35.7507 98.7203 36.7344 98.1131 36.0735 94.6318C35.4126 91.1504 34.8208 88.8372 34.5903 86.6854C33.8909 80.0147 34.7132 79.5306 33.8218 79.7227C32.9303 79.9148 33.376 83.5653 33.3914 84.2646C33.5144 89.1139 35.2128 94.0938 35.1897 97.0372C35.1897 98.3898 34.7056 99.9576 34.8439 101.326C35.182 104.546 35.3511 103.17 35.6124 105.721C35.7123 106.774 35.5509 108.181 35.574 108.549C35.6201 109.318 26.6669 108.811 23.1164 107.912C21.0799 107.389 20.8724 107.143 19.2739 107.143C18.9937 107.185 18.7087 107.185 18.4285 107.143C18.2963 107.12 18.1611 107.12 18.0289 107.143C17.2604 107.189 18.905 105.268 19.5659 102.97C20.7955 98.4974 21.1029 99.1276 21.395 96.7836C22.0482 91.2657 22.9781 91.6807 23.785 88.0687C24.4177 84.3447 25.6041 80.7363 27.3048 77.3634C28.5537 74.8675 30.7091 72.9431 33.3299 71.9838C38.7095 69.3632 35.4279 70.7158 39.2398 69.3709C43.4204 67.8954 42.2369 66.1739 42.9517 70.7465C43.2087 72.6906 44.1649 74.4745 45.6414 75.7649C46.3669 76.5178 47.1736 77.188 48.0469 77.763C52.1738 80.2453 50.5829 78.2318 51.2208 83.0196Z" fill="#D3FFB0"/>
<path d="M47.1709 51.7779C47.0634 51.9624 46.925 51.7779 46.8097 51.7779C46.1796 52.0469 47.8933 54.583 50.5831 55.2209C50.7753 55.267 50.7676 55.144 50.9981 57.365C50.9981 57.6493 51.1979 57.8415 49.292 57.4726C48.1597 57.2623 47.0977 56.7726 46.2026 56.0479C45.3074 55.3232 44.6074 54.3865 44.1661 53.3226C43.2823 51.3553 41.2381 55.2746 43.4898 58.8098C43.6127 59.0173 43.4898 58.9789 43.2131 58.9174C41.1861 58.5414 39.3435 57.4969 37.9796 55.9509C33.5914 51.1478 33.5683 46.3753 38.9479 41.5952C45.9874 35.3395 40.8538 32.3731 41.5993 27.6237C42.483 21.9675 46.3025 18.9395 51.8435 17.9097C54.3796 17.441 55.0712 17.3026 57.223 17.8252C61.788 18.9242 62.472 20.8378 63.0483 20.515C63.3327 20.3459 63.0944 19.9386 62.9023 19.6543C62.368 18.9944 61.7069 18.4482 60.958 18.0481C61.4575 17.5255 63.6247 17.1335 65.3308 17.1643C67.2745 17.2636 69.1614 17.8534 70.8156 18.8787C72.4698 19.9041 73.8375 21.3315 74.7912 23.028C76.7124 26.8706 74.1149 30.2443 76.2052 33.8486C77.2811 35.7007 85.2198 40.5961 82.6914 50.7558C82.236 52.4139 81.2676 53.8854 79.9248 54.9596C78.3263 56.0432 77.6808 56.658 75.8133 56.8347C76.4118 55.4991 76.7334 54.056 76.7585 52.5926C76.7585 51.924 76.7585 51.5551 76.4281 51.4628C75.7134 51.3553 76.0592 53.1151 73.9919 55.0825C73.2234 55.851 71.6326 57.634 69.4347 57.1114C69.9957 55.9279 72.8391 52.8769 73.2772 46.9748C73.477 44.139 72.063 43.6932 72.3934 39.6124C72.9928 32.1963 70.2185 30.6209 70.6105 30.1213C71.671 28.7688 72.2013 27.5007 72.3012 24.9339C72.3704 23.3047 71.817 22.8205 71.6172 23.32C71.4174 23.8196 71.8324 27.7082 69.3117 29.9677C68.6354 30.5671 66.3452 31.6661 66.5758 31.1896C66.8064 30.7131 66.9985 30.3596 67.1829 30.0445C68.6277 27.5161 68.5278 23.8503 68.4817 23.2278C68.4817 22.7744 68.0129 22.5131 67.8592 23.0126C67.6517 23.735 67.767 26.4325 66.7295 28.8917C66.0531 30.5347 64.8283 31.8926 63.2635 32.7343C62.7717 33.034 64.8005 30.5517 64.2165 24.8186C64.1243 23.9041 64.0858 23.3815 63.7169 23.151C63.2251 22.8513 63.3557 23.8042 63.4095 24.5343C63.6818 26.7117 63.4773 28.9223 62.8101 31.0128C62.7002 31.357 62.4993 31.665 62.2288 31.9044C61.9582 32.1439 61.628 32.3058 61.2731 32.3731C60.9734 32.4422 60.6429 31.8582 60.5046 31.205C60.2193 29.741 60.1803 28.2397 60.3893 26.763C60.4508 26.202 60.7428 25.1414 60.274 25.1875C60.1574 25.189 60.0455 25.234 59.9603 25.3136C59.875 25.3931 59.8225 25.5016 59.8129 25.6179C58.8446 30.9206 60.1972 32.058 60.1741 32.9956C59.4655 32.786 58.814 32.4174 58.2693 31.918C57.7246 31.4186 57.3011 30.8015 57.0309 30.1137C56.7927 29.1069 56.4315 28.5766 56.8926 24.7956C56.9694 24.1808 57.1616 23.6889 56.7619 23.735C56.3623 23.7812 56.1779 24.4036 56.0933 24.957C55.662 27.2859 55.7964 29.6843 56.4853 31.9504C56.8465 33.1646 57.3306 33.8256 57.0617 33.7333C56.0335 33.3508 55.1264 32.7001 54.4345 31.8487C53.7426 30.9974 53.2911 29.9764 53.1269 28.8917C52.8886 27.3931 52.7119 26.64 52.6735 26.2481C52.6043 25.4796 52.2969 25.7562 52.2047 25.8408C51.9203 26.0867 51.9434 26.6938 51.9895 27.2164C52.6504 34.5403 55.8935 35.1858 54.295 35.2396C53.3559 35.1853 52.4566 34.8417 51.7205 34.2559C50.5447 33.3262 49.7339 32.012 49.4304 30.544C48.6081 27.47 48.3083 25.8715 49.3074 22.9896C49.4611 22.5439 49.0077 22.2595 48.7003 22.59C47.1633 24.1731 47.463 30.9052 50.4141 34.4096C51.6052 35.816 52.5582 35.7468 52.7196 38.8593C52.7196 39.3665 52.5274 43.2782 52.4967 43.8777C52.479 44.7279 52.6773 45.5688 53.0731 46.3215C53.2729 46.7211 53.5111 47.0132 53.4497 47.1515C53.3113 47.4589 52.051 46.2754 51.4977 45.1841C50.2066 42.6096 50.2834 37.8756 49.1537 38.2675C48.8079 38.3905 48.8847 38.5596 49.0154 38.9669C49.1921 39.4972 49.7839 42.0947 49.5149 41.8949C47.1556 40.1043 44.3121 43.1476 45.4187 46.1217C45.8414 47.2591 47.1018 49.872 48.854 50.3562C51.0442 50.9633 49.8454 48.8192 50.6216 54.0988C50.6216 54.3755 49 53.9528 47.4169 52.0239C47.4322 51.9854 47.1863 51.7395 47.1709 51.7779ZM78.9795 53.5609C79.748 54.3294 81.9767 50.0411 79.9094 44.7307C78.7874 41.8719 78.9104 40.8267 78.2725 41.6567C77.6346 42.4867 79.8095 46.0218 79.8095 49.3418C79.8941 52.1468 78.4723 53.046 78.9795 53.5609ZM76.3282 38.2906C76.8277 38.5596 76.7124 38.1523 76.8585 37.9986C76.0899 36.2156 74.184 35.9466 73.5615 31.8505C73.4693 31.2203 73.331 31.1819 73.1312 31.3202C72.9314 31.4586 72.8853 31.8121 73.0082 32.7266C73.1923 34.0268 73.7084 35.2576 74.5068 36.3002C75.9362 37.8833 75.8286 38.0293 76.3282 38.2906ZM75.8133 49.3418C76.6279 48.0046 76.3359 44.1697 75.3829 42.7864C75.0755 42.3483 74.868 41.38 74.4223 41.7181C73.9765 42.0563 74.4914 42.7172 74.5376 42.8709C74.8082 43.4462 75.0318 44.0425 75.2062 44.6539C75.7902 47.213 75.6365 47.3436 75.2062 49.1727C75.1293 49.6261 75.5597 49.7644 75.8133 49.3418ZM46.0643 37.8679C46.3631 36.3211 46.4253 34.7378 46.2487 33.1723C46.1565 32.8726 45.657 33.0033 45.6032 33.2338C45.1882 35.0321 46.0873 37.1302 43.8817 40.3809C43.29 42.333 38.5713 44.2235 37.7336 47.8585C37.5185 48.75 37.8874 49.2111 38.2409 48.8192C38.5944 48.4272 38.2793 48.3043 39.0094 47.1131C41.069 43.6164 44.8193 43.0554 46.0643 37.8679ZM46.1488 24.5036C46.2948 24.0271 45.5878 23.7735 45.3803 24.273C43.9432 27.1626 44.3505 30.4211 45.2036 30.69C45.7876 30.9129 45.68 30.3288 45.5648 29.714C44.9192 26.4786 45.7953 25.6717 46.1488 24.5036ZM40.8384 51.6165C41.922 49.0036 43.851 48.0507 43.1978 47.4743C42.5445 46.8979 39.6626 50.7404 39.678 53.1689C39.678 56.4274 40.8461 55.8433 40.7923 55.5359C40.5925 54.2525 40.2928 52.9307 40.8384 51.6165Z" fill="#585858"/>
<path d="M103.226 114.904C103.441 116.441 101.858 119.408 100.974 120.714C100.375 121.59 100.551 121.813 100.121 122.251C98.7224 123.65 98.6993 125.486 96.0556 124.764C93.412 124.042 91.1526 123.089 89.7539 120.829C88.5934 118.969 90.9681 121.936 82.4915 109.732C77.8343 103.023 79.8632 104.998 75.475 102.454C74.1487 101.353 73.0407 100.014 72.2088 98.5041C72.189 98.4387 72.1533 98.3793 72.105 98.331C72.0567 98.2827 71.9972 98.2471 71.9318 98.2274C71.8664 98.2076 71.7972 98.2043 71.7302 98.2177C71.6632 98.2311 71.6006 98.2608 71.5479 98.3043C71.4172 98.3888 71.4096 98.5656 71.4864 99.019C71.5248 99.2803 71.7631 99.5569 71.4864 99.4801C69.9494 99.0267 70.1876 100.026 70.7179 100.249C72.7929 101.132 72.8006 101.117 71.7784 101.878C71.3558 102.193 71.0868 101.878 69.3807 101.109C67.8898 100.464 68.3586 100.556 68.9426 98.5118C69.1578 97.7433 68.9426 96.9747 69.6497 96.529C70.1185 96.2216 71.8169 95.6606 71.471 95.1611C71.0253 94.5309 70.7025 95.0227 69.642 95.3993C69.2466 95.5518 68.8973 95.8038 68.628 96.131C68.3587 96.4582 68.1786 96.8495 68.105 97.2668C67.567 99.6492 67.713 99.2726 67.0214 99.0651C65.638 98.6501 66.4604 97.8893 66.6909 96.4368C66.8907 95.1687 66.6909 94.7845 67.0752 94.1313C67.5977 93.2628 69.8418 93.2167 70.2491 92.064C70.4335 91.5568 70.1031 91.38 69.7188 91.5798C69.5659 91.7112 69.4041 91.8319 69.2347 91.941C66.2605 93.1322 66.0607 92.7095 65.638 96.26C65.5689 96.8134 65.5151 96.7903 65.2538 96.7903C64.9064 96.7533 64.5802 96.605 64.3239 96.3676C63.4478 95.7605 64.1318 95.8527 64.931 92.1716C65.1539 91.1264 65.9685 90.9957 67.5593 90.6345C68.4595 90.2957 69.3308 89.8844 70.1646 89.4049C71.2712 88.8593 70.8409 88.1446 70.4873 88.1984C69.5651 88.3136 69.5574 85.5931 67.6054 86.0927C64.9387 86.7766 65.2231 86.646 64.4084 87.8141C63.9698 88.4833 63.352 89.0158 62.6255 89.3511C62.6255 89.3511 62.1721 89.4357 62.0568 89.2666C61.8647 88.9822 62.3258 88.7978 63.5938 86.3002C64.0703 85.3318 64.7619 85.2857 66.6679 84.571C67.3365 84.3174 68.2049 83.6257 69.5037 84.1253C70.4335 84.4788 70.4105 85.4625 72.6776 87.7987C73.0926 88.2214 73.9533 87.8602 76.0206 91.5875C76.8583 93.1245 75.9361 90.9804 80.6317 97.9661C82.2148 100.341 83.1139 100.533 84.7816 101.847C85.2581 102.216 86.626 103.615 87.31 104.153C87.994 104.691 97.3006 112.453 98.0691 111.838C98.8376 111.223 97.9001 110.785 97.0778 110.232C88.9854 104.852 94.1882 108.041 98.1306 106.328C99.5293 105.728 100.651 106.328 101.627 106.328C102.327 106.32 103.141 114.082 103.226 114.904Z" fill="#FFCEB6"/>
<path d="M46.8403 109.571C47.1708 109.809 47.1631 109.809 46.971 110.162C46.5637 110.931 46.579 111.338 46.1564 111.154C45.9489 111.154 45.9104 111.215 45.9104 111.092C45.9104 110.324 45.2111 110.523 45.1419 110.47C45.0728 110.416 45.1419 110.262 45.0958 110.162C44.8653 109.325 44.1352 109.824 44.1352 109.34C44.1352 108.717 43.4743 108.986 43.5434 108.648C43.5434 108.587 43.5434 108.518 43.4973 108.449C43.2975 107.28 42.7749 108.326 42.7749 107.326C42.7749 106.558 42.1294 106.773 42.237 106.558C42.5751 105.789 41.8988 105.628 42.1063 105.398C43.2668 104.153 42.6058 104.483 43.5127 105.651C44.4195 106.819 43.92 107.188 44.8192 107.672C45.5877 108.064 45.2034 108.379 46.8403 109.571Z" fill="#FFCEB6"/>
<path d="M45.4263 112.413C45.6953 112.667 45.5954 112.897 45.4263 113.182C44.9729 113.881 44.9421 114.181 44.7577 113.996C40.4387 109.547 40.5232 108.071 40.2773 107.664C40.1927 107.533 40.4848 107.241 40.9151 106.742C41.0842 106.542 41.1764 106.803 41.2302 106.818C41.284 106.834 41.4377 106.918 41.3763 107.072V107.118C41.3763 107.648 41.3301 107.887 41.9757 108.125C42.3369 108.271 41.9757 108.548 42.1986 108.97C42.529 109.623 42.8364 109.155 42.8211 109.524C42.8211 109.739 42.9363 110.369 43.3974 110.423C43.8585 110.477 43.5127 111.245 44.4272 111.191C44.6732 111.191 44.627 111.345 44.6424 111.445C44.7731 112.16 45.2495 111.722 45.3571 112.098C45.3802 112.221 45.3648 112.352 45.4263 112.413Z" fill="#FFCEB6"/>
<path d="M41.4914 114.896C42.6595 116.256 43.6432 116.487 43.5586 116.679C41.7834 120.852 39.401 123.649 38.4788 125.302C37.3875 127.254 34.1905 128.307 31.7159 130.981C31.3922 131.196 31.0439 131.371 30.6784 131.504C30.2171 131.6 29.7378 131.566 29.2951 131.404C27.4507 130.727 26.4055 128.929 25.6447 127.899C23.5236 125.033 24.6303 123.526 24.1768 113.82C24.1077 112.452 23.8848 112.468 24.3229 112.483C25.3677 112.645 26.4242 112.719 27.4814 112.706C28.1193 112.644 29.2721 112.906 29.9176 112.89H31.1933C31.2381 112.912 31.2774 112.944 31.3086 112.982C29.8792 113.812 26.6514 116.579 27.1894 117.14C27.5045 117.463 27.8734 117.209 28.1577 116.863C30.5785 113.974 33.5373 113.313 35.6123 111.622C40.1465 108.01 36.204 108.74 41.4914 114.896Z" fill="#FFCEB6"/>
<path d="M57.6146 86.1846C57.9758 86.4075 57.3764 87.0223 56.5541 86.9531C53.7951 86.8148 53.3878 84.6476 51.943 87.1837C51.5296 87.9362 51.0782 88.6673 50.5904 89.3739C50.2677 89.9887 51.5588 90.6804 52.1275 90.9109C53.1496 91.372 53.3801 91.1107 55.0709 91.6794C57.6915 92.5478 56.7155 94.0541 56.2467 93.8159C55.2937 93.3317 54.7097 93.4777 53.9411 93.178C53.1726 92.8783 52.6885 92.4556 52.504 92.763C51.7355 94.1156 55.2015 94.2155 56.1852 94.8918C56.4784 95.2277 56.668 95.6415 56.7308 96.083C56.8307 96.498 56.4465 97.0283 56.0238 96.7823C55.0141 96.2929 53.9363 95.9587 52.8268 95.791C52.7172 95.7825 52.6079 95.8109 52.5163 95.8718C52.4248 95.9327 52.3563 96.0226 52.3217 96.127C52.2872 96.2314 52.2887 96.3443 52.3259 96.4478C52.3632 96.5513 52.434 96.6393 52.5271 96.6978C53.1496 97.0897 56.4695 97.3049 56.4311 98.7113C56.4311 98.9649 56.4311 98.8496 55.7548 100.371C55.6088 100.725 55.1016 100.848 54.7788 101.232C54.456 101.616 53.2418 101.901 53.4493 101.432C54.0103 100.256 53.7106 100.049 54.1102 100.171C55.0939 100.464 55.2246 99.7027 54.7788 99.4491H54.7097C54.287 98.7805 53.4339 99.3568 52.9267 99.0879C52.4195 98.8189 52.1582 99.28 51.774 99.695C51.6955 99.7557 51.6384 99.8398 51.6108 99.9351C51.5831 100.03 51.5865 100.132 51.6202 100.225V100.394C51.8508 100.54 51.92 100.556 52.2504 100.317C52.8268 99.9102 52.4963 99.9409 52.9037 100.064C53.1496 100.141 52.1351 102.308 51.9353 102.623C51.3515 103.473 50.6649 104.247 49.8911 104.929C48.9689 105.828 49.2609 105.766 48.3541 107.465C47.5856 109.002 47.6471 108.917 47.4396 108.779C46.771 108.302 46.6711 108.364 46.2253 107.649C45.6182 106.581 44.9957 106.965 44.8804 106.15C44.7651 105.336 44.0043 105.075 43.6662 103.96C43.4664 103.299 45.4875 102.262 46.0716 99.9793L46.917 95.7756C47.77 90.5113 47.1322 94.8841 47.5395 90.7495C47.7854 88.2058 49.4838 88.0136 50.529 85.7389C50.8406 85.1049 51.2895 84.5484 51.8431 84.1096C52.2812 83.7331 53.8873 84.5323 54.3869 84.832C55.4172 85.3848 56.498 85.8377 57.6146 86.1846Z" fill="#FFCEB6"/>
<path d="M61.8186 33.2574C61.5957 34.0259 62.5871 33.8415 63.3556 33.6417C64.6928 33.2882 64.8004 32.4889 65.5535 32.5658C67.0835 32.3944 68.5453 31.8393 69.8034 30.9519C71.0836 33.1879 71.6794 35.7505 71.5172 38.3219C71.3097 41.6726 71.2251 41.9108 72.1473 45.3077C73.4845 50.8793 66.8369 60.4473 63.6092 60.2782C62.5871 60.2244 61.8801 60.9622 57.9376 58.0803C55.6859 56.4357 56.1009 55.2445 55.1325 55.3444C53.9029 55.475 58.8752 62.7682 63.8859 62.3686C64.6159 62.3071 63.2096 63.9901 68.6737 64.5511C70.2107 64.7125 77.2272 65.0045 77.281 65.1582C77.5269 65.8115 75.6978 71.3063 73.7843 73.3198C72.5681 74.5761 71.1464 75.6157 69.5805 76.3938C68.4585 76.878 67.9743 77.4313 67.9974 77.0855C68.0512 76.1863 67.8053 73.4274 67.8129 73.0739C67.8129 72.1978 66.8369 70.338 65.3076 70.2919C64.3162 70.2919 54.6714 70.5916 53.78 70.607C51.9279 70.607 50.5061 72.8587 50.6137 73.5811C50.6982 74.1114 50.3217 73.1661 50.729 76.7858C50.9211 78.4996 51.1901 78.3228 49.6992 77.5005C47.5542 76.3699 45.7641 74.6675 44.5271 72.582C44.0157 71.1613 43.6701 69.6862 43.4973 68.1862C43.4973 67.7251 43.5819 68.0248 44.6654 67.5714C46.971 66.6107 48.0776 66.0343 48.508 65.8038C51.8203 64.2668 53.2113 64.9815 51.2516 50.3414C51.1747 49.8111 51.6205 49.2962 51.0671 49.1809C50.5138 49.0657 50.4831 49.5421 49.7607 49.6113C48.7462 49.7112 47.8087 48.7506 47.3322 47.8514C46.6251 46.5142 45.6184 45.1232 46.4407 43.5093C46.663 43.0307 47.0428 42.6428 47.5166 42.4104C48.4849 42.0338 48.7693 42.4872 49.1689 42.8715C50.1987 43.8244 51.1978 47.9667 54.0413 48.1204C54.1565 48.1204 54.5485 48.2357 54.6561 47.8975C54.7637 47.5594 54.5715 47.2827 54.1412 46.5834C52.6733 44.2779 53.8876 42.3489 53.5571 38.0299C53.5031 37.5206 53.387 37.02 53.2113 36.539C53.1114 36.2546 53.1421 36.1009 53.3419 36.124C54.4639 36.2239 56.9232 35.6014 55.8242 34.8329C54.9404 34.2181 54.2872 33.0884 54.6407 33.3727C55.3686 33.9695 56.2106 34.4115 57.1153 34.6715C57.5764 34.8021 58.1297 35.0557 58.245 34.5946C58.3603 34.1335 58.245 34.0644 57.6071 32.7118C57.3074 32.0739 59.0596 34.2488 60.8349 34.2488C61.2422 34.2488 61.3267 33.6878 61.1961 33.3266C61.1346 33.1498 61.3114 33.1345 61.5957 33.0422C61.8801 32.95 61.9185 32.8962 61.8186 33.2574ZM59.5976 51.1406C59.6821 50.9255 59.4977 50.7487 59.4823 50.5105C59.4823 50.5105 59.5745 50.3183 59.6437 50.4643C60.5275 52.2703 60.9117 53.8842 62.0722 54.9832C65.469 58.1879 67.0214 50.4567 68.3816 50.1954C68.8889 50.0955 69.0195 49.4269 68.8658 49.35C67.8975 48.6507 68.1972 50.3183 62.2336 50.0263C61.5336 50.0757 60.8321 49.9544 60.1893 49.6728L60.4276 49.4883C60.5155 49.4407 60.5846 49.3645 60.6232 49.2722C60.6618 49.18 60.6677 49.0772 60.6399 48.9812C60.612 48.8851 60.5521 48.8015 60.4702 48.7441C60.3882 48.6868 60.2891 48.6592 60.1893 48.666C59.7731 48.7763 59.3976 49.0049 59.1085 49.324C58.8194 49.6432 58.6289 50.0392 58.5601 50.4643C58.3756 51.2175 59.2748 52.0014 59.5976 51.1406ZM69.8802 35.6091C70.0647 35.3094 69.9955 35.2863 69.1117 34.9097C68.3015 34.4642 67.3639 34.307 66.4527 34.464C65.8878 34.5909 65.3944 34.9327 65.0771 35.4169C64.2317 36.5851 65.077 36.954 65.4844 36.4006C67.1905 34.1566 69.4114 36.3315 69.8802 35.6091ZM67.7976 40.9886C67.9148 40.7691 67.9621 40.5189 67.9332 40.2717C67.9044 40.0245 67.8008 39.792 67.6362 39.6053C67.5313 39.5464 67.4085 39.5279 67.291 39.5534C67.1735 39.5789 67.0693 39.6466 66.9983 39.7436C66.8945 39.9352 66.8326 40.1466 66.8167 40.3639C66.8008 40.5812 66.8313 40.7994 66.9061 41.004C66.9432 41.0915 67.0053 41.1662 67.0845 41.2187C67.1638 41.2711 67.2568 41.2991 67.3518 41.2991C67.4469 41.2991 67.5399 41.2711 67.6191 41.2187C67.6984 41.1662 67.7605 41.0915 67.7976 41.004V40.9886ZM66.883 44.9772C67.2289 45.7073 66.1145 46.6064 64.9464 46.5142C64.7159 46.5142 64.4084 46.4374 64.3009 46.9215C64.1625 47.5286 65.323 47.7592 66.2221 47.398C68.8504 46.3221 68.2433 42.956 65.738 43.8936C64.4776 44.3701 64.5622 44.0166 64.201 43.8398C64.0626 43.7706 63.9012 43.8398 63.786 44.0242C63.3863 44.7159 64.4469 45.2846 65.4613 44.9234C66.4757 44.5622 66.6986 44.5929 66.883 44.9926V44.9772ZM60.4276 42.4181C60.9502 42.9791 61.8493 41.7802 60.8733 40.9425C60.2662 40.4353 59.5284 41.5189 60.4276 42.4334V42.4181ZM60.2662 36.9386C60.4737 36.3929 60.0817 36.124 58.783 36.124C57.1537 36.124 55.8165 37.7071 55.4323 39.6899C55.3477 40.1433 55.6167 40.3661 55.7935 40.32C55.872 40.2973 55.9449 40.2582 56.0071 40.2052C56.0694 40.1522 56.1197 40.0866 56.1547 40.0126C56.46 39.205 56.9372 38.4734 57.5533 37.8685C59.2287 36.6542 59.8128 38.1682 60.2662 36.954V36.9386ZM49.7991 48.1588C50.191 48.0282 50.0373 47.5517 50.022 47.5363C49.8606 47.2674 49.5532 47.4057 49.3764 47.3749C49.1997 47.3442 49.1997 47.1444 49.3764 46.9292C49.6285 46.7066 49.796 46.4037 49.8506 46.0719C49.9052 45.74 49.8436 45.3995 49.6761 45.1078C49.4244 44.457 48.9544 43.9137 48.3466 43.5708C47.3629 43.0098 46.3408 44.201 46.8634 45.2231C46.9863 45.4844 47.409 45.5689 47.386 45.0464C47.386 44.3393 47.6012 44.0857 47.9316 44.201C48.184 44.3251 48.4084 44.4996 48.5908 44.7137C48.7732 44.9278 48.9098 45.177 48.9922 45.446C49.0921 45.7534 49.2534 45.9916 48.9922 46.2145C48.3543 46.86 48.3773 47.1367 48.5464 47.5594C48.6456 47.7954 48.8279 47.9867 49.0588 48.0972C49.2897 48.2077 49.5531 48.2296 49.7991 48.1588Z" fill="#FFCEB6"/>
<path d="M78.9794 53.5611C79.748 54.3296 81.9766 50.0414 79.9093 44.731C78.7873 41.8721 78.9103 40.8269 78.2724 41.6569C77.6346 42.4869 79.8094 46.0221 79.8094 49.342C79.894 52.1471 78.4722 53.0462 78.9794 53.5611Z" fill="#000001"/>
<path d="M74.5066 36.27C75.936 37.8838 75.8284 38.0298 76.328 38.2911C76.8275 38.5524 76.7122 38.1528 76.8582 37.9991C76.0897 36.2162 74.1838 35.9472 73.5613 31.851C73.4691 31.2209 73.3308 31.1824 73.131 31.3208C72.9312 31.4591 72.8851 31.8126 73.008 32.7271C73.1972 34.0166 73.713 35.2362 74.5066 36.27Z" fill="#000001"/>
<path d="M74.4221 41.7187C74.0763 41.98 74.4913 42.7178 74.5374 42.8715C74.808 43.4468 75.0316 44.0431 75.206 44.6544C75.7901 47.2136 75.6364 47.3442 75.206 49.1733C75.1061 49.6267 75.5288 49.765 75.7901 49.3423C76.6047 48.0051 76.3126 44.1703 75.3597 42.787C75.0753 42.3489 74.8678 41.3806 74.4221 41.7187Z" fill="#000001"/>
<path d="M65.4843 36.401C67.1904 34.157 69.4421 36.3319 69.8802 35.6325C70.0646 35.3328 69.9955 35.3098 69.1117 34.9332C68.3014 34.4877 67.3639 34.3305 66.4526 34.4875C65.8877 34.6144 65.3944 34.9561 65.077 35.4404C64.2317 36.5855 65.077 36.9083 65.4843 36.401Z" fill="#000001"/>
<path d="M60.4275 49.4878C60.8425 49.1343 60.5735 48.6194 60.1816 48.6655C59.7653 48.7758 59.3899 49.0043 59.1007 49.3235C58.8116 49.6426 58.6211 50.0387 58.5523 50.4638C58.3756 51.2323 59.2747 52.0008 59.5975 51.1401C59.682 50.9249 59.4976 50.7482 59.4822 50.5099C59.4822 50.5099 59.5745 50.3178 59.6436 50.4638C60.5274 52.2698 60.9117 53.8837 62.0721 54.9826C65.4689 58.1873 67.0213 50.4561 68.3816 50.1948C68.8888 50.0949 69.0194 49.4263 68.8657 49.3495C67.8974 48.6501 68.1971 50.3178 62.2335 50.0258C61.5335 50.0751 60.832 49.9538 60.1893 49.6722L60.4275 49.4878ZM64.3699 51.0248C65.907 50.9864 66.0684 50.9787 66.4142 50.8327C66.4142 50.8327 66.614 50.8327 66.5371 50.9633C65.5304 52.8001 65.0001 54.2141 63.5861 54.7367C62.2565 54.1065 62.049 53.2765 60.9808 51.2861C60.5428 50.4792 60.9578 51.1324 64.3699 51.0479V51.0248Z" fill="#000001"/>
<path d="M66.9982 39.7589C66.8944 39.9504 66.8325 40.1619 66.8166 40.3792C66.8007 40.5964 66.8312 40.8146 66.906 41.0193C66.9431 41.1068 67.0052 41.1814 67.0844 41.2339C67.1637 41.2864 67.2567 41.3144 67.3517 41.3144C67.4468 41.3144 67.5398 41.2864 67.619 41.2339C67.6983 41.1814 67.7604 41.1068 67.7975 41.0193C67.9147 40.7997 67.962 40.5496 67.9332 40.3024C67.9043 40.0551 67.8007 39.8226 67.6361 39.6359C67.533 39.5754 67.4114 39.5545 67.294 39.5771C67.1766 39.5998 67.0714 39.6644 66.9982 39.7589Z" fill="#000001"/>
<path d="M65.4459 44.9466C66.5218 44.5623 66.6986 44.6008 66.883 44.9927C67.2288 45.7228 66.1145 46.6219 64.9464 46.5297C64.7158 46.5297 64.4084 46.4529 64.3008 46.937C64.1625 47.5441 65.3229 47.7747 66.2221 47.4135C68.8504 46.3376 68.2433 42.9715 65.7379 43.9091C64.4776 44.3856 64.5621 44.0321 64.2009 43.8553C64.0626 43.7861 63.9012 43.8553 63.7859 44.0397C63.3709 44.7391 64.4315 45.3155 65.4459 44.9466Z" fill="#000001"/>
<path d="M60.4275 42.4339C60.9501 42.9949 61.8493 41.796 60.8733 40.9583C60.2662 40.4357 59.5284 41.5193 60.4275 42.4339Z" fill="#000001"/>
<path d="M55.7932 40.3352C55.8718 40.3125 55.9447 40.2734 56.0069 40.2204C56.0692 40.1674 56.1195 40.1017 56.1544 40.0278C56.4597 39.2202 56.937 38.4886 57.5531 37.8837C59.2285 36.6541 59.8125 38.168 60.266 36.9538C60.4735 36.4081 60.0815 36.1392 58.7827 36.1392C57.1535 36.1392 55.8163 37.7223 55.432 39.705C55.3475 40.1585 55.6165 40.3813 55.7932 40.3352Z" fill="#000001"/>
<path d="M59.1133 77.1774C58.9443 73.6576 58.8059 74.1956 55.5705 74.1495C53.4648 74.1495 52.7808 74.4184 52.5733 75.1408C52.3043 76.1168 53.0421 80.9354 53.1343 81.2121C53.1794 81.355 53.2531 81.4873 53.3509 81.6009C53.4486 81.7145 53.5684 81.8071 53.703 81.873C54.027 81.9352 54.357 81.9609 54.6867 81.9498C55.8801 82.003 57.0759 81.9516 58.2603 81.7961C58.5255 81.7479 58.7726 81.6284 58.975 81.4503C59.2824 81.1583 59.1671 80.5973 59.1825 80.2822C59.2181 79.2468 59.195 78.2102 59.1133 77.1774ZM57.8837 80.9431C57.3239 81.0517 56.7555 81.1108 56.1853 81.1198C54.5253 81.1198 54.1103 81.4887 53.8798 80.5896C53.7722 80.0977 53.3265 76.2552 53.288 75.9324C53.2686 75.8283 53.2708 75.7214 53.2946 75.6182C53.3184 75.5151 53.3633 75.418 53.4264 75.333C53.5082 75.2548 53.6046 75.1935 53.7101 75.1526C53.8156 75.1118 53.9281 75.0921 54.0412 75.0947C55.0195 75.0025 56.0021 74.964 56.9846 74.9795C58.1681 74.9795 58.0297 75.4252 58.0912 75.9247C58.2372 77.0852 58.3525 79.114 58.3525 80.1285C58.3525 80.482 58.4524 80.8355 57.8837 80.9431Z" fill="#000001"/>
<path d="M56.508 76.8705C56.3576 76.9211 56.219 77.0016 56.1005 77.1071C55.9821 77.2127 55.8862 77.3412 55.8187 77.4848C55.7512 77.6284 55.7135 77.7842 55.7078 77.9428C55.7021 78.1013 55.7286 78.2594 55.7856 78.4075C56.0161 79.0454 57.63 79.4527 57.7683 77.7081C57.8144 77.1856 57.0075 76.7014 56.508 76.8705Z" fill="#000001"/>
<path d="M55.0786 78.8765C54.9235 78.8992 54.7773 78.9627 54.6549 79.0606C54.5325 79.1585 54.4383 79.2871 54.382 79.4333C54.3257 79.5796 54.3093 79.7382 54.3345 79.8929C54.3596 80.0475 54.4255 80.1927 54.5253 80.3136C55.5781 81.3357 56.7924 79.0609 55.0786 78.8765Z" fill="#000001"/>
<path d="M54.7404 75.5261C54.5279 75.5541 54.3327 75.6584 54.1913 75.8196C54.0499 75.9807 53.972 76.1878 53.9719 76.4022C53.9857 76.6268 54.0765 76.8397 54.2292 77.0049C54.3818 77.1702 54.5868 77.2776 54.8096 77.3091C55.7472 77.3091 56.2006 75.5722 54.7404 75.5261Z" fill="#000001"/>
<path d="M49.3762 47.3749C49.2148 47.3749 49.1994 47.1443 49.3762 46.9291C49.6282 46.7065 49.7957 46.4037 49.8503 46.0718C49.905 45.74 49.8433 45.3994 49.6759 45.1078C49.4241 44.4569 48.9542 43.9136 48.3464 43.5707C47.3627 43.0097 46.3406 44.2009 46.8632 45.223C46.9861 45.4843 47.4088 45.5689 47.3857 45.0463C47.3857 44.3393 47.6009 44.0857 47.9314 44.2009C48.1838 44.325 48.4081 44.4995 48.5905 44.7136C48.7729 44.9278 48.9095 45.177 48.9919 45.4459C49.0918 45.7533 49.2532 45.9916 48.9919 46.2144C48.3541 46.86 48.3771 47.1366 48.5462 47.5593C48.6493 47.7782 48.8252 47.9546 49.0438 48.0583C49.2624 48.162 49.5103 48.1867 49.7451 48.128C50.137 47.9974 49.9833 47.5209 49.9679 47.5055C49.8603 47.2673 49.5529 47.4056 49.3762 47.3749Z" fill="#000001"/>
<path d="M138.177 19.4708C136.993 15.2425 135.506 11.1049 133.728 7.09011C132.959 5.36865 132.137 4.01608 131.161 3.88543C127.049 3.3321 104.84 13.2382 101.604 17.0346C100.605 18.2028 100.313 19.1403 100.836 20.6082C101.058 21.2076 103.525 26.0569 105.155 29.008C109.182 36.3165 109.466 35.9246 114.723 34.0648C115.337 33.8496 120.986 31.4365 121.301 31.3981C121.301 31.3981 118.688 38.8756 116.513 43.9632C115.798 45.6232 111.264 53.1853 108.06 54.9375C106.523 55.7828 106.392 55.8136 106.377 55.7905C106.146 55.2603 108.075 50.7491 105.608 46.3225C102.426 40.674 97.8691 40.1744 94.8873 41.1504C93.7437 41.5184 92.7823 42.3067 92.1975 43.3561C91.2369 45.7769 91.429 46.5838 92.1514 49.9883C92.6509 52.4475 94.1572 53.6694 95.6251 54.6762C101.727 58.8646 105.185 56.6052 104.909 57.4505C103.149 62.8301 104.271 60.1326 103.372 61.8771C99.2063 70.2539 96.9777 71.3528 95.1255 73.9888C94.8105 74.4422 92.82 66.3575 89.5462 65.4276C88.2092 64.8645 86.8075 64.4695 85.3732 64.2518C83.895 64.1314 82.4094 64.1314 80.9312 64.2518C80.7929 64.2518 79.471 63.9905 78.9484 63.9521C76.9042 63.8291 78.0032 64.6053 73.5689 63.9521C72.9617 63.8599 67.8435 63.5755 67.8281 63.5678C67.0754 63.4354 66.3369 63.2321 65.6225 62.9607C65.3869 62.8516 65.1857 62.6799 65.0408 62.4645C64.8958 62.2491 64.8126 61.9981 64.8002 61.7388C64.6849 60.2786 65.0615 61.5006 66.9443 59.7176C68.6965 58.0499 68.3891 57.9193 68.8886 58.0038C69.9186 58.2422 70.9982 58.1369 71.9627 57.7041C74.3835 56.7589 75.9282 53.6464 75.8052 54.2612C75.5824 55.56 74.5833 57.0125 74.5295 57.3352C74.2913 58.6801 77.4114 57.6196 78.6103 56.9971C86.2954 52.9855 85.304 41.3656 78.6103 35.4788C72.8926 30.4144 79.617 27.4249 73.9378 20.2624C72.8849 18.9328 69.2037 16.5044 65.0922 16.3814C60.9807 16.2584 60.1738 17.9184 59.5974 17.6033C58.4045 17.1039 57.1471 16.7754 55.8624 16.6273C54.041 16.4121 48.7844 17.3574 45.8718 19.2479C45.2724 19.6322 42.498 22.0453 42.0293 23.2595C41.084 25.6342 40.1387 27.6862 40.6075 30.3836C41.376 34.6335 42.498 34.6873 40.7843 38.0687C39.5854 40.4665 36.9417 41.0813 35.2664 44.3397C34.0598 46.5607 33.2913 48.7587 34.0598 51.2871C36.8111 60.6245 46.356 60.8243 44.8189 59.2873C43.5509 57.9962 43.0821 55.2065 43.6047 54.4303C44.1119 54.8991 45.2954 58.2728 49.8373 58.7032C51.6356 58.8723 51.0515 58.0499 51.1591 60.9395C51.2744 64.1826 49.43 64.3594 46.356 65.735C44.0504 66.7879 43.6662 67.103 43.159 66.8417C42.4977 66.8074 41.8415 66.9734 41.2761 67.3182C40.5424 67.8386 39.723 68.2262 38.8553 68.4632C33.7678 70.2769 36.0195 69.7005 31.6467 71.6295C24.7301 74.7035 23.0932 86.723 22.4246 89.0747C22.3093 89.4589 20.9414 93.1554 20.9337 93.1708C20.4341 94.485 20.5341 97.29 19.5427 99.5648C19.1325 100.592 18.7986 101.647 18.5436 102.723C17.6675 105.275 17.0834 105.674 16.7376 107.073C15.3543 112.599 14.9163 112.399 19.5504 115.242C20.8107 116.011 20.3803 116.195 21.9251 116.948C22.878 117.41 23.1162 117.333 23.1393 117.563C23.9923 125.102 21.8098 124.265 25.7676 129.952C26.7089 131.359 28.1667 132.339 29.8253 132.68C32.1309 133.133 34.3595 129.806 34.959 129.813C35.3355 129.813 33.7601 134.57 34.4594 140.365C34.8053 143.162 32.9224 145.883 33.4834 147.182C33.5219 147.282 34.3365 147.504 34.4671 146.621C34.628 145.854 34.8307 145.098 35.0742 144.354C36.0656 140.511 35.3048 139.404 35.3048 137.975C35.3048 133.141 35.4047 136.3 35.8889 130.344C36.0656 128.184 35.5507 129.621 38.1252 127.485C39.2011 126.593 39.716 125.433 41.3683 122.605C42.8362 120.092 42.0984 121.959 44.0965 117.909C47.5241 110.954 46.4021 113.567 47.5087 112.852C47.7239 112.706 47.8545 112.437 48.162 112.43C48.4694 112.422 48.7153 111.238 47.8699 111.062C47.6855 111.023 47.6855 111.016 47.7546 110.862C47.9929 110.37 47.9929 110.37 48.5232 110.601C48.6771 110.673 48.8443 110.713 49.0143 110.717C49.1843 110.721 49.3534 110.69 49.5109 110.626C49.6683 110.562 49.8107 110.466 49.9291 110.343C50.0474 110.221 50.1392 110.076 50.1985 109.917C50.3314 109.121 50.241 108.304 49.9372 107.557C49.0534 105.782 51.0746 106.074 53.0112 102.654C53.1726 102.354 53.2187 102.654 53.6722 102.654C54.1256 102.654 54.8557 102.654 55.2092 102.208C55.8394 101.44 56.2236 101.747 56.4849 101.102C57.2534 99.219 57.2534 99.2805 57.4917 99.2728C59.0978 99.219 59.6051 99.1498 59.997 99.1421C64.7156 99.1421 65.1076 98.6657 65.3766 99.2113C65.6455 99.7569 66.5216 100.08 67.0365 100.256C67.5514 100.433 66.9904 100.933 67.905 101.617C68.8836 102.201 69.9123 102.698 70.979 103.1C72.516 103.584 73.1769 101.563 73.5765 102.147C74.2221 103.062 74.4527 103.077 76.1049 104.153C79.2328 106.205 76.0358 102.178 83.6133 113.206C91.1908 124.234 89.1927 121.936 89.6999 125.563C89.8576 126.581 89.8834 127.614 89.7767 128.638C89.5615 140.303 89.8536 135.447 91.7902 144.945C92.1908 146.609 92.8247 148.208 93.6731 149.695C93.919 150.04 94.8643 149.695 94.4954 148.888C93.235 146.044 93.0736 145.867 92.5203 142.978C90.5222 132.641 91.2215 145.068 90.8603 123.95C90.8603 123.358 91.6288 124.641 94.0035 125.425C96.3782 126.209 98.2918 126.709 99.8442 124.703C105.224 117.694 104.601 115.296 103.564 109.333C103.425 108.564 103.141 109.194 106.023 107.55C109.328 105.667 106.569 104.668 104.132 97.2132C103.833 96.2833 103.871 96.2372 103.01 93.6166C101.999 90.971 100.797 88.4026 99.4138 85.9315C96.7625 80.1907 99.0757 85.2552 95.5713 75.4183C95.456 75.0801 95.7557 75.2492 96.5473 74.0734C97.142 73.27 97.7808 72.5003 98.4609 71.7678C101.988 67.6486 101.22 67.9714 104.255 62.6072C105.024 61.2931 104.901 60.7705 105.37 59.2796C105.615 58.6323 105.828 57.9731 106.008 57.3045C106.084 57.0125 108.828 56.3669 110.25 54.7838C110.411 54.5993 111.564 53.4466 112.163 52.7703C113.654 51.0949 115.491 47.8134 116.106 46.945C117.804 44.5472 119.28 39.8209 119.287 39.8055C119.81 38.476 120.655 36.524 120.824 36.0091C121.109 35.1176 121.524 33.5345 121.724 33.1887C122.669 31.4903 122.231 30.8832 122.784 30.6603C128.433 28.1088 130.515 26.7101 134.227 25.127C135.207 24.6708 136.132 24.1063 136.986 23.444C138.577 22.3604 138.615 21.0539 138.177 19.4708ZM80.8159 65.2355C82.0609 65.3969 84.8275 64.7513 87.9016 65.8273C89.8689 66.5112 90.8834 66.7418 93.2811 72.3442C95.1332 76.694 94.4646 73.5508 88.8315 78.4154C87.932 79.1067 86.99 79.7407 86.011 80.3137C84.9044 81.0822 85.9649 81.0207 84.7584 77.3165C84.6047 76.8477 83.8899 76.9783 84.0283 77.5778C84.1435 78.0389 84.9582 81.3204 84.3203 81.6124C82.0148 82.6422 76.9657 83.7796 76.8197 83.8334C76.3088 83.941 75.7786 83.9118 75.2826 83.7489C74.7447 83.6797 74.3297 85.5856 78.3567 84.5174C81.961 83.5337 82.4605 83.5952 83.79 82.9804C84.7737 82.5346 84.4279 82.7806 84.4202 84.5712C84.4202 86.8767 83.9745 86.308 84.5739 89.8047C84.9121 91.7414 86.1109 93.1016 86.1109 96.3063H86.0418C86.0418 100.964 86.4798 99.803 86.9409 102.516C83.6824 99.5725 83.4058 100.318 81.4 97.3131C76.1895 89.5127 77.8264 92.702 76.7889 90.9575C74.5449 87.0227 74.4834 88.2524 72.8849 86.4387C71.4862 84.8402 70.7945 83.5414 70.1951 83.3108C67.636 82.3348 68.2892 84.2715 68.1355 80.2829C68.074 78.4846 68.0125 78.5615 68.197 78.4231C68.7811 77.9774 73.5765 75.9639 75.2519 73.1358C80.278 64.5746 75.982 64.6207 80.8159 65.2355ZM49.307 57.4736C48.1747 57.2633 47.1127 56.7736 46.2176 56.0489C45.3224 55.3242 44.6224 54.3874 44.1811 53.3236C43.2819 51.3562 41.2377 55.2756 43.4894 58.8108C43.6124 59.0183 43.4894 58.9798 43.2128 58.9184C41.1857 58.5423 39.3431 57.4979 37.9792 55.9519C33.591 51.1487 33.568 46.3763 38.9475 41.5962C45.9871 35.3405 40.8534 32.3741 41.5989 27.6247C42.4827 21.9684 46.3022 18.9405 51.8431 17.9107C54.3792 17.4419 55.0709 17.3036 57.2227 17.8262C61.7876 18.9252 62.4716 20.8387 63.048 20.516C63.3323 20.3469 63.0941 19.9396 62.902 19.6552C62.3676 18.9953 61.7065 18.4492 60.9576 18.0491C61.4572 17.5265 63.6244 17.1345 65.3305 17.1653C67.2741 17.2646 69.161 17.8544 70.8152 18.8797C72.4694 19.905 73.8371 21.3325 74.7908 23.029C76.6967 26.8177 74.1299 30.2683 76.2048 33.8496C77.2654 35.6786 85.2118 40.6048 82.6911 50.7568C82.2356 52.4149 81.2672 53.8864 79.9244 54.9605C78.3259 56.0441 77.6804 56.6589 75.8129 56.8357C76.4115 55.5001 76.733 54.0569 76.7582 52.5935C76.7582 51.9249 76.7582 51.556 76.4277 51.4638C75.713 51.3562 76.0588 53.1161 73.9915 55.0835C73.223 55.852 71.6322 57.635 69.4343 57.1124C69.9953 55.9289 72.8388 52.8779 73.2768 46.9757C73.4766 44.1399 72.0626 43.6942 72.393 39.6134C72.9925 32.1973 70.2182 30.6219 70.6101 30.1223C71.6706 28.7698 72.2009 27.5017 72.3008 24.9349C72.37 23.3057 71.8167 22.8215 71.6169 23.321C71.417 23.8206 71.832 27.7092 69.3113 29.9686C68.635 30.5681 66.3449 31.667 66.5754 31.1906C66.806 30.7141 66.9981 30.3606 67.1826 30.0455C68.6274 27.5171 68.5274 23.8513 68.4813 23.2288C68.4813 22.7754 68.0125 22.5141 67.8588 23.0136C67.6513 23.736 67.7666 26.4335 66.7291 28.8927C66.0527 30.5357 64.8279 31.8936 63.2632 32.7353C62.7713 33.035 64.8002 30.5527 64.2161 24.8196C64.1239 23.9051 64.0855 23.3825 63.7166 23.152C63.2247 22.8522 63.3554 23.8052 63.4092 24.5353C63.6815 26.7127 63.4769 28.9233 62.8097 31.0138C62.6998 31.3579 62.4989 31.666 62.2284 31.9054C61.9579 32.1448 61.6277 32.3068 61.2727 32.3741C60.973 32.4432 60.6425 31.8592 60.5042 31.2059C60.2189 29.742 60.1799 28.2407 60.3889 26.7639C60.4504 26.2029 60.7425 25.1424 60.2737 25.1885C60.157 25.19 60.0452 25.235 59.9599 25.3145C59.8746 25.3941 59.8221 25.5026 59.8126 25.6189C58.8442 30.9216 60.1968 32.059 60.1738 32.9966C59.4651 32.787 58.8136 32.4184 58.269 31.919C57.7243 31.4196 57.3007 30.8025 57.0305 30.1146C56.7923 29.1079 56.4234 28.5776 56.8922 24.7966C56.9691 24.1818 57.1612 23.6899 56.7616 23.736C56.3619 23.7821 56.1775 24.4046 56.093 24.958C55.6616 27.2868 55.796 29.6853 56.4849 31.9514C56.8461 33.1656 57.3303 33.8265 57.0613 33.7343C56.0331 33.3518 55.126 32.701 54.4342 31.8497C53.7423 30.9984 53.2908 29.9774 53.1265 28.8927C52.8883 27.3941 52.7115 26.641 52.6731 26.249C52.6039 25.4805 52.2965 25.7572 52.2043 25.8417C51.92 26.0877 51.943 26.6948 51.9891 27.2174C52.6501 34.5413 55.8932 35.1868 54.2947 35.2406C53.3555 35.1863 52.4562 34.8427 51.7202 34.2569C50.5443 33.3271 49.7335 32.013 49.43 30.545C48.6077 27.471 48.308 25.8725 49.307 22.9906C49.4607 22.5448 49.0073 22.2605 48.6999 22.5909C47.1629 24.1741 47.4626 30.9062 50.4137 34.4106C51.6049 35.817 52.5578 35.7478 52.7192 38.8603C52.7192 39.3675 52.5271 43.2792 52.4963 43.8786C52.4502 45.9306 53.5723 46.8758 53.4493 47.1525C53.3263 47.4292 52.0506 46.2764 51.4973 45.1851C50.2062 42.6106 50.283 37.8766 49.1533 38.2685C48.8075 38.3915 48.8844 38.5606 49.015 38.9679C49.1918 39.4981 49.7835 42.0957 49.5145 41.8959C47.1552 40.1053 44.3117 43.1486 45.4184 46.1227C45.8411 47.2601 47.1014 49.873 48.8536 50.3572C51.0439 50.9643 49.845 48.8202 50.6212 54.0998C50.6212 54.3765 48.9996 53.9538 47.4165 52.0248C47.3781 51.971 47.1322 51.7251 47.1168 51.7635C47.0092 51.948 46.8709 51.7635 46.7556 51.7635C46.1792 52.0479 47.893 54.584 50.5828 55.2218C50.7749 55.2679 50.7672 55.145 50.9978 57.366C51.0208 57.658 51.1976 57.8425 49.2917 57.4736H49.307ZM44.696 67.5334C47.0015 66.5727 48.1082 65.9963 48.5385 65.7658C51.8508 64.2288 53.2418 64.9435 51.2821 50.3034C51.2053 49.7731 51.651 49.2582 51.0977 49.1429C50.5443 49.0277 50.5136 49.5041 49.7912 49.5733C48.7768 49.6732 47.8392 48.7126 47.3627 47.8134C46.6557 46.4762 45.6489 45.0852 46.4712 43.4713C46.6935 42.9927 47.0733 42.6047 47.5471 42.3724C48.5155 41.9958 48.7998 42.4492 49.1994 42.8335C50.1985 43.8248 51.1976 47.9671 54.041 48.1208C54.1563 48.1208 54.5483 48.2361 54.6559 47.8979C54.7635 47.5598 54.5713 47.2831 54.141 46.5838C52.6731 44.2783 53.8873 42.3493 53.5569 38.0303C53.5029 37.5211 53.3868 37.0204 53.2111 36.5394C53.1112 36.255 53.1419 36.1013 53.3417 36.1244C54.4637 36.2243 56.923 35.6018 55.824 34.8333C54.9402 34.2185 54.287 33.0888 54.6405 33.3731C55.3684 33.9699 56.2104 34.4119 57.1151 34.6719C57.5762 34.8025 58.1295 35.0562 58.2448 34.5951C58.3601 34.1339 58.2448 34.0648 57.6069 32.7122C57.3072 32.0743 59.0594 34.2492 60.8347 34.2492C61.242 34.2492 61.3265 33.6882 61.1959 33.327C61.1344 33.1503 61.3111 33.1349 61.5955 33.0427C61.8798 32.9504 61.9183 32.8659 61.8184 33.2271C61.5955 33.9956 62.5869 33.8112 63.3554 33.6114C64.6926 33.2578 64.8002 32.4586 65.5533 32.5354C67.0833 32.3641 68.5451 31.809 69.8032 30.9216C71.0833 33.1576 71.6792 35.7201 71.5169 38.2916C71.3094 41.6423 71.2249 41.8805 72.1471 45.2773C73.4843 50.849 66.8367 60.417 63.609 60.2479C62.5869 60.1941 61.8798 60.9319 57.9374 58.0499C55.6857 56.4053 56.1007 55.2141 55.1323 55.3141C53.9027 55.4447 58.875 62.7379 63.8857 62.3382C64.6157 62.2767 63.2094 63.9598 68.6735 64.5208C70.2105 64.6822 77.227 64.9742 77.2808 65.1279C77.5267 65.7812 75.6976 71.276 73.784 73.2895C72.5679 74.5458 71.1462 75.5854 69.5803 76.3635C68.4583 76.8477 67.9741 77.401 67.9972 77.0552C68.051 76.156 67.805 73.3971 67.8127 73.0436C67.8127 72.1675 66.8367 70.3077 65.3074 70.2616C64.316 70.2616 54.6712 70.5613 53.7798 70.5766C51.9277 70.5766 50.5059 72.8284 50.6135 73.5508C50.698 74.081 50.3215 73.1358 50.7288 76.7555C50.9209 78.4692 51.1899 78.2925 49.699 77.4702C47.554 76.3395 45.7639 74.6372 44.5269 72.5517C44.0155 71.131 43.6699 69.6559 43.4971 68.1558C43.5355 67.6871 43.597 67.9868 44.6806 67.5334H44.696ZM65.7454 71.4374C65.8069 71.4374 65.8838 71.4374 65.9299 71.5065C66.6984 72.2213 66.6446 72.1214 65.8069 72.1214C55.409 71.5757 51.5895 72.9667 52.627 71.9753C53.4877 71.153 53.6645 71.6833 60.7425 71.3605C62.4102 71.2439 64.0835 71.2285 65.7531 71.3144C65.9376 71.3605 65.684 71.4066 65.7301 71.4374H65.7454ZM19.5657 103C20.7877 98.5273 21.1027 99.1575 21.3948 96.8135C22.048 91.2956 22.9779 91.7106 23.7848 88.0987C24.4175 84.3746 25.6039 80.7662 27.3046 77.3933C28.5535 74.8975 30.7089 72.9731 33.3297 72.0138C38.7093 69.3931 35.4278 70.7457 39.2396 69.4008C43.4203 67.9253 42.2367 66.2038 42.9515 70.7765C43.2085 72.7205 44.1647 74.5044 45.6412 75.7948C46.3667 76.5477 47.1735 77.2179 48.0467 77.7929C52.1736 80.2906 50.5904 78.2771 51.2206 83.0649C51.3052 83.7335 50.8594 83.2955 49.8911 85.0784C48.8306 87.0381 48.039 87.3455 47.4703 88.2831C46.3329 90.1506 47.0399 90.1967 45.8949 96.3448C44.965 101.348 45.0111 100.602 43.9121 101.909C43.7815 102.07 42.6517 101.909 42.7055 103.208C42.7055 103.584 42.6441 103.484 42.3443 103.83C41.8832 104.368 41.9063 104.061 41.4836 104.099C41.3735 104.105 41.2672 104.142 41.1762 104.204C41.0852 104.267 41.0128 104.353 40.967 104.453C40.9212 104.553 40.9036 104.664 40.9161 104.774C40.9285 104.883 40.9707 104.988 41.0379 105.075C41.1378 105.244 41.1301 105.206 39.9466 106.435C39.7468 106.643 39.5239 106.543 39.3164 106.989C38.5313 107.86 37.6611 108.65 36.7189 109.348C36.5882 108.887 36.8495 106.274 36.642 104.975C36.2347 102.301 36.104 103.192 35.9657 101.501C35.7505 98.7656 36.7342 98.1584 36.0733 94.6771C35.4124 91.1957 34.8206 88.8825 34.5901 86.7307C33.8907 80.0601 34.713 79.5759 33.8216 79.768C32.9301 79.9601 33.3758 83.6106 33.3912 84.3099C33.5142 89.1592 35.2126 94.1391 35.1895 97.0825C35.1895 98.4351 34.7054 100.003 34.8437 101.371C35.1818 104.591 35.3509 103.215 35.6122 105.767C35.7121 106.82 35.5507 108.226 35.5738 108.595C35.6199 109.363 26.6668 108.856 23.1162 107.957C21.0797 107.434 20.8722 107.188 19.2737 107.188C18.9935 107.231 18.7085 107.231 18.4283 107.188C18.2961 107.165 18.1609 107.165 18.0287 107.188C17.2833 107.181 18.9356 105.306 19.5657 103ZM17.3371 110.309C17.1142 110.309 17.1449 110.393 17.5215 108.449C17.5215 108.272 17.5983 108.111 17.7674 108.111C22.7627 108.203 19.6272 108.71 27.8118 109.717C35.2203 110.624 35.5507 109.102 35.6276 110.093C35.6387 110.159 35.6317 110.227 35.6074 110.289C35.583 110.352 35.5422 110.406 35.4892 110.447C34.9897 110.831 33.6141 112.238 32.6534 111.984C20.7569 111.492 20.0729 110.432 17.3371 110.278V110.309ZM43.5586 116.71C41.7833 120.883 39.401 123.681 38.4787 125.333C37.3875 127.285 34.1905 128.338 31.7159 131.012C31.3921 131.227 31.0438 131.403 30.6784 131.535C30.217 131.631 29.7377 131.597 29.2951 131.435C27.4506 130.759 26.4055 128.96 25.6446 127.93C23.5236 125.064 24.6302 123.558 24.1768 113.851C24.1076 112.483 23.8848 112.499 24.3228 112.514C25.3676 112.676 26.4242 112.751 27.4814 112.737C28.1192 112.676 29.272 112.937 29.9175 112.922H31.1933C31.238 112.943 31.2774 112.975 31.3085 113.014C29.8791 113.844 26.6514 116.61 27.1893 117.171C27.5044 117.494 27.8733 117.241 28.1577 116.895C30.5785 114.005 33.5372 113.344 35.6122 111.653C40.1464 108.011 36.204 108.741 41.4913 114.897C42.6594 116.257 43.6431 116.487 43.5586 116.68V116.71ZM43.8429 115.657C41.5758 113.944 40.7689 112.629 39.3318 110.093C38.5633 108.787 38.8092 108.764 39.5239 108.303C41.2761 112.46 43.8737 114.289 44.4116 115.027C44.1119 115.619 44.0504 115.765 43.8429 115.627V115.657ZM45.4261 113.183C44.9726 113.882 44.9419 114.182 44.7575 113.997C40.4384 109.548 40.523 108.072 40.2771 107.665C40.1925 107.534 40.4845 107.242 40.9149 106.743C41.084 106.543 41.1762 106.804 41.23 106.82C41.2838 106.835 41.4375 106.919 41.376 107.073V107.119C41.376 107.65 41.3299 107.888 41.9755 108.126C42.3367 108.272 41.9755 108.549 42.1983 108.971C42.5288 109.625 42.8362 109.156 42.8208 109.525C42.8208 109.74 42.9361 110.37 43.3972 110.424C43.8583 110.478 43.5125 111.246 44.427 111.192C44.6729 111.192 44.6268 111.346 44.6422 111.446C44.7728 112.161 45.2493 111.723 45.3569 112.099C45.3569 112.199 45.3569 112.345 45.4337 112.407C45.695 112.668 45.5875 112.898 45.4261 113.152V113.183ZM46.9631 110.193C46.5558 110.962 46.5711 111.369 46.1485 111.185C45.941 111.185 45.9025 111.246 45.9025 111.123C45.9025 110.355 45.2032 110.554 45.134 110.501C45.0649 110.447 45.134 110.293 45.0879 110.193C44.8574 109.356 44.1273 109.855 44.1273 109.371C44.1273 108.748 43.4664 109.017 43.5355 108.679C43.5355 108.618 43.5355 108.549 43.4894 108.48C43.2896 107.311 42.767 108.357 42.767 107.357C42.767 106.589 42.1215 106.804 42.2291 106.589C42.5672 105.82 41.8909 105.659 42.0984 105.429C43.2589 104.184 42.5979 104.514 43.5048 105.682C44.4116 106.85 43.9121 107.219 44.8113 107.703C45.5798 108.118 45.1725 108.41 46.8094 109.625C47.1706 109.809 47.1629 109.809 46.9708 110.163L46.9631 110.193ZM48.5462 109.286C48.7307 108.956 48.869 108.602 49.0765 108.287C49.284 107.972 49.2379 108.871 49.2148 108.871C49.4684 110.132 48.4463 109.448 48.5539 109.256L48.5462 109.286ZM56.2313 94.9614C56.4962 95.2834 56.6688 95.6712 56.7308 96.0835C56.8307 96.4985 56.4465 97.0287 56.0238 96.7828C55.0141 96.2934 53.9363 95.9592 52.8268 95.7914C52.7172 95.7829 52.6079 95.8114 52.5163 95.8723C52.4248 95.9332 52.3563 96.023 52.3217 96.1275C52.2872 96.2319 52.2887 96.3448 52.3259 96.4483C52.3632 96.5518 52.434 96.6398 52.5271 96.6983C53.1496 97.0902 56.4695 97.3054 56.4311 98.7118C56.4311 98.9654 56.4311 98.8501 55.7548 100.372C55.6088 100.725 55.1016 100.848 54.7788 101.232C54.456 101.617 53.2418 101.901 53.4493 101.432C54.0103 100.256 53.7106 100.049 54.1102 100.172C55.0939 100.464 55.2246 99.7031 54.7788 99.4495H54.7097C54.287 98.7809 53.4339 99.3573 52.9267 99.0883C52.4195 98.8194 52.1582 99.2805 51.7739 99.6955C51.6955 99.7562 51.6384 99.8403 51.6108 99.9356C51.5831 100.031 51.5865 100.132 51.6202 100.226V100.395C51.8508 100.541 51.92 100.556 52.2504 100.318C52.8268 99.9106 52.4963 99.9414 52.9037 100.064C53.1496 100.141 52.1351 102.308 51.9353 102.623C51.3515 103.473 50.6649 104.248 49.8911 104.929C48.9689 105.828 49.2609 105.767 48.3541 107.465C47.5856 109.002 47.6471 108.918 47.4396 108.779C46.771 108.303 46.671 108.364 46.2253 107.65C45.6182 106.581 44.9957 106.966 44.8804 106.151C44.7651 105.336 44.0043 105.075 43.6662 103.961C43.4664 103.3 45.4875 102.262 46.0716 99.9798L46.917 95.7761C47.77 90.5118 47.1322 94.8846 47.5395 90.75C47.7854 88.2062 49.4838 88.0141 50.529 85.7393C50.8406 85.1054 51.2895 84.5489 51.8431 84.1101C52.2812 83.7335 53.8873 84.5328 54.3869 84.8325C55.4005 85.401 56.4658 85.872 57.5685 86.2389C57.9297 86.4617 57.3303 87.0765 56.508 87.0074C53.749 86.869 53.3417 84.7018 51.8969 87.2379C51.4835 87.9905 51.0321 88.7215 50.5443 89.4282C50.2216 90.043 51.5127 90.7346 52.0813 90.9652C53.1035 91.4263 53.334 91.165 55.0247 91.7337C57.6454 92.6021 56.6693 94.1084 56.2006 93.8702C55.2476 93.386 54.6635 93.532 53.895 93.2323C53.1265 92.9326 52.6424 92.5099 52.4579 92.8173C51.7355 94.1545 55.2169 94.2544 56.2006 94.9307L56.2313 94.9614ZM57.3456 98.0355C57.2765 97.6359 57.0075 97.6435 57.3072 97.267C57.5736 96.9057 57.7243 96.4722 57.7394 96.0236C57.7544 95.575 57.6333 95.1323 57.3918 94.7539C57.215 94.4926 57.4379 94.4465 57.8221 93.6319C57.9201 93.1115 57.8241 92.5731 57.5522 92.1186C57.2803 91.6641 56.8515 91.3249 56.3466 91.165C54.2947 90.458 55.3091 90.6117 53.5876 90.3504C52.9421 90.2505 52.9421 90.312 52.9113 89.8432C52.7346 87.5376 52.5809 87.5376 53.1419 86.992C53.3352 87.0307 53.5217 87.0981 53.6952 87.1918C54.5577 87.7033 55.5437 87.9691 56.5464 87.9603C58.8519 87.8604 59.1901 86.1236 58.3447 85.5011C57.9297 85.2014 56.8077 84.9247 55.8086 84.4021C55.0862 84.0256 53.2418 82.9112 52.3734 83.0803C51.8431 83.1802 52.0276 79.5682 51.4512 75.2876C51.1284 72.9821 52.5425 73.2818 54.5944 73.1819C57.1509 72.9819 59.7165 72.9229 62.2795 73.0051C67.8742 72.9513 67.1057 72.129 67.244 81.2051C67.244 83.3339 67.367 83.0649 67.0596 83.2109C62.6407 85.3551 64.7541 82.9727 61.4649 88.1986C61.0652 88.8441 60.7962 89.4512 61.3726 89.9277C62.5331 90.896 63.8549 89.9892 64.6157 89.0055C65.8377 87.4301 65.4611 87.6452 67.0903 87.2533C67.2901 87.2072 67.367 87.2533 67.3747 87.4685C67.3982 87.6573 67.3982 87.8483 67.3747 88.0372C67.3747 89.8585 67.6667 89.5742 66.1604 89.9354C63.7319 90.5118 64.3852 91.9796 63.0864 95.1536C62.5561 96.4293 63.5321 97.3592 64.6234 97.6205C65.3228 97.7972 65.123 97.6743 65.2459 97.828C65.023 97.9125 57.3687 98.389 57.3149 98.0432L57.3456 98.0355ZM101.035 120.706C100.444 121.583 100.613 121.805 100.182 122.244C98.7836 123.642 98.7606 125.479 96.1169 124.757C93.4733 124.034 91.2138 123.081 89.8152 120.822C88.6547 118.962 91.0294 121.928 82.5527 109.725C77.8956 103.015 79.9244 104.99 75.5363 102.447C74.2099 101.346 73.102 100.006 72.2701 98.4966C72.2502 98.4312 72.2146 98.3718 72.1663 98.3235C72.1179 98.2752 72.0585 98.2396 71.9931 98.2199C71.9277 98.2001 71.8585 98.1968 71.7915 98.2102C71.7245 98.2236 71.6619 98.2533 71.6092 98.2968C71.4785 98.3813 71.4708 98.5581 71.5477 99.0115C71.5861 99.2728 71.8243 99.5494 71.5477 99.4726C70.0107 99.0192 70.2489 100.018 70.7792 100.241C72.8542 101.125 72.8618 101.11 71.8397 101.87C71.417 102.185 71.1481 101.87 69.442 101.102C67.9511 100.456 68.4199 100.549 69.0039 98.5043C69.2191 97.7358 69.0039 96.9672 69.7109 96.5215C70.1797 96.2141 71.8781 95.6531 71.5323 95.1536C71.0866 94.5234 70.7638 95.0152 69.7033 95.3918C69.3079 95.5443 68.9586 95.7963 68.6893 96.1235C68.42 96.4507 68.2398 96.842 68.1662 97.2593C67.6283 99.6417 67.7743 99.2651 67.0826 99.0576C65.6993 98.6426 66.5216 97.8818 66.7522 96.4293C66.952 95.1612 66.7522 94.777 67.1364 94.1238C67.659 93.2553 69.9031 93.2092 70.3104 92.0565C70.4948 91.5493 70.1644 91.3725 69.7801 91.5723C69.6272 91.7037 69.4654 91.8244 69.296 91.9335C66.3218 93.1247 66.122 92.702 65.6993 96.2525C65.6302 96.8059 65.5764 96.7828 65.3151 96.7828C64.9677 96.7458 64.6415 96.5975 64.3852 96.3601C63.5091 95.753 64.1931 95.8452 64.9923 92.1641C65.2152 91.1189 66.0298 90.9883 67.6206 90.6271C68.5208 90.2882 69.392 89.8769 70.2258 89.3974C71.3325 88.8518 70.9021 88.1371 70.5486 88.1909C69.6264 88.3062 69.6187 85.5856 67.6667 86.0852C65 86.7691 65.2843 86.6385 64.4697 87.8066C64.031 88.4758 63.4133 89.0083 62.6868 89.3436C62.6868 89.3436 62.2334 89.4282 62.1181 89.2591C61.926 88.9748 62.3871 88.7903 63.6551 86.2927C64.1316 85.3243 64.8232 85.2782 66.7291 84.5635C67.3977 84.3099 68.2662 83.6182 69.5649 84.1178C70.4948 84.4713 70.4718 85.455 72.7389 87.7913C73.1539 88.2139 74.0146 87.8527 76.0819 91.58C76.9196 93.117 75.9974 90.9729 80.6929 97.9586C82.2761 100.333 83.1752 100.525 84.8429 101.84C85.3194 102.208 86.6873 103.607 87.3713 104.145C88.0553 104.683 97.3619 112.445 98.1304 111.83C98.8989 111.215 97.9613 110.777 97.139 110.224C89.0466 104.844 94.2494 108.034 98.1919 106.32C99.5906 105.721 100.713 106.32 101.689 106.32C102.457 106.32 103.302 114.09 103.418 114.912C103.472 116.457 101.888 119.408 101.005 120.714L101.035 120.706ZM68.32 87.2764C68.5966 87.4685 68.8348 88.1986 69.1807 88.6366C69.3113 88.8057 69.1807 88.8287 68.4583 89.213C68.2431 89.3206 68.3276 88.0987 68.32 87.2764ZM105.739 103.769C106.269 104.96 106.392 104.998 106.154 104.99C102.042 104.914 104.401 105.505 100.144 104.99C98.2226 104.768 98.092 105.49 96.2322 105.698C93.9267 105.959 94.2495 105.767 93.6731 105.897C92.5972 105.728 91.9516 106.666 91.4828 106.251C88.77 103.984 89.2465 104.929 92.8046 104.214C92.9891 104.214 96.3936 103.054 97.7846 103.292C98.361 103.392 98.384 103.231 100.136 102.954C101.134 102.803 102.151 102.842 103.133 103.069C105.454 103.492 105.531 103.415 105.739 103.769ZM96.7855 82.4655C98.7222 88.2908 99.4138 86.8383 102.549 95.63C102.584 95.7043 102.613 95.7814 102.634 95.8606C102.803 97.6589 105.324 102.385 104.939 102.285C101.02 101.332 99.6982 102.016 98.7299 102.201C97.7615 102.385 98.2073 102.109 97.0161 102.239C93.7115 102.593 93.8191 103.008 92.405 103.277C89.6384 103.73 90.2071 103.538 89.8152 103.646C89.6377 103.732 89.4437 103.779 89.2465 103.784C89.0601 103.761 88.8717 103.761 88.6854 103.784C87.9554 103.868 88.2935 103.069 87.9169 101.717C87.4372 100.358 87.1576 98.9367 87.0869 97.4975C87.4405 90.3888 84.9889 92.4407 85.3347 85.0092C85.5576 80.2291 84.6123 83.3032 89.9458 78.8612C91.3522 77.6777 94.5569 75.7871 94.7029 76.1176C95.6251 78.4692 96.3091 81.0899 96.7855 82.4962V82.4655ZM105.147 56.0749C99.4369 56.8895 93.7422 52.8856 93.235 49.9729C92.7662 47.4599 91.8824 44.7163 93.8037 43.0563C94.3011 42.6016 94.8941 42.264 95.5391 42.0685C96.1842 41.873 96.8648 41.8245 97.531 41.9266C98.1159 41.9637 98.6967 42.0485 99.2678 42.1802C102.826 43.3561 104.932 47.0065 105.216 47.8672C106.423 51.5791 105.531 56.0211 105.147 56.0749ZM101.858 19.1864C102.073 15.1057 127.38 5.09967 129.562 5.10736C129.908 5.10736 130.246 4.28506 126.657 10.0258C123.545 14.9827 122.231 17.6033 121.047 18.9098C120.548 19.4631 120.11 20.0933 117.243 20.0241C115.793 20.0341 114.344 19.9674 112.901 19.8243C109.882 19.3796 106.838 19.1229 103.787 19.0558C102.457 19.1634 102.303 19.2172 102.096 19.3478C101.888 19.4785 101.812 19.3863 101.858 19.1634V19.1864ZM107.291 30.545C106.361 29.008 102.388 21.5304 102.242 21.2153C102.096 20.9002 101.988 20.6389 101.981 20.6312C101.973 20.6236 101.881 20.4314 102.204 20.2624C102.693 20.074 103.218 19.9979 103.741 20.0395C104.271 20.0395 105.124 20.0011 106.277 20.0779C107.652 20.1701 108.974 20.516 111.856 20.7235C112.248 20.7235 109.942 27.202 109.228 33.2886C108.498 32.4281 107.85 31.5019 107.291 30.522V30.545ZM135.872 22.8599C135.007 23.5525 134.04 24.1072 133.005 24.5045C129.762 25.8648 130.454 25.8725 126.896 27.5171C122.438 29.5613 122.677 29.6612 122.715 29.2462C122.83 28.0166 122.561 24.3585 122.554 23.6515C122.554 23.1596 122.023 22.9214 121.724 23.3902C121.332 24.005 121.647 24.7658 121.724 25.8571C121.693 26.4485 121.693 27.041 121.724 27.6324C121.785 28.184 121.785 28.7407 121.724 29.2923C121.662 30.2683 122.323 29.7842 115.86 32.5354C114.154 33.2578 110.165 35.1945 110.104 33.3654C110.058 31.7593 112.363 22.7677 112.778 21.1923C112.917 20.6697 113.009 20.7081 113.278 20.7081C118.219 20.7081 120.34 22.3066 122.769 18.2796C124.544 15.3285 124.475 15.6436 124.644 15.7512C124.813 15.8588 130.439 18.8637 131.668 19.5092C137.555 22.5756 136.756 22.0914 135.872 22.8522V22.8599ZM136.94 20.9463C135.983 20.6203 135.073 20.168 134.235 19.6014C134.027 19.5092 132.998 18.9943 128.54 16.6581C125.097 14.8521 124.882 15.0365 125.067 14.706C125.251 14.3756 130.246 6.10642 131.007 5.39939C131.384 5.03819 131.407 5.17652 132.368 6.85956C134.353 11.0917 135.965 15.4889 137.186 20.0011C137.278 20.3699 137.478 20.9694 136.94 20.9386V20.9463Z" fill="#000001"/>
<path d="M46.2486 33.1736C46.1564 32.8738 45.6569 33.0045 45.6031 33.235C45.1881 35.0333 46.0872 37.1314 43.8816 40.3822C43.2899 42.3342 38.5712 44.2247 37.7335 47.8598C37.5184 48.7512 37.8872 49.2123 38.2408 48.8204C38.5943 48.4285 38.2792 48.3055 39.0093 47.1143C41.115 43.6176 44.8653 43.0873 46.1103 37.8922C46.3961 36.3355 46.4427 34.7443 46.2486 33.1736Z" fill="#000001"/>
<path d="M45.1648 30.6917C45.7489 30.9146 45.6413 30.3305 45.526 29.7157C44.9189 26.4803 45.795 25.6733 46.1485 24.5052C46.2945 24.0287 45.5875 23.7751 45.38 24.2746C43.9045 27.1642 44.3118 30.3843 45.1648 30.6917Z" fill="#000001"/>
<path d="M39.6778 53.169C39.6778 56.4275 40.8459 55.8434 40.7921 55.536C40.5923 54.2526 40.2926 52.9308 40.8382 51.6166C41.9218 49.0037 43.8508 48.0508 43.1976 47.4744C42.5443 46.898 39.6624 50.7405 39.6778 53.169Z" fill="#000001"/>
</svg>
