<svg width="156" height="156" viewBox="0 0 156 156" fill="none" xmlns="http://www.w3.org/2000/svg">
<path d="M126.953 87.8926C127.034 87.959 127.093 88.0479 127.124 88.1482C127.154 88.2484 127.154 88.3554 127.124 88.4557C127.094 88.556 127.034 88.645 126.953 88.7115C126.872 88.778 126.773 88.819 126.669 88.8293C126.565 88.8396 126.46 88.8188 126.367 88.7694C126.275 88.72 126.199 88.6443 126.15 88.5519C126.101 88.4595 126.08 88.3545 126.09 88.2503C126.1 88.146 126.141 88.0471 126.208 87.9662C126.297 87.8577 126.425 87.7891 126.565 87.7753C126.705 87.7615 126.844 87.8037 126.953 87.8926Z" fill="black"/>
<path d="M129.23 89.7715C129.311 89.8384 129.37 89.9277 129.4 90.0282C129.43 90.1287 129.429 90.2358 129.399 90.3361C129.368 90.4363 129.308 90.5251 129.226 90.5913C129.145 90.6575 129.046 90.698 128.941 90.7079C128.837 90.7177 128.732 90.6964 128.64 90.6466C128.548 90.5968 128.472 90.5207 128.423 90.4281C128.374 90.3354 128.353 90.2302 128.364 90.1259C128.375 90.0216 128.416 89.9227 128.483 89.8419C128.527 89.7881 128.582 89.7436 128.643 89.7109C128.705 89.6782 128.772 89.6581 128.842 89.6515C128.911 89.645 128.981 89.6522 129.048 89.6728C129.115 89.6934 129.176 89.7269 129.23 89.7715Z" fill="black"/>
<path d="M131.508 91.6507C131.588 91.7177 131.648 91.8072 131.678 91.9078C131.708 92.0085 131.707 92.1158 131.676 92.2162C131.646 92.3166 131.586 92.4055 131.504 92.4718C131.423 92.5381 131.323 92.5787 131.219 92.5886C131.114 92.5984 131.009 92.5771 130.916 92.5272C130.824 92.4773 130.748 92.4011 130.699 92.3082C130.65 92.2154 130.63 92.11 130.64 92.0056C130.651 91.9011 130.693 91.8021 130.76 91.7212C130.85 91.613 130.979 91.5448 131.119 91.5316C131.259 91.5184 131.399 91.5612 131.508 91.6507Z" fill="black"/>
<path d="M74.9873 71.2423C74.9873 71.3829 75.0432 71.5178 75.1426 71.6173C75.2421 71.7168 75.377 71.7726 75.5177 71.7726C75.6583 71.7726 75.7932 71.7168 75.8927 71.6173C75.9922 71.5178 76.048 71.3829 76.048 71.2423C76.048 71.1016 75.9922 70.9667 75.8927 70.8673C75.7932 70.7678 75.6583 70.7119 75.5177 70.7119C75.377 70.7119 75.2421 70.7678 75.1426 70.8673C75.0432 70.9667 74.9873 71.1016 74.9873 71.2423Z" fill="black"/>
<path d="M74.9873 74.1937C74.9873 74.3344 75.0432 74.4693 75.1426 74.5687C75.2421 74.6682 75.377 74.7241 75.5177 74.7241C75.6583 74.7241 75.7932 74.6682 75.8927 74.5687C75.9922 74.4693 76.048 74.3344 76.048 74.1937C76.048 74.053 75.9922 73.9181 75.8927 73.8187C75.7932 73.7192 75.6583 73.6633 75.5177 73.6633C75.377 73.6633 75.2421 73.7192 75.1426 73.8187C75.0432 73.9181 74.9873 74.053 74.9873 74.1937Z" fill="black"/>
<path d="M74.9873 77.1451C74.9873 77.2858 75.0432 77.4207 75.1426 77.5201C75.2421 77.6196 75.377 77.6755 75.5177 77.6755C75.6583 77.6755 75.7932 77.6196 75.8927 77.5201C75.9922 77.4207 76.048 77.2858 76.048 77.1451C76.048 77.0044 75.9922 76.8695 75.8927 76.7701C75.7932 76.6706 75.6583 76.6147 75.5177 76.6147C75.377 76.6147 75.2421 76.6706 75.1426 76.7701C75.0432 76.8695 74.9873 77.0044 74.9873 77.1451Z" fill="black"/>
<path d="M74.9873 80.0965C74.9873 80.2372 75.0432 80.3721 75.1426 80.4715C75.2421 80.571 75.377 80.6269 75.5177 80.6269C75.6583 80.6269 75.7932 80.571 75.8927 80.4715C75.9922 80.3721 76.048 80.2372 76.048 80.0965C76.048 79.9559 75.9922 79.821 75.8927 79.7215C75.7932 79.622 75.6583 79.5662 75.5177 79.5662C75.377 79.5662 75.2421 79.622 75.1426 79.7215C75.0432 79.821 74.9873 79.9559 74.9873 80.0965Z" fill="black"/>
<path d="M146.62 88.2039L141.026 94.9817C140.902 95.1308 140.822 95.3117 140.795 95.5039C140.768 95.6961 140.796 95.892 140.875 96.0693C140.954 96.2465 141.081 96.3982 141.241 96.507C141.402 96.6159 141.59 96.6776 141.784 96.6851H141.806C142.503 96.7011 143.182 96.9129 143.764 97.2965C144.347 97.6801 144.81 98.2199 145.1 98.8542C145.39 99.4885 145.496 100.192 145.405 100.883C145.315 101.575 145.031 102.227 144.588 102.765C144.144 103.303 143.557 103.706 142.896 103.926C142.234 104.147 141.524 104.177 140.846 104.012C140.168 103.848 139.55 103.497 139.062 102.998C138.575 102.499 138.238 101.873 138.089 101.191C138.088 101.184 138.086 101.177 138.084 101.17C138.04 100.981 137.943 100.808 137.806 100.671C137.669 100.534 137.496 100.438 137.307 100.394C137.118 100.35 136.92 100.359 136.737 100.422C136.553 100.484 136.39 100.597 136.267 100.747L130.624 107.581L123.589 101.774C123.496 101.634 123.438 101.474 123.42 101.307C123.402 101.139 123.425 100.97 123.486 100.814C123.548 100.657 123.647 100.518 123.774 100.408C123.901 100.298 124.053 100.22 124.217 100.182H124.239C124.92 100.034 125.547 99.6969 126.046 99.2097C126.546 98.7225 126.898 98.1046 127.062 97.4266C127.227 96.7486 127.197 96.038 126.977 95.376C126.757 94.714 126.355 94.1274 125.817 93.6833C125.278 93.2392 124.626 92.9556 123.934 92.8648C123.243 92.774 122.539 92.8798 121.905 93.17C121.27 93.4603 120.731 93.9233 120.347 94.506C119.963 95.0887 119.751 95.7677 119.735 96.4652V96.4838C119.73 96.652 119.683 96.8163 119.6 96.9625C119.517 97.1087 119.399 97.2324 119.257 97.323C119.115 97.4136 118.954 97.4684 118.786 97.4826C118.618 97.4967 118.45 97.4699 118.295 97.4044L111.192 91.5425L111.097 91.4651L116.96 84.3629C117.025 84.2078 117.052 84.0393 117.038 83.8716C117.024 83.704 116.969 83.5423 116.879 83.4003C116.789 83.2583 116.665 83.1404 116.52 83.0565C116.374 82.9727 116.21 82.9255 116.042 82.9189H116.02C115.322 82.903 114.643 82.6912 114.061 82.3075C113.478 81.9239 113.015 81.3839 112.725 80.7495C112.434 80.115 112.329 79.4117 112.419 78.7199C112.51 78.0282 112.794 77.376 113.238 76.8379C113.682 76.2998 114.269 75.8975 114.931 75.6772C115.593 75.4569 116.303 75.4274 116.981 75.592C117.659 75.7566 118.277 76.1088 118.764 76.6082C119.252 77.1076 119.588 77.734 119.736 78.4159C119.739 78.4229 119.741 78.4302 119.742 78.4375C119.78 78.6013 119.857 78.7533 119.967 78.8806C120.076 79.008 120.215 79.1068 120.372 79.1686C120.528 79.2304 120.697 79.2534 120.864 79.2356C121.031 79.2178 121.191 79.1596 121.331 79.0662L127.094 72.0879L134.023 77.8065C134.173 77.9299 134.285 78.0927 134.348 78.2766C134.41 78.4606 134.42 78.6583 134.376 78.8475C134.332 79.0367 134.237 79.2099 134.1 79.3476C133.963 79.4853 133.79 79.582 133.601 79.6268H133.579C132.897 79.7746 132.271 80.1114 131.771 80.5986C131.272 81.0859 130.92 81.7038 130.755 82.3818C130.591 83.0598 130.62 83.7704 130.84 84.4324C131.061 85.0944 131.463 85.681 132.001 86.1251C132.539 86.5692 133.191 86.8528 133.883 86.9436C134.575 87.0344 135.278 86.9286 135.913 86.6383C136.547 86.3481 137.087 85.8851 137.471 85.3024C137.854 84.7196 138.066 84.0407 138.082 83.3432C138.081 83.3371 138.081 83.3307 138.082 83.3246C138.089 83.1306 138.151 82.9424 138.26 82.7815C138.368 82.6206 138.52 82.4934 138.697 82.4141C138.874 82.3349 139.07 82.3069 139.263 82.3333C139.455 82.3597 139.636 82.4395 139.785 82.5635L146.62 88.2039ZM131.578 92.3988C131.645 92.3179 131.687 92.2189 131.698 92.1144C131.708 92.01 131.688 91.9046 131.639 91.8118C131.59 91.7189 131.514 91.6427 131.422 91.5928C131.329 91.5429 131.224 91.5215 131.119 91.5314C131.015 91.5412 130.916 91.5819 130.834 91.6482C130.753 91.7145 130.693 91.8034 130.662 91.9038C130.631 92.0042 130.63 92.1115 130.66 92.2122C130.69 92.3128 130.75 92.4023 130.831 92.4693C130.939 92.5587 131.079 92.6016 131.219 92.5884C131.359 92.5751 131.488 92.507 131.578 92.3988ZM129.301 90.5197C129.368 90.4389 129.409 90.34 129.42 90.2354C129.431 90.1309 129.411 90.0255 129.362 89.9325C129.313 89.8396 129.237 89.7632 129.145 89.7132C129.053 89.6631 128.947 89.6416 128.843 89.6514C128.738 89.6612 128.639 89.7017 128.557 89.768C128.476 89.8343 128.416 89.9233 128.385 90.0237C128.354 90.1241 128.353 90.2315 128.383 90.3322C128.413 90.4329 128.472 90.5224 128.553 90.5894C128.607 90.634 128.669 90.6676 128.735 90.6883C128.802 90.7089 128.872 90.7162 128.941 90.7097C129.011 90.7033 129.078 90.6831 129.14 90.6505C129.202 90.6179 129.256 90.5735 129.301 90.5197ZM127.027 88.6398C127.093 88.5591 127.134 88.4604 127.145 88.3563C127.155 88.2522 127.134 88.1474 127.085 88.055C127.036 87.9626 126.961 87.8868 126.869 87.8372C126.777 87.7876 126.672 87.7663 126.568 87.7761C126.464 87.7859 126.365 87.8264 126.284 87.8923C126.203 87.9583 126.143 88.0468 126.112 88.1467C126.081 88.2466 126.08 88.3535 126.11 88.4538C126.14 88.5541 126.198 88.6433 126.279 88.7103C126.332 88.755 126.394 88.7886 126.461 88.8093C126.528 88.8299 126.598 88.8372 126.667 88.8306C126.737 88.8241 126.804 88.8039 126.866 88.7711C126.928 88.7384 126.982 88.6938 127.027 88.6398Z" fill="#81F8F8"/>
<path d="M120.95 50.2398C121.032 50.9674 120.898 51.7032 120.564 52.3548C120.23 53.0065 119.711 53.5449 119.072 53.9024C118.433 54.26 117.702 54.4208 116.972 54.3647C116.242 54.3085 115.545 54.038 114.968 53.5869C114.962 53.5822 114.955 53.5778 114.949 53.5737C114.794 53.4561 114.61 53.384 114.417 53.3656C114.224 53.3472 114.029 53.3833 113.855 53.4698C113.681 53.5562 113.535 53.6896 113.433 53.8548C113.331 54.02 113.278 54.2104 113.279 54.4045V63.2673H104.156C103.995 63.2188 103.848 63.1321 103.728 63.0146C103.608 62.8971 103.518 62.7523 103.466 62.5925C103.414 62.4327 103.402 62.2628 103.43 62.0971C103.458 61.9315 103.526 61.7752 103.627 61.6414C103.633 61.636 103.635 61.6306 103.641 61.6252C104.092 61.0484 104.364 60.3509 104.42 59.6205C104.477 58.89 104.316 58.1591 103.959 57.5197C103.601 56.8802 103.062 56.3607 102.41 56.0264C101.759 55.6922 101.022 55.5581 100.294 55.641C99.6385 55.7175 99.015 55.9674 98.4878 56.3649C97.9606 56.7625 97.5488 57.2932 97.2949 57.9027C97.0409 58.5122 96.9538 59.1783 97.0427 59.8325C97.1316 60.4868 97.3931 61.1055 97.8005 61.6252C97.8059 61.6306 97.8082 61.636 97.8136 61.6414C97.9157 61.775 97.9837 61.9314 98.012 62.0971C98.0403 62.2629 98.0279 62.433 97.976 62.5929C97.9241 62.7527 97.8341 62.8976 97.7139 63.0151C97.5936 63.1326 97.4467 63.2192 97.2856 63.2673H87.9543V54.0584C87.9058 53.8976 87.8191 53.7509 87.7016 53.6308C87.5841 53.5108 87.4392 53.421 87.2795 53.3691C87.1197 53.3172 86.9497 53.3048 86.7841 53.3329C86.6185 53.361 86.4621 53.4287 86.3284 53.5304C86.323 53.5358 86.3176 53.5381 86.3121 53.5435C85.764 53.9749 85.1055 54.2433 84.412 54.3181C83.7185 54.3928 83.018 54.2709 82.3905 53.9662C81.763 53.6615 81.234 53.1864 80.8638 52.5952C80.4937 52.004 80.2974 51.3206 80.2974 50.623C80.2974 49.9255 80.4937 49.2421 80.8638 48.6509C81.234 48.0597 81.763 47.5846 82.3905 47.2799C83.018 46.9752 83.7185 46.8533 84.412 46.928C85.1055 47.0028 85.764 47.2712 86.3121 47.7026C86.3176 47.708 86.323 47.7111 86.3284 47.7165C86.4621 47.8182 86.6185 47.8859 86.7841 47.914C86.9497 47.9421 87.1197 47.9296 87.2795 47.8777C87.4392 47.8259 87.5841 47.7361 87.7016 47.616C87.8191 47.496 87.9058 47.3493 87.9543 47.1885V38.1375H96.9356C97.1299 38.1365 97.3206 38.19 97.4861 38.2919C97.6515 38.3938 97.7851 38.54 97.8716 38.714C97.9582 38.8879 97.9943 39.0827 97.9758 39.2761C97.9574 39.4695 97.8851 39.6539 97.7672 39.8083C97.7638 39.8145 97.7593 39.82 97.754 39.8246C97.3225 40.3727 97.054 41.0312 96.9792 41.7247C96.9043 42.4183 97.0262 43.1189 97.3308 43.7464C97.6355 44.374 98.1106 44.9031 98.7018 45.2733C99.293 45.6435 99.9765 45.8398 100.674 45.8398C101.372 45.8398 102.055 45.6435 102.646 45.2733C103.238 44.9031 103.713 44.374 104.017 43.7464C104.322 43.1189 104.444 42.4183 104.369 41.7247C104.294 41.0312 104.026 40.3727 103.594 39.8246C103.589 39.8191 103.586 39.8137 103.581 39.8083C103.463 39.6536 103.391 39.469 103.373 39.2754C103.355 39.0818 103.391 38.887 103.478 38.713C103.565 38.5391 103.699 38.393 103.865 38.2912C104.03 38.1895 104.221 38.1362 104.416 38.1375H113.279V46.9283C113.278 47.1225 113.331 47.313 113.433 47.4783C113.535 47.6436 113.681 47.7771 113.855 47.8636C114.029 47.9502 114.223 47.9863 114.417 47.968C114.61 47.9497 114.794 47.8776 114.949 47.7599L114.965 47.7459C115.484 47.3384 116.103 47.0766 116.758 46.9877C117.412 46.8987 118.078 46.9857 118.688 47.2397C119.297 47.4937 119.828 47.9055 120.226 48.4328C120.623 48.9601 120.873 49.5839 120.95 50.2398Z" fill="#81F8F8"/>
<path d="M94.3159 112.715L94.4018 112.726C95.9023 112.87 98.4047 115.586 98.9761 117.514C99.5475 119.442 98.6889 120.628 98.2096 124.96C97.7303 129.292 93.3976 135.786 93.3976 135.786L96.284 152.391H73.7851L72.4626 142.042C72.4626 142.042 72.0755 142.107 69.097 140.036C66.1184 137.965 63.5998 127.98 61.9406 125.316C61.3571 124.434 60.9768 123.434 60.827 122.387C60.6771 121.34 60.7616 120.274 61.0742 119.264C61.3986 118.04 64.748 115.554 66.01 113.897C67.1012 112.553 68.2752 111.277 69.5251 110.079L69.6227 110.098C70.1977 107.406 70.4207 104.651 70.2862 101.901C70.1832 100.065 70.7949 95.5382 71.6667 91.3054C72.0864 89.2776 72.5633 87.3172 73.0534 85.7547C74.5616 80.9234 79.0647 82.7437 78.6884 86.4585C78.5606 87.6935 78.2904 89.6074 78.0953 91.2814C77.9947 92.1206 77.9141 92.898 77.8816 93.5019C77.864 95.5004 77.9479 97.4985 78.1333 99.4884C78.2331 101.249 77.1391 105.944 77.5139 106.28C77.7616 106.433 78.0402 106.529 78.3295 106.561C78.6188 106.594 78.9117 106.561 79.187 106.467C79.4092 106.28 80.0805 102.375 80.9337 99.9948C81.7869 97.6147 86.7011 98.7653 87.7626 100.366C88.3991 101.325 88.1993 103.166 87.9361 104.664L87.9686 104.669C88.6484 103.548 90.3788 103.786 92.3121 104.228C94.2454 104.669 94.679 106.196 94.7982 107.479C94.7518 109.233 94.5906 110.982 94.3159 112.715Z" fill="#FFD997"/>
<path d="M87.9545 82.0981V91.3071H78.3066L78.0929 91.2831C78.288 89.6091 78.5574 87.6952 78.6859 86.4603C79.0622 82.7439 74.5592 80.9251 73.0509 85.7565C72.5608 87.3189 72.0839 89.2793 71.6643 91.3071H62.8262V82.4442C62.8254 82.25 62.879 82.0594 62.9809 81.8941C63.0829 81.7288 63.2291 81.5953 63.403 81.5088C63.577 81.4223 63.7716 81.3863 63.965 81.4048C64.1583 81.4233 64.3426 81.4956 64.497 81.6134C64.5028 81.6184 64.509 81.6228 64.5156 81.6266C65.0637 82.058 65.7222 82.3264 66.4157 82.4011C67.1092 82.4759 67.8098 82.354 68.4372 82.0493C69.0647 81.7446 69.5938 81.2695 69.9639 80.6783C70.3341 80.0871 70.5304 79.4037 70.5304 78.7061C70.5304 78.0086 70.3341 77.3252 69.9639 76.734C69.5938 76.1427 69.0647 75.6676 68.4372 75.363C67.8098 75.0583 67.1092 74.9364 66.4157 75.0111C65.7222 75.0859 65.0637 75.3543 64.5156 75.7857C64.5102 75.7911 64.5048 75.7942 64.4993 75.7996C64.3448 75.9172 64.1605 75.9892 63.9672 76.0075C63.7739 76.0258 63.5793 75.9897 63.4055 75.9032C63.2316 75.8166 63.0855 75.6832 62.9835 75.518C62.8815 75.3527 62.8279 75.1622 62.8285 74.968V66.1052H71.6155C71.8097 66.1058 72.0001 66.0522 72.1654 65.9502C72.3307 65.8482 72.4641 65.7021 72.5506 65.5282C72.6371 65.3544 72.6733 65.1598 72.655 64.9665C72.6367 64.7732 72.5646 64.5889 72.447 64.4343C72.4416 64.4289 72.4385 64.4235 72.4331 64.4181C72.0017 63.87 71.7333 63.2115 71.6586 62.518C71.5838 61.8245 71.7057 61.1239 72.0104 60.4965C72.3151 59.869 72.7902 59.3399 73.3814 58.9698C73.9726 58.5996 74.656 58.4033 75.3536 58.4033C76.0511 58.4033 76.7345 58.5996 77.3257 58.9698C77.917 59.3399 78.3921 59.869 78.6967 60.4965C79.0014 61.1239 79.1233 61.8245 79.0486 62.518C78.9738 63.2115 78.7054 63.87 78.274 64.4181C78.2687 64.4227 78.2643 64.4282 78.2609 64.4343C78.143 64.5887 78.0707 64.773 78.0522 64.9664C78.0338 65.1597 78.0698 65.3544 78.1563 65.5283C78.2427 65.7022 78.3762 65.8485 78.5415 65.9504C78.7068 66.0524 78.8974 66.106 79.0917 66.1052H87.9545V75.2282C87.906 75.389 87.8193 75.5357 87.7018 75.6558C87.5843 75.7758 87.4394 75.8656 87.2796 75.9175C87.1199 75.9693 86.9499 75.9818 86.7843 75.9537C86.6187 75.9256 86.4623 75.8579 86.3286 75.7562C86.3232 75.7508 86.3177 75.7477 86.3123 75.7423C85.7642 75.3109 85.1057 75.0425 84.4122 74.9678C83.7187 74.893 83.0182 75.0149 82.3907 75.3196C81.7632 75.6243 81.2342 76.0994 80.864 76.6906C80.4938 77.2818 80.2975 77.9652 80.2975 78.6628C80.2975 79.3603 80.4938 80.0437 80.864 80.6349C81.2342 81.2262 81.7632 81.7013 82.3907 82.0059C83.0182 82.3106 83.7187 82.4325 84.4122 82.3578C85.1057 82.283 85.7642 82.0146 86.3123 81.5832C86.3177 81.5778 86.3232 81.5755 86.3286 81.5701C86.4623 81.4684 86.6187 81.4007 86.7843 81.3726C86.9499 81.3445 87.1199 81.357 87.2796 81.4089C87.4394 81.4607 87.5843 81.5505 87.7018 81.6706C87.8193 81.7906 87.906 81.9373 87.9545 82.0981ZM76.0481 71.2423C76.0482 71.1372 76.0172 71.0344 75.9589 70.947C75.9006 70.8595 75.8176 70.7913 75.7206 70.751C75.6235 70.7107 75.5166 70.7001 75.4135 70.7206C75.3104 70.7411 75.2157 70.7917 75.1414 70.866C75.067 70.9403 75.0164 71.035 74.996 71.1381C74.9755 71.2412 74.9861 71.3481 75.0264 71.4452C75.0667 71.5423 75.1349 71.6252 75.2223 71.6835C75.3098 71.7418 75.4126 71.7729 75.5177 71.7727C75.6583 71.7725 75.7931 71.7166 75.8925 71.6171C75.9919 71.5177 76.0479 71.3829 76.0481 71.2423ZM76.0481 74.1938C76.0482 74.0887 76.0172 73.9859 75.9589 73.8984C75.9006 73.811 75.8176 73.7428 75.7206 73.7025C75.6235 73.6622 75.5166 73.6516 75.4135 73.672C75.3104 73.6925 75.2157 73.7431 75.1414 73.8174C75.067 73.8918 75.0164 73.9865 74.996 74.0896C74.9755 74.1927 74.9861 74.2996 75.0264 74.3966C75.0667 74.4937 75.1349 74.5767 75.2223 74.635C75.3098 74.6933 75.4126 74.7243 75.5177 74.7242C75.6583 74.7239 75.7931 74.668 75.8925 74.5686C75.9919 74.4692 76.0479 74.3344 76.0481 74.1938ZM76.0481 77.1452C76.0481 77.0402 76.0169 76.9374 75.9585 76.8501C75.9001 76.7627 75.8171 76.6946 75.72 76.6545C75.6229 76.6143 75.5161 76.6038 75.413 76.6244C75.31 76.6449 75.2153 76.6956 75.1411 76.7699C75.0668 76.8443 75.0163 76.939 74.9959 77.0421C74.9755 77.1452 74.9861 77.252 75.0265 77.349C75.0668 77.4461 75.135 77.529 75.2224 77.5872C75.3099 77.6455 75.4126 77.6765 75.5177 77.6764C75.5874 77.6764 75.6565 77.6626 75.7209 77.6359C75.7852 77.6092 75.8437 77.5701 75.893 77.5208C75.9423 77.4714 75.9813 77.4129 76.0079 77.3484C76.0345 77.284 76.0482 77.2149 76.0481 77.1452ZM76.0481 80.0967C76.0481 79.9916 76.0169 79.8889 75.9585 79.8015C75.9001 79.7142 75.8171 79.6461 75.72 79.6059C75.6229 79.5657 75.5161 79.5553 75.413 79.5758C75.31 79.5964 75.2153 79.647 75.1411 79.7214C75.0668 79.7957 75.0163 79.8905 74.9959 79.9935C74.9755 80.0966 74.9861 80.2034 75.0265 80.3005C75.0668 80.3975 75.135 80.4804 75.2224 80.5387C75.3099 80.597 75.4126 80.628 75.5177 80.6278C75.6584 80.6276 75.7933 80.5716 75.8928 80.472C75.9922 80.3724 76.0481 80.2374 76.0481 80.0967Z" fill="#81F8F8"/>
<path d="M74.1883 26.4842C74.3394 26.7008 74.5375 26.8804 74.7676 27.0097C74.9978 27.1391 75.2542 27.2149 75.5177 27.2314C76.9207 27.2314 78.0549 24.9683 78.0549 22.1763C78.1219 20.6663 77.7106 19.1736 76.8796 17.911C76.7284 17.6836 76.5269 17.4941 76.2908 17.357C76.0546 17.2199 75.7901 17.139 75.5177 17.1204C74.1148 17.1204 72.9805 19.3844 72.9805 22.1763C72.9088 23.7049 73.3324 25.2158 74.1883 26.4842ZM87.9545 28.9704V38.0655H79.0917C78.8974 38.0663 78.7068 38.0127 78.5415 37.9107C78.3762 37.8088 78.2427 37.6626 78.1563 37.4886C78.0698 37.3147 78.0338 37.12 78.0522 36.9267C78.0707 36.7333 78.143 36.549 78.2609 36.3947C78.2648 36.3881 78.2692 36.3819 78.274 36.3761C78.7054 35.8279 78.9738 35.1695 79.0486 34.476C79.1233 33.7825 79.0014 33.0819 78.6967 32.4544C78.3921 31.827 77.917 31.2979 77.3257 30.9278C76.7345 30.5576 76.0511 30.3613 75.3536 30.3613C74.656 30.3613 73.9726 30.5576 73.3814 30.9278C72.7902 31.2979 72.3151 31.827 72.0104 32.4544C71.7057 33.0819 71.5838 33.7825 71.6586 34.476C71.7333 35.1695 72.0017 35.8279 72.4331 36.3761C72.4385 36.3815 72.4416 36.3869 72.447 36.3923C72.5646 36.5468 72.6367 36.7312 72.655 36.9245C72.6733 37.1178 72.6371 37.3124 72.5506 37.4862C72.4641 37.6601 72.3307 37.8062 72.1654 37.9082C72.0001 38.0101 71.8097 38.0638 71.6155 38.0632H62.8262V29.3141C62.8254 29.1199 62.879 28.9293 62.9809 28.764C63.0829 28.5987 63.2291 28.4652 63.403 28.3787C63.577 28.2923 63.7716 28.2562 63.965 28.2747C64.1583 28.2932 64.3426 28.3655 64.497 28.4834C64.5036 28.4872 64.5098 28.4917 64.5156 28.4965C65.0637 28.9279 65.7222 29.1963 66.4157 29.2711C67.1092 29.3458 67.8098 29.2239 68.4372 28.9192C69.0647 28.6145 69.5938 28.1394 69.9639 27.5482C70.3341 26.957 70.5304 26.2736 70.5304 25.576C70.5304 24.8785 70.3341 24.1951 69.9639 23.6039C69.5938 23.0127 69.0647 22.5376 68.4372 22.2329C67.8098 21.9282 67.1092 21.8063 66.4157 21.881C65.7222 21.9558 65.0637 22.2242 64.5156 22.6556C64.5102 22.6556 64.5048 22.6641 64.4993 22.6664C64.3451 22.7842 64.161 22.8564 63.9679 22.875C63.7747 22.8936 63.5803 22.8577 63.4064 22.7715C63.2326 22.6853 63.0863 22.5522 62.9842 22.3872C62.8821 22.2223 62.8281 22.032 62.8285 21.838V12.9743H71.6155C71.8097 12.975 72.0001 12.9213 72.1654 12.8193C72.3307 12.7174 72.4641 12.5712 72.5506 12.3974C72.6371 12.2235 72.6733 12.029 72.655 11.8357C72.6367 11.6423 72.5646 11.458 72.447 11.3035C72.4416 11.2981 72.4385 11.2927 72.4331 11.2872C72.0017 10.7391 71.7333 10.0806 71.6586 9.38712C71.5838 8.69361 71.7057 7.99307 72.0104 7.3656C72.3151 6.73813 72.7902 6.20907 73.3814 5.83891C73.9726 5.46876 74.656 5.27246 75.3536 5.27246C76.0511 5.27246 76.7345 5.46876 77.3257 5.83891C77.917 6.20907 78.3921 6.73813 78.6967 7.3656C79.0014 7.99307 79.1233 8.69361 79.0486 9.38712C78.9738 10.0806 78.7054 10.7391 78.274 11.2872C78.2687 11.2927 78.2642 11.2989 78.2609 11.3058C78.143 11.4602 78.0707 11.6445 78.0522 11.8379C78.0338 12.0312 78.0698 12.2259 78.1563 12.3998C78.2427 12.5737 78.3762 12.7199 78.5415 12.8219C78.7068 12.9238 78.8974 12.9775 79.0917 12.9767H87.9545V22.1004C87.906 22.2613 87.8193 22.408 87.7018 22.528C87.5843 22.648 87.4394 22.7378 87.2796 22.7897C87.1199 22.8416 86.9499 22.854 86.7843 22.8259C86.6187 22.7979 86.4623 22.7301 86.3286 22.6285C86.3232 22.6231 86.3177 22.62 86.3123 22.6145C85.7643 22.1828 85.1058 21.914 84.4121 21.839C83.7185 21.764 83.0177 21.8857 82.3901 22.1903C81.7624 22.4949 81.2331 22.97 80.8628 23.5613C80.4925 24.1526 80.2961 24.8362 80.2961 25.5338C80.2961 26.2315 80.4925 26.9151 80.8628 27.5064C81.2331 28.0977 81.7624 28.5728 82.3901 28.8774C83.0177 29.182 83.7185 29.3037 84.4121 29.2287C85.1058 29.1537 85.7643 28.8849 86.3123 28.4532C86.3183 28.4504 86.3237 28.4467 86.3286 28.4423C86.4622 28.3403 86.6186 28.2723 86.7843 28.244C86.95 28.2157 87.1201 28.2281 87.28 28.28C87.4399 28.3319 87.5848 28.4219 87.7023 28.5421C87.8198 28.6623 87.9063 28.8093 87.9545 28.9704Z" fill="#81F8F8"/>
<path d="M76.8793 17.9109C77.7102 19.1735 78.1215 20.6662 78.0546 22.1762C78.0546 24.9682 76.9203 27.2313 75.5174 27.2313C75.2539 27.2148 74.9975 27.139 74.7673 27.0097C74.5371 26.8803 74.3391 26.7007 74.188 26.4842L76.8793 17.9109Z" fill="#81F8F8"/>
<path d="M76.8796 17.9109L74.1883 26.4842C73.3323 25.2157 72.9087 23.7048 72.9805 22.1762C72.9805 19.3843 74.1148 17.1204 75.5177 17.1204C75.7901 17.1389 76.0546 17.2198 76.2908 17.3569C76.5269 17.494 76.7284 17.6835 76.8796 17.9109Z" fill="#81F8F8"/>
<path d="M70.4971 50.2398C70.5797 50.9674 70.4456 51.7032 70.1115 52.3548C69.7773 53.0065 69.2582 53.5449 68.6191 53.9024C67.9801 54.26 67.2496 54.4208 66.5195 54.3647C65.7894 54.3085 65.0921 54.0379 64.5152 53.5869C64.5094 53.582 64.5032 53.5776 64.4966 53.5737C64.3422 53.4558 64.1579 53.3836 63.9646 53.3651C63.7712 53.3466 63.5766 53.3826 63.4027 53.4691C63.2287 53.5556 63.0825 53.689 62.9806 53.8544C62.8786 54.0197 62.825 54.2103 62.8258 54.4045V63.2673H53.6192C53.4581 63.2191 53.3112 63.1326 53.1909 63.0151C53.0707 62.8976 52.9807 62.7527 52.9288 62.5928C52.8769 62.4329 52.8645 62.2628 52.8928 62.0971C52.9211 61.9314 52.9891 61.775 53.0911 61.6414C53.0911 61.636 53.0989 61.6306 53.102 61.6251C53.5337 61.0771 53.8025 60.4186 53.8775 59.725C53.9525 59.0313 53.8308 58.3306 53.5262 57.7029C53.2216 57.0752 52.7465 56.5459 52.1552 56.1756C51.5639 55.8053 50.8803 55.6089 50.1827 55.6089C49.485 55.6089 48.8014 55.8053 48.2101 56.1756C47.6188 56.5459 47.1437 57.0752 46.8391 57.7029C46.5345 58.3306 46.4128 59.0313 46.4878 59.725C46.5628 60.4186 46.8316 61.0771 47.2633 61.6251C47.2673 61.6311 47.272 61.6366 47.2773 61.6414C47.3787 61.7752 47.4463 61.9316 47.4743 62.0971C47.5023 62.2627 47.4898 62.4326 47.438 62.5923C47.3861 62.752 47.2964 62.8968 47.1764 63.0143C47.0565 63.1319 46.91 63.2187 46.7492 63.2673H37.6208V54.4045C37.6216 54.2103 37.568 54.0197 37.4661 53.8544C37.3641 53.689 37.2179 53.5556 37.044 53.4691C36.87 53.3826 36.6754 53.3466 36.482 53.3651C36.2887 53.3836 36.1044 53.4558 35.95 53.5737C35.9438 53.5771 35.9383 53.5816 35.9337 53.5869C35.3856 54.0182 34.7271 54.2867 34.0336 54.3614C33.3401 54.4361 32.6396 54.3142 32.0121 54.0095C31.3846 53.7049 30.8556 53.2298 30.4854 52.6386C30.1152 52.0474 29.9189 51.3639 29.9189 50.6664C29.9189 49.9689 30.1152 49.2854 30.4854 48.6942C30.8556 48.103 31.3846 47.6279 32.0121 47.3232C32.6396 47.0186 33.3401 46.8966 34.0336 46.9714C34.7271 47.0461 35.3856 47.3145 35.9337 47.7459C35.9337 47.7513 35.9415 47.7544 35.9469 47.7599C36.1014 47.8784 36.286 47.9512 36.4798 47.9699C36.6736 47.9887 36.8688 47.9528 37.0432 47.8661C37.2176 47.7795 37.3641 47.6457 37.4663 47.4799C37.5684 47.3141 37.6219 47.123 37.6208 46.9283V38.1375H46.4868C46.681 38.1367 46.8716 38.1903 47.0369 38.2922C47.2022 38.3942 47.3357 38.5404 47.4222 38.7143C47.5086 38.8882 47.5447 39.0829 47.5262 39.2763C47.5077 39.4696 47.4354 39.6539 47.3175 39.8083C47.3175 39.8137 47.3098 39.8191 47.3067 39.8246C46.8764 40.3723 46.6088 41.03 46.5346 41.7226C46.4604 42.4151 46.5825 43.1146 46.887 43.7411C47.1915 44.3675 47.6661 44.8957 48.2565 45.2652C48.847 45.6347 49.5295 45.8307 50.226 45.8307C50.9225 45.8307 51.605 45.6347 52.1955 45.2652C52.7859 44.8957 53.2605 44.3675 53.565 43.7411C53.8695 43.1146 53.9916 42.4151 53.9174 41.7226C53.8432 41.03 53.5756 40.3723 53.1453 39.8246C53.1414 39.8186 53.1367 39.8131 53.1314 39.8083C53.0141 39.6537 52.9423 39.4694 52.9242 39.2762C52.906 39.083 52.9422 38.8886 53.0287 38.7148C53.1152 38.5411 53.2484 38.395 53.4135 38.293C53.5786 38.191 53.7689 38.1371 53.9629 38.1375H62.8258V46.9283C62.8251 47.1225 62.8788 47.313 62.9808 47.4782C63.0827 47.6435 63.2289 47.7769 63.4027 47.8634C63.5766 47.9499 63.7712 47.9861 63.9645 47.9678C64.1578 47.9495 64.3421 47.8775 64.4966 47.7599L64.5129 47.7459C65.2699 47.1473 66.2314 46.8693 67.191 46.9717C68.031 47.0607 68.8158 47.4327 69.4166 48.0265C70.0173 48.6204 70.3983 49.4008 70.4971 50.2398Z" fill="#81F8F8"/>
<path d="M21.4231 82.8266L24.4806 85.607L27.2618 82.5525L24.2042 79.7722L21.4231 82.8266ZM43.8493 80.0153L37.9356 86.5144C37.8045 86.6578 37.7161 86.8349 37.6803 87.0259C37.6446 87.2169 37.6629 87.414 37.7333 87.5951C37.8037 87.7762 37.9233 87.934 38.0786 88.0507C38.2339 88.1675 38.4188 88.2384 38.6123 88.2557H38.6316C39.3274 88.3052 39.9952 88.5496 40.5586 88.9608C41.122 89.3721 41.5583 89.9335 41.8176 90.5811C42.0769 91.2286 42.1487 91.936 42.0249 92.6225C41.901 93.3089 41.5865 93.9466 41.1173 94.4627C40.6481 94.9788 40.0431 95.3525 39.3715 95.5409C38.6999 95.7293 37.9889 95.725 37.3197 95.5283C36.6505 95.3316 36.0501 94.9506 35.5872 94.4288C35.1244 93.907 34.8177 93.2654 34.7023 92.5775V92.5559C34.6672 92.3649 34.5793 92.1875 34.4487 92.0439C34.318 91.9002 34.1497 91.796 33.9629 91.743C33.7761 91.69 33.5782 91.6903 33.3916 91.7439C33.2049 91.7976 33.037 91.9023 32.9068 92.0464L26.9451 98.602L8.2988 81.6405L8.20898 81.5592L14.403 74.7458C14.4757 74.5942 14.5105 74.4273 14.5044 74.2594C14.4984 74.0915 14.4516 73.9275 14.3683 73.7816C14.2849 73.6357 14.1673 73.5122 14.0257 73.4218C13.8841 73.3313 13.7226 73.2766 13.5552 73.2623C13.5491 73.264 13.5427 73.264 13.5366 73.2623C12.8405 73.2134 12.1722 72.9695 11.6083 72.5585C11.0443 72.1475 10.6075 71.5861 10.3477 70.9384C10.088 70.2907 10.0158 69.583 10.1395 68.8962C10.2632 68.2095 10.5778 67.5714 11.0472 67.0551C11.5166 66.5387 12.1219 66.165 12.7938 65.9766C13.4657 65.7882 14.1771 65.7928 14.8465 65.9899C15.5159 66.1869 16.1163 66.5684 16.579 67.0908C17.0417 67.6131 17.348 68.2552 17.4628 68.9435C17.4653 68.9506 17.4671 68.9578 17.4683 68.9652C17.4983 69.1305 17.5681 69.2861 17.6715 69.4186C17.7749 69.551 17.909 69.6564 18.0621 69.7256C18.2153 69.7948 18.3829 69.8258 18.5507 69.8159C18.7184 69.8061 18.8813 69.7557 19.0253 69.669L25.1155 62.9756L31.7633 69.0225C31.9074 69.1526 32.0122 69.3204 32.0659 69.507C32.1195 69.6936 32.1199 69.8915 32.0668 70.0783C32.0138 70.2651 31.9096 70.4333 31.7659 70.5639C31.6222 70.6945 31.4448 70.7822 31.2538 70.8172C31.2466 70.8186 31.2393 70.8186 31.2321 70.8172C30.5439 70.932 29.902 71.2383 29.3797 71.7009C28.8574 72.1635 28.4759 72.7638 28.2788 73.4331C28.0817 74.1024 28.077 74.8136 28.2652 75.4855C28.4534 76.1573 28.8269 76.7626 29.343 77.2321C29.8592 77.7016 30.497 78.0163 31.1836 78.1402C31.8702 78.2642 32.5779 78.1923 33.2256 77.9329C33.8733 77.6735 34.4348 77.237 34.8461 76.6734C35.2573 76.1097 35.5016 75.4417 35.5509 74.7458C35.5526 74.7397 35.5526 74.7333 35.5509 74.7272C35.5674 74.5337 35.6379 74.3486 35.7542 74.1931C35.8706 74.0376 36.0282 73.9179 36.2092 73.8474C36.3902 73.7769 36.5873 73.7586 36.7782 73.7945C36.9691 73.8304 37.1461 73.9191 37.2891 74.0505L43.8493 80.0153Z" fill="#81F8F8"/>
<path d="M21.418 82.8242L24.1978 79.771L27.2533 82.5529L24.4734 85.6061L21.418 82.8242Z" fill="#81F8F8"/>
<path d="M96.2839 152.391L93.3975 135.786C93.3975 135.786 97.7271 129.29 98.2094 124.96C98.6918 120.629 99.5466 119.444 98.9752 117.514C98.4038 115.584 95.9022 112.868 94.4017 112.726" stroke="black" stroke-width="0.980065" stroke-linecap="round" stroke-linejoin="round"/>
<path d="M69.5202 110.08C68.2703 111.279 67.0963 112.554 66.0051 113.899C64.7431 115.556 61.3937 118.042 61.0693 119.265C60.7567 120.275 60.6722 121.342 60.8221 122.389C60.9719 123.435 61.3523 124.436 61.9357 125.317C63.5926 127.982 66.1166 137.966 69.0921 140.037C72.0675 142.109 72.4624 142.042 72.4624 142.042L73.7871 152.389" stroke="black" stroke-width="0.980065" stroke-linecap="round" stroke-linejoin="round"/>
<path d="M94.795 115.236C94.4918 114.816 94.2872 114.333 94.1965 113.823C94.1965 113.679 94.2453 113.268 94.3157 112.715C94.5893 110.983 94.7494 109.236 94.795 107.483C94.6758 106.197 94.2422 104.671 92.3089 104.232C90.3756 103.793 88.6451 103.552 87.9653 104.673" stroke="black" stroke-width="0.980065" stroke-linecap="round" stroke-linejoin="round"/>
<path d="M87.9654 108.773C87.5542 108.512 87.5542 107.657 87.5542 106.837C87.5542 106.509 87.7571 105.665 87.9328 104.663C88.1961 103.165 88.3974 101.323 87.7594 100.365C86.6979 98.7645 81.7861 97.6117 80.9305 99.994C80.075 102.376 79.406 106.279 79.1838 106.466C78.9085 106.561 78.6156 106.593 78.3263 106.561C78.037 106.528 77.7584 106.432 77.5107 106.279C77.1367 105.943 78.2307 101.247 78.1301 99.4877C77.9447 97.4977 77.8608 95.4996 77.8784 93.5012C77.9109 92.8973 77.9915 92.1199 78.0921 91.2806C78.2872 89.6067 78.5567 87.6927 78.6852 86.4578C79.0615 82.7414 74.5584 80.9227 73.0502 85.754C72.5601 87.3165 72.0832 89.2769 71.6635 91.3046C70.7917 95.5375 70.18 100.065 70.283 101.9C70.4175 104.65 70.1945 107.405 69.6195 110.097C69.3583 111.335 69.0264 112.558 68.6253 113.758C67.0064 118.613 64.4366 118.897 65.197 122.326" stroke="black" stroke-width="0.980065" stroke-linecap="round" stroke-linejoin="round"/>
<path d="M72.4624 142.042C73.2796 142.342 74.1155 142.588 74.9648 142.778" stroke="black" stroke-width="0.980065" stroke-linecap="round" stroke-linejoin="round"/>
<path d="M74.5071 84.7219C73.9822 86.1891 73.3813 87.4674 73.9063 88.3315C74.4312 89.1956 76.915 89.0841 77.402 88.3315C77.889 87.5789 77.8542 85.4745 77.7024 84.9844" stroke="black" stroke-width="0.980065" stroke-linecap="round" stroke-linejoin="round"/>
<path d="M78.3064 91.3071H87.9544V82.0981C87.9059 81.9373 87.8192 81.7906 87.7017 81.6706C87.5841 81.5505 87.4393 81.4607 87.2795 81.4089C87.1198 81.357 86.9498 81.3445 86.7842 81.3726C86.6186 81.4007 86.4622 81.4684 86.3285 81.5701C86.323 81.5755 86.3176 81.5778 86.3122 81.5832C85.7641 82.0146 85.1056 82.283 84.4121 82.3578C83.7186 82.4325 83.018 82.3106 82.3906 82.0059C81.7631 81.7013 81.234 81.2261 80.8639 80.6349C80.4937 80.0437 80.2974 79.3603 80.2974 78.6628C80.2974 77.9652 80.4937 77.2818 80.8639 76.6906C81.234 76.0994 81.7631 75.6243 82.3906 75.3196C83.018 75.0149 83.7186 74.893 84.4121 74.9678C85.1056 75.0425 85.7641 75.3109 86.3122 75.7423C86.3176 75.7477 86.323 75.7508 86.3285 75.7562C86.4622 75.8579 86.6186 75.9256 86.7842 75.9537C86.9498 75.9818 87.1198 75.9693 87.2795 75.9175C87.4393 75.8656 87.5841 75.7758 87.7017 75.6557C87.8192 75.5357 87.9059 75.389 87.9544 75.2282V66.1052H79.0915C78.8973 66.106 78.7067 66.0524 78.5414 65.9504C78.3761 65.8485 78.2426 65.7022 78.1561 65.5283C78.0697 65.3544 78.0336 65.1597 78.0521 64.9664C78.0706 64.773 78.1429 64.5887 78.2608 64.4343C78.2642 64.4282 78.2686 64.4227 78.2739 64.4181C78.7053 63.87 78.9737 63.2115 79.0485 62.518C79.1232 61.8245 79.0013 61.1239 78.6966 60.4965C78.3919 59.869 77.9168 59.3399 77.3256 58.9698C76.7344 58.5996 76.051 58.4033 75.3534 58.4033C74.6559 58.4033 73.9725 58.5996 73.3813 58.9698C72.7901 59.3399 72.315 59.869 72.0103 60.4965C71.7056 61.1239 71.5837 61.8245 71.6584 62.518C71.7332 63.2115 72.0016 63.87 72.433 64.4181C72.4384 64.4235 72.4415 64.4289 72.4469 64.4343C72.5645 64.5889 72.6365 64.7732 72.6548 64.9665C72.6731 65.1598 72.637 65.3544 72.5505 65.5282C72.464 65.7021 72.3305 65.8482 72.1653 65.9502C72 66.0522 71.8095 66.1058 71.6154 66.1052H62.8261V74.968C62.8254 75.1622 62.8791 75.3527 62.9811 75.518C63.083 75.6832 63.2292 75.8166 63.403 75.9032C63.5768 75.9897 63.7714 76.0258 63.9647 76.0075C64.158 75.9892 64.3424 75.9172 64.4969 75.7996C64.5023 75.7942 64.5077 75.7911 64.5132 75.7857C65.0613 75.3543 65.7198 75.0859 66.4133 75.0111C67.1068 74.9364 67.8073 75.0583 68.4348 75.363C69.0623 75.6676 69.5913 76.1427 69.9615 76.734C70.3316 77.3252 70.5279 78.0086 70.5279 78.7061C70.5279 79.4037 70.3316 80.0871 69.9615 80.6783C69.5913 81.2695 69.0623 81.7446 68.4348 82.0493C67.8073 82.354 67.1068 82.4759 66.4133 82.4011C65.7198 82.3264 65.0613 82.058 64.5132 81.6266C64.5066 81.6228 64.5004 81.6184 64.4946 81.6134C64.3402 81.4956 64.1559 81.4233 63.9625 81.4048C63.7692 81.3863 63.5745 81.4223 63.4006 81.5088C63.2267 81.5953 63.0805 81.7288 62.9785 81.8941C62.8765 82.0594 62.8229 82.25 62.8237 82.4442V91.3071H71.6641" stroke="black" stroke-width="0.980065" stroke-linecap="round" stroke-linejoin="round"/>
<path d="M62.8261 38.1794V46.9285C62.8254 47.1227 62.8791 47.3131 62.9811 47.4784C63.083 47.6437 63.2292 47.7771 63.403 47.8636C63.5768 47.9501 63.7714 47.9863 63.9647 47.968C64.158 47.9497 64.3424 47.8776 64.4969 47.76L64.5132 47.7461C65.0613 47.3147 65.7198 47.0463 66.4133 46.9716C67.1068 46.8968 67.8073 47.0187 68.4348 47.3234C69.0623 47.6281 69.5913 48.1032 69.9615 48.6944C70.3316 49.2856 70.5279 49.969 70.5279 50.6666C70.5279 51.3641 70.3316 52.0475 69.9615 52.6387C69.5913 53.23 69.0623 53.7051 68.4348 54.0097C67.8073 54.3144 67.1068 54.4363 66.4133 54.3616C65.7198 54.2868 65.0613 54.0184 64.5132 53.587C64.5073 53.5822 64.5011 53.5778 64.4946 53.5739C64.3402 53.456 64.1559 53.3837 63.9625 53.3652C63.7692 53.3468 63.5745 53.3828 63.4006 53.4693C63.2267 53.5557 63.0805 53.6892 62.9785 53.8545C62.8765 54.0198 62.8229 54.2104 62.8237 54.4047V63.2675" stroke="black" stroke-width="0.980065" stroke-linecap="round" stroke-linejoin="round"/>
<path d="M87.9545 38.0655H79.0916C78.8974 38.0663 78.7068 38.0127 78.5415 37.9108C78.3762 37.8088 78.2427 37.6626 78.1563 37.4887C78.0698 37.3147 78.0337 37.1201 78.0522 36.9267C78.0707 36.7334 78.143 36.5491 78.2609 36.3947C78.2648 36.3882 78.2692 36.3819 78.274 36.3761C78.7054 35.828 78.9738 35.1695 79.0486 34.476C79.1233 33.7825 79.0014 33.0819 78.6967 32.4545C78.3921 31.827 77.9169 31.2979 77.3257 30.9278C76.7345 30.5576 76.0511 30.3613 75.3536 30.3613C74.656 30.3613 73.9726 30.5576 73.3814 30.9278C72.7902 31.2979 72.3151 31.827 72.0104 32.4545C71.7057 33.0819 71.5838 33.7825 71.6586 34.476C71.7333 35.1695 72.0017 35.828 72.4331 36.3761C72.4385 36.3815 72.4416 36.3869 72.447 36.3924C72.5646 36.5469 72.6367 36.7312 72.655 36.9245C72.6733 37.1178 72.6371 37.3124 72.5506 37.4862C72.4641 37.6601 72.3307 37.8062 72.1654 37.9082C72.0001 38.0102 71.8097 38.0639 71.6155 38.0632H62.8262" stroke="black" stroke-width="0.980065" stroke-linecap="round" stroke-linejoin="round"/>
<path d="M87.9543 63.2675V54.0586C87.9058 53.8977 87.8191 53.751 87.7016 53.631C87.5841 53.511 87.4392 53.4212 87.2795 53.3693C87.1197 53.3174 86.9497 53.305 86.7841 53.333C86.6185 53.3611 86.4621 53.4289 86.3284 53.5305C86.323 53.5359 86.3176 53.5383 86.3121 53.5437C85.764 53.9751 85.1055 54.2435 84.412 54.3182C83.7185 54.393 83.018 54.271 82.3905 53.9664C81.763 53.6617 81.234 53.1866 80.8638 52.5954C80.4937 52.0042 80.2974 51.3207 80.2974 50.6232C80.2974 49.9257 80.4937 49.2422 80.8638 48.651C81.234 48.0598 81.763 47.5847 82.3905 47.2801C83.018 46.9754 83.7185 46.8535 84.412 46.9282C85.1055 47.0029 85.764 47.2714 86.3121 47.7027C86.3176 47.7082 86.323 47.7113 86.3284 47.7167C86.4621 47.8183 86.6185 47.8861 86.7841 47.9141C86.9497 47.9422 87.1197 47.9298 87.2795 47.8779C87.4392 47.826 87.5841 47.7362 87.7016 47.6162C87.8191 47.4962 87.9058 47.3495 87.9543 47.1886V38.1794" stroke="black" stroke-width="0.980065" stroke-linecap="round" stroke-linejoin="round"/>
<path d="M87.9544 38.1794V28.9705C87.9062 28.8094 87.8197 28.6625 87.7022 28.5422C87.5847 28.422 87.4398 28.332 87.2799 28.2801C87.12 28.2282 86.9499 28.2158 86.7842 28.2441C86.6185 28.2724 86.4621 28.3404 86.3285 28.4424C86.3236 28.4468 86.3181 28.4505 86.3122 28.4533C85.7645 28.8836 85.1068 29.1512 84.4142 29.2254C83.7216 29.2996 83.0221 29.1775 82.3957 28.873C81.7692 28.5685 81.2411 28.0939 80.8715 27.5034C80.502 26.913 80.3061 26.2305 80.3061 25.534C80.3061 24.8374 80.502 24.1549 80.8715 23.5645C81.2411 22.974 81.7692 22.4995 82.3957 22.195C83.0221 21.8905 83.7216 21.7684 84.4142 21.8426C85.1068 21.9168 85.7645 22.1843 86.3122 22.6147C86.3176 22.6201 86.323 22.6232 86.3285 22.6286C86.4622 22.7302 86.6186 22.798 86.7842 22.8261C86.9498 22.8541 87.1198 22.8417 87.2795 22.7898C87.4393 22.7379 87.5841 22.6481 87.7017 22.5281C87.8192 22.4081 87.9059 22.2614 87.9544 22.1006V12.9745H79.0915C78.8973 12.9753 78.7067 12.9216 78.5414 12.8197C78.3761 12.7177 78.2426 12.5715 78.1561 12.3976C78.0697 12.2237 78.0336 12.029 78.0521 11.8357C78.0706 11.6423 78.1429 11.458 78.2608 11.3036C78.2641 11.2967 78.2685 11.2905 78.2739 11.285C78.7053 10.7369 78.9737 10.0784 79.0485 9.38492C79.1232 8.69141 79.0013 7.99087 78.6966 7.3634C78.3919 6.73593 77.9168 6.20687 77.3256 5.83672C76.7344 5.46656 76.051 5.27026 75.3534 5.27026C74.6559 5.27026 73.9725 5.46656 73.3813 5.83672C72.7901 6.20687 72.315 6.73593 72.0103 7.3634C71.7056 7.99087 71.5837 8.69141 71.6584 9.38492C71.7332 10.0784 72.0016 10.7369 72.433 11.285C72.4384 11.2905 72.4415 11.2959 72.4469 11.3013C72.5652 11.4558 72.6378 11.6404 72.6565 11.834C72.6751 12.0277 72.6391 12.2228 72.5525 12.397C72.4659 12.5712 72.3322 12.7177 72.1665 12.8198C72.0009 12.9219 71.8099 12.9754 71.6154 12.9745H62.8261V21.8404C62.8257 22.0344 62.8796 22.2247 62.9817 22.3897C63.0839 22.5547 63.2301 22.6878 63.404 22.774C63.5778 22.8602 63.7723 22.896 63.9654 22.8774C64.1586 22.8589 64.3427 22.7866 64.4969 22.6689C64.5023 22.6689 64.5077 22.6611 64.5132 22.658C65.0613 22.2266 65.7198 21.9582 66.4133 21.8835C67.1068 21.8087 67.8073 21.9307 68.4348 22.2353C69.0623 22.54 69.5913 23.0151 69.9615 23.6063C70.3316 24.1975 70.5279 24.881 70.5279 25.5785C70.5279 26.276 70.3316 26.9595 69.9615 27.5507C69.5913 28.1419 69.0623 28.617 68.4348 28.9216C67.8073 29.2263 67.1068 29.3482 66.4133 29.2735C65.7198 29.1988 65.0613 28.9303 64.5132 28.499C64.5073 28.4941 64.5011 28.4897 64.4946 28.4858C64.3402 28.3679 64.1559 28.2957 63.9625 28.2772C63.7692 28.2587 63.5745 28.2947 63.4006 28.3812C63.2267 28.4677 63.0805 28.6011 62.9785 28.7664C62.8765 28.9318 62.8229 29.1223 62.8237 29.3166V38.1794" stroke="black" stroke-width="0.980065" stroke-linecap="round" stroke-linejoin="round"/>
<path d="M62.8258 63.2673H53.6192C53.4581 63.2191 53.3112 63.1326 53.1909 63.0151C53.0707 62.8976 52.9807 62.7527 52.9288 62.5928C52.8769 62.4329 52.8645 62.2628 52.8928 62.0971C52.9211 61.9314 52.9891 61.775 53.0911 61.6414C53.0911 61.636 53.0989 61.6306 53.102 61.6251C53.5337 61.0771 53.8025 60.4186 53.8775 59.725C53.9525 59.0313 53.8308 58.3306 53.5262 57.7029C53.2216 57.0752 52.7465 56.5459 52.1552 56.1756C51.5639 55.8053 50.8803 55.6089 50.1827 55.6089C49.485 55.6089 48.8014 55.8053 48.2101 56.1756C47.6188 56.5459 47.1437 57.0752 46.8391 57.7029C46.5345 58.3306 46.4128 59.0313 46.4878 59.725C46.5628 60.4186 46.8316 61.0771 47.2633 61.6251C47.2673 61.6311 47.272 61.6366 47.2773 61.6414C47.3787 61.7752 47.4463 61.9316 47.4743 62.0971C47.5023 62.2627 47.4898 62.4326 47.438 62.5923C47.3861 62.752 47.2964 62.8968 47.1764 63.0143C47.0565 63.1319 46.91 63.2187 46.7492 63.2673H37.6208V54.4045C37.6216 54.2103 37.568 54.0197 37.4661 53.8544C37.3641 53.689 37.2179 53.5556 37.044 53.4691C36.87 53.3826 36.6754 53.3466 36.482 53.3651C36.2887 53.3836 36.1044 53.4558 35.95 53.5737C35.9438 53.5771 35.9383 53.5816 35.9337 53.5869C35.3856 54.0182 34.7271 54.2867 34.0336 54.3614C33.3401 54.4362 32.6396 54.3142 32.0121 54.0095C31.3846 53.7049 30.8556 53.2298 30.4854 52.6386C30.1152 52.0474 29.9189 51.3639 29.9189 50.6664C29.9189 49.9689 30.1152 49.2854 30.4854 48.6942C30.8556 48.103 31.3846 47.6279 32.0121 47.3232C32.6396 47.0186 33.3401 46.8966 34.0336 46.9714C34.7271 47.0461 35.3856 47.3145 35.9337 47.7459C35.9337 47.7513 35.9415 47.7544 35.9469 47.7599C36.1014 47.8784 36.286 47.9512 36.4798 47.9699C36.6736 47.9887 36.8688 47.9528 37.0432 47.8661C37.2176 47.7795 37.3641 47.6457 37.4663 47.4799C37.5684 47.3141 37.6219 47.123 37.6208 46.9283V38.1375H46.4868C46.681 38.1367 46.8716 38.1903 47.0369 38.2922C47.2022 38.3942 47.3357 38.5404 47.4222 38.7143C47.5086 38.8882 47.5447 39.0829 47.5262 39.2763C47.5077 39.4696 47.4354 39.6539 47.3175 39.8083C47.3175 39.8137 47.3098 39.8191 47.3067 39.8246C46.8764 40.3723 46.6088 41.03 46.5346 41.7226C46.4604 42.4151 46.5825 43.1146 46.887 43.7411C47.1915 44.3675 47.6661 44.8957 48.2565 45.2652C48.847 45.6347 49.5295 45.8307 50.226 45.8307C50.9226 45.8307 51.605 45.6347 52.1955 45.2652C52.7859 44.8957 53.2605 44.3675 53.565 43.7411C53.8695 43.1146 53.9916 42.4151 53.9174 41.7226C53.8432 41.03 53.5756 40.3723 53.1453 39.8246C53.1414 39.8186 53.1367 39.8131 53.1314 39.8083C53.0141 39.6537 52.9423 39.4694 52.9242 39.2762C52.906 39.083 52.9422 38.8886 53.0287 38.7148C53.1152 38.5411 53.2484 38.395 53.4135 38.293C53.5786 38.191 53.7689 38.1371 53.9629 38.1375H62.8258" stroke="black" stroke-width="0.980065" stroke-linecap="round" stroke-linejoin="round"/>
<path d="M88.0771 63.2674H97.2861C97.4471 63.2192 97.5941 63.1326 97.7144 63.0151C97.8346 62.8977 97.9245 62.7528 97.9765 62.5929C98.0284 62.433 98.0408 62.2629 98.0125 62.0972C97.9842 61.9314 97.9161 61.7751 97.8141 61.6414C97.8087 61.636 97.8064 61.6306 97.801 61.6252C97.3695 61.0771 97.1009 60.4186 97.0261 59.725C96.9513 59.0315 97.0731 58.3309 97.3778 57.7033C97.6824 57.0758 98.1575 56.5467 98.7488 56.1764C99.34 55.8062 100.023 55.6099 100.721 55.6099C101.419 55.6099 102.102 55.8062 102.693 56.1764C103.285 56.5467 103.76 57.0758 104.064 57.7033C104.369 58.3309 104.491 59.0315 104.416 59.725C104.341 60.4186 104.073 61.0771 103.641 61.6252C103.636 61.6306 103.633 61.636 103.628 61.6414C103.526 61.7752 103.459 61.9315 103.431 62.0972C103.402 62.2628 103.415 62.4327 103.467 62.5925C103.519 62.7523 103.608 62.8971 103.728 63.0146C103.848 63.1322 103.995 63.2189 104.156 63.2674H113.279V54.4045C113.278 54.2104 113.332 54.02 113.434 53.8548C113.536 53.6896 113.682 53.5562 113.856 53.4698C114.03 53.3833 114.224 53.3473 114.417 53.3656C114.61 53.384 114.795 53.4561 114.949 53.5737C114.956 53.5778 114.962 53.5822 114.968 53.5869C115.517 54.0183 116.175 54.2867 116.869 54.3614C117.562 54.4362 118.263 54.3142 118.89 54.0096C119.518 53.7049 120.047 53.2298 120.417 52.6386C120.787 52.0474 120.983 51.3639 120.983 50.6664C120.983 49.9689 120.787 49.2855 120.417 48.6942C120.047 48.103 119.518 47.6279 118.89 47.3233C118.263 47.0186 117.562 46.8967 116.869 46.9714C116.175 47.0462 115.517 47.3146 114.968 47.7459L114.952 47.7599C114.798 47.8776 114.613 47.9497 114.42 47.968C114.227 47.9863 114.032 47.9502 113.858 47.8637C113.685 47.7771 113.539 47.6436 113.437 47.4783C113.335 47.313 113.281 47.1225 113.282 46.9283V38.1375H104.416C104.222 38.1372 104.032 38.1912 103.867 38.2935C103.701 38.3958 103.568 38.5422 103.482 38.7162C103.396 38.8902 103.36 39.0848 103.379 39.2781C103.397 39.4714 103.47 39.6556 103.588 39.8099C103.593 39.8153 103.596 39.8207 103.602 39.8261C104.033 40.3743 104.301 41.0327 104.376 41.7262C104.451 42.4198 104.329 43.1203 104.024 43.7478C103.72 44.3752 103.245 44.9043 102.653 45.2744C102.062 45.6446 101.379 45.8409 100.681 45.8409C99.9837 45.8409 99.3002 45.6446 98.709 45.2744C98.1178 44.9043 97.6427 44.3752 97.338 43.7478C97.0334 43.1203 96.9114 42.4198 96.9862 41.7262C97.0609 41.0327 97.3293 40.3743 97.7607 39.8261C97.766 39.8215 97.7705 39.816 97.7739 39.8099C97.8924 39.6553 97.9651 39.4705 97.9837 39.2767C98.0023 39.0828 97.9661 38.8876 97.8792 38.7133C97.7923 38.539 97.6582 38.3926 97.4921 38.2908C97.3261 38.189 97.1348 38.1359 96.94 38.1375H88.0771" stroke="black" stroke-width="0.980065" stroke-linecap="round" stroke-linejoin="round"/>
<path d="M111.188 91.5377L118.29 97.3996C118.445 97.4651 118.614 97.492 118.782 97.4778C118.949 97.4636 119.111 97.4089 119.253 97.3183C119.395 97.2277 119.512 97.1039 119.596 96.9577C119.679 96.8115 119.725 96.6472 119.731 96.479V96.4604C119.747 95.7629 119.959 95.084 120.343 94.5012C120.726 93.9185 121.266 93.4555 121.901 93.1653C122.535 92.8751 123.238 92.7693 123.93 92.86C124.622 92.9508 125.274 93.2345 125.812 93.6786C126.35 94.1226 126.753 94.7092 126.973 95.3712C127.193 96.0332 127.223 96.7438 127.058 97.4218C126.893 98.0998 126.541 98.7178 126.042 99.205C125.543 99.6922 124.916 100.029 124.234 100.177H124.213C124.049 100.215 123.897 100.293 123.77 100.403C123.642 100.513 123.544 100.652 123.482 100.809C123.42 100.965 123.397 101.135 123.415 101.302C123.433 101.469 123.491 101.63 123.585 101.769L130.619 107.576L136.263 100.742C136.386 100.592 136.549 100.479 136.732 100.417C136.916 100.355 137.114 100.345 137.303 100.389C137.492 100.433 137.664 100.529 137.802 100.666C137.939 100.803 138.035 100.976 138.079 101.165C138.082 101.172 138.083 101.179 138.085 101.186C138.233 101.868 138.57 102.494 139.058 102.993C139.545 103.492 140.163 103.844 140.841 104.008C141.519 104.172 142.23 104.142 142.891 103.921C143.553 103.701 144.139 103.298 144.583 102.76C145.027 102.222 145.31 101.57 145.401 100.878C145.492 100.187 145.386 99.4837 145.096 98.8494C144.805 98.2152 144.342 97.6754 143.76 97.2918C143.177 96.9082 142.499 96.6963 141.801 96.6803H141.78C141.586 96.6728 141.398 96.6111 141.237 96.5023C141.076 96.3934 140.949 96.2418 140.871 96.0645C140.792 95.8872 140.764 95.6914 140.791 95.4992C140.817 95.307 140.897 95.1261 141.022 94.977L146.616 88.1992L139.781 82.5564C139.632 82.4324 139.451 82.3527 139.258 82.3263C139.066 82.2999 138.87 82.3279 138.693 82.4071C138.515 82.4863 138.364 82.6135 138.255 82.7745C138.147 82.9354 138.085 83.1235 138.078 83.3175C138.077 83.3236 138.077 83.33 138.078 83.3361C138.062 84.0336 137.85 84.7126 137.466 85.2953C137.083 85.878 136.543 86.341 135.908 86.6312C135.274 86.9215 134.571 87.0273 133.879 86.9365C133.187 86.8457 132.535 86.5621 131.997 86.118C131.459 85.6739 131.056 85.0873 130.836 84.4253C130.616 83.7633 130.586 83.0527 130.751 82.3747C130.916 81.6967 131.268 81.0788 131.767 80.5916C132.267 80.1044 132.893 79.7676 133.575 79.6197H133.596C133.785 79.5749 133.958 79.4782 134.095 79.3405C134.232 79.2028 134.328 79.0296 134.372 78.8404C134.416 78.6512 134.406 78.4535 134.343 78.2696C134.281 78.0856 134.168 77.9228 134.018 77.7994L127.09 72.0808L121.327 79.0591C121.187 79.1526 121.027 79.2107 120.86 79.2285C120.693 79.2463 120.524 79.2234 120.367 79.1615C120.211 79.0997 120.072 79.0009 119.962 78.8736C119.853 78.7462 119.775 78.5942 119.737 78.4304C119.736 78.4231 119.734 78.4158 119.732 78.4088C119.576 77.6926 119.212 77.0385 118.685 76.5291C118.158 76.0197 117.492 75.6778 116.771 75.5464C116.049 75.415 115.306 75.5 114.633 75.7907C113.96 76.0814 113.388 76.5649 112.99 77.18C112.63 77.7338 112.425 78.3735 112.395 79.0331C112.366 79.6927 112.512 80.3483 112.821 80.9322C113.129 81.5162 113.587 82.0073 114.149 82.3548C114.71 82.7024 115.354 82.8939 116.014 82.9095H116.036C116.204 82.9161 116.368 82.9633 116.514 83.0471C116.659 83.131 116.783 83.2489 116.873 83.3909C116.963 83.5329 117.018 83.6946 117.032 83.8622C117.046 84.0299 117.019 84.1984 116.954 84.3535L111.091 91.4557L111.188 91.5377Z" stroke="black" stroke-width="0.980065" stroke-linecap="round" stroke-linejoin="round"/>
<path d="M8.29871 81.6404L26.9365 98.6019L32.8982 92.0463C33.0284 91.9023 33.1963 91.7975 33.383 91.7439C33.5696 91.6903 33.7675 91.6899 33.9543 91.7429C34.1411 91.7959 34.3094 91.9002 34.4401 92.0438C34.5707 92.1875 34.6586 92.3648 34.6937 92.5558V92.5775C34.8091 93.2654 35.1158 93.9069 35.5786 94.4287C36.0415 94.9505 36.6419 95.3316 37.3111 95.5282C37.9803 95.7249 38.6913 95.7293 39.3629 95.5408C40.0345 95.3524 40.6395 94.9787 41.1087 94.4626C41.5779 93.9465 41.8924 93.3088 42.0163 92.6224C42.1401 91.9359 42.0683 91.2285 41.809 90.581C41.5497 89.9335 41.1134 89.372 40.55 88.9608C39.9866 88.5495 39.3188 88.3052 38.623 88.2556H38.6122C38.4187 88.2384 38.2338 88.1674 38.0785 88.0507C37.9232 87.934 37.8036 87.7761 37.7332 87.595C37.6629 87.414 37.6445 87.2168 37.6802 87.0258C37.716 86.8349 37.8044 86.6577 37.9355 86.5143L43.8492 80.0152L37.2937 74.0535C37.1506 73.9221 36.9736 73.8334 36.7828 73.7975C36.5919 73.7616 36.3948 73.78 36.2138 73.8504C36.0328 73.9209 35.8752 74.0407 35.7588 74.1962C35.6424 74.3517 35.572 74.5367 35.5555 74.7302C35.5571 74.7363 35.5571 74.7427 35.5555 74.7488C35.5061 75.4447 35.2619 76.1128 34.8506 76.6764C34.4394 77.24 33.8778 77.6765 33.2301 77.9359C32.5824 78.1953 31.8748 78.2672 31.1882 78.1433C30.5016 78.0193 29.8637 77.7046 29.3476 77.2351C28.8315 76.7656 28.4579 76.1603 28.2697 75.4885C28.0815 74.8167 28.0862 74.1054 28.2833 73.4361C28.4804 72.7668 28.8619 72.1665 29.3842 71.7039C29.9065 71.2413 30.5485 70.9351 31.2367 70.8202C31.2438 70.8216 31.2512 70.8216 31.2584 70.8202C31.4493 70.7851 31.6267 70.6972 31.7703 70.5666C31.914 70.4359 32.0182 70.2677 32.0712 70.0808C32.1242 69.894 32.1239 69.6961 32.0703 69.5095C32.0167 69.3228 31.9119 69.1549 31.7678 69.0247L25.117 62.9724L19.0267 69.6658C18.8828 69.7525 18.7199 69.8029 18.5521 69.8128C18.3844 69.8226 18.2167 69.7916 18.0636 69.7224C17.9105 69.6532 17.7764 69.5478 17.673 69.4154C17.5695 69.2829 17.4998 69.1274 17.4697 68.962C17.4686 68.9546 17.4667 68.9474 17.4643 68.9403C17.3432 68.2174 17.0107 67.5465 16.5086 67.0123C16.0066 66.4782 15.3576 66.1047 14.6435 65.9391C13.9295 65.7734 13.1823 65.823 12.4964 66.0815C11.8105 66.3401 11.2165 66.796 10.7895 67.3918C10.4026 67.9278 10.1659 68.5575 10.1041 69.2156C10.0423 69.8738 10.1575 70.5365 10.4378 71.1352C10.7181 71.7338 11.1533 72.2467 11.6984 72.6207C12.2435 72.9947 12.8786 73.2162 13.5381 73.2622C13.5442 73.2639 13.5506 73.2639 13.5567 73.2622C13.7241 73.2765 13.8855 73.3312 14.0272 73.4217C14.1688 73.5122 14.2863 73.6356 14.3697 73.7815C14.4531 73.9274 14.4998 74.0914 14.5059 74.2593C14.5119 74.4273 14.4771 74.5942 14.4045 74.7457L8.21045 81.5591L8.29871 81.6404Z" stroke="black" stroke-width="0.980065" stroke-linecap="round" stroke-linejoin="round"/>
<path d="M98.6312 48.1438L94.6616 50.4379L98.6312 52.7281" stroke="black" stroke-width="0.980065" stroke-linecap="round" stroke-linejoin="round"/>
<path d="M102.764 52.7281L106.736 50.4379L102.764 48.1438" stroke="black" stroke-width="0.980065" stroke-linecap="round" stroke-linejoin="round"/>
<path d="M101.816 47.0879L99.5464 54.3179" stroke="black" stroke-width="0.980065" stroke-linecap="round" stroke-linejoin="round"/>
<path d="M48.4554 48.1438L44.4858 50.4379L48.4554 52.7281" stroke="black" stroke-width="0.980065" stroke-linecap="round" stroke-linejoin="round"/>
<path d="M52.5874 52.7281L56.5601 50.4379L52.5874 48.1438" stroke="black" stroke-width="0.980065" stroke-linecap="round" stroke-linejoin="round"/>
<path d="M51.6394 47.0879L49.3701 54.3179" stroke="black" stroke-width="0.980065" stroke-linecap="round" stroke-linejoin="round"/>
<path d="M77.3209 16.5034L76.8796 17.911L74.1883 26.4843L73.771 27.8114" stroke="black" stroke-width="0.980065" stroke-linecap="round" stroke-linejoin="round"/>
<path d="M128.091 83.7439L121.738 87.8761" stroke="black" stroke-width="0.980065" stroke-linecap="round" stroke-linejoin="round"/>
<path d="M137.197 91.2612L130.841 95.3934" stroke="black" stroke-width="0.980065" stroke-linecap="round" stroke-linejoin="round"/>
<path d="M74.9873 71.2423C74.9873 71.3829 75.0432 71.5178 75.1426 71.6173C75.2421 71.7168 75.377 71.7726 75.5177 71.7726C75.6583 71.7726 75.7932 71.7168 75.8927 71.6173C75.9922 71.5178 76.048 71.3829 76.048 71.2423C76.048 71.1016 75.9922 70.9667 75.8927 70.8673C75.7932 70.7678 75.6583 70.7119 75.5177 70.7119C75.377 70.7119 75.2421 70.7678 75.1426 70.8673C75.0432 70.9667 74.9873 71.1016 74.9873 71.2423Z" stroke="black" stroke-width="0.980065" stroke-linecap="round" stroke-linejoin="round"/>
<path d="M74.9873 74.1937C74.9873 74.3344 75.0432 74.4693 75.1426 74.5687C75.2421 74.6682 75.377 74.7241 75.5177 74.7241C75.6583 74.7241 75.7932 74.6682 75.8927 74.5687C75.9922 74.4693 76.048 74.3344 76.048 74.1937C76.048 74.053 75.9922 73.9181 75.8927 73.8187C75.7932 73.7192 75.6583 73.6633 75.5177 73.6633C75.377 73.6633 75.2421 73.7192 75.1426 73.8187C75.0432 73.9181 74.9873 74.053 74.9873 74.1937Z" stroke="black" stroke-width="0.980065" stroke-linecap="round" stroke-linejoin="round"/>
<path d="M74.9873 77.1451C74.9873 77.2858 75.0432 77.4207 75.1426 77.5201C75.2421 77.6196 75.377 77.6755 75.5177 77.6755C75.6583 77.6755 75.7932 77.6196 75.8927 77.5201C75.9922 77.4207 76.048 77.2858 76.048 77.1451C76.048 77.0044 75.9922 76.8695 75.8927 76.7701C75.7932 76.6706 75.6583 76.6147 75.5177 76.6147C75.377 76.6147 75.2421 76.6706 75.1426 76.7701C75.0432 76.8695 74.9873 77.0044 74.9873 77.1451Z" stroke="black" stroke-width="0.980065" stroke-linecap="round" stroke-linejoin="round"/>
<path d="M74.9873 80.0965C74.9873 80.2372 75.0432 80.3721 75.1426 80.4715C75.2421 80.571 75.377 80.6269 75.5177 80.6269C75.6583 80.6269 75.7932 80.571 75.8927 80.4715C75.9922 80.3721 76.048 80.2372 76.048 80.0965C76.048 79.9559 75.9922 79.821 75.8927 79.7215C75.7932 79.622 75.6583 79.5662 75.5177 79.5662C75.377 79.5662 75.2421 79.622 75.1426 79.7215C75.0432 79.821 74.9873 79.9559 74.9873 80.0965Z" stroke="black" stroke-width="0.980065" stroke-linecap="round" stroke-linejoin="round"/>
<path d="M74.9863 83.0481C74.9865 82.9312 75.0252 82.8177 75.0965 82.7251C75.1677 82.6325 75.2675 82.566 75.3804 82.5358C75.4932 82.5057 75.6129 82.5136 75.7208 82.5583C75.8288 82.603 75.9189 82.6821 75.9774 82.7833" stroke="black" stroke-width="0.980065" stroke-linecap="round" stroke-linejoin="round"/>
<path d="M126.953 87.8926C127.034 87.959 127.093 88.0479 127.124 88.1482C127.154 88.2484 127.154 88.3554 127.124 88.4557C127.094 88.556 127.034 88.645 126.953 88.7115C126.872 88.778 126.773 88.819 126.669 88.8293C126.565 88.8396 126.46 88.8188 126.367 88.7694C126.275 88.72 126.199 88.6443 126.15 88.5519C126.101 88.4595 126.08 88.3545 126.09 88.2503C126.1 88.146 126.141 88.0471 126.208 87.9662C126.297 87.8577 126.425 87.7891 126.565 87.7753C126.705 87.7615 126.844 87.8037 126.953 87.8926Z" stroke="black" stroke-width="0.980065" stroke-linecap="round" stroke-linejoin="round"/>
<path d="M129.23 89.7715C129.311 89.8384 129.37 89.9277 129.4 90.0282C129.43 90.1287 129.429 90.2358 129.399 90.3361C129.368 90.4363 129.308 90.5251 129.226 90.5913C129.145 90.6575 129.046 90.698 128.941 90.7079C128.837 90.7177 128.732 90.6964 128.64 90.6466C128.548 90.5968 128.472 90.5207 128.423 90.4281C128.374 90.3354 128.353 90.2302 128.364 90.1259C128.375 90.0216 128.416 89.9228 128.483 89.8419C128.527 89.7881 128.582 89.7436 128.643 89.7109C128.705 89.6782 128.772 89.6581 128.842 89.6515C128.911 89.645 128.981 89.6522 129.048 89.6728C129.115 89.6934 129.176 89.7269 129.23 89.7715Z" stroke="black" stroke-width="0.980065" stroke-linecap="round" stroke-linejoin="round"/>
<path d="M131.508 91.6507C131.588 91.7177 131.648 91.8072 131.678 91.9078C131.708 92.0085 131.707 92.1158 131.676 92.2162C131.646 92.3166 131.586 92.4055 131.504 92.4718C131.423 92.5381 131.323 92.5787 131.219 92.5886C131.114 92.5984 131.009 92.5771 130.916 92.5272C130.824 92.4773 130.748 92.4011 130.699 92.3082C130.65 92.2154 130.63 92.11 130.64 92.0056C130.651 91.9011 130.693 91.8021 130.76 91.7212C130.85 91.613 130.979 91.5448 131.119 91.5316C131.259 91.5184 131.399 91.5612 131.508 91.6507Z" stroke="black" stroke-width="0.980065" stroke-linecap="round" stroke-linejoin="round"/>
<path d="M21.9077 77.6816L24.2041 79.7721L27.2617 82.5525L29.5573 84.6429" stroke="black" stroke-width="0.980065" stroke-linecap="round" stroke-linejoin="round"/>
<path d="M19.1265 80.7385L21.4229 82.8267L24.4804 85.607L26.7761 87.6975" stroke="black" stroke-width="0.980065" stroke-linecap="round" stroke-linejoin="round"/>
<path d="M29.3514 80.2537L27.2617 82.5524L24.4806 85.6068L22.3901 87.9064" stroke="black" stroke-width="0.980065" stroke-linecap="round" stroke-linejoin="round"/>
<path d="M26.2946 77.4727L24.2041 79.7722L21.423 82.8266L19.3325 85.1254" stroke="black" stroke-width="0.980065" stroke-linecap="round" stroke-linejoin="round"/>
<path d="M76.8796 17.9109C77.7105 19.1735 78.1219 20.6662 78.0549 22.1762C78.0549 24.9682 76.9206 27.2313 75.5177 27.2313C75.2542 27.2148 74.9978 27.139 74.7676 27.0096C74.5374 26.8803 74.3394 26.7007 74.1883 26.4842C73.3323 25.2157 72.9087 23.7048 72.9805 22.1762C72.9805 19.3843 74.1148 17.1204 75.5177 17.1204C75.7901 17.1389 76.0546 17.2198 76.2908 17.3569C76.5269 17.494 76.7284 17.6835 76.8796 17.9109Z" stroke="black" stroke-width="0.980065" stroke-linecap="round" stroke-linejoin="round"/>
<path d="M104.163 22.7803L100.884 25.038" stroke="black" stroke-width="0.980065" stroke-linecap="round" stroke-linejoin="round"/>
<path d="M103.652 25.5497L101.396 22.2708" stroke="black" stroke-width="0.980065" stroke-linecap="round" stroke-linejoin="round"/>
<path d="M100.367 81.1882V85.1687" stroke="black" stroke-width="0.980065" stroke-linecap="round" stroke-linejoin="round"/>
<path d="M102.358 83.1782H98.3745" stroke="black" stroke-width="0.980065" stroke-linecap="round" stroke-linejoin="round"/>
<path d="M54.502 102.041L50.6733 103.124" stroke="black" stroke-width="0.980065" stroke-linecap="round" stroke-linejoin="round"/>
<path d="M53.1296 104.497L52.0464 100.666" stroke="black" stroke-width="0.980065" stroke-linecap="round" stroke-linejoin="round"/>
<path d="M51.7803 28.4773L50.5454 32.2626" stroke="black" stroke-width="0.980065" stroke-linecap="round" stroke-linejoin="round"/>
<path d="M53.0558 30.9905L49.2705 29.7524" stroke="black" stroke-width="0.980065" stroke-linecap="round" stroke-linejoin="round"/>
</svg>
