<svg width="156" height="155" viewBox="0 0 156 155" fill="none" xmlns="http://www.w3.org/2000/svg">
<path d="M38.7698 96.4589C40.7246 95.0307 43.7323 65.784 39.9726 65.032C38.5436 64.7309 38.2433 66.7613 38.2433 68.7917C38.2433 70.8962 38.3977 76.1597 38.2433 86.4599C38.1684 93.1508 38.2433 96.5345 38.7698 96.4589Z" fill="#3D9CFB"/>
<path d="M44.1074 89.3912C42.9093 89.7911 44.1939 92.402 44.5583 93.6766C44.7127 94.2031 43.9175 94.8632 44.7127 96.6102C45.1347 97.4763 45.6655 98.2849 46.2922 99.0166C46.8859 99.4798 47.7953 98.8622 47.2695 97.813C46.7438 96.7639 46.2922 95.934 46.1416 95.558C45.7657 94.5799 46.8928 93.9792 46.296 92.8513C44.8593 90.3693 44.9365 89.0909 44.1074 89.3912Z" fill="#3D9CFB"/>
<path d="M38.9204 47.0628C33.216 49.9447 38.0365 58.7865 43.581 55.1079C48.7087 51.7056 43.9029 44.546 38.9204 47.0628Z" fill="#3D9CFB"/>
<path d="M53.5831 79.3172C54.7866 81.1962 56.3623 90.8201 59.2959 93.5993C56.2133 87.9637 57.7921 76.6082 56.5893 73.074C55.5362 71.1949 51.0254 69.7659 49.5215 67.8868C48.1682 73.5225 48.1682 75.4803 48.1682 75.4803C48.1682 75.4803 52.4529 76.9108 53.5831 79.3172Z" fill="#3D9CFB"/>
<path d="M37.7171 114.353C37.3412 115.856 38.5972 116.075 38.9207 115.029C39.1675 114.178 39.6655 113.421 40.3495 112.858C41.0336 112.295 41.8718 111.951 42.7545 111.872C44.8598 111.646 46.6639 113.15 47.341 113.901C48.0929 114.653 48.9946 114.128 48.3183 113.075C47.4166 111.646 44.9354 109.692 42.8301 110.218C40.9503 99.2417 22.7958 104.538 27.1167 114.579C27.5421 115.567 28.5449 114.579 28.2438 113.526C25.6877 106.234 39.5213 101.722 41.2514 110.444C40.4189 110.808 39.6732 111.345 39.0639 112.019C38.4545 112.692 37.9955 113.488 37.7171 114.353Z" fill="#3D9CFB"/>
<path d="M44.709 28.866C43.6568 24.6563 41.8526 21.874 40.649 18.7164C39.8222 16.6112 39.4462 11.4233 38.6194 11.3484C37.6421 11.2712 37.5664 17.1385 36.5898 18.9419C34.8597 22.0245 33.3566 26.6859 32.5291 29.3925C33.3566 30.2217 42.5289 30.8231 44.709 28.866Z" fill="#3D9CFB"/>
<path d="M17.5677 112.699C17.5677 112.699 12.2293 117.435 11.7777 118.037C11.326 118.639 12.0031 121.12 12.3042 121.796C12.6801 122.473 25.612 131.344 25.612 131.344C24.9986 132.033 24.3459 132.686 23.6573 133.3C23.4319 133.377 17.1161 129.39 17.1161 129.39C17.1161 129.39 17.4048 133.759 17.9429 134.503C18.3845 135.111 29.672 141.645 34.8591 143.6C35.4066 143.806 35.9918 143.893 36.5754 143.854C37.159 143.815 37.7276 143.651 38.2428 143.375C44.7841 139.84 56.4375 132.623 56.8884 131.794C57.4149 130.892 58.0919 125.028 58.0919 125.028C47.3471 130.041 46.8592 132.915 42.9266 129.062C41.564 127.728 35.3023 122.043 35.3023 122.043L17.5677 112.699Z" fill="#3D9CFB"/>
<path d="M57.3404 113.376C57.115 113.488 44.9381 118.373 38.8508 120.813C40.3346 122.589 43.8689 126.65 46.1378 126.984C48.619 127.285 61.3247 120.819 61.7007 119.54C62.0751 118.341 58.7686 115.253 57.3404 113.376Z" fill="#3D9CFB"/>
<path d="M65.9116 107.587C67.1144 103 61.9265 99.5414 57.2651 100.82C57.2651 98.3386 55.3104 97.2107 53.4313 97.1359C50.1981 96.9815 49.22 99.692 50.0476 100.444C50.4236 100.744 50.7239 100.594 50.9501 100.143C52.1529 97.2092 56.7401 98.8651 55.6115 101.421C54.4087 101.872 53.0546 103.151 52.8322 104.052C52.6068 105.03 53.2082 105.256 53.8852 104.579C56.5919 102.173 58.471 101.645 60.8773 102.173C61.9915 102.377 62.98 103.013 63.6277 103.943C64.2754 104.872 64.5299 106.02 64.3359 107.136C62.0801 106.759 60.5013 108.113 61.0279 108.94C61.403 109.616 63.8843 107.812 65.5387 109.165C66.215 109.692 66.4412 110.669 66.0644 112.022C65.6877 113.374 67.1174 113.525 67.4185 112.397C67.7883 110.82 67.8655 108.413 65.9116 107.587Z" fill="#3D9CFB"/>
<path d="M31.1756 95.5572C30.698 97.6544 29.9395 99.6776 28.9206 101.572C28.1687 102.85 29.2773 103.362 29.898 102.549C31.1085 100.807 32.023 98.8767 32.6046 96.8364C33.2809 94.2803 33.1311 93.98 32.4502 93.0775C32.0742 92.551 33.8784 89.4684 32.7513 89.1681C32.2997 89.0909 31.8488 89.0909 31.6983 89.7695C31.5477 91.3482 29.9945 92.8336 30.9463 94.2054C31.1114 94.3843 31.221 94.6073 31.2617 94.8473C31.3024 95.0873 31.2725 95.3339 31.1756 95.5572Z" fill="#3D9CFB"/>
<path d="M137.412 84.129C137.257 82.3997 135.608 79.1665 133.577 76.8358C130.292 78.181 126.896 79.2375 123.428 79.9934C120.721 82.3997 114.858 89.7677 112.676 83.9785C106.511 90.5197 104.256 88.1133 102.075 80.7453C96.8119 85.2561 97.3385 76.1596 96.8119 72.325C95.1583 70.2946 94.0327 68.641 94.0327 68.641C81.7022 73.0762 88.9205 75.1066 89.8971 83.0775L92.0031 78.9427C92.0031 78.9427 91.1006 94.6561 91.8487 101.348C101.247 107.588 124.478 109.092 128.614 105.859L123.953 98.2645C123.954 98.1147 128.468 88.4893 137.412 84.129Z" fill="#3D9CFB"/>
<path d="M29.2965 75.3317C29.2965 75.3317 29.2965 73.3021 27.9432 67.7383C26.4393 69.693 21.9285 71.122 20.8755 72.9262C20.1992 74.129 20.4995 73.753 20.3489 79.9182C20.5744 84.0531 19.5221 89.1661 18.3193 93.5264C22.5299 87.0609 22.1539 76.2342 29.2965 75.3317Z" fill="#3D9CFB"/>
<path d="M11.8538 106.233C11.9408 107.088 12.2237 107.911 12.6806 108.639C13.1315 109.09 13.8834 108.639 13.5831 107.586C12.0792 102.624 16.5129 97.2848 21.7023 102.624C22.4434 103.387 23.0556 102.701 22.6804 101.722C21.9285 99.9174 22.3894 98.6682 23.5073 98.2629C25.2528 97.6307 26.4486 99.5584 27.2662 99.0905C27.3515 99.0258 27.4219 98.9435 27.4728 98.8493C27.5236 98.755 27.5537 98.651 27.561 98.5441C27.5683 98.4373 27.5527 98.3301 27.5152 98.2298C27.4776 98.1295 27.419 98.0384 27.3434 97.9626C26.8714 97.3847 26.2431 96.9549 25.5334 96.7244C24.8237 96.4939 24.0627 96.4726 23.3413 96.6629C22.6198 96.8532 21.9684 97.2471 21.4647 97.7977C20.9611 98.3482 20.6266 99.0321 20.5011 99.7676C16.7422 97.4361 11.7774 100.519 11.7774 104.654C7.71739 105.256 7.64251 109.165 9.07072 110.82C9.82266 111.721 10.8757 111.345 10.2743 110.293C9.37258 108.264 9.89831 106.533 11.8538 106.233Z" fill="#3D9CFB"/>
<path d="M37.3412 54.3556C41.6274 55.0319 43.356 51.7238 42.8302 48.8674C42.3037 46.2356 39.8194 44.1304 36.289 45.6343C32.5293 47.3636 33.3569 53.6786 37.3412 54.3556ZM35.1611 48.8674C37.1907 43.1546 45.2358 48.8674 40.1984 52.6263C37.7929 54.5062 34.2594 51.5733 35.1611 48.8674Z" fill="#001434"/>
<path d="M149.968 94.805C149.89 94.7278 149.89 94.6544 149.817 94.5788C151.772 90.1436 149.216 86.2334 144.404 87.1359C143.201 84.9557 141.096 80.5198 139.817 78.4122C142.975 77.6602 145.607 74.2016 145.081 71.119C150.716 69.3148 151.847 59.9921 148.313 56.0826C152.148 48.6397 148.99 43.2256 143.276 41.4214C141.697 32.9294 135.306 29.392 129.292 29.9185C121.322 18.3384 105.684 20.7455 104.33 32.0987C97.7142 31.5722 92.3009 37.8887 93.4288 44.1281C88.6169 45.0306 86.1356 52.1732 88.7674 56.0826C86.3611 58.7893 87.7144 64.5747 90.7221 66.6082C86.2862 68.488 79.8206 72.0215 78.3916 72.8483C75.5352 69.5403 68.8435 71.3452 69.8224 76.7578C69.8168 76.8443 69.794 76.9288 69.7553 77.0064C69.7166 77.0839 69.6627 77.1529 69.5969 77.2094C59.8982 85.1032 71.4011 104.05 86.3626 95.78C86.1372 97.2082 85.762 99.0132 87.1146 99.9906C86.5888 106.983 85.5358 116.155 86.2877 121.192C75.1608 130.59 97.6409 133.974 106.36 131.192C107.939 135.928 122.825 136.605 129.289 134.203C136.055 131.722 138.386 130.594 138.236 126.083C138.01 119.768 137.71 115.933 137.634 110.821C145.908 110.744 154.554 101.872 149.968 94.805ZM89.9702 61.9491C89.4437 60.4453 88.918 58.4156 90.3462 57.2129C91.6246 55.9344 87.9406 53.3783 90.1208 49.1678C90.5716 48.2653 91.6246 46.0851 94.1807 46.0103C96.5114 45.9331 93.5793 40.9729 97.3382 37.0627C98.226 36.0041 99.367 35.1871 100.655 34.6877C101.943 34.1883 103.337 34.0227 104.706 34.2063C106.21 34.3607 106.21 32.6275 106.361 31.9505C107.789 23.2268 120.27 21.1995 127.111 30.4466C124.101 31.8007 124.332 33.5292 125.307 33.4574C126.285 33.303 126.435 32.6306 129.066 31.9536C131.773 31.2016 135.156 32.4044 137.635 34.81C141.771 38.9448 141.546 45.1858 141.546 45.1858C141.468 46.5383 143.726 46.9899 143.5 43.5313C148.086 45.3355 149.213 51.1248 146.131 55.5608C145.998 55.7751 145.947 56.0309 145.988 56.28C146.03 56.5292 146.161 56.7547 146.357 56.9141C147.936 58.1925 148.713 61.4133 148.086 64.2821C147.76 65.7806 147.034 68.4927 143.876 69.3195C143.575 69.3967 143.049 69.6954 143.124 70.6728C143.425 74.4317 140.345 77.6649 135.831 76.1618C140.192 72.9286 144.478 65.1846 138.914 62.0263C136.433 60.5981 135.756 57.2901 138.688 52.7785C140.418 49.9992 133.35 52.4781 130.794 45.7871C129.892 43.9073 122.825 48.1171 119.214 41.9526C119.09 41.7373 118.893 41.5734 118.658 41.4908C118.424 41.4081 118.168 41.412 117.936 41.5017C110.944 43.9822 108.909 38.7997 108.838 38.5681C107.68 34.837 88.7875 47.755 92.2229 65.1082C91.144 64.3325 90.352 63.2218 89.9702 61.9491ZM108.992 77.4371C96.9623 74.204 92.1504 67.0614 94.6324 56.3104C100.121 60.8212 105.534 59.3212 107.489 55.709C109.595 51.7995 108.842 46.3106 100.872 44.6569C102.752 42.7773 104.972 41.272 107.414 40.221C108.467 42.0252 111.474 45.6343 117.94 43.6796C121.022 48.1147 126.664 47.8144 129.366 47.3636C130.03 48.7351 130.986 49.9442 132.169 50.9055C133.351 51.8667 134.73 52.5567 136.208 52.9267C133.802 57.5881 134.704 61.5732 137.862 63.6784C139.516 64.8063 140.493 65.6331 139.291 68.4903C134.781 79.0908 120.495 80.5198 108.992 77.4371ZM120.871 80.8957C118.616 82.8504 116.51 85.5571 115.307 85.3317C114.105 85.1063 113.428 82.2491 112.751 80.2943C115.423 80.829 118.15 81.0321 120.871 80.8988V80.8957ZM106.962 79.0159C108.118 79.396 109.299 79.6975 110.496 79.9184C110.845 81.0493 111.272 82.1546 111.774 83.2264C109.669 84.8801 106.886 87.2864 105.984 86.6101C105.157 86.008 104.179 83.4518 103.428 81.2717C104.669 80.6239 105.852 79.8692 106.962 79.0159ZM99.5176 80.8216C98.6159 80.5954 98.1643 77.0619 97.7891 74.3553C99.8476 75.9945 102.158 77.2895 104.631 78.1898C102.902 79.317 100.421 81.0463 99.5176 80.8216ZM97.6386 55.7846C100.539 53.9989 103.259 51.9343 105.759 49.6202C108.464 55.0289 102.727 58.8364 97.6393 55.7839L97.6386 55.7846ZM93.0521 67.8897C93.6474 69.3934 94.486 70.789 95.5341 72.0207C95.9849 74.6525 96.2103 85.554 101.474 82.1711C102.376 84.3512 104.176 88.9748 106.06 89.0126C106.586 89.0234 107.939 88.561 112.601 85.0275C115.157 90.4408 120.345 83.6742 124.181 80.5916C127.568 80.2424 130.845 79.1929 133.804 77.5097C134.971 78.1046 136.254 78.4381 137.564 78.4871C138.09 79.3139 138.917 80.8178 139.744 82.3965C132.977 83.1484 126.361 88.7115 123.58 95.8541C120.948 91.6444 120.271 89.238 119.52 90.9673C118.843 92.3955 120.196 94.05 121.625 96.5312C123.204 99.2378 125.158 102.546 126.962 105.027C118.617 107.282 100.422 107.132 88.0927 97.6591C89.1449 88.4861 91.701 79.6898 92.1519 77.7344C92.6035 75.7047 90.5731 76.6072 90.2728 77.9606C90.0474 78.8623 89.9718 79.1633 89.1449 82.0954C87.716 78.3365 85.5358 74.2009 83.7316 72.0956C86.7378 70.6705 90.6473 68.7914 93.0528 67.8889L93.0521 67.8897ZM86.737 93.0765C85.3837 94.5796 76.2107 97.5873 72.1507 93.3019C74.1803 92.0991 75.9853 91.4221 75.4588 90.4455C74.9323 89.4689 74.5563 90.0695 70.7217 91.7239C69.6393 90.3061 68.8938 88.6606 68.5416 86.912C72.2264 85.107 73.203 85.0321 72.9027 84.2802C72.6024 83.5283 71.6242 83.4534 68.2413 84.8067C68.0159 81.423 69.3692 79.7694 70.8723 78.7171C72.7521 77.4387 70.8723 74.8077 72.8278 73.6798C75.3839 72.1759 76.5828 74.5359 78.2411 74.732C78.9915 74.8208 80.0453 74.5066 81.9251 73.2281C83.8042 75.1829 87.1879 81.5735 88.2401 86.0095C87.6162 88.337 87.1148 90.6957 86.7378 93.0757L86.737 93.0765ZM106.51 129.165C96.811 131.796 85.9095 128.037 85.3837 126.534C84.7815 125.481 86.5108 123.827 87.7893 122.624C90.0443 124.203 100.195 127.361 107.638 125.782C107.731 126.102 107.913 126.389 108.164 126.609C107.444 127.339 106.882 128.208 106.51 129.164L106.51 129.165ZM107.337 123.827C100.977 124.758 94.4848 123.681 88.7666 120.744C87.0374 119.767 88.9172 105.632 89.067 101.122C101.773 108.264 116.134 110.068 128.464 106.834C129.314 107.944 130.391 108.86 131.622 109.521C132.854 110.182 134.212 110.573 135.607 110.669C135.908 116.232 136.359 119.766 135.983 125.856C127.562 129.239 111.773 126.683 109.743 125.029C108.739 120.36 108.561 115.55 109.217 110.819C109.217 110.368 109.067 109.616 108.54 109.541C105.834 109.09 107.188 121.871 107.338 123.826L107.337 123.827ZM128.689 132.247C118.389 135.48 109.217 132.247 108.386 130.819C108.16 130.443 108.308 129.541 109.964 127.511C115.677 129.691 129.438 131.045 136.655 127.887C135.833 129.992 130.57 131.645 128.69 132.247L128.689 132.247ZM145.681 105.557C144.237 106.74 142.577 107.633 140.795 108.188C139.366 105.409 138.445 103.36 137.712 104.203C136.94 105.09 137.411 105.331 138.689 108.639C131.096 109.918 128.464 103.903 124.931 98.4141C127.035 90.8955 133.877 84.8808 140.719 84.5805C141.332 85.9919 142.062 87.3499 142.9 88.6405C143.192 88.9248 143.557 89.1241 143.954 89.2168C144.352 89.3096 144.767 89.2924 145.155 89.167C145.686 89.0266 146.246 89.0443 146.767 89.2179C147.289 89.3915 147.748 89.7135 148.088 90.1444C148.345 90.604 148.479 91.1216 148.479 91.6479C148.479 92.1741 148.345 92.6917 148.088 93.1513C146.735 96.085 150.119 96.9102 148.916 100.895C148.581 102.063 147.99 103.142 147.186 104.053C145.006 101.497 144.33 99.3915 143.578 100.82C142.975 102.022 144.254 103 145.684 105.556L145.681 105.557Z" fill="#001434"/>
<path d="M110.27 46.313C111.173 45.7873 110.721 43.9823 108.165 43.0799C106.21 42.4036 104.105 42.7795 104.18 43.9823C104.257 45.4862 106.285 43.9823 108.992 46.0876C109.135 46.2823 109.348 46.4143 109.586 46.4563C109.824 46.4983 110.069 46.447 110.27 46.313Z" fill="#001434"/>
<path d="M109.819 55.1079C107.639 55.7842 107.04 59.3184 108.316 59.8442C108.45 59.8864 108.592 59.8975 108.731 59.8767C108.87 59.8559 109.003 59.8036 109.119 59.7239C109.234 59.6442 109.331 59.5392 109.4 59.4168C109.469 59.2944 109.51 59.1578 109.518 59.0173C109.422 58.1928 109.441 57.3629 110.345 57.0626C111.473 56.7615 112.376 57.1398 113.356 58.2654C113.445 58.376 113.557 58.4665 113.683 58.5311C113.81 58.5956 113.948 58.6328 114.09 58.64C114.232 58.6473 114.374 58.6246 114.506 58.5734C114.639 58.5221 114.759 58.4435 114.859 58.3426C116.039 57.1931 112.826 54.2054 109.819 55.1079Z" fill="#001434"/>
<path d="M123.502 50.9731C124.825 51.2815 126.076 51.843 127.186 52.6267C128.314 53.5292 130.043 52.6267 128.69 51.0479C127.334 49.6527 125.517 48.7977 123.578 48.6424C122.224 48.5667 121.998 50.672 123.502 50.9731Z" fill="#001434"/>
<path d="M112.751 64.9574C111.403 65.1572 110.031 65.1312 108.691 64.8802C104.782 64.129 109.142 72.3988 112.45 71.8723C115.233 71.423 115.984 64.2803 112.751 64.9574Z" fill="#001434"/>
<path d="M129.217 55.3329C122.525 49.6972 113.954 54.9569 116.435 61.949C117.638 65.257 122.751 68.1142 126.36 67.438C131.773 66.6104 133.878 59.2423 129.217 55.3329ZM125.984 65.4825C124.405 65.7835 121.924 64.8062 120.194 63.3772C123.078 61.5875 125.818 59.5765 128.391 57.3625C131.324 59.7688 129.442 64.8811 125.984 65.4825Z" fill="#001434"/>
<path d="M38.1686 58.5664C50.2729 58.5664 49.7487 40.8226 38.0914 41.048C26.8155 41.2735 27.2663 58.5664 38.1686 58.5664ZM32.9807 45.0331C37.0407 39.8452 46.2886 43.8303 45.5359 50.1454C44.0328 62.7013 25.0113 55.3332 32.9807 45.0331Z" fill="#001434"/>
<path d="M16.064 96.3837C20.1247 97.6622 22.5303 85.6328 23.7331 82.8504C24.6356 79.2413 25.2369 78.3396 28.545 76.7601C29.2213 78.7905 28.169 82.5501 30.7251 83.8278C29.0707 88.0383 32.0036 88.1132 35.3116 88.4892C35.8382 94.8799 36.3639 97.436 38.4692 97.436C40.5744 97.436 40.9504 94.2785 41.48 88.5641C44.4136 88.2638 49.2989 87.8878 46.6671 83.9027C49.1483 82.6999 48.171 78.941 48.7724 76.9106C52.0055 78.4902 52.4564 79.3919 53.3589 82.9253C54.7122 86.309 56.4415 95.5569 60.2004 96.6092C60.4532 96.6156 60.7041 96.5641 60.9339 96.4585C61.1637 96.3529 61.3662 96.1961 61.526 96.0001C61.6857 95.804 61.7984 95.574 61.8554 95.3276C61.9124 95.0812 61.9122 94.8251 61.8548 94.5788C60.4266 88.8659 60.4266 79.4675 60.5764 74.8061C60.7269 67.513 55.163 67.9638 51.1038 64.4304C57.7192 44.958 52.0055 28.3421 41.5549 16.6879C39.5245 14.8837 40.728 7.21458 38.3974 7.1397C36.0667 7.06481 37.6454 14.8088 35.6181 16.6879C24.7104 29.3195 19.5982 45.0329 26.0638 64.3555C22.0038 67.8889 16.2902 67.4381 16.4407 74.8061C16.6661 79.4675 16.6661 88.8652 15.1623 94.5788C15.0865 94.9373 15.1344 95.3108 15.2981 95.6386C15.4619 95.9664 15.7318 96.229 16.064 96.3837ZM31.7782 86.1585C31.9988 85.5769 32.1501 84.9713 32.229 84.3543C33.1458 84.5588 34.0738 84.7094 35.0082 84.8052C35.0854 85.4822 35.0854 86.2334 35.1626 86.9104C34.0157 86.7532 32.8838 86.5017 31.7782 86.1585ZM38.3943 95.1809C36.8155 88.94 36.2133 70.8959 36.2133 65.8586C36.8904 64.5809 39.5214 64.2798 40.1984 65.8586C41.1079 68.1321 39.4172 92.7507 38.3943 95.1809ZM41.5518 86.9104C41.6436 86.2122 41.6951 85.5093 41.7062 84.8052C42.909 84.728 44.0369 84.5049 45.0142 84.3543C45.1739 84.9543 45.4008 85.5344 45.6905 86.0836C44.3371 86.4769 42.9524 86.7535 41.5518 86.9104ZM54.032 68.7158C56.4384 70.2196 58.7691 70.6705 58.5437 74.7305C58.3182 79.0159 58.3182 87.2864 59.4461 93.3011C57.0398 89.1662 55.6116 82.6999 54.1077 78.7156C53.2052 76.8357 50.4237 75.4068 49.0704 74.8061C49.5969 71.573 50.1226 68.9389 50.6491 66.6862C51.8519 67.4381 52.9041 68.0395 54.032 68.7158ZM36.4395 19.0942C37.3412 18.0412 38.1688 16.989 38.4692 13.4586C38.4692 13.3042 38.6946 13.3042 38.7702 13.4586C39.1462 16.9164 39.973 17.9694 40.6493 18.8719C42.3037 21.2026 44.409 23.1573 46.664 27.5184C43.0556 29.9247 34.5597 30.225 30.7251 27.5184C32.4097 24.5671 34.3202 21.7506 36.4395 19.0942ZM29.8983 28.8655C34.2594 31.7992 43.1305 31.5722 47.4167 28.8655C48.1024 30.1651 48.7294 31.4948 49.2958 32.8506C44.8598 37.136 32.4544 36.9855 28.0941 32.5495C28.6955 31.3491 29.2969 30.0706 29.8983 28.8655ZM25.2369 45.4838C25.2857 41.6247 26.024 37.8054 27.4171 34.2063C32.4544 38.6422 44.7873 38.792 49.8972 34.4317C53.3558 42.5517 51.6774 54.7548 49.6717 61.7986C47.8357 68.2329 46.627 74.8298 46.0626 81.4971C45.3115 82.4745 43.5814 82.2491 41.8529 82.625C42.2281 77.5128 42.8758 66.4762 42.0026 64.8063C40.4455 61.8264 35.6127 62.0997 34.2594 64.9607C33.9583 65.5621 33.8078 67.3663 34.7851 82.5532C33.2813 82.2529 31.7782 82.4035 31.1011 81.4253C29.6729 63.829 25.5373 61.7237 25.2369 45.4838ZM18.4703 74.6556C18.2449 69.0917 23.4328 69.2415 26.5903 66.4623C27.1168 68.793 27.7174 71.3491 28.169 74.6571C26.8157 75.2585 23.8836 76.7616 22.9811 78.6415C21.4024 82.6266 20.0475 89.0921 17.6435 93.2278C18.6957 87.2864 18.6957 79.0159 18.4703 74.6556Z" fill="#001434"/>
<path d="M35.3115 127.058C35.3115 128.186 35.7624 139.765 35.7624 141.269C35.7624 143.374 37.3411 143.224 37.3411 142.171C37.3411 140.366 37.0408 130.217 36.9652 128.337C36.8903 126.382 35.3115 126.006 35.3115 127.058Z" fill="#001434"/>
<path d="M55.9877 111.27C55.7579 111.146 55.4933 111.1 55.2349 111.141C54.9765 111.181 54.7388 111.306 54.5587 111.496C53.7319 112.172 55.3855 112.699 56.0625 113.075C45.0862 117.661 36.74 120.894 35.6877 120.969C34.1839 120.744 21.8534 114.353 18.0188 112.022C19.1467 111.12 22.681 110.067 21.6279 109.243C21.0265 108.792 20.5788 108.958 19.9743 109.093C17.7301 109.598 11.6289 113.153 8.99713 115.108C6.53365 116.915 3.08278 119.793 5.23745 121.95C7.49326 123.904 11.2522 126.836 13.3574 128.265C13.3574 129.694 13.5458 133.677 13.5836 135.257C13.6042 135.687 13.793 136.092 14.1094 136.385C17.869 139.768 33.8828 148.264 36.8156 147.512C40.6494 146.535 55.4612 138.415 60.1225 134.28C61.5508 133.002 60.7996 128.716 60.9494 124.431C65.1599 121.497 67.3099 120.22 67.34 119.018C67.3779 117.509 62.0024 114.052 55.9877 111.27ZM13.7334 125.931C12.3052 124.879 7.01693 121.653 6.66644 120.368C6.34065 119.171 10.9518 115.781 15.9892 113.15C18.6959 115.029 29.2214 120.443 33.6574 122.323C23.4329 131.344 24.865 132.172 23.2824 132.021C22.2293 132.097 15.5383 127.209 13.7334 125.931ZM59.2193 132.021C55.8364 135.781 52.2272 137.284 47.5658 140.066C44.0324 142.021 38.9194 145.254 36.5138 145.404C33.3563 145.629 21.5523 138.788 16.5188 135.555C16.2941 135.406 16.1084 135.205 15.9775 134.97C15.8467 134.734 15.7744 134.471 15.7669 134.201C15.6897 132.999 15.6125 131.044 15.6125 129.54C29.1457 138.863 20.9509 133.45 35.7618 123.375C49.0697 135.254 39.5964 134.955 59.0695 125.48C59.1421 127.285 59.2965 130.292 59.2193 132.021ZM60.4228 122.247C59.8108 122.688 59.1557 123.066 58.4674 123.375C49.7336 127.479 47.2655 129.916 45.7617 130.067C44.1072 130.217 43.732 127.736 37.8671 122.548C42.002 121.195 50.6485 117.736 57.9393 114.653C60.7185 115.781 64.5554 118.112 64.6303 119.014C64.6334 119.616 61.9267 121.27 60.4236 122.247H60.4228Z" fill="#001434"/>
</svg>
