<svg width="156" height="156" viewBox="0 0 156 156" fill="none" xmlns="http://www.w3.org/2000/svg">
<path d="M92.0695 101.147C90.1029 104.422 74.1688 131.637 74.1688 131.637C74.1688 131.637 66.2405 143.421 53.1402 145.899C40.0399 148.377 29.1384 142.841 27.4273 133.604C25.662 129.315 26.5369 124.313 27.9615 120.937C28.4648 119.737 30.083 117.314 31.0198 115.703C35.3789 108.224 42.3703 98.7316 42.3703 98.7316C43.309 98.6628 44.2324 98.4568 45.1112 98.1199C63.9023 92.5376 56.2294 93.8229 71.4357 88.9993C84.9 89.2083 84.2573 89.1773 84.6832 89.1077C85.8446 89.4561 89.3287 90.6562 90.5055 92.7544C90.552 92.8318 94.0361 97.8722 92.0695 101.147Z" fill="#81F8F8"/>
<path d="M136.728 42.6602V75.7362C136.728 82.2864 132.145 82.7742 132.145 82.7742L85.3179 88.9682C85.7162 88.8273 86.0841 88.6118 86.4018 88.3333C87.9503 86.9629 88.1749 84.4621 88.1749 84.4621C88.2291 79.3055 88.5852 44.201 87.6639 39.06C86.9735 35.0439 85.024 31.3515 82.097 28.5164C79.1701 25.6813 75.4173 23.8504 71.3813 23.2885H118.742C134.638 23.3039 136.728 42.6602 136.728 42.6602Z" fill="#81F8F8"/>
<path d="M102.839 60.5068C102.839 60.5068 103.273 64.5484 100.106 64.5484C96.9393 64.5484 96.8309 60.7313 96.8309 60.7313C96.8309 60.7313 96.0566 6.07692 96.0566 4.98523C96.0566 4.26517 111.619 4.45873 111.766 4.69101C111.913 4.92329 112.393 18.1475 112.122 18.3024C111.851 18.4572 101.461 18.194 101.283 18.403C101.105 18.6121 102.839 60.5068 102.839 60.5068Z" fill="#FFD997"/>
<path d="M100.223 60.1894C99.9945 60.153 99.7608 60.1874 99.5528 60.2878C99.3449 60.3882 99.1727 60.5499 99.0594 60.7512C98.9461 60.9524 98.8972 61.1835 98.9192 61.4134C98.9412 61.6432 99.0331 61.8608 99.1824 62.0369C99.3318 62.213 99.5315 62.3392 99.7548 62.3983C99.978 62.4575 100.214 62.4469 100.431 62.368C100.648 62.289 100.836 62.1455 100.969 61.9567C101.102 61.768 101.174 61.543 101.175 61.3121C101.194 61.0376 101.105 60.7665 100.927 60.5567C100.75 60.3468 100.496 60.215 100.223 60.1894Z" fill="black"/>
<path d="M136.984 42.637C136.984 42.4435 134.661 23.2807 118.711 23.2807H101.678C101.6 20.8109 101.554 19.1153 101.562 18.5888C102.986 18.4572 111.937 18.6817 112.277 18.4959C112.34 18.4451 112.389 18.3782 112.417 18.3023C112.618 17.5281 112.239 4.92324 112.006 4.54386C111.65 3.97866 97.644 4.21867 96.2813 4.54386C96.1575 4.54386 95.8555 4.66 95.84 4.9155C95.84 5.34908 95.9252 13.2774 96.0646 23.0407C96.0646 23.0407 70.6846 22.7852 69.8639 22.8317C65.6497 22.82 61.5026 23.8861 57.8165 25.9287C54.94 27.3563 52.4501 29.4563 50.5578 32.0509C48.6655 34.6454 47.4265 37.6579 46.946 40.833C45.7692 41.1892 22.1081 48.4749 21.1867 49.2414C21.0889 49.3211 21.0185 49.4294 20.9854 49.5511C20.6834 50.155 20.3041 51.7345 22.4332 54.1347C23.9818 55.8612 25.5922 57.8278 27.2026 59.9725C26.8155 60.1506 25.6541 60.7003 22.6113 62.2333C20.8228 63.1315 19.855 64.0606 19.7311 64.8813C19.703 65.0544 19.7164 65.2317 19.7703 65.3986C19.8241 65.5655 19.9168 65.7173 20.0408 65.8413C22.4187 67.6196 24.5532 69.7021 26.3897 72.0354C29.4867 75.8524 35.3245 94.2641 39.0642 98.2515C39.2802 98.542 39.5677 98.7717 39.8987 98.9182C40.2297 99.0648 40.5931 99.1231 40.9533 99.0877C41.2484 99.0875 41.5431 99.0694 41.836 99.0335C40.3881 101.031 34.5813 109.099 30.8184 115.564C29.8815 117.151 28.2479 119.605 27.7214 120.829C27.0323 122.47 24.965 128.238 27.1717 133.643C27.5449 135.535 28.2952 137.333 29.378 138.929C30.4608 140.525 31.8538 141.887 33.4741 142.934C37.9725 146.031 44.9175 147.672 53.171 146.116C66.2172 143.654 74.2771 131.87 74.3623 131.738C74.5249 131.467 90.3196 104.492 92.2707 101.256C93.8192 98.6773 92.1236 95.0616 91.2177 93.4202C90.3119 91.7788 89.3673 90.4703 85.6199 89.1386L98.0079 87.5049V151.551C98.0182 151.608 98.0482 151.66 98.0928 151.697C98.1374 151.735 98.1937 151.755 98.2518 151.755C98.31 151.755 98.3662 151.735 98.4108 151.697C98.4554 151.66 98.4855 151.608 98.4957 151.551V87.4584L107.934 86.2119V151.551C107.934 151.617 107.96 151.68 108.006 151.726C108.053 151.773 108.116 151.799 108.182 151.799C108.247 151.799 108.31 151.773 108.357 151.726C108.403 151.68 108.429 151.617 108.429 151.551V86.15L114.484 85.3757V151.551C114.494 151.608 114.524 151.66 114.569 151.697C114.613 151.735 114.67 151.755 114.728 151.755C114.786 151.755 114.842 151.735 114.887 151.697C114.931 151.66 114.962 151.608 114.972 151.551V85.2751L132.168 83.0065C132.222 83.0065 136.976 82.4181 136.976 75.7285L136.984 42.637ZM96.3123 5.06261C97.5124 4.59031 110.032 4.64451 111.565 4.85356C111.712 6.18527 112.099 16.6841 111.944 18.0158C111.387 18.0545 109.258 18.0158 107.361 18.0158C101.283 18.0158 101.244 18.0158 101.12 18.1862C100.865 18.5036 102.591 60.4216 102.599 60.499C102.607 60.5764 102.801 62.4888 101.825 63.596C101.605 63.8306 101.337 64.0144 101.038 64.1347C100.74 64.255 100.42 64.309 100.098 64.2928C97.2027 64.2928 97.0711 60.8629 97.0633 60.7158C97.0324 57.9362 96.2968 7.78023 96.3123 5.06261ZM40.4114 98.2515C40.001 98.4993 39.6371 98.2515 39.4436 97.9805C35.9052 94.3415 29.9512 75.6743 26.7691 71.7411C24.9104 69.3764 22.7499 67.2654 20.3428 65.462C20.2868 65.3906 20.2468 65.308 20.2254 65.2199C20.2041 65.1317 20.2018 65.04 20.2189 64.951C20.2731 64.5638 20.6834 63.7431 22.8281 62.6282C26.1806 60.9249 27.2878 60.4293 27.4736 60.3054C31.8172 66.1975 35.913 73.3516 37.3144 80.6992C39.2655 91.229 39.3197 94.8913 39.0564 95.4642C38.9432 95.3417 38.8445 95.2066 38.7622 95.0616C38.5841 94.7519 38.197 93.7608 37.6628 92.3827C33.7915 82.5265 33.2031 82.0697 30.7797 76.4254C28.7976 71.8031 26.7226 67.0724 22.139 64.4012C22.0824 64.3703 22.0159 64.3627 21.9537 64.38C21.8915 64.3974 21.8386 64.4383 21.8061 64.4941C21.7894 64.5215 21.7784 64.5519 21.7737 64.5836C21.7689 64.6152 21.7706 64.6475 21.7785 64.6786C21.7865 64.7096 21.8005 64.7387 21.8199 64.7642C21.8392 64.7897 21.8635 64.8111 21.8913 64.8271C26.3355 67.4131 28.3485 72.0973 30.2919 76.6189C32.723 82.2787 33.3192 82.7123 37.1673 92.5608C37.7325 94.0086 38.1041 94.9609 38.3054 95.3016C38.5067 95.6423 38.8087 96.0759 39.1726 95.9597C40.2797 95.5571 39.01 87.3888 37.7557 80.6063C35.8355 70.2546 28.5576 60.2977 22.7971 53.794C21.388 52.2455 21.1712 51.0531 21.2486 50.3563C22.139 51.6183 25.1199 54.0263 30.2842 60.7623C37.7092 70.4172 40.4114 83.1072 41.0385 95.2629C41.1856 97.454 40.6901 98.0734 40.4114 98.2515ZM40.752 98.6077C41.6115 97.9728 41.5727 96.1378 41.5263 95.0693C40.7985 80.5134 37.144 68.8687 30.6868 60.468C24.2295 52.0674 21.0551 50.1937 21.5196 49.5821C23.2152 48.4671 69.4768 34.097 83.9165 30.9071C86.789 34.7784 87.9117 39.6097 87.9194 44.3559L36.2614 60.6771C36.2234 60.6877 36.1886 60.7076 36.1601 60.7349C36.1316 60.7622 36.1103 60.7962 36.0981 60.8337C36.0858 60.8712 36.083 60.9111 36.0899 60.95C36.0968 60.9889 36.1131 61.0254 36.1375 61.0565L37.3763 62.7289C37.3983 62.7597 37.4273 62.7849 37.461 62.8024C37.4946 62.8199 37.5319 62.8292 37.5699 62.8295C37.6473 62.8295 35.2471 63.6038 87.8962 47.0503V49.9614C84.4663 51.0377 78.8994 52.8184 78.6052 53.1049C78.311 53.3914 78.4349 53.283 79.6349 56.2019C82.1435 62.303 88.0046 76.5415 86.7968 82.9136L86.0225 83.2155C86.278 82.1084 86.6729 79.174 85.0779 74.9311C85.0668 74.9016 85.0499 74.8745 85.0283 74.8516C85.0067 74.8286 84.9807 74.8101 84.952 74.7972C84.9232 74.7842 84.8922 74.7771 84.8606 74.7761C84.8291 74.7752 84.7977 74.7805 84.7682 74.7917C72.0705 79.1198 72.0705 79.2359 72.0705 79.4372C72.7057 82.2878 73.0455 85.1963 73.0848 88.1166L72.055 88.5037C72.0752 85.1929 71.7639 81.8885 71.1259 78.6397C70.3284 74.3968 67.8973 66.3833 67.123 66.3833C67.0069 66.3833 55.4318 69.8984 55.4318 70.6959C55.4318 71.2688 60.7277 82.4723 59.7289 92.8859L58.5598 93.2963C58.6443 89.5814 58.359 85.8674 57.7081 82.209C56.9881 78.2681 54.6111 70.8043 54.0614 70.8043C53.9685 70.8043 42.3934 74.4278 42.1534 74.9233C41.8437 75.5505 45.9008 80.7999 46.0247 97.6011C44.3249 98.1894 42.549 98.5285 40.752 98.6077ZM72.6202 79.6075C73.65 79.1585 80.2079 76.8822 84.7373 75.3337C86.3942 79.8863 85.6664 82.8671 85.5115 83.4478C82.7784 84.5085 78.2335 86.2584 73.6422 87.9772C73.6049 85.1586 73.2623 82.3523 72.6202 79.6075ZM87.3775 82.7045C88.593 74.6136 79.7666 55.5438 79.1239 53.3991C79.9756 53.0197 84.7527 51.479 87.9504 50.4802V82.4955L87.3775 82.7045ZM55.9583 70.7733C59.5775 69.2801 63.2763 67.9877 67.0379 66.9021C67.5179 67.5912 69.6548 73.5219 70.6846 78.8023C71.3289 82.0787 71.635 85.4125 71.5982 88.7514C64.2041 91.4923 62.8027 91.8484 60.2399 92.7388C60.8826 85.3138 58.6063 77.6409 55.9583 70.7733ZM50.2598 96.7495C51.8083 96.2152 57.2823 94.2564 58.343 93.8847L90.2112 95.9752C90.2112 95.9752 72.6512 125.877 72.5196 126.109C72.3879 126.341 59.9457 143.274 42.3934 141.873C39.9081 141.672 35.7891 141.099 33.8767 139.465C27.1872 133.883 32.243 125.164 32.4753 124.754L50.2598 96.7495ZM46.5357 97.454C46.4428 88.3875 45.1962 81.0167 42.8115 75.5272C42.7496 75.3801 42.6877 75.2408 42.649 75.1401C43.8568 74.5826 52.7142 71.6637 53.9375 71.3153C55.3771 74.8607 56.4789 78.534 57.2281 82.2864C57.8869 85.9802 58.1671 89.7315 58.0643 93.4821C51.158 95.9055 49.3695 96.5791 46.5357 97.454ZM28.1859 121.03C28.6737 119.884 30.3229 117.383 31.2442 115.827C35.3245 108.805 41.8282 99.8852 42.5096 98.9561C44.8936 98.483 47.2385 97.8308 49.5243 97.005L32.0494 124.53C31.9875 124.623 26.8387 133.48 33.0173 139.364C30.6001 138.096 28.7022 136.023 27.6517 133.503C25.4915 128.269 27.5201 122.633 28.1859 121.03ZM91.1945 94.3957C92.0617 96.1223 93.0914 98.9793 91.8681 101.023C89.917 104.26 74.1145 131.219 73.9674 131.498C73.8822 131.614 65.9384 143.228 53.0626 145.651C45.6918 147.045 38.6538 145.914 33.7063 142.554C31.1894 140.906 29.2574 138.505 28.1859 135.694C31.4842 140.727 38.437 142.454 44.4452 142.454C61.1381 142.454 72.7518 126.566 72.8835 126.38C73.0151 126.194 87.7646 101.078 90.5674 96.2694C90.9297 95.7071 91.1453 95.0629 91.1945 94.3957ZM90.3274 92.8937C90.5596 93.2842 90.6917 93.726 90.712 94.1798C90.7323 94.6337 90.64 95.0856 90.4435 95.4952C90.3661 95.4952 90.8306 95.4952 59.5199 93.4666C63.1976 92.1891 63.786 92.1349 71.7143 89.2005C71.7995 89.2547 70.9401 89.2005 84.2804 89.2005C86.2858 89.7502 89.2744 91.0587 90.3274 92.8937ZM136.488 75.7363C136.488 81.9767 132.307 82.511 132.121 82.5342C117.031 84.3692 99.3551 86.8468 86.4406 88.5501C87.0097 88.1313 87.481 87.5938 87.8219 86.9748C88.1628 86.3559 88.3652 85.6702 88.4149 84.9654V44.5339C88.4691 34.7629 83.2507 25.5958 73.7042 23.3349L96.1033 23.5517C96.3201 39.2458 96.6143 59.3686 96.6298 60.7158C96.6298 60.7623 96.7769 64.7729 100.153 64.7729C100.542 64.7905 100.93 64.7235 101.291 64.5765C101.652 64.4295 101.977 64.2059 102.243 63.9212C103.327 62.7056 103.149 60.6461 103.133 60.4758C102.708 49.9924 102.019 32.5021 101.724 23.7376H118.758C134.282 23.7376 136.519 42.4822 136.566 42.6448L136.488 75.7363Z" fill="black"/>
<path d="M69.1516 68.8301C71.7608 76.5726 71.4124 78.5469 72.0396 78.5469C72.357 78.5469 80.9202 75.4499 84.5902 74.1182C84.6438 74.0962 84.6883 74.0566 84.7164 74.0059C84.7446 73.9553 84.7547 73.8966 84.745 73.8395C84.4041 72.0793 83.9646 70.3397 83.4288 68.6287C83.2507 68.0945 81.8803 64.3704 81.3383 64.3704C80.9744 64.3704 72.8216 67.2738 69.3065 68.5203C69.2465 68.5431 69.1973 68.5876 69.1686 68.645C69.1399 68.7023 69.1338 68.7684 69.1516 68.8301ZM72.1557 77.9972C72.0473 77.6333 71.7066 75.9841 71.4511 74.9002C72.1149 73.3586 72.8672 71.8566 73.7042 70.4018L74.0526 70.5721C79.2014 73.0962 79.4027 73.0265 79.573 72.9646C79.7434 72.9026 80.0066 72.4613 80.4712 71.416C80.6383 71.0051 80.8296 70.6043 81.0441 70.216C81.7177 70.4637 83.6688 71.5709 83.754 71.5941C83.9321 72.3142 84.0869 73.0265 84.234 73.7465C79.7666 75.3492 73.3093 77.672 72.1557 77.9972ZM81.2454 64.8349C81.9469 66.0613 82.5153 67.359 82.941 68.7062C83.163 69.4185 83.372 70.1385 83.5682 70.8663C82.7428 70.3636 81.8686 69.946 80.9589 69.6198C80.6802 69.6198 80.5331 69.9063 79.9989 71.1683C79.826 71.6121 79.6189 72.0418 79.3795 72.4535C78.6052 72.2755 73.9597 69.9682 73.7429 69.8598C73.6759 69.8327 73.6009 69.8327 73.5339 69.8598C73.2551 69.9682 72.4886 71.4083 71.2576 74.1569C70.8317 72.5542 70.1968 70.4715 69.7091 68.8842C74.0604 67.3435 80.4092 65.1059 81.2609 64.8814L81.2454 64.8349Z" fill="black"/>
<path d="M68.1528 65.7563C68.9271 68.2029 68.8342 68.0791 68.9271 68.1565C69.02 68.2339 68.2148 68.4894 81.0131 63.9755C81.0725 63.9543 81.1216 63.9113 81.1504 63.8552C81.1791 63.7991 81.1854 63.7342 81.168 63.6736C80.9858 62.9246 80.6768 62.2124 80.2544 61.5676C80.2221 61.5315 80.18 61.5057 80.1332 61.4934C80.0864 61.481 80.037 61.4826 79.9911 61.4979L68.2845 65.4543C68.2281 65.4784 68.1831 65.523 68.1587 65.5792C68.1342 65.6353 68.1321 65.6987 68.1528 65.7563ZM80.0066 62.0167C80.2799 62.5082 80.5005 63.0273 80.6647 63.5652L69.2368 67.6222L68.6871 65.8415L80.0066 62.0167Z" fill="black"/>
<path d="M79.8983 60.7313C79.6081 59.4636 79.1111 58.2525 78.4272 57.1465C78.3978 57.1019 78.3548 57.068 78.3045 57.0499C78.2543 57.0317 78.1996 57.0303 78.1485 57.0458C39.7301 68.9306 40.0088 69.2171 40.0088 69.4803C40.5011 70.9111 41.0697 72.3145 41.7122 73.6845C41.7298 73.7292 41.7608 73.7674 41.8011 73.7938C41.8413 73.8201 41.8887 73.8333 41.9367 73.8316C42.0142 73.8316 41.3328 74.0484 79.7512 60.9868C79.8006 60.9666 79.8419 60.9305 79.8686 60.8843C79.8952 60.838 79.9057 60.7841 79.8983 60.7313ZM42.0684 73.3051C41.5109 72.0276 40.7289 70.2081 40.5199 69.6351C42.7342 68.7835 65.714 61.4823 78.1252 57.5723C78.6897 58.5208 79.1147 59.5456 79.3873 60.6151L42.0684 73.3051Z" fill="black"/>
<path d="M45.1265 48.1188C45.3008 48.0836 45.4699 48.0263 45.6298 47.9484L48.4326 52.8417L48.1461 52.9656C48.0958 52.9889 48.0547 53.0285 48.0295 53.0779C48.0043 53.1273 47.9965 53.1838 48.0072 53.2382C48.0179 53.2926 48.0465 53.3419 48.0886 53.3781C48.1306 53.4143 48.1836 53.4354 48.239 53.4379C48.3164 53.4379 48.239 53.4379 49.4236 52.9579C49.4536 52.9452 49.4808 52.9267 49.5037 52.9035C49.5266 52.8803 49.5446 52.8528 49.5569 52.8226C49.5691 52.7924 49.5752 52.76 49.575 52.7274C49.5747 52.6949 49.568 52.6627 49.5552 52.6327C49.5426 52.6036 49.5244 52.5773 49.5016 52.5554C49.4787 52.5334 49.4518 52.5161 49.4223 52.5046C49.3928 52.4931 49.3613 52.4875 49.3296 52.4883C49.298 52.489 49.2667 52.496 49.2378 52.5088L48.8894 52.6559L46.4892 48.4672L52.4974 51.8507C52.5427 51.8738 52.594 51.8824 52.6443 51.8753C52.6947 51.8683 52.7417 51.8459 52.7789 51.8112C52.8161 51.7766 52.8417 51.7313 52.8523 51.6816C52.8629 51.6318 52.8579 51.58 52.8381 51.5332L50.3604 46.338L50.6082 46.2528C50.6699 46.23 50.7205 46.1843 50.7493 46.1252C50.7782 46.066 50.7831 45.9981 50.7631 45.9354C50.7527 45.9052 50.7363 45.8774 50.7151 45.8536C50.6938 45.8298 50.6679 45.8105 50.6391 45.7968C50.6103 45.7831 50.579 45.7753 50.5471 45.7738C50.5152 45.7724 50.4833 45.7773 50.4534 45.7883L49.2533 46.1986C49.1946 46.213 49.1434 46.249 49.1101 46.2994C49.0767 46.3498 49.0637 46.411 49.0734 46.4706C49.0832 46.5303 49.1151 46.584 49.1628 46.6212C49.2105 46.6583 49.2705 46.6761 49.3307 46.6709C49.5254 46.6337 49.715 46.5739 49.8959 46.4929L52.0638 51.0455L46.1872 47.7317L46.4427 47.6387C46.5029 47.6146 46.5511 47.5678 46.5772 47.5085C46.6032 47.4491 46.605 47.3819 46.5821 47.3213C46.5709 47.2918 46.5541 47.2648 46.5324 47.2418C46.5108 47.2189 46.4849 47.2004 46.4561 47.1874C46.4274 47.1745 46.3963 47.1673 46.3648 47.1664C46.3333 47.1655 46.3019 47.1707 46.2724 47.1819L45.0568 47.6465C44.9994 47.6612 44.9494 47.6967 44.9166 47.7461C44.8838 47.7955 44.8704 47.8553 44.879 47.914C44.8877 47.9727 44.9178 48.0261 44.9635 48.0639C45.0092 48.1017 45.0672 48.1213 45.1265 48.1188Z" fill="black"/>
<path d="M55.2072 50.7513C55.2339 50.8028 55.2789 50.8425 55.3333 50.8626C55.3878 50.8827 55.4477 50.8816 55.5015 50.8597C59.4811 49.4196 59.2411 49.528 59.2953 49.3809C59.3495 49.2337 59.3417 49.2802 58.7765 48.0956C58.7481 48.0377 58.6982 47.9932 58.6375 47.9716C58.5768 47.9499 58.51 47.9527 58.4514 47.9795C58.422 47.9927 58.3956 48.0118 58.3738 48.0355C58.3519 48.0592 58.3351 48.0871 58.3243 48.1174C58.3134 48.1478 58.3088 48.18 58.3107 48.2121C58.3126 48.2443 58.3209 48.2758 58.3352 48.3046L58.7378 49.1563L55.5169 50.3332L54.3478 48.413L55.8963 47.9098C55.997 48.0879 56.0357 48.204 56.206 48.204C56.2491 48.203 56.2911 48.1909 56.328 48.1688C56.3649 48.1466 56.3954 48.1153 56.4165 48.0778C56.4376 48.0403 56.4485 47.9979 56.4483 47.9549C56.4481 47.9118 56.4366 47.8696 56.4151 47.8324L55.8963 47.0271C55.8601 46.9779 55.807 46.9438 55.7471 46.9314C55.6873 46.9189 55.625 46.9291 55.5722 46.9598C55.5193 46.9905 55.4797 47.0397 55.461 47.0979C55.4422 47.156 55.4456 47.2191 55.4705 47.2749L55.6021 47.4994L54.0536 47.9949L52.66 45.6722L55.8963 44.7044L56.3996 45.4786C56.4346 45.5339 56.4901 45.5731 56.554 45.5876C56.6178 45.6021 56.6848 45.5908 56.7403 45.5561C56.7667 45.5388 56.7896 45.5165 56.8074 45.4904C56.8253 45.4643 56.8378 45.435 56.8443 45.4041C56.8507 45.3731 56.851 45.3412 56.8451 45.3102C56.8393 45.2791 56.8273 45.2495 56.8099 45.2231L56.2138 44.2631C56.1844 44.2185 56.1413 44.1846 56.0911 44.1665C56.0409 44.1483 55.9861 44.1469 55.935 44.1624L52.2806 45.2851C52.2449 45.2952 52.2121 45.3134 52.1847 45.3383C52.1573 45.3631 52.136 45.394 52.1225 45.4285C52.109 45.463 52.1036 45.5002 52.1069 45.5371C52.1101 45.574 52.1219 45.6096 52.1412 45.6412L55.2072 50.7513Z" fill="black"/>
<path d="M57.763 44.3248C57.9238 44.2942 58.0817 44.2502 58.2352 44.1932C62.4859 48.8387 62.2691 48.6916 62.4239 48.6916C62.4585 48.6918 62.4928 48.6847 62.5244 48.6708C62.5561 48.6569 62.5846 48.6366 62.6079 48.611C62.6312 48.5855 62.649 48.5554 62.66 48.5226C62.6709 48.4898 62.6749 48.4551 62.6717 48.4206L62.091 43.8835L65.188 47.4373C65.2239 47.4753 65.2709 47.501 65.3223 47.5106C65.3736 47.5203 65.4267 47.5134 65.4739 47.4911C65.5212 47.4688 65.5602 47.4321 65.5853 47.3863C65.6104 47.3405 65.6204 47.2879 65.6139 47.236L64.7312 41.9324L65.0796 41.8008C65.1096 41.7896 65.1371 41.7726 65.1605 41.7508C65.184 41.729 65.2029 41.7028 65.2162 41.6737C65.2295 41.6445 65.2369 41.6131 65.2381 41.5811C65.2392 41.5491 65.234 41.5172 65.2229 41.4872C65.2117 41.4572 65.1947 41.4297 65.1729 41.4063C65.1511 41.3829 65.1249 41.3639 65.0957 41.3506C65.0666 41.3373 65.0352 41.3299 65.0032 41.3288C64.9712 41.3276 64.9393 41.3328 64.9093 41.344L63.7324 41.7776C63.6723 41.8017 63.624 41.8485 63.598 41.9078C63.5719 41.9672 63.5702 42.0344 63.5931 42.095C63.6042 42.1245 63.6211 42.1515 63.6427 42.1745C63.6643 42.1974 63.6903 42.2159 63.719 42.2289C63.7478 42.2418 63.7788 42.249 63.8104 42.2499C63.8419 42.2508 63.8733 42.2456 63.9028 42.2344L64.2667 42.1027L64.9945 46.4695L62.091 43.1093L62.3388 43.0318C62.3985 43.0091 62.4471 42.9643 62.4746 42.9065C62.502 42.8488 62.506 42.7828 62.4859 42.7221C62.4763 42.6913 62.4605 42.6626 62.4396 42.638C62.4187 42.6133 62.393 42.5932 62.364 42.5787C62.3351 42.5643 62.3036 42.5558 62.2713 42.5538C62.239 42.5519 62.2067 42.5564 62.1762 42.5673L60.8832 43.0009C60.8232 43.0236 60.774 43.0681 60.7453 43.1255C60.7166 43.1829 60.7106 43.2489 60.7283 43.3106C60.7379 43.3415 60.7537 43.3701 60.7746 43.3947C60.7956 43.4194 60.8213 43.4395 60.8502 43.454C60.8791 43.4685 60.9107 43.4769 60.9429 43.4789C60.9752 43.4808 61.0076 43.4763 61.038 43.4654L61.5568 43.2951L62.0988 47.7161L58.754 44.0306L58.994 43.93C59.0502 43.9063 59.0956 43.8628 59.1217 43.8078C59.1478 43.7527 59.1527 43.69 59.1354 43.6315C59.1182 43.5731 59.08 43.5231 59.0282 43.491C58.9764 43.4589 58.9146 43.4471 58.8546 43.4577L57.701 43.8138C57.6333 43.822 57.5715 43.8568 57.5294 43.9106C57.4873 43.9643 57.4683 44.0325 57.4765 44.1003C57.4847 44.1681 57.5195 44.2298 57.5732 44.2719C57.6269 44.314 57.6952 44.3331 57.763 44.3248Z" fill="black"/>
<path d="M71.3817 44.65C71.4452 44.7575 71.4856 44.8771 71.5002 45.0011C71.5149 45.125 71.5035 45.2507 71.4669 45.3701C71.1495 46.3301 69.5855 46.2372 68.6099 45.9972L68.2847 45.3855C68.2511 45.3378 68.2017 45.3034 68.1452 45.2885C68.0887 45.2736 68.0288 45.2792 67.976 45.3042C67.9232 45.3292 67.881 45.372 67.8567 45.4252C67.8324 45.4783 67.8277 45.5383 67.8434 45.5946C67.8434 45.5946 67.8434 45.6565 68.819 47.1431C68.854 47.1984 68.9095 47.2376 68.9733 47.2521C69.0372 47.2666 69.1041 47.2552 69.1596 47.2205C69.2134 47.1842 69.2513 47.1288 69.2657 47.0655C69.2801 47.0022 69.2698 46.9359 69.2371 46.8799L69.0203 46.5469C69.7385 46.7005 70.4857 46.6441 71.1727 46.3843C71.3566 46.3105 71.5226 46.1984 71.6597 46.0553C71.7968 45.9123 71.9018 45.7416 71.9678 45.5548C72.0337 45.368 72.0591 45.1692 72.0421 44.9718C72.0252 44.7744 71.9663 44.5829 71.8695 44.41C70.7004 42.0872 67.4253 44.1855 66.8988 42.304C66.846 42.0764 66.8823 41.8372 67.0004 41.6356C67.1185 41.434 67.3093 41.2853 67.5337 41.2201C67.9642 41.0515 68.4305 40.9956 68.8887 41.0575L69.1674 41.6537C69.1885 41.6951 69.2207 41.7301 69.2602 41.7546C69.2998 41.7792 69.3453 41.7925 69.3919 41.793C69.4332 41.7935 69.4738 41.7833 69.51 41.7635C69.5461 41.7436 69.5766 41.7148 69.5984 41.6798C69.6201 41.6448 69.6325 41.6048 69.6344 41.5636C69.6362 41.5224 69.6273 41.4814 69.6087 41.4446L69.0358 40.2445C69.0022 40.1967 68.9527 40.1624 68.8963 40.1475C68.8398 40.1326 68.7798 40.1381 68.727 40.1631C68.6742 40.1881 68.632 40.231 68.6077 40.2841C68.5835 40.3373 68.5788 40.3973 68.5944 40.4536L68.6409 40.5465C68.1928 40.5247 67.7456 40.6041 67.3324 40.7787C66.9966 40.8845 66.7148 41.116 66.5459 41.4248C66.3771 41.7337 66.3343 42.0959 66.4265 42.4356C67.0769 44.8591 70.3907 42.6679 71.3817 44.65Z" fill="black"/>
<path d="M74.8887 55.869L74.2306 54.7696C74.2023 54.7236 74.1598 54.6881 74.1095 54.6686C74.0592 54.649 74.0038 54.6464 73.9519 54.6612C35.9284 66.6621 38.3363 65.6788 38.2821 65.8569C38.2668 65.8909 38.2588 65.9279 38.2588 65.9652C38.2588 66.0026 38.2668 66.0396 38.2821 66.0736L39.1416 67.4131C39.1718 67.4568 39.2149 67.4899 39.2648 67.508C39.3148 67.526 39.3691 67.528 39.4203 67.5138C77.3586 55.6058 74.8191 56.2484 74.8887 56.0703C74.9028 56.0386 74.9101 56.0043 74.9101 55.9697C74.9101 55.935 74.9028 55.9007 74.8887 55.869Z" fill="black"/>
</svg>
