<svg width="154" height="154" viewBox="0 0 154 154" fill="none" xmlns="http://www.w3.org/2000/svg">
<path d="M69.448 149.661C68.3653 144.792 67.801 140.424 66.7107 135.611C66.6944 135.536 66.6513 135.47 66.5895 135.424C66.5277 135.379 66.4514 135.357 66.3749 135.364L35.149 137.736C34.833 137.794 34.552 137.973 34.3659 138.234C34.1797 138.496 34.1031 138.82 34.1522 139.138C34.0589 142.861 34.6205 146.573 35.8115 150.102C35.8337 150.166 35.8752 150.221 35.9302 150.259C35.9852 150.298 36.0509 150.319 36.1182 150.318C36.1519 150.318 69.0385 150.076 69.2095 150.036C69.2902 150.017 69.3603 149.967 69.4048 149.897C69.4493 149.827 69.4648 149.743 69.448 149.661Z" fill="#4B1010"/>
<path d="M32.3736 136.503C32.4165 138.513 32.882 139.401 34.3809 140.426C41.7762 145.482 56.9372 147.284 66.0346 140.335C67.1339 139.661 67.9801 138.643 68.442 137.439C68.9039 136.235 68.9557 134.912 68.5895 133.676C67.4945 127.29 63.9529 108.039 63.3894 104.846C62.6142 100.456 60.8031 96.0037 57.6203 93.9802C56.1336 93.9112 50.9427 94.0722 50.6023 93.8606C50.4436 95.2837 50.3953 95.217 49.4322 97.9129L44.2536 94.2256C40.9962 94.8166 37.8097 95.7469 34.7459 97.0012C34.5128 97.4743 31.6766 103.355 32.3736 136.503Z" fill="#FFE55D"/>
<path d="M50.2467 102.096C47.5039 100.045 44.9023 97.8122 42.4596 95.4118C42.4031 95.352 42.3717 95.2728 42.3721 95.1905C42.3724 95.1083 42.4045 95.0293 42.4615 94.9701C42.5186 94.9109 42.5963 94.8759 42.6785 94.8725C42.7607 94.8691 42.841 94.8974 42.9028 94.9517C45.2252 97.2314 47.6896 99.3619 50.2812 101.33C51.0946 99.0137 51.7124 96.6331 52.1283 94.2133C52.1357 94.1721 52.1512 94.1327 52.1738 94.0975C52.1964 94.0622 52.2258 94.0317 52.2601 94.0078C52.2945 93.9839 52.3333 93.967 52.3742 93.958C52.4151 93.9491 52.4574 93.9483 52.4987 93.9557C52.5399 93.9631 52.5793 93.9785 52.6145 94.0012C52.6498 94.0238 52.6803 94.0531 52.7042 94.0875C52.7281 94.1219 52.745 94.1607 52.754 94.2016C52.7629 94.2425 52.7637 94.2848 52.7563 94.326C52.3119 96.9235 51.6352 99.4757 50.7344 101.952C50.7079 102.021 50.6582 102.079 50.5938 102.116C50.5293 102.153 50.4541 102.166 50.3809 102.154C50.3323 102.145 50.2864 102.126 50.2467 102.096Z" fill="white"/>
<path d="M43.0136 110.69C43.7325 108.146 43.6386 105.441 42.745 102.952C41.8515 100.464 40.2029 98.3173 38.0298 96.8117C37.9604 96.7632 37.9132 96.6892 37.8984 96.6058C37.8837 96.5225 37.9027 96.4367 37.9512 96.3674C37.9997 96.2981 38.0737 96.2508 38.157 96.2361C38.2404 96.2213 38.3261 96.2403 38.3955 96.2888C40.6785 97.8706 42.4102 100.126 43.3483 102.741C44.2865 105.355 44.3842 108.197 43.6278 110.869C43.6002 110.946 43.5443 111.01 43.4716 111.047C43.3988 111.084 43.3146 111.092 43.2362 111.069C43.1579 111.046 43.0912 110.994 43.0498 110.923C43.0084 110.853 42.9955 110.77 43.0136 110.69Z" fill="white"/>
<path d="M63.253 111.346C62.793 104.173 59.91 98.669 54.4354 94.5216C54.3765 94.468 54.3398 94.3943 54.3324 94.3149C54.325 94.2356 54.3475 94.1564 54.3955 94.0928C54.4435 94.0292 54.5135 93.9858 54.5918 93.9711C54.67 93.9564 54.751 93.9714 54.8188 94.0133C60.4467 98.2795 63.4118 103.936 63.8848 111.306C63.8801 111.383 63.8473 111.457 63.7923 111.512C63.7374 111.567 63.6643 111.6 63.5866 111.606C63.5091 111.61 63.4327 111.586 63.3714 111.538C63.3101 111.491 63.2681 111.423 63.253 111.346Z" fill="white"/>
<path d="M89.3364 100.136C88.8059 97.3761 85.7327 96.578 84.0827 96.1493C74.9921 93.8782 67.3998 93.7249 57.7824 93.5715L57.7725 94.2102C58.2954 94.2179 60.5328 96.91 60.8349 97.3677C64.4677 102.98 63.5438 107.174 63.7531 107.174C64.9331 107.174 71.8408 106.282 75.9367 105.58C75.5657 106.188 75.2118 106.806 74.8756 107.434C74.8478 107.486 74.8351 107.545 74.8389 107.604C74.8426 107.663 74.8627 107.72 74.8969 107.768C74.9311 107.817 74.978 107.854 75.0324 107.878C75.0869 107.901 75.1467 107.909 75.2053 107.9C75.7074 107.816 76.2227 107.87 76.6971 108.054C77.1716 108.238 77.5877 108.547 77.9019 108.947C78.4287 109.738 78.6817 110.926 78.1112 111.569C78.0638 111.623 78.0362 111.693 78.033 111.765C78.0298 111.837 78.0512 111.909 78.0936 111.967C78.1363 112.026 78.1978 112.069 78.268 112.088C78.3381 112.107 78.4126 112.101 78.4793 112.072C80.9452 110.974 83.2162 109.482 85.2037 107.655C86.3732 106.755 87.4062 105.691 88.2707 104.495C89.1808 103.237 89.5633 101.673 89.3364 100.136Z" fill="#4B1010"/>
<path d="M73.0588 111.964C71.4241 112.169 71.6732 111.683 69.866 109.501C69.1207 108.602 69.3293 108.324 69.9573 107.495C70.9908 106.109 72.3341 104.984 73.88 104.211C74.981 103.674 76.434 103.39 77.4377 104.119C78.4413 104.849 74.7011 106.309 74.6099 106.309C75.2587 106.307 75.8934 106.497 76.434 106.856C77.8126 108.083 76.4087 111.294 73.0588 111.964Z" fill="white"/>
<path d="M52.9904 76.5704C49.3437 68.9106 42.696 64.1337 34.9288 69.1812C33.4045 69.9434 27.4952 74.5776 35.0201 85.3275C35.2933 86.0425 35.6613 86.7177 36.1142 87.3348C36.5316 87.8221 37.1036 88.1513 37.7345 88.2674C38.3655 88.3835 39.0172 88.2795 39.5807 87.9727C40.7363 89.5766 42.3507 90.7929 44.2111 91.4614L44.4518 94.3958L49.2502 98.1897L50.4823 93.8146L49.4625 91.489C50.3361 91.2132 51.1585 90.796 51.897 90.2538C54.7339 88.1276 56.325 83.0732 52.9904 76.5704Z" fill="white"/>
<path d="M50.4756 81.2343C49.0367 80.5121 47.6863 79.6254 46.4517 78.5921C46.2805 78.4848 46.141 78.3339 46.0476 78.1547C45.9542 77.9756 45.9103 77.7748 45.9204 77.573C45.93 77.0616 45.993 76.5525 46.1082 76.0541C46.1272 75.9738 46.1766 75.9039 46.246 75.8592C46.3153 75.8144 46.3993 75.7982 46.4803 75.814C46.5614 75.8297 46.6332 75.8762 46.6807 75.9437C46.7283 76.0112 46.7479 76.0944 46.7354 76.176C46.6284 76.6343 46.5693 77.1025 46.5591 77.573C46.5591 77.8337 46.5644 77.8521 46.8106 78.0592C48.0205 79.08 49.3464 79.955 50.7608 80.6661C50.8296 80.7074 50.8801 80.7733 50.9022 80.8505C50.9243 80.9276 50.9162 81.0102 50.8797 81.0817C50.8436 81.153 50.7821 81.2083 50.7073 81.2365C50.6325 81.2648 50.5499 81.264 50.4756 81.2343Z" fill="#4B1010"/>
<path d="M39.9449 62.5221C35.8927 63.6799 31.3481 66.1511 29.6368 70.0025C28.8025 71.8105 28.6676 74.5064 30.093 75.9318C29.1146 79.9334 32.4699 82.5473 34.7525 85.4655C34.5991 82.5082 37.6661 82.8777 38.2113 84.5063C38.7419 85.3551 38.6376 85.2056 38.7588 85.3275C39.0438 85.2747 39.3202 85.1825 39.58 85.0538C39.58 85.0538 38.2113 80.8574 38.1231 80.5836C37.7878 78.6185 37.8184 76.6083 38.2136 74.6544C39.9008 75.412 41.7536 75.7261 43.5962 75.5668C42.9572 75.2382 42.3976 74.774 41.9565 74.2069C41.5154 73.6397 41.2033 72.983 41.0421 72.2828C42.2275 72.9215 43.6874 72.8303 45.0561 72.9215C48.028 73.0634 52.2635 74.5002 53.9956 77.5734C53.2764 64.4259 46.9568 60.7693 39.9449 62.5221Z" fill="#FFE55D"/>
<path d="M77.7168 103.769C76.2952 102.735 74.3807 103.556 73.8332 103.831C71.7586 104.827 70.0635 106.47 69.0027 108.513C67.5688 109.209 66.1839 110.002 64.8576 110.886L63.6278 103.999C62.8833 99.8718 60.9725 95.5366 57.7867 93.5714C55.5807 93.5354 52.835 93.4886 50.5838 93.4104L49.8869 91.7435C50.5705 91.486 51.2165 91.1378 51.8076 90.7084C55.9005 87.6161 55.3691 82.0763 53.739 77.7948C53.7862 77.8426 53.8466 77.8752 53.9124 77.8884C53.9782 77.9017 54.0465 77.895 54.1085 77.8692C54.1705 77.8435 54.2234 77.7998 54.2605 77.7438C54.2975 77.6878 54.317 77.622 54.3164 77.5548C54.015 72.0419 53.0075 65.4118 47.8389 63.0525C45.3584 61.8498 42.5353 61.5522 39.8586 62.2114C35.7726 63.3792 31.0893 65.9485 29.3487 69.8651C28.4838 71.7398 28.352 74.4878 29.7451 76.0244C28.8611 80.0882 32.2125 82.7457 34.4683 85.6141C35.0564 87.679 37.0799 89.247 39.4 88.4894C40.5435 89.9724 42.0985 91.0856 43.871 91.6898L44.1271 93.8007C38.9308 95.0106 33.0981 96.6461 29.3104 100.619C23.6135 106.947 25.9421 114.605 31.8537 120.733C31.7318 125.887 31.8667 131.115 31.9649 136.5C31.9606 137.295 32.0956 138.084 32.3636 138.833C32.7829 139.589 33.3857 140.227 34.1164 140.69C38.6272 143.773 45.7625 145.175 51.0976 145.175C56.9364 145.175 62.1702 143.616 66.1174 140.6C67.4412 139.729 68.4255 138.43 68.9053 136.92C69.1123 135.827 69.0817 134.702 68.8141 133.623L66.5384 120.461C68.9258 117.982 71.0374 115.251 72.8364 112.317C76.5038 111.761 78.4613 108.055 76.7039 106.5C76.447 106.329 76.1686 106.191 75.8758 106.092C76.7461 105.69 77.8065 105.077 77.9867 104.524C78.0337 104.386 78.0326 104.236 77.9836 104.099C77.9345 103.962 77.8405 103.846 77.7168 103.769ZM30.403 76.0075C30.4164 75.9542 30.4157 75.8983 30.4009 75.8453C30.3861 75.7923 30.3578 75.7441 30.3187 75.7054C28.9991 74.3866 29.1463 71.8264 29.9292 70.1319C31.5915 66.3894 36.054 63.9657 40.0226 62.8317C42.5536 62.2246 45.2165 62.5073 47.5636 63.6322C52.0445 65.7316 53.2222 71.3357 53.5987 76.3963C52.813 75.376 51.7708 74.5823 50.5785 74.096C45.9013 71.7582 43.279 73.1261 41.1912 72.002C41.1367 71.9732 41.075 71.9607 41.0136 71.9661C40.9522 71.9716 40.8936 71.9946 40.845 72.0325C40.7964 72.0705 40.7598 72.1216 40.7396 72.1799C40.7194 72.2381 40.7164 72.301 40.7311 72.3609C41.0018 73.5159 41.6492 74.5481 42.5713 75.2945C41.1124 75.2749 39.6728 74.9582 38.3404 74.3636C38.2966 74.344 38.2489 74.3346 38.2009 74.336C38.153 74.3374 38.1059 74.3496 38.0633 74.3717C38.0207 74.3938 37.9837 74.4253 37.9549 74.4637C37.9261 74.5021 37.9064 74.5465 37.8972 74.5936C37.4508 76.7688 37.4618 79.0131 37.9294 81.1839C38.1419 82.4769 38.5034 83.741 39.0067 84.9509L38.8948 84.9992L38.5114 84.4042C38.3353 83.9817 38.0416 83.6187 37.6653 83.3583C37.2889 83.0979 36.8457 82.951 36.3883 82.9351C35.9939 82.9338 35.6072 83.0438 35.2726 83.2525C34.8818 83.6289 34.6112 84.1126 34.4952 84.6427C32.1911 81.8839 29.5397 79.5399 30.403 76.0075ZM39.7627 87.8822C39.6888 87.8109 39.5901 87.771 39.4875 87.771C39.3848 87.771 39.2861 87.8109 39.2122 87.8822C38.6696 88.0716 38.0837 88.0994 37.5257 87.9622C36.9676 87.825 36.4614 87.5287 36.0685 87.1093C35.4917 86.5541 35.1412 85.8047 35.0848 85.0061C35.1403 84.5474 35.3367 84.1172 35.6468 83.7747C35.9598 83.6164 36.3152 83.562 36.6613 83.6193C37.0073 83.6767 37.3261 83.8428 37.5714 84.0937C37.7347 84.26 37.8612 84.4586 37.9417 84.6772C38.5306 85.5973 38.4132 85.4332 38.5344 85.5543C38.6127 85.6059 38.7018 85.6389 38.7948 85.6507C38.8879 85.6626 38.9824 85.6529 39.0711 85.6226L39.7098 85.3488C39.7758 85.3221 39.8308 85.2738 39.866 85.2119C39.9012 85.15 39.9145 85.078 39.9038 85.0076C39.8933 84.9375 39.8599 84.8729 39.8089 84.8236C39.7579 84.7744 39.6921 84.7434 39.6216 84.7354C39.4545 84.5299 39.1386 83.6988 38.5589 81.0474C38.1289 79.0927 38.095 77.0716 38.4592 75.1035C40.0959 75.7715 41.8685 76.0389 43.6294 75.8833C43.6982 75.8762 43.7627 75.847 43.8135 75.8001C43.8642 75.7532 43.8984 75.6912 43.9109 75.6232C43.9234 75.5553 43.9136 75.4851 43.8829 75.4232C43.8522 75.3613 43.8023 75.311 43.7406 75.2799C42.7341 74.7713 41.9553 73.9033 41.5584 72.8478C43.8664 73.6145 46.0485 72.5411 50.3186 74.6749C51.0808 74.9862 51.7793 75.4348 52.3796 75.9983C53.5268 78.3126 54.2009 80.8325 54.3624 83.4105C54.5084 85.56 53.8221 87.6833 52.4455 89.3405C48.8686 93.1114 42.8688 92.0832 39.7627 87.8822ZM49.275 91.9459L50.1568 94.0537C49.9024 95.2938 49.5467 96.5108 49.0933 97.6927C47.5964 96.6612 46.1713 95.5292 44.8279 94.3045L44.538 91.8999C46.0792 92.3738 47.7246 92.3899 49.275 91.9467V91.9459ZM44.1133 94.4616C44.1298 94.5109 44.1586 94.5552 44.1968 94.5905C45.7212 95.9991 47.3501 97.2901 49.0695 98.4526C49.1094 98.4803 49.1551 98.4983 49.2031 98.5054C49.2512 98.5124 49.3002 98.5083 49.3463 98.4932C49.3924 98.4781 49.4345 98.4528 49.4696 98.4192C49.5046 98.3856 49.5317 98.3446 49.5487 98.2992C50.0914 96.9247 50.5119 95.5051 50.8054 94.0568C52.9094 94.1335 55.3883 94.2147 57.4232 94.2477C59.6468 95.8579 61.8597 97.7978 63.1309 104.866L64.2642 111.214L51.2064 118.597C47.4708 115.281 43.9821 111.697 40.7687 107.872C40.922 102.422 38.3596 98.3521 35.6675 97.0931C38.3951 95.9563 41.2225 95.0756 44.1133 94.4624V94.4616ZM68.1892 133.758C68.4347 134.743 68.4676 135.768 68.2858 136.766C67.8423 138.127 66.9475 139.297 65.7494 140.08C59.9804 144.487 51.4012 145.697 42.2102 143.398C39.4577 142.8 36.8375 141.704 34.4783 140.165C33.8473 139.769 33.3226 139.225 32.9494 138.58C32.7142 137.909 32.5977 137.202 32.6051 136.491C32.5108 131.326 32.3751 126.31 32.4794 121.365C37.2524 126.108 42.569 130.436 49.0803 130.436C52.0582 130.367 54.9573 129.465 57.4493 127.834C60.5479 125.899 63.4128 123.613 65.9871 121.021L68.1892 133.758ZM76.9462 104.766C76.2408 105.223 75.4879 105.602 74.7012 105.897C74.619 105.9 74.5413 105.935 74.4846 105.995C74.4278 106.054 74.3963 106.134 74.3968 106.216C74.3965 106.298 74.428 106.377 74.4847 106.437C74.5414 106.497 74.619 106.532 74.7012 106.536C75.2716 106.533 75.8308 106.694 76.3113 107.002C77.4783 108.04 76.0614 110.968 73.0596 111.62C72.3102 111.384 71.6214 110.987 71.0413 110.457C70.4611 109.928 70.0035 109.278 69.7004 108.553C70.7069 106.747 72.2478 105.298 74.1115 104.404C74.94 103.941 75.913 103.809 76.835 104.034C77.5328 104.268 77.4891 104.39 76.9462 104.766Z" fill="#4B1010"/>
<path d="M53.9434 76.492C53.6151 76.4837 53.2885 76.5412 52.9827 76.6611C52.677 76.7809 52.3984 76.9608 52.1632 77.19C51.9281 77.4192 51.7411 77.6932 51.6135 77.9957C51.4858 78.2983 51.42 78.6233 51.4199 78.9517C51.4198 79.2801 51.4854 79.6052 51.6129 79.9078C51.7404 80.2105 51.9271 80.4845 52.1621 80.7139C52.3971 80.9433 52.6757 81.1233 52.9813 81.2433C53.287 81.3634 53.6136 81.4211 53.9418 81.413C54.5838 81.3972 55.1941 81.1311 55.6426 80.6715C56.0911 80.212 56.3422 79.5954 56.3424 78.9532C56.3426 78.3111 56.0919 77.6943 55.6437 77.2345C55.1955 76.7747 54.5853 76.5082 53.9434 76.492Z" fill="#FFE55D"/>
<path d="M40.8949 81.7417C40.4596 81.7414 40.0296 81.8378 39.636 82.0238C39.2425 82.2098 38.8951 82.4809 38.6189 82.8174C38.3428 83.1539 38.1447 83.5475 38.0391 83.9698C37.9335 84.3922 37.9229 84.8326 38.0081 85.2595C38.1169 85.8064 38.3787 86.3112 38.7632 86.715C39.1477 87.1188 39.639 87.4051 40.1799 87.5406C40.7208 87.6761 41.289 87.6551 41.8185 87.4802C42.3479 87.3053 42.8168 86.9836 43.1705 86.5525C43.5242 86.1215 43.7482 85.5989 43.8165 85.0454C43.8847 84.492 43.7944 83.9306 43.5559 83.4266C43.3175 82.9225 42.9408 82.4966 42.4697 82.1983C41.9986 81.9 41.4525 81.7417 40.8949 81.7417Z" fill="#FFE55D"/>
<path d="M54.1058 75.2615L53.6504 74.1666C53.6344 74.1279 53.611 74.0927 53.5814 74.0631C53.5518 74.0335 53.5167 74.01 53.478 73.994C53.4393 73.9779 53.3979 73.9697 53.356 73.9697C53.3142 73.9698 53.2727 73.978 53.234 73.9941L35.263 81.3802C35.1864 81.4118 35.125 81.4719 35.092 81.5479C35.0589 81.6239 35.0567 81.7098 35.0859 81.7873L35.2392 82.193L34.9325 82.2804C34.8851 82.2933 34.8415 82.3172 34.805 82.3501C34.7685 82.383 34.7402 82.424 34.7224 82.4698C34.7045 82.5154 34.6973 82.5646 34.7013 82.6135C34.7052 82.6624 34.7204 82.7097 34.7454 82.7519L35.0192 83.2081C35.0583 83.2741 35.1201 83.3236 35.1929 83.3476C35.2658 83.3716 35.3449 83.3683 35.4156 83.3385L36.5105 82.8784C36.5712 82.853 36.6226 82.8095 36.6578 82.7538C36.6929 82.6981 36.71 82.6329 36.7068 82.5671C36.7045 82.5234 36.6933 82.4806 36.6738 82.4414L36.4629 82.0189L39.4149 80.8074L39.6542 81.3442C39.6854 81.4146 39.741 81.4713 39.8107 81.504C39.8804 81.5367 39.9596 81.5431 40.0337 81.5221L40.4171 81.4124L40.5704 81.7191C40.6054 81.7875 40.6636 81.8411 40.7346 81.8704C40.8056 81.8996 40.8847 81.9025 40.9576 81.8786L41.213 81.7935L41.3786 82.2351C41.4067 82.3096 41.4616 82.3708 41.5325 82.4068C41.6034 82.4429 41.6853 82.4511 41.7619 82.4299L42.107 82.3317L42.1921 82.5894C42.2061 82.6308 42.2284 82.6689 42.2577 82.7013C42.2869 82.7338 42.3226 82.7598 42.3623 82.778C42.5417 82.8608 42.2856 82.916 46.63 81.1417C46.7013 81.1128 46.7597 81.059 46.7943 80.9904C46.829 80.9217 46.8377 80.8429 46.8187 80.7683L46.6983 80.2868L46.8363 80.2301C46.9078 80.1941 46.9632 80.1327 46.9916 80.0579C47.02 79.9831 47.0193 79.9003 46.9896 79.826L46.913 79.6428L47.1974 79.5001C47.2688 79.4641 47.3241 79.4026 47.3525 79.3278C47.3808 79.2531 47.3802 79.1704 47.3508 79.0961L46.9176 78.0134L47.1622 77.9045L47.3078 78.2457C47.3251 78.2857 47.3503 78.3216 47.3818 78.3515C47.4134 78.3814 47.4508 78.4045 47.4916 78.4195C47.5324 78.4345 47.5758 78.441 47.6192 78.4387C47.6627 78.4364 47.7051 78.4253 47.7441 78.406L48.0217 78.2672L48.2364 78.6437C48.2796 78.7179 48.3504 78.7719 48.4334 78.794C48.4745 78.8047 48.5173 78.8072 48.5593 78.8011C48.6013 78.795 48.6417 78.7806 48.678 78.7587L48.8544 78.6529L49.0576 79.0079C49.0982 79.0784 49.1642 79.1308 49.2421 79.1544C49.32 79.1781 49.404 79.1712 49.477 79.1352L49.5391 79.1045L49.6794 79.4319C49.7127 79.5082 49.7743 79.5686 49.8512 79.6005C49.9281 79.6324 50.0144 79.6332 50.0919 79.6029C53.5139 78.2411 53.3943 78.3293 53.4656 78.1422C53.5193 78.0011 53.4794 77.939 53.3222 77.6247L53.3989 77.5848C53.4732 77.5487 53.5306 77.4853 53.5592 77.4079C53.5878 77.3304 53.5853 77.2449 53.5522 77.1692L53.3107 76.6271L53.5868 76.4899C53.6623 76.4518 53.7197 76.3852 53.7462 76.3049C53.7728 76.2245 53.7665 76.1369 53.7286 76.0613L53.6059 75.8174L53.9333 75.6771C54.0112 75.6447 54.073 75.5828 54.1053 75.5049C54.1377 75.4271 54.1378 75.3396 54.1058 75.2615Z" fill="#4B1010"/>
<path d="M40.8579 80.1281L41.1314 80.7655L41.5872 80.4928L41.4049 79.9458L40.8579 80.1281Z" fill="#FFE55D"/>
<path d="M41.7705 80.5837L41.9528 81.2218L42.5902 81.0395L42.3167 80.4021L41.7705 80.5837Z" fill="#FFE55D"/>
<path d="M42.1343 79.6717L42.4078 80.2187L42.8636 80.0364L42.6813 79.3982L42.1343 79.6717Z" fill="#FFE55D"/>
<path d="M42.5908 81.04L42.8643 81.6782L43.4113 81.4958L43.229 80.8577L42.5908 81.04Z" fill="#FFE55D"/>
<path d="M42.9568 80.128L43.2296 80.8566L43.7766 80.5831L43.5031 79.8545L42.9561 80.128H42.9568Z" fill="#FFE55D"/>
<path d="M43.8694 80.5837L44.1422 81.2218L44.598 81.0395L44.3245 80.4021L43.8687 80.5837H43.8694Z" fill="#FFE55D"/>
<path d="M48.6123 77.0264L48.885 77.5727L49.3409 77.3903L49.1585 76.7529L48.6123 77.0264Z" fill="#FFE55D"/>
<path d="M49.4326 77.3908L49.9796 77.2085L50.2531 77.7555L49.7061 78.029L49.4326 77.3908Z" fill="#FFE55D"/>
<path d="M49.7974 76.4792L50.0709 77.1174L50.5267 76.8439L50.2532 76.2969L49.7974 76.4792Z" fill="#FFE55D"/>
<path d="M50.6187 76.9351L50.8922 77.4814L51.4391 77.299L51.1656 76.6616L50.6187 76.9351Z" fill="#FFE55D"/>
<path d="M44.5934 83.9334C44.5518 83.8597 44.5412 83.7725 44.564 83.691C44.5867 83.6095 44.6409 83.5403 44.7146 83.4987C44.7883 83.4571 44.8755 83.4465 44.957 83.4692C45.0386 83.492 45.1077 83.5461 45.1493 83.6198C45.7033 84.5882 46.5538 85.353 47.5753 85.8015C48.5968 86.25 49.7354 86.3585 50.8233 86.111C50.9057 86.0921 50.9923 86.1066 51.0641 86.1513C51.1359 86.1959 51.1871 86.2672 51.2066 86.3495C51.2257 86.432 51.2112 86.5188 51.1664 86.5907C51.1215 86.6625 51.0499 86.7137 50.9674 86.7328C49.7452 87.0109 48.4661 86.8889 47.3185 86.3849C46.1709 85.8809 45.2156 85.0215 44.5934 83.9334Z" fill="#4B1010"/>
<path d="M76.0686 113.606C77.711 113.242 79.2422 111.428 78.9685 109.787C78.6656 109.138 78.2679 108.538 77.7884 108.007C76.5747 107.946 76.6092 107.688 75.4284 107.601C74.2399 107.924 73.0814 108.346 71.9634 108.863C71.407 109.149 70.9167 109.548 70.524 110.035C70.1313 110.522 69.8448 111.086 69.6831 111.69C69.6072 112.03 69.6038 112.382 69.6732 112.724C69.7425 113.065 69.8831 113.388 70.0857 113.671C70.2883 113.954 70.5484 114.192 70.849 114.368C71.1495 114.544 71.4838 114.654 71.83 114.692C72.1218 114.97 72.4891 115.155 72.8857 115.225C73.2824 115.294 73.6908 115.245 74.0597 115.084C74.2918 115.259 74.5636 115.374 74.8508 115.418C75.138 115.463 75.4317 115.436 75.7059 115.339C76.1822 115.154 76.6165 114.875 76.9833 114.519C77.1658 114.336 77.4434 114.063 77.2571 113.789C77.0707 113.515 76.8009 113.606 76.6184 113.697C76.4359 113.787 76.0686 113.789 76.0686 113.606Z" fill="white"/>
<path d="M79.9017 106.765C79.7214 106.63 79.5335 106.506 79.3389 106.394C79.3581 106.341 79.3628 106.285 79.3526 106.23C79.3423 106.176 79.3174 106.125 79.2806 106.083C78.5458 105.624 77.6764 105.43 76.8163 105.533C76.7296 105.619 75.2651 106.529 75.2651 107.449C76.0379 107.805 76.8813 107.981 77.7318 107.964C78.3652 108.365 78.8262 108.988 79.0247 109.712C79.2232 110.435 79.1449 111.206 78.8052 111.874L80.3556 111.236C80.8938 111.053 81.9405 108.307 79.9017 106.765Z" fill="#FFE55D"/>
<path d="M80.0984 106.513C79.96 106.411 79.8175 106.314 79.6713 106.223C79.6543 106.062 79.5747 105.915 79.4497 105.812C78.4713 105.199 77.0076 105 76.5222 105.358C75.8659 105.832 75.001 106.548 74.9496 107.374C73.8452 107.724 72.7688 108.156 71.7293 108.668C68.8563 110.105 68.1846 114.135 71.2363 115.008C71.2769 115.019 71.3191 115.023 71.3613 115.018C71.4031 115.013 71.4435 115 71.4801 114.98C71.7932 115.287 72.1846 115.502 72.6115 115.602C73.0385 115.702 73.4847 115.682 73.9015 115.546C74.1759 115.705 74.481 115.803 74.7963 115.834C75.1117 115.865 75.43 115.829 75.7302 115.727C76.5544 115.397 77.9377 114.467 77.4278 113.703C77.3596 113.598 77.266 113.512 77.1556 113.453C77.7376 113.128 78.2427 112.682 78.6362 112.144C78.8286 112.264 78.8187 112.212 80.4564 111.538C80.9065 111.384 81.237 110.596 81.3535 109.928C81.4852 109.298 81.4373 108.644 81.2154 108.04C80.9935 107.437 80.6064 106.908 80.0984 106.513ZM76.9378 105.845C77.6675 105.772 78.4014 105.933 79.0333 106.305C78.8122 106.77 78.4811 107.173 78.0688 107.481C77.8058 107.707 77.1671 107.845 75.6152 107.242C75.7885 106.694 76.5092 106.172 76.9378 105.845ZM75.8191 113.295C75.7476 113.311 75.6838 113.351 75.6386 113.408C75.5934 113.466 75.5696 113.537 75.5715 113.61C75.5722 113.658 75.5837 113.706 75.6052 113.749C75.7169 113.92 75.885 114.045 76.08 114.105C76.275 114.164 76.4847 114.153 76.6725 114.074C76.8535 113.983 76.8772 114.019 76.9087 114.069C76.5657 114.566 76.0711 114.94 75.4986 115.134C75.1091 115.249 74.6915 115.221 74.3201 115.057C73.9337 114.745 73.6656 114.31 73.5603 113.824C73.5493 113.743 73.5076 113.67 73.4439 113.618C73.3801 113.567 73.2992 113.542 73.2177 113.549C73.1363 113.556 73.0606 113.594 73.0062 113.655C72.9518 113.716 72.9229 113.795 72.9254 113.877C72.9293 114.276 73.0328 114.667 73.226 115.015C72.9696 115.029 72.7134 114.985 72.4767 114.885C72.24 114.786 72.029 114.634 71.8596 114.441C71.69 114.248 71.5662 114.02 71.4974 113.772C71.4286 113.525 71.4167 113.265 71.4625 113.013C71.4747 112.934 71.4568 112.853 71.4124 112.787C71.368 112.72 71.3002 112.673 71.2225 112.654C70.6858 112.525 70.6804 113.593 70.7908 114.119C69.0572 113.046 69.9796 110.256 72.0176 109.236C73.1334 108.686 74.2929 108.23 75.4841 107.873C76.1679 108.174 76.91 108.32 77.657 108.301C78.2435 108.726 78.6486 109.355 78.7918 110.065C78.354 111.897 77.3526 112.941 75.8191 113.295ZM80.7693 109.5C80.7685 110.027 80.5808 110.537 80.2394 110.939L79.3669 111.298C79.5063 110.719 79.487 110.112 79.3109 109.543C79.1348 108.973 78.8085 108.461 78.3663 108.061C78.809 107.732 79.1877 107.325 79.4834 106.86C79.929 107.129 80.2871 107.522 80.5146 107.99C80.7421 108.459 80.8292 108.983 80.7654 109.5H80.7693Z" fill="#4B1010"/>
<path d="M127.873 7.09582L78.5304 103.783L27.5493 5.26943C27.5083 5.1979 27.4413 5.14496 27.3622 5.12167C27.2831 5.09838 27.1981 5.10653 27.1249 5.14442C27.0517 5.18231 26.996 5.24702 26.9693 5.32503C26.9427 5.40304 26.9472 5.48833 26.9819 5.56309L78.2491 104.631C78.2692 104.67 78.2972 104.704 78.3312 104.731C78.3651 104.759 78.4044 104.779 78.4466 104.791C78.4887 104.803 78.5328 104.806 78.5761 104.8C78.6194 104.794 78.661 104.779 78.6984 104.756C78.7484 104.726 78.7893 104.683 78.8164 104.631L128.442 7.38872C128.472 7.33254 128.484 7.26873 128.477 7.20552C128.47 7.14231 128.445 7.08259 128.404 7.03407C128.363 6.98556 128.308 6.95046 128.247 6.93331C128.185 6.91617 128.12 6.91775 128.06 6.93787C128.02 6.95062 127.983 6.97113 127.951 6.99823C127.919 7.02533 127.892 7.05849 127.873 7.09582Z" fill="#FFE55D"/>
<path d="M81.998 44.4597H63.2065V63.3424H81.998V44.4597Z" fill="white"/>
<path d="M81.998 4.32202H63.2065V23.1135H81.998V4.32202Z" fill="white"/>
<path d="M79.8061 63.2522C75.1542 63.3435 70.5016 63.4347 65.6672 63.2522C65.5593 62.1483 65.7813 61.0372 66.3052 60.0595C66.5932 59.3917 67.0301 58.7987 67.5826 58.3259C68.3585 57.8808 69.2426 57.6597 70.1366 57.6872C73.0779 57.3805 78.1039 55.8569 79.4411 60.4237C79.7079 61.317 79.8912 62.2332 79.9886 63.161L79.8061 63.2522Z" fill="#FFE55D"/>
<path d="M79.1704 19.8304C78.9793 19.2452 78.6319 18.7233 78.1657 18.3213C77.6994 17.9192 77.1321 17.6523 76.5252 17.5493C75.9799 17.5784 75.4489 17.7346 74.9748 18.0055C72.4798 19.1955 72.2191 19.8304 71.8733 19.8304C71.1065 19.8304 68.5839 16.8247 67.0382 18.3736C66.7697 18.6532 66.5807 18.9994 66.4907 19.3765C65.5361 22.2403 65.5507 22.8675 65.6358 23.122C77.959 22.9902 77.1148 22.9204 79.9916 23.2079C79.9472 22.0384 79.668 20.8898 79.1704 19.8304Z" fill="#FFE55D"/>
<path d="M107.359 20.7422H88.5674V39.6249H107.359V20.7422Z" fill="white"/>
<path d="M105.263 39.5342C103.935 39.3204 102.584 39.2897 101.249 39.443C97.7821 39.6254 94.4069 39.5342 90.9404 39.443C91.1198 37.6503 91.415 35.5977 92.8573 34.5166C93.0628 34.4092 93.2759 34.3172 93.4952 34.2429C93.8019 34.2275 94.1094 34.2582 94.4077 34.3341C96.1474 34.5795 97.9194 34.456 99.6078 33.9691C101.332 33.1073 103.857 34.0857 104.625 36.7057C104.888 37.6365 105.1 38.5811 105.263 39.5342Z" fill="#FFE55D"/>
<path d="M93.0364 39.3519C93.1061 38.5843 93.2281 37.8222 93.4013 37.0708C93.4013 36.6997 93.0885 36.5632 92.7634 36.8883C92.597 37.7022 92.4752 38.5246 92.3984 39.3519C92.3984 39.736 93.0364 39.6869 93.0364 39.3519Z" fill="#4B1010"/>
<path d="M100.244 37.1616C100.409 37.8839 100.531 38.6146 100.609 39.3514C100.609 39.5339 100.791 39.6252 100.974 39.6252C101.156 39.6252 101.247 39.4427 101.339 39.3514C101.269 38.5535 101.147 37.7611 100.974 36.9791C100.974 36.6272 100.244 36.5474 100.244 37.1616Z" fill="#4B1010"/>
<path d="M77.4383 51.8488C78.6351 55.6396 75.3381 58.7189 71.6002 58.3255C69.8555 58.1372 68.2365 57.3279 67.0388 56.0452C66.6921 55.7768 66.4631 55.3842 66.4001 54.9503C66.3396 54.6436 66.371 54.3262 66.4914 54.0379C66.6383 53.3378 66.8841 52.6622 67.2213 52.0313C67.1685 51.0199 67.2607 50.0063 67.4951 49.021C67.5481 48.7674 67.6577 48.529 67.8157 48.3237C67.9737 48.1183 68.176 47.9512 68.4075 47.8349C68.6838 47.7913 68.9669 47.8389 69.2137 47.9707C69.4606 48.1024 69.6577 48.311 69.7754 48.5648C69.9709 49.0992 70.125 49.6482 70.2354 50.2064C70.2389 50.3756 70.3038 50.5377 70.4179 50.6626C70.8879 50.898 70.8588 50.8451 72.3348 50.8451C72.6292 50.8375 72.9152 50.7431 73.1552 50.5714L73.4289 50.0247C73.6896 48.8945 73.7701 48.081 74.3414 47.6524C74.5881 47.5226 74.8683 47.4705 75.1452 47.5031C75.4221 47.5357 75.6826 47.6513 75.8925 47.8349C76.3402 48.1647 76.6878 48.6119 76.8971 49.1271C77.1063 49.6423 77.1689 50.2053 77.0779 50.7539L77.4383 51.8488Z" fill="white"/>
<path d="M67.4033 51.21C67.3834 50.4041 67.507 49.6011 67.7683 48.8385C67.9508 48.4735 68.1332 48.1085 68.4982 48.1085C68.8632 48.1085 69.2274 48.5648 69.4099 49.021C69.5924 49.5684 69.5011 50.4778 69.9573 50.9379C70.4841 51.4646 72.5789 51.5213 73.331 50.3904C73.5043 49.6796 73.7175 48.9796 73.9697 48.2926C74.6859 47.0221 76.8765 48.9826 76.4325 50.7554C76.3413 51.1203 76.98 51.3028 77.0712 50.9379C77.3572 49.08 76.0392 47.0328 74.2435 47.2889C73.9722 47.3718 73.7279 47.5254 73.5355 47.7338C73.3431 47.9422 73.2095 48.198 73.1485 48.4751C72.8089 49.4941 72.7445 50.2739 72.3281 50.4816C71.7314 50.6295 71.1117 50.6605 70.5033 50.5729C70.4089 50.5337 70.326 50.4714 70.2622 50.3916C70.1984 50.3119 70.1558 50.2173 70.1383 50.1167C70.0648 49.4394 69.847 48.7858 69.4996 48.1998C69.3362 47.9726 69.1149 47.7934 68.8586 47.6811C68.6023 47.5687 68.3205 47.5273 68.0428 47.5611C66.6703 47.8126 66.5859 50.2064 66.5859 51.3013C66.5859 51.4838 66.7684 51.575 66.9509 51.575C67.0497 51.554 67.1421 51.51 67.2207 51.4466C67.2993 51.3832 67.3619 51.3022 67.4033 51.21Z" fill="#4B1010"/>
<path d="M66.4204 53.6372C66.0686 53.5167 65.6923 53.4853 65.3254 53.546C65.0632 53.546 65.0571 54.1847 65.3254 54.1847C66.3099 54.1847 66.2931 54.2399 66.5576 54.2399C67.2983 54.2376 66.7876 53.6372 66.4204 53.6372Z" fill="#4B1010"/>
<path d="M65.434 54.7227C65.1227 54.7227 65.0353 55.3154 65.579 55.3154C65.8782 55.2489 66.1842 55.2183 66.4906 55.2241C66.7207 55.2241 66.8318 54.8684 66.7444 54.781C66.5106 54.5486 65.8144 54.5954 65.434 54.7227Z" fill="#4B1010"/>
<path d="M75.7989 54.4489C76.0723 54.3224 76.3732 54.2668 76.6737 54.2872C77.1752 54.2872 77.0487 53.6615 76.6346 53.6738C76.2749 53.6873 75.9208 53.7684 75.5911 53.913C75.1226 54.1269 75.3296 54.6629 75.7989 54.4489Z" fill="#4B1010"/>
<path d="M75.6487 55.2434L76.8026 55.4052C77.5157 55.4052 77.1975 54.7964 76.8509 54.7511L75.7553 54.6062C75.3029 54.6062 75.1572 55.1682 75.6487 55.2434Z" fill="#4B1010"/>
<path d="M67.6568 63.2206C67.7396 62.3734 67.8677 61.5307 68.0402 60.6973C68.0402 60.1605 67.4927 60.2618 67.4927 60.5148C67.3205 61.3792 67.1925 62.2519 67.1094 63.1294C67.1094 63.3694 67.6568 63.6416 67.6568 63.2206Z" fill="#4B1010"/>
<path d="M68.6812 63.2523C68.6965 62.5193 68.7578 61.7878 68.8636 61.0617C68.8636 60.9704 68.8636 60.8792 68.9549 60.8792C69.0461 60.788 69.0461 60.788 69.1366 60.788C70.7398 60.576 72.3617 60.5454 73.9717 60.6967L74.1542 63.2515L68.6812 63.2523Z" fill="#FFE55D"/>
<path d="M74.2448 60.789C74.2408 60.7177 74.2107 60.6503 74.1602 60.5997C74.1098 60.5491 74.0424 60.5188 73.9711 60.5145C72.5172 60.3321 71.0461 60.3321 69.5922 60.5145C68.6138 60.5145 68.498 60.6947 68.498 61.5182L68.416 63.2457C68.3616 63.5332 68.4804 63.649 68.6913 63.6168H74.1536C74.2248 63.6126 74.292 63.5824 74.3425 63.532C74.3929 63.4815 74.4231 63.4143 74.4273 63.3431L74.2448 60.789ZM69.0524 62.9781C69.113 62.3409 69.1406 61.7015 69.136 61.0612C70.6565 60.8923 72.1889 60.8561 73.7158 60.9531L73.8607 62.9773L69.0524 62.9781Z" fill="#4B1010"/>
<path d="M74.9756 60.8795C75.1857 61.5926 75.3083 62.3271 75.3405 63.0693C75.3405 63.3937 75.888 63.4987 75.888 62.9781C75.8179 62.1802 75.696 61.3878 75.523 60.6058C75.293 60.148 74.8138 60.5582 74.9756 60.8795Z" fill="#4B1010"/>
<path d="M80.2666 63.0694C80.1069 61.6146 79.7063 60.1964 79.0812 58.873C78.4047 58.0107 77.5092 57.3458 76.488 56.9477C77.1327 56.2875 77.5804 55.4604 77.7806 54.5596C77.9808 53.6588 77.9256 52.72 77.6213 51.8488C77.4388 51.4838 76.8913 51.6663 76.9826 52.0313C78.0775 55.1328 75.341 58.0518 72.3307 58.1431C70.8168 58.1795 69.336 57.6968 68.1343 56.7752C67.5776 56.3297 66.6775 55.6803 66.4919 54.9503C66.4626 53.9864 66.7164 53.035 67.2219 52.2138C67.5063 51.7645 66.9481 51.3926 66.7657 51.8488C65.7328 53.7082 65.5036 55.4863 67.2219 56.7752C67.5654 57.0727 67.9334 57.3426 68.3206 57.5795C67.5285 57.8317 66.85 58.3541 66.4038 59.0555C65.8586 60.3062 65.4891 61.6262 65.3058 62.9782C65.2145 63.3431 65.8532 63.5249 65.9437 63.1607C66.1073 61.9134 66.4134 60.6891 66.8561 59.5117C66.9289 59.2895 67.0478 59.0853 67.2051 58.9123C67.3623 58.7393 67.5543 58.6016 67.7686 58.508C68.2133 58.3148 68.6703 58.1507 69.1357 58.015C70.1919 58.5364 71.368 58.7668 72.5428 58.6823C73.7177 58.5978 74.8487 58.2015 75.8194 57.5343C76.9267 57.8084 77.9125 58.4401 78.6242 59.3315C78.9301 59.8705 79.1456 60.4556 79.2629 61.0644C79.4278 61.7245 79.5497 62.3954 79.6279 63.0717C79.6279 63.4382 80.3571 63.4382 80.2666 63.0694Z" fill="#4B1010"/>
<path d="M100.973 24.1172C102.452 25.1738 102.139 26.7755 102.25 27.2187C102.342 27.5837 102.524 28.0399 102.615 28.4049C102.882 29.1116 102.946 29.8785 102.801 30.6197C102.656 31.3609 102.307 32.0471 101.794 32.6013C101.348 33.1444 100.792 33.5875 100.164 33.9018C99.5351 34.2161 98.8473 34.3945 98.1451 34.4254C97.1133 34.5208 96.0731 34.3908 95.0966 34.0444C94.12 33.6979 93.2305 33.1432 92.4896 32.4188C92.2064 32.1466 91.9799 31.821 91.8233 31.4608C91.6667 31.1006 91.5831 30.7129 91.5771 30.3202C91.5771 29.4085 92.2159 28.6786 92.3071 27.8574C92.4604 27.0815 92.0725 26.4826 92.5808 25.2121C92.6337 24.9587 92.7431 24.7206 92.901 24.5154C93.0589 24.3103 93.2611 24.1435 93.4925 24.0275C93.7668 24.0037 94.0421 24.06 94.285 24.1896C94.5279 24.3192 94.7281 24.5164 94.8611 24.7574C95.069 25.2818 95.1922 25.836 95.2261 26.399C95.2285 26.5696 95.2935 26.7333 95.4086 26.8591C95.8786 27.0945 95.8495 27.0416 97.3255 27.0416C97.5873 27.0473 97.8423 26.9582 98.0435 26.7907C98.2448 26.6231 98.3786 26.3884 98.4204 26.1299L98.7854 24.9438C98.8484 24.5098 99.0773 24.1173 99.4241 23.8488C99.6834 23.7557 99.9624 23.7315 100.234 23.7785C100.505 23.8255 100.76 23.9422 100.973 24.1172Z" fill="white"/>
<path d="M91.6683 30.0465C91.2996 29.9612 90.9157 29.967 90.5497 30.0634C90.4823 30.0787 90.4234 30.1191 90.3849 30.1765C90.3465 30.2339 90.3316 30.3039 90.3432 30.3719C90.3548 30.44 90.392 30.5011 90.4473 30.5425C90.5025 30.584 90.5715 30.6027 90.6401 30.5948C91.5832 30.6032 91.6369 30.6063 91.8508 30.6852C92.0648 30.7642 92.1422 30.0465 91.6683 30.0465Z" fill="#4B1010"/>
<path d="M90.7559 30.9589C90.6987 30.9746 90.6476 31.0073 90.6095 31.0528C90.5714 31.0983 90.5482 31.1543 90.5428 31.2134C90.5391 31.2527 90.5435 31.2924 90.556 31.3299C90.5684 31.3674 90.5884 31.4019 90.6148 31.4312C90.6414 31.4604 90.6735 31.4839 90.7094 31.5003C90.7452 31.5168 90.784 31.5259 90.8234 31.527C90.8627 31.528 90.9019 31.521 90.9384 31.5063C91.2029 31.4197 91.4828 31.3883 91.7596 31.4151C91.8261 31.4097 91.8887 31.3819 91.9373 31.3362C91.9859 31.2905 92.0176 31.2297 92.0271 31.1637C92.0366 31.0977 92.0235 31.0304 91.9898 30.9729C91.9561 30.9153 91.9039 30.8709 91.8416 30.8469C91.5817 30.7128 91.2305 30.8002 90.7559 30.9589Z" fill="#4B1010"/>
<path d="M101.029 30.6307C101.289 30.503 101.581 30.4522 101.869 30.4842C102.347 30.4842 102.364 29.9368 101.869 29.9368C101.508 29.9406 101.149 30.0134 100.815 30.1499C100.196 30.4099 100.647 30.817 101.029 30.6307Z" fill="#4B1010"/>
<path d="M100.79 31.5066L101.885 31.6891C102.607 31.6891 102.383 31.0849 102.016 31.0289L100.973 30.8679C100.303 30.8679 100.422 31.5066 100.79 31.5066Z" fill="#4B1010"/>
<path d="M105.443 39.3519C105.335 38.5834 105.183 37.8218 104.987 37.0708C104.784 36.4173 104.54 35.7771 104.257 35.154C103.62 34.2792 102.737 33.6138 101.721 33.2425C102.419 32.5946 102.91 31.7556 103.134 30.8302C103.358 29.9047 103.305 28.9338 102.981 28.0385C102.889 27.6736 102.25 27.8561 102.342 28.221C103.436 31.3225 100.699 34.1503 97.6892 34.3328C96.1775 34.355 94.7013 33.8735 93.4935 32.9641C92.9369 32.5194 92.0367 31.87 91.8512 31.14C91.8105 30.1749 92.0651 29.2202 92.5811 28.4035C92.8548 28.0385 92.3074 27.6736 92.1211 28.1298C91.6579 28.9741 91.3781 29.9065 91.2999 30.8663C91.3669 31.3778 91.5493 31.8673 91.8333 32.2979C92.1173 32.7286 92.4955 33.089 92.9392 33.3521C92.8441 33.4303 92.7538 33.5141 92.6685 33.6028C92.624 33.6706 92.6003 33.7499 92.6003 33.8309C92.6003 33.912 92.624 33.9913 92.6685 34.0591C92.7115 34.1089 92.7559 34.158 92.8004 34.2063C92.5032 34.3566 92.2407 34.5671 92.0294 34.8246C91.8182 35.082 91.663 35.3806 91.5736 35.7014C91.1111 36.8875 90.7847 38.1222 90.6006 39.3818C90.6006 39.5643 90.6918 39.7468 90.7823 39.7468C90.8363 39.7691 90.8961 39.7734 90.9527 39.759C91.0093 39.7447 91.0598 39.7124 91.0967 39.6671C91.1212 39.637 91.1387 39.6019 91.148 39.5643C91.3244 38.4096 91.5882 37.2702 91.9386 36.1561C91.9918 35.809 92.1379 35.4826 92.3614 35.2117C92.5849 34.9408 92.8776 34.7354 93.2083 34.6172C94.7702 36.0164 96.7756 36.8198 98.8715 36.8861C99.5616 36.61 100.881 34.917 101.318 33.8766C102.316 34.1581 103.19 34.7684 103.797 35.6087C104.104 36.1477 104.319 36.7327 104.436 37.3415C104.602 38.0024 104.725 38.6741 104.802 39.3519C104.802 39.7169 105.535 39.7169 105.443 39.3519Z" fill="#4B1010"/>
<path d="M67.6773 22.8406C67.7471 22.0731 67.869 21.311 68.0423 20.5595C68.2309 20.1823 67.4949 20.0083 67.4949 20.3771C67.3286 21.191 67.2068 22.0134 67.1299 22.8406C67.1299 23.1466 67.6773 23.2723 67.6773 22.8406Z" fill="#4B1010"/>
<path d="M74.8833 20.742C75.0934 21.455 75.2161 22.1896 75.2483 22.9318C75.2483 23.263 75.887 23.3236 75.887 22.9318C75.8169 22.1339 75.695 21.3415 75.522 20.5595C75.3341 20.1845 74.8833 20.3417 74.8833 20.742Z" fill="#4B1010"/>
<path d="M88.2019 53.3993C89.0729 53.3993 89.9083 53.0533 90.5243 52.4373C91.1402 51.8214 91.4862 50.986 91.4862 50.1149C91.4862 49.2439 91.1402 48.4085 90.5243 47.7925C89.9083 47.1766 89.0729 46.8306 88.2019 46.8306C87.3308 46.8306 86.4954 47.1766 85.8794 47.7925C85.2635 48.4085 84.9175 49.2439 84.9175 50.1149C84.9175 50.986 85.2635 51.8214 85.8794 52.4373C86.4954 53.0533 87.3308 53.3993 88.2019 53.3993Z" fill="white"/>
<path d="M88.202 53.7192C87.669 53.7195 87.1426 53.6015 86.6607 53.3738C86.1788 53.1461 85.7535 52.8143 85.4154 52.4023C85.0772 51.9903 84.8348 51.5084 84.7054 50.9914C84.576 50.4743 84.563 49.935 84.6672 49.4124C84.8415 48.5347 85.3361 47.7532 86.0547 47.22C86.7734 46.6869 87.6647 46.4401 88.5552 46.5279C89.4457 46.6156 90.2718 47.0315 90.8726 47.6946C91.4734 48.3577 91.806 49.2207 91.8057 50.1155C91.8049 51.071 91.4249 51.9871 90.7493 52.6628C90.0736 53.3384 89.1575 53.7184 88.202 53.7192ZM88.202 47.1512C87.8085 47.1448 87.4178 47.2167 87.0524 47.3628C86.687 47.5089 86.3544 47.7262 86.0739 48.0022C85.7933 48.2781 85.5705 48.6071 85.4184 48.9699C85.2662 49.3328 85.1878 49.7224 85.1877 50.1159C85.1876 50.5093 85.2658 50.8989 85.4178 51.2619C85.5697 51.6248 85.7924 51.9539 86.0728 52.23C86.3532 52.5061 86.6857 52.7236 87.051 52.8698C87.4162 53.0161 87.807 53.0883 88.2004 53.082C88.9786 53.0697 89.7208 52.752 90.2669 52.1974C90.8129 51.6427 91.1191 50.8957 91.1193 50.1174C91.1195 49.3391 90.8137 48.5919 90.268 48.037C89.7222 47.4821 88.9802 47.1639 88.202 47.1512Z" fill="#4B1010"/>
<path d="M70.8697 18.7373C69.903 18.0147 68.8981 17.3446 67.8594 16.73C67.6271 17.0827 67.4139 17.4484 67.2207 17.8249C67.0467 17.9997 67.0758 18.4759 67.5857 18.6461C68.9674 19.3861 70.4917 19.8214 72.0558 19.9227C71.7826 19.4218 71.3708 19.0103 70.8697 18.7373Z" fill="#FFE55D"/>
<path d="M76.161 16.5454L74.2441 17.5491C73.5196 18.0604 72.8738 18.6749 72.3272 19.3732C72.1739 19.6868 71.9937 19.8332 72.4185 19.8332C74.1806 19.3992 75.8283 18.59 77.249 17.4609C76.9497 17.0875 76.58 16.7764 76.161 16.5454Z" fill="#FFE55D"/>
<path d="M69.2734 21.8369C69.2911 20.8761 69.4498 19.9231 69.7427 19.0083C69.7702 18.9308 69.8263 18.8669 69.8996 18.8297C69.9729 18.7924 70.0577 18.7848 70.1365 18.8083C70.2153 18.8319 70.282 18.8848 70.3229 18.9561C70.3637 19.0274 70.3756 19.1117 70.3561 19.1916C70.0808 20.0471 69.9318 20.9383 69.9137 21.8369C69.9096 21.919 69.8742 21.9965 69.8146 22.0533C69.755 22.11 69.6758 22.1417 69.5936 22.1417C69.5113 22.1417 69.4321 22.11 69.3725 22.0533C69.3129 21.9965 69.2775 21.919 69.2734 21.8369Z" fill="#4B1010"/>
<path d="M73.4717 21.2503C73.5453 20.5372 73.5744 19.8203 73.5598 19.1034C73.5639 19.0214 73.5993 18.9441 73.6587 18.8875C73.7182 18.8309 73.7971 18.7993 73.8792 18.7993C73.9613 18.7993 74.0402 18.8309 74.0997 18.8875C74.1591 18.9441 74.1945 19.0214 74.1985 19.1034C74.2136 19.8476 74.1824 20.592 74.105 21.3323C74.0903 21.413 74.0452 21.4849 73.979 21.5332C73.9129 21.5816 73.8306 21.6027 73.7494 21.5921C73.6681 21.5816 73.5939 21.5403 73.5423 21.4767C73.4906 21.413 73.4653 21.332 73.4717 21.2503Z" fill="#4B1010"/>
<path d="M78.2585 40.902C79.1296 40.902 79.9649 40.556 80.5809 39.94C81.1968 39.3241 81.5429 38.4887 81.5429 37.6176C81.5429 36.7466 81.1968 35.9112 80.5809 35.2952C79.9649 34.6793 79.1296 34.3333 78.2585 34.3333C77.3874 34.3333 76.552 34.6793 75.9361 35.2952C75.3202 35.9112 74.9741 36.7466 74.9741 37.6176C74.9741 38.4887 75.3202 39.3241 75.9361 39.94C76.552 40.556 77.3874 40.902 78.2585 40.902Z" fill="white"/>
<path d="M78.259 41.2217C77.5462 41.222 76.8493 41.0108 76.2565 40.6148C75.6638 40.2189 75.2018 39.656 74.929 38.9975C74.6562 38.3389 74.585 37.6142 74.7242 36.9151C74.8634 36.216 75.2068 35.5739 75.7111 35.0701C76.2151 34.5662 76.8571 34.2231 77.5561 34.0841C78.2551 33.9451 78.9796 34.0165 79.638 34.2892C80.2964 34.5619 80.8592 35.0237 81.2552 35.6162C81.6512 36.2087 81.8626 36.9053 81.8627 37.618C81.8619 38.5735 81.4819 39.4897 80.8063 40.1653C80.1306 40.841 79.2145 41.2209 78.259 41.2217ZM78.259 34.6537C77.8696 34.6536 77.484 34.7302 77.1243 34.8791C76.7645 35.0281 76.4376 35.2464 76.1622 35.5216C75.8868 35.7969 75.6683 36.1237 75.5192 36.4834C75.3701 36.8431 75.2933 37.2286 75.2932 37.618C75.2931 38.0074 75.3697 38.3929 75.5186 38.7527C75.6675 39.1125 75.8858 39.4394 76.1611 39.7148C76.4363 39.9902 76.7631 40.2087 77.1228 40.3578C77.4825 40.5069 77.8681 40.5837 78.2574 40.5838C79.0438 40.584 79.7981 40.2718 80.3543 39.7159C80.9104 39.16 81.223 38.4059 81.2232 37.6195C81.2234 36.8332 80.9112 36.0789 80.3553 35.5227C79.7994 34.9665 79.0453 34.6539 78.259 34.6537Z" fill="#4B1010"/>
<path d="M77.3467 37.162L78.2591 35.0642L79.0803 37.162L78.2591 38.2569L77.3467 37.162Z" fill="#4B1010"/>
<path d="M77.2549 37.8921L78.1673 39.0782L79.171 37.8921L78.2586 40.1724L77.2549 37.8921Z" fill="#4B1010"/>
<path d="M87.4722 49.5688L88.2934 47.4702L89.2058 49.5688L88.2934 50.7542L87.4722 49.5688Z" fill="#4B1010"/>
<path d="M87.2896 50.2979L88.2932 51.484L89.2057 50.2979L88.2932 52.5789L87.2896 50.2979Z" fill="#4B1010"/>
<path d="M77.0847 10.9806C77.1599 10.3913 77.0902 9.79247 76.8815 9.2362C76.6728 8.67994 76.3314 8.18304 75.887 7.78865C75.1103 7.16759 73.9702 7.3194 73.6972 8.70109C73.2778 10.0628 73.3269 9.99536 73.3008 10.072C74.605 10.1541 75.8847 10.4615 77.0847 10.9806Z" fill="white"/>
<path d="M70.1399 10.0594C70.1049 9.49942 69.9817 8.9485 69.7749 8.42696C69.0081 7.14573 67.687 7.73076 67.4946 8.88701C67.3281 9.54573 67.2371 10.2212 67.2231 10.9005C68.1393 10.4533 69.1262 10.1687 70.1399 10.0594Z" fill="white"/>
<path d="M77.3471 11.6201L67.0389 11.8026C66.7015 12.4334 66.4557 13.109 66.309 13.8092C65.7883 15.3734 68.1453 17.0794 69.7241 17.6728C70.5468 18.2786 71.9584 19.3658 72.032 19.7553C72.5132 19.111 73.0461 18.5068 73.6253 17.9489C76.4853 17.222 78.2802 14.5759 77.3471 11.6201Z" fill="white"/>
<path d="M71.0521 15.1774C70.9259 14.9135 70.7667 14.6666 70.5782 14.4429C70.6303 14.4168 70.6755 14.3788 70.7102 14.3321C70.745 14.2854 70.7683 14.2311 70.7783 14.1737C70.7783 13.8394 70.5966 13.7175 70.5046 13.7175H69.8659C69.6466 13.7175 69.5922 13.9215 69.5922 14.0825C69.5963 14.1531 69.6188 14.2214 69.6576 14.2806C69.6963 14.3398 69.7499 14.3878 69.813 14.4199C69.6512 14.6062 69.5109 14.8109 69.3951 15.0294C69.1505 15.4834 69.5607 15.8851 69.9395 15.3231C70.02 15.1935 70.0929 15.0601 70.158 14.9221C70.2884 15.0885 70.4041 15.2656 70.5046 15.4511C70.7001 15.8407 71.2675 15.3929 71.0521 15.1774Z" fill="#4B1010"/>
<path d="M66.3995 13.5354C66.0479 13.4149 65.6719 13.3835 65.3053 13.4441C65.04 13.4441 65.0377 14.0828 65.3053 14.0828C65.6427 14.0721 65.9793 14.1028 66.3082 14.1741C67.1164 14.1741 66.5628 13.6167 66.3995 13.5354Z" fill="#4B1010"/>
<path d="M66.2167 14.3564C65.9268 14.3833 65.6416 14.4538 65.3732 14.5658C65.055 14.5658 65.1631 15.3854 65.5802 15.1792C65.775 15.1792 65.9429 15.0879 66.2182 15.0879C66.6675 15.0864 66.4796 14.3564 66.2167 14.3564Z" fill="#4B1010"/>
<path d="M75.689 14.0703C75.9673 13.9169 76.2855 13.8533 76.6014 13.8878C77.0868 13.8878 77.0615 13.3403 76.6927 13.3403C76.3277 13.3442 75.9673 13.417 75.63 13.5573C75.1508 13.7605 75.2757 14.4836 75.689 14.0703Z" fill="#4B1010"/>
<path d="M75.4002 15.1073C75.7925 15.1927 76.1909 15.2471 76.5917 15.2699C76.8593 15.2699 77.3248 14.8343 76.6968 14.7285C76.2971 14.6426 75.8929 14.5797 75.4861 14.5399C75.4299 14.531 75.3723 14.539 75.3206 14.5631C75.269 14.5871 75.2258 14.6259 75.1964 14.6747C75.167 14.7234 75.1528 14.7798 75.1556 14.8367C75.1585 14.8936 75.1782 14.9483 75.2124 14.9938C75.2575 15.0551 75.325 15.0959 75.4002 15.1073Z" fill="#4B1010"/>
<path d="M80.0828 22.9317C79.9749 22.1633 79.8228 21.4016 79.6274 20.6506C79.3611 19.3729 78.6292 18.2398 77.574 17.4717C77.5871 17.165 76.884 16.6359 76.6263 16.4634C77.0928 15.9536 77.4445 15.3498 77.658 14.6926C77.8715 14.0354 77.9417 13.34 77.8639 12.6534C78.156 12.3467 77.6392 11.2334 77.3639 10.8524C77.4263 10.2907 77.3761 9.72218 77.2161 9.18016C77.0562 8.63813 76.7897 8.13345 76.4323 7.69565C75.7016 6.87446 74.2425 6.50948 73.6038 7.69565C73.3278 8.33971 73.2204 9.14327 72.949 9.74133C72.0937 9.70907 71.2372 9.72828 70.3842 9.79884C70.2902 9.56494 70.2383 9.31626 70.2309 9.06429C70.1617 8.71292 70.0386 8.37436 69.8659 8.06062C69.7191 7.81162 69.5036 7.61029 69.2451 7.4808C68.9867 7.35132 68.6964 7.29919 68.4091 7.33067C67.0397 7.50166 66.8756 9.67999 66.8595 10.8531C66.5015 11.1901 66.2887 11.6532 66.266 12.1443C66.2625 12.197 66.272 12.2497 66.2938 12.2977C66.3156 12.3457 66.349 12.3876 66.391 12.4196C66.1525 13.0406 66.0026 13.6921 65.9455 14.3549C66.0052 14.8419 66.1728 15.3094 66.4361 15.7234C66.6994 16.1374 67.0518 16.4874 67.4675 16.7479C67.305 17.0063 67.1079 17.3429 66.9576 17.6388C66.8925 17.7254 66.8468 17.8251 66.8238 17.9309C66.8008 18.0368 66.8009 18.1464 66.8242 18.2522C65.9402 19.3832 65.4655 21.5876 65.2646 22.8949C65.2646 23.2369 65.855 23.1817 65.855 22.9332C66.0222 21.9296 66.4025 19.6362 67.0818 18.7215C67.1846 18.8158 67.3065 18.8856 67.4392 18.927C68.6736 19.5864 70.0185 20.0135 71.4071 20.1845C72.3008 20.2481 73.1954 20.0715 73.9979 19.673C75.1124 19.2509 76.1637 18.6779 77.1224 17.9701C77.6522 18.2814 78.104 18.7094 78.4435 19.2216C78.783 19.7338 79.0012 20.3167 79.0815 20.9259C79.2471 21.5861 79.369 22.257 79.4457 22.9332C79.4441 23.2967 80.1741 23.3872 80.0828 22.9317ZM74.701 7.60594C75.5222 7.42345 76.0689 8.15339 76.3426 8.7921C76.6212 9.2885 76.7583 9.85178 76.739 10.4207C75.751 9.99612 74.6869 9.77724 73.6115 9.77737C73.7901 9.13177 73.8875 7.78689 74.701 7.60594ZM67.9536 8.51837C68.4099 7.51469 69.3215 8.1534 69.5952 8.97382C69.6689 9.26595 69.7264 9.56268 69.7693 9.86094C68.9788 9.91595 68.2037 10.1071 67.4783 10.426C67.5119 9.76574 67.6723 9.11808 67.9506 8.51837H67.9536ZM66.4968 14.7214C66.4747 13.9426 66.6322 13.1692 66.9569 12.461C70.3766 12.2279 73.8116 12.3107 77.2167 12.7102C77.4866 15.3938 75.0215 17.6603 72.3387 17.8229C70.8311 17.9217 69.3391 17.4675 68.1423 16.5455C67.5772 16.1007 66.6732 15.4513 66.4907 14.7214H66.4968ZM67.6922 18.3412C67.4184 18.2492 67.4376 18.1112 67.5128 17.9655C67.6431 17.704 67.8279 17.3851 67.9866 17.1305C68.163 17.2516 71.0712 19.1762 71.3933 19.5373C70.096 19.3635 68.8403 18.9584 67.686 18.3412H67.6922ZM70.8934 18.345C71.4991 18.46 72.1194 18.4892 72.7336 18.4324C72.4675 18.6947 72.2275 18.9814 72.0166 19.2897C71.7115 18.8986 71.3266 18.5766 70.8872 18.345H70.8934ZM73.7219 19.0995C73.3951 19.2751 73.0414 19.3951 72.6753 19.4545C73.0527 18.9833 73.4826 18.5565 73.9565 18.1825C74.772 17.919 75.5238 17.4887 76.164 16.9189C76.394 17.06 76.6087 17.2256 76.8019 17.4142C75.8567 18.1169 74.8179 18.6841 73.7158 19.0995H73.7219Z" fill="#4B1010"/>
<path d="M67.9499 13.3979C67.8841 13.3978 67.8189 13.4107 67.758 13.4358C67.6971 13.4609 67.6418 13.4978 67.5952 13.5443C67.5485 13.5908 67.5115 13.646 67.4862 13.7068C67.4609 13.7676 67.4479 13.8328 67.4478 13.8986C67.4477 13.9644 67.4605 14.0297 67.4856 14.0905C67.5107 14.1514 67.5476 14.2067 67.5941 14.2534C67.6406 14.3 67.6958 14.337 67.7566 14.3623C67.8174 14.3876 67.8826 14.4007 67.9484 14.4008C68.0814 14.401 68.209 14.3484 68.3032 14.2545C68.3974 14.1606 68.4504 14.0331 68.4506 13.9001C68.4508 13.7671 68.3982 13.6395 68.3043 13.5454C68.2104 13.4512 68.0829 13.3982 67.9499 13.3979Z" fill="#4B1010"/>
<path d="M73.1493 13.3979C73.0834 13.3979 73.0181 13.4109 72.9572 13.4361C72.8963 13.4614 72.841 13.4983 72.7944 13.5449C72.7478 13.5915 72.7109 13.6468 72.6857 13.7077C72.6604 13.7686 72.6475 13.8339 72.6475 13.8997C72.6475 13.9656 72.6604 14.0309 72.6857 14.0918C72.7109 14.1527 72.7478 14.208 72.7944 14.2546C72.841 14.3012 72.8963 14.3381 72.9572 14.3633C73.0181 14.3886 73.0834 14.4015 73.1493 14.4015C73.2823 14.4015 73.41 14.3487 73.5041 14.2546C73.5982 14.1605 73.6511 14.0328 73.6511 13.8997C73.6511 13.7667 73.5982 13.639 73.5041 13.5449C73.41 13.4508 73.2823 13.3979 73.1493 13.3979Z" fill="#4B1010"/>
<path d="M67.9498 53.6277C67.8839 53.6276 67.8187 53.6405 67.7577 53.6656C67.6968 53.6907 67.6415 53.7276 67.5948 53.7741C67.5481 53.8206 67.5111 53.8759 67.4858 53.9367C67.4605 53.9976 67.4474 54.0628 67.4473 54.1287C67.4472 54.1946 67.46 54.2599 67.4852 54.3208C67.5103 54.3817 67.5472 54.4371 67.5937 54.4838C67.6402 54.5304 67.6955 54.5675 67.7563 54.5928C67.8172 54.6181 67.8824 54.6312 67.9483 54.6313C68.0814 54.6315 68.2091 54.5788 68.3033 54.4848C68.3976 54.3909 68.4507 54.2633 68.4509 54.1302C68.4511 53.9972 68.3984 53.8694 68.3044 53.7752C68.2105 53.681 68.0829 53.6279 67.9498 53.6277Z" fill="#4B1010"/>
<path d="M73.0582 53.6277C72.9923 53.6276 72.9271 53.6405 72.8661 53.6656C72.8052 53.6907 72.7498 53.7276 72.7032 53.7741C72.6565 53.8206 72.6195 53.8759 72.5942 53.9367C72.5688 53.9976 72.5558 54.0628 72.5557 54.1287C72.5556 54.1946 72.5684 54.2599 72.5936 54.3208C72.6187 54.3817 72.6556 54.4371 72.7021 54.4838C72.7486 54.5304 72.8039 54.5675 72.8647 54.5928C72.9256 54.6181 72.9908 54.6312 73.0567 54.6313C73.1898 54.6315 73.3175 54.5788 73.4117 54.4848C73.506 54.3909 73.5591 54.2633 73.5593 54.1302C73.5595 53.9972 73.5068 53.8694 73.4128 53.7752C73.3189 53.681 73.1913 53.6279 73.0582 53.6277Z" fill="#4B1010"/>
<path d="M96.4121 31.5064C96.3084 31.2901 96.1836 31.0846 96.0394 30.893C96.2112 30.6783 96.1268 30.3171 95.8654 30.3171H95.2267C94.9468 30.3171 94.9092 30.712 95.0633 30.8784C94.1693 32.0285 95.0212 32.211 95.3072 31.7218C95.3769 31.5968 95.4567 31.4765 95.5456 31.3638C95.666 31.5217 95.7726 31.6896 95.8646 31.866C95.9558 32.0485 96.1391 32.0485 96.3246 31.9572C96.5102 31.866 96.5033 31.6889 96.4121 31.5064Z" fill="#4B1010"/>
<path d="M93.2183 29.9102C93.0854 29.9102 92.958 29.9629 92.864 30.0569C92.7701 30.1509 92.7173 30.2783 92.7173 30.4112C92.7173 30.5441 92.7701 30.6715 92.864 30.7655C92.958 30.8594 93.0854 30.9122 93.2183 30.9122C93.3512 30.9122 93.4786 30.8594 93.5726 30.7655C93.6666 30.6715 93.7193 30.5441 93.7193 30.4112C93.7193 30.2783 93.6666 30.1509 93.5726 30.0569C93.4786 29.9629 93.3512 29.9102 93.2183 29.9102Z" fill="#4B1010"/>
<path d="M98.4185 29.9102C98.2856 29.9102 98.1582 29.9629 98.0642 30.0569C97.9703 30.1509 97.9175 30.2783 97.9175 30.4112C97.9175 30.5441 97.9703 30.6715 98.0642 30.7655C98.1582 30.8594 98.2856 30.9122 98.4185 30.9122C98.5514 30.9122 98.6788 30.8594 98.7728 30.7655C98.8668 30.6715 98.9195 30.5441 98.9195 30.4112C98.9195 30.2783 98.8668 30.1509 98.7728 30.0569C98.6788 29.9629 98.5514 29.9102 98.4185 29.9102Z" fill="#4B1010"/>
<path d="M83.3671 11.574H81.9992C81.9382 11.5707 81.8794 11.5501 81.8297 11.5145C81.78 11.4789 81.7415 11.4299 81.7188 11.3731C81.6961 11.3164 81.69 11.2543 81.7014 11.1943C81.7128 11.1342 81.7411 11.0787 81.783 11.0342C81.8397 10.9747 81.9171 10.9393 81.9992 10.9353H83.3671C83.4281 10.9386 83.487 10.9592 83.5366 10.9948C83.5863 11.0304 83.6248 11.0794 83.6475 11.1362C83.6703 11.1929 83.6763 11.255 83.6649 11.315C83.6535 11.3751 83.6252 11.4306 83.5833 11.4751C83.5266 11.5346 83.4492 11.57 83.3671 11.574Z" fill="#4B1010"/>
<path d="M88.4121 11.574H85.3742C85.3132 11.5707 85.2544 11.5501 85.2047 11.5145C85.155 11.4789 85.1165 11.4299 85.0938 11.3731C85.0711 11.3164 85.065 11.2543 85.0764 11.1943C85.0878 11.1342 85.1161 11.0787 85.158 11.0342C85.2147 10.9747 85.2921 10.9393 85.3742 10.9353H88.4121C88.4731 10.9386 88.5319 10.9592 88.5816 10.9948C88.6313 11.0304 88.6698 11.0794 88.6925 11.1362C88.7152 11.1929 88.7213 11.255 88.7099 11.315C88.6985 11.3751 88.6702 11.4306 88.6283 11.4751C88.5716 11.5346 88.4942 11.57 88.4121 11.574Z" fill="#4B1010"/>
<path d="M91.7134 19.4653V20.6538C91.7168 20.7361 91.752 20.8138 91.8117 20.8706C91.8713 20.9274 91.9507 20.9588 92.0331 20.9582C92.1153 20.9584 92.1944 20.9269 92.2539 20.8702C92.3133 20.8134 92.3485 20.7359 92.3521 20.6538V19.4653C92.3487 19.3831 92.3136 19.3055 92.2541 19.2487C92.1946 19.1919 92.1154 19.1604 92.0331 19.1609C91.9509 19.1608 91.8718 19.1924 91.8123 19.2491C91.7527 19.3057 91.7173 19.3832 91.7134 19.4653Z" fill="#4B1010"/>
<path d="M91.7134 14.9033V17.6406C91.7168 17.7229 91.752 17.8007 91.8117 17.8575C91.8713 17.9143 91.9507 17.9456 92.0331 17.945C92.1153 17.9453 92.1944 17.9137 92.2539 17.857C92.3133 17.8002 92.3485 17.7227 92.3521 17.6406V14.9033C92.3487 14.8211 92.3136 14.7434 92.2541 14.6867C92.1946 14.6299 92.1154 14.5984 92.0331 14.5989C91.9509 14.5988 91.8718 14.6304 91.8123 14.687C91.7527 14.7437 91.7173 14.8212 91.7134 14.9033Z" fill="#4B1010"/>
<path d="M84.371 37.1167H81.6345C81.5734 37.12 81.5146 37.1406 81.4649 37.1762C81.4152 37.2118 81.3768 37.2608 81.354 37.3176C81.3313 37.3743 81.3253 37.4364 81.3367 37.4964C81.348 37.5565 81.3763 37.612 81.4182 37.6565C81.475 37.716 81.5524 37.7514 81.6345 37.7554H84.371C84.432 37.7521 84.4909 37.7315 84.5405 37.6959C84.5902 37.6603 84.6287 37.6113 84.6514 37.5545C84.6742 37.4978 84.6802 37.4357 84.6688 37.3757C84.6574 37.3156 84.6291 37.2601 84.5872 37.2156C84.5305 37.1561 84.4531 37.1207 84.371 37.1167Z" fill="#4B1010"/>
<path d="M88.4758 37.1167H86.1955C86.1345 37.12 86.0756 37.1406 86.026 37.1762C85.9763 37.2118 85.9378 37.2608 85.9151 37.3176C85.8923 37.3743 85.8863 37.4364 85.8977 37.4964C85.9091 37.5565 85.9374 37.612 85.9793 37.6565C86.036 37.716 86.1134 37.7514 86.1955 37.7554H88.4758C88.5368 37.7521 88.5957 37.7315 88.6454 37.6959C88.6951 37.6603 88.7335 37.6113 88.7563 37.5545C88.779 37.4978 88.785 37.4357 88.7736 37.3757C88.7623 37.3156 88.7339 37.2601 88.692 37.2156C88.6353 37.1561 88.5579 37.1207 88.4758 37.1167Z" fill="#4B1010"/>
<path d="M77.8477 43.6386V40.9021C77.851 40.8198 77.8863 40.742 77.9459 40.6852C78.0056 40.6284 78.085 40.597 78.1674 40.5977C78.2496 40.5974 78.3287 40.6289 78.3881 40.6857C78.4476 40.7424 78.4828 40.82 78.4864 40.9021V43.6386C78.483 43.7208 78.4478 43.7984 78.3883 43.8552C78.3288 43.912 78.2496 43.9435 78.1674 43.943C78.0851 43.9433 78.0059 43.9118 77.9464 43.855C77.8868 43.7983 77.8514 43.7208 77.8477 43.6386Z" fill="#4B1010"/>
<path d="M84.8266 50.344H82.1828C82.1218 50.3408 82.063 50.3201 82.0133 50.2845C81.9636 50.2489 81.9251 50.1999 81.9024 50.1432C81.8796 50.0864 81.8736 50.0244 81.885 49.9643C81.8964 49.9043 81.9247 49.8487 81.9666 49.8042C82.0233 49.7448 82.1007 49.7093 82.1828 49.7053H84.8281C84.9103 49.7091 84.9879 49.7446 85.0445 49.8043C85.1012 49.8641 85.1324 49.9435 85.1317 50.0258C85.1309 50.1077 85.0988 50.1862 85.0421 50.2453C84.9854 50.3044 84.9084 50.3397 84.8266 50.344Z" fill="#4B1010"/>
<path d="M97.3237 24.5737C97.0978 24.5463 96.8686 24.5662 96.6507 24.6321C96.4329 24.6979 96.2311 24.8083 96.0581 24.9562C95.8851 25.1041 95.7447 25.2863 95.6458 25.4913C95.5469 25.6963 95.4916 25.9196 95.4835 26.147C93.8963 26.3533 93.6579 28.3077 96.0455 27.9105C96.6842 27.9105 98.0828 26.7873 98.0828 26.7873C98.0828 26.7873 99.3932 24.5737 97.3237 24.5737Z" fill="#FFE55D"/>
<path d="M99.5115 23.4788C99.2638 23.5689 99.0397 23.7139 98.856 23.9028C98.6722 24.0918 98.5335 24.3198 98.4503 24.5699C98.1749 24.4172 97.8712 24.3221 97.5578 24.2906C97.2445 24.2591 96.9279 24.2918 96.6276 24.3866C96.3273 24.4815 96.0494 24.6365 95.8109 24.8423C95.5725 25.0481 95.3785 25.3003 95.2407 25.5836C95.1423 25.1938 94.9826 24.8222 94.7677 24.4825C94.6028 24.257 94.3811 24.0791 94.1253 23.9669C93.8694 23.8548 93.5884 23.8123 93.3108 23.8438C91.9429 24.1175 91.854 26.4899 91.854 27.584C91.854 27.7665 92.0365 27.8577 92.219 27.8577C92.5839 27.7665 92.679 27.6753 92.679 27.4928C92.6592 26.6869 92.7825 25.884 93.0432 25.1212C93.1352 24.7562 93.4082 24.3913 93.7732 24.3913C94.7239 24.3913 94.842 26.1264 94.8719 26.2943C94.6528 26.3709 94.4558 26.5001 94.2982 26.6705C94.1406 26.841 94.0272 27.0475 93.9679 27.2719C93.9679 28.018 95.0061 28.6628 96.4315 28.0931C96.9023 27.9503 97.36 27.7671 97.7994 27.5457C98.2166 27.2901 98.5256 26.8904 98.6681 26.4224C99.0599 25.3865 98.8797 25.204 99.2401 24.5738C99.6955 23.7526 100.697 24.3913 101.157 24.8475C101.6 25.4513 101.796 26.2018 101.704 26.9453C101.691 27.0069 101.696 27.0709 101.718 27.13C101.74 27.189 101.778 27.2407 101.828 27.2791C101.878 27.3175 101.937 27.341 102 27.3469C102.063 27.3528 102.126 27.3409 102.182 27.3126C102.257 27.2736 102.315 27.2076 102.343 27.1278C102.624 25.2945 101.328 23.2197 99.5115 23.4788ZM94.6887 27.1807C94.8074 27.0835 94.9386 27.0027 95.079 26.9407C95.2191 27.1235 95.4019 27.2692 95.6113 27.3652C95.8208 27.4611 96.0505 27.5044 96.2804 27.4912C94.6082 27.9382 94.3812 27.4905 94.691 27.1807H94.6887ZM97.5954 26.6716C97.0135 26.9016 96.3732 26.933 95.7713 26.7636C95.7227 26.5512 95.7308 26.3298 95.7948 26.1216C95.8589 25.9134 95.9767 25.7257 96.1363 25.5774C96.3903 25.2724 96.7402 25.0625 97.1288 24.9819C97.5174 24.9013 97.9219 24.9547 98.2763 25.1335C98.2318 25.2868 98.1874 25.4402 98.1429 25.5774C98.0547 25.8512 97.9627 26.4899 97.5947 26.6716H97.5954Z" fill="#4B1010"/>
<path d="M102.284 24.6127C102.626 23.6819 100.732 22.7357 100.061 24.7561C99.8721 25.1334 100.608 25.3074 100.608 24.9386C100.608 24.9386 100.902 24.4019 100.978 24.2815C101.149 24.0139 101.988 24.0461 101.662 24.7163C101.42 24.8219 101.213 24.9939 101.064 25.2123C100.965 25.4109 101.015 25.8303 101.521 25.5773C101.675 25.3956 101.893 25.279 102.13 25.2514C102.508 25.2576 102.744 25.3603 102.342 25.7598C102.302 25.782 102.267 25.8121 102.24 25.8484C102.212 25.8846 102.193 25.9262 102.182 25.9704C102.171 26.0147 102.17 26.0606 102.178 26.1054C102.186 26.1502 102.203 26.1929 102.228 26.2307C102.254 26.2686 102.286 26.3008 102.325 26.3253C102.363 26.3499 102.406 26.3662 102.451 26.3733C102.496 26.3804 102.542 26.3782 102.586 26.3667C102.63 26.3552 102.671 26.3347 102.707 26.3065C102.88 26.2099 103.017 26.0587 103.096 25.8764C103.175 25.694 103.191 25.4908 103.142 25.2982C103.094 25.1059 102.984 24.9347 102.829 24.8109C102.674 24.6871 102.483 24.6175 102.284 24.6127Z" fill="#FFE55D"/>
<path d="M107.359 39.9443H88.5673C88.5253 39.9444 88.4838 39.9362 88.445 39.9202C88.4062 39.9042 88.371 39.8808 88.3413 39.8511C88.3116 39.8215 88.288 39.7863 88.2719 39.7476C88.2558 39.7088 88.2476 39.6673 88.2476 39.6253V20.7418C88.2476 20.6999 88.2558 20.6583 88.2719 20.6196C88.288 20.5808 88.3116 20.5456 88.3413 20.516C88.371 20.4864 88.4062 20.4629 88.445 20.4469C88.4838 20.4309 88.5253 20.4228 88.5673 20.4229H107.359C107.401 20.4228 107.442 20.4309 107.481 20.4469C107.52 20.4629 107.555 20.4864 107.585 20.516C107.615 20.5456 107.638 20.5808 107.654 20.6196C107.67 20.6583 107.679 20.6999 107.679 20.7418V39.6253C107.679 39.6673 107.67 39.7088 107.654 39.7476C107.638 39.7863 107.615 39.8215 107.585 39.8511C107.555 39.8808 107.52 39.9042 107.481 39.9202C107.442 39.9362 107.401 39.9444 107.359 39.9443ZM88.8863 39.3056H107.04V21.0616H88.8863V39.3056Z" fill="#4B1010"/>
<path d="M91.8508 15.0863C92.7218 15.0863 93.5572 14.7403 94.1732 14.1243C94.7891 13.5084 95.1351 12.673 95.1351 11.8019C95.1351 10.9309 94.7891 10.0955 94.1732 9.47955C93.5572 8.86361 92.7218 8.51758 91.8508 8.51758C90.9797 8.51758 90.1443 8.86361 89.5284 9.47955C88.9124 10.0955 88.5664 10.9309 88.5664 11.8019C88.5664 12.673 88.9124 13.5084 89.5284 14.1243C90.1443 14.7403 90.9797 15.0863 91.8508 15.0863Z" fill="white"/>
<path d="M91.8514 15.4054C91.3184 15.4058 90.792 15.2878 90.3101 15.0601C89.8283 14.8323 89.4029 14.5005 89.0648 14.0885C88.7267 13.6765 88.4842 13.1947 88.3548 12.6776C88.2254 12.1606 88.2124 11.6213 88.3167 11.0986C88.4498 10.4291 88.7705 9.81118 89.2412 9.31679C89.7119 8.8224 90.3133 8.47187 90.9755 8.306C91.6376 8.14013 92.3333 8.16575 92.9815 8.37987C93.6297 8.59399 94.2037 8.9878 94.6368 9.51547C95.0698 10.0431 95.3441 10.683 95.4277 11.3605C95.5113 12.0379 95.4008 12.7252 95.1089 13.3424C94.8171 13.9595 94.356 14.481 93.7793 14.8462C93.2026 15.2115 92.534 15.4054 91.8514 15.4054ZM91.8514 8.83747C91.4579 8.83104 91.0672 8.90297 90.7018 9.04906C90.3364 9.19515 90.0038 9.41248 89.7233 9.6884C89.4427 9.96432 89.2199 10.2933 89.0678 10.6562C88.9156 11.0191 88.8372 11.4086 88.8371 11.8021C88.837 12.1956 88.9152 12.5851 89.0672 12.9481C89.2191 13.3111 89.4418 13.6402 89.7222 13.9162C90.0026 14.1923 90.3351 14.4098 90.7004 14.5561C91.0657 14.7024 91.4564 14.7745 91.8498 14.7683C92.6281 14.756 93.3703 14.4382 93.9163 13.8836C94.4624 13.329 94.7685 12.5819 94.7687 11.8036C94.7689 11.0253 94.4632 10.2781 93.9174 9.7232C93.3716 9.1683 92.6296 8.85018 91.8514 8.83747Z" fill="#4B1010"/>
<path d="M91.1221 11.4374L91.9433 9.24829L92.8549 11.4374L91.9433 12.5323L91.1221 11.4374Z" fill="#4B1010"/>
<path d="M91.0303 12.0759L91.9427 13.2613L92.8544 12.0759L91.9427 14.3562L91.0303 12.0759Z" fill="#4B1010"/>
<path d="M81.9989 63.6623H63.2067C63.1221 63.6623 63.0409 63.6287 62.9811 63.5689C62.9213 63.5091 62.8877 63.4279 62.8877 63.3433V44.4598C62.8877 44.3752 62.9213 44.2941 62.9811 44.2343C63.0409 44.1745 63.1221 44.1409 63.2067 44.1409H81.9989C82.0835 44.1409 82.1646 44.1745 82.2245 44.2343C82.2843 44.2941 82.3179 44.3752 82.3179 44.4598V63.3433C82.3177 63.4279 82.284 63.5089 82.2242 63.5687C82.1645 63.6284 82.0835 63.6621 81.9989 63.6623ZM63.5264 63.0236H81.6792V44.7796H63.5264V63.0236Z" fill="#4B1010"/>
<path d="M81.9989 23.4331H63.2067C63.1221 23.4331 63.0409 23.3995 62.9811 23.3397C62.9213 23.2799 62.8877 23.1988 62.8877 23.1142V4.32193C62.8877 4.23727 62.9213 4.15606 62.9811 4.09612C63.0409 4.03618 63.122 4.0024 63.2067 4.0022H81.9989C82.0836 4.0024 82.1647 4.03618 82.2245 4.09612C82.2843 4.15606 82.3179 4.23727 82.3179 4.32193V23.1142C82.3177 23.1987 82.284 23.2797 82.2242 23.3395C82.1645 23.3993 82.0835 23.4329 81.9989 23.4331ZM63.5264 22.7944H81.6792V4.6409H63.5264V22.7944Z" fill="#4B1010"/>
<path d="M71.0527 55.2239C70.9422 54.9939 70.8073 54.7769 70.6501 54.576C70.7099 54.4771 70.7513 54.3851 70.7751 54.3406C70.8349 54.2249 70.815 53.9619 70.6938 53.9573C70.3468 53.9468 69.9997 53.942 69.6526 53.9427C69.4455 53.9481 69.4662 54.0891 69.5567 54.3721C69.5874 54.4595 69.6334 54.5408 69.6947 54.6105C69.5757 54.7675 69.47 54.9343 69.3788 55.1089C69.1488 55.5444 69.6694 55.9846 69.8665 55.5897C69.9593 55.4141 70.0658 55.2462 70.1862 55.0882C70.3058 55.2462 70.4124 55.4141 70.5052 55.5897C70.5558 55.657 70.6303 55.7025 70.7134 55.7166C70.7965 55.7308 70.8818 55.7126 70.9519 55.6658C71.022 55.6189 71.0715 55.5471 71.0902 55.4649C71.109 55.3827 71.0955 55.2965 71.0527 55.2239Z" fill="#4B1010"/>
</svg>
