<svg width="154" height="154" viewBox="0 0 154 154" fill="none" xmlns="http://www.w3.org/2000/svg">
<path d="M20.5608 44.4933C19.9628 44.321 8.34536 41.507 8.11947 41.4519C7.51165 41.2902 6.88366 41.2172 6.25496 41.2352C3.62167 41.4059 2.88582 44.6403 6.08497 46.4903C7.63784 47.3877 9.32241 48.0684 10.9166 48.8732C12.3171 49.4326 13.502 50.4254 14.298 51.7063C14.344 51.7797 14.4146 51.8343 14.4973 51.8601C14.5799 51.886 14.6691 51.8815 14.7487 51.8474C14.8283 51.8133 14.893 51.7518 14.9313 51.6741C14.9696 51.5965 14.9788 51.5076 14.9573 51.4238C14.3332 48.3035 7.33155 46.8946 5.49154 44.9152C4.68448 44.0469 4.59719 42.4588 6.00074 42.1839C6.97933 41.9925 6.96784 42.1249 19.2231 45.1227C20.2185 45.3662 21.717 45.5944 22.2653 46.6013C23.201 48.318 20.1596 50.315 20.9751 52.5624C20.9971 52.627 21.043 52.6809 21.1034 52.7129C21.1637 52.745 21.234 52.7528 21.3 52.7349C21.3659 52.7169 21.4226 52.6745 21.4583 52.6163C21.4941 52.5581 21.5064 52.4884 21.4927 52.4215C21.0332 50.5271 24.0096 48.8104 23.2263 46.5255C22.825 45.3555 21.6519 44.8088 20.5608 44.4933Z" fill="#191919"/>
<path d="M64.8535 138.09C64.2639 135.449 60.8495 135.245 56.9237 134.077C55.4652 133.767 54.1426 133.002 53.1465 131.893C52.8639 131.629 52.4849 132.034 52.6005 132.335C53.7269 135.261 60.9422 135.42 63.1015 136.997C64.0158 137.665 64.4691 139.176 63.2049 139.747C62.1137 140.24 60.678 139.955 59.5295 139.888C57.9215 139.795 51.5331 139.441 49.958 139.352C48.8562 139.29 47.278 139.39 46.4166 138.551C44.938 137.106 47.7428 134.472 46.5016 132.349C46.3316 132.057 45.8637 132.244 46.0123 132.575C46.8339 134.405 44.1126 136.655 45.4472 138.791C46.1241 139.875 47.4909 140.137 48.677 140.222C49.1502 140.257 58.6014 140.771 59.0746 140.797C60.4031 140.87 61.9016 141.131 63.1995 140.731C63.7644 140.592 64.2529 140.239 64.5616 139.746C64.8703 139.252 64.975 138.659 64.8535 138.09Z" fill="#191919"/>
<path d="M103.213 38.8715C103.513 37.8269 103.45 36.7114 103.035 35.7072C102.619 34.7031 101.875 33.8696 100.924 33.343C100.287 33.0193 99.586 32.8397 98.8714 32.817C98.1569 32.7942 97.4461 32.9288 96.7894 33.2113C94.1584 34.3599 93.4363 37.7221 94.3391 39.9167C95.8713 43.6296 102.06 43.4275 103.213 38.8715ZM97.7603 37.876C97.6975 37.6665 97.7172 37.4409 97.8154 37.2454C97.9136 37.05 98.0829 36.8995 98.2885 36.8248C98.494 36.7501 98.7204 36.7568 98.9212 36.8437C99.122 36.9305 99.2819 37.0908 99.3683 37.2918C99.4155 37.3992 99.4401 37.5152 99.4407 37.6326C99.4412 37.75 99.4176 37.8662 99.3713 37.9741C99.3251 38.0819 99.2572 38.1792 99.1718 38.2597C99.0864 38.3402 98.9854 38.4024 98.8751 38.4423C98.7647 38.4822 98.6473 38.499 98.5302 38.4916C98.413 38.4843 98.2986 38.4529 98.1941 38.3995C98.0896 38.3462 97.9972 38.2719 97.9225 38.1813C97.8479 38.0907 97.7927 37.9858 97.7603 37.873V37.876Z" fill="#38A1FF"/>
<path d="M136.148 39.2298C136.102 38.4196 136.224 36.964 135.357 36.536C135.09 36.4306 134.805 36.3763 134.518 36.3759C126.899 36.2994 107.442 36.6684 104.089 36.6684C104.221 37.3225 104.244 37.9941 104.155 38.6555C109.692 38.5705 115.221 38.448 120.758 38.3354C120.792 40.108 121.188 44.5821 121.218 44.8899C121.247 45.1725 121.218 45.589 121.491 45.7659C122.18 45.9409 122.89 46.0182 123.601 45.9956C125.367 46.0392 134.97 46.0347 135.91 45.393C136.216 45.1824 136.178 44.6962 136.192 44.3662C136.263 42.6544 136.248 40.9401 136.148 39.2298Z" fill="#38A1FF"/>
<path d="M6.48108 106.05C17.9147 103.728 19.7701 102.621 40.0086 100.201C40.5079 100.142 40.5362 99.3521 40.0086 99.3912C30.804 100.068 16.306 102.46 6.32105 105.456C6.24235 105.478 6.17531 105.529 6.13468 105.6C6.09404 105.671 6.08313 105.754 6.10435 105.833C6.12557 105.912 6.17719 105.979 6.24784 106.019C6.31849 106.06 6.40239 106.071 6.48108 106.05Z" fill="#38A1FF"/>
<path d="M58.4405 98.4301C67.9583 98.0067 76.0672 97.4983 90.1227 97.4983C98.3441 97.4983 98.1504 97.6644 99.0226 97.4508C99.0858 97.431 99.141 97.3916 99.1803 97.3382C99.2195 97.2848 99.2407 97.2203 99.2407 97.1541C99.2407 97.0878 99.2195 97.0233 99.1803 96.97C99.141 96.9166 99.0858 96.8771 99.0226 96.8574C98.4104 96.723 97.7834 96.6692 97.1573 96.6973C81.1079 96.4676 70.0701 97.0136 58.4305 97.8275C58.0454 97.8543 58.0354 98.4485 58.4405 98.4301Z" fill="#38A1FF"/>
<path d="M109.127 97.3375C113.791 97.81 124.471 97.8413 144.906 101.303C146.329 101.584 147.766 101.789 149.21 101.916C149.512 101.934 149.549 101.493 149.276 101.407C143.916 99.7227 117.436 96.6599 109.127 96.7265C109.05 96.7319 108.978 96.7665 108.925 96.8232C108.872 96.8799 108.843 96.9545 108.843 97.032C108.843 97.1095 108.872 97.1841 108.925 97.2408C108.978 97.2975 109.05 97.332 109.127 97.3375Z" fill="#38A1FF"/>
<path d="M99.5769 50.606C98.9697 50.3763 98.7622 50.9406 96.2713 51.8396C95.0914 52.2653 93.8815 52.5823 92.6725 52.9414C92.3807 53.0279 92.4175 53.5234 92.749 53.4973C94.6906 53.2878 96.5824 52.7495 98.3433 51.9054C98.815 51.691 99.6014 51.4804 99.7469 50.9169C99.7632 50.8532 99.7548 50.7856 99.7232 50.7279C99.6916 50.6702 99.6394 50.6266 99.5769 50.606Z" fill="#191919"/>
<path d="M100.058 51.7109C98.3418 52.7257 96.5152 53.5409 94.6138 54.1406C94.1352 54.286 93.263 54.322 93.0134 54.8098C92.9718 54.8876 92.9612 54.9782 92.9838 55.0635C93.0064 55.1488 93.0605 55.2223 93.1352 55.2692C93.4101 55.4767 93.6344 55.4407 95.0188 55.015C96.9828 54.4163 98.8258 53.4759 100.463 52.237C100.764 52.0004 100.375 51.5279 100.058 51.7109Z" fill="#191919"/>
<path d="M99.6814 53.7784C95.6277 55.6551 95.215 55.211 94.5511 55.6804C94.4871 55.7207 94.4378 55.7806 94.4105 55.8511C94.3832 55.9216 94.3793 55.999 94.3994 56.0719C94.4195 56.1449 94.4625 56.2094 94.5221 56.2559C94.5817 56.3025 94.6547 56.3286 94.7303 56.3305C95.1945 56.3267 95.653 56.2274 96.0772 56.0387C97.4476 55.6259 98.7599 55.0403 99.9823 54.296C100.05 54.2555 100.099 54.1901 100.118 54.1139C100.138 54.0376 100.127 53.9567 100.087 53.8886C100.048 53.8205 99.983 53.7708 99.907 53.7501C99.831 53.7295 99.75 53.7396 99.6814 53.7784Z" fill="#191919"/>
<path d="M91.3845 60.1085C91.464 60.0264 91.5085 59.9165 91.5085 59.8022C91.5085 59.6879 91.464 59.578 91.3845 59.4959C91.2903 59.4109 91.2053 59.3259 91.1111 59.2417C91.9534 58.8121 92.8263 58.9944 95.2177 58.3994C96.8439 58.0228 98.4164 57.4438 99.8985 56.6758C99.9532 56.6421 99.9941 56.5899 100.014 56.5286C100.033 56.4674 100.03 56.4011 100.005 56.3419C99.98 56.2827 99.9345 56.2345 99.8769 56.206C99.8192 56.1774 99.7533 56.1705 99.691 56.1865C97.2323 57.1303 94.6671 57.7691 92.053 58.0885C91.4827 58.1346 90.9316 58.3154 90.445 58.6161C89.6724 57.9002 87.5253 55.8756 87.1953 55.5831C88.4472 55.149 88.9794 54.0088 89.9924 52.946C91.6349 51.2254 93.4244 52.0899 94.9374 50.9306C95.3693 50.5999 94.9749 49.8586 94.4948 50.1772C93.6924 50.607 92.8112 50.8699 91.9044 50.9498C88.7987 51.5677 88.7757 54.0999 86.6868 55.1612C86.4432 54.9942 86.163 54.8881 85.8699 54.852C85.5767 54.8159 85.2791 54.8508 85.0023 54.9537C82.4624 55.5671 80.0234 56.5407 77.7594 57.845C78.4531 54.0303 79.1652 46.4857 77.5902 43.0874C78.0894 42.8998 77.7211 40.2849 77.6667 39.6494C77.0878 33.0765 75.2371 24.1888 70.7355 19.3824C69.4442 17.8561 67.6175 16.8821 65.6305 16.6603C65.3204 16.622 65.253 17.1343 65.5539 17.2071C70.0272 18.2791 72.6031 23.1306 74.1621 27.4538C73.6737 27.8179 73.2557 28.2678 72.9285 28.7816C71.8565 30.0067 71.9828 31.882 71.8925 33.0573C70.8383 32.98 69.7793 32.9956 68.7278 33.104C64.9243 33.3595 61.1442 33.8884 57.4166 34.6868C53.5176 35.5214 46.9057 37.327 43.5909 39.5368C40.6728 41.4825 39.9009 44.1579 40.3795 45.8157C38.7125 46.0982 37.8082 47.4826 36.7163 48.6695C35.7205 49.2786 34.8245 50.0377 34.0601 50.9199C29.1945 56.0833 24.8419 61.7071 21.0636 67.712C22.0233 63.3699 22.5096 58.9366 22.5139 54.4897C22.5139 53.7829 22.3309 53.5325 21.5345 53.482C20.1784 53.3955 18.8124 53.3174 17.4563 53.237C16.614 53.1872 14.444 52.6466 13.7265 53.0295C12.2142 53.8373 10.97 58.172 10.3643 59.7164C8.48628 64.3946 7.42142 69.3592 7.21565 74.396C7.10769 78.9673 7.86651 84.2362 11.7456 86.6474C15.4103 88.9262 20.278 87.6543 23.9327 85.3763C28.4994 82.5301 38.1352 71.1241 39.6605 71.193C42.2701 71.3101 43.1874 111.195 44.9256 128.392C45.071 129.834 45.4554 130.341 47.2801 130.511C53.9273 131.131 53.912 131.249 54.2397 130.86C54.3561 130.69 54.4214 130.49 54.4281 130.285C57.3229 108.358 58.1144 86.2045 56.7918 64.127C56.7344 63.1377 56.8684 62.0266 56.9051 60.9439C57.0181 60.5867 57.2158 60.2622 57.4814 59.9981C57.7471 59.7339 58.0727 59.538 58.4305 59.427C59.2781 60.1338 60.4841 60.0687 61.5768 59.9171C62.4545 59.7944 63.3277 59.6412 64.1948 59.4576C65.0176 59.4028 65.8094 59.1225 66.4835 58.6475C66.5091 58.6208 66.5283 58.5886 66.5394 58.5533C66.7339 61.9041 67.3924 65.859 69.4491 68.5275C74.6 75.1992 85.7266 66.4279 91.3845 60.1085ZM76.9561 42.0376C76.3807 41.2897 75.6167 40.7083 74.7425 40.3531C73.7835 39.9871 72.9227 39.4033 72.2279 38.6478C71.7448 38.0335 71.4127 37.3143 71.2585 36.5482C71.5252 36.2517 71.7529 35.9224 71.9361 35.5681C72.7954 35.7306 73.6184 36.0465 74.3657 36.5008C74.597 36.6838 74.8429 36.8477 75.1008 36.9908C76.0962 37.4051 75.9515 35.9395 76.1728 35.3614C76.5419 37.2879 76.8512 40.8799 76.9561 42.0353V42.0376ZM40.0372 55.0226C38.9308 54.2661 38.1229 53.3021 35.4697 52.9322C35.1489 52.8878 35.1213 52.4031 35.4697 52.4046C36.4047 52.4193 37.3272 52.6211 38.183 52.998C39.0387 53.3749 39.8103 53.9193 40.4522 54.5992C40.6414 54.8503 40.283 55.1911 40.0372 55.0226ZM42.7402 48.7598C41.3066 48.1996 39.7616 47.9835 38.2294 48.1289C39.9545 46.2315 41.1713 46.3165 43.9179 47.4321C43.4529 47.8048 43.0547 48.2538 42.7402 48.7598ZM43.4937 49.0141C43.8581 48.5425 44.3048 48.1406 44.8122 47.828C47.6061 49.0627 50.2744 50.5638 52.7802 52.3105C52.2845 52.5418 51.8296 52.8521 51.4334 53.2293C49.0085 51.4415 46.3331 50.0211 43.4937 49.0141ZM52.1462 60.5886C51.7239 60.3222 51.335 60.0063 50.9877 59.6475C49.7322 58.6945 48.2656 58.0578 46.712 57.7914C46.6573 57.7771 46.6099 57.7431 46.5788 57.696C46.5476 57.6489 46.5349 57.592 46.543 57.5361C46.5511 57.4802 46.5796 57.4293 46.6229 57.3931C46.6662 57.3568 46.7214 57.3378 46.7778 57.3397C49.2335 57.319 52.196 59.4186 52.4946 60.3344C52.5651 60.5411 52.3185 60.6644 52.1493 60.5886H52.1462ZM56.8454 59.2708C56.4488 56.7577 54.242 55.126 52.1179 53.6857C52.2404 53.5915 52.3606 53.4943 52.4847 53.4123C52.8555 53.2571 53.2173 53.0809 53.5682 52.8848C55.5085 54.3572 57.7482 56.1903 57.9098 58.5732C57.5142 58.7349 57.1538 58.9718 56.8485 59.2708H56.8454ZM78.0013 69.2343C72.8841 71.2948 68.9483 69.7703 67.6412 61.1445C67.1397 57.8297 67.3541 54.4828 67.3311 51.1519C67.3275 51.0844 67.2981 51.0209 67.249 50.9744C67.2 50.9279 67.1349 50.902 67.0673 50.902C66.9997 50.902 66.9347 50.9279 66.8856 50.9744C66.8366 51.0209 66.8072 51.0844 66.8035 51.1519C66.5107 53.5544 66.4224 55.9774 66.5394 58.3948C66.5268 58.3618 66.5062 58.3324 66.4795 58.3093C66.4528 58.2862 66.4207 58.2701 66.3862 58.2624C65.5554 58.0564 65.4444 58.4155 62.063 59.0066C61.0218 59.2733 59.9339 59.3024 58.8799 59.0916C58.8986 59.0403 58.9082 58.9862 58.9083 58.9316C58.9358 55.3327 55.1394 52.6979 51.9403 50.606C50.1793 49.4551 48.3417 48.4261 46.4401 47.5263C44.7839 46.7422 42.8612 45.7276 40.9775 45.7651C40.7202 40.8646 45.7487 39.0023 50.4724 37.4395C61.1824 33.8958 69.8235 34.0038 71.8144 33.7381C71.7022 34.4285 71.4796 35.0963 71.1551 35.7159C71.139 35.6416 71.0966 35.5755 71.0357 35.5301C70.9747 35.4846 70.8993 35.4627 70.8235 35.4685C70.7477 35.4743 70.6765 35.5074 70.6232 35.5616C70.5698 35.6158 70.5379 35.6875 70.5333 35.7634C70.4752 36.6111 70.631 37.4598 70.9865 38.2315C71.342 39.0033 71.8858 39.6733 72.5678 40.18C74.0135 41.2735 75.7188 41.252 76.7402 43.458C77.5243 45.1518 77.5304 47.1963 77.5687 49.024C77.731 56.7317 75.8489 60.8459 75.6475 62.7548C75.6108 63.104 76.1185 63.1974 76.2785 62.9248C76.8896 61.6294 77.3115 60.2528 77.5312 58.8374C77.5874 58.8572 77.6476 58.8632 77.7066 58.8549C77.7656 58.8467 77.8218 58.8244 77.8704 58.7899C80.0093 57.5326 82.3094 56.5725 84.7075 55.9361C85.3484 55.7677 85.8469 55.6069 86.392 56.0778C86.4372 56.1168 90.3983 59.7861 90.4419 59.8259C86.9487 63.6783 82.8782 67.271 78.0013 69.2343Z" fill="#191919"/>
<path d="M117.867 130.043C114.656 131.114 111.764 132.973 109.457 135.449C110.91 130.462 112.723 125.586 114.881 120.861C115.061 120.466 114.648 119.856 114.204 120.183C109.455 123.661 105.885 128.51 103.974 134.077C103.459 131.202 103.148 128.294 103.042 125.375C103.04 125.267 103.002 125.164 102.936 125.079C102.87 124.994 102.779 124.933 102.675 124.904C102.571 124.876 102.461 124.881 102.361 124.92C102.261 124.959 102.176 125.03 102.119 125.121C100.406 128.308 99.536 131.881 99.5917 135.499C96.5354 131.167 92.5731 127.552 87.9796 124.904C87.8815 124.849 87.7669 124.832 87.6567 124.854C87.5466 124.877 87.4483 124.939 87.3798 125.028C87.3113 125.117 87.2771 125.228 87.2835 125.34C87.2898 125.452 87.3364 125.558 87.4145 125.639C91.1981 129.596 94.0969 134.312 95.9186 139.474C96.0495 139.832 96.6138 139.691 96.5028 139.314C95.2247 135.037 93.1296 131.049 90.3335 127.569C94.0789 130.286 97.2803 133.682 99.7709 137.581C100.016 137.964 100.766 137.854 100.713 137.327C100.351 133.935 100.843 130.506 102.144 127.353C102.35 130.354 102.762 133.337 103.377 136.281C103.408 136.384 103.472 136.475 103.558 136.539C103.645 136.604 103.75 136.639 103.858 136.639C103.966 136.639 104.071 136.604 104.157 136.539C104.244 136.475 104.307 136.384 104.338 136.281C105.776 130.806 108.86 125.905 113.172 122.239C111.019 127.153 109.246 132.226 107.87 137.411C107.845 137.526 107.861 137.646 107.916 137.75C107.97 137.854 108.059 137.936 108.168 137.982C108.276 138.027 108.397 138.033 108.509 137.999C108.622 137.965 108.719 137.892 108.783 137.794C110.802 135.076 113.501 132.938 116.61 131.596C114.802 134.064 112.818 136.891 113.427 139.969C113.503 140.346 114.065 140.242 114.077 139.884C114.185 136.334 116.519 133.591 118.437 130.787C118.482 130.7 118.501 130.601 118.492 130.504C118.484 130.406 118.447 130.312 118.388 130.234C118.328 130.157 118.247 130.097 118.155 130.063C118.063 130.03 117.963 130.023 117.867 130.043Z" fill="#38A1FF"/>
<path d="M144.605 33.663C140.608 11.3846 124.612 13.3716 101.329 13.9321C90.9601 14.1822 80.6002 14.5873 70.2498 15.1473C67.896 15.2782 65.438 15.2897 63.196 16.0799C61.3598 16.7514 59.728 17.8855 58.4586 19.3725C54.777 23.5939 54.0419 29.3766 53.8444 34.8935C53.8367 35.0918 54.1713 35.1477 54.202 34.941C54.9187 30.0504 55.3965 21.6643 61.4824 17.8097C63.4163 16.7145 65.5977 16.131 67.8202 16.1144C77.8602 15.4765 87.9278 15.1488 97.9763 14.8808C124.827 14.1626 138.54 12.6419 143.192 31.1078C146.026 42.347 144.437 58.0656 144.36 62.4409C144.284 62.4409 88.7594 63.2663 88.6813 63.2701C88.6137 63.2752 88.5506 63.3057 88.5045 63.3554C88.4584 63.4051 88.4328 63.4704 88.4328 63.5381C88.4328 63.6059 88.4584 63.6712 88.5045 63.7209C88.5506 63.7706 88.6137 63.801 88.6813 63.8061C91.7564 63.9868 94.2986 63.9286 99.389 63.9286C99.3615 77.432 100.215 87.0142 100.312 125.089C100.312 125.173 100.34 125.255 100.393 125.321C100.445 125.387 100.519 125.434 100.601 125.452C100.684 125.471 100.77 125.461 100.846 125.424C100.922 125.387 100.983 125.325 101.018 125.249C101.192 124.995 101.293 124.699 101.311 124.392C101.311 124.3 100.94 76.7743 100.077 63.9095C100.821 63.9095 101.565 63.9003 102.297 63.9003C102.278 73.0261 102.68 82.1618 102.853 91.2876C103.466 124.239 102.794 123.438 103.653 124.458C103.865 124.702 103.988 125.011 104.002 125.334C104.036 126.426 104.199 122.706 104.19 120.446C104.169 115.428 103.759 75.6609 102.957 63.8812L106.271 63.8528C106.244 77.4535 107.114 87.4797 107.195 124.976C107.195 125.039 107.215 125.101 107.252 125.152C107.289 125.204 107.341 125.243 107.401 125.263C107.461 125.284 107.526 125.285 107.587 125.268C107.647 125.25 107.701 125.214 107.741 125.164C107.741 125.154 107.75 125.154 107.75 125.145C108.033 124.786 108.185 124.341 108.183 123.883C108.183 123.798 107.8 76.5844 106.95 63.8345C107.522 63.8276 141.779 63.3306 143.812 63.1185C144.748 63.0205 144.904 63.0106 144.932 62.7893C145.837 55.7799 146.273 42.9611 144.605 33.663Z" fill="#191919"/>
</svg>
