<svg width="155" height="155" viewBox="0 0 155 155" fill="none" xmlns="http://www.w3.org/2000/svg">
<path d="M10.23 142.796C13.2316 145.045 25.3876 145.722 58.184 145.652C51.5726 144.472 52.8209 142.873 52.3623 129.081C51.1271 129.6 44.9758 131.947 44.9758 131.947C44.7349 139.101 45.3216 142.892 41.1929 142.26C38.7557 141.891 28.8038 129.389 26.0353 125.515C16.2718 111.851 18.1369 110.96 18.6341 110.351C19.2131 109.644 26.8637 104.16 32.6476 100.594C35.2724 98.3901 44.0517 86.031 44.0517 86.031C45.2174 84.1952 44.9842 81.2693 41.7727 78.2006C40.8926 79.0351 39.1919 80.3892 38.0671 81.382C39.0452 85.452 37.6039 87.3851 35.2878 88.3856C33.5199 89.1453 32.8946 88.7717 31.6471 87.5133C21.1532 94.4112 13.3505 84.0076 13.9774 75.5302C14.4213 69.5271 22.1985 61.1099 22.2594 61.0651C25.6961 57.7467 29.3224 54.6305 33.12 51.7323C40.282 46.5266 54.0993 51.1077 55.6719 51.4165C56.8454 45.7106 61.5013 44.321 62.4115 42.2528C64.5847 37.312 68.8725 32.226 74.83 30.0142C80.2341 28.007 87.7457 27.6526 96.1714 30.6534C101.971 32.7224 110.516 38.4468 112.63 43.329C113.653 45.6906 114.954 49.6849 117.262 52.1299C119.699 54.7176 126.432 66.2792 121.407 69.1604C119.721 70.123 118.383 68.2123 117.352 68.9573C115.088 70.604 119.752 76.7129 116.562 78.9316C114.877 80.1051 112.997 78.0137 111.913 78.8544C110.83 79.6952 112.994 85.2034 106.723 86.0164C107.22 86.7227 108.267 88.5586 108.653 89.2125C103.974 92.4773 99.6208 96.0586 90.088 102.437C89.5924 104.239 88.692 105.903 87.4555 107.304C86.9073 128.35 87.4477 120.429 84.2964 134.512C90.728 139.093 93.2625 141.35 88.8922 145.457C111.414 144.953 135.477 145.705 142.308 145.118C152.523 144.246 151.71 134.798 149.988 67.7144C149.56 50.7518 107.638 25.8453 95.9707 15.8864C84.3033 5.92755 71.4834 8.17718 58.0111 19.8816C46.9536 29.4985 5.53622 56.7333 5.06221 69.5363C3.65561 107.162 3.87332 138.034 10.23 142.796Z" fill="#3D9CFB"/>
<path d="M128.404 126.462C135.55 131.63 138.04 133.691 140.274 135.34C141.561 136.296 143.742 135.544 138.755 131.602C118.67 116.024 97.9768 104.176 90.7555 103.145C96.6907 98.1505 105.258 93.2235 114.955 86.3781C123.229 80.541 128.435 74.8922 137.86 73.2293C139.095 73.0116 139.492 71.5672 138.251 71.334C128.369 71.72 119.709 81.5338 108.733 87.9731C108.441 87.4914 108.116 86.988 107.764 86.4762C114.052 85.7466 110.757 78.3701 113.405 79.6532C123.109 82.5042 114.736 68.2723 118.407 69.5515C119.957 70.6416 123.237 69.7615 123.59 66.7228C124.545 58.4932 116.82 52.3172 114.428 46.1195C112.502 41.5986 110.63 36.6547 97.8186 30.9619C81.5145 23.7166 69.7383 27.6292 62.7123 39.7404C60.651 44.1331 56.5741 45.0734 55.0401 50.2791C35.76 44.0351 28.7417 52.4677 16.7856 67.1667C16.0121 66.515 15.0981 66.0515 14.1152 65.8126C13.8673 65.7802 13.6165 65.8446 13.4148 65.9924C13.2132 66.1403 13.0764 66.3602 13.0328 66.6064C12.9892 66.8526 13.0423 67.1061 13.1809 67.3141C13.3196 67.5222 13.5331 67.6688 13.7771 67.7234C14.5041 67.9272 15.1738 68.2972 15.7333 68.8042C7.48831 78.9669 20.0504 96.1772 31.7139 88.5954C35.5353 91.915 40.5302 87.4744 39.0858 82.0055C40.1164 81.0884 40.9811 80.3133 41.7786 79.5304C44.8249 82.5173 43.9155 83.6151 42.7567 85.5035C40.9216 88.4896 33.8053 97.9598 31.4205 100.006C24.6354 104.459 21.1675 106.355 17.3237 110.342C16.8952 110.876 15.6013 111.929 22.8451 122.626C20.0835 124.728 17.7541 127.343 15.985 130.329C15.1358 131.908 16.6026 133.254 17.8278 131.344C19.4899 128.741 22.0738 125.815 24.1583 124.536C31.0708 134.172 45.9875 156.205 45.6973 132.924C47.4798 132.187 49.8947 131.209 51.4063 130.554C52.1211 143.987 47.3594 146.216 67.0078 145.87C72.489 145.892 82.3306 145.614 88.7012 145.531C90.4389 145.508 91.6194 143.929 91.8903 142.366C92.3265 139.793 91.2133 138.665 85.3684 134.422C87.6559 124.087 88.5336 124.553 88.4155 107.117C88.8982 106.44 89.2807 105.698 89.5511 104.912C93.3579 104.658 108.666 112.187 128.404 126.462ZM90.906 100.623C92.237 95.9742 93.659 90.7763 96.3672 85.3753C98.2832 84.4355 100.036 83.1937 101.557 81.6975C103.598 84.0181 105.464 86.4871 107.139 89.084C100.587 93.6451 94.4711 97.993 90.906 100.626V100.623ZM61.6068 51.2796C64.8037 47.9924 67.7057 49.6167 70.2533 47.5338C83.1543 36.9419 86.3736 45.2695 95.5358 53.8643C92.9781 54.1345 91.9173 56.3162 93.5571 56.5424C94.6032 56.6921 95.0548 55.135 98.3188 56.0908C100.522 57.745 102.812 59.2794 105.18 60.6873C112.252 68.8945 98.6377 87.7075 87.022 84.8264C73.0788 81.367 59.9068 73.0394 58.9588 61.2995C58.5226 55.951 59.5834 53.3633 61.6068 51.2796ZM68.7 79.0611C73.7327 82.6597 79.4494 85.1891 85.4973 86.4932C84.73 88.3282 83.8043 90.4945 83.0524 92.3149C79.2912 90.7184 69.2049 85.9273 66.3531 83.934C67.1127 82.2988 67.8951 80.6744 68.7 79.0611ZM62.7972 87.0899C60.6881 92.0702 59.2089 95.196 57.0118 95.372C55.643 95.477 52.5666 94.7328 51.9644 92.0624C51.5012 89.9935 60.1114 77.612 62.0669 73.0386C63.5936 74.809 65.2892 76.4263 67.1297 77.8675C65.375 81.3385 63.8981 84.4883 62.7972 87.0899ZM37.7024 80.6661C37.2963 80.9749 36.8902 81.4257 37.0786 81.9746C38.4018 85.7961 35.3477 89.7225 32.76 86.7966C30.8948 85.217 27.5698 90.811 22.0036 87.7068C22.6212 86.2778 25.6814 84.811 24.4408 83.2384C22.6876 82.4664 21.4918 85.6833 20.3407 86.6916C18.9575 85.6621 17.7834 84.3782 16.8813 82.9087C17.7159 81.9314 18.9349 80.5472 19.7316 79.6069C19.8973 79.4101 19.9785 79.1557 19.9574 78.8993C19.9363 78.6428 19.8146 78.4051 19.6189 78.2381C18.0092 77.3426 17.0612 80.2083 15.9032 81.0737C12.8638 73.596 18.1366 68.104 24.6516 60.7699C29.1423 63.1168 38.7932 73.4818 40.6514 77.9579C39.7914 78.7955 38.8519 79.6385 37.7008 80.6692L37.7024 80.6661ZM26.079 59.3509C28.2084 57.2983 30.4537 55.3695 32.804 53.574C37.1897 58.5535 44.4937 66.414 46.3064 72.1917C46.9387 73.515 43.6213 75.3963 42.1468 76.5922C39.637 71.5726 30.9759 62.2846 26.079 59.3509ZM43.2075 78.2242C45.3136 76.4563 49.0817 74.7942 48.1569 71.6343C46.2384 65.4969 38.865 57.5151 34.3874 52.4376C40.6985 47.9546 49.9966 50.3239 54.6749 52.1975C53.4791 58.8167 57.8873 65.8729 60.7229 71.3263C58.9851 75.3655 54.3592 82.6478 52.1026 86.8599C49.7911 86.0985 47.6482 84.8983 45.7915 83.3249C45.9227 81.8951 45.3136 80.3079 43.2075 78.2242ZM42.1916 141.103C36.6254 141.599 19.6397 115.054 18.9403 111.458C19.3987 110.938 19.8968 110.455 20.4302 110.013C26.7337 118.099 38.2428 125.81 43.7642 132.556C43.7186 140.035 43.3874 140.524 42.1916 141.103ZM89.9788 142.043C89.3095 144.548 85.0974 144.022 79.1244 144.059C69.7831 144.127 55.5944 145.067 54.0149 142.637C53.683 142.058 53.5094 141.402 53.5115 140.734C62.2746 139.974 76.5822 135.838 83.9464 135.794C90.0035 140.185 90.327 140.757 89.9804 142.043H89.9788ZM83.5171 133.837C75.9214 134.07 62.2568 137.965 53.415 138.794C53.317 135.845 53.3703 132.52 53.3378 129.699C58.2493 127.383 59.7694 125.795 64.3652 118.514C66.2682 115.497 67.735 113.503 66.99 113C65.6436 112.089 64.4632 114.73 62.7633 117.415C59.4629 122.636 58.6261 124.622 55.2455 126.634C53.1857 127.861 50.1819 129.098 45.1005 131.083C39.3614 124.306 28.2885 116.836 21.9403 108.795C24.2949 106.967 27.9882 104.499 32.6295 101.55C35.8789 98.6168 43.0933 88.9736 45.1538 85.2881C46.9651 86.728 49.011 87.845 51.2017 88.5899C48.1708 94.2318 54.1276 97.9104 58.8222 97.1199C60.8001 96.7887 63.5839 90.117 65.5471 85.7165C69.12 88.0704 78.7261 92.5766 82.3213 94.1036C78.2219 103.093 78.1525 107.704 86.4901 108.2C86.6029 124.316 85.5336 124.678 83.5187 133.837H83.5171ZM87.0074 105.508C85.759 107.102 81.4937 106.222 80.9973 103.371C80.5163 100.618 85.6541 91.3128 87.459 86.8221C89.5609 87.1228 91.7028 86.9688 93.7401 86.3704C89.2323 96.3023 89.0053 102.945 87.0089 105.508H87.0074Z" fill="#001434"/>
<path d="M78.3439 46.2175C79.2628 46.036 80.212 46.0793 81.1105 46.3439C82.009 46.6084 82.8302 47.0863 83.504 47.7368C84.3386 48.6779 85.6332 47.4744 84.933 46.4244C83.2346 43.8892 77.4446 43.0924 77.213 45.4316C77.1628 45.9697 77.8097 46.3078 78.3439 46.2175Z" fill="#001434"/>
<path d="M75.3499 61.8411C83.6166 63.6469 89.2808 50.3243 79.0555 48.0531C69.2263 45.8714 65.7816 59.908 75.3499 61.8411ZM71.679 54.0029C74.8682 54.5372 79.0208 55.1687 82.518 55.4921C81.5028 62.0141 70.4152 61.127 71.679 54.0029Z" fill="#001434"/>
<path d="M81.4429 64.8652C81.4529 65.1159 81.5595 65.353 81.7404 65.5268C81.9213 65.7006 82.1625 65.7977 82.4133 65.7977C82.6642 65.7977 82.9054 65.7006 83.0862 65.5268C83.2671 65.353 83.3738 65.1159 83.3838 64.8652C83.3586 64.5616 83.4088 64.2565 83.5301 63.9771C83.6513 63.6976 83.8397 63.4524 84.0786 63.2633C85.1393 62.5106 86.3351 63.4285 86.9589 62.2705C87.5534 61.1642 84.612 60.2996 82.5816 62.0744C82.1832 62.4152 81.8719 62.8463 81.6738 63.3317C81.4758 63.8172 81.3966 64.343 81.4429 64.8652Z" fill="#001434"/>
<path d="M96.0284 73.2375C104.896 73.9323 107.749 60.6136 97.9314 58.9824C87.8228 57.3025 85.7731 72.4338 96.0284 73.2375ZM91.2219 64.7902C94.3586 65.3167 98.549 65.9714 102.137 66.3172C101.625 73.6891 89.4239 72.3875 91.2219 64.7902Z" fill="#001434"/>
<path d="M79.0277 68.1676C78.7775 68.1375 78.5253 68.2059 78.3246 68.3584C78.1239 68.5109 77.9904 68.7355 77.9524 68.9847C77.9144 69.2339 77.9748 69.4881 78.1209 69.6935C78.267 69.8989 78.4873 70.0394 78.7351 70.0853C83.256 70.7546 82.9395 71.9736 83.256 72.6507C83.6242 73.4404 85.369 73.4782 85.1088 71.9559C84.8486 70.4335 83.7593 68.5135 79.0277 68.1676Z" fill="#001434"/>
<path d="M85.7983 99.5347C82.8569 98.5117 81.0968 102.777 84.6696 103.781C87.7237 104.65 88.5821 100.505 85.7983 99.5347Z" fill="#001434"/>
<path d="M57.702 88.7253C57.4522 88.5564 57.1702 88.4411 56.8737 88.3865C56.5771 88.3319 56.2725 88.3392 55.979 88.408C55.6854 88.4768 55.4093 88.6055 55.1679 88.7861C54.9265 88.9668 54.725 89.1954 54.5762 89.4576C54.4274 89.7198 54.3345 90.01 54.3032 90.3098C54.2719 90.6097 54.303 90.9128 54.3945 91.2001C54.486 91.4874 54.6359 91.7526 54.8348 91.9792C55.0337 92.2057 55.2774 92.3887 55.5504 92.5166C55.8002 92.6854 56.0822 92.8008 56.3787 92.8554C56.6752 92.91 56.9798 92.9026 57.2734 92.8339C57.5669 92.7651 57.8431 92.6363 58.0845 92.4557C58.3259 92.2751 58.5273 92.0465 58.6761 91.7843C58.8249 91.5221 58.9179 91.2319 58.9492 90.932C58.9805 90.6322 58.9494 90.3291 58.8579 90.0418C58.7664 89.7545 58.6165 89.4892 58.4176 89.2627C58.2186 89.0361 57.975 88.8531 57.702 88.7253Z" fill="#001434"/>
</svg>
