<svg width="154" height="154" viewBox="0 0 154 154" fill="none" xmlns="http://www.w3.org/2000/svg">
<path d="M78.1001 121.827C78.1223 129.169 78.215 137.558 78.4462 146.967C78.4707 147.981 79.78 148.014 79.9041 147.324C80.0389 146.573 80.0412 144.603 80.0366 123.83C79.4431 123.225 78.8 122.565 78.1009 121.826L78.1001 121.827Z" fill="#191919"/>
<path d="M125.052 45.5518C124.439 41.6973 123.04 38.2348 120.044 35.4813C114.836 30.6926 113.941 31.6559 75.505 31.5035C40.0417 31.3626 33.9551 26.6337 34.7568 76.4677C34.7675 77.1453 34.6335 77.444 33.8563 77.4126C27.8425 77.1714 27.4719 77.8735 27.612 83.1392C27.6687 85.2572 27.5807 84.6867 77.6957 84.3399C78.6743 84.333 78.1069 95.6033 78.0931 117.283C78.724 117.999 79.3787 118.715 80.0334 119.417V85.2962C80.0334 84.3636 80.0273 84.3605 80.9974 84.3567C87.5281 84.333 87.3742 83.9953 87.3757 85.333C87.3803 93.2557 87.6429 113.999 87.8711 128.379C88.5403 129.408 89.0089 130.207 89.319 130.483C89.4729 130.374 89.6766 130.133 89.9178 129.79C89.8298 122.319 89.6636 111.597 89.4339 96.2143C89.2486 83.8215 88.8091 84.2518 89.8451 84.3169C90.3872 84.3506 122.103 84.3246 125.07 83.8919C125.893 83.7717 126.073 83.5887 126.159 82.7426C126.639 78.0519 126.429 54.2126 125.05 45.5518H125.052ZM29.7644 82.7472C29.1166 82.7633 28.903 82.6446 29.1664 79.9731C29.3418 78.199 31.0654 79.0121 68.1405 78.7656C68.8021 78.7617 68.5081 78.8965 68.6137 82.2579C68.6375 83.0037 37.2759 82.5619 29.7644 82.7472ZM68.5938 76.8368C68.603 77.6032 68.5984 77.2227 37.0593 77.3414C35.913 77.3452 36.6902 77.153 36.3318 67.4187C36.0684 60.2509 36.8893 49.6605 39.1741 42.1996C41.3479 35.1008 49.1734 33.1115 52.1604 33.2891C71.2814 34.4292 68.3771 59.2287 68.5931 76.836L68.5938 76.8368ZM124.454 80.8383C124.421 82.6653 124.596 82.2924 122.917 82.3598C118.916 82.5198 121.801 82.4287 80.4982 82.601C70.5226 82.6431 70.5801 82.9639 70.5602 82.0137C70.4966 79.065 71.0739 72.0971 70.5946 61.548C70.0326 49.1866 69.4698 39.4507 59.1719 33.0479C117.7 33.0479 115.834 33.5747 119.412 37.6054C122.953 41.5954 125.073 46.4209 124.455 80.8376L124.454 80.8383Z" fill="#191919"/>
<path d="M89.348 134.453C88.8442 135.026 88.3932 135.241 87.9858 135.124C88.0724 139.929 88.1436 143.086 88.1803 143.24C88.3243 143.841 87.9499 146.806 89.0463 146.888C89.8273 146.946 90.0816 147.155 89.9621 133.842C89.7492 134.039 89.5777 134.192 89.348 134.453Z" fill="#191919"/>
<path d="M95.9541 51.172C114.516 51.172 112.918 50.7279 113.022 52.7325C113.188 55.9017 112.917 58.917 112.904 60.803C112.9 61.3198 112.714 61.6008 112.182 61.5985C99.0996 61.5572 99.1103 62.1874 99.0774 60.306C98.9893 55.1988 99.4449 55.185 98.5107 55.1697C75.7901 54.7823 75.9808 55.0296 75.8338 53.2991C75.6806 51.4989 75.9241 51.1781 77.7136 51.1712H95.9533L95.9541 51.172Z" fill="#191919"/>
<path d="M94.016 81.0014C73.8812 80.7572 74.7066 80.8827 74.699 80.0435C74.6913 79.1913 74.6882 79.4493 104.366 79.5252C122.52 79.5711 122.485 79.1484 122.505 80.2196C122.527 81.4203 122.508 80.8804 98.6501 80.8797C98.4318 80.8797 94.016 81.0014 94.016 81.0014Z" fill="#191919"/>
<path d="M43.7625 108.071C43.8085 108.959 42.6875 109.076 42.6844 108.048C42.6316 85.6463 42.8337 85.6517 43.3307 85.6655C43.7419 85.6769 43.7296 86.1234 43.7365 86.4365C44.0673 104.746 43.6638 106.14 43.7625 108.071Z" fill="#38A1FF"/>
<path d="M42.9303 113.605C40.3055 113.574 40.294 109.346 43.062 109.398C45.8017 109.45 45.853 113.64 42.9296 113.605H42.9303Z" fill="#38A1FF"/>
<path d="M47.6439 108.609C48.31 108.542 49.2258 108.976 49.1094 109.352C48.9578 109.839 48.8131 109.373 46.1875 110.219C45.2074 110.535 44.5742 108.917 47.6439 108.609Z" fill="#38A1FF"/>
<path d="M38.5935 110.383C37.0575 110.403 36.654 110.685 36.5391 110.241C36.3285 109.427 40.4181 108.705 40.3531 109.939C40.3232 110.514 39.814 110.367 38.5935 110.383Z" fill="#38A1FF"/>
<path d="M37.506 113.02C35.9822 112.914 38.2924 110.973 39.6599 111.237C40.2817 111.356 40.2725 112.324 39.8483 112.407C39.0274 112.567 38.2303 112.804 37.506 113.02Z" fill="#38A1FF"/>
<path d="M47.5987 112.064C46.7963 112.074 46.1332 112.184 46.0321 111.584C45.8683 110.61 48.5436 110.725 49.2672 111.454C49.8591 112.05 48.5206 112.052 47.5987 112.064Z" fill="#38A1FF"/>
<path d="M46.256 112.769C47.8448 112.73 49.2621 115.365 48.1419 114.839C45.965 113.816 45.5064 113.716 45.6871 113.126C45.7736 112.844 46.0148 112.754 46.256 112.769Z" fill="#38A1FF"/>
<path d="M40.1694 113.308C40.9634 113.302 40.9902 114.041 40.4964 114.328C38.3715 115.563 38.4267 115.504 38.2536 115.342C37.7766 114.894 39.0025 113.317 40.1694 113.308Z" fill="#38A1FF"/>
<path d="M42.129 71.9477C40.9452 70.1521 40.7706 70.7754 39.7094 68.7501C39.57 68.4821 39.6772 68.1782 40.1229 68.378C41.3082 68.9094 44.2546 72.0304 45.7002 73.1644C48.5792 75.424 50.8151 74.6705 55.6788 74.8757C60.5425 75.0809 61.5326 74.7402 63.8381 73.5626C64.3113 73.3206 64.8021 73.0143 65.0655 73.4676C65.3289 73.9209 64.7723 74.0809 64.4736 74.3152C62.3864 75.95 59.9384 76.1981 57.4231 76.1529C49.5348 76.0113 47.3312 76.2463 44.5241 73.9646C43.2783 72.9523 38.201 73.0549 38.2553 72.2984C38.2859 71.8688 38.8219 71.9477 42.129 71.9477Z" fill="#38A1FF"/>
<path d="M53.6872 65.2693C53.7324 65.7379 53.5004 66.0588 53.0203 66.0679C51.3786 66.1001 53.2186 64.0817 50.1175 61.4983C48.191 59.8933 44.9636 60.509 45.0524 65.2908C45.07 66.2303 44.1704 66.1284 44.0249 65.4278C42.3082 57.1927 52.8327 56.3619 53.6872 65.2693Z" fill="#38A1FF"/>
<path d="M64.3482 63.9032C64.4163 64.8504 64.169 66.365 63.2846 66.1368C62.2172 65.8619 63.1583 64.5839 62.8145 63.3144C61.9561 60.1521 58.3994 62.1919 56.3305 64.819C55.5725 65.7815 55.4477 66.2264 55.0939 66.0464C54.4308 65.708 55.6092 63.3795 56.7915 62.198C60.1116 58.8795 64.3482 59.4875 64.3482 63.9032Z" fill="#38A1FF"/>
<path d="M59.0764 59.5733C59.153 60.0266 58.4018 60.6307 57.8666 59.9515C57.3245 59.2647 56.2846 56.8727 54.1346 58.447C52.9883 59.2862 52.8122 60.6973 52.1491 60.3344C51.3734 59.9102 52.463 56.7126 55.4232 56.4079C57.3122 56.2134 58.9745 58.0358 59.0771 59.5725L59.0764 59.5733Z" fill="#38A1FF"/>
<path d="M62.0884 66.5152C66.2194 66.5014 67.2332 68.9899 65.1635 68.4624C61.6282 67.5604 59.5631 68.176 59.3664 67.506C59.0968 66.5887 61.4223 66.5719 62.0892 66.5152H62.0884Z" fill="#38A1FF"/>
<path d="M47.7031 67.3902C47.6457 67.1345 47.8179 66.9392 48.0193 66.8672C52.406 65.2945 56.2383 68.476 53.589 67.9951C49.125 67.1842 47.8761 68.1536 47.7031 67.3902Z" fill="#38A1FF"/>
<path d="M62.6611 73.215C62.4589 73.0496 62.4758 72.7901 62.5891 72.6094C65.0715 68.666 70.0585 68.8199 67.6726 70.0703C63.6542 72.1775 63.2675 73.7097 62.6611 73.215Z" fill="#38A1FF"/>
<path d="M42.5449 65.9263C48.5862 67.7877 46.9775 70.597 46.1766 69.6568C44.5931 67.7976 40.6023 66.0702 42.5449 65.9263Z" fill="#38A1FF"/>
<path d="M56.1496 68.5893C55.312 68.4852 55.2415 67.7386 55.7729 67.4461C57.8908 66.2792 58.9016 64.7287 59.2461 64.9867C59.7316 65.3512 57.8426 68.4209 56.1496 68.5893Z" fill="#38A1FF"/>
<path d="M56.4409 72.725C56.4141 72.3666 56.4615 72.3774 59.9937 70.1584C60.1369 70.068 60.3322 69.8467 60.509 70.0496C61.1139 70.7418 56.5749 74.5229 56.4409 72.725Z" fill="#38A1FF"/>
<path d="M51.335 70.2096C51.3549 69.5557 51.5953 69.5573 51.9062 69.8857C53.8962 71.9853 54.3411 72.3306 53.9016 72.7923C53.3043 73.4164 51.5884 71.6997 51.335 70.2096Z" fill="#38A1FF"/>
<path d="M71.4286 109.352C72.0565 106.704 69.545 104.332 71.8038 101.364C73.1323 99.6202 75.4546 99.9242 75.6836 102.073C75.9439 104.525 74.2157 106.589 73.2617 107.28C68.5235 110.708 81.957 122.153 85.4922 126.58C89.761 131.924 88.3651 134.997 94.2465 123.953C95.1561 122.244 94.8743 120.609 94.32 118.928C94.0711 118.172 91.3835 116.035 92.0229 112.697C92.457 110.43 94.6783 110.469 95.4371 112.397C96.722 115.665 94.0213 116.139 95.8935 120.398C97.1071 117.665 98.454 114.378 98.9119 111.423C99.225 109.403 98.4524 106.046 100.198 103.217C103.083 98.5429 108.6 102.486 101.56 108.353C100.413 109.308 100.223 109.225 100.239 109.832C100.347 113.852 98.3636 117.333 98.6063 117.568C98.8491 117.803 100.173 116.92 101.194 114.917C101.65 114.022 102.812 110.838 106.285 111.396C108.372 111.731 108.357 114.479 104.934 116.35C102.374 117.75 101.12 117.202 100.887 117.407C99.392 118.721 98.0727 118.639 97.6576 119.686C95.8896 124.149 94.0022 126.812 93.7051 127.639C94.9509 127.568 95.6125 126.143 97.2534 124.787C99.284 123.108 102.362 123.421 102.638 125.155C102.913 126.888 100.315 127.937 98.5183 127.86C96.0795 127.756 96.2633 127.229 95.7457 127.64C94.0604 128.981 93.4984 128.178 92.3797 129.627C89.5213 133.334 90.0987 132.669 89.163 133.732C88.287 134.727 87.7487 134.268 87.2916 132.787C86.7602 131.064 85.8437 128.334 82.3459 124.901C74.5013 117.198 75.764 116.793 72.9018 116.678C70.0457 116.564 67.8122 117.082 66.4446 115.383C64.8903 113.452 66.3933 110.838 68.9102 111.767C72.2127 112.986 71.4064 115.982 73.7418 115.573C71.594 112.21 70.4385 110.646 69.0909 107.379C67.6437 103.87 64.437 104.602 61.0028 102.11C57.1483 99.3132 62.4806 94.3591 65.5358 102.503C65.9355 103.565 66.2471 102.925 67.7762 103.998C66.6192 99.8231 65.9707 93.6615 65.9768 90.6615C65.9914 83.9846 73.8405 85.9027 69.1721 94.0444C67.6476 96.7029 67.5764 96.2687 67.8903 98.0475C69.022 104.453 69.5748 105.232 71.4271 109.344L71.4286 109.352ZM67.4133 94.7297C67.9829 93.1753 69.888 90.8545 69.2931 88.6447C68.927 87.2848 67.2012 87.9563 67.0863 89.6386C66.9715 91.3208 66.9822 92.9188 67.4133 94.7297ZM101.813 116.061C102.98 116.464 107.547 113.988 106.663 112.636C106.336 112.136 105.753 112.191 105.204 112.296C103.116 112.695 102.531 114.42 101.813 116.061ZM100.21 107.815C102.726 105.949 104.338 103.168 103.512 102.538C102.632 101.866 100.4 103.763 100.21 107.815ZM72.1499 106.651C73.7372 104.639 74.2464 104.198 74.3896 103.084C74.4615 102.527 74.6055 101.79 73.9876 101.542C73.3413 101.283 72.8834 101.874 72.5519 102.38C71.6943 103.687 71.96 105.105 72.1499 106.651ZM71.0925 115.538C70.2295 114.429 69.6085 113.486 68.6223 112.947C67.6361 112.408 66.4615 113.064 67.1269 114.431C67.7548 115.724 69.7716 115.615 71.0925 115.537V115.538ZM96.9478 126.563C97.4724 126.831 99.9433 127.099 101.217 126.11C103.073 124.668 98.8851 123.616 96.9478 126.563ZM94.0229 117.031C94.5397 115.162 95.0382 113.998 94.4854 112.666C93.588 110.506 91.4807 113.228 94.0229 117.031ZM64.4094 102.684C63.3796 100.701 63.2057 100.101 62.2425 99.5054C60.9086 98.6784 58.8428 100.306 64.4094 102.684Z" fill="#38A1FF"/>
<path d="M76.3848 131.403C74.9139 130.248 73.6114 128.868 71.9254 128.012C70.4552 127.266 72.2585 126.366 71.1995 123.678C69.6199 119.665 63.1765 123.968 72.1842 129.764C73.0578 130.326 73.8649 130.995 74.6888 131.63C75.0487 131.907 75.286 131.963 73.7699 132.638C73.5816 132.722 71.4261 130.796 70.4101 132.433C69.6099 133.725 70.6436 135.078 72.1061 134.668C74.1957 134.083 74.5931 133.016 75.7003 133.04C75.9713 133.045 76.188 133.087 76.4055 133.215L76.3848 131.403ZM70.2041 126.989C66.8786 123.123 69.433 122.531 70.0701 123.914C70.6168 125.101 70.2914 125.981 70.2041 126.989ZM71.26 133.034C71.5655 132.683 72.3534 133.122 72.5977 133.429C71.5931 134.188 70.8182 133.543 71.26 133.034Z" fill="#38A1FF"/>
<path d="M73.8887 24.2761C69.1398 20.8633 70.4354 17.6037 64.93 15.9713C62.6183 15.286 60.3993 14.5394 59.5165 11.6604C58.5463 8.49728 58.7783 7.6351 55.8427 7.04091C54.2791 6.72468 51.3847 6.69865 51.5318 5.89925C51.5854 5.60982 51.8886 5.65653 52.1145 5.64504C64.8435 5.03095 56.7883 12.5241 64.7271 14.4506C68.3886 15.3403 69.6896 16.6612 71.3389 19.2822C73.8466 23.2684 77.0525 23.9277 76.6666 25.0954C76.5296 25.5088 75.8581 25.394 75.4032 25.4399C65.1061 26.4675 58.5793 17.8212 59.3909 17.1436C60.2715 16.4085 66.4369 24.7209 73.8894 24.2768V24.2761H73.8887Z" fill="#38A1FF"/>
<path d="M65.8541 29.2616C65.9207 29.875 65.2071 30.1958 64.9804 29.4439C63.7522 25.368 63.9069 24.9906 63.0884 25.3007C62.0493 25.6942 61.377 25.0464 61.8564 26.3772C62.1106 27.0824 62.8954 29.5442 62.1619 29.7057C61.7645 29.793 61.7331 29.7019 60.3847 26.2432C60.1925 25.7509 59.9597 25.5051 59.3456 25.3757C48.4359 23.0717 53.5424 11.6712 49.0026 6.71712C48.0462 5.67347 47.1947 5.80288 47.4589 5.21559C47.8272 4.39782 50.5883 5.77455 51.426 7.64209C53.6251 12.5472 52.1519 15.1398 54.1718 19.4913C57.5347 26.7379 64.1787 22.3964 65.2063 25.2961C65.6619 26.5824 65.8043 27.9109 65.8541 29.2616Z" fill="#38A1FF"/>
<path d="M73.593 20.316C72.8748 20.6337 72.1925 20.0403 72.9827 19.3443C77.5195 15.3443 76.0494 10.9476 76.9621 11.0012C78.2906 11.0786 78.2224 18.2662 73.593 20.3167V20.316Z" fill="#38A1FF"/>
<path d="M71.9048 11.2761C71.8734 13.8067 70.4362 15.7861 69.685 15.1498C69.4408 14.9423 69.4469 14.659 69.6131 14.391C71.548 11.2792 69.3573 7.93459 70.012 7.67578C70.9944 7.2891 71.7961 10.0441 71.9048 11.2761Z" fill="#38A1FF"/>
<path d="M74.8688 11.384C74.9354 12.1489 74.4606 13.4322 73.8672 13.2623C73.649 13.2002 73.5709 13.0172 73.6146 12.8258C74.0824 10.7806 72.551 7.74157 73.0602 7.52564C73.8213 7.20251 74.845 9.79211 74.8688 11.3832V11.384Z" fill="#38A1FF"/>
<path d="M54.2178 9.23628C54.3334 8.1666 55.8832 8.23321 55.8441 9.23169C55.7997 10.3519 54.276 10.3205 54.2178 9.23628Z" fill="#38A1FF"/>
</svg>
