<svg width="154" height="154" viewBox="0 0 154 154" fill="none" xmlns="http://www.w3.org/2000/svg">
<path d="M51.5948 69.7418C52.1423 69.3682 52.5657 69.5075 60.4601 71.9478C61.4325 72.2487 62.261 77.6224 67.6163 82.026C74.2879 87.5122 80.356 87.2603 85.366 85.6485C85.5708 85.5816 85.7936 85.5968 85.9875 85.6909C86.1813 85.7851 86.331 85.9507 86.4051 86.1531C86.4787 86.3554 86.4715 86.5783 86.3849 86.7754C86.2984 86.9725 86.1391 87.1287 85.9403 87.2113C83.8613 88.0779 81.6306 88.5222 79.3782 88.5183C77.8851 88.4785 80.2266 91.5582 77.7197 99.6853C76.5635 103.432 76.7381 97.2703 76.8009 93.2641C76.8029 93.1394 76.7769 93.0159 76.7247 92.9026C76.6725 92.7893 76.5955 92.6893 76.4994 92.6098C76.4033 92.5303 76.2906 92.4734 76.1695 92.4434C76.0485 92.4134 75.9222 92.411 75.8001 92.4364C75.637 92.4693 75.487 92.5513 75.3713 92.6707C71.0719 97.1011 65.9532 94.5505 65.0834 93.013C64.3483 91.7113 64.941 92.0375 62.7595 93.0291C62.7419 93.0367 60.4938 93.7833 59.4226 93.5827C56.1071 92.9617 56.1071 92.6386 53.5527 91.1539C53.5696 91.17 51.0351 90.1401 51.431 86.029C51.4876 85.4341 52.0573 82.9333 52.6852 82.4417C52.8536 82.3093 52.6607 82.2205 52.532 82.1087C52.2162 81.8986 51.852 81.7727 51.4738 81.7427C49.6522 81.3177 48.2625 78.9731 48.212 77.6492C48.0588 73.7625 49.2916 71.9578 51.5948 69.7418ZM59.2411 87.4693C59.4364 87.5 60.4662 87.3162 60.4578 87.0459C60.4478 86.6194 59.1714 87.0987 58.0076 85.1791C56.8996 83.3567 57.3337 82.346 56.323 82.3904C54.4846 82.477 56.0512 87.4379 59.2411 87.4693Z" fill="#191919"/>
<path d="M39.7836 66.8967C42.7155 64.0697 41.8855 62.0498 42.6313 61.3071C43.0738 60.8676 43.4506 60.0819 44.204 59.9541C45.7431 59.6937 43.7025 62.4993 44.4337 65.3523C45.6864 70.2481 43.9238 73.4342 39.3326 75.3638C37.3265 76.2099 35.0263 71.4848 39.7836 66.8967Z" fill="#191919"/>
<path d="M38.9721 90.0796C38.9328 90.1987 38.8495 90.2982 38.7392 90.3579C38.629 90.4177 38.5001 90.4331 38.3789 90.4011C38.2577 90.369 38.1532 90.2919 38.0869 90.1855C38.0206 90.0791 37.9973 89.9514 38.0219 89.8285C38.5579 87.0719 40.5334 80.5566 40.8826 79.4035C41.1889 78.3797 40.7294 78.8162 34.9101 76.8093C34.1291 76.5397 34.0985 77.1768 33.9453 77.5298C33.7424 77.9984 34.2792 77.8736 34.489 77.9578C35.015 78.1684 35.4721 78.3407 35.8726 78.4938C35.9876 78.5423 36.08 78.6325 36.1311 78.7464C36.1822 78.8603 36.1882 78.9894 36.1479 79.1075C36.1075 79.2257 36.0239 79.3241 35.9139 79.383C35.8038 79.4419 35.6755 79.4569 35.5548 79.4249C31.76 78.2763 34.1597 78.5214 30.1513 83.7174C29.9139 84.0237 29.6513 84.3346 29.3603 84.0084C28.7608 83.3376 33.5219 75.5941 33.538 75.5857C34.2884 75.0497 34.5334 75.3498 37.0855 76.1982C44.3879 78.6324 42.8611 75.7771 39.7884 87.7488C39.7501 87.8974 39.7379 87.7304 38.9721 90.0796Z" fill="#191919"/>
<path d="M55.6254 65.0297C60.0879 66.336 69.215 68.0259 68.9356 69.0772C68.7472 69.7847 68.3598 69.2227 52.9692 65.4623C52.8856 65.4262 52.7953 65.4083 52.7043 65.41C52.6133 65.4116 52.5236 65.4327 52.4415 65.4719C52.3593 65.5111 52.2864 65.5674 52.2278 65.637C52.1692 65.7067 52.1262 65.7881 52.1017 65.8758C51.267 67.5971 51.2533 67.5978 53.0833 68.0802C69.836 72.4983 69.846 72.3682 69.7893 72.6867C69.6109 73.6821 55.2663 69.4654 51.254 68.4539C51.1098 68.4176 50.9752 68.3505 50.8593 68.2573C50.7434 68.1641 50.6491 68.0469 50.5827 67.9138C50.5163 67.7808 50.4794 67.6349 50.4747 67.4863C50.4699 67.3377 50.4973 67.1897 50.5549 67.0527C51.7073 64.2946 51.0733 63.6966 55.6254 65.0297Z" fill="#191919"/>
<path d="M33.548 100.679C32.9354 100.054 33.2233 96.0575 32.1222 94.8339C30.4063 91.7589 27.2011 91.5889 25.3688 93.7436C25.1605 93.9886 24.8427 94.2796 24.5587 93.9947C23.8603 93.2895 26.3963 90.3622 29.7823 91.0851C35.172 92.229 35.3336 99.9143 33.548 100.679Z" fill="#191919"/>
<path d="M110.394 103.779C105.924 104.146 106.039 99.7337 108.556 98.5867C112.643 96.7253 113.512 103.523 110.394 103.779ZM109.226 101.28C109.324 101.184 109.391 101.06 109.417 100.926C109.443 100.791 109.427 100.652 109.372 100.526C109.317 100.401 109.225 100.295 109.108 100.224C108.991 100.152 108.855 100.118 108.718 100.126C107.61 100.166 108.345 102.045 109.226 101.28Z" fill="#191919"/>
<path d="M104.646 113.643C101.062 110.946 104.081 107.728 106.724 108.544C111.015 109.869 107.144 115.523 104.646 113.643ZM105.434 110.998C105.571 110.992 105.704 110.945 105.813 110.862C105.923 110.778 106.004 110.664 106.046 110.533C106.088 110.402 106.09 110.262 106.05 110.13C106.01 109.999 105.93 109.883 105.822 109.798C104.969 109.091 104.268 110.989 105.434 110.998Z" fill="#191919"/>
<path d="M91.8944 118.166C90.1333 114.041 94.3584 112.759 96.2397 114.784C99.2956 118.075 93.121 121.044 91.8944 118.166ZM93.8975 116.272C94.0187 116.335 94.1563 116.359 94.2919 116.342C94.4274 116.324 94.5543 116.266 94.6555 116.174C94.7569 116.082 94.8282 115.962 94.86 115.83C94.8918 115.697 94.8827 115.557 94.8339 115.43C94.4449 114.383 92.8929 115.675 93.8975 116.272Z" fill="#191919"/>
<path d="M80.7196 115.827C82.1484 111.574 86.1561 113.424 86.2158 116.188C86.3123 120.676 79.7242 118.793 80.7196 115.827ZM83.4762 115.74C83.5253 115.868 83.6124 115.978 83.7256 116.055C83.8389 116.132 83.973 116.173 84.1102 116.172C84.2474 116.171 84.3809 116.128 84.4929 116.048C84.6048 115.969 84.6898 115.857 84.7365 115.728C85.1385 114.695 83.1209 114.628 83.4769 115.74H83.4762Z" fill="#191919"/>
<path d="M69.1903 112.333C70.7133 108.114 74.6788 110.051 74.6765 112.817C74.6727 117.306 68.1283 115.277 69.1903 112.333ZM71.9468 112.306C71.9934 112.435 72.0781 112.546 72.1896 112.626C72.3011 112.705 72.4341 112.749 72.5709 112.751C72.7077 112.752 72.8419 112.713 72.9555 112.636C73.0692 112.56 73.157 112.451 73.2072 112.324C73.6336 111.3 71.6145 111.188 71.9483 112.306H71.9468Z" fill="#191919"/>
<path d="M62.6011 103.008C66.5437 100.864 68.2183 104.95 66.3783 107.016C63.3921 110.368 59.853 104.501 62.6011 103.008ZM64.6815 104.822C64.6303 104.949 64.619 105.089 64.6494 105.223C64.6797 105.357 64.7501 105.478 64.8511 105.57C64.9522 105.663 65.0791 105.722 65.2149 105.741C65.3507 105.759 65.4889 105.736 65.6111 105.674C66.6095 105.191 65.1777 103.766 64.6815 104.822Z" fill="#191919"/>
<path d="M31.129 104.909C31.1596 103.094 30.0034 99.2153 28.3066 98.5706C27.1213 97.8593 26.6006 99.1265 25.8097 99.115C24.4544 97.4305 28.6137 94.9657 31.0272 98.3753C32.5333 100.502 32.6566 105.085 31.129 104.909Z" fill="#191919"/>
<path d="M73.4914 71.6921C73.5733 74.9402 70.4209 75.2633 70.0304 74.3322C69.6001 73.3054 71.8681 73.333 70.7961 71.0397C70.2601 69.9034 69.1882 69.5566 69.5902 68.8338C70.2869 67.5734 73.2234 68.8812 73.4922 71.6921H73.4914Z" fill="#191919"/>
<path d="M73.4907 64.1577C72.4103 64.6937 70.0872 62.7029 69.2066 61.8606C68.2495 60.9517 69.2373 59.15 69.9769 58.0566C70.3253 57.5413 70.8804 57.6492 70.7633 58.4088C70.3368 61.1684 69.2036 59.7281 73.4907 64.1577Z" fill="#191919"/>
<path d="M83.1661 43.1606C86.8414 43.7081 88.5857 46.7801 87.9134 47.1844C87.6837 47.3215 87.5489 47.0313 87.3774 46.9287C85.967 46.1094 84.5841 45.2342 82.9072 45.0282C82.3245 44.9562 81.6331 44.862 81.702 44.0397C81.7748 43.1721 82.552 43.3123 83.1661 43.1606Z" fill="#191919"/>
<path d="M69.7205 43.7846C69.3668 44.3742 68.8423 44.1314 68.3675 43.9331C66.4724 43.1368 63.3269 43.4967 63.2511 42.9033C63.0161 41.0801 71.0873 41.5036 69.7205 43.7838V43.7846Z" fill="#191919"/>
<path d="M71.277 54.7303C70.8697 54.4838 73.7273 47.107 73.7602 47.0527C73.9302 46.7747 73.9685 46.287 74.4394 46.4225C75.7334 46.7908 72.0948 55.2257 71.277 54.7303Z" fill="#191919"/>
<path d="M85.0108 53.7755C84.6226 56.8758 81.0146 56.1147 82.1938 53.117C83.0199 51.0205 85.0154 51.9324 85.0108 53.7755Z" fill="#191919"/>
<path d="M62.8483 49.9905C62.9647 47.1973 65.6952 47.5189 65.6332 49.6077C65.5566 52.2141 62.758 52.1422 62.8483 49.9905Z" fill="#191919"/>
<path d="M37.2838 91.9756C35.711 84.4817 26.564 84.1349 24.9805 84.6494C23.7072 85.0614 22.1551 84.4863 18.2898 90.5086C15.8074 94.3707 15.227 98.9381 15.8181 103.435C16.9544 112.061 24.6926 115.408 27.6765 114.498C28.6658 114.196 28.3243 113.448 27.8427 113.462C19.0907 113.708 12.299 99.5905 21.9185 88.9243C23.7102 86.9381 25.9675 85.8003 28.8328 86.5055C38.8895 88.9772 35.0043 101.13 37.1023 98.1028C37.1222 97.906 37.2784 97.9626 37.3152 97.6809C37.6904 95.7965 37.6797 93.8554 37.2838 91.9756Z" fill="#191919"/>
<path d="M134.279 105.328C126.223 100.58 109.882 94.5077 104.893 94.4288C103.978 94.4143 104.112 94.0582 104.127 92.9327C104.196 85.7734 104.942 93.814 113.038 86.7427C113.088 86.6997 113.149 86.6698 113.213 86.6556C113.278 86.6414 113.345 86.6435 113.409 86.6616C113.472 86.6793 113.531 86.7124 113.579 86.7579C113.627 86.8034 113.663 86.86 113.684 86.9227C114.356 88.8017 117.716 90.4258 120.111 90.5215C126.153 90.7512 129.933 85.229 130.208 82.7825C130.453 80.6011 129.581 81.0689 131.55 80.4318C136.742 78.7534 140.83 70.3047 137.464 65.7626C135.57 63.2067 132.882 63.6186 133.712 62.2802C135.55 59.2939 135.332 58.7978 134.925 56.0726C134.738 55.6295 134.521 55.1999 134.274 54.787C131.967 50.826 130.181 52.2204 130.874 51.0611C132.658 48.0749 131.635 41.813 129.71 40.6246C125.678 38.1346 121.318 37.3528 120.435 36.7333C120.389 36.7012 120.416 36.7333 120.713 36.4439C123.169 34.0358 126.849 25.5036 118.384 23.9431C118.248 23.9178 117.772 24.0135 118.101 23.6567C118.965 22.7118 119.887 16.6123 116.476 13.5196C112.964 10.3351 110.902 10.979 108.444 11.4331C107.642 11.5809 108.132 11.7593 107.525 10.5632C104.593 4.83045 95.9293 1.75004 89.9293 6.28605C88.561 7.32051 88.6475 7.77457 87.8297 6.93919C83.0931 2.10609 73.152 4.38941 71.8603 8.54256C71.5915 9.40704 71.1375 8.74011 70.6061 8.58774C67.2247 7.61836 64.3894 8.50198 61.8648 11.6084C58.485 15.7677 60.616 19.3474 59.5746 18.6176C59.5097 18.5714 59.4329 18.5448 59.3533 18.5411C55.9307 18.4201 54.7209 20.4553 54.1841 20.4553C54.3166 20.7945 52.3058 22.1866 51.6029 24.2976C49.8326 29.607 51.4498 33.8742 56.7147 35.7647C57.518 36.0534 55.7798 37.0542 55.6183 37.4408C55.3962 37.9722 52.2668 41.4906 54.1787 45.7472C54.8802 47.1741 56.0189 48.3397 57.4291 49.0741C58.3878 49.5504 58.4245 49.3314 58.1864 50.7257C57.9261 52.2395 58.2025 52.4945 57.0777 52.9463C56.7402 53.1007 56.4374 53.3218 56.1874 53.5961C55.9374 53.8704 55.7454 54.1924 55.6229 54.5428C55.5618 55.056 55.6423 55.5762 55.8557 56.0469C56.0691 56.5177 56.4072 56.9211 56.8334 57.2135C57.8832 57.8131 57.5432 57.8582 57.5134 63.8713C57.5795 64.1965 57.7663 64.4846 58.0362 64.6778C58.306 64.871 58.639 64.9549 58.9682 64.9126C59.351 64.8031 59.1267 64.9126 59.0585 59.1638C59.0371 57.3085 59.6489 59.1576 63.4406 58.9892C64.8649 58.9256 66.1466 58.5749 66.6329 56.9647C66.7638 56.5328 67.2347 56.5726 67.5961 56.5397C70.3779 56.2832 72.446 57.2572 74.577 58.3345C76.3894 59.2533 74.6758 59.8598 76.2286 61.2043C78.5364 63.2021 81.1758 64.1822 84.2455 63.5918C84.7734 63.5345 85.2582 63.2737 85.597 62.8649C85.9358 62.456 86.1019 61.9312 86.0602 61.4019C86.0793 60.5903 88.5747 59.9363 92.4775 58.0611C99.8834 54.5029 99.5289 54.3046 100.27 54.7426C104.693 57.3552 105.665 53.1178 110.286 53.3406C113.372 53.4884 114.06 54.604 113.565 56.9394C111.667 65.8981 99.3995 58.5581 102.539 88.2098C103.246 94.8783 102.658 98.1532 99.9416 101.724C90.3703 114.303 74.4147 109.957 74.6689 97.6662C74.7003 96.121 75.2631 95.5468 62.3985 98.1042C61.3756 98.3079 50.2132 101.518 44.7499 104.427C42.1224 105.826 39.6088 107.428 37.2323 109.22C37.0439 109.62 34.4214 111.218 34.7292 111.72C35.2935 112.645 41.2108 105.947 59.4238 101.066C63.4032 99.9902 67.441 99.1432 71.5173 98.5292C72.9292 98.376 72.7669 98.376 72.8442 100.678C72.9905 104.991 78.2883 111.504 86.842 111.508C93.2999 111.508 100.638 105.248 102.555 100.267C104.482 95.2566 103.026 95.2657 105.7 96.1654C105.73 96.1754 105.762 96.1823 105.794 96.1861C106.751 96.2841 107.14 96.7742 108.662 97.0284C115.102 98.1203 146.568 112.567 134.279 105.328ZM124.301 77.15C124.334 77.0716 124.392 77.0058 124.465 76.9621C124.538 76.9184 124.624 76.8989 124.709 76.9066C124.794 76.9142 124.874 76.9486 124.938 77.0047C125.003 77.0608 125.047 77.1358 125.066 77.219C125.492 79.1585 123.674 83.2052 121.043 84.2075C118.716 85.0942 117.347 82.9824 118.544 82.804C120.954 82.438 123.407 79.186 124.301 77.1493V77.15ZM71.8212 13.6031C72.4713 10.9231 76.3925 9.42389 78.603 9.60383C81.4537 9.83353 82.6743 11.4369 82.5648 11.6444C82.2478 12.2394 78.1742 9.25926 73.3764 14.4775C72.4085 15.5227 71.5387 14.757 71.8212 13.6031ZM60.4812 55.1408C59.8104 54.9646 59.1076 54.9478 58.4291 55.0918C57.3694 55.3437 57.5057 53.5274 60.6658 54.3957C60.7147 54.4079 60.7607 54.4295 60.8013 54.4594C60.8418 54.4893 60.8761 54.5269 60.9021 54.5701C60.9282 54.6133 60.9454 54.6611 60.953 54.7109C60.9605 54.7608 60.9581 54.8116 60.946 54.8605C60.9339 54.9094 60.9122 54.9555 60.8823 54.9961C60.8524 55.0366 60.8148 55.0709 60.7716 55.0969C60.7285 55.1229 60.6806 55.1402 60.6308 55.1477C60.581 55.1553 60.5301 55.1529 60.4812 55.1408ZM79.394 59.588C78.9712 59.5426 78.5444 59.551 78.1237 59.6132C77.2202 59.7556 77.5793 58.5098 79.4974 58.7939C79.6009 58.8097 79.6941 58.8654 79.757 58.949C79.82 59.0327 79.8476 59.1377 79.8341 59.2415C79.8206 59.3453 79.767 59.4397 79.6847 59.5045C79.6025 59.5692 79.4981 59.5992 79.394 59.588ZM98.208 54.1737C85.221 59.6913 86.0066 60.6056 85.2715 59.8085C83.2179 57.5803 80.5433 57.1285 77.6911 57.2235C77.1214 57.2678 76.5915 57.5326 76.2141 57.9616C75.3503 58.8284 73.2722 54.3222 66.9001 55.6645C66.6979 55.7074 66.5402 55.8445 66.3641 55.5657C65.1221 53.6392 63.1841 52.9463 61.0501 52.6561C59.433 52.4371 59.4422 52.4685 59.6673 50.8421C60.3181 46.9824 61.1684 43.159 62.2148 39.3873C62.5838 37.8811 63.4912 36.6223 64.9713 36.3819C69.8986 35.5833 71.2133 33.1368 72.0617 34.2241C75.7255 38.9179 81.0839 38.8949 84.6498 35.1629C84.8152 34.9898 85.2011 34.4952 85.4262 34.9255C88.1253 40.0848 89.8489 44.8321 96.3114 44.9087C96.5817 44.9087 96.9944 44.7464 96.8474 45.359C96.5152 46.6908 96.4922 48.081 96.7802 49.423C97.0682 50.7651 97.6596 52.0234 98.5089 53.1017C98.9714 53.725 98.8742 53.8866 98.208 54.1737ZM98.3612 37.1361C94.7486 37.1307 90.9415 31.1468 92.9117 30.3214C94.5824 29.6192 95.4706 34.8482 99.0166 36.4301C99.2417 36.5297 99.6445 36.5649 99.5962 36.8849C99.548 37.205 98.6445 37.1323 98.3642 37.1323L98.3612 37.1361Z" fill="#191919"/>
<path d="M148.558 75.2678C147.235 53.5939 135.618 34.4086 118.603 22.4667C118.522 22.8944 118.349 23.2993 118.096 23.6535C117.77 24.0088 118.243 23.9146 118.379 23.9399C126.844 25.4996 123.162 34.028 120.708 36.4407C120.699 36.4407 120.731 36.4714 99.3844 54.692C22.1811 120.59 27.8557 116.207 27.3136 115.489C27.0958 115.202 26.8814 114.913 26.6704 114.621C23.4652 114.629 16.894 111.603 15.8182 103.434C15.2827 99.9538 15.669 96.3939 16.9384 93.1094C14.2723 81.3332 15.1809 69.0292 19.5479 57.7724C29.7256 32.198 51.3244 25.1336 51.6031 24.3028C52.3061 22.1918 54.3168 20.7998 54.1836 20.4606C54.7195 20.456 55.9309 18.423 59.3536 18.5463C59.4332 18.5495 59.5102 18.5762 59.5748 18.6229C60.6974 19.42 58.1637 15.4322 62.5726 10.8127C51.1258 13.0544 40.4089 18.0855 31.3718 25.4601C22.3346 32.8346 15.2564 42.3247 10.7645 53.0893C-5.65131 92.7503 18.1819 138.777 62.7066 148.048C107.945 157.466 151.432 122.316 148.558 75.2678ZM139.737 84.7495C135.562 137.123 72.3605 158.801 34.5081 123.699C34.0671 123.29 33.7807 122.979 34.4461 122.414C132.149 39.4515 126.736 42.5901 127.516 43.5985C136.622 55.2895 140.986 69.9835 139.737 84.7495Z" fill="#38A1FF"/>
</svg>
