<svg width="154" height="154" viewBox="0 0 154 154" fill="none" xmlns="http://www.w3.org/2000/svg">
<path d="M122.083 34.4396C121.866 33.2709 121.281 32.2021 120.415 31.3885C119.548 30.5748 118.444 30.059 117.264 29.9158L73.8722 24.9389C72.4352 24.7853 70.9946 25.1948 69.8533 26.0813C68.712 26.9679 67.9588 28.2624 67.752 29.6927L59.9182 136.159C59.8517 137.005 59.9774 137.856 60.286 138.647C60.5946 139.438 61.078 140.149 61.7001 140.726C62.6165 141.528 63.7559 142.03 64.9657 142.166L109.567 149.22C110.955 149.345 112.339 148.949 113.45 148.109C114.561 147.268 115.318 146.044 115.574 144.674C115.622 144.307 122.319 35.717 122.083 34.4396Z" fill="white"/>
<path d="M125.783 31.5852C125.395 30.5398 124.724 29.6229 123.845 28.9371C122.966 28.2514 121.913 27.8239 120.804 27.7024L77.4126 22.7239C75.0602 22.4938 72.5115 23.5964 70.6521 24.962C70.4681 25.097 70.2642 25.2357 70.0817 25.396C69.267 25.9287 68.5872 26.6432 68.0957 27.4833C67.6042 28.3234 67.3145 29.2661 67.2493 30.2372L59.4622 136.228C59.3586 137.777 59.8562 139.306 60.8515 140.497C61.8468 141.688 63.2631 142.45 64.8057 142.623C68.0483 143.077 110.098 149.627 110.315 149.652C112.649 149.931 117.184 147.618 119 144.267C119.462 143.305 119.697 142.25 119.685 141.184L126.08 35.1705C126.225 33.9675 126.124 32.7476 125.783 31.5852ZM115.574 144.701C115.336 145.941 114.677 147.061 113.708 147.872C112.739 148.682 111.52 149.133 110.257 149.148C109.615 149.113 87.0077 145.596 64.9659 142.189C61.3361 141.628 59.7122 138.879 59.9184 136.183C68.1985 28.1685 67.5813 29.5065 68.2085 28.1593C68.7042 27.1046 69.5157 26.2303 70.5306 25.6574C71.5454 25.0845 72.7133 24.8415 73.8725 24.962L117.264 29.9405C118.444 30.0849 119.547 30.6012 120.413 31.4146C121.28 32.228 121.865 33.2962 122.083 34.4643C122.297 35.6098 122.244 34.485 115.574 144.701Z" fill="#4B1010"/>
<path d="M115.826 34.5992L74.078 29.7825C73.7838 29.7566 73.4873 29.7894 73.2059 29.8789C72.9244 29.9685 72.6635 30.113 72.4383 30.3042C72.2131 30.4953 72.0282 30.7293 71.8941 30.9925C71.7601 31.2557 71.6796 31.5429 71.6574 31.8374C64.91 127.039 65.1262 126.411 65.4229 127.14C66.0248 128.621 67.7746 128.601 69.1225 128.807L109.134 135.11C111.185 135.426 112.124 134.533 112.24 133.009L117.858 36.9746C117.888 36.3936 117.695 35.8231 117.316 35.381C116.938 34.9389 116.405 34.659 115.826 34.5992ZM117.402 36.9762C117.402 37.0797 117.316 37.1073 111.784 132.941C111.687 134.603 110.557 134.836 109.211 134.67C106.71 134.363 98.4 133.001 67.5468 128.122C67.0509 128.108 66.5804 127.899 66.238 127.54C65.8957 127.181 65.7094 126.701 65.7197 126.205L72.0914 31.9961C72.099 31.7498 72.1566 31.5075 72.2606 31.2841C72.3646 31.0606 72.5129 30.8606 72.6965 30.6961C72.8801 30.5317 73.0952 30.4062 73.3287 30.3273C73.5622 30.2484 73.8093 30.2178 74.055 30.2372C88.2399 31.8857 114.291 34.8998 115.803 35.0792C116.263 35.1276 116.686 35.3519 116.984 35.7052C117.282 36.0585 117.431 36.5134 117.402 36.9746V36.9762Z" fill="#4B1010"/>
<path d="M86.525 133.831C85.6578 133.83 84.81 134.088 84.0891 134.57C83.3675 135.051 82.8052 135.736 82.4732 136.537C82.1412 137.339 82.0546 138.221 82.2243 139.071C82.3511 139.707 82.6172 140.307 83.0035 140.828C83.3898 141.348 83.8867 141.777 84.4585 142.082C85.0303 142.388 85.6627 142.563 86.3102 142.595C86.9578 142.627 87.6044 142.515 88.2034 142.267C89.0047 141.935 89.6895 141.373 90.1709 140.652C90.7351 139.808 90.9891 138.795 90.8895 137.786C90.7899 136.776 90.343 135.832 89.625 135.116C88.8029 134.293 87.6879 133.831 86.525 133.831ZM90.4531 138.216C90.4523 139.025 90.2016 139.814 89.7352 140.475C89.2689 141.136 88.6096 141.637 87.8477 141.909C87.0861 142.182 86.2586 142.213 85.4787 141.998C84.6987 141.783 84.0044 141.331 83.491 140.706C82.9774 140.081 82.6689 139.313 82.6077 138.506C82.5475 137.7 82.7375 136.894 83.1519 136.199C83.5663 135.504 84.1849 134.954 84.9233 134.624C85.6621 134.295 86.4847 134.201 87.2787 134.356C88.1705 134.537 88.9729 135.019 89.5514 135.721C90.1291 136.424 90.4475 137.305 90.4531 138.215V138.216Z" fill="#4B1010"/>
<path d="M110.938 70.3874L75.5621 66.664C75.3606 66.6448 75.1593 66.7024 74.9984 66.8252C74.8374 66.948 74.7288 67.1271 74.6942 67.3265L73.7127 80.9378C73.6994 81.1329 73.7602 81.3259 73.8828 81.4783C74.0054 81.6306 74.181 81.7311 74.3744 81.7598C74.501 81.7851 109.778 85.7185 109.91 85.7338C110.009 85.7437 110.109 85.7338 110.205 85.7046C110.3 85.6753 110.388 85.6274 110.465 85.5636C110.542 85.4998 110.605 85.4213 110.65 85.3329C110.696 85.2444 110.724 85.1477 110.732 85.0484C110.748 84.9717 111.801 71.263 111.806 71.1855C111.842 70.6381 111.395 70.4556 110.938 70.3874Z" fill="#FFE55D"/>
<path d="M112.308 71.0039C112.262 70.7327 112.127 70.4847 111.924 70.2987C111.722 70.1127 111.463 69.9993 111.189 69.9764L75.7223 66.2308C75.5548 66.2007 75.3829 66.2057 75.2175 66.2456C75.0521 66.2854 74.8967 66.3592 74.7614 66.4624C74.626 66.5655 74.5136 66.6956 74.4313 66.8445C74.3489 66.9934 74.2985 67.1578 74.2831 67.3273C73.2158 80.5407 73.2142 80.8826 73.3239 81.3036C73.3902 81.5504 73.5311 81.7706 73.7274 81.9342C73.9236 82.0978 74.1657 82.1968 74.4203 82.2176L109.956 86.2139C110.28 86.2343 110.599 86.1257 110.843 85.9118C111.087 85.6979 111.237 85.396 111.26 85.0722C111.258 84.6397 112.308 71.6725 112.308 71.0039ZM110.775 85.0722C110.766 85.1712 110.738 85.2674 110.692 85.3554C110.646 85.4435 110.582 85.5215 110.506 85.5851C110.43 85.6487 110.342 85.6967 110.247 85.7261C110.152 85.7556 110.052 85.766 109.953 85.7569C109.832 85.7569 109.93 85.7569 74.4173 81.7836C74.2205 81.7616 74.0401 81.6633 73.915 81.5098C73.791 81.3553 73.7333 81.1579 73.7548 80.9609C73.7548 80.6741 74.737 67.3495 74.737 67.3495C74.7652 67.1471 74.8722 66.964 75.0348 66.84C75.1973 66.7161 75.4023 66.6614 75.605 66.6878L110.98 70.4104C111.441 70.4556 111.894 70.6611 111.871 71.2323C111.732 72.5527 111.11 81.5321 110.778 85.0722H110.775Z" fill="#4B1010"/>
<path d="M106.212 74.7266L104.773 74.5672C104.871 73.6041 104.856 73.7237 104.887 73.539C104.893 73.49 104.884 73.4404 104.859 73.3973C104.835 73.3542 104.798 73.32 104.753 73.2997C104.708 73.2796 104.658 73.2744 104.61 73.2847C104.562 73.2951 104.518 73.3205 104.486 73.3572C104.464 73.3816 104.448 73.4104 104.439 73.4416C104.429 73.473 104.426 73.5063 104.43 73.539C104.315 74.5097 104.316 74.4728 104.316 74.5442C103.998 74.5331 103.686 74.6328 103.434 74.8264C103.181 75.02 103.003 75.2953 102.931 75.6053C102.86 75.9151 102.897 76.2402 103.038 76.5254C103.179 76.8107 103.413 77.0385 103.703 77.1703C104.063 77.2615 104.43 77.3298 104.799 77.3758C104.981 77.4417 105.144 77.5518 105.273 77.6961C105.403 77.8404 105.494 78.0145 105.54 78.2029C105.586 78.3912 105.584 78.588 105.536 78.7756C105.487 78.9632 105.393 79.1358 105.261 79.2781C105.084 79.4683 104.849 79.5945 104.593 79.6369C103.958 79.6323 103.324 79.5787 102.698 79.4767C102.401 79.4506 102.401 79.9106 102.698 79.9367C103.04 79.9827 103.383 80.0049 103.725 80.0509C103.627 81.0132 103.642 80.8905 103.611 81.0784C103.611 81.1394 103.635 81.1979 103.678 81.241C103.721 81.2842 103.78 81.3084 103.841 81.3084C103.902 81.3084 103.96 81.2842 104.004 81.241C104.047 81.1979 104.071 81.1394 104.071 81.0784C104.111 80.7515 104.149 80.4244 104.185 80.097H104.276C104.648 80.1333 105.02 80.0407 105.332 79.8347C105.643 79.6288 105.874 79.3221 105.985 78.966C106.098 78.6103 106.084 78.227 105.948 77.8799C105.811 77.5329 105.56 77.2431 105.236 77.0591C104.893 76.9205 104.531 76.8359 104.162 76.8084C104.043 76.7815 103.93 76.731 103.83 76.6597C103.731 76.5885 103.647 76.4979 103.583 76.3935C103.519 76.2891 103.477 76.173 103.459 76.0519C103.441 75.9309 103.447 75.8074 103.477 75.6889C103.527 75.4763 103.651 75.2884 103.827 75.1587C104.003 75.0291 104.219 74.9661 104.437 74.9812C105.031 75.0188 105.624 75.1177 106.241 75.1867C106.508 75.2289 106.485 74.7726 106.212 74.7266Z" fill="#4B1010"/>
<path d="M90.4525 79.8884C90.727 79.8884 90.7492 79.6583 90.7722 79.4544L91.2974 74.4751C91.5136 72.5291 91.6279 72.2745 91.2744 72.1687C91.1556 72.145 79.2495 70.9197 79.1705 70.9128C78.8968 70.8875 78.4452 70.7541 78.3716 71.1183C78.3309 71.3176 77.6815 77.6763 77.6631 77.8779C77.591 78.3104 77.5473 78.5343 77.9606 78.5864L90.4525 79.8884Z" fill="white"/>
<path d="M91.7315 71.8722C91.4907 71.6713 91.4409 71.7043 88.4889 71.3922C88.4122 71.3846 78.9276 70.3955 78.7826 70.3878C78.6172 70.3648 78.4488 70.3975 78.304 70.4808C78.1592 70.5641 78.0462 70.6932 77.9829 70.8478C77.9354 71.0158 77.1909 78.0767 77.184 78.224C77.1771 78.3202 77.1894 78.4169 77.2202 78.5084C77.251 78.5999 77.2997 78.6843 77.3634 78.7569C77.4271 78.8292 77.5048 78.8879 77.5919 78.9294C77.6786 78.9717 77.773 78.996 77.8694 79.0007C77.9461 79.0106 90.3529 80.3241 90.4296 80.3249C91.2293 80.3364 91.2201 79.5021 91.273 78.9324C91.5958 75.5587 91.5206 76.8208 91.8672 73.4509C91.9155 72.9917 92.1425 72.2617 91.7315 71.8722ZM79.1706 70.89C83.6699 71.3171 90.9855 72.1459 91.2745 72.1459C91.6456 72.2226 91.4723 72.6827 91.4118 73.4709L78.2574 72.1007C78.354 70.6515 78.3717 70.8141 79.1706 70.89ZM90.7723 79.4546C90.7432 79.7444 90.7301 79.8886 90.4296 79.8886L77.9607 78.5851C77.7774 78.5621 77.6179 78.4939 77.6179 78.2654C77.6179 78.1887 77.6179 78.2569 78.1202 73.3781L91.2523 74.7483L90.7723 79.4546Z" fill="#4B1010"/>
<path d="M89.3556 75.754L85.8393 75.389C85.5418 75.366 85.5418 75.823 85.8393 75.8491L89.3334 76.214C89.6531 76.234 89.6301 75.777 89.3556 75.754Z" fill="#4B1010"/>
<path d="M89.2196 77.0792L85.7025 76.7134C85.4058 76.6912 85.4058 77.1474 85.7025 77.1735L89.2196 77.5392C89.5163 77.5584 89.4964 77.1022 89.2196 77.0792Z" fill="#4B1010"/>
<path d="M80.7688 74.955L79.3534 74.8177C79.3201 74.8152 79.2872 74.8257 79.2614 74.8469C79.236 74.8684 79.2198 74.8989 79.2162 74.932L79.0789 76.3482C79.0767 76.3814 79.0871 76.4143 79.1081 76.4402C79.1296 76.4656 79.1601 76.4818 79.1932 76.4854L80.6094 76.6219C80.6425 76.6245 80.6754 76.614 80.7009 76.5926C80.7264 76.5713 80.7425 76.5408 80.7458 76.5077L80.8831 75.0922C80.879 75.0609 80.8662 75.0313 80.8459 75.007C80.8257 74.9827 80.799 74.9646 80.7688 74.955Z" fill="#4B1010"/>
<path d="M109.408 91.4894L74.0547 87.7898C73.8587 87.767 73.6616 87.8208 73.5044 87.94C73.3472 88.0591 73.2422 88.2345 73.2112 88.4293L72.2053 102.088C72.1925 102.283 72.2536 102.476 72.3763 102.628C72.499 102.781 72.6744 102.881 72.8677 102.91L108.357 106.884C108.563 106.908 108.771 106.85 108.933 106.721C109.096 106.593 109.201 106.405 109.225 106.199C109.24 106.122 110.299 92.4141 110.299 92.3359C110.31 91.7409 109.865 91.5354 109.408 91.4894Z" fill="white"/>
<path d="M109.636 91.101C105.749 90.7299 78.0758 87.7273 74.1915 87.3332C73.9446 87.2891 73.6902 87.3214 73.4622 87.4258C73.2342 87.5302 73.0435 87.7017 72.9156 87.9174C72.8305 88.0603 72.7752 88.2188 72.753 88.3836C72.753 88.4058 72.73 88.4288 72.73 88.4519C71.6811 102.42 71.6635 102.107 71.7478 102.429C71.815 102.675 71.9562 102.895 72.1523 103.058C72.3484 103.221 72.59 103.321 72.8443 103.342C108.403 106.88 108.28 107.333 108.357 107.338C108.685 107.373 109.014 107.279 109.273 107.075C109.532 106.871 109.702 106.574 109.745 106.247L110.818 93.3107C110.948 91.7366 110.459 91.1799 109.636 91.101ZM109.247 106.174C109.231 106.325 109.171 106.468 109.074 106.585C108.977 106.702 108.848 106.788 108.703 106.832C108.606 106.861 108.504 106.87 108.404 106.859L72.8895 102.885C72.7919 102.875 72.6972 102.846 72.611 102.799C72.5248 102.752 72.4487 102.689 72.3872 102.612C72.3256 102.536 72.2799 102.448 72.2525 102.354C72.2252 102.259 72.2168 102.161 72.2278 102.063L73.2323 88.4289C73.257 88.2295 73.3596 88.048 73.5175 87.9239C73.6755 87.7998 73.8761 87.7432 74.0757 87.7664L109.474 91.4889C109.934 91.535 110.388 91.7404 110.365 92.3117C110.19 93.4925 110.542 92.3768 109.247 106.174Z" fill="#4B1010"/>
<path d="M42.2427 54.8803C41.9913 54.286 41.8074 53.6654 41.6945 53.0301L41.7167 53.0071C41.6715 52.7104 42.1285 52.5961 42.1507 52.8929C42.3544 54.0534 42.8149 55.1536 43.4986 56.1132C44.1002 57.0062 44.9288 57.7226 45.8993 58.1888C47.5095 58.9057 50.4576 59.0368 51.9482 57.7579C54.3527 55.6938 53.6711 51.1255 52.8392 48.0746C51.9402 48.0439 51.0412 48.136 50.1671 48.3484C50.1853 48.3751 50.1934 48.4074 50.1901 48.4396C50.4293 50.5374 50.118 49.9662 51.9252 51.7742C51.9555 51.8185 51.9694 51.8719 51.9644 51.9254C51.9594 51.9788 51.936 52.0288 51.898 52.0667C51.8601 52.1047 51.8101 52.1282 51.7567 52.1331C51.7032 52.1381 51.6498 52.1242 51.6055 52.0939C49.6119 50.1004 50.0543 50.7904 49.7331 48.4396C46.7243 49.0415 46.058 49.7216 45.8733 49.3536L44.9831 48.0056V49.993C44.9854 50.0437 44.971 50.0937 44.942 50.1353C44.913 50.1769 44.8711 50.2077 44.8228 50.2231C43.8946 50.5448 43.0405 51.0496 42.3109 51.7075C42.2841 51.7232 42.2543 51.7332 42.2235 51.7371C42.1926 51.7409 42.1613 51.7385 42.1314 51.7299C42.1015 51.7213 42.0737 51.7067 42.0496 51.687C42.0255 51.6674 42.0056 51.643 41.9912 51.6155C41.9183 51.4963 41.8498 51.3746 41.7857 51.2505C41.525 51.2505 40.7391 50.3181 39.7991 50.7023C38.5462 51.2137 38.5884 52.7802 39.1136 53.7854C39.5568 54.8473 40.7422 55.4569 42.2427 54.8803Z" fill="white"/>
<path d="M39.0222 142.029C38.0147 142.153 36.998 142.184 35.9844 142.12V143.377L39.4347 144.108C39.3335 142.908 39.6065 143.921 39.0222 142.029Z" fill="white"/>
<path d="M45.4619 139.677L45.0969 138.421C44.0894 138.545 43.0727 138.576 42.0591 138.512V139.768L45.5095 140.545C45.4599 140.258 45.4439 139.967 45.4619 139.677Z" fill="white"/>
<path d="M60.0534 73.9725C57.3529 72.541 57.1858 69.9632 52.6543 65.4309C56.9351 73.1367 54.4723 74.6158 53.8642 77.7411C53.6469 79.0464 53.6935 80.3821 54.0015 81.6691C55.434 83.0817 57.2693 84.0152 59.2545 84.3412C63.1925 84.7292 68.753 80.8395 71.6582 78.1413C71.0448 75.9722 70.2865 73.7432 69.4875 71.6193C66.7586 72.5295 63.3374 75.7115 60.0534 73.9725Z" fill="white"/>
<path d="M49.5492 74.1548C49.2143 73.7745 48.8013 73.4709 48.3385 73.2646C47.1485 72.7325 44.8452 73.8527 43.771 74.5888L45.0085 77.9318C45.7124 77.8873 46.0367 77.4618 46.4891 77.0117C46.5097 76.9898 46.5345 76.9724 46.5621 76.9605C46.5896 76.9486 46.6194 76.9426 46.6494 76.9427C46.6794 76.9425 46.7091 76.9486 46.7367 76.9604C46.7643 76.9723 46.7891 76.9898 46.8096 77.0117C46.9906 77.231 47.216 77.4104 47.4706 77.5369C47.6515 77.6312 48.2933 77.8107 48.2933 77.4457C48.1327 76.9734 47.8645 76.545 47.5097 76.1943C47.272 75.9743 47.6308 75.7458 47.8164 75.9314C47.9758 76.1138 48.2235 76.3262 48.4068 76.5777C48.7265 76.8975 49.0968 77.1513 49.297 76.8284C49.5078 76.4895 49.2011 75.9406 49.0462 75.6408C48.9132 75.4054 48.7683 75.1768 48.6122 74.956C48.4091 74.7536 48.6122 74.4906 48.8423 74.6263C49.1551 74.8564 49.5185 75.009 49.9019 75.0703C50.0093 74.8679 49.7455 74.3496 49.5492 74.1548Z" fill="white"/>
<path d="M53.3414 80.5044C52.7395 76.2505 55.3488 75.5205 54.5291 71.1178C53.9287 67.8975 51.1983 63.8031 51.002 63.4596C49.8238 63.8804 48.5849 64.1068 47.3339 64.1297C44.4998 64.1219 41.707 63.449 39.1803 62.1653C39.5813 64.773 38.2012 73.4817 37.7664 76.0948C38.8989 75.408 40.1007 74.8426 41.3517 74.408C41.9935 74.1764 42.6499 73.9863 43.3154 73.8367C43.3729 73.8243 43.433 73.8339 43.4838 73.8635C43.5346 73.8932 43.5724 73.9408 43.5899 73.997L43.6351 74.1112C44.7226 73.3615 45.9628 72.8624 47.2664 72.6498C47.7217 72.616 48.1785 72.6869 48.6021 72.8571C49.0257 73.0272 49.4047 73.292 49.7101 73.6313C50.0697 73.9801 50.6724 74.776 50.2583 75.2989C50.0766 75.529 49.7791 75.5044 49.4594 75.4132C49.8013 76.0066 50.0053 76.6906 49.5958 77.1713C49.4975 77.2939 49.3601 77.3789 49.2065 77.4122C49.0529 77.4454 48.8926 77.4248 48.7524 77.3538C48.7562 77.4609 48.7485 77.5681 48.7294 77.6735C48.5707 78.1727 47.6353 78.379 46.6745 77.5141C46.314 77.954 45.7993 78.2397 45.2353 78.313C45.4002 78.7516 45.8748 79.9807 45.8748 79.9807C45.9208 80.2314 45.5781 80.5059 45.4408 80.6884C43.1114 83.4748 39.7991 86.0211 36.078 86.3976C34.5381 86.5831 32.9789 86.278 31.6225 85.5258C31.263 86.0217 30.9497 86.5494 30.6863 87.1023C30.2624 88.1805 30.2676 89.3802 30.7008 90.4547C31.134 91.5292 31.9624 92.397 33.0157 92.8797C33.9864 93.2324 35.0008 93.4471 36.0305 93.5192C41.351 94.2453 48.3813 93.8619 53.3644 91.9205C53.8115 91.7426 54.2399 91.5209 54.6433 91.2588C54.8703 91.1308 55.0474 90.9291 55.1456 90.6876C55.4745 89.0452 53.7754 83.5752 53.3414 80.5044Z" fill="white"/>
<path d="M48.2454 59.1007C47.145 59.0755 46.0692 58.7704 45.1194 58.2144L44.8893 60.5437C44.8893 60.9862 44.4738 60.5698 41.3032 61.3435C40.7216 61.491 40.1496 61.6741 39.5903 61.8917C39.723 61.9615 39.861 62.022 40.0021 62.0742C46.4512 64.9518 50.127 63.347 50.6982 63.0901C50.0769 62.3697 49.3218 61.7765 48.4747 61.3435V62.0059C48.4747 62.3126 48.0982 62.2636 48.0982 61.9569C48.1005 61.1265 48.1902 59.8544 48.2454 59.1007Z" fill="white"/>
<path d="M31.6448 85.0026C32.9112 85.7518 34.3827 86.0799 35.8474 85.9396C39.5278 85.6735 43.0372 82.9493 45.3934 80.0011L43.2013 74.3609C41.2344 74.8009 39.3623 75.5898 37.6738 76.6903C34.9832 78.5244 34.879 79.3072 34.5454 78.9737C34.5238 78.953 34.5065 78.9282 34.4948 78.9008C34.483 78.8733 34.4769 78.8437 34.4769 78.8138C34.4769 78.7839 34.483 78.7543 34.4948 78.7268C34.5065 78.6994 34.5238 78.6746 34.5454 78.6539C35.3758 77.8526 36.2694 77.1195 37.2175 76.4618C37.2942 75.9059 37.9843 71.9249 38.4052 68.1257C38.942 63.3343 38.702 62.3751 38.702 62.3022C36.4715 63.0868 34.4486 64.3684 32.7865 66.0501C30.2309 68.6785 29.0003 72.3513 28.676 75.9619C28.3723 79.3402 28.8201 83.1195 31.6448 85.0026Z" fill="white"/>
<path d="M73.4163 71.101C73.8471 70.6284 74.2508 70.1317 74.6254 69.6135C75.0203 69.0208 74.6952 68.346 73.463 69.0323C72.2309 69.7185 69.9644 72.2526 69.9644 72.2526L71.5914 77.146C72.3673 76.7813 73.1203 76.3698 73.8464 75.9138C74.8923 75.2399 74.8577 73.6826 74.6024 72.787C74.3522 72.1358 73.9447 71.5566 73.4163 71.101Z" fill="white"/>
<path d="M75.0371 73.9042C74.9062 72.8291 74.4692 71.8143 73.7781 70.9806C74.3715 70.3411 75.6512 68.7869 74.6 68.4917C74.0296 68.3307 73.3878 68.8314 72.9561 69.1542C71.8893 69.9798 70.8895 70.8884 69.9658 71.8715C69.8968 71.689 69.8516 71.5288 69.7825 71.3463C69.7662 71.2896 69.7287 71.2413 69.6777 71.2114C69.6268 71.1816 69.5663 71.1725 69.5088 71.186C68.0198 71.5065 66.724 72.468 65.3753 73.1029C63.9185 73.793 62.2316 74.3236 60.6475 73.7201C57.8826 72.6659 57.8297 69.5345 51.8567 64.0154C51.1326 62.6133 49.9582 61.4953 48.5221 60.8411L48.6594 59.1542C53.2599 59.2585 54.4522 55.6877 53.9124 51.1149C53.8016 50.0798 53.6028 49.056 53.3181 48.0548H54.1616C54.1923 48.0567 54.223 48.052 54.2518 48.0411C54.2806 48.0303 54.3067 48.0134 54.3285 47.9916C54.3502 47.9699 54.3671 47.9437 54.378 47.915C54.3889 47.8862 54.3935 47.8554 54.3916 47.8247C54.4233 46.4869 54.1501 45.1593 53.5926 43.9427C52.3697 41.3066 49.9123 40.1695 46.9219 40.2201C44.9782 40.2523 43.1089 40.4938 41.9664 42.0925C41.14 41.9568 40.2929 42.023 39.4976 42.2855C38.7023 42.548 37.9822 42.9989 37.3989 43.5999C35.0803 45.9853 36.8837 48.376 35.9605 50.9538C35.0373 53.5316 32.7401 55.2016 32.7854 55.6578C32.8306 56.1141 34.9008 58.1268 38.3351 59.3122C40.3593 60.0038 42.553 60.0283 44.5925 59.3804L44.5013 60.2714C42.8835 60.4362 40.0457 60.9047 38.7009 61.8049C35.9617 62.7287 33.534 64.3971 31.6897 66.6231C27.9142 71.1699 26.3225 81.8186 31.2557 85.2359C31.1867 85.3272 31.1392 85.4399 31.0732 85.5327C30.6099 86.1306 30.2684 86.8137 30.068 87.5431C29.794 88.6845 29.9326 89.886 30.4593 90.9351C30.9859 91.9842 31.8666 92.8131 32.9456 93.2753C32.9668 93.2869 32.99 93.2944 33.0139 93.2975C32.7631 94.0973 32.1283 97.1313 34.7268 101.425C37.7938 106.492 32.5991 126.033 35.275 141.689C35.2906 141.758 35.3241 141.821 35.3722 141.873C35.4202 141.925 35.4811 141.964 35.5487 141.985V143.195H35.5265C35.4691 143.182 35.4089 143.192 35.3581 143.221C35.3072 143.251 35.2693 143.299 35.252 143.355C34.905 144.471 34.9535 145.673 35.3893 146.758C35.4575 146.988 35.4805 147.218 35.5487 147.444C35.7075 147.969 36.2565 147.994 36.7364 148.037C37.6458 148.118 38.6441 148.324 38.9746 147.444C39.0888 147.214 39.2498 147.257 39.4768 147.329C39.8901 147.46 40.2765 147.694 40.6645 147.831C41.958 148.211 43.3288 148.243 44.6386 147.923C45.0944 147.819 45.5084 147.58 45.8262 147.238C45.949 147.081 46.037 146.901 46.0842 146.708C46.1314 146.515 46.1368 146.314 46.1 146.119C45.7618 145.189 43.7583 145.352 42.3774 144.383C42.5147 144.406 42.6519 144.406 42.7662 144.429C43.6717 144.506 44.6738 144.716 45.0043 143.835C45.2259 143.391 45.9244 143.957 46.6911 144.223C47.9854 144.597 49.3548 144.628 50.6644 144.314C52.3183 143.943 52.5514 142.271 51.5554 141.937C50.7787 141.595 49.9146 141.496 49.1118 141.138C47.533 140.433 47.2079 139.394 46.6451 138.694C46.1721 138.106 45.7848 138.222 45.6399 138.511L45.5034 138.051C45.5122 138.042 45.5188 138.032 45.5228 138.02C45.5268 138.008 45.5281 137.995 45.5264 137.983C49.5434 122.314 50.5663 110.628 51.2809 92.9241C52.5748 92.6153 53.8152 92.115 54.9613 91.4397C55.8415 90.8263 55.6928 90.0159 55.5548 88.9501C55.2588 86.6629 54.512 84.2952 54.1393 82.3047C55.3745 83.365 56.8347 84.1303 58.4094 84.5428C62.6265 85.6262 68.6777 81.3355 71.9041 78.2394C72.0475 78.1021 71.9877 78.0561 71.7508 77.2656L72.0092 77.1675C72.875 76.8616 73.6603 76.3638 74.3064 75.7114C74.5446 75.4757 74.7323 75.1938 74.8579 74.8831C74.9836 74.5723 75.0445 74.2393 75.0371 73.9042ZM43.4984 56.1133C42.8181 55.1518 42.3579 54.0523 42.1505 52.8929C42.1052 52.5962 41.6712 52.7335 41.7165 53.0072L41.6942 53.0302C41.807 53.6658 41.991 54.2861 42.2425 54.8804C41.6452 55.1495 40.9682 55.1821 40.3478 54.9716C39.8029 54.7468 39.357 54.3334 39.0919 53.8069C38.5851 52.7925 38.5214 51.226 39.7774 50.7238C40.7649 50.3949 41.2848 51.1118 41.764 51.272C41.8882 51.4783 41.9833 51.8509 42.2892 51.7283C42.3122 51.7283 42.3115 51.7053 42.3352 51.683C43.9416 50.1557 45.0419 50.4171 44.9614 50.0161V48.0318L45.8523 49.3797C45.8763 49.4231 45.9137 49.4576 45.9588 49.4781C46.004 49.4985 46.0546 49.5038 46.103 49.4932C47.2858 49.0838 48.4904 48.7408 49.7114 48.4657C50.0326 50.8204 49.6086 50.1442 51.5845 52.1201C51.6288 52.1504 51.6823 52.1642 51.7357 52.1593C51.7891 52.1543 51.8391 52.1308 51.8771 52.0929C51.915 52.0549 51.9385 52.0049 51.9435 51.9515C51.9484 51.8981 51.9346 51.8446 51.9043 51.8003C50.5778 50.4739 50.4643 50.4332 50.3508 50.0192C50.2703 49.5752 50.1898 48.419 50.1453 48.3745C51.0206 48.1687 51.9187 48.0767 52.8175 48.1008C54.1424 52.9589 54.1731 58.5063 49.1179 58.6972C48.6829 58.7226 48.2465 58.7072 47.8144 58.6512C47.0323 58.5439 46.2702 58.3215 45.5533 57.9895C44.7433 57.5165 44.0429 56.877 43.4984 56.1133ZM44.6861 60.7721C44.7169 60.7742 44.7477 60.7697 44.7766 60.759C44.8055 60.7482 44.8317 60.7313 44.8535 60.7095C44.8753 60.6877 44.8922 60.6614 44.903 60.6326C44.9138 60.6037 44.9183 60.5728 44.9161 60.542L45.1461 58.2119C46.0783 58.7572 47.1277 59.0706 48.2062 59.1259C48.0952 60.0808 48.0496 61.0423 48.0698 62.0035C48.0655 62.0359 48.0683 62.0689 48.0778 62.1001C48.0874 62.1314 48.1035 62.1603 48.125 62.1849C48.1466 62.2095 48.1732 62.2292 48.203 62.2427C48.2328 62.2561 48.2652 62.2631 48.2979 62.2631C48.3306 62.2631 48.3629 62.2561 48.3927 62.2427C48.4225 62.2292 48.4491 62.2095 48.4707 62.1849C48.4923 62.1603 48.5084 62.1314 48.5179 62.1001C48.5274 62.0689 48.5302 62.0359 48.526 62.0035V61.341C49.3472 61.7673 50.0742 62.3545 50.6637 63.0677C49.1478 63.8253 44.6761 64.2569 40.0534 62.0709C39.9146 62.0058 39.7797 61.9567 39.6424 61.8884C41.2628 61.2811 42.9607 60.9053 44.6861 60.7721ZM28.6994 75.9591C29.0498 72.3745 30.2543 68.6749 32.8099 66.0481C34.4656 64.359 36.4905 63.0769 38.7254 62.3025C38.7254 62.511 38.9953 63.0179 38.4279 68.1259C38.01 71.893 37.3077 75.9897 37.241 76.462C36.2884 77.1139 35.3943 77.8474 34.5688 78.6542C34.5364 78.6854 34.5142 78.7257 34.5052 78.7698C34.4961 78.8138 34.5007 78.8596 34.5182 78.9011C34.53 78.9285 34.5473 78.9533 34.5688 78.9739C34.9001 79.3059 34.9821 78.5415 37.6972 76.6905C37.7202 76.6905 37.7202 76.6675 37.7432 76.6675C39.4139 75.5704 41.2714 74.7887 43.2239 74.3611L45.4168 80.0014C38.3919 88.7829 27.4979 88.2462 28.6994 75.9591ZM49.6255 74.9922C49.3436 74.9013 49.0784 74.7651 48.8403 74.5889C48.6103 74.4294 48.3887 74.7767 48.5896 74.9776C48.7522 75.1938 48.8971 75.4231 49.0236 75.6623C49.1769 75.9614 49.4767 76.5057 49.2743 76.85C49.0888 77.1682 48.7261 76.9183 48.3841 76.5985C48.2097 76.3574 48.0188 76.1287 47.8129 75.9138C47.7687 75.8749 47.7115 75.8541 47.6526 75.8558C47.5938 75.8575 47.5377 75.8814 47.4959 75.9228C47.454 75.9642 47.4294 76.0199 47.4271 76.0787C47.4247 76.1376 47.4448 76.1951 47.4832 76.2397C47.6365 76.4252 48.2699 77.0432 48.2699 77.4665C48.2699 77.8322 47.6289 77.6528 47.4479 77.5577C47.1971 77.4242 46.9726 77.2463 46.7854 77.0325C46.7546 76.9996 46.7142 76.9771 46.67 76.968C46.6258 76.959 46.5799 76.9638 46.5386 76.9819C46.5111 76.9936 46.4863 77.0108 46.4657 77.0325C46.2976 77.2675 46.0832 77.4658 45.8357 77.615C45.5882 77.7643 45.3129 77.8614 45.0265 77.9005L43.7476 74.6119C44.5543 74.0747 45.4317 73.652 46.3545 73.3559C46.8966 73.1021 47.5103 73.0453 48.0897 73.1954C48.6691 73.3454 49.1781 73.6929 49.5289 74.1779C49.6822 74.3558 49.7988 74.562 49.8708 74.7852C49.9567 75.098 49.8632 75.0673 49.6255 74.9922ZM35.9843 143.353V142.098C36.9976 142.161 38.0145 142.13 39.0221 142.006C39.6064 143.898 39.3288 142.87 39.4331 144.085L35.9843 143.353ZM42.0362 139.768V138.512C43.0498 138.575 44.0666 138.544 45.0741 138.421C45.6261 140.318 45.3639 139.264 45.462 140.545L42.0362 139.768ZM45.5533 98.5459C45.5103 101.747 45.2167 105.991 45.0058 109.234C44.6336 116.342 43.8172 123.421 42.5614 130.427C41.1606 138.095 41.0693 136.569 41.3285 138.124C41.3442 138.193 41.3778 138.257 41.426 138.309C41.4742 138.361 41.5352 138.4 41.603 138.421V139.654H41.58C41.5223 139.641 41.4621 139.651 41.4113 139.681C41.3607 139.711 41.323 139.758 41.3055 139.814C40.7404 142.533 41.4328 142.748 41.557 143.742C40.9045 142.915 40.2481 141.383 39.5926 142.258L39.4561 141.797C39.568 141.686 40.7404 136.564 40.9635 135.54C42.3604 129.936 43.3222 124.232 43.8404 118.48C44.2237 114.394 44.5151 110.122 44.6401 108.021C45.288 97.1022 44.9353 97.0815 45.3708 97.0815C45.7519 97.0845 45.5663 97.5637 45.5533 98.5459ZM55.1683 90.6898C54.6845 91.9005 50.4329 92.8774 49.0251 93.1335C44.7495 93.9532 40.3703 94.0842 36.0533 93.5214C35.0224 93.457 34.0066 93.2416 33.0384 92.882C31.98 92.4052 31.1468 91.5379 30.7127 90.4613C30.2787 89.3847 30.2773 88.1821 30.709 87.1045C30.9851 86.5578 31.2979 86.0303 31.6452 85.5258C33.0073 86.26 34.5604 86.5627 36.0985 86.3937C39.8226 86.0441 43.1158 83.4563 45.462 80.6845C45.5978 80.5243 45.942 80.2245 45.896 79.9768C45.896 79.9768 45.4206 78.75 45.2566 78.3091C45.8136 78.2155 46.3217 77.9335 46.6957 77.5102C47.3743 78.1888 48.5359 78.3498 48.7506 77.6697C48.7924 77.5683 48.8005 77.4562 48.7736 77.3499C48.9138 77.4209 49.0741 77.4415 49.2277 77.4083C49.3813 77.3751 49.5187 77.29 49.6171 77.1675C50.0265 76.6867 49.8225 76.0028 49.4798 75.4093C50.4267 75.7727 50.8738 74.7338 49.7313 73.6274C49.4241 73.2904 49.0449 73.0271 48.6217 72.8572C48.1986 72.6872 47.7426 72.615 47.2877 72.6459C45.9827 72.853 44.7413 73.3529 43.6563 74.1074L43.6111 73.9931C43.5935 73.937 43.5556 73.8895 43.5049 73.8599C43.4541 73.8303 43.3941 73.8206 43.3366 73.8329C41.3621 74.2333 39.4801 75.0005 37.7884 76.0948C38.2178 73.5208 39.6102 64.7308 39.2046 62.1637C41.7292 63.4531 44.5226 64.128 47.3574 64.1335C48.5978 64.1316 49.8277 63.9073 50.9888 63.471C51.1007 63.6949 51.1222 63.5868 52.2225 65.5489C57.559 75.0681 52.5568 74.7959 53.3642 80.5082C53.8426 83.8619 55.4842 89.1111 55.1683 90.6898ZM59.2789 84.3412C57.2974 84.0044 55.4654 83.0724 54.0266 81.669C53.7199 80.3817 53.6732 79.0468 53.8894 77.741C54.5028 74.608 56.9564 73.1313 52.6787 65.4316C57.4187 70.1709 57.3022 72.376 60.0786 73.9724C63.3986 75.6324 66.7685 72.5317 69.4643 71.689C70.2436 73.8094 70.9447 75.9578 71.566 78.1297C68.4584 80.808 63.3426 84.7445 59.2789 84.3412ZM71.911 76.8539L71.6649 76.9428C71.2049 75.4093 70.708 73.8758 70.169 72.3592C70.9593 71.5377 71.7913 70.7574 72.6617 70.0214C73.1192 69.5738 73.6632 69.2242 74.2604 68.9939C74.3746 68.9709 74.5563 68.9487 74.5801 69.0169C74.6989 69.3504 73.601 70.6117 73.3042 70.9092C73.259 70.887 72.4968 70.7743 71.0178 71.689C70.9712 71.7218 70.9386 71.7709 70.9266 71.8266C70.9147 71.8823 70.9242 71.9405 70.9532 71.9895C70.9823 72.0385 71.0287 72.0747 71.0834 72.091C71.138 72.1072 71.1967 72.1022 71.2478 72.077C71.8622 71.6546 72.5812 71.4097 73.3257 71.3693C73.8425 71.4981 73.7505 71.6998 73.4215 71.995C72.972 72.3734 72.4706 72.6856 71.9325 72.922C71.9054 72.9369 71.8815 72.9571 71.8622 72.9814C71.8429 73.0056 71.8287 73.0335 71.8202 73.0633C71.8118 73.0931 71.8094 73.1243 71.8132 73.1551C71.8169 73.1858 71.8267 73.2155 71.842 73.2425C71.857 73.2696 71.8772 73.2935 71.9014 73.3128C71.9257 73.3321 71.9535 73.3463 71.9834 73.3547C72.0132 73.3632 72.0444 73.3656 72.0751 73.3618C72.1059 73.3581 72.1356 73.3483 72.1625 73.3329C72.2768 73.2877 72.3926 73.2187 72.5283 73.1735C72.2323 74.0598 72.6655 74.707 73.213 74.5206C73.2926 74.4801 73.3695 74.4342 73.443 74.3834C73.443 74.4601 73.1286 75.5711 74.1055 75.5711C73.4364 76.0975 72.698 76.5292 71.911 76.8539ZM74.4206 74.9546C74.1661 75.0397 73.7811 75.065 73.7811 74.7721C73.8195 74.2953 73.9681 73.8338 74.2151 73.4242C74.2374 73.3719 74.2404 73.3134 74.2237 73.2591C74.207 73.2048 74.1717 73.1582 74.1239 73.1274C74.0737 73.1045 74.0173 73.0987 73.9636 73.1111C73.9098 73.1234 73.8615 73.1532 73.8264 73.1957C73.6799 73.3889 73.5189 73.5714 73.3449 73.7401C72.9216 74.1235 72.766 73.9448 72.8319 73.4978C72.8856 73.2164 72.9822 72.9457 73.1187 72.6935C73.433 72.5079 73.7106 72.2687 73.9406 71.9858C74.4175 72.9396 74.8929 74.01 74.4206 74.9546Z" fill="#4B1010"/>
<path d="M50.8066 56.433C50.9454 56.1222 51.0305 55.7901 51.0581 55.4508C51.0788 55.1541 50.598 55.1372 50.598 55.4968C50.5507 55.8615 50.426 56.2118 50.2323 56.5243C50.1471 56.6196 50.0397 56.6925 49.9196 56.7363C49.7995 56.7801 49.6705 56.7936 49.5439 56.7756C49.4174 56.7575 49.2972 56.7085 49.1942 56.6328C49.0912 56.5571 49.0084 56.4572 48.9533 56.3418C48.7317 55.7759 48.6527 55.1642 48.7233 54.5606H51.3126C51.3428 54.5606 51.3727 54.5547 51.4006 54.5431C51.4286 54.5316 51.4539 54.5146 51.4753 54.4933C51.4966 54.4719 51.5136 54.4466 51.5251 54.4186C51.5367 54.3907 51.5426 54.3608 51.5426 54.3306C51.5426 54.3004 51.5367 54.2705 51.5251 54.2426C51.5136 54.2147 51.4966 54.1893 51.4753 54.168C51.4539 54.1466 51.4286 54.1297 51.4006 54.1181C51.3727 54.1065 51.3428 54.1006 51.3126 54.1006H48.5523C48.5017 54.0982 48.4517 54.1126 48.4101 54.1416C48.3685 54.1706 48.3376 54.2125 48.3223 54.2608C47.7856 57.656 50.2982 57.8853 50.8066 56.433Z" fill="#4B1010"/>
<path d="M39.8672 51.706C39.8159 51.7393 39.7784 51.79 39.7617 51.8488C39.7449 51.9076 39.75 51.9704 39.7759 52.0257C39.8005 52.0604 39.8331 52.0887 39.8708 52.1082C39.9086 52.1277 39.9504 52.1378 39.9929 52.1378C40.0354 52.1378 40.0773 52.1277 40.115 52.1082C40.1528 52.0887 40.1853 52.0604 40.2099 52.0257L40.2552 52.0027C40.1907 52.0349 40.3717 51.9797 40.4384 51.9797H40.7121C40.7804 52.0027 40.8716 52.0257 40.9422 52.048C41.0955 52.1078 41.2412 52.1852 41.3761 52.278L41.3984 52.301C41.4214 52.301 41.3531 52.255 41.3761 52.278C41.3967 52.2998 41.4215 52.3171 41.449 52.3289C41.4765 52.3407 41.5061 52.3468 41.536 52.3468C41.5659 52.3468 41.5955 52.3407 41.623 52.3289C41.6505 52.3171 41.6753 52.2998 41.6959 52.278C41.7201 52.2273 41.7307 52.1711 41.7266 52.1151C41.7226 52.059 41.7041 52.005 41.6729 51.9583C41.748 51.9567 40.6339 51.131 39.8672 51.706Z" fill="#4B1010"/>
<path d="M47.3355 51.8884C47.6767 51.8539 47.7841 51.3172 47.5863 51.0204C47.7083 50.893 47.8085 50.7464 47.883 50.5865C47.8991 50.526 47.8916 50.4617 47.862 50.4065C47.8323 50.3514 47.7828 50.3097 47.7235 50.2897C47.6619 50.2745 47.5969 50.2827 47.541 50.3127C47.4229 50.43 47.4452 50.4998 47.3808 50.5635C47.3578 50.598 47.2098 50.7467 47.1753 50.7467C46.6355 50.8541 46.7666 51.9421 47.3355 51.8884Z" fill="#4B1010"/>
<path d="M52.1311 50.3581C52.4064 50.3305 52.6088 49.9218 52.3818 49.4679C52.543 49.3472 52.6627 49.1795 52.7246 48.9879C52.7371 48.9305 52.7276 48.8705 52.6979 48.8197C52.6683 48.769 52.6205 48.7313 52.5643 48.7142C52.5028 48.6992 52.4379 48.7071 52.3818 48.7364L52.3366 48.7824C52.3226 48.7932 52.3112 48.807 52.3032 48.8228C52.2953 48.8386 52.2909 48.856 52.2906 48.8737C52.1648 49.1252 52.1135 49.1367 51.8566 49.3077C51.8336 49.3077 51.8336 49.3307 51.8114 49.3537C51.4111 49.7531 51.7178 50.3995 52.1311 50.3581Z" fill="#4B1010"/>
<path d="M46.7183 54.8576C47.0817 54.8576 47.4302 54.7132 47.6872 54.4562C47.9441 54.1993 48.0885 53.8508 48.0885 53.4874C48.0885 53.124 47.9441 52.7755 47.6872 52.5185C47.4302 52.2616 47.0817 52.1172 46.7183 52.1172C46.3549 52.1172 46.0064 52.2616 45.7495 52.5185C45.4925 52.7755 45.3481 53.124 45.3481 53.4874C45.3481 53.8508 45.4925 54.1993 45.7495 54.4562C46.0064 54.7132 46.3549 54.8576 46.7183 54.8576Z" fill="#FFE55D"/>
<path d="M53.775 53.6925C53.9549 53.6925 54.1331 53.6571 54.2993 53.5882C54.4655 53.5194 54.6166 53.4184 54.7438 53.2912C54.8711 53.164 54.972 53.0129 55.0408 52.8467C55.1097 52.6804 55.1451 52.5023 55.1451 52.3223C55.1451 52.1424 55.1097 51.9642 55.0408 51.798C54.972 51.6317 54.8711 51.4807 54.7438 51.3535C54.6166 51.2262 54.4655 51.1253 54.2993 51.0564C54.1331 50.9876 53.9549 50.9521 53.775 50.9521C53.4116 50.9521 53.0631 51.0965 52.8061 51.3535C52.5491 51.6104 52.4048 51.9589 52.4048 52.3223C52.4048 52.6857 52.5491 53.0342 52.8061 53.2912C53.0631 53.5482 53.4116 53.6925 53.775 53.6925Z" fill="#FFE55D"/>
<path d="M114.135 36.4955C113.571 32.8765 111.983 29.4949 109.556 26.751C107.13 24.0072 103.969 22.016 100.446 21.0133C97.8116 20.2628 95.0467 20.086 92.3379 20.4948C89.6292 20.9036 87.0395 21.8885 84.7437 23.383C82.4478 24.8775 80.4991 26.847 79.029 29.1585C77.5589 31.4701 76.6015 34.07 76.2214 36.7829C75.8414 39.4959 76.0474 42.2588 76.8258 44.8853C77.6041 47.5119 78.9366 49.941 80.7334 52.0089C82.5301 54.0768 84.7494 55.7353 87.2416 56.8727C89.7337 58.0102 92.4408 58.6 95.1803 58.6024C97.9453 58.5987 100.677 57.9978 103.188 56.8409C105.7 55.684 107.932 53.9984 109.731 51.8993C111.531 49.8002 112.856 47.3371 113.617 44.6786C114.377 42.02 114.553 39.2287 114.135 36.4955Z" fill="#FFE55D"/>
<path d="M99.337 39.9435C99.2648 40.3197 99.0524 40.6543 98.7428 40.8797C98.3832 41.1537 97.9922 41.3838 97.5781 41.5652C97.418 41.6654 97.2304 41.7127 97.0419 41.7005C96.8534 41.6882 96.6735 41.617 96.5277 41.497C96.3835 41.3262 96.31 41.1068 96.3222 40.8836C96.2739 40.1314 96.2762 40.2012 96.2762 40.1299C95.1613 40.3215 94.0833 40.6827 93.0788 41.2033C93.0788 41.3252 93.0942 41.2186 92.6456 41.98C91.5423 43.8494 90.3155 46.786 90.3155 48.8087C90.4796 48.9107 90.2871 48.5327 92.5766 54.0387C92.9385 53.9697 93.3089 53.962 93.6731 54.0157C94.2228 54.0939 94.7649 54.2158 95.2947 54.3807C98.0711 53.8347 100.892 53.5526 103.721 53.5372C102.846 50.231 102.878 42.3473 102.991 42.3473C102.991 42.302 103.005 42.2578 103.03 42.2203C103.055 42.1827 103.091 42.1534 103.133 42.1361C103.175 42.1188 103.221 42.1141 103.265 42.1228C103.31 42.1314 103.351 42.153 103.383 42.1847C103.426 42.2279 103.451 42.2863 103.451 42.3473C103.451 52.9461 104.273 53.2267 104.273 53.7887C104.272 53.8497 104.248 53.9081 104.205 53.9512C104.162 53.9942 104.104 54.0185 104.043 54.0188C101.176 54.0158 98.3154 54.2911 95.5018 54.8407C95.5248 54.9097 95.5248 54.9549 95.547 55.0232C96.2371 57.8479 96.2179 57.614 96.1182 57.7643C96.0965 57.7921 96.0688 57.8147 96.0373 57.8305C96.0057 57.8463 95.971 57.8549 95.9357 57.8556C94.6698 57.9782 93.3924 57.9169 92.1442 57.6731C91.9832 57.6121 91.8468 57.4997 91.7562 57.3533C91.231 57.3533 90.6827 57.3303 90.1575 57.3303C88.7283 57.3303 88.7007 57.4507 88.4446 56.8703C86.9471 53.5395 85.2051 49.6629 85.179 49.5862C85.1459 49.526 85.1274 49.459 85.125 49.3903C85.1226 49.3217 85.1364 49.2535 85.1653 49.1912C85.1942 49.129 85.2374 49.0744 85.2913 49.0319C85.3453 48.9894 85.4084 48.9602 85.4758 48.9467C85.5524 48.87 85.4758 48.8493 89.3095 48.7865C89.4467 48.7865 89.6522 48.7405 89.8577 48.7405C90.1475 46.2557 90.9734 43.8636 92.2783 41.7293C91.7119 42.119 91.1911 42.5711 90.7257 43.0772C89.9872 43.889 89.3716 44.8045 88.8985 45.7946C88.5172 46.6444 87.8561 47.3377 87.0253 47.759C86.701 47.9311 86.3238 47.975 85.9687 47.8818C85.6136 47.7886 85.3065 47.5652 85.1085 47.256C84.8577 46.6602 84.7037 46.0281 84.6523 45.3836C84.5135 43.6664 84.5058 41.9411 84.6293 40.2226L79.9705 39.5142C78.3704 42.3064 77.8121 45.5755 78.3948 48.7405C78.4715 49.1798 78.8096 49.6659 79.6738 50.8651C81.4412 53.2745 83.7459 55.2387 86.4049 56.602C89.0639 57.9653 92.004 58.6901 94.992 58.7189C97.9799 58.7477 100.934 58.0797 103.618 56.7679C106.303 55.4561 108.645 53.5367 110.459 51.1618C109.654 45.5193 105.534 40.4205 99.337 39.9435Z" fill="#FFE55D"/>
<path d="M98.7569 37.9102C98.088 38.3302 97.348 38.6244 96.5732 38.7781C96.5955 38.8011 96.6231 39.3493 96.6645 39.7603C96.7649 40.7632 96.6768 41.1297 96.8815 41.2662C97.133 41.3506 97.3461 41.2141 97.7801 41.0278C98.8467 40.491 98.9302 40.031 98.9302 39.3953C98.8551 38.7129 98.8206 38.6769 98.7569 37.9102Z" fill="white"/>
<path d="M90.2468 28.525C90.4002 28.4383 90.5727 28.3916 90.7491 28.3877C90.8257 28.3877 95.0321 28.8271 97.2917 27.6977C97.4405 27.5489 97.6145 27.7168 97.692 27.7943C98.5881 28.4846 99.2371 29.4461 99.5421 30.5354C99.6726 30.3835 99.8334 30.2605 100.014 30.1742C100.195 30.088 100.392 30.0405 100.592 30.0347C100.792 30.0285 100.991 30.064 101.177 30.139C101.362 30.214 101.53 30.3268 101.67 30.4702C102.14 29.5801 102.322 28.5662 102.192 27.5681C102.109 27.0671 101.911 26.5922 101.613 26.1812C101.314 25.7703 100.924 25.4344 100.474 25.2004C100.116 25.0545 99.742 24.9531 99.3596 24.8983C98.908 24.8162 98.9165 23.8854 97.3462 23.2566C95.5175 22.5244 93.7578 24.0863 91.9851 23.9467C91.9084 23.9467 90.8441 23.5549 91.4943 24.2051C91.6308 24.4183 91.8348 24.5808 92.074 24.6652C92.3255 24.6882 92.3937 25.0754 92.1422 25.1252C91.5964 25.2255 91.0764 25.435 90.6134 25.741C90.1504 26.0471 89.754 26.4434 89.4479 26.9064C89.1423 27.4563 88.7022 27.9198 88.1689 28.2535C88.4739 28.4492 88.8183 28.575 89.1775 28.6219C89.5367 28.6689 89.9019 28.6357 90.2468 28.525Z" fill="#FFE55D"/>
<path d="M100.219 33.9185C100.216 33.8679 100.231 33.8179 100.26 33.7763C100.289 33.7347 100.331 33.7038 100.379 33.6885C101.347 33.4646 101.698 32.2064 101.568 31.4297C101.56 31.2022 101.474 30.9845 101.324 30.8133C101.174 30.6421 100.969 30.5281 100.745 30.4904C100.521 30.4521 100.29 30.4921 100.092 30.6038C99.8937 30.7156 99.7401 30.8921 99.6568 31.1038C99.6402 31.1485 99.6092 31.1864 99.5687 31.2116C99.5281 31.2367 99.4804 31.2476 99.4329 31.2426C99.3856 31.2372 99.3414 31.2162 99.3074 31.1828C99.2734 31.1495 99.2514 31.1058 99.2451 31.0586C98.5136 28.4232 97.5858 28.2055 97.4049 28.0981C95.3224 28.7871 93.119 29.0332 90.9358 28.8204C90.7078 30.3831 90.7598 31.9738 91.0892 33.5183C92.6142 40.1499 100.154 40.0196 100.219 33.9185Z" fill="white"/>
<path d="M93.2055 55.3278C92.7807 55.406 92.3605 55.508 91.9472 55.6345C91.1621 55.9121 92.6779 56.1812 93.2852 56.1812C93.4386 56.1812 93.7023 56.4496 93.289 56.5799C93.1986 56.6083 93.1464 56.6252 92.4395 56.8307C91.7755 57.0959 92.1926 57.1826 92.6695 57.2439C93.6747 57.3988 94.6945 57.441 95.7089 57.3712C95.4789 56.3698 95.0955 54.7949 95.0955 54.7175C94.2618 54.4501 93.3854 54.3411 92.5116 54.3962C92.4349 54.4154 91.8215 54.5611 91.866 54.7029C92.3245 54.8639 92.8037 54.956 93.289 54.9782C93.3964 54.9751 93.4731 55.3278 93.2055 55.3278Z" fill="white"/>
<path d="M83.7846 38.2083C83.7902 37.4703 83.6425 36.7392 83.3506 36.0614C83.1939 35.5507 82.9629 35.0657 82.6651 34.6222C82.6425 34.594 82.6117 34.5734 82.5769 34.5634C82.5421 34.5534 82.5051 34.5545 82.4709 34.5664C82.4368 34.5784 82.4072 34.6006 82.3862 34.6301C82.3652 34.6596 82.3539 34.6949 82.3538 34.7311C82.3325 35.1166 82.3614 35.5032 82.4397 35.8812C81.8907 35.7739 80.9952 35.7647 80.9561 36.2355C80.9797 37.2847 81.0949 38.3299 81.3003 39.3592C82.1054 39.465 83.3705 39.6368 83.8344 39.6927C83.7718 39.2005 83.7552 38.7036 83.7846 38.2083Z" fill="white"/>
<path d="M95.1114 19.8233C90.8909 19.83 86.7844 21.1937 83.3983 23.7129C80.0122 26.2322 77.5258 29.7735 76.3064 33.814C75.087 37.8545 75.1991 42.18 76.6263 46.1519C78.0534 50.1238 80.7199 53.5315 84.232 55.872C87.7441 58.2124 91.9157 59.3615 96.1309 59.1495C100.346 58.9376 104.381 57.3759 107.641 54.6949C110.901 52.014 113.212 48.356 114.233 44.261C115.255 40.166 114.933 35.851 113.314 31.9532C112.323 29.565 110.871 27.3957 109.041 25.5694C107.211 23.7431 105.039 22.2956 102.649 21.31C100.258 20.3239 97.6971 19.8187 95.1114 19.8233ZM95.1804 58.6024C91.3907 58.598 87.6874 57.4699 84.5388 55.3607C81.3902 53.2516 78.9377 50.2562 77.4916 46.7532C76.0454 43.2503 75.6705 39.3971 76.4142 35.6811C77.1579 31.9651 78.9868 28.553 81.6697 25.8764C84.3526 23.1998 87.769 21.379 91.4868 20.644C95.2046 19.9091 99.0568 20.2931 102.556 21.7476C106.056 23.202 109.045 25.6615 111.147 28.8151C113.249 31.9686 114.368 35.6746 114.364 39.4643C114.363 41.9812 113.866 44.4732 112.901 46.7978C111.936 49.1224 110.523 51.2341 108.741 53.012C106.959 54.7896 104.844 56.1983 102.517 57.1575C100.191 58.1168 97.6973 58.6078 95.1804 58.6024Z" fill="#4B1010"/>
<path d="M110.847 50.8148C109.855 44.8625 105.575 39.9576 99.3362 39.4876C99.3362 39.4056 99.3224 39.391 99.1307 37.6374C99.2841 37.4841 99.4374 37.3353 99.5647 37.1774C100.241 36.2665 100.602 35.1603 100.593 34.026C100.881 33.9038 101.142 33.7255 101.361 33.5014C101.58 33.2774 101.752 33.0121 101.867 32.721C101.982 32.4295 102.038 32.118 102.03 31.8048C102.023 31.4916 101.954 31.1829 101.826 30.8969C103.639 27.3837 101.903 24.8396 99.36 24.5943C99.0147 24.0085 98.5139 23.5298 97.9131 23.2113C97.3123 22.8928 96.635 22.7471 95.9564 22.7901C94.3301 22.9388 92.8073 23.8796 91.7316 23.5438C91.4579 23.4748 91.1389 23.4526 91.0009 23.7493C90.935 23.9549 90.9396 24.1766 91.0141 24.3793C91.0885 24.5819 91.2285 24.7539 91.4118 24.868C90.6127 25.1249 89.9009 25.5994 89.3562 26.2382C88.9122 26.7749 88.6554 27.4366 88.032 27.8138C87.7606 27.9787 87.5344 28.1757 87.7575 28.4993C88.2107 29.1549 89.6522 29.2492 90.3844 28.9594C90.4764 28.9594 90.33 28.9295 90.3154 30.8088C90.284 34.9293 92.1817 38.7829 96.0814 38.8244C96.0814 38.9777 96.1143 39.3051 96.1389 39.7153C94.7404 39.9307 93.4024 40.4362 92.2108 41.1993C91.0192 41.9624 90.0004 42.9662 89.2197 44.1464C88.4591 45.3172 88.042 46.7832 86.7301 47.3667C86.3643 47.504 85.81 47.5753 85.5424 47.2755C84.6622 46.2994 84.9083 41.4321 85.0172 40.0358C85.0193 39.9853 85.0049 39.9355 84.9761 39.894C84.9473 39.8524 84.9057 39.8215 84.8577 39.8058L84.1722 39.6915C84.1722 39.1119 84.4513 36.7296 83.167 34.7123C83.0549 34.4974 82.8796 34.3221 82.6648 34.2101C82.5526 34.1772 82.4322 34.1871 82.3269 34.2378C82.2215 34.2885 82.1387 34.3764 82.0943 34.4846C81.9816 34.8489 81.9816 35.2389 82.0943 35.6032C81.6437 35.5197 81.1781 35.6095 80.7908 35.8547C80.1828 36.4336 80.7011 38.3743 80.9051 39.1886C80.3584 39.1027 80.5984 39.138 79.8316 39.0291C79.783 39.0183 79.7322 39.0236 79.6868 39.0442C79.6415 39.0648 79.604 39.0996 79.5801 39.1433C77.8374 42.0083 77.2038 45.4122 77.799 48.7123C77.8496 49.019 77.9577 49.3142 78.1187 49.5803C79.748 52.3575 82.036 54.6909 84.7806 56.3745C87.5253 58.0581 90.6422 59.04 93.8562 59.2337C97.0701 59.4279 100.282 58.828 103.21 57.4869C106.137 56.1458 108.689 54.1048 110.64 51.544C110.746 51.459 110.823 51.3432 110.86 51.2125C110.898 51.0818 110.893 50.9428 110.847 50.8148ZM90.2472 28.5024C89.9114 28.6231 89.5514 28.6612 89.1978 28.6136C88.8442 28.5659 88.5072 28.4339 88.2153 28.2287C88.7292 27.8717 89.1643 27.4129 89.4934 26.8807C89.7916 26.4105 90.1859 26.0087 90.6504 25.7017C91.1149 25.3947 91.6391 25.1895 92.1886 25.0995C92.4623 25.0512 92.3711 24.6656 92.1196 24.6395C92.0174 24.6182 91.9205 24.577 91.8343 24.5182C91.7481 24.4594 91.6744 24.3841 91.6173 24.2968C91.1235 23.53 91.8474 24 92.0061 24C94.1231 24.1633 96.5107 21.7811 98.7205 24.3428C98.8785 24.5268 99.0402 24.914 99.291 24.9562C99.6887 25.0014 100.08 25.0936 100.456 25.2307C100.898 25.444 101.282 25.7609 101.576 26.1544C101.869 26.5479 102.064 27.0064 102.143 27.491C102.263 28.4912 102.072 29.5043 101.595 30.3916C101.466 30.2485 101.306 30.1361 101.127 30.0628C100.948 29.9895 100.756 29.9572 100.563 29.9681C100.37 29.9791 100.182 30.0331 100.013 30.1261C99.844 30.2192 99.6978 30.349 99.5854 30.5059C99.1813 29.3765 98.6477 28.2102 97.575 27.6743C97.544 27.6415 97.5037 27.6191 97.4596 27.6099C97.4154 27.6007 97.3696 27.6053 97.3281 27.6229C97.3006 27.6349 97.2758 27.6524 97.2552 27.6743C97.1188 27.7195 96.9593 27.7901 96.8213 27.8338C94.9122 28.4019 92.9099 28.5882 90.9288 28.382C90.8437 28.3881 90.8046 28.2793 90.2472 28.5024ZM90.8406 30.923C91.2119 30.8226 91.6035 30.8249 91.9736 30.9295C92.3437 31.0342 92.6785 31.2373 92.9423 31.5172C93.2528 32.0517 93.4069 32.6628 93.3862 33.2808C93.3663 33.8986 93.1729 34.4983 92.828 35.0113C92.6678 35.262 93.0581 35.4913 93.216 35.2413C94.3378 33.454 94.0257 30.4223 91.4348 30.4223C91.236 30.4255 91.0376 30.4406 90.8406 30.4676C90.8406 29.917 90.9004 29.0874 90.9319 28.8689C92.9423 28.8689 94.2933 29.1955 97.3956 28.1612C97.6125 28.1612 98.7289 29.1441 99.2457 31.107C99.2457 31.337 99.6567 31.344 99.6567 31.176C100.141 30.4676 100.794 30.2398 101.324 30.9015C101.467 31.142 101.555 31.411 101.582 31.6894C101.609 31.9679 101.575 32.2489 101.481 32.5124C101.387 32.776 101.236 33.0156 101.039 33.2143C100.843 33.413 100.604 33.5658 100.341 33.6618C100.293 33.6775 100.252 33.7085 100.223 33.75C100.194 33.7916 100.18 33.8414 100.182 33.8919C100.214 34.9307 99.9191 35.9534 99.3385 36.8155C97.049 39.9078 90.8406 38.5499 90.8406 30.923ZM96.615 38.7737C97.3766 38.6949 98.1072 38.4303 98.7427 38.0032C98.9122 38.707 98.9275 39.4393 98.7887 40.1501C98.5659 40.4521 98.282 40.7038 97.9554 40.8888C97.6288 41.0737 97.267 41.1878 96.8933 41.2235C96.7331 41.1323 96.7561 40.9728 96.7561 40.8355C96.6142 38.7745 96.6273 38.8504 96.615 38.7737ZM81.0676 36.4582C81.086 36.2458 81.1497 36.0618 81.3628 36.0618C81.6387 35.9689 81.9369 35.9657 82.2147 36.0526C82.3918 36.1131 82.3964 36.2343 82.3159 36.2603C82.0842 36.2997 81.8493 36.3171 81.6143 36.3125C81.5534 36.3098 81.4939 36.3312 81.4487 36.3721C81.4034 36.413 81.3762 36.4701 81.3728 36.531C81.3701 36.5919 81.3915 36.6515 81.4324 36.6967C81.4733 36.7419 81.5304 36.7692 81.5913 36.7725C81.668 36.7725 82.4624 36.633 82.6878 36.955C82.7645 37.0317 82.447 37.09 82.345 37.1153C82.175 37.137 82.0029 37.137 81.8329 37.1153C81.8027 37.1159 81.7729 37.1224 81.7453 37.1345C81.7176 37.1467 81.6927 37.1641 81.6718 37.1859C81.6509 37.2077 81.6346 37.2334 81.6236 37.2616C81.6127 37.2897 81.6075 37.3197 81.6082 37.3499C81.6086 37.3802 81.615 37.4101 81.627 37.4378C81.6391 37.4656 81.6565 37.4907 81.6784 37.5117C81.7002 37.5326 81.726 37.5491 81.7542 37.56C81.7824 37.5709 81.8126 37.5761 81.8428 37.5753C82.0491 37.5753 82.4892 37.5815 82.6418 37.7348C82.3043 37.8647 81.951 37.9492 81.5913 37.9863C81.5611 37.9861 81.5311 37.9919 81.5031 38.0034C81.4751 38.0149 81.4496 38.0318 81.4282 38.0532C81.4068 38.0746 81.3899 38.1001 81.3784 38.1281C81.3669 38.1561 81.3611 38.1861 81.3613 38.2163C81.3615 38.2773 81.3858 38.3357 81.4289 38.3787C81.472 38.4218 81.5304 38.4461 81.5913 38.4463C81.8068 38.421 82.0199 38.3835 82.2308 38.3329C82.536 38.2991 82.8235 38.1718 83.0535 37.9671C83.213 37.7371 83.0988 37.5331 82.8933 37.3959C83.2766 37.1781 83.111 36.6246 82.7338 36.4827C83.1057 36.2166 82.8143 35.946 82.6195 35.752C82.5109 35.436 82.4567 35.1039 82.4593 34.7698C82.4823 34.6103 82.4808 34.5398 82.5965 34.6785C82.8948 35.1217 83.1256 35.6063 83.2812 36.117C83.5734 36.7947 83.7212 37.5259 83.7152 38.2639C83.67 38.7031 83.67 39.1458 83.7152 39.585C83.5849 39.5528 81.6933 39.3066 81.4088 39.2691C81.2555 38.7377 81.1412 38.1956 81.0661 37.6474C81.0661 37.2556 81.0416 36.7603 81.0676 36.4582ZM78.9652 49.8763C78.6945 49.5383 78.4928 49.1504 78.3718 48.7346C77.7806 45.5694 78.3394 42.2972 79.9474 39.5075L84.6062 40.216C84.4919 41.9347 84.4996 43.6594 84.6292 45.377C84.6849 46.021 84.8387 46.6527 85.0854 47.2502C85.2827 47.5602 85.5898 47.7842 85.9453 47.8774C86.3008 47.9705 86.6783 47.9259 87.0023 47.7524C89.1239 46.9335 88.788 44.0812 92.2553 41.7234C90.9548 43.8598 90.1292 46.2509 89.8346 48.7346C89.6292 48.7346 89.4459 48.7775 89.2864 48.7798C85.4527 48.8427 85.5792 48.8749 85.4527 48.9401C85.3877 48.9573 85.3273 48.9888 85.2759 49.0321C85.2244 49.0755 85.1832 49.1297 85.1552 49.1908C85.127 49.2517 85.1124 49.3181 85.1126 49.3853C85.1127 49.4524 85.1275 49.5187 85.1559 49.5795C85.182 49.6562 86.4863 52.5584 88.4215 56.8637C88.683 57.4441 88.7068 57.3237 90.1344 57.3237C90.6597 57.3237 91.1857 57.3467 91.7331 57.3467C91.818 57.4979 91.9564 57.612 92.1211 57.6664C93.3696 57.9094 94.6466 57.9708 95.9127 57.8489C95.9489 57.8489 95.9846 57.8406 96.0171 57.8246C96.0497 57.8087 96.0781 57.7855 96.1003 57.7569C96.1225 57.7282 96.1379 57.6949 96.1452 57.6594C96.1525 57.624 96.1517 57.5873 96.1427 57.5522C95.859 56.4021 95.5078 54.9146 95.481 54.8341C98.2936 54.2842 101.153 54.0089 104.019 54.0121C104.049 54.0139 104.08 54.0093 104.109 53.9985C104.138 53.9876 104.164 53.9709 104.186 53.9492C104.208 53.9274 104.224 53.9012 104.235 53.8724C104.246 53.8436 104.251 53.8128 104.249 53.7821C104.249 53.4662 103.426 51.8951 103.426 43.4141V42.3407C103.432 42.2918 103.423 42.2421 103.399 42.199C103.375 42.156 103.338 42.1217 103.293 42.1014C103.255 42.0846 103.214 42.078 103.173 42.0824C103.133 42.0867 103.094 42.1019 103.061 42.1263C103.028 42.1506 103.002 42.1834 102.986 42.2211C102.97 42.2588 102.965 42.3 102.97 42.3407C102.893 42.3407 102.846 50.3954 103.701 53.5306C100.869 53.5536 98.0458 53.8365 95.2663 54.374C95.1464 54.3137 95.0165 54.2758 94.8829 54.2621C94.1339 54.0101 93.3374 53.9314 92.5535 54.0321C90.2947 48.6019 90.448 48.8948 90.2916 48.8021C90.2886 48.8021 90.2855 48.8021 90.2832 48.8005C90.2803 48.7993 90.2777 48.7975 90.2755 48.7952C90.2733 48.7931 90.2717 48.7904 90.2709 48.7875C90.2701 48.7848 90.2695 48.7819 90.2694 48.7791C90.599 46.1096 91.5439 43.5531 93.0297 41.3109C93.0483 41.2759 93.0563 41.2362 93.0527 41.1967C94.0522 40.6655 95.1325 40.3029 96.25 40.1232C96.25 40.1938 96.25 40.1332 96.2953 40.8762C96.2798 41.0998 96.3537 41.3204 96.5008 41.4896C96.6459 41.6112 96.8259 41.6833 97.0148 41.6956C97.2037 41.7079 97.3916 41.6596 97.5512 41.5578C97.9714 41.388 98.3641 41.157 98.7167 40.8723C98.873 40.7637 99.006 40.6249 99.1079 40.4641C99.2098 40.3034 99.2786 40.1239 99.3101 39.9361C105.317 40.3962 109.394 45.0465 110.428 51.1307C108.556 53.5879 106.119 55.5577 103.324 56.8732C100.529 58.1887 97.4575 58.8111 94.3707 58.6878C91.2842 58.5646 88.2727 57.6997 85.5911 56.1663C82.9096 54.633 80.6368 52.4762 78.9652 49.8786V49.8763ZM93.285 54.923C92.9936 54.9183 92.7031 54.8877 92.4171 54.8318C91.1136 54.6692 93.0052 54.1317 94.4267 54.581C94.6391 54.6232 94.7886 54.6861 95.0401 54.752C95.0539 54.8287 95.4664 56.5869 95.6359 57.3214C94.5532 57.3939 93.4659 57.3479 92.3933 57.1842C92.1042 57.1259 92.0375 56.9978 92.4884 56.8407C92.6179 56.7954 93.272 56.6421 93.4215 56.5677C93.4589 56.5384 93.4863 56.4982 93.4999 56.4527C93.5135 56.4071 93.5127 56.3585 93.4976 56.3135C93.4825 56.2684 93.4538 56.2292 93.4154 56.2011C93.3771 56.173 93.331 56.1575 93.2835 56.1567C93.0059 56.1567 91.7768 56.044 91.7768 55.791C91.8442 55.7159 91.931 55.6607 92.0275 55.6315C92.3902 55.5062 92.7656 55.4218 93.147 55.38C93.5825 55.3823 93.5771 54.9844 93.285 54.9253V54.923Z" fill="#4B1010"/>
<path d="M100.182 32.0416C100.228 31.9133 100.301 31.7961 100.396 31.6978C100.49 31.5995 100.604 31.5222 100.731 31.4711C100.761 31.4651 100.79 31.4533 100.815 31.4362C100.841 31.4191 100.863 31.3971 100.88 31.3714C100.905 31.3327 100.918 31.2874 100.918 31.2413C100.917 31.1951 100.904 31.1501 100.878 31.1118C100.852 31.0734 100.816 31.0435 100.773 31.0256C100.731 31.0077 100.684 31.0026 100.639 31.0111C100.45 31.0641 100.276 31.1596 100.129 31.2902C99.9833 31.4208 99.8689 31.5832 99.7951 31.7648C99.5582 32.2363 100.033 32.3398 100.182 32.0416Z" fill="#4B1010"/>
<path d="M96.9388 35.3529C96.1314 35.7332 95.2673 35.9801 94.3809 36.0836C94.3506 36.0834 94.3206 36.0892 94.2926 36.1007C94.2646 36.1122 94.2392 36.1291 94.2178 36.1505C94.1964 36.1719 94.1795 36.1974 94.168 36.2254C94.1565 36.2534 94.1507 36.2834 94.1509 36.3136C94.1511 36.3746 94.1754 36.433 94.2185 36.4761C94.2616 36.5192 94.32 36.5435 94.3809 36.5437C95.2699 36.4422 96.1394 36.2116 96.9618 35.859C97.4724 36.8803 96.4933 37.5903 95.6146 37.2974C95.4304 37.2099 95.2719 37.0762 95.1546 36.9094C95.1238 36.8582 95.0741 36.8213 95.0163 36.8065C94.9584 36.7917 94.8971 36.8003 94.8456 36.8304C94.82 36.8454 94.7977 36.8654 94.7798 36.8891C94.762 36.9128 94.7491 36.9398 94.7417 36.9685C94.7344 36.9972 94.7328 37.0271 94.7371 37.0564C94.7413 37.0858 94.7514 37.114 94.7666 37.1394C94.9232 37.37 95.1398 37.5535 95.3929 37.6702C95.6461 37.787 95.9263 37.8325 96.2033 37.8019C96.4804 37.7713 96.7439 37.6658 96.9655 37.4966C97.1871 37.3275 97.3584 37.1011 97.4609 36.8419C97.5286 36.6035 97.543 36.3532 97.5033 36.1086C97.4635 35.8641 97.3705 35.6312 97.2309 35.4265C97.1988 35.3817 97.1518 35.3496 97.0983 35.3362C97.0448 35.3227 96.9883 35.3286 96.9388 35.3529Z" fill="#4B1010"/>
<path d="M98.0841 30.877C97.6127 30.4538 97.015 30.1977 96.3835 30.1482C95.7519 30.0987 95.1216 30.2587 94.59 30.6033C94.3409 30.7658 94.5693 31.1538 94.8201 30.9912C95.2634 30.6913 95.7945 30.5486 96.3284 30.5858C96.8624 30.6231 97.3685 30.8381 97.7659 31.1967C97.8102 31.2261 97.8634 31.2392 97.9163 31.2338C97.9691 31.2285 98.0185 31.2049 98.056 31.1672C98.0935 31.1296 98.1168 31.0801 98.122 31.0271C98.1271 30.9742 98.1137 30.9212 98.0841 30.877Z" fill="#4B1010"/>
<path d="M96.2081 33.252C96.331 33.2049 96.4307 33.1118 96.4861 32.9924C96.5415 32.8731 96.5482 32.7368 96.5048 32.6125C96.4281 32.2775 96.2272 32.2 95.9566 32.1103C95.8093 32.0735 95.7265 32.0421 95.6368 32.0873C95.5157 32.1479 95.5655 32.4071 95.6828 32.4071H95.7058C95.5471 32.7245 95.8208 33.3295 96.2081 33.252Z" fill="#4B1010"/>
<path d="M91.8459 32.2478C91.8042 32.2374 91.76 32.2437 91.7228 32.2653C91.6856 32.2869 91.6583 32.3222 91.6466 32.3636C91.6347 32.405 91.6394 32.4493 91.6595 32.4874C91.6797 32.5254 91.7138 32.5541 91.7547 32.5675C91.767 32.5661 91.7795 32.5673 91.7913 32.5711C91.8031 32.575 91.8139 32.5813 91.8229 32.5898C91.6328 33.0667 91.9763 33.5229 92.3029 33.4577C92.5774 33.4025 92.6863 33.0192 92.5766 32.7194C92.4379 32.3306 92.0269 32.3069 91.8459 32.2478Z" fill="#4B1010"/>
<path d="M97.5551 33.0466C97.4133 33.0469 97.2734 33.0785 97.1453 33.1393C97.0173 33.2 96.9042 33.2883 96.8143 33.3979C96.7244 33.5074 96.6598 33.6355 96.6252 33.773C96.5906 33.9105 96.5869 34.0539 96.6143 34.1929C96.6415 34.3323 96.6995 34.4639 96.7839 34.5781C96.8683 34.6923 96.977 34.7862 97.1023 34.8532C97.2275 34.9201 97.3661 34.9584 97.5079 34.9651C97.6498 34.9719 97.7913 34.947 97.9223 34.8922C98.1283 34.808 98.2985 34.6548 98.4039 34.4588C98.5092 34.2628 98.543 34.0362 98.4996 33.818C98.4562 33.5998 98.3382 33.4035 98.1658 33.2627C97.9935 33.122 97.7776 33.0456 97.5551 33.0466Z" fill="#FFE55D"/>
<path d="M91.2524 33.8465C91.0628 33.8469 90.8776 33.9034 90.7201 34.0089C90.5626 34.1144 90.4399 34.2642 90.3674 34.4393C90.2949 34.6145 90.2759 34.8072 90.3128 34.9932C90.3496 35.1791 90.4408 35.35 90.5746 35.4843C90.7087 35.6187 90.8797 35.7103 91.0659 35.7474C91.2521 35.7845 91.4452 35.7654 91.6206 35.6926C91.7959 35.6199 91.9457 35.4966 92.051 35.3386C92.1562 35.1805 92.2121 34.9948 92.2116 34.8049C92.2125 34.6788 92.1885 34.5537 92.1411 34.4369C92.069 34.2609 91.9458 34.1105 91.7874 34.0053C91.6289 33.9 91.4426 33.8447 91.2524 33.8465Z" fill="#FFE55D"/>
<path d="M46.4653 39.4438C46.8057 39.4438 46.6831 39.1847 46.716 37.8452C46.7088 37.7898 46.6817 37.7389 46.6397 37.702C46.5978 37.6651 46.5438 37.6448 46.4879 37.6448C46.432 37.6448 46.3781 37.6651 46.3361 37.702C46.2941 37.7389 46.267 37.7898 46.2598 37.8452C46.2483 38.3052 46.2368 38.7584 46.2368 39.2153C46.2348 39.2459 46.2393 39.2765 46.25 39.3051C46.2608 39.3338 46.2776 39.3598 46.2992 39.3814C46.3208 39.4031 46.3469 39.4198 46.3755 39.4306C46.4042 39.4414 46.4348 39.4459 46.4653 39.4438Z" fill="#4B1010"/>
<path d="M50.713 23.2723C50.2336 24.0708 49.7842 24.8869 49.3658 25.719C49.351 25.7535 49.3449 25.7911 49.348 25.8285C49.351 25.8659 49.3633 25.9019 49.3836 25.9335C49.4039 25.9651 49.4316 25.9912 49.4643 26.0095C49.497 26.0279 49.5338 26.0379 49.5713 26.0388C49.8627 26.0388 49.7331 25.719 51.1048 23.5039C51.2658 23.2808 50.9016 23.0208 50.713 23.2723Z" fill="#4B1010"/>
<path d="M61.6517 12.7212C60.8439 13.1907 60.0512 13.6858 59.2748 14.2056C59.0525 14.339 59.2234 14.7339 59.5493 14.5713C61.7384 13.0455 62.1256 13.1789 61.9699 12.7902C61.9345 12.7417 61.8826 12.708 61.8239 12.6953C61.7653 12.6826 61.704 12.6918 61.6517 12.7212Z" fill="#4B1010"/>
<path d="M66.3108 10.5743C65.4474 10.9063 64.5848 11.2812 63.7299 11.6477C63.6851 11.6709 63.6492 11.7081 63.6276 11.7536C63.606 11.7992 63.6 11.8505 63.6105 11.8998C63.6209 11.9491 63.6473 11.9936 63.6855 12.0265C63.7237 12.0593 63.7716 12.0788 63.8219 12.0817C63.9661 12.0817 64.7205 11.657 66.448 11.0083C66.7302 10.9025 66.5799 10.4716 66.3108 10.5743Z" fill="#4B1010"/>
<path d="M47.1956 32.5673C47.1657 32.5607 47.1346 32.5603 47.1045 32.566C47.0743 32.5716 47.0456 32.5834 47.02 32.6004C46.9945 32.6174 46.9726 32.6394 46.9558 32.6651C46.9389 32.6908 46.9274 32.7196 46.9219 32.7498C46.7227 33.6616 46.5691 34.5829 46.4619 35.5101C46.459 35.542 46.4628 35.5741 46.4731 35.6045C46.4833 35.6348 46.4998 35.6627 46.5215 35.6863C46.5431 35.7099 46.5695 35.7287 46.5988 35.7416C46.6282 35.7544 46.6599 35.7609 46.6919 35.7608C47.0231 35.7608 46.8337 35.5201 47.3766 32.838C47.3811 32.7791 47.3657 32.7205 47.3329 32.6714C47.3001 32.6223 47.2517 32.5857 47.1956 32.5673Z" fill="#4B1010"/>
<path d="M48.4067 27.866C48.0579 28.7332 47.7529 29.6173 47.4927 30.5151C47.4817 30.5435 47.4772 30.5741 47.4796 30.6045C47.4821 30.6349 47.4913 30.6643 47.5067 30.6907C47.5221 30.717 47.5433 30.7395 47.5686 30.7565C47.594 30.7735 47.6228 30.7845 47.653 30.7888C48.0908 30.7888 47.781 30.6953 48.8629 28.0285C48.882 27.9686 48.8771 27.9037 48.8492 27.8474C48.8213 27.7911 48.7726 27.7478 48.7134 27.7267C48.6542 27.7056 48.5891 27.7083 48.5319 27.7343C48.4747 27.7603 48.4298 27.8075 48.4067 27.866Z" fill="#4B1010"/>
<path d="M91.1127 12.4012C90.2908 11.9672 89.4504 11.5447 88.6009 11.1913C88.5462 11.1681 88.4847 11.1671 88.4293 11.1882C88.3739 11.2093 88.3287 11.2511 88.3034 11.3047C88.1592 11.6651 88.5066 11.5562 90.9103 12.7899C90.9656 12.8167 91.0288 12.8221 91.0878 12.8051C91.1468 12.7881 91.1974 12.7499 91.23 12.6979C91.2525 12.6429 91.2528 12.5813 91.2309 12.526C91.2091 12.4707 91.1667 12.426 91.1127 12.4012Z" fill="#4B1010"/>
<path d="M86.432 10.3464C85.5474 10.0419 84.6479 9.78261 83.7369 9.56964C83.6795 9.55609 83.6191 9.56507 83.5682 9.59475C83.5172 9.62443 83.4796 9.67253 83.4631 9.72913C83.4503 9.78655 83.4596 9.8467 83.4892 9.89758C83.5187 9.94846 83.5664 9.98632 83.6226 10.0036C84.5458 10.1976 85.4544 10.4568 86.3408 10.7796C86.5439 10.7796 86.6873 10.4483 86.432 10.3464Z" fill="#4B1010"/>
<path d="M71.2458 9.22697C70.3297 9.38398 69.4224 9.58873 68.5276 9.84037C68.4709 9.85687 68.4226 9.89458 68.3929 9.94569C68.3633 9.9968 68.3544 10.0574 68.3682 10.1149C68.3828 10.1636 68.4135 10.2058 68.4553 10.2348C68.4971 10.2638 68.5474 10.2777 68.5982 10.2743C68.8734 10.2743 69.266 10.0512 71.3385 9.66095C71.3981 9.64751 71.4501 9.61144 71.4836 9.56037C71.5171 9.50929 71.5294 9.44721 71.518 9.38722C71.4993 9.33237 71.4615 9.28604 71.4116 9.25664C71.3616 9.22724 71.3028 9.21671 71.2458 9.22697Z" fill="#4B1010"/>
<path d="M93.1224 13.5659C93.0969 13.5494 93.0683 13.5381 93.0384 13.5326C93.0085 13.5271 92.9778 13.5276 92.9481 13.534C92.9184 13.5403 92.8902 13.5525 92.8652 13.5698C92.8402 13.587 92.8188 13.609 92.8023 13.6346C92.7858 13.6601 92.7744 13.6886 92.7689 13.7185C92.7635 13.7484 92.7639 13.7791 92.7703 13.8088C92.7767 13.8386 92.7888 13.8667 92.8061 13.8918C92.8233 13.9168 92.8454 13.9382 92.8709 13.9547C94.8399 15.1815 95.06 15.5986 95.2478 15.5986C95.2952 15.5974 95.341 15.5817 95.3792 15.5536C95.4173 15.5255 95.4459 15.4863 95.461 15.4414C95.4761 15.3964 95.477 15.3479 95.4634 15.3024C95.4498 15.257 95.4224 15.2169 95.3851 15.1876C94.6661 14.5995 93.9103 14.0578 93.1224 13.5659Z" fill="#4B1010"/>
<path d="M98.2153 17.6772C97.8956 17.3575 97.5475 17.0431 97.2109 16.718C97.1645 16.69 97.1098 16.6792 97.0562 16.6876C97.0027 16.696 96.9539 16.723 96.9183 16.7639C96.8827 16.8047 96.8627 16.8569 96.8618 16.911C96.861 16.9652 96.8792 17.018 96.9134 17.06C97.2561 17.3575 97.5759 17.6734 97.8956 17.997C97.9147 18.0249 97.9397 18.0482 97.9688 18.0653C97.9979 18.0825 98.0305 18.093 98.0642 18.0961C98.0978 18.0992 98.1317 18.0949 98.1635 18.0834C98.1953 18.072 98.2242 18.0536 98.2481 18.0297C98.272 18.0058 98.2903 17.9769 98.3018 17.9452C98.3133 17.9134 98.3176 17.8794 98.3145 17.8458C98.3114 17.8121 98.3008 17.7796 98.2837 17.7504C98.2666 17.7213 98.2432 17.6963 98.2153 17.6772Z" fill="#4B1010"/>
<path d="M83.303 9.95768C83.3049 8.87595 82.9861 7.81792 82.387 6.91723C81.7879 6.01654 80.9354 5.31358 79.937 4.89714C78.9384 4.48189 77.8391 4.37192 76.778 4.58111C75.7168 4.79031 74.7415 5.30928 73.9752 6.07248C73.2089 6.83568 72.686 7.80887 72.4724 8.86912C72.2589 9.92936 72.3644 11.0291 72.7756 12.0294C73.1876 13.0297 73.887 13.8854 74.7853 14.4882C75.6836 15.0911 76.7405 15.414 77.8223 15.4162C79.2701 15.4098 80.6571 14.8333 81.6829 13.8117C82.7087 12.79 83.2908 11.4054 83.303 9.95768Z" fill="#FFE55D"/>
<path d="M77.8219 15.8732C78.6984 15.8752 79.5644 15.6828 80.3576 15.3098C81.1507 14.9367 81.8512 14.3924 82.4086 13.716C82.966 13.0396 83.3664 12.2479 83.5809 11.3981C83.7955 10.5482 83.8188 9.6614 83.6492 8.80147C83.4803 7.94145 83.1226 7.12962 82.6021 6.42451C82.0815 5.71939 81.411 5.13856 80.6388 4.72388C79.8666 4.3092 79.0121 4.071 78.1368 4.02646C77.2615 3.98191 76.3871 4.13212 75.5769 4.46627C74.493 4.91272 73.5658 5.67054 72.9126 6.64392C72.2595 7.61729 71.9096 8.7625 71.9072 9.93473C71.9182 11.5022 72.5441 13.0027 73.6503 14.1134C74.7565 15.224 76.2545 15.856 77.8219 15.8732ZM78.9184 4.59125C79.9329 4.79729 80.8681 5.28716 81.6151 6.00388C82.3622 6.72059 82.8904 7.63469 83.1382 8.63983C83.3861 9.64497 83.3435 10.6998 83.0154 11.6817C82.6872 12.6636 82.087 13.5321 81.2846 14.1862C80.4822 14.8403 79.5105 15.2531 78.4827 15.3767C77.4548 15.5002 76.413 15.3293 75.4784 14.884C74.5439 14.4386 73.755 13.737 73.2036 12.8609C72.6521 11.9847 72.3608 10.97 72.3634 9.93473C72.3686 9.12669 72.5522 8.32977 72.9012 7.60096C73.2502 6.87216 73.7559 6.22949 74.3822 5.71893C75.0085 5.20837 75.7399 4.84253 76.5241 4.64758C77.3083 4.45263 78.1259 4.4334 78.9184 4.59125Z" fill="#4B1010"/>
<path d="M78.7347 9.63811C78.3772 9.50699 77.996 9.45265 77.616 9.47863C77.3707 9.48168 77.1342 9.38714 76.9585 9.21581C76.7829 9.04448 76.6825 8.8104 76.6795 8.56505C76.6764 8.3197 76.7709 8.08319 76.9423 7.90755C77.1136 7.7319 77.3477 7.63152 77.593 7.62847C79.2584 7.5978 79.6487 7.78182 79.6487 7.39844C79.6523 7.35199 79.6407 7.30562 79.6155 7.26644C79.5903 7.22725 79.5529 7.1974 79.5091 7.18145C79.4803 7.17075 79.4494 7.16631 79.4187 7.16842H77.9572V6.16704C77.957 6.1061 77.9327 6.04771 77.8897 6.00461C77.8466 5.96152 77.7882 5.93722 77.7272 5.93702C77.697 5.93681 77.667 5.94262 77.639 5.95411C77.611 5.9656 77.5855 5.98253 77.5641 6.00394C77.5427 6.02534 77.5258 6.05077 77.5143 6.07877C77.5028 6.10677 77.497 6.13678 77.4972 6.16704V7.19449C77.1764 7.21888 76.8743 7.35461 76.643 7.5782C76.4117 7.80179 76.2659 8.09919 76.2307 8.41894C76.1955 8.73869 76.2731 9.06069 76.4502 9.32925C76.6273 9.5978 76.8927 9.79602 77.2005 9.88961C77.5677 9.99695 77.9312 9.88961 78.2962 9.98085C78.5392 10.049 78.7542 10.1929 78.9097 10.3917C79.0653 10.5905 79.1533 10.8338 79.161 11.0861C79.1687 11.3384 79.0957 11.5866 78.9525 11.7945C78.8094 12.0024 78.6036 12.1592 78.3652 12.242C77.7302 12.3321 77.0868 12.3473 76.4483 12.2872C76.3873 12.2872 76.3288 12.3115 76.2856 12.3546C76.2425 12.3977 76.2183 12.4563 76.2183 12.5173C76.2183 12.5783 76.2425 12.6368 76.2856 12.6799C76.3288 12.723 76.3873 12.7473 76.4483 12.7473H77.4987V13.7747C77.4991 13.8124 77.5087 13.8495 77.5266 13.8826C77.5446 13.9158 77.5704 13.944 77.6017 13.965C77.6331 13.9859 77.6691 13.9989 77.7066 14.0027C77.7441 14.0066 77.782 14.0012 77.8169 13.9871C77.8587 13.9694 77.8943 13.9398 77.9195 13.9021C77.9447 13.8644 77.9584 13.8201 77.9588 13.7747V12.7473C78.334 12.7608 78.7025 12.6449 79.0025 12.4192C79.3025 12.1934 79.5158 11.8714 79.6067 11.5071C79.6976 11.1429 79.6606 10.7584 79.5019 10.4181C79.3431 10.0779 79.0723 9.8025 78.7347 9.63811Z" fill="#4B1010"/>
<path d="M56.5602 13.1099C55.4522 12.8841 54.3016 13.0066 53.266 13.4606C52.2305 13.9146 51.3607 14.6778 50.7761 15.6456C50.1915 16.6135 49.9206 17.7385 50.0005 18.8663C50.0805 19.9942 50.5075 21.0697 51.2229 21.9453C51.9383 22.8209 52.907 23.4538 53.9963 23.7571C55.0856 24.0604 56.242 24.0193 57.307 23.6394C58.3719 23.2595 59.2933 22.5594 59.9447 21.6352C60.596 20.7109 60.9455 19.6078 60.9452 18.4771C60.9479 17.2134 60.5123 15.9878 59.7128 15.0091C58.9132 14.0304 57.7991 13.3593 56.5602 13.1099Z" fill="#FFE55D"/>
<path d="M55.4636 24.3908C56.6389 24.395 57.789 24.0504 58.7682 23.4005C59.7475 22.7507 60.5119 21.8248 60.9646 20.7402C61.4173 19.6556 61.538 18.4611 61.3113 17.3079C61.0846 16.1547 60.5208 15.0947 59.6913 14.2621C58.8617 13.4296 57.8038 12.8619 56.6514 12.6311C55.499 12.4002 54.304 12.5165 53.2178 12.9653C52.1316 13.4141 51.203 14.1751 50.5496 15.152C49.8962 16.1289 49.5474 17.2778 49.5474 18.453C49.5536 20.0222 50.1782 21.5256 51.2858 22.6372C52.3933 23.7488 53.8945 24.3789 55.4636 24.3908ZM55.4636 12.9953C56.5478 12.9952 57.6077 13.3166 58.5092 13.9188C59.4108 14.5211 60.1135 15.3771 60.5285 16.3788C60.9434 17.3804 61.052 18.4826 60.8406 19.546C60.6291 20.6094 60.107 21.5862 59.3404 22.3528C58.5737 23.1195 57.5969 23.6415 56.5336 23.853C55.4702 24.0645 54.368 23.9559 53.3663 23.5409C52.3647 23.1259 51.5086 22.4232 50.9064 21.5217C50.3041 20.6201 49.9827 19.5603 49.9829 18.4761C49.9895 17.0245 50.5691 15.6343 51.5955 14.6079C52.6219 13.5816 54.0121 13.002 55.4636 12.9953Z" fill="#4B1010"/>
<path d="M56.3776 18.1567C56.0225 18.0149 55.6387 17.9602 55.2581 17.9972C55.0238 17.9854 54.8029 17.884 54.6412 17.714C54.4794 17.5439 54.3893 17.3183 54.3893 17.0836C54.3893 16.8489 54.4794 16.6232 54.6412 16.4532C54.8029 16.2832 55.0238 16.1818 55.2581 16.17C55.8524 16.1585 56.4688 16.17 57.0853 16.17C57.1463 16.17 57.2048 16.1458 57.2479 16.1026C57.2911 16.0595 57.3153 16.001 57.3153 15.94C57.3153 15.879 57.2911 15.8205 57.2479 15.7773C57.2048 15.7342 57.1463 15.71 57.0853 15.71H55.6047V14.6856C55.6045 14.6246 55.5802 14.5663 55.5371 14.5232C55.494 14.4801 55.4356 14.4558 55.3747 14.4556C55.3137 14.4558 55.2553 14.4801 55.2123 14.5232C55.1692 14.5663 55.1449 14.6246 55.1447 14.6856V15.713C54.8245 15.7383 54.5232 15.8745 54.2926 16.0981C54.062 16.3216 53.9166 16.6186 53.8815 16.9379C53.8463 17.2571 53.9236 17.5786 54.1 17.847C54.2764 18.1154 54.5409 18.3138 54.8479 18.4082C55.2152 18.5155 55.5786 18.4082 55.9444 18.4994C56.1866 18.565 56.4014 18.7067 56.5569 18.9036C56.7125 19.1006 56.8006 19.3423 56.8082 19.5932C56.8159 19.844 56.7427 20.0907 56.5994 20.2967C56.4561 20.5028 56.2504 20.6573 56.0126 20.7375C55.3776 20.8276 54.7343 20.8428 54.0957 20.7828C54.0347 20.7828 53.9762 20.807 53.9331 20.8502C53.89 20.8933 53.8657 20.9518 53.8657 21.0128C53.8657 21.0738 53.89 21.1323 53.9331 21.1755C53.9762 21.2186 54.0347 21.2428 54.0957 21.2428H55.1692V22.2687C55.1694 22.3297 55.1937 22.3881 55.2368 22.4312C55.2799 22.4743 55.3383 22.4986 55.3992 22.4988C55.4602 22.4986 55.5186 22.4743 55.5616 22.4312C55.6047 22.3881 55.629 22.3297 55.6292 22.2687V21.2413C56.0035 21.2572 56.3716 21.1429 56.6709 20.9177C56.9702 20.6924 57.1821 20.3704 57.2704 20.0064C57.3587 19.6424 57.318 19.259 57.1552 18.9217C56.9923 18.5843 56.7175 18.314 56.3776 18.1567Z" fill="#4B1010"/>
</svg>
