<svg width="154" height="154" viewBox="0 0 154 154" fill="none" xmlns="http://www.w3.org/2000/svg">
<path d="M99.9961 78.6717C99.395 79.3134 99.3024 79.0921 99.5436 78.3164C100.028 76.7574 100.532 75.2046 98.9624 74.7643C98.2891 74.636 97.5967 74.647 96.9279 74.7964C95.882 74.9556 94.8893 75.3625 94.0325 75.9832C93.1758 76.6039 92.4799 77.4204 92.0028 78.3647C91.6651 79.0033 91.4668 78.9772 91.4668 78.1349C91.6889 75.3623 94.8934 73.1364 97.9424 73.2428C99.3146 73.2903 100.805 73.7788 101.139 75.2773C101.194 75.8914 101.121 76.5102 100.924 77.0946C100.727 77.6789 100.411 78.216 99.9961 78.6717Z" fill="#191919"/>
<path d="M99.1719 71.7772C99.3403 72.16 99.3334 72.3898 99.253 72.4227C99.1558 72.4388 98.9613 72.294 98.6711 72.0513C95.3418 69.2611 92.2889 69.8637 90.9695 71.8737C90.343 72.9623 89.865 74.1299 89.5484 75.3454C89.2888 76.0499 89.0989 75.9909 88.9994 75.1999C88.8843 73.8713 89.1357 72.5365 89.726 71.3407C89.9944 70.7502 90.392 70.2275 90.8894 69.8111C91.3867 69.3947 91.9712 69.0953 92.5997 68.9349C93.8539 68.5397 95.2085 68.6096 96.4154 69.1315C97.6223 69.6535 98.6008 70.5927 99.1719 71.7772Z" fill="#191919"/>
<path d="M121.633 59.4408V45.7958C121.633 45.7003 121.615 45.6056 121.578 45.5172C121.542 45.4289 121.489 45.3486 121.421 45.2811C121.353 45.2135 121.273 45.16 121.185 45.1236C121.096 45.0872 121.002 45.0687 120.906 45.0691H111.606C111.51 45.0687 111.416 45.0872 111.327 45.1236C111.239 45.16 111.159 45.2135 111.091 45.2811C111.024 45.3486 110.97 45.4289 110.934 45.5172C110.897 45.6056 110.879 45.7003 110.879 45.7958V59.4408C110.88 59.5363 110.861 59.631 110.825 59.7193C110.788 59.8076 110.735 59.8878 110.667 59.9553C110.6 60.0228 110.519 60.0762 110.431 60.1125C110.343 60.1488 110.248 60.1672 110.153 60.1667H106.554C106.422 60.1664 106.293 60.2021 106.18 60.2699C106.067 60.3377 105.975 60.435 105.913 60.5514C105.851 60.6678 105.822 60.7988 105.83 60.9303C105.837 61.0618 105.88 61.1888 105.954 61.2977L114.98 74.8769C115.044 74.974 115.13 75.0543 115.231 75.111C115.332 75.1676 115.445 75.1989 115.561 75.2022C115.677 75.2054 115.792 75.1805 115.896 75.1296C116.001 75.0787 116.091 75.0032 116.16 74.9098L126.429 61.3298C126.509 61.2218 126.559 61.0935 126.571 60.9591C126.583 60.8247 126.557 60.6897 126.497 60.569C126.437 60.4483 126.344 60.3468 126.229 60.2758C126.115 60.2047 125.982 60.167 125.847 60.1667H122.36C122.264 60.1672 122.169 60.1488 122.081 60.1125C121.993 60.0762 121.912 60.0228 121.845 59.9553C121.777 59.8878 121.724 59.8076 121.687 59.7193C121.651 59.631 121.633 59.5363 121.633 59.4408Z" fill="#38A1FF"/>
<path d="M119.115 117.861L106.859 124.401C106.744 124.46 106.618 124.493 106.489 124.497C106.36 124.5 106.231 124.475 106.114 124.422C105.996 124.369 105.892 124.291 105.808 124.192C105.725 124.093 105.666 123.977 105.634 123.852L103.597 115.571C103.551 115.388 103.567 115.195 103.643 115.023C103.72 114.85 103.851 114.708 104.017 114.618L116.269 108.079C116.383 108.019 116.51 107.987 116.639 107.983C116.768 107.979 116.896 108.005 117.014 108.057C117.132 108.11 117.236 108.189 117.319 108.288C117.402 108.387 117.462 108.503 117.494 108.628L119.528 116.911C119.572 117.093 119.556 117.284 119.481 117.456C119.407 117.627 119.278 117.769 119.115 117.861Z" fill="#38A1FF"/>
<path d="M118.614 109.787C118.585 109.577 118.421 108.478 118.843 109.012C119.367 109.681 121.954 117.692 121.847 118.539C121.732 119.443 120.814 119.833 120.119 120.219C117.377 121.739 111.532 124.994 108.59 126.115C104.495 127.67 114.401 121.641 118.747 119.3C119.115 119.101 119.477 118.903 119.828 118.702C119.992 118.608 120.364 118.509 120.426 118.298C120.449 118.19 119.154 113.707 118.614 109.787Z" fill="#191919"/>
<path d="M124.007 118.846C124.308 119.52 124.457 120.252 124.443 120.99C124.311 121.749 123.618 122.085 123.006 122.427C105.25 132.351 107.003 129.527 122.441 121.071C122.764 120.893 123.053 120.828 123.006 120.425C122.945 119.94 122.733 119.391 122.618 118.907C120.051 108.104 121.269 109.18 124.007 118.846Z" fill="#191919"/>
<path d="M115.788 98.4685L106.729 87.9399C106.646 87.8422 106.586 87.7271 106.554 87.603C106.522 87.479 106.518 87.3493 106.543 87.2236C106.568 87.0978 106.621 86.9793 106.698 86.8769C106.775 86.7745 106.874 86.6908 106.988 86.6321L114.625 82.838C114.794 82.7533 114.986 82.728 115.171 82.766C115.355 82.8041 115.522 82.9034 115.643 83.0478L124.701 93.5756C124.784 93.6732 124.844 93.7883 124.876 93.9123C124.909 94.0363 124.913 94.166 124.888 94.2918C124.863 94.4175 124.81 94.536 124.733 94.6384C124.656 94.7409 124.557 94.8246 124.443 94.8834L116.805 98.6783C116.636 98.7574 116.445 98.7797 116.262 98.7419C116.079 98.7041 115.913 98.6082 115.788 98.4685Z" fill="#38A1FF"/>
<path d="M124.332 96.2755C123.471 97.0264 122.515 97.6614 121.489 98.1645C120.052 99.0353 118.593 99.8699 117.114 100.668C116.694 100.956 116.223 101.158 115.725 101.265C115.431 101.274 115.14 101.209 114.878 101.076C114.615 100.944 114.391 100.748 114.223 100.506C111.107 97.154 108.169 93.6395 105.423 89.9775C103.952 87.7669 106.419 89.8542 110.913 94.6767C115.624 99.7304 114.978 99.2985 115.354 99.6018C115.765 99.9333 115.985 99.6355 116.388 99.4402C118.002 98.6538 125.549 94.9738 124.332 96.2755Z" fill="#191919"/>
<path d="M122.763 99.5987C123.077 99.4946 123.403 99.4295 123.732 99.405C123.573 99.6986 123.332 99.9398 123.038 100.099C120.429 101.833 118.597 102.81 116.821 103.781C116.244 104.211 115.584 104.518 114.884 104.685C114.205 104.733 113.721 104.2 113.285 103.748C110.221 100.447 107.333 96.9863 104.632 93.3819C103.161 91.1712 105.611 93.2746 110.123 98.081C111.67 99.7296 113.176 101.422 114.676 103.119C114.918 103.393 115.594 102.858 115.824 102.731C116.611 102.293 121.493 99.9854 122.763 99.5987Z" fill="#191919"/>
<path d="M146.839 27.0656C144.121 24.7141 140.422 24.309 136.86 24.8856C134.342 25.2907 131.806 26.2256 130.11 28.1307C134.067 26.3221 138.617 25.2509 142.77 26.5166C146.025 27.5082 147.723 29.5412 148.163 32.6844C148.39 34.415 148.215 36.1746 147.652 37.8267C147.09 39.4789 146.154 40.9793 144.918 42.2115C144.971 40.9685 144.731 39.7305 144.218 38.5972C143.705 37.464 142.932 36.4673 141.963 35.6876C142.898 37.2365 143.453 38.985 143.582 40.7898C143.711 42.5946 143.411 44.4044 142.705 46.0707C139.903 52.7071 131.629 55.7485 124.346 52.2875C124.729 51.9376 126.217 50.8005 126.397 49.7683C125.115 49.7292 125.287 52.0065 119.179 52.5616C115.786 52.9021 112.359 52.5563 109.103 51.5447C106.77 50.7538 104.614 49.5141 102.757 47.8953C102.626 47.7843 102.515 47.6855 102.418 47.6044C105.045 46.6281 107.089 45.1074 107.036 44.795C106.914 44.4305 103.929 46.3187 99.5598 47.0232C94.0573 47.9099 90.1828 46.9168 89.1292 41.533C88.6606 39.1402 89.6116 37.9786 89.4516 37.7389C90.1586 38.5549 91.0578 39.1818 92.068 39.5628C92.3437 39.6739 93.7426 40.3018 94.0053 40.0315C94.2066 39.824 91.8299 38.8737 90.5818 37.4158C89.6858 36.1995 89.1743 34.7429 89.1131 33.2335C88.9615 31.3709 89.3808 29.5063 90.3154 27.888C91.25 26.2697 92.6554 24.9746 94.3445 24.175C96.0201 23.4867 97.8165 23.1407 99.6279 23.1574C102.553 23.1053 103.374 23.5403 103.891 23.2225C103.582 22.973 103.215 22.8062 102.825 22.7378C101.694 22.4041 100.53 22.1986 99.353 22.1252C87.9584 21.3856 85.4936 32.9647 89.4385 37.7228C89.2663 37.4931 86.6559 40.1172 88.9707 44.8601C91.2165 49.4628 97.1883 49.4084 102.002 47.7345C102.659 48.7479 103.476 49.6474 104.423 50.3977C107.06 52.4222 110.218 53.6545 113.529 53.9506C116.516 54.2783 120.84 54.0563 123.56 52.6259C124.394 52.1872 124.141 52.8671 126.596 53.9016C128.321 54.6186 130.18 54.9606 132.048 54.905C133.916 54.8494 135.75 54.3975 137.43 53.5792C139.503 52.5008 141.274 50.9236 142.585 48.9897C143.896 47.0559 144.705 44.8262 144.939 42.5017C147.732 41.0001 149.275 37.804 149.557 34.6385C149.873 31.0366 148.758 28.7272 146.839 27.0656Z" fill="#191919"/>
<path d="M102.225 26.5488C102.102 27.1928 102.159 27.5496 102.241 27.5978C102.337 27.6468 102.466 27.388 102.741 26.839C105.488 21.3726 113.953 18.0294 122.457 21.4621C122.505 21.4782 122.537 21.4943 122.586 21.5104C119.762 22.7595 117.297 24.6972 115.417 27.146C114.558 28.3712 114.622 28.5955 115.739 27.6307C119.174 24.6651 122.429 22.6145 127.072 21.4943C130.812 20.5923 136.157 20.0073 139.344 22.0303C139.601 22.1934 140.555 23.2256 140.799 23.1789C141.037 23.1789 140.345 21.188 137.538 20.1436C134.202 18.9054 128.579 18.8855 123.118 21.2738C121.098 19.8095 118.713 18.9321 116.226 18.7385C108.745 18.0325 102.968 22.6398 102.225 26.5488Z" fill="#191919"/>
<path d="M126.542 37.997C127.182 36.8398 128.082 35.8476 129.172 35.0993C130.262 34.3509 131.511 33.867 132.821 33.686C135.093 33.2901 139.088 33.5413 137.165 32.7817C135.728 32.2441 134.182 32.0602 132.659 32.2456C131.136 32.4309 129.679 32.9801 128.413 33.8468C127.665 34.3457 127.036 35.0042 126.573 35.7748C126.11 36.5455 125.823 37.4093 125.733 38.304C125.95 39.3829 126.126 38.8324 126.542 37.997Z" fill="#191919"/>
<path d="M108.619 43.2284C108.228 44.4298 109.258 43.5599 109.975 42.6472C112.359 39.6127 110.866 34.34 109.087 33.088C108.555 32.7143 108.394 32.8453 108.602 33.379C109.521 35.729 110.115 39.1624 109.378 41.3554C109.166 41.9864 108.827 42.5875 108.619 43.2284Z" fill="#191919"/>
<path d="M94.9415 85.0012C94.4499 87.0594 91.8488 91.6307 90.776 93.4462C87.9409 98.2332 84.5481 102.667 80.6686 106.655C77.6486 109.61 74.4725 112.821 70.8996 115.084C69.0527 116.253 67.3306 117.587 65.4095 118.556C61.3083 120.623 57.0632 123.336 52.4911 124.174C51.8624 124.29 46.4037 125.482 46.4366 125.612C45.1862 119.945 45.3386 113.49 45.3386 109.675C45.3386 107.333 45.1716 107.039 44.7895 109.432C44.2715 113.052 44.1198 116.714 44.337 120.364C44.6088 125.439 45.5216 130.736 49.004 134.218C44.1915 135.061 39.2289 134.394 34.6163 133.104C32.3582 132.473 32.0197 132.534 34.2288 133.556C39.357 135.817 45.0573 136.443 50.5538 135.348C51.2291 135.681 51.9949 135.784 52.7338 135.639C54.8013 135.078 55.0555 132.282 54.9621 130.133C57.5655 129.873 59.9966 128.211 62.1797 126.791C61.9308 128.566 62.2769 134.071 63.1483 132.635C63.8275 131.518 63.7662 127.807 62.9385 126.29C67.2479 123.38 67.8888 122.032 62.1797 125.16C59.1543 126.817 57.3388 128.292 54.8977 129.164C54.7829 127.949 54.5722 126.746 54.2676 125.565C54.2346 125.435 54.0256 124.952 54.0738 124.854C64.8533 121.525 74.5659 115.416 82.2345 107.141C86.9998 102.08 90.866 96.242 93.6666 89.8795C94.2844 88.5186 94.7715 87.102 95.1215 85.649C95.1422 85.5344 95.1368 85.4166 95.1057 85.3045C95.0745 85.1923 95.0184 85.0886 94.9415 85.0012Z" fill="#191919"/>
<path d="M60.3384 100.955C70.5278 97.1614 78.1145 88.6574 82.7026 79.0431C84.2339 75.7778 85.5974 72.4365 86.7877 69.0321C88.3299 64.7112 91.3743 55.0624 91.5673 54.3863C91.8943 53.2377 92.0581 51.8885 92.7924 50.9145C93.3629 50.1595 94.0429 50.707 94.2289 51.4153C94.8936 53.9422 93.9992 56.9859 93.4701 59.4729C92.8889 62.1851 92.5176 63.6844 92.5658 63.8482C92.6669 64.1844 94.3622 59.2333 95.085 54.9659C95.3392 53.4636 95.7091 48.6212 92.7924 49.6534C91.5788 50.083 91.284 51.8855 90.9027 52.946C85.4722 68.0979 81.5655 84.9957 67.6831 95.2839C62.9383 98.8145 57.3573 101.052 51.4875 101.776C38.3555 103.51 28.6363 96.8184 27.7833 96.8184C27.3384 96.8214 41.9927 107.784 60.3384 100.955Z" fill="#191919"/>
<path d="M39.912 71.7121C41.1693 72.3408 42.2857 72.4579 43.2382 71.4219C43.3998 71.2113 43.3676 71.0988 43.1088 71.1631C42.7311 71.299 42.3421 71.4015 41.9465 71.4694C40.9441 71.536 39.5643 70.7749 38.9433 70.6615C38.1753 70.523 39.1991 71.3561 39.912 71.7121Z" fill="#191919"/>
<path d="M36.4404 63.5098C36.5859 64.1714 37.1012 64.6162 37.6035 64.5106C37.8716 64.4085 38.09 64.207 38.2132 63.948C38.3364 63.689 38.355 63.3924 38.2651 63.12C38.2737 62.9715 38.248 62.8229 38.1899 62.6859C38.1318 62.5489 38.0428 62.4272 37.93 62.3302C37.8171 62.2332 37.6834 62.1636 37.5392 62.1267C37.395 62.0898 37.2443 62.0867 37.0987 62.1176C36.9532 62.1486 36.8167 62.2126 36.7 62.3049C36.5832 62.3972 36.4893 62.5152 36.4256 62.6496C36.3619 62.7841 36.3301 62.9315 36.3327 63.0803C36.3352 63.2291 36.3721 63.3753 36.4404 63.5075V63.5098Z" fill="#191919"/>
<path d="M27.0586 87.1811C28.7616 88.0816 33.7418 92.7884 39.6539 93.5273C40.4127 93.6223 45.7428 93.3489 45.3378 92.2838C44.8615 90.7629 44.4999 89.2085 44.2558 87.6336C43.801 85.5731 42.2703 79.7697 41.2037 77.9611C45.5414 77.3041 46.4105 75.9557 46.5162 73.1815C46.533 72.7458 46.0315 68.5153 46.0476 68.5153C47.2406 67.954 48.0315 67.3567 47.3393 66.2181C46.6932 65.3982 45.9126 64.6939 45.0307 64.1354C44.8952 64.1354 44.5713 61.9608 42.4633 56.4982C43.1092 56.1668 43.7205 55.7718 44.288 55.319C50.0308 50.7377 46.0315 38.752 38.1523 43.4021C33.7225 45.9568 29.5575 48.9452 25.7186 52.3235C25.7186 52.3235 16.7169 51.4644 19.0983 57.8941C19.9776 60.502 21.4541 62.8684 23.41 64.8046C22.0202 65.6385 21.7584 68.1462 22.5225 69.6646C22.8902 70.2479 23.3845 70.7409 23.9686 71.1071C24.5528 71.4734 25.2119 71.7034 25.897 71.7803C26.786 71.938 26.4997 73.1356 26.5425 73.863C26.6191 75.1058 27.1076 83.1634 27.3504 85.9613C27.3182 85.6221 26.1857 86.4445 26.1069 86.5739C25.809 87.0647 25.9101 87.3855 26.4131 89.7386C25.783 89.868 25.1375 89.9805 24.5073 90.0939C21.738 90.708 19.0653 91.6967 16.563 93.0327C11.082 96.1721 7.68606 99.7641 5.47009 105.854C2.89116 112.94 4.30697 122.306 7.16538 129.251C8.82698 133.289 9.17155 133.625 7.82772 129.413C6.35826 125.039 5.52607 120.476 5.35676 115.865C5.14772 106.088 9.42653 98.764 16.9504 94.4538C20.8181 92.2379 23.4146 91.8428 26.6551 91.1437C26.6805 91.385 26.6912 91.6277 26.6873 91.8703C26.7033 92.6613 26.5257 93.1131 26.6107 93.1942C26.6589 93.2746 26.9997 92.9844 27.2401 92.0962C27.6635 90.5311 27.2401 88.9958 27.1436 87.43C27.0853 87.3605 27.055 87.2717 27.0586 87.1811ZM37.6033 45.9734C39.0888 44.8409 40.7917 44.0591 42.5804 44.6173C43.2462 44.7852 43.8341 45.1767 44.2456 45.7264C44.6571 46.2761 44.8673 46.9504 44.8408 47.6365C44.7995 48.3157 44.5858 48.2644 44.2596 47.7016C44.0735 47.3237 43.8401 46.971 43.5651 46.6518C43.1592 46.2496 42.6309 45.9939 42.0636 45.9252C39.7105 45.5645 37.3583 48.1526 35.4271 48.864C33.7908 49.4651 36.2212 47.027 37.6033 45.9734ZM26.6536 70.889C26.1972 70.8347 25.7444 70.7537 25.2975 70.6463C24.7405 70.5007 24.2301 70.2151 23.8146 69.8167C23.3991 69.4183 23.0925 68.9202 22.9238 68.3698C22.6175 67.3682 22.714 65.6898 23.7661 65.1239C24.1375 65.4549 24.5491 65.7379 24.9912 65.9662C24.9912 65.9662 27.0127 66.5282 27.5426 67.1607C28.0135 67.7235 29.1827 65.7748 28.0916 62.3168C27.8983 61.6375 27.8721 60.9215 28.0155 60.2299C28.1588 59.5383 28.4673 58.8916 28.9147 58.3451C28.5431 58.341 28.1737 58.2867 27.8167 58.1835C26.3258 57.6835 26.5732 57.2945 28.0464 57.5212C28.9653 57.6628 29.9515 57.6506 30.3711 57.7792C32.3252 57.9408 36.8621 58.6674 41.0605 57.0855C41.8193 58.9745 42.5153 60.9286 43.1279 62.898C42.9036 62.7778 42.2573 62.46 42.0781 62.64C41.7397 63.2043 45.5637 66.4884 46.0667 66.9188C44.9457 67.9372 42.7627 69.0536 44.1609 69.0344C44.358 69.0273 44.5533 68.9946 44.742 68.9372C45.0791 70.3771 45.2525 71.8505 45.2589 73.3293C45.254 73.9292 45.1506 74.5242 44.9526 75.0905C44.8362 75.2237 44.5989 75.9419 42.7734 76.5453C38.6232 77.9129 33.4079 77.2398 33.2142 77.4336C32.937 77.6181 36.7135 78.4581 40.722 77.9986C40.722 80.7062 42.7382 87.4935 43.742 90.1253C43.8546 90.6421 44.0161 91.2233 44.1777 91.8864C38.9609 93.2165 34.4685 90.5081 29.6942 87.3327C28.7815 86.7255 28.7754 86.7431 28.7754 86.6704C28.4844 83.9092 27.7662 75.5928 27.6444 74.1892C27.5648 73.3102 27.8335 71.1792 26.6551 70.889H26.6536Z" fill="#191919"/>
<path d="M34.5838 61.3298C34.7673 61.1257 34.967 60.9367 35.181 60.7647C35.5287 60.5726 35.9153 60.4616 36.312 60.44C37.9736 60.2249 37.7308 59.8198 36.3602 59.7455C35.2982 59.6881 34.423 60.1284 34.3418 61.1828C34.3418 61.3936 34.4225 61.4426 34.5838 61.3298Z" fill="#191919"/>
<path d="M49.5687 91.8152C50.6661 92.3875 51.6165 93.2053 52.346 94.205C52.9961 95.2004 53.7472 97.1706 54.4448 97.9677C55.3836 99.0397 54.9257 96.7265 54.493 95.3643C54.1688 94.0772 53.4246 92.935 52.3781 92.1184C51.6351 91.5338 50.707 91.2349 49.7625 91.2762C49.2295 91.3497 49.1836 91.5533 49.5687 91.8152Z" fill="#191919"/>
</svg>
