<svg width="154" height="155" viewBox="0 0 154 155" fill="none" xmlns="http://www.w3.org/2000/svg">
<path d="M107.566 61.7312H35.2856V106.705H107.566V61.7312Z" fill="#FFE55D"/>
<path d="M125.122 146.647C124.968 146.243 113.413 116.272 112.799 114.957C112.579 114.485 111.927 114.599 111.48 114.599H30.9918C30.5217 114.666 30.4167 115.161 30.2534 115.519C15.6913 147.275 15.2251 146.802 15.2251 147.075C15.2251 147.41 15.4935 147.615 15.8738 147.634H124.048C124.718 147.653 125.527 147.696 125.122 146.647Z" fill="#FFE55D"/>
<path d="M108.55 119.094H33.2732L27.0786 132.666H113.448C112.649 130.595 113.391 132.609 108.55 119.094Z" fill="white"/>
<path d="M125.546 146.535L113.246 114.889C112.977 114.174 112.374 114.14 111.725 114.14H31.0365C30.3656 114.208 30.1931 114.58 29.9631 115.091C24.7354 126.549 14.8435 146.702 14.8006 146.915C14.6529 147.338 14.6144 147.792 14.6886 148.234C14.7807 148.86 14.9348 150.247 15.7621 150.336H124.629C125.343 150.252 125.518 149.24 125.636 148.659C125.827 147.959 125.796 147.216 125.546 146.535ZM124.07 147.653C124.07 147.653 16.4775 147.681 15.897 147.653C15.4585 147.631 15.1962 147.328 15.3879 146.945C16.8294 144.068 28.875 119.105 30.2536 115.538C30.3871 115.193 30.545 114.711 30.992 114.618H111.457C111.904 114.618 112.556 114.505 112.777 114.976C112.813 115.053 125.087 146.553 125.121 146.643C125.527 147.696 124.719 147.653 124.07 147.653Z" fill="#4B1010"/>
<path d="M112.105 112.922C112.134 112.924 112.164 112.919 112.191 112.907C112.218 112.896 112.242 112.88 112.263 112.859C112.283 112.838 112.298 112.812 112.307 112.785C112.317 112.756 112.32 112.727 112.317 112.698V59.9458C112.366 59.397 112.289 58.8443 112.094 58.3293C111.898 57.8142 111.588 57.35 111.188 56.9716C109.975 55.9257 108.214 56.1665 106.715 56.1665H34.5682C32.3071 56.1665 30.9223 57.4025 30.9223 60.0125V112.458C30.9223 112.918 30.7552 112.859 31.2873 112.884C33.5293 112.986 46.1607 112.922 112.105 112.922ZM35.2851 61.7308H107.563V106.704H35.2851V61.7308Z" fill="#4B1010"/>
<path d="M82.6301 136.448C82.5707 136.218 82.4336 136.016 82.242 135.875C82.0505 135.735 81.8162 135.665 81.5789 135.677H58.4545C58.1856 135.708 57.9382 135.839 57.7606 136.043C57.583 136.248 57.4882 136.511 57.4946 136.782L56.5108 142.708C56.4434 143.178 56.3268 143.653 56.6895 144.028C56.8041 144.139 56.9411 144.224 57.0915 144.278C57.2419 144.332 57.4021 144.354 57.5613 144.34H83.0342C83.1866 144.338 83.3363 144.301 83.4727 144.233C83.609 144.165 83.7285 144.067 83.8224 143.947C83.9169 143.828 83.9835 143.688 84.0174 143.54C84.0512 143.391 84.0514 143.237 84.018 143.088C83.9344 142.644 82.7367 136.891 82.6301 136.448ZM83.0327 143.873H57.3811C56.7991 143.834 56.8221 143.337 56.8888 142.912L57.8511 137.097C57.9178 136.694 57.9401 136.135 58.4768 136.091H81.4225C81.7131 136.091 81.9815 136.113 82.1126 136.426C82.2138 136.711 82.1348 136.426 83.5211 143.068C83.6584 143.471 83.5242 143.866 83.0327 143.873Z" fill="#4B1010"/>
<path d="M108.952 118.826C108.937 118.779 108.907 118.739 108.867 118.711C108.826 118.683 108.778 118.67 108.729 118.673C43.1266 118.673 34.3466 118.574 33.1274 118.673C32.9381 118.689 32.9457 118.756 32.9358 118.78C32.9358 118.857 32.9358 118.804 26.5181 132.87V133.876C26.516 133.906 26.5204 133.936 26.531 133.964C26.5416 133.992 26.5581 134.017 26.5794 134.038C26.6007 134.059 26.6262 134.076 26.6542 134.086C26.6822 134.097 26.7121 134.101 26.742 134.1H113.76C113.79 134.101 113.82 134.096 113.848 134.086C113.876 134.075 113.901 134.059 113.923 134.038C113.944 134.017 113.96 133.991 113.971 133.963C113.981 133.935 113.986 133.905 113.984 133.876V132.871L108.952 118.826ZM33.2509 119.072C33.2509 119.072 108.214 119.094 108.549 119.072L109.937 122.963C109.937 122.963 32.4458 122.94 31.4843 122.963C32.7188 120.28 32.3216 121.155 33.2509 119.07V119.072ZM31.2826 123.433H110.094L111.614 127.682C111.614 127.682 30.3664 127.66 29.3604 127.682L31.2826 123.433ZM27.0548 132.703L29.1358 128.117H111.77L113.403 132.702L27.0548 132.703Z" fill="#4B1010"/>
<path d="M120.581 15.2148C109.981 15.2148 101.393 22.5496 101.393 31.5627C101.425 33.6807 101.901 35.7685 102.791 37.6908C103.681 39.6131 104.965 41.3271 106.559 42.722C104.569 45.6517 100.704 51.5503 101.393 52.0479C102.068 52.5348 108.371 48.5592 112.016 46.1884C124.897 51.6162 139.747 43.5976 139.747 31.5435C139.747 22.5273 131.159 15.2148 120.581 15.2148Z" fill="#FFE55D"/>
<path d="M111.076 19.9551V31.5069H130.063V19.9773C129.986 19.9796 130.032 19.9551 111.076 19.9551Z" fill="#FFE55D"/>
<path d="M130.063 32.9636H111.076V35.7699C111.098 36.7544 112.306 36.9093 113.069 37.1117C118.189 38.5524 123.616 38.4904 128.702 36.9331C129.089 36.8679 129.456 36.715 129.775 36.4861C130.132 36.1357 130.063 35.9685 130.063 32.9636Z" fill="white"/>
<path d="M130.063 18.4792V17.2524C130.063 13.7545 128.429 11.9725 126.552 9.33569H114.61C113.624 10.5809 112.742 11.9047 111.971 13.2937C111.235 14.9185 110.927 16.7047 111.076 18.4822L130.063 18.4792Z" fill="white"/>
<path d="M114.252 8.88779C114.65 8.88779 114.273 8.86555 126.887 8.86555C126.979 8.8597 127.069 8.83502 127.151 8.79302C127.234 8.75102 127.306 8.6926 127.365 8.62138C127.424 8.55016 127.467 8.46764 127.493 8.37894C127.518 8.29024 127.525 8.19725 127.514 8.1057C127.514 5.5808 127.54 5.68737 127.424 5.39908C127.133 4.96356 126.891 5.08624 124.383 5.08624H114.565C114.181 5.08624 113.751 5.08624 113.645 5.55549C113.579 6.13502 113.572 6.71961 113.622 7.30062C113.625 7.87874 113.447 8.84025 114.252 8.88779Z" fill="white"/>
<path d="M122.146 24.6523C122.116 24.6541 122.086 24.6496 122.058 24.6388C122.03 24.6281 122.005 24.6115 121.984 24.5902C121.962 24.5687 121.946 24.5431 121.935 24.515C121.925 24.487 121.921 24.4573 121.922 24.4276V21.6328H119.798V24.4276C119.799 24.4575 119.795 24.4874 119.784 24.5154C119.774 24.5434 119.757 24.5689 119.736 24.5902C119.715 24.6114 119.69 24.6278 119.662 24.6384C119.634 24.649 119.604 24.6535 119.574 24.6515H116.779V26.7762H119.574C119.604 26.7742 119.634 26.7787 119.662 26.7893C119.69 26.7998 119.715 26.8163 119.736 26.8375C119.757 26.8586 119.774 26.8841 119.784 26.9121C119.795 26.9402 119.8 26.9702 119.798 27.0001V29.7956H121.922V27.0001C121.921 26.9703 121.925 26.9407 121.935 26.9126C121.952 26.8707 121.981 26.835 122.019 26.8107C122.057 26.7863 122.101 26.7745 122.146 26.7769H124.942V24.6515H122.146V24.6523Z" fill="white"/>
<path d="M116.577 27.2234H119.37V30.019C119.369 30.0487 119.373 30.0784 119.383 30.1064C119.4 30.1482 119.429 30.1839 119.467 30.2084C119.505 30.2328 119.549 30.2449 119.594 30.2428H122.166C122.211 30.2453 122.255 30.2334 122.293 30.2089C122.331 30.1844 122.36 30.1485 122.376 30.1064C122.386 30.0785 122.391 30.0487 122.39 30.019V27.2234H125.185C125.215 27.2253 125.245 27.2209 125.273 27.2103C125.301 27.1997 125.326 27.1833 125.347 27.1621C125.368 27.1408 125.384 27.1155 125.395 27.0877C125.405 27.0597 125.41 27.03 125.408 27.0003C125.408 24.3565 125.441 24.3933 125.364 24.3166C125.342 24.2936 125.319 24.2492 125.296 24.2492C125.27 24.2315 125.239 24.2236 125.207 24.2269H122.39V21.4314C122.392 21.3863 122.38 21.3417 122.355 21.3039C122.331 21.2661 122.295 21.2369 122.253 21.2205C122.225 21.21 122.196 21.2055 122.166 21.2075H119.594C119.564 21.2058 119.534 21.2104 119.506 21.221C119.478 21.2315 119.453 21.2478 119.432 21.2688C119.41 21.2903 119.394 21.3159 119.383 21.344C119.373 21.372 119.369 21.4017 119.37 21.4314V24.2269H116.575C116.545 24.225 116.515 24.2295 116.487 24.24C116.459 24.2506 116.434 24.2671 116.413 24.2883C116.392 24.3094 116.375 24.3349 116.365 24.3629C116.354 24.3909 116.35 24.4209 116.352 24.4508V27.0225C116.352 27.0508 116.358 27.0787 116.37 27.1045C116.388 27.1431 116.418 27.1751 116.455 27.1964C116.492 27.2176 116.534 27.227 116.577 27.2234ZM116.801 24.6517H119.596C119.641 24.6542 119.686 24.6423 119.724 24.6177C119.761 24.5932 119.79 24.5573 119.806 24.5152C119.817 24.4874 119.822 24.4576 119.82 24.4278V21.633H121.944V24.4278C121.943 24.4575 121.947 24.4872 121.957 24.5152C121.974 24.5571 122.003 24.5928 122.041 24.6172C122.079 24.6417 122.123 24.6538 122.168 24.6517H124.964V26.7764H122.168C122.138 26.7747 122.108 26.7793 122.08 26.7899C122.052 26.8004 122.027 26.8167 122.006 26.8377C121.984 26.8592 121.968 26.8848 121.957 26.9129C121.947 26.9409 121.943 26.9706 121.944 27.0003V29.7958H119.82V27.0003C119.823 26.9552 119.811 26.9106 119.786 26.8728C119.762 26.835 119.726 26.8058 119.684 26.7894C119.656 26.7789 119.626 26.7744 119.596 26.7764H116.801V24.6517Z" fill="#4B1010"/>
<path d="M130.499 17.2718C130.5 15.2931 129.904 13.3601 128.788 11.7259C128.227 10.9189 127.653 10.1211 127.066 9.33287C127.3 9.28573 127.513 9.16508 127.673 8.98851C127.834 8.81195 127.933 8.58872 127.958 8.35143C127.958 8.32229 127.971 6.14702 127.958 5.77975C127.953 5.48293 127.83 5.20029 127.617 4.99383C127.511 4.89226 127.385 4.81263 127.248 4.75948C127.111 4.70633 126.965 4.6807 126.818 4.68407C126.796 4.68407 115.122 4.67257 114.272 4.68407C114.116 4.68484 113.961 4.71797 113.819 4.78134C113.676 4.84471 113.549 4.93696 113.444 5.05226C113.338 5.16755 113.258 5.30338 113.209 5.45117C113.159 5.59895 113.14 5.75548 113.154 5.91086C113.154 8.40817 113.105 8.46721 113.332 8.84061C113.496 9.09211 113.754 9.26999 114.048 9.33287C112.187 11.9145 110.626 13.7562 110.626 17.1598V35.7443C110.628 35.9457 110.67 36.1446 110.751 36.3291C110.832 36.5136 110.949 36.6798 111.096 36.8177C111.412 37.0416 111.769 37.2011 112.147 37.2878C117.811 38.9708 123.851 38.9083 129.479 37.1083C129.785 37.0045 130.049 36.8048 130.233 36.5389C130.416 36.273 130.508 35.9551 130.497 35.6324L130.499 17.2718ZM125.255 5.13108H126.82C126.94 5.12402 127.059 5.14944 127.165 5.20465C127.271 5.25987 127.361 5.34281 127.424 5.44468C127.538 5.72915 127.513 5.65094 127.513 8.15054C127.532 8.28861 127.508 8.42916 127.443 8.55249C127.378 8.67583 127.276 8.77577 127.151 8.83831C127.069 8.88033 126.979 8.90512 126.887 8.91115H125.255V5.13108ZM122.124 5.13108H124.83V8.88815H122.124V5.13108ZM118.97 5.13108H121.676V8.88815H118.97V5.13108ZM115.84 5.13108H118.545V8.88815H115.843L115.84 5.13108ZM113.625 7.34545C113.625 5.04521 113.356 5.13108 115.37 5.13108V8.91115H114.229C113.447 8.84061 113.625 7.87911 113.625 7.34239V7.34545ZM111.076 17.0924C111.107 13.3989 113.342 11.2007 114.587 9.3321H126.53C128.098 11.535 128.855 12.5034 129.347 13.7148C129.924 15.2295 130.16 16.8526 130.037 18.4687H111.054C111.076 18.0209 111.072 17.5401 111.076 17.0924ZM111.076 19.9546C111.076 19.9546 129.347 19.9991 130.063 19.9546V31.4842H111.076V19.9546ZM127.603 37.2425C122.829 38.4712 117.817 38.425 113.066 37.1083C112.309 36.8975 111.098 36.751 111.073 35.7665V32.9641H130.06C130.063 37.1965 130.4 36.3684 127.603 37.2425Z" fill="#4B1010"/>
<path d="M79.3196 84.0726C78.5406 83.953 78.7998 83.9668 78.7154 84.0504C78.0276 84.7724 77.1255 85.2537 76.1428 85.4229C75.16 85.592 74.1489 85.4401 73.2593 84.9896C72.9648 84.847 72.0754 84.3226 71.9619 83.9829C71.9619 83.9829 73.7507 102.702 73.9969 106.459H81.3577C80.9781 100.75 80.3363 94.3731 79.3196 84.0726Z" fill="#FFE55D"/>
<path d="M72.4087 76.9607V80.6511C74.2919 81.4301 76.4072 81.4301 78.2904 80.6511V78.7718C76.2098 78.6663 74.1883 78.0438 72.4087 76.9607Z" fill="#FFE55D"/>
<path d="M67.735 47.3291C66.7897 47.4275 65.9064 47.8454 65.2308 48.5137C64.2906 49.4863 63.7344 50.7665 63.6651 52.1174C63.4769 54.8536 63.5594 57.6017 63.9112 60.3217C65.0123 60.3374 66.0667 60.7688 66.8632 61.5293C67.7242 56.458 70.2016 51.593 70.6647 51.1299C70.2223 50.5587 67.7779 47.3966 67.735 47.3291Z" fill="#FFE55D"/>
<path d="M88.7771 47.0611V46.9959C88.7768 46.9664 88.7824 46.9372 88.7936 46.9099C88.8048 46.8826 88.8213 46.8579 88.8423 46.8372C88.8843 46.7955 88.9411 46.7721 89.0003 46.772C89.5646 46.8068 90.1075 47.0009 90.566 47.3317C90.2771 46.5806 89.8857 45.8731 89.4028 45.2293C88.8923 44.5528 88.2342 44.0017 87.4786 43.618C86.7229 43.2343 85.8897 43.028 85.0423 43.0149C84.8406 43.0379 84.7962 42.8141 84.8406 42.6799C85.1374 42.1252 85.2678 41.4967 85.2163 40.8697C85.1647 40.2427 84.9334 39.6439 84.55 39.1452C84.2655 38.8131 83.925 38.5333 83.5441 38.3186C83.5649 38.8887 83.457 39.4561 83.2286 39.9788C83.0002 40.5015 82.657 40.9661 82.2245 41.3381C81.7176 41.692 81.1201 41.8936 80.5024 41.9193C78.3839 42.0458 74.429 41.6892 72.2054 42.2099C71.0924 42.4723 70.0915 43.0816 69.3473 43.9498C68.6031 44.8181 68.154 45.9003 68.0649 47.0404C68.1163 47.0925 68.686 47.8378 70.9272 50.753C72.315 50.3389 73.7259 50.0092 75.1543 49.7692C80.7408 48.9089 87.2781 50.5183 88.6844 56.1424C90.2746 53.6497 89.8184 49.7631 88.7771 47.0611Z" fill="#FFE55D"/>
<path d="M126.195 66.4053C125.156 66.2273 124.094 66.2502 123.064 66.4728C123.024 66.4795 122.982 66.4748 122.944 66.4592C122.906 66.4436 122.873 66.4178 122.849 66.3845C122.824 66.3512 122.81 66.3119 122.807 66.2709C122.804 66.2299 122.812 66.1888 122.831 66.1523C122.857 66.1033 122.9 66.0659 122.952 66.0472C123.326 66.0472 125.882 65.0067 125.882 64.6609C125.83 64.5566 125.686 64.5229 125.524 64.4823C124.576 64.4143 123.624 64.505 122.706 64.7506C122.678 64.758 122.649 64.7598 122.62 64.7559C122.592 64.752 122.564 64.7425 122.539 64.728C122.515 64.7135 122.493 64.6942 122.475 64.6712C122.458 64.6483 122.445 64.6221 122.438 64.5942C122.43 64.5663 122.429 64.5373 122.432 64.5087C122.436 64.4801 122.446 64.4526 122.46 64.4276C122.475 64.4027 122.494 64.3809 122.517 64.3634C122.54 64.346 122.566 64.3332 122.594 64.3259C123.198 64.1568 123.788 63.9399 124.358 63.6772C124.634 63.5568 125.297 63.2532 125.431 62.9871C125.181 62.8658 124.903 62.8117 124.626 62.8299C122.861 62.9122 121.108 63.167 119.393 63.5905C119.192 63.6366 118.988 63.3605 119.17 63.2072C119.812 62.7145 120.357 62.1082 120.78 61.4183C120.89 61.2159 121.071 60.7283 120.758 60.7283C120.06 60.7283 117.096 62.6551 115.792 63.9034C115.17 64.4991 114.93 65.7436 114.851 66.8937C114.775 68.0615 114.851 67.8138 114.851 69.4914L120.376 69.782C120.557 69.3152 120.846 68.8978 121.219 68.5637C121.592 68.2295 122.039 67.9881 122.523 67.859C123.15 67.6735 125.683 67.2709 126.414 66.5395C126.328 66.495 126.261 66.4283 126.195 66.4053Z" fill="white"/>
<path d="M28.8666 91.0073C30.0351 90.5687 29.0598 90.9812 33.8312 88.8604C33.2493 87.3422 33.3175 87.5469 33.3175 87.4511C32.9352 86.2064 32.3204 85.0455 31.5057 84.0299C31.1978 83.7132 30.8236 83.4687 30.41 83.3137C29.3313 82.9311 28.2247 82.6322 27.1 82.4197C26.768 82.3522 25.1018 82.0363 24.9308 82.33C24.7989 82.5554 25.2667 82.9326 25.4223 83.0454C26.0049 83.467 26.656 83.7847 27.3469 83.9846C27.5247 84.0521 27.5922 84.3872 27.3469 84.4102C26.3317 84.5719 23.2831 85.0113 21.9336 85.637C21.7529 85.6993 21.5914 85.807 21.4644 85.9498C21.8171 86.3025 24.0713 86.2642 24.6395 86.2182C24.9308 86.1951 24.9078 86.6207 24.6395 86.6652C24.6395 86.7418 24.8948 86.5762 23.3437 86.9113C22.7814 86.9871 22.2448 87.1941 21.7772 87.5155C21.4552 87.7302 21.8401 87.8674 22.2242 87.918C23.1213 88.0469 24.0307 88.0622 24.9308 87.9625C25.1762 87.9625 25.2437 88.3658 24.9975 88.4103C24.0073 88.5683 23.047 88.8765 22.1498 89.3243C21.7665 89.5918 21.6637 89.7966 21.9735 89.8824C22.8453 90.1255 25.3012 89.6678 26.2519 89.6264C27.4649 89.8104 28.2317 89.9338 28.8666 91.0073Z" fill="white"/>
<path d="M40.2282 92.6603C40.1822 92.5836 40.209 92.6603 37.0976 87.8743C29.9078 91.1046 33.0844 89.6853 25.8931 92.8842L28.0844 97.9386C29.8809 97.1458 35.6561 94.9774 40.2282 92.6603Z" fill="white"/>
<path d="M71.0654 79.8235C68.677 80.1425 64.1777 81.8078 64.1777 81.9934L65.4973 96.2388L70.4812 95.5679C70.6345 95.5457 70.7273 95.7213 70.7051 95.8585L68.7652 106.437H73.5735C73.4186 104.184 72.2508 90.7274 71.0654 79.8235Z" fill="white"/>
<path d="M70.217 96.0602L65.3191 96.6859C65.1849 96.7081 65.0959 96.574 65.0959 96.4628L63.7541 82.1721C62.9935 82.5555 62.2352 82.9389 61.5175 83.3797C51.5889 89.5183 48.1592 99.7345 48.0772 99.8173C47.9238 99.9707 47.8188 99.917 47.7413 99.8396C45.2493 97.8881 42.9297 95.7258 40.8084 93.3766C40.698 93.2631 40.6075 93.1305 40.4956 93.0185C37.9392 94.322 31.9118 96.8278 29.2466 97.8935C31.1934 101.378 33.7413 104.498 37.2307 106.437H68.294L70.217 96.0602Z" fill="white"/>
<path d="M110.674 69.7146C110.405 70.5649 108.057 77.5646 107.968 77.7885L121.498 78.3697L121.99 70.341C120.842 70.2789 121.383 70.2889 110.674 69.7154V69.7146Z" fill="white"/>
<path d="M83.4352 95.1209C83.4529 95.0666 83.49 95.0207 83.5395 94.9921C83.5892 94.9639 83.6477 94.9551 83.7036 94.9676L88.3102 95.6162L85.0001 80.3871C83.1123 79.9163 81.1889 79.6019 79.2495 79.447C79.3837 80.7444 81.5306 102.594 81.799 106.463H85.8696C83.4168 95.1255 83.4352 95.3057 83.4352 95.1209Z" fill="white"/>
<path d="M107.811 78.2131C107.521 79.0834 105.231 85.7449 103.92 88.9476C103.799 89.2449 103.649 89.5295 103.472 89.7972C102.533 90.9603 101.202 89.7872 100.476 89.0143C99.8665 88.3765 99.2164 87.779 98.5297 87.2255C94.7188 84.0873 90.2812 81.7998 85.5142 80.5164C88.8457 95.9105 88.8242 95.751 88.8242 95.9281C88.8062 95.9822 88.7689 96.0278 88.7194 96.0561C88.6698 96.0844 88.6116 96.0934 88.5558 96.0815L83.9492 95.4328L86.3415 106.458H103.92C105.236 106.108 106.528 105.675 107.789 105.161C113.889 102.761 116.998 93.4162 118.546 87.0461C119.215 84.3416 119.738 81.6029 120.111 78.8419L107.811 78.2131Z" fill="white"/>
<path d="M72.4087 80.6514V83.8717C73.2051 84.62 74.2568 85.0366 75.3496 85.0366C76.4424 85.0366 77.4941 84.62 78.2904 83.8717V80.6514C76.4072 81.4304 74.2919 81.4304 72.4087 80.6514Z" fill="white"/>
<path d="M87.5503 54.3957C86.9118 53.2658 85.986 52.3247 84.8667 51.6676C78.955 48.2894 71.4095 51.1309 71.158 51.1309C71.0936 51.2605 70.8865 51.5189 70.8451 51.6454C69.0293 54.8353 67.8083 58.3286 67.2414 61.9551C67.2282 61.9919 67.2059 62.0249 67.1767 62.0509C67.1475 62.0769 67.1122 62.0952 67.0741 62.1041C67.036 62.1131 66.9963 62.1123 66.9585 62.1019C66.9208 62.0916 66.8863 62.072 66.858 62.0448C66.0361 61.2068 64.5892 60.4078 63.5035 60.7697C59.8599 61.6492 63.2267 69.299 66.398 67.7195C66.6181 67.6099 66.8136 67.5539 66.8136 67.8146C67.4404 71.1048 69.2551 74.0497 71.9125 76.0886C75.6212 78.6787 80.1167 78.8198 82.7811 77.4304C89.8935 73.7224 89.5791 58.126 87.5503 54.3957Z" fill="white"/>
<path d="M73.6444 70.8324C74.2493 70.8324 74.8295 70.5921 75.2573 70.1643C75.6851 69.7365 75.9254 69.1563 75.9254 68.5513C75.9254 67.9464 75.6851 67.3662 75.2573 66.9384C74.8295 66.5106 74.2493 66.2703 73.6444 66.2703C73.0394 66.2703 72.4592 66.5106 72.0314 66.9384C71.6036 67.3662 71.3633 67.9464 71.3633 68.5513C71.3633 69.1563 71.6036 69.7365 72.0314 70.1643C72.4592 70.5921 73.0394 70.8324 73.6444 70.8324Z" fill="#FFE55D"/>
<path d="M87.7054 70.1078C88.3104 70.1078 88.8906 69.8675 89.3184 69.4397C89.7461 69.0119 89.9865 68.4317 89.9865 67.8267C89.9865 67.2218 89.7461 66.6416 89.3184 66.2138C88.8906 65.786 88.3104 65.5457 87.7054 65.5457C87.1004 65.5457 86.5202 65.786 86.0924 66.2138C85.6646 66.6416 85.4243 67.2218 85.4243 67.8267C85.4243 68.4317 85.6646 69.0119 86.0924 69.4397C86.5202 69.8675 87.1004 70.1078 87.7054 70.1078Z" fill="#FFE55D"/>
<path d="M90.1657 64.2137C90.1932 63.3241 89.9629 62.4456 89.5027 61.6838C89.0426 60.922 88.372 60.3095 87.5718 59.9199C85.326 58.9568 82.6447 60.6268 82.3158 63.5872C81.8758 63.3106 81.3576 63.1849 80.8398 63.2292V59.6515C80.8419 59.621 80.8377 59.5903 80.8274 59.5615C80.8171 59.5327 80.801 59.5063 80.7801 59.484C80.7591 59.4617 80.7338 59.4439 80.7057 59.4319C80.6776 59.4198 80.6472 59.4136 80.6166 59.4138C80.586 59.4138 80.5558 59.42 80.5277 59.4321C80.4995 59.4442 80.4742 59.4619 80.4532 59.4842C80.4323 59.5065 80.4161 59.5328 80.4057 59.5616C80.3953 59.5904 80.3909 59.621 80.3928 59.6515V63.2744C79.915 63.347 79.4489 63.4824 79.0065 63.6769C78.8883 62.4769 78.3059 61.3705 77.3835 60.5937C76.4612 59.8169 75.2718 59.4312 74.0691 59.5189C72.8664 59.6065 71.7456 60.1606 70.9456 61.0629C70.1456 61.9653 69.7298 63.1444 69.7869 64.349C69.844 65.5535 70.3694 66.6881 71.2511 67.5107C72.1328 68.3334 73.3011 68.779 74.5067 68.7525C75.7123 68.7261 76.8598 68.2296 77.7046 67.3691C78.5494 66.5086 79.0245 65.3521 79.0287 64.1462C79.4601 63.9586 79.9098 63.8162 80.3705 63.7214C80.3598 63.9375 80.3598 64.154 80.3705 64.3701C80.4027 64.5664 80.1919 64.2934 83.1208 67.993C83.2987 68.2176 83.6131 67.9033 83.4345 67.6801L80.8398 64.3241V63.6754C81.0961 63.651 81.3548 63.6779 81.6006 63.7547C81.8464 63.8314 82.0744 63.9565 82.2713 64.1224C82.1946 66.9594 84.4772 69.2596 86.9899 68.6846C89.0003 68.2276 90.1665 66.1589 90.1657 64.2137ZM74.4665 68.328C73.9247 68.3266 73.3885 68.2184 72.8885 68.0097C72.3885 67.801 71.9345 67.4959 71.5524 67.1117C71.1703 66.7276 70.8676 66.2719 70.6616 65.7708C70.4556 65.2697 70.3503 64.7329 70.3518 64.1911C70.3533 63.6492 70.4614 63.113 70.6701 62.613C70.8788 62.113 71.1839 61.659 71.5681 61.2769C71.9523 60.8948 72.4079 60.5921 72.909 60.3861C73.4102 60.1801 73.947 60.0748 74.4888 60.0763C75.5788 60.0948 76.6186 60.5377 77.3871 61.311C78.1555 62.0842 78.5921 63.1267 78.6039 64.2167C78.5976 65.3097 78.1589 66.3557 77.3836 67.1261C76.6083 67.8965 75.5595 68.3287 74.4665 68.328ZM89.7187 64.2137C89.7488 65.015 89.5475 65.8081 89.1389 66.4981C88.7303 67.1882 88.1317 67.746 87.4146 68.1049C86.7193 68.381 85.9492 68.4045 85.2383 68.1716C84.5273 67.9386 83.9205 67.4638 83.5234 66.8298C81.4102 63.6861 83.8117 59.4353 86.9232 60.1652C88.7135 60.5854 89.7195 62.4693 89.7187 64.2137Z" fill="#4B1010"/>
<path d="M78.671 73.4049C79.3181 73.6272 80.0128 73.6732 80.6837 73.539C80.9735 73.4884 80.8371 73.0728 80.5718 73.1143C80.1111 73.2342 79.6265 73.2269 79.1697 73.0931C78.7129 72.9592 78.301 72.704 77.9779 72.3544C77.5938 71.8177 77.3759 71.1799 77.3514 70.5203H82.4733C82.5326 70.5203 82.5894 70.4968 82.6313 70.4549C82.6733 70.413 82.6968 70.3561 82.6968 70.2968C82.6968 70.2376 82.6733 70.1807 82.6313 70.1388C82.5894 70.0969 82.5326 70.0733 82.4733 70.0733H77.1283C77.0985 70.0717 77.0687 70.0763 77.0409 70.0869C77.013 70.0975 76.9877 70.1139 76.9666 70.135C76.9455 70.156 76.929 70.1813 76.9183 70.2091C76.9076 70.2369 76.9029 70.2667 76.9044 70.2964C76.8479 70.9327 76.9867 71.5711 77.3024 72.1265C77.618 72.6819 78.0954 73.1278 78.671 73.4049Z" fill="#4B1010"/>
<path d="M74.2854 57.4151C74.6681 57.3366 75.0611 57.3216 75.4486 57.3707C75.7392 57.4151 75.8511 56.9919 75.5606 56.9451C74.8161 56.8564 74.0614 56.96 73.3684 57.2459C72.6754 57.5318 72.0672 57.9905 71.6018 58.5783C71.4232 58.8014 71.7391 59.115 71.9154 58.8911C72.5081 58.1367 73.3469 57.6143 74.2854 57.4151Z" fill="#4B1010"/>
<path d="M84.6204 57.2363C85.0752 57.1979 85.5323 57.2739 85.9501 57.4573C86.368 57.6408 86.7332 57.9259 87.0127 58.2867C87.0546 58.3261 87.1102 58.3477 87.1678 58.3468C87.2253 58.346 87.2803 58.3228 87.321 58.2822C87.3618 58.2415 87.3851 58.1866 87.3861 58.1291C87.3871 58.0715 87.3656 58.0159 87.3263 57.9739C86.9927 57.5517 86.5558 57.2228 86.0579 57.0189C85.56 56.815 85.0178 56.743 84.484 56.8099C84.4296 56.8276 84.3839 56.8649 84.3555 56.9145C84.3272 56.9641 84.3183 57.0225 84.3306 57.0783C84.3552 57.1326 84.3967 57.1774 84.449 57.2059C84.5014 57.2344 84.5615 57.245 84.6204 57.2363Z" fill="#4B1010"/>
<path d="M75.0477 61.9772C75.0655 61.9179 75.059 61.854 75.0297 61.7995C75.0003 61.745 74.9506 61.7044 74.8913 61.6866C74.832 61.6688 74.7681 61.6753 74.7136 61.7046C74.6591 61.734 74.6185 61.7838 74.6007 61.843C74.6007 62.0899 74.2096 62.0938 74.133 62.1114C73.8904 62.2003 73.6842 62.367 73.5463 62.5855C73.4084 62.8039 73.3467 63.0618 73.3708 63.319C73.3708 63.9899 73.7734 64.5458 74.2648 64.5458C75.0623 64.5458 75.5054 63.1657 74.8238 62.3322C74.8223 62.3775 75.0117 62.1942 75.0477 61.9772Z" fill="#4B1010"/>
<path d="M85.2011 64.5714C86.0323 64.5714 86.4241 63.1145 85.7601 62.38C85.8304 62.3336 85.8894 62.2721 85.9328 62.1999C85.9762 62.1277 86.0028 62.0467 86.0108 61.9629C86.0234 61.9059 86.013 61.8462 85.9819 61.7968C85.9507 61.7474 85.9013 61.7123 85.8444 61.6991C85.8162 61.6927 85.787 61.6919 85.7585 61.6968C85.73 61.7016 85.7027 61.7121 85.6783 61.7276C85.6538 61.743 85.6327 61.7632 85.6161 61.7869C85.5995 61.8105 85.5877 61.8373 85.5814 61.8655C85.5814 62.0304 85.4104 62.0672 85.2456 62.0672C84.7541 62.0672 84.3516 62.6261 84.3516 63.294C84.3516 63.9618 84.7089 64.5714 85.2011 64.5714Z" fill="#4B1010"/>
<path d="M125.389 65.824C124.41 65.824 125.045 65.9344 125.97 65.2198C126.335 64.9384 126.53 64.4592 126.038 64.1686C125.61 63.976 125.138 63.9064 124.673 63.9677C125.147 63.7308 125.982 63.329 125.859 62.8268C125.71 62.2211 124.584 62.3307 124.137 62.3575C122.791 62.4618 121.453 62.6558 120.134 62.9387C120.513 62.581 120.844 62.175 121.117 61.7311C121.773 60.6822 121.207 60.0719 120.469 60.2996C118.851 60.9966 117.351 61.9396 116.021 63.0952C115.598 63.426 115.248 63.8415 114.994 64.3152C114.739 64.7889 114.587 65.3103 114.545 65.8463C114.362 67.0382 114.302 68.2458 114.367 69.45L110.498 69.2483C110.449 69.2457 110.4 69.2593 110.36 69.287C110.319 69.3148 110.289 69.355 110.274 69.4017C110.073 70.0059 105.171 84.3763 104.572 86.0854C104.181 87.2248 103.718 88.3379 103.185 89.4176C103.064 89.6223 102.868 89.7718 102.639 89.8346C102.41 89.8973 102.166 89.8682 101.958 89.7535C100.947 89.2068 101.045 88.9101 99.2741 87.3605C93.5428 82.3663 86.3114 79.4233 78.7214 78.996V78.8158C83.7896 79.0182 86.8114 75.2888 88.1816 70.4069C89.1797 66.5476 89.4676 62.539 89.0311 58.5767C88.8487 56.4612 88.6209 56.8799 88.9422 56.452C90.3408 54.2231 90.363 51.6898 89.814 49.0491C89.6987 48.4405 89.5344 47.8423 89.3225 47.2603C89.8939 47.4082 90.4175 47.7008 90.843 48.1098C90.8773 48.15 90.9245 48.1768 90.9766 48.1856C91.0286 48.1945 91.0821 48.1848 91.1278 48.1582C91.1734 48.1317 91.2083 48.0899 91.2263 48.0403C91.2443 47.9907 91.2443 47.9363 91.2263 47.8867C90.3492 45.0643 88.5427 42.9511 85.6352 42.5639C85.5455 42.5639 85.4819 42.5417 85.3891 42.5417C85.5961 42.0646 85.701 41.5496 85.6972 41.0296C85.6934 40.5096 85.5809 39.9962 85.3669 39.5222C84.9445 38.6963 84.2358 38.0525 83.3733 37.7112C83.1962 37.6399 83.0605 37.8453 83.1049 37.9795C83.1912 38.5115 83.1421 39.0565 82.9623 39.5645C82.7825 40.0725 82.4776 40.5271 82.076 40.8863C81.1421 41.7052 79.9812 41.446 77.3352 41.446C75.6464 41.3768 73.9549 41.459 72.2807 41.6914C71.0582 41.9444 69.9489 42.5827 69.1158 43.5125C68.2827 44.4424 67.7696 45.6148 67.6519 46.8577C66.5518 47.0296 65.5361 47.5507 64.7547 48.344C63.9734 49.1373 63.4679 50.1608 63.3129 51.2634C63.1127 52.6779 63.0455 54.108 63.112 55.535C63.23 58.5568 63.447 60.1478 63.447 60.3433C59.131 61.35 62.6734 69.647 66.422 68.148C67.088 71.2261 68.7457 74.0005 71.1406 76.0455C71.4044 76.2526 71.6773 76.4481 71.9457 76.6497V79.1992C65.7128 80.3324 60.5825 82.4717 55.6906 87.4287C52.3224 90.8329 49.6459 94.8576 47.8092 99.2803C45.5053 97.45 43.3515 95.4383 41.3685 93.2644C40.4055 92.214 41.104 93.384 37.3883 87.4272C37.3555 87.377 37.3058 87.3403 37.2482 87.3239C37.1906 87.3074 37.129 87.3122 37.0747 87.3375L34.2377 88.6126L33.7455 87.3375C33.7455 87.3344 33.7455 87.3313 33.7439 87.329C33.7429 87.3262 33.7414 87.3236 33.7393 87.3213C33.7373 87.3191 33.7346 87.3175 33.7317 87.3167C33.7294 87.3152 33.7263 87.3152 33.7232 87.3152C33.4764 86.594 33.1776 85.8916 32.8292 85.2136C32.4095 84.18 31.6089 83.3472 30.5926 82.8872C28.9013 82.2378 27.122 81.846 25.3143 81.7249C24.3812 81.7049 23.9901 82.4395 24.9118 83.2231C26.7236 84.7619 27.646 83.4968 22.7204 84.8777C22.2243 85.0165 21.1102 85.3861 20.976 85.8845C20.7851 86.6029 22.0495 86.6665 22.452 86.6896C20.884 87.1496 20.8909 87.9762 21.5128 88.2545C21.9559 88.4209 22.4252 88.5044 22.899 88.5006C22.8546 88.5228 22.8093 88.5221 22.7457 88.5451C20.7989 89.2283 21.0734 90.1553 22.2312 90.2672C24.053 90.4389 25.7222 89.9206 26.6369 90.0218C27.0014 90.0641 27.3508 90.1912 27.6571 90.3931C27.9634 90.595 28.218 90.866 28.4005 91.1842L25.4032 92.526C25.3528 92.5586 25.316 92.6083 25.2995 92.666C25.283 92.7237 25.288 92.7854 25.3135 92.8396L27.6621 98.3188C27.6947 98.3689 27.7444 98.4055 27.8019 98.4218C27.8594 98.4382 27.9208 98.4332 27.9749 98.4078L28.7355 98.0727C30.4393 101.124 34.355 106.09 37.1222 106.844H104.012C105.789 106.374 107.513 105.72 109.156 104.894C116.204 100.712 119.37 86.8161 120.449 78.7951H121.613C121.642 78.7966 121.672 78.7922 121.7 78.7821C121.728 78.7712 121.754 78.7548 121.775 78.7338C121.796 78.7122 121.813 78.6867 121.823 78.6586C121.834 78.6306 121.838 78.6009 121.837 78.5712L122.373 70.0956C122.374 70.0397 122.354 69.9856 122.316 69.9441C122.279 69.9026 122.227 69.8767 122.172 69.8717L120.763 69.782C120.933 69.4062 121.187 69.074 121.505 68.8106C121.822 68.5472 122.196 68.3595 122.596 68.2615C123.746 67.9479 126.133 67.5638 126.711 66.7633C127.235 66.0341 125.836 65.824 125.389 65.824ZM68.0928 46.9957C68.197 45.8631 68.6519 44.7913 69.394 43.9294C70.1362 43.0676 71.1286 42.4586 72.2332 42.1874C73.9013 41.897 75.5972 41.7995 77.2876 41.8968C80.0663 41.8968 81.1214 42.1529 82.2523 41.3156C82.694 40.9514 83.0437 40.4882 83.2729 39.9636C83.5022 39.439 83.6046 38.8678 83.5719 38.2962C85.0057 39.0131 85.7311 40.6731 84.8685 42.6575C84.8018 42.7916 84.8685 43.0148 85.0701 42.9925C85.5639 42.9724 86.0572 43.0407 86.5269 43.1942C87.4813 43.5113 88.3473 44.0491 89.0545 44.7641C89.7617 45.479 90.2902 46.3508 90.5968 47.3086C90.1383 46.978 89.5954 46.7842 89.0311 46.7496C89.0012 46.7474 88.9712 46.7518 88.9431 46.7624C88.9151 46.773 88.8896 46.7895 88.8686 46.8109C88.8474 46.8321 88.831 46.8575 88.8205 46.8856C88.8101 46.9136 88.8058 46.9436 88.808 46.9735C89.3468 48.4534 89.6571 50.0068 89.7281 51.5801C89.7987 52.8729 89.577 54.1649 89.0795 55.3602C88.9721 55.6079 88.8333 55.8517 88.6961 56.0978C88.3993 54.6946 87.6816 53.4152 86.6389 52.4304C83.8786 49.7729 79.1378 49.1534 75.166 49.7238C73.7375 49.962 72.3257 50.2908 70.9389 50.7083C70.9389 50.7083 68.1664 47.0854 68.102 46.9957H68.0928ZM63.6648 52.1168C63.7281 50.7645 64.2852 49.4823 65.2305 48.5131C65.9126 47.8541 66.7926 47.4378 67.7347 47.3285C67.783 47.4052 67.7431 47.3285 70.6422 51.0856C69.9604 52.1985 69.3706 53.3653 68.8787 54.5743C67.9532 56.7988 67.2699 59.1165 66.8407 61.4873C66.0424 60.7296 64.9891 60.2987 63.8887 60.2797C63.5347 57.5728 63.4597 54.8367 63.6648 52.1145V52.1168ZM66.8629 67.859C66.8629 67.8367 66.8407 67.7915 66.8407 67.7693C66.8138 67.6374 66.6037 67.5584 66.5271 67.6351C63.4141 69.3564 59.8218 61.8438 63.5528 60.811C64.6409 60.4483 66.0931 61.2565 66.9074 62.0861C66.9294 62.1137 66.9588 62.1345 66.9922 62.1461C67.0256 62.1577 67.0616 62.1596 67.096 62.1516C67.1304 62.1435 67.1619 62.1259 67.1867 62.1008C67.2115 62.0756 67.2287 62.044 67.2363 62.0094C67.3736 61.3017 68.4301 55.6347 71.2012 51.1691C71.3231 51.1691 77.5912 48.8988 82.9869 50.8341C84.9212 51.4131 86.5663 52.6999 87.5943 54.4378C89.6215 58.1542 89.9957 73.6333 82.8757 77.5169C81.2599 78.3088 79.4389 78.5822 77.6618 78.2998C72.0223 77.7424 68.0138 73.4102 66.8629 67.859ZM72.4088 76.961C74.187 78.0506 76.2082 78.6809 78.2905 78.7951V83.8717C77.4941 84.6199 76.4424 85.0364 75.3497 85.0364C74.2569 85.0364 73.2052 84.6199 72.4088 83.8717V76.961ZM27.659 89.8877C26.674 89.5281 25.6006 89.4889 24.592 89.7757C23.3085 89.9222 22.1093 89.9988 21.8187 89.7082C21.8371 89.1401 24.3313 88.5849 24.9279 88.4814C25.174 88.437 25.1288 88.0344 24.8604 88.0344C24.2616 88.0942 21.995 88.1878 21.5733 87.7661C21.7926 87.1067 24.4785 86.7593 24.5698 86.7593V86.7371C24.8382 86.6926 24.8612 86.2724 24.5698 86.2901C23.9947 86.3238 21.9935 86.3813 21.5028 86.0884C21.4583 86.0662 21.4361 86.0439 21.3909 86.0217C21.7229 85.3577 26.5196 84.558 27.2726 84.4782C27.5187 84.4522 27.4528 84.1163 27.2726 84.0535C26.5914 83.8305 25.9442 83.5144 25.3496 83.1142C25.1962 83.0038 24.7009 82.6219 24.8573 82.3988C24.947 82.2455 25.3718 82.2823 25.5474 82.2869C27.179 82.4701 28.7846 82.8382 30.3334 83.3826C30.7556 83.5198 31.1337 83.7667 31.4291 84.0979C31.7777 84.4934 32.0781 84.9289 32.3239 85.3953C32.715 86.0874 33.0238 86.8228 33.244 87.5866L33.7585 88.9285C28.8183 91.1244 29.9424 90.6452 28.7938 91.0754C28.5769 90.5518 28.1722 90.1282 27.659 89.8877ZM28.0616 97.9385L25.8702 92.8841C35.7045 88.5136 25.8794 92.904 37.0739 87.8742C40.1892 92.6671 40.0382 92.4524 40.2053 92.6602C34.8856 95.3377 31.2121 96.5484 28.0616 97.9385ZM68.2944 106.459H37.2311C36.8286 106.213 36.4061 106.008 36.0235 105.743C33.2001 103.682 30.8827 101.005 29.247 97.9155C32.8936 96.4687 36.9996 94.7481 40.4959 93.0405C40.8417 93.473 43.1957 95.8553 43.6043 96.2609C44.9099 97.5738 46.3074 98.7919 47.7862 99.906C47.9004 99.975 47.9832 99.9336 48.0775 99.8393C48.1719 99.745 48.0775 99.7005 48.8374 98.0758C51.945 91.425 57.1121 85.3224 63.7545 82.1972L65.0963 96.4878C65.0963 96.5998 65.1852 96.734 65.3194 96.711L70.2174 96.0853L68.2944 106.459ZM70.6867 95.8775C70.7097 95.7433 70.62 95.5647 70.4635 95.5869L65.4797 96.2578L64.157 82.0154C66.3358 80.9627 68.6559 80.232 71.0447 79.8463C71.3576 82.7308 73.4155 104.536 73.5497 106.481H68.7414L70.6867 95.8775ZM74.019 106.459C73.6195 100.387 72.9317 93.6164 71.984 83.9829C72.0484 84.1762 72.1374 84.2337 72.3674 84.4085C75.3853 86.7003 78.7858 84.525 78.7858 83.9607L79.367 84.0504C79.5012 85.37 81.2686 104.401 81.4028 106.439C73.6985 106.436 74.019 106.382 74.019 106.459ZM81.8245 106.459C81.2578 98.2974 80.1415 87.8197 79.275 79.443C81.2142 79.6002 83.1374 79.9146 85.0256 80.383L88.3349 95.6122L83.7283 94.9635C83.6725 94.9511 83.614 94.9598 83.5642 94.9881C83.5148 95.0167 83.4776 95.0626 83.4599 95.1169C83.4599 95.2902 83.4369 95.1222 85.9197 106.455L81.8245 106.459ZM119.754 81.0087C118.408 88.8525 115.178 102.261 107.767 105.117C106.505 105.627 105.213 106.06 103.898 106.414H86.3191L83.9261 95.3891L88.5335 96.037C88.5894 96.049 88.6477 96.0403 88.6976 96.0124C88.7471 95.9838 88.7842 95.938 88.8019 95.8836C88.8019 95.7096 88.8234 95.8714 85.4918 80.472C86.9696 80.8653 88.4191 81.3584 89.8301 81.948C91.7278 83.9216 93.7996 87.9424 94.8623 90.5133C97.3059 96.4265 96.9072 97.0506 97.3925 96.954C97.4469 96.9363 97.4928 96.8992 97.5214 96.8497C97.5496 96.8 97.5583 96.7415 97.5459 96.6856C96.2048 92.125 93.8716 86.3637 90.8146 82.3958C94.4052 83.9951 97.6779 86.2289 100.476 88.9898C101.945 90.5034 103.159 90.8906 103.92 88.9223C104.325 87.8726 104.328 88.1556 106.29 82.5936C106.804 81.1368 107.319 79.6638 107.811 78.1878L120.089 78.769C119.996 79.5182 119.884 80.265 119.754 81.0087ZM121.991 70.3187L121.498 78.3473L107.968 77.7661C108.122 77.3759 110.57 70.0143 110.674 69.693L121.991 70.3187ZM122.482 67.8812C121.997 68.0078 121.549 68.2484 121.176 68.5828C120.802 68.9173 120.514 69.336 120.335 69.8042L114.815 69.5136C114.77 68.5824 114.776 67.6494 114.831 66.7188C114.817 65.7103 115.141 64.7261 115.752 63.9232C116.552 63.1699 117.429 62.5018 118.368 61.9297C119.087 61.418 119.878 61.0184 120.716 60.7443C121.03 60.7443 120.828 61.2358 120.739 61.4344C120.319 62.1267 119.773 62.7336 119.128 63.2232C118.947 63.3765 119.151 63.6495 119.352 63.6066C120.119 63.4318 124.843 62.4565 125.39 63.0031C125.129 63.5261 122.676 64.345 122.553 64.345C122.519 64.3544 122.487 64.3722 122.461 64.3968C122.434 64.4214 122.415 64.4521 122.403 64.4861C122.391 64.5201 122.388 64.5564 122.393 64.592C122.399 64.6275 122.413 64.6612 122.435 64.69C122.461 64.7248 122.497 64.751 122.538 64.7653C122.579 64.7795 122.623 64.781 122.665 64.7697C123.243 64.6164 125.598 64.1947 125.84 64.68C125.84 65.0228 123.31 66.0671 122.911 66.0671C122.856 66.0883 122.81 66.1308 122.786 66.1852C122.76 66.2393 122.757 66.3013 122.777 66.3577C122.899 66.6644 123.03 66.3577 124.969 66.2902C125.369 66.2469 125.774 66.2927 126.154 66.4244C126.228 66.4565 126.29 66.5099 126.333 66.5777C126.046 67.1474 122.56 67.8597 122.481 67.8812H122.482Z" fill="#4B1010"/>
<path d="M118.612 64.1707C118.538 64.6346 118.32 65.0635 117.99 65.3975C117.949 65.4392 117.926 65.4954 117.926 65.554C117.926 65.6125 117.949 65.6687 117.99 65.7104C118.011 65.7311 118.035 65.7475 118.062 65.7587C118.089 65.7699 118.117 65.7756 118.147 65.7756C118.176 65.7756 118.204 65.7699 118.231 65.7587C118.258 65.7475 118.282 65.7311 118.303 65.7104C118.673 65.3545 118.939 64.9035 119.07 64.4069C119.18 64.0251 118.68 63.8556 118.612 64.1707Z" fill="#4B1010"/>
<path d="M29.135 86.0632C29.1629 86.0706 29.192 86.0724 29.2206 86.0685C29.2492 86.0646 29.2767 86.0551 29.3016 86.0406C29.3265 86.0261 29.3483 86.0068 29.3658 85.9838C29.3833 85.9609 29.3961 85.9347 29.4034 85.9068C29.4108 85.8789 29.4125 85.8499 29.4087 85.8213C29.4048 85.7927 29.3953 85.7652 29.3808 85.7402C29.3662 85.7153 29.347 85.6935 29.324 85.676C29.301 85.6586 29.2749 85.6458 29.247 85.6385C28.9564 85.6385 28.4036 85.0059 28.2402 84.7881C28.0486 84.4684 27.7434 84.8403 27.8814 85.0435C28.1688 85.5181 28.6118 85.8785 29.135 86.0632Z" fill="#4B1010"/>
<path d="M119.754 75.7754C119.657 75.7743 119.561 75.7926 119.47 75.8294C119.38 75.8661 119.299 75.9204 119.23 75.9892C119.161 76.058 119.107 76.1399 119.07 76.23C119.034 76.3201 119.015 76.4166 119.017 76.5138C119.018 76.711 119.096 76.9 119.233 77.0415C119.371 77.183 119.557 77.2662 119.754 77.2737C119.853 77.2737 119.95 77.2543 120.041 77.2166C120.132 77.179 120.214 77.1238 120.284 77.0543C120.354 76.9847 120.409 76.9021 120.446 76.8112C120.484 76.7203 120.503 76.6229 120.503 76.5246C120.503 76.4262 120.484 76.3288 120.446 76.2379C120.409 76.147 120.354 76.0644 120.284 75.9948C120.214 75.9253 120.132 75.8701 120.041 75.8325C119.95 75.7948 119.853 75.7754 119.754 75.7754Z" fill="#4B1010"/>
<path d="M28.9343 94.5165C28.8234 94.5145 28.7135 94.5372 28.6125 94.5829C28.5115 94.6287 28.422 94.6963 28.3503 94.7809C28.2787 94.8656 28.2268 94.9651 28.1983 95.0722C28.1699 95.1794 28.1657 95.2915 28.1859 95.4005C28.221 95.5821 28.3218 95.7444 28.4692 95.8561C28.6166 95.9678 28.8 96.0211 28.9843 96.0058C29.1686 95.9905 29.3408 95.9076 29.4677 95.7731C29.5946 95.6386 29.6673 95.462 29.6719 95.2771C29.6703 95.0798 29.5927 94.8907 29.4554 94.7491C29.318 94.6075 29.1314 94.5242 28.9343 94.5165Z" fill="#4B1010"/>
</svg>
