<svg width="156" height="156" viewBox="0 0 156 156" fill="none" xmlns="http://www.w3.org/2000/svg">
<path d="M148.786 71.0323C133.582 66.1111 128.874 76.5318 115.056 77.3765C104.669 78.0114 96.7739 71.8901 67.1533 77.9773L69.881 31.6941C99.5023 25.6062 107.397 31.7274 117.785 31.0933C131.603 30.2494 136.306 19.8248 151.512 24.746L151.124 29.7167L149.747 31.0732L150.959 32.5318L150.653 38.3194L149.15 39.6031L150.499 40.9209L150.154 46.7324L148.564 48.2561L149.976 49.7551L149.682 55.3955L148.176 56.9448L149.495 58.5606L149.237 63.3718L147.528 64.901L149.026 66.3202L148.787 71.033L148.786 71.0323Z" fill="white"/>
<path d="M66.9131 77.9611L69.6408 31.6779C69.6462 31.5687 69.7259 31.4773 69.8336 31.4549C99.3689 25.3608 107.486 31.4773 117.771 30.8479C131.515 30.007 136.371 19.5152 151.587 24.5114C151.693 24.5462 151.761 24.6484 151.754 24.7599L151.366 29.7306C151.358 29.8576 151.406 29.7748 150.076 31.0833C151.236 32.4808 151.208 32.4095 151.2 32.5381C150.849 38.7274 150.926 38.3984 150.811 38.4959L149.509 39.6078L150.67 40.7413C150.793 40.8597 150.771 40.5105 150.398 46.7402C150.39 46.8695 150.442 46.7858 148.906 48.2561C150.239 49.6699 150.227 49.6157 150.219 49.759C149.892 55.8423 149.951 55.4582 149.858 55.5558L148.501 56.951L149.685 58.4004C149.77 58.5065 149.771 58.1248 149.479 63.375C149.472 63.5182 149.509 63.4439 147.886 64.8964C149.322 66.259 149.274 66.1715 149.266 66.3233C149.001 71.4481 149.063 71.1244 148.923 71.222C148.862 71.2646 148.784 71.2762 148.712 71.2537C133.483 66.4433 128.94 76.7672 115.074 77.6127C104.541 78.2553 96.196 71.9931 67.2042 78.2081C67.0478 78.2413 66.9069 78.1206 66.9146 77.9611H66.9131ZM70.11 31.8854L67.4125 77.6769C96.7566 71.6997 104.793 77.7605 115.041 77.1334C128.686 76.2988 133.492 65.9819 148.557 70.7025L148.776 66.4147C147.252 64.9684 147.284 65.0419 147.284 64.8933C147.284 64.7531 147.211 64.8538 148.998 63.2549L149.247 58.6389L147.985 57.095C147.907 57.0005 147.912 56.8627 147.998 56.7737L149.441 55.2894L149.725 49.8418L148.384 48.4164C148.292 48.3196 148.296 48.1679 148.393 48.0765L149.914 46.6202L150.248 41.013L148.977 39.7719C148.876 39.6712 148.881 39.5087 148.99 39.4157L150.415 38.1986L150.71 32.6078L149.56 31.2218C149.48 31.1251 149.488 30.9841 149.577 30.8951L150.888 29.6021L151.254 24.9117C136.316 20.1733 131.609 30.4863 117.798 31.3279C107.405 31.9613 99.4944 25.8787 70.1092 31.8861L70.11 31.8854Z" fill="black"/>
<path d="M74.2937 68.3666H74.255C73.8973 68.3465 73.624 68.0383 73.6441 67.6799L75.5588 35.1737C75.579 34.816 75.8856 34.5427 76.2456 34.5628C76.6041 34.5829 76.8766 34.8911 76.8557 35.2496L74.941 67.7557C74.9209 68.1011 74.6352 68.3666 74.2937 68.3666Z" fill="black"/>
<path d="M137.455 63.5144H137.416C137.059 63.4942 136.785 63.186 136.806 62.8275L138.721 30.3214C138.741 29.9637 139.048 29.6904 139.408 29.7113C139.765 29.7315 140.039 30.0396 140.018 30.3981L138.103 62.9042C138.083 63.2495 137.797 63.5144 137.456 63.5144H137.455Z" fill="black"/>
<path d="M121.043 56.2667H121.004C120.647 56.2466 120.373 55.9384 120.394 55.5799L121.589 35.2976C121.609 34.9392 121.916 34.6674 122.276 34.6868C122.634 34.7061 122.907 35.015 122.886 35.3735L121.691 55.6558C121.671 56.0011 121.385 56.2659 121.044 56.2659L121.043 56.2667Z" fill="black"/>
<path d="M120.323 68.4905H120.284C119.926 68.4704 119.653 68.1622 119.673 67.8037L120.076 60.9702C120.096 60.6125 120.4 60.3384 120.763 60.3601C121.12 60.381 121.394 60.6884 121.373 61.0468L120.97 67.8804C120.95 68.2257 120.664 68.4905 120.323 68.4905Z" fill="black"/>
<path d="M128.398 65.7466H128.36C128.002 65.7265 127.729 65.4184 127.75 65.0599L129.04 43.1671C129.06 42.8094 129.366 42.5361 129.726 42.557C130.085 42.5772 130.357 42.8853 130.337 43.2438L129.047 65.1365C129.027 65.4818 128.741 65.7466 128.4 65.7466H128.398Z" fill="black"/>
<path d="M129.951 39.402H129.912C129.555 39.3818 129.281 39.0737 129.302 38.7152L129.666 32.5553C129.686 32.1975 129.993 31.925 130.353 31.9451C130.712 31.9645 130.984 32.2734 130.963 32.6319L130.599 38.7918C130.579 39.1372 130.293 39.402 129.952 39.402H129.951Z" fill="black"/>
<path d="M112.756 43.397H112.718C112.36 43.3768 112.087 43.0687 112.108 42.7102L112.482 36.3459C112.502 35.9881 112.813 35.7148 113.169 35.7357C113.528 35.7559 113.8 36.064 113.779 36.4225L113.404 42.7868C113.384 43.1322 113.099 43.397 112.757 43.397H112.756Z" fill="black"/>
<path d="M111.216 69.5389H111.178C110.819 69.5187 110.547 69.2106 110.568 68.8521L111.83 47.4487C111.85 47.091 112.158 46.8169 112.516 46.8386C112.874 46.8603 113.147 47.1669 113.127 47.5254L111.865 68.9288C111.845 69.2741 111.559 69.5397 111.218 69.5397L111.216 69.5389Z" fill="black"/>
<path d="M102.952 46.6831H102.913C102.555 46.6629 102.282 46.3548 102.303 45.9963L102.95 34.9989C102.97 34.6411 103.277 34.3686 103.637 34.3887C103.995 34.4081 104.268 34.717 104.247 35.0755L103.6 46.073C103.58 46.4183 103.294 46.6839 102.952 46.6839L102.952 46.6831Z" fill="black"/>
<path d="M101.685 68.1917H101.646C101.288 68.1716 101.015 67.8634 101.036 67.5049L102.025 50.7037C102.045 50.346 102.351 50.0734 102.711 50.0936C103.07 50.1129 103.342 50.4219 103.321 50.7803L102.333 67.5816C102.313 67.9269 102.027 68.1917 101.685 68.1917H101.685Z" fill="black"/>
<path d="M93.1585 53.0419H93.1197C92.7613 53.0218 92.4887 52.7136 92.5089 52.3552L93.6021 33.8041C93.6222 33.4464 93.9288 33.1731 94.2889 33.194C94.6466 33.2141 94.9199 33.5223 94.899 33.8808L93.8057 52.4318C93.7856 52.7771 93.4999 53.0427 93.1585 53.0427V53.0419Z" fill="black"/>
<path d="M92.3365 66.9953H92.2978C91.9401 66.9752 91.6667 66.6671 91.6876 66.3086L92.2923 56.0443C92.3125 55.6866 92.6167 55.4133 92.9791 55.4342C93.3368 55.4544 93.6101 55.7625 93.5892 56.121L92.9845 66.3852C92.9644 66.7306 92.6779 66.9961 92.3372 66.9961L92.3365 66.9953Z" fill="black"/>
<path d="M84.2615 54.1569H84.2228C83.8643 54.1367 83.5918 53.8286 83.6119 53.4701L84.7438 34.2524C84.764 33.8947 85.0706 33.6206 85.4306 33.6423C85.7883 33.664 86.0616 33.9706 86.0407 34.3291L84.9088 53.546C84.8886 53.8913 84.6029 54.1569 84.2615 54.1569Z" fill="black"/>
<path d="M83.4788 67.4461H83.4401C83.0816 67.426 82.809 67.1178 82.8292 66.7594L83.4176 56.7917C83.4377 56.434 83.7443 56.1606 84.1044 56.1815C84.4621 56.2017 84.7354 56.5098 84.7145 56.8683L84.126 66.836C84.1059 67.1813 83.8194 67.4461 83.4788 67.4461Z" fill="black"/>
<path d="M36.6972 10.9532L28.934 117.43C28.7306 120.22 30.8269 122.646 33.616 122.849L85.2546 126.614C88.0442 126.817 90.4699 124.721 90.6728 121.932L98.4362 15.4545C98.6398 12.6654 96.5431 10.2395 93.7543 10.0361L42.1156 6.2712C39.3264 6.06785 36.9006 8.16406 36.6972 10.9532Z" fill="#81F8F8"/>
<path d="M93.7727 9.79616L42.1324 6.03095C39.2135 5.82113 36.6701 8.01845 36.4564 10.9351L28.693 117.412C28.2416 121.925 31.5391 124.482 34.8607 124.725C34.8607 124.725 86.7611 128.505 86.8904 128.505C89.6405 128.505 91.9726 126.374 92.177 123.586L99.9404 17.109C100.147 14.2992 98.8944 10.0625 93.7727 9.79616ZM29.1753 117.448L36.9388 10.9707C37.1246 8.4381 39.2429 6.4986 41.7445 6.4986L93.7394 10.2762C96.3974 10.4721 98.3888 12.7778 98.196 15.4366L90.4326 121.914C90.2375 124.566 87.924 126.568 85.2722 126.373L33.6319 122.608C30.9739 122.412 28.9833 120.107 29.1753 117.448Z" fill="black"/>
<path d="M33.3432 110.438L40.2216 16.0862C40.2689 15.4404 40.8325 14.9534 41.4783 14.9999L93.1185 18.7651C93.7642 18.8123 94.2512 19.376 94.2048 20.0217L87.3256 114.374C87.2783 115.019 86.7147 115.506 86.0689 115.46L34.4287 111.695C33.783 111.647 33.296 111.084 33.3424 110.438H33.3432Z" fill="#FFD997"/>
<path d="M86.1534 115.704L34.411 111.935C33.6313 111.878 33.0452 111.199 33.1025 110.421L39.9817 16.0691C40.039 15.2918 40.7165 14.7018 41.4962 14.7606L93.1364 18.525C93.9153 18.5823 94.5022 19.2614 94.4449 20.0395L87.5649 114.391C87.5115 115.135 86.8874 115.703 86.155 115.703L86.1534 115.704ZM34.4481 111.453L86.0868 115.217C86.5986 115.258 87.0477 114.869 87.0848 114.355L93.9648 20.0031C94.002 19.489 93.6141 19.0422 93.1023 19.0051L41.4621 15.2407C40.9503 15.202 40.5012 15.5914 40.4641 16.1032L33.5856 110.455C33.5485 110.969 33.934 111.416 34.4481 111.453Z" fill="black"/>
<path d="M62.7248 11.175L72.6515 11.8989C73.2314 11.9415 73.6665 12.4455 73.624 13.0247C73.5814 13.6038 73.0773 14.0397 72.4982 13.9971L62.5715 13.2732C61.9924 13.2306 61.5565 12.7266 61.5991 12.1475C61.6416 11.5683 62.1457 11.1324 62.7248 11.175Z" fill="black"/>
<path d="M59.6222 122.185C57.7764 122.057 56.385 120.449 56.5198 118.595C56.6537 116.749 58.2556 115.357 60.11 115.492C61.9519 115.626 63.3471 117.224 63.2124 119.082C63.0831 120.86 61.5586 122.319 59.6222 122.185ZM57.0006 118.629C56.8852 120.215 58.076 121.587 59.6578 121.704C61.2319 121.821 62.617 120.636 62.7324 119.047C62.8477 117.461 61.6569 116.092 60.0752 115.972C58.529 115.855 57.1175 117.02 57.0006 118.629Z" fill="black"/>
<path d="M82.6004 103.905L40.1637 101.34C38.3945 101.231 37.0675 99.6835 37.2154 97.9244L37.4933 94.6757C37.6358 92.9971 39.1014 91.694 40.828 91.7978L82.708 94.3768C84.4772 94.486 85.8043 96.0337 85.6564 97.7928L85.3777 101.042C85.2515 102.528 84.0831 103.736 82.5996 103.905H82.6004Z" fill="white"/>
<path d="M40.149 101.581C38.2536 101.465 36.8158 99.8092 36.9761 97.9061L37.2548 94.6573C37.4066 92.885 38.9396 91.4527 40.8435 91.5588L82.7235 94.1378C84.6204 94.2539 86.0566 95.9108 85.8964 97.8132L85.6184 101.062C85.4814 102.663 84.2248 103.958 82.629 104.144C82.588 103.794 82.5957 103.857 82.629 104.144L40.1497 101.581H40.149ZM37.7348 94.6976L37.4561 97.9463C37.3167 99.563 38.537 100.999 40.1761 101.101L82.0561 103.68C83.6495 103.782 85.0021 102.576 85.1345 101.022L85.4125 97.7737C85.5518 96.1532 84.3231 94.7208 82.6902 94.6194L40.8102 92.0403C39.226 91.9412 37.8665 93.1406 37.7341 94.6976H37.7348Z" fill="black"/>
<path d="M40.3181 98.8093L82.1982 101.388C82.5319 101.408 82.8215 101.158 82.8517 100.826L83.1296 97.5774C83.159 97.2321 82.8997 96.9302 82.5528 96.9093L40.6728 94.3302C40.3391 94.3101 40.0495 94.5602 40.0193 94.8923L39.7406 98.1411C39.7111 98.4864 39.9705 98.7884 40.3174 98.8093H40.3181Z" fill="#81F8F8"/>
<path d="M82.2393 101.632C82.2207 101.632 40.3051 99.0504 40.3051 99.0504C39.8227 99.0194 39.4627 98.6067 39.5014 98.1205L39.7793 94.8718C39.8204 94.4041 40.2152 94.0611 40.6868 94.089L82.5668 96.668C83.0507 96.699 83.4084 97.114 83.3705 97.5979L83.0917 100.847C83.053 101.296 82.6837 101.632 82.2385 101.632H82.2393ZM40.6333 94.5713C40.4382 94.5713 40.2772 94.7161 40.2602 94.9128L39.9814 98.1616C39.9628 98.3652 40.1107 98.5533 40.3322 98.5696L82.2122 101.149C82.4181 101.163 82.5924 101.011 82.6094 100.806C82.8881 97.4616 82.9516 97.4562 82.7983 97.2805C82.6326 97.0892 82.8045 97.1674 40.6326 94.5713H40.6333Z" fill="black"/>
<path d="M82.3636 72.6268C72.7358 84.6888 54.3698 84.2839 45.3389 71.4011L47.3465 71.8285L47.4464 71.3555L44.6111 70.7546L44.2178 73.6248L44.6963 73.6914L44.9672 71.7124C54.2242 84.8708 72.9572 85.1851 82.7414 72.9272C82.9389 72.6763 82.5626 72.3775 82.3628 72.6268H82.3636Z" fill="black"/>
<path d="M83.376 34.6504L83.2049 36.6394C74.0532 24.9327 56.6008 24.2266 46.7191 35.7235C46.5139 35.9596 46.8716 36.2809 47.0845 36.037C56.7139 24.8305 73.8341 25.3911 82.8534 36.9716L80.8233 36.6456L80.749 37.1225L83.6083 37.5809L83.8568 34.6937L83.376 34.6511V34.6504Z" fill="black"/>
<path d="M64.5408 69.8122C72.9039 69.8122 79.6836 63.0326 79.6836 54.6694C79.6836 46.3063 72.9039 39.5266 64.5408 39.5266C56.1776 39.5266 49.3979 46.3063 49.3979 54.6694C49.3979 63.0326 56.1776 69.8122 64.5408 69.8122Z" fill="white"/>
<path d="M76.4033 44.8867C76.3855 44.8503 76.3599 44.8201 76.329 44.7969C70.6127 37.9773 60.3716 37.4028 53.9299 43.5418C53.8989 43.5604 53.871 43.5859 53.8509 43.6177C51.1635 46.2153 49.4067 49.7908 49.1814 53.8084C48.7052 62.2609 55.1872 69.5481 63.6738 70.0305C72.22 70.5159 79.4461 63.6994 79.9029 55.5342C80.1003 51.9997 78.9815 48.01 76.4041 44.8867H76.4033ZM75.7769 44.8929C74.4011 45.4108 72.7899 45.7925 71.0447 46.0248C70.4346 43.8778 69.3235 41.3321 67.4893 40.06C70.7853 40.7235 73.6679 42.4695 75.7761 44.8921L75.7769 44.8929ZM63.4655 69.5241C60.7773 69.1726 59.1824 65.673 58.4523 63.0104C60.1618 62.8067 61.9883 62.7448 63.8411 62.8361L63.4655 69.5241ZM65.618 39.813C67.7688 40.0964 69.5496 42.5167 70.567 46.0844C68.8807 46.2803 67.0813 46.3392 65.2564 46.2501L65.618 39.813ZM64.287 54.8977L63.8682 62.3553C61.965 62.2617 60.0867 62.3275 58.3299 62.5404C57.7353 60.1534 57.4899 57.3947 57.6292 54.5238L64.2862 54.8977H64.287ZM57.6563 54.0437C57.8445 51.076 58.429 48.2748 59.3388 45.9188C61.0398 46.3175 62.8732 46.5869 64.7469 46.7062L64.3141 54.4177L57.6571 54.0437H57.6563ZM64.7686 54.9248L71.4241 55.2988C71.2375 58.2324 70.6669 60.9392 69.8361 63.1877C68.1134 62.7788 66.2528 62.5024 64.3497 62.3824L64.7686 54.9248ZM64.7957 54.444L65.2285 46.7325C67.1487 46.8254 68.9759 46.7588 70.694 46.5544C71.311 48.9337 71.5991 51.7791 71.4512 54.818L64.7957 54.444ZM65.1348 39.7851L64.7733 46.223C62.9522 46.1077 61.1714 45.8475 59.5184 45.465C60.5396 42.9983 62.4884 39.8347 65.1341 39.7851H65.1348ZM63.2441 39.8231C61.2814 40.8822 59.8916 43.2871 59.0469 45.3512C57.3381 44.9246 55.7795 44.3648 54.4695 43.6951C56.8356 41.5249 59.8955 40.1134 63.2441 39.8231ZM54.0994 44.0466C55.4551 44.7582 57.0811 45.3528 58.8673 45.8034C57.9529 48.1951 57.3652 51.0257 57.1755 54.0167L49.6761 53.5955C49.9463 49.8434 51.5963 46.5041 54.0987 44.0466H54.0994ZM49.6498 54.0755L57.1492 54.4967C57.0083 57.3916 57.2545 60.1797 57.8507 62.6023C55.9832 62.8609 54.2674 63.2883 52.825 63.8675C50.7074 61.1738 49.5027 57.7462 49.6498 54.0747V54.0755ZM53.144 64.26C54.5369 63.7165 56.1822 63.3146 57.9707 63.0707C58.573 65.2998 59.705 67.9694 61.5942 69.2787C58.213 68.5997 55.2662 66.781 53.144 64.26ZM63.9479 69.5505L64.3234 62.8632C66.1762 62.9809 67.9856 63.2473 69.6627 63.6414C68.2504 67.2037 66.1685 69.5079 63.9479 69.5505ZM65.8332 69.5179C67.8617 68.4262 69.2864 65.8898 70.1303 63.756C71.8793 64.1981 73.4696 64.7811 74.7921 65.4771C72.4012 67.7449 69.2693 69.2229 65.8332 69.5179ZM75.1513 65.1241C73.784 64.3854 72.1279 63.7691 70.3022 63.303C71.1663 60.9625 71.7229 58.2193 71.9064 55.3259L79.402 55.7471C79.1372 59.4116 77.5569 62.6844 75.1521 65.1241H75.1513ZM79.4283 55.2663L71.9328 54.8459C72.0791 51.8526 71.812 48.9732 71.1709 46.494C72.9958 46.2463 74.6775 45.8375 76.1044 45.2831C78.3149 48.0054 79.58 51.5088 79.4283 55.2663Z" fill="black"/>
<path d="M79.4612 98.9L45.285 97.878C43.491 97.7758 41.7784 98.6499 41.4555 99.8485L29.6931 142.807C29.0427 145.214 30.3822 147.22 32.972 147.407L76.1311 150.528C78.5507 150.702 80.5451 149.155 80.5808 147.108L81.3821 102.142C81.4046 100.914 81.2946 99.0045 79.462 98.9H79.4612Z" fill="#81F8F8"/>
<path d="M81.0833 99.5024C80.5638 98.7235 79.4287 98.1444 78.1032 98.0693L45.2866 96.208C43.4903 96.1081 41.78 96.9814 41.4571 98.1784C33.4539 127.853 29.4555 142.706 29.4617 142.74C29.3176 143.27 29.306 144.452 29.402 144.916C29.7172 146.439 31.1108 147.51 32.9551 147.644C32.9551 147.644 76.372 150.78 76.4997 150.78C78.7923 150.78 80.7829 149.252 80.8216 147.107L81.623 102.141C81.6338 101.55 81.6555 100.331 81.0833 99.5016V99.5024ZM76.149 150.285L32.9899 147.164C31.3686 147.047 30.1453 146.126 29.8743 144.82C29.831 144.61 29.8147 144.192 29.8271 143.782C30.3071 144.85 31.4553 145.626 32.9729 145.736L76.132 148.857C78.08 148.997 79.7508 148.022 80.3478 146.568L80.3377 147.1C80.306 149.072 78.344 150.444 76.1482 150.283L76.149 150.285Z" fill="black"/>
<path d="M51.2929 136.96L52.0261 132.522C52.1283 131.908 51.5105 131.474 50.8585 131.43C50.8585 131.43 49.2016 131.32 49.1622 131.32C48.4336 131.32 47.777 131.745 47.6702 132.304L46.8216 136.728C46.6962 137.381 47.3086 137.853 47.9992 137.901L49.6337 138.014C50.4327 138.062 51.1876 137.598 51.2921 136.961L51.2929 136.96Z" fill="#FFD997"/>
<path d="M47.9521 138.612C47.7787 138.6 47.6107 138.569 47.4496 138.524L46.687 142.612L49.345 142.801L50.0387 138.719C49.7763 138.749 50.0209 138.757 47.9529 138.613L47.9521 138.612Z" fill="#FFD997"/>
<path d="M46.2836 135.747L46.7954 133.075L43.0302 132.818L42.4619 135.483L46.2836 135.747Z" fill="#FFD997"/>
<path d="M48.9253 130.616C49.1746 130.592 49.1831 130.604 50.9074 130.718C51.0707 130.729 51.2302 130.756 51.3835 130.798L51.996 127.191L49.5942 127.032L48.9261 130.616L48.9253 130.616Z" fill="#FFD997"/>
<path d="M46.7821 138.199C46.2765 137.825 46.0017 137.232 46.1209 136.594L46.1472 136.455L42.3116 136.189L41.6055 139.502C41.288 140.989 42.4773 142.314 44.2666 142.44L45.9684 142.561L46.7821 138.199V138.199Z" fill="#FFD997"/>
<path d="M52.595 133.469L52.1514 136.155L55.9986 136.421L56.385 133.726L52.595 133.469Z" fill="#FFD997"/>
<path d="M54.2598 127.341L52.712 127.239L52.0547 131.113C52.2103 131.224 52.8901 131.697 52.712 132.761L56.4865 133.018L56.9294 129.93C57.1206 128.603 55.9221 127.451 54.259 127.341H54.2598Z" fill="#FFD997"/>
<path d="M46.9306 132.369L46.9686 132.17C47.0809 131.581 47.5253 131.075 48.1617 130.805L48.8748 126.985L47.3302 126.883C45.6771 126.774 44.1124 127.738 43.8321 129.054L43.1802 132.113L46.9306 132.368V132.369Z" fill="#FFD997"/>
<path d="M52.0352 136.865L52.0003 137.077C51.8989 137.688 51.4514 138.221 50.7979 138.512L50.0601 142.85L51.7665 142.972C53.5659 143.098 55.2026 141.97 55.4179 140.471L55.8971 137.13L52.0344 136.865H52.0352Z" fill="#FFD997"/>
<path d="M66.2369 133.045C66.2981 132.401 65.6307 131.939 64.9587 131.895C64.9587 131.895 63.8786 131.824 63.8375 131.824C63.1229 131.824 62.5143 132.248 62.4493 132.806L61.3785 142.197C61.3468 142.477 61.4327 142.746 61.6255 142.98C62.0978 143.55 62.7218 143.502 63.7725 143.577C64.594 143.635 65.3109 143.136 65.3721 142.464L66.2369 133.045Z" fill="#81F8F8"/>
<path d="M63.8212 120.807L62.882 129.043C62.81 129.653 63.4526 130.106 64.1231 130.149L65.1142 130.216C65.8729 130.264 66.5341 129.842 66.5852 129.271L67.3425 121.012C67.3951 120.456 66.7548 120.069 66.1509 120.03C66.1509 120.03 65.1366 119.967 65.0979 119.967C64.4359 119.967 63.8738 120.327 63.8204 120.805L63.8212 120.807Z" fill="#81F8F8"/>
<path d="M68.319 110.388C68.3624 109.905 67.7437 109.578 67.2041 109.545C67.2041 109.545 66.2518 109.488 66.2169 109.488C65.6084 109.488 65.0741 109.805 65.0277 110.208L64.1984 117.491C64.1744 117.71 64.2743 117.884 64.3657 117.992C64.7629 118.469 65.3614 118.432 66.2897 118.494C66.9834 118.541 67.6075 118.17 67.6501 117.689L68.3198 110.388H68.319Z" fill="#81F8F8"/>
<path d="M69.1889 100.935C69.2299 100.513 68.6105 100.239 68.1421 100.212C68.1421 100.212 67.2386 100.16 67.2053 100.16C66.6378 100.16 66.1422 100.432 66.1035 100.779L65.3649 107.264C65.3448 107.437 65.4276 107.578 65.5019 107.665C65.8697 108.103 66.4512 108.073 67.3276 108.125C67.9733 108.164 68.5525 107.849 68.5912 107.435L69.1881 100.935H69.1889Z" fill="#81F8F8"/>
<path d="M77.2364 103.526L76.9175 111.001C76.9004 111.406 76.4235 111.707 75.8544 111.671L73.3474 111.519C72.7775 111.483 72.3401 111.127 72.368 110.724L72.8859 103.271C72.9115 102.904 73.3683 102.634 73.9079 102.664L76.2864 102.803C76.8261 102.835 77.2527 103.158 77.2364 103.525V103.526Z" fill="white"/>
<path d="M119.011 104.671H116.914V99.4379C116.914 99.1793 116.704 98.9695 116.445 98.9695C116.187 98.9695 115.977 99.1793 115.977 99.4379V104.671H113.882C113.623 104.671 113.413 104.881 113.413 105.139C113.413 105.398 113.623 105.609 113.882 105.609H115.977V110.842C115.977 111.1 116.187 111.31 116.445 111.31C116.704 111.31 116.914 111.1 116.914 110.842V105.609H119.011C119.27 105.609 119.48 105.397 119.48 105.139C119.48 104.882 119.269 104.671 119.011 104.671Z" fill="black"/>
<path d="M6.31346 83.4668C5.32938 83.4668 4.52881 84.2674 4.52881 85.2514C4.52881 86.2355 5.32938 87.0361 6.31346 87.0361C7.29753 87.0361 8.09888 86.2355 8.09888 85.2514C8.09888 84.2674 7.29831 83.4668 6.31346 83.4668ZM7.3827 85.253C7.3827 85.843 6.90344 86.3222 6.31346 86.3222C5.72348 86.3222 5.24422 85.843 5.24422 85.253C5.24422 84.663 5.72348 84.1838 6.31346 84.1838C6.90344 84.1838 7.3827 84.663 7.3827 85.253Z" fill="black"/>
<path d="M16.8923 19.2944L15.6566 17.1219L16.7274 14.8634C16.859 14.5893 16.6205 14.2742 16.3155 14.3385L13.8665 14.8433L12.0501 13.1268C11.8279 12.9131 11.4594 13.0509 11.423 13.3567L11.1466 15.8413L8.95313 17.0398C8.67982 17.1885 8.69841 17.5803 8.97714 17.708L11.2542 18.7401L11.7164 21.1968C11.7505 21.378 11.9092 21.5011 12.0858 21.5011C12.3025 21.5011 12.2383 21.5065 14.0415 19.5306L16.5207 19.8519C16.8226 19.8914 17.0472 19.5654 16.8939 19.2952L16.8923 19.2944Z" fill="black"/>
</svg>
