<svg width="155" height="155" viewBox="0 0 155 155" fill="none" xmlns="http://www.w3.org/2000/svg">
<path d="M53.2046 15.6875C58.1995 12.9005 65.0086 14.5295 69.2315 16.8532C73.4543 19.177 79.0977 23.23 81.1744 26.1714C82.1181 27.5197 82.5279 29.1702 82.3247 30.8034C83.1739 31.0273 91.28 33.1194 92.1446 31.3592C92.8163 30.0237 89.7823 27.3371 89.6124 27.175C89.4426 27.0128 79.2984 14.5758 72.5356 11.4646C69.8877 10.2526 58.3693 10.6926 46.2874 8.63135C45.5617 10.268 50.1474 14.0354 53.2046 15.6875Z" fill="#3D9CFB"/>
<path d="M65.0864 17.0922C59.9758 15.6563 57.2892 16.3743 55.1353 17.4319C52.9814 18.4896 51.5068 24.0557 51.5068 24.0557C51.5068 24.0557 66.2213 23.2837 74.9913 34.6091C76.3963 34.1613 79.384 30.2781 78.5039 27.8926C77.6238 25.5071 71.6794 18.9528 65.0864 17.0922Z" fill="#3D9CFB"/>
<path d="M103.123 72.0209C103.123 72.0209 101.486 71.5114 97.6649 68.7013C95.2191 66.8418 93.0893 64.5999 91.3576 62.062C91.3576 62.062 87.9068 66.8562 87.212 68.6164C89.1265 71.357 90.7014 71.5037 91.3036 72.8856C92.0756 74.6689 91.4657 76.6221 90.7864 77.9962C87.984 83.6782 81.3138 88.125 81.3138 88.125C81.3138 88.125 80.6653 97.86 79.7698 99.7591C78.8743 101.658 78.3493 103.148 75.7013 101.805C73.0533 100.462 61.4192 94.8028 61.4192 94.8028L55.8221 93.9614C53.5807 94.5534 51.2694 94.8391 48.9513 94.8106C44.7979 97.8986 40.2894 103.457 40.629 106.792C40.9687 110.127 46.6893 120.024 48.0249 121.591C49.3604 123.159 50.6729 124.548 52.3558 123.815C54.0388 123.081 55.9225 121.005 58.5319 117.5C59.4351 116.303 63.7275 114.203 65.8119 114.697C66.9418 113.671 68.0091 112.578 69.008 111.424C69.973 110.235 72.0961 106.615 74.69 106.36C77.2839 106.105 79.6694 108.822 80.951 110.552C82.2325 112.281 82.3483 115.647 81.3447 116.689C80.3411 117.731 75.4389 119.893 73.6246 121.067C72.8848 121.522 72.1732 122.022 71.4939 122.564L72.1964 124.108H79.1445C86.7256 124.108 96.476 117.701 91.8286 98.632C102.204 84.9443 103.123 72.0209 103.123 72.0209Z" fill="#3D9CFB"/>
<path d="M73.8171 82.8905C72.7285 82.574 72.273 84.5426 71.1691 84.2338C68.0193 83.1221 66.0352 85.1757 68.413 87.6152C73.0605 92.3631 77.4995 83.9713 73.8171 82.8905ZM73.57 84.8592C73.57 88.1402 70.096 88.4644 68.8839 85.5462C70.3893 85.5617 72.3734 86.3491 73.57 84.8592Z" fill="#001434"/>
<path d="M29.8438 134.816H30.6853C29.9133 135.202 29.975 136.414 30.9246 136.437C31.7815 136.244 32.3219 135.325 33.0939 134.893C34.3832 134.931 35.8268 134.985 37.1701 135.04C36.5989 135.711 36.0276 136.414 35.4486 137.078C34.2906 137.371 33.1325 136.499 32.6616 137.649C32.4995 138.421 33.2792 138.691 33.9277 138.676C33.0862 139.093 32.5999 140.405 33.8505 140.552C34.8155 140.32 35.3945 139.347 36.1665 138.598C37.2442 138.454 38.3353 138.438 39.4167 138.552C39.5182 138.575 39.6232 138.576 39.7254 138.557C39.8276 138.538 39.9249 138.498 40.0114 138.441C40.0979 138.383 40.1719 138.308 40.2289 138.221C40.2859 138.134 40.3247 138.037 40.3431 137.935C40.4203 136.553 38.6138 136.962 37.6025 136.923C38.1197 136.298 38.6601 135.642 39.1465 135.109C40.2273 134.978 41.8331 135.68 42.0338 134.337C42.0338 133.627 41.3235 133.503 40.7291 133.565C41.007 131.897 39.1388 132.585 38.498 133.511L34.9468 133.333C36.0276 132.762 38.6833 129.296 35.7188 130.346C34.7777 131.427 33.7216 132.403 32.569 133.256C31.2025 133.441 29.3497 132.561 29.0486 134.028C29.0465 134.133 29.0656 134.237 29.1049 134.334C29.1442 134.431 29.2029 134.519 29.2772 134.593C29.3516 134.666 29.4402 134.724 29.5376 134.762C29.635 134.801 29.7392 134.819 29.8438 134.816Z" fill="#001434"/>
<path d="M136.736 142.204C127.472 143.238 110.303 142.366 98.3752 142.404C97.8974 142.418 97.4269 142.526 96.991 142.722C96.5551 142.918 96.1623 143.198 95.8353 143.547C91.5507 146.882 82.0009 144.512 77.1527 145.199C74.1651 144.628 66.3446 146.566 61.5736 144.188C60.2549 143.152 58.6178 142.607 56.9416 142.644C47.0213 142.644 28.0917 142.883 19.0592 142.42C18.9527 142.411 18.8457 142.425 18.7447 142.46C18.6438 142.495 18.5513 142.55 18.4729 142.623C18.3945 142.696 18.3321 142.784 18.2895 142.881C18.2469 142.979 18.2251 143.085 18.2254 143.192C18.218 143.298 18.2324 143.404 18.2679 143.504C18.3034 143.604 18.359 143.696 18.4315 143.773C18.5039 143.851 18.5916 143.912 18.6889 143.954C18.7863 143.997 18.8913 144.018 18.9974 144.018C28.1071 144.481 47.0213 144.28 56.9725 144.25C60.5391 144.211 60.8325 146.805 64.2911 146.836C75.987 146.836 79.6154 146.743 90.4698 146.836C95.7041 146.99 95.65 144.883 98.3675 144.018C110.372 144.018 127.534 144.859 136.906 143.802C137.894 143.671 137.778 142.057 136.736 142.204Z" fill="#001434"/>
<path d="M48.1018 16.7603C48.8353 17.3702 49.4992 17.9106 49.9624 18.3043C41.0225 30.0542 55.3664 37.9442 65.0628 41.5494C74.7593 45.1547 79.6306 41.974 81.9389 33.7213C90.431 35.3271 95.1866 35.4815 97.4408 34.6091C99.062 33.9838 99.3786 32.8335 98.8073 31.3126C97.1243 26.835 87.7444 19.1612 81.5298 12.4679C101.656 -0.903251 99.6797 24.187 111.159 23.6543C114.062 25.6847 112.866 21.2225 119.08 24.5576C121.396 25.8159 120.948 20.7747 119.08 20.6975C120.061 20.0722 119.412 15.8647 117.196 17.8874C116.262 18.7598 115.305 19.7557 114.108 20.9754C113.336 21.5004 111.792 21.346 111.267 22.0871C101.71 23.3609 102.003 -3.19611 80.3486 11.4025C72.8678 3.76739 70.5981 6.6547 56.9027 5.18017C50.8734 4.67064 44.8363 3.99899 41.7096 4.78644C39.8491 5.25737 39.0153 6.24554 39.8337 8.09063C40.652 9.93573 43.2073 12.715 48.1018 16.7603ZM76.6198 39.9205C76.0437 40.4884 75.3687 40.9463 74.628 41.2715C68.5755 43.7033 48.457 33.59 48.6731 26.31C55.7602 19.663 77.716 32.7254 76.6198 39.8742V39.9205ZM81.2518 31.1814C80.3486 33.6132 79.3527 36.3461 77.9785 38.3379C75.2225 28.7573 58.5703 19.9023 48.9356 24.1484C53.3129 6.98666 74.8365 18.2039 80.9044 28.0084C81.197 28.4688 81.3786 28.9909 81.4349 29.5335C81.4912 30.0761 81.4206 30.6244 81.2287 31.135L81.2518 31.1814ZM41.1461 6.60838C44.4117 4.578 51.8229 7.17195 56.8178 6.73962C64.4298 7.14879 72.2966 7.58111 74.5045 8.44576C75.8401 9.34129 93.3106 24.6579 97.7496 32.6868C97.3405 33.4048 94.8006 34.2848 82.5102 32.2159C85.2122 20.9214 58.578 7.25687 50.9274 17.0536C48.1636 14.5909 40.8913 9.29496 41.1461 6.60838Z" fill="#001434"/>
<path d="M46.7203 9.24841C77.1605 13.8805 67.1708 5.85158 89.7829 28.1163C93.033 27.5373 82.333 18.7518 81.8312 18.2423C76.9907 13.3169 75.1302 11.2016 72.2583 10.5685C62.917 8.48412 59.0029 10.0513 46.9982 7.69668C46.7925 7.65982 46.5805 7.70622 46.4089 7.82566C46.2373 7.9451 46.1202 8.12781 46.0834 8.33358C46.0465 8.53935 46.0929 8.75134 46.2124 8.9229C46.3318 9.09447 46.5145 9.21156 46.7203 9.24841Z" fill="#001434"/>
<path d="M123.712 128.107C127.912 124.648 125.982 112.111 126.878 105.973C127.518 91.0196 128.19 75.5563 126.553 68.7704C125.534 64.5707 122.423 64.0689 108.705 64.0457C116.571 46.5675 104.551 41.1016 96.3525 44.4213C94.1832 45.3014 93.2645 47.4321 92.8708 50.1496C86.6484 45.2087 85.8764 53.6313 89.4816 59.267C88.1692 60.9654 86.8954 62.5248 85.7992 64.0611C78.2489 50.4043 53.4829 54.4574 46.1798 64.3854C27.5435 63.7215 28.3232 65.8599 28.5857 85.1833C29.8518 94.7793 25.544 123.266 31.6737 128.099C25.6135 130.824 16.6814 139.316 13.6551 142.489C11.4394 144.759 12.3272 149.823 15.037 150.464C20.6572 150.773 36.4216 151.09 77.9247 151.09C88.1075 151.09 100.529 151.09 113.808 151.028C141.692 150.935 142.225 150.935 142.549 144.026C142.758 140.15 132.652 131.311 123.712 128.107ZM125.025 69.1409C127.179 77.8801 125.148 104.738 124.77 119.476C124.538 127.196 122.863 127.304 119.513 127.443C116.162 127.582 112.225 127.574 108.55 127.512C96.7925 127.427 84.425 127.512 71.1388 127.721C71.7631 126.876 72.2263 125.923 72.5052 124.911C83.3133 124.911 112.773 125.389 118.278 124.363C125.048 123.097 122.176 81.4004 122.253 72.9778C122.809 68.6005 114.966 69.0097 108.851 68.8167C108.514 68.0642 108.097 67.3499 107.608 66.686C107.763 66.3308 107.917 65.9834 108.072 65.6206C122.67 65.636 124.345 66.3231 125.025 69.1409ZM64.6848 127.875C65.5158 128.537 66.4922 128.992 67.5335 129.203C66.8679 129.729 66.1515 130.186 65.395 130.57C63.851 130.94 62.1294 128.254 60.7012 129.226C60.0682 130.454 62.1526 130.994 62.8628 131.481C58.2308 132.5 54.502 129.049 52.5102 124.316C56.6868 122 59.9601 115.361 64.3065 114.906C64.5018 115.199 64.6277 115.533 64.6745 115.882C64.7213 116.231 64.6879 116.586 64.5767 116.92C63.8819 120.572 67.4177 124.316 71.0384 123.529C71.2468 124.857 70.0965 126.617 69.0852 127.759C67.8492 127.808 66.6365 127.414 65.6652 126.648C64.8778 125.992 63.8819 127.25 64.6848 127.875ZM57.3661 132.291C54.2781 134.908 50.9739 142.181 46.3187 136.151C42.559 129.975 47.5076 129.62 51.7768 126.54C53.0368 128.963 54.9802 130.962 57.3661 132.291ZM67.711 121.19C66.2133 120.549 65.9431 117.608 66.167 115.4C68.7996 113.639 71.6946 108.228 74.3503 107.209C76.759 105.997 83.2979 112.613 80.7271 115.878C77.8166 118.071 74.3426 118.634 71.0461 121.877C70.4771 122.05 69.8737 122.078 69.2911 121.958C68.7085 121.838 68.1652 121.574 67.711 121.19ZM92.8553 99.1952C103.185 90.2167 106.551 80.9063 109.291 70.407C114.788 70.546 121.589 70.5151 120.678 73.0782C121.62 87.8698 120.841 99.5503 120.532 113.74C120.416 118.881 119.374 122.448 117.884 122.834C116.394 123.22 106.172 123.351 95.4956 123.374C96.8698 115.654 96.754 108.467 92.8553 99.1952ZM105.979 71.6268C105.725 71.6268 105.439 71.565 105.138 71.511C105.678 70.6078 106.257 69.5269 106.844 68.3381C107.801 69.8666 108.55 71.8352 105.964 71.6268H105.979ZM88.9412 51.0837C89.5434 49.7404 90.7863 50.0801 91.7668 51.2844C95.457 54.6813 93.4575 45.0003 99.3016 45.2164C99.6781 46.6776 99.7281 48.2037 99.4482 49.6864C99.4168 49.803 99.4131 49.9254 99.4375 50.0436C99.462 50.1619 99.5138 50.2729 99.5889 50.3675C99.664 50.4621 99.7602 50.5378 99.8699 50.5884C99.9795 50.6391 100.1 50.6633 100.22 50.6591C101.934 49.9566 101.077 46.8917 100.907 45.1547C102.296 45.2266 103.672 45.4597 105.007 45.8495C105.964 46.6215 104.358 50.7209 105.779 51.3616C107.539 51.0991 106.728 47.6483 106.821 46.7296C112.549 51.1609 107.909 63.9453 103.524 71.0632C97.6186 69.6968 88.1769 58.7729 88.9412 51.0837ZM89.4662 61.83L90.2382 60.8882C94.2526 68.3458 100.421 73.0396 107.022 73.1554C104.142 81.8405 101.077 90.0623 92.2223 97.6821C91.7977 96.91 88.2155 88.0474 87.7446 92.3938C95.1173 105.317 95.6423 113.91 93.9207 123.374H72.5901C72.5604 123.172 72.5113 122.973 72.4434 122.78C77.2453 117.7 86.5557 119.522 81.3601 109.81C74.9525 100.546 70.4362 108.899 65.5263 113.964C63.2102 111.516 59.7285 108.56 59.134 105.873C58.9874 104.785 62.8937 103.943 62.3765 102.669C62.337 102.573 62.2786 102.486 62.2047 102.413C62.1307 102.34 62.0429 102.283 61.9463 102.245C61.8497 102.206 61.7464 102.188 61.6425 102.191C61.5387 102.193 61.4365 102.217 61.342 102.26C54.0697 105.008 59.2884 109.795 62.886 113.593C57.4819 114.867 53.7377 125.621 47.4458 123.691C38.9538 112.759 32.1678 104.491 45.6702 95.0032C49.0047 95.8971 52.524 95.8302 55.8221 94.8102C71.6251 96.0454 82.0704 115.654 82.0704 88.5646C89.9757 81.3078 95.3335 77.2393 90.8481 71.071C89.161 69.4784 87.7589 67.6089 86.7024 65.5434C87.6365 64.1615 88.3082 63.2969 89.4662 61.83ZM43.1844 70.5692C42.1422 74.4832 42.7134 78.351 42.1576 81.8559C41.4937 84.2414 36.7535 86.403 38.8534 89.7844C39.9445 91.8626 41.7439 93.4812 43.9255 94.347C31.3495 103.611 36.5605 112.62 45.2611 123.297C36.4679 122.17 34.3372 126.825 34.4066 114.188C34.5456 100.909 34.4066 89.3289 34.646 75.8883C34.5996 70.4302 38.1972 70.3453 43.1844 70.5692ZM57.6363 76.614C58.9102 77.193 60.3693 74.0123 63.1408 74.8538C63.2423 74.8762 63.3473 74.8779 63.4495 74.8588C63.5517 74.8396 63.649 74.8 63.7355 74.7423C63.822 74.6846 63.896 74.6101 63.953 74.5231C64.01 74.4361 64.0488 74.3385 64.0672 74.2362C63.9745 72.5223 61.342 73.2789 60.0913 73.6263C62.9091 71.7426 66.0281 69.8126 67.3482 66.8481C69.0514 68.0228 70.9607 68.8661 72.9761 69.3339C72.4126 69.8203 70.4208 71.9202 72.2582 72.2521C73.4625 71.7503 74.2191 69.6505 75.3848 69.7508C77.7008 69.9438 79.7389 69.7508 80.9278 68.9788C81.9932 68.4307 81.777 68.9788 82.881 71.6114C89.3118 87.5302 72.9298 95.891 58.3389 93.7448C66.692 89.6532 46.7047 85.4689 57.4742 75.5332C57.4138 75.6147 57.3701 75.7074 57.3455 75.8059C57.3209 75.9044 57.3161 76.0068 57.3311 76.1072C57.3462 76.2076 57.3809 76.304 57.4333 76.391C57.4856 76.4779 57.5546 76.5537 57.6363 76.614ZM80.5418 89.8693C79.7698 107.78 76.6818 100.315 65.1789 95.6748C70.9071 95.2194 76.6123 93.0886 80.5418 89.8693ZM62.4614 57.2984C72.1269 54.8665 81.5222 58.8424 85.6834 66.8944C90.1224 73.6186 94.3993 74.6145 85.8532 83.0062C90.4853 76.7761 89.4276 73.6186 84.4327 68.3844C82.688 62.8336 73.254 54.5886 66.1825 60.1702C55.5133 58.4486 47.1911 66.0684 46.8205 75.371C46.5658 80.5589 48.3028 83.9944 45.6394 85.577C39.5559 90.5873 52.5025 93.5827 55.2277 93.2971C50.5956 95.2657 37.2322 93.104 40.8606 86.0325C42.2227 85.1101 43.2259 83.7471 43.7016 82.1724C44.8905 72.0128 41.5709 62.8414 62.4614 57.2984ZM30.4076 121.414C29.6356 111.679 30.2532 95.9373 30.1452 85.1292C29.9753 67.7668 27.6284 65.3504 45.0758 65.9217C44.486 66.8978 43.9995 67.9327 43.6244 69.0097C38.0274 68.5697 33.0248 69.2645 33.0556 75.8651C33.1097 89.3058 32.9553 100.894 32.8163 114.172C32.7314 128.392 35.5878 123.706 46.45 124.888C47.5153 125.891 49.538 125.845 50.7964 125.266C46.1643 129.203 39.5019 127.536 34.3217 127.327C32.631 127.041 30.8554 126.748 30.4076 121.414ZM137.902 148.627C135.254 149.399 125.164 149.399 112.572 149.453C66.4063 148.264 33.0556 149.607 19.7771 148.797C14.4734 148.48 12.829 146.65 14.8208 143.578C18.8584 139.34 29.3037 129.821 34.2522 128.91C37.6356 129.316 41.0481 129.424 44.4505 129.234C41.5323 132.924 45.7629 140.528 50.557 140.042C54.4171 140.042 56.3934 134.368 59.0491 132.994C62.9092 134.082 67.0934 131.99 69.78 129.35C87.7755 128.786 104.111 129.45 121.026 128.948C131.819 131.874 148.046 144.751 137.902 148.627Z" fill="#001434"/>
<path d="M61.2876 140.374C61.8131 140.482 62.3491 140.531 62.8856 140.521C62.4379 141.13 61.8743 142.466 63.1095 142.566C64.0745 142.458 64.2752 140.899 64.8002 140.397C66.7765 140.32 68.9845 140.397 71.1461 140.397C70.3741 142.535 72.8059 142.474 72.7519 140.436C79.5378 141.208 81.1745 138.374 73.2074 138.892C73.7118 137.618 74.2971 136.377 74.9598 135.178C77.3169 134.94 79.6883 134.878 82.0546 134.993C81.6608 136.668 80.1786 139.625 82.0546 140.343C82.1672 140.344 82.2789 140.321 82.3816 140.275C82.4843 140.229 82.5757 140.16 82.6493 140.075C82.7228 139.99 82.7768 139.889 82.8075 139.781C82.8381 139.672 82.8446 139.559 82.8266 139.447C82.6567 138.235 83.1508 136.66 83.7144 135.078C86.4241 135.85 87.5744 133.426 84.2702 133.534C85.3896 131.141 82.8266 131.218 82.6336 133.449C80.3183 133.319 77.9969 133.347 75.6855 133.534C75.8708 132.862 76.8435 131.48 75.7473 131.063C75.65 131.028 75.5468 131.013 75.4436 131.019C75.3403 131.024 75.2393 131.051 75.1464 131.096C75.0535 131.141 74.9707 131.205 74.9029 131.283C74.835 131.361 74.7835 131.452 74.7514 131.55C74.4426 132.422 74.1647 133.094 73.9022 133.719C72.9526 134.059 70.5748 133.58 70.5825 135.07C70.8991 136.22 72.2964 135.433 73.0916 135.425C72.4606 136.512 71.9432 137.66 71.5476 138.853C69.6561 138.807 67.7338 138.753 65.9891 138.776C66.7611 138.096 70.2815 134.144 67.0082 135.209C66.0492 136.479 65.0181 137.693 63.9201 138.845C61.2027 138.66 59.4656 140.08 61.2876 140.374Z" fill="#001434"/>
<path d="M76.095 78.6057C76.3644 78.694 76.6536 78.7024 76.9276 78.6298C77.2017 78.5571 77.4488 78.4067 77.6391 78.1966C78.9901 76.7529 80.9047 77.3165 82.1553 76.0813C83.5681 73.9891 81.5995 71.179 79.4147 70.7235C74.4507 69.1564 71.463 76.1122 76.095 78.6057ZM75.4852 73.3252L75.5546 73.248C76.5285 74.2065 77.6207 75.0367 78.8048 75.7184C77.6313 75.8497 76.4888 78.0345 75.5932 76.3129C74.9525 75.1317 74.8907 74.1127 75.4852 73.3252Z" fill="#001434"/>
<path d="M69.008 80.1417C70.3281 80.1417 68.676 77.9415 70.691 77.4628C72.235 77.1 71.8258 79.3465 73.007 78.9605C74.6128 78.4201 72.7214 75.2935 70.2664 75.9497C67.8114 76.6059 67.3636 80.1417 69.008 80.1417Z" fill="#001434"/>
<path d="M60.5619 84.3497C62.0056 84.6431 62.739 83.2149 64.2907 83.1222C69.5713 82.3039 66.9078 76.0429 62.5923 76.1742C57.9603 75.6646 56.4317 83.5082 60.5619 84.3497ZM59.7899 79.4629C59.9295 79.1794 60.1118 78.9191 60.3303 78.6909C61.5073 79.9876 63.0031 80.9537 64.669 81.4933C62.9552 81.2848 60.809 83.5777 60.1296 82.6127C59.7754 82.1765 59.5542 81.6475 59.4926 81.0889C59.431 80.5303 59.5315 79.9658 59.7822 79.4629H59.7899Z" fill="#001434"/>
<path d="M87.7135 137.764C89.2575 137.872 90.9019 137.965 92.8165 137.981C92.5617 138.814 91.4655 140.374 92.94 140.574C94.0285 140.389 94.0285 138.837 94.484 137.973C99.1161 138.482 100.305 135.719 94.8237 136.429C95.2174 133.665 92.693 133.472 93.2797 136.429C91.6508 136.575 84.749 135.333 87.7135 137.764Z" fill="#001434"/>
<path d="M77.2765 115.948C82.9353 116.303 79.4768 108.228 75.9641 108.93C74.3815 109.355 73.9415 110.59 75.3465 112.304C75.9873 113.076 77.2148 112.026 76.5277 111.269C76.3154 111.057 76.1659 110.79 76.0954 110.497C76.242 110.397 77.1839 110.459 78.1952 111.825C80.627 115.986 74.2425 114.404 73.9492 110.806C70.6604 108.035 73.2852 116.033 77.2765 115.948Z" fill="#001434"/>
<path d="M104.258 137.965C105.217 137.833 106.184 137.763 107.153 137.757C107.199 137.934 107.415 138.776 107.462 138.976C108.311 140.459 109.477 138.976 108.782 137.772C113.545 137.888 118.486 139.03 123.149 138.544C125.951 136.228 119.659 137.332 118.316 137C117.544 135.935 116.695 134.553 115.915 133.294C118.005 132.89 120.166 133.069 122.161 133.812C125.496 131.364 116.51 131.318 114.973 131.812C114.495 130.145 112.071 130.106 113.19 131.982C107.871 131.882 110.411 134.398 114.17 133.48C114.857 134.576 115.575 135.757 116.286 136.823C113.661 136.568 111.013 136.236 108.373 136.182C108.156 135.41 107.956 134.815 107.4 133.202C107.332 133.005 107.189 132.844 107.003 132.752C106.816 132.661 106.601 132.648 106.404 132.715C106.207 132.783 106.046 132.926 105.955 133.113C105.863 133.299 105.85 133.515 105.918 133.711C106.35 134.977 106.566 135.603 106.736 136.182C105.701 136.413 103.432 135.804 103.362 137.293C103.374 137.397 103.408 137.498 103.46 137.589C103.512 137.679 103.582 137.759 103.666 137.822C103.75 137.884 103.845 137.929 103.947 137.954C104.049 137.979 104.155 137.983 104.258 137.965Z" fill="#001434"/>
</svg>
