<svg width="154" height="154" viewBox="0 0 154 154" fill="none" xmlns="http://www.w3.org/2000/svg">
<path d="M88.0997 13.9673C88.4167 13.1059 88.2398 13.4129 89.3386 9.12273C90.1686 5.92287 90.4917 5.41597 90.5637 4.42669C90.5836 4.22837 90.2965 4.16941 90.1977 4.32791C89.8438 5.03458 89.5818 5.78365 89.4182 6.55687C88.698 8.97502 88.119 11.433 87.6839 13.9183C87.664 14.1557 88.0231 14.1763 88.0997 13.9673Z" fill="#38A1FF"/>
<path d="M92.9351 15.6916C94.416 13.7926 96.3142 11.6173 97.5125 10.3516C98.0866 9.84766 98.5928 9.27138 99.0186 8.63717C99.04 8.59979 99.0485 8.55639 99.0428 8.5137C99.0371 8.471 99.0174 8.43138 98.9869 8.40097C98.9564 8.37055 98.9167 8.35103 98.874 8.34542C98.8313 8.33981 98.788 8.34843 98.7506 8.36994C98.1182 8.79895 97.5595 9.32748 97.096 9.93503C95.4756 11.6672 93.9667 13.5004 92.5783 15.4236C92.4298 15.6318 92.7743 15.8975 92.9351 15.6916Z" fill="#38A1FF"/>
<path d="M101.089 18.3071C101.78 18.1941 102.462 18.0318 103.13 17.8217C103.176 17.8086 103.216 17.7792 103.243 17.739C103.27 17.6988 103.281 17.6503 103.275 17.6023C103.269 17.5544 103.247 17.5101 103.211 17.4776C103.175 17.4451 103.129 17.4264 103.081 17.425C101.77 17.4051 96.9274 18.6747 95.0553 19.4266C95.0002 19.4423 94.9535 19.4793 94.9257 19.5294C94.8978 19.5795 94.891 19.6387 94.9067 19.6938C94.9225 19.7489 94.9595 19.7956 95.0096 19.8234C95.0597 19.8513 95.1188 19.8581 95.174 19.8424C97.5124 19.2321 97.8662 19.0238 101.089 18.3071Z" fill="#38A1FF"/>
<path d="M104.288 25.6687C103.738 25.5316 103.495 25.5416 100.068 25.4505C98.6183 25.3465 97.1641 25.3266 95.7124 25.3907C95.4941 25.4106 95.4061 25.7675 95.6526 25.7973C96.8479 25.9727 97.4903 25.9566 102.093 26.0845C102.821 26.1525 103.555 26.1459 104.282 26.0645C104.327 26.0545 104.367 26.0297 104.395 25.9943C104.424 25.9588 104.44 25.9147 104.441 25.869C104.442 25.8233 104.427 25.7788 104.399 25.7424C104.372 25.7061 104.332 25.6801 104.288 25.6687Z" fill="#38A1FF"/>
<path d="M78.5196 84.0143C74.1505 86.953 71.2232 80.4078 77.7539 77.2478C77.9621 77.1482 77.8136 76.8113 77.5954 76.881C75.2983 77.6536 73.0081 80.0318 73.335 82.6176C73.4083 83.2215 73.6518 83.7921 74.0371 84.2628C74.4224 84.7335 74.9337 85.0849 75.5112 85.2759C76.0887 85.467 76.7087 85.4899 77.2987 85.3418C77.8888 85.1938 78.4245 84.881 78.8435 84.44C79.0548 84.2225 78.7983 83.8274 78.5196 84.0143Z" fill="#38A1FF"/>
<path d="M93.7078 22.9733C93.7416 22.6382 93.6531 22.3022 93.4586 22.0273C93.2641 21.7523 92.9768 21.5569 92.6496 21.4771C89.3065 20.337 83.4038 18.9358 79.9474 18.1081C78.7156 19.1083 77.2616 19.7981 75.7077 20.1195C75.6735 20.1201 75.6402 20.1092 75.6129 20.0886C75.5857 20.068 75.5661 20.0389 75.5573 20.0059C75.5485 19.9729 75.551 19.9379 75.5643 19.9064C75.5777 19.875 75.6012 19.8489 75.6311 19.8324C76.2437 19.4228 80.8639 18.4764 82.4972 14.2145C82.8014 13.5223 82.915 12.7613 82.8262 12.0105C82.7373 11.2596 82.4492 10.5462 81.9918 9.94416C81.5595 9.44853 81.0075 9.0718 80.3885 8.84985C79.7694 8.62789 79.1038 8.5681 78.455 8.67616C75.8807 9.15779 74.2437 12.6723 73.6005 15.1456C73.5538 11.9664 73.5193 8.08198 70.628 6.81321C68.8838 6.04751 67.0293 7.08197 66.298 8.87448C65.3968 10.8063 65.8424 13.0452 66.5859 15.1057C65.5139 15.1609 62.785 15.6012 54.4787 16.8201C52.2345 17.0555 50.0107 17.4563 47.8255 18.0192C46.7535 18.3584 46.3439 18.4787 46.023 19.5744C45.8959 20.0039 45.3094 22.579 45.3094 22.5966C45.2961 22.6201 45.2884 22.6463 45.2868 22.6733C45.2852 22.7002 45.2899 22.7271 45.3004 22.752C45.3109 22.7769 45.327 22.799 45.3474 22.8167C45.3678 22.8343 45.392 22.847 45.4181 22.8539C46.8462 23.3026 58.3462 26.2122 59.7743 26.5798C58.9243 29.1933 58.1186 31.8256 57.3569 34.4764C55.3952 33.9312 47.8852 31.9098 46.092 31.4542C46.7841 29.017 47.5085 26.5798 48.239 24.1525C48.2525 24.098 48.2443 24.0404 48.2161 23.9918C48.1879 23.9432 48.142 23.9075 48.088 23.8921C48.034 23.8767 47.9761 23.8829 47.9266 23.9093C47.8771 23.9357 47.8397 23.9804 47.8224 24.0338C45.8106 29.973 44.1435 36.0234 42.8293 42.1549C42.3002 44.6755 42.0307 45.5033 42.4426 46.2567C42.9579 47.1679 44.1769 47.3762 45.0881 47.6534C51.9851 49.734 58.9885 51.4439 66.0683 52.7759C71.7153 53.9045 71.2322 53.965 78.9688 50.0707C80.3781 49.4536 81.739 48.7316 83.04 47.9106C85.1036 46.4397 85.3134 44.2667 86.0025 41.4114C86.3088 40.1633 89.0347 29.1066 89.1335 28.5614C89.1492 28.5023 89.1408 28.4394 89.1102 28.3865C89.0795 28.3335 89.0291 28.295 88.97 28.2792C88.9109 28.2635 88.848 28.2719 88.7951 28.3025C88.7422 28.3332 88.7036 28.3836 88.6878 28.4427C88.1228 30.4435 87.6572 32.4749 87.1618 34.4963C87.1478 34.4948 87.1337 34.4984 87.122 34.5063C82.9512 35.9029 78.7996 37.3593 74.6985 38.9473C76.1748 33.0392 76.4259 32.7245 76.6304 31.6158C76.6602 31.4274 76.3922 31.2789 76.3034 31.4772C75.8107 32.7317 75.4197 34.0237 75.1342 35.3409C74.8072 36.566 74.5002 37.798 74.2031 39.0369C70.517 38.0859 66.8417 37.1018 63.177 36.0844C63.3784 35.4244 65.5331 28.8945 65.7123 28.1211C75.0676 30.5208 76.3777 30.9496 78.1572 30.6885C80.54 30.3416 90.6526 26.8079 92.9696 25.9726C93.0024 25.9606 93.0324 25.9421 93.0579 25.9183C93.0835 25.8945 93.104 25.8658 93.1182 25.834C93.5384 24.9405 93.7405 23.9601 93.7078 22.9733ZM53.4235 49.4267C49.7168 48.4841 45.7887 47.3455 44.2788 46.8609C43.7371 46.7506 43.2503 46.4566 42.9005 46.0285C42.4939 45.3647 42.8707 44.3639 43.0192 43.6602C43.4745 41.4509 43.9865 39.2559 44.5552 37.0752C48.3002 38.066 52.0545 39.0469 55.8003 40.0477C54.959 43.1569 54.1668 46.2833 53.4235 49.4267ZM72.8126 45.0377C72.795 45.1143 71.1227 52.3287 71.1089 52.4979C71.0989 52.6365 71.3164 52.6963 71.3662 52.5676C71.7153 51.795 73.1954 45.4129 73.2804 45.0477C73.4642 44.8639 79.2751 42.4979 83.109 41.1939C84.0241 40.965 84.9113 40.636 85.7545 40.213C83.9765 47.5347 84.9688 46.4918 76.7682 50.5661C72.9581 52.4711 71.9382 53.3624 67.9404 52.5975C66.6388 52.3494 60.7574 51.1427 59.1027 50.7743C59.8761 47.7115 60.6928 44.66 61.553 41.6196C64.7727 42.517 69.6671 43.9435 72.8126 45.0377ZM65.4121 20.5759C62.86 21.4228 61.5744 21.6525 60.7551 22.8944C56.2903 21.6471 52.1027 20.2497 48.5989 19.4488C48.5463 19.4381 48.4917 19.4477 48.4461 19.4759C48.4005 19.504 48.3673 19.5485 48.3534 19.6002C48.3394 19.652 48.3457 19.7071 48.371 19.7544C48.3962 19.8016 48.4386 19.8375 48.4894 19.8546C49.6701 20.2237 60.4113 23.3378 60.4978 23.3623C60.14 24.2439 59.9517 25.185 59.9427 26.1364C47.8071 23.056 47.5384 22.9243 45.7053 22.5598C46.131 21.118 46.3477 19.5284 46.726 19.0621C47.4266 18.2091 52.5499 17.595 53.6418 17.4373C53.726 17.425 65.9358 15.6333 66.6005 15.595C67.1085 16.9922 67.8018 18.3149 68.6617 19.5277C67.5714 19.8623 66.491 20.2176 65.4121 20.5759ZM93.1856 23.6969C93.1178 24.3236 92.9611 24.9375 92.72 25.52C86.9811 27.5821 81.393 29.3378 79.4933 29.8692C77.9224 30.3844 76.2275 30.3809 74.6587 29.8593C71.7758 29.1456 68.9022 28.4128 66.0193 27.6793C66.0041 26.7341 66.2885 25.8083 66.8317 25.0346C75.514 27.102 75.7827 28.1923 86.5477 24.8164C88.1924 24.2911 89.8571 23.8056 91.4819 23.2084C91.5341 23.1924 91.578 23.1569 91.6045 23.1092C91.631 23.0614 91.6379 23.0053 91.6238 22.9526C91.6097 22.8999 91.5757 22.8547 91.5289 22.8266C91.4822 22.7985 91.4263 22.7896 91.3732 22.8018C89.4459 23.2245 86.135 24.4971 82.6143 25.4174C75.5538 27.2896 73.867 26.1885 69.6257 25.1602L67.2873 24.5951C69.1694 23.1724 80.1465 19.9695 81.1381 18.8883C83.3073 19.4021 91.851 21.5506 92.7399 22.0277C93.3318 22.3592 93.2346 23.1418 93.1856 23.6969Z" fill="#38A1FF"/>
<path d="M81.0464 86.3627C81.8522 86.9283 82.7983 87.2608 83.7807 87.3236C83.8367 87.9163 83.8534 88.5121 83.8305 89.1069C83.7807 89.7708 83.5242 90.4148 83.5036 91.0786C83.4936 91.3083 83.7907 91.3458 83.8994 91.1873C84.4354 90.4033 84.486 88.3106 84.2463 87.3535C86.4592 87.3765 88.3772 86.3229 90.1016 84.9653C91.1402 84.2053 92.0273 83.2576 92.7172 82.1712C92.8359 81.9637 92.5488 81.7156 92.3704 81.904C91.067 83.5413 89.4587 84.9106 87.6345 85.9362C83.4339 88.0939 79.4783 86.2662 78.8665 80.9729C78.6533 78.7935 78.7534 76.5948 79.1636 74.4438C79.6411 72.0518 80.3513 69.7122 81.2838 67.4583C81.3604 67.2508 81.0365 67.1222 80.927 67.3098C79.8333 69.4197 79.0836 71.6908 78.7065 74.0372C77.9484 78.1896 77.6322 83.9025 81.0464 86.3627Z" fill="#191919"/>
<path d="M94.1047 76.8412C94.2839 76.9491 94.4316 76.7125 94.3122 76.5739C93.7673 75.9725 93.4304 75.2117 93.3512 74.404C93.1981 72.7585 93.924 70.6819 93.2027 69.688C91.8153 67.8251 85.4033 69.0218 81.6506 66.2201C81.3734 66.0119 81.1054 66.4782 81.3834 66.6757C84.1774 68.7569 87.7639 68.59 91.0235 69.2324C91.816 69.3909 92.8459 69.5494 93.0243 70.5104C93.0904 71.4104 93.0472 72.3152 92.8957 73.2049C92.8068 74.4239 92.9209 76.1291 94.1047 76.8412Z" fill="#191919"/>
<path d="M81.4129 65.6948C82.558 64.2213 84.0721 63.0765 85.8019 62.3763C91.0431 60.4199 98.962 62.776 99.1075 69.8962C99.0697 72.1745 98.3292 74.3855 96.9872 76.227C96.8486 76.4445 97.1856 76.7224 97.354 76.5142C99.9574 73.3044 100.475 68.2806 97.9183 64.8924C93.942 59.632 83.9742 60.2216 81.1648 65.5164C81.0951 65.6657 81.2942 65.8342 81.4129 65.6948Z" fill="#191919"/>
<path d="M88.903 74.5823C89.5087 75.0356 90.0324 74.4537 90.5378 74.1467C90.5739 74.1231 90.6017 74.0887 90.6172 74.0485C90.6327 74.0082 90.6351 73.9641 90.6241 73.9223C90.6131 73.8806 90.5892 73.8434 90.5558 73.8161C90.5225 73.7887 90.4813 73.7726 90.4383 73.7699C89.9827 73.7202 89.6657 74.4338 89.2392 74.2355C89.0615 74.1589 88.9229 73.8986 88.8035 73.75C88.6507 73.5364 88.4421 73.3689 88.2005 73.266C87.9588 73.1631 87.6935 73.1287 87.4337 73.1666C87.1738 73.2045 86.9293 73.3132 86.7271 73.4808C86.5249 73.6484 86.3728 73.8684 86.2874 74.1168C86.1978 74.3343 86.5646 74.4928 86.6702 74.2753C86.7223 74.139 86.8033 74.0156 86.9077 73.9136C87.012 73.8116 87.1373 73.7334 87.2747 73.6844C87.4122 73.6354 87.5586 73.6168 87.704 73.6299C87.8493 73.6429 87.9901 73.6873 88.1167 73.76C88.4467 73.9583 88.5968 74.3534 88.903 74.5823Z" fill="#191919"/>
<path d="M79.9759 72.6904C79.946 72.6605 79.908 72.6402 79.8667 72.6318C79.8253 72.6235 79.7823 72.6275 79.7433 72.6435C79.7042 72.6594 79.6707 72.6865 79.6469 72.7214C79.6232 72.7564 79.6103 72.7975 79.6099 72.8397C79.6489 73.3053 80.0655 73.7111 80.5287 73.4523C80.8345 73.2084 81.1946 73.0419 81.5785 72.9668C81.8269 72.9425 82.0757 73.0095 82.2782 73.1554C82.4807 73.3013 82.6232 73.516 82.6788 73.7593C82.7278 73.9676 83.0747 73.9278 83.0547 73.7095C83.0225 73.4708 82.9317 73.2438 82.7903 73.0488C82.649 72.8537 82.4616 72.6967 82.2448 72.5918C82.028 72.4868 81.7885 72.4372 81.5479 72.4473C81.3072 72.4575 81.0728 72.527 80.8656 72.6498C80.6972 72.7187 80.4889 72.9561 80.3296 72.9867C80.1443 73.0166 80.0831 72.8305 79.9759 72.6904Z" fill="#191919"/>
<path d="M88.9322 70.7086C89.2622 70.9429 89.3487 71.2928 89.5762 71.5899C89.601 71.6149 89.6321 71.6329 89.6661 71.6422C89.7002 71.6514 89.7361 71.6515 89.7702 71.6425C89.8043 71.6335 89.8355 71.6157 89.8605 71.5909C89.8856 71.5661 89.9037 71.5351 89.9131 71.5011C90.0448 70.6979 88.7438 69.6634 87.8327 70.0547C87.8048 70.0717 87.7825 70.0965 87.7685 70.126C87.7544 70.1554 87.7492 70.1883 87.7534 70.2207C87.7576 70.2531 87.7711 70.2835 87.7922 70.3084C87.8133 70.3333 87.8412 70.3516 87.8725 70.3609C88.247 70.3974 88.6088 70.5161 88.9322 70.7086Z" fill="#191919"/>
<path d="M80.9274 70.9958C81.1505 70.7456 81.4196 70.5405 81.7199 70.3916C82.0171 70.3284 82.3182 70.2851 82.6212 70.2622C82.6575 70.2514 82.69 70.2304 82.7147 70.2017C82.7394 70.173 82.7553 70.1377 82.7606 70.1002C82.7658 70.0627 82.7601 70.0244 82.7443 69.99C82.7284 69.9556 82.7029 69.9265 82.6709 69.9062C82.2783 69.7785 81.8522 69.801 81.4751 69.9694C81.098 70.1377 80.7968 70.4398 80.6296 70.8174C80.5607 71.0057 80.808 71.1145 80.9274 70.9958Z" fill="#191919"/>
<path d="M84.048 75.7415C84.6113 75.006 84.9083 74.1011 84.8903 73.1749C84.8873 73.1271 84.8661 73.0823 84.8312 73.0495C84.7963 73.0168 84.7502 72.9985 84.7023 72.9985C84.6545 72.9985 84.6084 73.0168 84.5735 73.0495C84.5385 73.0823 84.5174 73.1271 84.5144 73.1749C84.2793 75.8786 81.9516 76.3372 82.5128 77.5838C82.6117 77.7825 82.7623 77.9509 82.9488 78.0712C83.1353 78.1916 83.3507 78.2594 83.5725 78.2676C83.6108 78.266 83.6479 78.2534 83.6792 78.2314C83.7106 78.2094 83.735 78.1789 83.7496 78.1435C83.7642 78.108 83.7683 78.0691 83.7615 78.0314C83.7547 77.9937 83.7372 77.9588 83.7111 77.9307C83.3941 77.5647 82.6813 77.4751 83.0986 76.8411C83.365 76.4421 83.7678 76.1297 84.048 75.7415Z" fill="#191919"/>
<path d="M85.5638 84.4598C86.6357 84.0769 87.2384 82.9444 87.6442 81.9636C88.1039 80.8564 88.3234 79.6642 88.2881 78.4659C88.2855 78.4178 88.2694 78.3714 88.2416 78.332C88.2138 78.2927 88.1756 78.2619 88.1311 78.2433C88.0867 78.2247 88.038 78.219 87.9904 78.2268C87.9429 78.2346 87.8985 78.2556 87.8624 78.2875C87.1338 78.9294 86.2746 79.4056 85.3441 79.6832C84.4135 79.9608 83.4339 80.0332 82.4726 79.8954C82.4403 79.8879 82.4065 79.8898 82.3751 79.9007C82.3438 79.9116 82.3161 79.9311 82.2954 79.957C82.2747 79.983 82.2617 80.0142 82.2579 80.0472C82.2542 80.0802 82.2599 80.1136 82.2743 80.1435V80.1833C82.4129 81.7951 83.1633 85.3135 85.5638 84.4598ZM87.7736 78.9712C87.7131 80.5509 87.0301 82.9628 85.772 83.786C83.7406 85.1137 82.968 81.7951 82.7996 80.3487C84.5331 80.7645 86.3563 80.0019 87.7736 78.9689V78.9712Z" fill="#191919"/>
<path d="M135.34 85.8673C136.144 84.158 137.131 82.5407 138.283 81.0434C138.691 80.6552 139.075 80.2416 139.431 79.8053C139.448 79.7764 139.455 79.7434 139.453 79.7103C139.451 79.6771 139.439 79.6453 139.419 79.6189C139.399 79.5924 139.372 79.5725 139.34 79.5615C139.309 79.5505 139.275 79.549 139.243 79.5572C138.427 79.8497 137.273 81.5158 136.806 82.2425C136.107 83.3472 135.513 84.5149 135.032 85.7302C134.953 85.9163 135.252 86.0358 135.34 85.8673Z" fill="#191919"/>
<path d="M138.332 86.4017C139.188 84.7678 140.207 83.2244 141.373 81.7953C141.75 81.3887 142.274 81.0717 142.621 80.6559C142.741 80.5074 142.631 80.2294 142.414 80.2991C141.634 80.5487 140.403 82.1314 139.937 82.8052C139.193 83.8784 138.559 85.0235 138.044 86.2233C137.955 86.4216 138.216 86.5924 138.332 86.4017Z" fill="#191919"/>
<path d="M140.551 86.9866C140.464 87.2163 140.798 87.3235 140.928 87.1451C141.633 86.1635 142.422 84.1796 143.99 82.8848C144.149 82.7561 143.941 82.4881 143.772 82.6076C142.357 83.7826 141.251 85.286 140.551 86.9866Z" fill="#191919"/>
<path d="M144.475 85.9261C142.439 87.6328 142.324 90.8526 140.413 93.6244C138.546 96.3519 136.822 97.4223 135.112 101.67C134.359 103.522 133.745 105.435 133.091 107.327C132.445 106.911 128.501 105.529 126.413 102.611C126.284 102.432 126.155 102.244 126.03 102.066C127.22 100.619 128.309 99.1038 129.518 97.6666C130.538 96.4583 131.727 95.1306 131.667 93.4361C131.608 91.7025 130.092 90.286 130.658 88.4828C130.974 87.4751 132.15 85.4161 131.797 83.3901C131.747 83.1129 131.301 83.1818 131.311 83.459C131.342 86.4322 130.534 86.9575 130.112 88.5126C129.677 90.1574 130.786 91.4652 131.113 93.0012C131.658 95.5379 128.749 97.2937 125.783 101.759C124.883 100.809 124.006 101.477 122.95 102.275C121.21 103.624 119.8 105.352 118.828 107.328C117.986 102.182 115.92 97.3124 112.804 93.1306C107.981 86.9881 103.411 86.8518 96.1497 90.0678C95.9812 89.4927 95.7339 88.9384 95.5655 88.3733C94.8999 86.3127 94.5721 84.158 94.5946 81.9927C95.0149 82.0268 95.4379 81.9765 95.8385 81.8448C96.2392 81.7131 96.6095 81.5026 96.9276 81.2257C97.2458 80.9489 97.5054 80.6112 97.6912 80.2326C97.877 79.854 97.9852 79.4421 98.0096 79.021C98.1329 76.9 96.0953 75.6121 94.809 76.7813C94.6604 76.9207 94.8488 77.1581 95.0272 77.0593C96.5333 76.2071 97.6727 77.9781 97.4246 79.3281C97.297 80.0024 96.9103 80.6 96.3473 80.9926C95.7844 81.3853 95.09 81.5417 94.4131 81.4284C94.3723 81.4188 94.3298 81.4185 94.2889 81.4273C94.2479 81.4362 94.2094 81.4541 94.1762 81.4797C94.143 81.5052 94.1159 81.5379 94.0969 81.5752C94.0779 81.6126 94.0674 81.6537 94.0662 81.6956C94.0068 84.6375 94.5601 87.5596 95.691 90.276C92.7814 91.5548 89.4468 93.0586 86.2729 92.4652C83.8931 92.0119 81.9628 89.9269 78.6634 89.1466C76.5835 88.661 74.4208 88.6511 72.3365 89.1176C70.2523 89.5841 68.3002 90.5151 66.6258 91.8411C61.6128 96.0594 60.256 102.677 55.9359 108.03C55.0772 107.783 54.1822 107.686 53.2904 107.742C52.2429 107.824 51.1755 108.013 50.9619 109.08C50.1663 108.293 43.6112 106.687 39.8654 106.197C38.4389 106.009 35.9519 106.069 36.0116 104.047C36.0514 102.611 36.9626 101.253 36.3485 99.8167C35.7344 98.3802 34.4764 97.9943 33.7819 96.1903C33.6931 95.9529 33.3163 95.9729 33.3263 96.25C33.3562 97.6076 34.8225 98.4889 35.5262 99.4997C36.5369 100.946 35.5262 102.432 35.4496 103.978C35.373 105.632 36.7183 106.352 38.1648 106.554C46.3271 107.697 44.4764 107.644 50.7475 109.427C50.7758 109.436 50.8058 109.437 50.835 109.432C50.8641 109.427 50.8916 109.415 50.9152 109.397C50.8386 110.75 52.4818 114.008 50.9351 119.781C50.9325 119.781 50.9299 119.78 50.9281 119.778C50.9262 119.776 50.9252 119.773 50.9252 119.771C49.7766 119.424 48.5775 119.206 47.4083 118.899C36.5713 116.051 35.5637 112.307 31.3577 110.923C29.069 110.17 26.6027 110.111 24.3132 109.358C24.0043 109.278 23.7153 109.135 23.4648 108.937C23.2144 108.739 23.0078 108.492 22.8584 108.209C22.5544 107.569 22.3569 106.882 22.2734 106.178C22.0888 104.696 22.2309 103.191 22.69 101.769C22.7589 101.532 22.3837 101.353 22.2734 101.591C21.2068 104.011 21.5759 107.298 22.5215 108.754C23.4335 110.167 25.6992 110.274 29.1295 110.944C32.6624 111.645 33.3952 112.467 35.9657 114.382C39.1957 116.664 42.8302 118.311 46.6755 119.236C48.0347 119.643 49.4224 119.948 50.8271 120.148C49.9144 123.434 51.5637 123.576 55.0178 123.814C58.1572 124.043 61.478 123.834 64.3012 122.327C66.9962 120.891 69.3303 118.861 71.1281 116.393C71.2667 116.175 70.9298 115.997 70.7912 116.195C69.3015 118.142 67.4598 119.792 65.3617 121.059C63.0707 122.514 61.344 123.19 57.723 123.308C56.0662 123.353 54.4086 123.254 52.769 123.011C52.0461 122.903 51.2376 122.705 51.1043 121.863C51.0985 121.111 51.2331 120.366 51.501 119.664C52.906 113.949 51.2858 110.158 51.4244 109.25C51.4678 109.026 51.5815 108.822 51.7492 108.667C51.9168 108.512 52.1294 108.414 52.3562 108.389C53.5242 108.165 54.7289 108.223 55.8697 108.559C57.0105 108.895 58.0544 109.499 58.9145 110.321C58.9519 110.354 59.0009 110.373 59.0514 110.371C59.1019 110.37 59.1499 110.349 59.1856 110.314C59.2213 110.278 59.242 110.23 59.2432 110.18C59.2445 110.129 59.2263 110.08 59.1924 110.043C58.4171 109.169 57.4267 108.513 56.3195 108.141C61.501 102.116 62.965 91.6604 72.181 89.6237C75.069 88.9447 78.0999 89.2301 80.8104 90.4361C82.0355 91.0103 83.1489 91.7929 84.3778 92.3679C91.7515 95.8381 99.9728 85.4253 107.848 89.3955C109.061 90.0549 110.154 90.9158 111.079 91.9414C115.309 96.3664 117.204 102.186 118.469 107.982C117.853 109.402 117.405 110.888 117.132 112.411C117.082 112.708 117.515 112.837 117.588 112.54C118.479 108.854 120.045 105.228 123.106 102.83C124.906 101.409 125.148 101.732 125.791 102.672C127.501 105.187 130.095 106.416 132.638 107.695C132.91 107.792 133.133 107.991 133.262 108.249C133.356 109.114 133.286 109.988 133.053 110.826C132.334 113.812 130.08 117.02 128.209 119.455C126.901 121.149 125.514 122.962 123.691 124.141C121.906 125.248 119.774 125.653 117.707 125.281C112.407 124.424 109.017 120.056 106.274 117.345C107.25 113.417 107.736 109.384 107.72 105.337C107.717 105.289 107.696 105.244 107.661 105.211C107.626 105.178 107.58 105.16 107.532 105.16C107.484 105.16 107.438 105.178 107.403 105.211C107.368 105.244 107.347 105.289 107.344 105.337C106.765 118.421 103.393 122.215 103.899 127.243V127.252C97.1837 126.341 90.3704 126.438 83.6841 127.54C81.9128 127.731 80.1871 128.223 78.5815 128.994C78.4697 126.356 76.2124 123.008 74.8295 120.633C72.5991 116.783 72.0294 114.54 72.9865 110.111C73.452 107.921 74.1351 105.722 74.1856 103.473C74.1955 103.195 73.789 103.205 73.7599 103.473C73.3632 107.445 71.4712 111.369 72.1052 115.412C72.6205 118.681 74.7086 121.384 76.2759 124.21C77.2061 125.755 77.8222 127.469 78.0891 129.252C78.0546 129.253 78.0207 129.261 77.9898 129.277C77.9589 129.292 77.9319 129.314 77.9107 129.341C73.4199 135.377 70.2637 144.899 70.0638 149.414C70.0641 149.455 70.079 149.495 70.106 149.526C70.133 149.557 70.1702 149.578 70.2109 149.584C70.2516 149.59 70.2932 149.581 70.328 149.559C70.3628 149.537 70.3886 149.503 70.4007 149.464C71.4528 145.282 71.6259 139.979 78.2377 129.618C78.2729 129.636 78.3121 129.645 78.3517 129.644C78.3913 129.644 78.43 129.633 78.4644 129.613C78.4988 129.594 78.5277 129.566 78.5487 129.532C78.5697 129.499 78.582 129.46 78.5845 129.421V129.361C80.0662 128.721 81.6301 128.291 83.2308 128.083C90.2654 126.92 97.4377 126.853 104.493 127.885C106.722 129.599 108.109 132.205 109.159 134.751C112.324 142.397 112.386 146.761 112.795 149.593C112.825 149.801 113.132 149.731 113.152 149.543C113.321 146.68 112.258 142.158 111.419 139.427C110.102 135.183 108.334 130.176 104.84 127.635C104.84 127.416 104.462 127.337 104.384 127.337C104.436 125.433 104.693 123.54 105.15 121.69C105.477 120.403 105.843 119.125 106.17 117.837C108.915 121.235 112.392 124.663 116.752 125.693C118.821 126.233 121.011 126.066 122.974 125.217C125.041 124.256 126.572 122.453 127.967 120.71C129.974 118.201 132.527 114.683 133.446 111.598C133.762 110.52 134.271 108.513 133.523 107.684C134.047 106.621 135.177 101.525 137.565 98.1337C139.479 95.4369 141.087 94.3335 142.459 90.6428C142.935 89.0299 143.704 87.5187 144.728 86.1849C144.745 86.1683 144.759 86.1484 144.768 86.1266C144.777 86.1047 144.782 86.0812 144.782 86.0574C144.783 86.0336 144.778 86.01 144.769 85.9879C144.76 85.9659 144.747 85.9458 144.731 85.9288C144.714 85.9118 144.694 85.8982 144.672 85.8889C144.65 85.8796 144.627 85.8746 144.603 85.8744C144.579 85.8741 144.556 85.8786 144.534 85.8875C144.512 85.8963 144.492 85.9095 144.475 85.9261Z" fill="#191919"/>
<path d="M134.756 87.0953C138.779 87.4108 139.57 88.5624 140.581 88.9583C140.779 89.0348 140.878 88.7699 140.77 88.6413C139.954 87.9668 139.01 87.4646 137.995 87.165C136.956 86.8182 135.858 86.68 134.765 86.7584C134.72 86.7572 134.677 86.7738 134.644 86.8045C134.612 86.8352 134.593 86.8776 134.592 86.9223C134.591 86.9669 134.607 87.0103 134.638 87.0427C134.669 87.0752 134.711 87.0941 134.756 87.0953Z" fill="#191919"/>
<path d="M20.1838 98.8358C20.1825 98.8013 20.1701 98.7682 20.1485 98.7413C20.1269 98.7145 20.0972 98.6953 20.0638 98.6867C20.0304 98.6781 19.9951 98.6805 19.9632 98.6936C19.9313 98.7066 19.9044 98.7297 19.8867 98.7592C19.6168 99.3569 19.4781 100.005 19.4801 100.661C19.3303 102.725 19.7848 104.787 20.7879 106.596C20.8132 106.633 20.8516 106.66 20.8955 106.67C20.9394 106.68 20.9854 106.673 21.0243 106.65C21.0632 106.627 21.0921 106.591 21.105 106.548C21.118 106.505 21.1141 106.458 21.0942 106.418C19.1363 102.365 20.2144 99.8274 20.1838 98.8358Z" fill="#191919"/>
<path d="M18.658 103.72C17.648 99.427 18.1427 99.8068 17.9551 98.489C17.9252 98.2815 17.6182 98.3206 17.5684 98.489C17.3096 99.3818 17.6679 101.455 17.8456 102.304C18.0538 103.295 18.1519 104.642 19.0148 105.305C19.1932 105.445 19.4505 105.216 19.2728 105.048C18.9447 104.674 18.7312 104.213 18.658 103.72Z" fill="#191919"/>
<path d="M15.3491 100.649C15.2431 100.161 15.0833 99.6858 14.8728 99.2326C14.8039 99.1132 14.5757 99.1132 14.5459 99.2724C14.5373 99.7917 14.6459 100.306 14.8637 100.778C15.4035 102.343 16.3103 103.757 17.5084 104.9C17.6669 105.058 17.905 104.823 17.7565 104.652C16.7005 103.488 15.8827 102.128 15.3491 100.649Z" fill="#191919"/>
<path d="M98.2954 78.0005C97.8797 77.9507 97.8797 78.6046 98.2954 78.6544C99.0786 78.747 99.8187 79.0622 100.428 79.5628C101.037 80.0633 101.49 80.7281 101.733 81.4783C102.169 82.8949 101.892 84.8068 100.426 85.5105C99.7693 85.7879 99.0399 85.8412 98.3502 85.6621C97.6606 85.483 97.0492 85.0814 96.6109 84.5197C95.4325 83.182 95.3031 81.4086 95.2541 79.7042C95.2441 79.4668 94.8475 79.3872 94.8077 79.6452C94.4248 82.3795 95.6201 86.1047 98.8207 86.4117C99.4606 86.4862 100.108 86.3733 100.685 86.0866C101.262 85.7999 101.743 85.3519 102.07 84.7969C102.412 84.1119 102.582 83.3539 102.565 82.5885C102.548 81.8232 102.345 81.0735 101.973 80.4042C101.602 79.735 101.072 79.1664 100.432 78.7475C99.7908 78.3287 99.0576 78.0723 98.2954 78.0005Z" fill="#38A1FF"/>
<path d="M32.5869 96.7141C32.4407 97.6919 31.5869 98.2891 30.874 98.8956C27.3832 101.805 26.6703 102.529 25.534 103.007C25.1491 103.185 24.7299 103.278 24.3055 103.278C23.8811 103.278 23.4618 103.185 23.0769 103.007C22.7153 104.516 22.791 106.097 23.2951 107.565C23.5683 107.802 23.8599 108.018 24.1673 108.209C24.7341 108.523 25.3696 108.692 26.0175 108.703C26.6654 108.713 27.3059 108.564 27.8824 108.268C29.3909 107.59 30.2454 106.716 34.8871 102.848C35.4575 100.569 35.3871 100.297 34.1535 99.064C33.4093 98.4539 32.8639 97.6358 32.5869 96.7141ZM32.1129 102.631C32.0727 102.837 31.991 103.033 31.8728 103.206C31.7546 103.38 31.6024 103.527 31.4254 103.64C31.2484 103.753 31.0503 103.829 30.8432 103.863C30.636 103.898 30.424 103.889 30.2201 103.839C28.5356 103.706 28.9904 101.104 30.6267 100.996C30.8361 100.991 31.0443 101.03 31.237 101.113C31.4296 101.195 31.6024 101.318 31.7434 101.473C31.8844 101.628 31.9904 101.811 32.0541 102.011C32.1179 102.21 32.138 102.421 32.1129 102.629V102.631Z" fill="#191919"/>
<path d="M32.5799 95.9561C32.6556 95.7775 32.7827 95.6254 32.9449 95.519C33.1072 95.4127 33.2974 95.3568 33.4914 95.3587C33.6854 95.3605 33.8745 95.4198 34.0347 95.5292C34.195 95.6385 34.3192 95.793 34.3916 95.973C34.6659 96.6315 35.0704 97.2279 35.5807 97.7264C36.4532 98.4634 37.0303 99.4907 37.2055 100.619C38.2453 98.9791 37.3265 97.2073 36.1052 95.7149C36.0432 95.6384 24.4137 82.6008 22.7009 80.7547C21.8877 79.8826 20.9168 78.8626 19.6488 78.783C18.2912 78.6934 17.0232 79.8427 16.0025 80.5962C14.0607 82.0083 12.2799 83.6296 10.6924 85.4308C9.24674 86.7984 7.90983 87.9699 8.51243 89.8895C9.02162 91.5419 9.70845 91.973 16.8149 100.194C16.707 99.0932 16.6564 97.6567 17.7667 97.6567C17.8897 97.6563 18.0115 97.6824 18.1235 97.7333C17.3578 96.8612 14.1801 93.1958 13.3478 92.2348C12.6293 91.5456 12.083 90.6971 11.7529 89.7578C11.4198 88.4109 12.3578 87.6268 13.3379 86.6866C14.7469 85.0915 16.3628 83.692 18.1426 82.525C18.5521 82.2162 19.0326 82.0153 19.54 81.9408C20.8417 81.8642 21.4428 82.6758 26.8908 88.8267C30.4451 92.855 32.302 94.4753 32.5799 95.9561Z" fill="#191919"/>
<path d="M25.4838 65.1205C30.2411 56.8303 35.5214 53.7116 37.0068 52.3096C37.1653 52.161 36.967 51.9336 36.7771 52.0224C34.8629 52.9849 31.6102 56.1656 30.1791 57.7652C28.2318 59.9501 26.5551 62.3619 25.1852 64.9482C25.1623 64.9878 25.1562 65.0349 25.168 65.079C25.1798 65.1232 25.2087 65.1608 25.2483 65.1837C25.2879 65.2065 25.335 65.2127 25.3792 65.2008C25.4233 65.189 25.461 65.1601 25.4838 65.1205Z" fill="#38A1FF"/>
<path d="M17.7764 87.2041C17.0827 82.1306 16.4464 78.5127 17.3499 71.7094C18.042 66.5886 19.5577 61.6134 21.8384 56.9766C23.2006 54.4056 24.7089 51.9148 26.3561 49.5164C26.4748 49.338 26.1976 49.1197 26.059 49.2867C24.3978 51.3021 22.9811 53.5071 21.8384 55.8556C18.2169 62.8806 16.3634 70.683 16.4387 78.5862C16.4192 81.5238 16.745 84.4536 17.4096 87.3152C17.4694 87.551 17.8086 87.4423 17.7764 87.2041Z" fill="#38A1FF"/>
<path d="M23.6117 85.6589C24.0967 78.8468 26.4259 72.295 30.3499 66.7055C31.3798 65.1994 32.6087 63.8525 33.6784 62.3763C33.817 62.1879 33.5298 61.9896 33.3721 62.1381C32.2041 63.2687 31.1672 64.5273 30.281 65.8901C26.3261 71.4797 23.3989 78.8136 23.2664 85.6758C23.2549 85.8871 23.5995 85.8863 23.6117 85.6589Z" fill="#38A1FF"/>
</svg>
