<svg width="154" height="154" viewBox="0 0 154 154" fill="none" xmlns="http://www.w3.org/2000/svg">
<path d="M110.773 121.621C111.413 121.409 110.69 108.418 110.204 107.676C109.719 106.934 88.7497 107.452 88.667 108.623C88.5843 109.793 88.0269 121.115 89.0315 122.394C90.9312 122.091 108.912 121.621 110.773 121.621Z" fill="#38A1FF"/>
<path d="M124.015 82.8862C123.59 83.3119 112.617 121.124 112.682 121.49C116.195 121.425 130.19 121.183 130.593 121.611C130.997 122.038 131.93 138.574 131.93 142.329C132.947 142.528 135.723 142.969 136.126 142.329C136.53 141.69 149.924 89.1888 149.745 88.4001C149.565 87.6114 124.44 82.4612 124.015 82.8862Z" fill="#38A1FF"/>
<path d="M78.2024 124.579C77.841 125.004 79.7721 144.303 80.3839 144.786C81.1091 145.358 129.637 143.909 129.95 142.867C130.263 141.825 129.311 124.201 128.556 123.677C127.801 123.152 78.5638 124.153 78.2024 124.579Z" fill="#38A1FF"/>
<path d="M117.931 57.505C126.957 55.7791 132.762 45.177 128.71 36.3966C122.673 23.3113 100.197 28.3175 99.7142 43.288C99.4141 52.5853 109.226 59.1689 117.931 57.505ZM103.501 36.3384C108.932 28.8811 121.572 27.986 126.484 35.2894C131.311 42.4741 127.479 52.9866 119.3 55.701C107.798 59.5212 95.6406 47.1304 103.501 36.3384Z" fill="#38A1FF"/>
<path d="M107.205 42.9909C109.652 44.9102 111.99 46.9645 114.209 49.1442C114.273 49.2102 114.351 49.2626 114.436 49.2986C114.521 49.3345 114.613 49.3533 114.705 49.3537C114.798 49.3541 114.89 49.3362 114.975 49.3011C115.061 49.2659 115.138 49.2142 115.204 49.1488C115.483 48.8724 119.186 44.1204 123.752 39.0766C124.801 37.9181 124.665 36.3667 121.418 39.0766C119.49 40.6846 115.757 44.4366 114.094 46.2215C113.353 45.506 112.56 44.8474 111.72 44.2513C106.131 40.3684 106.002 41.9679 107.205 42.9909Z" fill="#38A1FF"/>
<path d="M54.465 22.567C45.8982 24.4775 46.386 31.944 48.484 35.1715C48.3944 28.6981 61.7761 27.6751 64.8083 33.3935C65.1276 32.869 65.6973 31.6538 66.8673 31.3337C66.7463 27.4538 63.3412 20.5877 54.465 22.567Z" fill="#38A1FF"/>
<path d="M58.2454 45.7292C61.9208 48.6389 64.7693 43.9826 62.5334 40.7972C62.469 40.6921 62.3756 40.6079 62.2645 40.5546C62.1534 40.5013 62.0293 40.4812 61.907 40.4968C61.7848 40.5123 61.6696 40.5628 61.5753 40.6421C61.4811 40.7215 61.4117 40.8264 61.3756 40.9442C61.2261 41.7964 60.8503 42.5927 60.2877 43.2499C59.725 43.9071 58.9961 44.4011 58.1772 44.6801C57.6979 44.8486 57.8166 45.3892 58.2454 45.7292ZM62.0066 41.8401C63.2156 44.1679 61.3174 47.1427 58.8909 45.1273C59.6312 44.8614 60.2988 44.4255 60.84 43.8545C61.3811 43.2836 61.7807 42.5936 62.0066 41.8401Z" fill="#191919"/>
<path d="M59.4799 33.4601C59.1348 33.2383 58.7484 33.0883 58.344 33.0191C57.9396 32.9499 57.5254 32.9629 57.1261 33.0573C56.1192 33.3023 56.2494 34.4838 57.2923 34.3368C57.8692 34.1884 58.4772 34.215 59.0389 34.4134C59.9401 34.663 60.0297 33.895 59.4799 33.4601Z" fill="#191919"/>
<path d="M58.629 38.2642C59.2645 37.8224 58.7055 36.4717 58.1879 36.6202C57.5669 36.7979 57.985 38.7114 58.629 38.2642Z" fill="#191919"/>
<path d="M55.5456 38.6225C55.5418 38.5848 55.5306 38.5481 55.5127 38.5147C55.4948 38.4813 55.4704 38.4517 55.441 38.4276C55.4117 38.4036 55.3779 38.3856 55.3415 38.3746C55.3052 38.3637 55.2671 38.36 55.2293 38.3637C55.1916 38.3675 55.1549 38.3787 55.1215 38.3966C55.088 38.4145 55.0585 38.4389 55.0344 38.4683C55.0104 38.4976 54.9924 38.5314 54.9814 38.5678C54.9704 38.6041 54.9667 38.6422 54.9705 38.68C55.0088 40.1639 53.7814 41.4687 53.8985 42.4412C54.1282 44.36 58.917 43.3677 58.3764 41.4304C58.2746 41.0659 57.8006 41.213 57.7363 41.5009C57.3657 42.7804 55.178 42.7804 54.8327 42.4343C54.4873 42.0882 55.8335 39.8117 55.5456 38.6225Z" fill="#191919"/>
<path d="M52.0027 34.7971C51.6166 34.8577 51.2647 35.054 51.0103 35.3506C50.7559 35.6473 50.6155 36.0249 50.6144 36.4158C50.6054 36.4862 50.62 36.5576 50.656 36.6188C50.692 36.68 50.7473 36.7275 50.8133 36.7538C50.8792 36.7802 50.9521 36.7838 51.0203 36.7642C51.0885 36.7446 51.1483 36.7028 51.1902 36.6455C51.4984 36.2986 51.8905 36.0365 52.3289 35.8844C53.0731 35.6225 52.6099 34.7588 52.0027 34.7971Z" fill="#191919"/>
<path d="M52.8722 39.6892C53.5115 39.644 53.1279 37.8147 52.5008 38.0452C51.8737 38.2757 52.3285 39.729 52.8722 39.6892Z" fill="#191919"/>
<path d="M10.0155 58.3175C9.37612 58.4767 6.6364 61.3336 7.45724 63.5687C7.60196 63.9638 8.29953 64.0282 8.35849 63.5687C8.77504 60.44 10.4252 59.5977 10.5362 58.8037C10.5605 58.7325 10.5637 58.6557 10.5454 58.5827C10.5271 58.5097 10.4881 58.4435 10.4331 58.3921C10.3781 58.3408 10.3094 58.3064 10.2353 58.2931C10.1612 58.2799 10.0849 58.2883 10.0155 58.3175Z" fill="#191919"/>
<path d="M15.7716 71.8966C15.2142 71.0008 11.0831 68.0589 12.7141 65.9677C13.2134 65.3276 13.9936 65.0718 14.5947 64.5603C14.6546 64.4964 14.6948 64.4165 14.7104 64.3303C14.726 64.244 14.7164 64.1551 14.6827 64.0742C14.6489 63.9933 14.5925 63.9239 14.5203 63.8743C14.448 63.8247 14.363 63.797 14.2754 63.7946C12.2922 63.9547 10.6046 65.9524 11.1666 67.9203C11.5594 69.2986 13.966 72.2366 15.0044 72.6608C15.4638 72.8446 16.0917 72.4112 15.7716 71.8966Z" fill="#191919"/>
<path d="M12.0884 61.0227C12.0884 60.8122 11.8189 60.6881 11.6336 60.7164C11.1274 60.793 9.33641 62.9875 9.16489 64.5542C9.09597 65.1943 9.43901 66.114 10.2078 65.7571C10.789 65.4868 10.2078 65.362 10.5654 64.241C10.9613 62.9883 12.1137 61.4063 12.0884 61.0227Z" fill="#191919"/>
<path d="M7.30912 59.424C6.8122 58.118 6.45641 56.7626 6.24784 55.381C6.22883 55.2732 6.1705 55.1763 6.08414 55.1091C5.99779 55.0419 5.88955 55.0091 5.78041 55.0171C5.67127 55.0251 5.56898 55.0733 5.49336 55.1525C5.41774 55.2316 5.37417 55.3359 5.37109 55.4453C5.37393 56.9369 5.64711 58.4157 6.17739 59.8099C6.23911 59.9463 6.34952 60.0548 6.48702 60.1141C6.62451 60.1734 6.77919 60.1792 6.92077 60.1305C7.06234 60.0817 7.18063 59.9819 7.25245 59.8505C7.32428 59.7191 7.34449 59.5656 7.30912 59.4201V59.424Z" fill="#191919"/>
<path d="M22.2262 59.283C24.4721 61.2057 23.4047 62.9125 22.8641 65.4171C21.9728 69.5612 24.2424 69.454 24.1428 68.4877C23.9652 66.761 23.7332 67.0688 24.309 64.9187C24.9552 62.5082 25.4867 60.5434 23.3304 58.7011C22.5758 58.1628 21.8772 57.5499 21.2454 56.8718C20.9345 56.4813 19.0654 56.5731 22.2262 59.283Z" fill="#191919"/>
<path d="M8.81945 56.6474C8.64946 54.8051 5.5889 46.6304 5.53759 45.9971C5.48629 45.3639 10.3233 43.5017 10.834 43.7842C11.8716 44.3577 16.5447 59.1965 17.1542 61.2532C17.3434 61.8918 18.1903 64.0933 17.851 64.6116C17.5118 65.13 15.2928 65.699 14.8318 65.8904C14.0133 66.3 14.0309 67.2687 14.9789 67.055C15.9956 66.8184 16.9858 66.4798 17.9345 66.0443C19.7362 65.2296 19.2783 63.9585 18.7209 62.0848C17.1374 56.7623 15.302 51.426 13.3479 46.2345C12.5623 44.1472 12.0408 41.6111 9.75285 42.6517C9.37535 42.824 4.95948 44.4665 4.5973 44.8654C3.76037 45.7843 4.67923 47.4244 4.99394 48.3877C5.38292 49.5776 7.35004 55.881 7.9427 56.8504C8.16246 57.2049 8.86462 57.1398 8.81945 56.6474Z" fill="#191919"/>
<path d="M65.4609 97.5152C66.4012 97.202 66.6455 98.98 69.4587 99.5619C71.7819 100.043 71.6333 98.7197 71.2306 98.7051C68.6141 98.5849 67.3545 96.5864 66.0298 96.2295C63.1967 95.4638 62.1921 100.502 64.9234 103.867C64.9566 103.916 64.999 103.957 65.0483 103.99C65.0976 104.022 65.1528 104.044 65.2107 104.055C65.2686 104.066 65.3281 104.066 65.3858 104.054C65.4436 104.042 65.4983 104.018 65.5471 103.985C65.5958 103.952 65.6375 103.909 65.6698 103.86C65.7021 103.811 65.7244 103.756 65.7354 103.698C65.7464 103.64 65.7458 103.58 65.7338 103.523C65.7218 103.465 65.6985 103.41 65.6654 103.361C65.026 102.14 63.5933 98.1369 65.4609 97.5152Z" fill="#191919"/>
<path d="M72.1065 89.1482C69.8677 89.1367 67.6357 88.8989 65.4448 88.4384C64.4794 88.1722 63.476 88.0705 62.4769 88.1374C60.8137 88.3809 58.819 89.8741 53.7707 89.9353C53.2975 89.9407 53.3296 90.6903 53.7707 90.76C55.4836 90.9171 57.2106 90.8029 58.888 90.4216C57.7698 91.4983 56.8807 92.7898 56.274 94.2187C55.6673 95.6475 55.3554 97.1841 55.3572 98.7364C55.3572 99.2418 56.123 99.3253 56.1697 98.8069C56.3053 97.1571 56.7859 95.5542 57.5804 94.1019C58.3748 92.6496 59.4654 91.3804 60.7816 90.3764C63.1185 88.6152 63.797 89.3963 66.4042 89.8136C68.3056 90.1313 70.2347 90.2514 72.1608 90.1719C72.2298 90.1706 72.2977 90.1554 72.3607 90.1272C72.4236 90.099 72.4802 90.0584 72.5271 90.0078C72.574 89.9573 72.6102 89.8978 72.6335 89.8329C72.6569 89.768 72.667 89.6991 72.6631 89.6303C72.6592 89.5614 72.6415 89.4941 72.6111 89.4322C72.5806 89.3704 72.5379 89.3153 72.4857 89.2703C72.4335 89.2253 72.3727 89.1913 72.307 89.1703C72.2413 89.1493 72.1721 89.1418 72.1034 89.1482H72.1065Z" fill="#191919"/>
<path d="M63.708 95.6859C64.0143 95.2333 63.574 94.5419 63.0234 94.803C61.8856 95.339 60.9445 97.3169 60.6949 98.4876C60.5151 100.217 60.6144 101.964 60.9889 103.662C61.0065 103.762 61.0597 103.852 61.1388 103.915C61.2179 103.979 61.3173 104.011 61.4185 104.006C61.5197 104.002 61.6157 103.96 61.6886 103.89C61.7614 103.82 61.8062 103.725 61.8144 103.624C61.9759 101.244 60.9721 98.9027 63.0104 96.447C63.2279 96.1844 63.5181 95.9692 63.708 95.6859Z" fill="#191919"/>
<path d="M61.6674 92.1866C60.3918 92.7387 58.8611 94.8306 58.322 96.0634C57.5424 97.8944 57.3633 99.9254 57.8105 101.864C57.8172 101.918 57.8343 101.97 57.861 102.017C57.8878 102.064 57.9235 102.105 57.9662 102.138C58.0089 102.171 58.0578 102.195 58.1099 102.209C58.162 102.223 58.2164 102.227 58.27 102.22C58.3601 102.209 58.4439 102.168 58.5079 102.104C58.5719 102.039 58.6124 101.955 58.623 101.865C58.9147 98.9486 58.5663 97.2181 60.6437 94.7081C61.169 94.0741 61.8596 93.6591 62.3773 93.0572C62.7678 92.545 62.1452 91.9791 61.6674 92.1866Z" fill="#191919"/>
<path d="M99.8671 104.174C104.658 103.851 108.654 103.067 109.942 97.6178C110.792 94.0189 109.424 90.4147 107.946 87.1849C107.633 86.5004 106.536 86.9299 106.852 87.626C108.121 90.4201 109.322 93.4982 108.88 96.6132C107.865 103.765 99.9245 103.252 94.3983 103.08C85.8905 102.816 81.1515 101.309 73.2899 100.086C74.1016 97.643 75.2808 92.4875 74.8826 89.8519C81.6883 89.1628 91.9419 88.9246 97.4107 89.0142C97.5183 89.009 97.6205 88.9652 97.6984 88.8907C97.7764 88.8163 97.8249 88.7162 97.835 88.6089C97.8452 88.5016 97.8163 88.3943 97.7537 88.3066C97.691 88.2188 97.5989 88.1566 97.4941 88.1313C95.223 87.5387 79.0282 87.7332 74.6582 88.701C73.5862 88.9384 73.636 89.3404 73.7118 90.4538C73.9262 93.607 72.7394 97.8092 72.3557 99.3506C72.0494 100.586 72.3182 100.787 73.3856 101.065C81.1178 103.078 91.968 104.705 99.8671 104.174Z" fill="#191919"/>
<path d="M87.3238 86.6412C95.4343 86.4414 103.57 85.9858 111.713 85.799C118.935 85.6313 118.507 88.7286 119.875 94.5748C121.243 100.421 122.413 106.178 123.933 111.916C123.991 112.123 124.128 112.299 124.314 112.407C124.5 112.514 124.72 112.545 124.929 112.493C125.137 112.44 125.317 112.309 125.43 112.126C125.542 111.943 125.579 111.723 125.532 111.513C124.12 105.154 122.546 98.8238 121.054 92.4767C119.649 86.4973 118.458 83.9773 112.528 84.2254C105.729 84.5126 90.9533 84.7614 87.14 85.0822C86.1339 85.1649 86.3253 86.6657 87.3238 86.6412Z" fill="#191919"/>
<path d="M81.0743 103.886C80.2879 106.708 79.7085 109.583 79.3407 112.489C79.2036 113.607 80.5658 114.262 80.9525 112.432C81.2948 110.814 82.1539 105.894 82.3538 104.25C82.4212 103.694 81.2665 103.349 81.0743 103.886Z" fill="#191919"/>
<path d="M43.6676 111.383C38.7165 116.884 32.2148 111.546 29.2431 107.172C20.5553 94.3665 21.1066 86.436 16.3346 75.1846C19.8212 74.9773 23.1812 73.8035 26.0385 71.7948C30.3248 79.155 34.2101 86.7416 37.6774 94.5212C37.8474 94.9041 38.509 94.6942 38.3872 94.2846C36.1284 86.6734 31.4567 78.579 27.4429 71.673C26.5355 70.1117 26.3984 69.9609 25.1909 70.8032C22.4513 72.691 19.2641 73.8264 15.948 74.0958C14.6661 74.2091 14.9112 74.6846 15.2381 75.6119C19.6326 88.0708 20.2451 96.4286 28.4536 108.287C31.9253 113.303 38.731 118.412 44.2082 112.125C44.5979 111.673 44.0742 110.935 43.6676 111.383Z" fill="#191919"/>
<path d="M62.2551 127.611C61.311 127.371 50.5948 127.342 49.0082 127.419C49.3988 113.148 41.263 100.695 41.6574 86.9606C41.905 81.7597 43.3824 76.6916 45.9683 72.1723C46.2249 71.6991 45.4523 71.2167 45.1498 71.6731C42.6314 75.5364 41.0681 79.9435 40.5892 84.5302C38.949 99.0949 47.9401 112.675 47.7104 127.739C47.6292 133.08 46.646 136.274 45.8726 141.952C45.8098 142.411 46.512 142.675 46.6973 142.188C47.9875 137.772 48.7455 133.218 48.9554 128.622C51.3666 128.807 60.0468 129.024 62.2735 128.557C62.3752 128.525 62.4639 128.461 62.5262 128.375C62.5885 128.288 62.621 128.184 62.6189 128.077C62.6169 127.971 62.5803 127.867 62.5147 127.783C62.4491 127.699 62.358 127.639 62.2551 127.611Z" fill="#191919"/>
<path d="M34.7442 80.1036C38.4555 70.1825 45.9535 62.1406 55.5907 57.7447C55.7439 60.9048 57.1222 66.9111 58.7378 69.5911C59.3902 70.6707 61.2203 68.3575 61.584 67.9601C67.0971 61.9339 73.6164 57.0479 77.262 55.1673C91.5456 58.0005 100.823 74.0361 105.08 82.3716C105.424 83.0439 106.535 82.6143 106.187 81.9367C100.57 70.941 92.9852 59.3688 80.9183 54.9499C76.9013 53.4782 76.7451 54.031 73.9273 55.8902C69.0612 59.1 63.1514 64.0611 59.5181 68.686C57.721 65.7564 56.8312 60.0947 56.5946 57.3894C56.5326 56.6735 56.283 56.0977 55.3159 56.4752C45.6679 60.2409 37.2932 69.9563 33.8682 79.7843C33.8455 79.8422 33.8345 79.904 33.8361 79.9662C33.8376 80.0284 33.8516 80.0897 33.8771 80.1464C33.9027 80.2031 33.9394 80.2541 33.9849 80.2964C34.0305 80.3387 34.0841 80.3715 34.1426 80.3928C34.201 80.4141 34.2631 80.4235 34.3252 80.4205C34.3874 80.4174 34.4483 80.4019 34.5043 80.375C34.5604 80.348 34.6105 80.3101 34.6517 80.2635C34.6929 80.2169 34.7243 80.1625 34.7442 80.1036Z" fill="#191919"/>
<path d="M146.466 112.163C103.341 116.248 87.9076 114.202 65.0319 116.136C63.9063 116.231 62.9935 116.136 63.3473 117.53C65.4461 125.743 67.4056 132.746 70.7158 140.698C73.431 147.221 73.5688 148.479 80.9503 148.374C97.518 148.138 113.799 147.641 130.325 146.941C134.95 146.745 139.474 146.814 141.75 142.156C144.368 136.796 147.02 119.951 147.596 113.27C147.581 112.977 147.457 112.7 147.248 112.495C147.038 112.29 146.759 112.172 146.466 112.163ZM133.423 114.933C133.104 116.442 132.393 127.157 132.275 128.845L120.121 129.184C119.827 124.905 119.795 120.025 119.238 115.854L133.423 114.933ZM117.842 115.928C117.803 118.347 118.391 126.323 118.59 129.226L105.861 129.585C105.305 125.363 105.112 120.559 104.377 116.498C116.056 116.088 117.842 115.854 117.842 115.931V115.928ZM102.906 116.568C102.861 119.261 103.84 126.624 104.243 129.662C98.4298 129.837 92.6152 130.024 86.7988 130.225C86.0377 125.977 85.4305 120.994 84.4006 116.875L102.906 116.568ZM141.004 139.596C139.166 145.352 136.142 145.109 130.602 145.352C113.838 146.097 97.1229 146.551 80.3324 146.792C74.9532 146.868 74.9057 146.421 72.7204 141.31C69.2502 133.194 67.3221 126.048 64.9361 117.726C70.9196 117.331 76.9098 117.045 82.9036 116.869C83.0384 118.852 84.7207 127.634 85.1939 130.256C80.2167 130.423 75.2159 130.51 70.2517 130.896C69.3237 130.968 69.5159 132.307 70.411 132.304C75.4264 132.285 80.4541 131.971 85.4688 131.798C86.1464 135.56 87.1174 141.397 88.027 144.911C88.2162 145.641 89.4857 145.519 89.3831 144.725C88.9344 141.234 87.7651 135.47 87.0806 131.74L104.454 131.184C105.093 135.835 105.799 140.489 106.756 145.077C106.956 146.036 108.341 145.596 108.189 144.668C107.458 140.192 106.692 135.661 106.072 131.139C110.281 131.012 114.49 130.892 118.698 130.781C119.005 135.259 119.318 139.703 119.799 144.15C119.897 145.058 121.299 145.045 121.238 144.111C120.947 139.635 120.567 135.194 120.243 130.736L132.188 130.41C132.06 132.329 131.338 142.403 131.517 143.963C131.546 144.105 131.62 144.233 131.729 144.329C131.837 144.425 131.974 144.483 132.118 144.495C132.262 144.506 132.406 144.471 132.528 144.393C132.651 144.316 132.745 144.201 132.796 144.066C133.068 142.891 133.589 132.648 133.742 130.377C136.557 130.32 139.365 130.246 142.173 130.102C143.145 130.053 142.947 128.618 142.007 128.618C139.289 128.618 136.57 128.695 133.851 128.778C134.193 124.121 134.528 119.465 134.856 114.808C138.596 114.522 142.333 114.2 146.069 113.842C144.521 122.931 143.83 130.755 141.003 139.582L141.004 139.596Z" fill="#191919"/>
<path d="M86.7103 84.1718C87.0932 84.5218 87.7548 83.9797 87.4071 83.5325C86.3275 82.1427 85.1644 80.818 84.0487 79.4512C83.1237 78.3172 82.1949 79.0684 83.064 80.161C84.1736 81.5905 85.3927 82.9315 86.7103 84.1718Z" fill="#191919"/>
<path d="M40.5074 30.5006C36.2025 32.0811 38.5885 39.6417 44.0833 37.3921C41.6904 41.5376 46.6415 45.5415 50.8216 43.5331C52.1011 46.5331 55.6318 52.7316 59.3738 52.1236C59.1755 55.0272 58.7398 55.4928 58.0943 57.7715C58.0055 58.0855 58.324 58.7509 58.8685 58.136C59.6694 57.2294 60.7873 52.9039 60.5699 51.7913C62.6809 51.0042 65.0577 49.1113 65.9046 46.9489C66.0922 46.4696 65.6381 46.1962 65.2652 46.6227C63.9934 48.0776 63.6848 48.8617 61.6955 50.0194C59.7061 51.1772 58.2628 51.5463 56.6173 50.0194C52.1845 45.906 50.4793 40.8515 49.9839 35.1156C49.9762 35.0124 49.9284 34.9163 49.8506 34.848C49.7729 34.7797 49.6714 34.7446 49.5681 34.7503C49.5168 34.7536 49.4667 34.767 49.4207 34.7897C49.3746 34.8124 49.3334 34.844 49.2996 34.8826C49.2657 34.9212 49.2398 34.9662 49.2234 35.0148C49.2069 35.0635 49.2002 35.1149 49.2036 35.1661C49.1553 36.0002 49.1745 36.8368 49.261 37.6677C45.3077 34.111 43.5044 25.7333 51.9349 22.2263C60.5546 18.6321 67.8334 22.6184 68.0057 31.9555C67.3097 32.0416 66.6587 32.3452 66.1453 32.823C65.6319 33.3008 65.2824 33.9283 65.1465 34.6163C65.047 35.134 65.8441 35.2565 66.0164 34.7955C66.4758 33.5704 68.7278 31.2395 69.5984 35.1669C70.5065 39.2604 67.6887 40.0721 67.8273 41.275C68.1336 43.9596 69.3258 51.678 71.2041 55.2707C71.371 55.59 72.064 55.3917 71.9591 55.041C70.8516 51.3829 69.9713 47.6598 69.3235 43.893C71.345 45.4726 76.3022 44.8463 75.2019 39.3132C78.8352 41.6349 82.7182 35.1745 78.7778 33.3774C82.7756 32.8269 83.8055 25.9829 77.9906 25.4393C83.6837 23.136 80.2939 15.2553 74.6582 17.0723C78.1698 12.7077 70.8848 6.19915 66.8993 11.8019C67.9804 5.92119 57.5928 3.44105 57.03 10.4711C54.9319 3.93034 44.0833 6.95338 47.1921 13.6695C41.78 8.9986 36.9575 17.5072 41.3581 20.5134C35.9575 19.1964 34.3219 30.1025 40.5074 30.5006Z" fill="#191919"/>
</svg>
