<svg width="155" height="154" viewBox="0 0 155 154" fill="none" xmlns="http://www.w3.org/2000/svg">
<path d="M79.5884 70.8533C80.1467 74.847 80.3404 78.8832 80.1673 82.912C92.2911 81.1903 104.175 78.0732 115.583 73.6228C116.583 73.3632 117.44 72.7203 117.969 71.8332C120.761 65.4232 86.6716 69.5828 79.5884 70.8533Z" fill="#FFE55D"/>
<path d="M78.4402 100.032C79.7437 90.1411 81.0855 79.9258 79.4623 70.0447C78.1903 62.2936 74.5283 54.6154 68.2171 49.9397C60.7283 44.3908 50.2806 43.9077 41.4668 46.9586C26.4209 52.1679 24.6298 66.7216 26.3028 82.6538C27.7 95.9341 30.7627 108.986 35.4187 121.501C38.6758 130.268 45.9822 143.398 56.972 143.14C64.1281 142.971 68.1067 134.015 70.5174 128.401C74.4488 119.354 77.1148 109.808 78.4402 100.032Z" fill="white"/>
<path d="M118.172 70.133C114.837 65.5915 85.4732 69.4353 79.9112 70.4075C78.6583 62.362 74.869 54.4039 68.4475 49.6286C57.8809 41.8246 41.349 43.7308 32.8527 51.6222C24.5227 59.7727 24.9076 73.2583 25.9213 82.6893C27.2926 96.007 30.3631 109.094 35.0579 121.632C36.9632 126.798 44.1162 143.526 56.6518 143.526C64.0433 143.526 68.0166 135.275 70.8681 128.553C74.8203 119.476 77.4961 109.896 78.8193 100.085C79.6305 94.2036 80.3275 88.6423 80.5399 83.2459C92.5669 81.514 104.356 78.41 115.676 73.9944C117.463 73.5481 119.28 71.642 118.172 70.133ZM78.0595 99.9848C76.7383 109.725 74.0808 119.237 70.1619 128.251C68.0365 133.261 64.0809 142.589 56.9608 142.756C44.7212 143.043 37.6533 126.457 35.7755 121.363C31.1038 108.887 28.0483 95.8646 26.6834 82.6126C25.6867 73.3349 25.2972 60.0878 33.3787 52.1803C41.6596 44.4937 57.7766 42.7056 67.9874 50.2481C73.653 54.4584 77.6968 61.6972 79.0838 70.1069C80.638 79.5978 79.5393 89.2511 78.0595 99.9848ZM117.64 71.6366C117.152 72.4486 116.362 73.0343 115.443 73.2659C104.205 77.6494 92.5043 80.7364 80.5667 82.4669C80.7076 78.6914 80.5247 74.9108 80.02 71.1666C85.089 70.2795 114.548 66.4948 117.553 70.5869C117.664 70.7363 117.731 70.9138 117.747 71.0994C117.762 71.2849 117.725 71.471 117.64 71.6366Z" fill="#4B1010"/>
<path d="M41.3819 59.9069C45.7332 56.5087 52.4576 55.1623 57.3978 54.966C64.9817 54.6647 75.0008 58.8856 75.2001 67.661C75.3474 74.0511 68.3048 77.3083 63.1024 78.736C56.8051 80.4642 49.0341 80.0348 43.2528 76.691C37.1096 73.1341 35.2579 64.6907 41.3819 59.9069Z" fill="#FFE55D"/>
<path d="M37.5483 95.6869C35.6107 99.2247 23.388 115.15 14.7168 122.867C12.9533 124.433 11.2128 126.333 9.00915 127.297C6.35466 128.458 4.00841 127.644 4.83497 124.485C6.59235 117.769 10.4169 111.766 14.1211 105.999C17.9134 100.095 21.5693 95.121 26.4734 88.1942C31.1069 81.6462 41.573 88.3392 37.5483 95.6869Z" fill="#FFE55D"/>
<path d="M4.46452 124.382C6.17054 117.645 10.0204 111.667 13.7966 105.791C17.5407 99.9633 20.9918 95.188 26.162 87.9675C31.0262 81.0169 42.1318 88.084 37.8848 95.8711C38.3863 95.8711 29.4828 107.704 24.3739 113.407C21.0391 117.293 17.45 120.953 13.6302 124.364C12.3418 125.709 10.8289 126.82 9.15932 127.646C6.08543 129.035 3.55976 127.731 4.46452 124.382ZM26.7876 88.4107C22.9079 93.8285 17.4985 101.379 13.8741 107.102C10.4007 112.585 6.80694 118.253 5.2098 124.576C4.45685 127.362 6.44657 128.032 8.85416 126.944C10.4428 126.147 11.8827 125.084 13.1111 123.8C16.9171 120.414 20.4879 116.773 23.7989 112.901C26.7179 109.643 35.1928 99.1766 37.217 95.5023C40.9886 88.5786 31.1236 82.2169 26.7876 88.4107Z" fill="#4B1010"/>
<path d="M75.5834 67.6516C75.4163 59.0839 65.8457 54.1959 57.3816 54.5823C52.4084 54.7541 45.5307 56.1634 41.1426 59.6046C34.8552 64.4956 36.6142 73.2604 43.0595 77.022C48.7932 80.3106 56.5696 80.8964 63.2027 79.103C67.9106 77.7934 75.7705 74.5615 75.5834 67.6516ZM41.6164 60.2088C41.6931 60.2088 46.7184 55.7171 57.4115 55.3483C65.0222 55.0041 74.099 59.1882 74.776 66.9163L70.8871 67.5764C70.6486 67.1731 70.1288 66.3711 70.0053 66.1242C69.9683 66.0503 69.9083 65.9903 69.8343 65.9532C69.7604 65.9162 69.6764 65.904 69.595 65.9186C69.5136 65.9332 69.439 65.9737 69.3825 66.0341C69.326 66.0945 69.2906 66.1716 69.2815 66.2538L69.0752 68.1055L66.9284 64.1544C66.8866 64.0781 66.8202 64.0182 66.7399 63.9846C66.6596 63.951 66.5703 63.9457 66.4866 63.9696C66.4029 63.9935 66.3298 64.0452 66.2794 64.1161C66.229 64.1871 66.2042 64.273 66.2091 64.3599C66.3341 66.4302 66.4438 68.8423 66.3533 71.414C65.5774 70.2038 64.7326 69.0393 63.823 67.9261C63.779 67.8718 63.721 67.8306 63.6552 67.8069C63.5894 67.7832 63.5185 67.778 63.4499 67.7917C63.3814 67.8055 63.3179 67.8377 63.2664 67.8849C63.2149 67.9321 63.1772 67.9924 63.1575 68.0595L62.8055 69.2556C55.6242 69.8353 56.4515 69.8223 55.9224 69.6842C55.4279 69.3522 55.5927 68.1262 54.9364 67.4706C54.8827 67.4171 54.8144 67.3807 54.7401 67.366C54.6658 67.3513 54.5888 67.359 54.5188 67.388C54.4488 67.4171 54.389 67.4662 54.3469 67.5292C54.3048 67.5922 54.2824 67.6663 54.2824 67.7421C54.2661 69.2546 54.0757 70.7601 53.715 72.2291C52.694 69.9794 51.7966 67.6758 51.0267 65.3283C51.0001 65.2453 50.946 65.1739 50.8732 65.1257C50.8005 65.0776 50.7136 65.0558 50.6268 65.0637C50.5399 65.0717 50.4584 65.109 50.3956 65.1695C50.3329 65.23 50.2926 65.3101 50.2815 65.3966C49.9748 67.762 49.6681 69.6436 49.0761 73.1032C48.5064 71.4777 47.9559 69.6037 47.351 68.1914C47.319 68.1164 47.264 68.0536 47.1939 68.012C47.1239 67.9704 47.0424 67.9523 46.9613 67.9601C46.8802 67.968 46.8037 68.0015 46.7429 68.0557C46.6822 68.11 46.6403 68.1822 46.6233 68.2619L46.1763 70.3475L38.518 70.428C37.8568 68.619 37.8015 66.6441 38.3603 64.8008C38.9192 62.9576 40.062 61.346 41.6164 60.2088ZM63.0087 78.3638C56.2759 80.1833 48.7817 79.4143 43.4528 76.358C41.4028 75.1675 39.7824 73.3584 38.8239 71.1901L46.5006 71.1135C46.5881 71.1122 46.6725 71.0812 46.7399 71.0254C46.8072 70.9696 46.8535 70.8925 46.871 70.8068L47.1148 69.6704C47.6937 71.2752 48.2595 73.2182 48.8676 74.7049C48.8987 74.7821 48.9542 74.847 49.0255 74.8899C49.0968 74.9328 49.1802 74.9514 49.263 74.9427C49.3458 74.934 49.4235 74.8987 49.4844 74.8419C49.5453 74.7852 49.5861 74.7102 49.6006 74.6282C50.2025 71.1472 50.5445 69.1329 50.832 67.1141C51.6116 69.2936 52.4938 71.4349 53.4757 73.531C53.5089 73.6016 53.5629 73.6603 53.6304 73.6994C53.6978 73.7385 53.7756 73.7561 53.8533 73.7499C53.9311 73.7436 54.005 73.7139 54.0654 73.6645C54.1258 73.6151 54.1696 73.5485 54.1911 73.4735C54.5576 72.2084 54.8137 70.9126 54.9579 69.603C55.0713 69.9304 55.2983 70.2064 55.5973 70.3812C56.0827 70.6549 56.5006 70.5346 63.1406 70.0024C63.2179 69.9963 63.2916 69.9668 63.3518 69.918C63.412 69.8691 63.456 69.8031 63.478 69.7287L63.6957 68.9865C66.479 72.5365 66.2091 73.1906 66.7765 73.0602C66.8568 73.0412 66.9287 72.9969 66.9818 72.9338C67.0348 72.8707 67.0661 72.7921 67.071 72.7098C67.1936 70.4809 67.1959 68.2473 67.0786 66.0184L68.9955 69.5455C69.0345 69.6171 69.0953 69.6744 69.1691 69.7091C69.2428 69.7438 69.3258 69.7541 69.4058 69.7384C69.4858 69.7228 69.5588 69.682 69.614 69.6221C69.6693 69.5622 69.704 69.4862 69.7132 69.4051L69.9286 67.463C70.1096 67.752 70.2798 68.0258 70.3527 68.1714C70.3894 68.2448 70.4487 68.3044 70.5219 68.3415C70.595 68.3786 70.6781 68.3913 70.759 68.3777L74.8274 67.6876C74.9762 74.0685 67.485 77.1156 63.0087 78.3638Z" fill="#4B1010"/>
<path d="M61.2129 38.1042C56.3939 42.8696 56.5633 43.7851 55.8104 43.5972C51.9176 42.6235 50.4431 42.9562 43.5493 43.585C39.7194 43.9346 35.8281 44.2888 31.9668 44.8401C33.7495 46.941 33.9496 50.0356 35.9079 52.0782C37.7964 54.0572 40.822 54.3524 43.2242 54.4958C46.3909 54.7488 49.5752 54.3647 52.59 53.3656C57.1392 51.8068 59.9508 49.5319 61.0841 46.9088C61.4551 45.8303 61.6066 44.6884 61.5296 43.5505C61.5203 41.7307 61.4146 39.9128 61.2129 38.1042Z" fill="#4B1010"/>
<path d="M39.0038 30.5728C37.8038 30.6714 36.6708 31.1667 35.7835 31.9805C32.0502 34.9471 27.4305 38.5132 23.4005 42.8837C21.4353 45.0145 20.5482 45.7935 20.1257 49.3819C19.2356 56.8604 18.8355 64.389 18.928 71.9197C18.1533 73.201 17.4963 74.5499 16.9652 75.9498C16.0451 79.029 19.0553 79.6608 20.0321 78.8105C20.9875 77.9747 20.5888 75.9735 20.0981 73.9961C19.9242 73.309 19.7903 72.6124 19.6971 71.9098C19.6051 64.4133 20.0038 56.9183 20.8909 49.4739C20.9646 48.1101 21.387 46.788 22.1177 45.634C29.0821 43.7486 36.3677 43.0846 43.4448 42.4398C49.1326 41.9222 51.3423 41.3663 55.7335 42.3953C59.5459 37.7699 63.9548 33.6704 68.8449 30.204C57.7669 29.4227 49.7268 29.0217 39.0038 30.5728Z" fill="#4B1010"/>
<path d="M125.314 73.44C125.241 73.3734 125.146 73.3371 125.048 73.3387C124.949 73.3402 124.855 73.3794 124.785 73.4483C124.715 73.5171 124.673 73.6103 124.67 73.7086C124.666 73.8069 124.7 73.9029 124.765 73.9767C128.495 77.8005 131.847 81.9748 134.776 86.4417C134.834 86.5217 134.921 86.5762 135.018 86.5939C135.115 86.6116 135.215 86.5912 135.297 86.5368C135.38 86.4824 135.438 86.3984 135.46 86.3021C135.482 86.2058 135.466 86.1048 135.415 86.02C132.454 81.516 129.072 77.3037 125.314 73.44Z" fill="#4B1010"/>
<path d="M140.623 71.8014C138.228 69.7705 135.559 68.0875 132.694 66.8022C132.648 66.78 132.598 66.7673 132.547 66.7647C132.496 66.7621 132.445 66.7697 132.397 66.787C132.349 66.8044 132.305 66.8312 132.268 66.8659C132.23 66.9005 132.2 66.9423 132.179 66.9888C132.158 67.0353 132.146 67.0855 132.145 67.1366C132.143 67.1876 132.152 67.2384 132.17 67.286C132.189 67.3337 132.217 67.3771 132.252 67.4139C132.288 67.4506 132.33 67.4799 132.377 67.5C135.175 68.7558 137.782 70.3998 140.121 72.3834C140.199 72.4483 140.298 72.4801 140.399 72.4718C140.5 72.4635 140.593 72.4159 140.659 72.3393C140.724 72.2627 140.757 72.1632 140.75 72.0625C140.743 71.9618 140.696 71.868 140.62 71.8014H140.623Z" fill="#4B1010"/>
<path d="M94.4566 59.989L84.5747 64.8448C84.4835 64.8899 84.4138 64.9692 84.3808 65.0654C84.3477 65.1616 84.3541 65.267 84.3984 65.3585C84.4433 65.4501 84.5227 65.5201 84.6191 65.5531C84.7156 65.5862 84.8212 65.5796 84.9128 65.5349L94.7947 60.6791C94.8858 60.6339 94.9553 60.5546 94.9882 60.4583C95.0211 60.3621 95.0146 60.2568 94.9703 60.1654C94.9484 60.1198 94.9176 60.0791 94.8799 60.0456C94.8421 60.012 94.798 59.9863 94.7503 59.9699C94.7025 59.9535 94.6519 59.9467 94.6015 59.95C94.5511 59.9533 94.5018 59.9666 94.4566 59.989Z" fill="#4B1010"/>
<path d="M90.9632 50.919C91.0594 50.9182 91.1519 50.8812 91.2221 50.8154C91.2924 50.7496 91.3353 50.6598 91.3424 50.5637C91.3494 50.4677 91.3201 50.3726 91.2602 50.2972C91.2003 50.2218 91.1143 50.1717 91.0192 50.1569L78.9214 48.3673C78.8715 48.3598 78.8207 48.3622 78.7718 48.3745C78.7228 48.3867 78.6768 48.4085 78.6364 48.4385C78.5959 48.4686 78.5618 48.5064 78.5359 48.5497C78.5101 48.593 78.4931 48.641 78.4859 48.6909C78.4714 48.7915 78.4973 48.8937 78.5579 48.9753C78.6185 49.0569 78.7089 49.1112 78.8094 49.1264L90.9632 50.919Z" fill="#4B1010"/>
<path d="M86.1291 25.6234C92.9532 30.8764 92.8044 30.8143 93.0069 30.8143C93.0875 30.8148 93.1662 30.7899 93.2319 30.7431C93.2976 30.6964 93.3469 30.6302 93.3729 30.5538C93.3988 30.4775 93.4001 30.3949 93.3765 30.3178C93.353 30.2407 93.3057 30.173 93.2415 30.1242L86.5961 25.0131C86.5563 24.9801 86.5103 24.9553 86.4607 24.9403C86.4112 24.9253 86.3592 24.9203 86.3078 24.9257C86.2563 24.931 86.2065 24.9468 86.1614 24.9721C86.1163 24.9974 86.0769 25.0317 86.0456 25.0729C85.9985 25.1348 85.9713 25.2095 85.9673 25.2872C85.9633 25.3649 85.9829 25.442 86.0233 25.5084C86.0508 25.5524 86.0868 25.5904 86.1291 25.6203V25.6234Z" fill="#4B1010"/>
<path d="M109.491 10.559C109.485 10.4574 109.438 10.3625 109.362 10.2949C109.286 10.2274 109.186 10.1928 109.085 10.1986C109.034 10.2016 108.985 10.2144 108.94 10.2364C108.894 10.2584 108.854 10.2891 108.82 10.3267C108.787 10.3644 108.761 10.4083 108.745 10.4559C108.728 10.5035 108.721 10.5539 108.724 10.6043L109.406 22.1055C109.412 22.2069 109.458 22.3018 109.534 22.3693C109.61 22.4368 109.71 22.4715 109.812 22.4659C109.862 22.463 109.911 22.4503 109.957 22.4283C110.002 22.4064 110.043 22.3757 110.076 22.338C110.11 22.3003 110.136 22.2564 110.152 22.2087C110.169 22.1611 110.176 22.1106 110.173 22.0602L109.491 10.559Z" fill="#4B1010"/>
<path d="M129.862 28.1881C132.771 24.3145 135.919 20.6269 139.288 17.1469C139.354 17.0723 139.388 16.9752 139.384 16.876C139.38 16.7767 139.337 16.6828 139.266 16.614C139.194 16.5455 139.098 16.5077 138.998 16.5086C138.899 16.5094 138.804 16.5489 138.733 16.6186C135.342 20.1208 132.173 23.832 129.246 27.7303C129.216 27.7707 129.194 27.8167 129.182 27.8656C129.169 27.9145 129.167 27.9654 129.174 28.0153C129.181 28.0651 129.199 28.1131 129.225 28.1563C129.251 28.1995 129.285 28.2371 129.326 28.267C129.366 28.2972 129.412 28.3191 129.461 28.3315C129.51 28.3439 129.56 28.3465 129.61 28.3391C129.66 28.3318 129.708 28.3147 129.751 28.2887C129.795 28.2628 129.832 28.2286 129.862 28.1881Z" fill="#4B1010"/>
<path d="M146.914 46.4895C143.453 46.6774 140.023 47.2535 136.691 48.207C136.593 48.2346 136.51 48.2999 136.46 48.3886C136.41 48.4773 136.398 48.5822 136.425 48.6801C136.453 48.778 136.518 48.861 136.607 48.9107C136.696 48.9605 136.801 48.973 136.899 48.9454C140.176 48.0083 143.548 47.4425 146.952 47.2585C147.028 47.255 147.101 47.2289 147.162 47.1837C147.223 47.1384 147.27 47.0761 147.295 47.0045C147.321 46.933 147.324 46.8554 147.306 46.7817C147.287 46.708 147.247 46.6416 147.191 46.5907C147.115 46.5224 147.016 46.4868 146.914 46.4918V46.4895Z" fill="#4B1010"/>
<path d="M147.442 51.2734C147.178 52.1169 146.691 53.4157 145.851 53.7217C145.209 53.9785 144.607 53.8827 142.961 53.8037C143.951 54.0521 145.602 54.6295 145.851 55.785C145.959 56.3921 145.959 57.0135 145.851 57.6206C146.164 56.9306 146.674 56.348 147.316 55.9448C147.957 55.5416 148.703 55.3357 149.461 55.3525C148.658 55.0713 147.998 54.4869 147.62 53.7245C147.243 52.9621 147.179 52.0823 147.442 51.2734Z" fill="white"/>
<path d="M145.485 57.502C145.574 56.9581 145.57 56.403 145.474 55.8604C145.257 54.8743 143.58 54.3545 142.867 54.1735C142.798 54.1572 142.734 54.1216 142.684 54.0708C142.633 54.02 142.598 53.9561 142.582 53.8863C142.566 53.8165 142.57 53.7437 142.594 53.6761C142.618 53.6086 142.66 53.549 142.715 53.5042C142.789 53.4438 142.883 53.4132 142.978 53.4183C145.892 53.5295 146.169 53.8584 147.137 50.9563C147.17 50.8633 147.238 50.7869 147.327 50.7431C147.416 50.6993 147.518 50.6914 147.612 50.7211C147.706 50.7507 147.786 50.8157 147.833 50.9024C147.881 50.9891 147.893 51.0908 147.867 51.1863C147.279 53.1323 148.304 54.6021 149.526 54.9664C149.792 54.9786 150.056 55.0154 150.314 55.0783C150.405 55.1003 150.485 55.155 150.539 55.232C150.592 55.309 150.616 55.403 150.605 55.4961C150.593 55.5893 150.549 55.6751 150.479 55.7374C150.408 55.7997 150.318 55.8342 150.224 55.8343C149.948 55.8343 149.673 55.7998 149.406 55.73C148.74 55.7248 148.085 55.9103 147.521 56.2648C146.956 56.6193 146.505 57.1278 146.22 57.7305C146.163 58.0438 146.075 58.3507 145.958 58.6467C145.794 59.0639 144.77 59.1091 145.485 57.502ZM145.113 54.2632C145.394 54.4095 145.64 54.6158 145.832 54.8675C146.025 55.1193 146.16 55.4104 146.227 55.7201C146.263 55.9079 146.288 56.0981 146.304 56.289C146.828 55.7407 147.488 55.3406 148.217 55.1289C147.623 54.6209 147.208 53.9355 147.033 53.1737C146.836 53.5075 146.556 53.7839 146.219 53.9751C145.882 54.1663 145.5 54.2657 145.113 54.2632Z" fill="#FFB43B"/>
<path d="M113.309 84.3514C112.872 84.433 112.423 84.426 111.988 84.3309C111.554 84.2357 111.143 84.0542 110.78 83.7973C110.417 83.5403 110.11 83.2131 109.876 82.8351C109.642 82.457 109.486 82.0358 109.418 81.5964C109.571 82.4483 109.69 83.8836 109.144 84.5101C108.845 84.9088 108.358 85.0729 106.585 85.9132C107.576 85.7476 109.308 85.5007 110.052 86.4085C110.496 87.0348 110.805 87.7459 110.961 88.4972C110.845 87.6445 111.012 86.7772 111.436 86.0284C111.86 85.2795 112.518 84.6904 113.309 84.3514Z" fill="white"/>
<path d="M110.661 89.0822C110.573 88.2023 110.258 87.3603 109.747 86.6385C109.108 85.8787 107.386 86.1662 106.649 86.2889C106.58 86.3014 106.51 86.295 106.445 86.2704C106.38 86.2459 106.322 86.204 106.279 86.1493C106.236 86.0947 106.209 86.0293 106.2 85.9603C106.192 85.8912 106.202 85.8212 106.23 85.7575C106.267 85.6724 106.334 85.6037 106.419 85.5643C108.268 84.6864 108.625 84.5576 108.835 84.2777C109.334 83.705 109.136 82.2658 109.011 81.5174C108.996 81.4191 109.021 81.3189 109.079 81.2382C109.137 81.1574 109.224 81.1025 109.322 81.085C109.419 81.0678 109.52 81.0887 109.602 81.1435C109.685 81.1983 109.743 81.2828 109.765 81.3794C110.112 83.0931 111.481 84.3598 113.189 83.9864C113.374 83.9127 113.563 83.8522 113.756 83.8062C113.85 83.7836 113.949 83.7971 114.033 83.8442C114.116 83.8913 114.179 83.9684 114.209 84.06C114.239 84.1513 114.233 84.2505 114.194 84.338C114.154 84.4254 114.083 84.4948 113.994 84.5323C113.809 84.6099 113.617 84.6724 113.421 84.7194C112.659 85.0514 112.039 85.6428 111.671 86.3888C111.303 87.1347 111.212 87.9868 111.413 88.7939C111.602 89.5622 110.709 89.6059 110.661 89.0822ZM108.591 85.3803C108.926 85.3841 109.257 85.4578 109.562 85.5965C109.868 85.7352 110.141 85.9361 110.364 86.1862C110.491 86.3671 110.608 86.555 110.715 86.7482C110.934 85.9814 111.363 85.2914 111.953 84.7546C111.138 84.5808 110.412 84.1242 109.901 83.4657C109.897 83.8785 109.771 84.2808 109.538 84.6217C109.305 84.9625 108.976 85.2265 108.593 85.3803H108.591Z" fill="#FFB43B"/>
<path d="M90.9236 35.6647C89.0236 36.4452 87.1573 35.4216 86.4941 33.4312C86.741 34.1741 87.1543 35.7421 86.659 36.4851C86.3944 36.7765 86.0885 37.0264 85.7511 37.2281C82.1244 39.6464 86.0663 36.7036 87.7316 38.2187C88.3134 38.9299 88.812 39.7053 89.2176 40.5297C88.8432 39.6522 88.8107 38.6664 89.1264 37.7661C89.4421 36.8658 90.0832 36.1162 90.9236 35.6647Z" fill="white"/>
<path d="M89.3001 41.0781C89.1855 41.0654 89.0783 41.0152 88.9951 40.9354C88.9119 40.8555 88.8574 40.7505 88.8401 40.6365C88.4675 39.8682 88.0041 39.1475 87.4599 38.4896C86.9124 38.0096 85.8819 38.0395 84.3975 38.58C84.3094 38.612 84.2126 38.6106 84.1255 38.5761C84.0383 38.5416 83.9668 38.4763 83.9246 38.3927C83.8823 38.309 83.8721 38.2128 83.8959 38.1221C83.9198 38.0315 83.976 37.9527 84.054 37.9007C85.9939 36.6064 85.8313 36.7721 86.3888 36.2139C86.7783 35.6074 86.1311 33.4536 86.1311 33.5525C86.1058 33.4579 86.1175 33.3572 86.1639 33.2709C86.2103 33.1847 86.2879 33.1195 86.3808 33.0885C86.4737 33.0576 86.5749 33.0633 86.6638 33.1045C86.7526 33.1457 86.8224 33.2193 86.8588 33.3102C87.4545 35.0982 89.0823 35.9938 90.7608 35.3175C90.8819 35.2531 91.0069 35.1949 91.1349 35.1412C91.2254 35.104 91.3267 35.1029 91.418 35.138C91.5093 35.1731 91.5838 35.2418 91.6261 35.33C91.6684 35.4181 91.6754 35.5192 91.6457 35.6124C91.616 35.7056 91.5517 35.7839 91.4662 35.8313C91.3441 35.8976 91.2187 35.9578 91.0905 36.0114C90.3141 36.4318 89.7302 37.1359 89.4607 37.9766C89.1912 38.8173 89.257 39.7296 89.6444 40.523C89.6735 40.5816 89.6872 40.6466 89.6841 40.712C89.681 40.7773 89.6613 40.8408 89.6268 40.8964C89.5924 40.952 89.5442 40.9979 89.4871 41.0297C89.4299 41.0615 89.3655 41.0782 89.3001 41.0781ZM87.9897 37.9344C88.1891 38.1568 88.3746 38.3922 88.5464 38.6368C88.626 37.7765 88.969 36.9618 89.5286 36.3036C88.6874 36.2789 87.8846 35.946 87.2728 35.3681C87.312 35.8308 87.2091 36.2944 86.9776 36.6969C86.7476 36.9484 86.4961 37.1792 86.2262 37.387C86.8634 37.3299 87.4972 37.527 87.9897 37.9352V37.9344Z" fill="#FFB43B"/>
<path d="M102.036 29.3235L121.886 34.7758V67.102C121.886 67.102 105.87 61.0148 101.953 59.2267C102.123 49.259 101.612 39.3756 102.036 29.3235Z" fill="#FFB43B"/>
<path d="M108.907 41.5981C108.793 41.1504 108.57 40.7382 108.257 40.3988C107.943 40.0594 107.55 39.8035 107.113 39.6544C106.697 39.558 106.26 39.6116 105.879 39.8057C105.499 39.9998 105.199 40.322 105.032 40.7156C104.992 40.807 104.917 40.8788 104.824 40.9158C104.731 40.9528 104.627 40.952 104.535 40.9135C104.443 40.8751 104.369 40.8021 104.33 40.7101C104.29 40.6181 104.289 40.5144 104.325 40.4211C104.565 39.8544 104.999 39.3918 105.549 39.1165C106.099 38.8411 106.73 38.7711 107.327 38.9191C107.892 39.1071 108.401 39.4339 108.807 39.8695C109.213 40.3052 109.503 40.8357 109.651 41.4125C109.668 41.5084 109.648 41.6073 109.595 41.689C109.542 41.7708 109.46 41.8294 109.365 41.853C109.271 41.8766 109.171 41.8634 109.086 41.816C109.001 41.7687 108.937 41.6908 108.907 41.5981Z" fill="#4B1010"/>
<path d="M117.543 44.9557C117.441 44.9555 117.344 44.915 117.272 44.8432C117.2 44.7713 117.159 44.6739 117.159 44.5723C117.162 44.1071 117.031 43.651 116.781 43.2584C116.532 42.8657 116.174 42.5532 115.752 42.3579C115.559 42.2831 115.353 42.2473 115.146 42.2527C114.939 42.2581 114.735 42.3045 114.546 42.3893C114.358 42.4741 114.187 42.5956 114.046 42.7467C113.904 42.8979 113.794 43.0756 113.722 43.2696C113.681 43.361 113.606 43.4328 113.513 43.4698C113.42 43.5068 113.317 43.506 113.224 43.4676C113.132 43.4292 113.058 43.3562 113.019 43.2642C112.98 43.1722 112.978 43.0685 113.014 42.9752C113.182 42.5396 113.477 42.1646 113.861 41.8991C114.245 41.6335 114.7 41.4896 115.167 41.4861C115.477 41.4838 115.784 41.5429 116.071 41.661C116.625 41.919 117.094 42.33 117.422 42.8456C117.751 43.3609 117.926 43.9597 117.926 44.5708C117.926 44.6727 117.886 44.7705 117.814 44.843C117.779 44.8789 117.736 44.9074 117.69 44.9268C117.643 44.9461 117.593 44.956 117.543 44.9557Z" fill="#4B1010"/>
<path d="M108.14 44.6583C108.126 44.609 108.123 44.5574 108.13 44.5068C108.137 44.4561 108.155 44.4075 108.181 44.3637C108.207 44.3199 108.242 44.2819 108.284 44.2521C108.325 44.2222 108.373 44.201 108.423 44.1899C108.497 44.1726 108.575 44.1779 108.647 44.2052C108.719 44.2326 108.781 44.2806 108.825 44.3432C108.854 44.385 108.875 44.4322 108.886 44.482C108.986 44.9219 109.21 45.3237 109.533 45.6393C109.855 45.9549 110.262 46.1709 110.704 46.2616C111.145 46.3527 111.604 46.3151 112.024 46.1532C112.445 45.9914 112.811 45.712 113.077 45.3484C113.143 45.2702 113.236 45.2211 113.338 45.2119C113.439 45.2027 113.54 45.2342 113.618 45.2993C113.696 45.3645 113.745 45.4581 113.754 45.5595C113.764 45.6608 113.732 45.7617 113.667 45.8399C113.399 46.1936 113.059 46.486 112.669 46.6978C112.279 46.9095 111.849 47.0357 111.407 47.0678C110.964 47.0999 110.52 47.0373 110.104 46.8842C109.687 46.731 109.308 46.4908 108.992 46.1796C108.569 45.7638 108.273 45.2361 108.14 44.6583Z" fill="#4B1010"/>
<path d="M105.351 26.9685V29.7158C104.236 29.6928 103.126 29.5624 102.036 29.3232L121.886 34.7755C125.166 35.5247 127.631 33.0887 124.138 31.9547C120.646 30.8207 105.351 26.9685 105.351 26.9685Z" fill="white"/>
<path d="M124.258 31.5898C121.332 30.6436 107.264 27.0376 105.535 26.6243C105.249 26.5561 105.017 26.5959 104.977 26.9862C104.944 27.3006 104.967 27.9354 104.967 29.344C103.999 29.2925 103.037 29.1586 102.091 28.9437C102.001 28.9312 101.91 28.951 101.833 28.9996C101.757 29.0482 101.7 29.1224 101.673 29.209C101.333 30.3055 101.673 53.2082 101.569 59.2188C101.568 59.2934 101.588 59.3669 101.628 59.43C101.668 59.4931 101.725 59.5431 101.793 59.5738C105.679 61.3473 121.591 67.3992 121.752 67.4598C123.712 67.9505 126.218 67.2114 126.218 65.8098V33.4997C126.256 33.0251 126.042 32.1671 124.258 31.5898ZM107.224 27.8388C111.471 28.9192 121.332 31.4494 124.022 32.3197C127.115 33.3211 124.581 34.9934 121.981 34.403L106.085 30.0371C107.599 29.7833 107.863 28.7137 107.224 27.8388ZM105.734 27.5774C106.148 27.8128 106.934 28.4208 106.753 28.8632C106.667 29.038 106.37 29.2289 105.734 29.3079V27.5774ZM102.401 29.8201L121.504 35.0677V66.5451C118.777 65.5054 106.118 60.6649 102.341 58.9796C102.496 49.2449 102.015 39.6138 102.401 29.8201Z" fill="#4B1010"/>
</svg>
