<svg width="155" height="155" viewBox="0 0 155 155" fill="none" xmlns="http://www.w3.org/2000/svg">
<path d="M36.6259 59.83C36.6259 59.83 32.3181 52.6117 37.1817 50.8979C39.8374 49.956 44.7628 50.3034 48.6383 54.2484C50.5452 46.4588 60.3651 39.1479 65.553 43.1778C67.2668 44.5057 67.7223 47.4856 67.2669 49.8248C74.6858 44.7218 84.6988 46.1655 88.2269 50.5968C89.1069 51.7008 88.8985 55.6843 85.3936 57.3055C91.8862 55.7075 98.2784 61.6133 98.4251 65.512C98.4868 67.1177 97.4832 69.5573 93.4688 70.283C88.2269 71.1631 86.3277 76.6752 86.4126 80.8363C86.4126 80.8363 82.6066 72.159 78.9782 70.9778C77.0096 73.4945 74.2535 75.9572 64.8196 65.8131C60.3651 64.9638 63.7388 70.6072 60.3651 71.881C57.7557 72.8692 54.0964 67.7353 51.873 68.6C49.6496 69.4646 50.6996 81.8554 43.3809 76.405C40.9414 86.3021 38.3629 87.8925 34.6495 86.0165C33.8775 88.8883 36.9656 97.9826 38.5096 101.549C32.0402 95.6589 20.5218 91.2738 23.9032 83.7931C16.2526 86.3793 14.7626 83.6773 14.3458 81.3844C13.7204 77.9799 15.0251 74.4364 24.5131 70.8079C21.95 68.2449 22.0813 59.2201 36.6259 59.83Z" fill="#3D9CFB"/>
<path d="M57.2693 30.3318C53.9265 32.0225 56.6594 36.3535 60.1798 34.7168C63.5457 33.1497 59.9636 28.9654 57.2693 30.3318Z" fill="#3D9CFB"/>
<path d="M52.653 10.7536C50.4913 12.7222 49.4337 16.2889 50.6766 18.9755C52.0662 21.9632 56.7832 19.817 56.0807 18.1186C54.0657 13.4865 60.1723 12.5292 60.9598 15.9647C62.2722 21.7084 55.355 22.7275 56.2273 27.1279C56.8372 29.1428 61.2454 28.8032 61.477 27.2514C61.6391 26.1166 61.5928 25.4526 63.793 23.484C72.8101 15.2158 61.2608 2.86371 52.653 10.7536Z" fill="#3D9CFB"/>
<path d="M19.8195 21.2375C19.1633 20.2416 12.0222 23.8624 12.5395 24.9972C15.0176 30.4013 16.9013 36.145 21.9039 33.1728C24.5442 31.6056 22.9924 26.024 19.8195 21.2375Z" fill="#3D9CFB"/>
<path d="M19.688 37.8667C20.3288 41.7963 27.3618 38.9321 25.8641 35.4349C24.9068 33.1189 18.9778 35.6125 19.688 37.8667Z" fill="#3D9CFB"/>
<path d="M6.27868 23.2141C-1.89687 37.0099 14.462 52.1258 27.7482 42.1206C37.5836 42.3985 39.1816 41.3023 33.0596 34.8406C41.019 17.5322 15.6122 7.49606 6.27868 23.2141ZM34.0709 39.766C33.8085 40.1288 30.3962 39.9281 28.0338 39.9127C27.0457 39.9127 27.0611 40.1906 26.2196 40.6847C15.0255 47.5787 0.951832 36.8323 7.96938 24.2023C15.9983 9.73489 38.7184 20.3423 30.7822 35.0104C30.6689 35.2132 30.63 35.4491 30.6723 35.6775C30.7146 35.9059 30.8354 36.1123 31.0138 36.2611C34.2176 38.9013 34.4261 39.3182 34.0709 39.766Z" fill="#3D9CFB"/>
<path d="M134.246 132.051C129.838 132.916 129.915 133.217 128.016 128.963C127.966 128.841 127.891 128.729 127.796 128.637C127.702 128.545 127.588 128.473 127.464 128.426C127.34 128.38 127.208 128.36 127.076 128.367C126.943 128.375 126.814 128.409 126.696 128.469C125.383 129.133 126.827 130.785 127.12 131.604C125.576 131.395 124.287 133.688 125.646 133.92C126.418 134.028 127.236 133.503 128.332 133.534C128.597 133.849 128.926 134.103 129.298 134.279C129.67 134.455 130.075 134.548 130.486 134.553C130.71 135.989 130.432 137.409 131.806 137.641C131.964 137.639 132.118 137.599 132.257 137.526C132.396 137.452 132.516 137.346 132.606 137.217C132.695 137.088 132.753 136.939 132.774 136.783C132.795 136.627 132.778 136.469 132.725 136.321C132.549 135.7 132.453 135.059 132.44 134.414C133.049 134.321 133.891 134.167 134.617 134.028C134.746 134.003 134.87 133.954 134.981 133.882C135.091 133.809 135.186 133.716 135.261 133.607C135.336 133.498 135.388 133.376 135.415 133.247C135.442 133.117 135.444 132.984 135.419 132.854C135.395 132.724 135.345 132.601 135.273 132.49C135.201 132.38 135.108 132.284 134.999 132.21C134.89 132.135 134.767 132.083 134.638 132.056C134.509 132.028 134.376 132.027 134.246 132.051Z" fill="#3D9CFB"/>
<path d="M133.976 42.02C131.143 41.7267 127.283 41.9737 124.179 42.02C123.94 41.0627 124.604 34.1919 124.179 30.8722C123.955 29.0503 122.095 28.618 122.187 30.1774C122.527 35.5815 121.624 40.0282 122.303 43.1163C122.735 45.0926 125.862 43.8265 127.985 43.8883C130.089 44.0258 132.201 43.9975 134.3 43.8034C135.89 43.5717 134.763 42.0972 133.976 42.02Z" fill="#3D9CFB"/>
<path d="M144.761 109.447C144.367 109.339 143.047 108.636 142.229 108.25C143.001 107.1 144.614 104.336 143.333 103.695C143.212 103.645 143.082 103.621 142.952 103.624C142.821 103.627 142.693 103.657 142.575 103.712C142.456 103.767 142.351 103.846 142.265 103.944C142.179 104.043 142.114 104.158 142.074 104.282C141.161 106.558 139.774 108.613 138.006 110.311C136.971 110.311 134.046 110.064 132.224 108.991C132.115 108.918 131.992 108.869 131.863 108.846C131.733 108.824 131.601 108.83 131.474 108.863C131.347 108.895 131.228 108.955 131.126 109.037C131.024 109.119 130.94 109.222 130.88 109.339C130.348 110.813 132.918 111.176 134.694 111.825C133.946 112.658 133.376 113.635 133.019 114.696C132.733 115.932 134.254 116.472 134.933 115.106C135.492 114.056 136.177 113.079 136.971 112.195C139.133 112.473 139.604 112.118 141.055 109.879C142.18 110.518 143.4 110.972 144.668 111.222C145.896 111.222 146.097 109.81 144.761 109.447Z" fill="#3D9CFB"/>
<path d="M144.923 99.9593C140.839 99.7895 129.406 103.819 127.893 106.66C126.38 109.501 128.665 118.24 132.44 120.062C135.598 121.606 143.804 116.974 144.229 116.727C148.598 114.597 150.104 113.284 150.405 112.095C151.069 109.602 148.668 100.137 144.923 99.9593ZM148.529 111.586C147.672 113.547 135.049 119.02 133.189 118.248C131.46 117.746 128.217 109.247 129.661 107.51C130.649 105.456 142.492 101.449 144.167 101.766C147.456 103.14 148.953 109.941 148.529 111.586Z" fill="#3D9CFB"/>
<path d="M136.299 129.079C128.579 123.019 125.877 122.417 120.35 131.349C117.918 135.271 125.175 139.316 131.698 141.277C134.91 142.242 139.04 135.263 139.032 133.472C139.063 132.183 138.206 130.577 136.299 129.079ZM132.818 138.976C132.582 139.154 132.305 139.268 132.013 139.307C131.721 139.346 131.424 139.309 131.15 139.2C123.499 135.448 121.886 134.298 122.45 132.322C123.222 129.527 126.487 126.786 127.668 126.678C129.058 126.2 137.118 130.754 137.071 133.457C137.064 134.174 135.01 137.749 132.818 138.976Z" fill="#3D9CFB"/>
<path d="M134.748 94.1766C138.237 93.4587 144.954 85.1133 143.062 80.3654C141.873 77.3855 128.541 70.3293 124.217 70.1904C120.242 70.036 111.294 82.5425 115.849 85.8004C119.609 88.5101 130.44 95.0645 134.748 94.1766ZM124.202 72.1513C127.29 72.2439 140.136 78.7365 141.279 81.1838C142.499 84.349 135.751 92.3161 134.331 92.2544C132.37 92.6558 122.936 88.0624 116.891 84.1483C115.316 80.4118 122.21 71.9428 124.202 72.1513Z" fill="#3D9CFB"/>
<path d="M125.337 59.3748C136.917 58.7958 145.664 48.7597 143.178 36.4925C147.995 32.5938 149.285 20.5583 141.549 19.4543C141.371 19.4249 141.187 19.4452 141.02 19.5128C140.852 19.5805 140.706 19.6929 140.597 19.8379C140.489 19.9828 140.423 20.1547 140.405 20.3349C140.388 20.515 140.421 20.6964 140.499 20.8593C142.29 25.9623 136.716 24.7194 138.299 18.8135C140.777 5.47323 122.782 13.0312 124.071 5.49639C124.357 3.81342 122.303 4.27662 121.222 5.56588C119.408 7.7275 118.489 11.3714 122.033 14.058C122.959 14.7528 123.199 15.324 123.206 15.7023C123.06 17.4548 121.045 16.9684 120.226 15.5788C118.682 12.182 114.938 10.5994 111.657 10.2674C107.975 9.88912 104.207 11.8732 106.299 13.0389C115.563 18.165 108.345 23.9165 103.211 15.2082C97.4522 5.38831 88.5432 14.2278 82.5679 7.34921C82.4502 7.19583 82.2901 7.08032 82.1075 7.01701C81.9248 6.9537 81.7276 6.94535 81.5402 6.99302C81.3529 7.04068 81.1836 7.14225 81.0534 7.28515C80.9232 7.42805 80.8378 7.60601 80.8077 7.79698C79.1402 21.2299 92.8742 15.517 91.3225 20.9983C91.1764 21.263 90.9596 21.4818 90.6963 21.6303C90.433 21.7787 90.1335 21.851 89.8315 21.839C89.5294 21.827 89.2367 21.7311 88.986 21.5622C88.7353 21.3933 88.5365 21.1579 88.412 20.8825C88.0646 20.0101 87.0841 20.3653 86.9915 21.3071C85.9493 30.2778 95.831 27.2979 96.1861 30.9263C96.5103 34.2073 90.01 32.8563 88.466 30.1543C88.414 30.0659 88.3388 29.9933 88.2486 29.9445C88.1584 29.8957 88.0566 29.8724 87.9541 29.8771C87.8516 29.8819 87.7524 29.9145 87.6671 29.9716C87.5818 30.0286 87.5137 30.1078 87.4701 30.2006C85.6173 34.3077 86.7908 37.8358 89.6549 39.4647C91.5077 40.5301 94.2175 41.0628 96.603 41.9583C99.9921 43.2398 99.2664 53.2296 109.449 52.1951C113.332 56.75 119.346 59.6759 125.337 59.3748ZM101.011 44.6063C98.6179 36.7318 88.2576 40.9238 88.2344 32.8718C96.5798 38.7159 102.617 30.0231 95.306 27.5835C91.06 26.163 88.5741 25.7693 88.4737 23.2062C91.9709 24.6113 94.6498 21.6159 92.99 18.5202C90.3188 14.4054 82.1819 17.4316 82.5679 10.1825C88.8829 15.077 96.6725 8.01314 101.521 16.2196C107.843 26.9196 118.559 19.2458 108.94 12.3595C112.591 11.325 116.096 12.8459 118.582 16.6442C120.365 19.7322 125.09 19.3925 125.167 15.6792C125.283 12.4445 119.03 11.3019 122.18 7.60397C123.407 12.236 131.166 11.0471 134.416 12.7687C138.5 14.9226 134.902 18.9911 136.354 23.0287C137.527 27.1049 143.78 27.1512 142.877 21.9865C147.069 24.5418 145.008 31.2506 142.591 34.3386C131.938 9.23291 95.4064 26.356 107.998 50.3423C104.323 50.3037 101.876 47.455 101.011 44.6063ZM110.738 50.875C98.1933 33.1883 123.206 14.058 137.519 29.5521C151.956 48.7828 125.684 67.8823 110.738 50.875Z" fill="#3D9CFB"/>
<path d="M134.825 86.395C134.2 85.4207 133.643 84.4044 133.157 83.3533C134.061 82.8515 137.226 82.4192 136.863 81.238C136.276 79.3002 130.834 82.8746 128.95 82.01C126.024 80.6358 125.63 73.819 123.639 74.8998C122.403 75.5715 123.994 78.0728 124.866 79.7249C123.214 80.2961 119.732 80.8365 120.18 82.2184C120.69 83.7625 123.924 82.2184 125.816 81.5005C127.113 83.9091 128.811 84.3415 131.22 83.8165C132.401 85.7234 132.548 87.5299 134.068 87.9622C134.247 87.9543 134.42 87.8983 134.569 87.8001C134.718 87.702 134.837 87.5653 134.915 87.4046C134.992 87.2439 135.025 87.0651 135.009 86.8874C134.993 86.7096 134.93 86.5395 134.825 86.395Z" fill="#3D9CFB"/>
<path d="M50.1437 78.7366C36.7493 79.3696 40.9799 99.4341 53.6486 93.7676C52.259 94.3852 51.3326 96.0836 49.5106 97.2184C49.3037 97.361 49.1594 97.5776 49.1076 97.8235C49.0558 98.0694 49.1004 98.3258 49.2321 98.5398C49.3639 98.7538 49.5728 98.909 49.8157 98.9734C50.0586 99.0378 50.3169 99.0065 50.5374 98.886C60.8977 93.1113 61.222 78.2039 50.1437 78.7366ZM46.33 91.8607C38.772 85.9008 48.9857 76.2507 54.6445 82.4576C51.8266 84.7891 48.6074 88.7958 46.33 91.8839V91.8607Z" fill="#001434"/>
<path d="M51.2704 77.0228C52.0425 77.0228 54.536 75.6178 56.8135 75.224C58.1722 74.9847 58.1413 73.2631 56.4429 73.3326C54.5005 73.5452 52.6138 74.113 50.8767 75.0079C49.7341 75.6409 50.0121 77.0228 51.2704 77.0228Z" fill="#001434"/>
<path d="M60.0948 92.9338C59.2301 92.4706 58.7746 93.5746 59.1066 94.1381C59.8246 95.3811 62.3259 95.9369 63.7386 95.4892C68.0233 94.169 66.0547 87.4062 65.0742 83.3455C65.0424 83.2177 64.9852 83.0977 64.9059 82.9925C64.8267 82.8874 64.7271 82.7993 64.6131 82.7334C64.4991 82.6676 64.373 82.6254 64.2423 82.6094C64.1116 82.5933 63.979 82.6038 63.8525 82.6401C63.7259 82.6764 63.608 82.7378 63.5057 82.8207C63.4034 82.9036 63.3188 83.0062 63.257 83.1225C63.1953 83.2387 63.1575 83.3662 63.1461 83.4974C63.1347 83.6286 63.1498 83.7607 63.1905 83.8859C64.7577 89.2205 65.3985 95.7748 60.0948 92.9338Z" fill="#001434"/>
<path d="M59.3457 98.0752C59.0959 98.149 58.8856 98.3189 58.7611 98.5476C58.6366 98.7764 58.608 99.0452 58.6818 99.295C58.7555 99.5448 58.9254 99.7551 59.1541 99.8796C59.3829 100.004 59.6517 100.033 59.9015 99.9589C61.654 98.9553 64.109 101.503 64.9041 100.152C66.3015 97.8205 60.5268 97.612 59.3457 98.0752Z" fill="#001434"/>
<path d="M66.8115 74.8918C68.4559 74.8918 69.1275 74.8918 72.617 76.1733C72.7371 76.2234 72.8663 76.248 72.9965 76.2457C73.1266 76.2433 73.2548 76.214 73.3731 76.1596C73.4913 76.1052 73.597 76.0269 73.6834 75.9296C73.7699 75.8323 73.8352 75.7181 73.8754 75.5943C74.3849 73.1471 68.1471 72.9309 67.2747 72.9309C65.4142 72.9309 65.5377 74.9072 66.8115 74.8918Z" fill="#001434"/>
<path d="M121.354 99.2642C117.918 96.7475 113.479 99.3569 106.863 101.434C105.365 98.2838 103.597 92.6327 102.903 82.8591C112.259 82.4885 108.152 70.5765 101.104 68.2682C110.237 64.964 104.539 54.65 91.0678 55.4065C99.7992 40.6303 79.6807 40.6921 69.0656 47.6401C72.8639 28.9344 51.7109 37.3107 47.4494 50.4348C41.9604 41.881 25.8332 43.9577 32.1019 55.6767C22.9536 55.4451 14.2994 60.7642 18.4142 67.913C9.29679 70.8003 5.75328 75.7412 6.91129 80.8364C7.72962 84.4417 10.7713 85.4685 17.6036 83.9708C16.1754 87.661 16.0055 90.8262 16.7698 93.0341C3.96222 107.316 18.8465 139.802 39.6521 135.193C48.4607 141.053 59.4927 150.155 67.9616 151.089C71.8834 151.506 81.3559 146.534 87.0148 144.434C95.0282 141.346 109.719 136.066 111.31 132.7C123.361 107.085 123.824 101.078 121.354 99.2642ZM105.003 102.082C98.178 104.498 89.9329 107.625 84.2047 110.358C83.465 108.671 82.4178 107.137 81.1166 105.834C96.8424 96.6549 84.9767 85.7001 92.6427 77.6249C96.3792 75.0078 100.726 78.0881 100.934 82.6584C101.374 92.7485 103.428 98.693 105.003 102.082ZM63.9163 65.4349C63.7079 58.8342 75.2648 78.4741 81.9118 70.0669C85.1079 72.7844 85.5248 77.787 85.6406 78.9296C86.567 87.7382 96.1399 99.2951 71.6209 107.857C66.4408 103.039 56.0187 103.726 49.6959 107.038C38.7797 104.676 32.3953 97.1335 31.9398 86.1478C38.2625 88.1782 41.2039 81.454 41.3814 75.8415C43.929 78.1112 47.8894 76.8915 49.1632 73.7571C50.1051 71.997 50.1669 67.8899 51.7031 67.1256C52.4752 66.8708 53.7644 67.72 54.9996 68.5384C58.7747 71.9506 64.6188 70.9084 63.9163 65.4349ZM90.1646 73.263C91.8475 72.491 94.2253 72.5528 96.3869 74.8071C92.3802 74.2744 89.0451 77.3161 88.1496 81.3151C86.374 78.1035 87.6324 74.4133 90.18 73.263H90.1646ZM79.3101 106.845C80.6303 108.079 81.6816 109.572 82.3982 111.23C79.1248 113.014 77.8665 113.477 76.1758 116.426C75.798 113.872 74.7303 111.47 73.0878 109.478C75.2364 108.775 77.3228 107.894 79.3256 106.845H79.3101ZM9.28907 80.6975C6.39405 73.4946 18.9623 69.8122 29.176 66.8013C29.4277 66.7391 29.6449 66.5803 29.7807 66.3594C29.9165 66.1384 29.9599 65.8729 29.9017 65.6202C29.6237 64.246 22.1816 67.1101 20.4523 67.1642C15.2799 60.301 28.9444 54.3643 40.0304 59.3206C41.752 60.0926 41.7134 58.2321 40.8024 57.6608C38.8617 56.7125 36.7727 56.1041 34.6264 55.862C31.1137 51.4152 32.3103 46.9376 37.8765 47.0148C41.1267 47.1383 45.4422 49.2845 47.82 54.9433C47.8697 55.0618 47.9423 55.1693 48.0338 55.2595C48.1253 55.3498 48.2337 55.421 48.3529 55.4691C48.472 55.5172 48.5996 55.5412 48.728 55.5397C48.8565 55.5383 48.9835 55.5114 49.1015 55.4606C50.4216 54.8121 49.1478 53.2912 48.7772 52.4343C52.0274 39.9818 72.4547 30.6637 66.6183 48.8985C64.5494 49.8403 62.0403 51.1528 62.434 52.5115C62.5884 53.0365 63.3296 53.1214 63.7851 52.8357C76.3147 45.1157 85.6174 42.846 89.987 46.4898C90.5289 47.0065 90.926 47.6561 91.1386 48.374C91.3513 49.0919 91.3721 49.853 91.199 50.5815C90.1646 57.4601 83.9036 54.5419 84.3745 57.4601C84.406 57.5868 84.4634 57.7056 84.5433 57.809C84.6231 57.9123 84.7236 57.9979 84.8383 58.0604C84.953 58.1228 85.0795 58.1607 85.2096 58.1716C85.3397 58.1826 85.4707 58.1664 85.5943 58.124C93.9628 55.808 100.401 58.124 102.81 61.212C105.481 64.6552 100.911 66.6624 98.7261 66.9712C95.9737 66.13 93.1121 65.7008 90.234 65.6974C88.9602 65.6974 88.8135 67.2414 90.0796 67.3417C105.041 67.6583 110.839 79.7942 102.656 80.8905C101.544 76.0732 97.7071 71.3793 92.689 70.9933C90.4965 70.8235 87.918 71.4797 86.6982 73.9578C85.9262 71.2867 84.7528 69.9589 83.2474 68.2759C84.0734 65.9599 82.4213 60.772 81.1398 61.3278C79.1326 62.2156 83.201 65.7128 80.638 68.8008C76.0059 74.4442 69.0579 62.316 64.503 62.0689C64.102 62.1 63.7123 62.2171 63.3605 62.4122C63.0087 62.6073 62.7031 62.8758 62.4643 63.1995C62.2255 63.5233 62.0593 63.8946 61.9768 64.2883C61.8943 64.682 61.8975 65.0889 61.9863 65.4812C61.9168 73.3402 54.5982 63.9835 51.1782 65.2882C47.1946 66.2918 48.4067 80.2729 41.7134 73.2476C41.8391 72.1346 42.0983 71.0408 42.4854 69.9897C42.8791 69.017 42.8945 68.6156 42.3696 68.4457C40.702 68.0288 39.9455 71.9352 39.7602 74.8534C39.5209 78.4201 38.6948 81.3537 37.1585 82.9131C34.1554 86.0012 29.3613 84.4571 31.0751 76.6367C31.1909 76.104 30.8358 75.4324 30.3031 75.4864C28.404 75.6794 27.9871 82.6893 29.9557 84.4803C29.8439 88.7556 30.7711 92.9943 32.6577 96.8324C29.9634 98.8088 26.1883 97.1875 25.2387 93.8525C24.0267 89.6219 26.1034 86.4412 25.0149 86.3717C22.3978 86.225 23.162 92.5478 23.1775 93.5823C16.1445 96.6008 16.3915 86.2945 23.2238 77.8874C24.6906 76.0809 22.3283 76.0732 21.2552 77.3547C20.2114 78.6538 19.3419 80.0838 18.669 81.6084C13.9983 83.2528 10.2386 83.0521 9.28907 80.6975ZM20.4832 125.003C14.4152 117.082 10.779 102.538 17.7734 94.8175C19.2634 96.6549 21.6335 96.6394 23.7179 95.5895C25.6479 99.8819 30.0792 100.816 33.6305 98.6775C34.5564 100.149 35.6582 101.502 36.9115 102.707C25.9644 105.162 19.7035 113.84 20.4832 125.003ZM27.4312 131.719C25.7404 130.575 24.1863 129.241 22.7992 127.744C20.7611 115.708 26.8291 106.367 38.8183 104.275C41.3478 106.189 44.2158 107.608 47.2718 108.459C45.9016 109.245 44.6875 110.276 43.6897 111.501C42.6552 112.759 43.9059 114.326 45.4576 112.597C50.9234 106.483 64.2637 103.333 70.7408 109.663C75.1722 114.218 76.5 122.787 71.1423 123.891C70.1078 124.1 67.2823 123.351 63.7928 116.588C63.5457 116.102 62.8818 115.816 62.4727 116.163C60.8206 117.615 66.4408 123.559 66.9271 124.146C65.7352 126.692 63.8656 128.861 61.5231 130.415C61.7778 128.979 59.2071 123.914 57.277 121.745C56.119 120.417 54.8221 121.907 55.3702 122.517C57.6862 125.011 59.4309 128.4 59.678 131.38C55.2158 133.379 49.5107 131.997 47.0711 127.697C46.9379 127.474 46.7216 127.313 46.4697 127.25C46.2179 127.186 45.951 127.225 45.7278 127.358C44.2842 128.678 46.9013 130.538 47.735 131.503C40.7098 133.549 31.8703 134.684 27.4004 131.719H27.4312ZM65.0666 148.294C58.2112 145.832 49.4875 139.578 42.5163 134.761C44.9709 134.301 47.3925 133.679 49.7654 132.901C56.8447 136.599 65.1592 132.244 68.5638 125.242C69.6621 125.854 70.9559 126.012 72.1691 125.682C70.4938 129.982 68.4403 135.433 67.3903 138.637C64.6574 137.579 60.1335 134.668 59.3306 136.151C59.2661 136.245 59.2254 136.353 59.2122 136.466C59.1989 136.58 59.2135 136.694 59.2545 136.801C59.2955 136.907 59.3619 137.002 59.4478 137.077C59.5336 137.152 59.6365 137.205 59.7475 137.232C62.1696 138.153 64.516 139.263 66.765 140.551C65.5375 144.365 65.0434 146.766 65.0357 148.294H65.0666ZM109.55 131.789C108.206 134.761 93.3375 139.903 86.3122 142.551C81.1012 144.504 69.9688 149.985 67.0121 148.927C66.6415 148.101 67.0121 144.365 72.9333 128.971C74.9251 123.806 77.5654 116.874 79.4259 115.314C83.8727 111.508 107.01 103.147 116.529 100.283C125.499 98.8474 118.065 112.998 109.55 131.789Z" fill="#001434"/>
<path d="M67.8383 88.6803C68.7569 91.2742 71.2274 95.4585 77.5964 96.7246C77.8504 96.7664 78.1108 96.7099 78.3245 96.5665C78.5382 96.423 78.6892 96.2035 78.7467 95.9526C79.1945 94.5089 75.0179 94.5089 73.6206 93.0498C80.8852 93.7215 85.8338 84.3493 79.264 79.4702C72.6942 74.5911 65.1208 81.0297 67.8383 88.6803ZM70.5712 81.6087C75.126 76.2046 84.4673 84.1563 78.6386 89.3287C76.2832 86.4344 73.5429 83.876 70.494 81.7245L70.5712 81.6087Z" fill="#001434"/>
</svg>
