<svg width="154" height="154" viewBox="0 0 154 154" fill="none" xmlns="http://www.w3.org/2000/svg">
<path d="M58.7931 92.0352L47.7373 97.2751C63.5377 102.587 77.6006 112.257 93.4355 117.425C93.8562 117.629 94.3355 117.677 94.7887 117.562C95.2418 117.447 95.6395 117.175 95.9114 116.794C102.889 109.894 110.217 103.091 119.041 98.7879L111.262 96.5099L58.7931 92.0352Z" fill="#FFB43B"/>
<path d="M93.286 117.776C77.5163 112.634 63.3268 102.92 47.6146 97.6383C47.5421 97.6139 47.4786 97.5684 47.4322 97.5076C47.3858 97.4469 47.3586 97.3736 47.3542 97.2973C47.3497 97.2209 47.3682 97.145 47.4072 97.0793C47.4462 97.0135 47.504 96.9609 47.5732 96.9283L59.2278 91.3847C59.2736 91.3581 59.3245 91.3412 59.3771 91.3352C59.4298 91.3292 59.4832 91.3342 59.5338 91.3499C59.5844 91.3656 59.6313 91.3916 59.6714 91.4263C59.7114 91.461 59.7439 91.5036 59.7667 91.5515C59.7894 91.5994 59.802 91.6514 59.8036 91.7044C59.8053 91.7574 59.7959 91.8102 59.7761 91.8593C59.7563 91.9085 59.7265 91.9531 59.6886 91.9901C59.6507 92.0272 59.6055 92.056 59.5559 92.0748L48.7532 97.212C64.1649 102.574 78.1197 112.017 93.5567 117.055C93.903 117.237 94.3042 117.286 94.6841 117.192C95.064 117.098 95.3962 116.867 95.6177 116.545C102.24 109.997 109.392 103.28 117.998 98.8758L111.157 96.8723C111.108 96.8582 111.063 96.8346 111.024 96.8031C110.985 96.7715 110.952 96.7325 110.928 96.6883C110.879 96.5991 110.868 96.4942 110.896 96.3965C110.925 96.2989 110.991 96.2167 111.08 96.1679C111.169 96.119 111.274 96.1077 111.372 96.1362L119.151 98.4142C119.225 98.436 119.291 98.4797 119.34 98.5395C119.389 98.5994 119.418 98.6726 119.425 98.7497C119.431 98.8267 119.415 98.9039 119.376 98.9712C119.338 99.0384 119.281 99.0926 119.211 99.1266C110.317 103.466 102.956 110.366 96.1835 117.061C95.8561 117.495 95.3894 117.802 94.8617 117.933C94.3341 118.063 93.7777 118.008 93.286 117.776Z" fill="#4B1010"/>
<path d="M78.3494 76.0762L51.9502 88.8932C67.7785 94.6555 83.3841 100.958 98.7671 107.8C106.528 100.499 114.715 93.3947 124.436 89.0189C109.534 83.2081 94.0977 78.8731 78.3494 76.0762Z" fill="white"/>
<path d="M98.7669 108.183C98.2379 108.183 80.825 99.8144 51.8189 89.2524C51.7483 89.2266 51.6868 89.1805 51.6422 89.12C51.5976 89.0595 51.5717 88.9871 51.5679 88.912C51.564 88.8369 51.5824 88.7624 51.6206 88.6976C51.6588 88.6328 51.7153 88.5807 51.7829 88.5478L65.1343 82.0657C65.2258 82.0213 65.3312 82.015 65.4273 82.0483C65.5234 82.0816 65.6024 82.1517 65.6468 82.2432C65.6913 82.3347 65.6975 82.4401 65.6642 82.5363C65.631 82.6324 65.5608 82.7113 65.4693 82.7558L52.9315 88.843C68.388 94.495 83.6496 100.667 98.6903 107.347C105.606 100.848 113.758 93.606 123.456 89.0493C110.247 83.9591 96.6221 80.0235 82.7335 77.2866C82.6832 77.2777 82.6353 77.2589 82.5924 77.2313C82.5496 77.2037 82.5127 77.1679 82.4838 77.1258C82.455 77.0838 82.4348 77.0364 82.4245 76.9864C82.4142 76.9365 82.414 76.885 82.4239 76.835C82.4337 76.785 82.4534 76.7374 82.4819 76.6951C82.5103 76.6528 82.5469 76.6166 82.5895 76.5886C82.6321 76.5606 82.6799 76.5414 82.73 76.5321C82.7801 76.5228 82.8316 76.5236 82.8814 76.5344C97.1111 79.3381 111.064 83.3965 124.578 88.662C124.648 88.6895 124.709 88.7372 124.753 88.799C124.796 88.8608 124.82 88.9341 124.822 89.0097C124.824 89.0852 124.803 89.1596 124.763 89.2235C124.723 89.2875 124.665 89.3381 124.596 89.369C114.557 93.8867 106.137 101.395 99.033 108.078C98.9612 108.146 98.8659 108.183 98.7669 108.183Z" fill="#4B1010"/>
<path d="M30.4606 63.5973C30.7127 60.9438 31.513 58.3715 32.8107 56.0433C35.3494 52.1329 40.1216 50.3985 44.6324 49.2276C49.1432 48.0568 65.2763 42.754 67.9239 48.0008C68.5333 49.4854 68.789 51.0914 68.6707 52.6918C68.6533 59.1064 68.3109 65.5159 67.6448 71.8958C67.6351 72.1885 67.5579 72.475 67.4194 72.7331C67.1326 73.0844 66.731 73.3233 66.2854 73.4078C55.1392 76.8206 43.3895 78.9453 31.9557 80.935C31.6104 81.0387 31.2392 81.0131 30.9114 80.8629C30.6218 80.6424 30.4255 80.3212 30.3617 79.9628C28.9271 74.6139 29.8748 69.0029 30.4606 63.5973Z" fill="#FFE55D"/>
<path d="M140.38 102.92C137.274 102.92 134.762 101.344 134.762 99.418V106.413C134.762 107.708 135.276 108.95 136.191 109.867C137.106 110.784 138.347 111.3 139.642 111.302H141.025C142.32 111.3 143.562 110.783 144.476 109.867C145.391 108.95 145.905 107.708 145.905 106.413V100.012C145.413 101.659 143.081 102.92 140.38 102.92Z" fill="#FFE55D"/>
<path d="M146.337 99.4181C146.337 97.239 143.701 95.5322 140.335 95.5322C136.97 95.5322 134.334 97.239 134.334 99.4181L134.378 106.413C134.383 107.808 134.939 109.145 135.925 110.133C136.911 111.12 138.247 111.678 139.642 111.685H141.029C142.425 111.681 143.763 111.124 144.749 110.136C145.735 109.148 146.29 107.809 146.291 106.413C146.29 97.2244 146.337 100.354 146.337 99.4181ZM145.525 106.413C145.523 107.606 145.049 108.75 144.207 109.594C143.364 110.438 142.221 110.915 141.028 110.919H139.645C138.452 110.915 137.31 110.438 136.467 109.594C135.624 108.75 135.15 107.606 135.148 106.413V101.367C137.439 103.911 143.155 103.97 145.528 101.395L145.525 106.413Z" fill="#4B1010"/>
<path d="M15.7027 83.6766C15.6081 83.6772 15.5166 83.6427 15.4458 83.5799C15.375 83.5171 15.33 83.4304 15.3193 83.3364C15.3087 83.2424 15.3332 83.1477 15.3881 83.0707C15.443 82.9936 15.5245 82.9396 15.6168 82.919L127.798 56.9899C127.895 56.97 127.997 56.9891 128.081 57.0431C128.165 57.0972 128.225 57.1819 128.247 57.2793C128.27 57.3766 128.254 57.4789 128.202 57.5644C128.15 57.6498 128.067 57.7116 127.97 57.7367C15.3845 83.8253 15.7801 83.6766 15.7027 83.6766Z" fill="#4B1010"/>
<path d="M30.7383 111.672C36.1408 113.67 41.4738 115.867 46.7373 118.262C47.8874 118.785 60.0174 125.375 60.0174 125.375C60.0174 125.375 71.0194 112.322 79.275 107.203C73.1726 104.328 66.9181 101.789 60.5395 99.5943C59.3976 99.1218 58.1714 98.887 56.9358 98.9042C55.8619 99.0418 54.82 99.3648 53.8565 99.8588C46.6721 103.046 40.4423 105.583 30.7383 111.672Z" fill="white"/>
<path d="M59.6419 125.454C58.6819 124.511 48.3462 119.412 46.5788 118.611C41.3347 116.227 36.0067 114.033 30.6051 112.031C30.5379 112.006 30.4789 111.963 30.435 111.906C30.391 111.85 30.3639 111.782 30.3565 111.711C30.3492 111.639 30.362 111.567 30.3934 111.503C30.4249 111.439 30.4738 111.384 30.5346 111.346C39.3675 105.804 44.8582 103.416 53.7034 99.5084C54.7003 98.9979 55.7783 98.6648 56.8893 98.5239C58.1913 98.4959 59.4848 98.7412 60.6862 99.2439C67.0702 101.441 73.3302 103.983 79.4386 106.858C79.4992 106.887 79.5512 106.931 79.5895 106.986C79.6278 107.041 79.651 107.105 79.6569 107.171C79.6628 107.238 79.6511 107.305 79.6231 107.366C79.595 107.427 79.5515 107.479 79.4969 107.518C72.2919 112.627 65.8359 118.718 60.3159 125.613C60.2705 125.67 60.2101 125.712 60.1415 125.736C60.0729 125.759 59.9991 125.763 59.9285 125.746C59.8579 125.73 59.7935 125.693 59.7428 125.641C59.6921 125.59 59.6571 125.525 59.6419 125.454ZM31.6027 111.584C36.7399 113.505 41.8848 115.632 46.8955 117.913C47.0143 117.966 57.7296 123.037 59.9862 124.8C65.3535 118.157 71.5863 112.263 78.5185 107.274C72.6157 104.521 66.5725 102.08 60.414 99.96C59.3147 99.5025 58.1336 99.2737 56.943 99.2876C55.9282 99.4228 54.9442 99.7315 54.0339 100.2C46.4853 103.538 40.74 105.921 31.6027 111.584Z" fill="#4B1010"/>
<path d="M76.0638 81.8921C76.0392 80.4545 77.549 76.4536 80.2809 76.094C83.4913 77.1245 84.3539 77.675 84.9527 78.6818C85.5515 79.6885 85.5761 80.4545 84.7372 80.4545C85.0968 81.2933 84.9473 82.1168 83.594 82.0041C83.9889 82.9909 83.6101 83.7676 82.6854 83.4295C80.543 82.6699 78.3217 82.1542 76.0638 81.8921Z" fill="white"/>
<path d="M74.5485 47.4419C77.9889 44.016 82.7972 43.3482 85.6403 44.7583C86.4507 45.2227 87.1682 45.8331 87.7565 46.5586C94.5369 54.8448 92.3938 71.7724 80.6165 74.3701C78.6626 74.7952 76.625 74.6045 74.7838 73.8242C72.9427 73.0439 71.3886 71.7124 70.3352 70.0127C69.4792 68.6536 68.9087 67.1346 68.6582 65.5481C68.4078 63.9616 68.4827 62.3407 68.8784 60.7841C68.2321 60.7559 67.6071 60.5446 67.0763 60.1748C66.5455 59.805 66.1308 59.2919 65.8804 58.6955C65.4738 57.7861 65.2637 56.8013 65.2637 55.8052C65.2637 54.8091 65.4738 53.8243 65.8804 52.9149C65.9749 52.6356 66.1365 52.3837 66.3511 52.1815C66.5657 51.9792 66.8266 51.8327 67.111 51.7548C67.394 51.7442 67.6761 51.7931 67.9391 51.8982C68.644 52.2507 69.4065 52.4735 70.1903 52.5561C71.802 52.5469 73.4114 48.5744 74.5485 47.4419Z" fill="white"/>
<path d="M69.6392 62.2836C69.6392 63.2538 70.0246 64.1843 70.7106 64.8704C71.3966 65.5564 72.3271 65.9418 73.2973 65.9418C74.2675 65.9418 75.198 65.5564 75.884 64.8704C76.5701 64.1843 76.9555 63.2538 76.9555 62.2836C76.9555 61.3134 76.5701 60.383 75.884 59.6969C75.198 59.0109 74.2675 58.6255 73.2973 58.6255C72.3271 58.6255 71.3966 59.0109 70.7106 59.6969C70.0246 60.383 69.6392 61.3134 69.6392 62.2836Z" fill="#FFE55D"/>
<path d="M85.0635 69.2044C85.0635 69.6198 85.1453 70.0312 85.3043 70.415C85.4633 70.7989 85.6963 71.1476 85.9901 71.4414C86.2838 71.7351 86.6326 71.9682 87.0164 72.1272C87.4003 72.2862 87.8116 72.368 88.2271 72.368C88.6425 72.368 89.0539 72.2862 89.4377 72.1272C89.8216 71.9682 90.1703 71.7351 90.4641 71.4414C90.7579 71.1476 90.9909 70.7989 91.1499 70.415C91.3089 70.0312 91.3907 69.6198 91.3907 69.2044C91.3907 68.7889 91.3089 68.3775 91.1499 67.9937C90.9909 67.6099 90.7579 67.2611 90.4641 66.9674C90.1703 66.6736 89.8216 66.4406 89.4377 66.2816C89.0539 66.1226 88.6425 66.0408 88.2271 66.0408C87.8116 66.0408 87.4003 66.1226 87.0164 66.2816C86.6326 66.4406 86.2838 66.6736 85.9901 66.9674C85.6963 67.2611 85.4633 67.6099 85.3043 67.9937C85.1453 68.3775 85.0635 68.7889 85.0635 69.2044Z" fill="#FFE55D"/>
<path d="M84.7577 68.0012C84.6674 68.0011 84.5801 67.9691 84.511 67.9109C84.442 67.8526 84.3958 67.772 84.3804 67.683C84.0632 65.8261 83.8718 63.95 83.8077 62.0673C83.7785 61.8191 83.8146 61.5675 83.9123 61.3374C84.0101 61.1073 84.1661 60.9068 84.3651 60.7554C84.8269 60.3374 85.3229 59.9588 85.848 59.6237C85.9337 59.569 86.0376 59.5506 86.1369 59.5725C86.2362 59.5944 86.3227 59.6549 86.3774 59.7406C86.4321 59.8263 86.4505 59.9303 86.4286 60.0296C86.4067 60.1288 86.3462 60.2154 86.2605 60.2701C85.7656 60.5865 85.2981 60.9438 84.8627 61.3381C84.7476 61.4279 84.6551 61.5435 84.5928 61.6755C84.5669 61.7868 84.5599 61.9016 84.5721 62.0152C84.6357 63.8718 84.824 65.722 85.1357 67.5534C85.1451 67.6084 85.1423 67.6648 85.1276 67.7186C85.1129 67.7725 85.0867 67.8225 85.0507 67.8651C85.0147 67.9078 84.9698 67.942 84.9192 67.9655C84.8686 67.989 84.8135 68.0012 84.7577 68.0012Z" fill="#4B1010"/>
<path d="M100.761 35.4038C100.711 35.3961 100.662 35.3784 100.618 35.3517C100.574 35.325 100.537 35.2898 100.507 35.2481C100.477 35.2065 100.456 35.1593 100.444 35.1093C100.433 35.0593 100.432 35.0076 100.441 34.9572C100.45 34.9067 100.469 34.8586 100.497 34.8156C100.525 34.7727 100.561 34.7358 100.603 34.7071C100.646 34.6784 100.694 34.6585 100.744 34.6485C100.794 34.6386 100.846 34.6389 100.896 34.6493C101.4 34.7375 101.919 34.6247 102.341 34.3351C102.763 34.0454 103.055 33.6019 103.153 33.0997C103.226 32.5557 103.152 32.0023 102.94 31.496C102.729 30.9897 102.386 30.5488 101.948 30.2182C101.003 29.5202 99.8938 29.0776 98.7278 28.9332C95.0133 28.3331 91.2072 29.0982 88.0132 31.087C87.1272 31.6022 86.3634 32.3032 85.7743 33.1419C85.7462 33.1848 85.7097 33.2216 85.6671 33.2502C85.6244 33.2787 85.5765 33.2984 85.5261 33.3081C85.4757 33.3178 85.4239 33.3173 85.3737 33.3066C85.3235 33.2959 85.276 33.2752 85.2339 33.2458C85.1919 33.2164 85.1562 33.1788 85.1289 33.1353C85.1016 33.0919 85.0834 33.0433 85.0752 32.9927C85.067 32.942 85.0691 32.8902 85.0813 32.8404C85.0936 32.7905 85.1157 32.7437 85.1463 32.7025C85.7967 31.7759 86.6397 31.0009 87.6176 30.4306C90.9626 28.3489 94.9476 27.5472 98.8374 28.1733C100.13 28.3356 101.36 28.8281 102.407 29.6033C102.957 30.0187 103.386 30.5732 103.65 31.2096C103.914 31.846 104.004 32.5414 103.909 33.2239C103.776 33.9278 103.371 34.5509 102.782 34.9588C102.193 35.3666 101.467 35.5264 100.761 35.4038Z" fill="#4B1010"/>
<path d="M57.7709 53.6233C56.1845 53.6233 55.5312 51.7578 56.196 50.3807C56.5655 49.6443 57.0792 48.9896 57.7065 48.4554C61.3355 45.0541 65.0489 43.184 68.7308 42.9095C68.7812 42.9058 68.8317 42.912 68.8797 42.9278C68.9276 42.9436 68.972 42.9688 69.0102 43.0017C69.0484 43.0347 69.0798 43.0749 69.1025 43.1199C69.1252 43.165 69.1388 43.2142 69.1425 43.2645C69.1463 43.3148 69.14 43.3654 69.1242 43.4134C69.1084 43.4613 69.0833 43.5057 69.0503 43.5439C69.0174 43.5821 68.9772 43.6135 68.9321 43.6362C68.887 43.6589 68.8379 43.6725 68.7875 43.6762C65.285 43.9377 61.7288 45.7388 58.2171 49.0297C57.6635 49.4988 57.2101 50.0745 56.8838 50.7227C56.7505 50.9987 56.689 51.304 56.7051 51.6101C56.7212 51.9162 56.8143 52.2134 56.9758 52.4739C57.1352 52.6813 57.3697 52.8176 57.6288 52.8536C57.8878 52.8896 58.1506 52.8224 58.3605 52.6664C58.4434 52.6044 58.5464 52.5758 58.6494 52.5862C58.7523 52.5966 58.8476 52.6451 58.9164 52.7223C58.9484 52.7579 58.973 52.7995 58.9886 52.8447C59.0042 52.8899 59.0105 52.9378 59.0072 52.9855C59.0039 53.0333 58.9911 53.0798 58.9694 53.1225C58.9478 53.1651 58.9177 53.203 58.8811 53.2338C58.5664 53.4865 58.1746 53.624 57.7709 53.6233Z" fill="#4B1010"/>
<path d="M71.4416 39.8277C71.3654 39.8277 71.2909 39.805 71.2277 39.7625C68.8704 38.1803 66.1385 37.2459 63.306 37.0529C60.4735 36.8599 57.64 37.4152 55.0899 38.663C54.9984 38.7078 54.8928 38.7145 54.7964 38.6815C54.7 38.6485 54.6207 38.5785 54.5758 38.487C54.531 38.3955 54.5243 38.29 54.5573 38.1935C54.5903 38.0971 54.6603 38.0178 54.7518 37.9729C57.423 36.6657 60.3909 36.0838 63.358 36.2857C66.325 36.4876 69.1868 37.4661 71.6563 39.1231C71.726 39.1684 71.779 39.2351 71.8074 39.3133C71.8358 39.3914 71.8381 39.4766 71.8139 39.5561C71.7897 39.6356 71.7403 39.7051 71.6731 39.7541C71.606 39.8031 71.5247 39.8289 71.4416 39.8277Z" fill="#4B1010"/>
<path d="M79.7023 57.8004C79.6909 57.7767 79.677 57.7544 79.6609 57.7337C79.5288 57.5613 79.3527 57.4277 79.1512 57.3468C78.9496 57.2659 78.7301 57.2406 78.5154 57.2736C78.4149 57.289 78.3245 57.3436 78.2643 57.4256C78.204 57.5076 78.1788 57.6101 78.1941 57.7107C78.2095 57.8112 78.2642 57.9016 78.3461 57.9618C78.4281 58.0221 78.5306 58.0473 78.6312 58.0319C78.7031 58.0211 78.7765 58.0279 78.8452 58.0518C78.9139 58.0757 78.9757 58.116 79.0253 58.1692C79.0443 58.2292 79.0443 58.2937 79.0254 58.3538C79.0065 58.4139 78.9695 58.4667 78.9195 58.505C78.7337 58.654 78.5184 58.7617 78.2877 58.8209C78.196 58.8447 78.1164 58.9016 78.0641 58.9806C78.0119 59.0596 77.9907 59.1551 78.0048 59.2488C78.0172 59.3429 78.0647 59.4288 78.1378 59.4894C78.2108 59.5499 78.3041 59.5807 78.3989 59.5754C78.4337 59.5754 78.4674 59.5873 78.4946 59.609C78.5218 59.6307 78.5407 59.6611 78.5484 59.695C78.4801 60.0408 78.0063 60.0063 77.7533 59.7387C77.711 59.6943 77.6587 59.6606 77.6007 59.6406C77.5427 59.6205 77.4808 59.6147 77.4201 59.6236C77.3594 59.6324 77.3017 59.6557 77.2519 59.6915C77.202 59.7273 77.1615 59.7745 77.1337 59.8292C76.731 59.774 76.3233 59.7645 75.9184 59.8008C75.8168 59.8101 75.7229 59.8593 75.6576 59.9378C75.5922 60.0162 75.5607 60.1174 75.5699 60.2191C75.5792 60.3208 75.6285 60.4146 75.7069 60.48C75.7853 60.5453 75.8865 60.5768 75.9882 60.5676C76.9381 60.479 77.8915 60.6938 78.7117 61.181C78.7989 61.2284 78.9011 61.2401 78.9968 61.2137C79.0925 61.1874 79.1742 61.1249 79.2248 61.0394C79.2753 60.954 79.2908 60.8523 79.2679 60.7557C79.245 60.6591 79.1855 60.5752 79.102 60.5216C79.0545 60.4932 79.0065 60.4658 78.9578 60.4395C79.129 60.3013 79.246 60.107 79.2881 59.891C79.3301 59.6751 79.2947 59.4511 79.1879 59.2587C79.2592 59.2131 79.328 59.1637 79.3941 59.1107C79.5872 58.9602 79.7231 58.7482 79.7791 58.5099C79.8352 58.2715 79.8081 58.0212 79.7023 57.8004Z" fill="#4B1010"/>
<path d="M88.818 62.0328C88.7641 61.9275 88.6887 61.8346 88.5968 61.7601C88.5049 61.6856 88.3985 61.6311 88.2843 61.6001C88.1702 61.5691 88.0508 61.5622 87.9338 61.5799C87.8168 61.5977 87.7048 61.6396 87.605 61.7031C87.5213 61.7585 87.4627 61.8446 87.4418 61.9428C87.4208 62.041 87.4393 62.1435 87.4931 62.2282C87.5469 62.313 87.6318 62.3733 87.7296 62.3961C87.8274 62.4189 87.9302 62.4024 88.016 62.3502C88.1302 62.2789 88.1586 62.4093 88.0773 62.4461C87.937 62.4928 87.5122 62.4185 87.2554 62.7267C87.2183 62.7712 87.1918 62.8235 87.1778 62.8797C87.1639 62.9359 87.1628 62.9946 87.1748 63.0512C87.1867 63.1079 87.2114 63.1611 87.2469 63.2069C87.2823 63.2527 87.3277 63.2898 87.3796 63.3156C87.4229 63.338 87.4613 63.3688 87.4925 63.4063C87.5238 63.4437 87.5472 63.4871 87.5615 63.5337C87.5758 63.5803 87.5806 63.6293 87.5757 63.6778C87.5708 63.7264 87.5563 63.7734 87.5329 63.8163C87.4463 63.908 87.3292 63.965 87.2036 63.9766C87.078 63.9881 86.9524 63.9535 86.8505 63.8791C86.7877 63.833 86.7123 63.807 86.6343 63.8048C86.5564 63.8027 86.4796 63.8243 86.4143 63.8669C86.2666 63.7707 86.1129 63.6842 85.9542 63.6077C85.8637 63.5706 85.7624 63.5694 85.6711 63.6045C85.5798 63.6396 85.5054 63.7083 85.463 63.7965C85.4207 63.8847 85.4137 63.9857 85.4434 64.0789C85.4732 64.1721 85.5374 64.2504 85.623 64.2978C86.3446 64.6428 86.9178 65.2362 87.2377 65.9693C87.2784 66.0625 87.3545 66.1358 87.4491 66.173C87.5438 66.2101 87.6494 66.2082 87.7426 66.1675C87.8359 66.1268 87.9091 66.0508 87.9463 65.9561C87.9835 65.8614 87.9815 65.7558 87.9409 65.6626C87.7932 65.3246 87.6005 65.0082 87.3681 64.7218C87.5399 64.7037 87.7051 64.6453 87.8501 64.5514C87.9951 64.4574 88.1158 64.3305 88.2025 64.1811C88.2892 64.0316 88.3394 63.8638 88.3489 63.6913C88.3585 63.5187 88.3272 63.3464 88.2575 63.1883C88.3757 63.1576 88.4859 63.1017 88.5803 63.0243C88.6748 62.9468 88.7513 62.8499 88.8046 62.74C88.8579 62.6301 88.8867 62.51 88.889 62.3879C88.8913 62.2658 88.8671 62.1446 88.818 62.0328Z" fill="#4B1010"/>
<path d="M75.6062 57.0879C75.6022 57.0377 75.608 56.9872 75.6234 56.9393C75.6389 56.8914 75.6636 56.8469 75.6962 56.8085C75.7288 56.7702 75.7687 56.7386 75.8135 56.7156C75.8583 56.6926 75.9072 56.6787 75.9574 56.6747C78.0578 56.5024 80.088 55.837 81.8829 54.7325C81.9257 54.7034 81.9739 54.6833 82.0247 54.6734C82.0755 54.6635 82.1277 54.6639 82.1783 54.6747C82.2289 54.6855 82.2768 54.7065 82.3191 54.7363C82.3614 54.7661 82.3972 54.8042 82.4244 54.8482C82.4516 54.8922 82.4696 54.9413 82.4773 54.9924C82.4851 55.0436 82.4823 55.0958 82.4694 55.1459C82.4564 55.196 82.4334 55.2429 82.4018 55.2839C82.3701 55.3248 82.3306 55.359 82.2854 55.3842C80.3875 56.5525 78.2407 57.2565 76.0195 57.4391C75.9693 57.4432 75.9188 57.4374 75.8709 57.4219C75.8229 57.4065 75.7785 57.3818 75.7401 57.3492C75.7017 57.3165 75.6702 57.2767 75.6472 57.2319C75.6242 57.1871 75.6103 57.1381 75.6062 57.0879Z" fill="#4B1010"/>
<path d="M74.5624 69.7474C73.824 69.6515 73.7366 68.9898 74.1545 68.6739C76.934 66.1628 81.2086 67.1151 81.4823 69.1156C81.4962 69.2153 81.4703 69.3165 81.4101 69.3972C81.35 69.478 81.2606 69.5319 81.1611 69.5472C79.5271 69.7987 77.7789 69.4982 76.1772 69.6753C75.6429 69.7552 75.1017 69.7794 74.5624 69.7474ZM74.9719 68.9898C76.1414 68.8854 77.3157 68.8442 78.4897 68.8664C79.1817 68.8983 79.8749 68.8911 80.5661 68.8449C79.83 67.829 77.0988 67.372 74.9719 68.9898Z" fill="#4B1010"/>
<path d="M85.7427 79.6805C85.577 78.7075 85.0377 77.8378 84.2399 77.2568C83.568 76.7673 82.8198 76.3924 82.0255 76.1473C82.1251 75.7927 82.1493 75.4212 82.0964 75.0567C82.0436 74.6922 81.915 74.3428 81.7188 74.0311C80.0649 71.4065 73.8259 71.0591 70.7367 70.688C70.1483 69.8835 69.6034 69.0481 69.1043 68.1854C68.9012 67.6536 68.4968 67.2234 67.9787 66.9877C66.4452 66.0247 64.7522 62.1909 64.6817 61.8129C64.663 61.713 64.6055 61.6245 64.5217 61.567C64.4378 61.5095 64.3346 61.4876 64.2346 61.5062C58.9109 62.497 53.7699 64.2953 48.9894 66.839C46.3379 68.2582 43.0126 70.2893 40.8082 73.4292C39.8267 74.8193 38.7855 76.9163 39.3996 79.0341C39.6787 79.8401 40.1365 80.5725 40.7389 81.1764C41.3412 81.7803 42.0724 82.2401 42.8776 82.5213C44.4121 83.0548 46.0277 83.3177 47.6522 83.298C56.9513 83.6545 72.1513 82.1939 75.8938 82.2798C77.9109 82.559 79.9016 83.0032 81.8461 83.6078C83.7039 84.1368 84.3419 83.1753 83.9508 82.3564C84.8709 82.4216 85.5457 81.8243 85.3072 80.8996C85.4739 80.7475 85.6008 80.5568 85.6768 80.3443C85.7527 80.1317 85.7753 79.9038 85.7427 79.6805ZM84.9606 80.0424C84.4044 79.4591 83.6845 79.0581 82.8958 78.8923C82.8014 78.8721 82.7028 78.8883 82.6198 78.9376C82.5368 78.9869 82.4755 79.0658 82.4481 79.1584C82.4207 79.2509 82.4292 79.3504 82.472 79.437C82.5147 79.5236 82.5886 79.5908 82.6788 79.6253C83.2775 79.8576 83.822 80.2107 84.2782 80.6627C84.3818 80.74 84.465 80.8413 84.5207 80.9579C84.5764 81.0745 84.6029 81.2029 84.598 81.3321C84.5059 81.6763 83.8511 81.6334 83.5107 81.4639C82.9286 81.0325 82.2359 80.7751 81.5133 80.7217C81.4225 80.7279 81.3367 80.7662 81.2716 80.8298C81.2064 80.8934 81.166 80.9782 81.1576 81.0689C81.1492 81.1596 81.1733 81.2503 81.2257 81.3248C81.2781 81.3993 81.3554 81.4527 81.4435 81.4754C82.0601 81.6325 82.621 81.9577 83.0637 82.4147C83.2738 82.6332 83.3159 82.8119 83.2937 82.8472C83.1795 83.0319 82.6604 83.0419 82.0669 82.8717C80.2646 82.312 78.4232 81.887 76.5578 81.6004C76.429 79.59 78.4486 77.1893 80.0642 76.4088C80.5679 76.5207 81.0655 76.6641 81.5655 76.8105C82.3626 77.034 83.115 77.3941 83.789 77.8748C84.4099 78.3241 84.8369 78.9926 84.9836 79.7449C84.9826 79.8446 84.9737 79.9441 84.9568 80.0424H84.9606Z" fill="#4B1010"/>
<path d="M48.8891 113.724C49.8521 115.048 78.9687 108.214 85.5236 108.28C80.9584 103.824 75.4508 97.0228 70.1549 93.4966C68.5976 92.4607 38.9942 95.1895 37.2207 96.3512C40.1827 100.571 44.7371 108.017 48.8891 113.724Z" fill="white"/>
<path d="M49.8625 114.263C49.1188 114.263 48.7285 114.156 48.5782 113.949C44.3381 108.117 39.9761 100.943 36.906 96.5673C36.8765 96.5251 36.8557 96.4775 36.8449 96.4272C36.8342 96.3769 36.8336 96.325 36.8433 96.2745C36.8531 96.224 36.8729 96.1759 36.9016 96.1332C36.9302 96.0905 36.9672 96.054 37.0103 96.0259C39.1373 94.6335 68.7537 92.1017 70.3639 93.1736C75.7311 96.7497 81.185 103.508 85.7878 108.002C85.8426 108.055 85.8802 108.124 85.8956 108.199C85.9111 108.274 85.9038 108.352 85.8746 108.423C85.8454 108.493 85.7956 108.554 85.7318 108.596C85.668 108.638 85.5929 108.66 85.5164 108.66C79.5695 108.613 54.907 114.263 49.8625 114.263ZM49.1725 113.459C51.038 114.231 77.1971 108.333 84.6177 107.919C80.1392 103.43 74.9713 97.1646 69.9437 93.8108C68.4462 92.9835 41.6453 95.2929 37.8046 96.5105C40.7666 100.791 45.1601 107.94 49.1686 113.459H49.1725Z" fill="#4B1010"/>
<path d="M120.456 98.4313H105.799C105.367 98.4313 103.933 98.7802 102.543 99.0593C102.449 99.0953 102.368 99.1591 102.31 99.2422C102.253 99.3253 102.223 99.4238 102.223 99.5247C102.223 99.6255 102.253 99.724 102.31 99.8071C102.368 99.8902 102.449 99.954 102.543 99.9901C104.261 100.336 105.466 100.62 105.798 100.62H120.455C120.601 100.624 120.746 100.599 120.883 100.546C121.019 100.492 121.143 100.412 121.248 100.31C121.352 100.208 121.436 100.086 121.493 99.9515C121.549 99.8168 121.579 99.6721 121.579 99.5258C121.579 99.3796 121.549 99.2349 121.493 99.1001C121.436 98.9654 121.352 98.8434 121.248 98.7414C121.143 98.6394 121.019 98.5594 120.883 98.5061C120.746 98.4529 120.601 98.4274 120.455 98.4313H120.456Z" fill="#4B1010"/>
<path d="M119.422 100.264C119.681 99.0403 119.707 97.7788 119.498 96.5457C119.038 93.8943 117.622 92.768 115.411 92.449C114.825 92.3749 114.23 92.4223 113.663 92.5881C113.096 92.7539 112.568 93.0346 112.114 93.4128C109.957 95.1457 109.235 96.4031 108.741 98.4365C109.641 98.5132 109.968 98.4365 110.811 98.5354C111.369 98.5354 111.398 97.8676 112.071 98.274C113.289 99.0093 112.21 100.683 111.424 101.326C111.194 101.517 110.91 101.71 110.883 102.01C110.856 102.311 111.225 102.651 111.585 102.731C113.097 103.068 114.395 101.632 114.71 100.3C114.672 100.782 114.534 101.252 114.304 101.678C114.075 102.104 113.759 102.478 113.377 102.776C113.233 102.872 113.108 102.994 113.008 103.136C112.722 103.73 113.364 104.408 114.052 104.387C114.528 104.366 114.983 104.181 115.34 103.865C115.77 103.504 116.123 103.06 116.376 102.559C116.63 102.059 116.78 101.512 116.816 100.951C116.761 101.741 116.597 102.52 116.33 103.266C116.277 103.361 116.254 103.471 116.264 103.58C116.275 103.688 116.318 103.792 116.388 103.875C116.459 103.959 116.553 104.02 116.658 104.049C116.763 104.078 116.875 104.075 116.979 104.039C118.386 103.821 119.169 101.474 119.422 100.264Z" fill="white"/>
<path d="M120.483 71.9033C119.573 70.782 118.41 69.8934 117.088 69.3109C112.999 67.2951 106.805 66.4509 103.196 69.4727C100.869 71.7177 102.319 75.4932 102.396 75.5599C105.167 77.9802 107.284 81.0584 108.554 84.5114C109.823 87.9644 110.204 91.6811 109.661 95.3198C109.545 95.4731 109.433 95.6265 109.324 95.7798C108.97 96.2827 108.721 96.8517 108.592 97.4529C108.462 98.0541 108.455 98.6752 108.57 99.2793C108.663 99.6028 108.825 99.902 109.046 100.156C109.267 100.41 109.541 100.612 109.849 100.748C110.573 101.093 111.363 100.764 111.386 100.028C111.351 99.7529 111.227 99.4975 111.032 99.3007C110.978 99.1948 110.963 99.0736 110.989 98.9577C111.015 98.8418 111.08 98.7384 111.173 98.6651C111.326 98.5808 111.504 98.5512 111.676 98.581C111.849 98.6108 112.006 98.6983 112.122 98.8292C112.478 99.5001 111.759 100.555 111.11 101.098C110.949 101.197 110.811 101.328 110.703 101.484C110.596 101.639 110.522 101.815 110.486 102C110.503 102.273 110.611 102.533 110.792 102.737C110.974 102.942 111.218 103.08 111.487 103.13C111.854 103.211 112.234 103.206 112.598 103.114C112.18 104.336 114.044 105.777 115.918 103.865C115.997 104.084 116.156 104.265 116.363 104.371C116.57 104.477 116.81 104.501 117.034 104.437C118.85 104.093 119.607 101.223 119.794 100.348C120.038 99.1717 120.08 97.9626 119.92 96.772C126.161 89.7716 125.638 78.3808 120.483 71.9033ZM119.046 100.192C118.262 103.813 116.339 104.075 116.675 103.418C116.955 102.638 117.126 101.823 117.184 100.996C117.19 100.894 117.155 100.794 117.088 100.718C117.021 100.642 116.926 100.595 116.824 100.589C116.722 100.583 116.622 100.617 116.546 100.684C116.47 100.752 116.423 100.847 116.417 100.948C116.384 101.46 116.247 101.959 116.015 102.416C115.783 102.873 115.461 103.278 115.067 103.606C114.781 103.863 114.413 104.014 114.028 104.031C113.938 104.038 113.847 104.026 113.761 103.997C113.675 103.968 113.596 103.922 113.529 103.861C113.461 103.801 113.407 103.727 113.368 103.645C113.329 103.563 113.308 103.474 113.305 103.384C113.383 103.273 113.482 103.179 113.596 103.105C114.019 102.775 114.37 102.36 114.624 101.886C114.879 101.413 115.032 100.892 115.074 100.357C115.08 100.261 115.051 100.167 114.991 100.092C114.931 100.017 114.846 99.9675 114.751 99.9527C114.656 99.9379 114.56 99.959 114.48 100.012C114.4 100.065 114.343 100.146 114.32 100.238C114.068 101.3 112.973 102.675 111.653 102.385C111.567 102.366 111.486 102.328 111.417 102.274C111.347 102.22 111.289 102.152 111.248 102.074C111.26 101.941 111.528 101.75 111.653 101.649C112.446 100.995 113.393 99.5975 112.765 98.422C112.539 98.1256 112.213 97.9209 111.848 97.8455C111.483 97.7701 111.103 97.8292 110.778 98.0118C110.519 98.1887 110.333 98.4538 110.255 98.7577C110.177 99.0615 110.212 99.3835 110.353 99.6634C110.397 99.7401 110.934 100.42 110.177 100.06C109.967 99.9715 109.779 99.8369 109.628 99.6659C109.477 99.4948 109.367 99.2919 109.305 99.0722C109.205 98.4953 109.237 97.9031 109.399 97.3403C109.561 96.7775 109.849 96.2589 110.241 95.8235C112.325 93.028 114.16 92.3394 116.366 93.192C117.459 93.612 118.353 94.4296 118.868 95.4808C119.307 97.0136 119.368 98.6301 119.046 100.192Z" fill="#4B1010"/>
<path d="M17.5121 77.7107C14.1453 83.3202 9.24729 91.8641 4.00732 99.4097C17.4397 100.496 30.8967 101.222 44.3782 101.588C43.8468 90.415 44.198 87.1294 43.3339 78.1347L17.5121 77.7107Z" fill="white"/>
<path d="M44.7817 118.591C42.8917 109.084 44.6813 103.077 44.7411 101.71C44.7567 101.664 44.7634 101.617 44.761 101.569C44.2427 90.6648 44.5732 87.0174 43.716 78.097C43.7069 78.0031 43.6636 77.9159 43.5943 77.852C43.525 77.788 43.4345 77.7519 43.3403 77.7504L17.5192 77.3272C17.4514 77.3227 17.3837 77.3379 17.3242 77.371C17.2648 77.404 17.2162 77.4535 17.1842 77.5135C16.5639 78.5463 15.8914 79.6796 15.1745 80.8872C4.03134 99.6664 3.40261 99.0208 3.661 99.5729C3.69818 99.6513 3.7609 99.7149 3.83889 99.753C4.94276 105.255 4.8819 110.927 3.66024 116.404C3.6482 116.457 3.64781 116.513 3.6591 116.567C3.67039 116.62 3.69308 116.671 3.72565 116.715C3.75822 116.759 3.7999 116.796 3.84788 116.823C3.89586 116.85 3.94901 116.866 4.00374 116.87C21.3568 118.273 40.57 119.05 44.4053 119.05C44.462 119.05 44.5181 119.037 44.5694 119.013C44.6208 118.989 44.6661 118.954 44.7021 118.91C44.7381 118.866 44.764 118.815 44.7777 118.759C44.7915 118.704 44.7929 118.647 44.7817 118.591ZM17.7278 78.0978L42.9845 78.5118C43.7972 87.1477 43.4767 90.4371 43.9759 101.193C30.8681 100.828 17.772 100.123 4.70071 99.0798C9.69532 91.821 14.2176 83.9534 17.7278 78.0978Z" fill="#4B1010"/>
<path d="M29.0099 104.081C28.924 104.081 25.3341 103.81 4.44022 102.351C4.38997 102.348 4.3409 102.335 4.29581 102.312C4.25073 102.29 4.21052 102.258 4.17748 102.22C4.14444 102.182 4.11922 102.138 4.10325 102.09C4.08729 102.043 4.0809 101.992 4.08445 101.942C4.08744 101.892 4.10048 101.842 4.12281 101.797C4.14513 101.752 4.17628 101.711 4.21442 101.678C4.25257 101.645 4.29695 101.62 4.34494 101.604C4.39293 101.589 4.44358 101.583 4.49389 101.587L29.0368 103.314C29.1384 103.318 29.2345 103.362 29.3039 103.436C29.3733 103.511 29.4103 103.61 29.4067 103.711C29.4032 103.813 29.3594 103.909 29.2849 103.978C29.2105 104.048 29.1116 104.085 29.0099 104.081Z" fill="white"/>
<path d="M43.6798 107.363L12.0422 105.462C11.9919 105.459 11.9426 105.446 11.8973 105.424C11.8519 105.402 11.8113 105.371 11.7779 105.333C11.7444 105.295 11.7187 105.252 11.7022 105.204C11.6857 105.156 11.6788 105.106 11.6818 105.055C11.6849 105.005 11.6978 104.956 11.7198 104.91C11.7419 104.865 11.7727 104.825 11.8104 104.791C11.8481 104.758 11.8921 104.732 11.9398 104.715C11.9874 104.699 12.0379 104.692 12.0882 104.695L43.725 106.598C43.8267 106.604 43.9218 106.65 43.9894 106.727C44.057 106.803 44.0915 106.903 44.0854 107.004C44.0793 107.106 44.0331 107.201 43.9569 107.269C43.8807 107.336 43.7807 107.371 43.679 107.365L43.6798 107.363Z" fill="white"/>
<path d="M40.9399 110.47C40.6132 110.47 40.933 110.478 9.10598 108.4C9.05566 108.397 9.00648 108.384 8.96124 108.361C8.916 108.339 8.87559 108.308 8.84233 108.27C8.80907 108.232 8.78361 108.188 8.76741 108.141C8.7512 108.093 8.74458 108.042 8.74791 107.992C8.75633 107.891 8.80357 107.798 8.87967 107.731C8.95577 107.664 9.05477 107.63 9.15582 107.635L40.9644 109.705C41.0661 109.708 41.1623 109.752 41.2319 109.826C41.3015 109.9 41.3388 109.999 41.3355 110.101C41.3322 110.202 41.2887 110.299 41.2145 110.368C41.1403 110.438 41.0415 110.475 40.9399 110.472V110.47Z" fill="white"/>
<path d="M31.5797 111.697L16.8888 110.833C16.8384 110.83 16.7892 110.817 16.7438 110.795C16.6984 110.773 16.6578 110.742 16.6243 110.704C16.5567 110.628 16.522 110.528 16.528 110.427C16.534 110.325 16.5802 110.23 16.6563 110.162C16.7324 110.094 16.8323 110.06 16.934 110.066L31.6272 110.931C31.7289 110.937 31.824 110.983 31.8917 111.059C31.9593 111.135 31.994 111.235 31.988 111.337C31.982 111.438 31.9358 111.534 31.8597 111.601C31.7836 111.669 31.6837 111.703 31.582 111.697H31.5797Z" fill="white"/>
<path d="M33.1599 116.007C33.0717 116.007 33.3662 116.032 4.61232 114.107C4.51065 114.1 4.4158 114.053 4.34865 113.977C4.2815 113.9 4.24754 113.8 4.25425 113.698C4.26096 113.596 4.30779 113.501 4.38443 113.434C4.46107 113.367 4.56125 113.333 4.66293 113.34L33.186 115.24C33.2877 115.243 33.3838 115.287 33.4534 115.361C33.5229 115.435 33.5601 115.534 33.5567 115.636C33.5534 115.738 33.5098 115.834 33.4355 115.903C33.3612 115.973 33.2624 116.01 33.1607 116.007L33.1599 116.007Z" fill="white"/>
<path d="M38.8512 99.2431C38.4272 99.2431 27.9519 97.8132 12.3984 97.064C12.3481 97.0616 12.2987 97.0492 12.2532 97.0277C12.2077 97.0062 12.1668 96.9759 12.133 96.9386C12.0992 96.9013 12.0731 96.8577 12.0561 96.8103C12.0391 96.7629 12.0317 96.7126 12.0342 96.6623C12.0359 96.6118 12.0477 96.5621 12.069 96.5163C12.0902 96.4704 12.1204 96.4293 12.1578 96.3953C12.1951 96.3613 12.2389 96.3351 12.2866 96.3183C12.3342 96.3014 12.3847 96.2943 12.4352 96.2973C21.2772 96.7253 30.1022 97.4528 38.8949 98.4787C38.9966 98.4845 39.0918 98.5304 39.1596 98.6064C39.2274 98.6824 39.2622 98.7822 39.2564 98.8839C39.2506 98.9856 39.2047 99.0808 39.1287 99.1486C39.0527 99.2164 38.9529 99.2512 38.8512 99.2454V99.2431Z" fill="#4B1010"/>
<path d="M38.428 97.433C38.3513 97.433 38.2118 97.4085 27.8407 96.2062C27.7419 96.1921 27.6524 96.1399 27.5914 96.0608C27.5305 95.9816 27.5028 95.8819 27.5143 95.7826C27.5258 95.6834 27.5755 95.5926 27.653 95.5295C27.7304 95.4664 27.8294 95.436 27.9289 95.4449L38.4717 96.6717C38.5221 96.6745 38.5714 96.6873 38.6168 96.7092C38.6622 96.7311 38.7028 96.7618 38.7364 96.7994C38.77 96.837 38.7958 96.8809 38.8124 96.9285C38.829 96.9761 38.8361 97.0265 38.8332 97.0769C38.8304 97.1272 38.8176 97.1765 38.7957 97.2219C38.7738 97.2673 38.7431 97.308 38.7055 97.3416C38.6679 97.3751 38.624 97.401 38.5764 97.4176C38.5288 97.4342 38.4784 97.4413 38.428 97.4384V97.433Z" fill="#4B1010"/>
<path d="M38.7602 95.3712C38.6835 95.3712 38.8231 95.3804 23.3486 93.7304C23.2496 93.7171 23.1597 93.6657 23.098 93.5872C23.0363 93.5086 23.0077 93.4091 23.0183 93.3098C23.0289 93.2104 23.0778 93.1192 23.1547 93.0554C23.2315 92.9916 23.3303 92.9603 23.4298 92.9682L38.7986 94.6068C38.8489 94.6095 38.8982 94.622 38.9437 94.6437C38.9892 94.6655 39.03 94.696 39.0637 94.7334C39.0974 94.7709 39.1234 94.8147 39.1402 94.8622C39.157 94.9098 39.1643 94.9601 39.1616 95.0105C39.1589 95.0608 39.1464 95.1102 39.1247 95.1556C39.1029 95.2011 39.0724 95.2419 39.035 95.2756C38.9975 95.3093 38.9537 95.3353 38.9062 95.3521C38.8586 95.3689 38.8083 95.3762 38.7579 95.3735L38.7602 95.3712Z" fill="#4B1010"/>
<path d="M38.2812 90.7701C35.2571 90.5501 23.062 89.7358 20.5095 89.5548C20.4078 89.5476 20.3131 89.5003 20.2463 89.4233C20.1796 89.3463 20.1461 89.2459 20.1533 89.1442C20.1605 89.0426 20.2078 88.9479 20.2848 88.8811C20.3618 88.8143 20.4622 88.7809 20.5639 88.7881C23.1156 88.969 35.3116 89.7848 38.3371 90.0034C38.4388 90.0108 38.5334 90.0583 38.6 90.1354C38.6667 90.2126 38.7 90.3131 38.6925 90.4147C38.6851 90.5164 38.6376 90.611 38.5605 90.6776C38.4833 90.7443 38.3828 90.7775 38.2812 90.7701Z" fill="#4B1010"/>
<path d="M38.6791 89.1237C38.6791 89.1237 26.5484 88.4229 20.7794 87.9966C20.729 87.9928 20.6799 87.9792 20.6348 87.9565C20.5898 87.9338 20.5496 87.9024 20.5166 87.8642C20.4837 87.826 20.4585 87.7816 20.4427 87.7337C20.4269 87.6857 20.4207 87.6352 20.4244 87.5848C20.4281 87.5345 20.4417 87.4853 20.4644 87.4403C20.4871 87.3952 20.5185 87.355 20.5567 87.322C20.595 87.2891 20.6393 87.264 20.6873 87.2481C20.7352 87.2323 20.7858 87.2261 20.8361 87.2298C26.599 87.6554 33.5941 88.0594 38.7014 88.3554C38.8031 88.3583 38.8994 88.4016 38.9692 88.4755C39.039 88.5495 39.0766 88.6482 39.0736 88.7499C39.0707 88.8516 39.0275 88.9479 38.9535 89.0177C38.8795 89.0875 38.7808 89.1251 38.6791 89.1221V89.1237Z" fill="#4B1010"/>
<path d="M38.9414 87.3847L22.2762 86.2415C22.1745 86.2346 22.0797 86.1876 22.0127 86.1108C21.9457 86.034 21.9119 85.9337 21.9189 85.8321C21.9258 85.7304 21.9728 85.6356 22.0496 85.5686C22.1264 85.5016 22.2266 85.4678 22.3283 85.4748L38.9936 86.618C39.0953 86.6249 39.19 86.6719 39.257 86.7487C39.324 86.8255 39.3578 86.9258 39.3509 87.0274C39.344 87.1291 39.297 87.2239 39.2202 87.2909C39.1434 87.3579 39.0431 87.3916 38.9414 87.3847Z" fill="#4B1010"/>
<path d="M39.5187 85.701L22.7453 84.6122C22.644 84.6055 22.5494 84.5588 22.4824 84.4825C22.4154 84.4062 22.3815 84.3064 22.388 84.205C22.3957 84.104 22.4426 84.01 22.5186 83.9431C22.5947 83.8762 22.694 83.8417 22.7951 83.847L39.5685 84.9357C39.6189 84.939 39.6681 84.9522 39.7134 84.9745C39.7586 84.9968 39.799 85.0277 39.8323 85.0657C39.8656 85.1036 39.8911 85.1477 39.9074 85.1954C39.9236 85.2432 39.9303 85.2937 39.927 85.344C39.9237 85.3944 39.9106 85.4436 39.8883 85.4889C39.866 85.5341 39.835 85.5745 39.7971 85.6078C39.7592 85.6411 39.7151 85.6666 39.6673 85.6829C39.6195 85.6991 39.569 85.7058 39.5187 85.7025V85.701Z" fill="#4B1010"/>
<path d="M39.6812 84.189L27.0222 83.3794C26.9205 83.3728 26.8256 83.3262 26.7583 83.2497C26.691 83.1732 26.6569 83.0731 26.6634 82.9714C26.6699 82.8698 26.7165 82.7748 26.793 82.7075C26.8695 82.6402 26.9696 82.6061 27.0713 82.6126L39.7303 83.4223C39.7807 83.4255 39.8299 83.4386 39.8752 83.4609C39.9204 83.4831 39.9609 83.514 39.9942 83.5519C40.0275 83.5898 40.0531 83.6339 40.0694 83.6816C40.0857 83.7294 40.0924 83.7799 40.0892 83.8302C40.0859 83.8805 40.0728 83.9298 40.0506 83.975C40.0283 84.0203 39.9974 84.0608 39.9595 84.0941C39.9216 84.1274 39.8776 84.153 39.8298 84.1692C39.7821 84.1855 39.7316 84.1923 39.6812 84.189Z" fill="#4B1010"/>
<path d="M25.1295 80.7233C25.0732 80.7234 25.0176 80.711 24.9666 80.6871C24.9156 80.6633 24.8706 80.6285 24.8345 80.5852C24.7985 80.542 24.7725 80.4913 24.7583 80.4369C24.744 80.3824 24.742 80.3255 24.7522 80.2702C24.664 80.287 24.5506 80.287 24.4455 80.3146L23.1666 80.6812C23.0853 80.7051 22.9984 80.7015 22.9194 80.6708C22.8404 80.6401 22.7738 80.5841 22.73 80.5116C22.6862 80.4391 22.6677 80.3541 22.6773 80.2699C22.6869 80.1857 22.7242 80.1071 22.7832 80.0463C23.2084 79.6056 23.7479 79.2921 24.3412 79.1408C24.4004 79.1255 24.4623 79.1247 24.5218 79.1382C24.5814 79.1518 24.6368 79.1793 24.6835 79.2186C24.7303 79.2579 24.7669 79.3078 24.7905 79.3642C24.814 79.4205 24.8238 79.4817 24.8189 79.5425C24.9411 79.5504 25.0595 79.5878 25.1641 79.6515C25.2687 79.7152 25.3562 79.8033 25.4193 79.9083L25.496 79.896C25.5722 79.7262 25.7036 79.5873 25.8689 79.5018C26.0342 79.4163 26.2235 79.3893 26.4061 79.4252C26.7587 79.5273 27.0625 79.7533 27.2618 80.0616C27.2889 80.1041 27.3073 80.1514 27.3161 80.201C27.3249 80.2506 27.3238 80.3014 27.313 80.3506C27.3021 80.3997 27.2817 80.4463 27.2528 80.4875C27.224 80.5288 27.1873 80.564 27.1449 80.5911C27.1024 80.6181 27.055 80.6366 27.0055 80.6454C26.9559 80.6542 26.9051 80.6531 26.8559 80.6422C26.8068 80.6314 26.7602 80.611 26.7189 80.5821C26.6777 80.5533 26.6425 80.5166 26.6154 80.4741C26.5224 80.3291 26.3821 80.2207 26.2182 80.1674C26.2268 80.2176 26.2252 80.269 26.2136 80.3186C26.2021 80.3682 26.1807 80.415 26.1509 80.4562C26.1211 80.4975 26.0833 80.5324 26.0399 80.5589C25.9964 80.5854 25.9481 80.603 25.8977 80.6106C25.2015 80.7164 25.1785 80.7233 25.1295 80.7233Z" fill="#4B1010"/>
<path d="M135.762 73.9207C136.511 74.6752 137.04 75.6196 137.292 76.6523C137.544 77.685 137.51 78.7669 137.193 79.7817C136.197 82.2399 133.241 83.2482 130.594 83.3854C131.566 83.0159 132.664 82.4853 132.926 81.5123C133.187 80.5393 132.34 79.3891 131.359 78.8923C128.773 77.5827 125.298 78.6155 123.031 76.8221C122.034 76.0308 121.466 74.8132 120.618 73.8601C118.778 71.7899 115.793 71.1589 113.019 71.1589C110.111 71.1589 107.078 71.8551 104.916 73.788C103.899 74.6982 103.062 75.9395 101.783 76.4885C100.698 76.885 99.517 76.9417 98.3982 76.6511C96.8309 76.4221 95.3987 75.6356 94.3643 74.4359C92.771 72.3113 94.2654 70.3921 94.1573 68.134C93.6896 58.3672 80.0261 55.5548 79.563 48.6509C78.9381 49.8601 78.5817 51.1899 78.518 52.5494C78.4543 53.909 78.685 55.2663 79.1942 56.5285C78.1456 55.6188 77.4007 54.4099 77.0594 53.0643C76.7181 51.7187 76.7968 50.3009 77.285 49.0014C76.6279 50.6583 74.8314 52.3612 73.6299 53.6831C72.1187 55.3508 70.362 56.8207 69.2541 58.8065C68.5149 60.14 68.1004 61.6289 68.0441 63.1525C67.9879 64.6761 68.2916 66.1915 68.9305 67.5758C66.9316 66.7654 65.0699 62.4877 64.3569 60.6069C61.283 52.5031 63.2581 42.5614 70.3981 38.7469C70.8666 38.4961 76.0252 36.9465 75.9892 37.1988C76.6279 31.4543 84.1934 30.7198 88.4312 32.1658C91.9171 33.3895 95.103 35.3403 97.7775 37.889C100.452 40.4376 102.554 43.5258 103.944 46.9488C104.639 48.5325 104.966 50.2534 104.899 51.9817C104.814 53.4692 104.209 54.9076 104.242 56.4028C104.301 59.1033 106.152 60.1668 108.545 60.7779C110.728 61.3079 112.842 62.0874 114.847 63.1011C117.927 64.7036 119.349 66.9348 121.411 69.6729C121.71 70.1343 122.088 70.5397 122.527 70.8706C125.571 72.664 131.911 69.9382 135.762 73.9207Z" fill="#FFB43B"/>
<path d="M136.037 73.6537C132.838 70.3428 128.585 71.5704 124.275 71.0467C123.743 70.9885 123.227 70.8246 122.758 70.5644C122.348 70.2541 121.995 69.8741 121.717 69.4419C119.627 66.6479 118.108 64.4113 115.02 62.7582C112.992 61.733 110.853 60.9443 108.644 60.4073C105.831 59.6536 104.667 58.4904 104.625 56.3926C104.589 54.9097 105.202 53.3938 105.282 51.9953C105.362 50.2123 105.025 48.4354 104.299 46.8052C102.906 43.3198 100.779 40.1753 98.0623 37.586C95.3454 34.9966 92.1024 33.0231 88.5541 31.7999C85.6964 30.8353 81.3052 30.8139 78.4414 32.638C77.6982 33.0927 77.0634 33.7044 76.5813 34.4302C76.0992 35.156 75.7815 35.9783 75.6505 36.8397C73.8068 37.2392 71.9922 37.7623 70.2188 38.4054C62.835 42.3159 60.8775 52.5412 63.9982 60.7401C64.6676 62.5105 67.0284 67.7796 68.8931 67.9544C69.4747 69.505 70.3986 70.9044 71.5961 72.0483C72.7935 73.1923 74.2336 74.0513 75.8092 74.5615C77.2286 74.936 78.7095 75.0174 80.1615 74.8007C81.6134 74.584 83.006 74.0737 84.2542 73.301C86.5772 71.8427 88.4623 69.783 89.7096 67.3402C90.5403 65.7696 91.1883 64.109 91.641 62.3909C92.8935 64.061 93.6345 66.0586 93.7741 68.1415C93.8447 70.3444 92.3349 72.364 94.0747 74.6811C95.1574 75.9421 96.6579 76.7712 98.3018 77.0166C99.5027 77.3294 100.771 77.2663 101.935 76.8357C103.315 76.2445 104.147 74.9679 105.175 74.0662C107.467 71.976 110.706 71.5359 113.02 71.5359C115.31 71.5359 118.437 71.9821 120.331 74.1076C121.167 75.0499 121.733 76.2759 122.794 77.1163C125.185 79.0048 128.686 77.9597 131.186 79.2279C132 79.6389 132.763 80.6349 132.556 81.4063C132.339 82.2136 131.32 82.6929 130.458 83.0203C130.374 83.0519 130.303 83.1121 130.259 83.1904C130.215 83.2687 130.199 83.36 130.216 83.4484C130.232 83.5369 130.279 83.6168 130.348 83.6742C130.417 83.7316 130.504 83.7628 130.594 83.7625H130.613C134.05 83.5869 136.642 82.1523 137.559 79.8965C137.899 78.8163 137.938 77.6632 137.67 76.5626C137.402 75.4621 136.837 74.456 136.037 73.6537ZM85.1091 71.9668C80.3552 75.7507 73.6715 75.0338 70.3438 69.4189C69.4459 67.9414 68.8834 66.2849 68.696 64.5661C68.4722 58.8715 69.9627 58.1446 74.62 53.1776C75.241 52.5159 75.9073 51.8067 76.4778 51.0714C76.4315 52.1525 76.629 53.2301 77.0557 54.2245C77.4824 55.2189 78.1274 56.1046 78.9429 56.8158C79.0079 56.8722 79.09 56.905 79.1759 56.909C79.2619 56.913 79.3467 56.888 79.4167 56.838C79.4867 56.788 79.5378 56.7159 79.5619 56.6333C79.586 56.5507 79.5816 56.4624 79.5494 56.3826C78.7194 54.3274 78.6716 52.0392 79.4152 49.9511C80.7516 54.3853 87.4507 57.3503 91.1511 61.7821C90.2256 65.7025 88.288 69.5232 85.1091 71.9668ZM136.839 79.6343C136.078 81.5052 134.162 82.3386 132.589 82.7097C132.928 82.4192 133.173 82.0359 133.296 81.6071C133.613 80.4263 132.628 79.0983 131.533 78.5455C128.874 77.193 125.412 78.2074 123.269 76.5167C122.342 75.7814 121.747 74.5492 120.905 73.603C118.82 71.2645 115.466 70.7737 113.02 70.7737C110.573 70.7737 107.132 71.2468 104.662 73.4972C103.624 74.4097 102.814 75.6257 101.651 76.1264C100.624 76.4992 99.508 76.5492 98.452 76.2698C96.9845 76.0567 95.6422 75.3237 94.6697 74.2042C93.1952 72.2375 94.6145 70.4724 94.5386 68.1078C94.3741 65.5972 93.395 63.2088 91.7499 61.3052C87.7183 56.4601 80.2632 53.38 79.942 48.6231C79.9369 48.5394 79.9045 48.4596 79.8498 48.396C79.795 48.3324 79.7209 48.2886 79.6388 48.2712C79.5567 48.2538 79.4712 48.2638 79.3954 48.2997C79.3195 48.3355 79.2575 48.3953 79.2189 48.4698C78.1853 50.4672 77.8681 52.7588 78.3203 54.9619C77.7541 54.1136 77.3972 53.1431 77.2789 52.13C77.1607 51.117 77.2845 50.0904 77.6402 49.1346C77.6719 49.0409 77.6662 48.9386 77.6243 48.8491C77.5823 48.7595 77.5074 48.6896 77.4152 48.654C77.323 48.6184 77.2205 48.6197 77.1293 48.6579C77.038 48.696 76.9651 48.7679 76.9256 48.8585C76.1924 50.2774 75.2223 51.5608 74.0572 52.6532C73.0159 53.7634 73.3019 53.4966 72.0851 54.7433C70.8635 55.8911 69.7978 57.1942 68.9153 58.6192C68.256 59.8202 67.846 61.142 67.7101 62.5053C67.5741 63.8686 67.7149 65.2453 68.1241 66.5528C66.8428 65.3015 65.5731 62.7497 64.7113 60.4686C61.7278 52.6279 63.565 42.7989 70.5761 39.0825C72.3009 38.463 74.0631 37.9528 75.8521 37.5551C75.906 37.5753 75.9637 37.5832 76.021 37.578C76.0783 37.5729 76.1337 37.5549 76.1831 37.5255C76.2325 37.496 76.2747 37.4558 76.3064 37.4079C76.3382 37.3599 76.3588 37.3054 76.3666 37.2484C76.4437 36.4397 76.7084 35.6602 77.1396 34.9717C77.5709 34.2833 78.1568 33.705 78.8509 33.2828C81.5115 31.5875 85.6213 31.6174 88.3041 32.5237C91.7496 33.712 94.8985 35.629 97.5364 38.144C100.174 40.659 102.239 43.7131 103.59 47.0981C104.27 48.6209 104.586 50.2809 104.514 51.947C104.437 53.2505 103.817 54.8077 103.856 56.4056C103.918 59.5148 106.21 60.5461 108.452 61.1464C110.603 61.6692 112.687 62.4368 114.663 63.4344C117.352 64.8744 118.746 66.7491 120.516 69.1176C120.999 69.9077 121.612 70.6107 122.329 71.197C122.897 71.5232 123.527 71.7296 124.178 71.8035C128.638 72.3463 132.612 71.1548 135.476 74.1804C136.184 74.8762 136.685 75.7539 136.926 76.7166C137.166 77.6794 137.136 78.6899 136.839 79.6366V79.6343Z" fill="#4B1010"/>
<path d="M90.6185 63.1125C90.5335 63.1124 90.451 63.0841 90.3839 63.032C89.5862 62.414 88.9532 61.6088 88.5411 60.6876C88.129 59.7665 87.9506 58.758 88.0215 57.7514C88.0302 57.6504 88.0777 57.5568 88.1541 57.4902C88.2305 57.4237 88.3298 57.3895 88.431 57.3948C88.4812 57.3983 88.5303 57.4117 88.5754 57.4342C88.6205 57.4567 88.6607 57.4878 88.6937 57.5258C88.7268 57.5638 88.752 57.608 88.7679 57.6558C88.7839 57.7036 88.7903 57.754 88.7868 57.8043C88.7248 58.6856 88.8813 59.5685 89.2424 60.3748C89.6036 61.1811 90.1582 61.8857 90.857 62.4262C90.9203 62.4754 90.9667 62.5432 90.9895 62.6201C91.0123 62.6971 91.0104 62.7792 90.9841 62.855C90.9577 62.9307 90.9083 62.9963 90.8427 63.0425C90.7772 63.0887 90.6987 63.1132 90.6185 63.1125Z" fill="#4B1010"/>
<path d="M90.0156 59.4735C89.1885 59.4737 88.3722 59.6617 87.6284 60.0234C86.8846 60.385 86.2327 60.9109 85.7218 61.5614C85.2905 61.139 84.74 60.8593 84.1446 60.7601C84.6122 59.4603 84.5706 58.0318 84.0283 56.7613C83.4859 55.4909 82.483 54.4728 81.2209 53.9114C79.9587 53.3501 78.5309 53.2871 77.2243 53.7351C75.9176 54.1832 74.8289 55.109 74.1768 56.3268C73.2478 56.0508 72.3634 55.6425 71.5507 55.1145C71.5085 55.0855 71.461 55.0651 71.4108 55.0547C71.3607 55.0444 71.3089 55.0441 71.2587 55.0541C71.2085 55.064 71.1607 55.0839 71.1183 55.1126C71.0759 55.1413 71.0396 55.1782 71.0117 55.2211C70.9838 55.2641 70.9647 55.3122 70.9557 55.3626C70.9467 55.413 70.9478 55.4647 70.9591 55.5147C70.9704 55.5646 70.9916 55.6118 71.0214 55.6534C71.0513 55.6951 71.0892 55.7303 71.1328 55.7571C71.9776 56.306 72.8948 56.7344 73.8579 57.0299C73.3813 58.3304 73.4159 59.7633 73.9546 61.0393C74.4933 62.3153 75.496 63.3395 76.7603 63.9051C78.0247 64.4706 79.4565 64.5355 80.7668 64.0866C82.0771 63.6376 83.1684 62.7083 83.8202 61.4862C84.0989 61.5039 84.3713 61.577 84.6214 61.7012C84.8715 61.8253 85.0944 61.998 85.277 62.2093C84.6753 63.252 84.4345 64.4642 84.5919 65.6579C84.7494 66.8515 85.2962 67.9598 86.1477 68.8109C86.9993 69.662 88.1078 70.2084 89.3015 70.3653C90.4952 70.5222 91.7073 70.2808 92.7498 69.6786C93.7923 69.0764 94.607 68.1471 95.0675 67.0347C95.528 65.9223 95.6086 64.689 95.2968 63.5262C94.985 62.3633 94.2981 61.3358 93.3429 60.6031C92.3876 59.8703 91.2172 59.4733 90.0133 59.4735H90.0156ZM78.9958 63.6139C78.0654 63.6141 77.1558 63.3383 76.3821 62.8215C75.6085 62.3047 75.0054 61.57 74.6493 60.7104C74.2932 59.8509 74.1999 58.905 74.3814 57.9924C74.5629 57.0799 75.0109 56.2416 75.6688 55.5837C76.3268 54.9258 77.165 54.4778 78.0776 54.2963C78.9901 54.1148 79.936 54.208 80.7956 54.5641C81.6551 54.9203 82.3898 55.5233 82.9066 56.297C83.4235 57.0707 83.6992 57.9803 83.6991 58.9107C83.6979 60.158 83.2019 61.3538 82.32 62.2359C81.4381 63.1179 80.2424 63.6141 78.9951 63.6155L78.9958 63.6139ZM90.0156 69.646C89.0851 69.6461 88.1755 69.3703 87.4019 68.8535C86.6282 68.3367 86.0251 67.602 85.669 66.7424C85.3129 65.8829 85.2197 64.937 85.4011 64.0244C85.5826 63.1119 86.0306 62.2736 86.6886 61.6157C87.3465 60.9578 88.1847 60.5098 89.0973 60.3283C90.0098 60.1468 90.9557 60.24 91.8153 60.5962C92.6749 60.9523 93.4095 61.5553 93.9263 62.329C94.4432 63.1027 94.7189 64.0123 94.7188 64.9427C94.7178 66.1899 94.222 67.3858 93.3402 68.2678C92.4585 69.1499 91.2628 69.6461 90.0156 69.6475V69.646Z" fill="#4B1010"/>
<path d="M143.586 70.1029L126.066 65.6013C125.803 65.5229 125.572 65.3606 125.41 65.1392C125.247 64.9177 125.161 64.6492 125.165 64.3745V57.0843C125.166 56.9164 125.2 56.7503 125.265 56.5955C125.33 56.4407 125.425 56.3003 125.545 56.1822C125.664 56.0642 125.806 55.9708 125.961 55.9074C126.117 55.8441 126.283 55.812 126.451 55.813C126.64 55.813 125.496 55.4296 144.234 59.3439C144.518 59.4056 144.771 59.5626 144.953 59.7889C145.134 60.0151 145.232 60.2968 145.231 60.5868V68.9053C145.227 69.1021 145.177 69.2953 145.086 69.4698C144.995 69.6443 144.864 69.7954 144.705 69.9114C144.546 70.0273 144.362 70.1048 144.168 70.1381C143.974 70.1713 143.775 70.1593 143.586 70.1029Z" fill="white"/>
<path d="M148.77 57.132L131.252 53.6295C130.79 53.5693 130.32 53.6274 129.886 53.7982C128.846 54.1378 126.175 55.4084 126.142 55.4229C125.762 55.5065 125.421 55.7157 125.174 56.0169C124.927 56.3181 124.789 56.6936 124.782 57.0829V64.3671C124.776 64.7274 124.889 65.0797 125.104 65.3692C125.319 65.6586 125.623 65.8691 125.97 65.968C144.653 71.1489 143.629 70.5302 143.921 70.5363C144.34 70.546 144.747 70.3955 145.059 70.1154L149.029 67.9294C149.264 67.7834 149.458 67.5803 149.593 67.339C149.729 67.0976 149.801 66.8259 149.803 66.5492L150.073 58.7606C150.074 58.3812 149.945 58.0129 149.708 57.7167C149.471 57.4205 149.14 57.2142 148.77 57.132ZM143.681 69.7312L126.174 65.2342C125.991 65.1785 125.831 65.0648 125.718 64.9102C125.605 64.7556 125.546 64.5684 125.549 64.377V57.0868C125.55 56.8504 125.645 56.6241 125.812 56.4573C125.98 56.2905 126.206 56.1968 126.443 56.1966C126.885 56.2571 131.59 57.0983 144.155 59.719C144.353 59.7624 144.53 59.8721 144.656 60.03C144.783 60.1879 144.853 60.3844 144.852 60.587V68.8978C144.85 69.0378 144.816 69.1754 144.751 69.2995C144.685 69.4235 144.592 69.5305 144.478 69.6116C144.364 69.6928 144.232 69.746 144.094 69.7667C143.955 69.7875 143.814 69.7754 143.681 69.7312Z" fill="#4B1010"/>
<path d="M141.102 68.1676L127.894 64.7816C127.693 64.7335 127.515 64.6178 127.39 64.4539C127.264 64.29 127.198 64.0879 127.204 63.8814V58.4797C127.2 58.3615 127.219 58.2437 127.261 58.133C127.302 58.0222 127.365 57.9208 127.446 57.8343C127.526 57.7479 127.623 57.6782 127.731 57.6292C127.839 57.5802 127.955 57.5529 128.073 57.5489C128.226 57.5435 127.138 57.3771 141.546 60.1995C141.754 60.2397 141.941 60.3521 142.075 60.5167C142.208 60.6814 142.279 60.8878 142.275 61.0997V67.213C142.292 67.3624 142.27 67.5136 142.213 67.6527C142.156 67.7918 142.065 67.9143 141.948 68.0092C141.832 68.1041 141.693 68.1683 141.545 68.196C141.398 68.2237 141.245 68.2139 141.102 68.1676Z" fill="white"/>
<path d="M141.374 68.5941C141.139 68.5941 142.225 68.7053 127.797 65.1537C127.513 65.083 127.26 64.9176 127.082 64.6846C126.904 64.4517 126.81 64.165 126.816 63.8717V58.4799C126.811 58.2802 126.853 58.0821 126.938 57.9014C127.023 57.7207 127.15 57.5624 127.307 57.4391C127.464 57.3157 127.648 57.2307 127.843 57.1909C128.039 57.151 128.242 57.1574 128.434 57.2094L141.616 59.824C141.912 59.881 142.179 60.041 142.369 60.2757C142.559 60.5105 142.66 60.8049 142.654 61.1068V67.2132C142.667 67.3895 142.644 67.5667 142.586 67.7337C142.528 67.9006 142.436 68.0538 142.316 68.1835C142.196 68.3132 142.05 68.4166 141.888 68.4873C141.726 68.5579 141.551 68.5943 141.374 68.5941ZM128.098 57.9317C128.028 57.9318 127.96 57.946 127.896 57.9733C127.832 58.0006 127.774 58.0405 127.726 58.0906C127.678 58.1407 127.641 58.2 127.616 58.2649C127.591 58.3298 127.58 58.399 127.583 58.4684V63.8832C127.578 64.0034 127.616 64.1215 127.688 64.2175C127.76 64.3136 127.864 64.3818 127.98 64.4107C142.25 67.9155 141.292 67.8411 141.431 67.8258C141.499 67.819 141.564 67.7989 141.624 67.7665C141.684 67.7341 141.737 67.6901 141.78 67.6371C141.823 67.5841 141.855 67.5231 141.874 67.4577C141.893 67.3923 141.898 67.3238 141.891 67.2561V61.0999C141.894 60.977 141.854 60.8569 141.777 60.761C141.7 60.6651 141.591 60.5996 141.471 60.5762C131.912 58.7023 128.175 57.9317 128.098 57.9317Z" fill="#4B1010"/>
<path d="M137.797 65.8764C137.721 65.8764 137.768 65.8764 136.028 65.48C135.944 65.4608 135.87 65.4143 135.816 65.3479C135.762 65.2815 135.732 65.199 135.73 65.1135L135.658 61.1264C135.657 61.0696 135.669 61.0133 135.692 60.9615C135.716 60.9098 135.751 60.864 135.794 60.8273C135.837 60.7906 135.888 60.764 135.943 60.7494C135.998 60.7348 136.056 60.7326 136.111 60.743L137.866 61.0666C137.955 61.0827 138.035 61.1293 138.092 61.1982C138.149 61.2672 138.181 61.3541 138.181 61.4438V65.4953C138.18 65.5966 138.14 65.6935 138.068 65.7649C137.996 65.8363 137.899 65.8764 137.797 65.8764ZM136.494 64.7991L137.414 65.0115V61.7605L136.433 61.5795L136.494 64.7991Z" fill="#4B1010"/>
<path d="M130.531 64.0569C130.455 64.0569 130.502 64.0569 128.762 63.6604C128.678 63.6412 128.603 63.5945 128.549 63.5278C128.496 63.4611 128.466 63.3782 128.464 63.2924L128.401 59.3053C128.4 59.2485 128.412 59.1922 128.436 59.1405C128.459 59.0888 128.494 59.0429 128.537 59.0062C128.58 58.9695 128.631 58.9429 128.686 58.9284C128.741 58.9138 128.799 58.9116 128.855 58.9219L130.601 59.2463C130.689 59.2626 130.769 59.3091 130.826 59.3779C130.883 59.4466 130.915 59.5333 130.915 59.6227V63.6735C130.915 63.7752 130.874 63.8727 130.803 63.9446C130.731 64.0165 130.633 64.0569 130.531 64.0569ZM129.228 62.9834L130.148 63.195V59.944L129.175 59.7638L129.228 62.9834Z" fill="#4B1010"/>
<path d="M134.844 62.2753C134.742 62.2753 134.645 62.235 134.573 62.1631C134.501 62.0912 134.46 61.9937 134.46 61.892V61.1436C134.46 61.042 134.501 60.9444 134.573 60.8725C134.645 60.8006 134.742 60.7603 134.844 60.7603C134.946 60.7603 135.043 60.8006 135.115 60.8725C135.187 60.9444 135.227 61.042 135.227 61.1436V61.8904C135.227 61.9409 135.218 61.9909 135.198 62.0376C135.179 62.0843 135.151 62.1268 135.115 62.1625C135.08 62.1983 135.038 62.2267 134.991 62.246C134.944 62.2654 134.894 62.2753 134.844 62.2753Z" fill="#4B1010"/>
<path d="M134.844 64.6431C134.742 64.6431 134.645 64.6027 134.573 64.5308C134.501 64.4589 134.46 64.3614 134.46 64.2597V63.5758C134.46 63.4741 134.501 63.3766 134.573 63.3047C134.645 63.2328 134.742 63.1924 134.844 63.1924C134.946 63.1924 135.043 63.2328 135.115 63.3047C135.187 63.3766 135.227 63.4741 135.227 63.5758V64.2597C135.227 64.3614 135.187 64.4589 135.115 64.5308C135.043 64.6027 134.946 64.6431 134.844 64.6431Z" fill="#4B1010"/>
<path d="M143.982 55.1631C144.185 55.1631 144.38 55.2439 144.524 55.3877C144.668 55.5315 144.748 55.7265 144.748 55.9298V57.2333C144.748 57.4367 144.668 57.6317 144.524 57.7755C144.38 57.9193 144.185 58.0001 143.982 58.0001C143.778 58.0001 143.583 57.9193 143.439 57.7755C143.296 57.6317 143.215 57.4367 143.215 57.2333V55.9298C143.215 55.7265 143.296 55.5315 143.439 55.3877C143.583 55.2439 143.778 55.1631 143.982 55.1631Z" fill="white"/>
<path d="M143.982 54.7795C143.677 54.7795 143.385 54.9007 143.169 55.1164C142.953 55.3321 142.832 55.6246 142.832 55.9297V57.2331C142.832 57.5382 142.953 57.8307 143.169 58.0464C143.385 58.2621 143.677 58.3833 143.982 58.3833C144.287 58.3833 144.58 58.2621 144.795 58.0464C145.011 57.8307 145.132 57.5382 145.132 57.2331V55.9297C145.132 55.6246 145.011 55.3321 144.795 55.1164C144.58 54.9007 144.287 54.7795 143.982 54.7795ZM144.366 57.2331C144.366 57.3348 144.325 57.4323 144.253 57.5042C144.181 57.5761 144.084 57.6165 143.982 57.6165C143.88 57.6165 143.783 57.5761 143.711 57.5042C143.639 57.4323 143.599 57.3348 143.599 57.2331V55.9297C143.599 55.828 143.639 55.7305 143.711 55.6586C143.783 55.5867 143.88 55.5463 143.982 55.5463C144.084 55.5463 144.181 55.5867 144.253 55.6586C144.325 55.7305 144.366 55.828 144.366 55.9297V57.2331Z" fill="#4B1010"/>
<path d="M50.4287 111.353C50.3667 111.353 50.3056 111.338 50.2507 111.309C50.1958 111.28 50.1488 111.238 50.1135 111.187C48.1461 108.352 46.0823 105.585 43.9259 102.89C43.8623 102.811 43.8329 102.709 43.8441 102.608C43.8554 102.507 43.9063 102.415 43.9857 102.351C44.0651 102.288 44.1665 102.258 44.2676 102.269C44.3687 102.281 44.4612 102.332 44.5247 102.411C46.692 105.119 48.766 107.901 50.743 110.751C50.7829 110.808 50.8063 110.876 50.8107 110.945C50.815 111.015 50.8002 111.085 50.7679 111.147C50.7355 111.209 50.6868 111.261 50.627 111.297C50.5672 111.333 50.4986 111.353 50.4287 111.353Z" fill="#4B1010"/>
<path d="M53.2293 111.019C53.1697 111.019 53.111 111.005 53.0578 110.978C53.0046 110.952 52.9583 110.913 52.9226 110.865L48.7821 105.464C48.7203 105.383 48.6931 105.281 48.7065 105.18C48.7198 105.079 48.7727 104.988 48.8534 104.926C48.9342 104.864 49.0361 104.837 49.1369 104.85C49.2377 104.864 49.3291 104.917 49.3909 104.997L53.5314 110.399C53.5756 110.456 53.6031 110.524 53.6106 110.595C53.6182 110.667 53.6055 110.739 53.574 110.803C53.5425 110.868 53.4934 110.922 53.4325 110.961C53.3715 110.999 53.3011 111.019 53.2293 111.019Z" fill="#4B1010"/>
<path d="M56.6681 111.001C56.6109 111.001 56.5544 110.989 56.5028 110.964C56.4512 110.939 56.4058 110.903 56.3698 110.859C54.0061 107.934 51.7511 104.924 49.6094 101.833C49.5518 101.749 49.5298 101.645 49.5485 101.545C49.5671 101.445 49.6247 101.356 49.7087 101.299C49.7927 101.241 49.8961 101.219 49.9963 101.238C50.0965 101.256 50.1851 101.314 50.2428 101.398C52.3736 104.473 54.6173 107.469 56.9694 110.378C57.0148 110.435 57.0432 110.503 57.0514 110.575C57.0596 110.647 57.0472 110.72 57.0157 110.785C56.9841 110.85 56.9347 110.905 56.8732 110.943C56.8117 110.982 56.7406 111.002 56.6681 111.001Z" fill="#4B1010"/>
<path d="M60.1253 110.506C60.0645 110.506 60.0046 110.491 59.9504 110.464C59.8963 110.436 59.8496 110.396 59.814 110.346L51.3507 98.5514C51.3213 98.5105 51.3003 98.4641 51.2889 98.4151C51.2774 98.366 51.2757 98.3152 51.2839 98.2655C51.3004 98.1652 51.3562 98.0755 51.4388 98.0162C51.5215 97.9569 51.6243 97.9329 51.7247 97.9494C51.8251 97.966 51.9148 98.0217 51.974 98.1044L60.4405 109.899C60.4817 109.957 60.5061 110.025 60.5111 110.095C60.5162 110.166 60.5015 110.236 60.4689 110.299C60.4363 110.362 60.3869 110.415 60.3263 110.451C60.2656 110.487 60.1961 110.506 60.1253 110.506Z" fill="#4B1010"/>
<path d="M62.1605 109.146C62.101 109.146 62.0423 109.133 61.989 109.106C61.9358 109.079 61.8895 109.041 61.8538 108.993L57.8928 103.591C57.8326 103.509 57.8074 103.407 57.8228 103.306C57.8382 103.206 57.8928 103.116 57.9748 103.055C58.0568 102.995 58.1593 102.97 58.2598 102.985C58.3603 103.001 58.4506 103.055 58.5108 103.137L62.4725 108.539C62.5138 108.596 62.5384 108.664 62.5437 108.735C62.5489 108.805 62.5346 108.875 62.5023 108.938C62.47 109.001 62.421 109.054 62.3607 109.09C62.3004 109.127 62.2311 109.147 62.1605 109.146Z" fill="#4B1010"/>
<path d="M65.3205 109.606C65.2573 109.606 65.195 109.591 65.1392 109.561C65.0835 109.531 65.0359 109.488 65.0007 109.436C62.3658 105.491 59.6022 101.633 56.7145 97.8686C56.6838 97.8286 56.6613 97.783 56.6483 97.7343C56.6353 97.6856 56.632 97.6349 56.6385 97.5849C56.6451 97.535 56.6615 97.4868 56.6867 97.4432C56.7119 97.3996 56.7454 97.3614 56.7854 97.3307C56.8254 97.3 56.871 97.2775 56.9197 97.2645C56.9683 97.2515 57.0191 97.2482 57.069 97.2548C57.119 97.2613 57.1671 97.2777 57.2108 97.3029C57.2544 97.3281 57.2926 97.3616 57.3233 97.4016C60.2078 101.159 63.0057 105.069 65.6387 109.009C65.6773 109.067 65.6995 109.134 65.7029 109.204C65.7064 109.273 65.6909 109.342 65.6583 109.403C65.6256 109.464 65.5769 109.515 65.5174 109.551C65.4579 109.587 65.3899 109.606 65.3205 109.606Z" fill="#4B1010"/>
<path d="M67.9489 109.065C67.8894 109.065 67.8307 109.051 67.7775 109.025C67.7243 108.998 67.6779 108.959 67.6422 108.912C65.5283 106.038 63.338 103.221 61.0735 100.465C61.0415 100.426 61.0175 100.381 61.0029 100.333C60.9883 100.284 60.9832 100.234 60.9882 100.184C60.9931 100.134 61.0078 100.085 61.0315 100.041C61.0552 99.9961 61.0875 99.9568 61.1264 99.9248C61.1653 99.8928 61.2102 99.8689 61.2583 99.8542C61.3065 99.8396 61.3571 99.8346 61.4073 99.8395C61.4574 99.8444 61.506 99.8591 61.5505 99.8828C61.5949 99.9066 61.6342 99.9388 61.6662 99.9777C63.9391 102.745 66.1379 105.573 68.2602 108.457C68.3017 108.514 68.3264 108.582 68.3318 108.653C68.3372 108.723 68.323 108.794 68.2908 108.857C68.2586 108.919 68.2096 108.972 68.1493 109.009C68.089 109.046 68.0196 109.065 67.9489 109.065Z" fill="#4B1010"/>
<path d="M70.6596 108.057C70.6018 108.057 70.5448 108.044 70.4927 108.019C70.4407 107.994 70.395 107.957 70.359 107.912C67.5242 104.344 64.8862 100.624 62.4569 96.768C62.4292 96.7254 62.4103 96.6778 62.4012 96.6278C62.3921 96.5778 62.393 96.5265 62.4039 96.4769C62.4148 96.4273 62.4355 96.3803 62.4647 96.3388C62.4939 96.2972 62.5311 96.2619 62.574 96.2348C62.617 96.2077 62.6649 96.1894 62.715 96.1811C62.7651 96.1727 62.8164 96.1743 62.8659 96.1859C62.9153 96.1975 62.962 96.2188 63.0031 96.2486C63.0443 96.2783 63.0791 96.316 63.1056 96.3593C65.5201 100.191 68.142 103.889 70.9594 107.435C71.0042 107.491 71.0322 107.559 71.0402 107.631C71.0482 107.703 71.0358 107.775 71.0045 107.84C70.9732 107.905 70.9243 107.96 70.8633 107.998C70.8022 108.036 70.7317 108.057 70.6596 108.057Z" fill="#4B1010"/>
<path d="M74.7377 107.949C74.6826 107.949 74.6281 107.937 74.578 107.914C74.5278 107.891 74.4832 107.858 74.4471 107.816C71.1792 104.028 68.0339 100.137 65.0161 96.1468C64.9551 96.0655 64.9289 95.9633 64.9433 95.8626C64.9577 95.7619 65.0115 95.6711 65.0928 95.6101C65.1741 95.5491 65.2764 95.5229 65.377 95.5373C65.4777 95.5517 65.5685 95.6055 65.6295 95.6868C68.6388 99.6632 71.7743 103.542 75.0314 107.318C75.0785 107.374 75.1086 107.442 75.1182 107.515C75.1278 107.587 75.1165 107.661 75.0856 107.727C75.0548 107.793 75.0056 107.849 74.944 107.889C74.8824 107.928 74.8108 107.949 74.7377 107.949Z" fill="#4B1010"/>
<path d="M77.8077 107.31C77.7539 107.31 77.7008 107.299 77.6516 107.277C77.6025 107.255 77.5585 107.223 77.5225 107.184C74.153 103.455 70.8287 99.6859 67.5501 95.8771C67.486 95.7997 67.4548 95.7003 67.4633 95.6002C67.4717 95.5001 67.5191 95.4073 67.5953 95.3418C67.6715 95.2762 67.7703 95.2432 67.8705 95.2499C67.9708 95.2565 68.0644 95.3022 68.1313 95.3771C71.39 99.161 74.7415 102.96 78.0922 106.67C78.1418 106.725 78.1745 106.793 78.1862 106.866C78.1978 106.94 78.188 107.015 78.1579 107.082C78.1278 107.15 78.0787 107.208 78.0165 107.248C77.9544 107.289 77.8818 107.31 77.8077 107.31Z" fill="#4B1010"/>
<path d="M30.0355 78.0939C29.9384 78.0942 29.8448 78.0576 29.7737 77.9916C29.7025 77.9255 29.6591 77.835 29.6521 77.7382C29.3099 73.0164 29.4522 68.2721 30.0769 63.5794C30.3062 60.8707 31.1242 58.2448 32.4737 55.885C35.1374 51.7845 40.0645 50.0493 44.5316 48.8892C50.9626 47.225 57.5333 46.1573 64.1604 45.6996C64.2615 45.694 64.3608 45.7282 64.4372 45.7948C64.5135 45.8614 64.5608 45.9551 64.5691 46.0561C64.576 46.1575 64.5424 46.2574 64.4757 46.334C64.409 46.4107 64.3146 46.4577 64.2133 46.4648C57.6346 46.9189 51.1118 47.979 44.7279 49.6314C40.4019 50.754 35.6412 52.4224 33.1316 56.2845C31.8419 58.548 31.0611 61.0654 30.8436 63.6614C30.2243 68.3086 30.0825 73.0069 30.4204 77.683C30.4242 77.7357 30.417 77.7887 30.3994 77.8385C30.3817 77.8884 30.3539 77.934 30.3178 77.9726C30.2816 78.0112 30.2379 78.0419 30.1893 78.0628C30.1407 78.0837 30.0883 78.0943 30.0355 78.0939Z" fill="#4B1010"/>
<path d="M143.667 91.864C143.431 91.2334 143.008 90.69 142.454 90.3064C141.901 89.9228 141.243 89.7173 140.57 89.7173C139.896 89.7173 139.239 89.9228 138.686 90.3064C138.132 90.69 137.709 91.2334 137.473 91.864C137.244 92.4122 137.062 92.9788 136.93 93.5577C135.911 92.7864 135.256 92.459 134.687 92.8124C134.536 92.9187 134.412 93.0584 134.324 93.2206C134.236 93.3828 134.187 93.5631 134.18 93.7474C134.174 93.9318 134.21 94.1152 134.286 94.2832C134.362 94.4513 134.476 94.5995 134.619 94.7163C135.265 95.2867 135.963 95.7954 136.704 96.236C136.647 97.4344 136.536 98.6405 136.474 99.8681C136.801 99.77 137.146 99.7537 137.48 99.8206C137.815 99.8874 138.127 100.035 138.391 100.251C138.732 100.527 138.922 100.688 139.3 100.468C140.052 100.271 140.847 100.328 141.562 100.631C141.627 100.649 141.695 100.649 141.76 100.631C141.832 100.592 141.894 100.537 141.94 100.469C142.238 100.219 142.59 100.042 142.968 99.9514C143.346 99.8608 143.74 99.8593 144.119 99.947C144.199 96.7489 144.823 94.7753 143.667 91.864Z" fill="white"/>
<path d="M146.038 94.8898L145.272 94.4956C145.463 94.3822 145.655 94.2771 145.858 94.182C145.907 94.1628 145.952 94.1337 145.989 94.0964C146.026 94.0592 146.056 94.0148 146.075 93.9658C146.094 93.9168 146.103 93.8644 146.101 93.8117C146.099 93.7591 146.087 93.7074 146.064 93.6599C146.041 93.6124 146.009 93.5701 145.969 93.5356C145.93 93.5011 145.883 93.4752 145.833 93.4594C145.783 93.4436 145.73 93.4384 145.677 93.444C145.625 93.4496 145.574 93.4659 145.529 93.492C145.225 93.6369 144.932 93.8011 144.649 93.9835C144.514 93.1115 144.266 92.261 143.911 91.4532L145.072 91.1173C145.167 91.0871 145.247 91.0208 145.294 90.9325C145.341 90.8442 145.352 90.741 145.324 90.6448C145.296 90.5487 145.232 90.4673 145.145 90.4181C145.057 90.3688 144.954 90.3556 144.858 90.3813L143.849 90.6734C143.981 90.3667 144.107 90.06 144.232 89.7472C144.252 89.7001 144.263 89.6494 144.263 89.5982C144.264 89.5469 144.254 89.4961 144.234 89.4488C144.214 89.4014 144.185 89.3585 144.149 89.3225C144.112 89.2865 144.069 89.2583 144.021 89.2393C143.974 89.2204 143.923 89.2112 143.872 89.2123C143.82 89.2135 143.77 89.2248 143.723 89.2458C143.676 89.2668 143.634 89.2969 143.599 89.3344C143.564 89.3719 143.537 89.4161 143.52 89.4642C143.398 89.7709 143.273 90.0743 143.143 90.3744C142.58 89.8259 141.857 89.4719 141.078 89.3639C140.299 89.2559 139.507 89.3996 138.816 89.774C138.802 89.1806 138.833 88.5869 138.908 87.9982C138.922 87.8973 138.894 87.7954 138.832 87.7149C138.77 87.6344 138.678 87.5818 138.577 87.5688C138.476 87.5558 138.374 87.5834 138.294 87.6455C138.213 87.7076 138.161 87.7992 138.148 87.9001C138.091 88.3402 138.058 88.7829 138.048 89.2265C137.94 89.133 137.828 89.0433 137.714 88.9574C137.674 88.9272 137.628 88.9052 137.579 88.8927C137.53 88.8802 137.479 88.8775 137.43 88.8846C137.38 88.8917 137.332 88.9086 137.289 88.9342C137.245 88.9599 137.207 88.9938 137.177 89.0341C137.147 89.0744 137.125 89.1202 137.112 89.169C137.1 89.2177 137.097 89.2685 137.104 89.3183C137.111 89.3682 137.128 89.4161 137.154 89.4594C137.18 89.5028 137.214 89.5406 137.254 89.5708C137.547 89.7919 137.818 90.0399 138.065 90.3115C137.65 90.7033 137.329 91.1826 137.123 91.7146C136.957 92.1143 136.812 92.5225 136.69 92.9376C136.248 92.5931 135.725 92.3667 135.171 92.2797L135.683 91.1296C135.724 91.0367 135.727 90.9311 135.69 90.8361C135.654 90.7412 135.581 90.6646 135.488 90.6232C135.395 90.5818 135.29 90.579 135.195 90.6155C135.1 90.6519 135.023 90.7246 134.982 90.8175L134.604 91.6663C134.545 91.5368 134.49 91.4056 134.438 91.2745C134.42 91.2275 134.393 91.1845 134.358 91.148C134.323 91.1116 134.281 91.0824 134.235 91.0621C134.189 91.0418 134.139 91.0308 134.089 91.0298C134.038 91.0288 133.988 91.0378 133.941 91.0562C133.894 91.0746 133.851 91.1021 133.815 91.1372C133.778 91.1722 133.749 91.2141 133.729 91.2603C133.709 91.3066 133.698 91.3564 133.698 91.4069C133.697 91.4573 133.706 91.5075 133.724 91.5544C133.854 91.885 134.004 92.2071 134.174 92.519C134.006 92.6295 133.868 92.78 133.773 92.957C133.678 93.1339 133.628 93.3317 133.629 93.5326C133.711 93.972 133.914 94.38 134.214 94.7111C133.833 94.8263 133.479 95.0158 133.172 95.2685C133.096 95.3338 133.048 95.4262 133.04 95.526C133.031 95.6258 133.062 95.725 133.125 95.8025C133.189 95.8799 133.28 95.9294 133.379 95.9404C133.479 95.9514 133.579 95.923 133.658 95.8612C133.818 95.7298 133.996 95.6207 134.186 95.5369C134.07 95.8835 133.967 96.2362 133.879 96.5904C133.855 96.6892 133.871 96.7936 133.924 96.8806C133.977 96.9676 134.062 97.0301 134.161 97.0543C134.26 97.0785 134.364 97.0624 134.451 97.0097C134.538 96.9569 134.6 96.8717 134.625 96.7729C134.727 96.3576 134.851 95.948 134.997 95.5461C135.394 95.8932 135.838 96.184 136.315 96.4102C136.285 96.9653 136.124 99.2571 136.093 99.8506C136.09 99.9117 136.102 99.9725 136.128 100.028C136.154 100.083 136.192 100.132 136.241 100.169C136.289 100.207 136.345 100.232 136.406 100.244C136.466 100.255 136.527 100.252 136.586 100.234C136.862 100.153 137.155 100.143 137.436 100.205C137.717 100.266 137.979 100.397 138.196 100.586C138.339 100.773 138.545 100.9 138.776 100.945C139.006 100.99 139.245 100.949 139.448 100.829C140.121 100.668 140.828 100.728 141.464 101.002C141.602 101.043 141.75 101.04 141.886 100.992C142.022 100.944 142.14 100.855 142.222 100.736C142.474 100.535 142.767 100.393 143.081 100.321C143.395 100.249 143.721 100.249 144.035 100.321C144.09 100.333 144.148 100.334 144.203 100.321C144.259 100.309 144.311 100.285 144.356 100.25C144.401 100.215 144.437 100.171 144.463 100.12C144.489 100.07 144.503 100.014 144.504 99.9572C144.539 98.5878 144.776 96.6494 144.742 95.083L145.693 95.5706C145.737 95.5936 145.786 95.6076 145.837 95.6117C145.887 95.6158 145.937 95.61 145.985 95.5946C146.033 95.5792 146.078 95.5545 146.116 95.5219C146.154 95.4893 146.186 95.4494 146.209 95.4046C146.232 95.3598 146.246 95.3109 146.25 95.2607C146.254 95.2105 146.248 95.16 146.233 95.112C146.218 95.0641 146.193 95.0196 146.16 94.9812C146.128 94.9428 146.088 94.9112 146.043 94.8882L146.038 94.8898ZM134.545 93.85C134.477 93.7754 134.433 93.682 134.42 93.5822C134.406 93.4823 134.423 93.3806 134.469 93.2906C134.514 93.2005 134.586 93.1264 134.674 93.0779C134.762 93.0294 134.863 93.0088 134.964 93.0189C135.529 93.1155 136.06 93.3575 136.504 93.7212C136.39 94.3279 136.335 94.9441 136.339 95.5614C135.613 95.1422 134.998 94.5554 134.545 93.85ZM136.885 99.4044C136.962 98.1285 137.071 96.9347 137.11 95.7301V95.7079C137.097 94.4348 137.343 93.1723 137.834 91.9976C138.001 91.5659 138.265 91.1788 138.607 90.8667C138.948 90.5545 139.358 90.3259 139.803 90.1988C138.008 92.5995 137.939 96.6548 137.937 99.5531C137.601 99.4284 137.242 99.3777 136.885 99.4044ZM140.191 99.9733C139.823 99.9696 139.457 100.026 139.108 100.14C139.057 100.17 139.001 100.191 139.014 100.196C138.938 100.196 138.839 100.124 138.708 100.014C138.708 98.6683 138.708 97.3487 138.827 95.954C139.78 96.8304 139.795 96.8933 139.999 96.8933C140.076 96.8932 140.151 96.8698 140.215 96.8263C140.279 96.7827 140.328 96.7209 140.356 96.649C140.384 96.5771 140.389 96.4984 140.372 96.4233C140.354 96.3481 140.315 96.28 140.258 96.2277L139.287 95.3352C139.526 95.2225 139.769 95.1222 140.018 95.0347C140.114 95.0008 140.193 94.9302 140.236 94.8384C140.28 94.7466 140.286 94.6411 140.252 94.5451C140.218 94.4491 140.148 94.3705 140.056 94.3266C139.964 94.2827 139.859 94.277 139.763 94.3109C139.499 94.4052 139.237 94.5117 138.984 94.6314C139.134 93.0764 139.717 91.5946 140.667 90.3544C140.922 90.6198 141.12 90.9358 141.246 91.2821C141.372 91.6283 141.424 91.9972 141.399 92.3648C141.619 94.9524 141.591 97.5551 141.316 100.137C140.95 100.028 140.571 99.9731 140.189 99.9733H140.191ZM143.751 99.5079C143.179 99.4726 142.608 99.6059 142.11 99.8913C142.189 99.0949 142.244 98.2964 142.276 97.4959C142.497 97.6923 142.73 97.8753 142.973 98.0442C143.057 98.1022 143.16 98.1247 143.26 98.1066C143.36 98.0886 143.449 98.0315 143.507 97.9479C143.565 97.8644 143.588 97.7611 143.57 97.661C143.552 97.5608 143.494 97.4719 143.411 97.4139C143.13 97.2192 142.864 97.0036 142.616 96.769C142.897 96.613 143.19 96.4794 143.493 96.3696C143.586 96.333 143.661 96.2616 143.702 96.1707C143.743 96.0797 143.747 95.9763 143.713 95.8825C143.679 95.7886 143.61 95.7117 143.52 95.6681C143.43 95.6245 143.327 95.6176 143.232 95.6488C142.916 95.764 142.608 95.9027 142.312 96.0636C142.319 94.8266 142.269 93.5898 142.164 92.3572C142.207 91.6209 142.006 90.8911 141.591 90.2808C141.983 90.4366 142.338 90.671 142.635 90.9696C142.932 91.2682 143.165 91.6246 143.319 92.0167C144.353 94.6306 143.892 96.4033 143.749 99.5079H143.751Z" fill="#4B1010"/>
<path d="M138.085 110.191C138.026 110.191 137.969 110.178 137.917 110.152C137.355 109.875 136.863 109.473 136.481 108.977C136.098 108.481 135.835 107.904 135.71 107.29C135.485 106.13 135.448 104.943 135.598 103.772C135.604 103.722 135.621 103.674 135.646 103.63C135.671 103.586 135.704 103.548 135.744 103.517C135.784 103.486 135.829 103.464 135.878 103.45C135.926 103.437 135.977 103.434 136.027 103.44C136.077 103.447 136.125 103.463 136.169 103.488C136.213 103.513 136.251 103.546 136.282 103.586C136.312 103.626 136.335 103.671 136.348 103.72C136.362 103.768 136.365 103.819 136.359 103.869C136.218 104.959 136.254 106.064 136.463 107.142C136.564 107.64 136.778 108.108 137.089 108.511C137.399 108.913 137.797 109.239 138.253 109.463C138.331 109.501 138.394 109.565 138.431 109.643C138.468 109.721 138.478 109.81 138.458 109.894C138.439 109.979 138.391 110.054 138.323 110.108C138.255 110.162 138.171 110.191 138.085 110.191Z" fill="#4B1010"/>
<path d="M97.434 103.384C97.3569 103.384 97.2815 103.361 97.2178 103.318C97.1541 103.274 97.1049 103.213 97.0768 103.141C97.0486 103.069 97.0428 102.99 97.06 102.915C97.0772 102.84 97.1167 102.772 97.1733 102.72C101.535 98.6736 106.117 94.8714 110.898 91.3302C110.98 91.2788 111.078 91.26 111.173 91.2778C111.268 91.2955 111.352 91.3484 111.41 91.4258C111.468 91.5033 111.494 91.5996 111.484 91.6956C111.473 91.7916 111.427 91.8802 111.354 91.9436C106.595 95.4677 102.034 99.252 97.6924 103.279C97.6225 103.345 97.5303 103.383 97.434 103.384Z" fill="#4B1010"/>
<path d="M98.3623 98.1086C98.2845 98.1085 98.2085 98.0847 98.1446 98.0404C98.0806 97.9961 98.0316 97.9333 98.0042 97.8605C97.9767 97.7877 97.972 97.7082 97.9908 97.6327C98.0096 97.5572 98.0509 97.4892 98.1093 97.4377C101.961 94.0556 106.521 90.7033 110.473 87.8702C110.556 87.8109 110.659 87.7869 110.759 87.8034C110.859 87.82 110.949 87.8757 111.008 87.9584C111.068 88.041 111.092 88.1439 111.075 88.2442C111.059 88.3446 111.003 88.4343 110.92 88.4936C99.113 96.9577 98.8906 98.1086 98.3623 98.1086Z" fill="#4B1010"/>
<path d="M89.9602 100.603C89.8858 100.603 89.813 100.581 89.7508 100.54C89.6885 100.5 89.6394 100.442 89.6095 100.373C89.5796 100.305 89.5701 100.23 89.5823 100.157C89.5945 100.083 89.6277 100.015 89.678 99.9602C94.9463 94.2075 101.312 89.5671 108.401 86.3121C108.447 86.2893 108.497 86.276 108.548 86.2729C108.6 86.2698 108.651 86.277 108.699 86.2941C108.748 86.3112 108.792 86.3378 108.83 86.3724C108.868 86.4069 108.898 86.4487 108.92 86.4953C108.941 86.5418 108.953 86.5922 108.955 86.6435C108.956 86.6947 108.948 86.7458 108.929 86.7936C108.911 86.8414 108.883 86.8851 108.847 86.9219C108.812 86.9588 108.769 86.9882 108.722 87.0083C101.725 90.2208 95.4425 94.8008 90.2431 100.479C90.2072 100.518 90.1634 100.549 90.1147 100.57C90.066 100.592 90.0134 100.603 89.9602 100.603Z" fill="#4B1010"/>
<path d="M97.2443 91.1941C97.1649 91.1941 97.0874 91.1694 97.0226 91.1235C96.9578 91.0777 96.9089 91.0128 96.8826 90.9379C96.8562 90.863 96.8538 90.7817 96.8756 90.7054C96.8974 90.629 96.9424 90.5613 97.0043 90.5116C99.6279 88.4045 102.517 86.6515 105.598 85.2978C105.691 85.2607 105.794 85.2611 105.886 85.2989C105.978 85.3367 106.052 85.4089 106.092 85.5002C106.132 85.5915 106.135 85.6948 106.1 85.7881C106.065 85.8814 105.995 85.9574 105.905 86.0001C102.886 87.3257 100.054 89.0426 97.4828 91.1066C97.4155 91.162 97.3314 91.1929 97.2443 91.1941Z" fill="#4B1010"/>
<path d="M86.5682 95.2905C86.4908 95.2904 86.4153 95.267 86.3515 95.2232C86.2877 95.1794 86.2387 95.1174 86.2108 95.0452C86.1829 94.973 86.1775 94.8941 86.1954 94.8188C86.2132 94.7436 86.2533 94.6754 86.3106 94.6234C90.8601 90.495 95.8874 86.926 101.285 83.9924C101.375 83.9438 101.48 83.9327 101.577 83.9615C101.675 83.9904 101.757 84.0568 101.805 84.1461C101.854 84.2355 101.865 84.3405 101.836 84.4381C101.807 84.5357 101.741 84.6178 101.652 84.6664C96.3074 87.5709 91.3301 91.1047 86.8258 95.1923C86.7551 95.2558 86.6633 95.2908 86.5682 95.2905Z" fill="#4B1010"/>
<path d="M69.2991 69.9034C66.1385 69.4909 57.6276 68.9994 51.4929 70.1097C51.443 70.1183 51.3953 70.1367 51.3526 70.1638C51.3099 70.191 51.273 70.2263 51.244 70.2677C51.215 70.3092 51.1945 70.356 51.1837 70.4054C51.1729 70.4548 51.1719 70.5059 51.1809 70.5557C51.1899 70.6055 51.2087 70.653 51.2362 70.6955C51.2636 70.738 51.2992 70.7746 51.3409 70.8033C51.3826 70.832 51.4295 70.8521 51.479 70.8626C51.5285 70.873 51.5796 70.8735 51.6293 70.8642C57.6759 69.77 66.078 70.2569 69.1994 70.664C69.3003 70.6773 69.4022 70.6499 69.4829 70.5879C69.5636 70.5259 69.6163 70.4344 69.6295 70.3336C69.6428 70.2327 69.6154 70.1307 69.5534 70.05C69.4914 69.9694 69.3999 69.9166 69.2991 69.9034Z" fill="white"/>
<path d="M133.768 60.3306C133.767 60.2417 133.735 60.1557 133.678 60.0876C133.621 60.0195 133.542 59.9734 133.454 59.9572L131.708 59.6329C131.652 59.6226 131.595 59.6247 131.541 59.6389C131.486 59.6532 131.436 59.6792 131.392 59.7152C131.349 59.7512 131.314 59.7963 131.291 59.8473C131.267 59.8982 131.254 59.9538 131.254 60.0101V62.0765C131.254 62.1649 131.285 62.2505 131.341 62.319C131.397 62.3875 131.474 62.4345 131.561 62.4522L133.024 62.7589L133.034 63.909L131.788 63.6223C131.689 63.5995 131.585 63.617 131.499 63.671C131.412 63.725 131.351 63.811 131.328 63.9102C131.306 64.0093 131.323 64.1134 131.377 64.1996C131.431 64.2858 131.517 64.3471 131.616 64.3698L133.336 64.7655C133.393 64.7785 133.451 64.7785 133.508 64.7655C133.564 64.7526 133.617 64.727 133.662 64.6906C133.707 64.6543 133.744 64.6083 133.769 64.5559C133.793 64.5035 133.806 64.4462 133.805 64.3882L133.768 60.3306ZM132.021 61.7652V60.4709L133.003 60.6534L133.016 61.973L132.021 61.7652Z" fill="#4B1010"/>
<path d="M141.025 62.1262C141.024 62.0373 140.992 61.9514 140.935 61.8832C140.878 61.8151 140.799 61.769 140.711 61.7528L138.964 61.4293C138.909 61.419 138.852 61.4211 138.798 61.4353C138.743 61.4494 138.693 61.4754 138.65 61.5113C138.606 61.5473 138.572 61.5923 138.548 61.6431C138.524 61.694 138.511 61.7495 138.511 61.8057V63.876C138.511 63.9642 138.542 64.0497 138.598 64.118C138.654 64.1863 138.731 64.2332 138.818 64.2509L140.282 64.5576L140.292 65.7077L139.046 65.4217C138.948 65.4027 138.847 65.4224 138.764 65.4766C138.68 65.5308 138.621 65.6152 138.599 65.7121C138.577 65.809 138.593 65.9108 138.644 65.9959C138.695 66.0811 138.778 66.143 138.874 66.1685L140.594 66.5642C140.65 66.5772 140.709 66.5772 140.765 66.5642C140.822 66.5512 140.875 66.5256 140.92 66.4893C140.965 66.453 141.001 66.407 141.026 66.3546C141.051 66.3022 141.064 66.2449 141.063 66.1869L141.025 62.1262ZM139.278 63.5608V62.2665L140.26 62.449L140.272 63.7686L139.278 63.5608Z" fill="#4B1010"/>
</svg>
