<svg width="154" height="155" viewBox="0 0 154 155" fill="none" xmlns="http://www.w3.org/2000/svg">
<path d="M7.30562 88.7227C7.30562 88.7227 4.43294 93.9163 5.66101 101.967C6.47179 107.28 4.13014 112.005 5.18838 119.06C6.24662 126.116 -0.278794 133.7 24.2382 133.7C48.7552 133.7 52.6354 129.467 67.2747 134.229C81.914 138.992 91.9684 132.818 109.43 134.582C126.891 136.346 142.413 138.815 146.823 132.994C151.233 127.174 145.941 116.414 148.234 108.479C150.527 100.543 149.821 89.9577 148.41 89.253C146.999 88.5483 7.30562 88.7227 7.30562 88.7227Z" fill="#FFF5DB"/>
<path d="M127.203 24.5646C129.635 24.5485 129.249 25.3208 128.817 53.9662C128.346 85.3706 129.732 83.4171 125.7 83.5054C115.944 83.7183 49.0363 83.5408 40.6373 82.8138C38.7437 82.6493 38.447 82.5064 38.2718 80.7388C37.8745 76.7318 38.0413 64.4979 38.9689 27.0607C39.0703 22.9677 38.3233 23.8914 50.4804 24.0197C65.1842 24.1734 117.314 24.6284 127.203 24.5646Z" fill="#FFCCCE"/>
<path d="M98.3608 71.6295C98.4376 72.6439 97.8935 72.2166 85.3299 73.3478C68.2214 74.8849 67.6081 75.9977 67.27 73.9934C66.7981 71.1937 63.4628 44.7209 62.9871 42.4638C62.7965 41.56 63.4274 41.6422 65.1773 39.4305C69.1597 34.3975 69.089 33.848 69.3987 33.9149C70.0658 42.267 71.4852 41.3148 67.9739 41.4463C63.784 41.6046 63.9562 41.6699 63.7702 42.0042C63.6357 42.2463 63.5558 42.8642 64.4019 42.742C66.0265 42.609 67.0602 42.556 68.9999 42.5276C72.5158 42.4761 71.0226 40.1313 70.3494 33.4292C72.263 33.2286 87.4979 31.6439 92.8813 31.0714C94.4145 30.9077 93.9987 30.3797 94.8902 39.3713L98.3608 71.6295Z" fill="white"/>
<path d="M113.743 96.0727C116.352 96.1764 115.607 95.3457 115.607 99.5594C105.001 98.701 105.847 98.993 105.847 98.6026C105.816 95.8144 105.62 95.7591 106.17 95.7753C109.08 95.8636 110.2 95.932 113.743 96.0727Z" fill="white"/>
<path d="M104.874 95.7219C104.874 100.217 106.479 98.3878 95.8202 98.5C95.5251 98.5 95.595 98.5846 95.2822 95.416L104.874 95.7219Z" fill="white"/>
<path d="M94.3553 95.3243L94.6197 98.5213C93.1657 98.6428 95.0623 98.6581 89.0711 98.2677C85.8533 98.0579 85.8433 98.3192 85.8256 97.7236C85.8018 96.9605 85.6627 95.5457 85.5874 94.7864L94.3553 95.3243Z" fill="white"/>
<path d="M84.8651 97.5833C84.8974 98.2711 86.0179 98.0944 75.5977 98.0944C75.6568 97.1376 75.7145 96.1639 75.7882 95.1902C75.8028 94.9957 76.2493 94.7944 76.941 94.8128C79.5632 94.8828 83.2781 94.9804 84.4724 94.9942C84.8797 94.9996 84.736 94.7821 84.8651 97.5833Z" fill="white"/>
<path d="M74.5395 94.9453C75.0214 94.9215 74.9391 94.4281 74.5172 98.1069H66.783C67.2064 95.7945 66.9897 95.2035 67.7605 95.069C68.5313 94.9345 71.5416 95.0936 74.5395 94.9453Z" fill="white"/>
<path d="M66.4025 95.2206C66.198 96.049 65.9867 96.8952 65.7807 97.7413C65.6332 98.3446 65.7369 97.9926 62.002 97.9719C60.7008 98.0765 59.3933 98.0786 58.0918 97.978C58.991 95.1215 58.8688 95.1706 59.283 95.1607C63.3077 95.0646 59.555 95.2206 66.4025 95.2206Z" fill="white"/>
<path d="M57.5475 95.2214C58.14 95.2399 58.0793 94.9432 57.5413 96.71C56.9626 98.6113 58.1008 97.5385 50.5886 97.5385C51.7414 95.15 51.6476 95.0662 52.0818 95.1453C53.8994 95.4789 55.7261 95.1646 57.5475 95.2214Z" fill="white"/>
<path d="M50.8502 95.0716C49.5506 97.5216 49.5475 97.6684 49.174 97.6761C48.5439 97.6899 48.6584 97.6853 42.5718 97.5993C45.0064 93.6268 42.7793 95.0716 50.8502 95.0716Z" fill="white"/>
<path d="M37.7484 94.6091C40.9631 94.666 40.2999 94.4716 43.241 94.7713C40.6972 98.6538 43.5238 97.312 34.4385 97.312C36.8823 94.6514 36.7325 94.5907 37.7484 94.6091Z" fill="white"/>
<path d="M32.1062 98.1836C32.7095 98.1997 32.6603 98.0076 32.0094 98.7907C30.9511 100.063 30.5085 100.376 31.0872 100.768C31.8119 101.261 32.9977 97.9653 34.4156 98.2574L40.9994 98.4057C40.0472 100.159 39.7352 100.449 40.2171 100.723C40.6989 100.996 40.7681 100.6 41.4413 99.5515C42.2567 98.2827 41.057 98.6186 49.0603 98.6186C47.9498 100.924 47.8307 101.001 48.1857 101.135C48.945 101.427 48.7783 101.388 49.898 98.9436C50.107 98.4871 49.9687 98.4118 56.8914 98.7484C56.7946 99.0113 56.7116 99.1988 56.657 99.3924C56.1698 101.112 55.9154 101.646 56.4364 101.775C56.8929 101.889 56.9744 101.578 57.0989 101.168C57.8213 98.7861 57.6684 98.9029 58.0572 98.9175C59.3875 99.0146 60.723 99.0161 62.0535 98.9221C63.5359 98.9721 62.7866 99.0643 65.5179 99.0643C65.3505 99.7027 65.2267 100.352 65.1475 101.007C65.0998 101.432 65.8392 101.711 65.9713 101.14C65.9759 101.125 66.424 99.3317 66.4324 99.3018C66.5247 98.9905 66.6968 99.0535 70.3941 99.0612C73.1646 99.0666 73.5619 98.9659 74.3704 99.1957C74.3704 100.67 74.305 101.08 74.584 101.404C74.6678 101.501 74.9767 101.558 75.0267 101.501C75.4632 100.993 75.3863 100.685 75.5024 99.1734C78.1553 99.125 81.8633 99.0966 84.8136 99.2218C84.7865 99.3685 84.7708 99.517 84.7668 99.666C84.7399 101.397 84.6776 101.826 85.3185 101.882C85.9595 101.937 85.8219 101.143 85.8219 99.1811C91.3344 99.1811 91.7394 99.7052 94.4146 99.5254C94.6452 99.51 94.6882 99.6022 94.6959 99.819C94.722 100.523 94.7674 101.51 95.3998 101.202C95.8356 100.992 95.6842 100.342 95.6304 99.5308C96.7547 99.4247 95.2738 99.4585 99.5344 99.6015C105.097 99.7882 104.959 99.5807 104.953 100.126C104.927 102.34 105.692 101.958 105.855 101.769C106.098 101.487 105.99 100.829 105.922 99.8297C117.55 100.627 115.313 100.15 115.655 101.96C115.779 102.622 116.53 102.525 116.552 101.928C116.605 100.491 116.602 100.687 116.97 100.707C125.834 101.168 121.491 100.958 124.878 101.014C125.623 101.026 125.817 100.231 124.999 100.082C123.268 99.7659 124.591 100.335 116.793 99.6783C116.793 96.0279 116.645 96.1209 117.14 96.1747C118.599 96.3688 120.073 96.4187 121.541 96.3238C123.473 96.3576 124.85 96.708 124.887 95.9219C124.898 95.6913 124.569 95.3778 124.284 95.3624C115.62 94.8813 116.874 95.9219 116.552 93.6002C116.525 93.4081 116.498 93.2267 116.219 93.2221C115.604 93.2106 115.694 93.2221 115.694 94.9835C111.985 94.9835 112.943 94.8982 109.198 94.7383C105.951 94.5992 105.766 94.8921 105.763 94.3226C105.759 93.614 105.756 93.0684 105.469 92.9185C105.372 92.8678 105.126 92.9039 105.085 92.9777C104.882 93.3619 104.42 93.664 104.68 94.2073C104.955 94.7814 105.261 94.6469 95.3268 94.3387C95.2239 93.3727 95.3023 92.8017 94.6659 92.8847C94.2778 92.9347 94.3516 93.2205 94.3516 94.2527C88.6062 93.8853 86.5751 93.8684 85.8542 93.8446C85.1802 93.8223 85.7774 92.8586 85.3854 92.6595C85.1287 92.5289 84.6538 92.6034 84.6799 93.0023C84.6131 93.1767 84.8206 93.903 84.4893 93.9022C78.4565 93.8899 79.1336 93.8638 75.955 93.8607C76.191 92.389 76.38 92.1185 75.8298 91.9886C75.3748 91.8818 75.3594 92.3829 75.0321 93.956C72.6043 94.3541 70.1828 94.0905 67.7074 94.0452C68.0048 92.9439 68.2254 92.3498 68.2515 92.097C68.2723 91.8995 67.6175 91.6121 67.3923 91.9433C67.2865 92.0946 67.2085 92.2635 67.1618 92.442C66.5792 94.8436 66.9619 94.0513 59.4682 94.0513C59.5843 93.5541 59.7126 93.0461 59.8202 92.5327C59.9485 91.9233 59.1178 91.692 58.9602 92.3829C58.6029 93.9491 58.576 94.1504 57.9727 94.1504C56.0607 94.266 54.1437 94.2716 52.2312 94.1673C52.9774 92.5804 53.1741 92.4997 52.7115 92.1177C52.3956 92.3913 52.4402 92.1608 51.5464 93.7078C51.1998 94.3088 50.9024 93.7846 49.6928 93.9506C48.149 94.0964 46.5926 94.036 45.0648 93.7708C45.4099 93.3189 45.7319 92.8609 46.0938 92.4351C46.1581 92.3599 46.1919 92.2632 46.1884 92.1643C46.185 92.0654 46.1446 91.9714 46.0752 91.9008C46.0059 91.8302 45.9126 91.7881 45.8137 91.7829C45.7149 91.7777 45.6177 91.8097 45.5413 91.8726C43.2012 94.2465 45.552 93.7939 39.9834 93.5879C37.2168 93.4864 37.6948 94.0982 38.9767 92.037C39.0266 91.9602 39.1181 91.2316 38.3949 91.5644C38.3311 91.5944 37.608 92.5396 36.7626 93.5748C36.5935 93.7823 34.1335 93.9591 33.8845 93.9737C32.542 94.0667 31.931 93.7255 31.9041 94.3802C31.8734 95.1272 35.7128 94.6684 35.5499 94.849C33.4058 97.236 33.4865 97.1807 33.2936 97.196C30.8159 97.392 29.9482 97.3497 29.5824 97.3567C29.2166 97.3636 28.9023 97.4589 28.91 97.7278C28.9177 97.9968 29.2443 98.0491 29.4887 98.0952C29.7861 98.1598 30.3848 98.139 32.1062 98.1836ZM124.951 92.3491C126.574 92.3352 127.128 92.4605 127.085 93.4311C126.696 102.485 127.019 98.9644 126.62 103.715C126.475 105.448 127.116 103.976 78.0192 103.035C55.2322 102.599 30.5208 102.019 24.6563 101.531C23.6203 101.445 23.1047 101.166 24.0138 100.129C25.3503 98.6055 28.5311 95.556 29.3081 94.826C33.3681 91.0264 33.2913 90.9189 34.4986 90.8143C36.0271 90.6806 86.7265 91.6559 89.5008 91.6805C97.9044 91.7558 108.969 92.4812 124.951 92.3491Z" fill="white"/>
<path d="M131.71 89.5907C132.028 90.2394 132.156 90.9645 132.079 91.6826C132.036 94.2041 131.676 107.596 131.593 109.476C131.575 109.879 132.183 110.755 132.013 111.114C131.726 111.719 131.881 117.215 130.802 117.242C129.303 117.28 19.1375 115.321 12.9226 114.431C11.0667 114.165 11.2488 110.566 11.2188 109.501C11.1781 108.08 12.0903 107.512 14.754 104.872C32.8969 86.8771 31.9033 88.129 36.8978 88.4364C40.0702 88.6324 56.6938 88.6209 75.1173 88.7838C99.8102 89.0021 127.606 89.3456 129.362 89.1089C130.22 88.9928 131.341 89.0367 131.71 89.5907ZM128.152 92.953C128.16 90.931 126.354 91.6519 115.757 91.4667C94.2724 91.0909 43.6238 90.2294 36.9762 90.1687C34.0389 90.1418 33.2397 90.015 31.9716 91.2615C31.1263 92.0969 29.5124 93.5378 27.8724 94.9826C26.0683 96.6019 24.3784 98.3442 22.8149 100.197C22.1901 101.119 22.1662 102.357 24.3234 102.57C25.7652 102.712 124.681 105.495 125.988 105.465C127.525 105.43 127.539 104.258 127.69 102.735C127.706 102.582 128.147 94.1964 128.152 92.953Z" fill="white"/>
<path d="M133.417 26.0055C133.417 36.5794 132.828 74.8219 132.341 84.914C132.268 85.6407 131.961 86.3241 131.466 86.8609C130.97 87.3978 130.314 87.7591 129.595 87.8904C123.294 88.702 103.809 88.0118 80.2179 87.9281C68.9708 87.8881 57.0596 87.4916 45.2507 87.6453C35.9717 87.7652 35.1179 87.3025 34.6914 85.8485C33.5971 82.1197 34.394 80.5458 35.3354 31.8861C35.5345 21.6188 35.1418 19.7951 40.2646 19.6668C42.2866 19.6168 90.1539 19.6668 101.171 19.6153C111.516 19.563 124.244 19.8528 128.469 20.1048C132.435 20.3408 132.948 22.0645 133.265 23.6361C133.394 24.4189 133.445 25.2126 133.417 26.0055ZM129.612 63.614C129.963 40.4972 130.004 26.9622 130.004 26.9469C129.865 26.9469 130.486 23.796 127.675 23.5854C127.659 23.5854 40.7173 22.9299 40.0026 23.0259C37.5672 23.3526 38.1466 24.2371 37.767 40.3128C37.0208 71.917 37.1145 79.9202 37.6486 82.3041C37.9353 83.5845 39.2625 83.6106 40.217 83.6536C50.6042 84.0932 110.721 84.8064 118.052 84.5436C132.511 84.0279 129.23 88.6881 129.612 63.6109V63.614ZM82.3267 21.5028C82.3335 21.7066 82.421 21.8993 82.57 22.0386C82.7189 22.1779 82.9171 22.2524 83.1209 22.2455C83.3248 22.2387 83.5175 22.1512 83.6568 22.0022C83.7961 21.8533 83.8705 21.6551 83.8637 21.4513C83.8537 20.6451 82.3267 20.3354 82.3267 21.5028Z" fill="white"/>
<path d="M150.099 88.7845C150.347 90.207 142.074 88.544 132.803 89.4723C133.052 90.4148 133.15 91.3904 133.095 92.3635C133.083 93.0966 132.745 111.283 132.755 112.766C132.798 119.479 131.804 117.684 121.357 117.612C102.067 117.487 83.3004 117.086 69.2344 116.767C52.2181 116.376 28.5034 116.394 15.1183 115.137C11.2688 114.776 10.4734 115.167 10.5072 108.931C10.518 107.04 13.8433 104.293 17.7958 100.537C22.5759 95.9931 24.1014 94.2532 26.5037 92.0891C29.7422 89.1688 29.6884 89.6068 29.6024 89.3532C14.7579 89.3532 23.4382 89.377 17.4784 89.2533C7.59458 89.0481 5.38665 89.5469 4.34378 89.2802C3.89651 89.1657 3.96414 88.2565 5.07387 88.2588C13.4399 88.2781 16.2226 88.1428 30.7221 88.3841C31.5613 88.3979 31.798 87.4304 34.2864 87.3259C32.8263 84.7975 32.9631 86.147 34.1742 39.7037C34.6484 21.5154 32.9654 18.6411 40.3592 18.5059C40.9479 18.4944 53.8081 18.6796 70.1773 18.6465C88.7023 18.6089 112.159 18.5128 126.006 19.0715C133.178 19.3612 134.346 20.2581 134.469 27.0479C134.514 29.5747 134.065 61.4855 133.63 78C133.415 86.1831 133.455 86.4659 131.449 88.1966C132.679 88.6185 136.444 88.1881 144.206 88.3611C147.263 88.4287 147.459 88.5855 149.461 88.3979C149.852 88.3626 150.039 88.4417 150.099 88.7845ZM132.347 84.9105C132.831 74.8184 133.423 36.5758 133.423 26.0019C133.45 25.2098 133.398 24.4169 133.269 23.6349C132.951 22.0633 132.439 20.3396 128.473 20.1036C124.246 19.8515 111.52 19.5618 101.175 19.6141C90.1578 19.6694 42.2905 19.6141 40.2685 19.6656C35.1456 19.7916 35.5383 21.6153 35.3393 31.8849C34.3979 80.5446 33.6009 82.1185 34.6953 85.8473C35.1218 87.3013 35.9756 87.7639 45.2546 87.644C57.065 87.4903 68.9762 87.8869 80.2218 87.9268C103.815 88.0106 123.297 88.7007 129.599 87.8892C130.318 87.7575 130.974 87.3957 131.469 86.8584C131.964 86.3211 132.271 85.6374 132.344 84.9105H132.347ZM132.082 91.6818C132.159 90.9637 132.031 90.2386 131.713 89.5899C131.345 89.0358 130.223 88.9928 129.363 89.108C127.61 89.344 99.8118 89.0012 75.1189 88.783C56.6954 88.62 40.0748 88.6293 36.8994 88.4356C31.9041 88.1282 32.8977 86.8763 14.7555 104.871C11.1628 108.434 9.73872 108.889 16.9727 109.567C23.8939 110.216 127.9 111.774 129.399 111.737C131.118 111.694 131.551 110.558 131.596 109.475C131.677 107.595 132.036 94.2033 132.079 91.6818H132.082ZM131.35 115.556C131.499 114.494 131.544 113.42 131.484 112.349C129.681 113.485 129.271 112.597 118.935 112.592C118.919 112.592 14.8193 111.562 11.6077 109.68C11.5907 110.414 11.6194 111.148 11.6938 111.879C11.9128 113.936 12.5584 113.788 14.8578 114.065C24.5487 115.233 126.103 116.332 129.333 116.605C130.123 116.672 130.947 116.604 131.347 115.556H131.35Z" fill="#000001"/>
<path d="M130.004 26.9435C130.004 26.9589 129.964 40.4938 129.612 63.6106C129.227 88.6878 132.51 84.0268 118.052 84.5402C110.721 84.7999 50.6043 84.0898 40.2171 83.6502C39.2603 83.6095 37.9354 83.5811 37.6488 82.3007C37.1108 79.9184 37.0209 71.9136 37.7671 40.3094C38.1468 24.2337 37.5673 23.3492 40.0027 23.0226C40.7174 22.9265 127.66 23.582 127.675 23.582C130.486 23.7903 130.005 26.8628 130.004 26.9435ZM128.822 53.9658C129.252 25.3204 129.639 24.548 127.209 24.5642C117.316 24.628 65.186 24.173 50.4882 24.0185C38.3312 23.8902 39.0782 22.9665 38.9768 27.0595C38.0461 64.4967 37.8824 76.7306 38.2797 80.7376C38.4549 82.5052 38.7516 82.6466 40.6452 82.8126C49.211 83.5565 116.121 83.7156 125.708 83.5042C129.739 83.4166 128.356 85.3702 128.822 53.9658Z" fill="#000001"/>
<path d="M125.359 91.4944C127.648 91.5574 128.158 91.8586 128.154 92.9545C128.149 94.198 127.708 102.584 127.693 102.737C127.54 104.259 127.527 105.432 125.991 105.467C124.685 105.497 25.7683 102.714 24.3265 102.572C22.1693 102.359 22.1931 101.118 22.8179 100.198C24.3814 98.3458 26.0713 96.6035 27.8755 94.9842C29.5186 93.5394 31.1263 92.0984 31.9747 91.263C33.2428 90.0158 34.042 90.1433 36.9793 90.1702C43.6238 90.2279 124.762 91.4813 125.359 91.4944ZM127.088 93.4302C127.13 92.4596 126.577 92.3343 124.954 92.3482C108.969 92.4827 97.9067 91.7549 89.503 91.6827C87.0545 91.6611 36.0394 90.6836 34.5008 90.8165C33.2935 90.9211 33.3703 91.0287 29.3103 94.8282C28.5333 95.5552 25.3525 98.6046 24.0161 100.131C23.1069 101.168 23.6226 101.447 24.6585 101.533C30.523 102.021 55.2344 102.601 78.0215 103.037C127.345 103.983 126.477 105.449 126.622 103.718C127.019 98.962 126.696 102.484 127.085 93.4302H127.088Z" fill="#000001"/>
<path d="M124.995 100.09C125.813 100.239 125.619 101.035 124.874 101.023C121.487 100.964 125.83 101.176 116.966 100.715C116.598 100.696 116.601 100.499 116.548 101.936C116.526 102.533 115.775 102.628 115.651 101.969C115.309 100.159 117.546 100.635 105.918 99.8383C105.986 100.837 106.094 101.496 105.851 101.778C105.688 101.967 104.923 102.349 104.949 100.135C104.955 99.5893 105.093 99.7968 99.5304 99.61C95.2698 99.4671 96.7507 99.4333 95.6264 99.5393C95.6778 100.351 95.8292 100.999 95.3958 101.211C94.7633 101.518 94.718 100.528 94.6918 99.8275C94.6842 99.6139 94.6419 99.5201 94.4106 99.534C91.7339 99.7138 91.3304 99.1897 85.8179 99.1897C85.8179 101.152 85.9478 101.944 85.3145 101.89C84.6812 101.836 84.7358 101.405 84.7627 99.6746C84.7668 99.5255 84.7825 99.377 84.8096 99.2304C81.8593 99.1051 78.1512 99.1336 75.4983 99.182C75.3823 100.694 75.4591 101.002 75.0226 101.51C74.9727 101.568 74.6637 101.51 74.58 101.413C74.301 101.089 74.3663 100.678 74.3663 99.2043C73.5578 98.9737 73.1605 99.0752 70.3901 99.0698C66.6928 99.0621 66.5206 98.9991 66.4284 99.3103C66.4199 99.3403 65.9719 101.133 65.9673 101.149C65.8359 101.72 65.0958 101.441 65.1434 101.016C65.2226 100.36 65.3464 99.7113 65.5139 99.0728C62.7826 99.0728 63.5319 98.9806 62.0494 98.9307C60.7189 99.0247 59.3834 99.0231 58.0532 98.9261C57.6643 98.9115 57.8172 98.7931 57.0948 101.177C56.9711 101.587 56.8889 101.897 56.4324 101.783C55.9113 101.654 56.1657 101.121 56.653 99.401C56.7075 99.2073 56.7905 99.0168 56.8874 98.757C49.9708 98.4204 50.106 98.4957 49.8939 98.9522C48.7742 101.397 48.941 101.436 48.1817 101.144C47.8274 101.008 47.9457 100.933 49.0562 98.6271C41.0561 98.6271 42.2526 98.2913 41.4372 99.5601C40.764 100.608 40.7002 101.008 40.213 100.731C39.7258 100.455 40.0432 100.167 40.9954 98.4142C40.9792 98.4142 34.4269 98.269 34.4115 98.2659C32.9936 97.9739 31.8078 101.269 31.0831 100.777C30.506 100.385 30.9486 100.072 32.0053 98.7993C32.6563 98.0162 32.7054 98.2083 32.1022 98.1921C30.3807 98.1476 29.782 98.1683 29.4839 98.1153C29.2395 98.0692 28.9128 98.0146 28.9052 97.7479C28.8975 97.4813 29.2195 97.3814 29.5776 97.3767C29.9357 97.3721 30.8072 97.4121 33.2887 97.2161C33.4816 97.2008 33.4009 97.2561 35.5451 94.8691C35.708 94.6885 31.8685 95.1473 31.8993 94.4003C31.9262 93.7455 32.5371 94.0868 33.8797 93.9938C34.1287 93.9769 36.5887 93.8024 36.7578 93.5949C37.6032 92.5597 38.3263 91.6145 38.3901 91.5845C39.1133 91.2517 39.0218 91.9772 38.9719 92.0571C37.69 94.1183 37.2151 93.5065 39.9786 93.608C45.5488 93.8124 43.1964 94.2666 45.5365 91.8927C45.6129 91.8298 45.7101 91.7978 45.8089 91.803C45.9078 91.8082 46.0011 91.8502 46.0704 91.9209C46.1398 91.9915 46.1802 92.0855 46.1836 92.1844C46.187 92.2833 46.1533 92.3799 46.089 92.4552C45.7271 92.881 45.4051 93.339 45.06 93.7909C46.5878 94.056 48.1442 94.1165 49.688 93.9707C50.8976 93.8055 51.195 94.3288 51.5416 93.7279C52.4354 92.1809 52.3908 92.4114 52.7067 92.1378C53.1678 92.5221 52.9726 92.5989 52.2263 94.1874C54.1389 94.2917 56.0559 94.2861 57.9679 94.1705C58.5727 94.1705 58.598 93.9669 58.9554 92.403C59.1091 91.7113 59.9437 91.9419 59.8154 92.5528C59.7078 93.0662 59.5794 93.5742 59.4634 94.0714C66.9571 94.0714 66.5744 94.8637 67.1569 92.4621C67.2037 92.2835 67.2817 92.1147 67.3875 91.9634C67.6127 91.6291 68.2674 91.9165 68.2467 92.1171C68.2206 92.3699 68 92.9624 67.7026 94.0652C70.1779 94.1106 72.5995 94.3726 75.0272 93.9761C75.3546 92.403 75.37 91.9011 75.825 92.0087C76.3752 92.1386 76.1862 92.4091 75.9502 93.8808C79.1288 93.8808 78.4517 93.91 84.4845 93.9223C84.8157 93.9223 84.6082 93.1968 84.6751 93.0224C84.649 92.6235 85.1239 92.549 85.3806 92.6796C85.7725 92.8787 85.1716 93.8424 85.8494 93.8647C86.5702 93.8893 88.6014 93.9054 94.3468 94.2727C94.3468 93.2406 94.2699 92.9547 94.6611 92.9048C95.2974 92.8226 95.219 93.3928 95.322 94.3588C105.257 94.6662 104.95 94.8015 104.675 94.2274C104.415 93.6894 104.878 93.382 105.08 92.9978C105.118 92.9209 105.364 92.8879 105.464 92.9386C105.751 93.0885 105.754 93.6341 105.758 94.3427C105.758 94.9144 105.946 94.6193 109.193 94.7584C112.939 94.9183 111.98 95.0036 115.689 95.0036C115.689 93.2422 115.597 93.2306 116.214 93.2422C116.494 93.2468 116.521 93.4281 116.547 93.6203C116.648 94.3457 116.738 94.9606 116.738 94.9606C116.738 94.9606 118.322 95.052 124.279 95.3825C124.565 95.3978 124.893 95.7122 124.882 95.9419C124.845 96.7266 123.469 96.3777 121.536 96.3439C120.068 96.4388 118.594 96.3888 117.135 96.1948C116.64 96.141 116.788 96.048 116.788 99.6984C124.59 100.342 123.263 99.773 124.995 100.09ZM115.607 99.5608C115.607 95.3471 116.352 96.1794 113.743 96.0741C110.2 95.9335 109.079 95.862 106.168 95.7767C105.618 95.7613 105.814 95.8159 105.844 98.6041C105.849 98.9929 104.999 98.7009 115.607 99.5593V99.5608ZM95.82 98.5018C106.479 98.3896 104.874 100.219 104.874 95.7237L95.2836 95.4163C95.5948 98.5848 95.5249 98.5034 95.82 98.5003V98.5018ZM94.6196 98.5211L94.3552 95.3241L85.5873 94.7861C85.6642 95.5454 85.8017 96.9602 85.8256 97.7233C85.844 98.3189 85.8532 98.0577 89.071 98.2675C95.0623 98.6563 93.1656 98.6409 94.6181 98.5195L94.6196 98.5211ZM75.5975 98.0922C86.0146 98.0922 84.8964 98.269 84.8649 97.5812C84.7358 94.78 84.8795 94.9967 84.4714 94.9921C83.2772 94.9782 79.5622 94.8806 76.9401 94.8107C76.2484 94.7923 75.8027 94.9936 75.7873 95.188C75.7127 96.1648 75.6567 97.1385 75.5975 98.0922ZM74.5169 98.1053C74.9389 94.4264 75.0211 94.9198 74.5392 94.9436C71.542 95.0973 68.531 94.9314 67.7602 95.0674C66.9894 95.2034 67.2061 95.7929 66.7827 98.1053H74.5169ZM65.7805 97.7379C65.9865 96.8926 66.1978 96.0472 66.4023 95.2172C59.5548 95.2172 63.3075 95.0635 59.2828 95.1565C58.8686 95.1665 58.9908 95.1173 58.0916 97.9739C59.3931 98.0744 60.7006 98.0724 62.0018 97.9677C65.7367 97.9923 65.633 98.3443 65.7805 97.741V97.7379ZM57.5414 96.7089C58.0793 94.9413 58.14 95.2388 57.5475 95.2203C55.7261 95.1634 53.8994 95.4739 52.0819 95.1435C51.6477 95.0666 51.7399 95.1481 50.5887 97.5366C58.1008 97.5389 56.9611 98.6117 57.5414 96.7089ZM49.1738 97.6749C49.5473 97.6672 49.5504 97.5212 50.8499 95.0705C42.7806 95.0705 45.0093 93.6257 42.5716 97.595C48.6612 97.6857 48.5444 97.6903 49.1738 97.6765V97.6749ZM43.244 94.77C40.3029 94.4702 40.9661 94.6647 37.7515 94.6078C36.7324 94.5894 36.8823 94.6501 34.4415 97.3107C43.5268 97.3122 40.6995 98.654 43.244 94.7715V94.77Z" fill="#000001"/>
<path d="M123.832 29.234C124.121 29.2863 124.168 29.5483 124.128 29.8488C124.071 30.2677 123.754 30.2085 123.491 30.283C123.096 30.1477 122.669 30.1278 122.263 30.2256C121.856 30.3235 121.486 30.535 121.195 30.8356C118.736 32.6915 118.002 33.6837 116.035 32.6616C115.041 32.1444 114.635 31.8062 113.949 32.6769C112.774 34.1671 112.2 35.0878 110.49 34.214C109.557 33.7367 108.939 32.6408 108.041 33.7744C105.97 36.3873 105.57 37.1389 103.797 37.8644C102.18 38.5268 101.108 37.6223 100.308 37.0375C99.7889 36.657 100.025 36.0445 100.776 36.2966C101.267 36.4603 102.121 37.6991 103.637 36.8953C107.078 35.0708 107.2 30.9178 110.002 32.627C111.879 33.7728 111.41 34.0564 113.244 31.8938C114.417 30.5105 115.263 31.0969 116.904 31.8685C117.757 32.2704 118.119 31.7801 121.074 29.5752C121.482 29.3226 121.939 29.1613 122.416 29.1024C122.892 29.0435 123.375 29.0884 123.832 29.234Z" fill="#000001"/>
<path d="M121.631 52.3586C123.893 50.7847 123.406 54.0493 122.428 53.4115C122.133 53.2186 121.537 53.7619 120.929 53.8649C119.244 54.1485 118.744 52.7851 117.75 51.4379C116.716 50.0354 116.25 55.4649 113.498 53.4253C111.967 52.291 112.167 51.9367 110.739 51.7192C108.21 51.5655 108.83 54.9923 105.477 53.6405C104.544 53.1756 103.743 52.4834 103.148 51.6278C102.727 51.1252 102.821 51.2573 102.917 50.5787C103.13 50.6149 103.41 50.5787 103.544 50.7009C103.946 51.066 104.249 51.5425 104.666 51.886C108.635 55.166 106.92 50.05 111.352 50.7778C112.548 50.9738 113.35 51.9305 114.138 52.5346C115.127 53.29 114.93 52.4431 116.346 50.5933C116.462 50.4411 116.61 50.3161 116.78 50.227C116.95 50.138 117.137 50.087 117.328 50.0777C117.52 50.0684 117.711 50.101 117.888 50.1732C118.066 50.2454 118.225 50.3555 118.356 50.4957C119.797 52.1081 119.945 53.5314 121.631 52.3586Z" fill="#000001"/>
<path d="M117.555 71.608C120.007 71.07 121.149 73.2049 121.071 75.3122C121.033 76.3282 120.054 76.0968 119.98 75.2999C119.836 73.7583 119.407 72.4288 117.915 72.7216C116.624 72.9744 115.327 72.7823 115.397 71.4704C115.474 70.0871 115.655 71.1361 115.655 68.3818C113.872 69.171 112.683 69.958 110.767 69.0442C109.514 68.4471 109.894 67.2259 109.201 65.6989C108.843 64.9089 108.63 65.41 106.426 66.4613C105.966 66.6846 105.453 66.7735 104.945 66.7178C104.436 66.6621 103.954 66.464 103.554 66.1463C103.153 65.8286 102.851 65.4043 102.681 64.9222C102.511 64.44 102.48 63.9197 102.593 63.4211C102.801 62.8331 103.565 62.96 103.442 63.6163C103.391 63.9843 103.45 64.3594 103.612 64.6938C103.774 65.0281 104.032 65.3066 104.354 65.4937C106.044 66.7887 108.723 62.4082 110.184 65.1932C111.033 66.8156 110.315 67.7401 111.706 68.1989C113.437 68.7691 114.376 67.1745 115.856 67.3289C117.085 67.4573 116.791 69.5069 116.572 70.695C116.434 71.4443 116.444 71.8531 117.555 71.608Z" fill="#000001"/>
<path d="M99.2892 71.4453C99.3568 74.6192 98.2132 72.6349 78.1267 75.0142C77.2514 75.118 78.511 75.2302 74.4325 75.6021C65.4801 76.4191 66.7059 77.5234 65.4663 68.1545C61.6883 39.5983 61.6353 41.6755 62.8849 40.5097C64.5756 38.9335 68.4496 33.0006 69.3081 32.7286C71.1617 32.1414 80.1079 31.4159 82.0922 31.2484C91.6786 30.4384 94.7403 28.9552 95.0493 31.5796C95.0516 31.595 99.2738 70.7183 99.2892 71.4453ZM85.3299 73.3458C97.8935 72.2146 98.4399 72.6418 98.3608 71.6274C97.3471 58.6481 98.0995 71.7757 94.8902 39.3723C93.9987 30.3761 94.4145 30.9072 92.8813 31.0724C87.4979 31.645 72.263 33.2296 70.3494 33.4302C71.0249 40.1331 72.5158 42.4779 68.9999 42.5286C67.0602 42.557 66.0265 42.61 64.4019 42.743C63.5566 42.8652 63.6334 42.2473 63.7702 42.0052C63.9562 41.6709 63.784 41.6056 67.9739 41.4473C71.4853 41.3143 70.0658 42.2665 69.3988 33.9159C69.0914 33.849 69.1597 34.3985 65.1773 39.4315C63.4274 41.6433 62.795 41.561 62.9871 42.4648C63.4628 44.7219 66.7989 71.194 67.2708 73.9944C67.6081 75.9979 68.2214 74.8874 85.3299 73.3458Z" fill="#000001"/>
<path d="M90.6328 56.3499C91.0501 56.7726 90.3762 58.1744 89.0051 56.9033C88.7233 56.5432 88.3888 56.2277 88.013 55.9672C85.745 54.6352 83.0898 54.1184 80.4878 54.5025C77.0717 54.9974 75.9766 56.34 73.5965 59.042C73.0102 59.7083 72.244 58.7108 72.566 58.2182C73.394 56.8761 74.4931 55.7216 75.7928 54.8287C77.0926 53.9357 78.5645 53.3238 80.1143 53.0323C81.3137 52.8916 82.5251 52.8839 83.7262 53.0092C85.0646 53.1344 86.3779 53.4517 87.6257 53.9514C89.0082 54.3872 89.7306 55.4354 90.6328 56.3499Z" fill="#000001"/>
<path d="M83.846 44.3182C85.7427 46.3624 83.1005 51.0972 82.1138 45.4955C82.1413 45.1884 82.1984 44.8847 82.2844 44.5887C82.3337 44.4327 82.4249 44.2932 82.5481 44.1856C82.6713 44.0779 82.8217 44.0062 82.9829 43.9783C83.1441 43.9504 83.3099 43.9673 83.4621 44.0273C83.6143 44.0872 83.7471 44.1878 83.846 44.3182Z" fill="#000001"/>
<path d="M83.859 21.4505C83.8624 21.5514 83.8459 21.652 83.8104 21.7466C83.7749 21.8411 83.7211 21.9277 83.6521 22.0015C83.5832 22.0752 83.5004 22.1347 83.4084 22.1764C83.3165 22.2181 83.2172 22.2414 83.1163 22.2447C83.0154 22.2481 82.9148 22.2316 82.8202 22.1961C82.7257 22.1606 82.6391 22.1068 82.5653 22.0379C82.4916 21.9689 82.4321 21.8861 82.3904 21.7941C82.3486 21.7022 82.3254 21.6029 82.322 21.502C82.3266 20.3346 83.8537 20.6443 83.859 21.4505Z" fill="#000001"/>
<path d="M75.6675 45.0042C77.7294 47.3197 75.8212 50.1347 74.9673 48.6092C73.9775 46.8478 74.2096 46.3337 74.4355 45.2885C74.4609 45.1571 74.5239 45.0359 74.6169 44.9396C74.7098 44.8433 74.8287 44.776 74.9591 44.7459C75.0895 44.7158 75.2258 44.7241 75.3516 44.77C75.4773 44.8158 75.587 44.8972 75.6675 45.0042Z" fill="#000001"/>
<path d="M61.0467 66.3995C61.2603 65.8146 62.2647 65.7416 62.0803 66.63C62.0051 67.1327 61.7516 67.5915 61.3661 67.9228C60.9807 68.254 60.489 68.4357 59.9807 68.4345C59.4036 68.4767 59.0585 68.3776 58.5575 68.8848C58.1494 69.2952 57.948 70.7677 56.0798 70.4987C54.2507 70.2336 53.5714 70.0568 53.1671 70.9321C52.3133 72.7819 51.8007 74.3904 50.1108 74.9338C48.4662 75.4625 45.844 73.7195 46.6901 72.9879C47.1436 72.5952 47.5278 73.4713 48.4815 73.8678C50.6088 74.7532 51.2781 72.5714 52.2472 70.4641C53.0311 68.7573 54.489 69.2637 56.0805 69.4274C57.3716 69.5611 57.0589 68.8241 57.9849 67.822C58.9271 66.7999 60.4449 68.0479 61.0467 66.3995Z" fill="#000001"/>
<path d="M59.6641 37.8447C60.2943 38.4918 59.9 40.0058 57.7759 37.6303C56.8429 36.5867 55.7309 37.6657 54.7157 36.994C53.662 36.2962 54.0448 35.2018 52.2096 35.3179C51.6034 35.3442 50.9965 35.2873 50.4059 35.1488C50.0556 35.0651 49.7419 34.87 49.5118 34.5929C49.2818 34.3158 49.1479 33.9715 49.1301 33.6118C48.8297 31.9871 48.3355 30.341 46.7547 30.8159C45.0071 31.3416 45.2338 32.2892 44.496 31.8918C43.9189 31.5806 44.848 30.0966 47.4102 29.7869C49.1317 29.7608 49.6327 31.6029 50.0416 33.2928C50.2522 34.1636 50.329 34.3157 52.4785 34.265C55.4473 34.1951 54.1062 36.4868 56.1274 36.1286C56.5884 36.0151 57.0722 36.0343 57.5228 36.1838C57.9734 36.3334 58.3726 36.6073 58.6743 36.974C58.9594 37.3029 59.3582 37.5335 59.6641 37.8447Z" fill="#000001"/>
<path d="M58.5796 49.9275C58.6954 49.9502 58.8012 50.0085 58.8823 50.0942C58.9634 50.18 59.0157 50.2889 59.0319 50.4058C59.048 50.5227 59.0273 50.6417 58.9725 50.7463C58.9177 50.8508 58.8317 50.9356 58.7264 50.9888C57.3315 51.9241 56.2571 50.859 54.5111 50.3341C54.1975 50.2395 53.9608 50.6031 53.4513 51.5053C53.0671 52.1839 52.7182 53.7063 50.9314 53.4842C49.3944 53.2936 48.8034 52.4206 47.0742 51.5283C45.7094 50.8244 44.5112 53.2875 44.2038 54.6347C43.9733 55.6337 41.9752 55.2349 45.0546 50.9796C45.2313 50.7606 45.4645 50.5938 45.729 50.4974C45.9934 50.401 46.2792 50.3785 46.5555 50.4324C48.3722 50.4125 49.3398 52.1347 50.7923 52.3868C52.0949 52.6127 52.015 51.8619 53.0794 49.9821C53.9247 48.485 55.65 49.4441 57.2132 50.1712C57.7165 50.4055 57.9794 49.8176 58.5796 49.9275Z" fill="#000001"/>
</svg>
