<svg width="155" height="156" viewBox="0 0 155 156" fill="none" xmlns="http://www.w3.org/2000/svg">
<path d="M28.8135 61.2667C30.0437 62.1261 31.4444 62.7107 32.9206 62.9805C31.8861 69.6275 31.1836 72.6306 32.1486 73.9585C33.1136 75.2863 33.8161 76.344 36.5799 76.6373C39.3437 76.9307 47.0097 77.3399 50.754 76.6373C54.4982 75.9348 57.6248 75.0624 58.6439 73.6728C59.6629 72.2832 58.3969 65.3429 57.0536 63.1581C58.5529 62.6859 59.9716 61.9882 61.261 61.0891C64.2075 65.444 66.1048 70.4224 66.804 75.6337C67.5371 81.6328 67.6561 87.6909 67.1591 93.7141C67.1591 93.8608 67.2055 98.3462 67.329 102.291C67.3736 103.823 66.8959 105.325 65.9741 106.55C65.0524 107.775 63.7416 108.65 62.2569 109.031C59.6552 109.71 57.3701 110.505 57.3701 110.505L52.738 111.54C52.2931 111.638 51.8327 111.642 51.3861 111.552C50.9394 111.463 50.5164 111.281 50.1438 111.019C49.7713 110.757 49.4574 110.42 49.2222 110.03C48.987 109.64 48.8356 109.205 48.7776 108.753C48.4611 106.344 47.8358 103.565 46.6237 103.349C45.2264 103.117 44.5162 106.753 43.6747 107.981C43.2644 108.632 42.8932 109.308 42.563 110.003C42.3374 110.463 42.0226 110.873 41.6371 111.21C41.2515 111.546 40.8029 111.803 40.3172 111.964C39.8316 112.126 39.3186 112.19 38.8082 112.151C38.2978 112.113 37.8002 111.973 37.3442 111.741C32.0328 109.062 31.4229 109.332 27.5474 108.652C26.6468 108.49 25.8333 108.012 25.2521 107.305C24.6709 106.598 24.3599 105.708 24.3745 104.792C24.4208 102.16 24.4517 98.6781 24.2896 97.2963C24.0271 94.9339 23.394 83.0682 23.4249 78.8453C23.4558 74.6224 25.0461 66.5704 28.8135 61.2667Z" fill="#3D9CFB"/>
<path d="M25.417 31.143C25.8494 27.2289 28.4124 21.3694 35.3991 17.0925C35.3528 15.2396 36.3255 14.3287 39.4907 13.3714C42.4089 12.4836 48.9555 12.1053 52.3369 13.0471C55.8959 14.1897 62.1414 19.3622 59.9798 30.0854C61.8017 31.915 62.6278 31.915 61.8481 33.1039C61.0683 34.2928 59.0688 36.8095 47.6045 37.8826C43.0883 38.3072 38.2555 35.4199 38.2555 35.4199C38.2555 35.4199 31.485 35.2501 27.1849 34.6479C25.6795 34.4704 25.2472 32.6484 25.417 31.143Z" fill="#3D9CFB"/>
<path d="M89.9255 108.869C88.9142 109.131 89.4623 109.934 89.9255 111.524C89.9951 111.771 90.1599 111.98 90.3836 112.105C90.6073 112.231 90.8716 112.262 91.1183 112.192C91.365 112.123 91.574 111.958 91.6992 111.734C91.8244 111.51 91.8557 111.246 91.7861 110.999C91.3537 109.587 91.2765 108.521 89.9255 108.869Z" fill="#001434"/>
<path d="M59.2921 49.3626C58.6514 49.27 58.3966 49.6869 57.8948 49.7332C55.4244 49.9571 52.2746 48.5057 50.0049 48.4208C51.2015 47.0389 52.4213 45.3791 49.2792 42.044C49.1885 41.945 49.0782 41.8659 48.9554 41.8116C48.8325 41.7573 48.6998 41.729 48.5655 41.7285C48.4312 41.7281 48.2982 41.7554 48.175 41.8089C48.0518 41.8623 47.941 41.9407 47.8496 42.0391C47.7581 42.1374 47.6881 42.2537 47.6438 42.3805C47.5995 42.5073 47.5819 42.6418 47.5922 42.7758C47.6025 42.9097 47.6404 43.04 47.7036 43.1585C47.7667 43.2771 47.8537 43.3812 47.9591 43.4645C50.4218 45.1706 48.9164 48.4903 45.9441 47.5484C45.7767 47.4842 45.5948 47.4678 45.4186 47.5012C45.2424 47.5346 45.0791 47.6164 44.9468 47.7374C44.8145 47.8585 44.7186 48.014 44.6698 48.1865C44.6209 48.359 44.6211 48.5417 44.6703 48.7142C42.7017 49.3395 40.7485 50.3431 38.8185 50.5438C38.0465 50.621 37.2745 50.1964 36.5025 50.3276C35.2982 50.5129 35.3368 52.4893 36.572 53.6704C39.0501 56.0482 45.2107 57.9165 47.905 54.4424C51.5026 57.8007 57.3235 54.8207 59.4851 52.1959C60.6663 50.8758 60.3421 49.5325 59.2921 49.3626Z" fill="#001434"/>
<path d="M102.533 132.253C102.17 131.272 100.888 131.998 101.197 133.141C101.583 134.53 102.525 136.483 103.274 138.545C103.921 140.253 104.437 142.008 104.818 143.794C104.818 144.258 103.552 144.528 102.556 144.682C101.714 144.813 101.104 144.528 100.911 143.98C99.4198 140.403 98.1941 136.72 97.2443 132.963C96.9818 131.929 94.8588 131.419 95.2834 133.133C95.708 134.847 96.6344 136.63 98.1089 141.308C99.182 144.744 99.7379 146.272 101.197 146.172C103.22 146.041 107.512 146.944 106.416 143.323C105.327 139.564 104.03 135.868 102.533 132.253Z" fill="#001434"/>
<path d="M96.2866 111.787C97.4137 111.563 96.7652 110.436 96.7266 109.471C96.688 108.213 94.7503 108.244 94.8429 109.471C94.9356 110.699 94.9896 112.042 96.2866 111.787Z" fill="#001434"/>
<path d="M131.089 75.8348C123.098 72.4457 118.891 85.2456 127.476 86.6429C126.951 89.5225 129.884 89.6692 129.413 86.7279C134.663 86.2492 136.632 78.5832 131.089 75.8348ZM132.355 81.733C131.752 87.137 122.319 84.821 124.997 79.4169C127.043 75.6032 133.281 77.2785 132.355 81.7638V81.733Z" fill="#001434"/>
<path d="M150.876 142.899C150.351 140.853 149.146 136.538 147.494 131.991C146.838 130.184 145.618 130.995 145.665 131.489C145.834 133.133 147.093 135.349 147.803 138.213C148.513 141.077 149.432 143.617 149.347 143.849C149.092 144.536 146.259 145.161 145.433 144.397C144.607 143.633 143.765 139.989 142.507 135.38C141.959 133.38 141.395 131.389 140.369 131.381C139.597 131.381 139.597 131.798 139.72 132.245C140.322 134.6 143.24 142.629 143.58 144.551C143.858 146.049 145.564 146.172 147.51 146.172C149.455 146.172 151.655 145.956 150.876 142.899Z" fill="#001434"/>
<path d="M140.747 112.034C142.422 112.034 141.133 110.382 140.685 108.738C140.353 107.526 138.515 108.174 138.855 109.386C139.357 111.177 139.735 112.034 140.747 112.034Z" fill="#001434"/>
<path d="M93.1914 16.143C91.7169 15.9114 85.2629 21.9176 84.5758 22.4889C83.8887 23.0602 82.8697 31.5986 83.1013 32.9033C83.3329 34.208 87.4014 38.6933 89.123 41.2332C90.2346 41.8972 98.7499 42.5688 100.101 42.4144C110.137 35.7057 108.593 37.1493 109.882 25.9861C109.882 24.6582 104.663 18.6906 103.428 17.4245C102.795 16.776 95.3839 16.4827 93.1914 16.143ZM88.7755 32.7026C87.7333 29.9388 87.7256 26.2023 89.4163 25.9938C91.107 25.7854 90.088 28.4874 91.2151 28.3484C92.1492 28.2326 90.7364 22.3654 94.5038 20.7828C94.8435 22.4966 94.2954 25.9861 95.0288 26.4107C96.4261 27.2213 96.017 21.9948 96.457 20.3968C97.0521 20.3825 97.647 20.4291 98.2326 20.5357C98.5028 21.9408 97.5378 26.3875 98.9429 26.4339C100.031 26.4725 99.5837 22.3963 100.124 21.2151C102.44 22.5661 103.459 25.6773 102.718 31.1817C103.343 40.0135 90.2115 39.3341 88.7755 32.7026Z" fill="#001434"/>
<path d="M96.9971 13.1166C90.1649 12.3987 91.2225 12.4141 81.75 20.4584C80.4144 21.5778 79.434 32.4014 79.6579 33.7447C79.7505 35.335 85.3707 41.5728 86.9688 44.0201C87.4783 44.7921 88.6517 44.931 91.3692 45.1626C92.3496 49.648 89.4006 51.5703 86.5673 54.28C85.0851 55.9013 82.2364 58.611 80.8622 58.0938C77.4267 57.1596 73.9141 55.8627 69.0505 54.5271C69.6955 52.7571 70.007 50.883 69.9692 48.9995C78.5925 46.5909 75.9754 38.4848 69.4056 33.2506C70.278 31.1739 67.7458 29.9387 66.2172 29.074C65.9125 26.2067 64.9969 23.438 63.532 20.9544C62.0671 18.4708 60.0871 16.33 57.7251 14.6761C41.2273 3.59005 12.9641 13.5181 13.8056 36.6088C13.8066 36.8379 13.8528 37.0646 13.9414 37.2759C14.03 37.4872 14.1594 37.679 14.3221 37.8403C14.4848 38.0016 14.6777 38.1292 14.8898 38.216C15.1019 38.3027 15.329 38.3468 15.5581 38.3458C11.6208 44.0973 9.70627 52.9213 19.0707 52.5662C19.3474 54.1136 20.0054 55.5676 20.9853 56.7968C9.35115 62.803 7.62957 76.0198 5.03563 87.322C2.71961 97.6051 6.03924 107.17 18.5844 106.622C18.5303 109.239 18.6538 112.428 18.6693 115.014C15.4037 117.631 8.47106 124.34 16.6003 125.181C40.8027 124.27 42.6787 132.26 46.4075 104.661C49.3102 128.061 48.2526 124.95 70.4092 124.232C67.5296 133.372 65.7772 140.783 65.5764 142.945C65.3757 145.107 66.2095 145.261 68.5178 145.3C69.9537 145.3 72.6789 145.709 72.9337 144.203C73.8412 139.531 75.0061 134.913 76.4231 130.369C78.3609 124.046 82.2749 109.278 83.1782 105.472C83.5179 104.059 82.2749 103.503 81.9044 104.599C80.9008 107.603 77.3804 122.479 73.7597 133.434C72.6017 136.939 72.0304 140.498 71.3125 143.138C71.0963 143.91 70.0541 144.026 68.9347 144.026C68.1627 144.026 67.5296 144.026 67.2826 143.316C67.1282 142.852 67.8307 138.877 69.7916 131.736C70.8801 127.767 72.7252 123.143 74.138 118.449C74.8019 116.249 78.9553 102.006 80.2677 97.9525C80.4607 97.4507 80.2677 96.7482 79.7273 96.6864C79.1869 96.6246 78.6697 96.6864 77.4808 100.546C76.3614 104.144 75.0335 108.653 74.3001 112.018C73.2965 103.272 74.4468 91.2283 74.1766 82.7517C77.2029 83.4465 80.2523 84.2957 82.5915 84.1953C83.501 85.5095 84.8847 86.4199 86.4515 86.7352C85.9343 89.5145 88.9605 89.6766 88.397 86.8124C89.8137 86.6508 91.1111 85.9421 92.0126 84.8373C92.914 83.7325 93.348 82.3192 93.222 80.8989C97.7846 77.9189 104.586 73.1247 106.995 69.8051C112.445 63.0964 106.771 47.7643 97.4449 47.8724C97.4835 47.1621 97.5221 46.4751 97.5916 45.842C102.023 46.9691 104.787 43.1863 108.485 40.438C113.827 37.6356 112.005 32.0076 113.117 26.8506C114.661 23.6468 105.682 15.2705 105.343 14.5603C104.779 13.8423 102.934 13.7419 96.9971 13.1166ZM50.8234 63.189C38.8495 63.4824 26.096 63.328 21.0393 52.6743C29.8943 53.2456 28.358 44.4524 27.2154 38.1605C28.4892 37.7205 31.639 38.1605 33.7697 38.7318C26.4434 41.3103 29.0759 49.1308 36.2247 46.0659C38.9422 45.8729 40.6715 48.2198 42.9952 45.4328C43.8599 44.3675 43.69 42.4683 42.7327 41.1868C45.566 41.3412 48.4379 40.9552 52.5836 40.2913C49.8275 48.0422 57.0149 44.7149 60.9676 45.6027C66.3716 47.3243 66.9429 39.4266 62.1564 37.9675C63.3942 37.5736 64.6038 37.0965 65.7772 36.5393C69.5677 48.6289 71.6521 60.7186 50.8234 63.189ZM61.8168 69.0177C63.0674 76.0661 54.6989 76.2668 45.0102 76.5911C31.1604 76.9771 28.08 75.8191 31.0368 63.1581C38.919 65.7444 51.827 66.4006 60.1029 63.1581C60.9084 65.035 61.4839 67.0025 61.8168 69.0177ZM37.0122 44.1204C35.4141 43.7499 33.3374 45.0623 32.0713 44.7303C29.6549 42.3062 34.0708 39.8898 37.2515 40.2681C37.0277 41.5392 36.9474 42.8314 37.0122 44.1204ZM59.107 43.3484C57.563 43.0705 55.6716 44.0664 54.475 43.7267C52.406 41.5188 56.073 38.6855 59.3309 39.2027C59.1089 40.5935 59.0338 42.0037 59.107 43.4102V43.3484ZM17.3183 36.3926C17.1313 36.4226 16.94 36.4081 16.7597 36.3503C16.5795 36.2925 16.4154 36.193 16.2808 36.0599C16.1462 35.9268 16.0448 35.7638 15.985 35.5842C15.9252 35.4046 15.9085 35.2134 15.9364 35.0262C16.0136 26.8352 21.0393 18.7137 26.9298 16.6524C31.5618 15.0312 35.5994 19.8022 38.3709 23.6005C39.3822 24.9824 41.6056 23.9016 40.6252 22.4193C38.2088 18.7832 35.4296 14.9231 30.3961 14.429C36.3482 12.3137 42.1846 11.094 46.8167 12.5839C50.5841 13.7883 52.653 16.7837 54.9073 21.8866C55.7951 23.9016 57.563 23.1218 57.0612 21.5315C56.2892 19.0765 53.8188 15.0158 52.6916 14.1511C58.914 16.6061 62.8821 22.6432 64.2717 29.3365C64.5497 30.6875 62.6505 30.6489 62.9979 31.7529C63.2373 32.5249 64.3103 32.6175 65.8312 31.1739C75.0953 35.7287 38.7492 41.8276 35.9622 37.5352C37.9309 36.8327 54.9691 35.6206 55.1852 33.9145C55.247 33.3818 54.5599 33.0653 54.0349 33.1425C33.5073 36.9022 32.5036 36.0761 17.3183 36.3926ZM8.82618 101.612C5.73815 98.6782 6.27856 92.5021 6.8344 88.202C10.6944 89.9545 15.5349 90.4023 18.0594 90.4332C18.3064 95.1424 18.5149 99.7513 18.5766 104.646C13.9523 104.515 10.7562 103.542 8.81846 101.612H8.82618ZM17.8123 86.1253L17.9513 88.4954C15.5272 88.4414 10.7639 87.9859 7.28989 86.272C9.60591 75.7573 11.5205 63.5519 22.3363 58.3022C22.7088 58.6657 23.1033 59.006 23.5175 59.3213C19.0244 65.8756 17.1407 74.6456 17.8046 86.1253H17.8123ZM40.0539 122.448C36.0008 124.456 29.7476 122.927 25.3857 123.297C22.4444 122.911 17.6193 123.977 14.9559 122.657C14.3229 120.271 18.6693 118.303 19.9431 116.481C27.7944 117.477 33.5227 119.322 40.5711 121.707C40.432 121.978 40.2553 122.227 40.0462 122.448H40.0539ZM49.5187 113.231C49.0864 110.606 48.6463 96.9489 44.4775 104.322C43.6437 109.394 42.6787 114.944 41.5052 120.032C34.3796 117.546 28.5741 115.755 20.6611 114.628C21.518 97.8444 15.7356 73.8504 25.1387 60.4407C26.447 61.2355 27.818 61.9223 29.2381 62.4942C25.5942 76.6065 30.342 79.2468 45.0256 78.5288C60.7745 78.7295 67.6917 74.8695 61.8554 62.3166C63.1212 61.658 64.2944 60.8351 65.3448 59.8694C76.1529 74.2905 70.1313 97.636 72.3701 114.744C64.2717 115.878 58.3427 117.901 50.9623 119.569C50.2471 117.516 49.7629 115.39 49.5187 113.231ZM71.0114 122.209C66.773 121.568 53.4791 124.525 51.5182 121.437C58.8522 119.793 64.7504 117.747 72.7638 116.658C72.5399 117.523 72.0304 118.889 71.0114 122.209ZM89.2771 84.5505C85.417 86.7121 81.1324 80.1423 85.3167 77.9343C89.8483 74.8232 94.1484 82.3271 89.2771 84.5505ZM92.9441 78.7681C90.6281 72.7001 80.1597 75.4022 81.7577 82.219C79.8277 82.1418 76.6239 81.2771 74.0376 80.675C73.8369 74.3368 69.9769 62.1159 66.7499 58.4489C67.2964 57.7824 67.7797 57.0665 68.1935 56.3104C76.4 57.8544 80.8853 61.8071 83.9193 59.1823C82.4757 66.3234 85.0079 74.167 95.0208 77.3553C94.3414 77.8263 93.6389 78.2895 92.9132 78.7681H92.9441ZM103.613 53.2919C109.118 58.0629 108.739 70.8164 100.934 70.5617C102.81 69.7897 102.695 67.3733 100.741 68.2457C100.114 68.773 99.4423 69.2457 98.7341 69.6584C97.4419 68.7098 96.513 67.3477 96.1016 65.7984C97.2112 65.3751 98.283 64.8586 99.3054 64.2544C99.5007 64.1083 99.6341 63.8943 99.679 63.6546C99.7239 63.4149 99.6772 63.167 99.548 62.9602C99.4188 62.7533 99.2167 62.6025 98.9816 62.5377C98.7465 62.4728 98.4956 62.4986 98.2787 62.61C97.4229 63.1241 96.5271 63.5681 95.5998 63.9379C93.415 58.9352 103.405 57.3681 103.582 53.3073L103.613 53.2919ZM100.564 50.2502C103.127 50.9064 102.239 54.3495 98.6415 55.963C89.0223 60.4098 94.4341 72.0903 101.56 72.5612C99.9076 74.1052 98.5334 75.2941 96.588 75.3636C92.2879 75.5411 87.4397 71.9745 86.0809 66.5704C85.417 63.9456 84.9924 61.0351 86.0809 58.4798C88.4124 52.8364 95.9163 49.0767 100.533 50.2656L100.564 50.2502ZM93.2992 45.317C94.0712 45.3865 94.9359 45.4869 95.731 45.5795C95.6461 46.3979 95.5998 47.2857 95.5612 48.1812C94.7245 48.4353 93.913 48.7661 93.1371 49.1694C93.2607 47.8944 93.3045 46.6129 93.2683 45.3325L93.2992 45.317ZM111.272 26.5032C110.77 35.2732 112.561 35.6592 104.902 40.824C103.05 42.368 101.452 43.6881 100.517 43.912C97.7383 43.9969 91.4078 43.2249 88.4587 42.7849C86.9147 40.4688 82.2827 35.2887 81.5107 33.3895C81.2868 32.0771 82.3599 23.1373 83.0547 21.8094C89.2848 16.3204 91.8401 14.4754 92.4423 14.5526C94.8587 14.9231 102.393 15.2551 104.115 15.8572C106.724 19.1383 111.356 23.5001 111.272 26.5032Z" fill="#001434"/>
<path d="M134.277 108.413C133.683 108.591 133.76 109.363 134.277 111.115C134.625 112.189 136.547 111.702 136.146 110.645C135.52 108.892 135.737 107.973 134.277 108.413Z" fill="#001434"/>
<path d="M80.7851 91.0587C79.5808 92.3711 80.9086 94.579 82.2828 98.3619C83.4717 101.627 84.5293 106.537 86.0193 107.502C87.5093 108.467 95.5073 107.502 112.005 107.611C125.577 107.711 140.523 108.043 141.781 106.923C143.04 105.804 141.511 103.318 140.345 99.7978C139.18 96.2774 138.338 91.7458 136.609 90.8271C134.88 89.9084 120.582 90.472 107.69 90.4256C94.1254 90.3793 81.9663 89.8003 80.7851 91.0587Z" fill="#3D9CFB"/>
<path d="M88.3818 113.763C87.4091 114.837 88.6521 117.23 90.0339 121.013C91.2228 124.278 91.7787 128.655 93.2687 129.62C94.7586 130.585 103.729 129.898 120.227 130.014C133.799 130.115 146.607 130.014 148.274 129.775C151.632 129.258 149.98 126.417 148.807 122.896C147.633 119.376 146.491 114.072 144.8 113.154C143.109 112.235 127.816 112.436 114.908 112.382C101.321 112.343 89.5167 112.497 88.3818 113.763Z" fill="#3D9CFB"/>
<path d="M139.458 101.233C138.315 98.1454 138.037 93.6678 136.485 92.7414C135.188 91.9694 134.046 95.0574 132.88 98.5237C132.108 100.739 129.792 104.584 130.379 105.943C130.78 106.946 136.238 106.298 137.489 106.12C138.74 105.943 139.998 102.662 139.458 101.233Z" fill="#001434"/>
<path d="M119.849 92.0467C118.945 92.7493 118.227 95.2969 117.965 96.2078C117.077 99.2959 113.858 104.97 114.699 105.796C116.043 107.109 120.242 106.452 121.578 106.483C122.914 106.514 123.585 103.395 124.326 101.512C125.399 98.8095 128.024 92.8959 127.275 92.2011C126.527 91.5063 120.752 91.3596 119.849 92.0467Z" fill="#001434"/>
<path d="M108.346 91.6222C107.335 91.6222 106.03 91.3829 105.103 91.9387C104.177 92.4946 103.096 95.2584 102.841 96.1616C101.946 99.2497 98.1477 104.847 98.7421 106.121C99.3366 107.394 103.876 107.031 105.906 106.893C107.582 106.746 108.508 103.519 109.288 101.689C110.67 98.4313 112.769 93.5059 112.376 91.9542C112.175 91.0664 110.214 91.545 108.346 91.6222Z" fill="#001434"/>
<path d="M96.9507 92.0464C96.6805 90.9965 92.697 91.3593 91.1221 91.699C89.3542 92.085 88.5127 94.3392 87.7793 96.1921C87.0459 98.0449 84.8688 101.843 85.1159 103.534C85.3972 104.8 86.0504 105.953 86.9918 106.846C87.455 107.155 88.8215 107.301 90.574 107.224C91.7937 107.17 93.1988 103.202 93.4767 102.237C94.3259 99.2492 97.1978 93.0191 96.9507 92.0464Z" fill="#001434"/>
<path d="M143.719 114.126C141.58 113.439 140.191 119.785 138.608 122.618C137.597 124.417 136.856 127.358 137.327 128.207C138.006 129.427 143.194 128.871 144.576 128.732C145.958 128.593 147.594 125.559 146.992 122.842C146.405 120.225 145.155 114.581 143.719 114.126Z" fill="#001434"/>
<path d="M113.256 113.617C112.082 114.064 110.831 117.824 110.53 118.889C109.758 121.699 106.307 127.536 107.782 128.601C108.732 129.281 112.939 129.103 114.622 128.802C116.305 128.501 116.289 125.899 116.938 124.409C118.621 120.418 121.392 114.682 120.065 114.072C118.737 113.462 115.433 112.783 113.256 113.617Z" fill="#001434"/>
<path d="M102.293 124.378C103.196 121.198 105.381 115.516 105.651 114.257C105.922 112.999 99.2128 113.107 98.1397 113.532C97.0666 113.956 96.7424 116.465 95.8932 118.611C95.237 120.287 93.1603 124.61 93.1603 126.162C93.2806 127.05 93.7064 127.869 94.3646 128.478C94.8124 128.933 98.3173 129.157 99.7687 128.91C101.22 128.663 102.062 125.173 102.293 124.378Z" fill="#001434"/>
<path d="M131.838 124.471C132.981 121.553 136.3 114.991 135.05 114.149C133.799 113.308 129.645 113.509 128.31 114.049C126.974 114.589 125.6 117.654 125.299 118.681C124.527 121.476 121.038 126.509 121.964 128.1C122.497 129.011 127.368 128.972 129.275 128.787C131.182 128.601 131.244 126.015 131.838 124.471Z" fill="#001434"/>
<path d="M129.051 77.9036C126.372 77.9036 126.225 82.4198 128.92 83.5469C133.336 85.3998 131.738 77.9036 129.051 77.9036Z" fill="#3D9CFB"/>
<path d="M88.1039 78.6912C84.9541 78.8843 84.3982 82.8678 87.9726 83.4314C91.547 83.9949 91.2537 78.4982 88.1039 78.6912Z" fill="#3D9CFB"/>
</svg>
