<svg width="154" height="154" viewBox="0 0 154 154" fill="none" xmlns="http://www.w3.org/2000/svg">
<path d="M47.7361 96.7041C47.7319 97.407 47.7263 98.1099 47.7192 98.8128L51.2399 98.8159C51.4482 98.2546 51.9635 97.6413 52.331 96.9353C52.3678 96.8649 52.403 96.7945 52.4382 96.7232L47.7353 96.7049V96.7041H47.7361Z" fill="#191919"/>
<path d="M94.6189 98.8137L122.786 98.7854L122.785 98.7433L122.772 97.0878L93.6802 96.9316C94.1672 97.7678 94.5623 98.3168 94.6189 98.8137Z" fill="#191919"/>
<path d="M44.5659 96.6926L29.2343 96.6543L29.2213 98.2531C29.2198 98.4369 29.2014 98.6114 29.1685 98.7768L44.6318 98.8082C44.52 98.1505 44.5468 97.3817 44.5659 96.6926Z" fill="#191919"/>
<path d="M25.1034 96.6528C18.5238 96.6536 13.7037 96.6781 11.6164 96.7371C7.08881 96.8642 5.76338 98.5127 11.2871 98.6475C13.4112 98.6996 18.448 98.7371 25.3018 98.7639C25.1333 98.136 25.0996 97.3917 25.1027 96.6528H25.1034Z" fill="#191919"/>
<path d="M133.945 97.1015C133.945 97.126 130.973 97.1229 125.951 97.1015C125.964 97.6658 125.965 98.2577 125.879 98.7807L128.662 98.7768C141.344 98.7531 142.034 99.0517 142.099 97.9438C142.164 96.8435 141.383 97.1015 133.945 97.1015Z" fill="#191919"/>
<path d="M90.4592 96.914L55.531 96.7363C55.2263 97.3941 54.8342 98.1575 54.3901 98.8183L91.6506 98.816C91.2509 98.342 90.8459 97.7141 90.4592 96.914Z" fill="#191919"/>
<path d="M103.242 114.553C99.0142 114.661 93.652 113.109 88.5862 113.328C87.188 113.388 85.6888 113.803 85.6505 113.423C85.603 112.955 88.4683 112.403 92.6903 112.723C97.2378 113.066 104.974 114.954 109.874 112.588C113.071 111.044 113.406 107.785 110.761 106.431C107.781 104.905 103.075 105.726 103.046 105.272C103.031 105.03 103.347 105.05 103.522 105.019C116.595 102.737 116.792 115.122 103.242 114.553Z" fill="#38A1FF"/>
<path d="M66.0329 112.921C65.0658 113.841 60.9547 114.601 56.1477 112.319C53.4754 111.051 47.7939 112.612 45.1354 110.606C43.7877 109.589 43.9853 108.023 45.542 107.376C47.2311 106.674 54.5006 105.785 54.5336 106.38C54.5596 106.849 48.0542 106.988 45.9822 107.871C43.5167 108.922 45.0818 111.423 51.9493 110.969C57.003 110.634 57.47 113.312 63.3736 112.94C64.2021 112.888 65.0351 112.834 66.0329 112.921Z" fill="#38A1FF"/>
<path d="M71.2288 107.959C66.7403 107.959 62.8927 107.791 57.8712 108.419C56.375 108.607 56.4684 108.063 56.9861 107.993C58.9999 107.722 61.0068 107.419 63.0466 107.334C64.4279 107.278 70.1913 107.044 71.2288 107.959Z" fill="#38A1FF"/>
<path d="M99.9229 111.628C99.9734 111.139 105.505 111.406 105.519 109.405C105.526 108.248 103.823 108.35 103.911 107.958C103.957 107.749 104.175 107.749 104.356 107.735C106.117 107.601 107.166 109.794 105.551 110.965C104.241 111.915 99.8662 112.173 99.9229 111.628Z" fill="#38A1FF"/>
<path d="M20.8123 108.309C20.0114 108.567 19.712 106.17 19.2534 106.144C18.5903 106.105 18.2809 109.147 17.5696 109.009C17.1844 108.934 17.2266 108.584 17.3024 108.329C17.5903 107.36 17.8774 106.382 18.3996 105.505C19.8422 103.083 21.5704 108.065 20.8123 108.309Z" fill="#38A1FF"/>
<path d="M132.092 111.827C131.331 112.817 131.207 114.151 130.71 114.021C129.832 113.791 130.923 111.509 131.42 110.829C132.808 108.929 134.482 113.471 133.795 113.76C133.241 113.994 132.647 112.095 132.092 111.827Z" fill="#38A1FF"/>
<path d="M123.612 116.02C123.577 116.67 123.086 116.659 122.882 116.237C122.101 114.622 122.11 114.093 121.442 114.889C120.828 115.621 120.739 116.494 120.241 116.284C119.521 115.982 121.42 111.993 122.879 113.844C123.382 114.483 123.439 115.271 123.612 116.02Z" fill="#38A1FF"/>
<path d="M128.136 104.296C127.455 104.553 127.095 102.141 126.545 103.093C125.667 104.612 125.567 105.046 125.171 104.892C124.586 104.665 125.655 102.481 126.233 101.837C127.558 100.36 128.744 104.067 128.136 104.296Z" fill="#38A1FF"/>
<path d="M136.266 108.349C137.135 107.413 138.087 108.76 138.242 110.019C138.306 110.54 137.952 110.618 137.658 110.274C136.939 109.43 136.939 109.019 136.584 109.611C136.308 110.071 135.832 111.118 135.343 110.864C134.679 110.521 136.046 108.586 136.266 108.349Z" fill="#38A1FF"/>
<path d="M10.104 112.302C10.5259 111.136 11.333 108.63 12.1729 110.053C12.4493 110.52 13.1836 112.377 12.8651 112.549C12.6101 112.687 12.055 111.804 11.895 111.448C11.3138 110.154 11.0918 113.098 10.3529 112.832C10.1285 112.751 10.1285 112.533 10.104 112.303V112.302Z" fill="#38A1FF"/>
<path d="M20.9608 113.565C20.9202 114.106 20.4301 114.075 20.1285 113.625C19.5006 112.69 19.6323 112.897 18.7701 114.358C18.5672 114.702 17.947 114.539 18.084 114.089C18.4899 112.756 19.3092 111.13 20.3076 112.086C20.7295 112.49 20.7617 113.083 20.96 113.565H20.9608Z" fill="#38A1FF"/>
<path d="M21.7302 108.462C21.9209 107.371 22.7685 106.291 23.4875 107.207C24.8121 108.896 24.1169 109.799 23.1651 108.301C22.7739 107.686 22.5694 108.28 22.3351 108.711C22.1008 109.142 21.7195 109.096 21.7302 108.462Z" fill="#38A1FF"/>
<path d="M110.727 101.55C103.479 100.399 91.3349 100.441 86.9965 101.115C86.4222 101.148 85.851 101.177 85.2821 101.207C85.6351 101.54 85.8502 101.886 85.9743 102.223C95.9039 101.813 103.433 101.622 111.464 103.18C121.471 105.123 122.311 108.759 113.467 114.266C106.974 118.308 99.5524 118.678 92.0838 117.024C88.1963 116.162 83.1764 114.341 77.707 116.342C72.7101 118.171 68.5393 119.907 63.5362 119.313C54.9864 118.298 54.7475 114.28 44.6908 113.599C41.0353 113.352 37.2444 112.844 34.4549 109.991C32.5636 108.056 34.9733 105.491 37.2298 104.485C42.7214 102.038 47.2314 103.674 77.4092 102.572C77.6611 102.563 77.6909 102.556 77.9398 102.547C77.926 102.339 78.2974 101.745 78.4038 101.471C54.1947 102.134 36.2176 100.007 33.3148 106.002C31.4541 109.847 34.0927 112.288 38.1027 113.849C41.3822 115.125 44.4519 114.73 48.8149 115.583C55.6449 116.919 60.4795 124.704 76.0125 118.485C82.119 116.04 84.619 116.627 90.3495 118.088C98.2454 120.1 106.144 120.174 113.216 116.125C124.06 109.918 124.225 103.695 110.729 101.553L110.727 101.55Z" fill="#38A1FF"/>
<path d="M119.006 87.9951C119.223 87.5854 119.461 87.1842 119.722 86.8013C114.877 81.92 107.18 81.4652 102.86 85.6842C103.076 86.0272 103.278 86.3825 103.466 86.7447C107.461 82.6436 114.622 83.3396 119.006 87.9951Z" fill="#38A1FF"/>
<path d="M113.493 91.1222C113.212 91.1628 113.142 90.7891 113.07 90.4943C112.876 89.7095 112.498 90.7968 112.107 90.3289C111.74 89.8902 113.545 88.3718 113.66 89.904C113.666 89.9882 113.832 91.0739 113.493 91.1222Z" fill="#38A1FF"/>
<path d="M104.89 90.5393C104.966 90.8609 105.03 91.1756 105.08 91.4796C105.407 90.9589 105.639 92.1588 106.434 91.805C105.72 90.7576 105.364 90.0194 104.89 90.5393H104.89Z" fill="#38A1FF"/>
<path d="M109.3 86.9214C108.727 87.0178 108.441 85.8103 108.001 86.7743C107.871 87.06 107.493 86.8433 107.535 86.5898C107.749 85.282 108.554 84.5561 109.3 86.9214Z" fill="#38A1FF"/>
<path d="M117.767 90.456C117.78 90.6306 117.773 90.8779 117.83 91.0418C117.946 90.5859 118.085 90.1363 118.248 89.6949C118.202 89.5867 118.12 89.4975 118.017 89.4422C117.624 89.2164 116.586 89.8779 116.817 90.2171C117.144 90.6995 117.683 89.3488 117.766 90.4568L117.767 90.456Z" fill="#38A1FF"/>
<path d="M97.5972 91.495C98.4532 91.8802 98.5979 90.3365 98.9923 91.1773C99.0964 91.4001 99.2733 91.6221 99.5168 91.4567C99.8116 91.2569 99.624 90.992 99.5168 90.7554C98.7204 89.0004 98.4333 89.9544 97.5972 91.495Z" fill="#38A1FF"/>
<path d="M94.4922 86.0822C95.0695 86.1665 95.2939 84.7844 95.7816 85.8594C95.9256 86.1772 96.2931 85.9161 96.2387 85.6289C95.9608 84.155 95.1201 83.3678 94.4922 86.0822Z" fill="#38A1FF"/>
<path d="M132.136 91.2684C131.855 91.309 131.785 90.9353 131.713 90.6406C131.519 89.8557 131.142 90.943 130.75 90.4752C130.383 90.0364 132.188 88.518 132.303 90.0502C132.309 90.1344 132.475 91.2202 132.136 91.2684Z" fill="#38A1FF"/>
<path d="M127.943 87.0693C127.37 87.1658 127.084 85.9583 126.644 86.9223C126.514 87.2079 126.136 86.9912 126.178 86.7378C126.392 85.4299 127.197 84.7041 127.943 87.0693Z" fill="#38A1FF"/>
<path d="M136.978 90.5425C136.916 90.8572 137.068 91.3388 136.688 91.3588C136.396 91.3741 136.43 90.8909 136.408 90.6038C136.325 89.4958 135.786 90.8465 135.458 90.3641C135.227 90.0249 136.265 89.3633 136.658 89.5892C137.05 89.8151 136.903 90.2232 136.978 90.5425Z" fill="#38A1FF"/>
<path d="M92.1743 81.5585C92.0949 82.0534 92.0221 82.5494 91.9561 83.0463C95.9484 82.2293 100.057 83.8855 102.188 88.4444C102.484 88.436 102.798 88.5302 102.952 88.7094C103.031 88.8028 103.19 88.9291 102.782 89.9467C103.028 90.6933 103.228 91.5019 103.376 92.3733C103.644 93.9537 103.606 94.3671 104.033 94.3066C104.424 94.2515 104.372 93.8878 104.433 93.0654C103.678 84.4069 97.8948 80.7224 92.1743 81.5585Z" fill="#38A1FF"/>
<path d="M122.825 84.7515C120.305 86.462 118.52 89.3993 118.313 93.5976C118.409 94.3189 118.373 94.642 118.767 94.6749C119.197 94.7109 119.14 94.3495 119.34 92.9483C119.775 89.8901 121.072 87.6695 122.833 86.2293C122.84 85.5715 122.84 85.0907 122.825 84.7515Z" fill="#38A1FF"/>
<path d="M141.72 92.338C139.709 86.6986 135.017 83.5616 130.356 83.0325C129.785 83.4865 129.165 83.877 128.509 84.1971C133.398 84.0662 138.759 87.2982 140.672 93.3434C140.896 94.0509 141.173 94.116 141.601 94.0402C142.209 93.9322 141.926 92.9184 141.719 92.338H141.72Z" fill="#38A1FF"/>
<path d="M32.4375 87.9951C32.6542 87.5854 32.8931 87.1842 33.1534 86.8013C26.2813 79.8779 13.6717 81.8595 13.1021 93.4507C13.1985 94.172 13.1618 94.4951 13.5561 94.528C13.9857 94.564 13.929 94.2026 14.1289 92.8014C15.5745 82.6397 26.5286 81.7194 32.4375 87.9951Z" fill="#38A1FF"/>
<path d="M26.9238 91.1222C26.6428 91.1628 26.5731 90.7891 26.5004 90.4943C26.3066 89.7095 25.9291 90.7968 25.5379 90.3289C25.1711 89.8902 26.9759 88.3718 27.0907 89.904C27.0968 89.9882 27.263 91.0739 26.9238 91.1222Z" fill="#38A1FF"/>
<path d="M19.8645 91.8052C19.0268 92.1781 18.8155 90.8243 18.4571 91.5793C18.3622 91.7807 18.1968 91.9813 17.9449 91.845C17.6424 91.6811 17.8178 91.4399 17.9142 91.2278C18.634 89.652 18.9633 90.482 19.8645 91.8052Z" fill="#38A1FF"/>
<path d="M22.7316 86.9216C22.1588 87.0181 21.8725 85.8106 21.4329 86.7746C21.3028 87.0602 20.9245 86.8435 20.9666 86.5901C21.181 85.2822 21.9858 84.5564 22.7316 86.9216Z" fill="#38A1FF"/>
<path d="M31.1986 90.456C31.2108 90.6306 31.2039 90.8779 31.2614 91.0418C31.3767 90.5858 31.516 90.1362 31.6787 89.6949C31.6327 89.5867 31.5511 89.4975 31.4474 89.4422C31.0546 89.2164 30.0163 89.8779 30.2476 90.2171C30.5753 90.6995 31.1143 89.3488 31.197 90.4568L31.1978 90.456H31.1986Z" fill="#38A1FF"/>
<path d="M40.3756 83.1199C35.8564 83.894 32.0517 87.3504 31.7446 93.5977C31.8411 94.319 31.8044 94.6421 32.1987 94.675C32.6282 94.711 32.5716 94.3496 32.7714 92.9484C33.6198 86.9867 37.7408 84.2064 42.1964 84.1934C41.553 83.9014 40.9426 83.5416 40.3756 83.1199Z" fill="#38A1FF"/>
<path d="M53.9612 89.773C52.4053 87.1091 50.1648 85.2156 47.6993 84.1091C47.6733 84.3963 47.6671 84.8664 47.671 85.5594C50.2261 86.8879 52.4604 89.1635 53.7277 92.2952C53.8463 91.466 53.9175 90.6222 53.9612 89.773Z" fill="#38A1FF"/>
<path d="M38.0211 91.9813C37.5655 91.8136 37.3763 91.1436 37.1007 91.7256C37.0057 91.9269 36.8403 92.1276 36.5884 91.9913C36.286 91.8274 36.4613 91.5862 36.5578 91.3741C37.2286 89.904 37.6773 90.479 38.4514 91.6429C38.6604 91.9576 38.325 92.0931 38.0211 91.9813Z" fill="#38A1FF"/>
<path d="M41.1311 86.8688C40.7743 86.6222 40.4137 86.1812 40.076 86.9216C39.9458 87.2072 39.5676 86.9905 39.6097 86.7371C39.8111 85.5112 40.7636 84.9408 41.4673 86.8052C41.4964 86.8818 41.5094 87.1299 41.1311 86.8688Z" fill="#38A1FF"/>
<path d="M50.4101 90.5425C50.3488 90.8572 50.4997 91.3388 50.1191 91.3588C49.8274 91.3741 49.8611 90.8909 49.8396 90.6038C49.7569 89.4958 49.2179 90.8465 48.8902 90.3641C48.6589 90.0249 49.6964 89.3633 50.0893 89.5892C50.4821 89.8151 50.3343 90.2232 50.4093 90.5425H50.4101Z" fill="#38A1FF"/>
<path d="M101.748 86.7055C102.429 86.3556 101.895 86.0317 101.969 60.262C101.983 55.3263 102.595 56.246 100.337 55.9481C100.092 55.9159 99.8642 55.8179 99.8696 55.5048C99.8742 55.2115 100.123 55.21 100.311 55.1058C100.576 54.9603 101.043 55.2528 101.102 54.8401C101.164 54.3968 100.065 53.7398 99.4637 48.9519C99.3244 47.8424 98.4974 48.6234 98.4783 47.7674C98.4614 46.9971 99.2746 47.5553 99.6751 46.6334C101.559 42.3003 101.957 43.5392 101.943 42.5039C101.934 41.7612 101.987 40.9312 102.689 40.9143C103.001 40.9067 103.298 41.0568 103.286 41.3761C103.237 42.6471 103.929 43.5062 104.723 44.3868C105.855 45.6441 105.439 46.8891 106.402 46.9756C107.152 47.0438 107.207 48.118 106.446 48.2306C105.494 48.3723 106.495 50.2658 104.953 54.2804C104.539 55.3593 105.693 54.6533 105.533 55.5354C105.442 56.0369 104.945 55.9963 103.945 55.9894C103.018 55.9833 103.641 55.9848 103.571 79.2215C103.549 86.5171 103.252 86.4099 103.99 86.8962C105.886 88.1458 105.765 92.2629 105.756 98.0379C105.753 99.9988 102.382 99.838 100.521 99.2132C100.115 99.0769 100.027 98.7346 100.012 98.3526C99.7003 90.9077 99.636 87.789 101.748 86.7055ZM102.814 54.9152C103.947 54.9029 103.932 54.8968 104.271 54.0698C104.951 52.4098 105.22 50.6755 105.293 48.8937C105.321 48.2138 105.37 48.2191 101.167 48.3347C100.065 48.3654 99.9561 47.9986 100.366 49.6471C100.912 51.8478 101.37 55.4956 102.815 54.9159L102.814 54.9152ZM101.814 94.7767C102.101 92.959 102.076 91.2407 102.64 89.2292C102.772 88.7583 102.246 88.508 101.868 88.8027C101.085 89.4138 100.495 93.2545 101.032 95.2354C101.422 96.6787 101.665 95.7293 101.815 94.7775L101.814 94.7767ZM102.644 44.8064C102.628 44.1173 102.104 44.1356 101.86 44.3799C100.962 45.2788 101.03 46.9013 101.775 46.2888C102.263 45.8868 102.488 45.3141 102.644 44.8064Z" fill="#38A1FF"/>
<path d="M90.2141 106.926C89.8802 108.497 88.7095 109.689 86.9491 109.882C83.0693 110.308 80.0333 109.659 80.4927 105.818C80.6061 104.869 81.9139 104.788 81.5961 104.056C81.0762 102.859 79.7492 104.57 78.9889 102.764C78.5256 101.663 80.0348 102.781 81.3105 101.451C82.0226 100.71 83.2362 100.752 84.2033 101.347C86.8718 102.99 83.6949 104.854 86.332 105.463C87.7225 105.784 89.0089 105.98 89.7577 104.794C90.9507 102.903 91.0226 107.656 85.8748 106.009C83.2462 105.168 85.894 103.04 83.7952 101.807C83.0035 101.341 82.0762 101.33 81.5303 101.938C80.776 102.778 79.9943 102.572 79.4644 102.641C79.7041 103.095 80.0448 103.257 80.5111 103.143C82.0341 102.771 82.7676 104.408 81.7401 105.137C80.5341 105.992 80.9376 108.133 82.1757 108.811C83.8978 109.753 85.8358 109.32 86.7967 109.258C88.8082 109.131 89.0219 107.636 89.7248 106.777C90.2784 106.1 90.2301 106.847 90.2141 106.925V106.926Z" fill="#191919"/>
<path d="M82.8236 106.657C83.5249 107.433 84.1758 108.163 85.2998 108.148C85.9354 108.139 86.5196 108.013 87.0326 107.498C85.541 107.089 84.7248 106.935 84.3373 106.54C84.0303 106.225 84.0112 105.848 84.4905 106.093C85.8787 106.804 87.4377 106.814 87.5893 107.311C87.8726 108.24 84.6321 109.746 83.0173 107.628C82.8504 107.409 82.6329 107.197 82.5349 106.902C82.3442 106.325 82.466 106.262 82.8236 106.657Z" fill="#191919"/>
<path d="M82.5066 102.909C82.1276 102.833 82.1827 102.246 82.5632 102.284C82.9637 102.323 82.904 102.91 82.5066 102.909Z" fill="#191919"/>
<path d="M78.3979 110.216C75.8075 110.141 77.3879 107.943 75.881 107.953C74.9086 107.959 74.1743 108.934 73.9446 108.604C73.731 108.297 74.8979 107.416 75.757 107.349C77.95 107.176 76.6919 109.16 77.953 109.505C79.2141 109.85 79.218 108.281 79.7624 108.748C80.1299 109.064 79.4109 110.246 78.3979 110.217V110.216Z" fill="#191919"/>
<path d="M76.5809 111.177C77.9485 111.177 78.3428 110.398 78.5511 110.729C78.7892 111.109 77.8849 111.598 77.4002 111.71C75.1399 112.233 73.5664 110.357 74.6713 108.939C74.8673 108.687 75.0411 108.896 75.0365 109.01C74.9898 110.212 74.3972 110.826 76.5809 111.177Z" fill="#191919"/>
<path d="M75.6405 108.857C75.2829 108.86 75.3656 108.38 75.5869 108.344C75.8572 108.3 76.0226 108.804 75.6405 108.857Z" fill="#191919"/>
<path d="M96.5766 108.379C93.9862 108.304 95.5666 106.106 94.0597 106.116C93.0865 106.122 92.353 107.097 92.1233 106.767C91.9097 106.46 93.0766 105.579 93.9357 105.512C96.1287 105.34 94.8706 107.323 96.1317 107.668C97.3928 108.013 97.3967 106.444 97.9411 106.912C98.3086 107.227 97.5896 108.409 96.5766 108.38V108.379Z" fill="#191919"/>
<path d="M94.7592 109.339C96.1267 109.339 96.521 108.559 96.7293 108.891C96.9674 109.27 96.0631 109.759 95.5785 109.872C93.3181 110.394 91.7446 108.518 92.8495 107.1C93.0455 106.848 93.2193 107.057 93.2147 107.172C93.168 108.373 92.5754 108.987 94.7592 109.339Z" fill="#191919"/>
<path d="M93.8182 107.02C93.4606 107.023 93.5433 106.543 93.7646 106.507C94.0349 106.463 94.2003 106.968 93.8182 107.02Z" fill="#191919"/>
<path d="M34.5017 73.5348C32.8662 75.103 30.9236 76.2255 28.6793 76.7285C28.2008 76.8357 28.187 76.6275 28.1617 76.2515C27.9014 72.2951 29.0607 73.142 33.0147 64.4705C33.3302 63.7783 33.3899 63.4345 32.8846 63.1711C31.6426 62.5217 28.8953 70.1619 28.0606 70.0057C28.0606 65.1067 27.9657 65.1435 28.3746 64.2446C35.2521 49.109 35.7529 48.2851 35.0209 47.9558C34.615 47.7736 34.3639 48.1044 33.0323 50.8088C31.3861 54.1496 29.7551 57.5011 28.262 60.9145C28.2329 60.9819 28.1678 61.034 27.893 61.0975C27.893 59.073 28.0361 53.6634 27.2115 53.6312C25.7995 53.5761 26.7498 67.0868 26.1571 65.8671C22.837 59.0309 23.8968 63.0838 23.0484 51.8647C23.0208 51.4857 22.9404 51.0967 22.4458 51.1327C21.9917 51.1656 21.9573 51.5822 21.9657 51.9015C22.1517 59.3709 23.0262 59.4275 18.6877 50.9865C18.4641 50.5508 18.105 50.1672 17.6716 50.3953C17.1946 50.6473 17.337 51.1136 18.1563 52.8601C28.1357 74.1206 26.0201 67.0937 26.1579 76.1887C26.1671 76.8273 25.9841 76.8901 25.4152 76.7844C22.386 76.2224 20.128 74.4751 18.3049 72.1267C6.41737 56.8134 17.5866 28.5821 31.7498 35.37C36.5415 37.6656 39.4481 43.1472 40.5201 49.4053C41.0794 48.9896 41.6744 48.6243 42.2981 48.3134C42.0834 47.3279 41.8233 46.3529 41.5186 45.3915C38.4558 35.7138 30.2544 29.1472 21.6739 34.2023C6.43805 43.1786 9.52229 76.4085 25.4106 78.6926C26.6051 78.8641 26.0997 78.6619 26.1334 94.7807C26.1387 97.1475 25.7758 99.3756 27.2582 99.391C27.8646 99.3971 28.2153 98.9752 28.2222 98.2447C28.3937 78.5838 27.602 78.8602 29.0216 78.6083C31.2115 78.2201 33.2904 77.1236 35.1457 75.482C34.9022 74.8449 34.6863 74.1941 34.4987 73.5363L34.501 73.5348H34.5017Z" fill="#191919"/>
<path d="M44.7886 83.6726C32.5473 81.9169 30.1714 56.3142 41.9096 49.3976C48.5191 45.5025 54.8376 50.5623 57.1975 58.0179C60.9824 69.9727 55.1309 82.2699 47.5704 83.6068C46.4762 83.8005 47.0849 83.5869 46.9548 98.734C46.9502 99.2975 46.6799 99.6229 46.212 99.6176C45.0704 99.6061 45.3491 97.8879 45.3453 96.0663C45.3162 83.6497 45.7105 83.8044 44.7878 83.6726H44.7886ZM46.8284 76.9781C47.4701 77.0991 50.2182 70.0524 51.1745 70.5509C51.5627 70.7538 51.3116 71.263 51.0689 71.7966C48.0306 78.4804 46.7082 78.7454 46.905 81.7936C46.9241 82.0838 46.9341 82.2431 47.3039 82.1604C58.9563 79.5509 60.0291 55.2614 49.6722 50.2981C38.7587 45.0684 30.1568 66.8165 39.3131 78.6144C40.7174 80.4238 42.4563 81.7707 44.7901 82.2025C45.2289 82.2837 45.3705 82.2362 45.3629 81.7439C45.2541 74.7385 46.8897 80.1489 39.1982 63.7713C38.5657 62.4252 38.457 62.0669 38.8238 61.8732C39.1569 61.6971 39.4348 61.9926 39.6063 62.3272C42.9478 68.8303 42.2779 68.7867 42.1308 63.0317C42.1247 62.7859 42.1507 62.4651 42.5007 62.439C42.8812 62.4107 42.9425 62.7109 42.9639 63.0041C43.6018 71.6473 42.7978 68.5271 45.3583 73.7913C45.8154 74.7308 45.0818 64.3219 46.1699 64.364C46.8054 64.3885 46.6944 68.5554 46.6944 70.1159C46.9065 70.0669 46.957 70.0271 46.98 69.9766C48.1583 67.3595 49.3836 64.7639 50.6554 62.1909C51.6814 60.109 51.8751 59.8525 52.1883 59.9934C52.7511 60.2468 52.3698 60.8831 47.0688 72.5409C46.7541 73.2331 46.8276 73.2055 46.8276 76.9789L46.8284 76.9781Z" fill="#191919"/>
<path d="M125.164 96.0672C125.159 97.8903 125.437 99.6078 124.295 99.6185C123.827 99.6231 123.557 99.2977 123.553 98.7349C123.422 83.5878 124.031 83.8014 122.937 83.6077C115.377 82.2708 109.526 69.9721 113.31 58.0188C115.67 50.5632 121.988 45.5042 128.598 49.3985C140.336 56.3143 137.961 81.9163 125.72 83.6736C124.799 83.806 125.193 83.6506 125.163 96.0672H125.164ZM123.435 72.5441C118.134 60.8863 117.751 60.2477 118.316 59.9951C118.629 59.8549 118.823 60.1099 119.849 62.1926C121.118 64.7677 122.363 67.3527 123.524 69.9783C123.547 70.0303 123.596 70.0686 123.81 70.1176C123.81 68.5571 123.7 64.3902 124.334 64.3657C125.422 64.3236 124.69 74.7325 125.146 73.793C127.704 68.5265 126.902 71.649 127.54 63.0058C127.562 62.7125 127.625 62.4131 128.004 62.4407C128.353 62.4667 128.38 62.786 128.373 63.0334C128.227 68.7884 127.557 68.8312 130.898 62.3289C131.069 61.9943 131.347 61.6987 131.68 61.8748C132.049 62.0686 131.938 62.4269 131.306 63.773C123.615 80.1506 125.251 74.7378 125.141 81.7455C125.134 82.2379 125.275 82.2853 125.714 82.2042C128.046 81.7723 129.787 80.4255 131.191 78.6161C140.348 66.8174 131.746 45.07 120.832 50.2998C109.919 55.5303 111.547 79.5526 123.2 82.1621C123.57 82.2448 123.58 82.084 123.599 81.7953C123.805 78.7478 122.475 78.4821 119.435 71.7983C119.193 71.2646 118.941 70.7562 119.33 70.5525C120.285 70.051 123.034 77.1023 123.676 76.9813C123.676 73.208 123.749 73.2355 123.435 72.5433L123.435 72.5441Z" fill="#191919"/>
<path d="M91.4492 81.2393C89.3711 93.8366 93.375 97.7846 93.757 98.5656C94.3359 99.7486 92.0901 99.7823 90.4561 94.8703C89.9408 93.3205 90.0357 94.6215 56.2178 94.3964C55.1129 94.3887 55.8396 95.3045 53.5999 98.6337C53.253 99.1491 52.4858 99.9086 52.0364 99.4775C51.6458 99.1031 52.3656 98.5365 53.0126 97.2892C54.8564 93.7394 54.7776 89.5081 54.8082 85.5985C54.8327 82.4706 53.8204 81.3021 54.6252 81.1207C55.0471 81.0249 55.2898 81.4262 55.8327 83.466C56.2087 84.8795 56.9276 81.6712 68.0701 80.2738C73.9461 79.5372 81.9124 79.7922 87.4546 82.2087C89.4929 83.0977 89.7647 83.891 89.9944 82.9836C90.8106 79.76 91.5281 80.7638 91.4492 81.2393ZM56.9682 90.4982C56.3388 90.4989 56.3786 90.8389 56.3495 91.2516C56.312 91.7914 56.6811 91.6812 56.9866 91.6797C83.8519 91.5633 89.5059 91.9599 89.4661 90.8129C89.4293 89.7424 84.0962 90.4645 56.9682 90.4982ZM72.7906 83.9622C72.7906 82.3756 72.7906 82.3948 71.172 82.4445C70.7102 82.4583 70.6069 82.6176 70.6283 83.0479C70.8641 87.7302 70.4599 87.7302 70.8542 88.0219C71.2179 88.2907 71.9285 88.0801 72.4874 88.0969C73.0632 88.1146 72.7914 87.9591 72.7914 83.9629V83.9622H72.7906ZM67.505 83.2853C67.505 83.1383 67.5663 82.9599 67.384 82.8588C67.2309 82.7738 65.6742 83.0349 65.5961 83.1735C65.5157 83.3159 65.5869 83.4637 65.6084 86.9116C65.6168 88.2179 65.6084 88.1957 66.9193 88.195C67.3251 88.195 67.4361 88.1299 67.4591 87.5502C67.4752 87.1536 67.5157 85.4928 67.505 83.2853ZM75.9936 86.9423C75.9767 87.9874 75.9752 87.9599 77.0311 87.9997C77.528 88.0181 77.6329 87.8389 77.6238 87.3841C77.5196 82.2554 78.0839 82.6268 76.4829 82.4958C75.7884 82.4392 76.0671 82.4514 75.9943 86.9415V86.9423H75.9936ZM81.061 86.7026C81.064 87.9576 81.064 87.9354 82.2991 87.9606C83.2631 87.9806 82.5893 87.5632 82.7685 84.9315C82.8634 83.5349 82.8864 83.5579 81.5395 83.2263C81.1199 83.123 80.9997 83.1337 80.9722 83.7286C80.9522 84.1505 81.0594 86.0364 81.061 86.7026ZM62.9506 84.5602C62.9537 83.6704 62.9614 83.6965 62.0762 83.8971C61.5555 84.0158 61.3702 84.2608 61.4055 84.7998C61.6459 88.4583 60.8373 88.2034 62.4215 88.2286C63.0954 88.2394 62.9392 88.2309 62.9506 84.5602ZM85.4951 86.8986C85.476 87.9821 85.4752 87.9698 86.5526 87.9361C87.3826 87.9101 86.8688 87.0678 86.9806 86.2401C87.1491 84.9997 87.1292 85.0096 85.9584 84.5303C85.3703 84.2899 85.5388 84.3833 85.4951 86.8986ZM58.8243 85.3971C58.8059 85.2585 58.7745 85.159 58.7209 85.1337C58.5303 85.0433 58.3541 85.2248 58.1696 85.2884C57.7347 85.4384 57.9843 85.7485 57.9407 87.845C57.933 88.2057 58.0479 88.3259 58.4162 88.3251C58.7286 88.3251 58.8335 88.244 58.8633 87.9668C58.8894 87.7286 58.8832 85.8565 58.8228 85.3963L58.8243 85.3971Z" fill="#38A1FF"/>
</svg>
