<svg width="154" height="154" viewBox="0 0 154 154" fill="none" xmlns="http://www.w3.org/2000/svg">
<path d="M136.326 93.0948L135.253 59.1738L119.872 62.3796C120.149 63.1615 120.534 63.9009 121.016 64.5763C121.6 65.4577 121.985 66.456 122.144 67.5015C122.303 68.547 122.232 69.6146 121.936 70.6298C121.596 72.1608 120.804 73.5542 119.661 74.6285C118.519 75.7029 117.079 76.4084 115.53 76.6534C111.105 77.1549 108.047 71.7769 110.569 66.8183C111.02 65.9684 111.358 65.0642 111.578 64.1278L95.6147 67.4685L96.2427 82.759C99.7468 81.3574 103.367 83.6301 103.776 87.6241C104.211 91.8657 101.033 96.3811 96.8254 96.6817L97.4534 111.927L128.281 104.484C132.896 103.34 136.483 98.2512 136.326 93.0948Z" fill="#FFE55D"/>
<path d="M94.7374 51.5951C99.0312 51.5951 101.777 47.5214 101.777 43.2099C101.777 39.2995 98.368 36.5599 94.1547 37.9638L93.4822 21.8445L60.5251 27.6288C55.624 28.4669 51.2413 33.0728 51.4053 39.7764C51.4912 43.3081 52.0072 51.8435 53.2609 76.1203L70.1876 72.5557C69.3634 70.464 68.5844 70.1021 68.0599 68.7005C66.7626 65.2501 68.109 60.573 72.7463 58.2536C78.2163 56.1304 82.3368 61.2661 80.5257 66.7507C79.9516 68.0165 79.4429 69.3109 79.0014 70.6289L95.3454 67.2659L94.7374 51.5951Z" fill="#FFE55D"/>
<path d="M109.893 70.8323C109.953 73.8809 112.147 76.6888 115.486 76.369C120.788 75.8607 123.762 68.6249 120.835 64.6661C120.291 63.9013 119.874 63.0532 119.601 62.155L135.273 58.8818L134.154 24.4011C133.976 18.9211 129.894 15.4301 125.343 16.2168L93.7065 21.7757L94.3568 37.6037C95.2121 37.3464 96.1145 37.2851 96.9968 37.4244C97.8791 37.5637 98.7187 37.9 99.4532 38.4083C100.188 38.9166 100.798 39.5838 101.24 40.3604C101.681 41.1371 101.941 42.0031 102.002 42.8943C102.444 47.6527 98.6513 51.84 94.9847 51.84L95.6119 67.2439L111.867 63.8357C110.739 67.7807 109.834 67.7278 109.893 70.8316V70.8323Z" fill="#FFE55D"/>
<path d="M95.3877 67.5137L87.7202 69.1238L88.0568 77.0605L88.0584 77.0689C88.0591 77.0719 88.0607 77.0745 88.063 77.0766C88.0652 77.0786 88.0678 77.0802 88.0706 77.0812C88.0733 77.0823 88.0762 77.0828 88.0791 77.0827L96.0157 82.6876L95.3877 67.5137Z" fill="#FFE55D"/>
<path d="M72.8144 58.5029C72.7638 61.4334 71.4496 62.2692 70.8638 64.9375C70.8638 65.0141 70.8546 64.9597 78.8679 70.6773C79.0271 69.9847 79.2523 69.309 79.5403 68.6593C79.9796 67.651 81.3805 65.3845 80.5716 62.3366C80.3081 61.1099 79.6347 60.0095 78.6624 59.2165C77.69 58.4235 76.4766 57.9852 75.222 57.9738C74.3898 57.9665 73.5668 58.1473 72.8144 58.5029Z" fill="#FFE55D"/>
<path d="M88.6621 90.9426C89.2908 106.166 89.2356 106.166 89.3123 106.166L97.2489 111.84L96.621 96.6166L88.6621 90.9426Z" fill="#FFE55D"/>
<path d="M101.464 83.6107C100.729 83.0559 99.8611 82.7055 98.9474 82.5952C98.0337 82.4849 97.1071 82.6186 96.2619 82.9827C96.2619 86.9875 92.5171 90.4202 88.8413 90.7852C88.9456 90.8894 90.6815 92.1162 96.7327 96.4346C102.959 95.9899 105.876 87.0181 101.464 83.6107Z" fill="#FFE55D"/>
<path d="M120.184 10.4773C119.195 10.2219 118.16 10.1912 117.157 10.3876L52.1884 21.8213C49.5518 22.3488 47.2083 23.8446 45.6196 26.0139C45.7116 26.0139 45.6426 25.9886 53.6705 31.7086C55.0046 29.8795 56.8666 28.5026 59.0063 27.7629C60.2446 27.3573 59.2325 27.7583 125.347 15.9703C126.909 15.6834 128.522 15.9116 129.943 16.6205C127.398 13.6193 123.991 11.4744 120.184 10.4773Z" fill="#FFE55D"/>
<path d="M45.1453 70.3384L53.0819 76.0123C53.0819 76.0123 51.2417 40.0518 51.221 39.6025C51.1006 36.838 51.9314 34.1158 53.5749 31.8897C53.5151 31.8499 45.5716 26.2449 45.5716 26.1729C43.9564 28.3768 43.1417 31.066 43.2622 33.7959L45.1453 70.3391V70.3384Z" fill="#FFE55D"/>
<path d="M149.263 54.6693C148.88 54.4086 148.343 54.7812 148.074 55.0526C147.985 55.1423 147.851 55.0296 147.895 54.9184C148.139 54.5625 148.3 54.1564 148.366 53.73C148.369 53.668 148.358 53.6061 148.333 53.5492C148.308 53.4923 148.27 53.4421 148.222 53.4026C148.174 53.3632 148.118 53.3358 148.057 53.3224C147.996 53.3091 147.933 53.3103 147.873 53.3259C147.392 53.4524 146.85 54.2215 146.618 54.6716C146.549 54.805 146.346 54.693 146.415 54.5596C146.623 54.1624 146.733 53.1611 146.303 53.0123C145.988 52.9042 145.79 53.2155 145.653 53.4609C145.428 53.8642 144.761 55.8178 144.733 55.9045C144.726 55.9291 144.711 55.9507 144.691 55.9658C144.671 55.9811 144.646 55.9894 144.621 55.9894C144.596 55.9894 144.571 55.9811 144.551 55.9658C144.531 55.9507 144.516 55.9291 144.509 55.9045C144.376 55.4736 144.118 55.0917 143.769 54.8065C143.717 54.7775 143.659 54.7602 143.6 54.756C143.541 54.7518 143.481 54.7607 143.425 54.782C143.37 54.8034 143.32 54.8367 143.278 54.8796C143.237 54.9225 143.206 54.974 143.186 55.0304C143.21 55.38 143.318 55.7182 143.5 56.0172C143.677 56.2764 143.799 56.5693 143.857 56.8783C143.915 57.1873 143.908 57.5047 143.837 57.8106C143.654 58.6808 143.344 59.5193 142.917 60.2987C144.076 60.4521 146.148 60.7235 147.558 60.9045C147.954 58.7882 147.975 58.9109 148.163 57.9218C148.242 57.3099 148.431 56.718 148.723 56.1736C149.238 55.3348 149.642 54.92 149.263 54.6693Z" fill="#FFE55D"/>
<path d="M149.539 54.3625C149.42 54.2731 149.281 54.2135 149.134 54.1887C148.988 54.1639 148.837 54.1746 148.695 54.2199C148.731 54.1112 148.759 54 148.778 53.8871C148.82 53.6713 148.775 53.4474 148.653 53.2645C148.531 53.0815 148.342 52.9542 148.126 52.9103C147.913 52.9037 147.701 52.9475 147.508 53.0381C147.315 53.1287 147.146 53.2635 147.015 53.4317C147.019 53.2594 146.969 53.0901 146.872 52.9479C146.774 52.8057 146.635 52.6979 146.472 52.6399C146.31 52.5818 146.134 52.5765 145.968 52.6246C145.803 52.6728 145.657 52.7719 145.551 52.908C145.112 53.5658 144.785 54.2911 144.581 55.0549C144.481 54.8894 144.355 54.7408 144.209 54.6148C143.492 54.0014 142.668 54.5082 142.771 55.2282C142.865 55.9811 143.485 56.57 143.464 57.2371C143.3 58.2779 142.958 59.2827 142.453 60.2075C142.431 60.2522 142.419 60.3016 142.419 60.3516C142.42 60.4015 142.433 60.4506 142.456 60.4949C142.479 60.5392 142.512 60.5776 142.552 60.6069C142.592 60.6361 142.639 60.6553 142.689 60.6629L144.962 60.9696C144.378 64.7213 142.147 75.9296 136.221 77.5996L134.569 24.3872C134.579 22.8899 134.218 21.4134 133.517 20.0901C132.816 18.7668 131.798 17.638 130.554 16.8049C130.54 16.7724 130.519 16.7432 130.493 16.719C127.917 13.4461 124.334 11.1137 120.299 10.0828C119.253 9.82521 118.166 9.78605 117.104 9.96776L52.1293 21.4084C46.6785 22.3669 42.5043 27.9174 42.8233 33.7815L44.7287 70.3385C44.7316 70.4089 44.7504 70.4776 44.7837 70.5397C44.8171 70.6017 44.864 70.6553 44.9211 70.6966C53.3339 76.507 53.041 76.5599 53.3001 76.5568L70.4569 72.9738C70.644 72.9738 70.7383 72.7645 70.7383 72.648C70.5248 71.9969 70.2293 71.3757 69.8589 70.7993C69.5337 70.268 69.1373 69.8279 68.8544 69.2827C67.0042 65.8561 68.6957 60.9037 72.3991 58.9753C72.1928 61.6121 71.0442 62.2202 70.473 64.8885C70.4545 64.9767 70.4622 65.0684 70.4954 65.1522C70.5285 65.236 70.5855 65.3083 70.6593 65.36C78.8582 71.3621 78.7562 71.2164 79.0169 71.221L87.3821 69.4744L87.7088 77.1541C87.7082 77.2253 87.7256 77.2954 87.7593 77.358C87.7931 77.4206 87.8422 77.4737 87.902 77.5122L95.9138 83.1685C95.857 86.7592 92.6451 89.6353 89.539 90.3514C88.9609 90.4856 88.7646 90.4603 88.6595 90.4963C88.6085 90.4826 88.5547 90.4832 88.5039 90.4979C88.4654 90.508 88.4295 90.5259 88.3982 90.5505C88.367 90.5751 88.3412 90.6059 88.3224 90.6409C88.3036 90.676 88.2923 90.7145 88.2891 90.7542C88.2859 90.7938 88.2909 90.8337 88.3038 90.8713L88.9172 106.232C88.9166 106.303 88.934 106.373 88.9676 106.436C89.0012 106.499 89.0501 106.552 89.1096 106.59L97.1007 112.288C97.1007 112.313 97.1057 112.338 97.1154 112.361C97.1252 112.384 97.1395 112.405 97.1574 112.422C97.1751 112.44 97.1958 112.454 97.2195 112.464C97.2425 112.473 97.2671 112.478 97.2924 112.478L128.434 104.939C133.221 103.77 136.968 98.4843 136.785 93.1554L136.32 78.7405C143.119 77.1388 145.483 65.1407 146.082 61.1598L147.641 61.3798C147.694 61.3903 147.748 61.3841 147.798 61.3619C147.847 61.3398 147.888 61.3029 147.915 61.2564C147.933 61.2254 147.944 61.1909 147.948 61.1552C148.146 60.143 148.719 57.3782 148.753 57.2447C149.013 56.5608 149.359 55.9129 149.784 55.3171C149.85 55.1525 149.861 54.9714 149.817 54.7998C149.773 54.6282 149.675 54.4751 149.539 54.3625ZM147.404 60.6437C143.499 60.1461 145.464 60.4014 143.207 60.107C143.59 59.3303 144.197 57.8144 144.072 56.9587C143.968 56.2503 143.314 55.3976 143.376 55.0212C143.392 54.9215 143.577 54.8747 143.678 54.9307C143.922 55.1224 144.11 55.3785 144.219 55.6698C144.265 55.7542 144.303 55.8416 144.332 55.9328C144.351 55.9757 144.379 56.0139 144.414 56.0446C144.45 56.0753 144.491 56.0977 144.537 56.1103C144.582 56.1229 144.629 56.1254 144.675 56.1175C144.722 56.1096 144.766 56.0916 144.804 56.0647C144.855 56.0285 144.895 55.9778 144.917 55.919C145.075 55.4229 145.273 54.9606 145.431 54.4622C145.54 54.1371 145.905 53.0575 146.238 53.1472C146.498 53.2423 146.413 54.0903 146.244 54.4285C146.225 54.4641 146.213 54.503 146.21 54.5431C146.206 54.5832 146.21 54.6237 146.222 54.6622C146.233 54.7008 146.253 54.7366 146.278 54.7676C146.304 54.7987 146.336 54.8244 146.371 54.8433C146.407 54.8622 146.446 54.8738 146.486 54.8777C146.526 54.8815 146.566 54.8774 146.605 54.8656C146.643 54.8537 146.679 54.8344 146.71 54.8088C146.741 54.7831 146.767 54.7516 146.786 54.716C146.982 54.3495 147.5 53.5812 147.918 53.467C147.95 53.4585 147.984 53.4579 148.016 53.4652C148.048 53.4724 148.078 53.4874 148.103 53.5087C148.128 53.53 148.148 53.5571 148.16 53.5876C148.172 53.6181 148.177 53.6512 148.174 53.684C148.174 53.9263 148.118 54.1118 147.731 54.7743C147.697 54.8383 147.687 54.912 147.703 54.9826C147.718 55.0532 147.757 55.1162 147.814 55.1607C147.872 55.205 147.943 55.2275 148.015 55.2243C148.088 55.2211 148.157 55.1923 148.21 55.1431C148.418 54.9345 148.882 54.5903 149.141 54.7743C149.29 54.8962 149.269 54.9338 148.875 55.5157C148.124 56.6237 148.146 56.9994 147.404 60.6414V60.6437ZM97.6343 111.675L97.0209 96.8366C101.118 96.4225 104.431 91.97 103.962 87.5842C103.579 83.8831 100.435 81.2332 96.4198 82.4792L95.8064 67.6043L111.312 64.3586C111.112 65.1208 110.829 65.8584 110.469 66.5592C109.777 67.8867 109.435 69.3681 109.472 70.8645C109.641 75.3546 113.613 78.302 117.906 76.0953C121.937 74.025 123.82 68.2077 121.165 64.446C120.74 63.843 120.392 63.1896 120.128 62.5008L135.061 59.3886L136.13 93.1033C136.283 98.1638 132.739 103.178 128.228 104.278L97.6343 111.675ZM89.4524 106.048L88.8443 91.3267L96.3861 96.7139L96.9933 111.453L89.4524 106.048ZM72.9772 58.631C77.8016 56.7203 81.8125 61.2203 80.2498 66.4281C79.8665 67.727 79.2147 68.391 78.7225 70.3324L71.0504 64.8808C71.6638 62.2041 72.8783 61.6275 72.9772 58.631ZM80.7498 66.813C82.659 61.192 78.231 55.8186 72.6721 58.0951C69.0883 59.3073 66.3034 64.4253 67.9236 68.7697C68.4503 70.1576 69.234 70.6023 69.9708 72.4164L53.4857 75.8813C52.1562 50.1032 51.6662 42.1712 51.6332 39.1042C51.575 33.6603 55.4003 28.6971 60.6042 27.7962L93.3444 22.0456L94.0076 37.9441C94.0076 37.9745 94.0149 38.0044 94.0287 38.0314C94.0426 38.0584 94.0626 38.0818 94.0873 38.0995C94.1119 38.1173 94.1404 38.1289 94.1704 38.1335C94.2004 38.1381 94.2311 38.1354 94.2599 38.1259C98.3612 36.7572 101.273 39.302 101.611 42.9387C102.02 47.3521 98.5782 51.3607 95.0067 51.3607C94.8181 51.3607 94.7199 51.3415 94.644 51.4205C94.5551 51.5133 94.585 51.4259 95.2344 67.0706C83.1251 69.6254 91.4183 67.914 79.3014 70.4374C79.7721 68.6287 80.3771 68.0153 80.7498 66.813ZM119.433 62.3735C119.708 63.2579 120.122 64.0927 120.66 64.8463C123.014 68.0743 121.433 73.575 117.669 75.5639C113.779 77.6203 110.12 74.9214 110.066 70.899C110.021 67.559 111.292 67.0277 111.988 64.1071C112.093 63.6678 111.995 63.6831 111.558 63.7575C110.605 63.9193 107.358 64.627 95.775 67.0545L95.1416 52.0646C99.8801 51.5593 102.722 46.8162 102.171 42.652C101.677 38.9133 98.4816 36.2757 94.5413 37.4013L93.9079 21.9812L125.376 16.4499C130.017 15.6563 133.796 19.2485 133.964 24.4056L135.057 58.7936C123.037 61.3062 120.302 61.8552 119.645 62.0231C119.417 62.0814 119.327 62.1067 119.432 62.3735H119.433ZM125.26 15.8043C58.9043 27.6475 59.9985 27.2119 58.8943 27.603C56.7841 28.3449 54.9369 29.6876 53.58 31.4659C53.58 31.4659 45.8903 25.9836 45.868 25.9667C47.4305 23.9121 49.688 22.4972 52.2183 21.9866L117.19 10.5528C118.168 10.3745 119.172 10.404 120.137 10.6394C123.63 11.5375 126.782 13.4454 129.197 16.1248C127.937 15.6665 126.577 15.5558 125.26 15.8043H125.26ZM45.5322 26.4161L53.238 31.8891C51.6538 34.1266 50.8535 36.8249 50.9616 39.5643L52.8018 75.5777L45.2876 70.2189L43.3861 33.737C43.2717 31.1264 44.0265 28.5517 45.5322 26.4161ZM95.203 67.7477L95.8056 82.3105L88.2417 76.9686L87.9189 69.2819L95.203 67.7477ZM96.4528 83.1156C97.2544 82.7891 98.1272 82.6768 98.9853 82.7897C99.8432 82.9033 100.657 83.2381 101.346 83.7612C105.671 87.1058 102.764 95.7447 96.8101 96.237L89.3496 90.9203C92.8813 90.1697 96.3753 86.9494 96.4528 83.1156Z" fill="#4B1010"/>
<path d="M120.588 85.3596C118.471 86.1057 116.239 86.4775 113.994 86.4584C114.184 88.2158 114.858 91.1539 116.371 92.1078C116.921 92.4174 117.566 92.5131 118.183 92.3766C118.799 92.2401 119.344 91.8809 119.712 91.3679C120.429 90.2143 120.773 88.868 120.698 87.5119C120.735 86.7927 120.699 86.0712 120.588 85.3596Z" fill="white"/>
<path d="M120.984 85.2211C120.923 84.9037 120.691 84.8799 120.582 84.9351C118.451 85.7394 116.184 86.1229 113.906 86.0646C113.865 86.0645 113.824 86.0729 113.785 86.0892C113.747 86.1054 113.713 86.1293 113.684 86.1592C113.656 86.1892 113.633 86.2246 113.619 86.2634C113.604 86.3023 113.598 86.3436 113.599 86.3851C113.753 88.1954 114.432 91.0415 115.862 92.2752C116.408 92.7257 117.102 92.9565 117.808 92.9224C118.515 92.8884 119.184 92.592 119.684 92.0912C121.306 90.5769 121.373 87.2561 120.984 85.2211ZM116.5 91.9478C115.086 91.0277 114.438 88.3295 114.234 86.6481C116.348 86.6459 118.448 86.3005 120.451 85.6252C120.672 87.3121 120.625 89.863 119.582 91.2524C119.245 91.7278 118.743 92.0617 118.174 92.19C117.605 92.3183 117.009 92.2321 116.5 91.9478Z" fill="#4B1010"/>
<path d="M111.488 82.2768C111.653 82.1396 111.797 81.9778 111.912 81.7961C112.142 81.566 111.794 81.0546 111.421 81.4334C111.239 81.688 110.998 81.8941 110.718 82.0338C110.068 82.1066 109.568 82.9002 109.568 83.8801C109.568 84.9183 110.125 85.731 110.836 85.731C112.158 85.731 112.567 83.1693 111.488 82.2768Z" fill="#4B1010"/>
<path d="M122.359 80.3045C122.525 80.1673 122.669 80.0047 122.786 79.823C123.033 79.5761 122.649 79.0969 122.295 79.4603C122.116 79.7188 121.874 79.9267 121.591 80.0638C120.952 80.1527 120.463 80.9386 120.463 81.904C120.463 82.9414 121.02 83.7541 121.731 83.7541C123.045 83.7572 123.474 81.2446 122.359 80.3045Z" fill="#4B1010"/>
<path d="M14.7432 76.9072L10.2822 80.8307L21.4691 90.0002L14.7432 76.9072Z" fill="#FFE55D"/>
<path d="M18.533 96.5918L4.5651 92.0864L4.20703 98.005L18.533 96.5918Z" fill="#FFE55D"/>
<path d="M8.30957 108.003L11.2017 111.591L18.6668 103.317L8.30957 108.003Z" fill="#FFE55D"/>
<path d="M22.0552 90.2761L15.0931 76.5972C15.0717 76.5529 15.0404 76.5142 15.0016 76.4839C14.9628 76.4537 14.9175 76.4328 14.8693 76.4229C14.8211 76.4129 14.7713 76.4142 14.7237 76.4266C14.6761 76.4391 14.6319 76.4623 14.5948 76.4945L9.92219 80.6281C9.89373 80.6575 9.87141 80.6924 9.85653 80.7305C9.84166 80.7687 9.83453 80.8095 9.83555 80.8504C9.83649 80.8914 9.84574 80.9318 9.86275 80.9691C9.87975 81.0063 9.90414 81.0398 9.93446 81.0674C9.93446 81.0674 21.359 90.4739 21.5806 90.6518C21.6342 90.7011 21.7038 90.7296 21.7766 90.7322C21.8495 90.7347 21.9208 90.7111 21.9778 90.6656C22.0348 90.6204 22.0739 90.5564 22.0881 90.485C22.1022 90.4137 22.0906 90.3396 22.0552 90.2761ZM20.9051 89.3122L10.5793 80.8473L14.7059 77.2114L20.9051 89.3122Z" fill="#4B1010"/>
<path d="M19.2181 96.3648C4.56479 91.5596 4.69897 91.683 4.52415 91.6707C4.48152 91.6645 4.43807 91.6672 4.39652 91.6786C4.35497 91.6899 4.31619 91.7097 4.28262 91.7367C4.24946 91.7644 4.2224 91.7986 4.20313 91.8373C4.18386 91.8759 4.17281 91.9182 4.17068 91.9613C3.80034 97.9611 3.86014 97.1231 3.7666 98.1613C3.76721 98.2239 3.78682 98.2848 3.82283 98.336C3.85884 98.3872 3.90955 98.4263 3.96826 98.448C4.00718 98.4627 4.04861 98.4694 4.09017 98.468C16.4502 97.1645 18.7082 97.0111 19.2005 96.9115C19.2628 96.8992 19.3191 96.8662 19.3602 96.8179C19.4014 96.7695 19.4249 96.7086 19.4269 96.6451C19.429 96.5817 19.4094 96.5194 19.3715 96.4685C19.3336 96.4175 19.2795 96.381 19.2181 96.3648ZM4.38613 97.8216L4.7143 92.3623L17.6133 96.5066C4.39073 97.8285 4.50191 97.8101 4.38767 97.8239L4.38613 97.8216Z" fill="#4B1010"/>
<path d="M19.0357 102.656C18.959 102.663 8.10488 107.647 7.97914 107.709C7.94217 107.733 7.91073 107.765 7.88693 107.802C7.86313 107.839 7.84751 107.881 7.84112 107.924C7.83472 107.968 7.83785 108.012 7.85029 108.055C7.86273 108.097 7.88419 108.136 7.9132 108.17C9.83697 110.559 10.5615 111.485 10.8728 111.841C11.1619 112.174 11.1473 112.142 11.5936 111.688C13.2337 110.014 19.2258 103.308 19.3332 103.148C19.3722 103.099 19.3952 103.039 19.3993 102.977C19.4033 102.914 19.3881 102.852 19.3557 102.798C19.3233 102.745 19.2752 102.702 19.218 102.677C19.1608 102.651 19.0972 102.644 19.0357 102.656ZM17.9844 103.741L11.2179 111.255L8.61094 108.022L17.9844 103.741Z" fill="#4B1010"/>
<path d="M74.4017 107.197L73.7745 91.6375L57.1361 95.1124C57.3391 94.072 57.6944 93.0673 58.1904 92.1305C60.907 86.948 57.5057 80.8716 51.9575 82.356C47.0303 83.674 44.5553 90.3555 47.518 94.2605C48.1067 95.0441 48.5697 95.9146 48.8905 96.8406L31.6724 100.45L33.5333 136.344C33.7978 141.635 38.0295 145.157 43.2855 143.944L75.6147 136.12L74.9599 120.604C78.7055 120.604 82.3767 116.323 81.9328 111.793C81.554 107.882 78.0568 105.631 74.4017 107.197Z" fill="#FFE55D"/>
<path d="M63.5501 103.027C61.4319 103.771 59.201 104.142 56.9561 104.126C57.1462 105.889 57.824 108.803 59.333 109.775C59.8825 110.088 60.5285 110.185 61.1458 110.048C61.763 109.912 62.3075 109.55 62.6737 109.035C63.3961 107.884 63.7409 106.536 63.6597 105.179C63.6614 104.46 63.6248 103.742 63.5501 103.027Z" fill="white"/>
<path d="M24.0474 97.4664L31.5807 100.224L48.3502 96.7273L40.8177 93.947L24.0474 97.4664Z" fill="#FFE55D"/>
<path d="M44.0229 79.4186C39.0268 80.7795 36.6483 87.5139 39.5835 91.3239C40.1409 92.05 40.5802 92.8597 40.8869 93.7223L48.5544 96.5477C48.2508 95.7785 47.8435 95.0544 47.3437 94.3955C46.4319 93.1583 45.9655 91.6491 46.0203 90.1132C46.0855 85.1485 50.6975 80.9122 55.1009 82.0869C51.8254 80.0243 46.5785 78.7224 44.0229 79.4186Z" fill="#FFE55D"/>
<path d="M33.3254 136.343L32.1378 113.564C29.5518 114.879 27.1035 116.449 24.8291 118.25L25.6135 133.405C25.9018 138.64 34.4058 144.79 39.5583 144.212C36.2299 143.503 33.5746 140.622 33.3254 136.343Z" fill="#FFE55D"/>
<path d="M59.1567 90.1133C58.7419 92.0685 58.0334 92.3208 57.4077 94.8212L73.4604 91.4582L65.9278 88.678L59.1567 90.1133Z" fill="#FFE55D"/>
<path d="M32.1188 112.846L31.4686 100.425L23.7559 97.5781L24.7871 117.419C27.0579 115.633 29.5162 114.1 32.1188 112.846Z" fill="#FFE55D"/>
<path d="M8.10633 132.15C7.96449 132.387 6.30447 134.987 5.93183 135.491C5.32534 136.304 4.25495 136.704 4.16064 137.083C4.16064 137.39 4.63526 137.758 5.50629 137.352C5.61823 137.307 5.68494 137.464 5.61823 137.531C5.25853 137.765 4.95885 138.08 4.74337 138.451C4.71616 138.506 4.70234 138.567 4.70304 138.628C4.70373 138.69 4.71892 138.75 4.74737 138.805C4.77583 138.86 4.81674 138.907 4.8668 138.943C4.91686 138.978 4.97466 139.002 5.0355 139.011C5.54463 139.104 6.67175 138.288 6.67175 138.205C6.78369 138.115 6.94088 138.271 6.82893 138.358C6.45706 138.693 5.96787 139.615 6.40262 139.86C6.83737 140.105 7.46303 139.345 7.90468 138.852C8.24435 138.473 8.57712 138.112 8.89149 137.731C8.95896 137.663 9.09314 137.708 9.0709 137.798C8.9996 139.08 9.58616 139.453 9.92276 139.188C10.2724 138.912 9.90053 137.874 10.0347 137.125C10.198 136.215 11.4509 134.937 12.1425 134.323C11.6035 134.028 8.10633 132.15 8.10633 132.15Z" fill="#FFE55D"/>
<path d="M82.3723 111.614C81.9491 107.937 78.7019 105.36 74.7853 106.598L74.1627 91.3692C74.1609 91.3314 74.148 91.295 74.1256 91.2645C74.1033 91.2339 74.0724 91.2107 74.037 91.1975L66.0382 88.2532C65.9493 88.2202 66.3396 88.1558 59.4657 89.5988C59.9633 86.6537 58.8983 83.6619 56.0858 82.2442C54.3223 80.5627 47.3096 78.0845 43.9267 79.0115C38.7719 80.4484 36.1143 87.363 39.2733 91.574C39.7349 92.195 40.1198 92.8698 40.4196 93.5836L23.4929 97.1237C23.448 97.1328 23.4078 97.1577 23.3797 97.1938C23.3516 97.23 23.3373 97.275 23.3395 97.3207L24.3884 117.466C18.8197 121.788 13.8668 126.849 9.66686 132.51L8.18857 131.703C8.1179 131.675 8.03947 131.675 7.96859 131.702C7.89771 131.729 7.83945 131.781 7.8052 131.849C5.33856 135.737 5.50495 135.513 4.71596 136.078C4.42829 136.246 4.16641 136.454 3.93848 136.696C3.5459 137.211 3.96685 137.856 4.62855 137.935C3.86181 138.86 4.60172 139.912 5.92206 139.258C5.70047 140.158 6.40895 140.63 7.14119 140.234C7.75593 139.769 8.3039 139.221 8.76977 138.607C8.7966 138.779 8.84337 138.946 8.90931 139.107C8.95751 139.273 9.05644 139.42 9.19229 139.528C9.32815 139.635 9.49414 139.697 9.6671 139.706C9.84005 139.714 10.0113 139.669 10.157 139.575C10.3027 139.481 10.4154 139.345 10.4796 139.184C10.5686 138.754 10.5762 138.312 10.5019 137.88C10.4328 136.924 10.5517 136.678 11.6259 135.491C11.9364 135.154 12.2638 134.834 12.6081 134.532C12.6414 134.498 12.6666 134.458 12.6816 134.413C12.6967 134.368 12.7013 134.321 12.6949 134.274C12.6886 134.227 12.6716 134.183 12.6453 134.144C12.6189 134.105 12.5839 134.072 12.5429 134.049L10.6046 132.969C14.5924 127.637 19.2483 122.839 24.4582 118.693L25.225 133.326C25.3622 135.888 27.3941 138.867 30.6604 141.294C34.4612 144.131 38.512 145.315 43.4199 144.241L75.9301 136.372C75.973 136.361 76.011 136.336 76.0376 136.301C76.0643 136.266 76.078 136.222 76.0765 136.178L75.434 120.869C79.5829 120.442 82.8699 115.946 82.3723 111.614ZM74.9854 120.368C74.9597 120.368 74.9342 120.373 74.9105 120.383C74.8868 120.394 74.8654 120.408 74.8474 120.427C74.8294 120.445 74.8154 120.467 74.8061 120.491C74.7969 120.515 74.7927 120.541 74.7938 120.567L75.4371 135.924L43.2627 143.711C38.183 144.882 34.0518 141.554 33.7451 136.288L31.8926 100.557L48.9505 96.9811C48.9781 96.9755 49.004 96.9637 49.0264 96.9466C49.0491 96.9301 49.0677 96.9087 49.081 96.884C49.0943 96.8593 49.1018 96.832 49.1031 96.804C49.1043 96.7759 49.0993 96.7479 49.0885 96.7219C48.7659 95.7793 48.2956 94.894 47.6953 94.0989C44.8315 90.3303 47.1962 83.8145 52.0343 82.4949C55.7385 81.4628 58.8262 84.148 58.965 87.8989C59.0302 89.322 58.7127 90.7359 58.0449 91.9941C57.5465 92.9474 57.1851 93.9662 56.9714 95.0205C56.9606 95.0676 56.968 95.117 56.9922 95.1589C57.0164 95.2007 57.0556 95.2318 57.1018 95.2459C57.1326 95.2551 57.1653 95.2567 57.1969 95.2505L73.6107 91.8224L74.2294 107.157C74.2307 107.188 74.2394 107.219 74.2549 107.246C74.2705 107.272 74.2923 107.295 74.3185 107.312C74.3448 107.328 74.3747 107.338 74.4056 107.341C74.4366 107.343 74.4677 107.338 74.4963 107.326C78.0739 105.809 81.3587 107.975 81.7627 111.72C82.2044 116.226 78.5424 120.368 74.9854 120.368ZM25.8115 133.396L25.0287 118.34C27.2065 116.651 29.5273 115.155 31.9647 113.868L33.1378 136.352C33.1504 137.994 33.6446 139.597 34.5593 140.961C35.474 142.325 36.7689 143.391 38.2835 144.026C33.2168 143.599 26.0692 138.137 25.8115 133.396ZM54.0816 81.7396C47.9077 81.2543 43.4636 89.5605 47.1916 94.5336C47.5887 95.0619 47.9276 95.6331 48.2006 96.235L41.0407 93.5966C40.7394 92.7411 40.299 91.9411 39.7372 91.2289C36.8818 87.4718 39.2212 80.9499 44.0747 79.6265C46.3113 79.0177 50.8282 80.0075 54.0785 81.7396H54.0816ZM31.6173 100.047L24.7603 97.517L40.803 94.1433L47.6807 96.6736L31.6173 100.047ZM31.283 100.584L31.9202 112.748C29.4721 113.97 27.1484 115.426 24.9819 117.096L23.9621 97.8812L31.283 100.584ZM57.6653 94.5926C58.1691 92.6497 58.886 92.1207 59.3169 90.2989L65.911 88.9011L72.7665 91.4313L57.6653 94.5926ZM9.91069 138.139C9.94673 138.57 10.0165 139.036 9.87235 139.151C9.76654 139.232 9.61319 139.151 9.53958 139.054C9.34425 138.708 9.26929 138.306 9.32643 137.912C9.32643 137.606 8.89705 137.516 8.8081 137.723C8.60952 137.964 7.47856 139.257 7.12125 139.563C6.9518 139.709 6.71411 139.898 6.56076 139.81C6.52089 139.786 6.39821 139.715 6.55309 139.327C6.6428 139.056 6.80152 138.814 7.01314 138.623C7.41109 138.303 6.71181 137.837 6.54083 138.255C6.28585 138.455 6.01241 138.629 5.72424 138.777C5.11084 139.099 4.89232 138.876 4.98509 138.636C5.06177 138.445 5.16835 138.278 5.79708 137.797C5.85251 137.752 5.89003 137.688 5.90287 137.618C5.91571 137.548 5.90302 137.476 5.8671 137.414C5.83118 137.352 5.77439 137.305 5.70699 137.282C5.63959 137.259 5.56602 137.26 5.49958 137.286C4.61399 137.64 4.27278 137.286 4.51738 137.107C5.11874 136.712 5.66908 136.244 6.15592 135.715C6.79462 134.805 8.02525 132.864 8.24071 132.521C10.301 133.671 11.2747 134.138 11.8851 134.477C11.2453 135.046 10.6882 135.702 10.2297 136.425C9.90744 136.934 9.79324 137.548 9.91069 138.139Z" fill="#4B1010"/>
<path d="M63.7524 102.892C63.7524 102.343 62.5072 103.924 56.87 103.924C56.8404 103.924 56.8119 103.936 56.7903 103.956C56.7694 103.977 56.7575 104.006 56.7573 104.036C56.9712 106.525 58.0462 110.492 60.6585 110.4C61.3546 110.378 62.0176 110.098 62.5194 109.615C63.5346 108.634 63.8153 107.126 63.9096 105.782C63.9671 104.815 63.9149 103.846 63.7524 102.892ZM62.6989 109.032C62.3346 109.55 61.79 109.913 61.1719 110.049C60.5539 110.186 59.9069 110.087 59.3581 109.772C57.8246 108.769 57.1714 105.873 56.9812 104.122C59.2271 104.151 61.46 103.779 63.5753 103.024C63.8122 104.938 63.8467 107.488 62.6989 109.032Z" fill="#4B1010" stroke="#4B1010" stroke-width="0.383375" stroke-linecap="round" stroke-linejoin="round"/>
<path d="M67.2728 100.426C67.5243 100.264 67.739 100.05 67.9008 99.7981C67.9452 99.7537 67.9008 99.664 67.8555 99.6448C67.8283 99.6363 67.7992 99.6363 67.7719 99.6448C67.7448 99.6525 67.7206 99.6679 67.7022 99.6893C67.5056 99.9571 67.2531 100.179 66.9623 100.339C66.9393 100.339 66.9393 100.339 66.917 100.362C66.3343 100.385 65.8857 101.128 65.8857 102.021C65.8857 102.941 66.3565 103.68 66.9592 103.68C68.1737 103.677 68.4651 100.963 67.2728 100.426Z" fill="#4B1010" stroke="#4B1010" stroke-width="0.383375" stroke-linecap="round" stroke-linejoin="round"/>
<path d="M52.4978 103.318C52.7494 103.156 52.9633 102.942 53.125 102.69C53.1703 102.645 53.125 102.556 53.0806 102.536C53.0535 102.529 53.0248 102.529 52.9978 102.536C52.9704 102.544 52.9459 102.56 52.9272 102.581C52.7309 102.849 52.4787 103.071 52.1873 103.231C52.1844 103.231 52.1816 103.232 52.1789 103.233C52.1759 103.233 52.1732 103.235 52.1712 103.237C52.1692 103.239 52.1676 103.242 52.1665 103.245C52.1655 103.247 52.165 103.25 52.1651 103.253C51.5823 103.276 51.1338 104.02 51.1338 104.913C51.1338 105.833 51.6046 106.572 52.2072 106.572C53.444 106.569 53.7032 103.861 52.4978 103.318Z" fill="#4B1010" stroke="#4B1010" stroke-width="0.383375" stroke-linecap="round" stroke-linejoin="round"/>
<path d="M85.254 80.0689C85.2522 79.6097 85.1399 79.1576 84.9268 78.7508C84.7136 78.344 84.4057 77.9944 84.0291 77.7316C83.6524 77.4688 83.2181 77.3004 82.7628 77.2407C82.3074 77.1809 81.8443 77.2315 81.4127 77.3883C80.981 77.5451 80.5933 77.8033 80.2824 78.1414C79.9715 78.4794 79.7464 78.8872 79.6262 79.3305C79.506 79.7737 79.4942 80.2394 79.5917 80.6882C79.6892 81.137 79.8932 81.5557 80.1865 81.9091C80.571 82.3462 81.0784 82.6571 81.6424 82.8013C82.2064 82.9455 82.8007 82.9162 83.3478 82.7173C83.8952 82.5191 84.3701 82.1602 84.7102 81.6877C85.0503 81.2151 85.2398 80.651 85.254 80.0689Z" fill="#FFE55D"/>
<path d="M103.536 89.0965C103.478 89.1464 97.6203 94.0666 91.9579 92.0662C87.4885 90.4713 85.041 85.2022 84.1478 82.8468C84.6343 82.5403 85.0319 82.1114 85.3007 81.6032C85.5696 81.0949 85.7004 80.5249 85.68 79.9503C85.6596 79.3756 85.4887 78.8164 85.1844 78.3284C84.8802 77.8405 84.4532 77.441 83.9461 77.1698C83.5241 76.9441 83.0578 76.8134 82.58 76.7868C82.1022 76.7602 81.6243 76.8383 81.1799 77.0157C80.7354 77.1931 80.335 77.4655 80.0068 77.8138C79.6786 78.1621 79.4305 78.5779 79.2798 79.0321C79.1291 79.4863 79.0794 79.968 79.1344 80.4434C79.1893 80.9188 79.3474 81.3764 79.5977 81.7843C79.8479 82.1922 80.1843 82.5405 80.5833 82.8048C80.9822 83.0691 81.4341 83.2431 81.9073 83.3145C82.1013 95.1132 79.2321 100.351 76.7847 102.667C75.0978 104.263 74.2812 104.124 74.2812 104.465V105.205C74.2813 105.237 74.289 105.267 74.3037 105.295C74.3184 105.323 74.3396 105.346 74.3656 105.364C74.3913 105.382 74.4212 105.393 74.4524 105.397C74.4836 105.4 74.5152 105.396 74.5442 105.384C81.8498 102.459 83.1119 91.1706 82.9846 83.3014L83.1863 83.2547C84.3364 86.2596 86.918 91.3661 91.6266 93.0545C95.2204 94.3327 99.252 93.3896 103.72 90.2252C103.824 90.1485 103.796 90.1071 103.856 89.2415C103.856 89.2044 103.845 89.168 103.825 89.1368C103.805 89.1056 103.776 89.0809 103.743 89.0656C103.709 89.0503 103.671 89.0451 103.635 89.0506C103.598 89.056 103.564 89.072 103.536 89.0965ZM85.0617 80.0489C85.0627 80.6007 84.8927 81.1393 84.5751 81.5905C84.2575 82.0418 83.8079 82.3836 83.2881 82.5689C82.7683 82.7542 82.2039 82.774 81.6724 82.6255C81.141 82.477 80.6686 82.1675 80.3202 81.7396C79.9724 81.312 79.7653 80.7873 79.7273 80.2375C79.6893 79.6876 79.8222 79.1395 80.1078 78.6681C80.3934 78.1967 80.8178 77.8251 81.3227 77.6042C81.8277 77.3834 82.3886 77.324 82.9286 77.4343C83.5297 77.5603 84.0693 77.8886 84.4575 78.3644C84.8457 78.8402 85.059 79.4348 85.0617 80.0489Z" fill="#4B1010"/>
</svg>
