<svg width="156" height="156" viewBox="0 0 156 156" fill="none" xmlns="http://www.w3.org/2000/svg">
<path d="M118.328 57.1517C106.702 48.2041 96.5728 41.6343 79.2026 32.8721C74.7404 30.6178 71.8068 30.9884 68.2556 35.1495C63.1989 41.0939 57.8335 50.2191 54.205 56.1404C51.7346 60.178 52.5992 64.0689 55.749 66.7709C56.7449 67.6278 85.0853 85.8935 86.2588 86.5188C86.2588 86.5188 84.5295 76.2434 92.3885 73.441C100.248 70.6387 111.295 82.1184 111.295 82.1184C117.324 72.2213 125.654 62.7951 118.328 57.1517ZM80.4147 43.7033C80.4764 45.2473 78.3843 44.1588 78.4615 45.9576C78.4403 46.1897 78.3332 46.4055 78.161 46.5626C77.9889 46.7198 77.7643 46.8069 77.5312 46.8069C77.2982 46.8069 77.0735 46.7198 76.9014 46.5626C76.7293 46.4055 76.6221 46.1897 76.6009 45.9576C76.1918 44.097 79.5114 41.4413 80.4147 43.7033ZM78.4538 40.1135C78.4799 40.3579 78.4086 40.6027 78.2554 40.7949C78.1022 40.9871 77.8795 41.1112 77.6354 41.1403C77.1159 41.179 76.6106 41.328 76.1532 41.5774C75.6958 41.8267 75.2968 42.1706 74.9827 42.5862C74.6686 43.0019 74.4466 43.4796 74.3317 43.9877C74.2167 44.4958 74.2113 45.0226 74.3158 45.533C74.3445 45.6688 74.3425 45.8093 74.3101 45.9442C74.2777 46.0792 74.2156 46.2052 74.1283 46.3132C74.0411 46.4211 73.9309 46.5083 73.8057 46.5683C73.6806 46.6283 73.5436 46.6597 73.4048 46.6601C71.4517 46.0888 72.5634 42.8541 73.4048 41.6035C74.2463 40.3528 77.6277 38.0059 78.4383 40.1135H78.4538ZM69.7069 38.7779C70.3786 37.3729 76.1223 33.8216 77.0642 36.3075C77.0834 36.5529 77.005 36.796 76.846 36.984C76.687 37.1719 76.4602 37.2895 76.2149 37.3111C75.242 37.3533 74.2897 37.6056 73.4235 38.0507C72.5573 38.4958 71.7977 39.1231 71.1969 39.8896C70.6063 40.7275 70.1963 41.6789 69.993 42.6837C69.7896 43.6884 69.7974 44.7244 70.0157 45.726C70.0431 45.8612 70.0402 46.0009 70.0071 46.1349C69.9741 46.2689 69.9118 46.3939 69.8247 46.5009C69.7376 46.6079 69.6279 46.6943 69.5034 46.7539C69.3789 46.8135 69.2428 46.8447 69.1048 46.8454C66.6884 45.973 68.4949 40.1521 69.7069 38.7779ZM64.3492 52.0024C63.8011 50.6591 62.396 52.0024 62.0332 50.6282C62.0071 50.5091 62.0048 50.386 62.0263 50.2659C62.0479 50.1459 62.093 50.0313 62.159 49.9287C62.225 49.8262 62.3106 49.7376 62.4109 49.6682C62.5112 49.5988 62.6242 49.5499 62.7434 49.5243C63.3508 49.3673 63.9936 49.4216 64.566 49.6784C65.1384 49.9351 65.6065 50.379 65.8932 50.937C66.3333 51.5624 66.3641 51.5546 66.727 51.4466C68.0625 51.0374 69.043 51.0374 69.761 51.4466C71.0193 52.1491 70.9807 53.5541 71.4594 54.6581C71.6833 54.9669 72.2314 54.7507 73.1732 54.2335C74.1151 53.7163 75.2808 55.3761 73.9452 55.9319C72.6097 56.4878 72.324 56.6036 71.5366 56.6036C69.8227 56.9124 69.4676 53.9633 68.8886 53.0755C67.0744 52.8593 65.7465 54.2567 64.3492 52.0024ZM81.6885 74.0123C81.6132 74.1084 81.5196 74.1887 81.4131 74.2485C81.3067 74.3083 81.1895 74.3465 81.0682 74.3608C80.947 74.3752 80.8241 74.3654 80.7066 74.3321C80.5892 74.2988 80.4795 74.2426 80.3838 74.1667C75.3889 70.3067 73.1115 69.4266 67.6843 65.4199C67.4857 65.2745 67.3529 65.0562 67.3153 64.813C67.2776 64.5697 67.3382 64.3215 67.4835 64.1229C67.6289 63.9243 67.8472 63.7916 68.0905 63.7539C68.3337 63.7163 68.5819 63.7768 68.7805 63.9222C71.5983 65.9757 73.5901 67.2573 75.3426 68.3844C76.0991 69.2182 82.8388 72.3216 81.6885 74.0123ZM87.301 61.583C84.2129 63.3818 82.2906 63.2351 81.5264 59.9772C81.3951 59.8151 79.2103 61.0581 78.6777 60.5176C77.5968 60.0313 77.7976 58.5645 77.2958 57.8002C77.0012 57.7704 76.7045 57.8324 76.4465 57.9777C76.2193 58.0719 75.9639 58.072 75.7366 57.9779C75.5093 57.8838 75.3287 57.7032 75.2345 57.4759C75.1403 57.2487 75.1403 56.9933 75.2344 56.766C75.3285 56.5387 75.509 56.3581 75.7363 56.2639C77.9134 55.1599 79.357 56.8197 79.5269 58.688C82.3987 57.2443 83.1553 58.688 83.8887 60.9037C83.935 60.9037 84.46 61.0735 86.3668 59.9695C86.5795 59.864 86.8243 59.8435 87.0515 59.912C87.2788 59.9805 87.4714 60.1329 87.5904 60.3383C87.7093 60.5437 87.7456 60.7867 87.6918 61.0179C87.6381 61.2491 87.4983 61.4511 87.301 61.583ZM98.6032 71.5187C97.0591 71.7118 97.5146 68.7936 97.1286 68.2763C95.3762 69.442 93.477 68.7627 93.5234 66.5393C93.5234 66.1842 93.4153 65.5125 93.2531 65.4122C91.0298 66.8249 89.1769 67.3885 89.2001 63.7678C89.2041 63.522 89.3041 63.2876 89.4786 63.1145C89.6531 62.9414 89.8884 62.8434 90.1342 62.8414C91.0529 62.8414 91.0992 63.899 91.0915 64.5012C93.6932 62.4785 95.3993 63.9994 95.4534 66.9793C96.1327 66.7246 97.4915 65.9757 98.1014 66.5547C98.4796 66.2768 100.487 71.2022 98.6032 71.5187ZM110.029 65.7982C109.01 65.7982 109.334 64.4703 109.025 64.0226C103.513 66.5393 105.235 61.5367 103.567 61.3205C98.9351 62.9572 98.9351 62.7256 98.1631 58.0241C95.6078 58.9736 93.1451 58.3174 93.1219 55.6077C93.1091 55.4869 93.1204 55.3648 93.1551 55.2485C93.1897 55.1321 93.2472 55.0237 93.324 54.9297C93.4008 54.8357 93.4955 54.7578 93.6026 54.7006C93.7097 54.6433 93.8271 54.6079 93.948 54.5963C95.0905 54.3493 94.9824 56.372 95.3067 56.5186C95.6309 56.6653 96.7581 56.4337 97.6768 56.2253C100.248 55.654 100.139 58.6339 100.448 60.3864C104.177 58.9041 105.435 58.9119 106.462 62.8105C107.659 62.8954 109.203 61.4672 110.322 62.6715C111.171 63.4821 111.604 65.7982 110.029 65.7982Z" fill="#3D9CFB"/>
<path d="M48.762 89.1203C45.674 90.4481 45.9133 97.8748 49.8737 98.0833C53.0312 98.2608 57.671 97.8054 58.7286 96.9253C60.7127 95.25 60.1105 88.6262 57.0611 88.2633C54.2658 88.0557 51.4559 88.3458 48.762 89.1203ZM57.7096 91.4363C59.4852 97.2109 54.4749 96.5084 49.8428 96.3849C49.1172 96.2382 48.4532 94.7173 48.4146 93.1424C48.2834 89.1357 54.5907 90.3555 56.9067 90.1084C57.0997 90.1316 57.4625 90.5562 57.7173 91.4363H57.7096Z" fill="#001434"/>
<path d="M59.5701 110.783C56.9376 110.86 53.7261 110.721 51.5876 111.925C48.7312 113.469 49.3951 120.495 52.8691 120.734C55.6561 120.935 60.3576 120.533 61.8476 119.414C64.4029 117.561 63.0751 110.69 59.5701 110.783ZM60.9906 114.195C61.5542 115.801 61.3149 117.492 60.7359 117.932C60.2572 118.125 52.321 120.827 51.7883 117.16C50.7229 112.373 54.9381 112.829 58.4816 112.69C59.7245 112.497 60.5892 112.744 61.0061 114.195H60.9906Z" fill="#001434"/>
<path d="M40.324 66.5238C41.3542 65.4006 42.7482 64.6776 44.2597 64.4827C45.7713 64.2877 47.3031 64.6334 48.5845 65.4585C50.1285 66.1456 50.4914 63.8681 48.986 63.567C52.8769 50.6977 32.2566 54.4496 39.498 64.7173C38.4095 65.7981 39.4053 67.2958 40.324 66.5238ZM43.4661 57.0667C43.259 58.9309 43.3136 60.8148 43.6282 62.6638C42.7123 62.8167 41.8342 63.1443 41.042 63.6288C38.7723 61.058 40.1928 57.1285 43.4661 57.0667Z" fill="#001434"/>
<path d="M31.5237 69.473C31.423 69.4043 31.3096 69.3562 31.1902 69.3315C31.0707 69.3067 30.9476 69.3058 30.8278 69.3287C30.708 69.3517 30.594 69.3981 30.4921 69.4652C30.3903 69.5324 30.3028 69.6189 30.2345 69.72C29.4625 71.596 32.3884 72.3526 33.8938 72.4298C37.584 72.6073 40.1162 68.7087 38.4873 67.8826C36.6267 66.9408 36.4955 72.2213 31.5237 69.473Z" fill="#001434"/>
<path d="M53.3942 52.3034C51.8502 50.3657 40.8182 51.4619 35.9469 51.7012C32.4188 51.902 27.6169 52.674 19.2561 53.4923C7.93072 54.5654 11.6518 61.6447 13.5818 73.935C14.6549 80.7596 21.3019 77.5712 31.4692 76.3437C36.7111 75.7029 48.8471 74.2516 53.0314 73.8115C56.6289 73.4332 57.6634 69.2876 55.9573 69.0637C54.668 68.8861 55.7103 71.2948 51.9429 71.9741C41.6288 73.7112 30.3266 74.5835 19.4645 75.9809C14.1531 76.6602 15.1027 71.3488 13.4197 62.0847C12.5087 57.0744 14.4773 56.0013 19.4954 55.3606C28.2577 54.2334 32.6195 53.7471 36.0858 53.5772C39.5521 53.4074 49.7272 52.4192 52.0741 53.6467C53.1472 54.218 54.1199 53.2375 53.3942 52.3034Z" fill="#001434"/>
<path d="M57.2544 99.419C50.3064 99.5116 45.5662 102.299 49.048 108.683C50.3836 111.123 61.0682 108.853 61.4001 106.197C61.8865 102.337 60.9601 99.3727 57.2544 99.419ZM59.5705 106.027C59.362 106.954 51.3254 109.177 50.3836 107.363C49.0866 104.893 48.9399 101.503 55.2241 101.102C58.5051 100.894 60.5355 101.527 59.5705 106.027Z" fill="#001434"/>
<path d="M18.5534 69.3961C19.7037 70.4152 20.2518 67.7595 23.5637 67.3349C25.1536 67.1136 26.7704 67.4638 28.1263 68.323C29.6703 69.0101 30.0409 66.7327 28.5354 66.4239C32.3955 53.5545 11.7983 57.3142 19.0629 67.5819C18.4993 67.9988 17.8817 68.8017 18.5534 69.3961ZM19.4644 62.2473C19.8812 60.7033 21.4021 59.9313 23.0079 59.9313C22.8047 61.7956 22.8593 63.679 23.17 65.5284C22.2468 65.6769 21.3609 66.0019 20.5606 66.4857C20.062 65.9125 19.7033 65.2312 19.5131 64.4957C19.3228 63.7601 19.3062 62.9904 19.4644 62.2473Z" fill="#001434"/>
<path d="M34.6113 100.539C37.5836 100.662 42.0921 99.7667 43.5049 98.9947C46.0293 97.1187 44.3618 90.5026 41.3896 90.5026C39.2897 90.3945 33.1986 90.8577 32.0251 92.5947C30.8517 94.3317 31.3457 100.407 34.6113 100.539ZM33.5305 93.6524C34.0169 93.0039 38.6181 92.1624 41.2969 92.3322C43.0571 92.8263 42.9876 97.0955 42.6093 97.3812C41.5671 97.9525 37.4369 98.8017 34.6885 98.6859C33.0673 98.2921 33.2372 93.938 33.5305 93.6369V93.6524Z" fill="#001434"/>
<path d="M35.9392 27.8232C32.1487 24.8124 31.7009 31.4671 27.2928 28.6493C27.1853 28.5915 27.0675 28.5554 26.9461 28.5432C26.8247 28.5309 26.7021 28.5427 26.5852 28.5778C26.4684 28.6129 26.3596 28.6707 26.2651 28.7479C26.1706 28.8251 26.0922 28.9201 26.0344 29.0275C25.9766 29.135 25.9406 29.2528 25.9283 29.3742C25.916 29.4956 25.9278 29.6182 25.9629 29.7351C25.998 29.8519 26.0558 29.9607 26.133 30.0552C26.2102 30.1497 26.3052 30.2281 26.4127 30.2859C30.5429 32.4707 32.7509 29.1588 33.8626 28.8886C34.9742 28.6184 35.7617 30.3708 37.3134 30.3631C38.8652 30.3554 40.8955 27.2365 39.7375 26.5571C39.5272 26.4311 39.2757 26.3928 39.0374 26.4506C38.799 26.5084 38.593 26.6576 38.4637 26.8659C37.0278 28.8345 37.1281 28.7419 35.9392 27.8232Z" fill="#001434"/>
<path d="M22.8537 21.9712C25.2392 25.8853 27.9644 24.7659 29.2846 21.7705C29.4621 21.3768 30.0566 21.3613 30.4117 21.6006C32.8204 23.2373 34.4493 23.0211 36.8811 20.5198C36.9668 20.4331 37.0345 20.3304 37.0805 20.2176C37.1265 20.1047 37.1498 19.9839 37.1491 19.862C37.1483 19.7402 37.1236 19.6196 37.0763 19.5073C37.029 19.395 36.9601 19.2931 36.8734 19.2074C36.7867 19.1218 36.684 19.054 36.5711 19.008C36.4583 18.962 36.3375 18.9388 36.2156 18.9395C36.0937 18.9402 35.9732 18.9649 35.8609 19.0122C35.7485 19.0595 35.6466 19.1285 35.561 19.2151C32.1564 23.6542 30.7282 16.1271 27.5861 21.0602C26.9068 22.1102 26.2351 23.6851 24.2588 20.736C22.2825 17.7869 20.3602 23.4303 18.5845 23.4303C18.4687 23.4303 17.8511 23.2141 17.0405 21.1606C17.0021 21.0427 16.9389 20.9343 16.8553 20.8427C16.7716 20.7511 16.6694 20.6784 16.5554 20.6295C16.4414 20.5805 16.3183 20.5564 16.1943 20.5588C16.0703 20.5612 15.9482 20.59 15.8362 20.6434C14.6859 21.4154 16.2608 25.0901 18.2912 25.2754C20.3216 25.4607 21.5799 23.245 22.8537 21.9712Z" fill="#001434"/>
<path d="M32.759 36.9326C31.655 36.9326 30.7131 36.6238 28.3276 35.4349C28.0153 35.2723 27.662 35.2053 27.3119 35.2424C26.9618 35.2795 26.6303 35.4189 26.359 35.6433C24.29 37.473 23.0085 38.1523 21.8505 36.6778C20.2524 34.6474 20.1984 38.9938 22.9236 39.3103C25.0698 39.5419 26.7836 37.3572 27.4707 37.2568C28.1578 37.1564 30.3889 39.1714 33.0214 38.8008C33.6684 38.7408 34.2964 38.5497 34.8671 38.2391C35.4378 37.9285 35.9393 37.505 36.3411 36.9943C36.951 36.2223 39.7533 38.5383 40.425 37.6737C41.7297 36.0293 37.4373 35.2187 36.7271 35.1724C35.3452 35.1029 35.0132 36.894 32.759 36.9326Z" fill="#001434"/>
<path d="M118.243 71.0479C117.965 71.4879 117.671 72.0515 117.139 72.8775C130.541 79.7715 133.289 84.1874 139.836 99.9827C131.035 118.982 106.755 118.302 101.336 119.013C88.5976 98.6703 85.3706 84.0716 89.331 77.8338C95.0439 68.8322 108.091 79.7715 113.155 86.1097C114.213 87.4221 116.282 86.1792 115.471 85.2837C103.428 71.4493 93.7392 69.5656 88.3043 75.2476C82.8693 80.9295 85.3166 94.0073 93.9862 110.219C82.7998 109.509 75.2805 102.43 73.5898 92.2781C77.6814 94.1077 81.7499 95.1808 81.5724 93.8221C81.3948 92.4633 77.1719 92.4402 73.2347 89.962C72.0072 82.736 74.0453 80.6979 72.2697 80.2888C69.7838 79.7175 67.5913 112.011 95.2678 112.543C96.557 114.813 97.8849 117.036 99.2127 119.182C91.4926 122.772 95.9008 132.036 103.15 147.5C103.2 147.615 103.273 147.719 103.364 147.805C103.455 147.891 103.563 147.958 103.681 148.001C103.798 148.044 103.924 148.063 104.049 148.056C104.174 148.05 104.297 148.018 104.41 147.962C104.522 147.907 104.622 147.829 104.704 147.734C104.785 147.638 104.847 147.527 104.884 147.408C104.922 147.288 104.934 147.162 104.922 147.037C104.909 146.912 104.871 146.791 104.81 146.681C96.2251 129.242 96.4798 124.363 97.661 122.687C99.2745 120.371 103.482 121.406 113.989 119.7C124.496 117.994 134.378 113.663 140.909 102.083C140.978 101.681 151.007 123.135 151.439 116.604C137.813 98.0141 141.156 81.1766 118.243 71.0479Z" fill="#001434"/>
<path d="M38.0084 122.788C40.8108 122.927 45.3888 122.479 46.8865 121.413C49.3724 119.707 48.7548 112.721 45.2421 112.651C40.9189 112.574 33.5385 111.756 34.7583 118.511C35.0516 120.417 36.0784 122.687 38.0084 122.788ZM37.1824 115.307C41.1428 114.342 49.218 112.674 45.798 119.939C44.9796 120.526 41.1042 121.135 38.0779 120.966C36.7964 121.112 35.87 115.631 37.1824 115.307Z" fill="#001434"/>
<path d="M64.0244 76.0891C62.6657 75.9116 63.5998 79.54 63.7619 82.3887C64.2869 91.6528 74.709 128.794 60.6739 128.014C47.3876 127.242 21.5254 137.772 16.8779 128.555C12.2304 119.337 12.7786 98.2998 10.9335 84.2184C9.61333 74.383 5.73785 54.7663 7.15063 48.6057C7.82999 45.6103 11.4584 42.723 14.6623 42.53C14.8167 43.7343 14.9247 44.9618 14.9942 46.2124C12.2304 46.4054 12.6319 47.8259 13.1646 48.1579C15.0869 49.3545 51.487 43.4332 51.7649 42.9391C51.9877 42.8758 52.1773 42.7287 52.2938 42.5286C52.4104 42.3285 52.445 42.091 52.3903 41.866C52.0737 41.0323 49.9816 41.4723 47.9744 41.866C47.7968 40.5768 47.5961 39.2721 47.3568 37.9597C55.3162 37.234 56.5977 39.55 59.1067 42.9854C59.7706 43.8887 61.2606 42.9854 60.8283 42.0899C58.0259 36.323 53.3939 35.5124 47.0171 36.076C45.3187 27.1825 43.5353 18.5051 42.0762 9.24872C41.8215 7.61207 39.3511 11.2791 38 11.1942C37.228 11.1401 36.456 10.2137 35.4215 8.87816C33.7617 6.78602 32.2331 11.6574 29.562 11.8118C28.3191 11.889 25.756 7.64295 24.6289 9.60385C21.811 14.4598 21.317 14.5061 18.5841 11.7732C16.7621 9.92809 16.0828 15.0774 13.8825 14.8072C12.3385 14.6142 12.076 13.2632 11.2654 13.7727C7.51347 16.0887 13.5814 31.5289 14.3535 40.6849C9.26593 42.0668 5.52941 43.9505 4.94269 48.9685C3.8696 57.669 7.84543 75.6645 8.6792 84.836C10.0225 99.2262 11.5356 124.355 15.4343 130.284C22.2048 140.575 47.1329 129.388 60.8283 129.867C77.4342 130.446 67.0044 94.5632 65.5993 82.1417C65.1284 77.9342 65.746 76.3053 64.0244 76.0891ZM11.8908 16.081C14.0215 17.4243 16.4688 17.046 17.951 14.0738C21.2475 17.0537 23.7488 15.6178 25.6711 11.5802C29.1914 15.6023 31.5383 14.0352 34.3098 10.6229C36.4329 13.7109 37.8842 14.4829 40.4859 11.9276C41.6362 22.01 44.8246 32.3086 46.1679 42.1671C37.8225 43.7111 27.053 44.9541 16.8316 46.0271C16.0905 34.146 11.4198 23.5772 11.8908 16.081Z" fill="#001434"/>
<path d="M54.0117 76.9539C46.3766 77.0697 42.0533 79.2159 46.0909 86.3647C49.8815 88.4182 58.6824 86.3184 58.1728 83.709C58.4276 79.6328 57.7328 76.8999 54.0117 76.9539ZM56.3278 83.5623C56.2428 84.6277 53.2397 85.0368 48.7312 85.3148C46.5155 85.4692 46.7626 83.6318 46.5927 81.4547C45.759 79.1387 51.0009 79.0769 54.197 78.799C56.4822 78.9225 56.3432 79.9725 56.32 83.5546L56.3278 83.5623Z" fill="#001434"/>
<path d="M17.1102 91.0199C21.279 91.5989 28.9142 91.9772 28.0187 85.4615C27.7562 83.5778 26.8529 81.2926 24.9306 81.0996C21.2173 81.0996 14.7247 80.6518 14.7479 86.1485C14.6707 88.0245 15.3963 90.3405 17.1102 91.0199ZM17.6043 83.8634C20.6151 83.3153 25.7181 80.7754 26.1736 85.6776C26.3434 87.0904 26.0192 88.3565 25.4479 88.5572C22.7536 89.4991 18.7777 89.6843 17.805 89.3292C16.4772 88.9586 16.0062 84.3961 17.5657 83.8634H17.6043Z" fill="#001434"/>
<path d="M33.8778 89.2904C36.2919 89.2113 38.684 88.8035 40.988 88.0783C44.3771 86.9898 43.3581 79.262 40.0693 79.123C37.2052 79.262 29.2612 78.351 29.3461 83.6702C29.3616 86.5961 30.7975 89.5992 33.8778 89.2904ZM31.199 83.701C31.199 83.3459 31.2839 82.157 31.971 81.9332C34.1094 81.1611 40.7332 78.7525 41.235 83.4772C41.3894 84.8668 41.042 86.1483 40.463 86.3413C35.445 87.4144 31.199 89.2904 31.199 83.701Z" fill="#001434"/>
<path d="M29.7479 98.8713C29.7479 96.5552 29.47 94.3241 28.3352 93.2742C27.0922 91.8923 23.2245 92.6489 21.3871 92.7492C14.5394 93.1275 15.4426 98.2073 18.0366 101.921C21.3794 103.503 29.7325 101.465 29.7479 98.8713ZM22.7381 94.4863C26.2044 93.7143 28.4432 94.1466 27.8951 98.7555C27.8411 99.6664 26.7217 100.4 20.9007 100.878C18.6542 101.071 18.3222 99.6124 18.0829 97.0879C17.8822 95.2042 18.5924 94.9881 22.7381 94.4863Z" fill="#001434"/>
<path d="M34.6346 111.347C37.1281 111.864 41.8992 111.293 43.8987 110.752C46.9172 109.942 46.7242 102.075 43.3042 101.928C39.8842 101.782 31.6778 101.156 32.7045 107.479C32.8203 109.031 33.4071 110.953 34.6346 111.347ZM34.5342 106.19C34.897 103.001 40.6099 103.874 43.1189 103.781C44.5626 103.974 44.2383 108.984 43.3428 108.977C41.3587 109.571 36.4333 109.865 35.2213 109.579C34.6155 108.545 34.3735 107.338 34.5342 106.151V106.19Z" fill="#001434"/>
<path d="M23.641 124.857C32.2257 124.509 34.2484 123.961 32.4496 116.728C31.5695 113.192 21.0702 114.774 19.9817 117.276C18.8931 119.777 19.2946 125.034 23.641 124.857ZM21.5952 118.194C22.7995 116.419 27.6863 116.257 29.0064 116.241C31.2067 116.241 31.7625 120.642 31.0754 121.46C29.1917 123.699 21.9271 123.421 21.711 122.402C21.4408 121.105 20.8772 119.252 21.5952 118.194Z" fill="#001434"/>
<path d="M20.0975 113.724C21.765 114.666 32.2643 113.577 31.1372 108.196C30.728 106.236 30.7975 103.703 28.1418 103.564C25.3317 103.425 17.9513 103.132 17.8664 108.065C17.7737 110.219 18.7387 112.952 20.0975 113.724ZM19.7269 107.973C20.2596 104.977 26.1963 105.494 27.9102 105.409C28.937 105.286 30.0564 110.59 28.6359 111.022C23.3476 112.211 19.5648 114.203 19.7269 107.973Z" fill="#001434"/>
</svg>
