<svg width="155" height="156" viewBox="0 0 155 156" fill="none" xmlns="http://www.w3.org/2000/svg">
<path d="M24.8762 27.97C29.2216 27.97 32.7442 24.4474 32.7442 20.1021C32.7442 15.7567 29.2216 12.2341 24.8762 12.2341C20.5309 12.2341 17.0083 15.7567 17.0083 20.1021C17.0083 24.4474 20.5309 27.97 24.8762 27.97Z" fill="#FFD997"/>
<path d="M24.8762 28.241C20.3879 28.241 16.7373 24.5904 16.7373 20.1021C16.7373 15.6137 20.3879 11.9631 24.8762 11.9631C29.3646 11.9631 33.0152 15.6137 33.0152 20.1021C33.0152 24.5904 29.3646 28.241 24.8762 28.241ZM24.8762 12.5051C20.6875 12.5051 17.2793 15.9134 17.2793 20.1021C17.2793 24.2908 20.6875 27.699 24.8762 27.699C29.0649 27.699 32.4732 24.2908 32.4732 20.1021C32.4732 15.9134 29.0649 12.5051 24.8762 12.5051Z" fill="black"/>
<path d="M20.4637 35.5305C20.6084 29.3086 16.796 27.0207 10.6624 27.9157C10.3736 27.956 10.2335 27.5774 10.4758 27.4194C12.7599 25.9391 13.9522 24.2156 14.0211 22.2993C14.1628 18.3499 9.50645 14.7875 9.45922 14.7519C9.22694 14.5762 9.40037 14.2061 9.68143 14.2711C16.2502 15.7453 20.7927 12.1922 20.9058 4.39166C20.9073 4.24223 21.0629 4.11758 21.1798 4.12455C21.3293 4.12687 21.4493 4.2492 21.447 4.39863C21.3455 11.425 17.5362 16.0496 10.5888 14.9927C14.9014 18.8818 16.3539 23.6186 11.6503 27.2522C17.9884 26.6816 21.1388 29.8173 21.0049 35.5421C20.9979 35.8998 20.4544 35.8882 20.4637 35.5305Z" fill="black"/>
<path d="M22.8301 32.7882C26.5426 29.6532 31.3329 29.0857 35.3157 31.2234C32.6251 26.3541 35.5952 22.352 40.6379 20.0595C38.017 19.334 36.1836 17.9976 35.1817 16.0775C33.754 13.3428 34.3897 10.1839 34.8426 8.66559C29.947 12.3379 25.5036 10.6601 22.9044 7.74269C22.6659 7.47557 23.0724 7.11477 23.3093 7.38266C25.8667 10.2544 30.3396 11.8385 35.2266 7.66216C35.445 7.47789 35.7624 7.71172 35.6532 7.97264C35.6354 8.016 33.8608 12.3781 35.6641 15.829C36.6884 17.7886 38.672 19.1002 41.5585 19.7273C41.824 19.7854 41.848 20.1539 41.5941 20.2468C41.5414 20.2654 36.3036 22.2134 35.0888 26.0127C34.5073 27.8322 34.9363 29.8058 36.3632 31.8815C36.5328 32.1277 36.2355 32.4243 35.9893 32.2594C32.0398 29.5975 27.0141 29.9668 23.1808 33.2016C22.9145 33.4285 22.5537 33.0228 22.8316 32.7874L22.8301 32.7882Z" fill="black"/>
<path d="M134.136 26.1644C131.793 24.067 129.907 25.1378 129.83 25.1835C129.521 25.3654 129.247 24.9001 129.552 24.7181C129.641 24.6647 131.641 23.5064 134.119 25.4436C134.543 23.292 135.918 22.2947 137.396 22.3683C137.74 22.3714 137.779 22.9095 137.351 22.9095C134.805 22.9095 134.594 25.8524 134.587 25.9786C134.573 26.2047 134.302 26.3139 134.136 26.1644Z" fill="black"/>
<path d="M141.545 10.6763C139.205 8.58197 137.319 9.64967 137.239 9.69535C136.93 9.8773 136.656 9.41197 136.962 9.23002C137.05 9.1766 139.05 8.01909 141.527 9.95472C141.722 8.96987 142.412 6.87939 144.759 6.87939C145.18 6.87939 145.178 7.42137 144.761 7.42137C142.214 7.42137 142.004 10.3643 141.997 10.4905C141.982 10.7166 141.712 10.825 141.545 10.6755V10.6763Z" fill="black"/>
<path d="M120.427 15.3754C117.144 12.4356 114.492 13.9477 114.38 14.0143C114.069 14.1955 113.797 13.7309 114.103 13.549C114.131 13.5311 116.979 11.8797 120.405 14.6445C120.832 12.1793 122.344 10.2367 124.844 10.3296C125.184 10.3327 125.239 10.8708 124.783 10.8708C121.182 10.8708 120.89 15.0123 120.879 15.1888C120.864 15.4172 120.593 15.5241 120.427 15.3754Z" fill="black"/>
<path d="M89.483 42.5881L17.5884 84.0485L73.4785 116.352L145.377 74.8419L89.483 42.5881Z" fill="#FFD997"/>
<path d="M73.4785 116.352L17.5884 84.0484V151.08L145.377 151.504V74.8418L73.4785 116.352Z" fill="white"/>
<path d="M145.647 74.8411C145.647 74.5902 145.657 74.8155 89.6234 42.3388C89.4786 42.2551 65.4303 56.0874 17.4779 83.8355C17.3757 83.8812 17.3184 83.9795 17.3184 84.0817V151.079C17.3184 151.438 17.8596 151.438 17.8596 151.079V84.5517L73.2069 116.507V151.503C73.2069 151.861 73.7489 151.861 73.7489 151.503V116.509L145.106 75.3103V151.503C145.106 151.861 145.647 151.861 145.647 151.503V74.8411ZM89.4879 42.8869L144.834 74.8418L73.4794 116.038L18.1321 84.0841L89.4879 42.8869Z" fill="black"/>
<path d="M68.8371 118.599L22.499 91.8452C22.3441 91.7554 22.1598 91.7484 22.149 92.4058C22.1126 94.5954 22.0933 104.958 22.0933 151.503C22.0933 151.861 22.6345 151.861 22.6345 151.503V92.5482L32.2181 98.081V151.502C32.2181 151.861 32.7593 151.861 32.7593 151.502V98.3931L44.1509 104.97V151.501C44.1509 151.86 44.6921 151.86 44.6921 151.501V105.282L56.0844 111.86V151.502C56.0844 151.861 56.6256 151.861 56.6256 151.502V112.172L68.4307 118.988V151.502C68.4307 151.861 68.9719 151.861 68.9719 151.502V118.832C68.9719 118.735 68.9208 118.646 68.8364 118.597L68.8371 118.599Z" fill="black"/>
<path d="M78.3886 132.407C78.209 132.51 77.9829 132.381 77.9829 132.172V119.11C77.9829 118.859 77.9976 119.084 140.466 82.8793C140.645 82.7756 140.871 82.9049 140.871 83.1139V96.1763C140.871 96.4272 140.857 96.2019 78.3886 132.407ZM78.5241 119.266V131.702L140.33 96.0191V83.5831L78.5241 119.266Z" fill="black"/>
<path d="M86.7134 151.269L140.33 120.314V107.878L78.5241 143.56V151.504C78.5241 151.862 77.9829 151.862 77.9829 151.504V143.403C77.9829 143.307 78.034 143.218 78.1184 143.169C144 105.158 140.872 106.72 140.872 107.408V120.469C140.872 120.719 140.796 120.349 86.9844 151.737C86.6754 151.918 86.4037 151.447 86.7134 151.269Z" fill="black"/>
<path d="M129.481 151.774C129.204 151.774 129.106 151.407 129.345 151.27L140.33 144.927V132.491L106.99 151.739C106.682 151.92 106.407 151.449 106.719 151.27L140.465 131.787C140.645 131.683 140.871 131.813 140.871 132.022V145.084C140.871 145.181 140.82 145.27 140.735 145.319C129.495 151.804 129.593 151.776 129.479 151.776L129.481 151.774Z" fill="black"/>
<path d="M41.2368 91.7831L59.7058 80.9568L92.6572 99.6759L74.1882 110.502L41.2368 91.7831Z" fill="white"/>
<path d="M92.9286 99.6744C92.9286 99.4994 92.9944 99.487 59.8401 80.7215C59.7557 80.6735 59.6528 80.6742 59.5692 80.7238L41.1002 91.5501C41.015 91.5997 40.9809 91.6361 40.9685 91.8087C40.9546 91.9984 40.967 92.353 40.967 93.07C40.967 93.1676 41.0189 93.2574 41.104 93.3061L74.0554 112.025C74.1367 112.071 74.2412 112.072 74.3264 112.023L92.7954 101.197C92.9742 101.093 92.9293 101.047 92.9293 99.6751L92.9286 99.6744ZM92.1156 99.6798L74.1862 110.189L41.78 91.7801L59.7085 81.2704L92.1156 99.6798Z" fill="black"/>
<path d="M74.1736 108.351L88.9299 99.7014L59.7206 83.1077L44.9634 91.7576L74.1736 108.351Z" fill="#81F8F8"/>
<path d="M74.1736 108.622L44.8302 91.993C44.6475 91.8877 44.649 91.6275 44.8271 91.5238L59.5843 82.8738C59.668 82.8251 59.7709 82.8243 59.8553 82.8715L89.0647 99.4653C89.2475 99.5706 89.2459 99.8307 89.0678 99.9345C74.196 108.648 74.2913 108.622 74.1751 108.622H74.1736ZM45.5061 91.7537L74.1712 108.038L88.3873 99.7045L59.7229 83.4205L45.5061 91.7537Z" fill="black"/>
<path d="M50.5157 91.8576C50.6364 91.7724 50.8068 91.7995 50.8935 91.9226C51.0406 92.1324 51.334 91.9954 51.4533 91.9265C51.7065 91.7794 52.2004 91.5463 52.497 90.7814C52.5697 90.594 52.8338 90.5328 52.9708 90.7233C53.1179 90.9331 53.4114 90.7961 53.5306 90.7272C53.7892 90.5769 54.2762 90.347 54.5743 89.582C54.6509 89.3854 54.9196 89.3428 55.0481 89.524C55.1952 89.7338 55.4894 89.596 55.6087 89.5271C55.8619 89.38 56.3473 89.1647 56.6516 88.3827C56.7267 88.1907 56.9923 88.1388 57.1254 88.3247C57.2725 88.5345 57.5668 88.3974 57.686 88.3285C57.9446 88.1783 58.4316 87.9476 58.7289 87.1834C58.8056 86.986 59.0766 86.9442 59.2028 87.1261C59.3499 87.3359 59.6433 87.1981 59.7625 87.1292C60.0204 86.9806 60.5081 86.7498 60.8062 85.9849C60.9355 85.6504 61.4411 85.8471 61.311 86.1815C61.0981 86.7297 60.7118 87.2066 60.2782 87.4575L60.0343 87.5984C59.6929 87.7958 59.3491 87.8284 59.0827 87.7083C58.7212 88.3719 58.3162 88.591 57.9578 88.7977C57.6163 88.9944 57.2749 89.0284 57.0062 88.9077C56.6477 89.5681 56.2436 89.788 55.8812 89.997C55.5398 90.1945 55.1983 90.2278 54.9297 90.107C54.5712 90.7643 54.1724 90.9834 53.8039 91.1964C53.464 91.393 53.1233 91.4279 52.8523 91.3063C52.4923 91.966 52.0936 92.1835 51.7266 92.3957C50.8168 92.9222 50.1247 92.1363 50.518 91.8583L50.5157 91.8576Z" fill="black"/>
<path d="M55.6958 94.7285C55.8166 94.6426 55.9862 94.6697 56.0737 94.7935C56.2208 95.0034 56.5142 94.8663 56.6335 94.7974C56.8866 94.6503 57.3806 94.4173 57.6771 93.6523C57.753 93.4587 58.0194 93.41 58.151 93.5942C58.2981 93.804 58.5915 93.667 58.7108 93.5981C58.9694 93.4479 59.4564 93.2179 59.7545 92.453C59.8272 92.2656 60.0913 92.2044 60.2283 92.3949C60.3754 92.6055 60.6696 92.4661 60.7889 92.398C61.0413 92.2532 61.5337 92.0186 61.8318 91.2537C61.9084 91.057 62.1771 91.0144 62.3056 91.1956C62.4535 91.407 62.7469 91.2668 62.8654 91.1987C63.1194 91.0516 63.6125 90.8185 63.9091 90.0536C63.9865 89.8546 64.2575 89.8167 64.3829 89.9963C64.53 90.2046 64.8227 90.0691 64.9435 89.9994C65.1951 89.8538 65.6883 89.62 65.9864 88.855C66.1173 88.519 66.6213 88.7188 66.4912 89.0517C66.2783 89.5999 65.8919 90.0768 65.4576 90.3269L65.2145 90.4678C64.873 90.6652 64.5293 90.6985 64.2629 90.5785C63.9044 91.2366 63.5034 91.4573 63.1379 91.6679C62.7957 91.8653 62.4527 91.8978 62.1864 91.7778C61.8264 92.4375 61.4261 92.6574 61.0614 92.8672C60.7192 93.0646 60.377 93.0979 60.1098 92.9771C59.7514 93.6345 59.3526 93.8536 58.9841 94.0665C58.6442 94.2632 58.3035 94.298 58.0325 94.1765C57.6725 94.8361 57.2738 95.0537 56.9068 95.2658C55.997 95.7923 55.3048 95.0065 55.6982 94.7285H55.6958Z" fill="black"/>
<path d="M60.8775 97.5992C60.9983 97.514 61.1686 97.5411 61.2553 97.6642C61.4016 97.874 61.6951 97.737 61.8151 97.6681C62.069 97.5217 62.5622 97.2879 62.8588 96.5229C62.9354 96.3263 63.2041 96.2837 63.3326 96.4649C63.479 96.6747 63.7724 96.5377 63.8924 96.4688C64.1518 96.3193 64.6388 96.0878 64.9361 95.3236C65.0135 95.1247 65.2845 95.0867 65.4099 95.2663C65.5563 95.4746 65.8497 95.3391 65.9705 95.2694C66.2221 95.1239 66.7153 94.8901 67.0134 94.1251C67.0901 93.9284 67.3587 93.8858 67.4873 94.067C67.6351 94.2776 67.9278 94.139 68.047 94.0701C68.301 93.9238 68.7942 93.69 69.0907 92.925C69.1689 92.7252 69.4407 92.6881 69.5646 92.8677C69.7109 93.076 70.0051 92.9397 70.1251 92.8708C70.3791 92.7252 70.87 92.4906 71.168 91.7257C71.2989 91.3897 71.8022 91.5902 71.6729 91.9223C71.4599 92.4713 71.0736 92.9482 70.6392 93.1983L70.3961 93.3392C70.0547 93.5359 69.7109 93.57 69.4446 93.4499C69.0861 94.1081 68.685 94.3287 68.3196 94.5393C67.9774 94.7368 67.6344 94.77 67.368 94.6493C67.008 95.3089 66.6077 95.528 66.243 95.7386C65.9008 95.9361 65.5586 95.9694 65.2915 95.8486C64.9315 96.5082 64.5327 96.7258 64.1657 96.9379C63.8258 97.1346 63.4852 97.1694 63.2142 97.0479C62.8541 97.7076 62.4554 97.9251 62.0884 98.1373C61.1787 98.6638 60.4865 97.8779 60.8798 97.5999L60.8775 97.5992Z" fill="black"/>
<path d="M66.0579 100.47C66.1786 100.385 66.349 100.411 66.4357 100.535C66.5828 100.746 66.877 100.608 66.9963 100.539C67.2494 100.393 67.7411 100.159 68.0392 99.394C68.1127 99.2058 68.3767 99.1462 68.513 99.3359C68.6601 99.5465 68.9543 99.4087 69.0736 99.3398C69.3322 99.1896 69.8184 98.9589 70.1173 98.1947C70.1939 97.9988 70.461 97.9554 70.5911 98.1366C70.7374 98.3464 71.0317 98.2094 71.1509 98.1405C71.4048 97.9934 71.898 97.7603 72.1946 96.9954C72.2697 96.8026 72.536 96.7522 72.6684 96.9373C72.8148 97.1471 73.109 97.0101 73.2282 96.9412C73.4822 96.7941 73.9754 96.561 74.2719 95.796C74.3493 95.5978 74.618 95.5584 74.7457 95.738C74.8921 95.9478 75.1863 95.8108 75.3055 95.7419C75.5641 95.5916 76.0511 95.3617 76.3492 94.5967C76.4808 94.2607 76.9841 94.4605 76.854 94.7934C76.6411 95.3423 76.2548 95.8193 75.8204 96.0694L75.5765 96.211C75.2343 96.4077 74.8944 96.4402 74.625 96.3202C74.2649 96.9799 73.8662 97.1974 73.4992 97.4096C73.1593 97.6062 72.8186 97.6411 72.5476 97.5195C72.1876 98.1792 71.7889 98.3968 71.4219 98.6089C71.082 98.8056 70.7382 98.8389 70.4703 98.7188C70.1087 99.3824 69.7038 99.6015 69.3453 99.8082C69.0031 100.006 68.6624 100.039 68.3938 99.9182C68.0353 100.579 67.6311 100.798 67.2688 101.008C66.3621 101.532 65.6653 100.75 66.0594 100.47H66.0579Z" fill="black"/>
<path d="M71.2383 103.341C71.3599 103.256 71.5287 103.283 71.6161 103.406C71.7625 103.616 72.0567 103.479 72.1759 103.41C72.4291 103.263 72.9231 103.03 73.2196 102.265C73.2947 102.072 73.5611 102.022 73.6935 102.207C73.8406 102.417 74.134 102.28 74.2532 102.211C74.5064 102.064 74.9996 101.83 75.2969 101.066C75.3697 100.878 75.6345 100.817 75.7708 101.007C75.9171 101.218 76.2121 101.08 76.3313 101.011C76.5845 100.865 77.0762 100.631 77.3743 99.8662C77.4494 99.6734 77.7157 99.6231 77.8481 99.8081C77.9952 100.019 78.2894 99.8809 78.4087 99.812C78.6618 99.6657 79.1535 99.4319 79.4516 98.6669C79.5267 98.4749 79.793 98.4222 79.9254 98.6088C80.0725 98.8194 80.3667 98.6816 80.486 98.6127C80.7446 98.4625 81.2308 98.2318 81.5297 97.4676C81.6605 97.1316 82.1653 97.3313 82.0345 97.6642C81.8208 98.2132 81.4337 98.6909 81.0001 98.9402L80.757 99.0811C80.4147 99.2786 80.0741 99.3118 79.8054 99.1911C79.4469 99.8515 79.0428 100.071 78.6804 100.28C78.339 100.477 77.9975 100.51 77.7289 100.39C77.3704 101.051 76.9662 101.271 76.6039 101.48C76.2624 101.677 75.921 101.71 75.6523 101.59C75.2923 102.251 74.8881 102.471 74.5266 102.679C74.1859 102.875 73.8468 102.911 73.575 102.789C73.215 103.449 72.8162 103.666 72.4492 103.878C71.5395 104.405 70.8473 103.619 71.2406 103.341H71.2383Z" fill="black"/>
<path d="M106.806 46.1611C86.066 34.8253 86.7806 35.07 85.9537 35.029C85.5147 35.0073 85.0711 35.1102 84.6785 35.3371L32.4886 65.4663L17.5889 56.8628V84.0809L32.4886 92.6828L85.8066 61.9017L106.806 73.3776L124.882 63.0104V35.7939L106.806 46.1611Z" fill="#FFD997"/>
<path d="M34.3989 66.5695L84.0857 37.8525V62.8949L34.3989 91.5802V66.5695Z" fill="#81F8F8"/>
<path d="M124.882 35.7939L90.6488 16.0265C89.9295 15.6115 89.043 15.6123 88.3237 16.0265L17.5889 56.8636L32.4886 65.4671L84.6785 35.3379C85.3808 34.933 86.241 34.9221 86.9517 35.3108L106.806 46.1619L124.882 35.7947L124.882 35.7939Z" fill="white"/>
<path d="M125.152 35.7861C125.15 35.6916 125.098 35.6064 125.016 35.5584L90.7848 15.7918C89.9842 15.328 88.99 15.3303 88.1887 15.7918C40.9253 43.0702 17.3019 56.7608 17.3184 56.8635V84.0823C17.3184 84.1791 17.3695 84.2673 17.4539 84.3161C32.4728 92.9815 32.3745 92.9537 32.4891 92.9537L85.811 62.2128L106.806 73.6485C106.897 73.6485 106.824 73.6562 125.018 63.2457C125.102 63.1969 125.154 63.1071 125.154 63.0103V35.7861H125.152ZM17.8603 57.3327L32.2188 65.6234V92.2135L17.8603 83.9251V57.3327ZM85.684 61.6608L32.7608 92.2135V65.6234C85.5787 35.131 84.9516 35.3618 85.684 35.306V61.6608ZM106.536 72.9207L86.226 61.8218V35.3354C86.7254 35.4291 86.2794 35.2495 106.536 46.3213V72.9207ZM106.804 45.8505L87.0846 35.0722C86.2956 34.6409 85.3224 34.6525 84.5443 35.1032L32.4906 65.1534L18.1329 56.8627L88.4597 16.2618C89.093 15.8955 89.8789 15.8955 90.5138 16.2618L124.338 35.7946L106.803 45.8513L106.804 45.8505ZM124.613 62.8531L107.078 72.9091V46.3182L124.613 36.2622V62.8531Z" fill="black"/>
<path d="M136.071 42.1405L117.995 52.5077L106.806 46.1612L124.882 35.7939L136.071 42.1405Z" fill="white"/>
<path d="M34.2634 66.3349C34.1798 66.3836 34.1279 66.4727 34.1279 66.5695V91.5801C34.1279 91.7303 34.2495 91.8511 34.3989 91.8511C84.4156 63.018 84.3559 63.1457 84.3559 62.8964V37.8532C84.3559 37.1518 86.777 36.0206 34.2634 66.3349ZM54.8918 55.0385L64.4902 49.491V73.8954L54.8918 79.4367V55.0385ZM54.3506 79.7488L44.7522 85.2901V60.8988L54.3506 55.3513V79.7488ZM34.6699 66.7258L44.2102 61.2116V85.6021L34.6699 91.1101V66.7258ZM74.6306 68.0413L65.0322 73.5826V49.2386C65.0322 49.1442 65.0058 49.1929 74.6306 43.6299V68.0413ZM83.8147 62.7392L75.1718 67.7285V43.3171L83.8147 38.3217V62.7392Z" fill="black"/>
<path d="M87.7046 62.9762V37.9656L105.055 47.3751V72.3841L87.7046 62.9762Z" fill="#81F8F8"/>
<path d="M91.3667 64.9848V43.9229L101.393 49.3612V70.4224L91.3667 64.9848Z" fill="white"/>
<path d="M105.184 47.1368L87.8349 37.7274C87.6545 37.629 87.4346 37.7606 87.4346 37.9658V62.9772C87.4346 63.0763 87.4888 63.1677 87.5763 63.2157L104.926 72.6236C105.109 72.722 105.326 72.5888 105.326 72.3852V47.3753C105.326 47.2762 105.272 47.1848 105.184 47.1368ZM101.123 69.944L99.6019 69.1194V50.9709C99.6019 50.6566 99.43 50.3678 99.1536 50.2183L93.5086 47.157C93.2949 47.0408 93.034 47.1964 93.034 47.4396V65.5578L91.638 64.8006V44.3782L101.123 49.5215V69.944ZM104.784 71.9299L101.664 70.2382V49.3613C101.664 49.2621 101.61 49.1708 101.522 49.1228L91.4963 43.686C91.3097 43.5861 91.096 43.7239 91.096 43.9245V64.5087L87.9758 62.817V38.4219L104.784 47.5371V71.9299Z" fill="black"/>
<path d="M111.304 43.6293L115.999 40.928L127.126 47.2389L122.426 49.9379L111.304 43.6293Z" fill="#81F8F8"/>
<path d="M120.744 38.2754L124.882 35.7939L136.071 42.1405L131.783 44.536L120.744 38.2754Z" fill="#81F8F8"/>
<path d="M117.995 52.5077C119.075 55.0744 122.426 53.6668 122.426 49.938L117.995 52.5077Z" fill="white"/>
<path d="M122.667 49.9333C123.747 52.4999 127.098 51.0923 127.098 47.3635L122.667 49.9333Z" fill="#81F8F8"/>
<path d="M127.352 47.4156C128.432 49.9822 131.783 48.2649 131.783 44.5361L127.352 47.4156Z" fill="white"/>
<path d="M131.783 44.5359C132.863 47.1025 136.071 45.9427 136.071 42.2131L131.783 44.5359Z" fill="#81F8F8"/>
<path d="M136.205 41.9041L125.016 35.5584C124.933 35.5111 124.831 35.5111 124.747 35.5584L106.671 45.9256C106.489 46.0293 106.49 46.2926 106.671 46.3963L117.782 52.698C118.949 55.2623 122.328 54.0947 122.668 50.5161C124.001 52.5571 127.002 51.3159 127.337 47.9719C127.727 48.5782 128.293 48.9096 128.941 48.9096C130.171 48.9096 131.668 47.6537 131.99 45.4084C133.462 47.1791 136.34 45.8172 136.34 42.2115C136.34 42.0861 136.332 41.9761 136.203 41.9034L136.205 41.9041ZM124.883 36.1065L135.525 42.1418L131.839 44.2555L121.197 38.2202L124.883 36.1065ZM117.994 52.1947L107.353 46.1594L111.263 43.9172L121.904 49.9525L117.994 52.1947ZM118.347 52.6175L122.133 50.4464C121.863 53.4157 119.323 54.471 118.347 52.6175ZM122.451 49.6389L111.81 43.6036L115.966 41.2205L126.607 47.2558L122.451 49.6389ZM122.977 49.9618L126.814 47.7613C126.597 50.8553 123.938 51.9485 122.977 49.9618ZM127.154 46.9422L116.512 40.9069L120.651 38.5338L131.292 44.5691L127.154 46.9422ZM127.601 47.31L131.487 45.0817C131.199 48.1144 128.509 49.4639 127.601 47.31ZM133.846 45.612C133.167 45.7514 132.552 45.4092 132.16 44.6953L135.787 42.6157C135.664 44.4266 134.725 45.4355 133.846 45.612Z" fill="black"/>
<path d="M112.41 75.8304V49.5384C112.41 49.1799 112.951 49.1799 112.951 49.5384V75.8304C112.951 76.1889 112.41 76.1889 112.41 75.8304Z" fill="black"/>
<path d="M129.036 67.3152V48.6295C129.036 48.271 129.577 48.271 129.577 48.6295V67.3152C129.577 67.6737 129.036 67.6737 129.036 67.3152Z" fill="black"/>
<path d="M85.9541 80.8461C87.2068 80.8461 88.2227 80.2593 88.2227 79.5361C88.2227 78.813 87.2068 78.2261 85.9541 78.2261C84.7014 78.2261 83.6855 78.813 83.6855 79.5361C83.6855 80.2593 84.7014 80.8461 85.9541 80.8461Z" fill="white"/>
<path d="M88.4934 79.535C88.4934 79.0844 88.2084 78.6725 87.6928 78.3752C86.1226 77.467 83.415 78.1073 83.415 79.535V79.7511C83.415 80.8195 84.859 81.3336 85.9538 81.3336C87.0486 81.3336 88.4918 80.8203 88.4934 79.7511V79.535ZM87.9514 79.535C87.9514 80.4711 85.7084 80.931 84.4851 80.2272C83.7805 79.8192 83.7805 79.2517 84.4851 78.8436C85.7641 78.1066 87.9514 78.6501 87.9514 79.5358V79.535Z" fill="black"/>
<path d="M85.9541 74.8472C89.0511 74.8472 91.562 73.3975 91.562 71.6093C91.562 69.821 89.0511 68.3713 85.9541 68.3713C82.8571 68.3713 80.3462 69.821 80.3462 71.6093C80.3462 73.3975 82.8571 74.8472 85.9541 74.8472Z" fill="white"/>
<path d="M91.832 71.6084C91.832 68.4084 85.4429 67.0101 81.8519 69.0851C80.706 69.7463 80.0742 70.6429 80.0742 71.6084V72.1411C80.0742 73.1066 80.7052 74.0032 81.8527 74.6652C82.8414 75.2366 84.1019 75.5579 85.3956 75.6291V79.1063C85.3956 79.4137 85.645 79.6637 85.9531 79.6637C86.2613 79.6637 86.5106 79.4144 86.5106 79.1063V75.6283C87.8051 75.5571 89.0656 75.235 90.0543 74.6644C91.2002 74.0032 91.832 73.1058 91.832 72.1403V71.6084ZM89.7833 73.6641C86.4649 75.5796 80.6139 74.2533 80.6162 71.6084C80.6162 68.9899 86.4146 67.611 89.7833 69.5543C91.791 70.7134 91.7941 72.5019 89.7833 73.6648V73.6641Z" fill="black"/>
<path d="M121.503 72.2155C122.756 72.2155 123.772 71.629 123.772 70.9055C123.772 70.182 122.756 69.5955 121.503 69.5955C120.251 69.5955 119.235 70.182 119.235 70.9055C119.235 71.629 120.251 72.2155 121.503 72.2155Z" fill="white"/>
<path d="M124.043 70.9044C124.043 70.4538 123.758 70.0419 123.243 69.7446C121.672 68.8364 118.965 69.4767 118.965 70.9044V71.1205C118.965 72.1889 120.409 72.703 121.504 72.703C122.598 72.703 124.042 72.1897 124.043 71.1205V70.9044ZM123.501 70.9044C123.501 71.8405 121.258 72.3004 120.035 71.5966C119.33 71.1886 119.33 70.6211 120.035 70.213C121.314 69.4759 123.501 70.0187 123.501 70.9044Z" fill="black"/>
<path d="M121.503 66.2166C124.6 66.2166 127.111 64.7669 127.111 62.9786C127.111 61.1904 124.6 59.7407 121.503 59.7407C118.406 59.7407 115.896 61.1904 115.896 62.9786C115.896 64.7669 118.406 66.2166 121.503 66.2166Z" fill="white"/>
<path d="M127.382 62.9778C127.382 59.7778 120.993 58.3795 117.402 60.4545C116.256 61.1157 115.625 62.0123 115.625 62.9778V63.5105C115.625 64.476 116.256 65.3726 117.403 66.0346C118.392 66.6059 119.652 66.9273 120.946 66.9985V70.4757C120.946 70.783 121.195 71.0331 121.503 71.0331C121.812 71.0331 122.061 70.7838 122.061 70.4757V66.9977C123.355 66.9265 124.616 66.6044 125.605 66.0338C126.751 65.3726 127.382 64.4752 127.382 63.5097V62.9778ZM125.334 65.0334C122.015 66.9489 116.164 65.6227 116.166 62.9778C116.166 60.3593 121.965 58.9803 125.334 60.9237C127.341 62.0828 127.344 63.8705 125.334 65.0334Z" fill="black"/>
<path d="M82.4814 67.3501L82.9514 70.9674C82.9514 71.1346 83.0621 71.3027 83.2836 71.4304C83.9804 71.8322 85.22 71.5582 85.22 70.9674L85.6899 67.3501H82.4814Z" fill="#81F8F8"/>
<path d="M84.0857 68.2761C84.9714 68.2761 85.6899 67.8615 85.6899 67.3501C85.6899 66.8387 84.9714 66.4241 84.0857 66.4241C83.1999 66.4241 82.4814 66.8387 82.4814 67.3501C82.4814 67.8615 83.1999 68.2761 84.0857 68.2761Z" fill="white"/>
<path d="M85.3545 66.4606C84.6445 66.0503 83.5288 66.0495 82.8157 66.4606C82.2978 66.7595 82.1468 67.1799 82.2343 67.5446L82.681 70.9668C82.681 71.2385 82.8514 71.4925 83.1487 71.6636C83.4227 71.8223 83.7495 71.8897 84.0685 71.8897C84.4331 71.8897 84.7854 71.8014 85.034 71.6582C85.3282 71.4879 85.49 71.2424 85.4877 71.0009L85.9375 67.543C86.0242 67.1799 85.8748 66.758 85.3553 66.4591L85.3545 66.4606ZM84.0847 66.696C84.5764 66.696 85.418 66.9167 85.418 67.3503C85.418 68.1849 82.7522 68.2259 82.7522 67.3503C82.7522 66.9089 83.6039 66.696 84.0847 66.696ZM84.948 70.9676C84.948 71.0682 84.8319 71.1495 84.7622 71.1898C84.4347 71.3795 83.8168 71.4251 83.4189 71.196C83.2973 71.1255 83.2214 71.038 83.2191 70.9327L82.8738 68.2716C83.2207 68.4559 83.6527 68.548 84.0847 68.548C84.5168 68.548 84.9503 68.4559 85.2964 68.2708L84.948 70.9676Z" fill="black"/>
<path d="M83.786 70.2512L84.414 65.5887C84.486 65.0529 84.9482 64.6479 85.4894 64.6479H87.1192C87.4777 64.6479 87.4777 65.1891 87.1192 65.1891H85.4894C85.2184 65.1891 84.9877 65.392 84.9513 65.6607L84.3234 70.3232C84.2754 70.684 83.738 70.6035 83.7868 70.2504L83.786 70.2512Z" fill="black"/>
<path d="M78.3246 76.1403L76.3394 70.0408L70.6943 73.3004L72.6795 79.3991L84.7439 86.3651L90.389 83.1055L78.3246 76.1403Z" fill="white"/>
<path d="M90.5234 82.8715L78.5504 75.9582L76.5977 69.957C76.5443 69.7951 76.3546 69.7177 76.2044 69.8068L70.5585 73.0656C70.447 73.1291 70.3967 73.2622 70.4362 73.3838L72.3494 79.2627V82.5618C72.3494 82.8181 72.5576 83.0263 72.8139 83.0263C73.0702 83.0263 73.2785 82.8181 73.2785 82.5618V80.0578L84.2798 86.4098V89.7221C84.2798 89.9783 84.4881 90.1866 84.7444 90.1866C85.0006 90.1866 85.2089 89.9783 85.2089 89.7221V86.4106L89.7213 83.8052V86.7094C89.7213 86.9657 89.9295 87.174 90.1858 87.174C90.4421 87.174 90.6503 86.9657 90.6503 86.7094L90.6473 83.1889C90.6883 83.0604 90.631 82.9326 90.5257 82.8722L90.5234 82.8715ZM72.8325 78.9971L71.0192 73.4248L76.185 70.4432L77.9983 76.0155L72.8325 78.9971ZM73.2212 79.3997L78.3243 76.4537L89.8459 83.1061L84.7428 86.0521L73.2212 79.3997Z" fill="black"/>
<path d="M132.242 69.0021L134.227 62.9026L139.872 66.1614L137.887 72.261L125.822 79.2261L120.177 75.9673L132.242 69.0021Z" fill="white"/>
<path d="M119.92 76.0503L119.917 79.5709C119.917 79.8272 120.125 80.0354 120.382 80.0354C120.638 80.0354 120.846 79.8272 120.846 79.5709V76.6667L125.359 79.272V82.5835C125.359 82.8398 125.567 83.048 125.823 83.048C126.079 83.048 126.288 82.8398 126.288 82.5835V79.2712L137.289 72.9193V75.4232C137.289 75.6795 137.497 75.8878 137.754 75.8878C138.01 75.8878 138.218 75.6795 138.218 75.4232V72.1241L140.131 66.2452C140.171 66.1237 140.12 65.9905 140.009 65.927L134.363 62.6682C134.213 62.5792 134.023 62.6574 133.97 62.8184L132.017 68.8196L120.044 75.7329C119.939 75.7941 119.881 75.9218 119.923 76.0496L119.92 76.0503ZM132.567 68.8777L134.38 63.3054L139.546 66.287L137.733 71.8593L132.567 68.8777ZM125.822 78.9135L120.719 75.9675L132.241 69.3151L137.344 72.2612L125.822 78.9135Z" fill="black"/>
<path d="M145.647 65.4385C145.647 65.2859 145.593 65.2116 145.512 65.1652C145.424 65.1141 145.4 65.2821 125.127 53.4322C124.82 53.2525 124.544 53.721 124.856 53.9006L144.803 65.4176L73.4771 106.597L32.6237 83.0101C32.3194 82.8282 32.0392 83.2981 32.3527 83.4785L73.2061 107.065V116.484C73.2061 116.843 73.7473 116.843 73.7473 116.484V107.066L145.105 65.869V74.9741C145.105 75.3326 145.647 75.3326 145.647 74.9741L145.647 65.4385Z" fill="black"/>
<path d="M36.3285 56.2922C36.5197 56.077 37.263 54.259 37.102 53.3261C37.0749 53.1673 35.9561 54.2784 35.8949 54.3311C36.2154 53.4724 36.5019 52.2274 36.3416 51.5887C36.1396 51.6552 35.689 51.9471 35.6363 52.1539C35.7408 51.4965 36.1372 50.1718 35.9677 49.2845C35.7571 49.3224 35.363 49.7312 35.0835 49.9542C35.0564 49.1683 34.9581 48.1626 34.646 47.4402C34.3735 47.6462 34.1931 47.969 34.159 48.3089C34.0204 46.954 33.4103 45.6525 32.4572 44.6792L32.2327 47.1174C32.0236 46.1209 31.4716 45.1569 31.0303 44.2402C30.3969 45.4132 30.328 46.7627 30.4271 48.0921C30.0454 47.3419 29.3711 46.7937 28.9901 46.0435C28.459 47.5409 28.4869 48.9291 28.5047 50.5179L27.5911 49.5315C27.3588 50.73 27.3812 51.9773 27.6545 53.1673L26.727 52.0594C26.5257 53.5506 27.0437 54.2908 27.3774 55.3662C27.0421 55.1161 26.8439 55.1146 26.3716 54.6167C26.1711 55.0666 26.2191 56.2404 26.8555 57.6495C26.4599 57.5086 26.0952 57.377 25.5215 57.4072C27.0274 60.5676 30.791 61.3334 32.4162 61.17C36.6219 60.7465 37.3954 57.9003 37.798 55.2718C37.2607 55.343 37.1856 55.5257 36.3293 56.293L36.3285 56.2922Z" fill="black"/>
<path d="M48.3895 49.7234C48.5808 49.5081 49.324 47.6902 49.163 46.7572C49.1359 46.5985 48.0171 47.7096 47.9559 47.7622C48.2765 46.9036 48.563 45.6586 48.4027 45.0198C48.2006 45.0864 47.75 45.3783 47.6973 45.585C47.8019 44.9277 48.1983 43.6029 48.0287 42.7156C47.8181 42.7536 47.424 43.1624 47.1445 43.3854C47.1174 42.5995 47.0191 41.5937 46.7071 40.8714C46.4345 41.0773 46.2541 41.4002 46.2201 41.7401C46.0815 40.3851 45.4714 39.0836 44.5183 38.1104L44.2937 40.5485C44.0847 39.552 43.5326 38.5881 43.0913 37.6714C42.458 38.8444 42.3891 40.1939 42.4882 41.5233C42.1065 40.773 41.4321 40.2249 41.0512 39.4746C40.52 40.972 40.5479 42.3603 40.5657 43.949L39.6521 42.9626C39.4198 44.1612 39.4423 45.4085 39.7156 46.5985L38.788 45.4906C38.5867 46.9818 39.1047 47.7219 39.4384 48.7974C39.1031 48.5473 38.9049 48.5457 38.4326 48.0479C38.2321 48.4977 38.2801 49.6715 38.9166 51.0806C38.5209 50.9397 38.1562 50.8081 37.5825 50.8383C39.0884 53.9988 42.8521 54.7645 44.4772 54.6012C48.683 54.1777 49.4564 51.3315 49.8591 48.7029C49.3217 48.7742 49.2466 48.9569 48.3903 49.7242L48.3895 49.7234Z" fill="black"/>
<path d="M60.45 43.154C60.6412 42.9388 61.3846 41.1209 61.2235 40.1879C61.1964 40.0292 60.0776 41.1402 60.0165 41.1929C60.337 40.3342 60.6235 39.0892 60.4632 38.4505C60.2611 38.5171 59.8105 38.8089 59.7579 39.0157C59.8624 38.3583 60.2588 37.0336 60.0893 36.1463C59.8787 36.1842 59.4846 36.593 59.2051 36.816C59.178 36.0302 59.0796 35.0244 58.7676 34.302C58.4951 34.508 58.3147 34.8308 58.2806 35.1707C58.142 33.8158 57.5318 32.5143 56.5787 31.5411L56.3543 33.9792C56.1452 32.9827 55.5932 32.0188 55.1519 31.1021C54.5185 32.275 54.4496 33.6246 54.5487 34.9539C54.167 34.2037 53.4926 33.6555 53.1117 32.9053C52.5806 34.4027 52.6084 35.7909 52.6263 37.3797L51.7126 36.3933C51.4804 37.5918 51.5028 38.8391 51.7761 40.0292L50.8486 38.9212C50.6473 40.4124 51.1652 41.1526 51.4989 42.228C51.1637 41.978 50.9655 41.9764 50.4932 41.4786C50.2927 41.9284 50.3407 43.1022 50.9771 44.5113C50.5815 44.3704 50.2168 44.2388 49.6431 44.269C51.149 47.4295 54.9126 48.1952 56.5378 48.0318C60.7435 47.6083 61.517 44.7622 61.9196 42.1336C61.3823 42.2048 61.3072 42.3875 60.4508 43.1548L60.45 43.154Z" fill="black"/>
</svg>
