<svg width="154" height="154" viewBox="0 0 154 154" fill="none" xmlns="http://www.w3.org/2000/svg">
<path d="M95.2908 93.3822C95.9799 92.1142 95.8161 91.5353 97.5481 86.4456C98.3904 83.9663 99.2939 81.4907 100.328 79.0825C100.451 78.7977 100.041 78.5465 99.9019 78.8337C98.2074 82.2603 96.761 85.8042 95.5741 89.4381C95.0823 90.6433 94.7547 91.9091 94.6001 93.2015C94.6036 93.2813 94.6326 93.3578 94.6827 93.4198C94.7329 93.4819 94.8016 93.5263 94.8788 93.5465C94.956 93.5667 95.0377 93.5617 95.1118 93.5321C95.1859 93.5025 95.2486 93.45 95.2908 93.3822Z" fill="#191919"/>
<path d="M92.463 87.5659C89.5908 88.2336 88.8335 88.5268 85.3518 87.791C85.07 87.7312 84.8625 88.131 85.1512 88.2787C87.3327 89.3967 90.6007 89.5039 92.7202 88.1685C92.7874 88.1266 92.8373 88.0621 92.861 87.9867C92.8848 87.9112 92.8808 87.8297 92.8497 87.757C92.8186 87.6842 92.7626 87.625 92.6917 87.5899C92.6207 87.5549 92.5396 87.5463 92.463 87.5659Z" fill="#191919"/>
<path d="M104.714 68.2339C104.68 68.183 104.628 68.147 104.568 68.1333C104.508 68.1195 104.445 68.1291 104.392 68.16C104.339 68.191 104.3 68.2409 104.283 68.2997C104.265 68.3586 104.271 68.4218 104.299 68.4766C105.019 69.9653 106.05 71.2821 107.323 72.3381C108.596 73.3942 110.08 74.1649 111.676 74.5984C113.272 75.0318 114.942 75.1178 116.574 74.8506C118.206 74.5834 119.762 73.9692 121.137 73.0495C122.576 72.1168 124.526 70.5226 125.154 68.7615C125.634 69.2209 128.457 71.8649 128.479 71.8726C124.463 76.9263 119.122 80.9272 112.456 81.2656C106.07 81.5903 98.3673 78.4217 96.267 71.8948C96.2468 71.8429 96.2081 71.8003 96.1583 71.7752C96.1085 71.7502 96.0512 71.7445 95.9975 71.7593C95.9438 71.774 95.8974 71.8082 95.8674 71.8552C95.8374 71.9021 95.8259 71.9585 95.8351 72.0135C97.4286 80.5558 111.593 86.4035 122.85 78.7617C125.449 77.148 127.571 74.8697 128.995 72.162C129.6 70.9047 125.049 67.4376 124.671 67.8243C124.003 68.5088 123.573 69.4131 122.935 70.1359C121.947 71.2563 120.747 72.1695 119.404 72.8228C118.061 73.476 116.602 73.8563 115.111 73.9415C110.915 74.136 106.947 71.7041 104.714 68.2339Z" fill="#191919"/>
<path d="M126.359 67.1029C125.882 65.8655 126.541 64.9758 127.196 64.0002C127.224 63.9461 127.236 63.8849 127.231 63.8241C127.225 63.7633 127.202 63.7054 127.165 63.6571C127.128 63.6088 127.077 63.5722 127.02 63.5516C126.962 63.531 126.9 63.5272 126.841 63.5408C125.336 64.0715 125.223 66.1136 125.837 67.325C125.978 67.6022 126.475 67.4038 126.359 67.1029Z" fill="#191919"/>
<path d="M127.951 64.1763C128.62 63.5638 129.101 63.7647 129.393 64.779C129.343 65.0807 129.595 65.5018 129.962 65.3494C130.511 65.1197 131.182 65.6963 130.51 66.2315C130.127 66.5378 130.544 67.1772 130.982 67.0348C131.663 67.2017 131.824 67.5332 131.482 68.0386C131.094 68.6083 130.427 68.7768 129.897 69.1152C129.811 69.1673 129.747 69.2485 129.716 69.3442C129.684 69.4399 129.689 69.5437 129.727 69.6365C129.766 69.7294 129.837 69.8051 129.927 69.85C130.018 69.8949 130.121 69.9058 130.218 69.8809C131.357 69.7025 132.653 68.7928 132.645 67.5172C132.643 67.225 132.557 66.9396 132.395 66.6961C132.234 66.4525 132.005 66.2612 131.737 66.1458C131.794 65.9281 131.799 65.7 131.752 65.4799C131.705 65.2598 131.608 65.0537 131.467 64.8781C131.326 64.7024 131.146 64.5621 130.942 64.4683C130.737 64.3745 130.514 64.3299 130.289 64.3379C130.232 64.0401 130.085 63.7667 129.869 63.5541C129.653 63.3415 129.377 63.1998 129.078 63.148C128.78 63.0961 128.472 63.1364 128.197 63.2637C127.922 63.3909 127.692 63.5989 127.538 63.8601C127.366 64.1105 127.744 64.3915 127.951 64.1763Z" fill="#191919"/>
<path d="M85.2292 65.9161C85.0577 66.1879 85.4719 66.4184 85.6549 66.1649C87.1082 64.1764 89.0228 62.5706 91.2339 61.4856C93.4346 60.3876 95.6751 60.1679 98.0404 59.7322C98.1017 59.7127 98.1573 59.6783 98.2021 59.6321C98.2468 59.5859 98.2795 59.5293 98.297 59.4674C98.3145 59.4054 98.3164 59.3401 98.3025 59.2773C98.2886 59.2145 98.2593 59.1561 98.2173 59.1073C99.0205 57.8661 101.453 60.8118 101.973 61.3968C102.902 62.4542 103.661 63.6504 104.22 64.9421C104.344 65.2239 104.714 65.0424 104.74 64.8012C104.796 64.0007 104.579 63.2049 104.124 62.5439C104.383 62.1891 104.596 61.8032 104.759 61.3953C105.155 61.6937 105.617 61.8928 106.106 61.976C106.596 62.0593 107.098 62.0243 107.57 61.8739C108.396 61.5794 109.125 61.0626 109.676 60.3805C110.227 59.6983 110.579 58.8772 110.693 58.0078C111.469 58.4879 112.224 57.5177 112.394 56.9434C112.632 55.8843 112.722 54.7975 112.663 53.7136C112.663 53.3116 112.663 52.9104 112.646 52.5184C114.1 52.1815 115.113 50.7113 115.172 48.7526C115.202 47.8046 115.068 46.8077 114.136 46.3429C112.911 45.7303 111.907 46.8314 110.737 46.5435C109.332 46.1982 108.985 43.9937 107.557 43.7823C106.721 43.6591 106.063 44.267 105.348 44.5595C104.554 44.8834 103.773 44.5955 102.994 44.9087C99.7923 46.1959 99.4424 52.9426 101.377 55.3867C100.715 56.2138 100.128 57.0975 99.6216 58.0277C98.4317 57.4634 97.509 58.0874 97.401 58.9312C93.7271 58.6456 88.263 61.1013 85.2292 65.9161ZM102.146 55.7589C102.835 55.6563 104.335 53.7098 104.335 53.7098C104.335 53.7098 104.014 52.1968 104.636 51.7136C104.86 51.53 105.136 51.4219 105.425 51.405C105.714 51.3881 106.001 51.4632 106.244 51.6194C106.444 51.768 106.606 51.9908 106.847 52.0207C107.471 52.0972 107.391 51.1225 108.01 50.9624C109.113 50.6784 109.465 52.3193 111.681 52.5835C111.681 52.8989 111.554 56.2949 111.522 56.4411C111.522 56.8715 111.237 57.0437 110.651 56.9771C110.268 56.9105 110.048 56.9006 109.968 57.0476C109.291 58.3003 109.338 59.687 107.985 60.5499C107.674 60.7638 107.319 60.9071 106.947 60.9699C106.574 61.0326 106.192 61.0133 105.827 60.9133C105.463 60.8133 105.125 60.6349 104.836 60.3907C104.548 60.1465 104.316 59.8424 104.157 59.4994C104.08 59.2995 103.724 59.2988 103.756 59.5537C103.809 60.0108 103.972 60.4482 104.231 60.8287C103.989 61.1467 103.799 61.5014 103.669 61.8792C103.627 61.8233 101.932 59.2421 100.187 58.347C100.601 57.9029 101.877 56.1417 102.146 55.7589Z" fill="#191919"/>
<path d="M109.038 53.8217C108.722 54.0681 108.498 54.4131 108.401 54.8018C108.374 54.904 108.386 55.0123 108.432 55.107C108.479 55.2017 108.558 55.2765 108.655 55.318C108.752 55.3595 108.861 55.3648 108.961 55.333C109.062 55.3013 109.148 55.2345 109.204 55.1448C109.413 54.8365 109.524 54.4717 109.522 54.0988C109.515 53.886 109.249 53.6593 109.038 53.8217Z" fill="#191919"/>
<path d="M108.151 53.7512C108.486 53.6241 108.817 53.5046 109.139 53.35C109.297 53.3004 109.443 53.2199 109.57 53.1133C109.696 53.0067 109.801 52.8761 109.876 52.729C109.896 52.6552 109.886 52.5766 109.848 52.5102C109.811 52.4438 109.748 52.3948 109.675 52.3737C109.356 52.3398 109.036 52.4279 108.78 52.6202C108.48 52.7924 108.19 52.9802 107.91 53.183C107.641 53.3706 107.797 53.8852 108.151 53.7512Z" fill="#191919"/>
<path d="M108.432 58.7061C108.473 58.6627 108.503 58.6109 108.522 58.5543C108.54 58.4978 108.545 58.4378 108.538 58.3789C108.53 58.3199 108.509 58.2634 108.477 58.2134C108.445 58.1634 108.402 58.1211 108.352 58.0897C107.631 57.9195 106.873 58.0045 106.208 58.3301C106.162 58.3764 106.136 58.4389 106.136 58.5039C106.136 58.569 106.162 58.6315 106.208 58.6778C106.921 58.9577 107.712 58.9678 108.432 58.7061Z" fill="#191919"/>
<path d="M118.124 52.1891C119.31 51.6791 118.722 50.003 116.72 51.0283C116.428 51.1613 116.165 51.3519 115.948 51.5888C115.731 51.8256 115.564 52.1037 115.457 52.4066C115.385 52.6792 117.509 52.4525 118.124 52.1891Z" fill="#191919"/>
<path d="M117.231 54.2872C116.982 54.1976 116.869 54.5368 117.056 54.703C118.205 55.7237 118.077 56.4641 118.42 56.6555C118.521 56.7136 118.64 56.73 118.753 56.7014C118.865 56.6728 118.962 56.6014 119.023 56.5024C119.298 56.0231 119.268 55.0238 117.231 54.2872Z" fill="#191919"/>
<path d="M68.4088 67.5187C69.4135 66.7393 70.2014 65.7155 71.2872 64.9965C72.4945 64.173 73.8627 63.615 75.3015 63.359C76.7403 63.1031 78.217 63.1552 79.6342 63.5118C81.0079 63.8556 82.1281 64.655 83.4498 65.1198C83.8326 65.2522 84.0072 64.7668 83.8058 64.5172C82.8571 63.3433 81.0316 62.756 79.6082 62.4421C78.101 62.1086 76.5421 62.0826 75.0246 62.3655C71.5789 63.0102 68.817 65.3755 68.1079 66.9598C67.1523 66.2825 66.4615 65.2943 66.1538 64.1642C67.3897 62.7598 67.9732 61.1051 71.0804 59.1679C74.5882 56.9802 80.697 55.3202 86.4843 55.8983C89.4673 56.2819 92.3775 57.1035 95.1208 58.3363C95.3658 58.4366 95.4983 58.0553 95.2931 57.9244C87.7516 53.1004 76.3799 54.4564 70.3071 58.3983C68.3836 59.648 65.9425 61.6741 65.3222 63.9834C65.0803 64.8709 67.8139 68.5517 68.4088 67.5187Z" fill="#191919"/>
<path d="M61.9886 67.1611C63.4435 67.2805 63.9397 67.9268 64.6219 68.0907C64.7032 68.1102 64.7883 68.1057 64.8671 68.0779C64.9459 68.05 65.0149 68 65.0659 67.9337C65.1168 67.8675 65.1475 67.7879 65.1542 67.7046C65.1609 67.6213 65.1433 67.5378 65.1035 67.4643C65.0002 67.2912 64.8636 67.1402 64.7015 67.0202C65.0464 66.6665 65.3412 66.2672 65.5775 65.8333C65.5926 65.7706 65.5892 65.7048 65.5676 65.644C65.5461 65.5831 65.5074 65.5298 65.4561 65.4905C65.4049 65.4512 65.3434 65.4276 65.2791 65.4225C65.2147 65.4175 65.1503 65.4312 65.0936 65.462C64.8183 65.6369 64.5833 65.8684 64.4044 66.1412C64.2613 66.3157 64.1211 66.4926 63.9864 66.6733C63.3068 66.5081 62.5988 66.4971 61.9143 66.6412C61.6134 66.7032 61.7053 67.1381 61.9886 67.1611Z" fill="#191919"/>
<path d="M66.8693 72.2761C67.1124 71.6538 67.1524 70.9705 66.9835 70.324C66.8146 69.6776 66.4455 69.1011 65.929 68.6773C65.8164 68.5931 65.6663 68.7094 65.664 68.8304C65.6472 69.6099 66.0423 70.3305 66.0469 71.1054C66.0697 71.3541 66.028 71.6045 65.926 71.8325C65.8239 72.0605 65.6649 72.2584 65.4642 72.4071C65.159 72.5271 64.8387 72.6044 64.5124 72.6368C64.444 72.6552 64.3816 72.6914 64.3316 72.7416C64.2817 72.7918 64.2458 72.8543 64.2277 72.9228C64.2096 72.9913 64.2099 73.0634 64.2286 73.1318C64.2472 73.2001 64.2836 73.2623 64.334 73.3122C65.2184 74.0679 66.491 73.1804 66.8693 72.2761Z" fill="#191919"/>
<path d="M63.189 73.0878C63.2646 72.7241 63.4191 72.3814 63.6415 72.0839C63.8467 71.8021 64.2273 71.6161 64.3682 71.2807C64.3987 71.2246 64.4143 71.1616 64.4135 71.0977C64.4128 71.0339 64.3957 70.9712 64.3639 70.9158C64.3322 70.8604 64.2867 70.8141 64.232 70.7812C64.1773 70.7483 64.115 70.7299 64.0512 70.7279C63.4386 70.6666 62.4807 71.6804 62.581 72.9951C62.6063 73.3328 63.1186 73.453 63.189 73.0878Z" fill="#191919"/>
<path d="M63.3385 69.5287C62.1134 68.9828 60.9303 70.466 60.5819 71.4591C60.4418 71.8611 61.0613 72.1184 61.2711 71.7501C61.9656 70.5249 62.8584 70.5318 63.3944 69.979C63.4249 69.9478 63.4479 69.9102 63.4618 69.8689C63.4758 69.8276 63.4802 69.7836 63.4748 69.7404C63.4695 69.6971 63.4544 69.6557 63.4308 69.619C63.4072 69.5824 63.3757 69.5515 63.3385 69.5287Z" fill="#191919"/>
<path d="M59.3699 70.3542C59.3554 70.4215 59.3648 70.4918 59.3964 70.553C59.4281 70.6142 59.48 70.6625 59.5433 70.6897C59.6067 70.7168 59.6775 70.7211 59.7436 70.7018C59.8098 70.6825 59.8671 70.6408 59.9059 70.5839C60.6847 69.3189 61.6357 69.3388 62.1495 68.8327C62.191 68.7897 62.2208 68.7366 62.2358 68.6788C62.2508 68.6209 62.2506 68.5601 62.2352 68.5023C62.2198 68.4445 62.1897 68.3916 62.1478 68.3489C62.106 68.3062 62.0538 68.275 61.9963 68.2584C61.2298 67.982 59.7474 68.8227 59.3699 70.3542Z" fill="#191919"/>
<path d="M57.7066 68.6451C58.1507 68.4965 58.3996 68.0647 58.8651 67.9559C59.1173 67.8982 59.3789 67.8962 59.6319 67.95C59.8849 68.0038 60.1231 68.1122 60.3299 68.2676C60.66 68.5126 60.9425 68.0126 60.7312 67.7431C60.5141 67.4319 60.2125 67.1892 59.8621 67.0437C59.5117 66.8981 59.127 66.8557 58.7533 66.9215C58.1147 67.031 57.1721 67.5241 57.2349 68.2875C57.2357 68.3446 57.2494 68.4007 57.2752 68.4517C57.3009 68.5026 57.3379 68.547 57.3834 68.5815C57.4289 68.616 57.4816 68.6396 57.5377 68.6507C57.5937 68.6617 57.6514 68.6598 57.7066 68.6451Z" fill="#191919"/>
<path d="M65.5451 76.4194C66.2342 76.8673 66.9808 75.8834 67.0765 75.2953C67.1845 74.6521 66.7633 73.7225 65.9938 73.7907C65.9442 73.7923 65.8958 73.8065 65.8532 73.832C65.8107 73.8576 65.7753 73.8936 65.7506 73.9367C65.7259 73.9797 65.7126 74.0284 65.712 74.078C65.7114 74.1277 65.7235 74.1766 65.7472 74.2202C65.8896 74.4967 66.1301 74.7907 66.0604 75.1284C65.9838 75.5021 65.5443 75.5304 65.3935 75.8573C65.3428 75.9528 65.3303 76.0639 65.3585 76.1683C65.3866 76.2726 65.4533 76.3623 65.5451 76.4194Z" fill="#191919"/>
<path d="M100.605 66.6091C101.232 66.6175 102.581 67.0363 103.295 66.9199C103.296 67.0536 103.335 67.1844 103.405 67.2979C103.476 67.4113 103.577 67.5031 103.696 67.5631C103.963 67.6861 104.259 67.7323 104.551 67.6964C104.843 67.6606 105.119 67.5442 105.349 67.3602C105.578 67.1762 105.752 66.9319 105.85 66.6548C105.948 66.3777 105.967 66.0787 105.905 65.7913C105.684 65.0118 104.144 64.9222 103.477 66.1167C102.449 64.8778 99.736 63.8785 98.3623 63.8471C92.3415 63.7093 90.6033 66.2476 86.4585 67.982C82.3137 69.7163 80.6345 67.1925 80.0939 66.9475C78.8887 66.4008 74.1076 66.9996 73.7936 67.4353C73.4391 67.9276 74.5785 72.2394 75.374 72.8335C75.642 73.0342 81.0924 74.3497 83.7854 74.1291C91.745 73.4783 92.7113 69.0877 97.7934 67.0983C98.6901 66.7547 99.645 66.5885 100.605 66.6091Z" fill="#191919"/>
<path d="M121.703 142.752C118.627 145.033 115.801 140.706 112.967 140.165C110.179 139.634 108.306 142.589 108.525 145.076C106.611 145.399 85.9736 144.999 81.2239 145.004C76.4742 145.008 62.8766 145.149 61.14 144.243C59.4723 143.372 58.9746 141.357 57.3466 140.457C55.7509 139.574 53.8826 140.043 52.185 140.255C50.1521 140.507 48.0996 139.977 46.4421 138.774C44.1036 137.082 43.1396 134.275 41.1342 132.277C40.3873 131.428 39.3356 130.908 38.2076 130.83C36.6892 130.83 35.7428 131.922 34.8232 132.98C31.9395 136.295 27.8858 133.928 25.8138 130.997C24.0764 128.539 22.5978 125.407 19.4897 124.472C18.7183 124.23 17.8981 124.187 17.1056 124.346C16.313 124.506 15.5737 124.864 14.9564 125.386C14.3391 125.908 13.8639 126.578 13.5749 127.333C13.286 128.089 13.1926 128.905 13.3035 129.705C11.922 129.4 10.4778 129.572 9.20601 130.192C7.9342 130.812 6.90956 131.844 6.29878 133.12C5.87871 134.012 5.746 135.012 5.91896 135.983C6.09192 136.954 6.56203 137.847 7.26434 138.539C6.53022 138.65 5.8406 138.96 5.27018 139.436C4.69976 139.911 4.27029 140.534 4.0283 141.236C3.78631 141.938 3.74102 142.692 3.89735 143.418C4.05367 144.144 4.40564 144.813 4.91513 145.354C5.35082 145.86 6.07136 145.124 5.64409 144.622C5.19653 144.103 4.93489 143.449 4.90056 142.765C4.86623 142.08 5.06118 141.404 5.45455 140.842C5.84793 140.281 6.41727 139.867 7.07249 139.665C7.72771 139.464 8.43139 139.487 9.07219 139.73C9.6258 139.928 10.0217 139.008 9.47419 138.774C7.30492 137.848 6.21684 135.634 7.30875 133.428C7.90544 132.275 8.9099 131.386 10.1263 130.934C11.3428 130.482 12.684 130.499 13.8885 130.982C13.9777 131.005 14.0715 131.005 14.1604 130.981C14.2494 130.956 14.3305 130.909 14.3957 130.844C14.4609 130.779 14.5079 130.698 14.532 130.609C14.5561 130.52 14.5566 130.426 14.5333 130.337C13.1887 126.475 17.6689 123.334 21.3772 126.766C23.4638 128.697 24.4761 131.5 26.5129 133.48C28.5971 135.505 32.2389 136.661 34.6968 134.611C35.8255 133.669 36.6708 131.736 38.3906 131.892C41.3279 132.156 42.6786 137.846 46.7147 140.206C48.2173 141.096 49.9585 141.499 51.6995 141.361C53.5441 141.204 55.9109 140.357 57.4355 141.821C58.5251 142.867 58.8651 144.4 60.9945 145.325C62.4991 145.979 74.8823 146.051 79.423 146.049C84.5732 146.049 107.087 146.501 109.245 145.99C109.377 145.95 109.488 145.861 109.555 145.741C109.623 145.622 109.642 145.481 109.609 145.347C109.403 144.482 109.519 143.572 109.935 142.786C110.351 142 111.038 141.392 111.869 141.076C113.222 140.648 114.541 141.68 115.606 142.381C117.474 143.611 120.013 144.831 122.033 143.184C122.278 142.988 121.958 142.563 121.703 142.752Z" fill="#191919"/>
<path d="M93.1966 93.439C89.9828 94.0778 86.6962 94.2698 83.4299 94.0094C80.2423 93.7384 75.2919 92.6755 74.3218 91.3156C75.1411 88.7053 75.7077 85.9955 76.5913 83.389C78.2759 78.4179 79.1534 77.1484 79.7805 75.1284C79.7979 75.0569 79.7891 74.9815 79.7559 74.9157C79.7227 74.85 79.6672 74.7982 79.5994 74.7697C79.5315 74.7411 79.4557 74.7377 79.3855 74.7599C79.3153 74.7821 79.2553 74.8286 79.2162 74.8911C75.8065 80.2013 74.2613 90.4994 72.4603 93.7338C71.1369 96.1164 69.6122 98.3814 67.9028 100.504C65.4732 103.213 62.5972 105.154 59.6691 107.242C56.8145 107.286 50.1382 108.397 41.3486 104.744C40.9045 104.197 37.667 102.735 36.8018 103.009C36.1785 103.209 32.9854 107.025 32.0275 108.566C31.683 109.118 29.6982 112.465 29.9126 113.138C29.9543 113.239 30.0265 113.324 30.119 113.382C30.2116 113.44 30.3199 113.467 30.4287 113.46C30.6179 113.46 33.8499 112.03 35.948 111.095C35.4828 110.556 35.1407 109.923 34.9457 109.239C34.9235 108.998 35.2129 108.883 35.3974 108.979C35.9636 109.468 36.4252 110.066 36.7543 110.737C36.7711 110.73 36.8209 110.706 37.4611 110.431C37.0667 109.88 36.3791 108.823 36.4962 108.432C36.5178 108.357 36.5628 108.291 36.6246 108.244C36.6864 108.197 36.7616 108.171 36.8393 108.171C37.4235 108.241 37.9932 109.448 38.2941 110.068C38.4473 110.001 38.5966 109.933 38.7452 109.865C38.5509 109.226 38.4133 108.571 38.334 107.908C38.3587 107.821 38.4165 107.747 38.4949 107.703C38.5734 107.658 38.6663 107.646 38.7536 107.669C39.2069 107.789 39.5392 108.769 39.6441 109.43C39.7986 109.355 39.9451 109.264 40.0813 109.159C42.153 110.902 44.4929 112.298 47.0103 113.294C59.8046 118.739 74.0239 115.187 82.335 106.684C82.6788 106.328 82.1642 105.828 81.799 106.148C71.5644 114.999 59.4868 116.938 48.4904 112.795C45.7015 111.648 43.0279 110.237 40.5055 108.584C40.9665 107.611 41.3755 106.614 41.7307 105.598C46.8173 107.865 55.0212 109.527 60.3038 107.772C60.4669 107.716 66.4962 103.628 68.7389 101.115C69.967 99.7429 71.0706 98.2641 72.0369 96.6963C72.9724 95.3439 73.7194 93.8704 74.2574 92.3164C77.6917 94.7744 84.4185 95.2468 88.6154 94.9574C90.1016 94.8532 92.0297 94.7782 93.3697 94.0554C93.4306 94.017 93.4775 93.96 93.5034 93.8928C93.5293 93.8256 93.5328 93.7519 93.5133 93.6825C93.4939 93.6132 93.4525 93.552 93.3954 93.5081C93.3384 93.4642 93.2686 93.44 93.1966 93.439Z" fill="#191919"/>
<path d="M134.689 133.128C134.443 132.91 134.122 132.796 133.793 132.813C131.265 132.825 128.758 133.265 126.377 134.114C108.894 113.386 96.9187 96.7016 95.2027 94.6296C95.0396 94.429 94.718 94.6863 94.8513 94.8991C96.9953 98.3755 104.828 108.786 106.6 111.115C112.553 118.933 119.081 127.076 125.436 134.482C125.265 134.559 121.644 137.117 121.441 137.364C120.449 136.198 119.356 135.122 118.174 134.148C114.506 130.765 85.4782 103.947 81.5355 100.827C81.3058 100.644 80.9934 100.931 81.204 101.159C84.0509 104.2 97.2548 116.35 116.939 134.415C118.255 135.624 119.549 137.085 121.1 138C120.814 139.19 122.299 141.599 124.255 141.551C125.117 141.529 134.699 134.321 134.805 134.018C134.866 133.873 134.888 133.714 134.867 133.557C134.847 133.401 134.785 133.253 134.689 133.128ZM128.531 136.219C128.514 136.274 128.484 136.323 128.443 136.363C128.401 136.403 128.35 136.431 128.295 136.446C128.239 136.461 128.181 136.461 128.125 136.447C128.07 136.433 128.019 136.405 127.977 136.366C127.695 135.768 127.513 135.128 127.437 134.471C127.417 134.39 127.43 134.304 127.473 134.231C127.516 134.159 127.585 134.106 127.666 134.084C127.747 134.061 127.833 134.071 127.907 134.112C127.981 134.152 128.036 134.219 128.061 134.299C128.323 134.909 128.482 135.557 128.534 136.219H128.531ZM129.818 135.632C129.807 135.672 129.786 135.709 129.758 135.74C129.73 135.771 129.696 135.795 129.657 135.811C129.619 135.827 129.577 135.834 129.536 135.832C129.494 135.829 129.454 135.818 129.417 135.797C129.186 135.586 129.007 135.324 128.894 135.031C128.781 134.739 128.738 134.425 128.766 134.113C128.748 133.675 129.379 133.633 129.493 134.014C129.754 134.511 129.867 135.073 129.821 135.632H129.818ZM131.24 135.127C131.227 135.175 131.203 135.22 131.17 135.258C131.137 135.295 131.096 135.325 131.049 135.344C131.003 135.364 130.953 135.372 130.903 135.369C130.853 135.366 130.804 135.352 130.76 135.327C130.35 134.971 130.082 134.479 130.005 133.941C129.973 133.845 129.977 133.74 130.019 133.647C130.061 133.555 130.136 133.481 130.23 133.442C130.323 133.402 130.428 133.4 130.524 133.434C130.619 133.469 130.698 133.539 130.744 133.63C131.088 134.051 131.265 134.584 131.243 135.127H131.24Z" fill="#191919"/>
<path d="M71.422 81.4869C65.247 77.1851 59.603 72.1674 54.6077 66.5386C53.567 65.3679 52.3258 64.0662 50.7599 64.1404C49.2454 64.2132 37.3515 77.4478 38.2719 79.1484C39.1923 80.8491 41.981 83.3759 42.8968 84.1631C45.877 86.7198 58.4998 97.645 59.666 98.145C60.1589 98.4103 60.7327 98.4832 61.2763 98.3497C61.82 98.2162 62.2947 97.8857 62.6086 97.4222C63.4662 96.3249 74.9466 83.941 71.422 81.4869ZM56.7624 75.1445C55.6238 74.2188 51.3725 69.332 50.7132 69.234C49.5562 69.0632 48.3395 71.0196 47.6787 71.8228C46.7507 72.9415 45.8188 74.074 44.9773 75.2609C44.7966 75.5143 44.3808 75.2831 44.5515 75.012C45.547 73.4393 46.5477 71.9009 47.691 70.4269C48.4 69.5012 49.2277 68.1796 50.5149 68.0953C51.8932 68.005 52.8511 69.4644 53.6543 70.3542C54.9898 71.7086 56.2222 73.1609 57.3413 74.6989C57.5939 75.0741 57.0618 75.3895 56.7624 75.1445Z" fill="#191919"/>
<path d="M96.5061 24.7643C96.7868 24.4919 97.001 24.1585 97.1321 23.7899C97.2631 23.4214 97.3074 23.0275 97.2616 22.6391C97.2157 22.2506 97.0809 21.8779 96.8677 21.55C96.6545 21.222 96.3685 20.9476 96.0321 20.7481C94.8613 20.023 93.6224 20.2182 92.3245 20.2741C91.3206 20.317 84.7378 20.4035 82.7691 21.4993C82.2423 21.839 81.8702 22.3724 81.7334 22.9842C81.5966 23.596 81.7059 24.2371 82.0379 24.7689C74.9465 25.5 68.0221 27.3845 61.5382 30.3479C53.995 33.9228 47.2898 39.047 41.8593 45.3865C29.856 59.0292 23.4661 76.4332 28.4226 94.2161C29.0703 96.55 29.9518 98.8127 31.0536 100.97C32.402 103.604 36.9434 101.774 35.8998 98.9275C32.7152 90.2466 31.3384 83.9433 32.9571 74.7968C35.0544 62.9566 41.8379 52.6891 50.5808 44.4324C58.6139 36.8457 68.8217 32.0424 80.7224 30.5248C91.3344 29.1717 102.066 30.7376 108.719 33.2522C121.997 38.2692 132.857 49.3207 137.433 58.4251C142.297 68.0915 143.388 75.7769 143.627 79.3919C143.757 81.336 143.828 88.3507 140.3 102.21C139.304 106.115 137.634 109.295 135.724 112.917C133.976 116.209 132.015 119.384 129.856 122.423C128.8 123.764 127.805 125.147 126.687 126.44C125.668 127.617 126.965 129.597 128.428 128.697C135.282 124.486 140.067 117.293 143.212 110.019C146.719 102.137 148.768 93.6853 149.261 85.0727C150.531 57.4695 129.573 28.3095 96.5061 24.7643Z" fill="#38A1FF"/>
<path d="M110.272 133.433C105.899 133.706 103.186 136.254 93.4374 137.117C75.5418 138.7 56.1609 132.383 43.0457 117.91C41.9542 116.857 41.0239 115.648 40.2845 114.324C39.7677 113.232 38.2523 114.048 38.4468 115.097C39.1099 118.637 41.1169 121.727 43.4462 124.412C51.3032 133.463 61.0362 138.464 72.7156 141.16C84.9372 143.98 96.8762 143.278 106.765 140.067C108.658 139.58 110.422 138.69 111.937 137.456C113.423 136.127 112.288 133.307 110.272 133.433Z" fill="#38A1FF"/>
<path d="M55.7001 48.1017C54.5094 47.1997 52.9566 45.9224 51.4037 45.9401C51.1321 45.9463 50.8653 46.0137 50.6233 46.1373C50.3814 46.2609 50.1704 46.4375 50.0061 46.6539C49.8419 46.8704 49.7285 47.1211 49.6746 47.3874C49.6207 47.6537 49.6275 47.9287 49.6946 48.192C49.9265 48.9931 50.3569 49.7226 50.9458 50.3131C52.471 52.117 54.1778 53.7592 56.0393 55.2136C56.5313 55.4965 57.1023 55.6104 57.6651 55.5379C58.228 55.4655 58.7515 55.2106 59.1558 54.8124C59.5634 54.4131 59.8246 53.8882 59.8976 53.3223C59.9705 52.7564 59.8508 52.1825 59.5578 51.6929C58.4426 50.3246 57.1446 49.1162 55.7001 48.1017Z" fill="#38A1FF"/>
<path d="M88.1859 45.0932C88.3183 45.414 88.5179 45.7027 88.7713 45.9399C89.0246 46.1771 89.3259 46.3572 89.6547 46.4681C89.9835 46.5791 90.3323 46.6182 90.6776 46.583C91.0228 46.5478 91.3565 46.439 91.6562 46.264C93.6164 45.0756 92.9349 41.3297 92.3369 39.1245C91.8775 37.4399 90.4525 32.9988 87.967 35.0915C87.0435 35.8694 87.1139 37.211 87.2012 38.3075C87.4968 42.2884 87.6515 43.9033 88.1859 45.0932Z" fill="#38A1FF"/>
<path d="M127.704 88.51C129.262 88.4013 136.798 88.5491 137.32 88.4457C139.086 88.0981 139.471 85.3009 137.835 84.5115C137.306 84.2565 128.939 84.3943 127.23 85.0015C126.818 85.1221 126.463 85.3859 126.228 85.7453C125.994 86.1047 125.895 86.5361 125.951 86.9618C126.005 87.3889 126.213 87.7816 126.535 88.0666C126.858 88.3515 127.274 88.5092 127.704 88.51Z" fill="#38A1FF"/>
<path d="M129.865 110.507C130.909 110.068 131.827 109.042 131.403 107.797C130.781 105.969 124.307 104.311 122.81 104.314C120.895 104.317 120.761 106.84 122.382 107.469C123.469 107.894 128.367 111.137 129.865 110.507Z" fill="#38A1FF"/>
<path d="M86.1066 127.266C86.0492 128.996 85.8363 131.28 86.7698 132.797C87.6335 134.201 90.1083 134.5 90.8862 132.797C91.7209 130.97 91.2752 128.922 90.995 126.996C90.7614 125.388 90.5455 123.544 89.6756 122.136C89.1014 121.206 87.4551 121.004 86.9344 122.136C86.323 123.775 86.0417 125.518 86.1066 127.266Z" fill="#38A1FF"/>
<path d="M61.4747 125.786C62.3829 124.93 66.9993 121.486 66.945 119.927C66.947 119.626 66.8691 119.33 66.7193 119.069C66.5694 118.808 66.3529 118.591 66.092 118.441C63.0666 117.125 60.2626 120.829 58.6025 122.915C58.232 123.298 58.0269 123.811 58.0313 124.344C58.0358 124.877 58.2495 125.387 58.6264 125.763C59.0033 126.14 59.5131 126.354 60.046 126.358C60.5788 126.362 61.092 126.156 61.4747 125.786Z" fill="#38A1FF"/>
<path d="M43.1741 88.0559C44.5524 87.4181 43.9498 85.552 42.7913 85.1202C40.6405 84.8583 38.47 84.7978 36.308 84.9395C35.8399 85.0687 35.4352 85.3647 35.1701 85.7715C34.9049 86.1784 34.7977 86.6681 34.8684 87.1485C34.9372 87.626 35.1735 88.0634 35.5351 88.3827C35.8968 88.702 36.3601 88.8822 36.8424 88.8913C38.9725 88.7892 41.0904 88.5097 43.1741 88.0559Z" fill="#38A1FF"/>
<path d="M80.335 17.7029C83.8488 19.9234 91.8398 18.3361 96.673 17.8759C99.9993 17.5589 100.489 13.0213 100.1 11.8505C99.7512 10.6215 98.9483 9.57109 97.8538 8.91245C96.611 8.25853 89.4906 8.91245 88.3888 8.97065C85.7532 9.11613 82.7049 8.81138 80.335 10.1016C77.3318 11.7303 77.6351 15.993 80.335 17.7029Z" fill="#38A1FF"/>
</svg>
