<svg width="155" height="156" viewBox="0 0 155 156" fill="none" xmlns="http://www.w3.org/2000/svg">
<path d="M105.802 77.5946C101.41 76.5215 102.027 99.5582 102.182 108.66C102.236 111.887 103.394 111.748 105.038 113.447C109.454 117.917 118.494 127.127 124.948 134.121C125.163 134.354 125.425 134.539 125.717 134.663C126.009 134.787 126.324 134.848 126.641 134.84C126.958 134.833 127.27 134.758 127.556 134.621C127.841 134.483 128.095 134.287 128.299 134.044C144.38 115.207 133.294 80.4665 105.802 77.5946Z" fill="#3D9CFB"/>
<path d="M40.9842 75.5102C24.8416 72.4222 19.2831 86.9205 22.1241 92.2319C19.2754 98.6319 20.4952 102.013 23.6681 103.557C23.3506 104.422 23.282 105.359 23.4704 106.261C23.6587 107.163 24.0963 107.994 24.7335 108.66C29.821 107.116 30.7088 106.692 33.7197 106.089C34.0554 104.894 34.0902 103.634 33.8208 102.421C33.5514 101.209 32.9862 100.082 32.1756 99.1414C32.801 98.3694 33.3954 93.5984 32.3301 90.4949C33.3954 90.4949 37.6337 89.7229 38.6219 86.6812C39.0234 86.7584 44.4737 87.8006 45.2303 84.0718C48.7481 85.0777 51.9417 86.9859 54.4944 89.6071C58.918 78.66 47.0059 70.994 40.9842 75.5102Z" fill="#3D9CFB"/>
<path d="M94.701 35.1425C96.9018 35.4111 99.1245 34.8616 100.947 33.5985C101.068 33.47 101.141 33.3038 101.155 33.1276C101.168 32.9515 101.121 32.7761 101.02 32.6307C100.92 32.4853 100.773 32.3786 100.604 32.3285C100.434 32.2785 100.253 32.288 100.09 32.3556C98.5611 33.358 96.7368 33.81 94.9172 33.6371C94.7356 33.6427 94.5618 33.7121 94.4264 33.8332C94.291 33.9542 94.2026 34.1192 94.1768 34.299C94.151 34.4788 94.1894 34.6619 94.2853 34.8162C94.3811 34.9705 94.5284 35.086 94.701 35.1425Z" fill="#001434"/>
<path d="M103.749 27.3677C108.636 28.271 113.013 20.991 106.775 19.6477C101.525 19.0918 97.5727 25.5304 103.749 27.3677ZM108.25 23.3533C106.198 22.974 104.078 23.2919 102.228 24.2565C101.309 21.1917 109.261 19.6785 108.273 23.3379L108.25 23.3533Z" fill="#001434"/>
<path d="M95.8977 30.4019C97.5961 30.1548 95.5734 28.2711 96.5771 27.4991C96.8117 27.1982 97.1242 26.9672 97.4808 26.8311C97.8373 26.6951 98.2242 26.6591 98.5997 26.7271C99.2173 26.812 98.9162 28.2711 99.8581 28.1399C101.402 27.7616 100.151 25.461 99.0861 25.2835C96.2914 24.2104 92.8251 28.6957 95.8977 30.4019Z" fill="#001434"/>
<path d="M136.466 30.2862C143.731 30.07 147.159 21.7941 138.782 21.1688C136.196 15.9114 124.886 21.2537 120.254 23.2609C120.463 18.3509 117.815 12.4528 113.376 8.59275C105.347 1.72188 98.4372 5.58192 91.1649 7.5737C78.1643 4.74815 71.2008 21.2614 75.3697 32.4709C71.0619 31.6063 62.0603 30.2862 59.5049 35.1421C55.3206 37.0181 57.3896 42.7927 61.0489 43.4952C62.346 43.7437 63.6725 43.801 64.9862 43.665C64.0675 44.8308 62.2069 46.2667 63.7355 48.1272C63.8222 48.2269 63.933 48.3027 64.0574 48.3473C64.1817 48.3919 64.3155 48.4039 64.4458 48.382C71.2857 47.1622 79.4845 50.4741 86.4248 52.5045C86.8538 53.6392 87.5287 54.6648 88.4011 55.5076C88.1001 59.0511 88.8721 65.2812 88.6096 68.6318C84.7495 71.2643 84.8113 73.7502 89.011 74.4836C83.9181 75.6909 79.1495 77.9941 75.0376 81.2326C70.9258 84.4712 67.5694 88.5673 65.2023 93.2356C61.8827 91.4986 60.3541 96.3237 58.5245 99.9058C58.6197 98.2682 58.482 96.6255 58.1153 95.0267C66.7541 81.6015 50.3952 66.3698 37.4795 73.0245C23.483 70.4691 10.9456 82.2886 14.7748 94.88C11.6868 98.9022 13.8716 106.537 18.6348 108.22C18.4207 108.98 18.365 109.776 18.4712 110.558C18.5774 111.34 18.8434 112.092 19.2524 112.767C15.099 118.55 16.1258 128.254 16.6817 137.008C14.605 139.448 7.68778 149.361 13.7712 151.275H59.7442C64.577 150.573 62.6161 145.91 57.8914 143.13C58.1848 132.261 53.1281 135.156 55.7916 124.965C58.3392 124.571 59.5203 123.977 61.9676 122.973C69.8498 153.684 106.597 159.057 127.071 142.042C154.531 119.214 138.049 77.5407 106.536 73.8428C111.006 71.0559 107.64 61.5524 109.16 57.7079C109.269 57.6538 109.932 57.4608 112.248 59.3291C116.271 62.9266 114.873 63.7836 117.707 67.1418C118.602 69.3574 145.252 60.5102 136.652 54.7897C127.48 52.821 132.969 48.0809 122.169 42.7078C122.183 42.329 122.17 41.9498 122.13 41.5729C126.871 38.3479 132.383 36.4379 138.103 36.0376C140.705 34.9182 139.647 32.4632 137.586 31.4056C137.192 31.0582 136.173 30.5486 136.466 30.2862ZM86.9729 25.4457C88.6853 24.0934 90.7643 23.2866 92.9405 23.1296C93.1386 23.1026 93.3185 22.9999 93.4423 22.8429C93.5662 22.686 93.6243 22.4871 93.6045 22.2882C93.4578 21.2691 92.1608 21.7323 91.5355 21.8095C93.1033 20.21 94.3645 18.3364 95.2566 16.2819C96.5844 16.6757 97.9972 17.5017 99.4177 18.0112C98.6678 18.4356 97.9458 18.9075 97.2561 19.424C97.1346 19.5537 97.0616 19.7213 97.0494 19.8986C97.0372 20.0759 97.0865 20.2519 97.189 20.397C97.2915 20.5422 97.4409 20.6475 97.6121 20.6953C97.7832 20.743 97.9656 20.7303 98.1284 20.6592C101.054 17.9418 103.038 19.2851 106.759 18.4436C111.862 19.0689 111.793 27.7077 111.175 30.6181C111.507 34.4782 91.0105 42.3912 87.9688 38.6316C83.028 31.7375 80.7428 29.352 86.9729 25.4457ZM64.6928 46.8071C64.631 46.4597 64.9012 46.0351 65.6346 45.2168C67.1092 44.0279 67.0551 41.7119 64.8626 42.1287C63.6197 42.2909 60.0299 42.4144 59.0957 40.1215C59.5821 39.2183 62.1838 38.9712 63.9594 38.8014C64.1489 38.7747 64.3218 38.6786 64.4445 38.5317C64.5672 38.3848 64.6309 38.1975 64.6233 38.0062C64.2373 36.4082 59.3428 38.068 58.6557 38.4849C58.841 36.1689 62.0217 36.0453 63.9285 35.8755C64.1264 35.8559 64.3092 35.7607 64.4386 35.6097C64.5681 35.4586 64.6342 35.2635 64.6233 35.0649C64.384 33.8065 62.6701 34.6017 61.8441 34.5862C65.349 32.2702 73.3084 33.2275 76.1108 34.2929C76.978 36.1645 78.1581 37.8746 79.6003 39.3495C79.4304 42.1287 78.6198 46.0274 77.5004 48.2122C73.1926 47.031 68.7458 46.2049 64.6928 46.8071ZM99.5412 74.8001C97.9972 94.4786 98.939 107.695 99.217 110.938C89.7037 111.495 80.166 111.495 70.6527 110.938C72.8761 103.936 74.0727 94.1543 66.3989 94.2315C73.4165 80.2968 86.7645 74.7229 99.5412 74.8001ZM17.3301 94.4708C18.3955 93.4364 16.728 92.5408 15.956 93.6139C13.3775 80.0497 27.9298 69.6817 42.7446 76.2438C42.9283 76.323 43.1356 76.3279 43.3228 76.2573C43.5101 76.1868 43.6626 76.0463 43.7482 75.8655C43.949 74.2288 41.0153 74.2057 39.9886 73.6266C50.704 69.8515 63.4653 82.0107 57.4668 93.0195C56.6821 91.0357 55.4301 89.2705 53.8173 87.8741C52.2045 86.4777 50.2784 85.4911 48.2027 84.9983C48.581 83.7013 48.7431 79.5325 46.6587 79.7873C46.4849 79.8837 46.355 80.0435 46.296 80.2333C46.2371 80.4231 46.2536 80.6284 46.3422 80.8063C48.4806 85.2762 44.5743 88.9896 39.5871 88.179C39.7647 87.0441 40.0426 83.8557 38.2515 84.0024C36.9546 84.7744 39.6026 87.4765 36.97 90.0627C33.9592 93.5753 30.215 90.7421 29.4815 92.1934C29.3271 93.6525 31.6818 93.39 32.6159 93.4981C32.8825 94.3682 32.9516 95.2869 32.8181 96.187C32.6845 97.0872 32.3517 97.9463 31.8439 98.7014C31.2494 98.3618 30.0837 97.6206 29.7131 98.6088C29.6507 98.7983 29.664 99.0047 29.7503 99.1846C29.8367 99.3645 29.9894 99.504 30.1764 99.5738C32.6854 100.4 33.7044 103.364 33.0482 105.75C26.8181 106.645 22.8037 108.66 20.2638 111.486C19.9093 110.592 19.8418 109.61 20.0708 108.676C20.1739 108.725 20.2868 108.752 20.4013 108.752C20.5157 108.753 20.6289 108.728 20.7326 108.679C20.8363 108.631 20.9279 108.56 21.0008 108.472C21.0737 108.384 21.126 108.28 21.1541 108.169C21.1821 108.058 21.1851 107.942 21.1629 107.83C21.1406 107.718 21.0937 107.612 21.0255 107.52C20.9573 107.428 20.8695 107.353 20.7684 107.299C20.6674 107.245 20.5557 107.214 20.4413 107.209C14.52 106.097 12.9992 97.335 17.3301 94.4708ZM33.0173 99.6587C33.6622 98.7528 34.099 97.7156 34.2965 96.6213C34.494 95.5269 34.4474 94.4025 34.1599 93.3283C35.1979 93.1115 36.1772 92.6744 37.0318 92.0467C36.3447 92.7493 37.4795 93.8146 38.1357 93.0735C38.6278 92.5387 39.2694 92.1643 39.9771 91.9991C40.6848 91.8339 41.4259 91.8855 42.1039 92.1471C42.2943 92.2038 42.4993 92.1849 42.6762 92.0943C42.8531 92.0037 42.9882 91.8484 43.0534 91.6607C42.9454 89.5454 38.846 90.4796 37.8501 91.3365C38.3658 90.8455 38.7917 90.2681 39.1085 89.6304C40.9468 89.9327 42.8326 89.7327 44.5666 89.0514C44.5103 89.1503 44.4766 89.2604 44.4679 89.3738C44.4592 89.4872 44.4756 89.6012 44.5161 89.7075C44.5565 89.8139 44.62 89.91 44.7019 89.9889C44.7838 90.0679 44.8822 90.1277 44.99 90.1642C45.0977 90.2007 45.2122 90.213 45.3253 90.2001C45.4383 90.1871 45.5471 90.1494 45.6438 90.0895C45.7406 90.0297 45.8229 89.9492 45.8849 89.8538C45.9469 89.7584 45.9871 89.6504 46.0025 89.5377C46.5197 87.6231 46.9675 87.5305 47.6237 86.3879C48.9896 86.7349 50.2923 87.2951 51.4838 88.0477C48.141 86.8975 45.4775 90.688 47.1837 93.7529C46.4117 93.8532 44.6901 94.687 45.493 95.6829C45.6369 95.822 45.8293 95.8998 46.0295 95.8998C46.2297 95.8998 46.4221 95.822 46.5661 95.6829C47.9866 94.1389 50.4261 96.7637 48.0329 98.1456C47.863 98.2498 47.7401 98.4157 47.6897 98.6085C47.6394 98.8013 47.6655 99.0061 47.7627 99.1801C49.106 100.469 50.8507 97.582 50.5419 96.4549C51.2321 96.6506 51.9645 96.6395 52.6485 96.423C53.3325 96.2065 53.9379 95.7942 54.3899 95.2371C54.8418 94.6799 55.1204 94.0025 55.1912 93.2886C55.2619 92.5747 55.1217 91.8557 54.7879 91.2207C57.2506 94.826 57.6212 99.7128 56.1081 104.275C50.7735 111.077 41.3627 105.41 34.5845 105.595C34.7926 104.552 34.7596 103.475 34.488 102.446C34.2164 101.417 33.7134 100.464 33.0173 99.6587ZM53.2131 94.3628C52.2789 95.4127 50.3026 95.5594 48.9052 93.5908C48.666 93.3417 48.4803 93.0463 48.3594 92.7228C48.2386 92.3992 48.1852 92.0544 48.2026 91.7095C48.2199 91.3646 48.3077 91.0269 48.4604 90.7171C48.6131 90.4073 48.8275 90.1321 49.0905 89.9083C50.2744 91.5585 51.6593 93.0549 53.2131 94.3628ZM33.7199 107.194C36.4065 106.877 39.9808 107.966 42.984 108.491C40.6679 112.474 41.5094 120.657 44.8059 124.178C41.2876 124.158 37.7822 123.752 34.3529 122.966C28.6015 125.56 50.4338 126.262 54.1703 125.143C53.5696 126.992 53.3311 128.939 53.4678 130.879C37.6339 133.967 22.0703 131.01 17.6698 124.108C18.0558 115.269 21.0281 108.861 33.7199 107.194ZM35.5418 149.291C35.5031 149.454 35.5031 149.623 35.5418 149.785H13.9256C11.9338 148.766 13.1536 146.373 13.9874 144.173C19.2988 147.099 28.2695 148.033 35.9201 147.739C35.8459 148.268 35.7192 148.788 35.5418 149.291ZM60.9408 149.152C60.8019 149.677 60.2229 149.785 59.752 149.785C59.3891 149.608 37.2325 150.133 37.0318 149.6C37.2209 148.976 37.3451 148.335 37.4023 147.685C45.1224 147.322 52.5723 145.995 57.0576 144.42C60.2769 146.311 61.157 148.311 60.9408 149.175V149.152ZM56.3783 143.053C51.669 144.682 44.582 145.856 37.356 146.141C36.584 140.166 27.7214 139.294 26.0461 134.152C25.9855 133.963 25.8547 133.805 25.6808 133.711C25.507 133.616 25.3033 133.591 25.112 133.643C24.9203 133.702 24.7591 133.833 24.6626 134.009C24.5661 134.184 24.5417 134.391 24.5947 134.584C26.0693 139.988 34.7158 140.992 35.8274 146.164C27.675 146.365 19.5535 145.431 14.605 142.76C15.4887 140.973 16.6163 139.318 17.9555 137.842C18.5268 134.291 17.4228 129.945 17.6467 126.463C23.9617 133.735 42.3509 134.893 53.8229 132.307C55.1508 135.812 56.2316 136.545 56.3783 143.053ZM55.3284 123.483C52.7192 123.866 50.0899 124.098 47.4539 124.178C42.9994 122.695 42.0498 111.378 44.6515 108.738C48.9747 109.263 54.7571 109.61 57.4668 105.001C59.3968 103.133 62.2301 92.1162 64.9012 94.9649C63.9471 95.9381 63.3209 97.1851 63.1102 98.5316C63.1274 98.7068 63.2039 98.8708 63.3271 98.9965C63.4503 99.1223 63.6128 99.2021 63.7876 99.2228C63.9624 99.2435 64.139 99.2039 64.2882 99.1105C64.4374 99.0171 64.5502 98.8755 64.6079 98.7092C64.6079 97.2964 66.5919 94.2006 69.0855 96.3931C67.9713 97.3141 67.0837 98.479 66.4916 99.7977C66.4494 99.9724 66.4695 100.156 66.5484 100.318C66.6273 100.479 66.76 100.608 66.9237 100.682C67.0875 100.756 67.2719 100.771 67.4453 100.724C67.6186 100.676 67.7701 100.57 67.8735 100.423C68.3549 99.3456 69.0695 98.3885 69.9656 97.6206C73.6867 104.893 66.6923 122.309 55.3284 123.483ZM105.138 149.515C88.4398 151.553 68.2981 143.818 63.2646 122.062C65.982 119.978 68.5992 116.172 70.0891 112.412C78.9595 112.984 94.6544 112.93 99.7265 112.412L125.519 141.502C120.355 145.562 113.607 148.48 105.138 149.515ZM109.724 76.0662C143.275 84.9288 146.981 121.437 126.708 140.537L100.769 111.347C100.583 109.44 99.4331 95.8527 101.054 74.8696C103.977 74.979 106.881 75.3799 109.724 76.0662ZM98.0744 73.2947C94.0908 73.4568 82.8581 74.2983 89.3816 69.9596C93.9442 72.1521 101.224 71.1871 106.829 71.0559C106.505 73.866 101.201 73.1634 98.0744 73.2947ZM132.568 55.1602C147.051 57.5689 119.76 67.08 118.672 65.9683C118.323 65.566 118.013 65.1318 117.745 64.6714C125.365 63.0579 130.669 59.6224 132.568 55.1602ZM131.255 54.3882C129.619 58.5725 124.508 61.7995 117.081 63.3203C117.035 61.7763 110.789 54.7665 108.427 56.4263C105.717 58.2637 108.273 66.1305 107.261 69.5504C101.232 69.8129 93.3652 70.4074 90.115 68.6704C90.3466 65.4743 89.7136 60.0007 89.8602 56.5653C95.8279 60.1706 121.343 50.8061 121.929 44.3521C129.595 48.4901 128.082 51.5704 131.255 54.3573V54.3882ZM121.891 39.9671C121.582 38.7705 120.663 33.2738 118.618 33.7911C118.455 33.9064 118.343 34.08 118.306 34.2757C118.269 34.4713 118.308 34.6739 118.417 34.841C119.99 37.3261 120.769 40.232 120.648 43.171C121.798 48.9379 93.9364 59.0048 90.0764 54.8977C86.0928 52.4273 87.7604 45.8189 86.0002 45.6954C84.3713 46.2049 85.8767 49.7176 85.8767 50.7366C83.607 50.0495 81.3064 49.293 78.9749 48.6136C80.0888 45.9738 80.7843 43.1764 81.0362 40.3223C82.9122 40.9785 85.4521 40.5384 87.2123 39.9826C93.9519 43.7036 110.496 36.4699 112.534 31.4364C116.51 31.1817 119.297 28.7576 119.992 25.0983C120.501 24.7972 121.142 24.4652 121.875 24.1178C122.196 28.8875 123.491 33.5408 125.681 37.7901C124.531 38.3845 123.273 39.0948 121.891 39.9671ZM136.706 32.6022C137.478 33.2661 138.86 33.8142 137.709 34.5631C133.965 35.0726 130.946 35.3968 127.056 37.1261C124.862 32.8791 123.601 28.2123 123.358 23.4384C128.19 21.5702 134.722 19.1384 137.161 21.2151C136.196 21.439 134.536 21.0607 134.575 22.3422C134.609 22.5206 134.706 22.6812 134.847 22.7955C134.988 22.9099 135.165 22.9708 135.347 22.9675C137.13 22.5815 141.654 22.265 142.063 24.2259C139.855 23.7087 137.678 23.4539 136.96 24.5347C136.926 24.6614 136.925 24.7947 136.957 24.922C136.989 25.0492 137.053 25.1663 137.142 25.2621C137.232 25.3579 137.344 25.4293 137.469 25.4695C137.594 25.5097 137.727 25.5175 137.856 25.492C139.197 25.2211 140.587 25.3171 141.878 25.7699C141.191 27.1981 139.261 28.6649 136.173 28.7885C133.926 29.5682 134.945 31.6835 136.706 32.6022Z" fill="#001434"/>
<path d="M40.4982 102.291C46.1802 102.469 46.8055 94.2008 41.2239 93.2049C34.8626 92.4174 34.2681 102.176 40.4982 102.291ZM37.9892 96.0767C38.299 95.644 38.6962 95.2811 39.155 95.0114C40.1242 96.8017 41.3963 98.4107 42.9146 99.7669C42.6609 100.014 42.3722 100.222 42.0577 100.385C39.2399 102.083 36.3526 98.3001 37.9892 96.0767Z" fill="#001434"/>
<path d="M93.5193 30.9346C94.106 29.1822 93.2105 26.21 90.6706 26.3026C87.6907 25.9938 82.5028 29.1204 85.2666 32.579C86.9727 35.2502 92.8708 33.2584 93.5193 30.9346ZM86.386 29.5142C87.93 27.6845 92.3613 26.7195 92.1915 29.7303C90.6475 29.1436 87.4127 29.2517 86.0926 30.2707C86.1465 30.0036 86.2457 29.7477 86.386 29.5142Z" fill="#001434"/>
<path d="M44.2189 102.137C43.1844 104.105 51.6996 104.839 51.0357 102.075C50.9289 101.906 50.7605 101.784 50.5661 101.737C50.3717 101.689 50.1664 101.719 49.9935 101.82C46.9209 103.627 45.292 100.809 44.2189 102.137Z" fill="#001434"/>
</svg>
