<svg width="156" height="156" viewBox="0 0 156 156" fill="none" xmlns="http://www.w3.org/2000/svg">
<path d="M83.4118 82.9516C85.2723 78.6283 90.6377 64.6241 82.8173 62.5397C77.3052 61.1423 75.3674 68.0904 75.3674 68.0904C75.3674 68.0904 65.4626 63.1727 63.2238 70.3292C60.1357 80.0874 76.4097 83.2912 81.3968 84.1096C81.8143 84.1739 82.2411 84.0943 82.6073 83.8839C82.9735 83.6734 83.2572 83.3446 83.4118 82.9516Z" fill="#3D9CFB"/>
<path d="M116.786 20.0023C115.52 21.2684 117.604 23.3606 118.793 21.9401C120.136 20.674 117.828 18.6822 116.786 20.0023Z" fill="#3D9CFB"/>
<path d="M12.8655 17.547C14.5021 17.4698 14.2782 14.899 12.7188 15.0148C11.1593 15.1306 11.2983 17.7708 12.8655 17.547Z" fill="#3D9CFB"/>
<path d="M125.725 17.6241C125.593 17.6823 125.48 17.7788 125.403 17.9012C125.325 18.0236 125.286 18.1663 125.29 18.3112C125.293 18.4072 125.315 18.5017 125.355 18.5891C126.412 21.0749 123.865 24.3251 121.032 23.5068C120.067 23.2829 119.765 24.7729 120.661 24.9195C127.215 26.4867 128.628 17.1763 125.725 17.6241Z" fill="#3D9CFB"/>
<path d="M52.6472 11.5101C46.4711 10.0973 44.3018 17.6861 44.3018 17.6861C27.7654 9.19403 19.7211 32.0686 51.2498 36.4613C51.6819 36.5368 52.1269 36.4682 52.5161 36.2659C52.9053 36.0636 53.2172 35.7389 53.4037 35.3419C55.6966 30.432 62.7759 13.7489 52.6472 11.5101Z" fill="#3D9CFB"/>
<path d="M114.848 13.7485C111.351 17.2457 111.351 23.9544 115.218 27.0038C121.626 32.8171 131.832 27.3049 131.315 19.0367C130.936 11.2163 119.912 8.01246 114.848 13.7485ZM127.378 25.4444C120.298 32.8171 108.51 22.5262 115.906 14.7907C123.031 7.33309 135.036 17.4695 127.378 25.4444Z" fill="#3D9CFB"/>
<path d="M29.1782 79.2305C25.681 79.1533 25.6038 82.8048 25.6038 82.8048C16.1467 81.5388 16.3397 93.7519 32.3125 91.4436C32.3125 91.4436 34.9914 79.2999 29.1782 79.2305Z" fill="#3D9CFB"/>
<path d="M20.6859 25.0663C27.0164 16.3657 14.4327 6.81602 7.27615 14.7137C0.351244 23.4296 13.6143 33.7128 20.6859 25.0663ZM9.87781 25.514C2.38934 20.11 10.1789 9.50261 17.9221 14.4898C25.3797 20.1563 17.0806 30.7328 9.88553 25.514H9.87781Z" fill="#3D9CFB"/>
<path d="M18.455 19.338C17.3356 18.2881 15.6218 20.4497 17.0345 21.3452C18.3006 22.4647 19.7906 20.2258 18.455 19.338Z" fill="#3D9CFB"/>
<path d="M98.9832 112.527L104.217 121.359C104.217 121.359 105.931 111.075 111.521 108.319C117.11 105.563 120.684 109.091 120.684 109.091C123.103 104.779 124.455 99.9511 124.629 95.01C124.93 87.6373 115.689 73.7103 113.605 69.4565L101.014 77.1766C107.699 88.0928 115.89 102.468 98.9832 112.527Z" fill="#3D9CFB"/>
<path d="M25.5269 62.8407C40.195 66.7857 45.3443 43.9883 30.4446 40.7922C13.9854 37.434 11.5767 59.9303 25.5269 62.8407Z" fill="#3D9CFB"/>
<path d="M122.151 17.1381C123.934 16.9142 123.564 14.2353 121.773 14.3048C120.066 14.5673 120.283 17.3233 122.151 17.1381Z" fill="#3D9CFB"/>
<path d="M15.2514 23.0596C14.7186 23.2836 14.1355 23.3607 13.5628 23.283C12.9901 23.2054 12.4487 22.9757 11.9948 22.618C11.5409 22.2602 11.1911 21.7874 10.9818 21.2487C10.7725 20.71 10.7113 20.1251 10.8046 19.5547C10.7927 19.3942 10.731 19.2415 10.6281 19.1178C10.5252 18.9941 10.3862 18.9057 10.2306 18.8649C10.0749 18.824 9.91041 18.8329 9.76003 18.8901C9.60965 18.9474 9.48092 19.0502 9.39182 19.1841C8.43453 21.6083 11.7696 26.4873 15.9462 24.4029C16.7413 24.0864 16.1469 22.6891 15.2514 23.0596Z" fill="#3D9CFB"/>
<path d="M50.6329 49.1296C40.8516 54.2094 44.6267 61.1112 52.8717 81.1602C47.8074 83.3218 41.917 85.854 42.9592 90.625C44.2253 96.361 53.5434 112.241 60.2444 121.984C63.4482 126.763 68.5126 129.959 74.8817 131.395C83.8987 150.764 87.3959 152.03 95.2241 151.359C100.96 150.842 114.37 145.399 122.113 141.153C155.935 122.679 155.95 122.818 142.749 94.2998C140.549 89.5519 128.853 64.7241 126.66 59.8837C129.486 59.8065 129.934 59.8065 130.235 59.212C130.875 58.1389 127.695 58.44 125.093 58.44C125.17 55.7611 125.464 47.0452 125.093 43.1002C127.996 43.023 129.038 43.1697 129.262 42.5753C129.563 41.7569 128.374 41.7569 124.869 41.6102C123.464 35.8434 117.651 36.5999 116.601 40.9386C112.579 31.9988 108.109 24.4717 95.1469 28.8721C87.8823 31.1032 56.2223 46.2269 50.6329 49.1296ZM50.7101 84.2173C52.9412 82.9512 58.6772 80.6429 59.5033 81.9013C60.4683 82.4263 63.4482 87.4906 66.0576 91.8062C60.6922 94.9405 58.16 97.0249 49.5907 101.07C42.882 88.224 43.3452 87.8535 50.7101 84.2173ZM91.0938 39.742C103.384 34.6081 104.133 31.6977 110.834 45.1074C108.302 50.1718 110.386 58.7411 117.535 59.4127C122.53 71.2553 136.758 100.908 141.151 113.453C143.683 120.679 136.009 123.281 129.833 127.01C128.86 124.771 124.02 113.376 122.754 110.991C133.253 95.643 124.537 81.0444 117.095 67.6346C114.555 63.983 111.637 56.2321 107.777 55.4215C105.831 55.0123 100.829 57.3592 96.9688 59.8142C88.994 64.7242 87.8051 64.3073 101.292 85.5915C93.6183 84.3949 76.6341 92.9642 74.2718 101.533C70.9213 97.0635 62.9464 81.4149 60.1209 80.0794C49.0889 55.2671 51.8141 57.2357 61.1631 52.8893C62.877 52.0709 63.3016 52.7503 63.9964 53.8543C65.2239 55.8152 67.0458 56.4637 69.578 55.8692C72.9285 55.0972 85.2266 49.091 88.4999 47.2227C93.9194 44.0652 89.0712 40.568 91.0938 39.742ZM90.2755 131.449C93.9271 130.63 97.9492 129.588 101.153 127.797C102.193 127.2 103.081 126.373 103.751 125.378C104.42 124.384 104.852 123.249 105.013 122.061C106.133 114.534 108.811 110.141 113.135 108.651C114.554 108.12 116.116 108.105 117.546 108.609C118.975 109.113 120.182 110.103 120.955 111.407C123.271 115.8 126.019 122.988 128.405 127.944C123.773 130.553 109.931 138.598 95.2086 142.766C94.1819 140.458 90.8622 133.085 90.2678 131.449H90.2755ZM93.1782 142.921C87.5889 142.99 85.6589 135.618 83.4201 132.113C85.0915 132.095 86.7599 131.968 88.415 131.734C89.82 135.548 91.6033 138.968 93.1705 142.921H93.1782ZM87.8128 107.756C88.2606 109.47 89.7505 111.855 91.3177 114.163C85.3578 115.136 79.0968 112.674 76.418 106.714C72.1565 94.5931 99.4855 84.3949 103.16 88.3862C108.726 94.4387 109.12 101.95 103.932 107.686C101.4 103.888 99.7557 100.383 98.343 100.684C97.818 100.754 97.7485 101.503 98.0419 101.95C98.0419 102.02 100.875 106.42 102.589 109.022C99.9629 111.399 96.7746 113.067 93.3249 113.87C91.6883 111.485 89.681 107.756 88.9322 106.49C88.1062 105.077 87.4345 106.343 87.8051 107.756H87.8128ZM104.573 87.0506C103.083 84.7346 101.485 82.2796 99.4392 79.0063C107.592 74.9841 109.63 72.6218 115.898 69.2481C122.677 81.5385 130.945 95.1721 121.634 109.246C114.555 102.298 105.422 108.952 103.755 118.857C102.713 117.066 101.223 114.611 100.258 112.897C110.155 107.084 112.617 95.6122 104.565 87.0506H104.573ZM99.2771 60.6016C104.496 57.3978 106.727 57.1044 107.622 57.1739C110.379 58.2933 112.841 64.5543 114.995 67.6037C107.623 71.7031 106.951 73.1931 98.4588 77.4391C95.4788 72.4442 92.6533 67.403 92.9466 65.859C92.5761 64.6238 96.3744 62.3155 99.2771 60.6016ZM74.3258 106.49L65.1621 94.5005C65.8337 94.0527 66.5054 93.6821 67.0226 93.3811C69.1348 97.133 71.454 100.765 73.9707 104.259C73.9792 105.015 74.0989 105.767 74.3258 106.49ZM61.8811 120.872C58.021 115.136 53.8367 108.52 50.5634 102.691C51.3354 102.321 51.9762 102.02 52.6479 101.649C54.8095 104.93 61.9583 116.402 64.4132 119.676C70.5893 127.944 86.3923 129.959 97.4166 127.396C86.7629 132.344 69.1071 131.595 61.8811 120.872ZM146.586 107.385C150.978 118.41 147.474 122.733 145.543 124.447C136.38 132.491 104.272 148.726 95.0311 149.475C90.4917 149.776 85.4273 150.517 77.0819 131.719C78.4839 131.962 79.9044 132.089 81.3279 132.097C84.8251 138.574 87.6584 147.885 98.6055 143.716C115.296 137.308 123.711 132.614 129.972 129.117C136.233 125.62 146.285 121.22 143.011 112.797C137.607 98.9472 125.726 73.6177 119.766 59.6829C121.376 59.825 122.993 59.8508 124.607 59.7601C127.139 67.2332 140.178 91.6672 146.586 107.385ZM118.021 41.3864C118.546 39.6725 119.434 38.777 121.001 38.9237C125.549 39.3714 123.163 56.1317 123.534 58.44C118.13 58.44 113.497 58.2933 111.915 53.4528C114.076 53.3062 115.265 53.53 115.489 52.8584C115.798 51.8779 114.926 51.8779 111.567 51.8779C111.341 50.7005 111.291 49.4957 111.421 48.3036C112.764 48.3808 113.737 48.1569 115.072 48.2264C115.171 48.2485 115.274 48.248 115.373 48.2248C115.471 48.2016 115.564 48.1564 115.642 48.0925C115.721 48.0286 115.784 47.9478 115.827 47.856C115.87 47.7642 115.892 47.6638 115.891 47.5624C115.813 46.5202 113.575 46.7904 111.791 46.7904C112.988 42.6525 117.342 44.0652 118.052 41.3864H118.021ZM115.119 41.8341C114.005 42.1548 113 42.7711 112.208 43.6175C105.762 30.2617 103.299 32.076 90.4145 38.252C85.9445 40.4136 92.3522 43.1697 87.8051 45.7019C84.3079 47.7168 72.3649 53.422 69.4081 54.194C67.3237 54.6417 66.5054 54.0473 65.7565 52.9279C65.0077 51.8085 63.8188 49.8398 60.6922 51.214C55.8517 53.3756 49.0735 54.4179 51.8295 63.5121C52.9412 67.2332 56.5928 76.0958 58.0828 79.6702C56.9677 79.8126 55.8706 80.0713 54.8095 80.4422C45.5454 58.7565 44.1944 54.5105 51.6057 50.7199C57.0097 47.9639 88.8473 32.6936 95.8494 30.5319C109.784 26.1161 111.351 35.0482 115.15 41.8419L115.119 41.8341Z" fill="#001434"/>
<path d="M31.487 121.097C31.9347 128.168 35.4397 130.361 44.0089 130.029C48.4017 129.882 49.413 130.253 50.1155 129.257C50.6405 128.207 49.1737 128.485 45.7151 128.485C46.3867 125.289 46.3867 118.804 45.5684 114.033C48.4017 113.963 49.4284 114.033 49.5906 113.438C49.9611 112.396 48.255 112.62 45.275 112.55C44.4104 106.93 37.9641 107.146 37.6708 112.103C37.6708 114.017 30.8771 112.581 31.487 121.097ZM39.0141 112.821C39.1607 110.505 40.0563 109.941 41.029 109.918C46.0239 109.81 44.6729 126.902 44.2251 128.539C39.3846 128.539 35.2158 128.469 33.6486 124.37C35.5091 124.293 36.6285 124.517 36.8524 123.775C37.0763 123.034 35.8102 123.104 33.2008 122.88C32.9481 121.657 32.8727 120.403 32.977 119.159C33.9497 119.159 34.8452 119.228 35.6635 119.159C36.4819 119.089 36.7752 117.985 35.8102 117.893C34.6136 117.769 34.3974 117.815 33.278 117.738C34.243 114.311 38.8674 115.43 39.0141 112.821Z" fill="#001434"/>
<path d="M78.4249 23.9546C84.0065 29.984 91.2325 24.1785 96.7446 20.1563C97.7173 19.3843 97.1229 17.9947 96.5979 18.4425C95.6329 19.1141 94.7374 19.8552 93.6952 20.6041C92.5758 18.3653 89.2947 12.0348 87.1331 8.6843C88.7775 7.56489 89.5186 7.4182 89.3719 6.66936C89.2253 5.92051 88.847 5.89735 86.2839 7.44137C83.1573 2.2226 76.6801 5.50363 78.834 10.8614C73.5767 13.3781 74.6189 20.3802 78.4249 23.9546ZM80.8027 16.2808C80.5788 15.3081 78.9421 16.2036 76.7805 17.4003C75.7151 12.4363 81.2813 13.0461 80.2082 10.0971C79.6138 8.46041 79.9843 6.15211 82.2926 6.29879C86.0214 6.52268 90.8619 19.1836 92.4986 21.5691C88.1058 24.4718 84.0837 26.8573 80.3549 23.8002C81.9993 22.758 83.111 22.1635 83.0415 21.6463C83.0415 20.2412 82.1073 21.3761 79.1814 22.758C78.1826 21.6482 77.4441 20.3295 77.0198 18.898C80.0615 17.1378 80.9571 17.022 80.8027 16.2808Z" fill="#001434"/>
<path d="M48.695 33.7129C49.961 33.7824 50.8566 32.5935 49.3666 32.2229C47.8766 31.8524 45.4216 31.0263 45.275 31.999C45.1283 32.9718 47.6373 33.5508 48.695 33.7129Z" fill="#001434"/>
<path d="M33.4249 48.7911C31.4176 50.3351 33.8031 52.8133 35.5865 51.4005C37.3698 49.9877 35.1387 47.4169 33.4249 48.7911Z" fill="#001434"/>
<path d="M73.9547 49.0607C77.4519 47.5707 78.1235 46.3046 77.6758 45.4091C77.1508 44.2897 75.9619 43.9191 71.7931 45.8568C67.9948 47.6402 67.6937 48.6129 68.0643 49.5084C68.4348 50.4039 69.5543 50.844 73.9547 49.0607Z" fill="#001434"/>
<path d="M84.7554 44.9301C87.8434 43.8107 86.0214 38.6692 82.6709 40.4602C79.3204 42.2513 81.6982 46.0804 84.7554 44.9301Z" fill="#001434"/>
<path d="M22.9946 49.9486C25.1562 50.3964 25.8278 47.0459 23.7666 46.6753C23.493 46.5984 23.2044 46.5921 22.9277 46.657C22.651 46.7218 22.3952 46.8558 22.1843 47.0463C21.9735 47.2369 21.8143 47.4777 21.7218 47.7464C21.6292 48.0152 21.6063 48.3029 21.6551 48.5829C21.7134 48.9196 21.8727 49.2306 22.112 49.4746C22.3512 49.7185 22.6591 49.8838 22.9946 49.9486Z" fill="#001434"/>
<path d="M32.6839 25.7386C33.2011 26.0397 34.0966 25.5148 33.5794 24.8508C32.6066 23.5847 30.8233 21.3459 32.2361 17.841C34.6911 11.5105 40.5043 13.8188 45.1209 15.3088C47.1976 16.0036 47.2902 8.06739 53.7674 9.42612C64.5755 11.5877 53.2887 33.258 53.0957 34.609C53.0957 35.2034 53.7674 35.4273 54.5857 34.3079C55.2573 33.3429 66.1658 10.4683 54.0607 8.01335C49.3669 7.04062 46.4642 10.6227 45.2753 13.4174C45.2551 13.4754 45.2224 13.5281 45.1794 13.572C45.1365 13.6158 45.0844 13.6496 45.0269 13.671C44.9694 13.6924 44.9078 13.7008 44.8467 13.6957C44.7855 13.6905 44.7263 13.672 44.6731 13.6413C30.584 7.4575 27.5114 22.8899 32.6839 25.7386Z" fill="#001434"/>
<path d="M84.2302 58.5176C79.907 57.4754 77.2821 60.8336 76.2631 63.5125C68.3269 59.6524 60.352 65.4193 65.0844 73.2706C69.1066 80.0489 84.0063 82.1333 84.8247 80.79C85.3496 79.9716 93.9189 60.8259 84.2302 58.5176ZM84.153 77.5861C83.713 78.6284 83.7825 79.2305 81.6208 79.0066C77.3748 78.6284 68.6588 76.5439 66.5744 71.9273C64.3433 67.0869 67.3464 65.1491 69.3305 64.4003C72.7582 63.2114 75.8848 65.8208 77.2281 65.5197C78.4247 65.2958 78.7181 58.9653 83.7824 60.2314C90.1129 62.0225 86.0213 72.9695 84.1453 77.5861H84.153Z" fill="#001434"/>
<path d="M40.9131 31.4739C42.3336 31.8522 42.7041 30.4317 41.7314 30.2078C40.2077 29.6536 38.7762 28.8728 37.4854 27.8918C37.192 27.6679 36.5975 27.6679 36.4431 28.0385C35.8101 29.32 39.6084 31.1805 40.9131 31.4739Z" fill="#001434"/>
<path d="M34.0266 56.2865C34.4512 55.5994 33.2006 54.866 32.5289 55.7615C29.9273 59.3359 23.4424 58.0004 22.2535 53.3066C21.9524 52.0405 20.7095 53.0055 20.9102 53.9705C22.1068 59.4826 30.8769 61.3432 34.0266 56.2865Z" fill="#001434"/>
</svg>
