<svg width="155" height="156" viewBox="0 0 155 156" fill="none" xmlns="http://www.w3.org/2000/svg">
<path d="M7.1576 132.258C10.8578 136.853 18.2977 142.57 21.4397 142.081C23.8538 141.164 32.9635 124.728 25.2758 122.178C21.7246 121.088 19.0095 124.616 17.836 126.519C16.1291 124.984 12.3679 121.975 9.14088 122.163C4.63004 123.073 3.08757 126.609 7.1576 132.258ZM18.9384 128.466C18.9616 128.414 21.6466 123.058 24.7231 124.006C29.9511 126.827 21.7717 139.617 20.7665 140.295C19.6958 141.014 -0.370247 127.409 9.43038 124.062C12.9646 123.502 17.8167 130.655 18.9384 128.466Z" fill="#3D9CFB"/>
<path d="M11.3921 98.5211C12.4382 97.9868 17.0116 90.4196 13.5059 88.9304C11.0239 87.8774 10.001 91.082 10.001 91.082C10.001 91.082 6.32237 87.6219 4.51973 90.0359C1.72275 93.7524 10.3468 99.0553 11.3921 98.5211Z" fill="#3D9CFB"/>
<path d="M90.4053 108.781C87.9937 106.739 86.0906 104.164 84.8469 101.259C69.8182 95.3146 66.3503 122.343 82.8535 118.349C88.72 116.581 90.8129 112.557 90.4053 108.781Z" fill="#3D9CFB"/>
<path d="M138.291 48.3634C140.144 48.3703 145.273 37.8394 142.286 36.283C139.902 35.0339 137.525 40.0512 137.525 40.0512C137.525 40.0512 135.223 37.5615 133.658 39.073C131.123 41.5257 136.449 48.3634 138.291 48.3634Z" fill="#3D9CFB"/>
<path d="M58.5563 95.0385C56.1716 95.9263 53.9976 96.3771 52.7338 95.8877C51.0864 95.2631 50.891 94.6525 50.319 91.8331C50.116 90.8295 48.2585 90.374 48.4237 91.901C48.5889 93.4281 49.6875 98.4978 52.8844 98.4901C54.7479 98.3499 56.5755 97.9026 58.2931 97.1661C60.0231 96.3926 59.3461 94.7528 58.5563 95.0385Z" fill="#3D9CFB"/>
<path d="M118.726 30.4603C121.976 29.8133 131.761 14.9893 125.33 11.0829C122.05 9.09035 118.207 12.1436 116.852 14.6179C115.115 12.3992 110.908 10.199 108.135 12.8199C102.878 17.7963 113.882 30.9497 118.726 30.4603ZM116.206 16.8374C118.169 18.5907 118.972 12.9002 121.938 12.4895C124.121 12.1876 125.842 12.3251 125.578 16.2137C124.917 21.2379 119.666 28.2716 118.282 28.6021C117.071 28.8885 112.129 24.8787 109.624 19.937C105.69 12.129 113.686 12.1969 116.206 16.8374Z" fill="#3D9CFB"/>
<path d="M74.6536 28.2265C79.535 26.5945 80.6336 26.8724 82.2888 31.9731C82.6647 33.1388 84.4921 33.0029 83.9586 30.8745C82.4764 24.9393 80.253 23.894 74.3903 26.2865C72.878 26.9103 72.6302 28.9036 74.6536 28.2265Z" fill="#3D9CFB"/>
<path d="M44.2263 63.0915C41.661 72.4938 44.7081 77.9704 53.1554 81.8737C50.3113 78.9925 50.9289 74.8106 56.1037 71.6137C63.1521 67.2511 59.624 56.3889 56.6603 54.4481C53.6966 52.5073 57.9542 51.0335 60.3459 50.5672C62.7375 50.1009 69.1622 50.6946 66.0587 53.7641C62.1099 57.6674 62.448 67.116 65.9159 70.6441C68.0821 72.8551 74.8974 76.2403 71.181 80.9789C88.264 72.9979 74.5662 61.3761 89.6706 59.7286C91.0395 55.9724 91.1948 51.8812 90.1145 48.032C88.802 43.5636 85.8684 39.7429 82.5318 41.947C74.3709 32.6497 63.0425 36.4557 56.2836 40.8106C49.4011 37.6662 47.4155 48.0019 49.002 50.6923C40.7816 49.3706 39.4353 57.2621 44.2263 63.0915ZM69.5482 60.0336C75.2201 58.898 78.1947 68.3157 71.9175 69.8798C65.604 71.4523 63.5883 61.2148 69.5459 60.0336H69.5482ZM51.9032 61.3761C57.6492 60.3308 60.0795 69.0491 53.7004 70.4927C47.2881 71.9449 45.8738 62.467 51.9032 61.3761Z" fill="#3D9CFB"/>
<path d="M35.4633 47.5439C36.4415 47.1579 34.8689 41.5786 35.7868 40.5858C36.4044 39.9165 37.8851 39.2734 40.3903 38.7878C41.6016 38.5624 42.1281 36.742 40.8867 36.7343C38.0658 36.7196 34.6659 37.9834 33.5001 39.7451C32.4394 41.3455 33.5225 48.3036 35.4633 47.5439Z" fill="#3D9CFB"/>
<path d="M70.8705 35.1321C65.6862 35.0524 60.6267 36.7247 56.5112 39.8784C50.6362 37.2683 46.7545 44.2596 47.755 49.6196C40.3152 48.1968 37.9235 59.5638 43.3168 63.3397C42.5702 65.0755 42.2072 66.9519 42.2527 68.8409C42.2981 70.7298 42.7509 72.5866 43.58 74.2845C36.9454 80.5956 48.5371 92.473 54.277 83.5895C54.7663 83.6751 55.2618 83.7203 55.7584 83.7246C56.9937 88.3281 66.1319 87.854 66.7981 83.4312C67.9142 83.2413 69.0063 82.9307 70.0552 82.5048C75.704 93.1709 88.4089 79.3002 81.037 72.8308C81.6332 71.6435 82.0369 70.3689 82.2329 69.0549C87.7913 70.2739 94.5472 65.0914 90.5374 59.3592C93.0572 53.106 91.5302 38.6208 82.7524 40.7045C81.3636 39.0732 77.0913 35.0495 70.8705 35.1321ZM48.8459 84.8C48.8866 84.1933 48.9949 83.5931 49.1686 83.0105C49.4774 81.8139 47.5366 81.5738 47.2664 82.7789C47.1293 83.2667 47.0312 83.7647 46.973 84.2681C46.2498 83.9 45.6017 83.3998 45.0623 82.7935C45.1225 81.7027 46.7545 80.3231 45.8065 79.4917C44.9341 78.7197 44.3173 79.8977 43.8356 80.7701C43.503 79.9965 43.3923 79.1455 43.516 78.3126C43.6396 77.4796 43.9928 76.6975 44.5358 76.0539C46.4444 79.0527 49.1611 81.4516 52.3732 82.9742C51.9954 83.5596 51.4711 84.036 50.8524 84.3563C50.2337 84.6765 49.542 84.8295 48.8459 84.8ZM57.7896 83.6497C58.9935 83.5699 60.1201 83.0281 60.934 82.1373C61.9765 83.0793 63.335 83.5948 64.74 83.5818C63.6337 85.5172 58.9885 85.6438 57.7896 83.6497ZM67.9145 81.2271C62.8964 82.6569 61.198 80.889 61.347 76.2863C61.8874 75.7976 65.3336 74.1725 64.0552 72.6756C63.9609 72.593 63.8513 72.5299 63.7325 72.4897C63.6138 72.4496 63.4883 72.4332 63.3633 72.4416C63.2382 72.45 63.1161 72.483 63.0038 72.5386C62.8915 72.5943 62.7912 72.6715 62.7088 72.7659C62.0684 73.5915 61.241 74.253 60.2948 74.6959C59.5575 74.9669 57.7819 72.522 56.8493 73.7178C55.9692 75.1622 58.8426 75.9752 59.4293 76.3959C62.5359 89.8682 37.9614 76.7819 45.6104 62.3971C44.8276 60.8855 43.5414 62.6287 42.6915 59.2759C39.6088 46.5509 53.911 52.7787 56.864 55.0128C58.4142 56.1863 58.8951 53.4557 57.0446 52.8466C59.7315 51.4888 62.8242 51.1676 65.7328 51.9441C63.9649 52.7262 64.093 55.4182 65.9281 54.2532C68.2827 52.7563 74.3152 47.6911 77.6703 48.8823C81.376 50.1948 81.6346 59.2705 78.2725 58.8042C78.1354 58.8236 78.0043 58.8731 77.8884 58.949C77.7726 59.0249 77.6749 59.1253 77.6023 59.2433C77.5297 59.3612 77.484 59.4937 77.4684 59.6313C77.4528 59.7689 77.4677 59.9082 77.5121 60.0394C85.1325 68.3346 76.2992 79.0987 67.9145 81.2271ZM80.905 80.2498C80.6943 78.4595 77.8062 78.407 78.8067 80.2945C79.1567 80.9684 79.3784 81.7013 79.4606 82.4562C78.9034 83.0496 78.2465 83.5408 77.5198 83.9075C77.5395 83.1661 77.4249 82.4273 77.1816 81.7266C76.6698 80.6203 75.4886 81.5985 75.5118 82.4214C75.5265 83.1432 75.6546 83.7076 75.6091 84.4286C73.9917 84.5058 72.6978 83.5555 71.7884 81.7266C75.11 80.0832 77.9542 77.6149 80.0489 74.5578C81.8222 76.6067 81.8376 78.4819 80.905 80.2498ZM88.683 58.9169C87.8861 59.4727 86.9574 59.81 85.9895 59.895C85.753 59.9291 85.538 60.0509 85.3871 60.2361C85.2362 60.4212 85.1603 60.6564 85.1746 60.8949C85.1889 61.1333 85.2922 61.3577 85.4642 61.5236C85.6361 61.6894 85.8641 61.7846 86.103 61.7903C87.198 61.6951 88.2611 61.3722 89.2242 60.8423C91.7293 65.13 85.9972 68.1238 82.3533 67.131C82.2629 64.668 81.4464 62.2867 80.0064 60.2864C85.9416 56.2388 81.579 39.6376 67.6775 50.4997C60.9456 48.4083 56.6053 50.7552 55.1462 51.7781C53.4403 50.8901 51.6204 50.2407 49.7376 49.8481C48.9131 46.1741 50.6508 40.5331 54.893 41.3259C54.1488 42.4067 51.5834 44.0712 52.8997 45.4176C53.0039 45.4865 53.1207 45.5342 53.2433 45.5579C53.366 45.5816 53.4921 45.5808 53.6145 45.5557C53.7369 45.5305 53.8531 45.4814 53.9564 45.4112C54.0598 45.341 54.1482 45.2511 54.2167 45.1466C58.76 36.6244 75.9557 34.1717 81.2131 41.8524C80.5592 42.6723 78.528 44.8911 80.1323 45.7711C80.2498 45.8141 80.3746 45.8334 80.4996 45.8279C80.6246 45.8224 80.7473 45.7923 80.8606 45.7392C80.9739 45.6861 81.0756 45.6111 81.1598 45.5185C81.244 45.426 81.3091 45.3177 81.3513 45.1999C81.6741 44.2137 82.2811 43.3449 83.096 42.7024C89.7885 40.2397 90.8562 54.4416 88.683 58.9169Z" fill="#001434"/>
<path d="M17.4402 72.9305C16.0506 77.6699 16.1687 86.4484 17.5004 94.8424C19.2459 115.047 32.4697 125.112 46.3735 127.91C49.7209 135.334 52.9556 140.946 55.5959 143.112C65.1935 148.439 79.847 141.074 89.7186 138.193C105.68 132.957 117.866 129.546 119.739 124.939C122.192 125.593 123.515 125.503 123.974 124.51C124.192 124.036 123.786 122.78 120.942 122.103C117.152 121.2 113.834 119.47 109.758 117.77C97.9096 112.829 91.3584 108.729 87.9098 103.125C80.8243 91.593 89.4592 77.9332 111.627 83.6946C114.337 84.5152 117.001 85.4795 119.608 86.5835C121.624 87.4705 121.18 85.0395 119.615 84.1308C117.225 82.9014 114.731 81.8871 112.161 81.0999C110.808 75.9846 105.414 55.8329 99.1858 37.4715C123.933 43.294 130.696 60.2557 137.759 82.8655C140.414 90.7212 142.407 98.7855 143.717 106.974C146.838 126.915 140.685 141.304 109.656 147.33C108.528 147.472 108.543 149.849 110.296 149.624C130.711 146.946 144.191 136.626 146.966 121.995C148.839 129.175 148.802 131.962 150.215 131.518C152.405 130.833 145.808 103.108 140.06 82.6022C132.704 59.0429 124.929 40.5533 98.2756 34.7988C87.3053 3.42673 86.7796 2.33974 56.7887 12.0616C33.9064 19.4783 15.7102 21.8854 19.7725 40.104C6.29243 42.8647 7.60871 64.1227 17.4402 72.9305ZM24.5867 110.692C22.1935 106.9 21.179 103.049 20.0357 96.6551C22.2545 97.37 33.2139 102.011 34.2144 100.026C34.2597 99.895 34.2781 99.7564 34.2683 99.6183C34.2585 99.4803 34.2209 99.3457 34.1576 99.2226C34.0943 99.0996 34.0067 98.9907 33.9001 98.9025C33.7935 98.8142 33.6701 98.7486 33.5373 98.7094C28.6801 97.7686 23.9733 96.1719 19.5463 93.9631C18.4184 86.4746 18.6291 79.3923 19.652 74.8791C22.5633 77.3233 25.6019 78.8434 30.0741 80.2059C34.0947 95.2122 39.4803 112.159 45.1869 125.232C37.419 123.803 29.7846 118.906 24.5867 110.692ZM83.0029 93.8226C77.5418 95.7789 64.3026 100.209 54.3136 101.909C51.749 102.346 53.4868 103.849 55.186 103.677C64.9048 102.661 76.9326 97.9598 82.8524 95.8916C82.8076 104.956 90.3895 112.5 106.476 119.323C95.907 123.046 63.6896 134.48 60.4024 132.878C57.7544 131.306 49.0585 109.702 42.2216 90.1741C37.7347 77.3464 28.4529 42.1753 28.9647 35.0566C29.1145 32.9506 32.1832 30.9951 38.0744 29.2496C42.3977 27.8283 40.236 32.3863 43.9942 32.1307C48.1236 31.852 67.1698 27.4894 67.8994 25.0823C68.3958 23.4202 66.5754 21.3141 70.3891 19.7647C72.8642 18.7565 77.4978 17.4626 80.2507 18.1474C81.9885 18.5835 82.1615 19.9299 83.1473 22.239C88.2472 34.2144 99.9516 72.3971 102.155 79.8663C92.7356 79.786 83.9842 84.2374 83.0029 93.8226ZM83.0107 9.68771C89.1489 13.4868 107.774 72.4226 106.134 72.4303C105.17 72.4303 88.4718 15.6607 82.0781 11.644C77.2638 8.60921 60.2488 15.1605 59.8798 14.4541C59.2182 13.1903 78.6627 6.99186 83.0107 9.68462V9.68771ZM60.5267 17.8609C63.4982 16.7029 64.0625 20.5545 61.8507 21.2161C59.5941 21.8931 58.2779 18.7341 60.5267 17.8609ZM50.3192 21.2917C58.8268 18.9672 59.4513 21.9688 50.8457 24.2478C42.5413 26.658 43.0755 23.2696 50.3192 21.2917ZM25.4513 34.5981C26.2033 30.9696 27.9936 28.588 36.7952 26.2256C41.9924 24.836 42.715 27.2717 43.8058 28.3247C45.8285 30.2656 53.3787 27.6631 53.7871 28.1364C54.4418 28.896 44.3686 31.8829 42.752 29.0844C41.9252 27.6554 41.0297 26.3916 37.5317 27.4223C33.1768 28.7154 27.1992 30.7998 26.8278 34.6096C26.0906 42.1838 35.9298 77.9447 40.4352 90.8118C42.8284 97.6494 54.9907 131.89 59.4444 134.523C65.6351 135.673 87.5315 127.482 87.9152 128.362C88.2989 129.242 64.1081 137.87 59.0421 136.17C56.4992 135.313 55.4539 132.04 49.1728 117.487C38.9337 93.7222 30.7921 62.8736 29.3477 56.6119C27.4447 48.3707 24.7365 38.0358 25.4513 34.5981ZM11.9906 52.0115C12.9309 46.2276 16.0599 42.8802 20.2048 42.5034C21.6716 50.2968 24.5002 60.2596 29.2465 77.2105C17.817 73.8863 10.2721 62.5277 11.9906 52.0115Z" fill="#001434"/>
<path d="M51.9031 61.3768C45.8814 62.4746 47.2919 71.9533 53.7003 70.4934C60.0756 69.0498 57.6453 60.3315 51.9031 61.3768ZM50.5135 67.1614C48.0384 66.0559 50.2201 61.8053 52.5369 62.8058C54.8537 63.8063 52.9839 68.26 50.5073 67.1614H50.5135ZM54.7271 68.6553C53.6216 68.1589 54.592 66.2559 55.6373 66.7067C56.6679 67.1537 55.8326 69.1548 54.7271 68.6553Z" fill="#001434"/>
<path d="M76.2028 57.2697C75.6732 56.1813 74.8069 55.2925 73.7324 54.7352C75.4022 53.4228 76.192 52.9071 76.4707 54.1107C76.9447 56.1789 78.735 54.133 77.9375 52.6361C77.2149 51.282 75.3042 50.4475 71.905 53.8397C70.5054 52.8469 68.3916 54.3739 70.3548 55.3744C74.116 56.2692 74.1091 58.278 75.5149 58.5489C76.2553 58.5713 76.5564 58.0294 76.2028 57.2697Z" fill="#001434"/>
<path d="M69.5464 60.0338C63.5888 61.215 65.6045 71.4526 71.9157 69.88C78.1967 68.3236 75.2183 58.9051 69.5464 60.0338ZM68.508 66.2809C65.9658 65.0928 67.8765 60.4962 70.2613 61.5717C72.646 62.6471 71.058 67.469 68.508 66.2809ZM72.8251 67.8983C71.6817 67.364 72.5394 65.3035 73.6079 65.7922C74.6764 66.2809 73.9623 68.4325 72.8251 67.8983Z" fill="#001434"/>
<path d="M60.4217 120.756C62.0236 120.546 66.4549 120.177 65.913 118.132C65.8671 118.013 65.7971 117.906 65.7074 117.816C65.6177 117.727 65.5104 117.656 65.3922 117.61C65.274 117.565 65.1475 117.544 65.0208 117.549C64.8941 117.555 64.7699 117.587 64.6562 117.643C62.7308 118.485 60.4966 119.132 60.106 118.878C59.2784 118.329 57.5938 114.349 57.9845 113.44C58.4585 112.341 63.4982 110.777 64.3481 110.965C64.7697 111.055 65.0252 111.258 65.2583 112.717C65.3065 112.96 65.4471 113.174 65.6505 113.315C65.8538 113.456 66.1039 113.513 66.348 113.472C66.5921 113.432 66.811 113.299 66.9586 113.101C67.1062 112.902 67.1708 112.654 67.1389 112.409C66.9212 111.062 66.6124 109.552 64.958 109.158C62.994 108.7 56.713 110.671 56.1494 112.837C55.6677 114.671 57.5483 121.132 60.4217 120.756Z" fill="#001434"/>
<path d="M48.4392 60.5946C49.3119 59.0599 50.603 57.805 52.1618 56.9762C54.0725 55.8854 51.4925 54.5313 50.3268 55.7958C45.633 52.7487 44.1059 54.8848 44.0611 56.6002C44.0233 57.9767 45.7912 58.819 45.9186 56.9986C46.0166 55.6375 46.8218 56.1038 48.7248 57.0441C47.9306 57.7848 47.3449 58.7211 47.0264 59.7593C46.5053 60.888 47.9428 61.7302 48.4392 60.5946Z" fill="#001434"/>
</svg>
