<svg width="155" height="155" viewBox="0 0 155 155" fill="none" xmlns="http://www.w3.org/2000/svg">
<path d="M91.6106 28.0108C93.2207 38.1452 93.4858 37.7455 93.0316 37.8424C89.5011 38.5932 75.5403 40.8303 73.2456 41.2722C72.7891 41.3606 43.2491 46.7133 40.5786 47.013C40.1336 47.0629 39.2867 47.3857 39.0469 46.6518C38.768 45.7995 38.3453 43.7883 37.3908 38.066C35.0853 24.2275 33.4768 19.6986 35.5579 15.5118C36.6338 13.36 38.6719 11.8814 42.8849 11.1259C42.8995 11.1259 76.6501 6.0407 79.3552 5.50658C84.2084 4.54748 85.657 6.00458 86.2572 6.46799C87.5091 7.42862 88.0647 8.81194 88.6396 10.6548C89.9115 14.7448 90.444 20.667 91.6106 28.0108ZM89.3051 35.5422C89.405 35.9372 90.3311 36.1916 90.3172 35.4016C90.3049 34.6346 89.0438 34.507 89.3059 35.5376L89.3051 35.5422ZM87.3785 35.6836C87.3735 35.7612 87.3849 35.839 87.4119 35.9118C87.4389 35.9847 87.481 36.0511 87.5353 36.1067C87.5896 36.1623 87.655 36.2059 87.7272 36.2346C87.7995 36.2633 87.8769 36.2765 87.9546 36.2734C88.0323 36.2703 88.1084 36.2508 88.1781 36.2164C88.2478 36.1819 88.3094 36.1332 88.3591 36.0734C88.4088 36.0136 88.4453 35.9441 88.4663 35.8692C88.4874 35.7944 88.4925 35.716 88.4813 35.6391C88.4872 35.5612 88.4766 35.4829 88.4502 35.4094C88.4238 35.3359 88.3822 35.2688 88.328 35.2125C88.2739 35.1562 88.2085 35.112 88.1361 35.0827C88.0637 35.0534 87.9859 35.0397 87.9079 35.0425C87.8298 35.0454 87.7533 35.0646 87.6832 35.0991C87.6131 35.1336 87.5511 35.1824 87.5012 35.2425C87.4513 35.3026 87.4146 35.3725 87.3936 35.4477C87.3726 35.523 87.3677 35.6018 87.3792 35.679L87.3785 35.6836ZM85.5256 36.5006C86.0904 37.0055 86.9466 35.988 86.2941 35.5783C85.7569 35.2348 85.0138 36.0371 85.5264 36.4959L85.5256 36.5006ZM58.4256 34.7207C58.7284 34.6269 58.7615 34.029 58.2719 34.0944C57.8135 34.219 57.3461 34.3084 56.874 34.3618C56.5645 34.4103 56.2702 34.5294 56.0141 34.7099C55.5168 35.0481 55.2709 34.2849 54.7322 34.8506C53.488 36.157 53.6409 33.9506 52.4182 35.0358C50.8443 36.4322 51.8887 36.2869 51.9571 36.2385C52.2295 36.0191 52.4834 35.7777 52.7164 35.5169C53.4603 34.8575 53.3689 36.9002 54.9566 35.4546C55.3754 35.0704 55.5606 35.752 56.2231 35.3439C57.1346 34.7791 57.0761 35.1372 58.4256 34.7207ZM54.1328 40.5152C55.5368 40.131 54.9589 39.5323 54.5331 39.6937C53.7039 40.0088 53.7523 39.5031 53.1952 39.8236C52.7248 40.0949 52.8155 39.8236 52.4059 39.9527C51.6597 40.1917 51.6774 39.6453 50.7813 40.1341C49.4902 40.8357 50.2787 39.666 48.86 40.5521C48.1376 41.0048 48.1737 40.1302 47.5666 40.6743C47.2077 40.9956 47.1778 41.2061 46.7597 40.9817C46.5998 40.8949 46.2179 40.6912 46.068 40.7942C45.1174 41.4513 45.5693 42.624 46.1041 41.5919C46.4162 40.9894 46.7781 42.3036 47.6888 41.3752C48.0661 40.991 48.4519 41.6688 49.1344 41.107C49.9029 40.4745 49.7976 41.5028 50.9142 40.7927C51.4061 40.4791 51.5513 40.6874 52.2976 40.6567C53.7846 40.5929 52.7763 40.3385 54.1328 40.5152ZM52.1392 18.1655C52.6495 17.7904 52.3698 17.3101 52.2707 17.2878C51.7281 17.171 51.8211 17.659 51.4445 17.3409C51.1717 17.1103 50.5792 16.3948 50.1534 17.068C49.5486 18.0264 50.0827 18.3799 49.2005 17.4069C48.7855 16.9504 48.2298 16.9651 47.7772 17.6375C47.5174 18.0264 47.572 18.4245 47.343 18.1609C45.9896 16.361 45.7506 18.1447 45.3679 18.6696C45.0198 18.3576 45.1135 18.2538 44.8715 17.9733C44.5456 17.5952 44.053 17.5998 43.7095 18.2854C43.5189 18.665 43.4897 18.2246 43.0462 17.8627C41.7936 16.8398 41.6445 19.123 41.3256 19.8608C41.1849 20.1874 41.0812 19.4712 40.8506 18.8679C40.8244 18.7535 40.7622 18.6506 40.6732 18.5742C40.5842 18.4978 40.473 18.452 40.356 18.4434C40.239 18.4348 40.1224 18.4639 40.0231 18.5265C39.9239 18.589 39.8473 18.6818 39.8047 18.791C39.4666 19.3356 39.2428 19.9433 39.1468 20.577C39.1568 20.7876 39.1468 21.1626 39.3858 21.1373C39.8516 21.0881 39.4319 20.9598 40.1321 19.3874C40.3472 18.9032 40.4333 19.7793 40.6354 20.252C40.6745 20.377 40.7506 20.4873 40.8538 20.5681C40.9569 20.6489 41.0821 20.6964 41.2129 20.7044C41.3437 20.7124 41.4738 20.6805 41.586 20.6129C41.6982 20.5452 41.7872 20.4451 41.8412 20.3257C42.051 19.7889 42.2165 19.2358 42.3361 18.6719C42.6489 17.6429 43.3075 19.7824 43.3352 19.8293C43.3682 19.8949 43.4202 19.949 43.4843 19.9847C43.5485 20.0203 43.6219 20.0358 43.695 20.0292C43.7682 20.0226 43.8376 19.9941 43.8943 19.9475C43.951 19.9009 43.9924 19.8383 44.013 19.7678C44.1002 19.3577 44.229 18.9575 44.3973 18.5735C44.5333 18.7595 44.6117 18.9286 44.7892 19.2137C44.8552 19.3218 44.9504 19.409 45.0638 19.4652C45.1773 19.5214 45.3043 19.5443 45.4303 19.5313C45.5562 19.5182 45.6759 19.4698 45.7754 19.3916C45.8749 19.3133 45.9503 19.2085 45.9927 19.0892C46.4899 17.7197 46.37 18.2292 47.0141 18.9563C47.0798 19.0409 47.1671 19.1062 47.2669 19.1454C47.3666 19.1846 47.4751 19.1962 47.5809 19.179C47.6866 19.1618 47.7858 19.1164 47.868 19.0476C47.9501 18.9788 48.0122 18.8891 48.0477 18.788C48.4558 17.2433 48.757 18.1032 49.1405 18.499C50.3893 19.7909 50.4539 17.5245 50.7821 17.7635C51.3062 18.1393 51.6566 18.5228 52.1392 18.1655ZM51.6781 42.9368C51.7478 42.9172 51.8087 42.8744 51.8508 42.8155C51.8929 42.7566 51.9136 42.6851 51.9096 42.6129C51.9055 42.5406 51.877 42.4719 51.8286 42.418C51.7803 42.3641 51.715 42.3284 51.6436 42.3166C51.2923 42.2528 50.9773 42.7009 49.9966 42.4757C49.6449 42.4305 49.289 42.5173 48.9976 42.7193C47.8233 43.308 47.6834 42.3558 46.9633 42.9822C46.5576 43.3349 46.5322 42.7316 46.2448 43.1359C46.1812 43.2163 46.1466 43.316 46.1469 43.4186C46.1471 43.5211 46.182 43.6206 46.246 43.7008C46.31 43.781 46.3992 43.8372 46.4992 43.8602C46.5992 43.8832 46.704 43.8717 46.7966 43.8275C47.1708 43.6477 47.2354 43.328 47.7249 43.4632C49.2135 43.8729 48.8185 42.9845 50.5108 43.2135C50.9152 43.206 51.3134 43.1117 51.6781 42.9368ZM46.5045 36.9109C47.0509 36.6596 46.7305 36.1294 46.2786 36.2692C46.2632 36.2738 44.7093 36.9117 44.3835 36.6896C43.6634 36.1978 43.432 37.2053 42.8595 36.7788C42.3423 36.3945 42.2316 36.4913 41.8228 36.9194C41.0358 37.7455 41.0105 35.8043 39.9015 37.7432C39.7017 38.0929 40.0844 38.3949 40.3572 38.0337C40.723 37.5473 40.567 37.4035 41.2671 37.8032C41.4977 37.9377 41.7236 37.8892 42.2186 37.392C42.6228 36.9862 42.6028 38.0921 43.6926 37.3874C44.0276 37.1715 44.0576 37.3106 44.4572 37.4297C46.2102 37.1453 45.673 37.2929 46.5053 36.9109H46.5045ZM38.3829 22.6951C38.967 20.8741 38.9914 18.9199 38.4529 17.0849C37.9472 15.6624 35.7362 18.6727 36.2688 19.8692C36.308 19.9412 36.372 19.9964 36.4489 20.0247C36.5258 20.0529 36.6104 20.0523 36.6868 20.023C36.9497 19.9246 36.6553 19.5011 36.8544 18.967C37.0357 18.4806 37.8895 17.2371 37.9549 17.626C38.7626 22.4491 37.1764 22.5091 37.5975 23.0332C37.845 23.3398 38.2569 22.9494 38.3829 22.6951Z" fill="white"/>
<path d="M126.589 148.547C126.589 148.547 120.607 135.938 119.782 132.805C118.956 129.672 119.617 125.466 119.7 123.322C119.782 121.177 120.36 111.035 120.441 109.385C120.523 107.736 119.782 100.81 119.782 99.1604C119.782 97.5111 119.452 91.5736 119.369 89.3473C119.286 87.1209 117.638 82.7504 116.731 81.4316C115.824 80.1129 112.526 72.9381 112.526 70.8769C112.526 68.8158 111.699 62.4648 109.64 59.8273C107.581 57.1898 105.359 54.8681 104.617 50.4976C103.875 46.1271 103.95 39.9544 101.063 40.6138C98.1768 41.2732 96.0334 43.9123 95.8682 48.448L92.157 77.3493L37.6083 95.656C37.6083 95.656 34.7317 95.1779 33.7811 96.2308C32.4575 97.4561 31.5643 99.0756 31.2343 100.849C31.0715 101.696 31.0778 102.567 31.2527 103.412C31.4276 104.257 31.7676 105.059 32.2533 105.773C32.5246 106.08 35.2413 109.881 37.211 111.036C38.8495 112.045 40.1866 113.475 41.0819 115.178C41.3893 115.994 48.3151 125.707 49.0275 126.385C49.0275 126.385 56.4506 134.345 60.0241 136.434C63.5977 138.523 73.8504 146.783 75.4996 149.091C75.4996 149.091 89.9122 149.735 95.3725 149.302C103.058 148.692 107.328 149.424 116.233 149.058C121.046 148.86 125.276 149.274 126.589 148.547Z" fill="#FFCEB6"/>
<path d="M101.708 86.3454C102.976 92.6334 102.748 92.3452 102.448 92.4351C100.897 92.9031 86.8013 95.38 86.3594 95.4746C85.9583 95.5599 86.4301 91.393 86.4471 90.3079C86.4509 90.032 86.5646 90.085 87.108 89.9882C87.8542 89.8552 87.3093 89.713 87.6713 83.8401C87.8127 81.5484 87.5076 81.6883 88.2861 81.6621C90.1891 81.4551 92.0761 81.1214 93.9346 80.6631C95.1443 80.4102 97.6235 80.0621 99.7507 79.7286C100.851 79.5518 100.234 79.0408 101.708 86.3454Z" fill="#FFF59E"/>
<path d="M100.44 78.7561C100.507 79.1403 100.594 79.0443 96.838 79.5915C91.6482 80.3477 93.7931 80.3661 90.7421 80.7235C87.4929 81.1077 87.6604 81.7148 87.7119 80.3162C87.8418 76.7764 87.9425 75.5844 87.1094 73.1629C86.8458 72.3944 86.3317 71.9502 85.2727 71.2285C84.7816 70.8942 84.3658 71.1678 84.3628 70.4992C84.3497 67.7203 83.7579 67.6342 83.8632 66.2179C83.9345 65.5475 84.0597 64.8839 84.2375 64.2336C84.7424 62.0441 83.6573 61.437 83.7925 59.5257C83.7948 58.5391 83.5935 57.5627 83.2013 56.6575C82.8091 55.7522 82.2344 54.9376 81.5131 54.2645C80.7807 53.6166 82.1225 54.5142 83.9554 52.762C84.2505 52.48 84.3658 52.344 84.2736 52.1764C83.8563 51.4195 83.3552 52.2594 80.5986 50.9899C80.1208 50.7599 79.6736 50.471 79.2675 50.1299C79.7883 49.9183 80.2792 49.6396 80.7277 49.3007C81.6883 48.5498 81.8036 47.3248 80.9513 47.4939C79.0301 47.8728 77.2364 46.6555 76.4702 46.1982C75.49 45.6413 74.4483 45.2006 73.3662 44.8848C72.7129 44.2216 71.8568 42.5101 68.6068 43.6844C68.1509 43.8949 67.7254 44.1658 67.3418 44.4898C66.3474 45.2007 66.3597 46.7431 66.4834 47.2956C66.6033 47.8336 65.6588 47.1419 63.8243 47.8943C61.1492 48.9864 59.8166 51.8829 59.9334 54.7702C59.8565 56.6653 60.0056 57.5014 59.0588 58.4536C58.0538 59.3011 57.2791 60.3886 56.8063 61.6153C55.9425 64.2005 56.7041 64.1098 55.9333 64.0837C55.3477 64.0637 55.1187 64.5663 55.307 65.1235C55.3877 65.364 55.4307 65.5531 55.2693 65.5623C55.1414 65.559 55.0161 65.5982 54.913 65.6739C54.8099 65.7496 54.7349 65.8574 54.6998 65.9804C54.4109 66.8142 55.8649 68.7332 55.2378 68.6571C54.6822 68.5895 54.2979 68.6902 54.1457 69.2235C54.0758 69.4679 54.165 69.7422 54.7129 70.4009C55.2047 70.9918 55.4345 70.988 55.2655 71.2316C53.6831 73.5041 52.9815 74.3871 53.72 77.1445C53.8214 77.5226 54.1273 77.4381 53.8806 77.8677C52.5472 80.1855 54.7744 88.6045 53.856 88.8113C51.5559 89.3292 53.6831 88.6675 47.2668 90.1646C46.7811 90.2776 45.7959 82.989 45.6699 82.2897C41.3593 58.2784 39.7154 50.8899 39.3819 48.6351C39.199 47.7598 40.381 47.686 40.6792 47.6453C48.7216 46.5425 77.5107 41.0438 77.5276 41.0407C77.5445 41.0377 91.5537 38.9366 92.3891 38.6069C92.6276 38.5278 92.8743 38.4762 93.1245 38.4532C93.3067 38.4263 93.4396 38.6891 93.5856 39.2678C94.2004 41.7662 95.0681 48.2317 96.1809 53.0687C96.1939 53.1617 100.437 78.7407 100.44 78.7561Z" fill="#D8E9FF"/>
<path d="M86.7767 74.0892C87.0152 75.2824 87.1563 76.4929 87.1986 77.7089C86.8359 86.081 87.1587 85.9834 86.6876 86.0403C86.5047 86.0626 86.3102 86.214 86.155 86.1748C85.9998 86.1356 85.9006 85.9243 85.7661 85.7967C85.6474 85.6747 85.5034 85.5801 85.3443 85.5195C85.1852 85.4589 85.0148 85.4338 84.845 85.446C84.6752 85.4581 84.5101 85.5072 84.3612 85.5899C84.2124 85.6725 84.0833 85.7866 83.9832 85.9243C83.3615 86.7466 83.1763 85.1619 81.9628 85.4393C80.6963 85.7298 80.9291 86.4945 80.2598 86.0434C77.3909 84.109 78.151 88.518 78.6198 81.3885C78.5972 80.6092 78.6507 79.8296 78.7796 79.0607C78.815 78.917 78.8749 78.5058 78.6075 78.4459C78.1464 78.3483 78.0588 79.9199 77.9158 82.8203C77.839 84.3972 77.5431 84.4134 77.3925 87.5704C77.3018 89.4625 78.6928 88.8861 78.6182 89.7591C78.4169 92.1123 78.503 91.6266 78.3877 91.8687C77.6491 91.3499 71.3258 80.9174 73.6952 77.9241C74.7088 76.6438 76.6923 76.0797 78.214 75.4979C78.5898 75.355 79.9047 74.3959 81.3557 73.7034C82.1534 73.3192 82.3924 72.4654 81.6193 72.3201C80.8215 72.1664 80.352 72.5983 81.5854 71.4463C81.8321 71.2158 81.932 71.0759 82.2225 71.1036C82.7877 71.1113 83.3504 71.1796 83.901 71.3072C85.8637 71.9904 86.5685 73.0264 86.7767 74.0892Z" fill="#B4DBC5"/>
<path d="M83.8588 62.9856C83.7522 63.905 83.5773 64.8151 83.3354 65.7085C83.1172 67.0541 83.692 67.4538 83.8319 70.3664C83.8457 70.6485 83.815 70.6377 83.5199 70.6031C82.6031 70.494 82.2772 70.7038 82.0382 70.2834C81.8645 69.976 81.4864 69.976 81.2228 69.9445C80.8201 69.8984 82.5577 66.5999 81.9959 66.1488C81.9117 66.0732 81.8082 66.0222 81.6969 66.0016C81.5856 65.981 81.4707 65.9915 81.365 66.032C80.5965 66.3241 80.2683 67.3385 80.1469 67.5414C80.0485 67.7051 79.7181 67.4645 79.1932 68.0663C77.0775 70.4832 78.1542 69.4626 78.6744 66.3225C79.1801 63.2669 78.6744 63.4567 79.3369 61.4809C79.4137 61.2504 80.7048 57.5946 79.9225 57.3871C79.4506 57.2618 79.9655 58.1225 79.154 60.2597C78.1511 62.9111 78.5392 63.2423 78.1864 65.7669C78.1096 66.3048 77.4548 69.707 77.1728 69.2367C77.1536 69.2052 76.8938 68.1877 76.1676 68.7756C73.726 70.7553 73.208 70.7822 73.4586 70.5639C77.9928 66.6245 77.5785 62.5714 77.796 61.2596C78.0704 59.6104 79.5359 56.8022 78.0312 55.4058C75.6573 53.2018 74.0349 54.3161 72.1198 49.2086C71.8601 48.5169 71.4205 48.4401 71.4282 48.7375C71.442 49.2224 71.6941 49.3754 71.3598 49.3646C70.3 49.3308 67.5395 49.6789 66.7364 50.3329C64.4078 52.2288 64.5477 52.1627 63.5671 56.2696C62.6088 60.2836 61.7227 61.0283 62.5926 65.0914C63.6885 70.2342 67.7132 73.0915 61.6789 67.9348C61.2562 67.5744 60.7566 68.0739 60.7958 68.7034C60.8158 68.9908 60.905 69.2982 60.4938 69.1014C58.966 68.3714 58.7347 65.5002 57.7072 65.5417C57.4482 65.5525 57.2661 65.531 57.147 65.2558C57.0246 64.8639 56.968 64.4543 56.9794 64.0439C56.9103 61.9612 57.8463 60.5764 59.2688 59.1869C60.8496 57.6437 60.4262 56.1713 60.4984 54.1916C60.4953 52.8037 60.9186 51.4484 61.7111 50.3091C62.3434 49.4864 63.1832 48.8466 64.1442 48.4554C64.6567 48.2352 65.2111 48.1296 65.7686 48.1461C66.3262 48.1625 66.8734 48.3007 67.372 48.5507C67.8077 48.6414 67.8484 48.3025 67.6502 48.0896C67.4519 47.8768 67.04 47.8775 66.9585 46.7063C66.8532 45.1578 68.2435 44.4008 69.7436 43.985C71.555 43.4863 72.6539 44.7697 72.2589 44.8465C71.5081 44.9918 70.1071 45.1839 69.43 46.0915C69.0811 46.5611 68.9589 47.7738 69.3862 47.7338C70.031 47.6731 68.8483 46.0923 71.7955 45.542C74.0157 45.1286 75.957 46.6325 77.5286 47.5186C78.9173 48.3017 81.2228 47.7899 80.7563 48.3409C80.5143 48.6951 80.1959 48.9905 79.8245 49.2051C79.4532 49.4198 79.0383 49.5484 78.6106 49.5813C77.7192 49.7734 72.8737 44.9833 70.9571 47.5578C70.7649 47.8168 70.9663 48.1265 71.3067 47.9037C72.8438 46.8954 73.4586 47.003 79.7834 51.1145C81.312 52.1089 82.6361 52.0851 83.4123 52.4402C83.0278 52.7944 82.5837 53.0777 82.1004 53.2771C80.3613 54.0025 79.2946 51.9837 78.5845 51.5472C78.0865 51.2398 76.8777 50.4259 76.319 50.4351C76.2579 50.4367 76.2001 50.4625 76.158 50.5067C76.1159 50.5509 76.0931 50.61 76.0945 50.6711C76.1022 51.0008 76.5426 50.8248 77.7461 51.6594C78.1795 51.9598 81.7139 55.3236 81.8192 55.4658C82.5324 56.4464 83.3247 58.1048 83.1979 59.2753C83.0173 60.9576 83.848 61.7829 83.8588 62.9856ZM81.9575 59.4597C81.8999 58.9663 81.9298 58.6682 81.6309 58.6912C81.3319 58.7143 81.5748 58.8926 81.3611 60.093C80.4389 65.2942 81.5218 64.2168 81.5248 63.7995C81.5379 61.6361 81.3573 63.1978 81.9575 59.4597ZM78.3617 54.2654C78.7351 54.6727 78.9488 54.5213 78.9288 54.2592C78.3524 53.3094 78.0227 53.244 76.3159 51.8853C74.091 50.1131 74.5937 49.6512 73.4532 48.8566C73.394 49.5029 74.7028 51.1329 75.1631 51.5887C76.083 52.5024 77.7222 53.5714 78.3593 54.2654H78.3617ZM65.5829 49.5406C68.5931 48.8389 64.5024 47.6908 62.9031 51.3435C62.442 52.3925 62.4051 53.181 62.0024 55.8731C61.9517 56.212 62.3382 56.2043 62.402 55.9684C62.9384 53.9649 62.9092 50.1646 65.5829 49.5406ZM60.1318 66.1704C58.986 63.6412 61.7219 59.4152 61.237 59.3252C61.0425 59.2891 60.9787 59.3537 60.8527 59.5927C57.3806 66.394 60.772 67.5852 60.1318 66.1704Z" fill="#FFA87D"/>
<path d="M81.5976 66.464C81.7128 66.4909 81.7712 66.6815 81.7005 66.8767C81.2794 68.041 80.932 68.8564 80.5908 70.063C80.4786 70.4618 77.9441 72.6113 77.5298 72.8795C77.4863 72.8551 77.4456 72.826 77.4084 72.7927C76.7452 72.0419 76.7244 72.0542 76.9742 71.9089C78.6788 70.9168 79.3666 70.6601 79.9176 69.3728C80.8721 67.138 80.9904 66.3787 81.5976 66.464Z" fill="#FFCEB6"/>
<path d="M81.6237 70.7074C81.0919 71.2823 78.2208 74.1273 77.8173 73.4333C77.649 73.1443 77.991 73.1082 78.781 72.4343C80.3749 71.0748 81.0535 70.0903 81.6153 70.5791C81.6244 70.5869 81.6318 70.5964 81.6372 70.6071C81.6426 70.6178 81.6457 70.6295 81.6465 70.6415C81.6473 70.6534 81.6457 70.6654 81.6418 70.6767C81.6379 70.6881 81.6317 70.6985 81.6237 70.7074Z" fill="#FFCEB6"/>
<path d="M72.2432 51.1305C74.1183 54.9984 78.3628 54.973 78.1169 57.048C78.0252 57.8083 77.8613 58.5582 77.6273 59.2874C77.5551 59.518 77.5251 59.5372 77.3161 59.415C75.7868 58.5197 75.0582 58.5574 73.6926 58.2238C73.1697 58.1535 72.6383 58.1795 72.1248 58.3007C72.0057 58.3144 71.8924 58.3597 71.7966 58.4318C71.7009 58.504 71.626 58.6004 71.5799 58.7111C71.2987 59.292 71.1534 58.5435 70.1528 58.7234C69.6149 58.8202 70.6086 57.3508 65.1667 56.7145C64.4536 56.6315 64.0908 57.1172 64.1615 56.6753C64.9416 51.7414 66.0321 50.5733 70.8883 49.8986C72.1264 50.0315 71.6507 49.907 72.2432 51.1305ZM76.2233 58.0962C76.367 58.1531 76.9918 58.7549 77.0686 57.9602C76.6075 56.9965 75.0521 57.2847 73.9462 56.9404C73.5212 56.8082 73.1831 56.4509 72.9932 56.686C72.7458 56.9934 73.0186 57.2386 73.359 57.4353C74.508 58.0962 74.8991 57.5767 76.2233 58.0962ZM68.0771 56.55C70.0391 57.1264 70.3058 55.544 69.1153 55.8806C68.6327 56.0174 68.4329 55.8945 66.7414 55.4964C66.3572 55.5817 64.7963 55.8361 65.1852 56.427C65.3581 56.6906 65.5802 56.4878 65.8207 56.3971C66.8267 56.0197 67.0888 56.2595 68.0763 56.55H68.0771Z" fill="#FFCEB6"/>
<path d="M85.0485 88.9109C81.8461 88.7626 82.5662 88.2515 79.5244 88.489C79.2324 88.5113 79.2278 88.5113 79.2124 88.7964C79.0026 92.7926 79.0203 92.9233 79.1171 93.0816C79.921 94.3957 80.2445 94.571 80.1738 95.1504C80.1392 95.434 79.7896 95.5777 79.5475 95.1204C78.294 92.8149 73.029 85.9552 72.6017 80.2436C72.2889 76.0714 76.3267 76.0852 78.6729 74.6143C80.2683 73.6153 81.3704 73.3079 81.4065 72.9236C81.4834 72.0844 77.9375 74.3246 77.3472 74.4368C73.0989 75.2276 71.6979 75.0754 70.9171 76.7807C70.8902 76.8415 70.8172 76.8791 70.7634 76.9275C70.7104 76.863 70.6274 76.8038 70.6097 76.7308C70.684 76.3091 70.8684 75.9146 71.1442 75.5872C71.4201 75.2598 71.7776 75.0111 72.1806 74.8664C73.4457 74.4902 74.7551 74.2835 76.0746 74.2516C76.4711 74.1955 76.3897 74.1463 75.8686 73.2694C75.2922 72.2973 76.4181 73.1242 76.5664 73.6399C76.6145 73.7423 76.6824 73.8343 76.7662 73.9104C76.9146 74.0864 77.0298 74.094 77.2473 73.9473C77.391 73.852 77.4095 73.7836 77.2658 73.563C76.8997 72.9483 76.4179 72.4104 75.8471 71.9791C75.8027 71.9594 75.7646 71.9279 75.7368 71.888C75.7091 71.8482 75.6928 71.8015 75.6897 71.753C75.6866 71.7045 75.6969 71.6562 75.7193 71.6131C75.7418 71.57 75.7756 71.534 75.8171 71.5088C75.8666 71.491 75.9196 71.4856 75.9716 71.4931C76.0236 71.5006 76.0729 71.5207 76.1153 71.5518C76.4588 71.7493 76.4104 71.5856 78.1134 70.6035C78.8684 70.146 79.4513 69.4524 79.7719 68.6299C79.8872 68.3133 79.8049 68.0712 79.6704 68.2257C79.1179 68.8597 78.1572 70.3721 76.392 71.0223C75.6193 71.4342 74.872 71.8921 74.1541 72.3933C73.1266 72.9659 73.1043 74.25 72.4503 74.3507C72.6317 72.6462 73.8336 71.8915 75.6688 70.6442C76.7178 69.9295 76.7493 69.2171 76.3182 69.3377C75.1981 70.3801 73.9231 71.2424 72.5387 71.8938C71.8387 72.1745 71.1838 72.5567 70.5951 73.0281C68.6247 74.8103 68.7107 77.0866 68.5747 79.0448C68.8667 83.4898 70.8733 98.2575 72.272 98.0039C80.0601 96.5944 82.9873 96.201 84.9524 95.7575C85.9953 95.527 85.455 94.9122 85.6879 92.4629C85.9884 89.3497 86.2758 88.9685 85.0485 88.9109Z" fill="#FFCEB6"/>
<path d="M74.306 62.6136C76.5093 62.9864 77.0273 60.5325 77.0273 62.3308C76.964 63.7418 76.6161 65.1254 76.0044 66.3985C74.8496 68.6977 72.916 70.5121 70.548 71.5184C65.0993 74.1351 61.5034 63.4221 63.5546 58.8664C63.8243 58.267 63.8935 60.8368 66.4911 61.2772C68.2586 61.5769 69.1463 60.1513 69.5597 59.691C69.8235 59.4634 70.1645 59.3457 70.5125 59.362C70.8604 59.3783 71.1889 59.5274 71.4303 59.7786C71.8898 60.2121 71.4418 62.1333 74.306 62.6136ZM73.7681 66.5684C74.0755 66.6598 74.1738 66.2502 74.306 65.9351C74.0501 64.5234 73.0518 64.7055 73.3177 65.2635C73.692 66.0427 69.4114 64.6387 67.0329 64.4419C66.5602 64.4027 66.0492 64.3466 66.3304 63.9985C66.8922 63.3068 65.6803 63.2561 65.1777 64.7278C65.054 65.0859 65.5151 65.1712 65.648 64.9107C65.6962 64.8299 65.7504 64.7529 65.8102 64.6802C66.2912 65.1928 67.4717 67.9317 68.1726 68.5996C69.6381 69.9975 71.9605 67.3576 73.383 66.2372C73.712 65.9759 73.433 66.47 73.7642 66.5684H73.7681ZM71.5179 62.4576C71.5782 62.4177 71.6225 62.3577 71.643 62.2883C71.6634 62.2188 71.6587 62.1444 71.6297 62.0781C71.6007 62.0118 71.5492 61.9579 71.4843 61.9258C71.4195 61.8937 71.3453 61.8856 71.275 61.9028C70.8716 61.9796 70.0516 62.4238 69.5797 61.7529C69.2631 61.3033 69.4491 61.2288 69.9125 60.9283C70.1999 60.7416 70.6226 59.6925 69.2208 60.6032C67.8044 61.5224 69.8794 63.7971 71.514 62.4576H71.5179Z" fill="#FFCEB6"/>
<path d="M71.1461 97.9605C71.246 98.3102 71.3083 98.1911 67.9307 98.7521C67.9168 98.7314 68.1981 93.142 68.2996 89.0074C68.5608 78.3759 67.8292 86.363 71.1461 97.9605Z" fill="#B4DBC5"/>
<path d="M69.3952 72.6264C70.0346 72.5549 70.2966 72.4811 70.0868 72.6955C68.4184 74.4124 69.0001 75.4537 68.3239 74.0105C68.1832 73.7092 67.5846 72.7086 67.51 72.4811C67.5068 72.4714 67.5062 72.461 67.5084 72.451C67.5106 72.441 67.5154 72.4317 67.5224 72.4242C67.5295 72.4168 67.5384 72.4113 67.5482 72.4085C67.5581 72.4056 67.5685 72.4055 67.5784 72.4081C68.169 72.5748 68.7819 72.6485 69.3952 72.6264Z" fill="#FFCEB6"/>
<path d="M68.893 67.1458C69.7629 67.2457 69.9612 67.3133 70.3478 67.8267C68.8961 68.8057 68.6025 68.1202 68.1844 67.4739C67.9915 67.1773 68.355 67.2019 68.893 67.1458Z" fill="#FF9C9F"/>
<path d="M67.2922 73.3123C67.8593 74.1812 68.164 75.1951 68.1698 76.2326C66.9525 100.771 67.917 98.73 66.4714 99.002C57.9594 100.604 58.94 100.126 56.9642 100.627C56.739 100.685 56.7743 100.511 56.7336 100.036C56.6783 99.3655 56.5246 98.7207 56.4154 98.0637C55.7845 94.2634 56.1273 94.298 55.6316 92.7002C54.87 90.241 57.5252 89.4633 60.2595 89.7192C61.6705 89.8506 61.9164 89.4886 61.7082 90.1457C60.653 93.4764 59.2666 96.021 59.2489 96.9032C59.1867 99.4954 63.5441 89.6185 64.2097 78.8148C64.388 75.9206 61.297 76.2372 57.2016 72.1618C57.1924 72.1526 56.1257 71.1582 55.361 70.3558C55.0613 70.0415 54.5295 69.5873 54.5925 69.2715C54.6156 69.1616 54.727 69.1124 54.8607 69.1109C55.0332 69.1114 55.1997 69.1741 55.3295 69.2876C55.7046 69.605 56.4154 70.4242 56.6299 70.644C58.5811 72.6422 59.2851 72.1918 59.2174 72.8281C59.1552 73.4191 59.6432 73.3177 59.717 72.9165C59.9603 72.1114 60.3319 71.3508 60.8175 70.664C60.9935 70.342 60.5692 70.3389 60.5101 70.4158C60.1127 70.9076 58.8662 69.5773 58.5119 68.745C58.3759 68.4253 57.8095 66.7431 57.6873 66.3765C57.5651 66.0099 57.9233 66.0691 58.0093 66.2228C58.8762 67.7959 58.9661 68.3746 59.4626 68.9126C60.0249 69.4927 60.6913 69.9619 61.4269 70.2959C61.4884 70.3274 62.8225 71.3987 62.8433 71.4156C63.8047 72.1841 63.9376 72.1841 64.2081 72.9941C64.5732 74.0854 64.5155 74.0278 64.0752 73.7357C63.6571 73.4606 63.601 73.5236 62.2707 73.2785C61.7489 73.1824 61.4745 73.1194 61.4008 73.3423C61.121 74.1876 63.8031 73.3054 65.4277 75.8076C65.7644 76.3249 66.4268 76.1466 65.958 75.4879C64.4079 73.2985 65.138 72.1941 63.6302 71.3457C62.9543 70.8023 62.3222 70.2067 61.7397 69.5643C61.4845 69.3237 61.1756 68.6252 61.4522 68.4115C61.7289 68.1979 62.1685 69.3337 64.3726 70.9238C65.4577 71.7153 66.8449 72.3678 67.2922 73.3123ZM61.1856 71.6016C61.2432 71.2996 60.9412 71.1705 60.7844 71.3918C59.5087 73.184 60.3525 73.6312 60.5539 73.0756C60.7334 72.5716 60.9444 72.0793 61.1856 71.6016Z" fill="#FFCEB6"/>
<path d="M62.6739 76.9495C64.1809 77.9724 63.57 78.9215 63.5531 80.6675C63.5531 80.8043 63.0097 85.2248 62.7945 84.4271C61.6456 80.1634 61.3828 78.684 61.0193 78.7593C60.3845 78.8907 61.05 79.8921 62.0337 84.062C62.3657 85.4715 62.1836 85.6213 62.3634 86.3222C62.574 87.1391 61.5411 85.7704 60.8218 86.9109C60.6681 87.1553 60.5805 87.0969 60.0917 86.8425C59.8155 86.7044 59.5003 86.6651 59.1986 86.7309C58.8969 86.7968 58.6268 86.9639 58.4332 87.2045C58.1881 87.6317 57.8384 87.4957 57.375 87.3059C57.0512 87.2219 56.7077 87.262 56.4121 87.4185C56.1164 87.5749 55.89 87.8363 55.7773 88.1513C55.5898 88.5978 55.536 88.3265 54.7721 88.6454C54.4777 88.7691 54.6553 88.9228 54.6284 87.8769C54.5715 85.6482 53.919 82.329 54.0189 79.8844C54.1019 77.8279 55.0218 76.3585 58.63 75.1965C59.6275 74.8745 59.3416 74.6885 62.6739 76.9495Z" fill="#B4DBC5"/>
<path d="M57.3558 66.9468C58.6362 71.4233 60.5736 70.8032 59.8489 71.2627C59.6552 71.3857 58.5001 70.3989 57.6148 68.9049C57.0215 67.9059 57.1798 67.7606 56.2092 66.1252C56.0924 65.9285 56.0232 66.0246 55.7366 65.0778C55.5698 64.5267 56.1977 64.257 56.7449 65.3513C56.9973 65.8632 57.2018 66.3973 57.3558 66.9468Z" fill="#FFCEB6"/>
<path d="M58.2021 70.6382C59.1243 71.6373 59.796 71.9032 59.3587 71.9624C58.9035 71.7536 58.4756 71.4898 58.0845 71.177C56.5214 69.7406 56.5475 70.3063 55.2311 66.7273C55.0589 66.2593 55.1719 66.1356 55.2311 66.0948C55.3571 66.0088 55.5792 66.1555 55.673 66.2723C56.6889 67.5304 56.526 68.8261 58.2021 70.6382Z" fill="#FFCEB6"/>
<path d="M58.3972 74.6128C56.9458 74.9639 55.6228 75.7172 54.58 76.7861C54.3356 77.0843 54.2411 77.1704 54.1189 76.6032C53.9626 76.0691 53.9157 75.509 53.9809 74.9564C54.0461 74.4038 54.2222 73.87 54.4985 73.387C55.4876 71.7232 55.722 71.3635 55.9633 71.6555C56.1347 71.863 57.9614 73.6014 58.338 74.0103C58.8099 74.5167 58.9897 74.4475 58.3972 74.6128Z" fill="#FFA87D"/>
<path d="M55.4582 96.5218C55.5351 97.4617 56.4373 100.742 56.0023 100.815C53.2357 101.277 50.4898 101.815 49.7006 102.031C49.1234 102.19 49.035 102.203 48.9843 101.958C48.2727 98.4999 48.9036 101.913 47.2667 91.4735C47.0654 90.19 46.8402 91.0969 50.3584 90.0448C51.4711 89.7478 52.6027 89.5262 53.7452 89.3816C54.5053 89.2379 53.6138 91.6802 54.2478 92.4026C55.2415 93.5377 55.1362 92.5148 55.4582 96.5218Z" fill="#FFF59E"/>
<path d="M53.0882 103.666C53.2649 103.421 54.194 103.585 53.6376 104.796C53.0228 106.133 52.9268 106.364 52.4672 106.102C52.044 105.858 51.6336 105.591 51.2376 105.305C50.6996 104.921 50.5014 104.217 51.2545 103.851C51.6057 103.679 51.8539 103.96 52.1852 104.271C52.6109 104.672 52.7139 104.184 53.0882 103.666Z" fill="#FF9C9F"/>
<path d="M53.3272 126.179C51.8002 124.51 51.1178 120.326 50.765 117.942C49.1512 107.04 47.0616 94.9941 45.1549 84.0505C42.5174 68.884 38.7263 50.5435 37.0479 40.7005C35.0652 29.0768 33.9885 23.9938 33.7725 20.7699C33.5972 19.3085 33.755 17.8264 34.234 16.4347C34.713 15.0429 35.5008 13.7776 36.5384 12.7336C34.4042 13.2716 32.7727 16.4732 32.5767 17.3163C32.2926 18.9752 32.3069 20.6715 32.619 22.3254C32.6958 22.8949 45.2725 92.2228 45.2725 92.2228C46.4091 98.2687 46.041 99.6082 46.8095 100.286C47.4158 100.895 47.8158 101.679 47.9531 102.528C48.1698 103.342 47.7225 104.612 47.492 105.315C50.1372 120.897 49.9443 125.944 54.128 127.899C54.8788 128.199 55.6565 128.427 56.4505 128.579C56.2161 128.149 55.7288 128.804 53.3272 126.179Z" fill="#E0E0E0"/>
<path d="M43.2331 26.1989C44.293 26.4636 45.208 27.1308 45.7841 28.059C46.3601 28.9871 46.5519 30.1032 46.3187 31.1704C46.0458 32.3585 41.7991 30.6463 40.5725 33.7511C40.4303 34.1107 38.3085 32.9003 38.1755 30.0369C38.1868 29.4259 38.3365 28.8254 38.6133 28.2806C38.8901 27.7358 39.2868 27.2608 39.7736 26.8914C40.2604 26.522 40.8246 26.2678 41.4238 26.1478C42.023 26.0279 42.6416 26.0454 43.2331 26.1989ZM44.256 29.5696C44.2683 26.6224 40.1368 26.544 40.0461 29.3575C39.95 32.3255 44.2445 32.4385 44.256 29.5696Z" fill="#E3F0FF"/>
<path d="M45.5099 98.756C45.7366 99.7551 45.3071 98.8328 42.5543 97.3788C40.8067 96.4566 40.3025 96.9385 41.32 96.4566C42.6903 95.7469 43.8327 94.6652 44.6162 93.3357C44.7968 93.8875 45.3801 98.1827 45.5099 98.756Z" fill="#FFCEB6"/>
<path d="M43.728 88.1426C45.3211 90.9162 43.8049 93.8519 41.1289 95.5541C39.8171 96.388 36.9113 95.2951 35.4635 94.522C34.0806 93.7306 32.8219 92.7399 31.7277 91.5817C30.4697 90.4881 29.3945 90.3221 28.7236 86.4511C29.2547 83.3348 29.7619 83.1665 32.062 80.7411C32.4986 80.28 33.5991 79.3893 33.9833 79.8958C34.7281 80.7693 35.7375 81.3761 36.8583 81.6241C37.8797 81.9254 38.8518 80.6827 40.7915 81.9677C42.7804 83.2841 42.9072 83.2073 42.971 83.6415C43.0479 84.1425 43.293 85.7979 43.2846 86.0239C43.2331 85.9885 41.7014 84.5783 41.65 84.5253C41.0017 83.707 40.2362 82.9889 39.3782 82.3942C38.8772 82.0422 38.5244 82.5479 39.0908 82.9936C39.8908 83.6177 40.4034 84.5499 41.9735 85.9601C42.6702 86.5902 43.2624 87.3268 43.728 88.1426ZM42.6821 88.5269C43.2323 87.8291 42.4961 86.9169 41.8651 86.4711C39.13 84.5422 37.2233 82.1521 34.5789 84.1971C33.1625 85.2922 32.0628 86.2444 32.0789 87.886C32.0959 89.5867 35.1983 93.0434 35.943 93.6067C36.2531 93.8777 36.6577 94.0151 37.0687 93.989C37.4797 93.963 37.8637 93.7756 38.1371 93.4676C38.901 92.5723 38.8672 91.8438 39.5112 91.149C41.2434 89.2793 41.8997 89.5198 42.6821 88.5292V88.5269Z" fill="#FFCEB6"/>
<path d="M44.2789 32.288C42.3415 32.2326 39.4873 34.5167 42.3431 34.3568C42.9225 34.3875 44.5587 34.074 44.5164 33.4461C44.4603 32.623 44.996 32.3087 44.2789 32.288Z" fill="#FFFBE1"/>
<path d="M43.6718 29.4933C43.6718 27.4952 40.6546 27.3638 40.6315 29.3758C40.6191 29.5781 40.6472 29.781 40.7142 29.9723C40.7812 30.1637 40.8858 30.3398 41.0218 30.4901C41.1578 30.6405 41.3225 30.7622 41.5062 30.848C41.6899 30.9339 41.8889 30.9821 42.0915 30.9899C42.2941 30.9978 42.4962 30.965 42.686 30.8937C42.8758 30.8223 43.0494 30.7137 43.1966 30.5742C43.3439 30.4348 43.4617 30.2674 43.5433 30.0818C43.6249 29.8961 43.6686 29.6961 43.6718 29.4933Z" fill="#FFFBE1"/>
<path d="M42.1139 78.2539C42.2276 80.1506 37.5028 80.9591 36.9941 80.7754C36.0488 80.5122 35.2013 79.9779 34.5564 79.2384C34.0953 78.4991 33.8102 78.3561 34.1252 78.2462C34.8484 77.9918 34.8937 77.035 35.8636 75.7624C37.9178 73.0726 40.238 73.4907 39.7338 71.5356C39.3496 70.0462 36.7366 68.5937 35.8759 68.8066C33.5104 69.3938 31.9019 72.4186 31.8305 72.3679C31.1488 71.9068 32.3062 69.5183 32.9125 68.7989C34.5694 66.8339 34.7439 66.6471 35.0152 66.5126C36.5522 65.7441 37.7526 65.0901 39.3388 65.489C39.7999 65.6058 39.7615 65.2323 40.9688 72.009C41.2632 73.6644 41.6482 75.6164 42.1139 78.2539Z" fill="#FFCEB6"/>
<path d="M36.3301 48.1399C39.6485 64.3624 39.6124 63.8375 39.1951 63.517C34.4304 59.8075 31.3563 56.3446 30.5471 53.5856C29.8439 51.1955 30.5432 49.2474 32.2378 48.1937C33.1757 47.7181 34.243 47.5614 35.278 47.7472C36.2925 47.9163 36.2832 47.9094 36.3301 48.1399Z" fill="#FFCEB6"/>
<path d="M85.4655 88.2496C87.3445 89.0281 87.0501 89.3978 87.0025 86.9247C86.9932 86.4636 86.662 86.602 86.2916 86.8187C85.8812 87.0592 85.8981 86.8702 85.4985 86.3468C84.5302 85.078 84.2689 87.8577 82.748 86.2546C82.6451 86.1594 82.5229 86.0874 82.3898 86.0435C82.2567 85.9997 82.1156 85.9849 81.9763 86.0003C81.837 86.0157 81.7026 86.0608 81.5822 86.1327C81.4618 86.2045 81.3583 86.3014 81.2786 86.4167C80.7583 87.2083 79.7731 86.3522 79.511 86.177C79.2605 86.0117 79.332 85.9687 78.2814 86.1578C77.9909 86.21 78.0063 86.5013 77.9925 87.3197C77.9833 87.8346 79.5479 87.8308 79.8692 87.7924C81.2067 87.7078 82.5495 87.8178 83.8554 88.119C84.5502 88.2028 85.2572 88.1628 85.4655 88.2496Z" fill="white"/>
<path d="M62.2521 87.7155C62.3582 87.2544 62.3628 87.2544 61.9071 87.083C60.875 86.6988 61.7664 88.3126 59.909 87.395C59.2173 87.0507 59.0267 87.385 58.7377 87.7247C57.8493 88.7691 56.9064 86.8901 56.2017 88.5332C56.1295 88.6943 56.0064 88.8273 55.8513 88.9117C55.6963 88.9961 55.5177 89.0273 55.3432 89.0004C55.1637 89.0248 54.9958 89.103 54.8617 89.2249C54.7276 89.3468 54.6337 89.5065 54.5924 89.6829C54.5455 90.1163 54.5378 91.4005 54.8406 91.0892C57.1392 88.7253 57.2807 89.0035 61.6804 89.0719C62.0808 89.0781 61.9493 89.0412 62.2521 87.7155Z" fill="white"/>
<path d="M106.319 110.754C106.497 112.268 106.997 117.695 103.582 119.628C100.362 121.447 97.0178 121.532 84.1429 123.82C59.9003 128.128 55.2293 131.505 52.3781 121.862C52.0707 120.813 49.2142 103.101 49.2272 103.098C49.2096 102.899 49.1504 102.747 49.3809 102.703C54.9911 101.603 102.875 92.9987 102.88 93.0141C104.327 98.8653 105.475 104.786 106.319 110.754ZM88.7202 120.963C89.544 120.756 89.5478 119.751 88.5926 119.801C88.5849 119.668 80.0529 121.522 72.8243 122.672C71.7215 122.848 71.6546 123.902 72.301 124.017C72.8351 124.115 88.7002 120.968 88.7202 120.963ZM68.5737 108.831C68.7697 108.692 68.6721 108.031 67.912 108.473C67.5939 108.698 67.2052 108.8 66.8176 108.761C66.6017 108.727 66.3565 108.845 66.146 108.802C65.4543 108.66 65.0747 109.194 64.725 109.167C63.9696 109.106 63.9565 109.664 63.5123 109.474C63.1703 109.329 62.9313 109.326 61.6464 109.835C60.8986 110.132 60.4828 109.794 59.9725 110.126C59.3416 110.536 59.0611 110.099 58.4878 110.566C58.132 110.857 57.9345 111.087 57.5333 110.95C56.648 110.653 56.4435 111.232 55.4068 111.181C54.5107 111.137 54.5399 111.79 53.9797 111.592C53.4195 111.394 53.3649 111.969 52.5764 111.83C52.4913 111.809 52.4042 111.798 52.3167 111.796C52.2321 111.82 52.1573 111.87 52.1033 111.939C52.0493 112.008 52.019 112.093 52.0169 112.181C52.0561 112.478 52.4542 112.377 52.6248 112.426C53.3395 112.627 53.5032 112.103 54.0765 112.206C54.8819 112.351 54.6998 111.726 55.6289 111.813C56.4059 111.885 56.7048 111.33 57.5348 111.582C58.5285 111.889 58.5339 110.938 59.4477 110.953C60.104 110.965 60.2162 110.607 60.7703 110.641C61.5327 110.613 62.2813 110.428 62.969 110.097C63.4639 109.934 63.4301 110.537 64.3461 109.954C64.6674 109.749 64.7757 110.001 65.545 109.588C66.4073 109.134 66.8007 110.073 68.5737 108.831ZM58.8136 108.139C59.2148 108.114 59.5606 108.036 59.5007 107.612C59.4453 107.228 58.7798 107.458 58.6015 107.458C57.8222 107.47 57.8476 107.972 57.2428 107.902C56.734 107.845 56.7525 108.38 56.1423 108.077C55.3738 107.693 55.1432 108.978 55.5475 109.09C55.625 109.105 55.7051 109.088 55.7701 109.043C55.8351 108.998 55.8797 108.93 55.8941 108.852C55.9256 108.68 55.9486 108.725 56.5688 108.882C57.2697 108.608 57.1122 108.595 57.4833 108.569C58.2004 108.518 58.0728 108.184 58.8106 108.139H58.8136ZM54.4331 103.886C54.453 103.703 54.4113 103.518 54.3146 103.361C54.2179 103.204 54.0717 103.084 53.899 103.019C53.7906 102.954 53.67 102.911 53.5446 102.894C53.4192 102.876 53.2916 102.885 53.1695 102.918C53.0474 102.951 52.9333 103.009 52.8341 103.088C52.7349 103.167 52.6528 103.265 52.5925 103.376C52.3704 103.774 52.4127 103.51 52.0615 103.376C51.9245 103.302 51.7735 103.258 51.6184 103.246C51.4632 103.235 51.3073 103.256 51.1608 103.308C50.9529 103.353 50.7601 103.451 50.601 103.593C50.4418 103.734 50.3217 103.914 50.2523 104.115C50.1828 104.316 50.1662 104.532 50.2042 104.741C50.2422 104.95 50.3335 105.146 50.4692 105.31C51.0158 105.9 51.6874 106.361 52.435 106.657C52.9238 106.846 53.2189 106.879 53.4141 106.391C53.9158 105.632 54.2612 104.78 54.4301 103.886H54.4331ZM53.6224 109.426C54.1519 109.154 53.972 108.6 53.3918 108.797C52.7693 109.01 52.674 108.543 52.3728 108.981C52.2068 109.223 52.3051 109.126 52.123 109.265C52.0461 109.111 51.9424 109.001 52.1945 108.699C52.4627 108.378 52.1022 108.19 51.8871 108.213C51.6027 108.243 51.6242 108.383 51.4421 109.023C51.4759 109.217 51.4943 109.353 51.5243 109.484C51.5334 109.615 51.5852 109.739 51.6715 109.837C51.7579 109.936 51.8743 110.003 52.0027 110.03C52.1311 110.056 52.2645 110.039 52.3826 109.982C52.5007 109.925 52.5968 109.831 52.6563 109.715C52.8538 109.388 53.1059 109.688 53.6193 109.426H53.6224Z" fill="white"/>
<path d="M37.9218 72.8677C38.6681 72.5003 39.2183 72.1699 38.8994 71.4944C38.592 70.8488 38.2953 70.8127 37.6321 70.3009C36.1166 69.1297 35.4895 69.7629 34.6749 70.3869C33.7934 71.0594 32.1204 72.91 32.1204 73.8145C32.3355 74.8558 33.2055 78.3349 33.911 77.488C34.2537 77.076 35.1813 74.2149 37.9218 72.8677Z" fill="#FFE8E1"/>
<path d="M41.267 88.6292C42.2154 87.976 42.2207 87.8415 41.8934 87.5287C41.0963 86.8229 40.254 86.1698 39.3719 85.5737C37.5605 84.5162 36.4938 83.4987 34.6909 85.1125C31.8082 87.6855 32.3977 88.3972 35.5993 92.2274C36.344 93.1181 37.1501 93.6999 37.7557 92.6885C38.5849 91.3044 38.0547 90.8387 41.267 88.6292Z" fill="#FFE8E1"/>
<path d="M44.9645 99.9945C45.1728 99.8461 45.0368 99.7432 44.4512 99.3635C41.1258 97.2117 39.6587 96.3295 37.862 99.8615C36.9467 101.661 37.5607 102.28 38.8241 103.012C39.7656 103.565 40.7296 104.077 41.7137 104.549C42.6367 104.992 42.0081 102.097 44.9645 99.9945Z" fill="#FFE8E1"/>
<path d="M102.115 97.6461C102.418 99.2323 102.088 98.8841 101.307 98.4538C101.142 98.3631 100.944 98.2693 100.735 98.1318C100.243 97.8075 100.153 98.1725 100.033 98.3623C99.7107 98.8803 99.2465 99.9839 98.8869 99.2807C98.4789 98.1534 98.2017 96.983 98.0607 95.7924C97.8955 94.7488 98.508 94.9578 100.579 94.4475C101.806 94.147 101.597 94.9317 102.115 97.6461ZM101.36 97.8513C101.571 97.9681 101.603 97.7936 101.543 97.5623C101.47 97.278 101.207 95.7179 101.039 95.1576C100.996 95.0139 100.886 94.9478 100.467 95.0401C98.8308 95.3974 98.6002 95.2706 98.6709 95.754C98.7078 96.0114 98.7424 96.4234 99.1213 98.1879C99.1374 98.2601 99.1981 98.7112 99.4033 98.413C99.7822 97.8751 99.8767 97.2833 100.426 97.4624C100.749 97.563 101.061 97.6932 101.36 97.8513Z" fill="#000001"/>
<path d="M100.738 110.963C100.43 110.988 100.123 110.898 99.8776 110.71C99.632 110.523 99.4651 110.25 99.4093 109.946C99.3427 109.677 99.3613 109.393 99.4627 109.135C99.564 108.877 99.743 108.656 99.975 108.504C100.207 108.352 100.481 108.276 100.758 108.286C101.035 108.296 101.302 108.392 101.522 108.561C101.743 108.73 101.905 108.962 101.987 109.227C102.07 109.492 102.068 109.776 101.981 110.04C101.895 110.303 101.729 110.534 101.507 110.699C101.284 110.864 101.015 110.957 100.738 110.963ZM100.743 110.478C100.856 110.487 100.971 110.473 101.078 110.436C101.186 110.399 101.285 110.34 101.37 110.264C101.454 110.187 101.522 110.094 101.569 109.99C101.616 109.887 101.642 109.774 101.644 109.661C101.646 109.547 101.625 109.433 101.582 109.328C101.539 109.222 101.475 109.127 101.394 109.047C101.312 108.967 101.216 108.905 101.109 108.864C101.003 108.822 100.89 108.803 100.776 108.808C100.662 108.799 100.548 108.813 100.44 108.85C100.332 108.887 100.233 108.946 100.149 109.022C100.064 109.099 99.9966 109.192 99.9495 109.296C99.9023 109.399 99.8768 109.512 99.8746 109.626C99.8723 109.739 99.8933 109.853 99.9364 109.958C99.9794 110.064 100.044 110.159 100.125 110.239C100.206 110.319 100.303 110.381 100.409 110.423C100.515 110.464 100.629 110.483 100.743 110.478Z" fill="#000001"/>
<path d="M100.648 107.062C105.31 106.957 105.16 113.84 100.767 113.719C96.4747 113.833 96.4823 107.155 100.648 107.062ZM103.415 111.191C103.556 110.761 103.592 110.304 103.521 109.857C103.451 109.411 103.275 108.987 103.009 108.622C102.63 108.149 102.106 107.814 101.518 107.668C100.931 107.521 100.311 107.572 99.7547 107.811C99.1984 108.051 98.7361 108.467 98.4389 108.995C98.1416 109.522 98.0259 110.133 98.1093 110.733C98.1266 111.136 98.2381 111.529 98.4346 111.882C98.6312 112.234 98.9074 112.535 99.2413 112.761C99.697 113.056 99.6624 112.307 100.406 111.74C100.763 111.475 101.184 111.312 101.625 111.268C102.067 111.224 102.512 111.3 102.914 111.489C103.126 111.572 103.309 111.464 103.415 111.191ZM102.669 112.432C102.702 112.407 102.73 112.375 102.748 112.338C102.767 112.301 102.776 112.26 102.775 112.219C102.775 112.177 102.764 112.136 102.744 112.1C102.724 112.063 102.696 112.032 102.662 112.009C102.445 111.901 102.209 111.836 101.967 111.819C101.724 111.802 101.481 111.833 101.251 111.911C101.021 111.988 100.809 112.11 100.626 112.269C100.443 112.428 100.294 112.622 100.186 112.84C100.071 113.07 100.842 113.264 101.638 113.033C102.026 112.92 102.379 112.713 102.669 112.432Z" fill="#000001"/>
<path d="M92.3415 110.012C93.0493 112.062 94.2566 114.315 92.1616 114.872C90.1405 115.41 87.5506 116.255 86.8451 114.781C86.513 113.673 86.4056 112.51 86.5292 111.36C86.5079 111.12 86.5635 110.879 86.6878 110.673C86.8122 110.467 86.9989 110.306 87.2209 110.213C87.4999 110.082 87.5229 110.044 87.4945 109.838C87.2516 108.091 89.8354 107.302 90.8052 108.863C91.3624 109.76 91.9856 108.976 92.3415 110.012ZM91.9664 114.228C92.9947 113.911 92.758 113.119 92.3907 112.055C91.7067 110.073 91.7098 109.932 91.1111 110.024C87.0257 110.649 87.0003 110.532 87.1148 112.837C87.2386 115.204 87.6221 115.566 91.9664 114.226V114.228ZM89.2521 109.627C90.3572 109.415 90.3825 109.488 90.2511 109.264C89.6955 108.322 88.2046 108.792 88.1439 109.36C88.0732 110.012 88.3821 109.793 89.2521 109.627Z" fill="#000001"/>
<path d="M91.3246 111.101C91.3289 111.346 91.2788 111.589 91.1779 111.813C91.0769 112.037 90.9276 112.235 90.7407 112.394C90.5538 112.553 90.334 112.669 90.097 112.733C89.8601 112.797 89.6119 112.808 89.3703 112.764C87.1524 112.291 88.1722 111.074 88.5457 111.62C88.8185 112.019 89.9713 112.548 90.5062 111.766C90.6238 111.521 90.712 111.263 90.769 110.998C90.7905 110.932 90.8351 110.877 90.8945 110.841C90.9539 110.806 91.024 110.794 91.0918 110.806C91.1596 110.819 91.2206 110.856 91.2634 110.91C91.3063 110.964 91.328 111.032 91.3246 111.101Z" fill="#000001"/>
<path d="M90.3177 35.3983C90.3316 36.1883 89.4055 35.9363 89.3056 35.5389C89.0435 34.5084 90.3047 34.6359 90.3177 35.3983Z" fill="#000001"/>
<path d="M88.5897 119.801C89.545 119.751 89.5412 120.755 88.7173 120.963C88.7004 120.967 72.8353 124.113 72.2981 124.017C71.6518 123.9 71.7187 122.847 72.8215 122.672C80.0501 121.521 88.5821 119.668 88.5897 119.801Z" fill="#000001"/>
<path d="M88.4819 35.6362C88.4931 35.7132 88.488 35.7916 88.467 35.8664C88.4459 35.9412 88.4094 36.0108 88.3597 36.0706C88.3101 36.1304 88.2484 36.1791 88.1787 36.2136C88.109 36.248 88.0329 36.2675 87.9552 36.2706C87.8776 36.2737 87.8001 36.2605 87.7279 36.2318C87.6556 36.2031 87.5902 36.1595 87.5359 36.1039C87.4816 36.0483 87.4396 35.9819 87.4125 35.909C87.3855 35.8361 87.3741 35.7584 87.3791 35.6808C87.3679 35.6039 87.373 35.5255 87.394 35.4507C87.4151 35.3758 87.4516 35.3063 87.5012 35.2464C87.5509 35.1866 87.6126 35.1379 87.6823 35.1035C87.7519 35.069 87.8281 35.0496 87.9057 35.0465C87.9834 35.0433 88.0609 35.0566 88.1331 35.0853C88.2053 35.114 88.2707 35.1575 88.3251 35.2132C88.3794 35.2688 88.4214 35.3352 88.4484 35.408C88.4754 35.4809 88.4868 35.5587 88.4819 35.6362Z" fill="#000001"/>
<path d="M86.2956 35.5739C86.9473 35.9836 86.0912 37.0018 85.5271 36.4962C85.0137 36.0381 85.7561 35.2358 86.2956 35.5739Z" fill="#000001"/>
<path d="M85.1651 134.462C85.4602 134.827 85.3557 135.205 85.1651 135.265C83.2899 135.851 83.3122 126.888 84.0123 127.077C84.9084 127.106 84.0969 128.213 84.6118 133.046C84.6555 133.561 84.8477 134.053 85.1651 134.462Z" fill="#000001"/>
<path d="M85.0068 8.828C85.3796 9.33829 83.6466 12.0842 82.7144 14.186C82.5999 14.4435 82.4385 14.4358 82.1803 14.4235C81.992 14.4327 81.9413 14.2483 81.8375 13.9847C81.5778 13.3215 81.3856 12.088 81.1697 11.9505C80.5549 11.726 80.0169 11.537 79.0094 11.1051C78.9556 11.0641 78.9136 11.0096 78.8876 10.9472C78.8617 10.8847 78.8526 10.8165 78.8614 10.7495C78.8702 10.6824 78.8966 10.6189 78.9378 10.5653C78.9791 10.5117 79.0337 10.4699 79.0962 10.4442C80.7407 9.80054 82.4173 9.24211 84.1192 8.77113C84.5004 8.69197 84.8777 8.64586 85.0068 8.828ZM84.5127 9.64954C84.517 9.63886 84.5177 9.62706 84.5146 9.61597C84.5115 9.60488 84.5049 9.59511 84.4957 9.58819C84.4865 9.58127 84.4752 9.57758 84.4637 9.57769C84.4522 9.57781 84.4411 9.58172 84.432 9.58882C84.3874 9.62571 82.0027 11.6208 81.9259 11.693C81.7222 11.8836 81.7468 11.9382 81.7906 12.0865C81.9574 12.8888 82.1388 13.4045 82.2402 13.7549C82.2428 13.7633 82.2477 13.7707 82.2545 13.7764C82.2612 13.782 82.2694 13.7855 82.2781 13.7866C82.2868 13.7877 82.2956 13.7862 82.3035 13.7823C82.3114 13.7785 82.3179 13.7724 82.3224 13.7649C82.616 13.2585 83.6374 11.2419 84.3052 10.083C84.383 9.94278 84.4523 9.79804 84.5127 9.64954ZM84.0916 9.38209C84.1991 9.28757 84.6372 9.02166 83.642 9.34367C82.455 9.73296 81.2749 10.1429 80.1022 10.5733C79.5858 10.7685 79.6142 10.8546 79.7218 10.8953C81.3426 11.5101 81.0859 11.7914 82.759 10.4557C83.1286 10.1598 83.6074 9.80631 84.0916 9.38209Z" fill="#000001"/>
<path d="M81.6282 58.6899C81.9271 58.6691 81.8972 58.9673 81.9548 59.4584C81.3569 63.1964 81.5375 61.6348 81.5221 63.7958C81.5221 64.2131 80.4339 65.2906 81.3584 60.0893C81.5729 58.8912 81.3208 58.7114 81.6282 58.6899Z" fill="#000001"/>
<path d="M81.0059 114.581C81.1969 115.171 81.2412 115.799 81.135 116.41C81.0826 116.618 80.9767 116.809 80.8277 116.963C80.6787 117.118 80.4919 117.23 80.2858 117.29C79.0755 117.618 77.8481 117.88 76.6093 118.074C75.4565 118.27 75.0407 117.369 74.834 116.257C74.6503 115.265 74.3491 114.7 74.2868 113.894C74.2376 113.256 74.887 112.731 75.3589 112.521C76.2627 112.119 78.9394 111.43 79.8454 111.838C80.5348 112.148 80.4856 112.885 81.0059 114.581ZM78.8464 116.944C80.4602 116.406 81.1073 117.108 80.1844 113.803C80.1659 113.738 80.1467 113.521 79.9046 113.519C79.0293 113.512 75.7308 114.556 75.1222 114.634C74.9193 114.661 75.0115 114.834 75.0984 115.111C75.362 115.956 75.4411 116.868 75.8031 117.263C75.9034 117.359 76.0295 117.423 76.166 117.449C76.3024 117.474 76.4434 117.46 76.5716 117.406C77.3117 117.172 78.1032 117.19 78.8464 116.944ZM79.0001 113.128C79.8308 112.938 79.9569 113.017 79.9023 112.752C79.8524 112.51 79.5995 112.2 78.9609 112.2C78.3223 112.2 78.4567 112.33 78.7111 112.928C78.7278 112.99 78.766 113.045 78.8189 113.081C78.8718 113.118 78.936 113.135 79.0001 113.128ZM77.0173 113.52C78.0886 113.244 78.3568 113.393 77.978 112.585C77.9411 112.508 77.9826 112.541 77.8127 112.438C76.4071 112.723 76.5831 112.611 76.846 113.432C76.8729 113.518 76.9236 113.547 77.0173 113.52ZM75.0353 114.123C76.4863 113.682 76.4709 113.886 76.1189 113.011C75.9944 112.703 75.4473 112.964 75.1122 113.309C74.7771 113.654 74.5681 114.162 75.0353 114.123Z" fill="#000001"/>
<path d="M78.9265 54.2594C78.9465 54.5215 78.7328 54.6729 78.3593 54.2656C77.7222 53.5739 76.083 52.5026 75.16 51.5889C74.6989 51.1331 73.3925 49.5031 73.4501 48.8568C74.5906 49.6515 74.088 50.1133 76.3128 51.8855C78.0196 53.2442 78.3501 53.3096 78.9265 54.2594Z" fill="#000001"/>
<path d="M77.4724 114.501C79.363 114.65 79.3292 114.732 77.9612 116.122C77.5055 116.583 77.2834 115.468 77.165 115.165C77.0113 114.772 77.1927 114.498 77.4724 114.501Z" fill="#000001"/>
<path d="M77.1666 10.6857C77.9574 12.2811 76.561 13.6783 75.4382 15.2637C75.3486 15.3856 75.2155 15.4685 75.0665 15.4953C74.9175 15.522 74.7639 15.4906 74.6374 15.4074C73.9673 14.7565 73.0758 14.4129 72.4026 13.7682C70.718 12.1543 71.9123 10.0494 73.5239 10.3575C74.3323 10.5112 74.2962 10.9185 74.423 10.6173C74.8772 9.53906 76.6394 9.62206 77.1666 10.6857ZM76.7593 11.6932C76.8461 10.5205 75.4697 10.0724 74.984 11.0215C74.0895 12.7722 74.2201 10.2768 72.7554 11.103C72.5766 11.2074 72.4315 11.3608 72.3371 11.545C72.2427 11.7293 72.203 11.9367 72.2228 12.1428C72.086 12.7407 73.0566 13.4385 73.5585 13.7897C75.0432 14.8272 74.9748 14.7957 75.0955 14.6204C76.3143 12.8813 76.6947 12.5785 76.7593 11.6932Z" fill="#000001"/>
<path d="M77.0712 57.9596C76.9943 58.7543 76.3672 58.1525 76.2258 58.0956C74.9017 57.5761 74.5105 58.0956 73.3639 57.4347C73.0234 57.238 72.7491 56.9905 72.9981 56.6854C73.1879 56.4503 73.5261 56.8076 73.951 56.9398C75.0546 57.2841 76.6062 56.9959 77.0712 57.9596Z" fill="#000001"/>
<path d="M74.9979 10.9797C75.4967 10.0044 76.91 10.4648 76.8216 11.6713C76.7547 12.5805 76.3605 12.8917 75.1132 14.6777C74.9864 14.8576 75.0571 14.8906 73.5324 13.8239C73.0159 13.4635 72.0199 12.748 72.1598 12.1332C72.1397 11.9215 72.1805 11.7084 72.2774 11.5192C72.3744 11.3299 72.5234 11.1723 72.707 11.065C74.2133 10.2142 74.078 12.7772 74.9979 10.9797Z" fill="white"/>
<path d="M75.7455 59.3712C75.9453 59.5588 75.6402 59.7755 75.1307 60.1974C73.8181 61.2879 73.5937 61.8113 73.2724 61.6852C73.1092 61.6397 72.9582 61.5582 72.8307 61.4466C72.7031 61.335 72.6022 61.1962 72.5354 61.0404C72.4847 60.8522 72.663 60.6608 72.8075 60.5025C73.2406 60.0494 73.7094 59.6318 74.2092 59.2537C74.3629 59.1176 74.4997 58.9001 74.698 58.9693C75.0629 59.0579 75.415 59.193 75.7455 59.3712Z" fill="white"/>
<path d="M74.3062 65.9361C74.1701 66.2512 74.0756 66.6608 73.7682 66.5693C73.437 66.471 73.716 65.9791 73.384 66.2404C71.9614 67.3609 69.639 70.0007 68.1735 68.6028C67.4726 67.935 66.2922 65.196 65.8111 64.6834C65.7514 64.7561 65.6972 64.8332 65.6489 64.914C65.516 65.1745 65.0549 65.0892 65.1786 64.7311C65.6843 63.2594 66.8962 63.307 66.3314 64.0018C66.0501 64.3499 66.5619 64.406 67.0338 64.4452C69.4123 64.6419 73.6929 66.046 73.3186 65.2667C73.052 64.7088 74.0503 64.5243 74.3062 65.9361ZM72.4479 66.0898C72.3057 66.0398 72.4733 66.0583 71.641 65.9507C70.2715 65.7739 67.8822 65.01 66.9615 65.0469C66.6103 65.0615 67.2005 65.7616 67.5441 65.8431C70.5343 66.5555 72.0767 67.032 72.4479 66.0936V66.0898ZM70.346 67.8228C69.9618 67.3094 69.7612 67.2418 68.8913 67.1419C68.3533 67.198 67.9913 67.1734 68.1827 67.47C68.6008 68.1202 68.8928 68.8057 70.346 67.8266V67.8228Z" fill="#000001"/>
<path d="M71.641 65.9535C72.4733 66.0611 72.3058 66.0427 72.4479 66.0926C72.0767 67.031 70.5343 66.5537 67.5441 65.8459C67.2006 65.7645 66.6103 65.0644 66.9615 65.0498C67.8822 65.0129 70.2715 65.7768 71.641 65.9535Z" fill="white"/>
<path d="M71.2751 61.9036C71.3449 61.8887 71.4178 61.8985 71.4811 61.9314C71.5445 61.9644 71.5944 62.0183 71.6223 62.0841C71.6502 62.1498 71.6544 62.2232 71.6341 62.2916C71.6138 62.3601 71.5702 62.4194 71.511 62.4592C69.8764 63.7987 67.8014 61.524 69.2193 60.604C70.6226 59.6926 70.1999 60.7424 69.911 60.9291C69.4499 61.2296 69.2616 61.3042 69.5782 61.7537C70.0547 62.4239 70.8747 61.9804 71.2751 61.9036Z" fill="#000001"/>
<path d="M70.2122 14.2304C70.4512 15.885 70.1684 16.0479 69.9125 16.2976C69.559 16.6427 68.7298 16.7626 66.4542 17.1092C65.4705 17.2583 65.1478 16.8402 65.0117 16.5582C64.5533 15.5934 64.2768 14.5523 64.1964 13.4872C64.1495 13.2697 64.1603 13.0437 64.2277 12.8317C64.2951 12.6196 64.4168 12.4289 64.5806 12.2783C65.4375 11.5352 67.4241 11.2578 68.583 11.3715C68.881 11.3878 69.1641 11.5066 69.3845 11.7077C69.605 11.9088 69.7491 12.1799 69.7926 12.4751C69.9792 13.048 70.1195 13.635 70.2122 14.2304ZM69.1363 15.9587C69.2367 15.9357 69.3316 15.8931 69.4155 15.8333C69.4994 15.7735 69.5706 15.6978 69.6251 15.6103C69.6796 15.5229 69.7163 15.4256 69.733 15.3239C69.7498 15.2223 69.7463 15.1184 69.7227 15.0181C69.5459 13.2651 69.2946 12.4344 68.8428 12.0977C68.2587 11.6658 67.5494 11.9156 66.5372 12.0901C65.7449 12.2269 65.2584 12.3398 65.0002 12.6626C64.4308 13.3727 64.928 14.6331 65.3076 15.8865C65.3691 16.0915 65.5023 16.2674 65.683 16.382C65.8637 16.4967 66.0797 16.5423 66.2913 16.5105C67.2544 16.413 68.2066 16.2283 69.1363 15.9587Z" fill="#000001"/>
<path d="M70.1639 118.456C70.5996 118.686 70.3499 119.251 69.8749 119.038C68.4716 118.412 68.7175 118.215 68.2196 118.654C67.8999 118.947 67.5023 119.142 67.0747 119.214C66.647 119.286 66.2077 119.233 65.8096 119.061C65.4115 118.889 65.0716 118.605 64.8311 118.244C64.5905 117.884 64.4595 117.461 64.4539 117.027C64.4531 116.533 64.6068 116.051 64.8934 115.648C65.18 115.246 65.5852 114.943 66.0524 114.782C66.4359 114.673 66.8415 114.667 67.2278 114.766C67.6141 114.865 67.9674 115.064 68.2517 115.343C68.536 115.623 68.7412 115.973 68.8464 116.357C68.9515 116.742 68.953 117.148 68.8505 117.533C68.7567 117.886 68.9435 117.806 70.1639 118.456ZM68.3356 117.041C68.3395 116.822 68.2995 116.603 68.2181 116.4C68.1367 116.196 68.0155 116.01 67.8615 115.854C67.7075 115.697 67.5238 115.573 67.3213 115.489C67.1187 115.404 66.9013 115.361 66.6818 115.361C64.4085 115.249 64.4846 118.627 66.6756 118.624C67.103 118.625 67.5142 118.461 67.8235 118.166C68.1327 117.871 68.3162 117.468 68.3356 117.041Z" fill="#000001"/>
<path d="M69.1147 55.8804C70.3075 55.5438 70.037 57.1261 68.0765 56.5498C67.0882 56.2593 66.8261 56.0195 65.8202 56.3961C65.5796 56.4867 65.359 56.6896 65.1846 56.426C64.7957 55.835 66.3543 55.5807 66.7408 55.4954C68.4315 55.8942 68.6321 56.0172 69.1147 55.8804Z" fill="#000001"/>
<path d="M67.8575 13.7937C68.5369 13.6477 69.0364 13.5632 68.7083 14.2126C68.676 14.2763 68.5661 14.3094 68.4839 14.3371C68.0512 14.4815 67.6877 14.284 67.9697 14.8865C68.1235 15.2116 68.1934 15.6289 67.8622 15.6658C67.2858 15.7288 67.4356 14.5838 66.9522 14.6076C66.6759 14.6863 66.3929 14.7395 66.1069 14.7667C65.7695 14.7966 65.7311 14.2994 66.03 14.198C67.2942 13.773 66.8854 14.105 66.6886 13.2988C66.5734 12.8277 67.0153 12.6279 67.2558 13.0805C67.6055 13.7299 67.4656 13.879 67.8575 13.7937Z" fill="#000001"/>
<path d="M67.9122 108.475C68.6722 108.033 68.7698 108.694 68.5738 108.833C66.8009 110.075 66.4074 109.135 65.5452 109.601C64.7766 110.014 64.6675 109.762 64.3463 109.966C63.4318 110.549 63.464 109.946 62.9691 110.11C62.2814 110.44 61.5329 110.625 60.7704 110.653C60.2132 110.619 60.1041 110.978 59.4478 110.966C58.5317 110.951 58.5256 111.9 57.535 111.595C56.7065 111.34 56.406 111.895 55.6291 111.825C54.7 111.738 54.8821 112.363 54.0767 112.219C53.5034 112.116 53.3397 112.64 52.625 112.439C52.4544 112.39 52.0563 112.491 52.0171 112.193C52.0192 112.106 52.0495 112.021 52.1034 111.952C52.1574 111.882 52.2322 111.832 52.3168 111.809C52.4044 111.811 52.4915 111.822 52.5766 111.843C53.3651 111.982 53.4219 111.408 53.9799 111.605C54.5378 111.801 54.5109 111.15 55.407 111.194C56.4437 111.243 56.6481 110.665 57.5334 110.963C57.9346 111.097 58.1321 110.867 58.4879 110.579C59.0612 110.111 59.3417 110.549 59.9727 110.138C60.483 109.807 60.8949 110.145 61.6465 109.848C62.9315 109.338 63.1705 109.341 63.5124 109.487C63.959 109.675 63.9697 109.117 64.7252 109.179C65.0748 109.207 65.4575 108.673 66.1461 108.814C66.3582 108.858 66.6018 108.737 66.8178 108.773C67.2066 108.81 67.5955 108.704 67.9122 108.475Z" fill="#000001"/>
<path d="M67.1751 57.5994C68.2579 58.0044 68.0358 57.581 65.6281 59.9011C65.4636 60.0602 65.3806 60.1885 65.2861 60.0948C65.0932 59.9019 64.7896 59.7221 64.8111 59.2786C64.8273 58.9428 65.3614 58.587 65.7779 58.2427C66.1545 57.9268 66.6494 57.4004 67.1751 57.5994Z" fill="white"/>
<path d="M62.9031 51.3443C64.5023 47.6916 68.59 48.8397 65.5829 49.5414C62.9092 50.1654 62.9384 53.9657 62.402 55.9692C62.3382 56.2051 61.9517 56.2128 62.0024 55.8739C62.4051 53.1818 62.4435 52.3933 62.9031 51.3443Z" fill="#000001"/>
<path d="M61.1906 101.573C67.1082 100.267 65.8332 100.486 63.3863 104.902C63.3623 104.961 63.3202 105.01 63.266 105.043C63.2118 105.076 63.1484 105.091 63.0853 105.085C63.0222 105.079 62.9627 105.053 62.9156 105.01C62.8685 104.968 62.8363 104.911 62.8237 104.849C62.3442 102.611 62.9874 103.303 61.4343 102.544C60.5297 102.096 60.831 101.652 61.1906 101.573ZM64.7765 101.65C64.8203 101.573 64.8818 101.437 64.7535 101.529C64.2523 101.888 63.7573 102.254 63.2687 102.63C63.141 102.73 63.0581 102.877 63.0381 103.038C63.0504 103.123 63.1073 103.942 63.1565 104.24C63.1577 104.248 63.1615 104.256 63.1674 104.262C63.1733 104.269 63.181 104.273 63.1895 104.275C63.1979 104.276 63.2067 104.275 63.2145 104.272C63.2224 104.268 63.229 104.263 63.2333 104.255C63.5054 103.807 64.7096 101.765 64.7765 101.65ZM64.4691 101.276C63.4525 101.457 62.4488 101.704 61.4642 102.015C61.8249 102.25 62.2329 102.402 62.6593 102.461C63.5454 101.856 64.4537 101.358 64.4668 101.276H64.4691Z" fill="#000001"/>
<path d="M61.2351 59.3247C61.72 59.4147 58.9841 63.6407 60.13 66.1698C60.7717 67.5847 57.3803 66.3935 60.8547 59.5922C60.9769 59.3532 61.0407 59.2894 61.2351 59.3247Z" fill="#000001"/>
<path d="M60.7843 71.3921C60.938 71.1708 61.2454 71.2999 61.1854 71.6019C60.9448 72.0796 60.7343 72.5719 60.5552 73.0759C60.3524 73.6316 59.5085 73.1843 60.7843 71.3921Z" fill="#000001"/>
<path d="M125.625 145.703C125.382 145.509 122.382 138.292 122.335 138.163C119.545 130.548 119.18 131.899 120.284 120.982C121.55 108.455 120.098 101.819 120.048 93.2161C120.025 88.8902 120.524 89.1746 117.666 82.4255C116.33 79.2746 113.733 74.9541 112.936 70.8902C112.538 68.8613 112.611 67.9353 112.388 66.4743C111.908 63.1157 110.39 59.9912 108.047 57.5381C106.774 56.3836 105.869 54.8794 105.447 53.2137C104.973 51.6037 104.87 49.2428 104.404 45.9559C103.687 40.8837 102.803 40.126 101.306 40.408C100.86 40.4827 100.42 40.5908 99.9895 40.7316C96.7233 41.7837 96.0701 45.1359 95.725 45.8698C92.5027 30.9746 91.3507 17.4296 89.3971 10.3739C88.6932 7.83324 88.1168 6.72582 86.9971 5.8282C83.7855 3.25984 80.66 4.55478 78.14 4.87909C68.8495 6.0672 80.8429 4.70003 45.4599 9.88977C25.4741 12.8216 31.7036 17.3766 36.0541 46.8681C36.1056 47.2101 36.0126 47.1164 35.2672 46.9911C31.7059 46.3901 29.4903 48.8855 29.4903 52.094C29.4903 57.0854 38.531 63.9213 39.0521 64.4531C34.6954 64.7021 33.9031 66.399 32.3761 68.1528C31.2909 69.3985 30.5439 71.5857 31.1249 73.1481C31.4322 74.6881 31.8711 76.1989 32.4368 77.6638C32.6214 78 32.8498 78.3101 33.1161 78.586C33.5772 79.2477 32.8272 78.3186 30.6907 80.87C30.1043 81.5709 28.5958 82.5308 28.1131 84.9101C27.8448 86.1888 27.9457 87.5175 28.4042 88.741C28.8626 89.9644 29.6597 91.0323 30.7022 91.8198C31.6936 92.483 31.317 92.7689 34.9083 95.1443C34.9229 95.1551 35.062 95.2704 34.8891 95.3065C32.9332 95.7345 29.0615 100.734 31.1441 104.614C35.6683 113.041 37.8701 110.625 41.7941 116.952C47.5695 126.259 49.4216 127.464 52.5817 130.746C54.6721 133.178 57.1591 135.238 59.9371 136.839C60.359 137.098 69.2745 143.275 75.5179 149.827C76.2164 150.561 76.633 150.282 76.5938 149.872C76.5062 148.891 70.2566 143.643 69.8148 143.263C61.0599 135.798 59.6528 136.926 51.7056 128.647C42.9369 119.508 43.1398 115.487 38.8569 112.059C37.1704 110.819 35.6103 109.415 34.199 107.869C30.7191 103.5 31.1534 102.311 31.9073 99.6816C32.3727 98.5804 33.0841 97.6003 33.9869 96.8166C34.4127 96.4232 34.9346 96.1488 35.5001 96.021C36.0656 95.8931 36.6547 95.9162 37.2084 96.0881C39.4755 96.8204 39.7238 96.7167 39.1243 97.1209C37.8946 98.1626 37.0546 99.5907 36.742 101.172C36.4799 102.811 39.0767 103.976 40.5207 104.761C41.7257 105.417 41.8072 105.4 42.2629 105.331C42.6426 105.273 42.8009 104.711 42.9953 104.088C43.2107 103.362 43.5287 102.67 43.9398 102.033C44.3905 101.493 44.9086 101.013 45.4814 100.605C45.8588 100.291 46.0763 100.592 46.5305 101.073C48.2043 102.846 46.9193 107.012 43.4341 107.328C41.5488 107.323 39.674 107.048 37.8663 106.513C36.0864 106.059 34.6424 105.568 34.5671 106.001C34.534 106.195 34.5579 106.338 34.9821 106.472C38.508 107.577 44.5054 109.355 46.615 106.647C47.87 105.034 47.5687 122.325 51.7471 127.15C55.1101 131.031 58.8174 129.371 76.0604 126.347C87.037 124.426 84.9075 123.867 85.2287 125.958C85.9742 130.812 86.6121 131.934 87.7349 134.231C89.3779 137.594 89.5278 137.359 89.8413 137.188C90.4377 136.862 87.7179 133.138 86.9141 129.887C86.7342 129.158 85.5507 124.508 86.3062 124.389C86.3208 124.389 97.6548 122.522 101.055 121.739C106.854 120.403 107.801 115.899 107.34 110.952C107.179 109.243 102.698 86.6477 102.695 86.6323C101.862 82.653 100.339 72.9021 99.8558 69.8904C98.8244 63.4779 96.5335 50.8106 96.3852 49.2613C96.2165 47.9893 96.3282 46.6959 96.7126 45.4717C97.4165 43.4498 98.4333 41.9489 100.614 41.361C101.729 41.0597 101.633 41.2388 101.643 41.5477C101.729 44.0554 101.693 48.3636 102.894 50.1466C103.552 51.1257 104.218 50.64 104.303 51.2225C105.148 56.9863 107.992 58.0876 109.18 60.2194C113.778 68.4847 110.171 69.0189 114.81 78.6368C116.242 81.6055 119.191 87.2602 119.157 90.5586C119.029 102.69 119.862 102.954 119.827 108.216C119.729 123.525 118.912 120.771 118.771 128.494C118.68 133.423 121.409 137.74 123.273 142.875C124.104 145.161 125.848 147.586 126.176 148.485C126.187 148.552 126.214 148.615 126.255 148.669C126.296 148.722 126.349 148.766 126.41 148.795C126.471 148.824 126.538 148.837 126.606 148.835C126.673 148.832 126.739 148.814 126.798 148.78C127.64 148.437 125.92 145.937 125.625 145.703ZM42.8847 11.1263C42.9 11.1263 76.6506 6.04107 79.355 5.50696C84.2082 4.54786 85.6568 6.00495 86.257 6.46837C87.5089 7.429 88.0645 8.81232 88.6394 10.6552C89.912 14.7467 90.4446 20.6681 91.612 28.0112C93.222 38.1448 93.4871 37.7459 93.033 37.8428C89.5024 38.5913 75.5693 40.6647 73.2746 41.1081C65.9084 42.6452 43.2505 46.7144 40.5799 47.0134C40.1342 47.0633 39.2888 47.3861 39.0483 46.6522C38.7693 45.7999 38.3458 43.7887 37.3921 38.0664C35.0866 24.2286 33.485 19.6829 35.5592 15.5122C36.6298 13.3581 38.6701 11.8733 42.8847 11.1263ZM30.5439 53.5834C29.8407 51.1941 30.5393 49.2444 32.2346 48.1915C33.1725 47.7159 34.2399 47.5591 35.2749 47.745C36.2862 47.9202 36.2739 47.9095 36.3239 48.14C39.6577 64.3625 39.6123 63.8376 39.195 63.5171C34.4264 59.8044 31.3586 56.3423 30.5439 53.5834ZM31.8273 72.368C31.1434 71.9123 32.3023 69.5184 32.9094 68.7991C34.5655 66.834 34.7408 66.6472 35.012 66.5128C36.5491 65.7442 37.7495 65.091 39.3357 65.4891C39.7968 65.6059 39.7591 65.2316 40.9657 72.0091C41.2608 73.6645 41.645 75.6173 42.1108 78.2548C42.2245 80.1515 37.4997 80.96 36.991 80.7763C36.0456 80.5132 35.1981 79.9788 34.5532 79.2393C34.0921 78.4992 33.807 78.357 34.1221 78.2471C34.8453 77.992 34.8906 77.0359 35.8605 75.7633C37.9147 73.0735 40.2364 73.4916 39.7307 71.5365C39.3464 70.0471 36.7335 68.5939 35.8728 68.8075C33.5104 69.3939 31.9019 72.4164 31.8304 72.368H31.8273ZM42.6772 81.7385C42.7179 82.4301 42.7832 82.4839 42.4366 82.2595C40.3194 80.8885 40.4085 81.0622 40.812 80.9039C42.299 80.3175 42.2852 79.6612 42.3774 80.1223C42.7271 81.8737 42.6971 81.7361 42.6772 81.7385ZM32.1194 73.8151C32.1194 72.9106 33.7916 71.0593 34.6739 70.3876C35.4885 69.7659 36.1164 69.1303 37.6311 70.3015C38.2943 70.8126 38.5925 70.8494 38.8984 71.495C39.2173 72.1705 38.6678 72.501 37.9209 72.8683C35.1803 74.2155 34.2535 77.0767 33.91 77.4886C33.2045 78.3355 32.3346 74.8557 32.1194 73.8151ZM35.4624 94.5226C34.0797 93.731 32.821 92.7402 31.7267 91.5823C30.4694 90.4879 29.3935 90.3227 28.7226 86.4517C29.2544 83.3354 29.7593 83.1656 32.061 80.7417C32.4975 80.2806 33.598 79.3899 33.9822 79.8963C34.727 80.7699 35.7364 81.3767 36.8572 81.6247C37.8786 81.926 38.8507 80.6833 40.7905 81.9682C42.7794 83.2847 42.9062 83.2078 42.97 83.6421C43.0468 84.1431 43.2927 85.7985 43.2835 86.0244C43.232 85.9891 41.7004 84.5789 41.6489 84.5258C40.9995 83.7086 40.2342 82.9907 39.3772 82.3948C38.8761 82.042 38.5234 82.5485 39.0898 82.9942C39.8898 83.6175 40.3824 84.5727 41.9724 85.9606C42.6613 86.5976 43.2529 87.3322 43.7285 88.1409C45.2962 90.9291 43.8053 93.8502 41.1294 95.5524C39.8168 96.3885 36.911 95.2957 35.4624 94.5226ZM44.9635 99.9936C42.007 102.098 42.6357 104.989 41.7127 104.551C40.7279 104.08 39.7638 103.567 38.8231 103.014C37.5597 102.278 36.9448 101.659 37.8609 99.863C39.6569 96.3278 41.1232 97.2132 44.4501 99.365C45.0365 99.7423 45.1725 99.8453 44.9642 99.9936H44.9635ZM42.5534 97.3807C40.8058 96.4585 40.3017 96.9403 41.3192 96.4585C42.6895 95.7488 43.8319 94.6671 44.6153 93.3376C44.7959 93.8878 45.3785 98.1792 45.5091 98.7571C45.7374 99.7515 45.3078 98.8301 42.5542 97.3784L42.5534 97.3807ZM54.1226 127.9C49.938 125.948 50.1317 120.897 47.4865 105.316C47.7324 104.56 48.1735 103.354 47.9476 102.528C47.8133 101.679 47.4129 100.894 46.804 100.286C46.0355 99.6086 46.4052 98.2691 45.267 92.2232C45.267 92.2232 32.6888 22.8952 32.6135 22.3258C32.3016 20.6724 32.2867 18.9767 32.5697 17.3182C32.7688 16.4728 34.398 13.2712 36.5314 12.7356C35.4956 13.7799 34.7094 15.045 34.2317 16.4361C33.7539 17.8272 33.5969 19.3084 33.7724 20.7688C33.9892 23.9965 35.0651 29.0764 37.0478 40.6993C38.7255 50.5424 42.8501 68.8267 45.1548 84.0494L50.7649 117.941C51.1723 120.317 51.8001 124.508 53.3272 126.178C55.7287 128.802 56.216 128.149 56.4458 128.577C55.6517 128.425 54.874 128.198 54.1233 127.897L54.1226 127.9ZM54.2448 92.4046C55.2438 93.5397 55.1301 92.5168 55.4575 96.5238C55.5343 97.4645 56.4365 100.745 56.0016 100.817C53.2349 101.279 50.4891 101.817 49.6998 102.033C49.1226 102.192 49.0335 102.205 48.9835 101.96C48.2658 98.5019 48.9013 101.915 47.2659 91.4755C47.0646 90.1921 46.8394 91.0974 50.3576 90.0468C51.4705 89.7502 52.6019 89.5286 53.7445 89.3836C54.503 89.2376 53.6115 91.6807 54.2455 92.4023L54.2448 92.4046ZM60.5027 54.1989C60.4884 52.8094 60.9127 51.4507 61.7154 50.3164C62.3426 49.4886 63.1839 48.8477 64.1485 48.4628C64.6609 48.2423 65.2154 48.1366 65.773 48.1531C66.3305 48.1696 66.8778 48.3078 67.3763 48.5581C67.812 48.6488 67.8527 48.3098 67.6545 48.097C67.4562 47.8841 67.045 47.8849 66.9628 46.7137C66.8583 45.1651 68.2478 44.4081 69.7479 43.9924C71.5593 43.4928 72.6582 44.7762 72.2632 44.8539C71.5124 44.9991 70.1114 45.1912 69.4343 46.0988C69.0847 46.5684 68.964 47.7819 69.3905 47.7411C70.0353 47.682 68.8526 46.1004 71.7998 45.5494C74.02 45.1367 75.9621 46.6391 77.5329 47.526C78.9216 48.3083 81.2271 47.7972 80.7606 48.3483C80.5186 48.7024 80.2001 48.9977 79.8288 49.2123C79.4574 49.427 79.0426 49.5556 78.6149 49.5886C77.7235 49.7808 72.8803 44.993 70.9614 47.5652C70.7692 47.8241 70.9706 48.1346 71.311 47.911C72.8481 46.9042 73.4629 47.0118 79.7877 51.1218C81.3163 52.1163 82.6404 52.0917 83.4166 52.4475C83.0321 52.8017 82.588 53.0851 82.1047 53.2844C80.3656 54.0114 79.2989 51.991 78.5888 51.5545C78.0908 51.2471 76.882 50.4363 76.3233 50.4425C76.2696 50.4433 76.2178 50.463 76.1771 50.4979C76.1363 50.5328 76.109 50.5809 76.0999 50.6339C76.0907 50.6868 76.1004 50.7413 76.1272 50.7878C76.1539 50.8344 76.1961 50.8702 76.2464 50.889C76.777 51.0851 77.2811 51.3463 77.7473 51.6667C78.1784 51.9695 81.7159 55.3309 81.8204 55.4731C82.5359 56.4522 83.3259 58.1122 83.1991 59.2826C83.0154 60.9664 83.847 61.7918 83.857 62.9945C83.7504 63.9139 83.5754 64.824 83.3336 65.7173C83.1153 67.0622 83.691 67.4619 83.8301 70.3753C83.8431 70.6573 83.8131 70.6466 83.518 70.612C82.6012 70.5029 82.2761 70.7127 82.0364 70.2923C81.8627 69.9849 81.4838 69.9849 81.221 69.9534C80.8183 69.908 82.5436 66.6234 81.9941 66.1577C81.9091 66.0834 81.8057 66.0333 81.6946 66.0127C81.5836 65.9922 81.4691 66.0019 81.3631 66.0409C80.5893 66.3298 80.2719 67.3389 80.1451 67.5502C80.0467 67.7155 79.7247 67.4665 79.1913 68.0751C77.0756 70.4921 78.1531 69.4723 78.6726 66.3314C79.179 63.2758 78.6726 63.4656 79.335 61.4898C79.4119 61.2592 80.703 57.6027 79.9207 57.3959C79.4488 57.2699 79.9629 58.1314 79.1521 60.2686C78.1485 62.92 78.5373 63.2512 78.1846 65.7758C78.1077 66.3137 77.446 69.7197 77.1709 69.2456C77.1517 69.2141 76.8927 68.1973 76.1657 68.7845C73.7249 70.7649 73.2062 70.791 73.4567 70.5728C77.9848 66.6296 77.5767 62.5803 77.7942 61.2684C78.0685 59.6192 79.5333 56.8111 78.0294 55.4147C75.6547 53.2106 74.0369 54.3234 72.118 49.2175C71.859 48.5258 71.4179 48.4489 71.4263 48.7464C71.4394 49.2305 71.6922 49.3842 71.3579 49.3735C70.2981 49.3396 67.5384 49.6878 66.7346 50.3418C64.4067 52.2377 64.5458 52.1716 63.5652 56.2785C62.6077 60.2924 61.7254 61.0371 62.5908 65.1002C63.6867 70.2431 67.709 73.1035 61.677 67.9437C61.2543 67.5833 60.7548 68.0828 60.794 68.7122C60.814 68.9996 60.9031 69.3071 60.492 69.1103C58.9257 68.3626 58.7528 65.5083 57.7053 65.5506C57.4464 65.5613 57.2635 65.5398 57.1451 65.2647C57.0223 64.8728 56.9657 64.4632 56.9776 64.0528C56.9092 61.9701 57.8583 60.5991 59.267 59.1958C60.8701 57.6634 60.4343 56.0134 60.5035 54.1966L60.5027 54.1989ZM87.1977 77.7107C86.8349 86.0828 87.1569 85.9837 86.6866 86.0421C86.5037 86.0636 86.31 86.2166 86.154 86.1766C85.998 86.1366 85.8996 85.9261 85.7652 85.7985C85.6464 85.6765 85.5025 85.5819 85.3434 85.5213C85.1843 85.4607 85.0138 85.4356 84.844 85.4478C84.6742 85.4599 84.5091 85.509 84.3603 85.5916C84.2114 85.6743 84.0824 85.7884 83.9822 85.9261C83.3613 86.7491 83.1753 85.1629 81.9618 85.4411C80.6945 85.7301 80.9282 86.4963 80.2588 86.0452C77.3899 84.1116 78.1462 88.5198 78.6188 81.3903C78.5954 80.611 78.6489 79.8313 78.7786 79.0625C78.814 78.9188 78.8739 78.5069 78.6065 78.4477C78.1454 78.3493 78.057 79.9225 77.9148 82.8221C77.838 84.399 77.5406 84.4152 77.3915 87.5722C77.3 89.4643 78.691 88.8879 78.6173 89.7609C78.4144 92.1141 78.502 91.6284 78.3867 91.8705C77.6482 91.3517 71.3256 80.9192 73.6942 77.9259C74.7078 76.6455 76.6914 76.0815 78.213 75.4997C78.5881 75.356 79.9037 74.3969 81.3547 73.7052C82.1524 73.321 82.3914 72.4672 81.6183 72.3219C80.8206 72.1682 80.3518 72.6001 81.5845 71.4481C81.8319 71.2176 81.9318 71.0777 82.2216 71.1054C82.7867 71.1127 83.3495 71.181 83.9 71.309C85.8681 71.9915 86.5706 73.0289 86.7804 74.091C87.0161 75.2837 87.1559 76.4934 87.1984 77.7084L87.1977 77.7107ZM84.9544 95.7561C82.9847 96.1995 80.0582 96.593 72.274 98.0024C70.8761 98.2545 68.8695 83.4883 68.5767 79.0433C68.7127 77.0851 68.6266 74.8088 70.5971 73.0266C71.1852 72.5559 71.8392 72.1743 72.5383 71.8939C73.9242 71.2428 75.2005 70.3805 76.3217 69.3378C76.7529 69.2141 76.7213 69.9265 75.6723 70.6443C73.8364 71.8939 72.6352 72.6416 72.4538 74.3462C73.1001 74.2486 73.137 72.9575 74.1576 72.3888C74.875 71.8867 75.6223 71.4288 76.3955 71.0178C78.1631 70.3676 79.1214 68.8552 79.674 68.2211C79.8084 68.0674 79.8907 68.3088 79.7754 68.6254C79.4548 69.4478 78.8719 70.1415 78.117 70.5989C76.4139 71.5811 76.4624 71.7448 76.1188 71.5473C76.0765 71.5162 76.0271 71.496 75.9751 71.4885C75.9231 71.481 75.8701 71.4864 75.8207 71.5042C75.7791 71.5294 75.7453 71.5655 75.7228 71.6086C75.7004 71.6516 75.6901 71.7 75.6932 71.7485C75.6963 71.7969 75.7126 71.8436 75.7404 71.8835C75.7681 71.9233 75.8062 71.9548 75.8506 71.9745C76.4215 72.4058 76.9032 72.9437 77.2693 73.5584C77.413 73.7813 77.3946 73.8497 77.2509 73.9427C77.0334 74.0895 76.9181 74.0818 76.7698 73.9058C76.6859 73.8297 76.618 73.7378 76.57 73.6353C76.4216 73.1196 75.2958 72.2927 75.8721 73.2649C76.364 74.0926 76.4647 74.1871 76.1373 74.2393C74.7986 74.282 73.4706 74.4919 72.1841 74.8641C71.7811 75.0089 71.4236 75.2575 71.1477 75.5849C70.8719 75.9124 70.6875 76.3069 70.6132 76.7285C70.6286 76.8016 70.7116 76.8607 70.7669 76.9253C70.82 76.8769 70.893 76.8392 70.9206 76.7785C71.6953 75.0878 73.0363 75.2369 77.3508 74.4345C77.941 74.3223 81.4899 72.0821 81.41 72.9213C81.3739 73.301 80.2719 73.613 78.6764 74.6121C76.3294 76.083 72.2917 76.0722 72.6052 80.2414C73.0325 85.953 78.2976 92.8104 79.551 95.1182C79.7977 95.5755 80.1427 95.4318 80.1773 95.1482C80.248 94.5687 79.9245 94.3935 79.1206 93.0793C79.0238 92.921 79.0061 92.7935 79.2159 88.7941C79.2313 88.5121 79.2359 88.5121 79.5279 88.4867C82.5697 88.2493 81.8496 88.7603 85.052 88.9086C86.2816 88.9663 85.9919 89.3475 85.6952 92.4592C85.4585 94.913 85.9988 95.5217 84.9544 95.7561ZM78.1147 57.0463C78.0237 57.8067 77.8598 58.5567 77.6251 59.2857C77.5529 59.5162 77.5229 59.5355 77.3139 59.4133C75.7838 58.5203 75.056 58.5564 73.6903 58.2221C73.1675 58.1506 72.6359 58.1766 72.1226 58.2989C72.0034 58.3124 71.89 58.3576 71.7942 58.4298C71.6984 58.502 71.6236 58.5985 71.5777 58.7093C71.2964 59.2903 71.1512 58.541 70.1506 58.7216C69.6126 58.8184 70.6063 57.3506 65.1645 56.7127C64.4513 56.6297 64.0886 57.1154 64.1593 56.6735C64.9416 51.7405 66.0298 50.5716 70.8861 49.8968C72.1241 50.0282 71.6476 49.9045 72.2409 51.1264C74.1184 54.9989 78.3629 54.9713 78.1147 57.0463ZM75.1298 60.1971C73.8172 61.2877 73.5927 61.811 73.2715 61.685C73.108 61.6401 72.9567 61.5588 72.8291 61.4471C72.7014 61.3354 72.6007 61.1963 72.5345 61.0402C72.483 60.8527 72.6613 60.6598 72.8066 60.5022C73.2391 60.0486 73.7079 59.6309 74.2083 59.2534C74.362 59.1174 74.4988 58.8991 74.6971 58.9691C75.0615 59.0566 75.4131 59.1909 75.743 59.3687C75.9451 59.5585 75.6393 59.7752 75.1321 60.1971H75.1298ZM65.6256 59.899C65.4604 60.058 65.3774 60.1864 65.2836 60.0926C65.09 59.9005 64.7872 59.7207 64.8087 59.2765C64.8248 58.9406 65.3597 58.5848 65.7755 58.2405C66.152 57.927 66.647 57.3998 67.1726 57.5973C68.2577 58.0007 68.0372 57.5804 65.6279 59.899H65.6256ZM66.4856 61.2777C68.2531 61.5774 69.14 60.1518 69.5542 59.6915C69.818 59.4639 70.159 59.3461 70.507 59.3624C70.8549 59.3787 71.1834 59.5279 71.4248 59.7791C71.6446 59.982 71.6553 60.3578 71.7898 60.7628C72.1318 61.7772 72.8988 62.3766 74.3036 62.6141C76.5069 62.9861 77.0249 60.533 77.0249 62.3313C76.9617 63.7423 76.6137 65.1259 76.002 66.399C74.8466 68.6977 72.9131 70.5119 70.5456 71.5188C65.0961 74.1318 61.5002 63.4226 63.5522 58.8669C63.8204 58.2674 63.8903 60.8373 66.4879 61.2777H66.4856ZM67.5769 72.4072C68.1652 72.5834 68.7795 72.6572 69.3928 72.6255C70.033 72.5555 70.2951 72.4802 70.0845 72.6946C68.4161 74.4115 68.9955 75.4536 68.3215 74.0096C68.1978 73.746 67.5861 72.7108 67.5077 72.4802C67.5044 72.4702 67.504 72.4595 67.5064 72.4492C67.5088 72.439 67.5139 72.4296 67.5213 72.4221C67.5287 72.4146 67.538 72.4092 67.5482 72.4066C67.5584 72.4039 67.5691 72.4042 67.5792 72.4072H67.5769ZM71.1435 97.9609C71.2434 98.3106 71.3057 98.1915 67.9281 98.7525C67.9142 98.7279 68.1955 93.1424 68.2969 89.0078C68.5613 78.3762 67.8251 86.3633 71.1458 97.9609H71.1435ZM81.6982 66.877C81.2771 68.0413 80.9297 68.8567 80.5885 70.0633C80.477 70.4629 77.9417 72.6116 77.5275 72.8799C77.484 72.8554 77.4433 72.8263 77.4061 72.793C76.7436 72.0422 76.7221 72.0545 76.9719 71.9092C78.6757 70.9171 79.3642 70.6604 79.9153 69.3731C80.2408 68.4395 80.6436 67.5347 81.1195 66.668C81.1735 66.5943 81.2465 66.5367 81.3307 66.5012C81.4149 66.4658 81.5071 66.4538 81.5975 66.4666C81.712 66.4912 81.7712 66.6818 81.7005 66.877H81.6982ZM81.6129 70.5789C81.622 70.5867 81.6295 70.5963 81.6348 70.607C81.6402 70.6177 81.6434 70.6294 81.6441 70.6413C81.6449 70.6533 81.6433 70.6653 81.6394 70.6766C81.6355 70.6879 81.6294 70.6984 81.6214 70.7073C81.0919 71.2844 78.2192 74.1264 77.8149 73.4332C77.6466 73.1442 77.9886 73.1081 78.7786 72.4341C80.3748 71.0739 81.0557 70.0871 81.6152 70.5789H81.6129ZM85.4631 88.25C85.2549 88.1632 84.5478 88.2032 83.8493 88.1194C82.5436 87.8166 81.2006 87.7066 79.863 87.7928C79.5418 87.8304 77.9771 87.835 77.9863 87.3201C78.0001 86.5017 77.9863 86.2112 78.2753 86.1581C79.3251 85.9722 79.2528 86.0129 79.5049 86.1774C79.77 86.3534 80.7552 87.2087 81.2725 86.4171C81.3522 86.3019 81.4558 86.2051 81.5761 86.1333C81.6965 86.0616 81.8309 86.0164 81.9702 86.0011C82.1095 85.9857 82.2505 86.0004 82.3836 86.0442C82.5167 86.088 82.6389 86.1599 82.7418 86.255C84.2627 87.8589 84.5233 85.0792 85.4923 86.3472C85.892 86.8713 85.8766 87.0604 86.2854 86.8191C86.6559 86.6031 86.9871 86.464 86.9963 86.9251C87.0501 89.3982 87.3437 89.0316 85.4654 88.25H85.4631ZM57.3557 66.947C58.6621 71.4158 60.5734 70.8033 59.8487 71.2629C59.6551 71.3859 58.5 70.3991 57.6147 68.9051C57.0214 67.9061 57.182 67.7593 56.2091 66.1254C56.0922 65.9287 56.0223 66.0255 55.7364 65.0779C55.5681 64.5254 56.1975 64.2626 56.7447 65.3515C56.9978 65.8631 57.2023 66.3972 57.3557 66.947ZM58.201 70.6358C59.1233 71.6349 59.7949 71.8992 59.3576 71.9599C58.9025 71.7511 58.4745 71.4874 58.0835 71.1745C56.5195 69.7382 56.5726 70.2954 55.23 66.7249C55.0609 66.2561 55.1716 66.1331 55.23 66.0924C55.356 66.0063 55.5781 66.1531 55.6719 66.2699C56.6902 67.5295 56.5249 68.8267 58.2018 70.6381L58.201 70.6358ZM56.6317 70.645C58.5815 72.6432 59.2877 72.1928 59.2193 72.8291C59.1571 73.4209 59.6451 73.3187 59.7188 72.9175C59.9608 72.112 60.3316 71.3511 60.817 70.6642C60.9923 70.3422 60.5688 70.3392 60.5096 70.416C60.11 70.9063 58.865 69.5783 58.5115 68.7453C58.3755 68.4263 57.8091 66.7433 57.6869 66.3767C57.5647 66.0101 57.9228 66.0693 58.0089 66.223C58.2979 66.7502 58.4977 67.1575 58.6537 67.4841C59.1256 68.4755 59.28 69.2033 61.4265 70.2992C61.488 70.3307 62.8213 71.402 62.8428 71.4189C63.7996 72.1874 63.9372 72.1874 64.2077 72.9974C64.5728 74.0887 64.5151 74.0311 64.0748 73.739C63.6575 73.4632 63.6006 73.5254 62.2703 73.2818C61.7485 73.185 61.4749 73.1227 61.4003 73.3456C61.1237 74.1909 63.8027 73.3094 65.4273 75.8109C65.7639 76.3282 66.4264 76.1499 65.9576 75.4912C64.4075 73.3018 65.1368 72.1982 63.6298 71.349C62.9533 70.8064 62.3211 70.2107 61.7393 69.5676C61.4833 69.3278 61.1752 68.6285 61.4518 68.4148C61.7285 68.2012 62.1681 69.337 64.3722 70.9271C65.4573 71.7109 66.8445 72.3634 67.2925 73.3094C67.8601 74.1781 68.1648 75.1921 68.1701 76.2298C66.9521 100.768 67.9173 98.7271 66.4717 98.9992C57.959 100.598 58.9403 100.125 56.9645 100.625C56.7393 100.682 56.7755 100.509 56.734 100.033C56.6794 99.3627 56.5249 98.7179 56.4158 98.0608C55.7848 94.2605 56.1268 94.2951 55.6319 92.6974C54.8696 90.2382 57.5255 89.4604 60.2599 89.7164C61.6709 89.8478 61.9176 89.4858 61.7085 90.1429C60.6549 93.4736 59.2677 96.0181 59.2493 96.9004C59.187 99.4926 63.5453 89.6164 64.21 78.812C64.3891 75.9185 61.3074 76.2236 57.202 72.159C56.5743 71.5715 55.9606 70.9694 55.3614 70.353C55.0586 70.0341 54.5299 69.5891 54.5929 69.2686C54.6159 69.1587 54.7281 69.1088 54.8611 69.108C55.0335 69.1087 55.1999 69.1715 55.3299 69.2848C55.7095 69.606 56.4173 70.4275 56.6325 70.6473L56.6317 70.645ZM62.2511 87.7128C61.9437 89.0385 62.0805 89.0754 61.6724 89.0693C57.275 88.9978 57.1382 88.7242 54.8327 91.0866C54.5299 91.3979 54.5376 90.1129 54.5844 89.6802C54.6257 89.5038 54.7195 89.344 54.8536 89.2221C54.9877 89.1003 55.1557 89.022 55.3353 88.9978C55.5098 89.0248 55.6884 88.9937 55.8435 88.9093C55.9986 88.8248 56.1216 88.6918 56.1937 88.5305C56.9 86.8867 57.846 88.768 58.7298 87.7221C59.0187 87.3832 59.2062 87.0489 59.901 87.3924C61.7592 88.3146 60.8685 86.7007 61.8991 87.0804C62.3602 87.2525 62.3602 87.251 62.2519 87.7151L62.2511 87.7128ZM55.9654 71.651C56.1368 71.8585 57.9636 73.5961 58.3401 74.0057C58.8089 74.5114 58.988 74.4438 58.3962 74.6082C56.9446 74.9589 55.6215 75.7123 54.5791 76.7816C54.3339 77.0798 54.2401 77.1658 54.1179 76.5987C53.9619 76.0646 53.9151 75.5045 53.9803 74.9519C54.0455 74.3993 54.2215 73.8655 54.4976 73.3825C55.4913 71.7248 55.7241 71.3643 55.9662 71.6564L55.9654 71.651ZM54.0188 79.8864C54.1018 77.8298 55.0217 76.3604 58.6299 75.1984C59.6289 74.8764 59.343 74.6905 62.6753 76.9514C64.1823 77.9743 63.5683 78.9234 63.5545 80.6695C63.5545 80.8063 63.0111 85.2267 62.796 84.429C61.6432 80.1661 61.3842 78.6852 61.0207 78.7612C60.3851 78.8911 61.053 79.8933 62.0351 84.064C62.3679 85.4734 62.185 85.6233 62.3648 86.3242C62.5754 87.1411 61.5433 85.7731 60.8232 86.9128C60.6695 87.158 60.5826 87.0988 60.0931 86.8444C59.8169 86.7064 59.5017 86.667 59.2 86.7329C58.8983 86.7987 58.6283 86.9658 58.4347 87.2064C58.1911 87.6345 57.8398 87.4984 57.3764 87.3078C57.0526 87.2236 56.7091 87.2637 56.4134 87.4202C56.1176 87.5766 55.8912 87.8381 55.7787 88.1532C55.5912 88.5989 55.5366 88.3269 54.7735 88.6474C54.4784 88.7703 54.6574 88.9248 54.6298 87.8788C54.5721 85.6502 53.9189 82.3302 54.0188 79.8864ZM102.867 93.0963C104.319 98.9192 105.47 104.813 106.316 110.754C106.493 112.267 106.994 117.695 103.578 119.628C100.359 121.447 97.0146 121.53 84.1398 123.82C59.8971 128.123 55.2231 131.509 52.375 121.862C52.0676 120.813 49.211 103.101 49.2241 103.098C49.2064 102.9 49.1472 102.747 49.3778 102.703C51.6718 102.253 61.3665 100.672 71.6261 98.8324C86.466 96.1703 102.861 93.0878 102.867 93.0963ZM102.448 92.4353C100.896 92.9018 86.8011 95.3795 86.3592 95.4748C85.9581 95.5593 86.4315 91.3925 86.4468 90.3081C86.4514 90.0322 86.5644 90.0852 87.1077 89.9884C87.854 89.8554 87.3076 89.7133 87.6711 83.8403C87.8117 81.5486 87.5074 81.6885 88.2859 81.6624C90.1888 81.4549 92.0758 81.1212 93.9344 80.6633C95.1417 80.4013 97.6233 80.0623 99.7505 79.7288C100.85 79.5567 100.233 79.0433 101.707 86.3503C102.976 92.6344 102.748 92.3447 102.448 92.4353ZM100.44 78.7559C100.507 79.1401 100.594 79.0433 96.8378 79.5912C91.6481 80.3467 93.793 80.3644 90.742 80.7233C87.4928 81.1029 87.6603 81.7146 87.7118 80.3159C87.8417 76.7762 87.9423 75.5842 87.1093 73.1627C86.8465 72.3942 86.3316 71.95 85.2725 71.2283C84.7815 70.894 84.3657 71.1676 84.3626 70.499C84.3488 67.7201 83.7586 67.634 83.8631 66.2176C83.9341 65.5472 84.0592 64.8836 84.2374 64.2334C84.7407 62.0439 83.6571 61.436 83.7924 59.5255C83.7944 58.539 83.593 57.5626 83.2008 56.6574C82.8086 55.7522 82.2341 54.9375 81.513 54.2643C80.7806 53.6164 82.1278 54.5156 83.9553 52.7618C84.2504 52.4805 84.3657 52.3438 84.2735 52.1762C83.8554 51.4192 83.3559 52.2531 80.5985 50.9896C80.1206 50.7597 79.6735 50.4708 79.2674 50.1297C79.7886 49.9188 80.2795 49.64 80.7276 49.3005C81.6882 48.5496 81.8035 47.3254 80.9512 47.4937C79.0299 47.8733 77.2362 46.6552 76.47 46.198C75.4904 45.64 74.4486 45.1992 73.366 44.8846C72.7159 44.2183 71.8575 42.5114 68.6067 43.6842C68.1509 43.895 67.7255 44.1658 67.3417 44.4896C66.3488 45.202 66.3595 46.7429 66.4833 47.2954C66.6032 47.8334 65.6587 47.1417 63.8242 47.8941C61.1483 48.9854 59.8164 51.8819 59.9333 54.7699C59.8564 56.6643 60.0063 57.5012 59.0587 58.4534C58.0539 59.3011 57.2792 60.3885 56.8062 61.615C55.9424 64.2003 56.704 64.1096 55.9332 64.0835C55.3422 64.0635 55.1216 64.5769 55.3068 65.1233C55.3883 65.3631 55.4306 65.5529 55.2692 65.5621C55.1413 65.5587 55.016 65.598 54.9129 65.6737C54.8098 65.7494 54.7348 65.8572 54.6997 65.9802C54.4108 66.8132 55.8648 68.733 55.2377 68.6569C54.5153 68.5685 54.2717 68.8021 54.1456 69.2233C54.0788 69.4684 54.1648 69.742 54.7128 70.4006C55.2046 70.9924 55.4344 70.9878 55.2653 71.2314C53.6822 73.5031 52.9813 74.3869 53.7199 77.1443C53.8213 77.5224 54.1272 77.4379 53.8805 77.8675C52.5433 80.1861 54.7804 88.6043 53.8559 88.811C51.5573 89.3344 53.6837 88.6689 47.2667 90.1644C46.781 90.2774 45.7958 82.9888 45.6697 82.2895C41.3661 58.2782 39.7161 50.8897 39.3787 48.6349C39.1958 47.7596 40.3778 47.6858 40.676 47.6451C48.7169 46.5307 77.5091 41.0421 77.5244 41.0405C77.5398 41.039 91.5505 38.9371 92.3859 38.6066C92.6244 38.5276 92.8711 38.476 93.1213 38.4529C93.3035 38.4253 93.4364 38.6889 93.5824 39.2676C94.1972 41.766 95.0626 48.2315 96.1777 53.0685L100.44 78.7559ZM104.186 50.0136C103.223 49.8038 102.735 47.247 102.566 46.1227C102.373 44.557 102.289 42.9798 102.316 41.4025C103.426 42.3063 104.267 49.3443 104.186 50.0129V50.0136Z" fill="#000001"/>
<path d="M59.4323 104.07C59.4131 104.531 60.1332 105.263 59.8849 105.584C59.709 105.811 58.6638 105.297 58.5124 105.346C58.2385 105.537 57.9193 105.654 57.5864 105.685C57.2535 105.715 56.9184 105.659 56.6142 105.52C56.2901 105.293 56.0378 104.978 55.8871 104.612C55.7365 104.246 55.6938 103.845 55.7642 103.456C56.0071 101.748 58.4993 101.503 59.2371 102.66C59.4308 103.103 59.4983 103.591 59.4323 104.07ZM59.4822 105.2C59.5514 105.11 58.965 104.659 58.9965 103.981C59.0457 102.919 58.4717 102.538 58.0797 102.461C57.7452 102.37 57.3891 102.4 57.0747 102.547C56.7602 102.693 56.5077 102.946 56.3619 103.26C56.216 103.575 56.1863 103.931 56.2779 104.265C56.3695 104.6 56.5766 104.891 56.8624 105.087C57.8461 105.632 58.1935 104.642 58.7622 104.924C58.8513 104.968 59.4438 105.25 59.4822 105.2Z" fill="#000001"/>
<path d="M59.8889 120.465C59.9896 121.055 59.8712 121.063 59.2741 121.225C58.1152 121.544 57.9738 121.497 57.9061 121.321C57.5526 119.869 57.7816 119.668 57.3958 119.77C56.4821 120.011 56.5436 119.63 56.7979 121.158C56.8556 121.503 56.884 121.642 56.6811 121.687C56.2111 121.817 55.7316 121.909 55.2471 121.964C54.9927 121.997 54.8021 121.945 54.7276 121.591C54.1589 118.877 54.0359 119.775 56.0778 117.021C56.2838 116.743 56.3545 116.714 56.6788 116.833C57.1891 117.028 58.6654 117.801 58.9336 117.946C59.1246 118.033 59.2905 118.167 59.4163 118.335C59.7197 119.005 59.8806 119.73 59.8889 120.465ZM58.9482 120.711C59.2464 120.641 59.3786 120.661 59.3325 120.36C58.9882 118.108 59.158 118.812 56.8817 117.578C56.6035 117.424 56.5336 117.412 56.3315 117.696C54.7875 119.867 54.8659 119.157 55.2156 121.105C55.2648 121.378 55.3385 121.452 55.6091 121.392C56.293 121.239 56.323 121.347 56.2431 120.915C56.2108 120.74 56.157 120.3 56.104 119.997C56.0179 119.494 56.1455 119.548 57.2168 119.331C57.8201 119.208 58.0691 119.204 58.1182 119.514C58.2089 120.084 58.2842 120.502 58.338 120.744C58.3765 120.908 58.6278 120.784 58.9482 120.708V120.711Z" fill="#000001"/>
<path d="M59.4977 107.611C59.5577 108.036 59.2118 108.114 58.8107 108.139C58.0737 108.183 58.2005 108.517 57.4804 108.568C57.1092 108.594 57.2667 108.607 56.5659 108.882C55.9833 108.735 55.9226 108.682 55.8942 108.832C55.8896 108.872 55.8767 108.912 55.8563 108.947C55.8359 108.982 55.8084 109.013 55.7756 109.037C55.7428 109.061 55.7053 109.079 55.6656 109.088C55.6258 109.097 55.5846 109.098 55.5445 109.09C55.1418 108.977 55.3708 107.695 56.1393 108.076C56.7495 108.379 56.7311 107.846 57.2398 107.902C57.8447 107.971 57.8193 107.469 58.5986 107.458C58.7769 107.455 59.4401 107.226 59.4977 107.611Z" fill="#000001"/>
<path d="M58.5753 27.9655C58.7336 34.2672 49.3608 34.537 49.1287 28.3105C48.8882 21.8466 58.42 21.7482 58.5753 27.9655ZM49.6859 28.1192C49.7366 33.5994 57.9628 33.5041 57.9535 28.1023C57.9443 22.5114 49.6367 22.8318 49.6859 28.1184V28.1192Z" fill="#000001"/>
<path d="M58.2695 34.095C58.7614 34.0274 58.7307 34.6276 58.4233 34.7214C57.0738 35.1379 57.1345 34.7798 56.2153 35.3446C55.5529 35.7527 55.37 35.0741 54.9488 35.4553C53.3611 36.9001 53.4525 34.8581 52.7086 35.5175C52.4756 35.7784 52.2217 36.0197 51.9493 36.2392C51.884 36.2876 50.8396 36.4328 52.4104 35.0364C53.6331 33.9513 53.4802 36.1592 54.7244 34.8512C55.2624 34.2856 55.5091 35.0487 56.0063 34.7106C56.2624 34.5301 56.5567 34.411 56.8663 34.3625C57.3402 34.3093 57.8093 34.2199 58.2695 34.095Z" fill="#000001"/>
<path d="M54.5332 39.6932C54.959 39.5318 55.5369 40.1289 54.1328 40.5147C52.7764 40.338 53.7847 40.5916 52.3014 40.6546C51.5568 40.6853 51.4115 40.4771 50.9181 40.7906C49.8015 41.5007 49.9068 40.4725 49.1383 41.1049C48.4558 41.6667 48.07 40.9889 47.6927 41.3732C46.782 42.3015 46.42 40.9889 46.108 41.5899C45.5701 42.622 45.1213 41.4492 46.0719 40.7922C46.2202 40.6892 46.6022 40.8928 46.7636 40.9797C47.1816 41.2056 47.2116 40.9951 47.5705 40.6723C48.1776 40.1282 48.1415 41.0027 48.8639 40.5501C50.2787 39.664 49.4902 40.8337 50.7852 40.132C51.6813 39.6456 51.6636 40.1897 52.4098 39.9506C52.8194 39.8192 52.7287 40.0928 53.1991 39.8215C53.7532 39.5041 53.704 40.0098 54.5332 39.6932Z" fill="#000001"/>
<path d="M53.8959 103.019C54.0686 103.084 54.2148 103.204 54.3115 103.361C54.4082 103.518 54.4499 103.703 54.43 103.886C54.2601 104.781 53.9134 105.633 53.4102 106.392C53.215 106.881 52.9199 106.847 52.4311 106.659C51.6835 106.362 51.0119 105.902 50.4653 105.312C50.3296 105.148 50.2383 104.952 50.2003 104.742C50.1623 104.533 50.1789 104.317 50.2484 104.116C50.3179 103.915 50.4379 103.735 50.5971 103.594C50.7562 103.453 50.949 103.355 51.1569 103.31C51.3034 103.257 51.4593 103.236 51.6145 103.248C51.7696 103.259 51.9206 103.303 52.0576 103.377C52.4088 103.51 52.365 103.774 52.5887 103.377C52.6487 103.266 52.7308 103.167 52.83 103.089C52.9292 103.01 53.0433 102.952 53.1656 102.918C53.2878 102.885 53.4155 102.876 53.5411 102.894C53.6666 102.911 53.7873 102.954 53.8959 103.019ZM53.6377 104.796C54.1941 103.585 53.2649 103.421 53.0882 103.666C52.7139 104.184 52.6109 104.671 52.1875 104.273C51.8563 103.962 51.608 103.682 51.2568 103.853C50.5037 104.22 50.6981 104.923 51.2399 105.307C51.636 105.594 52.0464 105.86 52.4695 106.105C52.9268 106.364 53.0229 106.134 53.6377 104.797V104.796Z" fill="#000001"/>
<path d="M53.3925 108.797C53.9689 108.6 54.1488 109.154 53.6231 109.425C53.1097 109.688 52.8546 109.388 52.6578 109.719C52.5983 109.836 52.5022 109.93 52.3841 109.987C52.2661 110.044 52.1326 110.06 52.0042 110.034C51.8758 110.008 51.7595 109.94 51.6731 109.842C51.5867 109.743 51.535 109.619 51.5258 109.488C51.4959 109.356 51.4774 109.219 51.4436 109.027C51.6257 108.387 51.6042 108.247 51.8886 108.217C52.1068 108.194 52.4673 108.383 52.196 108.703C51.9439 109.005 52.0477 109.118 52.1245 109.269C52.3066 109.13 52.2083 109.227 52.3743 108.985C52.6771 108.542 52.77 109.013 53.3925 108.797Z" fill="#000001"/>
<path d="M52.2737 17.2889C52.3767 17.3112 52.6526 17.7915 52.1423 18.1665C51.6566 18.5239 51.3054 18.1404 50.7859 17.7608C50.4577 17.5218 50.3932 19.7881 49.1443 18.4962C48.7601 18.1004 48.4596 17.2405 48.0515 18.7852C48.016 18.8863 47.9539 18.976 47.8718 19.0448C47.7896 19.1136 47.6904 19.159 47.5847 19.1762C47.4789 19.1935 47.3704 19.1819 47.2707 19.1427C47.1709 19.1035 47.0836 19.0381 47.0179 18.9535C46.3739 18.2265 46.4937 17.717 45.9965 19.0864C45.9541 19.2057 45.8788 19.3106 45.7792 19.3888C45.6797 19.467 45.56 19.5155 45.4341 19.5285C45.3081 19.5415 45.1811 19.5186 45.0676 19.4624C44.9542 19.4062 44.859 19.319 44.793 19.2109C44.6155 18.9258 44.5371 18.7568 44.4011 18.5708C44.2328 18.9548 44.104 19.3549 44.0168 19.765C43.9962 19.8355 43.9548 19.8981 43.8981 19.9447C43.8414 19.9913 43.772 20.0198 43.6988 20.0264C43.6257 20.0331 43.5523 20.0176 43.4881 19.9819C43.424 19.9462 43.372 19.8921 43.339 19.8265C43.3098 19.7796 42.6474 17.6401 42.3399 18.6691C42.2193 19.2344 42.0525 19.7888 41.8412 20.3268C41.7872 20.4451 41.6989 20.5444 41.5876 20.6116C41.4764 20.6789 41.3475 20.7111 41.2177 20.704C41.0879 20.6968 40.9632 20.6507 40.86 20.5716C40.7568 20.4926 40.6799 20.3842 40.6392 20.2607C40.4371 19.7881 40.351 18.912 40.1359 19.3962C39.4358 20.9685 39.8554 21.0969 39.3896 21.146C39.1506 21.1714 39.1591 20.7964 39.1506 20.5858C39.2466 19.952 39.4705 19.3444 39.8085 18.7998C39.8511 18.6905 39.9277 18.5978 40.0269 18.5352C40.1262 18.4727 40.2428 18.4435 40.3598 18.4521C40.4768 18.4607 40.588 18.5066 40.677 18.583C40.766 18.6594 40.8282 18.7623 40.8544 18.8766C41.085 19.4799 41.1887 20.1962 41.3294 19.8696C41.6483 19.1303 41.7974 16.847 43.0501 17.8714C43.4935 18.2334 43.5227 18.6738 43.7133 18.2941C44.0568 17.6086 44.5494 17.6025 44.8753 17.9821C45.1173 18.2626 45.0236 18.3664 45.3717 18.6784C45.6684 18.2711 45.9135 16.8924 46.7873 17.5656C46.9939 17.7474 47.1813 17.9498 47.3468 18.1696C47.5773 18.4332 47.5212 18.0351 47.781 17.6463C48.2336 16.9707 48.7893 16.9546 49.2043 17.4157C50.0865 18.3886 49.5524 18.0351 50.1572 17.0768C50.583 16.4036 51.1755 17.1183 51.4483 17.3496C51.8233 17.6601 51.7311 17.1759 52.2737 17.2889Z" fill="#000001"/>
<path d="M51.6443 42.3178C51.7157 42.3296 51.781 42.3654 51.8293 42.4192C51.8777 42.4731 51.9062 42.5418 51.9103 42.6141C51.9143 42.6863 51.8936 42.7578 51.8515 42.8167C51.8094 42.8756 51.7485 42.9184 51.6788 42.938C51.3128 43.1109 50.914 43.2034 50.5092 43.2093C48.8185 42.9788 49.2119 43.8687 47.7233 43.4591C47.2338 43.3238 47.1692 43.6435 46.795 43.8234C46.7024 43.8675 46.5976 43.879 46.4976 43.856C46.3976 43.833 46.3084 43.7768 46.2444 43.6967C46.1804 43.6165 46.1455 43.517 46.1453 43.4144C46.145 43.3118 46.1796 43.2122 46.2432 43.1317C46.5306 42.7298 46.556 43.3331 46.9617 42.978C47.6818 42.3517 47.8217 43.3038 48.996 42.7152C49.2874 42.5131 49.6433 42.4263 49.995 42.4716C50.978 42.699 51.2938 42.2541 51.6443 42.3178Z" fill="#000001"/>
<path d="M47.1147 31.5978C47.4617 31.7479 47.7537 32.0017 47.9506 32.3245C48.1475 32.6472 48.2396 33.023 48.2144 33.4002C48.1891 33.7774 48.0477 34.1376 47.8095 34.4312C47.5713 34.7248 47.248 34.9374 46.8841 35.0399C45.2249 35.5079 45.1066 34.2199 44.6001 34.4935C44.0592 34.788 43.4647 34.971 42.8518 35.0318C42.239 35.0925 41.6201 35.0297 41.0319 34.847C36.0243 33.2616 36.6822 26.4219 41.181 25.5096C41.8946 25.3638 42.6317 25.3787 43.3389 25.5533C44.046 25.7279 44.7053 26.0578 45.269 26.5191C45.8326 26.9804 46.2864 27.5615 46.5975 28.2201C46.9085 28.8787 47.0689 29.5983 47.067 30.3267C46.9341 31.4879 46.8741 31.4863 47.1147 31.5978ZM46.4591 34.5112C47.8425 34.4766 48.0062 32.0266 46.3715 32.075C44.8384 32.1204 44.6078 34.3437 46.4591 34.5112ZM46.3185 31.1697C46.5517 30.1025 46.36 28.9864 45.7839 28.0582C45.2078 27.1301 44.2928 26.4629 43.2329 26.1982C42.6415 26.0447 42.0229 26.0272 41.4237 26.1471C40.8245 26.2671 40.2602 26.5213 39.7734 26.8907C39.2866 27.2601 38.8899 27.7351 38.6131 28.2799C38.3363 28.8247 38.1867 29.4252 38.1754 30.0362C38.3083 32.8996 40.4302 34.1093 40.5724 33.7504C41.7989 30.6456 46.0457 32.3578 46.3185 31.1697ZM42.343 34.3567C42.9225 34.3875 44.5586 34.0739 44.5164 33.446C44.4603 32.623 44.9959 32.3086 44.2789 32.2879C42.3415 32.2326 39.4872 34.5173 42.343 34.3567Z" fill="#000001"/>
<path d="M46.5682 32.7211C46.7096 33.087 47.183 32.7211 47.196 33.1507C47.1768 33.6726 46.6857 33.3398 46.8025 33.7225C46.8456 33.8616 46.7149 34.1413 46.5635 34.136C46.0256 34.116 46.4575 33.6395 45.8173 33.7179C45.3516 33.7755 45.3178 33.3229 45.6529 33.1584C45.9026 33.0355 46.0371 33.1308 46.0371 32.851C46.0371 32.3653 46.4421 32.3922 46.5682 32.7211Z" fill="#000001"/>
<path d="M46.2791 36.2703C46.7309 36.1304 47.0514 36.6607 46.505 36.912C45.6727 37.2963 46.2091 37.1426 44.4585 37.4308C44.0588 37.3124 44.0289 37.1725 43.6938 37.3885C42.6025 38.0932 42.624 36.9873 42.2198 37.3931C41.7249 37.8903 41.5028 37.9387 41.2684 37.8042C40.5683 37.4046 40.7243 37.5483 40.3585 38.0348C40.0856 38.396 39.7029 38.094 39.9027 37.7443C41.0109 35.8054 41.0363 37.7443 41.824 36.9205C42.2329 36.4924 42.3435 36.394 42.8607 36.7798C43.4333 37.2063 43.6646 36.1981 44.3847 36.6907C44.7098 36.9128 46.2637 36.2749 46.2791 36.2703Z" fill="#000001"/>
<path d="M40.0455 29.3571C40.1362 26.5436 44.2677 26.622 44.2554 29.5692C44.2431 32.4381 39.9495 32.3251 40.0455 29.3571ZM43.6714 29.4931C43.6714 27.495 40.6542 27.3636 40.6311 29.3756C40.6187 29.5779 40.6467 29.7808 40.7138 29.9721C40.7808 30.1635 40.8854 30.3396 41.0214 30.4899C41.1574 30.6403 41.3221 30.762 41.5058 30.8478C41.6895 30.9337 41.8885 30.9819 42.0911 30.9897C42.2937 30.9976 42.4958 30.9648 42.6856 30.8935C42.8754 30.8221 43.049 30.7135 43.1962 30.574C43.3434 30.4346 43.4613 30.2672 43.5429 30.0816C43.6245 29.8959 43.6682 29.6959 43.6714 29.4931Z" fill="#000001"/>
<path d="M41.865 86.4736C42.4959 86.9193 43.2322 87.8315 42.6819 88.5293C41.8988 89.5207 41.2433 89.2794 39.511 91.1476C38.867 91.8393 38.9008 92.5709 38.1369 93.4662C37.8635 93.7741 37.4795 93.9616 37.0685 93.9876C36.6576 94.0137 36.253 93.8763 35.9429 93.6053C35.1982 93.042 32.0957 89.5852 32.0788 87.8845C32.0626 86.2468 33.1624 85.2947 34.5788 84.1957C37.2232 82.1545 39.1299 84.5446 41.865 86.4736ZM41.2671 88.6292C42.2154 87.976 42.2208 87.8415 41.8934 87.5287C41.0963 86.8229 40.254 86.1698 39.3719 85.5736C37.5606 84.5162 36.4939 83.4987 34.691 85.1125C31.8083 87.6855 32.3977 88.3971 35.5993 92.2274C36.344 93.1181 37.1502 93.6998 37.7558 92.6885C38.585 91.3044 38.0547 90.8387 41.2671 88.6292Z" fill="#000001"/>
<path d="M41.8933 40.2664C45.4285 40.3724 45.211 45.6014 41.8449 45.4607C38.4128 45.5337 38.266 40.158 41.8933 40.2664ZM41.6105 44.8098C43.5034 44.8429 44.3049 43.2159 43.6186 42.0055C43.4758 41.6828 43.2502 41.4035 42.9646 41.196C42.679 40.9886 42.3437 40.8603 41.9926 40.8242C41.6415 40.7882 41.2871 40.8456 40.9653 40.9906C40.6435 41.1356 40.3658 41.3632 40.1603 41.6502C39.9548 41.9371 39.8288 42.2733 39.7951 42.6247C39.7614 42.976 39.8212 43.3301 39.9685 43.6508C40.1157 43.9716 40.3452 44.2478 40.6335 44.4513C40.9219 44.6549 41.259 44.7785 41.6105 44.8098Z" fill="#000001"/>
<path d="M38.4521 17.0854C38.9906 18.9203 38.9662 20.8746 38.3821 22.6955C38.2569 22.9499 37.8442 23.3395 37.5967 23.0283C37.1756 22.5041 38.7618 22.4442 37.9541 17.621C37.8888 17.2322 37.0319 18.4756 36.8536 18.9621C36.6545 19.5 36.9489 19.9196 36.686 20.018C36.6096 20.0474 36.525 20.048 36.4481 20.0197C36.3712 19.9914 36.3072 19.9362 36.268 19.8643C35.7354 18.6731 37.9464 15.6629 38.4521 17.0854Z" fill="#000001"/>
<path d="M104.186 50.013C104.267 49.3444 103.649 41.986 102.258 41.2036C102.188 41.4111 102.205 46.5586 102.962 48.8703C103.031 49.16 103.184 49.4229 103.402 49.6261C103.62 49.8294 103.893 49.9639 104.186 50.013Z" fill="#FFE8E1"/>
</svg>
