<svg width="155" height="155" viewBox="0 0 155 155" fill="none" xmlns="http://www.w3.org/2000/svg">
<path d="M149.592 10.506C149.4 10.9594 150.292 21.2113 148.939 37.7957C148.078 48.4165 149.3 58.2073 149.346 71.3642C149.346 80.9552 148.447 94.1505 148.578 103.588C148.716 118.328 149.216 130.693 149.469 138.517C149.654 144.204 144.951 147.562 138.334 147.454C123.563 147.216 96.4884 146.686 72.1421 146.125C63.5271 145.94 57.2868 144.465 50.0244 144.303C43.9301 144.165 36.5217 145.341 32.2334 145.249L21.6741 145.01C21.6741 145.01 25.5166 28.5198 25.5166 28.1356C25.9007 24.5033 25.9778 20.845 25.7472 17.1997L26.0085 11.1823C26.0085 11.1823 25.5397 10.0449 28.6137 9.84508C31.6877 9.64526 63.5501 9.64526 63.5501 9.64526L149.592 10.506Z" fill="white"/>
<path d="M110.337 147.977C110.337 147.831 111.951 138.24 112.02 137.002C112.089 135.765 111.613 132.015 114.226 132.46C116.839 132.906 132.908 135.796 132.908 135.796L131.709 149.629C131.709 149.629 126.683 149.767 123.586 149.836C120.489 149.906 114.226 149.521 112.988 149.491C111.751 149.46 109.953 149.629 110.337 147.977Z" fill="#FFF59E"/>
<path d="M23.0496 99.0297C23.0496 99.0297 18.4923 107.483 18.4923 107.599C18.4923 107.714 16.5941 145.763 17.3626 145.255C18.1311 144.748 21.6355 145.04 21.6355 145.04L23.0496 99.0297Z" fill="#D8E9FF"/>
<path d="M22.9577 60.7124L24.4332 59.1292L26.0087 11.182C26.0087 11.182 26.2776 9.84475 28.3142 9.79096C30.3507 9.73716 149.9 10.4672 149.9 10.4672L149.27 4.78796C146.196 5.61795 24.0029 4.15779 22.389 6.24045C21.267 7.69293 21.3822 10.7439 21.3822 10.7439C21.3822 10.7439 19.63 66.0766 19.8452 65.5617C20.0604 65.0468 22.2199 61.2503 22.9577 60.7124Z" fill="#D8E9FF"/>
<path d="M5.84276 96.6387L10.8611 89.3994C10.8611 89.3994 15.2954 82.4367 16.0255 80.0466C16.7556 77.6566 17.8622 74.3289 18.331 72.4538C18.7998 70.5786 20.0679 66.6361 20.0679 66.6361C20.0679 66.6361 22.4887 61.4026 22.9421 60.7109C23.3955 60.0193 25.1554 59.1739 26.2006 58.3516C27.2457 57.5293 33.8857 55.9846 35.0384 55.4159C36.1912 54.8472 39.3344 55.4697 40.6178 55.4159C41.9012 55.3621 44.0761 55.8463 45.6746 55.4159C47.2731 54.9855 50.4931 55.0931 50.5239 56.4764C50.5047 57.6966 50.3994 58.9139 50.2088 60.1192C50.2088 60.1192 47.6497 62.5092 49.4403 63.6159C51.2309 64.7225 52.5912 66.4594 51.9149 66.9973C51.252 67.401 50.5197 67.6772 49.7554 67.812C49.7554 71.2011 49.5325 70.2404 49.5786 74.2597C49.4547 74.7458 49.208 75.1919 48.8622 75.5553C48.5163 75.9186 48.0829 76.187 47.6035 76.3347C46.0127 76.7497 46.3739 72.7765 45.5286 73.2607C43.1001 74.7208 42.516 73.9523 42.3777 74.6133C42.2394 75.2742 41.3325 76.9726 39.7033 79.7776C38.074 82.5827 35.5303 88.3235 29.5743 91.5819C23.6184 94.8404 22.089 100.558 21.1207 102.426C20.1524 104.293 14.2195 117.235 9.61614 126.964L6.01184 134.142C5.75436 131.633 5.67475 129.108 5.7736 126.588C5.9811 123.291 5.59684 114.975 5.52768 111.371C5.45851 107.767 5.32018 98.2372 5.84276 96.6387Z" fill="#FFCEB6"/>
<path d="M84.7841 98.1615L83.9003 93.5504C83.9749 89.9595 83.844 86.3673 83.5083 82.7913C83.5083 82.7913 84.7764 77.4117 87.1203 76.2436C87.1203 76.2436 88.3961 74.0764 89.2261 72.3012C90.056 70.5259 91.6161 69.8573 92.4999 69.0273C93.3837 68.1973 95.8352 65.861 96.719 66.8601C97.2952 67.5131 97.834 68.1982 98.3329 68.912L99.7931 66.6065C99.7931 66.6065 100.715 63.5325 102.168 63.5325C103.62 63.5325 104.988 64.7698 105.111 65.5767C105.234 66.3836 105.641 67.8822 105.265 69.1042C104.888 70.3261 104.051 72.2781 106.548 72.9467C109.046 73.6153 108.008 74.6451 108.385 75.4597C108.762 76.2743 111.359 77.4041 111.313 78.7105C111.267 80.017 110.683 81.0161 111.313 82.1381C111.313 82.1381 113.15 87.2487 112.658 88.7857C112.166 90.3227 108.946 96.7321 108.623 98.0078C108.3 99.2835 105.472 104.463 105.242 105.578C105.011 106.692 104.819 111.28 104.619 112.917C104.419 114.554 104.066 117.528 104.327 118.688C104.589 119.849 105.511 129.24 105.864 131.115C106.218 132.99 107.624 146.908 107.494 147.139C107.363 147.369 99.4088 148.045 96.3962 148.345C93.3837 148.645 87.4662 148.653 85.5372 148.622C83.6083 148.591 82.3556 148.66 82.8167 148.13C83.2778 147.6 83.0088 144.556 83.3085 143.042C83.6083 141.528 84.9916 134.981 85.1145 132.721C85.2375 130.462 86.2904 123.845 86.5516 121.493C86.8129 119.142 87.0127 115.015 86.982 113.147C86.9966 110.902 86.7176 108.665 86.152 106.492C85.4143 103.764 85.0146 99.3373 84.7841 98.1615Z" fill="#FFCEB6"/>
<path d="M44.5372 115.931C43.8302 122.238 43.1334 128.545 42.4468 134.852C40.9463 134.277 39.405 133.814 37.8358 133.468C36.3981 132.943 34.8853 132.652 33.3554 132.608C32.7636 132.485 32.1949 132.239 31.6032 132.093C28.7904 131.386 29.6588 134.398 32.6253 112.941C36.6885 113.524 40.6804 114.526 44.5372 115.931Z" fill="#FFF59E"/>
<path d="M132.163 18.4069C138.103 19.0601 138.203 18.4761 138.119 19.1754C137.204 26.5301 137.35 27.9057 136.781 29.7962C135.959 32.5321 134.968 38.6725 133.815 38.6418C122.679 38.3958 131.379 38.9415 121.703 38.0346C119.175 37.7964 117.93 38.1883 117.2 38.0346C119.098 33.2468 118.952 33.4236 120.343 27.2217C122.041 19.6058 120.973 23.6405 121.726 18.0841C130.825 18.0303 127.751 17.9304 132.163 18.4069Z" fill="#FFF59E"/>
<path d="M104.788 18.5686C105.557 18.4533 105.956 18.438 105.895 19.0989C104.435 35.0378 105.618 24.4016 103.981 35.6218C103.874 36.3288 103.905 36.3903 103.213 36.4595C100.907 36.5825 92.838 36.1675 87.7659 36.6593C88.7703 33.2172 89.4015 29.6771 89.6487 26.1C89.6487 26.1 90.1406 18.4149 90.5863 18.3534C92.1826 18.2577 93.7842 18.2963 95.3741 18.4687C96.5192 18.5148 104.004 18.6916 104.788 18.5686Z" fill="#FFF59E"/>
<path d="M100.523 46.9637C101.514 47.0483 102.206 46.8792 102.168 47.6784C101.862 51.6043 101.349 55.5112 100.631 59.3828C99.524 65.8844 99.7468 64.9315 98.2021 67.6289C96.5652 65.7691 96.911 65.9382 95.8198 65.9613C93.9292 65.9613 93.1453 68.5588 91.9772 67.9056C91.6391 67.7211 86.1135 67.6059 83.9463 67.0602C83.9463 66.5146 84.2153 64.2936 85.0606 59.0447C85.7292 54.9408 85.8291 47.3787 86.2057 47.0867C85.8522 46.8638 85.6447 46.8561 89.6333 47.0406C92.1343 46.8516 94.6449 46.826 97.1493 46.9637C98.8477 47.0098 97.1723 46.6486 100.523 46.9637Z" fill="#FFF59E"/>
<path d="M126.714 46.6572C132.439 47.126 133.707 46.5727 133.63 47.2182C133.123 54.5344 130.303 61.6278 128.013 68.0909C127.69 69.0131 127.413 69.9968 127.044 69.9507C124.362 69.5895 117.676 67.9372 117.661 67.9372C117.23 67.845 116.777 67.8604 116.347 67.7758C114.533 67.3916 114.141 67.1456 113.127 67.1303C110.36 67.1303 110.644 67.0381 110.56 66.8075C111.966 63.8026 112.704 62.7344 114.994 53.3355C116.961 45.2892 114.395 46.6265 118.26 46.5727C118.26 46.5727 121.219 46.2653 122.18 46.2499C122.718 46.2422 121.511 46.2268 126.714 46.6572Z" fill="#FFF59E"/>
<path d="M135.598 92.8896C134.061 116.429 134.376 108.636 133.792 119.941C132.57 120.617 126.768 118.727 124.746 118.458C122.203 118.112 122.28 118.135 122.118 118.058C120.919 117.428 120.097 117.574 115.839 116.613C115.301 116.491 114.848 116.198 114.518 116.168C113.488 116.06 113.934 115.753 114.056 113.224C114.272 108.775 116.762 90.6456 116.777 90.3843C117.446 90.5149 122.487 91.2527 122.779 91.1528C123.732 90.9222 124.6 91.3526 125.515 91.4832C135.137 92.8742 130.702 91.9674 135.598 92.8896Z" fill="#FFF59E"/>
<path d="M85.1222 126.743C83.516 139.039 82.8167 140.069 82.2634 145.548L77.7983 144.58C77.9367 141.214 79.4199 128.441 79.7888 125.367L85.1222 126.743Z" fill="#FFF59E"/>
<path d="M69.4293 122.731C70.3669 122.985 68.2996 133.398 67.1776 144.026C59.8152 141.828 63.335 141.982 58.6702 140.952C57.5174 140.714 57.7249 141.106 55.3656 140.076C54.4664 139.692 53.8286 139.4 53.8747 139.023C54.6432 133.79 55.0735 133.36 55.1811 131.554C55.3425 128.918 56.6182 120.172 56.7181 119.342C61.091 120.94 59.3541 119.987 69.4293 122.731Z" fill="#FFF59E"/>
<path d="M83.7003 96.0558C85.4218 101.305 83.6235 98.7302 86.1595 110.657C83.7618 110.473 81.5946 109.666 79.3044 109.29C79.3044 109.29 82.2248 84.8817 82.5091 85.0046C82.7935 85.1276 83.0394 84.9355 83.0548 85.3197C83.2776 91.5754 82.4092 92.2132 83.7003 96.0558Z" fill="#FFF59E"/>
<path d="M74.4016 84.0366C73.3103 91.5373 71.8578 98.9227 70.3976 106.323C69.1911 105.716 70.1671 107.399 61.6059 105.101C60.0151 104.679 58.4012 103.964 56.9334 104.218C56.0505 104.242 55.1685 104.144 54.3127 103.926C57.0102 93.6968 55.0813 100.959 56.3647 94.5191C57.356 89.4239 56.6951 90.2693 57.0179 88.2942C57.4713 85.4891 57.5174 87.2029 58.04 82.4919C61.7673 83.3527 60.4685 82.9607 65.0565 82.9838C67.0777 83.0145 71.2814 84.0366 74.4016 84.0366Z" fill="#FFF59E"/>
<path d="M47.1809 81.3692C44.1068 97.2466 46.8427 85.4884 43.0847 101.765C42.8926 102.588 38.3353 101.181 31.4341 99.8672C30.8193 99.752 30.9499 99.337 31.0037 99.0987C33.6244 89.0543 32.902 89.8075 33.3093 89.5001C37.4285 86.6182 39.0961 80.8005 40.1413 80.9004C43.1462 81.2155 45.7975 81.1156 47.1809 81.3692Z" fill="#FFF59E"/>
<path d="M47.1271 46.9249C47.1271 49.9298 46.7967 51.0595 46.6968 54.3333C46.7013 54.3735 46.697 54.4141 46.6842 54.4525C46.6714 54.4908 46.6503 54.5258 46.6225 54.5551C46.5946 54.5844 46.5607 54.6073 46.5231 54.6221C46.4855 54.6369 46.4451 54.6432 46.4047 54.6407C45.3749 54.7176 44.3451 54.8328 43.3307 54.8559C39.98 54.9327 39.4881 53.6801 35.4304 54.5715C35.7839 51.9125 36.1298 49.3303 36.4756 46.6866C45.0522 46.848 37.6668 46.9249 47.1271 46.9249Z" fill="#FFF59E"/>
<path d="M74.4324 47.9397C74.4324 60.9044 74.3709 59.9361 73.5486 65.6154C60.9604 65.185 66.2554 65.0851 60.0151 64.77C60.0151 64.2244 60.092 59.9668 60.5992 59.7978C62.1362 59.2675 65.4331 58.6066 66.4706 57.669C66.8549 57.3232 67.0701 56.8236 66.5782 56.4394C66.0864 56.0551 64.8798 55.8169 60.8144 56.4394C61.0373 53.5575 61.2601 50.737 61.4676 47.9858C67.7156 47.4324 71.2507 48.2471 74.4324 47.9397Z" fill="#FFF59E"/>
<path d="M77.0835 18.6438C77.0835 21.9099 77.2141 19.5429 76.315 25.8063C74.8394 36.2196 74.7779 35.3742 74.2169 35.2743C72.1189 34.8747 70.4282 35.2743 67.6154 35.1821C66.8469 35.1821 66.8469 35.3281 62.4049 35.574C61.5596 35.6278 61.0754 35.843 61.1984 35.1052C61.4981 33.2916 61.4674 32.938 62.2743 28.1195C62.8661 24.5997 63.0428 24.8994 63.1735 22.4325C63.3118 19.5583 63.3195 18.8897 63.696 19.0434C64.526 19.3815 65.2331 19.0434 68.261 18.5669C70.1208 18.2749 69.36 18.6207 73.9249 18.7129C75.2852 18.7437 76.315 18.5669 77.0835 18.6438Z" fill="#FFF59E"/>
<path d="M51.6689 19.0517C51.9148 19.0517 50.301 30.7868 49.4863 33.2999C48.8946 35.0751 50.4009 34.2374 43.8993 34.2374C42.1039 34.1944 40.3075 34.2586 38.5197 34.4296C37.5283 34.4296 37.8972 34.4911 38.9885 29.3958C38.9885 29.3958 40.2565 20.4965 40.2565 18.9749C42.393 19.1593 41.0712 18.9749 43.2153 18.9749C48.8177 19.0978 49.2635 18.9441 51.6689 19.0517Z" fill="#FFF59E"/>
<path d="M150.269 4.75694C150.269 5.57925 151.445 5.44092 89.1338 5.69452C18.9843 5.97119 23.3571 5.59462 22.4195 7.44673C21.7586 8.75319 21.9892 8.21523 21.528 24.1541C20.1601 71.3559 19.3378 65.6997 22.4195 60.4739C24.4791 57.0002 23.5569 65.9841 24.5483 36.358C25.0786 20.473 25.3168 12.6572 25.4244 11.5813C25.555 10.1365 26.1929 9.38337 27.5993 9.38337C29.9048 9.38337 146.372 9.89827 149.792 10.0904C151.014 10.1519 150.384 10.905 149.915 10.9588C149.5 11.3431 28.1833 10.0904 26.654 10.5669C26.2621 10.6898 25.0094 58.4604 25.0094 58.4757C33.1556 54.9098 34.3929 55.3325 34.3929 54.5717C34.3929 52.7273 34.7157 52.8349 35.1614 48.7387C35.4688 45.8799 35.2459 45.8876 36.3526 45.7415C40.1029 45.2574 40.564 46.0489 46.5046 45.7415C47.1655 45.7415 48.0416 45.657 48.0416 46.1719C48.5949 56.8311 46.2894 53.7263 49.7554 54.9867C50.2489 55.2123 50.6559 55.592 50.915 56.0688C51.1742 56.5455 51.2716 57.0935 51.1925 57.6304C51.1157 58.0607 58.501 56.7389 58.5471 56.7312C59.869 56.516 59.6154 57.7994 60.1994 50.3218C60.4377 47.1786 60.1994 46.9481 60.7681 46.7944C61.0135 46.7038 61.2768 46.6722 61.5366 46.7022C62.4204 46.8943 63.2504 46.5562 64.1035 46.5331C65.3023 46.487 73.1104 46.7329 73.1257 46.7329C76.3689 46.7329 75.3929 45.1959 75.4928 53.9031C75.6311 58.7447 75.3006 60.7428 74.5705 66.0302C74.5091 66.4298 74.4015 66.7526 73.8943 66.6911C73.8481 66.6911 73.7943 66.7603 73.7406 66.7756C72.2035 67.1829 60.9141 66.2761 60.2532 66.0071C58.8468 65.3846 58.4011 67.5441 59.331 60.6276V60.1818C55.9496 60.9503 52.6834 62.0339 49.179 62.4874C51.1771 64.3933 52.4759 65.1387 51.8918 67.0139C51.7812 67.4042 51.5557 67.7523 51.2445 68.0127C50.9334 68.2731 50.5511 68.4339 50.1473 68.474C50.447 72.2705 50.009 70.28 50.1473 72.5241C50.278 74.991 50.1473 76.8815 47.8418 77.0506C46.0281 77.1889 45.4594 76.0823 45.2366 74.4915C45.1443 73.7844 45.5286 73.723 44.6217 74.1379C41.686 75.4598 43.7994 74.43 41.248 78.2034C40.9376 78.7461 40.6803 79.3174 40.4795 79.9095C44.5833 80.2707 46.4662 79.5406 48.0262 80.678C48.3029 80.8778 47.0349 88.7704 45.9897 94.6418C44.9753 100.375 45.2212 97.5314 44.1145 102.542C43.9224 103.403 43.9685 103.626 37.0904 102.158C36.7368 102.081 36.4141 101.85 36.0682 101.774C34.3468 101.405 31.7185 101.005 30.2429 100.529C28.9057 100.121 29.8741 99.76 31.9875 90.7147C32.1027 90.2075 31.7876 90.7147 30.7041 91.4832C27.5071 93.7887 26.5541 94.0884 25.1631 96.0943C22.8576 99.468 23.9258 92.9049 22.4579 134.228C22.066 145.187 22.4579 145.54 21.4896 145.517C20.821 145.517 20.8441 147.446 22.2197 106.792C22.5041 98.3383 22.9882 99.1683 20.3369 105.055C18.3618 109.428 19.1072 103.272 18.0313 135.311C17.7162 145.225 17.9314 145.079 17.3013 145.164C16.379 145.287 16.5942 145.164 16.8401 137.186C17.7162 108.675 17.747 110.65 17.5625 110.588C9.46246 127.657 12.8132 121.586 8.22516 130.946C7.44771 132.242 6.74467 133.582 6.11944 134.958C6.06441 135.092 5.95819 135.199 5.82416 135.256C5.69012 135.312 5.53925 135.313 5.40473 135.257C5.27021 135.202 5.16306 135.096 5.10685 134.962C5.05064 134.828 5.04998 134.677 5.10501 134.543C6.39611 131.223 7.46433 130.239 10.0696 124.237C13.1897 117.059 10.8381 121.67 16.7633 109.635C20.4214 102.196 21.7663 98.5458 23.5492 96.0405C24.7712 94.319 26.116 93.3507 28.9288 91.2142C35.2536 86.3496 34.562 87.8328 39.8186 78.4185C40.1337 77.8575 40.5179 77.3426 40.8176 76.7739C42.785 73.0774 41.2326 74.8142 44.568 72.8084C44.7985 72.6701 44.6141 71.6172 45.2442 71.5711C45.2985 71.5625 45.354 71.5651 45.4072 71.5789C45.4605 71.5927 45.5103 71.6173 45.5536 71.6512C45.5968 71.6851 45.6327 71.7275 45.6588 71.7759C45.6849 71.8243 45.7007 71.8775 45.7053 71.9323C45.7053 72.1321 45.8898 72.3166 45.9359 72.5164C46.0824 73.498 46.3402 74.4597 46.7044 75.3829C46.9657 75.844 48.9485 76.0746 49.0099 74.5145C49.0945 71.5788 49.6247 73.1235 47.8495 72.6701C44.4757 71.817 45.2442 69.8266 44.6986 67.767C43.6227 68.5893 42.2547 68.5355 41.1635 69.3655C41.7783 70.6797 42.5083 72.0553 41.8782 72.2551C41.248 72.4549 41.2403 71.6864 40.4103 70.1263C39.8954 69.1657 38.3891 67.0523 39.0039 66.8832C39.6188 66.7141 39.9031 67.4135 40.6332 68.3203C44.5295 66.9831 43.2231 67.329 44.6679 66.3991C44.4518 65.8961 44.1073 65.4587 43.6688 65.131C43.3844 64.862 43.884 64.5162 44.0992 64.5777C46.7198 65.3462 47.9417 67.7593 50.2472 67.0677C50.6622 66.9447 51.2309 65.8611 50.6238 65.3308C50.4086 65.1387 48.4028 63.3097 48.3644 63.2097C48.0877 62.4412 47.6804 62.8793 44.8292 63.4403C44.176 63.5709 43.5074 63.6247 42.8542 63.74C39.9185 64.2626 41.0712 65.4768 36.2834 68.3511C33.0096 70.3569 33.3631 70.4722 32.5792 71.671C31.7953 72.8699 31.511 73.4847 31.8722 74.2532C33.4784 77.6961 33.4937 78.2879 33.1786 80.9546C33.0634 81.9537 33.0096 82.5762 32.4101 82.4916C31.4111 82.3072 32.9712 79.9095 32.0566 77.3657C29.9048 86.9183 27.6454 85.0508 28.2909 83.9518C29.582 81.8384 29.5974 82.1074 30.1891 80.017C30.7809 77.9267 30.7655 78.2879 30.7809 74.8834C30.5691 74.5362 30.457 74.1374 30.457 73.7306C30.457 73.3239 30.5691 72.9251 30.7809 72.5779C33.8934 66.4759 34.4313 69.5961 40.2489 63.5095C42.078 61.5959 40.9483 59.6669 39.2422 59.4902C40.0107 60.7121 40.5717 61.2577 39.4343 62.7871C38.4967 64.0551 36.0298 64.2549 35.7916 62.6564C35.7532 62.3951 35.9453 61.6189 36.4679 61.8879C36.9905 62.1569 36.6677 62.8947 37.4823 62.6564C39.1653 62.2184 39.3728 61.2808 38.6351 60.3509C37.8973 59.421 37.928 59.5824 36.7292 60.1203C30.5811 63.0407 29.6973 64.3241 28.5138 65.6536C24.018 70.7258 23.0804 68.9121 20.2907 74.8757C20.2293 74.9987 20.1908 75.3752 19.5222 75.3214C19.1149 75.283 19.7989 73.6538 19.9296 73.3618C22.2351 68.1974 26.4388 67.7132 23.2879 68.2512C22.2312 68.3471 21.1878 68.5558 20.1755 68.8737C19.407 69.0965 18.4233 74.5222 16.8248 79.0333C16.3795 80.3174 15.8665 81.577 15.2878 82.8067C11.5528 90.0307 10.0004 91.7368 7.1185 95.6716C6.35 96.7014 6.18861 97.3623 5.58149 97.2086C3.8216 96.7782 6.94175 95.3872 13.451 83.7904C15.9333 79.3715 16.2791 76.4819 18.1927 70.4184C18.5309 69.3348 18.8997 68.9505 18.3925 68.9428C17.7393 68.9428 17.0015 69.2349 16.4713 68.1743C15.7028 66.5758 16.0409 65.0388 18.2388 64.3318C19.553 63.9245 19.0765 66.084 19.5607 50.4218C19.5607 50.4218 20.8671 9.18356 21.0439 8.20755C21.651 4.86453 19.8604 4.58787 54.1666 4.58787C64.3494 4.58787 77.7829 4.31121 95.3049 4.35732C151.859 4.5725 150.276 3.79631 150.269 4.75694ZM73.5484 65.6536C74.3707 59.9359 74.4322 60.9042 74.4322 47.9779C71.2506 48.2853 67.7154 47.4707 61.4675 48.0778C61.26 50.8214 61.0371 53.6418 60.8142 56.5314C64.8796 55.9012 66.0632 56.1241 66.5781 56.5314C67.093 56.9387 66.8547 57.4152 66.4705 57.761C65.433 58.6986 62.1745 59.3595 60.5991 59.8898C60.0918 60.0589 60.015 64.3164 60.015 64.862C66.2706 65.1233 60.9603 65.2232 73.5484 65.6536ZM65.4253 57.2C65.4253 56.8695 64.3494 57.0847 63.8883 57.1385C59.9228 57.5766 60.4069 57.5535 60.3454 58.6755C64.1649 57.907 65.3869 57.492 65.4253 57.1693V57.2ZM49.4864 58.1606C50.2549 58.0377 50.1704 56.1548 48.9023 55.955C47.1501 55.686 44.5372 56.0319 42.4084 56.0011C40.6024 56.0011 37.9127 55.102 36.4679 55.5477C27.5839 58.2759 23.4032 59.2366 22.189 63.5863C26.1775 62.3874 31.7646 62.1108 35.8838 59.3826C36.9719 58.725 38.2168 58.372 39.4881 58.3605C42.7005 59.5286 39.7878 59.6592 49.4864 58.1606ZM46.0665 69.4116C46.1434 71.7863 49.4634 72.2167 49.2482 70.5951C49.1483 69.8881 49.1406 69.1657 49.0945 68.3972C47.5575 68.4587 46.6814 67.3443 45.4825 66.6373C45.8258 67.5244 46.0231 68.4613 46.0665 69.4116ZM46.6967 54.3335C46.7966 51.0596 47.1271 49.9299 47.1271 46.925C37.6667 46.925 45.0521 46.8482 36.4602 46.6868C36.1144 49.3305 35.7685 51.9127 35.415 54.5717C39.4804 53.6802 39.9646 54.9329 43.3153 54.8561C44.3451 54.8561 45.3749 54.7177 46.3893 54.6409C46.4309 54.6458 46.473 54.6413 46.5126 54.6276C46.5521 54.6139 46.588 54.5914 46.6176 54.5618C46.6472 54.5322 46.6697 54.4963 46.6834 54.4567C46.6971 54.4172 46.7017 54.375 46.6967 54.3335ZM43.0847 101.766C46.8351 85.4811 44.0838 97.247 47.1809 81.3696C45.7976 81.0853 43.1462 81.2159 40.1798 80.9239C39.1346 80.824 37.4669 86.6416 33.3477 89.5235C32.902 89.8309 33.6244 89.0778 31.0422 99.1222C30.9884 99.3374 30.8578 99.7523 31.4726 99.8907C38.3353 101.182 42.8926 102.588 43.0847 101.766Z" fill="#000001"/>
<path d="M138.195 17.7297C138.518 17.7297 139.264 17.7912 139.218 18.8901C138.972 24.9229 137.181 35.5053 135.206 39.6015C135.06 39.8935 134.968 39.9089 132.654 39.832C122.464 39.4862 132.293 40.0779 121.988 39.1327C118.852 38.8406 115.34 39.7552 116.124 37.7263C117.768 33.4995 118.176 31.5782 119.636 25.5685C121.534 17.7297 119.098 16.9612 121.888 16.9612C137.427 16.9842 126.529 17.3301 138.195 17.7297ZM138.119 19.1437C138.203 18.4751 138.119 19.0592 132.163 18.3752C127.744 17.8988 130.81 17.9987 121.726 17.9987C120.958 23.555 122.041 19.5357 120.343 27.1362C118.952 33.3688 119.098 33.1614 117.2 37.9492C117.93 38.1259 119.175 37.734 121.703 37.9492C131.379 38.856 122.679 38.3104 133.815 38.5563C134.968 38.5563 135.959 32.4466 136.781 29.7107C137.342 27.874 137.204 26.4984 138.119 19.1437Z" fill="#000001"/>
<path d="M136.674 92.4292C136.674 92.6059 136.282 101.936 136.197 102.842C135.928 105.778 135.79 107.077 135.729 107.569C135.59 108.591 135.767 106.147 135.729 107.569C135.552 113.824 134.829 118.328 135.137 118.374C134.676 122.455 135.905 122.324 126.46 120.165C124.424 119.704 122.925 119.55 121.565 119.258C121.05 119.15 120.574 118.881 120.028 118.766C118.668 118.459 117.292 118.205 115.916 117.905C115.494 117.813 114.748 117.475 113.434 117.137C112.304 116.86 112.666 116.568 112.835 112.702C112.972 110.592 113.228 108.49 113.603 106.408C113.801 103.192 114.163 99.9888 114.687 96.8097C114.871 95.6646 115.179 94.3812 115.701 91.0151C115.886 89.8086 115.647 89.1169 116.47 89.2168C122.733 89.9853 122.618 89.9392 123.048 89.847C123.717 89.701 128.551 90.7769 128.566 90.7769C130.273 90.8178 131.977 90.9538 133.669 91.1842C136.628 91.7913 136.62 90.969 136.674 92.4292ZM133.792 119.942C134.376 108.637 134.076 116.43 135.598 92.8903C130.703 91.9681 135.137 92.8903 125.515 91.5223C124.601 91.3917 123.732 90.9613 122.779 91.1919C122.487 91.2534 117.446 90.5156 116.777 90.4234C116.777 90.6847 114.272 108.814 114.057 113.263C113.934 115.792 113.488 116.099 114.518 116.207C114.848 116.207 115.286 116.53 115.84 116.653C120.097 117.613 120.919 117.467 122.118 118.097C122.28 118.174 122.203 118.151 124.747 118.497C126.768 118.728 132.57 120.618 133.792 119.942Z" fill="#000001"/>
<path d="M134.714 46.133C135.283 48.9534 133.992 54.9939 132.409 59.9661C131.64 62.4177 130.641 65.1228 130.203 66.3755C128.443 71.3708 128.827 69.8415 128.551 70.6253C128.312 71.2863 128.489 71.3324 126.245 70.8943C126.245 70.8943 114.664 68.5888 114.295 68.4658C113.334 68.097 111.989 68.4197 109.73 67.9817C108.677 67.7742 109.223 66.7674 109.553 66.0143C111.275 62.1718 111.013 64.07 114.364 50.037C114.733 48.5 114.218 49.2685 115.225 45.7487C115.309 45.4567 115.471 45.4874 117.415 45.2492V45.4029C123.563 44.5191 120.328 45.18 127.544 45.3337C129.182 45.6291 130.856 45.6783 132.508 45.4797C133.169 45.3875 134.591 45.5566 134.714 46.133ZM133.661 47.2166C133.707 46.571 132.439 47.1243 126.745 46.6556C121.542 46.2252 122.748 46.2406 122.241 46.2482C121.281 46.2482 118.322 46.571 118.322 46.571C114.479 46.6248 117.023 45.2876 115.056 53.3339C112.75 62.7328 112.028 63.801 110.621 66.8059C110.706 67.0364 110.422 67.0902 113.188 67.1286C114.203 67.1286 114.595 67.3899 116.408 67.7742C116.839 67.8587 117.292 67.8433 117.722 67.9356C117.722 67.9356 124.424 69.5879 127.106 69.9491C127.475 69.9952 127.751 69.0115 128.074 68.0893C130.334 61.6261 133.131 54.5328 133.661 47.2166Z" fill="#000001"/>
<path d="M127.513 134.305C134.699 135.527 133.877 133.244 133.123 141.36C132.424 148.891 132.516 150.459 131.456 150.267C130.395 150.075 131.763 143.888 132.032 139.761C132.14 138.124 132.032 138.624 132.24 136.188C127.59 135.419 114.771 133.045 113.104 132.799C112.581 136.434 111.236 146.455 110.798 148.03C110.753 148.145 110.669 148.241 110.562 148.301C110.454 148.361 110.329 148.383 110.208 148.362C110.086 148.342 109.976 148.28 109.894 148.187C109.813 148.095 109.766 147.977 109.761 147.854C109.822 146.939 110.529 141.875 110.645 141.252C111.782 133.444 111.467 131.561 113.142 131.815C129.289 134.297 122.172 133.375 127.513 134.305Z" fill="#000001"/>
<path d="M127.376 39.7098C126.943 39.7098 127.546 39.7562 127.376 39.7098V39.7098Z" fill="#000001"/>
<path d="M111.943 81.3553C111.882 82.2698 113.741 83.8837 113.326 86.9116C112.642 92.0069 113.496 88.7407 109.814 96.9023C108.469 99.8918 108.969 100.084 107.224 103.227C105.618 106.124 105.565 106.455 105.611 108.952C105.757 117.514 104.281 109.782 105.611 123.908C106.487 133.13 106.871 133.975 107.294 137.495C107.47 138.978 107.663 142.313 107.693 142.367C108.016 142.921 107.824 143.551 107.955 144.143C109 148.815 106.617 148.023 106.517 147.109C106.418 146.194 106.579 147.578 106.026 140.192C105.034 127.128 102.998 119.481 104.035 113.587C104.804 109.045 103.805 109.314 104.612 105.809C105.073 103.788 106.71 101.967 107.509 99.0387C108.116 96.8254 108.554 96.9484 110.437 92.6755C111.205 90.954 111.866 90.1163 111.905 87.4573C111.905 85.1518 112.35 85.4438 111.298 83.4457C110.245 81.4475 110.86 81.0095 110.66 79.8106C110.199 77.0978 108.8 78.2736 107.962 75.7606C107.869 75.2864 107.648 74.8468 107.323 74.4892C106.998 74.1316 106.581 73.8697 106.118 73.7317C102.214 71.2417 105.249 70.2043 104.673 66.5769C104.623 66.2721 104.5 65.984 104.314 65.7375C104.128 65.4911 103.884 65.2939 103.605 65.1628C100.423 63.1724 100.938 64.8554 100.531 66.0543C100.416 66.3924 99.3857 67.9064 98.9938 68.8209C98.11 71.1265 96.3347 73.0631 94.7439 74.846C93.6449 76.0833 92.8457 78.3428 91.0474 79.68C90.5786 80.0335 89.349 80.2563 88.4575 81.9855C88.1578 82.5542 87.251 82.1546 87.5199 81.4245C88.6112 78.3966 90.1713 79.8875 92.4691 75.7145C93.8217 73.2629 94.4288 73.3475 96.6959 70.3349C96.9783 69.9716 97.1277 69.5226 97.1193 69.0626C97.1109 68.6025 96.9452 68.1592 96.6498 67.8065C96.5674 67.6551 96.4411 67.5321 96.2874 67.4539C96.1338 67.3757 95.96 67.3459 95.7891 67.3685C95.266 67.4688 94.7905 67.739 94.4365 68.137C90.9398 71.1034 90.2481 71.2571 89.4719 73.2783C88.2731 76.3523 86.0751 77.3821 84.4536 81.5013C83.6851 83.5071 84.2077 84.5062 84.2077 86.5504C84.2077 88.0875 84.077 90.393 84.0386 91.6918C83.9771 94.2278 85.0991 95.5343 85.7985 99.9532C85.9983 101.237 86.2365 104.172 86.3441 104.795C86.8821 108.038 87.7044 109.79 87.5584 114.217C87.4815 116.484 87.3201 119.596 87.1895 121.133C87.0588 122.67 83.4776 146.202 83.3469 147.124C83.1702 148.262 83.1855 149.192 82.0635 148.953C81.4487 148.823 81.6639 147.962 81.9329 147.094C82.0481 146.694 82.2633 146.871 77.8751 145.733C77.1066 145.549 76.3381 145.48 76.5149 144.742C76.5149 144.742 77.7829 133.345 77.7829 133.33C77.7445 131.462 78.367 129.695 78.4976 127.858C78.5738 126.863 78.7672 125.88 79.074 124.93C79.3737 124 78.9434 124.046 85.3374 125.514C85.9906 119.927 86.1904 122.017 86.1904 111.973C82.0097 111.496 81.3642 110.881 79.4122 110.505C77.0375 110.059 78.2133 109.114 80.5419 90.0625C81.3104 84.1143 81.1182 83.461 82.8474 83.9145C83.0703 81.8318 83.3546 79.5801 86.8821 75.3072C88.1655 73.7701 88.6804 71.7336 89.5104 70.6961C90.0637 70.0044 90.7861 69.674 91.2626 69.113C86.6515 68.5596 82.1019 68.7902 82.54 67.3147C82.9875 65.4849 83.2298 63.611 83.2624 61.7276C83.4622 58.9994 83.4315 64.256 84.7379 49.0549C84.8378 47.8791 84.8532 46.9415 84.8532 46.9261C84.7456 45.9117 85.3374 45.5274 85.7293 45.6427C87.3739 46.1192 89.5718 45.5197 97.011 45.7272C98.2637 45.7272 97.011 45.3968 100.446 45.6658C103.144 45.8809 103.105 45.9347 103.174 46.3344C103.405 47.6869 102.36 57.0935 101.192 63.0417C102.79 62.9265 103.928 63.8103 105.103 64.5788C105.311 64.7135 105.483 64.8963 105.605 65.1117C105.726 65.3271 105.794 65.5688 105.803 65.8161C105.992 66.7804 106.028 67.7685 105.91 68.7441C105.511 70.4117 104.934 71.4492 106.095 72.041C108.062 73.0554 108.101 73.0324 108.846 74.3465C109.384 75.2841 109.123 75.7759 109.93 76.2755C111.797 77.459 112.081 79.2496 111.943 81.3553ZM102.168 47.6793C102.168 46.9107 101.514 47.0491 100.523 46.9645C97.1724 46.6494 98.8477 47.0106 97.1417 46.9645C94.6373 46.8268 92.1266 46.8525 89.6256 47.0414C85.6371 46.8569 85.8446 46.8646 86.1981 47.0875C85.8138 47.3795 85.7216 54.9417 85.053 59.0455C84.2077 64.2944 83.9464 66.5154 83.9464 67.061C86.1136 67.6067 91.6314 67.722 91.9773 67.9064C93.1608 68.5596 93.9447 65.9928 95.8198 65.9621C96.9111 65.9621 96.5883 65.77 98.2022 67.6297C99.7392 64.9323 99.524 65.8852 100.631 59.3836C101.349 55.512 101.862 51.6051 102.168 47.6793ZM86.1597 110.659C83.6236 98.7313 85.3912 101.306 83.7004 96.0569C82.4401 92.2144 83.2778 91.5765 83.0549 85.2978C83.0549 84.9135 82.7014 85.0749 82.5092 84.9827C82.3171 84.8905 79.3353 109.275 79.3353 109.291C81.5947 109.667 83.7619 110.474 86.1597 110.659ZM82.2633 145.549C82.8397 140.069 83.516 139.07 85.1222 126.743L79.8118 125.376C79.4429 128.45 77.9597 141.214 77.8213 144.588L82.2633 145.549Z" fill="#000001"/>
<path d="M106.718 17.8141C107.171 18.9054 106.095 33.1843 104.412 37.4418C104.266 37.8107 88.4962 37.5186 87.9276 37.6723C86.6826 37.9951 86.3905 36.9884 86.6518 36.1353C87.7391 32.4836 88.379 28.7134 88.5577 24.9074C88.9128 22.8353 89.1437 20.7438 89.2494 18.6441C89.2396 18.3877 89.3078 18.1344 89.445 17.9176C89.5822 17.7008 89.782 17.5307 90.0179 17.4298C90.8703 17.2429 91.7442 17.1731 92.6155 17.2223C106.295 17.7756 106.364 16.9533 106.718 17.8141ZM105.895 19.0975C105.957 18.4366 105.526 18.4519 104.789 18.5672C104.051 18.6825 96.5195 18.5134 95.3437 18.4673C93.7538 18.2949 92.1522 18.2563 90.5558 18.352C90.1101 18.352 89.6183 26.0832 89.6183 26.0986C89.3711 29.6757 88.7398 33.2158 87.7354 36.6579C92.8076 36.1661 100.869 36.5811 103.182 36.4581C103.905 36.4581 103.874 36.3275 103.951 35.6204C105.619 24.4002 104.435 35.0056 105.895 19.0975Z" fill="#000001"/>
<path d="M77.9751 18.252C78.0646 19.1739 78.1005 20.1002 78.0827 21.0263C78.0365 22.4403 75.9308 36.0967 75.731 36.1275C75.3468 36.189 75.0778 36.5348 74.6244 36.4887C73.4252 36.3233 72.2119 36.2847 71.0047 36.3734C69.6137 36.5271 69.0373 36.3273 66.8086 36.4503C57.1638 36.9498 60.0611 38.2716 62.0823 23.3856C62.4666 18.4748 62.1361 17.6986 64.165 18.006C64.5799 18.0752 64.165 18.1136 66.701 17.6679C72.2804 16.6765 70.1055 17.9523 76.9606 17.3912C77.6907 17.3298 77.9059 17.4835 77.9751 18.252ZM76.3304 25.7834C77.2065 19.52 77.099 21.887 77.099 18.6209C76.3304 18.544 75.3006 18.7208 73.9558 18.69C69.3908 18.5978 70.1132 18.252 68.2918 18.544C65.2716 19.0205 64.5569 19.3586 63.7269 19.0205C63.3503 18.8668 63.3426 19.5354 63.2043 22.4096C63.089 24.8765 62.8969 24.5768 62.3052 28.0966C61.5366 32.9151 61.5367 33.2686 61.2293 35.0823C61.1063 35.8508 61.5904 35.6049 62.4358 35.5511C66.9162 35.3052 66.8701 35.1207 67.6463 35.1592C70.459 35.2821 72.1498 34.8518 74.2478 35.2514C74.7781 35.3743 74.8549 36.2197 76.3304 25.7834Z" fill="#000001"/>
<path d="M69.5752 82.3001C74.5782 82.9456 75.5696 82.4307 75.4236 83.7449C74.6551 91.015 72.1421 105.01 71.3812 107.277C71.2429 107.692 70.459 107.838 69.9749 107.599C69.4907 107.361 68.5224 107.646 67.7616 107.553C64.7543 107.159 61.7937 106.467 58.9237 105.486C57.9631 105.079 56.7565 105.394 56.0341 105.248C53.6441 104.764 53.1061 104.994 53.1906 104.402C53.6978 100.752 53.8977 101.328 54.4356 98.9537C54.7123 97.7164 54.2204 99.4609 55.5653 92.552C55.7293 91.505 55.7732 90.4427 55.696 89.3857C55.696 87.7258 56.1033 87.7796 57.0409 82.4692C57.3252 80.8707 58.4088 81.5008 60.7604 81.8236C61.0355 81.8246 61.3102 81.8066 61.5828 81.7698C68.5762 81.8159 66.9008 81.9466 69.5752 82.3001ZM70.3976 106.347C71.8577 98.9229 73.3102 91.5376 74.4015 84.06C71.2813 84.06 67.0776 83.0379 65.0564 83.0302C60.4454 83.0302 61.7672 83.3991 58.0399 82.5383C57.5173 87.2493 57.4712 85.5355 57.0178 88.3406C56.695 90.3156 57.3559 89.4703 56.3646 94.5655C55.1119 101.006 57.0101 93.7432 54.3127 103.972C55.1684 104.191 56.0504 104.289 56.9333 104.264C58.4011 104.01 60.0073 104.725 61.6058 105.148C70.167 107.423 69.191 105.709 70.3976 106.347Z" fill="#000001"/>
<path d="M70.0517 121.533C71.1045 121.802 70.7049 122.433 70.5973 123.97C70.3206 128.043 70.4974 127.559 70.3975 128.327C69.9748 131.539 69.1295 136.481 68.945 138.018C68.0766 145.073 68.5684 145.742 67.2236 145.357C62.3051 143.959 62.9045 144.082 61.844 143.451C58.77 141.615 58.4164 143.052 53.7516 140.593C52.0609 139.701 52.5988 140.124 53.7977 133.246C54.0052 132.024 54.5662 126.928 54.8429 125.307C55.9649 117.56 55.6959 118.329 56.8948 118.39C59.5692 118.921 58.9928 119.159 61.1293 119.451C62.8046 119.635 63.6039 119.904 70.0517 121.533ZM67.1774 144.028C68.2995 133.399 70.3668 122.986 69.4292 122.732C59.3156 119.989 61.0909 120.942 56.7104 119.374C56.6181 120.204 55.3424 128.95 55.1733 131.586C55.0657 133.392 54.62 133.822 53.8669 139.055C53.8131 139.432 54.4586 139.724 55.3578 140.108C57.7171 141.138 57.5096 140.746 58.6624 140.984C63.3733 141.984 59.8151 141.83 67.1774 144.028Z" fill="#000001"/>
<path d="M51.6076 17.8371C53.1447 17.7603 53.3522 17.0225 51.6614 28.0737C51.3387 30.1486 50.7315 32.8768 50.232 35.2438C50.0937 35.9048 49.3943 35.7126 48.4798 35.6588C39.7957 35.1439 36.9522 36.4274 36.8215 34.3293C40.3259 15.1166 38.0358 18.1138 41.7093 17.9524C43.3308 17.8832 49.5096 17.9447 51.6076 17.8371ZM49.4712 33.2995C50.2397 30.7865 51.8997 19.059 51.6538 19.0514C49.2637 18.9438 48.818 19.0975 43.2002 19.0053C41.056 18.9668 42.3779 19.1743 40.2414 19.0053C40.2414 20.5423 38.981 29.4109 38.9734 29.4262C37.8821 34.5215 37.5132 34.4907 38.5046 34.46C40.2923 34.289 42.0887 34.2248 43.8841 34.2678C50.4011 34.2371 48.8948 35.0748 49.4712 33.2995Z" fill="#000001"/>
<path d="M44.8832 114.699C46.1128 114.984 45.5364 115.675 45.1982 119.149C43.6612 134.665 43.838 136.671 42.3317 136.156C40.6682 135.496 38.9505 134.982 37.1981 134.619C32.587 133.412 35.5688 134.12 32.6715 133.712C31.7878 133.589 30.8732 132.721 29.5975 132.867C27.9683 133.051 28.829 129.178 31.5495 113.331C31.7263 112.263 31.4112 111.479 32.318 111.694C33.5476 111.979 36.2528 112.378 38.4661 112.801C42.055 113.477 42.716 114.161 44.8832 114.699ZM42.447 134.85C43.154 128.532 43.8636 122.226 44.5758 115.929C40.7193 114.521 36.7273 113.517 32.6639 112.932C29.6974 134.373 28.8213 131.376 31.6417 132.083C32.2335 132.229 32.8022 132.475 33.3939 132.598C34.9062 132.651 36.4004 132.944 37.8206 133.466C39.395 133.812 40.9414 134.274 42.447 134.85Z" fill="#000001"/>
<path d="M37.7434 72.5937C38.2276 73.4313 39.1191 73.8002 39.0653 74.5687C39.0653 74.684 38.8117 74.7762 38.6272 74.9145C37.9331 74.5263 37.3487 73.9684 36.9288 73.293C35.7761 71.3102 34.9845 71.3102 34.8231 70.7569C34.6233 70.0653 35.215 69.8193 35.5916 70.1344C36.4592 70.8094 37.1896 71.6441 37.7434 72.5937Z" fill="#000001"/>
</svg>
