<svg width="155" height="155" viewBox="0 0 155 155" fill="none" xmlns="http://www.w3.org/2000/svg">
<path d="M96.2989 127.795C96.2989 127.795 97.8359 127.626 97.9051 128.448C97.9743 129.27 97.3825 130.231 98.1203 130.969C99.8232 132.735 101.153 134.826 102.032 137.117C102.985 139.937 104.115 145.924 103.984 147.184C103.853 148.445 103.769 149.09 103.508 149.267C103.246 149.444 96.7754 149.743 94.393 149.182C92.0106 148.621 89.4438 151.304 82.3274 149.613C75.211 147.922 70.3079 150.696 66.7882 150.266C63.2684 149.836 59.0185 150.22 59.1492 149.136C59.431 147.798 59.7955 146.479 60.2405 145.186L62.1464 141.021C79.6299 134.319 62.984 140.906 94.4237 127.003L96.2989 127.795Z" fill="#FFF59E"/>
<path d="M92.2721 38.1494C92.0691 38.6021 91.811 39.028 91.5036 39.4175C90.835 38.7565 90.9579 38.7565 91.1347 38.6489C91.4996 38.4517 91.88 38.2846 92.2721 38.1494Z" fill="#FFF59E"/>
<path d="M90.4737 35.9441C90.5275 38.8567 90.858 38.7261 88.66 36.5051C88.4602 36.3053 88.66 36.3514 89.8358 35.9517C90.3277 35.775 90.466 35.5752 90.4737 35.9441Z" fill="#FFF59E"/>
<path d="M90.7123 32.6996C92.0802 35.0512 92.1263 34.7208 91.0658 34.9513C90.8199 35.0051 91.0658 35.0282 90.5432 32.5536C90.574 32.569 90.6277 32.5843 90.7123 32.6996Z" fill="#FFF59E"/>
<path d="M88.4522 29.5109C90.0661 31.8165 90.1122 31.4168 88.7135 31.6551C88.3753 31.6551 88.7135 31.3016 88.3369 29.5417V29.4418L88.4522 29.5109Z" fill="#FFF59E"/>
<path d="M85.9473 32.916C88.2528 32.2397 88.0607 32.3012 88.0607 32.4933C88.0607 32.6854 88.1222 35.9132 87.8609 35.7902C87.369 35.552 87.0923 35.4828 86.9924 35.1985C86.8127 34.5521 86.5546 33.9301 86.2239 33.3464C86.1701 33.2157 86.0241 33.0466 85.9473 32.916Z" fill="#FFF59E"/>
<path d="M85.7397 26.1071C86.2931 26.7372 87.6149 28.182 87.3382 28.2589C85.4016 28.7815 85.8012 28.7046 85.6091 28.7123C85.417 28.72 85.4323 28.6585 85.417 28.5048C85.3708 28.0437 85.2248 26.7065 85.0634 25.8381C84.9943 25.4846 85.0942 25.3693 85.7397 26.1071Z" fill="#FFF59E"/>
<path d="M84.4718 29.6725C84.9406 29.4957 85.002 29.488 84.9944 29.6725C84.9406 32.247 85.1327 32.2623 84.7177 32.0779C84.1556 31.8808 83.5525 31.8305 82.9655 31.9319C82.9161 31.9354 82.8666 31.9284 82.8202 31.9111C82.7738 31.8939 82.7316 31.8669 82.6965 31.832C81.3593 31.002 81.2825 30.9482 81.3055 30.9097C81.3286 30.8713 81.1134 30.9482 84.4718 29.6725Z" fill="#FFF59E"/>
<path d="M80.606 26.0841C80.7444 30.4185 80.606 30.48 80.3063 30.2418C79.6684 29.7576 76.6943 28.0899 76.3101 27.7441C76.6789 27.5212 75.849 27.9209 80.0681 26.161C80.4293 26.0073 80.5983 25.8843 80.606 26.0841Z" fill="#FFF59E"/>
<path d="M83.7413 24.1001C84.0564 24.3998 83.2648 24.2538 81.0899 25.1453C81.0104 23.8505 80.8202 22.565 80.5212 21.3027C80.821 21.4411 83.48 23.8542 83.7413 24.1001Z" fill="#FFF59E"/>
<path d="M79.5453 20.4035C79.3302 20.5726 79.6914 20.4035 76.9247 21.2258C75.7489 21.5716 75.6567 21.7099 75.649 21.4871C75.5568 18.413 75.1956 17.7982 75.0496 17.2987C75.4569 17.3756 77.4857 18.9971 79.5453 20.4035Z" fill="#FFF59E"/>
<path d="M107.289 75.8588C107.488 78.5486 107.873 76.7349 106.42 86.2029C105.951 89.2385 106.374 89.1463 106.251 92.205C106.251 92.3279 104.791 99.6902 104.714 100.559C104.714 100.866 104.676 100.889 104.53 100.851C102.479 100.213 100.362 99.8134 98.2203 99.6595C96.445 99.4059 96.4834 98.891 94.4623 98.3453C92.4411 97.7997 91.834 98.7065 90.051 98.0379C88.5911 97.6259 87.092 97.3683 85.5783 97.2694C85.171 97.3078 85.463 97.1926 85.7627 95.3482C86.2085 92.6353 85.7013 92.5738 86.4621 90.422C88.1374 85.7034 86.8925 87.2327 87.5764 84.5352C88.0068 82.8215 88.66 81.7148 88.8598 79.3324C89.4285 72.5926 91.3652 70.8327 90.7965 70.6175C91.1269 70.2794 90.4814 70.0335 90.1509 70.7866C88.965 73.1881 88.2626 75.7993 88.0836 78.4717C87.6456 82.8906 87.1538 81.8762 86.5466 84.9579C86.3238 86.1491 86.9155 86.5487 85.7781 89.569C84.5869 92.7352 85.3708 92.2434 84.8175 95.2406C84.5869 96.4702 83.7646 98.9601 85.586 99.4827C85.732 99.4827 85.7935 99.6595 85.9549 99.6979C86.1163 99.7363 86.1624 99.9746 86.1393 100.151C86.1393 100.151 84.9251 108.144 84.9251 108.167C84.3333 110.957 84.6638 111.479 81.6435 114.038C77.9854 117.112 72.4214 122.861 61.5855 130.223C60.9462 130.683 60.2484 131.055 59.5105 131.33C58.8803 131.545 57.643 128.778 55.5219 128.064C54.569 127.741 53.7159 127.026 52.5862 125.674C51.6025 124.49 51.3028 123.722 50.3652 124.136C49.9349 124.329 49.0434 125.389 50.1577 127.395C51.4258 129.701 54.0003 131.153 52.3403 130.846C51.4744 130.726 50.6559 130.378 49.9686 129.838C49.2813 129.298 48.7498 128.585 48.4286 127.772C48.1293 127.134 47.9049 126.463 47.76 125.773C47.5448 124.79 47.6678 124.698 47.2989 123.107C47.0957 122.475 46.9844 121.818 46.9684 121.155C46.7763 114.008 49.005 110.472 50.7111 107.629C51.7541 105.967 52.9015 104.373 54.1463 102.856C54.1463 102.657 54.1463 102.757 55.4528 103.955C56.7592 105.154 56.5594 104.793 58.0503 106.061C58.6344 106.568 59.5335 106.507 59.6949 105.592C59.7641 105.208 59.4874 104.901 60.6018 105.923C61.5701 106.814 62.523 106.192 62.1388 104.34C61.6623 102.272 59.0647 100.62 59.0647 100.09C59.6523 100.417 60.1927 100.823 60.6709 101.296C61.1474 101.834 61.0398 101.919 61.6162 102.388C62.6844 103.256 62.7075 103.84 63.2454 104.009C64.16 104.301 65.697 102.68 62.6306 98.9909C62.8381 98.9909 62.9073 99.16 63.0072 99.2675C64.8439 101.235 64.7363 101.496 65.5817 101.335C66.4271 101.173 66.5347 99.9515 66.2349 99.3137C66.1508 98.6614 65.8844 98.0461 65.4664 97.5384C65.0723 96.8803 64.5203 96.3308 63.8602 95.9399C63.3069 95.6171 63.2224 95.0945 62.7613 94.6411C62.4769 94.3645 64.4289 93.7343 69.0016 87.5862C69.5549 86.8177 69.5395 86.6409 69.7163 86.7639C71.0612 87.7015 73.9661 87.8091 74.3273 87.8552C77.0709 88.2164 74.9729 87.9397 78.9384 88.885C79.9298 89.1155 79.7607 88.9542 80.0681 88.7544C80.0752 88.7214 80.0752 88.6874 80.0681 88.6544C79.9375 88.0243 77.7626 87.932 76.2717 87.3557C74.7808 86.7793 72.0064 87.4633 69.7086 85.6726C68.7781 84.9587 68.0445 84.0198 67.5766 82.9443C67.1088 81.8688 66.9221 80.692 67.0342 79.5246C67.4492 76.5043 69.0861 77.0884 74.7193 69.7799C75.6107 68.6117 76.9633 66.3139 80.0374 62.0102C81.1292 60.7055 82.2968 59.4661 83.5341 58.2983C83.6878 58.1754 83.8415 58.4674 83.903 58.7133C83.903 58.8209 83.903 58.9362 83.78 59.1898C81.3669 63.4012 76.6713 70.4024 76.4715 72.9307C76.3101 75.0595 78.4158 76.0048 81.5129 72.9307C82.3502 72.0578 83.2327 71.2292 84.1566 70.4485C85.3708 69.5109 87.415 68.6809 88.6293 66.8288C91.2422 62.8479 92.418 64.2543 94.8926 61.5799C96.1666 60.1384 97.846 59.1152 99.7112 58.6442C100.244 58.6184 100.777 58.6519 101.302 58.7441C102.401 58.8132 103.462 60.4425 103.677 61.2494C103.293 61.2036 102.915 61.1213 102.547 61.0035C101.125 60.6961 98.4355 61.1726 98.1588 62.3253C98.1588 62.3791 98.2971 62.725 98.8428 62.4099C99.285 62.1907 99.752 62.0255 100.234 61.918C101.371 61.6238 102.575 61.7268 103.646 62.21C104.348 62.3553 104.966 62.7689 105.367 63.3628C106.225 64.6441 106.801 66.0925 107.058 67.6127C107.271 68.5809 107.4 69.5657 107.442 70.5561C107.25 72.3167 107.199 74.0899 107.289 75.8588ZM104.215 64.8768C104.422 63.3398 101.348 63.0324 100.142 63.2014C99.6881 63.2629 99.5882 63.4243 99.6113 63.6702C99.6343 63.9161 100.026 63.9699 100.241 63.847C100.426 63.9469 102.708 63.7932 103.554 64.8614C103.784 65.1534 104.176 65.092 104.207 64.8768H104.215ZM101.794 93.2655C101.909 93.0119 101.54 92.5508 101.479 92.497C100.003 90.276 100.28 89.9455 99.5344 88.1088C98.5159 85.9205 97.6455 83.6663 96.9292 81.3613C96.714 80.5236 95.3922 76.9039 95.3922 75.2132C95.37 74.9539 95.3263 74.6968 95.2615 74.4447C95.2586 74.4036 95.2475 74.3635 95.2288 74.3267C95.2101 74.29 95.1843 74.2574 95.1527 74.2309C95.1212 74.2043 95.0846 74.1844 95.0452 74.1723C95.0058 74.1602 94.9644 74.1561 94.9234 74.1604C93.8167 74.1604 96.4604 83.2518 97.7361 85.9109C98.9504 88.3931 99.2731 89.8841 99.8111 91.0829C100.147 91.8299 100.601 92.5176 101.156 93.1195C101.317 93.4115 101.717 93.5114 101.794 93.2655ZM98.7813 97.108C99.4345 96.9467 97.9282 95.571 97.5517 94.2492C96.7832 91.3903 96.86 91.4134 96.5142 90.5142C94.8849 86.1952 95.9685 88.8619 94.6467 84.1433C93.5477 80.2162 93.9474 79.6783 93.2788 79.6321C92.6102 79.586 93.1404 81.0078 94.8158 88.347C95.3307 90.6526 95.4921 89.323 96.2452 92.7122C96.568 94.1723 97.2596 96.1167 98.4124 97.085C98.5661 97.1542 98.5507 97.1311 98.812 97.0696L98.7813 97.108ZM82.4889 74.6522C83.1037 74.1757 83.0115 73.8837 82.9269 73.7454C82.7041 73.4841 81.7434 74.2833 81.2593 74.6292C79.607 75.805 79.5839 75.6205 79.0306 76.0432C78.3561 76.2733 77.6343 76.3289 76.9326 76.2046C76.6927 76.201 76.458 76.1335 76.2527 76.0093C76.0475 75.8851 75.8789 75.7084 75.7644 75.4976C75.5569 75.1825 75.1881 75.1517 75.1804 75.559C76.0949 77.7416 78.777 77.1422 79.3688 76.7733C79.4149 76.7272 81.6359 75.2978 82.5196 74.6138L82.4889 74.6522ZM79.3226 90.6987C79.3226 90.1915 78.777 90.2914 75.0958 88.6006C74.2351 88.2087 73.8278 88.762 74.5348 89.1309C75.4801 89.569 79.3764 91.6824 79.3534 90.6602L79.3226 90.6987Z" fill="#D4F2E2"/>
<path d="M104.914 24.4075C104.914 24.9839 104.73 24.9685 104.553 25.3374C104.284 25.8754 103.7 25.9676 103.292 26.1059C103.138 26.2101 103.016 26.3553 102.94 26.525C102.864 26.6947 102.837 26.8823 102.862 27.0666C103.008 27.6199 103.4 27.52 103.369 28.1732C103.369 28.5037 103.208 28.473 102.939 28.8726C102.555 29.449 102.808 29.8332 103.323 29.9408C103.838 30.0484 104.238 30.1329 104.284 30.7708C104.352 31.1674 104.287 31.5752 104.099 31.9312C103.331 33.1071 103.277 32.9687 103.062 32.8227C101.717 31.9466 100.756 34.2291 102.217 35.0514C102.509 35.2051 102.916 35.8199 102.524 36.2656C102.132 36.7114 101.986 37.1648 101.84 37.2263C101.571 37.3569 101.348 37.5875 101.002 37.5644C100.779 37.5644 100.38 37.9487 100.349 38.1485C100.234 38.8786 100.726 39.0323 101.118 39.1783C103.239 39.9468 101.325 42.9747 99.5113 42.0756C98.8581 41.7528 98.251 42.6366 98.128 43.3129C97.7592 45.3417 100.142 45.1727 98.4124 47.8778C97.4287 49.4148 98.1818 50.1142 97.4133 49.3533C96.1607 48.116 98.8581 47.0478 97.1213 45.2034C96.6832 44.7423 96.4834 44.7269 96.5526 44.358C96.8139 43.0055 96.8216 42.821 95.9224 42.3753C94.3854 41.6068 94.9464 41.2456 94.908 40.4233C94.908 39.7623 93.8244 39.6548 93.4248 39.5395C92.6562 39.2782 92.8023 38.8401 92.8714 38.6711C93.7014 36.7114 93.8628 37.134 92.3719 34.06C89.8803 29.7522 86.759 25.8408 83.1114 22.4555C76.579 16.661 74.2043 15.9001 71.3224 14.463C68.8709 13.2411 68.5097 13.1105 66.7114 15.0317C66.1811 15.5851 64.8439 13.5485 65.6355 12.9875C67.8411 11.4505 65.72 11.3275 66.9419 9.97494C67.0649 9.83661 67.5029 9.97494 67.7566 9.97494C68.5251 10.0672 68.8017 9.46772 68.6788 8.88365C68.2023 6.57044 70.8767 5.98637 71.576 7.52339C71.7144 7.8308 72.1217 8.07672 72.4137 7.80774C72.7058 7.53876 72.8825 7.23136 73.3744 7.45423C75.0113 8.18431 74.2197 6.14008 75.1035 5.70971C76.4945 5.03342 77.2707 4.7875 77.7241 6.27072C78.0853 7.4158 78.6079 6.20924 80.0296 6.42442C80.1757 6.42442 80.6982 7.43886 81.2516 6.76257C81.6666 6.25535 83.4649 5.38694 84.3256 6.16313C85.1863 6.93933 85.1863 7.00849 85.171 7.26978C85.171 7.78469 85.0787 8.03829 85.5629 8.22274C86.0471 8.40718 86.3314 8.27653 86.562 8.4456C86.7925 8.61468 87.2306 8.28422 87.392 8.09977C87.8377 7.54645 88.929 7.70015 89.636 7.79237C89.7636 7.79965 89.8864 7.84333 89.9899 7.91824C90.0934 7.99315 90.1733 8.09615 90.2201 8.21505C90.454 8.65132 90.6444 9.1095 90.7888 9.583C90.7744 9.9497 90.8594 10.3135 91.0347 10.6359C91.4651 11.2276 92.4257 10.4437 92.7715 10.7434C93.1612 11.0066 93.5173 11.3163 93.8321 11.6657C95.0386 13.2642 93.1865 13.7022 94.0396 14.5937C94.7543 15.3622 94.7389 14.8473 95.7072 15.0471C97.0444 15.3314 96.1222 16.9376 97.7591 16.0692C98.5277 15.6388 98.4508 15.7849 99.4114 15.6542C100.118 15.562 101.863 18.3594 101.118 19.0126C100.372 19.6658 100.088 19.5813 100.211 20.1961C100.288 20.565 101.094 21.003 101.817 20.8955C102.27 20.7571 103.354 21.9099 103.654 22.2634C104.776 23.5391 104.868 23.6928 104.914 24.4075Z" fill="#585858"/>
<path d="M100.672 100.958C100.779 100.958 100.825 100.897 100.764 101.435C100.702 101.973 100.103 106.307 99.7419 108.013C99.3766 110.745 98.835 113.451 98.1203 116.113C97.5362 118.142 97.2749 119.187 94.0165 121.539C85.9932 127.28 65.9044 136.994 60.5479 139.053C59.278 139.699 57.8764 140.044 56.4517 140.06C50.3037 139.853 52.8782 138.308 50.88 137.309C50.6477 137.175 50.4546 136.982 50.3198 136.75C50.1849 136.518 50.1132 136.255 50.1115 135.987C50.1115 134.527 48.6437 135.08 48.5745 133.535C48.636 133.244 48.632 132.943 48.5629 132.653C48.4938 132.363 48.3613 132.092 48.1749 131.86C47.9122 131.639 47.7001 131.364 47.553 131.054C47.4058 130.743 47.327 130.405 47.3219 130.062C47.2976 129.543 47.4493 129.031 47.7522 128.609C47.8675 128.448 48.0519 128.801 48.1365 128.971C48.4977 129.662 48.759 129.639 49.2354 130.223C49.7233 130.742 50.3227 131.143 50.9884 131.396C51.6542 131.649 52.3687 131.747 53.078 131.683C53.493 131.683 53.762 131.937 54.1155 131.445C54.9531 130.269 51.0414 128.74 50.442 125.95C50.2422 124.99 50.6802 124.544 51.3181 125.236C52.1558 126.135 53.5314 128.217 55.0531 128.763C57.1818 129.532 58.4652 132.606 59.2875 132.314C60.7554 131.799 64.0446 129.662 67.7411 126.834C73.1719 122.702 78.3819 118.287 83.3496 113.608C84.9788 112.002 85.1094 111.618 85.5398 109.535C86.3083 105.646 87.1537 98.3685 87.3304 98.3915C88.806 98.6375 89.2056 98.6298 89.7666 98.9833C90.6658 99.5366 92.5179 99.0524 93.663 99.1985C96.6909 99.5597 94.224 100.236 100.672 100.958Z" fill="#D6AD9E"/>
<path d="M100.879 57.7773C100.472 57.9541 99.7957 57.3777 97.6976 58.4383C93.4785 60.567 95.469 60.8898 90.4967 63.4797C89.4592 64.0176 88.3756 65.5393 87.83 66.4154C86.8079 68.0446 83.9874 69.0514 81.851 71.3569C80.8878 72.539 79.6357 73.4522 78.2159 74.0083C77.9162 74.1312 77.263 73.8853 77.2322 73.4857C77.0324 70.7037 83.3803 61.4585 84.487 59.1069C84.5643 58.9405 84.5979 58.7572 84.5844 58.5743C84.571 58.3914 84.511 58.2149 84.4101 58.0617C83.4281 56.1985 82.2782 54.4288 80.9749 52.7744C77.9931 49.4083 74.8268 60.0829 69.501 50.4688C66.1119 44.3208 67.3876 44.974 65.4817 45.973C64.5672 46.4495 62.8765 45.2045 64.5288 44.1594C64.8111 44.0225 65.0539 43.8159 65.2341 43.559C65.4143 43.3021 65.526 43.0036 65.5586 42.6915C65.6662 40.9931 63.0533 39.4638 62.3001 36.4051C61.9778 34.9155 61.8206 33.3949 61.8313 31.8709C61.8774 30.8949 62.3385 31.3329 62.4769 31.4098C63.107 31.7403 63.3453 32.6548 64.621 31.9016C65.1436 31.5942 64.9438 31.5712 65.2896 32.0707C65.4938 32.3456 65.7759 32.5528 66.0994 32.6652C66.4229 32.7775 66.7727 32.79 67.1033 32.7009C67.5966 32.6245 68.0449 32.3703 68.3637 31.9862C68.5327 31.8402 68.4405 31.9324 69.3243 32.5165C70.8075 33.5155 71.6759 32.455 72.0371 32.2091C72.2293 32.0861 72.4214 31.8632 72.4137 32.2091C72.3782 32.3687 72.3764 32.534 72.4083 32.6943C72.4403 32.8547 72.5054 33.0066 72.5994 33.1404C72.6934 33.2742 72.8143 33.387 72.9544 33.4714C73.0944 33.5558 73.2505 33.6101 73.4128 33.6308C73.9891 33.7153 74.2351 33.4848 74.1813 33.6923C73.9507 35.2754 75.3494 35.9978 76.8173 35.3292C76.7404 36.1438 77.2169 36.9431 78.8692 37.1198C79.3569 37.1012 79.8245 36.9202 80.1976 36.6055C80.5707 36.2909 80.8281 35.8606 80.9288 35.383C81.2746 33.5078 82.266 32.7316 83.1498 32.6702C83.678 32.5775 84.2221 32.6641 84.6955 32.9161C85.169 33.1682 85.5446 33.5712 85.7627 34.0612C87.4073 36.9969 85.4476 41.1391 83.6647 39.9249C82.827 39.3562 82.4965 41.2544 84.8097 40.8471C85.4784 40.7241 85.2094 40.7549 85.4783 41.1161C85.7473 41.4773 85.9933 41.5541 85.878 41.8846C85.1095 44.2823 86.8694 44.4437 86.8694 44.9586C87.0523 45.5044 87.311 46.0218 87.6379 46.4956C88.0529 47.1104 89.2902 46.9029 89.8051 46.6801C90.32 46.4572 94.1779 52.5899 96.8215 54.2422C96.8523 54.3037 100.679 57.3854 100.879 57.7773ZM85.1786 34.6529C85.2401 33.8383 83.8337 32.9161 82.6656 33.9536C81.7434 34.7759 81.5282 36.8816 83.0729 37.3581C83.6416 37.5271 84.3948 37.4733 84.0259 38.019C83.9421 38.1633 83.902 38.3288 83.9106 38.4955C83.9106 38.6568 84.0412 38.703 84.1335 38.7721C84.4562 38.995 84.9711 38.2188 84.902 37.5579C84.8328 36.897 84.2103 36.7433 83.4418 36.5972C81.9048 36.2975 83.2112 33.2696 84.4716 34.6222C84.5571 34.7307 84.6551 34.8287 84.7636 34.9142C84.808 34.9328 84.8562 34.9404 84.9041 34.9364C84.952 34.9324 84.9983 34.917 85.039 34.8913C85.0797 34.8657 85.1136 34.8307 85.1379 34.7892C85.1622 34.7477 85.1762 34.7009 85.1786 34.6529ZM76.4791 44.6435C76.702 44.9202 77.1247 44.8203 77.0247 44.4283C76.5636 42.5686 74.4887 43.3294 75.1112 43.8212C75.1957 43.8904 75.2879 43.9672 75.4263 43.9058C76.0718 43.5907 73.0592 47.8252 70.7383 48.7397C70.6774 48.7679 70.6267 48.8144 70.5935 48.8727C70.5602 48.9311 70.546 48.9983 70.5527 49.0651C70.5595 49.132 70.5869 49.195 70.6312 49.2455C70.6755 49.296 70.7345 49.3314 70.7998 49.3468C73.1976 50.1153 74.1966 51.0683 75.4954 48.6475C76.0103 47.6791 76.2639 44.7434 76.3715 44.5129C76.4791 44.5667 76.433 44.5436 76.4791 44.6205V44.6435ZM69.7547 40.3168C69.478 40.263 69.3935 40.3706 69.186 40.7241C68.7269 41.2886 68.0646 41.6501 67.3415 41.7309C67.0572 41.777 66.5039 41.7309 66.573 42.3303C66.6422 42.9298 67.795 42.6838 68.11 42.5686C70.1543 41.8077 70.2849 40.386 69.7547 40.2938V40.3168ZM69.5856 36.0977C69.2013 36.0977 70.1235 35.7596 67.8795 35.5136C67.2109 35.6289 65.574 35.7596 64.8055 36.651C64.2444 37.3504 64.2291 38.4032 64.9361 38.1189C65.2486 37.8076 65.5769 37.5126 65.9198 37.2351C68.917 35.5444 69.3397 37.2044 69.5856 36.0747V36.0977Z" fill="#D6AD9E"/>
<path d="M94.9385 123.777C95.4303 124.622 96.8982 126.082 95.6532 127.066C95.1396 127.668 94.4847 128.132 93.7473 128.419C91.7876 128.964 92.0412 129.187 88.2371 131.285C87.0151 131.961 85.0708 134.036 81.8815 135.327C80.7672 135.789 76.5711 136.557 72.4365 139.654C69.9696 141.499 70.7458 141.014 66.6573 142.044C65.7877 142.148 64.9441 142.408 64.1674 142.813C62.8071 143.52 62.2999 144.065 61.4699 144.119C61.3777 144.119 58.8185 145.303 58.5649 143.105C60.102 138.109 56.1441 143.22 78.9996 131.377C87.3302 127.058 83.211 129.602 94.0701 122.493C94.3698 122.332 94.17 122.463 94.9385 123.777Z" fill="#D4F2E2"/>
<path d="M92.0568 35.2368C92.4257 35.8977 93.1096 37.2042 92.4026 37.4809C91.4804 37.8421 91.05 38.2494 91.0116 38.0496C91.0116 37.2426 91.0116 36.6509 90.9425 35.8055C90.9271 35.4827 91.0347 35.4981 92.0568 35.2368Z" fill="#FFCCCE"/>
<path d="M90.9349 41.2763C90.8273 42.2292 92.2413 42.1754 92.0108 43.3436C91.5343 45.6491 90.7889 44.8268 89.8436 45.7106C89.7427 45.8225 89.6194 45.912 89.4818 45.9733C89.3441 46.0346 89.1951 46.0662 89.0444 46.0662C88.8937 46.0662 88.7446 46.0346 88.6069 45.9733C88.4693 45.912 88.346 45.8225 88.2451 45.7106C87.4766 45.0266 87.9684 44.3119 87.1999 43.8969C85.8012 43.1284 87.3921 41.8834 86.4314 40.8229C86.3008 40.6845 85.9396 40.3233 86.0548 40.2157C86.685 39.6394 87.1769 37.7565 87.1615 36.8343C87.1461 35.9121 87.5534 36.6345 88.4757 37.5106C90.589 39.5395 91.0886 39.893 90.9349 41.2763Z" fill="#585858"/>
<path d="M90.0125 32.1092C90.5121 35.0756 90.5198 35.1832 90.1739 35.2985C88.4755 35.8826 88.5063 35.9287 88.5216 35.6904C88.7829 32.0477 88.3833 32.2245 88.8137 32.1399C90.0587 31.9324 89.9741 31.9324 90.0125 32.1092Z" fill="#FFCCCE"/>
<path d="M88.0526 31.686C88.0526 31.8474 88.0987 31.8013 85.7087 32.4545C85.4627 32.5237 85.5473 32.5775 85.5165 31.1481C85.5165 29.1423 85.3859 29.3421 85.724 29.2499C88.0295 28.6427 87.653 28.6658 87.7145 28.7042C87.9604 28.8579 88.0219 31.4555 88.0526 31.686Z" fill="#FFCCCE"/>
<path d="M84.9633 28.581C85.0248 29.2188 84.7174 28.8039 81.2206 30.41C81.0439 30.4869 81.0516 30.4869 81.0516 30.2102C81.3667 27.2899 80.8594 25.8297 81.2129 25.6914C82.0573 25.3382 82.9285 25.053 83.8182 24.8383C84.0103 24.7999 84.3177 24.6078 84.4714 24.7846C84.5375 24.9273 84.5766 25.081 84.5867 25.238C84.7558 26.9287 84.8864 28.0353 84.9633 28.581Z" fill="#FFCCCE"/>
<path d="M81.7129 32.2092C82.1509 32.4859 81.0289 32.6396 80.5447 34.1535C80.1221 35.4523 80.3603 35.2909 79.6302 35.9365C79.4204 36.093 79.1709 36.1875 78.91 36.2092C78.6492 36.2309 78.3875 36.179 78.1547 36.0594C77.4938 35.6829 77.7013 35.2909 77.6628 34.7453C77.609 34.0613 77.1095 34.069 76.6177 34.3994C76.1258 34.7299 75.8491 34.8759 75.3419 34.6223C75.0192 34.4456 75.0115 34.0767 75.0345 33.6002C75.0345 32.7471 74.658 32.947 73.8049 32.8778C72.3371 32.7625 73.9048 30.9873 72.5446 31.1871C72.0207 31.382 71.5384 31.674 71.1228 32.0478C70.3005 32.6088 69.5858 31.7481 69.0402 31.3638C68.9559 31.2775 68.8537 31.2107 68.7407 31.1683C68.6278 31.1258 68.5068 31.1088 68.3866 31.1183C68.2663 31.1278 68.1496 31.1637 68.0447 31.2234C67.9398 31.2831 67.8494 31.3652 67.7798 31.4637C67.2111 32.0017 66.2889 32.3014 65.7432 31.3561C65.651 31.2024 65.482 30.8028 65.4051 30.6414C65.0977 30.0036 64.5982 30.4493 64.4906 30.749C64.4369 30.874 64.351 30.9825 64.2417 31.0634C64.1324 31.1443 64.0036 31.1947 63.8684 31.2096C63.7332 31.2244 63.5965 31.2031 63.4722 31.1479C63.348 31.0926 63.2406 31.0054 63.1611 30.895C62.8613 30.5108 60.8555 29.9267 61.0707 32.0324C61.0707 33.4772 60.6173 32.8778 59.4107 33.7232C59.0034 34.0075 58.3886 34.3226 58.5577 34.8913C58.8267 35.8212 58.9266 35.9134 58.696 36.1978C58.5538 36.4117 58.4872 36.6671 58.5066 36.9233C58.5261 37.1795 58.6307 37.4218 58.8036 37.6118C59.3877 38.1267 59.9103 38.4264 59.7642 39.3256C59.721 39.6045 59.6166 39.8705 59.4585 40.1043C59.3004 40.3382 59.0925 40.5341 58.8497 40.6782C59.1879 39.8328 59.1725 39.0797 58.2887 38.5494C57.5663 38.1113 56.8977 38.6109 56.89 37.535C56.89 37.0508 56.8362 36.7665 56.3367 36.5513C56.1654 36.436 56.0204 36.2858 55.9111 36.1107C55.8018 35.9355 55.7306 35.7392 55.7023 35.5347C55.6741 35.3301 55.6892 35.1219 55.7469 34.9237C55.8046 34.7254 55.9034 34.5415 56.037 34.3841C56.9208 33.1852 57.4434 33.3696 57.1744 32.8855C56.7901 32.1861 56.6134 31.7404 55.8756 31.5867C55.499 31.5175 55.1763 31.5099 55.061 30.9027C54.9876 30.6106 55.0016 30.3034 55.1014 30.0192C55.2011 29.735 55.3821 29.4864 55.622 29.3042C56.1724 28.8735 56.8181 28.581 57.5048 28.4512C58.0428 28.359 58.7575 28.2821 58.5577 27.7672C58.5131 27.6137 58.4218 27.4779 58.2965 27.3787C58.1711 27.2796 58.018 27.2219 57.8583 27.2139C57.0898 27.1601 55.8602 25.6769 56.3674 24.5472C57.4664 22.0726 58.673 23.6019 59.3877 22.7027C59.7335 22.257 60.7172 22.2877 61.2552 22.5337C63.845 23.7095 62.6385 19.9207 81.7129 32.2092Z" fill="#585858"/>
<path d="M80.5906 25.131C80.5906 25.4154 80.8673 25.1848 76.1256 27.2675C75.626 27.4904 75.6414 27.5057 75.6414 27.2675V26.23C75.8566 22.3875 75.4339 22.203 75.8873 22.1415C75.9719 22.1415 79.776 20.9042 79.8913 20.8197C80.234 22.2369 80.4678 23.6782 80.5906 25.131Z" fill="#FFCCCE"/>
<path d="M75.4955 45.1724C75.6722 44.8958 75.6261 44.8881 75.6107 45.1724C75.5031 47.0168 74.7116 50.1524 72.8979 49.3531C70.5924 48.3541 72.1755 50.2062 75.4955 45.1724Z" fill="white"/>
<path d="M75.1882 23.1021C75.1882 29.0196 75.9567 27.0369 71.8144 25.1847C71.6761 25.1233 70.0929 24.4162 70.4003 24.301C71.9835 23.6016 74.7501 22.5257 74.7655 22.518C75.4802 22.2567 75.0345 23.1021 75.1882 23.1021Z" fill="#FFF59E"/>
<path d="M75.1339 21.5646C75.1339 21.9412 75.1339 21.9028 71.7371 23.1862C71.5854 23.2849 71.4195 23.36 71.2453 23.409C71.0839 23.409 70.9456 23.6012 70.7842 23.655C70.0157 23.8855 69.9772 24.1391 69.7467 24.07C69.1011 23.8778 69.201 23.7933 69.5699 21.6568C70.0157 19.067 69.7083 19.2591 70.0541 19.1208C70.5306 18.9363 70.3154 18.9747 72.5364 18.0525C73.7583 17.5376 74.2117 17.3916 74.4576 17.4915C74.7036 17.5914 74.7113 17.991 74.8265 18.5136C74.994 19.523 75.0967 20.5421 75.1339 21.5646Z" fill="#FFCCCE"/>
<path d="M70.531 14.9779C74.5887 16.9299 74.2276 16.7915 74.3044 16.9452C73.8356 17.1297 74.4581 16.707 71.2304 18.0288C69.9085 18.5822 69.8932 18.659 69.9239 18.4361C70.4081 14.7242 69.8778 14.6628 70.531 14.9779Z" fill="#FFF59E"/>
<path d="M69.0169 14.4103C69.7316 14.5794 69.7162 14.6178 69.7085 14.8791C69.7008 15.1404 69.7085 15.4171 69.6086 16.5545C69.4165 18.86 69.5087 18.9292 68.8401 19.1136C68.1715 19.2981 63.2838 22.1108 63.084 22.0263C62.6767 21.9802 62.6075 22.0647 62.6997 21.6497C62.9149 20.6583 66.3194 16.1087 68.0793 14.7331C68.2023 14.6138 68.3501 14.5231 68.5121 14.4673C68.6742 14.4115 68.8465 14.3921 69.0169 14.4103Z" fill="#FFCCCE"/>
<path d="M69.3166 19.4581C69.3935 19.7655 68.7786 23.1239 68.8324 23.5697C68.8862 24.0154 68.2407 22.9933 64.1599 22.2248C63.8064 22.1556 69.3012 19.4658 69.3166 19.4581Z" fill="#FFF59E"/>
<path d="M65.4663 100.16C65.4663 100.445 65.2972 100.606 65.1205 100.452C64.3243 99.3582 63.3185 98.4334 62.1617 97.7317C61.5623 97.3935 62.0464 97.6548 60.1943 95.9411C59.764 95.5414 59.5872 94.9112 59.1568 95.1034C59.0903 95.1646 59.0464 95.2465 59.0325 95.3359C59.0185 95.4252 59.0353 95.5166 59.08 95.5952C60.1482 96.9094 60.9551 98.554 61.6084 99.2303C64.3673 102.051 63.7295 103.503 63.2837 103.157C62.838 102.812 63.0839 102.635 61.9158 101.62C61.4346 100.96 60.8477 100.384 60.179 99.9142C59.1338 99.2533 57.5737 97.1015 57.4661 97.0016C57.2356 96.7787 57.3201 96.8095 57.0127 96.9247C57.1357 97.1322 56.6284 97.04 57.151 98.408C58.542 102.058 59.6717 101.359 61.1857 104.249C61.593 105.017 61.5238 105.701 61.0243 105.409C60.6477 105.194 60.7246 104.894 59.787 104.272C59.0796 103.733 58.4711 103.075 57.9887 102.327C57.4661 101.643 56.6822 101.713 55.9983 100.521C55.8215 100.214 55.3835 99.3532 55.1836 98.9843C54.9838 98.6155 54.7072 98.8768 54.6995 99.0996C54.6991 99.5965 54.8375 100.084 55.0991 100.506C55.7216 102.104 56.7745 102.204 57.2356 102.758C59.1491 105.025 58.7726 104.556 58.934 105.325C58.9801 105.594 58.5958 105.701 58.4498 105.532C57.4046 104.356 57.7735 104.94 55.2067 102.543C54.4382 101.82 54.0924 101.682 53.6697 99.3225C53.7696 98.0083 54.515 97.6625 54.9224 96.8786C55.4238 95.9557 56.1376 95.1654 57.005 94.5731C58.104 94.1504 59.3874 92.0524 61.3163 92.2138C61.9312 92.2676 62.131 91.9832 63.0378 92.3905C63.5988 92.6441 63.6296 92.4443 62.2693 93.7739C62.1694 93.8738 62.1848 93.7739 62.0925 93.6202C61.7621 93.1437 61.1396 93.4665 61.324 93.989C61.8005 95.1264 61.9158 94.8267 62.3692 95.5799C63.2837 97.1092 64.9745 96.9555 65.4663 100.16Z" fill="#D6AD9E"/>
<path d="M90.5274 32.585C91.0269 35.0596 90.804 35.0366 91.05 34.9828C92.1105 34.7522 92.0644 35.0827 90.6964 32.7311C90.6119 32.5927 90.5581 32.5773 90.5274 32.585ZM108.142 76.244C108.68 81.0088 107.696 81.8849 107.796 82.3921C107.842 82.5996 107.558 84.5055 107.527 84.6976C106.612 90.9687 107.227 87.057 107.058 92.0369C107.058 93.1973 107.104 91.5527 105.521 100.844C105.421 101.397 105.214 101.551 105.221 101.858C105.221 102.32 104.076 102.742 103.438 102.765C101.786 102.819 101.548 102.842 101.494 103.042C101.371 103.541 101.31 104.141 100.549 107.845C99.4498 113.225 99.4882 118.796 95.7763 121.44C95.3075 121.771 95.0693 121.84 95.1769 122.124C95.6841 123.492 95.9915 123.223 96.9829 125.359C97.5515 126.597 96.6063 127.281 96.9829 127.304C98.9887 127.396 98.0818 129.978 98.6428 130.593C100.465 132.792 101.851 135.32 102.724 138.04C105.552 146.747 103.838 148.638 104.261 149.268C104.145 149.345 104.145 149.514 104.038 149.583C103.981 149.626 103.913 149.649 103.842 149.649C103.771 149.649 103.702 149.626 103.646 149.583C102.839 148.907 103.323 148.814 103.246 147.001C103.246 146.878 103.177 146.747 103.315 146.647C103.145 142.712 102.175 138.852 100.464 135.304C98.6505 131.669 97.444 131.331 97.4901 130.339C97.5439 129.187 97.6438 127.957 96.3911 128.188C95.5534 128.341 95.369 129.048 94.0087 129.417C89.5744 130.608 85.6935 135.765 79.9527 137.048C78.2258 137.616 76.5518 138.334 74.9497 139.193C73.7585 139.83 71.9986 141.59 70.4693 142.144C66.2194 143.681 66.8727 142.612 64.2444 143.996C62.7073 144.826 63.2607 144.764 61.7083 145.195C61.3548 145.287 61.0243 145.441 60.6708 145.51C60.4479 145.548 59.6948 148.192 59.7563 149.468C59.7563 149.752 59.7563 149.913 59.4719 150.044C59.1876 150.175 59.1184 149.959 58.9724 149.875C58.6419 149.698 59.3105 146.347 59.641 145.717C59.8715 145.287 58.7495 145.763 57.9887 144.357C57.1049 142.728 58.2269 141.89 58.1347 141.106C58.0425 140.322 57.3662 141.306 54.4612 140.791C52.7321 140.484 51.3104 140.245 50.8877 138.585C50.734 137.986 50.2729 138.048 49.8656 137.602C48.951 136.618 49.489 135.834 49.0433 135.527C48.7678 135.422 48.5196 135.256 48.3173 135.042C48.115 134.828 47.9638 134.571 47.8751 134.29C47.4063 133.175 48.2363 132.937 47.56 132.422C46.8837 131.907 46.6225 130.539 46.4918 129.801C46.5894 129.116 46.8532 128.464 47.2603 127.903C47.7598 127.219 47.6138 128.372 46.9837 125.797C46.8345 124.776 46.6318 123.762 46.3765 122.762C45.9154 121.225 46.1537 118.412 46.4226 116.56C47.0374 112.448 48.2363 109.059 51.6639 104.61C52.4324 103.58 53.6389 102.081 53.6082 102.035C53.2688 101.413 53.0603 100.728 52.9956 100.022C52.9308 99.3165 53.0112 98.6049 53.2316 97.9314C53.3162 97.7162 55.0376 94.7728 56.3595 93.9812C58.2577 92.8438 59.1415 90.8611 62.5075 91.3529C63.0906 91.452 63.6554 91.6386 64.1829 91.9062C64.8438 91.6373 67.7872 87.7256 67.8026 87.7102C69.5163 85.4047 68.4481 86.2808 67.426 84.4824C65.351 80.8551 65.7045 77.8656 68.7401 75.0836C72.5366 71.6022 74.4194 68.5051 77.3936 64.1784C81.2361 58.6529 83.288 57.7307 83.0959 57.4079C82.464 56.1347 81.7154 54.923 80.8595 53.7882C80.091 52.9198 79.8374 52.5893 79.1381 52.9352C77.1553 53.9188 75.5568 55.8017 73.1591 55.2407C70.3924 54.5721 67.8256 49.0465 66.6959 46.4182C66.5115 45.9955 66.1503 47.0253 64.7132 46.9177C64.2714 46.8472 63.8654 46.6326 63.5582 46.3073C63.251 45.9821 63.06 45.5645 63.0148 45.1194C62.8687 44.1588 63.7833 43.69 64.4519 43.2212C65.3357 42.6141 64.4519 41.4767 63.5066 40.1472C62.4507 38.8382 61.7423 37.2839 61.447 35.6283C61.1857 34.0913 61.447 33.5995 61.0858 33.7532C57.7274 35.0827 60.4402 34.8675 59.5488 36.4045C59.2567 36.9117 59.2952 37.0424 59.6717 37.3114C59.906 37.4909 60.1018 37.7155 60.2476 37.9721C60.3935 38.2287 60.4863 38.5119 60.5207 38.805C60.5551 39.0981 60.5304 39.3951 60.4479 39.6784C60.3654 39.9618 60.2269 40.2257 60.0406 40.4546C58.3268 42.6218 57.42 41.5228 57.9503 40.8542C58.0758 40.7057 58.1913 40.5491 58.2961 40.3854C58.3913 40.2668 58.4492 40.1226 58.4625 39.9711C58.4757 39.8196 58.4437 39.6675 58.3704 39.5342C58.2972 39.4009 58.186 39.2923 58.051 39.2222C57.9161 39.1521 57.7633 39.1236 57.6121 39.1404C57.2424 39.1492 56.8835 39.0151 56.6101 38.7661C56.3367 38.517 56.1699 38.1721 56.1443 37.8032C56.1443 37.565 56.1443 37.2191 55.9137 37.1423C55.0299 36.881 54.492 35.6821 55.0914 34.2758C55.3398 33.7992 55.6732 33.3721 56.0751 33.0154C56.3057 32.8694 55.9752 32.416 55.6371 32.3852C55.2989 32.3545 54.3383 31.9779 54.2691 31.194C54.1769 30.1258 54.0924 29.9183 54.6303 29.1729C55.8292 27.5052 57.1971 27.9894 56.6669 27.4744C55.7062 26.5599 55.0453 25.5532 55.5295 24.3236C55.6891 23.8614 55.9401 23.4361 56.2675 23.073C56.5949 22.71 56.9921 22.4165 57.4354 22.2102C58.3115 21.8105 58.5113 22.3639 58.8033 22.0488C59.3643 21.457 60.3403 21.1804 61.6929 21.8413C62.0925 22.0411 61.6929 21.8951 62.2386 20.7116C63.1761 18.7519 63.9984 18.1985 65.9351 15.8315C65.6081 15.627 65.3272 15.3568 65.1102 15.038C64.8933 14.7191 64.745 14.3586 64.6747 13.9794C64.6209 13.503 64.5595 12.8497 64.936 12.5039C65.7583 11.7354 65.912 11.7354 65.8352 11.5356C65.4279 10.3905 66.0273 8.8919 67.3722 9.05329C67.513 9.06093 67.6541 9.06093 67.7949 9.05329C67.6412 4.71121 71.1533 5.47204 71.9986 6.4173C72.2369 6.68628 72.0985 6.54795 73.136 6.4711C73.4357 6.4711 73.8123 6.69396 73.8507 6.00231C73.9276 4.46529 77.6472 3.31252 78.285 5.14926C78.6001 6.0561 78.7384 5.05704 80.5444 5.52583C80.652 5.52583 80.7673 5.71796 80.8903 5.72564C81.4997 5.3637 82.1643 5.10409 82.8577 4.95713C84.9864 4.8188 85.0172 5.61805 85.7011 6.17906C86.3851 6.74007 85.5398 7.48553 86.6464 7.42405C86.8693 7.42405 87.0844 6.88609 87.7838 6.88609C88.5435 6.72116 89.3297 6.72116 90.0893 6.88609C90.781 7.01674 91.1191 7.74682 91.3497 8.42311C91.9952 10.3136 91.2959 9.80643 92.8098 9.79106C93.0536 9.8089 93.2839 9.90919 93.4631 10.0754C96.2374 12.1811 94.6696 13.7719 94.8848 14.064C94.9617 14.1716 95.8455 13.8104 96.4987 14.3329C98.443 15.87 95.9684 14.9708 99.4959 14.6788C100.018 14.6327 100.364 14.9862 100.856 15.4473C101.194 15.747 101.379 16.0006 101.978 17.3378C102.136 17.7727 102.194 18.2377 102.147 18.6981C102.147 19.3206 101.732 19.5665 101.471 19.9815C102.155 19.9277 102.854 19.8893 103.938 21.2034C103.938 21.2034 105.659 22.6866 105.728 23.7164C105.805 24.9768 105.79 25.0998 105.629 25.3226C105.144 25.9912 105.121 26.2986 104.745 26.46C104.368 26.6214 104.276 26.8135 103.976 26.852C103.869 26.852 103.846 26.9365 103.976 27.0287C104.155 27.3187 104.256 27.6496 104.271 27.9899C104.286 28.3302 104.214 28.6686 104.061 28.973C104.007 29.0653 104.468 29.3035 104.545 29.3342C105.229 29.6801 105.221 30.3717 105.267 31.2632C105.255 31.6835 105.157 32.0967 104.978 32.4774C104.8 32.8581 104.545 33.1981 104.23 33.4765C104.15 33.5955 104.043 33.6933 103.917 33.7616C103.791 33.8298 103.651 33.8665 103.507 33.8684C102.97 33.8684 102.923 33.3612 102.501 33.4996C102.309 33.5687 102.17 33.8838 102.501 34.1605C104.345 35.6975 103.538 36.466 102.816 37.588C102.462 38.1337 102.047 38.1567 101.832 38.3565C102.393 38.9483 103.907 39.5247 102.508 42.0761C102.206 42.3505 101.888 42.6071 101.555 42.8446C100.926 43.165 100.198 43.2337 99.5189 43.0368C99.1116 42.8907 98.7504 43.8053 99.25 44.3048C99.7393 44.9051 99.9929 45.6632 99.9632 46.4371C99.9335 47.211 99.6225 47.9475 99.0886 48.5085C98.1126 49.6536 99.5113 51.4135 98.3201 51.0369C97.1289 50.6604 95.9454 49.1618 96.3834 47.9245C96.7754 46.8255 97.4363 46.3875 96.3834 45.6804C95.6687 45.2193 95.7148 44.4431 95.9377 43.6131C96.0222 43.3211 95.8224 43.3211 95.1 42.9138C94.7367 42.7377 94.4421 42.4459 94.2627 42.0842C94.0832 41.7226 94.029 41.3115 94.1086 40.9157C94.2008 40.6467 94.2239 40.6621 93.3401 40.4776C92.4563 40.2932 92.4333 39.6169 92.2027 39.9243C92.1028 40.0626 91.9414 40.1779 91.88 40.3316C91.8646 40.4952 91.8646 40.6599 91.88 40.8234C91.7877 41.6842 92.9712 41.4459 92.9405 43.1905C92.8685 43.8055 92.7053 44.4064 92.4563 44.9734C92.1105 46.3798 90.4044 45.8418 90.7426 46.2799C97.7283 55.356 98.3815 53.6038 101.901 57.6154C102.017 57.7537 102.178 57.869 102.216 58.0765C103.141 58.6205 103.86 59.4555 104.261 60.4512C105.321 62.5953 105.406 61.5348 106.666 63.9863C108.972 68.5205 107.68 72.1479 108.142 76.244ZM107.289 80.3479C107.551 78.8763 107.551 77.3698 107.289 75.8982C107.17 74.1265 107.193 72.3481 107.358 70.5801C107.315 69.5897 107.186 68.6049 106.973 67.6367C106.716 66.1166 106.14 64.6682 105.283 63.3869C104.881 62.793 104.263 62.3794 103.561 62.2341C102.49 61.7509 101.287 61.6479 100.149 61.9421C99.6674 62.0496 99.2004 62.2147 98.7581 62.4339C98.2125 62.749 98.0588 62.4339 98.0741 62.3494C98.3508 61.1966 101.041 60.7201 102.462 61.0276C102.83 61.1453 103.208 61.2277 103.592 61.2735C103.377 60.505 102.316 58.8373 101.217 58.7681C100.692 58.676 100.159 58.6425 99.6265 58.6682C97.7614 59.1393 96.0819 60.1625 94.808 61.6039C92.3334 64.2783 91.1576 62.872 88.5446 66.8529C87.3304 68.7126 85.2861 69.535 84.0719 70.4725C83.148 71.2533 82.2656 72.0819 81.4282 72.9548C78.3542 76.0288 76.2254 75.0913 76.3868 72.9548C76.5866 70.4264 81.2822 63.4253 83.6953 59.2139C83.8413 58.9603 83.849 58.845 83.8183 58.7374C83.7568 58.4915 83.6031 58.1994 83.4494 58.3224C82.2146 59.4926 81.0472 60.7319 79.9527 62.0343C76.8787 66.338 75.5261 68.6358 74.6346 69.8039C69.0091 77.1124 67.3722 76.5284 66.9495 79.5486C66.8375 80.7161 67.0241 81.8929 67.492 82.9684C67.9598 84.0439 68.6935 84.9827 69.6239 85.6967C71.9295 87.4873 74.5731 86.7649 76.187 87.3797C77.8009 87.9945 79.8528 88.0483 79.9834 88.6785C79.9905 88.7114 79.9905 88.7455 79.9834 88.7784C79.676 88.9782 79.8451 89.1396 78.8537 88.9091C74.8575 87.9638 76.9555 88.2405 74.2427 87.8793C73.8968 87.8332 70.9919 87.7256 69.6316 86.788C69.4549 86.665 69.4702 86.8571 68.9169 87.6103C64.3058 93.7584 62.3923 94.3885 62.6766 94.6652C63.1377 95.1186 63.2222 95.6412 63.7756 95.964C64.4356 96.3549 64.9877 96.9043 65.3818 97.5625C65.7998 98.0702 66.0661 98.6855 66.1503 99.3377C66.45 99.9756 66.2886 101.213 65.497 101.359C64.7055 101.505 64.7285 101.259 62.9225 99.2916C62.8226 99.184 62.7535 98.9919 62.546 99.015C65.62 102.704 64.083 104.325 63.1608 104.033C62.6228 103.864 62.5998 103.265 61.5315 102.412C60.9551 101.943 61.0627 101.858 60.5863 101.32C60.108 100.847 59.5677 100.441 58.9801 100.114C58.9801 100.644 61.57 102.296 62.0541 104.364C62.4768 106.216 61.5238 106.838 60.5171 105.947C59.4028 104.925 59.6794 105.232 59.6103 105.616C59.4489 106.531 58.5497 106.592 57.9656 106.085C56.4747 104.817 56.7053 105.255 55.3681 103.98C54.0309 102.704 54.1462 102.635 54.1462 102.857C52.9309 104.347 51.8093 105.91 50.7878 107.538C49.0817 110.381 46.853 113.916 47.0451 121.063C47.0611 121.727 47.1724 122.384 47.3756 123.015C47.7445 124.606 47.6215 124.699 47.8367 125.682C47.9816 126.372 48.206 127.042 48.5053 127.68C48.8265 128.493 49.358 129.206 50.0453 129.746C50.7326 130.287 51.5511 130.634 52.417 130.754C54.1077 131.062 51.5025 129.586 50.2344 127.304C49.1201 125.298 50.0116 124.23 50.4419 124.045C51.3795 123.646 51.6792 124.414 52.6629 125.582C53.7926 126.935 54.6457 127.65 55.5986 127.972C57.7197 128.687 58.957 131.454 59.5872 131.239C60.3251 130.964 61.0229 130.592 61.6622 130.132C72.4751 122.808 77.8009 117.282 81.7203 113.947C84.7405 111.388 84.41 110.873 85.0018 108.076C85.0018 108.076 86.216 100.075 86.216 100.06C86.216 99.8834 86.216 99.6605 86.0316 99.6067C85.8472 99.5529 85.8087 99.4299 85.6627 99.3915C83.8413 98.8689 84.6637 96.379 84.8942 95.1494C85.4475 92.1522 84.6637 92.644 85.8548 89.4778C86.9769 86.4806 86.3851 86.0809 86.6234 84.8667C87.2151 81.7927 87.7069 82.7994 88.1604 78.3805C88.3394 75.7081 89.0418 73.0969 90.2277 70.6954C90.5581 69.9269 91.2037 70.1882 90.8732 70.5263C91.4419 70.7415 89.5053 72.5014 88.9366 79.2412C88.7367 81.6236 88.0835 82.7302 87.6531 84.444C86.9692 87.1415 88.2142 85.6122 86.5388 90.3308C85.7703 92.4826 86.2852 92.5441 85.8395 95.257C85.5397 97.1014 85.2477 97.2166 85.655 97.1782C87.1687 97.2771 88.6679 97.5347 90.1278 97.9467C91.9107 98.6153 92.6254 97.7316 94.539 98.2541C96.4526 98.7767 96.5217 99.3147 98.297 99.5683C100.439 99.7222 102.556 100.122 104.606 100.759C104.752 100.759 104.76 100.759 104.791 100.467C104.86 99.599 106.328 92.2367 106.328 92.1137C106.451 89.0397 106.028 89.1473 106.497 86.1117C106.827 83.5679 107.127 81.5852 107.289 80.3479ZM104.553 25.3764C104.729 25.0075 104.937 25.0229 104.914 24.4465C104.914 23.7318 104.776 23.5781 103.654 22.3024C103.346 21.9489 102.27 20.7654 101.817 20.9344C101.094 21.042 100.28 20.604 100.211 20.2351C100.088 19.6203 100.426 19.651 101.117 19.0516C101.809 18.4522 100.118 15.601 99.4113 15.6932C98.4507 15.8239 98.566 15.6932 97.759 16.1082C96.1221 16.9766 97.0443 15.3397 95.7071 15.0861C94.7388 14.8863 94.7542 15.3781 94.0395 14.6327C93.1864 13.7412 95.0385 13.3031 93.832 11.7046C93.5172 11.3553 93.1611 11.0456 92.7714 10.7824C92.4256 10.4827 91.465 11.2666 91.0346 10.6748C90.8593 10.3525 90.7743 9.98868 90.7887 9.62198C90.6443 9.14849 90.4539 8.69031 90.22 8.25404C90.174 8.1346 90.0943 8.03108 89.9907 7.95604C89.887 7.88101 89.7637 7.8377 89.6359 7.83136C88.9289 7.73914 87.8376 7.58543 87.3919 8.13876C87.2305 8.3232 86.7233 8.59218 86.5619 8.48459C86.4005 8.377 86.0162 8.42311 85.5628 8.26172C85.1094 8.10034 85.1401 7.82367 85.1709 7.30877C85.1709 7.04748 85.1709 6.986 84.3255 6.20212C83.4801 5.41824 81.6588 6.29434 81.2515 6.80156C80.6981 7.47784 80.1756 6.48647 80.0295 6.46341C78.6155 6.24823 78.0929 7.45479 77.724 6.30971C77.2706 4.82649 76.4944 5.07241 75.1034 5.7487C74.2196 6.17906 75.0112 8.2233 73.3742 7.49321C72.8824 7.27035 72.698 7.57775 72.4136 7.84673C72.1293 8.11571 71.7143 7.84673 71.5759 7.56238C70.8766 6.02536 68.2022 6.57869 68.6863 8.98412C68.8093 9.56819 68.5173 10.1676 67.7641 10.0754C67.5105 10.0754 67.0725 9.9217 66.9495 10.0754C65.7276 11.428 67.8487 11.5356 65.6431 13.088C64.8745 13.649 66.1887 15.6855 66.719 15.1322C68.548 13.2109 68.9092 13.3416 71.33 14.5635C74.2119 16.0006 76.5866 16.7614 83.1189 22.556C86.7666 25.9413 89.8879 29.8526 92.3795 34.1605C93.8704 37.2345 93.709 36.7965 92.879 38.7715C92.8098 38.9406 92.7023 39.3787 93.4323 39.6399C93.832 39.786 94.8848 39.8628 94.9156 40.5237C94.9156 41.346 94.4007 41.7072 95.93 42.4757C96.8292 42.9215 96.8215 43.1059 96.5602 44.4585C96.491 44.8274 96.6908 44.8428 97.1289 45.3039C98.8657 47.1329 96.1682 48.2165 97.4209 49.4538C98.1894 50.2223 97.4209 49.523 98.42 47.9783C100.149 45.2731 97.7667 45.4422 98.1356 43.4133C98.2586 42.737 98.8657 41.8763 99.5189 42.176C101.333 43.0752 103.246 40.0319 101.125 39.2787C100.718 39.1327 100.226 38.979 100.357 38.2489C100.357 38.0491 100.787 37.6572 101.01 37.6649C101.356 37.6649 101.579 37.4574 101.848 37.3267C101.994 37.2653 102.247 36.6966 102.531 36.3661C102.816 36.0356 102.531 35.3056 102.224 35.1519C100.749 34.3295 101.725 32.0778 103.069 32.9232C103.285 33.0692 103.308 33.2075 104.107 32.0317C104.293 31.6642 104.35 31.2444 104.268 30.8405C104.222 30.2027 103.723 30.072 103.308 30.0105C102.893 29.949 102.539 29.5187 102.923 28.9423C103.192 28.5427 103.331 28.5734 103.354 28.243C103.354 27.5897 102.993 27.6896 102.847 27.1363C102.82 26.9519 102.846 26.7636 102.922 26.5936C102.999 26.4235 103.122 26.2786 103.277 26.1757C103.7 25.9682 104.284 25.8759 104.553 25.338V25.3764ZM100.764 101.459C100.825 100.921 100.764 100.998 100.672 100.982C94.2239 100.268 96.6908 99.6144 93.6859 99.2225C92.5409 99.0764 90.6888 99.5606 89.7896 99.0073C89.2286 98.6538 88.829 98.6614 87.3534 98.4155C87.1767 98.4155 86.3621 105.67 85.5628 109.559C85.1324 111.642 85.0018 112.026 83.3726 113.632C78.4174 118.31 73.2202 122.725 67.8026 126.858C64.083 129.686 60.7938 131.823 59.349 132.338C58.5036 132.606 57.2202 129.532 55.0914 128.764C53.5544 128.218 52.1941 126.136 51.3565 125.236C50.7186 124.545 50.2806 124.991 50.4804 125.951C51.0721 128.764 54.9915 130.301 54.1462 131.446C53.7926 131.938 53.5237 131.654 53.1087 131.684C52.3994 131.748 51.6848 131.65 51.0191 131.397C50.3534 131.144 49.754 130.743 49.2661 130.224C48.7896 129.64 48.4976 129.663 48.1672 128.971C48.0826 128.802 47.8982 128.449 47.7829 128.61C47.4799 129.032 47.3283 129.544 47.3525 130.063C47.3581 130.4 47.4349 130.733 47.5779 131.039C47.7209 131.345 47.927 131.617 48.1825 131.838C48.3689 132.07 48.5014 132.341 48.5705 132.631C48.6396 132.92 48.6436 133.222 48.5821 133.513C48.6436 135.05 50.1192 134.505 50.1192 135.965C50.1208 136.233 50.1926 136.496 50.3274 136.728C50.4622 136.96 50.6554 137.153 50.8877 137.287C52.8858 138.286 50.319 139.83 56.4594 140.038C57.8736 140.017 59.2642 139.673 60.5248 139.031C65.9043 136.972 85.9701 127.258 93.9934 121.517C97.2518 119.211 97.5131 118.12 98.0972 116.091C98.8187 113.437 99.368 110.739 99.7418 108.014C100.103 106.308 100.71 101.866 100.764 101.436V101.459ZM97.6899 58.4607C99.7879 57.4002 100.464 57.9766 100.872 57.7998C100.672 57.4079 96.8445 54.3262 96.8292 54.3185C94.1932 52.6815 90.2661 46.5335 89.8203 46.7333C89.3746 46.9331 88.0681 47.1637 87.6531 46.5488C87.3263 46.075 87.0676 45.5576 86.8846 45.0118C86.8846 44.4662 85.1171 44.3048 85.8933 41.9378C86.0085 41.5843 85.7549 41.4844 85.4936 41.1693C85.2323 40.8542 85.4936 40.7773 84.825 40.9003C82.5195 41.3076 82.8423 39.4094 83.68 39.9781C85.4629 41.1923 87.4226 37.0501 85.778 34.1144C85.565 33.626 85.1958 33.2221 84.7285 32.9662C84.2611 32.7102 83.722 32.6167 83.1958 32.7003C82.312 32.7618 81.3206 33.538 80.9748 35.4131C80.8741 35.8907 80.6168 36.321 80.2436 36.6357C79.8705 36.9504 79.403 37.1314 78.9152 37.15C77.2629 36.9732 76.7864 36.174 76.8633 35.3594C75.3954 35.9895 73.9967 35.2979 74.2273 33.7224C74.2273 33.5149 74.0121 33.7224 73.4588 33.6609C73.2966 33.6403 73.1404 33.586 73.0004 33.5015C72.8604 33.4171 72.7395 33.3044 72.6454 33.1706C72.5514 33.0368 72.4863 32.8849 72.4544 32.7245C72.4224 32.5641 72.4242 32.3988 72.4597 32.2392C72.4597 31.8934 72.2753 32.1162 72.0832 32.2392C71.722 32.4851 70.8535 33.5457 69.3703 32.5466C68.4865 31.9625 68.6018 31.8703 68.4097 32.0163C68.0909 32.4005 67.6426 32.6547 67.1493 32.7311C66.8187 32.8202 66.4689 32.8077 66.1454 32.6953C65.822 32.5829 65.5398 32.3758 65.3356 32.1009C64.9898 31.6013 65.1896 31.6321 64.667 31.9318C63.3913 32.7003 63.13 31.7704 62.5229 31.44C62.3846 31.3631 61.9235 30.9251 61.8774 31.9011C61.8607 33.4165 62.0102 34.9293 62.3231 36.4122C63.0916 39.4862 65.6892 41.0233 65.5816 42.6986C65.5527 43.0147 65.4428 43.3181 65.2624 43.5792C65.082 43.8404 64.8372 44.0506 64.5518 44.1895C62.8995 45.2501 64.5518 46.495 65.5047 46.0032C67.4106 45.0041 66.1349 44.3586 69.524 50.499C74.8344 60.113 77.9776 49.4384 80.9979 52.8045C82.2917 54.4501 83.4337 56.2095 84.41 58.0611C84.5109 58.2143 84.5709 58.3908 84.5843 58.5737C84.5978 58.7566 84.5642 58.94 84.4869 59.1063C83.3879 61.4579 77.0324 70.7031 77.2322 73.4851C77.2322 73.8847 77.9161 74.1306 78.2159 74.0077C79.6356 73.4517 80.8878 72.5384 81.8509 71.3563C83.9797 69.0508 86.8078 68.044 87.8299 66.4148C88.3755 65.5387 89.4591 64.0171 90.4966 63.4791C95.4689 60.8892 93.4785 60.5664 97.6976 58.4377L97.6899 58.4607ZM95.6456 127.066C96.8906 126.09 95.4228 124.622 94.9309 123.776C94.1624 122.462 94.3622 122.332 94.0625 122.524C83.2035 129.632 87.3227 127.089 78.9921 131.408C56.1443 143.25 60.0714 138.14 58.5651 143.135C58.8187 145.333 61.3778 144.157 61.47 144.149C62.3 144.096 62.8073 143.55 64.1675 142.843C64.9443 142.439 65.7879 142.178 66.6575 142.075C70.746 141.045 69.9698 141.529 72.4367 139.684C76.5713 136.61 80.7673 135.842 81.8816 135.358C85.071 134.067 87.0153 131.992 88.2372 131.315C92.0798 129.233 91.7877 129.01 93.7474 128.449C94.4865 128.155 95.1394 127.679 95.6456 127.066ZM92.4025 37.4804C93.1096 37.2038 92.4025 35.8973 92.0567 35.2364C91.0192 35.4977 90.927 35.4823 90.9424 35.8051C90.9962 36.6504 91.0192 37.2422 91.0115 38.0491C91.0346 38.2566 91.4803 37.8416 92.4025 37.4804ZM91.5111 39.4171C91.8185 39.0277 92.0766 38.6017 92.2796 38.149C91.8904 38.2886 91.5127 38.4582 91.1499 38.6563C90.9654 38.7485 90.8425 38.7562 91.5111 39.4171ZM92.0106 43.3442C92.2411 42.176 90.8271 42.2298 90.9347 41.2769C91.0884 39.8936 90.5889 39.54 88.4524 37.5189C87.5302 36.6428 87.0383 35.9818 87.1382 36.8426C87.2382 37.7033 86.6618 39.6476 86.0316 40.224C85.9163 40.3316 86.2775 40.6928 86.4082 40.8311C87.3919 41.8609 85.801 43.1367 87.1767 43.9052C87.9452 44.3202 87.4764 45.0349 88.2218 45.7188C88.3227 45.8308 88.446 45.9203 88.5837 45.9816C88.7214 46.0428 88.8704 46.0745 89.0211 46.0745C89.1718 46.0745 89.3208 46.0428 89.4585 45.9816C89.5962 45.9203 89.7195 45.8308 89.8203 45.7188C90.7887 44.8197 91.5341 45.642 92.0106 43.3442ZM88.6599 36.5429C90.8578 38.7638 90.5197 38.8945 90.4736 35.9818C90.4736 35.613 90.3276 35.8358 89.8357 35.9818C88.6215 36.3507 88.4601 36.3046 88.6599 36.5429ZM90.1969 35.3363C90.5427 35.221 90.5274 35.1134 90.0355 32.147C90.0355 31.9318 90.0816 31.9549 88.8367 32.147C88.4063 32.2315 88.8367 32.0548 88.5446 35.6975C88.5062 35.928 88.4831 35.8819 90.1739 35.2979L90.1969 35.3363ZM88.7291 31.6551C90.1278 31.4169 90.0816 31.8165 88.4678 29.511L88.3755 29.4418V29.5417C88.7291 31.3016 88.3755 31.6475 88.7291 31.6551ZM88.0758 32.4928C88.0758 32.3007 88.2449 32.2392 85.9624 32.9155C86.0393 33.0461 86.1853 33.2152 86.2621 33.3459C86.5928 33.9296 86.8509 34.5516 87.0307 35.198C87.1613 35.4823 87.4072 35.5515 87.8991 35.7897C88.1219 35.9127 88.0605 32.6542 88.0605 32.4928H88.0758ZM85.7242 32.439C88.1143 31.8012 88.0989 31.8473 88.0681 31.6705C88.0374 31.4937 87.9452 28.8117 87.73 28.6733C87.6685 28.6349 88.0067 28.6118 85.7396 29.219C85.4014 29.3112 85.4936 29.1114 85.5321 31.1172C85.5474 32.562 85.4629 32.5082 85.7088 32.439H85.7242ZM87.3534 28.2583C87.6301 28.1815 86.3083 26.7213 85.7549 26.1065C85.2016 25.4917 84.9864 25.484 85.0786 25.8375C85.24 26.7059 85.386 28.0431 85.4322 28.5043C85.4322 28.658 85.5244 28.7425 85.6243 28.7118C85.7242 28.681 85.4014 28.7809 87.3381 28.2583H87.3534ZM85.0479 29.657C85.0479 29.4879 84.9941 29.4956 84.5253 29.657C81.1746 30.9404 81.4513 30.7714 81.3591 30.902C81.2668 31.0326 81.4129 30.9942 82.7501 31.8242C82.7851 31.8591 82.8273 31.8861 82.8737 31.9034C82.9201 31.9206 82.9697 31.9277 83.019 31.9241C83.6041 31.8153 84.2071 31.8577 84.7712 32.0471C85.1324 32.2469 84.948 32.2315 84.9941 29.6263L85.0479 29.657ZM85.0479 28.5811C84.9941 28.0355 84.8404 26.9288 84.6713 25.2381C84.6612 25.0811 84.6221 24.9274 84.5561 24.7847C84.4024 24.6079 84.095 24.7847 83.9028 24.8385C83.0131 25.0531 82.1419 25.3383 81.2976 25.6915C80.9441 25.8298 81.4513 27.29 81.1362 30.2103C81.1362 30.487 81.1362 30.487 81.3053 30.4102C84.7174 28.7963 85.0248 29.219 84.9634 28.5811H85.0479ZM81.2054 25.1459C83.3802 24.2544 84.1718 24.3774 83.8567 24.1007C82.8315 23.1263 81.7568 22.2054 80.6367 21.3417C80.8936 22.5949 81.0453 23.8674 81.0901 25.1459H81.2054ZM80.6597 34.1528C81.1439 32.6158 82.2582 32.4851 81.8279 32.2085C62.7535 19.9123 63.96 23.7088 61.3701 22.5329C60.8322 22.287 59.8331 22.2563 59.5027 22.702C58.7956 23.6012 57.5814 22.0718 56.4824 24.5464C55.9752 25.6915 57.1818 27.1594 57.9733 27.2132C58.133 27.2212 58.2861 27.2788 58.4115 27.378C58.5368 27.4772 58.6281 27.613 58.6727 27.7665C58.8725 28.2814 58.1578 28.3582 57.6198 28.4505C56.933 28.5802 56.2874 28.8728 55.737 29.3035C55.4971 29.4857 55.3161 29.7343 55.2164 30.0185C55.1166 30.3027 55.1026 30.6099 55.176 30.902C55.2912 31.5091 55.614 31.5168 55.9906 31.586C56.7591 31.7397 56.9051 32.1854 57.2894 32.8848C57.5583 33.3689 57.0357 33.1845 56.152 34.3833C56.0137 34.5332 55.9081 34.7102 55.842 34.9031C55.7759 35.096 55.7508 35.3006 55.7681 35.5038C55.7855 35.7069 55.845 35.9043 55.9428 36.0832C56.0407 36.2621 56.1747 36.4186 56.3364 36.5429C56.8359 36.7427 56.882 37.0424 56.8897 37.5265C56.8897 38.6025 57.566 38.1029 58.2884 38.541C59.1722 39.0712 59.1876 39.8244 58.8494 40.6697C59.0922 40.5257 59.3001 40.3297 59.4582 40.0959C59.6163 39.862 59.7207 39.5961 59.764 39.3172C59.91 38.418 59.3874 38.1183 58.8033 37.6034C58.6304 37.4134 58.5258 37.1711 58.5064 36.9149C58.4869 36.6587 58.5535 36.4033 58.6957 36.1893C58.9263 35.905 58.8264 35.8128 58.5574 34.8829C58.3883 34.3142 59.0031 33.9991 59.4104 33.7147C60.617 32.8771 61.0627 33.4688 61.0627 32.0317C60.8091 29.926 62.8534 30.4947 63.1531 30.8943C63.2326 31.0046 63.34 31.0919 63.4643 31.1471C63.5885 31.2024 63.7252 31.2237 63.8604 31.2088C63.9956 31.194 64.1244 31.1435 64.2337 31.0626C64.343 30.9817 64.4289 30.8732 64.4826 30.7483C64.5902 30.4486 65.0897 29.9798 65.3971 30.6407C65.474 30.8021 65.6431 31.2017 65.7353 31.3554C66.2809 32.3007 67.2031 32.001 67.7718 31.463C67.8414 31.3644 67.9319 31.2824 68.0367 31.2227C68.1416 31.163 68.2583 31.1271 68.3786 31.1176C68.4989 31.108 68.6198 31.1251 68.7327 31.1675C68.8457 31.21 68.9479 31.2767 69.0322 31.3631C69.6086 31.7474 70.2925 32.6081 71.1148 32.0471C71.5307 31.6642 72.0159 31.3642 72.5443 31.1633C73.9045 30.9635 72.3368 32.7003 73.8046 32.854C74.6577 32.9232 75.0727 32.7234 75.0342 33.5764C75.0342 34.0529 75.0342 34.4218 75.3416 34.5985C75.8181 34.8521 76.1101 34.6907 76.6174 34.3757C77.1246 34.0606 77.6087 34.0375 77.6625 34.7215C77.701 35.2518 77.4935 35.6591 78.1544 36.0356C78.3872 36.1553 78.6489 36.2072 78.9098 36.1854C79.1706 36.1637 79.4201 36.0692 79.6299 35.9127C80.36 35.2902 80.1218 35.4516 80.5444 34.1528H80.6597ZM80.2755 30.2411C80.5829 30.4793 80.7135 30.4178 80.5752 26.0834C80.5752 25.8836 80.3984 26.0066 80.0372 26.1603C75.8181 27.9202 76.6481 27.5206 76.2792 27.7434C76.6942 28.0893 79.6683 29.7569 80.2755 30.2411ZM76.1255 27.267C80.8672 25.1843 80.6136 25.4148 80.5906 25.1305C80.4639 23.6695 80.2249 22.2204 79.8758 20.7961C79.7606 20.8806 75.9564 22.1103 75.8719 22.1179C75.4185 22.1794 75.8719 22.3562 75.626 26.2064V27.2439C75.6644 27.5052 75.6644 27.4898 76.1255 27.267ZM76.894 21.2342C79.6607 20.4195 79.2995 20.5809 79.5146 20.4119C77.455 18.9978 75.4262 17.3378 75.0189 17.3378C75.1649 17.8373 75.5261 18.4522 75.6183 21.5262C75.6644 21.7183 75.7489 21.58 76.9248 21.2342H76.894ZM71.8219 25.1843C75.9334 27.021 75.1802 29.0268 75.1956 23.1016C75.0419 23.1016 75.4876 22.2563 74.7729 22.5176C74.7729 22.5176 71.9909 23.6012 70.4078 24.3005C70.0927 24.4388 71.6758 25.1228 71.8219 25.1843ZM71.745 23.1862C75.1265 21.8874 75.1572 21.9489 75.1418 21.5646C75.1056 20.5344 75.0029 19.5076 74.8344 18.4906C74.7191 17.968 74.6346 17.5376 74.4655 17.4685C74.2965 17.3993 73.7662 17.5146 72.5443 18.0295C70.3233 18.9517 70.5385 18.9133 70.062 19.0977C69.7162 19.236 70.062 19.0439 69.5778 21.6338C69.2089 23.7702 69.109 23.8548 69.7546 24.0469C69.9851 24.1161 70.062 23.8625 70.7921 23.6319C70.9535 23.5781 71.0918 23.409 71.2532 23.386C71.4146 23.3629 71.5683 23.2477 71.7373 23.1862H71.745ZM74.3118 16.9459C74.235 16.7922 74.5962 16.9459 70.5385 14.9785C69.8852 14.6634 70.4155 14.7249 69.9467 18.4368C69.9467 18.6597 69.9467 18.5828 71.2532 18.0295C74.4579 16.7076 73.8354 17.1303 74.3041 16.9459H74.3118ZM69.7008 14.8786C69.7008 14.6173 69.7008 14.5789 69.0091 14.4098C68.8418 14.3928 68.6727 14.4122 68.5136 14.4666C68.3544 14.521 68.2089 14.6091 68.0869 14.7249C66.3501 16.1082 62.9456 20.6578 62.7073 21.6415C62.6151 22.0565 62.7073 21.9719 63.0916 22.018C63.2914 22.1026 68.1484 19.3129 68.8477 19.1054C69.5471 18.8979 69.3857 18.8518 69.6162 16.5463C69.7085 15.4165 69.6931 15.2398 69.7085 14.8786H69.7008ZM68.8324 23.5704C68.7786 23.1247 69.3934 19.7663 69.3165 19.4589C69.3165 19.4589 63.8063 22.1564 64.1598 22.2255C68.2406 22.994 68.8785 24.0238 68.8324 23.5704ZM65.1205 100.421C65.2972 100.575 65.5047 100.421 65.4663 100.129C64.9745 96.9246 63.2837 97.0553 62.3923 95.5644C61.9388 94.7958 61.8236 95.1109 61.3471 93.9735C61.1242 93.451 61.7467 93.1282 62.1156 93.6047C62.2078 93.743 62.1924 93.8583 62.2924 93.7584C63.6526 92.4288 63.6219 92.6286 63.0609 92.375C62.154 91.9677 61.9542 92.2444 61.3394 92.1983C59.4104 92.0369 58.127 94.1349 57.0281 94.5576C56.1607 95.1499 55.4468 95.9402 54.9454 96.8631C54.5381 97.6316 53.7926 97.9928 53.6927 99.307C54.1077 101.666 54.4612 101.805 55.2298 102.527C57.7966 104.925 57.4277 104.341 58.4729 105.517C58.6189 105.686 59.0031 105.578 58.957 105.309C58.811 104.541 59.1722 105.009 57.2586 102.742C56.7975 102.189 55.7216 102.089 55.1222 100.491C54.8605 100.068 54.7221 99.581 54.7225 99.0841C54.7225 98.8613 55.0376 98.6538 55.2067 98.9688C55.3758 99.2839 55.8446 100.206 56.0213 100.506C56.7053 101.697 57.4892 101.628 58.0118 102.312C58.5071 103.057 59.1286 103.71 59.8485 104.241C60.7861 104.863 60.7092 105.163 61.0858 105.378C61.5853 105.67 61.6545 105.009 61.2472 104.218C59.7102 101.328 58.6035 102.028 57.2125 98.3771C56.6899 97.0091 57.2125 97.1014 57.0742 96.8939C57.3816 96.7786 57.297 96.7479 57.5276 96.9707C57.6352 97.0706 59.1953 99.2225 60.2404 99.8834C60.9111 100.351 61.4982 100.927 61.9773 101.589C63.1454 102.619 62.8687 102.781 63.3452 103.126C63.8217 103.472 64.4288 102.02 61.6699 99.1994C61.0166 98.5231 60.2097 96.8939 59.1415 95.5644C59.0967 95.4858 59.08 95.3943 59.0939 95.305C59.1079 95.2157 59.1518 95.1337 59.2183 95.0725C59.6487 94.8804 59.8254 95.5106 60.2558 95.9102C62.1079 97.624 61.6238 97.3627 62.2232 97.7008C63.3608 98.4181 64.3454 99.3531 65.1205 100.452V100.421Z" fill="#000001"/>
<path d="M100.134 63.203C101.34 63.0339 104.407 63.3567 104.207 64.8784C104.207 65.0935 103.784 65.155 103.546 64.8784C102.701 63.8101 100.418 63.9638 100.234 63.8639C100.011 63.9869 99.6267 63.9254 99.6037 63.6872C99.5806 63.4489 99.6805 63.2645 100.134 63.203Z" fill="#000001"/>
<path d="M101.51 92.4596C101.571 92.5518 101.94 93.0129 101.825 93.2281C101.71 93.4433 101.318 93.3664 101.156 93.0283C100.601 92.4264 100.147 91.7386 99.8113 90.9917C99.2503 89.7928 98.9506 88.3019 97.7363 85.8196C96.4375 83.1606 93.8169 74.0307 94.9236 74.0691C94.965 74.0638 95.0071 74.0667 95.0474 74.0777C95.0876 74.0888 95.1253 74.1077 95.1582 74.1335C95.1911 74.1592 95.2186 74.1913 95.239 74.2277C95.2594 74.2642 95.2723 74.3043 95.2771 74.3458C95.3457 74.6101 95.3895 74.8803 95.4077 75.1527C95.4077 76.8281 96.7449 80.4478 96.9448 81.3008C97.6611 83.6058 98.5314 85.86 99.55 88.0483C100.311 89.9081 100.034 90.2386 101.51 92.4596Z" fill="#000001"/>
<path d="M97.582 94.1814C97.9586 95.5109 99.4649 96.8789 98.8117 97.0402C98.5504 97.1017 98.5657 97.1248 98.4428 97.0402C97.29 96.0719 96.5983 94.1276 96.2756 92.6674C95.5071 89.2783 95.361 90.5771 94.8461 88.3023C93.1708 80.9707 92.5714 79.5797 93.3399 79.5797C94.1084 79.5797 93.6088 80.1638 94.7078 84.0909C96.0297 88.8095 94.9461 86.1428 96.5753 90.4618C96.8904 91.3763 96.7751 91.3533 97.582 94.1814Z" fill="#000001"/>
<path d="M82.6655 33.9532C83.8336 32.9157 85.24 33.8379 85.1785 34.6525C85.1792 34.7034 85.1666 34.7536 85.142 34.7981C85.1174 34.8426 85.0815 34.8799 85.0381 34.9063C84.9946 34.9327 84.945 34.9472 84.8941 34.9486C84.8433 34.9499 84.7929 34.9379 84.7481 34.9138C84.6396 34.8283 84.5416 34.7303 84.4561 34.6218C83.1958 33.2692 81.8662 36.2971 83.4263 36.5968C84.1948 36.7429 84.7942 36.8043 84.8865 37.5575C84.9787 38.3106 84.4561 38.9946 84.118 38.7717C84.0257 38.7026 83.8797 38.6565 83.8951 38.4951C83.8865 38.3284 83.9266 38.1629 84.0104 38.0186C84.3793 37.4729 83.6261 37.5267 83.0574 37.3577C81.5281 36.8812 81.7433 34.7755 82.6655 33.9532Z" fill="#000001"/>
<path d="M82.9575 73.7078C83.042 73.8154 83.1343 74.1382 82.5195 74.6146C81.628 75.2986 79.4454 76.728 79.3993 76.7357C78.8076 77.1046 76.1255 77.7041 75.2109 75.5215C75.2109 75.1142 75.5875 75.1449 75.795 75.46C75.9095 75.6709 76.078 75.8475 76.2833 75.9717C76.4886 76.096 76.7232 76.1634 76.9631 76.167C77.6649 76.2913 78.3867 76.2358 79.0612 76.0056C79.6145 75.583 79.6375 75.7674 81.2898 74.5916C81.8124 74.2458 82.7346 73.4311 82.9575 73.7078Z" fill="#000001"/>
<path d="M75.1264 88.5623C78.8075 90.253 79.3916 90.1531 79.3532 90.6603C79.3532 91.6824 75.5106 89.5767 74.5654 89.1233C73.8583 88.7237 74.2656 88.1703 75.1264 88.5623Z" fill="#000001"/>
<path d="M77.0247 44.4049C77.1246 44.7968 76.7019 44.8967 76.4791 44.62C76.4176 44.5432 76.4791 44.5662 76.3715 44.4894C76.2639 44.7199 76.0103 47.6557 75.4954 48.624C74.1966 51.0448 73.1898 50.0841 70.7998 49.3233C70.7344 49.3079 70.6755 49.2725 70.6312 49.222C70.5869 49.1715 70.5594 49.1085 70.5527 49.0417C70.5459 48.9748 70.5601 48.9076 70.5934 48.8492C70.6267 48.7909 70.6773 48.7444 70.7383 48.7162C73.0438 47.8017 76.0717 43.5672 75.4262 43.8823C75.2879 43.9438 75.1956 43.8823 75.1111 43.7977C74.4886 43.3059 76.5636 42.5451 77.0247 44.4049ZM75.6106 45.1734C75.6106 44.8737 75.6721 44.8813 75.4954 45.1734C72.1677 50.1994 70.5923 48.355 72.8978 49.3694C74.7115 50.1687 75.503 47.0332 75.6106 45.1887V45.1734Z" fill="#000001"/>
<path d="M67.0342 102.281C68.9017 102.104 74.9806 102.281 74.8269 102.888C74.8269 102.98 74.6962 103.049 74.7654 103.172L74.5349 103.241C67.5261 102.773 67.941 102.911 67.4569 102.896C66.9727 102.88 65.9122 102.381 67.0342 102.281Z" fill="#000001"/>
<path d="M69.7545 40.2926C70.2848 40.4001 70.1542 41.8296 68.1253 42.5443C67.7948 42.6596 66.6344 42.8594 66.5883 42.306C66.5422 41.7527 67.0724 41.7527 67.3568 41.7066C68.0798 41.6258 68.7422 41.2643 69.2012 40.6999C69.3933 40.3848 69.5163 40.2388 69.7545 40.2926Z" fill="#000001"/>
<path d="M67.8793 35.4915C70.1233 35.7374 69.2011 36.0909 69.5854 36.0755C69.3394 37.2052 68.9168 35.5452 65.9503 37.2129C65.6078 37.4854 65.2795 37.7752 64.9666 38.0813C64.2596 38.3657 64.275 37.3128 64.836 36.6135C65.5661 35.7758 67.2107 35.6067 67.8793 35.4915Z" fill="#000001"/>
<path d="M65.8428 103.464C65.4278 103.464 65.0743 103.987 65.7045 104.018C66.9045 104.2 68.0818 104.509 69.2166 104.94C70.2156 105.324 70.1695 104.54 69.2166 104.172C68.1186 103.823 66.9883 103.586 65.8428 103.464Z" fill="#000001"/>
</svg>
