<svg width="155" height="155" viewBox="0 0 155 155" fill="none" xmlns="http://www.w3.org/2000/svg">
<path d="M59.1885 80.385C59.0732 80.4792 58.9878 80.6049 58.9425 80.7467C58.8973 80.8885 58.8942 81.0404 58.9337 81.184C58.973 81.3276 59.0529 81.4567 59.1639 81.556C59.2748 81.6553 59.412 81.7205 59.559 81.7437C60.1612 81.6665 64.0753 79.2578 64.4535 75.4904C64.6774 73.0895 62.2688 71.4297 60.0145 71.4297C57.0037 71.4297 55.946 74.4405 57.1504 74.9655C58.3547 75.4904 58.0536 73.0123 60.1612 72.9351C60.5401 72.931 60.9149 73.0144 61.2563 73.1788C61.5978 73.3432 61.8967 73.5842 62.1297 73.883C62.3628 74.1818 62.5238 74.5304 62.6001 74.9016C62.6765 75.2728 62.6661 75.6566 62.5698 76.0231C62.036 77.853 60.8275 79.4119 59.1885 80.385Z" fill="#3D9CFB"/>
<path d="M19.6 42.1543C19.6772 43.1347 20.4261 42.8337 22.3098 42.7565C22.387 43.7369 22.387 45.6129 23.3597 45.5434C24.3324 45.4739 24.2629 45.3118 23.8152 42.5326C26 42.301 26.6716 42.301 26.6021 41.4749C26.5249 40.4945 25.8301 41.0272 23.6608 41.0272C23.5141 38.9196 23.5141 38.163 22.6881 38.4641C22.0087 38.688 22.0859 38.9891 22.2326 41.251C20.4261 41.4749 19.5228 41.1738 19.6 42.1543Z" fill="#3D9CFB"/>
<path d="M31.1878 23.2174C30.6628 20.4382 27.0498 20.1294 25.1661 21.9436C24.3941 22.7156 23.8846 24.6302 24.9422 24.499C25.7142 24.4063 25.4672 23.5957 26.1466 22.9935C28.3622 21.0944 31.9675 23.4876 27.7292 26.0816C26.7487 26.6837 27.2737 27.6256 28.1075 27.5098C33.7817 26.5602 30.2768 33.902 26.602 32.1418C26.2238 31.9952 25.83 31.6941 25.5444 32.2962C25.0966 33.1995 26.8259 33.9483 27.652 33.9483C31.566 34.0255 35.1018 27.4789 30.2073 26.1202C30.6008 25.7572 30.8967 25.3011 31.068 24.7939C31.2393 24.2868 31.2805 23.7447 31.1878 23.2174Z" fill="#3D9CFB"/>
<path d="M55.645 99.8787C57.6059 102.666 60.7634 102.434 61.0491 102.195C63.3812 100.519 65.6183 98.7148 67.7501 96.7907C65.3414 96.2657 63.6894 93.7027 63.6894 91.4484C62.8556 90.6764 61.0491 90.769 56.8339 94.0809C54.0701 96.1885 54.0701 97.5473 55.645 99.8787Z" fill="#3D9CFB"/>
<path d="M68.8925 66.3886C65.6578 66.6124 47.5928 68.5733 40.143 68.5733C32.9942 68.5733 18.4727 67.7396 18.2411 70.0016C18.1716 70.3798 18.6966 70.6809 19.0749 70.6809C29.2345 69.4766 47.3689 70.6809 60.1611 68.6428C64.0211 68.2723 67.0088 68.0407 68.8153 67.8708C70.6218 67.701 72.0577 66.2342 68.8925 66.3886Z" fill="#3D9CFB"/>
<path d="M18.0173 111.922C20.5495 111.969 44.1806 111.583 45.3386 110.718C45.7864 110.193 45.4158 109.946 44.5126 109.946C36.53 110.1 20.0477 110.718 17.639 110.625C15.2303 110.533 15.902 111.845 18.0173 111.922Z" fill="#3D9CFB"/>
<path d="M28.8566 56.4137C28.7794 55.5105 28.4783 55.5877 25.6219 56.4909C25.0969 54.0051 25.1664 53.0323 24.2632 53.4029C23.136 53.7812 23.7382 54.5377 24.1937 57.0159C21.8777 57.618 21.4067 57.6953 21.4839 58.3746C21.7078 59.7256 23.028 58.7529 24.6415 58.3746C25.1664 59.9186 25.3208 61.0689 26.0697 61.0072C27.1968 60.9145 26.6718 59.9572 26.0697 57.8497C27.6523 57.3556 28.9338 57.0545 28.8566 56.4137Z" fill="#3D9CFB"/>
<path d="M23.622 83.3192C22.85 83.1726 22.5644 82.7171 23.0198 82.3465C23.4753 81.9759 24.5639 83.1185 24.973 82.2693C25.3822 81.4201 24.3709 80.9106 23.622 80.9106C23.6367 80.8092 23.6313 80.7059 23.6061 80.6066C23.5809 80.5073 23.5363 80.414 23.475 80.3319C23.4137 80.2498 23.3369 80.1806 23.2489 80.1282C23.1608 80.0759 23.0633 80.0413 22.9619 80.0266C22.8606 80.0119 22.7573 80.0173 22.658 80.0426C22.5587 80.0678 22.4653 80.1123 22.3833 80.1736C22.3012 80.2349 22.232 80.3117 22.1796 80.3998C22.1272 80.4878 22.0927 80.5853 22.078 80.6867C22.0527 80.9155 22.0763 81.1471 22.1475 81.3661C20.7193 82.416 21.7769 84.3769 23.1279 84.678C24.8804 85.1103 23.6452 86.7006 22.0008 85.8051C20.8505 85.1798 20.7579 87.6116 22.904 87.6116C22.8268 88.7387 23.3518 88.7387 23.7301 88.5921C24.1084 88.4454 24.4095 88.3604 24.3323 87.1561C26.2237 86.1062 25.3204 83.6975 23.622 83.3192Z" fill="#3D9CFB"/>
<path d="M33.0716 73.3977C33.4499 73.251 33.751 72.6257 33.4499 72.425C32.315 71.5989 30.7401 73.1044 29.9836 74.741C27.9532 74.4399 23.8924 73.915 22.7576 75.3432C16.5198 83.2493 15.8558 84.0522 16.3654 85.5808C17.0139 87.5262 22.7885 94.5747 25.1663 91.6024C26.525 89.9426 31.7901 83.6199 31.8673 81.4428C31.9445 79.5591 31.6434 76.3939 31.1879 75.645C31.6434 74.6646 32.014 73.8385 33.0716 73.3985V73.3977ZM23.8075 90.3827C22.526 91.4326 18.0869 86.5226 17.7087 85.1098C17.4385 84.1062 18.2799 83.3342 23.8847 76.1546C24.3942 75.7145 27.4823 75.7917 29.0263 76.0233C28.7206 76.3437 28.3963 76.6456 28.0536 76.9266C25.7375 76.3939 25.3515 79.451 26.9959 80.0841C27.2319 80.1815 27.4865 80.2255 27.7415 80.213C27.9964 80.2005 28.2455 80.1318 28.4708 80.0117C28.6961 79.8917 28.8921 79.7234 29.0447 79.5187C29.1973 79.3141 29.3028 79.0782 29.3536 78.828C29.421 78.4931 29.3877 78.1458 29.2579 77.8298C29.5327 77.5905 29.7906 77.3326 30.0299 77.0578C30.1843 78.486 30.2538 79.9914 30.331 81.3502C30.3619 82.5699 26 88.5916 23.8152 90.3827H23.8075Z" fill="#3D9CFB"/>
<path d="M45.5627 79.938C45.6399 79.4825 45.5627 79.0347 44.4356 79.166C44.5128 77.2823 45.2076 76.0779 44.1345 76.3095C43.0614 76.5411 43.0769 77.1356 42.9302 79.2432C40.4443 79.3204 39.0161 79.6909 38.5683 79.2432C38.1206 78.7954 39.0933 75.028 39.4716 73.7465C39.6955 72.9745 38.1129 72.9745 37.9276 73.8237C36.1597 80.5401 36.3836 81.3816 42.7449 80.6714C42.4438 82.9874 42.3666 85.3034 43.5169 85.1104C43.9724 85.0409 44.343 84.7398 44.2889 84.2844C44.1731 83.0569 44.1731 81.8209 44.2889 80.5942C45.0378 80.4629 45.4855 80.3471 45.5627 79.938Z" fill="#3D9CFB"/>
<path d="M48.5735 82.9483C48.2724 82.6472 47.7552 82.5005 47.5236 82.8711C46.7979 84.0136 48.4268 85.2411 50.3028 85.2797C54.1628 85.3569 55.5756 80.0841 52.4876 78.5015C54.4485 77.0733 53.7691 73.8695 51.5071 73.0975C48.7974 72.1942 46.6203 74.6415 47.8246 75.2745C48.1952 75.4984 48.4268 75.5756 48.6507 75.1973C50.8355 72.4181 54.1397 76.7799 50.1947 77.9843C49.0676 78.2853 49.2142 79.3198 50.3414 79.4125C54.8267 79.783 51.5071 86.3297 48.5735 82.9483Z" fill="#3D9CFB"/>
<path d="M66.337 52.2373C66.6381 53.0634 68.5913 52.4612 69.1934 52.3145C70.0967 52.0134 69.2706 50.2069 69.1162 49.5276C68.8923 48.5548 67.3174 49.1493 67.7652 50.0525C63.7739 48.5548 59.4121 52.9398 60.7631 56.7536C60.9793 57.3634 61.3035 58.4983 62.1218 58.1123C62.9402 57.7263 62.3303 56.908 62.1218 56.3058C61.234 53.7659 64.075 50.6547 66.7539 51.3341C66.589 51.4113 66.4568 51.5443 66.3805 51.7096C66.3043 51.8749 66.2888 52.0618 66.337 52.2373Z" fill="#3D9CFB"/>
<path d="M65.7355 35.1528C63.929 35.1528 57.3824 42.0005 62.5008 41.9311C62.5703 43.2821 62.5703 45.9146 64.6084 45.9146C71.3017 45.9918 71.4561 45.1426 70.8539 41.2826C75.1231 40.5414 68.3063 35.1528 65.7355 35.1528ZM69.418 40.5569C69.418 43.4751 71.3249 45.0731 64.6779 44.471C63.3192 44.3474 64.5312 40.9352 63.1339 40.7808C60.8178 40.7808 65.4499 36.72 65.9903 36.6428C66.5307 36.5656 69.3176 38.3567 70.2055 39.1287C71.0933 39.9007 69.418 39.9702 69.418 40.5723V40.5569Z" fill="#3D9CFB"/>
<path d="M26.8261 16.4937C26.9033 16.4937 63.4655 15.9765 72.9612 16.5632C77.7631 16.8643 77.4311 18.3388 78.3653 26.8772C78.6663 29.7105 80.743 31.5787 79.0369 20.3306C78.2109 14.2317 75.2772 15.0578 60.9025 14.8339C49.4613 14.6872 38.7767 14.61 26.8106 14.9883C12.9763 15.436 8.9541 13.4057 8.9541 22.4459C9.02358 30.8762 11.8877 69.1832 12.0421 72.2635C12.1965 75.3438 13.4781 74.2939 13.177 69.8548C12.9454 66.6973 10.5367 30.8762 10.4672 22.4459C10.4209 15.4978 12.0962 16.6018 26.8261 16.4937Z" fill="#3D9CFB"/>
<path d="M59.1886 29.3931C57.7527 33.6778 69.024 32.8826 70.9231 29.7637C71.6951 28.4976 70.8537 26.529 67.2407 25.1316C69.3482 22.5763 67.3873 18.4306 63.8516 18.9556C60.5396 19.4806 59.7136 23.9196 62.1995 25.7261C60.8322 26.5981 59.7778 27.8823 59.1886 29.3931ZM64.006 20.4378C66.8624 19.9824 67.7656 24.5758 64.6081 24.8769C61.219 25.2166 61.744 20.7775 64.006 20.407V20.4378ZM64.778 26.3823C67.094 26.1507 69.6725 27.8877 69.0703 29.0148C67.9355 31.1224 62.1223 31.1996 61.165 30.3659C60.2077 29.5321 62.8711 26.5753 64.7548 26.3514L64.778 26.3823Z" fill="#3D9CFB"/>
<path d="M72.5828 54.7228C72.5303 54.5529 72.4208 54.4063 72.2728 54.3078C72.1247 54.2092 71.9472 54.1649 71.7702 54.1821C71.5933 54.1994 71.4276 54.2772 71.3014 54.4024C71.1752 54.5276 71.096 54.6926 71.0774 54.8695C71.126 56.0653 70.7037 57.2325 69.9011 58.1202C69.0985 59.008 67.9796 59.5455 66.785 59.6173C67.7655 59.0846 66.785 57.5252 66.013 58.3358C64.6697 59.7408 62.925 59.9724 65.9358 62.0955C66.7078 62.6204 67.5879 61.7944 67.0629 61.115C70.1741 61.0455 73.0305 57.5715 72.5828 54.7228Z" fill="#3D9CFB"/>
<path d="M33.9748 42.9036C34.9553 43.9613 36.7618 43.4363 38.3367 43.2819C38.2672 45.4667 37.8889 48.0452 39.1087 47.8754C39.5565 47.8059 39.9347 47.4971 39.8807 47.0493C39.7723 45.7469 39.7723 44.4377 39.8807 43.1352C41.0078 42.9808 41.6872 43.2047 41.8416 42.3015C41.9883 41.2515 41.3861 41.4754 40.0351 41.6298C40.259 38.8429 40.9383 38.0863 39.6568 38.2407C38.7536 38.5418 38.6764 39.5917 38.4525 41.7765C37.4026 41.9309 35.4417 42.3015 35.1406 41.9309C34.9939 41.7765 34.9167 40.7266 36.4993 37.5613C36.8699 36.7893 37.2713 36.0559 35.8971 36.357C35.3645 36.4342 34.9939 37.1831 34.7623 37.5613C33.4499 41.0971 33.2955 42.1548 33.9748 42.9036Z" fill="#3D9CFB"/>
<path d="M43.0072 52.0906C43.0072 51.0329 41.4632 51.9439 39.7725 52.0906C38.3365 52.2373 36.9855 52.3917 36.7616 53.5188C36.5378 54.6459 36.7616 57.8112 37.7344 58.7839C38.2671 59.3166 39.1703 58.8842 40.2202 58.7839C41.579 58.6604 42.8528 59.1622 43.0072 61.0459C43.1539 63.3001 39.9192 64.8055 38.2671 63.2229C38.1979 63.1482 38.1127 63.09 38.018 63.0526C37.9232 63.0152 37.8213 62.9997 37.7197 63.0071C37.6181 63.0145 37.5195 63.0447 37.4311 63.0954C37.3428 63.1462 37.267 63.2161 37.2094 63.3001C36.53 64.2806 37.8888 65.4077 40.0736 65.4077C46.5044 65.4077 45.8636 55.3716 38.6376 57.5795C38.2594 56.5456 38.1068 55.4427 38.1899 54.3448C38.1899 53.0401 43.0072 54.3603 43.0072 52.0906Z" fill="#3D9CFB"/>
<path d="M41.2779 23.1167C40.9613 20.0981 35.7812 19.8743 34.9551 22.584C34.7235 23.2634 35.9278 23.6417 36.3061 23.0395C36.9855 21.9124 39.618 21.8352 39.7724 23.3406C39.8419 24.1126 39.2398 25.1471 37.4564 26.2742C37.3093 26.3645 37.1967 26.5015 37.1366 26.6632C37.0765 26.825 37.0723 27.0023 37.1248 27.1667C37.1772 27.3311 37.2833 27.4732 37.4259 27.5703C37.5686 27.6674 37.7397 27.7139 37.9119 27.7024C43.2542 26.8764 40.5444 34.0251 36.5532 31.6937C35.2253 30.9217 34.6695 33.2377 38.2902 33.5774C42.1965 33.8785 44.3041 27.6252 40.0967 26.2742C40.5168 25.8695 40.8409 25.3758 41.0453 24.8294C41.2497 24.283 41.3292 23.6978 41.2779 23.1167Z" fill="#3D9CFB"/>
<path d="M50.4574 61.9493C49.9942 61.5015 49.6314 61.6482 49.3998 62.0187C48.7281 63.0764 50.303 64.1263 51.8084 64.0568C52.4138 64.0513 53.0113 63.9183 53.5618 63.6663C54.1123 63.4144 54.6035 63.0493 55.0034 62.5947C55.4034 62.1402 55.703 61.6064 55.8827 61.0283C56.0625 60.4502 56.1184 59.8407 56.0468 59.2395C55.7457 56.607 54.0936 55.3254 50.5578 55.7732C50.1795 55.4026 49.724 53.3645 49.7858 52.3918C51.5768 52.3918 55.1126 52.3918 54.4178 50.6548C54.3785 50.5658 54.3205 50.4863 54.2478 50.4217C54.1751 50.3571 54.0893 50.3089 53.9963 50.2804C53.9034 50.2518 53.8053 50.2436 53.7089 50.2563C53.6124 50.2689 53.5198 50.3021 53.4374 50.3537C52.4936 50.8632 51.4092 51.0503 50.3493 50.8864C49.5773 50.8092 48.2958 50.732 48.2418 51.8591C48.1028 54.9471 48.62 56.7536 49.5233 57.1319C50.6504 57.5797 53.8851 56.1515 54.3406 59.1623C54.8193 61.1155 52.4492 63.8638 50.4574 61.9493Z" fill="#3D9CFB"/>
<path d="M52.1092 22.3604C51.7926 18.5004 46.6202 18.5004 45.6397 21.3105C45.3232 22.206 46.018 22.6615 46.6897 22.0825C50.3027 18.7706 53.0124 24.1901 48.1256 25.6955C47.2224 25.9966 47.5234 27.1237 48.4962 27.1237C50.156 27.1237 51.4375 26.8226 52.2636 27.502C53.6918 28.6291 53.0356 30.7367 51.5842 31.7172C49.3299 33.2612 46.4658 30.59 46.1801 31.941C45.8791 33.1454 48.5888 33.6703 49.5693 33.7475C54.7572 34.203 56.8647 26.2977 51.1133 25.4716C51.8172 24.5927 52.1718 23.4848 52.1092 22.3604Z" fill="#3D9CFB"/>
<path d="M52.0396 41.6299C52.1862 38.6885 53.5836 36.2799 52.109 36.6581C50.9047 36.9592 51.1363 38.9201 50.565 41.7765C49.3607 41.8538 47.8553 41.931 47.5542 41.5527C46.9598 40.9582 49.4533 36.6581 47.9248 36.6581C47.477 36.6581 47.2531 37.0364 47.0987 37.4301C45.1455 42.6952 46.1183 43.8224 50.4106 43.2974C50.1867 44.9572 49.8857 47.2887 51.09 47.0648C52.2943 46.8409 51.5146 46.231 51.916 43.2048C53.0432 42.9037 54.5718 43.3592 54.7725 42.3787C54.9886 41.1975 53.9541 41.6299 52.0396 41.6299Z" fill="#3D9CFB"/>
<path d="M39.9965 118.245C38.7922 118.091 39.0161 118.847 43.0845 132.241C43.4628 133.523 43.6867 134.951 44.6286 134.727C45.4006 134.573 43.7253 129.076 43.347 127.779C41.3784 121.402 41.0464 118.392 39.9965 118.245Z" fill="#001434"/>
<path d="M28.177 119.519C26.3705 121.704 23.213 126.668 22.387 127.872C20.5805 131.415 13.8949 139.537 15.3077 140.293C15.4782 140.402 15.6845 140.439 15.8822 140.398C16.08 140.356 16.2534 140.238 16.3653 140.07C17.9093 137.507 28.6325 121.325 29.5358 119.75C30.0607 118.77 28.7792 118.693 28.177 119.519Z" fill="#001434"/>
<path d="M33.5191 119.148C32.6159 120.692 23.7532 134.503 23.2128 135.476C22.6724 136.449 22.8346 136.681 23.8922 136.534C24.9499 136.387 27.2041 131.184 29.6128 127.802C31.3421 125.015 34.2448 120.955 34.9551 119.596C35.8583 117.789 34.0518 118.245 33.5191 119.148Z" fill="#001434"/>
<path d="M27.3515 117.041C34.2996 116.74 50.3033 116.061 52.0557 116.138C53.8082 116.215 54.6111 114.933 52.2024 114.594C50.3187 114.362 39.7885 115.265 30.0767 115.566C8.96999 116.338 10.4831 115.373 10.0045 103.6C10.0045 103.523 5.86652 21.1654 5.86652 20.4397C5.86652 15.3213 6.99365 14.0475 9.32512 13.2137C13.409 11.7469 66.3456 11.1602 77.586 12.6116C80.8207 13.067 82.4033 14.8735 82.9901 22.7017C83.5922 30.7537 84.0477 37.447 84.1944 40.9905C84.2716 43.0209 85.5531 42.1177 85.4759 41.1372C85.3987 36.9221 84.6499 27.0635 84.4183 22.5473C83.9705 14.8272 82.1022 11.9399 77.8022 11.1139C72.568 10.0794 14.9994 10.0408 8.86191 11.716C1.60504 13.7618 4.62359 18.888 7.50318 82.3779C8.99315 112.069 8.57627 113.011 11.0467 115.196C13.8028 117.79 22.2331 117.265 27.3515 117.041Z" fill="#001434"/>
<path d="M116.309 135.252C114.65 135.437 115.406 140.07 115.252 140.818C114.989 142.139 117.213 142.602 116.688 138.865C116.456 136.827 117.135 135.16 116.309 135.252Z" fill="#001434"/>
<path d="M105.015 131.114C103.378 130.342 104.243 137.722 103.741 140.216C103.721 140.318 103.728 140.424 103.762 140.522C103.795 140.621 103.854 140.709 103.932 140.778C104.01 140.846 104.105 140.893 104.207 140.914C104.309 140.934 104.414 140.928 104.513 140.895C105.64 140.671 105.571 136.757 105.493 136.001C105.246 133.669 105.625 131.4 105.015 131.114Z" fill="#001434"/>
<path d="M94.6471 126.599C93.52 126.599 94.045 129.455 93.2961 132.775C92.8407 134.882 92.9951 136.99 92.9951 139.545C92.9951 141.089 94.3461 140.603 94.5005 138.572C94.5699 137.067 94.3461 134.959 94.8015 133.076C95.4192 130.281 95.836 126.599 94.6471 126.599Z" fill="#001434"/>
<path d="M85.0743 115.234C83.7928 115.682 85.2982 120.275 83.345 129.007C82.6657 132.017 81.6157 139.236 83.5689 139.992C84.9971 140.517 83.4917 136.758 84.395 132.766C86.0548 125.239 86.2015 121.958 86.2015 120.198C86.2787 116.963 85.9776 114.933 85.0743 115.234Z" fill="#001434"/>
<path d="M50.4572 118.175C49.4768 117.272 47.8247 117.349 49.3301 119.156C50.8355 120.962 54.8963 125.703 56.1778 127.054C57.4593 128.405 58.3549 127.208 57.8299 126.451C57.0579 125.371 51.3605 119.002 50.4572 118.175Z" fill="#001434"/>
<path d="M44.1345 118.091C42.9301 118.245 43.9106 119.75 46.8442 128.327C48.0485 131.863 50.6039 139.537 51.3604 141.042C52.117 142.548 52.9431 140.973 51.8854 138.263C45.2925 120.877 45.6321 117.913 44.1345 118.091Z" fill="#001434"/>
<path d="M72.0581 113.126C71.9113 113.042 71.7408 113.007 71.5727 113.029C71.4047 113.051 71.2483 113.127 71.1278 113.246C71.0075 113.366 70.9298 113.521 70.9068 113.69C70.8838 113.858 70.9167 114.029 71.0004 114.176C72.8069 116.284 73.8645 114.948 73.2624 114.331L72.0581 113.126Z" fill="#001434"/>
<path d="M121.729 125.316C121.127 125.092 119.768 125.996 120.895 126.899C121.959 127.705 123.251 128.151 124.585 128.173C125.712 128.173 125.79 127.2 125.041 126.899C124.292 126.598 122.331 125.54 121.729 125.316Z" fill="#001434"/>
<path d="M128.724 113.798C134.089 116.662 134.058 113.898 129.025 112.254C128.353 111.922 127.071 112.895 128.724 113.798Z" fill="#001434"/>
<path d="M129.928 121.264C128.723 120.584 125.79 119.079 125.041 120.206C124.138 121.41 128.044 122.391 129.102 122.692C130.159 122.993 131.055 121.928 129.928 121.264Z" fill="#001434"/>
<path d="M130.306 128.93C131.958 128.474 134.22 123.958 135.424 119.071C136.775 113.667 136.775 107.553 135.424 106.719C135.046 106.495 134.652 106.796 134.745 107.545C135.347 114.547 133.317 122.985 129.85 127.942C129.48 128.405 129.781 129.076 130.306 128.93Z" fill="#001434"/>
<path d="M129.025 106.426C131.896 108.34 133.525 107.02 132.035 106.125C131.176 105.565 130.24 105.133 129.256 104.843C128.199 104.619 128.353 105.978 129.025 106.426Z" fill="#001434"/>
<path d="M85.5297 99.0529C84.9044 99.9407 84.4643 102.141 84.997 102.813C85.769 103.731 87.0505 100.188 87.259 99.354C87.506 98.3813 86.1087 98.2114 85.5297 99.0529Z" fill="#001434"/>
<path d="M125.265 60.9691C122.478 57.8811 112.318 57.6572 109.608 61.2702C107.354 63.9027 107.725 71.7309 111.415 73.5374C114.348 75.0428 121.528 74.7572 123.983 73.0896C127.071 70.9743 128.121 63.5245 125.265 60.9691ZM122.949 71.5842C121.544 72.5955 117.452 72.9352 114.596 72.5569C116.773 68.7973 119.637 63.9027 121.142 60.8919C126.299 61.3474 126.152 69.2527 122.933 71.5842H122.949Z" fill="#001434"/>
<path d="M59.1888 95.0151C57.6448 94.4902 56.5486 95.2467 55.4986 96.2194C54.8965 96.8988 55.4446 97.9796 56.703 97.1227C59.9145 94.9379 59.6366 99.3847 61.142 99.0064C62.3463 98.6744 60.9181 95.5864 59.1888 95.0151Z" fill="#001434"/>
<path d="M64.5391 117.04C65.4423 118.391 66.2684 118.847 66.8551 118.468C67.4418 118.09 66.4768 117.264 65.8747 116.438C65.0563 115.458 63.9292 116.137 64.5391 117.04Z" fill="#001434"/>
<path d="M150.231 131.184C149.181 131.485 147.823 134.951 144.827 135.931C137.609 138.247 121.273 131.415 110.813 126.968C125.041 128.628 128.723 107.707 126.013 98.1494C131.958 100.465 133.317 101.16 137.455 103.793C137.518 103.853 137.596 103.893 137.682 103.91C137.767 103.927 137.855 103.919 137.936 103.887C138.017 103.856 138.088 103.802 138.139 103.732C138.19 103.662 138.221 103.578 138.227 103.492C138.528 101.832 133.857 99.8787 132.877 99.0527C134.102 98.5634 135.266 97.9312 136.343 97.169C137.547 98.2961 137.995 98.9755 138.451 98.8288C139.053 98.6744 138.975 97.694 137.547 96.1885C138.097 95.7523 138.614 95.2748 139.091 94.7603C140.373 95.818 141.044 96.7212 141.647 96.5668C142.627 96.2657 141.423 94.7603 139.995 93.6332C140.37 93.136 140.72 92.6211 141.044 92.0892C142.358 92.7984 143.617 93.6035 144.812 94.4978C143.376 97.0609 140.952 99.1299 140.373 100.296C139.84 101.268 140.952 101.631 143.152 99.238C144.262 98.0741 145.224 96.7776 146.016 95.3779C149.027 97.6399 149.251 98.8442 150.077 98.6898C151.436 98.466 149.776 94.6291 141.871 90.4139C142.59 88.8686 143.05 87.2147 143.229 85.5194C150.378 85.4422 151.806 77.8457 149.328 69.8631C151.644 51.8136 141.376 42.3333 132.012 43.5222C122.663 38.1182 105.393 37.5469 92.9561 44.356C85.5835 46.7646 78.2031 46.9885 79.1835 58.1286C75.4239 61.2166 76.7749 70.2414 78.5814 74.3407C77.3217 77.5723 76.9072 81.0717 77.377 84.5081C76.0472 83.7492 74.5425 83.3501 73.0113 83.3501C71.4802 83.3501 69.9755 83.7492 68.6456 84.5081C65.9359 75.244 52.696 80.3624 53.8231 89.0166C45.6166 93.9883 39.6722 108.51 54.5025 113.482C56.1545 119.272 66.9935 128.922 74.7445 128.922C74.3585 138.556 73.7023 143.945 75.6477 144.122C76.3271 144.192 76.0955 142.246 76.0955 141.714C75.7944 136.148 77.2303 110.787 82.7193 105.368C85.0279 107.325 87.9055 108.486 90.9258 108.68C93.1105 108.68 93.4039 107.136 92.2768 107.097C92.1996 107.097 83.7847 106.117 82.7193 102.658C81.9473 100.249 84.8269 96.9374 85.4291 95.8875C87.9373 97.5188 90.7162 98.69 93.6355 99.3461C94.0632 100.24 94.6795 101.03 95.442 101.662C93.6355 107.684 94.2377 113.026 96.214 117.164C99.5259 124.243 107.13 128.458 116.834 131.392C128.152 134.882 146.317 144.339 151.003 132.295C151.003 131.863 151.227 130.883 150.231 131.184ZM134.598 49.9839C136.775 48.2469 136.551 46.672 134.745 45.3519C144.302 46.7801 148.216 56.3375 147.869 66.4972C145.916 64.544 145.615 66.1961 146.441 67.632C150.81 75.0047 149.529 83.435 143.584 83.6589C141.701 83.2806 141.623 81.5513 141.847 80.1231C142.619 76.1318 140.473 72.1405 136.582 73.4221C134.004 74.2713 132.823 78.7643 130.862 74.6264C131.989 72.596 131.989 69.6624 132.444 67.3309C135.98 68.983 144.333 71.5306 144.711 74.8503C144.804 75.6763 144.187 76.2862 143.43 77.4905C142.673 78.6949 143.955 79.9687 145.314 78.2625C147.12 76.0083 147.197 72.542 142.828 70.1333C139.971 68.5893 137.709 67.6552 132.745 65.3932C134.745 52.9021 132.205 51.7827 134.598 49.9839ZM133.919 47.0503C134.444 47.4981 133.842 48.1002 133.463 48.4013C130.005 51.5588 132.413 55.7045 131.51 60.4446C129.966 55.7045 124.662 55.6273 120.525 55.4034C121.428 45.6916 110.133 51.1111 106.752 52.9948C104.868 53.9675 105.208 57.2794 106.598 58.7848C104.791 61.1935 104.868 63.6793 105.053 67.0684C103.551 67.1748 102.078 67.5296 100.692 68.1184C100.769 65.2619 100.537 61.7956 99.3329 59.4642C101.07 58.1132 101.649 54.423 99.7112 53.3653C96.1754 51.4893 86.3941 49.0035 86.5408 56.0056L84.4332 56.2295C92.0143 38.7049 123.211 37.8016 133.919 47.0503ZM97.4955 74.2172C94.9325 76.5332 83.8696 76.6259 80.7121 73.9856C80.8588 73.6151 81.0132 73.314 81.1599 72.9357C84.9273 75.6454 94.0292 75.3444 97.4183 72.6346C97.3998 73.1634 97.4253 73.6923 97.4955 74.2172ZM95.689 71.5847C94.145 72.5574 89.6674 73.1287 86.7338 72.789C89.0498 68.8749 92.076 63.6021 93.5043 60.6685C97.8661 61.7261 99.4487 69.176 95.689 71.5847ZM96.461 60.1435C93.8285 57.9588 87.583 58.1132 83.3369 59.6881C83.4272 59.2279 83.5539 58.7771 83.7152 58.337C86.9499 57.565 97.4106 55.9284 98.5378 62.6217C97.9797 61.6852 97.2701 60.8477 96.4379 60.1435H96.461ZM105.416 68.8749C105.773 70.9159 106.543 72.8625 107.678 74.5955C105.1 74.8634 102.553 75.3805 100.074 76.1395C99.5378 75.0947 99.2724 73.9321 99.302 72.7581C98.9238 69.8477 104.189 68.8749 105.393 68.8749H105.416ZM98.3216 57.9588C95.5346 55.7045 92.2999 55.7045 88.4631 55.9284C88.5403 51.1882 96.0596 53.2958 98.8466 54.9479C99.6726 55.4729 99.3715 57.511 98.3216 57.9588ZM101.556 77.6758C113.6 73.6923 110.735 80.2389 118.718 80.3856C113.901 86.33 111.415 80.9877 106.073 80.6866C101.44 80.4628 99.3715 84.6007 96.2912 84.6779C95.5059 84.6772 94.7298 84.5088 94.0149 84.1839C93.2999 83.859 92.6626 83.3853 92.1455 82.7942C96.4379 82.3465 96.5151 78.7335 101.595 77.6758H101.556ZM107.424 69.6238C103.664 55.3262 115.784 56.6077 125.489 57.7349C132.259 58.5609 131.286 70.4498 129.024 73.947C127.48 76.4252 115.707 76.4252 111.415 75.1514C109.23 74.4411 108.257 72.7118 107.424 69.6238ZM107.725 54.6468C111.87 51.9371 119.845 49.5284 118.641 55.4189C115.182 55.2645 110.365 55.4188 107.956 57.5264C107.501 56.9783 106.752 55.3262 107.725 54.6468ZM81.9859 51.7132C82.7361 50.572 83.7226 49.6051 84.8787 48.8779C86.0347 48.1507 87.3334 47.6802 88.6869 47.4981C85.7531 49.9632 83.5215 53.1588 82.2175 56.7621C81.762 56.9165 81.3837 57.0632 81.0132 57.2176C80.8832 55.3309 81.2172 53.4411 81.9859 51.7132ZM81.5381 58.862C80.411 62.6217 81.5381 68.1956 79.5078 71.9861C79.0832 67.0221 77.1068 61.0468 81.5227 58.862H81.5381ZM68.8155 86.6543C78.1413 80.2543 82.287 94.2585 78.6045 100.805C73.8644 109.459 64.0059 115.705 57.907 113.451C63.8515 112.246 69.572 104.959 66.5612 99.4464C67.2393 98.9017 67.8695 98.2999 68.4449 97.6476C71.0199 97.548 73.4521 96.4387 75.2154 94.5596C76.4506 92.923 75.5937 91.626 74.7676 92.5292C67.9894 99.6471 59.9065 92.7377 68.8155 86.6311V86.6543ZM66.3373 97.0455C64.3941 98.6661 62.3577 100.171 60.2385 101.554C57.6831 103.36 56.6255 103.739 54.0624 100.126C51.7464 96.8139 53.383 96.065 55.7917 94.1041C57.521 92.7531 61.5123 88.9857 63.6971 89.4721C62.2225 92.0506 63.6276 95.7408 66.3373 97.0223V97.0455ZM67.1093 85.6815C66.2469 86.334 65.4689 87.0913 64.7933 87.9358C62.5391 86.0521 58.0923 90.0434 55.9847 91.6955C53.9234 78.9959 66.5303 79.575 67.0862 85.6584L67.1093 85.6815ZM53.9852 91.3249C54.0145 91.9109 54.1165 92.4922 54.2863 93.0542C51.1983 95.239 49.77 97.3466 52.6342 101.253C57.1427 107.645 59.1422 104.341 65.0481 100.581C66.098 102.311 65.3492 105.167 64.0676 107.051C62.8817 106.599 61.7264 106.07 60.609 105.468C59.5514 104.866 59.1036 106.603 60.5318 107.506C61.2791 107.908 62.0527 108.259 62.8479 108.556C54.626 117.921 37.9352 104.279 53.9929 91.3017L53.9852 91.3249ZM80.7507 101.531C80.6435 101.968 80.6489 102.426 80.7664 102.86C80.8838 103.295 81.1095 103.693 81.4223 104.017C78.867 106.425 75.3312 118.685 74.9529 127.046C71.8649 127.123 67.8813 125.092 64.415 122.46C65.6194 122.383 71.8109 120.646 72.1351 117.712C72.2046 117.187 71.6101 117.04 71.2318 117.411C65.6657 122.228 60.6245 121.101 57.3898 115.234C67.0939 118.322 83.3524 105.445 81.6231 92.8458C82.3015 93.5995 83.057 94.28 83.8773 94.8761C82.399 96.862 81.3357 99.1252 80.7507 101.531ZM92.9407 96.644C92.9407 96.8679 93.0179 97.0918 93.0179 97.416C82.48 94.7063 76.5355 85.226 80.0713 75.9697C84.5104 78.6022 93.6895 78.525 98.0591 76.2708C98.1363 76.4946 98.283 76.7185 98.3602 76.9501C96.0982 78.0001 95.5964 79.3897 93.9906 80.4859C91.8444 81.9605 90.0071 80.7098 89.9299 82.4391C89.8527 83.875 93.0179 86.9553 96.5537 86.6543C101.595 86.3532 101.294 82.6707 106.258 82.6707C109.045 82.6707 109.801 84.2147 112.357 84.8478C116.116 85.751 121.219 82.5858 120.934 79.3588C120.81 77.9229 118 80.1848 115.221 77.699C119.729 77.6218 126.129 78.3783 129.518 76.155C130.568 78.718 133.803 79.3202 135.694 76.5332C137.879 73.2213 140.813 76.2322 140.064 79.8452C139.609 82.0299 140.288 83.7592 141.608 84.7397C141.531 90.6841 133.178 100.844 125.573 95.9492C124.369 93.0156 122.786 88.2755 118.425 87.5189C115.568 86.9939 112.704 88.8004 111.052 91.958C110.898 92.5601 108.867 91.6569 108.041 91.5102C102.236 89.418 92.2227 87.7582 92.9021 96.644H92.9407ZM101.896 121.626C99.0056 118.838 97.08 115.201 96.3993 111.243C98.7153 112.015 102.104 113.404 103.1 112.37C103.183 112.287 103.24 112.182 103.265 112.068C103.29 111.954 103.283 111.835 103.243 111.725C103.204 111.615 103.134 111.519 103.041 111.447C102.949 111.375 102.838 111.331 102.722 111.32C100.532 110.813 98.392 110.108 96.3298 109.212C96.37 106.984 96.6286 104.766 97.1018 102.588C98.7616 103.113 103.278 105.298 104.405 103.939C105.756 102.395 96.2758 102.21 94.8476 97.8484C94.5278 96.9514 94.4639 95.9832 94.6629 95.052C94.862 94.1208 95.3162 93.2634 95.9747 92.5756C98.53 89.7191 105.378 92.73 109.145 93.7104C110.272 94.0115 111.778 94.3821 112.604 92.8072C116.749 86.1061 121.559 90.0974 123.667 96.2657C126.832 105.298 124.948 127.571 109.446 125.162C106.634 124.721 104.004 123.496 101.857 121.626H101.896Z" fill="#001434"/>
<path d="M107.725 88.2139C108.86 88.3606 111.87 88.4378 109.531 85.427C107.192 82.4161 101.935 83.2499 103.062 85.5814C104.189 87.9128 106.073 87.99 107.725 88.2139Z" fill="#001434"/>
<path d="M90.2697 101.191C89.5903 102.396 89.2892 104.804 90.1153 105.175C90.9413 105.545 91.3968 102.697 91.9218 101.639C92.4468 100.581 90.9491 99.956 90.2697 101.191Z" fill="#001434"/>
</svg>
