<svg width="154" height="154" viewBox="0 0 154 154" fill="none" xmlns="http://www.w3.org/2000/svg">
<path d="M112.955 129.191C109.816 128.981 106.897 128.435 103.695 128.241C99.8735 128.012 96.3611 128.172 92.286 128.22C90.1083 128.187 87.9325 128.366 85.7897 128.756C84.8704 128.898 83.989 129.224 83.1977 129.713C83.1473 129.752 83.1104 129.805 83.0924 129.866C83.0744 129.927 83.0762 129.991 83.0975 130.051C83.1188 130.111 83.1585 130.162 83.211 130.198C83.2634 130.233 83.3258 130.251 83.3892 130.249C84.2744 130.609 85.1853 130.901 86.1144 131.124C86.1144 131.064 86.1177 131.004 86.1243 130.944C86.1886 130.454 86.4811 129.647 86.9145 129.714C87.3609 129.774 87.4007 130.633 87.2974 131.132C87.1772 131.761 86.7874 132.024 86.4873 131.915C86.4241 132.957 86.4225 134.002 86.4827 135.044C86.4917 135.161 86.5401 135.271 86.6199 135.357C86.6998 135.443 86.8063 135.499 86.9222 135.516C88.5914 135.775 90.2661 135.951 91.946 136.052C95.6751 136.282 102.84 136.238 104.286 136.129C105.384 136.058 106.471 135.875 107.531 135.582C107.661 135.544 107.774 135.462 107.851 135.351C107.929 135.239 107.965 135.104 107.954 134.969C107.954 134.926 107.947 134.883 107.944 134.841C107.48 134.675 107.363 133.161 107.332 132.676C107.283 131.954 107.044 129.446 107.771 129.416C108.337 129.393 108.437 130.916 108.477 131.79C110.169 131.674 111.808 131.154 113.257 130.273C113.357 130.201 113.431 130.101 113.472 129.985C113.512 129.87 113.516 129.744 113.483 129.627C113.45 129.509 113.382 129.404 113.287 129.326C113.193 129.248 113.077 129.201 112.955 129.191Z" fill="#191919"/>
<path d="M128.382 56.1172C127.427 51.2695 126.257 46.4156 123.183 42.5365C123.332 42.5174 123.483 42.4936 123.631 42.4668C123.725 42.4497 123.808 42.3961 123.863 42.3178C123.917 42.2394 123.939 42.1427 123.922 42.0488C123.914 42.0022 123.896 41.9578 123.871 41.9181C123.845 41.8784 123.812 41.8441 123.773 41.8173C123.734 41.7904 123.691 41.7715 123.644 41.7617C123.598 41.7519 123.55 41.7514 123.504 41.7601C121.928 42.0186 120.311 41.7179 118.933 40.9101C118.87 40.8785 118.799 40.865 118.729 40.8712C118.658 40.8774 118.591 40.9031 118.534 40.9454C116.333 42.6299 113.505 43.7149 110.881 42.7494C110.804 42.7213 110.719 42.7176 110.64 42.7388C110.56 42.76 110.489 42.8051 110.436 42.8681C106.883 47.0473 99.3082 47.4731 94.9682 44.2517C94.8979 44.1991 94.8137 44.1683 94.7261 44.163C94.6385 44.1577 94.5512 44.1781 94.4751 44.2219C89.8836 46.7341 84.7862 48.182 79.5597 48.4585C81.5975 47.66 83.4639 46.4793 85.0583 44.9799C85.1186 44.9205 85.1639 44.8477 85.1906 44.7675C85.2174 44.6872 85.2247 44.6018 85.2121 44.5181C85.1995 44.4345 85.1672 44.355 85.118 44.2862C85.0688 44.2174 85.004 44.1613 84.9289 44.1223C84.5069 43.9408 84.1532 43.6305 83.9181 43.2358C83.6831 42.8411 83.5788 42.3822 83.6203 41.9247C83.8232 39.4438 87.1219 37.3825 89.4589 36.5578C91.1538 35.9698 92.9434 35.7028 94.7362 35.7707C94.8272 35.7738 94.9177 35.7545 94.9995 35.7144C95.0814 35.6743 95.1521 35.6148 95.2056 35.541C96.2049 34.1256 97.5795 33.0174 99.1746 32.341C100.77 31.6646 102.522 31.4469 104.234 31.7124C104.355 31.7357 104.479 31.7194 104.59 31.6657C104.7 31.6121 104.79 31.5241 104.847 31.415C104.903 31.3058 104.922 31.1814 104.901 31.0604C104.881 30.9393 104.822 30.8282 104.733 30.7437C100.759 26.9504 95.4996 24.9243 90.3463 23.1073C71.6751 16.5221 48.7864 16.0872 34.1498 29.5393C34.0752 29.6075 34.0195 29.6938 33.988 29.7898C33.9564 29.8858 33.9501 29.9883 33.9697 30.0874C33.9892 30.1866 34.0339 30.279 34.0995 30.3559C34.1651 30.4327 34.2494 30.4914 34.3443 30.5263C35.8757 31.09 37.2209 32.0672 38.2303 33.3495C38.3767 33.5156 38.4845 33.712 38.5461 33.9246C38.6077 34.1373 38.6214 34.361 38.5864 34.5796C38.5513 34.7982 38.4683 35.0063 38.3433 35.1891C38.2184 35.3718 38.0545 35.5247 37.8635 35.6367C37.7841 35.6995 37.7222 35.7817 37.6838 35.8754C37.6455 35.9691 37.6318 36.0711 37.6443 36.1716C37.6568 36.272 37.6949 36.3676 37.755 36.4491C37.8151 36.5305 37.8952 36.5952 37.9875 36.6367C38.5574 36.8644 39.0701 37.215 39.4891 37.6633C39.9081 38.1117 40.2231 38.6469 40.4118 39.2309C41.0795 41.6613 38.5488 43.7073 36.1858 44.5465C34.9689 44.9898 33.6652 45.143 32.3787 44.9937C32.2584 44.9782 32.1362 45.0002 32.0288 45.0565C31.9213 45.1128 31.8338 45.2009 31.7781 45.3087C31.7225 45.4164 31.7013 45.5387 31.7175 45.659C31.7337 45.7792 31.7865 45.8915 31.8687 45.9807C35.038 49.4057 39.5879 50.7978 44.2434 50.575C40.7173 52.147 36.5687 51.5788 32.9231 50.225C31.0387 49.6183 29.3107 48.6046 27.8617 47.2556C27.7729 47.1624 27.6562 47.1005 27.5292 47.0791C27.4023 47.0578 27.2718 47.078 27.1573 47.1369C26.0361 47.6892 24.7932 47.948 23.5448 47.889C22.2965 47.8301 21.0834 47.4554 20.0193 46.8C19.9505 46.7576 19.8737 46.7296 19.7938 46.7178C19.7138 46.7059 19.6322 46.7105 19.5541 46.7312C19.4759 46.7519 19.4028 46.7883 19.3391 46.8382C19.2755 46.8881 19.2227 46.9504 19.1839 47.0213C15.4824 53.7994 12.9533 63.7299 12.7006 71.5471C12.6975 71.6307 12.7122 71.714 12.7436 71.7915C12.775 71.869 12.8225 71.939 12.8828 71.9969C12.9432 72.0547 13.0152 72.0991 13.094 72.1272C13.1728 72.1553 13.2566 72.1663 13.34 72.1597C20.579 71.6314 30.2316 72.5632 32.4943 79.4922C32.534 79.6122 32.6108 79.7166 32.7136 79.7902C32.8164 79.8638 32.9399 79.9029 33.0663 79.9018C39.8812 79.8168 44.2756 85.3629 45.2197 91.9503C45.2365 92.0701 45.2895 92.1818 45.3716 92.2705C45.4537 92.3592 45.5611 92.4206 45.6791 92.4465C47.9166 92.9634 48.0222 93.8348 48.6654 93.5116C48.761 93.4633 48.8416 93.3899 48.8985 93.2993C48.9554 93.2086 48.9866 93.1041 48.9886 92.9971C49.1027 88.01 51.3255 84.1148 55.0423 80.8988C55.1234 80.8301 55.1841 80.7406 55.218 80.64C55.2519 80.5393 55.2576 80.4313 55.2345 80.3276C54.6947 77.8237 53.4894 63.6457 53.6441 57.9794C53.6923 56.9917 53.8725 56.0149 54.1801 55.0751C54.2038 54.9985 57.9765 43.803 59.4367 41.9936C60.1259 41.1437 60.7974 40.7938 61.6742 41.8099C62.2759 42.6241 62.7347 43.5348 63.031 44.5029C64.6612 49.0696 67.1023 53.2136 68.6506 57.8056C68.9832 58.8687 69.1384 59.9793 69.11 61.0928C69.11 61.1694 68.6927 74.2149 68.3657 81.0397C68.3619 81.1379 68.3834 81.2354 68.4282 81.3228C68.473 81.4103 68.5396 81.4847 68.6215 81.5389C70.4228 82.8539 72.0298 84.4163 73.3949 86.1799C73.4505 86.2458 73.5206 86.2979 73.5996 86.332C73.6787 86.3662 73.7647 86.3816 73.8507 86.3769C73.9367 86.3722 74.0205 86.3476 74.0954 86.3051C74.1703 86.2625 74.2343 86.2032 74.2824 86.1317C77.1018 81.9149 82.8301 77.4025 87.4473 79.522C87.5126 79.5517 87.5832 79.5677 87.6548 79.5692C87.7265 79.5706 87.7976 79.5574 87.864 79.5304C87.9304 79.5034 87.9906 79.4631 88.0408 79.412C88.0911 79.3609 88.1304 79.3002 88.1564 79.2334C89.0629 76.7375 90.2715 74.3619 91.7552 72.1597C94.5061 68.3104 98.3238 65.3507 102.737 63.6457C107.149 62.0278 111.936 62.0867 115.943 65.2537C115.988 65.2899 116.04 65.316 116.096 65.3305C116.152 65.345 116.211 65.3475 116.268 65.3378C116.325 65.3281 116.379 65.3065 116.427 65.2743C116.475 65.2421 116.516 65.2002 116.547 65.1511C119.502 60.5109 122.651 57.4557 128.094 56.533C128.14 56.5254 128.185 56.5085 128.225 56.4833C128.265 56.458 128.299 56.4251 128.326 56.3863C128.353 56.3475 128.372 56.3037 128.382 56.2575C128.391 56.2112 128.392 56.1635 128.382 56.1172Z" fill="#38A1FF"/>
<path d="M66.3107 102.13C66.2082 101.027 65.8115 99.9718 65.1621 99.0745C64.9086 98.7348 64.5758 98.4624 64.1927 98.281C63.8096 98.0996 63.3879 98.0148 62.9645 98.0339C61.0847 98.1151 59.9162 100.785 60.2217 102.559C60.5724 104.567 62.0671 107.363 62.7164 108.909C62.95 109.434 63.1368 109.978 63.2746 110.536C63.2972 110.616 63.3468 110.686 63.415 110.733C63.4832 110.781 63.5658 110.803 63.6488 110.797C63.7317 110.791 63.8099 110.756 63.87 110.698C63.93 110.641 63.9683 110.564 63.9783 110.481C64.3558 108.287 66.5863 104.977 66.3107 102.13Z" fill="#38A1FF"/>
<path d="M136.746 90.131C136.045 90.0437 133.913 90.1149 133.147 89.9273C132.656 89.8048 132.428 89.621 132.416 89.1233C132.418 88.5095 132.464 87.8966 132.554 87.2894C132.576 87.1715 132.562 87.0494 132.513 86.9399C132.464 86.8303 132.382 86.7385 132.279 86.6769C131.794 86.4037 131.338 86.0828 130.917 85.719C131.776 84.6879 132.567 83.6016 133.284 82.467C133.34 82.3931 133.364 82.3008 133.354 82.2092C133.343 82.1176 133.297 82.0336 133.226 81.9746C133.155 81.9157 133.064 81.8862 132.972 81.8923C132.88 81.8985 132.794 81.9397 132.732 82.0075C131.836 82.9034 131.353 83.4448 129.984 85.0329C129.822 85.1638 129.704 85.342 129.647 85.5428C129.545 85.9808 129.842 86.33 130.176 86.6325C130.533 86.9483 130.917 87.2324 131.324 87.4816C131.248 88.0923 131.217 88.7079 131.233 89.3232C131.252 89.6801 131.376 90.0235 131.589 90.3107C131.802 90.5979 132.094 90.8164 132.43 90.9388C133.104 91.1517 133.811 91.2404 134.517 91.2007C134.403 92.2985 134.397 93.4049 134.498 94.504C134.493 94.5822 134.518 94.6594 134.569 94.7189C134.62 94.7783 134.693 94.8153 134.771 94.8218C134.81 94.8253 134.849 94.8211 134.886 94.8093C134.924 94.7975 134.958 94.7784 134.988 94.7531C135.018 94.7278 135.043 94.6968 135.06 94.6619C135.078 94.627 135.089 94.589 135.092 94.5499L135.66 91.2673C135.962 91.2826 136.446 91.2987 136.59 91.2934C136.918 91.2865 137.634 91.0384 137.634 90.7191C137.632 90.4802 137.01 90.1655 136.746 90.131Z" fill="#191919"/>
<path d="M133.696 88.4856C133.865 88.7735 134.13 88.9928 134.445 89.1048C134.759 89.2168 135.103 89.2145 135.416 89.0981C135.661 89.0034 135.883 88.8563 136.066 88.6672C136.248 88.4781 136.388 88.2515 136.474 88.0031C136.611 87.5828 136.502 86.7612 136.131 86.755C135.962 86.755 135.535 87.3737 135.487 87.4511C135.206 87.9021 134.935 88.2168 134.585 87.788C134.061 87.2658 134.008 87.144 133.766 87.2137C133.335 87.337 133.499 88.0315 133.696 88.4856Z" fill="#191919"/>
<path d="M142.395 83.3859C142.092 83.2466 141.761 83.1775 141.427 83.1838C141.38 83.1767 141.333 83.1789 141.287 83.1902C141.241 83.2015 141.198 83.2218 141.159 83.2499C141.121 83.2779 141.089 83.3132 141.065 83.3537C141.04 83.3942 141.024 83.4391 141.017 83.4858C141.01 83.5326 141.012 83.5803 141.023 83.6262C141.035 83.6721 141.055 83.7153 141.083 83.7534C141.111 83.7915 141.146 83.8237 141.187 83.8481C141.227 83.8726 141.272 83.8888 141.319 83.8959C141.534 83.9386 141.736 84.0311 141.909 84.1659C142.082 84.3008 142.221 84.4742 142.315 84.6723C142.384 84.9009 142.398 85.1427 142.356 85.3779C142.314 85.6132 142.217 85.8351 142.073 86.0257C141.929 86.2162 141.742 86.37 141.527 86.4744C141.312 86.5788 141.076 86.6309 140.837 86.6264C140.371 86.641 139.556 86.7397 139.55 87.1953C139.55 87.3982 139.939 87.814 140.762 87.8225C140.762 88.9412 140.766 91.3769 140.838 92.2904C140.888 92.9405 141.047 94.0515 141.068 94.1863C141.066 94.2655 141.096 94.3421 141.15 94.3995C141.205 94.4569 141.28 94.4904 141.359 94.4926C141.438 94.4927 141.513 94.4624 141.571 94.4081C141.628 94.3538 141.661 94.2795 141.665 94.2009C142.006 92.2866 141.943 92.8861 141.943 87.6211C143.719 86.6785 144.242 84.3293 142.395 83.3859Z" fill="#191919"/>
<path d="M133.365 81.0205C133.27 80.2992 133.289 79.5674 133.422 78.852C133.531 78.2844 133.789 77.7559 134.169 77.3206C135.509 75.7846 138.129 75.832 139.888 76.8298C141.047 77.4799 141.863 78.4592 143.305 78.8283C145.114 79.2632 146.493 78.4523 146.98 77.2509C147.014 77.1801 147.02 77.0989 146.996 77.024C146.972 76.9492 146.92 76.8865 146.851 76.8489C146.816 76.8309 146.778 76.8199 146.739 76.8165C146.701 76.8131 146.661 76.8175 146.624 76.8293C146.587 76.8411 146.553 76.8601 146.523 76.8853C146.493 76.9105 146.469 76.9413 146.451 76.976C146.121 77.3922 145.665 77.6903 145.151 77.8258C144.637 77.9614 144.093 77.927 143.601 77.728C142.459 77.4056 141.564 76.4193 140.475 75.7945C138.219 74.5158 135.007 74.5617 133.294 76.5687C132.767 77.1667 132.445 77.9181 132.376 78.7127C132.32 79.54 132.417 80.3705 132.661 81.1629C132.669 81.2109 132.686 81.2568 132.713 81.2979C132.739 81.3389 132.773 81.3743 132.813 81.4017C132.853 81.4292 132.898 81.4483 132.946 81.4578C132.994 81.4674 133.043 81.4671 133.09 81.4571C133.138 81.4471 133.183 81.4276 133.223 81.3997C133.263 81.3718 133.296 81.3361 133.322 81.2948C133.348 81.2535 133.365 81.2074 133.372 81.1594C133.379 81.1113 133.377 81.0623 133.365 81.0152V81.0205Z" fill="#191919"/>
<path d="M134.795 80.5068C135.051 79.228 136.896 78.3628 138.164 78.6752C140.834 79.3046 143.177 81.5267 146.456 80.5389C146.936 80.3931 147.389 80.1699 147.797 79.8781C148.283 79.5431 148.705 79.1241 149.043 78.6407C149.092 78.5785 149.114 78.4993 149.105 78.4206C149.095 78.3419 149.055 78.2702 148.993 78.2211C148.931 78.1721 148.852 78.1498 148.773 78.1591C148.694 78.1684 148.622 78.2086 148.573 78.2709C147.869 78.853 147.036 79.2588 146.144 79.4547C143.38 80.2204 141.243 78.1759 138.432 77.532C136.351 77.0764 134.135 78.4792 134.084 80.4287C134.074 80.5237 134.103 80.6187 134.163 80.6928C134.223 80.767 134.31 80.8143 134.405 80.8245C134.499 80.8333 134.592 80.805 134.665 80.7455C134.738 80.686 134.785 80.6003 134.795 80.5068Z" fill="#191919"/>
<path d="M137.884 80.7503C139.169 80.3437 140.373 81.382 141.581 82.042C143.95 83.3039 146.891 83.7902 148.626 81.7403C148.683 81.6879 148.717 81.6155 148.721 81.5384C148.726 81.4614 148.7 81.3855 148.65 81.3269C148.6 81.2682 148.529 81.2313 148.452 81.2239C148.375 81.2164 148.298 81.2391 148.238 81.287C148.05 81.3963 147.853 81.49 147.65 81.5673C147.36 81.6819 147.06 81.7686 146.754 81.8261C145.168 82.1171 143.53 81.8242 142.143 81.0014C140.833 80.3085 139.356 78.996 137.583 80.0979C137.538 80.1164 137.497 80.1438 137.463 80.1784C137.429 80.2131 137.402 80.2543 137.385 80.2995C137.367 80.3447 137.359 80.3931 137.36 80.4417C137.362 80.4902 137.373 80.538 137.393 80.582C137.414 80.6261 137.443 80.6656 137.479 80.6981C137.515 80.7306 137.557 80.7555 137.603 80.7712C137.649 80.7869 137.698 80.7932 137.746 80.7896C137.795 80.786 137.842 80.7726 137.885 80.7503H137.884Z" fill="#191919"/>
<path d="M144.577 85.2626C145.027 85.4383 145.508 85.521 145.991 85.5057C146.474 85.4905 146.949 85.3775 147.387 85.1738C147.521 85.0819 148.087 84.5612 147.934 84.294C147.753 83.9739 146.269 84.3055 145.957 84.3162C145.103 84.3537 144.196 83.9441 143.966 84.3346C143.763 84.673 144.41 85.1677 144.577 85.2626Z" fill="#191919"/>
<path d="M143.656 88.108C144.349 88.4323 145.127 88.5267 145.877 88.3775C146.606 88.2137 146.949 87.6593 146.877 87.4656C146.719 87.0973 145.345 87.2642 145.016 87.245C144.695 87.2227 144.377 87.1684 144.067 87.0827C143.469 86.9962 143.24 86.9717 143.107 87.1907C142.916 87.5199 143.537 88.0299 143.656 88.108Z" fill="#191919"/>
<path d="M143.07 90.3278C143.958 90.6001 144.911 90.5639 145.775 90.2252C145.857 90.1793 146.505 89.6976 146.393 89.4189C146.295 89.1808 145.42 89.1892 145.303 89.206C144.656 89.341 143.99 89.3566 143.337 89.252C143.261 89.2474 142.419 89.2665 142.331 89.5537C142.227 89.9021 142.972 90.2865 143.07 90.3278Z" fill="#191919"/>
<path d="M120.214 103.233C119.947 100.329 117.717 98.2959 114.858 96.9444C110.672 94.9689 104.918 93.8762 97.907 94.5041C93.6144 94.9038 89.2398 95.5186 85.9013 98.2094C83.2634 100.353 81.6662 103.263 79.9548 106.003C77.1561 110.501 83.3538 115.006 88.0851 117.335C87.1513 118.867 85.6866 120.001 83.9702 120.522C83.8714 120.547 83.7809 120.598 83.7072 120.668C83.6336 120.738 83.5794 120.827 83.5498 120.924C82.7075 123.709 82.9135 127.012 83.0138 129.902C83.0176 129.992 83.0419 130.08 83.0849 130.16C83.1279 130.239 83.1884 130.308 83.2619 130.361C83.7673 130.719 83.9457 130.115 87.8386 129.611C93.2606 128.91 103.745 129.013 112.81 130.437C112.9 130.45 112.993 130.443 113.08 130.416C113.167 130.388 113.247 130.34 113.312 130.277C113.378 130.214 113.429 130.136 113.46 130.05C113.491 129.964 113.502 129.872 113.492 129.781C113.019 125.199 113.027 120.579 113.514 115.998C117.16 113.583 119.93 108.403 120.218 104.925C120.262 104.362 120.261 103.796 120.214 103.233Z" fill="#38A1FF"/>
<path d="M91.227 117.609C93.0647 113.927 95.5571 110.081 96.4446 105.078C96.9806 102.125 96.4921 99.4773 93.9346 97.9076C93.8669 97.87 93.8166 97.8075 93.794 97.7335C93.7715 97.6594 93.7787 97.5795 93.8139 97.5106C93.8491 97.4417 93.9098 97.3892 93.983 97.3641C94.0562 97.339 94.1363 97.3434 94.2064 97.3762C94.9481 97.6616 95.6195 98.1034 96.1752 98.6716C96.7308 99.2397 97.1575 99.9209 97.4262 100.669C98.4577 103.611 97.1468 107.954 95.9377 110.844C94.7893 113.469 93.4426 116.003 91.9093 118.424C91.8537 118.524 91.7649 118.601 91.6584 118.642C91.5519 118.682 91.4345 118.685 91.3266 118.648L89.2316 117.801C89.1871 117.785 89.1463 117.76 89.1114 117.728C89.0765 117.696 89.0482 117.658 89.0281 117.615C89.0081 117.572 88.9967 117.526 88.9945 117.479C88.9924 117.432 88.9995 117.384 89.0156 117.34C89.0317 117.295 89.0564 117.255 89.0883 117.22C89.1202 117.185 89.1586 117.156 89.2014 117.136C89.2442 117.116 89.2905 117.105 89.3377 117.103C89.385 117.101 89.4321 117.108 89.4766 117.124L91.227 117.609Z" fill="#191919"/>
<path d="M114.554 99.3701C115.026 99.9938 115.404 100.683 115.676 101.417C116.511 103.716 116.48 106.241 115.59 108.52C114.937 110.163 114.186 111.765 113.341 113.318C113.317 113.349 113.3 113.385 113.291 113.423C113.281 113.461 113.28 113.5 113.286 113.539C113.292 113.577 113.305 113.614 113.326 113.648C113.346 113.681 113.373 113.71 113.405 113.733C113.469 113.779 113.549 113.798 113.627 113.786C113.706 113.774 113.776 113.731 113.823 113.668C115.142 112.328 116.13 110.699 116.709 108.911C117.934 105.455 117.88 101.271 115.069 98.8686C115.002 98.8003 114.912 98.7613 114.816 98.7601C114.721 98.7589 114.629 98.7956 114.561 98.8621C114.493 98.9286 114.454 99.0195 114.452 99.1147C114.451 99.21 114.488 99.3019 114.554 99.3701Z" fill="#191919"/>
<path d="M78.5339 109.691C78.0402 110.425 77.6592 111.228 77.4037 112.075C76.1104 116.547 77.6924 121.658 82.4414 121.354C82.5204 121.359 82.5984 121.334 82.6583 121.282C82.7181 121.23 82.755 121.156 82.7607 121.077C82.7664 120.998 82.7404 120.92 82.6886 120.86C82.6367 120.801 82.5632 120.764 82.4842 120.758C81.8058 120.602 81.1549 120.344 80.5539 119.992C78.001 118.507 77.8471 115.223 78.5018 112.358C78.6691 111.565 78.8925 110.784 79.1702 110.023C79.1922 109.981 79.2056 109.935 79.2099 109.888C79.2142 109.841 79.2091 109.794 79.1951 109.749C79.181 109.704 79.1583 109.662 79.1281 109.626C79.0978 109.59 79.0608 109.56 79.019 109.538C78.9772 109.516 78.9315 109.502 78.8845 109.498C78.8376 109.494 78.7902 109.499 78.7451 109.513C78.7001 109.527 78.6583 109.55 78.622 109.58C78.5858 109.61 78.5558 109.647 78.5339 109.689V109.691Z" fill="#191919"/>
<path d="M149.438 109.158C149.036 107.661 148.62 106.232 148.26 104.604C147.362 100.465 146.766 97.1702 142.659 95.2621C140.241 94.1434 137.799 94.736 136.769 94.9413C128.918 96.524 125.755 102.281 123.745 110.037C123.369 111.492 120.234 125.759 119.71 128.013C119.69 128.097 119.702 128.185 119.744 128.261C119.785 128.337 119.853 128.394 119.934 128.423C120.783 128.715 121.648 128.954 122.526 129.14C123.196 129.271 123.189 128.954 122.99 128.389C122.928 128.215 122.88 128.035 122.846 127.853C122.806 127.619 122.77 127.368 122.917 127.22C122.956 127.18 122.985 127.133 123.004 127.081C123.022 127.029 123.03 126.973 123.025 126.918C123.02 126.863 123.003 126.81 122.976 126.762C122.948 126.714 122.911 126.672 122.866 126.64C122.023 126.004 122.235 124.901 122.906 124.094C122.963 124.022 122.996 123.934 122.999 123.843C123.003 123.751 122.978 123.661 122.928 123.584C122.806 123.429 122.717 123.251 122.667 123.061C122.616 122.87 122.605 122.671 122.633 122.476C122.881 121.474 125.069 121.115 126.271 121.613C126.337 121.64 126.408 121.652 126.479 121.65C126.55 121.647 126.62 121.629 126.684 121.597C126.747 121.566 126.803 121.521 126.849 121.466C126.894 121.411 126.927 121.347 126.945 121.279L127.188 120.448C127.222 120.328 127.212 120.2 127.159 120.087C127.106 119.975 127.013 119.885 126.899 119.835C125.853 119.361 126.216 118.571 127.245 118.349C127.956 118.293 128.671 118.392 129.34 118.64C130.009 118.889 130.615 119.28 131.118 119.786C131.21 119.886 131.335 119.949 131.47 119.964C131.606 119.979 131.741 119.945 131.853 119.868C132.203 119.644 132.564 119.44 132.935 119.255C133.045 119.194 133.133 119.099 133.184 118.983C133.236 118.868 133.247 118.738 133.218 118.616C132.997 117.701 132.882 116.742 132.727 115.776C136.82 114.725 140.848 113.434 144.789 111.912C145.065 113.142 145.194 114.127 145.383 115.328C145.405 115.469 145.476 115.597 145.585 115.689C145.693 115.781 145.832 115.83 145.974 115.828C146.116 115.826 146.253 115.773 146.359 115.678C146.465 115.583 146.533 115.453 146.551 115.312C146.754 113.774 146.878 112.227 146.923 110.677L149.087 109.862C149.222 109.808 149.332 109.707 149.397 109.577C149.461 109.447 149.476 109.298 149.438 109.158Z" fill="#38A1FF"/>
<path d="M134.247 97.7101C130.426 99.4383 129.576 103.489 129.978 107.647C130.14 109.631 130.616 111.577 131.389 113.413C131.399 113.45 131.416 113.486 131.44 113.517C131.464 113.548 131.493 113.574 131.527 113.594C131.561 113.613 131.599 113.626 131.637 113.631C131.676 113.636 131.716 113.633 131.753 113.623C131.791 113.614 131.826 113.597 131.858 113.573C131.889 113.55 131.915 113.52 131.934 113.487C131.954 113.453 131.967 113.416 131.972 113.377C131.977 113.339 131.974 113.299 131.964 113.262C131.877 112.684 131.605 110.678 131.537 110.275C131.054 108.042 130.97 105.74 131.289 103.477C131.475 102.443 131.863 101.457 132.432 100.574C133.001 99.6909 133.738 98.9292 134.603 98.3326C134.644 98.3094 134.68 98.2783 134.709 98.2411C134.738 98.2039 134.759 98.1614 134.772 98.1159C134.785 98.0704 134.788 98.0229 134.782 97.9761C134.777 97.9292 134.762 97.884 134.738 97.8429C134.715 97.8018 134.684 97.7657 134.647 97.7367C134.61 97.7076 134.567 97.6862 134.522 97.6736C134.476 97.6609 134.429 97.6574 134.382 97.6631C134.335 97.6689 134.29 97.6838 134.249 97.707L134.247 97.7101Z" fill="#191919"/>
<path d="M123.924 123.058C124 123.058 125.831 122.916 125.908 122.905C126.042 122.888 126.835 122.649 126.86 122.395C126.908 121.905 125.731 121.739 125.231 121.753C124.538 121.781 122.858 121.996 122.974 122.649C123.022 122.966 123.847 123.058 123.924 123.058Z" fill="#191919"/>
<path d="M123.711 125.863C123.787 125.858 125.648 125.557 125.725 125.545C125.865 125.514 126.644 125.231 126.656 124.97C126.672 124.478 125.47 124.388 124.943 124.453C124.244 124.534 122.54 124.9 122.713 125.545C122.796 125.858 123.634 125.87 123.711 125.863Z" fill="#191919"/>
<path d="M124.195 128.063C125.818 127.861 127.462 127.907 129.071 128.201C130.085 128.342 131.329 128.877 132.463 129.126C136.827 130.052 141.639 130.006 143.924 126.154C144.404 125.379 144.765 124.536 144.996 123.654C145.544 120.972 145.697 118.223 145.449 115.497C145.352 114.388 145.196 113.291 145.018 112.164C145.009 112.085 144.97 112.013 144.909 111.963C144.847 111.913 144.769 111.89 144.69 111.898C144.612 111.907 144.539 111.946 144.49 112.007C144.44 112.068 144.417 112.147 144.425 112.226C144.583 115.223 144.542 120.605 143.848 123.371C143.641 124.139 143.323 124.872 142.903 125.548C140.93 128.883 136.498 128.78 132.705 127.99C131.554 127.635 130.384 127.343 129.202 127.114C127.483 126.892 125.738 126.975 124.048 127.359C123.958 127.382 123.881 127.439 123.831 127.518C123.782 127.597 123.765 127.692 123.785 127.782C123.804 127.873 123.857 127.953 123.934 128.006C124.011 128.058 124.105 128.079 124.197 128.063H124.195Z" fill="#191919"/>
<path d="M137.02 117.629C136.907 117.322 136.13 117.366 135.823 117.483C135.432 117.633 135.058 117.824 134.707 118.052C134.626 117.806 134.543 117.562 134.45 117.321C134.26 116.831 134.028 116.367 133.821 115.882C133.807 115.837 133.785 115.795 133.756 115.758C133.726 115.721 133.689 115.691 133.648 115.668C133.606 115.646 133.561 115.632 133.514 115.627C133.467 115.622 133.419 115.626 133.374 115.64C133.329 115.653 133.287 115.675 133.25 115.705C133.213 115.735 133.183 115.771 133.16 115.813C133.138 115.854 133.124 115.9 133.119 115.947C133.114 115.994 133.118 116.041 133.132 116.086C133.249 116.974 133.442 117.85 133.709 118.705C132.778 119.241 132.121 119.547 131.193 120.151C130.067 119.092 128.859 118.297 127.369 118.696C127.329 118.698 127.29 118.709 127.254 118.727C127.218 118.745 127.186 118.77 127.16 118.8C127.134 118.831 127.115 118.867 127.103 118.905C127.091 118.943 127.087 118.984 127.091 119.024C127.096 119.063 127.108 119.102 127.127 119.137C127.147 119.172 127.173 119.203 127.205 119.227C127.237 119.252 127.273 119.27 127.312 119.28C127.351 119.29 127.391 119.292 127.431 119.286C127.637 119.309 127.839 119.355 128.035 119.422C129.052 119.867 129.964 120.519 130.715 121.336C130.814 121.433 130.944 121.492 131.083 121.503C131.221 121.515 131.359 121.477 131.472 121.398C131.862 121.121 135.624 118.89 135.878 118.757C136.041 118.676 137.206 118.114 137.02 117.629Z" fill="#191919"/>
<path d="M137.282 129.927C135.846 129.99 134.407 129.929 132.981 129.744C130.972 129.386 129.241 128.608 127.113 128.452C125.881 128.492 124.656 128.645 123.451 128.908C123.3 128.924 123.161 128.998 123.063 129.114C122.965 129.229 122.915 129.378 122.923 129.53C122.992 130.95 123.135 132.134 123.273 133.632C123.286 133.78 123.355 133.917 123.465 134.016C123.575 134.115 123.718 134.169 123.866 134.168C133.075 134.076 135.46 134.062 136.054 134.03C136.472 134.008 136.496 133.853 136.68 133.476C137.167 132.525 137.534 131.516 137.771 130.473C137.781 130.404 137.775 130.334 137.755 130.267C137.735 130.2 137.7 130.138 137.654 130.086C137.607 130.034 137.55 129.993 137.486 129.965C137.421 129.938 137.352 129.925 137.282 129.927Z" fill="#191919"/>
<path d="M64.2333 60.3424C62.6153 58.9251 58.7699 58.7743 57.619 61.406C57.1925 62.3255 57.1265 63.3716 57.4338 64.3375C57.7412 65.3034 58.3996 66.1189 59.2791 66.6228C60.0741 67.0596 60.9774 67.2599 61.8825 67.2002C64.9507 66.9827 66.4607 62.2828 64.2333 60.3424ZM59.4789 65.2859C59.0032 64.8014 58.6855 64.1841 58.5677 63.5154C58.4498 62.8467 58.5374 62.1579 58.8189 61.54C59.5846 59.8371 61.3335 59.932 62.9851 60.782C61.868 62.3272 60.528 63.6863 59.4789 65.2859Z" fill="#191919"/>
<path d="M128.56 56.8446C128.547 56.767 128.504 56.6975 128.441 56.651C128.377 56.6045 128.298 56.5847 128.22 56.5958C123.329 57.2367 118.738 59.7796 116.26 64.1763C114.168 62.9069 111.805 62.1532 109.364 61.9773C106.924 61.8014 104.476 62.2085 102.224 63.1648C95.7062 65.7836 90.2459 72.2661 87.5651 78.8C83.0313 77.679 78.4164 80.045 75.4668 83.614C75.4361 83.6498 75.4126 83.6912 75.3979 83.736C75.3831 83.7808 75.3774 83.8281 75.3809 83.8751C75.3844 83.9221 75.3972 83.968 75.4184 84.0101C75.4397 84.0522 75.469 84.0898 75.5047 84.1205C75.5405 84.1513 75.5819 84.1747 75.6267 84.1895C75.6715 84.2042 75.7188 84.21 75.7659 84.2065C75.8129 84.203 75.8588 84.1902 75.9009 84.169C75.943 84.1477 75.9805 84.1184 76.0113 84.0826C78.8398 80.9432 83.1906 78.8957 87.2359 79.8934C86.8769 81.0646 86.6574 82.2742 86.5819 83.4969C86.5881 83.7388 86.7006 84.7771 87.0414 84.794C87.3821 84.8108 87.6539 83.722 87.7213 83.3835C88.3339 80.2885 88.2818 78.8153 91.2574 74.2539C94.0905 69.9047 98.109 66.1044 102.667 64.2728C104.77 63.3767 107.057 62.996 109.337 63.1625C111.617 63.329 113.825 64.0378 115.776 65.23C115.372 65.9995 115.07 66.8176 114.875 67.6642C114.842 67.9153 114.811 68.8051 115.105 68.8801C115.411 68.9567 115.899 68.0378 116.017 67.7423C117.619 63.9681 118.517 62.0339 121.943 59.7566C123.873 58.4834 126.038 57.6104 128.31 57.1892C128.389 57.1766 128.46 57.1332 128.506 57.0686C128.553 57.004 128.573 56.9234 128.56 56.8446Z" fill="#191919"/>
<path d="M45.7407 91.1717C45.4344 84.2243 39.87 78.3375 32.9854 79.0136C30.9349 74.7655 26.2012 71.4032 18.5341 71.4032C18.4869 71.401 18.4397 71.408 18.3953 71.4241C18.3509 71.4401 18.31 71.4648 18.2752 71.4967C18.2403 71.5286 18.2121 71.567 18.1921 71.6099C18.1722 71.6527 18.1609 71.699 18.1589 71.7463C18.1556 71.8416 18.19 71.9343 18.2546 72.0044C18.3193 72.0745 18.409 72.1163 18.5042 72.1207C21.2827 72.3029 24.0009 73.0129 26.5136 74.2126C28.9893 75.3776 30.9643 77.3931 32.0788 79.8919C32.1307 80.0107 32.22 80.1092 32.3331 80.1725C32.4461 80.2359 32.5768 80.2605 32.7052 80.2426C38.5698 79.431 43.1112 83.869 44.6886 89.4404C44.8396 89.9662 44.9616 90.5 45.0539 91.0392C44.5837 90.9771 44.1069 90.9864 43.6396 91.0668C43.4374 91.1142 42.6265 91.3952 42.6855 91.7559C42.7353 92.0813 43.6503 92.1594 43.7368 92.1663C44.1951 92.1584 44.6533 92.1881 45.1067 92.2551C45.6672 92.3547 47.181 93.0316 47.4176 92.7406C47.5777 92.5316 47.279 91.5828 45.7407 91.1717Z" fill="#191919"/>
<path d="M85.2749 44.1109C82.882 42.8214 83.0482 40.1667 85.1133 38.2531C87.5406 36.0173 90.8937 35.0371 94.2092 34.7561C94.3021 34.7503 94.3936 34.7808 94.4645 34.8412C94.5353 34.9016 94.58 34.9871 94.589 35.0797C94.598 35.1723 94.5708 35.2648 94.5129 35.3378C94.4551 35.4107 94.3712 35.4583 94.2789 35.4705C85.7075 36.466 82.091 41.9791 86.4242 43.3903C86.5131 43.4203 86.593 43.4722 86.6567 43.5411C86.7203 43.61 86.7656 43.6938 86.7885 43.7848C86.8114 43.8758 86.811 43.971 86.7875 44.0618C86.764 44.1527 86.7181 44.2361 86.6539 44.3046C85.1895 45.9074 83.4525 47.2378 81.5236 48.2342C85.9786 47.751 90.2774 46.3147 94.1281 44.0228C94.2315 43.9599 94.3515 43.9298 94.4723 43.9365C94.5932 43.9432 94.7091 43.9864 94.8049 44.0603C99.0585 47.3583 105.813 46.6906 109.208 42.3758C109.279 42.2855 109.375 42.2179 109.484 42.1811C109.592 42.1442 109.709 42.1398 109.821 42.1682C112.233 42.7724 115.987 42.4998 117.846 40.8413C117.926 40.771 118.023 40.7236 118.127 40.704C118.232 40.6845 118.34 40.6935 118.439 40.7302C123.005 42.46 128.481 41.1958 131.513 37.4055C131.572 37.3315 131.651 37.276 131.74 37.2458C131.829 37.2156 131.926 37.2121 132.017 37.2355C135.206 38.113 139.072 37.7394 141.235 35.2025C141.286 35.147 141.357 35.1132 141.433 35.1081C141.509 35.103 141.583 35.127 141.642 35.1751C141.701 35.2233 141.739 35.292 141.748 35.3673C141.758 35.4425 141.739 35.5186 141.694 35.58C139.505 38.3611 135.56 38.9951 132.086 38.247C130.445 40.188 128.251 41.5817 125.796 42.2414C123.342 42.9011 120.744 42.7954 118.351 41.9385C116.197 43.6154 112.532 43.9447 109.903 43.4003C107.989 45.5438 105.359 46.9146 102.505 47.2553C99.6519 47.596 96.7723 46.8829 94.4075 45.2502C89.0322 48.4379 82.6064 49.768 76.2601 49.6914C76.11 49.688 75.967 49.6268 75.8609 49.5207C75.7547 49.4145 75.6935 49.2716 75.6901 49.1215C75.6866 48.9714 75.7412 48.8258 75.8423 48.7148C75.9435 48.6039 76.0835 48.5363 76.2333 48.526C79.6798 48.1886 82.8895 46.6213 85.2749 44.1109Z" fill="#191919"/>
<path d="M40.4484 50.8583C36.8965 50.3649 33.6745 48.5129 31.4604 45.6921C31.3992 45.6084 31.3614 45.5099 31.3509 45.4068C31.3404 45.3037 31.3576 45.1996 31.4008 45.1054C31.4439 45.0111 31.5114 44.9301 31.5964 44.8706C31.6813 44.8111 31.7805 44.7754 31.8838 44.7671C34.4191 44.5657 38.2691 42.9171 39.4721 40.7923C40.2378 39.4385 39.8067 37.9231 37.3281 36.4078C37.2767 36.3776 37.232 36.3372 37.1968 36.2891C37.1617 36.241 37.1367 36.1862 37.1236 36.128C37.1105 36.0699 37.1094 36.0097 37.1205 35.9511C37.1315 35.8926 37.1545 35.8369 37.1879 35.7875C38.4131 34.0693 37.0348 32.2653 35.2139 31.227C35.1796 31.2086 35.1492 31.1836 35.1245 31.1534C35.0998 31.1233 35.0813 31.0886 35.0701 31.0513C35.0588 31.014 35.055 30.9748 35.0588 30.9361C35.0627 30.8973 35.0742 30.8597 35.0926 30.8253C35.111 30.791 35.136 30.7606 35.1661 30.7359C35.1962 30.7113 35.2309 30.6927 35.2682 30.6815C35.3055 30.6702 35.3447 30.6664 35.3834 30.6703C35.4222 30.6741 35.4598 30.6856 35.4942 30.704C37.5693 31.7576 39.1857 33.7615 38.1397 35.8733C41.0196 37.6536 41.306 39.6253 40.4078 41.3099C39.1704 43.6331 35.6603 45.2816 33.0347 45.7809C36.227 49.2863 41.9744 50.8162 46.3321 49.1921C46.4727 49.1409 46.6274 49.1444 46.7655 49.2019C46.9036 49.2595 47.015 49.3669 47.0775 49.5029C47.14 49.6388 47.1491 49.7933 47.1029 49.9356C47.0567 50.078 46.9587 50.1977 46.8283 50.271C40.7026 53.6746 32.7108 51.9709 27.3883 47.6201C22.3346 49.6378 17.7442 47.0198 15.3015 42.0947C12.9037 42.2261 10.5248 41.6048 8.49738 40.3177C6.47 39.0306 4.89556 37.142 3.99423 34.9162C3.96031 34.8271 3.96316 34.7282 4.00215 34.6413C4.04114 34.5543 4.11307 34.4864 4.20212 34.4525C4.29117 34.4186 4.39005 34.4215 4.477 34.4604C4.56395 34.4994 4.63185 34.5714 4.66576 34.6604C6.28831 38.7057 11.2172 41.5978 15.5603 40.9393C15.6785 40.922 15.7991 40.9434 15.9041 41.0002C16.0091 41.0571 16.0929 41.1463 16.1431 41.2547C18.3407 45.8988 22.5314 48.4793 27.2589 46.3973C27.3603 46.3527 27.4722 46.3374 27.5819 46.3533C27.6915 46.3691 27.7945 46.4154 27.8792 46.4869C31.3782 49.4587 35.8604 51.0175 40.4484 50.8583Z" fill="#191919"/>
<path d="M134.755 82.4103C135.033 82.4593 135.192 82.8697 135.114 83.3246C135.036 83.7794 134.745 84.1125 134.47 84.0635C134.195 84.0145 134.03 83.604 134.111 83.1492C134.191 82.6944 134.478 82.3621 134.755 82.4103Z" fill="#191919"/>
<path d="M103.481 82.176C103.726 82.2487 103.818 82.6806 103.68 83.1362C103.542 83.5918 103.235 83.9019 102.991 83.8322C102.746 83.7625 102.654 83.3307 102.789 82.872C102.923 82.4134 103.233 82.1032 103.481 82.176Z" fill="#191919"/>
<path d="M52.0716 133.376C50.8372 127.624 43.5989 125.978 38.2971 128.447C37.4294 126.634 35.9788 125.164 34.1772 124.273C32.3757 123.382 30.3273 123.12 28.3597 123.531C24.7984 116.159 17.936 111.509 8.4205 111.56C8.32829 111.559 8.23941 111.594 8.17328 111.658C8.10714 111.723 8.06912 111.81 8.06751 111.903C8.06629 111.948 8.07412 111.993 8.09057 112.036C8.10701 112.078 8.13173 112.117 8.16329 112.15C8.19485 112.183 8.23262 112.209 8.27441 112.227C8.3162 112.245 8.36117 112.255 8.40672 112.256C16.6267 112.599 23.7003 116.478 27.3245 124.025C26.0025 124.453 24.7971 125.18 23.8022 126.15C23.6544 126.316 22.9943 127.131 23.2279 127.382C23.4576 127.62 24.502 126.937 24.6376 126.846C27.3566 124.966 29.715 123.744 32.9142 124.975C33.9397 125.37 34.8743 125.969 35.661 126.737C36.4478 127.504 37.0703 128.424 37.4908 129.439C37.5209 129.514 37.5664 129.581 37.6243 129.637C37.6822 129.692 37.7513 129.735 37.827 129.762C37.9027 129.789 37.9832 129.8 38.0633 129.793C38.1434 129.787 38.2213 129.764 38.2918 129.725C42.6028 127.337 50.07 128.122 51.5134 133.519C51.5216 133.557 51.5373 133.593 51.5595 133.624C51.5818 133.656 51.6101 133.683 51.6429 133.703C51.6757 133.723 51.7122 133.737 51.7503 133.743C51.7885 133.749 51.8274 133.747 51.8648 133.738C51.9022 133.728 51.9374 133.711 51.9682 133.688C51.999 133.665 52.0248 133.636 52.0441 133.602C52.0633 133.569 52.0757 133.532 52.0804 133.494C52.0852 133.455 52.0822 133.416 52.0716 133.379V133.376Z" fill="#191919"/>
<path d="M79.9906 123.228C79.3236 122.71 78.5101 122.415 77.6659 122.386C76.5294 122.327 75.392 122.481 74.3121 122.84C73.1599 121.445 71.5469 120.509 69.7645 120.199C68.9496 120.018 68.1055 120.014 67.2889 120.186C66.4722 120.359 65.702 120.705 65.0301 121.2C65.0452 118.458 65.2787 115.721 65.7284 113.016C66.0822 111.195 67.0064 109.452 67.6082 107.65C68.3868 105.333 68.6374 102.872 68.3418 100.447C68.2456 98.9024 67.68 97.4242 66.7208 96.21C66.3016 95.7223 65.7803 95.3327 65.1939 95.0687C64.6075 94.8047 63.9702 94.6729 63.3271 94.6824C63.3616 94.4121 63.396 94.1296 63.432 93.8317L67.1358 93.7605C67.2868 93.7585 67.4314 93.6991 67.5401 93.5942C67.6488 93.4894 67.7134 93.347 67.7208 93.1962C67.7537 92.6525 67.7522 91.7773 67.7476 91.2306L68.6014 90.8515C71.093 93.4343 73.6482 96.2422 75.0334 99.5347C75.0882 99.6647 75.1873 99.771 75.3131 99.8347C75.4389 99.8984 75.5833 99.9154 75.7205 99.8827C75.8576 99.85 75.9788 99.7697 76.0623 99.6561C76.1458 99.5424 76.1863 99.4029 76.1766 99.2622C75.7792 93.602 76.0357 88.5 72.4445 84.3146C71.3921 83.1648 70.2719 82.0788 69.0899 81.0627C69.0679 81.0423 69.0437 81.0244 69.0179 81.0091C69.2476 76.9806 69.4774 68.3801 69.3587 63.7368C69.2867 61.1901 69.1542 59.7888 68.9643 57.7765C68.9819 57.6706 68.9718 57.562 68.9352 57.461C67.3487 52.9257 66.2943 50.7312 63.6748 44.7954C63.2845 43.6145 62.7289 42.4949 62.0247 41.4699C61.815 41.1967 61.5443 40.9763 61.2342 40.8265C60.9242 40.6766 60.5833 40.6014 60.239 40.6069C58.5866 40.6934 57.9572 43.5388 57.5016 44.7356C55.8423 49.1331 54.4594 53.5237 53.1845 58.046C53.1547 58.1509 53.1548 58.2621 53.185 58.3668C53.2152 58.4716 53.2742 58.5658 53.3552 58.6387C53.5543 61.5546 54.036 72.5885 54.6141 81.1967C54.5444 81.2097 54.48 81.2426 54.4288 81.2916C53.2473 82.3084 52.1271 83.3943 51.0742 84.5436C47.4753 88.7229 47.7387 93.8953 47.3398 99.4911C47.3301 99.6318 47.3706 99.7714 47.4541 99.885C47.5376 99.9986 47.6587 100.079 47.7959 100.112C47.9331 100.144 48.0774 100.127 48.2033 100.064C48.3291 99.9999 48.4282 99.8936 48.483 99.7637C49.9593 96.2475 52.7603 93.2995 55.4227 90.556L55.4763 91.1081C55.4657 91.1731 55.4732 91.2399 55.4979 91.301C55.5226 91.3621 55.5635 91.4153 55.6163 91.4548C55.6692 91.4942 55.7318 91.5185 55.7974 91.5248C55.863 91.5312 55.9291 91.5195 55.9885 91.4909C56.3982 91.5369 56.4656 91.5415 56.9074 91.5943C56.8879 92.2379 56.9215 92.882 57.0077 93.5201C57.0301 93.6434 57.096 93.7546 57.1936 93.8333C57.2912 93.9121 57.4138 93.9531 57.5391 93.9489L61.0675 93.8799C61.1211 94.3042 61.177 94.7337 61.2383 95.1863C60.2355 95.6658 59.349 96.3576 58.6401 97.2137C57.9312 98.0698 57.4168 99.0697 57.1325 100.144C56.0184 105.053 59.6716 109.191 60.9534 113.493C61.4726 115.232 61.3684 117.292 61.4978 119.129C61.5553 119.848 61.6173 120.59 61.6808 121.339C58.7298 119.22 54.5092 120.209 51.6776 122.313C48.9447 120.609 44.8413 120.347 40.345 122.955C40.3029 122.974 40.2651 123.002 40.234 123.037C40.2028 123.071 40.1788 123.111 40.1635 123.155C40.1482 123.199 40.1418 123.245 40.1447 123.292C40.1477 123.338 40.1599 123.383 40.1807 123.425C40.2014 123.466 40.2303 123.503 40.2656 123.533C40.3009 123.563 40.3418 123.586 40.3861 123.6C40.4303 123.614 40.4769 123.619 40.5231 123.615C40.5693 123.611 40.6142 123.597 40.6551 123.575C42.7392 122.661 44.9868 122.178 47.2624 122.156C48.7325 122.196 50.1597 122.659 51.372 123.492C51.475 123.563 51.5984 123.6 51.7238 123.595C51.8491 123.591 51.9697 123.546 52.0673 123.467C55.0919 120.976 59.4235 120.838 61.7421 122.116C61.9167 124.22 62.0798 126.347 62.1173 128.176C62.1173 128.272 62.1552 128.363 62.2227 128.431C62.2902 128.498 62.3817 128.536 62.4772 128.536C62.5726 128.536 62.6642 128.498 62.7317 128.431C62.7992 128.363 62.8371 128.272 62.8371 128.176C62.8746 124.407 62.6962 122.361 62.5538 119.064C62.4542 117.135 62.6303 115.18 62.0469 113.168C60.8125 108.978 57.2711 104.822 58.2826 100.41C58.5057 99.5733 58.8957 98.7904 59.429 98.1083C59.9623 97.4262 60.628 96.8589 61.3861 96.4405L61.4075 96.429C61.5377 97.3379 61.6885 98.3655 61.873 99.6098L61.8409 100.306C61.8343 100.4 61.8656 100.494 61.9277 100.566C61.9898 100.637 62.0778 100.682 62.1724 100.689C62.2285 100.692 62.2844 100.682 62.3363 100.661C62.3883 100.64 62.4349 100.607 62.473 100.566C62.511 100.525 62.5396 100.476 62.5566 100.422C62.5736 100.369 62.5786 100.312 62.5714 100.257C62.7521 98.6557 62.9473 97.4604 63.1648 95.8922C63.6682 95.8589 64.1724 95.9432 64.6375 96.1384C65.1027 96.3337 65.516 96.6345 65.8448 97.0171C66.6273 98.0564 67.0869 99.3029 67.1664 100.601C67.44 102.85 67.2107 105.131 66.4949 107.281C65.8823 109.149 64.9826 110.803 64.6043 112.804C63.6342 118.145 64.4145 123.181 64.0867 128.195C64.0808 128.273 64.1062 128.35 64.1573 128.41C64.2084 128.47 64.2811 128.506 64.3593 128.512C64.4382 128.519 64.5165 128.494 64.577 128.443C64.6375 128.392 64.6754 128.319 64.6825 128.24C64.8808 126.262 64.9451 124.224 65.004 122.195C66.3671 121.368 67.9835 121.062 69.5547 121.333C70.975 121.693 72.3211 122.3 73.5318 123.125C72.8524 123.386 72.217 123.749 71.6474 124.202C71.4583 124.355 71.289 124.518 71.1213 124.685C71.0466 124.738 70.9961 124.819 70.981 124.909C70.9658 125 70.9872 125.093 71.0406 125.167C71.0939 125.242 71.1747 125.293 71.2652 125.308C71.3558 125.323 71.4486 125.302 71.5233 125.248C72.1989 124.942 72.8765 124.64 73.5563 124.342C74.8316 123.776 76.2146 123.492 77.61 123.512C78.3267 123.55 79.0405 123.631 79.7479 123.752C79.8173 123.784 79.8967 123.787 79.9686 123.761C80.0405 123.735 80.0989 123.681 80.1311 123.611C80.1633 123.542 80.1666 123.463 80.1402 123.391C80.1139 123.319 80.0601 123.26 79.9906 123.228ZM66.7997 91.9817C66.7667 92.5943 66.3509 93.0047 66.1603 92.9986C65.3701 92.9588 65.4428 90.507 66.2116 90.507C66.6748 90.507 66.8242 91.3929 66.7997 91.9817ZM57.6256 52.8216C57.6116 52.1393 57.6484 51.457 57.7359 50.7802C57.837 50.0283 58.7474 44.741 58.7635 44.6637C58.8932 43.9354 59.2098 43.2534 59.6823 42.6843C59.7091 42.6452 59.7432 42.6117 59.7829 42.5858C59.8226 42.5598 59.867 42.542 59.9136 42.5332C59.9602 42.5245 60.008 42.525 60.0544 42.5348C60.1008 42.5445 60.1448 42.5633 60.1839 42.5901C60.2232 42.6164 60.2568 42.6503 60.2829 42.6897C60.309 42.7292 60.327 42.7734 60.3358 42.8199C60.3446 42.8663 60.3441 42.9141 60.3344 42.9603C60.3246 43.0066 60.3057 43.0504 60.2788 43.0894C60.1536 43.3717 60.0683 43.6702 60.0254 43.976C60.0055 44.0679 59.2122 49.4379 58.8546 50.9823C58.7016 51.6552 58.4839 52.3116 58.2045 52.9426C58.1966 52.9808 58.1812 53.017 58.1592 53.0493C58.1372 53.0816 58.1091 53.1092 58.0765 53.1306C58.0106 53.1738 57.9302 53.1891 57.853 53.173C57.7759 53.157 57.7082 53.111 57.665 53.045C57.6218 52.9791 57.6065 52.8988 57.6226 52.8216H57.6256ZM56.7833 55.0751C56.8423 54.6991 57.3086 54.2986 57.5628 54.3607C57.7226 54.4591 57.8462 54.6065 57.9152 54.7809C57.9842 54.9554 57.9949 55.1475 57.9457 55.3285C57.932 55.4077 57.9028 55.4835 57.8596 55.5513C57.8165 55.6191 57.7603 55.6777 57.6944 55.7236C57.6284 55.7696 57.554 55.802 57.4754 55.8189C57.3968 55.8359 57.3157 55.8371 57.2366 55.8224C57.0775 55.7833 56.9404 55.6826 56.8554 55.5425C56.7705 55.4024 56.7445 55.2343 56.7833 55.0751ZM58.3576 93.2536C58.1609 93.2697 57.7451 92.8286 57.6831 92.3125C57.5537 91.2405 57.9572 90.863 58.1739 90.8515C58.5912 90.8278 58.8133 91.6173 58.8531 92.0353C58.9411 92.7919 58.5498 93.2413 58.3576 93.2536ZM60.8478 92.9174C60.6521 92.8479 60.4807 92.7235 60.354 92.559C60.2273 92.3946 60.1507 92.1971 60.1333 91.9902C60.0307 91.3776 60.1196 90.5223 60.5805 90.4848C61.2804 90.4373 61.7237 92.8026 60.8478 92.9174ZM62.5216 80.9355C62.4236 80.8149 62.2821 80.7377 62.1277 80.7205C61.9733 80.7033 61.8183 80.7476 61.6962 80.8437C59.9312 82.2059 60.1755 84.6814 60.3585 86.8813C60.4312 87.7029 60.4971 88.4319 60.5583 89.095C58.9777 89.2737 57.4515 89.779 56.0766 90.579C56.1456 86.8736 56.0132 83.1671 55.6799 79.4761C54.8063 66.3755 54.8767 63.9451 54.1202 58.7107C57.3905 57.9572 66.5424 57.9741 68.3625 57.9856C68.3135 60.468 68.0164 77.1169 67.939 79.1637C67.756 83.9946 67.5003 85.8958 67.7974 89.5008C66.5053 89.1966 65.1877 89.0138 63.8616 88.9549C64.0089 87.0883 63.9359 85.2108 63.6441 83.3613C63.4645 82.4762 63.08 81.6454 62.5216 80.9355ZM63.3057 91.7007C63.3501 91.0483 63.6242 90.3668 63.9948 90.3822C64.4589 90.4005 64.5722 91.2972 64.4994 91.8868C64.4942 92.0982 64.427 92.3035 64.3061 92.477C64.1852 92.6506 64.016 92.7848 63.8195 92.8631C63.4075 92.8286 63.2674 92.2758 63.3057 91.7007Z" fill="#191919"/>
<path d="M47.8032 126.18C48.2879 125.999 48.9954 125.823 49.1332 125.786C50.1469 125.475 51.2077 125.345 52.2665 125.404C53.3365 125.487 54.3915 125.707 55.406 126.057C55.5515 126.1 56.5783 126.373 56.7781 126.434C56.8113 126.452 56.8476 126.464 56.8852 126.468C56.9227 126.472 56.9607 126.468 56.9969 126.458C57.0331 126.447 57.0669 126.43 57.0963 126.406C57.1257 126.382 57.1502 126.353 57.1683 126.32C57.1864 126.287 57.1978 126.25 57.2018 126.213C57.2058 126.175 57.2025 126.137 57.1918 126.101C57.1812 126.065 57.1635 126.031 57.1398 126.002C57.1162 125.972 57.0869 125.948 57.0538 125.93C56.6652 125.601 56.2417 125.317 55.7911 125.08C53.5813 124.087 51.0744 123.98 48.7879 124.781C48.3151 124.988 47.8712 125.256 47.467 125.577C47.3899 125.623 47.3339 125.698 47.3109 125.785C47.2878 125.872 47.2995 125.965 47.3436 126.044C47.3876 126.123 47.4604 126.181 47.5467 126.207C47.6331 126.233 47.7261 126.224 47.8063 126.183L47.8032 126.18Z" fill="#191919"/>
<path d="M112.531 80.7503C111.942 79.7138 111.061 78.8737 109.998 78.3344C109.967 77.3646 109.827 76.4013 109.583 75.4622C109.28 74.5576 108.74 73.7506 108.02 73.1248C107.3 72.499 106.425 72.0772 105.487 71.9032C104.819 71.7591 104.125 71.7811 103.468 71.9673C102.81 72.1535 102.208 72.4982 101.714 72.9712C101.221 73.4442 100.851 74.031 100.637 74.6802C100.423 75.3295 100.371 76.0213 100.487 76.695C100.604 77.3991 100.837 78.0788 101.176 78.7066C101.476 79.3273 101.868 79.8992 102.338 80.4026C101.859 81.0981 101.464 81.8482 101.162 82.637C100.04 83.2249 99.173 84.2037 98.7243 85.3882C98.6628 85.5278 98.6573 85.6858 98.709 85.8293C98.7608 85.9729 98.8658 86.091 99.0022 86.1593L99.781 86.5475C99.745 89.0529 100.485 91.3286 102.829 92.2138C102.77 92.8041 102.77 92.9619 102.752 93.7368C102.741 93.8151 102.761 93.8946 102.809 93.9578C102.856 94.0211 102.927 94.0629 103.005 94.0741C103.083 94.0853 103.163 94.0649 103.226 94.0174C103.289 93.9699 103.331 93.8993 103.342 93.821L103.76 92.3172C105.211 92.5469 107.619 92.1242 109.293 91.7207C109.273 92.272 109.28 92.824 109.316 93.3746C109.337 93.8065 109.47 94.7965 109.875 94.8226C110.239 94.8471 110.481 94.04 110.498 93.5124C110.508 93.2169 110.467 92.1824 110.441 91.8861C110.432 91.6307 110.395 91.3771 110.332 91.1295C110.902 90.064 111.45 88.9864 111.975 87.8974C113.117 85.4563 113.859 83.1033 112.531 80.7503ZM101.747 76.2035C101.752 75.6203 101.925 75.0509 102.247 74.5641C103.395 72.6697 105.639 72.6728 104.067 74.2455C103.757 74.5198 103.488 74.8358 103.266 75.1843C103.065 75.5322 102.917 75.9086 102.829 76.3007C102.374 77.7686 101.864 77.1062 101.747 76.2035ZM104.979 87.1478C104.581 87.3836 104.115 87.4803 103.655 87.4227C103.578 87.4191 103.501 87.4315 103.428 87.459C103.356 87.4866 103.29 87.5287 103.234 87.5829C103.178 87.637 103.135 87.7019 103.105 87.7737C103.076 87.8455 103.061 87.9225 103.063 88.0001C103.1 89.0721 103.074 90.1241 103.201 91.236C101.328 90.2405 100.879 88.4694 100.981 86.2113C100.986 86.0968 100.958 85.9832 100.9 85.8841C100.842 85.7851 100.757 85.7049 100.655 85.6531L100.056 85.3591C100.218 85.0516 100.411 84.7608 100.63 84.4908C101.489 83.4486 101.959 83.7695 102.132 83.261C102.369 82.4594 102.651 81.6716 102.975 80.9011C103.466 81.2085 104.002 81.4391 104.563 81.5849C104.276 82.5673 104.19 83.0604 103.932 84.33C103.902 84.4736 103.927 84.6233 104.002 84.7492C104.078 84.8751 104.198 84.968 104.339 85.0092C104.666 85.0733 104.973 85.2149 105.234 85.4219C105.418 85.6883 105.494 86.0145 105.447 86.3347C105.4 86.6549 105.232 86.9452 104.979 87.147V87.1478Z" fill="#191919"/>
</svg>
