<svg width="156" height="156" viewBox="0 0 156 156" fill="none" xmlns="http://www.w3.org/2000/svg">
<path fill-rule="evenodd" clip-rule="evenodd" d="M71.0635 72.8949C70.6531 71.3642 70.2707 70.7866 68.6858 70.7866C58.3658 70.7866 20.8285 71.0189 7.74367 71.0189C7.20464 71.0192 6.67294 71.1438 6.18997 71.3832C5.707 71.6226 5.28579 71.9702 4.95913 72.3989C4.63247 72.8277 4.40918 73.3261 4.30664 73.8553C4.2041 74.3845 4.22507 74.9302 4.36793 75.45C8.27093 89.6126 19.1918 131.167 19.1918 131.167L83.1341 143.936L144.308 136.254L85.4352 126.895L71.0635 72.8949Z" fill="white"/>
<path fill-rule="evenodd" clip-rule="evenodd" d="M68.6324 77.621L67.9193 74.668H7.95508L8.81372 77.621H68.6324Z" fill="#FFD997"/>
<path fill-rule="evenodd" clip-rule="evenodd" d="M83.2192 143.929L19.1948 131.168V131.772C19.1942 132.539 19.4594 133.282 19.9454 133.875C20.4314 134.468 21.1079 134.874 21.8598 135.024L83.2192 147.248V143.929Z" fill="white"/>
<path d="M68.2939 74.4187C68.2777 74.3598 68.2304 74.3203 67.5197 74.2793C65.4873 74.1632 55.7402 74.1244 7.9534 74.2793C7.86514 74.2793 7.52137 74.4891 7.6437 75.0295C8.03083 76.7732 10.3722 85.4277 21.7668 128.36C21.7901 128.447 21.8432 128.524 21.9171 128.576C21.9909 128.629 22.0808 128.653 22.171 128.646C71.7231 124.775 79.8465 124.189 81.1225 124.005C81.299 123.98 81.4508 123.985 81.3826 123.629C81.1519 122.442 79.2527 115.472 68.2939 74.4187ZM19.6245 117.277L33.1739 116.498L34.4266 121.239L20.9384 122.227L19.6245 117.277ZM18.1178 111.599L31.6772 110.819L32.9757 115.734L19.4208 116.513L18.1178 111.599ZM16.7055 106.277L30.2836 105.544L31.4752 110.055L17.9149 110.835L16.7055 106.277ZM14.0607 96.3122L27.7007 95.7702L30.0815 104.785L16.5027 105.518L14.0607 96.3122ZM11.5831 86.96L25.268 86.5434L27.4978 94.9959L13.8571 95.5379L11.5831 86.96ZM9.26963 78.1877H23.0428L25.0613 85.7754L11.3756 86.1919L9.26963 78.1877ZM70.1575 84.4026L25.8595 85.7506L23.8465 77.9523H68.3868L70.1575 84.4026ZM72.5043 93.2051L28.2945 94.9688L26.0624 86.5194L70.3619 85.1715L72.5043 93.2051ZM74.9447 102.359L30.8751 104.74L28.4974 95.7361L72.7071 93.9724L74.9447 102.359ZM76.3113 107.482L32.268 110.013L31.0772 105.504L75.1491 103.122L76.3113 107.482ZM77.8249 113.159L33.77 115.692L32.4716 110.777L76.5165 108.245L77.8249 113.159ZM33.9698 116.456L78.0247 113.923L79.1087 117.972L35.2156 121.182L33.9698 116.456ZM67.6219 75.0497L68.1809 77.2338H9.06058L8.45744 75.0497H67.6219ZM21.1405 122.989L34.631 122.002L35.8969 126.794L22.4249 127.847L21.1405 122.989ZM36.682 126.733L35.4169 121.945L79.3076 118.731L80.5279 123.309L36.682 126.733Z" fill="black"/>
<path d="M144.368 135.871L85.7443 126.552L71.4408 72.7951C70.9972 71.1389 70.4947 70.4003 68.6891 70.4003C63.8346 70.4003 14.6766 70.6326 7.74626 70.6326C7.14787 70.6336 6.55778 70.7725 6.02181 71.0386C5.48583 71.3047 5.01841 71.6907 4.65584 72.1667C4.29328 72.6428 4.04533 73.196 3.93126 73.7834C3.81718 74.3708 3.84006 74.9766 3.9981 75.5537C7.7989 89.3431 18.3883 129.625 18.8088 131.222V131.774C18.8103 132.629 19.1074 133.457 19.6496 134.118C20.1918 134.779 20.946 135.233 21.7842 135.402C73.5166 145.704 81.6873 147.342 82.9779 147.594C83.1466 147.646 83.3266 147.65 83.4975 147.606L144.389 139.973C144.483 139.961 144.57 139.915 144.632 139.844C144.694 139.772 144.728 139.681 144.728 139.586V136.264C144.726 136.166 144.688 136.072 144.622 135.999C144.556 135.927 144.466 135.882 144.368 135.871ZM141.613 136.218L83.2342 143.535L22.1589 131.365L85.4153 127.283L141.613 136.218ZM4.74526 75.3478C4.61846 74.8856 4.59995 74.4005 4.69116 73.93C4.78238 73.4595 4.98087 73.0164 5.2712 72.6352C5.56154 72.2539 5.93589 71.9447 6.36515 71.7317C6.79442 71.5186 7.26703 71.4075 7.74626 71.4068C14.6781 71.4068 63.8361 71.1745 68.6891 71.1745C70.027 71.1745 70.3027 71.54 70.6921 72.9948L84.9383 126.537L19.487 130.762C18.4797 126.925 8.42682 88.709 4.74526 75.3478ZM19.583 131.64L82.8324 144.245V146.776L21.936 134.638C21.2514 134.5 20.6385 134.122 20.2072 133.573C19.776 133.023 19.5547 132.338 19.583 131.64Z" fill="black"/>
<path fill-rule="evenodd" clip-rule="evenodd" d="M34.6504 132.117L83.0527 129.02L107.267 132.659L59.2894 135.833L34.6504 132.117Z" fill="#81F8F8"/>
<path d="M59.1216 136.196C58.4387 136.097 54.7858 135.54 34.5933 132.5C34.4991 132.485 34.4136 132.437 34.3532 132.363C34.2927 132.289 34.2615 132.196 34.2655 132.101C34.2695 132.006 34.3085 131.915 34.375 131.847C34.4415 131.779 34.5308 131.738 34.6258 131.731C74.0724 129.182 81.4301 128.718 82.7974 128.643C83.026 128.616 83.2574 128.632 83.4803 128.689L107.327 132.275C107.421 132.29 107.507 132.338 107.567 132.412C107.628 132.486 107.659 132.579 107.655 132.674C107.651 132.769 107.613 132.86 107.546 132.928C107.48 132.996 107.391 133.038 107.296 133.044L59.4808 136.204C59.3617 136.224 59.2398 136.222 59.1216 136.196ZM38.2803 132.273L59.3059 135.44L103.67 132.508L83.0398 129.405L38.2803 132.273Z" fill="black"/>
<path d="M95.4297 140.367C94.4464 140.16 91.2821 139.48 80.9869 137.263C80.8954 137.244 80.8141 137.192 80.7579 137.117C80.7017 137.042 80.6745 136.95 80.6812 136.857C80.6879 136.763 80.7281 136.676 80.7944 136.61C80.8607 136.544 80.9486 136.504 81.0418 136.498L107.323 134.699L121.719 136.5C121.813 136.512 121.899 136.558 121.961 136.629C122.023 136.699 122.058 136.79 122.058 136.884C122.058 136.979 122.023 137.07 121.961 137.14C121.899 137.211 121.813 137.257 121.719 137.269C103.672 139.475 98.2712 140.153 96.6337 140.361C95.7255 140.472 96.0035 140.483 95.4297 140.367ZM83.8345 137.083L95.9075 139.673L118.538 136.881L107.299 135.465L83.8345 137.083Z" fill="black"/>
<path d="M125.045 8.75362H88.1321C82.4382 8.75362 77.8066 13.1514 77.8066 18.5564V37.3854C77.8066 42.7897 82.4382 47.1875 88.1321 47.1875H96.1277C94.4755 52.3641 90.5044 57.725 84.0068 63.5559C83.9401 63.6157 83.8961 63.6968 83.8824 63.7854C83.8688 63.874 83.8863 63.9645 83.932 64.0417C83.9777 64.1188 84.0487 64.1777 84.1329 64.2082C84.2172 64.2388 84.3095 64.2392 84.394 64.2094C95.2002 60.4117 102.083 54.8409 105.423 47.1875H125.045C130.738 47.1875 135.37 42.7897 135.37 37.3854V18.5564C135.37 13.1514 130.738 8.75362 125.045 8.75362Z" fill="black"/>
<path fill-rule="evenodd" clip-rule="evenodd" d="M91.4258 20.9218V39.1345L100.313 30.0277L91.4258 20.9218Z" fill="white"/>
<path fill-rule="evenodd" clip-rule="evenodd" d="M113.834 20.3581H91.957L106.525 35.2864L116.358 25.2142C115.623 24.624 115.02 23.8875 114.585 23.0515C114.151 22.2155 113.895 21.2983 113.834 20.3581Z" fill="white"/>
<path fill-rule="evenodd" clip-rule="evenodd" d="M116.987 25.6764L112.741 30.0277L121.627 39.1345V26.8757C119.991 26.9921 118.361 26.571 116.987 25.6764Z" fill="white"/>
<path fill-rule="evenodd" clip-rule="evenodd" d="M112.2 30.5821C108.282 34.5974 107.167 35.7696 106.795 36.1033C106.615 36.2643 106.477 36.2875 106.295 36.1327C105.955 35.8454 104.913 34.739 100.854 30.5821L91.957 39.6981H121.096L112.2 30.5821Z" fill="white"/>
<path fill-rule="evenodd" clip-rule="evenodd" d="M121.108 13.8226C119.431 13.7789 117.804 14.401 116.584 15.5532C115.364 16.7053 114.649 18.2936 114.597 19.971C114.693 21.633 115.42 23.1954 116.631 24.3381C117.842 25.4808 119.443 26.1174 121.108 26.1174C122.773 26.1174 124.375 25.4808 125.585 24.3381C126.796 23.1954 127.524 21.633 127.62 19.971C127.567 18.2936 126.853 16.7053 125.633 15.5532C124.412 14.401 122.786 13.7789 121.108 13.8226Z" fill="#FFD997"/>
<path d="M121.667 16.3761C118.884 19.4491 118.947 19.2997 118.948 19.5622V20.6585C118.949 20.7497 118.976 20.8386 119.027 20.9145C119.077 20.9904 119.149 21.05 119.233 21.086C119.316 21.1221 119.409 21.1331 119.498 21.1177C119.588 21.1023 119.672 21.0611 119.739 20.9992L120.541 20.2489L120.511 23.2461C120.509 23.3081 120.521 23.3698 120.544 23.4274C120.567 23.485 120.601 23.5374 120.645 23.5815C120.689 23.6256 120.741 23.6605 120.798 23.6841C120.855 23.7077 120.917 23.7197 120.979 23.7191L122.018 23.7098C122.142 23.7088 122.26 23.659 122.347 23.5713C122.434 23.4835 122.483 23.365 122.483 23.2414V16.6905C122.482 16.5959 122.454 16.5036 122.4 16.4257C122.347 16.3478 122.271 16.2879 122.183 16.2539C122.094 16.2199 121.998 16.2133 121.906 16.2352C121.814 16.257 121.731 16.3061 121.667 16.3761Z" fill="black"/>
<path fill-rule="evenodd" clip-rule="evenodd" d="M103.66 70.2973C103.66 70.2973 95.8213 77.59 94.7164 80.0746C93.6116 82.5591 99.3232 81.2026 99.3232 81.2026L91.5737 92.2969C91.5737 92.2969 104.349 81.0432 103.641 79.2446C102.723 76.9071 97.8134 79.1385 97.8134 79.1385L103.66 70.2973Z" fill="white"/>
<path fill-rule="evenodd" clip-rule="evenodd" d="M118.612 78.3495C118.612 78.3495 108.434 81.6711 106.388 83.4596C104.341 85.2481 110.094 86.4196 110.094 86.4196L98.4028 93.233C98.4028 93.233 114.723 88.3893 114.839 86.4614C114.987 83.9536 109.595 83.9156 109.595 83.9156L118.612 78.3495Z" fill="white"/>
<path d="M91.256 92.0755L98.4519 81.7779C97.1744 81.9978 95.1226 82.189 94.4335 81.3544C94.2802 81.15 94.1915 80.9044 94.1787 80.6492C94.1658 80.394 94.2295 80.1408 94.3615 79.922C95.4857 77.3941 103.073 70.3213 103.395 70.0194C103.465 69.9558 103.555 69.9197 103.649 69.9179C103.744 69.9161 103.835 69.9487 103.907 70.0095C103.979 70.0704 104.026 70.1553 104.04 70.2485C104.054 70.3417 104.033 70.4366 103.982 70.5157L98.8034 78.3464C100.669 77.7185 103.277 77.2663 104.002 79.1075C104.749 81.0099 94.8741 89.9091 91.8289 92.5911C91.758 92.6564 91.6653 92.6928 91.5689 92.6933C91.4726 92.6939 91.3795 92.6584 91.3078 92.594C91.2362 92.5295 91.1912 92.4406 91.1816 92.3447C91.172 92.2489 91.1985 92.1528 91.256 92.0755ZM99.3237 80.8163C99.3944 80.8163 99.4638 80.8357 99.5243 80.8724C99.5848 80.9091 99.6341 80.9616 99.6668 81.0244C99.6995 81.0871 99.7144 81.1576 99.7099 81.2282C99.7054 81.2988 99.6816 81.3668 99.6411 81.4249L93.8226 89.7543C98.9211 85.0754 103.529 80.272 103.281 79.3847C102.675 77.8455 99.436 78.8265 97.9742 79.4916C97.8977 79.5263 97.8119 79.5353 97.7299 79.5171C97.6479 79.4988 97.574 79.4544 97.5195 79.3905C97.4649 79.3266 97.4326 79.2467 97.4275 79.1628C97.4224 79.0789 97.4447 78.9957 97.491 78.9256L101.414 72.9925C100.532 73.8604 94.2818 79.9538 95.0305 80.8566C95.6739 81.6347 99.2416 80.8163 99.3237 80.8163Z" fill="black"/>
<path d="M98.401 93.6147C98.3159 93.6147 98.2331 93.5867 98.1656 93.535C98.098 93.4833 98.0493 93.4107 98.0271 93.3286C98.0049 93.2464 98.0104 93.1593 98.0427 93.0805C98.075 93.0018 98.1324 92.9359 98.2059 92.8931L109.064 86.569C107.813 86.2306 105.875 85.5454 105.596 84.4979C105.543 84.2477 105.566 83.9874 105.662 83.7503C105.757 83.5132 105.922 83.3101 106.133 83.1669C108.215 81.3443 118.074 78.1142 118.493 77.9794C118.583 77.9506 118.68 77.9555 118.766 77.9934C118.853 78.0312 118.923 78.0993 118.962 78.1849C119.002 78.2705 119.009 78.3677 118.982 78.4582C118.955 78.5487 118.896 78.6262 118.816 78.6763L110.826 83.6052C112.783 83.8212 115.339 84.5048 115.223 86.4799C115.086 88.7717 98.5497 93.6147 98.401 93.6147ZM115.442 79.8462C114.305 80.2526 106.042 83.1654 106.345 84.2997C106.53 84.9965 108.694 85.7367 110.172 86.0378C110.249 86.0535 110.319 86.0921 110.374 86.1486C110.428 86.2051 110.464 86.2768 110.477 86.3542C110.489 86.4316 110.478 86.5111 110.445 86.5821C110.412 86.6531 110.357 86.7122 110.29 86.7517L101.509 91.8618C108.103 89.7589 114.303 87.3363 114.45 86.4273C114.547 84.7805 111.199 84.3066 109.59 84.2935C109.506 84.293 109.424 84.2651 109.357 84.2141C109.29 84.1631 109.242 84.0916 109.219 84.0106C109.196 83.9296 109.201 83.8434 109.231 83.7651C109.262 83.6867 109.317 83.6205 109.389 83.5765L115.442 79.8462Z" fill="black"/>
<path fill-rule="evenodd" clip-rule="evenodd" d="M30.6007 39.0818C30.6007 39.0818 29.6453 36.6894 30.8516 36.2016C32.0578 35.7138 32.7694 38.2069 32.7694 38.2069L32.7369 38.2201C37.1989 37.8376 39.9281 45.9045 40.6489 47.7434C41.41 49.686 44.6464 49.8571 44.6464 49.8571L37.7377 52.2271C37.7494 52.265 38.6142 55.0523 37.4799 55.5563C36.3456 56.0604 35.2021 53.1438 35.1866 53.1043L27.8691 55.6144C28.9934 54.2556 30.2244 53.1438 29.9364 51.0657C29.9364 51.0649 27.0089 42.0371 30.6007 39.0818Z" fill="#FFD997"/>
<path d="M44.6671 49.47C44.6369 49.47 41.6654 49.288 41.0096 47.5978C39.5586 43.8574 37.0857 37.8252 33.048 37.819C32.6446 36.6693 31.8401 35.3879 30.7043 35.8424C29.5685 36.2968 29.7837 37.9174 30.143 38.968C29.7752 39.32 29.4689 39.7311 29.2371 40.1844C27.2651 43.972 29.4694 50.8915 29.5514 51.1176C29.8108 52.9959 28.7152 53.9769 27.5686 55.3674C27.5151 55.4324 27.4843 55.5131 27.4808 55.5972C27.4773 55.6813 27.5013 55.7643 27.5492 55.8335C27.5971 55.9027 27.6662 55.9545 27.7461 55.9809C27.826 56.0073 27.9124 56.0069 27.9921 55.9799L34.9673 53.5867C35.4822 54.7411 36.4818 56.4189 37.6338 55.9094C38.8092 55.3891 38.4282 53.3428 38.2068 52.4748L44.7693 50.2233C44.8546 50.1946 44.9271 50.137 44.9746 50.0606C45.022 49.9841 45.0413 49.8936 45.0292 49.8044C45.0171 49.7153 44.9744 49.6332 44.9083 49.5721C44.8422 49.5111 44.757 49.475 44.6671 49.47ZM30.997 36.5609C31.5389 36.3371 32.0406 37.3529 32.2543 37.898C31.7417 37.9988 31.251 38.1896 30.8049 38.4616C30.623 37.7989 30.4612 36.7769 30.997 36.5609ZM29.9269 40.5413C30.2129 39.9607 30.6549 39.4711 31.2034 39.1276C31.7519 38.7841 32.3853 38.6001 33.0325 38.5964C36.6382 38.5964 38.9942 44.5418 40.2887 47.8827C40.3027 47.9191 40.3182 47.954 40.3337 47.9896L30.3536 51.5388C30.3494 51.3403 30.3331 51.1422 30.3048 50.9457C30.2831 50.8768 28.1036 44.0409 29.9269 40.5413ZM37.3234 55.1994C36.7814 55.4317 35.9692 53.9111 35.7052 53.3311L37.4743 52.7241C37.7198 53.7144 37.8173 54.9834 37.3234 55.1994ZM29.0652 54.7906C29.6767 54.107 30.0991 53.2757 30.2908 52.3788L40.7603 48.6562C41.3945 49.3131 42.2052 49.7723 43.0946 49.9786L29.0652 54.7906Z" fill="black"/>
<path d="M41.3527 38.594C41.274 38.5941 41.1972 38.5702 41.1325 38.5255C41.0678 38.4808 41.0182 38.4175 40.9904 38.3439C40.9625 38.2703 40.9578 38.19 40.9767 38.1137C40.9957 38.0374 41.0374 37.9686 41.0964 37.9166L45.5538 33.9849C45.6308 33.917 45.7316 33.8824 45.8341 33.8888C45.9366 33.8951 46.0324 33.942 46.1004 34.019C46.1684 34.096 46.2029 34.1968 46.1966 34.2994C46.1902 34.4019 46.1433 34.4976 46.0663 34.5656C41.3202 38.752 41.5648 38.594 41.3527 38.594Z" fill="black"/>
<path d="M37.0237 32.7399L41.0103 25.2359C41.0604 25.149 41.1422 25.085 41.2386 25.0573C41.3349 25.0296 41.4383 25.0403 41.5269 25.0873C41.6155 25.1342 41.6824 25.2137 41.7136 25.309C41.7447 25.4043 41.7377 25.508 41.6939 25.5982L37.7073 33.1023C37.6572 33.1891 37.5754 33.2532 37.479 33.2809C37.3826 33.3086 37.2793 33.2978 37.1907 33.2509C37.1021 33.2039 37.0352 33.1244 37.004 33.0291C36.9729 32.9338 36.9799 32.8302 37.0237 32.7399Z" fill="black"/>
<path d="M29.4451 32.486L25.8611 24.786C25.8376 24.7397 25.8237 24.6892 25.8202 24.6374C25.8167 24.5856 25.8236 24.5336 25.8406 24.4846C25.8576 24.4355 25.8842 24.3904 25.919 24.3518C25.9538 24.3133 25.996 24.2821 26.043 24.2602C26.0901 24.2383 26.141 24.2261 26.1929 24.2243C26.2448 24.2224 26.2965 24.2311 26.345 24.2497C26.3935 24.2682 26.4377 24.2964 26.4751 24.3324C26.5125 24.3684 26.5422 24.4116 26.5626 24.4593L30.1466 32.1592C30.186 32.2517 30.1879 32.3558 30.152 32.4496C30.116 32.5434 30.045 32.6196 29.9539 32.662C29.8629 32.7044 29.7589 32.7098 29.6639 32.6769C29.569 32.6441 29.4905 32.5756 29.4451 32.486Z" fill="black"/>
<path d="M24.1556 38.594C24.0209 38.594 24.4258 38.7613 17.3554 35.3422C17.3082 35.321 17.2657 35.2905 17.2305 35.2526C17.1953 35.2147 17.168 35.1701 17.1503 35.1215C17.1326 35.0729 17.1248 35.0212 17.1274 34.9695C17.1301 34.9178 17.143 34.8672 17.1655 34.8206C17.188 34.774 17.2197 34.7324 17.2585 34.6983C17.2974 34.6641 17.3427 34.6381 17.3918 34.6218C17.4409 34.6054 17.4928 34.5991 17.5444 34.6031C17.596 34.6072 17.6462 34.6216 17.6922 34.6454L24.3244 37.8562C24.4046 37.8936 24.4696 37.9574 24.5084 38.037C24.5473 38.1165 24.5577 38.207 24.538 38.2933C24.5183 38.3796 24.4695 38.4565 24.4 38.5112C24.3304 38.566 24.2441 38.5952 24.1556 38.594Z" fill="black"/>
<path d="M18.5231 44.9181C18.4288 44.9184 18.3376 44.8843 18.2667 44.8221C18.1958 44.76 18.15 44.6741 18.138 44.5806C18.1259 44.487 18.1484 44.3923 18.2012 44.3142C18.254 44.2361 18.3335 44.1799 18.4247 44.1563L23.558 42.8075C23.6076 42.7935 23.6594 42.7894 23.7105 42.7956C23.7616 42.8018 23.811 42.8182 23.8557 42.8437C23.9004 42.8692 23.9396 42.9034 23.9709 42.9442C24.0023 42.9851 24.0252 43.0318 24.0382 43.0816C24.0513 43.1314 24.0543 43.1833 24.0471 43.2342C24.0399 43.2852 24.0226 43.3342 23.9962 43.3784C23.9697 43.4226 23.9348 43.4611 23.8933 43.4917C23.8519 43.5222 23.8047 43.5441 23.7547 43.5562C18.2738 44.9963 18.6013 44.9181 18.5231 44.9181Z" fill="black"/>
<path fill-rule="evenodd" clip-rule="evenodd" d="M140.595 119.897C140.187 121.205 139.525 122.419 138.647 123.471C133.45 124.86 127.979 124.86 122.781 123.471C118.194 118.311 119.64 104.254 119.612 102.241C119.585 100.229 119.466 98.7333 118.907 97.8134C118.028 96.3664 119.266 95.1554 120.617 94.7513C127.244 93.1109 134.171 93.1109 140.798 94.7513C142.149 95.1554 143.399 96.3671 142.52 97.8134C142.058 98.7792 141.83 99.8401 141.854 100.91C142.64 100.323 143.564 99.9464 144.536 99.8161C145.509 99.6857 146.499 99.806 147.413 100.166C150.422 101.462 152.035 106.118 151.079 109.989C150.123 113.861 147.777 117.285 140.595 119.897ZM141.989 107.032C141.989 107.032 142.811 106.871 142.811 105.364C142.811 103.856 144.148 102.644 145.972 103.98C147.796 105.317 148.072 110.629 145.972 112.658C144.658 113.973 143.158 115.09 141.521 115.971C141.93 113.01 142.087 110.02 141.991 107.032H141.989Z" fill="#81F8F8"/>
<path fill-rule="evenodd" clip-rule="evenodd" d="M130.904 95.709C128.86 95.7005 121.365 96.0265 121.389 97.1863C121.41 98.295 140.42 99.1289 140.419 97.4557C140.418 96.2193 134.072 95.7214 130.904 95.709Z" fill="white"/>
<path d="M147.566 99.8063C146.72 99.4533 145.803 99.3017 144.888 99.3635C143.973 99.4253 143.085 99.6988 142.294 100.163C142.32 99.4144 142.511 98.6812 142.852 98.0147C143.804 96.4453 142.823 94.9518 141.071 94.4268C137.733 93.6233 134.315 93.1999 130.882 93.1648C127.441 93.2063 124.015 93.6299 120.668 94.4276C118.896 94.958 117.611 96.4236 118.577 98.0147C119.334 99.259 119.242 102.239 119.174 103.696C118.972 107.926 118.435 119.165 122.492 123.728C122.541 123.784 122.606 123.824 122.678 123.844C127.939 125.259 133.48 125.259 138.741 123.844C138.817 123.825 138.885 123.784 138.938 123.725C139.809 122.685 140.473 121.488 140.894 120.198C148.705 117.311 150.618 113.462 151.455 110.077C152.476 105.94 150.657 101.14 147.566 99.8063ZM140.24 119.746C140.232 119.764 140.225 119.783 140.221 119.802C139.837 121.011 139.232 122.138 138.436 123.124C133.376 124.466 128.055 124.466 122.995 123.124C119.23 118.74 119.749 107.847 119.946 103.729C120.024 102.049 120.107 99.0383 119.238 97.6082C118.545 96.4678 119.692 95.524 120.891 95.1655C127.442 93.5251 134.298 93.5251 140.849 95.1655C142.072 95.5309 142.882 96.4662 142.19 97.6082C141.319 99.0383 141.4 102.052 141.48 103.729C141.636 107.011 141.998 114.584 140.24 119.746ZM142.382 107.281C142.677 107.064 142.908 106.773 143.052 106.436C143.196 106.1 143.248 105.731 143.201 105.368C143.201 104.025 144.295 103.234 145.746 104.296C147.367 105.484 147.637 110.517 145.705 112.383C144.607 113.495 143.365 114.454 142.011 115.236C142.327 112.595 142.451 109.935 142.382 107.277V107.281ZM150.702 109.897C149.935 113.005 148.192 116.529 141.198 119.261C141.484 118.262 141.708 117.247 141.868 116.22C143.477 115.343 144.951 114.239 146.244 112.94C148.536 110.724 148.205 105.139 146.203 103.671C144.201 102.203 142.426 103.455 142.426 105.368C142.43 105.592 142.403 105.816 142.349 106.034C142.251 102.927 142.155 102.846 142.23 101.114C142.951 100.602 143.789 100.279 144.668 100.175C145.547 100.071 146.437 100.19 147.258 100.521C150.033 101.713 151.641 106.094 150.702 109.893V109.897Z" fill="black"/>
<path fill-rule="evenodd" clip-rule="evenodd" d="M135.223 95.5449C135.172 95.5412 135.121 95.5479 135.072 95.5646C135.024 95.5813 134.979 95.6076 134.942 95.642C134.904 95.6764 134.873 95.7181 134.852 95.7647C134.831 95.8112 134.819 95.8615 134.818 95.9126C134.813 96.015 134.849 96.115 134.918 96.1909C134.986 96.2668 135.083 96.3124 135.185 96.3176C136.018 96.3586 136.795 96.4376 137.473 96.5382C137.558 96.9702 137.512 97.4178 137.341 97.8235C132.949 98.1289 128.539 98.0948 124.152 97.7213C123.946 97.345 123.894 96.904 124.006 96.4902C125.072 96.3261 126.644 96.1635 128.961 96.0327C129.064 96.0269 129.16 95.9806 129.229 95.9039C129.297 95.8273 129.333 95.7265 129.327 95.6239C129.321 95.5212 129.275 95.425 129.198 95.3565C129.121 95.2879 129.021 95.2527 128.918 95.2584C122.758 95.7268 121.54 96.1728 121.151 96.7295C121.079 96.8288 121.031 96.9437 121.013 97.0648C120.994 97.186 121.004 97.3099 121.042 97.4263C121.538 99.0429 134.116 98.7681 136.048 98.6589C140.632 98.3957 140.739 97.8243 140.801 97.4828C141.086 95.949 136.784 95.6208 135.223 95.5449Z" fill="black"/>
</svg>
