<svg width="156" height="156" viewBox="0 0 156 156" fill="none" xmlns="http://www.w3.org/2000/svg">
<path fill-rule="evenodd" clip-rule="evenodd" d="M37.9558 23.2695C38.2924 23.6513 38.5455 24.0992 38.6989 24.5845C38.8522 25.0699 38.9024 25.5819 38.8462 26.0878C38.5961 26.8966 38.5723 27.7586 38.7773 28.5801C38.8958 28.9546 38.9242 29.3519 38.8602 29.7395C38.7961 30.1271 38.6415 30.4941 38.4088 30.8107C37.9078 31.6926 36.9865 34.3304 35.5301 34.4187C35.2211 34.436 34.9113 34.4099 34.6095 34.3413C34.6095 34.3413 34.2843 37.6806 31.2586 37.5815C26.987 37.4421 26.1562 33.1845 26.1562 33.1845C26.8131 32.9851 27.4473 32.7175 28.0485 32.3863C28.7562 31.9488 33.2376 20.3142 37.9558 23.2695Z" fill="#FFD997"/>
<path d="M32.9943 26.4217C33.4191 26.0906 33.9304 25.8888 34.4668 25.8406C35.0033 25.7924 35.5423 25.8998 36.0193 26.15C36.0637 26.1748 36.1028 26.2081 36.1343 26.248C36.1658 26.2879 36.1891 26.3336 36.203 26.3825C36.2168 26.4315 36.2209 26.4826 36.215 26.5331C36.209 26.5836 36.1932 26.6325 36.1684 26.6768C36.1436 26.7212 36.1103 26.7603 36.0704 26.7918C36.0305 26.8233 35.9847 26.8466 35.9358 26.8605C35.8869 26.8743 35.8357 26.8784 35.7852 26.8725C35.7347 26.8665 35.6859 26.8507 35.6415 26.8259C35.2995 26.6508 34.9148 26.5765 34.5322 26.6117C34.1495 26.6469 33.7848 26.7902 33.4806 27.0249C33.4006 27.0893 33.2983 27.1194 33.1961 27.1085C33.094 27.0975 33.0004 27.0464 32.9359 26.9664C32.8714 26.8864 32.8413 26.7841 32.8523 26.682C32.8633 26.5798 32.9144 26.4862 32.9943 26.4217Z" fill="black"/>
<path d="M37.1951 25.9271C38.7165 24.9206 39.603 25.9519 39.1121 26.3684C39.0341 26.4338 38.9335 26.4658 38.8321 26.4575C38.7307 26.4493 38.6366 26.4014 38.5702 26.3243C38.4463 26.1787 37.9283 26.3746 37.6263 26.5728C37.5839 26.6011 37.5364 26.6208 37.4864 26.6308C37.4364 26.6407 37.3849 26.6407 37.3349 26.6307C37.2339 26.6106 37.145 26.5512 37.0878 26.4656C37.0307 26.38 37.0098 26.2751 37.0299 26.1741C37.05 26.0732 37.1095 25.9843 37.1951 25.9271Z" fill="black"/>
<path d="M35.6228 30.1907C35.6339 30.141 35.6548 30.094 35.6843 30.0525C35.7138 30.011 35.7512 29.9758 35.7945 29.949C35.8378 29.9222 35.886 29.9043 35.9362 29.8963C35.9865 29.8883 36.0379 29.8905 36.0873 29.9027C36.4438 29.9168 36.7921 29.7938 37.0606 29.5589C36.7442 28.9394 36.5328 28.2717 36.435 27.583C36.4239 27.4832 36.452 27.383 36.5133 27.3035C36.5747 27.2241 36.6646 27.1716 36.7639 27.1571C36.8633 27.1427 36.9644 27.1674 37.0459 27.226C37.1274 27.2847 37.1829 27.3727 37.2007 27.4715C37.2807 28.0516 37.4516 28.6154 37.7071 29.1423C38.5185 30.464 35.3711 31.2622 35.6228 30.1907Z" fill="black"/>
<path fill-rule="evenodd" clip-rule="evenodd" d="M37.6043 50.4473C37.6043 50.4473 43.4638 48.3267 45.1146 45.3504C45.1146 45.3504 40.5155 38.9443 38.8865 37.5057C37.5418 36.4 36.1125 35.4012 34.6118 34.5187C34.6118 34.5187 33.6765 37.7303 31.3205 37.6056C30.0917 37.5565 28.9151 37.0962 27.9792 36.2984C27.0433 35.5007 26.4024 34.4118 26.1593 33.2063C23.7003 34.1757 21.0632 33.2373 18.2542 35.6568C15.8478 37.7295 9.38672 42.7884 9.38672 42.7884L15.1781 48.5891C15.1781 48.5891 16.5857 47.2729 18.3185 45.7941C18.3185 45.7941 18.5817 53.5815 20.4717 54.6879C22.9702 56.1368 25.8812 56.7091 28.7422 56.3138C31.9554 55.7781 36.9555 54.8915 37.4781 52.0764L37.6043 50.4473Z" fill="#81F8F8"/>
<path fill-rule="evenodd" clip-rule="evenodd" d="M17.6906 59.9715C20.9982 55.9454 21.7307 55.3879 21.7307 55.3879C25.7366 56.8846 29.628 57.0704 33.3506 55.3879C37.9295 72.0709 40.0987 89.323 39.7924 106.62L33.521 107.656L26.4954 78.6379L24.1835 107.579C24.1835 107.579 19.4513 111.635 16.8761 107.164C15.1642 104.197 14.8615 70.0081 14.8615 70.0081C14.8615 70.0081 14.383 63.9961 17.6906 59.9715Z" fill="white"/>
<path fill-rule="evenodd" clip-rule="evenodd" d="M44.9225 45.6633C44.0267 47.1344 41.4941 48.5908 41.4941 48.5908C41.4941 48.5908 43.4855 50.9538 44.1514 51.7025C44.8172 52.4512 46.742 53.4221 48.6815 54.1948C50.621 54.9675 56.6075 56.2706 57.5482 57.7417C58.489 59.2127 58.3225 60.5437 59.9353 60.8301C60.3565 60.9362 60.7985 60.9268 61.2149 60.8029C61.6313 60.6791 62.0066 60.4454 62.3014 60.1263C62.3014 60.1263 66.2059 62.998 66.5977 62.4994C66.9895 62.0008 64.0318 59.5573 63.8561 58.615C63.6803 57.6727 63.5208 56.7452 62.2743 56.3573C60.4881 55.8148 58.7524 55.1182 57.0868 54.2753C55.8077 53.4577 52.552 50.068 50.9547 49.4324C49.3574 48.7967 47.4481 48.71 44.9225 45.6633Z" fill="#FFD997"/>
<path fill-rule="evenodd" clip-rule="evenodd" d="M13.9457 47.3567L9.87931 43.2842C9.87931 43.2842 6.71185 47.006 6.55003 48.5893C6.38821 50.1727 11.6601 54.4737 12.9624 55.7899C14.2647 57.1061 16.3621 60.248 17.2045 60.1195C18.0469 59.991 19.185 58.9581 20.1227 59.0425C21.0603 59.1269 22.8047 60.3162 23.0865 59.9375C23.3683 59.5589 20.5059 58.0019 20.5059 58.0019C21.256 57.8537 22.0259 57.8351 22.7822 57.9469C23.8406 58.1514 24.834 58.3798 24.8549 57.9841C24.9223 57.9655 24.9846 57.9318 25.0372 57.8857C25.0898 57.8396 25.1313 57.7822 25.1586 57.7178C25.1859 57.6535 25.1984 57.5837 25.195 57.5139C25.1916 57.444 25.1725 57.3758 25.139 57.3144C24.8913 56.8344 22.0482 55.6374 21.0587 55.6815C21.6475 55.2868 22.2692 54.9435 22.9169 54.6556C24.0489 54.1423 24.2788 53.6491 23.0323 53.7056C21.7858 53.7621 18.0972 55.8108 17.4197 56.4635C17.4197 56.4635 14.9607 53.8721 14.5767 52.8338C14.1927 51.7955 12.4862 48.5878 12.4862 48.5878L13.9457 47.3567Z" fill="#FFD997"/>
<path fill-rule="evenodd" clip-rule="evenodd" d="M22.3141 108.807C21.6838 109.157 20.9707 109.331 20.25 109.31C19.5292 109.289 18.8274 109.074 18.2183 108.688C18.197 109.724 18.0984 110.757 17.9233 111.778C18.5776 113.475 19.1002 115.201 20.7935 116.656C21.9262 114.845 23.1356 114.411 24.3876 114.736C23.5243 113.513 21.9673 110.947 22.3141 108.807Z" fill="#FFD997"/>
<path fill-rule="evenodd" clip-rule="evenodd" d="M35.0107 107.399C35.1642 108.815 35.0137 110.248 34.5693 111.602L41.4826 113.371L42.9398 111.778C41.4936 110.282 40.223 108.625 39.1529 106.841L35.0107 107.399Z" fill="#FFD997"/>
<path d="M65.609 60.3299C65.0548 59.8006 64.5894 59.1854 64.2308 58.5081C64.0496 57.5372 63.8437 56.4362 62.3889 55.984C60.6338 55.4536 58.928 54.7723 57.2904 53.9478C56.5464 53.399 55.8354 52.8067 55.1612 52.174C51.9682 49.3379 51.585 49.2008 50.1185 48.7347C48.2499 48.2343 46.5932 47.143 45.3956 45.6238C45.4119 45.5959 45.4328 45.5688 45.4482 45.5409C45.484 45.4767 45.5007 45.4037 45.4964 45.3303C45.4922 45.257 45.4671 45.1864 45.4242 45.1267C45.2353 44.865 40.7787 38.6687 39.1381 37.2185C38.0687 36.3189 36.9351 35.4985 35.7461 34.7641C35.9199 34.7327 36.088 34.6753 36.2447 34.5938L39.3665 35.9038C39.4733 35.9477 39.5893 35.9644 39.7041 35.9523C39.819 35.9403 39.929 35.8999 40.0243 35.8348C40.1197 35.7697 40.1973 35.6819 40.2504 35.5794C40.3034 35.4768 40.3301 35.3627 40.3281 35.2473C40.2863 33.4719 40.1531 29.7207 39.7381 25.8153C39.166 20.4188 36.326 18.2811 32.5508 18.1247C28.7755 17.9683 26.836 22.6099 26.2925 24.5734C25.8899 26.0376 25.231 28.9503 24.9267 30.3331C24.8796 30.5433 24.9088 30.7634 25.0091 30.954C25.1094 31.1447 25.2742 31.2934 25.4741 31.3737C26.0045 31.5858 26.7555 31.9002 27.4763 32.2378C24.1904 34.1564 21.3319 32.4979 18.0026 35.3657C15.6311 37.409 9.21329 42.4354 9.14902 42.4888C9.10603 42.5229 9.07065 42.5655 9.04517 42.6141C9.0197 42.6626 9.0047 42.716 9.00114 42.7707C8.98798 42.9836 9.10876 43.0626 9.35807 43.3127C8.58382 44.2526 6.31604 47.1065 6.17048 48.5559C6.03498 49.8737 8.4491 52.184 11.3773 54.8443C12.4022 55.704 13.3275 56.6758 14.136 57.7416C15.3345 59.2127 16.1754 60.2037 16.8513 60.4461C14.074 64.4877 14.4557 69.7975 14.4735 70.0088C14.4859 71.4087 14.798 104.334 16.5377 107.354C16.8753 107.967 17.3376 108.503 17.895 108.926C17.8824 109.846 17.7679 110.763 17.5535 111.658C17.2276 112.573 16.7793 113.826 17.8036 114.723C18.5515 115.378 19.3258 117.47 20.0683 118.657C20.8696 119.933 21.4813 121.692 24.2547 121.692C24.3646 121.692 24.4784 121.692 24.5953 121.683C28.832 121.466 29.2269 120.66 29.3562 120.394C29.424 120.251 29.4503 120.092 29.4319 119.934C29.4136 119.777 29.3514 119.628 29.2525 119.504C28.5951 118.566 25.3409 115.323 25.2264 115.21C25.1977 115.176 22.3477 111.691 22.6853 108.987C23.3087 108.683 23.8947 108.308 24.4312 107.869C24.6201 107.708 24.4196 109.435 26.6843 81.0799L33.1408 107.745C33.1625 107.841 33.2204 107.925 33.3023 107.979C33.3842 108.033 33.4838 108.054 33.5805 108.036L34.6366 107.862C34.6825 108.856 34.6021 109.851 34.3974 110.824C34.0621 111.93 33.6688 113.147 34.1225 113.993C34.2144 114.162 34.3398 114.31 34.491 114.429C34.6423 114.548 34.8162 114.634 35.0021 114.683C36.0379 114.923 37.1143 114.929 38.1525 114.699C39.1178 114.705 40.0671 114.947 40.9181 115.402C42.5843 116.243 47.8175 118.117 48.8975 116.469C49.9103 114.921 45.9043 114.266 43.3283 111.623C41.9672 110.22 40.7562 108.679 39.7149 107.025L39.8566 107.001C39.9455 106.986 40.0265 106.941 40.0857 106.874C40.1449 106.806 40.1786 106.719 40.181 106.629C40.4558 89.4211 38.3182 72.2592 33.8306 55.6442C36.6799 54.5269 37.8381 52.9343 37.8737 51.8836L37.9125 50.7455C39.1175 50.2799 40.2867 49.7264 41.4105 49.0893C41.9424 49.7188 43.3229 51.3517 43.8641 51.9603C44.7716 52.9815 47.4365 54.1158 48.5398 54.5556C49.1151 54.7878 50.0109 55.0503 51.0422 55.3577C57.1929 57.188 57.1526 57.5256 57.8556 59.2289C58.2234 60.1255 58.5695 60.9726 59.8726 61.2041C60.3014 61.3004 60.7466 61.2984 61.1746 61.1982C61.6026 61.0981 62.0024 60.9023 62.344 60.6257C64.9362 62.5094 66.0054 62.9368 66.4901 62.9368C66.5715 62.9423 66.653 62.9262 66.7263 62.8902C66.7995 62.8542 66.862 62.7995 66.9074 62.7317C67.31 62.2152 66.6333 61.465 65.609 60.3299ZM34.6691 24.0849C35.7089 22.7315 36.3771 22.9235 36.6613 23.1209C36.9818 23.347 37.2102 22.867 37.6933 23.066C38.0299 23.4791 38.2726 23.9603 38.4048 24.4765C38.5371 24.9926 38.5556 25.5314 38.4591 26.0554C38.2099 26.895 38.1877 27.7857 38.3948 28.6367C38.607 30.0613 38.4769 29.7362 37.7235 31.3156C37.2497 32.3105 36.4561 33.9744 35.5076 34.0317C33.6363 34.1293 32.3146 32.3833 32.3015 32.3663L32.0181 31.9792C32.2379 29.1695 33.1486 26.4577 34.6691 24.0849ZM28.2281 32.6079C29.2135 33.1524 30.1441 33.7908 31.0069 34.5141C31.1076 34.5937 31.2296 34.6416 31.3576 34.6518C31.4855 34.6621 31.6136 34.6341 31.7256 34.5716C31.8377 34.509 31.9287 34.4146 31.9871 34.3003C32.0455 34.186 32.0687 34.057 32.0537 33.9295C32.0251 33.6895 32.008 33.4448 31.9987 33.1978C32.5933 33.8435 33.3379 34.3326 34.1666 34.6217C33.9243 35.2868 33.0478 37.3006 31.3414 37.2177C30.2603 37.1699 29.2222 36.7805 28.3763 36.1055C27.5305 35.4305 26.9205 34.5046 26.6339 33.4611C27.2225 33.2996 27.7673 33.008 28.2281 32.6079ZM14.736 57.2554C13.904 56.1589 12.9531 55.1578 11.9007 54.2706C10.2554 52.7771 6.83246 49.6708 6.93776 48.6279C7.0477 47.5377 8.91984 45.0594 9.90469 43.8577L13.3741 47.3326L12.5333 48.0426L12.0269 47.2908C11.9687 47.2075 11.8802 47.1505 11.7803 47.1319C11.6805 47.1133 11.5774 47.1348 11.4932 47.1915C11.409 47.2483 11.3504 47.3359 11.3302 47.4354C11.31 47.5349 11.3297 47.6384 11.3851 47.7236L12.3366 49.1366C12.7911 50.0006 13.92 52.1701 14.2157 52.9699C14.6152 54.0538 16.883 56.4602 17.1401 56.7312C17.1752 56.7682 17.2173 56.7979 17.264 56.8185C17.3107 56.8392 17.361 56.8504 17.412 56.8516C17.463 56.8527 17.5137 56.8438 17.5613 56.8252C17.6088 56.8067 17.6522 56.779 17.689 56.7436C18.3131 56.1435 21.942 54.1111 23.1777 54.0902C22.3696 54.4622 21.5876 54.8885 20.8371 55.3662C20.4949 55.6078 20.7512 56.1404 21.0779 56.0684C21.4476 56.09 21.8125 56.1632 22.1619 56.286C21.6782 56.2375 21.1899 56.2667 20.7156 56.3727C20.6163 56.3989 20.5315 56.4635 20.4798 56.5522C20.4281 56.6409 20.4137 56.7465 20.4399 56.8458C20.4661 56.9451 20.5307 57.0299 20.6194 57.0816C20.7081 57.1333 20.8137 57.1476 20.913 57.1214C21.4829 57.0123 22.0687 57.0167 22.637 57.1343C23.2052 57.2519 23.7447 57.4803 24.2245 57.8066C23.1405 57.699 22.2703 57.2554 20.4252 57.6247C20.3477 57.641 20.277 57.6808 20.2227 57.7386C20.1685 57.7963 20.1333 57.8694 20.1219 57.9478C20.1105 58.0263 20.1234 58.1063 20.159 58.1772C20.1945 58.248 20.251 58.3062 20.3207 58.344C20.81 58.6095 21.3342 58.9208 21.7701 59.2042C21.2624 58.9438 20.7193 58.7591 20.1581 58.656C19.0292 58.5584 17.9236 59.6168 17.1525 59.7353C16.7514 59.7268 15.4901 58.1798 14.736 57.2554ZM13.9231 47.8823C14.9768 48.9384 14.9613 48.9763 15.1758 48.9763C15.4522 48.9763 15.2664 48.9438 18.0219 46.5583C18.1396 48.6287 18.5268 53.2378 19.692 54.5904C18.9182 54.9893 18.1718 55.4391 17.4575 55.9368C16.4911 54.9636 15.6455 53.8775 14.9389 52.702C14.6129 51.8201 13.3966 49.492 12.9707 48.6836L13.9231 47.8823ZM23.6407 114.321C22.3941 114.243 21.3837 115.138 20.6985 116.183C19.8639 115.44 18.8357 113.289 18.2984 111.883C18.5173 111.06 18.6369 110.212 18.6545 109.36C19.6963 109.757 20.8498 109.745 21.8831 109.327C21.8351 111.125 22.8285 113.053 23.6407 114.321ZM42.2653 111.63C41.8729 111.86 41.5325 112.169 41.2657 112.537C40.3413 112.599 35.983 111.464 35.088 111.221C35.3712 110.082 35.4796 108.908 35.4093 107.737L38.8934 107.162C39.864 108.761 40.9937 110.258 42.2653 111.63ZM39.4153 106.287C37.0383 106.68 43.6597 105.59 33.8097 107.212L26.884 78.61C27.29 75.3622 27.9786 72.156 28.942 69.0279C28.9728 68.9297 28.9633 68.8233 28.9157 68.7322C28.8681 68.641 28.7862 68.5724 28.688 68.5416C28.5899 68.5108 28.4835 68.5203 28.3923 68.5679C28.3011 68.6155 28.2326 68.6974 28.2018 68.7956C27.212 71.9919 26.5123 75.271 26.1113 78.593L23.811 107.375C23.317 107.762 21.3938 109.136 19.5821 108.826C19.0715 108.716 18.5926 108.491 18.1818 108.168C17.7711 107.846 17.4392 107.434 17.2113 106.964C15.8509 104.604 15.3345 79.4779 15.2493 69.9717C15.2447 69.9128 14.8336 64.1323 17.9422 60.278C18.677 59.9498 19.4907 59.3714 20.0915 59.421C21.0702 59.5123 22.8424 60.9137 23.4022 60.1611C23.4447 60.1036 23.4742 60.0375 23.4885 59.9674C23.5028 59.8974 23.5016 59.825 23.4851 59.7554C23.4076 59.4124 22.8239 58.9092 21.7399 58.2526C22.9013 58.2302 23.5021 58.577 24.4149 58.5809C25.0215 58.6948 25.6351 58.767 26.2515 58.7969C26.2633 58.8777 26.3007 58.9527 26.3583 59.0106C26.4158 59.0686 26.4905 59.1066 26.5712 59.119C27.992 59.328 30.5664 59.3969 31.7657 58.5615C31.8206 58.5218 31.8641 58.4685 31.8919 58.4067C32.487 58.2628 33.0666 58.0611 33.6223 57.8043C37.6888 73.638 39.6368 89.9412 39.4153 106.287ZM25.4857 57.1385C25.3577 56.9514 25.1895 56.7953 24.9933 56.6816C25.4579 56.7475 25.9301 56.7893 26.4133 56.8171L26.301 58.0304C25.9851 58.0095 25.7072 57.9855 25.4679 57.9615C25.5471 57.8395 25.5907 57.6979 25.5939 57.5525C25.597 57.4071 25.5596 57.2637 25.4857 57.1385ZM27.4864 58.2503V57.027L30.7924 56.6956L30.9473 58.0296C29.8218 58.3444 28.6428 58.4196 27.4864 58.2503ZM31.8369 56.2643C32.2849 56.1549 32.7054 56.0357 33.0982 55.9066C33.1756 56.1668 33.2793 56.5469 33.4125 57.0386C32.9287 57.2813 32.4215 57.4746 31.8989 57.6154L31.8369 56.2643ZM37.9427 49.9C38.2167 43.2321 38.7943 40.4665 39.2434 39.3322C39.2623 39.285 39.2716 39.2345 39.271 39.1837C39.2703 39.1328 39.2597 39.0826 39.2396 39.0359C39.2196 38.9891 39.1905 38.9468 39.1541 38.9113C39.1177 38.8758 39.0746 38.8478 39.0274 38.829C38.9802 38.8101 38.9297 38.8007 38.8788 38.8014C38.828 38.802 38.7777 38.8127 38.731 38.8327C38.6843 38.8528 38.642 38.8819 38.6065 38.9183C38.571 38.9547 38.543 38.9977 38.5241 39.045C37.4471 41.751 37.1924 48.9554 37.0987 51.8581C37.0755 52.5657 36.0659 53.9919 33.3273 55.0085C33.2911 55.006 33.2547 55.0107 33.2202 55.0224C33.1858 55.0341 33.154 55.0525 33.1268 55.0766C32.6375 55.2485 32.1398 55.3955 31.6356 55.5172C31.5611 55.4654 31.4703 55.4423 31.3801 55.4521C27.2549 56.0112 26.8438 56.0251 26.7656 56.0568C25.321 56.0325 23.8907 55.7672 22.5335 55.2717C23.1831 54.9419 24.4118 54.5099 24.2454 53.8115C24.1168 53.2734 23.3163 53.3059 23.0174 53.3191C22.113 53.4719 21.2405 53.775 20.4361 54.2157C19.2329 53.4414 18.8303 47.3457 18.7683 45.9227C20.2743 44.5739 21.9079 43.3749 23.6461 42.3425C23.7346 42.2946 23.8009 42.2141 23.831 42.1181C23.8611 42.0221 23.8527 41.9182 23.8075 41.8283C23.7623 41.7384 23.6839 41.6696 23.5889 41.6366C23.4939 41.6035 23.3897 41.6087 23.2985 41.6511C20.8673 42.8737 16.3558 46.9718 15.1874 48.0518L9.96818 42.8241C11.3394 41.7463 16.4401 37.7295 18.5059 35.9503C20.9974 33.8041 23.1219 34.4932 25.8945 33.6972C26.2238 34.8937 26.9248 35.9546 27.8963 36.7267C28.8678 37.4988 30.0596 37.9422 31.2996 37.9928C33.3645 38.112 34.4345 36.0471 34.8162 35.094C36.1547 35.8966 37.43 36.8002 38.631 37.7969C40.0471 39.0465 43.8541 44.2681 44.6531 45.3722C43.2316 47.6121 39.2945 49.3526 37.9427 49.9ZM60.7591 58.6397C60.6938 58.5966 60.6171 58.5743 60.539 58.5757C60.4608 58.5771 60.3849 58.602 60.3212 58.6474C60.2575 58.6927 60.2091 58.7563 60.1822 58.8297C60.1553 58.9031 60.1513 58.9829 60.1706 59.0586C60.2471 59.3413 60.3834 59.6043 60.5704 59.8297C60.7575 60.055 60.9908 60.2375 61.2546 60.3648C60.8515 60.4995 60.4201 60.5262 60.0034 60.4422C58.65 60.2006 58.8265 59.0152 57.875 57.5264C56.8336 55.8966 50.7937 54.619 48.8255 53.8324C46.6669 52.9722 44.9868 52.057 44.4417 51.4431C43.9392 50.8771 42.6609 49.3673 42.0841 48.6836C43.1633 48.0436 44.1294 47.2298 44.9434 46.2749C46.2195 47.8257 47.9464 48.941 49.8847 49.4664C51.1692 49.8752 51.4332 49.893 54.6495 52.7477C55.3521 53.4091 56.0956 54.0259 56.8754 54.5943C58.5709 55.457 60.3391 56.1685 62.1597 56.7204C63.1662 57.0339 63.3017 57.7455 63.4759 58.6784C63.6377 59.5448 65.3241 61.0329 66.0588 62.0488C64.9408 61.561 63.6122 60.5382 60.7591 58.6397Z" fill="black"/>
<path fill-rule="evenodd" clip-rule="evenodd" d="M58.1655 76.566L59.1721 92.0681L107.921 95.0521L126.451 82.4201V69.7131L107.444 81.0311L58.1655 76.566Z" fill="white"/>
<path fill-rule="evenodd" clip-rule="evenodd" d="M58.2397 76.5557L89.7897 66.6941L126.582 69.9165L107.272 81.0263L58.2397 76.5557Z" fill="#81F8F8"/>
<path fill-rule="evenodd" clip-rule="evenodd" d="M107.445 118.275L121.382 107.476L126.463 106.245L126.582 115.786L107.445 131.683L62.5681 124.783L61.0273 109.59L107.445 118.275Z" fill="white"/>
<path fill-rule="evenodd" clip-rule="evenodd" d="M71.0119 92.9082L65.9165 92.583L66.4399 100.952L82.0867 116.999L126.463 106.245L126.582 93.029L81.6795 101.677L71.0119 92.9082Z" fill="white"/>
<path d="M126.795 92.525L117.958 88.7311C127.332 82.2669 126.844 82.7005 126.844 82.4063C126.844 68.6246 126.911 69.58 126.715 69.4081C126.553 69.2657 89.676 66.3011 89.5769 66.332C56.2299 76.8618 57.9789 76.189 57.8543 76.3973C57.7296 76.6056 57.7482 75.884 58.7834 92.1192C58.7896 92.2132 58.8298 92.3016 58.8965 92.368C58.9632 92.4344 59.0518 92.4742 59.1457 92.48L65.4737 92.8749C65.9119 101.71 65.8345 100.964 65.98 101.111L69.5199 104.725L60.8483 109.241C60.7795 109.277 60.723 109.332 60.6862 109.401C60.6493 109.469 60.6338 109.546 60.6416 109.624L62.1823 124.817C62.1911 124.902 62.228 124.982 62.2871 125.044C62.3462 125.106 62.4243 125.147 62.5091 125.16C109.192 132.415 107.486 132.188 107.694 132.013C128.071 114.911 126.94 115.94 126.94 115.776C126.94 91.2281 127.02 92.621 126.795 92.525ZM115.16 89.7183L114.342 77.2962L119.867 74.0351L120.754 85.861L115.16 89.7183ZM99.125 75.4643L83.938 74.1613L91.1897 71.1068L105.875 72.4099L99.125 75.4643ZM107.444 72.5485L119.111 73.5837L113.792 76.7233L100.702 75.5998L107.444 72.5485ZM97.681 76.1178L91.0998 79.0956L75.4755 77.7244L82.405 74.8062L97.681 76.1178ZM90.3697 79.8086L90.0871 93.6352L73.7133 92.6148L74.0787 78.3794L90.3697 79.8086ZM81.7848 116.139L74.894 109.089V96.5456L81.2297 101.656L81.7848 116.139ZM74.1197 95.9208V108.3L69.7065 103.857V93.1389L70.7788 93.2086L74.1197 95.9208ZM77.7285 113.109C82.158 117.631 81.8514 117.388 82.0829 117.388C82.1603 117.388 81.6184 117.512 90.1746 115.439L90.8134 115.558V128.759L75.4236 126.377L74.7151 112.543L77.7285 113.109ZM82.5691 116.485L82.0078 101.783L97.4928 98.9133L97.7112 112.817L82.5691 116.485ZM90.8536 93.6848C91.1587 78.7921 91.0859 79.9496 91.2268 79.8861L107.065 81.2797L107.574 94.7308L90.8536 93.6848ZM107.345 80.5225L92.6739 79.2341L99.255 76.2533L112.64 77.4023L107.345 80.5225ZM113.585 77.7391L114.407 90.2316L108.335 94.4195L107.831 81.1349L113.585 77.7391ZM126.059 82.2011L121.482 85.3531L120.6 73.5976L126.059 70.3721V82.2011ZM125.207 69.9803C120.092 72.9999 120.302 72.9271 120.225 72.9054L108.872 71.8989L114.955 69.1457L125.207 69.9803ZM98.9453 67.8418L113.374 69.0164L107.313 71.7595L92.7165 70.465L98.9453 67.8418ZM89.7387 67.0923L97.2737 67.7055L91.0681 70.3186L82.0202 69.5157L89.7387 67.0923ZM80.0892 70.122L89.542 70.9605L82.2803 74.0188L70.8152 73.0347L80.0892 70.122ZM68.8726 73.6448L80.7504 74.6637L73.8271 77.5796L60.1615 76.3803L68.8726 73.6448ZM66.6389 100.678L66.2518 92.926L68.933 93.0909V103.06L66.6389 100.678ZM59.5359 91.7313L58.5983 77.0206L73.3045 78.3112L72.9375 92.5668L59.5359 91.7313ZM61.4623 110.062L73.9277 112.395L74.6369 126.254L62.9179 124.443L61.4623 110.062ZM107.057 131.268L91.5899 128.877V115.701L107.057 118.596V131.268ZM98.4808 112.628L98.2632 98.7685L110.697 96.4636L110.933 109.61L98.4808 112.628ZM107.831 130.891V118.465L114.056 113.664V125.651L107.831 130.891ZM114.828 125.002V113.065L120.146 108.923L120.585 120.201L114.828 125.002ZM126.074 115.598L121.334 119.571L120.898 108.34L121.55 107.834L126.074 106.738V115.598ZM126.074 105.94L111.7 109.424L111.468 96.3203L126.244 93.581L126.074 105.94Z" fill="black"/>
<path fill-rule="evenodd" clip-rule="evenodd" d="M116.421 52.6441C116.421 52.6441 128.406 49.3759 137.676 62.1433C145.564 73.0084 137.836 87.1973 137.836 87.1973L132.623 85.9748L132.87 100.772L150.151 90.443L142.555 88.1474C142.555 88.1474 148.226 71.8672 143.008 62.0195C136.009 48.8092 119.084 49.6067 119.084 49.6067L116.421 52.6441Z" fill="white"/>
<path fill-rule="evenodd" clip-rule="evenodd" d="M98.0271 137.436C98.0271 137.436 93.7053 148.544 78.1753 147.888C64.9596 147.333 57.5802 132.74 57.5802 132.74L61.2966 131.186L50.1753 120.886L51.0858 138.375L54.46 134.844C54.46 134.844 64.8032 149.272 75.6745 151.157C90.4085 153.712 98.9067 141.299 98.9067 141.299L98.0271 137.436Z" fill="white"/>
<path d="M132.87 101.159C132.768 101.159 132.67 101.119 132.598 101.048C132.526 100.976 132.484 100.879 132.483 100.778C132.218 84.7506 132.161 85.85 132.381 85.6735C132.586 85.5071 132.31 85.504 137.629 86.7513C138.61 84.7816 144.436 72.1117 137.363 62.3709C128.368 49.9829 116.642 52.9854 116.523 53.0179C116.443 53.0397 116.358 53.035 116.28 53.0047C116.203 52.9743 116.137 52.9198 116.093 52.8493C116.049 52.7788 116.029 52.696 116.036 52.6131C116.043 52.5303 116.076 52.4518 116.131 52.3892C118.991 49.1374 118.83 49.2311 119.063 49.221C119.233 49.2078 136.318 48.5644 143.351 61.8374C148.205 70.9991 143.893 85.3158 143.05 87.8933L150.263 90.072C150.335 90.0938 150.399 90.1359 150.447 90.1933C150.495 90.2506 150.526 90.3206 150.535 90.395C150.544 90.4693 150.532 90.5447 150.499 90.612C150.466 90.6794 150.414 90.7357 150.35 90.7743C131.851 101.832 133.035 101.159 132.87 101.159ZM133.019 86.4664L133.245 100.093L149.2 90.5567C141.857 88.3377 142.317 88.5305 142.21 88.3199C142.187 88.2736 142.173 88.2229 142.169 88.1711C142.166 88.1192 142.173 88.0671 142.19 88.0179C142.245 87.8561 147.743 71.7811 142.666 62.1974C136.225 50.0417 121 49.941 119.261 49.9867L117.443 52.0617C120.687 51.6165 130.322 51.3541 137.988 61.9125C145.929 72.8496 138.253 87.2352 138.175 87.38C138.135 87.455 138.071 87.5145 137.993 87.5492C137.916 87.5838 137.829 87.5916 137.746 87.5712L133.019 86.4664Z" fill="black"/>
<path d="M79.5968 151.891C78.2609 151.889 76.9276 151.773 75.6118 151.542C65.5635 149.8 56.1688 137.789 54.4213 135.449L51.3653 138.647C51.313 138.702 51.2459 138.74 51.1723 138.756C51.0987 138.773 51.0218 138.768 50.951 138.742C50.8803 138.715 50.8188 138.669 50.7741 138.608C50.7294 138.547 50.7034 138.475 50.6995 138.399L49.7882 120.907C49.784 120.83 49.8029 120.753 49.8426 120.687C49.8822 120.621 49.9408 120.568 50.0107 120.535C50.0806 120.502 50.1587 120.491 50.2349 120.503C50.3111 120.515 50.3821 120.55 50.4385 120.602L61.5552 130.908C61.6028 130.952 61.6385 131.008 61.6591 131.069C61.6797 131.131 61.6846 131.196 61.6732 131.26C61.6619 131.324 61.6348 131.384 61.5943 131.434C61.5538 131.485 61.5012 131.524 61.4414 131.549L58.1222 132.939C59.3811 135.185 66.5236 147.013 78.1954 147.504C93.243 148.144 97.6292 137.404 97.6702 137.295C97.7004 137.218 97.7545 137.153 97.8245 137.109C97.8946 137.065 97.9769 137.044 98.0594 137.05C98.1419 137.056 98.2203 137.089 98.2831 137.143C98.3458 137.197 98.3896 137.269 98.4081 137.35C99.3805 141.609 99.3666 141.322 99.2334 141.518C99.1513 141.633 91.9709 151.891 79.5968 151.891ZM54.46 134.456C54.5215 134.456 54.5821 134.471 54.6367 134.499C54.6914 134.527 54.7386 134.568 54.7743 134.618C54.8773 134.761 65.1493 148.941 75.7442 150.776C89.2409 153.115 97.5161 142.542 98.494 141.215L97.8909 138.578C96.3532 141.339 90.9899 148.798 78.1591 148.279C64.8698 147.72 57.3069 133.066 57.2326 132.918C57.2084 132.87 57.1944 132.818 57.1913 132.765C57.1882 132.711 57.1962 132.658 57.2148 132.608C57.2922 132.389 57.1939 132.483 60.5874 131.059L50.6112 121.819L51.4257 137.459C54.3795 134.367 54.2231 134.456 54.46 134.456Z" fill="black"/>
<path fill-rule="evenodd" clip-rule="evenodd" d="M109.784 4.4802C110.845 4.36793 111.914 4.36793 112.974 4.4802L113.247 8.34061C114.142 8.48992 115.016 8.7465 115.85 9.1048L118.167 6.00779C119.12 6.48663 120.019 7.06458 120.851 7.73205L118.992 11.1279C119.664 11.7374 120.261 12.4255 120.768 13.1774L124.394 11.8224C124.936 12.7399 125.381 13.7124 125.718 14.7235L122.321 16.5763C122.557 17.4524 122.687 18.3536 122.708 19.2607L126.49 20.0806C126.45 21.1461 126.298 22.2044 126.036 23.238L122.176 22.9593C121.901 23.8238 121.523 24.652 121.05 25.426L123.788 28.1607C123.178 29.0359 122.478 29.844 121.698 30.5717L118.601 28.2489C117.901 28.8266 117.135 29.3184 116.319 29.7138L117.144 33.4953C116.159 33.9018 115.133 34.2029 114.084 34.3934L112.734 30.7668C111.834 30.875 110.924 30.875 110.024 30.7668L108.674 34.3934C107.625 34.2029 106.599 33.9018 105.614 33.4953L106.439 29.7138C105.623 29.318 104.857 28.8259 104.158 28.2482L101.061 30.5709C100.281 29.8429 99.5805 29.0347 98.9702 28.1599L101.709 25.4252C101.236 24.6511 100.858 23.8229 100.582 22.9585L96.7226 23.2372C96.4604 22.2037 96.3081 21.1453 96.2681 20.0798L100.05 19.2599C100.072 18.3529 100.202 17.4517 100.437 16.5756L97.0392 14.7228C97.3776 13.7117 97.8219 12.7393 98.3647 11.8216L101.99 13.1766C102.498 12.4249 103.094 11.7369 103.765 11.1271L101.907 7.73128C102.738 7.06346 103.638 6.48549 104.59 6.00702L106.908 9.10403C107.742 8.74572 108.616 8.48915 109.512 8.33984L109.784 4.4802ZM111.379 14.4131C110.37 14.4131 109.383 14.7124 108.544 15.2731C107.705 15.8338 107.051 16.6308 106.664 17.5633C106.278 18.4958 106.177 19.5218 106.374 20.5117C106.571 21.5016 107.057 22.4109 107.771 23.1246C108.484 23.8383 109.394 24.3243 110.384 24.5212C111.373 24.7181 112.4 24.617 113.332 24.2308C114.264 23.8446 115.061 23.1905 115.622 22.3513C116.183 21.5121 116.482 20.5255 116.482 19.5162C116.482 18.1627 115.944 16.8648 114.986 15.9079C114.029 14.9509 112.731 14.4133 111.378 14.4131H111.379Z" fill="#FFD997"/>
<path fill-rule="evenodd" clip-rule="evenodd" d="M83.9468 22.483C84.6695 22.4126 85.3974 22.4126 86.1201 22.483L86.4778 24.2251C87.1706 24.3308 87.8495 24.5126 88.5025 24.7671L89.684 23.4369C90.3447 23.7365 90.9748 24.0995 91.5654 24.5208L91.0049 26.2087C91.5517 26.6468 92.0487 27.1438 92.4868 27.6906L94.1746 27.1293C94.5959 27.7202 94.9589 28.3506 95.2586 29.0115L93.9284 30.1922C94.1829 30.8452 94.3647 31.5242 94.4704 32.2169L96.2132 32.5746C96.2829 33.2974 96.2829 34.0252 96.2132 34.7479L94.4704 35.1056C94.3647 35.7984 94.1829 36.4774 93.9284 37.1303L95.2586 38.3118C94.9587 38.9724 94.5957 39.6025 94.1746 40.1932L92.4868 39.6319C92.0487 40.1788 91.5517 40.6757 91.0049 41.1138L91.5654 42.8025C90.9747 43.2236 90.3446 43.5866 89.684 43.8864L88.5025 42.5663C87.8495 42.8208 87.1706 43.0026 86.4778 43.1083L86.1201 44.8504C85.3974 44.9208 84.6695 44.9208 83.9468 44.8504L83.5891 43.1083C82.8966 43.0026 82.2178 42.8208 81.5652 42.5663L80.3837 43.8965C79.7227 43.5968 79.0924 43.2338 78.5015 42.8125L79.0628 41.1239C78.5155 40.686 78.0183 40.189 77.5801 39.642L75.8922 40.2033C75.4714 39.6124 75.1084 38.9823 74.8083 38.3219L76.1384 37.1404C75.8843 36.4873 75.7026 35.8084 75.5965 35.1157L73.8552 34.758C73.784 34.0353 73.784 33.3074 73.8552 32.5847L75.5965 32.227C75.7026 31.5343 75.8843 30.8554 76.1384 30.2023L74.806 29.0169C75.1059 28.3561 75.4689 27.7258 75.8899 27.1347L77.5778 27.6961C78.0159 27.149 78.5132 26.652 79.0605 26.2141L78.5046 24.5263C79.0953 24.1047 79.7257 23.7417 80.3868 23.4423L81.5683 24.7725C82.2218 24.5181 82.9013 24.3363 83.5945 24.2305L83.9468 22.483ZM85.0307 31.4179C84.5866 31.4179 84.1525 31.5496 83.7833 31.7963C83.414 32.043 83.1263 32.3937 82.9563 32.804C82.7864 33.2142 82.7419 33.6657 82.8285 34.1012C82.9152 34.5368 83.129 34.9369 83.443 35.2509C83.7571 35.5649 84.1571 35.7788 84.5927 35.8654C85.0282 35.952 85.4797 35.9076 85.89 35.7376C86.3003 35.5677 86.6509 35.2799 86.8976 34.9106C87.1444 34.5414 87.2761 34.1073 87.2761 33.6632C87.2763 33.0681 87.0402 32.4973 86.6198 32.0761C86.1994 31.655 85.6289 31.4179 85.0338 31.4171L85.0307 31.4179Z" fill="#FFD997"/>
<path d="M111.378 14.0259C110.292 14.026 109.231 14.3482 108.328 14.9515C107.425 15.5549 106.722 16.4124 106.306 17.4156C105.891 18.4188 105.782 19.5227 105.994 20.5877C106.206 21.6526 106.729 22.6308 107.497 23.3985C108.265 24.1663 109.243 24.6891 110.308 24.9009C111.373 25.1127 112.477 25.0039 113.48 24.5883C114.483 24.1728 115.341 23.4691 115.944 22.5662C116.547 21.6634 116.869 20.6019 116.869 19.5161C116.867 18.0604 116.288 16.6649 115.259 15.6357C114.229 14.6065 112.834 14.0275 111.378 14.0259ZM111.378 24.2321C110.445 24.2319 109.534 23.9552 108.758 23.4369C107.983 22.9186 107.379 22.182 107.022 21.3203C106.665 20.4585 106.572 19.5103 106.754 18.5956C106.936 17.6808 107.385 16.8406 108.044 16.1811C108.704 15.5217 109.544 15.0726 110.459 14.8907C111.374 14.7088 112.322 14.8022 113.184 15.1592C114.045 15.5161 114.782 16.1206 115.3 16.8961C115.818 17.6716 116.095 18.5834 116.095 19.5161C116.093 20.7664 115.595 21.965 114.711 22.849C113.827 23.7331 112.628 24.2304 111.378 24.2321Z" fill="black"/>
<path d="M126.57 19.6995L123.086 18.943C123.051 18.2103 122.947 17.4824 122.777 16.7689L125.909 15.0594C125.989 15.0158 126.052 14.9453 126.085 14.8603C126.118 14.7753 126.12 14.6813 126.091 14.5948C125.744 13.5577 125.289 12.5601 124.732 11.6186C124.686 11.5403 124.614 11.4807 124.528 11.4504C124.442 11.4201 124.348 11.421 124.263 11.4529L120.921 12.7026C120.494 12.1061 120.012 11.5506 119.482 11.0434L121.195 7.91228C121.239 7.83256 121.253 7.73999 121.235 7.6508C121.217 7.56161 121.169 7.4815 121.098 7.42451C120.245 6.7395 119.323 6.14648 118.346 5.65534C118.264 5.61449 118.171 5.60351 118.083 5.62432C117.994 5.64512 117.916 5.6964 117.862 5.76916L115.725 8.62924C115.043 8.35709 114.338 8.14971 113.617 8.00984L113.366 4.44828C113.359 4.3576 113.321 4.27207 113.258 4.20667C113.195 4.14127 113.111 4.10017 113.02 4.09058C111.933 3.97599 110.836 3.97599 109.749 4.09058C109.659 4.10017 109.574 4.14127 109.511 4.20667C109.448 4.27207 109.41 4.3576 109.404 4.44828L109.151 8.00984C108.431 8.14983 107.725 8.35721 107.044 8.62924L104.907 5.76916C104.852 5.6964 104.774 5.64512 104.686 5.62432C104.597 5.60351 104.504 5.61449 104.423 5.65534C103.446 6.14685 102.524 6.73984 101.671 7.42451C101.6 7.4815 101.552 7.56161 101.534 7.6508C101.517 7.73999 101.531 7.83256 101.574 7.91228L103.281 11.0465C102.751 11.5537 102.27 12.1092 101.843 12.7057L98.4999 11.456C98.4148 11.4243 98.3213 11.4235 98.2356 11.4538C98.15 11.4841 98.0777 11.5435 98.0315 11.6217C97.4749 12.563 97.0192 13.5603 96.6719 14.5972C96.6426 14.6836 96.6448 14.7777 96.6781 14.8627C96.7114 14.9477 96.7736 15.0182 96.8539 15.0617L99.9873 16.7713C99.8164 17.4847 99.7127 18.2126 99.6776 18.9454L96.1888 19.7018C96.1002 19.7212 96.0213 19.771 95.9657 19.8426C95.9101 19.9142 95.8813 20.003 95.8845 20.0936C95.9246 21.1865 96.0804 22.2721 96.3491 23.3323C96.3723 23.4199 96.4252 23.4968 96.4988 23.5499C96.5723 23.603 96.6619 23.6289 96.7524 23.6234L100.314 23.3656C100.554 24.0589 100.86 24.728 101.226 25.3639L98.6997 27.8864C98.6354 27.9508 98.5958 28.0357 98.5879 28.1263C98.58 28.2169 98.6042 28.3074 98.6563 28.3819C99.2819 29.2785 100 30.1069 100.799 30.8534C100.865 30.9154 100.951 30.9521 101.042 30.9571C101.133 30.962 101.222 30.9349 101.295 30.8805L104.15 28.7389C104.728 29.1917 105.347 29.5896 105.999 29.9273L105.237 33.4115C105.218 33.5004 105.231 33.5932 105.274 33.6736C105.316 33.754 105.386 33.8169 105.47 33.8513C106.481 34.2676 107.533 34.5764 108.609 34.7726C108.698 34.7877 108.79 34.7715 108.868 34.7268C108.947 34.682 109.008 34.6116 109.041 34.5272L110.286 31.1824C111.016 31.2505 111.752 31.2505 112.482 31.1824L113.727 34.5272C113.755 34.601 113.804 34.6647 113.869 34.7097C113.934 34.7546 114.011 34.7787 114.089 34.7788C115.19 34.5906 116.266 34.279 117.297 33.8497C117.381 33.8154 117.451 33.7525 117.493 33.6721C117.536 33.5916 117.549 33.4988 117.529 33.4099L116.769 29.9258C117.419 29.5877 118.036 29.1895 118.611 28.7365L121.467 30.8781C121.54 30.9326 121.63 30.9597 121.72 30.9547C121.811 30.9498 121.897 30.9131 121.964 30.851C122.762 30.1045 123.48 29.2762 124.105 28.3796C124.157 28.3051 124.182 28.2146 124.174 28.124C124.166 28.0334 124.126 27.9484 124.062 27.8841L121.536 25.3616C121.902 24.7255 122.207 24.0564 122.448 23.3632L126.01 23.6211C126.101 23.6277 126.191 23.6021 126.265 23.5489C126.338 23.4956 126.391 23.4181 126.413 23.33C126.681 22.2697 126.837 21.1841 126.878 20.0913C126.881 20.0002 126.852 19.911 126.795 19.8394C126.739 19.7677 126.66 19.7182 126.57 19.6995ZM125.734 22.8228L122.201 22.5673C122.115 22.561 122.028 22.584 121.956 22.6327C121.884 22.6815 121.831 22.7531 121.804 22.836C121.096 25.0581 120.361 25.2826 120.773 25.6945L123.279 28.1977C122.794 28.8609 122.254 29.4825 121.666 30.0559L118.832 27.9313C118.762 27.8793 118.677 27.8522 118.59 27.8544C118.503 27.8567 118.419 27.8881 118.353 27.9437C116.56 29.4272 115.816 29.2236 115.94 29.7903L116.695 33.2504C115.928 33.5484 115.137 33.7815 114.331 33.9473L113.092 30.6273C113.062 30.5459 113.005 30.477 112.931 30.4318C112.857 30.3866 112.77 30.3676 112.683 30.378C110.354 30.6582 109.861 30.0799 109.655 30.6273L108.42 33.9473C107.613 33.7815 106.822 33.5484 106.055 33.2504L106.811 29.7903C106.829 29.7053 106.819 29.6165 106.781 29.5383C106.743 29.46 106.679 29.3969 106.601 29.359C104.498 28.3417 104.383 27.5783 103.919 27.9313L101.085 30.0559C100.496 29.4825 99.9563 28.861 99.4708 28.1977L101.978 25.6945C102.039 25.633 102.078 25.5526 102.089 25.4662C102.099 25.3799 102.08 25.2925 102.034 25.2183C100.822 23.2347 101.122 22.5154 100.549 22.5673L97.0172 22.8228C96.8324 22.0208 96.7148 21.2047 96.6657 20.3832L100.127 19.6337C100.212 19.6153 100.289 19.5689 100.344 19.5019C100.399 19.4349 100.43 19.3512 100.432 19.2644C100.487 16.9284 101.129 16.5088 100.617 16.2316L97.512 14.5383C97.7902 13.764 98.1325 13.0142 98.5355 12.2969L101.852 13.5357C101.934 13.5662 102.023 13.5683 102.106 13.5418C102.189 13.5152 102.261 13.4615 102.309 13.3893C103.618 11.4537 104.383 11.4475 104.104 10.9365L102.404 7.83021C103.057 7.32892 103.75 6.88319 104.477 6.49773L106.598 9.33536C106.65 9.40521 106.724 9.45538 106.809 9.47773C106.893 9.50007 106.982 9.49328 107.062 9.45846C109.203 8.53865 109.857 8.94359 109.898 8.366L110.148 4.83309C110.968 4.76418 111.792 4.76418 112.612 4.83309L112.862 8.366C112.868 8.45267 112.903 8.53478 112.962 8.5991C113.02 8.66342 113.099 8.70622 113.184 8.7206C115.495 9.10773 115.809 9.80455 116.161 9.33536L118.281 6.49773C119.008 6.88329 119.701 7.32901 120.354 7.83021L118.654 10.9365C118.612 11.0126 118.597 11.1006 118.611 11.1865C118.625 11.2723 118.668 11.3509 118.732 11.4096C120.456 12.9751 120.358 13.737 120.9 13.5357L124.218 12.2969C124.621 13.0142 124.964 13.764 125.242 14.5383L122.132 16.2347C122.056 16.2762 121.996 16.3421 121.962 16.4219C121.928 16.5017 121.921 16.5906 121.943 16.6745C122.549 18.9198 122.054 19.5137 122.621 19.6368L126.083 20.387C126.035 21.2072 125.918 22.022 125.734 22.8228Z" fill="black"/>
<path d="M96.6017 32.5421C96.5938 32.4593 96.5594 32.3811 96.5037 32.3194C96.4479 32.2576 96.3737 32.2154 96.292 32.1991L94.8093 31.8949C94.7116 31.3558 94.5697 30.8257 94.385 30.31L95.5162 29.3034C95.5781 29.2485 95.6207 29.1752 95.6379 29.0942C95.655 29.0132 95.6457 28.9289 95.6114 28.8536C95.3006 28.1697 94.9241 27.5175 94.4872 26.9064C94.4391 26.8393 94.3707 26.7893 94.2922 26.7638C94.2136 26.7383 94.1289 26.7386 94.0506 26.7647L92.6143 27.2416C92.2598 26.8232 91.8714 26.4347 91.4529 26.0802L91.9299 24.6432C91.9559 24.5648 91.956 24.4801 91.9304 24.4015C91.9048 24.3229 91.8547 24.2546 91.7874 24.2066C91.1767 23.7705 90.5254 23.3943 89.8425 23.0831C89.7672 23.0488 89.6829 23.0396 89.6019 23.0567C89.521 23.0738 89.4476 23.1165 89.3927 23.1783L88.3861 24.3103C87.8703 24.125 87.3399 23.9828 86.8005 23.8852L86.4954 22.4025C86.4792 22.321 86.4371 22.2469 86.3755 22.1911C86.3139 22.1353 86.2359 22.1009 86.1532 22.0928C85.4064 22.0224 84.6547 22.0224 83.9079 22.0928C83.8251 22.1009 83.7472 22.1353 83.6856 22.1911C83.6239 22.2469 83.5819 22.321 83.5656 22.4025L83.2606 23.8852C82.7215 23.9829 82.1913 24.1251 81.6757 24.3103L80.673 23.1807C80.6181 23.1188 80.5447 23.0762 80.4638 23.059C80.3828 23.0419 80.2985 23.0511 80.2232 23.0854C79.5396 23.3962 78.8878 23.7724 78.2767 24.2089C78.2093 24.257 78.1591 24.3254 78.1335 24.4041C78.1078 24.4829 78.1081 24.5678 78.1343 24.6463L78.612 26.0826C78.1934 26.4369 77.8049 26.8253 77.4506 27.2439L76.0144 26.767C75.936 26.7409 75.8513 26.7406 75.7728 26.7661C75.6942 26.7916 75.6258 26.8416 75.5777 26.9087C75.1411 27.52 74.7646 28.1722 74.4535 28.8559C74.4192 28.9312 74.4099 29.0156 74.4271 29.0965C74.4442 29.1775 74.4868 29.2508 74.5487 29.3058L75.6799 30.3123C75.4946 30.8272 75.3519 31.3565 75.2533 31.8949L73.7714 32.1999C73.69 32.2161 73.6159 32.258 73.5601 32.3195C73.5044 32.381 73.4699 32.4588 73.4617 32.5414C73.3891 33.288 73.3891 34.04 73.4617 34.7867C73.4699 34.8693 73.5044 34.9471 73.5601 35.0085C73.6159 35.07 73.69 35.1119 73.7714 35.1281L75.2533 35.4355C75.3512 35.9748 75.4931 36.5051 75.6776 37.0212L74.5464 38.0277C74.4845 38.0827 74.4419 38.156 74.4247 38.237C74.4076 38.3179 74.4169 38.4022 74.4512 38.4776C74.7625 39.161 75.139 39.8128 75.5754 40.424C75.6234 40.4913 75.6917 40.5414 75.7703 40.567C75.8489 40.5926 75.9336 40.5925 76.012 40.5665L77.4483 40.0895C77.8028 40.508 78.1912 40.8964 78.6097 41.2509L78.1319 42.6856C78.1057 42.7641 78.1053 42.8489 78.1308 42.9276C78.1563 43.0064 78.2064 43.0749 78.2736 43.1231C78.8848 43.5599 79.537 43.9364 80.2209 44.2473C80.2962 44.2816 80.3805 44.2908 80.4615 44.2737C80.5424 44.2565 80.6158 44.2139 80.6707 44.152L81.6772 43.0209C82.1933 43.2056 82.7236 43.3478 83.2629 43.4459L83.568 44.9278C83.5842 45.0092 83.6261 45.0833 83.6876 45.139C83.749 45.1948 83.8268 45.2293 83.9094 45.2375C84.6561 45.3102 85.4081 45.3102 86.1547 45.2375C86.2373 45.2293 86.3151 45.1948 86.3766 45.139C86.4381 45.0833 86.48 45.0092 86.4962 44.9278L86.8012 43.4459C87.3406 43.348 87.8709 43.2058 88.3869 43.0209L89.3934 44.152C89.4483 44.2137 89.5215 44.2563 89.6023 44.2734C89.6831 44.2905 89.7673 44.2814 89.8425 44.2473C90.5261 43.9362 91.178 43.5597 91.789 43.1231C91.8561 43.0749 91.906 43.0066 91.9315 42.928C91.957 42.8494 91.9567 42.7648 91.9307 42.6864L91.4537 41.2509C91.872 40.8962 92.2604 40.5078 92.6151 40.0895L94.0513 40.5665C94.1298 40.5925 94.2145 40.5926 94.2931 40.567C94.3717 40.5414 94.44 40.4913 94.488 40.424C94.9247 39.813 95.3012 39.1611 95.6122 38.4776C95.6465 38.4022 95.6558 38.3179 95.6386 38.237C95.6215 38.156 95.5789 38.0827 95.517 38.0277L94.3858 37.0212C94.5703 36.5051 94.7122 35.9748 94.8101 35.4355L96.2928 35.1312C96.3743 35.115 96.4484 35.073 96.5042 35.0113C96.56 34.9497 96.5944 34.8717 96.6025 34.789C96.6742 34.0418 96.674 33.2893 96.6017 32.5421ZM95.8546 34.4313L94.3959 34.7302C94.3185 34.7462 94.2479 34.7855 94.1935 34.8428C94.1391 34.9001 94.1035 34.9726 94.0916 35.0507C93.6658 37.831 92.8327 36.6766 94.7884 38.4125C94.5649 38.872 94.309 39.3149 94.0227 39.738L92.6104 39.2688C92.5354 39.2439 92.4545 39.2425 92.3786 39.265C92.3028 39.2874 92.2356 39.3325 92.1862 39.3943C90.4255 41.5869 90.2854 40.177 91.1084 42.6531C90.6851 42.9391 90.2421 43.195 89.7829 43.4188L88.7926 42.3055C88.7401 42.2464 88.6708 42.2048 88.594 42.1862C88.5172 42.1677 88.4366 42.1731 88.3629 42.2017C85.7428 43.2245 86.3266 41.9245 85.8001 44.4857C85.2906 44.5221 84.779 44.5221 84.2694 44.4857L83.9698 43.0278C83.9539 42.9503 83.9147 42.8795 83.8574 42.825C83.8001 42.7704 83.7275 42.7348 83.6493 42.7228C80.8705 42.2938 82.0233 41.4677 80.2875 43.4196C79.8281 43.1959 79.3852 42.9401 78.9619 42.6539L79.4319 41.2416C79.457 41.1665 79.4585 41.0854 79.436 41.0094C79.4136 40.9334 79.3684 40.8661 79.3065 40.8166C77.1099 39.059 78.5322 38.9135 76.0469 39.7388C75.7605 39.3157 75.5046 38.8727 75.2812 38.4133L76.3945 37.4246C76.4535 37.372 76.4949 37.3027 76.5133 37.2258C76.5318 37.149 76.5262 37.0684 76.4975 36.9949C75.4786 34.3732 76.7739 34.957 74.2142 34.4313C74.1786 33.9214 74.1786 33.4097 74.2142 32.8998L75.6729 32.6002C75.7503 32.5844 75.821 32.5453 75.8756 32.4881C75.9301 32.431 75.9658 32.3585 75.978 32.2804C76.403 29.5009 77.2361 30.6545 75.2812 28.9194C75.5046 28.4597 75.7605 28.0165 76.0469 27.5931L77.4599 28.0623C77.5356 28.0872 77.617 28.0881 77.6933 28.065C77.7695 28.0418 77.8367 27.9958 77.8857 27.933C79.6448 25.7388 79.7904 27.1588 78.9643 24.6734C79.3877 24.3875 79.8306 24.1316 80.2898 23.9077L81.2785 25.0218C81.3311 25.0808 81.4004 25.1222 81.4772 25.1407C81.554 25.1591 81.6346 25.1535 81.7082 25.1248C84.3298 24.1051 83.746 25.4004 84.2718 22.8408C84.7814 22.8067 85.2928 22.8067 85.8025 22.8408L86.1021 24.3002C86.1181 24.3776 86.1574 24.4482 86.2147 24.5026C86.272 24.557 86.3445 24.5926 86.4226 24.6045C89.203 25.0296 88.0486 25.8642 89.7844 23.9077C90.2436 24.1321 90.6868 24.388 91.1107 24.6734L90.6408 26.088C90.616 26.1629 90.6147 26.2437 90.6371 26.3194C90.6596 26.3951 90.7046 26.4621 90.7662 26.5115C92.962 28.2683 91.5404 28.4154 94.025 27.5893C94.3114 28.0126 94.5673 28.4559 94.7907 28.9155L93.6774 29.9035C93.6183 29.9561 93.5767 30.0256 93.5583 30.1026C93.5399 30.1795 93.5455 30.2603 93.5744 30.334C94.5949 32.9548 93.2988 32.371 95.8577 32.896C95.8924 33.4072 95.8914 33.9202 95.8546 34.4313Z" fill="black"/>
<path d="M85.0333 31.03C84.5127 31.03 84.0037 31.1844 83.5708 31.4737C83.1379 31.7629 82.8005 32.1741 82.6013 32.6551C82.402 33.1361 82.3499 33.6654 82.4515 34.176C82.553 34.6867 82.8038 35.1558 83.1719 35.5239C83.5401 35.8921 84.0091 36.1428 84.5198 36.2444C85.0304 36.3459 85.5597 36.2938 86.0407 36.0946C86.5217 35.8953 86.9329 35.5579 87.2221 35.125C87.5114 34.6921 87.6658 34.1831 87.6658 33.6625C87.6644 32.9648 87.3865 32.296 86.8932 31.8026C86.3998 31.3093 85.7311 31.0315 85.0333 31.03ZM85.0333 35.5246C84.6658 35.5246 84.3066 35.4156 84.001 35.2114C83.6954 35.0072 83.4572 34.717 83.3166 34.3775C83.1759 34.0379 83.1391 33.6643 83.2108 33.3038C83.2825 32.9434 83.4595 32.6123 83.7194 32.3524C83.9793 32.0925 84.3104 31.9156 84.6708 31.8439C85.0313 31.7722 85.4049 31.809 85.7444 31.9496C86.084 32.0902 86.3742 32.3284 86.5784 32.634C86.7826 32.9396 86.8915 33.2988 86.8915 33.6664C86.8907 34.159 86.6947 34.6312 86.3464 34.9797C85.9981 35.3281 85.526 35.5243 85.0333 35.5253V35.5246Z" fill="black"/>
<path d="M35.286 27.2972C35.0277 27.2023 34.7498 27.1732 34.4774 27.2126C34.205 27.2519 33.9468 27.3584 33.7258 27.5225C33.6395 27.5782 33.5788 27.6659 33.5571 27.7663C33.5354 27.8667 33.5544 27.9716 33.6101 28.0579C33.6657 28.1443 33.7534 28.205 33.8538 28.2267C33.9542 28.2484 34.0591 28.2293 34.1455 28.1737C34.1985 28.1406 34.2535 28.1112 34.3104 28.0854C34.3068 28.1881 34.3442 28.288 34.4142 28.3631C34.4843 28.4383 34.5813 28.4825 34.684 28.4861C34.7867 28.4897 34.8865 28.4523 34.9617 28.3823C35.0368 28.3122 35.0811 28.2152 35.0847 28.1125V28.0181C35.17 28.0192 35.2534 27.9921 35.3218 27.9409C35.3901 27.8897 35.4397 27.8173 35.4626 27.7351C35.4856 27.6528 35.4807 27.5653 35.4488 27.4861C35.4168 27.4069 35.3596 27.3405 35.286 27.2972Z" fill="black"/>
<path d="M38.2754 26.8058C37.6374 26.4148 36.905 27.0899 36.8237 27.1681C36.7537 27.24 36.7143 27.3362 36.7139 27.4365C36.7134 27.5369 36.752 27.6334 36.8213 27.7059C36.8907 27.7784 36.9855 27.8211 37.0857 27.8251C37.1859 27.829 37.2838 27.7939 37.3587 27.7271C37.41 27.679 37.4654 27.6355 37.5244 27.5971C37.5498 27.6908 37.6096 27.7715 37.6918 27.8232C37.7741 27.8749 37.8727 27.8938 37.9682 27.8762C38.0638 27.8586 38.1491 27.8057 38.2075 27.728C38.2658 27.6503 38.2928 27.5536 38.2831 27.4569C38.3372 27.4212 38.3815 27.3725 38.4118 27.3153C38.4422 27.258 38.4577 27.194 38.457 27.1292C38.4562 27.0644 38.4392 27.0009 38.4074 26.9444C38.3757 26.8878 38.3303 26.8402 38.2754 26.8058Z" fill="black"/>
<path d="M34.4893 32.2686C34.3941 32.23 34.3181 32.1552 34.2781 32.0606C34.2381 31.966 34.2374 31.8594 34.276 31.7642C34.3146 31.669 34.3894 31.5931 34.484 31.5531C34.5786 31.5131 34.6852 31.5123 34.7804 31.5509C34.7959 31.5579 36.2236 32.1184 37.076 31.2908C37.1498 31.2196 37.2488 31.1807 37.3513 31.1824C37.4537 31.1842 37.5513 31.2265 37.6227 31.3001C38.2026 31.8955 36.3591 33.0212 34.4893 32.2686Z" fill="black"/>
<path d="M36.11 22.2238C36.0428 22.2237 35.9768 22.2063 35.9184 22.173C35.8601 22.1397 35.8113 22.0919 35.7771 22.0341C35.0773 20.9774 34.0897 20.1432 32.9309 19.63C32.8364 19.591 32.7612 19.5163 32.7216 19.422C32.682 19.3278 32.6813 19.2217 32.7197 19.127C32.758 19.0322 32.8322 18.9565 32.9262 18.9162C33.0202 18.876 33.1263 18.8746 33.2213 18.9123C34.5399 19.4844 35.6603 20.433 36.4422 21.6392C36.477 21.6979 36.4956 21.7648 36.4963 21.8331C36.4969 21.9013 36.4795 21.9685 36.4457 22.0279C36.412 22.0872 36.3632 22.1366 36.3042 22.171C36.2453 22.2054 36.1783 22.2236 36.11 22.2238Z" fill="white"/>
</svg>
