<svg width="155" height="154" viewBox="0 0 155 154" fill="none" xmlns="http://www.w3.org/2000/svg">
<path d="M148.885 35.7562L92.3833 15.2073C92.307 15.0171 92.1723 14.8559 91.9986 14.7471C91.8249 14.6382 91.6211 14.5872 91.4166 14.6015C91.2121 14.6157 91.0174 14.6944 90.8604 14.8263C90.7035 14.9581 90.5924 15.1364 90.5431 15.3354L34.8564 35.6013C34.7968 35.6234 34.7468 35.6656 34.7152 35.7208C34.6836 35.7759 34.6723 35.8404 34.6833 35.903C34.6944 35.9656 34.727 36.0224 34.7756 36.0633C34.8242 36.1043 34.8857 36.127 34.9492 36.1273L90.5761 15.902C90.648 16.0958 90.7801 16.2615 90.953 16.3748C91.1259 16.4882 91.3305 16.5432 91.5369 16.5319C91.7433 16.5206 91.9407 16.4435 92.1002 16.312C92.2597 16.1804 92.3728 16.0013 92.4232 15.8008L148.793 36.2814C148.857 36.2814 148.918 36.259 148.967 36.218C149.016 36.177 149.049 36.1202 149.06 36.0574C149.071 35.9947 149.059 35.9301 149.027 35.875C148.995 35.8199 148.945 35.7778 148.885 35.7562Z" fill="#4B1010"/>
<path d="M149.335 38.1018H34.2524V109.274H149.335V38.1018Z" fill="white"/>
<path d="M33.9419 35.6233H149.18C149.488 35.6233 149.783 35.7457 150.001 35.9635C150.219 36.1814 150.341 36.4768 150.341 36.7849C150.341 37.093 150.219 37.3885 150.001 37.6063C149.783 37.8242 149.488 37.9465 149.18 37.9465H33.9419C33.6338 37.9465 33.3384 37.8242 33.1205 37.6063C32.9027 37.3885 32.7803 37.093 32.7803 36.7849C32.7803 36.4768 32.9027 36.1814 33.1205 35.9635C33.3384 35.7457 33.6338 35.6233 33.9419 35.6233Z" fill="#FFE55D"/>
<path d="M150.613 36.7851C150.604 36.4079 150.45 36.0485 150.184 35.7817C149.917 35.5149 149.557 35.361 149.18 35.3521H33.9423C33.5652 35.3614 33.2061 35.5154 32.9393 35.7821C32.6726 36.0489 32.5186 36.408 32.5093 36.7851C32.5231 37.1641 32.6811 37.5235 32.951 37.7898C33.2209 38.0562 33.5824 38.2094 33.9615 38.2182V109.274C33.9662 109.347 33.9988 109.416 34.0527 109.466C34.1066 109.517 34.1776 109.545 34.2513 109.544H149.335C149.371 109.544 149.406 109.537 149.439 109.524C149.472 109.51 149.502 109.49 149.527 109.465C149.552 109.44 149.572 109.41 149.586 109.377C149.599 109.344 149.606 109.309 149.606 109.274V38.1476C149.894 38.0513 150.144 37.8688 150.325 37.6251C150.505 37.3813 150.605 37.0881 150.613 36.7851ZM149.064 109.002H34.5228V38.3723H149.064V109.002ZM149.18 37.6761H33.9423C33.706 37.6761 33.4794 37.5822 33.3123 37.4151C33.1452 37.248 33.0514 37.0214 33.0514 36.7851C33.0514 36.5488 33.1452 36.3222 33.3123 36.1551C33.4794 35.988 33.706 35.8941 33.9423 35.8941H149.18C149.356 35.8944 149.528 35.9468 149.675 36.0448C149.821 36.1427 149.935 36.2818 150.003 36.4445C150.07 36.6073 150.088 36.7863 150.054 36.9591C150.019 37.1318 149.935 37.2906 149.81 37.4154C149.643 37.5825 149.416 37.6761 149.18 37.6761Z" fill="#4B1010"/>
<path d="M107.879 99.2174C107.062 98.8509 106.487 98.5718 105.841 98.3563C105.774 98.3369 105.701 98.3442 105.639 98.3768C105.577 98.4094 105.53 98.4647 105.508 98.5312C105.486 98.5976 105.49 98.6701 105.52 98.7334C105.55 98.7967 105.604 98.8459 105.669 98.8708C105.932 98.9582 106.184 99.0579 106.436 99.1645H53.0311V52.6405C53.1592 53.0338 53.2581 53.4363 53.3263 53.8442C53.3403 53.9133 53.3806 53.9743 53.4386 54.0143C53.4967 54.0543 53.568 54.0702 53.6376 54.0587C53.7071 54.0472 53.7695 54.0091 53.8116 53.9525C53.8536 53.8959 53.8721 53.8252 53.863 53.7553C53.6947 52.8201 53.4012 51.9117 52.9905 51.0548C52.9679 51.0047 52.9305 50.9627 52.8835 50.9343C52.8364 50.906 52.7818 50.8926 52.727 50.896C52.6721 50.8994 52.6196 50.9195 52.5764 50.9534C52.5332 50.9874 52.5014 51.0337 52.4852 51.0862L51.71 53.5636C51.6924 53.6311 51.7014 53.7028 51.7352 53.7638C51.769 53.8249 51.825 53.8705 51.8916 53.8913C51.9582 53.9122 52.0303 53.9065 52.0928 53.8756C52.1554 53.8447 52.2036 53.7909 52.2276 53.7254L52.4906 52.882V99.4351C52.4904 99.4708 52.4974 99.5061 52.5111 99.539C52.5248 99.5719 52.5449 99.6018 52.5703 99.6268C52.6212 99.6776 52.6901 99.7063 52.762 99.7066H106.244L105.668 99.9059C105.608 99.927 105.557 99.9689 105.525 100.024C105.492 100.079 105.479 100.144 105.49 100.207C105.5 100.27 105.533 100.327 105.583 100.368C105.631 100.41 105.693 100.433 105.757 100.433C105.833 100.433 105.858 100.413 107.858 99.7211C107.896 99.7072 107.93 99.685 107.959 99.6562C107.987 99.6275 108.009 99.5928 108.022 99.5548C108.036 99.5167 108.04 99.4761 108.036 99.436C108.032 99.3958 108.019 99.357 107.999 99.3224C107.97 99.2762 107.928 99.2396 107.879 99.2174Z" fill="#4B1010"/>
<path d="M88.4624 66.4468H82.2671V99.361H88.4624V66.4468Z" fill="#FFE55D"/>
<path d="M88.4643 99.6323H82.2682C82.2145 99.6326 82.162 99.6167 82.1175 99.5868C82.0729 99.5568 82.0384 99.5142 82.0183 99.4644C82.0046 99.4316 81.9975 99.3965 81.9976 99.3609V66.4467C81.9976 66.3749 82.0261 66.3061 82.0768 66.2553C82.1276 66.2045 82.1964 66.176 82.2682 66.176H88.4643C88.536 66.1764 88.6046 66.2051 88.6553 66.2557C88.7059 66.3064 88.7346 66.375 88.735 66.4467V99.3609C88.7352 99.3965 88.7283 99.4318 88.7148 99.4647C88.7012 99.4976 88.6812 99.5275 88.656 99.5526C88.605 99.6033 88.5362 99.6319 88.4643 99.6323ZM82.5397 99.0903H88.1929V66.7181H82.5397V99.0903Z" fill="#4B1010"/>
<path d="M99.0718 85.8074H92.8765V99.3604H99.0718V85.8074Z" fill="white"/>
<path d="M99.0717 99.632H92.8764C92.8408 99.6321 92.8055 99.6251 92.7725 99.6114C92.7396 99.5977 92.7098 99.5776 92.6847 99.5523C92.6341 99.5013 92.6054 99.4324 92.605 99.3606V85.8075C92.6052 85.7357 92.6339 85.6668 92.6848 85.6161C92.7356 85.5654 92.8046 85.5369 92.8764 85.5369H99.0717C99.1073 85.5368 99.1426 85.5437 99.1756 85.5572C99.2085 85.5708 99.2384 85.5907 99.2636 85.6159C99.2888 85.641 99.3088 85.6709 99.3225 85.7038C99.3361 85.7367 99.3432 85.7719 99.3432 85.8075V99.3606C99.3433 99.3962 99.3363 99.4315 99.3226 99.4644C99.3089 99.4974 99.2888 99.5272 99.2634 99.5523C99.2383 99.5776 99.2085 99.5977 99.1756 99.6114C99.1427 99.6251 99.1074 99.6321 99.0717 99.632ZM93.1471 99.0899H98.8011V86.079H93.1471V99.0899Z" fill="#4B1010"/>
<path d="M67.3967 71.5967H61.2021C61.1301 71.5967 61.0611 71.6253 61.0102 71.6762C60.9593 71.7271 60.9307 71.7961 60.9307 71.8681V99.3599C60.9307 99.5102 61.0518 99.6313 61.2021 99.6313H67.3974C67.4693 99.6311 67.5381 99.6024 67.5889 99.5515C67.6396 99.5007 67.6681 99.4317 67.6681 99.3599V71.8681C67.6681 71.7961 67.6395 71.7271 67.5886 71.6762C67.5377 71.6253 67.4686 71.5967 67.3967 71.5967Z" fill="#4B1010"/>
<path d="M78.0069 54.3657H71.8115V99.2834H78.0069V54.3657Z" fill="#FFE55D"/>
<path d="M78.0073 99.5547H71.812C71.74 99.5545 71.6711 99.5258 71.6203 99.475C71.5694 99.4241 71.5407 99.3552 71.5405 99.2832V54.3625C71.5405 54.2905 71.5691 54.2215 71.62 54.1706C71.6709 54.1197 71.74 54.0911 71.812 54.0911H78.0073C78.043 54.0909 78.0784 54.0977 78.1114 54.1113C78.1444 54.1249 78.1744 54.1449 78.1997 54.1701C78.2249 54.1954 78.2449 54.2254 78.2585 54.2584C78.272 54.2914 78.2789 54.3268 78.2787 54.3625V99.2802C78.279 99.3527 78.2506 99.4224 78.1997 99.4742C78.1746 99.4996 78.1446 99.5196 78.1116 99.5332C78.0787 99.5476 78.0432 99.5549 78.0073 99.5547ZM72.0826 99.0126H77.7366V54.6362H72.0826V99.0126Z" fill="#4B1010"/>
<path d="M130.592 70.3965H121.453V74.5783H130.592V70.3965Z" fill="#FFE55D"/>
<path d="M130.592 74.8489H121.453C121.382 74.8485 121.313 74.8199 121.262 74.7692C121.212 74.7185 121.183 74.6499 121.183 74.5783V70.3964C121.182 70.3608 121.189 70.3256 121.203 70.2927C121.216 70.2597 121.236 70.2299 121.262 70.2047C121.313 70.154 121.381 70.1254 121.453 70.125H130.592C130.664 70.1252 130.733 70.1539 130.784 70.2048C130.834 70.2556 130.863 70.3246 130.863 70.3964V74.5783C130.863 74.6139 130.856 74.6492 130.843 74.6821C130.829 74.715 130.809 74.7449 130.784 74.77C130.733 74.8205 130.664 74.8489 130.592 74.8489ZM121.725 74.3068H130.321V70.6671H121.725V74.3068Z" fill="#4B1010"/>
<path d="M130.592 78.5278H121.453V82.7097H130.592V78.5278Z" fill="white"/>
<path d="M130.592 82.981H121.453C121.4 82.9812 121.347 82.9654 121.303 82.9354C121.258 82.9055 121.223 82.8629 121.203 82.8131C121.19 82.7803 121.183 82.7451 121.183 82.7096V78.5277C121.183 78.4557 121.211 78.3874 121.262 78.3361C121.313 78.2855 121.381 78.2571 121.453 78.2571H130.592C130.646 78.2568 130.698 78.2726 130.743 78.3024C130.787 78.3322 130.822 78.3746 130.842 78.4242C130.856 78.457 130.863 78.4922 130.863 78.5277V82.7096C130.863 82.7452 130.856 82.7805 130.843 82.8134C130.829 82.8463 130.809 82.8762 130.784 82.9013C130.733 82.9519 130.664 82.9806 130.592 82.981ZM121.725 82.4389H130.321V78.7992H121.725V82.4389Z" fill="#4B1010"/>
<path d="M130.592 53.939H121.455C121.383 53.939 121.314 53.9676 121.263 54.0185C121.212 54.0694 121.183 54.1384 121.183 54.2104V58.3915C121.183 58.541 121.304 58.6629 121.455 58.6629H130.592C130.664 58.6629 130.733 58.6343 130.784 58.5834C130.835 58.5325 130.863 58.4635 130.863 58.3915V54.2104C130.863 54.1384 130.835 54.0694 130.784 54.0185C130.733 53.9676 130.664 53.939 130.592 53.939Z" fill="#4B1010"/>
<path d="M130.592 62.2637H121.453V66.4455H130.592V62.2637Z" fill="#FFE55D"/>
<path d="M130.592 66.7171H121.453C121.418 66.7172 121.382 66.7103 121.349 66.6966C121.316 66.683 121.287 66.663 121.261 66.6378C121.236 66.6125 121.216 66.5826 121.203 66.5496C121.189 66.5166 121.182 66.4813 121.183 66.4457V62.2638C121.183 62.192 121.211 62.1232 121.262 62.0724C121.313 62.0217 121.381 61.9932 121.453 61.9932H130.592C130.628 61.9932 130.663 62.0002 130.696 62.0138C130.729 62.0274 130.758 62.0473 130.784 62.0724C130.809 62.0976 130.829 62.1274 130.842 62.1602C130.856 62.1931 130.863 62.2283 130.863 62.2638V66.4457C130.863 66.4813 130.856 66.5165 130.843 66.5495C130.829 66.5824 130.809 66.6122 130.784 66.6374C130.733 66.6882 130.664 66.7169 130.592 66.7171ZM121.725 66.175H130.321V62.5353H121.725V66.175Z" fill="#4B1010"/>
<path d="M18.8829 128.668L33.7525 38.0577C33.7567 38.0211 33.7683 37.9858 33.7866 37.9538C33.8048 37.9219 33.8294 37.8939 33.8588 37.8717C33.8881 37.8495 33.9217 37.8335 33.9574 37.8246C33.9932 37.8158 34.0303 37.8143 34.0667 37.8202C34.103 37.8261 34.1378 37.8393 34.1688 37.8591C34.1999 37.8788 34.2267 37.9047 34.2475 37.935C34.2683 37.9654 34.2827 37.9997 34.2899 38.0358C34.2971 38.0719 34.2968 38.1091 34.2892 38.1451L19.4181 128.756C19.4065 128.827 19.3672 128.89 19.3089 128.932C19.2505 128.974 19.1778 128.991 19.1068 128.98C19.0359 128.968 18.9724 128.929 18.9304 128.87C18.8884 128.812 18.8713 128.739 18.8829 128.668Z" fill="#FFE55D"/>
<path d="M21.6285 131.694C21.5624 131.691 21.4995 131.665 21.4516 131.619C21.4036 131.574 21.3739 131.512 21.3678 131.446C21.3619 131.38 21.3804 131.314 21.4198 131.261C21.4592 131.208 21.5168 131.171 21.5817 131.157L148.67 109.086C148.741 109.074 148.813 109.091 148.872 109.132C148.931 109.174 148.971 109.236 148.985 109.307C148.997 109.378 148.98 109.452 148.939 109.511C148.897 109.57 148.834 109.61 148.762 109.622L21.6285 131.694Z" fill="#FFE55D"/>
<path d="M26.6653 130.261L21.5281 130.378C21.4516 130.106 21.3191 129.852 21.139 129.633C20.9589 129.415 20.7352 129.236 20.4822 129.109C20.2294 128.981 19.9528 128.908 19.6701 128.893C19.3874 128.878 19.1047 128.922 18.8398 129.022C18.1866 129.284 18.044 129.478 16.8363 130.486L9.70096 130.648C9.55254 130.656 9.40727 130.694 9.27409 130.76C9.1409 130.826 9.02262 130.918 8.92654 131.032L5.41406 133.682C5.47387 133.671 22.9442 133.665 22.9442 133.665C23.1899 133.667 23.4248 133.766 23.5985 133.94C23.7722 134.114 23.871 134.348 23.8735 134.594V139.182C23.8735 139.182 26.9712 136.22 27.0487 136.143C27.3109 135.881 27.2281 136.121 27.6682 131.187C27.6707 131.058 27.6458 130.93 27.5952 130.811C27.5446 130.693 27.4695 130.586 27.3747 130.499C27.2799 130.411 27.1677 130.345 27.0454 130.304C26.9231 130.263 26.7936 130.248 26.6653 130.261Z" fill="#FFE55D"/>
<path d="M26.6559 129.99L21.7311 130.102C21.5067 129.533 21.0676 129.074 20.5083 128.825C19.949 128.576 19.3143 128.556 18.7408 128.77C18.0821 129.034 17.9809 129.18 16.7373 130.217L9.70311 130.377C9.31602 130.403 8.95476 130.581 8.69713 130.871L5.2989 133.435C5.03444 133.489 4.79807 133.636 4.63274 133.849C4.46741 134.063 4.38411 134.328 4.39797 134.598V138.628C4.40195 138.945 4.52973 139.248 4.75405 139.472C4.97838 139.697 5.28148 139.825 5.5987 139.829H22.9449C23.763 139.829 23.5897 139.835 24.2928 139.164L27.241 136.341C27.4434 136.13 27.5553 135.847 27.5523 135.554L27.9402 131.193C27.9433 131.028 27.9115 130.863 27.8471 130.71C27.7826 130.557 27.6869 130.42 27.5661 130.306C27.445 130.193 27.3013 130.106 27.1446 130.052C26.9878 129.997 26.8213 129.976 26.6559 129.99ZM17.948 129.914C19.0873 128.772 20.5449 129.007 21.1422 130.119L17.6045 130.2L17.948 129.914ZM26.8576 135.958L24.1456 138.551V134.599C24.1406 134.282 24.0125 133.98 23.7884 133.756C23.5643 133.532 23.2617 133.404 22.9449 133.399H6.24737L9.09048 131.252C9.24441 131.064 9.4666 130.945 9.70848 130.92L26.7004 130.53C26.7899 130.523 26.8798 130.534 26.9646 130.564C27.0494 130.593 27.1271 130.64 27.1927 130.701C27.2584 130.763 27.3105 130.837 27.3459 130.919C27.3813 131.002 27.3991 131.091 27.3981 131.18C26.9718 135.933 27.0385 135.775 26.8576 135.955V135.958Z" fill="#4B1010"/>
</svg>
