<svg width="155" height="155" viewBox="0 0 155 155" fill="none" xmlns="http://www.w3.org/2000/svg">
<path d="M17.6155 90.7762C11.2156 91.1082 7.81876 96.8828 8.35145 107.444C8.60621 112.802 12.6284 121.34 18.2795 121.772C23.2666 122.158 28.3156 117.99 28.2615 109.42C32.8097 108.734 37.3919 108.295 41.9878 108.108C42.2194 107.127 44.9986 101.592 44.9986 101.592C44.9986 101.592 31.2337 102.364 27.3891 102.65C27.0726 97.6239 23.699 90.452 17.6155 90.7762ZM19.893 115.998C11.8178 115.998 10.7061 97.3383 17.4766 96.2343C24.2471 95.1304 26.648 116.005 19.893 115.998Z" fill="#3D9CFB"/>
<path d="M98.9696 97.6243L64.2833 100.388C64.2833 100.388 67.3096 103.901 67.9967 105.877C75.7168 105.205 80.6653 104.835 80.7194 104.989C80.7734 105.144 81.6767 110.347 81.6767 110.347L85.1738 110.077L85.5444 107.112L88.3005 106.703V103.932C88.3005 103.932 91.4811 104.163 91.5352 104.155C91.5892 104.148 92.7009 108.07 92.8553 108.147C93.0097 108.224 96.3062 107.691 96.3062 107.691V102.92L99.5872 102.449L98.9696 97.6243Z" fill="#3D9CFB"/>
<path d="M85.1509 12.9114C89.3043 12.7338 89.5359 13.0967 89.976 14.0462C92.045 18.5779 97.5108 17.7055 106.744 18.2846C127.82 19.6278 115.367 12.9809 126.569 13.5676C137.609 14.1466 137.223 19.4966 137.424 21.8281C138.566 34.9522 132.483 64.3425 130.607 77.899C128.167 95.6551 124.871 112.037 121.999 129.068C121.358 132.835 117.768 134.927 106.327 133.7C105.215 133.576 105.185 135.058 106.914 135.429C112.719 136.672 122.802 136.255 123.643 130.882C127.187 108.285 132.236 85.2562 135.54 59.1546C140.257 21.9593 145.576 12.4713 124.685 11.5835C117.421 11.267 120.903 16.8177 114.039 16.5089C107.647 16.2156 93.9673 17.3273 92.099 14.0154C90.8329 11.4986 90.555 10.6185 84.9965 11.0277C76.875 11.7071 74.6516 15.7215 72.6444 24.4529C70.4674 34.0489 68.2826 49.6203 66.1596 58.7377C66.036 59.255 66.3371 59.888 66.8621 59.888C69.016 59.888 69.7185 47.8061 71.1081 42.8344C74.0263 32.5358 72.5749 13.4749 85.1509 12.9114Z" fill="#3D9CFB"/>
<path d="M112.789 98.3959C114.58 92.05 118.355 66.6124 117.383 63.5784C116.611 61.2624 114.511 60.1043 110.952 59.3401C112.125 51.6663 115.808 40.0013 111.415 34.713C109.871 32.8062 107.408 31.8489 104.166 31.8489C91.8755 31.8489 89.7834 36.2956 86.0854 56.7461C84.6733 56.5826 83.2425 56.757 81.911 57.2549C80.5795 57.7529 79.3854 58.5602 78.4271 59.6103C77.3695 60.8686 78.5352 62.0961 80.0947 60.6216C83.2908 57.5953 87.5754 58.4908 95.0484 59.3323C101.942 60.1043 114.974 60.7605 115.568 64.1574C115.97 66.4734 112.92 90.946 110.936 97.8786C110.056 101.013 108.62 102.295 102.197 102.217C100.514 102.418 101.294 104.016 102.838 104.124C108.45 104.518 111.469 103.151 112.789 98.3959ZM88.0077 56.7847C91.7134 36.3883 93.6743 33.7712 104.166 33.7557C106.852 33.7557 108.752 34.466 109.948 35.9251C113.692 40.4336 110.141 51.9674 109.084 59.0004C103.124 58.1743 94.315 57.2865 88.0077 56.7847Z" fill="#3D9CFB"/>
<path d="M147.483 19.4201C146.518 7.29955 137.091 4.52804 110.936 4.49716C98.2518 4.49716 87.3819 3.55531 81.5147 5.13021C71.9186 7.71643 69.8419 13.4756 67.4101 24.8087C65.3179 34.5746 63.0096 46.0543 61.5351 54.06C61.5118 54.1838 61.5133 54.311 61.5396 54.4342C61.5659 54.5574 61.6165 54.6741 61.6883 54.7775C61.7601 54.881 61.8519 54.9691 61.9581 55.0368C62.0643 55.1045 62.183 55.1503 62.3071 55.1717C62.5569 55.2167 62.8143 55.1606 63.0228 55.0159C63.2313 54.8711 63.3737 54.6495 63.4188 54.3997C64.8933 46.4094 67.4024 34.9914 69.2861 25.2024C73.6402 2.37414 84.3402 6.2805 108.056 6.34226C136.983 6.41946 144.974 10.1097 145.591 19.6053C146.649 35.8175 142.148 58.0281 139.045 76.4868C136.52 91.5101 132.953 117.202 130.776 132.573C129.819 139.351 126.847 142.532 105.076 140.34C102.706 140.1 102.552 141.845 105.076 142.246C109.117 142.726 113.182 142.966 117.251 142.964C134.366 143.389 133.031 135.901 135.215 118.523C136.868 105.29 139.16 89.5878 141.392 76.4868C144.927 55.4265 148.625 33.7562 147.483 19.4201Z" fill="#3D9CFB"/>
<path d="M96.144 68.2104C91.7822 67.8321 87.127 71.5223 91.8208 77.4745C92.9248 78.8641 85.7914 86.4298 86.8259 88.5528C88.2541 91.4864 95.9588 91.8261 97.194 90.9383C99.51 89.2553 95.8121 79.088 97.9119 78.0535C103.617 75.2357 101.232 68.6504 96.144 68.2104Z" fill="#3D9CFB"/>
<path d="M95.5424 11.5377C94.2995 13.8537 108.095 14.5408 108.867 12.8964C110.473 9.47641 96.3993 9.93189 95.5424 11.5377Z" fill="#3D9CFB"/>
<path d="M114.171 10.3872C111.369 10.4953 111.399 14.2858 113.777 14.4634C117.012 14.7413 116.672 10.3332 114.171 10.3872Z" fill="#3D9CFB"/>
<path d="M100.746 97.9718C100.583 94.7603 99.271 94.1735 96.1675 94.4283L84.3018 95.2543C82.3563 88.0592 79.8704 83.9985 77.6393 80.2156C81.8622 79.737 81.7155 67.9871 77.9327 66.7132C71.1545 63.6561 69.2862 57.48 60.8096 65.4858C54.6954 64.4766 48.4241 65.067 42.6057 67.1996C36.9237 62.5676 33.1254 62.7528 23.9308 72.2022C22.271 73.9006 23.1588 78.3783 24.2628 81.0649C25.3822 83.5198 26.2931 84.4462 28.1228 83.9676C26.927 86.4832 25.9657 89.1037 25.2509 91.7958C18.4959 83.543 8.62961 88.1519 7.40212 100.635C6.63012 109.127 11.1927 121.147 20.5262 120.159C21.233 124.238 22.436 128.215 24.1084 132.002C18.3569 132.442 16.9905 140.046 21.8309 142.347C22.1932 143.098 22.7131 143.763 23.3552 144.296C23.9972 144.829 24.7465 145.217 25.552 145.435C26.0615 148.955 29.9216 150.476 33.2721 149.689C35.0245 151.287 38.4986 151.31 40.1738 149.743C44.3118 152.784 51.2444 149.326 49.9938 143.929C54.4861 144.467 59.0139 144.647 63.5348 144.47C62.6547 149.82 68.8771 152.499 72.7989 149.943C73.9509 150.615 75.267 150.954 76.6002 150.921C77.9335 150.888 79.2314 150.486 80.3491 149.758C84.9117 151.24 89.5128 148.893 88.9801 144.485C89.275 144.42 89.5623 144.325 89.8371 144.2C98.4449 146.438 100.182 133.916 92.1531 133.507C94.0522 124.475 99.3019 114.292 86.2318 107.699C86.3639 106.933 86.3639 106.149 86.2318 105.383C88.2622 105.53 89.9837 104.696 89.2426 102.434C89.6132 102.365 90.2076 102.318 90.6399 102.287C90.9873 106.147 91.8829 106.966 95.0558 106.587C97.7115 106.271 97.4877 104.611 97.1171 101.515C100.661 101.176 100.869 99.6471 100.746 97.9718ZM77.1684 68.4503C79.0598 68.9598 79.6311 76.7339 77.5467 78.3242C74.6517 78.3242 69.0083 73.1441 68.8385 66.196C68.3289 64.2119 66.368 65.7096 67.0088 67.2691C65.7585 66.7374 64.4677 66.3063 63.1488 65.9798C69.6413 60.4291 70.0196 65.3005 77.1684 68.4503ZM27.235 82.1843C26.2005 82.3078 23.9462 74.194 25.2895 73.5069C33.496 65.0843 36.4373 64.899 40.5598 68.0025C39.2407 68.573 37.9522 69.2121 36.6998 69.9171C37.1707 68.3731 34.9859 67.1147 34.7543 69.091C35.04 76.456 31.7126 80.841 27.235 82.1843ZM31.2185 82.3309C33.9515 79.8914 35.7966 77.6989 36.6226 72.1405C49.6309 64.2891 62.1992 66.8831 67.418 69.5233C68.6146 74.3947 72.05 78.1621 75.138 79.5594C77.9173 84.4076 80.2796 87.7041 82.4258 95.347C76.7284 95.8025 70.2435 96.2888 63.6043 96.8524C61.0026 94.5364 53.792 97.856 54.564 92.3825C63.1565 88.0129 52.248 83.4812 49.1986 88.7772C48.1795 90.5297 50.4415 92.2512 52.7035 92.5137C53.3366 97.0145 48.5347 95.6481 45.2228 98.188C37.1862 98.6512 34.6077 98.96 28.0688 99.4309C27.8382 97.6458 27.3655 95.9005 26.6637 94.243C27.3894 90.2363 29.4893 84.7936 31.2185 82.3464V82.3309ZM66.4838 103.692C70.0968 111.559 64.0211 114.068 54.757 114.601C49.546 114.902 44.1805 115.049 41.9186 111.798C42.7755 104.935 42.0652 99.678 51.4915 97.856C52.3892 97.7086 53.1961 97.2222 53.7457 96.4973C55.475 99.1144 63.6043 94.6599 66.4838 103.708V103.692ZM17.8474 89.5878C27.0651 90.1051 24.0852 101.268 28.2463 101.299C33.8511 100.89 36.584 100.597 43.0071 100.195C42.0768 101.433 41.3856 102.834 40.969 104.325C36.6226 104.688 33.3261 105.013 28.9566 105.375C24.3245 106.286 29.304 116.106 21.0667 118.067C7.55652 121.232 4.7773 89.6496 17.8705 89.6033L17.8474 89.5878ZM40.5753 106.263C39.9191 111.189 40.4826 116.847 34.6849 117.627C33.4033 117.797 30.2535 117.89 27.6673 114.284C30.0528 103.924 26.5479 108.263 40.5984 106.279L40.5753 106.263ZM21.2751 139.537C19.7311 136.997 21.2211 133.839 24.8572 133.855C24.9807 134.14 25.0965 134.418 25.2046 134.681C24.147 135.016 23.2129 135.658 22.5214 136.525C21.8299 137.393 21.4122 138.446 21.3214 139.552L21.2751 139.537ZM25.5057 143.397C21.9159 142.123 22.6879 136.665 26.5479 136.395C26.6903 136.39 26.8299 136.353 26.9563 136.287C27.0826 136.221 27.1925 136.128 27.2778 136.014C27.363 135.9 27.4215 135.768 27.4489 135.628C27.4762 135.488 27.4717 135.344 27.4357 135.206C25.6524 130.172 23.8613 128.049 22.3405 119.681C23.5844 119.251 24.7125 118.541 25.6369 117.604C25.9998 124.344 30.2072 133.044 29.6668 139.297C28.6412 139.468 27.6941 139.954 26.9568 140.687C26.2195 141.42 25.7285 142.364 25.552 143.389L25.5057 143.397ZM86.5715 146.732C85.7995 148.052 84.0702 148.515 81.7078 148.106C83.2518 144.964 81.1829 140.826 77.4618 141.081C77.2106 141.093 76.9742 141.203 76.8037 141.388C76.6333 141.573 76.5424 141.818 76.5508 142.069C76.5667 142.32 76.6793 142.555 76.8651 142.725C77.0508 142.895 77.2951 142.986 77.5467 142.98C83.2904 143.852 79.4613 151.101 74.1344 148.561C77.5313 143.868 70.2204 137.753 71.6408 142.517C73.0073 143.567 73.1849 145.767 73.015 146.469C70.5678 151.873 61.296 148.276 67.472 140.594C68.4988 137.321 68.3212 134.65 66.6228 127.601C66.5991 127.475 66.55 127.355 66.4785 127.248C66.4069 127.141 66.3144 127.05 66.2065 126.98C66.0986 126.91 65.9776 126.862 65.8509 126.84C65.7241 126.818 65.5943 126.823 65.4691 126.852C65.344 126.882 65.2263 126.937 65.123 127.014C65.0198 127.091 64.9332 127.188 64.8686 127.299C64.8039 127.41 64.7625 127.533 64.7469 127.661C64.7313 127.788 64.7417 127.918 64.7777 128.041C66.5379 136.402 67.2172 137.846 64.1524 142.501C59.1962 142.738 54.2287 142.542 49.3067 141.914C46.5738 137.707 47.5465 132.65 48.9052 127.339C49.0288 126.829 48.7663 126.204 48.2413 126.173C45.9253 126.027 45.5856 136.719 45.9948 139.012C46.5043 141.891 48.3108 142.308 48.0946 145.458C47.2145 151.727 36.9932 148.646 40.9767 143.397C41.4168 138.927 36.391 144.694 38.8537 148.299C34.5999 151.657 30.3616 143.335 36.0204 142.895C36.1448 142.919 36.2728 142.919 36.3968 142.893C36.5209 142.867 36.6386 142.817 36.7429 142.745C36.8472 142.673 36.9361 142.581 37.0043 142.474C37.0724 142.367 37.1185 142.248 37.1398 142.123C35.951 138.348 29.4198 143.458 31.9674 147.898C28.7636 148.307 26.3703 145.898 27.6056 142.957C27.7799 142.574 28.0287 142.23 28.3376 141.944C28.6465 141.658 29.0092 141.437 29.4046 141.294C29.7999 141.15 30.2199 141.086 30.6401 141.107C31.0602 141.127 31.4721 141.231 31.8516 141.413C33.882 141.799 33.2412 139.189 31.5351 139.336C32.0832 132.712 27.7445 123.965 27.4512 117.01C32.1604 121.85 40.2047 119.418 41.3936 114.138C47.7627 118.592 65.0247 116.917 68.7613 111.389C70.645 116.276 77.3614 116.979 81.5689 114.547C83.6919 120.352 80.3491 132.426 81.6461 138.796C79.8782 138.95 79.4304 141.637 81.5534 140.942C84.3712 138.88 88.5787 143.852 86.6178 146.724L86.5715 146.732ZM68.6223 104.271C73.7484 103.8 75.1612 103.731 79.6774 103.368C80.1561 107.614 80.3568 109.428 83.4603 108.919C82.2868 114.362 75.3002 115.164 71.9342 112.663C69.7803 110.594 69.4715 106.827 68.6686 104.271H68.6223ZM89.8525 141.806C89.5303 142.211 89.0722 142.485 88.5632 142.578C88.1387 141.554 87.4652 140.652 86.6038 139.953C85.7424 139.255 84.7202 138.783 83.6301 138.579V138.51C86.1005 134.488 92.1685 137.892 89.8525 141.806ZM91.3965 128.914C91.327 130.844 88.6018 135.136 91.3039 135.515C96.8469 134.38 96.8392 142.802 91.7362 142.416C94.3996 137.445 87.5751 132.226 83.3831 136.109C83.0743 129.501 85.6991 118.793 83.2441 113.35C84.3562 112.266 85.1173 110.873 85.4289 109.351C95.2565 114.091 93.342 121.302 91.327 128.914H91.3965ZM96.8932 99.5776C94.3533 99.346 95.797 104.557 95.465 104.572C93.149 104.935 92.8556 105.028 92.6163 102.202C92.4078 100.396 91.4506 100.242 90.5164 100.342C88.0614 100.342 86.888 101.183 87.5442 103.353C84.8499 103.206 84.0161 104.256 84.5102 106.919C83.7793 106.994 83.0443 107.019 82.31 106.997C81.7233 106.163 82.4258 101.16 79.7855 101.43C74.9759 101.917 73.6712 101.87 68.0973 102.395C67.5644 100.98 66.7797 99.6719 65.7813 98.5354C78.2955 97.5086 87.3435 96.9064 96.3296 96.2888C98.6997 96.119 98.746 96.119 98.8695 97.9101C98.9236 99.1684 99.0625 99.4541 96.8006 99.6085L96.8932 99.5776Z" fill="#001434"/>
<path d="M57.7056 83.7981C56.7715 89.9047 65.7963 96.0112 72.5359 94.9999C76.558 94.3977 77.5462 88.6308 75.3383 88.3761C74.821 88.3143 74.4273 88.8779 74.4736 89.4029C74.574 95.494 67.1009 93.2629 64.0438 90.7461C70.5904 90.8851 74.5817 82.4934 69.718 78.7337C70.822 76.8269 69.1776 76.2015 68.452 77.1897C67.2167 78.8186 64.2214 79.7605 62.5693 80.7332C61.5027 81.497 60.2484 81.956 58.9408 82.0611C57.0417 82.1383 55.0808 80.1002 56.563 78.008C57.0494 77.3209 56.5013 75.692 55.1194 76.7728C52.456 78.8186 54.6871 83.1341 57.7056 83.7981ZM68.1354 80.0461C71.2235 81.6596 70.0963 86.3997 67.1318 87.9824C66.7738 85.7744 65.987 83.6579 64.8158 81.7523C64.8544 81.7137 67.9656 80.1465 68.1354 80.0461Z" fill="#001434"/>
<path d="M35.5884 97.8791C41.9806 97.8791 50.5035 90.3443 48.2416 84.2918C55.3363 80.5553 47.0527 73.3139 48.3728 78.3473C48.7296 78.6024 48.9964 78.9639 49.1351 79.3799C49.2738 79.796 49.2772 80.2453 49.1448 80.6634C48.1412 83.7514 44.6903 82.7246 42.4052 81.8831C40.6682 81.0339 36.9008 81.0494 36.2291 79.0036C36.197 78.8801 36.1405 78.7643 36.063 78.663C35.9854 78.5617 35.8884 78.4769 35.7777 78.4136C35.6669 78.3503 35.5446 78.3098 35.418 78.2945C35.2914 78.2791 35.1629 78.2892 35.0402 78.3242C33.5889 78.8878 34.77 80.6402 35.5729 81.3505C31.6511 85.7355 36.2137 93.6022 42.6677 92.7144C40.0892 95.4936 33.5503 98.3501 32.7242 92.6681C32.6779 92.1431 32.1915 91.6413 31.6974 91.8034C29.5358 92.5368 31.7592 97.8791 35.5884 97.8791ZM39.3712 90.3829C36.3913 89.1323 34.6311 84.5002 37.3563 82.3849C38.4757 82.7787 39.9116 83.1184 41.0696 83.5275C40.1145 85.6983 39.5399 88.0173 39.3712 90.3829Z" fill="#001434"/>
<path d="M21.5686 95.2003C17.1604 89.6342 11.8876 95.2003 12.042 102.874C12.1578 108.548 14.6746 115.188 19.5305 114.709C26.7256 113.991 25.2125 99.8015 21.5686 95.2003ZM21.3293 111.521C17.8398 116.238 13.9103 107.954 13.7404 103.469C13.5706 98.7593 16.2186 91.6568 20.0091 96.258C22.5413 99.9405 23.6298 108.433 21.3293 111.521Z" fill="#001434"/>
</svg>
