<svg width="154" height="154" viewBox="0 0 154 154" fill="none" xmlns="http://www.w3.org/2000/svg">
<path d="M89.8651 120.751C115.779 120.751 136.786 119.206 136.786 117.3C136.786 115.394 115.779 113.849 89.8651 113.849C63.9512 113.849 42.9438 115.394 42.9438 117.3C42.9438 119.206 63.9512 120.751 89.8651 120.751Z" fill="#FFE55D"/>
<path d="M42.9449 129.332C62.3835 129.332 78.1417 127.787 78.1417 125.881C78.1417 123.974 62.3835 122.429 42.9449 122.429C23.5063 122.429 7.74805 123.974 7.74805 125.881C7.74805 127.787 23.5063 129.332 42.9449 129.332Z" fill="#FFE55D"/>
<path d="M50.9813 81.2289C49.6866 84.4984 48.7857 87.9104 48.2977 91.3929C47.9128 93.968 47.7045 96.5665 47.6743 99.17C46.4316 101.211 45.5012 103.426 44.914 105.742C44.1833 109.089 45.1026 111.186 47.8606 112.649C46.137 113.041 45.7413 114.319 45.9261 114.872C46.1109 115.426 48.757 115.162 48.757 115.162C48.757 115.162 48.5599 115.834 49.1917 115.939C49.8235 116.044 50.601 115.135 50.601 115.135C50.601 115.135 50.3771 116.362 51.4176 116.439C51.7351 116.445 52.0481 116.363 52.3222 116.203C52.5963 116.043 52.8208 115.81 52.971 115.53C52.971 115.53 53.2218 116.491 54.0905 116.267C54.9592 116.043 55.3809 114.865 55.3809 114.865C56.3424 115.176 57.3499 115.321 58.3597 115.292C59.1804 115.336 59.9975 115.156 60.7236 114.771C60.7236 114.771 61.0993 116.243 61.9995 116.266C62.2353 116.29 62.4721 116.232 62.6705 116.103C62.8689 115.973 63.0169 115.779 63.0898 115.554C63.0898 115.554 63.99 116.771 64.9024 116.454C65.8148 116.137 65.4606 115.123 65.4606 115.123C65.4606 115.123 66.6391 116.302 67.1712 115.808C67.7033 115.313 67.1206 114.527 67.1206 114.527C68.842 115.654 73.0299 115.677 72.014 114.033C71.4559 113.506 70.8063 113.085 70.0971 112.791C73.3658 111.141 73.9546 106.918 72.4357 103.59C71.0126 100.47 68.8964 96.6397 68.8964 96.6397C68.8964 96.6397 68.4693 86.0724 64.2729 79.1747C67.6236 76.4091 66.6498 72.1789 65.8332 70.8785C65.0174 69.5766 64.1955 68.3022 64.1955 68.3022C64.1955 68.3022 63.5054 60.9874 60.6032 59.4846C59.5482 60.4914 58.7883 64.6142 58.7883 64.6142C56.4008 64.417 53.9977 64.6897 51.7151 65.417C51.7151 65.417 48.7286 62.4903 45.9706 61.8692C44.4831 63.497 46.4192 69.6901 46.4192 69.6901C46.4192 69.6901 44.4961 74.9668 46.5533 77.8406C47.5901 79.4509 49.156 80.6491 50.9813 81.2289Z" fill="#FFE55D"/>
<path d="M62.2329 96.31C62.1478 95.3232 62.19 92.9501 62.2091 91.9602C62.2073 91.9376 62.213 91.915 62.2252 91.8958C62.2373 91.8762 62.2557 91.8613 62.2774 91.8537C62.2987 91.8453 62.3223 91.8444 62.3441 91.8514C62.366 91.8578 62.3851 91.8712 62.3985 91.8897C62.7313 92.2225 63.0119 92.1243 63.0602 91.8422C63.2166 90.6989 63.2719 89.545 63.2259 88.3918C63.2247 88.3658 63.2329 88.3403 63.2489 88.3197C63.2645 88.2992 63.2867 88.2846 63.3117 88.2783C63.3372 88.2727 63.3638 88.2763 63.387 88.2883C63.4101 88.3004 63.4282 88.3202 63.4382 88.3443C63.495 88.4823 63.8768 88.4117 63.9527 88.0598C64.2849 85.279 64.1752 82.4633 63.6276 79.7168C61.1227 81.547 56.8166 82.6174 51.4777 81.3001C51.2755 82.1448 51.1645 83.0088 51.1465 83.8772C51.1465 84.2422 51.2117 84.9131 51.5015 85.13C51.6548 85.2474 51.7568 85.1109 51.9033 84.9644C51.9162 84.9446 51.9349 84.9291 51.9568 84.9201C51.9787 84.9111 52.0028 84.9089 52.0259 84.9138C52.0491 84.9192 52.07 84.9314 52.086 84.949C52.1021 84.9665 52.1124 84.9884 52.1157 85.012C52.1371 85.3079 52.4017 91.1375 52.9667 91.9848C53.0626 92.1772 53.4115 92.0845 53.4728 91.813C53.5211 91.6022 53.7228 91.6804 53.7228 91.8192C53.7228 91.9342 52.6386 99.9689 53.676 105.104C54.3185 108.284 56.4263 109.212 58.2941 108.963C63.334 108.289 62.67 101.375 62.2329 96.31Z" fill="white"/>
<path d="M69.1598 96.5338C69.0157 90.4807 67.4472 84.5467 64.5815 79.2129C65.59 78.3364 66.3316 77.1939 66.7215 75.9159C67.7444 72.2278 64.8905 68.5743 64.5417 68.1464C64.1521 65.9811 62.7559 59.1962 60.5323 59.0789C59.5639 59.0789 58.9222 61.8346 58.5495 64.2214C57.6425 64.1708 54.1024 64.0436 51.6311 64.9621C51.0131 64.4714 47.2906 61.5654 45.9242 61.4665C45.8287 61.4637 45.7338 61.4831 45.647 61.523C45.5601 61.5629 45.4837 61.6223 45.4235 61.6965C44.5103 62.8007 45.8414 68.9868 45.9856 69.6339C45.6275 70.6652 44.6706 73.94 45.7164 76.8843C45.2311 77.0223 44.758 77.2002 44.3018 77.4164C44.2344 77.458 44.1851 77.5234 44.1639 77.5997C44.1426 77.676 44.1509 77.7575 44.1872 77.8279C44.2234 77.8983 44.2848 77.9524 44.3593 77.9795C44.4337 78.0066 44.5156 78.0045 44.5885 77.9739C45.0283 77.7653 45.4849 77.5942 45.9534 77.4624C46.1355 77.8365 46.3497 78.1941 46.5936 78.5313C46.2792 78.7406 45.9856 78.9814 45.718 79.249C45.6892 79.2776 45.6663 79.3116 45.6508 79.3491C45.6353 79.3867 45.6274 79.4269 45.6275 79.4675C45.628 79.5491 45.6605 79.6273 45.718 79.6852C45.776 79.7428 45.8544 79.7751 45.9361 79.7751C46.0178 79.7751 46.0962 79.7428 46.1542 79.6852C46.4036 79.4353 46.6783 79.212 46.9739 79.0189C47.9371 80.0723 49.1725 80.8391 50.5439 81.2348C48.5401 86.8139 47.5049 92.6945 47.483 98.6224C44.6461 103.491 42.3404 109.838 47.253 112.6C46.8717 112.699 46.521 112.892 46.2328 113.161C45.9446 113.429 45.7279 113.766 45.6022 114.139C45.2188 115.216 46.1872 115.601 47.3427 115.601C47.7629 115.593 48.1815 115.561 48.5979 115.505C48.5994 115.631 48.6368 115.754 48.7056 115.86C48.7744 115.966 48.8719 116.05 48.9866 116.103C49.3094 116.256 49.7863 116.111 50.4434 115.667C50.4467 115.838 50.4883 116.006 50.565 116.158C50.6417 116.311 50.7517 116.444 50.8868 116.548C51.0219 116.653 51.1786 116.725 51.3455 116.761C51.5125 116.797 51.6853 116.794 51.8512 116.754C52.2989 116.672 52.7083 116.448 53.019 116.116C53.2119 116.308 53.4543 116.444 53.7195 116.508C53.9846 116.572 54.2622 116.561 54.5218 116.478C54.7813 116.394 55.0125 116.239 55.1897 116.032C55.3668 115.824 55.4831 115.572 55.5255 115.302C57.2246 115.656 58.9804 115.637 60.6711 115.242C60.7532 115.584 60.918 115.9 61.1511 116.163C61.3556 116.363 61.615 116.499 61.8965 116.552C62.1781 116.606 62.4691 116.574 62.7329 116.462C62.9077 116.388 63.0664 116.279 63.1998 116.143C63.5817 116.55 64.1089 116.79 64.6666 116.81C65.3153 116.81 65.6634 116.323 65.7662 115.689C66.2584 116.029 66.8189 116.324 67.2345 116.128C67.6501 115.933 67.6754 115.433 67.5803 114.993C69.4205 115.866 73.094 116.081 72.4108 114.165C72.2794 113.789 72.0563 113.452 71.7618 113.185C71.4672 112.917 71.1105 112.727 70.724 112.632C71.5686 112.132 72.2791 111.435 72.7942 110.6C75.3682 106.336 70.7155 98.8172 69.1598 96.5338ZM72.2268 110.346C71.5426 111.393 70.5133 112.166 69.3177 112.533C69.1253 112.593 68.9903 113.12 69.8476 113.12C70.261 113.09 70.6729 113.196 71.0205 113.422C71.3681 113.647 71.6323 113.981 71.7729 114.371C71.8633 114.611 71.7844 114.711 71.7598 114.74C71.3841 115.181 69.366 115.17 67.1678 114.15C66.8642 113.691 66.4858 113.286 66.0483 112.951L67.4285 108.121C68.5357 104.763 69.1204 101.255 69.1621 97.7192C71.2254 100.995 74.3192 107.074 72.2237 110.344L72.2268 110.346ZM65.1995 114.624C65.0554 114.696 65.0945 114.825 65.1175 115.097C65.1589 115.433 65.0768 115.773 64.8875 116.054C64.6406 116.294 63.5894 116.004 63.3708 115.269C63.3708 114.845 62.7275 115.017 62.7275 115.245C62.7275 115.614 62.7613 115.883 62.1241 115.929C61.4118 115.985 61.1442 115.174 61.0859 114.462C61.0483 114.008 61.1718 113.738 61.1726 107.965C63.3785 105.39 63.0013 100.298 62.6846 96.931C62.5721 95.4419 62.5406 93.9479 62.5903 92.4554C62.7232 92.4988 62.8664 92.4993 62.9996 92.4568C63.1328 92.4142 63.2493 92.3309 63.3325 92.2185C63.6883 91.7439 63.6545 89.4429 63.6545 88.8057C63.7733 88.7984 63.8892 88.7663 63.9949 88.7115C64.1005 88.6567 64.1935 88.5804 64.2679 88.4875C64.5087 87.4739 64.6114 86.4319 64.5746 85.3906C64.6263 83.4523 64.4492 81.5146 64.0471 79.6178C64.0249 79.5411 71.8212 92.6287 66.7514 107.841L65.2862 112.971C65.2749 113.009 65.2762 113.051 65.29 113.089C65.3038 113.127 65.3293 113.16 65.3628 113.182C66.0807 113.612 66.6157 114.291 66.8664 115.089C66.9654 115.626 66.9209 115.614 66.605 115.482C66.2472 115.319 65.9159 115.103 65.622 114.842C65.3805 114.633 65.3314 114.552 65.1949 114.623L65.1995 114.624ZM60.5385 114.605C58.9249 114.989 57.2473 115.018 55.6213 114.69C55.7179 113.896 55.5531 114.68 55.5492 108.97C55.8713 109.104 56.2079 109.203 56.5514 109.264C57.2423 109.438 57.9621 109.464 58.6637 109.34C59.3654 109.216 60.033 108.946 60.6228 108.546C60.576 114.602 60.4833 114.011 60.5354 114.603L60.5385 114.605ZM52.7123 115.227C52.5451 115.97 51.4855 116.301 51.1857 116.05C50.9073 115.79 50.9556 115.173 50.9863 114.812C51.0024 114.619 50.8644 114.489 50.4595 114.838C50.186 115.08 49.8827 115.286 49.5571 115.451C49.1867 115.628 48.9475 115.623 49.245 114.877C49.5384 114.215 50.0252 113.657 50.6413 113.277C50.6749 113.255 50.7004 113.222 50.7142 113.184C50.728 113.145 50.7293 113.104 50.7179 113.065C49.2097 107.78 48.0543 104.694 48.0305 98.7934C48.0412 93.0223 49.022 87.2941 50.9319 81.8482C50.8015 82.5812 50.7302 83.3235 50.7202 84.0672C50.7363 84.7611 51.0423 85.7295 51.7277 85.6007C51.7998 86.8589 52.0559 90.8989 52.5336 92.0659C52.5783 92.2108 52.671 92.336 52.7965 92.421C52.9219 92.5061 53.0726 92.5458 53.2237 92.5336C52.7989 96.3674 51.9877 106.028 54.8829 108.563C54.8829 109.987 54.8829 113.099 54.9558 113.646C55.0876 114.602 54.9059 116.002 53.9536 115.931C53.4284 115.893 53.2758 115.61 53.3456 115.341C53.4215 115.018 52.8503 114.841 52.7092 115.226L52.7123 115.227ZM46.1773 114.341C46.5683 113.312 47.4386 113.037 48.5258 113.12C48.7558 113.12 48.8678 112.583 48.6301 112.507C47.4107 112.13 46.3667 111.33 45.6873 110.249C44.0518 107.566 45.6873 103.234 47.5014 99.8584C47.6839 105.216 48.7282 108.089 50.1038 112.905C49.4334 113.397 48.926 114.078 48.6469 114.861C47.4048 115.055 46.4234 114.999 46.1872 114.718C46.1604 114.686 46.0799 114.586 46.1742 114.339L46.1773 114.341ZM49.6146 78.0168C50.0838 78.0168 50.0409 77.3313 49.6322 77.3988C48.7497 77.5176 47.8955 77.7937 47.1104 78.2138C46.8999 77.9267 46.72 77.6183 46.5737 77.2937C47.5965 77.0907 48.6415 77.0227 49.6821 77.0913C49.7617 77.0893 49.8376 77.0566 49.8938 77C49.9499 76.9435 49.9822 76.8675 49.9838 76.7878C49.9854 76.7081 49.9562 76.6309 49.9022 76.5722C49.8483 76.5134 49.7739 76.4778 49.6943 76.4726C48.5644 76.4157 47.432 76.5075 46.326 76.7455C45.1368 73.5006 46.6327 69.7681 46.6327 69.6914C46.6327 69.6148 45.2134 62.944 45.9342 62.1313C46.9831 62.1873 50.9894 65.1753 51.4548 65.6438C51.5499 65.7388 51.6564 65.6882 51.7331 65.6622C54.0648 64.7175 57.1571 64.8993 58.8708 64.92C58.9399 64.9096 59.0034 64.8761 59.0508 64.8247C59.0982 64.7734 59.1267 64.7075 59.1315 64.6378C59.5248 61.9465 60.2172 59.7965 60.5385 59.7429C61.9293 59.8195 63.3754 65.0794 63.9505 68.3688C63.9573 68.4211 63.9795 68.4702 64.0141 68.5099C65.6205 70.5977 66.8158 73.289 66.1319 75.7886C65.4993 78.1563 62.6049 80.8369 57.9231 81.3721C55.0094 81.7064 49.9159 81.2954 47.5007 78.7053C48.1693 78.3772 48.8808 78.1456 49.6146 78.0168ZM59.6452 108.428C58.6794 108.819 57.6152 108.897 56.6027 108.651C54.873 108.257 54.2757 106.964 53.9122 105.095C53.3073 100.731 53.3241 96.3024 53.9621 91.9425C54.0265 91.4295 53.4069 91.3736 53.3425 91.7953C53.3425 91.9432 53.1984 91.9663 53.1309 91.8244C52.657 90.8161 52.3549 85.6291 52.3549 85.0341C52.356 84.9712 52.337 84.9096 52.3008 84.8582C52.2645 84.8068 52.2129 84.7682 52.1533 84.7481C52.0938 84.7273 52.0292 84.726 51.9689 84.7445C51.9086 84.763 51.8558 84.8002 51.8182 84.8508C51.7415 84.9382 51.76 84.9413 51.6649 84.9973C51.142 84.594 51.5062 82.1603 51.6756 81.5561C55.7003 82.5107 60.1152 82.339 63.5602 80.0502C63.8562 81.4411 63.9973 82.8603 63.9819 84.2827C64.0449 85.5823 63.9763 86.885 63.7772 88.1708C63.7294 88.1938 63.6803 88.2138 63.63 88.2307C63.5905 88.1814 63.537 88.1454 63.4766 88.1271C63.4162 88.1099 63.3519 88.1114 63.2923 88.1315C63.2327 88.1516 63.1807 88.1894 63.1431 88.2399C63.1057 88.2906 63.0848 88.3516 63.0833 88.4147C63.1293 89.5855 63.068 90.7571 62.8977 91.9164C62.8381 91.92 62.7784 91.9092 62.7238 91.8851C62.6691 91.8609 62.621 91.8241 62.5834 91.7776C62.5421 91.7358 62.4896 91.7068 62.4321 91.6941C62.3747 91.6814 62.3149 91.6857 62.2598 91.7063C62.2049 91.7277 62.1575 91.7646 62.1233 91.8125C62.0891 91.8605 62.0696 91.9174 62.0674 91.9762C62.0444 93.2759 62.0168 95.0432 62.0911 96.3521C62.427 100.237 63.15 106.763 59.6452 108.428Z" fill="#4B1010"/>
<path d="M57.8388 71.3708C57.6517 71.3309 57.4778 71.2441 57.3335 71.1185C57.2902 71.0755 57.2352 71.0461 57.1753 71.0343C57.1154 71.0224 57.0533 71.0284 56.9969 71.0517C56.9404 71.075 56.8921 71.1144 56.858 71.165C56.8239 71.2157 56.8055 71.2752 56.8052 71.3363C56.8052 71.5456 57.026 71.6706 57.2284 71.7818C56.8581 72.5669 57.4308 73.7539 58.1677 73.7539C59.3247 73.7539 58.9735 71.3539 57.8388 71.3708Z" fill="#4B1010"/>
<path d="M51.9172 72.0501C51.7161 72.0287 51.5276 71.942 51.3804 71.8032C51.3377 71.7585 51.2824 71.7278 51.2218 71.7151C51.1613 71.7023 51.0983 71.7082 51.0412 71.7319C50.984 71.7556 50.9354 71.7961 50.9017 71.848C50.8679 71.8998 50.8507 71.9607 50.8521 72.0225C50.8521 72.2311 51.063 72.3423 51.2516 72.4442C50.8805 73.2309 51.4563 74.4156 52.1909 74.4156C53.282 74.4156 53.0642 72.1667 51.9172 72.0501Z" fill="#4B1010"/>
<path d="M55.6932 76.8577C55.7898 76.7327 55.9999 76.4743 55.9117 76.2213C55.7353 75.7221 54.6964 75.8379 54.1719 75.9092C53.7119 75.9659 53.1399 76.1155 53.1851 76.5709C53.2135 76.8531 53.5072 77.077 53.7548 77.2495C54.0615 77.468 54.3974 77.6444 54.7516 77.7716C54.9563 77.7716 55.5659 77.0218 55.6932 76.8577Z" fill="#4B1010"/>
<path d="M57.7311 77.3222C57.5245 77.8099 57.1516 78.2085 56.6788 78.4472C56.2059 78.6859 55.6638 78.7491 55.1487 78.6257C55.0674 78.6065 54.9818 78.6202 54.9105 78.6639C54.8393 78.7076 54.7882 78.7776 54.7684 78.8588C54.749 78.9401 54.7626 79.0258 54.8063 79.0971C54.85 79.1684 54.9202 79.2194 55.0015 79.2391C55.4356 79.3343 55.8855 79.3316 56.3185 79.2314C56.7515 79.1311 57.1568 78.9357 57.5049 78.6594C57.8464 78.3734 58.1157 78.0109 58.2908 77.6013C58.3129 77.5642 58.3271 77.523 58.3325 77.4802C58.3379 77.4374 58.3345 77.3939 58.3223 77.3525C58.3102 77.3111 58.2896 77.2726 58.2619 77.2395C58.2342 77.2064 58.2 77.1794 58.1613 77.1602C58.1227 77.1409 58.0805 77.1298 58.0374 77.1276C57.9943 77.1254 57.9513 77.1321 57.9109 77.1473C57.8705 77.1625 57.8337 77.1859 57.8027 77.216C57.7718 77.2461 57.7474 77.2822 57.7311 77.3222Z" fill="#4B1010"/>
<path d="M65.5782 76.7327C64.0279 76.0165 62.3277 75.6848 60.6219 75.7659C60.4678 75.7618 60.3137 75.7731 60.1619 75.7996C59.8061 75.9184 59.8682 76.4812 60.2424 76.4322C62.0212 76.2712 63.81 76.5779 65.4333 77.3216C65.5026 77.3206 65.5697 77.2967 65.6242 77.2538C65.6786 77.2108 65.7174 77.1511 65.7346 77.0839C65.7513 77.0163 65.745 76.9451 65.7167 76.8815C65.6884 76.8179 65.6396 76.7655 65.5782 76.7327Z" fill="#4B1010"/>
<path d="M60.5948 76.7856C59.6816 76.6077 59.8626 77.297 60.1961 77.3522C61.5441 77.5102 62.8031 78.1059 63.7799 79.0483C63.8231 79.0914 63.8781 79.1209 63.938 79.133C63.9978 79.1451 64.0599 79.1394 64.1165 79.1165C64.1726 79.0926 64.2206 79.053 64.2547 79.0023C64.2887 78.9517 64.3073 78.8923 64.3082 78.8313C64.3083 78.7907 64.3004 78.7505 64.2849 78.7129C64.2694 78.6754 64.2465 78.6414 64.2177 78.6128C63.2206 77.6543 61.9583 77.0177 60.5948 76.7856Z" fill="#4B1010"/>
<path d="M46.6574 63.1855C46.614 63.1509 46.5623 63.1281 46.5074 63.1196C46.4525 63.111 46.3963 63.1168 46.3444 63.1366C46.2925 63.1563 46.2466 63.1892 46.2113 63.2321C46.1759 63.275 46.1524 63.3263 46.1429 63.381C46.1023 63.6502 46.3093 63.6111 47.2793 64.5841C47.7454 65.0288 48.1863 65.4996 48.6004 65.9926C48.2799 65.9205 47.8673 65.8814 47.655 66.1306C47.5164 66.325 47.4583 66.5654 47.4925 66.8016C47.5268 67.0379 47.6509 67.2518 47.839 67.3988L47.0232 68.2737C46.764 68.598 47.2532 68.9814 47.4832 68.6885C48.6157 67.4548 48.6732 67.4617 48.6241 67.2539C48.5643 67.0024 48.2822 67.0384 48.1641 66.7632C48.0966 66.4964 48.1158 66.5286 48.2408 66.5286C49.0504 66.5286 49.4507 67.1558 49.7666 66.8146C49.813 66.7625 49.8403 66.6961 49.844 66.6264C49.8476 66.5567 49.8273 66.4878 49.7865 66.4312C48.8449 65.2559 47.7975 64.1695 46.6574 63.1855Z" fill="#4B1010"/>
<path d="M60.3932 65.8315C61.6346 66.3176 61.8385 66.6619 62.0731 66.6619C62.1578 66.6631 62.2395 66.631 62.3006 66.5725C62.3618 66.5139 62.3974 66.4337 62.3998 66.3491C62.3075 64.596 61.954 62.8666 61.3509 61.218C61.3244 61.1387 61.2676 61.0731 61.1928 61.0357C61.118 60.9983 61.0315 60.9922 60.9522 61.0186C60.8729 61.0451 60.8073 61.1019 60.7699 61.1767C60.7325 61.2515 60.7264 61.338 60.7528 61.4173C61.2532 62.8408 61.5761 64.3205 61.7143 65.8231C61.3493 65.6191 60.9706 65.4428 60.5795 65.294C60.2452 65.0586 59.993 65.6897 60.3932 65.8315Z" fill="#4B1010"/>
<path d="M120.382 114.275C119.698 112.223 118.14 105.191 115.704 98.6267C112.904 102.997 109.629 108.925 109.629 109.169C110.213 109.752 109.821 109.818 111.993 112.785C113.515 114.868 115.215 116.814 117.075 118.601C117.43 118.199 118.992 116.497 121.07 114.153C120.904 114.225 120.716 114.295 120.55 114.367C120.517 114.367 120.483 114.359 120.454 114.343C120.424 114.326 120.399 114.303 120.382 114.275Z" fill="#FFE55D"/>
<path d="M129.954 84.5143C129.151 84.5475 128.366 84.7661 127.662 85.153C132.876 95.5807 132.747 98.3855 133.382 99.9734C134.421 98.7569 135.384 97.4781 136.266 96.1443C138.511 92.1871 137.304 84.4836 129.954 84.5143Z" fill="#FFE55D"/>
<path d="M133.265 100.471C132.999 99.9408 131.263 91.1646 126.409 83.6397C120.855 75.0276 113.127 72.7902 104.521 79.4088C104.473 79.4326 104.45 79.4801 104.403 79.5031C104.355 79.5261 104.331 79.5744 104.285 79.5982C104.048 79.7868 103.811 79.9524 103.575 80.1418C98.2648 84.408 93.4849 90.9691 89.8888 96.6882C87.8432 99.9304 85.9655 103.276 84.2632 106.71C84.3368 107.625 84.5108 108.528 84.783 109.405C86.8878 115.954 95.2185 120.969 100.597 117.537C101.734 116.79 102.72 115.836 103.504 114.724C103.504 112.914 103.187 111.325 106.27 109.784C109.143 103.32 111.331 93.9433 112.711 93.027C115.567 94.3826 119.925 111.564 120.548 114.113C125.762 111.959 130.406 108.626 134.116 104.375C134.115 104.092 133.534 101.55 133.265 100.471Z" fill="#FFE55D"/>
<path d="M149.267 52.4144C149.267 52.3669 149.244 52.3439 149.244 52.2963C149.22 52.2725 149.22 52.2488 149.196 52.202C148.697 51.7843 148.091 51.514 147.447 51.4215C140.983 50.0597 132.802 51.9927 137.755 53.313C141.772 54.3834 149.267 53.6857 149.267 52.4144Z" fill="#FFE55D"/>
<path d="M125.345 81.6545C133.477 79.7377 139.504 67.4244 140.119 66.1478L129.151 61.1869C127.707 63.3477 125.919 65.2563 123.856 66.8363C120.614 69.1006 115.16 68.205 111.186 64.7331C108.983 62.8786 106.636 61.2028 104.166 59.7217C105.7 61.7543 106.149 64.3551 106.577 66.8839C107.006 70.1424 108.057 73.2882 109.674 76.15C115.47 73.882 120.645 76.0258 124.66 80.7827C124.897 81.0618 125.132 81.3471 125.345 81.6545Z" fill="#FFE55D"/>
<path d="M106.978 70.2345C105.95 66.3908 106.098 62.1875 103.48 59.3375C101.898 57.36 98.6692 57.5471 96.1527 57.7066L96.3183 59.8573C96.3284 59.9957 96.2951 60.1338 96.2231 60.2523C96.1511 60.3709 96.0439 60.4641 95.9165 60.519C95.2357 60.8213 94.4927 60.9576 93.7489 60.9165C93.005 60.8754 92.2816 60.6583 91.6381 60.2829C91.5676 60.2417 91.5088 60.1831 91.4673 60.1128C91.4259 60.0425 91.4031 59.9627 91.4012 59.8811L91.3306 58.4864C89.0299 59.1513 86.8355 60.1401 84.8132 61.423C84.5212 61.6202 84.2903 61.8955 84.1469 62.2174C79.4422 69.9355 74.6255 84.6724 72.0898 93.8964C69.765 102.354 68.5451 108.682 68.1188 110.49C67.8298 111.712 67.7707 112.091 68.9461 112.641C72.293 114.209 75.9734 114.028 79.5833 113.232C80.5294 113.024 80.9312 113.008 81.1168 112.169C81.6351 109.864 82.1511 107.544 82.6571 105.254C83.0988 105.752 83.5795 106.213 84.0948 106.634C84.0949 106.631 84.0955 106.628 84.0963 106.625C84.0991 106.619 84.1037 106.615 84.1094 106.612L84.1186 106.611C88.7076 97.4334 95.5431 86.4367 103.53 79.8718C105.288 78.3421 107.281 77.1063 109.434 76.2121C108.387 74.3213 107.563 72.3157 106.978 70.2353V70.2345Z" fill="#FFE55D"/>
<path d="M133.121 111.91C132.431 110.39 131.947 108.784 131.68 107.136C129.216 109.425 126.467 111.388 123.501 112.975C123.61 113.47 123.744 113.958 123.903 114.44C124.968 114.506 125.983 114.914 126.797 115.604C127.611 116.294 128.179 117.229 128.418 118.269C129.883 118.364 131.75 118.387 133.926 118.316C133.866 116.542 134.163 114.774 134.8 113.116C134.451 113.044 134.121 112.9 133.832 112.692C133.543 112.484 133.301 112.218 133.121 111.91Z" fill="#FFE55D"/>
<path d="M109.107 109.24C108.433 109.195 107.761 109.342 107.168 109.665C107.202 110.589 106.954 111.502 106.456 112.281C105.787 113.282 104.833 114.059 103.717 114.511C103.77 116.355 103.927 118.193 104.19 120.019C105.944 119.767 107.732 119.888 109.437 120.373C109.474 120.02 109.586 119.68 109.766 119.374C109.945 119.068 110.188 118.805 110.478 118.6C112.211 117.429 113.881 116.473 114.354 116.189C109.473 110.612 109.967 109.24 109.107 109.24Z" fill="#FFE55D"/>
<path d="M95.8695 54.9585C94.5334 55.7578 93.0445 56.2682 91.499 56.4567C91.7053 60.164 91.6393 59.9776 91.8303 60.0735C92.4424 60.4282 93.13 60.6324 93.8365 60.6694C94.5431 60.7063 95.2483 60.5749 95.894 60.2859C95.975 60.2491 96.0431 60.1889 96.0896 60.113C96.136 60.0372 96.1587 59.9492 96.1547 59.8603C96.0474 58.6067 95.9308 55.864 95.8695 54.9585Z" fill="white"/>
<path d="M95.8695 56.5033L95.7514 54.9905C94.5061 55.8522 93.0536 56.3665 91.5435 56.4803C91.7328 56.5746 93.08 57.1657 95.8695 56.5033Z" fill="#FFE55D"/>
<path d="M134.091 57.3078C134.972 58.2689 136.158 58.8954 137.448 59.0805C136.971 58.5459 136.58 57.9397 136.29 57.2841C135.875 57.1743 135.493 56.9636 135.179 56.6707C134.709 57.005 134.579 56.8202 134.091 57.3078Z" fill="white"/>
<path d="M101.353 40.7377C101.099 40.5946 100.814 40.5136 100.523 40.5012C100.231 40.4888 99.9405 40.5454 99.6748 40.6664C100.199 42.4881 100.288 44.4073 99.9347 46.269C102.741 46.1287 102.779 41.463 101.353 40.7377Z" fill="white"/>
<path d="M71.3094 113.683C70.5863 113.51 70.9796 113.488 69.9852 113.754C69.3564 113.923 66.018 114.8 65.5656 115.457C65.4276 115.656 65.5549 115.724 65.7543 115.763C66.0426 115.794 66.3332 115.799 66.6222 115.779C65.9651 116.143 65.4062 116.804 65.4721 117.064C65.4721 117.282 66.4121 117.198 66.9581 117.121C66.5164 117.419 66.0196 117.876 66.1338 118.175C66.1338 118.57 68.9478 118.481 70.1638 118.431C71.028 118.745 73.9615 118.409 74.9276 117.442C75.8081 116.402 76.5036 115.219 76.9841 113.944C75.091 114.175 73.1733 114.086 71.3101 113.683H71.3094Z" fill="white"/>
<path d="M96.4833 43.7871C97.1512 41.1602 94.006 37.3464 90.5027 37.121C87.359 36.9178 85.255 33.3862 84.9 32.7007H84.8763C84.6401 32.8425 81.3063 34.899 81.2841 40.7377C81.2526 48.761 83.2653 56.7988 91.2349 56.2675C92.4432 56.2429 93.6289 55.935 94.6964 55.3684C95.764 54.8019 96.6836 53.9926 97.3812 53.0057C94.9705 50.5943 95.9796 45.7707 96.4833 43.7871Z" fill="white"/>
<path d="M137.661 59.2928C136.175 59.1329 134.797 58.438 133.785 57.3376C134.068 57.0822 134.391 56.8752 134.741 56.7241C135.366 56.4121 134.856 55.1408 133.064 55.9842C132.949 55.667 132.858 55.3418 132.791 55.0112C132.563 55.0956 132.342 55.1991 132.13 55.3179C130.704 56.1721 129.766 60.3532 129.624 61.0616V61.0854L134.754 63.4018C134.754 63.4018 135.641 61.294 135.827 60.7818C136.682 60.6302 137.502 60.322 138.245 59.8724C138.039 59.6913 137.844 59.4977 137.661 59.2928Z" fill="white"/>
<path d="M133.216 55.7237C133.604 55.5316 134.042 55.4654 134.469 55.5343C134.426 55.3484 134.422 55.1554 134.459 54.968C134.496 54.7806 134.571 54.6031 134.681 54.4471C134.787 54.296 134.938 54.1826 135.112 54.1233C135.286 54.064 135.475 54.0619 135.651 54.1174C135.679 53.7493 135.743 53.3851 135.84 53.0294C133.951 51.9498 132.611 53.7072 133.216 55.7237Z" fill="white"/>
<path d="M135.276 56.5035C135.511 56.7404 135.805 56.9114 136.127 57.0003C135.783 56.1606 135.614 55.2598 135.63 54.3527C135.074 54.1442 134.445 54.684 134.71 55.6056C135.262 55.8142 135.39 56.3892 135.276 56.5035Z" fill="white"/>
<path d="M149.337 52.816C147.907 54.4844 137.56 54.5488 136.124 52.793C135.739 54.2284 135.847 55.7514 136.43 57.1182C136.966 58.3467 137.849 59.3923 138.97 60.127C140.091 60.8617 141.402 61.2536 142.742 61.2548C143.776 61.2596 144.797 61.0276 145.728 60.5765C146.658 60.1255 147.473 59.4675 148.109 58.6528C148.746 57.8382 149.188 56.8886 149.401 55.8768C149.613 54.8651 149.592 53.818 149.337 52.816Z" fill="white"/>
<path d="M82.8687 50.3747C83.3263 50.3747 83.7651 50.1929 84.0886 49.8694C84.4122 49.5459 84.5939 49.107 84.5939 48.6495C84.5939 48.192 84.4122 47.7531 84.0886 47.4296C83.7651 47.1061 83.3263 46.9243 82.8687 46.9243C82.4112 46.9243 81.9724 47.1061 81.6489 47.4296C81.3253 47.7531 81.1436 48.192 81.1436 48.6495C81.1436 49.107 81.3253 49.5459 81.6489 49.8694C81.9724 50.1929 82.4112 50.3747 82.8687 50.3747Z" fill="#FFE55D"/>
<path d="M93.6222 48.645C94.0797 48.645 94.5185 48.4632 94.842 48.1397C95.1656 47.8161 95.3473 47.3773 95.3473 46.9198C95.3473 46.4622 95.1656 46.0234 94.842 45.6999C94.5185 45.3763 94.0797 45.1946 93.6222 45.1946C93.1646 45.1946 92.7258 45.3763 92.4023 45.6999C92.0787 46.0234 91.897 46.4622 91.897 46.9198C91.897 47.3773 92.0787 47.8161 92.4023 48.1397C92.7258 48.4632 93.1646 48.645 93.6222 48.645Z" fill="#FFE55D"/>
<path d="M149.818 52.6099C149.828 52.5842 149.833 52.5569 149.833 52.5293C149.825 51.2059 146.393 50.8739 145.079 50.7428C144.654 48.4694 143.051 46.4812 144.818 45.1663C145.016 45.0129 145.23 44.8826 145.457 44.7775C145.5 44.7688 145.542 44.7509 145.578 44.7248C145.614 44.6987 145.644 44.6652 145.667 44.6265C145.688 44.5876 145.702 44.5444 145.705 44.4999C145.708 44.4554 145.702 44.4106 145.687 44.3688C145.675 44.3296 145.656 44.2931 145.63 44.2616C145.604 44.2301 145.571 44.2043 145.535 44.1858C145.499 44.1672 145.459 44.1563 145.418 44.1538C145.377 44.1513 145.336 44.1571 145.298 44.171C144.912 44.314 144.559 44.5332 144.26 44.8155C143.961 45.0978 143.722 45.4374 143.557 45.8142C142.932 47.3208 144.072 48.9456 144.408 50.6922C143.887 50.6593 143.364 50.646 142.841 50.6523C143.504 48.3191 141.502 46.16 141.864 44.5352C141.949 44.1995 142.11 43.8881 142.335 43.6251C142.561 43.3621 142.844 43.1548 143.162 43.0194C143.203 43.0024 143.243 42.9819 143.28 42.958C143.696 42.9128 143.553 42.2066 143.123 42.3508C142.738 42.4939 142.386 42.7128 142.087 42.9947C141.788 43.2765 141.548 43.6155 141.383 43.9916C140.527 45.9644 142.958 48.5576 142.166 50.6125C140.786 50.6263 136.21 50.9192 135.891 52.2564C135.845 52.3683 135.878 52.3576 135.835 52.5094C134.348 51.8025 132.795 52.6014 132.695 54.7084C132.455 54.7951 132.224 54.9042 132.005 55.0343C130.471 55.9207 129.572 59.7805 129.36 60.7849L129.184 60.7006C129.161 60.6892 129.137 60.6823 129.112 60.6804C129.087 60.6785 129.061 60.6816 129.038 60.6895C129.014 60.6974 128.992 60.71 128.973 60.7265C128.954 60.743 128.938 60.7631 128.927 60.7857L128.885 60.87C127.456 63.0062 125.696 64.9009 123.671 66.4826C121.043 68.3259 115.892 68.2278 111.52 64.4124C109.126 62.4074 106.568 60.6074 103.872 59.0314C101.934 57.0938 99.496 57.0624 96.4728 57.2625C96.3961 57.2679 96.4406 57.5316 96.2297 54.8856C96.7675 54.4647 97.2453 53.9722 97.6497 53.4218C98.612 54.1357 99.7719 54.5338 100.97 54.5612C101.042 54.5709 101.115 54.5608 101.182 54.532C101.248 54.5032 101.306 54.4569 101.349 54.3979C101.682 53.9202 100.866 52.8146 100.496 52.2219C103.937 52.9733 107.945 53.543 108.519 52.3024C109.374 50.4883 107.552 50.7244 107.33 49.2139C107.124 47.8092 112.39 45.7252 109.461 42.3094C106.84 39.2523 106.723 37.7211 106.581 34.7454C106.47 32.4329 106.279 28.1268 100.698 26.3203C97.3093 25.2293 94.9822 25.9078 93.6013 26.7037C92.0409 25.6962 88.2685 23.7901 84.7461 26.0343C80.371 28.8414 81.8601 30.9362 80.3956 31.8977C77.0395 34.0837 75.8043 36.7527 76.8217 39.6158C78.1751 43.4227 78.0317 43.2126 76.7773 44.8987C75.5229 46.5832 76.4897 51.0035 79.6641 53.0684C82.5156 54.8994 80.3864 56.7764 84.4601 57.0225C85.7061 57.1145 86.9559 56.9075 88.1052 56.4183C89.0735 56.6714 90.0759 56.7687 91.0748 56.7066L91.1515 58.1304C89.4248 58.6365 84.8964 60.3816 84.0568 61.5885C83.0908 63.2054 82.2096 64.8715 81.4169 66.58C75.3327 78.973 70.5996 96.803 67.7381 110.309C67.3877 111.962 67.3325 112.533 69.6281 113.395C68.5409 113.688 65.937 114.414 65.2523 115.184C65.1749 115.263 65.1209 115.361 65.0965 115.469C65.0721 115.577 65.0782 115.689 65.1142 115.793C65.1501 115.898 65.2144 115.99 65.2999 116.059C65.3854 116.129 65.4887 116.174 65.5981 116.188C65.4264 116.267 65.2807 116.393 65.1777 116.551C65.0747 116.71 65.0187 116.894 65.0161 117.083C65.0568 117.462 65.411 117.6 65.7967 117.605C65.7394 117.685 65.6994 117.776 65.6793 117.872C65.6592 117.968 65.6594 118.067 65.6799 118.164C65.7004 118.26 65.7407 118.351 65.7983 118.43C65.8559 118.51 65.9295 118.577 66.0144 118.626C66.7459 119.02 69.1236 118.809 69.8658 118.795C71.0949 118.928 72.3378 118.864 73.5462 118.605C75.3864 118.316 76.6132 115.714 77.347 114C78.0186 113.905 80.4308 113.54 80.9729 113.123C81.2321 112.919 81.4138 112.632 81.4889 112.311C81.5081 112.235 81.4889 112.3 82.8691 106.066C83.1536 106.396 83.4779 106.688 83.8352 106.936C84.4816 114.317 92.6743 120.305 98.7462 118.69C100.566 118.14 102.162 117.023 103.302 115.502C103.431 118.057 103.696 119.289 103.824 120.834C103.908 121.84 103.863 122.816 104.628 123.665C105.905 125.131 108.358 125.889 109.292 124.1C110.171 122.403 109.175 119.925 110.72 118.852C111.941 118.018 113.201 117.241 114.494 116.523C115.256 117.392 116.068 118.215 116.926 118.989C116.946 119.004 116.969 119.015 116.993 119.022C117.017 119.028 117.043 119.029 117.068 119.026C117.093 119.022 117.117 119.013 117.139 119.001C117.16 118.988 117.179 118.971 117.194 118.951C117.194 118.951 119.724 116.16 121.647 114.007C122.151 113.783 122.644 113.541 123.128 113.3C123.665 115.469 124.629 118.155 126.85 118.506C130.347 118.81 133.863 118.81 137.36 118.506C137.919 118.455 138.448 118.229 138.871 117.86C139.295 117.491 139.591 116.999 139.718 116.452C139.846 115.905 139.797 115.333 139.581 114.815C139.364 114.297 138.989 113.861 138.511 113.568C136.867 112.511 134.337 113.319 133.445 111.673C132.781 110.177 132.311 108.603 132.044 106.988C132.864 106.261 133.629 105.475 134.335 104.637C134.584 104.369 134.557 104.33 134.306 103.129C134.124 102.261 133.865 101.108 133.63 100.253C134.713 98.9989 135.709 97.6732 136.612 96.2846C137.304 94.9004 137.654 93.3704 137.633 91.8229C137.613 90.2754 137.221 88.7554 136.492 87.3904C135.078 84.9835 132.689 84.0581 129.898 84.0581C129.083 84.0767 128.284 84.2826 127.561 84.66C127.013 83.7275 126.418 82.8236 125.778 81.9518C131.989 80.2335 138.478 71.294 140.571 66.0724C140.589 66.0268 140.59 65.9757 140.571 65.9299C140.553 65.8841 140.518 65.8473 140.473 65.8271L135.222 63.4425L136.094 61.0809C136.87 60.8878 137.611 60.5712 138.287 60.1432C143.888 64.361 151.454 58.8865 149.818 52.6099ZM138.305 59.3956C137.617 58.8083 137.059 58.0835 136.668 57.2678C136.276 56.4522 136.06 55.5637 136.032 54.6594C136.008 54.1494 136.065 53.6388 136.2 53.1466C136.983 53.7155 138.879 54.0038 139.839 54.118C142.449 54.4193 145.089 54.2979 147.66 53.7584C148.195 53.6442 148.705 53.4385 149.17 53.1504C149.37 54.1643 149.329 55.2109 149.052 56.2063C148.774 57.2017 148.267 58.1183 147.572 58.8827C146.877 59.6471 146.012 60.2381 145.047 60.6082C144.082 60.9783 143.044 61.1174 142.016 61.0142C140.64 60.8759 139.343 60.3101 138.305 59.3964V59.3956ZM133.491 99.5242C132.249 94.537 130.387 89.7251 127.949 85.2013C128.577 84.9027 129.259 84.7352 129.954 84.709C132.732 84.6998 134.823 85.7326 136.006 87.7346C136.679 89.0061 137.04 90.4191 137.06 91.8574C137.08 93.2957 136.758 94.7181 136.121 96.0079C135.331 97.2422 134.452 98.4174 133.491 99.5242ZM133.957 104.247C130.327 108.386 125.802 111.645 120.726 113.777C119.789 110.067 116.233 96.7984 113.925 93.7291C113.545 93.2163 113.016 92.833 112.411 92.6312C111.805 92.4294 111.152 92.4189 110.54 92.6012C110.15 92.6671 110.248 93.2782 110.686 93.2146C111.142 93.1032 111.618 93.0943 112.078 93.1885C110.577 94.686 109.044 103.051 106.145 109.602C103.071 111.255 103.336 112.675 103.336 114.617C102.565 115.682 101.611 116.601 100.517 117.331C96.3922 119.956 90.2575 117.468 86.8984 112.974C84.4877 109.75 84.4271 107.111 84.4785 106.748C87.7496 100.126 91.6799 93.8509 96.2098 88.0176C100.197 82.9785 105.737 77.3298 112.005 75.9129C121.164 74.0965 127.149 83.4201 130.51 92.1741C131.99 96.0951 133.143 100.132 133.957 104.244V104.247ZM133.732 118.134C132.01 118.208 130.285 118.193 128.564 118.091C128.309 117.059 127.735 116.133 126.924 115.446C126.112 114.759 125.105 114.345 124.045 114.263C123.918 113.88 123.815 113.474 123.722 113.077C126.551 111.547 129.182 109.677 131.558 107.509C131.818 109.066 132.288 110.579 132.955 112.008C133.302 112.608 133.869 113.05 134.535 113.241C133.958 114.805 133.686 116.465 133.732 118.131V118.134ZM112.12 112.648C111.295 111.507 110.531 110.323 109.833 109.101C110.24 108.048 113.601 102.22 115.63 99.0319C117.246 103.479 118.927 109.494 120.105 114.076C120.155 114.224 120.177 114.464 120.401 114.521C119.11 115.985 117.134 118.191 117.035 118.303C115.24 116.56 113.596 114.668 112.12 112.648ZM104.376 119.785C104.199 118.399 103.929 115.874 103.929 114.618C104.927 114.254 105.791 113.595 106.408 112.729C107.024 111.864 107.362 110.831 107.379 109.769C107.773 109.606 109.231 109.079 109.463 109.631C110.791 111.943 112.358 114.109 114.14 116.092C113.466 116.475 111.946 117.35 110.412 118.418C109.846 118.816 109.459 119.42 109.334 120.101C107.72 119.67 106.036 119.562 104.379 119.785H104.376ZM89.3658 75.6967C89.6732 74.1475 89.7292 72.5589 89.5314 70.9919C89.125 67.8808 88.244 64.8504 86.9191 62.0064C86.8094 61.7326 86.4153 61.7625 86.3363 62.1244V62.1958C86.3363 62.2241 86.3432 62.2517 86.3547 62.277C87.8568 65.4805 89.329 70.5104 88.9379 74.2046C88.2202 80.1852 83.0984 102.574 80.9515 112.124C80.7789 112.891 80.4224 112.85 79.5613 113.044C76.042 113.811 72.2213 114.041 68.9802 112.431C68.1 111.995 68.0478 111.751 68.2533 110.866C69.6572 104.839 73.2709 85.9964 81.1953 68.444C82.1613 66.2299 83.2656 64.0788 84.5015 62.0033C85.0812 61.1338 87.8177 59.9975 88.78 59.608C89.9485 62.6175 93.3536 63.7484 96.6376 62.6803C97.1603 62.5645 97.6264 62.2704 97.956 61.8484C98.2856 61.4265 98.4582 60.903 98.4441 60.3678C98.4172 59.436 98.063 58.5434 97.4435 57.8468C99.5628 57.7524 102.014 57.8467 103.335 59.4853C105.145 61.4558 105.626 64.2054 106.085 66.866C106.532 70.1202 107.577 73.2637 109.166 76.1383C100.042 79.9138 91.5311 92.6549 86.7005 101.265C86.5372 101.556 84.0852 105.991 84.0269 106.318C83.7033 106.054 83.4151 105.748 83.1697 105.41C84.3244 100.356 88.3583 81.5776 89.3696 75.6959L89.3658 75.6967ZM70.562 117.581C70.9745 117.327 71.4276 117.145 71.9015 117.044C72.3194 117.044 72.1975 116.324 71.7934 116.431C70.8564 116.619 69.2877 117.297 69.4564 118.237C68.5646 118.297 67.6698 118.286 66.7804 118.203C66.1984 118.112 66.0405 118.063 66.7083 117.632C67.3639 117.209 67.5234 117.36 69.2677 116.801C69.3076 116.79 69.3449 116.772 69.3776 116.746C69.4103 116.721 69.4376 116.689 69.4581 116.654C69.4785 116.618 69.4917 116.578 69.4969 116.537C69.5021 116.496 69.4991 116.454 69.4882 116.414C69.4772 116.375 69.4586 116.337 69.4332 116.305C69.4079 116.272 69.3763 116.245 69.3404 116.224C69.3045 116.204 69.2649 116.19 69.2239 116.185C69.1829 116.18 69.1412 116.183 69.1013 116.194C67.7595 116.414 67.4237 116.738 66.5757 116.856C66.275 116.918 65.9678 116.944 65.6609 116.932C65.9592 116.427 68.0954 115.719 68.6513 115.546C68.7271 115.518 68.7891 115.462 68.8245 115.389C68.8599 115.316 68.866 115.233 68.8414 115.156C68.8169 115.079 68.7642 115.015 68.6938 114.975C68.6235 114.936 68.5408 114.925 68.4626 114.944C67.9068 115.116 66.3065 115.675 65.7024 115.513C66.0857 114.9 70.0728 113.878 70.7414 113.695C72.666 114.193 74.6672 114.322 76.64 114.079C76.2045 115.242 75.5699 116.32 74.7646 117.265C74.3446 117.663 73.8104 117.919 73.2372 117.997C72.0694 118.343 68.9702 118.641 70.562 117.581ZM99.9086 40.7805C100.131 40.7053 100.367 40.6779 100.601 40.7001C100.835 40.7223 101.062 40.7936 101.266 40.9093C102.493 41.5349 102.532 45.6876 100.167 46.0542C100.462 44.2983 100.374 42.4987 99.9086 40.7805ZM84.8281 32.9596C85.4032 33.9503 87.4773 37.1284 90.4898 37.3109C93.9578 37.5501 96.9259 41.3095 96.2979 43.7393C95.2168 48.0653 95.5059 51.2703 97.1345 53.0247C96.3187 54.0878 95.2456 54.9256 94.0165 55.4593C92.7873 55.9929 91.4424 56.2047 90.1087 56.0748C83.0362 55.7942 81.4498 47.7747 81.4767 40.7398C81.4974 35.5957 84.1097 33.4526 84.8281 32.9611V32.9596ZM95.7927 60.1562C95.1771 60.4383 94.5027 60.5677 93.8264 60.5336C93.1502 60.4994 92.4922 60.3026 91.9083 59.9599C91.8316 59.907 91.8654 60.1478 91.6729 56.6821C93.0594 56.5727 94.3966 56.1183 95.5626 55.3602L95.9376 59.93C95.9417 59.9783 95.9299 60.0266 95.904 60.0676C95.8781 60.1085 95.8395 60.1399 95.7942 60.157L95.7927 60.1554V60.1562ZM91.1975 58.7431L91.255 59.8832C91.2542 59.9988 91.2846 60.1125 91.3429 60.2123C91.4011 60.3122 91.4852 60.3945 91.5863 60.4506C92.2567 60.8408 93.01 61.0665 93.7845 61.1092C94.5591 61.1518 95.3326 61.0102 96.0418 60.696C96.2053 60.6251 96.3426 60.5051 96.4347 60.3525C96.5267 60.2 96.569 60.0226 96.5556 59.8449L96.4022 57.9158C96.4896 57.9096 96.5694 57.9035 96.6514 57.9012C97.8238 58.8213 98.1167 60.5311 97.6397 61.2956C97.0317 62.2924 94.9262 62.5224 93.7293 62.4342C92.7878 62.4097 91.8747 62.1061 91.1059 61.562C90.3371 61.0179 89.7472 60.2578 89.411 59.3779C89.6479 59.2599 90.6961 58.8987 91.1991 58.7446L91.1975 58.7431ZM109.762 75.9083C105.775 68.5092 107.404 64.6578 104.824 60.3533C107.015 61.7005 109.1 63.2128 111.061 64.8771C115.112 68.4041 120.66 69.3104 123.966 66.9941C126.016 65.4465 127.792 63.5647 129.217 61.4275L139.861 66.2442C138.591 68.8404 132.938 79.5718 125.423 81.4412C121.46 76.202 115.954 73.5896 109.762 75.9083ZM135.804 60.5541C135.574 60.6239 135.682 60.5035 134.684 63.2378L129.884 61.0709C130.247 59.2675 131.128 56.2105 132.27 55.5848C132.403 55.5112 132.54 55.4438 132.679 55.384C132.702 55.5296 132.735 55.673 132.777 55.8141C132.25 56.22 131.893 56.8077 131.775 57.4626C131.724 57.7333 132.344 57.846 132.389 57.5761C132.45 57.1391 132.666 56.7384 132.997 56.4468C133.328 56.1552 133.753 55.9919 134.194 55.9866C134.51 55.9866 135.161 56.2764 134.738 56.4927C133.866 56.9397 133.146 57.468 133.331 58.6089C133.331 59.0843 134.011 59.0214 133.958 58.5092C133.927 58.311 133.945 58.1083 134.011 57.9188C134.991 58.8903 136.269 59.5043 137.64 59.6624C137.701 59.7238 137.763 59.7851 137.824 59.8434C137.173 60.1401 136.497 60.3778 135.804 60.5534V60.5541ZM135.506 56.4405C135.519 56.2366 135.466 56.0338 135.356 55.8618C135.246 55.6898 135.083 55.5576 134.892 55.4844C134.752 54.8833 135.091 54.4723 135.463 54.5237C135.463 55.2413 135.578 55.9536 135.801 56.6353C135.699 56.5762 135.6 56.5112 135.506 56.4405ZM136.129 57.4634C136.351 57.9342 136.62 58.3812 136.932 58.7975C135.943 58.5677 135.041 58.0608 134.331 57.3361C134.569 57.1835 134.823 57.057 135.088 56.9573C135.397 57.195 135.75 57.3668 136.127 57.4634H136.129ZM135.362 52.994C135.447 53.0285 135.534 53.0645 135.618 53.1052C135.557 53.3554 135.511 53.6091 135.481 53.865C135.302 53.8639 135.124 53.9018 134.961 53.9762C134.798 54.0505 134.653 54.1596 134.536 54.2957C134.42 54.4318 134.334 54.5917 134.285 54.7643C134.236 54.9368 134.226 55.118 134.254 55.295C133.944 55.2784 133.635 55.3262 133.344 55.4353C132.975 53.8198 133.945 52.4051 135.361 52.994H135.362ZM142.263 51.5257C142.344 51.4099 142.417 51.2887 142.484 51.1638C142.81 51.1638 143.889 51.1753 144.383 51.2059C144.459 51.8391 144.282 52.4766 143.891 52.9802C143.635 53.3137 144.164 53.6511 144.408 53.3314C144.857 52.7356 145.075 51.9972 145.022 51.2535C145.824 51.3256 149.213 51.745 149.064 52.4611C148.445 53.9885 137.381 54.1326 136.433 52.4389C136.433 52.1904 137.018 51.9673 137.251 51.8623C138.711 51.425 140.225 51.1928 141.749 51.1722L141.741 51.1875C141.486 51.5004 141.997 51.8653 142.265 51.5257H142.263Z" fill="#4B1010"/>
<path d="M88.0997 46.2636L87.234 43.2058C87.2054 43.131 87.1495 43.0698 87.0775 43.0347C87.0055 42.9996 86.9229 42.9931 86.8463 43.0166C86.7698 43.04 86.705 43.0917 86.6651 43.1612C86.6252 43.2306 86.6131 43.3126 86.6314 43.3906C87.4395 46.1831 87.4418 46.1662 87.4893 46.4016C87.4694 46.4783 87.5047 46.4116 86.6337 49.8719C86.6173 49.9497 86.6308 50.0308 86.6716 50.099C86.7123 50.1672 86.7773 50.2176 86.8536 50.24C86.9298 50.2625 87.0117 50.2554 87.0829 50.2201C87.1542 50.1848 87.2095 50.124 87.2379 50.0498C88.2024 46.193 88.1633 46.4928 88.0997 46.2636Z" fill="#4B1010"/>
<path d="M91.6122 50.0743C91.3215 50.6225 90.8907 51.0838 90.3636 51.4114C89.8366 51.7389 89.2322 51.921 88.6119 51.939C88.2654 51.9436 88.2286 51.9221 88.1335 52.0004C88.0788 52.0505 88.0433 52.118 88.0329 52.1914C88.0226 52.2649 88.0381 52.3396 88.0768 52.4029C88.1734 52.5716 88.3628 52.5792 88.5813 52.5792C89.502 52.559 90.3889 52.228 91.0977 51.64C91.5189 51.2785 91.879 50.8516 92.1643 50.3756C92.1841 50.3394 92.1966 50.2996 92.201 50.2585C92.2054 50.2175 92.2017 50.1759 92.19 50.1363C92.1783 50.0967 92.1589 50.0598 92.1329 50.0277C92.1069 49.9956 92.0749 49.969 92.0385 49.9493C91.9654 49.9094 91.8795 49.9002 91.7995 49.9236C91.7196 49.947 91.6522 50.0012 91.6122 50.0743Z" fill="#4B1010"/>
<path d="M91.7185 42.7634C91.5664 42.7287 91.424 42.6606 91.3014 42.5641C91.2719 42.5362 91.2373 42.5145 91.1994 42.5C91.1616 42.4856 91.1212 42.4787 91.0807 42.4799C91.0402 42.481 91.0003 42.4901 90.9633 42.5067C90.9263 42.5232 90.8929 42.5469 90.8651 42.5763C90.8373 42.6058 90.8155 42.6404 90.801 42.6783C90.7866 42.7162 90.7797 42.7565 90.7809 42.797C90.782 42.8375 90.7911 42.8774 90.8077 42.9144C90.8242 42.9514 90.8479 42.9848 90.8774 43.0126C90.9701 43.0893 91.0714 43.156 91.1787 43.2104C90.8406 43.9895 91.4202 45.1273 92.1348 45.1273C93.3348 45.1281 92.9185 42.6063 91.7185 42.7634Z" fill="#4B1010"/>
<path d="M83.6985 43.826C83.5483 43.7909 83.4078 43.7231 83.2868 43.6275C83.2416 43.5859 83.1849 43.559 83.1241 43.5502C83.0634 43.5415 83.0014 43.5513 82.9463 43.5784C82.8915 43.6055 82.846 43.6482 82.8154 43.7012C82.7849 43.7541 82.7706 43.8149 82.7746 43.8759C82.7775 43.9164 82.7885 43.956 82.8068 43.9923C82.8251 44.0286 82.8503 44.061 82.8811 44.0875C82.9724 44.1489 83.0659 44.211 83.1671 44.2677C82.7991 45.1035 83.503 46.3763 84.2889 46.1692C84.7436 46.0481 84.9682 45.4462 84.7773 44.7699C84.6002 44.1466 84.1225 43.7478 83.6985 43.8268V43.826Z" fill="#4B1010"/>
<path d="M89.5671 40.3524C90.0054 40.2268 90.47 40.2251 90.9092 40.3476C91.3485 40.4701 91.7451 40.7119 92.0552 41.0463C92.3044 41.353 92.7813 40.9642 92.5152 40.6322C92.1233 40.21 91.6221 39.9046 91.0672 39.7498C90.5124 39.595 89.9255 39.5968 89.3716 39.7551C89.0227 39.8939 89.1937 40.4735 89.5671 40.3524Z" fill="#4B1010"/>
<path d="M84.1974 40.8916C84.2421 40.8499 84.274 40.7963 84.2895 40.7371C84.3049 40.678 84.3033 40.6156 84.2848 40.5573C84.2665 40.499 84.2321 40.4471 84.1856 40.4075C84.1391 40.3678 84.0823 40.3422 84.0218 40.3334C83.6053 40.2623 83.1771 40.3286 82.8015 40.5222C82.426 40.7159 82.1237 41.0264 81.9401 41.4069C81.5858 42.1514 82.4714 42.146 82.4714 41.7642C83.117 40.575 83.9536 41.0979 84.1974 40.8916Z" fill="#4B1010"/>
<path d="M21.7213 122.004C21.7221 122.408 21.6432 122.808 21.489 123.181C21.3349 123.554 21.1085 123.893 20.823 124.179C20.5375 124.464 20.1984 124.691 19.8252 124.845C19.4519 124.999 19.052 125.078 18.6482 125.077H15.2653C14.8615 125.078 14.4616 124.999 14.0885 124.845C13.7154 124.69 13.3764 124.464 13.0909 124.178C12.8055 123.893 12.5792 123.554 12.4251 123.181C12.271 122.808 12.1921 122.408 12.1929 122.004V100.73H10.7744V122.004C10.7742 122.594 10.8902 123.178 11.1158 123.723C11.3414 124.268 11.6722 124.763 12.0893 125.18C12.5063 125.597 13.0014 125.928 13.5464 126.154C14.0913 126.38 14.6754 126.496 15.2653 126.496H18.6459C19.8371 126.495 20.9796 126.022 21.8225 125.181C22.2395 124.763 22.5702 124.268 22.7957 123.723C23.0212 123.178 23.1371 122.594 23.1367 122.004V100.849H21.7213V122.004Z" fill="#FFE55D"/>
<path d="M70.0102 100.872V122.027C70.011 122.431 69.9321 122.831 69.778 123.204C69.6239 123.577 69.3976 123.916 69.1122 124.202C68.8267 124.487 68.4877 124.714 68.1146 124.868C67.7415 125.022 67.3416 125.101 66.9378 125.1H63.5573C63.1535 125.101 62.7536 125.022 62.3805 124.868C62.0074 124.713 61.6684 124.487 61.3829 124.202C61.0974 123.916 60.871 123.577 60.7168 123.204C60.5626 122.831 60.4835 122.431 60.4841 122.027V100.751H59.0664V122.025C59.0662 122.913 59.3294 123.782 59.8228 124.521C60.3162 125.259 61.0175 125.835 61.8382 126.175C62.3826 126.401 62.9676 126.517 63.5573 126.517H66.9378C68.1288 126.516 69.2709 126.043 70.1137 125.202C70.5309 124.784 70.8617 124.289 71.0874 123.744C71.313 123.199 71.429 122.615 71.4287 122.025V100.872H70.0102Z" fill="#FFE55D"/>
<path d="M65.2122 94.7019C65.1355 94.7088 65.2122 94.7019 46.4199 94.7019L47.4366 97.6332H68.1197C67.826 97.3004 68.0683 97.558 65.2122 94.7019Z" fill="#FFE55D"/>
<path d="M38.0049 71.4666H4.29785L14.9557 97.6127C48.9418 97.6127 47.2504 97.6426 47.1737 97.5659L38.0049 71.4666Z" fill="#FFE55D"/>
<path d="M75.3054 97.5598C68.0811 97.5598 68.7014 97.5897 68.6102 97.4992C65.2909 94.1639 65.4665 94.2666 65.2257 94.2275H46.4404L38.3052 71.1898C38.2802 71.1375 38.2409 71.0934 38.192 71.0624C38.143 71.0315 38.0863 71.0151 38.0284 71.0149H4.13193C4.08278 71.0141 4.03414 71.025 3.99011 71.0469C3.94607 71.0688 3.90795 71.1009 3.87893 71.1406C3.84992 71.1803 3.83087 71.2264 3.82339 71.2749C3.81592 71.3235 3.82023 71.3732 3.83597 71.4198C3.83597 71.4198 14.1104 96.8099 14.4171 97.5598H8.05309C8.00225 97.5598 7.95349 97.58 7.91754 97.6159C7.8816 97.6519 7.8614 97.7006 7.8614 97.7515V100.73C7.86148 100.78 7.88159 100.829 7.91737 100.865C7.93508 100.883 7.95622 100.897 7.97954 100.907C8.00285 100.917 8.02787 100.921 8.05309 100.921H10.2966V122.007C10.2982 123.311 10.817 124.561 11.7393 125.484C12.6615 126.406 13.9118 126.925 15.2161 126.926H18.5959C19.9002 126.925 21.1506 126.406 22.0729 125.484C22.9952 124.562 23.5139 123.311 23.5153 122.007V100.921H58.591V122.007C58.5927 123.311 59.1115 124.561 60.0337 125.484C60.9559 126.406 62.2063 126.925 63.5105 126.926H66.8903C68.1946 126.925 69.4451 126.406 70.3674 125.484C71.2896 124.562 71.8084 123.311 71.8098 122.007V100.921H75.3054C75.3434 100.922 75.3807 100.911 75.4123 100.89C75.4439 100.869 75.4684 100.838 75.4825 100.803C75.4921 100.78 75.4971 100.755 75.4971 100.73V97.7515C75.4967 97.7008 75.4764 97.6522 75.4405 97.6164C75.4046 97.5805 75.3561 97.5602 75.3054 97.5598ZM69.5824 100.921V122.007C69.5824 122.708 69.3038 123.381 68.8079 123.877C68.312 124.373 67.6393 124.652 66.9379 124.652H63.5573C62.856 124.651 62.1836 124.373 61.6877 123.877C61.1919 123.381 60.9132 122.708 60.9128 122.007V100.921H69.5824ZM12.6206 100.921H21.291V122.007C21.2908 122.708 21.012 123.381 20.516 123.877C20.02 124.373 19.3472 124.652 18.6457 124.652H15.2651C14.5638 124.651 13.8914 124.373 13.3956 123.877C12.8997 123.381 12.621 122.708 12.6206 122.007V100.921ZM22.9449 122.007C22.9439 123.147 22.4906 124.24 21.6846 125.046C20.8785 125.852 19.7856 126.305 18.6457 126.306H15.2651C14.1254 126.304 13.0329 125.851 12.227 125.045C11.4211 124.239 10.9676 123.147 10.966 122.007V100.921H12.0011V122.007C12.0015 122.872 12.3455 123.702 12.9575 124.315C13.5695 124.927 14.3995 125.271 15.2651 125.272H18.6457C19.5114 125.271 20.3413 124.927 20.9534 124.314C21.5655 123.702 21.9097 122.872 21.9105 122.007V101.04H22.948L22.9449 122.007ZM15.0635 97.4708L4.58431 71.682L37.8022 71.692L46.8567 97.4885L15.0635 97.4708ZM47.5644 97.3995L46.6857 94.8754C46.6857 94.8754 64.985 94.89 65.1383 94.8815L67.6563 97.3995H47.5644ZM71.237 122.012C71.236 123.152 70.7827 124.245 69.9767 125.051C69.1707 125.857 68.0778 126.31 66.9379 126.311H63.5573C62.4176 126.31 61.325 125.856 60.5191 125.05C59.7132 124.244 59.2597 123.152 59.2581 122.012V100.927H60.2925V122.012C60.2931 122.878 60.6372 123.708 61.2494 124.32C61.8615 124.932 62.6916 125.276 63.5573 125.277H66.9379C67.8035 125.276 68.6335 124.932 69.2456 124.32C69.8576 123.708 70.2019 122.878 70.2027 122.012V101.04H71.237V122.012Z" fill="#4B1010"/>
<path d="M24.5966 78.1475C24.2017 76.8594 23.1321 76.0773 22.1606 76.3648C21.1892 76.6524 20.7038 77.8907 21.0611 79.1773C21.1573 79.661 21.4065 80.1009 21.7718 80.4323C22.1371 80.7636 22.5992 80.9688 23.0899 81.0175C24.2071 81.019 25.0436 79.7424 24.5966 78.1475ZM22.5264 80.2415C21.1838 79.4817 21.2566 76.9368 22.5502 76.9368C24.0231 76.9368 24.707 79.9624 23.2954 80.3588C23.1663 80.3916 23.0319 80.3981 22.9002 80.3779C22.7684 80.3578 22.6421 80.3114 22.5287 80.2415H22.5264Z" fill="#4B1010"/>
</svg>
