<svg width="154" height="154" viewBox="0 0 154 154" fill="none" xmlns="http://www.w3.org/2000/svg">
<path d="M126.371 113.072C126.339 113.63 126.315 113.649 125.809 113.859C124.254 114.502 121.298 115.033 119.624 114.327C119.287 114.186 119.573 114.139 119.287 113.131C119.267 113.059 119.134 112.679 119.221 112.728C119.543 112.957 119.906 113.12 120.291 113.207C120.676 113.294 121.074 113.303 121.463 113.234C126.879 112.657 126.098 111.288 126.371 113.072Z" fill="white"/>
<path d="M118.135 113.262C118.666 113.038 118.915 112.733 118.886 114.415C118.872 115.23 114.574 115.696 113.706 115.67C111.555 115.609 109.564 113.538 108.046 111.987C107.919 111.856 107.91 111.732 107.908 111.295C107.896 108.298 107.671 110.825 111.452 113.389C112.792 114.297 113.05 114.371 114.117 114.207C115.5 114.124 116.859 113.804 118.135 113.262Z" fill="white"/>
<path d="M123.296 108.33C123.825 108.433 123.603 108.889 123.446 108.945C122.789 109.083 122.142 109.265 121.509 109.489C120.894 109.72 120.544 110.034 120.179 109.837C119.166 109.293 122.323 108.141 123.296 108.33Z" fill="white"/>
<path d="M123.019 107.452C123.161 107.576 123.241 107.887 123.019 107.934C121.857 107.996 120.73 108.359 119.75 108.987C119.524 109.159 119.151 109.034 119.115 108.552C119.533 108.014 120.489 107.874 121.628 107.601C122.062 107.496 122.716 107.187 123.019 107.452Z" fill="white"/>
<path d="M122.308 106.535C122.385 106.665 122.435 106.873 122.346 106.939C121.993 107.201 120.332 107.078 119.069 107.891C119.019 107.929 118.96 107.953 118.898 107.962C118.836 107.97 118.773 107.964 118.715 107.942C118.656 107.92 118.604 107.884 118.563 107.837C118.522 107.791 118.493 107.734 118.479 107.673C118.421 107.476 118.464 107.216 119.098 106.981C119.91 106.646 120.763 106.421 121.634 106.313C121.988 106.291 122.119 106.218 122.308 106.535Z" fill="white"/>
<path d="M114.871 107.722C114.891 107.855 114.749 107.983 114.516 108.008C112.066 108.269 110.993 109.563 111.057 108.561C111.078 108.258 111.442 108.057 111.937 107.869C112.736 107.569 113.574 107.38 114.425 107.308C114.531 107.328 114.629 107.377 114.708 107.451C114.787 107.524 114.843 107.618 114.871 107.722Z" fill="white"/>
<path d="M115.408 108.407C115.754 108.523 115.711 108.923 115.534 108.965C114.56 109.195 113.483 109.144 112.361 109.943C112.316 109.988 112.26 110.021 112.199 110.038C112.138 110.056 112.073 110.058 112.011 110.045C111.949 110.032 111.891 110.003 111.842 109.961C111.794 109.92 111.757 109.867 111.734 109.808C111.412 109.112 113.477 108.684 114.153 108.522C114.556 108.385 114.986 108.346 115.408 108.407Z" fill="white"/>
<path d="M115.955 109.337C116.034 109.369 116.098 109.43 116.134 109.507C116.17 109.584 116.176 109.672 116.15 109.753C116.101 109.915 115.95 109.819 114.92 110.119C113.128 110.642 113.177 111.087 112.717 110.83C111.667 110.241 115.38 109.158 115.955 109.337Z" fill="white"/>
<path d="M125.205 110.585C125.966 110.838 126.301 111.661 125.918 111.815C118.905 114.628 119.728 111.8 117.476 110.903C117.15 110.714 116.875 110.446 116.678 110.125C116.653 110.084 116.64 110.037 116.64 109.99C116.64 109.943 116.653 109.896 116.678 109.856C116.825 109.224 116.171 109.185 116.135 108.671C116.114 108.376 115.736 108.241 115.955 107.545C116.145 106.607 116.151 105.641 115.974 104.701C115.805 103.364 118.209 102.437 119.636 102.532C121.236 102.639 121.505 103.396 121.664 103.708C121.946 104.358 121.971 105.091 121.733 105.759C121.702 106.134 117.086 106.24 118.096 107.98C118.45 108.594 118.522 108.264 118.59 108.547C118.908 109.874 119.32 109.302 119.48 109.757C119.517 109.885 119.582 110.002 119.668 110.103C119.755 110.203 119.863 110.284 119.984 110.339C120.104 110.394 120.235 110.423 120.368 110.423C120.501 110.423 120.632 110.395 120.753 110.34C120.768 110.334 123.52 109.158 123.75 109.418C123.986 109.686 124.257 109.92 124.557 110.114C123.799 110.234 123.056 110.438 122.343 110.723C121.888 110.997 121.383 111.178 120.858 111.257C120.41 111.316 120.152 111.015 119.778 110.786C119.255 110.457 118.773 110.067 118.341 109.625C117.633 108.921 117.183 108.223 117.227 107.883C117.233 107.814 117.215 107.746 117.178 107.689C117.14 107.631 117.085 107.588 117.02 107.566C116.878 107.529 116.854 107.705 116.85 107.729C116.593 109.026 119.5 111.095 119.847 111.364C120.629 111.979 121.664 111.528 122.631 111.057C123.335 110.82 124.057 110.637 124.789 110.509C124.932 110.502 125.074 110.528 125.205 110.585Z" fill="#FF9C9F"/>
<path d="M117.926 113.208C116.566 113.697 115.135 113.957 113.691 113.977C112.647 114.147 111.147 112.688 110.293 112.165C109.75 111.746 109.303 111.218 108.98 110.614C107.873 108.764 108.842 109.303 108.75 106.915C108.703 105.752 108.299 105.249 109.074 104.626C110.866 103.184 112.968 103.37 113.973 104.285C114.39 104.664 114.5 104.828 114.486 105.715C114.154 107.488 114.807 106.454 111.515 107.58C111.031 107.746 110.43 108.152 110.587 108.8C110.61 108.937 110.668 109.066 110.756 109.174C110.844 109.282 110.958 109.365 111.088 109.415C111.116 109.42 111.141 109.519 111.143 109.576C111.18 110.624 111.946 110.422 112.003 110.717C112.047 110.867 112.126 111.004 112.233 111.118C112.339 111.232 112.471 111.319 112.617 111.374C112.763 111.428 112.92 111.448 113.075 111.431C113.231 111.415 113.38 111.362 113.511 111.278C114.338 110.83 115.219 110.486 116.131 110.256C116.975 110.684 117.736 111.259 118.377 111.955C118.523 112.134 119.364 112.719 117.926 113.208Z" fill="#FF9C9F"/>
<path d="M149.48 62.4487C149.669 64.8241 149.634 71.8499 149.616 77.3962C149.601 81.3348 149.897 101.582 149.644 103.436C149.458 104.804 148.876 104.792 147.292 104.87C146.268 104.921 144.392 104.727 140.44 104.661C139.797 104.651 137.443 104.618 136.905 104.558C136.089 104.468 135.379 104.203 135.427 103.337C135.513 101.787 135.131 99.2341 135.439 88.7355C135.447 88.4742 135.557 88.3513 135.573 88.08C135.723 85.5554 135.657 82.5275 135.825 79.1C135.867 78.2292 135.902 76.6515 135.456 76.1335C135.436 75.8307 135.668 75.2674 135.648 74.9231C135.145 66.2712 135.999 66.1998 135.74 63.9158C135.305 60.0732 137.811 60.2876 139.512 60.2569C145.537 60.1478 147.617 59.9718 148.435 60.2569C149.497 60.6265 149.447 62.0383 149.48 62.4487Z" fill="#FFF5DB"/>
<path d="M146.735 105.169C147.237 105.117 147.412 105.093 147.399 105.292C147.339 106.083 147.133 106.855 146.79 107.569C146.695 107.758 146.672 107.871 145.998 107.944C145.772 107.968 139.27 107.965 138.903 107.944C138.272 107.905 138.2 107.814 138.109 107.414C137.672 105.52 137.379 105.064 137.884 105.074C139.534 105.107 146.316 105.213 146.735 105.169Z" fill="#FFEBBD"/>
<path d="M147.681 59.5552C147.366 59.6935 148.44 59.5513 140.035 59.7734C138.08 59.8249 135.445 59.4184 135.236 62.5769C135.129 64.2008 135.445 62.8943 135.127 66.6585C135.066 67.3763 135.027 69.1123 135.021 69.6326C134.94 76.1427 135.73 75.8576 133.868 73.6473C133.33 73.0064 133.945 73.7734 132.427 71.9359C132.111 71.5516 131.897 71.6945 131.939 71.9051C132 72.2125 134.557 75.2143 134.695 75.5724C134.474 75.6416 134.826 75.6109 133.532 75.5509C131.268 75.4504 129 75.5162 126.745 75.7477C119.751 75.6385 116.84 75.896 114.021 76.0043C113.338 76.0297 84.2425 75.7853 78.3173 76.5123C78.0468 76.5454 77.9799 76.5892 77.9876 76.686C77.9953 76.7828 78.046 76.8874 78.1152 76.9012C79.3502 77.0303 83.8121 76.5169 96.4172 76.5446C100.422 76.5546 105.318 76.334 111.096 76.5922C111.096 76.5922 131.571 76.0789 131.788 76.0712C135.845 75.9321 135.311 76.2787 135.272 80.0997C135.242 83.08 135.272 84.6339 135.091 86.901C134.965 88.4788 135.145 88.3351 130.547 88.3497C129.563 88.3497 117.982 88.033 114.366 87.9424C98.4284 87.5427 96.4303 88.4327 84.6529 88.6709C75.0135 88.8653 76.2608 89.0214 76.051 83.5987C75.9326 80.537 75.928 78.7902 75.9049 77.7696C75.8665 76.0328 77.5642 75.9359 78.3035 75.7715C83.6369 74.5618 88.9996 74.2514 94.9332 73.8687C97.3064 73.715 102.305 73.7372 103.212 73.7495C108.515 73.8202 110.008 73.0633 117.689 72.7128C119.61 72.6244 121.116 73.1824 122.003 72.9672C122.891 72.752 122.105 71.5662 122.603 71.5462C126.569 71.3871 126.766 71.2603 128.194 71.4448C130.381 71.7276 131.396 71.7921 131.782 71.2219C132.402 70.3043 132.089 69.1784 132.363 68.214C132.472 67.5249 132.518 66.8272 132.5 66.1298C132.517 65.8992 133.007 63.6398 133.316 62.1458C133.414 61.2049 133.753 60.305 134.299 59.5329C134.756 58.8866 134.53 59.7473 135.209 59.994C135.339 60.0424 135.642 59.8933 135.473 59.6489C134.382 58.0689 134.793 59.5875 136.011 56.1338C136.287 55.3499 136.032 55.3484 136.534 55.3484C141.413 55.3484 141.021 55.0025 144.089 56.9061C144.603 57.2181 147.482 59.2862 147.681 59.5552Z" fill="#FFF5DB"/>
<path d="M135.964 52.8735C136.002 54.0976 135.809 55.318 135.394 56.4702C134.844 57.6821 134.213 58.855 133.503 59.9807C132.861 61.1957 132.705 63.0978 132.392 64.5725C132.102 65.9336 132.123 66.759 130.632 66.9242C128.947 67.1117 127.595 66.3993 123.715 66.825C123.491 66.8496 123.639 66.8696 123.347 64.5433C123.039 62.0488 122.857 62.3054 123.294 62.1763C124.636 61.7922 125.905 61.1879 127.049 60.388C128.52 59.4827 130.879 56.0321 132.091 54.7925C133.151 53.7097 132.494 53.7804 133.945 51.265C134.014 51.1446 134.12 51.0493 134.247 50.9927C134.374 50.9362 134.515 50.9214 134.651 50.9504C134.787 50.9795 134.91 51.0509 135.003 51.1544C135.096 51.2579 135.153 51.3881 135.167 51.5263C135.158 51.9543 135.083 52.3783 134.946 52.7836C134.938 52.8379 134.951 52.8931 134.982 52.938C135.014 52.9829 135.061 53.014 135.115 53.0249C135.169 53.0358 135.225 53.0258 135.271 52.9967C135.318 52.9677 135.351 52.922 135.365 52.8689C135.574 52.4193 135.519 52.2541 135.727 52.261C135.993 52.2649 136.002 52.613 135.964 52.8735Z" fill="#FFF59E"/>
<path d="M134.775 89.0216C134.831 90.0975 134.874 91.1803 134.863 92.2601C134.751 104.107 135.149 103.808 134.57 103.792C131.423 103.698 125.527 103.756 122.812 103.818C122.26 103.83 122.264 103.647 122.174 103.496C121.457 102.305 120.133 102.006 118.752 102.145C117.855 102.235 116.491 102.728 116.159 103.238C115.827 103.749 115.359 103.694 114.632 103.709C113.356 103.734 113.809 103.331 112.457 103.08C111.271 102.94 110.074 103.232 109.086 103.902C108.619 104.164 104.961 103.902 98.7779 103.921C95.604 103.928 26.0001 104.005 20.8734 103.907C18.1613 103.855 18.169 102.972 18.1644 102.548C18.1298 99.1428 18.1967 99.3012 18.1414 99.2996C18.4388 89.7225 17.1346 88.5712 21.1754 88.6358C21.9793 88.6489 22.9922 88.7365 24.2741 88.7634C24.3509 88.7634 73.1397 89.5695 74.5784 89.4028C76.2806 89.2045 75.9133 88.054 76.1922 88.3745C77.2574 89.6041 78.3679 89.0961 83.4739 89.2122C88.1702 89.319 98.0548 88.552 99.2537 88.5113C106.813 88.2561 134.775 89.0062 134.775 89.0216Z" fill="#FFF5DB"/>
<path d="M132.009 66.8915C132.094 67.9928 131.807 67.8905 131.797 69.3384C131.781 71.7731 131.127 71.2128 127.331 70.8808C126.544 70.8124 122.364 71.2389 122.363 70.9776C122.363 70.4781 122.317 67.5962 122.816 67.5501C124.353 67.3964 123.515 67.1489 126.706 67.0191C128.554 66.943 130.31 67.7453 132.009 66.8915Z" fill="#FFF59E"/>
<path d="M130.407 41.0173C130.473 41.5153 130.498 45.6829 130.467 49.4532C130.44 52.6609 130.566 55.871 130.373 56.1C130.125 56.3951 129.522 57.0115 128.243 58.6461C126.883 60.1565 125.097 61.2201 123.121 61.6971C122.593 61.8239 122.871 61.2229 122.32 61.0408C121.656 60.8917 120.962 60.9469 120.33 61.1991C119.765 61.1152 119.19 61.111 118.623 61.1868C117.776 61.3205 116.922 61.4097 116.066 61.4542C113.831 61.6209 111.587 61.5818 109.36 61.3374C106.797 61.1745 106.853 61.2206 105.786 61.1668C95.2921 60.6365 95.8792 59.7135 92.6223 59.7835C89.3407 59.8603 91.0853 59.9864 89.0303 59.9894C84.9261 59.796 80.8147 59.8091 76.7118 60.0286C76.3944 60.0463 76.3276 59.9718 76.3729 59.2401C76.3914 58.9181 76.4152 47.8724 76.3314 45.0619C76.2615 42.7564 76.2761 41.3877 76.3176 40.4178C76.302 39.9201 76.4455 39.4305 76.7272 39.0199C77.0792 38.5657 77.5126 38.4696 78.743 38.4051C79.0904 38.3874 126.882 38.6303 127.949 38.6894C130.507 38.8324 130.212 39.5479 130.407 41.0173Z" fill="#FFF5DB"/>
<path d="M123.053 66.2727C123.143 67.1265 123.514 67.1027 121.837 67.2065C121.258 67.2426 121.222 67.4693 121.198 66.3711C121.192 66.0729 120.687 65.8608 120.737 67.1396C120.76 67.6999 107.212 66.6785 99.5657 65.0762C91.4011 63.3662 90.0615 66.1874 81.1538 64.4959C79.7536 64.3495 78.3463 64.2812 76.9385 64.2915C75.5682 64.1839 75.9986 64.0179 72.3628 64.5436C72.0946 64.582 72.0807 64.9739 72.4289 64.9378C77.3965 64.4298 75.7181 64.7949 77.2313 64.8033C82.2135 64.8287 79.4515 64.9055 83.9988 65.4666C86.0247 65.5634 88.0545 65.5408 90.0777 65.3989C92.1908 65.0059 94.348 64.905 96.4886 65.0992C100.024 65.359 99.4005 66.3365 114.856 67.447C120.339 67.8405 119.917 67.6776 119.943 67.9189C120.013 68.5675 119.744 69.5481 120.109 69.6165C120.226 69.638 120.256 69.5274 120.286 69.2876C120.337 68.888 120.337 68.2255 120.38 67.9189C120.383 67.8821 120.399 67.8478 120.427 67.8234C120.455 67.7989 120.491 67.7863 120.528 67.7882C122.951 67.4954 122.046 67.3217 121.93 69.5304C121.744 73.0725 122.633 72.6529 120.425 72.4784C120.029 72.4469 120.337 71.5109 120.212 70.3781C120.173 70.2352 119.918 70.2536 119.897 70.4227C119.652 72.3124 120.009 72.3985 119.585 72.3755C115.839 72.3048 112.094 72.5163 108.38 73.0079C101.965 73.7096 93.0034 72.3931 79.6244 74.9292C77.8269 75.2704 76.8271 75.2827 75.8895 76.1381C75.6435 76.3625 75.7173 76.8682 75.4391 76.5746C74.9941 76.2214 74.4476 76.0202 73.8798 76.0005C73.0414 75.8899 65.1388 75.9813 65.1634 75.5655C65.1688 75.4656 65.789 75.4226 65.8205 74.9922C65.8689 74.3505 66.0034 73.8541 65.4477 73.6681C65.3509 73.6358 65.2871 73.4929 65.2495 73.2838C65.2126 71.241 65.3442 69.1985 65.6429 67.1773C65.8466 66.6992 66.104 67.0666 66.1863 66.1052C66.2516 65.3275 65.8566 65.5857 65.8389 65.1507C65.7882 63.8604 66.0941 63.7674 66.0049 62.1535C66.0065 62.0566 66.0295 61.9612 66.0723 61.8741C66.1151 61.7871 66.1766 61.7106 66.2524 61.6501C66.4629 61.4142 66.7742 61.2382 67.0086 61.4519C67.91 62.2726 69.4924 60.3598 80.7949 60.2653C81.684 60.2584 80.3983 60.3352 85.522 60.336C89.5182 60.336 88.2563 60.781 91.7807 60.2591C94.2676 59.891 95.4304 60.7249 98.5482 61.0907C100.478 61.3166 100.566 61.1906 101.925 61.2813C102.325 61.3074 104.999 61.6817 106.157 61.6463C108.599 61.5695 110.118 61.8961 113.169 61.9491C120.999 62.0851 120.095 60.2906 120.571 63.8373C120.562 64.0654 120.574 64.2938 120.606 64.5198C120.765 64.7741 121.008 64.7088 120.996 64.4706C120.83 61.1322 120.182 61.5041 121.636 61.4257C122.648 61.3673 122.578 61.7339 123.053 66.2727ZM73.8437 73.6919C73.9359 73.6104 75.2101 72.905 74.3893 72.1065C73.0671 70.8525 71.3929 70.033 69.5915 69.7579C69.298 69.7187 67.8393 69.5712 67.3421 69.9255C67.0839 70.1091 67.0532 70.5034 67.1239 71.3034C67.2053 72.2171 68.7485 70.6256 73.0191 73.5374C73.3065 73.7334 73.577 73.9294 73.8437 73.6919Z" fill="#D3B9A3"/>
<path d="M75.9349 48.9548C75.981 52.0734 75.9042 58.0632 75.8427 59.6133C75.8335 59.8515 75.7927 59.9852 75.5153 60.0144C69.9329 60.6085 70.0704 60.8637 67.7065 61.1864C67.1455 61.2633 66.8281 60.3603 66.0042 61.2079C65.5347 61.6921 65.5524 61.0904 64.0061 61.1757C63.5627 61.2003 64.083 60.7914 63.1554 60.1851C62.6067 59.8239 62.9901 59.6079 62.4099 59.3166C62.0103 59.1161 61.8458 59.0769 61.7544 58.8317C61.6907 58.7017 61.5925 58.5918 61.4705 58.514C61.3485 58.4362 61.2074 58.3935 61.0627 58.3906C60.862 58.4117 60.6592 58.4029 60.461 58.3645C60.2519 58.2999 60.1444 58.0571 59.7847 57.9864C59.5328 57.9189 59.2649 57.9463 59.0319 58.0633C58.7989 58.1804 58.6169 58.3788 58.5205 58.6211C58.4438 58.7814 58.4242 58.9631 58.4652 59.136C58.3353 59.2221 58.1941 59.2896 58.0456 59.3366C57.8442 59.4273 57.4584 59.5272 57.3255 59.7716C56.8843 60.5808 57.0519 60.617 56.7691 60.4341C55.5239 59.7331 54.1042 59.403 52.6775 59.4826C51.8346 59.403 50.9872 59.3824 50.1414 59.4212C49.0017 59.4942 48.0357 59.1414 46.6586 59.2336C46.0099 59.2775 45.7079 59.1722 44.9678 59.2129C44.2278 59.2536 43.7382 59.3843 42.0782 59.5203C41.1384 59.5972 40.2561 59.5441 39.6805 59.5587C39.5084 59.5633 39.4807 59.5587 39.2486 58.9439C39.1571 58.7011 38.3133 56.8321 37.0145 53.7181C36.7532 53.0933 37.1106 52.4016 36.4505 49.9754C36.2353 49.1846 35.8864 49.0225 36.0762 48.6374C36.3244 48.1333 36.2806 46.6824 35.8257 46.4664C35.6335 46.3757 35.6151 46.1213 35.3984 46.0737C34.8888 43.7735 34.6706 44.6988 33.8575 43.7682C33.6353 43.5421 33.3461 43.3936 33.0329 43.3446C32.7197 43.2956 32.399 43.3487 32.1184 43.4961C32.0314 43.5506 31.9267 43.569 31.8263 43.5476C31.3652 43.4792 30.6013 42.9904 27.0055 45.0016C26.539 45.2629 26.7396 44.5774 25.9073 44.8602C25.5061 44.997 25.3455 45.2353 25.3002 45.0185C25.2919 44.8933 25.2568 44.7714 25.1972 44.661C25.1376 44.5506 25.055 44.4543 24.9549 44.3787C24.8548 44.3031 24.7395 44.2499 24.6171 44.2228C24.4946 44.1957 24.3677 44.1953 24.245 44.2216C23.5426 44.343 23.4703 44.6496 23.4496 43.9142C23.4196 42.879 23.2797 39.7297 23.996 38.9919C25.0004 37.9575 26.7173 38.0827 29.8082 38.135C53.6651 38.5385 73.8346 38.1542 74.6892 38.4201C75.9326 38.8205 75.7989 39.7519 75.9349 48.9548Z" fill="#FFF5DB"/>
<path d="M74.0637 72.3144C74.2604 72.5357 74.3649 72.6464 74.2266 72.8185C73.1929 73.8875 73.85 73.2612 71.1418 72.0746C68.8024 71.0502 67.8303 71.552 67.5528 71.1962C67.4872 70.995 67.4719 70.7807 67.5083 70.5722C67.5136 70.4185 67.5144 70.2909 67.6789 70.2071C68.2376 69.9212 69.6824 70.0534 70.9958 70.4938C72.1653 70.8095 73.2262 71.4391 74.0637 72.3144Z" fill="#B29C8B"/>
<path d="M75.5186 81.4683C75.4379 74.8269 76.3417 76.9341 62.6077 76.1541C62.4255 76.1433 59.0725 76.2202 56.6402 76.231C56.3973 76.231 56.3128 76.3493 56.1637 76.5768C55.6886 77.2397 55.091 77.8056 54.403 78.2437C53.9074 78.5618 53.912 78.2821 53.8059 78.4742C53.623 78.8047 53.3448 79.0706 53.1573 79.3964C52.9698 79.7223 51.3582 79.6132 50.9102 79.7807C50.6926 79.8282 50.4661 79.8127 50.257 79.736C50.048 79.6594 49.8651 79.5248 49.7297 79.348C49.4385 79.0037 49.3055 79.8038 48.3856 79.5471C47.5687 79.3165 46.8401 79.899 46.1992 79.1036C45.5252 78.2644 45.815 79.0521 42.3805 78.1307C40.2625 77.562 39.537 78.2644 37.3675 77.1847C36.0449 76.5253 34.5409 76.8004 33.3774 76.327C32.6173 76.0196 33.1469 76.3747 31.141 76.4607C28.4098 76.5806 29.5479 76.5775 27.6059 76.2409C26.9235 76.1241 23.4698 76.948 21.6745 75.3103C21.3671 75.0321 21.3256 75.2749 19.9838 75.8897C17.9388 76.8281 17.1334 77.3768 16.9636 78.2998C16.8906 78.8885 17.5899 86.1301 17.6683 86.8556C17.7744 87.8547 18.1002 88.2643 19.2445 88.2105C21.9051 88.0867 20.159 88.3703 52.3673 88.7407C57.0552 88.793 73.7672 89.2564 74.8984 88.7953C76.2333 88.2512 75.5847 86.582 75.5186 81.4683ZM34.3327 77.9747C32.5244 77.6004 18.4614 77.8979 18.4184 77.5904C18.3953 77.4291 18.4368 77.2892 18.7857 77.283C23.7464 77.2523 29.83 77.1401 35.0451 77.6319C37.0931 77.8241 38.2267 77.5843 38.2367 77.9578C38.2467 78.4689 34.6992 78.0516 34.3327 77.9747ZM74.1668 77.4952C74.0069 77.5167 69.057 77.4951 64.4728 77.4998C60.5427 77.5044 56.9161 77.5413 56.4119 77.5413C56.1491 77.5413 56.2021 77.157 56.3689 77.114C56.5564 77.0725 60.3913 77.1201 64.4467 77.114C68.1255 77.1063 71.9012 77.0571 74.1453 77.0571C74.1954 77.0655 74.2412 77.0907 74.2751 77.1287C74.3089 77.1667 74.3287 77.2151 74.3312 77.2659C74.3337 77.3167 74.3188 77.3669 74.2889 77.408C74.259 77.4491 74.2159 77.4788 74.1668 77.4921V77.4952Z" fill="#FFF5DB"/>
<path d="M65.76 65.8671C65.8043 66.0893 65.7741 66.32 65.6739 66.5234C65.6032 66.6171 65.498 66.6079 65.3412 66.5387C64.7579 66.3395 64.1424 66.2519 63.5267 66.2805C62.6476 66.2037 62.2894 66.5003 62.3202 66.219C62.3809 65.6765 62.324 65.5312 62.729 65.4867C63.6892 65.3002 64.6806 65.353 65.6155 65.6404C65.6565 65.6632 65.6912 65.6959 65.7164 65.7355C65.7417 65.775 65.7566 65.8203 65.76 65.8671Z" fill="#D3B9A3"/>
<path d="M65.149 61.72C65.677 61.7969 65.6485 62.0751 65.5732 63.0042C64.8663 62.8169 64.1322 62.7539 63.4037 62.8182C63.1255 62.8674 63.5966 61.9191 63.7111 61.6985C63.8011 61.5156 64.7017 61.6547 65.149 61.72Z" fill="white"/>
<path d="M65.1015 63.3718C65.5734 63.464 65.5265 63.4932 65.4973 63.7376C65.3505 64.9834 65.4804 65.1401 65.2229 65.1209C64.6324 65.0039 64.0294 64.9626 63.4285 64.998C63.0227 65.0302 62.9673 65.1609 63.0088 64.7513C63.1625 63.2019 63.1818 63.2742 63.47 63.2496C64.0168 63.2144 64.566 63.2556 65.1015 63.3718Z" fill="#B29C8B"/>
<path d="M65.4302 74.2203C65.4597 74.4507 65.4248 74.6847 65.3295 74.8966C65.1651 75.0311 64.9015 74.8966 64.5557 74.8658C62.2501 74.6814 61.61 75.1963 61.6215 74.5092C61.6307 73.919 61.5954 73.7215 63.3837 73.8452C64.0421 73.8374 64.6987 73.9165 65.3365 74.0804C65.364 74.0921 65.3875 74.1115 65.4042 74.1364C65.4209 74.1612 65.4299 74.1904 65.4302 74.2203Z" fill="#D3B9A3"/>
<path d="M64.8476 70.8265C64.7454 73.1919 64.8538 73.4886 64.5909 73.5032C64.468 73.5093 62.3623 73.3672 62.2854 73.3618C62.3036 71.4854 62.4365 69.6118 62.6835 67.7517C62.7688 66.9716 62.7527 66.6166 63.1692 66.6519C66.0157 66.8948 65.0451 66.2515 64.8476 70.8265Z" fill="#B29C8B"/>
<path d="M62.4767 75.2276C62.8302 75.2122 64.8038 75.0447 64.7822 75.3974C64.7646 75.7048 64.7607 75.7048 64.4426 75.6987C62.137 75.6664 62.3 75.6387 62.31 75.379C62.3161 75.2629 62.3707 75.2322 62.4767 75.2276Z" fill="#B29C8B"/>
<path d="M62.457 60.1005C62.6392 60.6731 63.3793 60.6139 63.3347 61.2433C62.7465 62.9851 61.9119 64.6336 60.8562 66.1387C60.2548 67.2813 59.7645 68.479 59.3922 69.7153C58.345 72.0378 57.0944 74.2632 55.655 76.3652C55.221 76.9564 54.6839 77.4643 54.0695 77.8646C53.6277 78.149 52.9429 77.256 52.6509 76.8202C51.5181 75.1256 51.575 73.0138 51.0762 71.9517C50.8741 71.514 50.8046 71.0267 50.8764 70.5499C51.0539 69.3119 53.1435 68.9776 54.8296 67.1324C55.8407 66.0197 56.694 64.7733 57.3657 63.4282C57.5066 63.2253 57.5936 62.9899 57.6185 62.7442C57.6339 61.709 57.202 61.6683 57.3342 61.0466C57.6062 59.7716 58.1411 59.8169 58.2856 59.7624C59.0003 59.4873 58.4178 60.1758 58.3532 60.6385C58.3232 60.8537 58.5991 61.0028 58.7098 60.7814C59.5206 59.156 58.7098 59.4342 58.885 58.8225C59.0272 58.3137 59.6589 58.1931 60.077 58.6857C60.2768 58.9209 60.6265 58.8156 60.9262 58.8271C61.1045 58.834 61.2989 58.904 61.3381 59.0577C61.5056 59.7286 62.2642 59.4857 62.457 60.1005Z" fill="#FFCEB6"/>
<path d="M62.6259 64.1403C62.5752 64.8504 62.5783 64.8104 62.5706 64.8519C62.4891 65.293 62.0449 64.9287 62.0011 65.4944C61.952 66.1222 61.7644 66.558 62.1325 66.7893C62.4353 66.9791 62.3316 67.0967 62.0211 69.7542C61.6084 73.2771 62.0657 73.3877 61.683 73.4799C61.3003 73.5722 61.2657 73.8834 61.2388 74.479C61.1976 74.6957 61.2357 74.9199 61.3464 75.1107C61.4572 75.2046 61.5938 75.2628 61.7383 75.2775C61.9012 75.528 61.7383 75.6471 61.4985 75.6617C61.1635 75.6848 58.9509 75.7386 58.1494 75.754C55.7186 75.8008 56.8867 76.1167 59.4643 70.7164C60.5171 68.5146 60.1298 67.7461 62.6259 64.1403Z" fill="#D4F2E2"/>
<path d="M57.0383 61.9066C57.1666 62.1233 52.0775 60.7823 47.8031 61.2503C47.1399 61.2663 46.4766 61.2257 45.8203 61.1289C45.3869 61.1112 44.9212 61.1681 44.3755 61.1443C43.6297 61.0759 42.8788 61.0842 42.1346 61.1689C40.7487 61.2864 39.3707 61.4839 38.0077 61.7606C36.6958 62.058 36.8119 61.7498 35.5638 62.0403C35.198 62.1249 35.1657 62.3985 35.6468 62.36C37.1201 62.2417 37.1938 62.4423 38.2336 62.1618C39.7576 61.7498 39.6169 62.0411 42.0946 61.5055C43.5855 61.1835 44.0067 61.5977 44.8858 61.5101C46.2453 61.3748 46.2822 61.7791 47.7017 61.6223C50.7557 61.2849 54.3231 61.8928 56.8169 62.3969C57.5324 62.5414 56.9145 63.3191 56.5603 63.9993C54.7819 67.4107 52.6309 68.1492 50.9694 69.4173C50.6427 69.6663 50.8556 68.9815 50.1755 68.8793C49.2702 68.7448 49.5123 69.0069 48.5516 69.2282C48.3902 69.2659 48.3503 68.7064 47.6432 68.6903C47.0446 68.6795 46.9262 68.2714 46.293 68.5734C45.0849 69.1483 44.9258 68.4259 43.3065 68.0539C42.2645 67.8142 41.904 68.0163 40.8542 67.7711C40.1859 67.6144 39.4979 67.5584 38.8131 67.6051C38.0077 67.6051 36.8004 66.646 34.9997 66.7313C34.418 66.759 32.8433 66.3932 31.6398 67.5267C31.3024 67.8049 31.007 68.1306 30.7629 68.4935C30.6653 68.6964 30.8598 68.9216 31.1049 68.6349C31.618 67.8846 32.4015 67.3619 33.2913 67.1763C33.8945 67.106 34.5036 67.1034 35.1073 67.1686C37.0155 67.1371 37.3429 68.0078 39.1189 68.0639C39.9127 68.1017 40.7032 68.1895 41.4859 68.3267C43.7846 68.4658 43.5486 68.6341 44.4693 68.9623C45.3147 69.2643 45.5452 69.1882 45.3915 69.3665C45.0841 69.727 45.161 69.9813 44.8274 71.0765C44.5884 71.8726 44.819 72.2093 44.8067 73.1584C44.8028 73.4658 45.1141 73.5941 45.2632 73.4811C45.5145 73.2882 44.7829 72.0978 45.5122 70.1135C45.8964 69.0607 46.6134 68.8839 46.761 68.9377C47.3182 69.1583 48.1597 69.1806 47.9745 69.7539C47.6525 70.7476 47.6786 70.6845 47.83 72.1654C47.8807 72.6634 48.2911 72.5804 48.2711 72.3484C48.2273 71.9095 48.2896 71.4669 48.2081 71.0258C48.1266 70.5846 48.3019 69.8276 48.7245 69.6616C50.2154 69.076 50.4967 69.0883 50.3968 70.7891C50.3338 71.8757 50.8679 72.1024 51.0378 73.5088C51.3859 76.3923 52.531 77.5389 53.3025 78.2374C53.4562 78.3758 53.2426 78.3835 52.9782 78.833C52.7923 79.1497 52.3834 79.1866 51.9884 79.1635C50.4237 79.0736 50.622 80.1994 49.0143 77.4536C48.8022 77.0916 48.8606 76.569 48.63 76.5752C48.2381 76.5851 48.4517 77.3629 48.6431 77.7056C48.7883 77.9639 49.1395 78.4419 49.1887 78.5287C49.48 79.0421 48.7845 79.1635 48.3149 79.0313C48.0693 78.9648 47.8105 78.9648 47.5649 79.0313C47.2423 79.0866 46.9106 79.023 46.6312 78.8525C46.3519 78.6819 46.1438 78.4159 46.0455 78.1037C45.81 77.5435 45.6523 76.9537 45.5767 76.3508C45.5906 75.8481 44.7898 75.6483 45.4407 77.6226C45.7343 78.5149 46.1162 78.4081 41.6289 77.4951C40.4292 77.2507 39.912 77.8025 37.0893 76.5728C36.2516 76.2078 34.6616 76.2439 33.774 75.9796C32.1341 75.436 30.676 74.4504 29.5602 73.1315C28.8468 72.3356 28.2995 71.4053 27.9504 70.3951C27.6013 69.3848 27.4576 68.3151 27.5275 67.2485C27.5275 66.8643 27.5375 66.48 27.5275 66.0958C27.4799 64.6955 26.0051 63.2146 26.5607 63.0986C28.3621 62.7328 29.4373 63.0871 31.556 62.4338C32.0684 62.2982 32.5901 62.2006 33.1169 62.1418C33.2983 62.111 33.3528 62.1879 33.369 62.3723C33.3335 62.933 33.4012 63.4954 33.5688 64.0315C33.7993 65.1036 27.9471 64.767 28.0209 65.1897C28.0639 65.4356 28.1562 65.4033 28.6296 65.3957C35.1542 65.2827 34.0329 64.4181 33.7786 63.0632C33.6887 62.5844 33.9622 61.8743 33.2022 60.9936C32.9509 60.6663 31.8834 61.019 31.8458 60.7469C31.7912 60.3473 31.8319 60.6947 33.1899 59.5803C33.3436 59.4543 33.2775 59.4266 33.6894 58.7849C34.5133 57.5077 33.0608 57.3248 33.1392 56.7246C33.2268 56.0606 32.8402 56.066 32.8625 55.8262C32.9463 54.9501 32.383 55.279 32.3653 54.9255C32.3415 54.4644 31.9395 54.5474 31.9288 54.3437C31.875 53.367 31.0773 53.4938 31.377 53.1525C31.6644 52.859 31.8489 52.4801 31.9026 52.0728C31.9203 51.564 31.6629 51.3204 31.1879 51.1237C30.713 50.9269 30.454 51.2413 30.112 51.5656C29.82 51.8407 30.006 51.2881 29.6448 51.335C29.468 51.3604 29.1122 50.9892 29.4572 50.8516C30.4209 50.5622 31.2812 50.002 31.9357 49.2378C32.3009 48.867 32.6006 48.4369 32.8218 47.9659C33.3843 46.3435 33.6356 45.8978 33.3075 44.9249C32.9447 43.849 32.3568 43.8528 32.6158 43.7867C32.791 43.7615 32.9696 43.779 33.1366 43.8376C33.3036 43.8962 33.4539 43.9942 33.5749 44.1233C34.1897 44.8503 34.5955 44.5306 34.8268 45.4298C35.1519 46.6963 34.8752 46.4965 34.5686 48.1611C34.5294 48.3763 34.7907 48.5376 34.9175 48.2318C35.4124 47.046 35.3287 46.5726 35.4462 46.7509C36.2539 47.9728 35.5154 48.5084 35.2526 49.506C35.1296 49.974 34.7346 50.2061 34.1083 50.9661C33.661 51.5041 33.7455 52.3879 32.2638 53.0303C32.1547 53.078 31.9342 53.1026 32.0333 53.3378C32.1155 53.5376 32.2392 53.5314 32.7972 53.2501C34.1505 52.5692 33.8908 51.8922 34.5824 51.1598C35.9704 49.682 35.6737 49.2385 35.8274 49.5382C36.2369 50.5917 36.4454 51.7126 36.4422 52.8428C36.4345 53.5883 36.4007 53.6774 39.0098 59.412C39.1266 59.6687 39.1958 59.6426 37.2276 60.0699C36.3054 60.2174 36.1779 60.4149 34.9398 60.594C34.6685 60.6332 34.7346 60.7224 34.7723 60.8246C34.8253 60.9637 35.5669 60.8737 37.2707 60.4188C38.1349 60.1257 39.0389 59.9666 39.9512 59.9469C41.1984 60.04 42.4524 59.9625 43.6785 59.7164C44.1242 59.6334 45.8011 59.5719 46.3345 59.5673C47.4081 59.5591 48.4808 59.6362 49.5422 59.7978C50.9079 59.7204 52.2778 59.7719 53.6338 59.9515C54.7402 59.9401 55.823 60.271 56.7339 60.8991C56.9614 61.0782 56.6963 61.3325 57.0383 61.9066Z" fill="#D4F2E2"/>
<path d="M32.8024 56.6669C32.6841 57.5814 34.1089 57.7013 33.3534 58.5981C33.0145 59.0024 33.0576 59.2129 32.8793 59.3459C31.8894 60.0936 31.8418 60.1805 31.051 60.2174C29.5393 60.2881 29.7391 60.5294 29.3349 60.3234C28.8369 60.0698 28.7585 60.3188 28.2736 59.9545C27.751 59.5618 27.5489 60.0721 27.0962 59.4642C26.7573 59.0093 26.3907 59.0723 26.1563 58.4936C25.988 58.0771 25.6046 58.1678 25.241 57.4492C24.9252 56.8244 24.6508 57.0511 24.514 56.653C24.3196 56.0874 23.09 55.9299 23.3851 55.7854C24.2881 55.3427 25.0697 54.5796 25.2295 55.5179C25.4301 56.6884 26.2747 55.9529 26.6958 56.9497C26.8595 57.3385 27.0716 57.1564 27.7279 57.4999C28.2421 57.7689 28.4503 57.5522 28.6156 57.1649C28.9268 56.4386 28.4142 56.6891 28.7478 55.9099C28.8945 55.5671 29.3948 55.833 29.5163 55.0153C29.6177 54.3237 30.0888 54.5804 30.5922 53.9171C30.6375 53.8424 30.7021 53.7812 30.7792 53.74C30.8563 53.6988 30.943 53.6791 31.0304 53.6828C31.1177 53.6866 31.2024 53.7138 31.2757 53.7615C31.3489 53.8092 31.408 53.8757 31.4468 53.954C31.4955 54.0086 31.5319 54.0731 31.5534 54.143C31.5749 54.213 31.5809 54.2868 31.5711 54.3593C31.5613 54.4319 31.5359 54.5014 31.4967 54.5632C31.4574 54.6249 31.4053 54.6775 31.3438 54.7172C31.1684 54.8674 30.9688 54.987 30.7536 55.0707C30.1503 55.3158 30.357 55.6494 30.0073 55.8069C29.5462 56.0121 29.6723 56.9428 30.0696 57.2671C31.2047 58.1893 31.2047 57.1134 32.6057 56.3695C32.7824 56.2711 32.8224 56.3718 32.8024 56.6669Z" fill="#585858"/>
<path d="M32.8346 61.2016C32.9806 61.2508 33.0451 61.5213 33.1696 61.7242C32.9442 61.8126 32.7104 61.878 32.4718 61.9194C32.1529 61.9724 32.1644 61.6973 32.063 61.4153C31.9915 61.2162 31.9662 61.1847 32.4119 61.1694C32.5536 61.1555 32.6966 61.1664 32.8346 61.2016Z" fill="#D4F2E2"/>
<path d="M32.4951 55.5859C32.7472 55.9855 32.0816 56.0339 31.36 56.7855C30.9512 57.2113 30.8712 57.3711 30.6084 57.2266C30.0489 56.9192 30.0482 56.7194 30.0451 56.4074C29.9897 55.9379 30.4293 56.0285 30.5331 55.6658C30.5999 55.4306 30.736 55.5121 31.5229 54.9941C31.6128 54.9342 31.7281 54.7298 31.9448 54.9173C32.2615 55.1862 30.9127 55.5321 30.7437 56.2383C30.7306 56.2921 30.7552 56.4743 30.9742 56.3797C30.9919 56.3705 32.2031 55.1217 32.4951 55.5859Z" fill="#FFCEB6"/>
<path d="M33.0284 45.7795C32.2968 48.8904 31.8803 48.5231 31.5683 49.0011C30.9672 49.6926 30.1833 50.2005 29.3065 50.4666C28.9223 50.6357 29.1013 50.0708 28.2637 49.3715C27.8039 48.9948 27.3076 48.6653 26.782 48.3878C27.2316 48.0451 27.8341 47.6961 27.5928 46.8423C27.4006 46.1684 26.7674 46.5457 26.9011 46.0738C27.1017 45.356 26.4131 45.5412 30.394 44.0058C30.6846 43.8866 31.0001 43.8409 31.3125 43.8728C31.625 43.9047 31.9247 44.0131 32.1853 44.1885C32.4458 44.3639 32.659 44.6009 32.8061 44.8784C32.9532 45.1559 33.0295 45.4654 33.0284 45.7795Z" fill="#FFCEB6"/>
<path d="M31.4522 60.7777C31.7534 61.8767 31.9033 61.9374 31.6827 61.9743C30.511 62.31 29.2996 62.4876 28.0807 62.5022C26.526 62.4016 26.3132 63.051 25.9235 62.6559C25.0013 61.7068 25.1942 60.6486 23.5335 59.2607C23.3913 59.1431 23.4466 59.0885 23.7586 58.8434C24.0868 58.5859 24.3442 57.9611 24.0368 57.9119C23.6042 57.8428 23.6311 59.0739 22.187 58.7573C19.5203 58.1694 20.8675 55.3267 22.0395 55.8631C22.3138 55.99 22.5962 56.0986 22.8848 56.1882C23.224 56.2276 23.5502 56.3415 23.8401 56.5217C24.252 56.6654 24.1229 56.9413 24.6025 57.2764C25.0374 57.5799 24.7669 57.7513 25.5792 58.4161C25.9589 58.7235 25.8213 58.941 26.3693 59.3175C26.7889 59.6065 26.9587 60.1521 27.7426 60.1783C28.0976 60.1898 28.3328 60.5979 28.89 60.5748C29.1113 60.5656 29.4003 60.9053 29.8721 60.75C30.3301 60.6413 30.8019 60.6019 31.2716 60.6332C31.3861 60.6255 31.4222 60.6693 31.4522 60.7777ZM22.2447 57.1534C21.9872 58.1233 23.5511 58.2293 23.4251 57.6145C23.3383 57.1818 23.0785 57.6914 22.6827 57.4677C22.4168 57.3194 22.8303 57.0758 22.5705 56.73C22.2139 56.255 21.5822 56.0045 21.2326 56.5086C21.117 56.7036 21.0676 56.9307 21.0917 57.156C21.1158 57.3814 21.2121 57.5929 21.3663 57.759C21.9557 57.8428 21.1065 56.9352 21.6445 56.6531C21.8589 56.5409 22.0287 56.7038 22.1909 56.813C22.3169 56.8952 22.2808 57.0197 22.2447 57.1534Z" fill="#FFCEB6"/>
<path d="M31.3122 51.6499C32.3343 52.5606 29.2434 54.2451 29.2103 54.6809C29.2112 54.814 29.178 54.9451 29.114 55.0619C29.05 55.1786 28.9572 55.2771 28.8445 55.3479C28.1137 55.6961 28.3381 56.2248 28.2443 57.1155C28.2213 57.3322 28.0307 57.1854 27.7725 57.0802C27.0808 56.7981 27.07 56.9142 26.9409 56.636C26.8478 56.4692 26.7218 56.323 26.5706 56.2064C26.4193 56.0898 26.2459 56.005 26.061 55.9574C25.5092 55.8106 25.7213 55.5731 25.44 55.009C25.3394 54.8046 25.3248 54.7523 25.5092 54.6586C27.2422 53.7825 26.6189 55.3426 27.8508 54.7477C29.0997 54.1452 30.1948 53.1477 29.779 52.559C29.6561 52.3853 29.4655 51.9265 29.7483 52.0103C30.5375 52.2439 30.6159 51.0297 31.3122 51.6499Z" fill="#FFCEB6"/>
<path d="M28.8338 50.8735C29.1843 51.9625 29.0598 51.2109 28.4442 51.3738C27.957 51.5029 25.9627 52.4912 26.0549 53.5371C26.0522 53.5726 26.041 53.6069 26.0223 53.6371C26.0035 53.6673 25.9778 53.6926 25.9473 53.7108C24.4349 54.5915 24.3234 54.6015 24.2466 54.497C23.7086 53.7646 23.1707 54.0013 23.4081 53.6517C24.0314 52.7402 22.3699 52.9116 22.9317 52.3029C23.5173 51.6689 22.8318 51.3469 23.0516 51.1156C23.6579 50.4746 22.9209 50.1303 23.4189 50.0504C23.9315 49.969 24.3642 49.9874 24.4602 49.4917C24.511 49.2273 24.5509 49.0652 24.7492 49.0552C25.3475 48.9983 25.9363 48.8672 26.5022 48.6648C27.0181 48.8596 27.49 49.1552 27.8903 49.5344C28.2907 49.9137 28.6114 50.3689 28.8338 50.8735Z" fill="#FFCEB6"/>
<path d="M26.7048 46.7134C27.1252 46.6772 27.3396 46.9347 27.2428 47.3451C27.0844 47.9937 26.5342 47.7747 26.1999 48.3295C25.7068 48.5575 25.1752 48.6905 24.6329 48.7215C24.1595 48.7776 24.1718 49.2149 24.1411 49.2963C23.8828 49.9811 22.8584 49.3793 22.8523 50.0441C22.8426 50.1215 22.8495 50.2 22.8722 50.2746C23.2042 50.974 21.9808 51.0816 22.614 51.5173C23.2696 51.9684 21.791 52.4641 22.4695 52.886C23.0152 53.2257 23.2627 53.2288 23.092 53.4394C22.4304 54.254 23.3749 54.0065 23.9336 54.6882C24.0734 54.8588 23.8882 54.8357 22.6663 55.5735C22.355 55.7618 21.7095 54.931 20.7227 55.9332C20.1325 56.5326 20.4699 57.0567 20.1348 56.9115C17.5396 55.7864 17.4397 56.5003 15.7758 56.0953C15.4623 56.0185 15.1072 55.5497 15.649 54.9756C15.8296 54.7835 15.8335 54.6774 15.6337 54.5145C15.4878 54.3915 15.3285 54.2856 15.1587 54.1986C15.0667 54.1567 14.9838 54.097 14.9148 54.023C14.8459 53.9489 14.7922 53.862 14.757 53.7672C14.7217 53.6724 14.7055 53.5715 14.7093 53.4704C14.7131 53.3693 14.7368 53.27 14.7791 53.1781C14.9973 52.9567 15.1349 52.6516 15.4753 52.5517C15.6544 52.4987 15.6606 52.3673 15.5153 52.232C15.2748 52.0092 14.8828 51.8539 14.9282 51.2883C14.9943 50.4575 15.1695 49.8235 16.1355 49.7736C16.6121 49.817 17.0759 49.9521 17.5011 50.1717C17.6364 50.2178 17.8208 50.081 17.4796 49.6844C16.7288 48.8122 17.7463 47.7132 18.5171 48.3495C18.8668 48.6392 18.9836 48.3703 18.9014 48.2373C18.7576 48.0068 18.4464 47.9376 18.3019 47.7047C18.2343 47.547 18.2114 47.3736 18.2358 47.2037C18.2555 47.0002 18.3238 46.8044 18.435 46.6328C18.5462 46.4612 18.6971 46.3189 18.8748 46.2179C19.0526 46.1168 19.252 46.06 19.4563 46.0522C19.6606 46.0444 19.8638 46.0859 20.0487 46.1731C20.4568 46.313 20.257 46.6142 20.3715 46.7533C20.5252 46.947 20.6674 46.821 20.6905 46.7164C20.6533 46.1935 20.7912 45.673 21.0824 45.2371C21.1545 45.1405 21.2463 45.0604 21.3517 45.002C21.457 44.9436 21.5736 44.9082 21.6937 44.8981C21.8138 44.8881 21.9346 44.9037 22.0482 44.9438C22.1618 44.984 22.2656 45.0478 22.3527 45.131C23.0528 46.0002 22.7662 46.3906 22.8845 46.6304C22.9153 46.6934 23.1197 46.8133 23.1612 46.5981C23.1519 45.9453 23.3692 45.3096 23.776 44.799C23.9201 44.6714 24.1046 44.5988 24.2971 44.5938C24.5 44.5738 24.6982 44.6123 24.7689 44.7475C25.1893 45.5529 24.6537 46.316 25.2408 45.9564C25.2931 45.9241 25.1639 45.6136 25.9394 45.254C26.0191 45.2053 26.1121 45.1825 26.2053 45.1888C26.2986 45.1951 26.3876 45.2302 26.4601 45.2892C26.5326 45.3482 26.585 45.4282 26.6101 45.5183C26.6352 45.6083 26.6318 45.7039 26.6003 45.7919C26.5058 46.1623 26.0316 46.7725 26.7048 46.7134Z" fill="#585858"/>
<path d="M28.5025 72.5074C27.9134 71.6544 27.5068 70.689 27.3082 69.6716C27.0918 68.4826 27.0129 67.2727 27.0731 66.0657C27.0807 65.2411 26.7257 65.0121 26.4713 64.2882C26.0763 63.1631 25.4008 62.8403 24.9243 61.7782C24.2496 60.2742 24.0421 60.4095 23.2005 59.432C22.7656 58.9301 22.3413 59.432 21.3661 58.8809C20.1665 58.2031 20.6299 57.4431 19.9828 57.2371C19.4358 56.9776 18.8604 56.7826 18.2682 56.6561C16.5706 56.5101 16.2924 56.6561 15.6123 56.4517C15.58 56.4425 15.5216 56.4363 15.5147 56.4517C15.4683 56.5266 15.4363 56.6095 15.4202 56.6961C15.4109 56.7729 15.5739 56.7944 15.6868 57.128C15.7168 57.1891 15.7323 57.2563 15.7323 57.3243C15.7323 57.3924 15.7168 57.4596 15.6868 57.5207C15.61 57.689 15.5777 57.7858 15.693 57.8527C15.7742 57.9128 15.8376 57.9939 15.8761 58.0873C15.9147 58.1807 15.9271 58.2829 15.9119 58.3828C15.8967 58.4828 15.8546 58.5766 15.79 58.6544C15.7254 58.7321 15.6409 58.7908 15.5454 58.8241C15.2862 58.9314 15.0186 59.0172 14.7454 59.0808C14.458 59.1507 14.3704 59.2598 14.418 59.5349C14.6859 60.9745 15.133 62.3749 15.7491 63.7033C15.9555 64.0766 16.2089 64.4219 16.503 64.7308C19.4079 67.9178 19.5601 74.288 23.0292 75.5737C24.3087 76.0487 26.8218 76.0387 26.5382 75.7751C24.9934 74.2825 23.8548 72.4206 23.2297 70.3655C22.9223 69.2773 22.3798 68.8485 21.6474 67.8295C20.128 65.723 20.8543 65.7614 19.8913 64.2713C19.1105 63.0655 18.4012 62.5583 18.0415 61.4278C17.4621 59.598 17.3637 59.0262 16.3915 57.6844C16.2548 57.4953 16.0534 57.2809 16.2378 57.2018C16.2916 57.1802 16.3454 57.1295 16.5084 57.3385C17.014 57.9787 17.8917 59.4135 18.1261 59.7471C18.3705 60.1006 18.9438 60.7061 19.3857 61.4378C19.7294 62.0899 20.0253 62.7662 20.271 63.4613C21.2893 66.0158 22.5926 66.689 23.3512 68.8301C24.0574 70.9304 24.5477 70.2503 26.894 75.0988C26.9924 75.3009 27.2314 75.4623 27.3128 75.573C27.5926 75.9572 28.0737 75.7728 28.5847 75.9634C29.4024 76.2708 32.0092 75.9557 32.1583 75.8865C30.6817 75.0761 29.4264 73.9158 28.5025 72.5074Z" fill="white"/>
<path d="M26.379 74.924C26.2883 75.133 25.267 73.8911 24.52 72.6054C24.0199 71.7893 23.6615 70.8944 23.4602 69.9586C24.1526 70.9231 26.1577 73.908 26.379 74.924Z" fill="#D6D6D6"/>
<path d="M23.1959 69.3392C23.1852 69.4268 22.9139 68.9442 22.6411 68.5853C22.165 67.9845 21.7204 67.3594 21.3092 66.7125C20.679 65.5267 20.7267 65.0141 20.9142 65.3391C22.0086 67.232 23.0461 68.2495 23.1959 69.3392Z" fill="#D6D6D6"/>
<path d="M19.5118 72.0286C20.351 74.1297 21.2847 74.7514 20.6838 75.0258C19.471 75.583 19.4695 75.5492 19.4687 75.417C19.458 72.2661 19.3811 72.2154 19.5118 72.0286Z" fill="#FFF5DB"/>
<path d="M20.2204 64.0782C20.2643 64.167 20.2904 64.2636 20.2972 64.3625C20.2665 64.3625 19.8546 63.737 19.8069 63.6709C19.0595 62.8495 18.4991 61.8756 18.1646 60.8166C18.1139 60.6499 17.7035 59.6754 17.7281 59.6462C17.7527 59.617 18.3429 60.5499 18.4536 60.689C19.2438 61.7018 19.8426 62.8504 20.2204 64.0782Z" fill="#D6D6D6"/>
<path d="M19.0145 75.4803C19.0145 75.8138 18.93 75.8123 17.8917 76.3964C15.8168 77.5622 16.6091 77.9964 17.177 86.9534C17.1443 87.372 17.2735 87.7871 17.5379 88.1133C17.8022 88.4394 18.1817 88.6517 18.598 88.7064C18.1692 89.0968 17.7611 89.345 17.7642 91.1433C17.7642 91.3554 17.7465 96.5997 17.6581 102.02C17.6197 104.326 18.8639 104.091 19.4449 104.382C18.6134 104.766 17.7008 104.94 16.7866 104.89C13.8209 104.762 8.35299 104.861 5.76081 104.701C4.97386 104.652 4.71564 103.788 4.64801 102.862C4.56578 101.718 5.06224 65.8194 4.64801 63.5177C4.30987 61.6425 5.31584 60.2085 6.65151 60.2438C7.89342 60.2769 8.52206 60.1071 13.6073 60.2438C14.624 60.2715 13.8494 60.5397 15.5009 64.0741C16.0827 65.3175 16.5953 65.15 17.32 66.81C19.4387 71.6724 18.9845 69.4675 19.0145 75.4803Z" fill="#FFF5DB"/>
<path d="M16.9372 105.563C16.5752 107.614 16.496 107.945 16.2363 107.945C12.6581 107.922 12.4998 107.978 9.65169 107.893C8.37058 107.854 7.92639 107.954 7.80727 107.421C7.27853 105.061 7.23626 105.254 7.54367 105.252C7.88412 105.251 16.9986 105.234 16.9372 105.563Z" fill="#FFEBBD"/>
<path d="M15.2059 57.9409C15.4441 57.987 15.6462 58.402 15.3012 58.5557C15.255 58.5772 14.6141 58.7371 14.2883 58.8262C13.7849 58.9638 13.2892 58.9876 13.2193 58.5957C13.147 58.1884 13.5044 58.1077 13.9832 58.0024C14.3842 57.9121 14.7978 57.8913 15.2059 57.9409Z" fill="#FFCEB6"/>
<path d="M15.0307 57.5632C14.4833 57.5038 13.9299 57.5357 13.393 57.6577C13.3083 57.6671 13.2227 57.6563 13.1431 57.6262C13.0635 57.596 12.9921 57.5474 12.935 57.4843C12.8778 57.4212 12.8364 57.3454 12.8142 57.2632C12.792 57.181 12.7897 57.0947 12.8074 57.0114C12.9019 56.7371 13.4114 56.983 14.8954 56.9054C15.3604 56.8808 15.6101 57.6232 15.0307 57.5632Z" fill="#FFCEB6"/>
<path d="M14.88 54.447C14.9876 54.4908 15.3742 54.7053 15.2504 54.8313C14.9961 55.0895 14.9845 54.6138 13.8971 54.3879C13.8817 54.3879 13.5497 54.2803 13.4929 54.4224C13.3007 54.9028 14.3198 54.6799 14.8862 55.3785C15.086 55.6244 14.7555 55.6536 14.7402 55.6597C13.2031 55.3631 13.1931 55.5291 12.7044 54.8743C12.4877 54.5838 12.7966 53.9014 13.2469 53.9959C13.5228 53.994 13.7964 53.9457 14.0562 53.853C14.5834 53.7293 14.3728 54.2426 14.88 54.447Z" fill="#FFCEB6"/>
<path d="M14.9239 56.0443C15.146 56.0743 15.1975 56.4854 14.9754 56.5331C14.5609 56.6217 14.1344 56.6389 13.7142 56.5838C13.0787 56.5607 12.4938 56.447 12.5238 56.032C12.5661 55.4441 12.6852 55.5263 12.895 55.6477C13.2785 55.8752 13.4191 55.8468 14.9239 56.0443Z" fill="#FFCEB6"/>
<path d="M13.6543 59.3396C14.1869 59.2104 14.1754 59.2919 14.2353 60.1142C13.8695 60.1005 13.5032 60.1058 13.1379 60.1304C6.81151 59.7876 5.18842 60.5453 5.44126 60.2595C9.95164 55.1504 10.1853 55.2895 12.0228 55.4655C12.1442 55.4547 12.2241 55.4701 12.1657 55.8206C12.0381 56.5891 12.5284 56.4576 12.4332 56.8265C12.2118 57.6834 12.9527 57.8863 12.8774 58.1999C12.6952 58.9591 13.1425 59.3457 13.6543 59.3396Z" fill="#FFF5DB"/>
<path d="M28.0906 51.9154C28.6286 51.5711 29.0021 51.9976 29.3203 52.5825C29.4824 52.8791 29.4693 52.9805 29.2296 53.2195C28.8507 53.5984 27.7333 54.5714 27.3014 54.257C25.8696 53.2119 26.7803 52.7515 28.0906 51.9154Z" fill="white"/>
<path d="M147.922 105.3C147.999 104.866 149.89 105.809 150.012 103.264C150.069 102.084 150.122 64.0094 150.099 62.7637C150.068 61.0906 149.847 60.097 148.212 59.2762C144.021 55.9977 142.346 55.2331 141.184 55.0225C139.637 54.9104 138.085 54.8919 136.536 54.9672C136.238 54.9672 136.314 54.8903 136.324 54.4768C136.38 52.325 136.414 52.2828 136.238 52.0622C135.799 51.5142 135.645 52.0176 135.633 51.6503C135.59 50.3123 134 49.8612 133.281 51.475C132.927 52.4511 132.483 53.3915 131.952 54.2839C131.642 54.68 131.3 55.0503 130.929 55.3914C130.823 55.3145 131.095 44.9135 130.952 41.4606C130.928 40.8627 130.962 39.5393 130.379 38.8838C130.007 38.4673 129.803 38.3458 127.729 38.2144C123.652 37.9516 115.715 38.1191 105.606 37.9301C103.892 37.8978 78.6316 37.9969 77.88 38.0407C77.5231 38.004 77.1635 38.0772 76.8494 38.2505C76.5353 38.4238 76.2816 38.6891 76.1225 39.0106C76.1225 39.0106 75.9272 37.894 74.3049 37.781H29.8082C26.1963 37.7733 24.4971 37.6119 23.568 38.7193C22.512 39.9782 23.3835 45.0419 22.9701 45.3931C22.8809 45.2609 22.8348 45.1402 22.7579 45.0319C22.6219 44.8422 22.4354 44.6944 22.2196 44.6055C22.0038 44.5165 21.7674 44.4899 21.5372 44.5286C21.307 44.5674 21.0923 44.6699 20.9175 44.8247C20.7427 44.9794 20.6149 45.18 20.5485 45.4038C20.3548 45.9141 20.4347 45.9495 20.2634 45.8557C19.9945 45.7014 19.6865 45.6289 19.377 45.6472C19.0676 45.6656 18.7702 45.7738 18.5215 45.9588C18.2727 46.1437 18.0833 46.3973 17.9767 46.6883C17.87 46.9794 17.8506 47.2952 17.9209 47.5971C17.9286 47.6433 17.9386 47.6894 17.9486 47.7355C17.9717 47.8346 17.7949 47.7816 17.5974 47.8707C17.3089 47.9765 17.0737 48.1919 16.9431 48.47C16.8124 48.7482 16.7968 49.0667 16.8996 49.3563C16.9288 49.4915 16.855 49.4523 16.6245 49.3901C16.2589 49.2885 15.8693 49.3194 15.5243 49.4773C15.1793 49.6353 14.9013 49.91 14.7393 50.2531C14.5776 50.5594 14.5077 50.9058 14.5379 51.2508C14.5682 51.5958 14.6974 51.9248 14.9099 52.1982C15.2381 52.4733 14.4012 52.6701 14.3789 53.281C13.9491 53.455 13.4938 53.5573 13.0309 53.5838C12.9065 53.6035 12.7874 53.6482 12.6807 53.7151C12.574 53.7821 12.482 53.87 12.4102 53.9734C12.3384 54.0769 12.2883 54.1939 12.2629 54.3172C12.2375 54.4406 12.2373 54.5678 12.2624 54.6913C12.5429 55.811 10.8706 54.2524 9.00548 56.166C7.32782 57.8844 6.40945 58.6591 5.6663 59.6066C5.47407 59.8043 5.33409 60.0468 5.25899 60.3121C5.24516 60.5058 4.66186 60.9823 4.58732 61.1483C4.19042 61.9542 4.04631 62.8612 4.17386 63.7504C4.21305 64.313 4.45898 86.1317 4.27991 89.5524C4.07088 93.544 3.98327 102.78 4.27376 103.847C4.5243 105.062 5.35659 105.201 6.5962 105.23C6.92358 105.237 6.79601 105.25 7.37393 107.623C7.42235 107.823 7.88422 107.917 4.9147 107.84C4.47742 107.828 4.55504 108.257 4.87935 108.326C4.89472 108.326 20.218 108.501 20.6807 108.484C21.0503 108.47 21.3593 108.402 21.2763 108.158C21.1656 107.832 21.0326 108.093 17.1747 107.97C16.9334 107.963 16.9027 107.934 16.9273 107.872C17.0195 107.6 17.0126 107.504 17.3469 105.973C17.5636 104.98 17.5359 105.764 19.657 104.858C20.0413 104.694 20.1181 104.491 20.3794 104.492C29.5062 104.561 107.632 104.511 108.318 104.563C108.591 104.584 108.01 104.772 108.073 105.573C108.164 106.316 108.21 107.064 108.212 107.812C107.867 110.491 107.436 108.618 107.409 110.502C107.385 112.132 107.188 111.787 108.331 113.115C108.703 113.546 109.49 113.949 109.933 114.568C110.453 114.975 111.006 115.338 111.588 115.651C113.374 116.633 115.891 116.208 117.862 115.668C119.445 115.234 119.115 114.729 119.667 114.948C121.223 115.563 124.585 115.077 126.069 114.384C126.901 113.995 126.981 113.812 126.829 112.539C126.598 110.58 125.866 110.319 125.051 109.946C124.725 109.757 124.431 109.517 124.18 109.236C123.858 108.879 124.439 108.678 123.835 108.129C123.423 107.754 123.675 107.145 123.012 106.983C122.788 106.928 123.023 106.583 122.374 106.079C122.124 105.885 122.255 105.56 122.308 105.053C122.378 104.362 122.289 104.29 122.938 104.345C123.172 104.365 132.475 104.24 134.372 104.362C135.172 104.413 135.063 103.947 135.232 104.236C135.387 104.465 135.595 104.654 135.838 104.786C136.082 104.917 136.353 104.988 136.63 104.992C136.978 104.97 137.015 105.016 137.068 105.242C137.829 108.49 138.093 107.881 136.63 107.9C131.982 107.958 125.963 107.874 125.94 107.866C125.392 107.692 125.351 108.169 125.658 108.243C126.474 108.438 149.514 108.518 149.893 108.404C149.924 108.387 149.95 108.363 149.968 108.332C149.986 108.302 149.996 108.268 149.996 108.233C149.996 108.197 149.986 108.163 149.968 108.133C149.95 108.102 149.924 108.078 149.893 108.061C149.836 108.029 149.887 108.032 148.408 108.015C146.546 107.99 147.366 108.361 147.922 105.3ZM132.095 54.7927C133.155 53.7099 132.498 53.7806 133.949 51.2652C134.018 51.1448 134.124 51.0495 134.251 50.9929C134.378 50.9364 134.519 50.9216 134.655 50.9506C134.791 50.9797 134.914 51.0511 135.007 51.1546C135.099 51.2581 135.157 51.3883 135.171 51.5265C135.196 52.3335 134.963 52.4488 134.95 52.7838C134.942 52.8381 134.955 52.8933 134.986 52.9382C135.018 52.9831 135.065 53.0142 135.119 53.0251C135.173 53.036 135.229 53.026 135.275 52.997C135.322 52.9679 135.355 52.9222 135.369 52.8691C135.578 52.4195 135.523 52.2543 135.731 52.2612C135.993 52.2612 136.002 52.6132 135.966 52.876C136.004 54.1001 135.811 55.3204 135.396 56.4727C134.847 57.6846 134.215 58.8575 133.505 59.9832C132.569 61.7554 132.583 65.5165 131.717 66.4856C131.57 66.637 131.384 66.7451 131.18 66.7981C130.975 66.851 130.76 66.8469 130.558 66.7861C130.103 66.6815 129.729 65.6556 130.097 64.2246C130.629 62.1589 131.48 61.7516 131.684 59.798C131.733 58.7384 131.914 57.6889 132.222 56.674C132.475 56.1069 132.81 55.5802 133.217 55.1109C133.476 54.8035 133.942 54.0995 133.876 53.8736C133.868 53.8318 133.845 53.7947 133.81 53.7703C133.775 53.7458 133.733 53.736 133.691 53.7429C133.46 53.7836 133.491 54.2809 132.768 55.1086C130.87 57.2765 131.815 59.4652 130.915 61.3335C130.342 62.5239 129.037 64.6496 129.822 66.6462C130.023 67.158 128.31 66.0944 123.723 66.826C123.5 66.8614 123.646 66.8706 123.354 64.5443C123.047 62.0482 122.866 62.3064 123.302 62.1773C124.644 61.7932 125.913 61.1888 127.057 60.389C128.524 59.4829 130.883 56.0323 132.095 54.7927ZM131.797 69.3383C131.781 71.7768 131.111 71.2111 127.331 70.8807C126.544 70.8123 122.364 71.2388 122.363 70.9775C122.363 70.478 122.317 67.5961 122.816 67.55C124.353 67.3963 123.515 67.1488 126.706 67.0189C128.554 66.9421 130.31 67.7452 132.008 66.8913C132.095 67.9926 131.807 67.8881 131.797 69.3383ZM76.3192 40.4185C76.3036 39.9208 76.4471 39.4312 76.7288 39.0206C77.0808 38.5664 77.5142 38.4703 78.7446 38.4058C79.092 38.3881 126.884 38.631 127.951 38.6901C130.507 38.8338 130.213 39.5524 130.41 41.0179C130.476 41.5159 130.501 45.6836 130.47 49.4539C130.443 52.6616 130.569 55.8717 130.376 56.1007C130.128 56.3958 129.525 57.0122 128.247 58.6468C126.886 60.1572 125.101 61.2208 123.124 61.6978C122.597 61.8246 122.875 61.2236 122.323 61.0414C121.659 60.8924 120.965 60.9476 120.333 61.1998C119.768 61.1159 119.193 61.1117 118.626 61.1875C117.779 61.3211 116.925 61.4104 116.069 61.4549C113.835 61.6216 111.59 61.5825 109.363 61.3381C106.801 61.1752 106.856 61.2213 105.789 61.1675C95.2952 60.6372 95.8824 59.7142 92.6254 59.7842C89.3439 59.861 91.0884 59.9871 89.0334 59.9901C84.9282 59.7972 80.8158 59.8103 76.7119 60.0293C76.3945 60.047 76.3276 59.9725 76.373 59.2408C76.3914 58.9188 76.4153 47.873 76.3315 45.0626C76.2631 42.754 76.2777 41.3876 76.3192 40.4185ZM80.8004 60.2622C81.6895 60.2553 80.4038 60.3321 85.5275 60.3329C89.5237 60.3329 88.2618 60.7779 91.7862 60.256C94.2693 59.8887 95.4428 60.7225 98.5537 61.0876C100.483 61.3135 100.573 61.1875 101.931 61.2781C102.332 61.3043 105.005 61.6785 106.163 61.6432C108.604 61.5663 110.124 61.893 113.175 61.946C121.005 62.082 120.102 60.2875 120.576 63.8342C120.567 64.0623 120.579 64.2907 120.611 64.5166C120.771 64.771 121.013 64.7057 121.002 64.4675C120.837 61.1291 120.187 61.501 121.641 61.4226C122.648 61.3673 122.578 61.7369 123.056 66.2727C123.146 67.1265 123.517 67.1027 121.84 67.2064C121.262 67.2425 121.225 67.4693 121.202 66.3711C121.196 66.0729 120.69 65.8608 120.741 67.1396C120.764 67.6929 107.26 66.6877 99.5689 65.0761C91.4043 63.3662 90.0647 66.1874 81.157 64.4959C79.7568 64.3494 78.3495 64.2812 76.9417 64.2915C75.5707 64.1839 76.0018 64.0179 72.366 64.5435C72.0978 64.582 72.0839 64.9739 72.4321 64.9378C77.3997 64.4298 75.7213 64.7948 77.2345 64.8033C82.2167 64.8287 79.4547 64.9055 84.002 65.4665C86.0278 65.5634 88.0577 65.5408 90.0809 65.3989C92.194 65.0058 94.3512 64.905 96.4918 65.0992C100.027 65.3589 99.4037 66.3365 114.859 67.447C120.346 67.8412 119.92 67.6775 119.946 67.9188C120.017 68.5675 119.748 69.5481 120.112 69.6165C120.229 69.638 120.259 69.5273 120.289 69.2876C120.34 68.8879 120.339 68.2255 120.383 67.9188C120.386 67.882 120.402 67.8476 120.43 67.8231C120.458 67.7986 120.494 67.7861 120.531 67.7882C122.955 67.4808 122.049 67.3348 121.933 69.5304C121.747 73.0725 122.637 72.6529 120.428 72.4784C120.025 72.4461 120.344 71.5562 120.215 70.3781C120.176 70.2351 119.921 70.2536 119.9 70.4226C119.655 72.3124 120.012 72.3985 119.588 72.3754C115.843 72.3053 112.097 72.5167 108.384 73.0079C101.968 73.7096 93.0066 72.3931 79.6276 74.9292C77.8301 75.2704 76.8302 75.2827 75.8927 76.138C75.6467 76.3624 75.7205 76.8681 75.4423 76.5746C74.9973 76.2214 74.4508 76.0202 73.883 76.0005C73.0446 75.8898 65.142 75.9813 65.1666 75.5655C65.172 75.4656 65.7922 75.4226 65.8237 74.9922C65.8721 74.3505 66.0066 73.8533 65.4509 73.6681C65.3541 73.6358 65.2903 73.4928 65.2527 73.2838C65.2158 71.2409 65.3474 69.1985 65.6461 67.1772C65.8498 66.6992 66.1072 67.0666 66.1895 66.1052C66.2548 65.3274 65.8598 65.5856 65.8421 65.1507C65.7914 63.8603 66.0965 63.7673 66.0081 62.1535C66.0097 62.0565 66.0327 61.9611 66.0755 61.8741C66.1183 61.7871 66.1798 61.7106 66.2556 61.6501C66.4661 61.4149 66.7774 61.2382 67.0118 61.4518C67.9071 62.2618 69.5509 60.3567 80.8004 60.2622ZM74.8998 88.7938C73.7685 89.255 57.0557 88.7938 52.3686 88.7393C46.3343 88.6709 20.736 88.1391 19.2459 88.209C18.1016 88.262 17.7765 87.8494 17.6696 86.8541C17.5928 86.1702 16.8919 78.8809 16.9649 78.2983C17.1355 77.3761 17.9402 76.8266 19.9852 75.8883C21.3247 75.2735 21.3685 75.0306 21.6759 75.3088C23.4727 76.9465 26.9302 76.1227 27.6072 76.2395C29.5462 76.5753 28.408 76.5784 31.1424 76.4593C33.1443 76.3724 32.6187 76.0166 33.3787 76.3256C34.5423 76.799 36.0462 76.5238 37.3688 77.1832C39.5376 78.2637 40.263 77.5613 42.3818 78.1292C45.8186 79.0515 45.5266 78.2637 46.2006 79.1022C46.8415 79.8984 47.5693 79.3174 48.387 79.5456C49.3092 79.8031 49.439 79.003 49.7311 79.3466C49.8661 79.5237 50.049 79.6586 50.2581 79.7353C50.4673 79.8119 50.694 79.8272 50.9115 79.7792C51.3603 79.6102 52.9757 79.7101 53.1586 79.395C53.3415 79.0799 53.6236 78.8017 53.8073 78.4728C53.9125 78.2837 53.9087 78.5642 54.4044 78.2422C55.0933 77.8054 55.6912 77.2393 56.165 76.5753C56.3187 76.3448 56.3956 76.2303 56.6415 76.2295C59.0723 76.2249 62.4276 76.1442 62.609 76.1526C76.3284 76.9481 75.4392 74.8039 75.5199 81.4669C75.5822 86.5659 76.2362 88.249 74.8998 88.7938ZM13.9831 58.002C14.3842 57.9121 14.7977 57.8913 15.2058 57.9405C15.444 57.9866 15.6462 58.4016 15.3011 58.5553C15.255 58.5768 14.6141 58.7367 14.2882 58.8258C13.7848 58.9634 13.2891 58.9872 13.2192 58.5953C13.147 58.188 13.5043 58.1073 13.9831 58.002ZM12.8073 57.0114C12.9018 56.7378 13.4152 56.9822 14.8953 56.9053C15.3618 56.8807 15.6093 57.6231 15.0306 57.5632C14.4832 57.5038 13.9298 57.5357 13.3929 57.6577C13.3083 57.6671 13.2226 57.6563 13.143 57.6261C13.0634 57.596 12.992 57.5473 12.9349 57.4842C12.8777 57.4211 12.8363 57.3454 12.8142 57.2632C12.792 57.181 12.7896 57.0947 12.8073 57.0114ZM14.7478 59.0779C15.0206 59.0128 15.288 58.927 15.5478 58.8212C15.6891 58.7673 15.8038 58.6604 15.8676 58.5232C15.9313 58.386 15.939 58.2293 15.889 58.0865C15.7614 57.733 15.4894 57.9436 15.6892 57.5178C15.719 57.4567 15.7344 57.3895 15.7344 57.3215C15.7344 57.2534 15.719 57.1863 15.6892 57.1251C15.5778 56.7916 15.4125 56.7716 15.4225 56.6932C15.4383 56.6065 15.4704 56.5236 15.5171 56.4488C15.524 56.4365 15.5816 56.4427 15.6147 56.4488C16.2963 56.6487 16.573 56.5072 18.2706 56.6533C18.8626 56.7804 19.4379 56.9754 19.9852 57.2343C20.6299 57.4402 20.1658 58.201 21.3685 58.8781C22.3437 59.4284 22.7687 58.9265 23.2029 59.4291C24.0483 60.4051 24.2519 60.2745 24.9267 61.7754C25.4055 62.8436 26.0794 63.1541 26.4737 64.2853C26.7281 65.0093 27.0839 65.2383 27.0754 66.0629C27.016 67.2699 27.0949 68.4797 27.3106 69.6687C27.5106 70.6857 27.9171 71.6509 28.5049 72.5045C29.4319 73.9103 30.6858 75.0706 32.1591 75.886C32.01 75.9551 29.4032 76.2702 28.5856 75.9628C28.0745 75.7722 27.5949 75.9559 27.3137 75.5724C27.233 75.4618 26.9924 75.3011 26.8948 75.0982C24.5486 70.2497 24.0752 70.9245 23.352 68.8295C22.6327 66.7492 21.3062 66.0552 20.2718 63.4607C20.0238 62.7672 19.7262 62.0925 19.3811 61.4418C18.9377 60.7087 18.3667 60.1016 18.1215 59.7511C17.891 59.4176 17.0072 57.9836 16.5038 57.3426C16.3409 57.1343 16.2871 57.1835 16.2333 57.2058C16.065 57.2758 16.2149 57.4479 16.387 57.6884C17.3784 59.0579 17.436 59.5375 18.037 61.4319C18.3959 62.5631 19.1068 63.0695 19.8868 64.2753C20.8505 65.7655 20.1235 65.7278 21.6428 67.8335C22.3752 68.8495 22.9078 69.2814 23.2252 70.3696C23.8302 72.434 24.9727 74.3006 26.5359 75.7784C26.8226 76.0497 24.2765 76.0404 23.0269 75.577C19.5586 74.2913 19.4049 67.9219 16.5007 64.7341C16.2066 64.4252 15.9533 64.0799 15.7468 63.7066C15.1239 62.3784 14.6779 60.9741 14.4204 59.5298C14.3712 59.2577 14.4627 59.1455 14.7478 59.0779ZM22.9316 52.3058C23.5172 51.6718 22.8317 51.3498 23.0515 51.1185C23.6586 50.4775 22.9209 50.1332 23.4189 50.0533C23.9315 49.9718 24.3641 49.9903 24.4602 49.4946C24.5109 49.2302 24.5509 49.0681 24.7492 49.0581C25.3474 49.0012 25.9363 48.87 26.5021 48.6677C27.018 48.8618 27.49 49.1569 27.8904 49.5358C28.2908 49.9147 28.6115 50.3696 28.8338 50.8741C29.1842 51.9631 29.0597 51.2115 28.4441 51.3744C27.9569 51.5035 25.9626 52.4918 26.0548 53.5377C26.0515 53.573 26.04 53.607 26.0213 53.6371C26.0027 53.6673 25.9773 53.6927 25.9473 53.7114C24.4102 54.5529 24.3234 54.6021 24.2465 54.4976C23.7086 53.7652 23.1706 54.0019 23.4081 53.6522C24.0314 52.74 22.3699 52.9114 22.9316 52.3058ZM27.5926 46.844C27.4005 46.17 26.7673 46.5474 26.901 46.0755C27.1016 45.3577 26.413 45.5429 30.3939 44.0074C30.6845 43.8881 31.0002 43.8423 31.3128 43.8741C31.6254 43.9059 31.9254 44.0144 32.186 44.1899C32.4467 44.3655 32.66 44.6026 32.8071 44.8803C32.9541 45.158 33.0304 45.4677 33.0291 45.7819C32.2975 48.8929 31.8817 48.5255 31.5689 49.0035C30.9678 49.695 30.1839 50.203 29.3072 50.4691C28.9229 50.6381 29.102 50.0733 28.2643 49.3739C27.8045 48.9959 27.3079 48.6651 26.7819 48.3864C27.2314 48.0437 27.8347 47.6948 27.5926 46.8409V46.844ZM34.9112 48.245C35.4061 47.0592 35.3223 46.5858 35.4399 46.7641C36.2476 47.986 35.5098 48.5217 35.2462 49.5192C35.1225 49.9872 34.7282 50.2193 34.1019 50.9794C33.6546 51.5173 33.7392 52.4011 32.2575 53.0436C32.1484 53.0912 31.9278 53.1158 32.0269 53.351C32.1092 53.5508 32.2329 53.5446 32.7908 53.2634C34.1434 52.5825 33.8844 51.9054 34.5761 51.173C35.9702 49.6829 35.6735 49.2395 35.8272 49.5392C36.2371 50.5925 36.4456 51.7135 36.442 52.8438C36.4343 53.5892 36.4005 53.6784 39.0096 59.413C39.1264 59.6697 39.1956 59.6435 37.2274 60.0708C36.3052 60.2184 36.1777 60.4159 34.9396 60.5949C34.6683 60.6341 34.7344 60.7233 34.772 60.8255C34.8251 60.9646 35.5667 60.8747 37.2705 60.4197C38.1347 60.1266 39.0387 59.9675 39.951 59.9479C41.1982 60.041 42.4522 59.9634 43.6783 59.7173C44.1394 59.632 46.0345 59.5728 46.3681 59.5682C47.4307 59.5816 48.4916 59.6586 49.5451 59.7988C50.9108 59.7214 52.2807 59.7728 53.6366 59.9525C54.743 59.941 55.8259 60.272 56.7368 60.9C56.9674 61.0722 56.6968 61.3273 57.0365 61.8991C57.1649 62.1158 52.0758 60.7748 47.8014 61.2428C47.1382 61.2588 46.4749 61.2182 45.8186 61.1214C45.3852 61.1037 44.9194 61.1606 44.3738 61.1367C43.6279 61.0692 42.8771 61.0774 42.1328 61.1613C40.7469 61.2788 39.369 61.4764 38.0059 61.7531C36.6941 62.0505 36.8101 61.7423 35.5621 62.0328C35.1963 62.1174 35.164 62.3909 35.6451 62.3525C37.1183 62.2342 37.1921 62.4348 38.2319 62.1542C39.7558 61.7423 39.6152 62.0336 42.0929 61.4979C43.5899 61.1744 44.0042 61.5902 44.8841 61.5026C46.2436 61.3673 46.2805 61.7715 47.6999 61.6148C50.754 61.2774 54.3214 61.8853 56.8152 62.3894C57.5307 62.5339 56.9128 63.3116 56.5585 63.9918C54.7802 67.4032 52.6291 68.1417 50.9676 69.4097C50.641 69.6587 50.8539 68.974 50.1737 68.8718C49.2684 68.7373 49.5105 69.0001 48.5499 69.2207C48.3885 69.2584 48.3485 68.6989 47.6415 68.6827C47.0428 68.672 46.9237 68.2639 46.2912 68.5659C45.0831 69.1415 44.9241 68.4184 43.3048 68.0464C42.2635 67.8074 41.9023 68.0088 40.8525 67.7636C40.1842 67.6069 39.4962 67.5509 38.8113 67.5976C38.0059 67.5976 36.7986 66.6385 34.998 66.7238C34.4162 66.7515 32.8416 66.3857 31.6381 67.5192C31.3004 67.7972 31.005 68.1229 30.7612 68.486C30.6636 68.6889 30.858 68.9141 31.1032 68.6274C31.6183 67.8801 32.4022 67.3606 33.2911 67.1772C33.8943 67.1065 34.5034 67.1039 35.1071 67.1695C37.0153 67.138 37.3427 68.0088 39.1187 68.0649C39.9125 68.1027 40.703 68.1904 41.4857 68.3277C43.7844 68.4668 43.5484 68.6351 44.4691 68.9632C45.3145 69.2653 45.545 69.1892 45.3913 69.3675C45.0839 69.7279 45.1608 69.9823 44.8272 71.0774C44.5882 71.8736 44.8188 72.2102 44.8065 73.1593C44.8026 73.4667 45.1139 73.595 45.263 73.4821C45.5143 73.2892 44.7826 72.0988 45.512 70.1145C45.8962 69.0616 46.6132 68.8849 46.7608 68.9386C47.318 69.1592 48.1595 69.1815 47.9743 69.7548C47.6523 70.7485 47.6784 70.6855 47.8298 72.1664C47.8805 72.6644 48.2909 72.5814 48.2709 72.3493C48.2271 71.9105 48.2894 71.4678 48.2079 71.0267C48.1264 70.5856 48.3017 69.8286 48.7243 69.6626C50.2152 69.077 50.4965 69.0893 50.3966 70.79C50.3336 71.8767 50.8677 72.1034 51.0375 73.5097C51.3857 76.3932 52.5308 77.5398 53.3023 78.2384C53.456 78.3767 53.2424 78.3844 52.978 78.834C52.792 79.1506 52.3832 79.1875 51.9882 79.1644C50.4227 79.0745 50.6218 80.2004 49.0141 77.4545C48.802 77.0918 48.8604 76.5699 48.6298 76.5761C48.2379 76.5861 48.4515 77.3638 48.6429 77.7066C48.7881 77.9648 49.1393 78.4428 49.1885 78.5296C49.4798 79.043 48.7843 79.1644 48.3147 79.0322C48.0691 78.9658 47.8103 78.9658 47.5647 79.0322C47.2421 79.0875 46.9104 79.024 46.631 78.8534C46.3517 78.6829 46.1436 78.4169 46.0453 78.1047C45.8098 77.5445 45.652 76.9547 45.5765 76.3517C45.5904 75.8491 44.7903 75.6493 45.4405 77.6236C45.7341 78.5158 46.116 78.409 41.6287 77.496C40.429 77.2516 39.9118 77.8034 37.0891 76.5738C36.2514 76.2087 34.6614 76.2449 33.7738 75.9805C32.1339 75.4369 30.6758 74.4514 29.56 73.1324C28.8466 72.3366 28.2993 71.4062 27.9502 70.396C27.6011 69.3858 27.4574 68.316 27.5273 67.2495C27.5273 66.8652 27.5373 66.481 27.5273 66.0967C27.4797 64.6965 26.0049 63.2156 26.5605 63.0995C28.3619 62.7337 29.4371 63.088 31.5558 62.4348C32.0682 62.2992 32.5899 62.2016 33.1167 62.1427C33.298 62.1127 33.3526 62.1888 33.3688 62.3733C33.3333 62.9339 33.401 63.4963 33.5686 64.0325C33.7991 65.1046 27.9469 64.768 28.0207 65.1906C28.0637 65.4366 28.156 65.4043 28.6294 65.3966C35.154 65.2836 34.0335 64.419 33.7784 63.0642C33.6885 62.5854 33.962 61.8753 33.202 60.9946C32.9507 60.6672 31.8832 61.0199 31.8456 60.7479C31.7902 60.3483 31.8317 60.6956 33.1897 59.5813C33.3434 59.4552 33.2765 59.4276 33.6892 58.7859C34.5131 57.5086 33.0606 57.3257 33.139 56.7255C33.2266 56.0615 32.84 56.0669 32.8623 55.8271C32.9461 54.951 32.3828 55.2799 32.3651 54.9264C32.3413 54.4653 31.9393 54.5483 31.9286 54.3447C31.8748 53.3679 31.0771 53.4947 31.3768 53.1535C31.6641 52.8598 31.8485 52.481 31.9024 52.0737C31.9201 51.565 31.6627 51.3213 31.1877 51.1246C30.7128 50.9279 30.4538 51.2422 30.1118 51.5665C29.8198 51.8416 30.0058 51.2891 29.6446 51.3359C29.4686 51.3613 29.112 50.9901 29.457 50.8526C30.4207 50.5631 31.281 50.0029 31.9355 49.2387C32.3007 48.8679 32.6003 48.4379 32.8216 47.9668C33.3841 46.3445 33.6354 45.8987 33.3073 44.9258C32.9445 43.8499 32.3566 43.8537 32.6156 43.7877C32.7908 43.7625 32.9694 43.7799 33.1364 43.8385C33.3034 43.8971 33.4537 43.9951 33.5747 44.1243C34.1895 44.8513 34.5953 44.5316 34.8266 45.4307C35.1517 46.6972 34.872 46.4966 34.5684 48.162C34.5207 48.3864 34.7843 48.5478 34.9112 48.2419V48.245ZM57.3332 61.0468C57.6052 59.7719 58.1401 59.8172 58.2846 59.7626C58.9993 59.4875 58.4168 60.1761 58.3522 60.6387C58.3222 60.8539 58.5981 61.003 58.7088 60.7817C59.5196 59.1563 58.7088 59.4345 58.884 58.8228C59.027 58.3109 59.6594 58.1957 60.076 58.686C60.2758 58.9211 60.6255 58.8158 60.9252 58.8274C61.1035 58.8343 61.2979 58.9042 61.3371 59.0579C61.5054 59.7265 62.2593 59.4844 62.4568 60.0993C62.639 60.6718 63.379 60.6126 63.3345 61.242C62.7465 62.9843 61.9118 64.6334 60.856 66.139C60.2546 67.2815 59.7643 68.4792 59.392 69.7156C58.3449 72.0382 57.0943 74.2635 55.6547 76.3655C55.2206 76.9565 54.6835 77.4643 54.0693 77.8649C53.6282 78.1492 52.9427 77.2562 52.6507 76.8205C51.5179 75.1259 51.5747 73.014 51.076 71.952C50.8738 71.5143 50.8044 71.027 50.8762 70.5502C51.0537 69.3121 53.1433 68.9778 54.8294 67.1327C55.8402 66.0197 56.6935 64.7734 57.3654 63.4284C57.5064 63.2256 57.5934 62.9902 57.6183 62.7445C57.6329 61.7093 57.2018 61.6678 57.3332 61.0468ZM64.5572 74.8662C62.2516 74.6817 61.6115 75.1966 61.623 74.5096C61.6322 73.9194 61.5969 73.7219 63.3852 73.8456C64.0436 73.8378 64.7002 73.9168 65.338 74.0807C65.3655 74.0924 65.389 74.1119 65.4057 74.1367C65.4224 74.1615 65.4314 74.1907 65.4317 74.2206C65.4612 74.451 65.4263 74.6851 65.3311 74.8969C65.1651 75.0314 64.9015 74.8938 64.5556 74.8662H64.5572ZM64.7877 75.3972C64.77 75.7046 64.7662 75.7046 64.448 75.6985C62.1425 75.6662 62.3054 75.6385 62.3154 75.3788C62.3208 75.2627 62.3754 75.232 62.4814 75.2251C62.8303 75.212 64.8038 75.0445 64.7831 75.3972H64.7877ZM62.1371 66.7899C62.4399 66.9797 62.3362 67.0973 62.0257 69.7548C61.613 73.2777 62.0703 73.3883 61.6875 73.4805C61.3048 73.5728 61.2702 73.884 61.2433 74.4796C61.2021 74.6963 61.2403 74.9205 61.3509 75.1113C61.4617 75.2052 61.5984 75.2634 61.7429 75.2781C61.9058 75.5286 61.7429 75.6477 61.5031 75.6623C61.168 75.6854 58.9555 75.7392 58.1539 75.7546C55.7231 75.8014 56.8913 76.1173 59.4689 70.717C60.5217 68.5129 60.1344 67.7444 62.6305 64.1401C62.5798 64.8502 62.5829 64.8102 62.5752 64.8517C62.4937 65.2928 62.0487 64.9286 62.0057 65.4942C61.9565 66.1244 61.7652 66.5601 62.1325 66.7914L62.1371 66.7899ZM64.8477 70.8269C64.7454 73.1923 64.8538 73.489 64.591 73.5036C64.468 73.5097 62.3623 73.3676 62.2854 73.3622C62.3032 71.4858 62.4362 69.6122 62.6835 67.7521C62.7688 66.972 62.7527 66.617 63.1692 66.6523C66.0158 66.8952 65.0452 66.2519 64.8477 70.8269ZM63.5266 66.2781C62.6474 66.2012 62.2893 66.4979 62.32 66.2166C62.3807 65.674 62.32 65.5288 62.7289 65.4842C63.6891 65.2978 64.6804 65.3505 65.6154 65.6379C65.656 65.6606 65.6904 65.693 65.7156 65.7321C65.7408 65.7712 65.756 65.8159 65.7599 65.8623C65.8042 66.0846 65.7739 66.3153 65.6738 66.5186C65.6039 66.6124 65.4978 66.6032 65.341 66.534C64.7576 66.3357 64.142 66.2494 63.5266 66.2796V66.2781ZM63.0086 64.7557C63.1623 63.2063 63.1815 63.2786 63.4697 63.254C64.0161 63.2192 64.5647 63.2606 65.0997 63.3769C65.5724 63.4692 65.5247 63.4984 65.4955 63.7428C65.3487 64.9885 65.4786 65.1453 65.2211 65.1261C64.6306 65.0091 64.0276 64.9678 63.4267 65.0031C63.0224 65.0323 62.9671 65.1622 63.0086 64.7557ZM65.5731 63.0065C64.8662 62.8192 64.1321 62.7563 63.4036 62.8205C63.1254 62.8697 63.5965 61.9214 63.711 61.7008C63.8048 61.5179 64.7039 61.657 65.1512 61.7223C65.6769 61.7977 65.6454 62.0751 65.5731 63.0042V63.0065ZM32.166 61.189C33.0798 61.096 32.8923 61.2758 33.1697 61.727C32.9443 61.8153 32.7105 61.8807 32.4719 61.9222C32.1537 61.9752 32.1645 61.7024 32.0631 61.418C32.0085 61.262 31.9847 61.2051 32.166 61.1867V61.189ZM30.9771 56.3789C30.9925 56.3728 32.2068 55.1239 32.495 55.5881C32.747 55.9877 32.0815 56.0361 31.3599 56.7878C30.951 57.2135 30.8711 57.3734 30.6083 57.2289C30.0488 56.9215 30.048 56.7217 30.045 56.4096C29.9888 55.9401 30.4292 56.0308 30.533 55.668C30.5998 55.4329 30.7358 55.5143 31.5228 54.9964C31.6135 54.9364 31.728 54.732 31.9447 54.9195C32.2613 55.1885 30.9118 55.5343 30.7435 56.2406C30.7312 56.289 30.7551 56.4696 30.9771 56.3789ZM27.8509 54.7489C29.0997 54.1464 30.1948 53.1489 29.779 52.5602C29.6561 52.3865 29.4655 51.9277 29.7483 52.0115C30.5376 52.2459 30.616 51.0316 31.3122 51.6518C32.3343 52.5625 29.2434 54.2471 29.2103 54.6828C29.2112 54.8159 29.178 54.9471 29.114 55.0638C29.05 55.1805 28.9572 55.279 28.8445 55.3499C28.1137 55.698 28.3389 56.2267 28.2443 57.1174C28.2213 57.3342 28.0307 57.1874 27.7725 57.0821C27.0808 56.8 27.0701 56.9161 26.9409 56.6379C26.8478 56.4711 26.7218 56.325 26.5706 56.2083C26.4193 56.0917 26.246 56.007 26.061 55.9593C25.5092 55.8125 25.7213 55.575 25.44 55.011C25.3386 54.8065 25.3248 54.7543 25.5092 54.6605C27.2422 53.7813 26.6189 55.3414 27.8509 54.7466V54.7489ZM28.0906 51.9177C28.6286 51.5734 29.0021 51.9999 29.3202 52.5848C29.4824 52.8814 29.4693 52.9829 29.2296 53.2219C28.8507 53.6007 27.7333 54.5737 27.3014 54.2594C25.8696 53.2119 26.7803 52.7515 28.0906 51.9154V51.9177ZM25.2295 55.5182C25.4301 56.6886 26.2739 55.9531 26.6958 56.9499C26.8595 57.3388 27.0716 57.1566 27.7279 57.5002C28.242 57.7691 28.4503 57.5524 28.6155 57.1651C28.9268 56.4388 28.4142 56.6894 28.7477 55.9101C28.8945 55.5674 29.3948 55.8333 29.5162 55.0156C29.6177 54.3239 30.0895 54.5806 30.5921 53.9174C30.6375 53.8426 30.7021 53.7815 30.7792 53.7403C30.8563 53.699 30.943 53.6793 31.0303 53.6831C31.1177 53.6868 31.2024 53.714 31.2756 53.7617C31.3489 53.8094 31.408 53.8759 31.4467 53.9543C31.4956 54.0088 31.5321 54.0732 31.5536 54.1432C31.5752 54.2132 31.5813 54.287 31.5715 54.3596C31.5617 54.4322 31.5362 54.5018 31.4969 54.5635C31.4576 54.6253 31.4053 54.6778 31.3437 54.7174C31.1682 54.8675 30.9687 54.987 30.7535 55.0709C30.1502 55.3161 30.357 55.6496 30.0073 55.8071C29.5462 56.0123 29.6722 56.943 30.0695 57.2673C31.2046 58.1895 31.2046 57.1136 32.6056 56.3697C32.7901 56.2721 32.83 56.3697 32.81 56.6679C32.6917 57.5824 34.1165 57.7023 33.3611 58.5991C33.0222 59.0034 33.0652 59.2139 32.8869 59.3469C31.8978 60.0946 31.8494 60.1815 31.0586 60.2184C29.547 60.2891 29.7468 60.5304 29.3425 60.3244C28.8445 60.0708 28.7661 60.3198 28.2812 59.9555C27.7586 59.5628 27.5565 60.0731 27.1039 59.4652C26.765 59.0103 26.3984 59.0733 26.164 58.4946C25.9957 58.0781 25.6122 58.168 25.2487 57.4502C24.9328 56.8254 24.6585 57.0521 24.5217 56.654C24.3272 56.0884 23.0976 55.9309 23.3927 55.7864C24.288 55.343 25.0681 54.5798 25.2295 55.5182ZM23.8462 56.5172C24.2581 56.6609 24.129 56.9368 24.6085 57.2719C25.0435 57.5755 24.773 57.7469 25.5853 58.4116C25.9649 58.719 25.8266 58.9365 26.3753 59.3131C26.7949 59.602 26.9655 60.1477 27.7486 60.1738C28.1037 60.1853 28.3381 60.5934 28.896 60.5704C29.1174 60.5611 29.4063 60.9008 29.8782 60.7456C30.3362 60.6368 30.8079 60.5974 31.2776 60.6288C31.3868 60.6288 31.4237 60.6703 31.4529 60.7779C31.7503 61.8776 31.904 61.9375 31.6834 61.9744C30.5116 62.3102 29.3002 62.4877 28.0814 62.5024C26.5267 62.4017 26.3138 63.0511 25.9242 62.6561C25.002 61.707 25.1941 60.6487 23.5341 59.2608C23.3927 59.1432 23.4473 59.0887 23.7593 58.8435C24.0882 58.5861 24.3449 57.9613 24.0375 57.9121C23.6048 57.8429 23.6325 59.0741 22.1877 58.7574C19.521 58.1695 20.8682 55.3276 22.0402 55.8632C22.3145 55.9901 22.5969 56.0987 22.8855 56.1883C23.2259 56.2251 23.5538 56.3372 23.8454 56.5165L23.8462 56.5172ZM26.3822 74.9253C26.2915 75.1344 25.2694 73.8925 24.5232 72.6067C24.0231 71.7906 23.6648 70.8957 23.4634 69.96C24.1528 70.9237 26.1578 73.9086 26.3792 74.9246L26.3822 74.9253ZM23.1991 69.3406C23.1883 69.4282 22.917 68.9456 22.6442 68.5867C22.1681 67.9859 21.7236 67.3607 21.3124 66.7138C20.6814 65.5257 20.7306 65.0169 20.9174 65.3405C22.0094 67.2326 23.0477 68.2516 23.196 69.3398L23.1991 69.3406ZM20.3003 64.3629C20.2695 64.3629 19.8576 63.7374 19.8099 63.6713C19.0626 62.8498 18.5023 61.876 18.1676 60.817C18.1169 60.6503 17.7065 59.6758 17.7311 59.6466C17.7557 59.6174 18.3459 60.5504 18.4566 60.6895C19.2466 61.7026 19.8455 62.851 20.2242 64.0786C20.2667 64.1675 20.2915 64.2638 20.2972 64.3622L20.3003 64.3629ZM19.5118 72.0288C20.351 74.1299 21.2847 74.7516 20.6837 75.026C19.471 75.5832 19.4695 75.5494 19.4687 75.4172C19.458 72.2663 19.3811 72.2156 19.5118 72.0288ZM23.9922 38.9998C24.9958 37.9654 26.7135 38.0907 29.8044 38.143C53.6612 38.5464 73.8308 38.1622 74.6853 38.4281C75.1211 38.5649 75.6483 38.78 75.742 40.5438C75.9588 44.6345 76.0187 55.24 75.845 59.612C75.8358 59.8503 75.7951 59.984 75.5176 60.0132C69.9352 60.6072 70.0728 60.8624 67.7088 61.1852C67.1486 61.262 66.8304 60.359 66.0066 61.2067C65.537 61.6908 65.5547 61.0891 64.0084 61.1744C63.565 61.199 64.0853 60.7901 63.1577 60.1838C62.609 59.8226 62.9925 59.6066 62.4122 59.3154C62.0126 59.1148 61.8482 59.0756 61.7567 58.8304C61.6931 58.7005 61.5948 58.5906 61.4728 58.5127C61.3508 58.4349 61.2097 58.3922 61.0651 58.3893C60.8643 58.4105 60.6615 58.4017 60.4633 58.3632C60.2543 58.2986 60.1467 58.0558 59.787 57.9851C59.5351 57.9177 59.2672 57.9451 59.0342 58.0621C58.8012 58.1791 58.6192 58.3776 58.5228 58.6199C58.4461 58.7801 58.4266 58.9619 58.4675 59.1348C58.3375 59.2205 58.1963 59.288 58.0479 59.3354C57.8465 59.426 57.4607 59.5259 57.3278 59.7703C56.8867 60.5796 57.0542 60.6157 56.7714 60.4328C55.5261 59.7323 54.1065 59.4022 52.6798 59.4814C51.837 59.4017 50.9895 59.3812 50.1438 59.4199C49.0041 59.4929 48.0381 59.1402 46.6609 59.2324C46.0123 59.2762 45.7102 59.1709 44.9702 59.2116C44.2301 59.2524 43.7406 59.383 42.0806 59.519C41.1407 59.5959 40.2584 59.5429 39.6828 59.5575C39.5107 59.5621 39.483 59.5575 39.2509 58.9427C39.1595 58.6998 38.3156 56.8308 37.0169 53.7168C36.7556 53.092 37.1129 52.4003 36.4528 49.9741C36.2376 49.1834 35.8887 49.0212 36.0785 48.6362C36.3267 48.132 36.2829 46.6811 35.828 46.4651C35.6359 46.3745 35.6174 46.1201 35.4007 46.0724C34.8912 43.7723 34.6729 44.6976 33.8598 43.7669C33.6376 43.5408 33.3485 43.3923 33.0352 43.3433C32.722 43.2943 32.4014 43.3475 32.1207 43.4948C32.0743 43.5232 32.0228 43.542 31.9691 43.5504C31.9155 43.5587 31.8607 43.5563 31.8079 43.5433C31.3468 43.4664 30.5499 43.0191 27.0078 45.0034C26.5413 45.2647 26.7419 44.5792 25.9096 44.862C25.5084 44.9988 25.3478 45.2371 25.3025 45.0203C25.2942 44.8924 25.2578 44.7678 25.1957 44.6557C25.1336 44.5435 25.0475 44.4464 24.9434 44.3715C24.8394 44.2966 24.7201 44.2456 24.594 44.2222C24.4679 44.1989 24.3382 44.2037 24.2143 44.2365C23.5149 44.364 23.4657 44.6284 23.4458 43.9291C23.4173 42.8893 23.2775 39.7384 23.9922 38.9998ZM14.7754 53.1719C14.9937 52.9506 15.1313 52.6455 15.4717 52.5456C15.6508 52.4926 15.6569 52.3611 15.5117 52.2259C15.2719 52.003 14.8792 51.8478 14.9245 51.2822C14.9906 50.4514 15.1658 49.8174 16.1319 49.7674C16.6085 49.8108 17.0722 49.946 17.4975 50.1655C17.6328 50.2116 17.8172 50.0748 17.476 49.6783C16.7251 48.806 17.7427 47.707 18.5135 48.3434C18.8631 48.6331 18.98 48.3641 18.8977 48.2312C18.7248 47.9491 18.296 47.9022 18.2414 47.5395C18.1994 47.3086 18.2221 47.0707 18.307 46.8519C18.3918 46.6331 18.5356 46.4421 18.7223 46.2999C18.909 46.1578 19.1314 46.07 19.3648 46.0464C19.5983 46.0228 19.8337 46.0643 20.0451 46.1662C20.454 46.3061 20.2541 46.6073 20.3679 46.7464C20.5216 46.9401 20.6638 46.814 20.6868 46.7095C20.6496 46.1866 20.7875 45.6661 21.0788 45.2301C21.1509 45.1336 21.2427 45.0535 21.348 44.9951C21.4534 44.9367 21.57 44.9013 21.6901 44.8912C21.8101 44.8812 21.931 44.8968 22.0446 44.9369C22.1582 44.9771 22.262 45.0409 22.3491 45.1241C23.0492 45.9933 22.7626 46.3837 22.8809 46.6234C22.9116 46.6865 23.1161 46.8064 23.1576 46.5912C23.1483 45.9384 23.3656 45.3027 23.7724 44.7921C23.9165 44.6645 24.101 44.5918 24.2934 44.5869C24.4963 44.5669 24.6946 44.6053 24.7653 44.7406C25.1857 45.546 24.65 46.3099 25.2372 45.9495C25.2894 45.9172 25.1603 45.6067 25.9357 45.247C26.0155 45.1983 26.1084 45.1756 26.2017 45.1819C26.295 45.1882 26.384 45.2233 26.4565 45.2823C26.5289 45.3413 26.5814 45.4213 26.6065 45.5114C26.6316 45.6014 26.6281 45.697 26.5967 45.785C26.5052 46.1593 26.031 46.7695 26.7042 46.7072C27.1246 46.6711 27.339 46.9285 27.2422 47.3389C27.0839 47.9876 26.5344 47.7685 26.1993 48.3234C25.7063 48.5513 25.1747 48.6843 24.6323 48.7153C24.1589 48.7722 24.1712 49.2087 24.1405 49.2902C23.8731 49.9995 22.5812 49.3079 22.8717 50.2654C23.2037 50.9648 21.9802 51.0723 22.6135 51.5081C23.269 51.9592 21.7904 52.4549 22.469 52.8768C23.0146 53.2165 23.2621 53.2196 23.0915 53.4301C22.4298 54.2448 23.3743 53.9973 23.933 54.679C24.0729 54.8496 23.8877 54.8265 22.6657 55.5643C22.3545 55.7526 21.7089 54.9218 20.7222 55.9239C20.132 56.5234 20.4693 57.0475 20.1343 56.9023C17.539 55.7772 17.4391 56.4911 15.7753 56.0861C15.4617 56.0093 15.1067 55.5405 15.6485 54.9664C15.8291 54.7743 15.8329 54.6682 15.6331 54.5053C15.4873 54.3823 15.3279 54.2764 15.1582 54.1894C15.0662 54.1478 14.9834 54.0884 14.9144 54.0147C14.8453 53.941 14.7915 53.8545 14.756 53.76C14.7205 53.6655 14.7039 53.5649 14.7072 53.464C14.7106 53.3631 14.7337 53.2639 14.7754 53.1719ZM13.2469 53.9965C13.5227 53.9946 13.7963 53.9463 14.0561 53.8536C14.5833 53.7299 14.3727 54.2432 14.88 54.4476C14.9876 54.4914 15.3749 54.7059 15.2504 54.8319C14.996 55.0901 14.9845 54.6144 13.897 54.3885C13.8817 54.3885 13.5497 54.2809 13.4928 54.423C13.3007 54.9034 14.3197 54.6805 14.8861 55.3791C15.0859 55.625 14.7555 55.6542 14.7401 55.6603C13.2031 55.3637 13.1931 55.5297 12.7043 54.8749C12.4876 54.5837 12.7965 53.9012 13.2469 53.9965ZM12.8941 55.6511C13.2784 55.8763 13.419 55.8479 14.923 56.0454C15.1451 56.0753 15.1966 56.4865 14.9745 56.5341C14.5601 56.6228 14.1336 56.64 13.7134 56.5849C13.077 56.5618 12.493 56.4481 12.5229 56.0331C12.5652 55.4444 12.6851 55.5266 12.8941 55.6504V55.6511ZM5.92375 59.8864C10.4295 54.7735 10.2827 55.6165 12.0226 55.4667C12.1441 55.4559 12.224 55.4713 12.1656 55.8217C12.038 56.5902 12.5283 56.4588 12.433 56.8277C12.2117 57.6846 12.9525 57.8875 12.8772 58.201C12.6943 58.9603 13.1424 59.3484 13.6542 59.3407C14.0553 59.3354 14.0384 59.187 14.1015 60.0093C11.5239 60.0701 7.20947 59.7965 5.83153 60.1408C5.60252 60.1969 5.85536 59.9678 5.92375 59.8856V59.8864ZM16.2364 107.946C12.659 107.923 12.4999 107.979 9.65179 107.894C8.37069 107.855 7.92649 107.955 7.80737 107.422C7.27787 105.062 7.23637 105.255 7.54377 105.253C7.88422 105.253 16.9964 105.235 16.938 105.565C16.5753 107.618 16.4961 107.946 16.2364 107.946ZM16.7866 104.889C13.7725 104.758 8.45907 104.867 5.76083 104.7C4.97388 104.651 4.71566 103.787 4.64803 102.861C4.57118 101.749 4.69491 96.3006 4.73564 90.6921C4.9539 61.0038 4.36061 63.682 4.62497 62.2572C4.66721 61.6929 4.92839 61.1675 5.35275 60.7932C5.68374 60.501 6.10935 60.3386 6.55086 60.336C8.31843 60.2868 10.6509 60.2898 13.6511 60.3582C14.0769 60.3675 14.1545 60.3198 14.2544 60.6157C14.5484 61.8085 14.9656 62.9675 15.4994 64.074C16.0811 65.3174 16.5937 65.1499 17.3184 66.8099C19.4388 71.6699 18.9846 69.4674 19.0145 75.4802C19.0145 75.8137 18.93 75.8122 17.8917 76.3963C15.8214 77.5613 16.6091 77.9955 17.177 86.9533C17.1443 87.3719 17.2735 87.787 17.5379 88.1132C17.8023 88.4393 18.1817 88.6516 18.598 88.7062C18.1692 89.0966 17.7611 89.3449 17.7642 91.1432C17.7642 91.3553 17.7465 96.5996 17.6581 102.02C17.6197 104.325 18.8639 104.091 19.4449 104.382C18.6134 104.765 17.7008 104.94 16.7866 104.89V104.889ZM118.888 114.418C118.874 115.233 114.576 115.699 113.708 115.673C111.556 115.612 109.566 113.541 108.048 111.99C107.92 111.859 107.911 111.735 107.91 111.298C107.905 109.952 107.881 109.617 108.14 110.023C108.379 110.629 108.717 111.191 109.139 111.686C109.79 112.367 110.518 112.968 111.31 113.477C112.65 114.384 113.007 114.586 114.073 114.421C115.484 114.334 116.871 114.01 118.175 113.463C118.709 113.236 118.916 112.734 118.888 114.417V114.418ZM108.743 106.914C108.697 105.751 108.293 105.248 109.068 104.625C110.86 103.183 112.962 103.369 113.967 104.284C114.384 104.663 114.494 104.826 114.48 105.714C114.148 107.487 114.801 106.453 111.509 107.579C111.025 107.745 110.424 108.151 110.581 108.799C110.603 108.936 110.661 109.065 110.749 109.173C110.837 109.281 110.952 109.364 111.082 109.414C111.11 109.419 111.135 109.518 111.137 109.575C111.174 110.623 111.94 110.42 111.996 110.716C112.041 110.866 112.119 111.004 112.226 111.118C112.332 111.232 112.464 111.32 112.61 111.374C112.757 111.429 112.914 111.448 113.069 111.432C113.224 111.415 113.374 111.362 113.505 111.277C114.281 110.88 115.106 110.587 115.958 110.404C116.147 110.354 116.247 110.473 116.842 111.005C116.943 111.094 117.153 111.216 116.975 111.312C116.797 111.408 116.531 111.373 115.399 111.619C114.818 111.745 114.035 112.484 113.059 112.272C112.666 112.107 112.3 111.883 111.975 111.607C111.244 111.131 110.623 110.506 110.153 109.772C109.633 109.056 109.734 108.651 109.503 108.555C109.372 108.537 109.015 109.202 110.579 110.88C111.134 111.424 111.736 111.918 112.379 112.355C113.18 112.983 114.106 112.553 115.11 112.086C115.424 111.94 116.97 111.718 117.305 111.634C117.86 111.494 118.232 111.864 118.534 112.373C118.799 112.814 118.427 112.767 117.976 112.995C116.606 113.542 115.159 113.873 113.687 113.976C112.644 114.146 111.143 112.687 110.289 112.163C109.747 111.745 109.299 111.217 108.976 110.613C107.873 108.763 108.842 109.301 108.746 106.913L108.743 106.914ZM115.952 109.338C116.031 109.37 116.095 109.431 116.131 109.508C116.167 109.585 116.173 109.673 116.147 109.754C116.098 109.916 115.947 109.82 114.918 110.12C113.125 110.643 113.174 111.088 112.714 110.831C111.667 110.241 115.38 109.159 115.955 109.337L115.952 109.338ZM112.358 109.942C112.313 109.986 112.257 110.019 112.196 110.037C112.135 110.055 112.07 110.057 112.008 110.043C111.946 110.03 111.888 110.001 111.839 109.96C111.791 109.919 111.754 109.866 111.731 109.806C111.41 109.115 113.462 108.686 114.15 108.521C114.553 108.384 114.983 108.344 115.405 108.405C115.751 108.521 115.708 108.922 115.531 108.963C114.56 109.189 113.483 109.142 112.362 109.944L112.358 109.942ZM115.378 107.636C115.142 107.126 114.734 107.111 114.774 106.698C114.899 105.409 115.124 104.795 114.671 104.358C114.54 104.232 114.825 104.262 115.055 104.262C115.766 104.262 115.353 104.296 115.638 105.969C115.746 106.563 115.504 107.901 115.381 107.632L115.378 107.636ZM114.868 107.728C114.888 107.86 114.746 107.988 114.513 108.013C112.063 108.274 110.99 109.568 111.054 108.566C111.075 108.263 111.439 108.063 111.933 107.874C112.733 107.574 113.571 107.385 114.422 107.313C114.528 107.332 114.626 107.38 114.706 107.453C114.785 107.525 114.843 107.619 114.871 107.723L114.868 107.728ZM126.368 113.076C126.335 113.634 126.311 113.654 125.806 113.863C124.251 114.506 121.295 115.037 119.621 114.331C119.284 114.19 119.569 114.143 119.284 113.135C119.264 113.063 119.284 112.852 119.373 112.904C119.673 113.139 120.019 113.308 120.388 113.401C120.757 113.493 121.141 113.507 121.516 113.442C126.935 112.854 126.098 111.287 126.371 113.072L126.368 113.076ZM123.443 108.952C122.786 109.09 122.139 109.272 121.506 109.497C120.891 109.727 120.541 110.041 120.176 109.844C119.164 109.298 122.319 108.146 123.293 108.336C123.825 108.434 123.607 108.89 123.446 108.945L123.443 108.952ZM123.016 107.456C123.158 107.581 123.237 107.891 123.016 107.939C121.854 108.001 120.727 108.363 119.747 108.992C119.521 109.163 119.147 109.039 119.112 108.557C119.53 108.019 120.485 107.879 121.624 107.605C122.062 107.496 122.716 107.187 123.019 107.452L123.016 107.456ZM122.305 106.539C122.382 106.669 122.432 106.878 122.343 106.944C121.99 107.205 120.329 107.082 119.066 107.896C119.016 107.933 118.957 107.957 118.895 107.966C118.833 107.975 118.77 107.968 118.712 107.947C118.653 107.925 118.601 107.889 118.56 107.842C118.519 107.795 118.49 107.739 118.476 107.678C118.418 107.481 118.461 107.22 119.095 106.986C119.907 106.65 120.76 106.425 121.631 106.317C121.988 106.29 122.118 106.217 122.308 106.535L122.305 106.539ZM121.727 105.765C121.696 106.14 117.08 106.245 118.089 107.985C118.443 108.6 118.516 108.269 118.583 108.552C118.902 109.879 119.313 109.308 119.473 109.763C119.511 109.89 119.575 110.008 119.662 110.108C119.749 110.208 119.857 110.289 119.977 110.344C120.098 110.399 120.229 110.428 120.362 110.428C120.495 110.428 120.626 110.4 120.747 110.345C120.762 110.339 123.513 109.163 123.744 109.423C123.98 109.691 124.251 109.925 124.551 110.119C123.792 110.24 123.05 110.444 122.337 110.729C121.881 111.002 121.377 111.184 120.851 111.262C120.402 111.321 120.146 111.021 119.771 110.792C119.249 110.463 118.766 110.073 118.335 109.63C117.627 108.926 117.176 108.228 117.221 107.888C117.226 107.82 117.209 107.752 117.172 107.694C117.134 107.637 117.078 107.594 117.013 107.572C116.872 107.535 116.848 107.71 116.843 107.735C116.587 109.031 119.493 111.101 119.841 111.37C120.623 111.984 121.657 111.533 122.624 111.062C123.329 110.826 124.051 110.643 124.783 110.514C124.929 110.506 125.074 110.532 125.208 110.591C125.969 110.844 126.304 111.667 125.921 111.821C118.908 114.635 119.731 111.807 117.479 110.909C117.153 110.72 116.878 110.452 116.681 110.131C116.656 110.09 116.643 110.044 116.643 109.996C116.643 109.949 116.656 109.902 116.681 109.862C116.828 109.23 116.173 109.192 116.138 108.677C116.117 108.382 115.739 108.247 115.958 107.551C116.148 106.613 116.154 105.648 115.977 104.707C115.807 103.37 118.212 102.443 119.639 102.539C121.239 102.645 121.508 103.402 121.667 103.714C121.946 104.363 121.969 105.095 121.73 105.76L121.727 105.765ZM134.567 103.796C131.421 103.702 125.525 103.761 122.809 103.822C122.257 103.834 122.261 103.651 122.171 103.501C121.454 102.31 120.132 102.011 118.749 102.149C117.853 102.239 116.488 102.732 116.156 103.243C115.824 103.753 115.356 103.698 114.629 103.713C113.353 103.738 113.806 103.336 112.454 103.084C111.268 102.945 110.071 103.236 109.083 103.907C108.617 104.168 104.958 103.907 98.775 103.925C95.6011 103.932 25.9972 104.01 20.8705 103.911C18.1584 103.859 18.1661 102.977 18.1615 102.552C18.1261 99.1472 18.1938 99.3055 18.1384 99.304C18.4359 89.7253 17.1332 88.5756 21.1725 88.6401C21.9764 88.6532 22.9893 88.7408 24.2711 88.7677C24.348 88.7677 73.1376 89.5739 74.5754 89.4071C76.2777 89.2088 75.9103 88.0584 76.1893 88.3789C77.2545 89.6085 78.365 89.1005 83.4709 89.2165C88.1673 89.3234 98.0519 88.5564 99.2507 88.5156C106.807 88.2605 134.77 89.0106 134.77 89.0259C134.826 90.1019 134.869 91.1847 134.858 92.2644C134.752 104.107 135.149 103.808 134.57 103.791L134.567 103.796ZM135.272 80.1051C135.241 83.0854 135.272 84.6393 135.09 86.9064C134.964 88.4841 135.143 88.3404 130.547 88.355C129.562 88.355 117.982 88.0384 114.365 87.9477C98.4277 87.5481 96.4295 88.438 84.6521 88.6763C75.0004 88.8715 76.26 89.0221 76.0502 83.6041C75.9319 80.5424 75.9273 78.7955 75.9042 77.775C75.8658 76.0381 77.5642 75.9413 78.3027 75.7768C79.9166 75.411 82.1991 75.0375 84.0665 74.767C85.5905 74.5472 88.5831 74.3167 90.1247 74.2052C94.4747 73.8204 98.8423 73.6701 103.209 73.7549C108.511 73.8256 110.004 73.0686 117.685 72.7182C119.598 72.6306 121.115 73.187 121.999 72.9726C122.884 72.7581 122.101 71.5716 122.6 71.5516C126.565 71.3925 126.762 71.2657 128.19 71.4501C130.378 71.7329 131.393 71.7975 131.778 71.2273C132.401 70.3051 132.081 69.1876 132.36 68.2193C132.469 67.5302 132.514 66.8326 132.496 66.1351C132.513 65.9092 132.975 63.7804 133.313 62.1512C133.41 61.2102 133.749 60.3103 134.296 59.5382C134.752 58.8919 134.526 59.7527 135.205 59.9994C135.335 60.0478 135.638 59.8987 135.469 59.6543C134.379 58.0742 134.79 59.5928 136.007 56.1391C136.251 55.4475 136.076 55.3537 136.405 55.3537C141.431 55.3537 141.008 55.0017 144.085 56.9115C144.595 57.2281 147.474 59.2939 147.674 59.5651C147.359 59.7035 148.432 59.5613 140.028 59.7834C138.072 59.8349 135.438 59.4283 135.229 62.5869C135.121 64.2108 135.438 62.9043 135.119 66.6685C135.059 67.3863 135.019 69.1223 135.013 69.6426C134.936 76.1526 135.723 75.8675 133.861 73.6573C133.323 73.0164 133.937 73.7833 132.42 71.9458C132.103 71.5616 131.889 71.7045 131.932 71.9151C131.992 72.2225 134.549 75.2243 134.687 75.5824C134.466 75.6516 134.818 75.6208 133.525 75.5609C131.26 75.4604 128.992 75.5262 126.737 75.7576C119.744 75.6485 116.833 75.906 114.014 76.0143C113.378 76.0381 77.9085 75.7768 77.9799 76.696C77.9876 76.7913 78.0383 76.8973 78.1075 76.9112C79.3433 77.0403 83.8045 76.5269 96.4096 76.5546C100.414 76.5646 105.31 76.344 111.088 76.6022C111.088 76.6022 131.563 76.0889 131.78 76.0812C135.846 75.9328 135.313 76.2787 135.272 80.1005L135.272 80.1051ZM136.902 104.567C136.086 104.477 135.377 104.211 135.424 103.346C135.511 101.795 135.132 99.2425 135.437 88.7439C135.444 88.4826 135.554 88.3596 135.57 88.0884C135.72 85.5638 135.653 82.5359 135.823 79.1083C135.866 78.2376 135.899 76.6599 135.454 76.1419C135.434 75.8391 135.666 75.2758 135.646 74.9315C135.145 66.3595 135.995 66.1866 135.738 63.9241C135.301 60.0816 137.736 60.1984 139.441 60.1669C145.467 60.0585 147.73 59.8987 148.548 60.1823C149.609 60.5504 149.536 62.0052 149.569 62.4178C149.758 64.7933 149.634 71.8574 149.613 77.4038C149.597 81.3424 149.656 101.274 149.586 103.144C149.606 103.381 149.571 103.62 149.484 103.842C149.396 104.063 149.258 104.261 149.081 104.42C148.499 104.669 147.868 104.778 147.236 104.739C146.098 104.795 137.578 104.637 136.905 104.564L136.902 104.567ZM146.787 107.574C146.692 107.763 146.669 107.876 145.995 107.949C145.769 107.973 139.267 107.97 138.9 107.949C138.269 107.91 138.198 107.818 138.106 107.419C137.669 105.524 137.376 105.069 137.881 105.079C139.555 105.114 146.309 105.22 146.732 105.175C147.234 105.123 147.409 105.099 147.396 105.298C147.337 106.086 147.132 106.857 146.79 107.569L146.787 107.574Z" fill="#000001"/>
<path d="M117.013 104.854C117.056 105.636 116.872 106.231 116.964 106.482C116.993 106.52 117.035 106.544 117.082 106.551C117.129 106.557 117.177 106.545 117.215 106.516C117.31 106.444 117.271 106.423 117.326 105.773C117.409 104.807 117.187 104.011 119.094 103.523C119.405 103.423 119.737 103.412 120.054 103.491C120.37 103.571 120.658 103.737 120.886 103.971C121.01 104.101 121.229 104.559 121.362 104.504C121.459 104.463 121.458 104.342 121.297 104.027C121.165 103.77 120.965 103.554 120.718 103.402C120.417 103.222 120.076 103.116 119.725 103.095C119.374 103.074 119.024 103.138 118.703 103.28C117.788 103.559 116.975 104.144 117.013 104.854Z" fill="#000001"/>
<path d="M109.685 107.589C109.797 107.558 109.794 107.577 109.862 107.127C109.892 106.926 109.882 106.182 109.904 105.706C109.942 104.852 111.651 104.332 112.738 104.503C112.971 104.554 113.186 104.665 113.362 104.826C113.537 104.987 113.667 105.192 113.737 105.42C114.019 105.634 114.073 105.249 113.804 104.84C113.535 104.43 112.944 103.994 111.665 104.167C111.026 104.253 109.685 104.774 109.587 105.534C109.505 106.166 109.623 106.635 109.51 107.042C109.45 107.24 109.408 107.665 109.685 107.589Z" fill="#000001"/>
<path d="M104.716 107.759C104.454 107.767 27.5804 107.668 27.1424 107.657C26.8073 107.65 26.8442 107.911 27.1162 107.978C27.7616 108.133 28.4274 108.185 29.089 108.132C30.626 108.021 95.2399 108.412 104.527 108.171C105.346 108.152 105.166 107.744 104.716 107.759Z" fill="#000001"/>
<path d="M67.3422 69.9258C67.084 70.1095 67.0532 70.5037 67.1239 71.3037C67.2054 72.2175 68.7493 70.6251 73.0191 73.5378C73.3066 73.7338 73.5771 73.9297 73.8438 73.6915C73.936 73.61 75.2102 72.9045 74.3894 72.1061C73.0673 70.8519 71.3931 70.0324 69.5916 69.7575C69.2988 69.7191 67.8394 69.5715 67.3422 69.9258ZM74.0636 72.3159C74.2603 72.5372 74.3648 72.6479 74.2265 72.82C73.1921 73.8898 73.8545 73.265 71.1417 72.0761C68.8023 71.0517 67.8302 71.5535 67.5527 71.1977C67.4759 71.0978 67.4997 70.8472 67.5082 70.5736C67.5136 70.4199 67.5143 70.2924 67.6788 70.2086C68.2375 69.9227 69.6823 70.0549 70.9957 70.4953C72.1652 70.811 73.2261 71.4406 74.0636 72.3159Z" fill="#000001"/>
<path d="M74.1452 77.0521C71.7828 77.0521 68.3514 77.1005 64.4466 77.1089C56.5309 77.1266 56.4264 77.0398 56.3119 77.1428C56.1974 77.2457 56.1736 77.5385 56.4118 77.5393C56.916 77.5393 60.5433 77.5024 64.4727 77.4978C69.0569 77.4924 74.0068 77.5147 74.1667 77.4932C74.2197 77.4833 74.2673 77.4546 74.3007 77.4123C74.3341 77.37 74.3511 77.3171 74.3485 77.2632C74.3458 77.2094 74.3238 77.1584 74.2864 77.1195C74.249 77.0807 74.1989 77.0567 74.1452 77.0521Z" fill="#000001"/>
<path d="M35.045 77.6328C29.8291 77.1425 23.7479 77.2485 18.7857 77.2839C18.4368 77.2839 18.3953 77.4268 18.4183 77.5913C18.4613 77.8987 32.5251 77.5982 34.3326 77.9755C34.6999 78.0524 38.2474 78.4735 38.2366 77.9632C38.2282 77.5851 37.0931 77.8257 35.045 77.6328Z" fill="#000001"/>
<path d="M28.9922 52.6018C28.6748 51.801 28.4543 52.8623 27.6857 53.0882C26.719 53.3711 28.1568 53.9482 28.9922 52.6018Z" fill="#000001"/>
<path d="M27.8063 50.9165C28.5794 50.7935 28.3335 50.0066 27.96 49.9866C27.8355 49.9804 27.7187 50.2079 27.6265 50.2525C27.3759 50.3739 26.1256 50.7904 26.114 51.5259C26.1135 51.5603 26.1236 51.594 26.1431 51.6223C26.1626 51.6506 26.1904 51.6722 26.2227 51.684C26.2551 51.6957 26.2902 51.6971 26.3234 51.6879C26.3565 51.6787 26.386 51.6594 26.4076 51.6327C26.6328 51.3545 26.6612 51.0978 27.8063 50.9165Z" fill="#000001"/>
<path d="M22.5704 56.7278C22.2138 56.2528 21.5821 56.0023 21.2324 56.5065C21.1171 56.7015 21.0678 56.9285 21.0919 57.1538C21.116 57.3791 21.2122 57.5906 21.3661 57.7568C21.9556 57.8406 21.1064 56.933 21.6443 56.6509C21.8587 56.5387 22.0286 56.7017 22.1907 56.8108C22.3168 56.8953 22.2807 57.0198 22.2445 57.1535C21.9871 58.1234 23.551 58.2295 23.425 57.6146C23.3381 57.182 23.0784 57.6915 22.6826 57.4679C22.4167 57.3165 22.8301 57.0713 22.5704 56.7278Z" fill="#000001"/>
</svg>
