<svg width="154" height="154" viewBox="0 0 154 154" fill="none" xmlns="http://www.w3.org/2000/svg">
<path d="M87.0841 121.515C86.8544 121.597 83.5733 122.775 83.1606 122.981C82.6651 122.692 79.4438 122.321 79.2784 122.176C80.1253 122.878 82.0457 124.819 81.8818 124.963C81.8198 125.025 71.5569 126.14 71.9911 121.577C65.7219 120.023 59.354 118.897 52.9317 118.208C54.4859 119.232 55.8026 120.577 56.7932 122.152C53.4891 122.214 46.2455 120.374 46.0142 120.046C45.4859 119.296 46.0969 117.816 46.613 117.197C44.9614 116.928 38.3533 115.73 38.0232 115.792C37.6932 115.854 37.7568 116.119 38.0026 116.267C38.4074 116.464 38.7527 116.764 39.0031 117.138C39.2535 117.512 39.4 117.945 39.4275 118.394C39.3556 119.655 38.1036 119.525 37.197 119.385C36.5967 119.293 34.7192 118.849 34.5936 118.849C34.3742 118.832 34.1561 118.896 33.981 119.029C33.8059 119.163 33.686 119.356 33.6441 119.572C33.5821 119.985 33.8738 120.225 34.2222 120.398C35.1411 120.854 79.8978 129.133 80.2485 128.926C80.2919 128.936 80.3369 128.936 80.3801 128.925C80.4232 128.914 80.4632 128.893 80.4966 128.864C81.8167 127.835 87.3521 122.071 87.3521 122.071C87.5795 121.887 87.434 121.39 87.0841 121.515Z" fill="#38A1FF"/>
<path d="M36.617 118.81C36.6377 117.716 35.048 117.175 34.1805 117.117C33.519 117.052 32.8567 117.233 32.32 117.625C31.7833 118.017 31.4098 118.593 31.2708 119.243C31.1117 120.021 31.2528 120.83 31.6657 121.508C32.0786 122.186 32.7327 122.683 33.4967 122.899C34.61 123.195 36.6859 122.92 36.7801 121.474C36.8031 121.123 36.3842 121.036 36.1606 121.226C35.8038 121.532 35.6246 121.825 35.1277 121.949C34.6406 122.077 34.1285 122.077 33.6414 121.949C33.3687 121.898 33.1092 121.793 32.8789 121.638C32.6487 121.483 32.4527 121.283 32.3029 121.05C32.1531 120.816 32.0528 120.555 32.0082 120.281C31.9636 120.007 31.9756 119.727 32.0435 119.458C32.1114 119.189 32.2338 118.937 32.403 118.718C32.5722 118.498 32.7847 118.315 33.0274 118.181C33.27 118.047 33.5376 117.963 33.8137 117.937C34.0897 117.91 34.3683 117.94 34.6323 118.025C35.7938 118.251 36.483 119.518 36.617 118.81Z" fill="#191919"/>
<path d="M46.6736 93.9075C44.2785 93.5147 17.4142 91.471 16.0719 91.5338C15.6178 91.5545 15.4532 92.272 15.9478 92.3593C18.3889 92.7904 44.0097 94.383 46.6116 94.3624C46.6706 94.368 46.7296 94.3505 46.776 94.3137C46.8225 94.2769 46.8529 94.2235 46.8609 94.1647C46.8689 94.106 46.8539 94.0464 46.819 93.9985C46.7841 93.9505 46.732 93.918 46.6736 93.9075Z" fill="#191919"/>
<path d="M79.8566 96.8187C78.5109 96.5548 77.1385 96.452 75.7684 96.5125C75.3335 96.5691 75.1291 97.2498 75.6651 97.3379C77.0673 97.4752 78.4807 97.4477 79.8765 97.256C79.9383 97.2349 79.9897 97.1911 80.0204 97.1335C80.0511 97.076 80.0588 97.0089 80.0419 96.9458C79.9928 96.8874 79.9287 96.8435 79.8566 96.8187Z" fill="#191919"/>
<path d="M85.4522 97.975C99.245 98.9429 134.764 101.473 138.727 101.774C139.326 101.82 139.306 100.903 138.727 100.846C124.963 99.4674 89.4147 97.6733 85.4522 97.5002C85.142 97.4903 85.1635 97.9551 85.4522 97.975Z" fill="#191919"/>
<path d="M7.99892 89.1785C12.7892 89.654 44.9622 91.357 46.0963 91.1403C46.1612 91.1215 46.2182 91.0822 46.2588 91.0282C46.2994 90.9742 46.3214 90.9084 46.3214 90.8409C46.3214 90.7733 46.2994 90.7076 46.2588 90.6536C46.2182 90.5996 46.1612 90.5602 46.0963 90.5415C45.1491 90.2827 10.5801 88.6938 7.97825 88.7244C7.91733 88.7244 7.8589 88.7486 7.81582 88.7917C7.77274 88.8348 7.74854 88.8932 7.74854 88.9542C7.75759 89.0149 7.78756 89.0705 7.83328 89.1115C7.879 89.1524 7.93759 89.1761 7.99892 89.1785Z" fill="#191919"/>
<path d="M85.0398 94.5684C88.8806 95.0431 145.603 98.22 147.73 98.0991C148.102 98.0784 148.246 97.4574 147.834 97.3969C144.037 96.8441 89.4633 94.0209 85.0398 94.135C84.9789 94.135 84.9204 94.1592 84.8773 94.2022C84.8343 94.2453 84.8101 94.3037 84.8101 94.3647C84.8165 94.421 84.8435 94.4729 84.8859 94.5105C84.9283 94.5481 84.9831 94.5687 85.0398 94.5684Z" fill="#191919"/>
<path d="M143.641 40.4055C143.604 38.1433 142.935 35.9367 141.709 34.0353C140.483 32.1339 138.749 30.6139 136.703 29.6472C137.839 27.19 138.787 24.6701 138.459 21.8836C137.481 13.568 128.888 9.49975 121.86 12.8788C121.613 9.30679 119.629 6.17272 116.037 5.05325C112.939 4.08692 107.963 4.94988 107.097 8.58396C105.38 8.12853 103.563 8.23347 101.91 8.88347C100.257 9.53348 98.8547 10.6946 97.9081 12.1974C97.1065 13.8665 96.5642 15.6481 96.3001 17.4808C94.483 16.5719 89.0901 14.483 84.881 18.9464C83.5905 20.3412 82.8875 22.1799 82.9183 24.08C82.9491 25.98 83.7113 27.7949 85.0464 29.1472C83.7445 29.6001 82.6015 30.4201 81.7555 31.5084C80.9094 32.5966 80.3965 33.9065 80.2786 35.2798C80.1607 36.6532 80.4429 38.0313 81.0911 39.2478C81.7393 40.4643 82.7258 41.4672 83.9315 42.1353C81.1022 45.4186 79.3862 49.9455 81.433 54.0911C83.1237 57.52 87.5242 59.1502 90.7456 56.9825C90.8897 57.9927 91.2475 58.9606 91.7951 59.8216C92.3428 60.6827 93.0677 61.4171 93.9216 61.9759C94.7754 62.5347 95.7386 62.905 96.7469 63.0623C97.7551 63.2195 98.7853 63.16 99.7688 62.8876C99.8755 62.8572 99.9657 62.7856 100.02 62.6886C100.074 62.5916 100.087 62.4771 100.056 62.3704C100.026 62.2637 99.9542 62.1734 99.8572 62.1195C99.7602 62.0656 99.6458 62.0524 99.539 62.0829C98.6138 62.3332 97.6438 62.371 96.7019 62.1934C95.7599 62.0158 94.8704 61.6274 94.0997 61.0574C93.3291 60.4873 92.6974 59.7503 92.252 58.9016C91.8065 58.0528 91.5588 57.1143 91.5274 56.1563C91.5272 56.0985 91.515 56.0413 91.4915 55.9885C91.468 55.9357 91.4338 55.8884 91.391 55.8496C91.3482 55.8107 91.2978 55.7812 91.243 55.763C91.1881 55.7447 91.1301 55.7381 91.0726 55.7435C87.7892 58.6755 83.1275 56.4847 81.8426 52.9556C80.4437 49.1132 82.1918 45.0909 84.8572 42.3007C85.0188 42.1322 85.087 41.7646 84.7746 41.6605C83.5674 41.1117 82.5621 40.199 81.8995 39.0503C81.2369 37.9016 80.9503 36.5745 81.0797 35.2547C81.2091 33.935 81.748 32.6887 82.6211 31.6906C83.4942 30.6925 84.6576 29.9924 85.9484 29.6886C86.0233 29.665 86.09 29.6207 86.1407 29.5607C86.1914 29.5008 86.2241 29.4277 86.2349 29.3499C86.2457 29.2721 86.2343 29.1929 86.2019 29.1213C86.1694 29.0498 86.1174 28.989 86.0518 28.9458C85.3389 28.3453 84.7634 27.5987 84.3641 26.7564C83.9649 25.9142 83.7511 24.9961 83.7374 24.0641C83.7237 23.1321 83.9103 22.2081 84.2846 21.3545C84.6589 20.5009 85.2122 19.7376 85.907 19.1164C89.7103 15.7755 95.0137 17.8568 96.8927 18.745C96.9907 18.7737 97.0954 18.7689 97.1903 18.7315C97.2852 18.6941 97.365 18.6262 97.4171 18.5384C97.4691 18.4507 97.4905 18.3481 97.4777 18.2468C97.465 18.1456 97.419 18.0514 97.3468 17.9793C96.8307 17.6492 98.2764 13.2096 98.8959 12.3421C99.8157 11.0305 101.136 10.052 102.658 9.55316C104.18 9.05431 105.823 9.0619 107.341 9.57479C107.453 9.60281 107.571 9.58658 107.671 9.52949C107.77 9.4724 107.844 9.37888 107.877 9.2685C108.373 5.59307 113.308 4.99276 116.137 6.0058C119.421 7.18193 121.03 10.2387 121.03 13.6047C121.03 13.8528 121.26 14.1622 121.485 14.0381C125.801 12.0151 131.169 12.2418 134.494 15.5252C136.23 17.2572 137.323 19.5302 137.591 21.9679C137.908 24.7153 136.79 27.1747 135.754 29.6694C135.342 30.6649 138.829 32.1894 139.326 32.6435C141.459 34.7419 142.701 37.5816 142.795 40.5724C142.943 46.5611 136.827 50.7526 131.252 50.1331C131.022 50.1331 130.631 50.4027 130.88 50.7733C131.851 52.119 132.351 53.7469 132.303 55.4053C132.256 57.0637 131.663 58.6603 130.618 59.9483C129.572 61.2362 128.131 62.1438 126.517 62.5308C124.904 62.9177 123.208 62.7625 121.692 62.089C121.386 61.9642 121.059 62.334 121.156 62.625C121.67 64.1817 120.867 66.5072 119.153 66.9612C117.438 67.4153 115.095 66.2905 113.991 65.0408C113.719 64.7345 113.287 65.1863 113.536 65.4949C114.829 67.0922 117.79 68.5501 119.834 67.6389C120.629 67.2173 121.278 66.5665 121.698 65.7711C122.118 64.9757 122.289 64.0725 122.189 63.1786C123.802 63.7003 125.534 63.7222 127.16 63.2414C128.785 62.7607 130.227 61.7997 131.297 60.4847C132.366 59.1697 133.013 57.5621 133.153 55.8729C133.292 54.1836 132.917 52.4917 132.078 51.0191C137.901 51.2672 143.936 46.6622 143.641 40.4055Z" fill="#38A1FF"/>
<path d="M107.158 47.0963C106.924 49.4978 106.862 51.9128 106.972 54.3231C107.079 55.7474 107.038 57.7214 108.541 58.4113C109.097 58.6911 109.736 58.7574 110.337 58.5976C110.939 58.4379 111.46 58.0632 111.804 57.5445C113.18 55.5085 114.382 53.3602 115.397 51.1224C115.416 51.0863 115.428 51.0464 115.432 51.0054C115.435 50.9643 115.43 50.923 115.416 50.8842C115.403 50.8453 115.381 50.8097 115.353 50.7796C115.325 50.7496 115.291 50.7258 115.253 50.7097C115.185 50.679 115.109 50.6725 115.038 50.6913C114.966 50.7102 114.903 50.7532 114.86 50.8131C113.874 52.2817 112.999 53.8055 112.114 55.3346C111.41 56.5521 110.381 58.7612 108.645 57.5652C107.985 57.1103 107.919 56.1823 107.802 55.438C107.6 52.6693 107.537 49.892 107.616 47.117C107.62 47.0857 107.617 47.054 107.608 47.0239C107.599 46.9938 107.583 46.9659 107.563 46.942C107.542 46.918 107.517 46.8985 107.489 46.8847C107.461 46.8709 107.43 46.863 107.398 46.8616C107.367 46.8601 107.336 46.8652 107.306 46.8764C107.277 46.8877 107.25 46.9048 107.227 46.9268C107.205 46.9488 107.187 46.9752 107.175 47.0044C107.163 47.0336 107.158 47.0648 107.158 47.0963Z" fill="#191919"/>
<path d="M103.024 41.9339C102.96 41.4385 102.074 41.5411 102.136 42.058C104.114 58.6786 102.672 77.7403 102.632 78.2142C97.9441 77.9455 93.2135 77.5741 88.5074 77.7188C88.4413 77.7259 88.3801 77.7572 88.3357 77.8067C88.2912 77.8561 88.2666 77.9203 88.2666 77.9868C88.2666 78.0533 88.2912 78.1175 88.3357 78.167C88.3801 78.2165 88.4413 78.2477 88.5074 78.2548C93.1538 78.7296 97.9027 78.7296 102.59 78.7908C102.425 81.1033 102.208 83.4173 101.909 85.7083C101.868 86.0184 102.403 86.0797 102.445 85.791C104.16 74.2402 105.042 57.3501 103.024 41.9339Z" fill="#191919"/>
<path d="M141.184 79.8245C136.624 78.8038 117.645 78.0695 112.916 78.3176C112.317 75.8811 109.74 64.3877 117.127 55.2114C117.44 54.8216 116.795 54.4043 116.466 54.7152C106.492 64.1496 111.984 82.0604 115.186 87.6095C115.375 87.938 115.892 87.8147 115.764 87.4441C114.786 84.624 113.782 81.7656 113.038 78.8543C117.684 78.9784 136.374 80.1561 141.1 80.4026C141.171 80.402 141.239 80.3762 141.292 80.3298C141.345 80.2834 141.38 80.2195 141.39 80.1497C141.4 80.0798 141.385 80.0087 141.347 79.949C141.31 79.8894 141.252 79.8452 141.184 79.8245Z" fill="#191919"/>
<path d="M65.8768 28.3463C64.8352 28.7728 63.7198 28.9903 62.5942 28.9864C61.4357 28.8286 60.2606 28.8355 59.1041 29.0071C58.3765 29.1805 57.7034 29.5317 57.1448 30.029C56.5863 30.5264 56.1597 31.1545 55.9034 31.8571C55.1744 33.887 56.0335 36.1742 57.1423 38.031C57.2893 38.2776 58.0719 39.518 58.0926 39.5387C57.9206 40.8323 57.6443 42.1098 57.2663 43.3589C57.2534 43.409 57.2589 43.462 57.2819 43.5084C57.3048 43.5547 57.3438 43.5913 57.3915 43.6113C57.4392 43.6313 57.4925 43.6334 57.5417 43.6173C57.5908 43.6012 57.6325 43.5679 57.6592 43.5235C58.4432 42.3259 58.6913 38.2791 58.7947 37.8243C58.5532 37.6955 58.3656 37.4848 58.2657 37.2299C58.1658 36.9751 58.1602 36.693 58.2499 36.4344C58.3395 36.1758 58.5186 35.9578 58.7548 35.8195C58.991 35.6812 59.2688 35.6319 59.5382 35.6803C60.0742 34.462 60.8798 33.1626 61.9119 33.1197C62.8821 33.0799 63.2137 34.2346 64.4932 34.4414C65.2334 34.5225 65.9799 34.3584 66.6177 33.9741C67.2556 33.5897 67.7497 33.0066 68.0239 32.3142C68.8302 30.2031 67.1716 27.9343 65.8768 28.3463Z" fill="#191919"/>
<path d="M82.1277 124.881C80.6077 122.755 78.6236 121.004 76.3258 119.76C75.8909 119.534 75.3304 120.135 75.7684 120.482C77.5142 121.878 79.3198 123.043 80.7456 124.737C77.9993 125.062 75.2182 124.567 72.7538 123.312C72.7951 122.858 71.887 121.866 72.5241 120.338C72.5403 120.283 72.5379 120.223 72.5171 120.169C72.4964 120.115 72.4585 120.069 72.4092 120.039C72.3599 120.008 72.302 119.995 72.2444 120.001C72.1867 120.006 72.1325 120.03 72.0899 120.07C70.913 121.474 71.9046 123.394 71.9253 123.415C74.3825 125.872 80.0419 125.893 81.8367 125.604C82.2395 125.511 82.313 124.973 82.1277 124.881Z" fill="#191919"/>
<path d="M87.0839 128.042C86.0119 131.016 88.5709 134.713 91.8949 133.432C94.7862 132.318 95.0175 127.144 92.143 125.852C91.7716 125.685 91.3773 126.122 91.6882 126.43C92.1372 126.809 92.5044 127.275 92.7677 127.8C93.031 128.326 93.1847 128.899 93.2196 129.486C93.2747 132.905 89.7586 133.692 88.0985 131.241C87.5687 130.278 87.3521 129.173 87.479 128.081C87.4798 127.881 87.2034 127.8 87.0839 128.042Z" fill="#191919"/>
<path d="M90.801 123.621C92.4526 123.662 93.7873 123.922 94.8891 125.253C95.8084 126.371 96.3761 127.736 96.5209 129.176C97.22 135.925 88.0796 137.593 85.6799 132.397C85.2239 131.41 85.0318 130.321 85.1224 129.238C85.3301 127.847 85.9158 126.54 86.8154 125.46C87.0451 125.13 86.5666 124.859 86.2993 125.067C82.4654 128.044 84.0282 134.503 88.3668 136.032C89.618 136.463 90.9619 136.55 92.2585 136.285C93.555 136.02 94.7567 135.412 95.7383 134.524C100.103 130.352 95.8256 121.263 90.7412 123.208C90.6958 123.226 90.6577 123.258 90.633 123.3C90.6084 123.342 90.5988 123.391 90.6057 123.439C90.6127 123.487 90.6358 123.531 90.6713 123.564C90.7068 123.597 90.7525 123.617 90.801 123.621Z" fill="#191919"/>
<path d="M38.3518 118.318C38.3212 116.314 35.854 115.111 34.1189 115.055C33.0613 115.011 32.0207 115.332 31.1712 115.963C30.3217 116.595 29.715 117.499 29.4527 118.524C29.1537 119.804 29.3383 121.148 29.9711 122.299C30.6038 123.451 31.6399 124.327 32.88 124.76C34.8364 125.437 37.9896 124.754 38.4345 122.365C38.4927 122.054 38.0869 121.707 37.8357 122.014C37.3257 122.639 36.9934 123.305 36.2461 123.665C35.3559 124.085 34.3454 124.173 33.3961 123.914C32.2696 123.582 31.3201 122.819 30.7552 121.79C30.1903 120.76 30.0559 119.549 30.3815 118.421C31.1219 116.061 34.1879 115.23 36.3288 116.604C36.9748 117.111 37.5202 117.734 37.9368 118.442C38.0838 118.563 38.3556 118.542 38.3518 118.318Z" fill="#191919"/>
<path d="M6.34519 129.796C15.2229 132.817 70.4401 148.939 75.5818 150.155C75.6804 150.183 75.7859 150.17 75.875 150.12C75.9641 150.069 76.0295 149.986 76.057 149.887C76.0844 149.788 76.0715 149.683 76.0212 149.594C75.9708 149.505 75.8872 149.439 75.7886 149.412C66.8052 146.726 11.5283 130.89 6.42789 129.444C6.20123 129.344 6.09786 129.712 6.34519 129.796Z" fill="#191919"/>
<path d="M12.8913 140.347C16.9389 141.925 33.0296 148.594 37.1744 149.867C37.5244 149.974 37.7702 149.419 37.4225 149.268C33.4837 147.551 17.1655 141.359 13.0361 139.811C12.7053 139.686 12.5628 140.217 12.8913 140.347Z" fill="#191919"/>
<path d="M75.0455 93.8455C76.1539 94.1118 77.2916 94.2366 78.4315 94.2169C78.4996 94.2147 78.5647 94.1881 78.6147 94.1418C78.6648 94.0956 78.6965 94.0328 78.704 93.9651C78.7116 93.8973 78.6944 93.8291 78.6558 93.773C78.6171 93.7168 78.5595 93.6765 78.4935 93.6595C77.3754 93.4157 76.2284 93.3325 75.0868 93.4121C74.8594 93.4098 74.7974 93.8042 75.0455 93.8455Z" fill="#191919"/>
<path d="M79.4436 69.5211C77.6787 68.3258 71.5759 64.0899 70.213 61.9842C70.213 61.9635 70.7995 56.4335 70.0277 53.9725C70.0119 53.9167 69.9765 53.8684 69.9281 53.8364C69.8797 53.8045 69.8214 53.791 69.7639 53.7984C69.7063 53.8058 69.6534 53.8337 69.6147 53.8769C69.5759 53.9201 69.554 53.9757 69.5529 54.0337C69.8224 59.1359 69.1576 64.2444 67.5912 69.1076C67.5718 69.1689 67.5759 69.2353 67.6025 69.2938C67.6292 69.3523 67.6765 69.3989 67.7355 69.4246C67.7945 69.4503 67.8608 69.4532 67.9219 69.4329C67.9829 69.4125 68.0342 69.3703 68.0659 69.3143C69.1285 67.2704 69.8207 65.0544 70.1104 62.769C71.3079 65.1022 77.2996 69.4055 79.2369 70.0372C79.547 70.1383 79.7139 69.7041 79.4436 69.5211Z" fill="#191919"/>
<path d="M67.921 75.757C67.6737 75.8397 67.5083 75.633 67.1982 75.757C66.8062 75.9431 66.4547 76.169 66.0626 76.3558C65.2963 76.7164 64.4489 76.8699 63.6048 76.801C62.7607 76.7321 61.9493 76.4432 61.2517 75.963C60.7601 75.6261 60.2807 74.5388 59.8473 74.4147C59.7026 74.3734 55.201 75.0135 52.6205 74.1084C52.5808 73.0569 52.3499 72.0213 51.939 71.0525C51.9079 71.0031 51.8615 70.9651 51.8069 70.9444C51.7523 70.9237 51.6924 70.9213 51.6364 70.9377C51.5803 70.954 51.5311 70.9882 51.4962 71.035C51.4613 71.0819 51.4425 71.1388 51.4429 71.1972C51.5669 72.3741 51.8977 73.5303 52.1037 74.6873C49.2545 78.4041 47.8708 104.938 47.1686 116.189C45.4963 117.201 45.4152 120.153 45.4963 120.257C46.8823 122.036 54.7056 122.839 57.0586 122.982C57.1352 122.981 57.21 122.96 57.2758 122.92C57.3415 122.881 57.3959 122.826 57.4335 122.759C57.4711 122.692 57.4906 122.617 57.4901 122.54C57.4896 122.464 57.4692 122.389 57.4308 122.322C55.7832 119.828 53.3701 117.937 50.5546 116.933C53.1152 109.561 59.3098 88.8913 60.4247 84.6194C61.3129 89.3477 69.4693 110.947 72.6493 119.516C72.8792 119.72 73.1543 119.867 73.452 119.944C73.7496 120.022 74.0614 120.027 74.3617 119.961C74.6619 119.894 74.9421 119.758 75.1793 119.562C75.4165 119.366 75.6038 119.117 75.726 118.835C75.1073 111.252 74.3638 91.1609 67.921 75.757ZM56.1512 122.031C54.2929 121.866 48.0155 121.164 46.1365 120.028C46.2802 118.989 46.654 117.995 47.2307 117.119C47.6509 117.375 48.1219 117.538 48.611 117.595C49.1001 117.652 49.5958 117.602 50.0638 117.449C50.0807 117.53 54.5203 119.657 56.1512 122.031Z" fill="#191919"/>
<path d="M88.9009 69.0669C88.0132 68.291 86.9614 67.726 85.8243 67.4145C85.7961 67.206 85.7172 67.0075 85.5946 66.8364C80.6649 63.6526 79.4397 61.1954 76.2429 55.8928C73.9059 52.0129 71.2512 48.3084 66.9923 46.4171C66.7626 46.3153 66.5819 46.6384 66.8062 46.7471C75.04 50.7495 76.7797 63.0829 84.5233 67.0868C83.8719 67.2607 83.3021 67.6577 82.9134 68.2086C82.5247 68.7595 82.3416 69.4294 82.3962 70.1014C82.4352 70.3311 82.7882 70.3074 82.8502 70.1014C82.9709 69.4831 83.2834 68.9186 83.7434 68.4882C84.2034 68.0577 84.7874 67.7833 85.4123 67.704C86.102 68.0346 86.771 68.4069 87.4154 68.8188C89.5227 70.1803 88.8198 71.1926 88.283 71.8955C88.489 71.3174 88.345 70.2438 87.5808 70.1818C87.4775 70.1818 87.3511 70.3059 87.4154 70.3878C87.5437 70.559 87.6292 70.7584 87.665 70.9693C87.7007 71.1802 87.6857 71.3966 87.6211 71.6005C87.5565 71.8045 87.4442 71.99 87.2935 72.1419C87.1428 72.2937 86.9581 72.4074 86.7546 72.4736C86.9228 72.154 86.9839 71.7888 86.9287 71.4318C86.8736 71.0749 86.7052 70.7451 86.4483 70.4912C86.2868 70.302 86.0172 70.5317 86.1175 70.7393C86.2345 70.914 86.3084 71.1139 86.3334 71.3226C86.3583 71.5314 86.3335 71.7431 86.261 71.9404C86.1885 72.1378 86.0703 72.3152 85.9162 72.4581C85.762 72.6011 85.5763 72.7056 85.374 72.763C85.5322 72.4325 85.6021 72.0667 85.5769 71.7012C85.5517 71.3356 85.4322 70.9829 85.2301 70.6772C85.1252 70.4713 84.7982 70.6144 84.8579 70.8426C84.971 71.0918 85.0312 71.3617 85.0347 71.6353C85.0383 71.9089 84.9851 72.1802 84.8786 72.4322C84.6144 72.8274 83.9444 73.1214 83.5769 72.7217C83.3885 72.5172 83.1251 72.7416 83.1642 72.969C83.2974 73.7523 84.3824 73.5678 84.9192 73.2585C85.1559 73.3244 85.4042 73.338 85.6467 73.2983C85.8892 73.2586 86.1201 73.1667 86.3235 73.0287C86.6472 73.0612 86.974 73.0184 87.2784 72.9038C87.5828 72.7892 87.8567 72.6058 88.0785 72.3679C88.0942 72.4188 88.1284 72.4619 88.1744 72.4887C88.2203 72.5155 88.2747 72.524 88.3266 72.5127C89.8956 72.1819 89.8535 70.0379 88.9009 69.0669Z" fill="#191919"/>
<path d="M67.8177 71.1314C67.0387 70.6159 66.1038 70.3895 65.1752 70.4912C64.3896 70.4798 63.604 70.5208 62.8237 70.6137C59.5265 66.505 57.2912 61.6479 56.3152 56.471C56.2692 56.203 55.881 56.2849 55.881 56.5323C55.5303 61.9015 58.855 66.4031 61.9302 70.4292C61.4611 70.8034 61.0981 71.2938 60.8772 71.8516C60.6562 72.4094 60.585 73.0154 60.6705 73.6092C60.7096 73.878 61.1016 73.7746 61.1039 73.5472C61.1124 73.0516 61.2408 72.5655 61.4782 72.1303C61.7156 71.6952 62.0548 71.3241 62.4669 71.0487C63.4639 70.9867 64.4638 70.9867 65.4609 71.0487C65.9407 70.9959 66.4255 71.0852 66.8551 71.3055C67.2847 71.5257 67.6402 71.8672 67.8775 72.2876C68.0607 72.6278 68.1136 73.0231 68.0262 73.3995C67.9388 73.7759 67.7171 74.1075 67.4027 74.3321C67.5044 73.9791 67.5239 73.6076 67.4595 73.246C67.3951 72.8844 67.2486 72.5424 67.0313 72.2463C66.9264 72.0824 66.5964 72.185 66.6799 72.391C66.9059 72.8288 66.9547 73.3368 66.8163 73.8097C66.6779 74.2825 66.3628 74.684 65.9364 74.9308C66.1236 74.5309 66.1942 74.0861 66.1401 73.6478C66.0859 73.2095 65.9091 72.7953 65.6301 72.453C65.4861 72.2669 65.1745 72.5158 65.2993 72.7218C65.7511 73.4668 65.6508 74.8068 64.8452 75.1789C64.9634 74.8043 64.9817 74.4053 64.8984 74.0213C64.8152 73.6374 64.6332 73.2818 64.3705 72.9898C64.3399 72.9612 64.3003 72.9441 64.2585 72.9414C64.2168 72.9387 64.1753 72.9505 64.1413 72.9748C64.1072 72.9992 64.0826 73.0345 64.0716 73.0749C64.0606 73.1153 64.064 73.1583 64.081 73.1965C65.0137 75.2486 63.0718 75.7938 62.3467 75.4263C62.2945 75.4002 62.2348 75.3934 62.1781 75.4071C62.1214 75.4208 62.0714 75.4541 62.0369 75.5011C62.0024 75.5481 61.9855 75.6057 61.9894 75.6639C61.9933 75.7221 62.0176 75.7771 62.058 75.8191C62.3532 76.1188 62.7495 76.2977 63.1696 76.3206C63.5896 76.3436 64.0031 76.209 64.3291 75.9431C64.491 75.9827 64.66 75.9825 64.8218 75.9425C64.9835 75.9025 65.1332 75.8239 65.2579 75.7134C65.5367 75.7513 65.8205 75.7265 66.0885 75.6408C66.3564 75.5551 66.6019 75.4106 66.807 75.218C66.8842 75.2759 66.9793 75.3052 67.0757 75.3007C69.0567 74.9308 69.2381 72.2731 67.8177 71.1314Z" fill="#191919"/>
<path d="M63.4401 73.1345C62.7869 72.4032 61.561 73.0579 61.561 74.146C61.5644 74.3598 61.6304 74.5679 61.7507 74.7446C61.8711 74.9213 62.0406 75.0589 62.2383 75.1404C62.4359 75.2218 62.6532 75.2436 62.8631 75.2029C63.073 75.1623 63.2664 75.061 63.4194 74.9117C63.6289 74.6641 63.7456 74.3512 63.7494 74.0268C63.7532 73.7024 63.6438 73.3869 63.4401 73.1345Z" fill="#38A1FF"/>
<path d="M42.2131 49.14C34.4001 49.0407 26.824 46.443 20.594 41.7271C20.3459 41.5411 20.0197 41.9293 20.2632 42.1605C26.3583 47.9562 38.3922 49.7495 42.2131 49.6974C42.2871 49.6974 42.358 49.6681 42.4102 49.6158C42.4625 49.5635 42.4919 49.4926 42.4919 49.4187C42.4919 49.3448 42.4625 49.2739 42.4102 49.2216C42.358 49.1694 42.2871 49.14 42.2131 49.14Z" fill="#191919"/>
<path d="M37.6086 60.6595C33.4638 61.0105 29.3004 60.2476 25.5494 58.4496C25.4901 58.4212 25.423 58.414 25.3591 58.429C25.2951 58.4441 25.2383 58.4805 25.1979 58.5323C25.1651 58.5906 25.1553 58.6591 25.1707 58.7242C25.186 58.7893 25.2252 58.8462 25.2806 58.8838C28.6176 61.4481 33.5656 61.6365 37.5879 61.2376C37.9601 61.2039 37.98 60.6395 37.6086 60.6595Z" fill="#191919"/>
<path d="M42.5849 72.8251C31.92 73.5861 21.3053 70.7743 12.4157 64.8334C12.1684 64.6672 11.8575 65.0409 12.0849 65.2675C19.762 72.8917 36.6804 74.4423 42.5849 73.3412C42.9149 73.2792 42.9149 72.8091 42.5849 72.8251Z" fill="#191919"/>
<path d="M91.6677 122.465C91.74 122.453 91.8069 122.419 91.8588 122.367C91.9107 122.315 91.9451 122.249 91.9571 122.176C91.9571 122.114 92.3285 121.02 89.5413 121.061C87.3314 112.615 79.5679 80.506 77.9361 73.2379C79.9186 72.9484 81.8596 72.6598 83.8007 72.4117C83.8774 72.3932 83.948 72.3554 84.0058 72.3017C84.0636 72.2481 84.1066 72.1805 84.1307 72.1054C84.2525 71.6911 84.1093 70.8389 83.6767 70.8871C81.3596 71.1421 71.8035 72.1674 69.4497 72.3734L69.4911 74.6246C71.5141 74.2731 73.5792 73.9224 75.665 73.6123C77.3373 80.5504 81.6322 97.5861 82.025 99.1757C76.9866 102.562 82.7678 110.432 84.7916 109.831C85.8245 113.795 86.898 117.76 87.9509 121.724C86.7326 124.038 89.2932 129.943 89.892 130.274C90.0391 130.361 90.2028 130.416 90.3726 130.436C90.5424 130.456 90.7146 130.44 90.8779 130.39C91.0413 130.339 91.1923 130.255 91.3212 130.143C91.4501 130.031 91.554 129.893 91.6263 129.738C91.8966 129.078 89.2365 124.777 90.3667 123.005C90.5125 122.804 90.7113 122.647 90.9409 122.552C91.1705 122.456 91.4221 122.426 91.6677 122.465Z" fill="#38A1FF"/>
<path d="M64.5351 44.2877C64.4251 44.2628 64.3103 44.27 64.2043 44.3084C63.6466 44.5531 63.1416 44.9037 62.7173 45.3406C62.738 44.8659 62.7586 44.4118 62.8 43.937C65.9157 42.9317 67.1646 38.0855 66.5374 34.7891C66.4984 34.5823 66.1867 34.6443 66.1867 34.8304V35.5961C65.9459 35.4059 65.6822 35.2464 65.4019 35.1214C65.1546 35.0165 65.0121 35.4277 65.2365 35.5341C65.8016 35.809 65.98 36.3603 66.1454 36.4836C66.042 38.074 64.9647 42.5243 62.7173 43.2984C61.4156 43.7464 60.6499 43.0687 60.0373 42.0182C60.0091 41.9736 59.9674 41.9392 59.9183 41.9201C59.8692 41.901 59.8152 41.8981 59.7644 41.9119C59.7135 41.9257 59.6684 41.9554 59.6356 41.9967C59.6029 42.0381 59.5843 42.0888 59.5825 42.1414C59.9132 43.9592 62.0404 44.0825 62.3291 44.0412C62.1812 44.6015 62.167 45.1888 62.2877 45.7556C61.5467 46.5814 60.9844 47.5514 60.6361 48.6048C60.4064 47.676 58.3497 44.5787 56.3205 43.8145C55.9936 43.6912 54.1842 45.3107 54.0073 45.6109C53.9683 45.7487 53.9831 45.8962 54.0486 46.0236C54.214 46.1683 54.3794 46.3337 54.5441 46.4784C54.4969 46.4548 54.4456 46.4408 54.393 46.4373C54.3404 46.4337 54.2876 46.4407 54.2378 46.4578C50.0049 47.676 47.6894 52.2182 47.2583 56.3278C46.3946 64.4957 52.2867 71.8205 58.9186 73.7953C58.9743 73.8116 59.0341 73.8069 59.0865 73.7821C59.139 73.7573 59.1806 73.7142 59.2034 73.6608C59.2263 73.6074 59.2287 73.5475 59.2104 73.4925C59.192 73.4374 59.1542 73.3909 59.1039 73.3619C56.3454 72.096 53.8781 70.2741 51.8564 68.0103C44.8884 59.7866 48.6611 48.6569 54.8917 46.8452C55.7179 47.5267 56.4231 48.7863 56.9775 49.137C57.0466 49.158 57.1195 49.1633 57.1909 49.1526C57.2623 49.1419 57.3304 49.1154 57.3902 49.075C57.5763 48.869 58.5051 48.2702 58.6705 48.0635C58.6951 48.0392 58.7146 48.0103 58.7279 47.9784C58.7412 47.9465 58.748 47.9123 58.748 47.8778C58.748 47.8433 58.7412 47.8091 58.7279 47.7772C58.7146 47.7453 58.6951 47.7164 58.6705 47.6921C58.639 47.6669 58.6042 47.646 58.5671 47.6301C58.0311 47.5267 57.5143 47.9808 57.1835 48.4348C56.4647 47.4754 55.6089 46.6266 54.6436 45.9156C55.2373 45.4731 55.7478 44.9286 56.1513 44.3076C57.9783 45.5644 59.4048 47.3208 60.2601 49.3667C60.3022 49.4487 60.9401 49.7167 61.045 49.4081C61.6336 47.5909 62.7562 45.9933 64.2663 44.8237C64.6709 45.3464 65.1512 45.8058 65.6913 46.1867C64.9624 46.9797 64.4191 47.925 64.1009 48.954C63.603 48.5482 63.046 48.2208 62.4493 47.9831C62.4099 47.9727 62.3682 47.9755 62.3304 47.9908C62.2927 48.0062 62.261 48.0334 62.24 48.0684C62.219 48.1033 62.2099 48.1441 62.2141 48.1847C62.2183 48.2252 62.2356 48.2633 62.2632 48.2932C62.7992 48.8292 63.4195 49.3047 63.9976 49.8001C64.0418 49.8427 64.0961 49.8734 64.1553 49.8895C64.2146 49.9055 64.277 49.9064 64.3367 49.892C64.3963 49.8776 64.4514 49.8483 64.4968 49.807C64.5422 49.7656 64.5764 49.7135 64.5964 49.6554C65.0471 48.4694 65.6588 47.3509 66.4142 46.3314C66.7855 45.9578 64.7824 44.4325 64.5351 44.2877Z" fill="#191919"/>
<path d="M65.3195 36.9368C65.1889 37.3218 65.1535 37.7327 65.2162 38.1344C65.2384 38.1698 65.268 38.1999 65.303 38.2227C65.338 38.2454 65.3775 38.2603 65.4189 38.2662C65.4602 38.2721 65.5023 38.2689 65.5423 38.2568C65.5823 38.2448 65.6191 38.2242 65.6503 38.1964C65.81 37.8175 65.8393 37.3963 65.7338 36.9989C65.6503 36.8541 65.4849 36.7301 65.3195 36.9368Z" fill="#191919"/>
<path d="M61.6855 37.6804C61.7063 37.7165 61.7343 37.7479 61.7678 37.7728C61.8013 37.7977 61.8395 37.8155 61.88 37.8251C61.9206 37.8347 61.9627 37.8359 62.0038 37.8287C62.0449 37.8215 62.084 37.8059 62.1188 37.783C62.3064 37.662 62.429 36.8749 62.429 36.6888C62.429 36.4001 62.0369 36.1528 61.7888 36.6061C61.6966 36.9563 61.6617 37.3191 61.6855 37.6804Z" fill="#191919"/>
<path d="M61.2727 35.7186C61.6957 35.5347 62.1395 35.4027 62.5943 35.3258C62.6273 35.3068 62.6556 35.2807 62.6772 35.2494C62.6988 35.218 62.7131 35.1822 62.719 35.1446C62.725 35.107 62.7224 35.0686 62.7116 35.0321C62.7007 34.9956 62.6818 34.962 62.6563 34.9338C61.9993 34.3664 60.5567 35.4123 61.1249 35.6995C61.1458 35.715 61.1704 35.7249 61.1963 35.7282C61.2221 35.7316 61.2484 35.7283 61.2727 35.7186Z" fill="#191919"/>
<path d="M60.5702 39.9086C60.5247 40.1115 60.5276 40.3222 60.5788 40.5238C60.6299 40.7253 60.7279 40.912 60.8646 41.0686C61.0014 41.2252 61.1732 41.3474 61.366 41.4252C61.5589 41.5031 61.7673 41.5344 61.9745 41.5166C62.2218 41.4346 62.0978 41.1659 62.0771 41.1452C61.8711 40.9384 61.1483 40.505 61.0243 39.8649C60.9622 39.6413 60.6337 39.7248 60.5702 39.9086Z" fill="#191919"/>
<path d="M62.5737 39.6827C62.8799 40.3642 63.6457 40.571 63.9772 39.7861C64.4138 38.4999 64.4498 37.1115 64.0806 35.8044C64.0575 35.7341 64.0081 35.6754 63.9427 35.6407C63.8773 35.606 63.8011 35.598 63.7299 35.6183C63.6788 35.638 63.6343 35.6715 63.6013 35.7153C63.5684 35.759 63.5485 35.8111 63.5438 35.8657C63.5339 36.4652 63.7735 40.5365 62.9657 39.3765C62.8049 39.1429 62.4703 39.4561 62.5737 39.6827Z" fill="#191919"/>
</svg>
