<svg width="155" height="154" viewBox="0 0 155 154" fill="none" xmlns="http://www.w3.org/2000/svg">
<path d="M69.5168 66.6433C74.1417 70.4344 70.7994 83.6589 63.6692 78.5368C61.7403 77.1535 60.7228 71.8116 63.3956 67.687C63.7094 67.193 64.1233 66.7704 64.6105 66.4464C65.0978 66.1223 65.6476 65.9041 66.2244 65.8057C66.8013 65.7074 67.3923 65.7311 67.9594 65.8754C68.5265 66.0197 69.0571 66.2813 69.5168 66.6433ZM67.0883 77.1389C70.655 76.0683 69.7051 66.3797 65.1117 69.1095C62.8531 70.449 62.8669 78.4054 67.086 77.1389H67.0883Z" fill="#D8E9FF"/>
<path d="M64.5857 71.9187C64.9745 68.475 69.0177 68.5496 68.2246 74.1113C67.8165 76.9732 63.9394 77.6457 64.5857 71.9187Z" fill="#BDCEE0"/>
<path d="M87.4842 66.0918C88.1175 67.1278 88.3972 71.3376 88.212 72.8708C85.4085 73.325 86.4075 73.0191 86.0556 73.7715C86.4498 74.2426 86.1001 74.1642 88.1398 74.0228C88.0504 75.9092 87.7624 77.7809 87.2806 79.6068C86.9772 80.5664 86.5252 81.4725 85.941 82.292C84.1735 80.9025 84.5454 81.0708 83.8753 81.1438C83.7585 81.6364 83.4372 81.8432 85.2978 83.2011C83.7936 85.2783 81.9223 87.063 79.7761 88.4669L78.3928 86.7762C77.6166 86.7762 77.7779 86.6556 77.6127 87.2834C77.7664 87.959 78.3044 88.367 78.6825 88.8842C77.8279 89.632 73.2015 90.2676 71.9526 89.8395C71.689 87.7737 71.8842 88.1764 71.1034 87.8706C70.6031 88.4716 70.9951 89.1455 70.8421 89.7611C69.5357 89.7688 66.2242 88.4762 63.6858 86.5833C64.6533 85.5251 65.3389 85.0686 64.5104 84.4876C63.6574 84.5821 63.3699 85.3683 62.8712 85.8709C61.0015 84.2505 59.6114 82.149 58.8519 79.7943C60.2421 78.8352 60.0108 79.1795 60.0108 78.215C58.3032 77.3543 58.7758 81.8862 57.6392 73.7577C59.18 73.5225 58.9103 73.7477 58.9687 72.8409C58.5445 72.4789 58.1118 72.7256 57.6453 72.6618C57.7167 70.6627 58.0116 68.6778 58.5245 66.7443L59.8079 67.16C60.445 67.0017 60.2944 67.1762 60.4673 66.3147C59.9624 66.069 59.4408 65.8592 58.9064 65.6868C59.3045 63.7963 61.7345 60.7968 63.4406 59.2644C63.8341 59.6923 64.2518 60.0972 64.6918 60.4771C64.9469 60.6469 65.1744 60.8006 65.2651 60.5478C65.3558 60.2949 65.3719 59.9545 64.1046 58.7879C66.443 56.7245 69.4309 55.5464 72.5482 55.4587C72.6712 58.0893 72.5621 58.2369 73.0693 58.4498C73.8678 58.1362 73.7248 58.7049 73.4297 55.3865C76.3278 55.4633 79.079 55.9413 81.5352 57.6313C79.8199 59.8653 79.8521 59.5902 80.158 60.3487C80.8597 60.4125 80.447 60.7122 82.4635 58.3552C84.5716 59.9622 85.7451 61.7866 87.0377 64.5325C87.2498 64.9821 87.495 64.9091 85.2855 65.9765C84.7145 66.2524 84.5677 66.6444 84.9881 66.9702C85.4085 67.2961 86.6857 66.4123 87.4842 66.0918ZM78.9015 77.133C79.8299 73.8076 79.9121 68.6632 77.6358 65.4301C74.8999 61.5445 72.7619 62.8249 67.8042 64.169C66.2027 64.6032 63.7188 65.4701 62.7882 66.8442C60.9322 69.5831 60.3543 72.3774 61.3879 76.6404C62.1326 79.7144 64.711 80.3062 66.8813 81.2384C68.9954 82.146 72.5767 83.5639 74.7077 82.6985C75.799 82.2551 78.0177 80.2946 78.9015 77.133Z" fill="#D8E9FF"/>
<path d="M74.8749 63.9566C75.6889 64.3438 76.3572 64.9819 76.7816 65.7772L71.588 67.3142C71.1138 66.8093 70.6604 66.3305 70.2101 65.8494C68.9589 64.5145 66.2369 65.4897 71.8939 64.0011C73.0927 63.6853 73.59 63.3402 74.8749 63.9566Z" fill="#BDCEE0"/>
<path d="M77.2154 66.5043C77.9454 67.6563 78.3687 68.9759 78.4451 70.3376C76.5299 70.5474 74.614 70.7472 72.6989 70.9632C72.5614 70.9793 72.5936 70.9632 71.9827 68.1012L77.2154 66.5043Z" fill="#BDCEE0"/>
<path d="M75.8952 80.5197C74.1914 82.6715 72.0634 82.6862 67.7751 80.6327C68.8194 80.3556 69.7822 79.8328 70.5833 79.108L75.8952 80.5197Z" fill="#BDCEE0"/>
<path d="M78.147 76.5934C77.8196 77.7574 77.278 78.8502 76.55 79.8157C74.7217 79.3654 72.9111 78.9189 71.0344 78.4578C71.5505 77.5653 71.9342 76.6025 72.1734 75.5997C74.1784 75.781 76.1035 76.299 78.147 76.5934Z" fill="#BDCEE0"/>
<path d="M78.5649 71.1467C78.5948 72.6895 78.494 74.232 78.2637 75.7578C76.2886 75.4558 74.3312 75.1545 72.2954 74.8402C72.4084 73.8265 72.526 72.7806 72.6359 71.7531C74.6348 71.5448 76.5799 71.3473 78.5649 71.1467Z" fill="#BDCEE0"/>
<path d="M87.9246 62.1419C90.3593 66.5885 90.8365 73.5574 88.9744 79.9529C88.0654 83.091 86.2527 85.8921 83.7624 88.0069C81.6407 89.8752 79.0732 91.165 76.3078 91.7518C67.7904 93.3388 58.3785 87.4136 56.3911 77.3039C55.6878 74.0732 55.7111 70.7266 56.4596 67.5061C57.7268 62.7222 60.0954 59.1594 64.1285 56.5441C65.418 55.7404 66.7864 55.0709 68.2124 54.546C71.0831 53.5451 74.177 53.3696 77.1424 54.0396C83.9384 55.4152 87.3513 61.096 87.9246 62.1419ZM88.9844 73.0963C89.1151 70.172 88.7114 67.2484 87.7932 64.469C86.1125 60.329 84.6154 59.0064 81.6889 56.963C79.4473 55.5278 76.8423 54.7629 74.1806 54.7581C70.6282 54.5561 67.1181 55.6121 64.2668 57.7407C62.4348 59.0063 60.8753 60.6265 59.6804 62.5054C58.624 64.2487 57.8838 66.1648 57.494 68.1655C56.7417 71.1211 56.689 74.2114 57.3403 77.1909C59.3945 89.0098 72.297 94.0128 80.842 88.7808C83.9803 86.6993 86.4221 83.7243 87.8516 80.2403C88.5507 77.9212 88.9318 75.5179 88.9844 73.0963Z" fill="#BDCEE0"/>
<path d="M40.8276 54.89C47.3845 54.8623 46.6767 60.7576 45.112 62.8494C43.1062 65.5308 43.5996 66.6367 43.4805 70.4485C42.9325 88.0004 44.8446 89.7442 40.1052 88.626C38.5344 88.2548 38.6911 86.4819 38.7219 84.4138C38.8103 79.015 39.4289 70.3685 38.5205 65.072C38.1701 63.0285 36.547 62.6442 36.4386 59.82C36.2757 55.4694 38.2992 55.2666 40.8276 54.89Z" fill="#BDCEE0"/>
<path d="M125.914 125.574C125.914 126.59 125.838 130.723 125.194 132.256C123.722 132.809 122.194 133.196 120.636 133.409C121.049 131.168 120.849 128.916 120.886 126.651L125.914 125.574Z" fill="#BDCEE0"/>
<path d="M106.727 129.232C106.838 131.588 107.305 133.925 106.838 136.293C104.982 136.9 103.25 137.735 101.351 138.045C101.461 135.536 101.197 133.056 101.063 130.546L106.727 129.232Z" fill="#BDCEE0"/>
<path d="M60.0488 129.9C57.6087 133.104 57.7033 133.239 57.1523 133.609C55.7519 134.551 54.2842 135.388 52.761 136.115C53.0384 135.423 56.4721 129.66 56.4844 129.637C57.6687 129.723 58.8076 129.807 60.0488 129.9Z" fill="#BDCEE0"/>
<path d="M55.3575 129.588C55.3398 129.622 51.3613 136.596 50.8441 136.801C49.8588 136.779 36.7988 136.448 35.8066 135.988C35.3502 135.777 35.115 136.186 35.115 128.567C45.8219 129.222 51.2183 129.588 55.3575 129.588Z" fill="#D8E9FF"/>
<path d="M119.904 126.838C119.904 132.365 119.968 132.478 119.379 133.529C115.602 133.577 111.84 133.624 108.043 133.672C107.948 132.17 107.856 130.657 107.757 129.056C108.742 128.807 117.217 127.35 119.904 126.838Z" fill="#D8E9FF"/>
<path d="M100.093 130.817C100.093 139.699 101.821 138.041 95.2241 138.378C92.6995 138.506 95.407 138.592 89.5179 138.37C84.8392 138.194 86.6329 139.6 80.647 130.793C84.4503 130.793 81.4032 130.777 90.374 131.051C97.6341 131.272 93.6171 130.817 100.093 130.817Z" fill="#D8E9FF"/>
<path d="M136.281 39.5405C136.332 40.631 136.936 109.077 136.106 116.487C135.131 125.193 132.79 122.642 103.941 128.757C104.095 128.35 106.276 127.194 107.052 123.855C108.512 117.578 107.118 30.4513 105.887 25.0141C105.536 23.4656 105.823 21.3676 103.94 18.3742C102.633 16.2923 100.725 15.865 102.435 16.1501C111.779 17.7079 129.502 22.704 132.878 24.8151C135.172 26.2514 135.767 28.4478 136.281 39.5405Z" fill="#D8E9FF"/>
<path d="M104.875 25.3888C106.25 34.7162 106.719 116.303 106.611 118.26C106.318 123.594 105.864 125.392 103.136 127.533C99.7165 130.217 95.5074 129.74 86.5143 129.621C80.2571 129.537 53.8089 128.949 32.7133 127.197C20.3949 126.173 24.3212 123.124 24.0737 68.1801C23.8985 29.0392 21.3009 22.6175 29.0121 20.9837C32.9162 20.1568 36.3514 19.9485 41.173 19.5719C45.8479 19.2069 88.9943 15.694 91.7502 15.4789C99.4944 14.8779 103.408 15.4335 104.875 25.3888ZM99.2247 104.947C99.1478 97.0845 98.6314 35.7406 96.2275 27.8111C95.1401 24.223 91.9815 24.2183 88.2419 24.2975C76.9863 24.5365 39.6122 26.1227 33.1529 27.1033C32.0893 27.2647 30.7267 27.6705 30.2325 28.7526C29.2642 30.8806 29.5409 31.7559 29.4118 37.9209C28.9968 57.5263 29.5831 34.4895 30.397 100.419C30.5361 111.635 30.0181 116.487 31.9056 118.6C33.1083 119.947 35.2386 120.061 39.2979 120.385C40.7865 120.503 42.8845 120.781 44.8934 120.946C56.2881 121.881 79.8559 122.674 86.3229 122.704C102.165 122.777 99.3599 119.429 99.2247 104.947Z" fill="#D8E9FF"/>
<path d="M96.7908 47.2705C98.3124 74.521 98.4439 116.26 98.3855 116.952C98.2318 118.806 97.5078 119.345 96.4188 120.257C94.9794 121.456 91.5872 121.528 90.1309 121.605C82.4958 122.005 52.6438 120.917 38.4694 119.382C31.7273 118.652 31.8479 119.142 31.5321 108.991C31.4176 105.302 31.6281 74.2436 31.0133 61.6339C30.3832 48.6984 30.1319 48.3487 30.4685 34.8237C30.6391 27.9748 30.3555 28.2991 40.2739 27.5751C68.203 25.5347 80.586 25.7653 87.7531 25.3664C96.7101 24.8638 95.635 26.573 96.7908 47.2705ZM85.9249 87.2714C89.948 82.8709 91.2368 75.4179 90.8994 70.2604C89.7182 52.2005 68.555 46.9746 58.8833 60.5495C57.7986 62.1537 56.9207 63.8884 56.2704 65.7124C54.4836 70.3734 54.8709 79.0499 57.9557 83.6525C58.8919 85.2156 60.063 86.6254 61.4279 87.8324C62.47 88.6063 62.7343 89.0436 63.2661 89.3348C63.5459 89.4885 68.7909 92.956 73.7517 92.6394C75.8806 92.5897 77.9874 92.1957 79.9904 91.4728C82.2525 90.5241 84.2785 89.0898 85.9249 87.2714ZM45.6281 63.9341C47.5309 61.4856 47.0214 58.9257 47.0183 58.0165C46.9999 52.421 34.6914 52.1052 35.3639 59.2538C35.9787 65.8231 37.6694 60.6495 37.9284 71.9435C38.2565 86.3453 35.4423 89.3955 41.4105 90.0687C45.4375 90.5222 44.3647 85.8865 44.3085 82.5097C44.1825 74.8638 44.6459 70.2781 44.6083 68.2646C44.5675 66.082 45.0855 64.6326 45.6281 63.9341Z" fill="#D8E9FF"/>
<path d="M136.02 133.004C133.839 132.712 131.024 133.133 125.914 133.133C126.793 131.139 126.336 132.765 126.952 125.463C138.45 123.834 137.262 120.903 137.643 102.239C137.643 102.219 137.613 43.5023 136.959 33.9797C136.714 30.3816 136.563 28.4103 135.571 26.2339C134.539 23.9653 132.061 22.9739 128.626 21.8288C122.728 19.8614 104.07 13.8579 94.4901 14.4289C94.4755 14.4289 67.4386 16.4823 50.3093 17.7842C42.3722 18.3851 31.7014 19.4749 29.9438 19.7769C26.8098 20.3364 23.7873 21.2156 23.0787 26.2923C22.0551 33.6078 23.3323 49.5482 22.6584 83.8045C22.6584 83.8268 22.447 114.29 22.7752 119.656C22.8358 120.788 23.0704 121.904 23.4707 122.965C24.8271 126.485 26.6031 127.883 31.517 128.281C32.1748 128.336 33.1985 128.472 34.166 128.542C34.166 131.759 34.146 130.429 34.2429 133.638C11.3866 133.638 4.62222 133.064 4.198 133.974C4.4639 134.412 3.13592 134.601 21.428 134.349C28.4176 134.253 30.6501 134.752 34.269 134.492C34.269 136.357 34.3912 137.043 37.5313 137.347C39.3458 137.522 47.9446 137.825 47.9669 137.825C53.0698 137.705 49.4163 139.022 55.0971 136.052C58.5101 134.266 53.7492 134.577 81.7721 134.577C86.1818 140.725 83.2369 139.418 99.998 139.477C100.814 139.477 104.513 138.338 106.44 137.624C107.45 137.248 107.699 137.063 107.921 135.784C108.146 134.482 107.629 134.697 109.331 134.697C125.393 134.707 122.034 133.979 123.856 133.954C151.522 133.562 149.61 135.011 150.215 133.694C149.413 132.929 140.219 133.567 136.02 133.004ZM32.7135 127.198C20.3951 126.174 24.3214 123.124 24.0739 68.1807C23.8987 29.122 21.2889 22.6212 29.0124 20.9842C32.9164 20.1581 36.3517 19.9491 41.1733 19.5725C45.8481 19.2067 88.9945 15.6946 91.7504 15.4794C99.4947 14.8761 103.406 15.4348 104.875 25.3932C106.251 34.7206 106.719 116.308 106.611 118.264C106.319 123.599 105.864 125.397 103.137 127.537C99.7175 130.222 95.5076 129.745 86.5145 129.625C80.2573 129.54 53.8091 128.95 32.7135 127.198ZM50.8442 136.804C49.8582 136.781 36.7982 136.452 35.8068 135.991C35.3503 135.78 35.1151 136.188 35.1151 128.569C45.8235 129.225 51.2208 129.591 55.36 129.591C55.34 129.623 51.3606 136.596 50.8419 136.802L50.8442 136.804ZM57.1521 133.612C55.7518 134.553 54.284 135.391 52.7609 136.118C53.0391 135.426 56.472 129.662 56.4843 129.639C57.6686 129.725 58.8075 129.81 60.0486 129.903C57.6086 133.104 57.7031 133.239 57.1521 133.613V133.612ZM58.9304 133.624C58.3156 133.608 58.142 134.07 61.1445 129.9C82.6205 131.62 78.1993 129.046 81.1319 133.632C57.1275 133.629 66.3035 133.827 58.9304 133.622V133.624ZM95.2241 138.381C92.6995 138.508 95.4062 138.595 89.5179 138.372C84.8392 138.196 86.6329 139.602 80.647 130.796C84.4503 130.796 81.404 130.78 90.374 131.053C97.6333 131.275 93.6171 130.823 100.093 130.823C100.093 139.7 101.821 138.044 95.2241 138.378V138.381ZM106.838 136.293C104.981 136.9 103.25 137.735 101.351 138.045C101.461 135.537 101.197 133.057 101.063 130.546L106.727 129.233C106.838 131.586 107.304 133.92 106.838 136.291V136.293ZM103.941 128.761C104.095 128.356 106.274 127.198 107.051 123.86C108.508 117.582 107.122 30.4561 105.886 25.0189C105.537 23.4704 105.823 21.3723 103.94 18.379C102.633 16.2971 100.725 15.869 102.435 16.1549C111.373 17.642 129.41 22.6504 132.878 24.8199C135.173 26.2539 135.764 28.4526 136.281 39.5453C136.332 40.6358 136.935 109.082 136.106 116.492C135.13 125.193 132.789 122.643 103.941 128.758V128.761ZM119.379 133.532C119.379 133.532 111.84 133.628 108.043 133.675C107.948 132.173 107.856 130.66 107.757 129.06C108.743 128.81 117.216 127.354 119.904 126.841C119.904 132.364 119.969 132.476 119.379 133.529V133.532ZM125.194 132.26C123.722 132.811 122.194 133.198 120.636 133.412C121.049 131.172 120.849 128.919 120.886 126.654L125.914 125.578C125.914 126.59 125.84 130.721 125.194 132.256V132.26Z" fill="#000001"/>
<path d="M96.9194 121.253C100.613 119.079 99.3094 113.887 99.2249 104.948C99.1519 97.0858 98.6332 35.7418 96.2277 27.8124C95.1411 24.2242 91.9809 24.2204 88.2421 24.2987C76.9866 24.5401 39.6124 26.1209 33.1531 27.1046C32.0895 27.2652 30.7277 27.6717 30.2328 28.7538C29.2652 30.8818 29.5411 31.7571 29.412 37.9221C28.9978 57.5275 29.5849 34.4907 30.3972 100.42C30.5363 111.641 30.0191 116.488 31.9058 118.602C33.1085 119.947 35.2388 120.062 39.2981 120.386C40.7859 120.505 42.884 120.782 44.8936 120.947C56.2883 121.882 79.8562 122.675 86.3232 122.705C91.7604 122.731 95.0066 122.377 96.9194 121.253ZM38.4689 119.378C31.7268 118.648 31.8474 119.138 31.5316 108.987C31.417 105.298 31.6261 74.2395 31.0128 61.6298C30.3811 48.6943 30.1321 48.3446 30.4679 34.8196C30.6385 27.9714 30.355 28.295 40.2733 27.5711C68.0311 25.543 80.733 25.7512 87.7526 25.3624C96.7096 24.8613 95.6337 26.5728 96.7903 47.2702C98.3111 74.5208 98.4441 116.26 98.3849 116.952C98.2312 118.806 97.5081 119.346 96.4183 120.256C94.9797 121.458 91.5867 121.527 90.1304 121.604C82.496 122 52.644 120.912 38.4689 119.378Z" fill="#000001"/>
<path d="M81.6889 56.9618C79.4475 55.5262 76.8424 54.7612 74.1806 54.7569C70.6281 54.5545 67.1179 55.6105 64.2668 57.7395C62.433 59.0031 60.8731 60.6237 59.6804 62.5043C58.6171 64.2441 57.8764 66.1615 57.494 68.1644C56.7368 71.1193 56.6841 74.2107 57.3403 77.1897C59.3937 89.0086 72.297 94.0116 80.842 88.7796C83.9803 86.6981 86.4221 83.7231 87.8516 80.2392C88.5507 77.9205 88.9323 75.5178 88.9859 73.0966C89.1165 70.1724 88.7129 67.2488 87.7947 64.4694C86.1094 60.3286 84.6154 59.0053 81.6889 56.9618ZM88.2121 72.8699C85.4085 73.3241 86.4076 73.0198 86.0556 73.7706C86.4499 74.2417 86.1002 74.1626 88.1398 74.0219C88.0505 75.9083 87.7625 77.78 87.2806 79.6059C86.9771 80.5655 86.5251 81.4715 85.9411 82.2911C84.1735 80.9009 84.5455 81.0699 83.8754 81.1429C83.7585 81.6356 83.4373 81.843 85.2979 83.2002C83.7937 85.2774 81.9223 87.0621 79.7761 88.4661L78.3928 86.7753C77.6166 86.7753 77.778 86.6547 77.6128 87.2826C77.7665 87.9581 78.3044 88.3669 78.6825 88.8834C77.828 89.6319 73.2015 90.2667 71.9527 89.8386C71.6891 87.7736 71.8843 88.1756 71.1035 87.8697C70.6032 88.4714 70.9951 89.1447 70.8422 89.7602C69.5357 89.7687 66.2242 88.4753 63.6859 86.5824C64.6534 85.5242 65.3389 85.0677 64.5105 84.4867C63.6574 84.5812 63.37 85.3674 62.8712 85.87C61.0016 84.2497 59.6115 82.1481 58.8519 79.7934C60.2422 78.8343 60.0108 79.1786 60.0108 78.2141C58.3032 77.3534 58.7758 81.8853 57.6392 73.7568C59.1801 73.5216 58.9103 73.7468 58.9687 72.84C58.5445 72.4772 58.1119 72.7247 57.6454 72.6609C57.7164 70.6617 58.0113 68.6768 58.5245 66.7434L59.808 67.1591C60.445 67.0001 60.2944 67.1761 60.4673 66.3138C59.9624 66.0682 59.4408 65.8584 58.9065 65.6859C59.3046 63.7954 61.7346 60.7959 63.4407 59.2635C63.8345 59.691 64.2522 60.0959 64.6918 60.4762C64.9477 60.6453 65.1745 60.8005 65.2651 60.5469C65.3558 60.2933 65.372 59.9536 64.1047 58.787C66.4431 56.7236 69.431 55.5455 72.5483 55.4578C72.6713 58.0884 72.5629 58.2352 73.0693 58.4489C73.8678 58.1345 73.7249 58.704 73.4298 55.3856C76.3278 55.4624 79.0799 55.9404 81.5352 57.6304C79.8199 59.8645 79.8522 59.5893 80.1581 60.3478C80.8597 60.4116 80.4478 60.7114 82.4636 58.3543C84.5716 59.9613 85.7405 61.788 87.0378 64.5316C87.2491 64.982 87.4943 64.9074 85.2856 65.9756C84.7146 66.2515 84.5655 66.6435 84.9882 66.9693C85.4108 67.2952 86.6789 66.4075 87.4804 66.0878C88.1144 67.1269 88.3973 71.3368 88.2121 72.8699Z" fill="#000001"/>
<path d="M67.8041 64.1688C66.2025 64.6038 63.7187 65.4707 62.788 66.844C60.9328 69.5837 60.3542 72.3772 61.3878 76.6402C62.1317 79.7142 64.7101 80.3067 66.8811 81.2382C68.9945 82.1473 72.5773 83.5652 74.7076 82.6983C75.7996 82.2557 78.0176 80.2944 78.9014 77.1328C79.8305 73.8074 79.9127 68.6623 77.6356 65.4299C74.9005 61.5443 72.7625 62.8254 67.8041 64.1688ZM78.4464 70.3376C76.5302 70.5497 74.6149 70.7583 72.7003 70.9632C72.5635 70.9793 72.595 70.9632 71.984 68.1013C73.707 67.5741 75.4638 67.0392 77.2152 66.5043C77.9457 67.6562 78.3695 68.9758 78.4464 70.3376ZM71.8933 64.002C73.0922 63.6862 73.5933 63.3319 74.8744 63.9575C75.6899 64.3424 76.3589 64.9811 76.781 65.7781C75.0391 66.2904 73.3079 66.8027 71.5875 67.3151C71.1133 66.8102 70.6606 66.3314 70.2095 65.8503C68.9584 64.5146 66.2371 65.4945 71.8933 64.002ZM63.6703 78.5368C61.7421 77.1535 60.6669 71.774 63.3967 67.687C63.7087 67.1913 64.1218 66.767 64.6088 66.4416C65.0959 66.1163 65.6461 65.8972 66.2235 65.7988C66.8009 65.7003 67.3925 65.7246 67.9599 65.8702C68.5273 66.0157 69.0576 66.2792 69.5163 66.6434C74.0813 70.5036 70.7967 83.6597 63.6664 78.5368H63.6703ZM67.7818 80.6326C68.826 80.3555 69.7888 79.8327 70.5899 79.1078L75.9019 80.5196C74.1942 82.6699 72.0662 82.686 67.778 80.6326H67.7818ZM76.5497 79.8172C74.7214 79.3668 72.9108 78.9203 71.0341 78.4592C71.5502 77.5667 71.9339 76.604 72.1731 75.6011C74.1781 75.7825 76.1032 76.2989 78.1467 76.5948C77.8196 77.759 77.278 78.8519 76.5497 79.8172ZM78.2635 75.7564C76.2884 75.4544 74.331 75.1539 72.2952 74.8388C72.4082 73.8251 72.5258 72.7792 72.6357 71.7517C74.6338 71.5465 76.5797 71.349 78.5647 71.1484C78.5944 72.6896 78.4936 74.2306 78.2635 75.7548V75.7564Z" fill="#000001"/>
<path d="M90.8998 70.2619C89.7209 52.202 68.5546 46.9761 58.8837 60.551C57.7987 62.1551 56.9208 63.8898 56.2708 65.7139C54.4824 70.3749 54.8705 79.0521 57.9561 83.654C58.8921 85.2172 60.0632 86.627 61.4282 87.8339C62.4696 88.6078 62.7347 89.0466 63.2665 89.3363C63.5455 89.49 68.7921 92.9591 73.752 92.6409C75.88 92.5825 77.9855 92.1888 79.9908 91.4743C82.2451 90.5125 84.2686 89.0816 85.9268 87.2767C89.9384 82.8632 91.2379 75.4194 90.8998 70.2619ZM88.9785 79.9528C88.1081 82.869 86.4752 85.5 84.2482 87.5742C82.0212 89.6484 79.281 91.0905 76.3104 91.7517C67.6263 93.3702 58.1736 87.1138 56.3937 77.3038C55.6692 74.0754 55.6925 70.724 56.4621 67.5061C57.6987 62.845 60.0741 59.147 64.1311 56.544C65.4187 55.7369 66.7874 55.0672 68.2149 54.5459C71.0856 53.545 74.1796 53.3695 77.145 54.0395C83.9379 55.4228 87.3516 61.1013 87.9249 62.1472C90.358 66.5892 90.8667 73.5665 88.9747 79.9528H88.9785Z" fill="#000001"/>
<path d="M65.1094 69.1086C62.8523 70.4481 62.8661 78.4075 67.086 77.138C70.6527 76.0674 69.7013 66.3788 65.1094 69.1086ZM68.225 74.1108C67.8161 76.9727 63.939 77.646 64.5861 71.9183C64.9742 68.4746 69.0173 68.5491 68.225 74.1108Z" fill="#000001"/>
<path d="M35.3639 59.2519C35.9787 65.8211 37.6694 60.6475 37.9284 71.9415C38.2565 86.3433 35.4423 89.3943 41.4105 90.0668C45.4375 90.521 44.3646 85.8845 44.3085 82.5077C44.184 74.8618 44.6467 70.2761 44.6083 68.2626C44.5683 66.0824 45.0855 64.6322 45.6281 63.9344C47.5309 61.4859 47.0198 58.926 47.0183 58.0169C46.9937 52.4175 34.6899 52.1016 35.3639 59.2519ZM45.1116 62.85C43.1058 65.5313 43.5984 66.6365 43.4801 70.449C42.9314 88.001 44.8434 89.7471 40.1048 88.6266C38.534 88.2562 38.6907 86.4817 38.7215 84.4144C38.8099 79.0156 39.4293 70.3683 38.5201 65.0725C38.1705 63.0291 36.5466 62.6448 36.4382 59.8206C36.2715 55.47 38.295 55.2671 40.8234 54.8906C47.3834 54.8629 46.6763 60.7581 45.1116 62.85Z" fill="#000001"/>
</svg>
