<svg width="156" height="156" viewBox="0 0 156 156" fill="none" xmlns="http://www.w3.org/2000/svg">
<path d="M44.737 13.7607L35.72 88.5141C35.6553 89.0507 36.0379 89.5385 36.5745 89.6027L111.328 98.6197C111.864 98.6847 112.352 98.3022 112.416 97.7657L121.434 23.0121C121.498 22.4755 121.116 21.988 120.579 21.9233L45.8259 12.9063C45.2893 12.8416 44.8018 13.2241 44.737 13.7607Z" fill="white"/>
<path d="M117.961 51.8102L88.1906 48.2192L91.7816 18.4493L74.6218 16.3789L71.0308 46.1488L41.2647 42.5579L39.1943 59.7184L68.9612 63.3078L65.3702 93.0746L82.53 95.145L86.121 65.3782L115.891 68.9699L117.961 51.8102Z" fill="#81F8F8"/>
<path d="M111.285 98.8784L36.7279 89.8948C35.9397 89.7996 35.3792 89.0849 35.4744 88.2967L44.4472 13.9144C44.5401 13.1448 45.2346 12.5664 46.0445 12.6601L120.427 21.6329C121.214 21.7281 121.776 22.4436 121.681 23.231L112.708 97.6133C112.619 98.3481 111.995 98.8776 111.284 98.8776L111.285 98.8784ZM45.8711 13.192C45.4313 13.192 45.0411 13.5195 44.9853 13.9794L36.0125 88.3618C35.9529 88.8534 36.3036 89.2978 36.793 89.3567L111.175 98.3295C111.647 98.3914 112.109 98.0538 112.17 97.549L121.143 23.1667C121.203 22.6774 120.853 22.2306 120.362 22.1718L45.8711 13.192Z" fill="black"/>
<path d="M118.174 51.643C118.13 51.5865 118.065 51.5501 117.994 51.5416L88.4928 47.9831L92.0513 18.4826C92.0691 18.3339 91.963 18.1992 91.8143 18.1806C74.4881 16.0747 74.5942 16.0569 74.4556 16.166C74.3991 16.2102 74.3627 16.2752 74.3534 16.3464L70.795 45.8477L41.2975 42.2893C41.1427 42.2738 41.0142 42.3775 40.9956 42.5262C38.8896 59.8524 38.8718 59.7471 38.981 59.8865C39.0259 59.943 39.0909 59.9794 39.1614 59.9879L68.6588 63.5463L65.1011 93.043C65.0833 93.1917 65.1894 93.3264 65.338 93.345L82.5295 95.4168C82.665 95.4168 82.7819 95.3162 82.799 95.1784L86.3574 65.6817L115.89 69.2425C116.026 69.2425 116.143 69.1419 116.16 69.004C118.253 51.6763 118.284 51.7824 118.174 51.643ZM74.8598 16.6809L91.4806 18.6862L87.9547 47.9173L71.3338 45.9128L74.8598 16.6809ZM82.2941 94.8439L65.6733 92.8386L69.1985 63.6114L85.8201 65.6167L82.2941 94.8439ZM115.655 68.6696L39.4974 59.4823L41.5027 42.8599L117.66 52.0472L115.655 68.6696Z" fill="black"/>
<path d="M115.335 41.7812L97.2686 39.604C97.1208 39.5862 97.0139 39.4507 97.0317 39.3021L98.917 23.6715C98.9356 23.5228 99.0703 23.4168 99.219 23.4346C117.41 25.6567 117.324 25.5723 117.434 25.7124C117.543 25.8502 117.515 25.7217 115.604 41.542C115.588 41.6798 115.471 41.7812 115.335 41.7812ZM97.6031 39.0984L115.099 41.2091L116.92 26.1173L99.4234 24.0067L97.6031 39.0984Z" fill="black"/>
<path d="M63.9597 19.5983L48.395 17.6471C48.0427 17.603 48.1 17.0656 48.4631 17.1098L63.9938 19.0585C64.3283 19.1004 64.2973 19.5983 63.9597 19.5983Z" fill="black"/>
<path d="M58.3395 22.6232L47.8438 21.2837C47.4892 21.2388 47.5542 20.7054 47.9119 20.7464L58.3736 22.0835C58.7096 22.1261 58.6755 22.6232 58.3395 22.6232Z" fill="black"/>
<path d="M61.587 26.7183L47.2936 24.9205C46.9413 24.8764 47.0009 24.3391 47.3617 24.3832L61.6211 26.1787C61.9556 26.2205 61.9246 26.7183 61.587 26.7183Z" fill="black"/>
<path d="M57.2895 29.9028L46.7418 28.5572C46.3857 28.5123 46.4538 27.9765 46.81 28.0198L57.3235 29.3632C57.6595 29.4057 57.6255 29.9028 57.2895 29.9028Z" fill="black"/>
<path d="M100.095 36.5829L100.908 29.8407C100.952 29.4823 101.49 29.5519 101.446 29.9058L100.633 36.6479C100.59 37.0041 100.052 36.9391 100.095 36.5829Z" fill="black"/>
<path d="M102.624 36.8881L103.278 31.4707C103.319 31.1184 103.86 31.1772 103.816 31.5357L103.162 36.9531C103.119 37.3093 102.581 37.2442 102.624 36.8881Z" fill="black"/>
<path d="M105.151 37.193L106.101 29.3297C106.142 28.972 106.682 29.0401 106.639 29.3947L105.69 37.258C105.646 37.6142 105.108 37.5491 105.151 37.193Z" fill="black"/>
<path d="M107.68 37.498L108.086 34.127C108.13 33.7739 108.668 33.8343 108.624 34.192L108.218 37.5631C108.174 37.9192 107.636 37.8542 107.68 37.498Z" fill="black"/>
<path d="M110.209 37.8032L111.022 31.061C111.063 30.7049 111.603 30.7699 111.56 31.1261L110.747 37.8682C110.703 38.2244 110.165 38.1594 110.209 37.8032Z" fill="black"/>
<path d="M112.737 38.1083L113.685 30.245C113.729 29.8904 114.268 29.9539 114.223 30.31L113.275 38.1733C113.232 38.5295 112.694 38.4644 112.737 38.1083Z" fill="black"/>
<path d="M19.9894 77.6152C19.6038 72.2961 17.7046 46.2519 12.4714 46.4392C8.44298 46.5221 4.90775 62.3168 4.42539 82.3962C4.24267 89.987 4.75522 98.9923 5.8686 107.761C6.04203 109.358 7.67183 123.487 11.5787 127.491C18.1234 134.195 20.2534 108.235 20.6994 98.8553C20.7032 98.7779 20.2433 81.1211 19.9894 77.6152Z" fill="black"/>
<path d="M69.8531 81.7831C67.4808 80.453 62.1818 79.7391 60.3964 79.4449C58.2734 79.0949 55.572 78.2432 53.0998 77.829C50.6276 77.4148 50.2599 75.4296 50.8963 74.7436C53.353 72.098 53.3127 71.865 53.9809 71.7341C56.9579 71.1496 58.2765 70.095 58.8362 68.9251C59.3736 67.804 59.3031 66.3918 58.1828 66.7069C57.0895 67.0143 55.4203 67.1745 54.1304 67.3898C52.3612 67.6848 51.5753 67.2915 50.3961 68.4706C49.2169 69.6498 48.332 69.5515 46.4653 71.0257C44.5978 72.4998 43.3203 72.5982 41.1585 74.9565C38.9968 77.3157 38.3759 78.7519 33.3943 79.9691C27.013 81.5276 11.4575 79.3233 6.64937 78.5793C5.20229 88.396 6.24753 93.983 6.68344 96.4831C13.9374 95.5354 28.5754 94.5854 31.1289 94.5412C34.9289 94.4754 42.3981 96.2779 44.5606 96.7037C46.7223 97.1296 51.014 97.2604 51.014 97.2604C53.2415 96.7688 55.404 96.802 59.3024 96.2446C63.2007 95.6879 62.9715 93.7871 62.9715 93.7871C68.6065 93.2304 65.9199 89.6596 65.9199 89.6596C69.7524 89.0696 67.7905 85.467 67.7905 85.467C69.0641 85.6141 70.4841 85.3199 70.7288 84.0958C70.9734 82.8717 70.6397 82.2229 69.8531 81.7816V81.7831Z" fill="#FFD997"/>
<path d="M69.9842 81.547C67.7187 80.2765 62.9346 79.5827 60.4392 79.1778C58.3239 78.8348 55.58 77.9708 53.1434 77.5619C50.9778 77.1988 50.5628 75.4985 51.094 74.9286C53.5336 72.3001 53.4787 72.1088 54.0323 72.0004C56.729 71.4708 58.3805 70.503 59.0804 69.0428C59.7462 67.6522 59.4644 66.0673 58.1087 66.4467C57.3832 66.6504 56.3837 66.7905 55.4166 66.926C53.7009 67.166 53.8929 67.1861 52.7973 67.2574C51.8582 67.3193 51.1164 67.3673 50.2036 68.2802C49.6291 68.8546 49.139 69.104 48.5181 69.4206C46.3006 70.5534 46.7961 70.661 44.4137 72.0531C38.764 75.3498 40.6083 77.9296 33.328 79.7074C25.8758 81.5261 5.45806 78.1179 5.25288 78.083C4.8975 78.0188 4.81001 78.5576 5.16229 78.6173C6.00545 78.7597 25.8944 82.0797 33.4565 80.2331C40.9792 78.3966 39.1109 75.7795 44.6871 72.5207C47.1763 71.0682 46.5445 71.0357 48.765 69.9038C49.4015 69.5793 49.952 69.2983 50.5868 68.6634C51.3557 67.8946 51.9116 67.8582 52.833 67.7986C53.9595 67.7242 53.7381 67.7088 55.4925 67.4625C56.4766 67.3247 57.4947 67.1823 58.255 66.9686C58.6003 66.8718 58.708 67.0026 58.7436 67.046C58.9867 67.3356 58.9193 68.1268 58.5918 68.809C57.9709 70.1051 56.4456 70.9753 53.9285 71.4701C53.1535 71.6218 53.1868 71.8804 50.6968 74.5609C49.8621 75.4613 50.4537 77.6618 53.0552 78.0977C55.4631 78.5019 58.2512 79.3729 60.3525 79.7136C62.7449 80.1015 67.5267 80.7906 69.7209 82.0201C70.3403 82.3677 70.7035 82.8447 70.4642 84.0448C70.2536 85.0962 68.9637 85.3323 67.8225 85.1999C67.6204 85.1767 67.2727 85.1264 66.8299 85.0583C67.5701 84.0331 67.4826 82.415 67.4779 82.3399C67.4578 81.9767 66.9166 82.017 66.9367 82.3724C66.9383 82.3902 67.0319 84.1617 66.202 84.9599C64.0472 84.6193 59.4427 83.8373 58.732 83.8264C58.382 83.821 58.3696 84.3514 58.7188 84.3684C59.5078 84.4063 66.7083 85.5909 66.7881 85.6064C67.4168 85.7288 68.047 86.3776 68.0129 87.2517C67.9479 88.9411 66.922 89.3073 65.3263 89.2547C66.0363 88.228 65.9503 86.6493 65.9457 86.5758C65.9248 86.2018 65.375 86.263 65.4045 86.6083C65.406 86.6261 65.5051 88.4379 64.6395 89.2237C62.5521 89.113 58.0739 88.6996 57.1215 89.5288C56.8498 89.7642 57.209 90.1706 57.4769 89.9376C58.3015 89.2199 63.8095 89.7734 65.5555 89.8029C65.7769 89.9717 66.5519 90.6584 66.1942 91.8035C65.8535 92.8929 64.8168 93.3923 62.9966 93.3482C63.7662 92.3943 63.7112 90.8218 63.7073 90.7475C63.7011 90.598 63.5563 90.4726 63.4255 90.4881C63.2761 90.4943 63.1599 90.6205 63.1661 90.7699C63.1661 90.7885 63.235 92.6924 62.2269 93.3203C60.2495 93.2289 56.2404 92.8906 55.2223 93.6741C54.9397 93.8925 55.2664 94.3214 55.5537 94.1038C56.4239 93.4333 61.112 93.8313 62.741 93.8839C62.755 95.273 60.9277 95.6632 59.6967 95.8776C59.9708 95.379 60.0908 94.7983 60.1427 94.3415C60.1821 93.9877 59.6464 93.9203 59.6046 94.2804C59.5434 94.8161 59.3792 95.5439 58.9503 95.9969C56.7816 96.3128 53.8217 96.4614 52.0618 96.7843C50.065 97.1513 44.5121 96.4668 36.4335 94.8572C29.6674 93.51 23.9874 94.4406 5.11197 96.36C4.96331 96.3755 4.85414 96.5079 4.86963 96.6573C4.88511 96.806 5.02138 96.9159 5.16694 96.8989C23.7536 95.0089 29.6201 94.052 36.3282 95.3883C39.4446 96.0093 49.0616 97.8861 52.1601 97.317C56.6221 96.4994 63.2915 97.0932 63.2815 93.8894C65.1683 93.8553 66.315 93.2359 66.7122 91.9654C67.0103 91.0099 66.6921 90.2504 66.2995 89.7688C67.7396 89.5938 68.4976 88.7569 68.5549 87.2726C68.5781 86.671 68.3613 86.1492 68.0292 85.762C69.364 85.8511 70.7344 85.457 70.9961 84.1508C71.2493 82.8834 70.938 82.0805 69.9865 81.547H69.9842Z" fill="black"/>
<path d="M52.9061 95.0771C53.0238 94.7859 52.7698 93.709 53.0586 93.304C53.52 92.6591 54.4553 92.5004 54.1991 91.013C54.1418 90.6909 53.9629 89.9972 54.0078 89.6736C54.0853 89.1084 54.5761 88.8002 54.9609 88.4665C55.5981 87.9137 55.9706 87.0465 55.9303 86.2034C55.921 85.9997 55.89 85.7953 55.8606 85.5917C55.6872 84.4187 55.7871 84.0788 56.3948 83.2333C56.6294 82.9074 56.8509 82.5992 56.8702 82.2562C56.9012 81.7173 56.5969 80.7983 56.2679 80.4344C56.0278 80.1681 56.4297 79.8042 56.6705 80.0705C57.1381 80.5869 57.4478 81.667 57.4122 82.2872C57.3828 82.7874 57.1048 83.1745 56.8354 83.5492C56.3104 84.2801 56.2446 84.4814 56.3972 85.5127C56.4297 85.7349 56.4622 85.9571 56.4723 86.1778C56.5203 87.1975 56.0882 88.2064 55.3171 88.8753C54.3005 89.7541 54.4933 89.4885 54.7333 90.9201C55.0438 92.7117 53.8599 93.1128 53.5007 93.6184C53.3923 93.8042 53.5526 94.9284 53.4086 95.2807C53.2715 95.6136 52.7713 95.4061 52.9068 95.0763L52.9061 95.0771Z" fill="black"/>
<path d="M13.1736 123.194C9.85287 123.194 8.38802 102.123 8.15574 98.7971C8.13251 98.4409 8.67136 98.3952 8.69691 98.7591C9.99611 117.349 12.0974 122.522 13.1326 122.649C13.4601 122.697 13.872 122.077 14.2166 121.01C14.3273 120.67 14.8429 120.836 14.7322 121.177C14.2948 122.532 13.783 123.193 13.1729 123.193L13.1736 123.194ZM14.8987 118.166C15.7441 113.631 16.3543 106.234 16.6152 97.3376C16.6245 96.9784 17.1672 96.9969 17.1564 97.3539C16.8947 106.278 16.2823 113.704 15.4306 118.266C15.3655 118.618 14.8313 118.519 14.8979 118.167L14.8987 118.166ZM15.6063 77.1668C15.1309 66.2483 14.3768 58.567 13.426 54.952C13.3355 54.6067 13.8581 54.4658 13.951 54.8142C14.9111 58.4648 15.6714 66.1864 16.1483 77.1428C16.1646 77.5013 15.6218 77.5245 15.6071 77.166L15.6063 77.1668ZM7.98928 76.6891C9.6175 47.7638 13.1791 52.3706 12.2794 52.798C11.0901 53.3648 9.40922 61.0926 8.53045 76.7193C8.50958 77.0832 7.96992 77.0367 7.98928 76.6891Z" fill="white"/>
<path d="M13.3199 114.833C13.1921 114.833 13.0783 114.742 13.0535 114.612C12.5015 111.682 12.0052 106.139 11.6165 98.5812C11.5987 98.2251 12.1376 98.1918 12.1577 98.5534C12.9947 114.846 14.0237 114.833 13.3199 114.833ZM10.7261 72.7684C11.018 67.8 11.4098 63.8405 11.8581 61.3157C11.8844 61.1686 12.0129 61.0695 12.1724 61.0958C12.7702 61.2019 11.9456 61.2607 11.2673 72.7994C11.2464 73.1609 10.706 73.1199 10.7261 72.7684Z" fill="white"/>
<path d="M143.982 64.7286C141.062 66.1029 138.724 76.0466 137.331 92.8858C137.091 95.7885 136.93 113.9 137.081 116.809C137.296 120.948 138.882 140.779 142.159 142.751C143.269 143.418 144.654 143.53 145.526 142.542C149.136 138.451 150.626 123.45 150.688 122.813C154.173 92.4794 149.919 61.9351 143.982 64.7286Z" fill="black"/>
<path d="M150.18 96.8145C145.614 97.2156 131.069 98.2832 124.85 96.2361C119.979 94.6327 119.473 93.1515 117.503 90.6298C115.532 88.1088 114.266 87.9106 112.521 86.2947C110.775 84.6789 109.885 84.7067 108.802 83.4385C107.719 82.1703 106.904 82.5001 105.164 82.0681C103.895 81.753 102.243 81.4611 101.178 81.0693C100.085 80.6675 99.9041 82.0689 100.352 83.2295C100.819 84.4396 102.05 85.5948 104.972 86.4109C105.627 86.5936 105.565 86.8181 107.812 89.6534C108.392 90.3867 107.87 92.337 105.373 92.5561C102.876 92.7752 100.116 93.4124 97.9716 93.5944C96.9775 93.6788 92.7539 94.0984 88.4553 94.3106C84.9564 94.4832 81.2966 94.3911 80.1886 94.9029C79.3694 95.2807 79.052 95.9342 79.4213 97.1273C79.5948 97.6878 81.127 98.1106 83.0874 98.3916C82.1629 98.6711 81.7812 99.2325 81.8803 100.362C81.9671 101.349 84.6955 102.116 84.6955 102.116C84.5678 102.5 83.7362 104.802 86.9765 105.718C86.8851 106.8 87.5633 107.878 88.916 108.426C101.875 113.673 115.059 111.662 118.099 111.298C124.041 110.588 120.299 110.782 149.663 114.907C150.174 111.577 150.946 104.34 150.181 96.8153L150.18 96.8145Z" fill="#FFD997"/>
<path d="M151.18 96.4492C150.992 96.4685 132.221 98.3778 124.936 95.9784C120.178 94.4129 119.695 92.9937 117.717 90.4634C115.724 87.9115 114.421 87.6839 112.706 86.0959C110.885 84.4103 110.074 84.5102 109.01 83.2629C107.853 81.9095 106.929 82.2285 105.231 81.805C103.981 81.4945 102.314 81.1979 101.273 80.8147C99.9638 80.3347 99.5333 81.8545 100.101 83.3271C100.683 84.8385 102.253 85.9325 104.9 86.6719C105.446 86.8244 105.376 87.0126 107.599 89.8216C107.785 90.0562 107.805 90.4549 107.651 90.8382C107.104 92.1962 105.322 92.2883 104.286 92.4331C96.3674 93.5387 91.9782 94.0629 85.4063 94.145C81.4491 94.1938 79.0598 94.224 78.8515 96.2842C78.7718 97.0724 79.1403 97.6461 79.8875 97.9001C80.6036 98.144 81.4205 98.3391 82.228 98.4963C81.1255 99.2148 81.2672 100.74 82.3542 101.402C82.9109 101.741 83.6124 102.028 84.3874 102.272C83.7905 104.133 84.9542 105.255 86.7752 105.965C86.5909 107.718 88.0032 108.345 89.53 108.932C95.0636 111.061 99.1593 111.475 104.821 112.064C106.845 112.275 110.888 112.331 118.645 111.412C123.305 110.858 123.974 111.412 127.433 111.878C127.875 111.937 150.419 115.143 150.891 115.143C151.232 115.143 151.258 114.637 150.918 114.603C149.283 114.437 126.004 111.112 125.4 111.006C123.472 110.668 122.197 110.446 118.581 110.873C110.464 111.837 106.511 111.696 104.877 111.525C99.2561 110.941 95.1975 110.51 89.7235 108.426C88.5002 107.96 87.2506 107.485 87.304 106.157C88.9818 106.73 91.7412 107.33 94.1252 107.468C96.1351 107.585 100.842 107.859 101.649 108.587C101.909 108.825 102.28 108.427 102.012 108.184C100.963 107.238 95.4135 107.001 93.7257 106.902C91.9278 106.795 87.623 105.987 85.9855 104.991C84.8992 104.332 84.5531 103.513 84.9069 102.425C91.2542 104.194 98.9433 103.146 100.057 104.282C100.305 104.535 100.695 104.16 100.445 103.903C99.459 102.899 93.9726 103.108 91.9681 102.968C89.9295 102.824 84.9394 102.341 82.6353 100.939C81.6938 100.365 81.7309 99.0197 83.2253 98.6744C83.7974 98.768 84.3394 98.8431 84.8086 98.9051C88.0117 99.3255 98.4099 98.6279 99.2569 98.6325C99.4025 98.6589 99.531 98.5195 99.5356 98.3701C99.5403 98.2206 99.4226 98.096 99.2732 98.0913C98.4478 98.0635 88.0651 98.7874 84.8791 98.3678C82.7576 98.0898 81.182 97.7693 80.0601 97.3868C79.5476 97.2126 79.3339 96.8796 79.3896 96.3384C79.5421 94.8232 81.3454 94.7373 85.411 94.6862C92.7687 94.5948 97.4181 93.9243 105.406 92.8233C108.068 92.4563 108.752 90.4084 108.021 89.484C105.758 86.627 105.809 86.3622 105.042 86.1493C102.572 85.4587 101.12 84.4715 100.603 83.1313C100.33 82.4244 100.325 81.6308 100.589 81.3613C100.628 81.3211 100.748 81.1995 101.082 81.3226C102.177 81.7252 103.811 82.0101 105.097 82.3299C106.873 82.7705 107.588 82.4352 108.594 83.6136C109.693 84.9004 110.631 84.9159 112.336 86.4923C114.14 88.1647 115.332 88.2924 117.288 90.7956C119.493 93.6208 119.94 94.9045 124.763 96.4917C132.159 98.9268 150.458 97.067 151.233 96.9873C151.588 96.9501 151.537 96.412 151.177 96.4484L151.18 96.4492Z" fill="black"/>
<path d="M103.953 110.118C103.339 110.118 103.895 108.6 103.733 108.262C103.379 107.676 102.195 107.26 102.792 105.213C103.077 104.241 103.128 104.19 102.481 103.574C101.552 102.689 101.226 101.637 101.355 100.613C101.438 99.9617 101.71 99.3315 101.584 98.7709C101.432 98.0997 100.706 97.5081 100.724 96.6611C100.736 96.0402 101.13 94.9872 101.638 94.5087C101.895 94.2633 102.272 94.655 102.009 94.9036C101.652 95.2404 101.277 96.1331 101.265 96.6727C101.258 97.0157 101.455 97.3401 101.663 97.6839C101.844 97.9828 102.032 98.2925 102.113 98.6517C102.275 99.3663 101.973 100.041 101.894 100.681C101.789 101.515 102.05 102.413 102.856 103.183C103.706 103.994 103.635 104.267 103.313 105.365C102.979 106.486 103.186 106.884 103.79 107.498C104.317 108.037 104.358 108.101 104.246 109.109C104.22 109.333 104.183 109.672 104.213 109.765C104.268 109.94 104.137 110.118 103.954 110.118L103.953 110.118Z" fill="black"/>
<path d="M143.925 137.964C143.332 137.964 142.835 137.31 142.406 135.971C142.295 135.628 142.815 135.465 142.922 135.806C143.417 137.352 143.834 137.432 143.958 137.419C144.207 137.391 146.436 136.565 148.059 116.644C148.087 116.268 148.626 116.343 148.598 116.688C148.344 119.804 146.899 137.964 143.925 137.964ZM141.982 133.279C141.853 133.279 141.739 133.188 141.715 133.057C140.994 129.133 140.459 123.186 140.167 115.858C140.153 115.507 140.693 115.466 140.708 115.836C141.357 132.113 142.793 133.279 141.982 133.279ZM140.256 94.8974C140.67 85.9184 141.253 79.2351 141.988 75.0332C142.013 74.8853 142.15 74.7862 142.301 74.8126C143.04 74.9411 141.719 74.9488 140.797 94.9222C140.78 95.2861 140.24 95.2458 140.256 94.8974ZM148.478 94.1464C147.936 84.0354 146.754 74.5749 145.468 70.0439C145.371 69.6994 145.892 69.5507 145.99 69.8961C147.286 74.4626 148.474 83.9704 149.019 94.1185C149.037 94.4793 148.496 94.5025 148.478 94.1464Z" fill="white"/>
<path d="M143.57 129.309C144.05 126.79 144.485 122.465 144.86 116.451C144.884 116.082 145.423 116.134 145.401 116.485C145.024 122.521 144.587 126.87 144.102 129.41C144.035 129.763 143.504 129.661 143.57 129.309ZM145.274 94.3716C145.068 87.6109 144.65 81.9132 144.127 78.7403C144.07 78.3911 144.602 78.2912 144.662 78.652C145.197 81.8946 145.606 87.4715 145.815 94.3554C145.826 94.7069 145.284 94.734 145.274 94.3716Z" fill="white"/>
</svg>
