<svg width="154" height="155" viewBox="0 0 154 155" fill="none" xmlns="http://www.w3.org/2000/svg">
<path d="M129.19 102.089L146.909 96.8L143.471 124.656L127.427 132.413L129.19 102.089Z" fill="#FFB43B"/>
<path d="M114.733 80.5803L100.717 94.0674V120.954L127.427 132.413L129.19 102.089L114.733 80.5803Z" fill="white"/>
<path d="M108.386 124.127L109.092 103.588L118.259 106.144L117.29 128.006L108.386 124.127Z" fill="#FFE55D"/>
<path d="M149.895 99.7966L134.645 77.6706C134.613 77.6234 134.568 77.5862 134.515 77.563C134.463 77.5399 134.405 77.5317 134.348 77.5394C114.566 80.2637 114.633 80.2683 114.556 80.3258L97.1557 97.0041C97.1104 97.0464 97.0789 97.1014 97.0652 97.1618C97.0516 97.2222 97.0564 97.2854 97.079 97.343C97.1018 97.4007 97.1416 97.4501 97.1931 97.4846C97.2446 97.5191 97.3053 97.5372 97.3673 97.5363C97.444 97.5363 97.4003 97.5363 100.408 96.8692V120.951C100.408 121.012 100.425 121.071 100.458 121.122C100.492 121.173 100.539 121.212 100.595 121.236L127.366 132.714C127.519 132.744 127.396 132.771 143.605 124.931C143.651 124.909 143.691 124.875 143.721 124.833C143.751 124.791 143.77 124.743 143.776 124.691L146.654 101.382L149.746 100.261C149.791 100.245 149.831 100.219 149.864 100.185C149.896 100.151 149.921 100.11 149.935 100.065C149.95 100.02 149.954 99.9727 149.947 99.9261C149.94 99.8795 149.922 99.8352 149.895 99.7966ZM108.701 123.926L109.386 103.991L117.94 106.376L117.001 127.544L108.701 123.926ZM127.145 131.955L117.605 127.861L118.567 106.156C118.571 106.086 118.55 106.017 118.509 105.961C118.468 105.904 118.409 105.863 118.342 105.845L109.175 103.288C109.13 103.275 109.082 103.273 109.036 103.281C108.99 103.289 108.946 103.308 108.908 103.336C108.871 103.364 108.84 103.4 108.818 103.441C108.797 103.483 108.785 103.528 108.783 103.575L108.09 123.779L101.026 120.748V94.1994L114.669 81.0703L128.755 104.261L127.145 131.955ZM143.185 124.449L127.766 131.905L129.319 105.187C129.886 106.12 130.17 106.611 130.338 106.869C130.525 107.16 130.568 107.156 130.689 107.156L146.003 101.62L143.185 124.449Z" fill="#4B1010"/>
<path d="M53.6457 37.8274C46.9824 37.8274 40.5921 40.4743 35.8805 45.1859C31.1689 49.8976 28.522 56.2879 28.522 62.9511C28.522 69.6143 31.1689 76.0046 35.8805 80.7162C40.5921 85.4278 46.9824 88.0747 53.6457 88.0747C60.3089 88.0747 66.6992 85.4278 71.4108 80.7162C76.1224 76.0046 78.7693 69.6143 78.7693 62.9511C78.7693 56.2879 76.1224 49.8976 71.4108 45.1859C66.6992 40.4743 60.3089 37.8274 53.6457 37.8274Z" fill="#FFB43B"/>
<path d="M53.6451 88.3825C48.6148 88.383 43.6974 86.8917 39.5147 84.0973C35.332 81.3029 32.072 77.3309 30.147 72.6835C28.2219 68.0362 27.7183 62.9224 28.6997 57.9888C29.6812 53.0552 32.1038 48.5235 35.661 44.9669C39.2176 41.4097 43.7493 38.9872 48.6829 38.0057C53.6165 37.0242 58.7303 37.5278 63.3776 39.4529C68.025 41.3779 71.997 44.6379 74.7914 48.8206C77.5858 53.0033 79.0771 57.9207 79.0766 62.951C79.0693 69.6936 76.3876 76.158 71.6198 80.9257C66.852 85.6935 60.3877 88.3752 53.6451 88.3825ZM53.6451 38.1359C48.7371 38.1358 43.9393 39.591 39.8583 42.3176C35.7774 45.0442 32.5967 48.9198 30.7184 53.4541C28.8401 57.9885 28.3485 62.978 29.306 67.7917C30.2634 72.6054 32.6267 77.0271 36.0971 80.4976C39.5675 83.9681 43.9892 86.3316 48.8028 87.2892C53.6165 88.2467 58.606 87.7553 63.1404 85.8772C67.6748 83.999 71.5505 80.8184 74.2772 76.7376C77.004 72.6567 78.4594 67.859 78.4594 62.951C78.4517 56.3721 75.8348 50.0649 71.1829 45.4129C66.5311 40.7608 60.2239 38.1438 53.6451 38.1359Z" fill="#4B1010"/>
<path d="M79.6707 65.8356C72.0553 62.6505 48.4594 54.0913 48.0914 54.0913C48.0348 54.0911 47.9794 54.1066 47.931 54.1359C47.8827 54.1653 47.8435 54.2074 47.8176 54.2577C46.6617 56.5195 45.9339 58.9755 45.6707 61.5019C45.5162 62.9397 45.6409 64.3938 46.038 65.7842C48.5913 73.1581 58.6832 73.4924 62.6834 70.1708C62.9387 73.8343 67.119 76.4819 70.6576 76.4819C73.6663 76.4819 76.1015 75.0757 78.1479 71.929C79.0781 70.4921 79.8231 68.9435 80.3654 67.32C80.4308 67.1784 80.4644 67.0241 80.4638 66.8681C80.4633 66.712 80.4287 66.558 80.3623 66.4168C80.2959 66.2757 80.1997 66.1506 80.0803 66.0503C79.9609 65.9499 79.8211 65.8767 79.6707 65.8356Z" fill="#4B1010"/>
<path d="M49.1494 63.2591C49.0716 63.2638 48.995 63.2387 48.9351 63.189C48.8752 63.1393 48.8364 63.0686 48.8266 62.9914C48.8169 62.9141 48.8369 62.836 48.8826 62.773C48.9283 62.7099 48.9962 62.6666 49.0727 62.6518L57.8014 60.4474C57.8808 60.4271 57.965 60.4391 58.0355 60.4809C58.1061 60.5227 58.1571 60.5907 58.1774 60.6701C58.1978 60.7496 58.1857 60.8338 58.144 60.9043C58.1022 60.9749 58.0341 61.0259 57.9547 61.0462L49.1494 63.2591Z" fill="white"/>
<path d="M54.7027 66.6089C54.6239 66.6155 54.5456 66.5913 54.4842 66.5415C54.4227 66.4917 54.3829 66.4201 54.373 66.3416C54.3631 66.2632 54.3839 66.1839 54.4311 66.1204C54.4782 66.0569 54.5481 66.0141 54.6261 66.0009L59.2097 64.8508C59.2498 64.8386 59.2919 64.8347 59.3335 64.8393C59.3752 64.8439 59.4154 64.8569 59.4519 64.8776C59.4883 64.8982 59.5202 64.9261 59.5456 64.9594C59.5709 64.9928 59.5892 65.0309 59.5994 65.0715C59.6095 65.1122 59.6113 65.1545 59.6046 65.1958C59.5979 65.2372 59.5828 65.2767 59.5604 65.3121C59.5379 65.3474 59.5085 65.3779 59.4739 65.4015C59.4393 65.4251 59.4003 65.4415 59.3592 65.4496C54.9059 66.5683 54.784 66.6089 54.7027 66.6089Z" fill="white"/>
<path d="M67.0442 69.4336C66.9676 69.4377 66.8923 69.4129 66.8331 69.3642C66.7738 69.3155 66.735 69.2464 66.7242 69.1704C66.7135 69.0945 66.7315 69.0173 66.7748 68.954C66.8182 68.8908 66.8836 68.846 66.9583 68.8286C68.5723 68.3602 73.9832 66.6856 75.0651 66.3612C75.1039 66.3496 75.1447 66.3456 75.185 66.3497C75.2253 66.3538 75.2645 66.3657 75.3002 66.3849C75.3359 66.4041 75.3675 66.4301 75.3931 66.4615C75.4188 66.4929 75.438 66.5291 75.4496 66.5679C75.4613 66.6067 75.4652 66.6474 75.4612 66.6878C75.4571 66.7281 75.4452 66.7672 75.426 66.8029C75.4068 66.8386 75.3807 66.8702 75.3494 66.8959C75.318 66.9215 75.2818 66.9407 75.243 66.9524C74.1381 67.2798 67.2021 69.4336 67.0442 69.4336Z" fill="white"/>
<path d="M70.8353 72.6035C70.7606 72.607 70.6873 72.5831 70.629 72.5364C70.5707 72.4897 70.5315 72.4233 70.5187 72.3497C70.5059 72.2761 70.5204 72.2003 70.5595 72.1366C70.5986 72.073 70.6596 72.0258 70.731 72.0039C71.9534 71.5658 73.2033 71.2087 74.4727 70.935C74.5123 70.9266 74.5532 70.926 74.5931 70.9333C74.6329 70.9407 74.6709 70.9558 74.7049 70.9778C74.7389 70.9999 74.7683 71.0284 74.7912 71.0618C74.8142 71.0951 74.8304 71.1327 74.8388 71.1723C74.8473 71.212 74.8479 71.2529 74.8405 71.2927C74.8332 71.3325 74.8181 71.3705 74.796 71.4045C74.774 71.4385 74.7455 71.4679 74.7121 71.4908C74.6787 71.5138 74.6412 71.53 74.6015 71.5385C73.3287 71.8275 72.0713 72.1825 70.8353 72.6035Z" fill="white"/>
<path d="M52.4563 71.9089C52.4693 71.8311 52.5115 71.7613 52.5743 71.7137C52.6371 71.6661 52.7157 71.6442 52.7941 71.6527C52.8724 71.6611 52.9446 71.6991 52.9958 71.759C53.0471 71.8189 53.0735 71.8961 53.0697 71.9748C52.9442 73.1124 53.1736 74.261 53.7266 75.2631C54.2795 76.2651 55.1288 77.0717 56.1581 77.5721C57.2141 78.0484 58.3639 78.2804 59.5219 78.2506C60.68 78.2209 61.8164 77.9302 62.8465 77.4003C62.8824 77.3817 62.9217 77.3703 62.962 77.3669C63.0024 77.3634 63.043 77.3679 63.0816 77.3802C63.1202 77.3924 63.156 77.4122 63.1869 77.4382C63.2179 77.4643 63.2434 77.4963 63.2621 77.5322C63.2807 77.5682 63.2921 77.6074 63.2955 77.6478C63.299 77.6881 63.2944 77.7287 63.2822 77.7673C63.2699 77.8059 63.2502 77.8417 63.2241 77.8727C63.1981 77.9036 63.1661 77.9292 63.1302 77.9478C58.2383 80.4903 51.849 77.5736 52.4563 71.9089Z" fill="#4B1010"/>
<path d="M64.2265 102.972L88.2917 115.401L75.2424 138.672C75.2424 138.672 53.032 125.627 52.94 125.274C52.7637 125.01 64.2265 102.972 64.2265 102.972Z" fill="#FFE55D"/>
<path d="M103.451 111.081C103.363 111.346 91.9032 130.386 91.9032 130.386L75.1543 138.671L88.2005 115.399L103.451 111.081Z" fill="white"/>
<path d="M82.7348 100.768L103.451 111.081L88.2883 115.401L64.2231 102.971L82.7348 100.768Z" fill="#FFE55D"/>
<path d="M103.759 111.092C103.761 111.044 103.752 110.995 103.731 110.951C103.711 110.907 103.68 110.869 103.642 110.839L82.8729 100.488C82.7417 100.423 82.8376 100.502 64.1872 102.661C64.1094 102.671 64.038 102.709 63.9871 102.769C63.9257 102.846 53.2579 123.417 52.7235 125.154C52.653 125.384 52.6637 125.407 52.7404 125.476C53.2196 125.901 56.1363 127.804 74.8826 138.817C74.9162 138.866 74.9606 138.907 75.0125 138.936C75.0643 138.965 75.1222 138.982 75.1816 138.985C75.2412 138.988 75.3007 138.976 75.3552 138.952C75.4098 138.928 75.4579 138.891 75.496 138.845C92.1812 130.591 92.0923 130.666 92.1666 130.544C94.0766 127.373 103.745 111.361 103.759 111.092ZM82.6804 101.085L102.599 111.002L88.2907 115.055L65.2576 103.159L82.6804 101.085ZM64.3551 103.386L87.7954 115.492L75.0597 138.211C66.7658 133.338 54.6964 126.18 53.2909 125.172C53.9212 123.592 60.1019 111.568 64.3551 103.387V103.386ZM91.6851 130.149L75.9108 137.954L88.3912 115.693L102.806 111.585C101.26 114.228 95.1263 124.43 91.6851 130.15V130.149Z" fill="#4B1010"/>
<path d="M81.4128 131.841C81.3399 131.843 81.2686 131.819 81.2119 131.774C81.1694 131.74 81.1368 131.695 81.1174 131.644C81.0979 131.593 81.0924 131.538 81.1013 131.484C81.1102 131.431 81.1332 131.38 81.168 131.338C81.2028 131.296 81.2481 131.265 81.2993 131.246L85.0894 129.747C85.146 129.724 85.2084 129.718 85.2685 129.73C85.3286 129.743 85.3836 129.773 85.4264 129.816C85.4693 129.86 85.4981 129.916 85.5091 129.976C85.52 130.037 85.5127 130.099 85.4881 130.155C85.4722 130.192 85.4492 130.226 85.4202 130.255C85.3913 130.283 85.357 130.305 85.3194 130.321C81.182 131.956 81.4971 131.841 81.4128 131.841Z" fill="#4B1010"/>
<path d="M80.3547 134.133C80.2826 134.135 80.2122 134.111 80.1557 134.066C80.0992 134.022 80.0603 133.958 80.0457 133.888C80.0313 133.817 80.0423 133.744 80.0766 133.68C80.111 133.617 80.1665 133.568 80.2336 133.541L83.9355 131.955C84.0094 131.929 84.0903 131.932 84.162 131.963C84.2337 131.995 84.2907 132.052 84.3216 132.124C84.3525 132.196 84.3548 132.277 84.3283 132.351C84.3017 132.425 84.2482 132.486 84.1785 132.521C80.1232 134.26 80.4445 134.133 80.3547 134.133Z" fill="#4B1010"/>
<path d="M41.1276 108.26C41.022 108.51 41.0084 108.788 41.0891 109.047C41.1699 109.305 41.3397 109.526 41.5685 109.671C42.6801 110.259 43.9786 110.386 45.1829 110.024C45.544 110.024 45.8883 109.539 45.8883 109.142C46.7968 104.915 47.0041 100.567 46.5017 96.2723C46.5164 96.0886 46.4734 95.9049 46.3787 95.7469C46.284 95.5888 46.1423 95.4642 45.9734 95.3906C45.6207 95.3024 45.36 95.7433 45.1798 96.096C43.5532 100.054 42.1993 104.118 41.1276 108.26Z" fill="#FFB43B"/>
<path d="M46.8127 96.2703C46.8127 95.2236 45.7024 94.3534 44.8958 95.9758C43.2629 99.943 41.9051 104.018 40.832 108.172C40.7062 108.489 40.6964 108.84 40.8044 109.164C40.9125 109.488 41.1313 109.763 41.4224 109.941C42.1378 110.332 42.9406 110.538 43.7556 110.539C44.8291 110.539 46.2154 110.268 46.1908 109.203C47.1045 104.955 47.3144 100.586 46.8119 96.2703H46.8127ZM45.5782 109.142C45.5782 110.197 42.9283 110.053 41.7061 109.395C41.2767 109.18 41.3457 108.644 41.4531 108.237C42.5133 104.149 43.8516 100.139 45.4586 96.2335C45.8696 95.4123 46.1924 95.5672 46.1985 96.3101C46.6939 100.593 46.4846 104.928 45.579 109.142H45.5782Z" fill="#4B1010"/>
<path d="M16.0046 91.6878C15.5101 92.019 15.1742 92.4085 15.4756 93.0104C15.9037 94.2124 16.7915 95.1952 17.9437 95.7431C18.1194 95.8125 18.3106 95.8328 18.4969 95.8017C18.6832 95.7707 18.8575 95.6894 19.0011 95.5668C22.505 93.0527 25.5472 89.9509 27.9927 86.3988C28.5985 85.5124 28.1913 84.8131 27.111 85.3406C23.2686 87.2009 19.5578 89.3216 16.0046 91.6878Z" fill="#FFB43B"/>
<path d="M17.8057 96.0192C17.1968 95.7349 16.6511 95.3312 16.2009 94.8322C15.7508 94.3332 15.4053 93.7489 15.185 93.114C14.9243 92.6056 15.0232 91.9708 15.8321 91.4317C19.3856 89.037 23.1112 86.9081 26.9784 85.0624C28.3079 84.3976 29.0402 85.3844 28.2496 86.5698C25.7641 90.1358 22.6995 93.261 19.1828 95.816C18.7688 96.046 18.403 96.3175 17.8057 96.0192ZM27.249 85.6167C23.4099 87.455 19.7093 89.5697 16.1764 91.9439C15.8183 92.1839 15.5247 92.4208 15.7509 92.8725C15.9443 93.4381 16.2496 93.9589 16.6486 94.404C17.0477 94.8492 17.5322 95.2094 18.0733 95.4633C18.4352 95.6435 18.6254 95.4096 18.8631 95.2908C22.3042 92.782 25.3043 89.7184 27.7405 86.2255C28.1446 85.6159 28.0365 85.2234 27.2498 85.6167H27.249Z" fill="#4B1010"/>
<path d="M5.69006 56.0748C5.05289 55.9153 4.57597 56.0686 4.36818 56.6882C3.71644 58.099 3.79235 60.9191 5.161 60.9191C9.43674 61.5366 13.7849 61.4472 18.0316 60.6546C19.2117 60.3601 18.9517 59.5627 18.0316 59.3327C14.0055 57.938 9.87996 56.849 5.69006 56.0748Z" fill="#FFB43B"/>
<path d="M5.11712 61.2293C3.51921 61.3159 3.33212 58.2006 4.08891 56.5629C4.14058 56.3974 4.22599 56.2444 4.33974 56.1136C4.4535 55.9828 4.59313 55.877 4.74983 55.8029C4.90653 55.7287 5.07689 55.6879 5.25017 55.6829C5.42345 55.6779 5.59588 55.7089 5.75658 55.7739C9.95869 56.5513 14.0961 57.645 18.1334 59.0456C19.2713 59.327 19.6585 60.5707 18.1066 60.9625C13.8203 61.7591 9.43253 61.8493 5.11712 61.2293ZM5.16159 60.6159C9.41851 61.2277 13.7468 61.1402 17.9755 60.3567C18.7499 60.1612 18.638 59.807 17.9571 59.6368C13.9222 58.2667 9.79752 57.1772 5.61244 56.3758C4.85029 56.1964 4.73067 56.5698 4.6586 56.7906C4.03677 58.1424 4.15868 60.6159 5.16159 60.6159Z" fill="#4B1010"/>
<path d="M25.6129 23.5467C25.4519 23.2477 25.2066 23.0023 24.9075 22.8413C24.1707 22.9225 23.4673 23.1923 22.8652 23.6247C22.2631 24.057 21.7826 24.6373 21.4702 25.3095C21.3416 25.4615 21.2786 25.6582 21.295 25.8566C21.3114 26.055 21.4059 26.2388 21.5576 26.3676C23.9546 29.9525 26.935 33.1107 30.3752 35.7112C30.6397 35.8875 31.0806 36.1521 31.4333 35.8875C31.786 35.623 31.6097 35.1829 31.4333 34.8302C29.7969 30.92 27.8505 27.1468 25.6129 23.5467Z" fill="#FFB43B"/>
<path d="M30.2015 35.9689C26.7298 33.3428 23.7211 30.1553 21.2996 26.5379C21.1177 26.3628 21.0065 26.127 20.987 25.8752C20.9675 25.6235 21.041 25.3734 21.1938 25.1723C21.5391 24.4544 22.0609 23.8358 22.7103 23.3744C23.3597 22.913 24.1156 22.6238 24.9071 22.5339C25.3787 22.5339 25.9928 23.579 25.8763 23.3866C28.0836 27.0199 30.0348 30.8028 31.7159 34.7076C31.8454 34.9652 32.2089 35.6921 31.6177 36.1345C31.1699 36.4688 30.6646 36.2771 30.2015 35.9689ZM24.8305 23.1504C24.1683 23.2585 23.5418 23.5244 23.0041 23.9257C22.4664 24.327 22.0332 24.8519 21.7412 25.456C21.653 25.6331 21.4575 25.8302 21.7757 26.1461C24.1663 29.7193 27.1354 32.8693 30.5611 35.4667C30.8916 35.686 31.1078 35.7435 31.2451 35.64C31.3317 35.5756 31.4038 35.4644 31.1546 34.9675C29.4841 31.0856 27.5451 27.3248 25.3518 23.7124C25.2258 23.4859 25.0469 23.2931 24.8305 23.1504Z" fill="#4B1010"/>
<path d="M69.5124 18.7867C69.5922 18.6783 69.6489 18.5547 69.6789 18.4234C69.7089 18.2922 69.7116 18.1561 69.6868 18.0238C69.662 17.8915 69.6102 17.7657 69.5347 17.6542C69.4592 17.5428 69.3615 17.448 69.2478 17.3759C68.2214 16.6564 66.965 16.3424 65.7208 16.4941C65.2945 16.4941 65.069 16.8852 64.928 17.2877C63.4753 21.335 62.7007 25.5943 62.6354 29.8938C62.6231 31.1206 63.4857 31.1482 63.958 30.2458C66.0034 26.5232 67.8573 22.6985 69.5124 18.7867Z" fill="#FFB43B"/>
<path d="M62.3281 29.8939C62.3839 25.5571 63.1651 21.2602 64.6391 17.1812C64.8185 16.6445 65.1528 16.1844 65.7218 16.1844C67.027 16.0319 68.3428 16.3643 69.419 17.1183C69.5642 17.2109 69.6893 17.3318 69.7868 17.4737C69.8844 17.6156 69.9524 17.7757 69.9869 17.9444C70.0214 18.1131 70.0216 18.2871 69.9875 18.4559C69.9534 18.6247 69.8858 18.7849 69.7886 18.9271C68.1631 22.8563 66.3059 26.6855 64.2266 30.3946C63.6538 31.5462 62.3281 31.4933 62.3281 29.8939ZM65.7655 16.8001C65.4664 16.807 65.3361 17.0386 65.2211 17.3851C63.7698 21.4006 63.0008 25.6307 62.9461 29.9C62.9461 30.7618 63.3663 30.7434 63.6837 30.1078C65.805 26.4104 67.667 22.5702 69.2565 18.615C69.36 18.4617 69.5463 17.8697 69.1108 17.652C68.1409 16.9615 66.9483 16.6578 65.7662 16.8001H65.7655Z" fill="#4B1010"/>
<path d="M97.9852 42.4993C98.1864 42.4633 98.37 42.3618 98.5074 42.2104C98.6447 42.0591 98.728 41.8665 98.7443 41.6628C98.7555 41.5277 98.7369 41.3919 98.6899 41.2648C98.506 40.032 97.8402 38.9226 96.8389 38.1802C96.5553 37.8965 96.145 38.0023 95.7816 38.1802C91.9078 40.0669 88.365 42.5684 85.2909 45.5878C84.5894 46.2778 84.7596 47.0446 85.9963 46.7333C90.1116 45.6847 94.1241 44.2676 97.9852 42.4993Z" fill="#FFB43B"/>
<path d="M85.0734 45.3663C88.1687 42.3191 91.7406 39.7976 95.6484 37.9013C95.8573 37.7555 96.1084 37.6825 96.3629 37.6935C96.6174 37.7044 96.8613 37.7987 97.0569 37.9619C98.0957 38.7407 98.7891 39.8947 98.9891 41.1776C99.0479 41.3421 99.0707 41.5174 99.0559 41.6915C99.0411 41.8655 98.989 42.0344 98.9032 42.1866C98.8184 42.3394 98.7017 42.4721 98.5611 42.5758C98.4205 42.6796 98.2592 42.7518 98.0882 42.7878C94.2171 44.5548 90.1962 45.973 86.0732 47.0256C84.5451 47.412 84.1433 46.2972 85.0734 45.3663ZM95.9191 38.4572C92.0715 40.3244 88.5544 42.807 85.5066 45.8072C85.0021 46.3117 85.0466 46.6507 85.9222 46.4329C90.0428 45.4042 94.0568 43.9875 97.9103 42.202C97.9978 42.1866 98.0811 42.1531 98.1549 42.1036C98.2287 42.0542 98.2913 41.9898 98.3388 41.9148C98.3863 41.8397 98.4176 41.7556 98.4307 41.6677C98.4438 41.5798 98.4384 41.4902 98.4148 41.4046C98.2393 40.2223 97.609 39.1553 96.6582 38.4311C96.4358 38.2271 96.1897 38.3207 95.9191 38.4572Z" fill="#4B1010"/>
<path d="M99.8363 80.5808C101.379 81.6097 102.572 78.7498 102.304 76.8789C102.304 76.4671 101.943 76.2563 101.599 76.0853C97.622 74.4384 93.3834 73.513 89.0818 73.3526C87.855 73.3265 87.8182 74.219 88.7291 74.6745C92.306 76.8706 96.0155 78.8432 99.8363 80.5808Z" fill="#FFB43B"/>
<path d="M99.6872 80.8522C95.8637 79.1101 92.1507 77.1348 88.5694 74.9375C87.4346 74.374 87.4836 73.0444 89.0838 73.0444C93.4185 73.2488 97.6881 74.1795 101.715 75.7978C102.204 76.0401 102.614 76.3223 102.614 76.8782C102.702 77.5365 102.655 78.2059 102.477 78.8456C102.298 79.4852 101.991 80.0819 101.574 80.5992C101.343 80.8621 101.025 81.0326 100.678 81.0791C100.331 81.1256 99.9793 81.045 99.6872 80.8522ZM89.0693 73.6609C88.2167 73.6433 88.2335 74.0818 88.8676 74.3985C92.4424 76.5918 96.1484 78.5635 99.9648 80.3025C100.436 80.5118 100.79 80.6859 101.304 79.9337C101.898 79.0499 102.145 77.9787 102 76.9242C101.994 76.6482 101.816 76.5408 101.463 76.3637C97.5244 74.7359 93.328 73.8207 89.0693 73.6609Z" fill="#4B1010"/>
<path d="M69.7772 104.382C70.2449 104.48 70.6919 104.66 71.099 104.91C71.308 105.032 71.4722 105.218 71.5675 105.44C71.6628 105.663 71.684 105.91 71.6281 106.145C71.538 106.317 71.413 106.469 71.2613 106.59C71.1095 106.712 70.9341 106.8 70.7463 106.85C70.1624 107.062 69.5422 107.156 68.9218 107.126C68.3013 107.095 67.6931 106.942 67.1326 106.674C67.8356 108.162 68.1971 109.788 68.1908 111.434C68.1908 112.228 68.1026 113.197 67.309 113.461C66.5154 113.725 65.9933 113.105 65.6336 112.492C65.13 111.606 64.7449 110.658 64.4881 109.671C64.3867 110.493 64.4165 111.326 64.5763 112.139C64.8186 114.32 63.2905 115.721 61.931 114.872C61.6748 114.599 61.4926 114.265 61.402 113.902C61.1433 112.979 60.9663 112.035 60.8729 111.081C60.5202 111.787 60.5202 112.668 60.1675 113.373C59.8148 114.078 58.8464 114.696 58.2292 114.255C58.0064 114.059 57.8341 113.813 57.7266 113.537C57.6192 113.261 57.5798 112.963 57.6119 112.668C57.6119 108.878 59.1109 105.44 56.4664 102.178C56.299 102.006 56.1777 101.795 56.1137 101.564C56.1062 101.304 56.2012 101.05 56.3782 100.859C57.2315 99.6786 58.36 98.7244 59.6657 98.0791C60.9714 97.4339 62.415 97.1171 63.8709 97.1563C64.3938 97.6762 65.7671 103.084 69.7772 104.382Z" fill="white"/>
<path d="M71.2578 104.646C70.8252 104.38 70.3508 104.19 69.8547 104.083C65.9443 102.802 64.729 97.5748 64.0887 96.9353C64.0308 96.8778 63.9526 96.8453 63.871 96.8449C62.4076 96.8271 60.9584 97.134 59.6278 97.7435C51.5147 89.2838 45.4653 79.0645 41.9512 67.8825C41.939 67.8438 41.9194 67.8079 41.8934 67.7768C41.8674 67.7457 41.8355 67.7201 41.7996 67.7013C41.7637 67.6826 41.7244 67.6711 41.684 67.6675C41.6437 67.6639 41.603 67.6683 41.5643 67.6804C41.5257 67.6925 41.4898 67.7122 41.4587 67.7382C41.4276 67.7642 41.402 67.7961 41.3832 67.832C41.3644 67.8679 41.3529 67.9072 41.3494 67.9475C41.3458 67.9879 41.3502 68.0286 41.3623 68.0672C44.8867 79.2807 50.9399 89.5346 59.055 98.0379C57.9133 98.6851 56.9258 99.5714 56.1598 100.637C55.9858 100.811 55.8702 101.034 55.8293 101.277C55.7883 101.519 55.824 101.768 55.9313 101.989C56.0026 102.135 56.103 102.267 56.2265 102.372C58.7775 105.516 57.2999 108.936 57.3068 112.625C57.2668 112.975 57.3136 113.33 57.4432 113.658C57.5728 113.986 57.7811 114.277 58.0498 114.505C58.8442 115.074 60.0112 114.378 60.4444 113.509C60.9811 112.427 60.5264 111.879 61.1038 113.975C61.2157 114.413 61.445 114.814 61.7678 115.132C62.0615 115.317 62.4019 115.416 62.7492 115.418C64.3226 115.418 65.0556 113.645 64.8785 112.077C64.8402 111.884 64.8095 111.694 64.7865 111.498C65.3301 112.772 66.0953 114.189 67.4065 113.752C68.4991 113.388 68.4991 112.018 68.4991 111.432C68.5032 109.989 68.2337 108.558 67.7047 107.215C68.723 107.536 69.8189 107.511 70.8216 107.145C71.068 107.083 71.2967 106.964 71.4895 106.799C71.6824 106.633 71.834 106.425 71.9326 106.191C71.9965 105.895 71.9657 105.587 71.8446 105.309C71.7235 105.032 71.5182 104.8 71.2578 104.646ZM71.3345 106.047C71.2578 106.174 71.1582 106.285 71.0386 106.374C70.919 106.462 70.7832 106.526 70.6391 106.562C70.0937 106.759 69.5145 106.846 68.9353 106.817C68.356 106.788 67.7884 106.644 67.2654 106.393C67.2079 106.365 67.1429 106.355 67.0795 106.365C67.0162 106.376 66.9578 106.406 66.9126 106.452C66.8674 106.497 66.8377 106.556 66.8278 106.619C66.8179 106.683 66.8283 106.748 66.8575 106.805C67.539 108.253 67.8899 109.834 67.8849 111.434C67.8849 112.493 67.6856 113.012 67.2155 113.168C66.8881 113.277 66.4442 113.282 65.9029 112.332C65.4079 111.474 65.0333 110.551 64.7895 109.59C64.7772 109.536 64.7508 109.487 64.7131 109.448C64.6754 109.408 64.6278 109.379 64.5751 109.364C64.5225 109.35 64.4669 109.349 64.414 109.363C64.361 109.377 64.3128 109.404 64.2743 109.443C64.2227 109.495 64.1911 109.564 64.1853 109.637C64.081 110.481 64.1107 111.337 64.2735 112.173C64.364 112.897 64.1979 113.629 63.8043 114.243C63.6311 114.507 63.3649 114.695 63.0588 114.771C62.7527 114.846 62.4294 114.804 62.1535 114.651C61.9335 114.413 61.7782 114.123 61.7026 113.808C61.449 112.905 61.2758 111.981 61.1851 111.047C61.1802 110.98 61.1532 110.915 61.1082 110.864C61.0631 110.814 61.0026 110.779 60.9359 110.766C60.8691 110.754 60.8003 110.764 60.7399 110.795C60.6796 110.826 60.631 110.876 60.6016 110.937C60.2274 111.685 60.2259 112.569 59.8962 113.23C59.5358 113.949 58.7414 114.222 58.4516 114.03C58.257 113.864 58.107 113.651 58.015 113.412C57.923 113.173 57.892 112.915 57.9248 112.661C57.9248 108.864 59.4583 105.367 56.6881 101.954C56.6169 101.902 56.558 101.835 56.5157 101.758C56.4733 101.681 56.4486 101.595 56.4431 101.507C56.4377 101.419 56.4518 101.331 56.4843 101.249C56.5168 101.167 56.567 101.094 56.6313 101.034C57.4382 99.9119 58.5037 99.0013 59.7374 98.379C60.9711 97.7567 62.3367 97.4411 63.7184 97.459C64.2643 98.4159 65.8653 103.434 69.686 104.672C70.1315 104.762 70.5573 104.931 70.9435 105.171C71.093 105.257 71.2112 105.388 71.281 105.545C71.3508 105.703 71.3684 105.878 71.3314 106.047H71.3345Z" fill="#4B1010"/>
<path d="M87.0129 101.262C84.4497 99.5886 83.8194 99.4306 81.5889 94.3325C80.3309 94.3723 79.1058 94.7439 78.0376 95.4096C76.9695 96.0753 76.0962 97.0115 75.5063 98.1233C75.2763 98.591 75.5983 98.6869 77.6164 101.377L82.7344 100.764L85.2915 102.037C85.2969 102.564 85.3866 103.086 85.5553 103.585C85.6695 103.83 85.8603 104.031 86.0988 104.158C86.3374 104.285 86.6109 104.331 86.878 104.29C87.8962 104.003 88.1485 102.002 87.0129 101.262Z" fill="white"/>
<path d="M87.1822 101.003C84.6397 99.3461 84.0585 99.205 81.8725 94.2089C81.8476 94.1522 81.8064 94.1043 81.754 94.0714C81.7017 94.0384 81.6406 94.022 81.5788 94.0241C80.4782 94.0593 79.399 94.3371 78.4183 94.8376C74.5862 91.4519 71.237 87.5562 68.4643 83.2597C68.4423 83.2256 68.4137 83.1963 68.3802 83.1734C68.3468 83.1504 68.3091 83.1343 68.2694 83.1261C68.2296 83.1178 68.1887 83.1175 68.1488 83.1252C68.109 83.1328 68.0711 83.1483 68.0372 83.1708C68.0033 83.1929 67.974 83.2215 67.9511 83.255C67.9282 83.2884 67.9122 83.3261 67.9039 83.3658C67.8957 83.4055 67.8953 83.4464 67.9029 83.4863C67.9106 83.5261 67.926 83.564 67.9483 83.5979C70.7135 87.8812 74.0442 91.7718 77.8501 95.1643C76.7477 95.8634 75.8453 96.8364 75.2309 97.9882C75.153 98.1384 75.1225 98.3086 75.1435 98.4764C75.1644 98.6443 75.2358 98.8018 75.3482 98.9282C75.7469 99.4596 76.9783 101.043 77.3701 101.565C77.403 101.608 77.4463 101.641 77.4958 101.662C77.5454 101.684 77.5995 101.692 77.653 101.686L82.6806 101.088L84.9893 102.238C85.0146 102.747 85.1127 103.25 85.2799 103.731C85.9071 104.984 87.7596 105.017 88.0402 103.155C88.1178 102.752 88.0783 102.335 87.9262 101.954C87.7741 101.572 87.5159 101.242 87.1822 101.003ZM86.8272 103.989C86.6324 104.021 86.4325 103.99 86.2567 103.9C86.0805 103.811 85.9376 103.668 85.8488 103.491C85.444 102.275 85.7606 101.929 85.4302 101.764C82.6568 100.384 82.837 100.449 82.6983 100.461L77.7566 101.05C75.763 98.4076 75.6695 98.4812 75.7783 98.2696C76.3179 97.2297 77.1197 96.3488 78.1044 95.7141C79.0891 95.0795 80.2226 94.7131 81.3925 94.6513C83.5915 99.6091 84.2295 99.8154 86.8448 101.52C87.7841 102.132 87.5134 103.789 86.8272 103.989Z" fill="#4B1010"/>
</svg>
