<svg width="154" height="154" viewBox="0 0 154 154" fill="none" xmlns="http://www.w3.org/2000/svg">
<path d="M42.1264 50.0647C41.7489 48.4705 39.2932 46.8679 40.0015 40.4075C40.8201 33.0529 45.6226 28.9869 52.805 29.2281C51.5114 29.4914 50.2688 29.9617 49.125 30.621C48.8402 30.7021 46.7161 30.4885 46.6395 30.9762C46.5629 31.464 47.5339 31.4847 47.8133 31.4847C47.1362 32.009 46.5198 32.6074 45.9756 33.2688C45.2258 33.1994 44.4704 33.2164 43.7244 33.3193C43.6813 33.3314 43.6411 33.3519 43.6059 33.3796C43.5707 33.4073 43.5413 33.4416 43.5194 33.4807C43.4975 33.5197 43.4835 33.5627 43.4782 33.6071C43.4729 33.6516 43.4765 33.6966 43.4886 33.7397C43.5828 34.0743 43.9136 33.9978 45.3049 34.1586C44.975 34.6438 44.6822 35.1531 44.4289 35.6823C43.605 35.7329 42.7818 35.7688 41.9633 35.8447C41.7497 35.8447 41.0444 36.5568 43.1272 36.6226L44.0016 36.6479C43.7473 37.3212 43.5584 38.0174 43.4373 38.7268C42.6982 38.7411 41.9603 38.7937 41.2267 38.8845C40.6264 38.9963 40.977 39.9006 43.3002 39.7383C43.2321 40.4138 43.2014 41.0924 43.2083 41.7713C42.7765 41.7713 40.7029 41.5017 40.6677 42.1373C40.6325 42.7728 42.4212 42.7269 43.2083 42.7774L43.3462 44.6075C42.6953 44.6887 42.0399 44.7545 41.3944 44.8563C41.059 44.9076 41.0881 45.4306 41.9028 45.5531C42.4336 45.596 42.9665 45.606 43.4985 45.583C43.6144 46.2328 43.7939 46.8696 44.0345 47.4843L42.8301 47.5402C42.8301 47.5402 41.5345 47.6719 42.4388 48.2822C43.1155 48.5325 43.8437 48.6114 44.5583 48.5119C44.9424 49.139 45.4636 49.671 46.0828 50.0678C46.4335 50.286 46.9251 49.8488 46.5913 49.5081C43.8722 46.5601 43.5116 40.6388 44.9144 37.0154C47.4558 30.4081 56.0402 27.9632 60.6245 31.6684C60.7187 31.7326 60.8327 31.7611 60.946 31.7486C61.0593 31.7361 61.1644 31.6835 61.2423 31.6003C61.3203 31.5171 61.3659 31.4088 61.3709 31.2949C61.376 31.181 61.3402 31.0691 61.27 30.9793C59.6337 29.1592 57.0157 28.6768 54.7798 28.3759C49.0921 27.6186 43.837 29.0367 40.8124 34.3224C38.637 38.1089 37.9915 43.9796 39.8936 48.0455C41.2573 50.8879 42.2558 50.6138 42.1264 50.0647Z" fill="#38A1FF"/>
<path d="M63.2348 48.1282C63.012 48.5808 63.6001 49.4093 64.3574 48.2347C66.6246 44.7078 66.4669 37.6632 63.5748 34.1149C63.3872 33.8852 62.7922 34.3239 62.9446 34.5674C65.4355 38.5323 65.545 43.4321 63.2348 48.1282Z" fill="#38A1FF"/>
<path d="M59.2444 42.6541C59.1813 43.3051 58.9432 43.9269 58.5553 44.4535C56.8917 42.3325 55.2326 40.2094 53.5782 38.0843C54.559 37.4388 55.2045 37.5766 56.3026 37.3829C56.3589 37.3722 56.4126 37.3504 56.4606 37.3189C56.5085 37.2873 56.5497 37.2466 56.5819 37.1991C56.6141 37.1516 56.6365 37.0982 56.648 37.0419C56.6594 36.9857 56.6597 36.9277 56.6487 36.8714C56.5392 36.2994 54.7796 35.8094 52.8109 37.1188C52.572 36.8446 52.3025 36.5828 52.0636 36.3308C51.8247 36.0789 51.3415 36.3308 51.5092 36.6922C51.6796 37.0455 51.8767 37.3851 52.0988 37.7084C47.565 42.2827 53.4664 49.8304 58.4167 46.2078C59.4336 47.6626 60.0944 47.2239 60.0331 46.5991C59.906 46.1357 59.6525 45.7169 59.3011 45.3892C59.9599 44.6608 60.3538 43.7314 60.419 42.7513C60.4319 42.5956 60.3824 42.4411 60.2814 42.3218C60.1804 42.2026 60.0361 42.1283 59.8804 42.1154C59.7246 42.1025 59.5701 42.152 59.4508 42.2531C59.3316 42.3541 59.2573 42.4983 59.2444 42.6541ZM57.7191 45.3019C54.059 47.9858 49.6332 42.3034 52.8339 38.7405C52.7527 38.7405 52.6601 38.5154 57.7191 45.3019Z" fill="#38A1FF"/>
<path d="M90.8132 77.4505C78.4852 54.479 39.9866 53.5602 24.4258 70.3699C19.343 67.4165 11.3941 67.4318 10.0418 68.6516C8.80138 69.7749 9.90478 78.8173 12.1858 83.2768C13.0608 81.4645 14.366 79.894 15.9876 78.7024C16.2472 78.5293 16.496 78.9053 16.313 79.109C11.2815 84.3488 8.9484 93.7341 12.5013 101.564C23.5437 95.1476 36.7538 100.462 36.3365 108.627C35.9758 115.666 29.3279 117.633 25.4243 118.025C32.2353 121.771 38.2423 123.199 38.4514 123.682C39.6099 126.416 40.3013 130.248 42.8022 134.162C45.6123 134.614 50.934 134.67 53.003 134.162C54.4916 130.35 55.5084 123.997 55.6968 121.298C55.6968 121.065 56.1562 120.953 56.2045 121.253C56.395 122.513 56.3746 123.796 56.144 125.05C61.2056 124.551 66.0798 122.872 70.3755 120.149C70.5532 120.047 70.7362 120.312 70.6443 120.484C70.0654 121.588 66.7973 123.265 65.6128 123.798C65.7805 124.246 64.9236 132.779 64.4489 134.065C66.8831 134.533 72.4338 134.625 75.4683 133.786C78.0855 133.059 84.3115 121.216 86.6477 115.997C84.7082 103.427 85.4754 100.25 90.8132 77.4505ZM11.218 70.278C9.73326 69.5123 10.3895 69.1348 11.6246 69.6072C14.0389 70.5322 19.0964 75.2735 20.3315 77.2315C20.6378 77.7047 19.8843 78.2024 19.5336 77.7851C17.6109 75.4726 13.885 71.6532 11.218 70.278ZM20.1332 94.558C19.0711 94.6698 18.6393 91.2655 20.0313 91.071C21.1906 90.9033 21.0942 94.457 20.1332 94.558ZM20.4785 86.3695C19.2396 86.7056 18.771 87.5181 18.2327 88.4637C18.0137 88.8397 17.0987 88.7279 17.7243 87.2187C18.1736 86.2082 18.9998 85.413 20.0268 85.0027C20.1182 84.9657 20.2163 84.9478 20.315 84.9502C20.4137 84.9526 20.5108 84.9753 20.6003 85.0167C20.6899 85.0582 20.77 85.1176 20.8357 85.1912C20.9014 85.2649 20.9512 85.3512 20.9822 85.4449C21.0132 85.5386 21.0246 85.6377 21.0157 85.736C21.0069 85.8343 20.978 85.9297 20.9308 86.0164C20.8835 86.103 20.819 86.1791 20.7413 86.2398C20.6635 86.3006 20.5741 86.3447 20.4785 86.3695ZM30.9083 94.5374C29.8915 94.3222 30.2123 91.0763 31.5132 91.3252C32.8142 91.574 31.9551 94.7594 30.9083 94.5374ZM35.9505 86.4361C35.5677 85.6222 34.9337 84.2653 32.4229 83.9452C31.8387 83.874 31.4727 82.567 33.4398 82.9291C34.215 83.0234 34.9427 83.3528 35.5252 83.873C36.1077 84.3932 36.5169 85.0792 36.6979 85.8388C36.8097 86.6084 36.3985 87.3818 35.9505 86.4361ZM40.2807 113.069C40.0111 113.124 39.9101 112.678 40.1589 112.561C42.9591 111.036 42.8726 108.449 41.2309 106.081C40.8549 105.532 41.7669 104.876 42.1766 105.391C44.2708 108.032 44.051 112.294 40.2807 113.069ZM50.5068 75.2184C48.9753 73.6985 45.3382 69.729 40.7945 68.9158C42.8274 71.1877 45.2165 80.6871 44.623 83.8388C44.6021 83.9123 44.5578 83.9771 44.4968 84.0231C44.4358 84.0692 44.3614 84.0941 44.285 84.0941C44.2085 84.0941 44.1341 84.0692 44.0731 84.0231C44.0121 83.9771 43.9678 83.9123 43.9469 83.8388C43.378 80.1335 42.2746 71.6096 39.6589 69.2412C37.047 69.7497 33.0516 75.7115 31.6036 77.9635C31.3945 78.2935 30.7896 78.0653 30.9527 77.684C32.2903 74.7803 34.2152 72.1853 36.606 70.0628C38.8733 67.9839 40.332 67.562 43.3864 68.8025C46.0243 69.8509 48.3696 71.5214 50.2227 73.6716C51.1829 74.8172 50.9195 75.6265 50.5068 75.2184ZM46.5373 65.3483C45.0128 64.7358 43.7723 63.9042 42.2325 63.3912C47.1782 61.0481 57.3538 60.728 62.3953 61.4646C64.1457 62.0393 65.7537 62.9804 67.1121 64.225C62.2934 63.6148 53.6079 63.4877 46.5373 65.3483Z" fill="#38A1FF"/>
<path d="M64.6069 124.18C63.1275 124.754 57.6029 126.213 56.0623 125.788C55.7782 127.887 55.0462 132.253 54.0293 133.992C57.2344 134.416 60.4814 134.416 63.6865 133.992C64.2648 130.752 64.5727 127.47 64.6069 124.18Z" fill="#38A1FF"/>
<path d="M35.2798 107.946C35.2798 103.371 29.638 99.4463 22.3239 99.7419C13.0174 100.125 10.0135 103.773 10.0442 108.139C10.0794 113.16 14.4761 117.064 21.8614 117.318C29.2468 117.572 35.2798 115.006 35.2798 107.946ZM16.7733 111.574C14.0397 112.055 13.4187 106.659 15.9149 105.938C18.1967 105.278 19.503 111.094 16.7733 111.574ZM27.7674 111.661C25.0231 111.514 25.7651 105.592 28.321 106.029C30.4206 106.391 30.5071 111.808 27.7674 111.661Z" fill="#38A1FF"/>
<path d="M25.5059 119.056C26.9607 122.924 31.4478 133.516 32.8146 133.897C34.4617 134.357 38.6953 134.456 41.5009 133.989C40.2252 132.109 38.2382 126.365 37.7757 124.251C35.6822 124.134 27.5656 120.409 25.5059 119.056Z" fill="#38A1FF"/>
<path d="M43.8282 55.3757C44.9316 55.9745 47.483 55.9553 47.0863 55.1062C46.8122 54.5219 45.3175 55.4676 43.5794 54.512C43.2846 54.3542 42.7309 54.78 43.8282 55.3757Z" fill="#191919"/>
<path d="M46.086 54.3388C46.1365 54.2947 46.1745 54.238 46.1962 54.1745C46.2179 54.1111 46.2225 54.043 46.2097 53.9772C46.1968 53.9113 46.1668 53.85 46.1228 53.7994C46.0788 53.7488 46.0223 53.7106 45.9589 53.6887C45.4504 53.5517 44.8355 54.0999 42.7919 52.923C42.4511 52.7247 42.1111 53.2485 43.1426 53.9399C43.9106 54.4154 45.455 54.7914 46.086 54.3388Z" fill="#191919"/>
<path d="M59.4374 33.9318C59.3248 34.0735 59.3968 34.3491 59.615 34.3239C60.5247 34.2167 61.1403 33.6523 63.1733 33.5053C63.296 33.5053 63.4136 33.4566 63.5003 33.3698C63.5871 33.2831 63.6358 33.1655 63.6358 33.0428C63.6358 32.9202 63.5871 32.8025 63.5003 32.7158C63.4136 32.629 63.296 32.5803 63.1733 32.5803C62.0906 32.6515 60.1036 33.0949 59.4374 33.9318Z" fill="#191919"/>
<path d="M56.9012 28.1484C58.0644 28.0017 59.2457 28.164 60.3262 28.619C61.4067 29.074 62.3482 29.8057 63.056 30.7403C63.7574 31.604 64.3578 30.9639 63.5645 29.9623C62.4046 28.5602 60.7357 27.6756 58.9243 27.5029C56.6524 27.2892 56.4648 28.1997 56.9012 28.1484Z" fill="#191919"/>
<path d="M45.0637 56.718C46.7858 57.1729 48.602 57.1269 50.2989 56.5855C52.2408 55.9347 51.6159 55.0916 51.1986 55.1475C50.6496 55.218 49.9735 56.362 45.1556 56.1636C45.0915 56.1693 45.0312 56.1962 44.984 56.2399C44.9368 56.2836 44.9055 56.3418 44.895 56.4052C44.8845 56.4687 44.8954 56.5339 44.9259 56.5905C44.9564 56.6471 45.0049 56.6919 45.0637 56.718Z" fill="#191919"/>
<path d="M48.9773 50.6083C49.9934 51.6259 50.5684 50.9743 49.8364 50.0999C49.0123 49.3252 48.4387 48.3217 48.1894 47.2185C48.1082 46.9336 47.2644 46.6182 47.6817 48.3617C47.9097 49.211 48.3564 49.9856 48.9773 50.6083Z" fill="#191919"/>
<path d="M48.2353 51.2492C48.3931 50.7898 47.7828 50.5731 47.5087 50.9031C46.197 52.4989 43.9511 51.92 42.4549 51.4116C42.1448 51.2998 41.9955 51.7064 42.2252 51.92C43.8087 53.2562 47.5891 53.1291 48.2353 51.2492Z" fill="#191919"/>
<path d="M65.374 32.1224C67.6765 35.3552 72.6169 42.9335 75.8597 44.8754C75.9177 44.9083 75.9856 44.9194 76.0511 44.9068C76.1166 44.8942 76.1754 44.8586 76.217 44.8065C76.2587 44.7543 76.2803 44.6891 76.2781 44.6224C76.2759 44.5557 76.25 44.492 76.2051 44.4427C72.022 39.9855 69.2776 36.0107 65.7454 31.0757C65.237 30.3383 64.8656 30.2334 64.7645 31.1009C64.6402 31.9713 64.4148 32.8242 64.093 33.6423C63.8189 34.4708 64.9062 34.405 65.374 32.1224Z" fill="#191919"/>
<path d="M66.1415 44.4788C66.65 45.5615 67.6921 47.2943 68.7235 47.9046C68.7787 47.945 68.8463 47.9647 68.9145 47.9601C68.9827 47.9555 69.0471 47.927 69.0964 47.8796C69.1456 47.8322 69.1766 47.7689 69.1837 47.7009C69.1909 47.6329 69.1738 47.5646 69.1355 47.5079C68.3782 46.2882 67.8238 46.0952 66.9394 44.1687C66.9195 44.1157 66.8892 44.0672 66.8504 44.0261C66.8116 43.9849 66.765 43.9518 66.7134 43.9287C66.6617 43.9057 66.606 43.8931 66.5494 43.8917C66.4928 43.8903 66.4365 43.9001 66.3838 43.9206C66.3311 43.9411 66.2829 43.9719 66.2421 44.0111C66.2014 44.0503 66.1688 44.0972 66.1462 44.1492C66.1237 44.2011 66.1117 44.2569 66.1109 44.3135C66.1101 44.3701 66.1205 44.4263 66.1415 44.4788Z" fill="#191919"/>
<path d="M53.3028 56.3006C57.2079 58.2233 70.9349 57.9531 78.1778 56.8703C83.2146 56.1176 90.9147 54.9032 95.1077 52.0724C95.3313 51.9146 95.1636 51.518 94.8941 51.6198C88.4292 54.1612 86.1067 54.6697 79.2398 55.7623C68.9027 57.3941 56.0272 56.9768 53.6535 55.6911C52.1289 54.8779 51.753 52.7891 51.7936 51.1673C66.2234 51.7569 75.4074 47.8686 83.8142 43.5438C88.1703 41.3233 92.358 37.8255 98.986 38.8424C111.391 40.7429 116.084 63.823 115.845 70.9694C115.143 73.4197 100.668 77.3532 92.5671 75.3455C93.9293 68.6838 92.7753 61.2617 88.6788 55.8282C88.6316 55.7609 88.5595 55.7151 88.4785 55.7008C88.3976 55.6866 88.3142 55.7052 88.2469 55.7524C88.1796 55.7996 88.1338 55.8716 88.1196 55.9526C88.1054 56.0336 88.1239 56.1169 88.1711 56.1842C91.612 61.8913 92.8125 68.6722 91.5403 75.2138C91.3726 76.0561 92.4247 76.2858 93.6896 76.4741C99.6216 77.3379 109.752 76.0522 114.823 73.0078C116.028 72.2857 116.684 71.7979 116.684 70.827C116.684 60.7127 111.652 40.8646 99.9823 38.0697C93.6797 36.5444 88.8794 40.1027 83.4834 42.7306C71.3644 48.6818 64.8252 50.8625 51.4222 50.4406C51.3549 50.4307 51.2863 50.4356 51.221 50.4549C51.1558 50.4742 51.0956 50.5075 51.0446 50.5525C50.9936 50.5975 50.953 50.653 50.9256 50.7153C50.8982 50.7776 50.8848 50.8451 50.8862 50.9131C50.792 52.9614 51.3303 55.3305 53.3028 56.3006Z" fill="#191919"/>
<path d="M84.1135 29.1086C83.917 29.0724 83.7139 29.1106 83.5441 29.216C83.3742 29.3213 83.2496 29.4861 83.1947 29.6783C83.1388 29.9578 83.3371 30.0612 83.5147 29.9019C83.6969 29.6834 83.9547 29.5418 84.2368 29.5053C84.5714 29.4088 84.5102 29.1446 84.1135 29.1086Z" fill="#191919"/>
<path d="M82.7466 27.9141C83.1273 27.843 83.5187 27.8534 83.8951 27.9447C84.1899 28.0159 84.4388 27.8582 84.317 27.5618C84.1394 27.1192 83.1126 27.0174 82.5735 27.2364C82.0344 27.4554 82.0145 28.0511 82.7466 27.9141Z" fill="#191919"/>
<path d="M81.9536 32.5191C82.3035 32.6646 83.397 32.6722 83.5302 32.1584C83.54 32.1174 83.5404 32.0748 83.5314 32.0336C83.5224 31.9924 83.5043 31.9538 83.4783 31.9206C83.4523 31.8874 83.4192 31.8605 83.3814 31.8419C83.3436 31.8233 83.302 31.8134 83.2599 31.8131C82.9651 31.8131 82.7821 32.1531 82.3295 32.0872C82.7216 30.4792 82.2392 29.9524 82.0455 30.9639C81.903 31.7005 81.6067 32.3751 81.9536 32.5191Z" fill="#191919"/>
<path d="M84.2057 33.8047C84.8329 34.2244 86.3911 33.9778 86.656 32.8905C86.7551 32.3928 86.7122 31.8773 86.5324 31.4028C86.3527 30.9282 86.0431 30.5138 85.6392 30.2067C85.3329 29.9769 85.0702 30.3437 85.1575 30.6661C85.4309 31.7289 84.5159 32.6079 84.0687 33.0758C83.7586 33.3851 83.8313 33.5544 84.2057 33.8047ZM85.7532 31.2963C86.4753 32.3131 86.1928 33.6424 84.5281 33.353C85.1879 32.8524 85.6273 32.1149 85.7532 31.2963Z" fill="#191919"/>
<path d="M79.9258 28.1683C79.6989 28.3846 79.5326 28.6565 79.4434 28.957C79.3542 29.2575 79.3452 29.5761 79.4173 29.8812C79.4633 30.0236 79.8094 30.2832 79.9258 29.6323C79.9947 29.2518 80.1711 28.8989 80.4342 28.6155C80.8354 28.1637 80.317 27.8428 79.9258 28.1683Z" fill="#191919"/>
<path d="M80.7344 31.0658C80.8726 30.9338 81.0516 30.8528 81.242 30.836C81.5629 30.7947 81.5422 30.5206 81.2014 30.4593C81.0549 30.4327 80.9038 30.4625 80.7784 30.5428C80.653 30.623 80.5626 30.7478 80.5253 30.8919C80.4694 31.0504 80.595 31.1967 80.7344 31.0658Z" fill="#191919"/>
<path d="M89.2326 130.223C87.2349 131.15 85.1595 131.9 83.0303 132.464C81.8917 132.775 81.8106 133.989 82.9637 134.249C83.9806 134.467 92.8414 134.249 93.902 134.193C94.7151 134.157 95.4778 133.943 95.6248 133.034C95.7785 132.118 95.598 131.178 95.1164 130.385C94.9288 130.142 94.3744 130.232 94.4402 130.563C94.634 131.62 95.4877 133.221 93.3989 133.32C91.7518 133.397 84.5296 133.594 83.3351 133.385C85.2815 132.806 87.9906 131.926 89.5512 130.789C89.604 130.737 89.6384 130.669 89.6488 130.596C89.6593 130.523 89.6452 130.448 89.609 130.383C89.5727 130.319 89.5161 130.268 89.4481 130.239C89.38 130.21 89.3043 130.204 89.2326 130.223Z" fill="#191919"/>
<path d="M128.679 116.195C130.339 117.037 130.762 116.611 129.451 119.834C128.406 122.427 126.997 124.859 125.268 127.056C125.202 125.023 125.498 122.33 125.446 120.256C125.446 119.9 124.856 119.839 124.811 120.21C124.541 122.345 124.47 124.81 124.363 127.011C124.292 128.465 125.212 128.566 126.168 127.295C128.151 124.701 129.725 121.818 130.834 118.747C131.103 117.981 131.341 117.181 130.834 116.46C130.37 115.884 129.72 115.488 128.996 115.341C128.887 115.316 128.774 115.332 128.676 115.385C128.578 115.438 128.503 115.525 128.464 115.629C128.425 115.734 128.426 115.848 128.465 115.952C128.505 116.056 128.581 116.143 128.679 116.195Z" fill="#191919"/>
<path d="M78.0759 29.3881C78.8416 32.2749 82.0576 38.847 85.9536 37.4442C86.1346 38.3021 86.5399 39.0966 87.1282 39.7467C87.276 39.8531 87.5708 39.7008 87.4735 39.5078C87.0966 38.7541 86.7739 37.9744 86.508 37.1747C87.0474 36.8015 87.5075 36.3252 87.8617 35.7732C88.2159 35.2212 88.4571 34.6045 88.5716 33.9587C88.5968 33.6432 88.165 33.6279 88.0631 33.8821C87.5141 35.2037 86.5639 36.8959 84.9321 36.8914C81.5117 36.8914 78.7061 29.9126 78.2704 27.2035C77.432 27.0504 75.7642 26.5481 75.2612 25.8214C75.2296 25.7689 75.2161 25.7076 75.2227 25.6467C75.2294 25.5858 75.2558 25.5288 75.2979 25.4843C75.34 25.4398 75.3955 25.4104 75.456 25.4005C75.5164 25.3906 75.5784 25.4007 75.6325 25.4294C78.4657 27.0558 82.0109 26.4462 84.9237 25.2877C85.4321 27.2189 86.9061 28.1898 87.1504 27.7725C88.4613 25.5006 90.5402 27.8084 89.1267 29.3383C88.6183 29.8468 88.5578 29.9884 88.6443 30.477C88.9697 32.3576 91.5004 36.5047 92.6796 37.5568C104.096 34.0398 112.129 44.1947 116.695 60.4692C118.81 59.5749 122.561 57.6437 123.043 48.9774C123.526 40.311 116.918 36.6494 113.864 36.2711C110.81 35.8929 110.169 35.3056 110.169 31.2595C110.169 27.2135 105.385 25.3222 101.151 25.5458C96.2111 25.8099 94.5434 22.3298 93.3343 19.1413C92.2256 16.204 87.2354 15.9498 84.9482 17.7799C82.661 19.6099 80.4642 19.4109 76.9626 18.649C73.7604 17.9422 70.99 22.2723 72.0528 25.6422C72.4531 26.8771 73.2773 27.9306 74.3796 28.6162C75.482 29.3017 76.7913 29.5752 78.0759 29.3881Z" fill="#191919"/>
<path d="M116.679 73.2788C108.979 78.0308 97.0903 78.0921 92.0175 77.1311C89.898 82.91 87.5044 97.2533 87.0572 102.392C86.61 107.531 88.2157 122.809 89.048 129.228C91.2262 129.701 93.4816 129.691 95.6554 129.198C95.4471 127.53 96.5038 108.141 96.8905 106.087C97.2412 104.221 100.072 97.6546 102.273 93.0955C102.202 91.3947 101.912 89.7102 101.409 88.0839C101.381 88.0199 101.379 87.9473 101.404 87.8818C101.428 87.8164 101.478 87.7635 101.542 87.7347C103.168 87.0111 103.816 102.335 106.781 106.747C107.767 108.211 120.581 117.127 124.331 119.505C125.638 118.539 127.772 116.613 128.16 114.493C126.594 113.385 116.185 102.651 115.992 102.077C115.799 101.502 118.422 84.7232 116.679 73.2788Z" fill="#191919"/>
<path d="M148.801 135.321C102.552 135.258 50.8662 135.087 4.33676 135.448C4.26838 135.445 4.20017 135.456 4.13621 135.481C4.07226 135.505 4.01387 135.542 3.96455 135.59C3.91524 135.637 3.87601 135.694 3.84921 135.757C3.82241 135.82 3.80859 135.888 3.80859 135.956C3.80859 136.024 3.82241 136.092 3.84921 136.155C3.87601 136.218 3.91524 136.275 3.96455 136.322C4.01387 136.37 4.07226 136.407 4.13621 136.431C4.20017 136.456 4.26838 136.467 4.33676 136.464C51.2597 136.557 102.315 136.551 148.796 136.352C148.865 136.355 148.934 136.344 148.999 136.32C149.064 136.295 149.124 136.258 149.174 136.21C149.224 136.162 149.264 136.105 149.292 136.041C149.319 135.977 149.334 135.909 149.334 135.839C149.334 135.77 149.321 135.701 149.294 135.637C149.267 135.573 149.228 135.515 149.178 135.467C149.128 135.418 149.069 135.38 149.004 135.355C148.94 135.33 148.87 135.319 148.801 135.321Z" fill="#191919"/>
</svg>
