<svg width="154" height="155" viewBox="0 0 154 155" fill="none" xmlns="http://www.w3.org/2000/svg">
<path d="M134.207 26.6741L126.41 26.7714C124.754 35.2494 123.195 43.8247 119.492 51.6202C114.035 52.0113 107.991 50.4517 102.536 49.8667C96.5916 49.1843 90.7452 48.6974 84.8006 48.3071C83.2418 52.8877 81.9751 57.5649 80.5137 62.242C89.0551 65.2751 98.0521 66.8258 107.116 66.8272C111.637 66.9453 116.161 66.7819 120.661 66.3388C123.882 66.0037 126.703 64.6826 128.36 61.759C134.011 51.8158 137.715 37.8809 134.207 26.6741Z" fill="white"/>
<path d="M80.3978 62.5632C80.3151 62.5331 80.2472 62.4724 80.2079 62.3937C80.1687 62.3149 80.1612 62.2241 80.1869 62.14C81.6315 57.5195 82.9165 52.781 84.4807 48.1974C84.5049 48.1264 84.5518 48.0654 84.6142 48.0238C84.6765 47.9822 84.7509 47.9624 84.8257 47.9674C109.034 49.5546 112.429 51.7168 119.271 51.2943C122.885 43.6053 124.45 35.0162 126.078 26.707C126.101 26.6237 126.155 26.5521 126.228 26.5066C126.301 26.4611 126.389 26.445 126.474 26.4616C126.559 26.4782 126.634 26.5262 126.685 26.5961C126.736 26.6659 126.758 26.7524 126.748 26.8381C125.095 35.2838 123.507 43.9688 119.802 51.7682C119.776 51.8226 119.736 51.8691 119.686 51.903C119.636 51.937 119.578 51.9571 119.518 51.9614C112.118 52.4889 111.141 50.3911 85.042 48.6644C83.5667 53.0348 82.3154 57.5985 80.9391 62.0296C91.4543 65.7276 103.215 67.5095 120.634 65.9944C124.194 65.5627 126.629 64.1205 128.065 61.5864C133.279 52.4207 137.542 38.4628 133.883 26.776C133.86 26.6907 133.871 26.6 133.914 26.5226C133.956 26.4453 134.027 26.3872 134.111 26.3604C134.195 26.3341 134.286 26.3416 134.365 26.3812C134.444 26.4208 134.505 26.4895 134.534 26.5728C138.258 38.4681 133.941 52.6338 128.658 61.9238C127.13 64.6212 124.454 66.2175 120.705 66.673C102.3 68.2747 90.4529 66.1462 80.3978 62.5632Z" fill="#4B1010"/>
<path d="M91.8162 70.6225C91.5448 77.9289 91.4129 85.9184 89.6693 93.0353C89.5224 93.6543 89.3861 94.2757 89.2606 94.8993L71.1531 95.0404C69.4772 95.2035 67.7856 95.0184 66.1846 94.4968C68.9105 82.6948 72.9983 71.2495 78.3659 60.391C78.5444 59.7468 78.9462 59.1872 79.4996 58.8122C80.053 58.4373 80.7217 58.2715 81.3861 58.3446C83.533 58.1498 90.3372 56.8877 91.521 59.1243C92.195 60.3948 91.728 63.2157 91.8132 64.6787C91.9297 66.6262 91.8921 68.5753 91.8162 70.6225Z" fill="white"/>
<path d="M77.2972 42.4606C73.6935 39.7325 66.4807 42.1692 62.4852 43.143C36.3597 49.6159 16.3031 71.1201 9.94141 94.897L67.9421 95.0826C70.5728 80.3679 78.7464 67.3416 90.2545 57.8577C90.9446 57.2864 91.0335 56.8839 91.716 56.2989C87.0418 51.8164 82.4613 46.3595 77.2972 42.4613V42.4606Z" fill="white"/>
<path d="M67.6068 95.0218C70.2634 80.2224 78.2455 66.9074 90.0464 57.5899C90.597 57.116 90.7365 56.7771 91.2219 56.2926C86.6451 51.8676 82.1259 46.5318 77.0922 42.7326C73.6549 40.1325 66.4973 42.5164 62.5661 43.474C36.4077 49.9577 16.348 71.6567 10.1519 94.8225C10.1286 94.9099 10.0714 94.9845 9.99303 95.0298C9.91466 95.0751 9.82151 95.0874 9.73407 95.064C9.64663 95.0406 9.57206 94.9834 9.52676 94.9051C9.48147 94.8267 9.46916 94.7335 9.49255 94.6461C15.76 71.2273 36.0113 49.3504 62.4036 42.8139C66.7365 41.7565 73.7737 39.3681 77.5032 42.1905C82.691 46.1063 87.2892 51.5816 91.9556 56.0533C91.9899 56.0864 92.0169 56.1263 92.035 56.1704C92.053 56.2145 92.0618 56.2618 92.0607 56.3094C92.0592 56.3571 92.0479 56.404 92.0273 56.447C92.0067 56.4901 91.9773 56.5283 91.9411 56.5594C91.3208 57.0915 91.1743 57.5262 90.4796 58.1182C78.8049 67.3337 70.9076 80.5043 68.2784 95.1437C68.2668 95.2104 68.2355 95.2721 68.1886 95.321C68.1417 95.3698 68.0813 95.4035 68.0151 95.4178C67.9489 95.4322 67.88 95.4264 67.8171 95.4014C67.7541 95.3763 67.7001 95.333 67.662 95.2771C67.6364 95.2403 67.6184 95.1988 67.609 95.155C67.5995 95.1112 67.5987 95.0659 67.6068 95.0218Z" fill="#4B1010"/>
<path d="M75.2706 48.1941C75.231 51.4615 74.9637 54.7222 74.4709 57.9525C73.6911 64.2866 73.001 69.2521 71.7343 75.5877C71.0519 78.8035 68.077 89.344 67.4927 90.9028L66.0635 94.8278L68.0616 94.8638C68.0616 94.8638 69.6963 88.065 70.378 86.0186C74.054 75.213 80.6913 65.6572 89.5337 58.4402C87.1539 58.3566 84.8159 57.7908 82.6613 56.7771C78.3675 54.7973 75.2706 48.1941 75.2706 48.1941Z" fill="#4B1010"/>
<path d="M105.362 30.8658C105.817 30.5976 106.151 30.165 106.296 29.6573C106.441 29.1496 106.386 28.6056 106.141 28.1377C105.252 26.8035 103.276 25.4295 101.952 26.0912L102.536 37.8823C102.819 38.0525 103.135 38.16 103.463 38.1976C103.791 38.2352 104.123 38.202 104.437 38.1002C104.751 37.9985 105.04 37.8305 105.283 37.6078C105.527 37.385 105.72 37.1126 105.849 36.8089C105.901 36.549 105.873 36.2795 105.768 36.036C105.664 35.7924 105.488 35.5863 105.264 35.4448C105.831 35.3484 106.349 35.0664 106.738 34.643C107.126 34.2196 107.363 33.679 107.411 33.1062C107.433 32.5384 107.23 31.9849 106.846 31.5656C106.463 31.1462 105.93 30.8948 105.362 30.8658Z" fill="#FFE55D"/>
<path d="M103.745 38.5333C103.262 38.5372 102.787 38.4157 102.365 38.1806C102.326 38.1584 102.292 38.1287 102.264 38.0932C102.237 38.0578 102.217 38.0173 102.205 37.974C102.193 37.9308 102.19 37.8856 102.196 37.8412C102.201 37.7967 102.216 37.7538 102.238 37.7148C102.26 37.6759 102.29 37.6418 102.325 37.6143C102.361 37.5869 102.401 37.5667 102.445 37.5549C102.488 37.5431 102.533 37.54 102.578 37.5457C102.622 37.5513 102.665 37.5657 102.704 37.5879C103.001 37.7445 103.329 37.8326 103.664 37.8458C103.999 37.8591 104.333 37.7972 104.641 37.6646C105.408 37.3579 105.945 36.2515 105.087 35.737C105.042 35.7102 105.004 35.6734 104.976 35.6296C104.947 35.5857 104.929 35.5359 104.923 35.484C104.917 35.4321 104.923 35.3795 104.941 35.3303C104.959 35.2811 104.987 35.2366 105.025 35.2003C105.075 35.1518 105.138 35.1197 105.206 35.1083C105.699 35.0261 106.149 34.7814 106.487 34.4133C106.824 34.0452 107.028 33.5748 107.067 33.0772C107.08 32.6001 106.906 32.1366 106.582 31.7865C106.258 31.4363 105.809 31.2275 105.332 31.2048C105.26 31.1988 105.192 31.1701 105.138 31.1229C105.083 31.0757 105.045 31.0124 105.028 30.9421C105.012 30.8718 105.018 30.7981 105.046 30.7316C105.075 30.6652 105.123 30.6093 105.185 30.5722C105.567 30.3486 105.848 29.9863 105.969 29.5607C106.09 29.1351 106.042 28.6792 105.835 28.288C105.079 27.1625 103.242 25.8237 102.103 26.3949C102.062 26.4151 102.019 26.4271 101.974 26.4303C101.929 26.4335 101.884 26.4278 101.841 26.4135C101.798 26.3993 101.759 26.3768 101.725 26.3473C101.691 26.3178 101.663 26.2819 101.643 26.2416C101.623 26.2013 101.61 26.1575 101.607 26.1126C101.604 26.0676 101.61 26.0225 101.624 25.9798C101.638 25.9371 101.661 25.8976 101.69 25.8636C101.72 25.8296 101.756 25.8017 101.796 25.7815C103.317 25.0202 105.443 26.4755 106.423 27.9438C106.653 28.3793 106.745 28.8741 106.688 29.3632C106.631 29.8522 106.427 30.3125 106.104 30.6834C108.506 31.5866 108.12 34.7295 105.921 35.609C106.712 36.7698 105.703 38.5333 103.745 38.5333Z" fill="#4B1010"/>
<path d="M92.2063 57.8554C88.608 58.8522 85.2994 57.6408 82.1696 55.9079C79.9842 54.7116 78.2162 52.8765 77.1021 50.648C76.5077 49.379 75.9865 48.0769 75.541 46.7483C74.527 46.815 73.5194 46.5456 72.6739 45.9819C71.8284 45.4182 71.1922 44.5916 70.8639 43.6299C70.1815 41.6809 70.1814 39.2449 70.0841 37.1985C68.8097 26.1573 74.0712 19.6936 82.0699 17.8074C93.6777 15.0678 102.925 22.6433 102.925 30.1827C103.203 35.2346 102.909 40.3018 102.049 45.2877C100.833 52.4568 96.619 56.6286 92.2063 57.8554Z" fill="white"/>
<path d="M103.608 31.6439C103.399 24.9731 99.3355 19.4664 92.6939 17.8063C86.3598 16.052 78.9537 16.8326 74.4713 21.9966C73.9627 22.5722 73.5062 23.1919 73.1073 23.8483C73.0709 23.9295 73.0607 24.0201 73.0781 24.1073C73.0956 24.1946 73.1398 24.2743 73.2047 24.3352C73.2663 24.3318 73.3259 24.3119 73.3773 24.2777C73.4287 24.2434 73.4699 24.196 73.4968 24.1405C76.9073 18.3898 84.2144 17.0526 90.4512 18.1245C93.4793 18.531 96.3238 19.8098 98.6377 21.8049C100.783 23.9645 102.153 26.7727 102.536 29.7922C102.925 32.8332 102.925 35.9115 102.536 38.9525C102.448 41.8061 102.088 44.6449 101.462 47.4305C100.838 50.1622 99.4529 52.6611 97.4669 54.6379C90.455 61.6651 77.9738 57.0915 75.8338 46.745C75.8338 46.3509 75.3692 46.6085 75.1668 46.5993C74.1902 46.5624 73.2483 46.228 72.4672 45.6407C71.6861 45.0535 71.1031 44.2416 70.7963 43.3138C70.1108 41.4529 70.2243 38.2379 72.2968 37.8216C72.3808 37.7997 72.4533 37.7467 72.4996 37.6733C72.5458 37.5999 72.5624 37.5116 72.5459 37.4264C72.5294 37.3412 72.481 37.2656 72.4107 37.2148C72.3404 37.164 72.2533 37.1419 72.1673 37.153C69.614 37.672 69.3149 41.2566 70.1561 43.54C70.5274 44.6222 71.2246 45.5631 72.1519 46.2333C73.0793 46.9035 74.1913 47.2703 75.3355 47.2832C75.9967 50.071 77.4413 52.6116 79.4989 54.6054C81.5566 56.5992 84.1414 57.963 86.9486 58.536C89.9679 59.0699 93.0787 58.5223 95.7342 56.9895C98.3897 55.4567 100.42 53.0369 101.468 50.1555C102.544 47.3873 103.137 44.4548 103.221 41.4858C103.592 38.2195 103.722 34.9301 103.608 31.6439Z" fill="#4B1010"/>
<path d="M92.3688 47.0018C92.319 46.9566 92.2836 46.8978 92.267 46.8326C92.2504 46.7675 92.2532 46.6989 92.2752 46.6353C92.2899 46.593 92.3128 46.5541 92.3427 46.5208C92.3726 46.4875 92.4088 46.4605 92.4493 46.4413C92.5101 46.4125 92.5782 46.4021 92.6448 46.4117C92.7115 46.4212 92.7739 46.4502 92.8242 46.495C93.2445 46.8736 93.7643 47.124 94.3223 47.2167C94.8803 47.3094 95.4532 47.2404 95.9733 47.0179C96.3459 46.8646 96.1979 46.6928 96.1611 46.5295C95.5799 43.9149 93.8018 41.6499 94.2074 38.7087C94.2184 38.6436 94.2481 38.5831 94.2928 38.5346C94.3376 38.4861 94.3955 38.4517 94.4595 38.4356C94.5236 38.4195 94.5909 38.4224 94.6533 38.4439C94.7157 38.4654 94.7704 38.5047 94.8109 38.5569C94.8653 38.6259 94.8914 38.714 94.883 38.8022C94.5095 41.5088 96.2148 43.6803 96.819 46.3417C96.8765 46.4697 96.9049 46.6077 96.9026 46.748C96.9012 46.8879 96.8692 47.0257 96.8088 47.1518C96.7484 47.278 96.661 47.3893 96.5529 47.478C96.4448 47.5669 96.3191 47.6313 96.1834 47.6666C95.5495 47.9266 94.8551 48.0021 94.1802 47.8845C93.5052 47.7669 92.8773 47.4609 92.3688 47.0018Z" fill="#4B1010"/>
<path d="M81.9745 35.0548C82.1944 34.4597 82.534 33.9161 82.9724 33.4574C83.4107 32.9988 83.9385 32.6349 84.523 32.3884C85.1075 32.1418 85.7364 32.0177 86.3708 32.0239C87.0052 32.03 87.6316 32.1663 88.2113 32.4241C89.8498 33.1985 90.3842 35.8116 87.5289 34.8601C86.7795 34.4693 85.9133 34.3657 85.0929 34.5687C84.1115 34.8371 83.3386 35.7372 82.3641 36.0294C82.0666 36.1781 81.5214 35.9696 81.9745 35.0556V35.0548Z" fill="#FFE55D"/>
<path d="M89.8893 34.0813C89.795 33.6594 89.6078 33.2638 89.3415 32.9232C89.0752 32.5826 88.7364 32.3056 88.3497 32.1123C86.0104 31.0082 82.5653 32.0816 81.6575 34.927C81.0226 36.2497 82.0884 36.5495 82.4626 36.3555C83.4877 36.0488 84.3542 35.1287 85.1761 34.8986C85.9342 34.7173 86.7323 34.8185 87.4212 35.1831C89.2698 35.8118 89.9921 35.0482 89.8893 34.0813ZM87.6819 34.5544C86.8566 34.1226 85.9009 34.0109 84.9982 34.2408C84.0237 34.5091 83.2278 35.397 82.2326 35.7298C82.0179 35.6738 82.2924 35.1823 82.3407 35.0397C82.5586 34.5075 82.8808 34.0242 83.2882 33.6183C83.6956 33.2123 84.18 32.8919 84.713 32.6758C85.2463 32.4603 85.8174 32.3535 86.3925 32.362C86.9677 32.3704 87.5354 32.4938 88.0622 32.7249C88.3434 32.8678 88.5913 33.0685 88.7895 33.3138C88.9877 33.5592 89.1318 33.8438 89.2123 34.1488C89.3166 35.1425 88.0238 34.6625 87.6819 34.5551V34.5544Z" fill="#4B1010"/>
<path d="M99.028 32.0334C98.3695 31.993 97.7137 32.1469 97.1419 32.4761C96.5702 32.8053 96.1078 33.2953 95.8123 33.8851C95.6321 34.2455 95.7609 34.5675 96.3965 34.5675C97.1763 34.5675 97.9561 34.1773 98.7359 34.1773C100.841 34.1773 100.842 36.029 101.952 36.029C102.731 36.029 102.439 34.8597 102.341 34.3728C101.577 32.9988 100.58 32.0334 99.028 32.0334Z" fill="#FFE55D"/>
<path d="M101.952 36.3703C100.972 36.3703 100.708 35.4701 100.277 35.1266C99.0566 33.9136 97.6373 34.9089 96.3975 34.9089C95.4698 34.9089 95.229 34.2893 95.5073 33.7335C95.833 33.0832 96.3427 32.5432 96.9729 32.1804C97.6032 31.8176 98.3262 31.6482 99.052 31.6931C99.7346 31.7099 100.4 31.9079 100.981 32.267C101.562 32.6261 102.037 33.1333 102.357 33.7365C102.969 34.6789 103.101 36.3703 101.952 36.3703ZM101.185 35.132C101.451 35.487 101.618 35.6879 101.952 35.6879C102.306 35.6879 102.085 34.5999 101.913 34.3077C101.005 32.798 100.036 32.3709 99.0282 32.3709C98.4329 32.3314 97.8392 32.468 97.321 32.7638C96.8029 33.0596 96.3833 33.5013 96.1146 34.034C96.0517 34.1598 96.0141 34.2226 96.3945 34.2226C97.5814 34.2265 99.519 32.9061 101.185 35.132Z" fill="#4B1010"/>
<path d="M88.1157 58.3444C82.1565 57.8406 77.2823 53.5231 75.3501 48.1121C76.0798 48.0124 76.7642 47.7008 77.3185 47.2159C77.8728 46.7309 78.2727 46.094 78.4685 45.384C78.8388 43.954 78.9707 42.4719 78.858 40.999C90.4543 45.5788 101.66 43.0454 103.123 40.9016C103.51 49.6717 99.4045 59.2982 88.1157 58.3444Z" fill="#FFE55D"/>
<path d="M90.5156 49.5239C86.4687 49.1474 81.8782 48.3807 78.5382 45.5468C78.4693 45.4882 78.4264 45.4047 78.4191 45.3145C78.4118 45.2244 78.4405 45.135 78.4991 45.066C78.5577 44.9971 78.6412 44.9543 78.7314 44.9469C78.8215 44.9396 78.9109 44.9684 78.9799 45.0269C82.1749 47.7374 86.6374 48.4773 90.5815 48.8446C94.0794 49.2034 98.1478 49.3813 101.831 47.9881C101.915 47.9561 102.009 47.959 102.091 47.9962C102.174 48.0333 102.238 48.1017 102.27 48.1863C102.302 48.2709 102.299 48.3648 102.262 48.4472C102.225 48.5297 102.157 48.594 102.072 48.6261C98.407 50.0131 94.413 49.9242 90.5156 49.5239Z" fill="white"/>
<path d="M83.8768 53.8781C81.0761 52.5435 78.7471 50.3894 77.1984 47.7011C77.1756 47.6626 77.1606 47.6199 77.1543 47.5755C77.148 47.5312 77.1505 47.486 77.1616 47.4426C77.1727 47.3992 77.1923 47.3584 77.2192 47.3226C77.2461 47.2868 77.2798 47.2566 77.3184 47.2338C77.3569 47.211 77.3996 47.196 77.444 47.1897C77.4883 47.1834 77.5335 47.1859 77.5769 47.197C77.6203 47.2081 77.6611 47.2277 77.6969 47.2546C77.7327 47.2815 77.7629 47.3152 77.7857 47.3538C79.2649 49.9224 81.4892 51.9812 84.1643 53.2578C88.1269 55.098 93.3921 56.1047 97.5617 54.8005C97.6045 54.7871 97.6495 54.7823 97.6941 54.7864C97.7388 54.7904 97.7822 54.8032 97.8219 54.8241C97.8616 54.8449 97.8968 54.8733 97.9255 54.9078C97.9542 54.9422 97.9758 54.9819 97.9892 55.0247C98.0025 55.0675 98.0073 55.1125 98.0032 55.1572C97.9992 55.2018 97.9864 55.2452 97.9656 55.2849C97.9447 55.3246 97.9163 55.3598 97.8819 55.3885C97.8474 55.4172 97.8077 55.4388 97.7649 55.4522C93.4059 56.8155 87.998 55.7919 83.8768 53.8781Z" fill="white"/>
<path d="M103.461 40.887C103.459 40.8334 103.444 40.781 103.418 40.7342C103.392 40.6873 103.355 40.6473 103.311 40.6174C103.266 40.5875 103.215 40.5686 103.162 40.5621C103.109 40.5557 103.055 40.5619 103.004 40.5803C102.937 40.6048 102.879 40.6499 102.839 40.7091C101.622 42.4941 90.9142 45.394 78.982 40.6815C78.8958 40.6488 78.8001 40.6516 78.716 40.6892L75.1122 38.8436C75.0321 38.8058 74.9404 38.8007 74.8565 38.8293C74.7727 38.8579 74.7032 38.918 74.6629 38.9969C74.6226 39.0758 74.6145 39.1673 74.6404 39.252C74.6663 39.3367 74.7241 39.4081 74.8017 39.4509L78.5335 41.3624C78.6048 42.6862 78.4706 44.0131 78.1355 45.2958C77.9567 45.9411 77.5927 46.5198 77.0885 46.9604C76.5843 47.4009 75.962 47.6841 75.2986 47.7747C75.2482 47.7814 75.1999 47.7992 75.1573 47.8269C75.1147 47.8546 75.0789 47.8915 75.0524 47.9349C75.0259 47.9783 75.0095 48.0271 75.0043 48.0776C74.9992 48.1282 75.0054 48.1793 75.0225 48.2271C77.1556 54.1985 82.8012 58.7316 89.4106 58.7316C99.2487 58.7316 103.887 50.4706 103.461 40.8863V40.887ZM98.2796 54.7008C93.8615 59.013 85.9978 59.3603 80.4434 54.7728C78.4016 53.0474 76.811 50.8505 75.8092 48.372C76.5201 48.1984 77.1718 47.8381 77.6968 47.3283C78.2219 46.8185 78.6012 46.1777 78.7957 45.4722C79.1354 44.1794 79.2795 42.8422 79.2235 41.5066C89.8714 45.5381 99.961 43.7715 102.803 41.6814C102.884 47.0839 101.254 51.7979 98.2796 54.7008Z" fill="#4B1010"/>
<path d="M106.629 21.8029C106.294 21.3589 105.869 20.9905 105.382 20.7217C104.895 20.453 104.357 20.29 103.803 20.2433C106.658 16.7285 102.542 11.4004 98.0522 13.3242C98.1932 12.6817 98.1688 12.014 97.981 11.3836C97.7932 10.7533 97.4483 10.181 96.9787 9.72044C96.0726 8.80725 94.974 8.10806 93.763 7.67399C92.0973 6.87452 90.2371 6.57008 88.4034 6.79683C87.4947 6.92154 86.639 7.29789 85.933 7.88335C85.2269 8.46881 84.6986 9.24005 84.4079 10.1099C82.8463 9.23623 81.0739 8.81041 79.2858 8.87941C77.4977 8.94841 75.7634 9.50953 74.2737 10.501C72.2273 11.9616 70.67 14.7871 72.0325 16.9309C70.8693 16.5691 69.6101 16.6841 68.5317 17.2507C67.4533 17.8173 66.6442 18.7891 66.2823 19.9523C65.9204 21.1155 66.0355 22.3748 66.6021 23.4532C67.1687 24.5316 68.1405 25.3407 69.3037 25.7026C67.3546 25.2141 64.0415 26.8711 64.7239 29.3063C64.791 29.5578 64.9079 29.7932 65.0676 29.9987C65.2273 30.2042 65.4266 30.3756 65.6537 30.5027C65.8809 30.6299 66.1312 30.7101 66.3899 30.7388C66.6486 30.7674 66.9104 30.7439 67.1599 30.6696H67.2036C66.507 31.1061 65.8976 31.6682 65.4063 32.3273C65.1549 32.7059 65.0291 33.154 65.0466 33.6081C65.064 34.0622 65.224 34.4994 65.5037 34.8575C65.6249 34.9969 65.7746 35.1086 65.9426 35.1851C66.1106 35.2616 66.2932 35.3013 66.4778 35.3013C66.6625 35.3013 66.845 35.2616 67.013 35.1851C67.1811 35.1086 67.3308 34.9969 67.452 34.8575C67.5501 34.7602 67.6475 34.5662 67.7449 34.468C67.258 35.5415 66.5487 36.6149 66.8677 37.8785C67.5869 40.7201 69.398 38.8531 70.5703 38.0733C71.1308 37.6921 71.7929 37.4882 72.4707 37.4882C73.1485 37.4882 73.8107 37.6921 74.3711 38.0733C75.2483 38.8531 74.858 39.5347 75.2483 40.4119C76.3217 42.1662 78.464 41.289 78.3667 39.1452C78.2913 38.1685 77.8363 37.2602 77.0992 36.6149C78.6588 37.2973 80.5105 35.6412 80.4123 33.9834C80.2731 33.1554 79.8791 32.3913 79.2853 31.7976C78.6915 31.2039 77.9273 30.8102 77.0992 30.6711C79.2461 30.2808 79.6295 28.3325 79.6295 26.3827C80.0137 27.0319 80.6216 27.5187 81.339 27.7519C82.0565 27.985 82.8344 27.9486 83.5269 27.6493C84.2018 27.3485 84.8037 26.9054 85.2915 26.3504C85.7793 25.7954 86.1414 25.1415 86.3531 24.4336C86.6178 25.2224 87.1139 25.9132 87.7768 26.4161C88.4397 26.9189 89.2386 27.2105 90.0695 27.2529C90.9004 27.2947 91.7246 27.0854 92.4348 26.6521C93.145 26.2189 93.7083 25.5818 94.0513 24.8239C94.0607 25.5165 94.3078 26.1848 94.7513 26.717C95.1948 27.2491 95.8076 27.6126 96.4872 27.7467C97.1353 27.8413 97.7969 27.7549 98.3989 27.497C99.0009 27.2391 99.5199 26.8197 99.8985 26.2853C100.094 27.0334 100.5 27.7098 101.068 28.2344C101.351 28.5291 101.722 28.7258 102.125 28.7959C102.528 28.8659 102.943 28.8057 103.309 28.6239C103.664 28.3819 103.921 28.0212 104.034 27.6067C104.148 27.1921 104.109 26.7508 103.926 26.362C106.374 27.6854 108.818 24.2312 106.629 21.8021V21.8029Z" fill="#FFE55D"/>
<path d="M76.7007 41.6922C76.3399 41.6762 75.9896 41.5663 75.6843 41.3733C75.379 41.1804 75.1294 40.911 74.9602 40.5919C74.5078 39.5952 74.9135 39.0124 74.1467 38.3308C73.6438 37.9981 73.0531 37.8231 72.4502 37.8281C71.8472 37.8332 71.2595 38.0181 70.7623 38.3592C69.8997 38.9342 68.7963 40.0269 67.752 39.6627C67.1992 39.4725 66.8035 38.9189 66.5421 37.9681C66.3836 37.1613 66.4912 36.3248 66.8488 35.5843C65.1428 36.0168 64.0954 33.7786 65.1167 32.1424C65.4121 31.7339 65.7555 31.3624 66.1395 31.036C64.3561 30.6725 63.551 28.3316 65.1535 26.6847C65.8851 25.9785 66.8141 25.5114 67.8172 25.3451C66.9559 24.7522 66.3096 23.8965 65.9751 22.9058C65.6405 21.9152 65.6355 20.8428 65.9609 19.8491C66.307 18.7209 67.0474 17.7549 68.047 17.1276C69.0465 16.5003 70.2384 16.2535 71.4048 16.4325C70.6128 14.2856 72.0282 11.6863 74.0746 10.2218C75.5602 9.22768 77.2844 8.64863 79.0688 8.54456C80.8532 8.44049 82.6331 8.81518 84.2241 9.62986C84.5844 8.79349 85.1526 8.06319 85.8748 7.50839C86.5969 6.95358 87.449 6.59272 88.35 6.46012C90.2503 6.24788 92.1725 6.56082 93.9074 7.36488C95.1553 7.81328 96.2869 8.53562 97.2189 9.47881C97.6575 9.90937 97.997 10.4303 98.2137 11.0054C98.4305 11.5805 98.5194 12.1959 98.4741 12.8088C102.828 11.4931 106.701 16.2592 104.397 19.9902C105.392 20.2153 106.276 20.7831 106.895 21.5942C108.4 23.2642 108.045 26.2836 105.636 26.8848C105.235 26.9877 104.814 26.9948 104.41 26.9055C104.467 27.2935 104.411 27.6898 104.247 28.0464C104.084 28.403 103.821 28.7045 103.489 28.9144C103.057 29.1373 102.565 29.215 102.085 29.136C101.605 29.057 101.164 28.8255 100.826 28.4758C100.376 28.0478 100.016 27.5353 99.7653 26.9676C99.1536 27.6566 98.2942 28.0757 97.3746 28.1336C96.4551 28.1915 95.5499 27.8834 94.8566 27.2766C94.3974 26.8752 94.0514 26.3605 93.8529 25.7837C93.4119 26.3845 92.8273 26.8651 92.1526 27.1817C91.478 27.4984 90.7347 27.6409 89.9908 27.5963C89.247 27.5517 88.5262 27.3217 87.894 26.9271C87.2619 26.5326 86.7386 25.9861 86.3717 25.3375C85.1097 27.9598 81.966 29.2387 79.9357 27.3203C79.8321 28.5985 79.4503 29.9663 78.2051 30.648C78.867 30.9407 79.4457 31.3935 79.889 31.9656C80.3323 32.5377 80.6263 33.2111 80.7446 33.9251C80.7661 34.7036 80.4957 35.4621 79.9865 36.0514C79.4773 36.6408 78.7661 37.0184 77.9927 37.1101C79.5201 39.3107 78.4083 41.6922 76.7007 41.6922ZM72.4737 37.1477C73.2183 37.1507 73.9453 37.3749 74.5623 37.7918C75.6066 38.7119 75.1994 39.4602 75.5629 40.2761C75.6909 40.5404 75.9059 40.7527 76.1718 40.8773C76.4378 41.002 76.7385 41.0315 77.0235 40.9608C78.3485 40.5559 78.4129 38.2158 76.8771 36.8709C76.8166 36.8169 76.7772 36.7432 76.766 36.6628C76.7549 36.5825 76.7726 36.5008 76.8161 36.4324C76.8596 36.3639 76.926 36.3131 77.0035 36.2891C77.0809 36.2651 77.1644 36.2694 77.239 36.3012C78.5532 36.8786 80.158 35.4126 80.076 34.001C79.9455 33.2484 79.5835 32.5554 79.0405 32.0183C78.4975 31.4812 77.8005 31.1268 77.0465 31.0045C76.9679 30.9905 76.8967 30.9494 76.8452 30.8883C76.7937 30.8272 76.7652 30.7501 76.7647 30.6702C76.7641 30.5903 76.7916 30.5128 76.8422 30.451C76.8929 30.3893 76.9635 30.3472 77.0419 30.3321C78.6007 30.0492 79.2954 28.83 79.2954 26.3803C79.2961 26.3054 79.3213 26.2329 79.3672 26.1737C79.4131 26.1146 79.4772 26.0722 79.5495 26.0529C79.6218 26.0337 79.6985 26.0387 79.7677 26.0672C79.8369 26.0958 79.8948 26.1462 79.9326 26.2108C80.2762 26.7887 80.8189 27.2213 81.4589 27.4274C82.0988 27.6335 82.792 27.599 83.4083 27.3303C84.0332 27.0472 84.5905 26.634 85.043 26.1183C85.4955 25.6027 85.8327 24.9964 86.0321 24.3399C86.0517 24.2688 86.0938 24.2059 86.1522 24.1608C86.2106 24.1157 86.2821 24.0908 86.3559 24.0898C86.4297 24.0889 86.5018 24.1119 86.5614 24.1555C86.6209 24.1991 86.6647 24.2609 86.6861 24.3315C86.9288 25.0566 87.3851 25.6914 87.9949 26.1526C88.6047 26.6139 89.3397 26.88 90.1035 26.9162C90.8671 26.9526 91.6239 26.7579 92.2751 26.3573C92.9262 25.9568 93.4414 25.3691 93.7532 24.6712C93.7881 24.603 93.8448 24.5486 93.9144 24.5165C93.9839 24.4844 94.0621 24.4766 94.1366 24.4943C94.2111 24.5119 94.2775 24.5541 94.3252 24.614C94.3728 24.6738 94.3991 24.748 94.3996 24.8245C94.4066 25.4399 94.6261 26.0338 95.0211 26.5058C95.416 26.9777 95.962 27.2985 96.5664 27.4138C97.1505 27.4972 97.7463 27.4172 98.2876 27.1826C98.829 26.9481 99.2948 26.5682 99.6334 26.0851C99.6717 26.0327 99.724 25.9923 99.7844 25.9686C99.8447 25.9449 99.9106 25.9389 99.9742 25.9513C100.038 25.9637 100.097 25.994 100.144 26.0386C100.191 26.0832 100.224 26.1403 100.24 26.2031C100.42 26.8913 100.795 27.513 101.32 27.9935C101.553 28.2375 101.858 28.4008 102.19 28.4595C102.522 28.5183 102.865 28.4694 103.167 28.3201C103.442 28.132 103.639 27.8504 103.721 27.5279C103.803 27.2054 103.765 26.864 103.614 26.5673C103.555 26.5266 103.51 26.4685 103.486 26.401C103.462 26.3333 103.46 26.2598 103.479 26.1909C103.556 25.9187 103.959 25.9079 104.12 26.0736C106.238 27.1853 108.272 24.1337 106.379 22.0313C106.073 21.6195 105.683 21.2775 105.235 21.028C104.786 20.7786 104.29 20.6274 103.778 20.5844C103.716 20.5795 103.657 20.5576 103.607 20.5211C103.556 20.4846 103.517 20.4348 103.493 20.3774C103.469 20.3203 103.46 20.2576 103.469 20.1961C103.478 20.1345 103.503 20.0766 103.542 20.0285C106.169 16.7974 102.372 11.8511 98.192 13.6392C98.134 13.6637 98.0704 13.6718 98.0082 13.6626C97.946 13.6533 97.8875 13.627 97.8392 13.5867C97.791 13.5464 97.7548 13.4935 97.7346 13.4339C97.7145 13.3743 97.7111 13.3103 97.725 13.2489C97.8562 12.6628 97.835 12.0528 97.6633 11.4772C97.4916 10.9016 97.1752 10.3796 96.7443 9.9611C95.8768 9.08432 94.8234 8.41353 93.662 7.99822C92.0357 7.23911 90.2322 6.941 88.4481 7.13639C87.6067 7.26028 86.8155 7.61343 86.1615 8.15712C85.5074 8.70082 85.0157 9.41408 84.7401 10.2187C84.7159 10.2898 84.669 10.3509 84.6067 10.3928C84.5443 10.4346 84.47 10.4548 84.3951 10.4503C84.3454 10.4473 84.297 10.4334 84.2532 10.4096C82.7467 9.56281 81.0353 9.149 79.3083 9.21395C77.5813 9.2789 75.9059 9.82008 74.4672 10.7777C72.4637 12.2092 71.1088 14.8353 72.3203 16.7438C72.3577 16.8029 72.3761 16.8722 72.3728 16.9421C72.3696 17.012 72.3449 17.0793 72.3021 17.1347C72.2593 17.1901 72.2005 17.231 72.1337 17.2519C72.0668 17.2728 71.9952 17.2726 71.9285 17.2513C70.8557 16.9311 69.6998 17.0469 68.7119 17.5737C67.7239 18.1006 66.9837 18.9958 66.6518 20.0651C66.3199 21.1344 66.4233 22.2914 66.9393 23.285C67.4554 24.2786 68.3426 25.0285 69.4082 25.372C69.491 25.4001 69.5599 25.459 69.6006 25.5365C69.6412 25.614 69.6506 25.7042 69.6266 25.7883C69.6027 25.8725 69.5474 25.9443 69.472 25.9888C69.3967 26.0333 69.3071 26.0472 69.2219 26.0276C67.41 25.5752 64.468 27.1278 65.0523 29.2103C65.1094 29.4278 65.2119 29.6306 65.3532 29.8055C65.4945 29.9803 65.6713 30.1232 65.8719 30.2247C66.0725 30.3261 66.2924 30.3839 66.5169 30.3941C66.7415 30.4042 66.9657 30.3667 67.1747 30.2838C67.2456 30.2404 67.33 30.2245 67.4119 30.239C67.4939 30.2535 67.5676 30.2974 67.6195 30.3625C67.6713 30.4276 67.6975 30.5093 67.6932 30.5924C67.689 30.6755 67.6545 30.7541 67.5964 30.8136C66.8594 31.2637 66.2099 31.8435 65.6795 32.525C65.4744 32.8469 65.3734 33.2242 65.3901 33.6055C65.4068 33.9869 65.5405 34.3538 65.773 34.6565C65.8502 34.7472 65.9455 34.8207 66.0527 34.8724C66.1599 34.9242 66.2767 34.953 66.3956 34.9571C67.0926 34.9855 67.3311 34.3982 67.4998 34.2295C67.5566 34.1735 67.6311 34.1392 67.7105 34.1324C67.79 34.1256 67.8693 34.1468 67.9347 34.1923C68.0002 34.2377 68.0477 34.3046 68.0691 34.3814C68.0905 34.4582 68.0844 34.5401 68.0518 34.6128C67.5711 35.6756 66.9324 36.6624 67.1969 37.8056C67.6845 39.5745 68.4068 39.2425 69.8468 38.1752C70.5714 37.5297 71.5034 37.1652 72.4737 37.1477Z" fill="#4B1010"/>
<path d="M92.3043 38.4649C93.1806 38.4649 94.935 38.0754 95.4219 39.05C95.7324 39.6703 95.6603 39.4801 96.0069 44.8006C95.9928 44.9289 96.0043 45.0588 96.0408 45.1826C96.0772 45.3065 96.1379 45.4219 96.2193 45.5221C96.3007 45.6225 96.4015 45.7054 96.5158 45.7659C96.63 45.8264 96.7553 45.8631 96.884 45.874C99.1038 46.2681 101.369 46.3341 103.608 46.0688C103.908 46.0504 104.204 45.9844 104.485 45.874C104.882 45.5747 105.186 45.1694 105.362 44.7047C106.074 42.9992 106.501 41.1888 106.629 39.3452C106.645 39.0494 106.612 38.753 106.531 38.468C106.361 38.2779 106.164 38.1138 105.946 37.9811C102.438 36.5197 98.1507 36.4192 94.3499 36.2268C90.4131 36.0473 86.4682 36.2105 82.5596 36.7144C82.0757 36.7011 81.5953 36.7996 81.1557 37.0025C80.7162 37.2053 80.3294 37.5069 80.0255 37.8837C79.702 38.4792 79.5662 39.1587 79.636 39.8328C79.636 42.074 79.7342 45.8702 82.657 46.2643C84.7977 46.5389 86.9684 46.4729 89.0885 46.0688C90.5453 45.7046 90.2386 45.6087 91.6188 39.053C91.6227 38.9685 91.6438 38.8856 91.6807 38.8094C91.7176 38.7333 91.7696 38.6654 91.8335 38.6099C91.8979 38.5548 91.9729 38.5135 92.0538 38.4886C92.1348 38.4637 92.22 38.4556 92.3043 38.4649Z" fill="white"/>
<path d="M106.772 38.2264C106.573 38.0033 106.338 37.8143 106.078 37.6667C102.551 36.1969 98.2139 36.0773 94.3679 35.8856C90.4252 35.7052 86.4743 35.8681 82.5599 36.3725C82.0138 36.3609 81.4725 36.4778 80.9798 36.7136C80.487 36.9495 80.0565 37.2978 79.723 37.7304C79.4476 38.2516 79.293 38.8281 79.2706 39.4172L78.3658 39.4939C78.2773 39.4996 78.1945 39.5397 78.135 39.6056C78.0756 39.6714 78.0442 39.7579 78.0476 39.8466C78.0508 39.9351 78.0882 40.019 78.152 40.0805C78.2158 40.142 78.301 40.1763 78.3896 40.1763C78.4141 40.1763 79.2736 40.105 79.2974 40.1027C79.3028 42.2373 79.4347 46.183 82.6136 46.6062C84.7973 46.8899 87.0117 46.8225 89.1739 46.4046C90.7841 46.0021 90.702 45.2238 91.3791 41.9268C91.9994 38.9043 91.9557 38.9641 92.0331 38.8989C92.1098 38.8836 92.7232 38.7969 92.9578 38.7793C93.7491 38.7195 94.834 38.639 95.12 39.2102C95.3938 39.7584 95.3232 39.5169 95.6667 44.7883C95.5678 45.4285 95.9389 46.0496 97.0707 46.2397C99.2293 46.627 101.434 46.6859 103.61 46.4146C104.08 46.4113 104.536 46.2552 104.91 45.9699C105.283 45.6845 105.554 45.2854 105.68 44.8328C106.427 43.0944 106.863 41.2391 106.971 39.3505C106.978 39.0699 106.964 38.4158 106.772 38.2264ZM105.046 44.5751C104.964 44.906 104.773 45.1996 104.504 45.4083C104.235 45.6171 103.903 45.7288 103.562 45.7253C101.42 45.9902 99.2504 45.9315 97.1259 45.5512C96.1966 45.3979 96.4204 45.8916 96.0562 40.3143C96.0641 39.8212 95.9512 39.3337 95.7273 38.8943C95.2366 37.9136 93.8871 38.0148 92.9041 38.0892C92.6005 38.087 92.2977 38.1199 92.0017 38.1873C91.4412 38.3721 91.2802 38.6765 91.2886 38.9771C89.8962 45.5918 90.2029 45.4316 89.0275 45.7276C86.9427 46.1289 84.8071 46.1939 82.7018 45.92C80.3011 45.5995 79.9768 42.6598 79.9737 39.7783C79.9109 39.1932 80.0241 38.6027 80.2988 38.0823C80.5762 37.7439 80.9283 37.4743 81.3274 37.2947C81.7265 37.1151 82.1617 37.0304 82.599 37.0472C86.7932 36.5065 91.0288 36.3591 95.2504 36.6071C98.7146 36.7765 102.641 36.9674 105.793 38.2801C105.954 38.3798 106.101 38.5025 106.229 38.6428C106.278 38.8652 106.297 39.0936 106.287 39.3214C106.16 41.1283 105.741 42.9026 105.046 44.5751Z" fill="#4B1010"/>
<path d="M88.2436 38.5548C88.1582 38.3682 88.0214 38.2097 87.8493 38.098C87.6771 37.9862 87.4768 37.9257 87.2715 37.9236C87.0663 37.9215 86.8647 37.9779 86.6904 38.0862C86.516 38.1944 86.376 38.35 86.2868 38.5349C85.5485 39.6919 86.0407 41.7276 87.243 41.7276C88.4222 41.7276 88.9643 39.7325 88.2436 38.5548Z" fill="#4B1010"/>
<path d="M100.354 38.6213C100.267 38.4358 100.13 38.2786 99.958 38.1678C99.7859 38.0571 99.586 37.9974 99.3813 37.9957C99.1766 37.9936 98.9756 38.0496 98.8013 38.157C98.6271 38.2645 98.4869 38.4191 98.3968 38.6029C97.6585 39.7592 98.1499 41.7957 99.3537 41.7957C100.542 41.7957 101.074 39.7937 100.354 38.6213Z" fill="#4B1010"/>
<path d="M89.0459 94.8233C91.2306 82.9314 92.0137 70.8244 91.3791 58.7501C91.3819 58.6643 91.417 58.5826 91.4772 58.5215C91.5375 58.4603 91.6186 58.424 91.7043 58.4198C91.7901 58.4157 91.8743 58.444 91.9402 58.499C92.0061 58.5541 92.0488 58.632 92.06 58.7171C92.6971 70.8448 91.9105 83.0054 89.716 94.9498C89.702 95.0145 89.6695 95.0738 89.6223 95.1202C89.5751 95.1666 89.5154 95.1983 89.4504 95.2112C89.3855 95.2242 89.3182 95.2179 89.2568 95.1931C89.1955 95.1683 89.1426 95.1261 89.1049 95.0718C89.0537 94.9997 89.0326 94.9107 89.0459 94.8233Z" fill="#4B1010"/>
<path d="M75.3874 47.8506C75.2976 47.8488 75.2105 47.8814 75.1439 47.9417C75.0773 48.002 75.0363 48.0854 75.0293 48.175C74.2774 62.9722 71.5222 77.5991 66.8389 91.6558C66.3313 84.9153 64.8944 78.358 64.7764 72.9601C64.7787 72.7631 64.8239 72.5683 64.9082 72.3897C64.9987 72.3161 65.103 72.2609 65.2149 72.2294C65.333 72.2294 65.2149 72.2087 66.4494 71.9465C68.0596 71.6038 70.0692 71.1797 70.5208 69.8985C70.6486 69.2986 70.6123 68.6754 70.4158 68.0943L66.2194 52.9741C65.928 52.1912 65.8831 51.338 66.0906 50.5289C66.6112 49.6617 66.3896 49.9554 71.6748 45.3487C71.7393 45.2883 71.7779 45.2051 71.7823 45.1168C71.7867 45.0285 71.7567 44.9419 71.6985 44.8753C71.6404 44.8087 71.5586 44.7673 71.4705 44.7598C71.3824 44.7523 71.2949 44.7792 71.2262 44.835C65.8168 49.5498 66.0837 49.2055 65.4756 50.246C65.1948 51.2069 65.2273 52.2322 65.5684 53.1734L69.7702 68.3129C69.9235 68.7683 69.9557 69.256 69.863 69.7283C69.5563 70.5901 67.6011 71.0049 66.3068 71.2802C65.0294 71.5508 64.6966 71.6321 64.3899 71.9404C63.2597 73.0544 65.7793 84.916 66.2401 92.8603C66.2426 92.9052 66.254 92.949 66.2738 92.9893C66.2935 93.0296 66.3212 93.0656 66.3551 93.095C66.1948 93.555 66.0331 94.0166 65.8697 94.4805C65.8546 94.5227 65.848 94.5674 65.8502 94.6122C65.8524 94.6569 65.8634 94.7008 65.8825 94.7413C65.9017 94.7818 65.9286 94.8182 65.9618 94.8483C65.995 94.8784 66.0338 94.9017 66.076 94.9168C66.1182 94.9319 66.1629 94.9385 66.2077 94.9363C66.2524 94.9341 66.2963 94.9231 66.3368 94.904C66.3774 94.8848 66.4137 94.8579 66.4438 94.8247C66.4739 94.7915 66.4972 94.7527 66.5123 94.7105C71.8135 79.7374 74.9128 64.0739 75.7133 48.2102C75.7155 48.1652 75.7089 48.1202 75.6937 48.0777C75.6786 48.0353 75.6552 47.9962 75.6249 47.9628C75.5947 47.9294 75.5581 47.9023 75.5173 47.8831C75.4766 47.8638 75.4324 47.8528 75.3874 47.8506Z" fill="#4B1010"/>
<path d="M142.785 95.2285H4.30995C4.21959 95.2281 4.13303 95.1921 4.06913 95.1282C4.00523 95.0643 3.96915 94.9777 3.96875 94.8873C3.96915 94.797 4.00523 94.7104 4.06913 94.6465C4.13303 94.5826 4.21959 94.5465 4.30995 94.5461H142.785C142.875 94.5461 142.962 94.5822 143.026 94.6458C143.09 94.7101 143.126 94.7969 143.126 94.8873C143.126 94.9778 143.09 95.0646 143.026 95.1289C142.962 95.1926 142.875 95.2284 142.785 95.2285Z" fill="#4B1010"/>
<path d="M129.042 89.332V70.6233H120.761V89.332C116.911 90.3389 113.56 92.7137 111.334 96.0122C109.109 99.3108 108.161 103.307 108.668 107.254C109.047 110.2 110.22 112.987 112.062 115.317C113.904 117.647 116.345 119.432 119.124 120.48C121.903 121.529 124.915 121.801 127.837 121.268C130.759 120.735 133.481 119.417 135.711 117.456C137.941 115.494 139.596 112.962 140.497 110.132C141.398 107.302 141.512 104.28 140.826 101.39C140.141 98.4999 138.682 95.8509 136.606 93.7267C134.53 91.6026 131.915 90.0834 129.042 89.332Z" fill="white"/>
<path d="M124.891 121.891C112.059 121.891 103.958 107.791 110.458 96.6998C112.644 92.9414 116.227 90.199 120.426 89.0699V70.6227C120.425 70.5779 120.434 70.5335 120.451 70.4921C120.468 70.4507 120.493 70.4132 120.525 70.3819C120.59 70.3184 120.677 70.2827 120.767 70.2822H129.048C129.093 70.2819 129.137 70.2905 129.179 70.3075C129.22 70.3245 129.258 70.3496 129.29 70.3812C129.321 70.4129 129.346 70.4505 129.364 70.492C129.381 70.5334 129.389 70.5778 129.389 70.6227V89.0691C132.214 89.835 134.785 91.3381 136.838 93.4244C138.89 95.5107 140.352 98.1053 141.072 100.942C141.712 103.415 141.778 106.002 141.265 108.504C140.752 111.006 139.673 113.358 138.112 115.38C136.55 117.401 134.547 119.039 132.256 120.167C129.964 121.296 127.445 121.885 124.891 121.891ZM121.105 70.9669V89.3359C121.105 89.4115 121.079 89.4849 121.033 89.5446C120.987 89.6044 120.922 89.6472 120.849 89.6664C117.08 90.6528 113.8 92.9783 111.621 96.2081C109.442 99.4379 108.515 103.351 109.012 107.215C109.51 111.079 111.397 114.629 114.323 117.202C117.248 119.775 121.01 121.194 124.906 121.194C128.802 121.194 132.565 119.775 135.49 117.202C138.415 114.629 140.303 111.079 140.8 107.215C141.298 103.351 140.37 99.4379 138.192 96.2081C136.013 92.9783 132.732 90.6528 128.964 89.6664C128.89 89.6479 128.825 89.6053 128.778 89.5454C128.732 89.4855 128.706 89.4118 128.707 89.3359V70.9669H121.105Z" fill="#4B1010"/>
<path d="M135.892 101.302C135.871 101.244 135.836 101.193 135.789 101.154C133.859 99.5436 128.651 98.3697 125.568 98.0561C120.597 97.5501 116.65 98.3 113.837 100.259C113.788 100.293 113.748 100.34 113.723 100.395C110.012 108.349 115.946 117.625 124.548 117.625C126.5 117.622 128.423 117.148 130.152 116.242C131.881 115.336 133.366 114.026 134.48 112.423C135.594 110.821 136.304 108.972 136.55 107.036C136.796 105.099 136.57 103.132 135.892 101.302Z" fill="#4B1010"/>
<path d="M124.9 72.7664C127.806 72.7664 130.162 71.7627 130.162 70.5251C130.162 69.2876 127.806 68.2839 124.9 68.2839C121.994 68.2839 119.638 69.2876 119.638 70.5251C119.638 71.7627 121.994 72.7664 124.9 72.7664Z" fill="#FFE55D"/>
<path d="M124.9 73.1077C121.705 73.1077 119.297 71.9974 119.297 70.5253C119.297 69.0531 121.705 67.9429 124.9 67.9429C128.094 67.9429 130.503 69.0531 130.503 70.5253C130.503 71.9974 128.094 73.1077 124.9 73.1077ZM124.9 68.6253C122 68.6253 119.979 69.6266 119.979 70.5253C119.979 71.4239 122 72.4253 124.9 72.4253C127.799 72.4253 129.821 71.4239 129.821 70.5253C129.821 69.6266 127.799 68.6253 124.9 68.6253Z" fill="#4B1010"/>
<path d="M128.665 70.5251C128.665 70.052 127.233 69.3911 124.9 69.3911C122.568 69.3911 121.134 70.052 121.134 70.5251C121.134 70.9982 122.567 71.6592 124.9 71.6592C127.233 71.6592 128.665 70.999 128.665 70.5251Z" fill="#4B1010"/>
<path d="M87.14 99.6621C89.3367 99.748 91.5066 100.175 93.5715 100.929C95.9147 101.794 97.8377 102.889 99.0284 105.022C99.4118 105.712 100.003 108.14 98.6381 108.237C98.3969 108.204 98.1663 108.117 97.9638 107.982C97.7612 107.847 97.592 107.668 97.4689 107.458C96.6643 106.298 95.4421 105.495 94.0584 105.216C95.5122 105.905 96.6829 107.076 97.3715 108.53C97.6767 109.132 97.7457 109.828 97.5662 110.479C97.4562 110.81 97.2227 111.086 96.9141 111.25C96.6056 111.413 96.246 111.451 95.9101 111.356C95.6073 111.183 95.3422 110.95 95.1303 110.673C94.2531 109.504 93.2786 108.143 91.8172 107.945C92.5231 108.475 93.119 109.137 93.5715 109.894C93.8041 110.268 93.9586 110.685 94.0255 111.12C94.0925 111.554 94.0705 111.998 93.961 112.425C93.83 112.86 93.5551 113.239 93.1812 113.498C92.4996 113.888 91.6224 113.303 91.1347 112.718C90.3785 111.652 89.3758 110.784 88.2119 110.188C86.8749 109.708 85.5076 109.318 84.119 109.019C82.7488 104.983 85.2147 100.666 87.14 99.6621Z" fill="white"/>
<path d="M90.876 112.938C90.1503 111.907 89.1849 111.067 88.0628 110.491C86.7518 110.025 85.4117 109.644 84.0512 109.351C83.9649 109.33 83.8901 109.276 83.8428 109.201C83.7955 109.125 83.7795 109.035 83.7981 108.948C83.8166 108.861 83.8684 108.785 83.9423 108.735C84.0162 108.686 84.1064 108.667 84.1938 108.683C85.5972 108.986 86.9791 109.38 88.3304 109.865C89.5597 110.485 90.6184 111.396 91.4143 112.519C91.7693 112.944 92.5039 113.497 93.0153 113.203C93.3077 112.99 93.5244 112.689 93.634 112.344C93.7306 111.962 93.7496 111.564 93.6898 111.174C93.63 110.784 93.4927 110.41 93.2859 110.074C92.1143 108.2 91.3062 108.319 91.5032 107.819C91.5318 107.749 91.5828 107.69 91.6482 107.652C91.7136 107.613 91.7899 107.598 91.8651 107.607C93.4186 107.814 94.4253 109.16 95.3155 110.347C95.5034 110.633 95.7572 110.869 96.0554 111.037C96.2994 111.094 96.556 111.059 96.7756 110.938C96.9951 110.817 97.1617 110.619 97.2431 110.382C97.4035 109.813 97.3418 109.204 97.0706 108.679C96.4226 107.29 95.3069 106.172 93.9185 105.522C93.8427 105.487 93.7826 105.425 93.7498 105.348C93.7169 105.271 93.7137 105.184 93.7406 105.105C93.7673 105.026 93.8221 104.959 93.8946 104.918C93.967 104.876 94.0522 104.863 94.134 104.88C95.6044 105.178 96.9027 106.033 97.7576 107.266C98.0712 107.683 98.3641 107.893 98.6424 107.893C99.4859 107.829 99.1263 105.87 98.736 105.188C97.5537 103.02 95.4995 102.012 93.4562 101.245C91.4235 100.508 89.2895 100.087 87.1289 99.9993C87.0732 99.9964 87.0189 99.9798 86.971 99.9511C86.9231 99.9224 86.8829 99.8824 86.8539 99.8347C86.825 99.7869 86.8082 99.7328 86.8049 99.677C86.8017 99.6213 86.8121 99.5655 86.8353 99.5147C86.8639 99.4537 86.91 99.4024 86.9678 99.3675C87.0255 99.3326 87.0922 99.3155 87.1596 99.3184C89.3901 99.4089 91.5937 99.8429 93.6923 100.605C95.863 101.419 98.0459 102.497 99.3317 104.855C99.617 105.354 100.13 107.02 99.6285 107.958C99.2451 108.686 98.3112 108.847 97.4977 108.01C97.7393 108.385 97.8998 108.806 97.9689 109.247C98.0379 109.688 98.014 110.138 97.8987 110.569C97.7665 110.989 97.4749 111.341 97.0865 111.549C96.6981 111.756 96.2437 111.804 95.8208 111.681C95.7869 111.67 95.7547 111.656 95.725 111.636C95.3416 111.422 95.0142 111.118 94.7704 110.752C94.4222 110.268 94.0445 109.805 93.6394 109.367C93.9765 109.806 94.2107 110.316 94.3247 110.857C94.4387 111.399 94.4296 111.96 94.298 112.498C94.147 113.012 93.8271 113.46 93.3902 113.769C92.5215 114.269 91.5055 113.698 90.876 112.938Z" fill="#4B1010"/>
<path d="M88.116 99.3694C85.9691 99.1747 75.5451 96.738 72.6215 96.1537C66.6989 94.9874 60.8172 93.6223 54.9863 92.0608C54.8106 92.0614 54.6378 92.0169 54.4842 91.9317C54.3307 91.8465 54.2015 91.7233 54.1091 91.5739C54.011 91.2228 54.011 90.8516 54.1091 90.5005C55.0836 86.1154 56.9353 81.8278 58.2994 77.5424C59.8536 72.4743 61.5106 67.4383 63.2695 62.4375L47.2843 54.8367C43.5231 63.9263 40.5242 73.313 38.3187 82.8997C37.052 88.5514 36.0782 94.4009 36.4677 100.147C36.4374 101.612 36.8817 103.048 37.7344 104.24C38.9037 105.605 40.7554 105.994 42.4116 106.286C49.892 107.568 57.4406 108.412 65.0192 108.817C72.0357 109.304 79.0507 109.987 86.068 110.181C85.0827 108.426 84.748 106.38 85.1226 104.402C85.4972 102.425 86.5571 100.643 88.116 99.3694Z" fill="white"/>
<path d="M86.0679 110.531C82.8292 110.531 72.9304 109.764 71.0113 109.615C61.3326 108.867 55.23 108.802 42.3548 106.625C40.5491 106.306 38.6874 105.878 37.4752 104.465C36.5683 103.211 36.096 101.696 36.1303 100.149C35.7163 94.0484 36.838 87.9673 37.9897 82.8262C40.2012 73.2205 43.2049 63.8146 46.9698 54.7049C47.0077 54.626 47.0743 54.5647 47.1561 54.5336C47.2379 54.5024 47.3285 54.5039 47.4092 54.5377C47.4899 54.5714 47.5545 54.6349 47.5898 54.715C47.625 54.795 47.6282 54.8856 47.5986 54.9679C43.8474 64.0416 40.8548 73.4107 38.6514 82.9788C37.5105 88.0685 36.3987 94.089 36.8112 100.126C36.775 101.525 37.196 102.898 38.0104 104.036C39.0624 105.263 40.7224 105.642 42.4736 105.953C55.0537 108.077 61.0627 108.158 71.0672 108.932C75.7981 109.298 80.6838 109.676 85.4982 109.829C84.6892 108.149 84.4316 106.256 84.762 104.421C85.0925 102.586 85.9942 100.902 87.3384 99.6096C84.1372 99.0989 75.2705 97.0318 72.5586 96.4889C66.6419 95.3232 60.7658 93.9602 54.9402 92.4021C54.7165 92.3951 54.498 92.3331 54.3038 92.2217C54.1097 92.1104 53.9459 91.953 53.8269 91.7634C53.031 90.5696 56.4867 82.1185 57.9758 77.439C59.5311 72.3679 61.1892 67.3288 62.9489 62.3249C62.9791 62.2395 63.0419 62.1697 63.1235 62.1306C63.2052 62.0915 63.299 62.0864 63.3844 62.1163C64.0538 62.3517 63.3246 62.3739 58.6306 77.643C57.2688 81.9207 55.4102 86.2306 54.4472 90.5765C54.3676 90.8555 54.3621 91.1504 54.4311 91.4322C54.494 91.5222 54.578 91.5955 54.6756 91.6457C54.7733 91.696 54.8817 91.7216 54.9916 91.7205C55.4171 91.7205 61.2981 93.5776 72.695 95.8195C75.575 96.3961 86.0656 98.8405 88.1542 99.0307C88.2047 99.0351 88.2535 99.0507 88.2971 99.0764C88.3407 99.1021 88.3781 99.1372 88.4064 99.1791C88.4348 99.2211 88.4534 99.2688 88.461 99.3189C88.4686 99.3689 88.4649 99.42 88.4502 99.4685C88.4305 99.5334 88.3921 99.5909 88.3398 99.6341C86.836 100.852 85.8132 102.564 85.4532 104.466C85.0932 106.367 85.4194 108.335 86.3738 110.018C86.4042 110.071 86.42 110.131 86.4197 110.192C86.4195 110.253 86.4031 110.312 86.3723 110.365C86.3409 110.417 86.2961 110.46 86.2427 110.489C86.1892 110.518 86.1288 110.533 86.0679 110.531Z" fill="#4B1010"/>
<path d="M149.901 125.839L139.172 125.693C138.97 129.161 138.774 130.963 139.078 133.086C139.292 134.455 139.941 135.718 140.929 136.689C141.884 137.505 143.116 137.919 144.37 137.847C145.623 137.774 146.799 137.22 147.653 136.3C149.992 133.671 149.901 129.152 149.901 125.839Z" fill="#FFE55D"/>
<path d="M144.535 128.701C147.495 128.701 149.894 127.348 149.894 125.68C149.894 124.011 147.495 122.659 144.535 122.659C141.575 122.659 139.175 124.011 139.175 125.68C139.175 127.348 141.575 128.701 144.535 128.701Z" fill="white"/>
<path d="M150.235 125.68C150.235 123.795 147.731 122.318 144.534 122.318C141.356 122.318 138.904 123.775 138.834 125.647C138.644 130.763 137.951 134.199 140.708 136.951C141.731 137.823 143.051 138.265 144.393 138.186C145.735 138.108 146.994 137.513 147.907 136.528C150.325 133.808 150.235 129.252 150.235 125.68ZM144.534 122.996C147.255 122.996 149.553 124.223 149.553 125.68C149.553 127.137 147.253 128.363 144.534 128.363C141.816 128.363 139.516 127.137 139.516 125.68C139.516 124.223 141.814 123 144.534 123V122.996ZM147.399 136.07C146.956 136.555 146.411 136.936 145.803 137.186C145.195 137.435 144.54 137.546 143.883 137.511C143.227 137.477 142.587 137.298 142.008 136.987C141.43 136.676 140.927 136.24 140.537 135.711C140.913 135.802 141.294 135.871 141.678 135.916C141.765 135.917 141.849 135.884 141.912 135.825C141.976 135.766 142.015 135.685 142.02 135.598C142.026 135.512 141.999 135.427 141.944 135.359C141.89 135.292 141.812 135.248 141.726 135.237C141.116 135.186 140.519 135.03 139.962 134.776C139.66 134.176 139.466 133.527 139.389 132.86C139.997 133.236 140.699 133.433 141.414 133.427C141.504 133.427 141.591 133.391 141.655 133.327C141.719 133.263 141.755 133.176 141.755 133.086C141.755 132.995 141.719 132.909 141.655 132.844C141.591 132.781 141.504 132.745 141.414 132.745C140.635 132.752 139.881 132.469 139.299 131.951C139.251 131.238 139.242 130.523 139.274 129.809C139.829 130.198 140.458 130.467 141.122 130.602C141.205 130.601 141.285 130.571 141.348 130.516C141.41 130.46 141.451 130.384 141.461 130.302C141.471 130.219 141.45 130.136 141.403 130.067C141.356 129.998 141.285 129.949 141.204 129.929C140.496 129.79 139.843 129.451 139.321 128.952L139.423 127.196C141.452 129.617 147.401 129.664 149.556 127.294C149.537 130.277 149.324 133.909 147.399 136.074V136.07Z" fill="#4B1010"/>
<path d="M15.7108 118.371L25.8449 100.928V88.2607H30.9154L31.0128 101.318C31.1661 101.472 30.8403 101.415 40.7574 119.248C40.9325 119.583 41.0157 119.958 40.9986 120.335C40.9815 120.712 40.8646 121.078 40.66 121.395C39.5866 122.955 36.5671 125.488 28.2839 125.488C19.4165 125.488 16.5902 122.077 15.6157 120.226C15.4399 119.944 15.3548 119.615 15.3718 119.283C15.3888 118.952 15.5071 118.633 15.7108 118.371Z" fill="#FFE55D"/>
<path d="M28.2812 125.826C19.9298 125.826 16.6189 122.866 15.3116 120.382C15.1028 120.051 15.0007 119.665 15.0192 119.274C15.0377 118.883 15.176 118.508 15.4152 118.198L25.504 100.835V88.2599C25.5044 88.1695 25.5405 88.083 25.6044 88.0191C25.6683 87.9552 25.7549 87.9191 25.8452 87.9187H30.9157C30.9604 87.9185 31.0046 87.9271 31.0459 87.944C31.0871 87.9609 31.1247 87.9857 31.1564 88.0171C31.1881 88.0485 31.2133 88.0858 31.2305 88.127C31.2478 88.1681 31.2568 88.2122 31.257 88.2568L31.3528 101.174L41.0575 119.086C41.2617 119.47 41.36 119.902 41.3422 120.337C41.3244 120.772 41.1912 121.194 40.9563 121.561C39.8491 123.169 36.7576 125.826 28.2812 125.826ZM16.0063 118.542C15.8039 118.897 15.5187 119.559 15.8798 120.01C17.135 122.382 20.271 125.147 28.2812 125.147C36.4455 125.147 39.363 122.676 40.3759 121.203C40.5414 120.938 40.6359 120.635 40.6503 120.323C40.6646 120.011 40.5984 119.7 40.4579 119.421C30.4695 101.479 30.6696 101.42 30.6689 101.326L30.5738 88.6019H26.1864C26.1864 101.1 26.2125 100.976 26.1397 101.1L16.0063 118.542Z" fill="#4B1010"/>
<path d="M37.3508 118.013L31.2122 106.709C31.1883 106.666 31.1554 106.628 31.1157 106.599C31.076 106.57 31.0305 106.549 30.9822 106.539C29.0983 106.169 27.1576 106.203 25.2875 106.636C25.0575 106.685 25.1863 106.587 18.9135 117.342C18.7937 117.605 18.7321 117.892 18.7329 118.181C18.7337 118.471 18.7969 118.757 18.9181 119.02C19.872 120.791 22.2535 122.902 28.1835 122.902C33.9717 122.902 36.3026 121.23 37.2266 119.842C37.4242 119.583 37.5413 119.272 37.5633 118.946C37.5854 118.621 37.5115 118.297 37.3508 118.013Z" fill="#4B1010"/>
<path d="M28.1842 90.502C30.8755 90.502 33.0569 89.542 33.0569 88.3582C33.0569 87.1743 30.8755 86.2144 28.1842 86.2144C25.4929 86.2144 23.3115 87.1743 23.3115 88.3582C23.3115 89.542 25.4929 90.502 28.1842 90.502Z" fill="#FFE55D"/>
<path d="M28.1836 90.8423C25.26 90.8423 22.9697 89.7513 22.9697 88.3581C22.9697 86.9649 25.2592 85.873 28.1836 85.873C31.108 85.873 33.3975 86.9641 33.3975 88.3581C33.3975 89.752 31.1072 90.8423 28.1836 90.8423ZM28.1836 86.5555C25.513 86.5555 23.6521 87.5055 23.6521 88.3581C23.6521 89.2107 25.513 90.1607 28.1836 90.1607C30.8542 90.1607 32.7151 89.2107 32.7151 88.3581C32.7151 87.5055 30.8542 86.5555 28.1836 86.5555Z" fill="#4B1010"/>
<path d="M28.1839 87.1851C26.7462 87.1851 25.7456 87.7003 25.7456 88.1627C25.7456 88.625 26.7462 89.141 28.1839 89.141C29.6215 89.141 30.6237 88.625 30.6237 88.1627C30.6237 87.7003 29.6215 87.1851 28.1839 87.1851Z" fill="#4B1010"/>
<path d="M31.3992 130.259L43.0929 109.994V95.2761H49.0367L49.1349 110.478C49.2882 110.631 49.4991 110.286 60.4383 131.333C60.6425 131.711 60.7412 132.136 60.724 132.565C60.7069 132.994 60.5746 133.41 60.3409 133.77C59.1716 135.621 55.6637 138.545 46.0165 138.545C35.7842 138.545 32.3737 134.646 31.3992 132.503C31.2076 132.16 31.1069 131.774 31.1069 131.381C31.1069 130.988 31.2076 130.602 31.3992 130.259Z" fill="#FFE55D"/>
<path d="M46.0159 138.884C35.1043 138.884 31.9422 134.519 31.0888 132.642C30.8743 132.251 30.7631 131.811 30.7657 131.364C30.7682 130.918 30.8844 130.479 31.1034 130.09L42.7518 109.899V95.2765C42.7522 95.1861 42.7883 95.0996 42.8522 95.0357C42.9161 94.9718 43.0027 94.9357 43.093 94.9353H49.0369C49.1268 94.9359 49.2129 94.9717 49.2767 95.0351C49.3405 95.0984 49.3769 95.1843 49.3781 95.2742L49.4747 110.335L60.7421 131.17C60.9744 131.604 61.0857 132.092 61.0646 132.584C61.0434 133.076 60.8904 133.553 60.6217 133.966C59.4654 135.792 56.0189 138.884 46.0159 138.884ZM31.6953 130.43C31.5328 130.72 31.4475 131.048 31.4475 131.381C31.4475 131.714 31.5328 132.041 31.6953 132.332C32.5081 134.116 35.5007 138.201 46.0159 138.201C56.0534 138.201 59.1764 134.973 60.0528 133.586C60.2508 133.274 60.3626 132.915 60.3767 132.546C60.3909 132.176 60.3069 131.81 60.1333 131.484L48.8935 110.72C48.7401 110.566 48.7946 110.713 48.6987 95.6146H43.4342V109.994C43.4342 110.135 43.4327 109.99 31.6953 130.43Z" fill="#4B1010"/>
<path d="M56.4485 129.903L49.3354 116.748C49.3113 116.703 49.2772 116.663 49.2358 116.633C49.1943 116.603 49.1466 116.583 49.0961 116.574C46.9227 116.162 44.6881 116.196 42.5282 116.674C42.2982 116.726 42.5512 116.688 35.1981 129.207C35.0117 129.485 34.9035 129.807 34.8848 130.141C34.866 130.474 34.9374 130.806 35.0915 131.103C36.0238 132.748 38.5587 135.571 45.8198 135.571C52.4729 135.571 55.2087 133.636 56.3174 132.032C56.5424 131.728 56.6745 131.365 56.6977 130.987C56.721 130.609 56.6345 130.233 56.4485 129.903Z" fill="#4B1010"/>
<path d="M45.9129 97.8099C49.0336 97.8099 51.5646 96.7196 51.5646 95.374C51.5646 94.0291 49.0344 92.938 45.9129 92.938C42.7923 92.938 40.2612 94.0291 40.2612 95.374C40.2612 96.7196 42.7915 97.8099 45.9129 97.8099Z" fill="#FFE55D"/>
<path d="M45.9133 98.1508C42.5527 98.1508 39.9204 96.9309 39.9204 95.3736C39.9204 93.8163 42.5527 92.5964 45.9133 92.5964C49.274 92.5964 51.907 93.8163 51.907 95.3736C51.907 96.9309 49.274 98.1508 45.9133 98.1508ZM45.9133 93.2788C42.7842 93.2788 40.6028 94.383 40.6028 95.3736C40.6028 96.3642 42.7842 97.4691 45.9133 97.4691C49.0424 97.4691 51.2246 96.365 51.2246 95.3736C51.2246 94.3822 49.0432 93.2788 45.9133 93.2788Z" fill="#4B1010"/>
<path d="M45.9135 94.0066C44.1891 94.0066 42.9868 94.6246 42.9868 95.179C42.9868 95.7333 44.1891 96.3513 45.9135 96.3513C47.6379 96.3513 48.8402 95.7333 48.8402 95.179C48.8402 94.6246 47.6387 94.0066 45.9135 94.0066Z" fill="#4B1010"/>
<path d="M124.072 69.0637C124.072 69.5506 124.364 70.1372 124.851 70.1372C125.071 70.1138 125.28 70.0279 125.453 69.8898C125.625 69.7516 125.755 69.5669 125.826 69.3574C126.41 67.311 125.728 64.5829 125.436 62.6338C125.046 64.6795 123.877 67.0173 124.072 69.0637Z" fill="#FFE55D"/>
<path d="M124.851 70.4762C124.161 70.4762 123.737 69.7555 123.73 69.0808C123.534 66.9461 124.712 64.606 125.1 62.5688C125.114 62.4889 125.156 62.4167 125.219 62.3652C125.282 62.3138 125.361 62.2863 125.442 62.2879C125.523 62.2895 125.601 62.3199 125.661 62.3738C125.722 62.4277 125.761 62.5014 125.773 62.5818C126.07 64.5562 126.758 67.3356 126.156 69.4496C125.809 70.1511 125.379 70.477 124.851 70.477V70.4762ZM125.366 64.2794C124.906 65.8175 124.27 67.5488 124.411 69.0332V69.0654C124.411 69.4036 124.602 69.7961 124.849 69.7961C125.01 69.7961 125.253 69.7348 125.519 69.2057C125.916 67.7972 125.643 65.901 125.366 64.2794Z" fill="#4B1010"/>
<path d="M124.51 54.5437H125.971V62.0471C125.961 62.2211 125.885 62.3847 125.758 62.5044C125.631 62.624 125.463 62.6907 125.289 62.6907C125.115 62.6907 124.947 62.624 124.82 62.5044C124.694 62.3847 124.617 62.2211 124.607 62.0471L124.51 54.5437Z" fill="#FFE55D"/>
<path d="M125.29 63.0691C125.155 63.0707 125.021 63.0453 124.896 62.9944C124.772 62.9435 124.658 62.8681 124.563 62.7728C124.467 62.6774 124.392 62.564 124.341 62.4391C124.29 62.3142 124.265 62.1804 124.266 62.0455L124.169 54.5467C124.168 54.4787 124.187 54.4117 124.224 54.3548C124.262 54.2979 124.315 54.2536 124.378 54.2278C124.42 54.2103 124.465 54.2011 124.51 54.2009H125.972C126.062 54.2013 126.149 54.2374 126.212 54.3013C126.276 54.3652 126.312 54.4518 126.313 54.5421V62.0455C126.314 62.1803 126.289 62.3139 126.238 62.4387C126.187 62.5635 126.112 62.6769 126.017 62.7724C125.922 62.8679 125.808 62.9434 125.683 62.9943C125.559 63.0453 125.425 63.0707 125.29 63.0691ZM124.856 54.8833L124.949 62.0409C124.946 62.1102 124.964 62.1788 125.001 62.2378C125.037 62.2968 125.09 62.3436 125.154 62.3722C125.206 62.3954 125.265 62.4048 125.322 62.3994C125.38 62.394 125.435 62.374 125.483 62.3413C125.53 62.3086 125.569 62.2643 125.595 62.2126C125.621 62.1608 125.633 62.1033 125.63 62.0455V54.8849L124.856 54.8833Z" fill="#4B1010"/>
<path d="M122.025 25.5051H128.554V52.4947C128.554 52.9298 128.469 53.3607 128.302 53.7628C128.136 54.1649 127.892 54.5302 127.584 54.8379C127.276 55.1456 126.911 55.3896 126.509 55.556C126.107 55.7225 125.676 55.808 125.241 55.8078C124.806 55.8079 124.375 55.7223 123.973 55.5559C123.571 55.3895 123.206 55.1455 122.898 54.8379C122.591 54.5303 122.346 54.1651 122.18 53.7632C122.013 53.3613 121.928 52.9305 121.928 52.4955L122.025 25.5059V25.5051Z" fill="#FFE55D"/>
<path d="M125.241 42.9485C125.525 42.9503 125.797 43.064 125.998 43.2649C126.199 43.4658 126.313 43.7378 126.314 44.0219V51.7216C126.315 51.8627 126.287 52.0023 126.233 52.1327C126.179 52.263 126.1 52.3814 126 52.4811C125.901 52.5808 125.782 52.6599 125.652 52.7138C125.522 52.7677 125.382 52.7953 125.241 52.7951C124.956 52.7949 124.683 52.6817 124.482 52.4804C124.281 52.2792 124.168 52.0063 124.167 51.7216V44.0204C124.17 43.7366 124.284 43.4651 124.485 43.2646C124.685 43.064 124.957 42.9505 125.241 42.9485Z" fill="#FFE55D"/>
<path d="M125.24 53.1309C124.866 53.1307 124.506 52.9818 124.242 52.717C123.977 52.4522 123.828 52.0931 123.827 51.7185V44.0203C123.827 43.7407 123.91 43.4673 124.065 43.2348C124.22 43.0022 124.441 42.8209 124.699 42.7139C124.957 42.6069 125.242 42.579 125.516 42.6337C125.79 42.6885 126.042 42.8233 126.239 43.0213C126.505 43.2858 126.653 43.6454 126.653 44.0203V51.7216C126.652 52.0954 126.502 52.4534 126.237 52.7174C125.973 52.9814 125.614 53.1301 125.24 53.1309ZM125.24 43.2889C125.047 43.2913 124.862 43.3691 124.726 43.5058C124.589 43.6425 124.512 43.8272 124.51 44.0203V51.7216C124.51 51.9154 124.587 52.1012 124.724 52.2383C124.861 52.3753 125.046 52.4523 125.24 52.4523C125.434 52.4523 125.62 52.3753 125.757 52.2383C125.894 52.1012 125.971 51.9154 125.971 51.7216V44.0203C125.968 43.8271 125.891 43.6425 125.754 43.5057C125.618 43.3688 125.433 43.2905 125.24 43.2873V43.2889Z" fill="#4B1010"/>
<path d="M128.553 25.1643H122.025C121.98 25.164 121.935 25.1725 121.894 25.1894C121.853 25.2062 121.815 25.231 121.783 25.2625C121.751 25.2942 121.726 25.3319 121.709 25.3734C121.693 25.4148 121.684 25.4592 121.684 25.504L121.586 52.4974C121.586 53.4666 121.971 54.3961 122.656 55.0814C123.342 55.7667 124.271 56.1517 125.24 56.1517C126.209 56.1517 127.139 55.7667 127.824 55.0814C128.51 54.3961 128.895 53.4666 128.895 52.4974V25.5078C128.894 25.417 128.859 25.3299 128.796 25.2648C128.731 25.2013 128.644 25.1656 128.553 25.1651V25.1643ZM125.24 55.4701C124.651 55.4759 124.073 55.3048 123.582 54.9788C123.091 54.6527 122.709 54.1868 122.486 53.6414C122.338 53.2788 122.264 52.8904 122.268 52.4989L122.334 34.2258C124.273 34.6476 126.281 34.6319 128.212 34.1798V52.4974C128.217 52.889 128.143 53.2776 127.995 53.6403C127.847 54.003 127.628 54.3324 127.351 54.609C127.074 54.886 126.745 55.1049 126.383 55.2527C126.02 55.4006 125.632 55.4745 125.24 55.4701Z" fill="#4B1010"/>
<path d="M126.606 21.5116C122.076 21.0078 117.916 24.6231 119.039 29.0411C117.828 30.4212 118.238 33.1861 120.077 33.5956C120.337 33.6632 120.609 33.6685 120.872 33.6112C121.134 33.5538 121.38 33.4354 121.588 33.2655C121.796 33.0956 121.961 32.879 122.07 32.6332C122.179 32.3875 122.228 32.1196 122.214 31.8512C122.355 31.7132 122.457 31.5422 122.513 31.3536C122.69 30.9549 122.724 30.5079 122.611 30.0869C122.049 27.8357 123.631 26.5323 125.873 25.9342C123.06 28.0474 123.354 31.8382 125.631 33.2045C126.051 33.3992 126.522 33.4569 126.977 33.3696C127.431 33.2822 127.847 33.0541 128.165 32.7176C128.185 32.7182 128.204 32.7127 128.22 32.702C128.236 32.6913 128.249 32.6759 128.256 32.6578C128.26 32.6458 128.263 32.6331 128.262 32.6203C128.262 32.5229 128.165 32.5229 128.165 32.4255C127.887 31.8756 127.785 31.2536 127.872 30.6436C127.959 30.0337 128.231 29.4652 128.652 29.015C128.361 29.6349 128.236 30.3194 128.287 31.0021C128.338 31.6849 128.565 32.3429 128.945 32.9124C129.653 33.798 131.327 33.9483 131.77 32.621C131.847 32.3987 131.902 32.1686 131.937 31.9363C132.545 31.5262 133.06 30.994 133.451 30.3735C133.842 29.753 134.099 29.058 134.206 28.3326C134.666 24.3432 130.015 21.8996 126.606 21.5116Z" fill="white"/>
<path d="M133.364 24.7889C131.622 22.8752 129.222 21.688 126.644 21.4635C122.099 20.9437 117.581 24.5689 118.63 29.1525C117.186 31.3853 118.51 33.9776 120.47 33.9776C121.717 33.9776 122.533 32.9042 122.458 32.3759C122.692 32.0702 122.849 31.7128 122.916 31.3339C122.982 30.9549 122.957 30.5655 122.842 30.1983C122.774 29.8214 122.744 29.4387 122.752 29.0559C122.857 28.5712 123.082 28.1206 123.407 27.7455C123.731 27.3704 124.145 27.0828 124.609 26.909C123.048 29.026 123.229 32.3245 125.588 33.6104C126.093 33.8378 126.657 33.8974 127.198 33.7803C127.739 33.6633 128.228 33.3758 128.594 32.9602C128.799 33.3038 129.095 33.5848 129.448 33.7732C129.801 33.9615 130.199 34.0499 130.599 34.029C130.961 34.0228 131.312 33.9001 131.599 33.6792C131.887 33.4583 132.095 33.1508 132.195 32.8022C132.24 32.6298 132.276 32.4549 132.302 32.2785C133.205 31.6881 133.895 30.8227 134.269 29.8101C134.642 28.7976 134.68 27.6917 134.377 26.656C134.176 25.9686 133.831 25.332 133.364 24.7889ZM120.15 33.2615C119.105 33.0315 118.302 31.6375 118.924 30.0741C119.397 31.2473 120.39 32.6864 121.653 32.6918C121.488 32.9258 121.257 33.105 120.989 33.2064C120.721 33.3078 120.429 33.3267 120.15 33.2607V33.2615ZM133.581 29.7345C131.556 29.9154 131.817 31.5877 131.544 32.6052C131.487 32.8138 131.365 32.9987 131.195 33.1323C131.025 33.2659 130.817 33.3411 130.6 33.3466C130.359 33.3588 130.118 33.316 129.895 33.2214C129.672 33.1269 129.474 32.983 129.315 32.8007C128.929 32.3029 128.699 31.7028 128.652 31.0751C128.605 30.4474 128.743 29.8196 129.049 29.2698C129.089 29.1948 129.1 29.1077 129.079 29.0254C129.058 28.9431 129.007 28.8714 128.937 28.8243C128.866 28.7773 128.78 28.7584 128.696 28.7715C128.612 28.7845 128.536 28.8286 128.483 28.8949C128.027 29.3937 127.732 30.0181 127.637 30.6869C127.541 31.3556 127.649 32.0377 127.946 32.6443C126.498 33.9554 124.496 32.6228 124.315 30.4345C124.237 29.6725 124.355 28.9031 124.656 28.1988C124.957 27.4946 125.433 26.8787 126.038 26.4091C126.126 26.3769 126.199 26.3121 126.241 26.2281C126.283 26.144 126.29 26.0472 126.263 25.9574C126.234 25.8681 126.173 25.7931 126.091 25.7479C126.008 25.7027 125.912 25.6907 125.821 25.7144L125.725 25.7865C123.995 26.2419 122.294 27.2218 122.077 29.0068C122.064 29.4538 122.1 29.9008 122.181 30.341C122.301 30.8777 122.323 31.8622 121.791 31.9879C120.348 32.3353 117.708 28.0162 120.149 24.8357C120.894 23.8665 121.879 23.1079 123.006 22.6344C124.133 22.1609 125.364 21.9889 126.578 22.1352C128.977 22.3386 131.211 23.437 132.836 25.2122C133.358 25.8288 133.702 26.5749 133.834 27.3714C133.965 28.168 133.879 28.9853 133.584 29.7368L133.581 29.7337V29.7345Z" fill="#4B1010"/>
<path d="M114.031 135.207C113.941 135.207 113.851 135.189 113.767 135.154C113.683 135.12 113.607 135.069 113.543 135.005C113.479 134.941 113.428 134.865 113.393 134.781C113.359 134.697 113.341 134.607 113.341 134.516V126.752C113.341 126.569 113.414 126.393 113.543 126.264C113.673 126.134 113.848 126.062 114.031 126.062C114.214 126.062 114.39 126.134 114.519 126.264C114.649 126.393 114.721 126.569 114.721 126.752V134.516C114.722 134.607 114.704 134.697 114.669 134.781C114.635 134.865 114.584 134.941 114.52 135.005C114.456 135.069 114.38 135.12 114.296 135.154C114.212 135.189 114.122 135.207 114.031 135.207Z" fill="#4B1010"/>
<path d="M125.73 142.89L84.995 148.834L74.9575 141.526V139.225L84.995 146.534L125.728 140.589L125.73 142.89Z" fill="#FFE55D"/>
<path d="M84.9954 149.141C84.842 149.141 84.9594 149.178 74.7777 141.773C74.6006 141.644 74.6519 141.643 74.6519 139.225C74.6516 139.169 74.6671 139.113 74.6965 139.065C74.726 139.016 74.7683 138.977 74.8188 138.951C74.8693 138.925 74.926 138.914 74.9825 138.919C75.039 138.923 75.0931 138.943 75.1388 138.977L85.0744 146.212L125.684 140.286C125.728 140.28 125.772 140.283 125.815 140.295C125.878 140.315 125.934 140.354 125.974 140.408C126.013 140.461 126.034 140.526 126.034 140.593V142.893C126.035 142.967 126.009 143.039 125.961 143.096C125.913 143.152 125.845 143.189 125.772 143.199L84.9954 149.141ZM75.2646 141.369L85.0744 148.512L125.421 142.624V140.944L85.0399 146.838C84.8436 146.863 84.9885 146.908 75.2646 139.828V141.369Z" fill="#4B1010"/>
<path d="M125.728 140.589L114.034 133.963L74.9575 139.225L84.995 146.534L125.728 140.589Z" fill="#FFE55D"/>
<path d="M84.9954 146.841C84.8421 146.841 84.9579 146.88 74.7777 139.473C74.7282 139.437 74.6905 139.387 74.6697 139.329C74.6488 139.272 74.6457 139.209 74.6607 139.15C74.6757 139.09 74.7082 139.037 74.7539 138.996C74.7997 138.955 74.8566 138.929 74.9173 138.921C114.14 133.622 114.041 133.614 114.186 133.696L125.879 140.323C125.921 140.346 125.956 140.379 125.982 140.419C126.009 140.459 126.026 140.504 126.032 140.551C126.038 140.599 126.032 140.647 126.017 140.692C126.001 140.737 125.975 140.778 125.941 140.811C125.894 140.855 125.835 140.884 125.772 140.893L84.9954 146.841ZM75.7561 139.427L85.0744 146.212L124.798 140.415L113.973 134.281L75.7569 139.427H75.7561Z" fill="#4B1010"/>
<path d="M92.8789 129.54V139.331C92.898 139.941 93.1537 140.519 93.5918 140.944C94.03 141.368 94.6162 141.606 95.2263 141.606C95.8365 141.606 96.4227 141.368 96.8608 140.944C97.2989 140.519 97.5546 139.941 97.5737 139.331V128.817L92.8789 129.54Z" fill="white"/>
<path d="M95.2265 141.985C94.5228 141.984 93.8481 141.704 93.3505 141.207C92.8529 140.709 92.5732 140.035 92.5728 139.331V129.54C92.5718 129.466 92.5975 129.395 92.6453 129.338C92.6931 129.282 92.7597 129.245 92.8327 129.234L97.5267 128.511C97.5704 128.504 97.6151 128.506 97.6576 128.519C97.7001 128.531 97.7395 128.552 97.7729 128.581C97.8067 128.61 97.8339 128.645 97.8524 128.685C97.871 128.725 97.8805 128.769 97.8802 128.813V139.327C97.8802 140.031 97.6008 140.707 97.1032 141.205C96.6056 141.703 95.9307 141.984 95.2265 141.985ZM93.1862 129.803V139.331C93.1862 139.872 93.4011 140.391 93.7838 140.774C94.1664 141.156 94.6854 141.371 95.2265 141.371C95.7676 141.371 96.2866 141.156 96.6692 140.774C97.0519 140.391 97.2668 139.872 97.2668 139.331V129.175L93.1862 129.803Z" fill="#4B1010"/>
<path d="M102.712 128.448V138.238C102.712 138.703 102.85 139.156 103.108 139.542C103.365 139.929 103.732 140.229 104.161 140.407C104.59 140.585 105.062 140.631 105.517 140.54C105.972 140.45 106.391 140.226 106.719 139.898C106.937 139.68 107.11 139.421 107.228 139.136C107.346 138.852 107.406 138.546 107.406 138.238V127.725L102.712 128.448Z" fill="white"/>
<path d="M105.06 140.895C104.356 140.894 103.682 140.614 103.184 140.117C102.686 139.619 102.407 138.945 102.406 138.241V128.448C102.406 128.375 102.432 128.304 102.48 128.248C102.528 128.193 102.594 128.156 102.666 128.145L107.36 127.422C107.404 127.415 107.449 127.418 107.492 127.43C107.535 127.443 107.574 127.464 107.608 127.493C107.642 127.523 107.669 127.559 107.687 127.599C107.705 127.64 107.714 127.684 107.714 127.729V138.242C107.712 138.946 107.432 139.619 106.934 140.116C106.437 140.613 105.763 140.893 105.06 140.895ZM103.02 128.714V138.241C103.019 138.509 103.072 138.774 103.175 139.022C103.277 139.27 103.427 139.495 103.617 139.684C103.806 139.874 104.031 140.024 104.279 140.126C104.527 140.229 104.792 140.281 105.06 140.281C105.601 140.281 106.12 140.066 106.502 139.683C106.885 139.301 107.1 138.782 107.1 138.241V128.083L103.02 128.714Z" fill="#4B1010"/>
<path d="M105.06 126.802C104.944 126.802 104.829 126.825 104.722 126.869C104.615 126.913 104.518 126.978 104.436 127.06C104.354 127.142 104.289 127.239 104.245 127.346C104.201 127.453 104.178 127.568 104.178 127.684V138.063C104.178 138.297 104.271 138.521 104.436 138.686C104.602 138.852 104.826 138.944 105.06 138.944C105.294 138.944 105.518 138.852 105.683 138.686C105.849 138.521 105.942 138.297 105.942 138.063V127.684C105.942 127.568 105.919 127.453 105.875 127.346C105.831 127.239 105.765 127.142 105.683 127.061C105.602 126.979 105.504 126.914 105.397 126.869C105.29 126.825 105.176 126.802 105.06 126.802Z" fill="#FFE55D"/>
<path d="M105.061 139.251C104.745 139.251 104.443 139.126 104.22 138.903C103.997 138.68 103.872 138.378 103.872 138.063V127.684C103.872 127.449 103.941 127.219 104.072 127.023C104.202 126.828 104.388 126.676 104.606 126.586C104.823 126.496 105.062 126.472 105.293 126.518C105.523 126.564 105.735 126.677 105.901 126.844C106.124 127.067 106.249 127.369 106.249 127.684V138.063C106.249 138.219 106.218 138.374 106.159 138.518C106.099 138.662 106.011 138.793 105.901 138.903C105.791 139.014 105.66 139.101 105.515 139.161C105.371 139.221 105.217 139.251 105.061 139.251ZM105.061 127.109C104.985 127.109 104.91 127.124 104.841 127.153C104.771 127.182 104.707 127.224 104.654 127.278C104.601 127.331 104.558 127.394 104.529 127.464C104.5 127.534 104.485 127.609 104.485 127.684V138.063C104.485 138.216 104.546 138.362 104.654 138.469C104.707 138.523 104.771 138.565 104.84 138.594C104.91 138.624 104.985 138.638 105.061 138.638C105.136 138.638 105.211 138.624 105.281 138.594C105.35 138.565 105.414 138.523 105.467 138.469C105.52 138.416 105.563 138.353 105.592 138.283C105.621 138.213 105.636 138.138 105.636 138.063V127.684C105.636 127.609 105.621 127.534 105.592 127.464C105.563 127.394 105.521 127.331 105.467 127.277C105.414 127.224 105.351 127.182 105.281 127.153C105.211 127.124 105.136 127.109 105.061 127.109Z" fill="#4B1010"/>
<path d="M112.545 126.754V137.146C112.554 137.604 112.697 138.05 112.957 138.428C113.216 138.807 113.581 139.101 114.005 139.274C114.43 139.448 114.896 139.493 115.346 139.405C115.796 139.317 116.21 139.099 116.538 138.778C116.977 138.347 117.229 137.761 117.24 137.146V126.086L112.545 126.754Z" fill="white"/>
<path d="M114.893 139.8C114.189 139.799 113.514 139.519 113.017 139.022C112.519 138.524 112.239 137.85 112.239 137.146V126.754C112.238 126.68 112.264 126.608 112.312 126.551C112.361 126.495 112.428 126.458 112.502 126.447L117.196 125.78C117.262 125.77 117.329 125.783 117.387 125.815C117.445 125.847 117.492 125.897 117.519 125.958C117.537 125.998 117.546 126.042 117.545 126.086V137.146C117.545 137.849 117.265 138.524 116.768 139.021C116.27 139.519 115.596 139.799 114.893 139.8ZM112.851 127.02V137.146C112.862 137.68 113.081 138.189 113.463 138.564C113.845 138.938 114.358 139.147 114.892 139.147C115.427 139.147 115.94 138.938 116.321 138.564C116.703 138.189 116.922 137.68 116.933 137.146V126.44L112.851 127.02Z" fill="#4B1010"/>
<path d="M114.893 125.406C114.578 125.406 114.276 125.531 114.053 125.754C113.83 125.977 113.705 126.279 113.705 126.594V136.973C113.705 137.289 113.83 137.591 114.053 137.814C114.276 138.037 114.578 138.162 114.893 138.162C115.208 138.162 115.511 138.037 115.733 137.814C115.956 137.591 116.082 137.289 116.082 136.973V126.596C116.081 126.281 115.956 125.979 115.733 125.756C115.51 125.533 115.208 125.407 114.893 125.406Z" fill="#4B1010"/>
<path d="M83.0464 130.633V140.424C83.0464 141.046 83.2933 141.643 83.7342 142.083C83.9518 142.301 84.2104 142.474 84.4952 142.593C84.7799 142.711 85.0851 142.772 85.3934 142.772C85.7017 142.772 86.0069 142.711 86.2916 142.593C86.5764 142.474 86.835 142.301 87.0526 142.083C87.2706 141.865 87.4436 141.606 87.5616 141.322C87.6796 141.037 87.7404 140.732 87.7404 140.424V130.633H83.0464Z" fill="white"/>
<path d="M85.393 143.077C84.6893 143.077 84.0145 142.797 83.517 142.3C83.0194 141.802 82.7397 141.127 82.7393 140.424V130.633C82.7393 130.552 82.7716 130.474 82.8291 130.416C82.8866 130.359 82.9646 130.326 83.046 130.326H87.74C87.8213 130.326 87.8993 130.359 87.9569 130.416C88.0144 130.474 88.0467 130.552 88.0467 130.633V140.424C88.0459 141.127 87.766 141.802 87.2685 142.299C86.771 142.797 86.0965 143.077 85.393 143.077ZM83.3527 130.94V140.424C83.3531 140.965 83.5682 141.483 83.9507 141.866C84.3332 142.249 84.852 142.464 85.393 142.464C85.9341 142.464 86.4531 142.249 86.8357 141.866C87.2183 141.484 87.4333 140.965 87.4333 140.424V130.94H83.3527Z" fill="#4B1010"/>
<path d="M75.3419 139.723C75.1589 139.723 74.9834 139.65 74.854 139.521C74.7246 139.391 74.6519 139.216 74.6519 139.033V124.493C74.6523 124.356 74.693 124.223 74.7688 124.11C74.8447 123.996 74.9523 123.907 75.0782 123.855C75.2472 123.786 75.4368 123.786 75.6055 123.856C75.7743 123.926 75.9086 124.06 75.9791 124.228C76.0144 124.313 76.032 124.402 76.032 124.493V139.033C76.0314 139.216 75.9585 139.391 75.8292 139.52C75.6999 139.65 75.5247 139.722 75.3419 139.723Z" fill="#4B1010"/>
<path d="M125.344 140.894C125.253 140.894 125.164 140.876 125.08 140.842C124.996 140.807 124.92 140.756 124.856 140.692C124.792 140.628 124.741 140.552 124.706 140.468C124.672 140.385 124.654 140.295 124.654 140.204V125.473C124.654 125.29 124.727 125.115 124.856 124.986C124.92 124.921 124.996 124.87 125.08 124.836C125.164 124.801 125.253 124.783 125.344 124.783C125.435 124.783 125.524 124.801 125.608 124.836C125.692 124.87 125.768 124.921 125.832 124.986C125.896 125.05 125.947 125.126 125.981 125.209C126.016 125.293 126.034 125.383 126.034 125.473V140.204C126.034 140.295 126.016 140.385 125.981 140.468C125.947 140.552 125.896 140.628 125.832 140.692C125.768 140.756 125.692 140.807 125.608 140.842C125.524 140.876 125.435 140.894 125.344 140.894Z" fill="#4B1010"/>
<path d="M84.3052 146.15V131.417C84.3052 131.234 84.3779 131.059 84.5073 130.929C84.6367 130.8 84.8122 130.727 84.9953 130.727C85.1783 130.727 85.3538 130.8 85.4832 130.929C85.6126 131.059 85.6853 131.234 85.6853 131.417V146.332C85.6853 146.713 84.3052 146.531 84.3052 146.15Z" fill="#4B1010"/>
<path d="M125.73 125.857L84.995 131.801L74.9575 124.492V122.192L84.995 129.501L125.728 123.557L125.73 125.857Z" fill="white"/>
<path d="M84.9954 132.108C84.842 132.108 84.9594 132.145 74.7777 124.741C74.6006 124.611 74.6519 124.61 74.6519 122.193C74.6516 122.136 74.6671 122.08 74.6965 122.032C74.726 121.983 74.7683 121.944 74.8188 121.918C74.8693 121.893 74.926 121.881 74.9825 121.886C75.039 121.891 75.0931 121.911 75.1388 121.944L85.0744 129.179L125.684 123.253C125.728 123.247 125.772 123.25 125.815 123.262C125.878 123.282 125.934 123.321 125.974 123.375C126.013 123.428 126.034 123.493 126.034 123.56V125.86C126.035 125.934 126.009 126.006 125.961 126.063C125.913 126.119 125.845 126.156 125.772 126.167L84.9954 132.108ZM75.2646 124.337L85.0744 131.48L125.421 125.592V123.911L85.0399 129.804C84.8436 129.83 84.9693 129.861 75.2646 122.795V124.337Z" fill="#4B1010"/>
<path d="M125.728 123.557L114.034 116.93L74.9575 122.192L84.995 129.501L125.728 123.557Z" fill="#FFE55D"/>
<path d="M84.995 129.807C84.8416 129.807 84.9574 129.847 74.7773 122.44C74.7275 122.404 74.6896 122.354 74.6687 122.297C74.6477 122.239 74.6447 122.176 74.66 122.117C74.6751 122.057 74.7076 122.004 74.7534 121.963C74.7992 121.922 74.8561 121.896 74.9168 121.888C114.139 116.589 114.041 116.582 114.185 116.663L125.879 123.29C125.935 123.321 125.978 123.37 126.006 123.427C126.032 123.485 126.04 123.55 126.029 123.613C126.017 123.676 125.986 123.734 125.94 123.778C125.894 123.823 125.835 123.851 125.771 123.86L84.995 129.807ZM75.7557 122.394L85.074 129.179L124.798 123.382L113.973 117.248L75.7564 122.394H75.7557Z" fill="#4B1010"/>
<path d="M83.0464 117.387V124.694C83.0464 125.413 84.0968 125.997 85.3934 125.997C86.69 125.997 87.7404 125.415 87.7404 124.694V117.387H83.0464Z" fill="white"/>
<path d="M85.393 126.302C83.9047 126.302 82.7393 125.596 82.7393 124.692V117.386C82.7393 117.304 82.7716 117.226 82.8291 117.169C82.8866 117.111 82.9646 117.079 83.046 117.079H87.74C87.8213 117.079 87.8993 117.111 87.9569 117.169C88.0144 117.226 88.0467 117.304 88.0467 117.386V124.692C88.0467 125.596 86.8812 126.302 85.393 126.302ZM83.3527 117.693V124.694C83.3527 125.165 84.1907 125.69 85.393 125.69C86.5952 125.69 87.4333 125.166 87.4333 124.694V117.693H83.3527Z" fill="#4B1010"/>
<path d="M87.7404 117.387C87.7404 118.106 86.69 118.691 85.3934 118.691C84.0968 118.691 83.0464 118.107 83.0464 117.387C83.0464 116.667 84.0968 116.084 85.3934 116.084C86.69 116.084 87.7404 116.665 87.7404 117.387Z" fill="white"/>
<path d="M85.393 118.996C83.9047 118.996 82.7393 118.289 82.7393 117.386C82.7393 116.483 83.9047 115.776 85.393 115.776C86.8812 115.776 88.0467 116.483 88.0467 117.386C88.0467 118.289 86.8812 118.996 85.393 118.996ZM85.393 116.389C84.1907 116.389 83.3527 116.913 83.3527 117.386C83.3527 117.858 84.1907 118.383 85.393 118.383C86.5952 118.383 87.4333 117.858 87.4333 117.386C87.4333 116.913 86.5952 116.391 85.393 116.391V116.389Z" fill="#4B1010"/>
<path d="M92.8789 116.295V123.602C92.8789 124.32 93.9301 124.906 95.2267 124.906C96.5233 124.906 97.5737 124.322 97.5737 123.602V116.295H92.8789Z" fill="white"/>
<path d="M95.2265 125.21C93.7382 125.21 92.5728 124.504 92.5728 123.6V116.293C92.5728 116.211 92.6051 116.133 92.6626 116.076C92.7201 116.018 92.7981 115.986 92.8795 115.986H97.5735C97.6548 115.986 97.7328 116.018 97.7904 116.076C97.8479 116.133 97.8802 116.211 97.8802 116.293V123.6C97.8802 124.504 96.7147 125.21 95.2265 125.21ZM93.1862 116.601V123.602C93.1862 124.072 94.0234 124.599 95.2265 124.599C96.4295 124.599 97.2668 124.074 97.2668 123.602V116.601H93.1862Z" fill="#4B1010"/>
<path d="M97.5737 116.295C97.5737 117.013 96.5225 117.598 95.2259 117.598C93.9294 117.598 92.8789 117.015 92.8789 116.295C92.8789 115.575 93.9301 114.991 95.2259 114.991C96.5217 114.991 97.5737 115.576 97.5737 116.295Z" fill="white"/>
<path d="M95.2265 117.903C93.7382 117.903 92.5728 117.197 92.5728 116.293C92.5728 115.389 93.7382 114.682 95.2265 114.682C96.7147 114.682 97.8802 115.389 97.8802 116.293C97.8802 117.197 96.7147 117.903 95.2265 117.903ZM95.2265 115.296C94.0234 115.296 93.1862 115.821 93.1862 116.293C93.1862 116.764 94.0234 117.289 95.2265 117.289C96.4295 117.289 97.2668 116.765 97.2668 116.293C97.2668 115.82 96.4287 115.299 95.2265 115.299V115.296Z" fill="#4B1010"/>
<path d="M102.712 115.202V122.51C102.712 123.228 103.763 123.813 105.059 123.813C106.356 123.813 107.406 123.229 107.406 122.51V115.202H102.712Z" fill="white"/>
<path d="M105.06 124.117C103.572 124.117 102.406 123.411 102.406 122.507V115.199C102.406 115.118 102.439 115.04 102.496 114.982C102.554 114.925 102.632 114.893 102.713 114.893H107.407C107.488 114.893 107.566 114.925 107.624 114.982C107.681 115.04 107.714 115.118 107.714 115.199V122.507C107.713 123.413 106.547 124.117 105.06 124.117ZM103.02 115.508V122.509C103.02 122.98 103.857 123.506 105.06 123.506C106.263 123.506 107.1 122.982 107.1 122.509V115.508H103.02Z" fill="#4B1010"/>
<path d="M107.406 115.202C107.406 115.921 106.355 116.506 105.059 116.506C103.764 116.506 102.712 115.922 102.712 115.202C102.712 114.482 103.763 113.899 105.059 113.899C106.356 113.899 107.406 114.483 107.406 115.202Z" fill="white"/>
<path d="M105.06 116.811C103.572 116.811 102.406 116.104 102.406 115.201C102.406 114.298 103.572 113.591 105.06 113.591C106.548 113.591 107.714 114.297 107.714 115.201C107.714 116.105 106.547 116.811 105.06 116.811ZM105.06 114.204C103.857 114.204 103.02 114.728 103.02 115.201C103.02 115.673 103.857 116.198 105.06 116.198C106.263 116.198 107.1 115.673 107.1 115.201C107.1 114.728 106.261 114.207 105.06 114.207V114.204Z" fill="#4B1010"/>
<path d="M112.545 114.11V121.417C112.545 122.135 113.597 122.72 114.892 122.72C116.188 122.72 117.24 122.137 117.24 121.417V114.11H112.545Z" fill="white"/>
<path d="M114.893 123.025C113.405 123.025 112.24 122.318 112.24 121.415V114.109C112.239 114.068 112.247 114.028 112.262 113.991C112.278 113.954 112.3 113.92 112.329 113.891C112.357 113.863 112.391 113.84 112.429 113.825C112.466 113.809 112.506 113.802 112.546 113.802H117.24C117.322 113.802 117.4 113.834 117.457 113.892C117.515 113.949 117.547 114.027 117.547 114.109V121.419C117.546 122.318 116.381 123.025 114.893 123.025ZM112.852 114.416V121.419C112.852 121.89 113.69 122.416 114.893 122.416C116.097 122.416 116.934 121.891 116.934 121.419V114.419L112.852 114.416Z" fill="#4B1010"/>
<path d="M117.239 114.11C117.239 114.829 116.189 115.413 114.892 115.413C113.596 115.413 112.545 114.831 112.545 114.11C112.545 113.389 113.597 112.806 114.892 112.806C116.188 112.806 117.239 113.391 117.239 114.11Z" fill="white"/>
<path d="M114.893 115.718C113.405 115.718 112.24 115.011 112.24 114.108C112.24 113.205 113.405 112.498 114.893 112.498C116.382 112.498 117.546 113.204 117.546 114.108C117.546 115.012 116.381 115.718 114.893 115.718ZM114.893 113.111C113.69 113.111 112.852 113.636 112.852 114.108C112.852 114.58 113.69 115.105 114.893 115.105C116.096 115.105 116.934 114.58 116.934 114.108C116.934 113.636 116.096 113.114 114.893 113.114V113.111Z" fill="#4B1010"/>
</svg>
