<svg width="154" height="154" viewBox="0 0 154 154" fill="none" xmlns="http://www.w3.org/2000/svg">
<path d="M127.184 58.4922C126.778 60.3422 123.948 54.0158 124.045 52.4216C124.094 51.6038 124.958 52.211 125.893 53.8941C126.821 55.5649 127.365 57.6737 127.184 58.4922Z" fill="#38A1FF"/>
<path d="M124.894 61.813C124.949 61.8436 124.997 61.8859 125.033 61.9368C125.07 61.9877 125.095 62.0461 125.107 62.1078C125.123 62.2059 125.058 62.3376 124.812 62.4187C123.344 62.9953 118.461 61.9593 117.286 60.9463C116.582 60.3406 117.729 60.1361 119.822 60.4386C121.57 60.6489 123.279 61.1118 124.894 61.813Z" fill="#38A1FF"/>
<path d="M124.632 65.0688C125.45 64.8077 125.128 65.8422 123.896 67.3759C122.664 68.9096 120.967 70.3706 120.166 70.6157C119.364 70.8607 119.728 69.8017 120.95 68.2764C122.173 66.7511 123.814 65.3307 124.632 65.0688Z" fill="#38A1FF"/>
<path d="M133.844 18.3243C129.429 13.6435 121.268 13.4865 117.008 18.3243C113.822 21.9438 113.67 27.4049 115.977 31.3322V37.7497L123.209 36.4733C127.332 37.422 131.948 36.3599 134.645 33.0375C138.018 28.8797 137.593 22.2991 133.844 18.3243ZM127.823 30.7917C125.385 30.7266 122.669 30.5619 121.703 30.2028C120.738 29.8437 121.9 29.2541 124.419 29.1071C129.085 28.8345 134.481 30.9708 127.823 30.7917ZM127.496 24.9018C124.485 25.1966 121.082 25.1476 119.871 24.7877C118.66 24.4278 120.116 23.8796 123.127 23.5763C126.138 23.2731 129.543 23.3236 130.752 23.6912C131.961 24.0587 130.506 24.6077 127.496 24.9018Z" fill="#38A1FF"/>
<path d="M32.2398 69.2903C31.772 68.9786 33.2651 69.2068 11.0839 69.3393C10.7697 69.3427 10.4696 69.4702 10.249 69.6939C10.0284 69.9177 9.90523 70.2196 9.90626 70.5338V90.4783C9.90787 90.7947 10.0342 91.0975 10.2579 91.3212C10.4816 91.5449 10.7845 91.6712 11.1008 91.6729H31.6035C31.9198 91.6712 32.2227 91.5449 32.4464 91.3212C32.6701 91.0975 32.7964 90.7947 32.7981 90.4783V77.7966C32.7983 77.6232 32.8362 77.452 32.9092 77.2948C32.9822 77.1375 33.0886 76.9981 33.2208 76.886C33.3531 76.774 33.5082 76.6921 33.6753 76.6459C33.8424 76.5998 34.0176 76.5906 34.1886 76.6189L42.2554 77.0117L32.2398 69.2903ZM19.5918 86.6337C12.4584 84.7684 11.0158 76.8165 14.9454 75.7858C18.8751 74.7552 20.3284 78.5347 20.3284 78.5347C20.3284 78.5347 26.046 74.2123 27.6747 78.5347C29.9105 84.4698 19.5918 86.6337 19.5918 86.6337ZM25.6134 72.4159C21.8499 72.7099 17.5795 72.6609 16.0741 72.3011C14.5687 71.9412 16.385 71.3929 20.1485 71.0905C23.9119 70.788 28.1831 70.8393 29.687 71.2045C31.21 71.5752 29.3761 72.1211 25.6134 72.4159Z" fill="#38A1FF"/>
<path d="M67.0888 57.6736C66.5819 58.5924 67.4947 59.1927 67.7435 58.9171C69.9089 56.5196 72.5912 60.4554 72.5675 59.1629C72.504 55.1046 67.5965 56.7578 67.0888 57.6736Z" fill="#191919"/>
<path d="M77.5116 58.9829C77.4312 60.2593 79.4183 56.541 81.4214 59.0648C81.6511 59.3566 82.5699 58.8351 82.1251 57.8864C81.6802 56.9377 77.762 54.9912 77.5116 58.9829Z" fill="#191919"/>
<path d="M83.4177 65.5765C83.5081 64.774 83.4668 64.3329 83.3687 64.2671C83.0119 64.0887 82.3052 68.1041 79.2293 72.6134C77.1144 75.7122 73.9864 78.7873 70.2467 78.4872C67.5805 78.2728 65.0996 76.3202 63.1952 74.4289C62.0704 73.3117 61.7457 73.2895 62.6225 74.7068C63.2591 75.7169 64.0298 76.636 64.9135 77.4389C68.4197 80.6618 72.4734 80.792 75.8755 78.4343C79.8212 75.7046 82.9384 69.8476 83.4177 65.5765Z" fill="#191919"/>
<path d="M90.601 85.505C89.0405 85.9238 88.9317 86.1865 90.5351 86.1428C98.9856 85.9131 105.552 88.0097 112.492 96.1561C112.967 96.7128 113.376 97.2028 113.752 97.6446C114.123 98.1514 114.522 98.6371 114.947 99.0995C108.793 105.586 101.44 111.828 93.2841 115.591C87.9914 118.034 81.6789 119.091 84.2364 118.995C93.2182 118.659 101.666 113.16 108.369 107.574C114.636 102.367 120.163 96.3283 124.796 89.6261C125.188 89.0526 126.298 87.9415 126.171 87.2049C126.067 86.603 124.224 85.3672 123.013 83.6703C120.998 80.8426 123.089 78.1955 125.565 76.6189C126.553 75.9895 127.02 75.6862 126.858 75.6533C126.614 75.6777 126.376 75.7443 126.155 75.8501C122.69 77.1518 120.067 79.7928 121.459 83.2124C122.222 84.7996 123.309 86.2096 124.649 87.3519C123.654 89.2501 121.952 91.035 120.591 92.7019C118.913 94.7657 117.161 96.7686 115.339 98.7067C115.324 98.66 115.301 98.6159 115.273 98.5757C110.657 89.2256 100.16 82.936 90.601 85.505Z" fill="#191919"/>
<path d="M76.2682 81.2018C75.9619 80.789 75.7268 80.776 75.6464 81.2837C75.151 84.4017 80.4658 90.7586 80.1641 88.5809C80.0232 87.5679 78.6886 85.3006 77.5461 83.345C76.978 82.3756 76.5676 81.6068 76.2682 81.2018Z" fill="#191919"/>
<path d="M143.235 89.4148C141.798 92.8797 139.958 96.1636 137.754 99.1991C128.812 111.516 125.35 116.078 112.983 125.377C106.345 130.369 99.085 135.167 91.0917 137.552C81.3732 140.45 70.739 140.822 61.1522 137.159C57.362 135.783 53.9251 133.581 51.09 130.713C46.4957 125.883 44.233 118.18 45.7729 111.652C47.3441 104.99 52.3741 101.194 52.5295 100.69C52.6061 100.447 50.309 102.17 48.4559 104.469C46.658 106.7 45.386 109.308 44.7345 112.098C44.0829 114.888 44.0685 117.789 44.6925 120.585C45.4123 124.835 47.3768 128.775 50.3373 131.907C50.0264 131.596 47.7691 131.845 47.2943 131.841C41.8325 131.802 37.8554 131.592 24.617 132.267C24.5848 129.616 24.5679 126.984 24.5358 124.38C24.2356 100.132 22.8512 88.5817 22.4906 98.3001C22.2609 104.579 23.0304 118.545 23.0304 133.936L23.914 133.903C32.7963 133.903 37.6295 133.428 51.0249 133.428C63.8889 143.229 82.276 143.214 96.771 137.273C111.026 131.431 123.776 120.235 132.75 107.757C138.012 100.442 139.636 98.5911 141.749 94.1117C143.451 90.4967 144.522 86.3221 143.235 89.4148Z" fill="#191919"/>
<path d="M136.952 92.2617C136.598 92.7732 136.641 92.9983 137.263 92.7977C138.284 92.3688 139.188 91.7013 139.897 90.8512C143.037 87.3366 143.721 81.8572 142.482 83.472C141.73 84.4537 140.47 87.4476 138.834 89.7708C138.016 90.937 137.302 91.7586 136.952 92.2617Z" fill="#191919"/>
<path d="M139.734 83.165C141.217 80.9031 141.442 79.5255 140.552 80.171C139.663 80.8165 137.815 83.0631 136.151 85.0632C134.487 87.0632 133.766 88.2631 134.842 87.8772C135.919 87.4913 138.256 85.4192 139.734 83.165Z" fill="#191919"/>
<path d="M73.7943 68.6195C71.9926 68.4502 71.7047 68.8951 73.4184 69.716C73.7119 69.8537 74.0349 69.9166 74.3587 69.8992C74.6824 69.8818 74.9968 69.7845 75.2739 69.616C75.5509 69.4476 75.7819 69.2132 75.9463 68.9337C76.1108 68.6543 76.2035 68.3385 76.2163 68.0146C76.2261 67.6919 76.2095 67.3689 76.1665 67.049C75.9131 63.6753 74.6351 61.4516 74.3832 62.761C74.2926 63.5819 74.2926 64.4103 74.3832 65.2312C74.6221 68.3844 74.655 68.0322 74.5631 68.242C74.4904 68.3773 74.3772 68.4864 74.2393 68.5541C74.1014 68.6218 73.9458 68.6447 73.7943 68.6195Z" fill="#191919"/>
<path d="M68.3821 73.4787C70.2519 74.3516 72.5567 72.651 71.5069 72.301C70.6685 72.0215 69.6248 72.5583 68.4142 71.6464C67.9838 71.2746 67.5181 70.9458 67.0237 70.6647C66.0336 70.2742 66.5773 71.7574 67.2366 72.5958C67.5546 72.9647 67.9443 73.2651 68.3821 73.4787Z" fill="#191919"/>
<path d="M83.5485 60.1285L76.971 60.9302C76.9388 60.9302 76.922 60.9463 76.9059 60.9463C76.2473 60.5853 75.5126 60.3853 74.7619 60.3625C74.0112 60.3398 73.2658 60.4949 72.5865 60.8153C72.5865 60.8153 66.4998 60.1361 66.4998 60.1262L63.522 58.8834C67.0374 49.6673 76.3523 45.9742 83.0906 53.1076C83.2704 53.3003 83.5076 53.4299 83.767 53.4771C84.0263 53.5242 84.2939 53.4865 84.5301 53.3695C86.025 52.6964 87.2829 51.5892 88.1403 50.1919C88.9977 48.7945 89.415 47.1716 89.338 45.5339C88.4521 28.0933 68.5106 24.9837 55.9774 31.3644C43.4442 37.7451 40.026 49.7239 44.2811 59.1461C47.9895 67.3614 56.6995 69.814 59.4484 70.3867C59.4484 75.3264 60.1896 80.5547 63.1621 88.4331C63.6792 89.8606 64.2972 91.2495 65.0113 92.5894C65.535 93.522 65.911 93.9799 66.0259 93.9799C66.2655 93.9799 65.4899 92.3719 64.2915 88.2041C61.7118 79.2629 60.4377 72.4909 61.4117 63.3353L60.6919 63.4333C60.2405 63.5017 59.7792 63.4584 59.3484 63.3071C58.9176 63.1559 58.5305 62.9013 58.2209 62.5657C57.9809 62.2662 57.8268 61.9071 57.775 61.5268C57.7232 61.1465 57.7757 60.7592 57.9269 60.4064C58.4491 59.2892 59.7976 59.2035 61.0189 59.411C61.5602 59.5021 61.9186 59.5909 62.1314 59.6239C63.2034 60.5083 66.0037 62.8345 66.6492 63.3705C67.3199 64.6799 68.3337 65.8652 69.823 66.0704C71.9157 66.3591 72.7328 63.5834 73.0138 61.9149C73.5608 61.6418 74.1692 61.5149 74.7798 61.5464C75.3904 61.578 75.9825 61.7669 76.4985 62.0948C76.8423 63.7633 77.8891 66.3614 79.9504 66.0865C82.4374 65.7557 83.5638 62.7174 84.0738 60.8796C84.1047 60.7951 84.1148 60.7044 84.1031 60.6152C84.0915 60.526 84.0585 60.4409 84.0069 60.3671C83.9554 60.2934 83.8868 60.2332 83.8069 60.1916C83.7271 60.1501 83.6385 60.1284 83.5485 60.1285ZM49.0913 54.5487C49.1878 55.7271 49.8632 57.5273 49.4841 58.6721C49.403 58.9179 47.6204 55.3994 47.5538 55.1705C46.3736 50.9543 46.7035 46.4583 48.4864 42.4596C50.4911 37.9235 55.9958 33.5589 61.2807 35.1294C62.999 35.5222 62.6897 35.8438 61.0847 36.0621C51.9926 37.2972 48.3233 45.1297 49.0913 54.5487Z" fill="#191919"/>
<path d="M23.208 25.1797C23.208 25.1797 22.6307 75.6219 24.4186 62.5987C25.349 55.8244 24.7134 42.5071 24.7295 26.6867C73.7513 26.7418 128.645 25.8727 107.274 25.2801C94.0527 24.911 23.208 25.1797 23.208 25.1797Z" fill="#191919"/>
<path d="M131.063 58.705C131.423 56.6268 131.472 50.737 131.177 45.55C130.882 40.3631 130.335 37.8423 129.967 39.922C129.598 42.0017 129.549 47.89 129.852 53.0762C130.154 58.2624 130.703 60.7824 131.063 58.705Z" fill="#191919"/>
<path d="M132.747 128.879C132.462 118.145 131.896 112.943 131.537 117.246C131.217 121.075 131.243 129.16 131.243 132.724C131.243 132.839 131.213 132.831 131.046 132.838C129.109 132.915 128.359 132.956 120.918 133.149C103.292 133.609 103.619 134.626 120.493 134.655C122.795 134.658 127.277 134.688 130.441 134.475C131.167 134.426 131.874 134.48 132.404 133.935C132.962 133.359 132.858 133.022 132.747 128.879Z" fill="#191919"/>
<path d="M27.9527 141.084C27.5991 140.433 27.0321 139.923 26.347 139.64C25.6619 139.357 24.9003 139.318 24.19 139.53C21.2037 140.319 22.1226 146.068 27.2 147.384C27.264 147.405 27.3329 147.405 27.3968 147.384C27.5607 147.353 31.5585 146.487 32.7959 144.209C33.0142 143.805 33.1392 143.358 33.1619 142.899C33.1846 142.44 33.1042 141.983 32.9268 141.559C32.1136 139.407 29.8808 139.842 27.9527 141.084ZM32.06 143.817C31.0983 145.586 27.9206 146.402 27.331 146.549C24.7459 145.83 23.3393 143.702 23.3393 142.05C23.3068 141.807 23.3311 141.559 23.4103 141.327C23.4895 141.095 23.6214 140.884 23.7957 140.711C23.9701 140.538 24.182 140.408 24.4151 140.331C24.6481 140.254 24.8958 140.232 25.1387 140.267C25.6293 140.29 26.1025 140.455 26.5005 140.743C26.8986 141.03 27.2042 141.428 27.38 141.886L27.5929 142.41L28.0347 142.066C28.5745 141.657 30.2101 140.662 31.2583 140.97C31.4667 141.041 31.6546 141.162 31.8056 141.322C31.9567 141.482 32.0663 141.677 32.1251 141.889C32.2617 142.194 32.327 142.526 32.3163 142.86C32.3055 143.194 32.219 143.522 32.0631 143.817H32.06Z" fill="#191919"/>
<path d="M42.0401 140.447C39.4527 138.848 35.5698 140.768 35.9695 144.7C36.2597 147.547 39.2621 148.047 42.0722 147.465L45.8847 147.727L43.7576 144.72C43.9612 143.918 43.9046 143.071 43.5959 142.303C43.2872 141.535 42.7423 140.885 42.0401 140.447ZM44.1841 146.745C43.4474 146.638 42.703 146.594 41.9589 146.614C41.926 146.614 39.148 147.248 37.6885 146.205C37.4337 146.02 37.2237 145.779 37.0737 145.502C36.9238 145.224 36.8377 144.917 36.8217 144.602C36.7376 144.129 36.7576 143.644 36.8804 143.18C37.0032 142.716 37.2258 142.284 37.5327 141.915C37.8396 141.546 38.2233 141.248 38.6572 141.042C39.091 140.837 39.5645 140.728 40.0446 140.725C40.5374 140.727 41.0223 140.849 41.4573 141.08C41.8923 141.312 42.2644 141.646 42.5415 142.053C42.8185 142.461 42.9922 142.93 43.0475 143.419C43.1027 143.909 43.0379 144.405 42.8586 144.864L44.1841 146.745Z" fill="#191919"/>
<path d="M51.7415 144.668L54.3924 149.314L57.9438 139.71L46.9175 142.132L51.7415 144.668ZM49.3854 142.459L55.5371 141.117L52.0034 143.849L49.3854 142.459ZM54.2285 147.318L52.5922 144.471L56.3549 141.561L54.2285 147.318Z" fill="#191919"/>
<path d="M115.176 148.104L119.298 143.407L123.798 147.564V138.204H115.176V148.104ZM116.026 139.056H122.947V145.617L119.233 142.197L116.026 145.846V139.056Z" fill="#191919"/>
<path d="M32.0431 21.8419C36.5271 21.8419 41.1658 18.253 41.3366 13.1541C41.5073 8.05525 37.1167 4.37829 32.9597 3.8936C28.017 3.31701 23.2351 6.77268 22.5536 11.4366C21.758 16.8663 26.6816 21.8419 32.0431 21.8419ZM25.8753 18.3242C26.6664 17.519 27.6141 16.8845 28.6601 16.4599C29.706 16.0354 30.8279 15.8298 31.9565 15.8559C33.085 15.882 34.1962 16.1393 35.2214 16.6118C36.2465 17.0843 37.164 17.762 37.9169 18.603C37.1098 19.3789 36.1572 19.9874 35.1139 20.3936C34.0707 20.7997 32.9573 20.9955 31.8381 20.9696C30.7188 20.9437 29.6158 20.6966 28.5924 20.2426C27.5691 19.7886 26.6456 19.1366 25.8753 18.3242ZM32.8433 4.71215C36.6252 5.13176 40.6275 8.49095 40.4683 13.1051C40.4014 14.9096 39.7068 16.6342 38.5042 17.9812C37.6719 17.0658 36.662 16.3294 35.5358 15.817C34.4097 15.3046 33.191 15.0269 31.9541 15.0008C30.7171 14.9747 29.4878 15.2008 28.3411 15.6653C27.1944 16.1298 26.1543 16.8229 25.2842 17.7025C20.1179 11.4657 25.9963 3.95103 32.8448 4.71215H32.8433Z" fill="#191919"/>
<path d="M50.2868 18.1474L88.6705 17.2286C89.8115 17.2045 90.8975 16.7339 91.6953 15.9178C92.4931 15.1017 92.9389 14.0053 92.9371 12.864C92.9327 11.7961 92.511 10.7722 91.7621 10.011C91.0131 9.24972 89.9962 8.81142 88.9285 8.78964C80.1917 8.66789 58.9217 8.41751 50.152 8.70771C49.0166 8.74079 47.9389 9.21519 47.1476 10.0301C46.3564 10.8451 45.9141 11.9364 45.9146 13.0723V13.7614C45.9205 14.9204 46.3827 16.0305 47.201 16.8513C48.0192 17.6722 49.1278 18.1378 50.2868 18.1474ZM46.7691 13.0937C46.7641 12.1787 47.1172 11.298 47.7529 10.6398C48.3886 9.98165 49.2565 9.59821 50.1712 9.57144C59.8628 9.28583 79.2683 9.53928 88.9163 9.65337C89.7617 9.66879 90.5675 10.0148 91.1608 10.6173C91.7541 11.2198 92.0877 12.0307 92.0902 12.8763C92.099 13.7977 91.7424 14.6852 91.0985 15.3444C90.4547 16.0037 89.5758 16.381 88.6544 16.394L50.3848 17.3128C49.9148 17.3253 49.4471 17.2435 49.0092 17.0724C48.5714 16.9013 48.1722 16.6442 47.8352 16.3164C47.4982 15.9885 47.2303 15.5966 47.0472 15.1636C46.8641 14.7305 46.7695 14.2653 46.7691 13.7951V13.0937Z" fill="#191919"/>
<path d="M30.8974 13.2851C34.2199 14.0646 37.3815 10.1288 34.5139 7.1494C33.9818 6.57211 33.2823 6.17588 32.5136 6.0163C31.7449 5.85671 30.9455 5.94178 30.2276 6.25957C29.5097 6.57735 28.9093 7.11191 28.5106 7.78825C28.1119 8.46459 27.9349 9.24877 28.0046 10.0308C28.0969 10.8037 28.4236 11.5298 28.9407 12.1115C29.4579 12.6933 30.1407 13.1028 30.8974 13.2851ZM31.4541 6.80636C31.8972 6.77359 32.3423 6.83647 32.759 6.99073C33.1757 7.14499 33.5544 7.38702 33.8694 7.70043C34.1844 8.01384 34.4284 8.3913 34.5848 8.80724C34.7411 9.22318 34.8063 9.66787 34.7758 10.1112C34.6903 10.5085 34.5271 10.8849 34.2954 11.2188C34.0637 11.5527 33.7682 11.8373 33.4259 12.0564C33.0837 12.2754 32.7014 12.4245 32.3012 12.4951C31.901 12.5656 31.4908 12.5561 31.0942 12.4673C30.5129 12.3255 29.9887 12.01 29.5912 11.5628C29.1936 11.1157 28.9418 10.558 28.869 9.96416C28.8236 9.20912 29.0645 8.46472 29.5437 7.87942C30.0228 7.29412 30.705 6.91096 31.4541 6.80636Z" fill="#191919"/>
<path d="M133.73 82.985C133.257 83.4382 132.825 83.9308 132.436 84.4575C132.054 85.0448 132.159 85.2447 132.78 84.9813C137.053 83.1688 139.862 78.6473 139.783 75.4098C140.879 69.618 141.279 63.6638 141.779 60.8482C141.805 60.6996 141.791 60.5467 141.739 60.4052C141.686 60.2638 141.596 60.139 141.479 60.0439C141.362 59.9487 141.221 59.8867 141.072 59.8641C140.923 59.8416 140.77 59.8593 140.63 59.9156L128.87 64.611C128.711 64.6744 128.575 64.7855 128.481 64.929C128.388 65.0725 128.341 65.2414 128.347 65.4127L128.707 81.9054C129.411 82.4478 130.227 82.8262 131.096 83.0129C131.965 83.1997 132.865 83.1902 133.73 82.985ZM135.791 65.6906C136.145 65.78 136.458 65.9876 136.679 66.2792C136.899 66.5708 137.013 66.9288 137.002 67.294C136.999 67.6808 136.854 68.0529 136.594 68.3396C136.335 68.6263 135.979 68.8074 135.594 68.8484C135.235 68.8585 134.883 68.7432 134.6 68.5223C134.316 68.3014 134.118 67.9887 134.04 67.6378C134.005 67.3908 134.025 67.1392 134.098 66.9006C134.171 66.6621 134.296 66.4424 134.463 66.257C134.629 66.0715 134.835 65.9247 135.064 65.8269C135.294 65.7291 135.542 65.6825 135.791 65.6906ZM130.899 68.0306C131.264 66.7557 131.807 68.2917 132.109 71.4993C132.412 74.7069 132.355 78.3387 131.995 79.6159C131.635 80.8931 131.095 79.3379 130.784 76.1472C130.473 72.9565 130.528 69.3247 130.899 68.0306Z" fill="#191919"/>
<path d="M87.8066 86.077C84.6671 85.4231 81.589 88.744 81.589 88.744C81.589 88.744 87.3318 97.3851 78.5621 101.608C70.8728 105.307 63.9844 94.6545 63.9844 94.6545C62.1623 94.7596 60.3819 95.2428 58.7567 96.0733C57.1314 96.9038 55.6967 98.0635 54.5439 99.4785C57.1137 104.969 60.5238 110.026 64.6514 114.466C71.0979 121.141 86.9191 115.725 86.9191 115.725C86.9191 115.725 95.296 112.65 101.17 108.134L87.8066 86.077ZM70.8843 113.745C67.2173 114.153 63.8022 110.11 61.9178 107.478C60.9871 106.266 60.2932 104.889 59.8726 103.42C59.4369 101.156 62.2279 104.542 63.8321 106.253C68.5956 111.324 68.6561 111.193 71.1783 112.846C71.9004 113.317 71.7013 113.653 70.8843 113.745Z" fill="#38A1FF"/>
</svg>
