<svg width="156" height="156" viewBox="0 0 156 156" fill="none" xmlns="http://www.w3.org/2000/svg">
<path fill-rule="evenodd" clip-rule="evenodd" d="M20.3555 138.552V134.126C20.3555 134.126 15.679 122.212 4.09619 124.844C4.35393 127.837 5.48583 130.688 7.35112 133.043C9.21641 135.398 11.7328 137.152 14.5873 138.088L20.3555 138.552Z" fill="white"/>
<path fill-rule="evenodd" clip-rule="evenodd" d="M25.4864 140.783C25.4864 140.783 22.4452 137.38 18.958 137.176C15.4707 136.973 11.9572 139.106 10.0835 140.599C8.2098 142.093 6.96094 143.189 6.96094 143.189C9.14277 145.672 12.1985 147.218 15.4916 147.504C21.2962 148.178 25.4864 143.584 25.4864 140.783Z" fill="white"/>
<path d="M25.7751 140.527C25.6613 140.398 23.224 137.706 20.1486 136.965C20.1409 136.953 20.1324 136.939 20.1239 136.928C14.6267 129.681 10.3234 128.928 10.1438 128.9C10.0567 128.886 9.96754 128.902 9.89095 128.945C9.81436 128.989 9.75495 129.058 9.72254 129.14C9.69013 129.222 9.68666 129.312 9.71271 129.396C9.73877 129.48 9.79277 129.553 9.86581 129.603C12.7927 131.749 15.5214 134.154 18.0194 136.787C16.7852 136.87 15.5722 137.151 14.4269 137.618C11.7719 136.678 9.43453 135.011 7.68121 132.806C5.92789 130.602 4.82917 127.949 4.51031 125.151C15.3808 122.912 19.8103 133.798 19.9953 134.267C20.0138 134.315 20.0414 134.358 20.0766 134.395C20.1119 134.432 20.154 134.462 20.2007 134.482C20.2473 134.503 20.2976 134.514 20.3485 134.515C20.3995 134.516 20.4501 134.507 20.4976 134.488C20.545 134.469 20.5883 134.442 20.625 134.406C20.6617 134.371 20.691 134.329 20.7113 134.282C20.7316 134.235 20.7425 134.185 20.7434 134.134C20.7442 134.083 20.7349 134.032 20.7162 133.985C20.6682 133.862 15.7772 121.792 4.01092 124.467C3.92293 124.487 3.84468 124.537 3.78969 124.609C3.73469 124.68 3.70641 124.769 3.70974 124.859C3.97088 127.736 5.0141 130.487 6.72645 132.813C8.43879 135.14 10.755 136.954 13.4243 138.058C12.1523 138.671 10.9515 139.422 9.84335 140.297C7.98515 141.779 6.7177 142.887 6.70531 142.898C6.63187 142.962 6.58541 143.052 6.57521 143.149C6.56502 143.246 6.59185 143.343 6.65034 143.421C6.7657 143.576 9.54372 147.204 15.4466 147.889C16.861 148.052 18.294 147.915 19.6516 147.486C21.0092 147.057 22.2609 146.346 23.3246 145.4C25.7333 143.252 26.0848 140.874 25.7751 140.527ZM22.8082 144.819C21.8261 145.693 20.6704 146.35 19.4169 146.746C18.1634 147.143 16.8402 147.27 15.5341 147.12C12.4796 146.821 9.632 145.442 7.50279 143.232C7.97509 142.826 8.9971 141.96 10.3242 140.903C11.3771 140.063 15.1129 137.336 18.9346 137.563C21.0143 137.685 22.9607 139.035 24.1151 140.017C22.2709 139.586 19.1158 139.057 16.9618 139.827C15.211 140.406 13.5865 141.313 12.1754 142.5C12.108 142.564 12.0655 142.649 12.0556 142.741C12.0458 142.833 12.0693 142.926 12.1218 143.002C12.1744 143.078 12.2525 143.133 12.342 143.157C12.4315 143.18 12.5265 143.171 12.6098 143.13C12.6523 143.109 16.9053 141.062 18.7914 141.053C20.4173 141.045 23.8898 141.13 25.0713 141.16C24.7452 142.597 23.9491 143.885 22.809 144.819H22.8082Z" fill="black"/>
<path fill-rule="evenodd" clip-rule="evenodd" d="M141.863 67.4241C141.863 66.8412 141.748 66.264 141.525 65.7255C141.302 65.187 140.975 64.6978 140.562 64.2856C140.15 63.8735 139.661 63.5466 139.122 63.3237C138.584 63.1007 138.007 62.9859 137.424 62.986H24.7927C23.6158 62.9863 22.4872 63.4539 21.6551 64.2862C20.8229 65.1184 20.3555 66.2472 20.3555 67.4241V136.496C20.3554 137.079 20.4701 137.656 20.6931 138.194C20.9161 138.733 21.2429 139.222 21.6551 139.634C22.0672 140.047 22.5565 140.374 23.0949 140.597C23.6334 140.82 24.2106 140.935 24.7935 140.935H137.422C138.005 140.935 138.582 140.82 139.121 140.597C139.66 140.374 140.149 140.047 140.561 139.635C140.973 139.223 141.3 138.733 141.523 138.195C141.746 137.656 141.861 137.079 141.861 136.496L141.863 67.4241Z" fill="white"/>
<path fill-rule="evenodd" clip-rule="evenodd" d="M141.863 69.9977V67.4241C141.863 66.8412 141.748 66.264 141.525 65.7255C141.302 65.187 140.975 64.6978 140.562 64.2856C140.15 63.8735 139.661 63.5466 139.122 63.3237C138.584 63.1007 138.007 62.9859 137.424 62.986H24.7927C23.6158 62.9863 22.4872 63.4539 21.6551 64.2862C20.8229 65.1184 20.3555 66.2472 20.3555 67.4241V69.9977H141.863Z" fill="#81F8F8"/>
<path fill-rule="evenodd" clip-rule="evenodd" d="M52.3356 110.31V96.3276H41.7617C39.9203 96.347 38.1608 97.0921 36.8656 98.4011C35.5703 99.7101 34.8437 101.477 34.8438 103.319C34.8437 105.16 35.5703 106.927 36.8656 108.236C38.1608 109.545 39.9203 110.29 41.7617 110.31H52.3356Z" fill="#FFD997"/>
<path d="M118.733 95.9405H41.762C39.8183 95.9604 37.9609 96.7465 36.5935 98.1281C35.226 99.5096 34.459 101.375 34.459 103.319C34.459 105.263 35.226 107.128 36.5935 108.509C37.9609 109.891 39.8183 110.677 41.762 110.697H118.733C120.676 110.677 122.534 109.891 123.901 108.509C125.269 107.128 126.036 105.263 126.036 103.319C126.036 101.375 125.269 99.5096 123.901 98.1281C122.534 96.7465 120.676 95.9604 118.733 95.9405ZM35.1584 103.318C35.1605 101.568 35.8569 99.8891 37.0948 98.6512C38.3328 97.4132 40.0113 96.7168 41.762 96.7148H51.9334V109.923H41.762C40.0111 109.921 38.3326 109.224 37.0946 107.986C35.8566 106.748 35.1603 105.069 35.1584 103.318ZM118.733 109.923H52.7076V96.7148H118.733C120.472 96.7336 122.133 97.4377 123.356 98.6741C124.579 99.9105 125.266 101.58 125.266 103.319C125.266 105.058 124.579 106.727 123.356 107.963C122.133 109.2 120.472 109.904 118.733 109.923Z" fill="black"/>
<path d="M44.877 104.269C45.1955 103.902 45.4263 103.467 45.5517 102.998C45.6772 102.528 45.694 102.036 45.6009 101.559C45.4629 100.945 45.1395 100.389 44.6745 99.9653C44.2095 99.5416 43.6254 99.2712 43.0015 99.1908C42.3776 99.1103 41.744 99.2238 41.1868 99.5157C40.6295 99.8076 40.1755 100.264 39.8864 100.823C39.5973 101.381 39.4871 102.015 39.5706 102.639C39.6542 103.262 39.9275 103.845 40.3535 104.308C40.7796 104.771 41.3377 105.091 41.9521 105.226C42.5666 105.361 43.2076 105.304 43.7884 105.062C44.4511 106.159 46.0763 108.701 46.7119 108.35C47.4065 107.963 45.5692 105.246 44.877 104.269ZM42.8926 103.712C42.5799 103.782 42.2534 103.758 41.9548 103.641C41.6561 103.525 41.3991 103.322 41.2165 103.059C41.0339 102.796 40.9341 102.484 40.9299 102.163C40.9257 101.843 41.0173 101.528 41.193 101.26C41.3687 100.992 41.6204 100.783 41.9159 100.659C42.2113 100.535 42.5371 100.502 42.8515 100.564C43.1659 100.626 43.4544 100.781 43.6803 101.008C43.9061 101.236 44.0589 101.526 44.119 101.84C44.2042 102.251 44.1229 102.679 43.8929 103.03C43.663 103.381 43.3032 103.626 42.8926 103.712Z" fill="white"/>
<path d="M45.3639 104.281C47.2384 101.702 45.0178 98.0488 41.9239 98.6426C41.46 98.7426 41.0208 98.9347 40.6324 99.2074C40.244 99.4801 39.9142 99.8279 39.6626 100.23C39.4109 100.633 39.2425 101.081 39.1674 101.55C39.0922 102.019 39.1118 102.497 39.2249 102.958C39.3381 103.419 39.5425 103.853 39.8261 104.233C40.1098 104.614 40.4668 104.934 40.8762 105.174C41.2856 105.414 41.7389 105.569 42.2095 105.631C42.68 105.693 43.1581 105.66 43.6156 105.533C44.2118 106.522 45.8888 109.246 46.9 108.685C46.9863 108.637 47.061 108.571 47.1185 108.49C47.1761 108.41 47.2151 108.318 47.2329 108.221C47.4164 107.375 46.1505 105.403 45.3639 104.281ZM43.1131 104.862C42.5728 104.987 42.0076 104.947 41.4901 104.748C40.9726 104.548 40.5265 104.199 40.209 103.745C39.8915 103.29 39.7171 102.751 39.7083 102.196C39.6994 101.642 39.8565 101.098 40.1593 100.633C40.4622 100.169 40.8969 99.8053 41.4078 99.5897C41.9187 99.3741 42.4823 99.3162 43.0263 99.4233C43.5704 99.5304 44.07 99.7977 44.461 100.191C44.852 100.584 45.1165 101.085 45.2207 101.63C45.3694 102.338 45.2309 103.076 44.8356 103.682C44.4403 104.288 43.8205 104.713 43.1124 104.862H43.1131ZM44.3357 105.218C44.5094 105.115 44.6736 104.998 44.8266 104.866C45.5481 105.797 46.1082 106.842 46.4835 107.958C45.62 107.169 44.8939 106.243 44.3349 105.216L44.3357 105.218Z" fill="black"/>
<path d="M44.4987 101.768C44.4174 101.394 44.2277 101.052 43.9533 100.786C43.679 100.52 43.3321 100.34 42.9562 100.27C42.5803 100.199 42.192 100.242 41.8399 100.391C41.4879 100.54 41.1876 100.79 40.9768 101.109C40.766 101.428 40.654 101.802 40.6548 102.185C40.6556 102.567 40.7691 102.941 40.9812 103.259C41.1934 103.577 41.4946 103.826 41.8473 103.974C42.2 104.122 42.5885 104.162 42.9641 104.09C43.4751 103.985 43.9236 103.681 44.2112 103.246C44.4989 102.811 44.6022 102.279 44.4987 101.768ZM42.8193 103.332C42.582 103.388 42.3333 103.371 42.1053 103.285C41.8773 103.198 41.6804 103.046 41.5399 102.846C41.3994 102.647 41.3217 102.41 41.3169 102.167C41.3121 101.923 41.3804 101.683 41.5129 101.478C41.6455 101.274 41.8362 101.113 42.0607 101.018C42.2851 100.923 42.5329 100.897 42.7723 100.943C43.0116 100.99 43.2315 101.107 43.4037 101.28C43.5759 101.453 43.6924 101.673 43.7383 101.912C43.7712 102.066 43.7735 102.224 43.7451 102.379C43.7167 102.533 43.6581 102.68 43.5728 102.812C43.4874 102.944 43.377 103.058 43.2477 103.147C43.1184 103.236 42.9728 103.299 42.8193 103.332Z" fill="black"/>
<path d="M58.5342 103.857C58.5342 104.269 58.6977 104.664 58.9889 104.955C59.28 105.246 59.6748 105.41 60.0866 105.41C60.4983 105.41 60.8931 105.246 61.1843 104.955C61.4754 104.664 61.6389 104.269 61.6389 103.857C61.6389 103.446 61.4754 103.051 61.1843 102.76C60.8931 102.468 60.4983 102.305 60.0866 102.305C59.6748 102.305 59.28 102.468 58.9889 102.76C58.6977 103.051 58.5342 103.446 58.5342 103.857Z" fill="black"/>
<path d="M67.4653 103.857C67.4653 104.269 67.6289 104.664 67.92 104.955C68.2111 105.246 68.606 105.41 69.0177 105.41C69.4294 105.41 69.8243 105.246 70.1154 104.955C70.4065 104.664 70.5701 104.269 70.5701 103.857C70.5701 103.446 70.4065 103.051 70.1154 102.76C69.8243 102.468 69.4294 102.305 69.0177 102.305C68.606 102.305 68.2111 102.468 67.92 102.76C67.6289 103.051 67.4653 103.446 67.4653 103.857Z" fill="black"/>
<path d="M77.9479 102.305C77.6418 102.305 77.3426 102.396 77.088 102.566C76.8334 102.736 76.635 102.977 76.5177 103.26C76.4003 103.543 76.3695 103.854 76.4289 104.154C76.4883 104.454 76.6354 104.73 76.8516 104.947C77.0678 105.164 77.3433 105.311 77.6434 105.372C77.9436 105.432 78.2548 105.402 78.5378 105.285C78.8208 105.168 79.0629 104.971 79.2336 104.716C79.4042 104.462 79.4957 104.163 79.4964 103.857C79.496 103.446 79.3329 103.052 79.0427 102.761C78.7525 102.47 78.3588 102.306 77.9479 102.305Z" fill="black"/>
<path d="M86.8786 102.305C86.5727 102.306 86.2738 102.397 86.0198 102.567C85.7657 102.738 85.5678 102.98 85.4511 103.263C85.3344 103.545 85.3041 103.856 85.3639 104.156C85.4238 104.456 85.5712 104.732 85.7875 104.948C86.0039 105.165 86.2794 105.312 86.5794 105.372C86.8795 105.432 87.1905 105.401 87.4733 105.285C87.7561 105.168 87.998 104.97 88.1684 104.716C88.3388 104.462 88.4302 104.163 88.431 103.857C88.4306 103.446 88.2669 103.051 87.9759 102.76C87.6848 102.469 87.2902 102.305 86.8786 102.305Z" fill="black"/>
<path d="M94.2568 103.857C94.2568 104.269 94.4204 104.664 94.7115 104.955C95.0026 105.246 95.3975 105.41 95.8092 105.41C96.2209 105.41 96.6158 105.246 96.9069 104.955C97.198 104.664 97.3616 104.269 97.3616 103.857C97.3616 103.446 97.198 103.051 96.9069 102.76C96.6158 102.468 96.2209 102.305 95.8092 102.305C95.3975 102.305 95.0026 102.468 94.7115 102.76C94.4204 103.051 94.2568 103.446 94.2568 103.857Z" fill="black"/>
<path d="M103.187 103.857C103.187 104.269 103.351 104.664 103.642 104.955C103.933 105.246 104.328 105.41 104.739 105.41C105.151 105.41 105.546 105.246 105.837 104.955C106.128 104.664 106.292 104.269 106.292 103.857C106.292 103.446 106.128 103.051 105.837 102.76C105.546 102.468 105.151 102.305 104.739 102.305C104.328 102.305 103.933 102.468 103.642 102.76C103.351 103.051 103.187 103.446 103.187 103.857Z" fill="black"/>
<path d="M112.117 103.857C112.117 104.061 112.157 104.263 112.235 104.451C112.313 104.64 112.428 104.811 112.572 104.955C112.716 105.099 112.887 105.213 113.075 105.291C113.264 105.369 113.466 105.41 113.67 105.41C113.873 105.41 114.075 105.369 114.264 105.291C114.452 105.213 114.623 105.099 114.767 104.955C114.911 104.811 115.026 104.64 115.104 104.451C115.182 104.263 115.222 104.061 115.222 103.857C115.222 103.653 115.182 103.452 115.104 103.263C115.026 103.075 114.911 102.904 114.767 102.76C114.623 102.615 114.452 102.501 114.264 102.423C114.075 102.345 113.873 102.305 113.67 102.305C113.466 102.305 113.264 102.345 113.075 102.423C112.887 102.501 112.716 102.615 112.572 102.76C112.428 102.904 112.313 103.075 112.235 103.263C112.157 103.452 112.117 103.653 112.117 103.857Z" fill="black"/>
<path d="M45.231 65.0804H132.958V68.0202H45.231V65.0804Z" fill="white"/>
<path d="M137.422 62.5982H24.7926C23.5134 62.5998 22.287 63.1088 21.3825 64.0135C20.4781 64.9183 19.9695 66.1448 19.9683 67.4241V136.5C19.9697 137.779 20.4784 139.005 21.3828 139.91C22.2872 140.814 23.5135 141.323 24.7926 141.325H137.422C138.702 141.323 139.928 140.815 140.833 139.91C141.737 139.005 142.246 137.779 142.248 136.5V67.4241C142.247 66.1446 141.738 64.9179 140.833 64.0132C139.928 63.1085 138.702 62.5996 137.422 62.5982ZM24.7911 63.3724H137.422C138.496 63.3738 139.526 63.8012 140.286 64.5607C141.045 65.3202 141.472 66.3499 141.474 67.4241V69.6454H20.7425V67.4241C20.7435 66.3501 21.1705 65.3203 21.9298 64.5608C22.6891 63.8012 23.7186 63.3738 24.7926 63.3724H24.7911ZM137.422 140.551H24.7926C23.7188 140.549 22.6893 140.122 21.9301 139.362C21.1708 138.603 20.7437 137.574 20.7425 136.5V70.4196H141.475V136.5C141.474 137.574 141.046 138.604 140.287 139.363C139.527 140.123 138.497 140.55 137.422 140.551Z" fill="black"/>
<path d="M45.2299 68.4074H132.957C133.06 68.4074 133.158 68.3666 133.231 68.294C133.304 68.2214 133.344 68.1229 133.344 68.0202V65.0781C133.344 64.9754 133.304 64.8769 133.231 64.8043C133.158 64.7317 133.06 64.6909 132.957 64.6909H45.2299C45.1272 64.6909 45.0288 64.7317 44.9562 64.8043C44.8836 64.8769 44.8428 64.9754 44.8428 65.0781V68.0202C44.8428 68.1229 44.8836 68.2214 44.9562 68.294C45.0288 68.3666 45.1272 68.4074 45.2299 68.4074ZM45.617 65.4652H132.57V67.6331H45.617V65.4652Z" fill="black"/>
<path d="M24.3197 67.2777C27.6141 68.9215 27.3841 68.8262 27.5142 68.8262C27.6013 68.826 27.6858 68.7965 27.7541 68.7423C27.8223 68.6882 27.8703 68.6126 27.8902 68.5278C27.9102 68.4431 27.901 68.354 27.8641 68.2751C27.8272 68.1962 27.7648 68.132 27.6869 68.093L25.2991 66.9007L27.6404 65.507C27.7286 65.4544 27.7923 65.369 27.8175 65.2695C27.8427 65.1699 27.8273 65.0645 27.7748 64.9763C27.7222 64.8881 27.6367 64.8244 27.5372 64.7992C27.4377 64.774 27.3322 64.7894 27.244 64.8419L24.2941 66.5979C24.2342 66.6335 24.185 66.6845 24.1517 66.7457C24.1184 66.8068 24.1021 66.8758 24.1048 66.9454C24.1074 67.015 24.1287 67.0826 24.1665 67.1411C24.2044 67.1996 24.2573 67.2468 24.3197 67.2777Z" fill="black"/>
<path d="M34.0179 68.6149C34.0638 68.7066 34.1441 68.7764 34.2414 68.8089C34.3387 68.8414 34.4448 68.834 34.5366 68.7883L37.5562 67.2793C37.6184 67.2483 37.6712 67.2011 37.7088 67.1427C37.7465 67.0843 37.7678 67.0168 37.7704 66.9473C37.773 66.8779 37.7569 66.809 37.7237 66.7479C37.6905 66.6869 37.6415 66.6358 37.5818 66.6003L34.6319 64.8443C34.5439 64.7956 34.4404 64.7831 34.3433 64.8094C34.2463 64.8357 34.1633 64.8987 34.1119 64.9851C34.0605 65.0715 34.0447 65.1746 34.0679 65.2724C34.0911 65.3703 34.1515 65.4552 34.2362 65.5093L36.5768 66.903L34.189 68.0953C34.0975 68.1416 34.0281 68.2223 33.996 68.3197C33.9639 68.4171 33.9718 68.5233 34.0179 68.6149Z" fill="black"/>
<path fill-rule="evenodd" clip-rule="evenodd" d="M146.403 136.573H131.727V146.699C131.726 146.941 131.774 147.181 131.866 147.404C131.959 147.628 132.095 147.831 132.266 148.003C132.437 148.174 132.64 148.31 132.864 148.402C133.087 148.495 133.327 148.542 133.569 148.542H144.557C144.799 148.542 145.039 148.495 145.262 148.402C145.486 148.31 145.689 148.174 145.86 148.003C146.032 147.831 146.167 147.628 146.26 147.404C146.353 147.181 146.4 146.941 146.4 146.699L146.403 136.573Z" fill="white"/>
<path d="M149.176 114.236C149.164 114.172 149.136 114.111 149.095 114.061C149.053 114.01 149 113.971 148.939 113.946C148.878 113.922 148.812 113.914 148.747 113.922C148.682 113.93 148.621 113.954 148.568 113.993C139.799 120.381 140.756 132.602 140.767 132.724C140.773 132.799 140.801 132.87 140.847 132.929C140.893 132.988 140.955 133.033 141.026 133.058C141.096 133.082 141.173 133.086 141.245 133.068C141.318 133.05 141.384 133.011 141.435 132.957C150.676 123.064 149.241 114.592 149.176 114.236Z" fill="black"/>
<path d="M137.81 134.372C134.114 120.249 126.692 118.059 126.379 117.973C126.307 117.954 126.231 117.955 126.16 117.977C126.089 117.999 126.026 118.042 125.978 118.099C125.931 118.156 125.901 118.226 125.892 118.3C125.883 118.373 125.895 118.448 125.927 118.515C127.571 121.934 136.736 134.183 137.125 134.703C137.179 134.775 137.256 134.826 137.344 134.847C137.431 134.868 137.523 134.859 137.604 134.82C137.685 134.78 137.75 134.714 137.787 134.633C137.825 134.551 137.833 134.459 137.81 134.372Z" fill="black"/>
<path fill-rule="evenodd" clip-rule="evenodd" d="M138.032 136.573C138.032 136.573 134.451 134.947 128.244 129.768C122.038 124.588 120.246 121.297 120.246 121.297C124.5 121.615 128.505 123.427 131.554 126.413C134.045 128.844 136.049 131.729 137.456 134.912C136.096 130.78 132.943 119.854 134.934 112.602C137.855 114.911 140.036 118.026 141.204 121.562C142.373 125.098 142.479 128.898 141.51 132.494C143.544 128.277 146.646 124.665 150.507 122.017C150.507 122.017 151.638 129.665 141.346 136.573H138.032Z" fill="white"/>
<path d="M146.404 136.186H142.577C151.872 129.424 150.939 122.274 150.891 121.962C150.882 121.897 150.855 121.835 150.815 121.783C150.774 121.73 150.721 121.689 150.66 121.663C150.599 121.637 150.533 121.627 150.467 121.635C150.401 121.642 150.338 121.665 150.284 121.704C147.1 123.921 144.405 126.769 142.366 130.07C142.616 128.305 142.612 126.513 142.353 124.75C141.552 119.86 138.996 115.431 135.165 112.29C135.114 112.252 135.055 112.228 134.993 112.218C134.931 112.208 134.867 112.214 134.808 112.235C134.748 112.255 134.695 112.29 134.652 112.336C134.609 112.382 134.577 112.437 134.561 112.498C132.994 118.203 134.517 126.016 135.933 131.21C134.745 129.381 133.37 127.682 131.829 126.139C128.722 123.067 124.616 121.212 120.257 120.909C120.189 120.907 120.122 120.923 120.062 120.955C120.002 120.988 119.952 121.035 119.916 121.093C119.881 121.151 119.861 121.218 119.86 121.286C119.858 121.354 119.874 121.421 119.907 121.481C119.984 121.618 121.805 124.895 127.997 130.063C130.649 132.338 133.489 134.386 136.486 136.185H131.728C131.625 136.185 131.527 136.225 131.454 136.298C131.381 136.371 131.341 136.469 131.341 136.572V146.697C131.34 146.99 131.398 147.28 131.51 147.551C131.622 147.822 131.786 148.068 131.993 148.275C132.2 148.482 132.446 148.646 132.717 148.758C132.988 148.87 133.278 148.928 133.571 148.928H144.559C144.852 148.928 145.142 148.871 145.413 148.759C145.683 148.647 145.929 148.482 146.136 148.275C146.344 148.068 146.508 147.822 146.62 147.551C146.732 147.281 146.789 146.99 146.789 146.697V136.573C146.789 136.471 146.748 136.373 146.676 136.3C146.604 136.228 146.506 136.187 146.404 136.186ZM150.153 122.758C150.13 124.647 149.4 130.148 142.339 135.399C143.826 132.765 145.61 130.311 147.655 128.083C147.691 128.046 147.72 128.002 147.74 127.954C147.759 127.906 147.768 127.855 147.768 127.803C147.767 127.752 147.756 127.701 147.735 127.653C147.714 127.606 147.684 127.563 147.646 127.528C147.608 127.492 147.564 127.465 147.515 127.447C147.467 127.429 147.415 127.421 147.363 127.423C147.312 127.425 147.261 127.438 147.214 127.46C147.167 127.482 147.126 127.514 147.091 127.552C146.921 127.733 142.982 131.946 141.093 136.186H140.746C141.217 135.017 141.601 133.815 141.896 132.59C143.794 128.681 146.629 125.302 150.15 122.754L150.153 122.758ZM135.162 113.291C138.556 116.31 140.822 120.394 141.589 124.871C142.385 129.929 140.377 135.067 139.902 136.186H139.869C139.197 125.591 136.995 119.004 136.973 118.938C136.94 118.841 136.869 118.761 136.777 118.715C136.685 118.669 136.579 118.662 136.481 118.695C136.384 118.728 136.304 118.799 136.258 118.891C136.213 118.983 136.206 119.089 136.239 119.187C136.261 119.252 138.425 125.732 139.093 136.186H138.33C138.184 135.697 138.011 135.217 137.813 134.747C136.493 130.718 133.529 120.372 135.159 113.287L135.162 113.291ZM125.344 125.129C129.332 128.057 132.988 131.413 136.247 135.135C131.537 132.27 124.196 126.362 121.001 121.749C124.874 122.225 128.484 123.957 131.28 126.681C133.659 129.014 135.591 131.763 136.981 134.792C130.692 127.816 125.825 124.519 125.773 124.484C125.731 124.455 125.683 124.434 125.633 124.423C125.583 124.413 125.531 124.412 125.48 124.422C125.43 124.431 125.382 124.451 125.339 124.479C125.296 124.507 125.259 124.544 125.23 124.587C125.202 124.629 125.182 124.677 125.172 124.728C125.162 124.778 125.163 124.83 125.173 124.881C125.184 124.931 125.204 124.979 125.233 125.021C125.262 125.063 125.299 125.1 125.343 125.127L125.344 125.129ZM146.017 146.695C146.017 146.886 145.979 147.076 145.906 147.253C145.833 147.429 145.726 147.59 145.591 147.725C145.456 147.861 145.295 147.968 145.118 148.041C144.942 148.114 144.752 148.152 144.561 148.151H133.57C133.379 148.151 133.189 148.114 133.012 148.041C132.836 147.968 132.675 147.86 132.54 147.725C132.405 147.59 132.298 147.429 132.225 147.252C132.151 147.076 132.114 146.886 132.114 146.695V136.96H146.017V146.695Z" fill="black"/>
<path d="M41.6167 20.4843L40.0272 19.645C40.0922 19.0131 40.0922 18.3761 40.0272 17.7442L41.6167 16.9049C41.6907 16.866 41.75 16.8041 41.7859 16.7286C41.8217 16.6531 41.8322 16.568 41.8157 16.4861C41.6443 15.6318 41.3741 14.8003 41.0105 14.0085C40.9758 13.9325 40.9174 13.8699 40.8442 13.8298C40.7709 13.7898 40.6867 13.7745 40.604 13.7862L38.8232 14.0418C38.504 13.4922 38.1293 12.9767 37.7052 12.5033L38.498 10.8898C38.5348 10.8148 38.5464 10.73 38.5311 10.648C38.5157 10.566 38.4743 10.4911 38.4129 10.4345C37.772 9.8446 37.0648 9.33118 36.3054 8.90459C36.2326 8.86373 36.1486 8.84746 36.0659 8.8582C35.9832 8.86894 35.9061 8.90613 35.8462 8.96421L34.5579 10.2154C33.9769 9.95807 33.3711 9.7609 32.75 9.62697L32.4403 7.85626C32.426 7.7741 32.3856 7.69875 32.3251 7.64141C32.2645 7.58407 32.1871 7.54782 32.1043 7.53804C31.2387 7.43739 30.3645 7.43739 29.4989 7.53804C29.416 7.54766 29.3384 7.58385 29.2777 7.6412C29.217 7.69855 29.1764 7.77398 29.1621 7.85626L28.8524 9.62697C28.2315 9.76067 27.6259 9.95785 27.0453 10.2154L25.7546 8.96266C25.6948 8.90458 25.6177 8.8674 25.535 8.85665C25.4522 8.84591 25.3682 8.86218 25.2955 8.90304C24.5365 9.33019 23.8295 9.84385 23.1888 10.4337C23.1274 10.4903 23.0859 10.5652 23.0706 10.6472C23.0552 10.7293 23.0668 10.8141 23.1036 10.889L23.8957 12.5025C23.4718 12.9759 23.0974 13.4914 22.7784 14.041L20.9976 13.7855C20.915 13.7737 20.8307 13.789 20.7575 13.8291C20.6842 13.8691 20.6259 13.9318 20.5912 14.0077C20.2282 14.7998 19.958 15.6312 19.7859 16.4853C19.7694 16.5672 19.7799 16.6523 19.8158 16.7278C19.8516 16.8033 19.911 16.8652 19.9849 16.9042L21.5752 17.7434C21.5094 18.3753 21.5094 19.0123 21.5752 19.6442L19.9849 20.4835C19.911 20.5225 19.8516 20.5844 19.8158 20.6599C19.7799 20.7354 19.7694 20.8204 19.7859 20.9024C19.958 21.7565 20.2282 22.5879 20.5912 23.38C20.6259 23.4559 20.6842 23.5186 20.7575 23.5586C20.8307 23.5987 20.915 23.614 20.9976 23.6022L22.7784 23.3467C23.0976 23.8959 23.472 24.4111 23.8957 24.8844L23.1036 26.4979C23.0668 26.5728 23.0552 26.6576 23.0706 26.7397C23.0859 26.8217 23.1274 26.8966 23.1888 26.9532C23.8306 27.5449 24.5392 28.0599 25.3002 28.4877C25.3729 28.5286 25.4569 28.5449 25.5396 28.5341C25.6223 28.5234 25.6994 28.4862 25.7593 28.4281L27.05 27.1715C27.6306 27.4287 28.2362 27.6256 28.8571 27.7592L29.1668 29.5299C29.1809 29.6123 29.2214 29.6879 29.2821 29.7454C29.3428 29.8029 29.4205 29.8392 29.5036 29.8489C30.3691 29.9495 31.2434 29.9495 32.1089 29.8489C32.1918 29.839 32.2694 29.8027 32.3299 29.7452C32.3905 29.6877 32.4308 29.6122 32.4449 29.5299L32.7546 27.7592C33.3758 27.6255 33.9815 27.4286 34.5625 27.1715L35.8524 28.4242C35.9123 28.4823 35.9894 28.5195 36.0721 28.5303C36.1548 28.541 36.2388 28.5247 36.3116 28.4839C37.0712 28.057 37.7785 27.5431 38.4191 26.9524C38.4804 26.8958 38.5219 26.8209 38.5372 26.7389C38.5526 26.6569 38.541 26.5721 38.5042 26.4971L37.7068 24.8851C38.1307 24.4119 38.5053 23.8967 38.8248 23.3475L40.6056 23.603C40.6881 23.6138 40.772 23.5982 40.8451 23.5582C40.9181 23.5183 40.9766 23.4561 41.012 23.3808C41.3754 22.5888 41.6456 21.7574 41.8173 20.9032C41.8336 20.8211 41.8229 20.7358 41.7868 20.6603C41.7506 20.5848 41.691 20.523 41.6167 20.4843ZM34.6794 18.695C34.6794 19.4616 34.4521 20.2109 34.0262 20.8483C33.6003 21.4857 32.995 21.9825 32.2868 22.2759C31.5786 22.5692 30.7992 22.646 30.0474 22.4964C29.2955 22.3469 28.6049 21.9777 28.0629 21.4357C27.5208 20.8936 27.1517 20.203 27.0021 19.4512C26.8526 18.6993 26.9293 17.92 27.2227 17.2118C27.516 16.5035 28.0128 15.8982 28.6502 15.4723C29.2876 15.0464 30.037 14.8191 30.8035 14.8191C31.8312 14.8201 32.8164 15.2288 33.5431 15.9555C34.2697 16.6821 34.6784 17.6674 34.6794 18.695Z" fill="black"/>
<path d="M60.1075 31.8944L58.8462 31.2278C58.8935 30.7363 58.8935 30.2413 58.8462 29.7498L60.1075 29.0839C60.1814 29.0449 60.2408 28.9831 60.2767 28.9076C60.3125 28.8321 60.323 28.747 60.3065 28.665C60.1647 27.9595 59.9415 27.2728 59.6414 26.6187C59.6065 26.5428 59.548 26.4802 59.4746 26.4403C59.4012 26.4004 59.3168 26.3853 59.2341 26.3973L57.8227 26.6001C57.5723 26.1741 57.2813 25.7733 56.954 25.4031L57.5827 24.1233C57.6194 24.0484 57.631 23.9636 57.6157 23.8815C57.6003 23.7995 57.5589 23.7246 57.4975 23.668C56.9681 23.1802 56.3837 22.7556 55.7562 22.4029C55.6835 22.362 55.5995 22.3458 55.5167 22.3565C55.434 22.3672 55.357 22.4044 55.2971 22.4625L54.2743 23.4567C53.8212 23.2594 53.35 23.1065 52.8675 22.9998L52.6244 21.5969C52.6101 21.5146 52.5695 21.4392 52.5088 21.3818C52.4481 21.3245 52.3705 21.2883 52.2876 21.2787C51.5728 21.1951 50.8507 21.1951 50.1359 21.2787C50.0531 21.2885 49.9757 21.3247 49.9151 21.3821C49.8546 21.4394 49.8142 21.5147 49.7999 21.5969L49.556 23.0029C49.0734 23.1096 48.6023 23.2625 48.1492 23.4597L47.1264 22.4656C47.0665 22.4075 46.9895 22.3703 46.9067 22.3596C46.824 22.3489 46.74 22.3651 46.6673 22.406C46.0397 22.7587 45.4554 23.1833 44.926 23.6711C44.8647 23.7278 44.8234 23.8027 44.8082 23.8847C44.793 23.9668 44.8047 24.0515 44.8416 24.1264L45.4703 25.4062C45.1428 25.7764 44.8516 26.1773 44.6008 26.6032L43.1893 26.3973C43.1066 26.3853 43.0223 26.4004 42.9489 26.4403C42.8755 26.4802 42.817 26.5428 42.7821 26.6187C42.4823 27.2729 42.2591 27.9596 42.117 28.665C42.1005 28.747 42.111 28.8321 42.1468 28.9076C42.1827 28.9831 42.242 29.0449 42.316 29.0839L43.578 29.7498C43.53 30.2413 43.53 30.7363 43.578 31.2278L42.316 31.8944C42.242 31.9334 42.1827 31.9953 42.1468 32.0708C42.111 32.1463 42.1005 32.2314 42.117 32.3133C42.259 33.0186 42.4822 33.705 42.7821 34.3589C42.8169 34.4347 42.8753 34.4971 42.9486 34.537C43.0218 34.5769 43.106 34.5921 43.1886 34.5803L44.6008 34.3782C44.8518 34.8038 45.1429 35.2044 45.4703 35.5745L44.8416 36.8551C44.8047 36.9299 44.793 37.0147 44.8082 37.0967C44.8234 37.1787 44.8647 37.2537 44.926 37.3103C45.4554 37.7975 46.0395 38.2218 46.6665 38.5747C46.7393 38.6157 46.8235 38.6321 46.9064 38.6214C46.9893 38.6106 47.0665 38.5733 47.1264 38.5151L48.1515 37.5233C48.6046 37.7206 49.0757 37.8736 49.5583 37.9801L49.8022 39.3853C49.8163 39.4676 49.8567 39.5432 49.9172 39.6006C49.9778 39.6581 50.0553 39.6945 50.1382 39.7043C50.853 39.7879 51.5751 39.7879 52.2899 39.7043C52.3729 39.6947 52.4506 39.6584 52.5114 39.6009C52.5721 39.5434 52.6125 39.4677 52.6267 39.3853L52.8698 37.9801C53.3524 37.8737 53.8236 37.7207 54.2766 37.5233L55.2994 38.5174C55.3593 38.5757 55.4365 38.6129 55.5194 38.6237C55.6023 38.6344 55.6865 38.6181 55.7593 38.577C56.3855 38.2246 56.9688 37.8009 57.4975 37.3142C57.5589 37.2576 57.6003 37.1828 57.6157 37.1007C57.631 37.0187 57.6194 36.9339 57.5827 36.8589L56.954 35.5783C57.2811 35.2083 57.5721 34.8077 57.8227 34.3821L59.2349 34.5842C59.3175 34.596 59.4017 34.5808 59.4749 34.5409C59.5481 34.501 59.6065 34.4385 59.6414 34.3628C59.9416 33.709 60.1648 33.0225 60.3065 32.3172C60.3239 32.2347 60.3139 32.1487 60.278 32.0724C60.242 31.9961 60.1822 31.9336 60.1075 31.8944ZM54.3192 30.4892C54.3193 31.1039 54.1372 31.7049 53.7957 32.2161C53.4543 32.7273 52.9689 33.1258 52.401 33.3611C51.8331 33.5964 51.2082 33.658 50.6052 33.5381C50.0023 33.4182 49.4485 33.1222 49.0138 32.6875C48.5791 32.2528 48.2831 31.699 48.1632 31.0961C48.0433 30.4931 48.1049 29.8682 48.3402 29.3003C48.5755 28.7324 48.974 28.247 49.4852 27.9056C49.9964 27.5641 50.5974 27.382 51.2121 27.3821C52.0363 27.3831 52.8263 27.7111 53.4088 28.2941C53.9914 28.8771 54.3188 29.6674 54.3192 30.4915V30.4892Z" fill="black"/>
<path d="M72.3968 12.7116C72.3888 12.6289 72.3543 12.5509 72.2986 12.4893C72.2428 12.4276 72.1687 12.3856 72.0871 12.3694L71.5018 12.2494C71.4645 12.0684 71.4167 11.8897 71.3586 11.7143L71.8053 11.3187C71.8673 11.2637 71.9101 11.1902 71.9272 11.1091C71.9444 11.028 71.935 10.9435 71.9005 10.8681C71.7448 10.5268 71.5568 10.2012 71.3392 9.89563C71.2911 9.82822 71.2227 9.77801 71.144 9.75237C71.0652 9.72673 70.9803 9.72701 70.9018 9.75317L70.3358 9.94131C70.2123 9.80385 70.0815 9.67307 69.944 9.54954L70.1322 8.98356C70.1583 8.905 70.1586 8.82012 70.133 8.74138C70.1073 8.66264 70.0571 8.5942 69.9897 8.54611C69.6841 8.32812 69.3582 8.14014 69.0165 7.98478C68.9412 7.95068 68.8571 7.94152 68.7763 7.95865C68.6955 7.97579 68.6223 8.01831 68.5674 8.08001L68.171 8.52676C67.9955 8.46873 67.8169 8.42065 67.636 8.38275L67.516 7.79896C67.4998 7.71756 67.4578 7.64351 67.3964 7.58775C67.3349 7.53199 67.2571 7.49746 67.1745 7.48926C66.8007 7.45287 66.4242 7.45287 66.0503 7.48926C65.9677 7.49746 65.8899 7.53199 65.8285 7.58775C65.767 7.64351 65.7251 7.71756 65.7089 7.79896L65.5888 8.38275C65.4079 8.42065 65.2293 8.46873 65.0538 8.52676L64.6574 8.08001C64.6025 8.01831 64.5293 7.97579 64.4485 7.95865C64.3677 7.94152 64.2836 7.95068 64.2084 7.98478C63.8667 8.14027 63.5408 8.32824 63.2351 8.54611C63.1677 8.5942 63.1175 8.66264 63.0919 8.74138C63.0662 8.82012 63.0665 8.905 63.0927 8.98356L63.2808 9.55032C63.1434 9.67358 63.0126 9.8041 62.889 9.94131L62.3231 9.75317C62.2445 9.72701 62.1596 9.72673 62.0809 9.75237C62.0021 9.77801 61.9337 9.82822 61.8856 9.89563C61.668 10.2012 61.4801 10.5268 61.3243 10.8681C61.2898 10.9435 61.2804 11.028 61.2976 11.1091C61.3147 11.1902 61.3575 11.2637 61.4195 11.3187L61.8662 11.7143C61.8081 11.8897 61.7603 12.0684 61.723 12.2494L61.1377 12.3694C61.0562 12.3856 60.982 12.4276 60.9263 12.4893C60.8705 12.5509 60.836 12.6289 60.828 12.7116C60.7924 13.085 60.7924 13.4609 60.828 13.8343C60.836 13.917 60.8705 13.9949 60.9263 14.0566C60.982 14.1182 61.0562 14.1602 61.1377 14.1765L61.723 14.2965C61.7603 14.4775 61.8081 14.6561 61.8662 14.8315L61.4195 15.2271C61.3576 15.2821 61.315 15.3554 61.2979 15.4364C61.2807 15.5173 61.29 15.6017 61.3243 15.677C61.4797 16.0186 61.6677 16.3446 61.8856 16.6502C61.9337 16.7176 62.0021 16.7678 62.0809 16.7935C62.1596 16.8191 62.2445 16.8188 62.3231 16.7927L62.8898 16.6045C63.0132 16.7404 63.1437 16.8696 63.2808 16.9916L63.0927 17.5584C63.0666 17.6368 63.0663 17.7214 63.0918 17.8C63.1173 17.8786 63.1672 17.9469 63.2343 17.9951C63.5401 18.2134 63.8663 18.4017 64.2084 18.5572C64.2837 18.5915 64.368 18.6007 64.4489 18.5836C64.5299 18.5664 64.6032 18.5238 64.6582 18.4619L65.0538 18.0152C65.2292 18.0733 65.4079 18.1212 65.5888 18.1584L65.7089 18.7438C65.7251 18.8253 65.7671 18.8994 65.8288 18.9552C65.8904 19.011 65.9683 19.0454 66.0511 19.0535C66.4244 19.0899 66.8004 19.0899 67.1737 19.0535C67.2565 19.0454 67.3344 19.011 67.3961 18.9552C67.4577 18.8994 67.4997 18.8253 67.516 18.7438L67.636 18.1584C67.8169 18.1212 67.9956 18.0733 68.171 18.0152L68.5666 18.4619C68.6216 18.524 68.6951 18.5667 68.7762 18.5839C68.8573 18.601 68.9418 18.5917 69.0172 18.5572C69.3586 18.4013 69.6843 18.2131 69.9897 17.9951C70.0569 17.947 70.1071 17.8787 70.1327 17.8001C70.1583 17.7216 70.1581 17.6369 70.1322 17.5584L69.944 16.9924C70.0812 16.8689 70.2117 16.7381 70.335 16.6007L70.9018 16.7888C70.9803 16.815 71.0652 16.8152 71.144 16.7896C71.2227 16.764 71.2911 16.7137 71.3392 16.6463C71.5571 16.3407 71.7451 16.0148 71.9005 15.6731C71.9348 15.5978 71.9441 15.5135 71.927 15.4325C71.9098 15.3515 71.8672 15.2782 71.8053 15.2233L71.3586 14.8276C71.4167 14.6522 71.4645 14.4736 71.5018 14.2926L72.0871 14.1726C72.1687 14.1564 72.2428 14.1143 72.2986 14.0527C72.3543 13.9911 72.3888 13.9131 72.3968 13.8304C72.4322 13.4583 72.4322 13.0837 72.3968 12.7116ZM68.2244 13.2729C68.2244 13.5913 68.13 13.9025 67.9531 14.1672C67.7763 14.4319 67.5249 14.6382 67.2307 14.7601C66.9366 14.8819 66.6129 14.9138 66.3007 14.8517C65.9885 14.7895 65.7016 14.6362 65.4765 14.4111C65.2514 14.186 65.0981 13.8992 65.036 13.5869C64.9739 13.2747 65.0058 12.9511 65.1276 12.6569C65.2494 12.3628 65.4557 12.1114 65.7205 11.9345C65.9852 11.7577 66.2964 11.6632 66.6147 11.6632C67.0415 11.6637 67.4507 11.8334 67.7525 12.1352C68.0543 12.4369 68.224 12.8461 68.2244 13.2729Z" fill="black"/>
<path d="M140.913 13.0337C140.85 12.9534 140.757 12.9016 140.656 12.8894C140.554 12.8772 140.452 12.9057 140.371 12.9686L110.035 36.8156L103.935 21.4629C103.912 21.4036 103.874 21.3511 103.825 21.3099C103.776 21.2688 103.718 21.2404 103.655 21.2272C103.593 21.214 103.528 21.2165 103.467 21.2344C103.406 21.2523 103.35 21.285 103.304 21.3298L79.5525 44.6889L75.3785 32.8499C75.3571 32.7894 75.321 32.7352 75.2735 32.6922C75.226 32.6491 75.1685 32.6186 75.1062 32.6032C75.044 32.5879 74.9789 32.5882 74.9168 32.6042C74.8547 32.6203 74.7976 32.6515 74.7505 32.695L49.6083 55.9675L42.8313 44.3343C42.8027 44.285 42.7636 44.2427 42.7167 44.2102C42.6698 44.1778 42.6164 44.1561 42.5602 44.1467C42.504 44.1373 42.4464 44.1405 42.3915 44.1559C42.3367 44.1713 42.2859 44.1987 42.2428 44.236L30.5516 54.3694C30.474 54.4367 30.4263 54.532 30.419 54.6344C30.4116 54.7369 30.4453 54.838 30.5125 54.9156C30.5798 54.9933 30.6751 55.041 30.7776 55.0483C30.88 55.0557 30.9812 55.022 31.0588 54.9547L42.3969 45.1272L49.1817 56.7735C49.2157 56.8322 49.2647 56.8809 49.3235 56.9147C49.3823 56.9485 49.449 56.9663 49.5169 56.9662C49.7492 56.9662 48.0187 58.4931 74.8442 33.6613L79.0252 45.5189C79.0468 45.5804 79.0836 45.6354 79.1321 45.6789C79.1806 45.7224 79.2393 45.7529 79.3028 45.7677C79.3663 45.7824 79.4324 45.7809 79.4951 45.7633C79.5579 45.7456 79.6151 45.7125 79.6616 45.6668L103.431 22.2844L109.507 37.5767C109.53 37.6325 109.565 37.6824 109.61 37.7224C109.655 37.7624 109.708 37.7913 109.766 37.807C109.824 37.8226 109.885 37.8245 109.944 37.8125C110.003 37.8004 110.059 37.7748 110.106 37.7377L140.85 13.5741C140.929 13.5105 140.981 13.4181 140.993 13.3169C141.005 13.2158 140.976 13.114 140.913 13.0337Z" fill="black"/>
<path d="M39.3994 44.7935C39.3994 45.6148 39.7257 46.4026 40.3065 46.9834C40.8873 47.5642 41.675 47.8905 42.4964 47.8905C43.3178 47.8905 44.1055 47.5642 44.6863 46.9834C45.2671 46.4026 45.5934 45.6148 45.5934 44.7935C45.5934 43.9721 45.2671 43.1843 44.6863 42.6035C44.1055 42.0227 43.3178 41.6965 42.4964 41.6965C41.675 41.6965 40.8873 42.0227 40.3065 42.6035C39.7257 43.1843 39.3994 43.9721 39.3994 44.7935Z" fill="#FFD997"/>
<path d="M41.1416 44.7935C41.1416 44.9714 41.1766 45.1476 41.2447 45.312C41.3128 45.4764 41.4126 45.6257 41.5385 45.7515C41.6643 45.8774 41.8136 45.9772 41.978 46.0453C42.1424 46.1133 42.3186 46.1484 42.4965 46.1484C42.6745 46.1484 42.8507 46.1133 43.0151 46.0453C43.1794 45.9772 43.3288 45.8774 43.4546 45.7515C43.5804 45.6257 43.6803 45.4764 43.7483 45.312C43.8164 45.1476 43.8515 44.9714 43.8515 44.7935C43.8515 44.6155 43.8164 44.4393 43.7483 44.2749C43.6803 44.1106 43.5804 43.9612 43.4546 43.8354C43.3288 43.7096 43.1794 43.6097 43.0151 43.5417C42.8507 43.4736 42.6745 43.4385 42.4965 43.4385C42.3186 43.4385 42.1424 43.4736 41.978 43.5417C41.8136 43.6097 41.6643 43.7096 41.5385 43.8354C41.4126 43.9612 41.3128 44.1106 41.2447 44.2749C41.1766 44.4393 41.1416 44.6155 41.1416 44.7935Z" fill="white"/>
<path d="M42.4993 41.3093C41.8102 41.3093 41.1366 41.5137 40.5636 41.8965C39.9906 42.2793 39.5441 42.8235 39.2804 43.4601C39.0166 44.0968 38.9476 44.7973 39.0821 45.4732C39.2165 46.149 39.5484 46.7698 40.0356 47.2571C40.5229 47.7444 41.1437 48.0762 41.8195 48.2106C42.4954 48.3451 43.1959 48.2761 43.8326 48.0124C44.4692 47.7487 45.0134 47.3021 45.3962 46.7291C45.7791 46.1562 45.9834 45.4826 45.9834 44.7935C45.9834 43.8694 45.6163 42.9832 44.9629 42.3298C44.3095 41.6764 43.4233 41.3093 42.4993 41.3093ZM42.4993 47.5033C41.9633 47.5033 41.4394 47.3444 40.9937 47.0466C40.5481 46.7489 40.2008 46.3256 39.9957 45.8305C39.7906 45.3353 39.7369 44.7905 39.8415 44.2648C39.946 43.7391 40.2041 43.2563 40.5831 42.8773C40.9621 42.4983 41.4449 42.2402 41.9706 42.1356C42.4963 42.0311 43.0411 42.0848 43.5363 42.2899C44.0315 42.495 44.4547 42.8423 44.7525 43.2879C45.0502 43.7336 45.2091 44.2575 45.2091 44.7935C45.2091 45.5122 44.9236 46.2014 44.4154 46.7096C43.9072 47.2178 43.218 47.5033 42.4993 47.5033Z" fill="black"/>
<path d="M42.4989 43.0514C42.1544 43.0514 41.8175 43.1536 41.5311 43.345C41.2446 43.5364 41.0213 43.8085 40.8894 44.1268C40.7576 44.4451 40.7231 44.7954 40.7903 45.1333C40.8575 45.4712 41.0234 45.7817 41.2671 46.0253C41.5107 46.2689 41.8211 46.4348 42.159 46.5021C42.497 46.5693 42.8472 46.5348 43.1656 46.4029C43.4839 46.2711 43.756 46.0478 43.9474 45.7613C44.1388 45.4748 44.241 45.138 44.241 44.7935C44.2406 44.3316 44.0569 43.8887 43.7303 43.5621C43.4037 43.2355 42.9608 43.0518 42.4989 43.0514ZM42.4989 45.7613C42.3075 45.7613 42.1204 45.7045 41.9612 45.5982C41.8021 45.4918 41.678 45.3407 41.6048 45.1638C41.5315 44.987 41.5123 44.7924 41.5497 44.6047C41.587 44.4169 41.6792 44.2445 41.8146 44.1091C41.9499 43.9738 42.1224 43.8816 42.3101 43.8442C42.4978 43.8069 42.6924 43.8261 42.8693 43.8993C43.0461 43.9726 43.1973 44.0966 43.3036 44.2558C43.41 44.4149 43.4667 44.602 43.4667 44.7935C43.4665 45.0501 43.3645 45.2961 43.183 45.4776C43.0016 45.659 42.7555 45.7611 42.4989 45.7613Z" fill="black"/>
<path d="M46.5205 56.209C46.5205 57.0304 46.8468 57.8181 47.4276 58.3989C48.0084 58.9797 48.7961 59.306 49.6175 59.306C50.4389 59.306 51.2266 58.9797 51.8074 58.3989C52.3882 57.8181 52.7145 57.0304 52.7145 56.209C52.7145 55.3876 52.3882 54.5999 51.8074 54.0191C51.2266 53.4383 50.4389 53.112 49.6175 53.112C48.7961 53.112 48.0084 53.4383 47.4276 54.0191C46.8468 54.5999 46.5205 55.3876 46.5205 56.209Z" fill="#FFD997"/>
<path d="M48.2622 56.209C48.2622 56.5684 48.405 56.913 48.6591 57.1671C48.9132 57.4212 49.2578 57.564 49.6171 57.564C49.9765 57.564 50.3211 57.4212 50.5752 57.1671C50.8293 56.913 50.9721 56.5684 50.9721 56.209C50.9721 55.8497 50.8293 55.505 50.5752 55.2509C50.3211 54.9968 49.9765 54.8541 49.6171 54.8541C49.2578 54.8541 48.9132 54.9968 48.6591 55.2509C48.405 55.505 48.2622 55.8497 48.2622 56.209Z" fill="white"/>
<path d="M49.6174 52.7218C48.9283 52.7218 48.2547 52.9261 47.6818 53.309C47.1088 53.6918 46.6622 54.236 46.3985 54.8726C46.1348 55.5092 46.0658 56.2098 46.2002 56.8856C46.3347 57.5615 46.6665 58.1823 47.1538 58.6696C47.641 59.1568 48.2619 59.4887 48.9377 59.6231C49.6136 59.7575 50.3141 59.6886 50.9508 59.4248C51.5874 59.1611 52.1315 58.7146 52.5144 58.1416C52.8972 57.5686 53.1016 56.895 53.1016 56.2059C53.1016 55.2819 52.7345 54.3957 52.0811 53.7423C51.4277 53.0889 50.5415 52.7218 49.6174 52.7218ZM49.6174 58.9158C49.0815 58.9158 48.5575 58.7569 48.1119 58.4591C47.6663 58.1613 47.3189 57.7381 47.1138 57.243C46.9087 56.7478 46.8551 56.2029 46.9596 55.6773C47.0642 55.1516 47.3223 54.6687 47.7013 54.2898C48.0802 53.9108 48.5631 53.6527 49.0888 53.5481C49.6144 53.4436 50.1593 53.4972 50.6545 53.7023C51.1496 53.9074 51.5729 54.2548 51.8706 54.7004C52.1684 55.146 52.3273 55.67 52.3273 56.2059C52.3273 56.9246 52.0418 57.6139 51.5336 58.1221C51.0254 58.6303 50.3361 58.9158 49.6174 58.9158Z" fill="black"/>
<path d="M49.6171 54.4662C49.2725 54.4662 48.9357 54.5684 48.6492 54.7598C48.3627 54.9512 48.1395 55.2233 48.0076 55.5416C47.8758 55.8599 47.8413 56.2102 47.9085 56.5481C47.9757 56.886 48.1416 57.1964 48.3852 57.4401C48.6289 57.6837 48.9393 57.8496 49.2772 57.9168C49.6151 57.9841 49.9654 57.9496 50.2837 57.8177C50.602 57.6859 50.8741 57.4626 51.0655 57.1761C51.257 56.8896 51.3591 56.5528 51.3591 56.2082C51.3585 55.7464 51.1748 55.3037 50.8482 54.9771C50.5216 54.6505 50.0789 54.4668 49.6171 54.4662ZM49.6171 57.1761C49.4256 57.1761 49.2385 57.1193 49.0794 57.013C48.9202 56.9066 48.7962 56.7555 48.7229 56.5786C48.6497 56.4018 48.6305 56.2072 48.6678 56.0194C48.7052 55.8317 48.7974 55.6593 48.9327 55.5239C49.0681 55.3886 49.2405 55.2964 49.4283 55.259C49.616 55.2217 49.8106 55.2409 49.9874 55.3141C50.1643 55.3874 50.3154 55.5114 50.4218 55.6706C50.5281 55.8297 50.5849 56.0168 50.5849 56.2082C50.5849 56.4649 50.4829 56.7111 50.3014 56.8926C50.1199 57.0741 49.8737 57.1761 49.6171 57.1761Z" fill="black"/>
<path d="M71.8896 33.1658C71.8896 33.9871 72.2159 34.7749 72.7967 35.3557C73.3775 35.9365 74.1653 36.2628 74.9867 36.2628C75.808 36.2628 76.5958 35.9365 77.1766 35.3557C77.7574 34.7749 78.0837 33.9871 78.0837 33.1658C78.0837 32.3444 77.7574 31.5566 77.1766 30.9758C76.5958 30.395 75.808 30.0687 74.9867 30.0687C74.1653 30.0687 73.3775 30.395 72.7967 30.9758C72.2159 31.5566 71.8896 32.3444 71.8896 33.1658Z" fill="#FFD997"/>
<path d="M73.6313 33.1658C73.6313 33.5251 73.7741 33.8697 74.0282 34.1238C74.2823 34.3779 74.6269 34.5207 74.9863 34.5207C75.3456 34.5207 75.6903 34.3779 75.9444 34.1238C76.1985 33.8697 76.3412 33.5251 76.3412 33.1658C76.3412 32.8064 76.1985 32.4618 75.9444 32.2077C75.6903 31.9536 75.3456 31.8108 74.9863 31.8108C74.6269 31.8108 74.2823 31.9536 74.0282 32.2077C73.7741 32.4618 73.6313 32.8064 73.6313 33.1658Z" fill="white"/>
<path d="M74.9866 29.6816C74.2975 29.6816 73.6239 29.886 73.0509 30.2688C72.4779 30.6516 72.0314 31.1958 71.7677 31.8324C71.5039 32.4691 71.435 33.1696 71.5694 33.8455C71.7038 34.5213 72.0357 35.1421 72.5229 35.6294C73.0102 36.1167 73.631 36.4485 74.3069 36.5829C74.9827 36.7174 75.6832 36.6484 76.3199 36.3847C76.9565 36.121 77.5007 35.6744 77.8835 35.1014C78.2664 34.5285 78.4707 33.8549 78.4707 33.1658C78.4707 32.2417 78.1036 31.3555 77.4502 30.7021C76.7968 30.0487 75.9106 29.6816 74.9866 29.6816ZM74.9866 35.8756C74.4506 35.8756 73.9267 35.7167 73.481 35.4189C73.0354 35.1212 72.6881 34.6979 72.483 34.2028C72.2779 33.7076 72.2242 33.1627 72.3288 32.6371C72.4333 32.1114 72.6914 31.6286 73.0704 31.2496C73.4494 30.8706 73.9322 30.6125 74.4579 30.5079C74.9836 30.4034 75.5284 30.457 76.0236 30.6622C76.5188 30.8673 76.942 31.2146 77.2398 31.6602C77.5375 32.1059 77.6965 32.6298 77.6965 33.1658C77.6965 33.8845 77.4109 34.5737 76.9027 35.0819C76.3945 35.5901 75.7053 35.8756 74.9866 35.8756Z" fill="black"/>
<path d="M74.9867 31.4237C74.6421 31.4237 74.3053 31.5259 74.0189 31.7173C73.7324 31.9087 73.5091 32.1808 73.3772 32.4991C73.2454 32.8174 73.2109 33.1677 73.2781 33.5056C73.3453 33.8435 73.5112 34.1539 73.7549 34.3976C73.9985 34.6412 74.3089 34.8071 74.6468 34.8743C74.9848 34.9416 75.335 34.9071 75.6534 34.7752C75.9717 34.6434 76.2438 34.4201 76.4352 34.1336C76.6266 33.8471 76.7288 33.5103 76.7288 33.1658C76.7283 32.7039 76.5447 32.261 76.2181 31.9344C75.8915 31.6078 75.4486 31.4241 74.9867 31.4237ZM74.9867 34.1336C74.7953 34.1336 74.6082 34.0768 74.449 33.9705C74.2899 33.8641 74.1658 33.713 74.0926 33.5361C74.0193 33.3593 74.0001 33.1647 74.0375 32.9769C74.0748 32.7892 74.167 32.6168 74.3023 32.4814C74.4377 32.3461 74.6101 32.2539 74.7979 32.2165C74.9856 32.1792 75.1802 32.1984 75.3571 32.2716C75.5339 32.3449 75.6851 32.4689 75.7914 32.6281C75.8977 32.7872 75.9545 32.9743 75.9545 33.1658C75.9543 33.4224 75.8523 33.6684 75.6708 33.8499C75.4894 34.0313 75.2433 34.1334 74.9867 34.1336Z" fill="black"/>
<path d="M76.2983 44.8399C76.2983 45.6613 76.6246 46.449 77.2054 47.0298C77.7862 47.6106 78.574 47.9369 79.3953 47.9369C80.2167 47.9369 81.0045 47.6106 81.5853 47.0298C82.1661 46.449 82.4924 45.6613 82.4924 44.8399C82.4924 44.0185 82.1661 43.2308 81.5853 42.65C81.0045 42.0692 80.2167 41.7429 79.3953 41.7429C78.574 41.7429 77.7862 42.0692 77.2054 42.65C76.6246 43.2308 76.2983 44.0185 76.2983 44.8399Z" fill="#FFD997"/>
<path d="M78.0405 44.8399C78.0405 45.1993 78.1833 45.5439 78.4374 45.798C78.6915 46.0521 79.0361 46.1949 79.3955 46.1949C79.7548 46.1949 80.0995 46.0521 80.3536 45.798C80.6077 45.5439 80.7504 45.1993 80.7504 44.8399C80.7504 44.4806 80.6077 44.1359 80.3536 43.8818C80.0995 43.6277 79.7548 43.485 79.3955 43.485C79.0361 43.485 78.6915 43.6277 78.4374 43.8818C78.1833 44.1359 78.0405 44.4806 78.0405 44.8399Z" fill="white"/>
<path d="M79.3958 41.3558C78.7067 41.3558 78.033 41.5601 77.4601 41.943C76.8871 42.3258 76.4405 42.87 76.1768 43.5066C75.9131 44.1432 75.8441 44.8438 75.9786 45.5196C76.113 46.1955 76.4448 46.8163 76.9321 47.3036C77.4194 47.7908 78.0402 48.1227 78.716 48.2571C79.3919 48.3915 80.0924 48.3225 80.7291 48.0588C81.3657 47.7951 81.9099 47.3486 82.2927 46.7756C82.6755 46.2026 82.8799 45.529 82.8799 44.8399C82.8789 43.9162 82.5115 43.0306 81.8583 42.3774C81.2051 41.7242 80.3195 41.3568 79.3958 41.3558ZM79.3958 47.5498C78.8598 47.5498 78.3359 47.3909 77.8902 47.0931C77.4446 46.7953 77.0973 46.3721 76.8922 45.8769C76.687 45.3818 76.6334 44.8369 76.7379 44.3112C76.8425 43.7856 77.1006 43.3027 77.4796 42.9237C77.8586 42.5448 78.3414 42.2867 78.8671 42.1821C79.3927 42.0775 79.9376 42.1312 80.4328 42.3363C80.9279 42.5414 81.3512 42.8887 81.6489 43.3344C81.9467 43.78 82.1056 44.3039 82.1056 44.8399C82.1056 45.5586 81.8201 46.2479 81.3119 46.7561C80.8037 47.2643 80.1145 47.5498 79.3958 47.5498Z" fill="black"/>
<path d="M79.3954 43.0979C79.0508 43.0979 78.714 43.2 78.4275 43.3914C78.1411 43.5829 77.9178 43.8549 77.7859 44.1733C77.6541 44.4916 77.6196 44.8418 77.6868 45.1798C77.754 45.5177 77.9199 45.8281 78.1636 46.0717C78.4072 46.3154 78.7176 46.4813 79.0555 46.5485C79.3935 46.6157 79.7437 46.5812 80.062 46.4494C80.3804 46.3175 80.6524 46.0942 80.8439 45.8078C81.0353 45.5213 81.1375 45.1845 81.1375 44.8399C81.137 44.378 80.9534 43.9352 80.6268 43.6085C80.3001 43.2819 79.8573 43.0983 79.3954 43.0979ZM79.3954 45.8077C79.204 45.8077 79.0169 45.751 78.8577 45.6446C78.6985 45.5383 78.5745 45.3871 78.5012 45.2103C78.428 45.0334 78.4088 44.8388 78.4462 44.6511C78.4835 44.4634 78.5757 44.2909 78.711 44.1556C78.8464 44.0202 79.0188 43.928 79.2066 43.8907C79.3943 43.8534 79.5889 43.8725 79.7658 43.9458C79.9426 44.019 80.0937 44.1431 80.2001 44.3022C80.3064 44.4614 80.3632 44.6485 80.3632 44.8399C80.363 45.0965 80.261 45.3426 80.0795 45.524C79.8981 45.7055 79.652 45.8075 79.3954 45.8077Z" fill="black"/>
<path d="M100.563 21.7316C100.563 22.553 100.89 23.3407 101.471 23.9215C102.051 24.5023 102.839 24.8286 103.66 24.8286C104.482 24.8286 105.27 24.5023 105.85 23.9215C106.431 23.3407 106.757 22.553 106.757 21.7316C106.757 20.9102 106.431 20.1225 105.85 19.5417C105.27 18.9609 104.482 18.6346 103.66 18.6346C102.839 18.6346 102.051 18.9609 101.471 19.5417C100.89 20.1225 100.563 20.9102 100.563 21.7316Z" fill="#FFD997"/>
<path d="M102.305 21.7316C102.305 22.091 102.448 22.4356 102.702 22.6897C102.956 22.9438 103.301 23.0865 103.66 23.0865C104.019 23.0865 104.364 22.9438 104.618 22.6897C104.872 22.4356 105.015 22.091 105.015 21.7316C105.015 21.3723 104.872 21.0276 104.618 20.7735C104.364 20.5194 104.019 20.3767 103.66 20.3767C103.301 20.3767 102.956 20.5194 102.702 20.7735C102.448 21.0276 102.305 21.3723 102.305 21.7316Z" fill="white"/>
<path d="M103.66 18.2475C102.971 18.2475 102.298 18.4518 101.725 18.8347C101.152 19.2175 100.705 19.7616 100.441 20.3983C100.178 21.0349 100.109 21.7355 100.243 22.4113C100.378 23.0872 100.709 23.708 101.197 24.1953C101.684 24.6825 102.305 25.0144 102.981 25.1488C103.657 25.2832 104.357 25.2142 104.994 24.9505C105.63 24.6868 106.175 24.2402 106.557 23.6673C106.94 23.0943 107.145 22.4207 107.145 21.7316C107.145 20.8076 106.777 19.9214 106.124 19.268C105.471 18.6146 104.584 18.2475 103.66 18.2475ZM103.66 24.4415C103.124 24.4415 102.601 24.2826 102.155 23.9848C101.709 23.687 101.362 23.2638 101.157 22.7686C100.952 22.2735 100.898 21.7286 101.003 21.2029C101.107 20.6773 101.365 20.1944 101.744 19.8154C102.123 19.4364 102.606 19.1784 103.132 19.0738C103.657 18.9692 104.202 19.0229 104.697 19.228C105.193 19.4331 105.616 19.7804 105.914 20.2261C106.211 20.6717 106.37 21.1956 106.37 21.7316C106.37 22.4503 106.085 23.1396 105.577 23.6478C105.068 24.156 104.379 24.4415 103.66 24.4415Z" fill="black"/>
<path d="M103.66 19.9895C103.315 19.9895 102.979 20.0917 102.692 20.2831C102.406 20.4745 102.182 20.7466 102.051 21.0649C101.919 21.3833 101.884 21.7335 101.951 22.0715C102.019 22.4094 102.185 22.7198 102.428 22.9634C102.672 23.2071 102.982 23.373 103.32 23.4402C103.658 23.5074 104.008 23.4729 104.327 23.3411C104.645 23.2092 104.917 22.9859 105.109 22.6994C105.3 22.413 105.402 22.0762 105.402 21.7316C105.402 21.2697 105.218 20.8268 104.891 20.5002C104.565 20.1736 104.122 19.9899 103.66 19.9895ZM103.66 22.6994C103.469 22.6994 103.281 22.6427 103.122 22.5363C102.963 22.43 102.839 22.2788 102.766 22.102C102.693 21.9251 102.673 21.7305 102.711 21.5428C102.748 21.3551 102.84 21.1826 102.976 21.0473C103.111 20.9119 103.283 20.8197 103.471 20.7824C103.659 20.745 103.854 20.7642 104.03 20.8375C104.207 20.9107 104.358 21.0348 104.465 21.1939C104.571 21.3531 104.628 21.5402 104.628 21.7316C104.628 21.9883 104.526 22.2345 104.344 22.416C104.163 22.5975 103.917 22.6994 103.66 22.6994Z" fill="black"/>
<path d="M137.443 13.3496C137.443 14.1709 137.77 14.9587 138.35 15.5395C138.931 16.1203 139.719 16.4466 140.54 16.4466C141.362 16.4466 142.149 16.1203 142.73 15.5395C143.311 14.9587 143.637 14.1709 143.637 13.3496C143.637 12.5282 143.311 11.7404 142.73 11.1596C142.149 10.5788 141.362 10.2526 140.54 10.2526C139.719 10.2526 138.931 10.5788 138.35 11.1596C137.77 11.7404 137.443 12.5282 137.443 13.3496Z" fill="#FFD997"/>
<path d="M139.186 13.3496C139.186 13.7089 139.328 14.0535 139.582 14.3076C139.836 14.5617 140.181 14.7045 140.54 14.7045C140.9 14.7045 141.244 14.5617 141.499 14.3076C141.753 14.0535 141.895 13.7089 141.895 13.3496C141.895 12.9902 141.753 12.6456 141.499 12.3915C141.244 12.1374 140.9 11.9946 140.54 11.9946C140.181 11.9946 139.836 12.1374 139.582 12.3915C139.328 12.6456 139.186 12.9902 139.186 13.3496Z" fill="white"/>
<path d="M140.54 9.86543C139.851 9.86543 139.178 10.0698 138.605 10.4526C138.032 10.8355 137.585 11.3796 137.321 12.0162C137.058 12.6529 136.989 13.3534 137.123 14.0293C137.258 14.7051 137.589 15.326 138.077 15.8132C138.564 16.3005 139.185 16.6323 139.861 16.7667C140.536 16.9012 141.237 16.8322 141.874 16.5685C142.51 16.3048 143.054 15.8582 143.437 15.2852C143.82 14.7123 144.024 14.0387 144.024 13.3496C144.024 12.4255 143.657 11.5393 143.004 10.8859C142.351 10.2325 141.464 9.86543 140.54 9.86543ZM140.54 16.0594C140.004 16.0594 139.48 15.9005 139.035 15.6027C138.589 15.305 138.242 14.8818 138.037 14.3866C137.832 13.8914 137.778 13.3466 137.882 12.8209C137.987 12.2952 138.245 11.8124 138.624 11.4334C139.003 11.0544 139.486 10.7963 140.012 10.6918C140.537 10.5872 141.082 10.6409 141.577 10.846C142.072 11.0511 142.496 11.3984 142.793 11.844C143.091 12.2897 143.25 12.8136 143.25 13.3496C143.25 14.0683 142.965 14.7575 142.456 15.2657C141.948 15.7739 141.259 16.0594 140.54 16.0594Z" fill="black"/>
<path d="M140.54 11.609C140.196 11.609 139.859 11.7112 139.573 11.9026C139.286 12.0941 139.063 12.3661 138.931 12.6845C138.799 13.0028 138.765 13.353 138.832 13.691C138.899 14.0289 139.065 14.3393 139.309 14.5829C139.552 14.8266 139.863 14.9925 140.201 15.0597C140.538 15.1269 140.889 15.0924 141.207 14.9606C141.525 14.8287 141.797 14.6054 141.989 14.319C142.18 14.0325 142.282 13.6957 142.282 13.3511C142.282 12.8892 142.098 12.4464 141.772 12.1197C141.445 11.7931 141.002 11.6095 140.54 11.609ZM140.54 14.3189C140.349 14.3189 140.162 14.2622 140.003 14.1558C139.844 14.0495 139.72 13.8983 139.646 13.7215C139.573 13.5446 139.554 13.35 139.591 13.1623C139.629 12.9746 139.721 12.8021 139.856 12.6668C139.991 12.5314 140.164 12.4392 140.352 12.4019C140.539 12.3646 140.734 12.3837 140.911 12.457C141.088 12.5302 141.239 12.6543 141.345 12.8134C141.451 12.9726 141.508 13.1597 141.508 13.3511C141.508 13.6077 141.406 13.8538 141.225 14.0352C141.043 14.2167 140.797 14.3187 140.54 14.3189Z" fill="black"/>
<path d="M106.917 37.2484C106.917 38.0698 107.243 38.8575 107.824 39.4383C108.405 40.0191 109.193 40.3454 110.014 40.3454C110.835 40.3454 111.623 40.0191 112.204 39.4383C112.785 38.8575 113.111 38.0698 113.111 37.2484C113.111 36.427 112.785 35.6393 112.204 35.0585C111.623 34.4777 110.835 34.1514 110.014 34.1514C109.193 34.1514 108.405 34.4777 107.824 35.0585C107.243 35.6393 106.917 36.427 106.917 37.2484Z" fill="#FFD997"/>
<path d="M108.659 37.2484C108.659 37.6077 108.801 37.9524 109.056 38.2065C109.31 38.4606 109.654 38.6033 110.014 38.6033C110.373 38.6033 110.718 38.4606 110.972 38.2065C111.226 37.9524 111.369 37.6077 111.369 37.2484C111.369 36.889 111.226 36.5444 110.972 36.2903C110.718 36.0362 110.373 35.8934 110.014 35.8934C109.654 35.8934 109.31 36.0362 109.056 36.2903C108.801 36.5444 108.659 36.889 108.659 37.2484Z" fill="white"/>
<path d="M110.014 33.7643C109.325 33.7643 108.651 33.9686 108.078 34.3514C107.505 34.7343 107.059 35.2784 106.795 35.9151C106.531 36.5517 106.462 37.2522 106.597 37.9281C106.731 38.604 107.063 39.2248 107.55 39.712C108.038 40.1993 108.658 40.5311 109.334 40.6656C110.01 40.8 110.711 40.731 111.347 40.4673C111.984 40.2036 112.528 39.757 112.911 39.1841C113.294 38.6111 113.498 37.9375 113.498 37.2484C113.498 36.3243 113.131 35.4381 112.478 34.7847C111.824 34.1313 110.938 33.7643 110.014 33.7643ZM110.014 39.9583C109.478 39.9583 108.954 39.7993 108.508 39.5016C108.063 39.2038 107.715 38.7806 107.51 38.2854C107.305 37.7902 107.252 37.2454 107.356 36.7197C107.461 36.194 107.719 35.7112 108.098 35.3322C108.477 34.9532 108.96 34.6951 109.485 34.5906C110.011 34.486 110.556 34.5397 111.051 34.7448C111.546 34.9499 111.969 35.2972 112.267 35.7429C112.565 36.1885 112.724 36.7124 112.724 37.2484C112.724 37.9671 112.438 38.6564 111.93 39.1646C111.422 39.6728 110.733 39.9583 110.014 39.9583Z" fill="black"/>
<path d="M110.014 35.5063C109.669 35.5063 109.332 35.6085 109.046 35.7999C108.759 35.9913 108.536 36.2634 108.404 36.5817C108.272 36.9 108.238 37.2503 108.305 37.5882C108.372 37.9262 108.538 38.2366 108.782 38.4802C109.025 38.7238 109.336 38.8898 109.674 38.957C110.012 39.0242 110.362 38.9897 110.68 38.8578C110.999 38.726 111.271 38.5027 111.462 38.2162C111.653 37.9297 111.756 37.5929 111.756 37.2484C111.755 36.7865 111.572 36.3436 111.245 36.017C110.918 35.6904 110.475 35.5067 110.014 35.5063ZM110.014 38.2162C109.822 38.2162 109.635 38.1594 109.476 38.0531C109.317 37.9467 109.193 37.7956 109.119 37.6187C109.046 37.4419 109.027 37.2473 109.064 37.0596C109.102 36.8718 109.194 36.6994 109.329 36.564C109.465 36.4287 109.637 36.3365 109.825 36.2992C110.012 36.2618 110.207 36.281 110.384 36.3542C110.561 36.4275 110.712 36.5515 110.818 36.7107C110.925 36.8698 110.981 37.057 110.981 37.2484C110.981 37.505 110.879 37.751 110.698 37.9325C110.516 38.114 110.27 38.216 110.014 38.2162Z" fill="black"/>
<path d="M27.7065 54.9354C27.7065 55.7568 28.0328 56.5445 28.6136 57.1253C29.1944 57.7061 29.9822 58.0324 30.8035 58.0324C31.6249 58.0324 32.4127 57.7061 32.9935 57.1253C33.5743 56.5445 33.9006 55.7568 33.9006 54.9354C33.9006 54.114 33.5743 53.3263 32.9935 52.7455C32.4127 52.1647 31.6249 51.8384 30.8035 51.8384C29.9822 51.8384 29.1944 52.1647 28.6136 52.7455C28.0328 53.3263 27.7065 54.114 27.7065 54.9354Z" fill="#FFD997"/>
<path d="M29.4482 54.9354C29.4482 55.2947 29.591 55.6394 29.8451 55.8935C30.0992 56.1476 30.4438 56.2903 30.8032 56.2903C31.1625 56.2903 31.5072 56.1476 31.7613 55.8935C32.0154 55.6394 32.1581 55.2947 32.1581 54.9354C32.1581 54.576 32.0154 54.2314 31.7613 53.9773C31.5072 53.7232 31.1625 53.5804 30.8032 53.5804C30.4438 53.5804 30.0992 53.7232 29.8451 53.9773C29.591 54.2314 29.4482 54.576 29.4482 54.9354Z" fill="white"/>
<path d="M30.8035 51.4512C30.1144 51.4512 29.4408 51.6556 28.8678 52.0384C28.2948 52.4213 27.8483 52.9654 27.5845 53.6021C27.3208 54.2387 27.2518 54.9392 27.3863 55.6151C27.5207 56.291 27.8526 56.9118 28.3398 57.399C28.8271 57.8863 29.4479 58.2181 30.1237 58.3526C30.7996 58.487 31.5001 58.418 32.1368 58.1543C32.7734 57.8906 33.3176 57.444 33.7004 56.8711C34.0833 56.2981 34.2876 55.6245 34.2876 54.9354C34.2866 54.0116 33.9192 53.126 33.266 52.4729C32.6128 51.8197 31.7272 51.4523 30.8035 51.4512ZM30.8035 57.6453C30.2675 57.6453 29.7436 57.4863 29.2979 57.1886C28.8523 56.8908 28.505 56.4676 28.2999 55.9724C28.0948 55.4772 28.0411 54.9324 28.1457 54.4067C28.2502 53.881 28.5083 53.3982 28.8873 53.0192C29.2663 52.6402 29.7491 52.3821 30.2748 52.2776C30.8005 52.173 31.3453 52.2267 31.8405 52.4318C32.3357 52.6369 32.7589 52.9842 33.0567 53.4299C33.3544 53.8755 33.5133 54.3994 33.5133 54.9354C33.5133 55.6541 33.2278 56.3434 32.7196 56.8516C32.2114 57.3598 31.5222 57.6453 30.8035 57.6453Z" fill="black"/>
<path d="M30.8031 53.1933C30.4586 53.1933 30.1217 53.2955 29.8353 53.4869C29.5488 53.6783 29.3255 53.9504 29.1936 54.2687C29.0618 54.587 29.0273 54.9373 29.0945 55.2752C29.1617 55.6132 29.3276 55.9236 29.5713 56.1672C29.8149 56.4108 30.1253 56.5768 30.4632 56.644C30.8012 56.7112 31.1514 56.6767 31.4698 56.5448C31.7881 56.413 32.0602 56.1897 32.2516 55.9032C32.443 55.6167 32.5452 55.2799 32.5452 54.9354C32.5448 54.4735 32.3611 54.0306 32.0345 53.704C31.7079 53.3774 31.265 53.1937 30.8031 53.1933ZM30.8031 55.9032C30.6117 55.9032 30.4246 55.8464 30.2654 55.7401C30.1063 55.6337 29.9822 55.4826 29.909 55.3057C29.8357 55.1289 29.8165 54.9343 29.8539 54.7466C29.8912 54.5588 29.9834 54.3864 30.1188 54.251C30.2541 54.1157 30.4266 54.0235 30.6143 53.9862C30.802 53.9488 30.9966 53.968 31.1735 54.0412C31.3503 54.1145 31.5015 54.2385 31.6078 54.3977C31.7142 54.5568 31.7709 54.744 31.7709 54.9354C31.7705 55.1919 31.6684 55.4379 31.487 55.6193C31.3056 55.8007 31.0597 55.9028 30.8031 55.9032Z" fill="black"/>
<path fill-rule="evenodd" clip-rule="evenodd" d="M150.49 66.8364C150.318 58.2902 145.702 48.6949 143.135 45.9053C140.58 43.1311 130.874 38.9014 130.874 38.9014L117.195 40.6474C117.195 40.6474 110.677 44.9204 107.636 49.535C104.94 54.172 105.481 63.0573 105.481 63.0573H111.118L111.59 55.6005L137.625 56.3027L140.991 64.0344C140.687 64.1888 140.417 64.4034 140.198 64.6652C139.979 64.927 139.815 65.2305 139.717 65.5573C142.498 63.9361 146.355 67.0563 147.497 68.7171C148.639 70.3778 147.899 70.4514 147.899 70.4514C149.328 71.4796 151.205 67.5867 151.205 67.5867C150.981 67.3236 150.742 67.0731 150.49 66.8364Z" fill="white"/>
<path fill-rule="evenodd" clip-rule="evenodd" d="M119.015 37.2406C118.485 35.9445 117.101 33.8757 116.654 32.5247C116.349 31.4833 116.368 30.3739 116.708 29.3433C115.587 27.7019 116.098 26.5111 116.098 26.5111C116.049 24.6842 116.281 22.8606 116.784 21.1037C117.317 20.2248 118.025 19.4646 118.864 18.8701C119.703 18.2756 120.655 17.8595 121.661 17.6474C126.02 16.699 129.362 18.225 131.045 21.3166C132.729 24.4082 130.682 27.3411 130.682 27.3411C132.835 27.3411 131.544 30.4776 130.802 31.2549C130.552 31.5846 130.236 31.8587 129.874 32.06C129.512 32.2612 129.112 32.3852 128.7 32.424C128.757 32.527 128.733 31.9239 128.802 37.7664C127.398 39.7774 125.526 41.417 123.348 42.5443C121.946 42.7233 120.522 42.5735 119.188 42.1068L119.015 37.2406Z" fill="#FFD997"/>
<path fill-rule="evenodd" clip-rule="evenodd" d="M119.301 42.8733C119.112 41.2326 119.143 39.5738 119.393 37.9413L118.801 36.8225C118.801 36.8225 115.839 39.0454 116.028 44.0099C116.028 44.0099 118.313 41.7538 119.301 42.8733Z" fill="white"/>
<path fill-rule="evenodd" clip-rule="evenodd" d="M120.079 49.3925C120.632 47.8041 121.42 46.3078 122.417 44.9537C123.761 43.3836 124.954 42.0797 126.275 42.5582C127.595 43.0367 128.178 45.4934 128.178 45.4934C128.178 45.4934 130.595 40.3996 130.871 38.8983C130.285 37.9108 129.615 36.9757 128.868 36.1033L128.724 37.6425C128.318 38.3893 127.737 39.0268 127.032 39.5007C126.072 40.007 121.028 43.7126 120.427 46.2576C119.827 48.8025 120.079 49.3925 120.079 49.3925Z" fill="white"/>
<path d="M119.641 33.0651C119.369 33.1016 119.093 33.0461 118.857 32.9073C118.621 32.7685 118.438 32.5544 118.337 32.2994C118.094 31.4369 119.232 30.0285 118.75 29.1853C118.725 29.1412 118.708 29.0925 118.701 29.042C118.695 28.9915 118.698 28.9402 118.711 28.891C118.725 28.8419 118.748 28.7958 118.779 28.7554C118.81 28.715 118.848 28.6812 118.892 28.6557C118.937 28.6303 118.985 28.6138 119.036 28.6072C119.086 28.6007 119.138 28.6041 119.187 28.6173C119.236 28.6305 119.282 28.6533 119.322 28.6843C119.363 28.7154 119.397 28.7541 119.422 28.7982C120.089 29.9658 118.957 31.6444 119.082 32.0849C119.104 32.1623 119.187 32.2188 119.331 32.2545C119.733 32.3344 120.15 32.2682 120.508 32.0679C120.578 31.9957 120.673 31.9523 120.773 31.9462C120.873 31.9402 120.972 31.972 121.05 32.0354C121.126 32.0978 121.174 32.1876 121.185 32.2854C121.195 32.3832 121.166 32.4811 121.105 32.558C120.701 32.9094 120.176 33.0911 119.641 33.0651Z" fill="black"/>
<path fill-rule="evenodd" clip-rule="evenodd" d="M121.834 29.0545C121.834 29.0545 122.095 28.466 122.488 28.4839C122.885 28.5342 123.278 28.6186 123.66 28.7363C123.572 28.8892 123.451 29.0209 123.306 29.122C123.161 29.2231 122.996 29.2913 122.821 29.3216C122.647 29.3519 122.469 29.3437 122.298 29.2976C122.127 29.2514 121.969 29.1685 121.834 29.0545Z" fill="white"/>
<path fill-rule="evenodd" clip-rule="evenodd" d="M117.38 29.5066C117.38 29.5066 117.64 28.9182 118.034 28.936C118.431 28.9863 118.824 29.0708 119.206 29.1884C119.118 29.3414 118.997 29.473 118.852 29.5742C118.707 29.6753 118.541 29.7434 118.367 29.7738C118.193 29.8041 118.015 29.7959 117.844 29.7498C117.673 29.7036 117.515 29.6206 117.38 29.5066Z" fill="white"/>
<path d="M123.756 28.2872C123.367 28.153 122.958 28.0849 122.547 28.0859C122.356 28.0973 122.169 28.1491 121.999 28.2378C121.829 28.3265 121.68 28.4502 121.561 28.6008C121.08 29.1342 121.724 29.6421 122.065 29.2039C122.101 29.1564 122.141 29.1112 122.182 29.0684C122.383 29.5903 123.064 29.3859 122.842 28.8756C123.059 28.8962 123.273 28.9414 123.479 29.0104C123.575 29.0453 123.68 29.0413 123.773 28.9992C123.865 28.957 123.938 28.8801 123.974 28.7851C124.01 28.69 124.008 28.5845 123.967 28.4914C123.926 28.3982 123.85 28.3248 123.756 28.2872Z" fill="black"/>
<path d="M118.964 28.72C118.664 28.6148 118.346 28.5688 118.028 28.5845C117.806 28.5932 117.592 28.6702 117.414 28.8049C117.237 28.9397 117.106 29.1258 117.038 29.3379C117.014 29.4311 117.025 29.5301 117.069 29.6155C117.114 29.7009 117.189 29.7666 117.28 29.7997C117.37 29.8328 117.47 29.831 117.559 29.7945C117.648 29.7581 117.721 29.6897 117.762 29.6027C117.941 29.9054 118.434 29.924 118.429 29.5059C118.429 29.4622 118.422 29.4189 118.408 29.3773C118.5 29.3862 118.59 29.4065 118.676 29.4377C118.724 29.4596 118.776 29.4715 118.828 29.4728C118.88 29.4741 118.932 29.4647 118.981 29.4453C119.03 29.4259 119.074 29.3968 119.111 29.3597C119.148 29.3227 119.177 29.2786 119.197 29.2299C119.216 29.1813 119.226 29.1292 119.225 29.0768C119.223 29.0245 119.212 28.9729 119.19 28.9252C119.168 28.8775 119.137 28.8347 119.098 28.7995C119.059 28.7642 119.014 28.7372 118.964 28.72Z" fill="black"/>
<path d="M118.221 27.9264C118.272 27.9348 118.323 27.933 118.373 27.9211C118.423 27.9093 118.471 27.8876 118.512 27.8574C118.554 27.8271 118.589 27.7889 118.615 27.7449C118.642 27.701 118.659 27.6522 118.667 27.6014C118.675 27.5506 118.672 27.4988 118.659 27.449C118.647 27.3992 118.624 27.3524 118.593 27.3114C118.562 27.2704 118.523 27.2359 118.479 27.21C118.435 27.1842 118.386 27.1674 118.335 27.1607C118.036 27.0881 117.725 27.0863 117.426 27.1554C117.127 27.2245 116.848 27.3626 116.611 27.5586C116.441 27.7384 116.309 27.9521 116.227 28.1858C116.144 28.4195 116.111 28.6679 116.13 28.9151C116.14 29.0178 116.19 29.1124 116.27 29.1781C116.349 29.2438 116.452 29.2752 116.554 29.2655C116.657 29.2557 116.752 29.2056 116.817 29.1261C116.883 29.0466 116.914 28.9442 116.905 28.8416C116.896 28.7102 116.914 28.5784 116.956 28.4538C116.999 28.3291 117.065 28.2141 117.152 28.1153C117.306 28.0071 117.481 27.934 117.666 27.9014C117.85 27.8687 118.04 27.8773 118.221 27.9264Z" fill="black"/>
<path d="M124.492 27.5586C123.239 25.7074 120.397 26.7248 120.277 26.7689C120.181 26.8043 120.102 26.8766 120.059 26.9698C120.016 27.063 120.012 27.1696 120.047 27.266C120.083 27.3624 120.155 27.4408 120.248 27.4839C120.341 27.527 120.448 27.5313 120.544 27.4959C120.568 27.4874 122.933 26.6373 123.85 27.993C123.908 28.0781 123.997 28.1369 124.098 28.1563C124.199 28.1758 124.303 28.1543 124.388 28.0967C124.474 28.0391 124.532 27.9501 124.552 27.8492C124.571 27.7483 124.55 27.6437 124.492 27.5586Z" fill="black"/>
<path d="M120.172 34.7243C119.677 34.7175 119.195 34.5619 118.789 34.2776C118.703 34.2215 118.643 34.1336 118.622 34.0331C118.6 33.9326 118.62 33.8278 118.676 33.7418C118.732 33.6558 118.82 33.5955 118.921 33.5743C119.021 33.5531 119.126 33.5727 119.212 33.6288C119.945 34.1073 120.64 34.1483 122.41 33.0527C122.453 33.026 122.501 33.008 122.551 32.9999C122.601 32.9917 122.653 32.9935 122.702 33.0052C122.752 33.0169 122.798 33.0382 122.84 33.068C122.881 33.0977 122.916 33.1353 122.943 33.1785C122.969 33.2218 122.987 33.2699 122.995 33.3201C123.004 33.3703 123.002 33.4216 122.99 33.4711C122.978 33.5206 122.957 33.5673 122.927 33.6086C122.898 33.6499 122.86 33.6849 122.817 33.7116C122.043 34.283 121.129 34.633 120.172 34.7243Z" fill="black"/>
<path d="M120.703 36.008C120.466 36.0115 120.23 35.9664 120.011 35.8756C119.791 35.7848 119.593 35.6502 119.427 35.48C119.359 35.4037 119.323 35.3032 119.328 35.2006C119.333 35.0981 119.379 35.0018 119.456 34.933C119.532 34.8642 119.632 34.8285 119.735 34.8338C119.838 34.8391 119.934 34.885 120.003 34.9612C120.066 35.0286 120.635 35.5807 121.638 34.9009C121.723 34.8434 121.828 34.8221 121.929 34.8417C122.029 34.8613 122.118 34.9202 122.176 35.0054C122.233 35.0906 122.255 35.1952 122.235 35.2961C122.215 35.397 122.157 35.486 122.071 35.5435C121.673 35.8327 121.196 35.9947 120.703 36.008Z" fill="black"/>
<path fill-rule="evenodd" clip-rule="evenodd" d="M130.68 27.3411C131.74 25.8182 132.165 23.9428 131.866 22.1118C130.955 18.7306 126.925 17.8069 126.925 17.8069C121.985 14.9128 117.781 18.1383 115.982 21.1362C114.182 24.1341 115.982 27.7777 115.982 27.7777C118.03 26.4158 119.854 24.7442 121.388 22.8225C120.954 23.4197 120.741 24.1495 120.785 24.8867C122.297 23.7303 123.732 22.4767 125.081 21.1339C125.081 21.1339 124.353 22.9712 125.518 25.7616C126.545 27.7746 127.377 28.2237 127.868 29.1613C128.534 30.4396 128.234 31.1047 128.234 31.1047C128.234 31.1047 130.71 29.4277 130.68 27.3411Z" fill="#81F8F8"/>
<path d="M143.418 45.6436C141.578 43.6437 136.224 41.0399 133.216 39.5433C132.601 39.2336 132.627 39.222 132.515 39.2165C131.847 38.9068 131.358 38.6916 131.14 38.5971C130.553 37.5889 129.861 36.6449 129.077 35.7804L129.017 32.7407C129.425 32.6856 129.817 32.5496 130.172 32.3407C130.526 32.1318 130.835 31.8543 131.081 31.5243C131.705 30.8701 132.578 28.9693 132.132 27.8304C132.064 27.6479 131.955 27.4831 131.814 27.3482C131.673 27.2134 131.504 27.112 131.318 27.0515C132.214 25.5345 132.541 23.7485 132.241 22.0127C131.332 18.6369 127.611 17.5816 127.072 17.4446C122.312 14.6944 117.819 17.3207 115.651 20.938C113.763 24.0822 115.558 27.794 115.635 27.9504C115.65 27.9783 115.668 28.0043 115.689 28.0278C115.809 28.5147 116.01 28.9779 116.283 29.3983C115.97 30.4571 115.971 31.5844 116.288 32.6424C116.888 34.0363 117.575 35.3913 118.344 36.6994C117.127 37.863 116.283 39.3631 115.922 41.0082C115.37 41.3806 110.037 45.0466 107.424 49.1858C104.707 53.4922 105.007 62.5757 105.024 62.9597C105.028 63.0601 105.07 63.1552 105.142 63.225C105.214 63.2948 105.311 63.3338 105.411 63.3337H111.083C111.144 63.3609 111.21 63.3722 111.276 63.3665C111.342 63.3608 111.405 63.3383 111.46 63.3012C111.514 63.2641 111.559 63.2136 111.588 63.1545C111.618 63.0954 111.632 63.0297 111.629 62.9636C111.629 63.041 110.925 62.9791 137.784 62.9791C137.794 63.0666 137.834 63.1479 137.897 63.2098C137.96 63.2716 138.041 63.3102 138.129 63.3193C138.217 63.3283 138.305 63.3072 138.379 63.2594C138.453 63.2116 138.508 63.1401 138.536 63.0565C138.785 62.2284 138.978 61.3843 139.114 60.5301C140.328 63.3174 140.489 63.8749 140.496 63.902C140.509 63.9514 140.53 63.9978 140.561 64.0388C140.591 64.0797 140.629 64.1143 140.672 64.1406C140.716 64.1669 140.764 64.1843 140.814 64.1919C140.865 64.1995 140.916 64.1972 140.965 64.185C141.015 64.1728 141.061 64.151 141.102 64.1208C141.143 64.0907 141.178 64.0527 141.204 64.0092C141.23 63.9656 141.248 63.9174 141.255 63.8671C141.263 63.8168 141.26 63.7655 141.248 63.7162C141.008 62.7306 138.015 56.1734 137.597 55.2583C133.791 46.9289 137.197 43.5523 138.061 42.8702C139.801 43.7467 141.413 44.8555 142.854 46.1662C145.267 48.7871 149.883 58.1485 150.105 66.7017C150.106 66.7525 150.118 66.8026 150.138 66.849C150.159 66.8955 150.189 66.9374 150.226 66.9724C150.263 67.0073 150.306 67.0347 150.354 67.0529C150.401 67.0711 150.452 67.0797 150.502 67.0784C150.553 67.077 150.603 67.0656 150.65 67.0449C150.696 67.0242 150.738 66.9945 150.773 66.9576C150.808 66.9207 150.835 66.8772 150.854 66.8297C150.872 66.7822 150.881 66.7316 150.879 66.6808C150.648 57.9395 145.9 48.338 143.418 45.6436ZM129.172 37.0494C129.637 37.6735 130.179 38.5081 130.464 38.9696C129.845 40.8385 129.105 42.665 128.248 44.4373C128.106 43.9607 127.87 43.5172 127.554 43.1328C127.238 42.7485 126.849 42.431 126.409 42.199C124.775 41.6074 123.368 43.255 122.126 44.7075C121.542 45.4317 121.046 46.2232 120.65 47.0651C120.71 46.6813 120.808 46.3044 120.943 45.9401C121.318 45.3055 121.727 44.6919 122.169 44.1021C123.654 42.467 125.351 41.0375 127.215 39.8514C127.99 39.3418 128.627 38.6474 129.068 37.8306C129.124 37.7238 129.11 37.6843 129.171 37.0525L129.172 37.0494ZM119.606 41.8645V38.289C120.546 38.5817 121.549 38.6059 122.501 38.3587C124.032 37.8561 125.459 37.079 126.711 36.0653C127.299 35.5625 127.824 34.9906 128.276 34.362L128.338 37.5449C127.979 38.1939 127.47 38.7478 126.854 39.1608C125.536 39.9895 124.297 40.9389 123.155 41.9969C121.98 42.2558 120.758 42.2113 119.606 41.8676L119.606 41.8645ZM116.151 27.1793C115.764 26.1727 114.989 23.5403 116.315 21.3329C117.847 18.7778 121.763 15.2279 126.731 18.1383C126.765 18.1578 126.802 18.1724 126.84 18.1817C126.878 18.1902 130.653 19.0891 131.486 22.1722C131.701 23.4502 131.536 24.7634 131.01 25.9482C130.939 24.9816 130.704 24.0342 130.313 23.147C130.291 23.1012 130.26 23.0603 130.222 23.0266C130.184 22.9928 130.139 22.9669 130.091 22.9504C130.043 22.9338 129.992 22.9269 129.941 22.93C129.891 22.9331 129.841 22.9462 129.795 22.9685C129.749 22.9908 129.708 23.0219 129.675 23.06C129.641 23.0982 129.615 23.1426 129.599 23.1907C129.582 23.2388 129.575 23.2898 129.578 23.3406C129.581 23.3914 129.594 23.4411 129.617 23.4868C130.117 24.7053 130.348 26.0179 130.292 27.3341C130.238 27.9097 130.065 28.4677 129.783 28.9724C129.501 29.4772 129.117 29.9176 128.656 30.2654C128.578 29.816 128.428 29.3823 128.21 28.9817C127.694 27.9907 126.861 27.5439 125.874 25.6114C125.216 24.2645 125.061 22.7263 125.44 21.2756C125.463 21.2169 125.471 21.1534 125.464 21.0906C125.457 21.0278 125.435 20.9677 125.4 20.9155C125.364 20.8633 125.317 20.8205 125.261 20.791C125.205 20.7614 125.143 20.746 125.08 20.746C124.675 20.746 124.725 21.2369 121.247 24.0288C121.337 23.6761 121.491 23.3431 121.702 23.0463C121.734 23.005 121.757 22.9577 121.771 22.9072C121.784 22.8567 121.787 22.8041 121.779 22.7525C121.771 22.7009 121.753 22.6514 121.726 22.6069C121.698 22.5624 121.662 22.524 121.62 22.4938C121.577 22.4636 121.529 22.4423 121.478 22.4313C121.427 22.4202 121.374 22.4195 121.323 22.4293C121.272 22.4391 121.223 22.4592 121.18 22.4883C121.137 22.5174 121.1 22.555 121.071 22.5988C119.663 24.3586 118.005 25.9028 116.15 27.1823L116.151 27.1793ZM117.023 32.4C116.748 31.4413 116.765 30.4222 117.073 29.4734C117.094 29.4156 117.101 29.3537 117.093 29.2927C117.086 29.2317 117.064 29.1734 117.029 29.1226C116.77 28.7549 116.578 28.3452 116.459 27.9117C117.866 26.9125 119.183 25.7914 120.394 24.5615C120.381 24.8511 120.37 25.1329 120.638 25.2436C120.702 25.2701 120.771 25.2792 120.839 25.2701C120.907 25.261 120.971 25.2339 121.026 25.1917C122.536 24.025 123.735 22.9549 124.487 22.2496C124.429 23.5146 124.665 24.7759 125.176 25.9343C126.194 27.9303 127.092 28.5001 127.528 29.341C127.848 29.8107 127.976 30.3851 127.885 30.946C127.85 31.0229 127.841 31.109 127.86 31.1912C127.879 31.2735 127.924 31.3473 127.989 31.4016C128.053 31.4558 128.134 31.4875 128.218 31.4918C128.302 31.4961 128.386 31.4727 128.455 31.4252C128.556 31.3571 130.778 29.8256 131.045 27.7731C131.13 27.7946 131.207 27.8366 131.272 27.8953C131.336 27.9541 131.385 28.0278 131.414 28.1099C131.709 28.864 131.007 30.4799 130.524 30.987C129.61 31.9455 129.649 31.7411 128.45 32.0919C127.749 32.2971 128.988 33.0024 126.198 35.4854C125.047 36.4078 123.744 37.1228 122.348 37.5984C120.762 37.9243 119.593 37.7184 119.37 37.075C119.067 36.207 117.454 33.7085 117.023 32.4031L117.023 32.4ZM118.686 37.4536C118.725 37.5403 118.772 37.623 118.827 37.7006C118.848 37.778 118.832 37.5519 118.832 42.1959C117.933 42.1994 117.068 42.5445 116.414 43.1613C116.433 41.042 117.243 39.0062 118.686 37.4536ZM111.226 54.6125C110.216 53.1442 109.572 51.4551 109.349 49.6867C109.347 49.6358 109.335 49.5859 109.313 49.5398C109.291 49.4938 109.26 49.4525 109.222 49.4185C109.184 49.3845 109.14 49.3585 109.092 49.3419C109.044 49.3254 108.993 49.3186 108.942 49.3221C108.839 49.3275 108.743 49.3733 108.675 49.4495C108.606 49.5257 108.57 49.6261 108.576 49.7285C108.793 51.6307 109.478 53.4496 110.568 55.0237L109.121 54.5026C109.073 54.483 109.021 54.4734 108.969 54.4744C108.917 54.4753 108.866 54.4867 108.818 54.508C108.771 54.5292 108.728 54.5598 108.693 54.598C108.657 54.6362 108.63 54.6811 108.612 54.7301C108.594 54.7791 108.587 54.8312 108.59 54.8832C108.593 54.9352 108.606 54.9861 108.629 55.0328C108.652 55.0795 108.684 55.1211 108.724 55.155C108.763 55.189 108.809 55.2146 108.859 55.2304L111.048 56.0186C110.816 58.1917 110.744 60.3789 110.834 62.5625H105.787C105.76 60.7988 105.787 53.2336 108.079 49.6016C110.151 46.3164 114.142 43.2419 115.723 42.0991C115.688 42.3732 115.707 42.3089 115.675 42.3492C115.504 42.5675 112.383 46.637 111.225 54.6125H111.226ZM127.762 53.5944L115.141 53.8437C115.52 50.2409 116.343 46.6987 117.59 43.2976C118.008 43.0553 118.656 42.7618 118.992 43.1095C119.223 44.1134 119.599 45.0783 120.107 45.9742C119.911 46.6106 119.45 48.9078 119.726 49.5481C119.757 49.6199 119.809 49.6806 119.875 49.7223C119.941 49.7641 120.018 49.7848 120.096 49.7819C120.175 49.779 120.25 49.7525 120.313 49.7059C120.375 49.6594 120.423 49.5949 120.448 49.521C120.984 47.9801 121.747 46.5277 122.712 45.2116C124.06 43.6352 125.093 42.5474 126.143 42.9283C127.063 43.2605 127.652 44.9615 127.802 45.5886C127.82 45.6666 127.862 45.737 127.923 45.79C127.983 45.843 128.058 45.876 128.138 45.8845C128.217 45.893 128.298 45.8766 128.368 45.8374C128.438 45.7983 128.494 45.7384 128.528 45.666C129.506 43.6398 130.376 41.5635 131.135 39.4457C131.343 39.5394 131.622 39.6656 131.957 39.8197C129.655 44.5782 128.087 51.9746 127.761 53.5944H127.762ZM136.661 55.0655L132.062 54.1309C132.237 49.6799 133.126 45.286 134.694 41.1165C135.533 41.5308 136.436 41.9915 137.332 42.473C136.106 43.5949 133.274 47.2386 136.66 55.067L136.661 55.0655Z" fill="black"/>
<path d="M121.502 20.8141C121.453 20.7242 121.37 20.6574 121.272 20.6284C121.174 20.5994 121.068 20.6105 120.978 20.6593C118.783 21.7719 117.085 23.6659 116.217 25.9683C116.188 26.0667 116.198 26.1728 116.247 26.2633C116.295 26.3539 116.378 26.4214 116.476 26.4511C116.575 26.4807 116.681 26.4701 116.771 26.4216C116.862 26.373 116.929 26.2904 116.959 26.1921C117.78 24.0939 119.341 22.3685 121.346 21.3406C121.391 21.3164 121.431 21.2836 121.463 21.244C121.495 21.2044 121.519 21.1588 121.534 21.1099C121.548 21.061 121.553 21.0097 121.547 20.9589C121.542 20.9081 121.527 20.8589 121.502 20.8141Z" fill="black"/>
<path d="M127.487 28.0232C127.461 27.9238 127.397 27.8387 127.309 27.7866C127.22 27.7345 127.115 27.7196 127.015 27.7452L124.96 28.2795L124.929 27.8505C124.925 27.7992 124.911 27.7491 124.888 27.7033C124.865 27.6574 124.832 27.6166 124.793 27.5833C124.754 27.55 124.708 27.5248 124.659 27.5093C124.61 27.4938 124.559 27.4882 124.507 27.4928L120.593 27.8536C120.491 27.8631 120.397 27.9125 120.331 27.9912C120.266 28.0698 120.234 28.1713 120.243 28.2733L120.262 28.4885C119.942 28.4381 119.615 28.5115 119.347 28.6937L119.319 28.36C119.311 28.2577 119.262 28.1631 119.184 28.0967C119.105 28.0304 119.004 27.9978 118.902 28.0062L115.209 28.3081C115.157 28.3124 115.106 28.3273 115.059 28.352C115.013 28.3767 114.972 28.4106 114.939 28.4517C114.906 28.4928 114.881 28.5402 114.867 28.591C114.853 28.6418 114.85 28.6949 114.857 28.7471L115.137 30.7818C115.15 30.875 115.197 30.9603 115.268 31.0217C115.339 31.0831 115.431 31.1164 115.525 31.1155C115.602 31.1155 115.894 31.0776 119.143 30.7284C119.243 30.7177 119.336 30.668 119.4 30.59C119.464 30.512 119.496 30.4119 119.487 30.3111L119.438 29.7219C119.664 29.6042 119.688 29.0831 120.337 29.2945L120.415 30.1872C120.424 30.2885 120.472 30.3821 120.549 30.448C120.627 30.514 120.727 30.5468 120.828 30.5395L124.715 30.2561C124.817 30.2486 124.912 30.2009 124.979 30.1236C125.046 30.0463 125.08 29.9455 125.073 29.8435L125.018 29.0622L127.212 28.4924C127.31 28.466 127.394 28.402 127.446 28.3142C127.497 28.2264 127.512 28.1218 127.487 28.0232ZM115.853 30.3034L115.68 29.046L118.58 28.8137L118.68 30.0053L115.853 30.3034ZM121.15 29.742L121.048 28.5892L124.185 28.3004L124.271 29.5144L121.15 29.742Z" fill="black"/>
<path fill-rule="evenodd" clip-rule="evenodd" d="M120.259 69.5571L115.72 62.9961C115.72 62.9961 116.609 61.2866 116.155 60.2382C115.792 59.5591 115.255 58.9888 114.599 58.5859C113.943 58.183 113.192 57.962 112.422 57.9457L113.971 60.9111L111.867 62.2273L110.086 59.1721C110.086 59.1721 108.245 61.6187 109.791 63.672C110.139 64.1633 110.649 64.5166 111.231 64.6703C111.813 64.824 112.431 64.7683 112.977 64.5129L118.288 71.9999L120.259 69.5571Z" fill="white"/>
<path fill-rule="evenodd" clip-rule="evenodd" d="M148.132 70.065C145.511 71.5847 142.673 72.6917 139.716 73.3471C136.642 73.879 132.795 74.637 130.873 75.5854C128.951 76.5339 128.219 77.2253 127.218 77.2958C127.218 77.2958 125.661 75.9114 125.128 75.9641C124.227 76.359 123.511 77.0845 123.129 77.991C122.806 77.9953 122.488 77.9204 122.201 77.773C121.915 77.6256 121.668 77.4102 121.484 77.1456C121.173 77.1283 120.873 77.0261 120.616 76.85C120.359 76.6739 120.155 76.4307 120.026 76.1468C120.026 76.1468 118.764 75.707 118.65 74.9227C118.308 74.8004 118.012 74.5753 117.803 74.2782C117.594 73.9811 117.482 73.6266 117.483 73.2635C117.483 73.2635 120.081 68.8688 121.385 68.9524C122.69 69.036 126.495 71.3596 127.401 71.9139C127.401 71.9139 133.803 69.1468 135.621 68.0233C137.44 66.8999 139.713 65.5612 139.713 65.5612C139.713 65.5612 141.743 64.0336 145.216 66.5716C148.688 69.1096 148.132 70.065 148.132 70.065Z" fill="#FFD997"/>
<path d="M151.499 67.3366C150.307 66.0213 148.843 64.9815 147.208 64.2894C145.573 63.5973 143.808 63.2696 142.034 63.329C141.45 63.366 140.889 63.5719 140.42 63.9216C139.951 64.2712 139.593 64.7497 139.391 65.2987C134.778 68.021 135.277 68.0582 127.433 71.4742C125.278 70.1579 122.551 68.6342 121.411 68.5614C121.015 68.5755 120.636 68.7269 120.338 68.9896L116.167 62.9613C116.411 62.4255 116.937 61.0698 116.51 60.0842C116.117 59.3327 115.528 58.7013 114.806 58.2567C114.084 57.8122 113.255 57.571 112.407 57.5585C112.342 57.5614 112.279 57.5807 112.223 57.6145C112.167 57.6483 112.121 57.6957 112.089 57.7521C112.056 57.8085 112.038 57.8722 112.037 57.9373C112.036 58.0024 112.051 58.0668 112.081 58.1245L113.464 60.7725L112.003 61.6853L110.426 58.9754C110.394 58.9203 110.349 58.874 110.295 58.8405C110.24 58.8071 110.179 58.7876 110.115 58.7837C110.051 58.7799 109.988 58.7919 109.93 58.8186C109.872 58.8452 109.821 58.8858 109.783 58.9367C109.7 59.0467 107.785 61.6466 109.487 63.9028C109.853 64.4235 110.378 64.811 110.984 65.0066C111.589 65.2022 112.242 65.1952 112.844 64.9867L117.816 72.0007C117.53 72.4366 117.299 72.8175 117.152 73.0668C117.122 73.1165 117.104 73.1724 117.1 73.2302C117.081 73.6437 117.188 74.0531 117.407 74.4049C117.625 74.7566 117.944 75.0342 118.323 75.2014C118.614 75.784 119.12 76.2309 119.734 76.448C119.886 76.7338 120.104 76.9791 120.371 77.1633C120.637 77.3476 120.944 77.4655 121.265 77.5071C121.453 77.744 121.686 77.9413 121.95 78.0875C122.214 78.2337 122.505 78.3259 122.806 78.3588C123.882 82.2726 128.37 80.7629 127.622 77.631C128.257 77.4526 128.86 77.1776 129.412 76.8157C131.542 75.5994 132.693 74.9575 139.782 73.7311C142.545 73.1402 145.204 72.1394 147.671 70.7619C149.113 71.8009 150.782 69.3488 151.552 67.7523C151.584 67.6852 151.596 67.6103 151.587 67.5366C151.577 67.4629 151.547 67.3934 151.499 67.3366ZM113.296 64.2883C113.243 64.2129 113.165 64.159 113.075 64.1364C112.985 64.1139 112.891 64.1241 112.808 64.1652C112.344 64.3852 111.817 64.4328 111.322 64.2994C110.826 64.166 110.395 63.8604 110.104 63.4374C109.761 62.9163 109.576 62.307 109.572 61.6832C109.568 61.0593 109.744 60.4475 110.079 59.9216L111.533 62.4208C111.559 62.4659 111.594 62.5053 111.635 62.5366C111.677 62.5678 111.725 62.5904 111.775 62.6028C111.826 62.6152 111.879 62.6173 111.93 62.6089C111.981 62.6006 112.031 62.5819 112.075 62.554L114.179 61.2378C114.262 61.1861 114.322 61.1052 114.347 61.0112C114.373 60.9172 114.362 60.817 114.317 60.7307L113.09 58.3816C113.658 58.505 114.194 58.748 114.661 59.0944C115.128 59.4408 115.516 59.8827 115.8 60.3908C116.109 61.1093 115.6 62.3852 115.377 62.8173C115.344 62.8796 115.33 62.9496 115.334 63.0197C115.338 63.0898 115.362 63.1574 115.402 63.2152L119.753 69.5037C119.213 70.0643 118.721 70.6687 118.282 71.3108L113.296 64.2883ZM123.524 78.0352C123.877 77.313 124.45 76.7214 125.16 76.3458C125.737 76.5916 126.265 76.9391 126.718 77.3716C127.83 79.8206 124.305 81.2917 123.524 78.0352ZM139.65 72.9623C132.609 74.1794 131.222 74.8855 129.028 76.1367C128.517 76.4853 127.947 76.7396 127.347 76.8877C126.7 76.3256 125.643 75.5142 125.093 75.5715C124.45 75.6342 123.312 76.698 122.879 77.5791C122.529 77.5378 122.203 77.3767 121.957 77.1231C122.536 76.2865 123.211 75.5215 123.97 74.8445C124.045 74.7754 124.089 74.6798 124.094 74.5783C124.099 74.4767 124.063 74.3775 123.995 74.3018C123.927 74.2262 123.832 74.1803 123.731 74.1741C123.63 74.1678 123.53 74.2017 123.453 74.2684C122.638 74.9945 121.914 75.8174 121.298 76.7189C121.132 76.6892 120.974 76.6263 120.833 76.5339C120.691 76.4416 120.57 76.3218 120.476 76.1816C121.065 75.3279 121.763 74.5557 122.554 73.8852C122.597 73.8558 122.633 73.8181 122.661 73.7745C122.688 73.7309 122.707 73.6822 122.715 73.6312C122.724 73.5803 122.722 73.5281 122.71 73.4779C122.699 73.4276 122.677 73.3802 122.646 73.3385C122.616 73.2968 122.577 73.2616 122.533 73.235C122.489 73.2084 122.439 73.191 122.388 73.1837C122.337 73.1764 122.285 73.1794 122.235 73.1926C122.185 73.2058 122.138 73.2288 122.097 73.2604C121.259 73.9579 120.518 74.7652 119.895 75.6605C119.553 75.5211 119.264 75.2772 119.068 74.9637C119.646 73.9093 120.348 72.9278 121.159 72.0401C121.199 72.0056 121.232 71.9631 121.255 71.9154C121.278 71.8676 121.291 71.8157 121.293 71.7627C121.295 71.7097 121.287 71.6569 121.268 71.6074C121.249 71.5579 121.22 71.5129 121.182 71.4751C121.145 71.4373 121.101 71.4076 121.051 71.3877C121.002 71.3679 120.95 71.3584 120.896 71.3597C120.843 71.3611 120.791 71.3733 120.743 71.3957C120.695 71.418 120.652 71.45 120.617 71.4896C119.798 72.3711 119.086 73.3471 118.498 74.397C118.313 74.2946 118.158 74.146 118.047 73.9656C117.937 73.7853 117.875 73.5793 117.868 73.368C118.6 72.1049 119.476 70.9308 120.478 69.8691C120.556 69.8157 121.03 69.3047 121.364 69.3272C121.732 69.3504 123.037 69.681 127.203 72.2329C127.256 72.2652 127.316 72.2843 127.377 72.2886C127.439 72.2929 127.501 72.2823 127.558 72.2577C135.661 68.7604 135.27 68.6025 139.911 65.8848C142.694 64.2589 147.034 67.9877 147.695 69.8583C145.185 71.292 142.473 72.3385 139.65 72.9623ZM148.513 70.2268C148.729 68.5072 144.088 64.0375 140.596 64.8032C141.005 64.3951 141.546 64.1454 142.123 64.0986C143.726 64.0626 145.319 64.3592 146.803 64.9698C148.286 65.5804 149.626 66.4917 150.739 67.6463C150.352 68.3919 149.328 70.0689 148.513 70.2268Z" fill="black"/>
<path d="M126.409 77.7208C126.359 77.4948 126.249 77.2864 126.092 77.1169C125.934 76.9474 125.734 76.823 125.512 76.7566C125.29 76.6901 125.055 76.6841 124.83 76.739C124.605 76.7939 124.399 76.9078 124.233 77.0689C123.981 77.2829 123.822 77.5867 123.79 77.9158C123.759 78.2449 123.857 78.5733 124.064 78.8312C124.271 79.0892 124.57 79.2563 124.898 79.297C125.226 79.3378 125.557 79.2489 125.821 79.0494C126.031 78.9035 126.198 78.7023 126.302 78.4679C126.406 78.2335 126.443 77.975 126.409 77.7208ZM125.356 78.4308C125.299 78.4852 125.23 78.5243 125.154 78.5445C125.078 78.5647 124.998 78.5653 124.922 78.5462C124.831 78.5002 124.752 78.4338 124.692 78.3523C124.631 78.2707 124.59 78.1762 124.573 78.0762C124.504 77.775 124.887 77.3507 125.444 77.5489C125.679 77.631 125.784 78.1103 125.356 78.4308Z" fill="black"/>
</svg>
