<svg width="155" height="155" viewBox="0 0 155 155" fill="none" xmlns="http://www.w3.org/2000/svg">
<path d="M68.4396 47.4432C66.3089 45.5209 65.2049 44.579 63.5683 44.9573C61.9316 45.3356 52.5981 53.8045 52.1349 54.6074C51.1776 56.3753 52.3896 57.5488 53.0149 58.3439C53.8599 59.5234 54.9742 60.4841 56.2651 61.1463C55.8017 59.3405 55.9819 57.4297 56.7746 55.7423C57.5253 54.113 58.8827 52.8415 60.5574 52.1988C64.1241 51.0562 65.1895 52.0212 68.0691 53.3336C69.2889 53.8972 69.891 51.9749 71.4891 52.1602C72.3614 51.0099 70.9873 49.7592 68.4396 47.4432ZM63.8076 48.6475C63.69 48.5968 63.5835 48.5235 63.4943 48.4316C63.405 48.3398 63.3347 48.2313 63.2874 48.1123C63.2401 47.9933 63.2167 47.8661 63.2185 47.7381C63.2204 47.61 63.2474 47.4836 63.2981 47.366C63.3488 47.2484 63.4221 47.1419 63.514 47.0527C63.6058 46.9634 63.7143 46.8931 63.8333 46.8458C63.9523 46.7985 64.0795 46.7751 64.2075 46.7769C64.3356 46.7787 64.462 46.8058 64.5796 46.8565C66.0541 47.4972 64.7803 49.0721 63.7922 48.6552L63.8076 48.6475Z" fill="#3D9CFB"/>
<path d="M116.544 71.5293C115.123 69.9853 104.57 67.7696 101.798 69.167C99.9687 70.0856 99.7834 73.1196 99.2044 76.9333C98.4324 82.1676 97.56 88.3822 98.9419 89.6406C100.748 91.285 105.118 92.1033 105.118 92.1033C105.118 92.1033 102.377 87.9499 103.86 83.3178C104.3 82.0096 105.008 80.8075 105.938 79.788C106.868 78.7685 108.001 77.954 109.264 77.3966C112.9 76.2077 113.973 77.7054 115.108 78.1686C116.405 78.7553 118.451 73.5983 116.544 71.5293ZM103.813 72.5715C102.702 73.0193 101.852 71.0275 103.203 70.6029C104.554 70.1783 104.91 72.1469 103.813 72.5715Z" fill="#3D9CFB"/>
<path d="M51.4171 70.071C48.9466 69.5769 40.609 73.5528 39.9219 75.0813C39.2348 76.6099 40.3079 79.6053 40.3079 79.6053C41.6357 79.6053 42.3537 81.0644 42.732 82.6933C43.0485 84.0444 44.0135 84.7237 45.1947 84.0058C47.9739 82.3151 49.7572 81.2188 51.309 80.7479C53.7099 80.0299 54.5282 81.3655 54.5282 81.3655C54.5282 81.3655 54.204 70.6037 51.4171 70.071ZM43.697 78.1539C42.1916 78.5708 41.4582 76.332 43.1334 75.5368C44.662 74.8189 45.6502 77.5981 43.7047 78.1539H43.697Z" fill="#3D9CFB"/>
<path d="M91.6925 79.7054C90.4727 78.3699 88.5427 77.8681 86.6127 77.8604C82.9147 77.8604 75.3645 78.9952 70.7016 79.7981C63.7998 80.9715 60.0402 82.2994 58.5888 85.3643C57.6006 87.4564 58.1024 91.5866 59.2682 98.5965C61.5842 112.493 65.3516 131.438 68.6712 136.047C72.7783 141.759 76.4685 138.532 85.0609 138.185C84.5591 136.687 83.7562 134.896 83.6018 134.232C77.9276 135.159 73.7742 135.506 71.8982 134.232C67.4746 131.214 62.1555 94.4353 61.9393 89.2475C61.754 84.9088 67.6676 85.0323 69.0032 84.8161C69.7752 84.7003 69.8215 86.0668 70.91 86.3602C71.9986 86.6535 77.0166 86.0977 79.4561 85.4955C82.2199 84.8239 80.6142 83.4034 82.5442 83.0868C84.8602 82.7008 88.7202 82.199 89.6466 83.8588C91.3682 86.862 97.2664 117.395 97.5674 120.074C97.8994 120.568 102.647 125.547 102.647 125.547C102.647 125.547 95.1202 83.4728 91.6925 79.7054ZM75.4803 83.689C74.7083 83.7971 71.9059 84.9011 71.3501 83.882C70.9409 83.11 71.5894 82.7472 72.9558 82.4847C74.7701 82.1295 76.26 81.3035 76.7464 82.2067C77.2328 83.11 76.2909 83.5732 75.5112 83.7276L75.4803 83.689ZM78.4525 83.303C77.2173 82.7394 77.7654 80.8866 79.5565 81.1105C81.3476 81.3344 80.3054 84.1368 78.4834 83.303H78.4525Z" fill="#3D9CFB"/>
<path d="M121.739 63.2458C120.642 63.7168 121.067 65.1373 122.21 64.7899C122.639 64.6416 123.093 64.5823 123.546 64.6155C123.998 64.6487 124.439 64.7737 124.842 64.9829C125.614 65.3071 126.517 64.3807 125.576 63.5778C125.021 63.1914 124.375 62.9574 123.702 62.8991C123.028 62.8409 122.351 62.9604 121.739 63.2458Z" fill="#001434"/>
<path d="M89.5773 99.8849C89.8333 99.867 90.0721 99.7495 90.2424 99.5575C90.4127 99.3655 90.501 99.1145 90.4882 98.8581C90.5732 97.5226 91.1753 95.3378 90.4882 94.6121C89.8012 93.8864 87.4002 93.8401 85.7867 93.4464C85.5562 93.3926 85.3138 93.4299 85.11 93.5506C84.9063 93.6712 84.7571 93.8658 84.6933 94.0938C84.6296 94.3218 84.6564 94.5656 84.768 94.7743C84.8797 94.9831 85.0676 95.1407 85.2926 95.2143C86.0047 95.3939 86.7302 95.5153 87.462 95.5771C86.5664 96.3491 82.606 99.1438 85.3235 99.7768C86.4892 100.047 87.6395 98.0475 88.6663 96.9667C88.7281 97.9394 88.1722 99.7614 89.5773 99.8849Z" fill="#001434"/>
<path d="M100.216 71.3289C100.411 70.6698 100.761 70.0666 101.235 69.5687C100.471 68.7434 99.8643 67.7859 99.4437 66.7432C99.0346 65.6238 97.3748 66.5116 97.8071 67.6233C98.2854 69.0415 99.1138 70.316 100.216 71.3289Z" fill="#001434"/>
<path d="M48.167 48.8632C49.9655 48.9263 51.7216 48.3087 53.0847 47.1339C57.3385 50.6311 60.6658 46.856 58.5351 41.4442C59.8428 41.1107 61.009 40.3666 61.8624 39.3212C67.1584 44.3547 76.1909 46.1457 83.0463 43.5827C96.8267 36.7427 85.9954 17.5043 74.2454 13.8218C73.7745 13.6288 72.7014 13.6751 72.5625 14.4008C72.4235 15.1265 73.3345 15.1728 74.1065 15.6514C65.5681 17.4193 56.9911 25.8265 59.1218 34.7355C57.8658 34.3105 56.5738 34.0005 55.2618 33.809C49.078 20.4224 68.934 10.3863 78.8466 10.919C90.4267 11.5366 97.4983 33.4076 93.3681 39.8307C89.508 45.806 83.2856 48.4077 73.7128 48.0217C73.2187 48.0217 72.9408 48.7242 73.6433 49.172C75.3108 50.2991 85.2929 49.4499 88.6743 46.856C96.8344 62.4274 81.0854 73.3435 66.7956 67.9935C71.4662 65.94 74.5156 60.2735 74.7627 55.9965C76.932 55.9425 81.6181 54.4525 80.8693 52.9934C80.7943 52.8959 80.6994 52.8154 80.5909 52.7574C80.4824 52.6995 80.3628 52.6653 80.24 52.6573C80.1172 52.6492 79.9942 52.6675 79.879 52.7108C79.7639 52.7541 79.6593 52.8215 79.5723 52.9085C78.7308 53.6805 76.4843 54.275 74.5851 54.1514C73.7514 50.6697 70.4858 50.6697 68.2392 52.4685C65.8228 51.3877 64.8192 50.4226 61.461 50.9244C56.69 51.5266 53.6174 57.3244 55.2849 61.7326C57.5238 67.6153 68.4091 71.2823 74.5851 71.1742C87.9331 71.1742 97.4906 59.347 90.2491 45.8292C99.4438 39.4601 97.7917 27.6947 89.8168 15.582C81.6027 4.62717 68.0462 9.08937 58.288 17.126C47.8659 14.1383 36.7799 17.9675 36.3708 27.8105C36.0311 34.5811 37.8453 48.9867 48.167 48.8632ZM61.9782 65.8474C57.7862 63.3692 56.2113 61.6708 56.829 57.7876C57.601 58.5596 58.7049 60.7444 59.9633 59.6867C60.1241 59.5046 60.2069 59.2666 60.1939 59.024C60.1809 58.7814 60.0731 58.5537 59.8938 58.3898C59.006 57.6039 58.2271 56.703 57.5778 55.7109C58.117 54.7367 58.9197 53.9341 59.8938 53.3949C60.9206 54.7845 62.3488 57.3707 63.8388 56.012C63.9651 55.8037 64.0043 55.5541 63.948 55.3172C63.8916 55.0802 63.7442 54.875 63.5377 54.7459C62.7894 54.2414 62.1598 53.5802 61.6926 52.8081C64.5027 51.627 67.6062 55.8962 69.9685 53.6265C70.2356 53.3288 70.6077 53.1464 71.0066 53.1176C71.4054 53.0888 71.7999 53.2159 72.107 53.4721C74.7086 58.0501 69.4281 66.2334 63.9314 66.9127C63.3061 66.5344 62.6345 66.1948 61.9782 65.8165V65.8474ZM86.7983 30.4585C87.3969 31.3245 87.6401 32.3872 87.4778 33.4273C87.3155 34.4675 86.7599 35.4055 85.9259 36.0479C84.7139 33.7704 82.2434 31.3077 80.2131 29.6788C80.6623 29.2234 81.2097 28.8767 81.8134 28.6651C82.4171 28.4535 83.0611 28.3827 83.6964 28.4579C84.3317 28.5331 84.9413 28.7524 85.4789 29.0992C86.0165 29.4459 86.4678 29.9108 86.7983 30.4585ZM65.8306 21.9665C67.722 21.3797 68.6484 22.2984 70.0226 22.7385C71.0416 23.0318 71.8368 20.8239 68.1543 20.1754C70.7382 18.3557 73.7901 17.3161 76.9475 17.18C79.3274 18.5773 81.4226 20.4107 83.1235 22.5841C79.7499 21.9973 79.3638 23.7266 79.5955 24.1281C80.0509 24.9618 82.2512 23.4641 84.4823 24.5758C84.9711 25.4109 85.4094 26.2745 85.7947 27.1621C73.1646 23.248 75.4034 44.2466 87.2152 37.4066C82.8533 46.6089 65.3365 43.5286 61.2757 35.3608C71.6592 41.7453 75.3957 23.7807 63.3987 24.6453C64.1247 23.6791 64.9388 22.7823 65.8306 21.9665ZM60.8974 29.6865C61.2834 25.9423 66.5871 25.2861 68.4013 28.5903C65.918 29.6923 63.6107 31.1542 61.5536 32.929C60.9156 31.9597 60.6802 30.7801 60.8974 29.6402V29.6865ZM39.5977 38.9506C34.6337 24.8692 41.219 15.0184 56.6514 18.67C52.745 22.7385 50.9926 27.9109 53.1851 33.5466C46.0131 33.7087 40.0455 35.5306 39.5977 38.9506ZM41.6667 39.1822C44.8783 32.8286 68.0385 35.9552 57.8171 39.7226C57.4157 37.5378 55.3621 37.1596 55.586 39.1359C55.586 39.1359 55.8794 39.7998 56.4275 41.174C59.6082 48.8941 53.8953 47.1416 52.1351 42.718C52.0098 42.5171 51.8118 42.3724 51.5823 42.3139C51.3529 42.2555 51.1097 42.288 50.9036 42.4045C50.6975 42.521 50.5443 42.7126 50.476 42.9393C50.4077 43.166 50.4296 43.4103 50.5371 43.6213C50.5371 43.6676 51.1238 44.6558 51.8649 45.7211C51.2303 46.2924 50.4502 46.6771 49.6107 46.8328C49.1359 46.2101 48.7608 45.5173 48.499 44.7793C48.4202 44.5479 48.2527 44.3573 48.0333 44.2495C47.814 44.1416 47.5608 44.1253 47.3294 44.2041C47.098 44.283 46.9075 44.4505 46.7996 44.6698C46.6917 44.8891 46.6754 45.1423 46.7543 45.3737C46.957 45.9059 47.1996 46.422 47.4799 46.9177C43.7048 46.8483 38.9107 42.579 41.6667 39.1436V39.1822Z" fill="#001434"/>
<path d="M119.276 66.6119C119.137 66.7929 119.069 67.0192 119.086 67.2472C119.103 67.4753 119.204 67.6889 119.369 67.8471C119.867 68.2675 120.486 68.5194 121.137 68.5665C121.787 68.6137 122.436 68.4537 122.99 68.1096C123.916 69.1518 125.699 69.0977 126.803 68.4415C126.99 68.3453 127.13 68.179 127.194 67.9792C127.258 67.7794 127.239 67.5625 127.143 67.3762C127.047 67.1898 126.881 67.0494 126.681 66.9857C126.481 66.922 126.264 66.9402 126.078 67.0365C124.48 67.6 124.387 66.1795 123.43 66.1101C122.472 66.0406 122.465 66.7817 121.307 66.7894C120.365 66.7894 119.917 65.9711 119.276 66.6119Z" fill="#001434"/>
<path d="M131.59 55.9348C133.497 55.7881 134.871 56.3748 135.234 55.6955C136.183 53.9353 132.686 53.6419 131.258 53.9353C131.015 54.0023 130.806 54.1568 130.67 54.369C130.535 54.5812 130.483 54.8361 130.524 55.0844C130.565 55.3328 130.697 55.5571 130.894 55.7141C131.09 55.8712 131.338 55.9498 131.59 55.9348Z" fill="#001434"/>
<path d="M73.6663 35.9328C73.8875 36.0352 74.1402 36.0455 74.3689 35.9615C74.5977 35.8775 74.7837 35.7061 74.8861 35.485C74.9885 35.2639 74.9988 35.0111 74.9148 34.7824C74.8309 34.5536 74.6595 34.3676 74.4383 34.2652C73.6663 33.9178 73.6046 33.7094 73.8825 33.03C74.4538 30.8993 76.2526 31.2699 75.7893 29.6332C73.5505 27.819 69.7136 34.6821 73.6663 35.9328Z" fill="#001434"/>
<path d="M71.072 96.7823C71.3055 96.7433 71.5149 96.6156 71.6566 96.4259C71.7982 96.2362 71.8612 95.9991 71.8323 95.7642C71.8034 95.5292 71.6849 95.3144 71.5016 95.1647C71.3182 95.0149 71.0841 94.9417 70.8481 94.9604C69.1806 95.2074 66.5172 94.7519 65.7066 95.439C64.896 96.1261 65.1044 98.8127 64.9346 100.334C64.9079 100.469 64.9104 100.608 64.9419 100.742C64.9734 100.876 65.0332 101.001 65.1173 101.11C65.2014 101.219 65.3078 101.309 65.4294 101.373C65.551 101.438 65.685 101.475 65.8224 101.484C67.3123 101.283 66.7411 99.1678 66.9649 98.0484C68.509 99.0675 69.5357 101.661 71.018 101.214C73.195 100.542 69.2887 97.9403 68.3468 96.8286C69.2554 96.8631 70.1652 96.8476 71.072 96.7823Z" fill="#001434"/>
<path d="M133.28 66.8433C139.665 66.8433 139.727 57.1624 132.995 57.5792C126.108 57.9267 127.845 66.8433 133.28 66.8433ZM134.516 64.7589C134.194 62.917 133.706 61.1081 133.057 59.3549C133.759 59.203 134.493 59.3267 135.107 59.7005C135.72 60.0743 136.167 60.6697 136.354 61.3634C136.542 62.0572 136.455 62.7965 136.113 63.4284C135.771 64.0603 135.199 64.5367 134.516 64.7589Z" fill="#001434"/>
<path d="M124.495 70.4952C123.574 70.7369 122.596 70.624 121.754 70.1787C120.728 69.5765 119.909 71.329 120.982 71.8925C121.583 72.3067 122.277 72.5646 123.002 72.6428C123.728 72.721 124.461 72.617 125.136 72.3403C125.334 72.2236 125.486 72.0418 125.566 71.8257C125.645 71.6095 125.648 71.3726 125.572 71.155C125.496 70.9375 125.348 70.7529 125.152 70.6326C124.955 70.5123 124.723 70.4637 124.495 70.4952Z" fill="#001434"/>
<path d="M70.2849 37.515C68.2159 42.4867 79.0163 42.919 76.1058 38.1171C75.2489 37.5304 74.4151 38.3333 73.0178 37.8392C71.0183 37.1135 70.7326 36.99 70.2849 37.515ZM71.937 38.8583C72.1609 38.5418 72.6241 38.9741 73.4192 39.0667C74.0754 39.1439 74.6004 38.9123 74.8011 39.2829C75.2334 40.6262 71.1264 39.9468 71.937 38.8583Z" fill="#001434"/>
<path d="M81.1628 92.1501C81.2061 92.0376 81.2267 91.9177 81.2233 91.7972C81.2199 91.6767 81.1927 91.5581 81.1431 91.4483C81.0936 91.3384 81.0227 91.2395 80.9347 91.1572C80.8466 91.0749 80.7431 91.0109 80.6301 90.9689C79.6806 90.745 78.1674 89.147 77.1175 89.147C76.0676 89.147 73.4119 92.3122 73.4041 92.235C73.2998 92.371 73.2353 92.5333 73.2178 92.7039C73.2002 92.8744 73.2303 93.0465 73.3047 93.2009C73.3791 93.3553 73.495 93.4861 73.6393 93.5786C73.7836 93.6711 73.9507 93.7218 74.1221 93.725C75.1489 93.532 74.8941 93.0225 76.2451 91.8722C76.4227 93.972 76.8319 96.6046 76.855 96.759C76.8992 96.9938 77.0331 97.2021 77.2283 97.3399C77.4235 97.4776 77.6648 97.5339 77.9008 97.4967C78.1368 97.4595 78.349 97.3319 78.4925 97.1408C78.636 96.9498 78.6994 96.7103 78.6692 96.4733C78.6692 96.4733 78.2524 93.7713 78.0748 91.7486C78.9626 92.2196 80.4912 93.4702 81.1628 92.1501Z" fill="#001434"/>
<path d="M148.906 57.0077C148.945 55.3402 148.134 53.6418 145.942 53.8579C147.285 52.5455 148.806 48.8476 145.749 47.0025C144.127 41.8301 138.592 44.4009 138.592 44.4009C140.321 40.0545 135.396 37.5531 132.416 40.1471C131.987 39.753 131.482 39.452 130.931 39.263C130.38 39.074 129.797 39.0012 129.216 39.049C128.636 39.0969 128.072 39.2645 127.56 39.5412C127.047 39.8178 126.598 40.1976 126.24 40.6566C125.414 37.7616 122.851 36.7503 120.211 37.9778C116.69 35.6154 112.274 39.2747 114.096 42.3473C112.9 42.5249 112.776 43.5285 113.123 44.5321C110.228 43.3123 107.395 46.2305 108.491 48.8553C108.198 49.3658 108.031 49.9386 108.003 50.5265C107.974 51.1144 108.086 51.7006 108.329 52.2367C107.297 54.8437 106.773 57.6239 106.785 60.4277C99.4126 54.8616 85.1691 70.1936 93.2443 78.6625C94.7313 79.9709 96.6039 80.7595 98.5789 80.9091C98.6638 80.2066 98.7255 79.7125 98.8413 78.9482C87.5392 77.5663 94.6957 62.6665 101.729 61.4777C106.978 60.5821 108.553 65.3377 108.152 69.0124C109.696 69.2595 111.24 69.5683 112.112 69.7845C106.832 65.5616 107.735 52.2753 113.988 46.9485C115.162 48.8553 119.693 47.2804 118.62 45.1574C119.624 44.9027 120.89 44.0303 120.705 43.3664C122.134 42.8345 123.661 42.6186 125.182 42.7333C125.506 43.6211 122.372 44.177 123.43 46.5007C122.519 46.6397 121.253 48.5851 123.769 49.7277C126.085 50.7776 129.212 48.9557 128.062 47.4117C129.505 47.3036 130.995 46.0529 130.563 44.7791C131.501 44.5325 132.485 44.5219 133.428 44.7482C134.371 44.9745 135.243 45.4307 135.967 46.0761C134.485 46.4776 133.813 47.6664 133.929 49.334C130.277 50.6387 136.716 54.7921 137.851 51.3798C138.405 51.5541 138.988 51.6159 139.566 51.5616C140.144 51.5072 140.705 51.3378 141.217 51.0633C142.969 50.5306 143.818 54.0741 142.761 54.7226C141.927 54.5219 141.217 55.456 141.132 56.2666C136.747 55.4097 139.256 63.0757 141.904 59.6094C142.288 59.8716 142.743 60.0119 143.209 60.0119C143.674 60.0119 144.129 59.8716 144.513 59.6094C145.826 64.6815 144.297 69.0433 140.144 71.9615C134.392 76.1612 124.117 75.8215 117.115 72.5328C117.296 73.2384 117.34 73.9721 117.246 74.6944C125.051 77.9446 135.296 77.7824 141.695 73.0809C148.312 79.5658 144.536 89.2931 138.453 94.5504C138.97 89.764 136.206 83.063 131.783 82.1983C128.857 81.2333 125.275 82.2601 122.936 80.994C122.225 77.134 119.894 75.8524 116.212 78.2225C105.403 69.0047 94.9659 90.2812 109.688 97.6694C124.356 106.378 148.288 98.9895 146.868 79.2184C147.22 79.0491 147.526 78.7988 147.763 78.4881C147.999 78.1774 148.158 77.8151 148.228 77.431C148.297 77.0468 148.274 76.6517 148.161 76.278C148.048 75.9043 147.849 75.5627 147.578 75.2811C149.122 74.1772 149.894 71.4211 147.949 68.9584C151.075 67.4144 150.265 64.8436 149.493 62.4041C151.222 60.945 150.96 58.3433 148.906 57.0077ZM135.975 96.5268C127.73 102.162 105.095 99.9699 104.145 86.4907C105.936 88.0347 105.998 88.3281 106.886 88.5365C107.093 88.5482 107.298 88.49 107.468 88.3713C107.638 88.2526 107.763 88.0802 107.824 87.8818C107.884 87.6834 107.877 87.4704 107.802 87.2769C107.727 87.0835 107.589 86.9208 107.411 86.8149C106.31 86.0024 105.298 85.076 104.392 84.0511C104.699 82.7742 105.287 81.582 106.114 80.5617C107.165 81.8847 108.532 82.9226 110.089 83.5802C110.289 83.5773 110.481 83.5103 110.639 83.3892C110.797 83.2681 110.912 83.0993 110.967 82.9079C111.021 82.7165 111.013 82.5125 110.942 82.3263C110.872 82.1401 110.743 81.9815 110.576 81.8741C109.393 81.1677 108.31 80.3057 107.357 79.311C112.977 74.3933 114.004 82.1211 117.995 79.4037C121.083 77.3192 120.311 81.0944 121.855 82.4917C124.534 84.2287 128.139 83.0167 131.312 83.9817C136.585 85.5797 137.558 94.0023 135.975 96.5268Z" fill="#001434"/>
<path d="M69.7673 144.608C60.0168 139.798 48.2823 125.802 52.8758 111.103C54.8212 113.419 59.9088 117.997 60.5032 116.013C60.9587 114.469 57.2531 113.087 53.6941 108.602C54.9971 105.215 56.9363 102.11 59.407 99.4533C59.268 98.5963 59.2062 98.2258 59.0209 97.0986C55.9329 98.9901 52.3971 105.174 51.4244 108.092C44.3142 129.469 61.6921 143.504 68.038 145.835C69.9603 146.546 70.9793 145.202 69.7673 144.608Z" fill="#001434"/>
<path d="M124.48 57.3865C121.832 57.0546 120.049 60.104 121.693 60.6058C122.913 60.9764 122.681 59.0618 124.086 59.1853C125.777 59.3706 124.951 61.1616 126.093 61.2697C127.954 61.455 127.606 57.7802 124.48 57.3865Z" fill="#001434"/>
<path d="M119.137 120.884C115.795 113.257 108.16 102.611 97.197 98.2644C97.4595 99.4224 97.5599 99.8856 97.8609 101.298C110.29 107.413 118.52 120.004 119.956 133.815C120.434 138.447 120.55 139.327 121.222 139.389C122.156 139.466 122.635 138.679 122.527 136.927C122.264 132.719 121.453 126.188 119.137 120.884Z" fill="#001434"/>
<path d="M96.603 72.5022C95.831 71.5835 94.6344 72.9886 95.4218 73.8841C95.8856 74.5067 96.4723 75.0274 97.1456 75.4139C97.8189 75.8003 98.5644 76.0443 99.3359 76.1307C99.444 75.3587 99.5058 74.9495 99.6138 74.2315C98.4562 73.9785 97.4048 73.3747 96.603 72.5022Z" fill="#001434"/>
<path d="M34.68 75.0808C33.9774 74.6485 33.4602 75.7216 31.9162 76.0149C31.0512 76.1195 30.1739 75.9999 29.3686 75.6675C29.252 75.6315 29.1292 75.6199 29.0079 75.6334C28.8867 75.647 28.7695 75.6854 28.6637 75.7462C28.558 75.8071 28.4659 75.8891 28.3932 75.9871C28.3205 76.0852 28.2689 76.1971 28.2414 76.316C28.0639 77.6825 30.4802 78.1997 32.3485 77.86C34.7263 77.4895 35.8766 75.8297 34.68 75.0808Z" fill="#001434"/>
<path d="M90.1328 111.952C89.7005 104.44 88.4035 99.5995 79.2321 102.842C79.0888 102.878 78.9378 102.87 78.7996 102.817C78.6615 102.765 78.5429 102.671 78.46 102.549C77.3792 101.005 76.5223 101.576 74.075 101.815C69.8985 102.217 68.8794 103.359 69.0493 106.316C69.8213 112.554 71.0102 120.104 78.2207 116.954C77.773 123.223 81.7025 134.934 84.8291 138.763C85.825 139.991 87.6933 139.01 86.6819 137.567C84.7133 134.757 81.1466 127.214 80.6294 120.235C80.2897 115.603 84.0648 111.434 89.5538 114.198C95.8302 117.356 101.79 126.712 102.578 127.662C103.782 129.106 105.334 128.048 103.882 125.655C97.8683 115.696 90.21 111.99 90.1328 111.952ZM84.1189 109.095C83.001 109.125 81.908 108.762 81.0308 108.068C82.4204 110.57 82.0344 111.967 81.2238 112.206C80.4132 112.446 79.0159 111.434 78.8538 108.949C78.8538 108.949 77.5336 112.307 76.0823 111.311C75.6654 111.025 75.3103 110.307 76.0128 109.304C77.3406 107.412 78.1049 105.629 79.1008 105.374C80.6834 105.204 87.6778 107.513 84.1189 109.095Z" fill="#001434"/>
<path d="M35.7685 69.3378C35.4814 68.76 34.9949 68.3058 34.3989 68.0589C33.8029 67.8119 33.1376 67.7891 32.5261 67.9945C30.1174 68.5735 29.2528 71.7387 30.9821 71.8545C32.2173 71.9549 31.9702 69.8396 33.0742 69.7469C33.576 69.608 34.0855 70.0712 34.4175 70.5189C35.0969 71.4299 36.3861 70.38 35.7685 69.3378Z" fill="#001434"/>
<path d="M119.393 52.2684C119.58 52.2887 119.77 52.2539 119.938 52.1683C120.107 52.0827 120.246 51.9499 120.34 51.7862C120.435 51.6225 120.479 51.4349 120.468 51.2463C120.458 51.0578 120.392 50.8764 120.28 50.7244C119.805 50.2489 119.239 49.874 118.615 49.622C117.992 49.37 117.324 49.2461 116.652 49.2576C115.602 49.2576 115.285 50.9097 116.243 51.1567C117.316 51.458 118.368 51.8293 119.393 52.2684Z" fill="#001434"/>
<path d="M112.753 53.5187C106.361 58.2047 115.44 66.5965 119.948 59.4631C122.681 55.163 116.258 50.9556 112.753 53.5187ZM118.319 58.6062C118.004 59.1929 117.53 59.6797 116.953 60.0112C116.591 58.1445 116.074 56.3111 115.409 54.53C117.346 54.1517 119.508 57.0004 118.319 58.6062Z" fill="#001434"/>
<path d="M104.007 64.466C102.833 65.238 105.149 67.1063 105.126 68.7275C105.96 68.7738 106.338 68.797 106.848 68.8433C106.994 67.0831 105.288 63.6554 104.007 64.466Z" fill="#001434"/>
<path d="M51.6641 99.7928C54.9915 96.2493 55.887 93.7943 55.2308 88.2127C57.5468 83.5807 55.5627 77.3506 49.5565 80.3073C47.6419 81.2492 45.8277 82.7855 43.8514 83.2873C42.8015 81.89 43.0022 78.3001 39.4278 78.6552C37.3897 78.8482 36.4942 80.4386 35.8302 82.5153C30.7581 83.9667 15.0401 86.7304 11.265 79.4273C9.72095 76.9105 12.5542 74.0232 10.6242 71.8153C11.6436 71.2104 12.5288 70.4039 13.2259 69.4452C14.1416 69.7286 15.1192 69.7447 16.0437 69.4915C14.5846 75.3279 23.3623 76.6017 26.8518 73.2435C28.3958 71.4679 28.5425 67.299 25.6861 66.0715C27.1656 65.2376 28.4458 64.0917 29.438 62.7133C35.946 66.8358 42.014 51.6195 45.048 60.8296C32.2636 58.6371 35.6141 76.594 46.9317 68.6578C47.0618 69.4227 47.0878 70.2018 47.0089 70.9738C47.5493 70.7576 48.5529 70.4565 48.993 70.3253C48.9003 65.7704 47.1247 55.8965 39.1421 51.0251C33.5528 47.6205 28.8127 47.1651 23.1153 48.8789C8.92578 53.2485 -3.07121 68.8739 8.79454 72.3557C10.7323 75.8606 5.99987 78.5317 12.3381 83.4494C7.1656 89.695 11.8826 100.796 18.5141 107.127C20.5942 109.203 23.3821 110.416 26.3191 110.524C31.4761 110.84 42.8401 109.204 51.6641 99.7928ZM39.1035 64.1569C39.528 63.6311 40.0624 63.2046 40.6692 62.9072C41.276 62.6098 41.9405 62.4487 42.6162 62.4354C42.444 64.4739 42.5558 66.5264 42.9481 68.5342C39.2965 70.0242 37.5904 66.2491 39.1035 64.1569ZM22.7215 73.0736C15.4956 74.4246 16.7539 66.0792 23.1153 67.1832C22.7046 69.118 22.572 71.1014 22.7215 73.0736ZM9.04158 70.4334C-4.75419 67.5152 26.35 36.5731 42.207 56.0663C39.0186 55.2943 33.769 63.5316 30.5729 61.2233C31.8235 60.1965 32.0011 57.6489 29.9553 58.9073C27.9326 61.9953 25.2229 65.3227 21.7951 65.2841C22.351 64.458 24.0571 63.4621 23.0458 62.4277C22.9536 62.3494 22.8469 62.2901 22.7318 62.2532C22.6167 62.2162 22.4954 62.2024 22.3749 62.2124C22.2544 62.2225 22.137 62.2562 22.0296 62.3117C21.9222 62.3672 21.8268 62.4433 21.7488 62.5357C19.3016 65.2918 17.3638 67.8317 14.4688 67.7931C14.9629 66.9053 16.5069 65.8708 15.4415 64.9212C15.2448 64.7783 14.9995 64.7191 14.7593 64.7568C14.5191 64.7944 14.3036 64.9257 14.16 65.122C12.7318 66.8667 11.2495 69.9084 9.04158 70.4334ZM13.9979 84.3913C19.842 86.9852 29.7237 86.0279 35.2435 84.5843C35.0963 85.0316 34.8421 85.4363 34.5031 85.7632C34.1641 86.0901 33.7505 86.3294 33.298 86.4602C22.3047 90.2817 16.5609 93.2848 16.0205 101.538C11.8285 95.6626 10.1842 87.7418 13.9979 84.3913ZM27.315 108.655C20.9073 108.401 16.3911 104.023 18.5681 98.0712C20.1122 93.8175 25.2537 90.7294 33.9079 88.2127C37.9919 87.0161 36.996 80.9635 39.6517 80.4926C41.4582 80.1529 41.4118 84.399 43.1103 84.9857C46.1983 86.0665 50.5215 79.8519 53.5092 81.8128C54.8911 82.9476 54.2812 85.804 53.4474 86.8617C52.8109 87.6644 52.0243 88.3357 51.1314 88.838C50.2899 89.3089 50.5833 90.6136 51.5251 90.4747C52.3767 90.2047 53.1448 89.721 53.7562 89.0696C54.3044 93.0069 52.5519 96.0949 49.8962 98.8432C43.7896 105.197 35.2281 108.957 27.2996 108.655H27.315Z" fill="#001434"/>
</svg>
