<svg width="156" height="156" viewBox="0 0 156 156" fill="none" xmlns="http://www.w3.org/2000/svg">
<path fill-rule="evenodd" clip-rule="evenodd" d="M114.748 138.748C114.859 139.348 115.183 139.887 115.66 140.267C116.353 140.731 129.143 141.815 131.557 140.189C131.62 139.555 131.642 138.918 131.623 138.281C131.623 138.281 130.287 139.254 126.918 139.097C124.884 139.01 122.847 139.166 120.85 139.561C116.338 140.041 114.748 138.748 114.748 138.748Z" fill="white"/>
<path fill-rule="evenodd" clip-rule="evenodd" d="M129.819 134.497C129.991 134.81 130.181 135.113 130.388 135.404C131.002 136.291 131.412 137.302 131.59 138.366C130.817 138.836 129.938 139.105 129.035 139.149C127.246 139.331 114.324 140.638 114.778 138.374C115.231 136.11 124.795 134.758 124.795 134.758C125.356 135.829 128.721 135.707 129.819 134.497Z" fill="#FFD997"/>
<path fill-rule="evenodd" clip-rule="evenodd" d="M126.416 40.77C126.381 41.3262 126.453 41.8839 126.628 42.4129C123.051 43.8252 118.886 48.6805 118.886 48.6805C117.828 46.385 117.282 43.8868 117.286 41.3592C117.169 41.3816 117.054 41.401 116.946 41.418C116.678 41.7913 116.467 42.2013 116.317 42.6351C116.317 43.1113 115.448 43.8035 115.448 44.803C115.448 45.8026 114.195 47.317 112.782 48.8431C112.782 48.8431 111.17 56.2558 110.869 58.5019C110.156 59.2768 109.389 60.0012 108.575 60.6698C110.155 63.2566 112.69 65.083 115.663 66.486C115.663 66.486 109.059 73.4426 106.091 72.1264C103.398 70.9325 103.769 69.9229 103.437 65.7086C103.106 61.4944 109.282 47.8613 109.282 47.8613C109.061 46.1789 108.928 44.4862 108.881 42.79C108.958 41.6751 110.499 40.564 111.281 40.0422C112.022 39.5505 113.69 38.0562 114.154 38.1406C114.019 37.9961 113.845 37.8941 113.653 37.8472C113.714 37.3571 114.356 36.9088 114.356 36.9088C113.124 36.6239 113.324 35.917 113.766 35.5701C114.208 35.2232 113.273 34.6131 112.604 34.0572C111.936 33.5013 113.344 32.5861 114.113 32.168C114.883 31.7499 114.59 31.29 114.376 30.5274C114.161 29.7648 114.154 29.3381 114.634 28.8628C115.079 28.3516 115.482 27.8047 115.837 27.2275H117.16C117.16 27.2275 121.496 28.457 120.146 30.1016C118.797 31.7461 117.875 32.4832 119.445 33.4951C121.015 34.507 121.572 35.8752 118.794 36.6417C118.794 36.6417 123.284 36.2274 123.11 34.1571C123.044 33.3828 122.989 32.9136 122.993 32.566C123.869 32.288 124.929 32.1649 125.316 32.9988C125.465 33.4389 125.477 33.9138 125.35 34.3608C125.224 34.8079 124.965 35.2062 124.608 35.5035C124.608 35.5035 123.911 37.9865 124.808 39.5869C124.961 39.8815 125.178 40.1385 125.442 40.3393C125.707 40.5401 126.012 40.6798 126.337 40.7483L126.416 40.77ZM114.003 39.6465C113.633 40.2492 113.313 40.881 113.046 41.5357C112.92 42.2338 113.015 42.9537 113.317 43.5952C113.317 43.5952 114.57 43.0927 114.836 42.4431C115.002 42.0858 115.227 41.7595 115.502 41.4784C115.283 41.4573 115.071 41.3931 114.877 41.2895C114.682 41.1858 114.511 41.0448 114.371 40.8745C114.232 40.7043 114.128 40.5081 114.064 40.2974C114.001 40.0866 113.98 39.8654 114.003 39.6465Z" fill="#FFD997"/>
<path d="M116.922 31.2551C116.603 30.9981 115.639 30.3934 115.029 30.6651C114.941 30.7035 114.842 30.7076 114.75 30.6767C114.659 30.6457 114.583 30.5818 114.536 30.4976C114.49 30.4133 114.476 30.3147 114.498 30.221C114.52 30.1273 114.577 30.0452 114.656 29.9908C115.149 29.6586 116.37 29.3799 117.463 30.7069C117.523 30.7809 117.554 30.8745 117.55 30.9699C117.545 31.0653 117.506 31.1556 117.439 31.2236C117.372 31.2916 117.282 31.3324 117.187 31.3382C117.091 31.3441 116.997 31.3144 116.922 31.2551Z" fill="black"/>
<path fill-rule="evenodd" clip-rule="evenodd" d="M129.577 35.4647C129.742 35.2363 129.887 34.9935 130.009 34.7392C131.183 32.3251 131.508 30.6357 130.683 27.9637C129.857 25.2918 122.04 17.7785 117.164 24.8574C117.164 24.8574 109.499 24.4618 109.749 25.8454C109.999 27.229 119.341 27.229 119.341 27.229L129.577 35.4647Z" fill="#81F8F8"/>
<path fill-rule="evenodd" clip-rule="evenodd" d="M116.589 32.5613C116.195 32.1379 115.724 31.7928 115.201 31.5439C115.201 31.5439 114.823 31.9597 114.879 32.2826C114.957 32.7138 115.569 33.039 116.589 32.5613Z" fill="white"/>
<path d="M116.689 32.089C116.252 31.6277 115.716 31.2703 115.122 31.043C115.042 31.0161 114.955 31.0163 114.875 31.0436C114.795 31.0708 114.725 31.1237 114.678 31.194C114.631 31.2644 114.608 31.3483 114.613 31.4329C114.618 31.5175 114.651 31.5981 114.706 31.6624C114.673 31.7997 114.669 31.9424 114.695 32.0813C114.844 32.888 115.557 32.8919 115.551 32.1362C115.758 32.2693 115.947 32.4285 116.114 32.6101C116.147 32.6503 116.188 32.6834 116.235 32.7074C116.281 32.7313 116.332 32.7457 116.384 32.7495C116.436 32.7534 116.488 32.7467 116.538 32.7298C116.587 32.7129 116.633 32.6862 116.671 32.6513C116.71 32.6164 116.742 32.574 116.764 32.5267C116.786 32.4794 116.798 32.4281 116.8 32.3759C116.801 32.3238 116.792 32.2718 116.773 32.2232C116.754 32.1745 116.726 32.1302 116.689 32.0929V32.089Z" fill="black"/>
<path fill-rule="evenodd" clip-rule="evenodd" d="M127.768 74.5079C131.494 68.9829 132.113 66.6369 132.113 66.6369C137.12 62.7014 141.522 63.0823 141.522 63.0823C141.723 63.5468 141.902 64.0114 142.049 64.4605C143.322 68.372 137.776 72.2672 135.603 73.7646C133.43 75.262 130.127 78.0176 129.865 79.1286C129.603 80.2397 131.211 82.9852 130.337 84.8899C129.462 86.7945 128.228 89.4455 128.228 89.4455C128.228 89.4455 129.219 85.0904 127.412 81.9771C127.412 81.9748 127.042 79.8332 127.768 74.5079Z" fill="#FFD997"/>
<path fill-rule="evenodd" clip-rule="evenodd" d="M127.412 81.929C122.493 80.9829 118.445 82.7954 113.356 87.4626C113.356 87.4626 111.443 101.786 113.145 114.23C113.145 114.23 119.544 115.614 128.264 113.515C128.264 113.515 127.207 94.9334 128.207 89.8016C129.208 84.6699 127.412 81.929 127.412 81.929Z" fill="#81F8F8"/>
<path fill-rule="evenodd" clip-rule="evenodd" d="M141.521 63.08C138.056 63.0786 134.71 64.3427 132.111 66.6346C131.893 65.766 131.563 64.9293 131.13 64.1454C126.61 72.2967 127.379 81.9942 127.379 81.9942C127.379 81.9942 121.602 79.292 113.337 87.5494C113.337 87.5494 113.735 83.1439 112.688 80.6981C111.585 77.5295 110.824 74.2517 110.42 70.9208C112.246 69.5603 113.958 68.0532 115.539 66.4147C112.594 65.3758 110.145 63.2703 108.677 60.5141C110.273 59.5664 111.958 57.2445 113.09 55.2175C114.146 53.3306 114.631 51.2819 118.442 49.4199C119.603 47.5841 124.852 42.6545 126.561 42.4028C128.448 45.9729 127.517 45.4224 131.584 47.7939C132.644 48.4133 134.792 48.9669 135.979 52.4642C137.03 55.5589 139.972 59.5037 141.521 63.08Z" fill="white"/>
<path d="M123.257 57.3482C123.154 57.3482 123.055 57.3074 122.983 57.2348C122.91 57.1622 122.869 57.0637 122.869 56.961C122.869 54.5733 122.294 52.8707 121.159 51.9036C120.765 51.5792 120.309 51.3367 119.82 51.1904C119.33 51.0442 118.816 50.9971 118.308 51.052C118.207 51.0682 118.103 51.0434 118.02 50.9832C117.937 50.9229 117.881 50.8321 117.865 50.7306C117.849 50.6292 117.873 50.5255 117.934 50.4423C117.994 50.3591 118.085 50.3032 118.186 50.287C118.805 50.2143 119.431 50.2678 120.029 50.4442C120.626 50.6207 121.181 50.9165 121.661 51.3137C122.977 52.4348 123.644 54.3332 123.644 56.9603C123.644 57.0112 123.634 57.0616 123.614 57.1087C123.595 57.1557 123.567 57.1985 123.531 57.2345C123.495 57.2705 123.452 57.2991 123.405 57.3186C123.358 57.3381 123.308 57.3482 123.257 57.3482Z" fill="black"/>
<path d="M125.184 95.9004C125.012 95.7231 125.561 95.7587 114.902 95.9825C114.851 95.9835 114.801 95.9946 114.754 96.0151C114.708 96.0357 114.665 96.0652 114.63 96.1022C114.595 96.1391 114.567 96.1826 114.549 96.2302C114.531 96.2779 114.522 96.3287 114.523 96.3797L114.883 110.216C114.885 110.3 114.915 110.381 114.968 110.447C115.02 110.513 115.093 110.56 115.175 110.581C116.821 110.997 118.51 111.217 120.208 111.237C121.626 111.277 123.04 111.073 124.389 110.634C124.458 110.607 124.519 110.56 124.562 110.499C124.606 110.438 124.631 110.366 124.635 110.291C125.343 95.1146 125.365 96.087 125.184 95.9004ZM124.5 96.5655L124.345 99.8646L115.395 100.118L115.307 96.749L124.5 96.5655ZM115.415 100.892L117.061 100.846L117.228 110.214C116.724 110.134 116.198 110.029 115.65 109.9L115.415 100.892ZM118.003 110.322L117.835 100.823L121.896 100.709L121.199 110.422C120.132 110.485 119.062 110.452 118.002 110.322H118.003ZM121.977 110.353L122.674 100.687L124.31 100.64L123.871 109.989C123.251 110.165 122.617 110.288 121.975 110.356L121.977 110.353Z" fill="black"/>
<path fill-rule="evenodd" clip-rule="evenodd" d="M127.274 125.901C129.315 132.94 129.033 133.051 129.817 134.495C129.341 134.903 128.769 135.183 128.155 135.309C128.155 135.309 126.711 128.009 127.274 125.901Z" fill="white"/>
<path fill-rule="evenodd" clip-rule="evenodd" d="M129.558 140.878C129.489 140.703 129.418 140.53 129.348 140.366C128.419 138.21 127.461 131.002 127.262 128.487C125.142 129.664 122.684 130.083 120.294 129.676C121.297 132.865 122.082 136.119 122.644 139.416C123.171 139.54 123.653 139.81 124.034 140.195C124.415 140.58 124.681 141.064 124.801 141.592C125.33 144.793 129.558 140.878 129.558 140.878Z" fill="white"/>
<path fill-rule="evenodd" clip-rule="evenodd" d="M131.16 146.321C126.861 147.756 122.429 148.759 117.93 149.315C110.361 150.267 109.214 147.933 109.214 147.933C109.061 148.807 109.247 149.708 109.736 150.45C110.565 151.885 115.183 152.175 120.188 150.848C125.194 149.52 130.778 148.602 131.161 147.925C131.373 147.411 131.373 146.835 131.16 146.321Z" fill="white"/>
<path fill-rule="evenodd" clip-rule="evenodd" d="M122.646 139.416C122.646 139.416 117.923 142.466 115.642 144.294C113.362 146.121 108.534 147.205 109.294 148.128C110.053 149.052 114.724 150.374 121.565 148.762C128.405 147.15 131.16 146.321 131.16 146.321C130.741 144.475 130.206 142.657 129.558 140.878C129.558 140.878 127.622 142.813 125.774 142.833C124.907 142.841 124.69 141.145 124.148 140.343C123.985 140.084 123.764 139.867 123.504 139.706C123.244 139.546 122.951 139.446 122.646 139.416Z" fill="#FFD997"/>
<path fill-rule="evenodd" clip-rule="evenodd" d="M127.263 128.487C127.246 128.281 127.524 118.437 126.244 114.059C123.061 114.654 119.82 114.877 116.586 114.723C116.586 114.723 118.939 124.556 120.297 129.676C122.686 130.14 125.162 129.718 127.263 128.487Z" fill="#FFD997"/>
<path d="M142.417 64.3381C141.136 60.4134 137.509 55.761 136.349 52.3372C135.11 48.6874 132.875 48.0928 131.781 47.4594C130.828 46.9035 129.381 46.0077 129.107 45.8335C129.078 45.8033 126.808 43.4395 126.808 40.7707C126.808 38.1018 129.147 37.3934 130.356 34.9065C131.496 32.5597 131.945 30.7395 131.053 27.8484C130.49 26.0289 126.966 22.1755 123.128 21.5886C120.717 21.2255 118.59 22.2126 116.971 24.4587C115.5 24.3914 110.467 24.242 109.555 25.2764C109.477 25.3608 109.42 25.4621 109.387 25.5724C109.355 25.6826 109.349 25.7989 109.369 25.912C109.544 26.8992 112.311 27.325 115.2 27.5008C114.953 27.8847 114.674 28.2472 114.366 28.5847C114.102 28.8461 113.925 29.1834 113.861 29.5499C113.796 29.9163 113.848 30.2937 114.008 30.6295C114.245 31.4688 114.395 31.5749 113.93 31.8258C113.11 32.2725 112.117 32.95 112.049 33.6398C112.037 33.7749 112.059 33.9108 112.113 34.0351C112.167 34.1595 112.252 34.2682 112.359 34.3514C112.753 34.6416 113.123 34.9643 113.464 35.3161C113.318 35.4176 113.202 35.5561 113.127 35.7174C113.053 35.8786 113.022 36.0569 113.04 36.2337C113.057 36.4105 113.121 36.5795 113.225 36.7234C113.33 36.8672 113.47 36.9806 113.633 37.0519C113.411 37.3167 113.139 37.7859 113.339 38.067C112.593 38.4859 111.617 39.353 111.068 39.7177C109.403 40.8233 108.561 41.8182 108.492 42.7605C108.529 44.4457 108.658 46.1276 108.879 47.7986C108.276 49.1396 102.723 61.6158 103.045 65.7364C103.373 69.9065 102.993 71.1763 105.929 72.4786C107.214 73.0484 108.898 72.2874 110.103 71.5758C110.388 73.7174 111.342 78.5487 112.329 80.8459C113.324 83.1733 112.949 87.4681 112.949 87.5115C112.977 87.6369 111.041 101.73 112.758 114.278C112.769 114.357 112.804 114.43 112.857 114.489C112.911 114.547 112.982 114.587 113.059 114.604C114.113 114.799 115.178 114.925 116.248 114.98C120.597 133.124 120.636 131.903 121.358 134.975C119.623 135.38 114.333 136.734 114.403 138.513C114.375 138.823 114.411 139.135 114.51 139.43C114.608 139.725 114.766 139.997 114.975 140.228C115.587 140.998 117.816 141.157 119.306 141.169C114.249 144.618 115.672 144.226 111.609 145.998C109.161 147.065 108.892 147.294 108.792 148.065C108.706 148.966 108.918 149.871 109.396 150.639C109.949 151.596 111.732 152.093 114.108 152.093C116.195 152.063 118.27 151.769 120.283 151.218C125.889 149.73 130.983 149.016 131.493 148.111C131.627 147.813 131.7 147.489 131.706 147.162C131.712 146.834 131.651 146.509 131.528 146.205C131.135 144.481 130.643 142.78 130.057 141.111C130.561 141.019 131.901 140.701 131.97 140.195C132.202 138.422 131.748 136.627 130.701 135.177C129.411 133.344 129.797 133.206 127.645 125.79C127.525 125.372 127.839 118.536 126.692 114.249C127.234 114.14 127.787 114.023 128.351 113.888C128.439 113.867 128.517 113.815 128.571 113.742C128.625 113.669 128.652 113.58 128.647 113.489C128.647 113.456 128.609 112.827 128.559 111.8L130.815 110.716C130.891 110.679 130.953 110.619 130.992 110.544C131.03 110.469 131.043 110.384 131.029 110.301L128.223 94.0965C128.241 92.5323 128.388 90.9723 128.662 89.4324C128.949 88.813 129.947 86.6683 130.689 85.0524C131.618 83.0301 130.022 80.1452 130.242 79.22C130.45 78.3389 133.359 75.7823 135.822 74.0852C137.796 72.7209 143.802 68.5818 142.417 64.3381ZM134.94 51.062C135.981 52.8838 135.027 52.2946 138.501 58.2494C139.367 59.7329 140.249 61.2496 140.926 62.7083C137.118 62.5535 133.607 64.9614 132.345 65.9447C132.146 65.3196 131.886 64.7152 131.571 64.1399C134.785 58.2556 135.05 53.384 134.94 51.062ZM131.716 66.6191C130.882 68.7598 129.802 70.7965 128.499 72.6884C129.02 70.0097 129.906 67.4151 131.131 64.9769C131.39 65.4989 131.586 66.0503 131.713 66.6191H131.716ZM128.077 45.8196C125.936 46.0913 123.362 46.9035 119.54 48.5124C120.879 46.9298 123.465 44.2293 126.431 42.8999C126.814 43.957 127.369 44.9436 128.074 45.8196H128.077ZM123.014 22.3551C126.627 22.9079 129.86 26.6019 130.317 28.0784C131.138 30.7395 130.742 32.3522 129.664 34.5697C129.61 34.682 129.552 34.7911 129.491 34.8964L119.623 26.9596C119.079 26.1572 118.433 25.4285 117.702 24.7917C119.145 22.8653 120.926 22.04 123.011 22.3551H123.014ZM123.396 32.8013C125.749 32.0828 126 35.618 121.976 36.2173C124.004 35.227 123.44 34.092 123.393 32.8013H123.396ZM110.13 25.8021C110.329 25.4273 112.387 25.1873 114.948 25.1873C115.615 25.1873 116.318 25.2051 117.03 25.2392C117.606 25.7104 118.125 26.2467 118.578 26.8372C117.625 26.8264 110.559 26.6305 110.127 25.8021H110.13ZM112.825 33.725C112.81 33.5903 113.23 33.0947 114.306 32.5102C116.009 31.5811 113.937 30.11 114.914 29.1391C115.355 28.6444 115.752 28.1123 116.101 27.5488C116.425 27.5627 116.749 27.5751 117.067 27.5844C118.125 27.9026 119.784 28.6304 120.002 29.3358C120.091 29.6222 119.936 29.7655 119.435 30.3593C118.286 31.7205 117.535 32.7216 119.243 33.8218C120.004 34.3126 120.423 34.8345 120.364 35.2154C120.305 35.6095 119.697 35.9935 118.698 36.2684C118.607 36.2927 118.528 36.3493 118.476 36.4277C118.424 36.506 118.402 36.6006 118.415 36.6939C118.427 36.7872 118.473 36.8727 118.544 36.9345C118.615 36.9962 118.706 37.03 118.8 37.0295C119.696 36.9465 120.578 36.7538 121.426 36.4558C121.392 36.5138 121.373 36.5798 121.373 36.6472C121.373 36.7145 121.39 36.7808 121.424 36.8392C121.457 36.8975 121.506 36.9459 121.564 36.9794C121.623 37.0128 121.689 37.0301 121.757 37.0295C122.558 36.9564 123.338 36.7273 124.052 36.3551C123.763 38.3682 124.13 40.3928 126.052 41.0502C126.071 41.4198 126.123 41.7869 126.207 42.1473C123.056 43.5255 120.385 46.3035 118.987 47.9542C118.317 46.3448 117.9 44.6419 117.748 42.9053L119.862 41.0471C119.928 40.9898 119.973 40.9118 119.989 40.8259C120.005 40.74 119.991 40.6513 119.95 40.574C119.909 40.4967 119.844 40.4356 119.764 40.4004C119.684 40.3653 119.594 40.3583 119.51 40.3805L117.516 40.8953C117.515 40.8175 117.498 40.7406 117.467 40.6692C117.436 40.5978 117.392 40.5333 117.335 40.4795C117.279 40.4257 117.213 40.3836 117.14 40.3557C117.067 40.3277 116.99 40.3146 116.912 40.317C116.326 40.3555 115.779 40.6217 115.388 41.0587C113.829 40.7668 114.685 39.1432 114.696 38.5687C114.697 38.3805 114.647 38.1955 114.553 38.0324C114.459 37.8693 114.324 37.7338 114.161 37.6396C114.257 37.5125 114.368 37.3985 114.493 37.3005C115.137 37.3291 116.105 37.0612 115.786 36.5131C115.734 36.4245 115.65 36.3601 115.55 36.3341C115.451 36.3081 115.345 36.3226 115.257 36.3745C114.999 36.508 114.707 36.5588 114.419 36.52C113.986 36.414 113.837 36.2638 113.82 36.1902C113.764 35.9363 114.273 35.8464 114.274 35.3587C114.272 34.754 113.416 34.2468 112.822 33.725H112.825ZM118.442 48.6224C118.21 48.9174 118.046 49.1349 117.977 49.2278C113.69 51.443 114.035 53.4049 111.508 57.023C112.009 54.2705 112.979 49.7644 113.141 49.0273C114.551 47.4981 115.837 45.9349 115.837 44.8014C115.837 43.9296 116.707 43.2754 116.706 42.6459C116.758 42.4972 116.83 42.3556 116.917 42.2247C117.02 44.4337 117.536 46.6038 118.439 48.6224H118.442ZM114.825 41.7075C114.689 41.8904 114.574 42.0877 114.482 42.296C114.245 42.6381 113.917 42.9065 113.534 43.0702C113.369 42.7047 113.311 42.3001 113.366 41.903C113.421 41.5058 113.586 41.1322 113.844 40.8249C113.935 41.033 114.069 41.2194 114.238 41.3716C114.406 41.5238 114.605 41.6383 114.822 41.7075H114.825ZM106.248 71.7748C103.79 70.6839 104.152 69.9166 103.823 65.6791C103.504 61.6128 109.574 48.1578 109.635 48.0223C109.664 47.9575 109.674 47.886 109.666 47.8156C109.449 46.1582 109.316 44.4909 109.266 42.8201C109.3 42.3556 109.715 41.5503 111.498 40.3665C112.268 39.7516 113.069 39.1779 113.899 38.6477C113.807 38.986 113.74 39.3304 113.697 39.6782C113.279 40.2025 112.936 40.7832 112.68 41.4032C112.511 42.1971 112.61 43.0248 112.962 43.7562C113.003 43.8469 113.078 43.9181 113.171 43.955C113.263 43.9919 113.366 43.9917 113.459 43.9544C113.603 43.8971 114.873 43.3683 115.192 42.5894C115.495 41.9451 116.015 41.4273 116.66 41.1261C116.582 41.2809 116.456 41.4853 116.369 41.6255C115.63 42.8325 116.197 42.2843 115.672 43.1275C115.311 43.6146 115.099 44.196 115.061 44.8014C115.061 45.808 113.265 47.7498 112.498 48.579C112.451 48.6296 112.418 48.6919 112.404 48.7594C112.339 49.0583 110.832 55.9963 110.501 58.3384C109.93 59.0559 109.248 59.6779 108.481 60.1812C106.757 61.2039 104.83 64.1469 104.749 64.2715C104.719 64.3141 104.699 64.3621 104.688 64.4128C104.678 64.4634 104.677 64.5157 104.687 64.5664C104.698 64.6171 104.718 64.6653 104.747 64.7082C104.776 64.751 104.813 64.7876 104.856 64.8158C104.9 64.844 104.948 64.8632 104.999 64.8723C105.05 64.8815 105.102 64.8803 105.153 64.8689C105.203 64.8575 105.251 64.8361 105.293 64.806C105.335 64.7758 105.37 64.7376 105.397 64.6935C106.243 63.4037 107.248 62.2267 108.391 61.1908C108.96 62.1702 110.747 64.6703 114.946 66.585C113.057 68.5462 108.389 72.7209 106.248 71.7748ZM110.832 71.1252C112.595 69.8903 114.228 68.4787 115.705 66.9125C117 67.4393 118.337 67.8573 119.701 68.1621C119.787 68.1818 119.878 68.1713 119.957 68.1324C120.036 68.0935 120.1 68.0286 120.138 67.9484L123.608 60.487C123.632 60.4406 123.646 60.3898 123.65 60.3377C123.654 60.2856 123.647 60.2332 123.631 60.1837C123.614 60.1343 123.587 60.0887 123.552 60.0498C123.517 60.011 123.475 59.9796 123.427 59.9575C123.38 59.9355 123.329 59.9233 123.276 59.9217C123.224 59.92 123.172 59.929 123.123 59.948C123.075 59.967 123.03 59.9957 122.993 60.0323C122.956 60.0689 122.926 60.1127 122.906 60.161L119.569 67.3368C112.32 65.6017 109.653 61.8086 109.033 60.7448C111.067 59.4379 112.904 56.3447 113.432 55.4071C114.583 53.3484 115.012 51.2695 119.493 49.368C123.808 47.5369 126.507 46.7069 128.748 46.5226C129.135 46.7649 130.489 47.6019 131.392 48.1284C132.367 48.5498 133.264 49.1325 134.045 49.8519C134.172 50.6718 134.892 56.5631 130.793 63.958C127.985 69.0216 126.767 75.7637 126.966 81.4398C125.329 80.9822 120.39 80.3612 113.783 86.5793C113.838 85.1082 113.817 82.3495 113.045 80.5463C111.98 77.492 111.238 74.3344 110.832 71.1252ZM123.032 132.608L122.351 130.201C122.693 130.201 123.061 130.185 123.448 130.149L124.109 132.472C124.123 132.521 124.146 132.567 124.178 132.607C124.209 132.647 124.248 132.68 124.293 132.704C124.337 132.729 124.386 132.745 124.437 132.751C124.487 132.757 124.538 132.753 124.587 132.739C124.636 132.725 124.682 132.701 124.722 132.67C124.762 132.638 124.795 132.599 124.819 132.554C124.844 132.51 124.86 132.461 124.866 132.411C124.872 132.36 124.867 132.309 124.854 132.26L124.223 130.044C124.603 129.982 124.978 129.897 125.348 129.789L125.726 132.349C125.733 132.4 125.75 132.449 125.776 132.494C125.801 132.538 125.836 132.577 125.877 132.608C125.918 132.639 125.965 132.661 126.014 132.674C126.064 132.686 126.116 132.689 126.167 132.681C126.218 132.674 126.266 132.656 126.31 132.63C126.354 132.603 126.393 132.568 126.423 132.526C126.453 132.485 126.475 132.438 126.487 132.388C126.498 132.338 126.5 132.286 126.492 132.235L126.092 129.534C126.382 129.415 126.662 129.277 126.933 129.12C127.188 131.725 128.008 138.121 129.085 140.745C128.156 141.503 125.804 143.153 125.417 142.02C125.008 140.823 124.256 139.201 122.986 139.095C122.469 136.057 121.745 133.058 120.818 130.119C121.015 130.141 121.256 130.163 121.541 130.18L122.287 132.812C122.299 132.863 122.322 132.91 122.353 132.952C122.384 132.993 122.423 133.028 122.468 133.054C122.513 133.08 122.562 133.097 122.614 133.104C122.666 133.11 122.718 133.106 122.768 133.092C122.818 133.078 122.864 133.054 122.905 133.022C122.945 132.989 122.979 132.949 123.004 132.903C123.028 132.858 123.043 132.807 123.048 132.756C123.053 132.704 123.047 132.652 123.032 132.602V132.608ZM115.175 138.446C115.243 137.666 118.474 136.453 121.535 135.736C121.839 137.105 122.069 138.357 122.184 139.009C120.134 139.338 116.173 139.517 115.293 138.709C115.252 138.679 115.22 138.639 115.199 138.593C115.179 138.547 115.171 138.497 115.175 138.446ZM115.548 139.696C117.04 140.211 119.617 140.072 121.189 139.91C120.963 140.06 120.732 140.212 120.492 140.374C119.653 140.474 116.099 140.429 115.548 139.7V139.696ZM111.924 146.711C113.228 146.197 114.475 145.549 115.645 144.776C116.251 145.054 116.782 145.474 117.193 146C117.255 146.082 117.346 146.136 117.448 146.151C117.55 146.165 117.653 146.139 117.735 146.077C117.817 146.016 117.872 145.924 117.886 145.822C117.901 145.721 117.874 145.618 117.813 145.535C117.41 145.011 116.904 144.576 116.325 144.256C116.828 143.869 117.409 143.446 118.015 143.018C118.716 143.37 119.251 143.984 119.505 144.727C119.525 144.775 119.553 144.818 119.59 144.854C119.626 144.89 119.669 144.919 119.717 144.938C119.764 144.957 119.815 144.967 119.866 144.967C119.918 144.966 119.968 144.956 120.016 144.935C120.063 144.915 120.105 144.886 120.141 144.849C120.177 144.812 120.205 144.769 120.223 144.721C120.242 144.673 120.251 144.622 120.25 144.571C120.249 144.519 120.237 144.469 120.217 144.422C119.92 143.652 119.396 142.991 118.715 142.526C119.205 142.185 119.693 141.85 120.158 141.536C120.511 141.583 121.596 141.869 121.733 143.611C121.741 143.714 121.79 143.809 121.868 143.876C121.946 143.943 122.048 143.976 122.151 143.968C122.253 143.96 122.349 143.912 122.416 143.834C122.482 143.755 122.516 143.654 122.508 143.551C122.515 143.023 122.375 142.504 122.102 142.053C121.829 141.601 121.436 141.235 120.965 140.996C121.652 140.537 122.222 140.162 122.55 139.948C122.633 139.902 122.726 139.874 122.821 139.867C122.916 139.86 123.012 139.874 123.101 139.907C123.43 140.017 124.072 140.471 124.689 142.278C125.329 144.154 127.814 142.739 129.382 141.512C129.474 141.767 129.563 142.03 129.65 142.294C128.372 143.66 127.416 145.295 126.852 147.079C125.451 147.435 123.677 147.871 121.481 148.39C114.832 149.957 110.378 148.712 109.626 147.918C110.334 147.414 111.107 147.008 111.924 146.711ZM130.836 147.713C130.338 148.241 124.41 149.327 120.088 150.474C115.176 151.775 110.75 151.432 110.07 150.256C109.805 149.813 109.634 149.32 109.568 148.808C110.564 149.38 112.569 149.913 115.381 149.913C117.495 149.897 119.599 149.637 121.653 149.139C127.052 147.866 129.931 147.075 130.893 146.801C130.979 147.103 130.959 147.425 130.836 147.713ZM127.728 146.849C128.239 145.503 128.98 144.255 129.919 143.162C130.284 144.371 130.567 145.499 130.698 146.051C130.228 146.186 129.262 146.454 127.729 146.849H127.728ZM131.223 139.932C130.767 140.161 130.276 140.312 129.771 140.379C129.645 140.086 129.537 139.785 129.449 139.478C130.073 139.396 130.683 139.228 131.261 138.981C131.268 139.298 131.255 139.616 131.223 139.932ZM129.713 135.064C130.399 135.992 130.893 137.048 131.164 138.169C130.56 138.463 129.909 138.651 129.241 138.725C129.02 137.841 128.801 136.751 128.599 135.589C128.993 135.466 129.368 135.29 129.714 135.065L129.713 135.064ZM129.336 134.374C129.069 134.562 128.777 134.711 128.468 134.815C128.087 132.492 127.786 130.074 127.667 128.691C128.861 132.953 128.68 133.032 129.337 134.375L129.336 134.374ZM126.858 128.264C124.59 129.762 121.328 129.415 120.601 129.313C119.404 124.77 117.499 116.869 117.055 115.024C120.028 115.137 123.004 114.926 125.931 114.395C127.163 118.911 126.733 126.375 126.86 128.265L126.858 128.264ZM127.857 113.212C123.156 114.356 118.279 114.59 113.49 113.9C111.986 102.526 113.49 89.5168 113.711 87.7252C121.353 80.1553 126.806 82.1769 127.194 82.3356C128.278 84.4261 128.272 87.434 127.825 89.7266C126.888 94.5386 127.719 110.636 127.859 113.213L127.857 113.212ZM135.381 73.4425C133.6 74.6713 129.812 77.6545 129.486 79.0365C129.185 80.3125 130.794 82.9573 129.982 84.7242C129.642 85.4667 129.247 86.3207 128.892 87.0887C129.014 85.2367 128.619 83.3871 127.752 81.7464C127.66 79.3646 127.795 76.9796 128.153 74.6233C131.405 69.7881 132.276 67.3995 132.448 66.8575C133.046 66.3589 137.094 63.1303 141.275 63.5151C141.423 63.8743 141.562 64.2313 141.676 64.5797C142.886 68.2729 137.239 72.1642 135.383 73.4433L135.381 73.4425Z" fill="black"/>
<path fill-rule="evenodd" clip-rule="evenodd" d="M21.6107 4.76953C21.6107 4.76953 13.4145 5.35177 13.365 10.931C13.3154 16.5103 13.9728 137.479 13.9728 137.479C13.9728 137.479 13.8047 143.012 23.2746 142.629C23.3141 142.644 21.7555 142.791 19.7967 141.064C19.0911 140.497 18.5093 139.792 18.0872 138.991C17.665 138.19 17.4115 137.312 17.3423 136.409V11.0557C17.3206 7.03112 18.1723 6.17402 21.6107 4.76953Z" fill="white"/>
<path d="M85.4647 15.8197C85.3958 14.133 84.7094 12.5305 83.5359 11.3171C82.3624 10.1036 80.7837 9.36385 79.1003 9.23856C33.5968 5.26432 25.3503 4.22915 22.8626 4.21754C19.0827 4.19895 13.0195 6.19033 12.9777 10.9272C12.9289 16.4461 13.5785 136.272 13.5847 137.467C13.6306 138.727 14.1694 139.918 15.0852 140.784C17.3515 143.029 21.8824 143.314 24.7239 142.972L79.9187 136.342C81.5056 136.134 82.9564 135.337 83.9832 134.11C85.0101 132.882 85.5381 131.314 85.4624 129.715L85.4647 15.8197ZM15.6466 140.242C14.8715 139.523 14.4092 138.53 14.359 137.474C14.3528 136.264 13.7032 16.4445 13.752 10.9311C13.7791 7.83948 16.5826 6.38079 18.8396 5.70642C18.7366 5.79004 18.6313 5.86901 18.5337 5.9596C17.3042 7.09233 16.9442 8.94976 16.955 11.0557V136.407C16.9682 138.717 18.7753 141.108 20.7489 142.188C18.4734 141.992 16.763 141.34 15.6466 140.242Z" fill="black"/>
<path fill-rule="evenodd" clip-rule="evenodd" d="M82.3753 19.4539L20.7759 16.9965V136.729L82.3753 129.683V19.4539Z" fill="white"/>
<path d="M51.5757 13.5364C51.5757 14.1136 51.7721 14.6672 52.1218 15.0754C52.4714 15.4835 52.9456 15.7128 53.4401 15.7128C53.9346 15.7128 54.4088 15.4835 54.7584 15.0754C55.1081 14.6672 55.3045 14.1136 55.3045 13.5364C55.3045 12.9592 55.1081 12.4056 54.7584 11.9974C54.4088 11.5893 53.9346 11.36 53.4401 11.36C52.9456 11.36 52.4714 11.5893 52.1218 11.9974C51.7721 12.4056 51.5757 12.9592 51.5757 13.5364Z" fill="white"/>
<path fill-rule="evenodd" clip-rule="evenodd" d="M69.5389 49.3029C67.6327 48.6959 64.027 47.7544 61.146 46.113C60.5692 46.9918 59.6184 48.2035 58.9123 47.876C58.2309 47.5624 58.6281 46.5907 59.016 45.914C58.5638 46.4939 57.8755 47.1164 57.2352 46.8431C56.3061 46.4475 57.3955 44.3338 57.7424 43.7097L57.5728 43.5781C57.2677 44.1928 56.1939 46.1904 55.384 45.6415C54.5463 45.0732 55.6465 43.009 56.0166 42.3687L55.8973 42.2758C55.5876 42.9401 54.5896 44.9137 53.659 44.58C52.5812 44.1928 54.2288 41.2615 54.3403 41.0649L54.1158 40.8907C53.8014 41.6247 52.8212 43.6996 51.8999 43.3567C50.788 42.9424 52.5758 39.7223 52.5874 39.7022L52.4589 39.6023C52.4589 39.6023 51.2565 42.9424 50.1408 42.4972C49.3712 42.1875 50.1779 39.8741 50.7524 38.4711C49.1335 37.6194 47.7476 37.2068 47.0662 37.6853C45.2289 38.9759 43.8477 43.3373 40.5439 42.8147C37.2402 42.2921 34.3569 39.7177 33.3349 40.3804C32.3376 41.0262 31.3861 46.6735 31.3706 49.9951C31.2686 51.9756 31.3771 53.9613 31.6942 55.9189C31.6942 55.9189 38.4573 57.2661 42.9209 56.7171C48.463 56.0342 52.071 56.6653 54.1475 56.7117C56.2241 56.7582 68.0755 57.9552 73.493 53.0201C73.1778 51.0558 71.2747 49.8557 69.5389 49.3029Z" fill="#81F8F8"/>
<path d="M73.644 52.132C72.8396 50.1337 70.5873 49.2278 69.6559 48.932C69.3392 48.8314 68.9761 48.7207 68.5765 48.5999C58.9116 45.6778 60.4639 44.6899 54.4945 40.3704C54.4709 40.3495 54.4449 40.3316 54.417 40.3169C51.5082 38.2264 48.2176 36.4008 46.8433 37.3655C44.9216 38.7158 43.6302 42.9022 40.6036 42.4291C37.248 41.9003 34.4352 39.2012 33.1236 40.0521C31.8414 40.8837 30.9866 47.0452 30.9797 49.9904C30.9712 53.871 30.8024 59.4169 34.734 59.7042C38.8275 60.0023 44.581 59.8451 50.3104 60.1107C55.9261 60.3716 70.4913 61.1884 73.1694 56.2533C73.5553 55.6471 73.7986 54.9612 73.8808 54.2473C73.963 53.5333 73.882 52.8101 73.644 52.132ZM69.4213 49.6699C71.01 50.1755 72.6731 51.2238 73.0602 52.8621C70.9698 54.6793 67.9153 55.5983 64.864 56.0551C65.0634 53.4153 65.0009 50.7621 64.6774 48.1345C66.5813 48.8422 68.2483 49.2982 69.4213 49.6722V49.6699ZM63.0677 47.4904C63.3325 47.605 63.5979 47.7149 63.8637 47.8202C64.2204 50.588 64.2899 53.3853 64.0712 56.1674C63.6841 56.2162 63.2969 56.2611 62.9098 56.2959C63.2275 53.3723 63.2803 50.4259 63.0677 47.4927V47.4904ZM62.4182 51.2935C60.4144 52.4549 54.3659 51.7317 52.3374 52.6693C51.0036 53.4005 49.9886 54.6007 49.4889 56.0373C49.2567 56.0288 49.0182 56.0249 48.7766 56.0203C49.1124 54.9202 49.7363 53.9299 50.5836 53.152C51.4309 52.3742 52.4708 51.837 53.5956 51.5962C57.5442 50.8653 60.3315 51.6868 62.4151 50.8762C62.4166 51.0163 62.4174 51.1549 62.4182 51.2958V51.2935ZM62.4127 52.1622C62.4064 53.5677 62.3081 54.9714 62.1185 56.3641C58.8767 56.5318 55.6272 56.48 52.3924 56.2092C51.7892 56.1628 51.0878 56.1109 50.3089 56.0706C50.752 54.9222 51.5849 53.9663 52.6618 53.37C54.3357 52.6004 60.0025 53.1571 62.4127 52.1645V52.1622ZM62.3918 49.6234C61.6664 49.1535 60.858 48.6386 60.0071 48.1028C60.54 47.7154 60.9749 47.2087 61.2769 46.6232C61.6013 46.799 61.9327 46.9685 62.2687 47.128C62.2865 47.4091 62.3508 48.3583 62.3918 49.6234ZM59.6649 45.6128C59.9669 45.8291 60.281 46.0355 60.6072 46.2322C60.2913 46.8028 59.572 47.8287 59.0207 47.4834C58.6754 47.2023 59.3808 46.0154 59.6626 45.6128H59.6649ZM58.8845 45.0004C58.5872 45.6283 57.9321 46.6519 57.425 46.4916C57.3189 46.4258 57.2942 46.4242 57.2702 46.3553C57.1362 45.9241 57.5799 44.9067 57.9941 44.2006C58.1489 44.3461 58.3115 44.4932 58.4586 44.6357C58.5903 44.7627 58.7405 44.8788 58.8821 45.0004H58.8845ZM51.032 39.0564C51.3557 39.2384 51.687 39.432 52.0269 39.6433C51.6832 40.5391 51.015 41.8747 50.466 42.1209C49.6864 42.4647 50.4792 40.1923 51.032 39.0564ZM53.7419 40.7792C53.2278 41.9947 52.4373 43.1515 52.0385 42.9935C52.0192 42.9861 52.0021 42.974 51.9885 42.9583C51.975 42.9427 51.9656 42.9239 51.9611 42.9037C51.783 42.4206 52.3111 41.0772 52.8012 40.1358C53.1078 40.3433 53.4229 40.5562 53.7396 40.7792H53.7419ZM55.5428 42.1178C55.0783 43.1429 54.2506 44.3825 53.7907 44.2161C53.7714 44.2099 53.7542 44.1988 53.7406 44.1838C53.727 44.1689 53.7176 44.1506 53.7132 44.1309C53.5375 43.6524 54.1004 42.2998 54.6005 41.3993C54.9159 41.6347 55.2292 41.8742 55.5405 42.1178H55.5428ZM57.1912 43.4782C56.8041 44.247 56.1746 45.2179 55.7402 45.3364C55.7175 45.345 55.693 45.3479 55.669 45.3446C55.6449 45.3414 55.622 45.3322 55.6024 45.3178C55.2339 45.0677 55.6458 43.8065 56.2737 42.6993C56.588 42.96 56.8931 43.2196 57.1889 43.4782H57.1912ZM47.2877 37.9988C47.7964 37.6403 48.9392 37.9725 50.3476 38.6887C49.8687 39.5993 49.5472 40.5844 49.3968 41.6022C47.7755 40.6259 46.505 39.8663 45.9127 39.5117C46.294 38.9424 46.7573 38.4326 47.2877 37.9988ZM33.5432 40.7025C34.2401 40.2527 37.3425 42.6985 40.4821 43.194C42.8087 43.5525 44.2805 41.723 45.4528 40.1358C51.0041 43.4465 56.4471 46.6983 61.9002 50.2289C60.0118 50.8196 57.2415 50.1344 53.4539 50.8382C49.6453 51.5443 48.2927 54.989 47.9699 56.0172C44.2472 56.0172 43.2159 56.4144 40.9288 56.4516C38.8616 49.7241 33.4999 44.7108 32.4616 43.7871C32.7968 42.172 33.1979 40.9263 33.5432 40.7025ZM32.2889 44.6845C33.7856 46.0928 38.2553 50.6586 40.1151 56.4531C39.851 56.4531 39.5855 56.4438 39.3191 56.433C37.3642 51.031 33.0299 45.9179 32.2324 45.0058C32.251 44.8966 32.2735 44.7913 32.2889 44.6845ZM31.7532 50.6462C31.7424 49.0989 31.8505 47.5531 32.0768 46.0224C33.3977 47.6088 36.7804 51.9284 38.4775 56.3912C36.3142 56.2452 34.1609 55.9766 32.028 55.5867C31.783 53.9515 31.691 52.297 31.7532 50.6447V50.6462ZM72.4881 55.884C69.8966 60.6604 53.7729 59.434 48.5823 59.2613C44.2186 59.1173 38.3699 59.1924 34.7905 58.9315C33.3969 58.8301 32.6374 57.8003 32.2247 56.409C33.9845 56.7249 39.2169 57.5618 42.9635 57.0981C52.0223 55.9831 65.6166 59.612 73.1377 53.8098C73.0756 54.5404 72.8538 55.2485 72.4881 55.884Z" fill="black"/>
<path d="M27.8978 94.9196C27.7951 94.9223 27.6956 94.884 27.6211 94.8133C27.5466 94.7426 27.5033 94.6452 27.5006 94.5425C27.4979 94.4399 27.5362 94.3403 27.6069 94.2659C27.6776 94.1914 27.775 94.148 27.8777 94.1454L66.4129 92.0603C66.5154 92.0546 66.6159 92.0898 66.6924 92.1582C66.769 92.2266 66.8152 92.3225 66.821 92.425C66.8238 92.4758 66.8166 92.5267 66.7997 92.5748C66.7828 92.6228 66.7566 92.6671 66.7225 92.705C66.6885 92.7429 66.6474 92.7737 66.6014 92.7957C66.5555 92.8176 66.5056 92.8303 66.4548 92.833L27.8978 94.9196Z" fill="black"/>
<path d="M27.8978 114.409C27.7951 114.412 27.6953 114.375 27.6204 114.304C27.5455 114.234 27.5015 114.137 27.4982 114.034C27.495 113.932 27.5326 113.832 27.6029 113.757C27.6731 113.682 27.7703 113.638 27.873 113.635L66.6359 111.109C66.6869 111.105 66.7383 111.111 66.787 111.127C66.8356 111.143 66.8805 111.168 66.919 111.202C66.9575 111.236 66.9888 111.277 67.0109 111.323C67.033 111.369 67.0456 111.419 67.0478 111.471C67.051 111.521 67.0443 111.572 67.0279 111.62C67.0114 111.669 66.9857 111.713 66.9521 111.751C66.9186 111.789 66.8778 111.82 66.8322 111.843C66.7865 111.865 66.7369 111.879 66.6862 111.882L27.8978 114.409Z" fill="black"/>
<path d="M61.261 80.4783C60.0709 80.4659 54.8347 80.6927 31.1573 81.5676C31.0589 81.5711 30.9655 81.612 30.8962 81.6819C30.8269 81.7518 30.7868 81.8455 30.7841 81.9439L30.6525 86.769C30.6511 86.8207 30.6602 86.8722 30.679 86.9203C30.6979 86.9684 30.7262 87.0123 30.7622 87.0493C30.7983 87.0863 30.8415 87.1158 30.8891 87.1358C30.9367 87.1559 30.9879 87.1663 31.0396 87.1662C43.313 86.9061 42.9584 86.6436 43.0358 86.6638H43.0436C43.0544 86.6638 43.0637 86.6583 43.0753 86.6576L61.3732 85.8787C61.474 85.8747 61.5695 85.8325 61.6401 85.7605C61.7108 85.6886 61.7513 85.5924 61.7534 85.4915C61.7588 82.4929 61.7743 81.3725 61.7534 80.9234C61.7325 80.4744 61.5908 80.4821 61.261 80.4783ZM43.5221 81.8874L48.8234 81.6923L48.7405 85.641L43.4385 85.8663L43.5221 81.8874ZM42.6634 85.8972L37.3598 86.1233L37.4442 82.1112L42.7471 81.916L42.6634 85.8972ZM49.5984 81.6636L54.9005 81.4685L54.8184 85.38L49.5163 85.6054L49.5984 81.6636ZM31.5483 82.3279L36.6692 82.1398L36.5848 86.1558L31.4383 86.375L31.5483 82.3279ZM60.9784 85.1152L55.5942 85.3475L55.6755 81.4406L60.9784 81.244V85.1152Z" fill="black"/>
<path d="M33.947 86.2208C33.7078 86.2208 33.7241 86.1705 32.6672 84.9255C32.6342 84.8867 32.6092 84.8419 32.5935 84.7934C32.5778 84.745 32.5719 84.694 32.5759 84.6433C32.5841 84.5408 32.6327 84.4459 32.7109 84.3792C32.7892 84.3126 32.8907 84.2798 32.9931 84.288C33.0956 84.2962 33.1905 84.3447 33.2572 84.423L33.8874 85.1647L35.5908 82.2163C35.615 82.1701 35.6483 82.1292 35.6887 82.0961C35.7291 82.0631 35.7758 82.0385 35.8259 82.024C35.8761 82.0094 35.9286 82.0052 35.9805 82.0115C36.0323 82.0178 36.0823 82.0345 36.1275 82.0606C36.1727 82.0868 36.2122 82.1218 36.2435 82.1635C36.2748 82.2053 36.2974 82.253 36.3098 82.3037C36.3222 82.3544 36.3243 82.4071 36.3158 82.4586C36.3073 82.5101 36.2885 82.5594 36.2605 82.6035L34.2784 86.0264C34.2449 86.0849 34.1967 86.1335 34.1385 86.1676C34.0804 86.2017 34.0144 86.22 33.947 86.2208Z" fill="black"/>
<path d="M39.4595 104.126C39.4595 105.088 39.801 106.011 40.409 106.692C41.0169 107.372 41.8415 107.754 42.7013 107.754C43.561 107.754 44.3856 107.372 44.9936 106.692C45.6015 106.011 45.9431 105.088 45.9431 104.126C45.9431 103.164 45.6015 102.241 44.9936 101.561C44.3856 100.88 43.561 100.498 42.7013 100.498C41.8415 100.498 41.0169 100.88 40.409 101.561C39.801 102.241 39.4595 103.164 39.4595 104.126Z" fill="#81F8F8"/>
<path d="M30.9683 104.396C30.9683 105.359 31.3098 106.282 31.9178 106.962C32.5257 107.642 33.3503 108.025 34.2101 108.025C35.0698 108.025 35.8944 107.642 36.5023 106.962C37.1103 106.282 37.4518 105.359 37.4518 104.396C37.4518 103.434 37.1103 102.511 36.5023 101.831C35.8944 101.151 35.0698 100.768 34.2101 100.768C33.3503 100.768 32.5257 101.151 31.9178 101.831C31.3098 102.511 30.9683 103.434 30.9683 104.396Z" fill="#FFD997"/>
<path d="M34.2094 108.412C33.2152 108.31 32.2939 107.843 31.6241 107.101C30.9543 106.36 30.5835 105.396 30.5835 104.396C30.5835 103.397 30.9543 102.433 31.6241 101.691C32.2939 100.95 33.2152 100.483 34.2094 100.381C35.2037 100.483 36.1249 100.95 36.7947 101.691C37.4645 102.433 37.8353 103.397 37.8353 104.396C37.8353 105.396 37.4645 106.36 36.7947 107.101C36.1249 107.843 35.2037 108.31 34.2094 108.412ZM34.2094 101.155C33.4209 101.256 32.6962 101.641 32.171 102.237C31.6457 102.834 31.356 103.602 31.356 104.396C31.356 105.191 31.6457 105.959 32.171 106.555C32.6962 107.152 33.4209 107.537 34.2094 107.637C34.9979 107.537 35.7226 107.152 36.2478 106.555C36.7731 105.959 37.0628 105.191 37.0628 104.396C37.0628 103.602 36.7731 102.834 36.2478 102.237C35.7226 101.641 34.9979 101.256 34.2094 101.155Z" fill="black"/>
<path d="M42.7015 108.141C41.89 108.224 41.0725 108.058 40.3569 107.667C39.6412 107.276 39.0609 106.677 38.6925 105.949C38.3241 105.221 38.1848 104.399 38.293 103.59C38.4012 102.782 38.7519 102.025 39.2988 101.42C39.8457 100.815 40.5631 100.389 41.3565 100.2C42.1499 100.011 42.9821 100.066 43.7433 100.359C44.5046 100.652 45.1592 101.169 45.6209 101.841C46.0826 102.514 46.3297 103.31 46.3297 104.126C46.3771 105.139 46.0224 106.129 45.3428 106.881C44.6631 107.633 43.7137 108.086 42.7015 108.141ZM42.7015 100.885C42.043 100.801 41.3745 100.92 40.785 101.225C40.1955 101.531 39.7131 102.008 39.4019 102.595C39.0907 103.181 38.9656 103.848 39.0431 104.508C39.1206 105.167 39.3972 105.787 39.8359 106.285C40.2747 106.784 40.8548 107.136 41.499 107.297C42.1432 107.457 42.821 107.417 43.4421 107.183C44.0632 106.948 44.5981 106.53 44.9757 105.984C45.3532 105.438 45.5554 104.79 45.5554 104.126C45.6024 103.319 45.329 102.526 44.7947 101.919C44.2603 101.312 43.5082 100.941 42.7015 100.885Z" fill="black"/>
<path d="M59.6821 107.285C58.8708 107.367 58.0536 107.202 57.3383 106.81C56.623 106.419 56.043 105.82 55.6749 105.092C55.3067 104.364 55.1677 103.542 55.276 102.734C55.3843 101.926 55.735 101.169 56.2818 100.564C56.8286 99.9594 57.5458 99.5342 58.339 99.345C59.1322 99.1557 59.9641 99.2111 60.7251 99.504C61.4862 99.797 62.1406 100.314 62.6022 100.986C63.0638 101.658 63.311 102.454 63.311 103.27C63.3587 104.283 63.0039 105.273 62.3241 106.025C61.6443 106.777 60.6945 107.23 59.6821 107.285ZM59.6821 100.03C59.0237 99.9458 58.3555 100.065 57.7663 100.37C57.1772 100.676 56.6951 101.154 56.3842 101.74C56.0733 102.326 55.9484 102.993 56.0261 103.652C56.1038 104.312 56.3805 104.931 56.8192 105.429C57.2579 105.927 57.8379 106.28 58.482 106.44C59.126 106.6 59.8036 106.56 60.4245 106.326C61.0453 106.091 61.58 105.673 61.9574 105.127C62.3347 104.581 62.5368 103.933 62.5368 103.27C62.5837 102.463 62.3102 101.669 61.7757 101.063C61.2412 100.456 60.4888 100.085 59.6821 100.03Z" fill="black"/>
<path d="M67.0137 120.392L64.0343 118.694C63.9902 118.669 63.9414 118.653 63.8909 118.646C63.8403 118.639 63.789 118.643 63.7398 118.656C63.6906 118.669 63.6444 118.692 63.604 118.723C63.5637 118.754 63.5298 118.793 63.5044 118.837C63.4789 118.882 63.4625 118.93 63.4559 118.981C63.4493 119.031 63.4528 119.083 63.466 119.132C63.4793 119.181 63.5021 119.227 63.5332 119.268C63.5643 119.308 63.603 119.342 63.6472 119.367L65.5341 120.442L60.966 120.803V116.752C60.9626 116.647 60.9184 116.549 60.8431 116.476C60.7677 116.404 60.6671 116.364 60.5626 116.365C60.5127 116.365 60.4635 116.376 60.4177 116.396C60.372 116.416 60.3306 116.444 60.2962 116.481C60.2617 116.517 60.2348 116.559 60.217 116.606C60.1992 116.652 60.1909 116.702 60.1925 116.752V120.855L54.6783 121.292V119.205C54.6765 119.102 54.6339 119.003 54.5599 118.931C54.4858 118.858 54.3862 118.818 54.2826 118.818C54.2324 118.819 54.1826 118.829 54.1364 118.849C54.0901 118.869 54.0482 118.897 54.0131 118.933C53.978 118.969 53.9503 119.012 53.9317 119.059C53.9131 119.105 53.904 119.155 53.9048 119.205V121.356L48.7235 121.765V117.971C48.715 117.868 48.6691 117.772 48.5943 117.701C48.5195 117.629 48.4211 117.588 48.3178 117.584C48.2681 117.585 48.219 117.596 48.1734 117.616C48.1278 117.636 48.0867 117.664 48.0524 117.701C48.0181 117.737 47.9913 117.779 47.9736 117.826C47.9559 117.872 47.9476 117.922 47.9493 117.971V121.82L42.4381 122.257V119.823C42.4359 119.719 42.393 119.62 42.3187 119.548C42.2445 119.475 42.1447 119.435 42.041 119.435C41.9907 119.436 41.941 119.446 41.8947 119.466C41.8484 119.485 41.8065 119.514 41.7714 119.55C41.7363 119.586 41.7088 119.629 41.6903 119.676C41.6718 119.722 41.6629 119.772 41.6639 119.823V122.312L36.1427 122.748V119.187C36.1395 119.083 36.0956 118.984 36.0206 118.912C35.9455 118.839 35.8451 118.799 35.7409 118.8C35.6909 118.8 35.6415 118.811 35.5956 118.831C35.5498 118.851 35.5083 118.879 35.4736 118.915C35.439 118.951 35.4118 118.994 35.3938 119.041C35.3757 119.087 35.3671 119.137 35.3685 119.187V122.804L29.0444 123.306L30.5805 122.279C30.6659 122.222 30.7252 122.134 30.7452 122.033C30.7652 121.932 30.7444 121.827 30.6873 121.742C30.6303 121.657 30.5416 121.597 30.4408 121.577C30.34 121.557 30.2354 121.578 30.15 121.635L27.3681 123.493C27.3115 123.531 27.2659 123.583 27.2359 123.644C27.2059 123.706 27.1926 123.773 27.1972 123.841C27.2018 123.909 27.2243 123.975 27.2623 124.031C27.3003 124.088 27.3526 124.133 27.4138 124.163C30.5549 125.688 30.332 125.6 30.4574 125.6C30.5449 125.6 30.6298 125.57 30.6982 125.516C30.7667 125.462 30.8148 125.386 30.8345 125.3C30.8543 125.215 30.8446 125.126 30.807 125.047C30.7695 124.968 30.7063 124.904 30.6277 124.865L29.0219 124.109L35.4095 123.605V127.562C35.4127 127.666 35.4568 127.766 35.5322 127.838C35.6076 127.91 35.7084 127.95 35.8129 127.949C35.8628 127.949 35.9121 127.938 35.9579 127.918C36.0037 127.898 36.045 127.869 36.0796 127.833C36.1141 127.797 36.1411 127.755 36.159 127.708C36.1769 127.662 36.1853 127.612 36.1837 127.562V123.55L41.6949 123.112V125.745C41.6971 125.849 41.7401 125.947 41.8145 126.02C41.889 126.092 41.989 126.133 42.0928 126.132C42.143 126.131 42.1926 126.121 42.2387 126.101C42.2849 126.081 42.3266 126.053 42.3616 126.017C42.3966 125.981 42.4241 125.938 42.4426 125.892C42.461 125.845 42.47 125.795 42.4691 125.745V123.057L47.9903 122.621V126.347C47.9935 126.452 48.0375 126.55 48.1127 126.623C48.188 126.695 48.2885 126.735 48.3929 126.734C48.4429 126.734 48.4922 126.723 48.538 126.703C48.5839 126.683 48.6253 126.655 48.6599 126.619C48.6945 126.583 48.7215 126.54 48.7395 126.493C48.7575 126.447 48.766 126.397 48.7646 126.347V122.566L53.935 122.156V125.127C53.9376 125.231 53.981 125.33 54.0557 125.402C54.1304 125.475 54.2305 125.515 54.3345 125.514C54.3847 125.514 54.4342 125.503 54.4803 125.484C54.5264 125.464 54.5681 125.435 54.603 125.399C54.6379 125.363 54.6653 125.32 54.6835 125.274C54.7017 125.227 54.7105 125.177 54.7093 125.127V122.101L60.2328 121.665V125.132C60.2358 125.237 60.2796 125.336 60.3547 125.408C60.4298 125.48 60.5303 125.52 60.6346 125.52C60.6846 125.519 60.734 125.509 60.78 125.489C60.8259 125.469 60.8674 125.44 60.9021 125.404C60.9367 125.368 60.9639 125.325 60.9819 125.279C60.9999 125.232 61.0085 125.182 61.007 125.132V121.608L65.1477 121.28L63.5218 122.219C63.4375 122.272 63.3772 122.357 63.3535 122.453C63.3297 122.55 63.3443 122.653 63.3943 122.739C63.4443 122.826 63.5257 122.89 63.6216 122.917C63.7175 122.945 63.8204 122.935 63.9089 122.889L67.0168 121.094C67.0836 121.063 67.14 121.013 67.1794 120.95C67.2189 120.888 67.2396 120.816 67.2393 120.742C67.239 120.668 67.2176 120.596 67.1776 120.534C67.1376 120.472 67.0807 120.422 67.0137 120.392Z" fill="black"/>
<path d="M24.9377 71.246C24.8672 32.5652 24.8804 26.6716 24.9291 25.7796C24.9446 25.5087 24.9756 25.5373 25.4177 25.5342C27.2062 25.5241 35.9429 25.7944 77.8848 26.9906C77.9856 26.9934 78.0813 27.0354 78.1516 27.1077C78.2219 27.18 78.2612 27.2769 78.2611 27.3777V70.5337C78.2611 70.6352 78.2213 70.7326 78.1502 70.805C78.0791 70.8774 77.9824 70.919 77.881 70.9208C35.0649 71.7036 26.9631 71.8956 25.4641 71.8685C24.8966 71.8584 24.9384 71.4643 24.9377 71.246ZM25.7119 26.2945V71.1175L77.49 70.1535V27.754L25.7119 26.2945Z" fill="black"/>
<path d="M51.1927 99.7013C50.3813 99.619 49.564 99.7844 48.8486 100.176C48.1331 100.567 47.5531 101.166 47.1848 101.894C46.8166 102.622 46.6774 103.444 46.7857 104.252C46.894 105.06 47.2447 105.817 47.7915 106.422C48.3383 107.027 49.0556 107.452 49.8489 107.641C50.6421 107.831 51.4741 107.775 52.2352 107.482C52.9963 107.189 53.6507 106.672 54.1123 106C54.5738 105.328 54.8209 104.531 54.8208 103.716C54.8683 102.703 54.5135 101.713 53.8339 100.961C53.1542 100.209 52.2048 99.7562 51.1927 99.7013ZM53.4473 101.752L48.6338 105.126C48.4863 104.776 48.3958 104.406 48.3659 104.028L52.6715 100.959C52.9767 101.173 53.2398 101.442 53.4473 101.752ZM51.8709 100.578L48.3984 103.056C48.4422 102.656 48.5702 102.269 48.7738 101.922C48.9774 101.574 49.2521 101.274 49.58 101.04C49.9078 100.806 50.2814 100.644 50.6762 100.564C51.0709 100.485 51.4781 100.49 51.8709 100.578ZM49.0232 105.799L53.8143 102.44C53.926 102.749 53.9947 103.071 54.0187 103.399C53.9273 103.46 54.2765 103.192 49.8997 106.589C49.5573 106.387 49.2592 106.118 49.0232 105.799ZM50.7544 106.906L53.9784 104.405C53.9316 104.781 53.8109 105.144 53.6234 105.474C53.4359 105.803 53.1852 106.092 52.8857 106.325C52.5862 106.557 52.2437 106.728 51.878 106.828C51.5123 106.928 51.1305 106.955 50.7544 106.906Z" fill="black"/>
</svg>
