<svg width="156" height="156" viewBox="0 0 156 156" fill="none" xmlns="http://www.w3.org/2000/svg">
<path fill-rule="evenodd" clip-rule="evenodd" d="M96.6694 123.673C97.0908 116.255 98.6086 108.941 101.173 101.968C103.09 96.5857 105.061 77.2101 105.998 74.6659C105.998 74.6659 107.745 82.0298 119.968 77.4416C118.243 84.2699 116.899 91.189 115.942 98.1667C114.768 107.103 114.81 113.447 116.047 129.596C105.072 132.43 96.6694 123.673 96.6694 123.673Z" fill="white"/>
<path fill-rule="evenodd" clip-rule="evenodd" d="M123.852 61.4657C125.137 63.5505 126.136 65.799 126.82 68.1506C126.82 68.1506 132.605 71.2236 135.244 72.2897C137.882 73.3558 142.635 75.0313 143.126 80.2529C143.617 85.4744 137.467 95.1255 136.958 98.4749C136.458 101.106 135.735 103.689 134.796 106.197C134.796 106.197 135.059 110.565 134.135 111.737C133.211 112.909 130.166 115.71 128.548 115.468C128.548 115.468 128.548 119.771 129.225 121.953C129.225 121.953 119.557 131.152 116.567 134.063C116.567 134.063 114.646 115.917 115.412 103.184C116.074 92.2019 119.857 76.9476 123.144 67.336C123.333 64.9498 123.697 63.1597 123.852 61.4657Z" fill="#81F8F8"/>
<path fill-rule="evenodd" clip-rule="evenodd" d="M107.98 68.8675L108.026 64.1864L107.037 63.9286C106.33 64.7343 105.702 65.6059 105.161 66.5316C105.161 66.5316 98.8341 68.605 96.9372 69.1695C95.0403 69.7339 89.996 70.9332 87.3102 76.6224C84.6243 82.3116 84.6266 84.9456 82.9287 87.6044C81.7423 89.4973 80.7644 91.513 80.0121 93.6165C79.9943 93.7969 77.6251 94.3752 76.9189 96.0824C76.9189 96.0824 83.01 99.2638 82.6662 104.719C82.3224 110.175 81.2424 110.696 80.6578 111.509C80.2405 112.087 83.3963 112.216 85.4829 109.79C87.3127 107.46 89.0167 105.034 90.5876 102.522C90.5876 102.522 85.4837 115.896 85.4837 117.672C85.4837 119.447 89.691 129.895 96.1134 129.731C96.1134 129.731 96.6809 124.319 96.9403 120.044C97.1997 115.769 99.3815 106.998 101.174 101.968C102.966 96.9372 105.036 78.3025 105.78 75.2605C106.358 73.0792 107.094 70.9426 107.98 68.8675Z" fill="#81F8F8"/>
<path fill-rule="evenodd" clip-rule="evenodd" d="M109.774 78.4272C109.947 79.2394 110.127 80.0315 110.292 80.75C110.912 83.4598 111.6 101.181 121.198 113.262C125.565 118.759 127.237 117.033 128.548 115.463C129.792 113.974 132.462 109.366 132.167 105.763C131.872 102.16 126.593 95.4507 125.565 93.7047C124.538 91.9588 118.62 80.3102 118.62 80.3102C118.62 80.3102 118.904 79.1798 119.282 77.6003C119.514 77.5477 119.747 77.4935 119.968 77.4385L123.129 67.5683L124.076 59.8413C124.076 59.8413 126.859 58.7659 127.852 57.7315C128.403 57.1639 128.743 56.4249 128.816 55.6371C128.889 54.8494 128.691 54.0604 128.253 53.4011C125.668 53.4011 123.221 54.8536 121.384 54.1753C119.548 53.4971 122.004 47.1838 122.004 47.1838C122.004 47.1838 120.314 47.0174 120.59 45.7848C120.866 44.5522 121.459 44.2974 120.338 43.6006C119.217 42.9038 119.165 42.9448 119.119 42.4779C119.073 42.0111 119.345 40.2651 118.556 40.0886C117.767 39.9121 116.097 40.3898 115.415 39.4793C115.415 39.4793 113.279 37.8649 111.374 38.8932C109.469 39.9214 108.037 43.2019 106.79 44.1937C105.544 45.1855 105.998 45.9326 105.894 46.871C105.853 47.8849 105.484 48.8581 104.842 49.6436C104.402 50.1553 104.103 50.7726 103.974 51.4349C103.846 52.0971 103.892 52.7814 104.108 53.4204C104.54 54.8837 104.623 56.4279 104.349 57.9289C104.083 59.3938 102.899 63.3711 108.078 64.1113C107.967 65.6944 107.962 67.283 108.063 68.8667C107.253 70.7482 106.56 72.6779 105.988 74.645C106.659 76.0804 108.142 78.1454 109.774 78.4272Z" fill="#FFD997"/>
<path fill-rule="evenodd" clip-rule="evenodd" d="M133.021 42.673C133.021 42.673 134.807 42.0126 134.479 41.202C134.152 40.3913 132.723 40.3062 133.532 39.4986C134.341 38.6911 133.888 37.724 132.571 37.7767C131.253 37.8293 130.697 38.1863 130.815 37.2819C130.926 36.4411 129.599 36.1113 128.446 37.275C128.482 37.2169 128.507 37.1522 128.518 37.0847C128.529 37.0173 128.526 36.9482 128.511 36.8817C128.495 36.8151 128.467 36.7522 128.427 36.6967C128.387 36.6411 128.336 36.594 128.278 36.558C127.675 36.0563 126.91 36.8034 127.194 35.3393C127.478 33.8752 127.371 33.643 126.321 33.3224C125.271 33.0019 124.385 33.7808 123.824 33.4486C123.263 33.1165 124.789 31.2033 122.625 31.3086C120.461 31.4139 120.175 29.287 118.273 30.2355C116.37 31.1839 118.177 31.6485 117.034 31.561C115.89 31.4735 115.131 29.5603 114.041 30.2657C112.95 30.971 113.56 31.5943 112.26 31.3543C110.959 31.1142 110.577 30.3702 109.844 31.3968C109.112 32.4235 109.711 32.6736 108.699 32.9802C107.687 33.2868 105.891 34.0394 106.259 35.152C106.626 36.2646 106.093 36.4814 105.65 37.2548C105.207 38.0283 105.042 37.93 105.65 38.9714C106.258 40.0127 104.489 39.8377 105.65 40.7041C106.811 41.5705 105.076 43.7864 107.092 43.685C107.984 43.6401 108.641 40.9635 110.894 39.206C113.147 37.4484 115.385 39.4537 115.385 39.4537C115.522 39.6304 115.694 39.7767 115.891 39.8833C116.087 39.9899 116.304 40.0546 116.527 40.0731C117.378 40.2063 118.468 39.5071 118.999 40.5725C119.529 41.6379 118.483 42.5856 119.757 43.2421C121.03 43.8987 121.202 44.0489 120.817 44.8386C120.686 45.062 120.614 45.3142 120.605 45.5726C120.596 45.831 120.651 46.0876 120.766 46.3194C120.88 46.5512 121.051 46.7509 121.261 46.9007C121.472 47.0505 121.717 47.1456 121.974 47.1776C121.974 47.1776 119.548 53.494 121.385 54.173C123.222 54.852 125.604 53.3794 128.189 53.3794C129.265 51.6342 129.985 49.6933 130.307 47.6685C131.855 47.6523 131.627 46.6341 132.517 46.782C133.408 46.9299 134.621 46.9554 134.526 46.2571C134.432 45.5587 134.068 45.3109 134.616 44.5715C135.164 43.8321 134.893 42.4656 133.021 42.673Z" fill="#81F8F8"/>
<path d="M110.322 45.6802C110.261 45.6245 108.82 44.3284 107.351 44.5669C106.965 44.6421 106.603 44.8068 106.293 45.0478C105.983 45.2888 105.734 45.5993 105.566 45.9543C105.523 46.0293 105.506 46.1164 105.518 46.2019C105.53 46.2875 105.571 46.3664 105.633 46.4262C105.696 46.4861 105.776 46.5233 105.862 46.5321C105.948 46.5409 106.034 46.5206 106.107 46.4746C106.676 46.146 107.315 45.959 107.971 45.9295C108.627 45.9 109.281 46.0288 109.877 46.3051C109.959 46.3486 110.055 46.3607 110.146 46.339C110.237 46.3173 110.318 46.2633 110.372 46.1871C110.426 46.1108 110.451 46.0174 110.442 45.9242C110.433 45.831 110.39 45.7444 110.322 45.6802Z" fill="black"/>
<path d="M118.059 46.3895C116.991 45.6384 115.455 45.6315 113.496 46.3693C113.408 46.4026 113.335 46.4667 113.291 46.5496C113.247 46.6325 113.235 46.7285 113.256 46.8199C113.278 46.9113 113.332 46.9917 113.408 47.0463C113.485 47.1008 113.578 47.1258 113.672 47.1165C113.711 47.1111 117.643 46.7402 118.755 49.6251C118.788 49.7092 118.848 49.7795 118.927 49.8239C119.005 49.8682 119.096 49.8838 119.185 49.8679C119.274 49.852 119.354 49.8057 119.412 49.7369C119.471 49.6681 119.503 49.5812 119.504 49.4911C119.508 48.8994 119.38 48.3142 119.131 47.7778C118.881 47.2414 118.515 46.7672 118.059 46.3895Z" fill="black"/>
<path d="M109.125 50.2344C109.046 50.2343 108.969 50.2102 108.904 50.1653C108.839 50.1203 108.79 50.0567 108.762 49.9829C108.735 49.9091 108.73 49.8286 108.75 49.7522C108.769 49.6758 108.811 49.6071 108.871 49.5554C109.133 49.3734 109.345 49.1278 109.486 48.8417C109.628 48.5556 109.694 48.2382 109.68 47.9194C109.661 47.8187 109.684 47.7148 109.742 47.6305C109.8 47.5462 109.889 47.4884 109.989 47.4695C110.089 47.4507 110.192 47.4716 110.276 47.5275C110.36 47.5835 110.419 47.6703 110.44 47.7692C110.485 48.2223 110.411 48.6794 110.225 49.0951C110.039 49.5108 109.748 49.8707 109.38 50.1392C109.309 50.2008 109.218 50.2347 109.125 50.2344Z" fill="black"/>
<path d="M110.704 53.5954C110.148 53.4181 110.128 53.6186 109.391 53.631C108.17 53.6148 108.021 52.8816 107.533 52.8614C105.897 52.784 106.542 50.5162 107.283 50.9893C107.369 51.0444 107.43 51.1313 107.452 51.2309C107.474 51.3305 107.456 51.4348 107.402 51.5212C107.365 51.58 107.204 51.8998 107.324 51.9958C107.583 52.2056 107.769 51.9401 108.321 52.3706C108.852 52.7856 108.922 52.8498 109.405 52.8568C109.972 52.8684 110.087 52.5873 110.94 52.8568C111.835 53.1433 112.34 53.6682 112.725 52.8359C112.747 52.7897 112.777 52.7482 112.814 52.7137C112.852 52.6793 112.895 52.6525 112.943 52.6349C112.991 52.6174 113.042 52.6094 113.092 52.6115C113.143 52.6136 113.193 52.6256 113.239 52.647C113.286 52.6683 113.327 52.6985 113.362 52.7359C113.396 52.7733 113.423 52.8171 113.44 52.8649C113.458 52.9126 113.466 52.9634 113.464 53.0142C113.462 53.065 113.45 53.1149 113.428 53.1611C112.711 54.7065 111.415 53.8215 110.704 53.5954Z" fill="black"/>
<path fill-rule="evenodd" clip-rule="evenodd" d="M106.135 54.8164C106.135 54.8164 105.742 57.3405 107.911 57.7268C109.244 57.9486 110.612 57.7616 111.836 57.1903L112.791 56.5972C110.442 56.7011 108.118 56.0793 106.135 54.8164Z" fill="white"/>
<path d="M114.243 56.2255L113.837 55.4892C113.786 55.4029 113.703 55.34 113.606 55.3137C113.509 55.2874 113.405 55.2999 113.317 55.3485C113.229 55.397 113.164 55.4778 113.134 55.5739C113.105 55.6699 113.114 55.7737 113.159 55.8632L113.307 56.1303C113.13 56.1543 112.904 56.1768 112.639 56.1922C111.104 54.5477 110.124 54.0514 108.681 54.2241C108.411 53.9828 108.089 53.8062 107.74 53.7077C107.391 53.6092 107.025 53.5915 106.668 53.6558C106.67 53.5847 106.653 53.5144 106.617 53.4529C106.581 53.3913 106.529 53.341 106.467 53.3075C106.404 53.2741 106.333 53.2589 106.262 53.2637C106.191 53.2684 106.123 53.293 106.065 53.3345L105.291 53.8765C105.236 53.9259 105.194 53.9875 105.168 54.0564C105.142 54.1253 105.132 54.1994 105.141 54.2726C105.149 54.3458 105.174 54.416 105.215 54.4775C105.256 54.5389 105.31 54.5898 105.374 54.6259C105.489 54.7517 105.61 54.8714 105.737 54.9844C105.72 55.5945 105.806 57.3931 107.354 58.004C109.118 58.7008 111.762 57.8081 113.316 56.9262C113.326 56.9208 113.331 56.9115 113.34 56.9053C113.564 56.8794 113.786 56.8391 114.005 56.7845C114.061 56.7691 114.113 56.7412 114.158 56.7027C114.202 56.6643 114.236 56.6164 114.259 56.5626C114.282 56.5088 114.292 56.4505 114.29 56.3922C114.287 56.3338 114.271 56.2768 114.243 56.2255ZM108.196 54.8543C108.236 54.9173 108.295 54.9667 108.364 54.9963C108.433 55.0258 108.509 55.034 108.583 55.02C109.656 54.8466 110.354 55.0115 111.57 56.1977C109.686 56.2284 107.847 55.6243 106.349 54.4827C106.959 54.3666 107.834 54.3162 108.196 54.8543ZM107.641 57.2839C107.324 57.1266 107.054 56.8864 106.862 56.5886C106.669 56.2908 106.56 55.9466 106.547 55.5922C107.991 56.477 109.65 56.9509 111.343 56.9626C110.229 57.3691 108.749 57.7198 107.641 57.2847V57.2839Z" fill="black"/>
<path fill-rule="evenodd" clip-rule="evenodd" d="M109.222 49.0444C107.04 49.9138 106.132 48.4389 106.132 48.4389C106.132 48.4389 108.528 46.5226 109.222 49.0444Z" fill="white"/>
<path fill-rule="evenodd" clip-rule="evenodd" d="M117.466 50.9444C114.312 51.3439 113.595 49.9131 113.595 49.9131C113.595 49.9131 115.77 47.6166 117.466 50.9444Z" fill="white"/>
<path fill-rule="evenodd" clip-rule="evenodd" d="M51.401 78.0772C51.401 78.0772 47.0203 70.7915 46.1291 71.4334C45.238 72.0752 42.2261 75.7483 42.1456 76.7997C42.0651 77.8512 50.4301 89.1181 50.4301 89.1181C50.6542 89.1054 50.8732 89.0462 51.0731 88.9442C51.2731 88.8422 51.4496 88.6997 51.5915 88.5258C51.9647 87.9675 54.1031 82.8505 54.0087 82.2265C53.9119 81.5529 52.8256 80.112 51.401 78.0772Z" fill="white"/>
<path fill-rule="evenodd" clip-rule="evenodd" d="M50.4341 89.1181C50.8548 88.9947 51.2486 88.7938 51.5955 88.5258C52.043 88.134 54.0158 82.2737 54.0158 82.2737L52.9257 80.256C52.9257 80.256 50.7771 80.1553 50.7942 78.9707C50.8112 77.7861 53.3182 77.3378 54.0576 77.4478C54.797 77.5577 56.0529 80.153 56.8597 82.3883C57.6664 84.6235 57.1639 84.9154 57.9312 87.3032C59.0554 90.8013 73.3814 95.0527 76.9166 96.0825C76.9166 96.0825 81.6783 98.0529 82.5594 102.997C83.0094 105.975 82.3602 109.015 80.7329 111.55C73.5123 108.106 70.6057 107.867 65.4322 103.514C60.6318 99.4745 56.5283 95.3771 54.9798 94.5247C53.4313 93.6722 46.2578 90.8756 46.1285 88.2269C46.1285 88.2269 43.6664 84.6948 43.3327 82.9852C42.999 81.2757 43.1252 79.9207 43.4233 79.5096C43.7214 79.0985 44.9137 81.6047 44.9137 81.6047C44.9137 81.6047 45.6996 81.3725 46.8068 83.3754C47.819 85.4072 49.0343 87.3312 50.4341 89.1181Z" fill="#FFD997"/>
<path d="M117.716 50.596C117.532 50.1309 117.239 49.7167 116.862 49.3879C116.485 49.0592 116.034 48.8253 115.549 48.706C115.163 48.6725 114.775 48.722 114.41 48.8513C114.046 48.9806 113.713 49.1866 113.435 49.4555C113.364 49.5285 113.325 49.6263 113.326 49.7278C113.327 49.8293 113.368 49.9264 113.44 49.9982C113.511 50.0699 113.608 50.1107 113.71 50.1115C113.811 50.1124 113.909 50.0734 113.982 50.0029C114.117 49.8809 114.265 49.7751 114.424 49.6878C114.185 50.1887 114.638 50.6889 115.222 50.6889C115.759 50.6889 116.232 50.2553 116.031 49.7358C116.458 50.0559 116.801 50.4752 117.03 50.9575C117.078 51.0484 117.16 51.1165 117.258 51.1468C117.356 51.1772 117.462 51.1673 117.553 51.1193C117.644 51.0714 117.712 50.9893 117.742 50.8912C117.773 50.793 117.763 50.6868 117.715 50.596H117.716Z" fill="black"/>
<path d="M109.483 48.737C109.427 48.4285 109.293 48.1397 109.093 47.8983C108.893 47.6568 108.634 47.4708 108.341 47.358C107.303 47.0251 106.147 47.9 106.019 48.003C105.938 48.0667 105.886 48.1598 105.874 48.2618C105.862 48.3639 105.891 48.4666 105.954 48.5473C106.018 48.628 106.111 48.6801 106.213 48.6922C106.315 48.7042 106.418 48.6752 106.499 48.6116C106.546 48.5736 106.616 48.5256 106.695 48.4745C106.715 48.6848 106.816 48.8791 106.977 49.0155C107.138 49.1519 107.346 49.2196 107.557 49.2039C108.081 49.2039 108.557 48.7896 108.37 48.2678C108.551 48.4578 108.679 48.6927 108.739 48.9484C108.771 49.043 108.838 49.1218 108.926 49.1684C109.014 49.2151 109.117 49.2259 109.212 49.1986C109.308 49.1714 109.39 49.1082 109.441 49.0222C109.491 48.9362 109.506 48.834 109.483 48.737Z" fill="black"/>
<path fill-rule="evenodd" clip-rule="evenodd" d="M27.0688 33.3921L40.513 51.594L58.3788 41.1679L63.732 29.0609L49.2473 10.3689L31.486 18.4947L27.0688 33.3921Z" fill="#FFD997"/>
<path d="M64.1021 28.9843C64.0673 28.814 65.2573 30.4461 49.5532 10.1313C49.4998 10.0629 49.425 10.0144 49.3407 9.99361C49.2565 9.97283 49.1677 9.98095 49.0886 10.0167L45.4496 11.6821C46.0946 10.6314 46.6567 9.09764 45.7268 7.68928C44.7737 6.24607 43.8431 4.61395 42.1157 4.42039C40.7662 4.28102 39.2123 5.07153 37.3649 6.87089C36.0831 8.03145 35.086 9.47186 34.4512 11.0802C33.8163 12.6886 33.5607 14.4217 33.7042 16.1449C31.0439 14.5244 22.8036 9.8897 20.5071 13.1578C17.925 16.834 22.1331 25.9779 25.4623 24.8281C27.0166 24.2747 28.4958 23.5295 29.8655 22.6099L26.698 33.2829C26.6137 33.5686 25.8595 32.3678 40.2018 51.8247C40.208 51.8332 40.2173 51.8363 40.2242 51.8433C40.2818 51.9123 40.362 51.9588 40.4505 51.9745C40.539 51.9902 40.6303 51.9742 40.7081 51.9292C59.8693 40.7436 58.6514 41.5039 58.7304 41.322C64.4838 28.3463 64.1463 29.2003 64.1021 28.9843ZM49.1297 10.8482L54.4302 17.6887L48.247 20.5589L43.2508 13.5395L49.1297 10.8482ZM39.4515 15.2754L44.3936 22.3482L37.1156 25.7247L32.0737 18.6496L39.4515 15.2754ZM27.4978 33.3155L31.6339 19.3603L36.5682 26.2837L32.7194 40.3898L27.4978 33.3155ZM40.3946 50.781L35.588 44.2773L39.189 29.9707L44.9665 38.0771L40.3946 50.781ZM48.1409 46.6937L41.2385 50.7198L45.7106 38.29L52.4644 34.9909L48.1409 46.6937ZM45.5263 37.5227L39.6025 29.2135L46.8123 25.8122L52.5851 34.0734L45.5263 37.5227ZM58.0746 40.8969L52.606 44.0884L56.6879 32.9322L62.947 29.8762L58.0746 40.8969ZM56.5029 32.161L50.6844 23.9857L56.9999 21.0072L63.132 28.9216L56.5029 32.161Z" fill="black"/>
<path d="M47.6938 77.4153C47.6985 77.3084 47.8781 74.7418 53.7555 69.3507C59.3634 64.2027 63.686 62.2841 63.47 57.0137C63.4715 55.9819 63.2552 54.9614 62.8352 54.0189C62.4152 53.0764 61.801 52.2332 61.0327 51.5444C57.5934 48.5504 51.6503 49.09 51.5914 49.0962C51.4888 49.1065 51.3862 49.0756 51.3064 49.0102C51.2265 48.9449 51.1759 48.8505 51.1656 48.7478C51.1553 48.6451 51.1863 48.5426 51.2516 48.4627C51.3169 48.3829 51.4113 48.3323 51.514 48.322C51.7703 48.2995 57.8427 47.7428 61.5367 50.9544C62.3867 51.7111 63.0672 52.6389 63.5334 53.677C63.9996 54.7151 64.2411 55.8401 64.2419 56.9781C64.4742 62.6751 59.8775 64.781 54.2765 69.9166C48.7151 75.0189 48.4696 77.4269 48.4658 77.4524C48.4551 77.5504 48.4074 77.6407 48.3324 77.7047C48.2574 77.7688 48.1608 77.8018 48.0623 77.797C47.9638 77.7923 47.8709 77.7502 47.8024 77.6792C47.7339 77.6083 47.6951 77.5139 47.6938 77.4153Z" fill="black"/>
<path d="M48.6872 77.2604C48.7956 77.0413 51.4296 71.8747 59.7892 67.9307C68.6977 63.7273 71.773 59.5424 70.7464 53.0031C69.4085 44.4515 57.6042 44.1124 57.4835 44.11C57.3808 44.1081 57.2831 44.0654 57.2119 43.9915C57.1406 43.9175 57.1017 43.8182 57.1037 43.7156C57.1056 43.6129 57.1483 43.5152 57.2223 43.444C57.2963 43.3728 57.3955 43.3338 57.4982 43.3358C57.6236 43.3358 70.072 43.6881 71.5121 52.8831C72.586 59.7445 69.2854 64.3064 60.1198 68.6306C52.0242 72.4507 49.4072 77.5531 49.3817 77.6042C49.3361 77.6963 49.2558 77.7665 49.1584 77.7994C49.0611 77.8322 48.9547 77.8251 48.8626 77.7795C48.7705 77.7339 48.7002 77.6536 48.6674 77.5563C48.6345 77.4589 48.6416 77.3525 48.6872 77.2604Z" fill="black"/>
<path fill-rule="evenodd" clip-rule="evenodd" d="M38.4805 96.3651C37.7322 97.76 37.3959 99.3389 37.5108 100.918C37.6257 102.497 38.187 104.01 39.1293 105.282L41.0355 103.842C40.1981 102.904 39.703 101.709 39.6309 100.453C39.5588 99.1977 39.9138 97.9546 40.6383 96.9264L38.4805 96.3651Z" fill="white"/>
<path fill-rule="evenodd" clip-rule="evenodd" d="M15.3047 118.489C15.3047 118.489 17.7939 121.38 17.1861 125L20.071 123.459C20.071 123.459 20.1345 119.369 17.6437 117.017L15.3047 118.489Z" fill="white"/>
<path fill-rule="evenodd" clip-rule="evenodd" d="M19.4771 54.6592C16.592 56.1699 14.371 58.6986 13.2451 61.7545L16.3468 63.2039C16.586 60.216 18.5449 57.9583 21.6426 56.1853L19.4771 54.6592Z" fill="white"/>
<path fill-rule="evenodd" clip-rule="evenodd" d="M83.4146 14.3215C83.4146 14.3215 80.1682 21.9796 86.363 23.8711L87.1605 22.3226C87.1605 22.3226 82.4708 21.2325 85.4834 14.2913L83.4146 14.3215Z" fill="white"/>
<path fill-rule="evenodd" clip-rule="evenodd" d="M60.0227 141.152C61.64 139.154 62.4583 136.627 62.3191 134.061L59.6185 133.984C60.3796 136.224 59.6666 138.474 57.9756 140.726L60.0227 141.152Z" fill="white"/>
<path d="M86.2518 24.2412C85.4955 24.0479 84.7905 23.6918 84.1859 23.198C83.5814 22.7042 83.0918 22.0844 82.7514 21.3819C81.3276 18.3314 82.9891 14.3362 83.0611 14.1705C83.091 14.1021 83.1399 14.0438 83.2022 14.0026C83.2644 13.9614 83.3372 13.939 83.4118 13.9383L85.4791 13.905C85.5439 13.9038 85.608 13.919 85.6655 13.9491C85.723 13.9792 85.7719 14.0232 85.8079 14.0772C85.8439 14.1311 85.8658 14.1933 85.8715 14.2579C85.8772 14.3225 85.8666 14.3875 85.8407 14.4469C84.7668 16.9245 84.5732 18.8834 85.2662 20.2755C85.4643 20.6758 85.743 21.0308 86.0847 21.3183C86.4264 21.6058 86.8239 21.8196 87.2521 21.9463C87.3091 21.9601 87.3622 21.9867 87.4073 22.024C87.4525 22.0612 87.4887 22.1083 87.5131 22.1616C87.6184 22.3892 87.5703 22.3722 86.7094 24.0515C86.6673 24.1316 86.5985 24.1945 86.5149 24.2291C86.4313 24.2638 86.3382 24.2681 86.2518 24.2412ZM83.6813 14.7048C83.3623 15.575 82.355 18.7107 83.449 21.0536C83.7183 21.6089 84.0984 22.1031 84.5659 22.5059C85.0334 22.9087 85.5785 23.2115 86.1674 23.3957L86.6095 22.534C85.7282 22.1588 85.0078 21.4842 84.5755 20.6293C83.8222 19.1327 83.9306 17.1336 84.8969 14.6815L83.6813 14.7048Z" fill="black"/>
<path d="M39.1281 105.669C39.068 105.669 39.0087 105.655 38.955 105.628C38.9012 105.601 38.8545 105.562 38.8184 105.514C37.8395 104.177 37.2574 102.592 37.1388 100.939C37.0202 99.2863 37.37 97.6337 38.1479 96.1707C38.1906 96.0985 38.2555 96.0421 38.333 96.0099C38.4105 95.9778 38.4964 95.9717 38.5776 95.9926C40.9244 96.6027 40.9004 96.5346 40.9995 96.7808C41.0221 96.837 41.0313 96.8978 41.0261 96.9581C41.021 97.0185 41.0018 97.0769 40.9701 97.1285C40.2959 98.0851 39.9632 99.2407 40.0256 100.409C40.0879 101.578 40.5417 102.692 41.3138 103.571C41.3529 103.61 41.383 103.657 41.4023 103.709C41.4217 103.761 41.4296 103.816 41.4257 103.871C41.4219 103.927 41.4062 103.98 41.3798 104.029C41.3534 104.078 41.3169 104.12 41.2728 104.153C39.2156 105.701 39.3085 105.669 39.1281 105.669ZM38.6767 96.8157C38.0568 98.0645 37.7799 99.4556 37.8742 100.847C37.9684 102.238 38.4306 103.579 39.2133 104.732L40.48 103.777C39.7617 102.842 39.3373 101.715 39.2606 100.539C39.1838 99.3629 39.4581 98.1904 40.0487 97.1703L38.6767 96.8157Z" fill="black"/>
<path d="M17.1885 125.387C17.1322 125.387 17.0766 125.375 17.0256 125.351C16.9746 125.327 16.9293 125.293 16.893 125.25C16.8566 125.207 16.8301 125.157 16.8152 125.102C16.8003 125.048 16.7975 124.991 16.8068 124.936C17.3782 121.534 15.0376 118.768 15.0144 118.742C14.9781 118.7 14.9512 118.65 14.9357 118.597C14.9202 118.543 14.9164 118.487 14.9246 118.432C14.961 118.191 14.9362 118.269 17.4401 116.691C17.5129 116.646 17.5987 116.625 17.6842 116.634C17.7698 116.642 17.85 116.679 17.9124 116.738C20.4977 119.178 20.4675 123.294 20.4613 123.467C20.4603 123.536 20.4409 123.604 20.4049 123.663C20.369 123.722 20.3179 123.77 20.2569 123.803C17.1498 125.46 17.324 125.387 17.1885 125.387ZM15.8723 118.589C17.0929 120.242 17.7204 122.258 17.6531 124.311L19.6777 123.227C19.6468 122.393 19.4052 119.42 17.5873 117.506L15.8723 118.589Z" fill="black"/>
<path d="M16.3469 63.5902C16.2137 63.5902 16.4034 63.656 13.0819 62.1052C12.995 62.0647 12.9263 61.9934 12.889 61.9052C12.8517 61.817 12.8484 61.718 12.8798 61.6275C14.0399 58.4859 16.3212 55.8845 19.2844 54.324C19.3483 54.2872 19.4213 54.2694 19.495 54.2726C19.5686 54.2759 19.6398 54.3002 19.7002 54.3426L21.8681 55.8686C21.9212 55.9062 21.964 55.9565 21.9925 56.0149C22.021 56.0734 22.0343 56.1381 22.0312 56.2031C22.0281 56.268 22.0087 56.3312 21.9748 56.3867C21.9409 56.4421 21.8935 56.4882 21.8371 56.5205C18.6185 58.3633 16.9492 60.559 16.7348 63.2341C16.727 63.3314 16.6827 63.4222 16.6107 63.4883C16.5388 63.5543 16.4445 63.5907 16.3469 63.5902ZM13.7307 61.5532L16.0271 62.6271C16.4142 60.072 18.0224 57.9514 20.9351 56.1597L19.457 55.1168C16.8634 56.538 14.8405 58.8118 13.7307 61.5532Z" fill="black"/>
<path d="M60.0227 141.539C59.9453 141.539 59.9848 141.539 57.8967 141.102C57.8328 141.089 57.7733 141.06 57.7237 141.018C57.674 140.975 57.6358 140.921 57.6127 140.86C57.5895 140.8 57.5821 140.734 57.5911 140.669C57.6002 140.605 57.6254 140.543 57.6644 140.491C59.4033 138.168 59.9229 136.083 59.25 134.106C59.2297 134.047 59.2241 133.983 59.2336 133.921C59.2431 133.859 59.2676 133.801 59.3048 133.75C59.3421 133.7 59.391 133.659 59.4474 133.632C59.5038 133.605 59.566 133.591 59.6287 133.593L62.3285 133.671C62.4242 133.674 62.5155 133.712 62.5847 133.778C62.6539 133.844 62.6962 133.934 62.7032 134.029C62.847 136.688 62.002 139.307 60.3309 141.38C60.2954 141.429 60.2491 141.468 60.1956 141.496C60.1421 141.523 60.0829 141.538 60.0227 141.539ZM58.6376 140.466L59.8586 140.721C61.2449 138.923 61.9817 136.708 61.9491 134.437L60.1366 134.384C60.6143 136.314 60.1203 138.313 58.6376 140.466Z" fill="black"/>
<path d="M143.511 80.2196C143.019 74.988 138.461 73.1654 135.738 72.0737C133.302 71.0974 129.449 69.1029 127.153 67.8927C126.474 65.6013 125.497 63.409 124.247 61.372C124.337 60.8076 124.415 60.3593 124.461 60.0991C126.946 59.513 128.611 57.9397 129.019 56.4315C129.077 56.2124 129.124 55.9904 129.159 55.7664C129.422 55.6726 129.645 55.4919 129.791 55.2542C129.937 55.0164 129.998 54.736 129.963 54.4591C129.928 54.1823 129.8 53.9256 129.6 53.7315C129.399 53.5374 129.138 53.4176 128.861 53.3918C128.725 53.3802 128.783 53.4359 128.671 53.3074C129.587 51.6627 130.245 49.887 130.621 48.0425C130.892 48.0337 131.158 47.9685 131.402 47.8509C131.646 47.7332 131.863 47.5659 132.038 47.3596C132.215 47.1714 132.249 47.1273 132.449 47.1653C133.212 47.2915 134.217 47.3511 134.673 46.9074C135.03 46.5613 134.92 46.1285 134.779 45.6539C134.71 45.515 134.687 45.3577 134.712 45.2047C134.738 45.0516 134.812 44.9107 134.923 44.8022C135.074 44.6152 135.178 44.3952 135.228 44.1601C135.278 43.9251 135.271 43.6816 135.21 43.4494C135.148 43.2173 135.032 43.003 134.872 42.824C134.711 42.645 134.511 42.5063 134.287 42.4191C135.121 41.7734 135.195 40.996 133.998 40.1738C133.879 40.0917 133.699 39.9678 133.673 39.9461C133.704 39.8796 133.75 39.8207 133.806 39.7735C134.867 38.7135 134.219 37.3237 132.555 37.3903C132.218 37.4043 131.928 37.4368 131.685 37.4639C131.521 37.4908 131.354 37.504 131.188 37.5034C131.25 37.2546 131.222 36.9919 131.108 36.762C130.995 36.5321 130.804 36.3498 130.569 36.2475C130.268 36.1473 129.947 36.1201 129.634 36.1682C129.32 36.2162 129.022 36.3382 128.765 36.5239C128.641 36.3484 128.476 36.2052 128.285 36.1065C128.093 36.0078 127.881 35.9563 127.666 35.9564C127.608 35.9502 127.527 35.9417 127.53 35.9688C127.507 35.7829 127.522 35.5943 127.575 35.4144C127.873 33.8659 127.76 33.358 126.434 32.9523C125.388 32.6349 124.459 33.228 124.078 33.1374C124.084 32.7502 124.453 31.8877 123.968 31.3287C123.789 31.1587 123.572 31.0333 123.336 30.9628C123.099 30.8923 122.849 30.8787 122.606 30.923C120.619 31.0268 120.255 28.8093 118.1 29.8902C117.326 30.2773 116.953 30.6822 116.967 31.1623C116.056 30.971 115.166 29.0764 113.828 29.9413C113.473 30.1616 113.179 30.4688 112.976 30.834C112.85 31.0453 112.837 31.0662 112.329 30.9741C111.155 30.7573 110.443 29.8902 109.528 31.1731C109.291 31.4904 109.123 31.8531 109.033 32.2385C108.973 32.4754 108.968 32.494 108.585 32.6109C107.211 33.0259 105.437 33.9108 105.89 35.2743C106.19 36.181 105.789 36.2313 105.313 37.0644C104.808 37.9401 104.621 37.9811 105.313 39.1672C105.443 39.3887 105.421 39.4073 105.216 39.5861C104.637 40.0894 104.791 40.5493 105.416 41.0146C106.201 41.6007 104.956 43.5441 106.431 43.9978C105.173 45.0817 105.601 46.0031 105.509 46.8292C105.476 47.7692 105.136 48.6725 104.541 49.4005C104.062 49.9599 103.736 50.6338 103.594 51.3566C103.453 52.0794 103.502 52.8265 103.735 53.525C104.186 55.0381 104.245 56.6409 103.906 58.1829C103.687 59.2908 103.312 61.1451 104.356 62.6232C104.873 63.3054 105.585 63.8145 106.398 64.0834C105.835 64.7484 105.331 65.4602 104.889 66.2111C103.92 66.5285 96.5108 68.8892 96.5108 68.8892C94.4374 69.4908 89.5797 70.9023 86.9573 76.4552C84.3249 82.0298 84.2265 84.8496 82.6006 87.3938C81.4215 89.285 80.441 91.293 79.6747 93.3857C79.6135 93.4159 79.5299 93.4523 79.43 93.4965C78.3276 93.9048 77.3801 94.6473 76.7202 95.6202C75.6958 95.3183 72.1885 94.2699 69.4422 93.3044C62.964 91.0281 58.7978 88.7364 58.2976 87.1824C57.5497 84.8597 58.046 84.5353 57.2214 82.2551C56.7979 81.0821 55.3222 77.2426 54.1128 77.0676C53.2273 77.0224 52.3442 77.1938 51.54 77.567C50.4351 75.7522 47.6013 71.2708 46.402 71.0238C46.3159 71.0032 46.2263 71.0013 46.1393 71.0183C46.0524 71.0352 45.9701 71.0707 45.898 71.1221C44.9913 71.7756 41.851 75.5199 41.7557 76.7742C41.7372 77.0111 41.8378 77.4455 43.0666 79.361C42.691 79.9804 42.6384 81.4708 42.9496 83.0634C43.2686 84.7002 45.3552 87.7949 45.747 88.3655C46.0606 91.2442 53.0165 93.8875 54.7895 94.8692C56.2768 95.6868 60.4307 99.819 65.1807 103.816C70.0322 107.898 73.7919 108.831 76.7558 110.165C81.6622 112.376 79.8164 111.54 80.4412 112.031C81.066 112.522 83.8642 112.264 85.7712 110.045C86.9176 108.644 87.9908 107.185 88.9866 105.673C87.4521 109.81 85.0906 116.39 85.0906 117.674C85.3841 119.428 85.9938 121.114 86.89 122.649C86.7854 124.691 86.2016 138.789 89.1353 151.984C89.1543 152.07 89.2021 152.147 89.2708 152.202C89.3395 152.258 89.425 152.288 89.5131 152.288L125.42 151.823C125.512 151.822 125.601 151.788 125.671 151.727C125.74 151.666 125.785 151.582 125.798 151.49C125.826 151.294 128.503 131.896 127.948 123.704L129.489 122.233C129.542 122.183 129.579 122.12 129.597 122.05C129.615 121.98 129.614 121.906 129.592 121.837C129.152 119.875 128.932 117.871 128.937 115.86C130.917 115.687 133.751 112.847 134.434 111.976C135.377 110.779 135.223 106.992 135.183 106.255C136.122 103.747 136.843 101.163 137.336 98.5314C137.836 95.271 144.011 85.5658 143.511 80.2196ZM126.436 68.2241C126.75 70.925 126.899 73.6425 126.882 76.3615C124.379 76.3418 121.957 77.247 120.081 78.9034C121.023 75.1095 122.968 69.2794 123.431 67.909C123.824 67.6411 123.326 67.686 124.059 62.5953C125.079 64.3669 125.877 66.2574 126.436 68.2241ZM127.954 53.0008C125.431 53.0782 123.143 54.4177 121.516 53.8145C120.346 53.3833 121.793 48.8593 122.273 47.5648C123.479 47.4804 123.803 46.7905 124.364 47.468C125.088 48.3321 124.474 49.7257 126.405 49.4539C128.247 49.1892 127.328 47.0538 127.967 46.9098C128.286 46.8393 128.37 46.9338 128.615 47.2195C128.913 47.6244 129.351 47.9047 129.843 48.0061C129.461 49.7541 128.826 51.4369 127.956 53.0008H127.954ZM128.245 37.9439C128.444 37.9176 128.656 37.6652 128.748 37.5204C129.509 36.7756 130.493 36.7671 130.429 37.2339C130.394 37.3776 130.392 37.5276 130.424 37.6721C130.455 37.8167 130.52 37.9521 130.612 38.0678C130.987 38.4495 131.564 38.2056 132.584 38.1661C133.455 38.1274 133.865 38.6175 133.256 39.2276C133.142 39.3213 133.051 39.4396 132.989 39.5738C132.927 39.7079 132.897 39.8543 132.901 40.0019C132.936 40.389 133.267 40.6151 133.559 40.8141C133.76 40.9527 134.213 41.2531 134.111 41.4823C133.792 41.872 133.366 42.16 132.885 42.3107C132.796 42.3434 132.723 42.4075 132.678 42.4909C132.633 42.5743 132.62 42.6712 132.642 42.7632C132.664 42.8553 132.719 42.9362 132.796 42.9906C132.874 43.0451 132.968 43.0692 133.062 43.0586C133.721 42.9812 134.194 43.126 134.384 43.4558C134.455 43.5966 134.484 43.7546 134.469 43.9115C134.454 44.0684 134.395 44.2178 134.298 44.3423C133.619 45.2606 134.058 45.6671 134.138 46.3453C134.09 46.4228 133.632 46.5776 132.574 46.4011C132.368 46.3615 132.156 46.3808 131.961 46.4567C131.766 46.5326 131.597 46.662 131.472 46.83C131.322 46.9828 131.141 47.102 130.941 47.1799C130.741 47.2578 130.527 47.2925 130.313 47.2818C130.099 47.2712 129.889 47.2153 129.698 47.118C129.507 47.0206 129.339 46.884 129.204 46.717C129.059 46.4875 128.845 46.3096 128.592 46.2087C128.34 46.1078 128.062 46.089 127.798 46.1549C126.993 46.3345 126.947 47.0909 126.907 47.6437C126.862 48.3444 126.797 48.6162 126.295 48.6874C125.665 48.7796 125.654 48.7385 125.54 48.2484C125.455 47.7813 125.255 47.3426 124.959 46.9717C123.893 45.695 123.137 46.9307 121.847 46.7874C121.694 46.7864 121.544 46.7468 121.411 46.6723C121.278 46.5979 121.166 46.491 121.086 46.3616C121 46.1447 120.963 45.9118 120.976 45.6791C120.99 45.4464 121.053 45.2193 121.163 45.0136C121.737 43.8337 121.096 43.503 119.932 42.9038C119.419 42.639 119.446 42.3951 119.508 41.8624C119.604 41.3718 119.547 40.8634 119.345 40.406C119.222 40.1398 119.019 39.9187 118.764 39.7735C125.076 37.515 127.955 37.9834 128.247 37.9439H128.245ZM106.451 42.3324C106.537 41.9881 106.53 41.6269 106.43 41.2864C106.329 40.9459 106.139 40.6386 105.879 40.3968C105.805 40.3433 105.736 40.284 105.671 40.2194C105.791 40.1494 105.894 40.0553 105.975 39.9431C106.057 39.8309 106.114 39.703 106.143 39.5675C106.172 39.4321 106.173 39.2921 106.145 39.1564C106.117 39.0207 106.061 38.8923 105.981 38.7793C105.503 37.961 105.594 38.1367 105.981 37.4507C106.389 36.7407 107.055 36.3451 106.621 35.0335C106.363 34.2523 108.019 33.5919 108.806 33.3542C110.029 32.9825 109.515 32.5195 110.154 31.6245C110.482 31.1599 110.555 31.1901 111.129 31.4154C111.469 31.5578 111.822 31.6657 112.184 31.7375C113.725 32.0263 113.335 31.1816 114.243 30.594C114.974 30.1178 115.734 31.8537 116.995 31.9504C117.273 31.9721 117.58 31.9946 117.747 31.7577C118.106 31.2513 117.167 31.2157 118.44 30.5847C119.266 30.1735 119.644 30.4391 120.271 30.8789C120.933 31.4324 121.776 31.7239 122.639 31.698C123.176 31.6756 123.336 31.7871 123.377 31.839C123.677 32.1819 122.892 33.3495 123.62 33.7839C124.385 34.2376 125.26 33.4091 126.202 33.6956C127.014 33.9434 127.063 33.9589 126.808 35.2689C126.455 37.0946 127.66 36.5518 128.024 36.8592C128.197 37.0009 128.133 37.0404 128.012 37.1766C123.736 37.0071 118.334 39.0976 118.105 39.1897C118.026 39.221 117.96 39.2779 117.917 39.3515C117.873 39.4251 117.856 39.5109 117.868 39.5954C117.442 39.6628 117.012 39.697 116.582 39.6976C116.27 39.6675 115.977 39.5308 115.754 39.3105C115.72 39.2412 115.666 39.1834 115.599 39.144C115.255 38.8955 113.148 37.4995 111.186 38.5579C109.492 39.4715 108.261 41.8872 107.103 43.3079C106.366 43.3079 106.393 43.133 106.453 42.3324H106.451ZM106.468 56.6816C106.491 56.5831 106.474 56.4794 106.422 56.3928C106.37 56.3061 106.286 56.2435 106.188 56.2182C106.09 56.1928 105.986 56.2069 105.898 56.2574C105.81 56.3078 105.746 56.3906 105.718 56.488C105.507 57.294 105.598 58.1496 105.974 58.8928C106.016 58.9508 106.061 59.0064 106.109 59.0593C105.398 59.546 104.847 60.2318 104.524 61.0306C104.091 58.8441 105.591 57.277 104.486 53.3182C104.287 52.7387 104.243 52.117 104.36 51.5153C104.476 50.9136 104.748 50.3528 105.148 49.8891C105.839 49.0476 106.238 48.0045 106.285 46.9167C106.396 45.897 105.961 45.3558 107.038 44.4987C108.354 43.4496 109.761 40.2078 111.564 39.2338C113.05 38.4325 114.763 39.4978 115.118 39.7394C115.459 40.1442 115.944 40.4016 116.47 40.4579C117.374 40.5988 118.282 39.9934 118.655 40.7475C119.091 41.6201 118.057 42.8024 119.584 43.5882C120.718 44.172 120.718 44.172 120.475 44.6722C119.92 45.8134 120.143 47.1583 121.482 47.4889C120.801 49.3688 119.38 53.8478 121.254 54.5346C123.102 55.2198 125.29 53.9609 127.712 53.7921C127.418 54.0342 127.18 54.3382 127.016 54.6825C126.981 54.7534 126.97 54.833 126.982 54.9107C126.994 54.9885 127.03 55.0606 127.084 55.1176C127.139 55.1745 127.209 55.2135 127.286 55.2294C127.363 55.2453 127.443 55.2374 127.516 55.2066C127.777 55.0779 128.076 55.0484 128.357 55.1238C128.402 55.1605 128.432 55.2135 128.439 55.2717C128.415 55.5932 128.359 55.9116 128.274 56.2225C127.897 57.6122 125.818 59.4743 122.371 59.5595C122.268 59.5595 122.17 59.6003 122.097 59.6729C122.024 59.7455 121.984 59.8439 121.984 59.9466C121.984 60.0493 122.024 60.1477 122.097 60.2203C122.17 60.2929 122.268 60.3337 122.371 60.3337C122.799 60.3338 123.226 60.3048 123.65 60.247C123.223 62.5749 122.953 64.9287 122.84 67.2927C122.639 67.6388 120.721 73.719 120.045 76.075C120.726 73.4686 121.242 70.8215 121.587 68.1498C121.587 67.2207 121.566 60.3771 120.945 57.4829C120.954 57.3874 120.932 57.2914 120.882 57.2096C120.834 56.8477 120.676 56.5093 120.429 56.2403C120.219 56.0709 119.967 55.9631 119.7 55.929C119.432 55.8948 119.161 55.9355 118.915 56.0467C118.688 55.8883 118.432 55.7764 118.161 55.7174C117.891 55.6584 117.611 55.6535 117.339 55.7029C117.028 55.7871 116.751 55.9658 116.545 56.2143C116.34 56.4629 116.217 56.769 116.194 57.0904C115.48 57.0151 114.766 57.2252 114.206 57.6749C113.811 58.0946 113.283 61.7289 112.858 65.2092C112.829 64.5124 112.858 63.6607 112.179 63.265C111.99 63.165 111.778 63.115 111.564 63.1197C111.35 63.1245 111.141 63.1838 110.956 63.2921C110.922 63.3143 110.891 63.3403 110.863 63.3696C111.046 62.6837 111.015 61.9584 110.774 61.2907C110.534 60.6229 110.095 60.0446 109.517 59.633C110.069 59.5029 110.6 59.2921 111.091 59.0074C111.137 58.9812 111.176 58.9462 111.207 58.9045C111.238 58.8628 111.261 58.8152 111.273 58.7646C111.285 58.714 111.287 58.6615 111.279 58.6101C111.27 58.5587 111.252 58.5096 111.224 58.4656C111.196 58.4216 111.159 58.3837 111.117 58.3541C111.074 58.3246 111.025 58.304 110.974 58.2935C110.923 58.2831 110.871 58.2831 110.82 58.2935C110.769 58.3039 110.72 58.3244 110.677 58.354C109.702 58.9126 108.568 59.128 107.456 58.9656C107.29 58.9475 107.131 58.8936 106.988 58.8078C106.846 58.722 106.724 58.6062 106.63 58.4686C106.373 57.9091 106.316 57.2779 106.47 56.6816H106.468ZM119.866 57.9305C119.62 57.9305 119.434 57.7369 119.338 57.3978C119.321 57.1051 119.307 56.8782 119.297 56.7242C119.412 56.688 119.535 56.6823 119.653 56.7077C119.77 56.7331 119.88 56.7886 119.97 56.8689C120.071 57.0346 120.139 57.2189 120.168 57.4109C120.168 57.7199 120.129 57.9281 119.868 57.9305H119.866ZM118.544 57.1066L118.54 57.1198C118.371 58.4229 117.116 58.4709 116.954 57.2522C117.002 56.9634 117.131 56.5306 117.474 56.4687C117.656 56.4352 117.844 56.4404 118.024 56.4838C118.205 56.5273 118.374 56.6081 118.521 56.7211C118.528 56.8135 118.537 56.942 118.547 57.1066H118.544ZM116.161 58.9556C115.651 60.3415 114.567 59.64 114.567 59.0268C114.565 59.0042 114.56 58.9818 114.553 58.9602C114.594 58.7024 114.665 58.4503 114.765 58.2092C115.175 57.9353 115.669 57.8152 116.159 57.8701L116.161 58.9556ZM111.957 65.3369C111.83 65.4312 111.676 65.4821 111.517 65.4821C111.359 65.4821 111.205 65.4312 111.078 65.3369C110.927 65.1589 110.976 64.877 110.968 64.7555C111.036 64.4831 111.149 64.2242 111.303 63.9897C111.83 63.7188 112.035 64.0896 112.059 64.6796C112.106 64.9038 112.07 65.1376 111.957 65.3369ZM106.377 74.5219C106.815 72.9563 107.39 71.3877 107.804 70.3285C107.897 71.1782 108.036 72.0222 108.222 72.8565C108.242 72.9434 108.292 73.0206 108.362 73.0752C108.433 73.1298 108.52 73.1584 108.609 73.1561C108.694 74.7362 108.911 76.3064 109.257 77.8504C107.933 77.1169 106.911 75.9367 106.376 74.5203L106.377 74.5219ZM109.455 78.7741C109.61 79.4833 109.764 80.1623 109.901 80.7701C108.36 80.6307 106.445 78.5944 105.739 77.6847C105.868 76.8601 105.981 76.1881 106.077 75.7181C106.799 77.1091 107.997 78.1935 109.453 78.7725L109.455 78.7741ZM108.75 71.5008C108.401 69.0394 108.304 66.549 108.459 64.0679C109.127 64.1063 109.796 64.0882 110.46 64.0137C109.728 65.6714 109.02 69.682 108.749 71.4992L108.75 71.5008ZM105.491 66.7306C105.979 65.8732 106.555 65.0688 107.209 64.3304C107.364 64.3684 107.504 64.4171 107.669 64.4466C107.586 65.8516 107.584 67.2602 107.664 68.6654C106.626 71.0055 105.817 73.4401 105.247 75.9357C104.123 74.6589 101.724 73.7136 100.587 73.3202C102.174 71.4682 105.326 67.007 105.491 66.7306ZM87.6603 76.7873C90.1333 71.5488 94.5883 70.2558 96.7299 69.634C96.7299 69.634 102.273 67.8811 104.176 67.261C103.059 68.8396 100.812 71.9614 99.6217 73.2312C99.5766 73.2792 99.5445 73.3379 99.5284 73.4018C99.5123 73.4656 99.5127 73.5326 99.5297 73.5962C99.5467 73.6599 99.5796 73.7181 99.6254 73.7655C99.6712 73.8128 99.7283 73.8477 99.7913 73.8669C101.144 74.2803 104.687 75.6569 105.048 77.0877C104.86 78.2553 104.637 79.7829 104.384 81.556L101.383 81.2463L102.425 75.3279C102.436 75.2769 102.437 75.2241 102.427 75.1728C102.417 75.1215 102.397 75.0727 102.368 75.0293C102.339 74.9859 102.302 74.9488 102.258 74.9203C102.214 74.8918 102.165 74.8724 102.113 74.8634C102.062 74.8543 102.009 74.8558 101.958 74.8677C101.908 74.8795 101.86 74.9016 101.818 74.9325C101.775 74.9633 101.74 75.0024 101.713 75.0474C101.687 75.0923 101.67 75.1422 101.663 75.1939C101.652 75.252 101.198 77.821 100.61 81.1665L94.3429 80.5192C93.348 74.4096 93.3774 73.0562 93.2411 72.6343C93.2183 72.5636 93.1753 72.5011 93.1175 72.4545C93.0597 72.4078 92.9896 72.379 92.9157 72.3715C92.8418 72.3641 92.7674 72.3783 92.7014 72.4124C92.6355 72.4465 92.5809 72.4991 92.5443 72.5638C92.3964 72.8317 89.1601 78.6966 88.0924 82.9388C87.0628 82.8949 86.0362 83.0778 85.0852 83.4745C85.7821 81.1866 86.6427 78.9518 87.6603 76.7873ZM96.6037 119.417C96.5871 119.413 96.5703 119.41 96.5534 119.409C95.0128 119.453 93.5136 118.907 92.3608 117.885C93.2024 115.244 94.1803 112.14 95.1311 109.034C96.2187 109.436 97.3853 109.579 98.5378 109.451C97.6571 112.723 97.0108 116.053 96.6037 119.417ZM85.1998 92.0718C86.812 89.5194 87.9928 86.7189 88.6947 83.7827C90.9401 84.1698 92.456 85.9754 93.4734 88.0411C92.35 90.2965 90.7597 93.1728 89.2669 95.7929C88.4037 94.1031 86.9594 92.7818 85.1998 92.0718ZM88.7977 96.612C87.5883 98.7211 86.492 100.584 85.8238 101.711C85.713 99.3525 84.7584 97.112 83.1341 95.398C83.3772 95.0349 84.0275 94.047 84.7987 92.7555C85.6919 93.0937 86.5069 93.61 87.1944 94.273C87.8818 94.9359 88.4273 95.7318 88.7977 96.612ZM97.4415 84.5864C97.4752 84.4902 97.4696 84.3845 97.4259 84.2924C97.3822 84.2003 97.304 84.1292 97.2081 84.0944C97.1123 84.0596 97.0066 84.0641 96.9141 84.1068C96.8215 84.1494 96.7495 84.2269 96.7137 84.3224L95.6769 87.1871C95.2263 85.4396 94.8198 83.353 94.4745 81.3128L100.477 81.9322C98.0167 96.0066 98.4642 94.2273 97.8448 96.7352C96.4939 95.9819 95.1982 95.1338 93.9674 94.1972L97.4415 84.5864ZM94.881 89.3867C94.7068 88.9222 94.5256 88.4731 94.3328 88.055C94.514 87.6849 94.6805 87.3347 94.8322 87.0044C94.9507 87.4852 95.073 87.9466 95.1977 88.3756C95.2271 88.4723 95.3146 88.1851 94.881 89.3844V89.3867ZM94.538 85.7477C94.3635 86.1705 94.148 86.651 93.8915 87.1894C92.7634 85.1229 91.1654 83.456 88.8682 83.0317C89.8302 79.9158 91.0941 76.9013 92.6419 74.031C92.9268 76.36 93.6166 81.5722 94.5365 85.7423L94.538 85.7477ZM93.8814 88.9593C94.0882 89.4556 94.2848 89.9759 94.4652 90.5404C92.8532 94.9993 90.8804 100.476 90.3269 102.087C90.4992 100.258 90.2709 98.4134 89.6579 96.6817C91.1112 94.1391 92.6961 91.2883 93.8814 88.9516V88.9593ZM93.6918 94.9652C94.9461 95.9128 96.2684 96.7668 97.6482 97.5202C96.9351 100.297 95.8202 104.108 94.6325 108.006C92.9515 107.211 91.4346 106.108 90.1604 104.754C91.4557 101.28 90.3873 104.133 93.6918 94.9598V94.9652ZM95.3587 108.292C96.5294 104.45 97.6319 100.683 98.3558 97.881C99.3695 98.4028 100.451 98.78 101.57 99.0014C100.796 102.496 100.379 102.458 98.7422 108.675C97.5995 108.823 96.4379 108.69 95.3587 108.286V108.292ZM98.551 97.1107C99.2261 94.393 98.7492 96.3178 101.249 82.0128L104.275 82.3225C103.622 86.906 102.668 93.7419 101.733 98.2372C100.623 98.0176 99.5506 97.6362 98.551 97.1052V97.1107ZM83.2556 87.8196C83.8801 86.7721 84.3847 85.6577 84.76 84.4973C85.7297 83.9733 86.8168 83.7048 87.9189 83.7169C87.3855 86.4848 85.8927 89.3418 84.4604 91.8024C83.4707 91.4765 82.4401 91.2917 81.399 91.2534C81.9428 90.0676 82.563 88.9183 83.2556 87.8127V87.8196ZM81.0521 92.0238C82.0695 92.0351 83.0798 92.1939 84.0515 92.4953C83.3865 93.6056 82.8251 94.4689 82.5627 94.8646C81.93 94.3062 81.2238 93.8373 80.4637 93.4709C80.5643 93.1844 80.7695 92.668 81.0521 92.0169V92.0238ZM46.296 71.7926C46.9657 72.0358 49.1367 75.0995 50.8935 77.9867C50.0077 78.8027 50.1703 80.2273 52.6138 80.4805C53.036 81.0264 53.3785 81.6293 53.6312 82.2714C53.2019 83.8487 52.6401 85.3869 51.9519 86.8696C51.9137 86.9122 51.8854 86.9627 51.869 87.0175C51.8411 87.1151 51.9464 86.8975 51.6816 87.4821C49.3589 84.8132 44.1281 76.6851 43.2857 75.3712C44.1566 74.0729 45.1659 72.873 46.296 71.7926ZM42.5323 76.8292C42.5854 76.5697 42.6868 76.3226 42.8312 76.1006C44.1474 78.1531 49.1615 85.891 51.3162 88.2401C51.2402 88.3665 51.1364 88.474 51.0127 88.5545C50.8891 88.635 50.7487 88.6863 50.6023 88.7046C47.63 84.8666 49.0461 86.6242 47.1461 83.1889C46.3052 81.669 45.5805 81.2935 45.1601 81.223C44.8535 80.4828 44.4243 79.7996 43.8904 79.2022C43.3394 78.4716 42.8831 77.6743 42.5323 76.8292ZM43.7138 82.9109C43.5005 81.9799 43.4672 81.0168 43.6155 80.0733C43.9094 80.5159 44.174 80.9773 44.4076 81.4545C44.1621 81.7642 44.1923 82.2946 44.5074 83.1176C44.8815 84.1811 45.1763 85.2709 45.3893 86.378C44.6683 85.3087 44.1041 84.1417 43.7138 82.9124V82.9109ZM80.5434 111.033C69.2215 105.781 70.8653 108.014 60.1295 98.3309C55.484 94.1399 55.621 94.3752 53.831 93.5344C51.4873 92.4342 46.6103 90.1455 46.5158 88.2075C46.2345 86.3866 45.8044 84.5919 45.2298 82.8412C45.1085 82.5724 45.0366 82.2839 45.0177 81.9895C45.2089 82.0081 45.7633 82.2892 46.4686 83.5644C47.5526 85.524 48.3864 87.4828 48.395 87.5022C48.4338 87.5909 48.5045 87.6618 48.5931 87.7009C48.6817 87.7401 48.7817 87.7446 48.8734 87.7136C49.585 88.6628 50.1223 89.3496 50.13 89.3589C50.1663 89.4049 50.2125 89.4422 50.2652 89.4678C50.3179 89.4934 50.3757 89.5067 50.4343 89.5067C50.7227 89.4957 51.0051 89.4216 51.2617 89.2895C51.5183 89.1575 51.7428 88.9708 51.9193 88.7426C51.9433 88.7069 51.9875 88.6218 52.0401 88.518C52.0587 88.5074 52.0766 88.4955 52.0935 88.4824C52.1319 88.4428 52.1614 88.3954 52.1799 88.3434C52.1985 88.2915 52.2057 88.2362 52.2012 88.1812C52.2786 88.0202 52.3653 87.8258 52.4598 87.6145C53.4183 88.0219 54.269 88.6468 54.9445 89.4396C55.62 90.2324 56.1018 91.1715 56.3519 92.1826C56.3654 92.2316 56.3883 92.2775 56.4195 92.3177C56.4507 92.3579 56.4894 92.3916 56.5336 92.4168C56.5778 92.442 56.6265 92.4582 56.677 92.4646C56.7274 92.471 56.7787 92.4674 56.8277 92.4539C56.8768 92.4405 56.9227 92.4176 56.9629 92.3864C57.0031 92.3552 57.0367 92.3164 57.0619 92.2722C57.0871 92.2281 57.1034 92.1794 57.1098 92.1289C57.1161 92.0784 57.1125 92.0272 57.0991 91.9782C56.8182 90.8554 56.2812 89.8128 55.53 88.9323C54.7789 88.0518 53.834 87.3572 52.7695 86.9029C53.5244 85.15 54.4806 82.7096 54.3954 82.1668C54.2028 81.5401 53.9046 80.951 53.5135 80.4248C53.5772 80.3759 53.624 80.3083 53.6471 80.2314C53.6702 80.1545 53.6685 80.0723 53.6423 79.9964C53.6161 79.9205 53.5667 79.8548 53.501 79.8085C53.4354 79.7623 53.3569 79.7379 53.2766 79.7388C52.5849 79.7697 51.8989 79.6006 51.3007 79.2518C51.0731 79.0195 51.1939 78.7346 51.4424 78.5232C52.2003 78.0295 53.0939 77.7858 53.9974 77.8264C54.3528 77.9038 55.4468 79.6188 56.4928 82.516C57.2292 84.5554 56.8196 85.1113 57.5598 87.4178C58.7575 91.1443 73.0177 95.34 76.7612 96.4386C77.0933 96.6182 82.5859 99.6843 82.2715 104.691C81.9812 109.301 81.1876 110.247 80.6061 110.939C80.5891 110.974 80.5682 111.003 80.5434 111.033ZM83.2936 110.854C83.2342 110.899 83.189 110.959 83.1635 111.029C82.5433 111.317 81.8677 111.467 81.1837 111.468C82.6548 109.863 82.9142 106.941 83.0535 104.743C83.3632 99.788 78.7394 96.6988 77.4301 95.9261C78.0302 94.9195 79.252 94.4488 79.9852 94.0973C80.8082 94.4426 85.0952 96.5385 85.0952 102.679C85.0952 109.4 83.3052 110.846 83.2936 110.854ZM84.7375 109.996C85.2679 108.796 85.813 106.7 85.8602 103.164C86.1467 102.686 87.5163 100.397 89.1484 97.5628C89.6735 99.56 89.7528 101.648 89.3807 103.679C88.4803 105.056 85.9485 108.874 84.7375 109.996ZM89.8592 105.559C91.1631 106.896 92.7036 107.979 94.4025 108.753C93.4874 111.743 92.5443 114.739 91.7252 117.319C90.0688 115.555 88.7368 113.512 87.7904 111.284C88.464 109.358 89.2119 107.301 89.8592 105.559ZM87.425 112.34C88.3848 114.517 89.7554 116.489 91.4619 118.147C90.2525 121.941 89.3652 124.651 89.3389 124.728C89.3112 124.824 89.3218 124.928 89.3685 125.016C89.4153 125.105 89.4945 125.172 89.5896 125.203C89.6847 125.234 89.7883 125.228 89.8785 125.184C89.9688 125.141 90.0387 125.064 90.0737 124.971C90.1767 124.657 90.9966 122.154 92.1061 118.683C93.3527 119.707 94.9307 120.241 96.5433 120.184C96.3211 123.753 95.8906 128.097 95.7644 129.343C93.9118 129.184 92.1873 128.331 90.9354 126.957C88.0591 124.152 85.8695 119.018 85.8695 117.672C86.2328 115.853 86.7532 114.069 87.425 112.34ZM97.0404 123.954C97.148 122.668 97.2502 121.322 97.3261 120.07C97.5847 115.824 99.7634 107.081 101.538 102.101C103.02 97.9407 104.77 84.1334 105.581 78.7075C106.451 79.697 108.304 81.5428 110.037 81.5583C110.646 85.7888 111.342 94.3063 115.02 103.267C114.741 111.987 114.986 120.717 115.754 129.408C110.061 130.832 104.413 129.575 97.0404 123.948V123.954ZM116.872 133.228C116.686 131.321 116.219 126.198 115.91 120.165C117.766 119.218 119.562 118.162 121.291 117.001C121.698 119.961 122.458 123.99 123.778 126.61C121.295 128.976 118.513 131.637 116.872 133.225V133.228ZM115.866 119.314C115.642 114.629 115.524 109.472 115.711 104.877C117.059 107.965 118.8 110.865 120.89 113.508C120.962 113.598 120.825 113.332 121.173 116.132C119.472 117.3 117.7 118.361 115.869 119.311L115.866 119.314ZM124.361 126.05C123.106 123.417 122.386 119.353 122.008 116.489C122.334 116.249 122.646 116.006 122.937 115.762C124.704 117.399 126.45 118.131 128.174 116.451C128.193 118.262 128.397 120.066 128.782 121.836L124.361 126.05ZM128.247 115.22C127.595 115.999 126.953 116.662 126.108 116.633C122.513 116.589 117.262 106.464 115.756 103.024C111.531 93.3718 111.23 83.1261 110.667 80.6687C110.125 78.301 109.219 74.3399 109.405 72.4066C109.681 70.2405 110.088 68.0929 110.622 65.9757C110.837 66.127 111.087 66.2214 111.348 66.25C111.609 66.2786 111.873 66.2404 112.116 66.1391L112.285 70.2991C112.289 70.3971 112.329 70.49 112.399 70.5589C112.469 70.6279 112.562 70.6679 112.66 70.6708C112.757 70.6713 112.851 70.6364 112.924 70.5725C112.997 70.5086 113.044 70.4202 113.057 70.3239C113.449 66.5672 113.95 62.5039 114.336 60.1541C114.58 60.3817 114.897 60.5171 115.23 60.5373C115.564 60.5575 115.894 60.4612 116.164 60.2648C116.164 63.1543 116.164 67.487 116.149 69.0417C116.148 69.0926 116.158 69.1431 116.176 69.1903C116.195 69.2375 116.223 69.2806 116.258 69.3171C116.294 69.3535 116.336 69.3826 116.383 69.4027C116.43 69.4229 116.48 69.4336 116.531 69.4343C116.581 69.435 116.632 69.4257 116.679 69.4069C116.726 69.3881 116.77 69.3602 116.806 69.3247C116.842 69.2893 116.872 69.247 116.892 69.2003C116.912 69.1536 116.922 69.1034 116.923 69.0526C116.947 67.1665 116.94 61.2117 116.936 58.673C117.19 58.8434 117.493 58.9256 117.798 58.907C118.103 58.8884 118.394 58.77 118.625 58.57C118.835 61.7753 118.879 64.9894 118.757 68.1993C118.752 68.2502 118.758 68.3013 118.774 68.3499C118.79 68.3985 118.815 68.4435 118.848 68.4824C118.881 68.5213 118.921 68.5533 118.966 68.5766C119.012 68.5999 119.061 68.614 119.112 68.6182C119.163 68.6224 119.214 68.6165 119.263 68.6009C119.311 68.5853 119.356 68.5603 119.395 68.5273C119.434 68.4943 119.466 68.4539 119.489 68.4086C119.513 68.3632 119.527 68.3137 119.531 68.2628C119.659 65.0461 119.618 61.8249 119.408 58.6126C119.559 58.678 119.722 58.7103 119.887 58.7073C120.051 58.7044 120.213 58.6663 120.362 58.5955C120.672 61.7731 120.821 64.9642 120.811 68.1568C120.811 69.9701 118.27 80.1189 118.245 80.2211C118.222 80.312 118.233 80.408 118.276 80.4914C126.299 96.3364 124.896 93.3439 127.962 97.9422C128.045 98.1242 131.554 103.035 131.782 105.799C132.078 109.407 129.3 113.965 128.25 115.217L128.247 115.22ZM125.435 92.6819C124.577 91.0924 122.962 87.959 121.557 85.222L127.335 87.1391C126.652 88.9245 125.922 90.9585 125.438 92.6788L125.435 92.6819ZM128.123 87.2482C130.329 86.9991 132.562 87.3093 134.617 88.1503C132.931 92.6765 131.399 97.2601 131.201 99.4381C130.404 98.7025 129.531 98.0536 128.597 97.5024C128.065 96.7057 126.217 94.0315 125.979 93.6467C126.574 91.4752 127.29 89.339 128.126 87.2482H128.123ZM133.828 111.497C132.629 112.965 131.119 114.149 129.407 114.964C130.859 112.874 132.806 108.871 132.55 105.736C132.404 103.948 131.109 101.477 129.685 99.1826C131.343 100.468 133.806 102.904 134.408 106.383C134.41 106.392 134.413 106.4 134.417 106.408C134.482 107.705 134.479 110.67 133.831 111.494L133.828 111.497ZM134.835 104.923C134.247 103.134 133.255 101.504 131.937 100.16C132.081 99.6339 131.227 99.4536 135.321 88.4801C136.856 89.2472 138.199 90.3512 139.248 91.7095C134.726 101.587 138.011 95.6706 134.839 104.92L134.835 104.923ZM139.603 90.929C138.509 89.5958 137.142 88.511 135.596 87.7469C137.723 82.1026 140.001 76.7122 140.044 76.6093C140.081 76.5154 140.08 76.4108 140.041 76.3178C140.002 76.2248 139.928 76.1506 139.835 76.1112C139.742 76.0717 139.638 76.07 139.544 76.1065C139.45 76.143 139.373 76.2148 139.332 76.3065C139.155 76.7223 136.956 81.9291 134.886 87.4294C132.842 86.6024 130.634 86.2628 128.437 86.4376C129.211 84.4811 129.842 83.0123 129.856 82.9806C129.897 82.8863 129.899 82.7796 129.862 82.6839C129.824 82.5882 129.75 82.5114 129.656 82.4703C129.561 82.4293 129.455 82.4273 129.359 82.4649C129.263 82.5025 129.187 82.5766 129.146 82.6709C129.131 82.7042 128.437 84.3115 127.614 86.4144C120.653 84.1056 121.183 84.2689 121.066 84.2643C119.331 80.8669 119.575 81.4352 119.606 81.1975C119.634 80.9846 119.674 80.7445 119.724 80.4821C122.356 76.8764 127.156 77.142 127.208 77.1458C127.307 77.1536 127.405 77.1223 127.482 77.0585C127.559 76.9947 127.608 76.9036 127.618 76.8044C127.842 74.8819 127.449 70.5593 127.276 68.8358C129.525 70.0157 133.083 71.8476 135.446 72.7945C138.171 73.8854 142.288 75.5323 142.735 80.2939C143.005 83.0619 141.278 87.2335 139.608 90.9259L139.603 90.929Z" fill="black"/>
<path d="M25.5831 18.2624C26.7723 17.6168 28.0889 17.2406 29.4397 17.1607C27.8765 16.3632 25.4043 15.3915 23.6452 16.0721C23.5978 16.0904 23.5472 16.0993 23.4963 16.0981C23.4455 16.0969 23.3954 16.0857 23.3489 16.0651C23.3024 16.0446 23.2603 16.015 23.2252 15.9782C23.1901 15.9414 23.1626 15.8981 23.1443 15.8507C23.1259 15.8032 23.1171 15.7526 23.1183 15.7018C23.1195 15.651 23.1307 15.6008 23.1512 15.5543C23.1718 15.5078 23.2013 15.4658 23.2381 15.4307C23.2749 15.3956 23.3183 15.3681 23.3657 15.3497C26.4929 14.1442 31.164 17.2358 31.3614 17.369C31.4349 17.4199 31.4885 17.4947 31.5131 17.5808C31.5377 17.6668 31.5318 17.7586 31.4963 17.8408C31.4608 17.9229 31.3979 17.9902 31.3184 18.0312C31.2389 18.0722 31.1477 18.0844 31.0602 18.0658C29.3151 17.7826 27.5254 18.0868 25.9718 18.9306C25.8837 18.9754 25.7817 18.9848 25.6869 18.9568C25.5921 18.9288 25.5116 18.8656 25.4619 18.7801C25.4122 18.6947 25.397 18.5934 25.4196 18.4972C25.4421 18.4009 25.5007 18.3169 25.5831 18.2624Z" fill="white"/>
<path d="M35.2149 15.3466C35.4038 12.7614 37.2279 9.53043 37.3053 9.39416C37.3576 9.308 37.4414 9.24561 37.5389 9.22026C37.6365 9.19491 37.74 9.20859 37.8276 9.25839C37.9152 9.30819 37.98 9.39019 38.0081 9.48696C38.0362 9.58374 38.0255 9.68766 37.9782 9.77664C37.3027 11.0076 36.7517 12.3029 36.3336 13.6433C37.0666 12.6463 37.9636 11.781 38.9862 11.0843C39.0295 11.0559 39.078 11.0363 39.1289 11.0269C39.1798 11.0175 39.2321 11.0184 39.2826 11.0295C39.3332 11.0406 39.381 11.0618 39.4232 11.0918C39.4655 11.1217 39.5013 11.1598 39.5285 11.2038C39.5557 11.2479 39.5739 11.2969 39.5818 11.3481C39.5898 11.3992 39.5874 11.4515 39.5748 11.5017C39.5622 11.5519 39.5397 11.5991 39.5085 11.6404C39.4774 11.6818 39.4383 11.7165 39.3935 11.7425C37.5554 12.8806 35.9527 15.5464 35.9365 15.5727C35.8926 15.6493 35.8239 15.7085 35.7418 15.7407C35.6596 15.7729 35.569 15.7761 35.4848 15.7497C35.4006 15.7234 35.3279 15.669 35.2788 15.5957C35.2297 15.5224 35.2072 15.4345 35.2149 15.3466Z" fill="white"/>
<path d="M106.141 150.938C106.087 150.938 106.034 150.927 105.985 150.906C105.936 150.884 105.891 150.853 105.855 150.814C105.819 150.774 105.791 150.727 105.773 150.677C105.756 150.626 105.749 150.572 105.754 150.519L107.014 135.607C107.023 135.505 107.072 135.41 107.151 135.343C107.229 135.277 107.331 135.244 107.434 135.253C107.537 135.261 107.632 135.31 107.698 135.389C107.765 135.468 107.797 135.57 107.789 135.672L106.526 150.582C106.518 150.679 106.474 150.769 106.403 150.835C106.332 150.901 106.238 150.938 106.141 150.938Z" fill="white"/>
</svg>
