<svg width="154" height="155" viewBox="0 0 154 155" fill="none" xmlns="http://www.w3.org/2000/svg">
<path d="M148.435 105.924H5.61218C5.34219 105.914 5.08062 105.827 4.85843 105.673C4.63623 105.52 4.46269 105.306 4.35833 105.056C4.25397 104.807 4.22316 104.533 4.26953 104.267C4.3159 104.001 4.43752 103.754 4.62001 103.555L12.1633 96.0189C13.2093 94.97 14.6276 94.3771 16.109 94.3696H138.745C139.398 94.3702 140.043 94.5074 140.64 94.7724C141.237 95.0374 141.771 95.4244 142.209 95.9085L149.366 103.847C149.519 104.029 149.617 104.25 149.65 104.485C149.683 104.72 149.649 104.96 149.552 105.177C149.455 105.394 149.298 105.579 149.101 105.711C148.903 105.843 148.673 105.917 148.435 105.924Z" fill="white"/>
<path d="M16.1381 101.304C15.9941 101.302 15.8537 101.259 15.7338 101.179C15.6139 101.099 15.5196 100.987 15.4622 100.855C15.4049 100.723 15.3869 100.577 15.4105 100.435C15.4341 100.293 15.4982 100.161 15.5952 100.054L18.745 96.4504C18.9948 96.1627 19.3032 95.9317 19.6495 95.773C19.9959 95.6144 20.3722 95.5316 20.7531 95.5303H134.635C135.015 95.5315 135.39 95.6143 135.736 95.773C136.081 95.9317 136.389 96.1627 136.637 96.4504L139.792 100.063C139.885 100.168 139.947 100.298 139.97 100.437C139.993 100.576 139.976 100.719 139.921 100.849C139.866 100.979 139.776 101.091 139.66 101.172C139.544 101.253 139.408 101.299 139.267 101.305L16.1381 101.304ZM134.632 96.2932H20.7547C20.4831 96.2943 20.2149 96.3535 19.9682 96.4668C19.7214 96.5802 19.5017 96.745 19.3239 96.9503L16.1665 100.554H139.216L136.058 96.9503C135.881 96.745 135.662 96.5802 135.416 96.4668C135.17 96.3534 134.903 96.2942 134.632 96.2932Z" fill="#4B1010"/>
<path d="M149.651 103.591L142.494 95.657C141.776 94.8639 140.825 94.3187 139.778 94.0997C140.354 93.7202 140.827 93.2035 141.155 92.5961C141.482 91.9887 141.654 91.3095 141.654 90.6194V16.8352C141.653 15.7293 141.213 14.6691 140.431 13.8871C139.649 13.1051 138.589 12.6653 137.483 12.6641H17.1877C16.0819 12.6653 15.0216 13.1051 14.2397 13.8871C13.4577 14.6691 13.0178 15.7293 13.0166 16.8352V90.6141C13.017 91.3089 13.1909 91.9927 13.5226 92.6033C13.8542 93.2139 14.3332 93.7319 14.9159 94.1104C13.7682 94.3466 12.7158 94.916 11.8903 95.7475L4.33548 103.295C3.87309 103.915 3.6528 104.683 3.71595 105.454C3.60017 106.874 3.44299 108.82 4.30251 109.752C4.4663 109.928 4.66588 110.066 4.88774 110.157C5.10959 110.249 5.34852 110.292 5.58835 110.283H148.418C149.026 110.283 149.947 109.958 149.974 109.457V105.095C150.046 104.837 150.055 104.565 149.998 104.303C149.942 104.041 149.823 103.797 149.651 103.591ZM148.43 105.54H5.62439C5.42919 105.533 5.24001 105.471 5.07887 105.361C4.91772 105.25 4.79122 105.096 4.71411 104.917C4.63699 104.737 4.61242 104.54 4.64326 104.347C4.6741 104.154 4.75908 103.974 4.88831 103.827L12.4331 96.2911C12.9144 95.8063 13.4866 95.4213 14.117 95.1581C14.7474 94.895 15.4235 94.7589 16.1066 94.7576H138.745C139.344 94.758 139.937 94.8838 140.484 95.1269C141.032 95.37 141.523 95.725 141.925 96.1692L149.075 104.091C149.182 104.218 149.251 104.372 149.275 104.536C149.298 104.7 149.275 104.867 149.207 105.018C149.14 105.17 149.031 105.299 148.894 105.391C148.756 105.484 148.595 105.535 148.43 105.54Z" fill="#4B1010"/>
<path d="M24.0364 17.2185H131.115C132.018 17.2185 132.884 17.5772 133.522 18.2156C134.161 18.8541 134.52 19.72 134.52 20.6229V86.2259C134.52 87.1288 134.161 87.9947 133.522 88.6332C132.884 89.2716 132.018 89.6303 131.115 89.6303H24.0364C23.1337 89.6303 22.268 89.2717 21.6297 88.6334C20.9914 87.9951 20.6328 87.1294 20.6328 86.2267V20.6236C20.6326 20.1765 20.7205 19.7338 20.8915 19.3207C21.0624 18.9075 21.3131 18.5322 21.6292 18.2159C21.9452 17.8997 22.3205 17.6489 22.7336 17.4777C23.1466 17.3066 23.5893 17.2185 24.0364 17.2185Z" fill="white"/>
<path d="M75.6657 23.8784H32.3375C32.2358 23.8784 32.1383 23.9188 32.0664 23.9907C31.9945 24.0626 31.9541 24.1601 31.9541 24.2618V63.9526C31.9541 64.0542 31.9945 64.1517 32.0664 64.2236C32.1383 64.2955 32.2358 64.3359 32.3375 64.3359H75.6657C75.7674 64.3359 75.8649 64.2955 75.9368 64.2236C76.0087 64.1517 76.0491 64.0542 76.0491 63.9526V24.2618C76.0491 24.1601 76.0087 24.0626 75.9368 23.9907C75.8649 23.9188 75.7674 23.8784 75.6657 23.8784ZM75.2823 62.6169L54.5801 43.8745L75.2823 25.1328V62.6169ZM32.7209 25.1259L53.4346 43.8745L32.7209 62.623V25.1259ZM33.3342 24.6452H74.6789L54.0058 43.3577L33.3342 24.6452ZM54.0058 44.392L75.1926 63.5692H32.819L54.0058 44.392Z" fill="#4B1010"/>
<path d="M95.9062 118.943C96.6429 119.709 97.4789 120.372 98.392 120.916C99.4771 121.644 100.466 122.506 101.336 123.481C101.97 124.205 102.693 126.377 104.01 125.375C104.331 125.081 104.531 124.679 104.57 124.246C104.773 123.161 104.747 122.046 104.494 120.971C104.231 119.852 103.64 119.119 104.131 117.988C104.351 117.479 104.457 116.929 104.444 116.375C104.431 115.82 104.298 115.275 104.054 114.777C102.034 115.258 99.904 114.854 97.8208 115.022C95.7375 115.19 94.431 117.065 95.9062 118.943Z" fill="#FFB43B"/>
<path d="M119.672 56.4874C116.393 56.138 113.079 56.3218 109.858 57.0318C106.607 57.7545 103.73 59.6369 101.767 62.3269C100.164 64.9686 99.3599 68.0172 99.4502 71.1054L108.967 79.828C107.919 76.3189 107.79 72.5993 108.592 69.026C108.792 68.0316 109.146 67.0745 109.641 66.189C111.384 63.4379 115.654 60.8663 120.46 60.7206C119.954 59.3658 119.687 57.9334 119.672 56.4874Z" fill="white"/>
<path d="M108.539 78.5232C108.451 78.523 108.365 78.4924 108.297 78.4366C108.229 78.3807 108.182 78.3029 108.164 78.2165C107.512 75.1563 107.531 71.9908 108.221 68.9388C108.592 66.8124 109.76 64.9076 111.487 63.613C113.907 61.6972 116.851 60.5614 119.931 60.3558C119.556 59.2157 119.343 58.0283 119.299 56.8288C116.169 56.53 113.011 56.723 109.94 57.4008C106.781 58.1034 103.987 59.9327 102.079 62.5464C100.662 64.8964 99.8868 67.578 99.8327 70.322C99.8317 70.3724 99.8208 70.422 99.8006 70.4682C99.7804 70.5143 99.7514 70.556 99.7151 70.5909C99.6787 70.6258 99.6359 70.6532 99.589 70.6715C99.5421 70.6899 99.492 70.6988 99.4417 70.6977C99.3913 70.6967 99.3417 70.6858 99.2956 70.6657C99.2494 70.6455 99.2077 70.6164 99.1728 70.5801C99.1379 70.5437 99.1105 70.5009 99.0922 70.454C99.0739 70.4071 99.065 70.3571 99.066 70.3067C99.1249 67.4171 99.9447 64.594 101.443 62.1224C103.461 59.3439 106.424 57.3984 109.776 56.6517C113.038 55.932 116.395 55.7459 119.716 56.1004C119.81 56.1103 119.896 56.1543 119.959 56.2238C120.022 56.2933 120.058 56.3837 120.059 56.4776C120.074 57.8781 120.334 59.2652 120.826 60.5767C120.847 60.6337 120.854 60.6951 120.847 60.7556C120.84 60.8161 120.819 60.8741 120.785 60.9247C120.751 60.9752 120.705 61.017 120.652 61.0465C120.599 61.076 120.539 61.0924 120.478 61.0942C115.839 61.2345 111.654 63.7288 109.974 66.3848C109.503 67.2312 109.167 68.1456 108.977 69.0952C108.31 72.0425 108.291 75.0994 108.921 78.0547C108.934 78.1115 108.934 78.1705 108.921 78.2273C108.907 78.284 108.881 78.3369 108.844 78.3821C108.808 78.4273 108.761 78.4634 108.708 78.4879C108.655 78.5123 108.597 78.5244 108.539 78.5232Z" fill="#4B1010"/>
<path d="M26.1284 129.099L45.8239 121.674H91.4248L82.3342 129.099H26.1284Z" fill="#FFE55D"/>
<path d="M91.4246 121.29H45.8238C45.6443 121.29 45.501 121.277 45.3752 121.434L25.9926 128.74C25.9085 128.772 25.8382 128.832 25.7939 128.91C25.7496 128.988 25.7342 129.079 25.7504 129.168C25.7666 129.256 25.8132 129.336 25.8823 129.394C25.9514 129.451 26.0384 129.482 26.1283 129.482C86.5029 129.482 82.4138 129.529 82.5771 129.396L91.6669 121.97C91.7281 121.92 91.7723 121.853 91.7935 121.776C91.8147 121.7 91.8118 121.619 91.7853 121.545C91.7588 121.471 91.7099 121.406 91.6453 121.361C91.5807 121.315 91.5037 121.29 91.4246 121.29ZM29.0879 128.394L45.8031 122.092L59.5386 124.932L29.0879 128.394ZM61.9477 125.43L77.8325 128.715H33.0451L61.9477 125.43ZM82.2006 128.715C81.3702 128.715 83.5355 129.112 64.3914 125.152L76.9246 123.728C77.0257 123.716 77.1181 123.665 77.1814 123.586C77.2447 123.506 77.2739 123.404 77.2624 123.303C77.2509 123.202 77.1997 123.11 77.1201 123.047C77.0405 122.983 76.9391 122.954 76.838 122.966L61.9799 124.652L49.4198 122.055H90.3481L82.2006 128.715Z" fill="#4B1010"/>
<path d="M100.893 67.7244C100.933 67.9452 100.933 70.0914 101.035 70.1466C99.4567 69.5393 97.5951 69.9418 96.0516 70.5338C96.1327 70.2103 96.1828 69.8799 96.2011 69.547C94.8048 69.6124 93.4232 69.2379 92.2511 68.4764C91.0789 67.7149 90.1753 66.6046 89.6677 65.3022C88.6624 62.6761 89.4813 59.7326 90.3071 57.0482C90.4451 56.5973 90.6437 56.0767 91.0961 55.9594C91.3085 55.9061 91.5308 55.9061 91.7432 55.9594C96.8636 56.6556 100.558 65.8988 100.893 67.7244Z" fill="white"/>
<path d="M110.661 98.8006C110.599 94.0978 110.417 89.4002 110.117 84.7077C110.081 83.5201 109.946 82.3375 109.714 81.1722C109.021 78.0978 107.256 75.3701 104.737 73.4764C104.56 72.8534 104.257 72.2733 103.847 71.7722C103.437 71.271 102.928 70.8593 102.352 70.5627C99.5474 69.3796 95.0481 70.1625 91.5065 73.2502C87.1592 71.7624 83.2244 69.2695 80.0223 65.9742C76.8201 62.6789 74.441 58.6744 73.0784 54.2862C72.5129 54.1909 71.9334 54.2214 71.381 54.3755C70.8287 54.5297 70.3171 54.8036 69.8826 55.1779C69.5115 55.3121 69.6457 55.4225 69.6066 55.8166C69.3297 58.3945 69.3667 60.9964 69.717 63.5654C69.7416 64.1945 69.802 64.8217 69.8979 65.4439C71.7588 72.7334 75.9254 77.169 82.35 79.6234C83.7155 80.161 85.1219 80.5887 86.5556 80.9023C85.4135 83.6774 84.7648 86.6305 84.6387 89.6287C84.376 89.4638 84.0923 89.3349 83.7953 89.2453C81.9551 88.543 79.6441 88.7638 78.3268 90.2314C77.8077 90.9107 77.4642 91.7075 77.3266 92.5513C77.1889 93.3951 77.2615 94.2598 77.5378 95.0688C78.0984 96.6851 78.928 98.1951 79.9914 99.5351C79.9914 100.175 81.5579 101.736 81.9244 102.281C82.5447 103.201 83.1957 104.104 83.8505 105.011C79.2025 107.654 74.4961 110.546 71.5173 114.985C70.9454 115.814 70.585 116.77 70.4676 117.771C70.4741 118.526 70.6663 119.268 71.0274 119.931C71.3884 120.594 71.9072 121.158 72.5379 121.574C73.817 122.382 75.2554 122.905 76.755 123.107C81.1025 123.743 85.5297 123.446 89.917 123.044L100.073 122.124C99.2184 121.097 97.7547 120.506 96.7556 119.654C95.0749 118.219 95.2842 115.868 95.456 115.866C95.5626 115.866 104.274 117.834 108.883 111.891C110.134 110.369 109.849 104.968 108.913 102.026L108.942 102.01C109.571 101.778 110.093 101.323 110.41 100.731C110.727 100.14 110.816 99.4533 110.661 98.8006Z" fill="white"/>
<path d="M128.129 56.8927L127.349 58.7037L118.745 54.9912C118.697 54.9702 118.644 54.9591 118.592 54.9583C118.539 54.9575 118.486 54.9672 118.437 54.9867C118.388 55.0062 118.344 55.0352 118.306 55.072C118.268 55.1088 118.238 55.1527 118.217 55.2012L117.694 56.4112C117.652 56.5092 117.65 56.6199 117.69 56.7191C117.729 56.8182 117.806 56.8978 117.904 56.9402L126.509 60.6528L125.79 62.3197L129.058 63.729L131.397 58.302L128.129 56.8927Z" fill="#FFB43B"/>
<path d="M131.549 57.9489L128.282 56.5404C128.235 56.5204 128.186 56.5096 128.135 56.5088C128.085 56.5081 128.035 56.5172 127.988 56.5358C127.941 56.5544 127.898 56.5821 127.862 56.6172C127.826 56.6523 127.797 56.6942 127.777 56.7405L127.148 58.1973L118.897 54.6358C118.705 54.5537 118.489 54.5508 118.295 54.6276C118.102 54.7045 117.947 54.8549 117.864 55.046L117.342 56.2559C117.259 56.4473 117.257 56.6635 117.333 56.857C117.41 57.0506 117.561 57.2058 117.752 57.2887L126.005 60.8495L125.438 62.1653C125.397 62.2586 125.396 62.3641 125.433 62.4586C125.471 62.553 125.545 62.6287 125.638 62.669L128.906 64.0775C128.999 64.1178 129.105 64.1193 129.199 64.0818C129.293 64.0443 129.369 63.9707 129.409 63.8774L131.75 58.4496C131.789 58.3566 131.79 58.2519 131.752 58.1581C131.715 58.0644 131.642 57.9892 131.549 57.9489ZM118.568 55.3527C118.568 55.3458 118.589 55.342 118.589 55.342L126.833 58.9196L126.287 60.1395L118.045 56.5626L118.568 55.3527ZM128.857 63.2234L126.293 62.1177L128.33 57.3946L130.894 58.5002L128.857 63.2234Z" fill="#4B1010"/>
<path d="M109.759 102.006C110.273 101.653 110.669 101.155 110.898 100.575C111.127 99.9957 111.178 99.361 111.045 98.7523C110.982 94.0751 110.798 89.3443 110.5 84.6886C110.449 83.4791 110.312 82.2748 110.089 81.0849C109.409 77.9639 107.631 75.1908 105.078 73.2709C104.877 72.6128 104.545 72.0019 104.102 71.475C103.66 70.948 103.115 70.5157 102.501 70.2039C102.137 70.0495 101.761 69.9252 101.376 69.8321C101.414 69.0884 101.409 68.3431 101.359 67.6C101.356 67.5497 101.342 67.5005 101.32 67.4553C101.298 67.4101 101.267 67.3697 101.229 67.3365C101.191 67.3033 101.146 67.2779 101.099 67.2617C101.051 67.2456 101 67.239 100.95 67.2424C100.9 67.2457 100.85 67.259 100.805 67.2814C100.76 67.3037 100.72 67.3348 100.686 67.3728C100.653 67.4108 100.628 67.4549 100.612 67.5028C100.595 67.5506 100.589 67.6011 100.592 67.6514C100.639 68.3295 100.647 69.0097 100.617 69.6887C99.7871 69.5784 98.9448 69.6095 98.1256 69.7807C97.6778 69.842 96.9272 69.9647 96.4579 70.0743L96.5499 68.9633C96.5541 68.913 96.5483 68.8623 96.5329 68.8142C96.5175 68.7661 96.4928 68.7215 96.4601 68.6829C96.4275 68.6444 96.3876 68.6126 96.3427 68.5895C96.2978 68.5664 96.2487 68.5523 96.1984 68.5481C96.148 68.544 96.0974 68.5497 96.0492 68.5651C96.0011 68.5805 95.9565 68.6053 95.918 68.6379C95.8794 68.6706 95.8477 68.7105 95.8245 68.7554C95.8014 68.8003 95.7874 68.8493 95.7832 68.8997L95.7563 69.2171C91.8804 69.1803 89.4314 65.5651 89.5457 61.923C89.6166 60.0435 90.1409 58.2089 91.0738 56.5757C91.1247 56.4875 91.1383 56.3826 91.1119 56.2843C91.0854 56.1859 91.021 56.1021 90.9327 56.0513C90.8445 56.0004 90.7396 55.9867 90.6413 56.0132C90.5429 56.0397 90.4591 56.1041 90.4083 56.1924C89.4138 57.9338 88.855 59.8899 88.7797 61.8939C88.6493 65.9446 91.3866 69.9026 95.6896 69.9808L95.6643 70.2875C94.085 70.8283 92.6307 71.6815 91.3882 72.7963C87.1603 71.2928 83.339 68.8285 80.2252 65.5973C77.1114 62.3662 74.7901 58.4564 73.444 54.1758C73.4312 54.135 73.4118 54.0967 73.3864 54.0623C73.5766 53.6273 73.7223 53.1741 73.8212 52.7098C74.108 51.4316 73.0966 50.9555 72.5177 51.4063C72.4309 51.0814 72.3157 50.7648 72.1734 50.4601C72.0242 50.1223 71.7708 49.841 71.4504 49.6574C71.325 49.5776 71.1809 49.5321 71.0325 49.5255C70.8841 49.5189 70.7365 49.5514 70.6045 49.6197C70.4726 49.688 70.3609 49.7897 70.2805 49.9147C70.2002 50.0398 70.1542 50.1837 70.1469 50.3321C70.0493 50.2463 69.934 50.1829 69.8092 50.1464C69.6845 50.1099 69.5532 50.1011 69.4247 50.1206C69.2962 50.1402 69.1735 50.1877 69.0653 50.2597C68.9571 50.3317 68.8659 50.4266 68.7982 50.5376C68.7056 50.693 68.6455 50.8657 68.6217 51.0451C68.5978 51.2245 68.6107 51.4069 68.6594 51.5811C68.5265 51.5878 68.3968 51.6239 68.2794 51.6867C68.1621 51.7495 68.0601 51.8375 67.9808 51.9443C67.9015 52.0512 67.8469 52.1743 67.8207 52.3048C67.7946 52.4352 67.7977 52.5699 67.8298 52.699C67.9832 53.6598 68.8795 54.1129 69.4484 54.9824C69.1601 55.2194 69.2491 55.5322 69.2238 55.7791C68.9445 58.3745 68.9813 60.9942 69.3334 63.5807C69.3593 64.2365 69.4239 64.8901 69.5266 65.5383C71.4236 72.9757 75.702 77.4942 82.2056 79.9792C83.4536 80.4692 84.7347 80.8702 86.0393 81.1792C85.0607 83.7499 84.4733 86.4528 84.2965 89.1978C83.0444 88.1957 81.1705 88.4111 79.8494 88.8865C78.8064 89.245 77.9023 89.9219 77.2647 90.8218C76.9217 91.4648 76.7133 92.171 76.6521 92.8972C76.5909 93.6234 76.6783 94.3545 76.9089 95.0458C77.806 98.4195 80.255 101.158 83.2767 104.945C80.8976 106.173 78.6263 107.599 76.4872 109.208C74.1471 110.987 71.6153 113.154 70.3662 116.012C70.0132 116.789 69.8616 117.642 69.9254 118.493C69.9892 119.344 70.2663 120.165 70.7312 120.881C71.3057 121.591 72.0469 122.148 72.8888 122.502C74.6183 123.185 76.4485 123.578 78.3059 123.665C86.5646 124.142 90.0257 123.597 100.109 122.756C100.667 123.201 101.135 123.747 101.489 124.366C101.743 124.837 102.066 125.267 102.448 125.642C103.643 126.672 104.87 125.457 104.971 124.315C105.296 122.51 105.035 120.649 104.224 119.004L104.246 118.968C104.769 117.985 104.883 116.834 104.561 115.768C106.276 115.094 107.777 113.969 108.906 112.512C111.053 109.9 110.045 105.462 109.519 103.327C109.656 102.899 109.737 102.455 109.759 102.006ZM97.5766 70.6463C99.0987 70.2459 100.708 70.3344 102.177 70.8994C103.075 71.3615 103.784 72.1223 104.182 73.0509C102.134 72.2841 98.2859 71.9736 96.3966 71.9736C95.3581 71.9733 94.3219 72.0695 93.3012 72.2611C94.5872 71.4087 96.0484 70.8563 97.5766 70.6448V70.6463ZM68.5843 52.5564C68.5718 52.5253 68.5694 52.4911 68.5772 52.4586C68.5851 52.426 68.603 52.3967 68.6283 52.3748C68.6536 52.3529 68.6851 52.3394 68.7185 52.3362C68.7518 52.333 68.7853 52.3403 68.8143 52.3571C68.9696 52.434 69.093 52.5629 69.1632 52.7213C69.2018 52.8083 69.2713 52.8778 69.3583 52.9164C69.4453 52.955 69.5435 52.9598 69.6339 52.93C69.7242 52.9002 69.8003 52.8378 69.8472 52.755C69.8941 52.6722 69.9086 52.5749 69.8878 52.4821C69.7499 52.0984 69.5865 51.7244 69.3986 51.3626C69.2874 51.0061 69.4615 50.5897 69.9169 51.1786C70.1356 51.4691 70.323 51.7818 70.4759 52.1117C70.5153 52.1968 70.5846 52.2645 70.6706 52.302C70.7567 52.3395 70.8534 52.3441 70.9426 52.315C71.0318 52.2859 71.1072 52.2251 71.1546 52.1441C71.202 52.0631 71.218 51.9676 71.1997 51.8756L70.9305 50.5391C70.8102 50.1335 71.2741 50.3229 71.4803 50.7753C71.7716 51.4017 71.9228 52.0841 71.9235 52.775C71.9226 52.8651 71.9534 52.9526 72.0107 53.0223C72.0679 53.0919 72.1478 53.1391 72.2364 53.1557C72.325 53.1722 72.4166 53.1571 72.4951 53.1128C72.5736 53.0686 72.634 52.9981 72.6657 52.9137C72.754 52.6808 72.825 52.4417 72.8781 52.1984C72.9609 51.9315 73.0575 52.0044 73.079 52.0826C73.115 52.2323 73.115 52.3883 73.079 52.538C72.9836 52.987 72.8391 53.4241 72.6481 53.8415C71.7418 53.7837 70.8437 54.0432 70.1078 54.5753C69.5243 53.6866 68.6916 53.2266 68.5843 52.5564ZM86.803 81.3394C88.7857 81.7251 90.8079 81.8682 92.8251 81.7657C92.9267 81.7604 93.0222 81.715 93.0903 81.6394C93.1585 81.5637 93.1938 81.4641 93.1885 81.3624C93.1832 81.2607 93.1378 81.1653 93.0621 81.0972C92.9865 81.029 92.8869 80.9937 92.7852 80.999C86.2939 81.3348 78.3266 78.6711 74.2046 73.5117C72.3327 71.1124 70.9939 68.3416 70.2773 65.3841C70.1816 64.7657 70.1215 64.1424 70.0971 63.5171C69.7465 60.8725 69.7127 58.1955 69.9967 55.5429C70.3772 55.2131 70.8197 54.9624 71.2982 54.8054C71.7768 54.6485 72.2818 54.5885 72.7838 54.629C74.336 59.4345 77.0861 63.7656 80.7751 67.2144C84.4641 70.6631 88.9704 73.1158 93.8694 74.3413C93.9184 74.3537 93.9694 74.3563 94.0194 74.3489C94.0694 74.3415 94.1174 74.3243 94.1607 74.2982C94.2041 74.2722 94.2418 74.2379 94.2718 74.1972C94.3018 74.1565 94.3235 74.1103 94.3356 74.0612C94.3476 74.0122 94.3499 73.9612 94.3422 73.9112C94.3345 73.8613 94.317 73.8133 94.2907 73.7702C94.2644 73.727 94.2298 73.6895 94.189 73.6597C94.1481 73.6299 94.1018 73.6086 94.0526 73.5968C93.565 73.4767 93.0817 73.3435 92.6027 73.1973C94.216 72.8059 95.88 72.6657 97.536 72.7817C99.4339 72.8476 101.321 73.0928 103.173 73.514C104.958 74.0768 105.111 74.1673 106.133 75.23C107.737 76.8999 108.848 78.9813 109.342 81.2436C109.556 82.3956 109.689 83.5615 109.739 84.7323C110.299 93.5123 110.239 98.661 110.292 98.8888C110.422 99.46 110.338 100.059 110.055 100.572C109.772 101.085 109.311 101.477 108.759 101.672C106.927 102.805 104.884 103.555 102.754 103.876C98.4639 104.6 94.0718 104.462 89.8355 103.468C88.254 103.129 86.7344 102.548 85.3301 101.745C85.0776 101.61 84.867 101.408 84.7213 101.161C84.6194 100.872 84.5848 100.564 84.6201 100.259C84.8693 91.5587 84.8049 86.104 86.803 81.3394ZM77.6388 94.8242C77.4397 94.2367 77.3612 93.615 77.4081 92.9964C77.455 92.3779 77.6263 91.7751 77.9118 91.2243C78.4579 90.4716 79.2241 89.9069 80.1047 89.608C81.4082 89.1396 83.2959 88.9479 84.2191 90.2214C84.0749 92.3484 83.9124 98.0998 83.8464 100.266C83.8067 100.678 83.8645 101.093 84.0151 101.479C84.2682 101.934 84.6575 102.299 85.1284 102.522C85.0197 103.027 85.0155 103.548 85.1162 104.055C84.7328 104.232 84.3515 104.415 83.9722 104.603C80.9972 100.862 78.5129 98.1105 77.6388 94.8242ZM101.643 123.223C100.747 122.221 99.7288 121.335 98.6117 120.587C97.7313 120.063 96.9247 119.423 96.2133 118.685C95.937 118.379 95.7579 117.998 95.6986 117.589C95.6394 117.181 95.7027 116.764 95.8806 116.392C95.9572 116.401 97.7024 116.56 97.9462 116.574C97.9447 116.595 97.9447 116.616 97.9462 116.637C98.1241 118.438 99.6116 119.632 100.783 120.81C101.967 122.049 102.811 123.571 103.237 125.23C102.639 125.046 102.087 123.729 101.643 123.223ZM104.212 124.211C104.189 124.465 104.096 124.707 103.944 124.911C103.475 123.171 102.576 121.577 101.331 120.275C100.266 119.201 98.887 118.109 98.7152 116.604C99.5407 116.622 100.366 116.59 101.188 116.509C102.358 117.384 103.261 118.569 103.796 119.93C104.33 121.291 104.474 122.773 104.212 124.211ZM102.219 116.381C102.766 116.306 103.307 116.186 103.835 116.021C104.041 116.73 104.014 117.487 103.758 118.18C103.331 117.512 102.814 116.907 102.221 116.381H102.219ZM108.305 112.033C106.891 113.859 104.86 115.107 102.593 115.543C98.2372 116.243 93.7722 115.634 89.7627 113.795C89.7175 113.771 89.6679 113.756 89.6167 113.751C89.5656 113.746 89.5141 113.752 89.4651 113.767C89.4162 113.783 89.3708 113.808 89.3318 113.841C89.2927 113.874 89.2608 113.915 89.2378 113.961C89.2148 114.007 89.2013 114.057 89.1981 114.108C89.1949 114.16 89.2019 114.211 89.2189 114.259C89.2359 114.308 89.2625 114.352 89.297 114.39C89.3315 114.428 89.3733 114.459 89.4199 114.481C89.8324 114.685 90.2503 114.876 90.6736 115.053C87.6706 114.958 84.6649 115.1 81.6842 115.477C81.6342 115.484 81.5859 115.5 81.5421 115.525C81.4983 115.549 81.4599 115.583 81.4289 115.623C81.3665 115.703 81.3384 115.805 81.351 115.906C81.3637 116.007 81.4159 116.098 81.4962 116.161C81.5765 116.223 81.6783 116.251 81.7793 116.239C85.4883 115.775 89.2311 115.641 92.9638 115.837C93.6633 116.028 94.3733 116.178 95.09 116.288C94.9066 116.779 94.862 117.312 94.961 117.827C95.06 118.342 95.2988 118.821 95.6513 119.209C97.1541 120.771 97.8059 120.839 99.298 122.055C92.7093 122.619 85.7763 123.329 78.345 122.898C76.5732 122.817 74.827 122.443 73.1771 121.792C72.4652 121.493 71.8368 121.025 71.3461 120.429C70.9586 119.822 70.7296 119.128 70.6802 118.409C70.6307 117.691 70.7624 116.971 71.0632 116.317C72.2425 113.62 74.6861 111.534 76.9442 109.818C79.5655 107.845 82.3874 106.153 85.3631 104.771C85.4583 104.958 85.5884 105.124 85.7464 105.261C86.9937 106.166 88.4605 106.719 89.9942 106.864C94.6852 107.861 97.3374 107.916 102.597 106.878C104.429 106.516 107.675 105.875 108.957 104.339C109.583 107.044 109.954 110.029 108.307 112.033H108.305Z" fill="#4B1010"/>
<path d="M77.07 141.069C76.9906 140.851 76.8511 140.66 76.6676 140.519C76.4841 140.377 76.2642 140.29 76.0333 140.268C76.0756 139.858 76.0062 139.444 75.8325 139.07C75.7606 138.913 75.6364 138.786 75.4812 138.711C75.3259 138.636 75.1493 138.617 74.9816 138.657C74.8139 138.698 74.6656 138.796 74.5621 138.934C74.4587 139.072 74.4066 139.242 74.4147 139.414C74.4064 139.714 74.4136 140.014 74.4362 140.313C73.5031 140.549 73.2999 141.18 73.7063 141.837C74.4768 142.906 77.392 142.577 77.07 141.069Z" fill="#4B1010"/>
<path d="M91.0992 135.159C91.0199 134.942 90.8805 134.751 90.6972 134.609C90.5138 134.467 90.2941 134.38 90.0634 134.358C90.1109 133.95 90.0423 133.537 89.8655 133.166C89.7939 133.01 89.6705 132.883 89.5162 132.808C89.362 132.732 89.1864 132.712 89.0192 132.752C88.852 132.791 88.7034 132.886 88.5987 133.023C88.4941 133.159 88.4397 133.327 88.4448 133.499C88.4364 133.801 88.4436 134.103 88.4662 134.404C88.216 134.416 87.9793 134.521 87.8032 134.699C87.6271 134.877 87.5244 135.115 87.5157 135.365C87.507 135.616 87.5929 135.86 87.7562 136.05C87.9196 136.24 88.1484 136.361 88.3972 136.39C89.7107 136.836 91.3438 136.3 91.0992 135.159Z" fill="#4B1010"/>
<path d="M85.1816 132.197C84.9069 132.075 84.6253 131.969 84.3382 131.88C84.4854 130.917 83.9916 130.483 83.244 130.587C82.9708 130.646 82.7268 130.799 82.554 131.019C82.168 131.466 81.9223 132.017 81.8478 132.603C81.7481 133.424 82.2243 133.988 82.7265 133.988C82.9367 133.988 83.1429 133.932 83.3242 133.825C83.5055 133.719 83.6554 133.566 83.7585 133.383C84.1308 133.571 84.545 133.66 84.9616 133.642C85.1323 133.632 85.2944 133.564 85.4207 133.448C85.5471 133.333 85.6301 133.178 85.6558 133.009C85.6816 132.84 85.6485 132.667 85.5622 132.519C85.4759 132.371 85.3416 132.258 85.1816 132.197Z" fill="#4B1010"/>
<path d="M65.5977 116.26H35.936L45.4836 80.1287H70.8208L65.5977 116.26Z" fill="#FFE55D"/>
<path d="M70.8217 79.7456H45.4875C45.403 79.7457 45.3208 79.7737 45.2539 79.8253C45.1869 79.8768 45.1388 79.9491 45.1172 80.0308L35.5658 116.163C35.5509 116.22 35.5492 116.279 35.5608 116.337C35.5725 116.394 35.5971 116.448 35.6329 116.494C35.6687 116.541 35.7146 116.578 35.7672 116.604C35.8197 116.63 35.8775 116.644 35.9361 116.644H65.5978C65.69 116.644 65.779 116.611 65.8487 116.55C65.9184 116.49 65.9641 116.407 65.9774 116.316L71.2005 80.1834C71.2082 80.1291 71.2043 80.0737 71.1888 80.0211C71.1734 79.9684 71.1468 79.9197 71.1109 79.8781C71.075 79.8366 71.0306 79.8033 70.9807 79.7805C70.9308 79.7576 70.8766 79.7457 70.8217 79.7456ZM65.4314 114.729L55.3019 96.7575L70.2719 81.25L65.4314 114.729ZM65.2014 115.879H36.8394L54.7437 97.3348L65.2014 115.879ZM54.9063 96.0605L46.14 80.5124H69.9177L54.9063 96.0605ZM45.6133 81.1396L54.3542 96.6363L36.6829 114.935L45.6133 81.1396Z" fill="#4B1010"/>
<path d="M59.4035 120.403L31.3029 101.254L38.3309 81.0611C38.4537 80.7087 38.5059 80.3355 38.4844 79.9629C38.463 79.5904 38.3684 79.2256 38.2061 78.8896C38.0437 78.5536 37.8167 78.2528 37.5381 78.0045C37.2595 77.7562 36.9347 77.5652 36.5823 77.4424C36.2299 77.3196 35.8568 77.2674 35.4842 77.2889C35.1116 77.3103 34.7469 77.4049 34.4108 77.5672C34.0748 77.7296 33.7741 77.9566 33.5258 78.2352C33.2774 78.5138 33.0864 78.8386 32.9637 79.191L21.4778 112.26C21.3488 112.613 21.2913 112.988 21.3087 113.363C21.3261 113.738 21.418 114.106 21.579 114.445C21.74 114.785 21.967 115.088 22.2466 115.339C22.5263 115.59 22.853 115.782 23.2078 115.906C23.5627 116.029 23.9384 116.08 24.3133 116.056C24.6881 116.033 25.0545 115.935 25.3911 115.768C25.7277 115.602 26.0278 115.37 26.2738 115.086C26.5199 114.802 26.707 114.472 26.8243 114.116L29.3684 106.808L56.2046 125.092C56.8261 125.516 57.591 125.677 58.3309 125.538C59.0708 125.399 59.7251 124.971 60.1499 124.35C60.5747 123.728 60.7352 122.963 60.5961 122.224C60.457 121.484 60.0296 120.829 59.4081 120.405L59.4035 120.403Z" fill="#FFB43B"/>
<path d="M59.6197 120.086L31.7576 101.101L38.689 81.1845C38.8283 80.7846 38.8875 80.3613 38.8632 79.9385C38.8389 79.5158 38.7315 79.102 38.5473 78.7208C38.3631 78.3396 38.1056 77.9983 37.7895 77.7166C37.4734 77.4349 37.1049 77.2182 36.705 77.0789C36.3052 76.9396 35.8818 76.8804 35.4591 76.9047C35.0364 76.929 34.6226 77.0364 34.2414 77.2206C33.8601 77.4048 33.5189 77.6623 33.2372 77.9784C32.9555 78.2945 32.7388 78.663 32.5995 79.0629L21.1136 112.131C20.9706 112.531 20.9082 112.955 20.93 113.379C20.9519 113.803 21.0575 114.218 21.2409 114.601C21.4242 114.984 21.6816 115.327 21.9982 115.61C22.3147 115.893 22.6842 116.11 23.0853 116.249C23.4863 116.389 23.911 116.447 24.3348 116.421C24.7585 116.395 25.1729 116.286 25.5541 116.099C25.9353 115.912 26.2756 115.651 26.5555 115.332C26.8354 115.013 27.0492 114.641 27.1847 114.239L29.5616 107.403L55.9838 125.407C56.3331 125.645 56.7261 125.813 57.1402 125.9C57.5543 125.987 57.9815 125.991 58.3973 125.913C58.8132 125.835 59.2095 125.675 59.5638 125.444C59.918 125.213 60.2232 124.914 60.462 124.564C60.7007 124.215 60.8683 123.822 60.9552 123.408C61.0421 122.994 61.0465 122.567 60.9683 122.151C60.8901 121.735 60.7307 121.339 60.4993 120.984C60.268 120.63 59.969 120.325 59.6197 120.086ZM26.4601 113.99C26.3547 114.294 26.1902 114.575 25.9761 114.815C25.7619 115.056 25.5024 115.252 25.2123 115.392C24.9222 115.532 24.6073 115.614 24.2857 115.632C23.9641 115.65 23.642 115.604 23.3381 115.498C23.0341 115.391 22.7542 115.226 22.5144 115.01C22.2746 114.795 22.0796 114.535 21.9407 114.244C21.8018 113.954 21.7216 113.638 21.7048 113.317C21.688 112.995 21.7349 112.673 21.8427 112.37L33.3233 79.3159C33.4256 79.0062 33.5886 78.72 33.8027 78.4739C34.0167 78.2279 34.2776 78.0268 34.5701 77.8826C34.8627 77.7384 35.181 77.6538 35.5065 77.6338C35.8321 77.6138 36.1583 77.6587 36.4663 77.7661C36.7743 77.8734 37.0579 78.041 37.3004 78.259C37.543 78.477 37.7398 78.7411 37.8793 79.0359C38.0188 79.3308 38.0982 79.6504 38.113 79.9762C38.1277 80.302 38.0775 80.6275 37.9652 80.9337L26.4601 113.99ZM59.826 124.132C59.4574 124.669 58.8913 125.038 58.2515 125.158C57.6118 125.278 56.9505 125.14 56.4124 124.773L29.8215 106.655L31.493 101.851L59.1842 120.72C59.7206 121.088 60.0893 121.654 60.2096 122.294C60.3298 122.933 60.1919 123.594 59.826 124.132Z" fill="#4B1010"/>
<path d="M19.6135 123.91C19.3386 123.786 19.0571 123.678 18.7701 123.586C18.9825 122.079 17.4927 122.038 16.9606 122.768C16.5673 123.211 16.3173 123.762 16.2437 124.35C16.1448 125.17 16.6401 125.742 17.1231 125.742C17.3439 125.74 17.5599 125.678 17.7487 125.563C17.9375 125.449 18.0922 125.286 18.1966 125.091C18.5241 125.252 18.8813 125.342 19.2455 125.357C19.429 125.383 19.6158 125.341 19.7699 125.238C19.9241 125.135 20.0346 124.979 20.0803 124.799C20.126 124.619 20.1036 124.429 20.0174 124.265C19.9313 124.101 19.7874 123.974 19.6135 123.91Z" fill="#4B1010"/>
<path d="M87.4164 23.9539H122.862C123.685 23.9539 124.475 24.281 125.057 24.8634C125.64 25.4458 125.967 26.2356 125.967 27.0592C125.967 27.8828 125.64 28.6726 125.057 29.255C124.475 29.8374 123.685 30.1645 122.862 30.1645H87.4164C86.5928 30.1645 85.8029 29.8374 85.2206 29.255C84.6382 28.6726 84.311 27.8828 84.311 27.0592C84.311 26.2356 84.6382 25.4458 85.2206 24.8634C85.8029 24.281 86.5928 23.9539 87.4164 23.9539Z" fill="white"/>
<path d="M122.861 30.548H87.4155C86.4902 30.548 85.6028 30.1804 84.9486 29.5262C84.2943 28.8719 83.9268 27.9845 83.9268 27.0593C83.9268 26.134 84.2943 25.2466 84.9486 24.5924C85.6028 23.9381 86.4902 23.5706 87.4155 23.5706H122.861C123.786 23.5706 124.673 23.9381 125.328 24.5924C125.982 25.2466 126.349 26.134 126.349 27.0593C126.349 27.9845 125.982 28.8719 125.328 29.5262C124.673 30.1804 123.786 30.548 122.861 30.548ZM87.4155 24.3373C86.6936 24.3373 86.0012 24.6241 85.4908 25.1345C84.9803 25.645 84.6935 26.3374 84.6935 27.0593C84.6935 27.7812 84.9803 28.4735 85.4908 28.984C86.0012 29.4944 86.6936 29.7812 87.4155 29.7812H122.861C123.583 29.7812 124.275 29.4944 124.785 28.984C125.296 28.4735 125.583 27.7812 125.583 27.0593C125.583 26.3374 125.296 25.645 124.785 25.1345C124.275 24.6241 123.583 24.3373 122.861 24.3373H87.4155Z" fill="#4B1010"/>
<path d="M110.212 35.1007H99.1602C99.0586 35.1007 98.961 35.0603 98.8891 34.9884C98.8172 34.9165 98.7769 34.819 98.7769 34.7174C98.7769 34.6157 98.8172 34.5182 98.8891 34.4463C98.961 34.3744 99.0586 34.334 99.1602 34.334H110.215C110.317 34.334 110.414 34.3744 110.486 34.4463C110.558 34.5182 110.599 34.6157 110.599 34.7174C110.599 34.819 110.558 34.9165 110.486 34.9884C110.414 35.0603 110.317 35.1007 110.215 35.1007H110.212Z" fill="#4B1010"/>
<path d="M120.368 39.4877H90.9742C90.8725 39.4877 90.775 39.4473 90.7031 39.3754C90.6312 39.3035 90.5908 39.206 90.5908 39.1043C90.5908 39.0026 90.6312 38.9051 90.7031 38.8332C90.775 38.7613 90.8725 38.7209 90.9742 38.7209H120.368C120.469 38.7209 120.567 38.7613 120.639 38.8332C120.71 38.9051 120.751 39.0026 120.751 39.1043C120.751 39.206 120.71 39.3035 120.639 39.3754C120.567 39.4473 120.469 39.4877 120.368 39.4877Z" fill="#4B1010"/>
<path d="M115.365 113.341C115.365 115.953 116.865 118.458 119.536 120.304C122.208 122.151 125.83 123.189 129.608 123.189C133.385 123.189 137.008 122.151 139.679 120.304C142.35 118.458 143.851 115.953 143.851 113.341C143.851 112.048 143.483 110.768 142.767 109.573C142.051 108.378 141.002 107.293 139.679 106.378C138.357 105.464 136.787 104.738 135.058 104.243C133.33 103.749 131.478 103.494 129.608 103.494C127.737 103.494 125.885 103.749 124.157 104.243C122.429 104.738 120.859 105.464 119.536 106.378C118.214 107.293 117.165 108.378 116.449 109.573C115.733 110.768 115.365 112.048 115.365 113.341Z" fill="#FFB43B"/>
<path d="M129.608 103.11C121.543 103.11 114.982 107.699 114.982 113.34C114.982 118.981 121.543 123.572 129.608 123.572C137.672 123.572 144.234 118.982 144.234 113.34C144.234 107.699 137.673 103.11 129.608 103.11ZM139.091 106.445L129.434 111.812L120.908 105.978C126.276 103.018 134.03 103.198 139.091 106.445ZM120.18 106.41L128.685 112.23L117.794 118.287C114.487 114.612 115.131 109.612 120.18 106.41ZM118.348 118.853L129.393 112.713L139.738 119.793C133.786 124.148 123.487 123.733 118.348 118.853ZM140.371 119.297L130.142 112.297L139.795 106.93C144.475 110.393 144.705 115.652 140.371 119.297Z" fill="#4B1010"/>
<path d="M109.186 60.7407C108.859 62.5893 107.953 64.286 106.599 65.5858C104.214 67.8507 100.449 68.0179 97.2872 67.1637C94.9179 66.5243 93.1613 65.1303 92.7265 62.6506C92.4607 61.0293 92.5225 59.3712 92.9082 57.7741C92.0261 57.2014 91.1787 56.5769 90.3703 55.904C90.1556 55.7254 90.1242 55.5973 90.1702 55.4225C92.8063 47.3555 106.01 46.2982 109.068 54.3728C109.863 56.4699 109.581 58.5708 109.186 60.7407Z" fill="#FFB43B"/>
<path d="M109.426 54.2362C106.601 46.8294 95.5861 46.7013 91.119 52.7686C90.4619 52.7939 90.0456 52.8315 89.722 53.2202C87.6763 55.3012 86.2026 59.4355 85.9603 62.366C85.9532 62.4516 85.975 62.5372 86.0222 62.6089C86.0695 62.6807 86.1395 62.7345 86.221 62.7617C88.332 63.4662 90.5262 63.8908 92.7476 64.0245C93.1612 64.9163 93.7785 65.6985 94.5497 66.3081C95.3209 66.9176 96.2246 67.3375 97.1878 67.5339C100.536 68.4272 104.371 68.1833 106.865 65.8609C108.272 64.5021 109.216 62.7348 109.563 60.8095C109.965 58.6044 110.256 56.4421 109.426 54.2362ZM86.7524 62.1283C87.0384 59.4324 88.3526 55.7382 90.3837 53.6312C90.4474 53.6053 90.5146 53.5891 90.5831 53.5829C90.2599 54.1341 89.997 54.7184 89.7987 55.3257C89.7558 55.4871 89.7641 55.6578 89.8225 55.8143C89.8809 55.9707 89.9864 56.1052 90.1245 56.1991C90.8765 56.8245 91.6615 57.409 92.4762 57.9503C92.0767 59.691 92.0751 61.4995 92.4716 63.2409C90.5279 63.097 88.6082 62.7235 86.7524 62.1283ZM106.337 65.305C104.31 67.1919 100.965 67.7486 97.3879 66.794C94.9673 66.1323 93.4775 64.7238 93.1049 62.5922C92.8462 61.0186 92.9061 59.4091 93.2812 57.8591C93.2988 57.7825 93.2924 57.7024 93.2629 57.6295C93.2334 57.5567 93.1823 57.4947 93.1164 57.4519C92.2472 56.8882 91.4121 56.2738 90.6153 55.6117C90.5876 55.5901 90.5619 55.5659 90.5386 55.5397C93.0558 47.8545 105.749 46.7412 108.711 54.5107C109.47 56.5318 109.191 58.5798 108.811 60.6753C108.492 62.4399 107.627 64.0595 106.337 65.305Z" fill="#4B1010"/>
<path d="M121.425 55.6987C121.648 55.5726 121.896 55.4985 122.152 55.4822C122.408 55.4659 122.664 55.5077 122.901 55.6044C124.558 56.1526 125.424 58.0304 124.416 58.6714C122.735 59.613 119.389 57.0957 121.425 55.6987Z" fill="white"/>
<path d="M123.635 58.9893C123.587 58.9018 123.522 58.8252 123.443 58.7646C123.364 58.704 123.273 58.6608 123.176 58.6377C123.079 58.6146 122.979 58.6122 122.881 58.6307C122.783 58.6491 122.69 58.688 122.609 58.7447C122.541 58.7885 122.476 58.8351 122.412 58.8843L119.751 57.7341C119.851 58.6302 120.048 59.5128 120.338 60.3664C121.176 60.9031 122.507 61.5104 123.421 60.565C123.617 60.3574 123.743 60.0939 123.781 59.8113C123.819 59.5288 123.768 59.2413 123.635 58.9893Z" fill="white"/>
<path d="M123.045 55.2496C121.428 54.5909 119.649 56.1344 120.734 57.7446L119.903 57.3857C119.841 57.3582 119.773 57.3476 119.706 57.3548C119.638 57.362 119.574 57.3869 119.52 57.427C119.465 57.467 119.422 57.5207 119.395 57.5827C119.368 57.6446 119.358 57.7127 119.366 57.7798C119.47 58.7035 119.673 59.6134 119.972 60.4933C120 60.5749 120.054 60.6448 120.126 60.6919C121.293 61.4449 122.728 61.8329 123.697 60.8292C123.9 60.614 124.045 60.3508 124.118 60.0643C124.191 59.7777 124.189 59.4774 124.114 59.1914C126.164 58.7038 125.156 55.9458 123.045 55.2496ZM123.15 60.2971C122.602 60.8645 121.753 60.7939 120.659 60.1184C120.471 59.5436 120.326 58.9557 120.225 58.3595L121.74 59.0135L121.687 59.0825C121.626 59.1639 121.6 59.2661 121.614 59.3668C121.628 59.4674 121.682 59.5582 121.763 59.6193C121.845 59.6803 121.947 59.7065 122.048 59.6921C122.148 59.6777 122.239 59.6239 122.3 59.5426C122.709 59.0059 123.206 58.7191 123.374 59.3739C123.418 59.5339 123.42 59.7026 123.381 59.864C123.342 60.0254 123.263 60.1741 123.15 60.2963V60.2971ZM124.228 58.3395C124.07 58.4259 123.895 58.4781 123.716 58.4929C123.569 58.3684 123.391 58.2851 123.202 58.2515C123.012 58.218 122.817 58.2354 122.636 58.302C122.115 58.1003 121.666 57.7459 121.349 57.2853C121.272 57.1888 121.217 57.0762 121.189 56.9558C121.161 56.8354 121.161 56.7102 121.187 56.5895C121.214 56.4689 121.268 56.3557 121.344 56.2583C121.42 56.161 121.517 56.0819 121.628 56.027C121.803 55.9315 121.997 55.8768 122.196 55.867C122.395 55.8572 122.594 55.8925 122.778 55.9703C123.418 56.182 123.955 56.6286 124.279 57.2201C124.483 57.5644 124.584 58.1103 124.228 58.3388V58.3395Z" fill="#4B1010"/>
</svg>
