<svg width="156" height="156" viewBox="0 0 156 156" fill="none" xmlns="http://www.w3.org/2000/svg">
<path d="M102.17 78.8226C101.944 78.8998 101.793 78.8226 101.793 78.5964C101.758 78.2331 101.612 77.8894 101.374 77.6122C101.137 77.335 100.82 77.1378 100.466 77.0473C100.112 76.9569 99.7395 76.9776 99.3981 77.1067C99.0566 77.2358 98.7633 77.467 98.558 77.7689C97.7311 79.123 97.5806 82.509 99.1601 82.9606C105.029 83.4871 107.211 78.0699 102.17 78.8226Z" fill="#3D9CFB"/>
<path d="M91.9368 104.553C89.7552 103.952 88.7755 108.159 85.4667 104.476C79.225 97.5328 68.237 99.5855 66.6575 105.605C75.1588 103.121 91.486 113.806 83.1344 126.372C85.8426 126.449 94.1942 124.115 95.6232 118.998C97.5046 112.153 94.1193 105.156 91.9368 104.553Z" fill="#3D9CFB"/>
<path d="M118.271 121.558C117.443 120.805 116.39 122.084 117.292 122.686C118.045 123.438 119.174 122.159 118.271 121.558Z" fill="#3D9CFB"/>
<path d="M117.368 130.963C116.239 131.264 116.691 132.994 117.819 132.467C118.947 132.166 118.496 130.436 117.368 130.963Z" fill="#3D9CFB"/>
<path d="M129.406 31.5731C150.25 23.5983 140.24 5.09328 128.954 16.8278C118.797 6.74538 108.414 23.0718 129.406 31.5731Z" fill="#3D9CFB"/>
<path d="M59.8109 125.395C57.8546 124.792 54.166 126.899 54.166 126.899C54.166 126.899 60.711 135.25 58.5294 141.269C58.1534 133.519 50.0272 123.212 40.5478 127.2C34.4798 129.743 33.5711 137.974 36.9896 143.782C43.2683 154.449 67.0886 151.656 65.3909 135.436C65.179 133.474 64.576 131.575 63.6176 129.85C62.6592 128.126 61.3648 126.611 59.8109 125.395Z" fill="#3D9CFB"/>
<path d="M41.5283 37.1402C43.8605 38.7205 50.7075 42.4825 62.5948 44.2883C69.8926 45.2664 87.4983 46.3194 82.7581 41.4318C74.5571 43.5386 52.5132 40.981 43.6351 34.9616C42.657 34.2089 42.0548 35.3376 41.4534 35.9398C41.0018 36.3883 41.0018 36.7643 41.5283 37.1402Z" fill="#3D9CFB"/>
<path d="M108.791 84.7662C106.985 86.7224 109.242 89.5812 111.349 87.0984C113.155 84.9916 110.6 82.8099 108.791 84.7662Z" fill="#3D9CFB"/>
<path d="M129.556 117.871C128.438 117.394 127.901 119.451 129.18 119.526C129.372 119.515 129.554 119.442 129.7 119.318C129.847 119.195 129.949 119.027 129.991 118.84C130.034 118.653 130.014 118.457 129.936 118.283C129.857 118.108 129.724 117.963 129.556 117.871Z" fill="#3D9CFB"/>
<path d="M133.544 122.611C132.34 122.912 132.792 124.642 133.919 124.116C135.048 123.815 134.672 122.085 133.544 122.611Z" fill="#3D9CFB"/>
<path d="M132.34 131.564C131.587 133.371 135.274 133.371 133.77 131.641C133.318 131.264 132.641 131.038 132.34 131.564Z" fill="#3D9CFB"/>
<path d="M121.656 134.423C120.67 133.99 119.926 135.777 120.904 136.154C121.807 136.529 122.552 134.816 121.656 134.423Z" fill="#3D9CFB"/>
<path d="M123.688 41.354C113.606 41.9554 109.995 40.6021 110.296 50.3865C110.45 53.8474 110.729 57.5584 112.101 58.5875C114.775 60.5947 136.779 60.0173 139.714 58.437C141.444 57.4588 141.895 53.5463 141.745 49.7094C142.347 38.4196 136.629 42.1816 123.688 41.354ZM138.736 52.7149C137.381 53.1665 135.879 46.0185 135.049 46.169C133.244 49.555 131.588 57.455 128.578 50.3826C124.892 61.5929 124.215 53.7679 122.033 46.6206C120.453 51.2851 119.55 58.0564 116.012 51.2102C115.4 51.8683 114.916 52.6336 114.582 53.4676C114.189 54.3631 112.798 53.6992 113.228 52.7905C115.05 48.9197 116.764 48.6518 118.569 52.4138C122.106 40.0748 122.783 43.1597 125.642 53.9192C126.846 49.555 128.652 46.2447 130.984 51.6618C133.84 45.8679 134.381 38.8998 139.185 51.739C139.247 51.9284 139.235 52.1342 139.152 52.3151C139.068 52.4961 138.92 52.6389 138.736 52.7149Z" fill="#3D9CFB"/>
<path d="M130.685 120.58C130.46 120.805 128.88 122.386 127.375 123.815C125.87 125.169 124.518 126.373 124.816 127.05C124.863 127.161 124.936 127.259 125.027 127.337C125.118 127.416 125.227 127.471 125.344 127.501C125.46 127.53 125.582 127.532 125.7 127.506C125.817 127.48 125.927 127.427 126.021 127.351C126.773 126.598 133.266 121.456 132.042 120.429C131.947 120.341 131.834 120.275 131.711 120.235C131.588 120.194 131.458 120.181 131.33 120.195C131.201 120.209 131.077 120.251 130.966 120.317C130.854 120.384 130.759 120.473 130.685 120.58Z" fill="#3D9CFB"/>
<path d="M121.13 120.128C122.484 120.051 121.656 117.796 120.603 118.398C119.776 118.774 120.302 120.128 121.13 120.128Z" fill="#3D9CFB"/>
<path d="M130.158 136.003C131.211 136.003 130.911 134.8 130.309 134.273C128.654 133.145 128.654 135.854 130.158 136.003Z" fill="#3D9CFB"/>
<path d="M124.365 32.551C124.518 32.6253 124.685 32.6639 124.854 32.6639C125.024 32.6639 125.191 32.6253 125.343 32.551C147.792 23.6374 137.673 2.65421 124.29 14.7948C111.299 4.52787 101.925 23.669 124.365 32.551ZM113.456 15.021C116.239 11.5609 121.882 14.6489 123.537 16.3751C123.914 16.7518 124.515 16.8267 124.741 16.4523C135.664 5.25819 145.487 21.6193 125.418 30.9738C125.279 31.0479 125.124 31.0867 124.967 31.0867C124.809 31.0867 124.654 31.0479 124.515 30.9738C121.054 29.6173 107.963 21.8672 113.456 15.021Z" fill="#001434"/>
<path d="M134.898 39.9242C135.425 40.7518 140.688 40.2253 141.819 41.2791C142.648 42.031 142.572 44.5138 142.648 46.2446C142.725 47.8242 142.798 48.2758 143.325 48.3515C144.227 48.4287 144.378 47.6736 144.303 44.9654C144.152 41.354 143.851 40.6021 143.325 40.0748C142.347 39.0966 140.766 38.7956 136.102 38.7207C134.522 38.645 134.672 39.4734 134.898 39.9242Z" fill="#001434"/>
<path d="M110.898 59.6369C110.597 59.4115 110.295 58.6587 109.919 56.853C109.848 56.6448 109.697 56.4731 109.5 56.3746C109.303 56.2762 109.075 56.2589 108.866 56.3265C107.737 56.7781 108.866 60.5401 109.769 61.0666C111.348 61.9691 116.39 62.4956 119.249 62.3458C120.678 62.2686 120.528 60.8404 119.399 60.8404C115.562 60.8404 111.724 60.239 110.898 59.6369Z" fill="#001434"/>
<path d="M108.038 53.4673C108.172 53.4725 108.304 53.4474 108.427 53.394C108.549 53.3405 108.658 53.2601 108.744 53.1587C108.831 53.0574 108.894 52.9377 108.928 52.8086C108.962 52.6796 108.966 52.5445 108.941 52.4135C108.565 46.3919 108.863 43.381 110.221 41.7297C112.252 39.2469 116.761 39.6607 128.503 39.4731C129.707 39.4538 129.783 37.818 128.127 37.818C111.123 37.6636 111.048 38.7953 109.693 39.6986C107.813 40.9021 106.91 43.9122 107.211 50.0064C107.285 51.5859 107.288 53.3754 108.038 53.4673Z" fill="#001434"/>
<path d="M29.3398 93.2682C29.3398 90.9352 27.4584 91.9134 27.4584 93.191C27.4584 93.567 27.1728 102.812 31.5215 106.734C32.1152 107.269 34.0799 106.812 32.7251 105.229C30.0169 102.146 29.3398 95.6005 29.3398 93.2682Z" fill="#001434"/>
<path d="M128.279 126.373C127.827 126.373 127.602 126.598 127.602 126.974C127.602 128.856 125.632 129.1 124.591 128.329C124.345 128.127 124.157 127.864 124.046 127.566C123.935 127.268 123.905 126.946 123.958 126.633C124.012 126.319 124.147 126.025 124.351 125.781C124.554 125.537 124.819 125.35 125.117 125.241C125.306 125.19 125.467 125.066 125.565 124.897C125.664 124.728 125.692 124.528 125.644 124.338C125.343 123.51 123.524 124.328 122.936 125.091C120.242 128.581 126.17 132.539 128.502 128.777C129.03 128.028 129.18 126.297 128.279 126.373Z" fill="#001434"/>
<path d="M125.795 134.649C124.44 134.499 124.139 137.358 125.493 137.505C126.848 137.583 127.149 134.724 125.795 134.649Z" fill="#001434"/>
<path d="M134.068 126.523C133.825 126.523 133.591 126.617 133.416 126.785C133.24 126.954 133.136 127.184 133.126 127.427C133.116 127.67 133.201 127.907 133.362 128.089C133.523 128.272 133.749 128.384 133.991 128.404C134.668 128.481 135.721 128.481 135.797 127.502C135.873 126.522 134.823 126.448 134.068 126.523Z" fill="#001434"/>
<path d="M116.766 125.921C115.337 125.47 114.584 127.576 116.164 127.803C117.594 128.253 118.346 126.147 116.766 125.921Z" fill="#001434"/>
<path d="M126.17 114.335L125.945 112.604L127.148 112.454C127.389 112.414 127.605 112.282 127.751 112.087C127.898 111.892 127.963 111.648 127.934 111.406C127.905 111.164 127.784 110.942 127.595 110.787C127.407 110.632 127.166 110.555 126.923 110.573L122.785 111.1C122.554 111.134 122.344 111.253 122.195 111.433C122.046 111.613 121.969 111.841 121.979 112.075C121.988 112.308 122.084 112.53 122.247 112.697C122.41 112.864 122.629 112.965 122.862 112.98C122.862 112.98 123.991 112.83 124.066 112.83L124.22 114.41C107.403 116.332 108.176 139.598 125.95 140.066C143.209 140.52 142.768 113.89 126.17 114.335ZM135.726 132.843C130.826 142.642 113.546 137.834 114.057 127.502C114.433 119.677 119.776 116.216 125.569 116.366C133.017 116.517 140.692 122.762 135.726 132.843Z" fill="#001434"/>
<path d="M144.98 52.1884C144.98 50.3827 143.175 50.6081 143.1 52.1884C142.945 58.3583 142.046 59.7116 141.068 60.3138C138.81 61.6687 130.008 61.7435 127.45 61.6686C125.87 61.6686 125.87 63.3987 127.901 63.3987C132.34 63.3987 140.692 63.6998 142.873 61.7435C144.453 60.3887 145.055 58.5837 144.98 52.1884Z" fill="#001434"/>
<path d="M63.8737 57.6058C63.7521 57.6325 63.6372 57.6834 63.5356 57.7554C63.4341 57.8274 63.348 57.919 63.2825 58.0249C63.217 58.1307 63.1734 58.2486 63.1542 58.3716C63.135 58.4945 63.1407 58.6201 63.1709 58.7409C63.2011 58.8616 63.2552 58.9751 63.33 59.0746C63.4048 59.174 63.4988 59.2575 63.6064 59.32C63.7141 59.3826 63.8331 59.4229 63.9566 59.4386C64.0801 59.4543 64.2055 59.4451 64.3253 59.4115C68.5158 58.4766 68.8392 60.5402 70.2698 61.4426C70.8712 61.8186 71.9249 61.2921 71.3228 60.0885C69.5912 56.7025 65.4532 57.1541 63.8737 57.6058Z" fill="#001434"/>
<path d="M57.7797 61.8182C61.0144 60.5397 62.7452 53.4674 60.413 50.3824C58.6821 48.2 50.6317 46.1688 46.9453 47.0728C43.2582 47.6742 40.3995 54.5212 42.1303 57.681C44.2363 60.84 53.1144 63.2479 57.7797 61.8182ZM47.3962 58.9618C45.6661 58.2847 44.2363 57.532 43.7098 56.7044C42.9571 55.0492 44.2363 49.632 47.3962 48.8801C49.3524 48.4285 53.0395 49.0345 55.7477 49.9331C52.2868 52.4136 49.2776 56.2512 47.3962 58.9618Z" fill="#001434"/>
<path d="M125.191 119.451C126.62 119.451 126.319 116.742 124.965 116.967C123.763 117.193 124.063 119.451 125.191 119.451Z" fill="#001434"/>
<path d="M66.9591 66.4837C65.3031 65.6561 63.3469 66.3293 59.8111 65.355C56.8774 64.7528 53.4034 62.3959 51.0874 65.355C49.4044 67.4996 48.3035 71.145 50.5609 72.6528C53.4945 74.9858 62.6737 75.0607 66.6618 72.4273C68.5386 71.1481 68.9115 67.5367 66.9591 66.4837ZM66.1323 70.5467C63.9506 72.879 50.2575 74.4585 51.2325 69.0413C52.4334 69.7354 53.766 70.1711 55.145 70.3205C55.3746 70.3308 55.5988 70.2494 55.7683 70.0944C55.9378 69.9393 56.0388 69.7232 56.0491 69.4937C56.0593 69.2642 55.9779 69.04 55.8229 68.8705C55.6678 68.7009 55.4518 68.5999 55.2222 68.5897C54.0695 68.5264 52.9652 68.1057 52.0624 67.3861C53.1911 63.7747 58.0069 68.2137 64.9279 67.9883C67.1845 67.9173 66.9591 69.6435 66.1323 70.5467Z" fill="#001434"/>
<path d="M114.208 107.338C119.7 107.037 125.242 101.423 127.826 95.9769C134.273 82.3896 121.582 70.6968 114.283 69.8692C107.06 60.6151 95.0222 57.3047 90.0566 56.3266C90.9892 55.2333 91.63 53.9218 91.9194 52.5142C92.2088 51.1066 92.1374 49.6487 91.7118 48.2761C98.0315 46.8464 101.343 39.774 97.2795 34.1314C103.524 13.7419 81.4796 0.349128 64.4005 8.32474C55.3719 1.17749 39.7225 5.01437 33.8537 14.1935C23.7721 11.7856 16.1748 22.244 20.8377 30.4451C16.3238 33.1533 15.4205 39.5486 18.6537 43.536C15.1951 47.0733 15.1951 52.8634 19.4079 55.7244C16.1725 59.7119 18.4298 65.4301 22.496 67.3115C2.633 81.6816 11.21 123.815 31.073 130.135C29.0418 140.367 39.5751 151.804 49.4313 151.277C60.7165 150.374 68.3162 144.806 68.4659 135.928C74.4876 135.402 80.2004 131.64 83.4382 127.426C94.7242 125.696 101.722 118.849 98.8622 108.316C101.646 109.595 104.43 108.692 107.139 106.51C109.411 107.278 111.82 107.56 114.208 107.338ZM117.443 72.653C119.223 73.6645 120.846 74.932 122.258 76.415C120.227 75.8932 118.092 75.9453 116.089 76.5656C115.111 74.986 112.853 73.1046 110.898 71.8254C113.114 71.4755 115.384 71.7625 117.443 72.653ZM106.91 87.5528C104.277 89.8093 102.095 91.0137 100.888 90.7875C95.9224 89.1323 90.8055 85.9725 92.3858 81.7596C93.4388 83.0381 98.7811 89.2079 101.49 86.499C108.713 79.1255 113.528 76.7184 103.972 71.9783C107.509 71.1507 112.399 74.0102 114.505 77.6965C115.258 79.0506 113.753 80.2542 112.249 81.9094C109.101 79.3471 104.353 84.1397 106.91 87.5504V87.5528ZM110.973 85.8219C109.994 86.9506 108.716 87.4022 108.189 85.9763C107.211 82.7354 113.533 81.9071 110.973 85.8196V85.8219ZM96.7523 91.2391C96.0866 92.4037 95.5566 93.6408 95.1727 94.9262C92.2391 92.9699 91.4864 91.7664 92.4645 88.0793C93.7885 89.2677 95.2245 90.3251 96.7523 91.2368V91.2391ZM97.5806 75.8908C98.8591 74.2356 101.643 74.6865 101.643 76.7941C101.643 77.0195 101.797 77.0195 102.02 76.9438C105.108 75.9657 107.361 78.6747 105.254 80.5553C103.298 81.985 98.4074 83.4889 97.2795 81.4578C96.9036 80.0265 96.452 77.1677 97.5806 75.8885V75.8908ZM111.875 69.7966C110.675 69.8437 109.487 70.0459 108.339 70.398C106.398 69.8326 104.336 69.8326 102.395 70.398C97.3537 71.8277 87.272 80.1044 91.1089 86.5746C89.1534 91.0137 90.7329 94.7749 94.796 96.9574C94.6459 97.928 94.5703 98.9088 94.5698 99.891C92.2376 97.4082 90.6573 96.3544 86.896 95.0003C88.4007 87.176 88.0247 76.0406 82.3057 68.8926C83.8158 65.9568 84.881 62.8127 85.4663 59.5636C86.4982 59.144 87.4818 58.6142 88.3999 57.9833C91.1097 58.3585 103.975 60.9162 111.875 69.7943V69.7966ZM58.3812 78.2207C49.8042 78.1435 34.7122 74.6533 28.9631 65.0542C26.4703 60.8923 24.7526 56.1012 28.1363 53.8438C31.2953 51.737 33.4762 55.2728 36.5643 52.8634C40.2506 50.007 36.1126 42.6312 40.8528 40.7498C53.7931 47.5967 70.4978 50.0795 84.7167 47.7473C84.7287 48.3502 84.7029 48.9533 84.6395 49.553C78.9961 49.7784 73.9557 50.1552 73.6546 56.8508C73.504 59.1082 73.88 61.8164 75.0843 62.7953C76.5141 63.9988 79.6739 64.4497 82.3065 64.3748C78.5452 74.6093 70.9464 78.2207 58.3812 78.2207ZM49.5031 79.1989C55.4476 80.4024 63.4224 80.4781 68.9893 78.8978C69.6672 95.7515 60.9396 91.4638 49.5031 79.1989ZM37.7686 36.5393C39.7305 35.939 41.395 34.6228 42.4315 32.8522C55.5981 39.6235 70.4955 42.2575 84.7908 39.8497V45.7169C71.1718 48.3518 50.5569 45.5679 37.7663 36.5393H37.7686ZM82.3844 51.439C80.7729 54.9059 79.3906 58.4749 78.2465 62.1228C75.4626 61.5207 75.5383 60.6182 75.5383 56.9311C75.9119 52.1886 78.0211 52.0381 82.3821 51.4359L82.3844 51.439ZM20.0101 62.1954C19.1825 60.5402 19.7553 58.9445 20.6115 57.3796C20.8946 56.8454 20.9963 56.2336 20.9014 55.6365C20.8064 55.0394 20.5199 54.4893 20.085 54.0693C17.3768 51.2854 17.0008 47.3736 20.4617 44.3636C20.556 44.2799 20.6328 44.1785 20.6878 44.065C20.7427 43.9516 20.7747 43.8284 20.7818 43.7026C20.789 43.5767 20.7712 43.4507 20.7296 43.3318C20.6879 43.2128 20.6231 43.1033 20.5389 43.0095C17.0757 39.4737 18.4839 34.7984 21.8189 31.9497C22.1502 31.6725 22.3863 31.2984 22.4941 30.8802C22.602 30.4619 22.5762 30.0203 22.4203 29.6175C21.3395 26.8135 20.7659 23.4476 22.7214 20.2878C23.9257 16.6763 32.2765 14.1179 37.9199 17.5788C38.9729 18.1053 38.8224 16.4501 38.221 15.9236C37.5444 15.3515 36.7471 14.94 35.8888 14.72C42.0548 7.19606 53.1902 3.66027 63.0441 9.75449C63.4379 10.0486 63.9002 10.2374 64.3873 10.3032C64.8744 10.369 65.3702 10.3095 65.828 10.1305C72.5236 6.59467 83.1325 7.19683 89.9038 12.9869C95.4715 17.727 97.5783 24.7214 95.6938 33.0753C95.5397 33.8086 95.6188 34.5717 95.92 35.2578C97.1236 38.1142 97.8006 40.9004 96.672 42.405C95.5433 44.7372 92.9856 46.167 90.3523 46.6943C87.8688 47.2208 92.91 52.1863 87.6433 56.2494C90.3523 52.8634 87.1168 46.5437 90.0512 45.1889C96.5214 42.1047 94.4146 38.4932 93.8881 34.9567C93.8239 34.3755 93.8764 33.7873 94.0425 33.2266C95.0955 29.6152 96.4504 22.0155 89.3781 15.6959C77.8659 5.31314 67.4083 15.9213 63.5714 12.7622C61.69 11.1827 58.0793 7.87234 51.6053 8.54862C45.5836 9.0759 42.65 12.3863 40.696 17.7278C40.4917 18.2656 40.0899 18.7051 39.5726 18.9569C39.0553 19.2087 38.4615 19.2536 37.9122 19.0827C28.6635 16.3737 23.244 22.6933 25.5732 29.8414C26.3251 34.6564 16.9205 33.0012 23.3158 43.2334C24.971 46.695 17.8238 47.7481 22.7137 54.5193C23.9929 57.9054 20.0804 59.786 23.3158 65.3537C22.2675 64.5276 20.6872 63.7749 20.0101 62.1954ZM27.5318 66.1828C30.5426 70.923 37.2375 75.9634 46.4166 78.4469C55.6707 89.8827 72.2225 101.77 70.9441 78.3697C75.1994 77.0286 78.8649 74.2664 81.3268 70.5454C85.8407 76.8651 86.5185 86.7962 85.088 94.4707C77.2637 92.7406 67.1821 98.5338 65.3007 105.155C62.5833 105.935 60.0676 107.295 57.9272 109.142C55.403 107.302 52.4508 106.136 49.3502 105.756C56.9499 83.9374 30.3156 69.04 14.9666 80.326C17.6501 73.6636 23.0449 68.4271 27.5318 66.1828ZM19.1825 117.043C15.0446 109.294 10.7561 96.8794 13.8402 84.6909C24.1481 71.224 49.2754 80.8541 48.9017 98.7608C48.733 101.38 48.2012 103.962 47.3214 106.435C46.6876 108.405 52.2121 106.661 56.6511 110.573C55.1748 112.194 54.0251 114.085 53.2651 116.141C44.5414 113.959 32.9513 120.731 31.371 128.254C26.0295 126.674 21.3642 121.186 19.1825 117.043ZM48.525 149.32C37.5408 149.697 25.3524 130.737 37.6914 123.89C53.3407 116.441 68.5385 147.064 48.525 149.32ZM65.5292 140.969C64.4005 143.302 61.0145 146.16 56.8009 147.891C66.6579 136.605 51.911 116.667 38.1422 121.784C52.8891 109.746 71.4729 126.297 65.5292 140.969ZM83.9655 122.687C82.3852 127.652 75.3885 133.371 68.391 134.048C67.7889 126.599 63.1244 119.148 55.0739 116.667C55.6012 115.362 56.2834 114.124 57.1058 112.98C59.5499 112.871 61.9599 113.585 63.9489 115.01C65.0776 115.687 66.1306 114.709 65.0019 113.731C63.8732 112.753 62.5199 111.624 58.6823 111.173C59.6219 109.86 60.8943 108.821 62.3686 108.162C62.5843 108.074 62.8136 108.023 63.0464 108.012C67.7155 108.125 68.3131 109.743 69.742 109.968C70.6453 110.119 71.398 109.291 70.6453 108.689C69.4264 107.851 68.0799 107.216 66.6579 106.808C75.9868 104.102 87.0474 112.98 83.9655 122.687ZM85.2447 124.642C90.0597 113.884 78.4727 102.598 67.8645 104.704C78.6201 91.5409 99.0853 115.689 85.2416 124.642H85.2447ZM96.6056 117.796C95.6267 119.752 92.7679 122.386 88.9311 124.041C97.4332 113.583 84.5669 95.4504 71.8519 99.6632C85.6176 88.8297 102.02 104.554 96.6025 117.796H96.6056ZM101.346 103.128C102.466 104.178 103.766 105.019 105.183 105.612C96.831 110.728 94.1977 99.2911 98.4862 92.0682C102.248 93.6485 104.276 92.2188 108.493 88.683C110.6 89.5855 114.211 85.974 113.308 83.6418C115.039 81.3095 116.319 80.1809 116.543 78.3751C123.691 76.4938 130.989 81.6855 126.475 94.5518C124.443 93.5729 122.863 92.5199 121.734 91.9177C120.606 91.3155 119.929 92.7461 121.133 93.6485C122.558 94.6558 124.069 95.5369 125.647 96.2818C124.391 98.5883 122.764 100.673 120.832 102.451C119.402 101.624 116.919 99.8933 115.866 99.2155C114.813 98.5377 114.081 99.945 115.114 100.871C116.407 101.92 117.792 102.851 119.252 103.651C114.211 108.165 105.408 104.102 102.7 101.846C101.042 100.492 100.382 102.202 101.343 103.121L101.346 103.128Z" fill="#001434"/>
<path d="M44.6877 131.114C38.3711 131.381 39.1956 140.594 45.2142 140.594C51.5346 140.669 50.8629 130.852 44.6877 131.114ZM47.4715 137.584C46.1437 139.965 41.7533 138.186 42.2798 135.627C42.4311 130.737 49.7219 133.549 47.4715 137.584Z" fill="#001434"/>
</svg>
