<svg width="154" height="154" viewBox="0 0 154 154" fill="none" xmlns="http://www.w3.org/2000/svg">
<path d="M61.3908 57.0586C60.8939 57.3205 60.423 57.5793 59.9766 57.8358C60.8648 62.3825 61.534 65.9047 64.3403 76.9507L65.1734 80.2417C65.2591 78.9469 65.4865 77.7386 65.8357 76.6199C63.74 68.2593 62.6818 63.9422 61.6289 58.309C61.5493 57.8832 61.4697 57.4667 61.3908 57.0586Z" fill="#191919"/>
<path d="M107.869 48.541C107.33 48.4545 106.79 48.378 106.248 48.3113C106.385 48.92 106.511 49.4889 106.622 49.9943C107.476 53.8886 107.495 54.4828 109.02 60.2034C109.569 60.2141 110.108 60.2539 110.636 60.3205C108.984 54.1543 108.998 53.6727 108.117 49.665L107.869 48.5395V48.541Z" fill="#191919"/>
<path d="M116.54 87.6622C120.006 100.812 122.957 113.776 121.474 116.414C120.658 117.865 119.547 118.898 118.079 119.573C106.534 124.871 100.89 126.972 82.8933 129.73C79.1023 130.31 78.8267 129.636 73.0227 105.688C71.9286 101.172 70.8242 96.6577 69.7095 92.1461C68.8674 91.3604 68.1222 90.4769 67.4897 89.5144C77.3857 129.485 76.8818 132.201 83.1246 131.244C101.315 128.456 107.028 126.33 118.717 120.965C120.489 120.151 121.828 118.908 122.807 117.165C124.528 114.105 122.077 102.593 117.877 86.7502C117.447 87.0787 117 87.3827 116.538 87.663L116.54 87.6622Z" fill="#191919"/>
<path d="M130.18 123.043C130.092 122.634 129.929 121.873 129.269 121.784C128.456 121.675 128.154 122.43 128.055 122.678C128.037 122.724 128.021 122.77 127.999 122.808C124.855 128.242 122.272 129.752 117.127 131.901C109.515 135.081 92.2577 139.225 83.5525 139.964C72.8296 140.874 72.9269 139.262 68.9046 126.468C67.3541 121.534 58.5095 90.601 53.292 62.8918C52.7836 63.4033 52.3701 63.8513 52.0072 64.2203C56.3242 86.8131 63.2461 113.498 68.0739 128.937C71.4896 139.859 72.2936 142.455 83.6826 141.491C92.5043 140.742 109.998 136.54 117.718 133.316C122.797 131.193 125.659 129.563 128.812 124.437C128.983 126.839 128.596 131.594 124.45 134.173C113.285 141.121 86.3511 147.373 75.8809 147.257C71.7737 147.225 70.4682 146.013 69.0945 143.308C65.2101 135.659 53.4076 88.8269 49.0133 65.1576C48.4704 65.0037 47.9302 64.8403 47.3931 64.6675C51.9865 90.0512 64.057 136.771 67.7293 144.001C69.4108 147.313 71.2982 148.79 76.077 148.79C86.6421 148.79 113.752 142.634 125.259 135.473C130.75 132.057 130.674 125.343 130.181 123.044L130.18 123.043Z" fill="#191919"/>
<path d="M113.018 116.747C111.781 111.674 111.809 111.547 110.667 111.809C110.667 111.809 92.4845 115.939 91.581 116.111C87.0014 116.984 88.617 116.736 89.7831 122.991C89.8459 123.329 90.0787 123.511 90.4355 123.511C90.9202 123.511 91.7816 123.102 106.031 119.772C113.21 118.094 113.346 118.09 113.018 116.747ZM96.9692 116.45L110.567 113.28C110.86 113.28 110.889 113.906 111.578 116.792C110.742 117.195 91.1055 121.927 91.0289 121.88C90.8475 121.776 90.7495 120.907 89.9853 118.451C89.7426 117.674 90.4394 118.184 96.97 116.449L96.9692 116.45Z" fill="#191919"/>
<path d="M115.494 61.8175C116.149 62.1505 116.774 62.5311 117.364 62.9515C116.24 58.6097 115.11 54.2694 113.974 49.9307C113.559 49.8396 113.04 49.6972 112.409 49.5303C112.957 51.7209 114.712 58.8029 115.494 61.8167V61.8175Z" fill="#191919"/>
<path d="M129.223 115.057C129.195 111.241 125.585 95.7549 122.101 81.666C121.776 82.3168 121.406 82.934 120.996 83.5167C124.337 97.0657 127.665 111.447 127.691 115.068C127.771 125.953 111.13 130.048 100.121 132.77C94.1444 134.248 85.4545 136.234 79.2561 135.93C76.4092 135.792 75.5164 134.9 74.6925 133.075C69.8434 122.336 59.3426 74.9202 56.5891 60.4653L56.5171 60.0901C56.0194 60.4599 55.5707 60.8175 55.1626 61.1621C58.0401 76.1261 68.4437 122.958 73.2959 133.705C74.7768 136.983 76.8495 137.492 80.6137 137.492C86.8036 137.492 94.4805 135.736 100.487 134.257C111.966 131.43 129.312 127.151 129.222 115.057H129.223Z" fill="#191919"/>
<path d="M66.0626 6.41294C60.6146 13.6802 28.9338 51.5747 24.9568 56.7156C24.479 57.3335 24.5012 57.3772 25.299 57.5242C28.2225 58.0625 31.1046 58.7937 34.0119 59.4078C34.8825 59.5916 35.5701 59.5563 36.5456 69.2103C37.0487 74.1912 35.979 79.6943 36.0403 82.1299C36.0556 82.7494 35.9017 82.9646 35.3802 83.2341C33.1168 84.4033 32.8251 86.9546 34.3174 88.4845C35.845 90.0503 33.4453 90.5473 33.0747 98.6009C33.0173 99.8505 32.9062 110.838 34.4231 110.905C34.6865 110.916 34.6995 110.667 34.7723 110.491C35.8205 107.953 32.9507 102.294 35.9063 90.7058C36.2095 89.5159 36.1766 89.5381 37.3067 89.3099C37.721 89.2265 37.8274 89.365 37.9614 89.6943C39.0357 92.3413 39.8634 96.5856 39.6084 100.655C39.1965 107.224 38.6383 106.855 39.2286 107.256C40.6995 108.253 42.2761 96.591 38.8175 89.1116C38.6498 88.7494 38.6367 88.5052 38.9078 88.1705C40.3511 86.388 39.7378 83.996 37.6076 83.1085C36.0027 82.44 40.1988 76.4638 36.6635 60.7225C36.4438 59.7432 36.319 59.9185 41.3994 61.1115C46.8106 62.3825 46.7225 62.4392 46.9178 62.2302C47.1391 61.9936 45.1957 58.1168 43.5043 52.0617C42.198 47.3832 42.721 47.2094 44.5862 44.4177C52.2386 32.9659 76.5527 22.56 97.1401 25.3854C102.008 26.0531 110.607 28.0516 111.99 32.7668C112.882 35.8066 114.042 38.7676 114.714 41.8771C115.195 44.1053 113.711 44.6796 127.392 27.7055C66.3191 5.69548 66.8359 5.38154 66.0626 6.41294ZM38.2256 86.0702C38.2057 88.3758 34.8695 88.7931 34.8971 86.2272C34.9231 83.839 38.2462 83.682 38.2256 86.0702Z" fill="#38A1FF"/>
<path d="M108.74 31.3624C104.789 28.6572 97.9134 27.0309 90.3391 27.0117C64.3826 27.0485 44.5456 43.3931 45.09 48.2231C45.466 51.5524 48.7126 59.6757 49.78 62.3449C50.1697 63.3212 50.1345 61.9299 54.4224 58.6696C68.9906 47.5922 98.6576 42.2384 113.296 47.3893C113.508 47.4643 113.631 47.4169 113.649 47.4015C113.333 44.4919 109.793 32.4497 108.74 31.3624ZM69.6085 36.6442C66.4447 38.1603 56.5909 43.8602 52.7976 46.7331C49.1705 49.4797 48.9055 50.2201 48.2524 49.9238C47.9484 49.7859 47.8642 49.5256 47.8588 49.0983C48.3611 43.7844 69.3742 34.7981 69.9538 36.2606C70.0603 36.5286 69.7624 36.5707 69.6085 36.6442Z" fill="#38A1FF"/>
<path d="M66.8335 81.3805C66.8197 73.9762 72.7371 68.1431 80.2003 68.2633C87.3696 68.3782 93.0825 74.0612 93.1231 81.3001C93.1652 88.8331 87.2004 94.647 79.8045 94.5429C72.5977 94.4418 66.8465 88.6593 66.8335 81.3805ZM91.6031 81.4157C91.5695 74.9134 86.3726 69.7572 79.8872 69.7909C73.3887 69.8246 68.2363 75.0658 68.2669 81.6102C68.296 87.9533 73.5901 93.1486 79.9921 93.1164C86.4194 93.0842 91.6368 87.8269 91.6031 81.4157Z" fill="#38A1FF"/>
<path d="M95.6914 74.9723C95.7021 67.7555 101.533 62.476 107.401 61.9569C116.327 61.1675 122.029 68.4883 121.963 75.0197C121.888 82.4677 115.861 88.2204 108.718 88.1752C101.351 88.1285 95.6807 82.0251 95.6914 74.9723ZM97.1095 75.1177C97.1279 81.3873 102.227 86.6813 108.501 86.7334C115.227 86.7893 120.423 81.6377 120.43 75.0121C120.437 68.6506 115.255 63.1835 108.214 63.4194C102.197 63.6223 97.0919 68.8727 97.1095 75.1185V75.1177Z" fill="#38A1FF"/>
<path d="M77.7814 60.9003C74.9506 60.4815 71.4667 61.9049 70.1313 64.1224C69.5493 65.0895 68.4383 64.5037 68.8901 63.4692C70.7377 59.2403 79.1198 58.5711 78.3021 60.5573C78.1956 60.8153 77.9606 60.8789 77.7814 60.9003Z" fill="#191919"/>
<path d="M95.3703 94.0466C92.7577 93.9601 91.8236 91.738 92.0066 90.9754C92.1222 90.493 92.6934 90.0221 93.4147 91.4134C94.1153 92.7656 96.6375 92.9892 97.4721 91.4999C98.0112 90.5389 99.2371 91.0206 98.7432 92.2319C98.3312 93.2426 96.8917 94.0971 95.371 94.0474L95.3703 94.0466Z" fill="#191919"/>
<path d="M100.975 54.0503C102.352 54.0258 105.319 54.4706 104.777 55.731C104.182 57.1169 101.961 54.1797 97.745 56.3236C96.2166 57.1008 96.0321 54.1391 100.975 54.0495V54.0503Z" fill="#191919"/>
<path d="M78.8563 80.1132C78.7966 77.7648 80.7162 77.8544 81.4322 79.0711C82.3058 80.5558 82.959 83.8697 81.3579 84.2082C79.6067 84.578 78.8923 81.5236 78.8563 80.1132Z" fill="#191919"/>
<path d="M106.017 74.3644C105.881 71.9034 107.711 72.0412 108.345 72.9294C109.566 74.64 110.113 78.1553 108.472 78.3192C107.973 78.369 107.51 78.395 107.14 77.8667C106.38 76.7794 106.084 75.5711 106.017 74.3644Z" fill="#191919"/>
</svg>
