<svg width="154" height="154" viewBox="0 0 154 154" fill="none" xmlns="http://www.w3.org/2000/svg">
<path d="M66.4398 111.435C65.9888 108.908 58.5952 62.3747 57.4873 57.2338C56.6182 53.2828 55.5661 48.0079 52.7009 45.4895C49.9091 43.0523 45.9206 43.805 42.5936 44.2935C27.2482 46.5615 25.3654 46.6358 15.3347 49.3471C12.0108 50.2774 8.29027 51.4298 6.16086 54.3548C3.55212 57.9888 4.26193 63.0378 4.61645 67.2484C5.4582 77.6619 6.65474 88.0323 8.20605 98.3596C9.71294 108.375 11.6624 118.344 14.8539 127.916C15.487 130.126 16.3484 132.265 17.4243 134.298C18.4487 136.072 20.1137 137.388 22.0775 137.973C28.2796 139.811 44.589 135.468 50.8395 134.073C53.3211 133.542 55.8471 133.01 58.2851 132.345C60.3953 131.897 62.4071 131.071 64.2239 129.908C69.9605 125.695 67.7239 118.632 66.4398 111.435ZM63.5126 129.56C61.6948 130.8 59.4796 131.332 57.3961 131.864C55.0477 132.485 52.6542 132.972 50.3058 133.504C42.9282 135.112 35.5561 137.099 28.0576 137.625C23.1364 137.946 19.788 137.505 17.5101 133.06C16.5143 130.942 15.6846 128.749 15.0284 126.501C9.47022 109.491 6.68996 85.1359 5.14784 67.2484C4.8071 62.9 4.14477 58.0248 6.65474 54.5294C7.93497 52.9452 9.64217 51.7609 11.5744 51.1166C19.6755 47.9007 35.6173 46.1633 42.3746 44.9566C46.0753 44.4152 49.9819 43.6549 52.612 46.2858C53.933 47.7909 54.8887 49.5806 55.4046 51.5156C56.7315 56.1934 57.7092 60.9633 58.3295 65.7859C59.8801 75.8457 66.6167 115.863 67.0156 118.258C67.6665 122.909 67.4084 126.929 63.5126 129.56Z" fill="#191919"/>
<path d="M55.5815 57.6313C55.1348 55.2315 54.4823 52.8747 53.6313 50.5868C53.0111 48.9023 52.0363 46.9972 50.3962 46.155C47.9146 44.9145 43.8816 45.5792 42.3747 48.0608C41.351 49.7147 42.2162 51.3793 38.6519 52.4483C37.4735 52.7545 36.2644 52.9421 31.5171 53.7339C30.3203 53.9552 29.0791 54.1772 27.8831 54.3097C22.5171 54.9781 24.6917 50.7147 20.174 50.7147C19.1106 50.8169 18.0577 51.0095 17.027 51.2905C16.0523 51.5126 15.1219 51.7783 14.1939 52.0884C11.8432 52.9544 11.2146 53.7729 10.5599 55.4575C9.80645 57.7178 9.98409 60.1994 10.0721 62.5019C10.6602 74.064 13.1311 95.7677 17.1166 116.614C17.6043 119.141 18.1357 121.71 18.6235 124.236C19.6679 129.081 19.9742 133.097 24.7835 134.518C29.2162 135.848 34.119 135.071 38.655 134.164C44.1081 133.377 49.5097 132.267 54.8311 130.84C56.9318 130.319 59.0023 129.683 61.0333 128.935C62.7615 128.225 64.6229 127.25 65.2447 125.389C65.9093 123.527 65.4215 121.356 65.1558 119.493C62.7944 102.246 55.8733 59.1167 55.5815 57.6313ZM64.711 125.128C64.1842 126.812 62.495 127.742 60.8993 128.363C55.717 130.011 50.452 131.387 45.1259 132.485C44.8441 132.536 32.4658 134.508 31.3004 134.568C29.2088 134.774 27.0976 134.639 25.0492 134.168C24.029 133.951 23.0802 133.479 22.2905 132.798C21.5009 132.116 20.8959 131.246 20.5316 130.269C19.7914 128.056 19.2281 125.789 18.8471 123.488C13.9634 99.7042 11.2115 76.3718 10.5155 63.0379C10.4267 60.7339 10.2054 58.2959 10.8218 56.0356C11.3049 54.3449 11.8853 53.3725 14.6778 52.4904C15.6082 52.1803 16.5837 51.959 17.5584 51.7369C18.5983 51.3847 19.6992 51.2489 20.7935 51.338C22.8884 51.6734 23.0201 54.116 25.1365 54.7507C26.6358 55.25 28.0921 54.8618 35.4183 53.5983C36.4819 53.4215 37.5455 53.2438 38.609 52.9781C39.4692 52.7766 40.2724 52.3826 40.9582 51.8257C42.4444 50.5141 41.877 48.7384 43.6175 47.3495C45.4222 46.0608 48.2568 45.6818 50.0432 46.7292C51.7714 47.704 52.57 49.8755 53.1902 51.6481C54.7837 56.3043 55.3602 61.2209 56.1573 66.0517C56.9996 71.1053 63.9162 116.624 64.2676 119.145C64.5617 121.252 65.2921 123.268 64.711 125.128Z" fill="#191919"/>
<path d="M34.043 51.6488C34.1988 51.5464 34.3309 51.4117 34.4303 51.254C34.5298 51.0962 34.5942 50.9189 34.6194 50.7341C34.6446 50.5494 34.6299 50.3613 34.5763 50.1827C34.5227 50.0041 34.4314 49.839 34.3087 49.6986C33.3339 48.5018 31.1624 50.1419 31.9603 51.3831C32.077 51.5407 32.2245 51.673 32.3937 51.7722C32.5629 51.8713 32.7504 51.9352 32.945 51.96C33.1395 51.9848 33.3371 51.9701 33.5258 51.9166C33.7144 51.8631 33.8904 51.772 34.043 51.6488ZM33.8217 50.0531C34.1762 50.4965 33.8217 51.4712 33.2007 51.2499C33.0444 51.1879 32.9157 51.0716 32.838 50.9224C32.7604 50.7732 32.7391 50.6011 32.778 50.4375C32.8883 49.9719 33.4205 49.5661 33.8217 50.0531Z" fill="#191919"/>
<path d="M22.4767 76.6879C23.4197 76.4518 24.3855 76.3181 25.3572 76.289C25.3572 76.7936 27.4246 86.338 27.75 89.629C27.7479 89.6666 27.7553 89.7041 27.7715 89.738C27.7877 89.772 27.8122 89.8014 27.8427 89.8234C27.8732 89.8455 27.9087 89.8595 27.9461 89.8642C27.9834 89.8689 28.0213 89.8641 28.0563 89.8503C30.0732 89.2905 43.9829 87.1129 47.7777 85.9062C47.9553 86.1274 48.3987 86.083 48.3543 85.7729C47.8948 82.4245 46.9599 77.0148 46.5373 73.6297C46.4929 73.3196 46.4929 72.9651 46.4484 72.6549C47.0281 72.6549 46.6782 72.6105 47.4676 72.6105C48.0036 72.6105 48.5311 72.6105 49.0633 72.5661C49.124 72.5641 49.1828 72.5448 49.2327 72.5103C49.2826 72.4758 49.3216 72.4277 49.3449 72.3716C49.3683 72.3156 49.375 72.254 49.3643 72.1943C49.3536 72.1346 49.3259 72.0792 49.2846 72.0347C46.4929 69.5967 44.0993 66.7606 41.2631 64.3678C37.002 60.7452 34.5196 58.6212 34.3573 58.4949C34.1559 58.3417 33.9836 58.2246 33.8213 58.4734C29.9373 64.4518 26.0376 70.42 22.1222 76.3778C22.0333 76.511 22.2546 76.7323 22.4767 76.6879ZM34.1766 59.0048C44.1789 67.1978 44.2379 68.0937 48.4025 71.9451C47.7053 71.9217 47.0075 71.9663 46.319 72.0784C45.8321 72.1664 45.9209 72.6542 45.9645 73.0531C46.0702 74.1105 45.9645 73.6458 47.7409 85.4682C46.2172 85.789 29.6406 88.9781 28.2378 89.2737C28.1145 87.1757 26.2386 78.07 26.0219 76.8648C25.9775 76.5102 25.9775 75.8449 25.5785 75.7568C24.7006 75.7969 23.8266 75.9005 22.9637 76.0669C25.0494 72.9237 30.4767 64.759 34.1766 59.0048Z" fill="#191919"/>
<path d="M32.2261 82.5823C32.2254 82.6291 32.2341 82.6755 32.2516 82.7188C32.2692 82.7622 32.2953 82.8016 32.3284 82.8346C32.3614 82.8677 32.4008 82.8938 32.4441 82.9113C32.4875 82.9289 32.5339 82.9376 32.5806 82.9368C33.8211 82.8036 42.0202 81.2523 42.596 81.0754C42.6395 81.0687 42.6809 81.0521 42.717 81.0269C42.7531 81.0017 42.783 80.9687 42.8045 80.9302C42.8259 80.8917 42.8382 80.8489 42.8406 80.8049C42.8429 80.761 42.8352 80.717 42.8181 80.6765C42.2415 78.7707 40.5133 74.2952 40.3808 73.8962C40.3287 73.7772 40.2335 73.6823 40.1144 73.6305C39.8487 71.5471 39.2721 68.8885 37.0569 68.0463C34.72 67.1856 32.2246 69.0118 31.916 71.946C31.8716 72.2561 31.9604 74.7791 32.3586 74.7385C32.2705 74.7385 32.1817 74.7821 32.0485 74.7821C31.694 74.9154 32.0929 81.3427 32.2261 82.5823ZM33.2453 71.9016C33.2935 71.1443 33.626 70.4332 34.1764 69.9108C34.5904 69.5096 35.142 69.2816 35.7185 69.2733C36.295 69.265 36.8528 69.4772 37.2782 69.8663C38.3418 70.7523 38.7851 73.7661 38.7851 73.8105C36.8793 74.0762 35.1098 74.3465 33.2009 74.6527C33.1318 73.7362 33.1467 72.8154 33.2453 71.9016Z" fill="#191919"/>
<path d="M25.4893 101.24C24.1049 100.411 21.8622 101.338 21.5896 102.836C21.3599 104.557 23.9632 106.029 23.8055 107.268C23.9127 107.253 24.0172 107.223 24.1156 107.178C24.0599 106.735 23.9405 106.302 23.7611 105.893C23.5173 105.051 23.1594 104.246 22.6975 103.501C22.5199 103.235 22.9188 103.013 23.0965 103.279C23.1849 103.422 23.2875 103.556 23.4027 103.678C23.4471 103.722 23.6684 103.944 23.7128 103.899C23.8017 103.854 23.8461 103.544 23.8461 103.456C23.8829 103.296 23.8978 103.132 23.8905 102.968C23.8905 102.658 24.3331 102.658 24.3775 102.968C24.3775 103.102 24.3775 103.367 24.5551 103.367C24.7328 103.367 24.954 103.102 24.9985 102.968C25.1309 102.746 25.5743 102.836 25.3974 103.19C24.9943 103.967 24.7246 104.806 24.5995 105.672C24.5548 106.158 24.5548 106.648 24.5995 107.135H24.8652C24.854 106.537 25.0241 105.949 25.353 105.45C25.764 104.95 26.0794 104.379 26.2833 103.765C26.4388 103.315 26.4456 102.826 26.3027 102.372C26.1597 101.917 25.8746 101.521 25.4893 101.24Z" fill="#38A1FF"/>
<path d="M24.6034 103.899C24.4641 103.917 24.3229 103.886 24.2045 103.811C24.1279 104.189 23.9579 104.387 23.5835 104.387C23.7942 104.842 23.9577 105.317 24.0712 105.805C24.1157 105.583 24.1157 105.406 24.1601 105.229C24.2933 104.785 24.4702 104.343 24.6034 103.899Z" fill="#38A1FF"/>
<path d="M20.083 113.206C21.2254 112.964 30.7262 111.321 32.4031 110.902C32.4475 111.034 32.714 110.99 32.714 110.857C32.4957 108.464 30.4536 98.0694 30.4092 97.783C30.3837 97.7239 30.3396 97.6747 30.2837 97.6428C30.2278 97.6109 30.163 97.598 30.0991 97.6061C28.9467 97.8274 19.5952 99.512 18.8433 99.6444C18.4263 99.6969 18.0122 99.771 17.6029 99.8665C17.2928 99.9553 17.4252 100.265 17.4696 100.531C17.7759 101.598 19.5891 111.481 19.8632 113.073C19.8173 113.161 19.9498 113.206 20.083 113.206ZM25.534 107.356C25.5548 107.371 25.5716 107.391 25.5832 107.414C25.5948 107.438 25.6009 107.463 25.6009 107.489C25.6009 107.515 25.5948 107.54 25.5832 107.564C25.5716 107.587 25.5548 107.607 25.534 107.622C25.8441 107.799 25.6228 108.242 25.3571 108.331C25.8441 108.508 25.6634 109.04 25.6228 109.128C25.5209 109.283 25.3886 109.415 25.2341 109.518C25.0795 109.62 24.9059 109.69 24.7236 109.723C24.5414 109.756 24.3543 109.752 24.1736 109.711C23.993 109.67 23.8225 109.592 23.6726 109.484C23.5845 109.395 23.4513 109.305 23.4069 109.173C23.3745 109.053 23.3904 108.926 23.4513 108.818C23.3988 108.719 23.3543 108.615 23.3181 108.508C23.3181 108.419 23.3625 108.331 23.3625 108.242C23.2812 108.201 23.2132 108.137 23.1662 108.059C23.1192 107.98 23.0952 107.89 23.0968 107.799C23.1175 107.652 23.1788 107.514 23.2737 107.4C23.083 106.065 21.3816 105.242 20.8808 103.677C20.1274 101.019 23.939 99.2463 25.8885 100.709C26.2133 100.971 26.4767 101.301 26.6604 101.676C26.8441 102.051 26.9437 102.462 26.9521 102.879C26.9489 103.784 26.6363 104.66 26.0662 105.362C25.7154 105.968 25.5317 106.656 25.534 107.356Z" fill="#38A1FF"/>
<path d="M44.3249 95.2134C44.2994 95.1542 44.2554 95.1048 44.1995 95.0727C44.1436 95.0407 44.0787 95.0277 44.0148 95.0358C43.4022 95.1537 31.9289 97.2173 31.5614 97.3398C31.2551 97.4286 31.3838 97.7395 31.4282 98.0044C31.517 98.3153 33.334 107.71 33.7773 110.547C33.7773 110.68 33.9542 110.724 34.043 110.724C36.5469 110.193 46.7284 108.551 46.6771 108.331C46.491 106.324 44.3869 95.463 44.3249 95.2134ZM34.0875 107.311C34.043 107.135 34.2643 106.957 34.3532 106.824C35.1418 105.832 35.5504 104.59 35.5055 103.323C35.2389 103.35 34.9696 103.335 34.7077 103.279C34.3087 103.146 34.3532 102.658 34.3087 102.304L34.1763 100.709C34.0653 100.303 34.0653 99.8739 34.1763 99.4676C34.3976 99.1124 35.3723 99.1575 35.7268 99.1575C36.0377 99.1124 41.4443 98.8474 41.4443 99.0687C41.4443 99.2464 41.5768 102.348 41.5331 103.057C39.7598 103.19 37.9428 103.279 36.1732 103.279C36.6212 105.984 34.2352 108.198 34.0875 107.311ZM42.1978 101.816C42.1978 101.506 42.1089 100.265 42.1089 99.9554C42.2799 99.9631 42.4453 100.018 42.5865 100.115C42.7278 100.212 42.8392 100.346 42.9083 100.502C42.9774 100.659 43.0014 100.832 42.9776 101.001C42.9538 101.171 42.8831 101.33 42.7736 101.462C42.5896 101.592 42.3972 101.711 42.1978 101.816Z" fill="#38A1FF"/>
<path d="M45.433 94.7701C45.1267 94.8589 45.2554 95.169 45.2998 95.4347C45.5708 96.3842 47.4368 106.743 47.6489 107.976C47.6489 108.109 47.8258 108.154 47.9146 108.154C49.9139 107.73 57.9399 106.379 60.2347 105.805C60.2792 105.938 60.5449 105.893 60.5449 105.76C60.4568 104.785 58.3297 93.2188 58.1964 92.6866C58.1711 92.6282 58.1276 92.5795 58.0725 92.5476C58.0174 92.5158 57.9534 92.5025 57.8902 92.5097C56.734 92.731 45.8319 94.6805 45.433 94.7701ZM54.0747 101.063C53.9171 100.949 53.7346 100.873 53.5421 100.842C53.3495 100.811 53.1524 100.825 52.9667 100.885C52.3465 101.063 52.0808 101.595 51.6819 101.993C51.4598 102.215 51.0172 102.348 50.8396 102.038C50.7557 101.862 50.7197 101.667 50.7353 101.472C50.7509 101.278 50.8175 101.091 50.9284 100.93C51.1325 100.563 51.4116 100.243 51.7474 99.9913C52.0833 99.7394 52.4685 99.5609 52.8779 99.4677C53.4277 99.3456 54.0019 99.3998 54.5192 99.6226C55.0364 99.8454 55.4703 100.225 55.7592 100.709C56.0249 101.285 55.4928 102.038 54.8725 101.684C54.4774 101.55 54.3381 101.245 54.0747 101.063ZM53.0992 103.456C53.0221 103.403 52.9575 103.333 52.9098 103.252C52.8621 103.172 52.8325 103.081 52.8229 102.988C52.8134 102.895 52.8242 102.8 52.8546 102.712C52.885 102.623 52.9342 102.542 52.9989 102.474C53.0636 102.406 53.1423 102.353 53.2294 102.318C53.3166 102.283 53.4103 102.268 53.504 102.273C53.5977 102.278 53.6892 102.303 53.7723 102.347C53.8553 102.39 53.9279 102.451 53.9851 102.526C54.5249 103.062 53.6681 103.854 53.0992 103.456ZM54.5617 98.0496C53.8612 97.8808 53.1287 97.8979 52.4369 98.0994C51.7451 98.3009 51.1179 98.6796 50.6175 99.1981C50.1742 99.6407 49.8641 100.439 49.2875 100.749C49.237 100.781 49.1795 100.801 49.1198 100.807C49.06 100.813 48.9997 100.805 48.9437 100.784C48.8876 100.762 48.8374 100.728 48.7971 100.683C48.7568 100.639 48.7276 100.585 48.7117 100.527C48.446 99.6407 49.1551 98.7548 49.7309 98.1782C50.4203 97.4908 51.279 96.9976 52.2202 96.7486C53.1614 96.4996 54.1516 96.5036 55.0908 96.7601C55.9825 97.1218 56.7088 97.8007 57.1298 98.666C57.2117 98.8094 57.2405 98.977 57.2112 99.1395C57.1818 99.302 57.0962 99.449 56.9693 99.5546C56.8424 99.6603 56.6824 99.718 56.5173 99.7175C56.3522 99.717 56.1925 99.6583 56.0663 99.5519C55.7998 99.3306 55.7118 98.9761 55.4453 98.7096C55.2204 98.4095 54.9139 98.1803 54.5624 98.0496H54.5617Z" fill="#38A1FF"/>
<path d="M32.8028 112.408C32.7771 112.349 32.7329 112.3 32.6768 112.268C32.6208 112.236 32.5559 112.223 32.4919 112.231C31.3433 112.453 20.3938 114.358 20.0385 114.491C19.7284 114.58 19.8617 114.89 19.9061 115.156C19.9949 115.462 21.8119 124.862 22.2545 127.698C22.2545 127.832 22.4321 127.875 22.5209 127.875C23.9834 127.565 34.3127 125.659 34.841 125.527C34.8855 125.659 35.1512 125.616 35.1512 125.482C34.9521 124.021 32.8158 112.493 32.8028 112.408ZM25.2223 119.943C25.3045 120.821 25.4377 121.694 25.6213 122.557C25.6213 123.113 25.5156 123.198 25.1779 123.311C24.8498 123.417 24.4977 123.423 24.1663 123.328C23.8348 123.233 23.539 123.042 23.3165 122.779C23.092 122.52 22.9396 122.207 22.8748 121.87C22.81 121.534 22.8351 121.186 22.9474 120.863C23.0598 120.539 23.2555 120.251 23.5148 120.027C23.7742 119.803 24.0879 119.652 24.4245 119.588C24.7353 119.499 24.6909 119.411 24.7353 119.1C24.7559 118.614 24.8721 118.137 25.0774 117.696C25.2826 117.255 25.5728 116.859 25.9314 116.53C26.2763 116.254 26.6906 116.08 27.1285 116.025C27.5664 115.97 28.0109 116.038 28.413 116.22C28.8448 116.459 29.1871 116.832 29.3885 117.283C29.6162 117.731 29.7803 118.208 29.8762 118.701C30.2744 118.303 31.1611 118.524 31.6044 118.79C33.4214 119.809 32.4903 123.044 30.3188 122.601C30.0975 122.557 29.8762 122.469 29.8762 122.247C29.7334 121.128 29.5261 120.018 29.2553 118.923C29.2021 118.375 28.9682 117.86 28.5906 117.46C28.3778 117.268 28.1209 117.131 27.8426 117.061C27.5643 116.992 27.2732 116.992 26.9949 117.061C26.4633 117.196 26.0035 117.529 25.7101 117.992C25.2998 118.554 25.1265 119.254 25.2277 119.943H25.2223Z" fill="#38A1FF"/>
<path d="M46.7624 109.883C46.7372 109.823 46.6932 109.774 46.6372 109.742C46.5812 109.71 46.5163 109.697 46.4523 109.705C45.2999 109.926 34.3542 111.832 33.9989 111.965C33.6926 112.053 33.8213 112.364 33.8657 112.63C33.9545 112.94 35.7715 122.335 36.2148 125.172C36.2148 125.305 36.3917 125.349 36.4805 125.349C37.943 125.039 49.1146 123.133 49.1146 122.956C49.0227 121.982 46.8971 110.459 46.7624 109.883ZM44.5464 121.272C44.0449 121.553 43.4817 121.705 42.9071 121.715C42.0699 121.847 41.2266 121.936 40.3803 121.982C39.9813 121.982 39.5824 121.936 39.4048 121.538C39.1048 120.617 38.897 119.668 38.7845 118.705C38.4099 116.818 38.1582 114.908 38.0311 112.988C38.0056 112.943 37.9911 112.892 37.9889 112.84C37.9867 112.788 37.9967 112.736 38.0183 112.689C38.0398 112.641 38.0722 112.599 38.1129 112.567C38.1536 112.534 38.2014 112.511 38.2524 112.501C41.0855 112.075 42.1329 111.421 43.172 111.482C43.7034 111.526 43.6597 112.235 43.7478 112.63C44.1023 115.112 44.4132 117.593 44.7677 120.119C44.8121 120.563 44.9063 120.969 44.5464 121.272Z" fill="#38A1FF"/>
<path d="M60.6335 107.4C60.6082 107.341 60.5642 107.292 60.5082 107.26C60.4522 107.228 60.3873 107.215 60.3234 107.223C59.1672 107.445 48.1626 109.371 47.8257 109.483C47.5194 109.572 47.6488 109.882 47.6932 110.148C47.7813 110.459 49.5983 119.854 50.0416 122.69C50.0416 122.823 50.2193 122.867 50.3073 122.867C51.7698 122.557 62.9414 120.652 62.9414 120.474C62.8939 119.499 60.7668 107.932 60.6335 107.4ZM58.5064 117.194C58.8985 119.249 57.3357 119.032 57.2652 120.297C57.2652 120.341 57.2566 120.384 57.2399 120.424C57.2232 120.464 57.1987 120.501 57.1679 120.532C57.137 120.563 57.1004 120.587 57.0601 120.604C57.0198 120.621 56.9766 120.629 56.9329 120.629C56.8893 120.629 56.8461 120.621 56.8057 120.604C56.7654 120.587 56.7288 120.563 56.6979 120.532C56.6671 120.501 56.6426 120.464 56.6259 120.424C56.6092 120.384 56.6006 120.341 56.6006 120.297C56.5562 119.588 57.0439 119.145 57.4873 118.657C58.0631 117.948 57.8862 117.372 57.7086 116.53C57.4791 115.821 57.4947 115.057 57.753 114.358C57.975 113.87 58.5508 113.339 59.1266 113.516C59.3487 113.56 59.3043 113.827 59.1266 113.915C57.5034 114.456 58.2997 116.112 58.5064 117.194ZM55.936 117.593C55.9894 117.848 55.9767 118.112 55.8991 118.36C55.8215 118.608 55.6815 118.833 55.4926 119.011C55.0937 119.366 54.6948 119.632 54.6067 120.208C54.5623 120.429 54.5623 120.696 54.2966 120.74C54.0746 120.785 53.9421 120.563 53.9421 120.386C53.929 120.107 53.9824 119.829 54.0979 119.574C54.2135 119.32 54.3879 119.097 54.6067 118.923C54.9612 118.612 55.3602 118.302 55.3602 117.775C55.3158 117.198 54.9612 116.667 54.9168 116.046C54.8724 115.116 55.537 113.831 56.645 114.008C56.8671 114.052 56.8226 114.318 56.645 114.406C56.3491 114.478 56.0831 114.64 55.8843 114.871C55.6856 115.101 55.5641 115.388 55.537 115.691C55.4046 116.397 55.8173 116.97 55.936 117.593ZM53.72 117.86C53.8157 119.149 52.1542 119.378 52.3464 120.917C52.3908 121.316 51.7698 121.361 51.6817 121.006C51.5999 120.669 51.6057 120.317 51.6988 119.984C51.7918 119.65 51.9689 119.346 52.2131 119.1C52.6565 118.569 53.2323 118.258 52.9222 117.461C52.7559 117.159 52.6508 116.828 52.6129 116.486C52.5749 116.143 52.6048 115.797 52.7009 115.466C52.79 115.188 52.9597 114.943 53.1885 114.761C53.4172 114.58 53.6947 114.471 53.9857 114.447C54.0222 114.447 54.0577 114.459 54.0868 114.481C54.116 114.503 54.1372 114.534 54.1472 114.569C54.1573 114.604 54.1556 114.641 54.1425 114.675C54.1294 114.709 54.1055 114.738 54.0746 114.757C52.3502 115.965 53.658 117.018 53.72 117.86ZM51.2384 114.358C51.1977 114.37 51.155 114.374 51.1127 114.37C51.0705 114.365 51.0296 114.352 50.9924 114.331C50.9553 114.311 50.9226 114.283 50.8964 114.25C50.8701 114.216 50.8507 114.178 50.8395 114.137C50.5882 113.219 50.3959 112.287 50.2637 111.344C50.2622 111.296 50.2776 111.249 50.3073 111.211C50.337 111.172 50.3791 111.146 50.4263 111.135C50.4735 111.125 50.5228 111.131 50.5658 111.153C50.6089 111.176 50.6428 111.212 50.6618 111.256C50.9677 112.051 51.2194 112.865 51.4153 113.694C53.1442 113.295 59.7476 111.877 59.792 111.877C59.7476 111.832 59.57 110.236 59.4812 109.794C59.3931 109.129 60.0577 109.04 60.1466 109.616C60.2346 110.148 60.3234 110.68 60.3678 111.256C60.4123 111.611 60.5891 112.142 60.279 112.452C60.1435 112.497 53.3134 113.878 51.2384 114.358Z" fill="#38A1FF"/>
<path d="M41.7989 120.341C41.8988 120.341 41.9947 120.302 42.0653 120.231C42.136 120.16 42.1756 120.065 42.1756 119.965C42.1756 119.865 42.136 119.769 42.0653 119.698C41.9947 119.628 41.8988 119.588 41.7989 119.588C41.3112 119.544 41.3112 120.341 41.7989 120.341Z" fill="#38A1FF"/>
<path d="M122.012 64.7225C120.108 64.5694 118.201 65.2539 116.384 65.7861C112.338 66.9953 108.453 68.6923 104.817 70.8397C104.684 70.9285 104.817 71.1054 104.95 71.061C108.206 69.4797 111.551 68.0884 114.967 66.894C116.663 66.2518 118.413 65.7624 120.196 65.4315C124.509 64.8152 126.399 67.5885 125.16 70.3504C123.902 73.0365 120.566 73.8405 118.247 74.868C115.141 76.3323 112.123 77.9749 109.206 79.7876C109.118 79.8313 109.206 79.9645 109.295 79.9201C110.467 79.2042 111.573 78.8987 115.233 76.9951C120.604 74.427 120.321 74.806 121.881 74.0258C123.386 73.4221 124.669 72.3703 125.556 71.0127C125.959 70.3918 126.192 69.6758 126.231 68.9367C126.269 68.1975 126.113 67.4611 125.778 66.8014C125.352 66.1883 124.791 65.6818 124.138 65.3212C123.485 64.9606 122.757 64.7557 122.012 64.7225Z" fill="#191919"/>
<path d="M120.109 75.8013C117.426 78.8846 115.445 82.5136 114.302 86.4376C113.928 87.5166 113.661 88.63 113.505 89.7615C109.707 91.6604 104.842 96.1582 100.432 99.0686C99.0948 99.9591 96.2931 101.742 94.7142 102.038C93.9783 102.126 93.2343 102.126 92.4983 102.038C91.7449 101.949 69.6743 99.2899 68.3895 99.1574C67.5232 99.0356 66.6494 98.9762 65.7746 98.9798C65.7444 98.9832 65.7161 98.9964 65.694 99.0174C65.672 99.0383 65.6573 99.0659 65.6523 99.0959C65.6473 99.1259 65.6522 99.1567 65.6662 99.1837C65.6803 99.2107 65.7027 99.2324 65.7302 99.2455C66.3257 99.4107 66.9332 99.5293 67.5472 99.6C69.7394 99.9254 91.6239 102.649 91.7004 102.658C93.983 102.932 94.8054 103.034 96.9746 101.949C102.794 98.8442 106.902 94.8182 112.043 91.3572C112.619 90.9583 113.191 90.6038 113.727 90.2087C113.792 90.2136 113.855 90.1932 113.905 90.1519C113.954 90.1106 113.986 90.0515 113.992 89.9874C114.561 88.1995 114.642 86.74 115.721 84.2255C116.425 82.3595 117.332 80.5762 118.424 78.9077C119.045 77.933 119.665 77.0019 120.374 76.0746C120.551 75.8901 120.286 75.6688 120.109 75.8013Z" fill="#191919"/>
<path d="M65.4202 44.8234C63.6714 47.3357 62.8934 50.3632 62.0963 53.2461C61.1817 56.566 60.486 59.9423 60.0136 63.3533L59.8804 64.6834C59.8842 64.7307 59.9044 64.7752 59.9374 64.8092C59.9705 64.8433 60.0144 64.8648 60.0615 64.87C60.1087 64.8753 60.1562 64.864 60.196 64.838C60.2357 64.812 60.2652 64.7731 60.2793 64.7278C61.1675 61.498 61.2617 57.4819 63.8689 49.6596C64.2684 48.4367 64.7726 47.2506 65.3758 46.1144C67.9662 41.3326 71.8843 41.4229 76.9432 41.5493C80.7201 41.5854 84.4924 41.8221 88.2442 42.2583C89.915 42.4061 91.7756 42.6251 93.1186 43.632C91.3714 44.5961 89.8935 45.9826 88.82 47.6649C86.4303 51.5432 81.7534 65.3794 80.5772 70.0869C80.3767 70.7538 80.2285 71.4353 80.1339 72.1252C79.4992 72.2048 78.875 72.3535 78.2725 72.5685C78.0909 72.5061 77.9134 72.4322 77.7411 72.3472C74.9463 71.7883 64.0228 71.3656 61.2548 71.4606C61.1837 71.4606 61.1156 71.4888 61.0653 71.5391C61.015 71.5893 60.9868 71.6575 60.9868 71.7286C60.9868 71.7996 61.015 71.8678 61.0653 71.9181C61.1156 71.9683 61.1837 71.9966 61.2548 71.9966C65.9593 72.2952 66.836 71.9269 75.7909 72.7056C76.3532 72.8596 76.9397 72.9048 77.519 72.8388C76.4111 73.2814 75.3919 73.858 74.3284 74.3894C71.4562 75.8078 68.6604 77.3758 65.9524 79.0869C65.0702 79.5971 64.2392 80.191 63.4707 80.8603C62.983 81.3473 63.0718 82.1895 63.0274 82.8098C62.9978 83.5634 63.0126 84.3182 63.0718 85.0701C63.0237 85.0875 62.9827 85.1204 62.9554 85.1637C62.9281 85.207 62.9161 85.2582 62.9212 85.3091C62.9263 85.36 62.9482 85.4078 62.9836 85.4448C63.0189 85.4818 63.0656 85.506 63.1162 85.5135C63.9522 85.6629 64.7957 85.7664 65.643 85.8236C68.4348 86.0893 81.7304 87.5962 85.5857 88.0839C87.4027 88.3052 89.1753 88.7041 90.9923 88.8374C91.2592 88.9979 91.568 89.0749 91.879 89.0586C92.1003 89.0586 92.7212 88.8818 92.8093 88.8818C92.0094 92.9442 91.5352 97.064 91.3912 101.202C91.3912 101.512 91.9234 101.601 91.9678 101.291C92.2492 97.1892 92.7523 93.1059 93.4747 89.0586C94.1837 85.3358 94.9808 81.3917 96.8867 78.0678C100.577 71.7845 106.818 71.3411 108.897 73.6803C109.33 74.2117 109.616 74.8479 109.725 75.525C109.834 76.202 109.762 76.8958 109.518 77.5364C109.153 78.3441 108.615 79.0611 107.94 79.6358C107.266 80.2106 106.472 80.6287 105.617 80.8603C103.894 81.2889 102.109 81.4089 100.344 81.2148C100.224 81.2076 100.104 81.2226 99.9893 81.2592C99.9468 81.2891 99.9125 81.3289 99.8892 81.3753C99.866 81.4217 99.8546 81.4731 99.856 81.5249C98.438 86.2225 97.1968 90.9645 96.0444 95.7509C95.6212 97.3649 95.325 99.0095 95.1585 100.67C95.1585 100.803 95.1585 100.981 95.2917 100.981C95.4242 101.024 95.513 100.847 95.5574 100.714C96.9725 94.2623 98.6131 87.8619 100.476 81.5249C101.578 81.6771 102.688 81.7511 103.8 81.7462C109.16 81.4108 111.942 76.7431 109.65 73.5915C107.629 70.9927 102.516 70.7714 98.5712 74.8327C98.5189 74.7507 98.4407 74.6885 98.3491 74.6558C93.9035 74.0433 89.8828 73.8863 85.7633 72.75C82.3544 71.8978 81.8529 72.041 80.6668 72.041C81.2901 69.9498 82.8759 64.2255 85.4969 57.0172C86.3529 54.7522 88.2825 49.4367 89.663 47.4888C91.0419 45.5878 92.978 44.1629 95.2029 43.4114C97.9502 42.4811 100.875 42.6136 103.756 42.8356C106.016 42.9681 108.321 43.1902 110.581 43.4114C113.606 43.7139 117.99 43.9888 120.065 45.6274C122.385 47.4834 120.573 53.0256 120.065 56.1305C119.622 58.7009 119.223 61.2714 118.824 63.8419C118.78 64.0195 118.824 64.2852 119.002 64.2852C119.134 64.2852 119.223 64.1075 119.223 63.9751C120.065 59.4574 120.951 54.9345 121.616 50.3694C122.714 43.0454 117.049 43.5676 106.681 42.3479C102.821 41.8823 98.9556 41.7514 95.0252 42.8356C94.5643 43.0305 94.0905 43.1932 93.6072 43.3226C92.546 42.4285 91.225 41.9001 89.8399 41.8157C85.2389 41.219 80.6069 40.8922 75.9677 40.8372C71.2319 40.8372 68.153 40.8984 65.4202 44.8234ZM91.1692 88.1666C90.988 87.795 90.9409 87.3722 91.0359 86.9698C91.1248 86.5265 91.1692 86.0387 91.258 85.5961C91.2881 85.1758 91.3623 84.7598 91.4793 84.355C91.5504 84.1744 91.658 84.0103 91.7952 83.8731C91.9325 83.7358 92.0965 83.6282 92.2771 83.5571C93.6294 82.956 93.5788 83.0854 94.2266 82.7592C93.6866 84.5631 93.2575 86.3983 92.9418 88.2547C92.3215 88.3435 91.5543 88.7516 91.1692 88.1666ZM81.4188 72.6551C83.6936 72.6742 86.6025 73.7875 88.9992 74.1175C92.0566 74.6535 95.1148 74.871 98.173 75.2699C96.4192 77.249 95.1319 79.5963 94.4058 82.139C93.9233 82.2907 93.4499 82.4697 92.9877 82.675C92.4974 82.8388 92.0228 83.0464 91.5696 83.2952C91.5252 83.2064 91.4808 83.162 91.392 83.162C87.4831 82.4644 70.1461 80.9461 66.1752 80.9461C66.1575 80.9461 66.1406 80.9531 66.1281 80.9656C66.1156 80.9781 66.1086 80.995 66.1086 81.0127C66.1086 81.0303 66.1156 81.0473 66.1281 81.0598C66.1406 81.0723 66.1575 81.0793 66.1752 81.0793C76.6653 82.1436 87.1623 83.0402 91.2136 83.6942C90.8829 84.3266 90.6866 85.0205 90.637 85.7324C90.3791 86.5678 90.3637 87.4592 90.5926 88.3029C88.0428 87.8435 81.6584 86.9897 80.7541 86.8848C72.5994 85.8542 68.3911 85.5831 66.1293 85.2899C64.0404 85.0992 63.9998 85.0272 63.4922 85.0272C63.4922 83.5104 63.4991 82.577 63.5588 82.0984C63.5516 81.7824 63.6449 81.4722 63.8253 81.2125C64.8775 80.415 65.9722 79.6753 67.1048 78.9966C69.3643 77.5785 71.7579 76.3373 74.1063 75.1405C76.3667 73.9843 78.7595 72.6328 81.4188 72.6551Z" fill="#191919"/>
<path d="M41.2668 43.2721C42.8625 40.8349 45.9644 40.4803 48.6236 40.2146C52.5333 39.8231 56.4757 39.8974 60.3679 40.4359C62.5395 40.7422 64.6222 41.367 66.7937 41.6771C66.9713 41.7215 67.0602 41.4114 66.8825 41.3226C65.9499 40.955 64.9857 40.6731 64.0019 40.4803C61.0608 39.8229 58.0628 39.4519 55.0501 39.3724C52.3105 39.3119 47.24 39.4443 44.6366 40.259C43.8489 40.4364 43.1069 40.7764 42.4582 41.2571C41.8095 41.7378 41.2683 42.3488 40.8694 43.0508C40.6466 43.3165 41.0899 43.5829 41.2668 43.2721Z" fill="#191919"/>
<path d="M120.109 47.6152C120.197 47.4827 119.976 47.3495 119.887 47.4827C119.532 48.0141 119.178 48.5018 118.824 49.0784C117.872 50.7511 117.028 52.4828 116.297 54.263C114.742 57.9219 113.598 61.7418 112.884 65.6528C112.841 66.0073 113.372 66.0517 113.461 65.7416C114.482 60.8253 116.089 56.0493 118.247 51.5156L119.178 49.6542C119.445 48.9555 119.756 48.2745 120.109 47.6152Z" fill="#191919"/>
<path d="M118.114 99.7332C117.319 99.6489 108.909 98.786 103.977 98.5364C103.843 98.5364 103.799 98.8028 103.932 98.8028C106.982 99.1597 104.019 99.1298 117.648 100.358C117.648 100.358 87.0814 119.077 84.7866 120.607C83.8563 120.429 82.8371 120.429 81.9061 120.341C81.8203 120.333 73.086 119.682 72.9987 119.676C71.8632 119.588 70.7248 119.543 69.5859 119.543C69.4527 119.543 69.3647 119.809 69.5415 119.809C72.2437 120.239 79.256 120.736 83.0178 121.05C83.5761 121.124 84.1394 121.154 84.7024 121.138C84.7904 121.183 84.8349 121.138 84.9237 121.095C95.2813 114.647 113.386 104.239 118.471 100.543C119.092 100.088 119.111 99.8381 118.114 99.7332Z" fill="#191919"/>
<path d="M149.275 97.3069C145.722 95.6223 142.354 93.4018 138.677 91.9776C139.032 88.8758 139.386 85.8176 139.962 82.7126C143.915 61.4331 155.433 34.0624 143.331 20.4467C139.134 15.7116 132.405 14.0561 127.377 16.9895C127.016 16.711 126.584 16.5386 126.13 16.4916C125.676 16.4447 125.218 16.5251 124.807 16.7238C124.585 16.8127 124.762 17.1228 124.939 17.0784C125.39 16.9775 125.861 17.0027 126.298 17.1513C126.736 17.2999 127.125 17.566 127.422 17.9206C128.509 19.1458 127.771 20.7438 127.82 20.89C124.36 14.9589 114.604 15.6343 110.802 20.0922C110.713 20.2254 110.581 20.3579 110.492 20.4911C109.605 21.377 110.226 22.8395 110.758 23.7706C111.457 24.8994 112.341 25.9031 113.372 26.74C113.372 26.6511 113.461 26.3854 113.461 26.341C112.338 25.1427 110.241 22.9038 110.669 21.3334C111.201 19.3387 114.88 22.707 115.5 23.2384C117.239 24.6984 118.853 26.3001 120.327 28.0271C121.094 28.87 121.791 29.7742 122.41 30.7308C123.133 31.6089 123.608 32.6647 123.784 33.7882C123.92 34.7408 122.615 34.204 121.701 33.7882C120.527 33.242 119.449 32.5086 118.51 31.6167C118.233 31.6827 117.952 31.7273 117.668 31.7499C117.89 31.9712 118.156 32.1489 118.377 32.3702C118.865 32.7691 119.353 33.1236 119.84 33.4781C120.593 34.0141 124.139 36.1374 124.405 34.1872C124.626 32.2821 123.119 30.5118 122.011 29.0907C119.627 26.0178 116.786 23.3277 113.588 21.1136C112.99 20.6145 112.272 20.2787 111.506 20.1389C117.478 14.8287 127.307 17.1434 128.121 24.1718C128.696 29.1986 125.432 33.2568 125.116 34.0991C124.983 34.3648 125.337 34.7193 125.559 34.4536C126.109 33.8169 126.558 33.0991 126.889 32.3257C128.62 29.0554 129.657 24.7009 127.952 21.2912C128.017 21.3178 128.09 21.3188 128.156 21.2941C128.221 21.2694 128.275 21.2208 128.307 21.158C128.553 20.5562 128.638 19.9003 128.553 19.2554C128.467 18.6106 128.215 17.9994 127.82 17.4827L127.642 17.3058C132.428 14.9122 138.19 16.3747 141.961 20.0531C150.154 28.0662 148.239 42.6696 145.86 53.8205C143.479 65.3887 138.605 80.3857 137.883 91.934C137.211 92.1035 136.557 92.3411 135.933 92.643C132.754 93.9217 129.659 95.4017 126.668 97.0741C126.004 97.4891 126.629 97.8168 127.023 97.6063C128.205 98.057 129.44 98.355 130.698 98.493C132.249 98.7587 133.8 98.8475 135.351 99.0688C139.802 99.5076 144.294 99.208 148.647 98.1821C148.758 98.1461 150.533 97.9026 149.275 97.3069ZM148.338 97.6063C142.056 98.8181 135.597 98.7879 129.326 97.5174C128.839 97.4286 128.396 97.2962 127.908 97.2073C128.317 97.0029 136.187 93.3314 137.966 92.483C138.468 92.2441 138.417 92.3107 138.788 92.5121C140.549 93.4661 148.176 97.6063 148.338 97.6063Z" fill="#191919"/>
<path d="M119.443 30.8633C119.904 30.6558 120.28 30.2959 120.507 29.8441C120.524 29.7916 120.525 29.7348 120.51 29.6817C120.494 29.6286 120.462 29.5817 120.418 29.5476C120.374 29.5135 120.321 29.4939 120.265 29.4915C120.21 29.489 120.155 29.5039 120.109 29.534C119.798 29.7116 119.532 30.0218 119.222 30.1986C116.27 31.9483 112.592 28.3847 115.322 24.6588C115.5 24.4375 115.145 24.2162 114.968 24.3931C114.387 24.9819 113.986 25.7245 113.814 26.5333C113.641 27.3421 113.703 28.1834 113.992 28.9582C114.201 29.462 114.513 29.9161 114.909 30.2907C115.305 30.6652 115.776 30.9518 116.291 31.1317C116.806 31.3116 117.352 31.3807 117.896 31.3344C118.439 31.2881 118.966 31.1276 119.443 30.8633Z" fill="#38A1FF"/>
<path d="M104.464 28.8249C105.638 28.5989 106.794 28.2887 107.923 27.8969L111.38 26.9666C111.439 26.9489 111.488 26.9086 111.517 26.8545C111.547 26.8005 111.553 26.7371 111.535 26.6783C111.518 26.6195 111.477 26.5701 111.423 26.541C111.369 26.512 111.306 26.5056 111.247 26.5232C110.064 26.7361 108.895 27.0173 107.745 27.3655C106.593 27.6464 105.477 28.063 104.422 28.6067C104.331 28.6917 104.376 28.8249 104.464 28.8249Z" fill="#38A1FF"/>
<path d="M108.765 33.7881C108.365 34.1441 108.009 34.5458 107.702 34.9848C107.692 35.0034 107.688 35.0247 107.691 35.0456C107.694 35.0665 107.704 35.0859 107.718 35.1009C107.733 35.1158 107.753 35.1256 107.774 35.1287C107.794 35.1318 107.816 35.1281 107.834 35.1181C108.691 34.5414 109.505 33.9045 110.272 33.2123C111.07 32.5476 111.912 31.9274 112.754 31.2214C112.931 31.0882 112.709 30.8225 112.533 30.955C111.605 31.4929 110.728 32.115 109.914 32.8133C109.501 33.1008 109.116 33.4272 108.765 33.7881Z" fill="#38A1FF"/>
<path d="M115.942 39.1956C116.153 38.8141 116.274 38.3897 116.297 37.9544C116.386 37.511 116.43 37.1121 116.519 36.6688C116.651 35.7829 116.829 34.9406 116.873 34.0547C116.876 34.0096 116.861 33.9653 116.832 33.9308C116.803 33.8963 116.762 33.8739 116.717 33.8683C116.672 33.8627 116.627 33.8742 116.59 33.9005C116.553 33.9269 116.528 33.966 116.519 34.0103C116.259 34.8504 116.066 35.71 115.942 36.5807C115.854 37.0233 115.765 37.423 115.721 37.8656C115.611 38.2847 115.566 38.7183 115.588 39.1512C115.588 39.2392 115.81 39.328 115.942 39.1956Z" fill="#38A1FF"/>
</svg>
