<svg width="155" height="156" viewBox="0 0 155 156" fill="none" xmlns="http://www.w3.org/2000/svg">
<path d="M42.9815 100.689C43.8848 101.144 44.3403 100.92 44.5255 100.388C44.7108 99.8549 44.3017 99.3377 43.3212 99.2605C43.3328 99.132 43.3059 99.003 43.244 98.8899C44.2245 98.6583 44.6027 98.2877 44.4483 97.6856C44.2939 97.0834 43.5451 96.8518 42.5724 97.5312C42.3651 97.3326 42.1374 97.1567 41.893 97.0062C42.2713 95.8791 42.2713 95.4622 41.5919 95.2769C40.9126 95.0916 40.4648 95.6475 40.4648 96.7051H40.1637C39.9398 95.6475 39.3377 95.1611 38.6197 95.578C37.9017 95.9949 38.1642 96.4041 38.7664 97.3073C38.6197 97.454 38.4653 97.5312 38.3958 97.6856C37.7936 97.5312 36.4349 96.9136 36.2882 97.7551C36.1415 98.5966 37.3382 98.8127 37.9403 99.0366V99.4844C36.8904 99.716 36.4349 100.087 36.736 100.766C37.0371 101.445 37.562 101.445 38.4653 100.843C38.6297 101.077 38.8335 101.281 39.0675 101.445C39.0675 101.445 38.4653 102.727 39.3685 102.989C40.2718 103.368 40.5034 102.086 40.5034 102.086C40.6568 102.099 40.8108 102.072 40.9512 102.009C41.1056 102.387 41.4066 103.437 42.2327 103.066C43.0587 102.696 42.4566 101.785 42.3099 101.407C42.5793 101.214 42.8071 100.97 42.9815 100.689ZM41.1056 100.465C40.8926 100.558 40.6582 100.59 40.4282 100.557C40.1982 100.525 39.9816 100.429 39.8025 100.281C39.6235 100.134 39.4888 99.939 39.4136 99.7192C39.3383 99.4995 39.3254 99.2632 39.3763 99.0366C39.3833 98.8714 39.447 98.7137 39.5567 98.59C39.6663 98.4662 39.8153 98.384 39.9784 98.3572C41.2368 97.7551 42.7422 99.4844 41.0901 100.465H41.1056Z" fill="#3D9CFB"/>
<path d="M50.7012 118.445C53.1871 117.472 54.5612 117.773 53.2643 115.743C50.4773 114.608 50.2534 114.083 49.1958 111.883C48.4238 110.223 47.8448 108.27 48.9719 106.541C47.0959 103.306 47.9914 101.947 42.5025 104.433C38.8895 106.085 39.9471 107.444 40.5493 108.718C41.6764 110.903 44.4557 116.391 45.4361 117.827C46.4166 119.263 47.4819 119.665 50.7012 118.445Z" fill="#3D9CFB"/>
<path d="M43.7997 54.1916C42.5181 58.1828 43.4986 66.2349 43.6453 69.1685C43.8692 73.0826 43.5681 75.414 44.4173 75.8618C45.0194 76.1629 45.7683 76.0857 45.6216 73.5458C45.0889 62.5601 45.0194 59.4026 45.6216 54.5081C45.83 52.9872 44.2474 52.8405 43.7997 54.1916Z" fill="#3D9CFB"/>
<path d="M68.2496 52.161C66.8986 51.111 65.6171 52.3154 66.5203 53.0642C69.0062 55.0946 71.1524 58.9315 73.5147 60.8924C74.8734 62.0967 75.6995 60.6608 75.0973 59.9891C74.4952 59.3175 70.5811 53.9675 68.2496 52.161Z" fill="#3D9CFB"/>
<path d="M20.4696 70.8202C22.0136 70.8202 26.5685 62.3976 28.0739 60.7378C29.5793 59.078 31.1619 56.4531 32.3585 54.1912C33.0379 52.8401 32.289 51.713 31.4553 52.4619C30.6215 53.2107 29.9113 55.4727 28.7455 57.0553C27.3945 58.9313 25.6575 59.9889 24.237 62.5443C22.0522 66.3039 19.9446 69.392 19.8674 69.7703C19.7208 70.4419 20.0218 70.8202 20.4696 70.8202Z" fill="#3D9CFB"/>
<path d="M32.0575 47.0966C32.513 48.6792 35.2922 47.9999 43.2671 47.9999C51.2419 47.9999 57.7885 48.6792 65.0145 47.9227C68.5503 47.5521 67.8709 45.9695 65.8405 45.9695C63.2852 45.9695 55.4571 46.4944 50.5702 46.1934C45.6834 45.8923 37.9248 46.0467 33.4162 46.1934C32.8913 46.2165 31.9108 46.5176 32.0575 47.0966Z" fill="#3D9CFB"/>
<path d="M58.8462 66.0805C60.5755 66.4588 58.6223 59.6111 58.0201 57.1252C57.418 54.6394 56.9625 54.2688 56.2136 54.2688C55.4648 54.2688 55.3876 54.871 55.5343 55.3959C57.8657 63.3708 57.4952 65.7794 58.8462 66.0805Z" fill="#3D9CFB"/>
<path d="M89.6955 108.085C93.9106 104.225 99.5926 108.556 100.604 106.649C100.691 106.419 100.685 106.164 100.587 105.939C100.489 105.714 100.307 105.536 100.079 105.444C94.8834 103.491 90.5215 103.939 88.4139 106.803C88.2492 106.974 88.1581 107.203 88.1603 107.44C88.1625 107.678 88.2578 107.905 88.4257 108.073C88.5937 108.241 88.8207 108.336 89.0582 108.338C89.2956 108.34 89.5245 108.249 89.6955 108.085Z" fill="#001434"/>
<path d="M35.9716 44.9351C45.2357 44.109 52.9017 44.9351 58.6223 44.9351C63.208 44.9351 64.9373 44.2634 64.2657 43.3911C63.3624 42.1867 52.9017 35.5629 49.5975 35.671C46.5867 35.8177 39.9706 39.2763 35.3771 43.723C34.5279 44.4719 34.7673 45.0123 35.9716 44.9351Z" fill="#001434"/>
<path d="M68.0254 134.85C65.9179 138.162 61.8108 140.91 56.592 142.076C56.4486 142.11 56.3189 142.187 56.22 142.296C56.1212 142.406 56.0579 142.543 56.0385 142.689C56.0258 142.786 56.0329 142.885 56.0593 142.979C56.5148 144.106 61.9343 142.825 65.3929 140.347C68.1721 138.239 69.9091 135.607 69.0754 134.626C68.9053 134.52 68.701 134.485 68.5053 134.527C68.3096 134.568 68.1376 134.684 68.0254 134.85Z" fill="#001434"/>
<path d="M38.4571 124.296C40.7731 128.21 42.9656 128.056 46.1308 127.23C48.084 126.705 54.3296 124.914 56.8926 123.617C58.3208 122.845 57.6646 121.965 56.2904 122.49C54.1829 123.262 50.1144 124.667 45.7526 125.801C43.2667 126.473 41.6918 126.851 39.7309 123.54C36.6429 118.352 24.2367 95.477 23.3335 92.7673C22.4997 90.2814 25.2094 89.8337 26.1899 89.6098C27.317 89.3782 27.4714 90.8141 28.5985 91.3391C29.9496 91.9413 35.2224 90.8141 37.9244 89.9109C40.1401 89.1389 38.5729 87.3246 39.9625 87.0467C41.0234 86.7926 42.1264 86.7689 43.1972 86.9772C44.5482 87.8033 48.9101 96.1564 49.8905 98.1096C50.871 100.063 52.1525 99.3911 51.697 98.4879C50.4927 96.002 46.293 87.3478 44.1005 85.7729C43.2667 85.1707 40.6341 85.1707 38.8276 85.7729C37.8549 86.074 37.8549 87.1239 37.8549 87.6489C38.1483 89.1234 30.019 90.3741 29.2007 89.9649C28.3824 89.5557 28.2203 87.7879 26.1127 88.0889C23.5573 88.4595 20.9248 90.0884 22.0519 93.2768C23.1019 96.3031 35.6701 119.579 38.4571 124.296Z" fill="#001434"/>
<path d="M149.133 88.4285C149.735 86.4676 152.445 77.4429 149.588 64.6507C147.782 56.3748 153.271 57.3553 148.044 40.4946C145.559 32.2959 148.492 22.5918 137.236 14.2464C126.559 6.34873 102.403 13.4203 71.1061 10.4867C25.0559 6.27153 10.3106 8.68019 6.77477 17.6355C2.10412 29.5939 6.84425 35.9938 5.79432 46.4468C1.85708 84.8927 5.02231 67.3682 27.7656 47.049C42.1327 34.2568 48.3782 33.2841 50.1075 33.3613C56.5847 33.5851 77.4212 49.5734 84.3461 57.1314C80.8875 58.6754 80.2081 60.3661 79.714 64.6584C70.7587 65.0367 65.4164 74.4398 72.488 78.2766C67.9718 81.5114 68.2729 87.7569 72.6424 91.4471C68.4967 93.9252 66.0958 99.8697 66.3969 105.212C64.2121 102.502 61.1241 101.228 57.0633 101.452C54.5516 96.1427 51.7634 90.9683 48.7102 85.9504C45.1744 80.4614 42.1173 81.1176 32.0117 82.569C23.288 83.9046 13.4835 86.429 16.9575 95.1296C8.60442 96.7508 10.2025 109.998 19.8912 111.836C15.5293 119.208 21.0955 129.592 28.0204 134.332C29.6725 137.42 32.6525 144.638 33.741 146.599C34.4126 147.804 35.1692 146.669 34.7137 145.318C33.8877 142.685 32.0812 138.617 31.0312 136.285C45.6994 144.26 66.0649 136.285 70.0022 126.203C73.7696 133.205 76.7804 138.555 82.4932 140.802C87.3106 142.685 93.78 142.461 98.4429 136.941C106.873 147.317 130.095 144.391 132.458 133.406C132.681 132.356 131.477 131.151 131.099 132.804C130.327 136.038 124.923 141.296 115.659 141.535C103.7 141.836 99.9329 135.66 99.709 135.359C99.184 134.687 98.4892 134.293 97.6786 135.289C89.4104 145.395 72.0248 137.937 76.3095 124.373C89.2715 136.725 125.131 135.413 136.356 122.945C140.039 121.741 149.743 116.174 150.8 107.296C152.144 95.5001 147.929 92.2654 149.133 88.4285ZM49.7447 28.7601C48.9727 28.5362 47.7838 25.6026 48.4632 20.6309C48.8461 18.4469 49.0213 16.232 48.9881 14.0148C48.9881 12.9571 50.5321 12.656 50.7174 14.1614C51.0957 16.269 50.6479 19.8048 50.5707 21.3102C50.2697 27.1775 51.474 29.2851 49.7447 28.7601ZM130.172 35.5152C133.106 32.4271 138.603 33.3381 140.633 35.2913C144.624 39.1513 143.868 47.103 134.611 52.9702C132.434 54.3985 131.523 52.6692 132.504 52.067C137.321 49.0562 140.633 44.4704 140.788 40.7803C140.934 35.739 135.198 33.8322 131.006 36.7967C130.111 37.4297 129.122 36.6577 130.172 35.5152ZM131.076 75.9992C126.336 75.9992 125.672 77.5432 124.081 77.5432C123.101 77.5432 122.954 76.4161 123.703 75.8139C125.733 74.4629 131.979 73.4979 132.28 75.2118C132.357 75.7831 132.056 76.0147 131.076 76.0147V75.9992ZM131.608 65.0136C131.678 66.2179 130.528 66.5576 130.327 65.4613C129.207 59.1386 120.762 56.3285 115.581 58.0887C115.126 58.2431 114.447 58.1659 114.748 57.3166C115.875 54.4834 130.937 55.4793 131.608 65.029V65.0136ZM114.076 68.5494C109.552 68.4336 105.121 70.0934 102.789 72.7645C102.017 73.6678 100.983 72.6873 101.361 71.5602C102.859 67.345 113.798 65.7084 114.748 67.7001C114.964 68.1942 114.601 68.5725 114.076 68.5648V68.5494ZM121.595 28.405C129.802 31.0375 127.694 44.0536 124.228 47.821C123.556 48.593 122.12 48.0448 123.402 45.7134C127.015 39.1668 125.131 31.8172 120.993 30.1343C117.38 28.7061 112.872 31.6783 111.667 40.5178C111.444 42.4015 110.008 41.0505 110.008 39.3906C109.938 34.9284 113.775 25.9037 121.595 28.3818V28.405ZM99.4774 43.4591C103.013 41.0505 110.61 45.9373 112.872 49.2492C113.698 50.4535 112.656 51.0402 111.513 50.0212C109.66 48.3459 107.151 45.8832 103.237 44.9105C99.6241 44.0767 98.4969 46.1303 99.377 50.3995C99.5855 51.3799 97.9488 51.3799 97.7249 50.4767C97.2231 48.3228 96.8449 45.1653 99.4774 43.436V43.4591ZM89.1711 54.8925C94.9226 52.978 106.325 54.5915 109.637 58.9533C110.162 59.6327 109.035 60.011 108.579 59.7794C103.175 56.2436 95.2159 55.5256 89.8428 56.7762C89.7176 56.8205 89.5849 56.8396 89.4523 56.8325C89.3197 56.8254 89.1898 56.7922 89.07 56.7349C88.9503 56.6775 88.843 56.5971 88.7544 56.4982C88.6657 56.3993 88.5975 56.2839 88.5535 56.1586C88.4648 55.9058 88.48 55.628 88.5958 55.3863C88.7115 55.1446 88.9184 54.9587 89.1711 54.8694V54.8925ZM87.2874 66.7043C88.1907 64.1489 96.621 62.2652 97.2231 63.3923C97.8253 64.5195 93.3091 64.5504 89.0167 67.6847C88.0594 68.3641 86.9091 67.8082 87.2874 66.6811V66.7043ZM85.4809 70.6955C85.5653 72.1769 85.9239 73.6297 86.5386 74.9802C84.9586 74.332 83.274 73.9763 81.5668 73.9302C82.6404 72.5933 83.9714 71.4855 85.4809 70.6724V70.6955ZM20.3235 87.8495C22.8788 85.6648 34.1656 83.7811 40.3339 83.2175C42.4415 83.0708 44.8502 83.5958 46.1317 85.5335C49.4822 90.6905 52.4737 96.0714 55.087 101.638C53.3448 101.845 51.6992 102.55 50.3469 103.668C44.7035 93.4389 45.3056 89.3009 34.2428 94.6432C32.058 95.6931 31.6874 98.4029 33.0385 100.819C34.32 103.074 42.5959 118.722 43.2676 120.004C45.3056 123.995 49.8142 121.733 53.9521 120.305C55.4575 119.78 56.438 118.954 56.2141 117.525C58.9933 117.749 61.1781 117.448 61.7803 118.653C63.5096 122.266 62.7453 123.231 62.0042 124.142C61.4715 124.813 58.6228 126.458 47.4827 130.387C37.1687 134.023 34.7986 127.87 26.2679 110.601C18.6328 95.3612 15.3981 92.0879 20.3235 87.8264V87.8495ZM54.7087 117.186C55.1565 118.313 54.5543 118.614 53.5044 118.992C50.7174 120.042 46.2089 122.227 44.6263 119.44C43.8543 118.166 35.5938 102.51 34.32 100.14C32.1352 96.1563 36.5742 95.0987 39.5079 94.1954C44.0782 92.6514 44.8116 95.9942 49.212 104.803C46.7261 108.03 46.8419 115.032 54.7087 117.17V117.186ZM17.6523 97.021C18.7795 99.5763 20.8871 103.869 24.199 110.415C11.5535 111.241 11.1829 97.6386 17.6909 97.0055L17.6523 97.021ZM55.4575 135.876C45.3751 140.161 30.9309 137.829 23.9365 127.971C24.0832 126.164 26.0441 124.111 27.3951 123.231C27.4844 123.192 27.5635 123.133 27.6258 123.059C27.6882 122.984 27.732 122.896 27.7538 122.801C27.7756 122.706 27.7748 122.608 27.7514 122.513C27.7279 122.419 27.6826 122.331 27.619 122.258C26.7157 120.521 23.2571 123.756 22.4311 125.863C20.1691 121.355 18.517 115.557 22.2072 112.245C23.1597 112.295 24.1147 112.272 25.0636 112.175C32.7374 125.261 34.8449 137.451 48.1621 132.248C61.2862 127.129 68.0258 127.206 63.4324 117.95C61.5564 114.09 54.2532 117.271 51.1729 113.364C47.5599 109.373 50.2697 103.429 56.438 103.328C62.8302 102.502 66.3737 106.941 67.8019 112.886C69.6084 118.892 72.6888 128.928 55.4575 135.876ZM73.8931 129.329C68.8828 120.737 71.7237 125.608 71.1139 118.869C72.2083 120.476 73.4684 121.964 74.8735 123.308C74.0062 125.2 73.6572 127.289 73.8622 129.36L73.8931 129.329ZM136.117 120.598C124.382 135.096 80.0614 135.722 70.3573 114.051C67.2693 107.281 67.5703 97.8393 73.3681 93.5161C75.5529 96.3725 81.3429 99.6072 86.0831 98.1018C85.1798 99.7539 85.6353 103.367 87.0635 102.919C88.7928 102.394 86.7624 98.5496 89.1711 96.3725C92.0275 93.8866 95.9416 97.1445 96.8912 95.392C97.8407 93.6396 92.8227 92.9139 91.4871 93.4389C96.4511 84.8619 86.0831 77.7903 78.0928 78.6163C78.6689 77.6285 79.2977 76.6724 79.9765 75.7522C88.098 75.4511 89.7578 80.2684 91.3327 80.4228C92.3904 80.4923 92.3904 79.1413 90.7306 77.5587C93.7414 77.6359 97.0379 75.6441 99.1609 75.0033C101.554 74.2776 98.6359 80.9478 105.707 82.5304C110.448 83.5803 121.734 76.6554 120.306 80.2684C119.995 81.0241 119.847 81.8372 119.872 82.6542C119.897 83.4712 120.095 84.2735 120.453 85.0085C114.732 82.6925 107.815 83.8814 108.186 86.1357C108.263 86.6684 108.958 86.815 109.39 86.6684C116.338 83.5803 122.56 89.1465 125.347 89.0693C126.999 88.9998 131.439 87.1161 129.933 90.2736C123.911 102.626 134.148 96.2181 138.734 100.31C144.323 105.281 142.1 113.241 136.117 120.629V120.598ZM82.5473 80.7934C94.1274 82.4532 92.9308 97.7235 81.8679 96.4497C82.2462 92.3426 82.6245 85.4177 82.5473 80.8243V80.7934ZM145.898 57.17C145.713 58.4418 145.238 59.6537 144.508 60.7116C143.778 61.7694 142.814 62.6445 141.691 63.2688C144.393 65.8242 146.732 70.1088 144.393 73.1196C142.625 75.3585 139.877 73.7218 142.139 72.5947C146.5 69.7382 139.506 63.2688 136.047 61.4623C135.368 61.084 135.275 60.6286 135.746 60.4047C136.951 59.8025 138.749 61.1767 140.185 61.9873C144.323 59.9569 145.589 55.0392 142.061 52.206C141.691 51.9049 141.289 51.2255 141.76 51.0016C143.042 50.5075 146.354 53.7423 145.898 57.2009V57.17Z" fill="#001434"/>
<path d="M102.487 124.992C97.4462 126.953 93.4549 121.834 92.4513 123.448C91.6176 124.876 94.9295 127.061 98.6892 127.431C105.081 127.91 104.116 124.343 102.487 124.992Z" fill="#001434"/>
<path d="M103.314 112.052C101.716 111.18 98.3497 113.11 96.466 112.655C94.8139 112.207 95.2617 110.47 94.2812 110.47C93.4552 110.47 94.4202 112.323 93.0769 112.956C92.0347 113.45 87.4335 111.296 88.7923 114.685C89.8422 117.248 95.0532 121.316 98.4192 120.707C102.804 119.911 104.881 112.909 103.314 112.052Z" fill="#001434"/>
<path d="M31.5323 88.5756C33.1844 88.205 33.8483 87.5256 33.6399 87.0316C33.4314 86.5375 33.1226 86.1746 30.7062 86.8077C28.2899 87.4407 28.5987 89.2549 31.5323 88.5756Z" fill="#001434"/>
<path d="M116.407 88.429C106.927 87.1474 103.283 90.9843 103.283 96.8516C103.283 102.047 106.371 107.467 116.075 107.312C129.755 107.142 130.334 90.3281 116.407 88.429ZM114.601 105.413C114.076 101.051 113.096 94.1264 112.192 89.9189C130.481 89.9344 126.706 107.482 114.601 105.429V105.413Z" fill="#001434"/>
<path d="M35.8248 87.8268C37.1758 87.6724 37.0291 85.2638 35.4465 85.6421C33.9411 85.8659 34.4892 88.0121 35.8248 87.8268Z" fill="#001434"/>
</svg>
