<svg width="155" height="156" viewBox="0 0 155 156" fill="none" xmlns="http://www.w3.org/2000/svg">
<path d="M129.34 49.1342C128.815 45.8301 131.656 45.0272 134.165 44.9268C134.888 44.9609 135.607 45.0617 136.311 45.2279C137.083 39.2371 132.15 34.551 127.457 35.5546C126.147 35.7929 124.95 36.4477 124.043 37.4215C123.136 38.3952 122.568 39.6359 122.423 40.9587C122.423 40.9587 117.274 37.5387 112.557 41.6458C107.639 45.915 110.241 53.7123 115.707 56.3139C121.605 59.0854 126.754 59.1472 129.564 59.6567C132.374 60.1662 134.104 60.0273 134.551 57.6727C134.713 56.7926 134.899 55.2485 135.076 53.4729C133.47 52.6083 129.711 51.4426 129.34 49.1342Z" fill="#3D9CFB"/>
<path d="M21.9776 43.8531C19.3219 43.8531 19.731 39.1207 19.1212 38.2561C18.5113 37.3914 14.6281 39.2751 13.2925 38.7039C11.7485 38.0399 11.1926 35.7625 9.43247 32.7362C7.67229 29.71 4.67691 25.1088 5.37171 22.2292C6.42936 17.8597 16.5118 13.8761 19.6461 12.3321C27.3662 8.54926 32.7703 6.42624 35.4568 7.96253C38.1434 9.49883 38.5449 12.4788 40.6138 17.0877C41.7255 19.5658 44.2268 23.974 42.9299 26.2051C41.6329 28.4362 27.1423 34.4115 26.1619 35.2993C25.1814 36.1871 23.923 43.8763 21.9776 43.8531Z" fill="#3D9CFB"/>
<path d="M93.3731 148.383C92.0298 147.858 93.1183 144.183 92.5316 143.373C91.8522 142.446 88.9495 142.045 89.0884 140.756C89.2274 139.466 92.3849 139.088 93.319 137.729C93.898 136.896 93.5584 133.468 94.8167 133.097C96.6155 132.557 98.5533 135.985 99.2712 136.031C100.113 136.093 103.324 134.201 104.158 135.375C105.185 136.826 101.927 139.906 101.842 140.779C101.742 141.89 104.459 145.326 102.768 146.468C101.363 147.418 97.3644 143.882 96.4688 144.484C95.7972 144.901 94.5851 148.862 93.3731 148.383Z" fill="#3D9CFB"/>
<path d="M115.583 140.887C113.321 141.065 114.325 134.842 113.738 134.04C113.059 133.105 109.268 133.854 109.469 131.669C109.623 129.963 113.383 129.353 114.317 128.033C114.904 127.2 113.977 121.904 115.776 121.031C117.575 120.159 118.941 125.154 119.636 125.208C120.485 125.27 123.882 122.12 124.716 123.278C125.743 124.729 123.728 127.369 123.651 128.234C123.543 129.338 127.65 133.237 125.967 134.41C124.562 135.36 120.207 133.167 119.273 133.777C118.625 134.186 117.019 140.779 115.583 140.887Z" fill="#3D9CFB"/>
<path d="M136.026 126.296C133.942 127.184 133.402 120.329 132.591 119.75C131.649 119.086 128.731 120.591 128.051 119.078C127.557 118.021 130.892 114.963 131.348 113.373C131.626 112.393 129.897 107.907 131.348 106.502C132.799 105.097 135.787 109.227 136.49 109.05C137.308 108.834 139.778 104.95 140.952 105.8C142.388 106.85 141.021 111.289 141.222 112.13C141.477 113.211 146.541 113.226 146.356 114.446C145.923 117.225 139.508 116.971 138.821 117.843C138.296 118.461 137.354 125.733 136.026 126.296Z" fill="#3D9CFB"/>
<path d="M21.4604 38.7427C21.7074 40.912 21.4604 44.6948 24.7105 44.9187C27.0266 45.2353 28.8253 38.7427 30.1146 36.5811C40.3823 31.563 53.0973 32.3659 46.8903 19.8594C43.5321 6.46505 40.6062 5.04456 24.7028 11.4754C11.6713 15.899 4.3064 19.0642 12.2504 32.1883C14.4815 37.9243 14.798 40.2481 21.4604 38.7427ZM10.8762 21.2644C12.8911 16.3931 37.4795 7.77746 40.6371 10.1861C42.513 10.9581 47.5851 25.9505 46.2804 27.6798C44.9757 29.4091 31.4811 33.6243 28.9566 35.0293C27.7137 35.8862 26.0847 42.1472 24.6797 42.9964C23.7455 42.8575 23.5757 41.3984 23.4599 39.6536C23.8999 35.2764 19.1907 37.4766 16.867 37.2218C14.7594 33.7941 10.2895 25.0473 10.8762 21.2644Z" fill="#001434"/>
<path d="M20.3722 20.9483C25.7376 21.867 26.1931 23.5654 29.5591 18.061C33.0177 21.3961 36.1752 16.4244 39.6724 15.6215C39.9196 15.5745 40.1386 15.4327 40.2829 15.2265C40.4271 15.0203 40.485 14.7659 40.4444 14.5175C39.3327 12.3327 35.8123 15.4208 34.9168 16.0075C30.5858 19.9679 30.1535 12.0008 26.1159 19.744C21.5611 20.6473 18.473 15.5366 17.4617 24.0981C16.6541 24.141 15.8509 23.9536 15.1457 23.5577C14.0186 23.0328 13.2079 24.8315 14.3737 25.3025C20.488 27.8115 18.3727 24.1522 20.3722 20.9483Z" fill="#001434"/>
<path d="M38.1282 20.9475C37.904 20.8574 37.6541 20.8554 37.4285 20.9419C37.203 21.0284 37.0184 21.1969 36.912 21.4138C36.8055 21.6307 36.7849 21.8798 36.8544 22.1111C36.9239 22.3425 37.0784 22.539 37.2867 22.6613C37.3639 22.7076 39.348 23.7653 39.348 26.9382C39.348 27.1921 39.4488 27.4356 39.6284 27.6151C39.8079 27.7947 40.0514 27.8955 40.3053 27.8955C40.5592 27.8955 40.8026 27.7947 40.9822 27.6151C41.1617 27.4356 41.2626 27.1921 41.2626 26.9382C41.2162 22.5223 38.2208 21.0092 38.1282 20.9475Z" fill="#001434"/>
<path d="M27.6212 26.7614C26.5327 27.6337 26.4864 28.9076 26.0772 29.8494C22.0165 28.869 22.9429 28.3749 19.9784 32.1654C19.5989 31.7595 19.2602 31.3174 18.967 30.8453C18.8268 30.6334 18.6081 30.4859 18.3591 30.4352C18.1101 30.3845 17.8511 30.4348 17.6392 30.5751C17.4273 30.7153 17.2798 30.934 17.2291 31.1831C17.1784 31.4321 17.2287 31.691 17.369 31.9029C19.685 35.9946 21.3834 33.6708 23.3289 31.0151C25.0659 32.1037 27.9609 32.1191 28.1771 29.5483C28.2481 29.0448 28.4686 28.5741 28.8101 28.1973C28.9407 28.0253 29.0093 27.8142 29.0048 27.5983C29.0002 27.3823 28.9228 27.1743 28.7851 27.0079C28.6473 26.8416 28.4574 26.7267 28.2461 26.6819C28.0348 26.6372 27.8146 26.6652 27.6212 26.7614Z" fill="#001434"/>
<path d="M33.3798 24.1901C33.6423 22.8468 31.4034 22.785 31.1564 23.5879C30.4539 24.6301 32.1137 26.1201 32.8857 24.8694C33.0146 24.8017 33.1263 24.7051 33.2119 24.5873C33.2976 24.4695 33.355 24.3336 33.3798 24.1901Z" fill="#001434"/>
<path d="M35.1095 28.1659C34.9628 28.0812 34.7964 28.0366 34.627 28.0366C34.4576 28.0366 34.2912 28.0812 34.1445 28.1659C32.5233 27.8957 32.6623 30.2889 34.2449 30.204C35.04 30.3121 36.1672 28.8144 35.1095 28.1659Z" fill="#001434"/>
<path d="M35.6421 24.5528C35.4387 24.7102 35.2046 24.8232 34.955 24.8848C34.8293 24.8848 34.7048 24.9096 34.5886 24.9577C34.4725 25.0058 34.367 25.0763 34.2781 25.1652C34.1892 25.2541 34.1187 25.3596 34.0705 25.4758C34.0224 25.5919 33.9977 25.7164 33.9977 25.8421C33.9977 25.9678 34.0224 26.0923 34.0705 26.2084C34.1187 26.3246 34.1892 26.4301 34.2781 26.519C34.367 26.6079 34.4725 26.6784 34.5886 26.7265C34.7048 26.7746 34.8293 26.7994 34.955 26.7994C35.5927 26.7609 36.2049 26.5354 36.7151 26.1509C36.9271 26.0086 37.0738 25.7879 37.123 25.5375C37.1722 25.287 37.1199 25.0272 36.9776 24.8153C36.8353 24.6034 36.6147 24.4567 36.3642 24.4075C36.1137 24.3582 35.854 24.4105 35.6421 24.5528Z" fill="#001434"/>
<path d="M86.7643 59.4247C93.2723 60.1967 97.5724 53.5111 93.3804 49.0721C89.8523 45.4282 78.8435 46.1616 78.9516 53.2486C79.0442 59.0927 84.6181 59.2008 86.7643 59.4247ZM84.07 49.3886C86.1708 52.2291 88.8899 54.5548 92.0217 56.19C90.3387 58.1972 83.8693 58.4443 81.5533 55.6727C81.0409 54.9674 80.7973 54.1023 80.8662 53.2332C80.8585 50.8477 82.0705 49.7669 84.07 49.3886Z" fill="#001434"/>
<path d="M74.8524 59.3706C75.6244 59.3706 76.8674 59.2779 76.713 58.2048C76.1957 56.5682 73.154 58.1585 72.6676 56.352C71.7335 54.3294 73.6249 52.2604 75.8715 53.511C76.1033 53.6142 76.3662 53.6226 76.6042 53.5347C76.8421 53.4467 77.0363 53.2692 77.1453 53.0401C77.1983 52.9262 77.2281 52.8029 77.2331 52.6773C77.238 52.5518 77.2181 52.4265 77.1742 52.3087C77.1304 52.191 77.0637 52.0831 76.9779 51.9913C76.8921 51.8995 76.7889 51.8256 76.6744 51.774C70.6759 48.6165 67.3794 59.1081 74.8524 59.3706Z" fill="#001434"/>
<path d="M69.0081 61.849C70.2665 64.3658 77.5002 65.3925 78.2722 62.0806C78.388 61.5634 77.4539 61.4244 76.983 61.6637C74.7519 62.8063 71.7719 62.374 70.5985 60.7373C70.5255 60.6329 70.4326 60.5439 70.3252 60.4753C70.2178 60.4068 70.098 60.3601 69.9725 60.3379C69.8471 60.3156 69.7185 60.3184 69.5941 60.3458C69.4697 60.3733 69.3519 60.425 69.2475 60.498C69.143 60.571 69.054 60.6639 68.9855 60.7713C68.9169 60.8787 68.8702 60.9985 68.848 61.124C68.8258 61.2494 68.8285 61.378 68.856 61.5024C68.8834 61.6268 68.9352 61.7446 69.0081 61.849Z" fill="#001434"/>
<path d="M58.5398 44.2238C63.9438 42.5563 65.7889 45.4513 66.7153 44.0848C68.5527 41.3982 61.4039 40.6031 58.1692 42.232C56.8722 42.8882 56.8645 44.7565 58.5398 44.2238Z" fill="#001434"/>
<path d="M60.6553 58.6993C67.0784 59.9809 71.942 53.689 68.0897 48.9257C64.9013 44.973 53.8462 44.8109 53.3752 51.8671C52.9815 57.7112 58.54 58.2747 60.6553 58.6993ZM55.2512 52.0446C55.4365 49.636 56.7335 48.6555 58.7561 48.478C60.6213 51.4785 63.1419 54.0176 66.1288 55.9047C64.2914 57.7652 57.822 57.4487 55.7376 54.5382C55.2954 53.7871 55.134 52.9035 55.2821 52.0446H55.2512Z" fill="#001434"/>
<path d="M144.982 73.0509C149.822 68.5887 149.282 52.0678 146.734 49.6668C147.865 49.7351 149 49.6494 150.108 49.412C151.026 49.1032 151.189 47.7522 149.976 47.7986C148.764 47.8449 145.113 47.8449 143.692 47.3045C141.122 46.3163 137.4 44.3014 134.729 43.8073C133.409 35.2612 121.505 34.4969 120.115 42.5798C104.266 40.3641 106.644 61.4708 121.659 61.2546C122.979 70.9897 135.555 72.3947 142.905 74.4946C145.831 75.3361 150.424 76.0926 150.563 74.9809C150.702 73.8692 147.599 73.7689 144.982 73.0509ZM117.097 58.3828C106.543 54.1445 110.921 41.3986 121.543 44.7028C121.683 44.6084 121.794 44.4783 121.866 44.3263C121.938 44.1742 121.968 44.0057 121.953 43.8382C121.482 38.2334 131.024 36.3034 132.761 43.7301C125.813 44.3708 127.951 53.411 133.764 54.5922C133.463 57.9273 135.455 59.618 130.391 59.5485C126.183 59.5022 122.717 60.004 117.097 58.3673V58.3828ZM142.835 72.5491C135.223 70.3103 124.778 69.0905 123.659 61.4708C128.669 61.1697 137.153 63.7868 135.679 55.2947C136.201 55.4975 136.738 55.6601 137.285 55.7811C137.51 55.7792 137.727 55.6978 137.899 55.5514C138.07 55.405 138.184 55.2029 138.221 54.9806C138.258 54.7583 138.215 54.5302 138.1 54.3363C137.986 54.1424 137.806 53.9952 137.593 53.9206C135.1 53.1486 130.9 51.6509 130.46 49.69C129.426 41.1979 140.272 48.5474 144.194 49.412C145.121 50.4002 147.807 54.2139 146.51 64.0802C145.954 67.9171 144.665 70.8507 142.835 72.5491Z" fill="#001434"/>
<path d="M83.1668 44.8495C87.4437 43.0738 90.2538 45.6832 90.8868 44.0775C91.9368 41.4835 84.1086 41.5298 82.0165 43.3055C81.8117 43.458 81.6759 43.6856 81.639 43.9383C81.6021 44.1909 81.6671 44.4479 81.8196 44.6526C81.9721 44.8574 82.1998 44.9931 82.4524 45.03C82.705 45.067 82.962 45.002 83.1668 44.8495Z" fill="#001434"/>
<path d="M32.5158 114.423C32.0846 114.38 31.6501 114.38 31.2189 114.423C29.0727 111.674 23.9002 107.853 20.3181 110.169C17.5312 111.96 19.7391 115.434 18.28 117.766C14.8909 120.336 9.10084 122.104 4.80076 123.787C4.67694 123.827 4.56272 123.893 4.46522 123.979C4.36771 124.065 4.289 124.171 4.23397 124.289C4.17894 124.407 4.14878 124.535 4.14535 124.665C4.14192 124.795 4.1653 124.925 4.21404 125.046C5.56505 126.659 7.58771 124.443 10.0813 123.903C8.8538 126.991 11.3705 139.737 16.1956 140.061C16.2915 139.98 16.3704 139.88 16.4278 139.768C16.4851 139.656 16.5198 139.534 16.5299 139.408C16.5399 139.283 16.5251 139.156 16.4863 139.037C16.4475 138.917 16.3854 138.806 16.3037 138.71C12.2352 133.931 10.6449 127.539 12.3433 123C13.3006 122.606 14.2579 122.189 15.1534 121.78C12.5672 129.315 19.7854 141.211 26.0696 144.338C23.8693 145.944 22.7654 145.411 23.1128 147.187C24.0315 149.109 36.7464 139.76 39.958 137.992C50.6117 130.257 40.923 115.781 32.5158 114.423ZM27.8838 143.226C20.9357 139.683 14.2656 128.713 17.3382 120.668C22.3716 118.8 19.577 114.438 21.3372 111.79C23.962 110.455 27.3511 113.149 29.1962 115.048C20.7813 120.815 25.0042 137.629 35.6039 138.556C33.311 139.992 30.3388 141.783 27.9069 143.226H27.8838ZM38.9003 136.363C37.678 136.727 36.3876 136.8 35.1319 136.578C33.8762 136.356 32.6896 135.843 31.6666 135.082C32.8841 133.823 34.2811 132.751 35.8123 131.901C36.0467 131.804 36.2328 131.617 36.3298 131.383C36.4268 131.148 36.4267 130.885 36.3295 130.65C34.5616 128.882 32.0912 132.434 30.1921 133.785C28.6684 132.227 27.5568 130.314 26.9574 128.219C28.1782 126.979 29.5847 125.937 31.1262 125.13C31.3606 125.033 31.5467 124.847 31.6437 124.612C31.7407 124.378 31.7406 124.114 31.6435 123.88C30.2693 122.181 27.9996 125.038 26.61 125.941C26.4865 103.429 52.0244 126.999 38.9003 136.363Z" fill="#001434"/>
<path d="M125.99 86.3293C127.534 83.357 126.608 78.1383 122.987 78.3622C122.493 73.954 117.228 74.2165 114.163 77.1655C113.454 77.5954 112.667 77.8813 111.847 78.007C111.744 78.0187 111.639 78.0095 111.54 77.9798C111.44 77.9501 111.347 77.9007 111.267 77.8343C111.187 77.768 111.122 77.6862 111.074 77.5938C111.026 77.5015 110.998 77.4004 110.99 77.2968C110.542 72.7574 109.724 68.7121 106.52 66.1027C104.366 64.3502 101.116 63.8484 97.4491 63.3775C98.7042 61.8479 99.5301 60.0122 99.8424 58.0584C101.086 57.6557 102.148 56.829 102.844 55.7227C103.539 54.6164 103.824 53.3008 103.648 52.0058C103.471 50.4618 104.003 49.7593 104.83 48.5318C110.234 40.1015 100.923 29.718 89.9838 27.981C88.7795 27.788 88.2623 27.3479 88.4398 26.7071C90.1151 20.2532 82.7115 15.513 71.5329 16.8872C62.8323 17.9526 58.9723 22.3067 60.8869 27.1549C60.9378 27.2711 60.9625 27.3971 60.9593 27.5239C60.9561 27.6507 60.9251 27.7752 60.8683 27.8887C60.8116 28.0021 60.7306 28.1017 60.6311 28.1804C60.5315 28.259 60.4159 28.3148 60.2924 28.3438C51.6768 30.7139 41.4632 37.3994 43.6788 46.7407C44.3505 49.5663 46.0721 49.2652 45.6783 51.6198C45.4058 52.932 45.6227 54.2986 46.2883 55.4619C46.9538 56.6252 48.022 57.5048 49.2913 57.9348C49.4723 60.0656 50.293 62.092 51.646 63.7481C41.9187 64.659 38.9696 69.7929 38.5218 77.2041C38.4601 78.1769 36.9392 77.814 35.4338 76.6792C32.0833 74.2088 27.1888 73.954 26.687 78.3622C23.0662 78.1383 22.1167 83.357 23.6916 86.3293C18.8665 89.6798 25.2973 97.9789 29.2809 98.6814C32.4597 99.1081 35.6893 98.9591 38.8152 98.2413C31.8054 115.156 53.2286 117.433 64.0058 121.61C69.8808 123.208 69.0238 131.839 74.8139 127.871C80.6503 131.654 79.6775 123.239 85.5757 121.618C97.2175 117.125 117.228 115.133 110.118 98.0638C112.357 98.6737 117.305 99.3067 120.455 98.6814C124.384 97.9789 130.815 89.6798 125.99 86.3293ZM73.872 24.2213C86.3786 24.036 86.2242 26.6917 85.6683 27.4637C85.1125 28.2357 80.5885 26.931 74.1886 27.0005C67.4181 27.0468 64.0675 28.3978 63.4345 27.4174C62.8015 26.4369 63.2878 24.3834 73.872 24.2213ZM51.2522 58.3131C49.4149 47.3815 54.3403 35.2301 66.6924 37.5075C69.0702 37.9476 68.8231 40.8117 70.0815 42.9116C75.4855 50.6857 81.9241 38.6501 77.4696 40.5956C76.0028 41.2286 75.2539 40.1555 76.5123 38.2795C77.9405 36.1565 83.5916 36.8282 87.0965 37.3531C96.1059 38.4957 100.136 48.5472 97.8274 58.5602C95.7276 71.7769 53.8462 73.6529 51.2522 58.3131ZM86.4789 69.6308C85.6374 82.7549 63.9749 82.6314 62.7243 69.6308C70.1201 72.1475 78.9519 71.6225 86.5021 69.6308H86.4789ZM26.4245 94.6361C27.6407 94.2663 28.8342 93.8255 29.9989 93.3159C30.2183 93.2015 30.3849 93.0065 30.4637 92.7719C30.5425 92.5374 30.5274 92.2813 30.4215 92.0577C30.3157 91.834 30.1273 91.6599 29.8959 91.5721C29.6646 91.4843 29.4082 91.4895 29.1805 91.5866C27.8786 92.1501 26.5399 92.6246 25.1738 93.0071C24.2011 91.355 22.9118 88.9078 24.8419 87.8887C25.8223 89.6257 29.0956 88.7611 27.1116 87.3869C25.3977 86.1903 24.2088 82.971 25.2433 81.1259C26.5248 79.0029 28.1461 80.9407 28.3313 82.9016C29.0184 90.7838 38.4369 82.9479 30.933 80.5006C29.7518 80.1378 28.1538 79.3812 28.6787 77.9839C29.4507 75.9998 32.3072 76.8953 34.4765 78.2695C37.9351 80.462 38.6453 80.0683 39.5177 79.7054C42.3201 78.5397 38.6762 70.009 47.0448 67.0136C53.823 64.5818 56.0618 72.078 56.5714 81.427C57.0654 90.6216 48.4653 93.6247 40.3592 95.8481C39.317 96.1106 29.3272 98.967 26.4245 94.6361ZM30.1919 82.284C31.2958 82.6159 32.7781 83.3262 31.5506 84.3221C30.5624 85.1249 30.2073 83.1949 30.1919 82.2762V82.284ZM66.2292 118.499C65.7505 119.387 65.2256 119.873 64.276 119.487C56.8956 116.546 47.8631 115.388 41.4477 110.277C38.1667 106.648 44.3273 100.92 48.0716 99.7854C54.4175 97.8708 65.241 102.101 66.8854 102.989C68.5298 103.877 66.6924 117.611 66.2292 118.499ZM73.8566 104.911C73.7254 107.498 73.6018 115.156 73.7717 119.912C73.8952 123.494 73.5555 127.732 71.8571 127.122C70.1587 126.512 69.6878 123.818 68.3599 122.204C68.1701 121.979 68.0317 121.716 67.9544 121.432C67.877 121.148 67.8626 120.85 67.9121 120.56C68.7459 116.314 69.047 106.602 69.0702 105.12C69.1242 102.302 73.9106 103.854 73.8566 104.911ZM73.5015 98.8358C67.0629 98.8358 59.6825 96.018 57.6522 94.1497C56.8184 93.3777 56.7798 91.741 58.2698 92.6057C59.7597 93.4703 64.1062 96.79 74.6981 96.6664C85.0275 96.5429 89.8217 93.1229 90.8562 92.4899C91.8907 91.8568 92.6318 93.2619 91.5201 94.1034C88.8104 96.1801 79.5231 99.438 73.5015 98.8358ZM78.6971 125.416C73.4629 133.314 75.4469 107.405 75.7712 105.452C76.0568 103.723 79.7779 102.881 79.8551 103.838C80.0249 105.938 78.9596 119.279 81.2988 121.903C80.2106 122.893 79.3268 124.087 78.6971 125.416ZM106.682 111.242C100.946 115.465 90.8871 116.7 84.1938 120.066C82.9817 120.676 82.202 120.637 82.1557 119.858C81.8237 117.588 80.4881 104.649 81.8083 103.229C82.5803 102.457 89.6673 99.7699 96.4301 99.1523C104.397 98.4498 109.74 108.633 106.682 111.242ZM124.485 93.0071C123.122 92.6235 121.786 92.1489 120.486 91.5866C120.257 91.4771 119.993 91.4631 119.753 91.5478C119.514 91.6325 119.318 91.8089 119.208 92.0383C119.099 92.2676 119.085 92.531 119.169 92.7706C119.254 93.0102 119.43 93.2064 119.66 93.3159C120.825 93.8242 122.018 94.265 123.234 94.6361C121.737 97.091 115.568 97.3381 107.941 95.4081C103.309 94.2192 98.2289 91.9958 96.2371 90.6602C90.6169 87.6262 91.8753 65.902 102.413 67.1063C109.068 67.8783 108.859 76.27 109.245 77.8449C109.963 80.794 112.333 80.6396 115.421 78.6169C117.174 77.4512 118.648 76.602 119.884 77.0266C123.682 79.4816 117.568 80.4157 116.363 81.9752C114.194 85.1327 118.888 88.2439 120.872 84.847C121.598 83.5964 121.042 82.2608 121.814 81.0487C121.947 80.8193 122.14 80.6308 122.373 80.5037C122.606 80.3765 122.869 80.3156 123.134 80.3275C123.399 80.3395 123.656 80.4238 123.876 80.5714C124.097 80.7189 124.272 80.9241 124.384 81.1645C125.419 83.0096 124.384 86.4142 122.516 87.4255C121.073 89.371 123.821 89.6643 124.832 87.9273C126.755 88.9078 125.465 91.355 124.485 93.0071ZM119.475 82.2762C119.475 83.1949 119.181 85.0091 118.108 84.3143C116.873 83.5037 118.363 82.585 119.475 82.2762Z" fill="#001434"/>
</svg>
