<svg width="154" height="155" viewBox="0 0 154 155" fill="none" xmlns="http://www.w3.org/2000/svg">
<path d="M41.0082 133.796L46.5809 106.719C46.5809 106.719 46.9474 104.938 48.7278 105.305L111.352 118.194C111.352 118.194 113.132 118.56 112.766 120.341L107.193 147.419C107.193 147.419 106.827 149.199 105.046 148.832L42.4221 135.943C42.4221 135.943 40.6417 135.577 41.0082 133.796Z" fill="#FFB43B"/>
<path d="M111.428 117.816L48.8054 104.927C48.5222 104.868 48.2303 104.866 47.9463 104.921C47.6623 104.975 47.3919 105.085 47.1504 105.244C46.9089 105.403 46.7011 105.608 46.539 105.847C46.3768 106.087 46.2634 106.356 46.2053 106.639L40.6326 133.718C40.3159 135.252 41.9085 137.58 43.1452 137.853L105.766 150.742C106.339 150.856 106.933 150.739 107.42 150.417C107.907 150.095 108.247 149.594 108.367 149.023L113.945 121.957C114.247 120.46 113.05 118.152 111.428 117.816ZM46.956 106.796C47.0327 106.423 47.2545 106.096 47.5724 105.887C47.8903 105.678 48.2784 105.603 48.6512 105.68L111.274 118.569C111.647 118.646 111.974 118.867 112.183 119.185C112.392 119.503 112.467 119.891 112.39 120.263L106.817 147.34C106.739 147.713 106.518 148.039 106.2 148.249C105.883 148.458 105.495 148.533 105.122 148.457L42.4996 135.568C42.127 135.491 41.8002 135.269 41.5909 134.951C41.3816 134.634 41.3069 134.246 41.3832 133.873L46.956 106.796Z" fill="#4B1010"/>
<path d="M104.563 120.327L99.6479 144.172C99.6065 144.377 99.5252 144.572 99.4086 144.745C99.292 144.919 99.1424 145.067 98.9683 145.183C98.7942 145.298 98.599 145.379 98.394 145.419C98.1889 145.459 97.978 145.458 97.7732 145.417L44.511 134.378C44.0973 134.294 43.7337 134.05 43.5002 133.698C43.2667 133.347 43.1824 132.917 43.2657 132.503L48.1729 108.637C48.2596 108.221 48.5077 107.857 48.8627 107.624C49.2177 107.392 49.6505 107.31 50.066 107.396L103.31 118.458C103.721 118.544 104.083 118.788 104.317 119.137C104.551 119.486 104.64 119.913 104.563 120.327Z" fill="white"/>
<path d="M98.0894 145.833C97.7751 145.833 101.584 146.446 44.4331 134.756C43.9208 134.651 43.4709 134.347 43.1818 133.911C42.8927 133.476 42.7879 132.943 42.8904 132.43L47.7976 108.562C47.9053 108.047 48.2128 107.596 48.6526 107.308C49.0924 107.019 49.6287 106.917 50.1438 107.023L103.388 118.085C103.898 118.19 104.346 118.491 104.636 118.923C104.926 119.355 105.034 119.884 104.937 120.395L100.021 144.25C99.93 144.696 99.6884 145.097 99.3365 145.385C98.9847 145.673 98.5443 145.832 98.0894 145.833ZM49.7436 107.749C49.4639 107.749 49.1928 107.845 48.9757 108.022C48.7586 108.198 48.6088 108.444 48.5513 108.718L43.6441 132.564C43.6109 132.72 43.6089 132.882 43.6383 133.039C43.6677 133.196 43.7278 133.346 43.8153 133.48C43.9028 133.614 44.0159 133.729 44.1481 133.819C44.2803 133.91 44.429 133.973 44.5857 134.005L97.8318 145.036C97.9882 145.069 98.1497 145.071 98.3069 145.042C98.4641 145.012 98.614 144.952 98.7479 144.865C98.8818 144.777 98.997 144.664 99.0871 144.532C99.1771 144.4 99.2401 144.251 99.2725 144.095L104.187 120.249C104.246 119.935 104.178 119.611 104 119.346C103.822 119.081 103.547 118.896 103.234 118.832C46.1077 106.855 49.9384 107.749 49.7436 107.749Z" fill="#4B1010"/>
<path d="M104.035 133.797C102.607 132.04 104.233 129.698 106.622 130.131C109.01 130.563 109.706 133.331 107.755 134.472C107.152 134.807 106.453 134.922 105.775 134.799C105.097 134.676 104.482 134.322 104.035 133.797ZM104.292 132.119C104.147 132.498 104.122 132.912 104.221 133.305C104.32 133.699 104.538 134.052 104.845 134.317C105.152 134.582 105.533 134.746 105.936 134.786C106.34 134.827 106.746 134.742 107.1 134.543C107.453 134.344 107.737 134.041 107.911 133.675C108.086 133.309 108.144 132.898 108.077 132.498C108.01 132.098 107.821 131.729 107.536 131.44C107.251 131.152 106.884 130.958 106.485 130.885C106.031 130.765 105.547 130.826 105.138 131.056C104.728 131.287 104.424 131.668 104.292 132.119H104.292Z" fill="#4B1010"/>
<path d="M45.5058 64.6397C45.1796 63.9833 44.6204 63.4721 43.9374 63.206C43.2544 62.9398 42.4967 62.9379 41.8124 63.2005C41.1757 63.4961 40.6176 63.9374 40.1831 64.4886C40.098 62.8785 39.1227 61.0881 37.3461 60.842C36.3401 60.6702 35.2544 61.2806 35.3664 62.3287C35.5197 63.2703 36.8899 63.7012 37.0333 65.6158C37.1099 66.4868 36.1898 67.3172 35.5465 67.7627C34.766 68.2902 33.922 68.7173 33.0347 69.0339L34.1334 73.9112C35.7763 73.0839 37.5309 72.5002 39.3419 72.1784C40.7627 71.8939 42.2778 72.0365 43.6035 71.4967C46.199 70.3673 46.9312 67.2536 45.5058 64.6397Z" fill="white"/>
<path d="M45.8465 64.4645C45.6039 64.0093 45.2701 63.6089 44.8659 63.2884C44.3982 62.9763 43.8655 62.7748 43.3083 62.6992C42.7512 62.6236 42.1841 62.6759 41.6501 62.8521C41.2138 63.056 40.8098 63.3229 40.4509 63.6441C40.3278 62.8666 39.9701 62.1453 39.4256 61.5768C38.8812 61.0082 38.1761 60.6196 37.4046 60.4629C36.1242 60.2467 34.8399 61.0686 34.9825 62.3897C35.1749 63.5651 36.5068 63.799 36.6456 65.6476C36.6327 66.0417 36.4649 66.4148 36.1786 66.6858C36.1614 66.6291 36.1319 66.577 36.0921 66.5331C36.0523 66.4892 36.0033 66.4547 35.9486 66.432C35.9007 66.4131 35.8494 66.404 35.7979 66.4053C35.7464 66.4066 35.6957 66.4183 35.6488 66.4397C34.0079 67.1896 32.9836 67.6665 31.5497 68.3566C31.1004 68.6226 31.2062 69.0635 34.0233 74.8854C34.0653 74.9727 34.1388 75.0407 34.229 75.076C34.3192 75.1113 34.4193 75.1111 34.5094 75.0756C35.8803 74.5335 37.1555 73.8871 38.5302 73.3634C38.5777 73.3454 38.621 73.3181 38.6578 73.2831C38.6946 73.2482 38.7241 73.2063 38.7445 73.1598C38.765 73.1134 38.7761 73.0634 38.777 73.0126C38.778 72.9619 38.7689 72.9115 38.7503 72.8643L38.6897 72.7109C38.932 72.658 39.1712 72.5982 39.4158 72.5576C40.8182 72.2769 42.3471 72.4249 43.7549 71.8514C46.529 70.6438 47.3923 67.2969 45.8465 64.4645ZM45.7193 68.4371C45.5764 69.0323 45.2979 69.5864 44.9054 70.056C44.5128 70.5257 44.017 70.8982 43.4566 71.1445C42.6549 71.4204 41.816 71.5732 40.9685 71.5976C40.1012 71.6471 39.2406 71.7791 38.3984 71.9917C37.8302 70.5978 36.5267 67.5139 36.5045 67.461C36.7863 67.237 37.0141 66.9524 37.1711 66.6285C37.3282 66.3045 37.4103 65.9494 37.4115 65.5894C37.2628 63.6181 35.8573 62.9732 35.7431 62.2923C35.6595 61.508 36.5229 61.0947 37.2889 61.2258C39.7685 61.5685 39.7662 64.7367 39.8575 64.8487C40.2922 65.3757 40.5341 66.0352 40.5433 66.7183C40.5525 67.4014 40.3284 68.0672 39.9081 68.6058C39.8459 68.6862 39.8181 68.788 39.831 68.8889C39.8439 68.9898 39.8963 69.0814 39.9767 69.1436C40.0571 69.2059 40.159 69.2336 40.2599 69.2207C40.3607 69.2078 40.4523 69.1554 40.5146 69.075C41.0099 68.437 41.2864 67.6563 41.3031 66.8488C41.3198 66.0412 41.0759 65.2498 40.6074 64.5918C40.9726 64.1627 41.4223 63.8135 41.9285 63.5659C42.3429 63.4338 42.7816 63.3961 43.2125 63.4554C43.6433 63.5147 44.0555 63.6695 44.4189 63.9086C45.0042 64.4897 45.431 65.2109 45.6586 66.0036C45.8862 66.7963 45.9071 67.634 45.7193 68.4371Z" fill="#4B1010"/>
<path d="M130.796 35.0446C129.103 34.6228 127.41 36.3795 127.566 38.2649H127.311C127.004 36.8541 126.411 35.1688 124.991 34.941C123.571 34.7133 122.405 36.371 122.604 37.7818C122.94 39.2019 123.803 40.4411 125.019 41.2483C126.224 42.0486 127.284 43.0479 128.153 44.2034L130.872 40.1396C131.493 39.3546 131.919 38.4324 132.112 37.4498C132.198 36.959 132.115 36.4535 131.876 36.0164C131.636 35.5792 131.255 35.2365 130.796 35.0446Z" fill="white"/>
<path d="M130.889 34.6727C129.367 34.2932 127.822 35.4395 127.341 36.94C126.835 35.5077 126.079 34.7264 125.051 34.5631C123.373 34.2932 121.984 36.1549 122.232 37.8709C122.588 39.3867 123.509 40.7094 124.807 41.5689C125.976 42.3446 127.005 43.3139 127.848 44.435C127.885 44.4837 127.933 44.5229 127.988 44.5494C128.043 44.5758 128.104 44.5887 128.165 44.587C128.226 44.5853 128.286 44.569 128.339 44.5395C128.393 44.5099 128.438 44.4681 128.472 44.4174L131.178 40.3743C131.838 39.5386 132.289 38.5576 132.494 37.5128C132.595 36.927 132.49 36.3244 132.198 35.8069C131.905 35.2894 131.443 34.8887 130.889 34.6727ZM131.737 37.3725C131.552 38.3059 131.146 39.1816 130.553 39.9265L128.13 43.5502C127.3 42.5364 126.323 41.6527 125.231 40.9287C124.104 40.1842 123.301 39.0404 122.984 37.7275C122.831 36.6349 123.674 35.3022 124.729 35.3022C126.066 35.3022 126.654 37.0328 126.937 38.3447C127.034 38.7963 127.994 38.7772 127.949 38.2328C127.801 36.434 129.437 35.1129 130.646 35.3958C131.025 35.5523 131.34 35.8334 131.539 36.1927C131.737 36.552 131.807 36.9681 131.737 37.3725Z" fill="#4B1010"/>
<path d="M38.0241 90.447C37.1906 89.2348 35.2875 88.7425 34.349 89.8413C33.4105 90.94 34.0753 92.597 34.757 93.8659L34.5484 94.0553C33.3216 92.357 30.8872 92.4498 30.0031 93.7141C29.7786 94.1602 29.7134 94.6696 29.8185 95.1578C29.9235 95.6459 30.1924 96.0835 30.5805 96.3977C31.3689 97.0121 32.29 97.4338 33.2702 97.6291L38.0057 98.9326C37.9113 97.4902 38.0648 96.0424 38.4596 94.6519C38.851 93.2456 38.6954 91.7432 38.0241 90.447Z" fill="white"/>
<path d="M38.3397 90.2297C37.3698 88.8189 35.17 88.2891 34.0582 89.5918C33.237 90.5525 33.4448 91.81 33.8841 92.9187C33.2308 92.4715 32.4328 92.2873 31.6496 92.4029C30.8664 92.5184 30.1557 92.9253 29.6593 93.5421C29.3994 94.0677 29.3256 94.6661 29.4502 95.2392C29.5747 95.8123 29.8901 96.3261 30.3448 96.6965C31.1727 97.3414 32.1388 97.7857 33.1672 97.9946L37.9027 99.3019C37.9616 99.3182 38.0237 99.3201 38.0836 99.3075C38.1434 99.2949 38.1994 99.2682 38.2469 99.2295C38.2943 99.1909 38.3318 99.1414 38.3562 99.0853C38.3807 99.0292 38.3913 98.9681 38.3872 98.907C38.2954 97.5077 38.4448 96.103 38.8289 94.7543C39.2501 93.239 39.075 91.62 38.3397 90.2297ZM38.0905 94.5465C37.7325 95.8064 37.5666 97.113 37.5983 98.4224L33.3443 97.2493C32.4259 97.0661 31.5624 96.6724 30.8217 96.0992C30.5092 95.8461 30.2899 95.4962 30.1984 95.1047C30.1069 94.7131 30.1485 94.3023 30.3164 93.9369C31.0541 92.8842 33.1695 92.8052 34.2376 94.2827C34.5566 94.7251 35.3179 94.1033 35.0941 93.687C34.1663 91.9595 34.0206 90.8178 34.6409 90.0924C35.4077 89.1992 37.0178 89.6677 37.6834 90.6292C38.3097 91.8364 38.4552 93.2362 38.0905 94.5465Z" fill="#4B1010"/>
<path d="M53.0356 136.317C52.9793 136.317 52.9236 136.304 52.8726 136.281C52.8215 136.257 52.7764 136.222 52.7404 136.178C52.7044 136.135 52.6783 136.084 52.6642 136.03C52.65 135.975 52.648 135.918 52.6584 135.863L57.8386 108.313C57.8479 108.263 57.8668 108.216 57.8944 108.174C57.9219 108.132 57.9575 108.095 57.9991 108.067C58.0407 108.039 58.0874 108.019 58.1367 108.008C58.186 107.998 58.2369 107.998 58.2863 108.007C58.3358 108.016 58.383 108.035 58.4252 108.063C58.4673 108.09 58.5036 108.126 58.532 108.167C58.5605 108.209 58.5804 108.256 58.5907 108.305C58.6011 108.354 58.6016 108.405 58.5923 108.455L53.4113 136.004C53.3949 136.092 53.3484 136.171 53.2798 136.228C53.2112 136.285 53.1249 136.317 53.0356 136.317Z" fill="white"/>
<path d="M62.581 138.23C62.5241 138.23 62.4678 138.217 62.4164 138.193C62.3649 138.169 62.3195 138.133 62.2835 138.089C62.2474 138.045 62.2216 137.994 62.208 137.938C62.1943 137.883 62.1931 137.826 62.2045 137.77L67.3847 111.309C67.3931 111.259 67.4116 111.21 67.439 111.167C67.4665 111.124 67.5023 111.086 67.5444 111.057C67.5866 111.028 67.6341 111.008 67.6843 110.997C67.7344 110.987 67.7862 110.986 67.8365 110.996C67.8867 111.006 67.9346 111.026 67.977 111.054C68.0195 111.083 68.0559 111.12 68.0839 111.163C68.1119 111.206 68.131 111.254 68.1401 111.304C68.1492 111.355 68.1481 111.406 68.1369 111.456L62.9567 137.917C62.9403 138.005 62.8938 138.084 62.8252 138.141C62.7566 138.198 62.6702 138.23 62.581 138.23Z" fill="white"/>
<path d="M71.5784 140.408C71.5219 140.408 71.4661 140.396 71.4149 140.372C71.3637 140.348 71.3185 140.313 71.2825 140.269C71.2464 140.226 71.2204 140.175 71.2064 140.12C71.1923 140.065 71.1905 140.008 71.2012 139.953L76.3913 112.952C76.4 112.902 76.4185 112.854 76.4459 112.811C76.4734 112.768 76.509 112.731 76.5509 112.702C76.5928 112.673 76.64 112.653 76.6899 112.643C76.7397 112.632 76.7911 112.632 76.8412 112.641C76.8912 112.651 76.9388 112.67 76.9812 112.698C77.0237 112.727 77.06 112.763 77.0883 112.805C77.1165 112.848 77.136 112.895 77.1456 112.945C77.1552 112.995 77.1547 113.047 77.1442 113.097L71.9541 140.098C71.9372 140.185 71.8905 140.264 71.822 140.32C71.7534 140.377 71.6673 140.408 71.5784 140.408Z" fill="white"/>
<path d="M80.3097 141.772C80.2529 141.772 80.1967 141.76 80.1453 141.735C80.094 141.711 80.0487 141.675 80.0127 141.631C79.9767 141.587 79.951 141.536 79.9374 141.481C79.9238 141.425 79.9226 141.368 79.934 141.312L85.3887 114.852C85.3987 114.802 85.4184 114.755 85.4466 114.714C85.4748 114.672 85.5109 114.636 85.5529 114.608C85.5949 114.581 85.642 114.561 85.6914 114.552C85.7409 114.542 85.7917 114.543 85.8411 114.553C85.8904 114.563 85.9373 114.582 85.979 114.611C86.0207 114.639 86.0565 114.675 86.0843 114.717C86.112 114.759 86.1312 114.806 86.1408 114.855C86.1504 114.905 86.1502 114.956 86.1401 115.005L80.6847 141.466C80.667 141.552 80.6201 141.63 80.5518 141.686C80.4835 141.741 80.398 141.772 80.3097 141.772Z" fill="white"/>
<path d="M89.0417 143.95C88.9836 143.95 88.9263 143.937 88.8741 143.911C88.8219 143.886 88.7761 143.849 88.7402 143.804C88.7043 143.758 88.6793 143.705 88.667 143.648C88.6546 143.591 88.6553 143.532 88.669 143.476L95.2132 116.75C95.2399 116.654 95.3028 116.573 95.3887 116.522C95.4746 116.472 95.5768 116.457 95.6735 116.48C95.7703 116.504 95.854 116.564 95.9071 116.649C95.9601 116.733 95.9783 116.835 95.9577 116.932L89.4135 143.655C89.3936 143.739 89.3461 143.814 89.2786 143.867C89.2112 143.921 89.1277 143.95 89.0417 143.95Z" fill="white"/>
<path d="M98.0894 145.833C97.7751 145.833 101.584 146.446 44.4331 134.756C43.9208 134.651 43.4709 134.347 43.1818 133.911C42.8927 133.476 42.7879 132.943 42.8904 132.43L47.7976 108.562C47.9053 108.047 48.2128 107.596 48.6526 107.308C49.0924 107.019 49.6287 106.917 50.1438 107.023L103.388 118.085C103.898 118.19 104.346 118.491 104.636 118.923C104.926 119.355 105.034 119.884 104.937 120.395L100.021 144.25C99.93 144.696 99.6884 145.097 99.3365 145.385C98.9847 145.673 98.5443 145.832 98.0894 145.833ZM49.7436 107.749C49.4639 107.749 49.1928 107.845 48.9757 108.022C48.7586 108.198 48.6088 108.444 48.5513 108.718L43.6441 132.564C43.6109 132.72 43.6089 132.882 43.6383 133.039C43.6677 133.196 43.7278 133.346 43.8153 133.48C43.9028 133.614 44.0159 133.729 44.1481 133.819C44.2803 133.91 44.429 133.973 44.5857 134.005L97.8318 145.036C97.9882 145.069 98.1497 145.071 98.3069 145.042C98.4641 145.012 98.614 144.952 98.7479 144.865C98.8818 144.777 98.997 144.664 99.0871 144.532C99.1771 144.4 99.2401 144.251 99.2725 144.095L104.187 120.249C104.246 119.935 104.178 119.611 104 119.346C103.822 119.081 103.547 118.896 103.234 118.832C46.1077 106.855 49.9384 107.749 49.7436 107.749Z" fill="#4B1010"/>
<path d="M58.9343 57.2904C58.1035 56.8425 57.25 56.4379 56.3772 56.0782C50.3243 53.4094 45.4896 48.5714 42.8249 42.5167C35.2035 25.4903 48.0465 9.3088 64.9479 5.84693C73.2207 4.07033 81.8067 4.39483 89.9217 6.7908C98.7179 9.48056 107.167 16.0439 110.899 24.6238C115.576 35.3821 110.016 49.4504 99.7238 54.7026C93.0991 58.0825 85.5198 58.784 78.169 59.4373C73.1223 59.8859 67.1447 58.0395 65.1189 63.5479C62.8288 69.7366 61.1075 76.1211 59.9763 82.6223C57.8862 94.7683 56.9554 110.55 61.3971 122.331C55.0331 105.446 57.3334 86.6776 60.4494 68.899C61.0483 65.4877 62.6002 59.3545 58.9343 57.2904Z" fill="#FFB43B"/>
<path d="M59.3232 38.3494C64.5885 38.9183 69.1951 42.2177 72.8464 46.0591C73.091 46.3159 76.7369 43.5081 77.0988 43.2175C77.7889 42.6631 78.4575 42.0911 79.0877 41.4846C79.8936 40.7087 79.8644 40.4879 78.9267 39.8269C77.6006 38.7393 76.0419 37.9714 74.3715 37.5827C73.6515 37.4692 72.9223 37.506 72.2031 37.3649C71.4839 37.2238 70.7463 36.8734 70.0148 36.6833C68.4653 36.3013 66.8541 36.2399 65.2801 36.5031C63.1835 36.6435 61.1464 37.2595 59.3232 38.3042V38.3494Z" fill="white"/>
<path d="M61.5323 122.692C61.4372 122.728 61.3318 122.725 61.2392 122.683C61.1467 122.641 61.0745 122.564 61.0385 122.469C54.604 105.579 56.8153 86.4766 60.0732 68.8322C60.6697 65.2407 62.0537 59.5745 58.7459 57.6246C57.9289 57.1846 57.0897 56.7869 56.2318 56.4331C50.1218 53.6781 45.2295 48.7849 42.4755 42.6746C34.9775 25.8022 47.1803 8.92457 64.8746 5.47113C73.2088 3.69078 81.8556 4.01917 90.0308 6.4265C99.5976 9.45286 107.726 16.3682 111.251 24.4742C115.942 35.2624 110.637 49.5469 99.8989 55.0468C93.2075 58.4496 85.5883 59.1466 78.2191 59.8206C73.1831 60.2553 67.3887 58.4635 65.4788 63.6827C63.1996 69.8508 61.4843 76.2127 60.3538 82.6904C58.7889 91.9029 56.8881 109.29 61.7554 122.199C61.7913 122.294 61.7879 122.399 61.746 122.492C61.7042 122.584 61.6273 122.657 61.5323 122.692ZM65.0287 6.22331C55.6927 8.04434 47.7117 13.7681 43.6732 21.5238C36.7318 34.8591 43.9899 50.0622 56.5354 55.7292C57.4205 56.0943 58.286 56.505 59.1285 56.9599C62.8741 59.1604 61.4955 64.9478 60.8284 68.9641C58.7038 80.4653 57.053 92.3952 57.8987 103.956C57.6703 90.1361 59.9963 76.3927 64.7596 63.4174C66.8796 57.6246 73.1532 59.4878 78.1363 59.0584C85.4457 58.3929 92.9943 57.7028 99.55 54.3636C109.946 49.0409 115.086 35.2164 110.548 24.7802C107.108 16.8712 99.1605 10.1192 89.8062 7.15951C81.7537 4.79012 73.2372 4.46781 65.0287 6.22178V6.22331Z" fill="#4B1010"/>
<path d="M70.7543 33.6267C70.8747 34.6626 69.9423 35.6678 70.0642 36.5718C70.2743 37.1499 71.6744 38.4335 72.754 38.1053C73.5974 37.85 73.8144 36.732 73.9187 35.9584C73.3292 35.7953 72.7625 35.5588 72.2318 35.2545C71.5869 34.8728 71.072 34.3055 70.7543 33.6267Z" fill="white"/>
<path d="M74.1442 36.2283C74.1275 36.4073 74.0957 36.5846 74.0491 36.7582C73.9003 37.3087 73.8122 38.4726 72.9756 38.4067C72.6281 38.3301 72.3154 38.1415 72.0854 37.87C71.6378 37.3365 71.3009 36.7192 71.0945 36.0541C70.888 35.3891 70.8162 34.6895 70.8832 33.9963L74.1442 36.2283Z" fill="#FFE55D"/>
<path d="M88.7765 36.3794C88.8388 36.3179 88.9164 36.274 89.0013 36.2525C89.0862 36.2309 89.1754 36.2324 89.2595 36.2568C89.761 36.4937 89.3914 37.3455 89.2595 37.6676C89.1552 37.8514 89.0778 38.0492 89.0295 38.2549C91.023 36.0244 94.6881 36.9721 93.6514 37.6867C93.0005 38.1353 92.1456 38.0655 91.4539 38.4159C92.0579 38.1895 92.7067 38.1083 93.3478 38.179C93.6834 38.2236 93.9939 38.3807 94.2288 38.6245C94.3914 38.7702 94.3055 38.9243 94.0962 39.0033C93.2987 39.3 92.4676 39.06 91.6817 39.4296C92.0591 39.3228 92.4544 39.2936 92.8434 39.344C93.2325 39.3943 93.6073 39.5231 93.9451 39.7225C94.0258 39.7683 94.094 39.8334 94.1437 39.9119C94.1772 40.0002 94.1764 40.0979 94.1413 40.1857C94.1062 40.2734 94.0395 40.3448 93.9543 40.3857C93.37 40.6602 93.1163 40.2784 91.8135 40.49C92.3193 40.5078 92.8012 40.7099 93.1684 41.0581C93.5847 41.3894 93.1684 41.6355 92.818 41.6355C92.4676 41.6355 91.8711 41.4653 91.3497 41.4937C90.8283 41.522 90.5776 42.2397 90.0715 42.5165C89.7037 42.7137 89.2863 42.799 88.8706 42.762C88.455 42.7249 88.0592 42.5671 87.7321 42.3079C86.0576 40.7169 87.1463 37.5917 88.7765 36.3794Z" fill="white"/>
<path d="M94.6961 38.7334C94.6777 38.5891 94.61 38.4555 94.5044 38.3554C94.3393 38.1885 94.1452 38.0531 93.9316 37.9559C94.4683 37.5227 94.1824 36.8418 93.3949 36.6225C92.1905 36.33 90.9199 36.5082 89.8426 37.1209C90.0948 35.9041 89.0842 35.5721 88.5283 36.0866C87.4339 36.9889 86.727 38.2764 86.5532 39.6842C84.6662 40.1036 83.6396 41.187 82.4963 42.7397C80.3052 40.1506 77.4457 38.2125 74.2292 37.1363L74.391 36.5597C75.6085 36.8883 76.899 36.8208 78.0756 36.367C79.2522 35.9132 80.2537 35.0966 80.9352 34.0355C81.1847 33.9498 81.4131 33.8124 81.6057 33.6321C81.7982 33.4519 81.9504 33.2329 82.0524 32.9897C82.0761 33.0397 82.1109 33.0837 82.1541 33.1183C82.1973 33.1529 82.2478 33.1772 82.3018 33.1894C82.3558 33.2016 82.4119 33.2013 82.4658 33.1886C82.5197 33.176 82.57 33.1512 82.6129 33.1162C83.1396 32.8095 83.2784 32.9751 83.8719 32.5572C84.4 31.9212 84.7296 31.144 84.8196 30.3222C85.3612 28.376 85.6789 26.3743 85.7665 24.3561C85.8453 22.0716 85.2992 19.8089 84.187 17.8119C84.6465 17.7337 85.1169 17.7487 85.5705 17.8561C86.024 17.9634 86.4513 18.1609 86.8269 18.4368C86.9033 18.352 86.9524 18.246 86.9675 18.1329C86.9827 18.0197 86.9634 17.9047 86.912 17.8027C86.7932 17.6077 86.6314 17.4425 86.439 17.3196C86.0171 17.0399 85.5536 16.8287 85.0657 16.694C85.4238 16.634 85.7903 16.6468 86.1433 16.7315C86.4963 16.8162 86.8287 16.9711 87.1206 17.187C87.1709 16.9615 87.1371 16.7254 87.0256 16.523C86.914 16.3207 86.7324 16.1661 86.5149 16.0882C86.0769 15.9368 85.6078 15.8978 85.1508 15.9748C85.5844 15.675 86.1013 15.5192 86.6283 15.5293L86.0502 14.8952C86.0016 14.8213 85.9312 14.7642 85.8488 14.732C85.7664 14.6997 85.6761 14.6938 85.5902 14.715C84.5733 14.9011 83.6213 15.3452 82.8253 16.0047C79.5888 12.7268 72.7648 11.5575 68.1037 15.3246C67.324 14.5701 66.3834 14.0023 65.3526 13.6638C65.2533 13.6167 65.1434 13.5963 65.0338 13.6046C64.9242 13.6129 64.8187 13.6497 64.7277 13.7113C64.3803 13.9324 64.0621 14.1965 63.7808 14.4972C64.3651 14.327 64.986 14.327 65.5703 14.4972C65.0989 14.4843 64.63 14.5694 64.1931 14.747C63.7563 14.9247 63.361 15.191 63.0324 15.5293C63.014 15.6263 63.014 15.7259 63.0324 15.8229C63.037 16.2001 63.0654 16.5765 63.1175 16.9501C63.7789 16.1877 64.6692 15.6597 65.6555 15.4449C65.2451 15.5821 64.8727 15.8138 64.5684 16.1213C64.2641 16.4288 64.0363 16.8036 63.9034 17.2154L64.4248 17.3572C64.5512 17.1016 64.7486 16.8879 64.9934 16.7417C65.2382 16.5955 65.52 16.523 65.805 16.533C66.0944 16.5614 66.3751 16.6483 66.63 16.7883C66.0504 17.4782 65.5608 18.239 65.1732 19.0525C63.8821 21.6924 63.2672 24.6117 63.3836 27.5481C63.4613 27.9754 63.636 28.3792 63.8941 28.7285C64.1522 29.0778 64.487 29.3633 64.8726 29.5631C64.9138 29.5887 64.9602 29.6046 65.0085 29.6094C65.0567 29.6143 65.1054 29.6081 65.1509 29.5912C65.1964 29.5743 65.2373 29.5473 65.2707 29.5121C65.3041 29.4769 65.3289 29.4345 65.3434 29.3883C65.3986 29.6344 65.5131 29.8634 65.6769 30.0553C66.0306 30.3273 66.4114 30.5622 66.8132 30.7561C67.5348 31.1127 68.2915 31.4869 69.0813 31.8296C69.4515 32.5884 69.9093 33.3012 70.4453 33.9535C70.422 33.9838 70.4043 34.0181 70.3932 34.0547C70.223 34.6612 69.8488 36.003 69.8296 36.0674C63.0554 35.7086 58.7885 37.5411 55.506 40.4831C55.448 40.5349 55.4071 40.6031 55.3888 40.6786C55.3704 40.7542 55.3755 40.8335 55.4032 40.9061C55.431 40.9787 55.4802 41.0412 55.5443 41.0852C55.6084 41.1292 55.6844 41.1527 55.7621 41.1525C56.1455 42.5219 57.5824 43.2588 58.9686 43.4129C61.7322 43.8003 64.5396 43.1195 66.8186 41.509C68.9313 42.8652 70.8636 44.4836 72.5692 46.3257C72.6268 46.3873 72.7031 46.4282 72.7863 46.4421C72.8694 46.456 72.9548 46.442 73.0293 46.4024C74.3761 45.6637 75.6635 44.8216 76.8799 43.8837C78.0077 44.6795 79.2528 45.2944 80.5703 45.7062L80.3816 46.0029C80.3535 46.0454 80.3341 46.0931 80.3246 46.1432C80.3151 46.1933 80.3157 46.2447 80.3263 46.2946C80.3369 46.3444 80.3574 46.3916 80.3865 46.4335C80.4156 46.4753 80.4527 46.5109 80.4957 46.5383C80.5388 46.5656 80.5868 46.5841 80.637 46.5926C80.6873 46.6011 80.7387 46.5996 80.7884 46.588C80.838 46.5764 80.8848 46.5551 80.9261 46.5252C80.9674 46.4953 81.0023 46.4575 81.0288 46.4139C81.5839 45.7154 82.7302 43.4543 84.2246 41.8387C84.8519 41.178 85.6525 40.7072 86.5348 40.4801C86.5677 41.2899 86.9122 42.0558 87.4963 42.6177C87.8846 42.9205 88.3523 43.1042 88.8428 43.1468C89.3334 43.1894 89.8257 43.089 90.2604 42.8577C90.456 42.7377 90.6306 42.5865 90.7772 42.41C91.0187 42.8862 91.1612 43.4064 91.1961 43.9391C91.231 44.4719 91.1576 45.0063 90.9804 45.5099C90.5613 46.6686 89.9426 47.745 89.1525 48.6904C89.1185 48.7288 89.0925 48.7736 89.0761 48.8222C89.0598 48.8708 89.0533 48.9222 89.0571 48.9733C89.061 49.0244 89.075 49.0743 89.0985 49.1199C89.1219 49.1655 89.1543 49.2059 89.1936 49.2388C89.2329 49.2717 89.2785 49.2963 89.3275 49.3113C89.3766 49.3263 89.4281 49.3312 89.4791 49.3259C89.5301 49.3206 89.5795 49.3051 89.6244 49.2804C89.6693 49.2557 89.7088 49.2222 89.7406 49.1819C90.5892 48.1674 91.2531 47.0117 91.7019 45.7676C91.9259 45.1341 92.012 44.4601 91.9546 43.7906C91.8972 43.1211 91.6976 42.4716 91.3692 41.8855C91.8545 41.8579 92.415 42.0274 92.8183 42.0274C93.5966 42.0274 93.9907 41.3587 93.5352 40.8811C94.3855 40.8412 94.6922 40.2845 94.4706 39.7187C94.3899 39.587 94.277 39.478 94.1425 39.402C94.4791 39.2801 94.6999 39.0945 94.6961 38.7334ZM82.0493 43.4037L81.9726 43.5148C80.9186 43.1615 79.9101 42.6843 78.9685 42.0933C79.2902 41.7984 79.6057 41.4968 79.9147 41.1885C80.7105 41.8408 81.427 42.5842 82.0493 43.4037ZM74.023 37.8739C75.9194 38.5474 77.7031 39.5039 79.3136 40.7108C78.9859 41.0405 78.6511 41.3616 78.3091 41.6739C76.7134 40.6379 75.2632 39.3935 73.9969 37.9736C74.0054 37.9383 74.013 37.9061 74.023 37.8739ZM70.956 34.5147C71.731 35.3262 72.6771 35.9548 73.7255 36.3549C73.4188 37.6162 73.5576 37.1217 73.487 37.3678C72.4788 37.8394 70.9813 37.1424 70.4369 36.3434L70.9568 34.5147H70.956ZM69.6464 36.8204C69.6103 37.0074 69.5735 37.1945 69.5498 37.3839C69.5518 37.4101 69.5573 37.4358 69.5659 37.4606C68.3182 38.4516 66.9323 39.255 65.4523 39.8452C63.9082 39.0497 62.2583 38.4791 60.5527 38.1507C63.4549 37.0649 66.5555 36.6113 69.6472 36.8204H69.6464ZM59.2953 38.7326C61.0811 38.9419 62.8208 39.4415 64.4455 40.2117C63.7309 40.4349 63.0041 40.6172 62.2687 40.7576C61.3623 40.9501 60.4256 40.9501 59.5192 40.7576C58.8424 40.6034 58.2486 40.1999 57.8561 39.6274C58.311 39.291 58.7923 38.9918 59.2953 38.7326ZM59.0614 42.6431C58.393 42.5686 57.754 42.3277 57.2028 41.9422C56.9976 41.7978 56.8246 41.6123 56.6947 41.3976C56.5649 41.1829 56.481 40.9436 56.4483 40.6947C56.7021 40.4808 56.9544 40.2638 57.2205 40.0645C57.725 40.795 58.4859 41.3091 59.352 41.5044C60.3631 41.7185 61.4079 41.7185 62.419 41.5044C63.4325 41.3084 64.4288 41.0323 65.3986 40.6786C65.6363 40.8044 65.8732 40.9317 66.1048 41.062C64.0255 42.4237 61.5236 42.9867 59.0614 42.6469V42.6431ZM66.7534 40.5644C66.6093 40.4793 66.4651 40.3903 66.3202 40.3091C66.8083 40.0957 67.2863 39.8598 67.7525 39.6021C67.4372 39.942 67.1037 40.2645 66.7534 40.5682V40.5644ZM72.9204 45.5751C71.2818 43.8329 69.4408 42.2929 67.4366 40.9876C68.4219 40.0982 69.1235 39.1865 70.1862 38.0142C70.5617 38.4708 71.0772 38.791 71.653 38.9251C71.885 39.0245 72.1346 39.0765 72.387 39.078C72.6395 39.0794 72.8897 39.0303 73.1228 38.9335C73.6183 40.7347 74.7172 42.3111 76.2358 43.3991C75.182 44.2008 74.0742 44.9292 72.9204 45.5789V45.5751ZM76.8577 42.9045C75.4987 41.9768 74.4799 40.6306 73.9563 39.0708C75.0896 40.2494 76.3496 41.2993 77.7133 42.2014C77.4289 42.4445 77.146 42.6745 76.8577 42.9045ZM77.4925 43.3715C77.7939 43.1261 78.1006 42.8876 78.3927 42.6308C79.3819 43.2562 80.4331 43.7778 81.5295 44.1873L80.9996 45.0215C79.7527 44.6567 78.5696 44.1011 77.4925 43.3745V43.3715ZM93.4685 40.1082C92.9008 40.0154 92.3218 40.0154 91.7541 40.1082C91.6603 40.1236 91.5756 40.1734 91.5164 40.2478C91.4572 40.3222 91.4278 40.4159 91.4338 40.5107C91.4398 40.6056 91.4809 40.6948 91.549 40.7611C91.6171 40.8274 91.7074 40.8661 91.8024 40.8696C92.1715 40.8839 92.5259 41.0185 92.8114 41.2529C92.3213 41.1753 91.8268 41.1279 91.3308 41.1111C90.6009 41.151 90.3064 41.9438 89.8939 42.1776C89.5966 42.336 89.2603 42.4062 88.9244 42.3801C88.5885 42.354 88.2671 42.2327 87.9978 42.0304C86.5639 40.6694 87.4779 37.8233 89.0045 36.6869C89.0812 36.6287 89.1624 36.5075 89.1264 36.8135C89.0886 37.0434 89.0208 37.2674 88.9248 37.4798C88.8035 37.6959 88.7136 37.9283 88.6579 38.1698C88.6418 38.2913 88.6618 38.4147 88.7154 38.5248C88.9372 38.8819 89.0417 39.2993 89.0142 39.7188C88.9867 40.1382 88.8286 40.5384 88.5621 40.8634C88.4976 40.9421 88.4671 41.0432 88.4771 41.1444C88.4872 41.2457 88.5371 41.3388 88.6158 41.4032C88.6945 41.4677 88.7955 41.4982 88.8968 41.4882C88.998 41.4781 89.0911 41.4282 89.1555 41.3495C89.4939 40.9344 89.7049 40.4302 89.763 39.8978C89.8211 39.3654 89.7238 38.8276 89.4829 38.3493C89.9702 37.8872 90.5657 37.555 91.2148 37.3831C91.8639 37.2112 92.5458 37.2052 93.1978 37.3655C93.2495 37.3801 93.2994 37.4004 93.3466 37.4261C92.6328 37.8394 90.7719 37.8095 91.1016 38.5693C91.1404 38.659 91.2121 38.7305 91.3018 38.7691C91.3916 38.8077 91.4928 38.8106 91.5846 38.7771C92.2663 38.484 93.0342 38.4621 93.7315 38.7158C93.0123 38.8875 92.3138 38.7112 91.5217 39.083C91.4336 39.1236 91.3642 39.1962 91.3274 39.2859C91.2906 39.3757 91.2893 39.4761 91.3236 39.5669C91.3579 39.6576 91.4254 39.732 91.5124 39.775C91.5994 39.8179 91.6995 39.8263 91.7924 39.7984C92.1199 39.7036 92.4634 39.6775 92.8014 39.7217C93.1395 39.7659 93.4647 39.8795 93.7568 40.0553C93.6645 40.09 93.5671 40.1089 93.4685 40.1112V40.1082Z" fill="#4B1010"/>
<path d="M81.7995 22.1592C81.7982 22.5127 81.6768 22.8553 81.4552 23.1307C81.1845 23.3899 80.3948 23.1307 80.0536 23.1307V21.5888C79.6932 22.9812 79.7384 22.9536 79.6365 23.0456C79.5537 23.087 79.6319 23.1031 78.3016 22.8662C78.4388 22.1435 78.4388 21.4014 78.3016 20.6786C78.2448 21.3227 78.1144 21.9582 77.9128 22.5725C77.899 22.6374 77.8662 22.6967 77.8185 22.7427C77.7795 22.759 77.7377 22.7674 77.6954 22.7674C77.6532 22.7674 77.6114 22.759 77.5724 22.7427C76.9556 22.7051 76.3436 22.6101 75.7444 22.459C75.9819 21.7186 76.0276 20.9301 75.8771 20.1672C75.8296 20.6495 75.6877 22.0074 75.2522 22.3141C74.9869 22.5135 74.5322 22.3141 74.2385 22.3141C73.8843 22.3141 74.4985 21.8088 74.2953 20.7331C74.1975 21.2075 74.035 21.6662 73.8122 22.0964C73.6589 22.2766 73.4695 22.1224 73.3085 22.0197C73.5208 21.1865 73.5376 20.3156 73.3576 19.4749C73.099 21.9526 72.0423 24.2792 70.3465 26.1042C69.9888 26.5029 69.557 26.8284 69.0753 27.0626C69.027 27.3593 68.6604 27.5671 68.4711 27.1653C68.2341 26.6631 67.541 25.9892 67.0311 26.5588C65.7391 28.0026 66.8893 30.4493 68.7739 31.1494C68.5971 30.7336 68.4456 30.3075 68.32 29.8735C68.3088 29.8312 68.3061 29.7871 68.312 29.7438C68.3178 29.7004 68.3322 29.6587 68.3542 29.6209C68.3762 29.5831 68.4054 29.55 68.4402 29.5234C68.475 29.4969 68.5146 29.4775 68.5569 29.4664C68.5992 29.4552 68.6433 29.4524 68.6867 29.4583C68.73 29.4642 68.7718 29.4785 68.8096 29.5005C68.8474 29.5225 68.8805 29.5517 68.907 29.5865C68.9335 29.6213 68.9529 29.661 68.9641 29.7033C69.4689 31.7966 70.6877 33.6485 72.4106 34.9402C73.2028 35.4925 74.1157 35.8469 75.0731 35.9738C76.0304 36.1006 77.0041 35.9962 77.9128 35.6694C78.7136 35.3002 79.4326 34.775 80.0279 34.1245C80.6231 33.4739 81.0825 32.7112 81.3793 31.8809C82.3627 28.732 82.5075 25.3812 81.7995 22.1592Z" fill="white"/>
<path d="M67.3251 26.9563C67.2453 26.9517 67.1667 26.978 67.1057 27.0296C67.0447 27.0812 67.0057 27.1542 66.997 27.2337C66.9882 27.3132 67.0103 27.393 67.0587 27.4566C67.107 27.5203 67.1779 27.563 67.2568 27.5759C67.5835 27.6832 68.0696 27.9048 68.0359 28.2445C68.0369 28.2901 68.0473 28.3351 68.0665 28.3766C68.0857 28.4181 68.1132 28.4552 68.1473 28.4856C68.1814 28.5159 68.2215 28.539 68.2649 28.5532C68.3083 28.5674 68.3542 28.5726 68.3997 28.5683C68.4452 28.564 68.4893 28.5504 68.5293 28.5284C68.5693 28.5063 68.6044 28.4762 68.6322 28.44C68.6601 28.4038 68.6802 28.3622 68.6913 28.3179C68.7024 28.2736 68.7043 28.2274 68.6968 28.1824C68.6609 27.8443 68.5006 27.5316 68.2471 27.3051C67.9937 27.0785 67.665 26.9542 67.3251 26.9563Z" fill="#4B1010"/>
<path d="M78.6233 25.0339C78.2609 25.2958 77.9577 25.6309 77.7331 26.0176C77.5086 26.4042 77.3678 26.8337 77.3198 27.2782C77.3751 28.2661 77.6294 29.2326 78.0674 30.1198C78.2284 30.5077 78.8633 30.3375 78.7115 29.9396C78.3282 29.1739 78.0814 28.3472 77.9823 27.4967C77.9785 27.0995 78.0755 26.7078 78.2643 26.3584C78.4531 26.0089 78.7275 25.7131 79.0619 25.4986C79.0924 25.4698 79.1169 25.4353 79.1341 25.397C79.1513 25.3587 79.1607 25.3174 79.1619 25.2755C79.1631 25.2335 79.1561 25.1918 79.1412 25.1526C79.1262 25.1134 79.1037 25.0775 79.0749 25.047C79.0461 25.0165 79.0116 24.9919 78.9733 24.9747C78.935 24.9576 78.8937 24.9481 78.8518 24.9469C78.8099 24.9457 78.7681 24.9528 78.7289 24.9677C78.6897 24.9826 78.6538 25.0051 78.6233 25.0339Z" fill="#4B1010"/>
<path d="M83.7098 26.8143C82.7934 25.8034 81.5197 25.1889 80.1582 25.1006C80.1145 25.1002 80.0712 25.1085 80.0308 25.125C79.9904 25.1415 79.9537 25.1658 79.9228 25.1967C79.8919 25.2275 79.8674 25.2642 79.8508 25.3045C79.8343 25.3449 79.8259 25.3882 79.8262 25.4318C79.8268 25.5196 79.862 25.6036 79.9241 25.6657C79.9863 25.7277 80.0704 25.7627 80.1582 25.7631C81.3442 25.8487 82.4493 26.3963 83.2359 27.2881C83.2989 27.3503 83.3839 27.3851 83.4724 27.3848C83.5609 27.3846 83.6457 27.3493 83.7083 27.2867C83.7709 27.2241 83.8062 27.1393 83.8065 27.0508C83.8067 26.9623 83.772 26.8773 83.7098 26.8143Z" fill="#4B1010"/>
<path d="M74.4187 24.8546C73.7519 24.9793 73.1225 25.2546 72.5785 25.6597C72.5052 25.7042 72.4517 25.775 72.4288 25.8576C72.4059 25.9402 72.4152 26.0284 72.455 26.1044C72.4765 26.1424 72.5053 26.1758 72.5398 26.2026C72.5742 26.2294 72.6136 26.2492 72.6558 26.2607C72.6979 26.2723 72.7419 26.2754 72.7852 26.2699C72.8285 26.2644 72.8703 26.2503 72.9082 26.2286C73.3882 25.8808 73.9338 25.6341 74.5121 25.5036C75.0903 25.3731 75.689 25.3615 76.2719 25.4695C76.6683 25.5462 76.85 24.9819 76.5019 24.8561C75.8137 24.7256 75.1071 24.725 74.4187 24.8546Z" fill="#4B1010"/>
<path d="M78.0938 31.7865C77.3271 31.721 76.5854 31.4813 75.9254 31.0857C75.854 31.0446 75.7745 31.0196 75.6924 31.0124C75.6104 31.0052 75.5277 31.016 75.4502 31.0439C75.3728 31.0718 75.3023 31.1163 75.2437 31.1743C75.1852 31.2322 75.1399 31.3022 75.1111 31.3793C74.9354 31.9053 74.9155 32.4709 75.0536 33.0079C75.1373 33.2479 75.2718 33.4671 75.4478 33.6505C75.6238 33.8339 75.8373 33.9772 76.0737 34.0707C76.3101 34.1642 76.5638 34.2057 76.8177 34.1923C77.0715 34.1789 77.3195 34.111 77.5448 33.9932C77.5844 33.9722 77.6193 33.9436 77.6475 33.9088C77.6758 33.8741 77.6967 33.834 77.7092 33.791C77.7216 33.748 77.7252 33.7029 77.7199 33.6585C77.7145 33.614 77.7003 33.5711 77.678 33.5323C77.6557 33.4935 77.6258 33.4596 77.5901 33.4325C77.5544 33.4055 77.5137 33.3859 77.4703 33.375C77.4268 33.3641 77.3817 33.362 77.3374 33.3688C77.2932 33.3757 77.2508 33.3915 77.2128 33.4151C77.0936 33.4971 76.958 33.5522 76.8153 33.5765C76.6727 33.6009 76.5265 33.5938 76.3868 33.556C76.2472 33.5181 76.1175 33.4503 76.0067 33.3572C75.8959 33.2642 75.8067 33.1481 75.7452 33.0171C75.6561 32.6281 75.6603 32.2235 75.7575 31.8363C76.4684 32.2437 77.2745 32.4553 78.0938 32.4497C78.179 32.4456 78.2593 32.4089 78.3182 32.3472C78.377 32.2854 78.4098 32.2034 78.4098 32.1181C78.4098 32.0328 78.377 31.9508 78.3182 31.8891C78.2593 31.8273 78.179 31.7906 78.0938 31.7865Z" fill="#4B1010"/>
<path d="M75.6454 26.1566C75.6126 26.1196 75.5712 26.0912 75.525 26.0736C75.4788 26.0561 75.429 26.05 75.3798 26.0559C75.3307 26.0618 75.2838 26.0794 75.243 26.1074C75.2022 26.1353 75.1687 26.1727 75.1455 26.2164C74.983 26.4801 74.4922 26.5445 74.3159 26.5752C74.1383 26.6171 73.973 26.7 73.8331 26.8171C73.6931 26.9343 73.5825 27.0825 73.51 27.2499C73.3506 27.779 73.5162 28.5151 74.1349 28.5764C74.2242 28.5744 74.3122 28.5545 74.3937 28.518C74.4752 28.4814 74.5485 28.429 74.6095 28.3637C74.6704 28.2984 74.7177 28.2216 74.7485 28.1378C74.7793 28.054 74.7931 27.9648 74.789 27.8756C74.8084 27.6276 74.7607 27.3789 74.651 27.1556C75.0246 27.0763 75.3679 26.8922 75.6408 26.625C75.7032 26.5633 75.7387 26.4795 75.7395 26.3918C75.7404 26.304 75.7066 26.2195 75.6454 26.1566Z" fill="#4B1010"/>
<path d="M81.6893 26.3214C81.5664 26.4333 81.4198 26.5158 81.2604 26.5628C81.1011 26.6098 80.9331 26.6201 80.7692 26.5929C80.5394 26.5972 80.3191 26.6852 80.1497 26.8405C79.9833 27.0115 79.869 27.2263 79.8201 27.4598C79.7713 27.6934 79.7898 27.936 79.8737 28.1593C80.2724 28.8095 81.4662 28.3763 81.0874 27.2438C81.4517 27.2289 81.7993 27.0874 82.0704 26.8436C82.1264 26.7887 82.1608 26.7154 82.1673 26.6372C82.1737 26.5591 82.1518 26.4811 82.1056 26.4178C82.0593 26.3544 81.9918 26.3098 81.9154 26.2921C81.839 26.2744 81.7587 26.2848 81.6893 26.3214Z" fill="#4B1010"/>
<path d="M67.6917 32.535C67.6771 32.5289 67.661 32.5266 67.6464 32.5212L68.1939 30.546C68.2037 30.4666 68.1845 30.3863 68.1398 30.32C68.0952 30.2536 68.028 30.2056 67.9508 30.1848C67.8735 30.164 67.7913 30.1718 67.7193 30.2067C67.6474 30.2417 67.5904 30.3015 67.559 30.3751L67.0077 32.3686C66.9203 32.3548 66.8329 32.3364 66.7448 32.3295C66.6626 32.3261 66.5823 32.3542 66.5202 32.408C66.4581 32.4618 66.4188 32.5372 66.4104 32.619C66.402 32.7007 66.4251 32.7826 66.4749 32.8479C66.5248 32.9133 66.5977 32.9571 66.6788 32.9705C66.7194 32.9812 66.7816 32.9943 66.8322 33.0042L66.6888 33.5226C66.679 33.602 66.6982 33.6823 66.7429 33.7486C66.7875 33.815 66.8547 33.863 66.9319 33.8838C67.0092 33.9046 67.0914 33.8969 67.1634 33.8619C67.2353 33.8269 67.2922 33.7671 67.3237 33.6935L67.4663 33.1768L67.4839 33.1821C67.8941 33.3408 68.1011 32.6561 67.6917 32.535Z" fill="#4B1010"/>
<path d="M122.264 105.259C130.38 102.091 137.663 96.2993 139.746 88.2684C141.119 82.9778 140.206 76.4796 136.755 72.4243C130.843 65.4852 122.152 61.9198 113.477 60.8042C106.639 59.8625 99.6735 60.7783 93.3114 63.4556C86.3631 66.4529 79.96 72.8245 77.5064 80.5595C76.1871 84.7347 76.3615 89.2388 77.9997 93.2994C79.6379 97.3601 82.6378 100.724 86.485 102.815C89.5022 104.462 95.0082 104.794 96.741 108.195C97.1798 109.254 97.3489 110.406 97.2333 111.547C96.9873 118.149 94.548 124.48 90.3011 129.541C95.1327 125.429 98.6198 119.963 100.312 113.848C100.939 111.576 101.6 108.857 103.806 108.034C104.819 107.747 105.882 107.683 106.922 107.844C112.16 108.061 117.386 107.18 122.264 105.259Z" fill="white"/>
<path d="M90.3008 129.924C90.2278 129.924 90.1565 129.903 90.095 129.864C90.0335 129.825 89.9844 129.769 89.9536 129.703C89.9228 129.637 89.9114 129.564 89.9209 129.491C89.9304 129.419 89.9603 129.351 90.0071 129.295C94.1897 124.294 96.5963 118.047 96.8503 111.532C96.9617 110.447 96.8023 109.35 96.3865 108.341C94.7609 105.156 89.3408 104.825 86.2999 103.151C82.3731 101.019 79.3111 97.587 77.6397 93.4433C75.9684 89.2997 75.7921 84.7033 77.1411 80.4438C79.4635 73.0884 85.6014 66.4445 93.1577 63.1053C99.5843 60.4013 106.62 59.4745 113.527 60.4217C123.231 61.5856 131.586 65.7598 137.046 72.1736C140.38 76.084 141.615 82.5899 140.117 88.3628C138.2 95.7473 131.745 102.035 122.405 105.615C117.484 107.578 112.2 108.468 106.907 108.225C105.908 108.067 104.886 108.126 103.912 108.401C101.899 109.154 101.263 111.846 100.683 113.948C98.9784 120.14 95.4477 125.675 90.5515 129.832C90.4818 129.892 90.3928 129.925 90.3008 129.924ZM93.4613 63.8092C86.1067 67.0594 80.1306 73.5231 77.8718 80.6776C76.5765 84.7677 76.746 89.1812 78.351 93.16C79.956 97.1387 82.8964 100.434 86.6671 102.481C89.6483 104.122 95.2601 104.448 97.0827 108.024C97.5527 109.149 97.7355 110.374 97.6148 111.588C97.4115 116.748 95.8894 121.769 93.1937 126.173C96.3651 122.605 98.6737 118.355 99.9411 113.752C100.61 111.323 101.295 108.567 103.671 107.68C104.745 107.37 105.875 107.299 106.98 107.471C112.152 107.686 117.311 106.813 122.124 104.908C131.21 101.361 137.522 95.3233 139.376 88.1787C140.813 82.6367 139.643 76.4084 136.462 72.6797C131.127 66.4123 122.947 62.3286 113.43 61.1907C106.659 60.2581 99.7625 61.1625 93.4613 63.8092Z" fill="#4B1010"/>
<path d="M82.0427 97.8713C81.425 97.5366 80.7369 97.3527 80.0346 97.3346C81.266 96.3125 82.137 94.4462 81.266 92.8744C80.7945 91.9666 79.6689 91.4712 78.8891 92.1736C78.5901 92.6167 78.4076 93.128 78.3585 93.6603C78.1815 94.3618 77.795 94.9927 77.2505 95.4691C76.5973 96.0472 75.3797 95.8064 74.6367 95.5542C73.7439 95.2418 72.8966 94.8119 72.1172 94.276L68.8784 98.1021C70.5182 98.9347 72.0353 99.9894 73.3869 101.237C74.4603 102.205 75.2524 103.51 76.4738 104.324C79.0539 105.787 82.0351 104.304 83.1131 101.71C83.3135 101.306 83.4234 100.864 83.4351 100.413C83.4105 99.9116 83.2723 99.4224 83.0312 98.9821C82.79 98.5418 82.452 98.162 82.0427 97.8713Z" fill="white"/>
<path d="M82.2266 97.5346C81.8025 97.3043 81.3464 97.1387 80.8733 97.0431C81.4253 96.4802 81.7916 95.7616 81.9228 94.9842C82.054 94.2068 81.9438 93.4078 81.6071 92.6949C81.019 91.5601 79.6044 91.008 78.6329 91.8852C78.2652 92.3731 78.0415 92.9543 77.9873 93.5629C77.8297 94.1899 77.4843 94.7538 76.9974 95.1792C76.6606 95.4005 76.2512 95.4829 75.855 95.4092C75.885 95.3649 75.9054 95.3148 75.915 95.2622C75.9245 95.2095 75.9229 95.1554 75.9102 95.1034C75.8976 95.0514 75.8742 95.0026 75.8416 94.9602C75.8089 94.9178 75.7678 94.8827 75.7208 94.8571C74.4083 94.1369 73.0894 93.4284 71.7644 92.7317C71.325 92.5017 71.2207 92.4495 68.3853 97.8267C68.1806 98.2155 68.0326 98.4969 67.9774 98.5935C67.9284 98.6801 67.915 98.7824 67.9401 98.8787C67.9651 98.9749 68.0266 99.0577 68.1116 99.1095C68.6866 99.4599 69.2617 99.7827 69.8406 100.106C72.1086 101.374 71.8955 101.364 72.0994 101.364C72.3555 101.364 72.4391 101.159 72.5349 101C72.7358 101.174 72.9375 101.346 73.1353 101.526C74.3046 102.584 75.0069 103.807 76.2851 104.657C79.0301 106.213 82.288 104.697 83.4565 101.88C83.8137 101.13 83.8859 100.275 83.6596 99.4757C83.4333 98.6762 82.924 97.9863 82.2266 97.5346ZM82.7634 101.56C81.7666 103.965 79.0147 105.317 76.6907 104.002C75.5567 103.245 74.8551 102.039 73.6536 100.954C73.4188 100.743 73.1811 100.535 72.9405 100.331C73.7764 98.9354 74.6073 97.5368 75.4332 96.1353C75.786 96.2274 76.1548 96.2408 76.5133 96.1746C76.8719 96.1083 77.2115 95.964 77.5081 95.7519C78.1244 95.2101 78.5567 94.4897 78.7448 93.6909C78.7871 93.2392 78.9378 92.8044 79.1842 92.4235C79.308 92.3214 79.4568 92.2541 79.6153 92.2285C79.7738 92.2029 79.9362 92.2199 80.0859 92.2778C81.5013 92.8475 81.8287 95.3448 79.7945 97.0316C79.7347 97.0815 79.6914 97.1484 79.6705 97.2234C79.6497 97.2984 79.6521 97.378 79.6776 97.4516C79.7031 97.5252 79.7503 97.5893 79.8131 97.6354C79.8759 97.6814 79.9513 97.7073 80.0291 97.7094C80.6561 97.7258 81.2708 97.8863 81.8256 98.1787C82.1839 98.4317 82.4804 98.7624 82.6929 99.1461C82.9053 99.5298 83.0282 99.9566 83.0524 100.395C83.0411 100.8 82.9412 101.198 82.7595 101.561L82.7634 101.56Z" fill="#4B1010"/>
<path d="M125.854 15.9916C125.522 15.7493 125.141 15.5835 124.738 15.5063C125.178 15.2847 125.526 14.9162 125.722 14.4648C125.918 14.0133 125.95 13.5075 125.812 13.0351C125.779 12.8991 125.716 12.7722 125.628 12.6634C125.54 12.5546 125.43 12.4667 125.304 12.406C125.178 12.3453 125.04 12.3134 124.9 12.3125C124.76 12.3116 124.622 12.3419 124.495 12.401C124.282 12.629 124.135 12.9104 124.069 13.2152C123.907 13.6022 123.633 13.932 123.283 14.1622C122.533 14.6613 121.1 13.6868 120.404 13.0542L118.221 15.0715C119.103 15.6825 119.894 16.4157 120.57 17.2491C121.019 17.9631 121.536 18.6322 122.113 19.2473C122.434 19.4749 122.799 19.6318 123.184 19.7075C123.569 19.7833 123.967 19.7761 124.349 19.6866C124.732 19.597 125.091 19.4271 125.402 19.1881C125.714 18.949 125.972 18.6464 126.157 18.3003C126.405 17.9472 126.511 17.5143 126.454 17.087C126.398 16.6596 126.184 16.2688 125.854 15.9916Z" fill="white"/>
<path d="M125.553 15.3705C125.865 15.0535 126.086 14.6588 126.194 14.2273C126.302 13.7959 126.292 13.3434 126.166 12.9169C126.116 12.7256 126.024 12.5479 125.896 12.397C125.768 12.246 125.608 12.1257 125.428 12.0447C125.247 11.9638 125.051 11.9244 124.853 11.9294C124.656 11.9344 124.462 11.9836 124.285 12.0735C123.993 12.337 123.79 12.6856 123.707 13.0703C123.574 13.3876 123.349 13.6579 123.062 13.8462C122.941 13.9056 122.804 13.9236 122.672 13.8976C122.677 13.8723 122.68 13.8467 122.68 13.8209C122.674 13.7683 122.658 13.7174 122.631 13.6714C122.605 13.6255 122.569 13.5856 122.527 13.5541C121.683 12.9277 121.146 12.5382 120.41 12.0068C120.332 11.9516 120.237 11.9269 120.143 11.9377C120.049 11.9485 119.962 11.9938 119.899 12.0651C119.039 13.04 118.242 14.068 117.51 15.1428C117.457 15.2217 117.435 15.3178 117.448 15.4122C117.462 15.5066 117.51 15.5927 117.583 15.6535C118.246 16.2032 118.947 16.6748 119.586 17.2215C119.65 17.2774 119.731 17.3098 119.815 17.3131C119.9 17.3165 119.983 17.2906 120.051 17.2399C120.113 17.3127 120.18 17.3832 120.24 17.4569C120.714 18.2081 121.262 18.9105 121.874 19.5539C122.235 19.814 122.647 19.9945 123.083 20.0836C123.519 20.1727 123.969 20.1683 124.404 20.0708C124.838 19.9733 125.246 19.7848 125.602 19.5178C125.959 19.2508 126.254 18.9114 126.469 18.5219C126.652 18.2645 126.774 17.9692 126.826 17.6581C126.879 17.3469 126.86 17.0279 126.772 16.7249C126.684 16.4219 126.529 16.1427 126.318 15.9082C126.106 15.6736 125.845 15.4899 125.553 15.3705ZM125.827 18.1032C125.67 18.398 125.454 18.657 125.192 18.8635C124.93 19.07 124.627 19.2196 124.304 19.3027C123.981 19.3857 123.644 19.4004 123.314 19.3459C122.985 19.2913 122.671 19.1686 122.392 18.9857C121.821 18.3762 121.311 17.7138 120.866 17.0075C120.767 16.8856 120.66 16.7698 120.555 16.6525C120.901 16.2232 122.053 14.7748 122.209 14.5823C122.416 14.6595 122.638 14.6908 122.859 14.6739C123.079 14.6571 123.293 14.5926 123.487 14.4849C123.919 14.1984 124.252 13.7837 124.437 13.2988C124.484 13.0804 124.585 12.8772 124.73 12.7076C125.023 12.5727 125.344 12.8794 125.436 13.1416C125.544 13.5289 125.516 13.9417 125.356 14.3107C125.197 14.6797 124.915 14.9827 124.558 15.1689C124.488 15.2056 124.43 15.2636 124.394 15.3346C124.358 15.4056 124.344 15.4861 124.356 15.565C124.368 15.6439 124.404 15.7172 124.459 15.7747C124.514 15.8322 124.586 15.871 124.664 15.8858C125.004 15.9492 125.325 16.0857 125.607 16.286C125.867 16.5047 126.034 16.8139 126.075 17.1512C126.116 17.4886 126.027 17.8288 125.827 18.1032Z" fill="#4B1010"/>
<path d="M42.333 81.1754C42.333 82.2957 42.778 83.3701 43.5702 84.1623C44.3624 84.9544 45.4367 85.3995 46.557 85.3995C47.6773 85.3995 48.7517 84.9544 49.5439 84.1623C50.336 83.3701 50.781 82.2957 50.781 81.1754C50.781 80.0552 50.336 78.9808 49.5439 78.1886C48.7517 77.3964 47.6773 76.9514 46.557 76.9514C45.4367 76.9514 44.3624 77.3964 43.5702 78.1886C42.778 78.9808 42.333 80.0552 42.333 81.1754Z" fill="#FFB43B"/>
<path d="M46.5566 85.7827C45.6454 85.7827 44.7546 85.5124 43.9969 85.0062C43.2392 84.4999 42.6487 83.7803 42.2999 82.9384C41.9512 82.0966 41.86 81.1702 42.0378 80.2764C42.2155 79.3827 42.6543 78.5617 43.2987 77.9174C43.9431 77.273 44.764 76.8342 45.6578 76.6564C46.5515 76.4786 47.4779 76.5699 48.3198 76.9186C49.1617 77.2673 49.8813 77.8579 50.3875 78.6155C50.8938 79.3732 51.164 80.264 51.164 81.1753C51.1626 82.3968 50.6767 83.5679 49.813 84.4316C48.9492 85.2954 47.7781 85.7812 46.5566 85.7827ZM46.5566 77.3346C45.797 77.3346 45.0545 77.5599 44.4229 77.9819C43.7913 78.4039 43.299 79.0037 43.0083 79.7055C42.7176 80.4073 42.6416 81.1795 42.7898 81.9245C42.938 82.6696 43.3037 83.3539 43.8409 83.891C44.378 84.4281 45.0623 84.7939 45.8073 84.9421C46.5524 85.0903 47.3246 85.0143 48.0264 84.7236C48.7282 84.4329 49.328 83.9406 49.75 83.309C50.172 82.6774 50.3973 81.9349 50.3973 81.1753C50.3969 80.1565 49.9922 79.1795 49.2721 78.4589C48.552 77.7382 47.5754 77.3328 46.5566 77.3316V77.3346Z" fill="#4B1010"/>
<path d="M45.4088 80.3358C45.5432 80.3345 45.6744 80.2947 45.7869 80.2212C45.8994 80.1477 45.9885 80.0435 46.0437 79.921C46.1064 79.7985 46.1302 79.6598 46.1118 79.5235C46.0935 79.3871 46.0339 79.2596 45.941 79.1581C45.8482 79.0566 45.7265 78.9858 45.5923 78.9554C45.4581 78.925 45.3179 78.9363 45.1903 78.9879C45.0417 79.0461 44.9174 79.1535 44.8383 79.2922C44.7592 79.4309 44.73 79.5924 44.7556 79.75C44.7811 79.9076 44.8599 80.0517 44.9788 80.1583C45.0976 80.2649 45.2494 80.3275 45.4088 80.3358Z" fill="#4B1010"/>
<path d="M48.7847 80.4093C48.6595 80.3448 48.5178 80.3191 48.3779 80.3357C48.238 80.3523 48.1062 80.4104 47.9996 80.5025C47.8929 80.5945 47.8163 80.7164 47.7794 80.8524C47.7426 80.9884 47.7473 81.1323 47.7929 81.2656C47.8385 81.3989 47.923 81.5155 48.0354 81.6005C48.1478 81.6854 48.2831 81.7347 48.4238 81.7422C48.5645 81.7496 48.7042 81.7148 48.8249 81.6422C48.9457 81.5696 49.0419 81.4626 49.1014 81.3348C49.1415 81.2533 49.1652 81.1646 49.1711 81.0739C49.1769 80.9832 49.1647 80.8923 49.1353 80.8063C49.1059 80.7203 49.0598 80.641 48.9996 80.5728C48.9394 80.5047 48.8664 80.4491 48.7847 80.4093Z" fill="#4B1010"/>
<path d="M46.7943 80.8743C45.6595 80.2862 44.2778 82.9484 45.408 83.5372C46.5382 84.1261 47.9268 81.4647 46.7943 80.8743Z" fill="#4B1010"/>
<path d="M125.796 118.157C125.796 119.277 126.241 120.352 127.033 121.144C127.825 121.936 128.9 122.381 130.02 122.381C131.14 122.381 132.215 121.936 133.007 121.144C133.799 120.352 134.244 119.277 134.244 118.157C134.244 117.037 133.799 115.962 133.007 115.17C132.215 114.378 131.14 113.933 130.02 113.933C128.9 113.933 127.825 114.378 127.033 115.17C126.241 115.962 125.796 117.037 125.796 118.157Z" fill="#FFB43B"/>
<path d="M130.02 122.764C129.109 122.764 128.218 122.494 127.46 121.988C126.703 121.482 126.112 120.762 125.763 119.92C125.415 119.078 125.323 118.152 125.501 117.258C125.679 116.364 126.118 115.543 126.762 114.899C127.406 114.255 128.227 113.816 129.121 113.638C130.015 113.46 130.941 113.552 131.783 113.9C132.625 114.249 133.345 114.84 133.851 115.597C134.357 116.355 134.627 117.246 134.627 118.157C134.626 119.379 134.14 120.55 133.277 121.414C132.413 122.277 131.242 122.763 130.02 122.764ZM130.02 114.317C129.26 114.317 128.518 114.542 127.886 114.964C127.255 115.386 126.762 115.986 126.472 116.688C126.181 117.39 126.105 118.162 126.253 118.907C126.401 119.652 126.767 120.337 127.305 120.874C127.842 121.411 128.526 121.777 129.271 121.925C130.016 122.073 130.788 121.997 131.49 121.706C132.192 121.415 132.792 120.923 133.214 120.291C133.636 119.659 133.861 118.917 133.861 118.157C133.859 117.139 133.454 116.163 132.734 115.443C132.014 114.723 131.038 114.318 130.02 114.317Z" fill="#4B1010"/>
<path d="M128.534 117.049C128.46 116.998 128.376 116.963 128.287 116.946C128.199 116.929 128.108 116.93 128.02 116.949C127.932 116.969 127.849 117.006 127.776 117.058C127.703 117.111 127.642 117.178 127.596 117.256C127.532 117.363 127.496 117.485 127.493 117.609C127.491 117.734 127.52 117.858 127.58 117.967C127.64 118.077 127.727 118.17 127.833 118.235C127.939 118.301 128.061 118.338 128.186 118.342C128.334 118.334 128.476 118.28 128.592 118.187C128.708 118.093 128.791 117.966 128.829 117.822C128.868 117.679 128.86 117.527 128.807 117.388C128.754 117.249 128.658 117.13 128.534 117.049Z" fill="#4B1010"/>
<path d="M132.098 116.68C132.062 116.552 131.989 116.438 131.888 116.351C131.787 116.265 131.662 116.21 131.53 116.193C131.398 116.177 131.264 116.199 131.145 116.259C131.026 116.318 130.927 116.411 130.86 116.526C130.793 116.641 130.762 116.773 130.77 116.906C130.778 117.039 130.824 117.166 130.904 117.273C130.984 117.379 131.094 117.46 131.219 117.504C131.344 117.549 131.48 117.556 131.609 117.524C131.786 117.477 131.936 117.361 132.028 117.203C132.12 117.045 132.145 116.857 132.098 116.68Z" fill="#4B1010"/>
<path d="M130.028 117.779C128.838 118.015 129.293 120.736 130.48 120.736C130.666 120.726 130.843 120.652 130.982 120.528C131.122 120.404 131.215 120.237 131.246 120.053C131.524 119.081 130.902 117.605 130.028 117.779Z" fill="#4B1010"/>
<path d="M138.486 23.0548C138.486 24.1751 138.931 25.2495 139.724 26.0417C140.516 26.8338 141.59 27.2789 142.71 27.2789C143.831 27.2789 144.905 26.8338 145.697 26.0417C146.489 25.2495 146.934 24.1751 146.934 23.0548C146.934 21.9346 146.489 20.8602 145.697 20.068C144.905 19.2758 143.831 18.8308 142.71 18.8308C141.59 18.8308 140.516 19.2758 139.724 20.068C138.931 20.8602 138.486 21.9346 138.486 23.0548Z" fill="#FFB43B"/>
<path d="M142.71 18.4456C141.799 18.4456 140.908 18.7158 140.15 19.222C139.393 19.7283 138.802 20.4479 138.453 21.2898C138.105 22.1317 138.013 23.0581 138.191 23.9518C138.369 24.8456 138.808 25.6665 139.452 26.3109C140.096 26.9552 140.917 27.394 141.811 27.5718C142.705 27.7496 143.631 27.6583 144.473 27.3096C145.315 26.9609 146.035 26.3704 146.541 25.6127C147.047 24.855 147.317 23.9642 147.317 23.053C147.316 21.8314 146.83 20.6603 145.966 19.7966C145.103 18.9329 143.931 18.447 142.71 18.4456ZM142.71 26.8928C141.95 26.8928 141.208 26.6676 140.576 26.2455C139.944 25.8235 139.452 25.2236 139.162 24.5218C138.871 23.8199 138.795 23.0477 138.943 22.3026C139.091 21.5576 139.457 20.8733 139.994 20.3362C140.532 19.7991 141.216 19.4333 141.961 19.2852C142.706 19.1371 143.478 19.2133 144.18 19.5041C144.882 19.7949 145.482 20.2873 145.904 20.919C146.326 21.5507 146.551 22.2933 146.551 23.053C146.55 24.0715 146.145 25.0482 145.425 25.7686C144.705 26.4889 143.728 26.8941 142.71 26.8951V26.8928Z" fill="#4B1010"/>
<path d="M142.083 21.3068C142.049 21.221 141.997 21.1434 141.93 21.079C141.864 21.0145 141.785 20.9647 141.698 20.9328C141.612 20.9008 141.519 20.8875 141.427 20.8935C141.335 20.8996 141.245 20.9249 141.163 20.9679C141.024 21.0368 140.912 21.1498 140.844 21.2892C140.776 21.4287 140.756 21.5867 140.788 21.7386C140.819 21.8905 140.9 22.0276 141.018 22.1285C141.136 22.2293 141.284 22.2882 141.439 22.296C141.555 22.2923 141.668 22.2608 141.769 22.2039C141.87 22.1471 141.956 22.0667 142.019 21.9695C142.082 21.8724 142.121 21.7614 142.132 21.646C142.143 21.5306 142.127 21.4143 142.083 21.3068Z" fill="#4B1010"/>
<path d="M143.983 22.5327C143.95 22.6172 143.933 22.7075 143.935 22.7984C143.937 22.8892 143.957 22.9788 143.993 23.062C144.03 23.1452 144.082 23.2204 144.148 23.2832C144.213 23.3461 144.291 23.3954 144.375 23.4282C144.504 23.4695 144.643 23.473 144.774 23.4383C144.905 23.4036 145.023 23.3321 145.115 23.2323C145.206 23.1324 145.268 23.0085 145.291 22.875C145.315 22.7415 145.299 22.6041 145.247 22.479C145.194 22.3519 145.103 22.2442 144.987 22.1703C144.87 22.0964 144.734 22.0599 144.596 22.0658C144.459 22.0716 144.326 22.1195 144.216 22.203C144.107 22.2865 144.025 22.4015 143.983 22.5327Z" fill="#4B1010"/>
<path d="M142.921 22.7504C141.746 22.2604 140.578 25.023 141.761 25.5191C142.943 26.0152 144.086 23.238 142.921 22.7504Z" fill="#4B1010"/>
<path d="M69.9409 30.4232C69.9409 30.9664 70.1567 31.4873 70.5408 31.8714C70.9248 32.2554 71.4457 32.4712 71.9889 32.4712C72.5321 32.4712 73.053 32.2554 73.4371 31.8714C73.8211 31.4873 74.0369 30.9664 74.0369 30.4232C74.0369 29.8801 73.8211 29.3592 73.4371 28.9751C73.053 28.591 72.5321 28.3752 71.9889 28.3752C71.4457 28.3752 70.9248 28.591 70.5408 28.9751C70.1567 29.3592 69.9409 29.8801 69.9409 30.4232Z" fill="#FFE55D"/>
<path d="M79.2271 30.665C79.2271 31.1404 79.4159 31.5964 79.7521 31.9326C80.0883 32.2688 80.5443 32.4576 81.0197 32.4576C81.4952 32.4576 81.9511 32.2688 82.2873 31.9326C82.6235 31.5964 82.8124 31.1404 82.8124 30.665C82.8124 30.1895 82.6235 29.7336 82.2873 29.3974C81.9511 29.0612 81.4952 28.8723 81.0197 28.8723C80.5443 28.8723 80.0883 29.0612 79.7521 29.3974C79.4159 29.7336 79.2271 30.1895 79.2271 30.665Z" fill="#FFE55D"/>
<path d="M109.611 94.0835C110.007 94.5872 110.643 95.0872 111.211 94.8127C111.453 94.6674 111.65 94.4576 111.779 94.2069C112.912 92.371 113.77 90.3798 114.327 88.2961C114.651 87.0846 112.564 88.4425 111.922 88.5897C111.528 88.6884 111.125 88.7454 110.719 88.7599C110.349 88.7668 109.999 88.6281 109.639 88.8366C108.909 89.3688 108.392 90.1446 108.183 91.0242C108.371 92.1552 108.865 93.2131 109.611 94.0835Z" fill="white"/>
<path d="M112.036 90.7687C112.815 90.199 113.462 89.4664 113.93 88.6218C114.006 88.4515 114.195 87.8358 114.356 87.7507C113.236 88.3175 112.017 88.6615 110.767 88.7636C110.397 88.7705 110.047 88.6317 109.687 88.8403C109.447 89.0187 109.263 89.2618 109.157 89.5411C108.901 90.0525 108.201 91.0025 108.872 91.4357C109.739 91.9909 111.198 91.3974 112.036 90.7687Z" fill="#FFE55D"/>
<path d="M93.9659 82.7663C93.2599 81.8771 92.7092 80.8749 92.3373 79.8021C92.2606 79.641 92.1479 79.4708 91.9769 79.4517C91.806 79.4325 91.5491 79.7929 91.5414 80.0858C91.5219 80.9357 91.7277 81.7756 92.138 82.5202C90.9112 81.1784 91.0776 80.0842 90.4243 80.0482C90.3173 80.0532 90.2139 80.0889 90.1266 80.151C90.0394 80.2132 89.9718 80.2991 89.932 80.3986C89.8745 80.6063 89.8745 80.8257 89.932 81.0335C90.0518 81.9861 90.5415 82.8534 91.2953 83.448L89.7419 82.0678C89.61 81.9635 89.4352 81.8378 89.2972 81.926C89.2498 81.9607 89.2125 82.0074 89.1892 82.0613C89.1659 82.1152 89.1574 82.1744 89.1645 82.2327C89.1768 82.6728 89.3294 83.0976 89.6 83.4449C89.9048 83.8865 90.261 84.2904 90.6612 84.6479C89.2811 83.6887 89.2473 83.6174 89.1078 83.7002C89.0639 83.7262 89.0303 83.7666 89.0127 83.8145C88.9786 83.9397 88.9727 84.0709 88.9957 84.1986C89.0186 84.3263 89.0698 84.4474 89.1453 84.5528C89.8058 85.689 90.8354 86.5646 92.0628 87.034C92.4016 87.1767 92.7661 87.2483 93.1337 87.2442C93.5013 87.2402 93.8641 87.1607 94.1997 87.0107C94.5353 86.8607 94.8365 86.6433 95.0846 86.372C95.3327 86.1008 95.5224 85.7814 95.642 85.4338C96.0331 84.3228 95.642 83.3498 95.4626 82.2419C95.4434 81.8759 95.4434 81.5091 95.4626 81.1431C95.4534 81.066 95.4274 80.9918 95.3864 80.9258C95.3455 80.8598 95.2905 80.8036 95.2254 80.7612C95.1603 80.7187 95.0867 80.6911 95.0098 80.6803C94.9328 80.6694 94.8545 80.6756 94.7802 80.6984C94.6027 80.7823 94.4545 80.9174 94.3546 81.0864C94.1658 81.3181 94.0326 81.59 93.9652 81.8812C93.8978 82.1724 93.8981 82.4752 93.9659 82.7663Z" fill="white"/>
<path d="M127.445 77.5769C126.342 74.1799 124.083 71.277 121.061 69.3726C119.889 68.7901 118.922 67.8652 118.287 66.7205C118.263 66.6358 118.206 66.5641 118.13 66.521C118.053 66.4778 117.963 66.4669 117.878 66.4904C117.483 66.6899 117.111 66.9335 116.771 67.2166C116.847 66.9528 116.525 66.7419 116.279 66.8523C112.893 68.3132 110.205 71.0289 108.778 74.4294C108.426 75.3431 108.217 76.3057 108.159 77.2832C107.312 78.4959 106.587 79.789 105.993 81.1438C105.523 82.1454 105.281 83.2386 105.283 84.345C105.391 85.2997 105.776 86.2018 106.391 86.9396C107.055 87.7633 107.868 88.4547 108.787 88.9777C108.711 89.1264 108.642 89.2782 108.568 89.4293C108.34 89.4625 108.122 89.5438 107.928 89.6677C106.073 89.3409 104.184 89.2533 102.307 89.407C100.411 89.5329 98.6042 90.2533 97.142 91.4658C97.0926 89.1067 96.7746 86.7609 96.1943 84.4738C96.1837 83.9428 96.1132 83.4148 95.9842 82.8996C95.8276 82.3098 95.78 81.6963 95.8439 81.0893C95.8298 80.9701 95.7924 80.8548 95.7337 80.7501C95.6751 80.6453 95.5964 80.5531 95.5021 80.4788C95.4078 80.4044 95.2998 80.3494 95.1843 80.3168C95.0687 80.2842 94.9479 80.2747 94.8287 80.2889C94.6617 80.3234 94.504 80.3934 94.3663 80.494C94.2286 80.5947 94.1141 80.7237 94.0305 80.8724C93.8808 81.1161 93.7493 81.3706 93.6372 81.6337C93.2463 81.0051 92.9266 80.335 92.6841 79.6356C92.6341 79.4901 92.5461 79.3607 92.4292 79.2608C92.3123 79.1609 92.1708 79.0941 92.0193 79.0674C91.5593 79.0153 91.1759 79.5919 91.1575 80.111C91.0744 79.9602 90.9483 79.8375 90.7953 79.7585C90.6423 79.6795 90.4693 79.6479 90.2982 79.6675C90.1272 79.6871 89.9658 79.7572 89.8347 79.8688C89.7036 79.9804 89.6086 80.1285 89.5619 80.2942C89.4894 80.55 89.486 80.8203 89.5519 81.0778C89.5721 81.24 89.602 81.4008 89.6416 81.5594C89.5489 81.5224 89.4487 81.5079 89.3493 81.5171C89.2499 81.5263 89.154 81.5589 89.0696 81.6123C88.9725 81.6827 88.895 81.7768 88.8446 81.8857C88.7941 81.9945 88.7724 82.1145 88.7813 82.2341C88.7909 82.606 88.8853 82.9708 89.0574 83.3006C88.5061 83.4387 88.4808 84.2767 88.8151 84.7368C89.1106 85.2297 89.474 85.6786 89.8947 86.0701C89.8379 87.3736 89.0957 88.9355 88.7652 90.2106L87.4572 95.1945C87.4284 95.2666 87.4156 95.3441 87.4197 95.4217C87.4238 95.4993 87.4447 95.5751 87.4809 95.6438C87.5238 95.7166 87.5876 95.775 87.664 95.8112C87.7404 95.8474 87.826 95.8599 87.9095 95.847C87.9782 95.8469 88.0456 95.8285 88.1047 95.7935C88.1638 95.7586 88.2124 95.7084 88.2455 95.6482C88.2785 95.588 88.2948 95.5201 88.2926 95.4515C88.2905 95.3828 88.2699 95.3161 88.2331 95.2581C89.7037 89.6608 89.519 90.2673 89.9491 89.0191C90.232 88.2702 90.4518 87.499 90.6062 86.7134C91.4416 87.3457 92.4614 87.6865 93.5091 87.6834C94.0022 87.6461 94.4752 87.4727 94.8755 87.1825C95.2758 86.8922 95.5877 86.4965 95.7764 86.0395C96.3243 89.2747 96.5603 92.5551 96.481 95.8355C96.4792 95.9371 96.5178 96.0354 96.5884 96.1086C96.659 96.1818 96.7558 96.2239 96.8575 96.2257C96.9592 96.2276 97.0574 96.1889 97.1306 96.1183C97.2038 96.0477 97.246 95.9509 97.2478 95.8493C97.2677 94.716 97.2478 93.5766 97.2018 92.4403C98.6018 91.0998 100.43 90.2966 102.364 90.1722C104.029 90.0356 105.704 90.094 107.355 90.3463C106.89 91.0464 106.62 91.8576 106.573 92.6966C106.525 93.5356 106.702 94.3721 107.085 95.1201C107.318 95.5124 107.584 95.8846 107.88 96.2326C107.916 96.2747 107.96 96.3085 108.01 96.3317C108.061 96.3548 108.116 96.3668 108.171 96.3668C108.226 96.3668 108.281 96.3548 108.331 96.3317C108.382 96.3085 108.426 96.2747 108.462 96.2326C108.855 95.7789 109.288 95.3619 109.756 94.9867C110.625 95.3256 110.565 95.4866 110.855 95.4245C111.238 95.6031 111.309 95.1546 112.486 94.8065C112.868 95.1651 113.165 95.6047 113.355 96.0931C113.384 96.1671 113.435 96.2302 113.501 96.2739C113.568 96.3175 113.646 96.3395 113.725 96.3367C113.805 96.3339 113.881 96.3065 113.944 96.2584C114.008 96.2102 114.054 96.1436 114.078 96.0678C114.52 94.6428 114.532 93.1194 114.114 91.6873C116.191 92.072 118.125 93.0131 119.709 94.4102C121.294 95.8074 122.469 97.6082 123.111 99.6209C123.124 99.6708 123.148 99.7175 123.18 99.7582C123.212 99.7989 123.252 99.8326 123.297 99.8575C123.342 99.8824 123.392 99.8978 123.444 99.9029C123.495 99.908 123.547 99.9026 123.596 99.887C123.646 99.8715 123.691 99.8462 123.731 99.8125C123.77 99.7789 123.802 99.7377 123.825 99.6913C123.848 99.645 123.861 99.5944 123.864 99.5428C123.867 99.4912 123.859 99.4395 123.842 99.3909C123.135 97.1765 121.823 95.2044 120.053 93.698C118.283 92.1917 116.126 91.2115 113.827 90.8685C113.81 90.8278 113.751 90.7074 113.74 90.6883C113.872 90.3632 113.912 90.2765 114.054 89.9215C114.743 89.7778 115.405 89.5276 116.017 89.1801C116.47 89.4396 116.971 89.607 117.489 89.6727C118.007 89.7384 118.533 89.701 119.037 89.5628C119.541 89.4246 120.012 89.1882 120.424 88.8673C120.837 88.5463 121.181 88.1471 121.439 87.6926C123.121 86.8218 124.623 85.6386 125.863 84.2062C126.69 83.3499 127.312 82.3169 127.682 81.1852C127.939 79.9837 127.857 78.7344 127.445 77.5769ZM94.9882 85.8616C94.6873 86.2951 94.2466 86.612 93.7398 86.7591C93.2331 86.9063 92.6911 86.8747 92.2049 86.6697C91.06 86.2058 90.0971 85.382 89.4614 84.3227C89.4413 84.2949 89.4241 84.2651 89.4101 84.2338L90.446 84.9561C90.5261 85.0135 90.6253 85.0378 90.7229 85.024C90.8205 85.0102 90.909 84.9593 90.9701 84.882C91.0312 84.8046 91.0601 84.7067 91.0509 84.6085C91.0417 84.5104 90.995 84.4196 90.9206 84.3549C90.5379 84.0135 90.1976 83.6274 89.9069 83.2048C89.7225 82.9621 89.5918 82.683 89.5236 82.3859C89.5236 82.3859 90.9313 83.6518 91.057 83.7515C91.1349 83.8169 91.2356 83.8486 91.3369 83.8398C91.4382 83.8309 91.5318 83.7822 91.5972 83.7043C91.6626 83.6265 91.6944 83.5258 91.6855 83.4245C91.6767 83.3232 91.628 83.2295 91.5501 83.1642L91.2303 82.8797C90.7135 82.3522 90.3866 81.668 90.301 80.9345C90.2648 80.8072 90.2601 80.673 90.2872 80.5434C90.2971 80.5177 90.3126 80.4945 90.3324 80.4754C90.3523 80.4563 90.3762 80.4418 90.4022 80.433C90.6783 80.4491 90.6652 81.4804 91.8545 82.7808C91.9177 82.8501 92.0041 82.8938 92.0973 82.9036C92.1905 82.9135 92.2842 82.8889 92.3605 82.8344C92.4368 82.7799 92.4905 82.6993 92.5114 82.6079C92.5323 82.5165 92.519 82.4206 92.474 82.3384C92.0986 81.6533 91.9091 80.882 91.9242 80.101C91.9295 80.0425 91.9473 79.9857 91.9764 79.9346C92.3172 80.9092 92.8012 81.8276 93.4125 82.6596C93.1699 83.0441 93.0261 83.4826 92.9937 83.936C92.9613 84.3895 93.0414 84.8439 93.227 85.2589C93.2482 85.2969 93.2767 85.3303 93.3109 85.3572C93.345 85.3842 93.3841 85.4041 93.426 85.4159C93.4679 85.4278 93.5117 85.4312 93.5549 85.4261C93.5981 85.421 93.6398 85.4075 93.6778 85.3862C93.9508 85.2329 93.8043 84.9814 93.7744 84.8019C93.6242 84.2472 93.6872 83.6564 93.9508 83.1458C94.0116 83.1496 94.0725 83.1386 94.1281 83.1137C94.1837 83.0888 94.2325 83.0508 94.2702 83.0029C94.3079 82.955 94.3335 82.8987 94.3446 82.8388C94.3557 82.7789 94.3521 82.7171 94.3341 82.6589C94.2858 82.4163 94.2925 82.166 94.3537 81.9264C94.4148 81.6867 94.5289 81.4639 94.6876 81.2741C95.1937 80.4345 95.0564 81.8109 95.0848 82.2993C95.2872 83.5491 95.748 84.5251 94.9882 85.8616ZM108.194 95.3953C108.038 95.1888 107.893 94.9741 107.76 94.752C107.475 94.1906 107.329 93.5694 107.333 92.9401C107.337 92.3108 107.491 91.6915 107.783 91.1337C107.784 91.5159 107.869 91.8931 108.032 92.2386C108.406 92.9763 108.879 93.66 109.436 94.2713C108.992 94.6128 108.575 94.9887 108.19 95.3953H108.194ZM110.842 94.578C109.958 93.838 109.236 92.9247 108.719 91.8944C108.589 91.6215 108.531 91.3197 108.551 91.018C108.83 90.4498 109.114 89.8678 109.395 89.2859C110.62 89.8794 111.982 90.1348 113.339 90.0258C112.767 91.6727 111.921 93.2116 110.838 94.578H110.842ZM113.573 94.8931C113.362 94.5959 113.114 94.3269 112.835 94.0926C112.616 93.9086 112.399 94.052 112.118 94.1448C112.613 93.4243 113.03 92.6532 113.362 91.8445C113.66 92.8311 113.731 93.8722 113.57 94.8901L113.573 94.8931Z" fill="#4B1010"/>
<path d="M121.033 86.261C120.844 85.7495 120.048 85.8063 119.653 85.9857C119.311 86.1391 119.014 85.7557 119.214 85.5257C119.007 85.0217 118.893 84.4846 118.877 83.94C118.845 83.0437 118.829 82.1466 118.877 81.251C118.877 80.9006 119.445 78.1917 119.824 78.1917C118.787 78.1946 117.761 77.9774 116.814 77.5545C115.867 77.1315 115.021 76.5124 114.331 75.7381C114.985 75.7548 115.626 75.5589 116.159 75.1799C114.931 75.3171 113.692 75.0632 112.617 74.4546C112.764 74.4373 112.904 74.3882 113.03 74.3108C113.155 74.2335 113.262 74.1296 113.343 74.0066C113.425 73.8835 113.478 73.7443 113.5 73.5985C113.521 73.4527 113.511 73.3039 113.469 73.1626C113.383 73.1787 113.297 73.1997 113.213 73.2255C110.392 75.2126 108.158 77.9222 106.745 81.0701C106.341 81.8567 106.085 82.7111 105.99 83.5904C106.002 84.2341 106.1 84.8734 106.281 85.4912C107.695 88.8135 114.064 91.2556 117.361 87.2263C117.626 86.8943 118.1 87.3682 117.826 87.6902C117.484 88.0927 117.095 88.4531 116.667 88.7636C118.427 89.5066 120.394 88.7115 120.913 87.313C121.074 86.987 121.117 86.615 121.033 86.261Z" fill="white"/>
<path d="M112.718 77.7189C112.77 78.1403 112.77 78.5665 112.718 78.9879C112.65 79.3862 112.45 79.75 112.149 80.0199C111.533 80.5518 110.836 80.9831 110.085 81.2981C109.706 81.4875 110.038 82.0648 110.417 81.867C111.256 81.5068 112.03 81.0107 112.708 80.3987C113.028 80.0386 113.255 79.6058 113.368 79.138C113.482 78.6703 113.48 78.1817 113.362 77.7151C113.36 77.6278 113.324 77.5445 113.263 77.4827C113.201 77.4209 113.118 77.3852 113.03 77.3831C112.987 77.3829 112.944 77.3913 112.903 77.4079C112.863 77.4245 112.826 77.449 112.795 77.4799C112.764 77.5107 112.74 77.5474 112.723 77.5878C112.707 77.6281 112.698 77.6714 112.698 77.7151L112.718 77.7189Z" fill="#4B1010"/>
<path d="M109.968 86.7862C109.64 86.7458 109.334 86.5993 109.097 86.3689C108.86 86.1386 108.704 85.8372 108.654 85.5103C108.587 84.9865 108.634 84.4545 108.79 83.95C108.82 83.8528 108.888 83.7717 108.979 83.7245C109.069 83.6774 109.174 83.668 109.271 83.6985C109.369 83.729 109.45 83.7969 109.497 83.8872C109.544 83.9775 109.553 84.0828 109.523 84.18C109.399 84.578 109.362 84.9979 109.414 85.4114C109.438 85.5666 109.512 85.7099 109.624 85.8203C109.735 85.9307 109.88 86.0023 110.035 86.0248C110.462 86.031 110.77 85.3892 111.399 84.2613C110.627 84.0719 109.885 83.7756 109.194 83.3811C109.106 83.3302 109.041 83.2464 109.015 83.148C108.988 83.0495 109.002 82.9446 109.053 82.8563C109.103 82.7679 109.187 82.7033 109.286 82.6768C109.384 82.6503 109.489 82.6639 109.577 82.7148C110.348 83.1547 111.187 83.4601 112.06 83.618C112.12 83.6289 112.177 83.654 112.225 83.6912C112.273 83.7283 112.312 83.7765 112.338 83.8317C112.364 83.8869 112.377 83.9475 112.375 84.0085C112.373 84.0695 112.356 84.1291 112.326 84.1823L111.579 85.518C111.214 86.192 110.727 86.8062 109.968 86.7862Z" fill="#4B1010"/>
<path d="M112.064 76.8143C112.002 76.8145 111.941 76.7995 111.887 76.7706C111.586 76.6135 111.255 76.5241 110.917 76.5086C110.578 76.4931 110.24 76.5519 109.927 76.6808C109.88 76.7025 109.829 76.7145 109.777 76.716C109.726 76.7176 109.674 76.7086 109.626 76.6897C109.578 76.6708 109.534 76.6424 109.497 76.6061C109.46 76.5699 109.431 76.5265 109.412 76.4787C109.392 76.4308 109.382 76.3795 109.383 76.3278C109.384 76.2761 109.395 76.225 109.416 76.1777C109.437 76.1304 109.467 76.0878 109.505 76.0525C109.542 76.0173 109.587 75.99 109.636 75.9724C110.052 75.8002 110.502 75.7217 110.952 75.7422C111.403 75.7627 111.843 75.8819 112.243 76.0912C112.319 76.131 112.379 76.1952 112.414 76.2734C112.45 76.3517 112.458 76.4395 112.437 76.5228C112.416 76.6062 112.368 76.6802 112.301 76.733C112.233 76.7859 112.15 76.8145 112.064 76.8143Z" fill="#4B1010"/>
<path d="M117.026 81.9468C116.929 81.947 116.835 81.9105 116.764 81.8444C116.693 81.7784 116.65 81.6878 116.643 81.591C116.612 81.1507 116.485 80.7224 116.271 80.336C116.058 79.9497 115.763 79.6144 115.407 79.3536C115.364 79.3246 115.328 79.2874 115.3 79.2441C115.273 79.2008 115.254 79.1524 115.245 79.1017C115.237 79.0511 115.238 78.9992 115.25 78.9491C115.262 78.8991 115.284 78.8519 115.314 78.8105C115.344 78.769 115.383 78.7341 115.427 78.7078C115.471 78.6815 115.52 78.6643 115.571 78.6574C115.622 78.6504 115.674 78.6537 115.723 78.6672C115.773 78.6806 115.819 78.7039 115.86 78.7356C116.306 79.0621 116.675 79.4816 116.942 79.9652C117.21 80.4487 117.369 80.9847 117.408 81.5358C117.412 81.5883 117.405 81.641 117.387 81.6907C117.37 81.7403 117.342 81.7858 117.306 81.8244C117.271 81.8629 117.227 81.8937 117.179 81.9147C117.131 81.9358 117.079 81.9467 117.026 81.9468Z" fill="#4B1010"/>
<path d="M110.956 77.3966C110.924 77.2724 110.675 77.0002 110.445 77.0654C109.939 77.1903 109.448 77.6021 109.592 78.1541C109.618 78.2917 109.686 78.4177 109.787 78.5147C109.888 78.6118 110.016 78.6751 110.155 78.6959C110.293 78.7168 110.434 78.694 110.559 78.6309C110.684 78.5677 110.786 78.4673 110.852 78.3435C111.003 78.0519 111.04 77.7142 110.956 77.3966Z" fill="#4B1010"/>
<path d="M114.814 81.1345C114.338 81.2419 113.831 81.7656 113.949 82.2548C113.978 82.3474 114.029 82.432 114.096 82.5021C114.164 82.5721 114.247 82.6256 114.338 82.6585C114.43 82.6914 114.528 82.7028 114.624 82.6919C114.721 82.6809 114.814 82.6478 114.896 82.5952C115.111 82.4622 115.285 82.2722 115.398 82.0462C115.748 81.3661 115.14 80.8071 114.814 81.1345Z" fill="#4B1010"/>
<path d="M120.706 86.5709C120.423 86.3182 120.054 86.1838 119.674 86.1955C119.295 86.2072 118.935 86.3641 118.668 86.6338C118.628 86.6663 118.596 86.7063 118.572 86.7514C118.549 86.7965 118.534 86.8459 118.53 86.8967C118.526 86.9474 118.532 86.9985 118.547 87.047C118.563 87.0955 118.588 87.1403 118.622 87.1789C118.655 87.2175 118.695 87.2491 118.741 87.2719C118.786 87.2946 118.836 87.3081 118.887 87.3115C118.938 87.3148 118.989 87.308 119.037 87.2914C119.085 87.2749 119.129 87.2489 119.167 87.2149C119.174 87.2096 119.769 86.7066 120.158 87.1061C120.229 87.1788 120.326 87.2202 120.428 87.2213C120.478 87.2218 120.528 87.2124 120.575 87.1937C120.622 87.1749 120.665 87.1471 120.701 87.1118C120.737 87.0766 120.765 87.0346 120.785 86.9883C120.805 86.9419 120.815 86.8922 120.816 86.8418C120.816 86.7914 120.807 86.7414 120.788 86.6947C120.769 86.6479 120.742 86.6053 120.706 86.5694V86.5709Z" fill="#4B1010"/>
<path d="M112.67 86.1088C112.67 86.6633 112.891 87.1951 113.283 87.5873C113.675 87.9794 114.207 88.1997 114.761 88.1997C115.316 88.1997 115.848 87.9794 116.24 87.5873C116.632 87.1951 116.852 86.6633 116.852 86.1088C116.852 85.5542 116.632 85.0224 116.24 84.6302C115.848 84.2381 115.316 84.0178 114.761 84.0178C114.207 84.0178 113.675 84.2381 113.283 84.6302C112.891 85.0224 112.67 85.5542 112.67 86.1088Z" fill="#FFE55D"/>
<path d="M106.069 80.1836C106.069 80.4178 106.115 80.6497 106.205 80.8661C106.295 81.0825 106.426 81.2791 106.592 81.4447C106.757 81.6103 106.954 81.7417 107.17 81.8313C107.387 81.9209 107.619 81.9671 107.853 81.9671C108.087 81.9671 108.319 81.9209 108.535 81.8313C108.752 81.7417 108.948 81.6103 109.114 81.4447C109.28 81.2791 109.411 81.0825 109.5 80.8661C109.59 80.6497 109.636 80.4178 109.636 80.1836C109.636 79.9494 109.59 79.7175 109.5 79.5011C109.411 79.2847 109.28 79.0881 109.114 78.9225C108.948 78.7569 108.752 78.6255 108.535 78.5359C108.319 78.4463 108.087 78.4001 107.853 78.4001C107.619 78.4001 107.387 78.4463 107.17 78.5359C106.954 78.6255 106.757 78.7569 106.592 78.9225C106.426 79.0881 106.295 79.2847 106.205 79.5011C106.115 79.7175 106.069 79.9494 106.069 80.1836Z" fill="#FFE55D"/>
</svg>
