<svg width="154" height="154" viewBox="0 0 154 154" fill="none" xmlns="http://www.w3.org/2000/svg">
<path d="M75.569 99.0357C75.495 99.0354 75.4236 99.0085 75.3677 98.9599C75.3119 98.9114 75.2753 98.8444 75.2646 98.7712C75.2544 98.6977 75.2712 98.6231 75.3118 98.5611C75.3524 98.4991 75.4141 98.4538 75.4854 98.4338C78.0295 97.7192 80.5958 97.0759 83.11 96.2869C102.489 90.5194 120.019 82.8627 132.476 74.7267C144.854 66.6429 150.742 59.0743 149.056 53.4157C148.015 49.7736 143.807 47.1283 136.887 45.7589C136.848 45.7515 136.81 45.7361 136.776 45.7137C136.743 45.6913 136.714 45.6623 136.692 45.6286C136.664 45.5867 136.646 45.5385 136.641 45.4882C136.636 45.4379 136.643 45.3872 136.663 45.3405C136.682 45.2938 136.712 45.2526 136.752 45.2206C136.791 45.1885 136.837 45.1667 136.887 45.157C136.926 45.1492 136.967 45.1492 137.006 45.157C144.167 46.5724 148.537 49.3688 149.645 53.2439C151.414 59.1824 145.436 66.9948 132.811 75.2404C120.306 83.4078 102.718 91.0906 83.2894 96.8735C81.2108 97.526 75.6511 99.0357 75.5683 99.0357H75.569Z" fill="#4B1010"/>
<path d="M45.9003 70.7256C51.5106 62.7514 75.322 54.2175 90.4354 54.2175C90.4757 54.2175 90.5155 54.2255 90.5528 54.2409C90.59 54.2563 90.6238 54.2789 90.6523 54.3074C90.6807 54.3358 90.7033 54.3696 90.7187 54.4069C90.7341 54.4441 90.7421 54.484 90.7421 54.5242C90.7421 54.5645 90.7341 54.6044 90.7187 54.6416C90.7033 54.6788 90.6807 54.7126 90.6523 54.7411C90.6238 54.7696 90.59 54.7922 90.5528 54.8076C90.5155 54.823 90.4757 54.8309 90.4354 54.8309C75.4769 54.8309 51.8625 63.3188 46.4018 71.0783C46.3539 71.1419 46.2831 71.1844 46.2045 71.1968C46.1258 71.2091 46.0455 71.1904 45.9804 71.1446C45.9152 71.0988 45.8705 71.0295 45.8555 70.9513C45.8406 70.8731 45.8567 70.7922 45.9003 70.7256Z" fill="#4B1010"/>
<path d="M20.7908 74.5113C47.1194 57.3161 93.1581 43.9617 123.351 43.9617C123.432 43.9617 123.51 43.994 123.568 44.0515C123.626 44.109 123.658 44.187 123.658 44.2684C123.658 44.3497 123.626 44.4277 123.568 44.4852C123.51 44.5428 123.432 44.5751 123.351 44.5751C93.2225 44.5751 47.2973 57.9334 21.1259 75.0257C8.74823 83.1096 2.86037 90.6774 4.54645 96.336C6.88963 104.197 23.5787 107.098 48.0978 103.911C48.1766 103.905 48.2547 103.93 48.3161 103.979C48.3774 104.029 48.4173 104.101 48.4275 104.179C48.4373 104.257 48.4165 104.337 48.3693 104.4C48.3222 104.464 48.2524 104.506 48.1745 104.52C3.56654 110.318 -11.2217 95.4205 20.7908 74.5113Z" fill="#4B1010"/>
<path d="M111.487 59.4422C111.852 58.9004 112.1 58.2887 112.216 57.6459C112.332 57.0031 112.313 56.3432 112.16 55.7082C111.366 53.1135 107.286 51.4956 100.677 51.1728C100.596 51.1689 100.519 51.1328 100.464 51.0724C100.41 51.0121 100.381 50.9325 100.385 50.8512C100.389 50.7698 100.425 50.6934 100.486 50.6387C100.546 50.584 100.625 50.5555 100.707 50.5594C107.694 50.9006 111.859 52.6251 112.752 55.5471C112.927 56.2666 112.951 57.0148 112.821 57.7439C112.691 58.473 112.411 59.1671 111.998 59.7819C111.963 59.8307 111.916 59.8685 111.86 59.8906C111.805 59.9127 111.744 59.9182 111.685 59.9064C111.627 59.8946 111.573 59.8661 111.53 59.8242C111.488 59.7824 111.458 59.7291 111.445 59.6707C111.429 59.592 111.444 59.5099 111.487 59.4422Z" fill="#4B1010"/>
<path d="M31.3825 120.833C25.1925 120.833 17.1623 120.438 11.447 118.094C11.4097 118.079 11.3759 118.056 11.3473 118.028C11.3187 118 11.296 117.966 11.2805 117.929C11.265 117.891 11.257 117.852 11.2568 117.811C11.2567 117.771 11.2645 117.731 11.2798 117.694C11.7169 116.629 13.5625 120.439 33.3446 120.207C51.9865 119.989 73.6878 115.169 94.4506 106.636C94.5253 106.609 94.6073 106.612 94.6797 106.645C94.7521 106.677 94.8093 106.736 94.8394 106.809C94.8696 106.883 94.8699 106.965 94.8402 107.039C94.8106 107.113 94.7533 107.172 94.6807 107.204C75.1063 115.249 52.7288 120.833 31.3825 120.833Z" fill="#FFE55D"/>
<path d="M34.0924 88.7742C22.102 86.5261 21.4464 79.6016 30.9288 71.6971C30.9918 71.6501 31.0705 71.6291 31.1486 71.6384C31.2266 71.6477 31.2982 71.6866 31.3483 71.7472C31.3985 71.8077 31.4236 71.8852 31.4183 71.9636C31.413 72.0421 31.3777 72.1155 31.3199 72.1687C22.4102 79.5939 22.5981 85.9924 34.2021 88.1684C34.2823 88.1834 34.3533 88.2294 34.3997 88.2965C34.4461 88.3635 34.4641 88.4462 34.4497 88.5265C34.4348 88.6065 34.3889 88.6774 34.322 88.7238C34.2551 88.7702 34.1726 88.7883 34.0924 88.7742Z" fill="#FFE55D"/>
<path d="M87.6533 51.9691C87.5721 51.9735 87.4924 51.9457 87.4315 51.8917C87.3707 51.8377 87.3335 51.7619 87.3282 51.6808C87.3257 51.6404 87.3312 51.6 87.3444 51.5617C87.3576 51.5235 87.3783 51.4883 87.4051 51.4581C87.432 51.4279 87.4646 51.4033 87.501 51.3857C87.5374 51.3681 87.5769 51.3579 87.6173 51.3557C88.9254 51.2023 91.5108 50.8787 91.5108 50.8787C91.5711 50.8714 91.6321 50.882 91.6864 50.9091C91.7407 50.9362 91.7857 50.9787 91.816 51.0313C91.8556 51.1023 91.8661 51.1859 91.8451 51.2644C91.8232 51.3427 91.7714 51.4093 91.701 51.45C91.666 51.47 91.6275 51.483 91.5875 51.4883C91.4679 51.5044 87.7354 51.9691 87.6533 51.9691Z" fill="#4B1010"/>
<path d="M95.7626 55.6378C96.0446 55.6378 96.3237 55.5823 96.5842 55.4744C96.8447 55.3665 97.0813 55.2083 97.2807 55.009C97.4801 54.8096 97.6382 54.5729 97.7461 54.3125C97.854 54.052 97.9095 53.7728 97.9095 53.4909C97.9095 53.209 97.854 52.9298 97.7461 52.6693C97.6382 52.4088 97.4801 52.1722 97.2807 51.9728C97.0813 51.7734 96.8447 51.6153 96.5842 51.5074C96.3237 51.3995 96.0446 51.344 95.7626 51.344C95.1932 51.344 94.6472 51.5702 94.2445 51.9728C93.8419 52.3754 93.6157 52.9215 93.6157 53.4909C93.6157 54.0603 93.8419 54.6064 94.2445 55.009C94.6472 55.4116 95.1932 55.6378 95.7626 55.6378Z" fill="#FFE55D"/>
<path d="M95.7625 55.9438C95.4352 55.952 95.1096 55.8946 94.8049 55.775C94.5001 55.6554 94.2224 55.476 93.988 55.2475C93.7537 55.0189 93.5674 54.7457 93.4402 54.4441C93.3131 54.1424 93.2476 53.8183 93.2476 53.491C93.2476 53.1636 93.3131 52.8395 93.4402 52.5379C93.5674 52.2362 93.7537 51.963 93.988 51.7344C94.2224 51.5059 94.5001 51.3265 94.8049 51.2069C95.1096 51.0873 95.4352 51.0299 95.7625 51.0381C96.4024 51.0541 97.0107 51.3196 97.4577 51.7778C97.9046 52.2361 98.1548 52.8508 98.1548 53.491C98.1548 54.1311 97.9046 54.7458 97.4577 55.2041C97.0107 55.6623 96.4024 55.9278 95.7625 55.9438ZM95.7625 51.65C95.3985 51.6498 95.0426 51.7576 94.7399 51.9599C94.4373 52.1622 94.2016 52.4499 94.0626 52.7863C93.9236 53.1225 93.8873 53.4924 93.9582 53.8492C94.0292 54.2061 94.2042 54.5339 94.4613 54.7914C94.6752 55.0055 94.9387 55.1636 95.2283 55.2517C95.5179 55.3397 95.8248 55.3549 96.1217 55.2959C96.4186 55.237 96.6964 55.1057 96.9304 54.9137C97.1645 54.7217 97.3475 54.475 97.4634 54.1953C97.5793 53.9156 97.6244 53.6117 97.5947 53.3105C97.565 53.0092 97.4614 52.72 97.2932 52.4683C97.125 52.2166 96.8973 52.0104 96.6303 51.8678C96.3633 51.7252 96.0652 51.6506 95.7625 51.6508V51.65Z" fill="#4B1010"/>
<path d="M45.5144 76.2285C45.915 76.2285 46.2992 76.0694 46.5825 75.7861C46.8658 75.5028 47.0249 75.1186 47.0249 74.718C47.0249 74.3174 46.8658 73.9332 46.5825 73.6499C46.2992 73.3667 45.915 73.2075 45.5144 73.2075C45.1138 73.2075 44.7296 73.3667 44.4463 73.6499C44.163 73.9332 44.0039 74.3174 44.0039 74.718C44.0039 75.1186 44.163 75.5028 44.4463 75.7861C44.7296 76.0694 45.1138 76.2285 45.5144 76.2285Z" fill="#FFE55D"/>
<path d="M45.5168 76.5351C45.2751 76.54 45.0348 76.4966 44.8101 76.4074C44.5854 76.3182 44.3807 76.1851 44.208 76.0159C44.0354 75.8466 43.8983 75.6446 43.8047 75.4216C43.7111 75.1987 43.663 74.9593 43.6631 74.7175C43.6632 74.4758 43.7115 74.2364 43.8053 74.0136C43.8991 73.7907 44.0364 73.5888 44.2091 73.4197C44.3819 73.2506 44.5867 73.1176 44.8115 73.0287C45.0363 72.9397 45.2766 72.8965 45.5184 72.9015C45.9937 72.9115 46.4463 73.1074 46.7789 73.4472C47.1115 73.787 47.2977 74.2436 47.2975 74.7191C47.2973 75.1946 47.1107 75.651 46.7778 75.9906C46.4449 76.3301 45.9922 76.5256 45.5168 76.5351ZM45.5168 73.5142C45.3586 73.5142 45.202 73.5453 45.0559 73.6058C44.9097 73.6664 44.7769 73.7551 44.6651 73.867C44.5532 73.9788 44.4645 74.1116 44.404 74.2577C44.3434 74.4039 44.3123 74.5605 44.3123 74.7187C44.3123 74.8769 44.3434 75.0335 44.404 75.1797C44.4645 75.3258 44.5532 75.4586 44.6651 75.5705C44.7769 75.6823 44.9097 75.7711 45.0559 75.8316C45.202 75.8921 45.3586 75.9233 45.5168 75.9233C45.8363 75.9233 46.1427 75.7964 46.3686 75.5705C46.5945 75.3446 46.7214 75.0382 46.7214 74.7187C46.7214 74.3992 46.5945 74.0929 46.3686 73.867C46.1427 73.6411 45.8363 73.5142 45.5168 73.5142Z" fill="#4B1010"/>
<path d="M38.8363 90.9369C39.1741 90.9427 39.5096 90.8813 39.8234 90.7561C40.1371 90.6309 40.4228 90.4445 40.6637 90.2077C40.9047 89.9709 41.096 89.6885 41.2267 89.377C41.3573 89.0654 41.4246 88.731 41.4246 88.3932C41.4246 88.0554 41.3573 87.721 41.2267 87.4094C41.096 87.0979 40.9047 86.8155 40.6637 86.5787C40.4228 86.3419 40.1371 86.1555 39.8234 86.0303C39.5096 85.9051 39.1741 85.8436 38.8363 85.8495C38.1694 85.8611 37.5336 86.1342 37.066 86.6099C36.5984 87.0857 36.3364 87.7261 36.3364 88.3932C36.3364 89.0603 36.5984 89.7007 37.066 90.1764C37.5336 90.6522 38.1694 90.9253 38.8363 90.9369Z" fill="#FFE55D"/>
<path d="M38.8371 91.2443C38.0809 91.2451 37.3553 90.9453 36.82 90.411C36.2847 89.8768 35.9836 89.1518 35.9829 88.3955C35.9822 87.6392 36.2819 86.9136 36.8162 86.3784C37.3505 85.8431 38.0755 85.542 38.8318 85.5413C39.2062 85.5409 39.5771 85.6143 39.9232 85.7573C40.2693 85.9003 40.5839 86.11 40.8489 86.3746C41.1139 86.6391 41.3243 86.9533 41.4679 87.2991C41.6115 87.6449 41.6856 88.0156 41.686 88.3901C41.6863 88.7646 41.6129 89.1355 41.47 89.4816C41.327 89.8277 41.1172 90.1422 40.8527 90.4072C40.5882 90.6723 40.274 90.8826 39.9282 91.0263C39.5823 91.1699 39.2116 91.244 38.8371 91.2443ZM38.8371 86.1554C38.5397 86.1498 38.2441 86.2035 37.9676 86.3133C37.6912 86.4232 37.4394 86.5871 37.227 86.7954C37.0145 87.0037 36.8458 87.2523 36.7305 87.5265C36.6153 87.8008 36.5558 88.0953 36.5557 88.3928C36.5555 88.6903 36.6147 88.9848 36.7296 89.2592C36.8446 89.5336 37.0131 89.7823 37.2253 89.9908C37.4375 90.1994 37.6891 90.3635 37.9655 90.4737C38.2418 90.5838 38.5374 90.6378 38.8348 90.6325C39.4214 90.6219 39.9803 90.3816 40.3915 89.9632C40.8027 89.5448 41.0332 88.9817 41.0335 88.3951C41.0338 87.8085 40.8038 87.2452 40.3931 86.8263C39.9824 86.4075 39.4237 86.1666 38.8371 86.1554Z" fill="#4B1010"/>
<path d="M106.575 70.5851C107.819 70.5851 109.012 70.0908 109.892 69.2111C110.772 68.3314 111.266 67.1382 111.266 65.8941C111.266 64.65 110.772 63.4568 109.892 62.5771C109.012 61.6974 107.819 61.2031 106.575 61.2031C105.331 61.2031 104.137 61.6974 103.258 62.5771C102.378 63.4568 101.884 64.65 101.884 65.8941C101.884 67.1382 102.378 68.3314 103.258 69.2111C104.137 70.0908 105.331 70.5851 106.575 70.5851Z" fill="#FFE55D"/>
<path d="M106.575 70.8916C105.587 70.8916 104.621 70.5985 103.799 70.0493C102.977 69.5002 102.336 68.7196 101.958 67.8064C101.58 66.8932 101.481 65.8884 101.674 64.9189C101.867 63.9495 102.342 63.059 103.041 62.36C103.74 61.6611 104.631 61.1851 105.6 60.9923C106.57 60.7994 107.575 60.8984 108.488 61.2767C109.401 61.6549 110.182 62.2955 110.731 63.1174C111.28 63.9392 111.573 64.9055 111.573 65.8939C111.572 67.2189 111.045 68.4893 110.108 69.4262C109.171 70.3632 107.9 70.8902 106.575 70.8916ZM106.575 61.5096C105.927 61.5099 105.287 61.6539 104.701 61.9312C104.115 62.2085 103.598 62.6122 103.187 63.1133C102.776 63.6144 102.481 64.2004 102.323 64.8292C102.165 65.4579 102.149 66.1138 102.275 66.7496C102.401 67.3857 102.667 67.9858 103.053 68.5068C103.439 69.0277 103.936 69.4565 104.508 69.7622C105.08 70.0678 105.712 70.2428 106.36 70.2743C107.008 70.3059 107.654 70.1933 108.253 69.9446C108.919 69.6689 109.507 69.2331 109.964 68.6758C110.422 68.1186 110.734 67.4571 110.875 66.75C111.015 66.0429 110.979 65.312 110.77 64.6222C110.56 63.9324 110.184 63.3049 109.674 62.7955C108.852 61.9734 107.738 61.511 106.575 61.5096Z" fill="#4B1010"/>
<path d="M104.849 65.1729C104.948 64.8279 104.893 64.2919 104.269 64.2919C104.209 64.2949 104.151 64.3103 104.097 64.3369C104.044 64.3636 103.996 64.401 103.958 64.4469C103.92 64.4927 103.891 64.546 103.874 64.6034C103.858 64.6608 103.853 64.721 103.86 64.7804C103.86 64.8617 103.828 64.9397 103.771 64.9972C103.713 65.0547 103.635 65.0871 103.554 65.0871C103.472 65.0871 103.394 65.0547 103.337 64.9972C103.279 64.9397 103.247 64.8617 103.247 64.7804C103.247 63.0705 105.931 63.4324 105.451 65.2979C105.451 65.8285 104.694 65.7166 104.849 65.1729Z" fill="#4B1010"/>
<path d="M108.983 66.0727C109.17 65.8887 109.043 65.2508 108.513 65.1619C108.433 65.1499 108.351 65.1546 108.272 65.1755C108.194 65.1964 108.121 65.2331 108.057 65.2834C107.994 65.3336 107.941 65.3964 107.902 65.4678C107.864 65.5392 107.841 65.6178 107.834 65.6986C107.829 65.7388 107.816 65.7776 107.795 65.8127C107.775 65.8477 107.748 65.8783 107.715 65.9026C107.683 65.9269 107.646 65.9444 107.607 65.954C107.567 65.9636 107.526 65.9651 107.486 65.9585C106.856 65.8688 107.456 64.3598 108.613 64.5577C108.824 64.5886 109.023 64.6737 109.19 64.8048C109.358 64.9358 109.489 65.1082 109.57 65.3051C109.651 65.5019 109.679 65.7164 109.652 65.9275C109.625 66.1386 109.543 66.339 109.415 66.509C109.357 66.5663 109.279 66.5983 109.198 66.598C109.116 66.5977 109.038 66.5652 108.981 66.5075C108.952 66.4788 108.93 66.4449 108.914 66.4075C108.899 66.3701 108.891 66.33 108.891 66.2896C108.892 66.2492 108.9 66.2093 108.916 66.1721C108.931 66.1349 108.954 66.1011 108.983 66.0727Z" fill="#4B1010"/>
<path d="M104.371 66.6905C104.356 66.6321 104.358 66.5705 104.378 66.5134C104.397 66.4563 104.433 66.4061 104.481 66.3691C104.528 66.3321 104.586 66.31 104.646 66.3053C104.706 66.3007 104.766 66.3139 104.819 66.3431C104.854 66.3631 104.885 66.3897 104.91 66.4216C104.934 66.4534 104.953 66.4898 104.963 66.5287C105.019 66.7631 105.138 66.9778 105.307 67.1498C105.476 67.3218 105.689 67.4445 105.922 67.5048C106.156 67.5643 106.402 67.5588 106.633 67.4889C106.864 67.4191 107.071 67.2875 107.233 67.1084C107.291 67.0532 107.368 67.0229 107.448 67.0238C107.528 67.0248 107.604 67.0569 107.661 67.1135C107.718 67.17 107.75 67.2463 107.751 67.3263C107.752 67.4063 107.722 67.4835 107.667 67.5416C107.49 67.7331 107.275 67.8868 107.037 67.9933C106.799 68.0998 106.541 68.157 106.28 68.1613C106.019 68.1656 105.76 68.1169 105.519 68.0183C105.277 67.9197 105.058 67.7732 104.874 67.5876C104.629 67.3394 104.455 67.0294 104.371 66.6905Z" fill="#4B1010"/>
<path d="M130.108 48.1635C131.12 48.1635 132.091 47.7614 132.806 47.0458C133.522 46.3301 133.924 45.3595 133.924 44.3474C133.924 43.3353 133.522 42.3646 132.806 41.649C132.091 40.9333 131.12 40.5313 130.108 40.5312C129.096 40.5313 128.125 40.9333 127.41 41.649C126.694 42.3646 126.292 43.3353 126.292 44.3474C126.292 45.3595 126.694 46.3301 127.41 47.0458C128.125 47.7614 129.096 48.1635 130.108 48.1635Z" fill="#FFE55D"/>
<path d="M130.109 48.4701C129.293 48.4705 128.496 48.229 127.817 47.7762C127.139 47.3233 126.61 46.6794 126.297 45.9259C125.985 45.1724 125.903 44.3432 126.062 43.5431C126.221 42.7431 126.613 42.0081 127.19 41.4312C127.767 40.8543 128.502 40.4614 129.302 40.3022C130.102 40.143 130.931 40.2246 131.685 40.5368C132.438 40.8489 133.082 41.3776 133.535 42.0559C133.988 42.7341 134.23 43.5315 134.23 44.3472C134.229 45.44 133.794 46.4878 133.022 47.2606C132.249 48.0335 131.202 48.4684 130.109 48.4701ZM130.109 40.8378C129.59 40.8371 129.077 40.9517 128.607 41.1733C128.137 41.3948 127.723 41.7179 127.393 42.1192C127.064 42.5204 126.827 42.9899 126.701 43.4936C126.575 43.9973 126.562 44.5227 126.664 45.032C126.765 45.5413 126.977 46.0218 127.286 46.439C127.595 46.8562 127.993 47.1996 128.451 47.4445C128.909 47.6893 129.415 47.8295 129.934 47.8549C130.452 47.8803 130.97 47.7903 131.45 47.5914C132.201 47.2814 132.821 46.7205 133.205 46.0042C133.589 45.2879 133.712 44.4607 133.554 43.6637C133.395 42.8667 132.965 42.1494 132.337 41.634C131.709 41.1186 130.921 40.8373 130.109 40.8378Z" fill="#4B1010"/>
<path d="M60.304 110.973C65.3975 110.973 69.5265 106.844 69.5265 101.751C69.5265 96.6573 65.3975 92.5283 60.304 92.5283C55.2105 92.5283 51.0815 96.6573 51.0815 101.751C51.0815 106.844 55.2105 110.973 60.304 110.973Z" fill="white"/>
<path d="M60.3035 111.28C58.8944 111.279 57.5029 110.967 56.2292 110.364C54.9555 109.761 53.8312 108.884 52.9373 107.795C52.0434 106.705 51.402 105.431 51.0595 104.065C50.7169 102.698 50.6816 101.272 50.9561 99.8899C51.4195 97.5708 52.7286 95.5069 54.6289 94.0992C56.5292 92.6915 58.8851 92.0406 61.2385 92.273C63.592 92.5053 65.775 93.6044 67.3633 95.3566C68.9516 97.1088 69.8317 99.3889 69.8327 101.754C69.829 104.28 68.8238 106.701 67.0374 108.487C65.2511 110.273 62.8294 111.277 60.3035 111.28ZM60.3035 92.8342C58.5401 92.8341 56.8163 93.3569 55.3501 94.3366C53.8838 95.3163 52.7411 96.7088 52.0663 98.338C51.5609 99.5561 51.3319 100.871 51.396 102.188C51.46 103.506 51.8154 104.792 52.4367 105.956C53.0579 107.119 53.9294 108.13 54.9885 108.916C56.0475 109.702 57.2678 110.243 58.5612 110.501C59.8547 110.759 61.1891 110.726 62.4685 110.406C63.7479 110.085 64.9402 109.485 65.9597 108.649C66.9792 107.812 67.8004 106.76 68.3642 105.567C68.928 104.375 69.2203 103.073 69.22 101.754C69.218 99.3894 68.278 97.1223 66.6064 95.4501C64.9347 93.7778 62.668 92.8371 60.3035 92.8342Z" fill="#4B1010"/>
<path d="M56.2854 102.904C55.4497 100.957 56.2126 99.67 57.1979 99.3879C58.1249 99.1103 58.9813 99.7712 59.7113 100.406C59.768 100.461 59.8014 100.536 59.8047 100.615C59.808 100.693 59.7808 100.771 59.7289 100.83C59.6765 100.889 59.6034 100.926 59.5248 100.932C59.4463 100.939 59.3681 100.915 59.3064 100.866C58.7007 100.336 58.003 99.7843 57.3704 99.9752C57.1436 100.061 56.9461 100.209 56.8012 100.403C56.6563 100.598 56.5702 100.829 56.553 101.071C56.5105 101.618 56.6125 102.166 56.849 102.661C56.865 102.698 56.8735 102.738 56.8741 102.778C56.8746 102.818 56.8673 102.859 56.8524 102.896C56.8375 102.933 56.8154 102.968 56.7873 102.996C56.7592 103.025 56.7257 103.048 56.6887 103.064C56.6517 103.08 56.612 103.089 56.5717 103.089C56.5314 103.09 56.4914 103.083 56.4539 103.068C56.4165 103.053 56.3823 103.031 56.3534 103.003C56.3245 102.975 56.3014 102.941 56.2854 102.904Z" fill="#4B1010"/>
<path d="M62.5818 98.0856C62.2401 97.5107 62.0612 96.8537 62.0643 96.1849C62.0562 95.9514 62.1096 95.7198 62.2191 95.5135C62.3286 95.3071 62.4904 95.1331 62.6883 95.0089C62.8862 94.8846 63.1133 94.8146 63.3467 94.8057C63.5802 94.7967 63.8119 94.8493 64.0187 94.9581C64.5542 95.1983 64.9943 95.6104 65.2693 96.1289C65.2921 96.174 65.3033 96.2241 65.302 96.2746C65.3007 96.3252 65.2869 96.3746 65.2619 96.4185C65.2368 96.4624 65.2013 96.4994 65.1584 96.5262C65.1155 96.553 65.0667 96.5688 65.0163 96.5721C64.9353 96.5771 64.8555 96.5505 64.7939 96.4977C64.7633 96.4715 64.7383 96.4394 64.7203 96.4034C64.5051 96.0033 64.1612 95.6875 63.7442 95.5071C63.6308 95.4458 63.5031 95.4159 63.3742 95.4206C63.2454 95.4252 63.1201 95.4642 63.0114 95.5334C62.9026 95.6027 62.8144 95.6997 62.7557 95.8145C62.697 95.9293 62.6701 96.0577 62.6777 96.1864C62.676 96.7484 62.8268 97.3004 63.114 97.7835C63.1475 97.8536 63.1532 97.9337 63.1299 98.0078C63.1067 98.0818 63.0562 98.1443 62.9887 98.1827C62.9212 98.221 62.8417 98.2323 62.7662 98.2143C62.6907 98.1963 62.6248 98.1503 62.5818 98.0856Z" fill="#4B1010"/>
<path d="M60.6223 102.148C61.3009 103.505 62.8091 104.567 64.1203 103.897C65.9605 102.958 65.0741 100.637 64.1203 99.603C64.2094 99.9443 64.1883 100.305 64.0597 100.634C63.9312 100.962 63.702 101.242 63.4049 101.432C63.0387 101.776 62.5916 102.022 62.1051 102.147C61.6185 102.272 61.1083 102.272 60.6216 102.148H60.6223Z" fill="#FFE55D"/>
<path d="M60.347 102.285C60.3271 102.246 60.3159 102.203 60.3142 102.159C60.3125 102.115 60.3202 102.071 60.337 102.031C60.3537 101.99 60.3791 101.954 60.4112 101.924C60.4434 101.894 60.4816 101.871 60.5234 101.857C60.579 101.839 60.6389 101.836 60.6959 101.85C61.1309 101.964 61.5877 101.965 62.0234 101.854C62.4591 101.743 62.8595 101.524 63.187 101.216C63.6111 100.844 64.0512 100.295 63.8326 99.7112C63.8078 99.6446 63.8068 99.5715 63.8298 99.5044C63.8528 99.4372 63.8985 99.3801 63.9589 99.3428C64.0194 99.3055 64.0909 99.2903 64.1613 99.2999C64.2317 99.3095 64.2965 99.3432 64.3448 99.3953C65.6797 100.842 66.1007 103.21 64.2613 104.168C62.8029 104.897 61.1283 103.845 60.347 102.285ZM61.218 102.542C63.023 105.03 66.037 103.456 64.4161 100.544C64.2485 100.981 63.9691 101.367 63.6057 101.663C63.2886 101.965 62.9132 102.198 62.5026 102.349C62.092 102.5 61.6549 102.566 61.218 102.542Z" fill="#4B1010"/>
<path d="M115.08 108.179C122.231 108.179 128.029 102.383 128.029 95.231C128.029 88.0803 122.231 82.283 115.08 82.283C107.93 82.283 102.132 88.0803 102.132 95.231C102.132 102.383 107.93 108.179 115.08 108.179Z" fill="#4B1010"/>
<path d="M127.328 91.9706C127.405 92.607 127.405 93.3224 127.487 93.9588C130.509 94.8329 132.336 95.7875 132.258 96.5826C132.098 98.1721 124.307 98.6528 114.766 97.6162C105.226 96.5795 97.7523 94.4357 97.911 92.8454C97.9877 92.0503 99.8194 91.5734 102.761 91.335C102.949 90.6694 103.216 90.0284 103.556 89.4265C96.7187 89.586 92.0162 90.7768 91.7893 92.7657C91.4542 95.7054 101.648 99.2064 114.448 100.557C127.248 101.908 137.827 100.711 138.217 97.7749C138.484 95.7798 134.083 93.6406 127.328 91.9706Z" fill="#FFE55D"/>
<path d="M124.495 101.414C121.127 101.404 117.762 101.22 114.413 100.863C103.444 99.7041 94.2293 96.9707 92.0057 94.215C91.8231 94.0159 91.6826 93.782 91.5926 93.5274C91.5026 93.2727 91.465 93.0024 91.482 92.7329C91.8431 89.7172 100.039 89.202 103.546 89.1199C103.588 89.1191 103.63 89.1268 103.669 89.1427C103.708 89.1586 103.743 89.1823 103.772 89.2123C103.802 89.2423 103.825 89.278 103.84 89.3173C103.855 89.3565 103.862 89.3984 103.86 89.4404C103.857 89.4966 103.839 89.5509 103.808 89.5976C103.508 90.0367 103.308 90.536 103.221 91.0606C103.201 91.2063 102.929 91.6287 102.782 91.641C98.6243 91.9784 98.234 92.6715 98.2133 92.8762C98.1044 93.9658 104.36 96.1802 114.797 97.3111C124.165 98.3248 130.536 97.8057 131.775 96.8005C131.863 96.7431 131.926 96.6538 131.949 96.5513C131.985 96.197 131.066 95.3145 127.399 94.251C127.01 94.1383 127.213 93.5341 127.021 92.0068C127.011 91.9324 127.03 91.8572 127.072 91.7954C127.114 91.7336 127.178 91.6895 127.251 91.6717C127.299 91.6595 127.35 91.6593 127.398 91.6709C131.748 92.7444 138.976 94.9733 138.521 97.821C138.248 100.338 132.087 101.414 124.495 101.414ZM103.01 89.7487C96.5541 89.9572 92.2902 91.1426 92.0908 92.8026C92.0854 92.9913 92.1173 93.1792 92.1847 93.3555C92.252 93.5318 92.3535 93.6931 92.4834 93.8301C94.5789 96.4271 103.831 99.1283 114.478 100.252C128.178 101.699 137.655 100.122 137.912 97.742C138.177 96.0859 134.264 94.0463 127.673 92.3748C127.709 92.8287 127.724 93.2911 127.766 93.722C131.042 94.6896 132.655 95.6626 132.56 96.6134C132.132 100.88 97.1759 97.0865 97.603 92.8157C97.6973 91.8787 99.2223 91.3305 102.542 91.046C102.687 90.8658 102.624 90.5131 103.01 89.7487Z" fill="#4B1010"/>
<path d="M109.156 89.052C108.859 88.447 108.193 88.5337 107.804 88.9929C107.427 89.506 107.252 90.1397 107.312 90.7733C107.534 91.6597 108.185 91.7609 108.605 91.3292C108.94 91.0671 109.177 90.6997 109.277 90.2864C109.377 89.8731 109.334 89.4382 109.156 89.052Z" fill="white"/>
<path d="M119.013 90.4056C118.914 90.2259 118.748 90.0918 118.552 90.0313C118.356 89.9708 118.144 89.9887 117.96 90.0813C117.839 90.1426 117.735 90.2346 117.66 90.3481C117.284 90.8613 117.11 91.4944 117.169 92.1277C117.661 94.0937 119.8 91.9759 119.013 90.4056Z" fill="white"/>
<path d="M110.791 94.8706C110.558 94.4543 110.433 93.9864 110.427 93.5095C110.422 93.0326 110.536 92.5619 110.758 92.1402C110.797 92.071 110.86 92.0193 110.936 91.996C111.011 91.9727 111.093 91.9796 111.163 92.0152C111.234 92.0508 111.288 92.1119 111.314 92.186C111.341 92.2602 111.338 92.3417 111.307 92.4139C110.964 93.1807 112.832 93.9674 113.733 92.8878C113.775 92.8388 113.832 92.8046 113.896 92.7901C113.959 92.7757 114.025 92.7816 114.085 92.8072C114.144 92.8328 114.194 92.8766 114.228 92.9324C114.261 92.9883 114.275 93.0532 114.269 93.1178C114.063 95.1995 111.91 96.2147 110.791 94.8706ZM111.034 93.4467C111.026 93.8232 111.116 94.1943 111.294 94.5256C111.811 95.1321 112.949 94.9089 113.453 93.8355C113.057 94.0178 112.615 94.0782 112.184 94.009C111.754 93.9398 111.353 93.7441 111.034 93.4467Z" fill="white"/>
<path d="M72.9449 82.907C83.4394 82.907 91.9465 74.3999 91.9465 63.9054C91.9465 53.4109 83.4394 44.9038 72.9449 44.9038C62.4504 44.9038 53.9434 53.4101 53.9434 63.9054C53.9434 74.4006 62.4504 82.907 72.9449 82.907Z" fill="#FFE55D"/>
<path d="M72.9455 83.2137C69.1267 83.2137 65.3936 82.0813 62.2184 79.9597C59.0432 77.8381 56.5684 74.8225 55.107 71.2944C53.6456 67.7663 53.2632 63.884 54.0082 60.1386C54.7532 56.3932 56.5922 52.9527 59.2925 50.2524C61.9928 47.5521 65.4332 45.7132 69.1786 44.9682C72.9241 44.2232 76.8063 44.6055 80.3344 46.0669C83.8626 47.5283 86.8781 50.0031 88.9997 53.1783C91.1213 56.3536 92.2538 60.0866 92.2538 63.9055C92.2485 69.0247 90.2125 73.9328 86.5927 77.5526C82.9728 81.1725 78.0647 83.2084 72.9455 83.2137ZM72.9455 45.2106C69.2476 45.2103 65.6326 46.3066 62.5577 48.3608C59.4829 50.4151 57.0863 53.3351 55.671 56.7515C54.2557 60.1679 53.8854 63.9272 54.6067 67.5541C55.3281 71.181 57.1088 74.5125 59.7236 77.1273C62.3384 79.7422 65.67 81.5229 69.2968 82.2442C72.9237 82.9656 76.6831 82.5952 80.0995 81.1799C83.5159 79.7646 86.4358 77.368 88.4901 74.2932C90.5444 71.2183 91.6407 67.6034 91.6404 63.9055C91.6351 58.9489 89.6638 54.1968 86.1589 50.692C82.6541 47.1872 77.9021 45.2159 72.9455 45.2106Z" fill="#4B1010"/>
<path d="M54.4999 45.6081C54.2836 45.6081 54.631 45.9608 50.1233 40.1642C50.076 40.0998 50.0558 40.0194 50.0669 39.9403C50.0781 39.8612 50.1196 39.7895 50.1827 39.7406C50.2459 39.6916 50.3256 39.6693 50.405 39.6782C50.4844 39.6872 50.5572 39.7267 50.6078 39.7885L54.7421 45.1151C54.7768 45.1605 54.7982 45.2146 54.8038 45.2714C54.8093 45.3282 54.799 45.3855 54.7738 45.4367C54.7486 45.4879 54.7096 45.5311 54.6612 45.5614C54.6128 45.5917 54.5569 45.6079 54.4999 45.6081Z" fill="#FFE55D"/>
<path d="M71.8441 39.2041L71.3672 33.3216C71.3623 33.2614 71.3754 33.2011 71.4048 33.1483C71.4342 33.0955 71.4786 33.0527 71.5324 33.0252C71.5862 32.9977 71.6469 32.9867 71.7069 32.9938C71.7669 33.0008 71.8235 33.0255 71.8694 33.0647C71.9313 33.117 71.9706 33.1912 71.9791 33.2717L72.456 39.155C72.4625 39.2361 72.4365 39.3165 72.3837 39.3785C72.331 39.4405 72.2557 39.4789 72.1746 39.4855C72.0935 39.492 72.0131 39.466 71.9511 39.4132C71.8891 39.3604 71.8506 39.2852 71.8441 39.2041Z" fill="#FFE55D"/>
<path d="M92.1857 43.3821C92.1309 43.382 92.0771 43.3673 92.0299 43.3394C91.9828 43.3115 91.944 43.2715 91.9175 43.2235C91.8911 43.1755 91.8779 43.1213 91.8795 43.0666C91.8811 43.0118 91.8973 42.9585 91.9265 42.9121L95.0272 37.9834C95.061 37.9358 95.1077 37.8989 95.1618 37.8769C95.2159 37.855 95.2751 37.849 95.3325 37.8596C95.3899 37.8703 95.4431 37.8971 95.4857 37.937C95.5283 37.9768 95.5587 38.0281 95.5732 38.0846C95.5931 38.1603 95.5832 38.2407 95.5455 38.3093C92.188 43.6474 92.4279 43.3821 92.1857 43.3821Z" fill="#FFE55D"/>
<path d="M105.623 75.3434L99.6067 74.3044C99.5282 74.2886 99.459 74.2429 99.4136 74.1769C99.3683 74.111 99.3503 74.0299 99.3637 73.951C99.3774 73.872 99.4215 73.8015 99.4866 73.7546C99.5517 73.7077 99.6325 73.6882 99.7118 73.7002L105.674 74.7338C105.731 74.7428 105.784 74.7677 105.828 74.8057C105.871 74.8437 105.903 74.8932 105.92 74.9485C105.936 75.0039 105.937 75.0628 105.921 75.1184C105.906 75.174 105.875 75.2241 105.832 75.2629C105.775 75.3154 105.7 75.3442 105.623 75.3434Z" fill="#FFE55D"/>
<path d="M56.2969 90.7931L58.7612 86.1819C58.8012 86.1133 58.8662 86.0628 58.9426 86.0412C59.019 86.0195 59.1008 86.0283 59.1709 86.0658C59.2409 86.1032 59.2937 86.1664 59.3181 86.2419C59.3425 86.3175 59.3367 86.3996 59.3018 86.4709L56.8374 91.0822C56.7972 91.1504 56.7321 91.2005 56.6559 91.222C56.5797 91.2436 56.498 91.235 56.428 91.198C56.3576 91.161 56.3044 91.0979 56.2799 91.0222C56.2554 90.9466 56.2615 90.8643 56.2969 90.7931Z" fill="#FFE55D"/>
<path d="M82.9848 90.1441L81.7925 85.7736C81.7747 85.6965 81.7874 85.6154 81.8281 85.5474C81.8687 85.4794 81.934 85.4297 82.0104 85.4088C82.0868 85.3879 82.1683 85.3974 82.2379 85.4352C82.3075 85.4731 82.3597 85.5364 82.3837 85.6118L83.5767 89.9823C83.5879 90.0211 83.591 90.0618 83.586 90.1018C83.581 90.1419 83.568 90.1805 83.5476 90.2154C83.5171 90.2676 83.472 90.3097 83.4177 90.3365C83.3635 90.3633 83.3026 90.3735 83.2426 90.3659C83.1826 90.3583 83.1262 90.3332 83.0804 90.2938C83.0345 90.2543 83.0013 90.2023 82.9848 90.1441Z" fill="#FFE55D"/>
<path d="M66.3343 64.2668C66.0108 63.1781 65.2394 62.478 64.5754 62.6743C63.765 62.9151 63.7212 64.1273 63.9704 64.9684C64.2242 65.8226 64.9388 66.7971 65.7294 66.5617C66.3918 66.3647 66.6571 65.3572 66.3343 64.2668Z" fill="#4B1010"/>
<path d="M82.8034 59.4174C82.5534 58.574 81.8519 57.581 81.0445 57.8249C80.2371 58.0687 80.1941 59.2886 80.4403 60.1182C80.6941 60.9739 81.4133 61.9461 82.1984 61.7115C82.8586 61.5152 83.1262 60.5069 82.8034 59.4174Z" fill="#4B1010"/>
<path d="M70.3389 67.2186C70.2827 67.1597 70.2521 67.0809 70.254 66.9996C70.2559 66.9182 70.29 66.8409 70.3488 66.7846C70.4077 66.7284 70.4865 66.6979 70.5679 66.6997C70.6493 66.7016 70.7266 66.7357 70.7828 66.7946C73.1674 69.2934 77.5548 67.7147 77.8078 64.4391C77.8158 64.3586 77.8545 64.2843 77.9159 64.2316C77.9773 64.1789 78.0567 64.1519 78.1375 64.1562C78.1777 64.1592 78.2169 64.1702 78.2528 64.1885C78.2888 64.2068 78.3207 64.232 78.3468 64.2628C78.3729 64.2935 78.3928 64.3287 78.4058 64.3671C78.4181 64.4054 78.4227 64.446 78.4196 64.4859C78.1198 68.3687 73.0279 70.0349 70.3389 67.2186Z" fill="#4B1010"/>
<path d="M41.6197 67.3131C41.5384 67.3173 41.4587 67.289 41.3982 67.2344C41.3378 67.1798 41.3014 67.1035 41.2973 67.0221C41.2931 66.9408 41.3214 66.8611 41.376 66.8007C41.4306 66.7402 41.5069 66.7039 41.5883 66.6997L46.2003 66.2228C46.2405 66.2187 46.2812 66.2225 46.32 66.2341C46.3588 66.2457 46.3949 66.2648 46.4263 66.2904C46.4577 66.316 46.4838 66.3475 46.503 66.3831C46.5222 66.4187 46.5343 66.4578 46.5384 66.4981C46.5425 66.5383 46.5387 66.579 46.5271 66.6178C46.5155 66.6566 46.4963 66.6927 46.4708 66.7241C46.4452 66.7555 46.4137 66.7816 46.3781 66.8008C46.3425 66.82 46.3034 66.8321 46.2631 66.8362L41.6197 67.3131Z" fill="#FFE55D"/>
<path d="M44.0093 89.4151C43.969 89.4158 43.929 89.4085 43.8916 89.3937C43.8541 89.3789 43.82 89.3568 43.7911 89.3287C43.7622 89.3006 43.7392 89.2671 43.7234 89.2301C43.7075 89.193 43.6992 89.1533 43.6988 89.113C43.6977 89.0317 43.7289 88.9533 43.7855 88.895C43.8422 88.8366 43.9196 88.8031 44.0009 88.8017C59.516 88.5456 83.1173 83.2098 103.661 73.2497C103.734 73.2142 103.818 73.2093 103.895 73.236C103.972 73.2626 104.035 73.3187 104.071 73.3919C104.106 73.4652 104.111 73.5495 104.084 73.6263C104.058 73.7032 104.002 73.7663 103.928 73.8018C82.8735 84.0095 58.77 89.2932 44.0093 89.4151Z" fill="#FFE55D"/>
<path d="M34.4895 78.8609C33.1208 74.193 40.405 67.5644 53.4987 61.56C53.5722 61.529 53.6548 61.5278 53.7292 61.5568C53.8035 61.5857 53.8636 61.6424 53.8968 61.7149C53.93 61.7874 53.9337 61.8699 53.907 61.9451C53.8804 62.0203 53.8255 62.0821 53.754 62.1175C41.1525 67.8964 33.8186 74.4008 35.0776 78.6877C37.7535 87.7215 75.1103 83.1103 100.622 68.7268C100.693 68.6931 100.774 68.6876 100.848 68.7112C100.923 68.7349 100.986 68.7861 101.024 68.8544C101.062 68.9227 101.073 69.003 101.054 69.079C101.036 69.1549 100.989 69.2209 100.923 69.2636C75.6217 83.5258 37.4154 88.7374 34.4895 78.8609Z" fill="#4B1010"/>
<path d="M48.4423 77.2354C48.369 77.2073 48.3094 77.152 48.2759 77.081C48.2423 77.01 48.2374 76.9288 48.2621 76.8543C48.2865 76.7797 48.3386 76.7173 48.4077 76.6799C48.4767 76.6426 48.5574 76.6331 48.6332 76.6535C53.9238 78.3894 64.4022 77.3903 75.3222 74.1063C90.3935 69.6323 101.606 62.4203 100.318 58.0291C100.106 57.3787 99.6749 56.8219 99.0984 56.4535C99.0317 56.4094 98.9849 56.341 98.9681 56.2628C98.9514 56.1847 98.9659 56.1031 99.0087 56.0356C99.0508 55.9678 99.1178 55.9193 99.1953 55.9002C99.2728 55.8812 99.3547 55.8931 99.4235 55.9336C100.123 56.3802 100.647 57.0562 100.903 57.8459C103.652 67.2163 62.7905 81.9471 48.4423 77.2354Z" fill="#4B1010"/>
</svg>
