<svg width="155" height="156" viewBox="0 0 155 156" fill="none" xmlns="http://www.w3.org/2000/svg">
<path d="M28.9206 136.573C24.0724 136.318 11.2339 139.259 10.5391 142.255C9.84427 145.25 17.6956 147.064 25.2072 149.712C32.7188 152.36 43.2799 146.331 43.7354 145.852C48.1049 141.537 32.9504 136.789 28.9206 136.573Z" fill="#3D9CFB"/>
<path d="M59.9245 116.184C53.0536 113.536 48.684 119.434 48.4293 120.044C45.982 126.081 57.8401 131.346 62.1942 130.28C66.5483 129.215 71.3193 125.386 71.9523 122.383C72.5854 119.38 66.8031 118.87 59.9245 116.184Z" fill="#3D9CFB"/>
<path d="M88.6819 133.793C83.8337 133.538 79.4641 138.317 79.4641 139.591C79.4641 141.536 83.9572 142.856 91.4379 145.496C98.9187 148.137 100.957 143.952 101.435 143.466C105.82 139.151 92.7426 134.001 88.6819 133.793Z" fill="#3D9CFB"/>
<path d="M123.183 31.3629C122.635 16.6947 116.93 11.7153 109.48 10.0477C100.108 7.95561 83.4479 10.5418 74.9018 16.4091C65.4988 22.8631 67.5523 42.3022 75.1566 42.9275C74.6316 38.9749 74.6702 33.4859 82.8767 30.6758C89.7475 28.3134 94.5571 27.8116 96.0008 23.1178C97.7301 26.6845 100.517 26.5378 107.527 27.1477C117.895 28.051 118.543 38.6429 118.543 38.6429C118.543 38.6429 123.422 37.8091 123.183 31.3629Z" fill="#3D9CFB"/>
<path d="M50.4677 114.323C50.6199 114.202 50.7208 114.028 50.7501 113.835C50.7793 113.643 50.7349 113.446 50.6256 113.285C50.5163 113.124 50.3503 113.011 50.1607 112.967C49.9711 112.923 49.7719 112.952 49.6031 113.049C36.8958 120.291 49.4409 125.671 47.094 121.711C42.5624 119.38 47.7039 116.214 50.4677 114.323Z" fill="#001434"/>
<path d="M55.1073 121.718C58.1953 123.532 62.534 120.174 66.3554 120.429C66.5602 120.422 66.7537 120.333 66.8934 120.184C67.0331 120.034 67.1076 119.835 67.1004 119.63C67.0932 119.425 67.005 119.231 66.8552 119.092C66.7053 118.952 66.5061 118.878 66.3014 118.885C63.0512 118.313 56.52 122.814 55.5705 119.495C55.0224 118.846 56.2344 115.874 54.7985 115.418C53.3471 115.488 54.0265 118.136 53.9493 118.869C53.2467 118.993 49.1011 117.982 49.1165 119.441C49.1165 119.645 49.1978 119.842 49.3426 119.987C49.4874 120.131 49.6838 120.213 49.8885 120.213C51.6873 120.213 52.9225 120.313 54.2812 120.437C54.4357 120.93 54.7212 121.373 55.1073 121.718Z" fill="#001434"/>
<path d="M17.7655 76.0084C19.7805 76.3866 21.7645 79.0115 23.4321 78.2086C24.6132 75.8926 12.2843 73.4607 12.4232 70.1411C11.5663 67.331 17.3795 64.4205 16.8777 62.4751C16.7425 62.3217 16.5519 62.2282 16.3478 62.2152C16.1438 62.2022 15.9428 62.2706 15.7892 62.4056C8.33933 68.7901 9.70578 72.9126 17.7655 76.0084Z" fill="#001434"/>
<path d="M24.8064 131.824C24.374 131.824 17.148 131.979 16.9705 134.31C17.0057 134.406 17.0595 134.493 17.1287 134.568C17.1979 134.642 17.2811 134.703 17.3737 134.745C17.4662 134.787 17.5663 134.811 17.668 134.814C17.7697 134.818 17.8711 134.801 17.9664 134.766C21.6874 133.361 22.4749 133.361 24.8218 133.361C27.7863 133.361 35.8615 136.943 39.5826 139.158C35.8538 138.718 29.9093 138.309 32.9433 140.363C35.7198 140.328 38.494 140.534 41.2347 140.98C40.123 142.594 34.9119 146.23 31.1986 147.859C28.7359 148.978 15.5423 143.636 10.4316 139.513C10.6014 139.344 11.3348 138.942 14.3688 138.602C26.2114 137.251 26.3272 137.83 27.74 145.257C27.74 147.388 30.056 146.963 29.284 144.964C27.74 136.896 27.1224 135.599 14.2221 137.066C8.81809 137.398 6.94211 139.699 11.3966 142.177C11.8135 142.177 26.1111 150.97 31.8934 149.272C34.6263 148.067 43.4735 142.91 43.0412 140.285C42.6088 137.661 28.1414 131.832 24.8064 131.824Z" fill="#001434"/>
<path d="M29.7236 32.5056C32.2095 32.9843 38.6634 25.6888 34.4714 27.1016C33.6299 28.6456 29.5152 32.992 27.0138 29.8499C26.8692 29.7061 26.6735 29.6254 26.4696 29.6254C26.2656 29.6254 26.07 29.7061 25.9253 29.8499C24.8677 31.4325 28.6659 32.7758 29.7236 32.5056Z" fill="#001434"/>
<path d="M33.6532 75.8844C31.6691 80.1459 40.7016 73.7151 39.3506 71.5149C39.119 66.9755 30.6115 63.1772 22.3201 60.0583C16.9855 58.7922 19.9114 66.4196 20.8842 68.1644C19.0313 68.1644 16.6458 68.3805 16.5069 68.396C16.4055 68.4 16.3059 68.424 16.2138 68.4665C16.1217 68.5091 16.0389 68.5694 15.97 68.6439C15.831 68.7945 15.7576 68.9941 15.7658 69.1989C15.7739 69.4036 15.8631 69.5967 16.0137 69.7357C16.1643 69.8747 16.3639 69.9482 16.5686 69.94C16.7308 69.94 20.3129 69.6312 22.0267 69.7238C23.3855 71.0825 24.9372 71.5458 27.0602 71.7002C27.8831 72.8769 28.5694 74.1434 29.106 75.4753C29.164 75.6163 29.2623 75.7369 29.3887 75.8221C29.5151 75.9073 29.6639 75.9532 29.8163 75.9539C31.5147 75.676 29.9321 73.6379 28.9516 71.731C29.8086 71.4994 32.7113 72.1479 32.7345 70.7043C31.8621 69.1139 28.6351 70.7043 27.4308 70.1947C22.0267 71.1289 18.9387 60.6141 21.7797 61.5097C27.0062 63.625 46.0284 70.1639 33.6532 75.8844Z" fill="#001434"/>
<path d="M19.2318 25.4569C19.3838 25.5801 19.5768 25.641 19.7719 25.6274C19.967 25.6138 20.1497 25.5266 20.283 25.3835C20.4163 25.2404 20.4903 25.052 20.4901 24.8564C20.4899 24.6608 20.4154 24.4726 20.2818 24.3298C17.0548 21.2418 16.221 20.0297 19.1778 17.2273C19.3303 17.0901 19.4221 16.898 19.433 16.6931C19.4439 16.4883 19.3729 16.2875 19.2357 16.1349C19.0985 15.9824 18.9064 15.8906 18.7015 15.8797C18.4966 15.8689 18.2959 15.9399 18.1433 16.077C14.5226 19.5511 15.3409 21.7667 19.2318 25.4569Z" fill="#001434"/>
<path d="M41.35 55.5653C43.419 55.5653 45.982 54.3996 49.2785 51.9677C50.5678 46.5637 41.3346 59.8113 37.0499 50.609C32.9197 49.0264 38.9491 56.5303 41.35 55.5653Z" fill="#001434"/>
<path d="M19.2241 20.7165C19.3245 22.137 23.0841 20.7165 23.7712 20.84C24.9292 24.4067 24.0492 24.2831 28.3184 25.2481L28.5808 27.6105C28.5915 27.7119 28.622 27.8102 28.6706 27.8997C28.7193 27.9893 28.7851 28.0685 28.8643 28.1326C28.9435 28.1968 29.0346 28.2447 29.1323 28.2737C29.23 28.3026 29.3325 28.3121 29.4339 28.3014C29.5353 28.2908 29.6336 28.2603 29.7232 28.2116C29.8128 28.163 29.8919 28.0972 29.9561 28.018C30.0202 27.9388 30.0681 27.8477 30.0971 27.75C30.1261 27.6522 30.1355 27.5497 30.1249 27.4484L29.901 25.4566C30.673 25.4566 32.356 26.0742 32.4949 24.8467C32.4949 24.6419 32.4136 24.4456 32.2688 24.3008C32.124 24.156 31.9277 24.0747 31.7229 24.0747C29.7837 24.03 27.8646 23.6702 26.0409 23.0093C25.0064 19.8209 23.2231 13.7452 24.9678 13.4364C28.1176 13.7607 35.5135 19.0952 36.0153 24.0284C36.0357 24.2331 36.1367 24.4213 36.296 24.5516C36.4552 24.682 36.6597 24.7436 36.8645 24.7232C37.0692 24.7027 37.2575 24.6017 37.3878 24.4425C37.5181 24.2832 37.5798 24.0787 37.5593 23.874C36.6715 15.7447 18.9925 4.4657 23.3852 19.3423C22.7213 19.6665 18.9385 19.3346 19.2241 20.7165Z" fill="#001434"/>
<path d="M34.1473 43.6371C34.0344 43.7939 33.9843 43.9873 34.0071 44.1791C34.0298 44.371 34.1236 44.5473 34.27 44.6734C34.4164 44.7994 34.6048 44.866 34.7979 44.86C34.991 44.8539 35.1748 44.7757 35.313 44.6407C38.6552 40.8733 43.0709 38.2195 47.9662 37.0364C51.1237 36.6813 44.8782 45.4822 45.1716 45.7756C43.1608 45.9962 41.1276 45.892 39.1499 45.4668C38.9513 45.4178 38.7414 45.4496 38.5663 45.5553C38.3911 45.661 38.2651 45.8318 38.2158 46.0303C38.0305 47.5743 41.2034 47.2038 42.0758 47.4122C41.7747 48.439 40.277 51.4112 41.8133 51.7818C42.0159 51.8035 42.2188 51.7443 42.3779 51.617C42.5369 51.4898 42.6393 51.3048 42.6625 51.1024C42.7941 49.8121 43.1798 48.5605 43.7974 47.4199C46.5226 47.2347 45.9513 47.5435 47.1865 45.212C48.7074 45.4325 50.2131 45.7471 51.695 46.1539C54.6595 44.6948 48.5298 43.8378 47.9354 43.7684C56.9987 28.6524 38.5863 37.8779 34.1473 43.6371Z" fill="#001434"/>
<path d="M71.8988 119.426C71.5668 115.149 59.3382 112.841 54.9841 110.532C54.8073 110.457 54.6087 110.45 54.4271 110.513C54.2456 110.576 54.0941 110.705 54.0024 110.874C53.9107 111.043 53.8853 111.24 53.9312 111.427C53.9771 111.613 54.0911 111.776 54.2507 111.883C66.9888 117.334 78.5149 117.017 61.137 127.902C61.0472 126.809 60.8847 125.724 60.6506 124.652C60.6107 124.448 60.4911 124.267 60.3181 124.15C60.1451 124.034 59.9328 123.991 59.7281 124.031C59.5233 124.071 59.3428 124.19 59.2263 124.363C59.1097 124.536 59.0667 124.749 59.1066 124.953C59.3321 125.989 59.4895 127.039 59.5775 128.095C57.9872 128.095 56.0958 127.323 53.5791 125.586C53.4101 125.474 53.2035 125.432 53.0041 125.471C52.8047 125.509 52.6285 125.625 52.5137 125.792C52.399 125.96 52.3549 126.166 52.391 126.366C52.4271 126.566 52.5405 126.743 52.7067 126.86C56.1112 129.099 58.1107 129.886 60.7278 129.585C63.3449 129.284 72.1458 122.143 71.8988 119.426Z" fill="#001434"/>
<path d="M79.2709 48.895C79.157 48.8198 79.0251 48.7761 78.8888 48.7685C78.7525 48.7608 78.6166 48.7894 78.495 48.8514C78.3733 48.9134 78.2703 49.0066 78.1964 49.1214C78.1225 49.2362 78.0804 49.3685 78.0743 49.5049C77.8813 58.769 91.623 60.313 95.0584 52.9326C100.578 60.0273 112.405 54.8781 111.271 44.8265C111.251 44.6765 111.188 44.5355 111.089 44.421C110.991 44.3065 110.86 44.2235 110.715 44.1824C110.569 44.1413 110.415 44.1438 110.271 44.1897C110.127 44.2356 109.999 44.3228 109.904 44.4405C104.006 52.1606 100.262 39.8085 94.3019 47.2738C86.8752 41.5918 85.0223 52.5929 79.2709 48.895Z" fill="#001434"/>
<path d="M144.784 109.274C141.31 82.8172 151.377 51.4119 124.441 47.7217C124.753 45.8936 124.818 44.0318 124.634 42.1864C136.214 37.7396 128.147 13.5449 121.809 9.76209C111.41 -0.274 76.4843 6.13366 67.2125 15.3283C59.3457 23.141 58.7744 44.3943 69.6211 47.6677C70.2336 50.8439 71.5181 53.8525 73.3885 56.4917C68.6793 59.047 66.8033 65.0919 64.3097 69.0368C59.8784 76.1393 43.149 83.5891 43.7666 91.4868C29.0985 99.4771 8.91821 115.419 18.769 115.736C16.5379 124.838 22.6291 130.782 26.2035 121.95C30.6734 123.656 37.1505 117.11 37.7064 113.003C38.4784 113.89 39.2504 114.94 40.3157 114.724C40.4779 114.724 48.6689 111.466 46.0672 108.263C49.2093 105.715 46.9473 104.704 42.3384 102.611C43.8824 101.531 45.4264 100.473 46.8315 99.5234C54.1192 104.85 68.0308 102.225 71.5357 94.8064C75.0649 92.1925 78.3844 89.3067 81.4637 86.1754C82.0582 87.4492 82.6681 88.5918 83.2162 89.5876C82.6449 90.213 82.0968 90.8383 81.6027 91.4868C74.9712 93.9649 71.3659 99.616 77.9897 101.06C77.351 102.24 76.7713 103.451 76.2527 104.688C68.4554 101.307 58.0565 110.47 62.897 109.752C68.7719 104.65 70.5707 105.036 76.546 106.332C76.7238 106.371 76.9096 106.346 77.0706 106.261C77.2316 106.177 77.3576 106.038 77.4261 105.869C81.2862 96.6052 84.3742 95.9567 85.2311 95.9876C92.7582 98.9058 78.8003 104.433 81.9192 108.664C84.7679 110.594 89.1606 111.899 88.3346 116.677C80.877 126.953 76.106 129.802 70.7483 127.285C66.1162 128.443 77.5342 133.198 84.297 124.127C89.6547 125.216 97.6064 125.347 104.045 124.969C108.592 128.705 122.342 127.74 128.904 126.713C139.835 124.868 148.729 122.159 144.784 109.274ZM143.24 109.274C139.279 115.342 118.597 118.237 109.488 115.226C108.403 111.13 107.999 106.884 108.291 102.658C114.127 99.5697 118.157 96.6978 123.09 93.687C129.583 93.0771 138.947 90.6762 142.908 86.2449C142.36 94.2351 142.421 98.458 143.217 109.274H143.24ZM69.3818 46.0619C59.2068 41.3372 62.6808 20.7323 68.247 16.44C77.5111 7.82436 108.584 0.999812 120.828 10.9201C126.302 14.1548 134.03 35.7556 124.434 40.6347C120.002 18.8332 100.64 31.3706 95.9311 21.6356C91.0829 33.787 68.2084 25.511 69.3818 46.0619ZM71.003 46.7798C68.8105 35.2538 81.1627 28.9233 88.1107 33.1771C88.2554 33.3209 88.451 33.4016 88.655 33.4016C88.8589 33.4016 89.0546 33.3209 89.1992 33.1771C90.0793 31.8338 87.6552 31.0309 86.4586 30.5909C90.4267 29.317 94.1941 27.773 96.0161 24.2913C103.219 32.2043 119.755 21.3962 123.036 41.7C125.352 56.4608 110.538 60.7069 98.4016 61.8417C77.5574 64.2426 72.8481 55.5653 71.003 46.7798ZM45.936 106.286C45.936 106.363 45.743 106.688 44.3919 107.514C44.2793 107.582 44.186 107.679 44.1212 107.793C44.0563 107.908 44.0219 108.038 44.0214 108.17C43.9519 108.803 45.1485 109.143 45.0095 109.637C44.886 110.779 41.8598 112.47 40.0147 113.188C38.8953 112.501 37.7527 109.606 36.2395 110.717C36.1022 110.825 36.0053 110.976 35.9646 111.145C35.924 111.315 35.942 111.494 36.0157 111.652C37.0502 113.89 33.468 118.314 29.9322 120.105C26.5045 122.22 26.2575 118.384 25.0995 120.321C22.4669 128.867 18.3676 123.757 20.4674 115.311C25.3311 113.713 33.5916 108.564 40.8716 103.63C43.3883 104.765 45.7661 105.831 45.936 106.286ZM17.6496 114.238C17.3485 112.215 28.6662 101.268 47.5031 91.2011C46.3606 94.2892 47.6035 95.3005 49.0471 96.003C26.2961 112.416 18.7304 114.771 17.6496 114.238ZM67.4286 97.3232C63.4605 100.156 54.9221 102.82 48.1671 98.5121C49.3096 97.6937 50.3673 96.968 51.2551 96.2655C55.2541 97.1533 59.8784 88.337 63.0668 91.2166C62.9694 92.4373 62.691 93.6367 62.2407 94.7755C62.1681 94.967 62.1744 95.1795 62.2584 95.3662C62.3424 95.553 62.4971 95.6987 62.6885 95.7714C62.88 95.8441 63.0924 95.8378 63.2792 95.7538C63.466 95.6698 63.6117 95.5151 63.6844 95.3237C64.1203 94.1757 64.4234 92.9816 64.5877 91.7647C65.3839 91.7834 66.1781 91.853 66.9654 91.9732C67.1816 92.7915 66.5254 94.598 65.9464 95.6711C65.8838 95.7885 65.8527 95.9202 65.856 96.0533C65.8594 96.1863 65.8971 96.3162 65.9654 96.4304C66.0338 96.5446 66.1305 96.6392 66.2462 96.705C66.3619 96.7708 66.4927 96.8056 66.6258 96.8059C67.583 96.8059 68.4245 94.1039 68.5481 92.3669C71.389 93.4554 69.9531 95.424 67.4286 97.3463V97.3232ZM80.6608 84.6777C77.7832 87.6418 74.6864 90.3851 71.3968 92.8841C70.702 91.1548 68.3087 90.2516 64.2634 90.2053C62.5032 88.0977 59.2068 89.0318 57.462 91.0853C52.8917 96.4894 45.1099 95.8872 50.321 89.6108C50.9077 86.5845 46.4609 90.2361 45.2566 90.6221C45.8665 85.056 57.2613 78.8104 61.9011 73.9391C71.0802 72.3951 76.9012 75.8691 80.7226 84.6082C80.698 84.6362 80.6772 84.6673 80.6608 84.7008V84.6777ZM79.0551 71.5536C76.3762 68.2725 78.175 76.9113 78.4761 77.8223C74.809 73.3678 70.0303 71.569 63.6612 72.148C67.8301 68.149 68.8491 60.5139 74.3999 57.6574C83.6176 68.1567 119.609 65.2463 124.094 49.2117C139.99 51.1417 142.746 65.4856 142.977 83.18C141.781 86.4996 135.435 90.3751 125.576 91.7879C127.699 90.6916 138.476 68.8284 133.296 72.6498C129.668 83.898 126.889 88.4219 123.839 91.1008C124.372 81.1264 109.634 72.4645 100.285 75.6606C100.478 74.6184 103.605 67.3924 100.463 69.8011C99.7989 72.1171 99.0501 74.3714 98.4093 76.5253C93.7772 80.3853 88.1879 84.3998 84.2816 88.2907C81.3509 83.1714 79.5676 77.4764 79.0551 71.5999V71.5536ZM87.8251 101.307C91.77 97.0144 84.737 89.2325 78.8235 99.4539C73.4194 99.1219 76.4148 95.0998 82.3515 92.7452C86.3737 87.7503 93.6923 82.4543 99.5055 77.6756C107.936 73.1593 125.09 82.9484 121.894 92.6139C113.193 97.74 102.648 106.34 90.6275 105.869C91.6248 104.998 92.5138 104.011 93.2754 102.928C93.3882 102.759 93.4297 102.552 93.3912 102.353C93.3526 102.154 93.237 101.977 93.0694 101.863C92.9018 101.748 92.6958 101.704 92.4959 101.74C92.296 101.776 92.1184 101.889 92.0016 102.056C92.0016 102.056 90.1257 104.742 88.3423 105.545C87.1081 105.281 85.914 104.855 84.7911 104.279C85.703 103.206 86.7194 102.225 87.8251 101.353V101.307ZM82.9614 107.444C83.1287 106.754 83.4304 106.103 83.8492 105.53C91.2065 109.39 99.4901 106.873 106.693 103.43C106.521 106.85 106.809 110.277 107.55 113.62C101.633 114.605 95.5946 114.605 89.6779 113.62C88.5971 110.131 84.6212 108.61 82.9614 107.49V107.444ZM103.034 123.378C97.1777 123.772 91.2967 123.555 85.4859 122.73C86.8909 120.653 90.1565 118.268 89.9481 115.249C95.888 116.196 101.943 116.17 107.874 115.172C107.874 115.295 107.936 115.427 107.959 115.55C104.979 118.384 102.462 121.101 103.064 123.425L103.034 123.378ZM143.788 118.113C142.63 126.536 89.8323 131.739 108.978 116.646C118.705 119.549 137.658 117.094 143.572 111.188C144.042 113.482 144.125 115.838 143.819 118.16L143.788 118.113Z" fill="#001434"/>
<path d="M98.2391 32.0733C99.2273 30.5292 102.099 29.1705 105.959 29.7572C106.161 29.7837 106.364 29.7296 106.526 29.6068C106.688 29.4839 106.795 29.3022 106.824 29.101C104.94 25.8818 94.9735 30.259 97.1429 32.3203C97.2301 32.3792 97.3285 32.4196 97.4319 32.439C97.5353 32.4585 97.6417 32.4566 97.7443 32.4334C97.847 32.4103 97.9438 32.3664 98.0289 32.3045C98.114 32.2425 98.1855 32.1639 98.2391 32.0733Z" fill="#001434"/>
<path d="M81.5487 46.7646C90.1488 45.2206 88.0413 32.3744 79.2327 34.8834C71.4354 37.0373 73.4426 48.216 81.5487 46.7646ZM85.3006 42.0322C85.1613 42.5321 84.9245 42.9995 84.6039 43.4076C84.2833 43.8157 83.8851 44.1563 83.4324 44.41C81.9424 42.0939 78.8003 39.9864 76.2836 39.0754C78.3371 34.7213 86.9759 34.9529 85.3006 42.0322Z" fill="#001434"/>
<path d="M90.0717 43.082C91.9631 42.6651 89.2997 40.4108 90.5735 39.4227C92.0557 37.6007 95.1592 37.5544 95.7305 40.7428C95.7673 40.9476 95.884 41.1293 96.0548 41.248C96.2257 41.3667 96.4367 41.4127 96.6414 41.3759C96.8462 41.339 97.0279 41.2223 97.1466 41.0515C97.2653 40.8806 97.3113 40.6696 97.2745 40.4649C96.3481 33.0691 84.5595 38.1566 90.0717 43.082Z" fill="#001434"/>
<path d="M99.644 39.5228C102.894 49.0417 118.172 40.9665 110.784 32.8527C105.982 28.3905 97.7526 33.5475 99.644 39.5228ZM109.726 33.949C112.212 36.8903 111.27 39.5537 109.256 41.0437C107.16 38.6259 104.478 36.7886 101.466 35.7091C102.933 32.9839 107.094 31.5171 109.726 33.949Z" fill="#001434"/>
<path d="M75.3261 124.451C75.1794 124.577 75.0851 124.753 75.0618 124.945C75.0386 125.137 75.0881 125.33 75.2005 125.487C75.313 125.644 75.4802 125.754 75.6693 125.793C75.8583 125.833 76.0554 125.801 76.2216 125.702C90.1641 115.249 78.885 109.791 67.7295 109.189C67.5248 109.181 67.3252 109.254 67.1746 109.393C67.024 109.532 66.9348 109.725 66.9266 109.93C66.9185 110.135 66.9919 110.334 67.1309 110.485C67.2699 110.635 67.463 110.725 67.6678 110.733C79.796 111.219 86.4739 116.631 75.3261 124.451Z" fill="#001434"/>
<path d="M98.857 134.634C93.3372 135.198 110.584 140.602 109.665 143.481C109.711 145.025 106.577 146.901 102.069 149.348C101.729 148.106 100.957 144.639 99.4978 145.434C99.3326 145.554 99.2212 145.733 99.1879 145.934C99.1547 146.135 99.2022 146.341 99.3202 146.508C99.8931 147.425 100.301 148.437 100.525 149.495C96.0083 148.329 86.5667 146.662 84.6521 142.802C92.7427 141.574 93.0592 138.71 84.544 141.258C84.9369 140.091 85.658 139.061 86.6207 138.293C87.3927 137.629 86.2965 136.464 85.5785 137.159C76.1368 146.361 94.2713 149.511 101.111 151.263C114.861 145.28 115.077 141.528 98.857 134.634Z" fill="#001434"/>
<path d="M98.4786 144.176C99.1657 143.62 105.002 145.041 105.597 143.535C103.883 140.849 96.3324 144.099 95.0432 141.991C94.1399 142.13 93.4992 133.654 91.7776 133.685C91.5793 133.732 91.408 133.856 91.3009 134.03C91.1939 134.204 91.1599 134.412 91.2063 134.611C93.3602 143.705 93.5146 144.446 98.4786 144.176Z" fill="#001434"/>
</svg>
