<svg width="156" height="156" viewBox="0 0 156 156" fill="none" xmlns="http://www.w3.org/2000/svg">
<path d="M74.0661 33.5897L71.5288 23.4741C71.3766 22.8676 71.0218 22.3313 70.5233 21.9538C70.0247 21.5764 69.4123 21.3804 68.7872 21.3983L5.13602 23.2418C4.86397 23.2493 4.59605 23.3102 4.34759 23.4213C4.09914 23.5324 3.87501 23.6913 3.68804 23.8891C3.50107 24.0868 3.35493 24.3195 3.25796 24.5738C3.161 24.8281 3.11513 25.099 3.12296 25.371C3.12916 25.584 2.59647 22.1145 12.6223 86.5013C12.6581 86.7363 12.7451 86.9606 12.877 87.1583C13.009 87.3561 13.1827 87.5225 13.3859 87.6459C13.5891 87.7692 13.8169 87.8465 14.0533 87.8723C14.2896 87.8981 14.5287 87.8717 14.7538 87.7951L43.0139 78.2663L74.0661 33.5897Z" fill="white"/>
<path d="M29.7603 86.4532L45.6324 79.999L60.745 84.0251L42.492 91.2257L29.7603 86.4532Z" fill="white"/>
<path d="M16.6201 101.361L77.4755 77.451L96.6963 82.2274L96.9897 82.9668L33.8689 112.004L16.6201 101.361Z" fill="white"/>
<path d="M105.453 70.1343C108.298 72.2222 111.779 73.2585 115.303 73.0664C117.217 73.1065 119.108 72.6467 120.79 71.7324C121.573 71.2726 122.285 70.702 122.905 70.0383C123.24 74.9587 123.178 77.8025 123.236 79.598C123.32 82.1648 123.607 84.7209 124.096 87.2422C123.48 88.5206 123.06 89.8843 122.85 91.2877C121.092 90.3371 119.153 89.7708 117.16 89.6261C115.999 89.5069 114.252 89.2746 111.955 88.9603C110.665 90.3605 109.543 91.9066 108.612 93.5671L104.664 87.915C105.407 82.0192 105.671 76.0728 105.453 70.1343Z" fill="white"/>
<path d="M79.1784 63.5424C85.9787 64.9809 92.988 66.6502 99.645 68.3954C100.942 63.9539 101.905 59.4217 102.526 54.8367C96.0254 53.3098 89.3915 52.4193 82.7183 52.1779L86.9504 50.01C86.8337 43.5706 84.8565 37.3024 81.2573 31.9614C76.2394 33.6377 72.7483 34.2494 63.1677 38.2561C64.2691 35.2942 65.2066 32.2739 65.9759 29.209C60.2975 27.5306 54.3985 26.7186 48.4778 26.8003C47.1646 33.303 45.4195 39.711 43.254 45.9816C42.0724 45.6719 36.2586 44.1536 34.549 43.7239C33.2204 46.3734 32.3037 48.5242 31.2631 51.1846C30.4362 48.4747 29.4684 45.6657 28.3728 42.9001C24.6704 45.1183 22.401 46.4616 10.9019 53.0056L15.0402 79.485L33.1864 74.114L57.7154 82.8778C59.1553 78.6767 60.3263 74.3882 61.2212 70.0384L69.7202 77.5223C72.3508 76.635 74.7694 75.2129 76.8236 73.3454C78.8779 71.4779 80.5235 69.2055 81.6568 66.6711C78.1335 63.2764 74.4317 60.0718 70.5672 57.0712L78.8966 53.8875L79.1784 63.5424Z" fill="#81F8F8"/>
<path d="M107.317 71.3933C109.328 72.4223 111.539 72.9998 113.796 73.0854C116.053 73.171 118.301 72.7626 120.384 71.8888V63.7739C120.947 63.6972 121.503 63.5779 122.048 63.417C123.856 62.8905 124.629 62.1727 127.458 60.6297C130.769 58.8202 129.72 59.2182 137.477 59.236C138.383 58.5508 138.361 57.4351 137.906 56.3945C137.054 54.4589 133.605 53.3873 131.562 54.4C130.965 54.8147 130.319 55.1529 129.637 55.4066C128.898 55.6276 128.122 55.7005 127.354 55.621C126.519 55.318 125.797 54.7662 125.284 54.04C124.833 53.181 124.543 52.2465 124.428 51.2829C123.958 49.5399 123.939 47.7062 124.372 45.9537C124.646 45.0432 124.782 45.2801 125.442 43.7858C126.229 42.005 126.017 41.7147 126.773 40.2103C127.226 39.3106 127.404 39.2247 127.787 38.3157C128.447 36.4907 128.94 34.6092 129.258 32.6947C129.349 32.2441 129.972 29.1974 129.73 28.3496C129.523 27.7799 129.108 27.3097 128.569 27.0333C128.336 26.8901 128.058 26.8386 127.788 26.8886C126.945 27.1123 126.892 28.7181 126.21 30.8744C125.834 32.0606 125.867 31.5217 124.849 34.0868C124.357 35.3256 123.779 36.9732 122.954 38.8097C122.646 39.4604 122.296 40.0902 121.906 40.695C121.508 41.3849 120.932 41.9551 120.239 42.3457C120.582 38.8252 121.207 37.7776 121.656 34.4623C121.843 33.0756 121.755 32.9765 121.937 31.7323C122.307 29.2206 122.66 28.9047 122.99 26.7701C123.076 26.4226 123.081 26.0599 123.004 25.7102C122.827 25.2204 122.5 24.7993 122.068 24.5072C121.637 24.2152 121.125 24.0671 120.604 24.0842C120.417 24.1344 120.25 24.241 120.125 24.3895C120 24.5379 119.924 24.7211 119.907 24.9142C119.691 26.3853 119.219 27.8231 119.063 29.305C118.499 34.6473 117.396 35.0685 116.089 41.1828H115.024C115.116 36.4599 114.667 32.6505 114.644 31.205C114.608 28.9318 114.584 27.7983 114.659 27.2029C114.937 25.0002 114.018 24.2608 112.711 24.1671C112.471 24.1548 112.23 24.1914 112.004 24.2745C111.778 24.3577 111.571 24.4857 111.395 24.651C111.132 24.9716 110.998 25.3788 111.019 25.793C111.007 27.6164 110.658 29.442 110.81 31.26C111.144 35.2667 111.481 38.0053 110.168 41.7975L108.768 42.2443C106.28 38.6254 104.494 35.9101 103.909 34.9764C103.511 34.4497 103.212 33.8545 103.029 33.2204C103.013 32.8475 102.901 32.4851 102.703 32.169C102.486 31.8885 102.184 31.6852 101.843 31.589C101.483 31.5569 101.123 31.6523 100.827 31.8585C100.456 32.1217 99.9897 32.8007 100.371 35.2118C101.032 38.9785 102.776 42.4713 105.389 45.2639C104.823 48.6228 104.774 52.0483 105.243 55.422C105.498 56.7849 105.822 58.1341 106.212 59.4644C106.319 59.9812 106.539 60.4679 106.856 60.8893C107.174 61.3107 107.581 61.6563 108.049 61.901L107.317 71.3933Z" fill="#FFD997"/>
<path d="M105.453 73.5651C102.218 75.0625 98.5137 76.6714 95.0334 78.0642C95.5676 79.3959 97.4653 84.17 97.8765 85.2175C90.8648 88.663 83.6535 92.4552 76.3809 96.5774C70.8429 93.1538 65.0881 90.094 59.153 87.4172C56.563 91.4913 53.5245 95.2622 50.0943 98.6593C51.3757 99.4494 52.6064 100.319 53.779 101.263C57.3142 104.083 57.0564 104.804 61.1344 109.675C55.6346 110.853 50.0512 111.598 44.4353 111.905L44.0095 120.059L40.5942 119.981L42.303 115.772C33.366 114.556 24.62 112.209 16.2758 108.785C15.4628 110.697 12.1219 118.948 11.3004 121.073C13.8566 123.022 16.6397 124.655 19.5888 125.934C17.2883 129.529 14.4805 132.774 11.2524 135.566C16.3731 139.393 22.2324 142.114 28.4594 143.559C30.3966 141.246 32.0542 138.713 33.3976 136.012C36.1555 135.912 38.9884 135.761 41.7905 135.548C41.647 135.786 41.5045 136.026 41.3631 136.267C48.5702 138.729 56.0326 140.367 63.6081 141.15C63.4611 138.776 64.0075 136.411 65.1806 134.341C71.1532 133.424 77.0749 132.201 82.9226 130.678C83.1088 133.191 83.5079 135.684 84.1157 138.13C89.0221 138.011 93.9154 137.569 98.7637 136.807C99.0784 139.249 99.8367 141.613 101.001 143.783C103.953 143.865 106.904 143.608 109.797 143.015C113.184 142.318 114.772 141.493 118.883 140.382C121.6 139.647 124.359 139.075 127.145 138.67C126.041 136.229 124.909 133.492 124.004 131.02C127.287 129.814 130.449 128.303 133.45 126.508C134.453 127.414 135.694 128.015 137.027 128.24C142.63 127.006 147.74 124.138 151.713 120C147.257 117.74 143.171 114.814 139.596 111.323L143.339 111.95C145.383 105.214 147.318 98.067 149.03 90.7573L139.287 88.8751C139.448 86.179 139.415 83.4747 139.187 80.7834C131.576 79.3278 129.407 80.8771 123.198 78.8354C123.218 81.7147 123.485 84.5869 123.998 87.4203C123.488 88.6664 123.092 89.9565 122.816 91.2745C120.324 89.9583 118.553 89.7338 115.758 89.3792C114.787 89.256 113.481 89.1012 111.922 88.9448C110.688 90.3908 109.573 91.934 108.587 93.5593L104.639 87.9073C105.244 83.1514 105.516 78.3589 105.453 73.5651Z" fill="#81F8F8"/>
<path d="M121.254 50.3901C121.202 50.3901 121.15 50.3796 121.102 50.3593C121.054 50.3389 121.011 50.3091 120.975 50.2717C119.448 48.5979 117.472 47.3993 115.282 46.8192C113.092 46.2391 110.781 46.302 108.626 47.0004C108.529 47.0294 108.425 47.0195 108.336 46.973C108.246 46.9264 108.179 46.8469 108.147 46.7512C108.115 46.6555 108.122 46.5513 108.166 46.4606C108.21 46.37 108.288 46.3 108.383 46.2657C110.676 45.5216 113.136 45.4531 115.467 46.0681C117.799 46.6831 119.904 47.9558 121.532 49.7343C121.585 49.789 121.621 49.858 121.634 49.9327C121.648 50.0074 121.64 50.0845 121.61 50.1544C121.58 50.2243 121.531 50.2839 121.467 50.3259C121.404 50.3678 121.33 50.3901 121.254 50.3901Z" fill="black"/>
<path d="M114.347 59.822C114.28 59.8221 114.214 59.8045 114.155 59.7711C114.097 59.7377 114.048 59.6896 114.013 59.6316C113.37 58.5372 113.031 57.2907 113.031 56.0212C113.031 54.7517 113.37 53.5053 114.013 52.4109C114.039 52.3671 114.074 52.3288 114.114 52.2982C114.155 52.2676 114.201 52.2453 114.25 52.2325C114.3 52.2198 114.351 52.2169 114.401 52.224C114.452 52.2311 114.5 52.248 114.544 52.2739C114.588 52.2997 114.626 52.3339 114.657 52.3745C114.687 52.4151 114.71 52.4614 114.722 52.5106C114.735 52.5599 114.738 52.6112 114.731 52.6615C114.724 52.7119 114.707 52.7604 114.681 52.8042C114.107 53.7792 113.805 54.8899 113.805 56.0212C113.805 57.1525 114.107 58.2632 114.681 59.2382C114.716 59.2971 114.734 59.364 114.735 59.4323C114.735 59.5006 114.717 59.5677 114.684 59.627C114.65 59.6863 114.601 59.7356 114.542 59.7698C114.483 59.8041 114.415 59.8221 114.347 59.822Z" fill="black"/>
<path d="M36.7831 121.167C36.6856 121.167 37.0332 121.281 32.7408 119.72C32.6921 119.703 32.6473 119.676 32.6092 119.642C32.571 119.607 32.5402 119.565 32.5185 119.518C32.4969 119.471 32.4849 119.42 32.4831 119.369C32.4814 119.317 32.49 119.265 32.5085 119.217L33.6807 116.193C33.7164 116.101 33.7861 116.026 33.8753 115.983C33.9646 115.941 34.0667 115.934 34.1607 115.965L37.2539 116.962C37.3384 116.989 37.4111 117.045 37.4595 117.119C37.508 117.193 37.5295 117.282 37.5202 117.371L37.1648 120.82C37.1549 120.915 37.1106 121.002 37.0402 121.066C36.9697 121.13 36.8782 121.166 36.7831 121.167ZM33.3764 119.128L36.4486 120.246L36.7212 117.603L34.2738 116.814L33.3764 119.128Z" fill="black"/>
<path d="M30.3141 117.009C28.2545 116.64 26.2389 116.058 24.2997 115.272C24.2525 115.253 24.2095 115.224 24.1732 115.189C24.1369 115.153 24.108 115.111 24.0881 115.064C24.0681 115.017 24.0576 114.967 24.0571 114.916C24.0567 114.865 24.0662 114.815 24.0852 114.768C24.1042 114.72 24.1323 114.677 24.168 114.641C24.2036 114.605 24.246 114.576 24.2928 114.556C24.3396 114.536 24.3899 114.526 24.4407 114.525C24.4916 114.525 24.5421 114.534 24.5892 114.553C26.4795 115.32 28.4446 115.888 30.4527 116.247C30.5027 116.256 30.5504 116.275 30.5932 116.303C30.6359 116.33 30.6728 116.366 30.7017 116.408C30.7307 116.45 30.7511 116.497 30.7618 116.546C30.7725 116.596 30.7734 116.647 30.7643 116.697C30.7552 116.747 30.7363 116.795 30.7088 116.838C30.6812 116.881 30.6455 116.918 30.6037 116.946C30.5619 116.975 30.5148 116.996 30.4651 117.007C30.4154 117.017 30.3641 117.018 30.3141 117.009Z" fill="black"/>
<path d="M29.1377 118.945C28.3679 118.817 27.6059 118.645 26.8552 118.432C25.9857 118.187 25.1312 117.891 24.2963 117.546C24.2471 117.528 24.202 117.5 24.1637 117.465C24.1254 117.429 24.0947 117.386 24.0736 117.338C24.0524 117.29 24.0412 117.238 24.0406 117.186C24.0399 117.134 24.0499 117.082 24.07 117.033C24.09 116.985 24.1196 116.941 24.157 116.905C24.1945 116.868 24.2389 116.839 24.2877 116.82C24.3365 116.802 24.3887 116.793 24.441 116.795C24.4933 116.796 24.5447 116.809 24.5921 116.831C26.0771 117.445 27.6244 117.896 29.2066 118.177C29.3018 118.194 29.387 118.246 29.4456 118.323C29.5042 118.4 29.5319 118.496 29.5233 118.592C29.5146 118.688 29.4703 118.778 29.3989 118.843C29.3276 118.908 29.2344 118.945 29.1377 118.945Z" fill="black"/>
<path d="M86.4986 120.632C86.4019 120.632 86.7394 120.749 82.2449 119.152C82.1945 119.134 82.1484 119.106 82.1094 119.07C82.0704 119.033 82.0393 118.989 82.0183 118.94C81.9972 118.891 81.9865 118.838 81.9868 118.785C81.9872 118.731 81.9986 118.678 82.0204 118.63L83.5503 115.18C83.5893 115.092 83.6596 115.022 83.7477 114.983C83.8357 114.944 83.9351 114.939 84.0264 114.97L87.6523 116.18C87.7466 116.211 87.8253 116.278 87.872 116.365C87.9187 116.453 87.9299 116.556 87.9031 116.651L86.8718 120.349C86.8491 120.431 86.8004 120.502 86.733 120.554C86.6656 120.605 86.5833 120.633 86.4986 120.632ZM82.8976 118.561L86.2369 119.742L87.0584 116.8L84.1163 115.817L82.8976 118.561Z" fill="black"/>
<path d="M94.1217 122.755C92.2476 122.287 90.4263 121.629 88.6864 120.79C88.6392 120.768 88.5968 120.738 88.5616 120.7C88.5263 120.662 88.4991 120.618 88.4814 120.569C88.4637 120.52 88.4559 120.469 88.4585 120.417C88.4611 120.365 88.4741 120.315 88.4966 120.268C88.5191 120.222 88.5507 120.18 88.5896 120.146C88.6285 120.112 88.6738 120.086 88.7229 120.069C88.772 120.053 88.8239 120.047 88.8755 120.051C88.927 120.055 88.9773 120.069 89.0232 120.093C90.7152 120.91 92.4867 121.55 94.3098 122.004C94.3592 122.016 94.4056 122.038 94.4465 122.068C94.4874 122.099 94.5219 122.137 94.5481 122.18C94.5742 122.224 94.5916 122.272 94.599 122.323C94.6065 122.373 94.604 122.424 94.5917 122.474C94.5793 122.523 94.5573 122.569 94.527 122.61C94.4967 122.651 94.4587 122.686 94.415 122.712C94.3714 122.738 94.323 122.755 94.2727 122.763C94.2224 122.77 94.171 122.768 94.1217 122.755V122.755Z" fill="black"/>
<path d="M94.2157 120.828C93.5571 120.713 92.9096 120.542 92.28 120.317C91.5302 120.055 90.8048 119.728 90.1121 119.34C90.0225 119.289 89.9565 119.206 89.9286 119.107C89.9007 119.008 89.9133 118.902 89.9635 118.812C90.0137 118.723 90.0974 118.657 90.1963 118.629C90.2952 118.601 90.4011 118.613 90.4907 118.664C91.6734 119.326 92.954 119.797 94.2846 120.057C94.3801 120.075 94.4657 120.127 94.5243 120.205C94.583 120.282 94.6104 120.379 94.6011 120.475C94.5919 120.572 94.5466 120.661 94.4744 120.726C94.4021 120.791 94.3081 120.827 94.211 120.825L94.2157 120.828Z" fill="black"/>
<path d="M96.1018 117.938C95.3386 117.883 94.5814 117.763 93.8387 117.579C92.8472 117.336 91.8851 116.986 90.9693 116.534C90.8769 116.489 90.8063 116.409 90.7731 116.311C90.74 116.214 90.7469 116.107 90.7924 116.015C90.8378 115.922 90.9182 115.852 91.0157 115.818C91.1132 115.785 91.2199 115.792 91.3123 115.838C92.8194 116.582 94.4547 117.031 96.1304 117.162C96.2331 117.166 96.3301 117.211 96.4 117.286C96.4699 117.361 96.507 117.461 96.5032 117.564C96.4994 117.667 96.455 117.763 96.3797 117.833C96.3044 117.903 96.2045 117.94 96.1018 117.937V117.938Z" fill="black"/>
<path d="M95.4258 134.876C95.3504 134.876 95.2766 134.854 95.2134 134.813C95.1503 134.771 95.1006 134.713 95.0704 134.643L93.7364 131.576C93.7125 131.52 93.7018 131.46 93.7052 131.4C93.7087 131.34 93.7261 131.281 93.7562 131.229C93.7863 131.177 93.8282 131.132 93.8785 131.099C93.9288 131.066 93.9862 131.045 94.0461 131.038L97.1919 130.642C97.2808 130.631 97.3708 130.651 97.4466 130.699C97.5224 130.746 97.5793 130.819 97.6077 130.904L98.5956 133.859C98.6131 133.912 98.6192 133.967 98.6133 134.022C98.6075 134.078 98.5899 134.131 98.5617 134.179C98.5335 134.226 98.4954 134.267 98.45 134.299C98.4045 134.331 98.3528 134.352 98.2983 134.362C95.4932 134.875 95.5032 134.876 95.4258 134.876ZM94.6516 131.741L95.6581 134.053L97.7168 133.679L96.9712 131.449L94.6516 131.741Z" fill="black"/>
<path d="M94.8393 129.567C94.7683 129.567 94.6987 129.548 94.6381 129.511C94.5775 129.474 94.5281 129.421 94.4955 129.358L93.4549 127.358C93.4284 127.312 93.4114 127.262 93.4049 127.21C93.3983 127.158 93.4025 127.105 93.417 127.055C93.4315 127.004 93.4562 126.958 93.4894 126.917C93.5226 126.876 93.5638 126.843 93.6103 126.819C93.6568 126.795 93.7078 126.78 93.7601 126.776C93.8124 126.772 93.865 126.779 93.9146 126.796C93.9643 126.813 94.0099 126.84 94.0488 126.875C94.0877 126.91 94.119 126.953 94.1409 127.001L95.1822 129.001C95.213 129.06 95.228 129.126 95.2258 129.193C95.2237 129.259 95.2045 129.324 95.17 129.381C95.1355 129.438 95.087 129.485 95.0291 129.518C94.9711 129.55 94.9058 129.567 94.8393 129.567Z" fill="black"/>
<path d="M92.6241 130.235C92.5514 130.235 92.4802 130.215 92.4186 130.176C92.357 130.138 92.3075 130.083 92.2756 130.017L91.1878 127.776C91.1656 127.73 91.1526 127.68 91.1496 127.63C91.1466 127.579 91.1536 127.528 91.1702 127.48C91.1869 127.432 91.2128 127.388 91.2466 127.35C91.2804 127.311 91.3213 127.28 91.3671 127.258C91.4128 127.236 91.4625 127.223 91.5133 127.22C91.564 127.217 91.6149 127.224 91.663 127.241C91.711 127.257 91.7554 127.283 91.7934 127.317C91.8314 127.351 91.8624 127.392 91.8847 127.437L92.9686 129.678C92.9972 129.737 93.0105 129.802 93.0072 129.867C93.0039 129.933 92.9842 129.996 92.9498 130.051C92.9154 130.107 92.8675 130.153 92.8105 130.185C92.7536 130.217 92.6894 130.234 92.6241 130.235Z" fill="black"/>
<path d="M144.179 98.7266C144.088 98.7266 144.404 98.8133 139.481 97.3221C139.386 97.2933 139.305 97.2289 139.256 97.1425C139.207 97.056 139.194 96.954 139.218 96.8575L140.213 92.8036C140.236 92.7093 140.294 92.6272 140.375 92.5735C140.455 92.5197 140.553 92.4982 140.649 92.5132L145.271 93.2426C145.323 93.2507 145.373 93.2695 145.417 93.2976C145.462 93.3258 145.5 93.3627 145.53 93.4062C145.56 93.4497 145.58 93.4988 145.591 93.5506C145.601 93.6023 145.6 93.6556 145.589 93.7071L144.558 98.4192C144.539 98.5061 144.492 98.584 144.423 98.64C144.354 98.696 144.268 98.7265 144.179 98.7266ZM140.057 96.688L143.89 97.8493L144.742 93.9471L140.878 93.3378L140.057 96.688Z" fill="black"/>
<path d="M138.952 93.0375C138.835 93.0375 134.756 92.4956 130.186 91.4255C130.136 91.4151 130.087 91.3947 130.045 91.3653C130.002 91.336 129.966 91.2984 129.938 91.2548C129.91 91.2111 129.891 91.1624 129.882 91.1113C129.874 91.0603 129.875 91.008 129.887 90.9576C129.899 90.9072 129.921 90.8597 129.952 90.8179C129.982 90.7761 130.021 90.7408 130.065 90.7142C130.11 90.6876 130.159 90.6702 130.21 90.663C130.261 90.6557 130.314 90.6589 130.364 90.6722C133.16 91.328 135.854 91.8336 139.005 92.2671C139.056 92.2706 139.105 92.284 139.151 92.3067C139.197 92.3293 139.238 92.3608 139.271 92.3991C139.305 92.4375 139.33 92.4822 139.346 92.5304C139.363 92.5787 139.369 92.6298 139.366 92.6806C139.362 92.7314 139.349 92.7811 139.326 92.8267C139.304 92.8724 139.272 92.9131 139.234 92.9466C139.195 92.9801 139.151 93.0057 139.103 93.022C139.054 93.0383 139.003 93.0449 138.952 93.0414V93.0375Z" fill="black"/>
<path d="M136.277 94.8444C134.507 94.8453 132.753 94.5035 131.113 93.8379C131.018 93.7994 130.942 93.7246 130.902 93.63C130.862 93.5354 130.861 93.4288 130.899 93.3335C130.938 93.2382 131.013 93.1621 131.107 93.122C131.202 93.0818 131.308 93.0809 131.404 93.1194C132.953 93.7476 134.61 94.07 136.282 94.0686C136.384 94.0686 136.483 94.1094 136.555 94.182C136.628 94.2546 136.669 94.3531 136.669 94.4558C136.671 94.5076 136.662 94.5594 136.643 94.6077C136.624 94.656 136.595 94.6998 136.558 94.7364C136.522 94.773 136.477 94.8014 136.429 94.82C136.381 94.8386 136.329 94.847 136.277 94.8444Z" fill="black"/>
<path d="M135.713 97.2408C134.349 97.0605 133.003 96.7692 131.687 96.3698C131.588 96.3397 131.506 96.2718 131.458 96.181C131.41 96.0903 131.399 95.9841 131.43 95.8858C131.46 95.7876 131.528 95.7053 131.618 95.6571C131.709 95.6089 131.815 95.5987 131.913 95.6288C133.174 96.008 134.462 96.2894 135.765 96.4704C135.816 96.4739 135.866 96.4874 135.911 96.5101C135.957 96.5328 135.998 96.5642 136.031 96.6027C136.065 96.6411 136.09 96.6857 136.107 96.7341C136.123 96.7824 136.129 96.8334 136.126 96.8842C136.122 96.9351 136.109 96.9847 136.086 97.0303C136.063 97.076 136.032 97.1167 135.994 97.1502C135.955 97.1836 135.91 97.2092 135.862 97.2254C135.814 97.2416 135.763 97.2482 135.712 97.2447L135.713 97.2408Z" fill="black"/>
<path d="M131.35 102.01C131.253 101.974 131.175 101.902 131.132 101.809C131.09 101.715 131.086 101.609 131.121 101.512C131.157 101.416 131.23 101.338 131.323 101.295C131.416 101.252 131.523 101.248 131.619 101.284C134.602 102.394 137.781 102.881 140.959 102.717C141.01 102.713 141.061 102.72 141.11 102.736C141.158 102.753 141.203 102.779 141.241 102.813C141.279 102.848 141.31 102.889 141.331 102.936C141.352 102.982 141.364 103.033 141.365 103.084C141.368 103.135 141.36 103.186 141.343 103.234C141.326 103.281 141.3 103.325 141.266 103.363C141.231 103.401 141.19 103.431 141.144 103.453C141.098 103.475 141.048 103.487 140.998 103.49C137.714 103.662 134.431 103.158 131.35 102.01Z" fill="black"/>
<path d="M142.162 108.581C140.398 108.491 138.64 108.301 136.897 108.012C135.224 107.744 133.552 107.392 131.927 106.963C131.876 106.953 131.827 106.932 131.784 106.902C131.741 106.872 131.704 106.833 131.676 106.788C131.649 106.744 131.63 106.694 131.623 106.642C131.615 106.59 131.617 106.537 131.631 106.486C131.644 106.435 131.668 106.387 131.7 106.346C131.732 106.305 131.773 106.27 131.819 106.245C131.865 106.219 131.916 106.204 131.968 106.199C132.02 106.194 132.073 106.199 132.123 106.215C135.415 107.079 138.785 107.612 142.182 107.807C142.285 107.81 142.382 107.854 142.453 107.928C142.523 108.003 142.561 108.102 142.559 108.205C142.556 108.308 142.512 108.405 142.437 108.476C142.363 108.546 142.263 108.584 142.161 108.581L142.162 108.581Z" fill="black"/>
<path d="M40.5624 68.623C40.5175 68.623 37.2145 68.1189 37.1704 68.1127C37.1121 68.1039 37.0567 68.0819 37.0082 68.0484C36.9598 68.0149 36.9196 67.9708 36.8908 67.9194C36.862 67.868 36.8453 67.8108 36.8419 67.752C36.8386 67.6931 36.8487 67.6343 36.8715 67.58L38.5238 63.6314C38.5605 63.5438 38.6281 63.4728 38.7137 63.4318C38.7994 63.3908 38.8971 63.3828 38.9883 63.4092L41.4226 64.1277C41.5151 64.1551 41.594 64.2162 41.6438 64.2988C41.6937 64.3815 41.7109 64.4798 41.692 64.5744L40.941 68.3086C40.9241 68.3968 40.8771 68.4763 40.8081 68.5337C40.739 68.591 40.6521 68.6226 40.5624 68.623ZM37.7751 67.4213L40.2527 67.7968L40.8574 64.7726L39.1021 64.2515L37.7751 67.4213Z" fill="black"/>
<path d="M49.6046 67.0404C49.5225 67.0404 49.8779 67.1325 43.9812 65.5159C43.8821 65.4889 43.7978 65.4236 43.7469 65.3345C43.6959 65.2453 43.6824 65.1396 43.7094 65.0405C43.7364 64.9414 43.8017 64.8571 43.8908 64.8062C43.98 64.7552 44.0857 64.7418 44.1848 64.7688L49.7076 66.2793C49.7984 66.3036 49.8773 66.3602 49.9295 66.4384C49.9817 66.5166 50.0036 66.6112 49.9912 66.7044C49.9788 66.7976 49.9329 66.8832 49.862 66.945C49.7911 67.0068 49.7002 67.0407 49.6061 67.0404H49.6046Z" fill="black"/>
<path d="M48.9095 68.8639C48.8321 68.8639 49.2192 68.9413 43.4123 67.6251C43.3618 67.6148 43.3138 67.5946 43.2711 67.5655C43.2285 67.5365 43.1921 67.4992 43.1641 67.4559C43.1361 67.4126 43.117 67.3641 43.108 67.3133C43.099 67.2625 43.1002 67.2104 43.1116 67.1601C43.123 67.1098 43.1444 67.0622 43.1744 67.0203C43.2044 66.9783 43.2426 66.9428 43.2865 66.9158C43.3305 66.8888 43.3794 66.8708 43.4304 66.863C43.4814 66.8552 43.5334 66.8576 43.5835 66.8702L48.9947 68.0997C49.0871 68.1212 49.1683 68.1758 49.2231 68.2532C49.2778 68.3306 49.3023 68.4254 49.2918 68.5196C49.2813 68.6139 49.2366 68.701 49.1661 68.7644C49.0956 68.8279 49.0043 68.8633 48.9095 68.8639Z" fill="black"/>
<path d="M48.0815 70.8636C48.0041 70.8636 48.2851 70.9333 43.7457 69.7588C43.6964 69.746 43.6502 69.7238 43.6095 69.6932C43.5689 69.6626 43.5346 69.6243 43.5088 69.5804C43.483 69.5366 43.466 69.4881 43.4589 69.4378C43.4518 69.3874 43.4547 69.3361 43.4674 69.2868C43.4801 69.2376 43.5024 69.1913 43.533 69.1507C43.5635 69.11 43.6018 69.0758 43.6457 69.0499C43.6895 69.0241 43.738 69.0071 43.7883 69C43.8387 68.9929 43.89 68.9958 43.9393 69.0085L48.1791 70.1017C48.2702 70.1254 48.3496 70.1814 48.4024 70.2594C48.4552 70.3373 48.4778 70.4319 48.466 70.5253C48.4541 70.6187 48.4086 70.7046 48.338 70.7668C48.2673 70.8291 48.1764 70.8635 48.0823 70.8636H48.0815Z" fill="black"/>
<path d="M151.931 119.689C147.854 117.585 144.063 114.969 140.649 111.904C141.558 112.059 142.469 112.223 143.377 112.359C143.47 112.373 143.564 112.353 143.643 112.302C143.722 112.252 143.78 112.175 143.806 112.085C145.819 105.164 147.755 97.817 149.413 90.8549C149.425 90.8044 149.427 90.752 149.418 90.7009C149.41 90.6497 149.391 90.6007 149.363 90.557C149.335 90.5132 149.299 90.4755 149.256 90.4461C149.213 90.4166 149.165 90.3961 149.114 90.3857C146.062 89.757 142.897 89.1469 139.684 88.5647C139.812 85.9837 139.768 83.3971 139.55 80.8221C139.558 80.7313 139.532 80.6407 139.477 80.568C139.422 80.4952 139.342 80.4456 139.253 80.4288L139.235 80.4188C137.376 80.0576 135.494 79.8281 133.602 79.732C131.148 79.6089 130.069 79.7808 127.983 79.5353C126.49 79.3565 125.018 79.0305 123.59 78.5621C123.544 75.9297 123.519 73.4931 123.28 69.7356V69.7256C123.23 68.8422 122.247 68.0222 120.747 67.5793V64.1355C121.991 64.0147 122.983 63.4812 125.707 62.0133C127.798 60.889 129.588 59.9158 129.988 59.809C131.614 59.3816 133.788 59.5666 135.901 59.699C136.975 59.7672 137.514 59.8012 137.981 59.3599C138.854 58.5291 138.61 56.7058 137.847 55.5924C136.57 53.6924 133.542 53.2023 131.623 53.9548C130.565 54.3737 130.414 54.8429 129.229 55.1124C128.458 55.3438 127.634 55.3287 126.872 55.069C125.355 54.4016 124.979 52.1539 124.616 49.9822C124.339 48.8466 124.336 47.6614 124.607 46.5244C124.834 45.7168 125.091 45.6549 125.763 44.0615C126.416 42.5176 126.388 42.0592 127.016 40.6501C127.547 39.4485 127.678 39.56 128.162 38.4683C128.697 37.0621 129.098 35.6086 129.36 34.127C129.371 34.0767 129.64 32.8658 129.99 30.5376C130.176 29.3197 130.261 28.5935 129.856 27.8332C129.415 27.0063 128.446 26.2537 127.656 26.4867C126.756 26.7492 126.559 28.2187 126.417 28.8412C125.964 30.804 124.946 32.6606 124.226 34.5869C122.774 38.4892 122.278 39.2967 122.09 39.6025C121.678 40.2821 121.22 40.9325 120.719 41.549C121.061 39.4237 121.356 38.3204 121.685 36.8989C122.252 34.4429 121.93 34.1216 122.382 31.493C123.017 27.7851 123.923 26.5642 123.025 25.09C122.476 24.1926 121.381 23.4246 120.499 23.6963C119.737 23.9286 119.485 24.7578 118.95 27.6783C118.346 31.0238 118.356 31.9924 117.789 33.9327C116.97 36.1748 116.306 38.4701 115.8 40.8026C115.66 40.7893 115.52 40.7834 115.38 40.7848C115.445 38.5638 115.387 36.3408 115.204 34.1263C114.924 29.6619 115.066 33.0423 115.017 26.5742C115.107 25.9176 114.965 25.2503 114.617 24.6866C114.228 24.2219 113.687 23.9109 113.089 23.8096C112.492 23.7083 111.878 23.8232 111.358 24.1338C110.821 24.5372 110.713 25.1364 110.592 26.4047C110.436 28.0194 110.382 29.6423 110.43 31.2639C110.692 33.5088 110.755 35.7724 110.619 38.0285C110.489 39.194 110.238 40.3428 109.87 41.4561C109.54 41.5238 109.22 41.6277 108.913 41.7658C108.346 41.0024 107.804 40.2173 107.301 39.4376C104.833 35.6121 103.474 33.5053 103.223 32.5979C103.172 32.3303 103.064 32.0768 102.906 31.8546C102.749 31.6323 102.546 31.4464 102.31 31.3095C102.031 31.2052 101.73 31.1699 101.434 31.2069C101.138 31.2438 100.856 31.3518 100.611 31.5217C98.7888 32.7814 100.647 38.1493 101.54 40.1484C102.415 42.0507 103.572 43.8106 104.97 45.3692C104.568 47.887 104.446 50.4415 104.605 52.9863C104.862 56.9899 105.897 61.2367 107.646 62.1348L107.265 67.5755C105.786 68.1376 104.924 68.9575 104.963 69.8007C105.015 70.9667 105.051 72.1436 105.071 73.3204C101.766 74.9593 98.3719 76.4115 94.9044 77.6702C94.8556 77.6879 94.8109 77.7151 94.7729 77.7504C94.735 77.7857 94.7044 77.8283 94.6832 77.8756C94.662 77.9229 94.6505 77.9739 94.6494 78.0258C94.6482 78.0776 94.6576 78.1291 94.6767 78.1773L96.065 81.6839L77.5944 77.1429C77.5174 77.1228 77.436 77.128 77.3622 77.1576L60.8458 83.6265L58.1143 82.908C59.4775 78.9368 60.5941 74.8852 61.4575 70.7762C69.6227 77.9559 69.4725 77.8405 69.5732 77.8808C69.6572 77.9154 69.7509 77.9187 69.8372 77.8901C72.5389 77.0016 75.0247 75.5575 77.1348 73.6507C79.2448 71.7439 80.9324 69.4165 82.089 66.8183C82.1191 66.7443 82.1268 66.6632 82.1109 66.5849C82.0951 66.5067 82.0565 66.4348 81.9999 66.3785C81.1389 65.5748 80.2708 64.7809 79.3953 63.9969C82.7076 64.7324 96.2454 67.9417 99.5468 68.7678C99.6436 68.7918 99.746 68.7775 99.8325 68.7279C99.9191 68.6783 99.9831 68.5972 100.011 68.5015C101.316 64.0272 102.286 59.462 102.912 54.8437C102.926 54.7479 102.903 54.6505 102.848 54.5708C102.793 54.4912 102.71 54.4349 102.616 54.4132C96.5157 53.0043 90.2989 52.1586 84.0439 51.8868C85.1023 51.3774 86.1468 50.8803 87.1231 50.3584C87.1929 50.3137 87.249 50.2507 87.2856 50.1763C87.3222 50.102 87.3377 50.019 87.3306 49.9365C87.1789 43.451 85.2028 37.1394 81.6291 31.7253C81.5718 31.5705 81.3836 31.5232 81.1846 31.541C78.8851 32.1984 76.6553 32.889 74.4719 33.6145L71.9045 23.3797C71.726 22.6903 71.3201 22.0813 70.7523 21.6515C70.1846 21.2216 69.4884 20.996 68.7765 21.0112L5.12449 22.8547C4.77565 22.8646 4.43291 22.9486 4.11912 23.1013C3.80532 23.254 3.52767 23.4718 3.30466 23.7403C3.08165 24.0087 2.91841 24.3216 2.82582 24.658C2.73323 24.9945 2.7134 25.3468 2.76767 25.6916L12.243 86.5609C12.3184 87.0353 12.5604 87.4672 12.9254 87.7794C13.2905 88.0915 13.7548 88.2634 14.2351 88.2643C14.7299 88.2643 13.0737 88.7474 41.9889 79.0158L41.519 81.265L29.6086 86.0243C29.5312 86.0654 29.2657 86.1567 29.2657 86.4231V88.4145C29.2656 88.4927 29.2892 88.5691 29.3334 88.6337C29.3777 88.6982 29.4404 88.7479 29.5134 88.776L38.662 92.3105C19.6595 99.7526 16.8769 100.827 16.4557 101.018C16.386 101.055 16.3284 101.111 16.2896 101.18C16.2508 101.249 16.2324 101.327 16.2365 101.406C16.2443 101.526 16.2815 102.025 16.4216 103.961C16.426 104.023 16.4455 104.083 16.4782 104.136C16.511 104.189 16.5561 104.234 16.6097 104.266L31.0789 112.906C31.7137 113.284 32.4318 113.501 33.17 113.537C33.9082 113.573 34.6439 113.427 35.3126 113.112L55.6692 103.572C57.2905 105.3 58.3667 106.92 60.4184 109.406C55.1362 110.451 49.7876 111.127 44.4116 111.43C44.2041 111.442 44.0624 111.565 44.0422 111.849C43.81 115.113 43.7178 117.382 43.6381 119.655L41.1218 119.6C41.6823 118.331 42.2057 117.09 42.6664 115.897C42.6874 115.842 42.6958 115.784 42.6911 115.726C42.6865 115.668 42.6688 115.612 42.6394 115.562C42.61 115.511 42.5697 115.468 42.5214 115.436C42.4731 115.403 42.4182 115.382 42.3606 115.374C33.4602 114.114 24.7459 111.777 16.4092 108.415C16.362 108.396 16.3116 108.386 16.2607 108.387C16.2098 108.387 16.1595 108.398 16.1127 108.418C16.0659 108.438 16.0235 108.467 15.9879 108.503C15.9523 108.539 15.9242 108.582 15.9052 108.629C15.8517 108.762 10.8927 120.896 10.8927 120.896C10.8599 120.976 10.8552 121.066 10.8793 121.149C10.9035 121.233 10.9551 121.306 11.0258 121.357C13.5479 123.158 16.2208 124.738 19.0146 126.079C16.7585 129.485 14.0619 132.578 10.9949 135.277C10.9514 135.315 10.9171 135.363 10.8945 135.416C10.8718 135.469 10.8615 135.527 10.8642 135.585C10.8668 135.643 10.8825 135.699 10.9099 135.751C10.9374 135.802 10.9759 135.846 11.0227 135.88C16.2292 139.687 22.137 142.428 28.4062 143.945C28.4789 143.962 28.5552 143.959 28.6259 143.934C28.6965 143.909 28.7584 143.864 28.8042 143.805C30.6178 141.465 32.2507 138.991 33.689 136.403C36.1495 136.342 38.6248 136.205 41.0738 136.001C41.0327 136.069 40.9483 136.218 40.9483 136.218C40.9202 136.268 40.9034 136.324 40.8993 136.381C40.8952 136.438 40.9039 136.495 40.9246 136.549C40.9453 136.602 40.9777 136.65 41.0193 136.69C41.0609 136.729 41.1107 136.759 41.1651 136.777C48.4667 139.107 55.9782 140.72 63.5929 141.593C63.6895 141.602 63.7859 141.574 63.8629 141.515C63.9399 141.456 63.9919 141.37 64.0086 141.274C63.9168 138.979 64.4297 136.701 65.496 134.667C71.7914 133.651 77.1051 132.531 82.569 131.169C82.7579 133.552 83.1514 135.914 83.7451 138.229C83.7664 138.312 83.8148 138.386 83.8826 138.439C83.9505 138.491 84.0339 138.52 84.1198 138.52C85.5057 138.52 91.1407 138.174 96.1207 137.556C96.895 137.46 97.6801 137.346 98.4613 137.236C98.827 139.584 99.5728 141.857 100.669 143.965C100.701 144.026 100.749 144.078 100.807 144.114C100.865 144.151 100.933 144.172 101.002 144.174C104.326 144.271 107.648 143.939 110.887 143.187C114.991 142.219 116.772 141.146 122.191 139.99C123.843 139.637 125.541 139.345 127.241 139.123C127.301 139.115 127.358 139.094 127.408 139.06C127.458 139.026 127.499 138.981 127.528 138.928C127.558 138.876 127.574 138.817 127.577 138.757C127.58 138.696 127.568 138.636 127.544 138.581C126.482 136.245 125.441 133.729 124.514 131.234C127.549 130.017 130.503 128.609 133.358 127.016C134.417 127.826 135.65 128.378 136.959 128.629C137.013 128.638 137.068 128.636 137.12 128.623C142.757 127.265 147.913 124.389 152.031 120.308C152.074 120.265 152.107 120.212 152.125 120.154C152.144 120.095 152.149 120.033 152.139 119.973C152.13 119.913 152.106 119.855 152.069 119.806C152.033 119.756 151.986 119.716 151.931 119.689ZM148.567 91.0632C146.956 97.7992 145.087 104.885 143.157 111.543C137.717 110.71 132.335 109.54 127.04 108.038C127.105 106.107 127.568 94.9793 127.568 94.9793C127.577 94.7633 127.447 94.5597 127.092 94.5922C126.662 94.634 125.473 94.8578 121.827 95.5213C123.515 91.623 123.086 90.5398 124.629 86.8992C132.423 88.0242 140.605 89.4303 148.567 91.0632ZM66.0527 119.062C67.4653 116.937 68.5452 114.609 69.255 112.158C69.783 111.675 70.3229 111.205 70.8747 110.747C71.0729 112.481 71.4167 114.332 71.58 115.012C72.2743 118.028 73.2597 120.971 74.5222 123.797C71.7898 122.061 68.9621 120.48 66.0527 119.062ZM74.2241 124.523C64.4494 125.169 54.6445 125.22 44.8637 124.674C48.6858 121.298 52.9639 118.475 57.5723 116.291C63.4086 118.414 68.993 121.175 74.2241 124.523ZM67.1072 101.622C71.6567 101.637 76.1995 101.274 80.6891 100.538C79.7211 102.122 78.5587 103.579 77.229 104.874C74.8435 107.176 71.3865 108.775 66.9067 113.37C68.0158 109.542 68.085 105.487 67.1072 101.622ZM49.7787 99.0302C49.9691 99.1386 50.1534 99.2625 50.3431 99.3709L32.4633 107.338L23.4975 101.66L58.5881 87.4714C56.1173 91.4611 53.1313 95.1078 49.7074 98.3171C49.6523 98.3619 49.6091 98.4197 49.5817 98.4852C49.5544 98.5508 49.5438 98.6222 49.5509 98.6929C49.5579 98.7636 49.5824 98.8314 49.6222 98.8903C49.662 98.9492 49.7157 98.9973 49.7787 99.0302ZM58.8699 88.4733C59.214 90.7449 59.7451 92.9841 60.4579 95.1683C57.5573 96.895 54.2994 97.9335 50.9346 98.2041C53.9479 95.279 56.6109 92.0135 58.8699 88.4733ZM59.5869 88.0359C66.8757 91.3133 73.8502 95.2491 80.4235 99.7944C74.8662 100.692 69.2315 101.02 63.6076 100.772C61.5784 96.7753 60.2201 92.4727 59.5869 88.0359ZM59.4498 87.1222L67.9666 83.6776L78.3075 87.3344L68.7602 91.7221C65.7143 90.0652 62.6026 88.529 59.4498 87.123V87.1222ZM114.836 82.27C114.957 83.9734 115.103 85.6672 115.276 87.3514C113.183 87.3733 111.107 86.9695 109.175 86.1645C109.221 84.3597 109.271 82.5557 109.313 80.7509C111.029 81.6342 112.91 82.1515 114.836 82.27ZM109.335 79.8892L109.49 72.684C111.086 73.2127 112.757 73.4812 114.439 73.4791C114.516 78.4584 114.756 81.0668 114.785 81.4973C112.874 81.3591 111.015 80.8106 109.335 79.8892ZM101.859 100.871C104.226 103.11 106.908 104.991 109.82 106.453C106.964 109.063 104.414 111.99 102.219 115.177C101.701 109.565 102.143 108.485 101.859 100.871V100.871ZM101.174 104.184C96.8693 106.768 92.4302 109.121 87.8757 111.235C89.1929 107.476 90.182 103.61 90.8318 99.6798C92.148 99.5149 93.4565 99.3151 94.7565 99.0488C94.8197 99.0359 94.8786 99.0073 94.9279 98.9658C94.9773 98.9243 95.0155 98.8711 95.0391 98.8111C95.626 97.323 96.2523 95.8333 96.9012 94.3491C101.328 95.2687 105.705 96.4161 110.013 97.7868C108.448 98.0965 101.621 99.4785 101.321 99.5761C101.273 99.5911 101.229 99.6153 101.191 99.6473C100.932 99.8548 101.102 99.7007 101.174 104.183V104.184ZM101.184 107.57L97.8744 106.983C98.994 106.356 100.098 105.72 101.185 105.074C101.195 105.705 101.195 106.324 101.184 107.569V107.57ZM87.0573 111.232C84.4398 108.341 82.4286 104.953 81.1428 101.271C81.8172 100.213 81.8257 100.17 81.8288 100.039V100.031C84.563 100.176 87.3046 100.093 90.025 99.782C89.3711 103.678 88.3781 107.509 87.0573 111.232V111.232ZM110.569 106.809C112.188 107.578 113.867 108.212 115.589 108.704C115.643 108.72 115.7 108.723 115.756 108.714C115.811 108.706 115.864 108.685 115.911 108.653C116.912 107.979 117.876 107.251 118.799 106.472C120.652 109.687 122.922 112.642 125.551 115.26C118.048 115.797 110.846 116.02 102.669 115.886C104.936 112.56 107.588 109.513 110.569 106.808V106.809ZM115.628 107.91C110.606 106.447 106.012 103.791 102.24 100.168C105.661 99.4444 121.952 96.2747 126.492 95.4764C124.009 100.492 120.265 104.776 115.628 107.909V107.91ZM111.744 97.4407C111.073 96.4961 110.153 95.1953 109.062 93.6143C109.935 92.0965 110.958 90.6699 112.116 89.3559C118.401 90.1139 120.091 90.3361 122.389 91.4913C122.036 92.9353 121.543 94.3415 120.918 95.6901C118.132 96.205 112.005 97.3888 111.744 97.4399V97.4407ZM115.209 73.4528C116.945 73.4048 118.656 73.0373 120.259 72.3689C120.271 75.6796 120.361 77.9597 120.491 80.4319C119.351 80.9437 118.141 81.2844 116.901 81.4431C116.455 81.4931 116.006 81.5174 115.558 81.5159C115.492 80.4908 115.287 78.2795 115.209 73.4528ZM115.35 88.1241C115.381 88.4152 115.41 88.7074 115.438 89.0006C114.178 88.8326 113.023 88.6909 112.005 88.567C111.943 88.5584 111.88 88.5654 111.822 88.5874C111.763 88.6095 111.711 88.6458 111.67 88.6932C110.685 89.7859 109.798 90.9632 109.02 92.2114L109.152 86.9883C111.123 87.7739 113.231 88.16 115.352 88.1241H115.35ZM110.581 97.1418C106.191 95.7469 101.733 94.5743 97.2248 93.6283C98.4775 90.8077 99.673 88.2139 101.948 84.0275C104.604 88.5412 107.487 92.9182 110.584 97.1418H110.581ZM96.3561 93.6662C96.3208 93.712 96.2957 93.7648 96.2825 93.8211C95.6252 95.3177 94.9888 96.8244 94.3934 98.3264C93.0818 98.5897 91.7609 98.7948 90.4338 98.9543C90.4212 98.9536 90.4085 98.9536 90.3959 98.9543C87.2587 99.3303 84.0932 99.4124 80.9407 99.1998C79.6818 98.328 78.3726 97.4562 77.0246 96.5929C84.8863 92.2315 93.2064 87.9135 101.036 84.0895C98.9204 88.0273 97.6878 90.6482 96.3584 93.6662H96.3561ZM76.2813 96.1268C75.1819 95.4299 75.2926 95.5252 74.4711 95.025L97.1605 84.4619L97.3866 85.0341C90.368 88.5283 83.1923 92.2849 76.2836 96.1268H76.2813ZM71.5847 110.181C74.4494 107.898 75.6967 107.429 77.7648 105.428C78.8188 104.4 79.7716 103.273 80.6101 102.063C81.3895 104.16 82.4002 106.163 83.6235 108.036C82.6983 109.902 81.7429 111.719 80.7781 113.448L80.2602 112.104C80.2275 112.019 80.166 111.949 80.0864 111.905C80.0068 111.861 79.9143 111.846 79.825 111.863C77.1973 112.366 74.6453 113.206 72.232 114.36C71.947 112.979 71.7318 111.584 71.587 110.181H71.5847ZM84.1136 108.78C84.9623 110.003 85.9027 111.161 86.9265 112.243C86.9734 112.279 87.0234 112.312 87.0759 112.34C87.1715 112.375 87.277 112.37 87.3694 112.328C91.1252 110.607 93.9381 109.146 96.7928 107.577L101.176 108.351C101.133 111.007 101.256 113.663 101.546 116.303C101.606 116.497 101.689 116.62 101.892 116.641C102.095 116.663 107.269 116.698 109.353 116.679C107.327 120.01 105.622 123.525 104.262 127.178C95.1358 125.935 86.1902 123.609 77.6138 120.251C79.9855 116.547 82.156 112.717 84.1159 108.78H84.1136ZM110.259 116.677C111.735 116.659 113.206 116.629 114.672 116.587L113.5 121.925C113.478 122.024 113.496 122.128 113.55 122.214C113.604 122.3 113.69 122.361 113.789 122.385C115.458 122.772 117.129 123.133 118.793 123.459C117.242 127.137 115.254 130.615 112.872 133.818C110.514 130.6 108.395 127.214 106.534 123.686C107.612 121.266 108.857 118.923 110.261 116.675L110.259 116.677ZM114.338 121.717L115.47 116.564C118.832 116.454 122.246 116.271 125.642 116.028C128.313 119.197 131.256 122.127 134.436 124.785C127.668 124.284 120.949 123.258 114.34 121.716L114.338 121.717ZM119.397 105.965C122.368 103.357 124.845 100.236 126.711 96.7516C126.627 98.5626 126.169 110.587 126.069 114.69C123.467 112.091 121.224 109.156 119.399 105.964L119.397 105.965ZM138.908 88.4276C138.444 88.3455 133.67 87.5217 131.762 87.2136C134.271 85.5607 136.634 83.6956 138.825 81.639C138.996 83.8973 139.025 86.1641 138.913 88.4261L138.908 88.4276ZM127.887 80.3042C130.967 80.6673 133.049 80.1269 138.324 81.0459C135.956 83.2787 133.382 85.2833 130.638 87.0332C128.547 86.7018 126.476 86.3882 124.444 86.0979C124.365 86.0904 124.287 86.1055 124.217 86.1413C123.872 83.9021 123.667 81.6436 123.605 79.3789C125.002 79.8198 126.437 80.129 127.892 80.3026L127.887 80.3042ZM123.384 85.8455C123.456 86.3433 123.539 86.8389 123.62 87.332C123.196 88.4431 122.846 89.5812 122.574 90.7388C122.419 90.6613 122.258 90.5839 122.1 90.5119C121.956 89.2524 121.827 87.9878 121.713 86.7181C122.288 86.4595 122.847 86.1676 123.388 85.8439L123.384 85.8455ZM122.849 80.0084C122.908 81.5569 123.038 83.1828 123.274 85.0093C122.749 85.3351 122.204 85.6296 121.644 85.8912C121.501 84.2332 121.383 82.5745 121.289 80.9151C121.83 80.6479 122.353 80.3445 122.853 80.0069L122.849 80.0084ZM122.579 71.0643C122.792 75.0176 122.781 77.3465 122.822 79.0816C122.321 79.4469 121.794 79.7753 121.246 80.0642C121.129 77.7553 121.032 75.3753 121.027 72.0251C121.585 71.7726 122.108 71.4491 122.584 71.0627L122.579 71.0643ZM121.287 90.172C119.645 89.6289 117.946 89.2723 116.224 89.109C116.189 88.7729 116.159 88.4338 116.123 88.0978C117.782 87.9917 119.416 87.6305 120.966 87.027C121.067 88.0777 121.176 89.1252 121.292 90.1705L121.287 90.172ZM120.895 86.2179C119.349 86.8448 117.711 87.2166 116.045 87.3189C115.875 85.6543 115.73 83.9801 115.609 82.2963C117.302 82.2763 118.974 81.9243 120.531 81.2604C120.629 82.9111 120.756 84.568 120.9 86.2164L120.895 86.2179ZM105.376 52.9367C105.217 50.3879 105.347 47.8292 105.763 45.3096C105.773 45.2513 105.769 45.1915 105.752 45.1349C105.735 45.0782 105.706 45.0262 105.666 44.9828C104.61 43.8422 103.695 42.5782 102.942 41.2184C103.765 41.191 104.566 40.9431 105.261 40.5007C105.348 40.4457 105.409 40.3586 105.432 40.2583C105.454 40.158 105.436 40.0529 105.381 39.9661C105.354 39.923 105.319 39.8858 105.277 39.8565C105.235 39.8272 105.188 39.8063 105.139 39.7951C105.039 39.7726 104.933 39.7907 104.847 39.8457C104.163 40.281 103.36 40.4892 102.551 40.4403C102.449 40.2367 102.338 40.0385 102.241 39.8302C101.934 39.1369 101.663 38.4286 101.427 37.708C101.995 37.73 102.555 37.5758 103.031 37.2666C103.076 37.2402 103.115 37.205 103.146 37.163C103.177 37.1211 103.199 37.0733 103.212 37.0225C103.224 36.9717 103.225 36.919 103.217 36.8676C103.208 36.8162 103.189 36.767 103.16 36.7231C103.132 36.6793 103.095 36.6416 103.052 36.6123C103.009 36.583 102.96 36.5628 102.909 36.5528C102.858 36.5428 102.805 36.5433 102.754 36.5542C102.703 36.5651 102.655 36.5862 102.612 36.6163C102.189 36.8946 101.674 36.9961 101.177 36.8989C100.539 34.6737 100.351 32.6405 101.05 32.1573C101.184 32.0648 101.338 32.0038 101.5 31.9788C101.662 31.9539 101.827 31.9657 101.983 32.0133C102.293 32.1566 102.421 32.6111 102.482 32.8309C102.757 33.8251 104.057 35.8412 106.647 39.8573C107.219 40.7453 107.837 41.6326 108.487 42.4897C108.543 42.5645 108.625 42.6164 108.717 42.6356C108.808 42.6548 108.904 42.6401 108.986 42.5943C109.73 42.1775 110.594 42.0239 111.436 42.1583C111.535 42.1697 111.634 42.1425 111.714 42.0824C111.793 42.0223 111.846 41.934 111.862 41.8357C111.878 41.7375 111.856 41.6369 111.799 41.5548C111.743 41.4727 111.657 41.4155 111.56 41.3949C111.278 41.3517 110.993 41.3356 110.708 41.3469C111.339 39.289 111.593 37.1339 111.456 34.9857C112.25 35.0897 113.054 35.068 113.841 34.9214C113.891 34.9127 113.939 34.8941 113.983 34.8667C114.026 34.8394 114.063 34.8037 114.092 34.7618C114.122 34.72 114.142 34.6727 114.153 34.6228C114.164 34.5729 114.165 34.5213 114.156 34.471C114.147 34.4208 114.128 34.3728 114.1 34.3299C114.072 34.287 114.037 34.25 113.994 34.221C113.952 34.1921 113.905 34.1717 113.855 34.1612C113.805 34.1506 113.753 34.1501 113.703 34.1596C112.952 34.2928 112.185 34.3066 111.43 34.2006C111.257 32.6488 111.179 31.0878 111.198 29.5264C111.779 29.713 112.386 29.8073 112.996 29.8059C113.099 29.8015 113.196 29.7595 113.269 29.6882C113.342 29.6168 113.387 29.5209 113.394 29.4188C113.394 29.3161 113.353 29.2177 113.281 29.1451C113.208 29.0725 113.11 29.0317 113.007 29.0317C113.005 29.0305 113.003 29.0298 113.001 29.0298C112.999 29.0298 112.997 29.0305 112.996 29.0317C112.385 29.0351 111.778 28.9248 111.208 28.7065C111.236 27.9609 111.285 27.2161 111.356 26.4759C111.47 25.2812 111.561 24.9429 111.821 24.7485C112.177 24.5621 112.585 24.5008 112.98 24.5745C113.375 24.6483 113.734 24.8527 113.999 25.155C114.223 25.4461 114.231 25.7806 114.239 26.5765C114.294 33.8545 114.179 30.1977 114.428 34.1719C114.611 36.397 114.669 38.6307 114.601 40.8623C114.477 40.8878 114.354 40.9157 114.233 40.9521C114.134 40.982 114.052 41.0499 114.004 41.1406C113.955 41.2314 113.945 41.3376 113.975 41.436C114.005 41.5343 114.073 41.6168 114.164 41.6651C114.254 41.7135 114.36 41.7238 114.459 41.6938C114.921 41.5511 115.41 41.5134 115.889 41.5834C116.367 41.6535 116.825 41.8295 117.227 42.0987C117.312 42.1521 117.415 42.17 117.514 42.1488C117.612 42.1275 117.698 42.0687 117.754 41.9849C117.81 41.9011 117.831 41.7988 117.812 41.6998C117.794 41.6008 117.738 41.5128 117.656 41.4546C117.317 41.2306 116.946 41.0588 116.556 40.9451C116.965 38.9862 117.508 37.0579 118.182 35.1738C118.395 34.6096 118.572 34.0327 118.713 33.4465C118.91 33.7105 119.168 33.9231 119.464 34.0661C119.761 34.2092 120.088 34.2784 120.417 34.268C120.519 34.2688 120.618 34.2288 120.691 34.1568C120.765 34.0847 120.806 33.9866 120.807 33.8839C120.808 33.7813 120.768 33.6825 120.696 33.6093C120.624 33.5361 120.526 33.4945 120.423 33.4937C120.181 33.4919 119.942 33.4339 119.726 33.3241C119.624 33.2715 119.155 32.9788 118.867 32.7822C119.063 31.8693 119.165 31.1044 119.368 29.8253C119.922 30.1797 120.543 30.4185 121.192 30.5275C121.293 30.5445 121.397 30.5205 121.481 30.4608C121.564 30.4011 121.621 30.3107 121.638 30.2093C121.655 30.108 121.631 30.0041 121.571 29.9204C121.511 29.8368 121.421 29.7803 121.32 29.7634C120.66 29.6499 120.038 29.3772 119.507 28.969C119.567 28.6144 119.631 28.2389 119.708 27.8122C120.156 25.3517 120.404 24.5302 120.719 24.4326C121.16 24.2979 121.937 24.8027 122.357 25.4895C123.045 26.6199 122.242 27.6806 121.612 31.3575C121.155 34.0225 121.476 34.3322 120.923 36.7239C120.456 38.5724 120.086 40.444 119.814 42.331C119.453 42.2586 119.083 42.2426 118.718 42.2838C118.62 42.3017 118.533 42.3565 118.474 42.4371C118.416 42.5176 118.391 42.6175 118.404 42.7162C118.417 42.8148 118.468 42.9045 118.546 42.9668C118.623 43.029 118.722 43.0589 118.821 43.0503C119.308 42.9861 119.804 43.054 120.257 43.2468C120.709 43.4397 121.101 43.7504 121.392 44.1466C121.421 44.1918 121.458 44.2306 121.502 44.2605C121.546 44.2905 121.596 44.3111 121.649 44.3208C121.701 44.3306 121.755 44.3295 121.807 44.3175C121.859 44.3054 121.908 44.2828 121.951 44.2509C121.994 44.2191 122.029 44.1787 122.056 44.1324C122.082 44.0861 122.099 44.0348 122.105 43.9817C122.11 43.9287 122.105 43.875 122.089 43.8241C122.073 43.7732 122.047 43.7262 122.012 43.6859C121.688 43.2487 121.267 42.8918 120.783 42.643C121.515 41.8242 122.171 40.9402 122.743 40.0021C123.614 38.5883 124.689 35.4216 125.341 33.8661C125.986 34.1704 126.596 34.5429 127.161 34.9772C127.24 35.0428 127.342 35.0743 127.444 35.0648C127.547 35.0553 127.641 35.0055 127.707 34.9265C127.772 34.8474 127.804 34.7455 127.794 34.6432C127.785 34.5409 127.735 34.4466 127.656 34.381C127.021 33.9169 126.34 33.5204 125.623 33.1979C125.669 33.088 125.716 32.978 125.763 32.8704C127.627 28.5687 127.304 27.3887 127.865 27.2261C128.212 27.1255 128.852 27.6047 129.165 28.194C129.442 28.7127 129.397 29.2415 129.216 30.4176C128.872 32.7164 128.597 33.942 128.597 33.9536C128.344 35.385 127.958 36.7898 127.446 38.15C127.018 39.1163 126.878 39.049 126.341 40.2405C126.208 40.112 126.087 39.9726 125.946 39.8534C125.59 39.5578 125.205 39.2985 124.797 39.0792C124.707 39.0319 124.602 39.0221 124.504 39.0521C124.407 39.082 124.325 39.1492 124.277 39.239C124.229 39.3288 124.218 39.4341 124.247 39.5319C124.276 39.6297 124.342 39.7121 124.431 39.7613C125.03 40.0764 125.567 40.4959 126.018 41.0001C125.579 42.1282 125.624 42.3713 125.042 43.7487C124.36 45.3622 124.125 45.3397 123.854 46.3037C123.551 47.5497 123.548 48.8499 123.844 50.0975C124.242 52.4729 124.653 54.9296 126.554 55.7666C127.45 56.0921 128.425 56.1268 129.342 55.8657C129.15 56.4562 129.079 57.0791 129.132 57.6976C129.137 57.7484 129.152 57.7979 129.175 57.8431C129.199 57.8883 129.231 57.9284 129.271 57.9611C129.31 57.9938 129.355 58.0185 129.404 58.0337C129.452 58.049 129.504 58.0544 129.554 58.0499C129.605 58.0453 129.655 58.0307 129.7 58.0071C129.745 57.9834 129.785 57.951 129.818 57.9118C129.851 57.8727 129.875 57.8274 129.891 57.7787C129.906 57.73 129.911 57.6787 129.907 57.6279C129.843 56.9118 129.98 56.1921 130.303 55.5498C130.959 55.2471 131.266 54.9149 131.904 54.6625C133.544 54.0207 136.162 54.4612 137.203 56.0151C137.831 56.9311 137.95 58.3038 137.444 58.7862C137.233 58.9859 136.918 58.9759 135.947 58.9139C133.864 58.7815 131.555 58.5825 129.787 59.0479C128.869 59.393 127.987 59.8274 127.154 60.3447C123.128 62.4933 121.087 64.2625 117.725 62.8998C117.63 62.8652 117.526 62.8685 117.435 62.9092C117.343 62.9498 117.27 63.0245 117.233 63.1175C117.195 63.2106 117.195 63.3146 117.232 63.4078C117.27 63.5009 117.342 63.5758 117.434 63.6167C118.241 63.9425 119.101 64.1203 119.972 64.1417V71.6395C118.336 72.3257 116.581 72.6833 114.807 72.6917C112.377 72.7424 109.969 72.2196 107.778 71.1657C107.819 70.6082 108.404 62.3454 108.404 62.3454C110.3 62.7232 110.782 62.9842 111.424 62.8595C112.056 62.7189 112.616 62.3559 113.003 61.8367C113.068 61.7574 113.099 61.6553 113.089 61.5531C113.079 61.4509 113.029 61.3568 112.95 61.2917C112.87 61.2265 112.768 61.1955 112.666 61.2055C112.564 61.2155 112.47 61.2657 112.405 61.3451C112.132 61.722 111.734 61.9894 111.281 62.0992C110.227 61.9598 109.181 61.7605 108.149 61.5022C106.86 61.1554 105.666 57.4692 105.376 52.9367ZM108.719 72.4122L108.571 79.4517C107.588 78.857 106.672 78.156 105.841 77.3612C105.878 75.3892 105.841 72.78 105.771 70.9876C106.704 71.5589 107.692 72.0361 108.719 72.4122ZM105.814 78.3848C106.658 79.126 107.575 79.7814 108.549 80.3413C108.506 82.1717 108.455 84.002 108.409 85.8316C107.379 85.3349 106.408 84.7263 105.512 84.0167C105.659 82.1244 105.763 80.243 105.814 78.3833V78.3848ZM105.44 84.9257C106.359 85.6114 107.347 86.1981 108.388 86.6763L108.242 92.4282C106.939 90.5421 106.124 89.3405 105.159 87.8252C105.265 86.8579 105.359 85.8909 105.44 84.9241V84.9257ZM95.5431 78.2609C98.7916 77.0678 101.975 75.704 105.08 74.1752C105.127 78.373 104.93 82.5701 104.491 86.7452C103.742 85.5381 102.997 84.3024 102.276 83.035C102.227 82.9499 102.148 82.8865 102.054 82.8578C101.96 82.829 101.859 82.837 101.77 82.8801C100.552 83.4716 99.3243 84.0748 98.0865 84.6895L95.5431 78.2609ZM57.4724 82.3923C49.4032 79.5493 40.6789 76.3973 32.3239 73.3189C33.7016 69.0858 35.5181 65.0084 37.7437 61.1531L55.2279 65.3007L60.7916 70.1924C59.9361 74.3232 58.8276 78.3975 57.4724 82.3923ZM31.7076 73.9166L32.0669 74.0474L30.4619 74.5221C29.5675 70.5599 28.2587 66.7027 26.5573 63.0144L30.1963 60.7799C31.975 61.7421 33.8486 62.5174 35.7872 63.0933C34.0476 66.4081 32.6014 69.8688 31.4653 73.4358C31.4354 73.5317 31.444 73.6355 31.4892 73.7252C31.5344 73.8149 31.6127 73.8836 31.7076 73.9166ZM24.1974 55.7852C24.2636 55.7782 24.3268 55.7543 24.3811 55.7158C24.4353 55.6773 24.4787 55.6255 24.5071 55.5653C26.2204 51.9257 27.5618 48.1224 28.5108 44.2132C29.4306 46.6575 30.2381 49.1537 30.8691 51.4014C29.9356 54.0272 29.1424 56.7009 28.4929 59.411C28.4572 59.5107 28.4614 59.6204 28.5047 59.7171C28.548 59.8138 28.627 59.89 28.7252 59.9297C28.9575 60.073 29.206 60.2023 29.4445 60.3409L26.2399 62.3067C26.2019 62.2293 25.4199 60.5925 25.3464 60.5143C25.3005 60.4367 25.229 60.3775 25.1442 60.347C25.0594 60.3165 24.9666 60.3165 24.8818 60.3471C20.7388 61.805 16.9473 63.386 13.1558 65.1343L11.5461 54.9668C15.6893 55.9402 19.9657 56.2168 24.1997 55.7852H24.1974ZM11.4153 54.1399L11.2736 53.241C14.3985 51.4602 25.125 45.2755 27.8286 43.6921C26.9202 47.5999 25.6045 51.4016 23.9032 55.0349C19.7198 55.4379 15.4984 55.1353 11.4153 54.1399ZM53.7529 58.9325C53.0143 59.8182 52.3004 60.7249 51.6206 61.661C51.4828 61.8507 51.561 62.0241 51.7507 62.2432L53.989 64.2113L37.6384 60.3339C37.5576 60.3135 37.4724 60.3202 37.3957 60.353C37.3191 60.3857 37.2553 60.4426 37.2141 60.5151C36.8541 61.1345 36.5111 61.7663 36.1704 62.3988C33.9289 61.7444 31.7763 60.8169 29.7612 59.6371C33.5342 58.2572 37.0627 56.2838 40.2136 53.7915C40.8431 54.4584 41.5056 55.0933 42.1987 55.6938C42.2711 55.7557 42.3637 55.7888 42.4589 55.7867C45.8798 55.7287 49.2921 55.4257 52.6697 54.8801L53.7529 58.9325ZM53.4432 54.7663C55.234 54.4736 57.0497 54.0841 58.8281 53.656C57.2479 55.0829 55.757 56.6056 54.3638 58.2156L53.4432 54.7663ZM62.4516 51.6336C63.2513 54.487 63.7036 57.4264 63.7988 60.3881C60.1493 61.1152 56.4374 61.4835 52.7162 61.4875C55.4995 57.7766 58.7747 54.4616 62.4516 51.6336ZM62.8875 50.6565C62.8271 50.6154 62.7562 50.5925 62.6831 50.5907C62.4926 50.5845 62.5205 50.5636 60.7661 52.0099C59.221 48.6465 58.1866 45.0714 57.6969 41.4027C61.4397 42.6557 65.2569 43.674 69.1264 44.4517C67.7735 47.1679 66.7344 50.0294 66.0294 52.9808C65.7019 52.7323 62.968 50.6821 62.8875 50.6558V50.6565ZM59.5226 51.104C54.2949 49.1026 49.462 47.4767 44.5796 46.0257C48.441 44.8247 52.11 43.0754 55.4741 40.8313C55.5413 40.7856 55.5925 40.7198 55.6203 40.6434C55.6481 40.5669 55.6511 40.4837 55.6289 40.4054C54.3006 35.6507 52.1383 31.1697 49.2429 27.1712C54.7462 27.1665 60.2225 27.9401 65.5091 29.4691C64.7745 32.341 63.8909 35.1726 62.862 37.9526C60.9085 38.7671 58.9644 39.6049 57.0682 40.4968C56.9964 40.5323 56.937 40.5888 56.8979 40.6587C56.8588 40.7286 56.8418 40.8088 56.8491 40.8886C57.2485 44.4038 58.1488 47.8438 59.5226 51.104ZM54.809 40.342C51.4214 42.566 47.7293 44.2873 43.8479 45.452C45.8222 39.6464 47.4385 33.7252 48.6877 27.7217C51.4396 31.5449 53.5104 35.8147 54.809 40.3427V40.342ZM59.9562 52.0943C60.0181 52.2329 60.0785 52.3715 60.1428 52.5093C59.9322 52.6882 51.9892 54.7972 42.5928 55.0094C39.2457 52.1046 36.681 48.4064 35.1337 44.2535C43.5665 46.3358 51.8575 48.9551 59.9562 52.0951V52.0943ZM39.6786 53.2286C36.5818 55.6683 33.1144 57.5965 29.4081 58.9403C30.6182 54.0348 32.315 49.2624 34.4733 44.694C35.6676 47.8356 37.4323 50.7293 39.6786 53.2294V53.2286ZM24.1711 61.4287C22.5606 64.3275 21.1128 67.1721 19.5712 70.7019C17.6474 70.6099 15.7407 70.2958 13.889 69.7658L13.2812 65.9232C17.274 64.0782 20.5484 62.741 24.1711 61.4287ZM19.8066 71.487C19.8844 71.4899 19.9612 71.4693 20.0271 71.4278C20.093 71.3864 20.1449 71.3261 20.1759 71.2547C21.6134 67.935 23.2218 64.6919 24.9949 61.5386C27.1037 65.7304 28.6916 70.1644 29.7232 74.7419L15.3508 78.9934L14.0222 70.6028C15.9062 71.1364 17.8493 71.4334 19.8066 71.487ZM69.5476 76.8595L52.9461 62.2633C56.5996 62.2417 60.2429 61.8773 63.8282 61.1747C63.8406 62.3103 63.8006 63.4508 63.7082 64.5962C63.7021 64.6777 63.722 64.759 63.765 64.8286C63.8079 64.8981 63.8718 64.9523 63.9475 64.9833C66.1972 65.9018 68.5409 66.5704 70.9366 66.977C71.2103 70.3333 70.7359 73.7086 69.5476 76.8595ZM70.3676 76.8758C71.5021 73.7535 71.9631 70.4264 71.7202 67.1132C74.821 67.5696 77.9713 67.5787 81.0747 67.1403C78.8782 71.6325 75.0478 75.1153 70.3676 76.8758ZM80.861 66.3777C75.3265 67.1337 69.6905 66.4437 64.5018 64.3747C64.8096 60.1959 64.4171 55.9951 63.3405 51.9457C69.4486 56.4215 75.2982 61.2399 80.861 66.3777ZM71.3377 57.1301C73.7479 56.2915 76.1559 55.3671 78.515 54.3753C78.6699 57.3283 78.7573 60.2518 78.7635 63.434C76.4338 61.3505 74.1188 59.3754 71.3416 57.1301H71.3377ZM79.2219 53.1473C81.0036 54.8609 82.9319 56.4154 84.9847 57.7928C82.921 59.0279 81.0774 60.5979 79.5293 62.4383C79.5084 59.2956 79.4193 56.4201 79.2258 53.1473H79.2219ZM79.8514 63.3024C81.4724 61.2765 83.4563 59.5699 85.7016 58.2697C87.3281 59.313 89.0238 60.2442 90.7768 61.0571C90.8595 61.095 90.9529 61.103 91.0408 61.0795C92.1245 60.7792 93.1916 60.422 94.2377 60.0095C96.0598 62.4417 97.6273 65.0546 98.9158 67.807C91.9374 66.0703 85.9424 64.6573 79.8552 63.3024H79.8514ZM99.5321 67.3076C98.2668 64.6381 96.7433 62.0988 94.9833 59.7261C97.4945 58.6966 99.8547 57.3318 102 55.669C101.439 59.5992 100.616 63.4874 99.5359 67.3076H99.5321ZM101.623 54.9846C98.456 57.437 94.8382 59.243 90.975 60.2998C86.8256 58.3591 83.0262 55.7445 79.7314 52.562C87.0964 52.5603 94.4391 53.3728 101.626 54.9846H101.623ZM82.3723 51.8233C81.1761 51.7916 79.9791 51.7746 78.7829 51.7862C78.5971 51.7862 78.4384 51.8907 78.3919 52.2058C78.4206 52.6487 78.443 53.1055 78.4693 53.5561C75.8934 54.647 73.2571 55.6574 70.6231 56.561C69.3254 55.5214 68.0159 54.4976 66.6945 53.4895C67.4049 50.4067 68.4864 47.4213 69.9154 44.5988C71.0505 44.8187 72.187 45.0239 73.3221 45.2012C73.4032 45.2137 73.4863 45.2002 73.5592 45.1625C73.6321 45.1247 73.6912 45.0648 73.7278 44.9913C73.9887 44.4718 74.2597 43.9546 74.5315 43.4382C76.471 44.5825 84.2785 48.9996 86.1182 49.9976C84.9157 50.607 83.6676 51.2194 82.3754 51.8233H82.3723ZM81.2675 32.6072C84.4641 37.6237 86.2775 43.3962 86.5239 49.3395C84.6742 48.3376 76.8341 43.9012 74.8892 42.753C76.7766 39.2261 78.909 35.8358 81.2706 32.6072H81.2675ZM73.158 44.3921C68.12 43.5936 63.1554 42.3864 58.3132 40.7825C65.4464 37.5309 72.8036 34.7955 80.3283 32.5971C77.6276 36.3314 75.2299 40.2756 73.158 44.3921ZM14.4271 87.4784C14.1016 87.5283 13.7695 87.4472 13.5035 87.2529C13.2376 87.0587 13.0594 86.767 13.0079 86.4417L3.53263 25.57C3.4952 25.3338 3.5086 25.0924 3.57192 24.8618C3.63524 24.6312 3.74703 24.4168 3.89982 24.2329C4.05262 24.0489 4.2429 23.8997 4.45796 23.7952C4.67302 23.6906 4.90791 23.6332 5.14694 23.6266L68.7982 21.7832C69.334 21.7712 69.8581 21.9406 70.2856 22.2638C70.7131 22.587 71.0189 23.0452 71.1534 23.5639L73.7348 33.8561C73.2942 34.0047 72.8521 34.1518 72.4185 34.3043L69.567 23.9805C69.5453 23.8956 69.4949 23.8208 69.4243 23.7689C69.3537 23.7169 69.2674 23.691 69.1799 23.6956L6.64744 26.2157C6.59288 26.218 6.53941 26.2318 6.49055 26.2562C6.44169 26.2806 6.39855 26.3151 6.36396 26.3574C6.32937 26.3996 6.30412 26.4487 6.28986 26.5015C6.2756 26.5542 6.27266 26.6093 6.28122 26.6633C12.0432 62.8967 0.310195 -11.2263 14.6548 79.5516C14.6691 79.6427 14.7156 79.7257 14.7857 79.7856C14.8558 79.8455 14.945 79.8784 15.0372 79.8783C15.1239 79.8783 13.8085 80.2515 33.2887 74.4934C36.2742 75.5908 39.2618 76.6814 42.2514 77.7654L42.174 78.1401C12.8794 87.953 14.5835 87.4544 14.4271 87.4784ZM30.7692 86.3944L41.3293 82.1748L40.6441 85.4553C40.6304 85.5207 40.634 85.5885 40.6543 85.6521C40.6747 85.7157 40.7111 85.773 40.7602 85.8184C41.9961 86.9522 43.6124 87.5812 45.2896 87.5812C46.9668 87.5812 48.583 86.9522 49.8189 85.8184C49.8813 85.7606 49.923 85.6839 49.9374 85.6001L50.6342 81.7389L59.6155 84.1019L43.0303 90.5978C42.9173 90.5104 44.0229 90.9044 30.7692 86.3975V86.3944ZM35.0741 110.217C34.573 110.445 34.0264 110.556 33.4761 110.54C32.9258 110.523 32.3865 110.381 31.8997 110.124L17.4908 101.437L77.5286 77.9241L96.1037 82.4922L72.0701 93.5787C71.2533 93.1041 70.4272 92.6496 69.5995 92.1851L79.5014 87.6356C79.5712 87.6033 79.6299 87.551 79.6699 87.4853C79.7098 87.4195 79.7293 87.3434 79.7258 87.2665C79.7223 87.1897 79.696 87.1156 79.6503 87.0538C79.6045 86.992 79.5414 86.9452 79.4689 86.9194L68.0874 82.8933C67.9982 82.8624 67.901 82.8646 67.8133 82.8995L22.508 101.224C22.4418 101.25 22.3842 101.295 22.3417 101.352C22.2991 101.409 22.2732 101.477 22.2668 101.548C22.2604 101.619 22.2737 101.691 22.3054 101.755C22.337 101.818 22.3857 101.872 22.446 101.91L32.2248 108.104C32.2788 108.139 32.3403 108.159 32.4039 108.163C32.4675 108.168 32.5313 108.157 32.5895 108.131L51.1553 99.8563C52.0224 100.397 52.8503 100.998 53.6329 101.655L35.0741 110.217ZM51.1785 98.9636C54.5415 98.6649 57.7964 97.6241 60.7088 95.9162C61.3518 97.7713 62.1249 99.5788 63.0222 101.325C63.0533 101.386 63.0998 101.437 63.1571 101.474C63.2143 101.511 63.2802 101.532 63.3482 101.535C64.3338 101.581 65.3225 101.603 66.312 101.612C67.3976 105.765 67.2235 110.147 65.8119 114.201C58.019 106.421 57.7813 103.004 51.1785 98.9636ZM60.979 110.089C62.4764 111.862 64.0582 113.573 65.7019 115.188C65.7396 115.224 65.784 115.252 65.8326 115.27C65.8811 115.289 65.9329 115.298 65.9848 115.296C66.0368 115.295 66.0879 115.283 66.1353 115.262C66.1827 115.24 66.2254 115.21 66.2609 115.172C66.8409 114.528 67.4471 113.906 68.0649 113.296C67.3917 115.209 66.4813 117.029 65.3551 118.716C62.8178 117.502 60.221 116.425 57.6838 115.507C57.6359 115.49 57.5851 115.482 57.5342 115.484C57.4833 115.486 57.4334 115.499 57.3872 115.52C55.549 116.386 53.7598 117.351 52.0279 118.414C50.2774 115.95 48.1012 113.819 45.6016 112.12C50.7684 111.804 55.9065 111.125 60.9782 110.089H60.979ZM44.7724 112.505C47.3487 114.183 49.588 116.328 51.3744 118.83C48.8774 120.409 46.511 122.185 44.2977 124.142C44.3481 120.297 44.4967 116.568 44.7716 112.505H44.7724ZM11.7258 120.904L16.4773 109.277C24.6107 112.525 33.0977 114.805 41.7636 116.071C39.8252 120.936 37.4926 125.635 34.7892 130.121C26.4842 128.902 18.5831 125.744 11.7258 120.904ZM28.3451 143.132C22.421 141.667 16.8295 139.089 11.8682 135.535C14.8647 132.844 17.5044 129.78 19.723 126.419C20.9654 126.995 22.23 127.523 23.5168 128.005C23.331 130.637 23.2397 133.295 23.242 135.875C23.2418 135.974 23.2796 136.07 23.3476 136.142C23.4156 136.214 23.5086 136.257 23.6074 136.262C26.8206 136.437 29.7612 136.482 32.7862 136.427C31.4669 138.765 29.9828 141.005 28.3451 143.132ZM24.0093 135.508C24.0155 133.014 24.1053 130.665 24.2679 128.284C27.7229 129.524 31.2954 130.409 34.9301 130.924C35.0054 130.935 35.0823 130.923 35.1512 130.891C35.2201 130.858 35.2778 130.806 35.3172 130.741C37.3454 127.397 39.168 123.932 40.7749 120.366L43.6063 120.43C43.6001 120.628 43.4639 124.961 43.5328 125.144C43.5491 125.187 43.5727 125.226 43.6025 125.261C43.7171 125.446 43.9122 125.39 46.0708 125.498C44.8683 128.862 43.3548 132.107 41.5499 135.19C35.7189 135.705 29.859 135.811 24.0131 135.508H24.0093ZM46.8822 125.535C49.9993 125.68 53.1281 125.783 56.2437 125.809C56.5325 126.38 56.8499 126.934 57.1635 127.49C52.6583 131.061 47.5788 133.839 42.1422 135.707C44.0519 132.48 45.6408 129.073 46.8861 125.535H46.8822ZM42.5332 136.39C46.6007 134.977 50.476 133.063 54.0696 130.691C57.5995 133.467 60.5891 136.869 62.8891 140.726C55.9889 139.893 49.1775 138.442 42.5371 136.39H42.5332ZM63.2568 139.839C60.9922 136.173 58.1108 132.924 54.7401 130.239C55.6978 129.584 56.6354 128.897 57.5444 128.182C58.9643 130.6 60.6205 132.871 62.4888 134.962C62.5251 135.003 62.5696 135.036 62.6194 135.058C62.6691 135.08 62.723 135.092 62.7776 135.092C62.855 135.092 63.939 134.914 64.5529 134.818C63.799 136.392 63.3587 138.097 63.2568 139.839ZM62.9231 134.287C60.6501 131.713 58.7036 128.868 57.1279 125.817C63.215 125.843 69.1148 125.668 75.4637 125.219C75.5411 125.158 75.9282 125.047 75.7896 124.694C74.2865 121.652 73.1477 118.443 72.3969 115.133C74.7039 114.017 77.142 113.195 79.6539 112.687L80.285 114.321C79.0972 116.406 77.8956 118.395 76.7071 120.231C76.6761 120.279 76.6561 120.333 76.6485 120.39C76.641 120.447 76.6461 120.504 76.6635 120.559C76.6809 120.613 76.7101 120.663 76.7491 120.705C76.7881 120.747 76.8359 120.779 76.8891 120.801C79.242 121.735 81.6476 122.598 84.0703 123.379C85.2267 125.229 86.2093 127.183 87.0055 129.214C79.0874 131.384 71.0466 133.078 62.9262 134.287H62.9231ZM84.4156 137.734C83.8656 135.514 83.5007 133.252 83.3247 130.971C84.7625 130.607 86.2018 130.24 87.6264 129.847C87.6786 129.833 87.7272 129.807 87.769 129.773C87.8108 129.739 87.845 129.696 87.8693 129.648C87.8936 129.599 87.9075 129.546 87.9101 129.492C87.9126 129.438 87.9038 129.384 87.8842 129.334C87.1499 127.386 86.243 125.508 85.1743 123.723C88.9817 124.914 92.849 125.905 96.7602 126.691C98.9006 129.601 100.845 132.65 102.581 135.818C96.5753 136.853 90.5081 137.493 84.4187 137.734H84.4156ZM126.612 138.425C125.064 138.639 123.521 138.91 122.017 139.232C116.365 140.439 114.789 141.468 110.701 142.432C107.601 143.152 104.424 143.479 101.243 143.406C100.244 141.434 99.5605 139.318 99.2185 137.134C100.563 136.938 101.907 136.726 103.245 136.491C103.305 136.48 103.362 136.455 103.411 136.419C103.46 136.382 103.499 136.334 103.526 136.279C103.553 136.224 103.566 136.163 103.565 136.102C103.563 136.04 103.548 135.98 103.519 135.926C101.836 132.8 99.9464 129.79 97.862 126.916C100.084 127.343 104.458 128 104.521 128C104.6 127.999 104.678 127.975 104.743 127.928C104.809 127.882 104.858 127.817 104.884 127.742C105.266 126.675 105.687 125.621 106.133 124.577C108.017 128.087 110.152 131.455 112.521 134.657C112.564 134.733 112.629 134.794 112.708 134.831C112.787 134.868 112.876 134.879 112.961 134.864C116.647 134.02 120.266 132.905 123.788 131.528C124.685 133.93 125.653 136.273 126.618 138.425H126.612ZM113.797 133.857C116.114 130.677 118.052 127.238 119.57 123.609C124.449 124.541 129.377 125.191 134.331 125.555C127.93 129.309 121.014 132.105 113.803 133.854L113.797 133.857ZM137.015 127.849C135.962 127.634 134.965 127.204 134.085 126.587C134.659 126.258 135.237 125.933 135.803 125.589C135.853 125.559 135.895 125.519 135.926 125.472C135.958 125.424 135.978 125.37 135.985 125.313C135.993 125.256 135.987 125.198 135.969 125.144C135.951 125.09 135.921 125.04 135.881 124.999C132.525 122.255 129.417 119.223 126.59 115.937C126.657 115.908 126.714 115.86 126.755 115.8C126.796 115.739 126.82 115.668 126.822 115.595C126.876 113.365 126.94 111.105 127.013 108.83C131.329 110.045 135.292 110.945 139.24 111.667C142.798 115.004 146.788 117.85 151.103 120.128C147.167 123.895 142.308 126.558 137.015 127.849Z" fill="black"/>
<path d="M81.9301 86.2713C81.471 86.1373 79.4525 85.5156 70.2118 82.7322C70.1359 82.709 70.0689 82.6631 70.0199 82.6006C69.971 82.5382 69.9424 82.4621 69.9381 82.3829C69.9338 82.3036 69.9539 82.2249 69.9958 82.1575C70.0377 82.0901 70.0994 82.0372 70.1724 82.0059L77.3249 78.9755C77.4043 78.9424 77.4923 78.9359 77.5757 78.9569L89.86 82.2297C89.9377 82.2505 90.0069 82.2949 90.0582 82.3569C90.1094 82.4188 90.1401 82.4952 90.146 82.5754C90.1519 82.6556 90.1326 82.7356 90.091 82.8043C90.0493 82.8731 89.9872 82.9271 89.9134 82.959C84.2978 85.3786 82.7539 86.056 82.3025 86.2395C82.095 86.3278 82.1082 86.3263 81.9301 86.2713ZM71.4638 82.304L82.0625 85.5094L88.5864 82.6942L77.503 79.7428L71.4638 82.304Z" fill="black"/>
<path d="M99.2121 23.3865C99.1268 23.3867 99.0439 23.3587 98.9761 23.3069C98.9084 23.2551 98.8597 23.1823 98.8375 23.1C98.8154 23.0176 98.821 22.9303 98.8536 22.8515C98.8862 22.7727 98.9439 22.7068 99.0178 22.6642C105.094 19.1208 112.253 17.9099 119.157 19.2575C119.254 19.2811 119.338 19.3413 119.391 19.4253C119.445 19.5094 119.464 19.6109 119.445 19.7087C119.425 19.8065 119.369 19.8931 119.287 19.9504C119.206 20.0076 119.105 20.0312 119.007 20.0162C112.287 18.7049 105.32 19.8839 99.4064 23.3331C99.3475 23.3678 99.2805 23.3862 99.2121 23.3865Z" fill="black"/>
<path d="M135.273 24.6022C135.042 23.7746 134.722 22.9743 134.319 22.2152C129.592 13.3113 114.653 13.0612 110.184 13.2005C110.082 13.1993 109.985 13.16 109.911 13.0904C109.837 13.0209 109.792 12.9262 109.785 12.825C109.783 12.7742 109.792 12.7235 109.81 12.676C109.828 12.6284 109.855 12.5849 109.89 12.5478C109.925 12.5108 109.967 12.481 110.013 12.4602C110.059 12.4393 110.11 12.4278 110.16 12.4263C114.739 12.2831 130.066 12.5525 135.003 21.8528C135.432 22.6613 135.773 23.5138 136.019 24.3954C136.042 24.4929 136.027 24.5956 135.976 24.6819C135.925 24.7682 135.842 24.8314 135.746 24.8582C135.649 24.885 135.546 24.8733 135.458 24.8255C135.37 24.7778 135.303 24.6977 135.273 24.6022Z" fill="black"/>
</svg>
