<svg width="154" height="154" viewBox="0 0 154 154" fill="none" xmlns="http://www.w3.org/2000/svg">
<path d="M97.0497 69.5918C103.872 69.5918 109.404 64.0604 109.404 57.2379C109.404 50.4154 103.872 44.884 97.0497 44.884C90.2271 44.884 84.6958 50.4154 84.6958 57.2379C84.6958 64.0604 90.2271 69.5918 97.0497 69.5918Z" fill="#FFB43B"/>
<path d="M97.0498 69.8982C95.1777 69.8983 93.329 69.4832 91.6366 68.6828C89.9443 67.8823 88.4506 66.7165 87.263 65.2693C86.0755 63.8221 85.2238 62.1295 84.7691 60.3135C84.3145 58.4975 84.2683 56.6032 84.6338 54.7672C85.2476 51.6851 86.9857 48.9415 89.5101 47.0698C92.0345 45.1982 95.1648 44.3322 98.2922 44.6404C101.42 44.9486 104.321 46.4089 106.431 48.7373C108.542 51.0657 109.711 54.0958 109.711 57.2384C109.707 60.5951 108.372 63.8133 105.999 66.1867C103.625 68.5602 100.407 69.895 97.0498 69.8982ZM97.0498 45.1913C94.6672 45.1918 92.3383 45.8986 90.3574 47.2224C88.3764 48.5462 86.8324 50.4276 85.9204 52.6287C85.0091 54.83 84.7707 57.2521 85.2356 59.5888C85.7004 61.9256 86.8475 64.0721 88.532 65.757C89.7917 67.0163 91.315 67.9807 92.9922 68.5806C94.6693 69.1805 96.4587 69.4012 98.2313 69.2266C100.004 69.052 101.716 68.4865 103.244 67.5709C104.772 66.6553 106.078 65.4123 107.067 63.9314C108.391 61.9503 109.098 59.6211 109.098 57.2384C109.095 54.0441 107.825 50.9813 105.566 48.7227C103.307 46.464 100.244 45.1939 97.0498 45.1913Z" fill="#4B1010"/>
<path d="M92.7094 63.7486C94.7857 59.5314 97.5598 53.9947 100.615 48.5669C100.655 48.4962 100.721 48.4443 100.799 48.4224C100.877 48.4006 100.961 48.4106 101.032 48.4504C101.611 48.7762 100.904 48.4926 93.2599 64.0215C93.242 64.0577 93.2172 64.09 93.1868 64.1166C93.1564 64.1432 93.1211 64.1635 93.0828 64.1764C93.0446 64.1893 93.0042 64.1945 92.9639 64.1917C92.9236 64.189 92.8843 64.1783 92.8482 64.1603C92.7753 64.1239 92.7199 64.0602 92.6939 63.983C92.6679 63.9059 92.6734 63.8216 92.7094 63.7486Z" fill="#4B1010"/>
<path d="M95.7607 51.4707C95.556 51.0406 95.2263 50.6824 94.8146 50.443C94.4029 50.2036 93.9285 50.0941 93.4535 50.1289C92.3801 50.1289 91.23 51.9967 92.0212 53.5716C93.1714 55.378 96.601 54.4924 95.7607 51.4707ZM92.5549 53.2695C92.0688 52.298 92.6362 50.7338 93.6414 50.7338C93.9627 50.7337 94.2777 50.8229 94.5512 50.9915C94.8247 51.1601 95.0459 51.4014 95.1902 51.6884C95.7944 53.9082 93.3293 54.4832 92.5549 53.2695Z" fill="#4B1010"/>
<path d="M100.728 60.0935C100.401 59.9111 100.031 59.8195 99.6561 59.8282C99.2814 59.8369 98.9159 59.9455 98.5973 60.1428C98.2787 60.3402 98.0186 60.6191 97.8439 60.9506C97.6693 61.2822 97.5864 61.6544 97.6038 62.0288C97.6071 62.4088 97.7282 62.7785 97.9504 63.0868C98.1726 63.3951 98.485 63.6269 98.8444 63.7502C99.0829 63.8322 99.3352 63.8652 99.5867 63.8452C100.028 63.8494 100.459 63.7104 100.815 63.4491C101.17 63.1879 101.432 62.8184 101.56 62.3961C101.689 61.9739 101.678 61.5213 101.528 61.1061C101.378 60.6909 101.098 60.3356 100.728 60.0935ZM99.5652 63.2326C98.0631 63.3047 97.7963 61.3778 98.8291 60.7177C99.0667 60.5668 99.3392 60.4796 99.6203 60.4646C99.9013 60.4495 100.182 60.5071 100.434 60.6318C100.685 60.8092 100.873 61.0629 100.969 61.3554C101.064 61.6478 101.063 61.9633 100.965 62.255C100.868 62.5467 100.679 62.7993 100.427 62.9754C100.175 63.1515 99.8726 63.2417 99.5652 63.2326Z" fill="#4B1010"/>
<path d="M118.709 43.0086C129.461 43.0086 138.178 34.2922 138.178 23.5394C138.178 12.7865 129.461 4.07007 118.709 4.07007C107.956 4.07007 99.2393 12.7865 99.2393 23.5394C99.2393 34.2922 107.956 43.0086 118.709 43.0086Z" fill="#FFB43B"/>
<path d="M118.709 43.3145C115.785 43.3147 112.897 42.6664 110.254 41.4162C107.61 40.166 105.277 38.3451 103.422 36.0846C101.566 33.8241 100.236 31.1803 99.5254 28.3437C98.8151 25.5071 98.7427 22.5482 99.3135 19.6802C100.27 14.864 102.984 10.5758 106.928 7.65019C110.871 4.72456 115.762 3.37074 120.649 3.85215C125.535 4.33356 130.068 6.61578 133.365 10.2547C136.662 13.8936 138.487 18.629 138.485 23.5392C138.479 28.7821 136.393 33.8084 132.686 37.5155C128.978 41.2227 123.952 43.3082 118.709 43.3145ZM118.709 4.37666C114.919 4.3765 111.214 5.50031 108.062 7.60594C104.911 9.71158 102.454 12.7045 101.004 16.2062C99.5534 19.7078 99.1738 23.561 99.9132 27.2784C100.653 30.9958 102.478 34.4105 105.158 37.0906C107.838 39.7706 111.253 41.5958 114.97 42.3352C118.687 43.0746 122.541 42.695 126.042 41.2445C129.544 39.794 132.537 37.3376 134.642 34.1861C136.748 31.0346 137.872 27.3295 137.872 23.5392C137.866 18.4588 135.845 13.588 132.253 9.99552C128.66 6.40307 123.79 4.38234 118.709 4.37666Z" fill="#4B1010"/>
<path d="M98.5169 37.6843C98.3705 37.633 98.2357 37.5533 98.1201 37.4497C98.0046 37.3462 97.9107 37.2208 97.8437 37.0808C97.7773 36.9407 97.7392 36.7889 97.7318 36.634C97.7243 36.4791 97.7476 36.3243 97.8003 36.1784C97.853 36.0326 97.934 35.8986 98.0387 35.7842C98.1434 35.6699 98.2697 35.5774 98.4104 35.5121C98.5512 35.447 98.7035 35.4104 98.8585 35.4045C99.0136 35.3985 99.1682 35.4234 99.3136 35.4776C101.7 36.3394 104.62 34.9738 105.956 33.2134C106.215 32.7987 106.334 32.3117 106.295 31.8243C106.256 31.3369 106.061 30.875 105.74 30.5067C105.527 30.2624 105.264 30.0664 104.969 29.9317C103.672 29.5253 101.875 30.7122 99.822 30.7943C98.799 30.885 97.7757 30.6237 96.9214 30.0537C96.0671 29.4838 95.433 28.6392 95.1241 27.6598C94.1097 23.8928 98.2087 19.3413 103.196 21.0036C103.478 21.1114 103.709 21.3243 103.838 21.5978C103.967 21.8713 103.986 22.1842 103.89 22.4712C103.795 22.7583 103.592 22.9972 103.324 23.138C103.056 23.2789 102.744 23.3109 102.453 23.2272C101.52 22.911 100.506 22.9303 99.585 23.2817C98.2739 23.8276 97.0294 25.5635 97.3768 26.9981C97.5422 27.4593 97.856 27.8525 98.2689 28.1162C98.6819 28.3798 99.1707 28.499 99.6586 28.4549C101.499 28.3782 103.904 26.8739 105.89 27.7725C106.507 28.0453 107.057 28.4498 107.502 28.9576C107.946 29.4654 108.274 30.0643 108.462 30.7122C108.652 31.3602 108.696 32.0417 108.593 32.7088C108.49 33.3758 108.242 34.0121 107.866 34.5728C105.695 37.4381 101.71 38.8375 98.5169 37.6843Z" fill="#4B1010"/>
<path d="M132.07 20.4567C131.905 20.1927 131.643 20.0046 131.34 19.9337C131.037 19.8628 130.719 19.915 130.454 20.0787C128.931 21.1154 127.356 22.0733 125.735 22.9486C124.013 19.8264 122.3 16.4382 120.506 12.6075C120.442 12.4667 120.35 12.3401 120.236 12.235C120.122 12.1299 119.989 12.0483 119.843 11.9951C119.698 11.9418 119.543 11.9179 119.389 11.9247C119.234 11.9315 119.082 11.9689 118.942 12.0347C118.802 12.1005 118.676 12.1935 118.572 12.3082C118.468 12.4229 118.387 12.557 118.335 12.703C118.283 12.8489 118.261 13.0037 118.269 13.1584C118.277 13.3131 118.316 13.4646 118.383 13.6043C120.271 17.6389 122.143 21.1545 123.869 24.4223C124.003 24.7247 124.213 24.9868 124.479 25.1827C124.746 25.3785 125.058 25.5013 125.387 25.5387C125.792 25.5571 126.191 25.4334 126.515 25.1891C128.294 24.2411 130.022 23.2012 131.692 22.0738C131.956 21.9091 132.145 21.6468 132.216 21.3438C132.286 21.0404 132.234 20.7215 132.07 20.4567Z" fill="#4B1010"/>
<path d="M121.801 25.5534C119.957 22.778 117.88 20.1658 115.59 17.7456C114.152 16.2121 112.035 14.9485 110.606 16.3762C108.392 18.5883 110.59 29.1518 111.059 32.09C111.086 32.2836 111.161 32.4676 111.277 32.625C111.392 32.7824 111.546 32.9083 111.723 32.9913C111.9 33.0743 112.095 33.1117 112.29 33.1001C112.485 33.0885 112.674 33.0283 112.84 32.925C112.973 32.8423 113.088 32.7341 113.178 32.6067C113.268 32.4793 113.332 32.3352 113.366 32.1827C113.4 32.0309 113.403 31.873 113.376 31.7196C112.967 29.1663 112.867 29.0989 112.412 25.7497C113.908 24.7434 115.46 23.823 117.061 22.9933C118.044 24.2335 118.97 25.5176 119.838 26.8416C120.009 27.1016 120.276 27.283 120.58 27.3461C120.885 27.4091 121.202 27.3486 121.462 27.1778C121.722 27.007 121.904 26.7399 121.967 26.4352C122.03 26.1306 121.969 25.8134 121.798 25.5534H121.801ZM112.116 23.1267C111.86 20.213 112.006 18.6028 112.217 18.1229C112.854 18.4033 113.421 18.8224 113.876 19.3497C114.429 19.9393 114.99 20.5328 115.531 21.1523C114.577 21.6675 113.259 22.4021 112.116 23.1267Z" fill="#4B1010"/>
<path d="M142.095 16.1665C141.944 15.8949 141.691 15.6944 141.393 15.609C141.094 15.5236 140.773 15.5603 140.501 15.7111C135.46 18.5097 135.885 18.3403 135.431 18.3265C135.195 18.1279 135.333 18.3318 133.229 14.2627L137.636 11.9042C137.904 11.754 138.103 11.5047 138.189 11.2097C138.275 10.9147 138.243 10.5977 138.098 10.3266C137.953 10.0555 137.708 9.85208 137.414 9.75997C137.121 9.66786 136.803 9.69443 136.53 9.83396L132.152 12.1764L130.426 8.83719C132.03 7.90789 133.742 7.08977 135.399 6.29618C135.673 6.15793 135.883 5.91787 135.982 5.62739C136.081 5.33691 136.063 5.0191 135.931 4.74198C135.798 4.46477 135.563 4.25057 135.274 4.14547C134.985 4.04036 134.667 4.05275 134.387 4.17995C132.596 5.03718 130.744 5.92278 128.926 6.99929C128.636 7.14539 128.386 7.36085 128.199 7.6266C128.012 7.89235 127.893 8.20018 127.853 8.52282C127.853 9.21289 127.853 8.9729 132.892 18.7206C133.275 19.5855 134.136 20.5355 134.902 20.6313C135.796 20.7722 136.712 20.5727 137.467 20.0724L141.637 17.756C141.908 17.6058 142.109 17.3541 142.195 17.0561C142.281 16.7581 142.245 16.4382 142.095 16.1665Z" fill="#4B1010"/>
<path d="M64.602 111.658C64.3191 109.817 62.3232 109.253 60.8809 109.947C60.7159 110.026 60.5849 110.162 60.5121 110.33L58.1904 115.722C58.6518 116.484 59.3941 117.034 60.2572 117.253C61.1202 117.472 62.0349 117.344 62.804 116.895C62.8806 116.818 62.9573 116.741 63.0386 116.741C63.149 116.631 63.1252 116.647 63.6643 114.943L63.8176 114.867C64.1692 114.418 64.421 113.9 64.5563 113.347C64.6915 112.793 64.7071 112.218 64.602 111.658Z" fill="white"/>
<path d="M64.827 111.532C64.7468 110.972 64.4864 110.453 64.0853 110.054C63.6841 109.655 63.164 109.397 62.6034 109.32C61.7646 109.209 60.4972 109.346 60.1736 110.128C57.73 116.032 57.8143 115.691 57.9278 115.878C58.196 116.327 58.557 116.713 58.9867 117.011C59.4163 117.308 59.9047 117.51 60.4189 117.604C60.2164 118.16 59.8034 118.615 59.2688 118.87C58.3487 119.177 57.2139 118.373 56.6442 117.576C56.5958 117.513 56.5249 117.471 56.4463 117.46C56.3678 117.448 56.2878 117.468 56.2233 117.514C56.1585 117.56 56.114 117.629 56.0994 117.707C56.0848 117.785 56.1012 117.866 56.1451 117.932C56.8881 118.972 58.2674 119.849 59.4804 119.446C59.8533 119.28 60.1863 119.037 60.4571 118.731C60.7278 118.426 60.93 118.066 61.05 117.676C61.8503 117.737 62.642 117.478 63.2521 116.956C63.3763 116.828 63.4606 116.665 63.4944 116.489C63.5043 116.458 63.9544 115.027 63.9629 114.994C64.3475 114.513 64.6238 113.955 64.773 113.358C64.9221 112.76 64.9405 112.138 64.827 111.532ZM63.4967 114.599C63.2342 115.177 63.031 115.78 62.8902 116.398C62.7943 116.808 60.0233 117.921 58.535 115.692L60.7249 110.398C60.9288 109.904 61.9931 109.855 62.5229 109.925C64.4842 110.188 64.8224 112.834 63.4967 114.601V114.599Z" fill="#4B1010"/>
<path d="M56.875 136.543C56.8656 136.924 56.9825 137.298 57.2077 137.605C57.4328 137.913 57.7534 138.137 58.1195 138.243C58.486 138.395 58.8846 138.453 59.2793 138.412C59.6739 138.371 60.0519 138.231 60.3791 138.007C60.0519 137.398 59.525 136.92 58.8869 136.653C58.2488 136.387 57.5384 136.348 56.875 136.543Z" fill="#FFE55D"/>
<path d="M52.7175 104.464C50.5285 99.4603 47.1663 96.3327 42.7874 93.2051C42.5425 92.9979 42.245 92.8625 41.9278 92.8141C41.3474 92.8141 41.8151 92.6899 25.4297 100.558C30.5094 101.113 34.9489 108.797 36.454 113.616C38.8769 121.044 38.8769 128.941 35.7501 136.135C41.0956 136.492 46.4629 135.937 51.6218 134.492C52.1685 134.339 56.5474 133.242 56.6256 132.772C57.5657 123.229 56.549 113.3 52.7175 104.464Z" fill="#FFE55D"/>
<path d="M35.7301 136.437C35.681 136.433 35.6334 136.418 35.5914 136.393C35.5494 136.367 35.5141 136.332 35.4885 136.29C35.4629 136.248 35.4479 136.2 35.4445 136.151C35.4412 136.102 35.4497 136.053 35.4694 136.008C38.4482 129.157 38.6897 121.446 36.1595 113.707C34.6904 109.005 30.3199 101.397 25.3928 100.86C25.3266 100.852 25.2647 100.823 25.2163 100.778C25.1679 100.732 25.1356 100.672 25.1245 100.606C25.1133 100.541 25.1238 100.473 25.1543 100.414C25.1849 100.355 25.2339 100.307 25.2939 100.278L40.9317 92.7718C41.2315 92.5893 41.5777 92.4974 41.9285 92.5073C42.3255 92.5595 42.6986 92.7266 43.0019 92.9881C47.3724 96.1057 50.7676 99.247 52.9957 104.341C56.5864 112.622 57.9466 122.461 56.9299 132.798C56.8686 133.171 56.4883 133.51 52.1102 134.674C46.7939 136.208 41.2511 136.805 35.7301 136.437ZM36.2024 135.852C41.3732 136.149 46.5575 135.589 51.5451 134.192C51.8893 134.093 55.8028 133.093 56.3296 132.659C57.3263 122.466 55.9784 112.752 52.436 104.583C50.2638 99.6189 46.9369 96.5427 42.6094 93.4512C42.3943 93.2686 42.1324 93.1499 41.8534 93.1084C41.4477 93.1276 41.805 93.0279 26.4018 100.425C33.824 102.435 42.8011 120.056 36.2024 135.852Z" fill="#4B1010"/>
<path d="M18.7832 116.27C19.0891 115.994 19.4476 115.783 19.8372 115.648C20.2268 115.514 20.6394 115.46 21.0505 115.489C21.4415 115.489 20.9738 113.143 20.8971 112.986C20.6516 112.313 20.3072 111.68 19.875 111.108C18.8633 111.621 17.8181 112.065 16.7467 112.437C16.3534 112.586 16.1218 112.046 15.809 111.733C15.0798 111.004 14.5576 111.35 14.5576 112.046C14.564 112.348 14.6374 112.646 14.7727 112.916C14.9079 113.186 15.1016 113.423 15.3397 113.61C12.8608 114.602 12.7788 117.891 14.0109 116.659L14.8697 115.878C14.6363 116.216 14.4803 116.601 14.4127 117.007C14.3451 117.412 14.3676 117.827 14.4787 118.223C14.8007 118.866 15.2607 118.731 15.4961 118.376C15.8182 117.892 15.7369 117.275 16.4346 116.578C16.2145 117.099 16.1873 117.681 16.358 118.22C16.6762 118.856 17.1929 118.649 17.3747 118.373C17.6689 117.57 18.152 116.848 18.7832 116.27Z" fill="white"/>
<path d="M37.1676 115.622C34.7107 114.026 31.8941 113.068 28.9733 112.837C26.3952 112.633 23.8024 112.72 21.2438 113.097C21.0023 112.315 20.6243 111.582 20.1274 110.932C20.084 110.872 20.02 110.829 19.9473 110.812C19.8746 110.795 19.7982 110.805 19.7325 110.84C18.7357 111.357 17.7006 111.796 16.6364 112.154C16.4523 112.224 15.569 110.448 14.5792 111.206C13.9964 111.788 14.2725 112.884 14.8161 113.522C14.2963 113.806 13.8528 114.211 13.5236 114.703C13.1943 115.195 12.9891 115.76 12.9253 116.349C12.9253 116.627 12.9253 117.007 13.2512 117.171C13.3988 117.217 13.556 117.224 13.7072 117.191C13.8584 117.158 13.9983 117.086 14.113 116.982C14.0383 117.443 14.0711 117.916 14.2088 118.362C14.4136 118.772 14.56 118.985 14.9756 118.985C15.5606 118.985 15.8336 118.518 16.003 118.014C16.0173 118.199 16.0773 118.377 16.1777 118.533C16.2781 118.689 16.4157 118.818 16.5781 118.907C16.7689 118.969 16.9745 118.968 17.1645 118.904C17.3546 118.84 17.5191 118.717 17.6339 118.552C17.9234 117.78 18.3828 117.082 18.978 116.51C19.2566 116.255 19.5846 116.06 19.9416 115.937C20.2986 115.814 20.6771 115.766 21.0536 115.795C21.7345 115.795 21.5006 114.408 21.3718 113.699C23.8728 113.334 26.4069 113.25 28.9266 113.449C31.7466 113.672 34.4661 114.596 36.8379 116.138C36.9061 116.176 36.9865 116.187 37.0624 116.168C37.1383 116.149 37.204 116.101 37.2458 116.035C37.2879 115.969 37.3032 115.89 37.2887 115.813C37.2742 115.736 37.2308 115.668 37.1676 115.622ZM20.8949 115.172C20.0439 115.158 19.2192 115.466 18.5862 116.035C17.2237 117.177 17.5128 117.629 17.1202 118.212C17.032 118.345 16.8403 118.453 16.6548 118.141C16.312 116.944 17.0128 116.603 16.6095 116.329C16.5505 116.289 16.4795 116.271 16.4085 116.278C16.3376 116.285 16.2712 116.316 16.2208 116.366C15.4885 117.098 15.51 117.813 15.2439 118.212C14.9901 118.595 14.8376 118.212 14.777 118.135C14.6781 117.783 14.6583 117.413 14.7192 117.052C14.78 116.691 14.9199 116.348 15.1289 116.047C15.1694 115.985 15.1859 115.91 15.1755 115.837C15.1651 115.764 15.1284 115.696 15.0723 115.648C15.0161 115.599 14.9443 115.573 14.8702 115.573C14.796 115.574 14.7245 115.601 14.6689 115.65C13.7227 116.512 13.7219 116.536 13.5494 116.595C13.5402 116.528 13.5395 116.428 13.5379 116.385C13.602 115.835 13.8141 115.313 14.1517 114.874C14.4893 114.436 14.9397 114.097 15.4548 113.894C15.5288 113.864 15.5881 113.806 15.6202 113.733C15.6524 113.66 15.6549 113.577 15.6273 113.502C15.6086 113.452 15.5774 113.408 15.5368 113.374C15.264 113.195 15.0601 112.928 14.9585 112.618C14.8568 112.308 14.8634 111.972 14.9771 111.666C15.1535 111.533 15.4931 111.85 15.5905 111.951C15.8711 112.231 16.2215 112.964 16.8487 112.726C17.8473 112.375 18.825 111.968 19.777 111.505C20.1267 111.998 20.4066 112.537 20.6089 113.106C20.7875 113.781 20.8834 114.474 20.8949 115.172Z" fill="#4B1010"/>
<path d="M38.1737 144.731C38.203 144.133 38.0678 143.538 37.7826 143.012C37.5023 142.617 37.1247 142.301 36.6864 142.096C36.2481 141.89 35.7642 141.802 35.2815 141.838C34.652 141.98 34.4296 142.706 34.1084 143.09C33.561 143.747 32.9824 144.377 32.3747 144.978C32.2981 144.601 32.2275 144.162 32.1539 143.794C32.1611 143.628 32.1322 143.463 32.0694 143.309C32.0065 143.156 31.9111 143.017 31.7898 142.904C31.6685 142.791 31.5241 142.706 31.3666 142.654C31.2091 142.602 31.0421 142.584 30.8773 142.603C30.657 142.627 30.4486 142.715 30.2769 142.855C29.951 143.138 29.685 143.484 29.4948 143.871C27.9169 146.502 30.3015 150.7 32.9452 149.481C34.7782 148 36.5239 146.414 38.1737 144.731Z" fill="white"/>
<path d="M42.736 135.963C42.243 135.593 42.3787 136.365 37.3535 142.153C37.0614 141.902 36.7182 141.716 36.3475 141.61C35.9768 141.505 35.5875 141.48 35.2066 141.54C34.4322 141.715 34.1446 142.567 33.8778 142.886C33.4599 143.387 33.0075 143.883 32.569 144.343C32.5306 144.134 32.4923 143.926 32.4608 143.794C32.4698 143.512 32.3967 143.233 32.2504 142.992C32.1041 142.751 31.8908 142.557 31.6366 142.435C31.3823 142.313 31.098 142.267 30.8182 142.303C30.5383 142.339 30.275 142.456 30.0602 142.639C29.2819 143.369 28.7936 144.355 28.6854 145.417C28.5772 146.478 28.8563 147.543 29.4713 148.415C30.5601 150.125 32.0016 150.532 33.6439 149.341C35.3271 147.985 36.9154 146.516 38.3978 144.943C38.4522 144.886 38.4824 144.811 38.4821 144.732C38.5054 143.959 38.2602 143.203 37.7882 142.591C39.5319 140.586 41.2032 138.518 42.7989 136.393C42.8233 136.361 42.8411 136.324 42.8511 136.285C42.8612 136.246 42.8633 136.205 42.8575 136.165C42.8516 136.125 42.8379 136.087 42.817 136.052C42.7962 136.017 42.7687 135.987 42.736 135.963ZM32.6395 149.184C31.599 149.792 30.5601 148.983 29.9842 148.079C29.4477 147.331 29.201 146.413 29.2898 145.497C29.3787 144.58 29.797 143.727 30.4673 143.096C30.5979 142.986 30.7586 142.918 30.9284 142.901C31.0982 142.884 31.2691 142.919 31.4188 143.001C31.5685 143.083 31.6897 143.208 31.7664 143.361C31.8431 143.513 31.8716 143.686 31.8482 143.855C31.9379 144.301 32.0016 144.692 32.0928 145.142C32.1712 145.404 32.3248 145.637 32.5344 145.813C32.744 145.988 33.0005 146.098 33.2721 146.13C33.3514 146.141 33.4321 146.121 33.4968 146.074C33.5616 146.027 33.605 145.956 33.6179 145.877C33.6311 145.797 33.6128 145.716 33.567 145.651C33.5211 145.585 33.4513 145.54 33.3725 145.525C33.2319 145.514 33.0968 145.466 32.9814 145.385C32.866 145.304 32.7746 145.193 32.7169 145.065C33.409 144.391 34.0426 143.66 34.6108 142.879C34.8102 142.553 35.0149 142.21 35.3369 142.137C35.6697 142.115 36.0034 142.163 36.3163 142.278C36.6291 142.394 36.9141 142.574 37.1525 142.807C37.3908 143.04 37.5772 143.321 37.6995 143.632C37.8217 143.942 37.8771 144.274 37.8618 144.608C36.3018 146.328 34.5495 147.863 32.6395 149.184Z" fill="#4B1010"/>
<path d="M57.8953 137.944C58.6314 137.209 60.0277 136.348 59.4212 135.438C58.9465 134.571 57.4567 134.323 56.9676 134.241C55.8866 134.16 54.8013 134.155 53.7196 134.224C53.6793 134.228 53.6387 134.223 53.6002 134.211C53.5616 134.199 53.5259 134.179 53.495 134.153C53.4642 134.127 53.4388 134.095 53.4204 134.059C53.4019 134.023 53.3908 133.983 53.3876 133.943C53.3814 133.862 53.4075 133.781 53.4602 133.719C53.5128 133.657 53.5879 133.618 53.669 133.611C54.7927 133.539 55.92 133.546 57.0427 133.632C58.0395 133.797 59.4043 134.129 59.9448 135.12C60.8412 136.462 59.1735 137.531 58.3285 138.376C58.2701 138.428 58.1941 138.455 58.1161 138.452C58.0382 138.45 57.964 138.419 57.9087 138.364C57.8535 138.308 57.8216 138.234 57.8194 138.156C57.8167 138.078 57.8438 138.003 57.8953 137.944Z" fill="#4B1010"/>
<path d="M61.8653 140.978C60.6846 140.499 59.3777 140.429 58.1527 140.78C58.9688 139.918 59.7125 138.991 60.3762 138.007C59.9694 138.232 59.5122 138.35 59.0475 138.35C58.5827 138.35 58.1255 138.232 57.7187 138.007C57.4043 137.772 56.6238 136.912 56.8584 136.444C55.8417 137.694 54.8526 139.045 53.809 140.354C53.4059 140.862 53.1129 141.448 52.9487 142.075C52.9487 142.701 53.089 143.091 54.2001 143.091C56.6972 143.106 59.1882 142.844 61.6276 142.309C61.7931 142.317 61.9559 142.265 62.0855 142.162C62.2151 142.058 62.3027 141.911 62.3318 141.748C62.3609 141.585 62.3296 141.417 62.2438 141.275C62.1579 141.133 62.0233 141.028 61.8653 140.978Z" fill="white"/>
<path d="M61.9747 140.692C61.037 140.324 60.0252 140.184 59.0227 140.283C59.5962 139.612 60.1337 138.91 60.6329 138.182C60.9503 137.722 59.8615 136.751 59.3547 136.495C58.4476 135.977 57.0223 135.756 56.6235 136.247C55.6068 137.499 54.6016 138.87 53.5765 140.153C53.0957 140.755 52.398 142.044 52.7453 142.731C52.9209 143.17 53.4116 143.393 54.2022 143.393C56.6995 143.409 59.1906 143.147 61.6297 142.611C61.8587 142.608 62.0803 142.53 62.2611 142.389C62.4418 142.248 62.5717 142.053 62.631 141.831C62.6785 141.594 62.6381 141.348 62.5174 141.138C62.3966 140.929 62.2037 140.77 61.9747 140.692ZM59.061 137.039C59.4137 137.257 59.7296 137.532 59.9957 137.851C59.6616 137.991 59.3007 138.056 58.9387 138.04C58.5767 138.025 58.2226 137.93 57.9017 137.762C57.5283 137.483 57.2537 137.093 57.1181 136.647C57.4519 136.575 57.7971 136.572 58.1321 136.639C58.467 136.706 58.7844 136.842 59.0641 137.039H59.061ZM62.0337 141.686C61.9996 141.783 61.9351 141.867 61.8499 141.925C61.7646 141.983 61.663 142.012 61.5599 142.009C59.1424 142.538 56.6738 142.797 54.1991 142.783C53.6969 142.783 53.3817 142.684 53.3005 142.483C53.0789 142.043 53.7122 140.963 54.0588 140.53C54.9321 139.435 55.7855 138.272 56.6527 137.186C56.8812 137.606 57.1917 137.975 57.5651 138.274C58.1724 138.608 58.8741 138.73 59.5587 138.62C59.0279 139.35 58.4443 140.039 57.8128 140.683C57.7576 140.741 57.7273 140.818 57.7283 140.898C57.7292 140.978 57.7614 141.054 57.8179 141.111C57.8744 141.168 57.9508 141.2 58.0307 141.201C58.1107 141.202 58.188 141.172 58.246 141.117C59.4041 140.723 60.6679 140.78 61.7861 141.276C61.8672 141.307 61.9357 141.364 61.9811 141.438C62.0264 141.512 62.046 141.599 62.0368 141.686H62.0337Z" fill="#4B1010"/>
<path d="M48.9641 114.472C51.0612 112.58 51.1532 109.703 50.9975 107.122C50.361 107.605 49.6469 107.975 48.8859 108.217C45.758 109.216 42.3965 109.216 39.2686 108.217C39.6488 109.93 40.3095 111.568 41.2238 113.065C41.6866 113.817 42.3141 114.454 43.0589 114.928C43.8038 115.402 44.6465 115.701 45.5237 115.802C46.7949 115.796 48.0195 115.323 48.9641 114.472Z" fill="white"/>
<path d="M45.5233 116.109C44.5915 116.013 43.6945 115.702 42.9028 115.201C42.1111 114.701 41.4463 114.023 40.9604 113.222C40.0206 111.702 39.3464 110.032 38.9668 108.285C38.9546 108.233 38.9567 108.177 38.9729 108.126C38.989 108.074 39.0187 108.027 39.0588 107.991C39.0988 107.954 39.1479 107.929 39.201 107.917C39.2541 107.906 39.3093 107.909 39.3609 107.926C43.9399 109.413 48.6593 108.49 50.81 106.877C50.8435 106.852 50.8815 106.834 50.922 106.825C50.9625 106.815 51.0045 106.814 51.0455 106.82C51.0866 106.827 51.1258 106.843 51.1608 106.865C51.1958 106.888 51.2259 106.917 51.2494 106.951C51.28 106.997 51.2977 107.051 51.3007 107.107C51.471 109.915 51.3299 112.781 49.1669 114.703C48.1674 115.605 46.8696 116.106 45.5233 116.109ZM39.696 108.671C40.0693 110.166 40.6728 111.594 41.4848 112.904C41.9193 113.622 42.5136 114.229 43.2214 114.68C43.9292 115.13 44.7314 115.411 45.5655 115.5C46.7471 115.484 47.8825 115.039 48.7605 114.248C50.5815 112.604 50.8307 110.165 50.7218 107.693C48.5512 109.095 44.0327 109.919 39.6937 108.668L39.696 108.671Z" fill="#4B1010"/>
<path d="M50.3531 125.281C49.2505 124.177 47.5007 124.492 46.4028 123.76C46.0894 123.554 45.8526 123.251 45.7291 122.897C45.6056 122.543 45.6023 122.159 45.7196 121.803C45.9732 121.341 46.3669 120.973 46.8437 120.75C47.3206 120.527 47.8559 120.461 48.3725 120.562C48.5998 120.597 48.8171 120.679 49.0098 120.804C49.2026 120.93 49.3665 121.094 49.4905 121.288C49.5365 121.354 49.6055 121.4 49.6852 121.415C49.7441 121.427 49.8051 121.42 49.8605 121.397C49.916 121.374 49.9635 121.336 49.9971 121.286C50.0307 121.236 50.049 121.178 50.0497 121.118C50.0505 121.058 50.0335 120.999 50.0011 120.948C49.7803 120.609 49.473 120.336 49.1109 120.155C48.7489 119.975 48.3452 119.894 47.9416 119.922V118.618C47.9416 118.537 47.9093 118.459 47.8518 118.401C47.7943 118.344 47.7163 118.312 47.6349 118.312C47.5536 118.312 47.4756 118.344 47.4181 118.401C47.3605 118.459 47.3282 118.537 47.3282 118.618V119.981C44.7872 120.431 44.318 123.048 46.0577 124.268C47.2439 125.059 49.0243 124.82 49.9068 125.701C51.3437 127.342 50.0602 130.213 47.6349 130.274C46.2264 130.31 44.5802 129.638 44.5802 127.844C44.5802 127.762 44.5479 127.684 44.4904 127.627C44.4328 127.569 44.3548 127.537 44.2735 127.537C44.1922 127.537 44.1141 127.569 44.0566 127.627C43.9991 127.684 43.9668 127.762 43.9668 127.844C43.9668 129.814 45.5839 130.764 47.3022 130.875L47.1733 132.352C47.1698 132.393 47.1743 132.433 47.1864 132.472C47.1986 132.51 47.2182 132.546 47.2442 132.577C47.2702 132.608 47.302 132.633 47.3379 132.652C47.3737 132.671 47.4129 132.682 47.4532 132.686C47.4935 132.689 47.5341 132.685 47.5726 132.673C47.6112 132.661 47.647 132.641 47.6779 132.615C47.7089 132.589 47.7345 132.557 47.7531 132.521C47.7718 132.485 47.7832 132.446 47.7867 132.406L47.9209 130.864C50.7671 130.521 52.0629 127.23 50.3538 125.281H50.3531Z" fill="#4B1010"/>
<path d="M89.2169 108.309C92.816 106.528 92.6611 98.8722 88.8695 91.2085C85.078 83.5449 79.0866 78.7757 75.4875 80.5561C71.8884 82.3372 72.044 89.9932 75.8348 97.6569C79.6264 105.321 85.6178 110.09 89.2169 108.309Z" fill="white"/>
<path d="M74.2997 81.5552C74.2231 81.5552 74.2192 81.5552 74.2192 81.6318L74.2997 81.5552Z" fill="#FFB43B"/>
<path d="M74.2185 81.9393C74.1373 81.9393 74.0593 81.907 74.0019 81.8495C73.9444 81.7921 73.9121 81.7141 73.9121 81.6328C73.9047 81.5512 73.9258 81.4695 73.972 81.4017C74.0181 81.3339 74.0863 81.2842 74.165 81.2611C74.2437 81.238 74.328 81.243 74.4034 81.2752C74.4789 81.3074 74.5408 81.3647 74.5786 81.4375C74.6017 81.4933 74.6079 81.5547 74.5963 81.6139C74.5847 81.6732 74.5559 81.7277 74.5135 81.7707C74.4216 81.8634 74.3633 81.9393 74.2185 81.9393Z" fill="#4B1010"/>
<path d="M72.8889 87.8875C68.3483 97.8828 58.9878 103.961 49.2731 109.077C49.0829 110.408 49.3789 111.28 50.6026 111.892C53.2533 110.67 55.9384 109.503 58.6657 108.496C58.8544 109.123 58.9993 109.794 59.2025 110.406C59.2531 110.989 59.4402 111.552 59.7499 112.048C59.8661 112.177 60.0136 112.274 60.178 112.328C60.3425 112.383 60.5184 112.394 60.6884 112.361C61.015 112.357 61.3363 112.277 61.6262 112.127C61.8324 112.071 62.0203 111.963 62.1736 111.814C62.3155 111.529 62.2503 111.507 61.3072 107.578C67.011 105.73 72.9058 104.717 79.062 105.481C79.9599 105.561 80.8493 105.717 81.7204 105.95C76.8057 101.11 73.6901 94.7382 72.8889 87.8875Z" fill="#FFB43B"/>
<path d="M92.1219 101.959C91.9155 98.1594 90.9007 94.4475 89.1453 91.0713C85.2848 83.2681 79.1009 78.4284 75.3523 80.2801C72.0008 81.9385 72.6955 87.5703 72.6112 87.7589C68.1104 97.673 58.6686 103.784 49.1341 108.804C49.0912 108.827 49.0544 108.86 49.0265 108.9C48.9987 108.94 48.9806 108.986 48.9738 109.034C48.7438 110.623 49.1778 111.52 50.4698 112.166C50.5108 112.187 50.5559 112.198 50.6019 112.199C50.6478 112.2 50.6934 112.19 50.7351 112.171C53.3995 110.944 55.9635 109.84 58.4669 108.9C58.6203 109.454 58.7522 110.018 58.9032 110.445C58.9608 111.095 59.1789 111.721 59.5381 112.266C59.6815 112.424 59.8625 112.544 60.0644 112.614C60.2664 112.685 60.4827 112.703 60.6936 112.668C61.054 112.667 61.4082 112.581 61.7287 112.418C62.0124 112.34 62.2654 112.178 62.4533 111.951C62.6542 111.549 62.5829 111.559 61.6758 107.78C67.5284 105.902 73.1372 105.054 79.0396 105.787C81.017 105.967 81.5814 106.314 81.8145 106.247C87.5336 111.22 92.2683 109.167 92.1219 101.959ZM61.9189 111.638C61.7935 111.738 61.6489 111.811 61.4941 111.852C61.227 111.988 60.9323 112.059 60.633 112.06C60.5223 112.085 60.4073 112.081 60.2985 112.049C60.1897 112.017 60.0907 111.959 60.0104 111.879C59.7198 111.403 59.5446 110.865 59.499 110.31C59.3257 109.791 59.1923 109.227 59.0435 108.687C59.7226 108.438 60.4053 108.199 61.0915 107.971C61.9756 111.652 61.9587 111.487 61.9189 111.638ZM79.1048 105.176C69.0075 103.924 59.4484 107.488 50.6177 111.55C50.2044 111.353 49.8727 111.018 49.68 110.602C49.4872 110.187 49.4455 109.717 49.5619 109.275C58.5528 104.528 68.0851 98.4497 72.7093 88.9926C73.6833 95.1497 76.4887 100.871 80.7602 105.411C80.2126 105.305 79.6601 105.227 79.1048 105.176ZM89.0817 108.035C85.9012 109.608 80.6904 105.701 76.9901 99.1804C77.4264 98.8321 77.7767 98.3879 78.0137 97.8823C78.1902 97.4854 78.2079 97.0359 78.0632 96.6263C77.9184 96.2166 77.6222 95.8781 77.2354 95.6802C76.9246 95.5735 76.5953 95.5315 76.2676 95.5566C75.94 95.5818 75.6209 95.6737 75.3301 95.8267C72.3888 88.9259 72.4425 82.4086 75.6245 80.8321C81.2287 78.058 91.2976 91.5298 91.5085 101.972C91.5721 105.076 90.7095 107.23 89.0817 108.035Z" fill="#4B1010"/>
<path d="M87.6833 108.993C87.6022 108.993 87.524 108.962 87.4659 108.905C87.4078 108.849 87.3745 108.771 87.373 108.69C87.3729 108.64 87.385 108.591 87.4083 108.546C87.4316 108.502 87.4654 108.464 87.5068 108.435C87.5482 108.407 87.5959 108.389 87.6457 108.383C87.6956 108.377 87.7461 108.384 87.7929 108.402C87.8306 108.416 87.8651 108.438 87.8942 108.466C87.9234 108.494 87.9466 108.528 87.9626 108.565C87.9785 108.602 87.9868 108.642 87.987 108.682C87.9872 108.722 87.9793 108.762 87.9637 108.8C87.9419 108.856 87.9035 108.905 87.8534 108.94C87.8034 108.974 87.7441 108.993 87.6833 108.993Z" fill="#4B1010"/>
<path d="M51.9312 94.8794C51.888 94.8311 51.8306 94.7976 51.7673 94.7839C51.7039 94.7701 51.6379 94.7767 51.5785 94.8027C43.5966 98.2669 36.6422 102.93 28.3813 108.672C28.3325 108.706 28.2948 108.754 28.2726 108.809C28.2505 108.865 28.2448 108.925 28.2563 108.984C28.4644 109.831 28.8381 110.628 29.3558 111.33C29.6304 111.621 30.0079 111.793 30.4078 111.81C31.469 111.887 31.6515 110.458 31.242 109.51L35.8908 106.834C36.9628 108.355 38.5757 109.408 40.3993 109.779C41.3155 109.901 42.2478 109.798 43.1151 109.478C43.9819 109.158 44.7576 108.631 45.3747 107.943C45.816 107.373 46.1153 106.706 46.2478 105.997C46.3803 105.288 46.3423 104.558 46.1369 103.866C46.9005 104.344 47.7778 104.609 48.6782 104.635C49.5786 104.66 50.4694 104.445 51.2587 104.011C52.048 103.577 52.7072 102.94 53.1682 102.166C53.6292 101.392 53.8753 100.509 53.881 99.6087C53.7738 97.8596 53.0879 96.1959 51.9312 94.8794Z" fill="#4B1010"/>
<path d="M38.9821 105.295C39.196 104.692 39.3746 104.078 39.5188 103.455C39.5396 103.377 39.5902 103.311 39.6595 103.27C39.7288 103.229 39.8114 103.217 39.8894 103.237C39.9674 103.256 40.0347 103.306 40.0766 103.374C40.1186 103.443 40.132 103.525 40.1138 103.604C39.9649 104.25 39.7788 104.887 39.5564 105.512C39.5422 105.55 39.5208 105.584 39.4932 105.614C39.4656 105.643 39.4325 105.667 39.3957 105.684C39.3589 105.7 39.3193 105.709 39.2789 105.711C39.2386 105.712 39.1984 105.705 39.1607 105.691C39.0847 105.662 39.0231 105.604 38.9896 105.53C38.9562 105.456 38.9534 105.371 38.9821 105.295Z" fill="white"/>
<path d="M41.9408 106.898C42.3418 105.135 42.7344 103.34 43.2772 101.634C43.3033 101.559 43.358 101.496 43.4296 101.46C43.5012 101.424 43.5841 101.417 43.6605 101.442C43.7369 101.466 43.8007 101.519 43.8383 101.59C43.8758 101.661 43.8842 101.744 43.8615 101.821C43.3248 103.508 42.9414 105.28 42.5389 107.035C42.5208 107.114 42.4719 107.183 42.403 107.226C42.3341 107.269 42.2509 107.283 42.1716 107.265C42.0923 107.247 42.0234 107.198 41.9801 107.13C41.9368 107.061 41.9227 106.977 41.9408 106.898Z" fill="white"/>
<path d="M48.1909 101.217C48.2737 100.64 48.4256 100.048 48.503 99.4235C48.5132 99.3428 48.555 99.2694 48.6193 99.2195C48.6835 99.1696 48.765 99.1473 48.8457 99.1574C48.9265 99.1676 48.9999 99.2094 49.0497 99.2737C49.0996 99.338 49.122 99.4194 49.1118 99.5002C49.0305 100.151 48.8764 100.756 48.7974 101.304C48.7919 101.344 48.7785 101.383 48.758 101.417C48.7376 101.452 48.7105 101.482 48.6783 101.506C48.646 101.531 48.6094 101.548 48.5703 101.558C48.5313 101.568 48.4907 101.57 48.4509 101.564C48.3705 101.552 48.2981 101.509 48.2494 101.444C48.2008 101.379 48.1797 101.297 48.1909 101.217Z" fill="white"/>
<path d="M50.4642 101.345C50.7755 100.023 51.0132 98.6766 51.2424 97.3739C51.2611 97.2982 51.3079 97.2324 51.3732 97.1899C51.4385 97.1474 51.5176 97.1313 51.5944 97.1448C51.6711 97.1584 51.7399 97.2005 51.7867 97.2628C51.8335 97.3252 51.855 97.4029 51.8466 97.4804C51.6166 98.7916 51.3766 100.146 51.0615 101.485C51.0425 101.564 50.9932 101.632 50.9241 101.675C50.855 101.718 50.7719 101.732 50.6927 101.714C50.6535 101.704 50.6164 101.688 50.5837 101.664C50.551 101.641 50.5233 101.611 50.502 101.577C50.4808 101.542 50.4666 101.504 50.4601 101.464C50.4536 101.425 50.455 101.384 50.4642 101.345Z" fill="white"/>
<path d="M60.6147 112.127C61.7986 111.336 61.4252 110.171 60.6147 110.171C59.9929 110.21 59.3955 110.427 58.8941 110.797C58.211 111.253 58.1051 111.8 58.3467 112.283C58.5077 112.841 58.8044 113.352 59.2093 113.768L61.3178 115.095C61.5591 114.891 61.7392 114.624 61.838 114.324C61.9369 114.024 61.9507 113.702 61.8778 113.395C61.805 113.087 61.6484 112.806 61.4254 112.582C61.2025 112.358 60.9219 112.201 60.6147 112.127Z" fill="white"/>
<path d="M62.6976 113.992C62.6257 114.046 62.5434 114.083 62.456 114.103C62.3685 114.123 62.2779 114.124 62.19 114.106C62.2718 113.7 62.2199 113.277 62.0419 112.903C61.8638 112.528 61.5694 112.221 61.2025 112.028C61.4151 111.844 61.5664 111.599 61.636 111.327C61.7056 111.054 61.6903 110.767 61.592 110.503C61.2009 109.721 60.4572 109.767 59.6168 110.054C59.3063 110.207 59.0801 110.361 58.7236 110.542C58.397 110.7 58.1444 110.978 58.019 111.319C57.8936 111.659 57.9051 112.035 58.0511 112.367C58.2263 112.976 58.5486 113.531 58.9896 113.985C59.0476 114.04 59.1247 114.071 59.2047 114.07C59.2847 114.069 59.3611 114.037 59.4177 113.98C59.4743 113.924 59.5066 113.847 59.5077 113.767C59.5088 113.687 59.4786 113.61 59.4236 113.552C59.0462 113.155 58.7707 112.673 58.6208 112.146C58.3985 111.701 58.6208 111.352 59.031 111.072C59.6667 110.755 59.9028 110.479 60.6144 110.479C60.6979 110.473 60.7811 110.493 60.8534 110.535C60.9256 110.578 60.9836 110.64 61.02 110.716C61.0553 110.815 61.0702 110.921 61.0641 111.026C61.0579 111.131 61.0306 111.235 60.9839 111.329C60.8389 111.541 60.6556 111.725 60.4434 111.87C60.3942 111.903 60.3557 111.95 60.3324 112.004C60.3092 112.059 60.3022 112.119 60.3123 112.177C60.3225 112.236 60.3493 112.29 60.3895 112.333C60.4298 112.377 60.4818 112.408 60.5392 112.423C60.7295 112.468 60.9081 112.553 61.0637 112.672C61.2193 112.791 61.3483 112.941 61.4426 113.112C61.5368 113.284 61.5942 113.473 61.6111 113.668C61.628 113.863 61.604 114.059 61.5406 114.244C61.4563 114.492 61.3029 114.711 61.1005 114.876C61.0454 114.934 61.0152 115.011 61.0163 115.091C61.0174 115.171 61.0497 115.248 61.1063 115.304C61.1629 115.361 61.2394 115.393 61.3194 115.394C61.3993 115.395 61.4765 115.365 61.5345 115.309C61.7208 115.127 61.878 114.917 61.9999 114.686C62.1814 114.734 62.3714 114.741 62.5558 114.705C62.7401 114.67 62.9142 114.593 63.0649 114.481C63.1087 114.443 63.1409 114.394 63.1577 114.339C63.1745 114.283 63.1752 114.224 63.1598 114.168C63.1444 114.112 63.1135 114.062 63.0706 114.023C63.0277 113.984 62.9747 113.958 62.9177 113.948C62.8414 113.935 62.7629 113.95 62.6976 113.992Z" fill="#4B1010"/>
<path d="M90.5611 95.5511C90.9615 95.5511 91.3581 95.4722 91.728 95.319C92.098 95.1657 92.4341 94.9411 92.7173 94.658C93.0005 94.3748 93.2251 94.0387 93.3783 93.6687C93.5316 93.2987 93.6104 92.9022 93.6104 92.5018C93.6104 92.1013 93.5316 91.7048 93.3783 91.3348C93.2251 90.9648 93.0005 90.6287 92.7173 90.3455C92.4341 90.0624 92.098 89.8378 91.728 89.6845C91.3581 89.5313 90.9615 89.4524 90.5611 89.4524C89.7523 89.4524 88.9767 89.7737 88.4049 90.3455C87.833 90.9174 87.5117 91.693 87.5117 92.5018C87.5117 93.3105 87.833 94.0861 88.4049 94.658C88.9767 95.2298 89.7523 95.5511 90.5611 95.5511Z" fill="#FFE55D"/>
<path d="M90.5609 95.8578C90.1158 95.8645 89.6739 95.7827 89.2608 95.617C88.8477 95.4514 88.4716 95.2052 88.1545 94.8929C87.8374 94.5805 87.5856 94.2082 87.4137 93.7977C87.2418 93.3871 87.1533 92.9464 87.1533 92.5014C87.1533 92.0563 87.2418 91.6156 87.4137 91.205C87.5856 90.7945 87.8374 90.4222 88.1545 90.1099C88.4716 89.7975 88.8477 89.5514 89.2608 89.3857C89.6739 89.22 90.1158 89.1382 90.5609 89.1449C91.4423 89.1582 92.2831 89.5177 92.9017 90.1457C93.5202 90.7737 93.867 91.6199 93.867 92.5014C93.867 93.3829 93.5202 94.229 92.9017 94.857C92.2831 95.485 91.4423 95.8445 90.5609 95.8578ZM90.5609 89.7591C90.2007 89.7591 89.8441 89.8301 89.5113 89.968C89.1786 90.1059 88.8763 90.3079 88.6216 90.5627C88.367 90.8174 88.165 91.1197 88.0272 91.4525C87.8894 91.7853 87.8185 92.142 87.8186 92.5021C87.8186 92.8623 87.8896 93.2189 88.0275 93.5517C88.1654 93.8844 88.3675 94.1867 88.6222 94.4414C88.8769 94.696 89.1793 94.898 89.512 95.0358C89.8448 95.1736 90.2015 95.2445 90.5616 95.2444C91.289 95.2443 91.9866 94.9552 92.5009 94.4408C93.0152 93.9264 93.304 93.2288 93.3039 92.5014C93.3038 91.774 93.0148 91.0764 92.5003 90.5621C91.9859 90.0478 91.2883 89.759 90.5609 89.7591Z" fill="#4B1010"/>
<path d="M107.997 88.2791C109.262 88.2791 110.475 87.7766 111.369 86.8822C112.263 85.9878 112.766 84.7748 112.766 83.5099C112.766 82.245 112.263 81.032 111.369 80.1376C110.475 79.2432 109.262 78.7407 107.997 78.7407C106.732 78.7407 105.519 79.2432 104.624 80.1376C103.73 81.032 103.228 82.245 103.228 83.5099C103.228 84.7748 103.73 85.9878 104.624 86.8822C105.519 87.7766 106.732 88.2791 107.997 88.2791Z" fill="#FFE55D"/>
<path d="M107.997 88.5865C106.993 88.5865 106.011 88.289 105.176 87.7316C104.342 87.1732 103.691 86.3802 103.307 85.4528C102.923 84.5253 102.822 83.5048 103.017 82.52C103.213 81.5353 103.696 80.6309 104.406 79.9208C105.116 79.2108 106.021 78.727 107.005 78.5306C107.99 78.3354 109.011 78.4362 109.938 78.8203C110.866 79.2045 111.659 79.8547 112.217 80.689C112.869 81.6654 113.163 82.8378 113.047 84.0064C112.932 85.175 112.415 86.2675 111.584 87.0975C110.633 88.0495 109.343 88.5851 107.997 88.5865ZM107.997 79.0474C107.114 79.0469 106.251 79.3084 105.516 79.7988C104.782 80.2892 104.21 80.9865 103.872 81.8023C103.619 82.4122 103.504 83.0707 103.536 83.7304C103.568 84.39 103.746 85.0343 104.057 85.6168C104.369 86.1993 104.805 86.7056 105.335 87.0991C105.866 87.4926 106.477 87.7635 107.125 87.8923C107.772 88.0211 108.44 88.0046 109.081 87.8439C109.722 87.6833 110.319 87.3825 110.829 86.9633C111.339 86.5441 111.75 86.0169 112.032 85.4198C112.314 84.8226 112.46 84.1703 112.459 83.5099C112.458 82.3268 111.987 81.1926 111.151 80.356C110.314 79.5194 109.18 79.0488 107.997 79.0474Z" fill="#4B1010"/>
</svg>
