<svg width="155" height="154" viewBox="0 0 155 154" fill="none" xmlns="http://www.w3.org/2000/svg">
<path d="M4.65967 11.6526H81.6827V88.6756H4.65967V11.6526Z" fill="white"/>
<path d="M81.6827 11.269H4.65974C4.55806 11.269 4.46055 11.3094 4.38866 11.3813C4.31676 11.4532 4.27637 11.5507 4.27637 11.6524V88.6754C4.27637 88.7771 4.31676 88.8746 4.38866 88.9465C4.46055 89.0184 4.55806 89.0588 4.65974 89.0588H81.6827C81.7844 89.0588 81.8819 89.0184 81.9538 88.9465C82.0257 88.8746 82.0661 88.7771 82.0661 88.6754V11.6524C82.0661 11.5507 82.0257 11.4532 81.9538 11.3813C81.8819 11.3094 81.7844 11.269 81.6827 11.269ZM81.2994 28.3852H73.5077V20.5935H81.2994V28.3852ZM81.2994 36.9436H73.5077V29.1519H81.2994V36.9436ZM81.2994 45.5013H73.5077V37.7104H81.2994V45.5013ZM81.2994 54.0598H73.5077V46.2681H81.2994V54.0598ZM81.2994 62.6175H73.5077V54.8288H81.2994V62.6175ZM81.2994 71.1759H73.5077V63.3842H81.2994V71.1759ZM5.04312 63.3842H12.8348V71.1759H5.04312V63.3842ZM5.04312 54.8288H12.8348V62.6175H5.04312V54.8288ZM5.04312 46.2704H12.8348V54.0621H5.04312V46.2704ZM5.04312 37.7127H12.8348V45.5013H5.04312V37.7127ZM5.04312 29.1542H12.8348V36.9436H5.04312V29.1542ZM72.7409 54.0621H64.9492V46.2681H72.7409V54.0621ZM13.6016 46.2681H21.3925V54.0621H13.6016V46.2681ZM22.1593 46.2681H29.951V54.0621H22.1593V46.2681ZM30.7177 46.2681H38.5086V54.0621H30.7177V46.2681ZM39.2754 46.2681H47.0671V54.0621H39.2754V46.2681ZM47.8338 46.2681H55.6248V54.0621H47.8338V46.2681ZM56.3915 46.2681H64.1825V54.0621H56.3915V46.2681ZM72.7409 45.5013H64.9492V37.7104H72.7409V45.5013ZM64.1825 45.5013H56.3915V37.7104H64.1825V45.5013ZM55.6248 45.5013H47.8338V37.7104H55.6248V45.5013ZM47.0671 45.5013H39.2754V37.7104H47.0671V45.5013ZM38.5086 45.5013H30.7177V37.7104H38.5086V45.5013ZM29.951 45.5013H22.1593V37.7104H29.951V45.5013ZM21.3925 45.5013H13.6016V37.7104H21.3925V45.5013ZM13.6016 54.8288H21.3925V62.6175H13.6016V54.8288ZM22.1593 54.8288H29.951V62.6175H22.1593V54.8288ZM30.7177 54.8288H38.5086V62.6175H30.7177V54.8288ZM39.2754 54.8288H47.0671V62.6175H39.2754V54.8288ZM47.8338 54.8288H55.6248V62.6175H47.8338V54.8288ZM56.3915 54.8288H64.1825V62.6175H56.3915V54.8288ZM64.9492 54.8288H72.7409V62.6175H64.9492V54.8288ZM72.7409 36.9436H64.9492V29.1519H72.7409V36.9436ZM64.1825 36.9436H56.3915V29.1519H64.1825V36.9436ZM55.6248 36.9436H47.8338V29.1519H55.6248V36.9436ZM47.0671 36.9436H39.2754V29.1519H47.0671V36.9436ZM38.5086 36.9436H30.7177V29.1519H38.5086V36.9436ZM29.951 36.9436H22.1593V29.1519H29.951V36.9436ZM21.3925 36.9436H13.6016V29.1519H21.3925V36.9436ZM13.6016 63.3842H21.3925V71.1759H13.6016V63.3842ZM22.1593 63.3842H29.951V71.1759H22.1593V63.3842ZM30.7177 63.3842H38.5086V71.1759H30.7177V63.3842ZM39.2754 63.3842H47.0671V71.1759H39.2754V63.3842ZM47.8338 63.3842H55.6248V71.1759H47.8338V63.3842ZM56.3915 63.3842H64.1825V71.1759H56.3915V63.3842ZM64.9492 63.3842H72.7409V71.1759H64.9492V63.3842ZM72.7409 28.3852H64.9492V20.5935H72.7409V28.3852ZM64.1825 28.3852H56.3915V20.5935H64.1825V28.3852ZM55.6248 28.3852H47.8338V20.5935H55.6248V28.3852ZM47.0671 28.3852H39.2754V20.5935H47.0671V28.3852ZM38.5086 28.3852H30.7177V20.5935H38.5086V28.3852ZM29.951 28.3852H22.1593V20.5935H29.951V28.3852ZM21.3925 28.3852H13.6016V20.5935H21.3925V28.3852ZM12.8348 28.3852H5.04312V20.5935H12.8348V28.3852ZM5.04312 71.9427H12.8348V79.7336H5.04312V71.9427ZM13.6016 71.9427H21.3925V79.7336H13.6016V71.9427ZM22.1593 71.9427H29.951V79.7336H22.1593V71.9427ZM30.7177 71.9427H38.5086V79.7336H30.7177V71.9427ZM39.2754 71.9427H47.0671V79.7336H39.2754V71.9427ZM47.8338 71.9427H55.6248V79.7336H47.8338V71.9427ZM56.3915 71.9427H64.1825V79.7336H56.3915V71.9427ZM64.9492 71.9427H72.7409V79.7336H64.9492V71.9427ZM73.5077 71.9427H81.2994V79.7336H73.5077V71.9427ZM81.2994 19.8267H73.5077V12.0358H81.2994V19.8267ZM72.7409 19.8267H64.9492V12.0358H72.7409V19.8267ZM64.1825 19.8267H56.3915V12.0358H64.1825V19.8267ZM55.6248 19.8267H47.8338V12.0358H55.6248V19.8267ZM47.0671 19.8267H39.2754V12.0358H47.0671V19.8267ZM38.5086 19.8267H30.7177V12.0358H38.5086V19.8267ZM29.951 19.8267H22.1593V12.0358H29.951V19.8267ZM21.3925 19.8267H13.6016V12.0358H21.3925V19.8267ZM5.04312 12.0358H12.8348V19.8267H5.04312V12.0358ZM5.04312 80.5003H12.8348V88.292H5.04312V80.5003ZM13.6016 80.5003H21.3925V88.292H13.6016V80.5003ZM22.1593 80.5003H29.951V88.292H22.1593V80.5003ZM30.7177 80.5003H38.5086V88.292H30.7177V80.5003ZM39.2754 80.5003H47.0671V88.292H39.2754V80.5003ZM47.8338 80.5003H55.6248V88.292H47.8338V80.5003ZM56.3915 80.5003H64.1825V88.292H56.3915V80.5003ZM64.9492 80.5003H72.7409V88.292H64.9492V80.5003ZM81.2994 88.292H73.5077V80.5003H81.2994V88.292Z" fill="#4B1010"/>
<path d="M35.9546 29.7615C35.9546 30.0852 36.0183 30.4058 36.1422 30.7048C36.2661 31.0039 36.4477 31.2757 36.6766 31.5046C36.9055 31.7335 37.1773 31.9151 37.4763 32.0389C37.7754 32.1628 38.096 32.2266 38.4197 32.2266C38.7434 32.2266 39.064 32.1628 39.363 32.0389C39.6621 31.9151 39.9339 31.7335 40.1628 31.5046C40.3917 31.2757 40.5733 31.0039 40.6971 30.7048C40.821 30.4058 40.8848 30.0852 40.8848 29.7615C40.8848 29.4378 40.821 29.1172 40.6971 28.8181C40.5733 28.5191 40.3917 28.2473 40.1628 28.0184C39.9339 27.7895 39.6621 27.6079 39.363 27.484C39.064 27.3601 38.7434 27.2964 38.4197 27.2964C38.096 27.2964 37.7754 27.3601 37.4763 27.484C37.1773 27.6079 36.9055 27.7895 36.6766 28.0184C36.4477 28.2473 36.2661 28.5191 36.1422 28.8181C36.0183 29.1172 35.9546 29.4378 35.9546 29.7615Z" fill="white"/>
<path d="M38.4198 32.6091C37.8564 32.6091 37.3056 32.442 36.8372 32.129C36.3687 31.8159 36.0036 31.371 35.788 30.8505C35.5725 30.3299 35.5161 29.7572 35.6261 29.2046C35.736 28.652 36.0074 28.1445 36.4059 27.7461C36.8043 27.3478 37.3119 27.0766 37.8645 26.9667C38.4171 26.8569 38.9899 26.9134 39.5104 27.1292C40.0308 27.3449 40.4757 27.7101 40.7886 28.1786C41.1015 28.6471 41.2684 29.1979 41.2682 29.7614C41.2674 30.5165 40.967 31.2405 40.433 31.7744C39.899 32.3083 39.1749 32.6084 38.4198 32.6091ZM38.4198 27.6796C38.008 27.6796 37.6056 27.8017 37.2632 28.0305C36.9209 28.2592 36.6541 28.5843 36.4965 28.9647C36.3389 29.3451 36.2977 29.7637 36.378 30.1675C36.4584 30.5713 36.6566 30.9422 36.9478 31.2334C37.2389 31.5245 37.6098 31.7227 38.0136 31.8031C38.4175 31.8834 38.836 31.8422 39.2164 31.6846C39.5968 31.5271 39.9219 31.2602 40.1507 30.9179C40.3794 30.5756 40.5015 30.1731 40.5015 29.7614C40.5011 29.2094 40.2816 28.6801 39.8913 28.2898C39.501 27.8995 38.9717 27.68 38.4198 27.6796Z" fill="#4B1010"/>
<path d="M36.144 21.1775C36.144 21.5012 36.2078 21.8218 36.3317 22.1209C36.4556 22.4199 36.6371 22.6917 36.8661 22.9206C37.095 23.1495 37.3667 23.3311 37.6658 23.455C37.9649 23.5788 38.2854 23.6426 38.6091 23.6426C38.9329 23.6426 39.2534 23.5788 39.5525 23.455C39.8516 23.3311 40.1233 23.1495 40.3522 22.9206C40.5811 22.6917 40.7627 22.4199 40.8866 22.1209C41.0105 21.8218 41.0742 21.5012 41.0742 21.1775C41.0742 20.8538 41.0105 20.5332 40.8866 20.2341C40.7627 19.9351 40.5811 19.6633 40.3522 19.4344C40.1233 19.2055 39.8516 19.0239 39.5525 18.9C39.2534 18.7762 38.9329 18.7124 38.6091 18.7124C38.2854 18.7124 37.9649 18.7762 37.6658 18.9C37.3667 19.0239 37.095 19.2055 36.8661 19.4344C36.6371 19.6633 36.4556 19.9351 36.3317 20.2341C36.2078 20.5332 36.144 20.8538 36.144 21.1775Z" fill="white"/>
<path d="M38.6095 24.0251C38.0461 24.0252 37.4952 23.8583 37.0267 23.5453C36.5581 23.2324 36.1929 22.7875 35.9772 22.267C35.7615 21.7465 35.7051 21.1737 35.815 20.6211C35.9248 20.0685 36.1961 19.5608 36.5946 19.1624C36.993 18.764 37.5006 18.4927 38.0532 18.3828C38.6058 18.2729 39.1786 18.3294 39.6991 18.5451C40.2197 18.7608 40.6645 19.126 40.9775 19.5946C41.2904 20.0631 41.4574 20.6139 41.4572 21.1774C41.4564 21.9324 41.1561 22.6562 40.6222 23.1901C40.0884 23.724 39.3645 24.0243 38.6095 24.0251ZM38.6095 19.0956C38.1977 19.0955 37.7952 19.2175 37.4527 19.4461C37.1103 19.6748 36.8434 19.9998 36.6857 20.3802C36.528 20.7606 36.4867 21.1792 36.5669 21.583C36.6471 21.9869 36.8454 22.3579 37.1365 22.6491C37.4276 22.9403 37.7985 23.1386 38.2023 23.219C38.6062 23.2994 39.0248 23.2582 39.4052 23.1007C39.7856 22.9432 40.1108 22.6763 40.3396 22.334C40.5683 21.9916 40.6905 21.5891 40.6905 21.1774C40.6892 20.626 40.4696 20.0975 40.0795 19.7078C39.6895 19.318 39.1609 19.0988 38.6095 19.0979V19.0956Z" fill="#4B1010"/>
<path d="M36.2378 37.7876C36.2378 38.4414 36.4975 39.0684 36.9598 39.5307C37.4221 39.993 38.0491 40.2527 38.7029 40.2527C39.3567 40.2527 39.9837 39.993 40.446 39.5307C40.9083 39.0684 41.168 38.4414 41.168 37.7876C41.168 37.1338 40.9083 36.5068 40.446 36.0445C39.9837 35.5822 39.3567 35.3225 38.7029 35.3225C38.0491 35.3225 37.4221 35.5822 36.9598 36.0445C36.4975 36.5068 36.2378 37.1338 36.2378 37.7876Z" fill="white"/>
<path d="M38.703 40.6366C38.1396 40.6366 37.5889 40.4696 37.1204 40.1566C36.652 39.8436 36.2869 39.3987 36.0713 38.8782C35.8557 38.3577 35.7993 37.785 35.9092 37.2325C36.0191 36.6799 36.2904 36.1724 36.6888 35.774C37.0872 35.3756 37.5947 35.1043 38.1473 34.9944C38.6998 34.8845 39.2725 34.9409 39.793 35.1565C40.3135 35.3721 40.7584 35.7372 41.0714 36.2056C41.3844 36.6741 41.5514 37.2248 41.5514 37.7882C41.5506 38.5434 41.2503 39.2674 40.7162 39.8014C40.1822 40.3355 39.4582 40.6358 38.703 40.6366ZM38.703 35.7072C38.2912 35.7072 37.8887 35.8293 37.5463 36.0581C37.204 36.2869 36.9372 36.612 36.7796 36.9925C36.6221 37.3729 36.5809 37.7915 36.6613 38.1953C36.7417 38.5992 36.94 38.9701 37.2312 39.2612C37.5224 39.5523 37.8934 39.7505 38.2973 39.8308C38.7012 39.911 39.1198 39.8697 39.5001 39.712C39.8805 39.5543 40.2056 39.2874 40.4342 38.9449C40.6629 38.6025 40.7848 38.1999 40.7847 37.7882C40.7841 37.2363 40.5645 36.7073 40.1742 36.3171C39.784 35.927 39.2548 35.7076 38.703 35.7072Z" fill="#4B1010"/>
<path d="M27.9282 46.0894C27.9282 46.7431 28.1879 47.3702 28.6502 47.8325C29.1125 48.2947 29.7395 48.5545 30.3933 48.5545C31.0471 48.5545 31.6741 48.2947 32.1364 47.8325C32.5987 47.3702 32.8584 46.7431 32.8584 46.0894C32.8584 45.4356 32.5987 44.8086 32.1364 44.3463C31.6741 43.884 31.0471 43.6243 30.3933 43.6243C29.7395 43.6243 29.1125 43.884 28.6502 44.3463C28.1879 44.8086 27.9282 45.4356 27.9282 46.0894Z" fill="white"/>
<path d="M30.3932 48.9382C29.8299 48.9383 29.2792 48.7714 28.8107 48.4586C28.3422 48.1458 27.977 47.7012 27.7612 47.1808C27.5454 46.6605 27.4888 46.0878 27.5984 45.5353C27.7081 44.9828 27.9791 44.4751 28.3772 44.0766C28.7753 43.6781 29.2826 43.4065 29.835 43.2963C30.3874 43.1861 30.9601 43.2421 31.4807 43.4573C32.0013 43.6725 32.4464 44.0373 32.7597 44.5054C33.073 44.9735 33.2404 45.5241 33.2409 46.0874C33.2407 46.8429 32.9407 47.5674 32.4068 48.1019C31.8729 48.6364 31.1487 48.9371 30.3932 48.9382ZM30.3932 44.008C29.9813 44.0078 29.5787 44.1298 29.2362 44.3586C28.8937 44.5873 28.6268 44.9125 28.4692 45.293C28.3115 45.6736 28.2703 46.0923 28.3508 46.4962C28.4312 46.9001 28.6296 47.2711 28.921 47.5622C29.2123 47.8533 29.5834 48.0515 29.9874 48.1316C30.3914 48.2118 30.8101 48.1703 31.1905 48.0124C31.5709 47.8545 31.8959 47.5873 32.1244 47.2446C32.3529 46.902 32.4746 46.4992 32.4741 46.0874C32.4729 45.536 32.2532 45.0076 31.8632 44.6178C31.4732 44.2281 30.9446 44.0088 30.3932 44.008Z" fill="#4B1010"/>
<path d="M27.8335 54.1172C27.8335 54.771 28.0932 55.398 28.5555 55.8603C29.0178 56.3226 29.6448 56.5823 30.2986 56.5823C30.9524 56.5823 31.5794 56.3226 32.0417 55.8603C32.504 55.398 32.7637 54.771 32.7637 54.1172C32.7637 53.4634 32.504 52.8364 32.0417 52.3741C31.5794 51.9118 30.9524 51.6521 30.2986 51.6521C29.6448 51.6521 29.0178 51.9118 28.5555 52.3741C28.0932 52.8364 27.8335 53.4634 27.8335 54.1172Z" fill="white"/>
<path d="M30.2989 56.9655C29.7355 56.9657 29.1847 56.7987 28.7162 56.4858C28.2477 56.1729 27.8825 55.7281 27.6668 55.2076C27.451 54.6871 27.3945 54.1144 27.5043 53.5618C27.6142 53.0092 27.8854 52.5016 28.2837 52.1031C28.6821 51.7047 29.1896 51.4333 29.7422 51.3233C30.2948 51.2134 30.8675 51.2697 31.3881 51.4853C31.9086 51.7009 32.3535 52.066 32.6665 52.5344C32.9796 53.0029 33.1467 53.5536 33.1467 54.117C33.1458 54.8721 32.8456 55.596 32.3117 56.13C31.7779 56.664 31.054 56.9645 30.2989 56.9655ZM30.2989 52.0361C29.8872 52.0359 29.4846 52.1579 29.1421 52.3866C28.7997 52.6153 28.5327 52.9404 28.3751 53.3208C28.2174 53.7012 28.1761 54.1198 28.2564 54.5237C28.3367 54.9276 28.535 55.2986 28.8262 55.5898C29.1174 55.881 29.4884 56.0793 29.8922 56.1596C30.2961 56.2399 30.7148 56.1986 31.0952 56.0409C31.4756 55.8833 31.8007 55.6163 32.0294 55.2739C32.2581 54.9314 32.3801 54.5288 32.3799 54.117C32.3791 53.5654 32.1596 53.0365 31.7695 52.6465C31.3794 52.2564 30.8506 52.0369 30.2989 52.0361Z" fill="#4B1010"/>
<path d="M28.0825 62.7349C28.0825 63.3887 28.3422 64.0157 28.8045 64.478C29.2668 64.9403 29.8938 65.2 30.5476 65.2C31.2014 65.2 31.8284 64.9403 32.2907 64.478C32.753 64.0157 33.0127 63.3887 33.0127 62.7349C33.0127 62.0811 32.753 61.4541 32.2907 60.9918C31.8284 60.5295 31.2014 60.2698 30.5476 60.2698C29.8938 60.2698 29.2668 60.5295 28.8045 60.9918C28.3422 61.4541 28.0825 62.0811 28.0825 62.7349Z" fill="white"/>
<path d="M30.5475 65.5837C29.9841 65.5838 29.4333 65.4169 28.9647 65.104C28.4962 64.7911 28.131 64.3463 27.9153 63.8258C27.6996 63.3053 27.6431 62.7326 27.7529 62.18C27.8627 61.6274 28.1339 61.1197 28.5323 60.7213C28.9306 60.3228 29.4382 60.0515 29.9907 59.9415C30.5433 59.8315 31.1161 59.8879 31.6366 60.1035C32.1571 60.319 32.6021 60.6841 32.9151 61.1526C33.2281 61.621 33.3952 62.1718 33.3952 62.7352C33.3944 63.4903 33.0941 64.2142 32.5603 64.7482C32.0264 65.2822 31.3026 65.5826 30.5475 65.5837ZM30.5475 60.6535C30.1357 60.6533 29.7332 60.7753 29.3907 61.0039C29.0483 61.2326 28.7814 61.5576 28.6237 61.938C28.466 62.3184 28.4247 62.737 28.5049 63.1408C28.5851 63.5447 28.7833 63.9157 29.0744 64.2069C29.3655 64.4981 29.7365 64.6965 30.1403 64.7769C30.5441 64.8572 30.9627 64.8161 31.3432 64.6585C31.7236 64.501 32.0488 64.2342 32.2776 63.8918C32.5063 63.5495 32.6284 63.147 32.6284 62.7352C32.6272 62.1838 32.4075 61.6554 32.0175 61.2656C31.6275 60.8759 31.0989 60.6566 30.5475 60.6558V60.6535Z" fill="#4B1010"/>
<path d="M19.4722 70.729C19.4722 71.3828 19.7319 72.0098 20.1942 72.4721C20.6565 72.9344 21.2835 73.1941 21.9373 73.1941C22.5911 73.1941 23.2181 72.9344 23.6804 72.4721C24.1426 72.0098 24.4024 71.3828 24.4024 70.729C24.4024 70.0752 24.1426 69.4482 23.6804 68.9859C23.2181 68.5236 22.5911 68.2639 21.9373 68.2639C21.2835 68.2639 20.6565 68.5236 20.1942 68.9859C19.7319 69.4482 19.4722 70.0752 19.4722 70.729Z" fill="white"/>
<path d="M21.9373 73.5766C21.3739 73.5766 20.8232 73.4095 20.3547 73.0965C19.8863 72.7835 19.5212 72.3385 19.3056 71.818C19.0901 71.2975 19.0337 70.7247 19.1437 70.1721C19.2536 69.6195 19.525 69.112 19.9234 68.7137C20.3219 68.3153 20.8295 68.0441 21.3821 67.9343C21.9347 67.8245 22.5075 67.881 23.0279 68.0967C23.5484 68.3124 23.9932 68.6776 24.3061 69.1461C24.619 69.6147 24.786 70.1655 24.7858 70.7289C24.785 71.484 24.4846 72.208 23.9506 72.7419C23.4165 73.2758 22.6925 73.576 21.9373 73.5766ZM21.9373 68.6472C21.5256 68.6472 21.1231 68.7692 20.7808 68.998C20.4385 69.2267 20.1716 69.5519 20.0141 69.9322C19.8565 70.3126 19.8153 70.7312 19.8956 71.135C19.9759 71.5388 20.1742 71.9097 20.4653 72.2009C20.7565 72.492 21.1274 72.6903 21.5312 72.7706C21.935 72.8509 22.3536 72.8097 22.734 72.6521C23.1144 72.4946 23.4395 72.2278 23.6682 71.8854C23.897 71.5431 24.0191 71.1406 24.0191 70.7289C24.0187 70.1769 23.7992 69.6476 23.4089 69.2573C23.0186 68.867 22.4893 68.6476 21.9373 68.6472Z" fill="#4B1010"/>
<path d="M28.2104 79.2178C28.2104 79.8716 28.4702 80.4986 28.9325 80.9609C29.3948 81.4232 30.0218 81.6829 30.6755 81.6829C31.3293 81.6829 31.9563 81.4232 32.4186 80.9609C32.8809 80.4986 33.1406 79.8716 33.1406 79.2178C33.1406 78.564 32.8809 77.937 32.4186 77.4747C31.9563 77.0124 31.3293 76.7527 30.6755 76.7527C30.0218 76.7527 29.3948 77.0124 28.9325 77.4747C28.4702 77.937 28.2104 78.564 28.2104 79.2178Z" fill="white"/>
<path d="M30.6759 82.0663C30.1125 82.0665 29.5617 81.8996 29.0932 81.5867C28.6246 81.2737 28.2594 80.8289 28.0437 80.3085C27.828 79.788 27.7715 79.2152 27.8813 78.6626C27.9911 78.11 28.2624 77.6024 28.6607 77.204C29.059 76.8055 29.5666 76.5341 30.1191 76.4242C30.6717 76.3142 31.2445 76.3706 31.765 76.5861C32.2856 76.8017 32.7305 77.1668 33.0435 77.6353C33.3565 78.1037 33.5236 78.6545 33.5236 79.2179C33.523 79.973 33.2228 80.6971 32.6889 81.2311C32.155 81.7651 31.431 82.0655 30.6759 82.0663ZM30.6759 77.1361C30.2641 77.136 29.8616 77.2579 29.5191 77.4866C29.1767 77.7152 28.9098 78.0403 28.7521 78.4207C28.5944 78.8011 28.5531 79.2196 28.6333 79.6235C28.7136 80.0274 28.9118 80.3984 29.2029 80.6896C29.494 80.9808 29.8649 81.1791 30.2687 81.2595C30.6726 81.3399 31.0912 81.2987 31.4716 81.1412C31.852 80.9837 32.1772 80.7168 32.406 80.3745C32.6347 80.0321 32.7569 79.6296 32.7569 79.2179C32.7565 78.666 32.5371 78.1369 32.147 77.7466C31.7568 77.3563 31.2277 77.1367 30.6759 77.1361Z" fill="#4B1010"/>
<path d="M61.7148 37.9851C61.7148 38.3088 61.7786 38.6294 61.9025 38.9285C62.0264 39.2275 62.2079 39.4993 62.4369 39.7282C62.6658 39.9571 62.9375 40.1387 63.2366 40.2626C63.5357 40.3865 63.8562 40.4502 64.1799 40.4502C64.5037 40.4502 64.8242 40.3865 65.1233 40.2626C65.4224 40.1387 65.6941 39.9571 65.923 39.7282C66.1519 39.4993 66.3335 39.2275 66.4574 38.9285C66.5813 38.6294 66.645 38.3088 66.645 37.9851C66.645 37.3313 66.3853 36.7043 65.923 36.242C65.4607 35.7797 64.8337 35.52 64.1799 35.52C63.5262 35.52 62.8991 35.7797 62.4369 36.242C61.9746 36.7043 61.7148 37.3313 61.7148 37.9851Z" fill="white"/>
<path d="M64.1804 40.8331C63.6172 40.833 63.0667 40.6658 62.5985 40.3528C62.1303 40.0398 61.7655 39.595 61.55 39.0746C61.3346 38.5543 61.2783 37.9817 61.3883 37.4294C61.4983 36.877 61.7696 36.3697 62.1678 35.9715C62.5661 35.5733 63.0735 35.3022 63.6259 35.1924C64.1783 35.0825 64.7508 35.139 65.2711 35.3545C65.7915 35.5701 66.2362 35.9351 66.549 36.4034C66.8619 36.8717 67.0289 37.4222 67.0289 37.9854C67.0281 38.7405 66.7277 39.4645 66.1937 39.9984C65.6596 40.5323 64.9356 40.8325 64.1804 40.8331ZM64.1804 35.9044C63.7689 35.9046 63.3666 36.0268 63.0245 36.2555C62.6824 36.4843 62.4158 36.8093 62.2584 37.1896C62.101 37.5698 62.0599 37.9882 62.1403 38.3918C62.2207 38.7955 62.419 39.1662 62.71 39.4571C63.0011 39.7481 63.3719 39.9462 63.7755 40.0264C64.1792 40.1067 64.5975 40.0654 64.9777 39.9079C65.3579 39.7504 65.6829 39.4836 65.9115 39.1414C66.1401 38.7992 66.2622 38.3969 66.2622 37.9854C66.2615 37.4336 66.042 36.9045 65.6517 36.5143C65.2614 36.1242 64.7323 35.9049 64.1804 35.9044Z" fill="#4B1010"/>
<path d="M61.7158 45.9192C61.7158 46.2429 61.7796 46.5635 61.9035 46.8625C62.0273 47.1616 62.2089 47.4334 62.4378 47.6623C62.6667 47.8912 62.9385 48.0728 63.2376 48.1967C63.5366 48.3205 63.8572 48.3843 64.1809 48.3843C64.5046 48.3843 64.8252 48.3205 65.1243 48.1967C65.4233 48.0728 65.6951 47.8912 65.924 47.6623C66.1529 47.4334 66.3345 47.1616 66.4584 46.8625C66.5823 46.5635 66.646 46.2429 66.646 45.9192C66.646 45.2654 66.3863 44.6384 65.924 44.1761C65.4617 43.7138 64.8347 43.4541 64.1809 43.4541C63.5271 43.4541 62.9001 43.7138 62.4378 44.1761C61.9755 44.6384 61.7158 45.2654 61.7158 45.9192Z" fill="white"/>
<path d="M64.181 48.7668C63.6176 48.7668 63.0668 48.5997 62.5984 48.2867C62.1299 47.9736 61.7648 47.5287 61.5493 47.0082C61.3337 46.4876 61.2773 45.9149 61.3873 45.3623C61.4973 44.8097 61.7686 44.3022 62.1671 43.9039C62.5655 43.5055 63.0732 43.2343 63.6258 43.1245C64.1784 43.0146 64.7511 43.0712 65.2716 43.2869C65.7921 43.5026 66.2369 43.8678 66.5498 44.3363C66.8627 44.8049 67.0296 45.3557 67.0295 45.9191C67.0287 46.6742 66.7283 47.3982 66.1942 47.9321C65.6602 48.466 64.9361 48.7662 64.181 48.7668ZM64.181 43.8373C63.7693 43.8373 63.3668 43.9594 63.0244 44.1882C62.6821 44.4169 62.4153 44.742 62.2577 45.1224C62.1002 45.5028 62.0589 45.9214 62.1393 46.3252C62.2196 46.729 62.4179 47.0999 62.709 47.3911C63.0001 47.6822 63.3711 47.8805 63.7749 47.9608C64.1787 48.0411 64.5972 47.9999 64.9776 47.8423C65.358 47.6848 65.6831 47.4179 65.9119 47.0756C66.1406 46.7333 66.2627 46.3308 66.2627 45.9191C66.2621 45.3671 66.0426 44.838 65.6523 44.4477C65.2621 44.0575 64.7329 43.838 64.181 43.8373Z" fill="#4B1010"/>
<path d="M69.9307 54.5027C69.9307 54.8264 69.9944 55.147 70.1183 55.446C70.2422 55.7451 70.4238 56.0169 70.6527 56.2458C70.8816 56.4747 71.1533 56.6563 71.4524 56.7801C71.7515 56.904 72.072 56.9678 72.3958 56.9678C72.7195 56.9678 73.04 56.904 73.3391 56.7801C73.6382 56.6563 73.9099 56.4747 74.1389 56.2458C74.3678 56.0169 74.5493 55.7451 74.6732 55.446C74.7971 55.147 74.8609 54.8264 74.8609 54.5027C74.8609 53.8489 74.6011 53.2219 74.1389 52.7596C73.6766 52.2973 73.0495 52.0376 72.3958 52.0376C71.742 52.0376 71.115 52.2973 70.6527 52.7596C70.1904 53.2219 69.9307 53.8489 69.9307 54.5027Z" fill="white"/>
<path d="M72.3958 57.3503C71.8324 57.3503 71.2817 57.1832 70.8132 56.8702C70.3448 56.5571 69.9797 56.1122 69.7641 55.5917C69.5485 55.0711 69.4922 54.4984 69.6022 53.9458C69.7121 53.3932 69.9835 52.8857 70.3819 52.4873C70.7804 52.089 71.288 51.8178 71.8406 51.708C72.3932 51.5981 72.966 51.6547 73.4864 51.8704C74.0069 52.0861 74.4517 52.4513 74.7646 52.9198C75.0775 53.3884 75.2445 53.9392 75.2443 54.5026C75.2435 55.2577 74.9431 55.9817 74.4091 56.5156C73.875 57.0495 73.151 57.3497 72.3958 57.3503ZM72.3958 52.4208C71.9841 52.4208 71.5816 52.5429 71.2393 52.7717C70.897 53.0004 70.6301 53.3255 70.4726 53.7059C70.315 54.0863 70.2738 54.5049 70.3541 54.9087C70.4344 55.3125 70.6327 55.6834 70.9238 55.9746C71.215 56.2657 71.5859 56.464 71.9897 56.5443C72.3935 56.6246 72.8121 56.5834 73.1925 56.4258C73.5729 56.2683 73.898 56.0014 74.1267 55.6591C74.3555 55.3168 74.4776 54.9143 74.4776 54.5026C74.477 53.9506 74.2574 53.4215 73.8672 53.0312C73.4769 52.641 72.9478 52.4214 72.3958 52.4208Z" fill="#4B1010"/>
<path d="M61.6221 70.7456C61.6221 71.3994 61.8818 72.0264 62.3441 72.4887C62.8064 72.951 63.4334 73.2107 64.0872 73.2107C64.7409 73.2107 65.368 72.951 65.8303 72.4887C66.2926 72.0264 66.5523 71.3994 66.5523 70.7456C66.5523 70.0918 66.2926 69.4648 65.8303 69.0025C65.368 68.5402 64.7409 68.2805 64.0872 68.2805C63.4334 68.2805 62.8064 68.5402 62.3441 69.0025C61.8818 69.4648 61.6221 70.0918 61.6221 70.7456Z" fill="white"/>
<path d="M64.0875 73.5939C63.5241 73.5941 62.9733 73.4271 62.5048 73.1142C62.0363 72.8013 61.671 72.3565 61.4553 71.836C61.2396 71.3156 61.1831 70.7428 61.2929 70.1902C61.4027 69.6376 61.674 69.13 62.0723 68.7315C62.4706 68.3331 62.9782 68.0617 63.5308 67.9518C64.0833 67.8418 64.6561 67.8982 65.1766 68.1137C65.6972 68.3293 66.1421 68.6944 66.4551 69.1628C66.7681 69.6313 66.9352 70.182 66.9352 70.7454C66.9344 71.5005 66.6342 72.2245 66.1003 72.7585C65.5665 73.2925 64.8426 73.5929 64.0875 73.5939ZM64.0875 68.6645C63.6757 68.6643 63.2731 68.7863 62.9307 69.015C62.5882 69.2437 62.3213 69.5688 62.1636 69.9492C62.006 70.3296 61.9647 70.7483 62.045 71.1522C62.1253 71.556 62.3236 71.927 62.6148 72.2182C62.9059 72.5094 63.2769 72.7077 63.6808 72.788C64.0847 72.8683 64.5033 72.827 64.8838 72.6693C65.2642 72.5117 65.5893 72.2447 65.818 71.9023C66.0466 71.5598 66.1686 71.1572 66.1685 70.7454C66.1679 70.1937 65.9484 69.6648 65.5583 69.2747C65.1682 68.8845 64.6392 68.6651 64.0875 68.6645Z" fill="#4B1010"/>
<path d="M61.6221 79.2349C61.6221 79.8887 61.8818 80.5157 62.3441 80.978C62.8064 81.4403 63.4334 81.7 64.0872 81.7C64.7409 81.7 65.368 81.4403 65.8303 80.978C66.2926 80.5157 66.5523 79.8887 66.5523 79.2349C66.5523 78.5811 66.2926 77.9541 65.8303 77.4918C65.368 77.0295 64.7409 76.7698 64.0872 76.7698C63.4334 76.7698 62.8064 77.0295 62.3441 77.4918C61.8818 77.9541 61.6221 78.5811 61.6221 79.2349Z" fill="white"/>
<path d="M64.0875 82.0832C63.5241 82.0833 62.9733 81.9164 62.5048 81.6035C62.0363 81.2906 61.671 80.8458 61.4553 80.3253C61.2396 79.8048 61.1831 79.2321 61.2929 78.6795C61.4027 78.1269 61.674 77.6192 62.0723 77.2208C62.4706 76.8224 62.9782 76.551 63.5308 76.441C64.0833 76.331 64.6561 76.3874 65.1766 76.603C65.6972 76.8186 66.1421 77.1836 66.4551 77.6521C66.7681 78.1205 66.9352 78.6713 66.9352 79.2347C66.9344 79.9898 66.6342 80.7137 66.1003 81.2477C65.5665 81.7817 64.8426 82.0822 64.0875 82.0832ZM64.0875 77.1537C63.6757 77.1536 63.2731 77.2756 62.9307 77.5043C62.5882 77.7329 62.3213 78.0581 62.1636 78.4385C62.006 78.8189 61.9647 79.2375 62.045 79.6414C62.1253 80.0453 62.3236 80.4163 62.6148 80.7075C62.9059 80.9987 63.2769 81.1969 63.6808 81.2772C64.0847 81.3575 64.5033 81.3162 64.8838 81.1586C65.2642 81.0009 65.5893 80.734 65.818 80.3915C66.0466 80.0491 66.1686 79.6465 66.1685 79.2347C66.1677 78.683 65.9482 78.1542 65.5581 77.7641C65.168 77.3741 64.6392 77.1546 64.0875 77.1537Z" fill="#4B1010"/>
<path d="M53.4043 54.4168C53.4043 54.7405 53.4681 55.061 53.5919 55.3601C53.7158 55.6592 53.8974 55.9309 54.1263 56.1598C54.3552 56.3888 54.627 56.5703 54.926 56.6942C55.2251 56.8181 55.5457 56.8819 55.8694 56.8819C56.1931 56.8819 56.5137 56.8181 56.8127 56.6942C57.1118 56.5703 57.3836 56.3888 57.6125 56.1598C57.8414 55.9309 58.023 55.6592 58.1468 55.3601C58.2707 55.061 58.3345 54.7405 58.3345 54.4168C58.3345 53.763 58.0748 53.136 57.6125 52.6737C57.1502 52.2114 56.5232 51.9517 55.8694 51.9517C55.2156 51.9517 54.5886 52.2114 54.1263 52.6737C53.664 53.136 53.4043 53.763 53.4043 54.4168Z" fill="white"/>
<path d="M55.8699 57.2645C55.3067 57.2644 54.7562 57.0972 54.288 56.7842C53.8198 56.4712 53.4549 56.0264 53.2395 55.506C53.0241 54.9857 52.9678 54.4131 53.0778 53.8608C53.1877 53.3084 53.459 52.8011 53.8573 52.4029C54.2556 52.0047 54.763 51.7336 55.3154 51.6238C55.8678 51.5139 56.4403 51.5704 56.9606 51.7859C57.4809 52.0015 57.9256 52.3665 58.2385 52.8348C58.5514 53.3031 58.7184 53.8536 58.7184 54.4168C58.7175 55.1719 58.4172 55.8959 57.8831 56.4298C57.3491 56.9637 56.625 57.2639 55.8699 57.2645ZM55.8699 52.3358C55.4584 52.336 55.0561 52.4582 54.714 52.6869C54.3719 52.9157 54.1053 53.2407 53.9479 53.621C53.7905 54.0012 53.7494 54.4196 53.8298 54.8232C53.9102 55.2269 54.1084 55.5976 54.3995 55.8885C54.6905 56.1795 55.0613 56.3776 55.465 56.4578C55.8686 56.5381 56.287 56.4968 56.6672 56.3393C57.0474 56.1818 57.3723 55.915 57.601 55.5728C57.8296 55.2306 57.9516 54.8283 57.9516 54.4168C57.951 53.8649 57.7315 53.3359 57.3412 52.9457C56.9509 52.5556 56.4217 52.3362 55.8699 52.3358Z" fill="#4B1010"/>
<path d="M46.8504 35.1885C46.2871 35.1885 45.7363 35.3555 45.2679 35.6685C44.7995 35.9815 44.4344 36.4264 44.2188 36.9469C44.0032 37.4674 43.9468 38.0401 44.0567 38.5927C44.1666 39.1452 44.4379 39.6528 44.8363 40.0511C45.2346 40.4495 45.7422 40.7208 46.2947 40.8307C46.8473 40.9406 47.42 40.8842 47.9405 40.6686C48.461 40.453 48.9059 40.0879 49.2188 39.6195C49.5318 39.151 49.6989 38.6003 49.6989 38.0369C49.6981 37.2817 49.3977 36.5577 48.8637 36.0237C48.3297 35.4897 47.6056 35.1893 46.8504 35.1885Z" fill="#4B1010"/>
<path d="M47.2186 26.8792C46.6552 26.8792 46.1044 27.0462 45.636 27.3593C45.1675 27.6723 44.8024 28.1172 44.5869 28.6377C44.3713 29.1583 44.3149 29.731 44.4249 30.2836C44.5349 30.8362 44.8062 31.3437 45.2047 31.7421C45.6031 32.1404 46.1108 32.4116 46.6634 32.5215C47.216 32.6313 47.7887 32.5748 48.3092 32.359C48.8297 32.1433 49.2745 31.7781 49.5874 31.3096C49.9003 30.8411 50.0672 30.2903 50.0671 29.7269C50.066 28.9718 49.7656 28.2479 49.2316 27.7141C48.6976 27.1802 47.9737 26.88 47.2186 26.8792Z" fill="#4B1010"/>
<path d="M47.0387 43.3955C46.4752 43.3954 45.9242 43.5624 45.4556 43.8754C44.987 44.1884 44.6218 44.6334 44.4062 45.1541C44.1906 45.6747 44.1342 46.2477 44.2443 46.8003C44.3544 47.353 44.6259 47.8606 45.0246 48.259C45.4232 48.6573 45.931 48.9284 46.4838 49.038C47.0366 49.1477 47.6095 49.0909 48.1299 48.8748C48.6504 48.6588 49.0951 48.2932 49.4078 47.8244C49.7204 47.3555 49.887 46.8044 49.8864 46.2409C49.8846 45.4864 49.5839 44.7634 49.0502 44.2301C48.5165 43.6968 47.7932 43.3967 47.0387 43.3955Z" fill="#4B1010"/>
<path d="M38.6341 51.7058C38.0707 51.7058 37.52 51.8729 37.0516 52.1859C36.5832 52.4989 36.2181 52.9437 36.0025 53.4642C35.7869 53.9847 35.7305 54.5574 35.8404 55.11C35.9503 55.6625 36.2216 56.1701 36.6199 56.5685C37.0183 56.9668 37.5259 57.2381 38.0784 57.348C38.631 57.4579 39.2037 57.4015 39.7242 57.1859C40.2447 56.9703 40.6895 56.6052 41.0025 56.1368C41.3155 55.6684 41.4826 55.1177 41.4826 54.5543C41.482 53.799 41.1817 53.0748 40.6476 52.5408C40.1136 52.0067 39.3894 51.7064 38.6341 51.7058Z" fill="#4B1010"/>
<path d="M38.8229 59.7358C38.2594 59.7357 37.7086 59.9026 37.2401 60.2156C36.7715 60.5285 36.4063 60.9734 36.1906 61.4939C35.9749 62.0144 35.9184 62.5872 36.0283 63.1398C36.1382 63.6925 36.4095 64.2001 36.8079 64.5985C37.2063 64.9969 37.714 65.2682 38.2666 65.3781C38.8192 65.488 39.392 65.4315 39.9125 65.2158C40.433 65.0001 40.8779 64.6349 41.1908 64.1664C41.5038 63.6978 41.6707 63.147 41.6706 62.5835C41.6698 61.8285 41.3695 61.1047 40.8356 60.5708C40.3017 60.0369 39.5779 59.7367 38.8229 59.7358Z" fill="#4B1010"/>
<path d="M30.4532 67.9746C29.8898 67.9745 29.339 68.1414 28.8705 68.4543C28.402 68.7672 28.0368 69.212 27.8211 69.7325C27.6053 70.253 27.5488 70.8257 27.6586 71.3783C27.7685 71.9309 28.0397 72.4385 28.438 72.837C28.8364 73.2354 29.3439 73.5068 29.8965 73.6168C30.4491 73.7267 31.0218 73.6704 31.5424 73.4548C32.0629 73.2392 32.5078 72.8741 32.8208 72.4057C33.1339 71.9372 33.3009 71.3865 33.3009 70.8231C33.3001 70.068 32.9999 69.3441 32.466 68.8101C31.9322 68.2761 31.2083 67.9756 30.4532 67.9746Z" fill="#4B1010"/>
<path d="M38.7029 76.4646C38.1397 76.4648 37.5892 76.6319 37.121 76.9449C36.6528 77.2579 36.2879 77.7027 36.0725 78.2231C35.8571 78.7434 35.8008 79.316 35.9108 79.8683C36.0207 80.4207 36.292 80.928 36.6903 81.3262C37.0886 81.7244 37.596 81.9955 38.1484 82.1054C38.7008 82.2152 39.2733 82.1587 39.7936 81.9432C40.3139 81.7276 40.7586 81.3626 41.0715 80.8943C41.3844 80.426 41.5514 79.8755 41.5514 79.3123C41.5506 78.5572 41.2502 77.8332 40.7161 77.2993C40.1821 76.7654 39.458 76.4652 38.7029 76.4646Z" fill="#4B1010"/>
<path d="M61.145 54.2291C61.145 54.9843 61.445 55.7086 61.9791 56.2427C62.5131 56.7767 63.2375 57.0768 63.9927 57.0768C64.748 57.0768 65.4723 56.7767 66.0064 56.2427C66.5404 55.7086 66.8404 54.9843 66.8404 54.2291C66.8404 53.4738 66.5404 52.7495 66.0064 52.2154C65.4723 51.6814 64.748 51.3813 63.9927 51.3813C63.2375 51.3813 62.5131 51.6814 61.9791 52.2154C61.445 52.7495 61.145 53.4738 61.145 54.2291Z" fill="#4B1010"/>
<path d="M63.9925 59.5964C63.4291 59.5967 62.8785 59.7641 62.4103 60.0773C61.942 60.3905 61.5772 60.8355 61.3618 61.3561C61.1465 61.8766 61.0903 62.4494 61.2005 63.0018C61.3106 63.5543 61.5821 64.0617 61.9806 64.4599C62.3791 64.8581 62.8868 65.1292 63.4393 65.2389C63.9919 65.3486 64.5645 65.2919 65.0849 65.0762C65.6053 64.8604 66.05 64.4952 66.3629 64.0267C66.6757 63.5582 66.8426 63.0075 66.8425 62.4441C66.8416 61.6887 66.541 60.9645 66.0067 60.4306C65.4723 59.8967 64.7479 59.5966 63.9925 59.5964Z" fill="#4B1010"/>
<path d="M55.87 68.0859C55.3066 68.0859 54.7559 68.253 54.2874 68.566C53.819 68.879 53.4539 69.3239 53.2383 69.8443C53.0227 70.3648 52.9663 70.9376 53.0762 71.4901C53.1861 72.0427 53.4574 72.5502 53.8558 72.9486C54.2542 73.347 54.7617 73.6182 55.3142 73.7282C55.8668 73.8381 56.4395 73.7817 56.96 73.5661C57.4805 73.3505 57.9254 72.9854 58.2384 72.5169C58.5514 72.0485 58.7184 71.4978 58.7184 70.9344C58.7178 70.1791 58.4175 69.455 57.8835 68.9209C57.3494 68.3869 56.6252 68.0865 55.87 68.0859Z" fill="#4B1010"/>
<path d="M55.6906 76.3875C55.1271 76.3873 54.5763 76.5542 54.1077 76.8672C53.6392 77.1801 53.274 77.625 53.0583 78.1455C52.8426 78.666 52.7861 79.2388 52.896 79.7914C53.0059 80.3441 53.2772 80.8517 53.6756 81.2501C54.074 81.6485 54.5816 81.9198 55.1343 82.0297C55.6869 82.1396 56.2597 82.0831 56.7802 81.8674C57.3007 81.6517 57.7456 81.2865 58.0585 80.818C58.3715 80.3494 58.5384 79.7986 58.5383 79.2352C58.5374 78.4801 58.2372 77.7563 57.7033 77.2224C57.1694 76.6885 56.4456 76.3883 55.6906 76.3875Z" fill="#4B1010"/>
<path d="M55.7855 59.7759C55.2221 59.7759 54.6714 59.9429 54.203 60.2559C53.7345 60.5689 53.3694 61.0138 53.1538 61.5343C52.9382 62.0548 52.8818 62.6275 52.9917 63.1801C53.1017 63.7326 53.3729 64.2402 53.7713 64.6385C54.1697 65.0369 54.6772 65.3082 55.2298 65.4181C55.7823 65.528 56.3551 65.4716 56.8755 65.256C57.396 65.0404 57.8409 64.6753 58.1539 64.2069C58.4669 63.7385 58.634 63.1877 58.634 62.6243C58.6331 61.8691 58.3328 61.1451 57.7988 60.6111C57.2647 60.0771 56.5407 59.7767 55.7855 59.7759Z" fill="#4B1010"/>
<path d="M52.8428 37.806C52.8428 38.5612 53.1428 39.2855 53.6768 39.8196C54.2109 40.3536 54.9352 40.6537 55.6905 40.6537C56.4457 40.6537 57.1701 40.3536 57.7041 39.8196C58.2382 39.2855 58.5382 38.5612 58.5382 37.806C58.5382 37.0507 58.2382 36.3264 57.7041 35.7923C57.1701 35.2583 56.4457 34.9583 55.6905 34.9583C54.9352 34.9583 54.2109 35.2583 53.6768 35.7923C53.1428 36.3264 52.8428 37.0507 52.8428 37.806Z" fill="#4B1010"/>
<path d="M99.869 77.3716L99.1582 80.1618C99.1582 80.1618 99.5055 84.4195 102.081 86.6132C104.581 84.7508 104.351 80.5168 104.351 80.5168L103.688 79.7776L103.789 78.159C102.433 78.2953 101.067 78.021 99.869 77.3716Z" fill="white"/>
<path d="M100.35 77.4895C98.2527 76.7879 97.1401 74.8457 96.276 72.9971C95.7654 73.0906 95.1366 73.4571 94.6658 73.336C93.4222 73.0093 92.5381 71.5993 92.2889 70.2506C91.8933 68.1037 93.1799 67.0241 94.8192 68.5124C95.6397 69.2368 96.2613 70.159 96.6249 71.1914C96.3339 69.3966 96.2994 67.5696 96.5221 65.7651C96.5513 64.385 96.963 63.04 97.7114 61.88C97.5327 61.7961 97.386 61.6565 97.2934 61.4822C97.2007 61.3078 97.1671 61.1082 97.1976 60.9131C97.3694 59.8504 98.9075 60.233 99.6198 60.3396C101.754 60.6186 103.848 61.1472 105.859 61.9145C106.734 62.286 107.514 62.8519 108.138 63.5692C108.762 64.2866 109.215 65.1366 109.463 66.0549C112.04 74.9945 105.6 80.1386 100.35 77.4895Z" fill="white"/>
<path d="M60.8523 45.1557C60.7818 45.1557 60.7127 45.1364 60.6525 45.0997C60.5923 45.0631 60.5434 45.0105 60.5111 44.9479L47.6995 20.1213C47.6764 20.0765 47.6623 20.0277 47.6581 19.9775C47.6539 19.9273 47.6596 19.8768 47.6749 19.8288C47.6902 19.7808 47.7148 19.7363 47.7473 19.6978C47.7798 19.6593 47.8196 19.6276 47.8643 19.6045C47.9091 19.5814 47.958 19.5673 48.0082 19.5631C48.0583 19.5589 48.1089 19.5646 48.1569 19.5799C48.2049 19.5952 48.2494 19.6198 48.2878 19.6523C48.3263 19.6848 48.358 19.7246 48.3811 19.7694L61.1927 44.5959C61.223 44.6544 61.2377 44.7196 61.2355 44.7854C61.2332 44.8512 61.2141 44.9153 61.1799 44.9715C61.1457 45.0277 61.0976 45.0742 61.0402 45.1065C60.9828 45.1387 60.9181 45.1557 60.8523 45.1557Z" fill="#4B1010"/>
<path d="M64.3888 45.2685C63.9965 44.1102 63.3538 43.0526 62.5064 42.1708C62.1978 41.8645 61.8231 41.6329 61.4111 41.4937C60.9991 41.3546 60.5607 41.3116 60.1295 41.368C60.0482 41.2495 59.9512 41.1424 59.8412 41.0498C58.6328 40.3598 57.3025 41.7261 57.1116 43.0948C57.0017 43.9039 57.0512 44.7268 57.2573 45.5169C57.3346 46.0784 57.5394 46.6148 57.8561 47.0849C58.5669 47.9744 59.8244 48.0863 60.9024 48.5563C61.1656 47.8192 61.5771 47.1438 62.1116 46.572C62.7784 45.9932 63.552 45.5504 64.3888 45.2685Z" fill="white"/>
<path d="M64.75 45.1456C64.3365 43.9319 63.662 42.8235 62.7741 41.8984C62.4505 41.5751 62.0614 41.3247 61.6331 41.164C61.2048 41.0034 60.7471 40.9361 60.2906 40.9668C60.2118 40.8765 60.1257 40.7928 60.033 40.7168C58.57 39.8811 56.966 41.3946 56.736 43.0432C56.6179 43.8879 56.6671 44.7477 56.8809 45.5734C56.97 46.202 57.2024 46.8018 57.5602 47.3262C58.3592 48.3268 59.6857 48.4441 60.753 48.9103C60.8014 48.9313 60.8536 48.9423 60.9063 48.9425C60.9943 48.9424 61.0796 48.912 61.1478 48.8565C61.2161 48.801 61.2632 48.7236 61.2811 48.6375C61.2991 48.5514 61.2869 48.4617 61.2466 48.3834C61.2063 48.3052 61.1403 48.2433 61.0597 48.208C59.9962 47.7433 58.7717 47.6137 58.1767 46.8723C57.8875 46.437 57.7008 45.9418 57.6308 45.4239C57.437 44.6828 57.3907 43.911 57.4943 43.152C57.5424 42.7997 57.6657 42.4618 57.856 42.1613C58.0462 41.8609 58.2989 41.6049 58.5969 41.4107C58.7708 41.2981 58.9739 41.2387 59.1811 41.2398C57.8278 41.8409 58.2227 43.2732 59.4579 43.4955C59.6218 43.522 59.7873 43.5372 59.9532 43.5408C59.8331 44.0387 59.6123 44.5068 59.3046 44.9163C59.2436 44.9977 59.2174 45.0999 59.2318 45.2006C59.2461 45.3012 59.2999 45.392 59.3813 45.453C59.4626 45.5141 59.5648 45.5402 59.6655 45.5259C59.7661 45.5115 59.857 45.4577 59.918 45.3764C60.1354 45.0865 60.3174 44.7717 60.4601 44.4386C60.541 44.8174 60.689 45.1786 60.8971 45.5052C60.9233 45.5493 60.9582 45.5878 60.9995 45.6182C61.0409 45.6487 61.0879 45.6705 61.1379 45.6824C61.1879 45.6943 61.2397 45.696 61.2903 45.6875C61.341 45.679 61.3894 45.6604 61.4327 45.6328C61.476 45.6052 61.5134 45.5692 61.5425 45.5269C61.5716 45.4846 61.592 45.4369 61.6023 45.3866C61.6126 45.3363 61.6127 45.2844 61.6026 45.234C61.5925 45.1837 61.5724 45.1359 61.5435 45.0934C61.2087 44.5679 61.0844 43.9354 61.1954 43.3223C61.212 43.2304 61.1945 43.1356 61.1463 43.0557C61.098 42.9758 61.0222 42.9163 60.9332 42.8883C60.4918 42.8001 60.0436 42.7506 59.5936 42.7403C59.1206 42.6552 58.9036 42.2595 59.3307 42.0172C59.7926 41.7602 60.326 41.6617 60.8492 41.7369C61.3725 41.8121 61.8566 42.0568 62.2274 42.4336C63.0351 43.2753 63.6481 44.2841 64.0232 45.3886C64.0558 45.485 64.1254 45.5645 64.2166 45.6096C64.3079 45.6547 64.4133 45.6617 64.5097 45.629C64.606 45.5964 64.6855 45.5268 64.7306 45.4355C64.7757 45.3443 64.7827 45.2389 64.75 45.1425V45.1456Z" fill="#4B1010"/>
<path d="M66.2945 45.9625C66.2256 45.8148 66.1299 45.6812 66.0123 45.5683C65.8233 45.4282 65.5965 45.348 65.3614 45.3383C64.804 45.3088 64.2467 45.3969 63.7256 45.5968C63.2046 45.7967 62.7313 46.1039 62.3367 46.4985C61.942 46.8932 61.6348 47.3664 61.4349 47.8875C61.235 48.4086 61.147 48.9659 61.1765 49.5232C61.3471 50.5317 61.7166 51.4961 62.2637 52.3602C64.6176 56.5773 66.9923 59.9257 69.2956 64.3215L73.6124 58.8676C71.2899 54.4044 68.7075 50.3429 66.2945 45.9625Z" fill="#FFE55D"/>
<path d="M69.2964 64.7086C69.2265 64.7086 69.1578 64.6895 69.0979 64.6532C69.0381 64.617 68.9892 64.5651 68.9568 64.5031C66.6565 60.1181 64.2903 56.7781 61.9303 52.5503C61.3594 51.6475 60.9751 50.6396 60.8001 49.586C60.7615 48.9716 60.8533 48.356 61.0695 47.7797C61.2857 47.2033 61.6213 46.6792 62.0544 46.2417C62.4875 45.8043 63.0083 45.4634 63.5825 45.2415C64.1567 45.0195 64.7713 44.9216 65.386 44.9541C65.6547 44.9595 65.9161 45.0419 66.1394 45.1914C66.3626 45.3408 66.5384 45.5512 66.6458 45.7975C69.038 50.1373 71.6404 54.2317 73.9567 58.6934C74.0036 58.7837 74.0127 58.8889 73.982 58.9859C73.9513 59.0829 73.8833 59.1637 73.793 59.2106C73.7027 59.2575 73.5975 59.2666 73.5005 59.2359C73.4036 59.2052 73.3227 59.1372 73.2759 59.0469C70.9656 54.5998 68.3733 50.5214 65.9626 46.1448C65.9114 46.0321 65.8396 45.9299 65.751 45.8435C65.6307 45.7666 65.4919 45.7234 65.3492 45.7185C64.8456 45.6924 64.342 45.7724 63.8712 45.9531C63.4004 46.1339 62.9727 46.4115 62.6159 46.7679C62.2591 47.1244 61.9811 47.5517 61.7999 48.0224C61.6186 48.493 61.5382 48.9964 61.5638 49.5001C61.7277 50.4449 62.0772 51.3479 62.592 52.1569C64.9689 56.4085 67.3236 59.7255 69.6384 64.1458C69.6695 64.2045 69.6848 64.2702 69.6828 64.3365C69.6809 64.4029 69.6617 64.4676 69.6272 64.5243C69.5928 64.581 69.5442 64.6278 69.4862 64.6602C69.4282 64.6925 69.3628 64.7091 69.2964 64.7086Z" fill="#4B1010"/>
<path d="M129.915 97.507C123.087 94.5489 121.711 88.1166 113.065 82.2656C110.498 80.6393 107.613 80.1432 104.96 78.7738C104.377 78.4947 104.129 78.7163 104.224 79.3105C104.562 81.7007 104.024 84.1323 102.709 86.1568C102.494 86.317 102.224 86.3862 101.959 86.3493C101.693 86.3124 101.452 86.1725 101.289 85.9597C100.179 83.9365 99.4067 81.7453 99.0032 79.4731C98.9823 79.2565 98.9244 79.0452 98.8322 78.8482C98.7056 78.6533 98.5395 78.4871 98.3446 78.3605C96.9352 77.3141 95.3499 76.5286 93.6636 76.0411C93.5342 75.9855 93.3932 75.9626 93.2529 75.9745C93.1126 75.9864 92.9774 76.0327 92.8593 76.1093C85.3119 70.8149 78.7634 64.2239 73.518 56.6423C71.9257 57.9121 70.6007 59.4847 69.6195 61.2694C68.6382 63.0541 68.0202 65.0154 67.8012 67.0402C67.7518 67.3985 67.7721 67.763 67.861 68.1137C67.9947 68.4583 68.1921 68.7746 68.4429 69.046C74.1767 75.9782 77.2237 78.9478 84.754 83.8512C85.3225 84.1539 85.801 84.6014 86.141 85.1485C83.7863 93.6464 81.6356 102.849 81.1571 111.665C84.9564 115.739 89.7892 117.022 95.1066 117.87C98.4336 118.43 101.819 118.563 105.179 118.264C108.557 117.909 111.697 116.361 114.037 113.899C114.46 113.453 114.784 112.922 114.987 112.341C115.229 111.333 115.153 111.782 114.61 99.6838C117.106 102.91 120.161 105.661 123.63 107.806C122.016 104.32 126.004 98.697 129.915 97.507Z" fill="white"/>
<path d="M144.721 98.2596C144.836 98.1187 144.907 97.9469 144.924 97.7658C144.941 97.5847 144.905 97.4025 144.819 97.2423C144.733 97.082 144.601 96.9509 144.44 96.8654C144.28 96.78 144.098 96.744 143.917 96.7621C143.761 96.7711 143.611 96.8237 143.484 96.914C143.356 97.0042 143.257 97.1285 143.197 97.2725C143.138 97.4165 143.119 97.5745 143.145 97.7283C143.171 97.8822 143.24 98.0256 143.343 98.1423C143.695 98.5763 144.361 98.8538 144.721 98.2596Z" fill="#FFB43B"/>
<path d="M143.091 97.6956C142.216 96.4688 142.331 94.065 142.928 92.5852C140.238 94.1371 136.822 95.1599 134.05 96.2403C132.857 96.7901 131.634 97.2731 130.387 97.6872C127.627 98.2591 124.689 100.754 123.486 104.277C122.831 106.27 125.185 106.688 127.235 106.048C130.744 105.167 143.573 98.3113 144.112 98.7054C143.716 98.4297 143.371 98.0882 143.091 97.6956Z" fill="#FFE55D"/>
<path d="M143.369 97.6696C144.483 97.0753 144.549 96.968 145.261 97.0025C145.705 97.0255 146.145 96.9103 146.52 96.6727C146.895 96.4351 147.188 96.0869 147.357 95.676C147.761 94.6654 147.548 93.3466 148.881 92.4319C149.32 92.1306 150.456 92.2433 150.337 91.4911C150.218 90.1217 148.455 90.4215 147.654 90.8662C147.952 90.4436 148.356 90.1072 148.826 89.8909C149.06 89.8228 149.274 89.6994 149.45 89.5313C149.508 89.4298 149.544 89.3176 149.556 89.2017C149.569 89.0858 149.558 88.9685 149.523 88.8571C149.489 88.7457 149.432 88.6425 149.356 88.5538C149.281 88.4651 149.188 88.3928 149.083 88.3413C148.858 88.2571 148.618 88.2198 148.378 88.2317C148.138 88.2436 147.903 88.3043 147.688 88.4103C146.885 88.7325 146.199 89.2904 145.719 90.0105C145.722 89.7073 145.79 89.4082 145.918 89.1335C146.047 88.8589 146.233 88.6151 146.464 88.4187C146.755 88.2048 147.114 87.8705 147.046 87.563C146.978 87.2556 146.524 87.1689 146.19 87.2563C145.7 87.4358 145.254 87.7191 144.884 88.0869C144.513 88.4546 144.226 88.8982 144.043 89.3871C143.503 90.5057 143.181 91.7166 143.093 92.9556C142.363 94.361 141.985 96.0126 143.369 97.6696Z" fill="white"/>
<path d="M150.717 91.4574C150.697 91.0921 150.537 90.7484 150.27 90.4983C150.003 90.2481 149.65 90.1107 149.284 90.1148C149.5 90.0137 149.683 89.8544 149.813 89.6548C149.886 89.506 149.929 89.3439 149.938 89.1783C149.948 89.0127 149.924 88.8468 149.868 88.6907C149.811 88.5346 149.724 88.3914 149.612 88.2696C149.499 88.1478 149.363 88.0499 149.212 87.9817C148.943 87.8803 148.656 87.8344 148.368 87.8468C148.081 87.8591 147.799 87.9296 147.54 88.0538C147.437 88.0937 147.339 88.1374 147.243 88.1849C147.791 87.3944 147.076 86.6254 146.053 86.8937C145.515 87.0886 145.026 87.3971 144.619 87.7982C144.211 88.1992 143.895 88.6834 143.691 89.2177C143.258 90.1147 142.959 91.0706 142.804 92.0547C138.7 93.9989 134.504 95.7415 130.23 97.2763C130.189 97.2243 130.137 97.1834 130.076 97.1574C126.673 95.6853 124.703 93.3405 122.422 90.6263C118.884 86.4145 114.43 81.6269 109.149 79.9876C108.322 79.7455 107.485 79.538 106.641 79.3658C106.254 79.0369 105.798 78.8006 105.306 78.675C104.814 78.5495 104.3 78.5379 103.804 78.6412C103.71 78.6705 103.631 78.7346 103.584 78.8201C103.536 78.9057 103.523 79.0063 103.547 79.1013C104.011 80.9016 103.445 84.6686 102.21 86.2366C101.153 85.0251 100.379 83.5935 99.9438 82.0456C99.8206 81.5651 99.7413 81.0744 99.7068 80.5795C99.5297 78.7148 99.4001 77.922 96.4865 76.4521C95.2902 76.0269 94.0548 75.7208 92.7984 75.5382C85.417 70.3135 78.9997 63.8459 73.8329 56.4239C73.8032 56.381 73.7651 56.3447 73.7209 56.3171C73.6767 56.2894 73.6273 56.2711 73.5758 56.2632C73.5242 56.2553 73.4717 56.258 73.4212 56.2711C73.3708 56.2843 73.3235 56.3075 73.2824 56.3395C71.6543 57.642 70.2987 59.2524 69.2932 61.0789C68.2877 62.9054 67.6519 64.9121 67.4221 66.9843C67.3576 67.3978 67.3895 67.8205 67.5155 68.2196C67.6415 68.6186 67.858 68.9831 68.1482 69.2846C73.9211 76.2551 76.9359 79.2178 84.5474 84.1679C85.0123 84.4284 85.4199 84.78 85.7459 85.2015C83.7101 92.5309 81.3148 102.147 80.8034 111.638C80.8007 111.69 80.8083 111.741 80.826 111.79C80.8437 111.838 80.8709 111.883 80.9061 111.92C82.3806 113.503 84.1327 114.803 86.0756 115.754C82.1067 122.164 79.7027 129.419 79.0583 136.93C79.0533 136.99 79.0625 137.051 79.0852 137.107C79.108 137.163 79.1436 137.212 79.1892 137.252C79.2347 137.291 79.289 137.32 79.3475 137.334C79.406 137.349 79.4672 137.349 79.526 137.336C80.0982 138.008 80.823 138.534 81.6399 138.869C82.7999 139.534 84.0102 140.106 85.2597 140.581C90.4192 142.171 94.0896 141.194 99.5688 140.718C101.267 140.668 102.958 140.959 104.541 141.574C107.5 142.4 110.635 142.356 113.57 141.446C114.726 141.181 118.136 140.396 118.707 138.833H118.729C118.785 138.833 118.84 138.822 118.891 138.799C118.942 138.776 118.987 138.742 119.023 138.7C119.06 138.658 119.087 138.609 119.102 138.555C119.118 138.501 119.121 138.445 119.112 138.39C117.809 129.991 116.995 122.897 112.45 115.811C113.12 115.312 113.746 114.756 114.322 114.151C114.791 113.656 115.147 113.065 115.366 112.42C115.514 111.808 115.558 111.177 115.496 110.551C115.36 107.32 115.219 104.076 115.072 100.819C117.386 103.605 120.125 106.007 123.19 107.936C123.731 108.903 125.572 108.44 126.464 107.715C126.948 107.32 127.364 106.848 127.695 106.318C131.364 105.213 142.793 99.2207 144.04 99.0666C144.27 99.1027 144.506 99.0679 144.716 98.967C144.926 98.8661 145.101 98.7038 145.216 98.5015C145.393 98.1552 145.472 97.7676 145.446 97.3798C145.938 97.3647 146.414 97.2076 146.817 96.9274C147.221 96.6471 147.534 96.2559 147.72 95.801C148.11 94.8227 147.93 93.543 149.093 92.7456C149.378 92.55 150.32 92.5884 150.627 91.9788C150.709 91.8183 150.741 91.6364 150.717 91.4574ZM147.851 88.7539C148.181 88.5921 148.561 88.5676 148.908 88.6856C149.018 88.7388 149.103 88.8325 149.144 88.947C149.186 89.0615 149.182 89.1877 149.132 89.299C148.993 89.4125 148.833 89.4961 148.66 89.5444C148.161 89.7749 147.727 90.1249 147.396 90.5634C147.424 90.3258 147.361 90.0866 147.22 89.893C147.08 89.6994 146.872 89.5655 146.638 89.5175C146.993 89.192 147.404 88.9333 147.851 88.7539ZM122.969 106.891C119.936 104.887 117.249 102.403 115.013 99.5366C114.826 95.3962 114.63 91.2558 114.435 87.1445C114.434 87.0939 114.422 87.0441 114.401 86.9982C114.38 86.9522 114.35 86.911 114.312 86.877C114.275 86.843 114.231 86.8169 114.183 86.8002C114.135 86.7836 114.085 86.7768 114.034 86.7802C113.984 86.7826 113.935 86.7948 113.889 86.8163C113.844 86.8377 113.803 86.8679 113.769 86.9052C113.735 86.9424 113.709 86.9859 113.692 87.0333C113.675 87.0807 113.667 87.131 113.669 87.1813C113.799 89.871 114.513 105.439 114.732 110.616C114.787 111.151 114.753 111.691 114.632 112.214C114.447 112.743 114.152 113.227 113.766 113.634C111.49 116.029 108.435 117.535 105.149 117.881C101.827 118.175 98.481 118.043 95.1922 117.489C90.4384 116.733 85.4806 115.625 81.5809 111.522C82.0923 102.423 84.3412 93.2025 86.3148 86.0373C86.3706 86.0406 86.4264 86.0312 86.478 86.01C86.5297 85.9888 86.5759 85.9562 86.6133 85.9146C86.6506 85.8731 86.6781 85.8237 86.6938 85.77C86.7094 85.7164 86.7127 85.6599 86.7035 85.6048C86.582 85.1536 86.3637 84.7342 86.0638 84.3757C85.7639 84.0173 85.3896 83.7285 84.9668 83.5292C77.4381 78.6328 74.4547 75.7007 68.7248 68.7839C68.5029 68.5647 68.3377 68.295 68.2432 67.9978C68.1488 67.7006 68.128 67.3849 68.1827 67.0779C68.6042 63.233 70.485 59.6965 73.4372 57.1975C78.6197 64.5604 85.0253 70.9809 92.3759 76.1807C92.5286 76.9559 92.8242 77.6959 93.2477 78.3629C95.4797 81.9482 97.8544 85.6301 101.721 86.9903C102.322 87.202 102.274 87.1629 102.778 86.965C104.029 86.4743 107.867 84.8059 108.496 82.6122C108.605 82.239 108.614 81.8436 108.522 81.4658C108.43 81.088 108.239 80.7413 107.97 80.4607C112.521 81.5119 116.272 84.9845 119.373 88.2953C122.63 91.7764 124.727 95.3379 128.945 97.4718C125.637 98.9892 122.356 103.42 122.969 106.891ZM124.418 107.722C123.734 107.775 123.668 106.756 123.662 106.073C124.065 106.378 124.532 106.586 125.028 106.68C125.524 106.774 126.035 106.752 126.522 106.616C126.268 106.938 125.949 107.203 125.586 107.393C125.223 107.583 124.824 107.695 124.415 107.72L124.418 107.722ZM137.209 101.289C130.651 104.425 127.471 105.997 125.262 105.933C124.669 105.869 124.125 105.576 123.746 105.115C124.229 102.354 126.813 99.2598 128.908 98.5268C133.407 96.9604 138.23 95.0473 142.55 93.0246C142.06 93.8947 141.868 94.9011 142.004 95.8903C142.139 96.8795 142.595 97.7971 143.301 98.5031C142.402 98.8274 140.693 99.6195 137.205 101.287L137.209 101.289ZM144.536 98.158C144.354 98.5084 144.054 98.1833 143.776 97.8912C144.062 97.7092 144.365 97.5551 144.681 97.4312C144.698 97.6816 144.647 97.9318 144.533 98.1557L144.536 98.158ZM148.659 92.1237C147.202 93.1205 147.344 94.6839 147.008 95.5273C146.866 95.8637 146.624 96.1484 146.316 96.3433C146.007 96.5381 145.646 96.6336 145.282 96.6169C144.451 96.5678 144.22 96.7779 143.295 97.2709C141.895 95.0197 143.421 93.3605 143.471 92.6811C143.555 91.5736 143.87 90.4959 144.394 89.5168C144.555 89.0846 144.806 88.6919 145.131 88.3652C145.456 88.0384 145.848 87.7853 146.279 87.6229C146.406 87.5908 146.539 87.5961 146.663 87.6382C146.663 87.6773 146.58 87.8483 146.207 88.1236C145.91 88.3665 145.677 88.679 145.528 89.0333C145.38 89.3877 145.322 89.7731 145.358 90.1555C144.895 90.61 144.507 91.1345 144.208 91.7097C144.161 91.7998 144.151 91.9049 144.182 92.0021C144.212 92.0992 144.279 92.1803 144.37 92.2276C144.46 92.2749 144.565 92.2844 144.662 92.2542C144.759 92.2239 144.84 92.1563 144.888 92.0662C145.218 91.4409 145.663 90.8838 146.201 90.4246C146.242 90.3762 146.293 90.3379 146.351 90.3127C146.41 90.2876 146.473 90.2763 146.536 90.2797C146.567 90.3053 146.591 90.3375 146.607 90.3739C146.623 90.4103 146.631 90.4499 146.63 90.4898C146.626 90.7442 146.574 90.9956 146.476 91.2305C146.052 92.5442 145.711 93.8833 145.455 95.2398C145.446 95.2893 145.446 95.3401 145.456 95.3894C145.467 95.4387 145.487 95.4855 145.515 95.527C145.544 95.5686 145.58 95.6042 145.622 95.6317C145.664 95.6593 145.711 95.6783 145.761 95.6876C145.81 95.6969 145.861 95.6964 145.91 95.686C145.96 95.6757 146.007 95.6557 146.048 95.6273C146.09 95.5989 146.125 95.5626 146.153 95.5205C146.18 95.4783 146.199 95.4311 146.209 95.3816C146.456 94.0659 146.786 92.767 147.197 91.4927C147.376 91.051 147.286 91.0411 147.36 91.1246C147.419 91.1887 147.497 91.2312 147.582 91.2451C147.668 91.259 147.755 91.2436 147.831 91.2013C148.102 91.0432 148.402 90.9427 148.713 90.906C149.024 90.8693 149.339 90.8973 149.639 90.9882C149.739 91.0438 149.821 91.1259 149.877 91.2254C149.932 91.3248 149.959 91.4378 149.955 91.5517C150.006 91.8416 149.115 91.804 148.655 92.1214L148.659 92.1237Z" fill="#4B1010"/>
<path d="M107.528 71.557C107.474 71.557 107.42 71.5454 107.371 71.5231C107.321 71.5008 107.277 71.4681 107.241 71.4274C106.421 70.5 105.662 69.5209 104.968 68.4961C104.855 68.349 104.781 68.1753 104.755 67.9917C104.728 67.808 104.748 67.6205 104.815 67.4472C104.927 67.0527 105.072 66.6681 105.247 66.2971C105.29 66.205 105.368 66.134 105.464 66.0996C105.559 66.0651 105.665 66.0701 105.757 66.1134C105.849 66.1567 105.92 66.2348 105.954 66.3305C105.989 66.4262 105.984 66.5317 105.941 66.6237C105.78 66.9666 105.647 67.322 105.543 67.6864C105.512 67.7443 105.5 67.8105 105.508 67.8756C105.517 67.9408 105.545 68.0017 105.59 68.0498C106.269 69.0538 107.012 70.0132 107.814 70.9221C107.862 70.9773 107.893 71.0452 107.904 71.1176C107.914 71.19 107.904 71.2639 107.874 71.3307C107.844 71.3975 107.796 71.4543 107.734 71.4944C107.673 71.5345 107.602 71.5562 107.528 71.557Z" fill="#4B1010"/>
<path d="M97.3593 72.5947C96.5509 70.771 96.2321 68.768 96.4346 66.7835C96.614 64.987 96.4944 63.3607 97.7695 61.8886C97.6354 61.787 97.5241 61.6583 97.443 61.5108C97.3619 61.3634 97.3128 61.2006 97.2988 61.0329C97.4276 58.748 104.385 61.2384 105.403 61.7429C106.713 62.2825 107.849 63.1706 108.69 64.3107C109.382 65.6592 109.831 67.1192 110.016 68.6237C110.404 71.7165 110.436 74.8435 110.11 77.9435C111.27 77.2007 112.191 76.14 112.763 74.888C113.19 74.2386 113.501 73.5207 113.683 72.7657C113.735 72.2706 113.735 71.7716 113.683 71.2766C113.503 67.426 114.034 63.6176 112.211 60.0399C110.389 56.4623 106.739 54.1743 102.908 53.1936C99.2509 52.2567 94.5423 53.0165 92.0481 56.0605C91.4584 56.7805 91.0129 57.8662 91.6118 58.577C88.728 60.8105 88.4068 65.0292 88.4198 68.4098C88.4351 71.8676 88.9306 75.3066 89.892 78.6282C89.9466 78.9204 90.0791 79.1924 90.2753 79.4157C90.4538 79.571 90.6627 79.6875 90.8887 79.7576C93.2274 80.6377 95.6696 81.2132 98.1552 81.4698C97.077 78.7522 96.3661 75.9028 96.0413 72.9972C95.4938 73.8483 94.3621 73.5776 93.6536 72.8945C93.1089 72.4314 92.673 71.8538 92.3771 71.2029C92.0811 70.552 91.9324 69.8439 91.9415 69.129C92.147 67.5111 93.9987 67.6637 94.8858 68.6497C95.9187 69.8219 96.7541 71.1543 97.3593 72.5947Z" fill="#FFB43B"/>
<path d="M114.064 71.2588C113.887 67.4526 114.416 63.5269 112.551 59.8656C110.828 56.4858 107.347 53.918 103.003 52.8223C99.5051 51.9137 94.4921 52.4627 91.7502 55.8172C91.1522 56.5448 90.6768 57.6306 91.1023 58.4962C88.3742 60.8501 88.0261 65.0136 88.0353 68.4118C88.0525 71.8927 88.5499 75.3545 89.5136 78.6993C89.5576 79.032 89.6992 79.3442 89.9206 79.5964C90.1419 79.8486 90.4331 80.0295 90.7573 80.1162C93.1262 81.0082 95.6002 81.5911 98.1181 81.8506C98.1836 81.8574 98.2498 81.8471 98.3103 81.8209C98.3707 81.7946 98.4234 81.7532 98.4632 81.7006C98.5029 81.648 98.5285 81.5861 98.5373 81.5208C98.5462 81.4555 98.5381 81.389 98.5137 81.3277C97.64 79.1234 97.0095 76.8303 96.6337 74.4891C97.2991 75.6438 98.2374 76.6178 99.3663 77.326C99.2687 78.2805 99.1118 79.228 98.8963 80.163C98.8839 80.2118 98.8813 80.2626 98.8885 80.3125C98.8958 80.3624 98.9128 80.4103 98.9386 80.4536C98.9643 80.4969 98.9984 80.5347 99.0388 80.5648C99.0791 80.5949 99.1251 80.6168 99.1739 80.6292C99.2227 80.6416 99.2735 80.6442 99.3234 80.637C99.3732 80.6297 99.4212 80.6127 99.4645 80.587C99.5078 80.5612 99.5455 80.5271 99.5757 80.4868C99.6058 80.4464 99.6277 80.4005 99.6401 80.3516C99.8575 79.4897 100.02 78.6149 100.128 77.7324C101.146 78.2023 102.255 78.4419 103.376 78.434C103.254 79.2305 103.187 80.0344 103.174 80.84C103.173 80.8904 103.183 80.9404 103.201 80.9872C103.22 81.034 103.247 81.0766 103.283 81.1127C103.318 81.1488 103.359 81.1776 103.406 81.1976C103.452 81.2175 103.502 81.2281 103.552 81.2288C103.654 81.2302 103.752 81.1913 103.824 81.1206C103.897 81.0499 103.939 80.9531 103.941 80.8516C103.953 80.024 104.027 79.1986 104.161 78.3819C107.239 77.9371 109.188 75.5265 109.943 72.7294C109.984 74.4571 109.914 76.1856 109.732 77.9042C109.724 77.976 109.737 78.0486 109.769 78.1135C109.801 78.1784 109.85 78.233 109.912 78.271C109.973 78.309 110.044 78.3288 110.116 78.3282C110.189 78.3276 110.259 78.3066 110.32 78.2676C111.528 77.4991 112.488 76.3992 113.087 75.0994C113.545 74.3984 113.875 73.6224 114.063 72.8068C114.117 72.2922 114.117 71.7734 114.064 71.2588ZM104.73 77.6611C100.732 78.5643 97.1642 75.7488 96.2058 71.9274C96.0862 71.5593 95.5035 71.7134 95.6238 72.0807C95.8424 72.9142 95.8462 72.5921 95.7205 72.7892C95.311 73.4271 94.4338 73.112 93.904 72.6021C93.406 72.1817 93.0063 71.657 92.7333 71.0652C92.4602 70.4734 92.3204 69.8288 92.3238 69.177C92.3268 68.9957 92.3849 68.8195 92.4903 68.6719C92.5957 68.5242 92.7436 68.4122 92.9142 68.3505C93.2182 68.2843 93.5343 68.3003 93.8301 68.3968C94.1259 68.4933 94.3906 68.6668 94.5972 68.8995C95.6048 70.0443 96.4199 71.3449 97.0109 72.7508C97.0536 72.8409 97.1296 72.9108 97.2229 72.9457C97.3162 72.9807 97.4195 72.9779 97.5108 72.938C97.6021 72.8982 97.6743 72.8243 97.7121 72.7321C97.7499 72.6399 97.7503 72.5366 97.7132 72.4442C96.9272 70.6808 96.6186 68.7418 96.8184 66.8216C96.9902 65.0236 96.8782 63.5062 98.0613 62.1444C98.0957 62.1048 98.1215 62.0585 98.1373 62.0084C98.153 61.9584 98.1584 61.9056 98.1529 61.8534C98.1474 61.8013 98.1313 61.7508 98.1055 61.7051C98.0798 61.6594 98.0449 61.6194 98.0031 61.5877C97.8315 61.46 97.717 61.27 97.6841 61.0587C97.7692 59.5083 103.798 61.3784 105.26 62.1022C106.486 62.6055 107.554 63.4304 108.351 64.4899C110.926 69.4945 109.928 76.1253 104.73 77.6611ZM113.308 72.6772C113.131 73.4073 112.83 74.1014 112.417 74.7291C111.993 75.6589 111.364 76.4806 110.577 77.1328C110.818 74.2828 110.76 71.4152 110.401 68.5774C109.896 64.4462 108.214 62.4833 105.579 61.4007C105.029 61.1285 99.3863 58.9256 97.5461 59.9952C97.3842 60.0885 97.2455 60.2172 97.1403 60.3716C97.0351 60.526 96.9661 60.7022 96.9385 60.887C96.9109 61.0717 96.9253 61.2604 96.9807 61.4388C97.0361 61.6172 97.1311 61.7808 97.2586 61.9175C96.3185 63.1665 96.2234 64.496 96.1245 65.8969C95.9663 67.1203 95.9604 68.3586 96.1069 69.5834C95.818 69.1667 95.5049 68.7673 95.1692 68.3873C94.8639 68.0444 94.4705 67.7917 94.0317 67.6565C93.593 67.5214 93.1256 67.5089 92.6803 67.6205C92.3643 67.7292 92.0886 67.9307 91.8891 68.1987C91.6896 68.4667 91.5757 68.7888 91.5624 69.1226C91.5505 69.8902 91.7082 70.6509 92.0243 71.3505C92.3404 72.05 92.8071 72.6712 93.3911 73.1695C93.6824 73.4902 94.0624 73.717 94.4828 73.8213C94.9033 73.9256 95.3453 73.9026 95.7527 73.7553C96.0848 76.2364 96.6957 78.6722 97.5737 81.0164C95.3288 80.7337 93.1248 80.1881 91.0072 79.3909C90.8469 79.342 90.6969 79.264 90.5648 79.1609C90.4066 78.9791 90.3006 78.7579 90.2581 78.5206C89.3092 75.2329 88.8189 71.8299 88.8013 68.408C88.7929 65.0749 89.131 60.9805 91.8445 58.8788C91.8854 58.8472 91.9195 58.8076 91.9447 58.7624C91.9699 58.7172 91.9857 58.6674 91.9911 58.616C91.9966 58.5646 91.9916 58.5126 91.9764 58.4631C91.9612 58.4137 91.9362 58.3678 91.9028 58.3283C91.4136 57.7479 91.9488 56.7825 92.3429 56.3026C94.1647 54.0736 97.0968 53.1941 99.818 53.1941C104.231 53.1941 109.619 55.8011 111.867 60.213C113.646 63.7017 113.115 67.392 113.3 71.3155C113.347 71.7678 113.349 72.2236 113.308 72.6765V72.6772Z" fill="#4B1010"/>
<path d="M99.1924 67.5778C99.1312 67.5777 99.0709 67.563 99.0165 67.5348C98.9621 67.5066 98.9153 67.4658 98.8799 67.4158C98.8446 67.3658 98.8217 67.308 98.8132 67.2474C98.8048 67.1867 98.811 67.1249 98.8313 67.0671C99.0379 66.476 99.4038 65.9534 99.8886 65.5569C100.373 65.1605 100.958 64.9057 101.579 64.8206C101.679 64.8065 101.782 64.8331 101.863 64.8944C101.944 64.9558 101.997 65.0468 102.011 65.1476C102.025 65.2483 101.999 65.3506 101.938 65.4317C101.876 65.5129 101.785 65.5664 101.684 65.5804C101.203 65.6464 100.75 65.8439 100.374 66.1511C99.9983 66.4584 99.7146 66.8635 99.5544 67.3217C99.528 67.3966 99.479 67.4615 99.4142 67.5074C99.3494 67.5532 99.2719 67.5778 99.1924 67.5778Z" fill="#4B1010"/>
<path d="M109.025 66.0236C108.953 66.0236 108.883 66.0033 108.822 65.965C108.761 65.9268 108.712 65.8721 108.68 65.8073C108.513 65.4614 108.241 65.1768 107.903 64.9939C107.565 64.811 107.178 64.7391 106.797 64.7883C106.696 64.8012 106.594 64.7735 106.514 64.7113C106.433 64.649 106.381 64.5573 106.368 64.4563C106.355 64.3554 106.383 64.2534 106.445 64.1729C106.507 64.0923 106.599 64.0399 106.7 64.0269C107.24 63.9572 107.789 64.0594 108.269 64.3189C108.748 64.5785 109.133 64.9822 109.37 65.473C109.399 65.5315 109.412 65.5962 109.408 65.661C109.405 65.7259 109.385 65.7887 109.35 65.8438C109.316 65.8988 109.268 65.9442 109.211 65.9756C109.154 66.0071 109.09 66.0236 109.025 66.0236Z" fill="#4B1010"/>
<path d="M103.172 72.3545C103.058 73.0035 103.088 73.6694 103.258 74.3059C103.347 74.6237 103.535 74.9048 103.795 75.1081C104.056 75.3114 104.374 75.4263 104.704 75.4361C105.783 75.3594 106.21 73.9907 106.445 73.1488C105.874 73.241 105.29 73.2182 104.728 73.0818C104.166 72.9454 103.637 72.6981 103.172 72.3545Z" fill="#FFE55D"/>
<path d="M107.038 73.028C107.028 72.9787 107.007 72.932 106.979 72.8906C106.95 72.8491 106.914 72.8137 106.871 72.7864C106.829 72.759 106.782 72.7403 106.732 72.7312C106.683 72.7222 106.632 72.7229 106.583 72.7335C106.033 72.8504 105.466 72.8494 104.917 72.7304C104.368 72.6114 103.851 72.3773 103.399 72.0435C103.347 72.0048 103.285 71.9801 103.22 71.9718C103.156 71.9636 103.09 71.972 103.029 71.9962C102.969 72.0205 102.915 72.0598 102.874 72.1105C102.833 72.1612 102.805 72.2215 102.794 72.2858C102.672 72.9914 102.704 73.7152 102.888 74.4073C103.001 74.8093 103.242 75.1638 103.574 75.4176C103.905 75.6715 104.31 75.8112 104.728 75.8159C105.809 75.7392 106.318 74.6872 106.541 74.0953C106.57 74.0186 106.704 73.6697 106.778 73.4696C106.868 73.441 106.945 73.3801 106.993 73.2986C107.041 73.2171 107.057 73.1207 107.038 73.028ZM104.715 75.0529C104.467 75.0469 104.228 74.9618 104.033 74.81C103.837 74.6582 103.695 74.4478 103.628 74.2095C103.524 73.8196 103.477 73.4167 103.49 73.0134C104.231 73.4181 105.068 73.6162 105.913 73.5869C105.841 73.7249 105.497 74.9947 104.715 75.0529Z" fill="#4B1010"/>
<path d="M94.7337 70.5904C94.3412 70.5904 94.4478 70.207 93.7899 69.7301C93.7042 69.6753 93.6043 69.6469 93.5026 69.6484C93.4009 69.6499 93.3019 69.6813 93.2179 69.7386C93.1333 69.7951 93.0297 69.8157 92.9299 69.7959C92.8301 69.776 92.7423 69.7173 92.6858 69.6328C92.6292 69.5482 92.6086 69.4446 92.6285 69.3448C92.6483 69.245 92.707 69.1572 92.7916 69.1006C93.0039 68.9582 93.2539 68.8821 93.5096 68.8821C93.7654 68.8821 94.0153 68.9582 94.2277 69.1006C94.5659 69.3433 94.8504 69.6531 95.0634 70.0108C95.0982 70.069 95.1168 70.1354 95.1175 70.2031C95.1182 70.2709 95.1009 70.3377 95.0674 70.3966C95.0339 70.4555 94.9853 70.5045 94.9267 70.5385C94.8681 70.5726 94.8015 70.5905 94.7337 70.5904Z" fill="#4B1010"/>
<path d="M106.766 68.0999C106.683 68.1002 106.602 68.0733 106.535 68.0234C106.469 67.9736 106.42 67.9034 106.397 67.8235C106.374 67.7436 106.377 67.6583 106.407 67.5805C106.436 67.5027 106.49 67.4366 106.561 67.3922C106.935 67.1556 107.36 67.0139 107.801 66.9793C108.242 66.9447 108.685 67.0182 109.091 67.1936C109.137 67.2138 109.179 67.2428 109.214 67.2791C109.249 67.3154 109.277 67.3582 109.295 67.4052C109.313 67.4521 109.322 67.5022 109.322 67.5526C109.321 67.603 109.31 67.6527 109.29 67.6989C109.27 67.7451 109.24 67.7869 109.204 67.8219C109.168 67.8569 109.125 67.8844 109.078 67.9029C109.031 67.9213 108.981 67.9303 108.931 67.9294C108.88 67.9285 108.831 67.9177 108.784 67.8975C108.493 67.7718 108.175 67.7192 107.858 67.744C107.541 67.7689 107.236 67.8705 106.967 68.0401C106.907 68.0786 106.838 68.0994 106.766 68.0999Z" fill="#4B1010"/>
<path d="M96.6839 62.0924C96.6145 62.0924 96.5464 62.0736 96.4868 62.038C95.9691 61.7231 95.5879 61.2258 95.4185 60.6439C95.2491 60.0621 95.3036 59.4379 95.5713 58.8943C96.0349 58.1759 96.741 57.6478 97.5611 57.406C99.6106 56.7375 101.823 56.7644 103.856 57.4827C105.84 58.18 107.671 59.2508 109.252 60.6371C109.292 60.6696 109.325 60.7098 109.349 60.7553C109.373 60.8009 109.388 60.8509 109.393 60.9023C109.397 60.9537 109.391 61.0055 109.375 61.0546C109.359 61.1036 109.333 61.1489 109.299 61.1878C109.265 61.2266 109.224 61.2582 109.177 61.2806C109.131 61.303 109.08 61.3158 109.029 61.3183C108.977 61.3207 108.926 61.3127 108.877 61.2947C108.829 61.2767 108.785 61.2492 108.747 61.2137C107.24 59.8906 105.493 58.8685 103.601 58.2027C101.724 57.5406 99.6803 57.5177 97.7888 58.1375C97.1521 58.3212 96.6011 58.7246 96.2338 59.2761C96.0635 59.6452 96.0354 60.0641 96.155 60.4525C96.2746 60.8409 96.5334 61.1715 96.8817 61.3809C96.9534 61.4241 97.0089 61.4897 97.0398 61.5675C97.0707 61.6453 97.0753 61.7311 97.0529 61.8117C97.0305 61.8924 96.9823 61.9635 96.9156 62.0142C96.849 62.0649 96.7676 62.0923 96.6839 62.0924Z" fill="#4B1010"/>
<path d="M94.7267 60.9914C94.1841 60.6897 93.7635 60.2084 93.5372 59.6302C93.311 59.052 93.2932 58.4131 93.4869 57.8232C93.6922 57.2618 94.0338 56.7603 94.4809 56.3636C94.9281 55.9669 95.4668 55.6875 96.0486 55.5505C96.1463 55.5305 96.248 55.5493 96.3321 55.6031C96.4161 55.6568 96.4759 55.7412 96.4988 55.8383C96.5217 55.9354 96.5058 56.0376 96.4545 56.1232C96.4032 56.2087 96.3206 56.2709 96.2242 56.2966C95.7675 56.4038 95.3446 56.6225 94.9932 56.9332C94.6418 57.2439 94.373 57.6369 94.2107 58.077C94.0759 58.496 94.0908 58.9488 94.2527 59.3581C94.4147 59.7674 94.7136 60.1078 95.0986 60.3213C95.1843 60.3722 95.2467 60.4546 95.2727 60.5508C95.2987 60.647 95.2862 60.7496 95.2378 60.8368C95.1894 60.9239 95.109 60.9888 95.0136 61.0177C94.9182 61.0466 94.8153 61.0371 94.7267 60.9914Z" fill="#4B1010"/>
<path d="M90.8419 70.087C90.7474 70.0876 90.6559 70.0533 90.5852 69.9906C90.5144 69.9279 90.4693 69.8413 90.4585 69.7473C90.2779 68.1785 90.2266 66.5975 90.3052 65.0203C90.3895 63.3945 90.8761 61.8151 91.7214 60.4237C91.8698 60.1715 92.0791 59.9606 92.3302 59.8103C92.3733 59.7824 92.4216 59.7634 92.4722 59.7545C92.5228 59.7457 92.5747 59.7471 92.6247 59.7586C92.6748 59.7702 92.722 59.7917 92.7636 59.8218C92.8051 59.852 92.8402 59.8902 92.8667 59.9342C92.8933 59.9782 92.9107 60.0271 92.9179 60.078C92.9252 60.1288 92.9222 60.1806 92.909 60.2303C92.8959 60.2799 92.8729 60.3264 92.8414 60.367C92.8099 60.4076 92.7706 60.4415 92.7258 60.4666C92.5832 60.5532 92.4645 60.6742 92.3808 60.8185C91.6001 62.1012 91.1504 63.5577 91.0719 65.0571C90.9969 66.5922 91.0481 68.1309 91.2253 69.6576C91.2318 69.7117 91.2268 69.7665 91.2104 69.8185C91.1941 69.8705 91.1669 69.9183 91.1307 69.959C91.0944 69.9996 91.0499 70.032 91.0001 70.0541C90.9503 70.0762 90.8964 70.0874 90.8419 70.087Z" fill="#4B1010"/>
<path d="M96.9897 72.7562C96.9897 73.4321 97.2583 74.0804 97.7362 74.5584C98.2142 75.0363 98.8625 75.3049 99.5384 75.3049C100.214 75.3049 100.863 75.0363 101.341 74.5584C101.819 74.0804 102.087 73.4321 102.087 72.7562C102.087 72.0802 101.819 71.432 101.341 70.954C100.863 70.476 100.214 70.2075 99.5384 70.2075C98.8625 70.2075 98.2142 70.476 97.7362 70.954C97.2583 71.432 96.9897 72.0802 96.9897 72.7562Z" fill="#FFE55D"/>
<path d="M107.772 70.1801C107.772 70.7594 108.003 71.3151 108.412 71.7247C108.822 72.1344 109.378 72.3645 109.957 72.3645C110.536 72.3645 111.092 72.1344 111.502 71.7247C111.911 71.3151 112.141 70.7594 112.141 70.1801C112.141 69.6007 111.911 69.0451 111.502 68.6354C111.092 68.2258 110.536 67.9956 109.957 67.9956C109.378 67.9956 108.822 68.2258 108.412 68.6354C108.003 69.0451 107.772 69.6007 107.772 70.1801Z" fill="#FFE55D"/>
<path d="M100.814 67.7426C100.079 67.781 99.9035 68.3729 100.047 69.0461C100.19 69.7193 100.845 70.1318 101.335 69.6135C101.825 69.0952 101.238 68.2057 101.238 68.2057C101.351 68.1712 101.457 68.1144 101.548 68.0387C101.639 67.963 101.715 67.8699 101.77 67.7649C101.909 67.4359 101.679 67.1139 101.386 67.3723C101.094 67.6307 101.003 67.7334 100.814 67.7426Z" fill="#4B1010"/>
<path d="M109.475 126.98C109.41 126.902 109.318 126.853 109.218 126.843C109.117 126.832 109.017 126.862 108.938 126.926L99.648 134.517C99.6058 134.551 99.5714 134.594 99.5471 134.642C99.5228 134.691 99.5091 134.744 99.5069 134.799L99.2869 140.779C99.2831 140.881 99.3199 140.98 99.3892 141.055C99.4584 141.129 99.5544 141.173 99.6561 141.177C99.7578 141.181 99.8568 141.144 99.9313 141.075C100.006 141.005 100.05 140.909 100.054 140.808L100.268 134.997L109.423 127.52C109.462 127.488 109.494 127.448 109.518 127.404C109.541 127.359 109.556 127.311 109.561 127.261C109.566 127.211 109.56 127.16 109.546 127.112C109.531 127.064 109.507 127.019 109.475 126.98Z" fill="white"/>
</svg>
