<svg width="154" height="154" viewBox="0 0 154 154" fill="none" xmlns="http://www.w3.org/2000/svg">
<path d="M67.4173 55.5564C67.6926 55.3432 67.3099 54.9683 67.0424 55.173L54.4792 64.9061C54.2116 65.1124 54.5934 65.4942 54.8625 65.2803C54.861 65.2028 54.2376 65.7649 67.4173 55.5564Z" fill="#FFB43B"/>
<path d="M56.9895 61.0102C56.2825 59.2128 55.1992 57.5875 53.8121 56.2433C52.4767 54.8847 50.9641 53.7125 49.3151 52.7585C46.1715 50.9949 42.2411 50.1515 38.7056 51.1698C36.0743 51.9141 33.7041 53.3808 31.8638 55.4036C30.0235 57.4264 28.7869 59.9244 28.294 62.6142C28.0639 63.5688 27.8531 64.5204 27.5916 65.4712C27.0549 67.4133 26.9445 68.9637 27.7902 70.7487C28.2997 71.6024 28.6625 72.5354 28.8636 73.509C28.9863 74.8684 27.8423 75.9856 27.0917 77C26.4292 77.8948 25.6556 79.0395 26.0382 80.2081C26.3344 80.8294 26.7585 81.3812 27.2826 81.8274C27.4693 81.9905 27.6129 82.1971 27.7009 82.4288C27.7889 82.6605 27.8185 82.9103 27.7871 83.1562C27.6421 83.5836 27.4316 83.9858 27.163 84.3485C26.713 85.0901 26.5679 85.9773 26.7582 86.8236C26.9882 87.5596 27.345 88.2498 27.8124 88.8631C27.941 89.0219 28.0112 89.2201 28.0112 89.4244C28.0112 89.6287 27.941 89.8269 27.8124 89.9857C27.5919 90.2417 27.4395 90.5492 27.3693 90.8797C27.3233 91.3911 27.7664 92.2698 28.3239 92.3235C28.6359 92.3534 28.9848 92.3066 29.3206 92.3235C27.4413 93.265 27.153 95.9763 28.7379 96.5812C28.9733 96.6709 29.1458 96.3589 29.04 96.181C29.1711 95.4549 31.1999 92.2652 31.2636 92.1586C32.7449 89.774 33.5523 87.7467 37.13 85.5354C38.8014 84.3654 40.6024 83.3923 42.4972 82.6356C42.7349 82.6356 45.8962 81.1788 48.6312 80.3262C52.4021 79.1523 52.9557 79.5525 54.7414 79.2949C55.8149 79.2512 56.6583 78.0757 55.956 77.2178C55.4752 76.4219 57.215 76.1941 57.1252 74.9175C57.067 74.1001 56.2926 73.5504 56.3079 72.71C56.5556 70.2227 58.4609 65.7288 56.9895 61.0102ZM28.9434 96.0859C28.9679 96.096 28.9895 96.1121 29.0063 96.1327C28.9884 96.1133 28.9671 96.0974 28.9434 96.0859Z" fill="#4B1010"/>
<path d="M84.948 52.9632C84.1406 53.3719 82.292 57.362 81.7645 58.2147C79.2926 62.232 76.4597 66.0157 73.3011 69.5189C70.4051 72.7124 64.2167 75.5762 60.3921 77.2339C56.0263 79.1293 51.1344 79.2336 46.675 80.8169C46.5774 80.3667 46.4119 79.9339 46.1843 79.5334C43.1571 79.3348 41.8629 77.7967 40.7442 77.2331C40.7611 77.3098 41.09 78.8648 42.1527 82.4516C38.6142 84.0296 33.5045 87.1518 30.571 92.8334C29.0651 95.7509 26.7518 99.5938 31.419 100.587L50.3009 104.68C51.951 105.04 53.7812 105.364 55.2434 104.52C57.4547 103.245 57.5084 100.166 58.0037 97.6463C58.4766 95.3011 59.3716 93.0613 60.6452 91.0361C59.6967 89.6015 58.9062 88.2038 58.9062 88.2038C59.7849 87.8564 63.1854 87.3082 70.3116 82.9899C73.3279 81.1612 77.6386 77.661 79.4527 74.6032C83.4705 67.8328 84.8 62.237 87.8555 55.0334C86.5912 54.5941 86.0499 52.4035 84.948 52.9632Z" fill="white"/>
<path d="M85.3877 58.2781C85.5864 58.7965 86.3511 59.0735 87.5135 59.0482C88.6759 59.0229 90.1408 58.6974 91.5859 58.1432C93.0311 57.5891 94.3381 56.8517 95.2194 56.0933C96.1007 55.335 96.4842 54.6177 96.2855 54.0993C96.1871 53.8426 95.9487 53.6425 95.584 53.5104C95.2192 53.3783 94.7353 53.3167 94.1597 53.3292C93.5842 53.3417 92.9283 53.4281 92.2295 53.5834C91.5308 53.7387 90.8029 53.9598 90.0873 54.2342C89.3717 54.5086 88.6826 54.8308 88.0591 55.1825C87.4357 55.5343 86.8902 55.9086 86.4538 56.2841C86.0174 56.6596 85.6987 57.0289 85.5157 57.3711C85.3328 57.7132 85.2893 58.0214 85.3877 58.2781Z" fill="#FFB43B"/>
<path d="M85.1389 58.3733C84.5899 56.9426 87.2298 55.0441 89.9924 53.9844C91.3195 53.4502 92.7258 53.1393 94.1543 53.0643C96.8962 53.0153 97.3747 54.5932 95.3942 56.2977C92.4813 58.8019 85.9394 60.4627 85.1389 58.3733ZM90.1833 54.4836C87.1163 55.659 85.329 57.3758 85.638 58.1824C85.947 58.989 88.4267 59.068 91.4906 57.8933C92.7781 57.4261 93.9795 56.7491 95.0461 55.8898C95.8182 55.2258 96.1885 54.5917 96.0367 54.1945C95.8849 53.7974 95.1848 53.5742 94.1658 53.5965C92.7985 53.6708 91.4529 53.9705 90.1833 54.4836Z" fill="#4B1010"/>
<path d="M90.2129 38.6296C91.7157 35.7712 92.5431 35.4215 93.6809 33.2363C94.7344 30.8394 93.9109 27.5156 91.4957 26.6215C90.0802 26.0971 89.3879 26.9727 88.3566 27.6452C87.5899 26.301 87.1651 24.7008 85.2398 24.7422C82.5891 24.7997 79.4316 26.0457 76.9903 27.0341C75.9838 27.4223 75.057 27.992 74.2561 28.7148C72.7855 30.0842 72.9649 31.9689 73.7439 33.6335C73.1481 33.145 72.2165 33.5039 71.6438 33.9701C71.2167 34.2588 70.8514 34.6298 70.5694 35.0613C70.2874 35.4929 70.0943 35.9764 70.0014 36.4835C69.9767 36.9727 70.0581 37.4614 70.2401 37.9162C70.4221 38.3709 70.7003 38.7809 71.0557 39.118C71.7809 39.792 72.6183 40.3343 73.53 40.7205C76.1121 41.8703 78.7846 42.8053 81.5203 43.5161C81.6192 43.5161 81.7718 43.5161 81.7718 43.4248C81.7692 43.3912 81.7561 43.3593 81.7342 43.3336C80.1102 40.9068 74.5919 41.406 72.2625 38.9332C71.229 37.8368 70.9161 35.9429 72.1092 34.8618C72.7924 34.3373 73.9686 34.789 73.9686 34.789C76.4781 39.792 79.0176 40.6354 81.8024 43.1573C85.423 46.4351 87.4488 51.0448 89.2499 55.6008C89.3476 55.8479 89.5387 56.0465 89.7818 56.1537C90.0249 56.2609 90.3004 56.268 90.5487 56.1736L90.9152 56.0287C91.1641 55.9356 91.3659 55.7477 91.4765 55.5061C91.587 55.2645 91.5972 54.9889 91.5049 54.7398C89.9062 50.4268 88.4018 45.926 88.6495 41.3615C89.2391 40.2605 89.9959 39.0406 90.2129 38.6296ZM90.3501 27.8951C90.7176 27.8091 91.1011 27.8204 91.4629 27.928C91.8246 28.0356 92.152 28.2357 92.4127 28.5085C93.2561 29.3872 93.1794 30.8003 92.8252 31.9535C92.3276 33.5737 90.2045 36.8323 88.9623 38.7776C89.3385 37.0713 89.5653 35.3354 89.6401 33.5898C89.6279 31.8009 87.8007 28.4993 90.3501 27.8974V27.8951Z" fill="#FFB43B"/>
<path d="M81.5258 40.035C80.9326 39.5787 80.3644 39.0909 79.8236 38.5735C78.5355 37.0753 77.413 34.2069 76.9215 32.402C76.1547 32.402 73.1023 32.0424 72.8654 31.1943C73.1007 32.0376 73.394 32.8636 73.7433 33.6663C73.3041 33.5378 72.8408 33.5142 72.3908 33.5975C71.9408 33.6808 71.5166 33.8686 71.1525 34.1458C70.7884 34.423 70.4944 34.7819 70.2944 35.1935C70.0944 35.6051 69.9938 36.058 70.0008 36.5156C69.9735 37.0052 70.0538 37.4948 70.2359 37.9501C70.4181 38.4053 70.6977 38.8152 71.0551 39.1509C71.7836 39.8122 72.6206 40.3431 73.5294 40.7204C78.6283 42.9241 80.3665 43.1065 82.5126 43.8702C85.6816 47.0906 87.5594 51.3652 89.2493 55.6015C89.3129 55.7615 89.417 55.9021 89.5514 56.0097C89.6859 56.1172 89.846 56.188 90.016 56.2149C86.3931 47.5874 84.7646 42.8344 81.5258 40.035ZM71.3434 36.8146C71.1034 33.5628 73.9894 34.831 73.9894 34.831C75.8419 38.6648 77.9765 40.107 80.3534 41.9618C77.0787 40.6675 71.6271 40.6338 71.3449 36.81L71.3434 36.8146Z" fill="#FFB43B"/>
<path d="M72.9603 31.4833C73.0865 31.8284 73.4008 32.098 73.885 32.2765C74.3693 32.455 75.0139 32.5389 75.7819 32.5234C76.5499 32.5079 77.4261 32.3934 78.3601 32.1863C79.2941 31.9792 80.2675 31.6837 81.2243 31.3168C82.1812 30.9499 83.1026 30.5187 83.9355 30.0482C84.7685 29.5777 85.4965 29.077 86.0779 28.5751C86.6593 28.0731 87.0825 27.5797 87.3231 27.1232C87.5638 26.6667 87.6172 26.2562 87.4802 25.9152C87.354 25.5701 87.0397 25.3005 86.5555 25.122C86.0712 24.9435 85.4266 24.8596 84.6586 24.8751C83.8906 24.8906 83.0144 25.0051 82.0804 25.2122C81.1464 25.4193 80.173 25.7148 79.2161 26.0817C78.2593 26.4486 77.3379 26.8798 76.505 27.3503C75.672 27.8208 74.9439 28.3215 74.3626 28.8234C73.7812 29.3254 73.358 29.8188 73.1174 30.2753C72.8767 30.7318 72.8233 31.1423 72.9603 31.4833Z" fill="#FFB43B"/>
<path d="M93.9219 32.6753C94.8803 30.1757 94.1197 27.0933 91.4806 26.4684C90.9452 26.3552 90.3893 26.3863 89.8699 26.5586C89.3505 26.7309 88.8862 27.0383 88.5247 27.4491C87.7772 25.4678 87.3654 24.5661 84.6412 24.6229C82.7474 24.7243 80.8834 25.1388 79.1252 25.8497C75.4095 27.2743 72.7857 29.4005 72.64 30.98C72.5871 31.5574 72.64 31.6509 73.2848 33.3032C72.7381 33.2479 72.1862 33.3341 71.6824 33.5537C71.1786 33.7732 70.7397 34.1187 70.408 34.5569C68.9159 36.828 70.3444 39.5637 72.7481 40.7928C74.4112 41.6432 75.1066 41.7797 79.8091 43.2066C80.988 43.4669 82.0925 43.9912 83.0394 44.7401C85.7729 47.8423 87.4866 51.798 89.0055 55.6363C89.1006 55.8746 89.2649 56.079 89.4774 56.2229C89.6898 56.3668 89.9404 56.4437 90.197 56.4437C90.4815 56.4218 90.7588 56.3436 91.0128 56.2137C91.3271 56.0947 91.5818 55.8565 91.7216 55.5509C91.8614 55.2453 91.8751 54.8969 91.7597 54.5813C90.3243 50.7084 88.9526 46.6194 88.9005 42.5127C89.1035 41.3057 89.5798 40.1612 90.2929 39.1666C92.9128 34.8582 93.2855 34.3353 93.9219 32.6753ZM79.3161 26.3458C79.2034 26.0506 79.2156 26.0805 79.3161 26.3458C81.0172 25.6578 82.8204 25.2562 84.6527 25.1573C86.0712 25.1297 87.0097 25.4372 87.2297 26.0107C87.666 27.1478 85.3128 29.445 81.1218 31.0528C76.9307 32.6607 73.6444 32.5242 73.2082 31.3879C72.7719 30.2516 75.1227 27.9536 79.3161 26.3458ZM79.9471 42.6898C75.1473 41.2284 74.6251 41.1502 72.9942 40.3167C70.9003 39.2432 69.5439 36.8479 70.8473 34.8636C71.1462 34.4528 71.563 34.1426 72.0423 33.9743C72.5217 33.806 73.0409 33.7875 73.531 33.9212C73.5869 34.0593 73.6521 34.1973 73.7112 34.3361C73.2921 34.2127 72.8449 34.2236 72.4324 34.3673C72.0198 34.511 71.6626 34.7803 71.4109 35.1373C70.2378 36.8318 71.3534 38.9634 73.1859 39.8988C76.4124 41.5458 79.6328 41.509 81.5542 43.2311C81.0383 42.9965 80.4998 42.8151 79.9471 42.6898ZM73.866 34.964C73.9074 34.9843 73.9535 34.993 73.9995 34.9893C75.4708 38.2265 76.7598 39.451 79.3107 41.42C77.4705 40.7668 75.5314 40.4953 73.4298 39.4227C71.907 38.6452 70.9079 36.884 71.851 35.4417C72.0744 35.1344 72.4004 34.9173 72.7701 34.8297C73.1397 34.7421 73.5285 34.7897 73.866 34.964ZM91.2636 54.773C91.2973 54.8638 91.3127 54.9604 91.309 55.0571C91.3053 55.1539 91.2825 55.249 91.242 55.337C91.2015 55.425 91.144 55.5041 91.0728 55.5698C91.0016 55.6355 90.9182 55.6865 90.8273 55.7199L90.4631 55.8641C90.2802 55.9339 90.0771 55.9287 89.898 55.8498C89.7189 55.7708 89.5781 55.6244 89.5062 55.4424C87.4191 50.1625 85.322 45.5636 81.0528 42.1063C79.5218 41.0061 78.0843 39.7813 76.7551 38.4443C75.3122 36.634 74.2101 34.5766 73.5026 32.3724C76.838 34.0508 86.6293 30.1726 87.725 26.8687C89.7554 32.1593 89.6059 33.738 88.8752 37.7143C87.7028 44.1527 88.8054 48.1475 91.2636 54.773ZM89.1335 29.195C89.1615 29.1673 89.1834 29.1342 89.198 29.0976C89.3274 28.7333 89.5868 28.4296 89.9264 28.2447C90.266 28.0599 90.6619 28.007 91.0381 28.0962C92.725 28.5103 93.1436 30.513 92.5333 32.1102C91.6899 34.3261 90.4033 35.8097 89.4563 37.5541C90.0414 34.3138 90.1733 32.5081 89.1305 29.195H89.1335ZM89.0032 40.3849C89.2792 37.801 91.7727 35.5928 93.0317 32.3011C93.7593 30.3973 93.1766 28.0709 91.1647 27.5764C90.7384 27.4745 90.291 27.5091 89.8854 27.6751C89.4799 27.8411 89.1367 28.1303 88.9043 28.5019C88.856 28.3608 88.8084 28.2189 88.7578 28.0786C89.0244 27.6489 89.4183 27.3129 89.8848 27.1176C90.3512 26.9223 90.867 26.8774 91.3602 26.9891C93.6689 27.535 94.2669 30.2907 93.4258 32.4844C92.7879 34.1497 92.3562 34.7478 89.8528 38.879C89.5178 39.3505 89.2321 39.8551 89.0001 40.3849H89.0032Z" fill="#4B1010"/>
<path d="M86.5691 30.2498C87.4447 32.1596 87.7598 34.2788 87.4777 36.3607C87.4813 36.4613 87.5229 36.5567 87.594 36.6278C87.6651 36.6989 87.7605 36.7405 87.8611 36.7441C87.9623 36.7427 88.059 36.7019 88.1306 36.6303C88.2022 36.5587 88.243 36.462 88.2444 36.3607C88.5157 34.1541 88.1638 31.9156 87.2285 29.8986C87.0207 29.4485 86.3651 29.8372 86.5714 30.282L86.5691 30.2498Z" fill="white"/>
<path d="M56.7783 93.0072C55.4906 94.5797 54.5392 96.3996 53.9827 98.3545C52.9113 98.165 51.8107 98.2242 50.7658 98.5274C49.7209 98.8307 48.7596 99.3698 47.9561 100.103C49.5908 101.15 53.3034 104.459 55.3498 104.03C57.6416 103.55 57.6324 99.3612 57.9698 97.6215C58.2297 96.2827 58.7365 95.0912 58.9857 93.7409C59.1552 92.8208 59.4059 90.2269 60.1474 89.6082C58.9136 90.6257 57.7849 91.7644 56.7783 93.0072Z" fill="#FFE55D"/>
<path d="M60.6509 77.1274C59.6846 77.6139 58.6744 78.0078 57.6338 78.3036C60.2108 80.8899 60.5252 85.0027 58.9051 88.174C60.9321 88.0226 62.8469 87.1841 64.3329 85.7971C66.3947 83.6962 62.1714 78.5022 60.6509 77.1274Z" fill="#FFE55D"/>
<path d="M63.7525 136.379C64.1558 138.236 64.7224 140.06 65.0506 141.932C65.3335 143.542 66.0473 147.715 64.6304 148.883C63.7855 149.471 62.7723 149.769 61.7436 149.731C52.5771 150.136 44.3046 144.589 35.3367 142.734C33.0457 142.26 30.4564 142.085 28.5311 143.429C27.9214 143.978 27.2467 144.45 26.5222 144.835C23.5817 145.942 25.3092 140.935 25.7048 139.564C26.5675 136.631 27.7484 133.801 29.2265 131.124C31.3941 126.494 33.367 125.873 36.1012 121.431C37.4415 119.251 37.9192 116.217 36.3075 114.227C35.8246 113.772 35.4307 113.23 35.1458 112.631C35.0469 112.178 35.0469 111.709 35.1458 111.256L36.4294 101.471C42.5857 100.738 48.7939 100.539 54.9847 100.875C56.3987 97.3736 58.3894 94.1339 60.8741 91.2905C62.4736 93.315 63.6197 95.6595 64.2348 98.1652C64.5362 100.156 64.3126 102.191 63.5861 104.069C62.1806 107.853 60.9025 111.705 59.6212 115.527C56.9667 123.461 61.2122 124.704 63.7525 136.379Z" fill="#FFB43B"/>
<path d="M34.0845 128.038C35.9822 126.504 38.6673 124.715 41.272 124.83C43.8766 124.945 45.8548 127.533 46.8102 128.489C50.5527 125.846 54.8764 122.179 58.6948 119.391C58.6335 117.863 58.9892 117.353 59.6149 115.488C60.8678 111.778 62.1889 108.094 63.4341 104.389C61.544 103.929 58.8336 105.393 56.6054 106.161C51.1492 108.041 45.713 105.153 42.2296 100.929C40.2841 101.051 38.3389 101.227 36.3939 101.456L35.1111 111.241C35.0115 111.694 35.0115 112.163 35.1111 112.615C35.3955 113.215 35.7892 113.757 36.272 114.212C37.8822 116.199 37.4037 119.235 36.0657 121.419C34.9027 123.283 33.5596 125.028 32.0556 126.629C30.9205 128 29.967 129.512 29.2187 131.128C27.4782 134.308 25.1687 139.945 24.8413 143.586C26.4009 138.049 29.4824 131.753 34.0845 128.038Z" fill="#FFB43B"/>
<path d="M85.8101 58.8357C84.0281 64.3885 82.4103 69.0657 79.2122 74.4705C75.3784 80.951 66.5892 85.0738 59.2292 87.9515C59.1847 87.8679 59.1387 87.7843 59.095 87.7C58.8979 87.3166 58.4157 87.5466 58.6135 87.93C60.367 91.3604 63.1419 94.4297 63.9708 98.1669C64.2613 100.113 64.0418 102.1 63.3336 103.936C61.9688 107.611 60.6852 111.482 59.3672 115.401C57.869 119.854 58.4471 122.582 60.1401 126.351C63.5697 134 64.5466 141.42 65.091 148.299L65.6231 148.257C65.0749 141.33 64.0896 133.855 60.6285 126.132C58.201 120.717 58.865 118.571 60.4176 113.953C61.5057 110.715 62.6297 107.368 63.8358 104.121C64.577 102.194 64.8042 100.106 64.4952 98.0641C63.6947 94.4496 61.2404 91.569 59.4853 88.423C66.9128 85.514 75.7656 81.3421 79.6722 74.7396C82.8987 69.2872 84.5265 64.5809 86.3192 58.9959L85.8101 58.8357Z" fill="#4B1010"/>
<path d="M35.9709 121.52C35.5918 122.126 35.1269 122.675 34.5907 123.148C29.0348 129.015 25.5499 136.537 24.6675 144.569L25.1996 144.626C26.0675 136.719 29.4962 129.312 34.9634 123.534C35.6152 122.96 36.1667 122.282 36.595 121.527L35.9709 121.52Z" fill="#4B1010"/>
<path d="M87.2766 50.9045C87.5212 51.225 88.8047 55.2658 88.8047 55.2658C87.944 55.5658 87.001 55.5249 86.1694 55.1515C84.7701 54.5205 84.4059 53.5245 84.4964 52.096C84.5692 50.9267 84.8966 49.5826 85.9478 48.9263C86.3048 48.7058 86.7186 48.5947 87.1381 48.6069C87.5575 48.619 87.9642 48.7538 88.3079 48.9945C88.4312 49.0679 88.5346 49.1703 88.6092 49.2929C88.6838 49.4155 88.7272 49.5544 88.7357 49.6976C88.6997 50.3923 87.7298 50.4307 87.2766 50.9045Z" fill="white"/>
<path d="M92.0068 53.043C91.9156 54.1663 90.54 54.8226 89.5777 54.785C89.3565 54.8026 89.135 54.7548 88.9407 54.6476C88.7465 54.5403 88.588 54.3782 88.4851 54.1816C88.4427 54.0374 88.4365 53.885 88.4671 53.7378C88.4977 53.5907 88.5642 53.4534 88.6607 53.3382C88.8517 53.1093 89.0789 52.9133 89.3332 52.7577C88.801 52.8248 88.2605 52.7592 87.7598 52.5668C87.4255 52.2563 87.5949 51.8177 87.8664 51.4512C87.5612 51.3879 87.2811 51.2373 87.0601 51.0175C86.8391 50.7978 86.6869 50.5185 86.6219 50.2137C86.3398 48.8788 87.7981 48.1135 88.913 48.0215C89.2191 47.972 89.5324 47.9886 89.8316 48.0704C90.1307 48.1521 90.4089 48.297 90.6474 48.4954C90.7573 48.6009 90.8424 48.7295 90.8967 48.8718C90.951 49.0142 90.9731 49.1668 90.9614 49.3187C90.9496 49.4706 90.9044 49.6181 90.8289 49.7504C90.7534 49.8827 90.6495 49.9967 90.5247 50.0841C90.8028 50.0375 91.0884 50.0959 91.3259 50.248C91.5635 50.4 91.7361 50.6348 91.8103 50.9069C91.8845 51.179 91.855 51.469 91.7276 51.7206C91.6001 51.9722 91.3837 52.1674 91.1204 52.2686C91.556 52.073 92.0451 52.5699 92.0068 53.043Z" fill="white"/>
<path d="M91.7693 52.106C91.9193 51.9251 92.0215 51.7093 92.0666 51.4786C92.1116 51.2479 92.0981 51.0096 92.0272 50.7855C91.9564 50.5614 91.8304 50.3586 91.6609 50.1958C91.4914 50.0329 91.2838 49.9152 91.057 49.8533C91.1906 49.6006 91.2373 49.3109 91.1901 49.029C91.1428 48.747 91.0042 48.4884 90.7955 48.293C90.5273 48.0722 90.2157 47.9103 89.8808 47.8179C89.5459 47.7254 89.1953 47.7044 88.8518 47.7563C88.2632 47.8386 87.6916 48.0149 87.1589 48.2784C87.1226 48.2964 87.0911 48.3227 87.0668 48.3551C86.6165 48.3518 86.1745 48.4768 85.7925 48.7155C84.4047 49.588 84.0926 51.6291 84.2429 53.2631L84.2268 53.2554C81.1943 59.0485 77.4521 64.4414 73.0867 69.3096C70.2988 72.3827 64.4362 75.1468 60.269 76.9587C56.0074 78.8111 51.1692 78.9645 46.752 80.4719C46.7903 80.6483 46.8286 80.8292 46.8639 81.0002C51.2735 79.479 56.104 79.3525 60.4829 77.4486C64.6946 75.6176 70.6254 72.8182 73.4831 69.6684C77.7847 64.8639 81.4918 59.5586 84.5243 53.8673C84.5327 53.8673 84.5381 53.8757 84.5465 53.8757C84.585 53.8758 84.6231 53.8676 84.658 53.8516C84.693 53.8356 84.7242 53.8123 84.7493 53.7831C84.7744 53.754 84.7929 53.7198 84.8036 53.6828C84.8143 53.6459 84.8168 53.607 84.8111 53.569C84.581 51.9228 84.8831 49.9246 86.0793 49.1732C86.3944 48.9782 86.7602 48.8809 87.1306 48.8936C87.5009 48.9063 87.8592 49.0284 88.1602 49.2445C88.2438 49.2943 88.3144 49.3632 88.3662 49.4456C88.4179 49.528 88.4493 49.6215 88.4577 49.7184C88.4577 49.9246 88.2614 50.0404 87.8443 50.2375C87.4663 50.4177 86.8161 50.7267 87.0653 51.0617C87.259 51.3244 87.3903 51.6277 87.4491 51.9487C87.508 52.2697 87.4929 52.5999 87.405 52.9142C87.3881 52.9816 87.398 53.053 87.4328 53.1132C87.4676 53.1734 87.5244 53.2177 87.5913 53.2367C87.6581 53.2557 87.7298 53.248 87.791 53.2151C87.8523 53.1823 87.8983 53.1269 87.9195 53.0606C87.9468 52.9484 87.9665 52.8344 87.9785 52.7194C88.1387 52.8449 88.3258 52.9312 88.5252 52.9717C88.3502 53.1514 88.2342 53.3802 88.1927 53.6275C88.1512 53.8749 88.1862 54.129 88.2929 54.3559C88.3997 54.5829 88.5732 54.7718 88.7902 54.8976C89.0072 55.0233 89.2574 55.0798 89.5074 55.0596C90.1209 55.0708 90.7212 54.8809 91.2167 54.519C91.7122 54.1572 92.0756 53.6431 92.2516 53.0553C92.2603 52.8688 92.2204 52.6834 92.1358 52.517C92.0513 52.3506 91.925 52.209 91.7693 52.106ZM87.7554 51.2128C87.7197 51.125 87.6792 51.0393 87.6342 50.9559C88.1081 50.6392 88.9899 50.4813 88.9891 49.7046C88.953 49.0996 88.516 48.7638 87.9532 48.5384C88.8411 48.2263 89.7114 48.0875 90.4398 48.6917C90.5207 48.7701 90.5834 48.8655 90.6233 48.9709C90.6632 49.0763 90.6794 49.1892 90.6707 49.3016C90.662 49.414 90.6286 49.5231 90.5729 49.6211C90.5172 49.7191 90.4406 49.8036 90.3485 49.8687C90.337 49.8771 90.337 49.8901 90.3278 49.8993C89.5304 50.0435 88.2453 50.4713 87.7554 51.2128ZM88.0935 51.9167C88.0521 51.5908 88.3113 51.2933 88.7023 51.0479C89.5135 50.5403 91.3399 49.8165 91.547 51.0679C91.5747 51.2478 91.5452 51.432 91.4627 51.5943C91.3801 51.7567 91.2487 51.889 91.0869 51.9726C90.9696 52.011 89.2927 52.448 89.0796 52.4687C88.5896 52.5178 88.1572 52.4097 88.0935 51.9151V51.9167ZM91.0555 53.9631C90.599 54.3565 90.0079 54.558 89.4062 54.5251C89.2392 54.5176 89.0794 54.4552 88.9514 54.3477C88.8235 54.2401 88.7346 54.0933 88.6985 53.9301C88.6218 53.01 89.9836 52.816 90.9267 52.5753C91.5715 52.4112 91.7371 52.7608 91.721 52.9863C91.6825 53.1859 91.6037 53.3755 91.4892 53.5435C91.3748 53.7115 91.2272 53.8543 91.0555 53.9631Z" fill="#4B1010"/>
<path d="M45.2139 82.3903C44.2291 82.1084 43.3393 81.5647 42.6392 80.8169C41.7838 79.9346 41.1413 78.8685 40.7606 77.7001C40.6893 77.47 40.5919 76.6458 40.4087 76.5085C41.6964 77.4657 43.1606 78.1588 44.7171 78.5481C45.1886 78.6355 45.6717 78.5481 46.0688 78.8686C46.341 79.1431 46.5274 79.4907 46.6056 79.8692C46.7305 80.2771 46.9889 81.6136 46.9889 81.6136C46.9776 81.7658 46.9325 81.9136 46.8569 82.0463C46.7813 82.1789 46.6771 82.293 46.5519 82.3803C46.1211 82.5416 45.6471 82.5451 45.2139 82.3903Z" fill="#FFE55D"/>
<path d="M46.8106 82.0482C46.8106 82.3549 47.3067 82.2238 47.2706 81.9255C47.0598 80.872 47.0483 81.0223 46.1634 77.8924C46.1462 77.8314 46.1053 77.7798 46.05 77.7488C45.9946 77.7179 45.9292 77.7103 45.8682 77.7276C45.8072 77.7448 45.7556 77.7857 45.7247 77.841C45.6938 77.8964 45.6861 77.9617 45.7034 78.0228C45.7026 78.2428 46.5453 80.6933 46.8106 82.0482Z" fill="#4B1010"/>
<path d="M42.685 83.2383C42.4487 82.6833 42.2546 82.1112 42.1046 81.5269C41.7787 80.3223 41.0097 77.9301 40.6478 76.1497C40.5872 75.8514 40.1325 75.9748 40.1877 76.2716C40.5044 77.9232 41.334 80.5255 41.6699 81.7255C41.8312 82.3242 42.0328 82.9113 42.2733 83.4829C42.4098 83.7573 42.8146 83.4829 42.685 83.2383Z" fill="#4B1010"/>
<path d="M52.859 62.6672C52.5498 62.06 52.1564 61.4996 51.6905 61.0026C49.9782 59.0429 47.7214 57.6371 45.2076 56.9641C45.2666 59.111 43.3168 62.0599 42.3415 63.7521C40.9561 66.2 39.1969 68.4165 37.1276 70.3216C37.0785 70.2319 35.8548 69.0665 35.019 69.489C34.3696 69.8171 34.3159 70.8867 34.3159 71.5132C34.3864 72.2588 34.6975 72.9612 35.2023 73.5144C36.4559 75.1476 37.9457 75.2319 39.2545 75.327C40.203 76.4926 41.3561 77.4753 42.6574 78.2268C46.3025 80.3584 51.2105 79.5518 53.2983 75.5693C55.4399 71.4756 54.1394 66.8046 52.859 62.6672Z" fill="white"/>
<path d="M46.6676 79.373C42.8914 79.2825 39.6618 76.4762 37.965 73.308C37.9259 73.2551 37.8686 73.2186 37.8042 73.2052C37.7397 73.1919 37.6727 73.2028 37.6158 73.2358C37.5589 73.2688 37.5161 73.3216 37.4957 73.3842C37.4752 73.4467 37.4785 73.5146 37.505 73.5748C39.9846 77.8901 43.5424 79.7855 46.7635 79.853L46.6676 79.373Z" fill="#4B1010"/>
<path d="M36.9964 71.4189C36.8616 71.0879 36.6131 70.8157 36.2956 70.6514C35.9781 70.4871 35.6124 70.4415 35.2643 70.5226C34.848 70.676 35.0688 71.1283 35.3747 71.0471C35.8401 70.9236 36.4298 71.1398 36.488 71.5685C36.5685 72.1665 37.1743 71.8759 36.9964 71.4189Z" fill="#4B1010"/>
<path d="M47.9179 67.694C48.3272 68.8091 48.9296 69.8433 49.6975 70.7495C49.8961 71.024 50.3623 70.7495 50.1637 70.4743C49.4657 69.6483 48.9036 68.7165 48.4983 67.714C48.3265 67.2191 48.3265 66.6807 48.4983 66.1858C48.6877 65.677 48.9456 65.1964 49.2651 64.7574C49.4483 64.4675 48.9837 64.1961 48.7989 64.4905C48.1924 65.4536 47.559 66.3852 47.9179 67.694Z" fill="#4B1010"/>
<path d="M52.8175 64.8685C53.0344 65.064 53.4554 64.8079 53.2008 64.4959C53.0339 64.2653 52.8048 64.087 52.5404 63.9817C52.2759 63.8765 51.9869 63.8487 51.7072 63.9016C51.2371 64 50.8011 64.2199 50.4425 64.5395C50.084 64.859 49.8155 65.267 49.6638 65.7226C49.6522 65.7573 49.6478 65.794 49.6508 65.8304C49.6538 65.8668 49.6642 65.9023 49.6813 65.9346C49.6984 65.9669 49.7219 65.9954 49.7504 66.0183C49.7789 66.0413 49.8117 66.0582 49.8469 66.0681C49.8821 66.0779 49.9189 66.0806 49.9551 66.0758C49.9914 66.071 50.0263 66.0589 50.0577 66.0402C50.0891 66.0215 50.1164 65.9967 50.1379 65.9671C50.1595 65.9376 50.1748 65.904 50.1829 65.8683C50.2274 65.8062 50.5663 64.7404 51.4273 64.459C51.6723 64.3689 51.9398 64.36 52.1902 64.4337C52.4405 64.5075 52.6605 64.6599 52.8175 64.8685Z" fill="#4B1010"/>
<path d="M45.9169 66.1968C45.1691 65.8314 44.3193 65.7314 43.5071 65.9133C42.695 66.0951 41.9689 66.548 41.4483 67.1974C41.2336 67.4642 41.6101 67.8483 41.8225 67.5807C42.2613 67.0182 42.8778 66.6209 43.5714 66.4538C44.265 66.2867 44.9948 66.3596 45.6417 66.6606C45.9568 66.8048 46.2236 66.3478 45.9169 66.1968Z" fill="#4B1010"/>
<path d="M54.654 69.1929C54.4882 68.9822 54.2754 68.8132 54.0328 68.6992C53.7901 68.5852 53.5242 68.5294 53.2561 68.5362C52.9881 68.5431 52.7254 68.6124 52.4889 68.7386C52.2523 68.8649 52.0485 69.0446 51.8937 69.2635C51.1898 70.4351 51.6407 71.9157 52.3836 72.3013C52.5452 72.377 52.725 72.405 52.902 72.3818C53.4463 72.7353 54.0812 72.2653 54.5888 71.9778C54.7667 71.8803 54.9216 71.7457 55.043 71.5831C55.1643 71.4205 55.2492 71.2337 55.2919 71.0354C55.326 70.7004 55.2866 70.362 55.1764 70.0437C55.0662 69.7255 54.8879 69.4352 54.654 69.1929ZM52.7647 71.8942C52.6822 71.7411 52.6331 71.5723 52.6206 71.3989C52.7097 71.5201 52.8267 71.6181 52.9615 71.6848C53.0964 71.7515 53.2453 71.7849 53.3957 71.7822C53.2288 71.8836 53.0358 71.9338 52.8406 71.9264C52.8147 71.9171 52.7894 71.9064 52.7647 71.8942ZM52.3499 70.8453C52.3719 70.943 52.4043 71.0381 52.4465 71.129C52.4163 71.3307 52.4302 71.5366 52.4871 71.7324C52.3631 71.6182 52.2786 71.4675 52.2458 71.3021C52.213 71.1367 52.2336 70.9652 52.3047 70.8123L52.3499 70.8453ZM53.5414 70.8192C53.4947 70.7802 53.4635 70.7257 53.4535 70.6656C53.4435 70.6055 53.4554 70.5439 53.487 70.4918C53.5275 70.4931 53.568 70.4967 53.6081 70.5025C53.638 70.6697 53.5867 70.843 53.5399 70.8192H53.5414ZM53.2048 70.8598C53.1636 70.7553 53.153 70.6412 53.1742 70.5309C53.2131 70.5197 53.2528 70.5115 53.293 70.5064C53.2758 70.5524 53.2652 70.6007 53.2616 70.6498C53.2616 70.833 53.4095 71.0331 53.5683 71.0132C53.5166 71.0345 53.4598 71.0398 53.4051 71.0285C53.3505 71.0171 53.3005 70.9896 53.2616 70.9495V70.8598H53.2048ZM53.0446 71.0293C52.9432 70.9793 52.8437 70.9256 52.7463 70.8683C52.8299 70.7057 52.7363 70.774 52.9204 70.6513C52.9356 70.7844 52.9778 70.9131 53.0446 71.0293ZM53.4279 70.2963C53.367 70.3 53.3065 70.3087 53.247 70.3223C53.2615 70.2932 53.2816 70.2672 53.306 70.2457L53.3099 70.2403C53.3353 70.2311 53.3627 70.2283 53.3895 70.2323C53.4162 70.2364 53.4416 70.247 53.4632 70.2633C53.4456 70.2656 53.4379 70.2863 53.4241 70.2963H53.4279ZM53.7346 70.9212C53.8028 70.8055 53.8331 70.6715 53.8213 70.5378C53.8588 70.5852 53.891 70.6366 53.9171 70.6912C53.832 70.7977 53.8665 70.8054 53.7285 70.9212H53.7346ZM54.0199 70.4895C53.5943 69.8355 53.0361 69.9681 52.9349 70.4259C52.8556 70.4541 52.7829 70.4985 52.7217 70.5563C52.6604 70.6141 52.6119 70.6841 52.5792 70.7617L52.5286 70.7287C52.5019 70.601 52.4936 70.4701 52.504 70.34C52.6574 70.0532 52.856 69.8086 53.0683 69.7672C53.2987 69.7417 53.5314 69.7877 53.7346 69.8991C53.824 69.933 53.9052 69.9852 53.9731 70.0525C54.0425 70.1875 54.057 70.344 54.0137 70.4895H54.0199ZM52.9924 71.2125C53.118 71.3048 53.2654 71.3627 53.4201 71.3807C53.5748 71.3987 53.7316 71.3762 53.875 71.3153C53.6104 71.7286 52.9717 71.6818 52.652 71.0929C52.652 71.0745 52.6689 71.063 52.6735 71.0446C52.7593 71.0983 52.8606 71.1543 52.9863 71.2125H52.9924ZM54.128 70.9956C54.153 70.9058 54.153 70.8109 54.128 70.7211C54.1914 70.6108 54.2267 70.4865 54.2307 70.3593C54.2347 70.2322 54.2074 70.106 54.151 69.9919C54.2436 70.0857 54.3129 70.1999 54.3534 70.3254C54.4075 70.6065 54.3732 70.8974 54.2553 71.1581C53.9647 71.4188 54.1771 71.2885 54.1219 70.9956H54.128ZM54.5397 70.2809C54.2675 69.2742 52.4856 68.9506 52.3223 70.2809C52.2863 70.3499 52.2502 70.4182 52.2211 70.4887C52.1905 70.4554 52.1626 70.4198 52.1375 70.3822C52.0805 70.2454 52.0711 70.0934 52.1107 69.9507C52.1503 69.8079 52.2367 69.6825 52.356 69.5947C52.6244 69.4122 52.9424 69.3168 53.2669 69.3217C54.4746 69.186 55.2743 70.0241 54.5413 70.8752C54.5778 70.6786 54.5762 70.4769 54.5367 70.2809H54.5397ZM52.0585 69.3685C52.1974 69.1751 52.3794 69.0166 52.5902 68.9057C52.8009 68.7948 53.0346 68.7345 53.2727 68.7296C53.5108 68.7247 53.7467 68.7753 53.9619 68.8774C54.177 68.9795 54.3654 69.1303 54.5121 69.3179C54.5548 69.3697 54.5947 69.4237 54.6317 69.4797C54.4368 69.3321 54.2141 69.2255 53.9769 69.166C53.7398 69.1066 53.4931 69.0957 53.2516 69.1339C52.8917 69.1297 52.5393 69.2368 52.2426 69.4406C52.0862 69.5555 51.9736 69.7202 51.9231 69.9076C51.8727 70.095 51.8875 70.294 51.965 70.4719C52.0163 70.5504 52.0765 70.6227 52.1444 70.6873C52.087 70.8523 52.0549 71.025 52.0493 71.1995C52.0533 71.3827 52.1104 71.5608 52.2135 71.7123C52.3167 71.8638 52.4615 71.9821 52.6305 72.0529C52.6558 72.1017 52.6843 72.1488 52.7156 72.194C51.9727 72.1357 51.3232 70.5815 52.0524 69.3685H52.0585ZM52.9142 72.1112C53.2714 72.0848 53.6099 71.9415 53.8773 71.7033C53.6276 71.9525 53.308 72.1198 52.961 72.1832C52.9342 72.1618 52.9265 72.1342 52.9081 72.1112H52.9142ZM55.1102 70.9979C55.0723 71.1696 54.9979 71.3312 54.8921 71.4717C54.7863 71.6122 54.6514 71.7283 54.4968 71.8121C54.1364 72.0153 53.6534 72.3696 53.2401 72.3113C53.4993 72.2263 53.7383 72.089 53.9424 71.908C54.1464 71.7269 54.3111 71.5058 54.4263 71.2585C54.493 71.1949 54.5627 71.1428 54.6279 71.0745C54.7572 70.9548 54.8576 70.8073 54.9215 70.6432C54.9853 70.479 55.0111 70.3024 54.9967 70.1268C55.1058 70.4034 55.1428 70.7031 55.1041 70.9979H55.1102Z" fill="#FFE55D"/>
<path d="M43.6767 71.6454C43.4784 71.3939 43.2241 71.1922 42.9341 71.0563C42.6441 70.9204 42.3264 70.8541 42.0063 70.8625C41.6861 70.871 41.3724 70.9541 41.09 71.1052C40.8076 71.2563 40.5644 71.4712 40.3797 71.7328C39.5654 73.1275 40.132 74.8657 40.9823 75.325C41.1662 75.4183 41.3727 75.4579 41.5781 75.4392C42.2252 75.8755 42.9812 75.2905 43.5831 74.9416C44.5362 74.3865 44.8575 72.9243 43.6767 71.6454ZM41.3688 74.8826C41.2457 74.6532 41.1889 74.3941 41.2047 74.1342C41.333 74.3349 41.522 74.4893 41.7442 74.5751C41.9663 74.6608 42.2101 74.6735 42.4399 74.6112C42.3678 74.6587 42.3073 74.7124 42.2314 74.7576C42.0219 74.8852 41.7812 74.9524 41.5359 74.9516C41.478 74.9342 41.422 74.9111 41.3688 74.8826ZM41.2714 73.7823C41.7376 74.0683 42.3448 74.421 42.8087 74.0974C42.7826 74.1533 42.7462 74.2038 42.7014 74.2462C42.5873 74.3405 42.4521 74.406 42.3074 74.4369C42.1626 74.4679 42.0125 74.4635 41.8698 74.4241C41.7271 74.3846 41.5961 74.3113 41.4877 74.2104C41.3794 74.1095 41.2971 73.9839 41.2476 73.8444C41.2543 73.8232 41.2622 73.8025 41.2714 73.7823ZM42.4583 73.4718C42.41 73.7018 42.1639 73.4342 42.285 73.1497C42.3475 73.1499 42.4098 73.155 42.4714 73.1651L42.4798 73.1237C42.5081 73.2395 42.4992 73.3613 42.4545 73.4718H42.4583ZM42.3448 72.9649L42.3257 72.8714C42.2743 72.8841 42.228 72.9122 42.193 72.9519C42.1185 72.9567 42.0444 72.9672 41.9714 72.9833C42.0481 72.83 42.1731 72.7441 42.3456 72.8791C42.3709 72.9067 42.393 72.937 42.4115 72.9695L42.3448 72.9649ZM42.0818 73.1582C42.0468 73.2614 42.0476 73.3735 42.084 73.4763C42.1204 73.5791 42.1905 73.6667 42.2827 73.7248C42.3188 73.7419 42.3583 73.7501 42.3982 73.7489C42.438 73.7476 42.477 73.7368 42.5118 73.7175C42.5467 73.6982 42.5764 73.6708 42.5986 73.6377C42.6208 73.6045 42.6347 73.5666 42.6393 73.527C42.6806 73.4244 42.6977 73.3137 42.6891 73.2034C42.7376 73.2641 42.7792 73.3299 42.8133 73.3997L42.7006 73.5247C42.709 73.5316 42.7121 73.5423 42.719 73.55C42.545 73.7723 42.3885 73.8321 42.259 73.8038C42.019 73.7493 41.881 73.3798 41.9109 73.1842C41.9661 73.1713 42.0222 73.1626 42.0788 73.1582H42.0818ZM42.8287 73.7256C42.8328 73.7412 42.8361 73.7571 42.8386 73.7731C42.66 74.1603 42.1601 74.0614 41.7874 73.8582C41.6349 73.7752 41.4846 73.6883 41.3366 73.5975C41.3638 73.5296 41.4047 73.4679 41.4566 73.4164C41.5086 73.3648 41.5705 73.3244 41.6387 73.2977C41.6274 73.4406 41.6634 73.5833 41.7411 73.7038C41.8188 73.8243 41.934 73.9159 42.0689 73.9645C42.2038 74.0131 42.3509 74.0161 42.4876 73.9729C42.6243 73.9297 42.7431 73.8428 42.8256 73.7256H42.8287ZM42.9406 73.2287C42.7905 72.9896 42.5834 72.7915 42.3379 72.6521C42.2627 72.6218 42.1813 72.6098 42.1005 72.6169C42.0196 72.624 41.9416 72.6501 41.8728 72.6931C41.804 72.7361 41.7463 72.7947 41.7044 72.8642C41.6625 72.9337 41.6376 73.0121 41.6318 73.093C41.509 73.1492 41.3947 73.2222 41.2921 73.31C41.1334 73.5101 41.2277 73.53 41.118 73.4633C41.0824 73.3104 41.0695 73.1531 41.0797 72.9964C41.266 72.6314 41.5214 72.317 41.7974 72.2687C42.0797 72.2395 42.3642 72.2967 42.6132 72.4328C42.719 72.467 42.816 72.5238 42.8977 72.5992C42.9565 72.6928 42.991 72.7997 42.998 72.91C43.0049 73.0204 42.9841 73.1307 42.9375 73.231L42.9406 73.2287ZM40.9425 73.5707C40.97 73.676 41.007 73.7786 41.0529 73.8774C40.9926 74.1505 41.0064 74.4348 41.0927 74.7009C40.9377 74.551 40.8328 74.3569 40.7925 74.1451C40.7521 73.9332 40.7783 73.7141 40.8673 73.5178L40.9425 73.5707ZM43.0526 73.885C43.0482 73.8539 43.0415 73.8232 43.0326 73.793C43.0683 73.6802 43.0699 73.5594 43.0372 73.4457C43.1322 73.3084 43.1849 73.1464 43.189 72.9795C43.1931 72.8126 43.1483 72.6482 43.0602 72.5064C43.1998 72.6329 43.3052 72.7924 43.3669 72.9703C43.4352 73.2925 43.4039 73.6278 43.2772 73.9318C43.1627 74.0539 43.0417 74.1696 42.9145 74.2784C42.9996 74.1646 43.0468 74.0271 43.0495 73.885H43.0526ZM43.5486 72.9243C43.1982 71.7282 41.0835 71.3348 40.9011 72.9312C40.8566 73.0186 40.8106 73.106 40.7753 73.1957C40.7056 73.1157 40.6537 73.0217 40.623 72.92C40.5923 72.8183 40.5837 72.7113 40.5975 72.6061C40.6114 72.5008 40.6474 72.3996 40.7033 72.3094C40.7592 72.2191 40.8337 72.1417 40.9218 72.0824C41.2488 71.8589 41.6358 71.7394 42.032 71.7397C43.5065 71.5649 44.5278 72.6598 43.554 73.6565C43.6021 73.4147 43.6003 73.1655 43.5486 72.9243ZM40.5399 71.8378C40.7087 71.6017 40.9302 71.4081 41.1868 71.2724C41.4435 71.1368 41.7282 71.0628 42.0184 71.0563C42.3086 71.0498 42.5963 71.1111 42.8587 71.2351C43.1212 71.3592 43.3511 71.5427 43.5302 71.7711C43.5939 71.8394 43.6376 71.9099 43.692 71.9797C43.2642 71.704 42.768 71.553 42.2591 71.5438C41.7502 71.5346 41.2489 71.6675 40.8113 71.9275C40.6254 72.0592 40.4912 72.2517 40.432 72.4718C40.3728 72.6918 40.3922 72.9256 40.487 73.1329C40.5465 73.2301 40.619 73.3189 40.7025 73.3966C40.6358 73.5908 40.5968 73.7934 40.5867 73.9985C40.5848 74.2143 40.6444 74.4261 40.7587 74.6092C40.8729 74.7922 41.0369 74.9389 41.2315 75.0321C41.2719 75.108 41.3186 75.1803 41.3711 75.2483C40.4694 75.1479 39.6873 73.2992 40.5399 71.8363V71.8378ZM41.5367 75.1348C42.0721 75.0946 42.5748 74.862 42.9521 74.48C42.6197 74.8896 42.1469 75.161 41.6256 75.2414C41.595 75.2084 41.5704 75.1701 41.5398 75.1348H41.5367ZM43.4819 74.776C43.0288 75.0405 42.4207 75.5044 41.9086 75.3825C42.2483 75.2859 42.5621 75.1147 42.8274 74.8816C43.0927 74.6484 43.3026 74.3591 43.4421 74.0346C43.5126 73.9617 43.5954 73.895 43.6606 73.8199C43.8254 73.6826 43.9529 73.5059 44.0314 73.3062C44.1098 73.1065 44.1365 72.8902 44.1091 72.6774C44.2756 73.0437 44.3041 73.4578 44.1894 73.8434C44.0747 74.229 43.8246 74.5602 43.485 74.776H43.4819Z" fill="#FFE55D"/>
<path d="M50.6146 73.3923C50.6606 73.9114 46.9342 73.6223 46.5508 73.5219C47.5476 73.2543 48.4976 72.3403 49.6063 72.46C49.8526 72.4853 50.0841 72.5899 50.2659 72.758C50.4477 72.9261 50.57 73.1487 50.6146 73.3923Z" fill="white"/>
<path d="M50.0497 76.5467C50.4116 76.0293 50.6085 75.4146 50.6148 74.7832C50.4835 75.0029 50.3064 75.1916 50.0954 75.3365C49.8845 75.4814 49.6448 75.5791 49.3926 75.6228C48.8868 75.7083 48.3703 75.7083 47.8645 75.6228C47.2371 75.5626 46.6379 75.3331 46.1309 74.9588C46.8002 76.7637 48.7815 77.9008 50.0497 76.5467Z" fill="white"/>
<path d="M49.5831 76.1444C49.5036 76.225 49.4078 76.2877 49.3021 76.3281C49.1964 76.3686 49.0832 76.3859 48.9702 76.3788C48.9438 76.3755 48.917 76.3776 48.8914 76.385C48.8659 76.3925 48.8421 76.405 48.8216 76.4219C48.801 76.4389 48.7842 76.4598 48.772 76.4835C48.7599 76.5072 48.7527 76.5331 48.7509 76.5596C48.7491 76.5862 48.7528 76.6128 48.7617 76.6379C48.7706 76.663 48.7845 76.686 48.8026 76.7055C48.8207 76.725 48.8426 76.7406 48.8669 76.7514C48.8913 76.7621 48.9175 76.7678 48.9442 76.768C49.1115 76.7765 49.2788 76.7501 49.4354 76.6907C49.5921 76.6312 49.7347 76.5399 49.8543 76.4225C49.885 76.3854 49.9008 76.3382 49.8988 76.2901C49.8968 76.2419 49.8771 76.1962 49.8435 76.1618C49.8099 76.1273 49.7647 76.1064 49.7166 76.1032C49.6685 76.1 49.621 76.1147 49.5831 76.1444Z" fill="white"/>
<path d="M51.4389 73.0942L51.3776 73.0866C47.5339 73.8832 44.4331 72.4318 44.8602 73.4607C45.2075 74.0925 45.6747 74.6504 46.2358 75.1031C46.5727 75.4328 46.9712 75.6929 47.4087 75.8685C47.8461 76.0441 48.3139 76.1319 48.7852 76.1267C49.8157 75.9818 50.6645 74.9965 51.2679 74.2168C51.4742 73.9499 51.0954 73.5643 50.8846 73.8426C50.4908 74.3661 50.0281 74.8339 49.509 75.2335C49.2658 75.423 48.9804 75.5511 48.6771 75.6069C48.311 75.6229 47.9471 75.5414 47.6228 75.3707C46.8428 74.9647 46.1719 74.3769 45.6668 73.657C47.6264 73.973 49.6253 73.9559 51.5792 73.6064C51.912 73.5275 51.7755 73.0099 51.4389 73.0942Z" fill="#4B1010"/>
<path d="M30.2877 92.2459C29.8936 92.2642 29.5091 92.3739 29.1647 92.5664C28.8203 92.7588 28.5253 93.0287 28.3031 93.3547C28.0809 93.6807 27.9375 94.054 27.8844 94.4449C27.8312 94.8358 27.8696 95.2338 27.9966 95.6073C28.4927 96.7758 29.7916 97.3639 31.0061 97.7304C38.827 100.091 47.6576 97.7304 55.1817 100.885C54.8612 100.931 54.415 101.252 54.6933 101.374C54.9716 101.496 55.3266 101.046 55.128 100.794C50.2017 100.027 45.2899 101.84 40.4624 103.085C35.635 104.331 30.0515 104.857 26.0476 101.878C25.4917 101.55 25.0626 101.045 24.8297 100.444C24.5969 99.8419 24.574 99.1793 24.7648 98.5631C25.1319 96.2722 26.3112 94.1898 28.0871 92.6967C28.7074 92.1815 29.662 91.7774 30.2877 92.2459Z" fill="#FFB43B"/>
<path d="M27.6476 94.5512C27.7626 92.7716 30.1127 91.5417 31.5642 91.1445C30.41 92.8644 29.5432 94.7605 28.9979 96.7587C28.5546 96.6001 28.1789 96.2947 27.9333 95.8931C27.6877 95.4916 27.5869 95.018 27.6476 94.5512Z" fill="#FFB43B"/>
<path d="M60.4065 80.4043C62.2681 83.5864 60.9946 87.6685 59.2149 90.8996C57.4353 94.1307 55.1136 97.2774 54.8613 100.959C57.5641 93.377 62.8355 92.1877 65.4179 87.7444C68.5271 82.3887 65.5713 75.9656 61.7053 75.9587C60.1772 75.9587 57.8325 76.8903 57.0458 78.2498C57.5572 77.3711 60.201 80.0547 60.4065 80.4043Z" fill="#FFB43B"/>
<path d="M61.7023 75.6912C60.0546 75.6912 57.6439 76.6879 56.8151 78.1149C56.7934 78.1451 56.7784 78.1796 56.7708 78.216C56.7633 78.2524 56.7634 78.29 56.7712 78.3263C56.7789 78.3627 56.7942 78.397 56.816 78.4272C56.8378 78.4573 56.8656 78.4826 56.8977 78.5013C56.9298 78.5201 56.9655 78.532 57.0024 78.5362C57.0394 78.5404 57.0768 78.5369 57.1123 78.5259C57.1478 78.5148 57.1806 78.4965 57.2086 78.4721C57.2367 78.4477 57.2593 78.4177 57.2751 78.384C57.2874 78.3633 57.2958 78.3433 57.3702 78.3418C58.0863 78.3418 59.9886 80.2227 60.1734 80.5393C62.0635 83.7712 60.5675 87.8871 58.9788 90.7708C57.292 93.8332 55.0822 96.8795 54.649 100.394C47.2115 97.5949 38.6324 99.7517 31.0807 97.4722C30.4516 97.2968 29.8516 97.0304 29.2995 96.6817C29.837 94.7652 30.6755 92.9463 31.7838 91.293C31.8142 91.2476 31.83 91.1941 31.8291 91.1395C31.8282 91.085 31.8106 91.032 31.7787 90.9877C31.7469 90.9433 31.7022 90.9099 31.6508 90.8917C31.5993 90.8735 31.5435 90.8714 31.4909 90.8858C30.7651 91.0929 30.0703 91.3964 29.4253 91.7883C28.8667 91.8767 28.3439 92.1192 27.9155 92.4883C26.0969 94.0123 24.8874 96.1398 24.5081 98.482C24.2972 99.1509 24.3188 99.8716 24.5693 100.527C24.8199 101.182 25.2847 101.733 25.8882 102.09C28.1209 103.663 30.8095 104.456 33.5381 104.346C40.7754 104.346 47.5098 100.206 54.4619 100.972C54.0279 101.472 54.8269 101.992 55.2969 101.387C55.3984 101.279 55.4549 101.137 55.4549 100.989C55.4549 100.84 55.3984 100.698 55.2969 100.59C58.0304 93.479 63.0602 92.3404 65.648 87.8786C68.8645 82.3396 65.7837 75.695 61.7023 75.6912ZM27.9102 94.5854C28.0635 93.1569 29.6177 92.1479 30.9288 91.6365C30.0162 93.119 29.3082 94.7181 28.8241 96.3903C28.5114 96.2125 28.2579 95.9465 28.0953 95.6255C27.9328 95.3045 27.8684 94.9428 27.9102 94.5854ZM40.3959 102.827C34.0863 104.454 29.446 104.074 26.1842 101.649C25.6754 101.348 25.2839 100.883 25.074 100.331C24.864 99.778 24.848 99.1705 25.0287 98.6078C25.3537 96.6057 26.3149 94.7617 27.7698 93.3486C27.5742 93.6372 27.4423 93.9642 27.3829 94.3078C27.3236 94.6514 27.3381 95.0037 27.4256 95.3412C27.5131 95.6787 27.6716 95.9937 27.8904 96.2652C28.1092 96.5366 28.3833 96.7583 28.6945 96.9155C29.366 97.4094 30.1237 97.7734 30.9288 97.989C38.009 100.127 45.8038 98.4291 52.7866 100.348C48.5924 100.325 44.4351 101.783 40.3959 102.827ZM65.1864 87.6103C62.9099 91.5307 58.4858 92.8725 55.5852 98.5901C56.3987 95.9379 58.084 93.5073 59.4496 91.0284C61.1043 88.0236 62.6539 83.7175 60.6373 80.2694C60.484 80.0103 58.7741 78.1931 57.6838 77.8595C58.7893 76.8597 60.2119 76.2814 61.7016 76.2264C65.3336 76.2287 68.2043 82.4117 65.1864 87.6103Z" fill="#4B1010"/>
<path d="M54.2622 96.6967C53.921 95.3441 53.1887 94.8266 52.5094 94.8657C52.2794 92.1445 52.504 89.1266 51.9067 86.4184C51.596 85.0152 51.0047 83.6894 50.1684 82.5206C49.3321 81.3518 48.268 80.3643 47.0402 79.6173C46.9792 79.5807 46.9061 79.5699 46.8371 79.5871C46.7681 79.6044 46.7087 79.6483 46.6721 79.7093C46.6355 79.7703 46.6247 79.8434 46.6419 79.9124C46.6592 79.9814 46.7031 80.0408 46.7641 80.0774C47.9301 80.7868 48.9406 81.7247 49.7348 82.8347C50.5289 83.9447 51.0904 85.2039 51.3853 86.5365C51.932 89.02 51.7649 91.8071 51.9351 94.4133C49.9416 92.3362 47.5646 90.9437 45.3825 89.0836C44.2072 88.2076 43.195 87.1319 42.3921 85.9054C42.0084 85.3155 41.7808 84.6378 41.7308 83.9358C41.6808 83.2338 41.8099 82.5307 42.1061 81.8923C42.1356 81.8277 42.1383 81.7541 42.1135 81.6876C42.0887 81.6211 42.0384 81.5671 41.9739 81.5377C41.9093 81.5082 41.8357 81.5055 41.7692 81.5303C41.7027 81.5551 41.6487 81.6054 41.6193 81.6699C41.2861 82.3899 41.1412 83.1826 41.1981 83.9738C41.255 84.765 41.5117 85.5288 41.9444 86.1937C42.7782 87.4683 43.8292 88.5865 45.0497 89.4977C47.3499 91.459 49.8373 92.8913 51.8393 95.1034C50.4668 96.0633 51.0457 99.0184 52.9518 99.0184C53.0934 99.0219 53.2345 99.0009 53.3689 98.9563C53.7641 98.7494 54.0717 98.4074 54.2357 97.9926C54.3997 97.5778 54.4091 97.1178 54.2622 96.6967ZM52.422 95.7589C52.7501 95.7904 52.8744 96.1515 52.8468 96.4804C52.8482 96.5267 52.8387 96.5726 52.819 96.6145C52.7992 96.6563 52.7699 96.6929 52.7333 96.7212C52.6566 96.7649 52.4856 96.62 52.4266 96.485C52.3288 96.2533 52.3266 95.9923 52.4204 95.7589H52.422ZM53.1519 98.4663C52.8841 98.5126 52.6085 98.4656 52.3712 98.333C52.1339 98.2004 51.9494 97.9903 51.8485 97.7379C51.7041 97.4509 51.6278 97.1344 51.6257 96.8131C51.6236 96.4918 51.6956 96.1744 51.8362 95.8854C51.7281 96.5886 52.1429 97.2656 52.6972 97.2656C53.3774 97.2656 53.5614 96.3179 53.2079 95.7137C53.4753 96.0507 53.6627 96.4439 53.7561 96.8638C53.8607 97.1594 53.8573 97.4826 53.7464 97.7759C53.6356 98.0692 53.4244 98.3138 53.1504 98.4663H53.1519Z" fill="#4B1010"/>
<path d="M43.428 91.3787C42.9028 90.7883 42.156 90.365 42.0157 89.7056C41.7956 88.6721 43.0891 87.8884 43.5338 86.6256C44.4616 83.9757 40.7781 81.7821 41.446 79.4304C41.462 79.3633 41.4514 79.2926 41.4165 79.233C41.3816 79.1735 41.325 79.1298 41.2586 79.111C41.1922 79.0922 41.121 79.0997 41.0601 79.1321C40.9991 79.1645 40.9531 79.2192 40.9315 79.2847C40.8879 79.4389 40.8584 79.5968 40.8433 79.7563L37.7111 83.3738C37.662 83.3282 37.5971 83.3034 37.53 83.3045C37.463 83.3056 37.3989 83.3326 37.3513 83.3798C37.3037 83.427 37.2762 83.4908 37.2745 83.5579C37.2728 83.6249 37.2971 83.69 37.3423 83.7396C39.7239 86.529 38.803 87.2122 38.4779 88.5202C38.3061 89.2274 38.3515 89.97 38.6081 90.651C38.8647 91.332 39.3206 91.9199 39.9163 92.3379C40.6165 92.6832 41.2824 93.094 41.9053 93.5647C42.2204 93.9185 42.3945 94.3759 42.3945 94.8498C42.3945 95.3236 42.2204 95.781 41.9053 96.1348C41.8655 96.1798 41.842 96.2369 41.8386 96.2969C41.8352 96.3568 41.8521 96.4162 41.8865 96.4654C41.9209 96.5147 41.9709 96.5509 42.0284 96.5682C42.0859 96.5856 42.1476 96.5831 42.2035 96.5611C42.6896 96.3686 43.1221 96.0615 43.464 95.666C43.806 95.2704 44.0473 94.7982 44.1676 94.2893C44.2878 93.7805 44.2833 93.2501 44.1546 92.7433C44.0258 92.2366 43.7766 91.7684 43.428 91.3787Z" fill="#4B1010"/>
<path d="M39.6223 79.2502C39.3532 78.623 38.8839 77.9291 38.1908 77.8562C38.1724 77.673 38.1409 77.0335 38.1026 74.836C38.1026 74.7648 38.0743 74.6966 38.024 74.6462C37.9737 74.5959 37.9054 74.5676 37.8342 74.5676C37.7631 74.5676 37.6948 74.5959 37.6445 74.6462C37.5941 74.6966 37.5659 74.7648 37.5659 74.836L37.6724 77.9076C36.8789 78.225 36.5921 79.1835 36.3973 80.0146C36.2633 80.5525 36.2781 81.1168 36.4402 81.6469C36.6022 82.1771 36.9055 82.6531 37.3174 83.0241C37.5274 83.1787 37.7777 83.2689 38.0379 83.2839C38.2982 83.2988 38.5572 83.2379 38.7835 83.1084C39.3177 82.6397 39.6874 82.0119 39.8384 81.3175C39.9894 80.623 39.9136 79.8984 39.6223 79.2502ZM37.4961 78.728C37.9232 78.268 38.2736 78.2595 38.3924 78.9757C38.5458 79.553 38.5458 80.6188 37.9653 80.832C37.3274 81.0635 36.9601 79.6228 37.4961 78.728ZM39.3555 81.0681C39.2481 81.7498 38.7137 83.0548 37.8273 82.6875C37.4907 82.4984 37.2199 82.211 37.0512 81.8638C36.8825 81.5165 36.824 81.126 36.8835 80.7446C37.4478 82.0603 38.8954 81.2644 38.9422 80.1795C39.1017 79.3107 38.8011 78.7556 39.0572 79.2701C39.3405 79.8241 39.4445 80.4524 39.3547 81.0681H39.3555Z" fill="white"/>
<path d="M56.0211 84.4168C55.249 83.6401 54.1395 83.1961 54.0743 82.2944C54.0275 81.648 54.5673 81.053 54.8694 80.3584C55.1223 79.7716 55.1997 79.1241 55.0923 78.4942C54.985 77.8643 54.6974 77.279 54.2645 76.8091C53.9831 77.0667 54.5712 76.6971 50.4307 79.1093C50.4261 79.1024 50.4238 79.0948 50.4192 79.0879L49.9837 79.3984C50.1596 79.6441 50.276 79.9272 50.3239 80.2255C50.3718 80.5237 50.3498 80.8291 50.2597 81.1174C50.0414 81.7992 49.8989 82.503 49.835 83.216C49.8848 84.7311 51.0901 86.1059 53.0806 86.901C53.7847 87.1097 54.4397 87.4578 55.0067 87.9246C55.9268 88.8608 55.7167 90.5017 54.9783 91.5468L55.3885 91.888C57.4204 89.8085 58.1312 86.5368 56.0211 84.4168Z" fill="#4B1010"/>
<path d="M46.4137 125.509C46.4967 125.615 46.6019 125.701 46.722 125.762C46.842 125.823 46.9739 125.857 47.1084 125.861C47.2226 125.829 47.3293 125.775 47.422 125.701C53.0377 121.777 58.3511 117.437 63.3174 112.718C60.4989 110.174 58.1143 106.904 55.6254 104.025C54.8587 103.136 46.0303 92.9789 45.9092 93.087C40.864 97.6109 35.956 102.254 31.022 106.836C36.9719 112.341 40.7229 119.819 46.4137 125.509Z" fill="white"/>
<path d="M47.1025 126.128C46.9464 126.128 46.7921 126.095 46.6501 126.03C46.5081 125.966 46.3818 125.871 46.2797 125.753C41.0413 120.616 36.8081 112.554 30.8397 107.03C30.8128 107.005 30.7913 106.974 30.7766 106.941C30.762 106.907 30.7544 106.871 30.7544 106.834C30.7544 106.797 30.762 106.761 30.7766 106.727C30.7913 106.693 30.8128 106.663 30.8397 106.638C32.0987 105.468 41.9714 96.2555 45.73 92.8856C45.7569 92.8616 45.7883 92.8432 45.8224 92.8314C45.8565 92.8195 45.8925 92.8145 45.9286 92.8166C46.1816 92.8327 49.5116 96.5438 55.8273 103.848C56.564 104.707 57.2892 105.576 58.0026 106.455C63.2333 112.824 63.5791 112.331 63.5845 112.715C63.585 112.751 63.5778 112.788 63.5635 112.822C63.5491 112.856 63.5278 112.886 63.5009 112.912C58.5244 117.639 53.2005 121.988 47.574 125.919C47.4386 126.03 47.2756 126.103 47.1025 126.128ZM46.6577 125.374C46.7082 125.437 46.7708 125.488 46.8417 125.526C46.9126 125.563 46.9903 125.586 47.0702 125.593C47.1369 125.57 47.1991 125.536 47.2543 125.492C52.7847 121.626 58.0223 117.356 62.9243 112.718C60.1809 110.188 57.8461 107 55.4224 104.197C53.6911 102.195 47.0373 94.5618 45.9148 93.4377C42.2183 96.7562 32.604 105.728 31.414 106.834C37.3172 112.392 41.473 120.285 46.6577 125.374Z" fill="#4B1010"/>
<path d="M46.7417 122.484C46.7815 122.546 46.8342 122.598 46.8961 122.638C46.958 122.677 47.0277 122.703 47.1005 122.713C47.1732 122.724 47.2473 122.718 47.3177 122.697C47.3881 122.676 47.4532 122.64 47.5084 122.592C52.1148 119.383 56.4725 115.831 60.5447 111.967C58.2529 109.889 56.2746 107.22 54.2428 104.847C53.5933 104.09 46.3752 95.796 46.2686 95.8949C42.2063 99.6453 38.1326 103.402 34.0474 107.166C38.94 111.636 41.9855 117.728 46.7417 122.484Z" fill="white"/>
<path d="M29.254 96.9402L28.7402 96.7907C29.1415 95.3957 29.6748 94.0422 30.3328 92.7484C32.9236 87.6817 37.9236 84.2374 41.6653 82.2385L41.9176 82.7101C38.2449 84.6722 33.3361 88.049 30.8082 92.9922C30.166 94.2559 29.6456 95.5778 29.254 96.9402Z" fill="#4B1010"/>
<path d="M86.9051 55.9304C86.8339 55.9304 86.7657 55.9021 86.7153 55.8518C86.665 55.8015 86.6367 55.7332 86.6367 55.662C86.6367 55.5908 86.665 55.5226 86.7153 55.4723C86.7657 55.4219 86.8339 55.3937 86.9051 55.3937C87.6034 55.3927 88.2974 55.2835 88.9623 55.0701C88.9962 55.0576 89.0322 55.052 89.0683 55.0538C89.1044 55.0556 89.1398 55.0646 89.1722 55.0805C89.2047 55.0963 89.2337 55.1185 89.2573 55.1458C89.281 55.1731 89.2989 55.2049 89.3099 55.2393C89.321 55.2737 89.3249 55.31 89.3215 55.346C89.3182 55.382 89.3076 55.4169 89.2903 55.4486C89.2731 55.4804 89.2496 55.5083 89.2213 55.5308C89.193 55.5532 89.1604 55.5697 89.1256 55.5792C88.4081 55.8106 87.659 55.9291 86.9051 55.9304Z" fill="#4B1010"/>
<path d="M89.7235 66.6317C90.8737 73.1053 91.7562 79.6189 92.4838 86.1554C92.5206 86.492 93.0558 86.4997 93.0206 86.1554C92.3006 79.5729 91.4104 73.011 90.248 66.4868C90.1828 66.1502 89.6637 66.2951 89.7235 66.6317Z" fill="#FFB43B"/>
<path d="M103.091 62.614C104.423 63.768 105.671 65.0161 106.826 66.3488C107.056 66.6103 107.43 66.2338 107.209 65.9746C106.058 64.6337 104.807 63.3825 103.466 62.2321C103.206 62.0098 102.824 62.3839 103.091 62.614Z" fill="#FFB43B"/>
<path d="M106.719 47.7424C114.16 48.8116 121.512 50.4225 128.718 52.5622C128.786 52.5797 128.859 52.5698 128.92 52.5344C128.981 52.4991 129.026 52.4412 129.045 52.3732C129.064 52.3052 129.056 52.2324 129.022 52.1706C128.987 52.1087 128.931 52.0627 128.863 52.0423C121.652 49.9169 114.298 48.3139 106.857 47.2455C106.521 47.1942 106.376 47.7117 106.712 47.7646L106.719 47.7424Z" fill="#FFB43B"/>
<path d="M107.307 35.5971C110.661 34.6119 113.995 33.4234 117.429 32.7402C117.765 32.6735 117.619 32.1575 117.284 32.2204C113.849 32.8691 110.516 34.0997 107.163 35.085C107.101 35.1095 107.051 35.1559 107.022 35.2153C106.992 35.2746 106.986 35.3427 107.004 35.4063C107.022 35.47 107.063 35.5247 107.119 35.56C107.175 35.5952 107.242 35.6084 107.307 35.5971Z" fill="#FFB43B"/>
<path d="M99.936 25.407C103.816 20.532 107.954 15.8684 112.333 11.436C112.382 11.3864 112.41 11.3191 112.41 11.249C112.41 11.1788 112.382 11.1115 112.333 11.0619C112.283 11.0123 112.216 10.9844 112.146 10.9844C112.076 10.9844 112.008 11.0123 111.959 11.0619C107.604 15.5282 103.455 20.19 99.5611 25.0635C99.3479 25.3311 99.7221 25.7129 99.936 25.4468V25.407Z" fill="#FFB43B"/>
<path d="M47.3983 38.4686L58.1758 38.9961C58.2469 38.9961 58.3152 38.9678 58.3655 38.9175C58.4159 38.8672 58.4441 38.7989 58.4441 38.7277C58.4441 38.6566 58.4159 38.5883 58.3655 38.538C58.3152 38.4876 58.2469 38.4594 58.1758 38.4594L47.3983 37.9326C47.3273 37.9326 47.2591 37.9608 47.2089 38.0111C47.1586 38.0614 47.1304 38.1295 47.1304 38.2006C47.1304 38.2717 47.1586 38.3398 47.2089 38.3901C47.2591 38.4403 47.3273 38.4686 47.3983 38.4686Z" fill="#FFB43B"/>
<path d="M54.7467 27.6529C56.7785 28.8674 58.9101 29.9324 60.9036 31.1746C61.195 31.3555 61.4611 30.8924 61.1712 30.7084C59.1777 29.4432 57.0461 28.4166 55.0142 27.1944C54.9543 27.1689 54.8872 27.1662 54.8254 27.1867C54.7636 27.2072 54.7114 27.2496 54.6786 27.3058C54.6458 27.362 54.6346 27.4283 54.6471 27.4922C54.6596 27.5561 54.695 27.6132 54.7467 27.6529Z" fill="#FFB43B"/>
<path d="M85.935 17.6689C85.2935 13.2387 84.7841 8.79153 84.4069 4.32751C84.4069 3.99168 83.8418 3.98401 83.8702 4.32751C84.2689 8.83446 84.8117 13.3284 85.4435 17.8177C85.4911 18.1535 86.0094 18.0086 85.9557 17.672L85.935 17.6689Z" fill="#FFB43B"/>
<path d="M63.1646 114.151C63.1961 114.047 63.1978 113.936 63.1693 113.83C63.1409 113.725 63.0834 113.63 63.0036 113.556C62.9153 113.528 62.8218 113.521 62.7305 113.536C62.6391 113.55 62.5523 113.586 62.4768 113.639L61.0024 114.406C61.7305 113.951 62.3359 113.324 62.7659 112.58C62.8673 112.441 62.9352 112.28 62.9643 112.111C62.9935 111.941 62.983 111.767 62.9338 111.602C62.6662 111.022 61.6196 111.923 60.9096 112.61C61.4605 112.111 61.8141 111.431 61.9064 110.693C61.9297 110.573 61.9141 110.448 61.8618 110.337C61.8096 110.225 61.7235 110.134 61.6158 110.075C61.5102 110.059 61.4025 110.069 61.3016 110.104C61.2006 110.138 61.1094 110.196 61.0354 110.273C60.0125 111.04 59.0801 112.091 57.8196 112.412C58.2656 112.027 58.6678 111.594 59.0188 111.121C59.8078 110.205 59.1353 109.675 58.2705 110.098C56.5904 110.937 55.2442 112.321 54.4513 114.023C51.2309 114.123 48.0022 114.358 44.7864 114.144C41.5707 113.931 38.174 113.878 35.1415 113.191C35.1629 113.067 35.1591 112.491 35.1415 111.693C33.8204 110.04 32.3843 108.483 30.8438 107.032C30.8169 107.007 30.7955 106.977 30.7808 106.943C30.7661 106.909 30.7585 106.873 30.7585 106.836C30.7585 106.799 30.7661 106.763 30.7808 106.729C30.7955 106.696 30.8169 106.665 30.8438 106.64L33.3174 104.34C31.368 104.36 29.4378 103.954 27.6611 103.152C27.3689 105.708 26.9235 108.55 26.8176 111.117C26.6996 113.943 26.0509 117.372 28.3074 119.519C29.1082 120.182 30.0699 120.622 31.0953 120.795C39.7795 122.865 47.4639 120.687 55.7747 118.264C58.0045 118.433 60.2345 117.939 62.1839 116.843C62.5581 116.639 62.9668 116.115 62.644 115.847C62.5866 115.82 62.5241 115.806 62.4607 115.806C62.3974 115.806 62.3348 115.82 62.2775 115.847L61.2922 116.06C62.072 115.526 62.9162 115.158 63.1646 114.151Z" fill="white"/>
<path d="M30.8396 107.03C30.8127 107.005 30.7913 106.974 30.7766 106.94C30.7619 106.907 30.7543 106.87 30.7543 106.834C30.7543 106.797 30.7619 106.761 30.7766 106.727C30.7913 106.693 30.8127 106.663 30.8396 106.638L33.3132 104.337C31.3757 104.356 29.4571 103.955 27.6891 103.163C27.6124 103.708 27.4928 104.403 27.4468 104.812C28.2963 105.921 29.4972 106.708 30.8527 107.045L30.8396 107.03Z" fill="#FFE55D"/>
<path d="M63.4231 114.175C63.4831 114.007 63.4819 113.823 63.4196 113.656C63.3574 113.489 63.238 113.349 63.0827 113.261C62.4969 113.08 62.4693 113.591 62.9822 112.695C63.11 112.518 63.1944 112.313 63.2286 112.097C63.2629 111.882 63.246 111.661 63.1793 111.453C63.1452 111.368 63.0907 111.293 63.0205 111.235C62.9504 111.177 62.8669 111.138 62.7775 111.12C62.5214 111.095 62.2647 111.161 62.0522 111.306C62.1171 111.111 62.1552 110.908 62.1656 110.702C62.2062 110.51 62.1765 110.311 62.0821 110.139C61.9876 109.968 61.8347 109.836 61.6512 109.768C61.5102 109.746 61.3659 109.757 61.23 109.801C61.0942 109.845 60.9705 109.92 60.8691 110.02C60.2764 110.48 59.6929 111.034 59.0948 111.455C59.446 111.022 59.8892 110.508 59.5449 109.985C59.2482 109.534 58.6432 109.609 58.1763 109.832C56.5101 110.617 55.1943 111.992 54.4828 113.691C48.2044 114.127 41.8989 113.97 35.6499 113.222C35.1017 113.159 35.3432 112.186 35.3432 111.242H34.8065C34.8065 112.192 34.463 113.619 35.5855 113.753C41.8489 114.503 48.1689 114.663 54.4621 114.231C54.6446 114.217 54.8662 114.149 54.9298 113.993C55.5807 112.372 56.8207 111.057 58.4009 110.312C58.6731 110.184 58.9982 110.131 59.0956 110.279C59.1784 110.405 59.0902 110.621 58.8242 110.931C58.4761 111.384 58.0799 111.797 57.6426 112.164C57.5962 112.203 57.5644 112.257 57.5523 112.316C57.5402 112.375 57.5486 112.437 57.5761 112.491C57.6036 112.545 57.6486 112.588 57.7037 112.613C57.7588 112.638 57.8208 112.643 57.8795 112.629C59.6607 112.175 61.0232 110.278 61.5216 110.292C61.5707 110.334 61.6073 110.388 61.6271 110.449C61.6469 110.509 61.6491 110.575 61.6335 110.637C61.5852 111.564 60.8054 112.324 60.1085 112.958C60.0587 113.007 60.0296 113.072 60.0272 113.141C60.0247 113.211 60.0492 113.278 60.0955 113.33C60.1417 113.381 60.2062 113.413 60.2752 113.418C60.3442 113.423 60.4126 113.401 60.4658 113.356C60.6659 113.179 62.306 111.516 62.6755 111.636C62.7128 111.766 62.7191 111.903 62.6941 112.036C62.6691 112.169 62.6134 112.295 62.5314 112.403C62.1234 113.108 61.5487 113.703 60.8576 114.135C60.7961 114.171 60.751 114.229 60.7323 114.297C60.7136 114.365 60.7228 114.438 60.7579 114.5C60.793 114.561 60.8511 114.606 60.9194 114.625C60.9877 114.644 61.0606 114.634 61.1221 114.599C62.7461 113.751 62.7591 113.724 62.8734 113.75C62.9155 113.772 62.937 113.899 62.901 114.047C62.7039 114.849 62.0874 115.197 61.3751 115.592L61.1451 115.719C61.0903 115.751 61.0487 115.801 61.0277 115.861C61.0067 115.921 61.0077 115.986 61.0304 116.046C61.0532 116.105 61.0962 116.154 61.1519 116.185C61.2076 116.215 61.2723 116.225 61.3345 116.212L62.3681 115.982C62.6334 115.868 62.3826 116.317 62.043 116.502C60.1315 117.557 57.9568 118.039 55.7786 117.891C55.7295 117.888 55.6804 117.898 55.6367 117.921C55.5929 117.944 55.5561 117.978 55.5302 118.02C47.1197 120.47 39.8218 122.551 31.1576 120.483C30.1848 120.32 29.2719 119.904 28.51 119.278C26.679 117.534 26.8553 114.908 27.0271 112.367C27.1354 109.29 27.4453 106.224 27.9548 103.187L27.4588 102.925C26.9875 105.614 26.6901 108.33 26.5686 111.058C26.4436 114.028 25.8187 117.453 28.155 119.678C28.987 120.367 29.9858 120.825 31.051 121.007C39.8379 123.105 47.4004 120.945 56.0117 118.436C58.2038 118.552 60.3839 118.044 62.2991 116.972C63.1072 116.53 63.2629 115.586 62.5912 115.446C63.0047 115.129 63.298 114.681 63.4231 114.175Z" fill="#4B1010"/>
<path d="M78.4169 73.8903C78.2291 73.6533 77.9887 73.4634 77.7148 73.3356C77.4408 73.2078 77.1408 73.1457 76.8387 73.1541C76.5365 73.1625 76.2404 73.2412 75.974 73.3841C75.7076 73.5269 75.4781 73.7299 75.3039 73.9769C74.5034 75.3134 75.0194 76.9435 75.8521 77.3982C76.0188 77.4663 76.1996 77.4926 76.3788 77.4748C76.9861 77.8927 77.6931 77.3345 78.2742 77.0048C79.4451 76.3416 79.3301 74.8847 78.4169 73.8903ZM76.0974 75.9015C76.2401 75.9843 76.3926 76.0671 76.5299 76.1315C76.6768 76.2377 76.8495 76.3025 77.0299 76.3191C77.2104 76.3357 77.392 76.3034 77.5558 76.2258C77.2721 76.7265 76.4394 76.6682 76.0913 75.9114L76.0974 75.9015ZM76.4632 75.446C76.475 75.6149 76.5259 75.7787 76.6119 75.9245H76.6748C76.7289 75.9948 76.8006 76.0495 76.8826 76.0832C76.641 75.9832 76.4075 75.8647 76.1841 75.7289C76.2355 75.6331 76.2071 75.5833 76.4655 75.446H76.4632ZM77.0835 75.3272C77.1298 75.329 77.1759 75.3338 77.2215 75.3417L77.2453 75.2359C77.2754 75.3075 77.2869 75.3855 77.2787 75.4628C77.2705 75.54 77.2429 75.6139 77.1985 75.6776C77.1418 75.7213 77.0551 75.5633 77.0551 75.4774C77.0555 75.4261 77.0651 75.3752 77.0835 75.3272ZM76.983 75.1263C76.919 75.1286 76.8552 75.1355 76.7921 75.147C76.8527 75.009 76.9585 74.9361 77.1111 75.0427C77.0608 75.0566 77.016 75.0858 76.983 75.1263ZM76.8841 75.3256C76.8536 75.423 76.8564 75.5277 76.8919 75.6234C76.9274 75.719 76.9938 75.8001 77.0804 75.8539C77.3304 75.9743 77.4914 75.6461 77.4638 75.3586C77.51 75.418 77.5491 75.4826 77.5803 75.5511C77.5711 75.5641 77.483 75.6584 77.4722 75.6699L77.4814 75.6829C77.2951 75.913 77.026 76.0264 76.842 75.8294V75.7335H76.7799C76.7314 75.6103 76.7171 75.4763 76.7384 75.3456C76.7865 75.3354 76.8352 75.3288 76.8841 75.3256ZM77.0014 76.1154C77.1134 76.1248 77.226 76.1066 77.3293 76.0622C77.4325 76.0178 77.5232 75.9486 77.5934 75.8608C77.6286 75.9666 77.3971 76.199 77.0022 76.1154H77.0014ZM77.6961 75.3555C77.5556 75.1357 77.3617 74.955 77.1326 74.8303C77.0627 74.8007 76.9867 74.7883 76.911 74.7942C76.8353 74.8001 76.7622 74.8241 76.6977 74.8641C76.6332 74.9042 76.5793 74.9591 76.5405 75.0244C76.5017 75.0896 76.4791 75.1632 76.4747 75.239C76.3753 75.2687 76.2829 75.3179 76.2027 75.3838C76.1225 75.4496 76.0563 75.5307 76.0077 75.6224L75.9962 75.6155C75.9594 75.4489 75.9506 75.2773 75.9702 75.1079C76.1427 74.7805 76.3719 74.5006 76.6173 74.4554C76.8824 74.4298 77.1492 74.4831 77.384 74.6087C77.4851 74.6465 77.5772 74.7047 77.6547 74.7797C77.7047 74.8663 77.7344 74.9631 77.7416 75.0629C77.7488 75.1626 77.7332 75.2627 77.6961 75.3555ZM75.8475 75.7496C75.8579 75.8089 75.8718 75.8675 75.8889 75.9252C75.8298 76.1699 75.8298 76.4251 75.8889 76.6697C75.7774 76.5337 75.7047 76.37 75.6785 76.196C75.6524 76.0221 75.6736 75.8443 75.7401 75.6814L75.8475 75.7496ZM76.0376 76.2051C76.148 76.3898 76.3109 76.5374 76.5055 76.6291C76.7001 76.7209 76.9176 76.7526 77.1303 76.7203C77.1034 76.7364 77.0827 76.7549 77.0536 76.7702C76.8449 76.8984 76.6037 76.9636 76.3589 76.958C76.2886 76.9387 76.2209 76.9109 76.1573 76.8752C76.0631 76.665 76.022 76.4349 76.0376 76.2051ZM77.8134 76.0073C77.8093 75.9762 77.8029 75.9454 77.7943 75.9153C77.8254 75.8057 77.8254 75.6897 77.7943 75.5802C77.8733 75.455 77.9184 75.3114 77.925 75.1635C77.9316 75.0156 77.8995 74.8685 77.8318 74.7368C77.9485 74.8489 78.0359 74.9879 78.0864 75.1416C78.1502 75.4574 78.1137 75.7853 77.9821 76.0793C77.5389 76.485 77.8119 76.3025 77.8134 76.0073ZM78.2735 75.0933C77.9668 73.9907 76.0277 73.6457 75.7892 75.0404C75.7354 75.1419 75.6873 75.2464 75.6451 75.3532C75.6011 75.3058 75.5616 75.2545 75.527 75.1999C75.4584 75.0428 75.4458 74.867 75.4913 74.7017C75.5368 74.5365 75.6376 74.3919 75.7769 74.2921C76.0806 74.0835 76.4415 73.9745 76.8098 73.98C77.3464 73.894 77.8953 74.0248 78.3356 74.3434C78.4349 74.4396 78.5126 74.5558 78.5637 74.6842C78.6148 74.8127 78.6381 74.9505 78.632 75.0886C78.6259 75.2267 78.5906 75.362 78.5284 75.4854C78.4662 75.6089 78.3786 75.7178 78.2712 75.8048C78.3214 75.5704 78.3222 75.3281 78.2735 75.0933ZM75.4641 74.082C75.6222 73.8599 75.8299 73.6777 76.0706 73.5499C76.3114 73.4221 76.5786 73.3521 76.8511 73.3455C77.1237 73.339 77.3939 73.396 77.6406 73.5122C77.8872 73.6283 78.1034 73.8003 78.2719 74.0145C78.3072 74.0536 78.3341 74.0965 78.367 74.1364C77.9114 73.8239 77.3521 73.7009 76.8075 73.7937C76.4004 73.7847 76.0011 73.9055 75.6673 74.1387C75.4917 74.2659 75.3652 74.4497 75.3094 74.6592C75.2535 74.8687 75.2716 75.0911 75.3606 75.2888C75.4209 75.386 75.4944 75.4743 75.5791 75.5511C75.522 75.7245 75.49 75.9053 75.484 76.0878C75.4827 76.2763 75.5318 76.4618 75.6262 76.625C75.7205 76.7883 75.8567 76.9233 76.0208 77.0163C76.0665 77.1116 76.1226 77.2016 76.1879 77.2847C75.3729 77.2218 74.6253 75.4859 75.4641 74.082ZM76.3236 77.1413C76.6148 77.1619 76.905 77.0897 77.1525 76.935C77.3323 76.8269 77.506 76.7092 77.6731 76.5823C77.3546 76.9523 76.9159 77.1983 76.434 77.277C76.3942 77.2343 76.3573 77.189 76.3236 77.1413ZM78.1807 76.8346C77.7613 77.0723 77.1839 77.5193 76.7078 77.4112C77.0235 77.321 77.3161 77.1639 77.5657 76.9506C77.8153 76.7374 78.0162 76.4729 78.1546 76.1752C78.499 75.9237 78.7384 75.5541 78.8271 75.137C78.8283 75.06 78.8224 74.983 78.8094 74.907C78.9647 75.2487 78.9863 75.6362 78.8699 75.993C78.7535 76.3499 78.5076 76.6501 78.1807 76.8346Z" fill="#FFE55D"/>
<path d="M30.8678 116.215C30.6811 115.977 30.4414 115.786 30.1678 115.657C29.8942 115.528 29.5944 115.465 29.292 115.473C28.9897 115.48 28.6933 115.558 28.4264 115.7C28.1595 115.842 27.9295 116.045 27.7548 116.292C26.9573 117.618 27.481 119.268 28.3091 119.721C28.476 119.79 28.6577 119.817 28.8374 119.797C29.4454 120.208 30.1516 119.652 30.732 119.328C31.9044 118.673 31.7879 117.2 30.8678 116.215ZM28.9992 116.805C29.2643 116.78 29.5309 116.833 29.7659 116.958C29.8661 116.994 29.9562 117.053 30.0289 117.131C30.0738 117.207 30.1027 117.292 30.114 117.38C30.1254 117.468 30.1188 117.557 30.0949 117.642C30.009 117.517 29.9057 117.406 29.7882 117.31C29.7261 117.232 29.6421 117.174 29.5471 117.144C29.452 117.114 29.3501 117.113 29.2544 117.142C29.1588 117.17 29.0738 117.226 29.0103 117.303C28.9468 117.38 28.9077 117.474 28.898 117.573C28.8007 117.605 28.711 117.657 28.6343 117.725C28.5576 117.793 28.4955 117.875 28.4517 117.968C28.3972 117.752 28.3933 117.526 28.4402 117.309C28.5526 117.073 28.7536 116.892 28.9992 116.805ZM29.1027 117.918C29.0967 117.842 29.1008 117.766 29.115 117.692C29.162 117.677 29.2103 117.666 29.2591 117.659C29.1571 118.042 29.4723 118.349 29.7054 118.176C29.7672 118.099 29.8109 118.009 29.8333 117.913C29.8558 117.816 29.8563 117.716 29.8349 117.62C29.8997 117.69 29.9542 117.769 29.9967 117.854L29.9684 117.893C29.7299 118.319 29.2614 118.479 29.1027 117.918ZM29.6149 117.965C29.5681 118.169 29.3358 117.881 29.4715 117.641C29.529 117.641 29.5864 117.646 29.6433 117.655C29.6662 117.759 29.6571 117.867 29.6172 117.965H29.6149ZM30.0274 118.139C30.0322 118.148 30.0366 118.157 30.0404 118.166C30.0085 118.27 29.9385 118.358 29.8445 118.413C29.7504 118.468 29.6392 118.485 29.5328 118.462C29.7328 118.421 29.9097 118.306 30.0274 118.139ZM28.8918 117.788C28.8943 117.846 28.9025 117.903 28.9164 117.959C28.9586 118.278 29.2131 118.395 29.0391 118.297C28.8994 118.228 28.7621 118.154 28.6273 118.076C28.6971 117.936 28.6565 117.922 28.8918 117.788ZM28.9509 118.466C29.1063 118.58 29.2921 118.646 29.4849 118.654C29.6776 118.663 29.8686 118.614 30.0335 118.514C30.0088 118.572 29.9723 118.624 29.9262 118.667C29.8168 118.758 29.6868 118.82 29.5477 118.848C29.4086 118.876 29.2646 118.87 29.1286 118.829C28.9926 118.789 28.8687 118.715 28.7678 118.615C28.667 118.515 28.5924 118.392 28.5506 118.256C28.6802 118.327 28.819 118.402 28.9509 118.469V118.466ZM30.2321 118.177C30.2498 118.075 30.2421 117.969 30.2099 117.871C30.2797 117.739 30.3141 117.591 30.3097 117.442C30.3052 117.292 30.2621 117.147 30.1846 117.019C29.9249 116.776 29.585 116.636 29.2292 116.626C29.4433 116.597 29.6612 116.627 29.8599 116.711C30.0585 116.796 30.2305 116.933 30.3576 117.108C30.4848 117.283 30.5622 117.488 30.5818 117.704C30.6014 117.919 30.5625 118.135 30.469 118.33C30.3875 118.411 30.3031 118.49 30.216 118.565C30.271 118.443 30.2762 118.304 30.2306 118.177H30.2321ZM30.7251 117.421C30.4729 116.362 28.6465 115.948 28.2784 117.204C28.1855 117.35 28.1062 117.504 28.0415 117.664C28.0042 117.625 27.9701 117.582 27.9395 117.537C27.8718 117.38 27.8597 117.204 27.9051 117.039C27.9505 116.874 28.0509 116.73 28.1895 116.629C28.4952 116.42 28.8586 116.311 29.2292 116.317C30.6653 116.137 31.4643 117.172 30.7397 118.044C30.776 117.837 30.7711 117.626 30.7251 117.421ZM28.132 117.994C28.1711 118.022 28.2294 118.059 28.2961 118.101C28.3122 118.154 28.3237 118.21 28.3444 118.26C28.2788 118.546 28.2939 118.844 28.3881 119.121C28.2278 118.987 28.1159 118.804 28.0697 118.601C28.0234 118.397 28.0453 118.184 28.132 117.994ZM28.4939 118.536C28.6005 118.712 28.7554 118.854 28.9401 118.944C29.1248 119.034 29.3316 119.07 29.5359 119.046C29.5006 119.067 29.47 119.093 29.4347 119.113C29.2303 119.247 28.9891 119.314 28.7446 119.305C28.7142 119.295 28.6845 119.282 28.6557 119.268C28.5363 119.043 28.4804 118.79 28.4939 118.536ZM28.8052 119.494C29.0631 119.492 29.3152 119.417 29.5313 119.276C29.7351 119.166 29.9299 119.039 30.114 118.899C30.0438 118.984 29.9668 119.064 29.884 119.137C29.6025 119.379 29.2607 119.54 28.8949 119.603C28.8631 119.568 28.8331 119.532 28.8052 119.494ZM30.6393 119.163C30.2183 119.398 29.6425 119.84 29.1663 119.737C29.49 119.641 29.7887 119.475 30.0414 119.252C30.2942 119.028 30.4948 118.751 30.6293 118.442C30.6738 118.397 30.7251 118.36 30.7665 118.314C30.9994 118.092 31.1569 117.803 31.2166 117.486C31.2741 116.474 30.2199 115.998 29.2231 116.125C28.8163 116.119 28.4178 116.24 28.0829 116.471C27.9071 116.599 27.7807 116.784 27.7249 116.994C27.6691 117.204 27.6872 117.427 27.7762 117.626C27.8332 117.712 27.8995 117.79 27.974 117.861C27.9114 118.046 27.8755 118.24 27.8675 118.435C27.8684 118.65 27.9327 118.86 28.0523 119.038C28.1719 119.217 28.3415 119.357 28.5399 119.439C28.5716 119.499 28.6077 119.557 28.648 119.612C27.8345 119.545 27.0815 117.789 27.9181 116.398C28.0767 116.177 28.2849 115.995 28.5261 115.867C28.7673 115.74 29.0349 115.671 29.3076 115.665C29.5802 115.66 29.8505 115.717 30.0968 115.834C30.3432 115.951 30.5588 116.124 30.7267 116.339C31.5578 117.233 31.705 118.566 30.6393 119.159V119.163Z" fill="#FFE55D"/>
<path d="M52.8386 66.0671C52.8847 66.0213 52.9124 65.9601 52.9163 65.8952C52.9203 65.8304 52.9002 65.7663 52.8599 65.7153C52.8196 65.6643 52.7619 65.6299 52.6979 65.6187C52.6338 65.6075 52.5679 65.6203 52.5127 65.6546C52.3709 65.765 52.2085 65.8461 52.035 65.893C51.8525 65.9206 51.6225 65.755 51.2683 66.2687C51.1678 66.4279 51.101 66.6059 51.0718 66.7918C51.0427 66.9777 51.0519 67.1676 51.0988 67.3498C51.1144 67.4729 51.163 67.5895 51.2397 67.6871C51.3163 67.7846 51.418 67.8595 51.5339 67.9038C51.6498 67.948 51.7756 67.96 51.8977 67.9383C52.0199 67.9166 52.1339 67.8622 52.2275 67.7808C52.3605 67.5727 52.4345 67.3325 52.4418 67.0857C52.4491 66.8389 52.3893 66.5947 52.2689 66.3791C52.4825 66.3259 52.6787 66.2184 52.8386 66.0671Z" fill="#4B1010"/>
<path d="M44.6789 67.9839C44.7133 67.9284 44.7259 67.8621 44.7143 67.7978C44.7027 67.7335 44.6676 67.6759 44.6158 67.636C44.5641 67.5961 44.4994 67.5768 44.4343 67.5819C44.3691 67.5869 44.3082 67.616 44.2633 67.6634C44.1522 67.8048 44.0141 67.9226 43.8569 68.01C43.6875 68.0805 43.4237 67.9755 43.2067 68.559C43.1477 68.7377 43.1259 68.9267 43.1427 69.1142C43.1594 69.3017 43.2144 69.4838 43.3041 69.6493C43.3488 69.7651 43.4241 69.8666 43.5221 69.9428C43.62 70.0191 43.7369 70.0672 43.8601 70.0821C43.9834 70.097 44.1083 70.0781 44.2216 70.0274C44.3349 69.9766 44.4323 69.896 44.5033 69.7942C44.582 69.5603 44.5958 69.3093 44.5431 69.0682C44.4905 68.827 44.3733 68.6046 44.2042 68.4248C44.3979 68.3213 44.5614 68.1694 44.6789 67.9839Z" fill="#4B1010"/>
</svg>
