<svg width="155" height="155" viewBox="0 0 155 155" fill="none" xmlns="http://www.w3.org/2000/svg">
<path d="M17.3591 126.211C16.9036 134.039 23.6741 135.544 28.6458 133.738C32.7838 129.824 25.1795 122.073 29.0164 116.36C30.074 113.797 29.9196 109.057 29.3947 108.385C28.7153 106.347 17.2047 103.714 17.8146 109.157C17.7296 110.493 17.1275 122.227 17.3591 126.211Z" fill="#3D9CFB"/>
<path d="M141.583 36.7504C134.951 32.7745 135.661 35.4225 132.705 50.9707C131.5 56.7685 129.763 64.589 131.801 65.4227C133.23 65.9477 137.205 66.326 137.514 63.2379C139.699 63.3151 141.282 64.4423 142.332 61.6553C144.817 62.1108 145.288 61.8869 145.566 60.9837C146.505 58.3144 147.21 55.5686 147.674 52.7773C148.199 47.8132 150.384 43.1503 145.42 43.3742C146.392 40.3634 143.158 39.684 141.729 39.5142C141.799 39.0124 142.486 37.2059 141.583 36.7504Z" fill="#3D9CFB"/>
<path d="M75.9698 19.5195C76.873 18.8479 78.6023 25.5412 81.5359 25.3173C83.6435 25.0934 87.1793 15.0805 86.8782 13.6523C86.4999 12.1083 83.0182 11.1741 82.8175 12.6795C82.5164 14.6327 81.0882 19.3729 80.4088 19.4501C79.5056 19.5195 78.0928 15.536 76.2709 15.4588C74.8426 15.3816 73.4144 18.9174 72.9589 19.149C72.5035 19.3806 72.0557 18.1685 69.8014 13.5828C69.5003 13.0501 68.296 12.5251 67.0145 14.1772C65.733 15.8293 70.8745 24.4913 72.0557 24.939C74.0166 25.6184 74.9198 20.3533 75.9698 19.5195Z" fill="#3D9CFB"/>
<path d="M112.609 126.659C112.03 127.5 111.559 128.844 112.239 129.369C112.918 129.894 116.338 130.272 116.145 128.766C116.075 128.164 115.373 127.994 114.416 128.164C113.204 128.334 113.034 128.35 113.744 127.107C114.045 126.589 113.235 125.779 112.609 126.659Z" fill="#3D9CFB"/>
<path d="M111.335 135.992C111.232 136.361 111.212 136.749 111.276 137.126C111.34 137.504 111.487 137.863 111.706 138.177C112.161 138.949 113.142 138.702 112.91 137.953C112.609 137.351 112.54 136.749 112.686 136.595C112.988 136.294 115.62 137.274 116.076 136.294C116.531 135.313 114.717 133.815 114.717 133.36C114.717 133.059 115.62 132.688 116.377 132.233C116.678 131.854 116.678 131.028 115.844 131.26C115.01 131.492 113.289 132.31 113.211 133.059C113.134 133.808 114.493 135.02 114.416 135.321C114.339 135.622 111.86 134.865 111.335 135.992Z" fill="#3D9CFB"/>
<path d="M84.6238 136.447C85.3264 137.714 88.1596 137.428 88.9085 136.826C89.364 136.447 88.7618 135.768 88.1365 135.922C87.3104 136.069 86.4072 136.146 86.0289 135.768C85.6506 135.39 87.9126 133.962 87.5343 133.136C87.2332 132.456 83.9213 132.155 83.9985 131.63C84.0757 131.105 85.0484 131.028 86.7777 130.202C87.4571 129.901 87.4648 128.936 86.6311 129.221C84.315 129.993 82.5703 130.58 82.717 132.008C82.8714 133.136 84.8168 133.375 85.4267 133.66C86.2682 134.054 83.8982 135.15 84.6238 136.447Z" fill="#3D9CFB"/>
<path d="M8.17965 66.6277C7.94805 66.0951 5.94855 65.8017 5.69379 67.3998C4.7751 73.1126 18.347 75.1198 17.8838 67.3998C17.5827 61.7564 8.9285 61.7564 9.15238 58.0662C9.22958 56.7152 10.5111 56.2674 11.9393 56.1902C14.6491 56.113 14.6491 59.5021 16.7567 58.5989C20.2152 57.0935 15.5523 53.025 12.1632 52.8011C8.24913 52.5772 5.31551 54.762 5.61659 58.5217C5.99487 63.339 12.7654 63.5629 13.823 66.5737C15.0274 69.7853 9.0829 68.7585 8.17965 66.6277Z" fill="#3D9CFB"/>
<path d="M104.935 78.2847C104.032 77.9064 90.7151 77.2348 89.2869 78.2847C88.3837 78.9641 88.6075 81.3727 89.4413 81.751C90.9853 82.4227 94.4825 81.3727 95.1542 82.276C95.8258 83.1792 95.1542 93.1844 96.2118 93.8561C96.8143 94.1564 97.4917 94.2733 98.16 94.1923C98.8283 94.1113 99.4581 93.8361 99.9715 93.4006C100.798 92.7212 99.5237 83.3182 99.8171 82.2683C100.195 81.0639 104.187 81.89 105.538 81.365C106.364 81.1102 106.518 78.9641 104.935 78.2847Z" fill="#3D9CFB"/>
<path d="M109.305 141.412C108.927 141.566 107.722 139.682 106.742 140.061C105.761 140.439 106.217 142.693 105.692 142.77C105.167 142.847 103.963 140.284 102.905 140.284C102.079 140.284 101.477 141.056 101.176 142.014C100.875 142.971 101.485 143.226 101.948 142.693C102.257 142.323 102.627 141.79 102.928 141.867C103.453 142.014 104.889 144.723 106.24 144.345C107.29 144.044 107.221 141.867 107.444 141.713C107.668 141.558 109.097 143.674 110.077 143.218C111.057 142.763 110.525 140.964 110.756 140.663C110.988 140.362 111.359 140.732 112.185 140.732C112.864 140.809 112.957 140.138 112.185 139.759C111.204 139.234 109.923 138.933 109.629 139.536C109.336 140.138 109.753 141.188 109.305 141.412Z" fill="#3D9CFB"/>
<path d="M69.1217 105.676C57.9894 102.51 61.1469 113.65 60.3981 123.432C60.3981 131.26 62.8762 133.661 69.1989 133.514C66.1881 132.086 64.8371 125.385 64.7599 118.916C64.5978 111.69 64.2349 107.181 69.1217 105.676Z" fill="#3D9CFB"/>
<path d="M92.5219 126.141C93.2939 125.917 92.8615 123.987 91.5414 122.227C91.1554 121.71 90.3448 121.849 90.7154 122.907C91.0164 123.733 91.5414 124.636 90.7154 124.559C89.8893 124.481 87.5578 123.956 86.7318 124.412C85.7513 124.86 86.9557 127.346 88.0828 128.017C88.6078 128.318 89.0478 128.017 88.7622 127.346C88.4765 126.674 87.9902 125.686 88.3067 125.616C88.9089 125.539 91.773 126.365 92.5219 126.141Z" fill="#3D9CFB"/>
<path d="M50.9107 91.9186C62.0508 93.2774 61.5953 75.444 52.1922 75.2201C42.9359 74.9345 42.1098 90.8533 50.9107 91.9186ZM48.4325 81.6895C48.4421 81.2515 48.5403 80.8199 48.7213 80.4209C48.9022 80.0218 49.1622 79.6636 49.4854 79.3678C49.8086 79.072 50.1884 78.8447 50.6019 78.6997C51.0154 78.5548 51.454 78.4951 51.8911 78.5243C56.6313 78.6169 57.2334 88.9078 51.8139 88.6839C47.676 88.5218 48.4325 83.249 48.4325 81.6741V81.6895Z" fill="#3D9CFB"/>
<path d="M94.3285 142.77C95.5329 143.442 98.0187 141.566 97.0383 141.11C96.4361 140.809 95.309 141.635 95.0774 141.489C94.8458 141.342 95.4557 139.836 94.3054 139.535C93.4021 139.304 91.2173 140.964 90.7696 140.886C90.4685 140.809 91.0166 139.342 91.3717 138.099C91.6111 137.281 90.5457 137.497 90.1674 138.099C89.3414 139.234 89.0403 141.867 89.7891 142.237C91.3331 143.009 93.3249 140.732 93.7032 141.11C93.9348 141.326 93.5025 142.392 94.3285 142.77Z" fill="#3D9CFB"/>
<path d="M83.798 63.0842C83.9154 63.5721 84.0652 64.0523 84.2458 64.5202C84.6473 65.7862 90.638 65.9484 90.7152 64.0647C90.7924 59.479 88.6848 41.4912 85.3112 36.2261C84.184 34.4968 80.9493 36.45 79.5211 37.0521C78.6179 37.5076 79.2972 39.3141 79.3744 39.8391C78.0157 40.364 74.6343 40.1402 75.6842 43.6991C70.4964 44.3785 73.43 47.5592 73.8006 52.8011C74.2866 55.5232 74.9415 58.2124 75.7614 60.8531C76.0625 61.7564 76.5335 61.9802 78.9962 61.5325C79.8068 64.443 81.3894 62.7831 83.798 63.0842Z" fill="#3D9CFB"/>
<path d="M22.3229 43.9004C20.3697 43.9004 19.4356 51.3348 20.3697 53.6045C22.1067 57.866 26.9086 60.1511 31.5021 59.6262C31.8804 59.549 32.6292 58.4219 30.2205 58.2752C28.154 58.1304 26.1597 57.455 24.4305 56.3143C21.0414 53.8361 21.3425 49.6982 22.7707 44.8036C22.8282 44.7188 22.8623 44.6202 22.8692 44.5179C22.8762 44.4156 22.8558 44.3133 22.8103 44.2214C22.7648 44.1295 22.6956 44.0514 22.61 43.995C22.5244 43.9386 22.4253 43.9059 22.3229 43.9004Z" fill="#001434"/>
<path d="M36.5434 55.1862C36.6901 53.4569 36.9911 49.8439 37.1455 48.6396C37.4235 46.4239 35.038 45.1578 35.038 55.2634C35.038 56.9155 36.389 56.9155 36.5434 55.1862Z" fill="#001434"/>
<path d="M38.798 72.6187C39.9328 72.472 40.3034 71.2677 38.798 71.2677C34.3589 71.3449 27.2873 70.8894 24.9559 68.7818C23.906 67.8014 23.4505 64.5667 22.8483 59.6798C22.7016 58.6222 21.5668 59.1549 21.5668 60.0581C21.5668 63.0612 22.4237 68.3109 23.4505 69.5384C25.45 71.9316 33.5329 73.3212 38.798 72.6187Z" fill="#001434"/>
<path d="M31.649 62.1116C32.0272 62.6365 32.7838 62.0344 34.5131 61.8105C34.5131 62.7137 34.3587 63.7637 34.2892 64.7441C32.7838 64.7441 30.9773 64.3658 30.5218 65.1224C29.8502 66.3267 33.3088 66.0256 34.212 66.2495C34.1348 67.6005 34.212 69.4842 35.1153 69.5614C36.0185 69.6386 35.7174 67.8707 35.7174 66.2495C36.3891 66.0951 38.1956 66.5506 38.1261 65.3463C38.0489 64.7441 37.0685 64.7441 35.8101 64.7441C35.8873 63.7637 35.9645 62.7137 36.0417 61.8105C36.462 61.9385 36.8661 62.1147 37.246 62.3355C37.3953 62.4198 37.5716 62.4425 37.7373 62.3985C37.903 62.3545 38.0449 62.2474 38.1327 62.1002C38.2205 61.9529 38.2471 61.7771 38.2069 61.6104C38.1667 61.4437 38.0629 61.2994 37.9177 61.2083C35.3392 58.7225 31.0468 61.2855 31.649 62.1116Z" fill="#001434"/>
<path d="M18.6331 52.2528C18.7103 51.9517 18.7875 51.5734 17.506 50.9018C10.7355 47.4354 6.52031 40.8193 5.92586 35.5465C5.62478 32.5434 7.05299 28.3977 10.5193 22.6849C14.5029 16.1383 17.4674 15.4589 21.1267 16.6632C24.1375 17.6437 26.0444 18.6859 26.5307 19.8979C27.4803 22.214 25.0253 24.1131 22.3928 23.2871C23.5971 22.0827 23.821 20.5773 23.0644 20.5001C22.3079 20.4229 22.0145 21.7044 20.9646 22.8161C20.2546 22.5289 19.5724 22.1775 18.9265 21.7662C20.8102 20.2917 20.2466 18.0065 17.6527 20.7858C17.2747 20.4183 16.9684 19.9837 16.7494 19.5042C16.2939 18.601 15.3907 19.2031 15.5451 19.9597C16.3171 23.8197 22.6939 26.2052 26.2991 24.1749C27.2024 25.7189 25.8514 26.9541 24.1221 27.1857C21.8061 27.4868 21.559 29.5866 20.1308 31.8177C18.4787 31.4395 14.7885 32.0416 14.9429 33.3617C15.3598 35.4539 19.9069 29.8414 26.9785 37.6464C30.2132 46.3006 50.9107 47.281 57.2257 39.1904C64.9458 41.3752 70.0951 55.6728 66.1038 62.1422C64.3745 65.678 59.4105 67.5462 55.1954 69.8623C49.7913 72.7959 47.2205 72.8654 45.0358 71.2133C47.5988 69.7851 46.3173 68.2796 45.6379 68.959C45.1444 69.4488 44.5559 69.8323 43.9086 70.0861C43.284 69.3702 42.7064 68.6147 42.1793 67.8242C45.7151 66.3265 44.1325 65.0449 43.4609 65.5699C42.8193 65.969 42.1353 66.2979 41.4228 66.5503C39.2457 62.258 43.6075 63.1612 43.3065 60.1504C43.2293 59.5482 43.1598 58.7994 43.6847 58.4211C45.2674 57.2168 46.464 60.6831 49.4748 58.7222C51.7368 57.294 50.6791 56.1668 49.9303 56.6918C47.7223 58.1663 47.6143 58.0505 47.1433 57.6723C45.0358 56.3135 42.5576 56.1668 41.7393 58.5755C40.3111 58.645 38.5046 58.3439 38.0568 59.0233C37.2848 60.2276 40.1644 59.8493 41.7393 60.0809C42.2102 61.486 35.7717 62.3969 42.3414 70.3872C46.2015 75.2045 50.3163 74.3708 56.1141 71.1592C60.6303 68.6811 65.5943 66.8746 67.6247 62.8061C71.9865 55.665 66.7214 40.5414 58.3606 37.8317C59.5649 35.5156 59.6421 34.3654 58.515 32.8677C59.4182 30.6829 60.0976 26.0894 57.3879 22.708C55.6509 20.5233 53.3966 20.2994 52.1151 17.443C47.2591 7.44547 28.3604 7.22158 28.1828 20.2994C27.5807 17.744 25.6275 16.6864 21.6362 15.3354C16.595 13.6061 12.982 15.5593 9.28409 21.9515C5.8255 27.8959 4.08848 31.81 4.38957 35.8476C5.26193 45.7679 17.9383 54.7078 18.6331 52.2528ZM29.7732 19.3498C29.7732 10.6339 45.3909 8.47995 50.6174 18.2227C52.3467 21.3107 53.9988 21.6041 55.7281 23.3334C57.4573 25.0627 58.2139 27.8496 56.9324 32.2887C56.5003 32.1935 56.0497 32.2285 55.6375 32.3893C55.2253 32.5501 54.8699 32.8293 54.6164 33.1919C54.2381 33.7169 53.3348 33.6474 53.6359 32.5897C56.4229 23.8661 49.5829 20.3148 43.484 20.5541C38.6667 20.7394 33.1005 17.3194 30.3136 23.2639C29.736 22.0456 29.5474 20.6791 29.7732 19.3498ZM35.7871 29.1311C36.3816 31.4858 38.1031 30.845 37.5936 29.8105C37.2771 29.1389 36.9914 28.3051 37.5241 27.7724C38.1958 27.1008 40.3806 27.8496 40.6816 28.0812C41.361 28.7529 42.1098 27.8496 41.5849 27.0236C41.0599 26.1975 39.1762 25.8964 37.9719 26.0431C38.4274 23.2639 35.1155 22.1368 32.8535 22.2834L33.2318 21.9052C36.0959 21.7585 36.011 22.5614 36.9914 22.4378C37.6708 22.3452 37.8252 21.4574 36.6904 21.0019C42.4881 22.0596 44.8196 21.1563 48.0543 22.5073C45.9467 21.9052 44.2946 22.5073 44.1943 23.3334C44.1943 23.7117 44.6497 24.0127 45.0203 24.0127C46.6529 23.8107 48.3047 24.1848 49.691 25.0704C49.8309 25.137 49.9876 25.16 50.1408 25.1363C50.2939 25.1126 50.4364 25.0433 50.5497 24.9376C50.6629 24.8318 50.7418 24.6944 50.7759 24.5432C50.81 24.392 50.7978 24.2341 50.7409 24.0899C52.2463 25.5182 53.0569 28.3746 52.1691 32.0648C51.5669 34.5506 52.9874 35.5079 54.13 35.0756C55.2726 34.6433 55.5582 33.6474 56.1604 33.6474C58.1136 33.6474 57.4805 36.334 56.3071 37.8548C50.6714 45.1966 31.6028 44.8029 28.3913 37.1832C27.3413 34.7745 27.0403 29.6561 29.4489 28.004C30.8231 29.6793 33.9883 29.8337 35.7871 29.1543V29.1311ZM32.6991 27.9268C33.1468 26.6453 33.6795 25.0704 34.1273 23.8661C38.4274 24.4914 36.0959 28.9304 32.7068 27.95L32.6991 27.9268ZM28.067 26.1975C28.2152 25.6967 28.2377 25.1671 28.1327 24.6554C28.0277 24.1438 27.7983 23.6659 27.4649 23.2639C27.9183 22.6205 28.1855 21.8645 28.2369 21.0791C28.3913 23.1095 29.0629 24.0899 29.6651 24.6149C29.3423 25.2197 29.1627 25.8906 29.1401 26.5758C26.7315 28.004 25.8282 31.5398 26.3532 34.9984C25.0756 33.7993 23.5298 32.9231 21.8447 32.4431C22.4468 31.3159 22.9718 30.4127 23.1957 29.9572C24.3537 27.95 27.2101 29.0771 28.0439 26.2207L28.067 26.1975Z" fill="#001434"/>
<path d="M45.4988 37.5855C46.2708 36.3811 45.3444 34.1963 43.8389 34.1963C42.5651 34.1191 40.6814 35.0224 40.3803 34.5746C40.3389 34.4492 40.266 34.3365 40.1686 34.2474C40.0711 34.1582 39.9525 34.0955 39.8239 34.0653C39.6953 34.0351 39.5611 34.0384 39.4342 34.0748C39.3072 34.1113 39.1918 34.1797 39.0988 34.2735C38.4349 34.7136 37.8636 33.9184 36.7828 33.8953C35.1307 33.8953 34.2274 36.08 35.1307 37.3539C36.6901 40.0636 43.9933 40.1408 45.4988 37.5855ZM36.806 35.4007C37.632 35.4007 38.6124 36.3811 39.6701 35.8484C41.3068 37.1145 45.0355 34.3044 44.2558 36.8289C44.0319 37.6009 41.77 38.1104 39.8168 37.956C35.9259 37.7862 35.8023 35.4007 36.806 35.4007Z" fill="#001434"/>
<path d="M38.7282 33.2923C39.7781 32.8446 40.3803 33.1379 41.2835 33.2923C42.0555 33.439 42.3489 32.7519 41.6618 32.1652C40.7663 31.3932 37.2922 31.1075 37.6705 32.8446C37.7104 32.9435 37.7694 33.0337 37.8442 33.1098C37.919 33.1859 38.0081 33.2465 38.1064 33.2881C38.2046 33.3297 38.3101 33.3515 38.4168 33.3522C38.5235 33.3529 38.6293 33.3326 38.7282 33.2923Z" fill="#001434"/>
<path d="M137.291 57.3714C138.109 57.9813 138.51 57.8655 140.826 44.3554C140.996 43.3749 139.877 42.5566 139.622 43.5834C139.151 45.5983 136.604 56.8542 137.291 57.3714Z" fill="#001434"/>
<path d="M141.351 41.1904C142.316 41.1904 142.772 38.9516 141.954 38.7818C141.429 38.7123 141.127 38.859 140.981 39.6155C140.68 40.5883 140.904 41.1904 141.351 41.1904Z" fill="#001434"/>
<path d="M76.0474 47.96C76.5723 51.4264 77.6995 56.0121 77.9233 56.9153C78.3016 58.4593 79.6604 58.3435 79.506 57.3708C79.506 57.2936 78.0777 50.6003 77.4756 47.134C77.3212 46.1613 75.8158 46.4623 76.0474 47.96Z" fill="#001434"/>
<path d="M50.3855 48.7942L49.7138 48.1148C48.6562 47.0649 47.9768 49.0875 50.0844 50.4308C49.8605 53.3644 50.7638 56.1514 53.0952 57.5796C55.0561 58.7839 55.6506 57.3557 54.8245 56.9002C51.8137 55.3562 50.7637 51.6351 52.192 47.7983C52.9254 46.841 51.3119 46.0149 50.3855 48.7942Z" fill="#001434"/>
<path d="M75.9701 45.2583C76.5723 45.1811 76.6495 44.579 76.5723 43.8996C76.4951 43.2202 76.2712 42.6953 75.5918 42.8497C75.0668 42.9191 75.0668 43.6217 75.144 44.1235C75.2212 44.6253 75.4065 45.405 75.9701 45.2583Z" fill="#001434"/>
<path d="M145.188 44.826C145.79 44.9804 146.091 44.5249 146.169 43.9999C146.323 43.2279 146.315 42.7339 145.566 42.6489C144.509 42.51 144.154 44.4554 145.188 44.826Z" fill="#001434"/>
<path d="M143.389 56.2443C143.914 54.3606 144.756 49.1727 144.887 48.3389C145.149 46.6868 143.984 45.6292 143.76 46.9107C143.536 48.1923 142.108 55.1866 142.108 56.6921C142.03 57.2942 142.934 58.0431 143.389 56.2443Z" fill="#001434"/>
<path d="M141.583 61.4321C141.55 61.5207 141.536 61.615 141.541 61.7093C141.547 61.8036 141.571 61.8958 141.613 61.9802C141.655 62.0647 141.714 62.1398 141.785 62.2009C141.857 62.262 141.941 62.3077 142.031 62.3354C142.556 62.4898 142.857 62.3354 143.011 61.8876C143.814 59.4944 141.583 59.4944 141.583 61.4321Z" fill="#001434"/>
<path d="M41.3609 40.5187C39.0989 40.8198 37.7479 40.0633 37.6707 40.5882C37.4468 41.5687 39.4 42.248 41.2837 41.8698C42.3336 41.6459 42.7119 40.2871 41.3609 40.5187Z" fill="#001434"/>
<path d="M33.2317 18.2463C33.911 18.8484 34.7371 18.3235 34.2121 17.6441C33.6871 16.9647 33.5405 15.853 32.9306 15.9843C32.174 16.1541 32.3284 17.4202 33.2317 18.2463Z" fill="#001434"/>
<path d="M48.0544 32.5433C53.0339 32.358 52.8177 25.464 47.6067 24.939C40.7821 24.1825 40.9443 32.6823 48.0544 32.5433ZM47.7534 26.5217C50.4631 26.8999 50.7642 29.6792 49.1816 30.8063C48.2622 31.1594 47.2446 31.1594 46.3252 30.8063C46.8785 29.405 47.3552 27.9747 47.7534 26.5217Z" fill="#001434"/>
<path d="M74.3177 55.4107C74.4586 55.3236 74.5678 55.1936 74.629 55.0397C74.6903 54.8859 74.7005 54.7164 74.6581 54.5563C74.6157 54.3962 74.523 54.254 74.3936 54.1507C74.2642 54.0474 74.105 53.9884 73.9395 53.9825C71.7547 54.6618 71.9091 53.7586 71.7547 52.0293C71.7547 51.7282 72.959 51.5043 73.5612 51.3499C73.6817 51.3542 73.8015 51.3303 73.911 51.2799C74.0206 51.2296 74.1168 51.1543 74.1921 51.0601C74.2673 50.9659 74.3194 50.8554 74.3442 50.7374C74.3691 50.6194 74.3659 50.4973 74.3351 50.3807C74.3042 50.2642 74.2465 50.1565 74.1665 50.0663C74.0865 49.9761 73.9865 49.9058 73.8745 49.8612C73.7625 49.8166 73.6416 49.7988 73.5215 49.8093C73.4014 49.8198 73.2855 49.8583 73.1829 49.9217C71.9091 50.2228 70.2493 50.5239 70.2493 52.0293C70.5272 56.7154 72.4341 55.8816 74.3177 55.4107Z" fill="#001434"/>
<path d="M45.8 18.9177C46.4022 18.6938 45.7228 18.0221 45.7228 16.4395C45.7228 15.3124 44.4027 15.0036 44.4413 16.6634C44.4567 17.1884 44.8195 19.2959 45.8 18.9177Z" fill="#001434"/>
<path d="M37.5777 17.034C37.1103 16.1238 36.8468 15.1227 36.8057 14.1004C36.8057 13.1199 35.5242 13.1199 35.4547 14.3243C35.2617 18.6321 38.4578 18.331 37.5777 17.034Z" fill="#001434"/>
<path d="M41.3608 18.4703C42.5652 18.6016 41.4303 16.6638 41.6619 15.1584C41.8858 13.8769 40.3032 13.8769 40.1179 15.1584C39.9326 16.4399 40.5348 18.3777 41.3608 18.4703Z" fill="#001434"/>
<path d="M127.363 88.2902C127.41 88.4493 127.516 88.5845 127.66 88.6689C127.803 88.7533 127.972 88.7807 128.135 88.7457C134.535 88.5218 135.662 89.2707 135.808 88.7457C136.187 87.9737 134.38 87.0164 131.292 87.2403C132.126 86.862 134.156 86.5609 134.303 85.8121C134.581 84.3067 127.061 86.5609 127.363 88.2902Z" fill="#001434"/>
<path d="M108.101 31.864C109.151 23.0554 95.2316 24.0358 96.1348 32.3889C96.6598 38.179 107.344 37.7312 108.101 31.864ZM101.4 34.8748C96.7679 34.8748 97.2619 30.5825 98.3891 29.077C99.7478 27.3477 103.284 26.2206 105.461 28.1043C104.866 29.2314 102.427 33.1378 101.4 34.8748Z" fill="#001434"/>
<path d="M99.5933 54.1369C101.284 57.3021 103.052 55.9665 102.079 55.1096C101.624 54.739 99.3694 51.8054 100.72 50.5239C101.925 49.3967 104.063 50.6628 104.488 51.8054C105.538 54.6387 105.993 59.6258 106.294 62.4128C106.364 63.2388 107.8 63.316 107.723 61.7334C107.505 58.4785 106.975 55.2521 106.14 52.0988C108.85 52.0988 112.463 51.9521 115.018 52.0293C114.326 54.6877 113.9 57.4082 113.744 60.1508C113.744 61.5095 114.941 61.4323 115.095 60.3052C115.474 57.0705 115.867 53.3031 116.747 51.5738C117.728 49.5434 120.607 50.0298 121.565 51.3499C122.468 52.5542 122.02 54.0597 119.087 53.3031C118.708 53.1564 118.029 52.9325 117.952 53.5347C117.909 53.7829 117.954 54.0381 118.078 54.2575C118.201 54.4768 118.397 54.6468 118.631 54.739C120.885 55.511 122.09 54.8857 122.692 54.2835C126.459 56.0128 132.404 55.7889 133.23 53.4575C133.531 52.5542 132.55 53.002 131.57 53.4575C131.647 52.4076 131.269 50.0684 130.219 50.2228C129.339 50.4003 130.427 51.4657 129.918 53.7586C129.191 53.8242 128.463 53.8504 127.733 53.8358C128.034 52.5542 127.586 49.6206 126.305 49.9217C125.926 49.9989 126.004 50.4467 126.158 50.8249C126.495 51.7206 126.495 52.7085 126.158 53.6042C125.223 53.4755 124.311 53.2156 123.448 52.8322C123.896 50.1224 120.739 47.8681 117.952 48.8409C120.515 43.653 130.443 44.4018 132.55 49.142C133.006 50.1224 134.202 49.3736 133.531 47.791C132.884 46.5304 131.858 45.5044 130.597 44.8573C133.307 41.7693 133.376 36.1259 130.219 34.3194C133.901 17.7676 118.785 17.9992 116.747 15.9611C108.255 5.27651 78.8263 14.6873 91.6185 29.5793C91.2595 31.472 91.2858 33.4176 91.6957 35.2999C89.5881 37.0292 89.0631 41.0204 91.9968 44.479C91.2263 44.7797 90.5307 45.245 89.9587 45.8424C89.3866 46.4398 88.9519 47.1548 88.6849 47.9376C88.461 48.9181 89.287 49.5202 89.7425 48.617C91.8424 44.1008 101.323 43.4291 103.731 49.142C101.022 48.092 98.4662 49.6746 99.2922 53.002C98.6229 53.3201 97.9142 53.5486 97.1847 53.6814C96.7816 52.6003 96.7038 51.4248 96.9608 50.3C97.1152 49.9217 96.9608 49.4662 96.5825 49.4662C95.5326 49.4662 95.0385 51.651 95.6792 53.9824C94.7289 54.0596 93.7732 54.0596 92.8228 53.9824C92.6886 52.929 92.7409 51.8602 92.9772 50.8249C93.4404 49.6669 90.9932 49.0956 91.2402 53.6042C90.4142 53.3031 90.337 52.4076 89.812 52.7009C88.8393 52.7009 89.287 54.739 91.9968 55.1096C94.5705 55.4318 97.1839 55.0972 99.5933 54.1369ZM115.319 50.4467C112.687 50.3 108.549 50.4467 105.615 50.4467C105.385 49.702 105.109 48.9724 104.789 48.2619H116.323C115.929 48.9621 115.593 49.6924 115.319 50.4467ZM89.8429 23.658C88.7929 12.2246 109.637 9.51483 115.319 16.818C115.893 17.4118 116.624 17.8296 117.427 18.0224C128.713 20.6549 129.995 26.746 128.49 33.5937C127.81 33.4393 127.664 32.6905 127.362 30.7373C127.061 28.7841 126.683 25.9972 124.799 23.5113C120.283 17.6441 112.007 20.0527 110.201 19.5972C102.079 17.6441 92.9772 24.0363 93.95 33.2155C93.95 33.9875 93.2783 34.0415 92.8228 34.1959C91.9968 29.9035 93.2783 28.9308 92.3751 28.1742C91.6704 27.6284 91.081 26.9481 90.641 26.1729C90.2011 25.3977 89.9193 24.5429 89.812 23.658H89.8429ZM93.4559 43.6762C90.97 41.6458 90.3138 36.5196 93.6798 35.6241C95.2701 35.2072 95.409 34.497 95.3396 33.3699C94.8146 23.5113 103.832 19.4737 110.309 20.8788C112.887 21.5195 124.637 18.0301 126.189 31.0384C126.413 33.0688 126.56 34.9447 128.366 35.2458C132.28 36.3035 131.601 42.0241 128.968 44.2783C124.606 43.074 120.314 43.7534 117.458 46.9109C114.902 46.9881 107.298 46.9109 103.917 46.9881C101.315 43.4832 97.5012 42.6031 93.425 43.6762H93.4559Z" fill="#001434"/>
<path d="M108.402 45.598C111.258 45.598 115.774 45.3741 117.666 44.3242C119.102 43.4904 119.472 41.8383 118.724 39.5841C117.82 36.9515 116.238 36.7971 114.863 37.268C112.98 37.8625 111.096 39.669 107.792 38.6191C105.306 37.847 103.932 38.9201 103.353 40.3483C102.38 42.7724 103.662 45.598 108.402 45.598ZM104.488 41.8383C105.09 42.2166 106.217 42.4405 106.364 41.7611C106.518 41.2362 105.692 41.0895 104.935 40.4101C106.441 38.7503 107.722 40.7112 111.112 40.2557C114.053 39.8851 115.852 37.3993 116.986 39.3525C116.006 40.2557 115.165 40.4873 115.327 41.0123C115.489 41.5372 116.307 41.7843 117.511 40.7884C117.813 44.0231 114.053 44.0926 110.509 44.247C108.548 44.3551 104.41 44.5789 104.488 41.8692V41.8383Z" fill="#001434"/>
<path d="M101.855 24.0357C102.828 24.1901 104.418 23.7732 105.916 24.1129C106.518 24.2519 106.819 23.8118 106.966 23.3409C107.267 21.9127 103.878 21.9127 102.002 22.5148C100.798 22.8314 101.099 23.9816 101.855 24.0357Z" fill="#001434"/>
<path d="M108.772 36.3808C111.027 36.7282 108.849 33.1384 112.686 33.6711C113.065 33.7406 113.458 33.2928 113.512 32.8991C113.59 31.7719 110.733 31.6253 109.452 32.7524C108.17 33.8795 107.946 36.2496 108.772 36.3808Z" fill="#001434"/>
<path d="M150.986 51.504C150.685 50.4464 147.296 49.188 147.226 50.5236C147.226 50.9713 147.373 51.3496 147.751 51.4268C149.704 51.8051 149.782 52.1988 149.179 54.0593C148.956 54.7387 146.694 53.38 146.47 54.6615C146.246 55.7886 147.828 55.642 148.654 55.7886C150.762 56.0125 151.287 52.7006 150.986 51.504Z" fill="#001434"/>
<path d="M147.45 112.145C146.976 108.247 145.721 104.484 143.76 101.082C146.076 99.5382 146.925 93.4084 144.74 92.3585C147.373 83.0944 141.73 80.7784 138.117 77.8371C134.658 75.0501 134.805 72.2709 127.965 70.9894C116.979 68.8818 105.993 76.7099 112.007 85.7347C110.579 87.464 109.977 90.0965 109.9 92.2041C95.6098 93.4084 94.1044 116.136 105.692 114.33C105.931 115.766 106.308 117.175 106.819 118.537C106.163 119.321 105.606 120.181 105.16 121.1C98.5435 116.661 93.5794 122.83 93.425 127.114C87.8589 130.503 90.5686 139.08 100.373 139.158C111.428 139.158 113.914 129.894 107.823 126.968C107.802 126.509 107.724 126.056 107.591 125.617C111.307 125.612 115.004 125.092 118.577 124.073C118.508 126.389 119.635 128.705 120.16 130.619C118.508 131.893 115.265 133.931 117.149 136.409C118.693 138.625 122.375 137.837 135.677 137.837C143.992 137.837 140.379 133.012 141.166 127.23C143.76 123.432 148.129 119.595 147.45 112.145ZM93.4096 131.553C92.4292 130.056 95.0617 127.045 97.0226 127.794C99.8173 128.921 94.4055 133.136 93.425 131.553H93.4096ZM98.2269 136.448C96.6443 137.127 95.0077 135.398 95.3628 134.564C95.9341 133.298 99.8173 135.768 98.2424 136.448H98.2269ZM97.2465 126.142C97.3854 121.069 104.272 120.869 104.774 126.365C102.328 125.66 99.7447 125.583 97.2619 126.142H97.2465ZM145.945 111.991C144.85 112.763 143.583 113.256 142.255 113.427C143.088 112.068 143.027 110.941 142.633 110.941C141.351 110.864 141.05 115.079 137.815 117.565C136.912 114.7 133.531 110.339 128.412 108.154C129.74 104.433 128.165 104.201 127.965 105.22C127.75 106.035 127.42 106.815 126.984 107.536C123.665 106.71 126.104 108.053 122.846 102.727C125.324 103.854 130.296 103.854 137.893 102.124C139.437 101.816 140.348 102.495 142.486 101.669C144.207 104.892 145.376 108.381 145.945 111.991ZM112.54 77.7599C114.941 73.2436 120.515 71.2904 127.81 72.4176C134.28 73.398 133.832 76.2776 137.29 79.0414C140.903 81.8206 145.721 83.6734 143.389 91.7563C138.194 92.3585 139.846 88.6683 139.02 84.9086C138.248 81.8978 135.337 80.3924 130.667 80.8479C125.178 81.2957 123.526 80.7707 120.36 79.412C117.195 78.0532 113.142 81.2957 113.212 84.6848C112.007 83.4804 111.181 80.2457 112.54 77.7599ZM114.084 85.8119C115.078 85.7195 116.08 85.8487 117.018 86.1902C116.346 86.3369 114.91 86.7151 114.841 87.3868C114.763 87.9195 115.443 87.9195 115.813 87.9195C117.18 87.7965 118.538 87.5955 119.882 87.3173C122.97 86.5453 117.998 84.4532 114.686 84.3837C114.91 82.1217 117.55 79.8674 119.727 80.8479C122.962 82.1989 124.923 82.8783 130.713 82.3456C133.423 82.1217 136.812 82.4228 137.483 85.2869C138.086 88.9694 137.26 93.7095 142.378 93.2618C144.694 93.0302 144.787 94.9911 144.107 97.6236C143.204 101.36 138.943 100.55 137.785 100.781C130.489 102.209 125.595 103.267 120.708 100.634C119.045 99.4225 117.044 98.7636 114.987 98.7507C110.656 96.4965 109.977 89.6024 114.115 85.8119H114.084ZM109.946 101.908C109.946 101.762 110.023 101.607 110.023 101.46C114.084 99.1445 119.426 99.9551 121.758 104.016C121.179 103.972 120.6 104.099 120.093 104.38C119.585 104.661 119.171 105.085 118.901 105.598C112.054 103.869 108.217 114.778 113.636 118.537C111.826 118.429 110.022 118.228 108.232 117.935C107.729 116.544 107.351 115.11 107.105 113.65C110.656 111.396 113.513 104.996 109.977 101.908H109.946ZM109.946 93.6323C110.203 95.6878 111.226 97.5707 112.81 98.9051C111.799 99.1275 110.814 99.454 109.869 99.8779C109.72 99.5727 109.504 99.3055 109.236 99.0968C108.969 98.888 108.657 98.7433 108.325 98.6735C108.034 97.2045 107.33 95.8491 106.294 94.7672C107.483 94.2732 108.716 93.8932 109.977 93.6323H109.946ZM106.711 112.068C105.584 113.272 103.314 113.071 102.195 112.523C97.6402 110.277 99.0375 98.0019 104.835 95.5392C105.735 96.3296 106.365 97.3828 106.634 98.55C104.527 98.7739 102.496 100.735 102.874 101.708C103.477 103.205 104.573 99.9782 107.012 99.9782C108.07 99.9782 108.518 100.279 108.518 101.105C107.09 100.881 106.264 101.931 107.537 102.387C109.722 103.159 110.401 105.019 109.722 107.204C108.761 107.114 107.841 106.767 107.059 106.201C106.148 105.521 104.743 107.482 109.243 108.609C108.898 109.343 108.495 110.048 108.039 110.717C107.129 110.567 106.265 110.21 105.515 109.675C104.936 109.134 103.585 110.562 106.742 112.068H106.711ZM118.824 122.305C115.041 123.436 111.115 124.019 107.167 124.034C106.922 123.405 106.619 122.801 106.264 122.227C106.742 121.219 107.321 120.262 107.993 119.371C110.772 120.143 115.813 119.595 118.978 120.915C118.973 121.381 118.932 121.845 118.855 122.305H118.824ZM112.579 113.349C115.288 114.7 115.883 113.295 115.142 112.971C114.349 112.647 113.591 112.244 112.88 111.767C113.028 111.076 113.229 110.397 113.482 109.736C117.095 111.543 117.558 110.022 116.717 109.59C115.868 109.261 115.041 108.882 114.238 108.455C116.717 104.996 118.948 108.339 120.252 106.347C120.409 106.089 120.63 105.877 120.894 105.732C121.158 105.587 121.456 105.515 121.758 105.521C123.263 105.676 123.116 108.231 124.467 108.532C130.566 109.304 136.356 116.059 136.356 118.692C132.473 123.81 111.104 119.973 112.609 113.349H112.579ZM137.036 136.147C134.851 136.293 131.238 136.224 125.749 136.293C121.156 136.371 119.171 136.394 118.454 135.244C117.983 134.472 118.376 133.514 121.233 131.484C131.933 132.549 145.234 135.622 137.067 136.147H137.036ZM139.745 133.661C135.306 131.553 124.39 130.357 121.688 130.056C120.785 127.269 119.65 124.559 120.484 121.401C126.953 122.675 134.326 123.717 139.591 128.018C139.622 129.747 139.846 131.785 139.776 133.661H139.745ZM139.892 126.288C137.397 124.675 134.72 123.361 131.917 122.374C136.132 121.602 139.29 118.614 141.32 115.001C142.946 114.891 144.534 114.458 145.991 113.728C146.022 120.352 140.819 124.505 139.923 126.288H139.892Z" fill="#001434"/>
<path d="M121.117 90.9308C122.545 91.0003 121.186 88.5221 122.993 88.4449C124.799 88.3677 124.876 90.6992 126.081 90.3286C127.285 89.9581 125.857 86.7157 122.846 86.9395C120.059 87.1634 119.982 90.8536 121.117 90.9308Z" fill="#001434"/>
<path d="M127.903 86.1902C128.729 86.113 133.022 84.1521 131.817 83.326C131.138 82.801 129.501 83.2874 127.749 84.5303C126.899 85.1171 126.984 86.2596 127.903 86.1902Z" fill="#001434"/>
<path d="M116.446 35.0985C121.789 38.7115 128.937 32.6899 124.275 26.8998C122.02 24.0357 117.28 24.715 115.396 26.7454C113.289 29.0769 112.988 32.6899 116.446 35.0985ZM119.758 26.3671C124.491 26.0352 125.834 33.3692 121.341 34.4192C120.021 32.0196 118.511 29.7297 116.825 27.5715C117.209 27.1856 117.666 26.8803 118.17 26.6735C118.674 26.4667 119.214 26.3626 119.758 26.3671Z" fill="#001434"/>
<path d="M121.341 84.3071C120.515 82.7245 118.94 81.0879 117.882 81.4507C116.462 81.9216 119.534 84.6082 120.137 84.9865C120.739 85.3648 121.866 85.2876 121.341 84.3071Z" fill="#001434"/>
<path d="M120.816 93.332C120.213 93.7874 120.437 94.8374 120.738 95.648C121.263 96.8523 120.136 97.192 120.738 98.1261C121.418 99.1838 125.857 99.7859 127.432 98.9522C129.007 98.1184 127.864 95.0921 126.76 93.5481C125.656 92.0041 121.788 92.5831 120.816 93.332Z" fill="#001434"/>
<path d="M36.8063 104.996C34.9998 104.773 33.1238 104.996 32.0662 105.676C31.464 106.054 31.6184 107.027 32.4445 106.803C33.905 106.347 35.4526 106.244 36.9607 106.502C37.7481 106.726 38.1959 105.22 36.8063 104.996Z" fill="#001434"/>
<path d="M115.396 23.982C117.28 23.6114 119.773 24.368 120.283 23.6114C121.286 22.1215 114.045 21.5811 114.338 23.3104C114.338 23.735 114.717 24.1132 115.396 23.982Z" fill="#001434"/>
<path d="M39.176 118.537C40.3803 118.537 38.8749 115.449 42.1868 115.38C42.6346 115.38 43.0129 115.002 42.9588 114.608C42.8121 113.473 39.8708 113.628 38.8981 115.056C38.1261 116.36 37.9716 118.537 39.176 118.537Z" fill="#001434"/>
<path d="M21.1186 106.726C20.9907 106.68 20.8513 106.678 20.7219 106.72C20.5926 106.761 20.4805 106.844 20.4032 106.956C20.3258 107.067 20.2874 107.202 20.2939 107.337C20.3005 107.473 20.3515 107.603 20.4393 107.706C21.6127 109.088 21.798 114.33 21.7208 120.831C21.7208 125.872 21.2653 127.779 20.8176 128.805C20.4393 129.709 22.1686 130.156 22.5469 128.126C23.1413 124.876 24.253 107.567 21.1186 106.726Z" fill="#001434"/>
<path d="M49.6368 106.726C50.8508 106.692 52.0576 106.924 53.1726 107.405C53.5509 107.552 54.0758 107.405 54.0758 106.95C54.0758 105.676 50.6867 105.074 49.5596 105.221C48.4325 105.367 48.6563 106.726 49.6368 106.726Z" fill="#001434"/>
<path d="M14.6491 38.1792C14.3171 37.1833 12.8426 37.6157 13.2903 39.0825C13.5347 40.0265 14.0055 40.8967 14.6619 41.6177C15.3184 42.3387 16.1407 42.8889 17.0577 43.2204C18.6017 43.5987 18.7098 42.3172 18.0304 41.9466C16.5223 41.0936 15.3347 39.7705 14.6491 38.1792Z" fill="#001434"/>
<path d="M52.1917 132.611C50.5396 132.912 51.0646 138.401 42.5648 137.876C36.3887 137.498 35.8638 131.785 34.8447 132.086C33.3007 132.711 36.3887 139.806 44.1706 139.459C49.8139 139.235 52.0759 135.768 52.902 133.437C52.9328 133.333 52.9371 133.223 52.9145 133.117C52.8918 133.011 52.8429 132.912 52.7722 132.83C52.7015 132.748 52.6113 132.685 52.5099 132.646C52.4085 132.608 52.2991 132.596 52.1917 132.611Z" fill="#001434"/>
<path d="M60.738 55.9427C62.0041 55.9427 62.5136 49.2957 58.9315 47.5896C58.1132 47.1958 57.6577 48.0373 58.1595 48.4928C61.4483 51.6503 58.9624 55.9427 60.738 55.9427Z" fill="#001434"/>
<path d="M80.3315 40.6652C80.2543 40.063 80.2543 38.8587 79.2816 39.0826C78.3088 39.3064 78.6794 40.5185 78.9033 41.0435C78.932 41.1432 78.9803 41.2362 79.0454 41.3171C79.1105 41.3979 79.191 41.465 79.2823 41.5144C79.3737 41.5636 79.4741 41.5938 79.5775 41.6031C79.6809 41.6124 79.785 41.6006 79.8837 41.5684C80.2543 41.4217 80.4087 41.2673 80.3315 40.6652Z" fill="#001434"/>
<path d="M45.6454 119.371C44.14 120.869 40.3032 121.849 38.35 120.645C37.825 120.274 37.2923 121.247 37.9717 122.004C38.3685 122.358 38.7448 122.734 39.0988 123.131C40.0021 124.181 38.9521 125.54 41.3608 125.686C43.9933 125.918 45.8384 123.648 46.5487 121.772C47.1277 120.259 46.5487 118.468 45.6454 119.371Z" fill="#001434"/>
<path d="M81.3893 43.9003C81.0496 42.2405 79.8067 42.9198 79.9534 43.9003C80.7254 48.2621 82.362 58.4989 83.6436 58.8772C85.1876 59.3404 84.1685 57.696 81.3893 43.9003Z" fill="#001434"/>
<path d="M78.2242 61.1308C78.394 61.9569 78.7569 62.2579 79.1275 62.1807C79.7296 62.1113 79.7296 61.5863 79.6601 60.9841C79.6601 59.0773 77.8768 59.4092 78.2242 61.1308Z" fill="#001434"/>
<path d="M45.0434 111.62C44.5956 114.477 45.6455 116.963 50.3085 117.264C54.8247 117.487 55.8823 115.604 56.1062 113.496C56.7701 107.359 45.9698 105.406 45.0434 111.62ZM53.6976 115.079C53.3965 115.38 52.0455 115.681 50.6095 115.758C50.9029 113.874 51.204 111.466 51.3815 109.513C54.2997 109.891 55.7279 112.971 53.6976 115.079Z" fill="#001434"/>
<path d="M75.8927 107.181C75.3095 106.3 74.5005 105.59 73.5501 105.127C72.5997 104.664 71.5425 104.465 70.4886 104.549C69.8587 104.163 69.1705 103.881 68.4505 103.715C68.8365 98.4809 68.0645 92.907 63.0465 91.3629C61.24 90.7608 61.24 89.7803 60.5606 90.0814C59.8813 90.3825 60.2595 91.9651 62.2899 92.714C66.7598 94.3892 67.223 98.5658 66.922 103.329C65.872 103.097 65.046 102.951 63.5406 102.727C63.6178 98.3573 63.7645 95.5781 59.7809 94.6749C58.7233 94.451 57.82 94.1499 57.4649 93.2466C57.1098 92.3434 56.0598 92.714 56.3377 93.6172C57.0634 95.9332 59.9507 96.1031 60.9312 96.628C61.9116 97.153 62.205 98.6584 62.0583 102.65C61.8344 102.65 61.6028 102.727 61.379 102.727C59.2714 99.1139 56.2606 99.5617 53.4813 98.1334C50.8488 96.7824 50.5477 94.8987 46.9347 93.3161C40.913 90.6141 26.8625 94.9759 25.3185 102.426C24.7163 96.7824 26.3684 95.9564 28.6304 95.277C31.564 94.3738 34.2738 93.3161 33.8183 86.1751C33.7411 84.9707 32.8379 84.5924 32.7684 85.874C32.3129 100.164 22.4544 87.6033 23.7359 103.931C22.8037 103.66 21.8469 103.481 20.8795 103.399C19.6751 90.838 24.2609 93.3161 27.4261 91.5868C29.4565 90.4597 29.6803 88.8076 29.6031 84.137C29.6031 83.1642 28.6304 83.5348 28.5532 84.438C28.3293 88.2054 28.5532 90.3748 24.863 90.9847C18.687 92.0037 19.2196 97.8324 19.374 103.252C16.6643 103.175 15.2361 104.302 14.935 106.934C-1.77123 108.818 12.3025 140.949 20.5784 139.969C20.5784 142.076 20.5784 143.666 21.4044 143.582C22.6088 143.45 21.4044 138.239 22.3849 134.248C27.7889 134.248 28.5609 133.476 28.476 127.03C34.1966 133.422 49.9224 134.024 56.994 129.508C57.6502 133.607 60.7382 135.151 64.5982 135.02C65.1695 142.022 63.9189 144.284 64.8298 144.284C65.8798 144.284 66.0264 142.4 66.1808 139.691C76.1089 134.124 80.9262 131.415 78.5947 114.562C78.5204 114.024 78.598 113.476 78.8186 112.979C80.6097 108.818 78.0543 105.977 75.8927 107.181ZM20.5166 138.556C14.495 139.382 3.5865 115.836 11.0364 110.192C11.5613 110.864 11.8624 112.446 12.3874 112.223C13.2211 111.921 12.8429 110.563 12.3179 109.358C13.122 108.953 13.984 108.674 14.8732 108.532C13.7538 130.519 13.9391 134.379 20.8949 134.379C20.632 135.756 20.5053 137.155 20.5166 138.556ZM21.5665 132.912C15.6221 133.105 15.0354 131.06 16.3015 109.513C16.1548 106.124 16.8264 104.248 20.3699 104.881C28.09 106.24 26.8394 106.988 26.546 113.913C24.9634 117.773 24.0601 121.734 26.9938 125.424C26.986 133.677 26.8316 132.688 21.5665 132.912ZM56.8782 128.018C48.1313 134.379 20.8949 131.291 27.8893 115.079C29.6186 117.395 34.9609 117.866 36.9218 115.851C39.701 112.987 38.6511 109.073 35.262 108.131C34.1354 107.782 32.9464 107.682 31.7774 107.838C30.6084 107.994 29.4872 108.402 28.4915 109.034C30.9773 102.086 37.3695 105.12 42.8662 105.645C48.8802 106.17 52.4931 102.333 57.4572 108.054C56.5616 112.817 56.3995 123.918 56.8782 128.018ZM32.4827 115.457C32.7838 113.574 33.0849 111.165 33.3088 109.212C38.7283 108.988 37.4467 116.361 32.4827 115.457ZM42.789 104.016C37.385 103.568 31.2089 100.859 27.6654 106.726C27.3627 106.107 26.8918 105.585 26.3067 105.22C25.4806 97.3228 40.3804 92.0963 46.2476 94.7675C49.7139 96.3115 49.8606 98.1489 52.717 99.5771C55.2801 100.859 58.0593 100.48 59.7963 103.344C58.7729 103.945 58.0186 104.915 57.6888 106.054C52.5704 101.013 48.6563 104.472 42.789 104.016ZM58.0593 123.208C57.9898 116.43 58.3604 108.154 59.2637 106.054C59.7191 103.19 65.8103 104.317 68.2189 105.151C67.2551 105.607 66.3877 106.244 65.6636 107.027C64.8916 105.089 63.1314 105.722 63.7799 106.502C64.2824 107.26 64.5509 108.148 64.5519 109.057C63.1855 113.689 63.4402 130.82 67.7094 133.213C58.5303 135.043 58.1597 130.882 58.0593 123.208ZM66.2658 138.177C66.2658 137.128 66.1886 136.07 66.1114 135.089C68.5972 134.788 69.8788 134.317 71.9091 134.557C70.2132 136.03 68.3122 137.25 66.2658 138.177ZM77.0739 114.631C78.9576 127.647 76.6261 134.117 70.0023 132.912C66.9914 132.387 65.7099 127.416 65.3702 115.928C65.2158 111.79 65.6713 109.459 67.0995 107.953C67.9256 108.478 68.1495 109.837 68.2267 110.215C68.3039 110.818 69.2843 110.987 69.431 109.984C69.4763 109.418 69.3991 108.85 69.2045 108.317C69.01 107.784 68.7028 107.299 68.3039 106.896C68.7331 106.651 69.1857 106.449 69.6549 106.294C70.4886 106.517 71.0831 107.567 71.3147 108.548C71.5386 109.69 73.3451 108.903 71.8397 106.139C74.3255 106.819 74.9972 108.17 75.5993 109.675C76.0548 110.733 76.8809 110.053 76.8037 108.548C78.3863 108.401 78.0852 110.81 77.2591 113.064C77.093 113.569 77.0377 114.103 77.097 114.631H77.0739Z" fill="#001434"/>
</svg>
