<svg width="156" height="156" viewBox="0 0 156 156" fill="none" xmlns="http://www.w3.org/2000/svg">
<path d="M124.843 57.872C125.927 55.9851 125.637 53.369 122.448 54.8122L118.835 45.2749L112.286 43.7752L108.276 45.2749C108.276 45.2749 106.238 48.1977 106.238 49.387C106.238 50.5762 106.52 52.9718 106.52 52.9718C106.068 53.8282 105.793 54.767 105.713 55.732C105.78 56.7896 107.404 62.4889 108.506 63.1648C109.609 63.8407 112.114 63.452 112.114 63.452L112.578 65.9126L108.1 66.604C108.1 66.604 107.726 70.7331 110.627 70.8988C113.528 71.0645 124.846 67.7553 124.846 67.7553L121.415 66.2068L120.96 59.978C120.96 59.978 123.762 59.7589 124.843 57.872ZM106.97 53.1421C106.928 52.8453 106.986 52.5431 107.136 52.2835C107.136 52.2835 107.343 52.0512 108.036 52.2455C108.55 52.4603 108.992 52.8166 109.312 53.273C108.744 53.5671 108.136 53.7758 107.508 53.8923C107.276 53.8784 107.032 53.6616 106.97 53.1421ZM109.586 59.676C108.967 59.5212 108.276 58.2189 108.276 58.2189L110.464 58.0903L113.484 58.2405C111.771 59.8703 110.206 59.8309 109.586 59.676ZM113.415 54.1711C113.205 54.13 113.072 53.9574 112.887 53.4967C112.702 53.036 113.21 52.3949 113.21 52.3949C113.445 52.409 113.681 52.409 113.917 52.3949C114.31 52.3717 115.905 53.736 115.905 53.736C115.099 53.995 114.261 54.1414 113.415 54.1711Z" fill="#FFD997"/>
<path d="M34.8807 50.4183C34.8807 50.4183 31.3447 51.7786 30.6433 52.8138C29.9418 53.849 28.3941 54.1385 29.5299 56.5705C29.5299 56.5705 28.13 58.1492 29.0754 59.7913C29.0754 59.7913 36.8388 54.6813 38.6134 54.4258C40.388 54.1703 49.1765 59.1758 52.968 61.7866L56.816 63.3746C56.816 63.3746 59.5066 60.6306 59.5577 57.539C59.5912 55.6952 59.3829 53.8549 58.9383 52.0651C58.9383 52.0651 58.2647 52.1983 57.8613 52.3276C57.5682 52.3945 57.2613 52.3649 56.9864 52.2432L54.7109 57.6629C54.7109 57.6629 51.3816 53.8559 48.4023 52.1464C45.4229 50.4368 42.3259 45.9113 34.8807 50.4183Z" fill="#81F8F8"/>
<path d="M68.0901 66.4545H67.8725C67.4896 66.4545 67.1109 66.5337 66.7602 66.6872C66.4094 66.8407 66.0943 67.0651 65.8345 67.3463C65.5747 67.6276 65.376 67.9595 65.2507 68.3213C65.1255 68.6831 65.0765 69.0669 65.1069 69.4486L65.4429 73.6613C65.6798 73.0813 66.0388 72.5591 66.4956 72.1304C66.9524 71.7016 67.4962 71.3764 68.0901 71.1767V66.4545Z" fill="#81F8F8"/>
<path d="M27.9636 70.1988C27.9636 70.1988 32.1678 63.5604 39.0733 62.3348C45.9789 61.1091 47.083 67.969 47.083 67.969L48.3094 75.6256L51.5241 76.1095L51.3421 79.0671L53.4496 77.9832L54.9857 80.6326C54.9857 80.6326 55.8792 78.6513 56.5459 78.4725C57.6879 78.0724 58.7401 77.4518 59.6429 76.646C60.6997 75.7022 64.1544 73.4917 65.4397 73.6605C65.7441 72.9873 66.1964 72.3914 66.7631 71.9172C67.3297 71.443 67.9961 71.1029 68.7124 70.922C70.4962 70.4135 72.1679 69.5729 73.6398 68.4444L76.8142 76.4703L75.6668 77.4063C75.6668 77.4063 76.2715 79.623 74.9699 79.6795C73.6684 79.7361 75.0652 83.468 71.9302 83.9023C71.9302 83.9023 71.3604 83.8156 71.0646 84.5867C70.7689 85.3579 67.2561 90.0553 66.1288 90.6677C65.0015 91.2801 57.5555 97.8566 52.4741 98.5837C47.3927 99.3107 35.8354 85.3107 35.8354 85.3107C35.8354 85.3107 28.6682 81.4394 27.7166 77.3281C27.1296 74.9755 27.2152 72.5052 27.9636 70.1988Z" fill="#81F8F8"/>
<path d="M28.7397 117.893L29.8593 120.879C29.8593 120.879 49.4432 122.519 53.69 122.765C57.9368 123.011 69.1642 119.34 69.1642 119.34C69.5137 118.196 69.6855 117.005 69.6736 115.809C69.6736 115.809 53.9633 117.325 48.2547 117.454L28.7397 117.893Z" fill="#81F8F8"/>
<path d="M67.2856 89.7727C67.2856 89.7727 68.4648 103.495 68.67 104.674C68.8752 105.853 70.5135 111.874 70.512 112.698C70.5104 113.522 70.6103 114.87 69.6742 115.809L69.1648 119.34L71.0895 125.946C71.0895 125.946 74.3352 126.145 75.5322 125.754C76.7292 125.364 76.195 124.499 76.195 124.499L75.6871 120.146C76.1828 118.74 76.5356 117.287 76.74 115.81C76.7247 114.322 76.1307 112.898 75.0839 111.84C75.6869 109.83 75.7908 107.704 75.3866 105.646C74.7796 101.788 73.1413 99.6955 72.6311 95.5989C72.1236 92.3005 71.4099 89.037 70.4941 85.8279L67.2856 89.7727Z" fill="#81F8F8"/>
<path d="M108.276 45.2749C108.276 45.2749 109.77 44.6678 110.419 44.4092C111.131 44.9002 111.904 45.2954 112.719 45.5846C113.27 45.6171 116.323 45.1603 116.323 45.1603C116.989 45.7904 117.439 46.6147 117.609 47.5155C117.963 49.1213 119.684 49.3141 119.988 49.4279C120.291 49.5418 120.127 51.2567 120.127 51.2567L119.867 53.2698C119.98 53.9252 120.207 54.5557 120.538 55.1326L120.954 55.6436C120.954 55.6436 120.057 56.9932 119.691 56.9777C119.326 56.9622 117.808 57.3284 117.637 57.762C117.465 58.1956 117.764 58.3667 118.653 58.3481C119.54 58.2264 120.355 57.7943 120.954 57.1286C121.495 56.3829 121.993 55.6075 122.446 54.8059C122.446 54.8059 124.325 54.4521 124.386 54.4188C124.448 54.3855 125.111 55.2031 125.111 55.2031C125.519 54.5747 125.808 53.8765 125.963 53.1436C125.914 52.5668 125.894 50.923 125.894 50.923L126.248 48.8883C126.902 49.0392 127.583 49.0299 128.232 48.8612C128.49 48.7412 128.72 48.5683 128.907 48.3537C129.093 48.1391 129.233 47.8876 129.316 47.6155C129.399 47.3434 129.424 47.057 129.389 46.7747C129.354 46.4924 129.259 46.2206 129.113 45.9771C129.342 45.8163 129.526 45.5977 129.645 45.3434C129.763 45.0891 129.812 44.808 129.788 44.5285C129.852 44.0274 129.717 43.5211 129.41 43.1194C129.104 42.7177 128.651 42.4531 128.151 42.383C127.157 42.3149 127.695 42.3381 127.695 42.3381C127.709 41.8984 127.563 41.4684 127.284 41.1283C127.005 40.7882 126.611 40.5611 126.177 40.4892C124.606 40.2252 122.607 40.5171 122.531 43.0837C122.531 43.0837 122.562 42.3296 121.07 42.8515C120.543 42.3069 119.872 41.9233 119.135 41.7451C118.273 41.7071 116.176 40.9391 115.165 40.9878C113.7 41.1961 112.265 41.5763 110.889 42.1206C110.096 42.4783 108.276 45.2749 108.276 45.2749Z" fill="#81F8F8"/>
<path d="M121.088 60.5447C121.707 60.8793 122.345 61.1761 122.999 61.4335C123.296 61.5167 123.6 61.5724 123.906 61.6L123.984 60.7715C123.528 60.7107 123.083 60.5926 122.657 60.42C122.119 60.1707 121.774 59.9779 121.774 59.9779H120.96L121.088 60.5447Z" fill="#81F8F8"/>
<path d="M64.0555 38.2137C64.0555 38.2137 63.2533 33.7486 62.3521 32.437C62.3521 32.437 53.8663 29.7272 52.2567 31.0488C50.647 32.3705 49.3462 34.1768 49.3617 36.1318C49.3772 38.0868 49.0605 40.919 49.0605 40.919C49.0605 40.919 46.9639 36.3153 45.7452 37.856C44.8073 39.1135 44.3466 40.6633 44.4452 42.229C44.6479 42.692 44.8767 43.143 45.1304 43.5801C45.1304 43.5801 46.8299 45.0806 47.7892 45.0628L46.0805 50.4183C46.0805 50.4183 51.7851 54.8756 52.4123 55.1466C53.0394 55.4176 54.711 57.6629 54.711 57.6629L56.9866 52.2432C57.5255 52.3002 58.0704 52.2412 58.5846 52.0699C59.0988 51.8987 59.5703 51.6193 59.9674 51.2506C61.1234 50.0249 61.8953 47.3298 62.6479 46.3318C63.4426 44.8865 63.7572 43.226 63.546 41.5902C63.2673 40.5396 64.0555 38.2137 64.0555 38.2137ZM54.1257 39.9326C54.9774 39.4463 57.654 39.9326 57.654 39.9326C57.6073 40.4354 57.4948 40.93 57.3195 41.4036C57.2496 41.4288 57.1767 41.4447 57.1027 41.4509L56.4508 41.2047C56.0791 41.0428 54.1257 39.9326 54.1257 39.9326ZM57.3876 48.1706C56.7156 48.0219 55.2128 45.8378 55.2128 45.8378L60.2043 46.7591C60.2043 46.7591 58.0566 48.32 57.3876 48.1706ZM62.6912 42.229C62.5116 42.5387 62.0842 42.3931 62.0842 42.3931L61.4083 42.1283L60.6224 41.7799L60.2709 40.6464C60.2709 40.6464 60.9616 40.6642 61.4377 40.6735C61.9011 40.7273 62.357 40.8332 62.7965 40.9894C62.8137 41.4054 62.7783 41.8219 62.6912 42.229Z" fill="#FFD997"/>
<path d="M74.1772 69.485L76.7191 76.0352L78.7871 77.0239L80.8521 77.3646H81.9763L83.0602 78.032L84.7675 78.4098L85.9737 77.6773V76.5524L86.971 75.9732L87.2753 74.935L85.8468 70.6053L84.9324 69.2047L82.7459 68.9662L74.1772 69.485Z" fill="#FFD997"/>
<path d="M98.8384 73.2889L95.4534 77.1392L93.5387 77.6657L91.7269 77.6402L90.7684 77.4675L89.7417 77.8709L88.2288 77.9313L87.3129 77.1222L87.4848 76.1637L86.7229 75.5172L86.623 74.5857L88.5029 71.1132L89.4971 70.0602L91.3979 70.1911L97.2907 72.3079L98.8384 73.2889Z" fill="#FFD997"/>
<path d="M95.6553 76.9093C95.6553 76.9093 108.066 92.8999 112.51 94.4445C116.954 95.9892 122.512 91.8299 122.512 91.8299L117.136 82.6496L114.723 83.3216L98.8382 73.2889L95.6553 76.9093Z" fill="#FFD997"/>
<path d="M96.1039 89.1935C96.1039 89.1935 94.999 101.476 94.6111 102.291C94.2232 103.105 92.4309 106.584 92.1281 108.129C91.8254 109.675 90.6958 115.167 92.3124 126.509C92.3124 126.509 95.74 126.749 96.4159 126.677C96.4159 126.677 95.2104 119.174 96.2502 115.015C97.2901 110.856 98.5172 105.501 101.157 102.884L101.573 99.2302L100.644 89.7727L96.1039 89.1935Z" fill="#FFD997"/>
<path d="M114.916 83.9023L117.136 82.6496L116.081 80.8494C116.051 80.7982 116.041 80.7379 116.052 80.6796C116.063 80.6213 116.095 80.5689 116.141 80.532L119.761 77.6603L120.307 74.7956C120.311 74.7624 120.322 74.7306 120.34 74.7019C120.357 74.6733 120.38 74.6484 120.407 74.6289C120.434 74.6094 120.465 74.5956 120.498 74.5884C120.531 74.5812 120.564 74.5807 120.597 74.5869C120.63 74.5932 120.661 74.6061 120.689 74.6248C120.717 74.6435 120.741 74.6676 120.759 74.6957C120.777 74.7239 120.789 74.7554 120.795 74.7884C120.8 74.8214 120.799 74.8552 120.791 74.8877L120.353 77.1919L122.629 75.3856C122.654 75.3652 122.683 75.3501 122.714 75.341C122.746 75.332 122.778 75.3292 122.811 75.3328C122.843 75.3363 122.874 75.3463 122.903 75.362C122.931 75.3777 122.957 75.3989 122.977 75.4243C122.997 75.4497 123.012 75.4789 123.021 75.5101C123.031 75.5414 123.033 75.5741 123.03 75.6065C123.026 75.6388 123.016 75.6702 123.001 75.6987C122.985 75.7272 122.964 75.7523 122.938 75.7727L116.619 80.786L123.235 92.0823L132.077 85.3649C133.367 83.4339 135.367 79.1097 135.358 75.5799C135.349 72.1809 127.66 67.7685 125.66 66.676C125.515 66.5965 125.355 66.5494 125.19 66.5379C125.025 66.5264 124.86 66.5508 124.705 66.6094C122.605 67.403 114.289 70.4404 111.936 69.7064C110.016 69.1041 108.498 67.204 107.781 66.1565C107.642 65.9531 107.44 65.8003 107.206 65.7206C106.973 65.641 106.72 65.6388 106.485 65.7144C104.569 66.3237 100.035 67.7816 99.5938 68.0704C99.0363 68.4374 97.4537 71.7659 97.4537 71.7659L97.2904 72.3079L97.0898 72.5611C97.0898 72.5611 104.6 77.6673 106.992 79.0454C109.383 80.4236 114.916 83.9023 114.916 83.9023Z" fill="black"/>
<path d="M123.309 92.6428C123.266 92.6757 123.213 92.6934 123.159 92.6931C123.143 92.6931 123.127 92.6915 123.111 92.6885C123.077 92.6815 123.045 92.6674 123.016 92.6472C122.988 92.6269 122.964 92.6009 122.946 92.5708L122.512 91.8299C122.509 91.823 122.507 91.8161 122.505 91.8089C120.994 92.5143 115.627 94.8719 112.775 94.1929C109.666 93.4527 97.5222 78.9347 95.8475 76.9542L93.5959 84.6433C93.5644 84.7504 93.5717 84.8653 93.6164 84.9676C93.6612 85.07 93.7406 85.1533 93.8406 85.203L95.153 85.8573L96.2454 81.9341C96.2652 81.8737 96.3075 81.8232 96.3636 81.7932C96.4197 81.7632 96.4852 81.7559 96.5464 81.773C96.6077 81.7901 96.66 81.8301 96.6925 81.8848C96.725 81.9395 96.7351 82.0046 96.7208 82.0665L95.5091 86.4178C95.5091 86.6633 95.5161 87.0659 95.5447 87.7341C95.6268 89.5992 98.8384 91.9576 98.8384 91.9576C98.8384 91.9576 99.5267 92.1125 99.5236 95.3512C99.5205 98.5898 101.57 99.2325 101.57 99.2325C101.57 99.2325 108.069 99.5801 111.635 99.7048C115.201 99.8294 127.44 99.1543 127.44 99.1543C128.525 98.2811 129.421 97.196 130.072 95.9651C130.986 94.2176 131.527 87.9478 131.655 86.3017L123.309 92.6428Z" fill="black"/>
<path d="M54.1255 39.7344C55.3036 39.5819 56.4998 39.6486 57.6538 39.931" stroke="black" stroke-width="0.980065" stroke-linecap="round" stroke-linejoin="round"/>
<path d="M56.5808 39.8396C56.5808 39.8396 56.2045 40.7571 56.4507 41.2069L57.1027 41.4531C57.2887 41.2595 57.43 41.0274 57.5167 40.7732C57.6033 40.5191 57.6333 40.249 57.6044 39.9821L56.5808 39.8396Z" fill="black"/>
<path d="M60.2705 40.6433C61.1351 40.6041 62.0006 40.697 62.8372 40.919" stroke="black" stroke-width="0.980065" stroke-linecap="round" stroke-linejoin="round"/>
<path d="M61.747 40.8687C61.747 40.8687 61.3715 41.7854 61.6169 42.2352L62.2688 42.4814C62.4549 42.2878 62.5963 42.0557 62.683 41.8016C62.7697 41.5474 62.7996 41.2773 62.7706 41.0103L61.747 40.8687Z" fill="black"/>
<path d="M53.9608 37.41C54.5946 37.1022 55.2875 36.9354 55.992 36.9212C56.6964 36.907 57.3955 37.0458 58.0411 37.328C58.206 37.4155 58.4747 37.537 58.3214 38.0194C58.1681 38.5017 58.1356 38.535 57.4744 38.4491C56.7947 38.244 56.0841 38.1604 55.3754 38.2021C54.125 38.4863 53.192 37.7646 53.9608 37.41Z" fill="black"/>
<path d="M58.9388 37.894L58.6523 38.5351" stroke="black" stroke-width="0.980065" stroke-linecap="round" stroke-linejoin="round"/>
<path d="M64.0551 38.2137C63.7285 38.0092 63.3578 37.8856 62.9739 37.8533C62.5899 37.8209 62.2038 37.8808 61.8477 38.0279C61.6696 38.0829 61.3831 38.1541 61.4458 38.6558C61.5085 39.1575 61.5333 39.1978 62.1992 39.2342C62.865 39.2706 62.6351 38.909 63.3203 39.1297C63.4587 39.1585 63.595 39.1965 63.7283 39.2435C63.9892 39.3604 64.3276 38.3895 64.0551 38.2137Z" fill="black"/>
<path d="M60.8618 38.4197L61.0252 39.1026" stroke="black" stroke-width="0.980065" stroke-linecap="round" stroke-linejoin="round"/>
<path d="M60.2583 39.0809C60.1025 39.515 60.045 39.9784 60.0898 40.4375C60.1347 40.8965 60.2808 41.34 60.5177 41.7358C60.5177 41.7358 61.5165 43.611 61.2742 44.2413C61.0318 44.8715 59.0962 45.1835 59.0962 45.1835" stroke="black" stroke-width="0.980065" stroke-linecap="round" stroke-linejoin="round"/>
<path d="M59.1354 44.3458C58.7973 44.3364 58.4598 44.3784 58.1343 44.4704" stroke="black" stroke-width="0.980065" stroke-linecap="round" stroke-linejoin="round"/>
<path d="M55.1918 45.8386C55.1918 45.8386 56.4446 48.0653 57.6361 48.2349C58.8277 48.4044 60.2245 46.7344 60.2245 46.7344C60.2245 46.7344 55.524 45.9601 55.1609 45.7178C55.0607 45.6619 54.9803 45.5763 54.9307 45.4729C54.8811 45.3695 54.8647 45.2533 54.8837 45.1402" stroke="black" stroke-width="0.980065" stroke-linecap="round" stroke-linejoin="round"/>
<path d="M45.2113 38.5389C45.2113 38.5389 44.0151 41.2573 44.619 42.6882C44.8932 43.4483 45.4159 44.0936 46.1024 44.5198C46.7889 44.9459 47.5992 45.128 48.402 45.0365" stroke="black" stroke-width="0.980065" stroke-linecap="round" stroke-linejoin="round"/>
<path d="M47.6506 45.0729C47.1907 46.8867 46.6205 48.6708 45.9434 50.4152" stroke="black" stroke-width="0.980065" stroke-linecap="round" stroke-linejoin="round"/>
<path d="M47.2114 39.6538C45.762 39.4494 44.7206 42.1531 47.4437 43.5801" stroke="black" stroke-width="0.980065" stroke-linecap="round" stroke-linejoin="round"/>
<path d="M62.0948 31.9291C62.0948 31.9291 64.1551 35.6812 64.0552 38.4607C63.8207 39.431 63.6382 40.4131 63.5086 41.4029C63.4443 42.3057 64.0599 43.577 62.4672 46.6902C60.2343 51.057 60.1166 51.7291 58.2375 52.2649C56.3584 52.8006 51.4946 49.7764 50.5786 48.3719" stroke="black" stroke-width="0.980065" stroke-linecap="round" stroke-linejoin="round"/>
<path d="M45.2621 39.0809C45.2621 39.0809 45.9086 37.6315 46.7966 37.9273C47.6065 38.1959 48.4442 39.9403 48.7911 41.087C48.8181 41.1782 48.8739 41.2582 48.9501 41.3151C49.0262 41.372 49.1188 41.4028 49.2138 41.4029H49.9881C50.0564 41.4031 50.1238 41.3875 50.1849 41.3572C50.2461 41.3269 50.2994 41.2828 50.3406 41.2283C50.3817 41.1738 50.4097 41.1105 50.4221 41.0434C50.4346 40.9763 50.4313 40.9072 50.4124 40.8416C50.1546 39.9442 49.7156 38.2323 49.961 37.695C50.297 36.9548 51.0628 37.9644 51.4251 35.1113C51.7875 32.2582 52.6221 31.3949 54.5012 32.0917C56.3803 32.7886 59.6159 33.9716 60.8648 33.8594C62.1136 33.7471 63.0722 30.959 63.45 29.5576C63.8278 28.1562 63.0412 28.3645 62.339 29.1186C62.339 29.1186 62.5294 26.1176 61.3146 25.6647C60.0998 25.2117 59.4665 27.3735 59.4665 27.3735C59.4665 27.3735 59.931 25.2567 58.6551 25.458C57.3791 25.6593 56.8611 27.1497 56.1511 27.1876C55.4412 27.2256 51.0705 26.13 48.1678 29.2309C45.2652 32.3318 43.6594 35.4698 45.2621 39.0809Z" fill="black"/>
<path d="M53.2812 50.841L55.6342 55.1226L56.9698 52.2362L53.2812 50.841Z" fill="black"/>
<path d="M56.9725 52.2362L54.7109 57.6629C54.7109 57.6629 56.2765 59.9748 56.4515 61.5257" stroke="black" stroke-width="0.980065" stroke-linecap="round" stroke-linejoin="round"/>
<path d="M49.3652 42.3932H50.4229" stroke="black" stroke-width="0.980065" stroke-linecap="round" stroke-linejoin="round"/>
<path d="M49.6372 43.34H50.2342" stroke="black" stroke-width="0.980065" stroke-linecap="round" stroke-linejoin="round"/>
<path d="M47.0124 46.715C47.0124 46.715 40.6922 45.5033 37.6029 47.185C35.294 48.5528 33.1268 50.1468 31.1333 51.9435C31.1333 51.9435 32.5107 52.7952 36.4439 49.9738C40.3771 47.1525 46.1329 50.841 46.1329 50.841L46.8003 48.0622L47.0124 46.715Z" fill="black"/>
<path d="M31.8095 51.6671C31.8095 51.6671 29.0702 53.835 29.0726 55.0483C29.0749 56.2616 29.7044 56.3885 29.5162 56.9104C29.3281 57.4322 28.1768 58.2204 29.0726 59.7914C29.0726 59.7914 36.6022 53.9272 39.7332 54.3716C42.8643 54.816 52.5517 62.6956 56.8179 63.3746C56.8179 63.3746 56.3905 58.2506 52.3605 55.1226C48.3305 51.9947 45.945 50.4183 45.945 50.4183" stroke="black" stroke-width="0.980065" stroke-linecap="round" stroke-linejoin="round"/>
<path d="M56.9863 49.2136C57.2935 49.4218 57.6623 49.5195 58.0323 49.4907" stroke="black" stroke-width="0.980065" stroke-linecap="round" stroke-linejoin="round"/>
<path d="M50.5786 51.8654C50.5786 51.8654 53.0725 55.5198 53.8769 56.5705" stroke="black" stroke-width="0.980065" stroke-linecap="round" stroke-linejoin="round"/>
<path d="M29.0753 59.7913C29.0753 59.7913 27.9139 66.6101 27.965 69.6351C28.0161 72.6601 24.1271 79.7004 35.8338 85.3106C35.8338 85.3106 46.194 96.37 48.6747 97.5841C51.1554 98.7981 51.4682 99.5244 56.3863 97.3286C61.3043 95.1328 68.4917 89.7339 71.3858 83.9789C71.3858 83.9789 73.3029 83.437 73.738 82.8787C74.1731 82.3205 74.0183 80.3399 74.3845 79.8831C74.7507 79.4263 75.7913 80.6675 75.6667 77.4055L76.8064 76.2589L73.69 68.2299C73.101 68.8416 72.4115 69.3478 71.6514 69.7265C70.2972 70.435 65.3714 71.7256 65.4427 73.6605C65.4427 73.6605 61.8207 74.2884 59.6358 76.6584C57.4508 79.0284 56.7401 77.8391 55.9248 78.9959C54.9437 80.6849 54.0524 82.4245 53.2544 84.2073" stroke="black" stroke-width="0.980065" stroke-linecap="round" stroke-linejoin="round"/>
<path d="M44.7305 63.8167C45.5901 64.6725 46.2897 65.6752 46.7962 66.7774C47.4256 68.9407 48.3091 75.6255 48.3091 75.6255L51.5238 76.1094L46.4911 82.1114" stroke="black" stroke-width="0.980065" stroke-linecap="round" stroke-linejoin="round"/>
<path d="M51.5238 76.1094C51.5238 76.1094 51.1158 84.9258 50.0884 88.4053C50.0884 88.4053 52.1525 83.1172 53.6902 80.8579" stroke="black" stroke-width="0.980065" stroke-linecap="round" stroke-linejoin="round"/>
<path d="M51.3418 79.0671C51.9939 78.6152 52.7024 78.2508 53.4493 77.9832C53.8271 78.0203 54.9854 80.6326 54.9854 80.6326" stroke="black" stroke-width="0.980065" stroke-linecap="round" stroke-linejoin="round"/>
<path d="M56.8174 63.3746C58.6002 61.4364 59.6066 58.9094 59.6442 56.2763C59.4791 54.9048 59.1844 53.552 58.7639 52.2362" stroke="black" stroke-width="0.980065" stroke-linecap="round" stroke-linejoin="round"/>
<path d="M32.0112 54.8562C32.0112 54.8562 38.8494 50.7047 41.7196 51.0818C44.5897 51.4588 36.3772 55.1195 36.3772 55.1195" stroke="black" stroke-width="0.980065" stroke-linecap="round" stroke-linejoin="round"/>
<path d="M47.8687 72.5379C47.8687 72.5379 48.663 68.5621 49.2731 68.7154C49.8833 68.8687 49.1075 73.7813 49.1075 73.7813" stroke="black" stroke-width="0.980065" stroke-linecap="round" stroke-linejoin="round"/>
<path d="M52.4731 98.5837C52.4731 98.5837 58.7035 94.2262 59.6458 92.1705" stroke="black" stroke-width="0.980065" stroke-linecap="round" stroke-linejoin="round"/>
<path d="M75.6666 77.4063C75.6666 77.4063 72.9769 73.5025 72.8747 74.4223C72.7725 75.3422 73.6288 77.4063 73.6288 77.4063" stroke="black" stroke-width="0.980065" stroke-linecap="round" stroke-linejoin="round"/>
<path d="M59.1353 53.4921C59.7813 54.5166 60.7848 55.2646 61.9512 55.5911C63.7498 55.9782 68.9365 55.948 68.0337 65.8236L68.1383 71.1767" stroke="black" stroke-width="0.980065" stroke-linecap="round" stroke-linejoin="round"/>
<path d="M28.7385 79.6517C28.7385 79.6517 28.8229 93.4891 27.725 99.9812C26.6271 106.473 23.7817 116.24 28.8477 117.247C33.9136 118.254 42.1013 117.85 43.8294 117.61" stroke="black" stroke-width="0.980065" stroke-linecap="round" stroke-linejoin="round"/>
<path d="M67.3868 89.7727C67.3868 89.7727 67.664 102.724 69.7429 109.516C71.8217 116.309 69.6019 116.308 64.0591 116.446" stroke="black" stroke-width="0.980065" stroke-linecap="round" stroke-linejoin="round"/>
<path d="M70.5117 85.8286C70.5117 85.8286 73.7976 101.144 74.5936 102.862C75.3895 104.58 76.2621 109.269 75.1023 111.777C75.1023 111.777 78.3603 114.374 75.6868 120.146C75.9595 121.629 76.1297 123.13 76.1963 124.636" stroke="black" stroke-width="0.980065" stroke-linecap="round" stroke-linejoin="round"/>
<path d="M53.0617 67.5486C52.9275 67.5348 52.7981 67.4906 52.6834 67.4196C52.5687 67.3485 52.4716 67.2523 52.3994 67.1382C52.3273 67.0242 52.2819 66.8952 52.2668 66.7611C52.2517 66.627 52.2673 66.4912 52.3123 66.364C52.6286 65.5228 52.8486 64.6485 52.9681 63.7579C53.0973 62.6779 53.0426 61.5839 52.8062 60.5223C52.7891 60.4603 52.7853 60.3953 52.7951 60.3317C52.8049 60.2682 52.8281 60.2074 52.8632 60.1535C52.8983 60.0995 52.9444 60.0536 52.9985 60.0188C53.0526 59.984 53.1135 59.9611 53.1771 59.9516C53.2597 59.9378 53.3444 59.9472 53.422 59.9788C53.4995 60.0104 53.5667 60.0629 53.6161 60.1305C54.3402 61.2648 54.6903 62.5976 54.6172 63.9414C54.6374 65.0154 54.4107 66.0797 53.9544 67.0523C53.8741 67.2163 53.7455 67.3517 53.5859 67.4404C53.4263 67.5292 53.2434 67.5669 53.0617 67.5486Z" fill="black"/>
<path d="M52.9676 67.0562L52.3428 68.8826" stroke="black" stroke-width="0.980065" stroke-linecap="round" stroke-linejoin="round"/>
<path d="M59.0978 66.5591C58.9635 66.5723 58.828 66.555 58.7014 66.5082C58.5748 66.4615 58.4605 66.3866 58.367 66.2892C58.2736 66.1918 58.2035 66.0745 58.1621 65.9461C58.1206 65.8177 58.1088 65.6815 58.1277 65.5479C58.2703 64.6607 58.3118 63.7601 58.2515 62.8636C58.1629 61.7795 57.8914 60.7183 57.4486 59.7248C57.4196 59.6674 57.403 59.6045 57.3999 59.5403C57.3969 59.4761 57.4075 59.4119 57.4311 59.3521C57.4546 59.2923 57.4906 59.2381 57.5366 59.1932C57.5826 59.1482 57.6376 59.1135 57.6979 59.0914C57.776 59.0622 57.8607 59.0549 57.9426 59.0705C58.0245 59.0861 58.1006 59.1238 58.1625 59.1797C59.098 60.147 59.7062 61.3835 59.9015 62.7149C60.1351 63.7634 60.1247 64.8516 59.8713 65.8955C59.8254 66.072 59.7266 66.2301 59.5882 66.3487C59.4498 66.4673 59.2784 66.5407 59.097 66.5591H59.0978Z" fill="black"/>
<path d="M58.908 66.0961L58.6587 68.01" stroke="black" stroke-width="0.980065" stroke-linecap="round" stroke-linejoin="round"/>
<path d="M28.8477 117.245C28.8443 118.527 29.1945 119.784 29.8596 120.879C29.8596 120.879 62.7018 122.212 69.1645 119.34C69.4627 118.096 69.6334 116.825 69.6739 115.546" stroke="black" stroke-width="0.980065" stroke-linecap="round" stroke-linejoin="round"/>
<path d="M29.8595 120.879L29.4282 126.581C29.4282 126.581 50.467 127.856 57.3981 126.951C62.0385 126.39 66.7091 126.115 71.3834 126.129L69.1644 119.34C59.9786 121.235 50.028 121.422 38.288 121.188C34.9997 121.123 31.2516 121.046 29.8595 120.879Z" fill="black"/>
<path d="M40.1624 117.845L29.3097 119.758L28.8467 117.454L33.6796 117.827L40.1624 117.845Z" fill="black"/>
<path d="M42.2783 97.3898C42.2783 97.3898 45.685 101.066 45.9831 105.232C46.2812 109.398 44.2209 111.415 44.2209 111.415" stroke="black" stroke-width="0.980065" stroke-linecap="round" stroke-linejoin="round"/>
<path d="M64.4918 97.7816C64.4918 97.7816 63.4915 98.5837 63.3103 103.258C63.0912 108.925 66.0775 110.381 66.0775 110.381" stroke="black" stroke-width="0.980065" stroke-linecap="round" stroke-linejoin="round"/>
<path d="M28.7397 87.899C29.5729 88.388 30.4476 88.8025 31.3536 89.1378C32.5715 89.5481 40.8049 90.8272 42.5625 92.1047L36.188 85.6908C36.188 85.6908 29.8129 81.2102 28.7397 80.1433V87.899Z" fill="black"/>
<path d="M51.1172 56.5705C51.1172 56.5705 55.9748 61.0403 56.8157 63.3746" stroke="black" stroke-width="0.980065" stroke-linecap="round" stroke-linejoin="round"/>
<path d="M74.1772 69.485C74.1772 69.485 81.2392 69.2063 83.3227 68.9965C85.4062 68.7866 85.455 69.6646 86.2277 71.5848C87.0004 73.5049 87.3349 74.6895 87.2667 75.367C87.1986 76.0445 86.35 76.5168 85.7539 76.5973C85.4584 76.834 85.1105 76.9963 84.7393 77.0705C84.3681 77.1448 83.9845 77.1288 83.6208 77.0239C83.6208 77.0239 80.6786 76.6089 80.163 76.1095C79.6473 75.6101 79.8935 74.5765 80.3875 74.4836C80.8815 74.3907 81.8648 74.856 81.8919 75.4715" stroke="black" stroke-width="0.980065" stroke-linecap="round" stroke-linejoin="round"/>
<path d="M82.6465 70.6053C83.0063 70.6108 83.3556 70.728 83.6458 70.9409C83.936 71.1537 84.1528 71.4515 84.2662 71.793C84.5581 72.9544 84.5047 76.4122 83.6205 77.0239" stroke="black" stroke-width="0.980065" stroke-linecap="round" stroke-linejoin="round"/>
<path d="M85.5665 76.735C85.5665 76.735 86.3733 76.5422 85.9885 74.722C85.5603 72.6911 85.6014 70.9011 84.4253 70.2019" stroke="black" stroke-width="0.980065" stroke-linecap="round" stroke-linejoin="round"/>
<path d="M82.7459 74.6191C82.7459 74.6191 81.3677 75.0697 80.8521 74.2869" stroke="black" stroke-width="0.980065" stroke-linecap="round" stroke-linejoin="round"/>
<path d="M81.4686 73.3369C81.0137 73.8768 80.4492 74.3139 79.8125 74.619C79.0545 74.8513 77.2466 75.1889 76.8076 74.619" stroke="black" stroke-width="0.980065" stroke-linecap="round" stroke-linejoin="round"/>
<path d="M76.7158 75.8857C76.7158 75.8857 78.8922 77.2902 79.9599 77.4064C81.0276 77.5225 81.3064 76.9372 82.5258 77.785C83.7452 78.6328 85.1784 78.6018 85.8953 77.785C86.092 77.5604 86.3165 76.8861 85.7506 76.5973" stroke="black" stroke-width="0.980065" stroke-linecap="round" stroke-linejoin="round"/>
<path d="M87.021 75.8965C87.2409 76.096 87.5045 76.2413 87.7906 76.3208C88.0174 76.5494 88.2957 76.7202 88.6022 76.819C88.9087 76.9177 89.2344 76.9415 89.552 76.8883C89.552 76.8883 92.08 76.8241 92.5654 76.4517C93.0509 76.0792 92.9417 75.1819 92.5329 75.058C92.1241 74.9341 91.2476 75.2299 91.1648 75.7479" stroke="black" stroke-width="0.980065" stroke-linecap="round" stroke-linejoin="round"/>
<path d="M97.4303 72.4093C97.4303 72.4093 92.3265 70.51 90.5852 70.1306C88.8439 69.7513 88.7177 70.4876 87.8753 72.0369C87.5199 72.6911 87.2443 73.2416 87.043 73.703" stroke="black" stroke-width="0.980065" stroke-linecap="round" stroke-linejoin="round"/>
<path d="M90.9998 71.5561C90.6951 71.5259 90.3885 71.5912 90.1225 71.7429C89.8566 71.8947 89.6445 72.1254 89.5155 72.4031C89.1555 73.3547 88.8644 76.286 89.5519 76.8884" stroke="black" stroke-width="0.980065" stroke-linecap="round" stroke-linejoin="round"/>
<path d="M87.9352 76.4548C87.9352 76.4548 87.2724 76.214 87.7742 74.7096C88.3339 73.0341 88.471 71.5166 89.5356 71.0397" stroke="black" stroke-width="0.980065" stroke-linecap="round" stroke-linejoin="round"/>
<path d="M90.5264 74.9419C90.5264 74.9419 91.6475 75.456 92.16 74.8452" stroke="black" stroke-width="0.980065" stroke-linecap="round" stroke-linejoin="round"/>
<path d="M91.73 73.9803C92.062 74.4819 92.4973 74.9069 93.0067 75.2268C93.6261 75.5009 95.1212 75.9577 95.5478 75.5187" stroke="black" stroke-width="0.980065" stroke-linecap="round" stroke-linejoin="round"/>
<path d="M87.7876 76.3224C87.2804 76.5113 87.4051 77.1028 87.5499 77.3127C88.0764 78.073 89.285 78.2418 90.3983 77.6402C91.5117 77.0386 92.4315 77.8105 93.3459 77.8159C94.167 77.6994 94.9553 77.415 95.6617 76.9805" stroke="black" stroke-width="0.980065" stroke-linecap="round" stroke-linejoin="round"/>
<path d="M44.7305 36.9107H11.1953V89.7727H28.5292" stroke="black" stroke-width="0.980065" stroke-linecap="round" stroke-linejoin="round"/>
<path d="M82.7459 78.0319V89.7727H71.5835" stroke="black" stroke-width="0.980065" stroke-linecap="round" stroke-linejoin="round"/>
<path d="M64.022 36.9107H82.7457V68.9663" stroke="black" stroke-width="0.980065" stroke-linecap="round" stroke-linejoin="round"/>
<path d="M12.3398 36.913C13.0588 40.4093 13.3051 43.9863 13.0723 47.5481H37.6029" stroke="black" stroke-width="0.980065" stroke-linecap="round" stroke-linejoin="round"/>
<path d="M80.5544 36.913C80.5544 36.913 80.8246 42.4009 81.3047 47.5505H62.2031" stroke="black" stroke-width="0.980065" stroke-linecap="round" stroke-linejoin="round"/>
<path d="M17.0011 47.5482C17.0011 47.5482 16.2819 58.3737 16.4762 61.3902C16.6705 64.4067 17.324 69.1583 17.2233 72.4938C17.1594 74.4744 17.2867 76.4567 17.6035 78.4129" stroke="black" stroke-width="0.980065" stroke-linecap="round" stroke-linejoin="round"/>
<path d="M16.4429 79.6966C16.4429 79.9832 16.5567 80.2582 16.7594 80.4609C16.9621 80.6636 17.2371 80.7774 17.5237 80.7774C17.8104 80.7774 18.0853 80.6636 18.288 80.4609C18.4907 80.2582 18.6046 79.9832 18.6046 79.6966C18.6046 79.4099 18.4907 79.135 18.288 78.9323C18.0853 78.7296 17.8104 78.6157 17.5237 78.6157C17.2371 78.6157 16.9621 78.7296 16.7594 78.9323C16.5567 79.135 16.4429 79.4099 16.4429 79.6966Z" stroke="black" stroke-width="0.980065" stroke-linecap="round" stroke-linejoin="round"/>
<path d="M14.3965 38.7611C14.3965 38.7611 33.4632 39.2257 34.8809 39.2528C36.2985 39.2799 43.3279 39.2528 43.3279 39.2528" stroke="black" stroke-width="0.980065" stroke-linecap="round" stroke-linejoin="round"/>
<path d="M13.0669 42.1283C15.6041 41.8166 18.1565 41.6439 20.7126 41.6111C22.9533 41.7273 35.2391 41.8961 37.6029 41.8628" stroke="black" stroke-width="0.980065" stroke-linecap="round" stroke-linejoin="round"/>
<path d="M16.4429 45.0729C16.4429 45.0729 38.492 45.1407 40.7977 45.1407" stroke="black" stroke-width="0.980065" stroke-linecap="round" stroke-linejoin="round"/>
<path d="M64.9927 40.5992C64.9927 40.5992 77.6199 40.7823 79.355 40.6413" stroke="black" stroke-width="0.980065" stroke-linecap="round" stroke-linejoin="round"/>
<path d="M81.0908 45.0729C81.0908 45.0729 67.9719 45.3121 66.7021 45.0729" stroke="black" stroke-width="0.980065" stroke-linecap="round" stroke-linejoin="round"/>
<path d="M80.1411 31.5141C80.1411 31.5141 99.413 31.7526 105.111 31.5141C110.81 31.2757 113.69 31.2672 113.69 31.2672" stroke="black" stroke-width="0.980065" stroke-linecap="round" stroke-linejoin="round"/>
<path d="M88.1841 28.0091C88.1841 28.0091 110.817 28.1639 113.69 28.1802C116.563 28.1965 119.777 28.2576 119.777 28.2576" stroke="black" stroke-width="0.980065" stroke-linecap="round" stroke-linejoin="round"/>
<path d="M13.0669 94.4445H25.3349" stroke="black" stroke-width="0.980065" stroke-linecap="round" stroke-linejoin="round"/>
<path d="M74.0381 94.4445H93.7118" stroke="black" stroke-width="0.980065" stroke-linecap="round" stroke-linejoin="round"/>
<path d="M4.68848 113.404H13.0667" stroke="black" stroke-width="0.980065" stroke-linecap="round" stroke-linejoin="round"/>
<path d="M17.0308 113.404H22.9398" stroke="black" stroke-width="0.980065" stroke-linecap="round" stroke-linejoin="round"/>
<path d="M8.87744 108.481H19.2005" stroke="black" stroke-width="0.980065" stroke-linecap="round" stroke-linejoin="round"/>
<path d="M136.753 113.404H141.922" stroke="black" stroke-width="0.980065" stroke-linecap="round" stroke-linejoin="round"/>
<path d="M145.887 113.404H151.796" stroke="black" stroke-width="0.980065" stroke-linecap="round" stroke-linejoin="round"/>
<path d="M135.019 108.481H148.057" stroke="black" stroke-width="0.980065" stroke-linecap="round" stroke-linejoin="round"/>
<path d="M75.6318 108.129C75.6318 108.129 79.0246 104.103 83.9272 104.103C88.3087 104.103 92.2225 106.955 92.2225 106.955" stroke="black" stroke-width="0.980065" stroke-linecap="round" stroke-linejoin="round"/>
<path d="M75.3862 104.674C77.7885 102.659 80.7949 101.503 83.9285 101.391C89.9538 101.391 93.211 104.488 93.211 104.488" stroke="black" stroke-width="0.980065" stroke-linecap="round" stroke-linejoin="round"/>
<path d="M149.971 98.1973C149.282 98.1199 145.145 98.2747 142.938 98.1973C140.732 98.1199 135.35 98.1973 135.35 98.1973L133.558 89.3708C133.558 89.3708 137.148 89.1138 139.202 89.0611C142.343 89.0111 145.484 89.1403 148.61 89.4483L146.498 98.0425" stroke="black" stroke-width="0.980065" stroke-linecap="round" stroke-linejoin="round"/>
<path d="M141.272 88.9427C141.272 88.9427 144.055 77.4063 143.662 69.6367C143.471 65.8669 143.086 60.7576 144.409 60.7568C146.618 60.7568 146.702 66.4484 146.613 71.0985C146.472 78.5383 142.957 89.0518 142.957 89.0518" stroke="black" stroke-width="0.980065" stroke-linecap="round" stroke-linejoin="round"/>
<path d="M143.945 89.048C143.945 89.048 147.452 81.5563 148.036 77.1416C148.842 71.0451 151.797 71.4462 150.151 78.4051C148.501 85.385 145.64 89.048 145.64 89.048" stroke="black" stroke-width="0.980065" stroke-linecap="round" stroke-linejoin="round"/>
<path d="M138.957 89.0581C138.957 89.0581 137.873 80.3501 137.449 75.1905C137.026 70.0309 137.669 67.6586 137.494 63.0099C137.334 58.757 139.828 58.6331 140.127 65.2591C140.426 71.8852 140.55 72.4427 140.679 75.7015C140.808 78.9603 140.421 89.0581 140.421 89.0581" stroke="black" stroke-width="0.980065" stroke-linecap="round" stroke-linejoin="round"/>
<path d="M135.667 89.2021C134.936 86.2778 133.789 81.6005 133.101 78.344C132.03 73.2796 132.366 70.8446 131.605 66.2548C130.908 62.0561 133.367 61.6186 134.497 68.1541C135.627 74.6895 135.825 75.2261 136.365 78.4423C136.728 80.6102 137.253 85.8899 137.557 89.1015" stroke="black" stroke-width="0.980065" stroke-linecap="round" stroke-linejoin="round"/>
<path d="M101.57 99.2302C101.275 100.425 101.135 101.653 101.154 102.884C101.154 102.884 96.3534 109.62 95.9965 117.637C95.6396 125.655 96.4123 126.677 96.4123 126.677" stroke="black" stroke-width="0.980065" stroke-linecap="round" stroke-linejoin="round"/>
<path d="M102.898 103.317C102.898 103.317 100.438 107.491 99.231 108.987" stroke="black" stroke-width="0.980065" stroke-linecap="round" stroke-linejoin="round"/>
<path d="M110.337 99.6529C110.353 100.79 110.233 101.924 109.98 103.033C109.558 105.813 109.398 108.627 109.501 111.438" stroke="black" stroke-width="0.980065" stroke-linecap="round" stroke-linejoin="round"/>
<path d="M106.536 119.386C106.536 119.386 112.855 122.968 113.706 123.461L114.695 126.677" stroke="black" stroke-width="0.980065" stroke-linecap="round" stroke-linejoin="round"/>
<path d="M109.265 122.565C110.725 122.959 112.208 123.258 113.706 123.461" stroke="black" stroke-width="0.980065" stroke-linecap="round" stroke-linejoin="round"/>
<path d="M127.443 99.1519C127.525 100.079 127.525 101.012 127.443 101.939C127.443 101.939 132.505 106.722 135.019 112.557C137.532 118.391 140.108 125.942 140.108 125.942" stroke="black" stroke-width="0.980065" stroke-linecap="round" stroke-linejoin="round"/>
<path d="M121.227 104.113C121.227 104.113 126.349 108.888 129.017 110.61" stroke="black" stroke-width="0.980065" stroke-linecap="round" stroke-linejoin="round"/>
<path d="M112.345 102.847C112.345 103.332 112.417 103.796 112.545 104.139C112.672 104.481 112.845 104.674 113.026 104.674C113.206 104.674 113.379 104.481 113.507 104.139C113.635 103.796 113.706 103.332 113.706 102.847C113.706 102.363 113.635 101.898 113.507 101.556C113.379 101.213 113.206 101.021 113.026 101.021C112.845 101.021 112.672 101.213 112.545 101.556C112.417 101.898 112.345 102.363 112.345 102.847Z" stroke="black" stroke-width="0.980065" stroke-linecap="round" stroke-linejoin="round"/>
<path d="M96.104 87.8904C96.104 87.8904 94.9735 99.0056 94.804 101.391C94.6344 103.777 92.2242 103.996 91.4925 112.375C91.0873 117.101 91.3634 121.861 92.3125 126.509" stroke="black" stroke-width="0.980065" stroke-linecap="round" stroke-linejoin="round"/>
<path d="M18.8069 97.2968L8.10059 102.114" stroke="black" stroke-width="0.980065" stroke-linecap="round" stroke-linejoin="round"/>
<path d="M19.3691 98.5465L8.66357 103.364" stroke="black" stroke-width="0.980065" stroke-linecap="round" stroke-linejoin="round"/>
<path d="M20.083 96.7224L20.2231 96.6596C20.3889 96.5851 20.5774 96.5795 20.7473 96.6439C20.9171 96.7084 21.0545 96.8377 21.129 97.0034C21.2035 97.1691 21.2092 97.3576 21.1447 97.5275C21.0802 97.6974 20.9509 97.8347 20.7853 97.9093L20.4709 98.051" stroke="black" stroke-width="0.980065" stroke-linecap="round" stroke-linejoin="round"/>
<path d="M7.09621 102.566L5.67236 103.959L7.65832 103.816" stroke="black" stroke-width="0.980065" stroke-linecap="round" stroke-linejoin="round"/>
<path d="M15.9914 100.678C14.8304 102.314 13.5677 103.875 12.2107 105.353C11.1407 106.287 22.1049 105.818 22.1049 105.818L26.8929 98.5806L21.583 98.4257" stroke="black" stroke-width="0.980065" stroke-linecap="round" stroke-linejoin="round"/>
<path d="M14.4658 103.959L15.8595 103.488C15.9726 103.45 16.0934 103.439 16.2113 103.458C16.3293 103.477 16.441 103.523 16.5369 103.595C16.676 103.697 16.8467 103.748 17.0194 103.738C17.1921 103.729 17.3559 103.659 17.4823 103.54L17.5721 103.457C17.6934 103.344 17.8492 103.275 18.0144 103.261C18.1796 103.247 18.3448 103.288 18.4834 103.379L18.8705 103.633C19.0118 103.726 19.1806 103.768 19.3487 103.751C19.5169 103.735 19.6744 103.661 19.795 103.543L19.8291 103.509C19.9561 103.385 20.1236 103.31 20.3012 103.299C20.4788 103.288 20.6544 103.341 20.7961 103.448L21.5084 103.99" stroke="black" stroke-width="0.980065" stroke-linecap="round" stroke-linejoin="round"/>
<path d="M17.0581 101.696L18.2094 101.154C18.3094 101.107 18.4223 101.095 18.5299 101.12C18.6375 101.145 18.7335 101.206 18.8025 101.292C18.8438 101.344 18.8952 101.387 18.9536 101.418C19.012 101.45 19.0761 101.469 19.1422 101.475C19.2083 101.481 19.2749 101.474 19.338 101.453C19.4011 101.433 19.4594 101.4 19.5094 101.356L20.1288 100.814C20.1818 100.768 20.2441 100.734 20.3114 100.714C20.3788 100.694 20.4496 100.689 20.5192 100.698C20.5888 100.708 20.6555 100.732 20.7149 100.77C20.7743 100.807 20.825 100.857 20.8636 100.916L21.3846 101.712C21.4546 101.818 21.5631 101.893 21.6875 101.922C21.8118 101.95 21.9422 101.929 22.0513 101.863L23.0167 101.277" stroke="black" stroke-width="0.980065" stroke-linecap="round" stroke-linejoin="round"/>
<path d="M114.675 83.3217C115.264 83.9924 115.805 84.7031 116.295 85.4485" stroke="black" stroke-width="0.980065" stroke-linecap="round" stroke-linejoin="round"/>
<path d="M108.097 66.6002C108.097 66.6002 111.851 66.1689 112.575 65.9088" stroke="black" stroke-width="0.980065" stroke-linecap="round" stroke-linejoin="round"/>
<path d="M112.114 63.4482L112.907 66.7225" stroke="black" stroke-width="0.980065" stroke-linecap="round" stroke-linejoin="round"/>
<path d="M126.182 48.8658C126.184 49.5271 126.079 50.1843 125.872 50.8123C125.542 51.7259 123.154 53.5563 122.333 53.6368C121.922 53.6763 121.563 54.4683 121.163 55.2627C120.842 56.0107 120.244 56.6059 119.495 56.9243C116.828 57.4817 117.416 58.5502 118.653 58.3481C119.89 58.146 121.426 57.2642 122.447 54.809C122.447 54.809 124.645 53.7312 125.112 55.2046C125.579 56.678 124.41 60.4223 120.685 59.9624L121.44 66.1812L123.983 67.1343" stroke="black" stroke-width="0.980065" stroke-linecap="round" stroke-linejoin="round"/>
<path d="M125.873 50.8124C126.026 51.4912 126.017 52.1967 125.845 52.8711C125.533 53.5663 124.988 54.1309 124.305 54.4676" stroke="black" stroke-width="0.980065" stroke-linecap="round" stroke-linejoin="round"/>
<path d="M125.846 52.8711C125.846 52.8711 126.492 53.6136 125.113 55.2078" stroke="black" stroke-width="0.980065" stroke-linecap="round" stroke-linejoin="round"/>
<path d="M120.848 55.4107C119.62 54.6774 119.827 52.6861 120.001 51.7941C120.175 50.9022 120.907 49.4017 119.046 48.9147C117.186 48.4277 117.575 46.05 116.675 45.3423C115.774 44.6346 114.453 45.8378 112.726 45.5877C110.999 45.3376 111.247 43.9006 110.145 44.5324C109.571 44.885 108.941 45.1352 108.282 45.2718C108.282 45.2718 111.392 38.7797 118.919 41.7645" stroke="black" stroke-width="0.980065" stroke-linecap="round" stroke-linejoin="round"/>
<path d="M111.48 43.3695C113.462 41.2534 116.269 41.1938 119.442 41.8705" stroke="black" stroke-width="0.980065" stroke-linecap="round" stroke-linejoin="round"/>
<path d="M113.927 44.0632C113.927 44.0632 118.63 41.2116 120.104 42.0137C120.423 42.2525 120.712 42.528 120.967 42.8344C120.967 42.8344 121.796 42.4132 122.165 42.9119" stroke="black" stroke-width="0.980065" stroke-linecap="round" stroke-linejoin="round"/>
<path d="M123.235 43.5235C123.235 43.5235 121.662 43.1232 121.671 44.3829C121.693 44.7003 121.82 45.0014 122.031 45.2394C122.242 45.4774 122.526 45.639 122.839 45.6992C122.698 45.7235 122.565 45.7797 122.45 45.8635C122.335 45.9473 122.241 46.0564 122.175 46.1824C122.109 46.3084 122.072 46.4479 122.069 46.5902C122.065 46.7325 122.094 46.8737 122.153 47.003C122.58 48.0374 124.362 47.3754 124.362 47.3754C124.362 47.3754 125.153 49.4202 127.892 48.8821C128.133 48.8663 128.367 48.8009 128.582 48.6901C128.796 48.5793 128.985 48.4254 129.137 48.2382C129.289 48.0509 129.4 47.8343 129.465 47.6019C129.529 47.3695 129.545 47.1264 129.511 46.8876C129.477 46.6489 129.394 46.4197 129.267 46.2145C129.14 46.0094 128.973 45.8325 128.775 45.6952C128.576 45.5578 128.352 45.4628 128.115 45.4162C127.879 45.3696 127.635 45.3724 127.4 45.4243" stroke="black" stroke-width="0.980065" stroke-linecap="round" stroke-linejoin="round"/>
<path d="M122.559 43.4701C122.467 43.1307 122.451 42.7751 122.513 42.4288C122.574 42.0825 122.711 41.7541 122.914 41.4669C123.117 41.1798 123.381 40.9411 123.687 40.7679C123.993 40.5948 124.334 40.4914 124.685 40.4652C126.606 40.1106 128.204 41.2937 127.711 43.1914" stroke="black" stroke-width="0.980065" stroke-linecap="round" stroke-linejoin="round"/>
<path d="M127.794 42.3428C127.794 42.3428 129.652 42.3815 129.778 44.0632C129.905 45.7448 129.117 45.9818 129.117 45.9818" stroke="black" stroke-width="0.980065" stroke-linecap="round" stroke-linejoin="round"/>
<path d="M116.671 45.3423C117.191 44.4506 118.023 43.7835 119.007 43.4702" stroke="black" stroke-width="0.980065" stroke-linecap="round" stroke-linejoin="round"/>
<path d="M119.989 54.1711C119.989 54.1711 120.849 52.3903 122.063 52.2974C123.278 52.2045 124.159 50.5778 124.843 49.7609" stroke="black" stroke-width="0.980065" stroke-linecap="round" stroke-linejoin="round"/>
<path d="M121.671 44.8692C121.671 44.8692 119.604 45.6543 119.007 46.5253" stroke="black" stroke-width="0.980065" stroke-linecap="round" stroke-linejoin="round"/>
<path d="M120.229 50.8123C121.067 50.3803 121.83 49.8149 122.487 49.1384C123.435 48.1078 123.766 48.1953 123.766 48.1953" stroke="black" stroke-width="0.980065" stroke-linecap="round" stroke-linejoin="round"/>
<path d="M122.226 55.5725C122.226 55.5725 123.636 55.3193 123.762 56.2523C123.753 56.7152 123.611 57.1659 123.353 57.5503C123.095 57.9348 122.731 58.2367 122.306 58.4202" stroke="black" stroke-width="0.980065" stroke-linecap="round" stroke-linejoin="round"/>
<path d="M108.276 45.2749C108.276 45.2749 106.041 47.9345 106.238 50.577C106.238 50.577 106.478 52.446 106.52 52.9717C106.562 53.4975 105.431 55.0622 105.78 56.7896C106.169 58.2553 106.71 59.676 107.397 61.0278C108.276 63.164 108.823 63.7532 111.135 63.5054C112.371 63.4061 113.583 63.1059 114.723 62.6166" stroke="black" stroke-width="0.980065" stroke-linecap="round" stroke-linejoin="round"/>
<path d="M108.509 44.8575C108.509 44.8575 107.362 45.2207 107.058 44.3047C106.973 44.033 106.957 43.7443 107.013 43.465C107.068 43.1857 107.192 42.9247 107.375 42.7059C107.375 42.7059 106.264 42.3025 106.974 40.7517C107.685 39.2009 109.329 40.1934 109.329 40.1934C109.329 40.1934 109.457 38.7673 110.645 38.5884C111.833 38.4096 112.581 39.883 112.581 39.883C112.581 39.883 113.755 38.3422 114.718 39.4184C115.68 40.4946 115.328 40.9801 115.328 40.9801C113.645 41.1054 112.003 41.5691 110.503 42.3435C109.613 42.9756 108.922 43.8475 108.509 44.8575Z" fill="black"/>
<path d="M120.677 58.6633C120.677 58.8388 120.747 59.0072 120.871 59.1314C120.995 59.2555 121.164 59.3253 121.339 59.3253C121.515 59.3253 121.683 59.2555 121.807 59.1314C121.931 59.0072 122.001 58.8388 122.001 58.6633C122.001 58.4877 121.931 58.3193 121.807 58.1952C121.683 58.071 121.515 58.0013 121.339 58.0013C121.164 58.0013 120.995 58.071 120.871 58.1952C120.747 58.3193 120.677 58.4877 120.677 58.6633Z" fill="black"/>
<path d="M121.771 59.9779C122.157 60.2123 122.569 60.3999 122.999 60.5369C123.241 60.6011 123.48 60.6786 123.714 60.7692C123.804 60.8041 123.88 60.8696 123.928 60.9545C123.975 61.0393 123.991 61.1381 123.974 61.2337C123.954 61.3422 123.892 61.4383 123.801 61.5012C123.711 61.564 123.599 61.5884 123.491 61.569C122.451 61.2409 121.495 60.6932 120.686 59.9632" stroke="black" stroke-width="0.980065" stroke-linecap="round" stroke-linejoin="round"/>
<path d="M121.748 60.7715C121.838 61.4875 122.198 62.142 122.754 62.6019C123.042 62.8233 123.271 62.9844 123.451 63.0997C123.59 63.1885 123.689 63.3266 123.73 63.4861C123.771 63.6456 123.75 63.8147 123.671 63.9591C123.626 64.0416 123.564 64.1134 123.489 64.1696C123.414 64.2258 123.328 64.2651 123.236 64.2849C123.145 64.3046 123.05 64.3042 122.958 64.2838C122.867 64.2634 122.781 64.2234 122.706 64.1666C122.551 64.0505 122.389 63.9181 122.229 63.7795C121.56 63.0816 121.084 62.2212 120.849 61.2833V60.2079L121.748 60.7715Z" fill="black"/>
<path d="M106.238 50.5739C106.238 50.5739 106.752 49.8143 107.346 49.939C107.874 50.1344 108.36 50.4311 108.775 50.8123" stroke="black" stroke-width="0.980065" stroke-linecap="round" stroke-linejoin="round"/>
<path d="M111.905 50.947C112.647 50.4359 113.506 50.1198 114.403 50.028C114.791 50.0904 115.161 50.232 115.492 50.4439C115.823 50.6558 116.106 50.9336 116.325 51.2599" stroke="black" stroke-width="0.980065" stroke-linecap="round" stroke-linejoin="round"/>
<path d="M106.97 52.0009C107.856 52.0233 108.698 52.3951 109.311 53.0353" stroke="black" stroke-width="0.980065" stroke-linecap="round" stroke-linejoin="round"/>
<path d="M107.965 52.8037C107.91 53.3085 107.62 53.6902 107.316 53.6554C107.013 53.6205 106.812 53.1908 106.868 52.6829C106.924 52.175 107.213 52.0434 107.516 52.0767C107.819 52.11 108.02 52.2997 107.965 52.8037Z" fill="black"/>
<path d="M112.89 52.2834C112.89 52.2834 114.899 52.5599 115.796 53.5997" stroke="black" stroke-width="0.980065" stroke-linecap="round" stroke-linejoin="round"/>
<path d="M113.886 53.0863C113.831 53.5904 113.541 53.9721 113.238 53.938C112.935 53.9039 112.734 53.4696 112.789 52.9655C112.844 52.4615 113.134 52.326 113.437 52.3593C113.74 52.3926 113.941 52.5815 113.886 53.0863Z" fill="black"/>
<path d="M110.19 51.4108C110.19 51.4108 110.565 52.2346 110.395 52.5861C110.225 52.9376 109.042 54.6549 108.775 55.2078C108.508 55.7606 109.608 56.6711 109.608 56.6711" stroke="black" stroke-width="0.980065" stroke-linecap="round" stroke-linejoin="round"/>
<path d="M110.464 56.0958C110.821 56.1553 111.162 56.2822 111.471 56.4698" stroke="black" stroke-width="0.980065" stroke-linecap="round" stroke-linejoin="round"/>
<path d="M108.036 58.0013C108.835 58.1935 109.647 58.3332 110.464 58.4194C111.546 58.3561 112.622 58.2224 113.686 58.0191C113.686 58.0191 112.108 59.8231 110.464 59.8548C108.821 59.8866 108.036 58.0013 108.036 58.0013Z" stroke="black" stroke-width="0.980065" stroke-linecap="round" stroke-linejoin="round"/>
<path d="M108.977 60.2535C109.089 60.4659 109.251 60.6481 109.448 60.7848C109.646 60.9216 109.873 61.0089 110.112 61.0394C110.672 61.0177 111.218 60.8581 111.701 60.5749" stroke="black" stroke-width="0.980065" stroke-linecap="round" stroke-linejoin="round"/>
<path d="M108.036 57.9904C108.609 57.7106 109.222 57.5217 109.854 57.4307C110.396 57.4616 113.215 58.0988 113.215 58.0988L110.227 58.311L108.036 57.9904Z" fill="black"/>
<path d="M112.85 65.3977L113.686 63.2073L112.114 63.4481L112.575 65.352" fill="black"/>
</svg>
