<svg width="154" height="154" viewBox="0 0 154 154" fill="none" xmlns="http://www.w3.org/2000/svg">
<path d="M75.1009 59.203C75.0557 59.4029 74.6576 60.4787 74.6139 60.5737C74.3895 61.0756 74.0565 61.5214 73.6388 61.8789C73.2212 62.2365 72.7293 62.4968 72.1988 62.6411C71.9331 62.7491 71.6577 62.8319 71.3765 62.8884C71.2871 62.8884 71.2014 62.9239 71.1382 62.9871C71.075 63.0503 71.0396 63.136 71.0396 63.2253C71.0396 63.3147 71.075 63.4004 71.1382 63.4636C71.2014 63.5267 71.2871 63.5622 71.3765 63.5622C71.7253 63.6252 72.0817 63.634 72.4332 63.5883C74.4922 63.282 76.1852 60.8922 75.7043 59.1992C75.704 59.1596 75.696 59.1204 75.6806 59.0839C75.6652 59.0474 75.6428 59.0143 75.6146 58.9864C75.5864 58.9586 75.553 58.9366 75.5163 58.9217C75.4796 58.9067 75.4403 58.8992 75.4007 58.8994C75.3611 58.8997 75.3219 58.9077 75.2854 58.9231C75.2489 58.9385 75.2157 58.9609 75.1879 58.9891C75.1601 59.0173 75.1381 59.0507 75.1231 59.0874C75.1082 59.1241 75.1006 59.1634 75.1009 59.203Z" fill="#38A1FF"/>
<path d="M39.5232 132.035C39.0638 130.776 36.2154 131.838 34.3493 132.035C34.5262 131.673 34.3026 131.738 33.1157 128.288C31.0365 121.498 28.5895 114.827 25.7856 108.303C24.0612 104.346 22.1066 100.493 19.9317 96.7643C19.8911 96.684 19.8202 96.6231 19.7347 96.5951C19.6492 96.567 19.556 96.574 19.4757 96.6146C19.3954 96.6553 19.3345 96.7261 19.3064 96.8116C19.2783 96.8971 19.2854 96.9903 19.326 97.0706L15.1965 98.9198C15.1674 98.8598 15.1195 98.8109 15.06 98.7806C15.0006 98.7502 14.9329 98.7402 14.8672 98.7519C14.8015 98.7636 14.7414 98.7964 14.6961 98.8454C14.6508 98.8944 14.6227 98.9568 14.6161 99.0232C14.4354 101.014 14.4254 103.271 15.8412 104.659C15.8412 107.372 10.7638 120.259 9.13128 123.516C8.11793 125.542 6.90326 127.46 5.50562 129.242C5.42132 129.356 5.38529 129.499 5.40531 129.64C5.44743 130.001 5.6534 129.937 7.36784 131.201C7.73691 131.478 8.12283 131.764 8.47506 132.061C8.53077 132.107 8.59585 132.141 8.66587 132.16C8.73588 132.179 8.80919 132.183 8.88078 132.171C8.95237 132.159 9.02056 132.132 9.0807 132.092C9.14085 132.051 9.19153 131.998 9.22929 131.936C10.927 129.179 12.4292 126.306 13.7248 123.338C15.2685 119.826 18.7984 110.35 19.4118 106.938C20.7028 109.707 22.1454 112.399 23.47 115.154C27.34 123.217 27.5161 126.904 30.1463 133.81C30.1712 133.877 30.2098 133.938 30.2598 133.989C30.3098 134.04 30.3699 134.08 30.4363 134.106C30.5027 134.132 30.574 134.145 30.6454 134.142C30.7168 134.139 30.7867 134.121 30.8508 134.089C31.8116 133.621 32.7496 133.108 33.6617 132.552C33.6885 132.587 33.7224 132.616 33.7611 132.638C33.7999 132.659 33.8427 132.672 33.8868 132.676C35.7712 133.03 37.7299 132.316 38.4995 132.475C38.394 132.671 38.2654 132.855 38.1166 133.021C37.9228 133.222 37.7029 133.397 37.4627 133.54C36.2422 134.281 33.2161 135.582 32.1617 134.612C32.1331 134.579 32.0982 134.552 32.059 134.532C32.0198 134.513 31.9771 134.501 31.9334 134.498C31.8897 134.495 31.8459 134.501 31.8045 134.515C31.763 134.53 31.7249 134.552 31.6923 134.581C31.6278 134.642 31.5885 134.724 31.5822 134.813C31.576 134.901 31.6033 134.988 31.6586 135.057C31.9963 135.413 32.4222 135.673 32.8931 135.811C33.3639 135.949 33.8629 135.96 34.3394 135.843C35.8155 135.562 37.2159 134.973 38.4489 134.114C38.9019 133.759 39.2641 133.302 39.5056 132.78C39.5585 132.663 39.5873 132.537 39.5903 132.409C39.5933 132.281 39.5705 132.154 39.5232 132.035Z" fill="#191919"/>
<path d="M11.3434 135.669C10.7775 134.585 8.84642 134.507 7.97427 133.167C7.9271 133.094 7.90788 133.005 7.9201 132.919C7.93232 132.832 7.97518 132.753 8.04088 132.695C8.11525 132.642 8.20713 132.62 8.29758 132.633C8.38804 132.645 8.47019 132.692 8.52711 132.764C9.04856 133.411 10.2247 133.578 11.1305 134.084C11.8518 134.489 12.6168 135.339 12.4055 136.12C12.1168 137.122 10.5118 137.098 9.48655 137.078C8.56795 137.034 7.67266 136.774 6.87407 136.318C6.07547 135.862 5.39631 135.223 4.89227 134.454C4.54296 133.909 4.38922 133.262 4.45628 132.618C4.52334 131.974 4.80721 131.372 5.26134 130.911C5.28608 130.879 5.31686 130.852 5.35193 130.832C5.387 130.812 5.42568 130.799 5.46574 130.794C5.50581 130.789 5.54649 130.792 5.58545 130.802C5.62441 130.813 5.6609 130.831 5.69282 130.856C5.72475 130.881 5.75149 130.911 5.77152 130.946C5.79155 130.981 5.80447 131.02 5.80956 131.06C5.81464 131.1 5.81178 131.141 5.80115 131.18C5.79051 131.219 5.77231 131.255 5.74757 131.287C4.26668 133.541 7.15495 135.999 9.50493 136.035C10.1076 136.085 10.7143 136.033 11.2998 135.882C11.456 135.816 11.4491 135.876 11.3434 135.669ZM11.41 135.838C11.3932 135.838 11.41 135.813 11.41 135.813C11.4269 135.822 11.4269 135.827 11.41 135.838Z" fill="#191919"/>
<path d="M136.275 80.8222C136.004 77.899 134.858 75.1254 132.987 72.8626C132.512 72.3734 131.99 71.9322 131.428 71.5455C130.892 75.5663 129.912 79.5143 129.398 83.5343C129.279 84.4654 130.153 85.2273 130.32 86.1508C131.786 85.6391 133.282 85.2187 134.799 84.8919C134.755 84.1423 134.859 83.3913 135.107 82.6823C135.354 81.9734 135.74 81.3206 136.242 80.7617L136.275 80.8222Z" fill="#38A1FF"/>
<path d="M115.107 82.0512C115.896 78.061 116.684 74.0609 117.404 70.0609C113.138 71.8644 109.534 74.9441 107.088 78.8773C106.554 79.8148 106.078 80.7842 105.663 81.7801C106.713 82.2888 107.727 82.8685 108.699 83.5152C109.758 84.1347 110.895 84.6309 111.97 85.2641C112.539 84.7335 113.016 84.0987 113.563 83.5259C114.023 83.0458 114.569 82.6316 115.023 82.1477L115.107 82.0512Z" fill="#38A1FF"/>
<path d="M100.88 42.4683C101.394 43.9116 103.684 44.6352 105.19 44.2256C105.464 44.1393 105.728 44.0246 105.979 43.8833C106.064 43.8566 106.135 43.7971 106.176 43.7179C106.218 43.6387 106.226 43.5463 106.199 43.461C106.173 43.3757 106.113 43.3045 106.034 43.2631C105.955 43.2217 105.862 43.2134 105.777 43.2401C105.525 43.2692 105.274 43.2493 105.039 43.2646C104.504 43.3512 103.956 43.3263 103.431 43.1913C102.905 43.0564 102.414 42.8144 101.986 42.4805C101.986 42.4805 101.582 42.2401 101.349 42.0831C101.105 41.7562 100.621 42.1719 100.88 42.4683Z" fill="#38A1FF"/>
<path d="M101.285 39.9598C101.483 40.1312 101.703 40.2747 101.94 40.3863C102.506 40.5784 103.103 40.6661 103.701 40.6452C104.132 40.6788 104.565 40.6244 104.975 40.4854C105.384 40.3464 105.761 40.1257 106.083 39.8366C106.156 39.7902 106.208 39.7174 106.229 39.6334C106.249 39.5493 106.237 39.4606 106.193 39.3858C106.15 39.311 106.079 39.2559 105.996 39.2322C105.912 39.2085 105.823 39.2179 105.747 39.2585C105.546 39.3266 105.328 39.335 105.127 39.3863C104.973 39.4177 104.841 39.4591 104.69 39.4889C103.869 39.648 103.024 39.6358 102.208 39.4529C102.064 39.4323 101.651 39.4147 101.537 39.3986C101.5 39.3818 101.461 39.3724 101.421 39.371C101.381 39.3697 101.341 39.3763 101.303 39.3906C101.266 39.4048 101.232 39.4264 101.203 39.4541C101.173 39.4818 101.15 39.515 101.134 39.5517C101.102 39.6261 101.1 39.71 101.128 39.7859C101.156 39.8619 101.212 39.9242 101.285 39.9598Z" fill="#38A1FF"/>
<path d="M72.1655 55.8866C72.1824 55.9915 72.1824 56.0758 72.1992 56.1807C72.2161 56.2856 72.2322 56.3683 72.249 56.4632C72.4277 56.8641 72.6471 57.2457 72.9037 57.6018C73.2098 58.1644 73.685 58.6166 74.2621 58.8943C74.3277 58.9545 74.4144 58.9861 74.5033 58.9822C74.5922 58.9783 74.6759 58.9393 74.736 58.8737C74.7962 58.8081 74.8277 58.7213 74.8239 58.6324C74.82 58.5435 74.781 58.4598 74.7154 58.3997C74.6143 58.2366 74.5622 58.072 74.4466 57.9096C74.2414 57.621 73.9941 57.3545 73.7927 57.0612C73.563 56.7251 73.2827 56.2534 73.0545 55.9372C72.9542 55.8192 72.8363 55.7442 72.736 55.6309C72.7192 55.5934 72.6952 55.5596 72.6653 55.5315C72.6355 55.5033 72.6004 55.4813 72.562 55.4666C72.5237 55.452 72.4828 55.4451 72.4418 55.4463C72.4007 55.4475 72.3603 55.4567 72.3229 55.4735C72.2854 55.4903 72.2517 55.5143 72.2235 55.5442C72.1953 55.574 72.1733 55.6091 72.1587 55.6475C72.144 55.6858 72.1371 55.7267 72.1383 55.7677C72.1395 55.8088 72.1487 55.8492 72.1655 55.8866Z" fill="#38A1FF"/>
<path d="M74.3295 54.1164C74.3976 54.5758 74.2697 54.7144 75.1342 55.9763C75.4631 56.5769 75.9446 57.0801 76.5301 57.435C76.559 57.4679 76.5943 57.4947 76.6337 57.5137C76.6731 57.5328 76.7159 57.5438 76.7597 57.5461C76.8034 57.5484 76.8471 57.5419 76.8883 57.527C76.9295 57.5122 76.9673 57.4892 76.9995 57.4595C77.0646 57.3992 77.1042 57.3165 77.1105 57.228C77.1167 57.1396 77.0891 57.0521 77.0332 56.9832C76.9321 56.7926 76.8655 56.605 76.7476 56.4235C76.5301 56.082 76.2614 55.7811 76.0431 55.4526C75.7032 54.9419 75.4428 54.4572 75.2215 54.2022C75.1204 54.0743 75.0033 53.9847 74.903 53.8607C74.8691 53.7846 74.8063 53.7251 74.7286 53.6953C74.6508 53.6656 74.5644 53.6679 74.4884 53.7018C74.4123 53.7357 74.3528 53.7984 74.323 53.8762C74.2932 53.954 74.2955 54.0404 74.3295 54.1164Z" fill="#38A1FF"/>
<path d="M76.5098 52.1469C76.4604 52.4086 76.4661 52.6778 76.5266 52.9371C76.8753 54.0138 77.4663 54.9961 78.2541 55.8086C78.3881 55.941 78.5389 56.0475 78.6898 56.1738C78.7475 56.2447 78.8303 56.2906 78.921 56.302C79.0117 56.3134 79.1033 56.2895 79.1768 56.2351C79.2443 56.1778 79.2871 56.0968 79.2964 56.0088C79.3057 55.9208 79.2806 55.8326 79.2266 55.7626C79.1431 55.5796 79.0734 55.4089 78.9922 55.2335C78.9586 55.1615 78.908 55.0926 78.8743 55.026C78.1916 54.0866 77.6018 53.0832 77.1132 52.0298C77.1055 51.9901 77.0901 51.9524 77.0678 51.9188C77.0455 51.8851 77.0169 51.8562 76.9834 51.8336C76.9499 51.811 76.9124 51.7952 76.8728 51.7872C76.8333 51.7791 76.7925 51.7789 76.7529 51.7866C76.7133 51.7943 76.6756 51.8098 76.6419 51.832C76.6083 51.8543 76.5793 51.883 76.5567 51.9164C76.5342 51.9499 76.5184 51.9875 76.5103 52.027C76.5023 52.0665 76.5021 52.1073 76.5098 52.1469Z" fill="#38A1FF"/>
<path d="M79.0926 50.006C79.0492 50.2578 79.0492 50.5153 79.0926 50.7671C79.2315 51.3317 79.4461 51.8749 79.7304 52.382C80.0524 53.1494 80.5953 53.8038 81.2902 54.2618C81.319 54.2947 81.3541 54.3216 81.3934 54.3408C81.4327 54.3601 81.4754 54.3713 81.5191 54.3739C81.5628 54.3764 81.6065 54.3703 81.6478 54.3558C81.6891 54.3413 81.7271 54.3187 81.7596 54.2894C81.8247 54.2294 81.8645 54.1467 81.8707 54.0583C81.877 53.97 81.8493 53.8825 81.7933 53.8139C81.6761 53.6094 81.5942 53.3996 81.4747 53.2013C80.8754 52.3657 80.3903 51.4538 80.0321 50.4899C79.9977 50.4179 79.7335 49.9685 79.6967 49.8904C79.6891 49.8507 79.6738 49.8129 79.6516 49.7792C79.6294 49.7454 79.6008 49.7164 79.5674 49.6937C79.534 49.671 79.4964 49.6551 79.4568 49.647C79.4173 49.6388 79.3765 49.6385 79.3368 49.6461C79.2972 49.6537 79.2594 49.669 79.2256 49.6912C79.1919 49.7134 79.1629 49.742 79.1402 49.7755C79.1175 49.8089 79.1016 49.8464 79.0935 49.886C79.0853 49.9255 79.085 49.9663 79.0926 50.006Z" fill="#38A1FF"/>
<path d="M84.4267 52.1952C84.8348 52.1316 90.8396 51.6538 92.5624 51.6339C92.9713 51.6293 95.5219 51.6798 96.0679 51.7289C96.1575 51.7445 96.2496 51.7246 96.3248 51.6734C96.4 51.6222 96.4523 51.5438 96.4706 51.4547C96.4808 51.3659 96.4571 51.2764 96.4043 51.2042C96.3516 51.132 96.2735 51.0823 96.1858 51.065C95.243 50.7862 94.2667 50.6363 93.2837 50.6193C91.8266 50.5855 90.3688 50.6446 88.9191 50.7962C87.047 50.9677 85.9926 50.9042 84.2728 51.6002C84.1939 51.6206 84.1263 51.6715 84.085 51.7418C84.0436 51.812 84.0319 51.8957 84.0523 51.9746C84.0727 52.0535 84.1236 52.1211 84.1938 52.1625C84.264 52.2038 84.3478 52.2156 84.4267 52.1952Z" fill="#38A1FF"/>
<path d="M84.427 55.0053C84.9358 54.9085 85.4527 54.8603 85.9707 54.8614C87.2081 54.8078 88.169 54.585 90.516 54.4686C92.0688 54.392 93.4257 54.4257 94.2572 54.3989C94.7435 54.3821 95.2297 54.3499 95.7159 54.3361C95.8034 54.3397 95.8888 54.3091 95.9542 54.2509C96.0196 54.1926 96.0597 54.1113 96.0663 54.024C96.0729 53.9367 96.0453 53.8503 95.9893 53.7829C95.9334 53.7156 95.8535 53.6726 95.7665 53.6631C95.1792 53.575 94.5926 53.477 94.0053 53.4333C91.646 53.32 89.2812 53.432 86.9431 53.768C85.9993 53.8237 85.0732 54.0494 84.2095 54.4341C84.1718 54.4484 84.1373 54.47 84.1079 54.4976C84.0786 54.5252 84.0549 54.5584 84.0383 54.5951C84.0218 54.6319 84.0126 54.6715 84.0114 54.7118C84.0101 54.7521 84.0168 54.7923 84.0311 54.83C84.0454 54.8677 84.067 54.9022 84.0946 54.9316C84.1222 54.961 84.1554 54.9846 84.1921 55.0012C84.2289 55.0178 84.2685 55.0269 84.3088 55.0282C84.3491 55.0294 84.3893 55.0227 84.427 55.0084V55.0053Z" fill="#38A1FF"/>
<path d="M98.0978 44.2571C97.8276 44.5745 97.6071 44.931 97.4438 45.3145C97.1368 46.2363 97.0449 47.2162 97.1751 48.1791C97.2246 48.8817 97.4405 49.5625 97.8051 50.1652C98.1696 50.7679 98.6723 51.2753 99.2716 51.6454C99.3416 51.7011 99.4308 51.7267 99.5196 51.7165C99.6084 51.7064 99.6895 51.6614 99.7452 51.5915C99.8008 51.5215 99.8264 51.4323 99.8163 51.3435C99.8062 51.2547 99.7612 51.1735 99.6912 51.1179C99.3138 50.6652 98.9877 50.1721 98.7187 49.6477C98.2125 48.6191 98.0422 47.4574 98.2318 46.3268C98.3299 45.7298 98.4644 45.1394 98.6345 44.5588C98.6543 44.5235 98.667 44.4847 98.6718 44.4446C98.6766 44.4044 98.6735 44.3637 98.6626 44.3248C98.6517 44.2859 98.6332 44.2495 98.6082 44.2177C98.5832 44.1859 98.5522 44.1593 98.517 44.1395C98.4817 44.1197 98.4429 44.107 98.4028 44.1022C98.3627 44.0974 98.322 44.1006 98.283 44.1115C98.2441 44.1224 98.2077 44.1409 98.1759 44.1658C98.1441 44.1908 98.1176 44.2218 98.0978 44.2571Z" fill="#38A1FF"/>
<path d="M99.808 43.6598C99.5089 44.3152 99.4728 45.0604 99.707 45.7417C100.059 47.1672 100.918 48.4158 102.123 49.2548C102.455 49.4382 102.819 49.5589 103.195 49.6109C103.238 49.6257 103.283 49.6315 103.329 49.6281C103.374 49.6247 103.418 49.6121 103.459 49.591C103.499 49.57 103.535 49.541 103.563 49.5057C103.592 49.4705 103.613 49.4298 103.626 49.386C103.639 49.3423 103.642 49.2965 103.636 49.2514C103.631 49.2062 103.616 49.1627 103.593 49.1235C103.57 49.0843 103.539 49.0502 103.502 49.0233C103.465 48.9964 103.424 48.9772 103.379 48.9669C103.119 48.8247 102.877 48.652 102.658 48.4524C101.709 47.692 101.022 46.6528 100.695 45.4814C100.536 44.9439 100.44 44.3895 100.41 43.8298C100.427 43.7516 100.414 43.6698 100.373 43.601C100.332 43.5322 100.266 43.4818 100.189 43.46C100.112 43.4383 100.03 43.4468 99.959 43.484C99.888 43.5211 99.834 43.584 99.808 43.6598Z" fill="#38A1FF"/>
<path d="M91.137 61.3233C91.4804 61.4525 91.8338 61.5534 92.1937 61.625C93.533 61.8243 94.8932 61.84 96.2367 61.6717C96.5714 61.5962 96.8974 61.4858 97.2091 61.3424C97.2937 61.3173 97.366 61.262 97.4124 61.187C97.4589 61.1121 97.4762 61.0227 97.4611 60.9358C97.4368 60.8482 97.3795 60.7734 97.3013 60.727C97.2231 60.6806 97.13 60.6663 97.0415 60.687C96.7107 60.7107 96.775 60.6671 95.6632 60.7245C94.5777 60.7634 93.4908 60.735 92.4089 60.6395C92.005 60.6186 91.6001 60.6422 91.2013 60.7099C91.12 60.7014 91.0386 60.7255 90.9751 60.777C90.9115 60.8285 90.8711 60.9031 90.8625 60.9844C90.854 61.0658 90.8781 61.1472 90.9296 61.2107C90.9811 61.2743 91.0557 61.3147 91.137 61.3233Z" fill="#38A1FF"/>
<path d="M89.9962 59.5169C90.3875 59.616 90.7858 59.6846 91.1877 59.7221C92.6876 59.8387 94.1961 59.669 95.6326 59.2221C95.9775 59.0656 96.299 58.8623 96.5883 58.618C96.6662 58.5741 96.7239 58.5015 96.749 58.4156C96.7742 58.3298 96.7649 58.2376 96.723 58.1585C96.676 58.0809 96.6006 58.0247 96.5128 58.0018C96.425 57.9789 96.3318 57.9912 96.2529 58.036C95.9872 58.1394 95.5101 58.2382 95.3141 58.2918C92.6647 58.9809 92.4894 58.4304 90.0131 58.9043C89.9728 58.9032 89.9328 58.9101 89.8952 58.9244C89.8576 58.9388 89.8232 58.9604 89.794 58.9881C89.7648 59.0157 89.7413 59.0489 89.7249 59.0856C89.7085 59.1224 89.6995 59.162 89.6984 59.2022C89.6973 59.2424 89.7041 59.2825 89.7184 59.32C89.7328 59.3576 89.7544 59.392 89.7821 59.4212C89.8098 59.4505 89.8429 59.474 89.8797 59.4904C89.9164 59.5068 89.956 59.5158 89.9962 59.5169Z" fill="#38A1FF"/>
<path d="M81.6606 62.0025C81.9654 62.1119 82.28 62.1919 82.6001 62.2414C83.6017 62.3591 84.5937 62.5474 85.5688 62.8049C85.8375 62.8539 86.0887 62.857 86.3406 62.8953C86.4241 62.9236 86.5154 62.9181 86.5949 62.8801C86.6745 62.8422 86.7361 62.7746 86.7666 62.6919C86.7972 62.6092 86.7942 62.5178 86.7584 62.4373C86.7226 62.3567 86.6568 62.2933 86.5749 62.2605C86.3581 62.1225 86.1342 61.996 85.9042 61.8815C84.672 61.4235 83.3592 61.2226 82.0465 61.2911C81.9117 61.3179 81.7946 61.3501 81.6636 61.3853C81.5818 61.3849 81.5031 61.417 81.445 61.4746C81.3868 61.5322 81.3539 61.6105 81.3535 61.6924C81.3531 61.7742 81.3852 61.8528 81.4428 61.911C81.5004 61.9692 81.5787 62.0021 81.6606 62.0025Z" fill="#38A1FF"/>
<path d="M89.2745 64.3279C89.446 64.3838 90.165 64.6503 90.2983 64.6947C93.6406 65.7491 93.4377 66.171 95.7349 66.8219C95.8161 66.8597 95.909 66.8638 95.9933 66.8331C96.0775 66.8025 96.1461 66.7396 96.1839 66.6584C96.2218 66.5772 96.2259 66.4842 96.1952 66.4C96.1646 66.3158 96.1017 66.2472 96.0205 66.2093C95.6767 65.9576 95.3187 65.7257 94.9485 65.5148C93.5599 64.7366 92.0771 64.1401 90.5364 63.7399C90.1422 63.6814 89.7422 63.6721 89.3457 63.7123C89.3055 63.7079 89.2648 63.7114 89.226 63.7227C89.1871 63.734 89.1509 63.7529 89.1193 63.7782C89.0877 63.8035 89.0614 63.8348 89.042 63.8702C89.0225 63.9057 89.0102 63.9447 89.0058 63.9849C89.0013 64.0251 89.0049 64.0658 89.0162 64.1047C89.0275 64.1435 89.0463 64.1798 89.0716 64.2113C89.097 64.2429 89.1282 64.2692 89.1637 64.2887C89.1992 64.3081 89.2381 64.3204 89.2784 64.3249L89.2745 64.3279Z" fill="#38A1FF"/>
<path d="M78.0866 63.7544C81.1979 64.1415 84.2146 65.0834 86.9934 66.5355C88.23 67.1664 91.4085 69.1534 91.9583 69.5325C92.0282 69.5872 92.1169 69.6119 92.2051 69.6013C92.2932 69.5907 92.3735 69.5455 92.4284 69.4758C92.4819 69.4053 92.5065 69.3171 92.4971 69.2292C92.4877 69.1412 92.4451 69.0601 92.3779 69.0026C91.1597 67.8647 89.8014 66.8869 88.3357 66.0929C85.8771 64.6818 83.2017 63.688 80.4182 63.1518C79.6391 63.0477 78.85 63.043 78.0698 63.138C77.9882 63.1415 77.9113 63.1766 77.855 63.2357C77.7988 63.2948 77.7676 63.3734 77.7681 63.455C77.769 63.4957 77.7779 63.5358 77.7945 63.573C77.8111 63.6101 77.8349 63.6436 77.8645 63.6715C77.8942 63.6994 77.9291 63.7211 77.9672 63.7353C78.0054 63.7495 78.0459 63.756 78.0866 63.7544Z" fill="#38A1FF"/>
<path d="M76.5603 65.6962C77.2073 65.8789 77.8408 66.1063 78.4562 66.3769C82.2687 67.9275 81.5902 67.2583 88.6716 71.4475C88.744 71.4994 88.8341 71.5205 88.9221 71.5062C89.0101 71.4918 89.0888 71.4432 89.141 71.3709C89.1903 71.2969 89.2091 71.2067 89.1936 71.1191C89.178 71.0315 89.1293 70.9533 89.0575 70.9008C87.7392 69.7284 86.2716 68.7356 84.6929 67.9482C82.6967 66.8662 78.8811 65.1288 76.6246 65.0821C76.5431 65.0736 76.4617 65.0978 76.398 65.1493C76.3344 65.2009 76.2939 65.2756 76.2854 65.357C76.2768 65.4385 76.301 65.5199 76.3526 65.5836C76.4041 65.6472 76.4788 65.6877 76.5603 65.6962Z" fill="#38A1FF"/>
<path d="M85.9872 40.2178C85.6127 40.2753 85.2521 40.3273 84.8799 40.4223C84.7976 40.4413 84.712 40.4406 84.6301 40.4202C84.5481 40.3998 84.4721 40.3604 84.4083 40.3051C84.3445 40.2498 84.2946 40.1802 84.2628 40.1019C84.231 40.0237 84.2181 39.9391 84.2252 39.8549C84.3493 38.7507 85.004 37.5968 84.8968 36.6695L84.7796 34.9735C84.7726 34.8787 84.7925 34.7839 84.8369 34.7C84.8813 34.616 84.9485 34.5463 85.0308 34.4987C85.4029 34.2759 85.5844 34.5669 86.0201 34.7093C86.5982 34.8739 87.0431 34.6151 87.6472 34.6787C87.9255 34.7003 88.1909 34.8048 88.4093 34.9787C88.6276 35.1526 88.7889 35.3878 88.8724 35.6542C89.1718 36.6136 88.4091 37.508 90.2813 37.5149C90.3936 37.5146 90.5028 37.5522 90.591 37.6217C90.6793 37.6912 90.7415 37.7885 90.7675 37.8977C91.0774 39.2665 91.2905 40.6553 91.4054 42.054C92.4947 42.1882 93.5513 42.5166 94.5249 43.0234C94.5982 43.0587 94.6551 43.1209 94.6836 43.1971C94.7121 43.2733 94.7101 43.3576 94.678 43.4323C94.6446 43.5057 94.5835 43.563 94.5081 43.5917C94.4327 43.6204 94.349 43.6181 94.2752 43.5855C93.2329 43.1527 92.1166 42.9262 90.988 42.9185C90.8804 42.9161 90.7773 42.8753 90.6972 42.8033C90.6171 42.7314 90.5655 42.6332 90.5516 42.5265C90.4168 41.6436 90.0738 39.3687 89.8808 38.5141C89.4777 38.538 89.0776 38.4318 88.7393 38.2113C88.4011 37.9908 88.1425 37.6675 88.0018 37.289C87.841 36.7124 88.0821 35.9926 87.7506 35.769C87.4443 35.5393 86.7046 35.9406 85.8715 35.7399L85.9389 36.5616C85.9336 37.4846 85.7573 38.3988 85.419 39.2576C85.6709 39.2171 85.9221 39.1811 86.174 39.1397C86.2818 39.1228 86.3921 39.141 86.4887 39.1918C86.5853 39.2425 86.6629 39.3231 86.71 39.4215C87.0293 40.0831 87.8019 40.7998 88.5217 40.6375C88.5894 40.6209 88.6598 40.6185 88.7285 40.6304C88.7972 40.6423 88.8627 40.6683 88.9209 40.7067C88.9791 40.7451 89.0288 40.795 89.0668 40.8535C89.1049 40.9119 89.1304 40.9776 89.1419 41.0463L89.4436 42.8075C89.462 42.9077 89.4494 43.0111 89.4075 43.104C89.3657 43.1969 89.2965 43.2748 89.2093 43.3274C87.5197 44.3445 85.9103 45.4892 84.3952 46.7517C84.3289 46.8104 84.2421 46.8407 84.1537 46.8359C84.0652 46.8311 83.9822 46.7917 83.9226 46.7261C83.863 46.6606 83.8316 46.5742 83.8352 46.4857C83.8389 46.3972 83.8772 46.3137 83.9419 46.2532C85.3015 44.9072 86.7968 43.7056 88.4038 42.6674L88.2192 41.6765C87.7584 41.627 87.3159 41.4689 86.9279 41.2154C86.54 40.9618 86.2176 40.62 85.9872 40.2178Z" fill="#191919"/>
<path d="M88.8387 30.9413C89.0678 30.8132 89.3095 30.7093 89.56 30.6312C91.2852 30.138 92.5226 31.7031 93.2163 33.3525C93.3448 33.7835 93.5432 34.1904 93.8036 34.557C94.2217 35.0164 95.0479 35.1971 95.6659 35.6251C96.2389 36.0268 96.6306 36.6381 96.7562 37.3266C96.7704 37.9722 96.8215 38.6164 96.9094 39.2562C96.9362 39.3121 97.002 39.4522 97.0625 39.4752C97.0625 39.4752 97.0457 39.492 97.0625 39.4912C97.1014 39.4804 97.142 39.4776 97.182 39.483C97.2219 39.4884 97.2603 39.502 97.2949 39.5228C97.3294 39.5435 97.3594 39.5712 97.3829 39.6039C97.4064 39.6367 97.423 39.6739 97.4316 39.7133C97.5357 40.054 97.0258 40.3259 96.5426 39.8825C95.6084 39.0019 96.5579 37.2875 95.1337 36.4299C94.3896 36.1455 93.6937 35.7486 93.0701 35.253C92.7078 34.8096 92.4394 34.2972 92.2814 33.7468C91.8511 32.6978 90.9498 31.3188 89.8495 31.6304C89.6032 31.7069 89.3706 31.8219 89.1603 31.9712C88.6243 32.2966 88.4122 31.4918 87.1304 31.8678C85.9081 32.312 84.8887 33.1853 84.2621 34.325C83.7264 35.2899 83.3042 36.3136 83.004 37.3756C82.6977 38.3488 82.2191 39.4675 82.6518 40.3787C83.2299 41.5954 84.9252 43.0587 82.2995 44.2838C82.2191 44.3227 82.1266 44.3285 82.0419 44.2999C81.9573 44.2712 81.8873 44.2105 81.847 44.1307C81.8107 44.05 81.8063 43.9585 81.8347 43.8747C81.8631 43.7908 81.9222 43.7209 82.0001 43.6789C84.259 42.5303 81.5767 41.7126 81.4971 39.7141C81.5154 38.8079 81.6969 37.9125 82.0331 37.0708C82.6456 35.057 83.347 33.2759 84.952 31.9198C86.0446 30.9941 87.5309 30.3792 88.8387 30.9413Z" fill="#191919"/>
<path d="M93.2993 37.9016C93.529 38.361 93.4272 38.5907 93.4164 39.2224C93.3769 39.698 93.4458 40.1763 93.6178 40.6214C93.696 40.7971 93.8166 40.9506 93.9688 41.0681C94.1211 41.1856 94.3002 41.2634 94.49 41.2945C94.9762 41.3772 95.8897 41.1183 95.7151 40.662C95.5765 40.299 95.4172 40.5785 94.7595 40.3519C94.0818 40.1489 94.7779 38.4866 94.2396 37.5509C93.9938 37.1336 93.2334 36.5294 92.9478 36.8487C92.7671 37.0853 92.9555 37.1382 93.2993 37.9016Z" fill="#191919"/>
<path d="M91.7072 38.0693C91.6551 38.9759 91.683 39.8852 91.7907 40.7869C92.1482 41.8757 93.0388 42.1246 93.2669 41.7585C93.4561 41.3948 92.9844 41.3757 92.7807 40.4783C92.7041 40.0694 92.7562 39.1344 92.6796 38.6513C92.647 38.3301 92.5047 38.03 92.2769 37.8013C92.2413 37.7258 92.1773 37.6675 92.0987 37.6392C92.0202 37.6109 91.9336 37.615 91.858 37.6505C91.7825 37.686 91.7242 37.7501 91.6959 37.8287C91.6676 37.9072 91.6717 37.9938 91.7072 38.0693Z" fill="#191919"/>
<path d="M84.6956 44.5311C85.7928 44.1758 86.5907 42.6934 85.8196 41.6428C85.5501 41.2753 85.0823 41.5065 85.2155 41.9445C85.485 42.8305 85.0754 43.3703 84.4107 43.9913C84.0531 44.3244 84.3403 44.646 84.6956 44.5311Z" fill="#191919"/>
<path d="M99.977 32.0232C100.261 32.4724 100.486 32.9559 100.648 33.462C101.005 34.5753 100.963 36.142 101.52 36.1328C102.341 36.1129 101.921 32.7407 100.782 31.4834C100.557 31.2322 99.8859 30.6809 99.6248 30.9573C99.4403 31.1541 99.83 31.8011 99.977 32.0232Z" fill="#191919"/>
<path d="M101.62 31.4121C101.773 31.6357 102.163 32.4152 102.593 32.2659C103.037 32.0967 102.774 31.2705 102.476 30.7995C102.375 30.652 102.263 30.5122 102.141 30.3815C101.814 30.1196 101.333 29.9833 101.167 30.1617C100.907 30.4902 101.569 31.3325 101.62 31.4121Z" fill="#191919"/>
<path d="M102.979 31.0775C103.086 31.321 103.376 32.089 103.784 32.001C104.238 31.903 104.103 31.0967 103.919 30.6388C103.652 29.8914 103.083 29.6985 102.912 29.7896C102.488 30.017 102.915 30.9244 102.979 31.0775Z" fill="#191919"/>
<path d="M104.774 32.8854C104.9 34.2062 104.742 35.5906 105.277 35.6289C106.217 35.6963 105.783 31.6281 105.495 30.8738C105.446 30.6862 105.117 29.8401 104.774 29.9297C104.29 30.0568 104.638 31.468 104.774 32.8854Z" fill="#191919"/>
<path d="M66.009 64.3279C65.3331 64.9775 64.471 65.3995 63.5434 65.5347C63.392 65.5531 63.2384 65.5331 63.0967 65.4764C62.9551 65.4198 62.8301 65.3284 62.7332 65.2106C62.6362 65.0928 62.5705 64.9525 62.5422 64.8027C62.5138 64.6528 62.5237 64.4982 62.5709 64.3532C62.7684 63.8433 63.0832 63.3872 63.4898 63.0216C64.1735 62.2559 64.8573 61.8501 69.042 58.8561C69.1039 58.8026 69.1843 58.7756 69.266 58.7809C69.3476 58.7862 69.4239 58.8234 69.4784 58.8845C69.5303 58.9473 69.5558 59.0278 69.5495 59.1091C69.5432 59.1904 69.5057 59.266 69.4447 59.3201C68.4476 60.3479 67.3646 61.2886 66.2073 62.1319C65.509 62.61 64.8525 63.1464 64.2448 63.7353C63.8948 64.138 63.7853 64.1863 63.6575 64.4795C63.9773 64.4207 64.2806 64.2932 64.5464 64.1059C64.963 63.8432 65.352 63.5239 65.721 63.2368C65.7745 63.1954 65.8355 63.1651 65.9007 63.1473C65.9659 63.1296 66.0339 63.1249 66.1009 63.1335C66.1679 63.1421 66.2325 63.1639 66.2911 63.1975C66.3497 63.2311 66.4011 63.2759 66.4424 63.3294C66.8704 63.8984 68.0894 64.1403 68.2709 63.3049C68.5634 61.955 70.212 61.7804 71.055 61.2681C71.1283 61.2172 71.2188 61.1972 71.3067 61.2124C71.3947 61.2276 71.4731 61.2768 71.5252 61.3493C71.9984 62.0652 69.4041 62.5323 69.2433 63.4895C68.9868 65.0178 67.2027 65.2361 66.009 64.3279Z" fill="#191919"/>
<path d="M106.316 36.6397C106.302 36.536 106.255 36.4395 106.183 36.3639C106.111 36.2884 106.016 36.2378 105.913 36.2193C104.18 35.8351 102.367 36.0794 100.798 36.9084C100.709 36.9539 100.636 37.025 100.588 37.1125C100.54 37.2 100.519 37.2999 100.529 37.3992C100.673 39.2086 100.795 41.8825 99.2708 42.8641C98.3795 43.4185 97.1023 43.3619 96.0502 43.3412C95.975 43.3397 95.9004 43.3541 95.8311 43.3834C95.7618 43.4127 95.6995 43.4562 95.6482 43.5112C94.7437 44.5528 94.1197 45.8077 93.835 47.1575C92.1428 47.4171 90.3893 47.7349 88.6327 47.9332C88.8624 47.4071 89.0699 46.9094 89.1381 46.7279C89.302 46.2938 88.9336 46.0311 88.5845 46.3397C88.1234 46.7897 87.8309 47.3844 87.756 48.0243C86.9757 48.0932 86.1977 48.1307 85.429 48.1215C85.6587 47.9041 85.8562 47.6927 85.9841 47.545C86.2682 47.2172 86.0415 46.8198 85.589 47.0005C84.8233 47.3068 84.494 47.8313 83.7873 48.7617L82.9657 46.9691C82.9329 46.9006 82.8857 46.84 82.8273 46.7915C82.7688 46.743 82.7005 46.7078 82.6271 46.6883C82.5537 46.6688 82.477 46.6654 82.4022 46.6785C82.3274 46.6916 82.2563 46.7207 82.1938 46.7639C80.9725 47.6522 80.2681 48.4041 79.2075 49.2418C76.0709 51.7283 73.0905 54.4057 70.2831 57.2588C70.2125 57.3309 70.1639 57.4216 70.1431 57.5204C70.1224 57.6192 70.1303 57.7218 70.166 57.8162C70.6006 58.9482 71.3094 59.9546 72.2288 60.7451C72.3179 60.819 72.4292 60.8608 72.5449 60.8637C72.6607 60.8666 72.774 60.8305 72.8667 60.7612C75.8108 58.5598 79.6815 56.2121 82.9144 54.1079C83.2082 55.408 83.9808 56.5499 85.0783 57.3063C85.0783 57.4089 85.0622 58.0919 85.112 59.2206C80.5314 61.1454 76.4087 64.0156 73.0137 67.6434C72.947 67.714 72.9016 67.8021 72.8829 67.8974C72.8642 67.9928 72.873 68.0914 72.9081 68.182C72.9432 68.2726 73.0032 68.3513 73.0813 68.4091C73.1593 68.467 73.2522 68.5015 73.3491 68.5087C75.9792 68.695 78.4978 69.6451 80.5958 71.2423C81.703 71.9675 82.6739 72.8819 83.4641 73.9437C83.5299 74.0465 83.6319 74.1209 83.7499 74.1521C83.8678 74.1833 83.9932 74.169 84.1012 74.1122C87.1541 72.5042 91.1297 71.279 94.0149 69.0585C98.4423 65.6304 98.8772 60.6685 96.2294 55.686C96.6899 54.7121 97.0225 53.6825 97.2187 52.6232C98.8717 52.5633 100.492 52.1436 101.966 51.3934C107.316 48.5312 107.158 42.6704 106.316 36.6397ZM97.0739 60.9894C97.1705 62.4237 96.89 63.8583 96.2602 65.1506C95.6305 66.4428 94.6734 67.5478 93.4843 68.3555C90.7331 70.423 87.0094 71.5777 84.0407 73.0371C82.268 70.9986 80.0376 69.409 77.5322 68.3984C76.5598 68.0172 75.5467 67.7492 74.5129 67.5998C77.7244 64.3365 81.5727 61.7687 85.8187 60.056C85.9181 60.0173 86.0034 59.9494 86.0633 59.8612C86.1231 59.773 86.1548 59.6687 86.1541 59.5621C86.1441 59.0016 86.1327 59.0758 86.1143 57.559C86.2736 57.6011 86.5255 57.6608 86.7215 57.6999C86.2934 59.4009 86.0579 61.1446 86.0193 62.8983C86.0193 63.5162 86.053 64.1234 86.0867 64.736C86.0837 64.825 86.1161 64.9115 86.1768 64.9765C86.2376 65.0416 86.3217 65.0798 86.4106 65.0829C86.4996 65.0859 86.5861 65.0535 86.6511 64.9928C86.7162 64.932 86.7544 64.8479 86.7575 64.759C87.1518 61.7949 87.0339 61.5698 87.4282 59.2719C87.6633 59.8783 87.8647 60.4886 88.0829 61.0958C88.2361 61.5552 88.7039 62.7107 88.7721 62.9151C88.7821 62.9548 88.7999 62.9921 88.8244 63.0249C88.8488 63.0577 88.8795 63.0854 88.9147 63.1063C88.9499 63.1272 88.9888 63.1411 89.0293 63.1469C89.0698 63.1528 89.1111 63.1507 89.1507 63.1406C89.1904 63.1306 89.2277 63.1128 89.2605 63.0883C89.2933 63.0639 89.321 63.0332 89.3419 62.998C89.3628 62.9629 89.3766 62.9239 89.3825 62.8834C89.3884 62.8429 89.3863 62.8017 89.3762 62.762C89.1647 61.0633 88.7001 59.4058 87.9979 57.8446C90.1075 57.9448 92.2204 57.7385 94.2707 57.232C94.8451 57.0719 95.384 56.8043 95.8588 56.4433C96.5866 57.8521 97.0014 59.4015 97.0747 60.9855L97.0739 60.9894ZM105.512 45.3703C104.704 48.9562 102.169 51.0642 98.7348 51.7258C95.7891 52.2824 97.1161 51.2265 96.1183 54.271C95.5969 55.9502 95.6865 55.9119 94.0218 56.271C91.8537 56.7509 89.6304 56.934 87.4129 56.8155C86.7238 56.7994 85.6472 57.0651 84.4106 55.1309C83.553 53.8039 84.1931 53.0703 83.6219 52.748C83.5394 52.7016 83.4457 52.6789 83.3511 52.6824C83.2565 52.686 83.1647 52.7155 83.0859 52.7679C79.6011 55.065 76.016 57.1799 72.5856 59.6815C72.0394 59.1171 71.5965 58.4611 71.277 57.7435C73.982 55.009 76.8497 52.4405 79.8645 50.0519C80.6448 49.4301 81.507 48.5771 82.2964 47.9845L83.236 50.0266C83.2761 50.112 83.3386 50.1849 83.4167 50.2377C83.4949 50.2904 83.5859 50.321 83.6801 50.3263C83.7743 50.3315 83.8681 50.3112 83.9517 50.2675C84.0352 50.2238 84.1054 50.1583 84.1548 50.0779C84.3473 49.7465 84.5659 49.4311 84.8087 49.1346C87.9681 49.2739 91.2277 48.584 94.3197 48.1208C94.9162 48.035 94.6367 47.4401 95.3595 45.8236C95.5914 45.2984 95.8963 44.8086 96.2654 44.3688C96.9322 44.3975 97.6003 44.3665 98.2616 44.2761C101.41 43.7723 101.79 40.8197 101.55 37.6588C102.74 37.0953 104.074 36.9083 105.374 37.1228C105.73 39.7546 106.099 42.7332 105.512 45.3703Z" fill="#191919"/>
<path d="M65.5563 90.0207C67.2394 85.6518 69.2408 81.4121 71.5442 77.3359C72.819 74.7293 74.3586 72.2607 76.1384 69.969C76.1636 69.9368 76.195 69.9101 76.2307 69.8902C76.2664 69.8704 76.3057 69.8579 76.3463 69.8535C76.3869 69.8491 76.4279 69.8528 76.4671 69.8645C76.5062 69.8762 76.5426 69.8956 76.5741 69.9215C76.6061 69.9469 76.6326 69.9787 76.6518 70.0147C76.671 70.0508 76.6825 70.0905 76.6856 70.1312C76.6888 70.172 76.6835 70.213 76.6701 70.2516C76.6568 70.2902 76.6355 70.3256 76.6078 70.3557C74.9317 72.5441 73.6591 75.3152 72.3811 77.7831C70.0704 82.0046 68.0538 86.3806 66.3457 90.8799C66.3235 90.9473 66.2873 91.0094 66.2397 91.062C66.192 91.1147 66.1339 91.1568 66.069 91.1856C66.0041 91.2145 65.9339 91.2294 65.8628 91.2295C65.7918 91.2296 65.7215 91.2148 65.6566 91.1862C65.0247 90.9139 64.3745 90.6862 63.7109 90.5047C63.1955 90.3208 62.6609 90.1957 62.1174 90.1318C62.0508 90.1318 62.0003 90.1233 61.9643 90.1471C61.8969 90.1861 61.9306 90.2489 61.9475 90.3094C62.1198 90.6783 62.3652 91.0083 62.6688 91.2796C63.6182 92.1219 65.8082 93.7153 67.0632 93.9749C67.5065 94.0606 67.7853 94.0775 68.2883 93.2413C69.2439 91.6777 73.0725 81.679 81.9594 73.4093C82.0267 73.3486 82.1148 73.3162 82.2054 73.3189C82.296 73.3216 82.3821 73.3592 82.4456 73.4239C82.9464 74.0005 81.6232 73.9354 76.9945 80.3153C74.9213 83.169 73.06 86.1707 71.4255 89.2964C69.3473 93.3286 69.5878 93.1089 69.1781 93.7796C68.5173 94.8692 67.8718 95.0997 67.1819 95.0392C65.6198 94.906 63.1565 93.0675 61.9988 92.0721C61.0799 91.2842 60.3747 89.9602 61.3778 89.2849C62.0432 88.8377 63.2415 89.2933 63.995 89.5077C64.508 89.6425 65.1971 89.8783 65.5563 90.0207Z" fill="#191919"/>
<path d="M61.5986 91.0459C61.7188 91.1363 62.1736 91.51 62.4876 91.7067C66.1278 93.9878 65.7694 94.0115 67.369 94.7489C67.4425 94.7955 67.5313 94.8114 67.6165 94.7933C67.7016 94.7752 67.7762 94.7245 67.8244 94.6521C67.8727 94.5796 67.8906 94.4912 67.8745 94.4057C67.8583 94.3202 67.8094 94.2444 67.7381 94.1945C67.4584 93.8861 67.1508 93.6041 66.8192 93.3523C65.5994 92.42 64.3094 91.5834 62.9608 90.8499C62.6088 90.6981 62.2439 90.5781 61.8704 90.4915C61.834 90.4737 61.7944 90.4632 61.754 90.4606C61.7135 90.4581 61.673 90.4635 61.6346 90.4766C61.5962 90.4898 61.5608 90.5103 61.5304 90.5371C61.5 90.5639 61.4752 90.5964 61.4573 90.6328C61.4395 90.6692 61.429 90.7088 61.4264 90.7492C61.4238 90.7897 61.4293 90.8303 61.4424 90.8686C61.4555 90.907 61.4761 90.9424 61.5029 90.9728C61.5297 91.0032 61.5622 91.0281 61.5986 91.0459Z" fill="#191919"/>
<path d="M63.8958 91.9564C64.15 91.7007 64.1339 91.9051 64.366 90.5498C64.366 90.229 64.3361 90.3645 64.2986 90.1486C64.3203 90.0633 64.3083 89.973 64.2652 89.8964C64.222 89.8197 64.151 89.7626 64.0669 89.7369C63.9828 89.7112 63.892 89.7188 63.8134 89.7583C63.7347 89.7977 63.6743 89.8659 63.6447 89.9487C63.5619 90.0232 63.4886 90.1075 63.4264 90.1999C63.3301 90.4143 63.2678 90.6424 63.2419 90.876C63.0887 91.5904 63.212 91.6953 63.2917 91.8485C63.2842 91.8886 63.2848 91.9298 63.2935 91.9697C63.3022 92.0095 63.3187 92.0473 63.3422 92.0807C63.3657 92.1141 63.3956 92.1424 63.4302 92.1641C63.4647 92.1857 63.5033 92.2003 63.5436 92.2068C63.5833 92.2147 63.6241 92.2144 63.6637 92.206C63.7033 92.1975 63.7407 92.181 63.7737 92.1576C63.8067 92.1342 63.8345 92.1042 63.8555 92.0696C63.8765 92.035 63.8902 91.9965 63.8958 91.9564Z" fill="#191919"/>
<path d="M73.1378 69.1098C72.869 69.2985 72.6267 69.5223 72.4173 69.7752C71.9684 70.402 71.6437 71.109 71.4609 71.858C71.1345 72.9043 71.1638 74.0293 71.5444 75.0571C71.5486 75.1008 71.5616 75.1431 71.5827 75.1816C71.6037 75.2201 71.6324 75.2539 71.6669 75.2809C71.7014 75.308 71.7411 75.3278 71.7835 75.3391C71.8258 75.3503 71.8701 75.3529 71.9135 75.3466C71.9574 75.3414 71.9999 75.3273 72.0383 75.3053C72.0767 75.2832 72.1102 75.2537 72.1369 75.2183C72.1636 75.183 72.1828 75.1426 72.1935 75.0997C72.2042 75.0567 72.2061 75.012 72.1991 74.9683C72.379 71.5992 72.3691 72.1045 73.608 69.5027C73.8538 69.1811 73.3798 68.7944 73.1378 69.1098Z" fill="#191919"/>
<path d="M76.3769 89.363V89.3722C76.6794 89.3431 76.0584 88.5138 76.0079 88.3423C75.6051 87.0459 75.4045 86.4915 74.968 84.7342C74.9443 84.6563 74.9524 84.5722 74.9907 84.5003C75.0289 84.4285 75.0942 84.3747 75.1721 84.351C75.25 84.3272 75.3341 84.3354 75.406 84.3736C75.4778 84.4119 75.5316 84.4772 75.5553 84.555C77.4696 89.4418 77.2721 88.8055 77.3333 89.0659C77.7813 90.4993 74.4894 91.703 74.9512 92.6448C75.0852 92.9557 77.3593 92.4519 78.6588 91.726C79.6542 91.1662 79.9605 90.7213 79.9168 89.6585C79.8793 88.6631 78.3088 81.1201 78.2897 81.0397C78.2782 80.9967 78.2752 80.9519 78.281 80.9079C78.2868 80.8638 78.3012 80.8213 78.3235 80.7828C78.3457 80.7443 78.3753 80.7105 78.4105 80.6835C78.4458 80.6564 78.486 80.6365 78.529 80.625C78.5719 80.6135 78.6167 80.6106 78.6608 80.6164C78.7048 80.6221 78.7473 80.6366 78.7859 80.6588C78.8244 80.681 78.8581 80.7106 78.8852 80.7459C78.9122 80.7811 78.9321 80.8214 78.9436 80.8643C79.667 83.0978 80.2385 85.3777 80.6542 87.6883C80.8495 88.7351 81.1458 90.049 80.7553 91.0575C80.1948 92.5009 77.8065 93.3646 76.2935 93.6556C75.4183 93.821 74.4558 93.9213 74.0461 93.1326C73.1387 91.4021 75.9971 90.2091 76.3769 89.3706C76.3769 89.3561 76.3938 89.3293 76.3938 89.3178C76.3923 89.3277 76.3769 89.3484 76.3769 89.363Z" fill="#191919"/>
<path d="M75.1518 93.2222C76.1366 93.1758 77.1011 92.9263 77.9849 92.4894C78.9492 92.2121 79.8389 91.7217 80.5883 91.0544C80.662 91.0083 80.7148 90.9354 80.7358 90.8511C80.7568 90.7668 80.7442 90.6776 80.7007 90.6024C80.6572 90.5272 80.5863 90.4717 80.5028 90.4478C80.4192 90.4239 80.3297 90.4333 80.253 90.474C80.0906 90.5307 79.6312 90.667 79.3808 90.7711C78.8272 91.0008 78.2889 91.2566 77.72 91.4764C77.1648 91.6908 76.5768 91.8753 76.0086 92.1004C75.6449 92.2438 75.2965 92.4233 74.9688 92.6364C74.9303 92.6484 74.8946 92.6679 74.8636 92.6937C74.8327 92.7195 74.8072 92.7512 74.7885 92.7869C74.7698 92.8226 74.7583 92.8616 74.7547 92.9017C74.751 92.9419 74.7554 92.9823 74.7674 93.0208C74.7794 93.0593 74.7989 93.095 74.8247 93.1259C74.8505 93.1569 74.8822 93.1824 74.9179 93.2011C74.9536 93.2198 74.9926 93.2313 75.0327 93.2349C75.0729 93.2385 75.1133 93.2342 75.1518 93.2222Z" fill="#191919"/>
<path d="M75.4862 90.9778C75.4781 91.0424 75.4781 91.1077 75.4862 91.1723C75.4833 91.232 75.489 91.2918 75.503 91.3499C75.695 91.7605 75.9137 92.158 76.1577 92.5399C76.2492 92.6669 76.3628 92.7763 76.4931 92.863C76.5319 92.9444 76.6007 93.0076 76.6851 93.0393C76.7695 93.0709 76.8628 93.0687 76.9456 93.033C76.9863 93.0154 77.0231 92.9897 77.0537 92.9576C77.0843 92.9255 77.1081 92.8876 77.1237 92.8461C77.1394 92.8046 77.1465 92.7604 77.1447 92.716C77.1429 92.6717 77.1323 92.6282 77.1133 92.5881C77.1133 92.0789 77.1853 92.2627 76.7611 91.4954C76.3568 90.7626 76.2657 90.7879 76.0061 90.657C75.8024 90.3032 75.2534 90.6409 75.4862 90.9778Z" fill="#191919"/>
<path d="M87.3796 39.5509C87.5093 39.7504 87.7045 39.8984 87.9315 39.9695C88.1586 40.0407 88.4033 40.0305 88.6237 39.9408C88.8441 39.8511 89.0263 39.6875 89.1391 39.478C89.2519 39.2685 89.2882 39.0262 89.2418 38.7929C89.1951 38.3549 88.7624 38.2461 88.5702 38.6987C88.5128 38.8477 88.4022 38.9701 88.2599 39.0425C88.1175 39.1149 87.9534 39.132 87.7992 39.0907C87.3788 38.9123 87.1828 39.1811 87.3796 39.5509Z" fill="#191919"/>
<path d="M14.3792 64.1289C13.9037 63.6335 13.5514 63.4137 12.9703 62.8333C12.6709 62.5546 12.9304 62.3057 12.7183 61.1143C12.5981 60.7215 13.2245 60.5561 13.3056 60.9504C13.4719 61.367 13.6 61.7978 13.6885 62.2376C14.3542 62.6917 14.9576 63.231 15.4833 63.8418C15.556 63.9378 15.5926 64.0563 15.5866 64.1766C15.5806 64.2969 15.5323 64.4112 15.4504 64.4995L14.7789 65.2101C14.9528 65.9698 14.8865 66.7648 14.5892 67.4852C14.2918 68.2056 13.778 68.8158 13.1188 69.2316L13.5882 71.6092C13.6038 71.651 13.6104 71.6957 13.6077 71.7403C13.605 71.7849 13.593 71.8284 13.5724 71.8681C13.5519 71.9078 13.5232 71.9427 13.4884 71.9706C13.4535 71.9986 13.4132 72.0189 13.37 72.0303C13.285 72.0561 13.1932 72.0473 13.1147 72.0057C13.0362 71.9641 12.9774 71.8931 12.9511 71.8082C12.5363 70.9367 12.2381 70.0142 12.0644 69.0647C12.0435 68.9609 12.0566 68.8531 12.1018 68.7573C12.1471 68.6616 12.2221 68.583 12.3156 68.5333C13.6441 67.802 14.0093 66.658 13.7076 65.1473C13.6372 64.7935 13.9389 64.5853 14.3792 64.1289Z" fill="#191919"/>
<path d="M9.30039 67.9237C8.99483 67.9589 8.68528 67.9282 8.39258 67.8337C8.09987 67.7392 7.83081 67.5831 7.6035 67.3759C7.3762 67.1687 7.19592 66.9152 7.07481 66.6325C6.95371 66.3497 6.89458 66.0443 6.90141 65.7368C6.9436 65.2681 7.12633 64.823 7.42568 64.4599C7.72502 64.0967 8.12703 63.8324 8.57909 63.7016C9.19166 63.4994 9.28738 62.4466 9.04924 61.8355C8.93285 61.5361 8.45658 61.0935 8.4114 60.5882C8.34555 59.8516 9.01478 59.3676 9.77054 59.311C10.8594 59.2244 12.0539 59.9534 13.5608 59.2796C13.9623 59.0984 14.307 58.8116 14.5581 58.4497C14.8092 58.0879 14.9573 57.6646 14.9866 57.2252C15.026 57.0269 15.0144 56.8219 14.9529 56.6294C14.8158 56.1868 15.691 55.7795 15.691 57.2535C15.7024 57.8491 15.5486 58.4363 15.2467 58.9499C14.9447 59.4635 14.5064 59.8835 13.9804 60.1632C12.4061 60.9634 10.7545 60.35 10.0217 60.3347C9.8609 60.3347 9.45124 60.3745 9.45124 60.4879C9.45124 60.628 9.90684 61.1579 10.0217 61.4611C10.4666 62.6334 10.1411 64.285 8.89763 64.6886C8.64336 64.7494 8.41371 64.8864 8.23939 65.0812C8.06507 65.2761 7.95438 65.5195 7.92211 65.779C7.92263 65.9615 7.96706 66.1413 8.05164 66.3031C8.13623 66.465 8.25849 66.6041 8.40811 66.7087C8.55774 66.8134 8.73033 66.8805 8.91135 66.9045C9.09236 66.9284 9.27648 66.9085 9.44818 66.8464C9.51543 66.819 9.58772 66.8062 9.66028 66.8088C9.73284 66.8114 9.80403 66.8294 9.86915 66.8615C9.93426 66.8936 9.99183 66.9392 10.0381 66.9952C10.0843 67.0512 10.1181 67.1163 10.1373 67.1863L11.4957 72.1635C11.5196 72.2484 11.5104 72.3392 11.4699 72.4175C11.4294 72.4959 11.3606 72.5559 11.2775 72.5854C11.2354 72.5992 11.1909 72.6043 11.1468 72.6005C11.1026 72.5967 11.0597 72.5841 11.0205 72.5634C10.9814 72.5427 10.9468 72.5143 10.9188 72.4799C10.8909 72.4455 10.8702 72.4059 10.8579 72.3633C10.3364 70.9261 9.71082 69.4988 9.30039 67.9237Z" fill="#191919"/>
<path d="M9.48087 58.5414C10.2068 58.0728 12.1279 58.0513 13.1042 57.6509C14.324 57.1493 15.298 56.1072 14.9488 54.83C14.9446 54.786 14.9317 54.7434 14.9109 54.7045C14.89 54.6656 14.8616 54.6312 14.8273 54.6034C14.793 54.5756 14.7535 54.5549 14.7112 54.5426C14.6688 54.5302 14.6244 54.5264 14.5805 54.5314C14.4916 54.5418 14.4102 54.5865 14.3537 54.656C14.2972 54.7255 14.2701 54.8143 14.2781 54.9035C14.2617 55.1462 14.1808 55.3802 14.0438 55.5812C13.7467 56.0951 13.2771 56.4871 12.7183 56.6876C11.4794 57.1853 10.023 56.7833 9.06126 58.0912C9.03039 58.118 9.00536 58.151 8.98772 58.1879C8.97008 58.2248 8.96021 58.265 8.9587 58.3059C8.95719 58.3468 8.96409 58.3876 8.97896 58.4257C8.99384 58.4639 9.01637 58.4985 9.04518 58.5276C9.07274 58.5574 9.10593 58.5813 9.14284 58.5982C9.17974 58.615 9.21961 58.6243 9.26014 58.6256C9.30067 58.6268 9.34105 58.6201 9.37894 58.6056C9.41683 58.5912 9.45148 58.5693 9.48087 58.5414Z" fill="#191919"/>
<path d="M5.45573 59.9656C5.32007 59.7385 5.23355 59.4855 5.20176 59.2229C5.16998 58.9603 5.19363 58.694 5.27119 58.4411C5.44557 57.9414 5.71781 57.4815 6.07201 57.0882C6.4262 56.695 6.85523 56.3763 7.33402 56.1508C8.6434 55.4663 10.8425 55.0398 11.7124 53.9195C11.7943 53.8344 11.8564 53.7321 11.894 53.6201C11.9316 53.5081 11.9438 53.3891 11.9298 53.2717C11.9102 53.1862 11.9245 53.0963 11.9697 53.0211C12.0149 52.9458 12.0875 52.891 12.1723 52.8682C12.2571 52.8454 12.3474 52.8564 12.4243 52.8988C12.5012 52.9412 12.5586 53.0117 12.5845 53.0956C12.6412 53.312 12.6495 53.5382 12.6089 53.7581C12.5683 53.9781 12.4797 54.1864 12.3495 54.3682C11.3341 55.9471 8.98031 56.4295 7.82025 57.0521C6.89527 57.5483 5.85466 58.5797 6.37765 59.4801C6.43224 59.5777 6.49392 59.6711 6.56218 59.7596C6.63617 59.872 6.66519 60.0081 6.64348 60.1409C6.62178 60.2736 6.55094 60.3934 6.44503 60.4763C5.51928 61.1793 5.28957 62.8401 5.5055 63.9741C5.8889 65.5312 6.70273 66.949 7.85394 68.0653C8.47456 68.7568 9.14758 69.3993 9.86701 69.9873C9.93311 70.0362 9.97706 70.1094 9.9892 70.1908C10.0013 70.2721 9.98065 70.355 9.93171 70.4211C9.88277 70.4872 9.80957 70.5311 9.72822 70.5432C9.64687 70.5554 9.56403 70.5347 9.49793 70.4858C8.70439 69.9767 7.95287 69.4049 7.25056 68.7759C3.87989 65.6656 3.77958 61.8171 5.45573 59.9656Z" fill="#191919"/>
<path d="M12.2986 65.8946C12.5505 65.5224 13.0084 65.7169 12.9028 66.1695C12.5092 67.854 10.4441 67.4712 10.7726 65.8371C10.7791 65.7569 10.8124 65.6813 10.8671 65.6223C10.9218 65.5632 10.9948 65.5243 11.0743 65.5117C11.2419 65.5018 11.3262 65.645 11.3928 65.8019C11.608 66.3081 11.8469 66.5607 12.2986 65.8946Z" fill="#191919"/>
<path d="M33.2165 86.2526C31.2033 85.3982 29.2477 84.4143 27.3618 83.3069C25.5494 82.2533 23.1979 81.6392 22.0616 79.816C21.2713 78.5487 21.3402 76.7302 20.5853 75.3366C17.2276 69.1404 9.11409 71.2055 7.03211 76.7003C6.08492 79.1981 6.30851 81.581 6.44481 84.0473C6.82017 89.7488 8.31332 95.3207 10.8392 100.446C10.8934 100.553 10.9837 100.638 11.0943 100.685C11.2049 100.732 11.3285 100.738 11.4434 100.703C16.6449 99.0814 22.0102 96.6916 26.6045 95.3477C26.6689 95.3268 26.7256 95.2873 26.7674 95.2341C26.8093 95.181 26.8344 95.1166 26.8396 95.0491C26.8565 94.909 26.3534 94.9128 26.8228 94.981C27.9203 95.1278 29.0332 95.1167 30.1276 94.948C30.1903 94.936 30.249 94.9088 30.2987 94.8688C30.3484 94.8287 30.3874 94.777 30.4124 94.7183C31.682 91.7673 32.2762 89.7305 33.4822 86.8789C33.5062 86.8204 33.5184 86.7577 33.518 86.6944C33.5176 86.6311 33.5047 86.5686 33.48 86.5103C33.4553 86.4521 33.4193 86.3993 33.3741 86.3551C33.3288 86.3108 33.2753 86.276 33.2165 86.2526ZM15.4756 74.8695C15.6839 74.698 15.8225 74.7929 16.8777 75.7118C17.3425 76.1161 17.7728 76.554 18.2491 76.9553C19.0913 77.6636 20.0025 78.2983 20.8617 78.9706C21.4092 79.3994 21.5638 79.6284 21.9298 79.9201C21.9662 79.9456 21.9972 79.9779 22.021 80.0153C22.0449 80.0527 22.0611 80.0945 22.0688 80.1382C22.0766 80.1819 22.0756 80.2267 22.066 80.27C22.0564 80.3133 22.0384 80.3543 22.0129 80.3907C21.9875 80.427 21.9551 80.458 21.9177 80.4818C21.8803 80.5057 21.8386 80.5219 21.7949 80.5296C21.7512 80.5374 21.7064 80.5364 21.6631 80.5268C21.6198 80.5172 21.5787 80.4992 21.5424 80.4737C21.1595 80.2402 20.8165 80.1368 20.2736 79.7846C19.0224 78.9714 16.6035 77.126 15.7773 75.8695C15.4802 75.417 15.2314 75.0709 15.4756 74.8695ZM26.4062 94.8692C25.5708 94.6969 24.6941 94.5522 23.8395 94.324C20.5892 93.4177 17.5428 91.8966 14.8654 89.843C12.997 88.6278 10.5659 86.0803 10.0176 84.0075C9.99326 83.9296 10.0008 83.8453 10.0387 83.7729C10.0765 83.7006 10.1415 83.6463 10.2194 83.622C10.2973 83.5976 10.3816 83.6052 10.4539 83.643C10.5263 83.6808 10.5806 83.7459 10.6049 83.8237C10.969 84.5958 11.4691 85.2961 12.0812 85.8912C13.0457 87.0739 14.1755 88.1117 15.4358 88.9724C16.3761 89.5796 17.5967 90.487 18.6564 91.0996C21.187 92.3809 23.8321 93.4222 26.5571 94.2099C26.6445 94.2299 26.7204 94.2838 26.7681 94.3598C26.8157 94.4357 26.8313 94.5275 26.8113 94.6149C26.7913 94.7024 26.7374 94.7783 26.6614 94.8259C26.5854 94.8736 26.4936 94.8892 26.4062 94.8692Z" fill="#38A1FF"/>
<path d="M33.3171 89.5107C33.5675 89.7098 33.7084 89.8729 34.1387 90.1792C35.0744 90.8561 36.1548 91.5927 36.5714 92.6907C36.6305 92.8286 36.6816 92.9697 36.7245 93.1134C36.7245 93.216 36.7582 93.3125 36.7582 93.4197C36.7423 93.5047 36.7598 93.5926 36.8071 93.6651C36.8543 93.7376 36.9277 93.7891 37.012 93.8088C37.0962 93.8285 37.1848 93.815 37.2594 93.771C37.3339 93.7271 37.3886 93.6561 37.4121 93.5728C38.1311 91.9602 36.1517 90.1501 34.6609 89.3277C34.3271 89.156 33.9717 89.0303 33.6042 88.954C33.5304 88.916 33.4445 88.9088 33.3654 88.934C33.2862 88.9593 33.2204 89.015 33.1823 89.0888C33.1442 89.1626 33.137 89.2485 33.1623 89.3277C33.1876 89.4068 33.2433 89.4726 33.3171 89.5107Z" fill="#191919"/>
<path d="M33.9371 92.6976C34.176 92.8885 34.3725 93.1271 34.5141 93.3981C34.6557 93.6692 34.7393 93.9668 34.7595 94.2719C34.7628 94.3598 34.7963 94.4438 34.8543 94.5099C34.9123 94.576 34.9913 94.6201 35.078 94.6349C35.7388 94.6869 35.6347 92.7343 34.323 92.2114C33.8031 92.0039 33.7059 92.5644 33.9371 92.6976Z" fill="#191919"/>
<path d="M32.3775 93.775C32.5314 94.1427 32.7286 94.4907 32.9648 94.8118C33.072 94.9611 33.2007 95.0889 33.3844 95.0292C33.755 94.909 33.6961 93.8439 32.8645 93.3852C32.7114 93.3002 32.5621 93.2321 32.4281 93.3408C32.2941 93.4496 32.3247 93.618 32.3775 93.775Z" fill="#191919"/>
<path d="M30.2976 94.1295C30.5924 94.566 31.5679 95.5545 31.9248 95.1679C32.352 94.7084 30.6315 93.2229 30.2471 93.6962C30.1345 93.834 30.2042 93.9879 30.2976 94.1295Z" fill="#191919"/>
<path d="M124.484 64.0799C124.503 64.1871 124.543 64.2895 124.601 64.3816C124.62 64.425 124.649 64.4633 124.685 64.4933C125.248 65.0186 126.642 64.475 126.53 63.6511C126.759 63.2682 126.147 62.9344 125.942 63.3341C125.824 63.4106 125.797 63.3341 125.591 63.514C125.503 63.5906 125.347 63.6955 125.238 63.6618C125.222 63.6572 125.205 63.6618 125.188 63.6618C125.104 63.6434 125.053 63.7108 124.953 63.6802C124.9 63.6179 124.825 63.5793 124.743 63.5727C124.662 63.5662 124.581 63.5923 124.519 63.6453C124.456 63.6983 124.418 63.7739 124.411 63.8554C124.405 63.9369 124.431 64.0176 124.484 64.0799Z" fill="#191919"/>
<path d="M103.213 96.1763C103.341 96.5446 103.803 98.1128 104.371 97.8877C104.923 97.6894 104.313 96.161 104.002 95.2246C103.88 94.9374 103.52 94.0071 103.079 94.1587C102.603 94.3409 103.055 95.7169 103.213 96.1763Z" fill="#191919"/>
<path d="M105.529 95.3393C105.67 95.8317 106.013 97.1847 106.569 97.0239C107.155 96.8509 106.578 95.1387 106.368 94.4618C106.228 94.043 105.89 93.3002 105.526 93.4013C105.015 93.543 105.389 94.8255 105.529 95.3393Z" fill="#191919"/>
<path d="M107.626 94.6969C107.702 94.9772 108.018 96.6373 108.598 96.4933C109.195 96.3455 108.671 94.4259 108.498 93.8271C108.404 93.5009 108.115 92.5905 107.692 92.69C107.19 92.8087 107.496 94.1954 107.626 94.6969Z" fill="#191919"/>
<path d="M105.579 84.1124C105.269 84.4919 104.999 84.9024 104.774 85.3376C104.29 86.3673 103.887 87.4327 103.567 88.5245C103.072 90.0606 102.795 91.6587 102.744 93.2719C102.733 93.3597 102.757 93.4484 102.811 93.519C102.864 93.5895 102.943 93.6363 103.031 93.6494C103.118 93.6625 103.208 93.6408 103.279 93.589C103.351 93.5372 103.4 93.4594 103.415 93.3722C103.533 92.9197 103.685 92.4732 103.798 92.0016C104.054 90.9602 104.262 89.8706 104.57 88.8124C104.875 87.7696 105.233 86.743 105.642 85.7365C106.171 84.2502 106.033 84.6178 106.111 84.4118C106.143 84.3419 106.148 84.2624 106.124 84.1892C106.101 84.1159 106.05 84.0543 105.983 84.0165C105.916 83.9788 105.837 83.9677 105.762 83.9854C105.687 84.0032 105.622 84.0485 105.579 84.1124Z" fill="#191919"/>
<path d="M109.856 87.2535C109.681 87.4362 109.524 87.6351 109.387 87.8477C108.949 88.7548 108.574 89.6906 108.263 90.6486C108.2 90.9191 108.161 91.1945 108.146 91.4718C108.13 91.5126 108.124 91.5559 108.125 91.5993C108.127 91.6428 108.137 91.6855 108.155 91.725C108.173 91.7645 108.199 91.8 108.231 91.8295C108.263 91.8591 108.3 91.882 108.341 91.8971C108.382 91.9122 108.425 91.9191 108.469 91.9175C108.512 91.9158 108.555 91.9056 108.594 91.8874C108.634 91.8692 108.669 91.8435 108.699 91.8116C108.729 91.7797 108.751 91.7423 108.767 91.7015C108.901 91.4871 109.051 91.2995 109.169 91.0751C109.387 90.6456 109.528 90.1877 109.705 89.739C110.517 87.6892 110.286 88.2175 110.409 87.5184C110.441 87.4434 110.443 87.3589 110.415 87.2825C110.386 87.206 110.329 87.1435 110.256 87.108C110.22 87.0912 110.181 87.0817 110.142 87.0799C110.102 87.0781 110.063 87.0842 110.026 87.0977C109.989 87.1112 109.955 87.1319 109.925 87.1587C109.896 87.1854 109.873 87.2176 109.856 87.2535Z" fill="#191919"/>
<path d="M126.161 92.9251C126.15 93.5867 126.291 94.2419 126.575 94.8398C126.859 95.4376 127.276 95.9619 127.796 96.3717C128.315 96.7815 128.922 97.0658 129.57 97.2025C130.217 97.3391 130.888 97.3244 131.528 97.1595C132.598 96.8329 133.555 96.2148 134.293 95.3747C135.031 94.5345 135.52 93.5054 135.705 92.4028C135.729 92.3184 135.719 92.2279 135.676 92.1513C135.633 92.0746 135.561 92.0182 135.477 91.9943C135.392 91.9705 135.302 91.9811 135.225 92.024C135.149 92.0669 135.092 92.1384 135.068 92.2229C134.702 93.1152 134.192 93.9414 133.558 94.6686C132.921 95.3662 132.111 95.8838 131.21 96.1694C130.724 96.3 130.213 96.3102 129.722 96.1989C129.231 96.0876 128.774 95.8583 128.392 95.5308C127.556 94.8841 126.984 93.9551 126.784 92.9174C126.784 92.8765 126.775 92.8361 126.759 92.7984C126.743 92.7608 126.719 92.7267 126.69 92.6982C126.661 92.6696 126.626 92.647 126.588 92.6318C126.55 92.6167 126.51 92.6091 126.469 92.6096C126.428 92.6101 126.387 92.6186 126.35 92.6348C126.312 92.6509 126.278 92.6743 126.249 92.7036C126.221 92.7329 126.198 92.7675 126.183 92.8055C126.168 92.8435 126.16 92.8841 126.161 92.9251Z" fill="#191919"/>
<path d="M128.375 93.3883C129.056 94.4166 129.716 94.4197 129.884 94.2099C130.098 93.9426 129.233 92.7864 129.281 92.8653C129.139 92.6356 128.656 91.5896 128.224 91.7236C127.768 91.8653 128.017 92.8469 128.375 93.3883Z" fill="#191919"/>
<path d="M131.528 93.1885C131.739 92.997 131.612 92.7497 131.445 92.3163C131.193 91.9518 130.487 90.9227 130.053 91.1631C129.373 91.5858 130.947 93.7191 131.528 93.1885Z" fill="#191919"/>
<path d="M132.132 92.1877C132.292 92.3408 133.189 93.4197 133.608 93.03C134.028 92.6402 133.014 91.5835 132.703 91.2826C132.3 90.8775 131.614 90.4089 131.36 90.7336C131.049 91.0751 131.844 91.8753 132.132 92.1877Z" fill="#191919"/>
<path d="M114.586 83.0695C113.929 83.7587 112.748 85.2373 112.289 85.7916C112.213 85.8828 112.107 85.9437 111.99 85.9631C111.873 85.9825 111.752 85.9591 111.651 85.8973C109.843 84.8253 107.202 83.1936 105.411 82.2418C105.3 82.1843 105.213 82.0885 105.167 81.9719C105.121 81.8553 105.118 81.7259 105.16 81.6078C107.642 74.737 114.998 68.7438 122.554 68.2614C122.68 68.2537 122.804 68.2906 122.905 68.3655C123.007 68.4404 123.078 68.5486 123.108 68.671C123.7 71.5846 126.972 71.7768 128.023 69.2836C128.049 69.2201 128.089 69.1629 128.139 69.1156C128.189 69.0683 128.248 69.0319 128.313 69.0088C128.378 68.9858 128.447 68.9765 128.516 68.9816C128.584 68.9867 128.651 69.0061 128.712 69.0386C130.053 69.7294 131.291 70.6059 132.387 71.642C134.879 74.141 136.416 77.4339 136.731 80.9485C136.739 80.9879 136.739 81.0286 136.73 81.0679C136.721 81.1072 136.705 81.1443 136.681 81.1769C136.658 81.2095 136.628 81.2369 136.593 81.2574C136.559 81.2779 136.52 81.2911 136.48 81.2961C136.44 81.3021 136.398 81.2999 136.359 81.2899C136.319 81.2798 136.282 81.2619 136.249 81.2374C136.216 81.2128 136.189 81.182 136.168 81.1468C136.147 81.1115 136.134 81.0725 136.128 81.0319C135.844 78.7611 135.022 76.591 133.73 74.7021C132.438 72.8132 130.714 71.2603 128.701 70.1726C128.368 70.8034 127.85 71.3173 127.217 71.6452C126.584 71.973 125.866 72.0991 125.159 72.0065C124.452 71.9138 123.79 71.6069 123.263 71.1269C122.735 70.647 122.367 70.0171 122.209 69.3219C115.416 69.9597 108.864 75.2179 106.307 81.548C108.013 82.4853 110.53 84.0305 111.81 84.8023C112.781 83.5575 113.835 82.3788 114.963 81.2739C115.035 81.2044 115.127 81.1591 115.225 81.1445C115.324 81.1299 115.425 81.1467 115.514 81.1925C115.603 81.2383 115.675 81.3109 115.721 81.3999C115.766 81.489 115.783 81.5901 115.768 81.6889C115.256 85.2028 114.323 87.9349 113.738 91.4035C113.724 91.4914 113.676 91.5701 113.605 91.6229C113.533 91.6756 113.444 91.6982 113.356 91.6856C113.268 91.6731 113.188 91.6264 113.134 91.5558C113.08 91.4851 113.056 91.3961 113.067 91.3078C113.403 88.683 114.057 86.101 114.51 83.4975C114.536 83.3605 114.553 83.2165 114.586 83.0695Z" fill="#191919"/>
<path d="M129.13 86.8369C129.119 86.9192 129.075 86.9937 129.009 87.044C128.943 87.0943 128.859 87.1162 128.777 87.1049C128.695 87.0936 128.62 87.0501 128.57 86.9839C128.52 86.9177 128.498 86.8343 128.509 86.7519C128.509 86.147 128.289 86.0023 128.962 83.153C128.987 83.0437 129.046 82.9453 129.131 82.8726C129.216 82.7999 129.323 82.757 129.435 82.7504C129.547 82.7437 129.658 82.7736 129.751 82.8357C129.844 82.8977 129.915 82.9884 129.952 83.0941C130.364 83.9987 130.581 84.9799 130.59 85.9739C130.6 86.0178 130.602 86.0633 130.594 86.1077C130.587 86.1522 130.57 86.1946 130.546 86.2326C130.522 86.2705 130.49 86.3031 130.453 86.3285C130.415 86.3538 130.373 86.3713 130.329 86.3799C130.285 86.3886 130.239 86.3882 130.195 86.3787C130.151 86.3693 130.109 86.351 130.073 86.3251C130.036 86.2991 130.005 86.2659 129.981 86.2275C129.957 86.1892 129.942 86.1464 129.935 86.1018C129.835 85.8514 129.717 85.6171 129.633 85.366C129.501 85.0742 129.721 85.294 129.13 86.8369Z" fill="#191919"/>
<path d="M135.537 85.5735C136.227 82.9945 137.319 80.6323 139.596 79.2663C140.534 78.7098 141.578 78.3554 142.662 78.226C143.745 78.0965 144.843 78.1947 145.886 78.5143C146.615 78.758 147.265 79.1939 147.766 79.776C148.268 80.358 148.604 81.0647 148.738 81.8215C148.762 81.9411 148.743 82.0654 148.685 82.1727C148.627 82.28 148.533 82.3633 148.419 82.408C145.339 83.6393 141.254 84.114 140.569 85.4617C140.528 85.5223 140.5 85.5914 140.488 85.6639C140.477 85.7365 140.481 85.8107 140.502 85.8813C140.644 86.2971 141.719 86.523 142.296 86.4831C144.67 86.3154 147.03 85.2519 149.14 84.4578C149.212 84.4283 149.29 84.4159 149.368 84.4215C149.445 84.4272 149.52 84.4507 149.587 84.4904C149.654 84.53 149.71 84.5847 149.753 84.65C149.795 84.7153 149.821 84.7895 149.83 84.8667C150.545 90.8201 143.326 94.9818 137.884 90.4266C136.688 90.984 135.599 91.3263 134.194 91.8362C134.152 91.8542 134.107 91.8634 134.061 91.8633C134.015 91.8633 133.97 91.854 133.928 91.836C133.886 91.818 133.849 91.7916 133.817 91.7586C133.786 91.7255 133.761 91.6864 133.745 91.6437C133.73 91.6009 133.723 91.5554 133.725 91.5099C133.727 91.4643 133.739 91.4197 133.759 91.3787C133.778 91.3377 133.807 91.3012 133.841 91.2714C133.876 91.2416 133.916 91.2191 133.959 91.2053C135.262 90.7425 136.539 90.209 137.783 89.6072C137.854 89.5723 137.933 89.5592 138.01 89.5696C138.088 89.58 138.161 89.6133 138.22 89.6654C138.965 90.3065 139.833 90.7906 140.77 91.0889C145.04 92.5162 148.916 89.3178 148.871 85.6523C146.475 86.5865 142.007 88.4679 140.015 86.8813C139.729 86.6678 139.534 86.356 139.466 86.0064C139.397 85.6567 139.461 85.2942 139.646 84.9892C140.553 83.1814 144.522 82.751 147.613 81.604C146.694 78.7471 142.653 78.6353 140.132 80.153C137.999 81.4363 137.098 83.7189 136.456 86.1003C136.438 86.1821 136.398 86.2579 136.343 86.3207C136.287 86.3835 136.216 86.4312 136.137 86.4594C131.837 87.9908 110.292 94.1931 109.702 94.36C109.663 94.371 109.622 94.3743 109.582 94.3696C109.542 94.3649 109.503 94.3523 109.468 94.3326C109.432 94.3129 109.401 94.2865 109.376 94.2548C109.351 94.2231 109.333 94.1868 109.322 94.1479C109.311 94.1091 109.307 94.0684 109.312 94.0283C109.317 93.9882 109.329 93.9494 109.349 93.9141C109.369 93.8788 109.395 93.8478 109.427 93.8228C109.459 93.7977 109.495 93.7792 109.534 93.7681C112.264 92.9542 134.129 86.0559 135.537 85.5735Z" fill="#191919"/>
<path d="M125.238 93.9933C125.217 93.9156 125.167 93.8488 125.099 93.8062C125.03 93.7636 124.949 93.7484 124.869 93.7635C111.375 97.0776 107.864 98.9804 98.4837 101.464C98.4068 101.484 98.3353 101.52 98.2744 101.571C98.2135 101.622 98.1647 101.686 98.1315 101.758C97.7368 102.763 97.2764 103.741 96.7532 104.685C94.5656 108.232 89.7293 109.126 86.9735 106.207C88.7752 105.772 90.8074 105.53 92.4591 104.668C95.0625 103.32 94.5579 100.069 91.7041 99.6228C89.5501 99.2889 87.3724 100.259 85.3295 101.013C85.5628 100.473 85.8378 99.9514 86.1519 99.4536C88.9131 95.1281 94.2294 95.2567 96.8872 98.3326C96.9422 98.3952 97.0152 98.4393 97.0962 98.4587C97.1772 98.4782 97.2623 98.4721 97.3397 98.4413C98.5465 97.9306 99.5327 97.6495 101.411 97.0354C101.572 97.4887 101.959 98.5929 102.423 98.4643C103.075 98.2659 102.276 96.2705 102.02 95.6311C101.905 95.262 101.484 94.6058 101.181 94.6969C100.798 94.8225 100.978 95.7245 101.097 96.1043L101.191 96.3899C99.8069 96.805 98.192 97.2774 97.306 97.6113C96.0732 96.2555 94.3832 95.4027 92.5602 95.2166C90.7372 95.0305 88.9097 95.5241 87.4283 96.6028C85.8019 97.9219 84.6001 99.6908 83.9727 101.689C83.9422 101.778 83.9371 101.874 83.9579 101.967C83.9786 102.059 84.0245 102.144 84.0905 102.212C84.1564 102.279 84.2398 102.328 84.3314 102.351C84.423 102.374 84.5194 102.372 84.6097 102.344C86.8655 101.634 89.3112 100.294 91.5548 100.643C93.4078 100.938 93.6988 102.853 91.9905 103.751C90.201 104.67 87.8426 104.841 85.9015 105.418C85.8234 105.444 85.7524 105.488 85.6942 105.547C85.636 105.605 85.5922 105.676 85.5661 105.754C85.5401 105.832 85.5327 105.915 85.5444 105.996C85.5561 106.078 85.5866 106.156 85.6335 106.223C88.1642 109.693 92.917 109.837 96.1337 107.041C97.6231 105.739 98.2188 104.187 98.9853 102.399C108.274 99.8908 116.664 96.5477 125.002 94.3662C125.082 94.347 125.152 94.2973 125.196 94.2276C125.24 94.158 125.255 94.0739 125.238 93.9933Z" fill="#191919"/>
<path d="M116.549 72.518C116.409 72.9951 115.461 77.3765 115.308 78.6437C115.159 79.8773 115.155 80.3214 115.493 80.3796C116.007 80.4677 116.149 79.6277 117.422 73.1605C117.505 72.7362 117.796 71.1007 117.371 71.0119C117.081 70.9483 116.95 71.1589 116.549 72.518Z" fill="#191919"/>
<path d="M131.025 72.789C130.46 74.2645 130.499 74.371 129.549 79.8098C129.436 80.4366 129.369 81.0708 129.348 81.7073C129.334 81.7947 129.355 81.884 129.406 81.9563C129.457 82.0287 129.534 82.0785 129.621 82.0953C129.708 82.1122 129.798 82.0947 129.872 82.0466C129.946 81.9986 129.999 81.9236 130.019 81.8375C130.138 81.4224 130.32 80.9638 130.438 80.4362C130.673 79.3879 131.316 75.8419 131.51 74.5448C131.597 73.9682 131.622 73.0271 131.628 72.9108C131.644 72.8308 131.628 72.7478 131.583 72.6799C131.538 72.6119 131.468 72.5647 131.388 72.5486C131.308 72.5324 131.225 72.5487 131.157 72.5938C131.089 72.6389 131.042 72.7091 131.025 72.789Z" fill="#191919"/>
<path d="M127.117 97.8547C126.992 97.5167 126.896 97.1682 126.832 96.8133C126.82 96.729 126.777 96.6519 126.713 96.5964C126.648 96.5409 126.565 96.5108 126.48 96.5116C126.003 96.5137 125.527 96.4825 125.054 96.4182C122.491 96.0844 122.685 95.4879 122.085 95.7C120.783 96.1594 119.552 96.7628 118.244 97.2169C116.298 97.906 114.302 98.5033 112.34 99.1664C112.282 99.1891 112.229 99.2238 112.186 99.2683C112.143 99.3128 112.109 99.366 112.088 99.4244C110.863 103.385 110.421 107.624 109.572 111.568C108.8 115.223 105.764 129.868 105.059 133.539C105.035 133.651 105.051 133.768 105.103 133.869C105.155 133.971 105.24 134.052 105.345 134.097C106.292 134.599 107.19 135.186 108.029 135.853C108.096 135.901 108.174 135.933 108.256 135.945C108.339 135.957 108.423 135.95 108.501 135.923C108.58 135.897 108.651 135.851 108.709 135.792C108.767 135.732 108.809 135.659 108.834 135.58C112.076 124.4 115.687 107.317 117.522 101.933C118.95 102.14 120.39 102.25 121.833 102.263C122.936 105.695 127.754 127.342 128.495 133.39C128.506 133.472 128.538 133.55 128.586 133.618C128.635 133.685 128.699 133.74 128.773 133.777C128.848 133.814 128.93 133.832 129.013 133.83C129.096 133.828 129.177 133.806 129.25 133.766C130.069 133.313 131.069 132.754 131.9 132.349C131.989 132.31 132.064 132.245 132.118 132.164C132.171 132.082 132.2 131.987 132.202 131.89C132.089 125.804 129.27 103.696 127.117 97.8547Z" fill="#191919"/>
<path d="M99.3221 136.506C99.4614 136.534 99.3703 136.748 101.503 136.836C101.589 136.836 104.665 136.922 105.847 136.85C106.537 136.807 107.124 136.808 107.491 136.13C107.508 136.089 107.533 136.052 107.564 136.021C107.595 135.99 107.631 135.966 107.672 135.949C107.713 135.933 107.756 135.925 107.8 135.925C107.844 135.926 107.887 135.935 107.927 135.953C108.433 136.174 107.884 136.979 107.441 137.309C106.635 137.73 105.733 137.931 104.824 137.892C103.072 137.95 101.318 137.886 99.574 137.701C97.9216 137.327 97.8243 136.037 99.0709 135.472C100.143 134.985 102.803 135.154 104.808 134.134C104.842 134.111 104.881 134.094 104.922 134.086C104.963 134.078 105.006 134.078 105.047 134.086C105.088 134.095 105.126 134.111 105.161 134.135C105.195 134.159 105.225 134.189 105.247 134.225C105.27 134.26 105.285 134.299 105.292 134.341C105.299 134.382 105.297 134.424 105.288 134.465C105.278 134.506 105.26 134.544 105.235 134.578C105.21 134.611 105.179 134.64 105.143 134.661C103.88 135.527 102.407 136.036 100.88 136.137C100.341 136.158 99.8124 136.284 99.3221 136.506Z" fill="#191919"/>
<path d="M137.45 135.861C136.531 134.827 132.91 135.085 131.727 132.888C131.703 132.852 131.686 132.81 131.678 132.767C131.67 132.724 131.671 132.68 131.68 132.637C131.698 132.55 131.75 132.474 131.825 132.425C131.899 132.377 131.99 132.36 132.077 132.378C132.163 132.397 132.239 132.449 132.288 132.523C133.59 134.341 138.241 133.662 138.604 135.969C138.617 136.14 138.573 136.312 138.479 136.455C138.384 136.599 138.245 136.708 138.082 136.764C137.516 136.937 136.937 137.062 136.35 137.138C135.937 137.19 135.508 137.215 135.101 137.224C133.806 137.34 132.502 137.327 131.209 137.183C129.327 136.835 128.873 135.926 128.439 134.292C128.426 134.254 128.42 134.213 128.422 134.172C128.425 134.132 128.435 134.092 128.453 134.055C128.471 134.019 128.496 133.986 128.527 133.959C128.557 133.932 128.593 133.912 128.632 133.899C128.669 133.885 128.709 133.879 128.749 133.881C128.789 133.883 128.828 133.893 128.864 133.911C128.9 133.929 128.932 133.954 128.958 133.985C128.984 134.015 129.003 134.051 129.014 134.089C129.46 135.121 129.807 135.738 130.733 136.035C132.011 136.448 133.819 136.222 135.084 136.188C135.883 136.18 136.678 136.07 137.45 135.861Z" fill="#191919"/>
<path d="M11.0026 62.6656C11.0223 62.7647 11.055 62.8605 11.099 62.9473C11.143 63.0341 11.1972 63.1102 11.2585 63.171C11.3199 63.2318 11.387 63.2761 11.456 63.3013C11.525 63.3265 11.5945 63.332 11.6602 63.3176C11.726 63.3032 11.7868 63.2691 11.8389 63.2174C11.8911 63.1657 11.9335 63.0974 11.9638 63.0165C11.9941 62.9356 12.0116 62.8439 12.0152 62.7466C12.0189 62.6494 12.0086 62.5487 11.985 62.4505C11.9654 62.3514 11.9326 62.2556 11.8886 62.1688C11.8447 62.082 11.7904 62.0059 11.7291 61.9451C11.6678 61.8843 11.6006 61.84 11.5316 61.8148C11.4626 61.7896 11.3932 61.7841 11.3274 61.7985C11.2616 61.8129 11.2009 61.8469 11.1487 61.8987C11.0966 61.9504 11.0541 62.0187 11.0238 62.0996C10.9935 62.1804 10.976 62.2722 10.9724 62.3694C10.9688 62.4667 10.979 62.5674 11.0026 62.6656Z" fill="#191919"/>
<path d="M86.6411 37.0616C86.6411 37.195 86.6764 37.323 86.7393 37.4173C86.8022 37.5117 86.8875 37.5647 86.9765 37.5647C87.0654 37.5647 87.1507 37.5117 87.2136 37.4173C87.2765 37.323 87.3119 37.195 87.3119 37.0616C87.3119 36.9282 87.2765 36.8002 87.2136 36.7059C87.1507 36.6115 87.0654 36.5585 86.9765 36.5585C86.8875 36.5585 86.8022 36.6115 86.7393 36.7059C86.6764 36.8002 86.6411 36.9282 86.6411 37.0616Z" fill="#191919"/>
<path d="M125.616 61.2099C125.748 61.2315 125.886 61.1825 125.999 61.0736C126.113 60.9648 126.192 60.805 126.221 60.6294C126.25 60.4538 126.225 60.2769 126.152 60.1375C126.08 59.9981 125.965 59.9076 125.833 59.886C125.768 59.8753 125.7 59.8819 125.635 59.9053C125.569 59.9287 125.506 59.9685 125.45 60.0225C125.394 60.0764 125.345 60.1434 125.307 60.2197C125.269 60.296 125.242 60.38 125.228 60.467C125.214 60.554 125.213 60.6422 125.224 60.7266C125.236 60.8111 125.261 60.8901 125.297 60.9592C125.333 61.0282 125.38 61.086 125.435 61.1291C125.489 61.1723 125.551 61.2 125.616 61.2107V61.2099Z" fill="#191919"/>
<path d="M34.1659 77.4798C34.1659 77.4599 34.1498 77.44 34.1498 77.4186C34.1425 77.3746 34.1441 77.3296 34.1545 77.2863C34.165 77.243 34.1841 77.2022 34.2107 77.1664C34.2373 77.1307 34.2709 77.1007 34.3093 77.0782C34.3478 77.0557 34.3905 77.0413 34.4347 77.0357C35.2458 76.8081 36.1139 76.9105 36.8498 77.3205C37.4062 77.6806 37.8486 78.1917 38.1249 78.7941C38.4013 79.3965 38.5003 80.0652 38.4103 80.7219C38.3531 81.2139 38.1868 81.6869 37.9234 82.1065C37.6601 82.526 37.3063 82.8814 36.8881 83.1468C36.4698 83.4121 35.9975 83.5807 35.5058 83.6402C35.014 83.6997 34.5152 83.6486 34.0457 83.4907C31.0058 82.5649 31.2715 78.0541 34.012 77.4829C34.0621 77.4679 34.1153 77.4669 34.1659 77.4798ZM34.3842 77.695C34.3972 77.7333 34.4024 77.7738 34.3993 77.8141C34.3962 77.8544 34.3849 77.8937 34.3661 77.9295C34.3474 77.9653 34.3215 77.997 34.2901 78.0225C34.2587 78.048 34.2224 78.0668 34.1835 78.0778C32.7677 78.6077 32.5242 80.7188 33.3106 81.8038C33.593 82.1352 33.9632 82.3802 34.3787 82.5107C34.7941 82.6411 35.2379 82.6517 35.6591 82.5412C38.3613 81.8827 37.8881 77.4492 34.535 77.7049C34.4844 77.7107 34.4333 77.7068 34.3842 77.6935V77.695Z" fill="#191919"/>
<path d="M31.2532 67.89L31.2371 66.8364C31.2357 66.7426 31.2599 66.6503 31.3071 66.5693C31.3543 66.4884 31.4228 66.4218 31.5051 66.3769C33.5924 65.2774 36.4056 65.6319 38.6002 66.5002C38.6993 66.5385 38.7837 66.6074 38.8411 66.6969C38.8985 66.7864 38.926 66.8918 38.9195 66.9979L38.9026 67.6488C39.9674 68.1347 40.9745 68.7383 41.905 69.4482L42.3246 68.9758C42.3958 68.8998 42.4881 68.8469 42.5896 68.8238C42.6912 68.8007 42.7973 68.8086 42.8943 68.8464C44.6682 69.5473 46.1402 70.8478 47.0544 72.5218C47.1101 72.619 47.1336 72.7314 47.1215 72.8429C47.1094 72.9543 47.0623 73.059 46.987 73.142L46.5682 73.5662C47.0769 74.699 47.3617 75.9195 47.4067 77.1605C47.6586 77.1903 47.9097 77.2294 48.1448 77.2539C48.2526 77.2655 48.3542 77.3104 48.4354 77.3823C48.5166 77.4542 48.5735 77.5495 48.5981 77.6551C49.0651 79.8239 48.9327 82.079 48.2153 84.1783C48.1716 84.3003 48.0831 84.4011 47.9677 84.46C47.8522 84.5189 47.7187 84.5315 47.5943 84.4953L46.8561 84.2992C46.6418 85.257 46.2857 86.1773 45.7994 87.0298C46.1976 87.5933 46.4212 87.7901 46.3025 88.1117C45.4989 89.9691 44.1161 91.5168 42.3606 92.5238C42.3127 92.5529 42.2592 92.5716 42.2036 92.5787C42.148 92.5858 42.0915 92.5812 42.0378 92.5651C41.9841 92.549 41.9344 92.5218 41.8918 92.4853C41.8493 92.4487 41.8149 92.4037 41.7909 92.353L41.4387 91.5927C40.7658 92.0125 40.0294 92.3205 39.2579 92.5046C39.2148 92.5168 39.1697 92.5203 39.1252 92.5148C39.0808 92.5093 39.0378 92.495 38.999 92.4726C38.9601 92.4503 38.9261 92.4204 38.899 92.3848C38.8719 92.3491 38.8521 92.3084 38.8409 92.265C38.8298 92.2217 38.8274 92.1765 38.8339 92.1321C38.8404 92.0878 38.8558 92.0452 38.879 92.0069C38.9022 91.9686 38.9329 91.9353 38.9692 91.909C39.0054 91.8827 39.0466 91.8639 39.0902 91.8538C39.5053 91.7359 39.9093 91.5822 40.2978 91.3943C41.3146 90.9005 41.3345 90.5605 41.6898 90.6355C41.7441 90.6496 41.7947 90.6753 41.8382 90.7107C41.8816 90.7461 41.917 90.7905 41.9418 90.8407L42.3108 91.5827C43.6139 90.6899 44.6469 89.4564 45.2971 88.0168C45.116 87.7849 44.9481 87.5431 44.794 87.2924C44.7485 87.216 44.7245 87.1287 44.7245 87.0397C44.7245 86.9508 44.7485 86.8635 44.794 86.787C45.0334 86.4016 45.2354 85.9942 45.3974 85.5703C46.069 83.9164 45.8729 83.4669 46.2535 83.2449C46.5008 83.1009 46.6792 83.2066 47.4105 83.398C47.8884 81.7212 47.9746 79.9571 47.6624 78.2417C46.7734 78.1421 46.667 78.1651 46.5215 77.9882C46.2213 77.6873 46.5766 77.2891 46.1693 75.6145C45.7282 73.7967 45.1738 73.5685 45.5651 73.1137L45.9679 72.7094C45.2168 71.5091 44.133 70.553 42.8484 69.9574L42.3453 70.5248C42.3002 70.5772 42.2448 70.6198 42.1827 70.6501C42.1205 70.6804 42.0529 70.6978 41.9838 70.7011C41.9147 70.7044 41.8457 70.6936 41.781 70.6693C41.7162 70.6451 41.6571 70.6079 41.6071 70.56C40.5545 69.6907 39.3857 68.9724 38.1346 68.426C38.0431 68.3794 37.9674 68.3069 37.9167 68.2176C37.8661 68.1283 37.8428 68.0261 37.8498 67.9237L37.8827 67.3371C36.1537 66.7169 33.9592 66.4259 32.2639 67.1534L32.2976 68.2016C32.2993 68.306 32.2699 68.4086 32.213 68.4962C32.1561 68.5838 32.0744 68.6524 31.9783 68.6932C30.7417 69.1084 29.6127 69.7928 28.6727 70.6971C28.6252 70.7533 28.5658 70.7985 28.4989 70.8292C28.432 70.86 28.3592 70.8757 28.2855 70.8752C28.2119 70.8747 28.1392 70.858 28.0728 70.8263C28.0063 70.7946 27.9476 70.7486 27.9009 70.6917L27.0769 69.6848C25.5727 70.6277 24.3132 71.9134 23.4015 73.4368C23.7776 73.8198 24.1754 74.1808 24.593 74.518C24.671 74.5701 24.7253 74.6509 24.744 74.7428C24.7628 74.8347 24.7446 74.9303 24.6933 75.0088C24.1932 75.7753 23.8194 76.6171 23.5861 77.502C23.5668 77.582 23.5165 77.6511 23.4463 77.694C23.376 77.737 23.2916 77.7502 23.2116 77.7309C23.1316 77.7117 23.0625 77.6614 23.0196 77.5911C22.9767 77.5209 22.9634 77.4365 22.9827 77.3565C23.1723 76.5052 23.4816 75.6852 23.9015 74.9208C23.5103 74.629 23.3525 74.4613 22.6274 73.8304C22.5637 73.7735 22.5196 73.6979 22.5014 73.6144C22.4833 73.5309 22.492 73.4438 22.5263 73.3656C23.3341 71.397 25.1213 69.8303 26.8909 68.6113C26.9947 68.5392 27.1224 68.5098 27.2473 68.5293C27.3722 68.5489 27.4848 68.6158 27.5616 68.7162L28.3166 69.6174C29.1963 68.8876 30.1878 68.3043 31.2532 67.89Z" fill="#191919"/>
<path d="M38.7926 48.7517C38.7983 48.6786 38.8275 48.6093 38.8758 48.5541C38.9241 48.4989 38.9889 48.4608 39.0606 48.4454C42.3532 47.5695 44.0102 52.7028 40.6372 53.8376C40.1006 54.0331 39.5211 54.0799 38.96 53.9728C38.399 53.8658 37.8773 53.609 37.4503 53.2296C37.1293 52.8952 36.8938 52.4882 36.7639 52.0432C36.6339 51.5982 36.6133 51.1284 36.7039 50.6738C36.7945 50.2192 36.9936 49.7932 37.2842 49.432C37.5748 49.0708 37.9483 48.7852 38.373 48.5994C38.4106 48.5817 38.4512 48.5716 38.4927 48.5697C38.5341 48.5678 38.5755 48.5741 38.6145 48.5883C38.6535 48.6024 38.6893 48.6242 38.7199 48.6522C38.7505 48.6803 38.7752 48.7141 38.7926 48.7517ZM38.8095 48.9125C38.8095 49.1981 38.5132 49.0848 38.0713 49.702C37.7856 50.1181 37.6426 50.6157 37.6638 51.1201C37.6849 51.6244 37.869 52.1083 38.1885 52.4991C38.478 52.7397 38.8262 52.8991 39.1975 52.9612C39.5688 53.0232 39.9499 52.9855 40.3019 52.8521C42.4719 52.1178 41.2736 48.8605 39.1954 49.1093C39.1183 49.1243 39.0385 49.1131 38.9685 49.0774C38.8986 49.0418 38.8426 48.9837 38.8095 48.9125Z" fill="#191919"/>
<path d="M37.9972 42.0801C37.9842 42.0242 37.9007 41.4369 37.8793 41.1429C37.8706 41.0366 37.8955 40.9303 37.9505 40.839C38.0054 40.7476 38.0877 40.6758 38.1856 40.6337C39.0648 40.2925 40.0077 40.1465 40.9489 40.2057C41.8901 40.265 42.8072 40.528 43.6367 40.9767C43.7196 41.0223 43.7874 41.0908 43.8321 41.1741C43.8769 41.2574 43.8965 41.3519 43.8886 41.4461C43.8449 41.9383 43.772 42.4274 43.6704 42.9109C44.3718 43.2409 44.3082 43.2249 44.4759 43.3121C44.5425 43.2195 44.5931 43.1284 44.6605 43.038C44.8948 42.7233 45.1298 42.4209 45.3649 42.113C45.4231 42.0344 45.507 41.9787 45.6021 41.9558C45.6971 41.9328 45.7972 41.944 45.8848 41.9875C47.3211 42.7149 48.4587 43.9204 49.1016 45.3964C49.1327 45.4778 49.1345 45.5674 49.1065 45.6499C49.0785 45.7324 49.0226 45.8025 48.9485 45.8482C48.585 46.1184 48.2536 46.4293 47.9607 46.7747C48.2096 47.2303 48.3475 47.7382 48.3635 48.2571C48.5993 48.2142 48.7762 48.1606 49.1682 48.058C49.2521 48.0383 49.3403 48.0489 49.4172 48.088C49.494 48.1271 49.5545 48.1922 49.5878 48.2717C49.9751 49.1884 50.1746 50.1735 50.1746 51.1688C50.1746 52.164 49.9751 53.1491 49.5878 54.0658C49.5449 54.1659 49.4662 54.2465 49.3671 54.2917C49.268 54.337 49.1557 54.3438 49.0518 54.3109C48.9093 54.2699 48.7692 54.2208 48.6322 54.1639C48.4573 54.5623 48.2615 54.9514 48.0457 55.3293L48.8841 56.0077C48.9729 56.0866 49.0302 56.1947 49.0457 56.3124C49.0611 56.4301 49.0337 56.5495 48.9684 56.6486C48.0482 58.2184 46.5776 59.3902 44.8419 59.9366C44.7399 59.9644 44.6316 59.9597 44.5324 59.9231C44.4331 59.8864 44.3478 59.8196 44.2883 59.7321L44.0196 59.3408C43.6649 59.5284 43.2944 59.6845 42.9123 59.8072C42.944 59.929 42.9834 60.0487 43.0303 60.1655C43.0526 60.232 43.0611 60.3024 43.0553 60.3723C43.0494 60.4422 43.0294 60.5102 42.9965 60.5721C42.9635 60.634 42.9183 60.6885 42.8635 60.7324C42.8088 60.7762 42.7457 60.8085 42.678 60.8271C40.9431 61.4195 39.0752 61.5047 37.2935 61.0729C37.1824 61.0416 37.0846 60.9745 37.0154 60.882C36.9462 60.7896 36.9094 60.6769 36.9107 60.5614L36.9444 60.0706C36.5295 60.0096 36.1199 59.9169 35.7192 59.7934C35.5339 60.236 35.5278 60.3577 35.2996 60.471C35.2334 60.4998 35.162 60.5147 35.0898 60.5147C35.0176 60.5147 34.9462 60.4998 34.88 60.471C33.218 59.7324 31.7948 58.545 30.7704 57.0422C30.6994 56.9414 30.6672 56.8184 30.6795 56.6957C30.6919 56.5731 30.7481 56.459 30.8378 56.3745C31.0553 56.1593 31.2566 55.9288 31.4749 55.7121C31.0848 55.1668 30.7638 54.5752 30.5193 53.951L29.5292 53.9112C29.3996 53.9114 29.2746 53.8634 29.1784 53.7765C29.0823 53.6896 29.022 53.57 29.0093 53.441C28.889 51.7598 29.0306 50.0702 29.4289 48.4325C29.4615 48.3023 29.5384 48.1875 29.6463 48.1078C29.85 47.9807 29.9304 48.006 30.7873 48.2035C30.95 47.8015 31.1465 47.4139 31.3746 47.045C32.1931 45.7356 32.1985 46.1851 31.9948 45.8719C31.8608 45.6966 31.7268 45.5166 31.6119 45.3359C31.5559 45.259 31.523 45.1678 31.517 45.0728C31.511 44.9779 31.5323 44.8832 31.5782 44.7999C32.4029 43.2478 34.1212 42.5395 35.7376 41.9568C35.8508 41.9166 35.9744 41.9166 36.0875 41.9569C36.2006 41.9972 36.2964 42.0754 36.3586 42.1781L36.6266 42.6567C37.0566 42.4061 37.5174 42.2123 37.9972 42.0801ZM42.8978 41.6896C41.6457 41.1343 40.237 41.0418 38.923 41.4285C38.939 41.5257 39.0401 42.1605 39.0761 42.3764C39.0919 42.444 39.0925 42.5141 39.078 42.5819C39.0634 42.6497 39.034 42.7134 38.9919 42.7685C38.8119 43.0748 38.5952 42.8719 37.6672 43.2723C36.7943 43.646 36.6924 43.9523 36.3249 43.8696C36.063 43.8106 36.027 43.6759 35.6878 43.0717C34.5013 43.4065 33.4433 44.0913 32.6518 45.0365C32.8155 45.2671 32.9946 45.4863 33.1878 45.6928C33.2701 45.7887 33.3153 45.9109 33.3153 46.0373C33.3153 46.1637 33.2701 46.286 33.1878 46.3819C32.4778 47.1054 31.9439 47.9826 31.6272 48.9455C31.5888 49.0622 31.5107 49.1617 31.4065 49.2268C31.3022 49.2918 31.1785 49.3183 31.0568 49.3016C30.815 49.2666 30.5747 49.2224 30.3363 49.1691C30.0617 50.3865 29.9543 51.6356 30.0169 52.882C30.3294 52.8912 30.6234 52.905 30.9396 52.9303C31.5997 52.9831 31.2168 53.686 32.5836 55.4571C32.665 55.5649 32.7018 55.6999 32.6862 55.8341C32.6707 55.9683 32.604 56.0913 32.5002 56.1777C32.2802 56.3705 32.0728 56.5772 31.8792 56.7964C32.6604 57.8362 33.6632 58.6892 34.8149 59.2934C34.8788 59.1539 34.9501 59.0179 35.0285 58.886C35.0924 58.7762 35.1944 58.6937 35.3151 58.6543C35.4359 58.6149 35.5669 58.6213 35.6832 58.6724C36.2939 58.9012 36.9304 59.0542 37.5784 59.128C37.7096 59.15 37.8276 59.221 37.9086 59.3266C37.9895 59.4321 38.0275 59.5645 38.0148 59.6969L37.9811 60.1793C39.2814 60.4159 40.619 60.3437 41.8863 59.9687C41.8496 59.8339 41.8217 59.6968 41.8028 59.5583C41.7783 59.4347 41.8009 59.3063 41.866 59.1984C41.9312 59.0905 42.0342 59.0108 42.155 58.9748C42.7636 58.8142 43.3455 58.5658 43.8825 58.2374C43.9397 58.1995 44.0039 58.1734 44.0714 58.1606C44.1388 58.1478 44.2081 58.1485 44.2753 58.1628C44.3424 58.177 44.406 58.2045 44.4625 58.2436C44.5189 58.2827 44.5669 58.3327 44.6038 58.3906L44.9223 58.85C46.1288 58.3697 47.1634 57.5386 47.8925 56.4641L47.1039 55.8109C47.0205 55.7379 46.965 55.6383 46.9467 55.529C46.9284 55.4197 46.9485 55.3075 47.0036 55.2113C48.0687 53.4188 47.878 53.2327 48.2287 53.1118C48.4837 53.0114 48.6215 53.1677 48.9332 53.3032C49.4651 51.8658 49.4945 50.2907 49.0166 48.8345C48.7025 48.912 48.3831 48.9662 48.061 48.9968C48.0123 49.0016 47.9631 48.9957 47.9169 48.9795C47.8706 48.9634 47.8285 48.9373 47.7934 48.9032C47.7582 48.8691 47.7309 48.8278 47.7134 48.782C47.6959 48.7363 47.6886 48.6873 47.6919 48.6385C47.7407 48.0502 47.6304 47.4596 47.3726 46.9286C47.3367 46.8979 47.3076 46.8601 47.2871 46.8176C47.2667 46.7751 47.2553 46.7287 47.2537 46.6816C47.2521 46.6344 47.2604 46.5874 47.2779 46.5436C47.2955 46.4998 47.322 46.4601 47.3558 46.4271C47.5656 46.2196 48.0962 45.5848 48.3122 45.4316C47.742 44.3719 46.8807 43.4972 45.8297 42.9109C45.6766 43.1192 45.528 43.3267 45.3772 43.5396C44.9721 44.1384 44.979 44.3053 44.7056 44.3681C44.453 44.427 44.3994 44.2976 43.8335 44.0005C43.5486 43.8604 43.2462 43.7448 42.9445 43.6253C42.8431 43.5838 42.7593 43.5083 42.7073 43.4118C42.6554 43.3153 42.6385 43.2038 42.6597 43.0962C42.7554 42.6304 42.8338 42.1612 42.8947 41.6896H42.8978Z" fill="#191919"/>
<path d="M92.5795 77.0395C89.4401 77.3144 89.4087 82.2877 92.6637 82.5795C96.0865 82.8858 96.3744 78.1001 93.4685 77.3374C93.4262 77.3213 93.3811 77.3138 93.3359 77.3154C93.2907 77.3171 93.2463 77.3278 93.2054 77.347C93.1644 77.3662 93.1277 77.3934 93.0975 77.4271C93.0673 77.4607 93.0441 77.5001 93.0295 77.5429C93.0148 77.5857 93.0089 77.631 93.0121 77.6762C93.0154 77.7213 93.0277 77.7653 93.0483 77.8056C93.0689 77.8458 93.0974 77.8816 93.1321 77.9106C93.1668 77.9396 93.207 77.9613 93.2503 77.9745C94.516 78.5411 94.8361 80.5151 93.921 81.2525C93.6607 81.4364 93.3538 81.5431 93.0355 81.5603C92.7172 81.5775 92.4006 81.5045 92.1219 81.3497C91.8433 81.1949 91.6141 80.9646 91.4605 80.6853C91.307 80.406 91.2354 80.089 91.254 79.7708C91.2351 79.3088 91.3651 78.853 91.6248 78.4704C91.8845 78.0879 92.2603 77.7989 92.6966 77.646C92.7771 77.6305 92.848 77.5836 92.8939 77.5158C92.9398 77.4479 92.9568 77.3646 92.9413 77.2842C92.9258 77.2038 92.8789 77.1328 92.8111 77.0869C92.7432 77.0411 92.6599 77.024 92.5795 77.0395Z" fill="#191919"/>
<path d="M100.631 71.0831C99.4247 70.2613 98.0852 69.655 96.6719 69.2913C96.5871 69.2653 96.5155 69.2078 96.4717 69.1306C96.428 69.0534 96.4155 68.9624 96.4368 68.8763C96.4615 68.7896 96.5194 68.7161 96.5981 68.6721C96.6767 68.628 96.7696 68.6169 96.8565 68.6412C98.5207 69.0002 100.095 69.6914 101.486 70.6734C101.531 70.7067 101.569 70.749 101.598 70.7976C101.626 70.8463 101.644 70.9002 101.65 70.9561C101.656 71.012 101.651 71.0686 101.634 71.1224C101.618 71.1761 101.59 71.2258 101.553 71.2684L100.883 72.1872C101.397 72.6445 101.838 73.178 102.19 73.7692L103.331 73.4399C103.436 73.4143 103.546 73.4227 103.646 73.464C103.745 73.5054 103.829 73.5774 103.885 73.6697C105.009 75.5074 105.076 77.4538 105.445 79.4646C105.466 79.5954 105.436 79.7293 105.361 79.8385C105.286 79.9477 105.172 80.0239 105.042 80.0511C104.651 80.139 104.252 80.1814 103.851 80.1775C103.673 81.4753 103.19 82.7126 102.442 83.7886C102.839 84.1854 103.265 84.5517 103.717 84.8843C103.811 84.9519 103.88 85.0486 103.913 85.1593C103.947 85.27 103.943 85.3887 103.902 85.4969C103.071 87.3481 101.741 88.9313 100.06 90.069C99.9658 90.1227 99.857 90.1458 99.7489 90.1349C99.6408 90.1241 99.5387 90.0799 99.4568 90.0085C99.2568 89.8405 99.0664 89.6616 98.8864 89.4725C97.5236 90.4604 95.8489 90.9207 94.1726 90.768C94.1726 91.1739 94.2921 91.337 94.0892 91.6057C94.0408 91.6602 93.982 91.7044 93.9162 91.7357C93.8504 91.767 93.7791 91.7848 93.7063 91.788C91.4591 91.8277 89.2496 91.208 87.3509 90.0054C87.2427 89.9347 87.1653 89.8257 87.1341 89.7003C87.103 89.5749 87.1206 89.4423 87.1832 89.3293L87.6365 88.3951C86.8883 87.8345 86.227 87.1665 85.674 86.4127L85.0361 86.8507C84.9395 86.9165 84.8229 86.9465 84.7065 86.9353C84.5901 86.9241 84.4813 86.8725 84.399 86.7894C82.9764 85.3468 81.8025 83.9563 81.4296 81.9777C81.4058 81.8786 81.416 81.7744 81.4587 81.6819C81.5013 81.5894 81.5739 81.5139 81.6647 81.4677L82.5368 81.0527C82.2909 79.9838 82.2455 78.8785 82.4028 77.793L81.6984 77.6491C81.6097 77.636 81.5293 77.5899 81.4733 77.52C81.4172 77.4502 81.3896 77.3617 81.3959 77.2723C81.4877 76.6341 81.6395 76.006 81.8492 75.3963C81.8611 75.3578 81.8804 75.3219 81.9062 75.2908C81.9319 75.2598 81.9635 75.234 81.9991 75.2152C82.0348 75.1963 82.0738 75.1846 82.114 75.1808C82.1541 75.177 82.1947 75.1812 82.2332 75.193C82.2718 75.2049 82.3076 75.2243 82.3387 75.25C82.3698 75.2757 82.3955 75.3073 82.4144 75.3429C82.4333 75.3786 82.445 75.4176 82.4487 75.4578C82.4525 75.498 82.4484 75.5385 82.4365 75.577C82.2943 76.0457 82.1931 76.5258 82.1341 77.012L82.8891 77.1353C82.9822 77.1535 83.065 77.2063 83.1209 77.2829C83.1768 77.3596 83.2018 77.4545 83.1908 77.5488C82.8347 80.7571 83.945 81.3352 83.2581 81.6936L82.4197 82.1262C82.8928 83.5293 83.7186 84.7873 84.8179 85.7794L85.5392 85.2809C85.5953 85.2432 85.6585 85.2174 85.7249 85.2049C85.7913 85.1925 85.8596 85.1937 85.9256 85.2085C85.9915 85.2234 86.0537 85.2515 86.1084 85.2912C86.1631 85.3309 86.2091 85.3813 86.2437 85.4394C86.8618 86.3824 87.6599 87.1943 88.5921 87.8285C88.6888 87.8979 88.7585 87.9988 88.789 88.1139C88.8196 88.229 88.8093 88.3511 88.7598 88.4594L88.3073 89.3783C89.7839 90.2181 91.4407 90.6908 93.1381 90.7566V90.1593C93.1423 90.0863 93.1617 90.0149 93.195 89.9498C93.2284 89.8847 93.2749 89.8272 93.3317 89.7811C93.3885 89.735 93.4542 89.7012 93.5248 89.682C93.5954 89.6627 93.6692 89.6584 93.7415 89.6693C94.5978 89.8231 95.4775 89.7868 96.3182 89.5627C97.1588 89.3387 97.9399 88.9325 98.6061 88.3729C98.7107 88.288 98.844 88.2466 98.9782 88.2573C99.1125 88.268 99.2376 88.33 99.3274 88.4303C99.4927 88.6238 99.6719 88.8049 99.8634 88.9725C101.074 88.0308 102.069 86.8414 102.782 85.4839C102.331 85.1178 101.961 84.7664 101.39 84.2204C101.293 84.1291 101.235 84.0036 101.229 83.8704C101.223 83.7373 101.268 83.6069 101.357 83.5068C102.251 82.3875 102.788 81.0254 102.899 79.597C102.905 79.5287 102.924 79.4622 102.956 79.4015C102.988 79.3409 103.032 79.2874 103.086 79.2444C103.139 79.2014 103.201 79.1698 103.267 79.1514C103.333 79.133 103.402 79.1283 103.47 79.1376C103.765 79.1709 104.064 79.1709 104.359 79.1376C104.079 77.453 104.019 76.0947 103.218 74.505L102.061 74.8152C101.956 74.8377 101.846 74.8246 101.749 74.7779C101.652 74.7311 101.573 74.6535 101.525 74.5571C101.158 73.8028 100.631 73.1369 99.9821 72.6053C99.8942 72.5266 99.8399 72.4172 99.8305 72.2996C99.8211 72.182 99.8573 72.0652 99.9316 71.9736L100.631 71.0831Z" fill="#191919"/>
<path d="M99.1714 29.5767C98.5863 29.0843 98.1554 28.4338 97.9302 27.703C97.8029 27.1831 97.8747 26.6343 98.1315 26.1647C99.0749 23.9119 103.088 24.8721 102.711 27.5567C102.648 28.0262 102.45 28.4673 102.141 28.8263C102.084 28.8927 102.052 28.9773 102.052 29.0648C102.052 29.1523 102.084 29.237 102.141 29.3033C102.206 29.3667 102.293 29.4022 102.384 29.4022C102.475 29.4022 102.562 29.3667 102.627 29.3033C103.107 28.8999 103.447 28.3554 103.599 27.7474C104.544 24.1118 98.7678 22.2251 97.192 25.7519C96.8475 26.4464 96.7699 27.243 96.9738 27.9909C97.3099 28.9068 97.9816 29.6606 98.8528 30.0997C98.8872 30.1219 98.9257 30.137 98.9659 30.1441C99.0062 30.1512 99.0475 30.1501 99.0874 30.141C99.1273 30.1319 99.1649 30.1148 99.1981 30.0909C99.2313 30.067 99.2594 30.0367 99.2807 30.0018C99.3019 29.9668 99.316 29.928 99.322 29.8875C99.3281 29.847 99.3259 29.8058 99.3157 29.7662C99.3055 29.7265 99.2875 29.6894 99.2627 29.6568C99.2379 29.6243 99.2069 29.597 99.1714 29.5767Z" fill="#191919"/>
<path d="M100.044 16.931C100.079 16.8544 100.031 16.98 100.362 15.8957C100.394 15.7945 100.456 15.7056 100.54 15.6408C100.624 15.5761 100.726 15.5386 100.832 15.5335C102.906 15.5176 104.921 16.2197 106.535 17.5206C106.642 17.6012 106.712 17.7205 106.73 17.8525C106.749 17.9846 106.715 18.1187 106.636 18.2258C106.482 18.4432 106.417 18.5872 106.217 18.9279C106.904 19.4434 107.514 20.0548 108.028 20.7434L109.152 20.2465C109.261 20.1957 109.385 20.1851 109.502 20.2164C109.618 20.2478 109.72 20.3191 109.79 20.418C110.983 22.2084 111.635 24.3049 111.668 26.4564C111.668 26.575 111.626 26.6898 111.549 26.7802C111.473 26.8706 111.366 26.9306 111.249 26.9496L110.545 27.1027C110.669 27.9091 110.635 28.7322 110.443 29.5254L111.133 29.8861C111.232 29.9394 111.308 30.0265 111.348 30.1315C111.388 30.2365 111.389 30.3524 111.351 30.4581C110.767 32.3463 109.648 34.0249 108.13 35.2905C108.059 35.3454 107.971 35.3727 107.882 35.3672C107.792 35.3617 107.708 35.3238 107.644 35.2606C107.561 35.1841 107.116 34.7514 107.04 34.6718C106.957 34.7593 106.867 34.8402 106.772 34.9138C106.739 34.9423 106.7 34.9639 106.658 34.9773C106.616 34.9908 106.572 34.9958 106.528 34.9921C106.485 34.9884 106.442 34.976 106.403 34.9558C106.364 34.9355 106.33 34.9077 106.302 34.8739C106.246 34.8054 106.218 34.7181 106.224 34.6299C106.231 34.5416 106.27 34.4591 106.335 34.3992C106.765 33.9949 106.681 33.8632 106.923 33.8142C106.973 33.8058 107.024 33.8083 107.073 33.8215C107.123 33.8347 107.168 33.8583 107.208 33.8908C107.465 34.0929 107.835 34.4191 107.912 34.4926C109.028 33.3944 109.857 32.0393 110.328 30.5461L109.673 30.2238C109.571 30.1778 109.489 30.0977 109.44 29.9973C109.391 29.8969 109.379 29.7825 109.405 29.674C109.52 29.2022 109.587 28.7203 109.607 28.2352C109.65 27.0101 109.331 26.8002 109.539 26.4496C109.719 26.2068 109.821 26.2336 110.646 26.0506C110.54 24.3949 110.039 22.7886 109.187 21.3652L108.03 21.8721C107.916 21.9185 107.79 21.923 107.673 21.8849C107.556 21.8467 107.457 21.7684 107.392 21.6638C106.845 20.8085 106.118 20.0825 105.262 19.5359C105.161 19.4651 105.087 19.3615 105.053 19.2426C105.02 19.1237 105.028 18.9969 105.077 18.8835C105.192 18.6308 105.359 18.3414 105.514 18.0673C104.268 17.1664 102.788 16.6466 101.253 16.5711C101.13 16.9692 101.001 17.4134 100.884 17.6783C100.843 17.7801 100.77 17.866 100.676 17.9234C100.583 17.9808 100.473 18.0068 100.364 17.9976C99.3669 17.8757 98.3558 17.9633 97.3949 18.2549C97.2742 18.2991 97.1411 18.2957 97.0228 18.2453C96.9045 18.195 96.8097 18.1015 96.7579 17.9838L96.3551 17.1101C94.7505 17.5389 93.2905 18.3907 92.1276 19.5765C92.3453 19.909 92.5807 20.2295 92.8328 20.5367C92.9088 20.6275 92.9505 20.7422 92.9505 20.8606C92.9505 20.979 92.9088 21.0937 92.8328 21.1845C92.1785 21.9241 91.6819 22.7894 91.3734 23.7274C91.343 23.8395 91.2742 23.9373 91.179 24.0036C91.0838 24.07 90.9683 24.1007 90.8527 24.0904C90.6352 24.0651 90.2998 24.033 90.1153 24.0138C89.6409 25.4105 89.4137 26.8792 89.4438 28.3539L90.4675 28.4542C90.5504 28.4593 90.6281 28.4963 90.6843 28.5574C90.7405 28.6184 90.7709 28.6989 90.7692 28.7819C90.7864 29.103 90.8427 29.4209 90.9369 29.7283C90.9591 29.8085 90.9486 29.8941 90.9077 29.9665C90.8668 30.0389 90.7988 30.092 90.7187 30.1143C90.6386 30.1365 90.5529 30.126 90.4805 30.0851C90.4081 30.0441 90.355 29.9761 90.3327 29.896C90.2018 29.4894 90.1582 29.1877 90.1321 29.1073L89.0418 29.053C88.9532 29.0412 88.8715 28.9993 88.8102 28.9343C88.749 28.8693 88.712 28.7852 88.7056 28.6962C88.5555 26.8913 88.7783 25.0749 89.3603 23.3599C89.5065 22.9832 89.9652 23.0299 90.5341 23.0827C90.8419 22.2842 91.2721 21.5384 91.809 20.8721C91.7524 20.7902 91.1145 19.8935 91.054 19.8131C90.9829 19.7131 90.949 19.5914 90.9582 19.469C90.9674 19.3466 91.0192 19.2313 91.1046 19.1431C92.5579 17.5485 94.4773 16.4531 96.5894 16.0129C96.7011 15.9966 96.8151 16.0165 96.9148 16.0697C97.0144 16.1229 97.0943 16.2065 97.143 16.3084L97.5121 17.1377C98.34 16.9376 99.1941 16.8679 100.044 16.931Z" fill="#191919"/>
<path d="M98.2151 37.2515C97.9134 37.2163 97.2472 36.9513 97.2763 36.6596C97.3284 36.129 98.6737 36.2576 98.7518 36.2607C98.8838 36.2683 99.0078 36.3262 99.0984 36.4225C99.189 36.5188 99.2393 36.6461 99.2388 36.7783V37.2477C99.5344 37.3319 100.015 37.5218 99.9601 37.825C99.9219 38.2385 99.0949 38.2079 98.7021 38.2079C98.5686 38.1956 98.4445 38.1338 98.3544 38.0346C98.2642 37.9353 98.2145 37.8059 98.2151 37.6719V37.2515Z" fill="#191919"/>
<path d="M67.6531 59.203C67.6983 59.0032 68.0957 57.9281 68.1393 57.8332C68.364 57.3313 68.6972 56.8855 69.115 56.528C69.5327 56.1705 70.0246 55.9101 70.5552 55.7657C70.8207 55.6577 71.0958 55.5749 71.3768 55.5184C71.4661 55.5184 71.5518 55.4829 71.615 55.4197C71.6782 55.3565 71.7137 55.2708 71.7137 55.1815C71.7137 55.0921 71.6782 55.0064 71.615 54.9433C71.5518 54.8801 71.4661 54.8446 71.3768 54.8446C71.028 54.7813 70.6716 54.7723 70.3201 54.8178C68.2741 55.1241 66.5635 57.4886 67.0497 59.2068C67.05 59.2465 67.058 59.2857 67.0734 59.3222C67.0888 59.3587 67.1113 59.3918 67.1395 59.4196C67.1676 59.4474 67.201 59.4695 67.2377 59.4844C67.2744 59.4993 67.3137 59.5069 67.3533 59.5066C67.393 59.5064 67.4321 59.4983 67.4687 59.4829C67.5052 59.4675 67.5383 59.4451 67.5661 59.4169C67.594 59.3887 67.616 59.3553 67.6309 59.3186C67.6458 59.2819 67.6534 59.2426 67.6531 59.203Z" fill="#38A1FF"/>
<path d="M62.1932 62.455C61.6948 60.6665 61.6516 58.7818 62.0676 56.9725C62.6807 54.5391 64.2094 52.4363 66.335 51.1024C68.4605 49.7686 71.0189 49.3067 73.4767 49.813C74.1829 49.9313 74.8726 50.1331 75.5312 50.4141C75.6136 50.4509 75.707 50.455 75.7924 50.4254C75.8777 50.3958 75.9486 50.3348 75.9906 50.2548C76.0275 50.1729 76.0305 50.0796 75.9989 49.9954C75.9674 49.9112 75.9038 49.8429 75.8221 49.8054C68.4498 46.0656 60.6732 52.0099 60.8516 59.203C60.8763 60.3937 61.1327 61.5683 61.6066 62.661C61.7031 63.0316 62.3004 62.8623 62.1932 62.455Z" fill="#38A1FF"/>
<path d="M80.7709 56.6018C81.1538 59.1984 81.0497 58.7933 81.1063 59.2053C81.1063 59.2942 81.1417 59.3795 81.2046 59.4424C81.2674 59.5053 81.3528 59.5407 81.4417 59.5407C81.5306 59.5407 81.616 59.5053 81.6789 59.4424C81.7417 59.3795 81.7771 59.2942 81.7771 59.2053C81.9224 58.2621 81.7759 57.2971 81.3575 56.4395C81.0887 56.0268 80.7196 56.2481 80.7709 56.6018Z" fill="#38A1FF"/>
<path d="M71.377 68.9589C71.2545 68.9337 70.6763 68.7774 70.4581 68.7392C69.027 68.5566 67.6453 68.0962 66.3906 67.3838C66.0989 67.2391 65.8455 67.135 65.5522 66.9857C65.4806 66.9386 65.3939 66.9201 65.3093 66.9339C65.2247 66.9478 65.1484 66.9929 65.0956 67.0604C65.0427 67.1279 65.0172 67.2128 65.024 67.2983C65.0309 67.3837 65.0696 67.4635 65.1326 67.5217C65.9063 68.3687 66.9129 68.9683 68.0262 69.2453C68.785 69.5027 69.5748 69.6572 70.3747 69.7047C70.7137 69.6982 71.051 69.6553 71.3808 69.5769C71.4628 69.5763 71.5411 69.5433 71.5987 69.485C71.6563 69.4267 71.6884 69.3479 71.6879 69.266C71.6874 69.184 71.6543 69.1056 71.596 69.0481C71.5377 68.9905 71.4589 68.9584 71.377 68.9589Z" fill="#38A1FF"/>
<path d="M72.7018 38.2384C72.7242 37.733 72.7802 37.2295 72.8695 36.7315C72.8838 36.6382 72.9296 36.5525 72.9992 36.4887C73.0688 36.425 73.1582 36.3869 73.2524 36.3808C75.648 36.3117 78.0247 36.8232 80.1798 37.8717C80.261 37.9117 80.3231 37.9823 80.3522 38.068C80.3814 38.1538 80.3753 38.2476 80.3353 38.3288C80.2952 38.41 80.2246 38.472 80.1389 38.5012C80.0532 38.5303 79.9594 38.5242 79.8781 38.4842C77.9249 37.6004 75.7978 37.1672 73.6544 37.217C73.6008 37.6366 73.5717 38.5187 73.5541 38.7484C73.547 38.8659 73.4936 38.9758 73.4056 39.054C73.3176 39.1323 73.2022 39.1724 73.0847 39.1657C70.6331 39.1642 68.1861 39.3763 65.7714 39.7997C65.6625 39.8131 65.5522 39.7898 65.458 39.7335C65.3639 39.6772 65.2912 39.5911 65.2514 39.4889C65.1183 39.1353 65.0061 38.7743 64.9153 38.4077C61.9706 39.3457 59.2991 40.9879 57.1326 43.1918C59.053 45.7646 58.4343 43.5525 54.9181 49.6828C54.8552 49.7936 54.7544 49.8779 54.6342 49.9201C54.514 49.9623 54.3826 49.9596 54.2642 49.9125L53.5751 49.6491C52.0417 51.7907 51.0679 54.2814 50.7419 56.8951C51.3614 57.2412 52.2182 57.3445 52.0835 57.9671C51.3186 61.1079 51.5712 64.4104 52.8048 67.3984C52.8347 67.4686 52.8487 67.5447 52.8457 67.621C52.8427 67.6973 52.8229 67.772 52.7876 67.8397C52.7523 67.9075 52.7024 67.9665 52.6416 68.0127C52.5807 68.0588 52.5104 68.0909 52.4357 68.1067L51.6975 68.2805C52.6791 70.8255 54.1635 73.1467 56.0621 75.1053C58.249 73.6634 56.5277 74.3082 60.9627 76.8664C62.1383 77.5525 63.3733 78.1314 64.6527 78.5962C64.7481 78.626 64.8287 78.6908 64.8784 78.7776C64.9281 78.8643 64.9432 78.9666 64.9207 79.064L64.6527 80.7272C66.0111 81.0044 67.3827 81.2127 68.7622 81.3512C68.8431 81.3636 68.916 81.4066 68.9659 81.4713C69.0158 81.5361 69.0389 81.6176 69.0302 81.6989C69.025 81.7395 69.0117 81.7788 68.991 81.8142C68.9703 81.8496 68.9427 81.8805 68.9099 81.9051C68.877 81.9297 68.8396 81.9474 68.7998 81.9572C68.7599 81.967 68.7185 81.9687 68.678 81.9623C67.1461 81.8672 65.6221 81.6712 64.1159 81.3757C64.0246 81.3478 63.9467 81.2873 63.8972 81.2056C63.8476 81.124 63.8298 81.027 63.8471 80.9331L64.0654 79.2677C61.5961 78.4373 59.3036 77.1531 57.3056 75.4813L56.2658 76.1704C56.171 76.2323 56.058 76.2604 55.9453 76.2499C55.8325 76.2395 55.7266 76.1912 55.6448 76.113C53.3511 73.8634 51.6014 71.1198 50.5291 68.0913C50.5052 68.0238 50.4959 67.952 50.5017 67.8806C50.5075 67.8092 50.5283 67.7399 50.5628 67.6771C50.7013 67.4114 50.8752 67.4198 51.6347 67.2414C50.5687 64.331 50.3476 61.1785 50.9969 58.1478C50.6274 58.0015 50.2691 57.8282 49.9249 57.6294C49.8414 57.5776 49.7737 57.5039 49.7293 57.4162C49.6849 57.3286 49.6654 57.2304 49.673 57.1324C49.976 54.0707 51.1263 51.154 52.9947 48.7096C53.0585 48.6232 53.1483 48.5595 53.2509 48.5277C53.3535 48.4959 53.4636 48.4976 53.5651 48.5327L54.2359 48.7862C55.0533 47.3676 55.9904 46.0214 57.0369 44.7623C56.6992 44.3298 56.3694 43.8912 56.0476 43.4468C55.9815 43.3496 55.9506 43.2328 55.9597 43.1156C55.9689 42.9984 56.0177 42.8879 56.0981 42.8021C58.5544 40.1849 61.6723 38.2801 65.122 37.289C65.2484 37.2541 65.3834 37.2691 65.499 37.3309C65.6146 37.3928 65.702 37.4968 65.743 37.6213C65.8548 37.9911 65.923 38.3357 66.0616 38.7492C68.2559 38.3858 70.4778 38.2149 72.7018 38.2384Z" fill="#38A1FF"/>
<path d="M133.558 59.1026C133.594 58.8589 133.579 58.6103 133.513 58.3729C133.447 58.1355 133.332 57.9145 133.175 57.7244C134.41 55.7611 133.342 52.6561 130.944 52.6102C130.61 50.1484 127.46 49.5726 125.945 51.4195C125.498 51.2992 125.027 51.3046 124.583 51.4349C124.14 51.5653 123.74 51.8156 123.43 52.1584C120.321 50.9026 116.72 54.2258 117.878 57.4257C115.844 58.5835 115.726 62.046 117.911 62.994C117.513 65.1801 119.858 67.7315 121.937 66.7108C122.084 66.8916 122.268 67.0388 122.477 67.1422C122.686 67.2456 122.914 67.3029 123.147 67.3101C123.38 67.3174 123.612 67.2745 123.827 67.1843C124.042 67.0941 124.235 66.9587 124.393 66.7874L124.218 69.2537C124.21 69.2973 124.212 69.3419 124.223 69.3848C124.233 69.4277 124.252 69.468 124.279 69.5032C124.306 69.5384 124.34 69.5677 124.378 69.5893C124.417 69.6109 124.459 69.6244 124.503 69.6289C124.547 69.6344 124.591 69.6312 124.634 69.6192C124.676 69.6073 124.716 69.587 124.75 69.5595C124.785 69.532 124.813 69.4979 124.834 69.4592C124.855 69.4205 124.868 69.378 124.872 69.3341C125.012 68.5194 125.199 67.4198 125.308 66.393C125.315 66.2949 125.288 66.1974 125.234 66.1156C125.179 66.0338 125.099 65.9722 125.006 65.9405C123.934 65.5346 123.731 64.295 123.934 63.1609C123.945 63.0922 123.942 63.0219 123.925 62.9545C123.907 62.887 123.877 62.8238 123.834 62.7686C123.792 62.7134 123.739 62.6673 123.678 62.6333C123.617 62.5993 123.55 62.5779 123.481 62.5706C123.213 62.5438 122.961 62.517 122.693 62.4993C123.173 61.2175 123.858 60.0224 124.722 58.961C125.44 58.098 126.5 57.6072 127.238 58.4587C127.481 58.7694 127.656 59.1276 127.751 59.5101C127.847 59.8927 127.861 60.291 127.792 60.6792C127.787 60.7535 127.798 60.828 127.824 60.8977C127.85 60.9675 127.89 61.0309 127.942 61.0837C127.995 61.1366 128.058 61.1776 128.127 61.2041C128.197 61.2306 128.271 61.242 128.346 61.2375C128.734 61.2061 129.487 61.5032 129.117 61.8577C128.847 62.1202 128.488 62.2718 128.111 62.2827C128.002 62.2947 127.9 62.3403 127.819 62.4132C127.738 62.4862 127.682 62.5827 127.658 62.6892C127.462 63.7391 127.051 64.737 126.451 65.6204C126.21 65.9075 126.297 67.1886 126.349 69.4704C126.349 69.5519 126.38 69.6304 126.436 69.689C126.493 69.7476 126.57 69.7816 126.652 69.7836C126.735 69.7848 126.815 69.7533 126.874 69.696C126.934 69.6386 126.968 69.56 126.97 69.4773C127.002 68.8984 127.047 68.063 127.097 67.3479C129.144 68.8395 131.601 67.6381 131.768 65.8493C132.178 65.7008 132.528 65.4201 132.762 65.0513C132.995 64.6825 133.1 64.2465 133.059 63.8118C134.709 62.85 135.119 60.3033 133.558 59.1026ZM122.302 53.5818C123.052 53.1714 123.943 53.7013 123.862 54.0505C123.767 54.4609 122.79 54.31 122.385 54.1944C122.223 54.1477 122.058 54.0964 122.033 53.9264C122.008 53.7564 122.154 53.6661 122.303 53.5811L122.302 53.5818ZM120.842 54.9104C120.596 55.1268 120.392 55.3863 120.238 55.6761C119.979 56.1041 119.817 56.5843 119.765 57.0822C119.712 57.5801 119.771 58.0834 119.937 58.5559C119.967 58.6519 119.969 58.7548 119.942 58.8518C119.914 58.9488 119.859 59.0358 119.783 59.1019C119.639 59.2517 119.535 59.4363 119.482 59.6379C119.388 60.0445 119.337 60.4597 119.329 60.8768C119.34 60.9576 119.321 61.0398 119.273 61.1062C119.226 61.1727 119.155 61.2183 119.074 61.2334C118.994 61.2485 118.911 61.2321 118.843 61.1874C118.774 61.1428 118.726 61.0735 118.708 60.994C118.482 60.5028 118.411 59.9542 118.506 59.4219C118.553 59.1183 118.674 58.8309 118.858 58.585C118.454 57.0253 118.858 54.9754 120.502 54.3238C120.582 54.2797 120.675 54.2681 120.763 54.2916C120.85 54.315 120.925 54.3716 120.972 54.4494C121.015 54.5277 121.025 54.6197 121.001 54.7057C120.977 54.7916 120.92 54.8648 120.843 54.9096L120.842 54.9104Z" fill="#191919"/>
</svg>
