<svg width="154" height="154" viewBox="0 0 154 154" fill="none" xmlns="http://www.w3.org/2000/svg">
<path fill-rule="evenodd" clip-rule="evenodd" d="M62.4577 116.085C62.5795 115.976 62.6784 115.843 62.7488 115.695C62.8192 115.547 62.8596 115.387 62.8679 115.223C62.8762 115.059 62.8521 114.896 62.7968 114.742C62.7417 114.587 62.6566 114.445 62.5465 114.324C59.3674 110.833 56.3918 107.177 53.2402 103.662C53.0215 103.418 52.7273 103.255 52.4048 103.2C52.0823 103.144 51.7505 103.199 51.463 103.356C37.0679 111.197 22.7738 119.34 7.89467 126.317C7.71949 126.399 7.56567 126.521 7.44515 126.673C7.32464 126.824 7.24068 127.002 7.19979 127.191C7.15891 127.38 7.1622 127.576 7.20941 127.764C7.25662 127.952 7.34648 128.126 7.47201 128.274L22.7462 146.132C22.9619 146.384 23.2551 146.559 23.5801 146.627C23.905 146.695 24.2435 146.654 24.5426 146.51C29.6727 144.047 34.1092 140.098 38.453 136.628C46.7302 130.009 54.6024 123.137 62.4577 116.085Z" fill="#191919"/>
<path fill-rule="evenodd" clip-rule="evenodd" d="M64.4621 87.1673C64.3688 87.0394 64.2286 86.9537 64.0721 86.9284C63.9158 86.9039 63.7558 86.9422 63.6275 87.0348C62.9082 87.7063 62.149 88.3342 61.3541 88.9146C60.9575 87.8426 59.3717 86.005 57.7745 85.9782C56.5823 85.9567 55.3242 86.8488 54.4261 89.1076C53.789 90.5578 53.4705 92.1283 53.4919 93.7125C53.4552 94.3151 53.2147 99.6199 53.2056 100.221C53.1964 100.757 53.2346 101.293 53.214 101.818C53.2039 101.979 53.2579 102.137 53.3644 102.258C53.4709 102.379 53.621 102.452 53.7817 102.462C53.9425 102.473 54.1007 102.419 54.2215 102.312C54.3423 102.206 54.416 102.056 54.4261 101.895C54.469 101.387 54.5386 100.876 54.5593 100.357C54.6275 98.4759 54.3901 97.358 54.6405 94.3128C54.7025 93.4927 54.8394 92.6811 55.0494 91.8863C55.1794 91.0892 55.3584 90.3013 55.5853 89.5272C56.1451 87.8281 56.8947 86.9766 57.773 86.9583C58.9613 86.9345 59.7906 88.374 60.3572 89.6382C59.6135 90.1459 58.9033 90.701 58.2308 91.2998C58.1105 91.4016 58.0344 91.5463 58.0186 91.7025C58.0028 91.8595 58.0485 92.0165 58.1461 92.1405C58.2439 92.2638 58.3857 92.345 58.5419 92.3664C58.6981 92.3871 58.8565 92.3473 58.9835 92.2538C60.0019 91.6505 63.0517 88.9567 64.3273 87.9973C64.4542 87.9039 64.5394 87.7653 64.5646 87.6099C64.5898 87.4544 64.5531 87.2952 64.4621 87.1673Z" fill="#191919"/>
<path fill-rule="evenodd" clip-rule="evenodd" d="M62.0979 87.3572C62.911 86.5616 63.8404 85.8947 64.8544 85.3786C65.1785 85.2346 65.5146 85.1198 65.859 85.0356C67.1484 84.6948 67.8444 85.7775 68.0872 87.0884C68.3196 88.5662 68.2562 90.0762 67.9003 91.5295C67.8924 91.6076 67.8999 91.6864 67.9226 91.7622C67.9453 91.8373 67.9826 91.9077 68.0323 91.9682C68.0821 92.0295 68.1434 92.08 68.2127 92.1168C68.282 92.1543 68.3581 92.1772 68.4363 92.1849C68.5142 92.1933 68.5931 92.1872 68.6683 92.165C68.7435 92.1428 68.8137 92.106 68.8745 92.057C68.9355 92.008 68.9859 91.9468 69.0232 91.8779C69.0603 91.8089 69.0833 91.7331 69.091 91.655C69.3261 88.6826 69.2962 87.204 69.0742 86.1114C68.2388 82.0034 63.4746 84.3663 62.1147 85.5486C61.7878 85.8518 61.4859 86.181 61.2119 86.5333C61.1086 86.652 61.0554 86.8066 61.0639 86.9644C61.0722 87.1213 61.1414 87.2699 61.2568 87.3771C61.3723 87.4843 61.5249 87.5425 61.6825 87.5394C61.8401 87.5371 61.9904 87.4728 62.1017 87.361L62.0979 87.3572Z" fill="#191919"/>
<path fill-rule="evenodd" clip-rule="evenodd" d="M69.453 97.3701C69.4207 97.4413 69.4028 97.5179 69.4002 97.596C69.3977 97.6749 69.4106 97.7522 69.4382 97.8257C69.4658 97.8992 69.5075 97.9658 69.561 98.0233C69.6145 98.0799 69.6788 98.1266 69.7501 98.1588C69.8213 98.1909 69.8983 98.2086 69.9766 98.2116C70.0547 98.2139 70.1327 98.2009 70.206 98.1733C70.2792 98.1458 70.3462 98.1044 70.4034 98.0508C70.4605 97.9972 70.5065 97.9329 70.5387 97.8617C72.0257 94.6756 72.8818 90.5355 70.9308 87.7805C70.8916 87.7108 70.8391 87.6496 70.7763 87.6006C70.7135 87.5515 70.6415 87.5148 70.5646 87.4934C70.4877 87.4719 70.4073 87.4666 70.3282 87.4757C70.249 87.4857 70.1725 87.511 70.103 87.5508C68.7592 88.3142 72.6597 90.2437 69.453 97.3701Z" fill="#191919"/>
<path fill-rule="evenodd" clip-rule="evenodd" d="M73.0612 92.9192C73.0275 94.7822 72.9601 98.3151 71.9203 100.592C71.8852 100.662 71.8647 100.739 71.86 100.819C71.8552 100.898 71.8663 100.977 71.8926 101.052C71.9189 101.127 71.9599 101.195 72.0131 101.254C72.0664 101.312 72.1308 101.36 72.2026 101.393C72.2744 101.427 72.3522 101.445 72.4314 101.448C72.5105 101.451 72.5894 101.438 72.6636 101.41C72.7376 101.382 72.8054 101.34 72.8627 101.284C72.9201 101.23 72.9659 101.164 72.9976 101.092C74.1393 97.9575 74.8682 96.0762 74.2672 92.7936C74.2608 92.7125 74.2383 92.6344 74.2011 92.5624C74.1639 92.4904 74.1127 92.4269 74.0505 92.3748C73.9884 92.3235 73.9164 92.2844 73.839 92.2607C73.7616 92.2377 73.6803 92.2301 73.5999 92.2377C73.5194 92.2462 73.4414 92.2707 73.3705 92.3097C73.2996 92.3488 73.2372 92.4016 73.187 92.4651C73.1368 92.5287 73.0998 92.6014 73.0783 92.6795C73.0566 92.7569 73.0509 92.8388 73.0612 92.9192Z" fill="#191919"/>
<path fill-rule="evenodd" clip-rule="evenodd" d="M75.8354 97.6987C75.6562 98.1918 75.4372 98.6665 75.2611 99.1581C74.8561 100.289 74.5406 101.442 74.036 102.527C73.3651 103.947 72.4411 105.233 71.3094 106.322C69.5809 108.263 67.5589 109.922 65.317 111.237C64.575 111.696 63.7856 112.093 63.0245 112.56C62.8913 112.646 62.7977 112.781 62.7641 112.935C62.7305 113.09 62.7597 113.252 62.8453 113.385C62.9309 113.518 63.0659 113.611 63.2205 113.645C63.3752 113.679 63.5368 113.65 63.67 113.564C64.4464 113.041 65.186 112.484 65.9502 111.981C67.8225 110.839 69.6208 109.581 71.3346 108.213C72.2171 107.506 72.9629 106.644 73.5352 105.669C74.1325 104.84 74.6501 103.957 75.0812 103.03C75.9176 101.47 76.5572 99.8112 76.9855 98.0938C77.0118 98.0187 77.0231 97.9391 77.0185 97.8595C77.014 97.7798 76.9938 97.7017 76.9591 97.6298C76.9243 97.5586 76.8758 97.4942 76.8162 97.4414C76.7566 97.3886 76.6872 97.348 76.6118 97.322C76.4589 97.2699 76.2915 97.2798 76.146 97.3503C76.0006 97.4207 75.8889 97.5463 75.8354 97.6987Z" fill="#191919"/>
<path fill-rule="evenodd" clip-rule="evenodd" d="M82.734 62.883C80.9385 61.6793 77.4607 61.9848 73.6368 60.3623C68.7409 58.2896 66.6245 54.7283 64.5173 49.8278C64.185 49.0575 63.8281 48.2497 63.4943 47.3776C63.4405 47.2253 63.3285 47.1006 63.1829 47.0308C63.0372 46.9611 62.8698 46.9522 62.7175 47.0058C62.5651 47.0596 62.4404 47.1715 62.3707 47.3173C62.3009 47.463 62.292 47.6303 62.3457 47.7826C62.6405 48.6961 62.9284 49.5621 63.2646 50.36C64.6712 53.7851 66.8148 56.8584 69.5433 59.3616C72.6061 61.9764 74.855 62.4389 78.7555 62.919C79.9431 62.96 81.11 63.2365 82.1896 63.7322C83.7172 64.7008 84.3589 65.6587 84.1567 66.5247C83.7968 68.0645 81.3496 68.3333 81.0878 68.4879C80.7478 67.6277 80.3244 66.8029 79.8236 66.0254C79.7539 65.8803 79.6291 65.7687 79.4775 65.7153C79.3251 65.662 79.1582 65.6712 79.0127 65.741C78.868 65.8107 78.7562 65.9353 78.7026 66.0873C78.6498 66.2393 78.659 66.4063 78.7287 66.5515C79.5793 69.1832 80.757 70.6319 81.7149 72.6955C81.7815 72.8351 81.8994 72.9435 82.0449 72.9977C82.1896 73.0519 82.3497 73.0478 82.4921 72.9861C82.6337 72.9245 82.7463 72.8102 82.8052 72.6673C82.865 72.5243 82.8665 72.364 82.8098 72.22C82.2363 71.3765 81.767 70.4672 81.4101 69.5117C85.9546 68.3126 86.3665 65.2146 82.734 62.883Z" fill="#191919"/>
<path fill-rule="evenodd" clip-rule="evenodd" d="M82.8336 70.6556C83.6559 71.9055 84.1529 73.341 84.2792 74.8317C84.3305 76.1656 83.1222 76.6081 81.7891 76.5584C80.2983 76.461 78.8412 76.0708 77.5012 75.4098C77.3511 75.3595 77.1873 75.3708 77.0453 75.4414C76.9034 75.5118 76.7953 75.6357 76.7447 75.7858C76.7192 75.8597 76.7086 75.9381 76.7136 76.0162C76.7186 76.0944 76.7391 76.1708 76.7738 76.241C76.8086 76.3112 76.857 76.3737 76.9161 76.425C76.9753 76.4763 77.044 76.5154 77.1184 76.54C77.4691 76.6479 80.4308 77.4422 81.1536 77.5739C84.4599 78.1796 85.5947 76.906 85.4783 74.7743C85.4553 74.3692 85.0954 72.4642 85.0748 72.3815C84.8887 71.4795 84.4607 70.6452 83.8366 69.968C83.7455 69.835 83.6046 69.7439 83.4461 69.7145C83.2876 69.6851 83.1238 69.72 82.9913 69.8114C82.8581 69.9027 82.7669 70.0432 82.7378 70.2018C82.708 70.3604 82.7432 70.5242 82.8343 70.6571L82.8336 70.6556Z" fill="#191919"/>
<path fill-rule="evenodd" clip-rule="evenodd" d="M79.742 78.462C78.1792 78.6045 76.6048 78.361 75.1579 77.753C73.7109 77.145 72.4354 76.1907 71.4433 74.9744C71.3875 74.9197 71.3214 74.8764 71.2488 74.8472C71.1762 74.8179 71.0986 74.8032 71.0203 74.804C70.9421 74.8047 70.8647 74.8208 70.7928 74.8515C70.7207 74.8822 70.6555 74.9266 70.6007 74.9825C70.5459 75.0384 70.5026 75.1044 70.4734 75.177C70.4441 75.2496 70.4294 75.3273 70.4302 75.4055C70.4309 75.4838 70.4471 75.5611 70.4777 75.6331C70.5083 75.7051 70.5529 75.7704 70.6087 75.8251C73.1661 77.9689 76.5965 80.5677 79.9418 79.6535C80.0207 79.6404 80.0957 79.6121 80.1631 79.57C80.2305 79.5279 80.2894 79.4728 80.3354 79.4077C80.3821 79.3426 80.415 79.2699 80.4326 79.1918C80.451 79.1144 80.4533 79.034 80.4403 78.9552C80.4273 78.877 80.3989 78.8012 80.3568 78.7339C80.3139 78.6665 80.2596 78.6075 80.1945 78.5616C80.1294 78.5149 80.0559 78.4819 79.9786 78.4643C79.9012 78.446 79.8208 78.4437 79.742 78.4567V78.462Z" fill="#191919"/>
<path fill-rule="evenodd" clip-rule="evenodd" d="M74.6019 80.6865C71.876 79.4675 69.9977 79.2761 67.9931 76.6286C67.9416 76.5682 67.8786 76.5188 67.8077 76.4832C67.7368 76.4476 67.6595 76.4265 67.5803 76.4212C67.5012 76.416 67.4218 76.4266 67.3469 76.4526C67.2718 76.4784 67.2028 76.5191 67.1438 76.5722C67.0848 76.6251 67.0371 76.6895 67.0033 76.7613C66.9695 76.833 66.9505 76.9108 66.9472 76.9902C66.9441 77.0694 66.9568 77.1482 66.9846 77.2225C67.0125 77.2967 67.0549 77.3649 67.1095 77.4223C69.5421 79.6964 70.9977 81.1092 74.2443 81.8488C74.3965 81.8909 74.5593 81.8726 74.6979 81.7968C74.8365 81.721 74.9401 81.5939 74.9866 81.443C75.0332 81.2922 75.019 81.1283 74.9472 80.9882C74.8753 80.8473 74.7514 80.7401 74.6019 80.6888V80.6865Z" fill="#191919"/>
<path fill-rule="evenodd" clip-rule="evenodd" d="M69.7417 81.8059C64.4384 78.4598 63.6161 77.6091 62.3036 75.3614C61.2472 73.5025 60.3134 71.5765 59.5081 69.5957C58.4453 67.2565 52.8159 55.9525 50.6351 52.9448C50.5885 52.882 50.5299 52.8289 50.4627 52.7887C50.3956 52.7485 50.3212 52.722 50.2437 52.7105C50.1663 52.6991 50.0874 52.703 50.0115 52.722C49.9355 52.741 49.8642 52.7749 49.8013 52.8215C49.7384 52.8682 49.6854 52.9268 49.6452 52.9939C49.605 53.0611 49.5784 53.1355 49.567 53.2129C49.5555 53.2904 49.5594 53.3693 49.5785 53.4452C49.5975 53.5211 49.6314 53.5926 49.678 53.6554C53.8894 59.222 56.0065 65.5015 58.1237 69.9518C58.7041 71.17 60.8802 75.3354 61.9001 76.9288C62.7683 78.3189 63.9156 79.5134 65.2692 80.4368C66.4943 81.3227 67.7778 82.1252 69.1107 82.8388C69.1786 82.8817 69.2542 82.91 69.3333 82.9238C69.4125 82.9368 69.4934 82.9345 69.5716 82.9169C69.6498 82.8985 69.7236 82.8648 69.7887 82.8181C69.8539 82.7714 69.909 82.7117 69.9512 82.6435C69.9932 82.5754 70.0212 82.4996 70.0337 82.42C70.0462 82.3411 70.0427 82.2599 70.0237 82.1818C70.0047 82.1037 69.9703 82.0302 69.9227 81.9659C69.875 81.9016 69.8151 81.8464 69.7463 81.8059H69.7417Z" fill="#191919"/>
<path fill-rule="evenodd" clip-rule="evenodd" d="M65.114 43.5185C59.8819 25.265 61.1652 26.6769 56.8704 7.5107C56.8338 7.35487 56.7377 7.21954 56.6027 7.13367C56.4676 7.04781 56.3042 7.01824 56.1476 7.05128C56.0697 7.068 55.996 7.09991 55.9305 7.14519C55.865 7.19049 55.8091 7.24826 55.766 7.31519C55.7229 7.38214 55.6934 7.45693 55.6793 7.53529C55.6651 7.61364 55.6666 7.69402 55.6836 7.7718C56.0557 9.56429 56.3819 11.1945 56.679 12.696C51.6254 15.0498 46.1935 16.1608 37.0005 23.4702C36.335 23.9843 35.7327 24.5754 35.2065 25.2313C34.5513 23.4789 34.0266 21.6805 33.6368 19.8507C33.6032 19.6994 33.5121 19.5672 33.3826 19.4819C33.2532 19.3966 33.0957 19.3651 32.9435 19.394C32.7912 19.4228 32.6561 19.5098 32.5669 19.6365C32.4776 19.7633 32.4412 19.9197 32.4653 20.0728C33.767 26.7053 43.4424 46.8141 46.914 53.1349C46.9542 53.2048 47.0078 53.2661 47.0718 53.3152C47.1358 53.3643 47.2088 53.4004 47.2867 53.4212C47.3646 53.442 47.4458 53.4473 47.5258 53.4367C47.6057 53.426 47.6827 53.3998 47.7525 53.3593C52.8474 50.4198 58.326 48.053 64.8276 44.216C64.9463 44.1484 65.0389 44.043 65.0908 43.9166C65.1427 43.7902 65.1509 43.65 65.114 43.5185ZM35.6958 26.5736C39.7708 22.1715 49.179 16.696 54.3275 14.7703C55.1821 14.4487 56.0465 14.1577 56.9057 13.8377C57.0879 14.7611 58.5182 21.8377 59.0167 24.1616C49.2823 28.3385 50.1407 27.4801 45.5051 30.4258C41.3887 33.0292 40.4806 33.8132 39.1927 35.0751C37.9806 32.3538 36.7287 29.3553 35.6958 26.5736ZM39.7226 36.2597C40.1743 35.8699 40.6506 35.51 41.1054 35.131C42.254 34.1846 43.3704 33.2221 44.5924 32.3998C48.2215 30.2034 51.9912 28.2484 55.8773 26.5475C57.1637 26.0115 57.7372 25.8124 59.2625 25.3002C59.5649 26.6884 61.0236 32.9641 61.5366 34.9763C60.6331 35.3416 59.7479 35.742 58.8567 36.1326C51.7173 39.2834 52.5396 39.0154 48.1981 41.8921C46.6669 42.7949 45.2544 43.885 43.9929 45.1372C42.5243 42.2467 41.0817 39.2597 39.7226 36.2597ZM47.6675 51.9979C46.6996 50.2949 45.6568 48.3723 44.5978 46.3225C47.0175 43.964 49.7964 42.0046 52.8306 40.5177C56.4378 38.4243 57.9723 37.2872 61.823 36.0881C62.3743 38.2114 63.0205 40.5973 63.81 43.3876C60.9608 44.9366 52.8727 48.9312 47.6675 51.9979Z" fill="#38A1FF"/>
<path fill-rule="evenodd" clip-rule="evenodd" d="M70.6199 57.4446C72.025 53.3542 67.6674 52.672 63.7447 54.3879C61.8304 55.2643 60.0045 56.3222 58.2922 57.5472C56.0687 59.3419 54.1816 61.517 52.7186 63.9714C50.8258 67.1874 53.2477 70.2609 57.1743 69.2295C57.2496 69.2086 57.3202 69.1731 57.3819 69.125C57.4435 69.0768 57.4952 69.017 57.5337 68.9489C57.5723 68.8809 57.5971 68.8058 57.6067 68.7282C57.6163 68.6505 57.6105 68.5718 57.5896 68.4963C57.5687 68.4209 57.5332 68.3503 57.4851 68.2887C57.437 68.227 57.3772 68.1754 57.3091 68.1368C57.2409 68.0982 57.166 68.0734 57.0883 68.0639C57.0106 68.0542 56.9318 68.06 56.8565 68.0809C53.5257 69.0526 52.1727 66.7593 53.5954 64.5028C54.896 62.5367 56.4945 60.7847 58.3335 59.3099C60.4913 57.5235 61.7286 56.5051 64.208 55.4568C65.6429 54.8504 67.577 54.5709 68.7815 55.0196C69.5051 55.2884 69.8428 55.9209 69.476 57.0625C69.4251 57.2148 69.437 57.3811 69.5088 57.5246C69.5806 57.6683 69.7065 57.7775 69.8588 57.8282C70.0111 57.879 70.1774 57.8671 70.3209 57.7954C70.4645 57.7235 70.5737 57.5977 70.6245 57.4454L70.6199 57.4446Z" fill="#38A1FF"/>
<path fill-rule="evenodd" clip-rule="evenodd" d="M69.696 56.6585C70.046 56.0656 70.1818 55.3706 70.0808 54.6897C69.9797 54.0087 69.6479 53.383 69.1409 52.9173C68.2221 52.1003 66.5206 51.6769 63.9341 52.1072C61.6231 52.5723 59.3712 53.2943 57.2205 54.2596C55.099 55.3079 53.1676 56.7033 51.5061 58.3882C50.0183 59.9196 49.4869 61.938 50.3636 63.2619C51.0144 64.2451 52.4976 64.984 55.2013 64.6708C55.2789 64.6608 55.3538 64.6355 55.4217 64.5965C55.4896 64.5575 55.5491 64.5056 55.5969 64.4435C55.6447 64.3815 55.6798 64.3107 55.7002 64.2352C55.7206 64.1596 55.726 64.0807 55.7159 64.0031C55.7058 63.9255 55.6805 63.8506 55.6416 63.7827C55.6026 63.7149 55.5506 63.6553 55.4886 63.6075C55.4266 63.5598 55.3558 63.5247 55.2802 63.5043C55.2047 63.4838 55.1258 63.4785 55.0482 63.4886C52.9303 63.7856 51.6852 63.4886 51.1607 62.7229C50.4892 61.7428 51.0988 60.2458 52.2504 59.1401C53.8676 57.7329 55.6712 56.5554 57.6103 55.6409C58.0444 55.4188 59.3805 54.6937 60.5198 54.2458C62.6117 53.4234 65.7114 52.6026 67.7236 53.5789C67.9595 53.6773 68.1719 53.8247 68.3466 54.0113C68.5213 54.1979 68.6545 54.4194 68.7373 54.6613C68.82 54.9031 68.8506 55.1598 68.8268 55.4143C68.8031 55.6688 68.7256 55.9155 68.5995 56.1378C68.5301 56.2832 68.5213 56.4503 68.5749 56.6022C68.6287 56.7541 68.7406 56.8785 68.886 56.9479C69.0313 57.0174 69.1984 57.0263 69.3503 56.9725C69.5022 56.9188 69.6265 56.807 69.696 56.6616V56.6585Z" fill="#38A1FF"/>
<path fill-rule="evenodd" clip-rule="evenodd" d="M108.499 75.1094C115.253 73.31 118.192 72.2763 122.89 71.1078C124.269 70.7648 125.667 70.4738 127.058 70.1178C134.911 68.1078 137.917 66.9516 146.089 66.4899C146.167 66.4844 146.244 66.4637 146.313 66.4289C146.384 66.3939 146.446 66.3456 146.497 66.2865C146.548 66.2275 146.588 66.1589 146.613 66.0847C146.638 66.0105 146.648 65.9321 146.642 65.854C146.636 65.7759 146.616 65.6997 146.581 65.6296C146.546 65.5596 146.498 65.4971 146.439 65.4457C146.38 65.3943 146.311 65.355 146.237 65.3302C146.162 65.3053 146.084 65.2953 146.006 65.3008C142.929 65.5397 137.144 66.542 134.176 67.1384C125.217 68.9363 125.486 69.1338 122.583 69.9554C113.142 72.6285 115.549 71.7571 108.168 73.9371C108.017 73.9849 107.891 74.0895 107.816 74.2286C107.742 74.3677 107.724 74.5304 107.767 74.6823C107.81 74.8343 107.91 74.9634 108.047 75.0426C108.184 75.1217 108.346 75.1446 108.499 75.1063V75.1094Z" fill="#191919"/>
<path fill-rule="evenodd" clip-rule="evenodd" d="M101.353 91.7693C103.41 90.3504 105.683 89.2754 108.084 88.5862C113.94 86.8251 118.764 86.8841 124.972 86.1927C127.568 85.904 145.044 84.0051 147.27 83.6934C147.348 83.6819 147.422 83.6551 147.489 83.6146C147.556 83.574 147.615 83.5211 147.661 83.4584C147.708 83.3956 147.741 83.3236 147.76 83.2478C147.78 83.172 147.783 83.0931 147.772 83.0158C147.76 82.9384 147.734 82.8642 147.693 82.7968C147.652 82.7302 147.6 82.6712 147.537 82.6253C147.474 82.5786 147.402 82.5449 147.326 82.5257C147.25 82.5066 147.172 82.5035 147.094 82.515C145.163 82.8213 143.237 83.149 141.295 83.3986C133.959 84.3404 124.35 84.4308 112.337 86.3948C107.666 87.1605 104.063 88.0549 100.604 90.816C100.483 90.917 100.406 91.061 100.39 91.218C100.374 91.3742 100.419 91.5311 100.517 91.6552C100.614 91.7792 100.756 91.8596 100.912 91.8811C101.068 91.9025 101.226 91.8619 101.353 91.7693Z" fill="#191919"/>
<path fill-rule="evenodd" clip-rule="evenodd" d="M94.2236 103.299C93.1753 104.749 92.5766 104.71 91.7343 104.461C90.6087 104.127 90.1508 101.71 90.013 100.543C90.0023 100.465 89.9762 100.391 89.9364 100.323C89.8966 100.256 89.8445 100.197 89.7818 100.15C89.7197 100.102 89.6485 100.068 89.5727 100.048C89.4969 100.029 89.418 100.024 89.3407 100.035C89.2626 100.046 89.1883 100.072 89.121 100.112C89.0536 100.151 88.9938 100.203 88.9471 100.266C88.8997 100.328 88.8652 100.4 88.8461 100.475C88.8262 100.551 88.8216 100.63 88.8323 100.707C89.075 102.246 89.8055 105.148 91.255 105.64C95.7971 107.179 98.0697 97.9638 99.6777 93.5258C99.7343 93.3765 99.7297 93.2104 99.6662 93.0641C99.6019 92.9179 99.4832 92.8022 99.3346 92.7417C97.7129 92.1085 98.4832 97.4049 94.2236 103.299Z" fill="#191919"/>
<path fill-rule="evenodd" clip-rule="evenodd" d="M91.5435 98.8459C90.395 99.1031 86.9493 100.657 85.1583 101.275C85.0841 101.3 85.0152 101.339 84.9562 101.39C84.8965 101.442 84.8482 101.504 84.813 101.574C84.7778 101.644 84.7571 101.72 84.7518 101.798C84.7456 101.877 84.7556 101.955 84.7801 102.03C84.8054 102.104 84.8444 102.173 84.8957 102.232C84.947 102.292 85.009 102.34 85.0795 102.375C85.1499 102.41 85.2257 102.431 85.3038 102.437C85.3819 102.442 85.4608 102.432 85.5351 102.408C87.3727 101.803 90.0228 100.759 91.9708 99.9837C92.1201 99.9255 92.2411 99.8106 92.3069 99.6636C92.3728 99.5174 92.3789 99.3504 92.323 99.2004C92.2954 99.1253 92.2526 99.0572 92.199 98.999C92.1446 98.9408 92.0795 98.8941 92.0068 98.8612C91.934 98.8282 91.8559 98.8099 91.7763 98.8076C91.6974 98.8045 91.6178 98.8175 91.5435 98.8459Z" fill="#191919"/>
<path fill-rule="evenodd" clip-rule="evenodd" d="M87.4838 103.037C86.4753 103.568 85.3834 103.922 84.2556 104.083C82.3735 104.324 81.3314 103.763 82.1231 101.603C82.7862 99.7923 83.3352 98.4553 83.6499 97.4331C83.7096 97.2892 83.7112 97.1276 83.653 96.9829C83.5948 96.8382 83.483 96.7218 83.3398 96.6582C83.1974 96.5954 83.0358 96.5909 82.8896 96.646C82.7433 96.7004 82.6246 96.8106 82.5588 96.9515C82.46 97.1919 81.3857 100.1 81.1698 100.878C80.584 102.991 80.2793 104.873 82.4432 105.22C84.3965 105.569 86.4095 105.168 88.0795 104.096C88.2165 104.016 88.3168 103.885 88.3582 103.731C88.3995 103.577 88.3789 103.413 88.3008 103.275C88.2227 103.136 88.094 103.033 87.9409 102.989C87.7885 102.945 87.6239 102.961 87.4838 103.037Z" fill="#191919"/>
<path fill-rule="evenodd" clip-rule="evenodd" d="M80.6584 98.2594C80.6155 94.9079 82.539 92.0159 84.6156 90.1751C84.6738 90.1231 84.7205 90.0595 84.7542 89.9883C84.7871 89.9179 84.8062 89.8413 84.8101 89.7632C84.8139 89.6851 84.8024 89.607 84.7756 89.5327C84.7496 89.4592 84.709 89.3918 84.6561 89.3336C84.6033 89.2762 84.5398 89.2287 84.4693 89.1958C84.3989 89.1621 84.3215 89.143 84.2434 89.1391C84.1653 89.1353 84.0872 89.1468 84.0137 89.1736C83.9402 89.1996 83.8728 89.241 83.8146 89.2931C81.0849 91.7065 78.7296 94.9592 79.4502 98.3903C79.4563 98.4715 79.4792 98.5504 79.516 98.6231C79.5535 98.6951 79.6048 98.7586 79.6676 98.8107C79.7304 98.8628 79.8024 98.9018 79.8805 98.9248C79.9586 98.9485 80.0405 98.9562 80.1209 98.947C80.2021 98.9386 80.2802 98.9133 80.3514 98.8743C80.4218 98.8344 80.4846 98.7808 80.5344 98.7165C80.5842 98.653 80.6209 98.5795 80.6423 98.5006C80.663 98.4217 80.6684 98.3398 80.6569 98.2594H80.6584Z" fill="#191919"/>
<path fill-rule="evenodd" clip-rule="evenodd" d="M78.7687 93.3955C79.4456 90.8312 80.9319 88.5532 83.0069 86.9001C83.0666 86.8496 83.1149 86.7883 83.1508 86.7186C83.1861 86.6489 83.2075 86.5731 83.2144 86.4958C83.2205 86.4177 83.2113 86.3396 83.1876 86.2653C83.1631 86.1911 83.1248 86.1221 83.0743 86.0624C83.0237 86.0035 82.9617 85.9545 82.8928 85.9185C82.8231 85.8832 82.7473 85.8618 82.6692 85.8557C82.5919 85.8496 82.513 85.858 82.4395 85.8825C82.3652 85.9062 82.2963 85.9445 82.2366 85.995C79.8269 88.4361 78.3798 90.0441 77.6194 93.0066C77.5919 93.0824 77.5804 93.1635 77.5842 93.2439C77.588 93.3243 77.6087 93.4032 77.6432 93.4759C77.6784 93.5487 77.7274 93.6138 77.7879 93.6666C77.8484 93.7202 77.9188 93.7615 77.9954 93.7868C78.072 93.8128 78.1524 93.8236 78.2328 93.8174C78.3132 93.8121 78.392 93.7899 78.464 93.7539C78.536 93.7171 78.5995 93.6666 78.6524 93.6053C78.7044 93.5441 78.7442 93.4729 78.7687 93.3955Z" fill="#191919"/>
<path fill-rule="evenodd" clip-rule="evenodd" d="M77.414 89.3704C80.8681 85.0327 83.3466 81.9814 88.5649 80.2203C91.2739 79.4324 94.0289 78.8107 96.8138 78.3581C96.8903 78.3413 96.9631 78.3099 97.0274 78.2655C97.0917 78.2211 97.1468 78.1644 97.189 78.0985C97.2318 78.0327 97.2602 77.9592 97.2747 77.8819C97.2885 77.8053 97.2877 77.7264 97.2709 77.6498C97.254 77.5733 97.2226 77.5005 97.1782 77.4362C97.1338 77.3719 97.0772 77.3168 97.0113 77.2739C96.9455 77.2318 96.872 77.2027 96.7954 77.1889C96.7181 77.1744 96.6392 77.1759 96.5626 77.1927C91.8872 78.1031 87.1085 78.9347 83.2134 81.5993C81.1361 83.0863 79.2815 84.862 77.7065 86.8742C77.2693 87.4439 76.8841 88.0519 76.4538 88.6353C76.3558 88.7625 76.3125 88.9233 76.3332 89.0825C76.354 89.2418 76.4371 89.3865 76.5644 89.4845C76.6918 89.5825 76.8528 89.6262 77.0121 89.6055C77.1713 89.5848 77.316 89.5014 77.414 89.3742V89.3704Z" fill="#191919"/>
<path fill-rule="evenodd" clip-rule="evenodd" d="M107.201 84.338C109.984 83.1259 108.305 79.3464 107.314 76.2512C106.915 74.9411 106.364 73.7857 105.037 73.4488C103.272 73.155 101.459 73.3534 99.7985 74.0223C98.6423 74.5361 98.0466 75.36 98.2556 76.2244C98.274 76.301 99.4195 82.4506 100.238 83.6688C100.622 84.2469 101.21 84.6573 101.886 84.8173C102.129 86.449 102.727 88.008 103.639 89.384C103.686 89.4483 103.745 89.5034 103.812 89.5448C103.88 89.5869 103.956 89.6145 104.035 89.6259C104.114 89.6382 104.194 89.6344 104.271 89.6145C104.348 89.5945 104.421 89.5601 104.485 89.5118C104.548 89.4636 104.601 89.4031 104.641 89.3342C104.681 89.2653 104.707 89.1887 104.716 89.1099C104.726 89.0302 104.72 88.9506 104.698 88.8733C104.676 88.7967 104.639 88.7255 104.589 88.6635C103.65 86.8794 103.279 85.9345 103.2 84.9689C104.139 84.9299 105.075 84.825 106 84.6558C106.36 85.7783 106.857 86.8526 107.48 87.8533C107.527 87.9154 107.586 87.9682 107.654 88.0072C107.721 88.0471 107.796 88.0723 107.874 88.0831C107.952 88.0938 108.031 88.0892 108.106 88.0693C108.181 88.0494 108.253 88.0149 108.315 87.9674C108.377 87.92 108.429 87.861 108.469 87.7936C108.509 87.7262 108.534 87.6512 108.545 87.5739C108.556 87.4965 108.551 87.4177 108.531 87.3419C108.511 87.266 108.477 87.1948 108.429 87.1328C107.923 86.2461 107.512 85.3097 107.201 84.338ZM102.655 80.7844C102.632 80.8725 102.574 80.9475 102.495 80.9934C102.416 81.0386 102.322 81.0509 102.233 81.0271C102.145 81.0034 102.07 80.946 102.025 80.8671C101.979 80.7882 101.967 80.694 101.991 80.606C102.351 78.8097 102.903 77.057 103.638 75.3791C103.655 75.335 103.679 75.2944 103.71 75.26C103.743 75.2256 103.781 75.1979 103.824 75.1786C103.867 75.1594 103.913 75.149 103.96 75.148C104.007 75.147 104.054 75.1555 104.097 75.173C104.141 75.1904 104.18 75.2165 104.214 75.2496C104.246 75.2827 104.273 75.3221 104.291 75.3656C104.308 75.4091 104.317 75.4557 104.316 75.5026C104.315 75.5495 104.305 75.5958 104.286 75.6387C103.632 77.3165 103.086 79.0355 102.655 80.7844ZM105.785 77.4375C105.13 79.1152 104.585 80.8334 104.154 82.5823C104.142 82.6259 104.122 82.6665 104.095 82.7025C104.067 82.7385 104.033 82.7683 103.994 82.7913C103.955 82.8135 103.911 82.828 103.867 82.8342C103.822 82.8403 103.776 82.8372 103.733 82.8258C103.689 82.8143 103.648 82.7936 103.612 82.766C103.576 82.7385 103.547 82.7048 103.524 82.6657C103.501 82.6267 103.486 82.583 103.481 82.5386C103.475 82.4934 103.478 82.4483 103.489 82.4046C103.849 80.6083 104.401 78.8556 105.137 77.178C105.153 77.1335 105.178 77.093 105.209 77.0587C105.241 77.0242 105.279 76.9965 105.322 76.9773C105.365 76.958 105.411 76.9476 105.459 76.9466C105.505 76.9456 105.552 76.9541 105.596 76.9716C105.639 76.9891 105.678 77.0151 105.712 77.0482C105.745 77.0813 105.772 77.1205 105.789 77.1642C105.807 77.2078 105.815 77.2545 105.815 77.3012C105.814 77.3479 105.804 77.3946 105.785 77.4375Z" fill="#191919"/>
<path fill-rule="evenodd" clip-rule="evenodd" d="M98.3267 53.893C97.2923 54.4849 96.4125 55.0155 96.4125 55.0155C96.3099 55.0799 96.2279 55.1727 96.1774 55.2827C96.1261 55.3927 96.1085 55.5151 96.1253 55.6351C96.1429 55.755 96.195 55.8673 96.2746 55.9584C96.355 56.0495 96.4599 56.1153 96.5763 56.148L98.2042 56.6296C98.1483 58.2881 98.133 59.7475 98.133 59.7475C98.1315 59.8756 98.1705 60.001 98.244 60.1059C98.3175 60.2107 98.4224 60.2899 98.5434 60.3321C98.6644 60.3744 98.7953 60.3777 98.9186 60.3415C99.0411 60.3053 99.1499 60.2314 99.2287 60.1304C99.2287 60.1304 100.52 58.318 101.241 57.3111C102.998 57.6051 104.826 57.8011 104.826 57.8011C104.95 57.8197 105.077 57.7989 105.189 57.7416C105.301 57.6843 105.393 57.5934 105.45 57.4817C105.507 57.3699 105.529 57.2429 105.511 57.1185C105.492 56.9941 105.435 56.8786 105.348 56.7881C105.348 56.7881 104.252 55.6809 103.018 54.4144C103.674 53.2475 104.314 52.0706 104.314 52.0706C104.36 51.9816 104.379 51.8804 104.367 51.7806C104.355 51.6807 104.314 51.5868 104.247 51.5112C104.181 51.4356 104.093 51.3819 103.996 51.357C103.898 51.3322 103.795 51.3376 103.701 51.3723C101.849 52.0821 101.657 52.2146 101.11 52.4274C100.229 51.494 99.5786 50.7689 99.5786 50.7689C99.4944 50.6819 99.3864 50.6212 99.2685 50.5942C99.1506 50.5672 99.0266 50.5749 98.9132 50.6165C98.7992 50.6582 98.6996 50.7319 98.6269 50.8288C98.5541 50.9257 98.5113 51.0416 98.5028 51.1625C98.5028 51.1625 98.3834 52.9014 98.3267 53.893Z" fill="#38A1FF"/>
<path fill-rule="evenodd" clip-rule="evenodd" d="M36.2975 67.7767C34.8006 67.877 33.4866 67.9919 33.4866 67.9919C33.3647 68.0063 33.2497 68.056 33.1557 68.135C33.0618 68.2139 32.9929 68.3187 32.9577 68.4363C32.9224 68.5538 32.9223 68.6791 32.9574 68.7968C32.9925 68.9144 33.0612 69.0192 33.1551 69.0983L34.845 70.5478C33.9261 72.3349 33.1451 73.9421 33.1451 73.9421C33.0868 74.0564 33.0663 74.1864 33.0867 74.313C33.1071 74.4397 33.1672 74.5567 33.2585 74.647C33.3497 74.7373 33.4672 74.7962 33.5941 74.8152C33.721 74.8343 33.8507 74.8125 33.9644 74.753L37.7715 72.7369C39.623 73.9927 41.6299 75.2009 41.6299 75.2009C41.7349 75.2687 41.8586 75.3019 41.9834 75.2959C42.1083 75.29 42.2282 75.2452 42.3263 75.1677C42.4244 75.0903 42.4959 74.9841 42.5307 74.8639C42.5655 74.7439 42.5619 74.6159 42.5204 74.498C42.5204 74.498 41.8312 72.6956 41.0709 70.6565C42.4116 69.7269 43.7677 68.7652 43.7677 68.7652C43.8505 68.7066 43.9132 68.6239 43.9475 68.5285C43.9818 68.4331 43.9858 68.3293 43.9592 68.2314C43.9325 68.1336 43.8764 68.0463 43.7985 67.9814C43.7205 67.9164 43.6245 67.8771 43.5234 67.8686C43.4469 67.8617 41.538 67.6978 39.966 67.6465C39.4185 66.1327 39.0196 64.962 39.0196 64.962C38.9781 64.8492 38.905 64.7507 38.8089 64.6784C38.713 64.6061 38.5982 64.563 38.4783 64.5542C38.3585 64.5454 38.2386 64.5712 38.1331 64.6287C38.0275 64.6863 37.9409 64.773 37.8833 64.8785C37.8833 64.8785 36.8672 66.72 36.2975 67.7767Z" fill="#38A1FF"/>
<path fill-rule="evenodd" clip-rule="evenodd" d="M82.3707 117.844C80.3033 117.921 78.6953 117.955 78.6953 117.955C78.5759 117.961 78.461 118 78.3622 118.067C78.2642 118.135 78.1869 118.229 78.1386 118.338C78.0912 118.447 78.0751 118.567 78.0919 118.685C78.1088 118.804 78.1593 118.914 78.2359 119.005C78.2359 119.005 79.8707 120.912 80.8194 121.999C80.1731 123.862 79.6432 125.521 79.6432 125.521C79.6073 125.643 79.6088 125.773 79.6478 125.893C79.6869 126.013 79.7612 126.119 79.8607 126.197C79.961 126.274 80.082 126.32 80.2083 126.327C80.3347 126.335 80.4602 126.304 80.569 126.239L83.2007 124.703C84.8194 126.498 86.2972 128.087 86.2972 128.087C86.3814 128.18 86.4924 128.244 86.6149 128.271C86.7375 128.298 86.8646 128.286 86.9802 128.238C87.0958 128.19 87.1938 128.107 87.2604 128.001C87.327 127.896 87.3592 127.772 87.3531 127.646C87.3531 127.646 87.0698 123.962 86.9388 122.191C89.3278 120.455 91.775 118.504 91.775 118.504C91.8776 118.428 91.9526 118.321 91.9894 118.199C92.0269 118.077 92.0238 117.946 91.981 117.826C91.9381 117.706 91.8577 117.603 91.7513 117.532C91.6456 117.461 91.5192 117.426 91.3921 117.432C91.3921 117.432 88.9633 117.56 86.226 117.685C85.8194 115.717 85.3791 113.69 85.3791 113.69C85.3561 113.591 85.3033 113.502 85.2283 113.434C85.1532 113.366 85.059 113.323 84.958 113.31C84.8577 113.297 84.7558 113.315 84.6655 113.363C84.5759 113.41 84.5024 113.483 84.4557 113.573C83.363 115.68 82.4059 117.767 82.3707 117.844Z" fill="#38A1FF"/>
<path d="M94.0797 37.7846C93.9825 37.7846 93.8868 37.7599 93.801 37.7126C93.716 37.6654 93.6441 37.5973 93.5927 37.5146C93.5414 37.432 93.5116 37.3376 93.5062 37.2403C93.5009 37.143 93.5208 37.046 93.5637 36.9584L100.742 22.2846C100.775 22.2168 100.822 22.1562 100.878 22.1063C100.934 22.0564 101 22.018 101.071 21.9935C101.143 21.9691 101.218 21.9588 101.294 21.9635C101.369 21.9682 101.443 21.9877 101.511 22.0208C101.578 22.0539 101.639 22.1001 101.688 22.1566C101.739 22.2132 101.777 22.279 101.802 22.3503C101.826 22.4217 101.836 22.4972 101.832 22.5725C101.827 22.6477 101.807 22.7214 101.774 22.7892L94.5958 37.463C94.5483 37.5597 94.4748 37.641 94.3837 37.6979C94.2926 37.7548 94.1869 37.7848 94.0797 37.7846Z" fill="#191919"/>
<path d="M88.5895 37.0462C88.444 37.0459 88.3039 36.9905 88.1982 36.8909C88.0918 36.7915 88.0275 36.6554 88.0175 36.5102L87.1752 24.0531C87.1699 23.9776 87.1798 23.902 87.2043 23.8304C87.2288 23.7587 87.2664 23.6926 87.3161 23.6357C87.3659 23.5789 87.4264 23.5324 87.4945 23.4988C87.5619 23.4653 87.6362 23.4455 87.7112 23.4405C87.787 23.4354 87.8621 23.4453 87.934 23.4695C88.0053 23.4938 88.0719 23.5318 88.1285 23.5816C88.1852 23.6314 88.2319 23.6919 88.2656 23.7596C88.2993 23.8273 88.3184 23.9011 88.3238 23.9765L89.1661 36.4337C89.1714 36.5124 89.1599 36.5913 89.1331 36.6656C89.1071 36.7399 89.065 36.8079 89.0114 36.8653C88.957 36.9228 88.8919 36.9685 88.8192 36.9996C88.7465 37.0307 88.6684 37.0466 88.5895 37.0462Z" fill="#191919"/>
<path d="M115.818 128.344C115.724 128.344 115.63 128.321 115.547 128.276C115.463 128.232 115.393 128.167 115.34 128.089L104.893 112.481C104.85 112.419 104.82 112.348 104.804 112.274C104.789 112.2 104.788 112.123 104.802 112.048C104.817 111.974 104.845 111.902 104.887 111.84C104.93 111.776 104.984 111.722 105.047 111.68C105.109 111.637 105.181 111.608 105.255 111.593C105.329 111.579 105.407 111.579 105.481 111.594C105.555 111.609 105.626 111.638 105.688 111.681C105.751 111.724 105.806 111.778 105.847 111.842L116.294 127.446C116.352 127.533 116.387 127.634 116.392 127.738C116.397 127.842 116.374 127.946 116.325 128.038C116.277 128.13 116.204 128.207 116.114 128.262C116.025 128.315 115.922 128.344 115.818 128.344Z" fill="#191919"/>
<path d="M121.701 118.488C121.443 118.488 121.642 118.558 111.211 111.987C111.148 111.946 111.092 111.894 111.049 111.832C111.005 111.771 110.974 111.701 110.957 111.628C110.94 111.554 110.939 111.478 110.951 111.403C110.964 111.329 110.991 111.258 111.031 111.194C111.072 111.13 111.124 111.075 111.186 111.031C111.247 110.987 111.317 110.957 111.39 110.94C111.464 110.923 111.541 110.921 111.615 110.934C111.689 110.947 111.76 110.974 111.824 111.014L122.008 117.428C122.113 117.494 122.193 117.593 122.237 117.71C122.281 117.826 122.286 117.953 122.252 118.073C122.217 118.192 122.145 118.297 122.046 118.372C121.946 118.447 121.826 118.488 121.701 118.488Z" fill="#191919"/>
</svg>
