<svg width="154" height="154" viewBox="0 0 154 154" fill="none" xmlns="http://www.w3.org/2000/svg">
<path d="M122.396 86.5076C123.009 86.475 123.602 86.2726 124.108 85.923C124.614 85.5734 125.012 85.0903 125.259 84.5274C125.47 83.8115 124.712 83.5588 124.458 84.359C124.247 84.797 123.927 85.1738 123.529 85.454C123.131 85.7341 122.669 85.9083 122.185 85.9601C122.017 86.0022 121.68 86.5214 122.396 86.5076Z" fill="#191919"/>
<path d="M123.659 80.4424C123.411 79.5143 122.142 80.3581 122.901 81.2425C123.112 81.4952 123.917 81.4095 123.659 80.4424Z" fill="#191919"/>
<path d="M121.848 76.5257C121.258 76.6918 121.259 77.368 122.016 77.368C122.863 77.3055 123.713 77.4365 124.502 77.7508C124.556 77.7691 124.615 77.7682 124.668 77.7483C124.722 77.7285 124.768 77.6908 124.797 77.6417C124.826 77.5925 124.838 77.5347 124.83 77.478C124.822 77.4212 124.795 77.3689 124.753 77.3297C124.356 76.9941 123.89 76.7485 123.389 76.6097C122.887 76.4709 122.362 76.4422 121.848 76.5257Z" fill="#191919"/>
<path d="M119.574 78.6284C119.011 78.3103 118.348 78.2199 117.721 78.3757C117.338 78.5021 117.384 78.9232 117.763 78.9653C118.258 78.9825 118.744 79.097 119.195 79.3022C119.699 79.5159 119.823 78.8451 119.574 78.6284Z" fill="#191919"/>
<path d="M120.247 81.538C120.128 82.4743 120.113 83.421 120.205 84.3605C120.374 85.4554 122.858 84.6553 122.48 84.0657C122.269 83.7287 121.427 84.4485 120.879 84.192C120.733 83.3154 120.676 82.4261 120.711 81.538C120.711 81.4765 120.687 81.4175 120.643 81.374C120.6 81.3305 120.541 81.306 120.479 81.306C120.418 81.306 120.359 81.3305 120.315 81.374C120.272 81.4175 120.247 81.4765 120.247 81.538Z" fill="#191919"/>
<path d="M119.405 81.8321C120.035 81.4493 119.448 80.1476 118.9 80.5687C118.478 80.8214 118.644 82.2923 119.405 81.8321Z" fill="#191919"/>
<path d="M115.151 85.2441C115.741 87.1814 117.172 89.7082 118.815 90.8874C119.573 91.4349 119.952 90.8874 119.198 90.1715C117.579 88.8072 116.357 87.0322 115.66 85.0328C115.632 84.9653 115.578 84.9116 115.511 84.8837C115.443 84.8558 115.367 84.8558 115.3 84.8839C115.232 84.9119 115.179 84.9656 115.151 85.0331C115.123 85.1007 115.123 85.1766 115.151 85.2441Z" fill="#191919"/>
<path d="M128.839 87.2657C129.045 87.0918 128.881 86.7603 128.628 86.8828C126.27 87.8936 124.627 91.5575 125.764 94.1693C125.933 94.5063 126.396 94.3799 126.312 94.0001C125.68 90.7612 126.513 89.2274 128.839 87.2657Z" fill="#191919"/>
<path d="M114.772 88.0658C115.103 89.1187 115.642 90.094 116.359 90.9334C117.075 91.7728 117.954 92.4591 118.941 92.9511C119.489 93.2038 120.036 92.7826 119.194 92.2352C117.461 91.242 116.089 89.7227 115.277 87.8974C115.067 87.5605 114.679 87.6891 114.772 88.0658Z" fill="#191919"/>
<path d="M116.583 85.16C117.531 87.1194 119.121 88.6949 121.09 89.6241C123.827 90.8454 124.375 88.9502 126.734 87.392C126.986 87.2236 126.859 86.8866 126.564 86.9709C124.459 87.4762 124.248 90.2558 121.3 88.8239C119.58 87.8682 118.131 86.4916 117.089 84.823C117.04 84.7671 116.972 84.7308 116.898 84.721C116.825 84.7112 116.75 84.7285 116.688 84.7698C116.626 84.811 116.582 84.8733 116.562 84.9451C116.543 85.0169 116.55 85.0933 116.583 85.16Z" fill="#191919"/>
<path d="M120.247 96.2398C120.458 96.576 121.006 96.2819 120.836 95.945C120.036 93.7964 116.836 93.3332 115.698 91.438C115.488 91.1011 115.109 91.438 115.239 91.7749C116.414 94.0039 118.819 93.9595 120.247 96.2398Z" fill="#191919"/>
<path d="M116.288 78.5893C116.443 80.6538 116.853 82.6911 117.509 84.6545C117.594 84.9493 118.141 84.823 118.057 84.4861C117.169 81.6403 116.812 78.6553 117.004 75.6804C117.302 75.7887 117.619 75.8339 117.936 75.813C118.252 75.7922 118.561 75.7057 118.842 75.5592C119.123 75.4126 119.371 75.2092 119.569 74.9618C119.768 74.7144 119.912 74.4285 119.994 74.1221C121.132 75.8067 124.501 75.6383 125.554 74.1221C125.259 76.4384 127.955 80.5235 128.502 79.7655C128.755 79.3826 129.007 78.9653 129.471 78.8389C131.197 78.2915 131.492 81.5764 130.439 82.0396C129.98 82.2502 129.049 81.6568 129.597 83.1346C130.324 85.0639 130.943 87.0323 131.45 89.0306C131.534 89.4096 131.997 89.2412 131.997 88.8621C131.627 86.8196 131.063 84.8169 130.313 82.8811C130.705 82.8312 131.068 82.6498 131.343 82.3668C131.618 82.0838 131.79 81.7158 131.829 81.3229C132.322 81.1439 132.762 80.8444 133.109 80.4518C133.456 80.0591 133.699 79.5858 133.817 79.0749C133.934 78.5641 133.922 78.032 133.78 77.5272C133.639 77.0224 133.374 76.561 133.009 76.185C135.283 73.9108 134.862 70.1619 131.366 70.204C131.583 69.5142 131.586 68.775 131.375 68.0835C131.164 67.392 130.748 66.7805 130.183 66.3295C129.618 65.8784 128.93 65.6088 128.209 65.5562C127.488 65.5036 126.767 65.6704 126.143 66.0347C124.879 62.6234 119.699 63.6342 119.573 66.6664C116.288 63.9711 112.034 68.1825 114.561 71.4253C111.698 71.4712 111.445 78.2945 116.288 78.5893Z" fill="#191919"/>
<path d="M122.059 98.5952C122.311 98.8775 122.643 99.076 123.012 99.1642C123.38 99.2524 123.766 99.226 124.119 99.0885C124.471 98.9511 124.774 98.7093 124.985 98.3953C125.196 98.0813 125.307 97.7103 125.302 97.3318C125.999 97.0594 126.674 96.7356 127.323 96.3632C127.229 95.7908 127.013 95.2452 126.691 94.7628C126.036 94.9325 125.4 95.1725 124.796 95.4788C124.553 95.1771 124.22 94.9607 123.845 94.861C123.47 94.7613 123.074 94.7834 122.712 94.9241C122.351 95.0648 122.044 95.3169 121.836 95.6437C121.627 95.9706 121.528 96.3553 121.553 96.7422C121.132 96.9949 120.668 97.2897 120.5 97.416C120.479 97.9979 120.64 98.5719 120.959 99.0585C121.3 98.9321 121.718 98.7667 122.059 98.5952ZM122.437 96.7422C122.57 95.2682 124.505 95.4366 124.333 97.2897C124.207 98.8058 122.278 98.5118 122.437 96.7422Z" fill="#191919"/>
<path d="M112.836 112.831C112.709 110.725 112.625 105.755 113.172 103.902C113.257 103.565 113.678 103.48 113.632 104.196C113.49 107.06 113.518 109.929 113.716 112.788C116.896 112.686 120.08 112.841 123.235 113.252C121.886 109.714 119.991 98.7215 119.781 97.2897C119.57 95.8578 116.706 94.8884 115.186 93.4144C111.649 94.6778 106.721 98.6373 102.888 104.028C104.298 107.101 105.453 110.284 106.342 113.547C108.491 113.187 110.659 112.948 112.836 112.831Z" fill="#191919"/>
<path d="M132.672 89.7925C130.945 91.6034 129.471 92.4878 126.86 92.5299C127.407 96.2819 130.693 101.754 133.557 105.755C134.004 104.803 134.33 103.798 134.525 102.764C134.61 102.175 134.984 102.385 134.984 102.722C134.915 104.051 134.631 105.36 134.142 106.598C137.596 111.314 142.105 115.863 143.79 121.591C145.685 119.191 153.098 106.047 147.96 97.3317C144.928 92.0667 138.316 89.3713 132.672 89.7925Z" fill="#191919"/>
<path d="M138.863 127.864C141.854 127.906 143.243 127.906 145.77 127.906C147.076 124.663 148.424 118.304 148.887 113.039C146.191 121.76 142.106 125.887 138.863 127.864Z" fill="#191919"/>
<path d="M127.365 125.255C122.611 125.705 117.904 126.565 113.298 127.824C116.035 127.782 125.891 127.698 129.344 127.782C128.45 127.153 127.762 126.274 127.365 125.255Z" fill="#191919"/>
<path d="M126.695 124.202C127.201 124.126 127.116 123.36 126.611 123.444C114.428 125.154 112.404 126.613 107.195 127.066C106.479 127.108 105.893 127.866 106.858 127.866C109.975 127.866 115.113 126.266 118.482 125.634C121.427 125.044 123.748 124.658 126.695 124.202Z" fill="#191919"/>
<path d="M107.865 114.094C106.01 114.465 106.475 115.063 107.149 114.894C111.95 113.883 118.436 114.094 123.238 114.894C123.701 114.978 123.912 114.262 123.448 114.178C118.689 113.378 112.62 113.145 107.865 114.094Z" fill="#191919"/>
<path d="M137.516 112.999C137.725 113.17 138.147 112.915 137.975 112.616C133.995 107.881 130.457 102.792 127.403 97.4121C127.235 97.1173 126.73 97.4122 126.856 97.707C128.46 100.911 134.757 110.75 137.516 112.999Z" fill="#191919"/>
<path d="M142.738 121.928C142.906 121.507 142.355 121.17 142.148 121.545C140.885 123.777 139.369 126.009 136.926 127.104C134.441 128.241 131.703 127.904 129.892 125.757C125.976 121.124 123.112 106.384 122.058 99.6863C121.974 99.2651 121.384 99.4336 121.469 99.8547C122.353 106.256 125.221 121.335 129.387 126.262C132.578 130.064 139.311 129.124 142.738 121.928Z" fill="#191919"/>
<path d="M79.9413 105.122C80.2361 104.955 80.0255 104.617 79.6886 104.663C78.1725 104.957 77.1618 105.379 76.6977 106.896C76.2298 108.277 76.114 109.754 76.3608 111.191C76.4451 111.574 76.9925 111.486 77.0347 111.107C77.0768 109.464 76.8241 109.128 77.3716 107.317C77.8348 105.628 78.596 105.888 79.9413 105.122Z" fill="#191919"/>
<path d="M80.4888 98.6794C80.4426 99.5926 80.4708 100.508 80.573 101.417C80.6152 101.754 81.2048 101.712 81.2469 101.417C81.2659 100.503 81.2237 99.588 81.1205 98.6794C81.0776 98.3838 80.4957 98.3838 80.4888 98.6794Z" fill="#191919"/>
<path d="M83.6898 98.3425C84.8146 97.7299 86.5995 96.5316 87.3537 95.0568C87.5643 94.6357 87.5229 94.5093 87.2274 94.1303C86.8551 93.7094 86.4151 93.3535 85.9257 93.0775C85.4211 92.8248 85.3782 92.9932 84.9999 93.2459C82.5144 94.9726 78.7211 94.6357 76.1123 93.288C75.9017 93.1617 75.3121 93.4986 75.8596 93.7934C79.1032 95.4366 82.5979 95.7314 85.5888 93.6249C86.0707 93.9306 86.5099 94.2988 86.8951 94.7199C85.8976 96.1375 84.5473 97.2701 82.9777 98.0056C82.3881 97.2896 81.7985 96.6158 81.2089 95.8999C80.3199 94.9129 79.9554 96.6893 78.5128 98.1319C77.0531 97.4108 75.6582 96.5654 74.3435 95.6051C74.7646 95.1832 75.1436 94.7628 75.5648 94.3409C75.8175 94.1303 75.4806 93.7092 75.1819 93.8814C74.738 94.2031 74.3287 94.5701 73.9606 94.9764C73.8097 95.1502 73.7338 95.3768 73.7496 95.6064C73.7654 95.836 73.8716 96.05 74.0448 96.2016C74.7187 96.8333 78.1299 99.0232 78.6782 98.7705C79.6047 98.3111 80.1101 97.086 80.7418 96.3279C81.3314 96.9175 82.1316 98.0967 82.5948 98.56C82.8896 98.89 83.3919 98.5048 83.6898 98.3425Z" fill="#191919"/>
<path d="M88.1543 81.411C88.307 80.763 88.3635 80.0961 88.322 79.4317C88.2378 78.7157 87.5647 78.6736 87.6061 79.4738C87.6903 80.5266 87.3121 81.7479 87.4384 82.0006C87.7332 82.7173 88.7861 81.5412 89.2907 82.2962C90.0066 83.4754 88.4484 85.7074 87.4797 85.1178C87.2278 84.9494 87.0203 85.0757 86.848 85.6232C86.5906 86.3606 86.2516 87.0669 85.8373 87.7289C83.5631 91.056 78.9727 91.8982 76.4458 89.0306C75.5549 87.8769 74.9749 86.5139 74.7612 85.0719C74.7546 84.977 74.7234 84.8856 74.6706 84.8065C74.6179 84.7273 74.5454 84.6634 74.4603 84.6209C74.3753 84.5783 74.2806 84.5587 74.1857 84.564C74.0907 84.5692 73.9988 84.5991 73.9189 84.6508C73.0345 85.3246 72.2344 84.3139 72.1501 83.0504C72.0238 81.323 73.0767 81.1966 73.8347 81.7862C73.8819 81.8245 73.9399 81.847 74.0005 81.8505C74.0611 81.854 74.1213 81.8383 74.1725 81.8057C74.2238 81.7731 74.2635 81.7252 74.286 81.6688C74.3085 81.6124 74.3127 81.5503 74.298 81.4914C74.2559 81.1086 74.0453 78.9646 74.0453 78.5013C74.0032 78.0802 73.4978 78.2486 73.4978 78.6277C73.5399 79.3857 73.582 80.1859 73.6663 80.9018C73.434 80.7891 73.1777 80.7348 72.9196 80.7436C72.6616 80.7524 72.4096 80.824 72.1855 80.9523C71.9614 81.0805 71.772 81.2616 71.6338 81.4796C71.4955 81.6977 71.4125 81.9462 71.3921 82.2035C71.0552 84.4785 72.6555 86.2473 74.1295 85.405C74.5507 87.258 75.2666 89.1532 76.8256 90.2903C76.7406 91.0483 76.6993 91.8064 76.615 92.5644C76.5729 93.2382 77.0362 93.3225 77.2046 92.9856C77.3184 92.2181 77.3887 91.4447 77.4152 90.6693C78.4474 91.2071 79.6046 91.4595 80.767 91.4003C81.9294 91.341 83.0549 90.9724 84.0271 90.3324C84.0693 91.0904 84.0271 91.8906 84.1114 92.6486C84.1122 92.6966 84.1231 92.7438 84.1433 92.7873C84.1636 92.8307 84.1928 92.8694 84.229 92.9008C84.2652 92.9322 84.3076 92.9557 84.3535 92.9696C84.3993 92.9836 84.4476 92.9877 84.4952 92.9818C84.5428 92.9758 84.5885 92.9599 84.6296 92.9351C84.6706 92.9103 84.7059 92.8771 84.7333 92.8378C84.7606 92.7984 84.7794 92.7537 84.7883 92.7066C84.7973 92.6595 84.7962 92.6111 84.7852 92.5644C84.6588 91.301 84.7431 90.5008 84.701 89.8691C85.9762 88.858 86.904 87.4741 87.3549 85.9104C87.61 85.9711 87.8756 85.9723 88.1312 85.9139C88.3868 85.8554 88.6256 85.739 88.8289 85.5735C90.8075 84.2334 90.6383 80.653 88.1543 81.411Z" fill="#191919"/>
<path d="M77.6674 77.7049C77.2413 77.6967 76.8183 77.7787 76.4262 77.9457C76.0341 78.1126 75.6818 78.3607 75.3925 78.6735C75.1398 78.9262 75.3082 79.4737 75.8136 79.221C76.3579 78.8303 76.9993 78.5972 77.6674 78.5472C78.4255 78.463 78.3022 77.7501 77.6674 77.7049Z" fill="#191919"/>
<path d="M87.9009 104.112C87.7827 103.089 87.3976 102.114 86.7841 101.286C86.1706 100.458 85.3503 99.8063 84.4054 99.3954C83.9459 99.2269 83.9 99.6902 84.2369 99.8548C86.3847 100.992 87.227 103.182 87.312 105.499C87.3955 107.394 86.5111 110.342 88.7431 111.395C89.126 111.563 89.4177 110.935 89.0379 110.763C87.1428 109.883 88.3465 106.979 87.9009 104.112Z" fill="#191919"/>
<path d="M78.2139 100.111C78.4199 99.8547 78.1718 99.5216 77.877 99.7284C76.2407 101.129 75.0419 102.971 74.4237 105.035C74.1289 106.131 74.2131 107.268 73.9604 108.32C73.6656 109.542 72.6127 110.005 71.6441 110.679C71.3072 110.889 71.602 111.479 71.981 111.311C72.9253 110.925 73.7321 110.265 74.2973 109.415C75.1817 107.899 74.2973 106.004 76.1082 102.845C76.7408 101.882 77.4447 100.969 78.2139 100.111Z" fill="#191919"/>
<path d="M75.6868 109.251C75.8315 107.949 75.7289 106.597 76.4448 105.418C76.7673 104.931 77.1893 104.517 77.6831 104.205C78.1768 103.893 78.7311 103.689 79.3094 103.607C79.8147 103.523 79.7688 103.017 79.3094 103.017C78.6416 103.039 77.9885 103.219 77.4031 103.541C76.8176 103.862 76.3165 104.318 75.9402 104.87C75.2136 106.193 74.933 107.714 75.1401 109.209C75.1393 109.504 75.6493 109.588 75.6868 109.251Z" fill="#191919"/>
<path d="M80.8287 108.874C80.6756 109.971 80.9129 126.268 80.9551 127.153C80.9551 127.616 81.7131 127.574 81.7131 127.11C81.7131 122.44 81.5025 114.012 81.4183 108.916C81.3731 108.661 80.8724 108.535 80.8287 108.874Z" fill="#191919"/>
<path d="M85.3322 116.621C84.8493 116.439 84.4192 116.14 84.0809 115.75C83.7427 115.36 83.5069 114.893 83.395 114.389C82.9317 112.157 85.248 110.009 84.0688 107.693C83.8626 107.259 83.5206 106.905 83.0948 106.684C82.669 106.463 82.1826 106.387 81.7097 106.467C81.6482 106.467 81.5893 106.492 81.5459 106.535C81.5024 106.579 81.478 106.638 81.478 106.699C81.478 106.761 81.5024 106.819 81.5459 106.863C81.5893 106.906 81.6482 106.931 81.7097 106.931C81.9829 106.941 82.2512 107.007 82.4983 107.124C82.7455 107.241 82.9663 107.407 83.1475 107.611C83.3286 107.816 83.4664 108.056 83.5524 108.315C83.6383 108.575 83.6708 108.849 83.6477 109.121C83.6477 110.343 82.9738 111.48 82.7212 112.659C82.4641 113.586 82.5637 114.576 83.0002 115.434C83.4368 116.291 84.1786 116.954 85.0796 117.292C85.5428 117.505 85.794 116.795 85.3322 116.621Z" fill="#191919"/>
<path d="M71.307 111.694C71.2626 111.357 71.307 110.22 70.7174 110.392C70.2006 110.487 69.6933 110.628 69.2013 110.813C68.5274 111.108 68.1905 111.866 69.117 111.613C69.5382 111.487 70.0014 111.36 70.4187 111.23C70.6332 113.96 71.7267 116.546 73.5352 118.601C71.068 120.709 68.4008 122.571 65.5718 124.16C64.7716 124.623 64.9822 125.339 65.656 124.96C68.717 123.363 71.5618 121.381 74.1217 119.064C74.2481 118.938 74.4165 118.769 74.2481 118.517C72.7388 116.158 71.6676 114.433 71.307 111.694Z" fill="#191919"/>
<path d="M107.149 121.086C106.683 116.664 103.527 108.029 101.758 104.196C99.0622 98.4267 94.8087 96.3209 88.8284 95.0146C88.7502 94.9978 88.6684 95.0127 88.6011 95.0562C88.5338 95.0996 88.4866 95.168 88.4697 95.2463C88.4529 95.3246 88.4678 95.4063 88.5112 95.4736C88.5547 95.5409 88.623 95.5881 88.7013 95.605C93.8822 97.4159 97.7146 98.0897 100.537 103.438C102.558 107.271 107.023 119.022 106.391 123.528C105.885 127.024 104.032 126.855 101.59 127.024C97.2092 127.319 89.7128 121.465 86.5956 118.601C88.7013 117.126 90.0498 113.757 90.4288 111.399C93.7817 112.319 97.0187 113.619 100.077 115.273C100.499 115.484 100.836 114.936 100.414 114.726C98.4669 113.633 96.4394 112.69 94.3492 111.904C94.1674 110.899 93.7326 109.957 93.0858 109.167C92.7489 108.872 92.5804 109.251 92.7068 109.461C93.1181 110.129 93.4302 110.852 93.6333 111.609C92.6356 111.227 91.6071 110.931 90.559 110.725C89.7588 110.598 89.7588 110.725 89.6324 111.399C88.2419 118.096 85.0833 117.926 85.9677 118.896C89.085 122.391 96.5813 127.656 101.467 127.74C106.054 127.864 107.651 125.845 107.149 121.086Z" fill="#191919"/>
<path d="M85.7534 107.693C85.7011 107.077 85.4704 106.49 85.0895 106.004C84.7087 105.518 84.1943 105.153 83.6094 104.954C82.8882 104.815 82.1535 104.758 81.4194 104.786C81.0818 104.786 81.0818 105.207 81.3773 105.292C82.5986 105.629 83.6094 105.165 84.4938 106.429C85.4624 107.777 84.9149 109.082 85.0834 109.883C85.1063 109.946 85.1471 110.001 85.2008 110.041C85.2544 110.081 85.3186 110.105 85.3855 110.109C85.4524 110.114 85.5192 110.099 85.5777 110.066C85.6362 110.033 85.6839 109.984 85.7151 109.925C85.8571 109.189 85.8701 108.433 85.7534 107.693Z" fill="#191919"/>
<path d="M80.3204 106.219C79.835 106.373 79.3882 106.629 79.0103 106.971C78.6324 107.312 78.3321 107.731 78.1297 108.198C76.3609 111.904 81.2048 114.641 74.2131 117.211C74.1273 117.237 74.0548 117.294 74.0104 117.372C73.9661 117.45 73.9535 117.542 73.9752 117.629C73.9969 117.715 74.0513 117.791 74.127 117.838C74.2027 117.886 74.2938 117.903 74.3816 117.885C75.4966 117.622 76.535 117.103 77.4138 116.368C81.3312 113.083 75.7292 109.925 80.531 106.682C80.7837 106.471 80.6581 106.139 80.3204 106.219Z" fill="#191919"/>
<path d="M76.6558 81.4531C77.198 81.9233 77.881 80.4424 77.162 80.0633C76.5295 79.7264 76.273 81.1208 76.6558 81.4531Z" fill="#191919"/>
<path d="M85.1633 104.702C86.2483 105.725 86.1741 107.229 86.2162 108.619C86.2162 108.956 86.7215 108.914 86.8058 108.619C87.0163 107.103 86.8479 105.291 85.6687 104.154C84.4052 102.975 82.468 102.807 80.8677 103.059C80.8312 103.061 80.7955 103.07 80.7629 103.087C80.7303 103.103 80.7015 103.126 80.6786 103.155C80.6556 103.183 80.6389 103.216 80.6296 103.251C80.6203 103.287 80.6186 103.324 80.6246 103.36C80.6306 103.396 80.6442 103.43 80.6644 103.46C80.6847 103.491 80.7111 103.516 80.7421 103.536C80.773 103.555 80.8077 103.568 80.8439 103.573C80.88 103.578 80.9169 103.575 80.9519 103.565C82.3838 103.565 84.0147 103.619 85.1633 104.702Z" fill="#191919"/>
<path d="M70.7596 80.4002C71.1378 80.7379 71.5598 80.1475 71.2228 79.8106C68.7802 77.368 68.7802 73.6612 70.4648 70.7974C75.3079 62.458 89.7125 64.1434 92.7027 72.7347C93.221 74.1081 93.2752 75.6136 92.8569 77.0207C92.4386 78.4279 91.5708 79.6593 90.3864 80.5266C90.1337 80.7371 90.3443 81.2004 90.6812 81.0319C94.0503 79.3474 94.6399 74.9254 93.2501 71.7668C89.1229 62.3746 73.0759 61.8692 69.1592 71.7668C67.98 74.6727 68.3552 78.2562 70.7596 80.4002Z" fill="#191919"/>
<path d="M72.0652 77.8734C74.6311 78.1598 77.7935 76.3573 79.0569 74.1674C79.0953 74.1058 79.109 74.0319 79.0951 73.9606C79.0812 73.8894 79.0408 73.826 78.9821 73.7833C78.9234 73.7406 78.8507 73.7217 78.7786 73.7305C78.7065 73.7392 78.6405 73.775 78.5937 73.8305C76.6985 76.1468 74.9711 76.9048 72.0652 77.2417C71.9903 77.254 71.9222 77.2925 71.873 77.3504C71.8239 77.4082 71.7969 77.4817 71.7969 77.5576C71.7969 77.6335 71.8239 77.707 71.873 77.7648C71.9222 77.8227 71.9903 77.8612 72.0652 77.8734Z" fill="#191919"/>
<path d="M80.1517 84.3598C80.4472 84.15 80.4465 83.8544 80.1517 83.7281C79.9411 83.6438 78.804 83.9386 78.7198 83.7281C78.5513 83.3069 79.183 81.4952 79.3094 80.6108C79.3936 79.9791 79.0988 79.9791 78.804 80.4845C78.5092 80.9899 77.5789 83.5596 78.0031 84.3177C78.425 84.9494 79.732 84.6561 80.1517 84.3598Z" fill="#191919"/>
<path d="M63.094 102.006C65.6591 98.4236 68.4854 96.9527 72.6968 95.6471C73.118 95.5208 72.9916 94.8469 72.5705 94.9733C67.7273 96.4052 65.2418 97.7528 62.2938 101.838C61.8727 102.343 62.6721 102.595 63.094 102.006Z" fill="#191919"/>
<path d="M89.2514 78.2524C89.3128 78.234 89.366 78.1951 89.4023 78.1422C89.4386 78.0894 89.4557 78.0257 89.4507 77.9617C89.4458 77.8978 89.4192 77.8375 89.3753 77.7908C89.3313 77.7441 89.2728 77.7138 89.2093 77.705C86.5974 77.6628 83.4388 77.2838 81.4595 75.3887C79.6064 73.6199 78.6799 70.5448 78.5497 68.06C78.5076 67.6389 77.8759 67.6006 77.918 68.0179C77.9601 70.629 79.1432 74.041 81.0345 75.8519C82.9258 77.6628 86.6755 78.6476 89.2514 78.2524Z" fill="#191919"/>
<path d="M79.0145 86.7603C80.3798 87.4854 82.0888 87.0551 82.5521 85.7496C82.6363 85.4548 82.2994 85.2021 82.0888 85.4548C80.8637 86.8867 79.8147 86.2971 79.1791 86.3392C78.846 86.2971 78.7649 86.6278 79.0145 86.7603Z" fill="#191919"/>
<path d="M84.4477 79.6422C84.1291 78.7234 82.342 77.705 81.4997 77.9998C81.1628 78.1261 81.0364 78.7999 81.4997 78.8842C82.4356 79.006 83.3146 79.4016 84.0265 80.0213C84.2371 80.1897 84.5656 79.9822 84.4477 79.6422Z" fill="#191919"/>
<path d="M81.7523 81.7479C82.554 81.5887 82.5104 80.1055 81.8787 80.2739C81.2883 80.4003 81.0793 81.8819 81.7523 81.7479Z" fill="#191919"/>
<path d="M105.001 55.1302C105.423 55.0061 105.843 54.8775 106.264 54.7473C106.012 55.8002 105.717 56.853 105.464 57.9059C105.043 59.422 105.633 59.5484 105.97 59.0009C107.023 57.3584 108.118 55.6738 109.255 54.0735C110.814 51.8414 111.192 52.052 108.328 52.1362C108.833 51.1669 109.339 50.1982 109.802 49.2265C110.265 48.2548 107.149 49.3529 106.854 49.6056C106.795 49.6434 106.752 49.7017 106.733 49.7694C106.715 49.837 106.722 49.9092 106.753 49.972C106.784 50.0347 106.838 50.0837 106.903 50.1093C106.969 50.135 107.041 50.1356 107.107 50.1109C107.444 50.0267 108.16 49.6898 108.96 49.5213L107.57 52.3016C107.486 52.5122 107.57 52.7649 107.823 52.7649C108.37 52.7649 108.96 52.7228 109.507 52.7228C108.454 54.2389 107.402 55.7971 106.349 57.3132L107.233 54.281C107.255 54.2204 107.261 54.1549 107.248 54.0915C107.236 54.0282 107.206 53.9694 107.163 53.9217C107.12 53.8739 107.064 53.839 107.002 53.8206C106.94 53.8023 106.874 53.8013 106.812 53.8178C106.391 53.9441 105.928 54.1126 105.51 54.2389C105.763 53.0176 106.1 51.7963 106.395 50.5321C106.479 50.1952 105.974 50.1109 105.847 50.4057C105.357 51.7805 104.963 53.1877 104.668 54.6172C104.538 54.8775 104.707 55.2159 105.001 55.1302Z" fill="#191919"/>
<path d="M54.123 86.9747C54.3344 87.1431 54.6713 86.9747 54.5449 86.722C54.2494 85.8797 53.9967 85.0374 54.6292 84.153C54.888 83.8062 55.2366 83.5365 55.6373 83.3731C56.038 83.2097 56.4758 83.1588 56.9033 83.2257C56.9725 83.2254 57.0396 83.2027 57.0947 83.1609C57.1498 83.1191 57.1898 83.0606 57.2088 82.9942C57.2278 82.9277 57.2247 82.8569 57.2 82.7923C57.1753 82.7277 57.1303 82.6729 57.0718 82.6361C55.8926 82.0887 53.5755 83.0994 53.5755 85.3322C53.5427 85.6293 53.5746 85.93 53.6691 86.2135C53.7636 86.4971 53.9185 86.7568 54.123 86.9747Z" fill="#191919"/>
<path d="M52.5224 91.9404C52.5267 92.0325 52.5663 92.1194 52.6329 92.183C52.6996 92.2467 52.7882 92.2822 52.8804 92.2822C52.9726 92.2822 53.0612 92.2467 53.1279 92.183C53.1945 92.1194 53.2341 92.0325 53.2384 91.9404C53.3294 91.1646 53.2722 90.3786 53.0699 89.6241C52.6488 88.1501 51.259 87.6026 51.3011 86.1286C51.3432 85.2442 51.5117 84.3598 51.5538 83.5175C51.5529 83.4487 51.5263 83.3827 51.4792 83.3325C51.4321 83.2823 51.3679 83.2515 51.2993 83.2462C51.2307 83.241 51.1625 83.2615 51.1083 83.304C51.0541 83.3464 51.0177 83.4075 51.0063 83.4754C50.8379 84.3177 50.6694 85.16 50.5852 86.0023C50.4167 87.8553 51.6801 88.3607 52.1855 89.5399C52.5256 90.2912 52.6425 91.1245 52.5224 91.9404Z" fill="#191919"/>
<path d="M52.9859 76.231L53.6176 82.4218C53.6597 82.6745 54.123 82.6745 54.1651 82.3797C54.3757 80.8215 53.8282 77.7471 53.4913 76.1008C53.4491 75.852 52.9438 75.9362 52.9859 76.231Z" fill="#191919"/>
<path d="M57.24 87.6026C57.4039 87.9418 57.8296 87.6868 57.7454 87.392C57.6191 86.6761 57.3243 85.8338 58.714 85.8338C59.8511 85.8338 60.0158 86.8445 59.9775 87.771C59.8932 89.4977 58.4192 90.9717 58.4192 92.53C58.4208 92.618 58.4541 92.7025 58.5132 92.7677C58.5723 92.833 58.653 92.8747 58.7404 92.8849C58.8278 92.8952 58.916 92.8735 58.9886 92.8237C59.0612 92.7739 59.1133 92.6994 59.1352 92.6142C59.5563 90.8875 59.7248 91.056 60.3144 89.6241C60.8238 88.5572 60.8993 87.3342 60.525 86.2128C59.6827 84.3177 55.9 84.8391 57.24 87.6026Z" fill="#191919"/>
<path d="M55.3454 85.4126C55.264 86.0366 55.3819 86.6704 55.6823 87.2235C55.7165 87.2732 55.7672 87.3093 55.8254 87.3254C55.8836 87.3414 55.9456 87.3364 56.0005 87.3113C56.0554 87.2861 56.0996 87.2424 56.1255 87.1878C56.1513 87.1332 56.157 87.0713 56.1417 87.0129C55.9732 86.1285 55.8048 85.0756 56.6471 84.6124C57.0178 84.3856 57.4394 84.2553 57.8734 84.2332C58.3074 84.2111 58.74 84.2981 59.1318 84.486C59.4266 84.6545 59.6793 84.1912 59.4687 83.9807C58.7566 83.0963 55.598 83.4332 55.3454 85.4126Z" fill="#191919"/>
<path d="M36.3076 78.3367C36.0549 78.3788 35.8022 78.4209 35.5916 78.463C35.2126 77.2838 34.0755 76.0625 32.6858 76.5679C31.2118 77.1154 31.1689 78.7157 31.2539 79.4317C30.0287 79.558 28.7684 79.7265 27.547 79.8528C27.4778 79.8691 27.4167 79.9096 27.3746 79.9669C27.3324 80.0242 27.3121 80.0946 27.3172 80.1655C27.3222 80.2365 27.3524 80.3033 27.4022 80.354C27.4521 80.4048 27.5183 80.4361 27.5892 80.4424C28.8526 80.3582 30.116 80.274 31.3802 80.2318C32.1214 84.0214 36.4025 82.993 35.8022 79.2211C36.0128 79.179 36.2234 79.179 36.3918 79.1369C36.8597 82.4141 40.6699 82.5152 40.3084 78.6315C40.6454 78.6315 41.3613 78.463 41.0244 77.9577C40.8559 77.705 40.4769 77.8734 40.2242 77.9156C39.5504 75.136 36.4339 75.4729 36.3076 78.3367ZM31.9277 79.7686C31.8014 78.8 32.0119 77.7892 32.6436 77.4102C33.6965 76.7364 34.7494 77.7892 35.0863 79.1369C35.7831 82.3613 32.3366 83.0443 31.9277 79.7686ZM38.7923 80.8636C37.2456 81.3996 36.2065 77.8857 37.571 76.8627C39.3835 75.4438 40.5703 80.2441 38.7908 80.8636H38.7923Z" fill="#191919"/>
<path d="M36.3922 83.0963C35.4236 83.1805 35.5078 83.6017 36.1395 83.6859C36.5607 83.728 37.2345 83.6438 37.4412 83.2648C37.7781 82.6752 37.3149 81.7058 36.7253 81.1583C36.3041 80.7371 36.0936 81.1162 36.2659 81.3267C36.6472 81.9163 37.5714 82.8857 36.3922 83.0963Z" fill="#191919"/>
<path d="M39.4667 81.9585C39.4269 81.5374 39.0073 81.5374 39.0073 81.9585C39.0915 84.823 38.7967 89.4135 34.7116 89.7504C33.1105 89.8767 31.3838 89.1187 29.9941 88.3185C29.7414 88.1501 29.4045 88.5712 29.6993 88.7818C31.0908 89.7835 32.7458 90.3546 34.4589 90.4242C34.5432 91.0981 34.7116 91.814 34.7958 92.4878C35.0064 93.7934 35.5118 93.1617 35.4276 92.7405C35.3389 91.9512 35.2265 91.1647 35.0906 90.3821C39.0456 89.7504 39.7784 85.2426 39.4667 81.9585Z" fill="#191919"/>
<path d="M33.697 86.8866C33.9301 86.9979 34.184 87.0588 34.4422 87.0653C34.7004 87.0719 34.9571 87.0239 35.1956 86.9246C35.434 86.8252 35.6488 86.6767 35.826 86.4888C36.0031 86.3008 36.1387 86.0776 36.2238 85.8338C36.5186 85.202 36.3502 85.0757 35.8027 85.0757C35.2703 85.1157 34.7357 85.0341 34.2394 84.8371C33.7432 84.6401 33.2982 84.3329 32.9381 83.9386C32.2444 83.3597 32.0744 86.2687 33.697 86.8866ZM35.7185 85.7074C35.0446 87.0091 33.0224 86.3812 32.981 84.8651C33.7798 85.4316 34.7393 85.7269 35.7185 85.7074Z" fill="#191919"/>
<path d="M33.5706 79.6422C33.4825 79.8942 33.6119 80.5688 34.0338 80.4845C34.3708 80.4424 34.3708 79.9791 34.2444 79.6843C34.076 79.2632 33.7321 79.1767 33.5706 79.6422Z" fill="#191919"/>
<path d="M38.2448 78.8842C38.1544 79.1774 38.2869 79.937 38.7042 79.7686C38.9148 79.6843 38.999 79.4738 38.9569 79.0947C38.8765 78.6284 38.4025 78.3757 38.2448 78.8842Z" fill="#191919"/>
<path d="M30.9163 77.1575C31.5545 76.4224 32.4376 75.9436 33.4018 75.8098C33.5018 75.7895 33.5912 75.734 33.6537 75.6534C33.7163 75.5728 33.7479 75.4725 33.7428 75.3706C33.7377 75.2687 33.6962 75.172 33.626 75.098C33.5557 75.0241 33.4612 74.9778 33.3597 74.9675C32.8724 74.9716 32.3915 75.0789 31.9486 75.2821C31.5057 75.4853 31.1109 75.78 30.79 76.1467C29.8635 77.1575 30.6567 77.4454 30.9163 77.1575Z" fill="#191919"/>
<path d="M19.7133 76.61C19.6441 77.917 19.948 79.2167 20.5894 80.3575C21.2308 81.4984 22.1833 82.4334 23.3358 83.0535C23.5464 84.2748 24.3466 85.7075 25.8627 85.7075C26.3156 87.9583 26.6111 90.238 26.7471 92.53C26.7442 92.5705 26.7496 92.6111 26.7631 92.6494C26.7766 92.6877 26.7979 92.7228 26.8255 92.7526C26.8532 92.7823 26.8867 92.806 26.9239 92.8222C26.9611 92.8384 27.0013 92.8468 27.0419 92.8468C27.0825 92.8468 27.1227 92.8384 27.1599 92.8222C27.1971 92.806 27.2306 92.7823 27.2583 92.7526C27.2859 92.7228 27.3072 92.6877 27.3207 92.6494C27.3342 92.6111 27.3396 92.5705 27.3367 92.53C27.2931 90.3371 27.0535 88.1525 26.6208 86.0023C26.5365 85.6232 26.5365 84.8644 26.1154 84.9065C25.2731 84.9907 24.4308 84.2748 24.1781 82.9271C23.8833 81.4953 24.6835 80.3161 25.8206 80.8597C25.989 80.9439 26.1154 80.8176 26.1996 80.7334C27.8421 79.133 29.9057 76.185 29.9057 72.9415C32.0956 73.9109 37.3607 74.2899 39.7612 73.489C39.5927 70.2883 36.5184 65.3609 29.6951 66.0347C22.0724 66.7966 19.7883 72.6084 19.7133 76.61Z" fill="#191919"/>
<path d="M37.2347 75.3044C37.77 75.1413 38.3418 75.1413 38.8771 75.3044C39.2983 75.4307 39.2561 75.0096 38.9192 74.7148C38.6304 74.5622 38.314 74.4686 37.9886 74.4397C37.6632 74.4108 37.3353 74.447 37.0241 74.5463C36.3924 74.8411 36.6091 75.5716 37.2347 75.3044Z" fill="#191919"/>
<path d="M21.145 69.534C21.6202 68.4884 22.4583 67.6505 23.5041 67.1756C22.6197 60.605 13.438 59.847 10.6126 66.377C7.78708 72.907 13.4771 76.025 14.6563 78.4224C15.7934 80.8229 16.4672 84.5297 15.7092 86.003C14.9511 87.4349 15.8776 87.5191 16.9305 85.5436C17.7728 83.9432 19.2889 79.2647 18.0676 75.3932C16.7651 71.387 20.0079 69.2392 21.145 69.534Z" fill="#191919"/>
<path d="M64.5679 103.017C59.2194 102.936 50.3746 102.722 45.5315 103.143C41.7404 103.48 40.8139 104.66 39.9295 107.945C38.6661 112.746 36.6446 120.791 35.9707 125.381C30.8816 125.306 25.792 125.503 20.7238 125.971C18.8287 126.224 18.7024 127.613 19.292 128.203C19.5868 128.498 19.9658 128.077 19.7514 127.782C19.7097 127.707 19.6831 127.625 19.6732 127.54C19.6633 127.455 19.6703 127.369 19.6938 127.287C19.7173 127.205 19.7568 127.128 19.8101 127.061C19.8633 126.994 19.9292 126.939 20.0041 126.897C21.0569 126.182 33.8191 126.055 35.63 126.055C36.3038 126.055 36.5144 125.971 36.6829 125.255C37.9463 119.317 39.5926 112.494 41.1049 106.892C41.5643 105.081 42.9579 104.112 45.1907 103.944C50.834 103.48 58.7944 103.733 64.7746 103.817C66.8811 103.859 68.1438 104.702 67.9761 107.061C67.7655 110.219 64.9852 119.906 63.9744 123.486C63.6541 124.89 63.1589 126.248 62.5004 127.529C62.2478 127.95 62.8795 128.414 63.1322 127.989C63.8888 126.406 64.4951 124.757 64.9431 123.061C66.2907 118.344 68.1866 111.521 68.7762 107.352C69.0366 104.491 67.4324 103.061 64.5679 103.017Z" fill="#191919"/>
<path d="M53.0697 113.125C52.899 113.377 53.1961 113.757 53.4909 113.547C53.7869 113.305 54.1551 113.17 54.5369 113.162C54.9186 113.155 55.292 113.275 55.5974 113.504C56.1448 114.01 56.2712 115.063 55.2604 116.874C53.9962 119.191 52.2696 119.528 51.5084 118.601C50.5819 117.464 51.4663 115.147 52.3507 114.22C52.5613 113.968 52.1823 113.589 51.9679 113.799C50.1148 115.484 49.7779 117.969 50.8308 119.106C52.5153 120.959 54.9587 119.443 55.8845 117.464C56.432 116.284 57.2743 114.684 56.5162 113.462C56.3595 113.155 56.128 112.892 55.8429 112.698C55.5579 112.503 55.2285 112.384 54.8852 112.35C54.5419 112.317 54.1956 112.37 53.8783 112.506C53.561 112.641 53.283 112.854 53.0697 113.125Z" fill="#191919"/>
<path d="M58.1246 61.3638C59.0979 60.739 57.8298 59.0889 56.8229 60.0996C55.9768 60.9005 57.3283 61.8745 58.1246 61.3638Z" fill="#191919"/>
<path d="M47.8481 62.0791C48.9462 62.4918 49.7854 61.2789 49.1115 60.6472C48.185 59.7628 46.5885 61.6058 47.8481 62.0791Z" fill="#191919"/>
<path d="M52.5229 61.8271C53.9977 62.2865 54.5444 60.3952 53.1125 60.0583C52.186 59.8477 51.3024 61.4458 52.5229 61.8271Z" fill="#191919"/>
<path d="M108.454 69.3234C108.248 68.9 107.739 69.0286 107.78 69.4077C107.949 70.7094 110.56 70.9238 111.319 69.4919C112.665 66.8808 108.409 66.1227 107.865 67.8073C107.655 68.439 108.201 68.3969 108.497 67.9337C108.875 67.3019 111.36 67.5508 110.687 69.0707C110.392 69.8288 108.799 70.0355 108.454 69.3234Z" fill="#38A1FF"/>
<path d="M101.253 60.5216C101.211 62.8379 103.653 63.6802 105.506 64.0592C112.287 65.449 115.362 61.8272 114.519 59.2995C114.515 59.2655 114.503 59.2329 114.485 59.2038C114.467 59.1747 114.442 59.1499 114.414 59.131C114.385 59.112 114.353 59.0994 114.319 59.094C114.285 59.0886 114.25 59.0906 114.217 59.0996C114.184 59.1087 114.154 59.1248 114.127 59.1468C114.101 59.1688 114.08 59.1961 114.065 59.227C114.05 59.2579 114.042 59.2917 114.041 59.326C114.04 59.3603 114.047 59.3943 114.06 59.4259C114.313 62.501 110.732 63.6373 108.247 63.6802C106.31 63.7223 100.962 62.7116 102.099 59.7628C102.309 59.2574 101.93 58.9626 101.639 59.2574C99.9127 61.0691 97.3008 60.5637 96.0374 58.373C94.6898 56.0146 95.4057 52.6876 98.3537 53.0666C98.4432 53.0718 98.5315 53.0439 98.6018 52.9883C98.6721 52.9326 98.7196 52.8531 98.7352 52.7648C98.7508 52.6765 98.7334 52.5856 98.6864 52.5092C98.6393 52.4329 98.5659 52.3765 98.48 52.3507C95.9953 51.3399 95.5703 47.4647 98.5643 45.6537C101.429 43.9271 103.829 44.8957 105.767 47.1699C106.103 47.591 106.525 47.5068 106.567 46.6645C106.777 44.4745 109.557 43.2111 111.537 43.7165C112.062 43.8868 112.548 44.1599 112.967 44.52C113.386 44.8801 113.728 45.3199 113.975 45.8138C114.222 46.3077 114.369 46.8458 114.405 47.3967C114.442 47.9477 114.369 48.5005 114.19 49.0229C114.064 49.4057 114.443 49.529 114.738 49.4448C117.349 48.7702 120.128 51.6347 120.381 54.1195C120.802 58.1625 117.18 58.2888 114.99 57.8255C114.569 57.7413 114.653 58.2084 114.99 58.3309C118.149 59.3838 121.434 57.9098 121.055 54.1195C120.802 51.3399 117.896 48.3069 114.948 48.7702C115.153 47.8491 115.092 46.8887 114.771 46.0012C114.45 45.1137 113.884 44.3359 113.137 43.7586C110.441 41.7792 106.44 43.5059 105.893 46.2433C105.041 45.1863 103.846 44.4604 102.516 44.1912C101.185 43.922 99.8022 44.1265 98.6064 44.7693C95.7426 46.2433 94.395 50.0765 97.091 52.2665C95.1109 52.7297 94.2265 54.7091 94.4792 56.7306C95.1032 60.3532 98.7672 62.2483 101.253 60.5216Z" fill="#38A1FF"/>
<path d="M146.91 129.299C110.926 128.929 51.5659 128.227 6.32519 130.267C6.03039 130.267 6.0725 131.194 6.3673 131.194C49.8698 130.094 89.6334 129.248 146.952 130.52C147.329 130.52 147.286 129.303 146.91 129.299Z" fill="#38A1FF"/>
<path d="M49.3218 102.136C51.4275 102.136 55.5555 102.136 58.3771 102.094C58.994 99.2178 59.4287 96.3059 59.6788 93.3752C57.4468 93.67 53.2346 93.4595 51.3815 92.7435C50.9451 95.924 50.2564 99.0646 49.3218 102.136Z" fill="#38A1FF"/>
<path d="M18.1165 127.864C17.9963 127.344 18.0558 126.799 18.2853 126.317C18.5147 125.835 18.9006 125.445 19.38 125.211C20.517 124.663 32.1842 124.579 34.924 124.453C35.0503 123.779 35.4293 121.968 35.9768 119.609C29.0825 118.226 22.0756 117.478 15.0445 117.377C14.4128 117.377 14.6654 116.787 15.0445 116.787C16.0552 116.745 17.066 116.745 18.0767 116.745C18.8556 113.665 20.0159 110.694 21.5308 107.901C21.6993 107.606 22.0783 107.774 21.952 108.069C20.647 110.873 19.6035 113.791 18.8348 116.787C24.6605 117.01 30.4612 117.671 36.1874 118.767C37.1139 114.765 38.3773 109.628 39.5565 106.174C40.5673 103.099 42.1676 102.341 44.3162 102.215C45.7192 102.154 47.1237 102.14 48.5276 102.173C48.6961 101.667 48.8645 101.162 49.033 100.53C46.9694 97.1609 42.5466 94.17 36.5243 93.7068C34.4607 96.1502 28.6903 95.8975 25.5317 92.9066C23.6787 93.1172 17.5683 94.4648 13.9074 98.5928C8.76868 104.489 1.77771 118.009 5.14685 125.126C6.8253 128.751 16.2176 128.077 18.1165 127.864Z" fill="#38A1FF"/>
<path d="M76.1505 29.2284C76.2799 28.1755 75.5609 22.8262 75.0134 22.3208C74.9812 22.2871 74.9411 22.2618 74.8967 22.2474C74.8523 22.2329 74.805 22.2297 74.7591 22.2381C74.7131 22.2464 74.67 22.2661 74.6335 22.2952C74.597 22.3244 74.5684 22.3621 74.5501 22.4051C74.3817 22.7841 75.3924 28.5538 75.5188 29.2284C75.535 29.3 75.5751 29.3639 75.6325 29.4098C75.6899 29.4556 75.7612 29.4805 75.8346 29.4805C75.9081 29.4805 75.9793 29.4556 76.0367 29.4098C76.0941 29.3639 76.1342 29.3 76.1505 29.2284Z" fill="#38A1FF"/>
<path d="M82.0894 50.7074C82.1205 50.6438 82.1347 50.5732 82.1304 50.5025C82.1261 50.4318 82.1036 50.3634 82.0651 50.304C82.0265 50.2447 81.9732 50.1963 81.9103 50.1636C81.8475 50.131 81.7773 50.1152 81.7065 50.1178C80.9906 50.1178 80.0219 51.5083 76.4836 51.0022C76.1007 50.9601 75.8519 51.5083 76.2309 51.6768C78.4675 52.5175 81.7479 51.5068 82.0894 50.7074Z" fill="#38A1FF"/>
<path d="M86.3847 43.2953C87.9029 44.1771 89.4956 44.924 91.1444 45.5274C91.2168 45.5386 91.291 45.5265 91.3562 45.4929C91.4213 45.4592 91.4741 45.4057 91.5069 45.3401C91.5397 45.2746 91.5508 45.2003 91.5386 45.1279C91.5265 45.0556 91.4916 44.989 91.4392 44.9378C89.9271 44.0558 88.3331 43.3223 86.6795 42.7479C86.6069 42.7088 86.5217 42.7001 86.4428 42.7238C86.3638 42.7475 86.2974 42.8016 86.2584 42.8742C86.2193 42.9468 86.2106 43.032 86.2343 43.1109C86.258 43.1899 86.3121 43.2562 86.3847 43.2953Z" fill="#38A1FF"/>
<path d="M78.3414 52.6033C78.255 52.5849 78.1649 52.5994 78.0886 52.644C78.0124 52.6886 77.9556 52.76 77.9292 52.8443C77.9029 52.9286 77.9089 53.0197 77.9462 53.0997C77.9835 53.1798 78.0493 53.243 78.1308 53.2771C79.1836 53.8667 81.0405 53.1929 80.3207 52.5611C79.9869 52.2663 79.4769 52.8238 78.3414 52.6033Z" fill="#38A1FF"/>
<path d="M85.4582 33.3977C86.0869 33.1374 89.4599 29.1863 90.0074 28.4282C90.2179 28.1334 89.7547 27.8386 89.502 28.0492C88.107 29.3952 86.7853 30.8151 85.5425 32.3027C84.7423 33.1871 85.1619 33.5202 85.4582 33.3977Z" fill="#38A1FF"/>
<path d="M74.8447 46.7065C74.8788 46.7818 74.9383 46.8427 75.0127 46.8787C75.0871 46.9147 75.1718 46.9234 75.2519 46.9033C75.3321 46.8833 75.4027 46.8358 75.4515 46.769C75.5002 46.7022 75.5239 46.6205 75.5186 46.538C75.2238 44.685 73.5392 43.6283 72.6089 42.116C70.6716 38.9567 73.2406 35.3348 76.5255 34.4926C79.2216 33.7766 82.2538 34.7452 82.9697 37.988C83.6014 40.7684 82.338 42.7898 81.4536 45.3167C81.2852 45.8642 81.8365 46.0326 82.0853 45.5273C83.2224 43.3833 84.3174 40.8105 83.9805 38.3671C83.3909 34.4504 80.106 32.7238 76.4413 33.6082C73.2406 34.4083 70.5031 37.1879 71.0506 40.6841C71.5177 43.5479 74.0277 44.3389 74.8447 46.7065Z" fill="#38A1FF"/>
<path d="M75.7751 49.9073C76.7442 50.2519 77.7793 50.3704 78.8012 50.2536C79.8231 50.1368 80.8048 49.7879 81.6711 49.2334C82.0501 48.9386 81.8817 48.3069 81.3342 48.5175C79.1021 49.3177 78.2177 49.5282 76.027 49.2334C75.6449 49.1913 75.3922 49.7426 75.7751 49.9073Z" fill="#38A1FF"/>
<path d="M64.1892 46.8329C63.8959 47.2158 64.1892 47.7173 65.0315 47.1277C66.2014 46.3996 67.3139 45.583 68.3593 44.6851C68.4152 44.6362 68.4515 44.5686 68.4613 44.4949C68.4711 44.4212 68.4538 44.3464 68.4125 44.2846C68.3713 44.2227 68.309 44.178 68.2372 44.1587C68.1654 44.1394 68.089 44.1469 68.0224 44.1797C66.6688 44.9493 65.3861 45.8371 64.1892 46.8329Z" fill="#38A1FF"/>
<path d="M67.3523 35.5876C67.4219 35.6058 67.4956 35.5989 67.5606 35.5681C67.6256 35.5374 67.6777 35.4848 67.7078 35.4196C67.7379 35.3543 67.7441 35.2806 67.7253 35.2112C67.7065 35.1418 67.664 35.0813 67.605 35.0401C65.9205 33.9478 64.1611 32.9755 62.34 32.1304C62.2643 32.1067 62.1826 32.1107 62.1096 32.1417C62.0366 32.1727 61.977 32.2287 61.9415 32.2997C61.906 32.3706 61.897 32.4519 61.916 32.5289C61.935 32.6059 61.9808 32.6737 62.0452 32.72C63.7442 33.8002 65.5177 34.7584 67.3523 35.5876Z" fill="#38A1FF"/>
<path d="M75.7751 48.3061C77.1733 48.7449 80.7032 48.0534 81.4613 47.4638C81.9667 47.0427 81.5034 46.4531 80.8717 46.7058C79.2999 47.3026 77.6235 47.5748 75.9436 47.506C75.1817 47.4638 75.0592 48.0841 75.7751 48.3061Z" fill="#38A1FF"/>
<path d="M79.183 45.8642C79.129 43.6448 79.3268 41.4264 79.7726 39.2515C79.7831 39.1813 79.7668 39.1098 79.7269 39.0511C79.687 38.9924 79.6264 38.951 79.5573 38.935C79.4881 38.9191 79.4155 38.9298 79.3539 38.965C79.2924 39.0003 79.2463 39.0575 79.2251 39.1252C78.671 41.3255 78.472 43.6003 78.6355 45.8634C78.6335 45.9006 78.639 45.9378 78.6519 45.9727C78.6647 46.0077 78.6845 46.0396 78.71 46.0667C78.7356 46.0937 78.7664 46.1153 78.8006 46.13C78.8348 46.1447 78.8716 46.1524 78.9088 46.1524C78.946 46.1525 78.9829 46.1449 79.0171 46.1303C79.0513 46.1157 79.0822 46.0942 79.1078 46.0672C79.1335 46.0403 79.1534 46.0084 79.1663 45.9734C79.1792 45.9385 79.1849 45.9014 79.183 45.8642Z" fill="#38A1FF"/>
<path d="M78.1721 38.8732C77.0589 39.1705 75.9123 39.3249 74.7601 39.3327C74.6965 39.3331 74.6343 39.3507 74.5798 39.3835C74.5254 39.4163 74.4807 39.4631 74.4506 39.5191C74.4204 39.5751 74.4059 39.6381 74.4085 39.7017C74.4111 39.7652 74.4307 39.8268 74.4653 39.8802C75.3287 41.832 76.0881 43.8282 76.7403 45.8604C76.8666 46.2432 77.2456 46.1552 77.1614 45.7762C76.7678 43.788 76.1457 41.8519 75.3076 40.0065C76.3554 39.957 77.3909 39.7585 78.3827 39.4169C78.4468 39.3836 78.4963 39.3278 78.5219 39.2603C78.5474 39.1927 78.547 39.1181 78.521 39.0508C78.4949 38.9834 78.4449 38.9281 78.3805 38.8953C78.3161 38.8625 78.2419 38.8547 78.1721 38.8732Z" fill="#38A1FF"/>
<path d="M47.6374 68.2285C47.7414 70.2432 47.4244 72.2574 46.7065 74.1427C45.9887 76.028 44.8857 77.743 43.4681 79.1782C42.6679 79.9784 43.3417 80.1468 44.1419 79.852C47.9322 78.378 51.3396 74.0403 52.3121 70.165C52.4805 69.4912 51.8909 69.5333 51.8067 69.9544C51.2897 71.8596 50.3877 73.6386 49.1563 75.1816C47.9249 76.7246 46.3903 77.9988 44.6473 78.9255C47.2255 76.024 48.5714 72.2318 48.3993 68.3541C48.3572 67.7224 48.2729 67.6802 47.5149 67.5539C41.0285 66.5432 38.628 57.2351 48.8625 53.487C58.0021 50.1592 65.0359 56.3507 63.4348 62.5844C62.2556 67.2591 57.2861 67.975 53.2003 67.975C52.6528 67.975 52.6949 68.6489 53.2424 68.6489C57.4538 68.7331 62.2556 68.1435 63.8139 63.9321C67.183 54.961 57.7494 50.0726 49.789 52.3078C36.8975 56.0146 40.1403 67.9337 47.6374 68.2285Z" fill="#38A1FF"/>
</svg>
