<svg width="154" height="154" viewBox="0 0 154 154" fill="none" xmlns="http://www.w3.org/2000/svg">
<path d="M114.504 67.3705C115.166 67.6965 115.89 67.8743 116.628 67.8917C116.669 67.887 116.709 67.8741 116.745 67.8537C116.782 67.8334 116.814 67.806 116.839 67.7732C116.865 67.7404 116.884 67.7028 116.895 67.6626C116.906 67.6224 116.909 67.5805 116.904 67.5391C116.842 67.0562 116.298 67.4701 114.788 66.7726L114.865 66.2054C114.903 66.0444 114.711 65.7838 114.504 65.8604C114.297 65.9371 114.244 66.1824 114.182 66.627C114.121 67.0715 114.09 67.1635 114.504 67.3705ZM34.4939 69.5474C35.4163 69.2966 36.2825 68.8726 37.0464 68.298C37.3454 68.068 37.2457 67.5315 37.1614 67.2249C37.1374 67.1453 37.0849 67.0774 37.0139 67.0342C36.9429 66.991 36.8585 66.9755 36.7768 66.9907C36.6952 67.0059 36.622 67.0507 36.5713 67.1166C36.5206 67.1824 36.496 67.2646 36.5022 67.3475C36.5168 67.5136 36.5476 67.678 36.5942 67.8381C34.7775 69.1642 34.0723 68.8346 34.1796 69.3711C34.2035 69.4324 34.2478 69.4835 34.3052 69.5156C34.3625 69.5478 34.4292 69.559 34.4939 69.5474ZM32.4089 68.1294C33.942 68.1294 33.4207 67.2249 33.0068 67.3628L32.4166 67.4548C31.9107 65.0556 32.3169 64.5497 31.88 64.5343C31.8141 64.5301 31.7492 64.5517 31.6991 64.5947C31.6489 64.6377 31.6176 64.6985 31.6117 64.7643C31.5576 65.7121 31.6272 66.6629 31.8187 67.5928C31.903 68.0067 32.0563 68.1294 32.4089 68.1294ZM76.9214 66.8109C77.3583 66.8109 79.6579 66.3127 80.0488 66.2514C80.6237 66.1517 81.3059 65.9754 81.3519 65.3545C81.3519 64.9713 81.076 64.5267 80.7617 64.7566C80.6963 64.8025 80.648 64.8688 80.6244 64.9451C80.6008 65.0215 80.6033 65.1034 80.6314 65.1782C80.7463 65.4772 80.5011 65.4542 76.7987 66.259C76.7307 66.2801 76.673 66.326 76.6372 66.3876C76.6014 66.4492 76.5902 66.522 76.6056 66.5915C76.6211 66.6611 76.6621 66.7222 76.7206 66.7629C76.7791 66.8035 76.8508 66.8207 76.9214 66.8109ZM26.5066 48.0463C26.6753 48.2379 27.0892 48.0463 26.9666 47.755C26.2 45.8846 24.7896 43.7997 23.9004 41.7454C23.7625 41.4158 23.4865 40.8562 23.2182 40.8255C23.1846 40.8208 23.1504 40.8255 23.1193 40.839C23.0882 40.8525 23.0614 40.8744 23.0419 40.9022C22.8733 41.1322 23.1186 41.7684 23.2336 42.0367C23.5862 42.7955 25.2955 46.6588 26.5066 48.0463ZM51.3576 44.8115C51.3719 44.8713 51.4017 44.9264 51.4439 44.9712C51.4862 45.0159 51.5394 45.0489 51.5983 45.0667C51.6572 45.0845 51.7197 45.0866 51.7797 45.0728C51.8397 45.0589 51.895 45.0296 51.9401 44.9878C52.573 44.4115 53.1481 43.7749 53.6572 43.0868C55.9567 50.4455 55.9567 50.7061 56.317 50.7061C56.3687 50.7047 56.4194 50.6921 56.4658 50.6694C56.5121 50.6466 56.5531 50.6141 56.5858 50.5741C56.6185 50.5341 56.6423 50.4876 56.6554 50.4376C56.6685 50.3876 56.6708 50.3354 56.662 50.2845C55.8034 47.571 54.8989 44.9188 54.1171 42.213C54.0995 42.1457 54.0625 42.0851 54.0107 42.0389C53.9589 41.9926 53.8945 41.9626 53.8257 41.9528C53.7569 41.943 53.6868 41.9537 53.624 41.9836C53.5613 42.0135 53.5088 42.0613 53.4732 42.121C53.033 42.8133 52.519 43.4559 51.9401 44.0373C51.4802 41.937 50.4071 37.1385 50.4071 37.1385C50.3878 37.0613 50.3385 36.9949 50.2703 36.9539C50.202 36.9129 50.1202 36.9008 50.043 36.9201C49.9657 36.9394 49.8993 36.9886 49.8583 37.0569C49.8174 37.1252 49.8052 37.2069 49.8245 37.2842C50.0851 38.4723 51.1966 44.2826 51.3576 44.8115ZM11.429 84.6864C8.96076 83.506 6.76081 82.2949 4.23126 80.9611C3.74068 80.7005 3.40341 81.5973 4.16994 81.8043C6.37844 83.1828 8.73338 84.3114 11.1914 85.1693C11.498 85.2537 11.7126 84.8551 11.429 84.6864ZM13.3913 66.9872C13.444 67.0339 13.5097 67.0632 13.5796 67.0715C13.6494 67.0797 13.7202 67.0663 13.7822 67.0332C14.2881 66.7879 13.6366 66.1824 13.8819 62.5414C20.0984 70.0457 19.7535 69.8541 20.0141 69.8541C20.0681 69.8574 20.1219 69.8453 20.1692 69.8191C20.2165 69.7929 20.2553 69.7537 20.2811 69.7062C20.3069 69.6587 20.3185 69.6048 20.3147 69.5508C20.3109 69.4969 20.2917 69.4452 20.2594 69.4018C19.2859 68.1754 15.024 62.8786 13.8895 61.4375C13.8469 61.3835 13.7896 61.3428 13.7245 61.3203C13.6595 61.2978 13.5893 61.2944 13.5224 61.3105C13.4554 61.3266 13.3945 61.3616 13.3468 61.4113C13.2991 61.461 13.2667 61.5233 13.2533 61.5909C13.0975 62.9908 13.0718 64.4021 13.1767 65.8068C10.8771 63.7448 8.67714 61.5602 6.35455 59.5519C6.28424 59.4955 6.19628 59.4656 6.10615 59.4676C6.01602 59.4696 5.92948 59.5033 5.86174 59.5628C5.79401 59.6223 5.74941 59.7038 5.7358 59.7929C5.72219 59.8821 5.74043 59.9731 5.78732 60.0501C6.69183 61.4529 11.7969 65.5385 13.3913 66.9872ZM73.8552 38.5566C73.8552 38.6318 73.8851 38.704 73.9383 38.7572C73.9915 38.8103 74.0636 38.8402 74.1389 38.8402C74.2141 38.8402 74.2862 38.8103 74.3394 38.7572C74.3926 38.704 74.4225 38.6318 74.4225 38.5566C74.5539 35.7411 74.4359 32.9195 74.0699 30.1248C74.062 30.051 74.0329 29.9812 73.9861 29.9236C73.9393 29.8661 73.8768 29.8234 73.8062 29.8007C73.7356 29.778 73.6599 29.7762 73.5884 29.7956C73.5168 29.8151 73.4524 29.8548 73.403 29.9101C73.058 30.3547 73.8859 31.7575 73.8552 38.5566ZM94.5976 51.8712C100.431 42.029 100.117 42.5196 100.071 42.3433C99.9403 41.8987 99.5723 42.1133 96.6212 43.0025C97.3877 40.2813 98.3459 37.3762 98.9821 34.6243C98.9953 34.5353 98.9748 34.4446 98.9245 34.37C98.8742 34.2954 98.7978 34.2423 98.7104 34.2212C98.623 34.2001 98.5308 34.2124 98.452 34.2558C98.3732 34.2992 98.3135 34.3705 98.2846 34.4557C97.4184 37.5218 96.5599 40.5189 95.732 43.4624C95.7186 43.5233 95.7209 43.5865 95.7387 43.6462C95.7564 43.7059 95.789 43.7602 95.8335 43.8038C95.8779 43.8475 95.9327 43.8792 95.9927 43.8959C96.0527 43.9126 96.116 43.9138 96.1766 43.8993C96.1766 43.8993 98.2079 43.2708 99.0281 43.0025L94.13 51.6106C94.101 51.6721 94.0965 51.7423 94.1173 51.807C94.1381 51.8717 94.1827 51.9261 94.2421 51.9592C94.3015 51.9923 94.3712 52.0016 94.4372 51.9853C94.5031 51.969 94.5605 51.9282 94.5976 51.8712ZM149.404 74.3536C149.006 74.162 141.632 78.7458 141.555 78.7995C141.287 78.9911 141.555 79.4664 141.831 79.3207C142.276 79.1214 149.32 75.2044 149.558 74.7828C149.576 74.7446 149.586 74.7032 149.589 74.6609C149.591 74.6186 149.584 74.5763 149.57 74.5364C149.556 74.4965 149.534 74.4599 149.506 74.4285C149.477 74.3971 149.443 74.3717 149.404 74.3536ZM129.889 65.5921C129.889 65.5921 137.278 59.9581 138.658 58.885C138.957 58.6474 138.658 58.1185 138.305 58.1568C136.914 58.19 135.529 58.3464 134.166 58.6244C136.144 56.5136 137.897 54.2014 139.394 51.7256C139.647 51.3117 139.033 50.8824 138.788 51.304C137.099 54.0588 135.09 56.6036 132.801 58.885C132.556 59.1226 132.709 59.7052 133.108 59.6515C134.461 59.307 135.841 59.0763 137.232 58.9617C137.232 58.9617 131.376 63.6758 129.567 65.1706C129.536 65.2194 129.521 65.2764 129.524 65.3339C129.527 65.3914 129.547 65.4468 129.582 65.4925C129.617 65.5383 129.665 65.5723 129.72 65.5901C129.775 65.6079 129.833 65.6086 129.889 65.5921ZM119.318 43.4011C124.025 35.2912 124.845 34.1107 124.055 33.9114C123.718 33.8271 123.733 33.8578 118.789 43.1098C118.766 43.178 118.768 43.2522 118.794 43.3194C118.82 43.3865 118.869 43.4424 118.932 43.4771C118.995 43.5119 119.068 43.5233 119.139 43.5094C119.209 43.4955 119.273 43.4572 119.318 43.4011Z" fill="black"/>
<path d="M141.042 93.4326C137.914 83.5673 130.011 75.9787 119.341 72.6212C119.334 72.4259 119.313 72.2313 119.28 72.0387C122.193 70.7662 122.844 66.3894 122.2 62.5797C122.76 61.6675 124.247 56.9764 123.151 57.6202L121.15 58.8007C120.866 58.0342 120.537 57.3213 120.184 56.6161C120.261 55.3896 119.142 53.1974 117.172 51.7639C115.363 50.4455 112.251 49.2651 107.713 51.1507C104.171 52.6225 100.178 55.8726 99.5723 60.5944C98.8057 66.7266 100.837 69.7008 97.0427 75.3961C92.8501 73.4977 88.3811 72.2815 83.8047 71.7934C83.8049 71.4499 83.7819 71.1067 83.7357 70.7662C85.6904 69.7774 86.1043 66.558 86.1886 65.5078C88.4882 63.5149 88.7565 59.5442 86.9552 59.4523C87.4181 56.6077 87.5953 53.724 87.4841 50.8441C87.3844 49.0581 86.6179 48.6595 86.2653 48.5828C86.0165 48.5358 85.7594 48.5597 85.5235 48.6519C85.2877 48.7441 85.0825 48.9008 84.9315 49.1041C84.3566 47.9313 83.2528 48.0769 82.6319 48.9661C82.571 48.6505 82.4123 48.3621 82.1785 48.1416C81.9446 47.921 81.6474 47.7796 81.3288 47.7372C81.0102 47.6949 80.6863 47.7537 80.4029 47.9054C80.1196 48.0572 79.8911 48.2942 79.7498 48.5828C79.6012 48.2664 79.3618 48.0013 79.0622 47.8212C78.7626 47.6411 78.4161 47.5541 78.0669 47.5714C77.7178 47.5886 77.3816 47.7093 77.1012 47.9181C76.8207 48.1268 76.6087 48.4143 76.492 48.7438C75.7255 47.0804 73.7708 47.4637 73.3339 49.1501C72.759 47.8546 71.1876 47.8623 70.6434 49.3647C69.21 48.3069 68.0832 49.3647 67.8532 51.1047C67.714 54.0635 67.8371 57.0288 68.2212 59.9658C65.6226 59.3833 67.6463 65.4695 69.1946 65.6152C69.4629 67.9148 70.4134 70.4443 72.2608 71.0575C72.2608 71.3641 72.2148 71.6784 72.2148 71.985C67.2586 72.7765 62.489 74.4677 58.1413 76.9751C55.7497 75.2888 50.43 72.9968 45.3172 73.4184C44.3908 71.4612 43.6938 69.4035 43.2399 67.2862C42.9026 65.4389 43.7688 64.7107 43.7612 63.1163C44.7536 61.1162 45.0009 58.828 44.4587 56.6621C42.0441 48.9968 27.4571 51.9096 27.871 60.3261C27.9246 61.2843 28.009 62.2424 28.0933 62.986C26.2919 63.5302 26.5602 63.6605 27.0585 65.8528C27.3267 67.0486 27.6334 68.0374 28.8905 67.7768C29.4654 70.268 30.9141 74.2463 34.3328 74.2463C34.5398 74.2463 34.3328 74.116 34.5245 75.4038C25.947 79.1368 15.1772 86.1352 12.3871 98.3997C11.7125 101.358 11.3063 105.559 13.2379 108.733C15.3612 112.266 19.1172 112.489 21.8154 112.312C21.1838 115.782 20.9804 119.317 21.2098 122.837C21.2112 122.886 21.2261 122.934 21.2529 122.975C21.2796 123.016 21.3172 123.049 21.3615 123.071C21.4058 123.092 21.4551 123.101 21.5041 123.096C21.553 123.091 21.5997 123.073 21.6391 123.044C22.053 122.798 21.2405 122.538 22.5359 112.259C29.7566 111.592 36.6401 108.487 43.0023 105.222C44.0524 105.988 45.0949 106.755 46.1757 107.445C47.0643 109.241 48.426 110.762 50.1143 111.842C51.8026 112.923 53.7536 113.523 55.7574 113.577C55.5658 116.804 55.5658 120.039 55.7574 123.266C55.7602 123.305 55.7709 123.343 55.7888 123.378C55.8067 123.413 55.8313 123.443 55.8614 123.468C55.8914 123.493 55.9262 123.512 55.9637 123.523C56.0011 123.535 56.0404 123.538 56.0793 123.534C56.7385 123.473 55.8877 123.143 56.4089 113.569C62.7864 113.569 68.0219 109.407 73.2726 106.226C79.4508 109.054 94.5975 114.321 102.608 112.803C102.976 116.068 102.922 119.165 103.236 122.323C103.246 122.38 103.276 122.431 103.32 122.468C103.364 122.505 103.42 122.525 103.478 122.525C103.535 122.525 103.591 122.505 103.635 122.468C103.679 122.431 103.709 122.38 103.719 122.323C103.92 119.096 103.789 115.857 103.328 112.657C108.886 111.339 112.297 107.422 113.201 101.335C113.569 101.09 113.968 100.814 114.382 100.5C119.126 102.393 128.946 107 133.744 107.169C133.522 110.733 133.208 114.497 133.154 118.191C133.165 118.254 133.197 118.311 133.245 118.351C133.294 118.392 133.355 118.415 133.418 118.415C133.482 118.415 133.543 118.392 133.591 118.351C133.64 118.311 133.672 118.254 133.683 118.191C133.79 117.172 134.488 108.472 134.449 107.146C142.13 106.969 143.341 100.684 141.042 93.4326ZM86.3419 60.671C86.5489 60.3951 86.6639 60.0731 86.9628 60.1651C88.036 60.4794 87.1775 63.1469 86.2806 64.3351C86.3573 63.1163 86.3803 61.8822 86.3419 60.671ZM68.0448 60.671C68.2901 60.671 68.2595 60.7784 68.8114 60.8857L69.118 64.6723C67.9835 63.6222 67.1633 60.6864 68.0448 60.6864V60.671ZM121.303 59.9045C121.336 59.7968 121.41 59.7063 121.509 59.6532C121.608 59.6 121.725 59.5884 121.832 59.6209C121.94 59.6534 122.03 59.7274 122.084 59.8266C122.137 59.9258 122.148 60.0421 122.116 60.1498C121.848 61.1003 121.641 61.7902 121.464 62.4494C121.419 62.5314 121.355 62.6018 121.278 62.655C121.201 62.7082 121.113 62.7428 121.02 62.756C120.345 62.779 121.066 60.5944 121.303 59.8892V59.9045ZM108.403 62.9706C108.84 62.641 109.369 63.0626 109.453 63.0703C110.173 63.5302 110.986 62.8633 110.779 62.6717L110.626 62.549C110.058 62.1044 108.893 61.1846 109.139 60.5561C109.323 60.0808 110.074 60.1498 110.564 60.1268C110.582 60.1263 110.599 60.1218 110.614 60.1137C110.63 60.1056 110.643 60.0941 110.653 60.0801C110.664 60.0661 110.671 60.0499 110.674 60.0327C110.677 60.0156 110.676 59.998 110.672 59.9812C110.595 59.7359 110.503 59.4906 110.411 59.2146C113.308 57.7779 116.484 56.993 119.717 56.915C120.046 57.6816 120.33 58.4098 120.583 59.1303C119.625 59.6745 118.536 60.2724 118.283 61.3609C118.056 61.3326 117.824 61.3558 117.607 61.4288C117.389 61.5017 117.191 61.6226 117.026 61.7825C115.823 60.3338 110.84 60.4564 109.836 60.4947C108.541 60.5484 111.959 63.1623 112.902 63.8981C116.068 66.3587 118.138 64.6647 117.348 62.4187C117.459 62.283 117.604 62.1799 117.769 62.1205C117.934 62.0611 118.111 62.0476 118.283 62.0815C118.312 62.2271 118.358 62.3687 118.421 62.503C118.383 62.4841 118.341 62.4743 118.299 62.4743C118.256 62.4743 118.214 62.4841 118.176 62.503C117.862 62.7023 118.176 62.9706 118.896 64.2507C118.808 64.3411 118.713 64.4256 118.613 64.5037C118.322 64.7183 118.575 65.6535 119.548 64.5037C119.694 64.3274 119.418 63.8138 119.111 63.3616C119.481 63.6138 119.925 63.7356 120.372 63.7078C120.818 63.6801 121.243 63.5043 121.579 63.2083C121.914 65.2662 121.725 67.3754 121.027 69.3405C120.261 71.2185 118.337 71.3258 118.728 72.0387C118.829 74.5659 118.623 77.0961 118.115 79.5737C116.145 79.1444 112.266 74.3383 110.718 72.1077C110.878 70.2438 110.638 68.3672 110.012 66.604C109.499 65.7148 108.479 65.3085 108.211 64.3044C108.106 64.0805 108.069 63.831 108.103 63.5862C108.137 63.3413 108.241 63.1116 108.403 62.9246V62.9706ZM120.023 61.6905C119.939 61.9435 119.885 62.2961 119.609 62.2961C119.333 62.2961 119.195 61.9741 119.226 61.6982C119.257 61.4222 119.333 60.786 119.625 60.6174C119.681 60.5897 119.742 60.5753 119.805 60.5753C119.867 60.5753 119.929 60.5897 119.985 60.6174C120.345 60.717 120.154 61.2536 120.023 61.6445V61.6905ZM115.892 63.4535C115.807 63.6605 115.723 64.0361 115.478 64.1511C115.435 64.1721 115.388 64.183 115.34 64.183C115.292 64.183 115.245 64.1721 115.202 64.1511C114.742 63.9825 115.248 62.2731 115.662 61.9435C115.698 61.9067 115.743 61.8796 115.792 61.8647C115.841 61.8499 115.894 61.8477 115.944 61.8584C115.995 61.8691 116.041 61.8923 116.081 61.9259C116.12 61.9596 116.15 62.0025 116.168 62.0508C116.329 62.4034 115.938 63.2926 115.892 63.4076V63.4535ZM114.213 62.71C114.113 62.9093 114.067 63.0933 113.807 63.0933C113.745 63.0975 113.684 63.0867 113.628 63.0617C113.572 63.0366 113.523 62.9982 113.485 62.9498C113.447 62.9014 113.422 62.8444 113.411 62.7839C113.4 62.7234 113.405 62.6612 113.423 62.6027C113.508 62.3497 113.6 61.7748 113.906 61.6215C113.955 61.5991 114.008 61.5869 114.061 61.5856C114.115 61.5843 114.168 61.594 114.217 61.6142C114.267 61.6343 114.312 61.6644 114.349 61.7026C114.387 61.7407 114.416 61.7862 114.435 61.8362C114.543 62.0891 114.366 62.4341 114.213 62.71ZM110.38 72.5369C112.557 76.2929 118.291 81.7353 118.736 79.911C119.237 77.7453 119.469 75.526 119.425 73.3035C129.927 77.0135 137.056 83.8126 140.16 92.988C137.913 91.9155 135.444 91.3901 132.955 91.4549C132.847 88.933 129.39 84.0579 128.064 82.5938C127.796 82.2949 127.298 82.6781 127.589 82.9771C129.577 85.2285 131.099 87.8522 132.065 90.696C128.309 87.8675 120.744 83.9199 110.373 87.17C107.682 82.5774 103.753 78.8346 99.0357 76.3696C102.43 74.1495 106.335 72.8305 110.38 72.5369ZM70.4058 55.244C75.0153 53.9858 79.8587 53.8466 84.5329 54.8377C84.4543 56.1367 84.4953 57.4402 84.6556 58.7317H84.5176C83.8814 55.8036 79.8034 54.8991 78.4313 57.9652C77.7304 57.7275 76.9707 57.7275 76.2697 57.9652C74.9436 55.2057 71.1033 56.0948 70.3981 58.8237H70.2525C70.4136 57.6377 70.4649 56.4394 70.4058 55.244ZM80.8306 61.5525C80.9686 61.1616 82.2103 58.2641 83.0152 58.1798C83.0822 58.179 83.1484 58.1941 83.2084 58.2239C83.2683 58.2538 83.3203 58.2975 83.36 58.3514C83.3997 58.4054 83.426 58.468 83.4367 58.5342C83.4474 58.6003 83.4422 58.668 83.4215 58.7317C82.7372 59.7065 82.1273 60.7314 81.5971 61.7978C81.4055 62.2731 80.6543 62.0891 80.8306 61.5525ZM79.7191 60.4794C79.6271 60.7094 79.2132 60.8473 79.0676 60.5791C78.9219 60.3108 79.2745 59.2913 80.271 57.7965C80.524 57.4209 80.7616 57.237 80.9686 57.2676C81.0359 57.2869 81.0975 57.3223 81.148 57.3708C81.1986 57.4194 81.2364 57.4795 81.2584 57.546C81.2803 57.6126 81.2856 57.6834 81.2738 57.7525C81.2621 57.8216 81.2336 57.8867 81.1908 57.9422C80.6075 58.7306 80.1139 59.5816 79.7191 60.4794ZM73.0503 61.7518C73.3799 61.0313 73.7478 60.3031 74.1004 59.5902C74.1381 59.5215 74.1935 59.4641 74.261 59.4241C74.3284 59.3842 74.4053 59.3631 74.4837 59.3631C74.5621 59.3631 74.639 59.3842 74.7065 59.4241C74.7739 59.4641 74.8293 59.5215 74.867 59.5902C74.9151 59.663 74.9408 59.7483 74.9408 59.8355C74.9408 59.9227 74.9151 60.0081 74.867 60.0808C74.5297 60.7477 74.1848 61.4452 73.8168 62.1198C73.5255 62.503 72.8203 62.2118 73.0503 61.7518ZM72.1228 60.786L72.0768 60.8397C71.8392 61.1846 71.2413 60.9623 71.4023 60.5254C71.8448 59.3477 72.41 58.2198 73.0886 57.1603C73.4182 56.7617 74.0851 57.1067 73.8552 57.5743C73.3109 58.6627 72.644 59.6822 72.1228 60.786ZM69.3863 60.855C69.8769 60.648 70.0148 60.0885 70.1528 59.6056L70.3138 59.5596C70.2736 60.0914 70.3389 60.6258 70.506 61.1323C70.6731 61.6388 70.9386 62.1072 71.2873 62.5107C71.7007 62.9167 72.2188 63.1999 72.7838 63.3286C73.3487 63.4574 73.9384 63.4266 74.4869 63.2398C75.0354 63.053 75.5212 62.7175 75.8902 62.2706C76.2591 61.8238 76.4967 61.2833 76.5763 60.7094C76.4971 61.4476 76.4638 62.19 76.4767 62.9323C76.4767 63.3922 76.3694 63.9671 76.9366 64.0054H77.7031C78.1017 64.0054 78.209 63.3156 77.7491 63.3079H77.1819C77.1372 61.9422 77.2116 60.5751 77.4042 59.2223C77.4578 58.8467 76.9136 58.793 76.837 59.1456C76.4997 60.7937 76.837 59.8508 76.538 58.6321C77.0732 58.4402 77.6585 58.4402 78.1937 58.6321C78.0249 59.2466 77.9917 59.8905 78.0962 60.5191C78.2008 61.1478 78.4407 61.7463 78.7993 62.2731C79.0724 62.6269 79.4185 62.918 79.8139 63.1265C80.2094 63.3349 80.645 63.456 81.0913 63.4814C81.5376 63.5069 81.9842 63.4361 82.4007 63.2739C82.8173 63.1117 83.1942 62.8619 83.5058 62.5414C84.2588 61.701 84.6596 60.6031 84.6249 59.4752H84.7705C84.8625 60.1421 85.0005 61.062 85.7057 61.0083C85.6291 63.6298 85.859 68.1217 83.7817 69.7621C83.5134 69.9767 83.2068 70.222 83.1685 70.4673C83.0726 71.2796 83.0726 72.1003 83.1685 72.9125C83.3908 75.0358 79.6731 79.2364 77.7491 81.0301C74.0391 75.9863 72.9736 75.4881 72.9813 71.0652C72.9813 70.6206 72.9277 70.5516 72.621 70.3983C69.5166 68.8959 69.8002 64.565 69.3863 60.855ZM72.2531 72.6596C72.3374 75.0128 74.1848 78.1939 77.4425 81.6203C78.1017 82.4788 83.9274 75.3271 83.8124 73.7787V72.4833C99.5033 74.3306 110.748 83.3603 112.542 95.5328C106.026 94.2527 97.7939 95.7551 96.3988 96.0234C95.8005 92.2112 94.6731 88.5012 93.0491 85.0007C93.0216 84.9326 92.9683 84.8782 92.9007 84.8494C92.8331 84.8207 92.7569 84.82 92.6888 84.8474C92.6207 84.8749 92.5663 84.9282 92.5375 84.9958C92.5088 85.0634 92.5081 85.1396 92.5355 85.2077C93.9449 88.6626 94.9731 92.2611 95.6016 95.9391C91.5697 91.6925 85.4374 89.8069 76.8906 90.1901C71.7462 90.4286 66.6361 91.155 61.629 92.3594C62.0295 90.0219 62.9836 87.8141 64.4115 85.9206C64.4428 85.8635 64.4523 85.7969 64.4381 85.7334C64.424 85.6698 64.3873 85.6136 64.3347 85.5751C64.2822 85.5367 64.2175 85.5186 64.1526 85.5243C64.0878 85.5301 64.0272 85.5592 63.9822 85.6063C62.3716 87.5964 61.314 89.9759 60.9161 92.5051C55.3586 93.8382 49.9615 95.7683 44.819 98.2617C45.5242 83.2454 59.4061 75.1968 72.2531 72.6596ZM39.0087 58.4634C39.0008 59.1912 39.0444 59.9187 39.139 60.6404C36.3795 60.7094 31.9949 61.7825 28.7295 62.7943C28.6452 62.1198 28.4535 60.8933 28.4459 60.1651C31.7315 58.5992 35.3974 58.0086 39.0087 58.4634ZM36.5711 62.5797C35.038 65.1859 35.3677 65.6458 34.8541 65.6458C34.7964 65.6493 34.7388 65.6389 34.686 65.6155C34.6333 65.5921 34.5869 65.5564 34.5508 65.5113C34.5148 65.4662 34.4901 65.4131 34.4788 65.3565C34.4676 65.2999 34.4701 65.2414 34.4861 65.1859C35.1837 62.549 35.8506 62.0585 36.1878 61.9971C36.2614 61.9822 36.3377 61.9896 36.407 62.0184C36.4763 62.0472 36.5353 62.0961 36.5766 62.1587C36.6178 62.2214 36.6393 62.295 36.6384 62.3701C36.6374 62.4451 36.614 62.5181 36.5711 62.5797ZM34.2025 63.1546C33.9189 63.6222 33.8499 64.2737 33.436 64.1741C33.0221 64.0744 33.321 63.1393 33.5663 62.641C33.8116 62.1428 34.0262 62.1351 34.1719 62.1734C34.2539 62.1958 34.3269 62.2433 34.3806 62.3093C34.4342 62.3753 34.4658 62.4565 34.4708 62.5414C34.4408 62.7669 34.3478 62.9794 34.2025 63.1546ZM28.4995 64.6877C28.4152 64.887 28.4076 65.5002 27.9936 65.5002C27.9131 65.5033 27.8338 65.4793 27.7685 65.4321C27.7032 65.3848 27.6556 65.317 27.6334 65.2396C27.5928 64.7033 27.7633 64.1724 28.1086 63.7602C28.1798 63.6965 28.2693 63.657 28.3643 63.6474C28.4594 63.6378 28.555 63.6585 28.6375 63.7065C28.8215 63.8291 28.7832 64.1511 28.4995 64.6647V64.6877ZM28.7832 66.4737C29.4807 63.9671 29.8793 63.5992 30.1169 63.5455C30.1658 63.5343 30.2168 63.5369 30.2642 63.5532C30.3116 63.5694 30.3535 63.5986 30.3852 63.6375C30.4894 63.7583 30.5417 63.9153 30.5308 64.0744L29.519 66.6883C29.4875 66.7859 29.4185 66.867 29.3272 66.9137C29.236 66.9604 29.1299 66.9689 29.0323 66.9374C28.9347 66.9059 28.8536 66.8369 28.8069 66.7456C28.7602 66.6544 28.7516 66.5483 28.7832 66.4507V66.4737ZM29.5497 67.6311C31.0214 67.2019 31.4967 67.3245 31.3357 65.0863C31.282 64.45 31.1594 63.0013 31.8033 63.0243C32.3245 63.0243 32.3399 65.4465 33.1141 66.1977C33.8882 66.9489 34.8924 66.42 35.7356 66.1977C38.0352 65.5692 37.5293 64.588 37.3606 61.5449L39.2923 61.3916C40.1585 65.8834 41.3236 62.5184 42.1055 62.0125C42.6037 61.6982 43.033 62.3881 43.1249 62.917C43.3012 64.0514 42.3584 65.2932 42.5577 66.9566C43.0094 69.3641 43.7829 71.7 44.8573 73.9014C43.1786 77.0901 38.3571 80.0336 36.2108 81.1987C35.3063 77.918 35.2297 73.6101 34.6778 73.6254C32.1329 73.6407 30.4619 71.7167 29.519 67.6081L29.5497 67.6311ZM34.5935 76.1396C34.7314 77.2971 35.2987 82.2719 36.1265 81.8579C38.2115 80.8768 44.5584 76.7069 45.4629 74.024C46.8043 74.3306 50.9895 73.5181 57.4897 77.4351C52.693 80.3002 48.844 84.5117 46.421 89.5462C40.2198 88.7797 32.5468 87.8216 26.1003 91.2249C28.0703 86.5798 29.2507 86.1199 28.6912 85.7519C28.6622 85.7321 28.6295 85.7183 28.5951 85.7115C28.5607 85.7046 28.5252 85.7047 28.4909 85.7119C28.4565 85.719 28.424 85.7331 28.3951 85.7531C28.3663 85.7732 28.3419 85.7988 28.3232 85.8286C28.1239 86.1275 25.3261 90.7497 25.2571 91.6925C24.1763 92.3517 21.869 94.0381 21.1792 95.3642C18.3612 95.4192 15.6151 96.2637 13.2532 97.8018C15.5835 88.7797 22.9499 81.2907 34.5628 76.1166L34.5935 76.1396ZM14.7173 109.614C11.7892 106.548 12.4177 101.42 13.0233 98.6066C20.5046 93.6932 30.3929 95.7935 42.4274 104.862C38.3801 106.594 20.6963 115.815 14.7173 109.614ZM21.9534 95.3489C28.0396 88.6111 36.8394 89.0403 46.1067 90.1825C43.7305 95.6632 43.5235 101.45 45.5089 106.172C38.6101 101.006 30.4619 95.3259 21.9534 95.3259V95.3489ZM56.3553 112.979C48.8049 112.979 44.75 106.349 44.8573 98.9899C55.5887 94.1684 64.9634 91.7002 75.2349 90.9873C84.6172 90.3358 90.9335 92.0451 95.0727 96.353C74.8516 100.883 66.5041 112.956 56.3553 112.956V112.979ZM102.715 112.136C95.2107 113.83 82.7852 109.399 73.9548 105.866C88.0283 97.5565 100.691 94.4214 112.642 96.284C113.584 104.846 110.058 110.473 102.715 112.136ZM113.347 100.531C113.745 96.0982 112.808 91.6482 110.656 87.7526C118.889 85.6216 125.841 86.8634 131.882 91.5392C123.948 92.1295 115.953 98.323 113.339 100.531H113.347ZM134.196 106.487C129.505 106.487 119.632 101.887 115.087 100.032C119.947 96.353 125.703 92.4514 132.633 92.1754C135.34 92.0083 138.04 92.6003 140.428 93.8848C142.483 100.814 141.455 106.441 134.189 106.487H134.196Z" fill="black"/>
</svg>
