<svg width="154" height="154" viewBox="0 0 154 154" fill="none" xmlns="http://www.w3.org/2000/svg">
<path d="M26.0456 100.116C23.0254 100.936 14.448 103.642 13.1525 104.087C13.1525 94.9957 14.6089 27.9856 14.7546 21.3014C14.7489 21.2824 14.7373 21.2658 14.7214 21.254C14.7055 21.2421 14.6862 21.2357 14.6664 21.2357C14.6466 21.2357 14.6273 21.2421 14.6115 21.254C14.5956 21.2658 14.5839 21.2824 14.5783 21.3014C14.1797 27.2344 12.7693 100.254 12.7999 104.194C11.5811 104.608 6.05446 106.494 4.4984 107.015C4.40642 107.015 4.44474 107.191 4.4984 107.161C7.20425 106.325 12.7003 104.493 12.7616 104.478C12.7616 107.145 12.7923 109.815 12.8536 112.488C12.8536 112.52 12.8665 112.552 12.8895 112.575C12.9125 112.598 12.9437 112.611 12.9762 112.611C13.0088 112.611 13.04 112.598 13.063 112.575C13.086 112.552 13.0989 112.52 13.0989 112.488V104.355C15.6361 103.512 24.2979 100.906 26.0916 100.43C26.1223 100.414 26.1472 100.389 26.1629 100.358C26.1786 100.327 26.1843 100.291 26.1793 100.257C26.1743 100.223 26.1587 100.191 26.1348 100.165C26.1108 100.14 26.0797 100.123 26.0456 100.116ZM85.9883 84.8315C85.9883 84.8315 84.1639 92.7114 79.4114 90.1972C74.659 87.683 77.7327 82.6009 77.8094 77.6338C77.886 72.6666 73.9767 69.2786 73.9767 69.2786C73.9767 69.2786 75.1495 78.6609 69.4542 79.9334C63.7589 81.2058 59.083 75.8861 60.7234 68.3587C62.3638 60.8314 63.4676 56.6385 63.4216 54.0093C63.3756 51.3801 62.4021 50.5062 62.4021 50.5062C62.4021 50.5062 63.2453 56.4315 56.7068 59.7046C50.3369 62.8934 41.6598 68.3204 41.5142 78.7759C41.3685 89.4307 43.7371 92.6424 41.4452 93.0794C37.9958 93.7386 40.1267 88.2579 39.1073 84.5325C38.7713 83.4134 38.2179 82.3715 37.4786 81.4665C36.7394 80.5616 35.829 79.8114 34.7994 79.2588C34.7994 79.2588 38.0801 84.5555 34.5771 89.8906C31.074 95.2256 23.3321 101.764 33.4809 110.687C33.4809 110.687 32.6071 107.367 34.5081 105.252C36.4091 103.136 37.2446 102.73 38.1721 100.576C38.5525 99.8275 38.7718 99.0076 38.816 98.1691C38.816 98.1691 43.6375 104.669 47.5008 100.944C51.3641 97.2186 49.2101 92.0292 51.2031 89.446C53.1961 86.8628 54.0009 86.9624 54.0009 86.9624C54.0009 86.9624 51.2031 90.7568 54.3689 95.9998C57.5347 101.243 62.4021 96.0688 63.4216 92.1672C64.4411 88.2655 67.9135 89.2237 67.9135 89.2237C67.9135 89.2237 63.9352 90.1972 64.7784 93.9455C65.6216 97.6939 66.4877 97.7782 66.4877 97.7782C66.4877 97.7782 67.2543 94.4974 71.0869 95.3713C74.9196 96.2451 76.7976 99.8248 79.0205 99.3879C81.2434 98.951 81.964 96.1761 81.964 96.1761C81.964 96.1761 84.8155 100.561 84.4552 102.891C84.0949 105.221 81.964 107.927 81.964 107.927C83.9182 107.913 85.8111 107.244 87.3398 106.026C88.8686 104.809 89.9446 103.114 90.3958 101.212C92.3428 94.2445 85.9883 84.8315 85.9883 84.8315Z" fill="black"/>
<path d="M80.6762 83.6817C81.043 83.5212 81.3733 83.2878 81.647 82.9957C81.9207 82.7035 82.1322 82.3587 82.2684 81.9823C82.4046 81.6058 82.4629 81.2056 82.4395 80.8059C82.4162 80.4062 82.3117 80.0155 82.1326 79.6574C81.6734 78.9353 81.3875 78.1168 81.2971 77.2659C80.486 78.2367 80.0006 79.4381 79.9097 80.6999C79.6874 82.9305 80.6762 83.6817 80.6762 83.6817ZM66.9323 56.4239C66.641 54.6149 69.0633 54.2316 68.7336 51.7097C68.404 49.1878 66.4341 48.9732 66.4341 48.9732L66.9323 49.939C67.4229 50.9125 67.3462 52.4226 66.6027 54.1243C65.8591 55.826 66.9323 56.4239 66.9323 56.4239Z" fill="black"/>
<path d="M96.5585 78.0094C95.3135 78.2707 94.089 78.6217 92.8945 79.0596V75.4109H93.0095C93.776 75.4109 93.4541 68.6348 92.9635 66.2892C93.1475 46.3594 93.6074 10.3324 93.6074 9.94917C93.6074 9.92477 93.5977 9.90137 93.5805 9.88412C93.5632 9.86687 93.5398 9.85718 93.5154 9.85718C93.491 9.85718 93.4676 9.86687 93.4504 9.88412C93.4331 9.90137 93.4234 9.92477 93.4234 9.94917C92.6569 30.3772 92.5649 51.978 92.5803 65.492C92.1817 65.4383 91.2848 66.0975 90.2807 66.979L76.8357 36.2718C77.0733 26.8588 77.2573 16.595 77.2573 7.35063C77.2573 7.24331 77.0887 7.24331 77.081 7.35063C77.0273 8.30113 76.6977 21.9147 76.3681 35.9116L59.7804 32.5005C60.064 23.4861 60.34 14.74 60.3553 13.3372C60.3553 13.2759 60.2633 13.2759 60.2557 13.3372C60.1177 16.549 59.7344 22.8269 59.4048 32.5005L44.1202 35.214C44.1662 25.3181 44.1202 17.5072 44.1202 17.2542C44.1158 17.2425 44.108 17.2323 44.0977 17.2252C44.0874 17.2181 44.0752 17.2142 44.0627 17.2142C44.0502 17.2142 44.038 17.2181 44.0277 17.2252C44.0174 17.2323 44.0096 17.2425 44.0052 17.2542C43.9516 18.0207 43.8442 25.8087 43.7293 35.0607L28.9735 26.7439C29.0119 23.3788 29.0349 21.3168 29.0349 21.1942C29.0349 21.1791 29.0319 21.1641 29.0261 21.1502C29.0203 21.1362 29.0119 21.1235 29.0012 21.1129C28.9905 21.1022 28.9778 21.0937 28.9639 21.0879C28.9499 21.0822 28.935 21.0792 28.9199 21.0792C28.9048 21.0792 28.8898 21.0822 28.8759 21.0879C28.8619 21.0937 28.8493 21.1022 28.8386 21.1129C28.8279 21.1235 28.8194 21.1362 28.8137 21.1502C28.8079 21.1641 28.8049 21.1791 28.8049 21.1942C28.8049 21.9607 28.8049 23.8924 28.7512 26.6902L16.4868 26.4296C16.2784 26.4235 16.0761 26.5004 15.9245 26.6434C15.7728 26.7865 15.6842 26.9839 15.6781 27.1923C15.672 27.4007 15.7489 27.6029 15.8919 27.7546C16.035 27.9062 16.2324 27.9949 16.4408 28.001L28.7053 28.3536C28.4753 46.9036 27.7548 93.5087 27.7394 93.9303C27.7394 94.0682 27.9464 94.0682 27.9464 93.9303C28.1074 90.4042 28.7129 46.1524 28.9276 28.4455L43.7063 36.8774C43.53 51.1732 43.346 68.0752 43.3383 68.3511C43.3383 68.4508 43.4916 68.4508 43.4993 68.3511C43.8979 60.1799 44.0589 47.5092 44.1125 36.8237L59.3512 34.1485C59.1825 39.5143 59.0292 45.8458 58.9526 53.2198C58.9526 53.3118 59.0982 53.3118 59.0982 53.2198C59.1825 50.8206 59.4585 42.5344 59.7268 34.1102L76.3221 37.8279C75.9695 52.6832 75.6323 67.439 75.6246 67.6689C75.6246 67.6953 75.6351 67.7207 75.6538 67.7394C75.6725 67.7581 75.6978 67.7686 75.7242 67.7686C75.7507 67.7686 75.776 67.7581 75.7947 67.7394C75.8134 67.7207 75.8239 67.6953 75.8239 67.6689C75.9005 65.4306 76.3911 53.2965 76.7744 38.6557L89.0389 68.1518C87.5058 69.5699 86.1721 71.0417 86.1721 71.0417C85.8501 71.9155 91.1162 74.6903 92.6186 75.3266V79.1592C92.0513 79.3508 87.2069 81.1062 85.2982 81.6121C85.2777 81.6206 85.261 81.6363 85.2511 81.6561C85.2412 81.676 85.2389 81.6988 85.2445 81.7203C85.2501 81.7417 85.2633 81.7605 85.2816 81.773C85.2999 81.7855 85.3222 81.791 85.3442 81.7884C87.2605 81.3132 95.677 78.592 96.5662 78.2087C96.6965 78.1551 96.6505 78.0018 96.5585 78.0094ZM58.0557 107.804C57.85 108.012 57.7006 108.269 57.6215 108.551C57.5424 108.832 57.5362 109.13 57.6035 109.414C57.6887 109.665 57.8295 109.893 58.0153 110.081C58.2012 110.27 58.4272 110.414 58.6766 110.503C59.6476 110.792 60.6634 110.901 61.6737 110.825C61.6737 110.825 65.1231 113.661 65.2151 113.745C64.4486 114.381 63.3831 113.998 62.5169 113.944C62.3713 113.944 62.3713 114.136 62.5169 114.182C62.9926 114.382 63.5096 114.463 64.0236 114.419C64.5377 114.375 65.0333 114.207 65.4681 113.929C65.6533 114.086 65.8479 114.232 66.0506 114.366C66.068 114.374 66.0874 114.375 66.1057 114.371C66.1241 114.366 66.1404 114.355 66.1519 114.34C66.1634 114.325 66.1695 114.307 66.1692 114.288C66.1689 114.269 66.1623 114.25 66.1503 114.236C65.991 114.068 65.8221 113.909 65.6444 113.76C65.8043 113.568 65.9191 113.343 65.9804 113.101C66.0417 112.859 66.048 112.606 65.9987 112.361C65.9495 112.116 65.8459 111.886 65.6957 111.686C65.5455 111.486 65.3525 111.323 65.1308 111.208C64.0855 110.683 62.9163 110.455 61.7504 110.549C60.6466 109.644 59.5428 108.74 58.4236 107.843C58.5267 107.76 58.64 107.69 58.7609 107.636C59.1436 107.509 59.5505 107.473 59.9495 107.53C60.3485 107.587 60.7288 107.736 61.0605 107.965C61.1142 107.965 61.1602 107.965 61.1218 107.889C60.752 107.507 60.2544 107.275 59.7241 107.236C59.1938 107.198 58.6681 107.357 58.2473 107.682L57.4808 107.076C57.4118 107.023 57.3198 107.115 57.3812 107.168L58.0557 107.804ZM65.721 112.526C65.7455 112.714 65.7294 112.905 65.6739 113.086C65.6183 113.267 65.5246 113.435 65.3991 113.576L62.057 110.825C63.4674 110.84 65.5294 111.093 65.7134 112.526H65.721ZM58.2627 107.973C59.2822 108.847 60.317 109.698 61.3288 110.556C60.6048 110.562 59.8815 110.506 59.1672 110.388C57.6188 109.997 57.5038 108.755 58.255 107.973H58.2627Z" fill="black"/>
<path d="M102.269 127.888C101.143 126.914 85.1605 115.194 83.7118 114.213V112.94C83.7118 112.925 69.0251 102.01 68.9331 102.033C66.9401 102.546 41.9589 108.931 40.3491 109.414C40.3346 109.417 40.3209 109.423 40.3093 109.432C40.2977 109.442 40.2885 109.454 40.2824 109.467C40.2764 109.481 40.2738 109.496 40.2747 109.51C40.2756 109.525 40.2801 109.539 40.2878 109.552V110.119C39.6056 110.342 30.9285 112.848 30.9285 112.948C30.9285 114.542 31.1584 117.754 31.1584 117.769C30.9591 117.769 25.5014 118.873 25.4785 118.927C25.4555 118.98 25.4095 123.25 25.5244 124.101C25.5244 124.139 54.2617 146.652 54.3153 146.645C55.2735 146.399 67.7756 142.475 68.8794 142.199C68.914 142.188 68.9434 142.165 68.9618 142.134C68.9802 142.102 68.9864 142.066 68.9791 142.03C68.9177 141.677 68.8871 141.333 68.8487 140.98C68.8487 140.98 70.9644 141.877 71.0334 141.854C74.9043 140.666 84.8309 137.508 85.9117 137.14C85.972 137.1 86.0157 137.04 86.0344 136.971V136.043C86.0344 136.043 87.3988 136.611 87.4601 136.588C91.2928 135.193 100.989 131.943 102.024 131.559C102.054 131.549 102.079 131.527 102.094 131.498C102.108 131.47 102.111 131.436 102.101 131.406C102.17 131.207 102.269 128.6 102.3 127.995C102.308 127.976 102.309 127.955 102.303 127.936C102.297 127.917 102.286 127.9 102.269 127.888ZM101.963 127.888C101.748 127.934 92.6572 130.555 91.9367 130.823C91.8907 130.409 91.9367 126.991 91.9367 126.991C91.699 126.684 86.157 122.307 85.2525 121.579C86.18 121.387 90.074 120.046 91.1395 119.785C93.4697 121.518 101.327 127.481 101.963 127.918V127.888ZM82.0331 134.832L73.4326 137.201C73.5706 136.626 73.3483 132.387 73.3483 132.333L82.1634 129.934C82.1481 130.134 81.9564 134.733 81.9948 134.863L82.0331 134.832ZM73.2716 132.065C73.1337 131.874 63.4294 124.737 62.3256 123.917L68.0209 122.445C67.7738 122.586 67.579 122.804 67.4657 123.065C67.3524 123.326 67.3267 123.617 67.3923 123.894C67.5533 124.569 68.2969 125.166 69.6919 125.174C70.0675 125.174 70.4585 125.136 70.8417 125.097C70.9797 125.22 72.988 126.899 73.9079 127.596C73.1814 127.846 72.3973 127.875 71.6543 127.681C71.6322 127.678 71.61 127.684 71.5917 127.696C71.5733 127.709 71.5602 127.727 71.5546 127.749C71.549 127.77 71.5513 127.793 71.5612 127.813C71.571 127.833 71.5878 127.848 71.6083 127.857C72.4341 128.12 73.3257 128.087 74.1301 127.765C74.3678 127.949 74.6054 128.141 74.8507 128.317C75.096 128.493 75.1573 128.171 75.004 128.056L74.4061 127.589C74.6291 127.433 74.7949 127.209 74.878 126.95C74.9611 126.691 74.9569 126.412 74.866 126.155C74.5287 125.143 73.3789 124.752 72.4131 124.699C71.9284 124.684 71.4433 124.715 70.9644 124.791C70.5581 124.446 68.8258 122.913 68.3505 122.491C68.6341 122.338 70.7727 121.725 71.4933 121.518C71.4933 121.518 81.5732 129.413 81.9871 129.612C82.0331 129.612 82.0944 129.612 82.0637 129.536C81.8338 129.206 72.5818 121.962 71.8536 121.426C73.8159 120.904 81.2512 118.843 81.4812 118.781C81.4812 118.781 91.2391 126.799 91.5227 126.983C88.4183 127.934 75.6709 131.437 73.2333 132.096L73.2716 132.065ZM48.551 127.734C48.2751 127.734 45.4849 128.279 45.2013 128.34C45.2473 127.497 45.5079 123.38 45.5386 123.173C46.4661 123.051 50.291 122.407 50.5517 122.33L50.8889 122.614C50.1841 122.625 49.4835 122.725 48.804 122.913C48.804 122.913 48.5357 127.55 48.5127 127.765L48.551 127.734ZM48.551 127.88C48.551 128.064 48.551 128.24 48.4897 128.416C48.4284 128.593 52.1384 131.483 52.606 131.866C52.0234 132.004 47.1023 133.491 44.0055 133.606C43.6759 133.353 37.7736 128.631 35.1751 126.5C36.0949 126.393 41.0314 125.304 41.0314 125.304C41.43 125.611 44.1435 127.757 45.071 128.57C46.2296 128.431 47.3771 128.21 48.505 127.911L48.551 127.88ZM48.9573 123.097C48.9573 123.097 50.8889 122.836 51.1726 122.844C51.1726 122.844 54.6143 125.795 54.6449 125.787C57.0978 125.243 59.5967 124.615 62.0343 123.986L72.919 132.149C71.6543 132.487 63.2837 134.802 63.2607 134.825L48.9573 123.097ZM64.9471 122.966C64.8705 122.966 54.6909 125.611 54.6449 125.688L54.7216 120.322C58.102 119.663 61.4441 118.835 64.7785 117.953C64.6635 118.39 64.8168 122.599 64.9011 122.997L64.9471 122.966ZM74.1991 120.552C73.6319 120.705 67.584 122.307 65.1157 122.951C65.1157 122.553 65.0391 118.352 64.9778 117.946C64.9778 117.946 71.5469 116.144 74.4828 115.362C74.4598 115.577 74.0842 119.724 74.1991 120.552ZM68.1512 122.637C68.5881 123.104 70.1978 124.569 70.5351 124.86C69.8792 124.973 69.2063 124.939 68.5651 124.76C67.3004 124.346 67.3004 123.189 68.1359 122.637H68.1512ZM71.2173 125.082C71.9272 124.973 72.6523 125.023 73.3406 125.228C74.6131 125.672 74.935 126.891 74.1072 127.458C73.2103 126.73 71.2787 125.128 71.225 125.082H71.2173ZM83.8421 117.923C83.7808 117.095 83.6965 114.811 83.7041 114.496C86.088 116.198 88.4949 117.869 90.8635 119.601C89.867 119.885 86.0267 121.134 85.0915 121.464C84.6853 121.134 82.0254 118.981 81.5885 118.789C82.286 118.59 82.9836 118.39 83.6581 118.137C83.7194 118.122 83.8574 117.999 83.8498 117.923H83.8421ZM83.6198 117.923L74.3601 120.491C74.3601 119.663 74.6054 115.523 74.6744 115.332C74.7357 115.332 81.3202 113.607 83.4435 113.14C83.3975 113.906 83.6275 117.938 83.6275 117.938L83.6198 117.923ZM68.9331 102.255C70.7421 103.788 82.401 112.22 83.2902 112.894C80.408 113.538 77.5565 114.266 74.7051 115.025C73.8389 114.374 61.2831 104.554 61.0761 104.409C61.4824 104.332 66.7408 102.96 68.9331 102.255ZM60.7772 104.554C61.1604 104.922 73.4326 114.519 74.3678 115.171L64.7325 117.777C63.874 117.087 51.6478 107.942 50.7433 107.138C54.116 106.274 57.4607 105.413 60.7772 104.554ZM50.3754 107.23C51.3029 107.881 64.0119 117.524 64.4872 117.838C63.2378 118.168 56.6303 119.816 54.576 120.245L40.4028 109.613C41.8439 109.322 50.2527 107.23 50.3754 107.199V107.23ZM40.3108 110.38C40.3568 111.583 40.3951 112.68 40.4411 113.96L50.2604 122.185C50.0841 122.185 46.3204 122.79 45.3469 122.997C45.2779 122.997 31.2274 113.032 31.2274 113.032C32.8065 112.634 39.6363 110.533 40.3108 110.349V110.38ZM25.9077 119.019C26.0074 119.019 30.9821 118.022 31.2274 117.992C31.2274 117.992 39.4523 124.178 40.9164 125.289C39.9276 125.366 35.8956 126.194 34.8455 126.301C33.8336 125.465 26.3676 119.333 25.9077 119.019ZM35.2287 131.582C35.2287 131.168 35.0064 127.405 34.9528 126.584C35.52 127.052 41.4223 131.851 43.8215 133.752C43.8215 133.752 44.0745 138.174 44.1051 138.542C43.7449 138.282 37.8273 133.683 35.2364 131.582H35.2287ZM44.2508 133.882C47.1214 133.423 49.9664 132.817 52.7746 132.065C53.2345 132.425 61.881 138.964 62.6245 139.485C61.2448 139.815 54.4686 141.348 54.4456 141.348C50.9349 139.048 47.5699 136.488 44.2584 133.882H44.2508ZM54.3996 146.43C54.3996 146.43 54.461 141.578 54.484 141.539C55.1049 141.455 61.2831 140.006 62.6858 139.692C63.0013 139.808 63.3023 139.959 63.5827 140.144L68.3812 138.765C68.5958 139.83 68.4885 140.926 68.6725 141.984C67.7833 142.306 55.4575 146.039 54.4073 146.43H54.3996ZM63.759 139.953C63.759 139.953 63.5904 136.71 63.4984 135.039C66.6871 134.15 69.8785 133.271 73.0723 132.402L73.31 137.232L63.759 139.953ZM85.7738 136.887C83.8421 137.469 72.1372 141.195 71.0947 141.532C71.0334 140.397 70.8417 138.067 70.8264 138.052C70.8111 138.036 81.2819 135.292 85.8427 133.836C85.7814 134.081 85.7891 136.404 85.7814 136.91L85.7738 136.887ZM82.1787 134.794C82.1787 134.679 82.286 130.065 82.3244 129.858C83.4282 129.559 89.6754 127.819 91.6837 127.221C91.5989 128.799 91.6579 130.382 91.86 131.95L82.1787 134.794ZM92.0593 132.149C92.0422 131.759 92.0038 131.37 91.9443 130.984C92.6035 130.938 101.748 128.325 101.994 128.225C101.994 128.769 101.84 131.191 101.871 131.406C98.1149 132.801 88.5333 135.959 87.5674 136.312C87.5674 135.4 87.6211 133.391 87.6211 133.391C87.6211 133.391 92.0516 132.188 92.0593 132.149ZM119.371 19.1399V19.0326C119.278 18.9247 119.155 18.8478 119.017 18.8121C118.879 18.7764 118.734 18.7837 118.601 18.8329C118.467 18.8821 118.352 18.9709 118.27 19.0874C118.189 19.2039 118.145 19.3426 118.144 19.4848C118.183 19.3651 118.251 19.2568 118.342 19.1696C118.433 19.0824 118.544 19.019 118.665 18.9849C118.787 18.9508 118.914 18.9471 119.038 18.9741C119.161 19.0011 119.275 19.0581 119.371 19.1399ZM121.801 20.7113C121.787 20.6951 121.77 20.6821 121.751 20.6732C121.732 20.6643 121.711 20.6597 121.69 20.6597C121.668 20.6597 121.647 20.6643 121.628 20.6732C121.609 20.6821 121.592 20.6951 121.578 20.7113C121.576 21.0085 121.612 21.3048 121.686 21.5928C121.686 21.7001 121.885 21.6771 121.877 21.5928C121.889 21.2969 121.863 21.0007 121.801 20.7113ZM118.827 20.236C118.816 20.2246 118.804 20.2155 118.79 20.2092C118.776 20.2029 118.761 20.1997 118.746 20.1997C118.731 20.1997 118.716 20.2029 118.702 20.2092C118.688 20.2155 118.676 20.2246 118.666 20.236C118.594 20.6134 118.594 21.0008 118.666 21.3781C118.666 21.4701 118.842 21.4548 118.834 21.3781C118.866 20.998 118.863 20.6157 118.827 20.236ZM120.444 23.6701V23.6088C119.532 23.6088 119.516 23.3941 119.501 23.3788C119.486 23.3635 120.03 22.0067 120.13 21.7154C120.13 21.6771 120.076 21.6464 120.061 21.7154C119.923 21.9914 119.187 23.5014 119.21 23.5704C119.279 23.7621 120.191 23.7467 120.444 23.6701ZM122.314 24.7815C122.405 24.8991 122.485 25.0248 122.552 25.1571C122.207 25.2798 122.238 26.2763 122.767 26.2226C122.835 26.2212 122.901 26.1947 122.952 26.1481C123.003 26.1016 123.035 26.0382 123.042 25.9697C123.058 25.6017 122.437 24.9119 122.314 24.7815ZM132.992 39.5833C131.058 39.9444 129.077 39.991 127.128 39.7212V39.7825C128.117 40.0048 131.206 40.4878 133.046 39.7825C133.115 39.7136 133.069 39.5679 132.992 39.5833ZM118.842 39.2C117.159 39.5951 115.399 39.5263 113.752 39.0007C113.698 39.0007 113.683 39.062 113.752 39.085C115.397 39.7313 117.209 39.8228 118.911 39.3456C118.957 39.3226 118.919 39.177 118.842 39.2ZM122.184 35.3673C121.64 35.7199 118.052 50.9432 117.999 51.3572C117.945 51.7711 120.436 55.4964 120.597 55.4964C122.194 54.6132 123.731 53.6247 125.196 52.5376C125.442 52.2387 124.376 36.0265 124.238 35.6203C124.1 35.214 122.184 35.3673 122.184 35.3673Z" fill="black"/>
<path d="M144.835 20.4736C141.293 18.0131 133.107 13.2452 133.015 13.2069C132.923 13.1686 132.892 13.1456 131.934 13.8125C131.379 13.0176 130.698 12.3185 129.918 11.7428C129.641 11.5751 129.323 11.4865 128.998 11.4865C128.674 11.4865 128.356 11.5751 128.078 11.7428C127.424 12.0815 126.831 12.5271 126.323 13.0613C125.46 13.0065 124.596 13.1453 123.794 13.4675C123.794 13.4675 121.586 8.81469 118.183 9.91083C114.779 11.007 116.833 15.1692 116.833 15.1692C116.741 15.272 116.654 15.3795 116.573 15.4912C116.405 15.2939 116.217 15.1141 116.013 14.9546C115.622 14.7553 110.648 15.9894 108.195 17.0396C105.258 18.3382 102.55 20.1036 100.177 22.2673C98.4521 24.2373 98.1761 25.3334 98.7127 27.633C100.062 33.4816 104.477 39.039 109.375 42.5804C109.076 44.65 108.831 46.7196 108.708 48.8046C108.402 53.8024 109.191 56.194 111.652 58.0796C106.018 75.1043 109.283 120.169 109.283 120.169C109.708 120.568 110.241 120.835 110.816 120.935C110.855 121.364 110.97 122.522 110.985 122.675C110.287 123.202 109.546 123.669 108.77 124.07C108.501 124.159 108.27 124.335 108.112 124.569C107.954 124.803 107.878 125.084 107.896 125.366C107.788 126.04 110.747 126.01 111.575 125.933C112.403 125.856 112.434 125.312 112.602 125.243C112.771 125.174 112.74 125.573 112.717 125.78C112.694 125.987 113.484 126.01 113.967 126.017C114.45 126.025 114.388 121.341 114.419 121.042C114.944 120.968 115.459 120.832 115.952 120.636C121.433 105.919 121.87 96.6054 121.87 96.6054C119.9 81.0295 120.26 70.4361 120.842 70.5434C121.425 70.6507 120.475 74.629 121.609 89.1241C122.743 103.619 127.496 121.893 127.496 121.893C128.117 122.005 128.744 122.082 129.374 122.123C129.42 122.583 129.558 123.771 129.573 123.917C128.893 124.421 128.172 124.87 127.419 125.258C127.151 125.347 126.92 125.522 126.763 125.757C126.606 125.992 126.532 126.272 126.553 126.554C126.438 127.228 129.397 127.198 130.232 127.121C131.068 127.044 131.083 126.5 131.252 126.431C131.421 126.362 131.39 126.761 131.367 126.968C131.344 127.175 132.133 127.198 132.616 127.205C133.099 127.213 132.678 124.591 133.153 122.154C133.613 122.131 134.068 122.04 134.502 121.886C134.502 121.886 136.687 116.52 137.982 93.1714C139.178 71.7085 137.032 60.9005 136.679 59.2907C137.13 59.0378 137.508 58.6728 137.776 58.231C138.045 57.7892 138.195 57.2856 138.212 56.7689C138.212 56.4622 137.898 44.2284 137.829 43.2702C141.27 40.7299 144.392 37.7829 147.127 34.4935C148.523 32.9221 149.494 31.0195 149.948 28.9668C150.645 24.9272 148.169 22.7809 144.835 20.4736ZM128.086 11.8885C128.412 11.7153 128.787 11.6596 129.148 11.7308C129.51 11.8021 129.836 11.9958 130.071 12.2794C130.618 12.8554 131.194 13.403 131.796 13.9198C131.012 14.5315 130.469 15.4001 130.263 16.3727C130.263 15.6277 129.971 14.9124 129.451 14.3797C128.626 13.6303 127.579 13.1702 126.469 13.0689C126.962 12.616 127.504 12.22 128.086 11.8885ZM128.201 27.9856C128.192 27.973 128.18 27.9626 128.166 27.9555C128.152 27.9484 128.136 27.9447 128.121 27.9447C128.105 27.9447 128.09 27.9484 128.076 27.9555C128.062 27.9626 128.049 27.973 128.04 27.9856L127.481 28.5605C127.35 27.794 127.166 26.1996 127.182 26.1919C127.565 25.962 129.918 21.1252 130.248 17.5915C132.011 20.5487 134.219 23.2169 136.794 25.5021C137.162 25.8317 138.871 27.2038 138.91 27.2268C138.764 27.2804 129.865 29.8636 129.52 30.0476C129.083 29.3194 128.623 28.6678 128.201 27.9703V27.9856ZM129.481 30.4615C128.975 31.1744 126.89 33.7269 126.461 34.3708C125.788 33.423 125.174 32.4349 124.621 31.412C125.832 30.4026 126.991 29.3332 128.094 28.2079C128.554 28.9438 128.983 29.718 129.481 30.4462V30.4615ZM118.052 16.7866C118.734 16.6486 118.819 18.5343 121.801 18.9789C121.676 18.9841 121.554 19.0171 121.444 19.0755C121.334 19.1338 121.239 19.2161 121.164 19.3162C121.164 19.3162 122.176 18.8946 122.422 19.6611C122.422 19.7071 122.544 19.6611 122.552 19.6228C122.563 19.4857 122.526 19.3491 122.448 19.236C122.369 19.1229 122.255 19.0402 122.123 19.0019C122.568 19.0458 123.016 19.0611 123.464 19.0479C125.288 19.0096 124.468 21.1865 125.043 21.2938C125.319 21.3475 125.357 21.0715 125.633 20.7726C125.909 20.4736 126.461 20.1134 126.906 20.4583C128.078 21.3858 126.522 23.0568 126.522 23.0568C126.593 24.9533 126.878 26.8357 127.373 28.6678C125.909 30.1166 124.384 31.3584 124.384 31.4273C124.139 31.4273 123.042 31.642 122.644 31.7263C122.208 30.8383 121.826 29.9244 121.502 28.9898C121.559 28.5733 121.582 28.1529 121.571 27.7327C121.571 26.6059 120.605 27.0275 119.976 26.8512C119.589 26.7338 119.236 26.5232 118.949 26.2379C118.351 25.601 117.956 24.8005 117.815 23.9383C117.616 22.9456 117.5 21.9379 117.47 20.9259C117.424 19.7148 117.209 16.9552 118.052 16.7866ZM119.21 30.9674C118.566 30.7068 110.349 25.9313 109.751 25.4024C110.303 24.9655 115.668 21.4778 117.247 20.6806C117.247 23.1871 117.546 26.6672 120.015 27.1884C120.651 27.3187 121.103 27.0964 121.195 27.472C121.233 27.633 121.249 28.1543 121.272 28.5759C121.252 28.5651 121.229 28.5595 121.207 28.5595C121.184 28.5595 121.161 28.5651 121.141 28.5759C120.827 28.9361 118.941 30.4998 118.995 30.5688C119.074 30.6976 119.146 30.8307 119.21 30.9674ZM121.18 29.0818C121.31 29.488 122.268 31.1361 122.506 31.619C122.506 31.619 121.057 33.497 120.827 33.9186C120.612 33.3743 119.401 30.7835 119.294 30.6072C119.992 30.2009 120.367 29.603 121.18 29.1124V29.0818ZM114.059 122.79C113.055 123.733 111.46 123.012 111.207 122.79C111.207 122.583 111.046 121.349 110.993 120.943C112.067 121.058 113.148 121.096 114.227 121.058C114.181 121.311 114.059 122.468 114.059 122.79ZM132.701 123.94C132.278 124.247 131.767 124.408 131.244 124.4C130.722 124.392 130.216 124.214 129.803 123.894C129.803 123.71 129.619 122.499 129.566 122.077C130.064 122.077 132.555 122.146 133 122.077C132.946 122.499 132.739 123.718 132.693 123.94H132.701ZM149.564 29.5187C148.994 31.3023 148.054 32.9453 146.805 34.3402C144.098 37.5688 141.009 40.4568 137.606 42.9406C137.461 43.048 138.043 56.8992 137.836 57.4511C137.55 58.1183 137.055 58.6749 136.426 59.0378C134.257 60.4252 121.862 61.3374 114.787 59.3137C113.566 58.997 112.446 58.377 111.529 57.5113C110.613 56.6456 109.93 55.5623 109.544 54.3619C109.056 52.6704 108.882 50.9038 109.03 49.1495C109.191 45.3169 109.797 41.0856 110.295 37.3756C110.295 37.3756 110.234 37.322 110.226 37.3756C109.927 39.0773 109.651 40.687 109.406 42.4041C108.363 41.5302 107.306 40.756 106.34 39.8055C103.126 36.7903 100.731 33.008 99.3796 28.8135C98.4444 25.5481 98.797 24.7892 100.046 23.0798C100.359 22.6335 100.722 22.2246 101.127 21.861C103.096 20.1755 105.276 18.7531 107.612 17.6298C110.297 16.5222 113.089 15.6951 115.944 15.1616C116.117 15.335 116.278 15.5194 116.427 15.7135C115.983 16.3574 115.4 17.4688 115.86 18.3887C116.138 19.0974 116.638 19.6971 117.286 20.098V20.4736C115.845 21.2018 109.996 24.8428 109.398 25.3104C109.381 25.3262 109.368 25.3452 109.359 25.3663C109.35 25.3874 109.345 25.4101 109.345 25.4331C109.345 25.456 109.35 25.4788 109.359 25.4999C109.368 25.5209 109.381 25.54 109.398 25.5557C111.698 27.5487 118.643 31.0211 119.432 31.2434C119.631 31.6036 120.521 33.543 120.773 34.1562C120.773 34.2175 120.896 34.2558 120.934 34.1562C121.15 33.6947 121.415 33.2578 121.724 32.8531C121.762 33.2287 121.985 34.4858 122.912 34.7464C123.84 35.007 125.097 33.635 125.212 32.9067C125.212 32.9681 126.032 34.1562 126.361 34.7004C126.373 34.7221 126.39 34.7408 126.41 34.755C126.431 34.7691 126.454 34.7784 126.478 34.7821C126.503 34.7858 126.528 34.7839 126.552 34.7763C126.575 34.7688 126.597 34.756 126.614 34.7388C127.136 34.0719 129.113 31.1821 129.719 30.5228C129.796 30.4462 129.719 30.3925 129.596 30.1472C129.911 30.1472 139.998 27.1578 140.765 26.7362C140.849 26.6902 140.765 26.5599 140.696 26.5829C140.212 26.7106 139.737 26.8642 139.27 27.0428C136.449 24.6819 134.471 23.4324 131.812 19.7071C130.838 18.3427 130.677 17.9211 130.278 17.3002C130.373 16.4958 130.669 15.7283 131.139 15.069C131.61 14.4096 132.239 13.8799 132.969 13.5289C133.529 13.8585 138.02 16.2884 142.635 19.2548C144.674 20.5656 147.487 22.4283 148.767 24.2296C149.29 24.9942 149.634 25.8663 149.775 26.7818C149.916 27.6972 149.849 28.6325 149.58 29.5187H149.564Z" fill="black"/>
</svg>
