<svg width="154" height="154" viewBox="0 0 154 154" fill="none" xmlns="http://www.w3.org/2000/svg">
<path d="M85.3094 12.7551L101.744 14.4416C101.822 14.4483 101.899 14.425 101.961 14.3766C102.022 14.3282 102.062 14.2582 102.074 14.1809L102.196 13.3147C102.207 13.2365 102.187 13.1571 102.14 13.0939C102.092 13.0307 102.022 12.9888 101.944 12.9774L85.4474 11.3677C85.4081 11.3635 85.3683 11.367 85.3304 11.3783C85.2925 11.3895 85.2572 11.4081 85.2266 11.4331C85.1959 11.458 85.1705 11.4888 85.1518 11.5236C85.1332 11.5585 85.1216 11.5966 85.1177 11.636L85.0411 12.4025C85.0334 12.4436 85.0345 12.4857 85.0441 12.5264C85.0538 12.567 85.0718 12.6051 85.0971 12.6383C85.1223 12.6715 85.1543 12.6991 85.1909 12.7192C85.2274 12.7393 85.2678 12.7516 85.3094 12.7551ZM83.186 24.0388L101.468 26.0548C101.544 26.0638 101.621 26.0434 101.682 25.9977C101.743 25.9521 101.785 25.8848 101.798 25.8095L101.967 24.9126C101.98 24.8334 101.962 24.7521 101.916 24.6862C101.87 24.6203 101.8 24.5749 101.721 24.56L83.324 22.6436C83.2847 22.6394 83.245 22.643 83.2071 22.6542C83.1692 22.6654 83.1339 22.6841 83.1032 22.709C83.0726 22.734 83.0472 22.7647 83.0285 22.7996C83.0098 22.8344 82.9982 22.8726 82.9944 22.9119L82.9101 23.6785C82.9036 23.7204 82.9057 23.7632 82.9162 23.8042C82.9267 23.8453 82.9454 23.8838 82.9712 23.9175C82.997 23.9512 83.0293 23.9793 83.0662 24.0001C83.1031 24.0209 83.1439 24.0341 83.186 24.0388ZM82.9101 26.4304L95.1059 27.7489C95.1826 27.7558 95.259 27.7336 95.3201 27.6867C95.3811 27.6399 95.4223 27.5717 95.4355 27.4959L95.5658 26.7294C95.5793 26.6502 95.5611 26.5689 95.5152 26.5029C95.4694 26.437 95.3994 26.3917 95.3205 26.3767L83.0557 25.0506C83.0164 25.0464 82.9767 25.05 82.9388 25.0612C82.9009 25.0724 82.8656 25.091 82.8349 25.116C82.8043 25.1409 82.7789 25.1717 82.7602 25.2065C82.7415 25.2414 82.7299 25.2796 82.7261 25.3189L82.6418 26.0855C82.6353 26.1259 82.6372 26.1673 82.6474 26.207C82.6576 26.2467 82.6758 26.2838 82.701 26.3162C82.7262 26.3485 82.7577 26.3754 82.7937 26.395C82.8296 26.4147 82.8693 26.4267 82.9101 26.4304ZM81.6913 33.0227L99.9505 35.0388C100.029 35.0453 100.108 35.021 100.169 34.971C100.231 34.921 100.27 34.8491 100.28 34.7705L100.349 33.8276C100.356 33.7495 100.331 33.672 100.281 33.6118C100.231 33.5515 100.159 33.5134 100.081 33.5057L81.8369 31.6276C81.7974 31.6223 81.7573 31.6251 81.7189 31.6359C81.6806 31.6467 81.6449 31.6652 81.614 31.6904C81.5831 31.7155 81.5577 31.7467 81.5393 31.7821C81.521 31.8174 81.5101 31.8562 81.5073 31.8959L81.423 32.6625C81.4165 32.7038 81.4183 32.746 81.4283 32.7866C81.4383 32.8272 81.4564 32.8654 81.4814 32.899C81.5064 32.9326 81.5378 32.9608 81.5738 32.982C81.6099 33.0033 81.6498 33.0171 81.6913 33.0227ZM93.8104 35.3224L81.5456 34.0039C81.5063 33.9997 81.4666 34.0033 81.4287 34.0145C81.3908 34.0257 81.3555 34.0443 81.3248 34.0693C81.2942 34.0942 81.2688 34.125 81.2501 34.1598C81.2314 34.1947 81.2198 34.2329 81.216 34.2722L81.1393 35.0388C81.134 35.0782 81.1368 35.1184 81.1476 35.1567C81.1584 35.1951 81.1769 35.2308 81.2021 35.2617C81.2272 35.2926 81.2585 35.318 81.2938 35.3363C81.3292 35.3547 81.3679 35.3656 81.4076 35.3684L93.5958 36.6792C93.6717 36.6882 93.7481 36.6677 93.8094 36.6221C93.8707 36.5765 93.9122 36.5091 93.9254 36.4339L94.0557 35.6673C94.0623 35.6286 94.0612 35.5889 94.0524 35.5506C94.0437 35.5122 94.0274 35.476 94.0046 35.444C93.9818 35.4119 93.953 35.3847 93.9196 35.3638C93.8863 35.343 93.8492 35.3289 93.8104 35.3224ZM84.9644 15.4764L97.7122 16.9252C97.7884 16.9362 97.8658 16.9165 97.9276 16.8705C97.9893 16.8246 98.0304 16.756 98.0418 16.6799L98.2104 15.7447C98.2241 15.6666 98.207 15.5862 98.1627 15.5205C98.1183 15.4548 98.0503 15.4087 97.9728 15.3921L85.1331 14.0123C85.0938 14.0081 85.054 14.0116 85.0161 14.0229C84.9782 14.0341 84.9429 14.0527 84.9123 14.0777C84.8816 14.1026 84.8562 14.1334 84.8376 14.1682C84.8189 14.2031 84.8073 14.2412 84.8035 14.2806L84.6961 15.1391C84.6875 15.2193 84.7108 15.2997 84.761 15.3628C84.8113 15.426 84.8843 15.4668 84.9644 15.4764Z" fill="black"/>
<path d="M79.3685 41.2172C79.4528 42.9113 79.6904 47.1503 81.3462 47.1503C83.0019 47.1503 85.9455 43.1873 86.6584 42.2367C90.3009 42.7532 93.9861 42.9022 97.6584 42.6813C101.384 42.3517 103.499 41.0333 104.519 38.404C105.998 34.7782 107.876 20.1524 106.926 13.7211C106.428 10.3559 104.864 8.62352 101.56 7.74198C92.8674 5.44233 79.0389 5.25836 76.8695 5.44233C73.4431 5.71829 71.2047 6.48484 69.9093 9.55104C68.0695 13.951 66.9121 23.6862 66.9887 30.0179C67.0347 32.4249 67.0807 35.1538 68.5755 37.1468C70.4152 39.5921 74.5469 40.443 79.3685 41.2172ZM67.6556 29.9566C67.602 23.7322 68.7364 13.9357 70.4459 9.83466C71.6417 6.9601 73.8953 6.20888 76.9232 6.00191C82.4424 5.6263 95.2591 6.73014 101.361 8.38588C104.427 9.22142 105.799 10.7469 106.244 13.8284C107.133 19.9608 105.27 34.7399 103.944 38.1817C103.055 40.5887 101.169 41.7691 97.6354 42.1371C93.9494 42.3759 90.2486 42.2423 86.5894 41.7385C86.5214 41.733 86.4531 41.7441 86.3904 41.7708C86.3276 41.7975 86.2723 41.839 86.2291 41.8918C85.5316 42.7657 82.4577 46.6137 81.3539 46.4911C80.687 46.4298 80.1964 44.3831 80.0277 41.0179C80.0269 40.9574 80.005 40.899 79.9659 40.8529C79.9267 40.8067 79.8727 40.7756 79.8131 40.765C72.2549 39.4542 70.3385 38.4193 69.0814 36.7252C67.7323 34.9085 67.6939 32.2563 67.6556 29.9566ZM65.5399 70.7754C66.8334 70.9141 68.1391 70.6697 69.2949 70.0726C70.4506 69.4755 71.4055 68.5519 72.0408 67.4167C72.676 66.2815 72.9638 64.9846 72.8682 63.6872C72.7726 62.3898 72.298 61.1491 71.5032 60.1193C70.7084 59.0894 69.6286 58.3157 68.3978 57.8944C67.167 57.4731 65.8396 57.4227 64.5804 57.7494C63.3212 58.0762 62.1858 58.7657 61.3152 59.7324C60.4446 60.699 59.8772 61.9002 59.6835 63.1865C59.5695 64.0694 59.6305 64.9661 59.8632 65.8254C60.0958 66.6846 60.4955 67.4896 61.0394 68.1944C61.5832 68.8991 62.2606 69.4898 63.0329 69.9326C63.8051 70.3755 64.657 70.6619 65.5399 70.7754Z" fill="black"/>
<path d="M76.218 18.9336C75.3614 18.9336 74.524 19.1876 73.8118 19.6635C73.0996 20.1394 72.5444 20.8158 72.2166 21.6072C71.8888 22.3986 71.8031 23.2694 71.9702 24.1095C72.1373 24.9497 72.5498 25.7214 73.1555 26.3271C73.7612 26.9328 74.5329 27.3453 75.373 27.5124C76.2132 27.6795 77.084 27.5937 77.8754 27.2659C78.6668 26.9381 79.3432 26.383 79.8191 25.6708C80.295 24.9585 80.549 24.1212 80.549 23.2646C80.549 22.1159 80.0927 21.0143 79.2805 20.2021C78.4682 19.3899 77.3666 18.9336 76.218 18.9336ZM76.4709 25.7176C76.3201 25.5724 76.1252 25.4815 75.917 25.4593C75.7088 25.4371 75.4992 25.4848 75.3211 25.5949C75.2331 25.6605 75.123 25.6891 75.0143 25.6748C74.9055 25.6605 74.8066 25.6043 74.7385 25.5183C74.1943 24.813 76.1873 24.0925 77.0918 25.1656C77.1281 25.2064 77.1559 25.2539 77.1738 25.3055C77.1917 25.357 77.1992 25.4115 77.196 25.466C77.1928 25.5204 77.1789 25.5737 77.1551 25.6228C77.1313 25.6719 77.0981 25.7158 77.0573 25.7521C77.0166 25.7883 76.9691 25.8161 76.9175 25.834C76.866 25.8519 76.8114 25.8595 76.757 25.8563C76.7025 25.8531 76.6493 25.8392 76.6002 25.8154C76.5511 25.7916 76.5072 25.7583 76.4709 25.7176ZM77.6208 24.2305C77.2045 23.87 76.6891 23.6436 76.1421 23.5806C75.5951 23.5177 75.0418 23.6213 74.5546 23.8778C74.5042 23.903 74.4494 23.918 74.3933 23.922C74.3372 23.926 74.2808 23.9189 74.2274 23.9011C74.174 23.8833 74.1247 23.8552 74.0822 23.8183C74.0396 23.7814 74.0048 23.7365 73.9796 23.6862C73.9545 23.6359 73.9395 23.5811 73.9355 23.5249C73.9315 23.4688 73.9386 23.4124 73.9564 23.3591C73.9742 23.3057 74.0023 23.2563 74.0392 23.2138C74.0761 23.1713 74.121 23.1365 74.1713 23.1113C74.8038 22.7624 75.5295 22.6199 76.2469 22.7038C76.9644 22.7876 77.6377 23.0936 78.1727 23.5789C78.2591 23.6521 78.3129 23.7566 78.3222 23.8694C78.3316 23.9823 78.2957 24.0942 78.2225 24.1806C78.1493 24.267 78.0448 24.3208 77.9319 24.3302C77.8191 24.3395 77.7072 24.3036 77.6208 24.2305ZM78.6326 22.6974C78.02 22.1154 77.2414 21.7385 76.4049 21.619C75.5684 21.4995 74.7154 21.6433 73.9643 22.0305C73.8719 22.0713 73.7678 22.0769 73.6716 22.0463C73.5753 22.0157 73.4936 21.9509 73.4417 21.8642C73.3899 21.7775 73.3716 21.6749 73.3902 21.5756C73.4088 21.4763 73.463 21.3873 73.5427 21.3252C74.446 20.8605 75.4703 20.6848 76.4767 20.8219C77.4832 20.959 78.4232 21.4024 79.1692 22.0918C79.2358 22.1668 79.2728 22.2635 79.2735 22.3638C79.2742 22.4641 79.2384 22.5613 79.1728 22.6372C79.1072 22.7131 79.0162 22.7626 78.9169 22.7765C78.8175 22.7904 78.7165 22.7677 78.6326 22.7127V22.6974ZM75.3134 32.4555L76.4633 31.9649L75.5204 30.9531L75.3134 32.4555ZM74.9302 35.2458L76.3943 34.2646L75.1985 33.2987L74.9302 35.2458Z" fill="black"/>
<path d="M75.3595 28.6459C74.5042 28.6519 73.6699 28.9111 72.9617 29.3906C72.2535 29.8702 71.7032 30.5487 71.3801 31.3406C71.057 32.1325 70.9756 33.0023 71.1461 33.8404C71.3167 34.6786 71.7316 35.4474 72.3385 36.05C72.9454 36.6527 73.7171 37.0621 74.5564 37.2268C75.3957 37.3914 76.265 37.3039 77.0546 36.9752C77.8442 36.6465 78.5188 36.0914 78.9933 35.3798C79.4679 34.6683 79.7211 33.8322 79.7212 32.9769C79.7222 32.4052 79.6099 31.8391 79.3906 31.3111C79.1714 30.7832 78.8497 30.304 78.4441 29.9012C78.0385 29.4984 77.557 29.1801 77.0275 28.9646C76.498 28.7491 75.9311 28.6408 75.3595 28.6459ZM77.2452 32.1337C77.1609 32.5399 76.8389 32.5859 75.9267 32.9692L76.9616 33.7894C77.0854 33.8912 77.1637 34.0379 77.1796 34.1974C77.1954 34.3569 77.1473 34.5162 77.0459 34.6403C76.4534 35.1201 75.8227 35.5508 75.1602 35.9281C75.0597 35.9933 74.9427 36.0284 74.8229 36.0294C74.7031 36.0303 74.5856 35.997 74.4841 35.9334C74.3826 35.8697 74.3014 35.7784 74.2501 35.6702C74.1988 35.562 74.1794 35.4414 74.1943 35.3225L74.432 33.5901L73.1058 34.1497C73.0555 34.1708 73.0015 34.1819 72.9469 34.1821C72.8923 34.1824 72.8382 34.1719 72.7877 34.1513C72.7371 34.1306 72.6912 34.1002 72.6524 34.0618C72.6136 34.0234 72.5827 33.9777 72.5616 33.9274C72.5404 33.8771 72.5294 33.8231 72.5292 33.7685C72.5289 33.7139 72.5394 33.6598 72.56 33.6092C72.5807 33.5587 72.611 33.5127 72.6495 33.4739C72.6879 33.4351 72.7335 33.4043 72.7839 33.3831L74.317 32.7239L72.8989 31.5741C72.8281 31.5012 72.7866 31.4047 72.7823 31.3032C72.7781 31.2017 72.8113 31.1021 72.8757 31.0235C72.9401 30.9449 73.0312 30.8927 73.1316 30.8769C73.232 30.8611 73.3347 30.8828 73.4201 30.9378L74.6466 31.9267L74.8766 30.2939C74.8841 30.2353 74.9032 30.1788 74.9328 30.1277C74.9624 30.0765 75.002 30.0318 75.0491 29.9961C75.0962 29.9604 75.1499 29.9345 75.2072 29.9198C75.2644 29.9052 75.324 29.902 75.3825 29.9107C75.6124 29.9107 75.5511 29.9107 77.0766 31.5741C77.1496 31.6456 77.2034 31.7343 77.2328 31.8322C77.2623 31.93 77.2666 32.0337 77.2452 32.1337ZM77.4215 8.56226C76.709 8.56222 76.0075 8.73795 75.3792 9.07389C74.7509 9.40982 74.2152 9.89558 73.8195 10.4881C73.4238 11.0806 73.1805 11.7616 73.1109 12.4707C73.0414 13.1798 73.1479 13.8951 73.421 14.5531C73.694 15.2112 74.1252 15.7918 74.6763 16.2433C75.2275 16.6949 75.8815 17.0035 76.5804 17.1419C77.2793 17.2802 78.0016 17.244 78.6831 17.0364C79.3647 16.8288 79.9846 16.4562 80.4877 15.9518C81.0923 15.3457 81.5036 14.574 81.6699 13.7341C81.8361 12.8943 81.7497 12.0241 81.4216 11.2334C81.0935 10.4427 80.5384 9.7669 79.8264 9.29148C79.1145 8.81606 78.2776 8.5623 77.4215 8.56226ZM79.0389 11.1839L79.7288 10.6396C79.8046 10.5938 79.8946 10.5774 79.9816 10.5938C80.0687 10.6101 80.1467 10.6579 80.2007 10.728C80.2548 10.7982 80.2811 10.8858 80.2746 10.9741C80.2682 11.0624 80.2294 11.1453 80.1658 11.2069C79.3992 11.7894 79.3992 11.8201 79.2612 11.8201C79.1845 11.8266 79.1078 11.8079 79.0428 11.7667C78.9778 11.7255 78.928 11.6642 78.9011 11.5921C78.8741 11.52 78.8715 11.4411 78.8936 11.3674C78.9158 11.2937 78.9614 11.2292 79.0236 11.1839H79.0389ZM77.4598 9.65076C77.4781 9.56247 77.5289 9.48425 77.602 9.43154C77.6751 9.37883 77.7654 9.35546 77.8549 9.36605C77.9445 9.37664 78.0268 9.42042 78.0856 9.48874C78.1445 9.55706 78.1755 9.64496 78.1727 9.73508L78.0654 10.6089C78.0475 10.6984 77.9963 10.7776 77.9221 10.8308C77.848 10.8839 77.7565 10.907 77.6661 10.8953C77.5756 10.8837 77.493 10.8381 77.4348 10.7679C77.3766 10.6977 77.3472 10.608 77.3525 10.517L77.4598 9.65076ZM74.202 12.8319C74.1308 12.8235 74.0638 12.7939 74.0095 12.7472C73.9552 12.7004 73.916 12.6385 73.8971 12.5693C73.8782 12.5002 73.8803 12.427 73.9032 12.3591C73.9261 12.2911 73.9688 12.2316 74.0257 12.188C74.179 12.0654 74.248 12.1114 75.1602 12.2264C75.2459 12.2433 75.3225 12.2909 75.3758 12.3602C75.4291 12.4295 75.4553 12.5158 75.4497 12.603C75.4441 12.6902 75.407 12.7724 75.3452 12.8342C75.2835 12.8961 75.2014 12.9334 75.1142 12.9393L74.202 12.8319ZM75.7888 14.6257C75.0222 15.2159 75.0222 15.2389 74.8842 15.2389C74.8331 15.2405 74.7823 15.2309 74.7353 15.2109C74.6883 15.1908 74.6462 15.1608 74.6119 15.1229C74.5777 15.085 74.552 15.0401 74.5369 14.9913C74.5217 14.9425 74.5173 14.891 74.5239 14.8403C74.5239 14.641 74.6236 14.6257 75.3518 14.0738C75.4257 14.0377 75.5096 14.0279 75.5898 14.0461C75.6699 14.0643 75.7414 14.1094 75.7924 14.1738C75.8434 14.2383 75.8709 14.3182 75.8702 14.4004C75.8696 14.4826 75.8408 14.5621 75.7888 14.6257ZM75.6968 11.2988C75.0912 10.5323 75.0605 10.5323 75.0835 10.3483C75.0934 10.279 75.1233 10.214 75.1696 10.1614C75.2159 10.1088 75.2765 10.0708 75.344 10.0521C75.4115 10.0333 75.483 10.0347 75.5497 10.056C75.6165 10.0773 75.6756 10.1176 75.7198 10.172L76.264 10.8619C76.2961 10.9368 76.3018 11.0204 76.2802 11.0991C76.2586 11.1777 76.211 11.2466 76.1452 11.2947C76.0793 11.3427 75.9991 11.367 75.9177 11.3636C75.8362 11.3602 75.7584 11.3292 75.6968 11.2758V11.2988ZM77.3678 16.1358C77.3594 16.2069 77.3299 16.274 77.2831 16.3283C77.2363 16.3826 77.1744 16.4217 77.1052 16.4407C77.0361 16.4596 76.9629 16.4575 76.895 16.4346C76.827 16.4117 76.7675 16.369 76.7239 16.3121C76.609 16.1588 76.6473 16.0898 76.7239 15.1776C76.7268 15.1282 76.7399 15.08 76.7622 15.0359C76.7845 14.9918 76.8157 14.9528 76.8537 14.9212C76.8918 14.8897 76.9359 14.8663 76.9834 14.8526C77.0309 14.8388 77.0807 14.835 77.1297 14.8413C77.1787 14.8477 77.2259 14.864 77.2684 14.8894C77.3108 14.9147 77.3476 14.9485 77.3764 14.9887C77.4052 15.0288 77.4254 15.0745 77.4358 15.1228C77.4462 15.1712 77.4466 15.2211 77.4368 15.2696L77.3678 16.1358ZM77.3678 14.3037C77.0863 14.3032 76.8117 14.217 76.5803 14.0567C76.3489 13.8964 76.1717 13.6695 76.0723 13.4061C75.973 13.1427 75.9561 12.8553 76.0238 12.5821C76.0916 12.3089 76.2409 12.0628 76.4519 11.8764C76.6629 11.69 76.9256 11.5723 77.2051 11.5387C77.4846 11.5051 77.7677 11.5574 78.0168 11.6885C78.2659 11.8197 78.4692 12.0235 78.5997 12.2729C78.7303 12.5223 78.7819 12.8055 78.7476 13.0849C78.7013 13.4078 78.5432 13.7043 78.3009 13.9228C78.0587 14.1412 77.7475 14.2679 77.4215 14.2807L77.3678 14.3037ZM79.0543 15.6605C78.4487 14.894 78.418 14.894 78.441 14.71C78.4474 14.6385 78.4754 14.5707 78.5213 14.5156C78.5673 14.4604 78.6289 14.4206 78.6981 14.4015C78.7672 14.3823 78.8406 14.3847 78.9083 14.4083C78.9761 14.432 79.035 14.4757 79.0773 14.5337L79.6215 15.2236C79.6425 15.2931 79.642 15.3673 79.6201 15.4365C79.5982 15.5058 79.5559 15.5668 79.4987 15.6115C79.4415 15.6563 79.3721 15.6827 79.2997 15.6873C79.2272 15.692 79.155 15.6746 79.0926 15.6375L79.0543 15.6605ZM80.549 13.6675L79.6292 13.5602C79.5598 13.5503 79.4948 13.5203 79.4422 13.4741C79.3896 13.4278 79.3516 13.3672 79.3329 13.2997C79.3142 13.2322 79.3156 13.1607 79.3369 13.0939C79.3582 13.0272 79.3985 12.9681 79.4529 12.9239C79.6138 12.7936 79.6828 12.8396 80.5874 12.9239C80.6829 12.9239 80.7745 12.9619 80.8421 13.0294C80.9097 13.097 80.9476 13.1887 80.9476 13.2842C80.9476 13.3798 80.9097 13.4714 80.8421 13.539C80.7745 13.6065 80.6829 13.6445 80.5874 13.6445L80.549 13.6675ZM147.622 117.895C150.458 115.235 149.799 111.211 148.327 107.654C151.102 104.212 147.055 88.9044 131.417 79.1155C119.076 71.404 108.275 73.2591 97.9037 70.9364C96.9455 67.1037 94.002 58.1504 90.0619 58.4263C90.3992 55.1378 88.7818 53.6047 85.0717 51.4431C80.411 48.7218 69.5567 46.0006 65.2947 45.3643C58.1274 44.2911 55.7895 46.8208 52.1254 52.9532C50.7072 52.2479 48.8982 51.3511 44.5442 49.5573C43.9539 46.9587 43.0111 45.3643 41.5623 44.5364C40.9644 43.9232 35.6675 40.3281 32.7546 38.4577C23.5033 32.5733 13.8578 27.333 3.88637 22.7741C3.86931 22.7666 3.85069 22.7634 3.83211 22.7647C3.81353 22.766 3.79555 22.7718 3.77971 22.7816C3.76388 22.7915 3.75066 22.805 3.7412 22.821C3.73174 22.837 3.72631 22.8551 3.72539 22.8737C3.72539 23.1957 3.72539 23.303 3.78672 23.349C14.8097 28.8452 29.7728 36.825 39.8146 44.0459C35.4912 43.3866 30.616 48.5532 28.6306 50.8758C13.4529 68.8514 9.44386 101.537 18.3972 105.845C13.5321 105.897 8.66831 105.654 3.83271 105.117C3.81638 105.115 3.79976 105.116 3.78399 105.121C3.76822 105.126 3.75366 105.134 3.7413 105.145C3.72894 105.156 3.71907 105.169 3.71236 105.184C3.70565 105.199 3.70225 105.215 3.7024 105.232C3.7024 105.508 3.7024 105.615 3.80205 105.63C9.07053 106.239 14.376 106.467 19.6773 106.313C21.3407 106.596 23.1114 105.983 25.2578 104.373C25.6027 104.419 27.5574 104.68 28.186 104.749C24.5454 118.837 23.5705 133.482 25.3114 147.929C25.3114 148.059 25.4341 148.028 25.8174 148.028C26.5149 148.028 22.5365 131.931 28.4773 106.773C31.2445 95.0598 35.6752 84.5427 40.3205 78.7092C41.5197 77.0626 43.0563 75.6906 44.8278 74.6849C50.5309 71.8486 52.9302 81.3232 53.4132 87.6242C54.609 102.733 49.6571 120.042 49.818 120.64C49.826 120.672 49.8404 120.702 49.8603 120.728C49.8802 120.754 49.9052 120.776 49.9338 120.793C49.9624 120.809 49.9941 120.82 50.0269 120.824C50.0597 120.828 50.0929 120.825 50.1247 120.816C62.0139 117.535 74.1867 108.214 81.8982 96.4779C81.938 96.4194 81.9569 96.3491 81.9518 96.2786C81.6145 86.3134 82.3887 60.2507 89.9393 59.0626C93.5727 58.457 96.4013 67.7706 97.2981 71.3734C99.5978 81.1622 99.6515 93.9253 97.5511 109.295C97.5051 109.632 98.103 109.586 98.1567 109.295C99.3259 102.031 99.8773 94.6818 99.8048 87.3253C113.342 93.0054 109.249 119.244 108.283 124.465C108.221 124.787 108.773 124.802 108.835 124.465C109.48 121.307 109.923 118.112 110.161 114.898C116.293 121.797 114.89 135.81 112.292 144.594C112.215 144.847 112.637 144.962 112.721 144.709C113.474 142.29 114.053 139.821 114.454 137.32C116.316 140.44 116.822 144.272 116.937 147.906C116.939 147.935 116.952 147.962 116.973 147.982C116.995 148.002 117.023 148.013 117.052 148.013H117.328C117.359 148.013 117.388 148.001 117.409 147.979C117.431 147.958 117.443 147.929 117.443 147.898C117.482 144.923 116.983 141.965 115.971 139.167C118.662 141.068 120.908 143.812 123.392 144.433C127.324 145.384 127.508 140.309 126.289 136.446C124.58 130.536 120.394 124.817 116.401 120.172C119.154 121.09 121.777 122.36 124.204 123.951C129.547 127.309 132.935 131.256 135.679 134.414C137.979 137.097 141.428 141.398 144.648 140.302C145.124 140.125 145.558 139.854 145.925 139.503C146.291 139.152 146.582 138.73 146.779 138.262C147.959 135.856 147.408 132.306 146.58 129.769C149.868 127.508 149.286 122.18 147.622 117.895ZM46.1463 64.8424C44.4905 68.6751 44.0459 71.7413 44.8278 74.041C43.2487 74.7079 41.5546 76.149 39.7916 78.326C33.4829 86.1754 29.6808 99.0765 28.2933 104.389L15.9289 102.411C9.96511 89.6939 20.7658 55.0765 34.579 46.1309L51.8647 53.3671C49.73 57.0739 47.8204 60.906 46.1463 64.8424ZM52.8382 63.4319C52.756 63.3682 52.6906 63.2852 52.6478 63.1903C52.605 63.0954 52.5862 62.9915 52.593 62.8877C52.7126 61.8043 53.0159 60.7493 53.4898 59.7678C53.5292 59.6835 53.5878 59.6097 53.6611 59.5525C53.7344 59.4952 53.8201 59.456 53.9114 59.4382C54.7121 59.3097 55.5235 59.2609 56.3337 59.2925C56.786 59.2925 56.6173 58.7406 58.0201 57.1769C58.2884 56.8779 57.9588 56.7782 57.3456 54.5323C57.3143 54.4135 57.3203 54.288 57.3628 54.1728C57.4053 54.0576 57.4823 53.9583 57.5832 53.8884C58.4769 53.2864 59.4089 52.7436 60.3734 52.2633C60.4598 52.2183 60.5558 52.1948 60.6532 52.1948C60.7506 52.1948 60.8466 52.2183 60.933 52.2633C62.8034 53.3748 62.926 53.9727 63.34 53.85C64.2618 53.5941 65.2121 53.455 66.1686 53.4361C66.6591 53.4361 66.4215 52.8612 67.7017 51.0215C67.7571 50.9459 67.83 50.8849 67.914 50.8435C67.9981 50.8022 68.0909 50.7817 68.1846 50.7838C69.2825 50.8276 70.3665 51.0449 71.3964 51.4277C71.4896 51.4604 71.573 51.5162 71.6387 51.59C71.7044 51.6637 71.7503 51.753 71.772 51.8493C71.9278 52.7892 72.0047 53.7405 72.002 54.6932C72.002 55.1225 72.5462 54.9922 74.0947 56.4026C74.478 56.7629 74.9226 56.0117 77.2759 55.6974C77.3688 55.6838 77.4637 55.6935 77.552 55.7256C77.6403 55.7577 77.7193 55.8112 77.7818 55.8814C78.5031 56.6827 79.0883 57.5968 79.5142 58.5873C79.5523 58.6774 79.568 58.7753 79.56 58.8728C79.552 58.9702 79.5205 59.0643 79.4682 59.1469C78.8652 59.9832 78.1907 60.7654 77.4522 61.4849C77.1609 61.7838 77.5518 61.9831 77.6591 63.8458C77.6598 63.9165 77.6812 63.9855 77.7207 64.0441C77.7602 64.1027 77.8161 64.1484 77.8814 64.1755C78.8511 64.5378 79.7706 65.0221 80.618 65.6166C80.69 65.6713 80.7483 65.7421 80.7882 65.8232C80.8281 65.9044 80.8486 65.9937 80.848 66.0842C80.8099 67.1393 80.5786 68.1786 80.1658 69.1504C80.1293 69.2397 80.072 69.3189 79.9986 69.3816C79.9253 69.4443 79.838 69.4885 79.7441 69.5106C78.6208 69.7168 77.4826 69.8322 76.3407 69.8556C75.9727 69.8556 76.0877 70.2465 74.9302 71.5267C74.5929 71.91 75.3212 72.2932 75.6968 74.8075C75.7075 74.8974 75.6972 74.9885 75.6665 75.0736C75.6359 75.1588 75.5859 75.2356 75.5205 75.2981C74.7315 76.0183 73.8169 76.5873 72.8222 76.9768C72.7366 77.011 72.6441 77.0247 72.5523 77.0167C72.4604 77.0087 72.3717 76.9793 72.2933 76.9308C71.438 76.3538 70.6374 75.6995 69.9016 74.9762C69.595 74.6849 69.3421 75.1295 67.2954 75.2444C66.7741 75.2444 67.0578 75.965 65.563 77.9504C65.5063 78.0221 65.434 78.08 65.3517 78.1199C65.2694 78.1597 65.1792 78.1804 65.0877 78.1803C64.0276 78.1128 62.9887 77.8531 62.0215 77.4138C61.9356 77.3796 61.859 77.3257 61.7977 77.2565C61.7365 77.1872 61.6924 77.1046 61.6689 77.0152C61.4749 76.081 61.3596 75.1323 61.324 74.1789C61.3197 74.116 61.3 74.0551 61.2666 74.0016C61.2331 73.9481 61.187 73.9037 61.1323 73.8723C59.0473 72.7378 58.9783 72.0173 58.5107 72.2319C57.7444 72.6363 56.9271 72.9354 56.0808 73.1211C55.9814 73.1416 55.8784 73.1362 55.7817 73.1053C55.685 73.0744 55.5979 73.0191 55.5288 72.9448C54.8417 72.1786 54.2966 71.296 53.9191 70.3385C53.8841 70.2501 53.8707 70.1546 53.88 70.0599C53.8894 69.9652 53.9212 69.8742 53.9727 69.7943C55.2452 67.9545 55.9504 67.8856 55.8048 67.418C55.1379 65.2563 55.5825 64.735 55.1149 64.5511C54.3165 64.2645 53.5528 63.8891 52.8382 63.4319ZM50.4926 120.157C51.0752 117.811 51.5428 115.557 51.972 113.403C54.82 114.504 57.79 115.258 60.818 115.649C57.5882 117.601 54.1169 119.121 50.4926 120.172V120.157ZM65.6703 111.15C61.6473 110.979 57.6728 110.204 53.8808 108.85C53.4208 108.689 53.6048 107.861 54.0954 107.968C58.7637 109.003 60.2738 109.502 65.7546 110.268C65.8656 110.289 65.9648 110.35 66.0327 110.44C66.1007 110.53 66.1326 110.643 66.122 110.755C66.1114 110.867 66.0592 110.972 65.9757 111.048C65.8921 111.123 65.7832 111.165 65.6703 111.165V111.15ZM66.8738 104.879C66.8661 104.988 66.8177 105.091 66.7383 105.166C66.6588 105.241 66.5539 105.284 66.4445 105.286C62.3499 104.949 58.3127 104.107 54.425 102.779C54.3209 102.736 54.2373 102.655 54.1916 102.552C54.146 102.449 54.1417 102.333 54.1797 102.227C54.2947 101.867 54.3637 101.89 55.5978 102.189C58.664 102.955 62.4355 103.722 65.448 104.235C66.8431 104.473 66.9274 104.488 66.8738 104.895V104.879ZM67.4794 99.3984C64.1985 99.2221 57.8055 97.965 54.793 96.6695C54.3637 96.4855 54.5477 95.6807 55.0382 95.8033C59.1626 96.9665 63.3563 97.8677 67.5943 98.5016C67.7153 98.5199 67.824 98.5855 67.8966 98.6839C67.9692 98.7824 67.9997 98.9057 67.9814 99.0266C67.9631 99.1476 67.8975 99.2564 67.7991 99.329C67.7006 99.4016 67.5773 99.4321 67.4564 99.4138L67.4794 99.3984ZM55.0689 88.7281C59.5718 90.1456 64.1469 91.3226 68.7748 92.2542C68.8898 92.2717 68.9933 92.3335 69.0633 92.4264C69.1332 92.5193 69.1639 92.6359 69.1489 92.7512C69.1338 92.8666 69.0742 92.9714 68.9828 93.0433C68.8914 93.1151 68.7754 93.1483 68.6598 93.1357C63.9153 92.4962 59.2632 91.2972 54.8006 89.5636C54.3484 89.3796 54.5936 88.5901 55.0689 88.7281ZM81.2543 96.2172C77.517 101.814 72.92 106.786 67.6327 110.95C67.6327 104.757 69.825 97.0834 74.11 88.1301C74.1174 88.112 74.1203 88.0924 74.1185 88.0729C74.1168 88.0534 74.1104 88.0346 74.0999 88.0181C74.0893 88.0016 74.0751 87.9879 74.0581 87.978C74.0412 87.9682 74.0222 87.9625 74.0027 87.9615C73.0215 87.9615 71.772 88.6131 65.9999 86.9726C61.9295 85.8075 58.802 85.3706 54.655 83.4925C54.655 83.4925 54.2794 81.9594 54.1797 81.6068C56.8914 82.8282 59.7153 83.7833 62.6118 84.4584C69.8097 86.3747 74.6466 88.3754 79.4759 82.611C83.5539 77.6821 80.6027 75.5971 81.2543 96.2172ZM146.411 129.279C143.452 120.586 134.598 111.893 128.313 108.727C128.284 108.712 128.253 108.703 128.221 108.7C128.189 108.698 128.157 108.702 128.126 108.713C128.096 108.724 128.068 108.741 128.045 108.763C128.021 108.786 128.003 108.813 127.991 108.842C127.7 109.425 128.918 109.042 133.863 113.166C137.143 115.979 144.962 123.491 146.618 132.329C147.216 135.396 146.656 137.212 146.265 138.017C146.104 138.421 145.86 138.787 145.55 139.092C145.24 139.396 144.87 139.633 144.464 139.788C141.582 140.769 138.247 136.492 136.254 134.146C133.541 130.942 130.122 126.956 124.603 123.514C119.835 120.532 115.925 119.413 115.626 119.758C115.327 120.103 123.292 128.305 125.729 136.683C126.81 140.018 126.987 144.771 123.522 143.904C120.893 143.23 118.11 139.704 115.649 138.4C115.351 137.757 114.999 137.139 114.599 136.553C115.649 129.164 115.519 119.428 110.276 114.109C110.805 105.485 110.146 90.5141 99.8201 86.62C99.7527 81.5332 99.1567 76.4672 98.0417 71.5037C108.459 73.9336 119.122 72.2702 131.08 79.6598C138.822 84.4507 147.607 93.9636 148.58 103.515C148.649 104.151 148.787 106.221 148.12 107.171C145.606 101.614 140.01 95.7343 135.733 92.7678C135.503 92.6068 135.235 92.9747 135.457 93.1434C140.923 97.1294 150.481 107.501 148.918 114.568C148.707 115.65 148.172 116.642 147.385 117.412C144.579 110.513 138.439 103.614 133.38 99.7281C133.157 99.5594 132.858 99.889 133.065 100.081C136.564 102.864 139.687 106.09 142.356 109.678C149.278 119.099 149.631 126.611 146.411 129.279Z" fill="black"/>
</svg>
