<svg width="154" height="154" viewBox="0 0 154 154" fill="none" xmlns="http://www.w3.org/2000/svg">
<path d="M115.395 56.7384C116.2 52.7908 111.8 51.8939 111.003 55.8416C110.666 57.4973 114.59 60.6937 115.395 56.7384ZM109.631 131.383C145.167 122.116 145.658 121.587 109.562 131.1C97.8418 134.15 79.9433 139.048 109.631 131.383ZM129.829 128.739C84.8184 143.448 79.8053 146.085 129.89 128.93C135.417 127.037 135.134 127.16 135.111 127.075C135.099 127.068 135.086 127.064 135.072 127.064C135.059 127.064 135.045 127.068 135.034 127.075L129.829 128.739ZM100.164 144.491C100.169 144.496 100.175 144.5 100.182 144.503C100.188 144.506 100.196 144.507 100.203 144.507C100.21 144.507 100.217 144.506 100.223 144.503C100.23 144.5 100.236 144.496 100.241 144.491C115.487 139.025 129.323 134.664 134.421 132.671C135.494 132.257 133.478 132.847 132.397 133.215C123.091 136.389 100.057 144.192 100.164 144.491ZM36.2511 98.292C36.2511 97.3799 35.9368 97.3262 35.8755 97.7401C35.7568 99.3342 35.7261 100.934 35.7835 102.531C34.3144 101.692 32.7756 100.982 31.1843 100.408C31.1843 98.7136 31.1383 97.4029 31.0846 96.6593C31.0233 95.7701 30.6937 96.0154 30.6937 96.4754V98.2767C30.6247 101.343 30.6401 103.98 30.7627 105.114C30.801 105.505 31.0157 105.628 31.0923 105.244C31.2227 103.715 31.2534 102.179 31.1843 100.645C32.6579 101.475 34.1959 102.185 35.7835 102.769C35.7835 105.26 35.7835 106.601 35.8525 107.536C35.8525 107.973 36.2894 108.203 36.2741 107.49C36.2511 104.394 36.2511 100.523 36.2511 98.292ZM41.2335 100.017C40.8506 103.626 40.7481 107.261 40.9269 110.886C40.9269 111.239 41.2335 111.269 41.2642 111.024C41.3255 110.365 41.2642 105.658 41.8084 100.469C42.8615 100.954 43.9476 101.364 45.0585 101.695C45.4648 101.787 45.3651 101.481 45.1888 101.389C42.1917 99.9017 39.5855 99.0509 38.52 98.545C38.2824 98.4377 37.6768 98.545 38.3897 98.9436C38.9109 99.2349 39.6698 99.3498 41.2335 100.017ZM53.1914 104.325C53.1489 104.318 53.1054 104.325 53.0669 104.344C53.0285 104.363 52.9969 104.394 52.9768 104.432L50.2096 110.258C46.4536 98.591 47.0131 97.2879 46.9288 112.91C46.9288 113.071 47.1511 113.186 47.2278 113.032C47.3044 112.879 47.2278 113.707 47.4501 102.761C50.1099 111.193 49.8876 111.001 50.1559 111.016C50.4242 111.032 50.8611 110.25 53.0381 105.536C53.429 110.702 53.452 113.6 53.659 114.834C53.7356 115.263 54.0959 115.163 54.0576 114.719C53.9043 112.917 53.7509 111.269 53.544 107.751C53.475 106.479 53.3907 104.363 53.1914 104.325ZM57.5759 116.819C57.5759 110.227 57.6449 107.406 57.5759 106.364C57.5759 105.842 57.1314 105.95 57.1467 106.364C57.0547 115.639 57.1467 117.018 57.2847 117.095C59.4846 118.084 61.3013 119.05 62.2594 119.395C62.4511 119.464 62.6504 119.28 62.2594 119.05C61.4393 118.574 59.8602 117.862 57.5759 116.819ZM64.3137 130.525C63.7465 131.789 63.0566 133.322 62.4741 134.58C63.4212 134.626 64.3527 134.839 65.2259 135.208C64.927 133.775 64.6127 131.958 64.3137 130.525Z" fill="black"/>
<path d="M138.254 118.352L135.134 116.972C135.371 116.512 136.207 103.037 136.452 97.5637C136.452 97.4641 136.521 97.5024 134.727 97.0042C130.128 95.7011 124.456 94.2983 120.355 93.3708C137.556 88.5417 136.521 88.8406 136.536 88.695C137.219 82.4707 138.284 73.8396 138.162 73.7936L120.248 68.1673C124.931 49.6096 126.112 45.3323 126.28 44.2669C126.342 43.8759 126.38 43.7839 126.188 43.7609C123.72 43.6 116.223 43.1094 105.001 42.3965C104.909 41.9673 104.633 40.6948 104.143 38.9165C103.859 37.874 103.499 36.6629 103.062 35.3368C101.538 31.5965 98.7156 28.5317 95.1132 26.7056C93.4805 23.8771 96.171 19.4466 94.4693 10.8231C92.7676 2.19965 83.7379 3.11182 80.6717 7.13611C75.559 13.8969 78.8857 18.1588 70.2929 24.1531C68.9821 24.383 63.0569 26.9739 59.3315 29.6108C57.3049 31.1854 55.6245 33.1607 54.3951 35.4134C52.5366 38.7326 51.0777 42.2602 50.0488 45.9226C50.0387 45.9612 50.0433 46.0022 50.0618 46.0376C50.0802 46.073 50.1111 46.1003 50.1485 46.1142C50.1485 46.1142 51.122 46.4821 52.6704 46.9957C51.9038 50.7517 51.4746 56.9606 53.9505 60.0267L15.3403 67.1018V88.6566L23.8795 90.8106C23.8795 90.9026 25.0676 104.869 25.2516 104.961L32.8019 108.709L17.4713 112.94C49.2287 120.782 90.3607 131.552 90.2917 131.812C90.2227 132.073 43.1501 120.123 17.2107 113.117V131.168L91.5641 149.688C91.5028 149.91 91.2345 149.948 102.87 146.024C111.049 143.264 138.399 133.951 138.399 133.713C138.315 119.119 138.323 118.697 138.254 118.352ZM36.0597 123.771C36.2973 128.056 37.2784 133.491 33.1315 133.468C30.165 133.384 30.0654 129.635 30.4257 129.635C30.7859 129.635 30.4257 130.678 31.2995 131.935C31.5128 132.196 31.7788 132.408 32.08 132.559C32.3812 132.71 32.7109 132.795 33.0474 132.809C33.3839 132.824 33.7196 132.767 34.0327 132.643C34.3457 132.519 34.6289 132.33 34.8639 132.088C35.2778 131.578 35.5193 130.95 35.5537 130.295C35.5537 129.681 35.5154 127.865 35.7454 123.71C32.6179 123.043 32.3726 122.944 30.3797 122.376C30.3431 122.368 30.3112 122.346 30.2911 122.314C30.271 122.283 30.2642 122.244 30.2724 122.208C30.2805 122.171 30.3028 122.139 30.3344 122.119C30.3661 122.099 30.4044 122.092 30.441 122.1C40.9348 123.564 46.2162 125.872 36.0597 123.771ZM47.3813 135.607C47.2127 135.607 47.2587 135.814 46.2392 131.506C45.2112 131.509 44.1936 131.3 43.2497 130.892C41.7167 134.311 41.801 134.273 41.6247 134.204C41.4484 134.135 42.5215 131.138 44.9208 125.075C44.9476 125.005 44.9962 124.946 45.0592 124.907C45.1222 124.867 45.1963 124.849 45.2704 124.855C45.3445 124.861 45.4147 124.891 45.4705 124.94C45.5263 124.99 45.5647 125.055 45.58 125.128C45.58 125.128 45.8099 126.224 46.1089 127.696C47.0977 132.625 47.1437 133.476 47.4886 135.446C47.4954 135.481 47.488 135.518 47.4679 135.548C47.4478 135.578 47.4167 135.599 47.3813 135.607ZM55.9051 135.346C54.4947 138.32 54.556 138.328 54.2341 138.297C54.1644 138.291 54.0981 138.265 54.0435 138.221C53.9889 138.177 53.9485 138.119 53.9275 138.052C53.4139 136.281 52.724 134.219 51.5742 129.881C51.1526 128.348 50.8537 127.136 50.8537 127.136C50.8425 127.101 50.8459 127.062 50.8632 127.029C50.8804 126.996 50.9101 126.971 50.9457 126.96C50.9813 126.949 51.0198 126.952 51.0529 126.97C51.0859 126.987 51.1108 127.017 51.122 127.052C52.3484 130.686 52.5477 131.069 54.3414 137.017C59.6765 126.017 60.2437 126.178 55.9051 135.346ZM66.3759 139.815C66.1766 139.853 66.2303 139.884 65.3258 135.691C64.267 135.663 63.2245 135.423 62.2597 134.986C61.4242 136.764 60.2744 139.079 60.236 139.163C60.2146 139.177 60.1901 139.184 60.1649 139.185C60.1397 139.186 60.1146 139.181 60.0922 139.169C60.0698 139.157 60.0508 139.14 60.037 139.119C60.0233 139.098 60.0152 139.074 60.0137 139.048C60.0137 139.048 60.4277 137.991 61.0026 136.572C65.3411 125.841 64.5516 126.309 66.5063 139.639C66.5107 139.659 66.5107 139.68 66.5064 139.7C66.5021 139.72 66.4934 139.74 66.4811 139.756C66.4688 139.773 66.453 139.787 66.4349 139.797C66.4167 139.807 66.3966 139.813 66.3759 139.815ZM135.946 97.5637C134.099 97.8857 126.15 99.2808 116.568 100.982C117.795 98.0083 118.607 95.908 119.458 93.6391L119.972 93.4935C124.51 94.7812 130.65 96.3679 135.946 97.5484V97.5637ZM62.7426 77.2583C60.9153 75.971 59.4481 74.2372 58.4807 72.2222L59.1016 71.8773C60.0357 73.4212 61.1929 74.8187 62.5356 76.0242C63.9087 77.2837 65.5454 78.2212 67.3264 78.7684C71.6497 79.9949 80.6794 81.7425 85.1023 82.5474C84.0751 89.0936 84.2821 100.017 87.0339 111.676L86.758 111.637C85.5879 107.997 84.8445 104.234 84.5427 100.423C84.039 94.6189 83.9365 88.7871 84.2361 82.969C84.3128 81.9342 69.3041 81.9725 62.7426 77.243V77.2583ZM93.7794 70.5282C98.1103 72.1532 100.831 76.3078 99.8197 82.1641C98.6239 89.1549 94.5459 104.516 92.6909 111.361C90.8897 111.826 89.015 111.936 87.1719 111.683C82.864 92.1214 86.0758 82.3251 85.3092 82.1871C85.2249 82.1871 72.0636 79.7496 67.3418 78.4541C65.598 77.9399 63.9904 77.0445 62.6353 75.8326C61.316 74.6575 60.1746 73.2967 59.2472 71.793C60.0751 71.3407 60.8646 70.9191 61.9837 70.3596C66.4679 68.129 72.0099 65.9673 76.9924 65.6991V67.0481C76.9464 67.2398 75.9806 66.9945 93.7794 70.5129V70.5282ZM106.527 106.555L106.389 106.463C106.307 103.297 106.41 100.128 106.695 96.9735C107.247 90.4043 107.746 87.3535 108.336 85.5599C108.849 84.0268 109.248 83.13 108.957 83.0533C108.106 82.8387 107.5 82.6624 100.364 80.9223C100.398 80.3352 100.398 79.7465 100.364 79.1593C103.415 80.4594 106.575 81.4855 109.808 82.2255C108.228 87.7518 107.201 93.4213 106.741 99.1504C106.58 101.488 106.496 103.957 106.527 106.54V106.555ZM106.236 102.814L94.7376 104.884C95.3431 102.73 95.6881 101.435 96.0253 100.178C99.3291 99.2578 102.587 98.3609 106.435 97.2801C106.427 97.4258 106.274 99.4954 106.236 102.799V102.814ZM99.5131 85.8128C102.679 85.4679 105.914 84.9543 108.336 84.4867C107.892 86.176 107.539 87.8878 107.278 89.6148C104.342 90.0747 101.146 90.688 98.2636 91.3702C98.7235 89.4078 99.1528 87.5298 99.5131 85.7975V85.8128ZM98.2253 91.5235C101.452 91.0252 104.557 90.3967 107.247 89.7681C107.01 91.3012 106.856 92.5966 106.711 94.0377C104.043 94.4746 100.494 95.1645 97.1292 95.9693C97.5201 94.398 97.842 93.1025 98.2253 91.5235ZM97.0908 96.1227C100.314 95.587 103.517 94.9402 106.695 94.1833C106.611 95.0342 106.534 95.9234 106.465 96.8739L96.1327 99.7867C96.4546 98.5602 96.8072 97.3338 97.0908 96.1227ZM107.109 99.1888C108.359 86.3571 110.497 82.3941 110.252 81.9878C110.22 81.9439 110.174 81.9117 110.122 81.8958C106.8 81.1975 103.541 80.2258 100.379 78.9907C100.379 78.7454 100.379 78.5768 100.318 78.3775C103.708 79.8385 107.216 81.0103 110.804 81.8805C109.056 87.5155 107.892 93.3155 107.332 99.1888C107.117 101.611 107.002 104.179 107.033 106.854L106.672 106.639C106.772 106.517 106.603 104.401 107.109 99.1888ZM100.349 81.114C102.61 81.7349 106.389 82.7774 108.665 83.4136C108.604 83.5975 108.504 83.9272 108.374 84.3871C106.075 84.64 102.817 85.0999 99.5437 85.7208C99.8197 84.3334 100.241 82.2561 100.349 81.0833V81.114ZM91.5565 116.551C92.5913 116.367 88.4903 117.018 98.3479 115.539L104.948 114.542C104.858 114.747 104.739 114.938 104.595 115.11C103.871 115.841 103.36 116.755 103.116 117.754L104.71 118.758L91.8478 120.935C91.3082 119.526 91.2066 117.988 91.5565 116.52V116.551ZM98.3019 115.248L91.5948 116.275C91.8784 114.542 92.599 112.488 94.6149 105.329L106.236 103.221V106.432C106.236 106.478 105.921 112.043 105.078 114.22L98.3019 115.248ZM107.194 106.923C107.378 91.6921 111.502 82.1028 111.218 81.6276C111.206 81.6022 111.188 81.5804 111.165 81.5643C111.142 81.5482 111.116 81.5383 111.088 81.5356C109.589 81.2453 108.109 80.8638 106.657 80.3934C103.775 79.4966 100.962 78.4311 100.295 78.1705C100.055 76.46 99.3591 74.8456 98.2801 73.4968C97.2011 72.1481 95.7788 71.1147 94.1627 70.5052L119.458 68.9185C120.655 69.2878 121.679 70.0772 122.34 71.1414C125.682 76.1852 122.386 84.5021 119.09 93.3708C115.449 103.182 112.958 108.494 112.958 108.648C110.909 108.555 108.912 107.974 107.132 106.954C107.132 106.954 107.194 106.908 107.194 106.892V106.923ZM136.207 88.5723C130.443 90.159 124.862 91.7228 119.642 93.1715C120.24 91.5618 120.554 90.6803 120.907 89.6838C134.704 87.4992 134.85 86.3034 120.961 89.5382C121.413 88.258 121.834 87.0086 122.218 85.8052C139.526 82.6317 139.296 81.5126 122.264 85.6595C123.03 83.2219 124.241 79.2896 124.172 76.7371L138.085 73.8933L136.207 88.5723ZM125.935 44.1442L119.749 68.4816L93.5648 70.1603L77.253 66.9332V65.6837C77.4063 65.6837 84.834 67.3854 93.5418 68.7498C93.5631 68.7545 93.5854 68.7507 93.604 68.7393C93.6226 68.7278 93.636 68.7096 93.6414 68.6885L100.05 42.4042C107.401 42.9178 118.983 43.692 125.935 44.1442ZM78.3262 65.6454L94.247 65.3235L93.4805 68.5812C88.5363 67.4774 83.3009 66.4656 78.3262 65.6454ZM87.5245 12.8928C87.5245 12.8928 91.2729 12.8928 93.4191 14.2725C93.4191 14.2725 94.3696 23.6625 87.9614 23.6625C83.5769 23.6625 81.124 17.9825 87.5399 12.8928H87.5245ZM50.3478 45.8536C51.4039 42.2657 52.8754 38.8133 54.7323 35.5667C55.9395 33.3671 57.5858 31.439 59.5691 29.9021C62.8618 27.6865 66.4145 25.8844 70.1473 24.5364C75.8273 28.0931 81.6452 40.9478 86.482 43.4927C91.3188 46.0375 93.5878 35.8274 93.4345 33.2825C93.3042 31.1668 94.6073 27.9168 95.0212 26.9969C98.5501 28.7724 101.321 31.7606 102.824 35.4134C103.277 36.7319 103.645 37.9353 103.944 38.9701C104.434 40.6795 104.71 41.9213 104.825 42.3812C99.4594 42.0439 99.7813 42.0056 99.7354 42.1972L94.2853 65.1931C76.1109 65.4921 78.4718 65.4001 76.9311 65.4308C71.8413 65.4308 66.2533 67.7304 61.7768 70.03C60.4507 70.7275 58.9329 71.6243 57.7065 72.4369C56.1873 69.0506 55.6584 65.3032 56.1811 61.6288C62.1447 63.6218 67.5564 61.7361 72.3625 61.7438C77.437 61.7438 79.8439 60.0574 81.1623 63.4301C81.5379 64.9172 82.864 64.9632 82.795 63.8517C83.6076 65.0858 84.604 64.8175 83.8528 62.7939C84.2208 63.4225 84.4201 64.3806 85.087 64.4419C86.5434 64.5646 85.6695 59.4672 80.3958 57.7348C73.0907 55.3432 71.0134 52.3691 65.8317 51.7405C66.9815 46.5588 68.1313 39.6523 67.1425 34.4246C66.0387 28.4687 62.9112 28.7829 62.8422 28.7063C62.8199 28.7063 62.7984 28.7152 62.7826 28.731C62.7668 28.7468 62.7579 28.7682 62.7579 28.7906C62.7579 28.813 62.7668 28.8344 62.7826 28.8502C62.7984 28.866 62.8199 28.8749 62.8422 28.8749C62.9802 29.0436 68.9745 28.3307 66.4143 47.0034C66.284 47.9615 66.1306 48.9657 65.9543 50.0235C63.7997 49.7734 61.6657 49.3687 59.5691 48.8124C56.4527 47.9874 53.3801 47.005 50.3631 45.8689L50.3478 45.8536ZM52.793 47.0647C56.7023 48.3601 61.8917 49.8242 65.9773 50.1921C65.893 50.6904 65.801 51.204 65.7014 51.7252C61.8687 51.2959 57.6682 52.829 57.7448 53.0283C57.7483 53.0389 57.7538 53.0487 57.7611 53.0572C57.7684 53.0656 57.7773 53.0726 57.7873 53.0775C57.7972 53.0825 57.8081 53.0855 57.8192 53.0863C57.8304 53.087 57.8416 53.0856 57.8521 53.082C67.9473 49.3106 71.2817 55.0749 80.3038 58.0951C85.3782 59.7814 85.8382 64.4649 85.041 64.005C84.6194 63.7521 84.6807 63.2385 83.9985 62.2267C83.6647 61.7324 83.3012 61.2588 82.91 60.8086C82.8944 60.7874 82.8748 60.7696 82.8523 60.756C82.8298 60.7425 82.8048 60.7335 82.7788 60.7296C82.7529 60.7256 82.7264 60.7269 82.7009 60.7332C82.6754 60.7395 82.6514 60.7508 82.6302 60.7664C82.6091 60.782 82.5912 60.8016 82.5777 60.8242C82.5641 60.8467 82.5551 60.8716 82.5512 60.8976C82.5473 60.9236 82.5485 60.9501 82.5548 60.9756C82.5612 61.0011 82.5725 61.0251 82.5881 61.0462C84.3587 64.1123 84.0061 65.7834 82.2738 61.9354C81.8829 60.9082 81.8062 60.6476 81.5532 60.7549C81.1776 60.9159 81.7602 61.4371 82.2431 63.0545C82.3647 63.3986 82.4168 63.7633 82.3964 64.1277C82.3964 64.1967 82.1435 64.212 81.9595 64.0433C81.193 63.2768 81.6299 60.5863 77.276 60.9772C75.9806 61.0845 74.3785 61.3605 72.3855 61.3605C67.3034 61.3605 62.8729 63.1848 56.48 61.4065C51.6509 60.0421 51.8502 51.9858 52.793 47.0647ZM60.3587 78.5614L63.8464 79.4506C61.2623 77.743 59.1737 75.3847 57.7908 72.6132L58.3044 72.3065C59.2714 74.3621 60.7461 76.1375 62.5893 77.4653C65.8087 79.8569 69.2351 80.6157 76.3868 81.9418C80.2655 82.7084 83.1016 83.038 83.8452 83.13C83.3623 91.3548 83.7225 103.826 86.551 111.576C85.9761 111.476 85.5699 111.377 85.4089 111.338C83.691 105.292 82.7938 99.0427 82.7414 92.7576C82.6954 85.6212 83.7992 84.5327 83.186 84.5327C82.9867 84.4867 71.8643 84.571 64.4903 79.8799L60.2897 78.8987C3.88836 65.7297 3.19082 63.7137 60.3587 78.5461V78.5614ZM79.1463 84.6937C81.0013 84.8853 82.3811 84.9313 82.9177 84.9466C81.8292 90.3583 82.4041 97.786 83.4082 103.397L79.1463 104.623V84.6937ZM57.5225 88.9556C61.6158 89.2162 63.5091 93.5548 61.6541 95.4711C60.0444 97.1191 56.0201 96.2376 54.602 94.2523C53.8718 93.1776 53.5963 91.8577 53.8355 90.5806C53.8355 90.435 54.2418 90.2434 54.3337 90.8566C54.5484 91.4928 53.1916 94.5283 57.8981 95.4021C63.8541 96.5366 62.2443 90.205 57.3615 89.8984C52.678 89.5918 53.0843 84.0498 54.7477 82.6624C56.411 81.275 59.1629 82.3711 60.7573 83.7968C62.5739 85.4142 62.6659 87.2999 62.2903 87.2692C62.229 87.2692 61.8611 87.4072 61.7001 86.863C61.2019 85.1536 60.535 83.9961 58.5497 83.2679C56.3114 82.4477 54.4104 82.9996 54.4717 85.0463C54.5944 87.4302 55.2996 88.81 57.5225 88.9479V88.9556ZM43.587 84.8163C49.336 85.1843 50.5854 93.4321 43.9319 92.0217C39.0568 90.9639 39.7083 86.3034 40.0993 86.3571C40.7892 86.449 39.4937 90.4503 44.3535 91.3548C50.3248 92.497 48.0712 85.8895 43.2114 85.5905C40.6895 85.4219 39.5934 83.6665 39.808 80.9453C40.2909 74.8974 48.9297 79.075 48.5694 83.0226C48.5694 83.0916 48.3395 83.4289 48.2782 83.4212C48.2168 83.4136 47.7646 83.4212 47.7952 82.785C47.9639 79.2896 40.9808 76.5991 40.3522 80.9913C39.9766 83.3446 41.364 84.6707 43.587 84.8087V84.8163ZM30.3183 86.5564C31.972 87.962 33.9691 88.9037 36.1056 89.2852C36.259 89.2852 36.5196 90.1131 35.7837 89.8984C35.3238 89.7604 27.4822 88.8329 27.4822 80.9683C27.4822 74.8361 35.914 76.9594 36.0137 76.9517C36.1133 76.9441 36.0597 77.0437 36.1056 77.0897C36.2743 77.3043 36.2743 77.496 35.6611 77.5266C35.5844 77.5266 28.3024 76.7601 28.3024 81.3593C28.3024 83.4749 28.7163 85.0386 30.3183 86.5487V86.5564ZM25.5199 104.654C25.1826 101.266 24.7533 96.7435 24.0328 90.8566C49.3283 99.6104 54.4027 101.588 74.9458 108.824C74.7618 115.01 74.8001 122.706 74.9458 127.067C45.0511 113.515 50.0488 116.758 25.5199 104.654ZM27.0529 91.6231L79.177 104.838C79.4836 104.761 79.177 104.838 83.4772 103.635C83.6612 104.654 83.8758 105.712 84.1211 106.8L75.0531 108.387C67.2651 105.658 40.5055 96.207 27.0529 91.6078V91.6231ZM75.1374 127.098C75.2754 122.499 75.3214 114.956 75.1374 108.839L84.1978 107.199C85.064 110.618 86.0451 114.719 86.1754 117.11C75.444 118.789 74.7924 118.996 86.1754 117.325C86.3441 120.974 85.7002 119.693 85.3629 122.047C76.2719 123.641 74.6315 124.009 85.3629 122.277C85.3303 122.582 85.3303 122.891 85.3629 123.197L87.5858 123.787C87.5858 123.197 88.3984 123.12 91.4722 124.638C94.5459 126.155 96.5619 125.58 95.6881 124.638C95.0135 123.871 93.0359 122.951 92.0394 121.181L105.944 118.835C106.907 119.413 107.789 120.117 108.566 120.928C111.042 123.288 113.165 123.35 112.598 122.192C112.191 121.334 110.727 119.946 110.214 118.114C116.752 116.995 121.352 116.175 123.973 115.815C125.928 115.562 127.315 115.048 123.145 115.685C120.47 116.106 116.162 116.811 110.114 117.815C109.792 116.359 110.244 115.041 110.796 113.623C118.462 112.457 119.795 112.243 126.771 111.154C132.489 110.25 132.236 110.319 132.229 110.227C132.225 110.212 132.216 110.199 132.203 110.19C132.19 110.182 132.175 110.178 132.16 110.181L126.74 110.947C119.144 112.051 117.603 112.289 110.919 113.293C111.597 111.717 112.365 110.182 113.219 108.694C113.732 107.72 116.438 101.381 116.476 101.304L136.268 97.6557C135.371 106.808 134.973 116.873 134.973 116.949L111.908 120.859C112.214 121.246 112.491 121.656 112.736 122.085C113.311 123.319 111.502 123.825 108.734 121.395L94.8832 123.718C95.2103 123.945 95.5156 124.201 95.7954 124.484C95.9039 124.576 95.9808 124.699 96.0152 124.837C96.0496 124.974 96.0397 125.119 95.987 125.251C95.3201 126.539 91.9321 125.044 90.6213 124.431L75.1374 127.098ZM138.062 133.598C129.285 136.565 106.726 144.33 91.6638 149.634L90.6136 131.797L138.139 118.475C138.123 120.958 138.07 128.601 138.047 133.583L138.062 133.598Z" fill="black"/>
<path d="M45.1276 126.408C44.4071 128.187 43.9088 129.382 43.4336 130.471C44.3557 130.509 45.265 130.701 46.1241 131.038C45.7868 129.559 45.3346 127.413 45.1276 126.408ZM87.2868 16.3039C87.5781 16.4035 87.6164 15.982 87.7314 15.683C87.7509 15.654 87.7637 15.6211 87.769 15.5865C87.7743 15.552 87.7719 15.5167 87.762 15.4832C87.7521 15.4497 87.7349 15.4188 87.7117 15.3927C87.6885 15.3666 87.6598 15.3459 87.6277 15.3321C87.5956 15.3184 87.5609 15.3119 87.5259 15.3131C87.491 15.3143 87.4568 15.3232 87.4257 15.3391C87.3946 15.355 87.3674 15.3776 87.3461 15.4053C87.3247 15.4329 87.3097 15.4649 87.3021 15.499C87.1795 15.8133 86.9955 16.2043 87.2868 16.3039ZM91.8937 17.4307C91.9933 17.1241 92.2156 16.7868 91.9397 16.6642C91.6637 16.5415 91.564 16.9478 91.4567 17.2774C91.4414 17.4 91.7863 17.745 91.8937 17.4307ZM87.5091 20.4738C87.6088 20.5198 87.6624 20.3665 87.5628 20.3282C87.3328 20.1453 87.1481 19.9119 87.0231 19.646C86.8981 19.3801 86.8362 19.0889 86.8422 18.7951C86.8452 18.774 86.8406 18.7525 86.8295 18.7343C86.8183 18.7161 86.8011 18.7024 86.7809 18.6955C86.6199 18.6955 86.5049 19.2474 86.5586 19.5617C86.6155 19.7875 86.7348 19.9929 86.9029 20.1542C87.071 20.3155 87.2811 20.4262 87.5091 20.4738ZM90.4219 18.6495C90.5982 18.5345 90.7975 15.9896 90.6059 15.9666C90.4143 15.9436 90.1613 18.0209 90.1383 18.2662C87.6701 17.63 90.192 18.8028 90.4219 18.6495Z" fill="black"/>
</svg>
