<svg width="154" height="154" viewBox="0 0 154 154" fill="none" xmlns="http://www.w3.org/2000/svg">
<path fill-rule="evenodd" clip-rule="evenodd" d="M47.3036 88.8199C46.1625 90.7417 44.4837 92.2873 42.4744 93.2659C37.7601 95.4199 32.2103 92.553 30.7921 91.6255C30.774 91.6098 30.7509 91.6012 30.727 91.6012C30.7031 91.6012 30.6799 91.6098 30.6618 91.6255C30.6535 91.6334 30.6468 91.6429 30.6423 91.6534C30.6377 91.664 30.6354 91.6753 30.6354 91.6868C30.6354 91.6983 30.6377 91.7097 30.6423 91.7202C30.6468 91.7308 30.6535 91.7403 30.6618 91.7481C32.3769 93.1066 34.4024 94.0179 36.5566 94.4004C35.9434 94.7684 32.5552 96.9683 28.8374 97.16C22.705 97.4743 18.6883 93.0973 17.4848 91.7941C13.1998 87.0569 13.5448 84.5272 9.19076 82.036C7.5562 81.1154 5.76565 80.5047 3.90923 80.2346C3.88599 80.2323 3.86277 80.239 3.84426 80.2532C3.82576 80.2674 3.81336 80.2882 3.80958 80.3112C3.80739 80.3233 3.80764 80.3357 3.81033 80.3477C3.81303 80.3597 3.81809 80.3711 3.82524 80.3811C3.83239 80.3911 3.84147 80.3995 3.85194 80.406C3.86242 80.4124 3.87408 80.4167 3.88623 80.4185C5.70171 80.7313 7.44481 81.3729 9.02978 82.3119C13.2918 84.8645 12.7935 87.2638 17.1552 92.0931C18.3817 93.4499 22.5211 98.0032 28.8604 97.5663C30.341 97.4537 31.7961 97.1177 33.1761 96.5697C34.5853 96.0438 35.9181 95.3323 37.1392 94.4541C41.8305 95.1593 45.2646 93.0743 47.4416 88.9042C47.4525 88.8828 47.4546 88.858 47.4474 88.8351C47.4402 88.8122 47.4244 88.793 47.4033 88.7816C47.3847 88.7768 47.3652 88.778 47.3473 88.7848C47.3295 88.7917 47.3142 88.804 47.3036 88.8199ZM60.0437 67.3489L55.9043 67.0422L55.3141 69.2806L59.5991 69.5565L60.0437 67.3489ZM79.721 74.3091C79.773 74.3124 79.8246 74.2974 79.8666 74.2665C79.9086 74.2357 79.9385 74.1911 79.951 74.1405L80.2806 72.914C80.2933 72.885 80.2998 72.8537 80.2998 72.822C80.2998 72.7904 80.2933 72.7591 80.2806 72.73C80.2632 72.7022 80.2396 72.6788 80.2117 72.6615C80.1838 72.6442 80.1523 72.6336 80.1196 72.6304L54.8235 70.8597C54.8114 70.8575 54.799 70.8577 54.787 70.8604C54.775 70.8631 54.7636 70.8682 54.7536 70.8753C54.7436 70.8825 54.7352 70.8915 54.7287 70.902C54.7223 70.9125 54.718 70.9242 54.7162 70.9363C54.4479 72.0861 54.3712 72.2011 54.4249 72.2778C54.4328 72.2889 54.4431 72.2981 54.4551 72.3047C54.467 72.3113 54.4802 72.3152 54.4939 72.3161L79.721 74.3091ZM60.7872 72.5384L54.5705 72.1168L54.8465 71.0436C55.4521 71.0896 78.5022 72.937 79.767 73.029L79.5601 73.7955C78.8088 73.7879 62.7189 72.6611 60.7872 72.5384ZM65.1566 74.5468C65.1566 74.5468 63.5238 74.4011 62.0904 74.3091C61.0095 74.2401 60.0513 74.2018 60.0513 74.2018C60.0173 74.1988 59.9832 74.208 59.9552 74.2276C59.9271 74.2472 59.9069 74.2761 59.898 74.3091L59.6374 75.5893C59.6319 75.6013 59.629 75.6144 59.629 75.6276C59.629 75.6408 59.6319 75.6539 59.6374 75.6659C59.6597 75.6741 59.6841 75.6741 59.7064 75.6659L62.7726 76.0109L64.804 76.1872C64.8563 76.1921 64.9086 76.1777 64.951 76.1466C64.9934 76.1155 65.0229 76.0699 65.0339 76.0185L65.3635 74.7921C65.3762 74.763 65.3827 74.7317 65.3827 74.7001C65.3827 74.6684 65.3762 74.6371 65.3635 74.6081C65.338 74.5798 65.3052 74.5591 65.2687 74.5483C65.2322 74.5375 65.1934 74.537 65.1566 74.5468ZM64.643 75.7579L62.7956 75.6353L59.8597 75.5279L60.1587 74.5008C60.4423 74.5008 61.2165 74.6311 62.075 74.7154C63.1406 74.8227 64.3287 74.9224 64.85 74.9684L64.643 75.7579ZM77.3064 77.038C75.459 74.838 72.0019 77.9886 73.9412 80.1042C74.3344 80.4969 74.8624 80.725 75.4178 80.742C75.9732 80.7591 76.5142 80.564 76.9308 80.1962C77.1326 80.4262 77.3833 80.6081 77.6644 80.7288C77.9456 80.8495 78.2501 80.9059 78.5559 80.8938C79.1346 80.8676 79.6821 80.624 80.089 80.2116C80.3205 80.0361 80.5133 79.8147 80.6555 79.5614C80.7978 79.3081 80.8863 79.0282 80.9156 78.7392C80.9449 78.4502 80.9144 78.1582 80.826 77.8815C80.7375 77.6048 80.593 77.3493 80.4015 77.1309C80.21 76.9124 79.9755 76.7358 79.7128 76.6119C79.45 76.4881 79.1645 76.4197 78.8742 76.411C78.5838 76.4022 78.2947 76.4534 78.025 76.5613C77.7553 76.6692 77.5107 76.8315 77.3064 77.038ZM73.7036 78.5098C73.7 78.1231 73.8168 77.7449 74.0378 77.4276C74.2589 77.1103 74.5732 76.8697 74.9372 76.7391C75.3012 76.6085 75.6968 76.5944 76.0691 76.6988C76.4414 76.8032 76.7721 77.0209 77.0151 77.3217C76.7003 77.6481 76.4978 78.0665 76.4372 78.5159C76.3765 78.9653 76.4608 79.4224 76.6778 79.8206C76.4244 80.0555 76.1078 80.211 75.7671 80.2681C75.4263 80.3253 75.0763 80.2815 74.7602 80.1421C74.444 80.0028 74.1755 79.774 73.9878 79.484C73.8001 79.1939 73.7013 78.8553 73.7036 78.5098ZM76.9538 79.5293C76.7809 79.2094 76.7055 78.8458 76.7368 78.4834C76.7681 78.1211 76.9049 77.7759 77.1301 77.4903C77.309 77.8086 77.3878 78.1733 77.3564 78.537C77.3249 78.9007 77.1846 79.2465 76.9538 79.5293ZM79.813 79.8743C79.6439 80.0463 79.4423 80.1828 79.2199 80.2761C78.9975 80.3693 78.7587 80.4173 78.5175 80.4173C78.2764 80.4173 78.0376 80.3693 77.8152 80.2761C77.5928 80.1828 77.3912 80.0463 77.2221 79.8743C77.5548 79.5101 77.7559 79.045 77.7934 78.5532C77.8309 78.0613 77.7027 77.5711 77.429 77.1607C77.7889 76.8446 78.2596 76.6843 78.7376 76.7152C79.2156 76.7461 79.6617 76.9657 79.9778 77.3255C80.294 77.6853 80.4542 78.156 80.4233 78.634C80.3924 79.112 80.1729 79.5582 79.813 79.8743ZM97.091 98.1795C96.4397 98.4544 95.8997 98.9404 95.558 99.5593C95.4292 99.7769 95.3563 100.023 95.3456 100.276C95.335 100.528 95.387 100.78 95.497 101.007C95.6071 101.235 95.7717 101.432 95.9762 101.58C96.1808 101.729 96.4189 101.825 96.6694 101.859C97.3866 101.996 98.1292 101.888 98.7775 101.552C101.951 100.019 100.242 96.5084 97.091 98.1795ZM95.8186 100.855C95.7199 100.626 95.6828 100.376 95.711 100.128C95.7393 99.8806 95.8319 99.6449 95.9796 99.4443C97.4283 97.091 101.2 98.0338 99.7356 100.211C98.7851 101.637 96.4088 102.012 95.8186 100.855ZM102.656 101.046C101.954 100.946 101.238 101.078 100.617 101.422C98.4785 102.38 98.2485 104.703 100.188 105.14C100.905 105.273 101.646 105.165 102.296 104.833C104.465 103.752 104.557 101.407 102.656 101.046ZM100.587 104.756C97.9726 104.58 99.5287 101.031 102.273 101.315C105.017 101.598 103.193 104.925 100.587 104.756ZM107.378 105.078C107.256 104.856 107.083 104.666 106.874 104.522C106.665 104.379 106.426 104.286 106.175 104.251C105.476 104.188 104.773 104.319 104.143 104.628C103.513 104.938 102.98 105.414 102.603 106.006C102.477 106.226 102.404 106.472 102.39 106.724C102.375 106.977 102.419 107.23 102.518 107.462C102.637 107.691 102.806 107.89 103.013 108.043C103.221 108.196 103.46 108.299 103.714 108.344C104.429 108.478 105.168 108.37 105.814 108.037C106.941 107.501 107.945 106.213 107.378 105.078ZM104.113 107.953C103.868 107.96 103.625 107.902 103.409 107.785C103.194 107.668 103.013 107.496 102.886 107.286C102.785 107.057 102.747 106.804 102.775 106.555C102.804 106.306 102.897 106.069 103.047 105.868C103.328 105.408 103.736 105.038 104.221 104.803C104.706 104.568 105.248 104.477 105.784 104.542C106.037 104.55 106.283 104.625 106.497 104.76C106.711 104.895 106.886 105.084 107.003 105.308C107.57 106.412 105.853 108.091 104.113 107.976V107.953ZM109.701 107.501C109.001 107.393 108.285 107.525 107.669 107.876C107.02 108.154 106.481 108.639 106.136 109.256C106.011 109.476 105.938 109.722 105.923 109.974C105.909 110.227 105.953 110.48 106.052 110.713C106.17 110.941 106.34 111.14 106.547 111.293C106.754 111.446 106.994 111.549 107.248 111.594C107.963 111.729 108.704 111.619 109.348 111.28C111.502 110.207 111.625 107.861 109.701 107.501ZM110.329 109.885C110.023 110.31 109.616 110.652 109.146 110.882C108.675 111.112 108.155 111.223 107.631 111.203C107.387 111.21 107.146 111.151 106.932 111.034C106.718 110.917 106.538 110.745 106.412 110.536C106.311 110.307 106.273 110.055 106.301 109.805C106.33 109.556 106.423 109.319 106.573 109.118C106.852 108.651 107.261 108.275 107.749 108.036C108.238 107.797 108.785 107.704 109.325 107.769C109.576 107.755 109.825 107.816 110.041 107.945C110.257 108.073 110.43 108.263 110.538 108.49C110.646 108.717 110.683 108.97 110.646 109.219C110.609 109.467 110.499 109.699 110.329 109.885Z" fill="black"/>
<path fill-rule="evenodd" clip-rule="evenodd" d="M101.583 98.877C102.299 98.9955 103.035 98.887 103.686 98.5667C104.338 98.2464 104.873 97.7304 105.217 97.0909C106.044 95.2972 104.082 94.0247 102.012 95.1592C99.8584 96.1174 99.6514 98.4477 101.583 98.877ZM103.668 95.0442C106.282 95.3202 104.634 98.6547 101.974 98.486C99.3141 98.3174 100.916 94.7683 103.668 95.0519V95.0442ZM107.57 98.0108C106.87 97.9059 106.155 98.0381 105.539 98.3864C102.296 99.8352 103.959 103.384 107.21 101.798C109.371 100.724 109.494 98.3711 107.57 98.0108ZM107.01 101.391C105.178 102.303 103.446 101.253 104.442 99.6282C104.728 99.1673 105.137 98.7962 105.624 98.5575C106.111 98.3189 106.655 98.2224 107.194 98.2791C109.095 98.4784 108.85 100.479 107.01 101.391ZM112.261 103.545C112.391 103.324 112.463 103.074 112.471 102.817C112.478 102.561 112.422 102.306 112.306 102.078C112.19 101.849 112.018 101.653 111.807 101.507C111.596 101.362 111.351 101.272 111.096 101.246C110.396 101.174 109.69 101.301 109.058 101.611C108.427 101.922 107.895 102.403 107.524 103.001C107.398 103.221 107.326 103.467 107.311 103.719C107.296 103.972 107.34 104.225 107.44 104.457C108.221 106.098 111.387 105.431 112.261 103.545ZM107.961 102.855C108.248 102.394 108.659 102.024 109.147 101.785C109.635 101.546 110.18 101.45 110.72 101.506C110.971 101.492 111.221 101.553 111.437 101.682C111.653 101.81 111.825 102 111.933 102.227C112.041 102.454 112.079 102.708 112.041 102.956C112.004 103.205 111.894 103.436 111.725 103.622C110.268 105.784 106.589 105.078 107.961 102.855ZM112.591 104.841C111.94 105.116 111.4 105.602 111.058 106.221C110.161 107.953 112.085 109.287 114.27 108.244C114.932 107.937 115.472 107.416 115.803 106.765C115.916 106.535 115.974 106.282 115.974 106.025C115.974 105.769 115.916 105.516 115.803 105.285C115.251 104.197 113.679 104.25 112.591 104.841ZM115.251 106.849C114.947 107.278 114.537 107.621 114.063 107.846C112.215 108.758 110.498 107.685 111.487 106.083C111.786 105.626 112.198 105.253 112.683 105.002C113.177 104.776 113.721 104.684 114.262 104.733C114.513 104.719 114.762 104.781 114.978 104.909C115.194 105.037 115.367 105.227 115.475 105.454C115.582 105.681 115.62 105.935 115.583 106.183C115.546 106.432 115.435 106.664 115.266 106.849H115.251Z" fill="black"/>
<path fill-rule="evenodd" clip-rule="evenodd" d="M106.359 95.7188C108.428 96.1864 110.835 94.0554 110.03 92.4533C109.455 91.3648 107.892 91.4108 106.788 92.001C104.657 92.9516 104.419 95.2819 106.359 95.7188ZM108.444 91.886C111.058 92.162 109.379 95.4965 106.757 95.3202C104.136 95.1439 105.738 91.6101 108.444 91.8937V91.886ZM110.314 95.2282C107.049 96.6847 108.781 100.203 111.993 98.6317C115.205 97.0603 113.449 93.5341 110.314 95.2282ZM112.974 97.2366C112.674 97.6659 112.267 98.0095 111.793 98.2331C109.984 99.1223 108.206 98.1104 109.218 96.47C110.659 94.132 114.438 95.0596 112.974 97.2366ZM115.511 101.859C116.173 101.55 116.713 101.03 117.044 100.379C117.16 100.15 117.22 99.8966 117.22 99.6397C117.22 99.3828 117.16 99.1295 117.044 98.9C116.469 97.8038 114.898 97.8728 113.809 98.4554C110.628 99.8888 112.253 103.453 115.511 101.859ZM115.511 98.3481C115.765 98.3309 116.018 98.3907 116.237 98.5197C116.457 98.6486 116.632 98.8407 116.741 99.0708C116.849 99.301 116.886 99.5585 116.845 99.8097C116.805 100.061 116.69 100.294 116.515 100.479C115.059 102.641 111.372 101.959 112.759 99.7125C113.04 99.25 113.446 98.8764 113.93 98.635C114.415 98.3935 114.957 98.2941 115.496 98.3481H115.511ZM117.366 101.683C116.714 101.955 116.173 102.442 115.833 103.062C115.704 103.28 115.631 103.526 115.621 103.779C115.61 104.031 115.662 104.283 115.772 104.51C115.882 104.738 116.047 104.935 116.251 105.083C116.456 105.232 116.694 105.328 116.945 105.362C117.659 105.5 118.4 105.392 119.045 105.055C122.272 103.484 120.494 99.9962 117.366 101.683ZM116.109 104.312C116.008 104.084 115.97 103.833 115.998 103.585C116.026 103.337 116.12 103.101 116.27 102.901C117.328 101.177 119.75 101.207 120.241 102.28C121.115 104.151 116.975 106.052 116.109 104.312ZM109.946 91.6791C110.063 91.9086 110.233 92.1078 110.44 92.2608C110.648 92.4137 110.888 92.5164 111.142 92.5606C111.857 92.6774 112.591 92.5681 113.241 92.2479C113.891 91.9277 114.424 91.4126 114.768 90.7745C114.887 90.5473 114.952 90.2957 114.959 90.0393C114.965 89.7828 114.913 89.5282 114.806 89.2951C113.664 87.1104 108.927 89.4561 109.946 91.6791ZM113.227 88.7355C113.478 88.7216 113.727 88.7827 113.943 88.911C114.159 89.0393 114.332 89.2291 114.44 89.4561C114.547 89.683 114.585 89.9369 114.548 90.1854C114.511 90.4339 114.4 90.6657 114.231 90.8512C113.927 91.2797 113.518 91.6228 113.043 91.8477C112.123 92.3 110.743 92.3613 110.314 91.5028C109.747 90.4373 111.234 88.5286 113.227 88.7355Z" fill="black"/>
<path fill-rule="evenodd" clip-rule="evenodd" d="M113.449 94.9063C114.553 97.206 119.482 94.8373 118.309 92.5147C118.185 92.2953 118.011 92.1073 117.803 91.9651C117.594 91.823 117.356 91.7304 117.106 91.6945C115.304 91.3572 112.683 93.2199 113.449 94.9063ZM115.151 92.231C115.646 92.0071 116.189 91.9121 116.73 91.9551C116.983 91.9648 117.228 92.0407 117.442 92.1752C117.656 92.3098 117.831 92.4982 117.949 92.7216C118.363 93.5955 117.489 94.6457 116.546 95.1056C113.848 96.4164 112.507 93.6722 115.174 92.231H115.151Z" fill="black"/>
<path fill-rule="evenodd" clip-rule="evenodd" d="M120.295 98.7006C120.957 98.3938 121.497 97.8726 121.828 97.2212C121.957 96.9998 122.029 96.7495 122.037 96.4931C122.045 96.2367 121.988 95.9824 121.872 95.7536C121.756 95.5248 121.585 95.3287 121.373 95.1833C121.162 95.038 120.918 94.948 120.663 94.9216C119.962 94.8196 119.247 94.9545 118.631 95.3048C115.404 96.7229 117.029 100.295 120.295 98.7006ZM118.7 95.4581C119.194 95.2305 119.738 95.1354 120.279 95.1822C120.532 95.1919 120.777 95.2678 120.991 95.4023C121.205 95.5369 121.38 95.7253 121.498 95.9487C121.586 96.1778 121.612 96.4263 121.573 96.6687C121.534 96.9111 121.432 97.1388 121.276 97.3285C120.978 97.7599 120.57 98.1039 120.095 98.325C119.622 98.568 119.093 98.6817 118.562 98.6546C116.676 98.4937 116.883 96.4317 118.7 95.4581ZM120.517 101.361C121.283 102.993 124.457 102.357 125.346 100.448C125.459 100.218 125.518 99.9651 125.518 99.7087C125.518 99.4522 125.459 99.1992 125.346 98.9689C125.223 98.7591 125.054 98.5794 124.853 98.4429C124.651 98.3063 124.422 98.2163 124.181 98.1794C123.479 98.0786 122.762 98.2106 122.142 98.555C121.015 99.0226 120.011 100.234 120.517 101.361ZM122.226 98.6776C122.717 98.4512 123.259 98.3587 123.798 98.4094C124.051 98.4185 124.298 98.4941 124.513 98.6286C124.729 98.7632 124.905 98.9519 125.024 99.1759C125.113 99.405 125.139 99.6534 125.099 99.8958C125.06 100.138 124.958 100.366 124.802 100.556C123.345 102.725 119.666 102.035 121.046 99.7892C121.337 99.3234 121.744 98.9405 122.226 98.6776Z" fill="black"/>
<path fill-rule="evenodd" clip-rule="evenodd" d="M149.477 108.275C144.594 102.441 136.484 94.8373 129.547 90.6442C124.449 87.578 119.206 86.9265 115.749 87.8003C114.578 86.856 113.397 85.9234 112.207 85.0024C109.432 82.8638 106.619 80.7941 104.013 78.9467C98.2945 74.884 93.6108 71.8868 92.645 71.4958C91.7354 71.1551 90.7839 70.9385 89.8164 70.8519C88.4622 70.7339 87.1003 70.7339 85.746 70.8519L86.091 68.7976C86.1399 68.5048 86.1267 68.205 86.0521 67.9177C85.9776 67.6303 85.8434 67.3619 85.6583 67.1298C85.4732 66.8977 85.2414 66.7072 84.9778 66.5706C84.7143 66.434 84.4249 66.3544 84.1286 66.3369C52.7767 64.5279 54.9001 64.5355 54.1182 65.0798C53.114 65.785 53.4053 66.4059 51.2896 72.8373C48.0701 69.8707 44.0994 66.6052 40.4966 63.8457C31.0987 56.6631 23.9468 59.185 16.3349 58.2268C12.8241 57.7822 9.10638 57.1077 9.10638 57.1077C9.09428 57.1055 9.08187 57.1058 9.06987 57.1084C9.05787 57.1111 9.04654 57.1162 9.03653 57.1233C9.02653 57.1305 9.01806 57.1396 9.01162 57.15C9.00519 57.1605 9.00091 57.1722 8.99906 57.1843C8.99657 57.2085 9.00298 57.2327 9.0171 57.2525C9.03121 57.2723 9.05206 57.2862 9.07572 57.2917C9.15237 57.2917 17.9064 58.9781 21.1795 58.9244C24.5539 58.6566 27.9494 58.9152 31.2443 59.691C34.5153 60.6106 37.5697 62.1743 40.2283 64.2903C44.8079 67.747 49.1749 71.4766 53.3056 75.4589C54.7108 76.7487 55.924 78.2329 56.9084 79.8666C57.675 81.3997 56.5328 81.6143 55.3753 81.8059C53.5969 82.1125 50.8297 81.7523 47.3266 80.1042C43.8234 78.4561 39.5307 75.3056 35.0618 70.139C35.0618 70.139 34.8778 70.1927 34.8395 70.2234C34.8311 70.2312 34.8245 70.2407 34.8199 70.2513C34.8154 70.2618 34.813 70.2732 34.813 70.2847C34.813 70.2962 34.8154 70.3075 34.8199 70.3181C34.8245 70.3286 34.8311 70.3381 34.8395 70.346C39.2471 75.6352 43.5245 78.778 47.1503 80.5488C49.1047 81.5812 51.243 82.2193 53.4436 82.4268C52.6271 83.9354 51.5531 85.2896 50.2701 86.4282C49.1911 87.2746 47.9468 87.8858 46.6174 88.2224C45.288 88.5591 43.9028 88.6137 42.551 88.3829C39.8175 87.978 37.2032 86.9898 34.8855 85.4854C34.8776 85.477 34.8681 85.4704 34.8575 85.4658C34.847 85.4613 34.8356 85.4589 34.8241 85.4589C34.8126 85.4589 34.8013 85.4613 34.7907 85.4658C34.7802 85.4704 34.7707 85.477 34.7628 85.4854C34.7545 85.4932 34.7478 85.5028 34.7433 85.5133C34.7387 85.5238 34.7364 85.5352 34.7364 85.5467C34.7364 85.5582 34.7387 85.5695 34.7433 85.5801C34.7478 85.5906 34.7545 85.6001 34.7628 85.608C37.0416 87.3042 39.6939 88.4292 42.4973 88.8888C43.9232 89.1265 45.3835 89.0558 46.7798 88.6816C48.1761 88.3074 49.4761 87.6384 50.5921 86.7195C51.9687 85.5136 53.0963 84.0502 53.9112 82.4115C54.8924 82.4911 55.8784 82.3334 56.7858 81.9516L66.9579 82.8484C65.5781 83.7376 63.6387 86.5279 62.7955 87.9383C62.4889 88.4442 62.3126 88.7662 62.3126 88.7662C62.297 88.7843 62.2884 88.8074 62.2884 88.8314C62.2884 88.8553 62.297 88.8784 62.3126 88.8965C62.052 89.4331 60.8332 92.6143 64.8576 97.4359C67.9238 101.131 73.9105 103.208 77.268 100.326L82.7565 103.913C81.0701 103.568 78.5788 103.43 77.1377 104.396C74.0715 106.466 78.8318 109.44 82.3196 111.556C82.6568 111.763 85.3858 113.426 89.2952 115.312C90.1195 116.621 91.2376 117.721 92.5607 118.524C94.077 119.425 95.7956 119.931 97.5586 119.995C98.3415 120.917 99.2589 121.716 100.28 122.364C102.779 123.897 106.205 124.51 114.952 124.219C120.382 124.04 125.795 123.508 131.156 122.625C132.636 125.223 135.357 129.424 135.556 129.715C135.878 130.191 136.967 131.731 137.166 132.015C137.184 132.029 137.205 132.036 137.228 132.036C137.25 132.036 137.271 132.029 137.289 132.015C137.304 131.998 137.312 131.976 137.312 131.954C137.312 131.931 137.304 131.909 137.289 131.892C137.097 131.578 136.162 129.945 135.871 129.455C135.817 129.363 133.226 125.216 131.333 122.556C132.352 122.379 133.341 122.195 134.307 122.004C134.318 122.002 134.329 121.998 134.338 121.992C134.348 121.986 134.356 121.978 134.363 121.969C134.369 121.959 134.374 121.949 134.376 121.938C134.378 121.927 134.378 121.915 134.376 121.904C134.374 121.892 134.37 121.88 134.363 121.87C134.357 121.859 134.348 121.85 134.338 121.843C134.328 121.836 134.317 121.831 134.305 121.828C134.293 121.826 134.281 121.825 134.269 121.827C127.866 122.91 121.396 123.55 114.906 123.744C106.336 123.997 102.947 123.46 100.471 121.958C97.6582 120.248 92.6603 113.349 91.7251 110.352C90.1307 105.239 94.7913 106.604 97.7119 109.678C101.322 113.441 102.725 116.715 105.04 118.11C106.607 118.985 108.294 119.628 110.046 120.018C110.042 120.025 110.04 120.033 110.04 120.041C110.04 120.05 110.042 120.057 110.046 120.064C110.049 120.075 110.055 120.085 110.062 120.093C110.069 120.102 110.078 120.109 110.088 120.114C110.098 120.119 110.109 120.122 110.12 120.122C110.131 120.123 110.142 120.122 110.153 120.118C115.519 118.416 120.954 115.603 124.671 112.238C126.374 110.777 127.755 108.979 128.726 106.956C129.366 105.573 129.607 104.039 129.424 102.526C129.286 101.506 128.52 100.172 127.285 98.6394C125.072 96.0502 122.646 93.6503 120.034 91.4645C118.715 90.3146 117.313 89.1648 115.864 87.9843C118.116 87.591 120.427 87.6851 122.64 88.2603C124.978 88.8327 127.211 89.7719 129.255 91.0429C134.192 94.0631 139.535 98.7083 143.69 102.702C145.989 104.933 147.967 106.956 149.255 108.421C149.27 108.438 149.291 108.448 149.314 108.45C149.337 108.451 149.36 108.443 149.377 108.428C149.395 108.413 149.405 108.391 149.407 108.368C149.408 108.345 149.4 108.323 149.385 108.306L149.477 108.275ZM57.0464 81.7906C57.675 81.3767 57.9893 80.8784 57.3914 79.6749C56.4291 78.063 55.2447 76.5947 53.8729 75.3132C59.0241 75.9265 58.8248 75.8192 58.8785 75.6275L59.2004 74.4011C59.2133 74.3707 59.2199 74.3382 59.2199 74.3052C59.2199 74.2723 59.2133 74.2397 59.2004 74.2094C59.1806 74.1828 59.1553 74.1608 59.1262 74.145C59.0971 74.1291 59.0649 74.1197 59.0318 74.1174C53.7119 73.7341 53.8422 73.7035 53.7962 73.8875L53.5739 74.976C52.9224 74.3244 52.5008 73.9181 51.7496 73.2206C54.0492 66.5746 53.4283 65.9 54.3022 65.3021C55.0687 64.7962 52.7231 64.8805 84.121 66.7662C84.3536 66.7812 84.5804 66.8448 84.7869 66.9531C84.9933 67.0614 85.1747 67.2118 85.3192 67.3946C85.4637 67.5775 85.5683 67.7887 85.6259 68.0145C85.6836 68.2404 85.6932 68.4758 85.6541 68.7056L83.4157 82.1739C83.3453 82.5864 83.124 82.958 82.7948 83.2164C82.466 83.479 82.0489 83.6052 81.6297 83.569L57.0464 81.7906ZM53.7119 75.0986L54.0109 74.0791C55.6206 74.2784 57.0771 74.4087 58.7022 74.5467L58.4952 75.3132L56.6478 75.1829C56.1419 75.1829 53.9342 75.1063 53.7119 75.0986ZM82.5802 111.126C80.8095 110.03 78.1572 108.298 77.0534 106.941C75.9495 105.584 77.1377 104.488 78.7628 104.097C80.3879 103.706 82.3502 104.212 83.3621 104.434L85.3091 105.485C86.2401 108.76 87.5252 111.924 89.1419 114.921C86.0833 113.28 82.6492 111.211 82.5802 111.149V111.126ZM91.7788 107.033C91.7788 107.033 90.7976 107.907 91.5258 110.406C92.346 113.196 96.0408 118.156 97.3823 119.727C95.7467 119.553 94.173 119.005 92.783 118.125C91.29 117.183 90.0754 115.86 89.2645 114.292C87.8036 111.429 86.5559 108.462 85.5314 105.416C85.1405 104.266 84.9105 103.476 84.8338 103.216C84.8046 103.018 84.8174 102.816 84.8716 102.624C84.9257 102.431 85.02 102.253 85.1481 102.099C85.2762 101.946 85.4353 101.821 85.615 101.733C85.7947 101.646 85.9908 101.597 86.1906 101.591C88.7509 101.33 91.6255 106.895 91.7941 107.025L91.7788 107.033ZM119.781 91.7481C122.374 93.918 124.781 96.3 126.979 98.8693C127.451 99.4423 127.884 100.047 128.274 100.678C127.646 101.169 127.002 101.644 126.366 102.112C124.326 103.645 121.153 105.814 118.14 107.731C113.641 110.598 110.421 112.33 107.409 114.047C107.394 114.064 107.385 114.086 107.385 114.108C107.385 114.131 107.394 114.153 107.409 114.17C107.414 114.18 107.421 114.189 107.429 114.196C107.437 114.204 107.447 114.21 107.458 114.213C107.469 114.217 107.48 114.218 107.491 114.217C107.503 114.216 107.514 114.213 107.524 114.208C111.28 112.39 114.92 110.342 118.424 108.076C121.246 106.304 123.969 104.38 126.58 102.311C127.193 101.821 127.799 101.322 128.405 100.778C128.729 101.296 128.952 101.871 129.064 102.472C129.242 103.906 129.017 105.361 128.412 106.673C127.478 108.65 126.144 110.412 124.495 111.847C120.839 115.22 115.496 118.087 110.176 119.834C109.869 119.068 107.439 113.342 103.277 109.593C98.8464 105.561 73.006 86.3976 69.4339 85.907C66.291 85.4624 65.0952 85.769 63.1865 87.785C64.4743 86.0909 66.5286 83.2317 67.3105 82.7564L75.5356 83.431C74.8764 83.8449 74.2401 84.2665 73.6346 84.6728C73.6346 84.6728 84.4659 91.7404 91.0889 96.5773C91.0889 96.5773 107.554 88.3599 110.835 86.5202C110.835 86.5202 96.2018 75.7885 93.0053 73.5578C93.0053 73.5578 89.1725 75.5202 84.4889 78.1571L85.6924 71.1739C87.0508 71.0708 88.4157 71.0913 89.7704 71.2352C92.0701 71.4958 92.4534 71.2352 103.66 79.3223C106.251 81.185 109.149 83.155 111.916 85.3014C114.683 87.4477 117.382 89.6631 119.812 91.7711L119.781 91.7481ZM105.101 55.3523L97.0603 71.9788C97.0344 72.0249 97.0271 72.0791 97.0399 72.1305C97.0527 72.1818 97.0847 72.2262 97.1293 72.2547C97.1692 72.2877 97.2193 72.3058 97.2711 72.3058C97.3229 72.3058 97.3731 72.2877 97.4129 72.2547L111.418 58.2115C114.614 59.0192 117.963 58.9982 121.149 58.1504C124.335 57.3027 127.251 55.6563 129.623 53.3669C131.404 51.648 132.819 49.5876 133.784 47.309C134.75 45.0303 135.246 42.5803 135.242 40.1056C135.223 37.627 134.715 35.1764 133.748 32.8943C132.781 30.6121 131.373 28.5432 129.605 26.8059C127.837 25.0685 125.744 23.697 123.445 22.7696C121.146 21.8423 118.687 21.3775 116.209 21.4018C105.63 21.4018 97.045 29.7495 97.045 40.0826C97.0453 43.1218 97.7985 46.1136 99.2373 48.7906C100.649 51.4084 102.658 53.6564 105.101 55.3523ZM116.209 21.7697C125.407 21.7697 134.782 29.0213 134.782 40.0826C134.824 42.4819 134.368 44.8639 133.445 47.0788C132.521 49.2937 131.15 51.2936 129.416 52.953C127.384 54.9576 124.913 56.4619 122.199 57.3466C119.485 58.2313 116.602 58.4723 113.779 58.0505C112.982 58.0079 112.189 57.9183 111.402 57.7822C111.188 57.7286 112.069 57.0157 98.0108 70.9976L105.577 55.3676C105.602 55.3206 105.608 55.2657 105.594 55.2142C105.58 55.1628 105.546 55.1189 105.5 55.0917C103.055 53.4243 101.049 51.1918 99.6513 48.5836C98.2388 45.9727 97.4986 43.0511 97.4973 40.0826C97.4666 30.0025 105.86 21.7851 116.209 21.7697Z" fill="black"/>
<path fill-rule="evenodd" clip-rule="evenodd" d="M116.347 51.2434C118.588 51.2434 120.779 50.5788 122.642 49.3335C124.505 48.0883 125.957 46.3184 126.815 44.2477C127.672 42.1771 127.896 39.8987 127.458 37.7007C127.02 35.5028 125.94 33.4841 124.355 31.8999C122.77 30.3157 120.751 29.2373 118.552 28.801C116.354 28.3647 114.076 28.5902 112.006 29.4489C109.936 30.3075 108.167 31.7609 106.923 33.625C105.679 35.4892 105.016 37.6804 105.017 39.9215C105.019 42.925 106.214 45.8047 108.338 47.9278C110.463 50.0509 113.343 51.2434 116.347 51.2434ZM124.61 37.9285C125.046 39.7249 124.884 41.6145 124.149 43.3105C123.413 45.0065 122.145 46.4163 120.535 47.3258C118.926 48.2354 117.064 48.5951 115.232 48.3503C113.399 48.1056 111.697 47.2697 110.383 45.9696L124.61 37.9285ZM116.347 31.4128C117.751 31.4163 119.133 31.7683 120.368 32.4372C121.602 33.1061 122.652 34.0711 123.422 35.2456L108.635 43.4783C108.123 42.3603 107.861 41.1437 107.869 39.9138C107.869 37.6632 108.761 35.5044 110.35 33.9108C111.94 32.3172 114.096 31.4189 116.347 31.4128Z" fill="black"/>
</svg>
