<svg width="154" height="154" viewBox="0 0 154 154" fill="none" xmlns="http://www.w3.org/2000/svg">
<path d="M89.9777 115.867C89.8351 115.133 89.5277 114.44 89.0777 113.842C88.6278 113.244 88.0475 112.757 87.3814 112.416C86.7152 112.076 85.9801 111.892 85.232 111.878C84.4838 111.864 83.7418 112.02 83.0634 112.335C77.6339 114.491 79.9719 122.97 85.9977 121.846C86.6539 121.719 87.2786 121.464 87.8352 121.094C88.3917 120.724 88.8692 120.247 89.2395 119.69C89.6105 119.134 89.8665 118.509 89.993 117.853C90.1195 117.197 90.1141 116.522 89.9777 115.867ZM85.1262 121.176C78.9884 120.691 79.7603 112.659 84.9545 112.575C90.6162 112.482 90.9405 120.778 85.1262 121.176Z" fill="black"/>
<path d="M82.3449 116.883C82.3372 117.567 82.5963 118.226 83.0677 118.722C83.5384 119.218 84.1838 119.511 84.8668 119.538C85.2195 119.555 85.5721 119.499 85.9025 119.374C86.2328 119.249 86.5341 119.058 86.7878 118.812C87.0408 118.566 87.2408 118.27 87.3758 117.943C87.5107 117.617 87.5766 117.266 87.5705 116.913C87.582 113.445 82.4668 113.545 82.3449 116.883ZM83.7806 118.451C83.4012 118.181 83.1306 117.784 83.0172 117.332C82.9037 116.881 82.9551 116.403 83.162 115.986C83.369 115.569 83.7178 115.239 84.1463 115.056C84.574 114.872 85.0539 114.848 85.4985 114.987C85.8687 115.097 86.1976 115.316 86.4421 115.615C86.6874 115.913 86.8376 116.278 86.8729 116.663C86.9036 117.036 86.8277 117.41 86.6544 117.741C86.4812 118.072 86.2175 118.347 85.894 118.534C85.5705 118.721 85.2003 118.813 84.827 118.799C84.4529 118.783 84.0919 118.663 83.7837 118.451H83.7806Z" fill="black"/>
<path fill-rule="evenodd" clip-rule="evenodd" d="M75.6929 85.8732C79.6055 86.8551 83.3072 87.6983 86.6049 88.3675C87.9394 88.6389 89.1613 88.8665 90.2766 89.0743C100.026 90.8918 101.611 91.1869 99.1395 105.576C99.1249 105.66 99.1034 105.792 99.0766 105.956C98.9486 106.74 98.6979 108.267 98.4986 108.979C98.4151 109.276 98.3952 109.501 98.3814 109.662C98.3576 109.926 98.3492 110.02 98.1046 109.983C96.823 109.789 95.9537 109.682 95.168 109.586C93.3428 109.363 91.9646 109.195 86.913 108.104C86.2262 107.955 85.5516 107.785 84.8977 107.619C81.8607 106.851 79.2628 106.194 77.8455 108.381C77.2284 109.334 74.3523 119.02 75.0054 120.593C75.5619 121.935 76.2503 122.975 78.7615 123.924C83.6329 125.602 88.6377 126.867 93.7215 127.703C93.7621 127.71 93.7936 127.712 93.8127 127.728C93.8878 127.793 93.7713 128.082 93.2554 129.764C93.0063 130.576 92.7679 131.357 92.5387 132.108C88.0115 146.924 87.0494 150.073 79.3809 148.552C78.6235 148.402 77.8823 148.257 77.1502 148.113C70.3296 146.776 64.3409 145.603 53.7996 142.167C41.1515 138.045 30.4842 133.236 24.1456 129.679C16.3895 125.327 17 120.717 18.7805 107.274C19.0502 105.238 19.3468 102.998 19.6452 100.527C19.6497 100.488 19.6428 100.457 19.6554 100.441C19.7137 100.364 20.1846 100.604 24.0697 101.973C25.3149 102.412 25.7869 102.422 26.0875 102.654C26.5837 103.038 26.6125 104.027 28.8806 108.549C29.5214 109.828 33.2392 116.767 34.77 118.893C35.8615 120.409 42.263 121.883 44.0682 122.279C44.5018 122.374 44.5083 122.431 44.5241 122.57C44.5253 122.582 44.5266 122.592 44.5282 122.605C44.5388 122.698 44.5478 122.783 44.5563 122.864C44.634 123.597 44.6745 123.98 45.6389 127.555C45.8281 128.256 45.9939 128.615 46.0867 128.817C46.2003 129.063 46.2046 129.072 46.0084 129.183L45.9929 129.192C45.2079 129.639 44.731 129.909 44.5688 130.882C44.4585 131.365 44.4996 131.871 44.6864 132.33C44.8733 132.789 45.1968 133.179 45.6132 133.448C46.0296 133.717 46.5187 133.852 47.014 133.833C47.5093 133.815 47.987 133.644 48.3821 133.345C48.7772 133.045 49.0707 132.632 49.2227 132.16C49.3747 131.688 49.3778 131.181 49.2317 130.707C49.0856 130.233 48.7973 129.816 48.4059 129.512C48.0145 129.208 47.5391 129.031 47.044 129.007C46.889 128.998 46.785 128.993 46.7053 128.947C46.3706 128.752 46.4685 127.814 45.0387 122.662C44.9546 122.361 45.0083 122.228 44.9677 122.138C44.8604 121.899 44.0928 121.955 38.3651 119.979C37.6891 119.746 37.1773 119.577 36.786 119.448C35.6212 119.062 35.5245 119.031 35.3449 118.718C34.9677 118.061 26.2781 102.713 27.0071 102.92C31.5718 104.224 32.1121 104.29 32.3048 104.584C32.3446 104.644 32.3696 104.715 32.4121 104.808C32.7815 105.619 35.0613 109.958 36.2448 111.839C36.487 112.226 36.6602 112.476 36.7763 112.644C37.0091 112.981 37.0121 112.985 36.881 113.083C36.5228 113.358 36.2524 113.732 36.1025 114.158C35.9524 114.584 35.9295 115.045 36.0363 115.484C36.1432 115.923 36.3752 116.322 36.7042 116.632C37.0332 116.941 37.4451 117.149 37.8898 117.23C40.9752 117.674 41.6398 113.316 38.8794 112.685C37.6852 112.411 37.4888 112.843 37.3309 112.829C37.1024 112.809 36.9543 111.857 33.9735 106.483C33.313 105.291 32.9893 104.827 33.0803 104.722C33.1641 104.625 33.6003 104.833 34.4496 105.058C38.2796 106.07 38.674 106.003 38.8325 106.166C38.8724 106.207 38.8974 106.262 38.9584 106.353C40.1122 108.075 40.4644 108.614 40.8391 109.139C41.214 109.662 41.6116 110.171 42.8571 111.829C42.9748 111.985 43.0855 112.134 43.191 112.276C43.9482 113.296 44.4362 113.954 45.3169 114.358C51.0999 117.025 52.2812 116.606 52.8236 117.022C53.0714 117.212 53.1859 117.576 53.5451 118.488C54.8719 121.857 55.2566 122.284 55.1726 122.418C55.1502 122.454 55.0945 122.469 55.0146 122.513C54.4973 122.814 54.0895 123.272 53.8505 123.82C53.6115 124.369 53.5538 124.98 53.6858 125.564C53.8178 126.148 54.1326 126.674 54.5844 127.067C55.0363 127.459 55.6015 127.698 56.198 127.747C56.7945 127.796 57.3912 127.653 57.9012 127.34C58.4111 127.027 58.8078 126.559 59.0337 126.004C59.2595 125.45 59.3026 124.838 59.1568 124.258C59.0109 123.678 58.6837 123.159 58.2226 122.777C57.8788 122.484 57.4682 122.28 57.0271 122.184C56.586 122.087 56.1278 122.1 55.693 122.222C55.5887 122.238 55.5633 122.144 55.4714 121.808C55.3203 121.255 54.9892 120.043 53.8302 117.572C53.7436 117.27 53.581 116.995 53.3578 116.774C53.1347 116.552 52.8584 116.391 52.5555 116.307C49.8424 115.339 48.7814 114.945 48.2261 114.74C47.7427 114.561 47.6423 114.524 47.1689 114.373C45.0502 113.704 44.9406 113.563 44.7244 113.263C43.7601 111.92 42.4437 110.13 41.3421 108.631C40.5277 107.524 39.8307 106.576 39.4804 106.087C39.1401 105.612 39.1188 105.606 37.1367 105.074C35.3279 104.589 31.8863 103.667 25.0792 101.55C25.0601 101.55 20.9268 100.254 19.79 99.7531C20.0902 97.2112 20.1626 97.2465 20.3519 97.3377C20.3681 97.3454 20.3852 97.3538 20.4033 97.3607C28.5631 100.509 35.911 102.274 39.5208 103.14C40.6504 103.412 41.414 103.595 41.7218 103.705C42.0062 103.807 43.0624 105.256 44.2582 106.897C45.2316 108.233 46.2977 109.694 47.1153 110.661C47.5511 111.175 47.7674 111.255 51.0363 112.456C51.2976 112.552 51.5783 112.656 51.8801 112.767C58.5704 115.23 59.3437 115.36 59.358 115.548C59.3608 115.586 59.3321 115.627 59.3157 115.69C59.2015 116.201 59.2258 116.732 59.3859 117.23C59.5459 117.728 59.8362 118.173 60.2263 118.521C60.6166 118.869 61.0926 119.107 61.6054 119.21C62.1181 119.312 62.6489 119.276 63.1428 119.104C63.6368 118.932 64.0759 118.632 64.4149 118.234C64.7538 117.836 64.9802 117.355 65.0708 116.839C65.1613 116.324 65.1126 115.795 64.9298 115.305C64.7469 114.815 64.4365 114.383 64.0307 114.053C63.4853 113.616 62.804 113.385 62.1054 113.399C61.4069 113.413 60.7354 113.671 60.2079 114.13C59.6519 114.6 59.6272 114.896 59.4919 114.961C59.186 115.107 58.315 114.071 49.4663 111.193C48.7807 110.97 48.4654 110.962 48.1978 110.844C47.6068 110.585 47.2487 109.795 43.6474 104.984C43.0824 104.231 42.815 103.813 42.4478 103.519C41.6941 102.917 40.5204 102.84 35.4905 101.469C35.2537 101.404 21.0334 97.0993 20.3174 96.8279C20.3239 96.7666 20.3297 96.7053 20.3354 96.644C20.3492 96.496 20.363 96.3473 20.388 96.2009C20.6219 94.8303 20.6493 94.5406 20.7492 94.513C20.7783 94.5045 20.8135 94.5191 20.8617 94.5352C21.3509 94.7 21.9687 94.9154 22.6435 95.1515C24.4274 95.7755 26.6102 96.5382 27.871 96.8594C29.3353 97.2319 30.3917 97.5263 31.1806 97.7463C33.3387 98.348 33.4967 98.3917 34.5323 97.9548C38.936 96.0966 39.2863 95.2097 39.8051 95.0963C40.2969 94.989 40.9404 95.5777 45.3307 96.693C46.3117 97.0058 47.3214 97.2196 48.3448 97.3316C48.3844 97.3339 48.4083 97.33 48.4292 97.3362C48.5753 97.3783 48.5755 97.9187 52.7862 104.607C53.0756 105.064 54.0669 105.358 55.119 105.67C55.4605 105.772 55.8083 105.876 56.1406 105.987C60.4459 107.421 61.1767 107.273 61.3151 107.494C61.3473 107.547 61.3476 107.618 61.3532 107.734C61.365 108.375 61.5997 108.993 62.017 109.481C62.4342 109.969 63.0082 110.296 63.6405 110.407C64.2727 110.519 64.9239 110.407 65.4825 110.09C66.0411 109.773 66.4723 109.273 66.7021 108.673C67.9417 105.308 63.0779 103.308 61.5747 106.638C61.51 106.782 61.494 106.883 61.4353 106.93C61.212 107.109 60.3716 106.517 53.9015 104.602C53.2369 104.406 52.8843 103.784 52.4213 102.95C50.8008 100.037 49.9151 98.6531 49.4776 97.9693C49.0749 97.34 49.0519 97.304 49.1849 97.2143C49.4171 97.0571 49.8195 96.8379 50.4527 96.493C50.9695 96.2124 51.64 95.8475 52.4972 95.3638C53.4197 94.8426 54.0466 94.4693 54.4874 94.2063C55.4729 93.6192 55.5279 93.5862 55.8754 93.6981C61.0809 95.3753 63.4356 95.8835 64.4883 96.1104C65.2915 96.2837 65.3369 96.2936 65.3124 96.5343C65.2587 97.061 65.373 97.5907 65.6389 98.0475C65.9049 98.5051 66.3087 98.8662 66.7926 99.0801C67.3014 99.3024 67.8703 99.3476 68.4076 99.2073C68.9451 99.0678 69.4197 98.7504 69.7553 98.3081C70.091 97.8658 70.268 97.3231 70.258 96.7681C70.248 96.2132 70.0515 95.6773 69.7001 95.2473C69.3205 94.7506 68.7617 94.4217 68.1431 94.332C67.5245 94.2416 66.8951 94.3964 66.3894 94.7644C65.7784 95.2534 65.6079 95.5685 65.5167 95.7379C65.4363 95.8866 65.4175 95.9211 65.2127 95.8598C64.9697 95.79 64.1431 95.5279 63.0745 95.1898C60.6277 94.4148 56.9118 93.2374 56.0256 93.0419C55.0452 92.825 49.6395 96.1472 48.8799 96.7275C48.5774 96.9582 48.5489 96.9498 46.3352 96.3128C45.8278 96.1672 45.2053 95.9878 44.4385 95.7709C44.3403 95.7433 40.7376 94.7192 40.4754 94.6088C39.9484 94.388 39.7006 94.5244 38.3968 95.2435C38.0584 95.4297 37.6488 95.6559 37.1447 95.9249C35.2744 96.9222 34.6699 97.2281 34.3664 97.3821C34.1747 97.4795 34.103 97.5155 33.9084 97.6267C33.8697 97.6489 33.8395 97.6696 33.8073 97.6872C33.529 97.8367 33.0987 97.7026 25.809 95.4972C21.6594 94.2424 20.8379 94.1427 20.7857 93.8859C20.7627 93.7732 20.8893 93.6299 20.946 93.3432C21.0593 92.7729 21.024 92.4157 21.1841 92.2631C21.5957 91.8699 23.2993 92.8304 32.1445 95.0089C32.2251 95.0288 32.2858 95.0442 32.3473 95.048C32.6698 95.0687 33.0131 94.7582 36.3652 92.9454C39.1509 91.4383 39.1652 91.4445 39.3465 91.5173C39.3569 91.5211 39.3679 91.5257 39.38 91.5303C41.5675 92.2095 43.7914 92.7652 46.0413 93.1953C46.2723 93.2451 46.4667 93.2941 46.6362 93.3363C47.2716 93.4957 47.5569 93.567 48.1064 93.2826C54.8033 89.8109 55.4433 88.8029 55.7353 88.8957C55.7983 88.9156 55.845 88.9861 55.9329 89.095C56.2351 89.4806 56.6515 89.7603 57.1224 89.8945C57.5933 90.0286 58.0946 90.0102 58.5546 89.8424C59.0146 89.6745 59.4097 89.3656 59.6835 88.9601C59.9572 88.5538 60.0956 88.0716 60.0787 87.5826C60.0618 87.0928 59.8907 86.6213 59.5896 86.235C59.2885 85.8486 58.8731 85.5681 58.4026 85.4324C57.9322 85.296 57.4308 85.3128 56.9703 85.4792C56.5098 85.6455 56.1136 85.9529 55.8386 86.3584C55.3547 87.0038 55.4317 87.6102 55.484 88.0226C55.5162 88.2763 55.539 88.4564 55.4147 88.5247C48.675 92.2493 48.1666 92.8771 47.6271 92.9055C47.5246 92.9109 47.421 92.894 47.2732 92.8733C46.3164 92.7384 42.1257 91.6338 41.335 91.4253C41.268 91.4077 41.2255 91.3969 41.2113 91.3931C39.0653 90.8343 38.9679 90.8849 38.4487 91.1539C38.4156 91.1716 38.3808 91.1892 38.3436 91.2084C34.1604 93.3286 33.3138 94.2462 32.3788 94.3474C31.2011 94.4746 29.8832 93.3072 21.5807 91.6154C21.4778 91.5939 21.4032 91.5962 21.3609 91.561C21.2512 91.4674 21.361 91.1156 21.7662 89.4185C23.2602 82.6851 25.3538 76.0984 28.022 69.7381C29.1289 67.2238 30.1239 66.3438 36.4541 66.3852C41.678 66.4223 48.1554 67.2461 54.8905 68.4691C54.8821 68.2112 54.8793 67.9531 54.8819 67.6947C50.3403 66.8524 46.166 66.2481 42.8808 66.0502C42.4441 66.0238 41.8261 65.9934 41.3342 65.9692C40.9241 65.949 40.6017 65.9331 40.5452 65.9275C39.2546 65.7927 37.9567 65.7415 36.6595 65.7742C36.5196 65.7742 36.3783 65.7739 36.2359 65.7737C33.1627 65.7679 29.5591 65.761 28.124 68.4204C23.3645 77.2357 19.7992 93.1677 18.4425 103.866C18.3147 104.874 18.1903 105.836 18.0711 106.759C15.5749 126.08 15.3933 127.486 36.4602 136.59C45.6019 140.521 55.0328 143.743 64.6693 146.227C69.717 147.585 79.0244 149.293 79.2705 149.298C79.3663 149.301 79.5403 149.324 79.7757 149.353C81.1999 149.537 84.8533 150.01 86.706 148.112C86.8969 147.917 87.4611 147.977 88.2131 148.056C89.8466 148.229 92.3662 148.496 93.8779 146.447C95.7069 143.968 98.1943 135.663 99.0797 132.68C99.4154 131.548 99.6255 130.726 99.7788 130.128C100.141 128.712 100.184 128.542 100.819 128.452C102.445 128.222 103.452 126.602 103.981 125.04C105.437 120.738 107.064 115.018 107.017 110.476C107.004 109.121 106.304 108.548 105.816 108.149C105.519 107.906 105.299 107.727 105.362 107.474C105.937 105.155 107.044 96.6179 107.394 93.498C108.56 83.2017 104.485 81.7468 98.6933 79.6779C98.3047 79.5392 97.9084 79.3974 97.5052 79.2502C97.5052 79.2502 92.5579 77.4978 89.126 76.3371C89.0095 76.5633 88.8892 76.7865 88.7642 77.0057C92.5855 78.2636 98.0793 80.0934 99.1648 80.4866C101.842 81.4532 104.512 82.6376 105.706 84.5263C106.515 85.8065 106.619 86.6665 106.778 87.9904C106.794 88.1261 106.811 88.2663 106.83 88.412C107.305 92.221 104.824 105.954 103.979 109.885H103.975C103.897 110.249 103.88 110.45 103.772 110.543C103.604 110.689 103.216 110.58 102.043 110.427C102.042 110.427 102.063 110.327 102.103 110.14C102.529 108.158 105.056 96.4102 104.245 89.64C104.183 88.7201 103.938 87.8225 103.523 87C103.107 86.1775 102.531 85.447 101.827 84.8514C99.5182 82.9304 96.5179 81.9147 93.6793 80.955C93.3359 80.8385 92.994 80.7235 92.6568 80.607C91.7384 80.2911 89.8673 79.7147 87.4496 79.001C86.322 80.4882 84.9836 81.7714 83.4881 82.82C89.379 84.4704 93.8326 85.7114 94.6276 85.9146C95.5267 86.1445 95.7406 86.7033 94.1132 86.435C92.5824 86.1821 89.2617 85.3458 82.4877 83.4723C80.4341 84.7149 78.1283 85.5382 75.6929 85.8732ZM55.1251 70.8502C49.8783 69.8425 44.6028 68.9792 39.2643 68.7047C29.7215 68.2134 30.3132 69.6246 35.4821 72.1849C42.5163 75.6649 52.0176 79.0769 61.5906 81.9737C60.8664 81.3858 60.1869 80.7411 59.5589 80.0459C58.5296 78.9052 57.6516 77.642 56.9436 76.2865C52.5634 75.0125 47.7186 73.5069 46.7971 72.8456C46.7636 72.8226 46.7394 72.7883 46.7288 72.7491C46.7183 72.7098 46.7219 72.668 46.7392 72.6312C46.7565 72.5944 46.7863 72.5649 46.8233 72.5481C46.8603 72.5311 46.9021 72.528 46.9412 72.539C46.9412 72.539 50.8473 73.6406 56.4265 75.2121C56.2423 74.7948 56.0735 74.3699 55.9209 73.9386C55.5647 72.9321 55.2989 71.8986 55.1251 70.8502ZM95.1841 141.883C95.9284 139.67 99.0574 130.054 99.1916 128.722H99.1962C99.2123 128.565 99.1218 128.552 98.3292 128.438C98.1989 128.419 98.0494 128.398 97.8785 128.372C97.6616 128.339 97.5665 128.292 97.509 128.321C97.4492 128.351 97.4308 128.462 97.3603 128.756C96.7517 131.274 93.2869 143.449 91.4962 144.718C91.1183 144.988 90.6867 145.175 90.2314 145.266C89.7753 145.357 89.3054 145.351 88.8524 145.248C88.6224 145.194 88.5435 145.377 88.3825 145.751C88.2353 146.092 88.0199 146.592 87.5569 147.215C87.4067 147.416 87.6612 147.428 88.8754 147.484C89.2073 147.498 89.6105 147.517 90.0973 147.544C90.2184 147.532 90.3364 147.523 90.4514 147.513C92.3279 147.357 93.3719 147.271 95.1841 141.883ZM106.291 112.827C106.314 112.538 106.335 112.259 106.401 111.85H106.406C106.546 111.252 106.517 110.627 106.321 110.045C106.124 109.463 105.77 108.947 105.296 108.556C105.207 108.466 105.175 108.529 105.148 108.611C105.125 108.667 105.104 108.725 105.087 108.784C104.843 110.013 104.747 110.345 104.843 110.416C104.885 110.448 104.965 110.429 105.087 110.414C105.718 110.337 105.734 110.941 105.01 111.103C104.062 111.316 101.819 111.114 97.9866 110.694C92.0681 110.045 87.9808 109.097 85.094 108.428C79.909 107.226 78.5975 106.923 77.509 110.858C77.4768 110.974 77.4377 111.114 77.3932 111.275C76.8589 113.196 75.507 118.053 75.529 119.489C75.4278 121.289 76.7509 122.385 78.4419 123.026C85.9111 125.857 98.2947 127.922 100.308 127.71C102.73 127.452 103.401 124.937 104.007 122.665C104.062 122.461 104.115 122.261 104.17 122.063C106.125 114.958 106.213 113.825 106.291 112.827ZM47.3533 129.742C47.1061 129.688 46.8501 129.686 46.6024 129.739L46.6063 129.74C46.3695 129.768 46.1407 129.843 45.9332 129.961C45.7258 130.079 45.5438 130.236 45.398 130.425C45.2521 130.614 45.1451 130.83 45.0835 131.061C45.0218 131.29 45.0066 131.531 45.0387 131.767C45.737 134.197 48.8224 133.629 48.7396 131.343C48.721 131.091 48.6487 130.845 48.5272 130.623C48.4058 130.401 48.2383 130.207 48.0358 130.056C47.8333 129.903 47.6006 129.796 47.3533 129.742ZM38.2363 116.75C40.8709 116.695 40.4961 112.961 38.2731 113.169C37.8012 113.177 37.3508 113.368 37.0174 113.702C36.6841 114.036 36.4942 114.487 36.4878 114.959C36.4879 115.427 36.6708 115.876 36.9975 116.21C37.3242 116.545 37.7688 116.738 38.2363 116.75ZM56.3882 122.771C53.6033 122.745 53.3251 127.094 56.481 127.186C57.0466 127.163 57.582 126.924 57.9778 126.519C58.3737 126.115 58.6002 125.574 58.6112 125.009C58.6187 124.714 58.5664 124.421 58.4576 124.147C58.3487 123.873 58.1855 123.624 57.9777 123.415C57.77 123.206 57.5221 123.041 57.2489 122.93C56.9757 122.819 56.6829 122.766 56.3882 122.771ZM60.5203 114.685C60.1001 115.109 59.864 115.683 59.863 116.28C59.8803 116.87 60.1225 117.43 60.5398 117.848C60.9572 118.265 61.5183 118.508 62.1082 118.524C62.4119 118.53 62.7138 118.475 62.9956 118.362C63.2774 118.248 63.5335 118.08 63.7482 117.864C63.9631 117.65 64.1322 117.394 64.2456 117.112C64.359 116.83 64.4141 116.528 64.4079 116.225C64.3924 115.628 64.1424 115.06 63.7121 114.646C63.2817 114.232 62.7055 114.004 62.1082 114.011C61.5109 114.019 60.9404 114.26 60.5203 114.685ZM64.0989 109.739C66.6332 109.865 67.159 105.829 64.1488 105.538C63.873 105.535 63.5992 105.586 63.3431 105.688C63.087 105.791 62.8537 105.943 62.6563 106.136C62.459 106.329 62.3015 106.559 62.1929 106.811C62.0844 107.065 62.0268 107.338 62.0235 107.613C62.0202 107.889 62.0713 108.163 62.1738 108.42C62.2764 108.676 62.4283 108.909 62.6211 109.106C62.8138 109.304 63.0435 109.461 63.2971 109.57C63.5506 109.678 63.8231 109.736 64.0989 109.739ZM67.5953 94.9146C67.2644 94.9514 66.9505 95.081 66.6899 95.2879C66.4378 95.4719 66.2374 95.7172 66.1085 96.0016C65.9795 96.2852 65.9264 96.598 65.9541 96.9084C65.9819 97.2196 66.0897 97.5178 66.267 97.7746C66.4442 98.0307 66.685 98.2376 66.9657 98.3733C67.2464 98.509 67.5576 98.5703 67.8689 98.5504C68.1802 98.5304 68.481 98.43 68.7419 98.2591C69.0029 98.0881 69.2153 97.8528 69.3582 97.5753C69.5011 97.2978 69.5698 96.9889 69.5575 96.6769C69.5585 96.3442 69.4655 96.0177 69.2891 95.7348C69.1127 95.4527 68.8601 95.2258 68.5605 95.081C68.2608 94.9353 67.9262 94.8778 67.5953 94.9146ZM56.5253 86.422C56.1988 86.7432 56.0075 87.1771 55.9904 87.6347H55.9919C56.0049 88.0954 56.1976 88.5323 56.5286 88.852C56.8596 89.1724 57.3029 89.3502 57.7634 89.3479C58.5721 89.4851 59.4828 88.5316 59.4659 87.6347C59.4387 87.187 59.2491 86.7639 58.9326 86.4458C58.6161 86.1277 58.1944 85.936 57.7465 85.9061C57.2886 85.9161 56.8517 86.1001 56.5253 86.422Z" fill="black"/>
<path d="M73.014 49.1264C93.7108 49.8884 98.4718 75.7702 81.7848 84.4912C79.18 85.8618 76.2893 86.5992 73.3465 86.6445C70.4037 86.6889 67.4916 86.0404 64.8463 84.7503C62.201 83.4594 59.8969 81.5645 58.1208 79.2174C56.3446 76.8709 55.1463 74.1384 54.6229 71.2422C52.4781 59.5032 62.0615 48.7232 73.014 49.1264ZM72.1593 86.0121C81.8101 86.5624 90.4031 79.5186 91.2179 68.7923C91.4341 58.0606 83.6145 50.3529 74.1201 49.7665C71.7318 49.6229 69.3386 49.9529 67.0783 50.7376C64.818 51.5222 62.7352 52.7461 60.9496 54.3388C59.164 55.9313 57.711 57.8613 56.674 60.0175C55.6371 62.1738 55.0367 64.5138 54.9075 66.903C54.7782 69.2921 55.1226 71.6832 55.9209 73.9387C56.7191 76.1943 57.9555 78.2699 59.5589 80.046C61.1622 81.8213 63.1009 83.2632 65.2633 84.2873C67.4258 85.3107 69.7694 85.8971 72.1593 86.0121Z" fill="black"/>
<path d="M64.9057 80.8638C61.5197 78.7857 59.081 75.4655 58.1109 71.613C57.1408 67.7604 57.7164 63.6812 59.7146 60.2474C66.8734 47.9428 85.2981 51.3555 87.7181 65.1304C90.0699 78.5266 75.6811 87.4975 64.9057 80.8638ZM58.505 71.1087C59.0778 73.5317 60.2533 75.7708 61.9225 77.6182C63.5917 79.4656 65.7004 80.8615 68.0531 81.6763C81.7459 86.3216 93.0686 70.6511 84.494 59.083C75.4787 46.9217 55.0716 55.2127 58.505 71.1087Z" fill="black"/>
<path d="M68.2995 75.3096C65.7292 75.1724 65.9784 75.3502 66.2919 71.9789C66.5663 69.0177 67.1351 69.3527 65.1298 69.8211C63.9953 70.0863 63.7715 70.1913 63.799 69.5359C63.8122 68.3436 63.9712 67.1573 64.2728 66.0037C64.2891 65.9063 64.3324 65.8155 64.398 65.7416C64.4634 65.6678 64.5484 65.6138 64.643 65.5859C67.096 64.6423 67.3819 65.0416 67.4739 64.62C69.1764 56.8166 69.3903 56.6479 70.2496 56.6058C71.6859 56.5373 73.1249 56.5539 74.5591 56.6556C75.062 56.6908 75.1547 56.9982 75.1348 57.0979C74.3805 60.8241 73.985 62.3602 73.985 62.6661C74.3882 62.6439 73.6147 62.7681 76.9255 61.9662C77.3854 61.8551 77.4229 62.3258 77.3417 62.7972C76.592 67.1274 77.4643 66.1968 73.476 67.5713C73.1318 67.6901 72.885 67.6525 72.819 68.1262C72.7071 68.9365 72.5032 69.4493 72.4496 70.0066C72.3867 70.652 72.1016 70.0464 80.8755 70.2802C81.9862 70.3094 81.7747 70.6888 81.4312 72.1805C80.6586 75.5303 80.8885 75.1402 79.0496 75.2467C75.4704 75.4726 71.8811 75.4936 68.2995 75.3096ZM80.3243 74.5193C80.4685 74.008 81.1484 71.6064 81.2519 71.0851C81.3385 70.6474 81.6106 70.7524 78.641 70.6252C78.3781 70.6137 76.6794 70.7187 73.8301 70.7432C71.2285 70.7662 71.9643 71.1135 72.3775 67.8993C72.4473 67.3536 72.714 67.3007 74.2172 66.7894C76.9055 65.8749 76.057 66.4191 76.4142 65.2425C76.6825 64.3617 76.7154 63.4419 76.8948 62.5465C76.9837 62.1042 76.0209 62.6998 73.8639 63.32C73.0866 63.543 73.2974 63.2242 74.4372 58.4256C74.7439 57.1301 74.8075 57.1339 74.4878 57.1117C74.2786 57.0971 72.1284 57.0741 71.9191 57.0726C69.5045 57.0573 69.8977 56.9959 69.4769 58.4715C67.2179 66.4092 69.0476 64.7274 65.6441 65.7492C64.8247 65.996 64.5794 65.3084 64.3134 68.9319C64.2988 69.1373 64.1432 69.3282 64.2414 69.5451C66.8545 68.9625 67.1834 68.7019 67.1297 69.342C67.0531 70.245 66.8124 71.9046 66.6897 72.7915C66.4184 74.7492 66.3938 74.6618 66.9526 74.6917C72.8359 75.0007 80.2017 74.9631 80.3259 74.5193H80.3243Z" fill="black"/>
<path d="M46.1461 17.6587C70.4879 19.1504 70.721 50.6725 50.1705 54.913C47.3883 55.525 44.5033 55.4947 41.7346 54.8243C38.9659 54.1541 36.3864 52.8613 34.1922 51.0445C31.9981 49.2277 30.247 46.9347 29.0721 44.3395C27.8972 41.7445 27.3292 38.9157 27.4117 36.0682C27.4707 32.0422 29.1126 27.1762 32.0876 24.11C36.5275 19.5214 39.7838 18.0941 46.1461 17.6587ZM46.1852 54.7459C48.6436 54.7729 51.0814 54.2963 53.3487 53.3457C55.6159 52.3949 57.6646 50.9902 59.3685 49.2179C61.0725 47.4457 62.3955 45.3433 63.2564 43.0405C64.1172 40.7376 64.4975 38.2829 64.3739 35.8275C64.2343 32.2595 63.0485 28.8114 60.9642 25.9121C58.8799 23.0129 55.989 20.7905 52.6514 19.5216C49.3138 18.2527 45.6767 17.9933 42.1927 18.7756C38.7088 19.5579 35.5318 21.3473 33.0571 23.9214C30.5823 26.4954 28.9192 29.7403 28.2744 33.2523C27.6297 36.7643 28.0319 40.3884 29.4311 43.6736C30.8302 46.9588 33.1645 49.76 36.1435 51.7287C39.1224 53.6973 42.6145 54.7466 46.1852 54.7459Z" fill="black"/>
<path d="M59.1876 28.865C61.1272 32.3153 61.6642 36.3798 60.6871 40.2155C59.71 44.0511 57.2938 47.3634 53.9398 49.4652C43.8573 55.7264 31.0866 48.1789 30.7823 37.8075C30.2787 20.518 51.417 15.3867 59.1876 28.865ZM48.9901 50.8013C56.7361 48.8589 60.657 42.6759 60.6885 36.3204C60.7345 26.8919 50.9832 19.5621 42.0475 22.3201C38.2048 23.5068 34.6787 25.6891 32.724 29.9695C26.9871 42.5279 38.7559 53.367 48.9901 50.8013Z" fill="black"/>
<path d="M48.9584 45.8753C47.8721 45.764 46.8066 45.5019 45.7926 45.0965C45.5779 44.9915 45.6929 45.0574 45.0674 46.5323C44.7608 47.2521 44.471 48.129 43.8647 47.8829C41.0737 46.75 41.2814 47.2827 42.6045 43.936C42.6658 43.7827 42.4205 43.7489 42.2979 43.6937C42.1377 43.6171 42.1699 43.5895 41.5574 44.9486C40.9058 46.3951 40.9671 46.5905 40.5218 46.4986C40.2627 46.4457 38.7526 45.7588 38.5157 45.64C38.1455 45.4553 38.1324 45.3602 38.2344 44.9961C38.4716 44.1945 38.7813 43.4159 39.1596 42.6704C39.2899 42.409 39.3896 42.5692 36.2805 41.2546C35.1038 40.7571 35.3537 40.5141 36.4836 38.1117C36.7205 37.6081 36.8538 37.7407 38.6844 38.4559C40.2175 39.0546 38.7871 39.2554 40.7494 34.9397C40.951 34.4959 42.1384 31.7409 42.9724 29.8866C43.0552 29.7019 43.2078 29.8284 41.0484 28.8227C40.6245 28.6249 40.5747 28.49 40.695 27.9795C40.9143 27.204 41.2393 26.4624 41.6609 25.7756C41.8563 25.4223 41.9223 25.3088 43.7704 26.0125C45.6615 26.7331 45.5404 26.9638 45.6761 26.5882C46.7293 23.6707 46.5752 23.9168 48.139 24.5139C48.5869 24.6588 49.0205 24.8447 49.4345 25.0689C49.6706 25.2551 49.6154 25.1241 48.5276 28.0293C48.4586 28.2148 49.0443 28.3988 49.0826 28.1979C49.2445 27.5959 49.4658 27.0115 49.7434 26.4533C50.122 25.5265 50.2991 25.4491 50.6502 25.5058C51.4101 25.6691 52.1283 25.9871 52.7598 26.4402C52.9805 26.6871 52.8525 27.1363 52.7207 27.5042C51.9587 29.6329 51.9395 29.3938 52.2232 29.5064C57.4802 31.596 56.0092 36.4544 53.3109 37.5015C53.0526 37.602 52.7674 37.6035 52.9276 37.7813C54.2369 39.211 54.7597 40.4643 53.997 42.3937C52.7636 45.5174 50.5352 45.7343 48.9584 45.8753ZM52.4225 43.959C54.4155 41.933 54.1296 39.0293 52.3611 37.8304C52.0208 37.6004 52.1465 37.3636 52.3259 37.316C52.7904 37.2645 53.2362 37.1035 53.6263 36.8462C54.0165 36.5888 54.3401 36.2426 54.5703 35.8358C55.4089 34.3694 55.5201 32.4477 54.3005 31.2281C53.5391 30.5979 52.6738 30.105 51.7433 29.7717C51.3938 29.6092 51.4681 29.4336 51.6084 29.091C52.7958 26.1911 53.0096 26.868 50.6686 25.9634C50.4187 25.8676 50.4992 25.8676 49.6614 27.8032C49.2727 28.7023 49.2528 28.9262 48.983 28.7805C47.8186 28.1542 47.6998 28.9338 48.9546 25.561C49.0688 25.2544 49.2275 25.3747 47.2751 24.6871C46.9685 24.5798 47.0903 24.4066 46.2663 26.3528C45.9336 27.1393 45.9497 27.4873 45.3909 27.2466C41.6662 25.6423 42.0518 25.7296 41.9238 26.0493C40.9142 28.5689 40.7425 28.2363 41.5313 28.5712C43.8034 29.5371 43.7191 29.3378 43.371 30.1043C39.677 38.1585 40.0956 39.4248 39.4616 39.188C36.1977 37.9737 36.9535 38.0527 36.6154 38.8277C36.3671 39.398 36.1601 39.9867 35.9309 40.5647C35.8688 40.7226 35.5982 40.5455 39.3206 42.1062C39.8372 42.3224 39.664 42.4312 39.1803 43.6393C38.5127 45.3043 38.4866 45.2307 38.8308 45.3733C41.4593 46.4641 40.1247 46.4886 41.9391 43.2583C42.0158 43.1173 42.0924 43.0859 42.9586 43.4883C43.1786 43.5903 43.0897 43.857 42.9586 44.1843C41.8609 46.924 41.9039 46.6296 42.2182 46.7615C44.1161 47.5579 44.0441 47.5679 44.1782 47.2705C45.4315 44.491 45.0981 45.0682 45.279 44.7133C45.673 43.9076 49.3363 47.0911 52.4225 43.9605V43.959Z" fill="black"/>
<path d="M50.0558 40.0986C50.1117 41.1595 48.7879 42.3423 47.369 42.0656C45.9373 41.7831 44.5458 41.3255 43.2258 40.7034C42.8908 40.5463 42.831 40.4198 42.9353 40.0541C43.1481 39.1521 43.4538 38.2746 43.8475 37.4356C44.2369 36.6951 44.4438 35.855 44.913 35.983C45.7746 36.2215 46.6151 36.5309 47.4257 36.9082C48.9918 37.6295 49.9638 38.3532 50.0558 40.0986ZM47.6695 41.6846C47.9769 41.6576 48.2784 41.5834 48.5633 41.4646C48.7856 41.402 48.9891 41.2855 49.1558 41.1256C49.3225 40.9658 49.4473 40.7673 49.5192 40.5478C50.298 38.2091 47.4441 37.375 45.1498 36.4958C44.87 36.3885 44.8179 36.5786 44.683 36.8661C44.1904 37.9262 43.7582 39.0134 43.3883 40.1224C43.3553 40.2205 43.373 40.2442 43.4565 40.2757C46.1923 41.378 45.5208 41.2676 47.6695 41.6846Z" fill="black"/>
<path d="M49.4675 35.1062C48.7776 35.1936 47.4323 34.624 46.2089 34.1641C45.5228 33.9066 45.5957 33.6643 45.6631 33.4244C45.9531 32.3872 46.3629 31.3872 46.8842 30.4448C47.0375 30.1581 47.138 30.1267 47.4745 30.2149C48.0986 30.4097 48.6988 30.6743 49.2636 31.0036C50.4502 31.5801 51.1869 32.0768 51.3716 32.8165C51.4668 33.0995 51.4881 33.402 51.4332 33.6954C51.3784 33.9888 51.2495 34.2633 51.0586 34.4928C50.8678 34.7223 50.6214 34.8992 50.3429 35.0066C50.0644 35.1139 49.763 35.1482 49.4675 35.1062ZM51.052 33.4742C51.0737 33.2292 51.0345 32.9827 50.9376 32.7566C50.8408 32.5305 50.6894 32.332 50.497 32.1788C50.0065 31.793 49.4621 31.4813 48.8811 31.2535C47.2154 30.5981 47.3288 30.4602 47.1824 30.8396C46.1093 33.6329 45.9375 33.5493 46.2572 33.6835C47.4591 34.1848 49.9819 35.3431 50.6817 34.3312C50.8862 34.0878 51.0149 33.79 51.052 33.4742Z" fill="black"/>
<path d="M105.627 21.7705C105.631 24.5119 105.005 27.2175 103.796 29.6782C102.587 32.1389 100.829 34.2888 98.6575 35.9617C96.4851 37.6347 93.9578 38.7858 91.2702 39.3263C88.5827 39.8668 85.807 39.7821 83.1571 39.0788C80.5071 38.3754 78.0549 37.0723 75.9891 35.2701C73.9234 33.4678 72.2997 31.2148 71.2433 28.685C70.1871 26.1552 69.7267 23.4164 69.8976 20.6803C70.0685 17.9442 70.8663 15.284 72.2291 12.9054C81.1349 -2.86947 105.61 3.31505 105.627 21.7705ZM87.774 4.53233C76.2665 4.40125 67.4712 16.0175 71.3445 27.3349C75.4287 39.2693 90.6202 42.9373 99.4217 34.5512C111.4 23.1396 102.834 4.70481 87.774 4.53233Z" fill="black"/>
<path d="M87.5985 7.37309C90.46 7.37563 93.2564 8.22481 95.6365 9.81371C98.0159 11.4026 99.8725 13.6602 100.972 16.3021C102.071 18.9439 102.364 21.8521 101.813 24.6601C101.263 27.4681 99.8939 30.0505 97.8794 32.082C95.8642 34.1135 93.2924 35.5033 90.4891 36.0764C87.6859 36.6495 84.7753 36.3802 82.1245 35.3024C79.4738 34.2246 77.2018 32.3866 75.5934 30.0198C73.9853 27.653 73.1134 24.8632 73.0878 22.0019C73.0466 20.0796 73.393 18.1686 74.1061 16.3829C74.8193 14.5972 75.8847 12.9734 77.2385 11.6083C78.593 10.2431 80.2082 9.1646 81.9881 8.43699C83.768 7.70937 85.676 7.34754 87.5985 7.37309ZM78.1193 11.5891C75.6151 13.8527 74.0211 16.9508 73.6353 20.3043C73.2494 23.6577 74.0982 27.0369 76.0229 29.81C83.5756 40.6828 101.156 36.0773 101.485 21.7076C101.744 10.4539 87.3693 3.23525 78.1193 11.5876V11.5891Z" fill="black"/>
<path d="M89.0248 33.2372C87.3024 32.4178 84.0829 29.9802 82.06 28.3206C80.671 27.1807 80.8687 27.252 81.0113 26.9845C81.6131 25.8506 82.3765 24.8109 83.2795 23.8984C83.5095 23.6684 83.7464 23.7535 84.299 24.1283C85.2764 24.7553 86.2154 25.4397 87.1115 26.1781C89.6028 28.0945 87.6619 27.6169 92.137 22.9532C92.692 22.3752 95.0967 24.7623 95.5382 25.2253C95.5888 25.2617 95.6302 25.3086 95.6608 25.3628C95.6907 25.417 95.7091 25.4771 95.7137 25.5391C95.7183 25.6009 95.7091 25.6631 95.6869 25.7212C95.6654 25.7793 95.6309 25.8319 95.5865 25.8753C94.5271 27.3455 90.4981 32.4339 89.0248 33.2372ZM95.0944 25.6967C95.3328 25.397 95.4615 25.6668 92.5034 23.3066C92.3187 23.1586 92.5034 23 88.988 27.5625C88.617 28.0439 88.8102 27.9718 86.765 26.4257C83.3493 23.8401 83.5455 24.1368 83.416 24.3039C83.2864 24.471 82.7368 25.2 81.4697 26.9646C81.2742 27.2367 81.1631 27.0412 83.2144 28.5743C84.2362 29.3409 88.0436 32.2691 89.2188 32.8149C89.0317 32.8187 89.9056 32.22 95.0944 25.6967Z" fill="black"/>
<path d="M94.4021 15.7959C94.4872 16.5931 92.7571 18.4658 92.1354 19.1764C91.8802 19.4685 91.8947 19.529 91.5023 19.2531C86.7182 15.9186 87.1567 15.6656 86.8876 15.8036C85.9402 17.3341 84.8754 18.7881 83.7011 20.1522C83.1108 20.8904 83.3331 20.8506 79.9005 18.3892C79.5571 18.1431 79.4406 18.2788 81.2665 15.871C81.7939 15.175 83.8053 12.6454 84.266 12.115C86.151 9.93488 86.0943 10.1258 86.4607 10.3205C88.8515 11.5968 93.7766 14.8945 94.4021 15.7959ZM94.0449 15.9791C93.9637 15.8641 94.1216 15.9791 93.1312 15.2241C90.9871 13.552 88.7074 12.0611 86.3158 10.7666C85.99 10.578 86.1985 10.4117 84.44 12.6278C79.6989 18.6023 80.224 18.1017 80.4908 18.3002C83.1737 20.2703 83.0832 20.3239 83.2665 20.0633C83.6099 19.5804 82.4056 21.3021 85.5408 17.0155C86.7734 15.3291 86.6906 15.1674 86.9804 15.369C87.8282 15.9531 91.6655 18.9495 91.7782 18.9441C91.8909 18.9388 93.9077 16.2122 94.0449 15.9791Z" fill="black"/>
<path d="M81.9109 22.4236C81.2785 23.6462 80.446 24.7551 79.4495 25.7044C79.3667 25.782 79.2601 25.8281 79.1467 25.8345C79.034 25.8409 78.9221 25.8074 78.8316 25.7397C77.9141 25.1605 77.0747 24.4671 76.3319 23.6761C75.9747 23.3473 75.9249 23.2162 78.0582 20.2144C78.0819 20.1609 78.118 20.1134 78.1624 20.0753C78.2077 20.0372 78.2598 20.0096 78.3165 19.9942C78.3732 19.9788 78.4323 19.9761 78.4905 19.9863C78.548 19.9966 78.6024 20.0195 78.6507 20.0534C79.9155 20.5644 81.0347 21.3783 81.9109 22.4236ZM78.5189 20.4697C78.2123 20.7563 76.522 23.1779 76.6408 23.358C76.6953 23.4408 78.456 24.8911 78.5281 24.9532C79.0854 25.4131 79.1413 25.4469 79.2532 25.3028C81.4939 22.3423 81.5406 22.5685 81.2079 22.3132C80.1693 21.5244 78.7634 20.6046 78.5189 20.4697Z" fill="black"/>
<path d="M99.4447 20.1086C98.9472 21.2309 98.2581 22.2585 97.4095 23.1457C97.2393 23.322 97.1205 23.476 96.9135 23.3657C95.8128 22.7951 94.8232 22.0319 93.9915 21.112C93.9301 21.0659 93.8887 20.9974 93.8772 20.9213C93.865 20.8452 93.8834 20.7676 93.9286 20.705C94.4445 19.5898 95.1696 18.5845 96.0657 17.7438C96.3777 17.451 96.4574 17.4188 96.8223 17.6572C97.861 18.278 98.7556 19.1138 99.4447 20.1086ZM98.9947 20.1201C98.1906 19.3353 97.3367 18.6035 96.4375 17.9293C95.6786 18.8322 94.9742 19.7793 94.328 20.7655C94.1854 20.9633 94.3027 20.9027 94.8837 21.3389C97.1129 23.0131 97.0416 23.0828 97.1834 22.8636C97.9538 21.6938 98.8744 20.3179 98.9947 20.1201Z" fill="black"/>
<path d="M87.2895 18.9541C88.424 19.478 89.4527 20.2055 90.3243 21.1004C90.509 21.3097 90.509 21.3496 90.3503 21.5795C88.2331 24.6396 88.0967 24.4656 87.7302 24.205C84.6395 22.0073 84.6909 22.1682 85.1631 21.4301C85.5716 20.79 86.5827 19.2577 87.2895 18.9541ZM88.0928 23.9259C88.2093 23.7803 88.4401 23.4262 88.6754 23.1142C90.1257 21.1917 90.1318 21.3971 89.8061 21.1656C87.1346 19.2661 87.3186 19.2853 87.1362 19.5168C86.5797 20.2212 85.9097 21.0621 85.4705 21.6447C85.285 21.89 85.2022 21.8057 86.3221 22.6312C86.3643 22.6657 87.9035 23.8025 88.0928 23.9259Z" fill="black"/>
<path d="M116.516 35.6373C137.22 35.3023 143.361 60.8821 127.154 70.4816C124.626 71.989 121.778 72.8796 118.842 73.0811C115.906 73.2826 112.964 72.7893 110.253 71.6413C107.543 70.4932 105.142 68.7228 103.244 66.4734C101.346 64.2239 100.004 61.5589 99.3282 58.6943C96.5648 47.0911 105.554 35.8144 116.516 35.6373ZM117.619 72.5129C127.286 72.5497 135.493 65.0621 135.736 54.3074C135.383 43.5879 127.163 36.2973 117.653 36.2168C115.259 36.1992 112.886 36.655 110.67 37.5581C108.454 38.4612 106.438 39.7937 104.739 41.4789C103.04 43.164 101.691 45.1687 100.769 47.3774C99.848 49.5861 99.3727 51.9551 99.3704 54.3482C99.3681 56.7414 99.8388 59.1114 100.756 61.3218C101.674 63.5321 103.019 65.5393 104.716 67.2277C106.411 68.916 108.425 70.2522 110.639 71.1594C112.853 72.0666 115.226 72.5269 117.619 72.5137V72.5129Z" fill="black"/>
<path d="M110.103 67.7579C106.61 65.8629 103.998 62.6767 102.824 58.8805C101.651 55.0844 102.009 50.9797 103.822 47.4443C110.321 34.7786 128.895 37.2101 132.044 50.834C135.108 64.0884 121.216 73.8098 110.103 67.7579ZM103.204 58.3562C103.905 60.7444 105.198 62.917 106.963 64.6724C108.727 66.4278 110.907 67.7092 113.299 68.398C127.222 72.3074 137.697 56.0565 128.517 44.9653C118.862 33.3015 98.9218 42.6649 103.201 58.3562H103.204Z" fill="black"/>
<path d="M125.094 55.7615C125.126 56.1616 124.429 56.3433 116.768 58.6261C115.956 58.8683 110.049 52.519 109.886 52.2514C109.66 51.8797 109.733 51.8383 110.699 50.7229C112.551 48.5766 116.033 44.6902 118.235 42.9662C120.239 41.3986 120.209 41.0498 120.541 41.7451C122.382 45.6123 124.714 54.0061 125.094 55.7615ZM117.717 50.6677C118.177 50.6386 117.978 50.9974 118.628 48.1473C120.139 41.519 120.011 42.2265 119.96 42.0264C119.366 42.1889 110.869 50.956 110.574 51.6482C110.732 51.6888 114.757 50.8578 117.717 50.6677ZM124.516 55.0478C124.46 54.653 120.507 42.4427 120.35 42.3169C120.239 42.4703 120.306 42.4634 120.258 42.6757C118.301 51.3707 118.175 50.6049 119.035 51.0985C122.797 53.2595 124.419 55.3974 124.516 55.0478ZM117.972 51.0932C117.447 50.9215 110.571 52.1112 110.384 52.1625C110.476 52.3772 112.001 53.7539 113.399 55.1459C116.389 58.1209 116.383 58.2505 116.514 58.0504C116.576 57.973 117.736 51.8482 117.972 51.0932ZM116.938 58.173C119.168 57.49 119.002 57.3521 124.546 55.7523C124.811 55.6756 124.807 55.727 122.421 53.9854C119.63 51.9487 119.483 51.8597 118.607 51.2948C118.276 51.0817 118.417 50.8778 117.519 55.0662C116.801 58.4091 116.848 58.0412 116.936 58.173H116.938Z" fill="black"/>
<path d="M109.472 53.3989C109.762 53.6335 114.788 58.9771 115.874 59.9713C116.075 60.1553 123.912 57.3076 124.341 57.2846C124.725 57.2639 124.407 57.6786 124.145 57.9614C119.412 63.0697 118.808 63.4246 115.7 65.9389C114.719 66.7323 114.566 67.0489 114.3 66.4847C112.323 62.406 110.654 58.186 109.303 53.8596C109.199 53.5806 109.337 53.5101 109.472 53.3989ZM114.991 65.9259C117.828 63.5788 120.545 61.0909 123.133 58.472C123.494 58.1147 123.832 57.8028 123.318 57.9798C115.833 60.5547 116.139 60.2572 116.05 60.6735C114.839 66.3138 114.89 65.748 114.991 65.9259ZM110.014 54.5441C109.981 54.6438 114.203 65.4912 114.536 65.9037C114.601 65.6998 114.799 64.4342 115.04 63.2706C115.623 60.4412 115.789 60.4803 115.547 60.2381C110.5 55.1888 110.475 54.8776 110.014 54.5441Z" fill="black"/>
</svg>
