<svg width="155" height="154" viewBox="0 0 155 154" fill="none" xmlns="http://www.w3.org/2000/svg">
<path d="M86.3713 58.8685C86.3038 58.926 86.2399 58.9874 86.1796 59.0524C85.9267 59.2594 85.5511 59.428 85.4131 59.2901C85.3455 59.1777 85.2939 59.0564 85.2598 58.9298C85.0799 58.3521 84.8701 57.7841 84.6313 57.2281C84.617 57.2067 84.5949 57.1919 84.5697 57.1869C84.5446 57.1819 84.5185 57.187 84.4971 57.2013C84.4758 57.2155 84.4609 57.2376 84.4559 57.2628C84.4509 57.2879 84.456 57.3141 84.4703 57.3354C84.6099 58.1114 84.8685 58.8612 85.2368 59.5583C85.3574 59.6281 85.4929 59.668 85.632 59.6747C85.7712 59.6815 85.9099 59.6549 86.0367 59.5971C86.1634 59.5394 86.2745 59.4521 86.3607 59.3427C86.447 59.2333 86.5058 59.1049 86.5322 58.9681C86.5322 58.8685 86.4709 58.8148 86.3713 58.8685ZM88.6785 59.428C88.7245 60.9611 87.912 61.6126 86.5246 61.444C86.5015 61.444 86.4792 61.452 86.4614 61.4666C86.4436 61.4812 86.4314 61.5015 86.4269 61.5241C86.4223 61.5467 86.4258 61.5702 86.4366 61.5905C86.4475 61.6108 86.465 61.6268 86.4863 61.6356C86.8039 61.7507 87.1473 61.7756 87.4783 61.7077C87.8092 61.6398 88.115 61.4817 88.3617 61.2508C88.6084 61.02 88.7865 60.7254 88.8762 60.3996C88.966 60.0739 88.9639 59.7297 88.8702 59.405C88.8621 59.3844 88.8475 59.3671 88.8285 59.3557C88.8096 59.3444 88.7874 59.3396 88.7654 59.3423C88.7435 59.3449 88.723 59.3547 88.7073 59.3703C88.6916 59.3858 88.6815 59.4061 88.6785 59.428ZM87.2298 54.3766C87.0612 54.4226 87.0075 54.7369 87.1225 55.0818C87.2375 55.4267 87.4521 55.6644 87.6284 55.6184C87.8047 55.5724 87.843 55.2581 87.7357 54.9132C87.6284 54.5682 87.3984 54.3306 87.2298 54.3766ZM88.0193 53.1042C88.073 53.1501 88.1573 53.1042 88.1113 53.0275C87.3448 51.9927 86.149 52.33 86.0647 53.3494C86.0647 53.4108 86.1567 53.4338 86.1796 53.3494C86.4939 52.4909 87.2681 52.3683 88.0193 53.1042ZM81.8794 56.4002C81.7108 56.4692 81.7031 56.7912 81.8794 57.1131C82.0557 57.4351 82.2857 57.6497 82.4543 57.5807C82.6229 57.5117 82.6229 57.1974 82.4543 56.8755C82.2857 56.5535 82.0404 56.3389 81.8794 56.4002ZM80.6836 55.8023C80.6836 55.8023 80.7296 55.8023 80.7526 55.7564C80.7671 55.619 80.81 55.4862 80.8785 55.3663C80.947 55.2464 81.0397 55.1421 81.1507 55.0599C81.2617 54.9777 81.3886 54.9195 81.5232 54.889C81.6579 54.8585 81.7975 54.8563 81.9331 54.8825C82.347 54.8059 81.1129 54.3153 80.7143 55.2658C80.6376 55.3424 80.5686 55.7334 80.6836 55.8023Z" fill="black"/>
<path d="M67.8599 88.4872C67.8599 89.0747 68.0916 89.6382 68.5042 90.0536C68.9168 90.4691 69.4763 90.7025 70.0598 90.7025C70.6433 90.7025 71.2028 90.4691 71.6154 90.0536C72.028 89.6382 72.2597 89.0747 72.2597 88.4872C72.2597 87.8997 72.028 87.3362 71.6154 86.9207C71.2028 86.5053 70.6433 86.2719 70.0598 86.2719C69.4763 86.2719 68.9168 86.5053 68.5042 86.9207C68.0916 87.3362 67.8599 87.8997 67.8599 88.4872Z" fill="black"/>
<path d="M115.96 96.8807C117.991 96.1142 128.991 95.1407 140.872 96.2522C140.889 96.2468 140.904 96.2361 140.915 96.2216C140.925 96.2072 140.931 96.1897 140.931 96.1717C140.931 96.1537 140.925 96.1362 140.915 96.1217C140.904 96.1072 140.889 96.0966 140.872 96.0912C129.374 94.8417 118.275 95.7386 115.883 96.7351C115.873 96.7401 115.865 96.747 115.858 96.7553C115.851 96.7636 115.846 96.7732 115.843 96.7835C115.84 96.7938 115.838 96.8047 115.839 96.8154C115.84 96.8262 115.843 96.8367 115.849 96.8462C115.854 96.8558 115.86 96.8643 115.869 96.8712C115.877 96.8781 115.887 96.8833 115.897 96.8865C115.907 96.8897 115.918 96.8908 115.929 96.8898C115.94 96.8889 115.95 96.8858 115.96 96.8807ZM139.944 99.4946C139.962 99.4892 139.977 99.4785 139.987 99.4641C139.998 99.4496 140.004 99.4321 140.004 99.4141C140.004 99.3961 139.998 99.3786 139.987 99.3642C139.977 99.3497 139.962 99.339 139.944 99.3336C128.96 98.0842 119.501 98.5671 115.791 99.3336C115.771 99.3336 115.751 99.3417 115.737 99.3561C115.722 99.3704 115.714 99.3899 115.714 99.4103C115.714 99.4306 115.722 99.4501 115.737 99.4645C115.751 99.4788 115.771 99.4869 115.791 99.4869C119.309 98.8737 129.006 98.4214 139.944 99.4946ZM139.661 102.637C132.647 101.817 123.472 101.304 116.496 101.871C116.479 101.876 116.464 101.887 116.453 101.901C116.443 101.916 116.437 101.933 116.437 101.951C116.437 101.969 116.443 101.987 116.453 102.001C116.464 102.016 116.479 102.026 116.496 102.032C124.219 101.745 131.951 102.001 139.638 102.798C139.656 102.796 139.673 102.788 139.686 102.775C139.699 102.762 139.708 102.745 139.711 102.727C139.713 102.708 139.71 102.69 139.701 102.674C139.692 102.657 139.678 102.645 139.661 102.637ZM146.56 100.069C146.56 99.9622 146.422 99.9392 146.399 100.069C145.67 103.711 143.256 106.616 142.466 103.496C142.32 102.638 142.32 101.762 142.466 100.905C143.233 96.0375 147.065 94.8264 145.371 100.368C144.421 103.603 142.965 103.35 143.976 99.6709C144.421 98.1378 144.82 98.0842 144.651 97.9692C144.644 97.9612 144.636 97.9547 144.627 97.9503C144.618 97.9459 144.608 97.9436 144.597 97.9436C144.587 97.9436 144.577 97.9459 144.568 97.9503C144.558 97.9547 144.55 97.9612 144.544 97.9692C144.2 98.4679 143.942 99.0194 143.777 99.6019C143.516 100.514 143.08 102.921 143.976 102.852C145.118 102.791 146.552 98.3831 145.724 96.8424C144.896 95.3017 142.704 97.31 142.16 100.844C141.263 106.677 145.486 106.393 146.56 100.069ZM136.012 128.508C136.012 129.719 136.986 130.685 138.657 130.807C142.252 131.053 142.198 128.929 142.42 125.235C142.474 124.338 142.528 123.219 142.535 122.322C140.565 121.897 138.562 121.64 136.549 121.555C136.533 121.724 135.828 126.814 136.012 128.508Z" fill="black"/>
<path d="M145.026 112.403C144.98 110.395 144.95 108.356 143.593 106.876C144.577 106.519 145.395 105.812 145.892 104.891C146.557 103.797 147.026 102.596 147.28 101.342C147.793 98.9351 147.686 94.9721 145.463 94.4432C144.789 94.3053 143.248 94.129 141.592 93.9757V10.9987L141.347 10.5695H6.68286V106.792H21.2009V108.325C17.1537 108.754 7.23476 110.663 4.98883 114.028C4.79286 114.361 4.70952 114.748 4.7512 115.132C4.72292 115.707 4.8642 116.277 5.15746 116.772C5.5024 117.148 5.92399 117.11 6.38391 117.125C6.49123 117.684 6.77484 119.026 6.97414 119.624C7.01261 119.855 7.13274 120.065 7.31274 120.216C7.49275 120.366 7.72071 120.447 7.9553 120.444L11.0214 120.574C11.1901 123.579 11.4507 126.569 11.788 129.55C12.1994 132.803 12.7906 136.029 13.5586 139.216C13.6227 139.423 13.7464 139.606 13.9141 139.742C14.0819 139.879 14.2862 139.962 14.5015 139.983C19.4456 140.343 19.4763 140.343 20.0205 139.983C20.2811 139.83 26.4287 132.578 26.559 132.049C26.628 131.781 27.1569 122.084 27.2182 121.21V121.164L82.4774 123.28C82.7378 129.493 83.5536 135.67 84.915 141.738C84.957 142.03 85.0945 142.299 85.3059 142.505C85.5348 142.699 85.8258 142.805 86.1261 142.804L90.664 142.957C90.9691 143.015 91.2842 142.992 91.5775 142.889C91.8708 142.787 92.132 142.61 92.335 142.374C97.7007 135.246 98.0227 135.046 98.1146 134.847C98.2756 134.487 99.0115 124.024 99.0191 123.855C99.2031 123.855 101.526 123.955 101.71 123.901C101.829 123.877 101.94 123.823 102.033 123.744C102.126 123.665 102.196 123.563 102.239 123.449C103.204 122.522 104.067 121.494 104.814 120.383C105.389 117.738 105.374 117.884 105.305 117.646C105.273 117.537 105.217 117.436 105.141 117.352C105.066 117.267 104.972 117.2 104.868 117.156C104.56 117.063 104.238 117.024 103.917 117.041C106.753 113.974 107.796 111.598 108.141 107.444H114.365C112.916 110.387 111.299 114.603 112.134 117.294C112.495 117.362 117.416 118.436 121.478 118.873L121.647 117.294C121.663 117.156 121.732 117.031 121.839 116.945C121.947 116.858 122.085 116.819 122.222 116.834L125.288 117.179C125.424 117.194 125.548 117.262 125.634 117.368C125.72 117.474 125.761 117.61 125.748 117.746L125.618 119.24C128.405 119.422 131.201 119.422 133.988 119.24C134.502 115.837 135.705 108.08 138.135 105.558C138.204 105.481 138.472 105.635 138.373 105.78C138.12 106.133 135.981 107.497 134.211 124.323C133.666 129.458 132.678 139.124 136.778 142.114C137.208 142.428 136.955 142.681 136.518 142.397C132.087 139.531 132.838 129.474 133.375 124.169C133.521 122.675 133.666 121.425 133.881 119.93C131.117 120.13 128.343 120.13 125.579 119.93L125.418 121.555C125.412 121.626 125.391 121.695 125.357 121.758C125.323 121.821 125.277 121.876 125.221 121.921C125.165 121.965 125.101 121.998 125.032 122.017C124.963 122.035 124.891 122.04 124.821 122.031L121.67 121.571C121.537 121.55 121.416 121.479 121.333 121.372C121.251 121.265 121.212 121.13 121.226 120.996L121.364 119.532C118.24 119.216 115.145 118.668 112.104 117.891C111.82 119.041 108.593 132.394 111.146 138.749C113.108 143.624 129.144 144.329 135.981 143.877C137.239 143.787 138.452 143.375 139.503 142.679C140.555 141.983 141.409 141.028 141.983 139.906C144.911 144.329 146.966 142.275 148.782 140.443C149.204 139.63 149.514 138.763 149.702 137.867C151.396 130.202 150.078 118.658 145.026 112.403ZM123.931 125.089C123.272 126.109 121.08 125.089 121.08 125.089C122.145 124.951 121.946 122.399 121.946 122.399L124.46 122.797C124.509 123.6 124.314 124.399 123.901 125.089H123.931ZM147.065 101.327C146.809 102.549 146.345 103.718 145.693 104.784C145.149 105.612 144.359 106.547 143.394 106.692C142.886 106.227 142.288 105.87 141.638 105.642C140.58 103.757 140.695 99.5867 142.573 96.5665C145.272 92.1973 148.276 95.662 147.035 101.296L147.065 101.327ZM103.373 67.2237H124.56C131.236 69.462 137.798 71.1484 141.033 71.9762V76.9587H113.499C111.215 70.2592 106.186 68.1436 103.335 67.1931L103.373 67.2237ZM52.3681 117.332L50.3904 118.29C50.4518 118.083 50.3904 118.075 50.1681 115.99C51.4957 114.676 52.9905 113.542 54.614 112.618C53.5562 113.637 52.4907 115.071 52.3834 116.151C52.3417 116.544 52.3366 116.939 52.3681 117.332ZM55.8558 111.966C57.3878 112.572 58.9705 113.042 60.5853 113.369C67.1545 114.695 82.6384 114.335 82.6384 113.852V113.668C85.5665 113.744 89.2995 116.205 91.7371 116.205C93.4695 116.205 93.5844 114.756 92.9789 113.139C95.4281 112.567 97.7736 111.618 99.9313 110.326C101.761 110.261 103.593 110.333 105.412 110.54C105.412 110.663 105.328 110.793 105.282 110.916C104.37 113.384 100.828 117.485 98.5362 117.646C98.3216 117.646 52.759 115.96 52.736 115.96C53.0426 114.641 54.6983 112.748 55.8558 111.974V111.966ZM27.8774 75.9009C29.9087 72.8117 36.179 72.6661 41.1461 72.6661C47.5123 72.6666 53.8737 73.0147 60.202 73.7086C64.7552 74.3601 65.0388 74.4751 66.0813 79.3656L57.3505 79.5572C57.0646 79.5641 56.784 79.6363 56.5302 79.7681C56.2764 79.9 56.0561 80.088 55.886 80.318C55.7159 80.5479 55.6006 80.8137 55.5489 81.095C55.4972 81.3763 55.5104 81.6657 55.5875 81.9411L56.2927 84.532C51.673 83.8829 47.0205 83.4939 42.3572 83.3669C38.1566 83.1982 32.2007 83.0909 28.0844 83.9724C28.058 83.9775 28.0346 83.9929 28.0195 84.0152C28.0045 84.0374 27.9988 84.0648 28.0039 84.0912C28.009 84.1177 28.0244 84.141 28.0466 84.1561C28.0689 84.1712 28.0963 84.1768 28.1227 84.1717C32.0704 83.4052 38.3329 83.5815 42.3419 83.7655C45.8449 83.9188 52.851 84.3174 56.377 84.8309L58.3547 92.0287C53.4796 91.2621 48.5201 93.5004 47.0484 98.1609C42.7558 97.862 32.0397 96.5512 25.3402 97.8696C25.331 97.8714 25.3223 97.8751 25.3146 97.8803C25.3069 97.8856 25.3003 97.8924 25.2953 97.9003C25.2903 97.9082 25.2869 97.917 25.2854 97.9262C25.2839 97.9354 25.2843 97.9449 25.2866 97.9539C25.2866 98.1302 25.5012 97.885 28.0691 97.7317C33.4961 97.3944 41.8666 98.1302 46.9487 98.4982C45.7453 102.967 47.6386 106.853 51.5479 109.644C41.5818 108.687 31.5729 108.244 21.5612 108.317C21.4741 101.971 22.0366 95.6317 23.2399 89.3995C24.5737 82.8686 26.9806 77.2653 27.8774 75.9009ZM52.5367 33.3737C64.28 30.4533 79.8865 28.1613 98.6512 25.9767C98.6512 41.568 98.5899 52.307 98.6512 62.9542C94.2513 54.3843 96.0527 42.4878 86.448 43.0244C85.2862 43.0819 84.1481 43.3752 83.1031 43.8864C82.0582 44.3975 81.1281 45.1159 80.3695 45.9979C79.6109 46.8798 79.0396 47.9068 78.6904 49.0165C78.3412 50.1262 78.2213 51.2953 78.3381 52.4527C78.3841 53.0199 78.4301 53.5488 78.4991 54.0471C77.5486 55.4115 77.9395 57.7724 79.4573 59.2671C79.959 61.4242 79.9982 63.663 79.5723 65.8363C78.8057 66.1046 78.1542 66.3959 77.4873 66.7102C68.9405 66.7102 61.9727 66.7102 52.5444 66.1659C52.5597 56.8909 52.5597 44.2201 52.5367 33.3737ZM52.0385 66.1353C43.6066 65.6064 22.2511 63.9506 16.1265 58.01C15.3405 57.3287 14.7282 56.47 14.3403 55.5049C13.9524 54.5397 13.8001 53.4961 13.8959 52.4604C14.2332 49.8158 16.6324 47.7002 18.84 46.1901C22.1361 46.1901 35.3588 46.1901 38.6855 46.1365C50.789 45.8375 47.6233 42.5108 50.8044 33.8107L52.0231 33.4964C52.0078 44.3658 52.0002 56.7376 52.0385 66.1353ZM105.006 54.691C104.891 52.0771 108.838 50.5517 111.383 49.8771C120.229 47.5316 131.995 46.673 141.033 46.7344V66.5875C133.617 64.8859 126.398 62.4171 119.493 59.2212C117.136 58.2056 114.858 57.0141 112.679 55.6568C112.652 55.644 112.622 55.6411 112.594 55.6485C112.566 55.6559 112.541 55.6732 112.524 55.6973C112.508 55.7214 112.5 55.7506 112.503 55.7797C112.506 55.8089 112.52 55.8359 112.541 55.8561C114.676 57.314 116.942 58.5714 119.309 59.6121C126.249 62.8821 133.536 65.3559 141.033 66.9861V71.5853C134.464 69.8069 105.351 62.2566 105.006 54.691ZM141.033 46.3281C131.942 46.2668 120.152 47.0946 111.276 49.4862C108.493 50.2527 104.507 51.8318 104.592 54.6986C104.722 59.2365 114.005 63.5521 123.425 66.8021H102.101C100.889 66.4035 99.801 64.9778 99.1264 63.8817C99.1648 55.5035 99.1648 51.5635 99.1264 25.9384C124.598 23.9148 137.3 24.482 141.033 24.4053V46.3281ZM102.147 87.7208C94.9795 87.0999 91.2082 89.4071 85.2829 90.1967L86.5554 95.6927C85.1143 96.5282 83.6119 97.4634 82.1785 98.3679L62.4326 98.9734C61.9478 98.985 61.4717 98.8429 61.0724 98.5675C60.6732 98.2922 60.3712 97.8977 60.2097 97.4404C68.3886 97.2181 80.2008 96.7658 81.3813 96.7198C81.4057 96.7198 81.4291 96.7101 81.4463 96.6929C81.4636 96.6756 81.4733 96.6522 81.4733 96.6278C81.4733 96.6035 81.4636 96.5801 81.4463 96.5628C81.4291 96.5456 81.4057 96.5359 81.3813 96.5359C76.7821 96.6585 68.1126 96.8731 60.133 97.1644C56.5533 84.1334 56.722 84.7926 56.745 84.716C56.7468 84.6897 56.7422 84.6634 56.7315 84.6393C56.7208 84.6153 56.7044 84.5942 56.6837 84.578L55.9171 81.8261C55.8478 81.5973 55.8329 81.3555 55.8737 81.1199C55.9145 80.8843 56.0099 80.6615 56.1521 80.4694C56.2944 80.2772 56.4796 80.121 56.693 80.0132C56.9064 79.9054 57.1421 79.849 57.3812 79.8485L77.311 79.4192C77.0134 78.0093 76.561 76.6365 75.9619 75.326C75.6553 74.5594 76.2608 74.6438 76.4831 75.1037C77.2149 76.462 77.7737 77.9067 78.1465 79.4039L81.0747 79.3349C81.5424 79.332 81.9975 79.4872 82.3662 79.7751C82.7348 80.0631 82.9955 80.4671 83.106 80.9216L85.053 89.3151C89.5832 88.6789 93.4848 87.1075 98.176 86.8776C99.6094 81.2282 100.905 75.2263 105.412 71.547C105.903 71.156 106.232 71.593 105.726 71.9762C103.319 73.8236 102.254 76.2841 101.334 78.875C100.307 81.7572 99.801 84.5473 99.1801 86.7626C100.205 86.7298 101.231 86.7888 102.246 86.9389C103.381 87.1382 102.752 87.7514 102.147 87.7054V87.7208ZM81.6112 98.7281C78.7061 100.568 75.8239 102.43 72.8421 104.094C70.7648 102.645 69.0095 101.143 66.5029 99.1804L81.6112 98.7281ZM66.4109 79.3196C66.2423 78.4917 66.0813 77.7865 65.9203 77.204H68.2199C67.9976 77.8708 67.7983 78.5684 67.6297 79.2966L66.4109 79.3196ZM82.7994 45.5386C82.5976 46.799 82.6709 48.0881 83.014 49.3176C83.0753 49.5322 83.3666 49.1719 84.6927 49.0416C86.2962 48.9171 87.8911 49.3736 89.1859 50.3278C90.4806 51.282 91.3889 52.6702 91.7448 54.2387L90.9322 54.323C90.595 51.7398 88.5483 50.1071 86.77 50.5364C84.9916 50.9656 83.8572 53.2269 84.7693 55.8178C84.458 55.8347 84.16 55.9501 83.9185 56.1474C83.2899 54.2694 81.4043 52.7363 79.7102 53.1732V52.1921C80.2918 51.2422 81.1005 50.452 82.0635 49.8925C82.0802 49.8844 82.0938 49.8709 82.1021 49.8543C82.1104 49.8377 82.113 49.8188 82.1095 49.8005C81.9939 48.3451 82.2305 46.8832 82.7994 45.5386ZM86.2564 67.0014C86.1068 66.2281 85.8835 65.4709 85.5895 64.7402C88.3567 65.3994 90.9092 63.3987 92.082 60.7236C92.381 61.7737 93.4005 64.6022 95.861 65.614C95.4471 66.6412 93.2778 74.2682 90.0047 74.8124C87.1379 75.303 84.3861 70.3895 84.2711 64.9931L85.1066 64.5945H85.1909C85.5655 65.3686 85.8559 66.1807 86.0571 67.0168C86.0602 67.0432 86.0736 67.0673 86.0944 67.0839C86.1153 67.1004 86.1418 67.108 86.1683 67.1049C86.1947 67.1019 86.2188 67.0885 86.2353 67.0676C86.2519 67.0468 86.2595 67.0202 86.2564 66.9938V67.0014ZM92.6953 57.7341C92.335 57.5578 92.7949 58.8532 91.5991 61.1068C89.4835 65.1311 84.4474 66.4725 81.4119 60.3403C83.4432 60.6469 84.6084 58.7229 84.0258 56.5076C84.1384 56.3923 84.2732 56.3009 84.4221 56.239C84.5709 56.1771 84.7308 56.1459 84.892 56.1474C85.1724 56.824 85.6146 57.4215 86.1798 57.8874C88.4334 59.7117 91.1699 57.8874 90.9629 54.668L91.8138 54.576C91.8444 54.7395 91.8674 54.9005 91.8827 55.0589C91.8827 55.1662 92.0667 55.1739 92.1127 55.0589C92.5726 54.0164 93.5231 53.8708 94.0597 54.6373C95.0255 55.9941 93.9447 58.3396 92.6953 57.7264V57.7341ZM86.839 50.8353C90.526 49.9461 92.289 57.2972 88.5943 58.1863C88.2046 58.2675 87.8013 58.2564 87.4167 58.1539C87.0321 58.0514 86.6767 57.8604 86.3791 57.5961C84.0488 55.7334 84.3707 51.4485 86.839 50.8506V50.8353ZM82.7687 59.7884C82.2975 60.0374 81.7483 60.0951 81.2356 59.9494C80.35 57.9045 79.831 55.7198 79.7026 53.4952C82.6997 52.5753 85.4899 58.2707 82.7687 59.8037V59.7884ZM79.3193 58.6233C78.8375 58.0763 78.5121 57.4097 78.3772 56.6934C78.2423 55.9771 78.3029 55.2377 78.5528 54.553C78.7674 56.132 79.0587 57.4275 79.3193 58.6386V58.6233ZM76.7438 67.0551C72.7429 69.0964 69.7118 72.6372 68.3119 76.905H65.8437C65.0005 74.0305 63.9657 73.8389 60.248 73.3023C58.2474 73.011 55.4342 72.7734 52.4907 72.5895V66.5109C60.156 66.9784 66.2959 67.0321 76.7438 67.0781V67.0551ZM58.4773 92.4579L59.8188 97.3484C59.9674 97.9033 60.2953 98.3935 60.7514 98.7429C61.2075 99.0922 61.7662 99.281 62.3406 99.28L65.8744 99.1727C71.8993 103.864 74.4058 106.347 82.2781 109.23V113.652C76.4601 113.928 66.4109 114.043 60.6543 112.886C40.1802 108.54 45.6993 90.2963 58.4773 92.4579ZM82.6384 113.346V109.95L84.6007 109.858C85.0606 111.529 85.0453 112.771 84.6007 113.652C83.961 113.473 83.3023 113.37 82.6384 113.346ZM86.6703 113.269C86.8742 112.694 87.0105 112.097 87.0766 111.491C87.0766 111.399 87.3296 111.437 87.3296 111.545C87.3657 112.185 87.2195 112.823 86.908 113.384C86.8543 113.469 86.6397 113.354 86.6703 113.292V113.269ZM88.1191 113.744C88.3107 113.131 88.3797 112.526 88.5253 111.966C88.5253 111.874 88.7476 111.928 88.7553 112.02C88.8252 112.663 88.6767 113.311 88.3337 113.859C88.303 113.928 88.0884 113.836 88.1191 113.744ZM89.5678 114.22C89.7736 113.646 89.9074 113.048 89.9664 112.441C89.9664 112.342 90.1964 112.372 90.1887 112.441C90.2155 113.084 90.07 113.722 89.7671 114.289C89.7135 114.396 89.5218 114.304 89.5678 114.22ZM100.499 109.981C102.798 108.532 104.983 106.562 106.033 103.994L106.202 103.895C106.224 106.025 105.989 108.151 105.504 110.226C103.843 110.027 102.171 109.945 100.499 109.981ZM92.8332 112.763C92.6002 112.26 92.2811 111.801 91.8904 111.407C95.884 109.452 100.368 106.094 102.997 102.538C103.01 102.512 103.013 102.483 103.007 102.456C103 102.428 102.984 102.403 102.962 102.386C102.939 102.369 102.911 102.36 102.883 102.361C102.854 102.362 102.827 102.373 102.806 102.392C99.7065 106.052 95.8591 109.006 91.5225 111.054C90.3281 110.116 88.876 109.565 87.3602 109.475C85.7872 109.434 84.2131 109.485 82.646 109.628V109.153C82.6435 109.12 82.6322 109.089 82.6133 109.062C82.5945 109.035 82.5687 109.013 82.5387 109C79.2228 107.844 76.0714 106.262 73.1641 104.293C81.7415 99.4717 90.7483 92.5039 96.5432 92.0287C102.515 91.6837 106.408 95.8613 106.301 100.989C106.102 109.59 92.9559 112.641 92.8256 112.763H92.8332ZM141.033 11.1903V23.6695C129.535 23.8151 118.949 23.6695 99.1264 25.4785C99.1264 21.2089 99.1265 16.5867 99.0881 11.1903H141.033ZM98.6819 11.129V25.5475C82.2398 27.0422 63.4674 30.2616 52.5674 32.9445C52.5674 21.2549 52.5214 11.7806 52.5137 11.129H98.6819ZM7.17344 11.037H52.0768C52.0768 15.0383 52.0768 23.4702 52.0231 33.0748C48.6964 33.9026 45.201 34.8685 41.4604 36.0259C39.6897 42.9247 39.8736 43.4996 38.8005 44.933C50.0302 44.5498 46.7034 39.322 49.2406 34.2016L50.4824 33.8797C47.2477 42.5951 50.4058 45.4389 38.6778 45.7762C35.3588 45.8605 22.3967 45.9065 19.2463 45.8989C19.7215 45.5846 20.2121 45.2856 20.7104 44.9944C27.1186 45.048 29.7784 44.9944 29.8091 44.9944C30.6599 43.5303 30.6139 42.1659 31.3805 39.4907C25.6392 42.0049 14.2868 46.3051 13.5126 52.4067C13.4095 53.5029 13.5676 54.6079 13.974 55.6312C14.3804 56.6545 15.0235 57.5669 15.8506 58.2937C22.1055 64.3339 43.3997 65.959 52.0385 66.5032V72.5895C48.0449 72.3518 43.8443 72.2215 41.1077 72.2215C36.4549 72.2215 29.7018 72.2828 27.4635 75.6479C27.2056 76.0589 26.9751 76.4866 26.7736 76.928H7.17344V11.037ZM7.17344 106.447V77.204H26.674C22.2664 86.617 21.3083 96.007 21.2009 106.447H7.17344ZM21.4079 108.632C31.6582 108.551 41.9057 109.011 52.1075 110.011C53.1315 110.689 54.2141 111.274 55.3422 111.759C53.2383 112.637 51.392 114.035 49.9765 115.822L5.3031 114.151C7.08912 111.912 14.5091 109.414 21.3773 108.632H21.4079ZM7.99363 120.13C7.66402 120.13 7.46472 120.022 7.30375 119.532C7.14278 119.041 6.8515 117.723 6.74418 117.148L10.8834 117.301C10.8834 118.29 10.9524 119.271 11.0061 120.26L7.99363 120.13ZM10.5078 116.972C5.56373 116.78 5.69404 116.864 5.41808 116.558C5.08877 115.884 5.00998 115.115 5.19579 114.388L49.9765 116.013C50.0608 116.711 50.1222 117.408 50.1911 118.098C50.1982 118.146 50.1944 118.195 50.1799 118.242C50.1654 118.288 50.1407 118.33 50.1075 118.366C50.0744 118.401 50.0336 118.428 49.9884 118.446C49.9431 118.463 49.8945 118.47 49.8462 118.466L10.5078 116.972ZM19.8902 139.753C19.5069 139.99 19.5299 139.937 16.1189 139.845C14.8924 139.845 14.0262 139.944 13.8193 139.163C13.1256 135.998 12.6137 132.796 12.2862 129.573C11.7976 125.498 11.4474 121.408 11.2361 117.309L17.9739 117.562C17.9739 121.218 18.2881 126.982 18.3341 127.527C18.582 130.979 19.0144 134.415 19.6296 137.821C19.6305 137.837 19.6348 137.852 19.6422 137.865C19.6495 137.879 19.6598 137.891 19.6722 137.9C19.6846 137.91 19.6988 137.916 19.714 137.919C19.7291 137.923 19.7448 137.923 19.7599 137.919C19.7751 137.916 19.7893 137.909 19.8017 137.9C19.814 137.891 19.8241 137.879 19.8314 137.865C19.8387 137.851 19.8429 137.836 19.8438 137.821C19.8447 137.805 19.8422 137.79 19.8365 137.775C19.633 136.625 19.4592 135.47 19.3153 134.31C19.7905 133.713 21.2469 132.011 21.3083 131.911L26.1527 132.249C26.0684 132.379 20.1355 139.577 19.8595 139.745L19.8902 139.753ZM18.3571 120.866L21.6839 120.996C21.1703 133.337 21.3619 127.634 21.2316 131.467C21.2316 131.781 21.2316 131.819 19.2693 133.889C18.8707 130.976 18.4644 126.07 18.3418 120.858L18.3571 120.866ZM26.2524 131.919L21.3773 131.689C21.4462 131.474 21.3773 131.927 21.9905 120.958L26.9039 121.149C26.9039 121.149 26.2754 131.727 26.2524 131.919ZM18.3418 120.528C18.3418 120.344 18.2958 118.374 18.2881 117.577L49.8232 118.773C50.7136 118.475 51.5776 118.103 52.4064 117.661C52.5214 118.344 52.8203 118.896 53.4872 118.919L82.3318 120.022C82.3727 121.009 82.4186 121.997 82.4697 122.989L18.3418 120.528ZM92.1357 142.282C91.7448 142.804 91.3155 142.788 90.6563 142.758L86.1338 142.543C85.9154 142.538 85.7071 142.451 85.5512 142.298C85.3874 142.132 85.2847 141.916 85.2599 141.685C83.7269 135.2 82.9603 126.745 82.6767 120.03L89.3455 120.291C89.3455 126.5 89.8208 134.709 91.0855 140.604C91.0812 140.62 91.0805 140.636 91.0837 140.653C91.0868 140.669 91.0937 140.684 91.1037 140.697C91.1137 140.71 91.1266 140.721 91.1414 140.728C91.1562 140.736 91.1725 140.739 91.189 140.739C91.2055 140.739 91.2218 140.736 91.2366 140.728C91.2514 140.721 91.2644 140.71 91.2744 140.697C91.2844 140.684 91.2912 140.669 91.2944 140.653C91.2975 140.636 91.2969 140.62 91.2925 140.604C91.1315 139.561 90.9782 138.519 90.8403 137.476C91.6973 136.591 92.5083 135.662 93.2702 134.694L97.7467 134.924C97.7084 134.985 98.1606 134.226 92.1357 142.282ZM89.8361 123.594L93.6151 123.725L93.1092 134.196C93.1018 134.346 93.0422 134.49 92.9406 134.602L90.8173 137.009C90.2595 132.557 89.932 128.08 89.8361 123.594ZM97.9077 134.563L93.3851 134.456C93.4465 134.272 93.3851 134.993 93.9524 123.725L98.7202 123.886C98.7202 123.886 97.923 134.456 97.9 134.563H97.9077ZM101.993 123.418C101.959 123.485 101.911 123.543 101.853 123.591C101.795 123.638 101.728 123.673 101.656 123.694C101.533 123.732 89.8438 123.272 89.8284 123.272C89.8284 122.284 89.7824 121.295 89.7748 120.306L98.5822 120.636C99.2245 120.661 99.862 120.516 100.43 120.214C100.598 120.214 99.8087 120.145 102.101 120.298C102.214 120.309 102.321 120.359 102.403 120.438C102.485 120.517 102.538 120.622 102.553 120.735C102.412 121.639 102.223 122.535 101.986 123.418H101.993ZM104.76 117.493C104.823 117.521 104.878 117.563 104.923 117.614C104.968 117.666 105.001 117.726 105.021 117.792C105.067 117.945 104.622 120.007 104.546 120.367C103.897 121.312 103.171 122.202 102.377 123.027C102.569 122.271 102.71 121.503 102.798 120.728C102.772 120.561 102.692 120.408 102.57 120.291C102.448 120.175 102.291 120.102 102.124 120.084L100.774 120.03C101.789 119.223 102.749 118.35 103.649 117.416C104.699 117.462 104.645 117.447 104.753 117.493H104.76ZM100.836 119.547C100.209 120.073 99.4078 120.347 98.5899 120.314L53.5025 118.597C52.621 118.597 52.6287 117.064 52.736 116.197L98.0686 117.96C100.958 118.091 104.691 113.507 105.611 111.062C106.378 108.869 106.508 106.056 106.562 103.718C107.066 103.398 107.55 103.048 108.011 102.668C107.988 110.993 107.313 114.166 100.828 119.547H100.836ZM108.195 107.091C108.286 105.727 108.317 104.186 108.309 102.369C113.399 97.9923 114.702 91.0398 114.702 84.9383C114.747 82.3179 114.374 79.7072 113.599 77.204H141.109V93.9297C139.124 93.738 137.085 93.5771 136.265 93.5157C136.265 93.5157 122.391 92.8795 117.102 94.2823C112.61 95.4704 112.594 102.178 116.189 104.408C115.569 105.242 115.037 106.139 114.603 107.083L108.195 107.091ZM116.343 104.255C112.932 102.093 112.955 95.7003 117.155 94.5965C120.988 93.5924 130.953 93.5387 134.977 93.715L144.428 94.5199C141.585 95.5394 139.615 102.185 141.217 105.489C140.521 105.289 139.811 105.146 139.093 105.06C137.284 104.814 117.845 103.097 116.335 104.255H116.343ZM138.61 131.52C136.625 131.39 135.437 130.064 135.383 128.6C135.192 126.569 135.974 121.011 136.05 120.889C136.344 120.872 136.638 120.872 136.932 120.889L137.499 113.438C138.641 113.392 139.868 114.082 141.163 114.105L140.596 121.302L141.362 121.433L141.73 116.067C142.044 116.067 142.535 116.19 142.65 116.481L142.29 121.517C143.34 121.739 143.21 121.249 143.056 124.89C142.819 129.052 142.819 131.796 138.603 131.52H138.61ZM148.092 130.325C148.137 132.675 147.934 135.023 147.487 137.331C146.582 141.278 145.065 141.117 143.003 137.653C143.733 135.481 144.176 133.224 144.321 130.938C144.459 129.405 144.927 121.816 144.996 115.776C147.326 120.283 148.131 125.265 148.092 130.325Z" fill="black"/>
<path d="M122.39 117.654L122.007 120.758C122.003 120.812 122.018 120.865 122.051 120.907C122.083 120.95 122.131 120.979 122.184 120.988L124.698 121.325C124.716 121.328 124.734 121.328 124.752 121.324C124.77 121.32 124.787 121.312 124.802 121.301C124.817 121.291 124.83 121.277 124.839 121.261C124.849 121.246 124.856 121.229 124.859 121.21C124.862 121.192 124.861 121.174 124.857 121.156C124.853 121.138 124.845 121.121 124.835 121.106C124.824 121.091 124.81 121.078 124.795 121.069C124.779 121.059 124.762 121.052 124.744 121.049L122.444 120.605L122.574 117.669C122.576 117.645 122.569 117.62 122.553 117.602C122.537 117.583 122.515 117.571 122.49 117.569C122.466 117.567 122.442 117.575 122.423 117.591C122.404 117.607 122.393 117.629 122.39 117.654ZM73.9381 41.2383C74.3707 40.8063 74.6898 40.2741 74.867 39.689C75.0443 39.1039 75.0743 38.4841 74.9542 37.8847C74.8342 37.2852 74.5679 36.7247 74.179 36.253C73.7901 35.7813 73.2906 35.4131 72.7251 35.181C72.1595 34.9488 71.5453 34.8601 70.9372 34.9226C70.3291 34.9851 69.7458 35.1969 69.2393 35.5392C68.7327 35.8814 68.3186 36.3436 68.0338 36.8845C67.7489 37.4255 67.6022 38.0284 67.6065 38.6397C67.6153 39.3694 67.8387 40.0803 68.2487 40.6839C68.6587 41.2875 69.2374 41.7571 69.9124 42.0342C70.5875 42.3112 71.3292 42.3835 72.045 42.242C72.7609 42.1004 73.4192 41.7514 73.9381 41.2383ZM73.8001 36.1178C74.2055 36.5254 74.5043 37.0264 74.6703 37.5767C74.8363 38.127 74.8643 38.7097 74.7519 39.2734C74.6394 39.8371 74.39 40.3645 74.0256 40.809C73.6612 41.2536 73.193 41.6016 72.6623 41.8224C72.1317 42.0433 71.5548 42.1301 70.9826 42.0753C70.4104 42.0206 69.8605 41.8258 69.3813 41.5083C68.9022 41.1907 68.5086 40.7602 68.2351 40.2546C67.9617 39.749 67.8169 39.1839 67.8135 38.6091C67.8226 37.9195 68.0342 37.2479 68.4218 36.6776C68.8095 36.1073 69.3562 35.6635 69.994 35.4013C70.6319 35.1392 71.3327 35.0702 72.0093 35.2031C72.686 35.3359 73.3087 35.6647 73.8001 36.1485V36.1178Z" fill="black"/>
<path d="M71.3089 41.2383C71.7369 41.2368 72.1579 41.1299 72.5347 40.9272C72.9116 40.7244 73.2327 40.432 73.4698 40.0757C73.7068 39.7194 73.8525 39.3102 73.8939 38.8843C73.9353 38.4584 73.8712 38.0288 73.7073 37.6335C73.5433 37.2382 73.2845 36.8894 72.9538 36.6178C72.623 36.3463 72.2305 36.1603 71.8109 36.0764C71.3912 35.9925 70.9574 36.0133 70.5477 36.1368C70.1379 36.2603 69.7649 36.4828 69.4616 36.7847C69.0915 37.1477 68.8384 37.6132 68.7349 38.1212C68.6314 38.6292 68.6823 39.1566 68.8809 39.6355C69.0796 40.1144 69.4169 40.5229 69.8496 40.8085C70.2823 41.0941 70.7905 41.2438 71.3089 41.2383ZM73.5549 37.7429L71.3089 41.0236C70.9307 41.0157 70.559 40.9241 70.2205 40.7553L72.911 36.823C73.1994 37.0739 73.4207 37.3927 73.5549 37.7505V37.7429ZM71.0253 36.2098C71.4223 36.1595 71.8255 36.2096 72.1981 36.3555L69.5536 40.1881C69.2827 39.8959 69.0902 39.5399 68.994 39.1533L71.0253 36.2098ZM94.6728 41.2383C95.0962 40.8028 95.4063 40.27 95.5757 39.6867C95.7451 39.1034 95.7687 38.4874 95.6444 37.8929C95.5202 37.2983 95.2518 36.7434 94.863 36.2768C94.4741 35.8102 93.9767 35.4462 93.4143 35.2167C92.8518 34.9873 92.2417 34.8995 91.6374 34.9609C91.0332 35.0224 90.4532 35.2313 89.9485 35.5693C89.4438 35.9073 89.0299 36.364 88.7429 36.8993C88.456 37.4347 88.3049 38.0323 88.3029 38.6397C88.3079 39.3756 88.5307 40.0935 88.9433 40.7029C89.3558 41.3123 89.9396 41.7859 90.621 42.0638C91.3024 42.3418 92.0509 42.4117 92.772 42.2648C93.4931 42.1179 94.1545 41.7607 94.6728 41.2383ZM92.0436 35.106C92.7361 35.1045 93.4135 35.3083 93.9902 35.6916C94.567 36.0749 95.0172 36.6206 95.2839 37.2597C95.5507 37.8987 95.622 38.6025 95.489 39.2821C95.3559 39.9617 95.0244 40.5867 94.5364 41.0779C94.0483 41.5692 93.4255 41.9048 92.7468 42.0423C92.0681 42.1798 91.3639 42.1131 90.7231 41.8505C90.0823 41.588 89.5336 41.1414 89.1466 40.5672C88.7595 39.9929 88.5512 39.3169 88.5482 38.6244C88.5462 38.1637 88.6351 37.7072 88.8097 37.2809C88.9844 36.8546 89.2414 36.467 89.5661 36.1402C89.8908 35.8133 90.2767 35.5538 90.7018 35.3763C91.127 35.1989 91.5829 35.107 92.0436 35.106Z" fill="black"/>
<path d="M93.8835 40.4717C94.3429 39.9779 94.5929 39.3252 94.5811 38.6509C94.5692 37.9766 94.2965 37.3331 93.8201 36.8557C93.3437 36.3783 92.7007 36.1042 92.0264 36.0909C91.3521 36.0777 90.699 36.3264 90.2042 36.7847C87.7283 39.2223 91.4536 42.9399 93.8835 40.4717ZM94.2898 37.7429L92.0439 41.0236C91.6658 41.0149 91.2942 40.9234 90.9554 40.7553L93.6689 36.8307C93.95 37.0801 94.1636 37.3965 94.2898 37.7505V37.7429ZM91.7679 36.2098C92.1648 36.1554 92.5691 36.2056 92.9407 36.3554L90.2885 40.1881C90.0203 39.894 89.8282 39.5387 89.7289 39.1533L91.7679 36.2098ZM110.157 36.0105C109.719 36.4407 109.395 36.9725 109.213 37.5585C109.031 38.1445 108.997 38.7665 109.113 39.3689C109.23 39.9714 109.494 40.5356 109.882 41.0111C110.27 41.4867 110.769 41.8589 111.336 42.0944C111.903 42.33 112.519 42.4217 113.129 42.3612C113.74 42.3008 114.326 42.0901 114.836 41.748C115.345 41.4059 115.762 40.9431 116.049 40.4007C116.336 39.8583 116.484 39.2533 116.481 38.6397C116.46 37.9168 116.23 37.2154 115.82 36.6197C115.41 36.0241 114.836 35.5595 114.168 35.2819C113.501 35.0042 112.767 34.9253 112.055 35.0545C111.344 35.1838 110.684 35.5157 110.157 36.0105ZM109.291 38.6397C109.269 38.1664 109.343 37.6935 109.509 37.2497C109.674 36.8058 109.929 36.4003 110.256 36.0575C110.583 35.7147 110.976 35.4418 111.412 35.2554C111.847 35.069 112.316 34.9728 112.79 34.9728C113.264 34.9728 113.733 35.069 114.168 35.2554C114.604 35.4418 114.997 35.7147 115.324 36.0575C115.651 36.4003 115.906 36.8058 116.071 37.2497C116.237 37.6935 116.311 38.1664 116.289 38.6397C116.274 43.2542 109.306 43.1699 109.291 38.6397Z" fill="black"/>
<path d="M110.939 36.7923C110.451 37.284 110.176 37.9473 110.172 38.6397C110.173 39.2424 110.382 39.8264 110.764 40.2922C111.147 40.758 111.679 41.0769 112.27 41.1945C112.861 41.3121 113.475 41.2212 114.006 40.9373C114.538 40.6533 114.955 40.1939 115.186 39.6372C115.417 39.0805 115.448 38.461 115.273 37.8841C115.099 37.3072 114.73 36.8085 114.229 36.4731C113.728 36.1377 113.127 35.9862 112.527 36.0444C111.927 36.1026 111.366 36.3669 110.939 36.7923ZM110.464 39.2146L112.503 36.2481C112.9 36.1981 113.303 36.2482 113.675 36.3937L111.023 40.2264C110.758 39.9389 110.566 39.5918 110.464 39.2146ZM112.763 41.0312C112.385 41.0221 112.014 40.9305 111.675 40.763L114.365 36.8307C114.653 37.0794 114.874 37.3954 115.009 37.7505L112.763 41.0312ZM136.15 41.2382C136.665 40.7178 137.015 40.0567 137.155 39.3381C137.295 38.6195 137.219 37.8755 136.937 37.1998C136.655 36.5241 136.18 35.947 135.57 35.541C134.961 35.135 134.245 34.9184 133.513 34.9184C132.781 34.9184 132.065 35.135 131.456 35.541C130.847 35.947 130.371 36.5241 130.089 37.1998C129.807 37.8755 129.732 38.6195 129.872 39.3381C130.012 40.0567 130.361 40.7178 130.876 41.2382C131.222 41.5849 131.633 41.86 132.086 42.0477C132.538 42.2354 133.023 42.332 133.513 42.332C134.003 42.332 134.488 42.2354 134.941 42.0477C135.393 41.86 135.804 41.5849 136.15 41.2382ZM133.529 35.106C134.103 35.1049 134.669 35.2453 135.176 35.5149C135.683 35.7845 136.116 36.175 136.436 36.6517C136.757 37.1285 136.955 37.6768 137.013 38.2482C137.071 38.8197 136.987 39.3966 136.769 39.928C136.551 40.4594 136.205 40.9289 135.763 41.295C135.32 41.661 134.794 41.9123 134.231 42.0267C133.668 42.1411 133.086 42.115 132.536 41.9507C131.985 41.7865 131.484 41.4891 131.076 41.0849C130.584 40.5978 130.248 39.9757 130.11 39.2974C129.972 38.619 130.039 37.915 130.301 37.2746C130.564 36.6343 131.011 36.0863 131.586 35.7002C132.16 35.3141 132.836 35.1073 133.529 35.106Z" fill="black"/>
<path d="M135.361 40.4717C135.661 40.1675 135.882 39.794 136.004 39.3843C136.125 38.9746 136.145 38.5411 136.06 38.1222C135.974 37.7033 135.788 37.3117 135.515 36.9821C135.243 36.6524 134.894 36.3947 134.499 36.2317C134.104 36.0688 133.675 36.0055 133.249 36.0475C132.824 36.0896 132.415 36.2356 132.06 36.4728C131.704 36.7099 131.412 37.0309 131.21 37.4075C131.007 37.784 130.901 38.2046 130.899 38.6321C130.901 39.1481 131.056 39.6521 131.344 40.0804C131.631 40.5087 132.04 40.8423 132.517 41.039C132.994 41.2357 133.518 41.2869 134.025 41.1859C134.531 41.085 134.995 40.8365 135.361 40.4717ZM135.767 37.7429L133.529 41.0313C133.15 41.0271 132.777 40.9353 132.44 40.763L135.138 36.8307C135.418 37.083 135.633 37.3983 135.767 37.7506V37.7429ZM133.237 36.2098C133.634 36.1605 134.037 36.2105 134.41 36.3555L131.766 40.1881C131.492 39.8966 131.297 39.5406 131.198 39.1533L133.237 36.2098ZM55.4421 57.9103C55.501 58.4772 55.6647 59.0283 55.925 59.5354C57.6574 62.9388 62.8238 62.6628 64.8014 60.8845C66.7791 59.1061 66.3345 56.9905 66.3345 56.2853V46.3204C66.2785 45.7553 66.1145 45.2063 65.8516 44.703C64.3185 41.6369 61.2524 42.1658 60.0873 42.1428C58.9376 42.1251 57.8231 42.5387 56.9633 43.3021C56.1035 44.0654 55.5608 45.1231 55.4421 46.2667C55.4038 46.8416 55.4038 57.4964 55.4421 57.9103ZM55.7104 46.328C55.8263 45.2467 56.34 44.247 57.1517 43.5232C57.9634 42.7993 59.0151 42.403 60.1026 42.4111C61.5437 42.4111 64.2495 42.0661 65.6676 44.8333C65.8909 45.3145 66.0135 45.8361 66.0279 46.3664C66.0892 47.0256 66.0815 54.3689 66.0279 56.2776C66.0279 57.5501 66.3038 59.3437 64.6328 60.7618C62.4635 62.7011 56.109 62.5172 55.718 57.8797C55.6797 57.4887 55.6567 46.8646 55.7104 46.328ZM37.7736 44.9636C39.3756 43.032 38.931 40.5024 40.5101 36.3248C37.145 37.3673 34.3778 38.3638 32.2239 39.2146C31.7103 41.5142 31.1737 43.9901 30.5835 45.0019C33.1514 44.9943 35.198 45.0709 37.7736 44.9636Z" fill="black"/>
</svg>
