<svg width="154" height="154" viewBox="0 0 154 154" fill="none" xmlns="http://www.w3.org/2000/svg">
<path d="M115.914 127.293C115.853 129.068 114.903 130.535 113.785 130.535C113.129 130.535 112.53 130.029 112.136 129.251C111.905 129.366 111.673 129.481 111.437 129.596C111.959 130.637 112.809 131.302 113.785 131.302C114.939 131.302 115.927 131.237 116.871 130.343C117.939 129.332 118.309 127.626 118.086 126.088C117.4 126.478 116.676 126.881 115.914 127.294V127.293Z" fill="black"/>
<path d="M48.0088 124.788C46.9502 123.631 44.7533 123.934 44.2389 124.244C41.3981 125.298 41.5683 131.329 44.495 132.003C45.4118 132.215 46.9272 132.039 47.8716 131.146C49.5128 129.593 49.4139 126.324 48.0088 124.788ZM42.9634 128.085C42.9634 126.349 43.8733 124.882 44.9495 124.882C46.0258 124.882 46.9357 126.349 46.9357 128.085C46.9357 129.82 46.0258 131.288 44.9495 131.288C43.8733 131.288 42.9634 129.821 42.9634 128.085Z" fill="black"/>
<path d="M77.8759 141.736C76.9047 140.675 75.6775 140.781 74.5951 140.874C72.4495 141.063 71.3511 143.301 71.3511 145.455C71.3511 147.918 72.7339 149.922 74.4326 149.922C75.6989 149.922 76.7246 149.845 77.7234 148.901C79.5547 147.168 79.4704 143.479 77.8759 141.736ZM72.1169 145.455C72.1169 143.449 73.177 141.755 74.4318 141.755C75.6867 141.755 76.7468 143.449 76.7468 145.455C76.7468 147.461 75.6867 149.155 74.4318 149.155C73.177 149.155 72.1169 147.461 72.1169 145.455Z" fill="black"/>
<path d="M145.211 80.9006C124.698 70.4319 103.603 62.8093 82.5903 58.0858C79.613 54.6954 75.998 50.6587 72.977 47.3442C69.572 43.6088 66.6438 40.2605 63.1958 38.3587C63.1299 37.1652 62.3013 36.2898 60.8916 35.9387C59.5976 35.6175 58.2677 35.8927 57.0941 36.1372C51.2821 37.3445 15.6314 44.6827 10.044 46.9195C8.89649 47.3787 8.2342 47.7696 7.91071 48.9279C7.49447 50.4234 7.56959 53.0258 9.04137 54.1297C9.765 54.6732 10.7462 54.5697 11.5411 54.1174C12.4096 53.8683 13.5495 53.5525 14.9055 53.183C16.1856 54.4225 15.5425 53.7295 31.059 71.0283C31.1847 84.5402 33.8868 99.8236 38.9437 111.883C38.9851 111.983 38.9437 111.949 40.2951 113.121C40.7052 114.938 41.2135 117.617 42.5427 121.464C43.2617 123.544 45.083 124.693 46.8438 125.807C55.8546 131.505 64.8569 136.682 74.0471 141.412C74.1736 141.384 74.3024 141.37 74.4334 141.37C75.1862 141.37 75.8669 141.837 76.3559 142.589C77.0742 142.951 77.7932 143.311 78.513 143.668C80.0124 144.411 81.6896 145.207 83.3967 145.207C89.5989 145.207 112.601 134.333 117.143 131.96C118.465 131.268 121.392 130.087 121.95 128.585C122.461 127.21 121.119 126.264 119.867 125.521C122.342 124.094 124.756 122.583 127.103 120.988C127.556 120.678 138.762 101.418 145.4 81.3613C145.46 81.1788 145.376 80.9841 145.211 80.8991L145.211 80.9006ZM12.0424 52.5705C11.5925 53.4344 10.2671 54.0913 9.5013 53.5164C8.44193 52.7215 8.2342 50.6227 8.6489 49.1341C8.85893 48.3821 9.35029 47.8838 10.1437 47.8838C10.7293 47.8838 11.2874 48.1751 11.5672 48.5063C12.3774 49.4675 12.4564 51.7764 12.0424 52.5705ZM82.6202 58.8785C103.27 63.5383 123.969 71.0566 144.17 81.2333C134.285 85.9575 124.275 90.2272 114.017 93.2589C113.459 93.4237 105.857 95.971 95.8033 98.3105C91.201 97.1346 86.4621 95.8537 81.6766 94.4095C82.3734 82.7878 82.6731 70.9976 82.6194 58.8792L82.6202 58.8785ZM60.184 114.429C55.4276 112.079 50.7494 109.389 46.2604 106.266C45.8166 101.837 45.5215 97.3914 45.3743 92.9431C50.2143 95.9556 55.2467 98.5619 60.3565 100.847C60.161 105.37 60.1028 109.902 60.184 114.429ZM60.2009 115.293C60.2845 119.141 60.4684 122.985 60.7528 126.815C56.3237 124.237 51.9919 121.359 47.825 118.221C47.2363 114.588 46.7495 110.935 46.3632 107.268C50.8321 110.335 55.4813 112.979 60.2009 115.293ZM60.3933 100.022C55.2544 97.711 50.1997 95.0733 45.3452 92.0202C45.231 87.9965 45.2379 83.9722 45.3674 79.957C50.4887 83.0025 55.8415 85.6386 61.2932 87.9513C60.8831 91.9604 60.5834 95.9871 60.3933 100.022ZM93.8716 112.001C99.4498 110.653 104.965 109.088 110.399 107.314C108.965 111.84 107.481 116.37 105.955 120.878C100.948 122.625 95.8577 124.173 90.7004 125.514C91.8732 121.156 92.9318 116.647 93.8716 112.001ZM89.8971 125.548C85.2019 124.173 80.3397 122.647 75.4323 120.87C76.313 116.432 77.1386 111.977 77.9051 107.519C83.0602 109.192 88.1624 110.641 93.0997 111.954C92.1507 116.63 91.0821 121.166 89.8971 125.548ZM94.038 111.172C94.8237 107.215 95.5251 103.161 96.1391 99.0172C102.017 97.6443 107.885 96.0216 113.723 94.1565C113.58 97.6083 112.338 101.17 110.684 106.414C105.212 108.216 99.6568 109.803 94.038 111.172ZM93.2507 111.201C88.3072 109.885 83.1966 108.434 78.0362 106.756C78.7223 102.73 79.3608 98.7022 79.9488 94.6824C85.172 96.2937 90.3501 97.7034 95.3687 98.9889C94.7501 103.154 94.0433 107.227 93.2507 111.201ZM77.2996 106.514C71.9192 104.743 66.4905 102.725 61.1445 100.357C61.3293 96.3144 61.6252 92.2793 62.0314 88.2625C67.7054 90.6365 73.4806 92.6671 79.2067 94.4524C78.6203 98.4676 77.9833 102.492 77.2988 106.514H77.2996ZM61.1085 101.18C66.4261 103.521 71.8218 105.522 77.1685 107.278C76.4042 111.729 75.5817 116.176 74.7033 120.605C70.1224 118.924 65.507 117.019 60.956 114.808C60.867 110.267 60.9184 105.719 61.1085 101.18ZM74.5523 121.365C73.7941 125.157 72.9954 128.936 72.1576 132.691C68.5877 131.085 65.0424 129.274 61.5554 127.278C61.2603 123.42 61.0663 119.547 60.9751 115.669C65.4732 117.837 70.0296 119.709 74.5515 121.365H74.5523ZM75.2812 121.63C80.1726 123.399 85.0172 124.918 89.6962 126.287C88.5993 130.283 87.405 134.149 86.1164 137.872C81.708 136.586 77.2727 134.953 72.8727 133.009C73.716 129.236 74.5193 125.44 75.282 121.63L75.2812 121.63ZM90.4697 126.365C95.5979 125.044 100.661 123.52 105.643 121.798C104.337 125.639 103 129.464 101.639 133.257C96.9056 135.035 92.0051 136.553 86.9512 137.802C88.216 134.124 89.3911 130.307 90.4697 126.365ZM106.561 121.478C111.548 119.726 116.452 117.778 121.257 115.638C119.877 119.229 118.423 122.787 116.896 126.304C112.323 128.787 107.546 130.987 102.582 132.898C103.936 129.116 105.263 125.305 106.561 121.478ZM106.873 120.555C108.392 116.055 109.87 111.535 111.297 107.019C116.361 105.342 121.355 103.482 126.264 101.446C124.837 105.876 123.296 110.274 121.644 114.624C116.817 116.797 111.887 118.777 106.873 120.555ZM111.581 106.117C113.166 101.076 114.411 97.4964 114.498 93.9074C119.746 92.2103 124.969 90.3169 130.151 88.2326C129.056 92.3368 127.861 96.4255 126.57 100.488C121.655 102.545 116.654 104.423 111.581 106.117ZM80.8939 94.1711C63.8635 88.9739 46.2995 81.6748 32.1835 69.6561C44.5388 65.1695 57.9963 61.8519 72.1913 59.7738C75.3801 59.3069 78.6725 58.7895 81.8521 58.7803C81.9073 70.9332 81.5938 82.5149 80.8939 94.1711ZM17.1683 52.5713C31.361 48.7546 60.5903 41.2394 61.3408 40.8132C61.7409 40.5863 62.2185 40.3149 62.5887 39.9401C65.681 42.1807 67.592 44.6444 79.5057 58.1004C77.029 58.2698 74.5599 58.6531 72.0817 59.0149C57.879 61.0876 44.4115 64.4099 32.0409 68.8927C28.9939 65.421 20.4959 55.7755 17.1683 52.5713ZM31.8202 70.3529C35.8423 73.7641 40.1372 76.7949 44.6162 79.5062C44.479 83.5069 44.4621 87.5167 44.5656 91.525C40.3626 88.8298 36.3167 85.8172 32.5055 82.4283C32.067 78.3871 31.8317 74.3267 31.8202 70.3529ZM32.6335 83.5628C36.4225 86.8689 40.4331 89.8133 44.5917 92.451C44.7258 96.8686 45.0071 101.284 45.4326 105.683C41.8045 103.101 38.3059 100.228 34.9991 97.015C33.9703 92.6687 33.1724 88.1338 32.6335 83.5628ZM39.616 111.507C37.9449 107.509 36.5061 103.075 35.3363 98.3994C38.5811 101.465 41.9984 104.214 45.5337 106.693C45.904 110.327 46.3739 113.949 46.9419 117.551C44.433 115.628 41.9862 113.611 39.616 111.507ZM121.231 128.318C120.795 129.491 117.865 130.718 116.788 131.281C110.765 134.427 88.515 144.691 83.2135 144.438C81.7601 144.37 80.4348 143.765 78.8534 142.982C68.1623 137.686 57.6452 131.744 47.5689 125.36C45.8235 124.254 43.937 123.154 43.2671 121.214C42.4492 118.847 41.7761 116.406 41.2618 113.952C54.2249 124.964 70.0151 134.04 86.2536 138.712C86.3196 138.731 86.384 138.731 86.4499 138.716C98.2111 135.871 109.159 131.591 119.11 125.954C120.003 126.533 121.608 127.308 121.231 128.318ZM126.603 120.402C123.823 122.287 120.951 124.055 117.992 125.702C119.481 122.236 120.901 118.731 122.249 115.194C125.609 113.674 128.921 112.06 132.178 110.354C130.375 113.833 128.504 117.212 126.603 120.402H126.603ZM132.789 109.165C129.46 110.933 126.073 112.604 122.633 114.177C124.263 109.846 125.785 105.468 127.194 101.059C131.24 99.3576 135.227 97.5355 139.147 95.5969C137.202 100.143 135.055 104.726 132.789 109.166V109.165ZM139.609 94.5107C135.639 96.4953 131.6 98.358 127.499 100.097C128.777 96.0445 129.959 91.9673 131.042 87.8731C135.524 86.0503 139.975 84.0841 144.386 81.9784C143.026 86.0081 141.409 90.2356 139.609 94.5107Z" fill="black"/>
<path d="M89.0241 91.2898C99.0192 87.0791 106.407 78.1051 109.04 68.0281C110.701 61.6703 110.6 54.3659 115.416 45.2325C117.106 42.0267 119.429 38.3105 122.696 36.5919C123.755 36.0354 124.891 35.8292 126.045 35.5762C126.318 35.5164 126.337 35.0496 126.045 35.0044C124.013 34.6916 121.95 35.869 120.426 37.117C118.734 38.5029 117.396 40.3005 116.271 42.1617C108.907 54.3299 110.664 62.6807 107.421 71.3894C104.162 80.138 97.3044 87.3574 89.0011 91.2315C88.9689 91.2461 88.9927 91.3028 89.0256 91.289L89.0241 91.2898Z" fill="black"/>
<path d="M137.925 30.5031C137.378 30.4226 136.817 30.4594 136.285 30.6104C136.232 30.3191 136.11 30.0416 135.917 29.817C135.987 29.5472 136.015 29.1417 136.442 28.6258C136.576 28.4625 136.553 28.221 136.391 28.0861C136.228 27.9512 135.986 27.9742 135.851 28.1367C135.55 28.5016 135.336 28.9286 135.223 29.3847C134.188 29.1424 133.567 29.7112 133.371 30.4302C132.236 29.3609 131.03 28.3575 129.773 27.4399C129.233 27.0459 128.731 27.0275 128.202 27.758C127.517 28.7017 126.798 29.9312 127.324 31.078C127.611 31.7019 128.164 32.0783 128.812 32.2914C128.275 33.5501 128.886 34.9843 130.452 35.2411C130.321 35.4258 130.201 35.6037 130.094 35.7731C129.976 35.9594 129.758 36.3066 129.808 36.7052C129.884 37.3077 130.663 38.0628 131.824 38.0628C133.559 38.0628 134.669 36.4867 134.798 34.7145C134.853 33.9656 134.754 33.2335 134.613 32.5191C135.272 32.5375 136.017 32.0814 136.233 31.4306C136.246 31.4275 136.258 31.4237 136.271 31.4191C136.763 31.2389 137.295 31.1838 137.814 31.2612C138.021 31.2918 138.218 31.1477 138.248 30.9377C138.279 30.7277 138.135 30.5337 137.925 30.5031ZM128.02 30.7583C127.66 29.9734 128.259 28.9838 128.821 28.2088C128.999 27.9627 129.077 27.9359 129.102 27.9359C129.26 27.909 131.795 29.9718 133.16 31.288C131.904 31.9074 128.652 32.1343 128.019 30.7591L128.02 30.7583ZM129.469 33.6681C129.326 33.314 129.359 32.8794 129.581 32.4685C129.896 32.5145 130.217 32.5336 130.528 32.5336C131.323 32.5336 132.324 32.4271 133.126 32.1335C132.288 32.9959 131.572 33.7985 131.001 34.5175C130.37 34.5305 129.701 34.2454 129.47 33.6689L129.469 33.6681ZM134.035 34.6585C133.961 35.6596 133.549 36.4967 132.904 36.9551C132.279 37.3989 131.244 37.4572 130.699 36.8371C130.514 36.627 130.523 36.5304 130.742 36.1824C131.181 35.4879 132.067 34.3013 133.828 32.5091C133.976 33.2235 134.086 33.9479 134.034 34.6593L134.035 34.6585ZM135.301 31.4873C134.647 31.9702 134.223 31.7656 134.098 31.1523C133.993 30.6372 134.192 30.0983 134.77 30.0983C135.151 30.0983 135.424 30.257 135.523 30.7031C135.578 30.9484 135.553 31.3003 135.301 31.4865V31.4873Z" fill="black"/>
<path d="M91.0489 39.1337C90.4748 37.2932 89.7512 35.1821 88.3722 33.8185C88.4204 33.1056 88.3423 32.3743 88.2165 31.6936C86.5309 22.6061 78.1517 14.1787 68.9907 12.47C68.4074 12.3612 68.1498 13.2366 68.7423 13.3707C74.0285 14.5719 78.742 17.3238 82.2942 21.4394C85.7567 25.4523 87.6232 30.5269 87.6915 33.2504C87.1081 32.8503 86.4389 32.6004 85.7153 32.6487C84.5241 32.7284 83.2493 33.5172 82.9266 34.7207C82.6215 35.859 83.3888 36.9697 84.5149 37.2081C85.9606 37.5148 87.6524 36.7574 88.1966 34.8556C89.2721 36.2009 89.9673 38.2966 90.4449 39.9148C92.3199 46.2711 92.0217 53.1447 90.1252 59.458C88.2779 65.6065 84.9687 71.1525 81.0163 76.1703C80.5487 76.7636 80.0773 77.3524 79.6158 77.9503C79.4924 78.1097 79.7546 78.2998 79.891 78.1626C83.9085 74.1344 88.3285 67.2738 90.5698 60.4277C92.8059 53.5947 93.2045 46.0403 91.0497 39.1329L91.0489 39.1337ZM86.5025 36.1748C85.6869 36.6754 84.1983 36.8026 83.7453 35.7463C83.2516 34.595 84.6536 33.5992 85.6509 33.4911C86.4067 33.4091 87.0774 33.7502 87.6317 34.2508C87.509 35.0327 87.1848 35.7555 86.5025 36.1748Z" fill="black"/>
<path d="M65.7215 9.42821C66.5977 8.41406 66.9204 6.92005 66.3968 5.17385C66.1692 4.41343 65.8457 3.86305 65.4103 3.49127C65.2501 3.35406 65.0102 3.37246 64.8722 3.53113C63.2318 5.41684 62.0436 7.30716 60.7872 9.36382C60.246 8.80577 59.1338 8.62333 58.4738 9.13615C58.24 9.05107 57.695 8.96828 57.0656 8.39873C56.9085 8.25615 56.6663 8.26842 56.5244 8.42556C56.3826 8.5827 56.3941 8.82493 56.5513 8.96751C56.9614 9.33852 57.4481 9.61985 57.9732 9.79002C57.8444 10.0928 57.8046 10.3818 57.8375 10.6539C57.8276 10.6631 57.8176 10.6723 57.8084 10.6823C57.5194 10.9981 57.1499 11.2304 56.7391 11.353C56.5359 11.4136 56.421 11.6267 56.4815 11.8298C56.5405 12.0283 56.7513 12.1487 56.9583 12.0874C57.4113 11.9525 57.8268 11.7164 58.1741 11.399C58.5696 11.8306 59.1729 12.0897 59.7792 11.9716C59.9226 11.9433 60.059 11.8942 60.1855 11.8283C60.1234 12.9911 60.0184 15.0087 59.4235 18.4459C59.3821 18.6843 59.5684 18.8966 59.8045 18.8943C62.8117 18.8675 65.1297 15.9776 64.83 13.4902C65.9645 13.2778 66.646 12.5496 66.8131 11.7562C67.0116 10.8126 66.4643 9.92647 65.7215 9.42744V9.42821ZM65.1757 4.35517C65.372 4.6158 65.5329 4.95845 65.6633 5.39308C66.5456 8.33434 64.6897 10.5198 61.3054 9.98549C62.5465 7.95107 63.6541 6.1604 65.1757 4.35441V4.35517ZM58.7551 10.8954C58.5481 10.6884 58.5704 10.3672 58.6601 10.135C58.9598 9.36152 59.9985 9.54319 60.2867 9.9556C60.6845 10.5259 59.7248 11.8643 58.7551 10.8954ZM60.2621 18.0902C60.8945 14.2506 60.9459 11.7156 61.0141 11.0939C61.7431 11.0985 62.709 11.399 63.3805 12.1119C65.2072 14.049 63.2448 17.6694 60.2621 18.0902ZM66.0642 11.5983C65.9292 12.2384 65.2861 12.6408 64.6583 12.752C64.5088 12.335 64.2727 11.9402 63.9385 11.586C63.6311 11.2603 63.2778 11.0042 62.9075 10.8103C63.7691 10.7214 64.528 10.4309 65.1328 9.97706C65.8664 10.3672 66.183 11.0357 66.0642 11.5983Z" fill="black"/>
</svg>
