<svg width="154" height="154" viewBox="0 0 154 154" fill="none" xmlns="http://www.w3.org/2000/svg">
<path d="M11.6807 45.9097C7.88399 40.0579 5.94232 32.9275 7.30448 25.7004C7.95114 22.2535 9.27198 18.9681 11.1911 16.0328C13.1103 13.0974 15.5901 10.5699 18.4883 8.59501C21.3865 6.62013 24.646 5.23684 28.0799 4.52446C31.5139 3.81209 35.0547 3.78464 38.4992 4.4437C41.9438 5.10276 45.2244 6.43537 48.1529 8.36505C51.0812 10.2948 53.6 12.7836 55.5644 15.6889C57.5288 18.5941 58.9004 21.8586 59.6004 25.2951C60.3005 28.7316 60.3152 32.2724 59.6437 35.7146C57.9106 44.9615 52.8835 51.2419 43.0717 55.6848C38.3275 57.8342 20.4861 59.48 11.6807 45.9097ZM19.8445 26.8671C20.4784 28.9373 21.6284 30.8124 23.1863 32.316C24.7442 33.8196 26.6589 34.9023 28.7503 35.4624C30.8417 36.0225 33.0412 36.0416 35.142 35.5178C37.2429 34.994 39.1761 33.9447 40.7598 32.4683C49.8212 24.0163 42.5229 8.87618 30.1515 10.6025C28.3457 10.874 26.6193 11.5305 25.0894 12.5276C23.5596 13.5246 22.2619 14.8389 21.2844 16.3815C20.3069 17.9239 19.6725 19.6586 19.424 21.4677C19.1756 23.2768 19.319 25.1182 19.8445 26.8671ZM24.039 54.2222C23.9754 54.4391 24.1701 54.4851 24.3717 54.5518C37.2551 58.8215 49.0186 54.0612 55.1341 44.3789C55.2928 44.129 55.3051 44.067 55.0759 43.8822C46.9819 35.9845 26.8346 41.4208 24.039 54.2222Z" fill="black"/>
<path d="M35.9349 17.9591C35.9196 21.0682 32.0769 22.405 31.9182 25.0473C31.8469 26.2263 33.2665 27.0112 32.3835 27.7303C31.6729 28.3067 30.809 26.8104 30.5675 25.459C30.5532 25.0153 30.5895 24.5714 30.6756 24.1359C31.2206 21.4768 34.7253 20.2342 34.4233 17.7276C34.1213 15.2209 31.3279 15.6663 29.3334 17.631C28.5975 18.3554 28.7615 18.8889 28.5438 19.302C28.2564 19.8448 27.522 19.4761 27.4592 18.8697C27.1786 16.1699 32.6257 12.3594 35.3447 16.0779C35.7431 16.623 35.9506 17.2842 35.9349 17.9591Z" fill="black"/>
<path d="M32.9992 31.5316C32.8593 31.4526 32.7397 31.3421 32.6498 31.2089C32.56 31.0757 32.5024 30.9234 32.4814 30.7641C32.4606 30.6047 32.477 30.4427 32.5295 30.2909C32.5819 30.1389 32.669 30.0014 32.7838 29.8889C32.883 29.7894 33.0031 29.7134 33.1355 29.6663C33.2678 29.6193 33.409 29.6025 33.5487 29.6172C33.6884 29.632 33.823 29.6778 33.9427 29.7513C34.0624 29.8248 34.1641 29.9242 34.2403 30.0422C34.6795 30.7996 33.9007 31.99 32.9992 31.5316Z" fill="black"/>
<path d="M15.7463 137.385C26.6191 134.408 53.2023 131.128 64.397 129.805C91.2799 126.628 119.271 123.968 146.111 122.725C146.192 122.724 146.271 122.755 146.331 122.811C146.391 122.866 146.426 122.943 146.431 123.024C146.435 123.106 146.408 123.186 146.355 123.248C146.302 123.31 146.227 123.349 146.146 123.357C112.719 125.58 35.5739 133.737 16.0461 138.677C15.6428 138.778 15.3485 137.494 15.7463 137.385Z" fill="black"/>
<path d="M109.233 88.0993C109.064 87.716 109.83 88.1483 110.113 87.3519C110.789 85.4524 110.797 84.8568 109.919 84.1991C108.873 83.5245 107.747 82.9833 106.566 82.5893C106.271 82.4989 106.909 82.2061 107.634 81.323C107.818 81.0999 107.761 81.1858 109.513 82.0604C111.651 83.1282 111.784 83.0102 112.043 83.697C112.378 84.4904 112.997 85.1304 113.779 85.4923C115.365 86.301 116.907 87.0706 118.173 85.726C118.331 85.5582 118.32 85.5773 119.205 86.0442C123.254 88.1805 123.143 87.7635 123.239 88.2112C123.35 88.6857 123.572 89.1272 123.885 89.4998C124.199 89.8731 124.595 90.1667 125.043 90.3575C126.343 91.0543 126.998 91.5442 128.312 91.095C132.145 89.7842 134.421 84.3693 132.673 82.6461C131.176 81.1712 130.363 80.1532 128.294 80.6078C127.974 80.6783 128.231 80.6806 124.192 77.8536C123.772 77.56 123.766 77.4864 123.831 77.2472C123.897 76.9996 123.903 76.7398 123.849 76.4891C123.795 76.2386 123.681 76.0047 123.518 75.807C121.263 72.8289 119.225 72.9362 118.497 72.9815C118.427 72.9895 118.356 72.9814 118.289 72.9576C118.223 72.9338 118.163 72.895 118.114 72.8443C114.818 69.0475 91.5742 52.9063 85.9278 49.1011C85.3667 48.7225 85.7178 48.5944 85.5691 48.0717C85.0325 46.1806 82.1625 43.6149 80.4332 42.9488C73.5925 40.3142 65.2586 49.1203 65.9776 56.3688C66.3731 60.3549 68.3999 61.8604 72.051 63.3076C72.6976 63.5587 73.3967 63.644 74.0846 63.556C74.8035 63.3559 75.4937 63.0643 76.1382 62.6882C76.8151 62.2398 76.4571 63.382 97.8316 75.7411C98.1735 75.9388 98.0324 75.922 98.0202 76.3098C97.9558 77.8229 98.29 79.3254 98.9898 80.6684C99.1516 80.975 98.9132 80.8217 97.909 80.7918C95.259 80.7075 95.0268 81.4571 95.0176 84.0665C95.0176 84.6115 95.3319 84.8568 95.8769 85.1619C96.6756 85.6103 96.7063 85.6318 96.6603 85.7889C96.5744 86.0817 74.8688 147.173 74.8351 148.129C74.8098 148.855 75.5794 149.409 76.2915 149.537C76.4563 149.567 77.1163 147.935 78.2999 144.96C81.094 137.936 88.2535 120.785 89.5314 117.529C100.298 90.0862 98.743 93.8086 100.281 90.0256C100.503 89.4814 100.497 89.9405 100.625 92.0869C100.685 93.098 104.185 142.928 104.387 145.303C104.57 147.432 104.658 147.427 104.949 147.449C105.274 147.531 105.614 147.533 105.94 147.455C106.267 147.377 106.569 147.22 106.822 147C107.22 146.517 107.09 146.346 106.912 141.328C106.811 138.478 105.128 91.5488 105.142 91.5472C105.142 89.5542 122.908 133.801 128.876 147.085C129.118 147.622 129.445 147.367 130.283 146.956C130.588 146.744 130.807 146.431 130.901 146.073C130.996 145.714 130.96 145.334 130.799 145C128.338 138.381 109.233 88.0993 109.233 88.0993ZM132.349 83.1167C133.098 83.9224 132.869 86.061 131.429 88.0709C130.418 89.4829 128.553 91.1632 126.967 90.5369C126.048 90.1743 125.677 89.1571 126.282 87.2408C127.152 84.4804 130.82 81.4686 132.349 83.1159L132.349 83.1167ZM129.476 81.1237C130.005 81.198 130.495 81.4495 130.864 81.8373C130.93 81.8971 131.148 82.1194 130.742 82.121C128.45 82.3885 125.533 85.8257 125.376 88.537C125.315 89.5565 125.529 89.706 125.219 89.5964C123.064 88.8413 123.669 85.7383 125.393 83.4946C125.979 82.7472 126.685 82.1026 127.483 81.5875C128.08 81.2233 128.778 81.0608 129.475 81.1237H129.476ZM127.329 80.7504C127.762 81.0317 126.922 80.7665 125.3 82.5901C122.211 86.0603 123.825 87.6976 122.694 87.2024C122.227 86.9978 121.336 86.4903 119.384 85.4769C116.241 83.8449 116.272 83.8618 116.318 83.51C116.579 82.0987 117.159 80.7657 118.014 79.6128C118.746 78.5511 119.673 77.6374 120.745 76.9207C121.04 76.7146 121.218 76.5674 121.599 76.8318C122.17 77.2311 123.552 78.2982 127.324 80.7504H127.329ZM120.85 74.0884C122.039 74.8779 123.089 76.0047 122.631 75.7916C121.424 75.229 119.98 76.4961 118.894 77.5086C117.349 78.9467 116.238 80.7895 115.688 82.827C115.553 83.2394 115.501 83.6748 115.536 84.1071C115.57 84.5394 115.69 84.961 115.888 85.3466C115.973 85.4777 116.166 85.8065 115.735 85.6755C114.829 85.4072 113.984 84.9672 113.244 84.3792C112.498 83.7591 112.336 82.4345 112.348 81.4985C112.402 76.8379 117.867 72.1091 120.846 74.0884H120.85ZM73.3112 62.6369C73.2246 62.7634 73.072 62.7404 72.9279 62.6859C70.4052 61.7339 67.3428 60.5557 66.8722 56.874C66.1823 51.459 70.0648 45.5198 75.5342 43.7659C77.0075 43.1971 78.6333 43.1562 80.1335 43.6502C81.6574 44.4105 83.0004 45.489 84.0712 46.813C83.4296 46.5679 82.7359 46.4888 82.0552 46.583C76.1466 47.2974 69.5413 58.9306 73.0398 62.3211C73.1625 62.4399 73.3441 62.5878 73.3112 62.6369ZM73.2238 59.6075C73.1382 59.5712 73.0688 59.5051 73.0283 59.4215C72.9878 59.3379 72.9791 59.2424 73.0038 59.1529C74.2356 51.9366 80.2623 47.4201 81.8314 47.4768C82.1158 47.4577 82.0935 47.4339 84.4882 49.1103C94.192 55.9012 108.077 65.1887 117.575 73.0796C117.937 73.3808 115.441 73.4153 113.069 76.9276C110.889 80.1563 111.981 82.6192 111.488 82.3594C92.7363 72.4909 75.0857 60.5657 73.2238 59.6075ZM96.182 81.6074C96.6419 81.1107 98.9691 81.5307 99.2482 81.5614C99.3746 81.5675 99.4981 81.6028 99.6084 81.6633C99.7196 81.7247 99.8146 81.8105 99.8875 81.914C100.545 82.7074 101.45 83.257 102.458 83.4739C103.465 83.6909 104.516 83.5629 105.442 83.1106C105.596 83.004 105.785 82.958 105.97 82.9826C107.06 83.3176 108.108 83.7752 109.094 84.347C112.165 86.2741 103.935 85.6111 98.2808 83.28C97.6905 83.0339 95.7458 82.0734 96.182 81.6051V81.6074ZM107.732 87.3366C101.179 87.3573 95.6094 84.8139 95.6454 84.0987C95.6967 83.0822 95.6745 82.3839 95.9827 82.6706C98.2463 84.774 106.986 86.5371 109.661 85.9598C109.802 85.9292 109.83 85.9736 109.814 86.0756C109.755 86.4106 109.672 86.741 109.567 87.0644C109.374 87.4278 108.979 87.3304 107.732 87.3343V87.3366Z" fill="black"/>
<path d="M127.284 89.1135C127.762 90.2633 129.781 89.1089 130.881 87.2883C131.382 86.4604 131.874 85.5636 131.714 84.7372C131.522 83.7407 130.378 83.8526 129.631 84.4145C128.252 85.4501 126.814 87.6478 127.284 89.1135Z" fill="black"/>
<path d="M35.4045 86.3875C36.2232 86.3875 36.1872 86.4334 36.1711 86.1575C36.1711 86.1575 36.043 84.8758 35.9273 83.3036C35.8913 82.8146 36.9422 82.3385 37.0449 85.23C37.0909 86.5331 37.1614 86.4564 37.3883 86.4618C40.2874 86.5231 40.325 86.379 40.4285 86.6274C40.5228 86.8573 39.2679 87.2092 39.0265 87.2544C37.2703 87.581 37.2634 87.2544 37.2634 87.742C37.2849 90.9944 37.2757 90.3406 37.3577 91.009C37.3738 91.137 37.2335 91.1339 37.1837 91.0956C36.6708 90.7024 36.4171 88.845 36.3972 88.3989C36.3466 87.384 36.2707 87.4453 36.0699 87.43C34.6311 87.3196 34.2815 87.3495 34.2585 87.0214C34.2102 86.3468 34.7246 86.3875 35.4045 86.3875Z" fill="black"/>
<path d="M91.7627 17.9738C91.7627 19.5836 91.693 19.5529 91.9704 19.5537C93.0735 19.5537 93.3502 19.5897 93.7619 19.6134C94.1735 19.6372 94.1359 19.9285 93.9374 20.0504C93.3886 20.3815 92.7585 20.554 92.1176 20.5486C91.6347 20.5954 91.8608 20.4321 91.6171 22.6773C91.4783 23.9613 91.3595 24.4726 91.1111 24.294C90.655 23.9659 90.7371 21.7874 90.6642 20.774C90.6474 20.5302 90.6995 20.5072 89.4746 20.5095C89.2369 20.5095 88.9157 20.5379 88.846 20.2482C88.7394 19.8051 88.8146 19.5882 89.6892 19.5583C90.6987 19.5215 90.7348 19.5928 90.7447 19.3682C90.7647 18.3988 90.8375 17.4312 90.9632 16.4698C90.9632 16.3645 91.0054 16.2635 91.0797 16.189C91.1541 16.1146 91.2553 16.0728 91.3603 16.0728C91.4653 16.0728 91.5665 16.1146 91.6408 16.189C91.7152 16.2635 91.7573 16.3645 91.7573 16.4698C91.7849 16.9707 91.7865 17.4727 91.7627 17.9738Z" fill="black"/>
<path d="M132.018 44.5439C132.221 44.6067 131.817 44.9747 131.482 45.1219C131.106 45.2387 130.718 45.313 130.326 45.3435C130.236 45.3573 130.065 45.3435 130.037 45.4822C129.932 46.005 129.887 46.7562 129.682 48.0118C129.528 48.9501 129.367 49.0168 129.222 49.039C129.109 49.0559 128.915 48.9094 128.929 48.0547C128.947 47.0843 129 45.7704 129.027 45.6156C129.062 45.4209 128.684 45.4669 127.696 45.5727C127.597 45.5839 127.499 45.5597 127.416 45.5044C127.334 45.449 127.273 45.3661 127.246 45.2706C127.22 45.175 127.228 45.0729 127.269 44.9828C127.311 44.8926 127.383 44.8202 127.473 44.7784C127.917 44.5568 128.399 44.4194 128.893 44.3729C128.981 44.3522 129.083 44.4128 129.133 44.2717C129.31 43.775 129.263 42.5295 129.426 41.8955C129.599 41.2187 130.09 41.4179 130.103 41.9353C130.188 45.5641 129.66 43.811 132.018 44.5439Z" fill="black"/>
</svg>
