<svg width="154" height="154" viewBox="0 0 154 154" fill="none" xmlns="http://www.w3.org/2000/svg">
<path d="M35.4629 48.3228C30.0012 46.6318 24.5809 44.8986 19.2335 42.8672C18.5428 42.6051 18.2362 43.7212 18.9276 43.9757C24.2597 45.9411 29.7582 47.6589 35.3211 48.8364C35.6553 48.9069 35.7925 48.4247 35.4629 48.3228Z" fill="black"/>
<path d="M41.5838 39.7943C39.6291 36.8446 33.0176 27.5594 31.683 25.6859C31.2913 25.1356 30.951 24.425 30.3316 24.1161C29.9966 23.9489 29.69 24.2226 29.7421 24.5691C29.8502 25.2881 30.5064 25.9082 30.9311 26.4809C31.4209 27.1416 39.1646 37.6012 41.1607 40.1208C41.35 40.36 41.7517 40.048 41.5838 39.7943Z" fill="black"/>
<path d="M52.5362 34.354C52.3039 32.3043 52.1284 31.2633 50.9456 23.331C50.8704 22.8251 50.8689 22.2441 50.5815 21.8125C50.4006 21.5411 49.9698 21.5726 49.8755 21.9045C49.7513 22.3429 49.7459 22.0087 50.7509 28.0568C51.105 30.187 51.4354 32.3273 51.8654 34.4437C51.9406 34.8147 52.5799 34.7388 52.5362 34.354Z" fill="black"/>
<path d="M85.0227 80.1019L89.471 81.2088C88.5741 74.3551 87.8888 69.9712 87.4327 67.322C86.1863 70.1912 85.1714 73.1608 84.4087 76.1941C84.6034 77.3883 84.8088 78.6914 85.0227 80.1019Z" fill="black"/>
<path d="M75.7214 139.703C74.271 138.557 72.1699 138.803 71.0239 140.254C69.1927 142.572 71.073 146 74.038 145.648C76.9786 145.303 78.0525 141.544 75.7214 139.703Z" fill="black"/>
<path d="M95.9981 142.523C94.8107 130.103 92.2995 103.024 89.5714 81.9776L85.8835 86.0648C87.8252 100.219 89.6196 119.47 90.377 132.004C90.4912 132.977 89.7929 133.861 88.8201 133.974C88.4928 134.014 85.4573 135.48 73.0338 136.937C60.4179 138.417 57.5472 137.651 56.9547 137.713C55.9796 137.828 55.0981 137.128 54.9808 136.135C54.9593 136.011 52.8107 123.495 50.2182 104.62C47.628 85.762 47.362 71.331 47.3574 71.1494C47.2432 70.1766 47.9416 69.2928 48.9603 69.1701C55.8439 67.5312 69.0868 65.5413 76.5047 65.3428C76.7738 64.2121 77.062 63.086 77.3709 61.9653C68.2682 62.738 46.7135 65.3826 44.4507 66.1607C42.7819 66.3561 39.6521 67.985 39.3033 70.0739C38.7667 73.2811 46.6285 140.052 48.2926 147.363C48.5824 149.834 51.3696 150.611 53.8448 150.362C59.9825 149.743 87.8926 147.424 93.7674 145.329C95.1595 145.166 96.13 143.903 95.9981 142.523ZM52.9257 149.694C50.5271 149.543 49.224 148.729 49.0485 147.242C46.8791 136.489 40.1864 77.5446 40.0269 71.0995C39.9809 69.243 41.2626 68.1928 42.8877 67.7405C42.2683 69.2476 46.1885 102.748 46.3763 104.367C49.3367 129.814 51.9246 147.509 51.9491 147.674C52.0526 148.553 52.5945 149.275 53.3312 149.648L52.9257 149.694ZM74.1277 146.409C71.8855 146.674 69.8312 145.065 69.5659 142.806C69.3007 140.549 70.9135 138.508 73.1703 138.244C75.4254 137.979 77.4668 139.591 77.732 141.847C77.9964 144.099 76.379 146.145 74.1277 146.409Z" fill="black"/>
<path d="M90.2114 80.9988L84.0774 79.4719C86.0053 69.3227 90.7295 59.8037 97.584 52.1099L96.8367 51.7979C89.9047 59.6504 85.1514 69.3549 83.258 79.6873C83.2212 79.8858 83.3461 80.079 83.5424 80.128L89.4065 81.5875L75.739 96.7353L68.6714 78.0576C70.4597 78.7168 72.3217 79.1568 74.2189 79.3668C74.4366 79.3883 74.6229 79.2335 74.6428 79.0211C75.6891 67.7015 78.802 56.378 83.6827 46.0741L82.9836 45.7598C78.1252 56.0216 75.0054 67.2868 73.9161 78.5589C71.9369 78.3052 70.0006 77.7931 68.1532 77.0342C67.8435 76.907 67.5308 77.2113 67.6488 77.5241L75.2438 97.5946C75.3457 97.8629 75.6953 97.9288 75.8869 97.7157L90.403 81.6274C90.5969 81.4128 90.4911 81.0678 90.2114 80.9988Z" fill="black"/>
<path d="M131.949 22.8116C126.432 20.0343 92.7486 4.97469 86.7496 3.85247C84.5166 2.91574 81.9517 3.96515 81.0158 6.19811L69.0108 34.8196C68.0764 37.0472 69.1289 39.6197 71.2982 40.5235C75.1716 42.9902 105.911 56.7099 116.557 59.5117C118.789 60.4323 121.339 59.3637 122.255 57.1783C124.663 52.3621 133.111 34.1473 134.281 28.5063C135.15 25.8716 134.291 23.792 131.949 22.8116ZM121.559 56.8594C120.787 58.6976 118.666 59.5653 116.827 58.7942C116.81 58.7873 116.792 58.7811 116.774 58.7765C107.857 56.5122 78.9346 43.9561 71.6531 39.8474C69.8157 39.077 68.9472 36.9544 69.7176 35.1162L70.813 32.5038C88.2068 38.9229 104.934 46.9418 122.674 54.3827C122.775 54.4248 122.893 54.1244 121.559 56.8594ZM133.542 28.3039C132.468 33.1584 127.079 45.0676 125.05 49.4837C107.313 42.0374 90.2596 34.0729 72.8474 27.6523L81.721 6.49553C82.4653 4.7202 84.5174 3.75511 86.515 4.58069C93.4937 6.13755 125.098 20.2896 131.627 23.5076C133.606 24.3378 134.29 26.028 133.541 28.3039H133.542Z" fill="black"/>
<path d="M129.606 25.8331C128.441 25.423 127.332 24.8404 125.435 24.1727C125.235 24.1022 125.017 24.208 124.947 24.4073C124.462 25.7902 123.659 27.6061 123.06 28.8748C122.94 29.13 123.129 29.4213 123.408 29.4213C124.453 29.9533 125.779 30.5282 127.345 31.1307C127.543 31.2074 127.845 31.084 127.934 30.8916C128.633 29.3769 129.398 27.7932 129.861 26.3605C129.92 26.1788 129.827 25.9105 129.606 25.8331Z" fill="black"/>
<path d="M96.8167 14.1663C96.3951 14.1663 89.2355 11.5593 84.627 9.64292C84.4316 9.56167 84.3388 9.33707 84.4201 9.1416C84.5013 8.94613 84.7267 8.85414 84.9214 8.93463C88.8523 10.5689 92.895 12.0775 96.9371 13.4182C97.3487 13.5546 97.2498 14.1663 96.8167 14.1663Z" fill="black"/>
<path d="M91.2086 16.4468C90.8713 16.4468 86.6346 14.8861 83.0303 13.0985C82.8402 13.0042 82.7628 12.7742 82.857 12.5849C82.9506 12.3948 83.1813 12.3181 83.3706 12.4116C85.9363 13.6841 88.6146 14.7902 91.3305 15.6994C91.7406 15.8366 91.6417 16.4468 91.2086 16.4468Z" fill="black"/>
<path d="M53.6586 98.8603C53.6862 97.7664 53.7536 96.9707 53.7912 96.5928C53.8119 96.382 53.6586 96.1942 53.4478 96.1728C53.2408 96.1521 53.0492 96.3061 53.0285 96.5162C52.9894 96.904 52.9196 97.722 52.892 98.8411C52.879 99.3524 53.6463 99.3601 53.6586 98.8603Z" fill="black"/>
<path d="M55.0798 95.7426C55.168 95.7426 55.1526 95.7235 57.4109 95.3808C57.9122 95.3049 57.7972 94.5453 57.2958 94.6227C55.8954 94.8351 55.1004 94.9669 55.0177 94.9807C54.5562 95.0574 54.6121 95.7419 55.0805 95.7419L55.0798 95.7426Z" fill="black"/>
<path d="M55.269 112.444C55.1287 111.763 54.9792 111.009 54.8244 110.193C54.7301 109.695 53.9773 109.837 54.0716 110.336C54.2272 111.157 54.3775 111.913 54.5185 112.598C54.5607 112.803 54.7608 112.94 54.9708 112.897C55.1785 112.854 55.3119 112.651 55.269 112.444Z" fill="black"/>
<path d="M53.4454 103.828C53.6562 103.811 53.8125 103.625 53.7957 103.414C53.7328 102.657 53.6891 101.891 53.6661 101.138C53.66 100.927 53.463 100.764 53.2714 100.767C53.0598 100.774 52.8934 100.951 52.8996 101.162C52.9233 101.928 52.9678 102.708 53.0322 103.478C53.0483 103.678 53.2192 103.844 53.4454 103.828Z" fill="black"/>
<path d="M59.6284 95.0495C59.7058 95.0495 59.6851 95.0373 61.9587 94.7253C62.1687 94.6962 62.3151 94.503 62.286 94.2937C62.2569 94.0845 62.0645 93.9357 61.8544 93.9664C61.0258 94.0799 60.2638 94.1879 59.5739 94.2876C59.1056 94.3543 59.1554 95.0495 59.6284 95.0495Z" fill="black"/>
<path d="M64.1858 94.4233C64.2624 94.4233 64.2946 94.4064 66.5153 94.1259C66.7253 94.0998 66.8741 93.9082 66.848 93.6974C66.8219 93.4881 66.6318 93.3378 66.4195 93.3647C65.6223 93.4651 64.8603 93.564 64.1359 93.659C63.6645 93.7203 63.7105 94.4233 64.1858 94.4233Z" fill="black"/>
<path d="M68.7489 93.8477L71.0761 93.5786C71.2862 93.5549 71.4379 93.3648 71.4142 93.1547C71.3904 92.9447 71.2034 92.7914 70.9903 92.8167C70.2743 92.8972 69.5131 92.9861 68.7037 93.0842C68.2284 93.1409 68.2706 93.8477 68.7489 93.8477Z" fill="black"/>
<path d="M54.4129 107.936C54.2542 107.019 54.1615 106.507 54.0465 105.679C54.0174 105.47 53.8257 105.324 53.6149 105.352C53.4049 105.381 53.2585 105.575 53.2876 105.784C53.4041 106.631 53.5023 107.173 53.6571 108.068C53.6939 108.28 53.8986 108.417 54.1009 108.379C54.3094 108.343 54.449 108.144 54.4129 107.936Z" fill="black"/>
<path d="M83.8343 100.031C84.0436 99.9984 84.1869 99.8029 84.1547 99.5937C84.0275 98.762 83.8933 98.0008 83.7592 97.3124C83.7185 97.1047 83.5169 96.969 83.31 97.0096C83.1022 97.0503 82.9666 97.2511 83.0072 97.4588C83.139 98.1372 83.2724 98.8884 83.3974 99.7094C83.4296 99.9195 83.6266 100.062 83.8343 100.031Z" fill="black"/>
<path d="M84.338 104.602C84.5488 104.585 84.7052 104.398 84.6868 104.188C84.6454 103.706 84.4906 102.154 84.4599 101.888C84.4017 101.382 83.6405 101.473 83.6987 101.975C83.7286 102.238 83.8819 103.775 83.9233 104.254C83.9417 104.47 84.1357 104.622 84.338 104.602Z" fill="black"/>
<path d="M85.041 111.105C85.0348 110.591 84.2683 110.612 84.2744 111.115C84.2836 111.836 84.2851 112.733 84.2652 113.399C84.2629 113.482 84.3127 113.788 84.6485 113.793C84.8547 113.796 85.0249 113.629 85.0318 113.422C85.0517 112.74 85.0509 111.836 85.041 111.105Z" fill="black"/>
<path d="M55.7489 114.686C55.6392 114.191 54.8896 114.359 55.0007 114.854C55.2889 116.143 55.4798 116.877 55.4798 116.877C55.5312 117.309 55.9121 117.507 56.1827 117.283C56.3452 117.146 56.3682 116.898 56.2318 116.735C56.2318 116.735 56.0432 116.001 55.7489 114.686Z" fill="black"/>
<path d="M84.6109 109.194C84.8225 109.187 84.9873 109.006 84.9781 108.795C84.9497 108.09 84.9114 107.32 84.8593 106.49C84.8455 106.278 84.6638 106.117 84.453 106.132C84.2414 106.145 84.0812 106.327 84.0942 106.538C84.1456 107.361 84.1847 108.127 84.2123 108.826C84.2161 108.913 84.2897 109.203 84.6109 109.193V109.194Z" fill="black"/>
<path d="M82.6715 114.016C82.3197 114.088 81.6052 114.225 80.4247 114.419C80.2162 114.453 80.0744 114.65 80.1089 114.859C80.1442 115.074 80.3496 115.211 80.5489 115.175C81.7455 114.978 82.4684 114.839 82.8248 114.766C83.0326 114.724 83.1659 114.522 83.1238 114.314C83.0816 114.106 82.8769 113.973 82.6715 114.016Z" fill="black"/>
<path d="M64.4846 116.423C63.6345 116.505 62.8748 116.575 62.2003 116.633C61.702 116.676 61.7526 117.431 62.2662 117.397C62.9431 117.339 63.7058 117.269 64.5597 117.185C65.0626 117.136 64.992 116.374 64.4846 116.423Z" fill="black"/>
<path d="M59.9151 116.812C58.3238 116.921 57.6446 116.928 57.6446 116.928C57.4331 116.929 57.2629 117.102 57.2644 117.314C57.2659 117.524 57.4377 117.695 57.6477 117.694C57.6753 117.694 58.3476 117.688 59.9673 117.577C60.4663 117.542 60.431 116.785 59.9151 116.812Z" fill="black"/>
<path d="M69.0508 115.937C68.2398 116.029 67.4802 116.112 66.768 116.189C66.558 116.211 66.4055 116.4 66.4277 116.61C66.4499 116.822 66.64 116.973 66.8493 116.951C67.5622 116.875 68.3241 116.791 69.1367 116.698C69.3467 116.674 69.4977 116.484 69.474 116.274C69.4502 116.064 69.2616 115.913 69.0501 115.937H69.0508Z" fill="black"/>
<path d="M78.1596 114.77C77.4858 114.869 76.7308 114.976 75.8877 115.09C75.388 115.159 75.4845 115.915 75.9912 115.85C76.8373 115.735 77.5955 115.628 78.2716 115.528C78.7737 115.454 78.6617 114.694 78.1596 114.77Z" fill="black"/>
<path d="M73.6111 115.389C72.8997 115.479 72.1416 115.573 71.3321 115.67C71.1221 115.695 70.9719 115.886 70.9972 116.096C71.0225 116.306 71.2133 116.456 71.4234 116.431C72.2344 116.334 72.9948 116.239 73.7077 116.15C74.2113 116.085 74.1147 115.325 73.6111 115.389V115.389Z" fill="black"/>
<path d="M74.6468 103.257L70.5526 103.758L69.9976 99.2197C69.8129 97.7096 67.5309 97.9894 67.7148 99.4987L68.2698 104.037L64.1757 104.537C62.6663 104.722 62.9461 107.01 64.4547 106.82L68.5488 106.319L69.1038 110.857C69.2909 112.388 71.5706 112.085 71.3866 110.578L70.8316 106.04L74.9258 105.54C76.4366 105.355 76.1576 103.075 74.6468 103.257Z" fill="black"/>
<path d="M82.6762 92.9792L82.0806 93.6392C82.194 94.0133 82.3466 94.5484 82.516 95.2329C82.5673 95.4399 82.7781 95.5641 82.9805 95.5127C83.1859 95.4613 83.3109 95.2544 83.2603 95.0482C83.0058 94.0225 82.7873 93.3181 82.6762 92.9792Z" fill="black"/>
</svg>
