<svg width="154" height="154" viewBox="0 0 154 154" fill="none" xmlns="http://www.w3.org/2000/svg">
<path d="M3.87113 132.527C11.0261 126.316 17.8859 119.759 24.8746 113.363C31.8632 106.966 55.9114 85.477 57.8232 83.5775C58.1773 83.2256 57.6607 82.7511 57.2897 83.044C52.938 86.4727 17.8246 118.869 15.2475 121.29C11.3641 124.94 7.50304 128.623 3.79447 132.45C3.74541 132.501 3.819 132.572 3.87036 132.526L3.87113 132.527Z" fill="black"/>
<path d="M19.8637 133.879C32.5333 123.939 61.318 100.028 76.4305 87.4738C78.7286 85.5651 81.1148 83.7185 83.2244 81.5982C83.541 81.2801 83.1232 80.6914 82.7307 80.9589C80.5369 82.4552 78.5247 84.2152 76.4842 85.9101C74.4229 87.6226 24.1679 129.729 19.669 133.685C19.5334 133.804 19.7281 133.986 19.8637 133.879Z" fill="black"/>
<path d="M42.6718 128.087C45.925 125.708 89.1583 91.3885 94.3402 86.5884C94.6047 86.3431 94.2521 85.8663 93.9485 86.0801C88.0752 90.2272 39.243 130.594 42.6718 128.087Z" fill="black"/>
<path d="M28.1012 145.069C30.141 143.637 32.0566 142.014 34.0067 140.463C36.0028 138.876 87.4329 99.593 89.5692 97.7364C89.8636 97.4804 89.4834 97.0013 89.1553 97.2006C80.4182 102.504 35.0492 138.232 28.036 144.985C27.9931 145.026 28.0506 145.105 28.1012 145.069Z" fill="black"/>
<path d="M147.641 14.7903C147.931 14.4921 147.601 14.0076 147.217 14.1694C146.199 14.5979 145.306 15.3077 144.646 16.1923C142.376 13.5745 139.1 13.7286 135.944 14.9758C136.4 14.3756 136.808 13.77 136.95 13.051C137.193 11.813 136.531 10.4332 135.339 9.69577C134.365 9.09173 133.07 8.89243 131.691 9.13006C125.111 10.2714 119.473 16.9826 116.056 22.7202C116.216 22.954 116.373 23.1909 116.526 23.4285C119.839 17.7852 125.397 10.9997 131.822 9.88587C134.782 9.37229 136.529 11.2166 136.197 12.903C136.079 13.5063 135.697 14.039 135.248 14.6239C133.185 17.3068 130.422 20.7809 127.343 23.8639C124.709 26.5016 122.397 29.4973 120.469 32.7475C120.55 33.1307 120.622 33.5155 120.685 33.9019C121.187 33.0173 121.717 32.1511 122.274 31.3063C122.088 33.1422 122.085 35.0762 122.613 36.8508C122.629 36.9045 122.708 36.8937 122.709 36.8378C122.81 33.9188 122.732 32.5229 123.398 29.679C124.753 27.807 126.245 26.0509 127.856 24.4335C127.716 25.1333 127.628 25.847 127.598 26.579C127.575 27.1378 127.564 28.6993 127.87 29.1976C127.903 29.2535 128.002 29.265 128.032 29.1976C128.336 28.5414 128.12 26.2762 129.191 23.0552C131.355 20.7533 133.324 18.3394 134.953 16.2536C135.359 16.0535 135.761 15.8703 136.151 15.7124C134.379 18.0136 132.737 20.9303 133.12 23.8087C133.131 23.8854 133.252 23.9222 133.27 23.8287C134.387 18.1822 137.048 16.0482 137.483 15.2471C140.072 14.4997 142.538 14.7772 144.209 16.8645C144.118 17.0255 144.036 17.1903 143.96 17.359C143.714 17.9117 144.519 18.4881 145.091 18.3946C145.584 19.6701 145.566 21.0077 145.031 22.1001C144.309 23.5765 142.827 24.5967 141.49 25.5848C134.818 30.5153 129.313 36.896 125.36 44.074C125.615 44.1269 125.867 44.1806 126.119 44.2342C129.788 37.6771 135.183 31.1937 141.946 26.2011C143.246 25.2414 144.581 24.3047 145.421 22.9709C145.759 23.2522 146.065 23.5795 146.328 23.9574C149.004 27.8009 143.524 30.224 139.298 33.2112C134.878 36.3349 131.34 40.6046 129.296 44.941C129.548 44.9992 129.798 45.0575 130.046 45.1165C135.641 33.2955 146.739 31.5057 147.735 26.7262C148.073 25.1027 147.171 23.3703 145.791 22.2856C146.33 21.076 146.353 19.6425 145.862 18.2712L147.723 17.973C148.305 17.8787 148.577 17.5997 148.51 17.0133C148.494 16.8791 148.485 16.8898 148.588 16.7312C149.326 15.5706 147.9 15.2372 147.641 14.7918L147.641 14.7903ZM148.027 16.1586C148.022 16.1915 147.979 16.259 147.941 16.3188C147.746 16.6231 147.712 16.7741 147.748 17.0999C147.752 17.1305 147.756 17.1727 147.771 17.175C147.684 17.2133 147.522 17.2287 144.953 17.6395C144.897 17.6357 144.792 17.5874 144.722 17.5383C145.204 16.5326 146.005 15.6848 146.977 15.1398C147.104 15.4089 147.341 15.6243 147.542 15.7439C147.68 15.8259 148.045 16.0443 148.027 16.1586Z" fill="black"/>
<path d="M50.6973 41.6125L48.3279 43.604C48.1784 43.7297 48.1477 43.9474 48.2551 44.1099C48.577 44.5936 48.9074 45.0719 49.2462 45.5449C45.9884 43.87 42.798 42.0464 39.7149 40.0932C39.6229 40.0349 39.511 40.0181 39.4068 40.048C39.1776 40.1116 39.2734 40.0242 37.7595 43.0774C37.3754 43.8508 37.5004 44.3514 38.3328 44.7983C43.9539 47.8108 49.5551 50.0913 52.3875 51.1369C52.4534 50.8808 52.5201 50.6248 52.5884 50.3696C47.8258 48.6134 43.1606 46.5161 38.6939 44.1229C38.5827 44.0632 38.3512 43.9397 38.3206 43.8217C38.2853 43.686 38.3451 43.6201 39.6636 40.9686C43.9938 43.6898 48.5287 46.1589 53.1671 48.3213C53.2407 48.0737 53.3158 47.8269 53.3917 47.5801C52.5132 47.17 51.6386 46.7484 50.7686 46.316C50.1837 45.5495 49.621 44.7676 49.0829 43.9712L50.8031 42.5262C51.5696 44.1835 52.4657 45.7779 53.4806 47.2949C53.5657 47.0197 53.6746 46.7001 53.8539 46.4686C52.8796 44.9669 52.0226 43.3894 51.2937 41.752C51.1871 41.5136 50.8866 41.4553 50.6965 41.6148L50.6973 41.6125Z" fill="black"/>
<path d="M57.0839 37.7616C57.0326 36.8072 56.5772 36.4002 55.6819 36.6347L52.9438 37.3476C52.756 37.3967 52.6341 37.5783 52.6609 37.7715C53.0534 40.5963 53.6751 43.3873 54.5167 46.1108C54.7398 46.0909 55.0119 46.1238 55.3507 46.2097C54.5037 43.5314 53.8728 40.7848 53.4673 38.0038C56.0123 37.3415 56.1112 37.2963 56.1978 37.3392C56.4799 37.4795 56.2162 40.896 57.576 46.816L58.4185 47.0429C57.7002 43.9974 57.2518 40.8852 57.0832 37.7623L57.0839 37.7616Z" fill="black"/>
<path d="M40.5572 47.9828C40.1064 48.9671 39.8029 50.0035 39.6503 51.0713C35.1898 52.2234 30.9745 53.5158 26.7953 55.0106C26.2587 55.2037 26.0264 55.4467 25.9973 56.0914C25.9498 57.1209 26.0441 58.1511 26.2779 59.1545C26.3185 59.327 26.4718 59.4504 26.6512 59.4504C26.8842 59.4504 31.7894 57.935 36.8831 56.1788C37.425 56.3451 38.0398 56.4049 39.9976 56.6587L31.7679 61.7501C31.5885 61.8628 31.111 62.1625 31.1493 62.6791C31.1769 63.0371 31.4306 63.2418 31.6161 63.392C31.8285 63.563 31.8346 63.5729 31.8997 63.8382C31.945 64.0198 32.0002 64.2467 32.1696 64.4368C32.3512 64.6423 32.5904 64.7442 32.8694 64.7442C33.383 64.7442 33.3087 64.8094 38.0781 61.6359C38.0674 61.9425 38.0919 62.2322 38.1563 62.4913C36.4124 64.7182 34.677 66.9603 32.989 69.1734C32.8595 69.3428 32.8932 69.5888 33.0687 69.7161C34.6754 70.8828 34.654 70.9104 34.8364 70.9104C34.9429 70.9104 35.048 70.8659 35.1231 70.7816C37.215 68.4237 39.2931 66.0037 41.3237 63.563L46.2036 63.172L39.6879 67.7368C39.1958 68.0818 39.1659 68.5256 39.6074 68.9641C39.6373 68.994 39.6664 69.0223 39.6948 69.0515C39.0746 69.3972 38.4576 69.746 37.8451 70.1009C36.9574 70.6152 37.2641 71.0085 37.9747 73.6462C38.0199 73.814 38.1724 73.9298 38.3441 73.9298C38.6952 73.9298 44.754 71.0223 50.487 67.8587L49.985 67.7399C49.9911 67.5797 49.998 67.4187 50.0041 67.2577C46.2818 69.3221 42.459 71.2499 38.5963 73.0107C38.2506 71.7267 38.0137 70.9701 38.0605 70.8843C38.1372 70.744 43.9821 67.441 50.1559 64.6745C50.1774 64.3839 50.2011 64.0934 50.2257 63.8037C46.8919 65.2785 43.5981 66.9074 40.3939 68.6651L40.1064 68.3792L47.7121 63.0509L50.3161 62.8409C50.3414 62.5826 50.3682 62.3242 50.3966 62.0667C39.52 62.9536 39.612 62.9888 39.3008 62.8509C38.5365 62.512 38.9229 60.7022 39.0471 60.6056C39.1981 60.4876 44.7663 59.5685 50.7477 59.3117C50.7852 59.0534 50.8251 58.795 50.865 58.5375C47.7052 58.6586 44.5394 58.9545 41.4096 59.4205L44.6751 57.2543C47.2154 57.5716 49.6653 57.869 50.9493 58.0124C50.9907 57.7564 51.0344 57.5003 51.0781 57.2451C46.8421 56.766 42.5663 56.2363 38.351 55.669C39.2931 55.3379 40.2268 55.0021 41.1236 54.671C41.5077 54.5299 41.7307 54.3437 41.8112 54.0447C49.9206 54.9631 47.312 54.5292 51.3693 55.6575C51.4176 55.4061 51.4682 55.1547 51.5196 54.904C48.1429 53.9642 44.7724 52.9217 41.4571 51.7911C41.362 51.5074 41.2524 51.2468 41.1267 51.0023C41.0455 50.8436 40.8653 50.7631 40.6928 50.806L40.459 50.8651C40.594 50.0893 40.8147 49.3335 41.1206 48.6061L52.198 51.893C52.2593 51.6447 52.3214 51.3963 52.385 51.1487L41.0148 47.7751C40.8323 47.7222 40.6369 47.8096 40.5572 47.9828ZM40.2536 63.6458C38.456 65.7959 36.624 67.9277 34.7789 70.0112L33.836 69.3259C35.3768 67.3091 36.9544 65.2693 38.5419 63.241C39.0547 63.7876 39.7569 63.6841 40.2536 63.6458ZM39.5637 59.7157C38.8301 59.8406 38.4246 59.8544 38.2253 60.601L33.5225 63.7125C33.1684 63.9478 32.8395 64.0382 32.7422 63.9271C32.6985 63.8788 32.6724 63.7692 32.6441 63.655C32.6042 63.4947 32.5597 63.3123 32.4432 63.1414C32.2478 62.8547 31.9534 62.7282 31.9135 62.6263C31.9411 62.5159 31.8944 62.5703 41.2034 56.815L43.5061 57.1079L39.5637 59.7157ZM41.0692 53.847C40.9757 53.9911 33.2803 56.6978 26.9394 58.5819C26.7455 57.5724 26.6933 56.0025 26.8129 55.8507C26.9478 55.6821 33.8023 53.3418 40.574 51.6263C40.8983 52.3752 41.1382 53.7435 41.0692 53.847Z" fill="black"/>
<path d="M32.7693 66.8059C32.5141 66.5437 32.2458 66.2946 31.9775 66.0447C31.1442 65.2697 31.1657 65.1892 30.9227 65.1892C30.8154 65.1923 30.715 65.2398 30.6444 65.3211C27.2709 69.196 24.0322 73.1836 21.0189 77.1743C20.884 77.3537 20.9315 77.6112 21.1216 77.73C23.7087 79.3482 23.5638 79.2869 23.721 79.2869C23.8382 79.2869 23.954 79.2325 24.0283 79.1321L32.8023 67.3003C32.9142 67.1493 32.8996 66.94 32.7693 66.8059ZM23.6236 78.3916L21.8835 77.3031C24.7336 73.5438 27.7814 69.79 30.9534 66.1336C31.3129 66.4816 31.6509 66.7806 31.9897 67.1102L23.6236 78.3916Z" fill="black"/>
<path d="M34.0143 73.6351C33.3596 73.4389 32.6659 73.3975 32.1991 73.3975C32.0473 73.3975 31.9093 73.4872 31.848 73.6267C31.1029 75.323 28.0566 82.1324 27.3116 83.8303C27.0325 84.4635 27.2472 84.9004 27.8957 85.0345C29.4157 85.3504 30.1079 85.7375 30.7319 84.3155C32.1209 81.1497 33.3865 77.8826 34.4941 74.6055C34.6643 74.0989 34.4773 73.7738 34.015 73.6343L34.0143 73.6351ZM30.029 84.0081C29.7546 84.6329 29.6365 84.6137 29.2103 84.5255C28.1241 84.3009 28.0191 84.2787 27.9647 84.2642C28.0061 84.1162 31.8649 75.4909 32.4474 74.1686C32.9104 74.1847 33.3566 74.2491 33.7651 74.3648C32.6651 77.6189 31.4088 80.8637 30.029 84.0081Z" fill="black"/>
<path d="M20.0421 85.8372C19.5254 85.4585 18.1878 86.9234 5.64707 90.4495C5.4677 90.5001 5.35118 90.6718 5.36958 90.8565L5.50219 92.188C5.55739 92.7384 5.80958 93.0857 6.36303 93.0857C8.37597 93.0857 17.1729 90.1728 19.0992 89.5013C20.2652 89.0942 20.003 88.6259 20.1977 86.1775C20.2084 86.0449 20.1502 85.9169 20.0429 85.8379L20.0421 85.8372ZM18.8463 88.7761C17.0326 89.4085 8.11764 92.3398 6.30707 92.3229C6.25341 92.2463 6.19669 91.4245 6.16373 91.0995C11.2781 89.653 15.5072 88.2556 19.3898 86.7264C19.2648 88.7171 19.379 88.5906 18.8463 88.7761Z" fill="black"/>
<path d="M65.4369 71.2673C60.4298 69.9005 55.3974 68.6196 50.3788 67.4369C50.651 60.6176 51.8245 53.8597 53.8651 47.3448C54.1311 46.497 54.3327 46.3245 55.3714 46.6105C56.5473 46.9347 59.073 47.6039 62.14 48.4103C61.4133 46.5668 60.9105 44.7117 60.6475 42.9065C58.5955 43.7512 56.5825 44.6887 54.6186 45.7167C53.7578 45.7335 53.3883 46.3046 53.1338 47.1156C51.0404 53.7961 49.8522 60.7295 49.6008 67.7243C49.5778 68.382 49.7357 67.7849 64.9931 71.9411C65.1342 71.7127 65.2821 71.4881 65.4369 71.2673Z" fill="black"/>
<path d="M78.5822 52.3879C78.5684 52.1794 78.5753 51.9648 78.5899 51.7479C77.5351 50.5053 76.4528 49.288 75.3306 48.1098C71.8129 47.1401 70.9375 46.9745 70.0828 46.3161C69.3913 45.7833 68.9077 44.8834 69.1223 44.0379C69.2311 43.6086 69.4895 43.2644 69.8076 42.9532C69.0472 42.3017 66.8663 40.4673 65.2734 38.8384C66.7383 46.1881 71.4733 53.6152 78.2495 58.3609C79.2989 57.4364 80.3598 56.525 81.4322 55.6289C79.9566 55.1153 78.6819 53.9141 78.5822 52.3879Z" fill="black"/>
<path d="M73.3742 62.8431C73.5681 62.6568 73.7621 62.4713 73.9575 62.2866C68.305 58.6171 63.5792 52.9063 61.6077 45.5413C60.2348 40.4123 60.4295 34.8663 64.112 31.0405C64.4692 31.2957 64.844 31.5188 65.2081 31.7265C64.798 32.2723 64.4033 32.8288 64.0253 33.3968C62.5306 35.6444 62.8671 36.7313 64.0223 38.0437C65.6152 39.852 67.4603 41.4464 69.2563 42.9856C68.2207 44.2343 68.7189 45.7498 69.8488 46.6206C70.7902 47.3465 71.7974 47.5343 75.1265 48.4519C76.1905 49.5718 77.213 50.7209 78.1988 51.8776C78.1903 52.0562 78.188 52.2363 78.1988 52.4142C78.3099 54.1129 79.6997 55.3616 81.091 55.9142C81.3194 55.7218 81.5486 55.531 81.7778 55.3393C80.3934 54.9438 79.0581 53.8154 78.963 52.3636C78.8963 51.328 79.3969 49.9758 78.5813 49.0099C78.0217 48.3484 77.5717 48.3315 72.5808 46.9556C71.7821 46.7356 70.9565 46.5079 70.3149 46.0135C69.7737 45.5965 69.3092 44.8529 69.4924 44.1331C69.7116 43.2708 70.7587 42.7426 71.503 41.9937C73.7636 42.8653 76.9999 43.5184 79.1961 43.9645C79.7127 44.0695 79.1685 43.8028 80.7974 45.7046C82.2715 47.4239 84.6156 49.5174 86.847 51.2996C87.0593 51.1371 87.2724 50.9754 87.4855 50.8136C82.3857 46.7601 79.3494 43.7154 76.5784 37.3078C69.5821 21.1382 78.8243 8.77296 92.2926 8.77296C95.5956 8.77296 98.9876 9.53415 102.099 11.081C113.804 16.8984 123.552 30.4035 119.691 42.9726C119.944 43.0178 120.197 43.0638 120.45 43.1098C124.362 30.0279 114.276 16.2767 102.441 10.3942C95.4393 6.91333 86.5089 7.1065 80.3214 11.8875C77.1026 11.1454 71.3114 10.7606 70.7649 14.0185C70.6575 14.6547 70.8507 15.4649 70.6667 15.964C70.121 17.4472 67.1214 16.8808 65.3384 18.7243C64.496 19.5951 64.1005 21.1328 64.8977 22.1998C65.4021 22.8752 66.2844 23.2347 66.384 23.8433C66.4737 24.3845 65.8689 24.9027 65.2258 25.1357C64.4753 25.4079 63.5555 25.5282 62.8978 26.1736C61.9181 27.1357 61.8828 29.0835 63.5118 30.5621C56.1889 38.269 61.0281 54.6058 73.3734 62.8446L73.3742 62.8431ZM76.7515 48.8996C77.9205 49.2223 78.3536 49.5082 78.2831 50.7983C76.3177 48.5278 76.3821 48.7976 76.7515 48.8996ZM69.799 42.4414C68.7481 41.5407 64.2645 37.7409 63.8682 36.4148C63.6137 35.5662 64.1281 34.6272 64.6639 33.8215C65.0518 33.2382 65.458 32.6663 65.8804 32.1067L67.1115 32.8005C66.7029 33.5279 66.5695 34.3382 66.7719 35.071C67.0594 36.112 67.9056 36.7819 68.7833 37.3361C68.0482 38.6561 68.5741 40.5787 70.7411 41.6603C70.4575 41.9117 70.1118 42.17 69.799 42.4414ZM67.7837 33.1791C69.7936 34.3121 70.0351 34.4141 70.1915 34.6379C70.5763 35.1906 69.881 35.836 69.2126 36.7014C68.433 36.2108 67.7301 35.662 67.5108 34.8671C67.3522 34.2914 67.4948 33.6935 67.7837 33.1799V33.1791ZM63.4228 29.3042C62.9085 28.5446 62.7728 27.3695 63.4366 26.7187C63.928 26.2357 64.7298 26.1284 65.4879 25.8548C66.4308 25.5144 67.3077 24.721 67.1421 23.7169C66.9812 22.7395 65.9655 22.3447 65.5132 21.7399C64.9682 21.0102 65.2856 19.8826 65.8911 19.2563C67.5262 17.5653 70.6445 18.2491 71.3881 16.2277C71.6648 15.4764 71.4149 14.7812 71.523 14.1449C71.9438 11.636 77.0421 12.0078 79.5663 12.5068C70.6729 20.1838 72.4321 33.5187 78.8411 43.1083C76.7086 42.6744 71.5506 41.6649 70.0688 40.2912C69.4464 39.7148 69.0041 38.7037 69.3644 37.8881C69.9193 36.6286 72.5325 34.9759 70.0251 33.5609C65.2971 30.8925 64.1633 30.3973 63.4244 29.3035L63.4228 29.3042Z" fill="black"/>
<path d="M92.8723 22.9273C93.2586 22.5924 91.2227 21.6227 90.5335 21.8089C89.6972 22.1608 89.7716 23.3014 90.7466 23.385C91.8965 23.4846 92.7956 22.994 92.8723 22.9273Z" fill="black"/>
<path d="M98.787 16.0452C98.5992 15.6895 98.0511 15.5308 97.6625 15.8305C97.4816 15.9708 97.3482 16.1931 97.3612 16.4315C97.398 17.0892 97.8104 18.0321 97.858 18.1233C97.9407 18.2797 98.1584 18.2574 98.2458 18.1233C98.4543 17.8059 98.9932 16.7113 98.8637 16.2284L98.787 16.0452Z" fill="black"/>
<path d="M107.835 20.0794C106.741 20.6681 106.959 21.0038 106.6 21.4523C106.528 21.5412 106.562 21.7213 106.705 21.7075C107.542 21.6294 107.357 22.077 108.608 21.4032C108.774 21.3135 108.911 21.1242 108.96 20.9448C109.139 20.294 108.445 19.7498 107.834 20.0794H107.835Z" fill="black"/>
<path d="M101.167 27.0051C100.914 26.8097 100.735 27.0634 99.4503 28.2124C99.2111 28.4255 99.1283 28.9376 99.52 29.2404C99.8328 29.4819 100.311 29.4213 100.532 29.0472C101.252 27.3823 101.4 27.1853 101.167 27.0051Z" fill="black"/>
<path d="M105.255 35.3582C105.068 35.2608 104.877 35.3513 104.807 35.5406C104.723 35.7629 104.831 37.0369 104.876 37.2699C105.052 38.2189 106.461 38.3454 106.504 37.1665C106.522 36.6621 105.333 35.398 105.256 35.3582H105.255Z" fill="black"/>
<path d="M113.89 29.2007C112.899 29.1279 112.446 29.6752 112.131 29.7481C111.92 29.7979 111.92 30.1252 112.131 30.175C112.144 30.1781 112.732 30.5031 113.217 30.684C113.368 30.7407 113.61 30.7369 113.871 30.7239C114.898 30.671 114.946 29.2766 113.89 29.2007Z" fill="black"/>
<path d="M92.1701 35.9373C92.0222 35.8721 91.8605 35.8606 91.6979 35.8529C91.5224 35.8445 91.3538 35.8959 91.215 36.0032C90.5182 36.5444 91.0954 37.3002 91.6979 37.2711C92.1494 37.2496 93.5269 36.6939 93.6036 36.6502C93.924 36.4685 92.5235 36.0415 92.1701 35.9373Z" fill="black"/>
<path d="M134.391 69.9829C132.146 72.0419 126.623 76.8103 121.182 81.4311C120.077 78.3296 115.774 76.9299 113.092 79.8466C113.452 79.816 113.82 79.8344 114.175 79.9011C116.675 77.8429 120.069 79.6121 120.601 82.1869C120.66 82.4705 121.002 82.5909 121.224 82.4016C124.753 79.4066 132.068 73.1702 134.929 70.5126C134.736 70.3555 134.556 70.1776 134.391 69.9829Z" fill="black"/>
<path d="M114.851 79.6857C112.645 78.9145 110.115 79.9256 108.948 83.0501L83.6537 78.3856C83.7825 76.1681 82.9515 74.4932 81.2674 73.5028L79.8899 74.6266C80.4871 75.4821 80.8029 76.6802 80.668 78.1848C80.2947 82.3632 75.9093 85.0201 73.405 82.1203C72.5564 81.1375 72.1946 79.7539 72.4131 78.3235C72.9037 75.1072 74.6177 73.095 76.8866 73.0889C77.7834 73.0866 78.6174 73.3802 79.2751 73.9444C79.0881 73.3917 78.7846 72.9111 78.5354 72.5761C77.6746 72.3791 77.4776 72.3132 76.882 72.3224C74.2091 72.3369 72.2061 74.5921 71.6549 78.2085C71.4028 79.8605 71.8297 81.4687 72.8247 82.6216C74.0497 84.0397 76.4336 84.4912 78.3062 84.4912C80.3529 84.4912 82.2816 82.8722 83.1623 80.6331L108.412 85.2899C108.144 87.8502 109.64 90.2005 111.939 90.5653C112.615 90.806 113.502 90.9402 114.628 90.977C116.99 91.0651 119.507 88.6957 119.799 85.434C120.073 82.3686 118.544 80.279 114.849 79.6865L114.851 79.6857ZM116.957 85.0017C116.606 88.9303 112.488 91.4254 110.138 88.7049C109.399 87.8494 109.053 86.669 109.171 85.4294L109.969 85.5766C110.075 87.1235 111.217 88.2687 112.573 88.2687C115.363 88.2687 116.805 84.1508 115.013 82.2023C113.811 80.8938 111.456 81.0149 110.421 83.3214L109.717 83.1919C110.458 81.323 111.781 80.2192 113.407 80.2146C115.518 80.2092 117.229 81.9447 116.956 85.0017H116.957ZM112.151 85.9791C112.774 86.0948 113.375 85.6816 113.49 85.0569C113.605 84.4329 113.193 83.8327 112.568 83.7177L111.206 83.4663C112.029 81.8742 113.617 81.8144 114.45 82.7212C115.807 84.1976 114.668 87.4915 112.582 87.5022C111.736 87.5191 110.911 86.8062 110.754 85.7215L112.15 85.9791H112.151Z" fill="black"/>
<path d="M73.3041 77.9656C72.9937 80.0023 74.3581 81.6213 76.0031 81.6213C78.9366 81.6213 80.4589 77.2849 78.5724 75.233C77.0876 73.6186 73.8982 74.0732 73.3041 77.9656ZM78.6146 77.961C78.4835 79.432 77.3521 80.8539 76.0039 80.8539C74.8525 80.8539 73.8177 79.6796 74.0622 78.0806C74.2884 76.5967 75.0825 75.1295 76.5558 75.1295C77.7484 75.1295 78.7802 76.1084 78.6146 77.961Z" fill="black"/>
<path d="M140.293 60.6517C138.851 60.3428 138.763 60.2677 138.074 60.2692C136.083 60.2745 134.475 61.567 133.591 63.7516L108.254 58.7016C108.527 55.5012 106.902 53.3587 103.672 52.6673C102.18 52.3461 102.045 52.2557 101.327 52.2626C98.5884 52.2771 96.5356 54.5898 95.9699 58.2976C95.7123 59.9902 96.1485 61.639 97.1688 62.8203C98.4282 64.2775 100.883 64.7366 102.79 64.7366C104.84 64.7366 106.774 63.1514 107.703 60.9361L132.998 65.9593C132.742 67.3989 133.1 69.0776 134.131 70.2711C135.331 71.6609 137.496 72.0265 139.331 72.0856C141.757 72.1752 144.331 69.7407 144.629 66.4031C144.902 63.3522 143.362 61.3094 140.29 60.6509L140.293 60.6517ZM105.226 58.2723C104.841 62.5734 100.326 65.3024 97.7514 62.3197C96.8775 61.3086 96.5057 59.8844 96.7296 58.4134C97.2339 55.1049 98.9978 53.036 101.333 53.0299C103.625 53.0238 105.529 54.898 105.226 58.2723ZM141.733 65.9616C141.37 70.0197 137.127 72.5654 134.714 69.7698C133.895 68.8224 133.545 67.4886 133.753 66.1088L134.55 66.2674C134.53 68.0014 135.764 69.3053 137.221 69.3053C140.079 69.3053 141.553 65.087 139.72 63.0939C138.519 61.7877 136.209 61.8751 135.11 64.0544L134.359 63.9049C135.134 62.1005 136.461 61.0403 138.079 61.0357C140.24 61.0296 142.015 62.7996 141.732 65.9616H141.733ZM137.531 66.8584C138.067 66.8584 138.548 66.4798 138.657 65.9325C138.781 65.31 138.376 64.7044 137.754 64.5803L135.9 64.2108C137.081 62.161 140.006 62.7911 139.741 65.7439C139.606 67.2517 138.456 68.5548 137.23 68.538C136.087 68.5219 135.37 67.5368 135.321 66.4192L137.531 66.8584Z" fill="black"/>
<path d="M103.055 55.2479C101.515 53.5738 98.2649 54.1012 97.6632 58.0489C97.3443 60.1439 98.7471 61.7904 100.425 61.7904C103.423 61.7904 104.989 57.3521 103.055 55.2479ZM103.116 58.0435C102.896 60.5118 100.388 61.9621 98.987 60.3394C98.5026 59.7782 98.2964 58.9856 98.4221 58.1639C99.0859 53.8037 103.441 54.4224 103.116 58.0435Z" fill="black"/>
<path d="M149.836 58.8042C148.431 55.0581 145.599 50.0878 142.242 48.4098C137.097 45.8372 115.385 41.0386 103.982 40.7266C102.446 40.6845 101.98 40.5979 100.233 41.6649C88.3005 48.9579 77.3726 57.8023 67.7524 67.9522C62.8841 73.0881 61.7097 76.0983 64.8671 85.5337C64.9308 85.7238 65.3608 86.0343 65.6437 85.8304C78.3009 88.4535 107.268 92.4909 107.697 92.4909C107.787 92.4909 107.874 92.4595 107.943 92.4012C108.37 92.0433 109.736 90.8934 110.94 89.8318C110.707 89.7091 110.487 89.5596 110.284 89.3872C109.473 90.0985 108.514 90.9203 107.582 91.7044C105.257 91.3886 79.3449 87.8318 66.3841 85.1995C70.1318 82.0567 71.3368 81.1943 71.1061 80.7014C70.9214 80.3051 70.6607 79.396 70.5902 78.7728C70.2361 75.6706 71.3384 73.1004 73.6158 71.7198C74.6368 71.1012 75.6977 71.0261 76.6865 71.5013C77.9436 72.1069 78.9555 73.5641 79.1471 75.0466C79.1862 75.3502 79.5457 75.4843 79.7749 75.2896C84.388 71.3756 95.1481 62.1977 95.4325 61.5186C95.8319 60.5627 93.1535 55.5203 97.8831 51.7719C99.3542 50.6059 100.706 50.7225 101.58 51.026C102.984 51.512 104.2 52.8381 104.536 54.2509C104.6 54.5192 104.92 54.6365 105.142 54.4655L109.376 51.2069C118.979 51.5948 142.274 57.0442 148.668 59.0748L145.293 61.6726C144.768 60.3105 143.552 59.1024 142.174 58.6248C139.905 57.8391 137.819 59.1277 136.393 61.0372C136.809 60.8363 137.256 60.7114 137.731 60.6692C138.924 59.4933 140.293 58.7835 141.923 59.3492C143.251 59.8091 144.4 61.0632 144.719 62.3993C144.782 62.6668 145.102 62.7857 145.326 62.6147C149.794 59.1752 149.545 59.3791 149.598 59.3025C149.79 59.2373 149.917 59.0188 149.835 58.8034L149.836 58.8042ZM105.113 53.5227C104.568 52.0846 103.287 50.8052 101.832 50.3016C100.34 49.7842 98.7677 50.0939 97.4086 51.1709C93.4057 54.3436 94.2075 58.4355 94.5924 60.4017C94.6606 60.7482 94.7372 61.1406 94.7441 61.1882C94.3425 61.7838 86.9951 68.1538 79.7772 74.2839C79.3802 72.7876 78.3292 71.4415 77.02 70.8114C72.9504 68.8514 67.9908 74.8481 70.3196 80.8072C69.6428 81.5553 66.782 83.8504 65.4842 84.9573C62.5529 76.1167 63.6874 73.3571 68.3097 68.4788C77.8839 58.378 88.7589 49.5765 100.634 42.3188C102.675 41.0724 103.51 41.218 104.823 42.7074C106.81 44.9603 108.214 47.69 108.892 50.6144L105.114 53.5227H105.113ZM109.639 50.4496C108.934 47.3987 107.47 44.551 105.398 42.2007C105.192 41.9677 104.967 41.7285 104.719 41.5124C116.737 41.9769 137.386 46.8384 141.899 49.0951C144.843 50.5669 147.393 54.8235 148.824 58.3228C142.817 56.4632 119.697 50.9179 109.639 50.4496Z" fill="black"/>
</svg>
