<svg width="154" height="155" viewBox="0 0 154 155" fill="none" xmlns="http://www.w3.org/2000/svg">
<path d="M130.754 50.582C130.371 52.115 128.048 51.3485 127.198 51.0649C127.125 51.0375 127.045 51.0398 126.975 51.0715C126.904 51.1031 126.849 51.1614 126.822 51.2335C126.822 51.3178 126.584 52.1303 126.278 53.3108C126.259 53.3774 126.263 53.4485 126.289 53.5125C126.316 53.5765 126.363 53.6297 126.423 53.6634C127.432 54.1876 128.545 54.4809 129.681 54.5219C129.75 54.5261 129.815 54.5533 129.867 54.5992C129.918 54.6451 129.953 54.707 129.965 54.7749L130.126 55.6411C130.131 55.6805 130.145 55.7185 130.165 55.7527C130.186 55.7868 130.213 55.8166 130.245 55.8402C130.277 55.8637 130.314 55.8806 130.352 55.8899C130.391 55.8991 130.431 55.9005 130.471 55.894L132.77 55.5644C132.812 55.5574 132.851 55.5417 132.886 55.5185C132.921 55.4953 132.95 55.4649 132.973 55.4295C132.995 55.3941 133.01 55.3544 133.016 55.3129C133.022 55.2714 133.019 55.2292 133.008 55.1888C132.931 54.8899 132.816 54.4223 132.717 54.0007C132.702 53.9447 132.704 53.8856 132.724 53.831C132.743 53.7764 132.778 53.7287 132.824 53.6941C133.432 53.2143 133.868 52.5498 134.066 51.8007C135.009 48.2287 131 45.9214 131 45.9214C128.531 44.4804 126.262 43.6985 126.745 42.2958C127.32 40.6171 129.811 41.9738 130.578 42.4797C130.644 42.5191 130.722 42.5323 130.798 42.5167C130.873 42.5011 130.939 42.4578 130.984 42.3954L132.149 40.5021C132.188 40.4341 132.201 40.3539 132.184 40.2773C132.167 40.2007 132.122 40.1332 132.057 40.0881C129.888 38.6087 128.792 39.061 128.708 38.5551L128.516 37.2826C128.505 37.2024 128.462 37.13 128.397 37.0812C128.333 37.0324 128.251 37.0111 128.171 37.022L125.925 37.367C125.885 37.3732 125.847 37.3877 125.812 37.4097C125.778 37.4316 125.749 37.4605 125.727 37.4944C125.704 37.5284 125.689 37.5666 125.682 37.6067C125.676 37.6468 125.677 37.6879 125.688 37.7272C125.963 38.854 126.078 39.0533 125.803 39.1913C125.237 39.4753 124.751 39.8948 124.387 40.4124C124.023 40.93 123.793 41.5296 123.718 42.1578C123.242 47.7151 131.62 47.1939 130.754 50.582ZM36.1874 60.6312C35.9268 62.3482 33.0293 62.1642 32.0251 62.0569C31.9282 62.0479 31.8314 62.0762 31.7545 62.136C31.6776 62.1958 31.6264 62.2826 31.6112 62.3789L31.4119 64.8394C31.3973 64.9124 31.4104 64.9881 31.4487 65.0519C31.487 65.1157 31.5477 65.1629 31.6189 65.1844C32.8666 65.4778 34.1655 65.4778 35.4132 65.1844C35.4853 65.165 35.5622 65.1741 35.6278 65.2098C35.6934 65.2454 35.7428 65.3049 35.7658 65.376L36.0648 66.5181C36.0777 66.5565 36.0981 66.5919 36.1248 66.6223C36.1515 66.6527 36.184 66.6776 36.2203 66.6954C36.2567 66.7132 36.2962 66.7236 36.3366 66.7261C36.377 66.7286 36.4175 66.723 36.4557 66.7098C37.296 66.3051 38.1644 65.9618 39.0542 65.6826C39.1444 65.648 39.2183 65.5806 39.2609 65.4939C39.3035 65.4072 39.3119 65.3076 39.2842 65.215C39.1615 64.9161 38.9469 64.1955 38.7936 63.7586C38.7729 63.6967 38.7698 63.6302 38.7847 63.5665C38.7996 63.5029 38.8319 63.4447 38.8779 63.3983C39.5145 62.7432 39.9345 61.9084 40.0814 61.0068C40.7866 56.8752 35.9651 55.5107 35.9651 55.5107C32.9986 54.6522 30.3311 54.4453 30.722 52.7972C31.1896 50.8196 34.1254 51.6244 35.0989 51.9157C35.1895 51.94 35.2858 51.9309 35.3702 51.8901C35.4547 51.8493 35.5216 51.7795 35.5589 51.6934L36.6397 49.3325C36.6584 49.2978 36.6702 49.2597 36.6742 49.2205C36.6781 49.1813 36.6743 49.1416 36.6629 49.1038C36.6515 49.0661 36.6328 49.0309 36.6077 49.0005C36.5827 48.97 36.5519 48.9448 36.517 48.9262C35.3459 48.4648 34.0845 48.2786 32.83 48.382C32.7606 48.3906 32.6904 48.3746 32.6316 48.3368C32.5728 48.299 32.529 48.2418 32.5081 48.175L32.1171 46.7953C32.1049 46.7531 32.0836 46.7141 32.0546 46.6811C32.0256 46.6481 31.9898 46.6219 31.9495 46.6044C31.9093 46.5868 31.8656 46.5783 31.8218 46.5795C31.7779 46.5807 31.7348 46.5916 31.6955 46.6113L29.1966 47.3242C29.1056 47.3558 29.0302 47.4211 28.986 47.5067C28.9417 47.5923 28.9321 47.6916 28.959 47.7841C29.4266 49.3172 29.5569 49.4705 29.281 49.6851C28.6754 50.1262 28.1808 50.7021 27.8363 51.3673C27.4917 52.0325 27.3066 52.7687 27.2957 53.5178C27.3646 59.65 36.8006 56.7219 36.1874 60.6312ZM72.475 26.0223C72.8966 26.2523 72.0074 27.1414 72.475 27.3254L74.307 27.8543C74.3407 27.8646 74.3762 27.8678 74.4113 27.8636C74.4463 27.8594 74.4801 27.8479 74.5104 27.8298C74.5407 27.8118 74.5669 27.7876 74.5873 27.7588C74.6077 27.73 74.6219 27.6973 74.6289 27.6627C74.8972 26.6202 74.9049 26.5129 75.1042 26.4669C75.7571 26.307 76.3455 25.9513 76.7905 25.4474C78.9292 23.0865 76.9362 19.9897 76.9362 19.9897C75.7174 18.0657 74.3683 16.709 75.2881 15.8198C76.3919 14.7466 77.6337 16.5863 78.0247 17.2609C78.0411 17.2877 78.0627 17.311 78.0883 17.3294C78.1138 17.3478 78.1428 17.361 78.1734 17.3681C78.2041 17.3753 78.2359 17.3762 78.2669 17.371C78.298 17.3657 78.3276 17.3544 78.3543 17.3375L79.964 16.3027C79.9933 16.2867 80.0191 16.265 80.04 16.239C80.0608 16.213 80.0763 16.183 80.0856 16.151C80.0949 16.1189 80.0977 16.0853 80.0939 16.0522C80.0902 16.019 80.0799 15.9869 80.0636 15.9578C79.6434 15.1651 79.0484 14.4783 78.3236 13.9495C78.132 13.8038 78.2163 13.6735 78.6225 12.6464C78.6358 12.6159 78.6423 12.5829 78.6415 12.5497C78.6408 12.5164 78.6329 12.4838 78.6183 12.4539C78.6038 12.424 78.5829 12.3977 78.5571 12.3766C78.5314 12.3556 78.5014 12.3404 78.4692 12.3321L76.6909 11.8262C76.6228 11.8098 76.5511 11.8207 76.4909 11.8565C76.4308 11.8923 76.387 11.9502 76.3689 12.0178L76.1007 12.9606C76.0861 13.0155 76.0546 13.0644 76.0105 13.1002C75.9664 13.136 75.9121 13.1569 75.8554 13.1599C75.3104 13.1872 74.7794 13.3422 74.3054 13.6125C73.8314 13.8828 73.4275 14.2608 73.1265 14.716C70.5127 18.7173 76.8595 21.1855 74.8435 23.4314C73.9544 24.4279 72.544 23.0942 72.0457 22.5806C71.9985 22.5347 71.9353 22.509 71.8694 22.509C71.8036 22.509 71.7403 22.5347 71.6931 22.5806L70.459 23.945C70.4216 23.9903 70.4012 24.0472 70.4012 24.106C70.4012 24.1647 70.4216 24.2216 70.459 24.267C70.9871 24.9993 71.677 25.6 72.475 26.0223ZM86.8091 46.0211C86.8143 46.0824 86.841 46.1398 86.8845 46.1833C86.928 46.2268 86.9854 46.2535 87.0467 46.2587C104.079 47.7228 104.807 48.635 105.091 48.3054C105.374 47.9757 105.773 46.7723 105.229 46.665C99.3989 45.4194 93.4662 44.7163 87.5066 44.5647C87.0314 44.5647 86.7708 45.5152 86.8091 46.0211ZM69.3629 39.9118C68.7343 39.9118 71.7084 40.4944 86.5178 43.5835C92.1898 43.9184 97.838 44.5761 103.435 45.5535C103.442 45.556 103.45 45.5571 103.457 45.5568C103.465 45.5564 103.472 45.5546 103.479 45.5513C103.485 45.5481 103.492 45.5436 103.497 45.5381C103.502 45.5325 103.505 45.5261 103.508 45.519C103.51 45.512 103.512 45.5045 103.511 45.497C103.511 45.4896 103.509 45.4822 103.506 45.4755C103.503 45.4687 103.498 45.4626 103.493 45.4576C103.487 45.4526 103.481 45.4487 103.473 45.4462C95.1719 41.4602 79.2588 39.4596 69.3629 39.9118Z" fill="black"/>
<path d="M130.501 61.413C134.242 61.413 139.508 59.6193 141.279 56.0473C146.231 46.0288 141.524 34.5845 135.147 31.7789C133.069 30.8744 130.954 30.6675 127.366 31.0124C126.043 31.1678 124.764 31.587 123.605 32.2453C122.447 32.9036 121.432 33.7877 120.621 34.8451C113.569 43.5989 118.528 61.413 130.501 61.413ZM118.237 41.4832C120.176 31.2041 129.076 28.9045 135.055 34.4541C143.916 42.6714 140.873 59.8953 130.762 60.7615C122.752 61.4743 116.321 51.6168 118.229 41.5446L118.237 41.4832Z" fill="black"/>
<path d="M126.194 57.5956C127.281 58.1704 128.49 58.4778 129.72 58.4925C134.449 58.4925 139.071 53.1957 138.152 45.3158C136.994 35.2129 127.573 30.3301 122.315 36.8073C117.432 42.8246 119.425 54.1002 126.194 57.5956ZM127.604 34.4541C131.828 34.0555 136.894 38.1257 137.73 45.3771C138.696 53.8089 132.702 60.3475 126.447 57.0897C123.879 55.7559 120.928 52.3985 120.314 46.9638C119.701 41.5291 122.185 34.96 127.604 34.4541ZM71.4098 30.5831C72.158 30.8902 72.9617 31.0392 73.7704 31.0208C74.579 31.0023 75.3751 30.8167 76.1086 30.4758C83.9195 27.1413 86.5641 12.8456 79.5197 9.90207C74.9205 7.97808 70.145 12.6079 68.313 17.2761C66.3583 22.2585 66.9945 28.7587 71.4098 30.5831ZM77.4117 9.97873C81.9189 9.97873 83.7126 14.9918 83.0457 19.66C82.4478 23.8223 79.9796 27.8159 76.8061 29.6249C73.6327 31.4339 70.5589 30.4988 68.9645 27.7239C65.3082 21.3157 70.8272 9.97873 77.4117 9.97873Z" fill="black"/>
<path d="M71.5936 33.013C72.9599 33.663 74.4434 34.0307 75.9551 34.0938C80.263 34.0938 84.6782 30.3838 86.8475 24.8955C89.2391 18.7632 88.051 12.1864 84.0803 9.56484C82.9462 8.9859 81.7791 8.474 80.585 8.03178C73.3029 4.99632 64.3115 15.0532 65.8522 25.4474C66.4425 29.372 68.5274 32.1392 71.5936 33.013ZM67.301 16.8545C68.4181 13.8097 70.4538 11.1873 73.1266 9.35021C75.6025 7.74816 78.201 7.38023 80.447 8.30773C88.1123 11.4888 86.3799 26.1832 78.3237 31.3803C69.9532 36.7767 63.1617 27.356 67.301 16.8545ZM31.4273 74.8349C35.5001 75.0796 39.5083 73.7298 42.6034 71.0713C50.7056 65.8052 51.6408 54.2076 45.2479 46.6343C40.4494 40.9466 32.6998 38.969 26.4142 41.8204C9.27462 47.1785 14.2954 73.4475 31.4273 74.8349ZM34.3095 41.1076C47.9767 42.8553 53.9633 60.7078 43.8758 69.5305C34.0029 78.1387 17.8138 69.7911 18.0361 55.6333C18.1817 46.8566 25.4024 40.0114 34.3095 41.1152V41.1076Z" fill="black"/>
<path d="M27.9472 68.626C29.4868 69.5117 31.1954 70.0643 32.9621 70.2478C34.7289 70.4313 36.5145 70.2418 38.2033 69.6915C45.562 67.2233 48.8351 58.1935 44.5349 50.6739C40.2347 43.1542 30.7373 41.3989 24.8274 46.5193C17.9363 52.5289 19.8066 64.0345 27.9472 68.626ZM32.6077 44.2274C38.8856 44.2274 44.4966 49.0795 45.6387 55.6257C47.555 66.5181 35.8654 74.0991 26.7054 67.2156C24.9519 65.9011 23.5334 64.1914 22.5651 62.2255C21.5967 60.2596 21.106 58.0929 21.1327 55.9016C21.2707 49.3708 26.2531 44.2274 32.6077 44.2274ZM85.8662 70.1438C85.807 70.1443 85.7498 70.1656 85.7047 70.204C85.6595 70.2424 85.6293 70.2955 85.6193 70.3539C85.6093 70.4122 85.62 70.4723 85.6497 70.5236C85.6795 70.5748 85.7262 70.614 85.7819 70.6343C88.1658 71.4009 88.4954 69.7145 87.4913 67.4762C87.472 67.4183 87.4304 67.3704 87.3758 67.3431C87.3212 67.3158 87.2579 67.3113 87.2 67.3306C87.142 67.3499 87.0942 67.3914 87.0668 67.4461C87.0395 67.5007 87.035 67.5639 87.0543 67.6219C87.2136 68.3085 87.301 69.0098 87.315 69.7145C87.2843 70.0441 87.269 70.1591 85.8662 70.1438ZM80.6461 70.3277C80.3472 72.6273 83.0377 74.5436 84.9387 73.6391C84.9894 73.6129 85.029 73.5694 85.0502 73.5164C85.0715 73.4634 85.0729 73.4045 85.0543 73.3506C85.0357 73.2966 84.9983 73.2511 84.9489 73.2225C84.8995 73.1938 84.8415 73.1839 84.7854 73.1945C84.3501 73.2603 83.9061 73.238 83.4796 73.1289C83.0531 73.0198 82.6528 72.8262 82.3025 72.5596C81.9523 72.2929 81.6591 71.9587 81.4404 71.5766C81.2217 71.1945 81.0819 70.7725 81.0294 70.3354C81.0304 70.2846 81.0112 70.2354 80.976 70.1988C80.9408 70.1621 80.8924 70.1409 80.8416 70.1399C80.7908 70.1389 80.7416 70.1581 80.705 70.1933C80.6683 70.2286 80.6472 70.2769 80.6461 70.3277ZM83.26 66.4721C84.0266 66.5947 84.4328 64.2185 83.6509 64.0958C82.8691 63.9732 82.4705 66.3418 83.26 66.4721ZM90.5497 64.7627C89.7832 64.6324 89.3539 67.1466 90.2278 67.1466C90.9636 67.1466 91.3239 64.893 90.5497 64.7627ZM85.046 61.4743C84.3868 60.1635 82.3248 60.1022 81.382 61.4743C81.3449 61.5241 81.3268 61.5855 81.331 61.6475C81.3351 61.7095 81.3613 61.768 81.4048 61.8123C81.4482 61.8567 81.5061 61.8841 81.568 61.8896C81.6299 61.8951 81.6917 61.8783 81.7423 61.8422C82.1437 61.505 82.6484 61.315 83.1726 61.3039C83.6968 61.2927 84.209 61.461 84.6244 61.7809C84.6715 61.8136 84.7276 61.8309 84.7849 61.8302C84.8422 61.8296 84.8979 61.8112 84.9442 61.7775C84.9906 61.7438 85.0253 61.6965 85.0435 61.6421C85.0618 61.5878 85.0627 61.5291 85.046 61.4743ZM92.4737 62.7467C92.5083 62.7946 92.5582 62.8293 92.6152 62.8451C92.6721 62.8609 92.7327 62.8569 92.787 62.8337C92.8414 62.8106 92.8863 62.7696 92.9143 62.7176C92.9423 62.6656 92.9518 62.6056 92.9413 62.5474C92.8313 62.2365 92.6494 61.9559 92.4104 61.7286C92.1713 61.5013 91.8819 61.3338 91.5658 61.2396C91.2497 61.1454 90.9158 61.1273 90.5913 61.1868C90.2669 61.2462 89.9611 61.3815 89.6989 61.5816C89.6538 61.6173 89.6223 61.6673 89.6094 61.7233C89.5966 61.7793 89.6032 61.8381 89.6282 61.8898C89.6532 61.9416 89.695 61.9833 89.7469 62.0081C89.7988 62.0329 89.8575 62.0393 89.9135 62.0262C90.3585 61.8368 90.8548 61.8049 91.3204 61.9359C91.786 62.067 92.1928 62.353 92.4737 62.7467ZM26.2378 116.871C26.2002 118.543 26.5629 120.198 27.2956 121.701C27.3139 121.747 27.3496 121.784 27.395 121.805C27.4405 121.826 27.4922 121.828 27.5391 121.811C27.586 121.794 27.6244 121.759 27.6463 121.714C27.6681 121.669 27.6715 121.618 27.6559 121.57C27.1588 120.058 26.9002 118.478 26.8894 116.887C26.8894 116.067 27.0963 115.124 27.4566 115.009C27.6329 114.955 28.0621 115.055 28.9437 116.343C28.9701 116.386 29.0128 116.418 29.0624 116.43C29.112 116.442 29.1644 116.434 29.2081 116.408C29.2518 116.381 29.2832 116.339 29.2955 116.289C29.3077 116.239 29.2997 116.187 29.2733 116.143C27.9012 113.376 26.3145 114.12 26.2378 116.871ZM34.9763 138.388C33.8997 138.259 32.8782 137.841 32.0199 137.178C31.1616 136.516 30.4986 135.633 30.1011 134.624C30.0727 134.568 30.0253 134.523 29.9672 134.498C29.9091 134.474 29.8442 134.47 29.7837 134.488C29.7232 134.507 29.6712 134.546 29.6367 134.599C29.6022 134.652 29.5875 134.715 29.5952 134.778C29.8504 135.995 30.5302 137.082 31.5132 137.845C32.4961 138.607 33.7181 138.995 34.9609 138.94C34.9972 138.941 35.0332 138.935 35.0671 138.922C35.101 138.909 35.132 138.889 35.1583 138.864C35.1846 138.84 35.2058 138.81 35.2206 138.777C35.2354 138.744 35.2435 138.708 35.2445 138.672C35.2455 138.635 35.2394 138.599 35.2265 138.565C35.2135 138.532 35.194 138.501 35.1691 138.474C35.1442 138.448 35.1144 138.427 35.0813 138.412C35.0482 138.397 35.0125 138.389 34.9763 138.388ZM34.5547 120.152C33.8724 120.604 34.9149 122.291 35.6431 122.291C35.7169 122.289 35.7894 122.271 35.8554 122.238C35.9215 122.205 35.9796 122.158 36.0256 122.101C36.0716 122.043 36.1045 121.976 36.1218 121.904C36.1392 121.832 36.1406 121.758 36.126 121.685C36.0877 120.965 35.1526 119.731 34.5547 120.152ZM37.7434 119.278C37.2299 118.972 36.8619 119.278 36.8849 119.738C36.9232 120.459 37.8354 121.678 38.418 121.271C39.0005 120.865 38.464 119.731 37.7434 119.278ZM20.6958 117.676C17.2694 117.186 14.5635 117.676 12.3789 119.048C12.3012 119.098 12.244 119.174 12.218 119.263C12.0397 119.838 12.0723 120.458 12.3099 121.011C12.3277 121.048 12.353 121.082 12.3843 121.109C12.4157 121.136 12.4524 121.157 12.492 121.169C12.5317 121.181 12.5735 121.185 12.6147 121.18C12.6559 121.175 12.6957 121.162 12.7315 121.141C15.1178 119.899 17.8462 119.476 20.4965 119.938C20.5273 119.945 20.5593 119.947 20.5907 119.942C20.622 119.937 20.6519 119.925 20.6786 119.908C20.7052 119.89 20.728 119.868 20.7455 119.841C20.763 119.815 20.7747 119.785 20.7801 119.754C20.9033 119.151 20.9496 118.536 20.9181 117.922C20.9152 117.861 20.8914 117.804 20.8509 117.759C20.8103 117.714 20.7555 117.685 20.6958 117.676ZM42.6492 128.162C41.4611 128.162 41.5684 131.566 42.7259 131.535C43.8833 131.505 43.8067 128.162 42.6492 128.162ZM45.8227 128.929C45.6464 128.224 45.1021 128.116 44.6729 128.699C44.0443 129.535 43.9983 131.397 44.8185 131.397C45.6387 131.397 46.0526 129.811 45.8227 128.929ZM75.1884 136.847H72.8889C72.797 136.851 72.7096 136.888 72.6432 136.951C72.5768 137.015 72.536 137.101 72.5286 137.192L72.36 138.672C72.3533 138.787 72.3909 138.9 72.4649 138.988C72.539 139.077 72.644 139.133 72.7585 139.147C73.6402 139.239 74.5291 139.239 75.4107 139.147C75.5214 139.135 75.6229 139.08 75.6933 138.994C75.7636 138.908 75.7971 138.798 75.7863 138.687L75.633 137.269C75.6206 137.157 75.5691 137.054 75.4877 136.977C75.4064 136.9 75.3004 136.854 75.1884 136.847ZM76.8058 137.208L76.6832 138.672C76.6788 138.79 76.7202 138.905 76.7987 138.994C76.8773 139.082 76.9869 139.137 77.1048 139.147C78.0203 139.227 78.9411 139.227 79.8566 139.147C79.9705 139.133 80.0747 139.076 80.1476 138.988C80.2204 138.899 80.2563 138.786 80.2476 138.672C80.0483 137.667 80.2476 136.863 79.6037 136.847C78.9598 136.832 78.0169 136.847 77.1738 136.847C77.0786 136.851 76.9883 136.89 76.9203 136.956C76.8523 137.023 76.8115 137.113 76.8058 137.208ZM81.3514 139.147C82.2462 139.231 83.147 139.231 84.0419 139.147C84.1531 139.135 84.2553 139.081 84.3269 138.995C84.3985 138.909 84.4337 138.798 84.4251 138.687L84.2718 137.269C84.257 137.153 84.2007 137.046 84.1133 136.969C84.0259 136.891 83.9134 136.848 83.7966 136.847H81.4203C81.3277 136.851 81.2393 136.887 81.1716 136.951C81.104 137.014 81.0616 137.1 81.0524 137.192L80.9374 138.656C80.9322 138.716 80.9387 138.776 80.9567 138.832C80.9747 138.889 81.0038 138.942 81.0423 138.988C81.0807 139.033 81.1279 139.071 81.1809 139.098C81.234 139.125 81.2919 139.142 81.3514 139.147ZM85.5826 139.147C86.5293 139.216 87.4797 139.216 88.4264 139.147C88.4829 139.143 88.538 139.128 88.5886 139.103C88.6392 139.077 88.6843 139.042 88.7213 139C88.7584 138.957 88.7866 138.907 88.8044 138.854C88.8222 138.8 88.8292 138.743 88.825 138.687L88.6641 137.261C88.6425 137.145 88.5809 137.04 88.4899 136.964C88.3988 136.888 88.2842 136.847 88.1658 136.847H85.6516C85.5567 136.848 85.4655 136.884 85.395 136.948C85.3245 137.011 85.2795 137.098 85.2683 137.192L85.1534 138.656C85.1481 138.717 85.1552 138.778 85.1741 138.836C85.1931 138.894 85.2235 138.947 85.2636 138.993C85.3037 139.039 85.3526 139.076 85.4074 139.102C85.4622 139.129 85.5218 139.144 85.5826 139.147ZM113.753 132.884C111.453 132.401 103.397 136.058 103.136 136.341C102.508 137.008 102.799 139.032 103.328 139.622C103.857 140.212 118.352 146.444 123.258 147.471C124.614 147.571 129.39 145.363 130.655 144.773C132.188 144.007 133.836 143.393 134.112 141.883C134.112 141.883 134.395 139.998 133.675 139.476C129.344 136.748 120.529 134.295 113.753 132.884ZM113.668 133.367C118.758 134.341 128.784 137.323 133.092 139.821C131.873 140.787 124.66 144.129 123.603 144.306C119.617 142.167 108.326 138.173 103.55 136.732C103.849 136.433 111.507 132.961 113.63 133.367H113.668ZM123.58 146.735C121.219 146.735 106.011 140.45 103.903 139.331C103.466 139.101 103.282 137.798 103.404 137.108C107.007 138.457 122.713 144.168 123.411 144.903C123.59 145.171 123.696 145.481 123.719 145.802C123.742 146.123 123.68 146.445 123.541 146.735H123.58ZM133.544 141.768C133.353 142.796 132.418 143.24 130.555 144.122C128.511 145.117 126.391 145.95 124.216 146.613C124.39 146.006 124.335 145.357 124.062 144.789C125.91 144.306 132.195 141.515 133.529 140.235C133.583 140.746 133.567 141.262 133.483 141.768H133.544Z" fill="black"/>
<path d="M130.616 139.5C130.31 138.886 113.707 133.743 113.032 133.889C111.238 134.287 109.966 134.655 106.348 136.472C106.309 136.489 106.275 136.518 106.252 136.554C106.228 136.59 106.216 136.632 106.216 136.675C106.216 136.718 106.228 136.76 106.252 136.796C106.275 136.832 106.309 136.861 106.348 136.878C110.617 138.457 123.38 143.01 123.625 142.964C130.662 139.706 130.823 139.906 130.616 139.5ZM107.85 136.909C109.462 136.009 111.19 135.336 112.986 134.908C118.881 136.357 124.622 138.311 129.029 139.883C127.124 140.583 125.269 141.415 123.48 142.374C120 141.048 113.4 138.61 107.85 136.909Z" fill="black"/>
<path d="M133.805 125.932C133.789 125.698 133.715 125.471 133.59 125.273C133.808 125.269 134.021 125.211 134.21 125.104C134.399 124.997 134.558 124.844 134.673 124.66C134.788 124.475 134.855 124.265 134.868 124.048C134.881 123.831 134.84 123.614 134.748 123.418C141.693 117.193 150.347 106.554 149.887 105.282C149.573 104.431 149.573 106.47 122.292 102.093C116.581 89.5216 109.682 77.2188 94.0528 76.7359C93.9871 76.7344 93.9229 76.7557 93.8712 76.7962C93.8195 76.8368 93.7834 76.894 93.7692 76.9582C92.7881 81.2354 89.6913 91.0624 82.141 89.8819C76.484 88.9927 72.4597 82.5155 70.9573 76.437C72.491 76.5013 74.0274 76.4655 75.5565 76.3296C75.6088 76.3248 75.6584 76.3037 75.6982 76.2694C75.7381 76.235 75.7662 76.1891 75.7787 76.138C76.4091 73.5105 76.5366 70.7874 76.1544 68.1124C76.1501 68.0796 76.1388 68.0481 76.1213 68.02C76.1037 67.9919 76.0803 67.968 76.0527 67.9498C76.025 67.9316 75.9938 67.9196 75.961 67.9146C75.9283 67.9096 75.8949 67.9117 75.8631 67.9208C73.8088 68.4574 73.1649 65.4909 73.7858 64.0882C73.8744 63.8663 74.0361 63.6812 74.2441 63.5636C74.4521 63.446 74.694 63.4028 74.9298 63.4413C75.1656 63.4797 75.3813 63.5974 75.5413 63.7749C75.7012 63.9524 75.7958 64.1792 75.8094 64.4178C75.8094 65.4219 78.109 63.0917 77.8024 60.7154C78.1243 60.7154 78.4386 60.7154 78.7452 60.6618C79.1975 60.6081 78.6379 58.8604 80.4009 57.2354C80.217 57.8057 80.1931 58.4155 80.3319 58.9984C80.4316 59.3203 81.865 59.351 82.6929 59.121C82.9918 59.0444 82.8538 58.2549 84.1339 55.8556C86.2763 56.3097 88.4595 56.5434 90.6494 56.5532C91.5424 57.2243 92.3551 57.9959 93.0717 58.8528C96.4444 62.8924 92.2515 75.0112 87.4453 77.7171C85.506 78.8055 83.6127 78.4836 81.6964 77.3415C81.4894 77.2112 81.3361 77.1115 81.2211 77.2725C81.1882 77.3079 81.17 77.3545 81.17 77.4028C81.17 77.4511 81.1882 77.4977 81.2211 77.5331C84.1953 79.986 87.729 79.6334 90.5651 75.7241C91.0174 75.7931 92.6578 75.9387 92.8647 75.5248C93.1762 74.8144 93.3853 74.0634 93.4856 73.2942C94.1142 74.9269 93.5316 76.1304 94.1295 76.069C94.8552 76.0386 95.5583 75.8078 96.1608 75.4021C96.185 75.3812 96.2043 75.3553 96.2175 75.3262C96.2308 75.2971 96.2376 75.2655 96.2374 75.2335C96.2566 74.2388 96.1562 73.2454 95.9385 72.2747C97.004 73.8078 97.0423 74.4593 97.2493 74.4823C97.6862 74.5513 99.1656 73.4552 99.1426 73.1562C98.9047 71.9824 98.4526 70.8625 97.8088 69.8525C97.472 69.0381 97.3762 68.1441 97.5329 67.2769C98.169 68.5164 98.6332 69.8367 98.9126 71.2016C98.9586 71.4469 98.974 71.5848 99.2193 71.5772C99.6562 71.5416 100.082 71.4196 100.471 71.2183C100.861 71.017 101.206 70.7403 101.488 70.4044C101.518 70.3732 101.539 70.3351 101.55 70.2935C101.56 70.2519 101.56 70.2083 101.55 70.1667C101.414 69.5673 101.221 68.9821 100.975 68.4191C102.163 69.0246 103.458 68.4191 103.473 68.0435C103.573 65.123 102.876 63.9119 101.994 62.992C102.232 63.1223 103.826 63.0533 104.202 62.1795C104.266 61.8711 104.266 61.5528 104.202 61.2443C104.096 60.6039 103.857 59.9927 103.5 59.4501C103.144 58.9076 102.678 58.4456 102.132 58.0939C100.844 57.2047 99.7405 56.7908 99.3649 55.3727C101.289 55.9859 101.243 57.6723 103.473 58.6994C103.499 58.7176 103.53 58.7273 103.562 58.7273C103.593 58.7273 103.624 58.7176 103.65 58.6994C104.738 58.1245 104.93 56.7218 104.669 56.5762C102.876 55.6027 102.623 52.6285 99.0813 52.1303C100.729 51.7164 101.381 51.9846 101.435 51.5784C101.494 51.2231 101.467 50.8588 101.356 50.516C101.245 50.1732 101.054 49.862 100.798 49.6084C99.1513 49.2606 97.4463 49.2973 95.8159 49.7157C96.0075 48.8342 96.1378 48.1826 96.1378 48.1826C96.1378 47.9987 96.9657 48.129 85.8893 47.1555C76.9362 44.9785 77.5034 45.0552 77.4575 45.2545C77.4575 45.2928 77.1892 49.1331 77.3195 52.046C77.4115 54.0159 81.2211 55.1887 83.6127 55.7253C82.9844 56.6102 82.577 57.6326 82.4246 58.7071C81.8453 58.6647 81.2638 58.6647 80.6845 58.7071C80.7264 58.0959 80.8135 57.4887 80.9452 56.8904C81.0065 56.5762 81.0295 56.4765 80.9452 56.4075C80.6769 56.1929 78.4539 57.5343 78.4846 60.2402C77.6414 60.2402 77.3425 60.1559 76.6526 60.1099C76.5346 58.5354 76.9682 56.969 77.879 55.6793L77.9327 55.6027C77.9488 55.583 77.9609 55.5604 77.9683 55.5361C77.9756 55.5118 77.9781 55.4863 77.9756 55.461C77.9732 55.4358 77.9657 55.4113 77.9537 55.3889C77.9418 55.3665 77.9255 55.3467 77.9059 55.3305C77.8862 55.3144 77.8636 55.3024 77.8393 55.295C77.815 55.2876 77.7895 55.2851 77.7643 55.2876C77.739 55.2901 77.7145 55.2975 77.6921 55.3095C77.6697 55.3215 77.6499 55.3377 77.6338 55.3574C77.03 56.0435 76.5873 56.856 76.3379 57.7353C76.0886 58.6146 76.039 59.5385 76.1927 60.4395C76.2016 60.4932 76.227 60.5428 76.2655 60.5813C76.304 60.6197 76.3536 60.6452 76.4073 60.6541C76.7139 60.7001 77.0282 60.7231 77.3425 60.7384C77.2396 61.8829 76.8262 62.9775 76.1467 63.9042C76.0418 63.6281 75.8622 63.3866 75.6281 63.2066C75.3939 63.0266 75.1144 62.9151 74.8206 62.8847C71.9538 62.5858 72.452 69.0936 75.6868 68.442C75.6868 70.0518 75.6868 71.0712 75.5718 72.8573L74.5523 73.4398C74.1415 72.4813 73.597 71.5857 72.9349 70.78C72.9184 70.7618 72.8983 70.7474 72.8758 70.7374C72.8534 70.7275 72.8291 70.7224 72.8046 70.7224C72.7801 70.7224 72.7558 70.7275 72.7334 70.7374C72.7109 70.7474 72.6908 70.7618 72.6743 70.78C72.3881 71.9166 72.3128 73.0962 72.452 74.26C71.8583 74.2611 71.2709 74.1384 70.7273 73.8997C70.4422 72.221 70.388 70.5111 70.5663 68.8177C70.5716 68.7694 70.562 68.7207 70.5388 68.6781C70.5155 68.6355 70.4798 68.601 70.4364 68.5793C70.393 68.5576 70.344 68.5497 70.2959 68.5567C70.2479 68.5637 70.2032 68.5852 70.1677 68.6184C69.0757 69.6122 68.1924 70.8134 67.5692 72.1521C66.9063 71.9958 66.3215 71.6068 65.9212 71.0559C67.0556 68.1814 68.765 67.5299 68.834 64.4178C68.8373 64.3738 68.8274 64.3298 68.8056 64.2915C68.7839 64.2531 68.7512 64.2221 68.7117 64.2024C68.6723 64.1827 68.6279 64.1751 68.5841 64.1807C68.5404 64.1863 68.4993 64.2048 68.466 64.2338C67.4392 65.0516 66.4686 65.9377 65.5609 66.886C65.0741 66.4331 64.7439 65.8372 64.6181 65.1843C66.4884 63.8505 67.9218 62.6318 68.1288 60.2402C68.1288 60.1865 68.1288 60.0332 68.0368 59.9796C67.9448 59.9259 67.9295 59.9796 66.841 60.7461C66.1789 61.1527 65.5927 61.6714 65.1086 62.2791C64.6049 61.7545 64.3293 61.0517 64.3421 60.3245C66.3198 58.6841 68.0828 58.5768 68.466 55.7253C68.472 55.691 68.4684 55.6557 68.4558 55.6232C68.4431 55.5907 68.4219 55.5623 68.3943 55.541C68.3667 55.5197 68.3338 55.5064 68.2992 55.5024C68.2645 55.4984 68.2295 55.5039 68.1978 55.5183C66.9847 56.0624 65.8667 56.7974 64.8864 57.6953C64.5666 57.2682 64.3371 56.7805 64.2118 56.2619C68.1824 54.3992 68.8876 51.8543 71.5015 50.9652C71.7161 50.8962 71.7085 50.7352 71.5782 50.6509C71.1949 50.4209 68.3511 50.2906 65.8139 51.9463C65.4719 51.3892 65.2988 50.7448 65.3156 50.0913C69.7921 48.3973 71.3099 48.6042 73.8778 49.0105C72.8462 51.4558 72.1748 54.0378 71.8848 56.6758C72.0841 57.1051 73.2492 57.0361 73.2492 57.0361C73.3685 54.9562 73.7339 52.8977 74.3377 50.9038C74.1813 52.7519 74.1199 54.6068 74.1537 56.4612C74.6123 56.4775 75.071 56.4336 75.5181 56.3309C75.4261 53.3721 75.4261 48.175 76.9592 44.074L85.391 45.9904C85.4163 45.9951 85.4422 45.994 85.467 45.9871C85.4917 45.9803 85.5145 45.9679 85.5338 45.9509C85.553 45.9339 85.5681 45.9127 85.5779 45.889C85.5877 45.8653 85.5919 45.8397 85.5903 45.8141C85.5431 45.3434 85.6421 44.8696 85.874 44.4573C86.0196 44.2044 86.6865 44.4573 68.3664 40.456C68.2723 40.4386 68.1751 40.4562 68.0931 40.5057C68.0112 40.5551 67.9502 40.6329 67.9218 40.7243C67.5692 41.8894 68.1748 42.0811 68.1748 42.0811L75.7251 43.7981C75.5575 44.5978 75.3242 45.3823 75.0275 46.1437C73.9697 45.2928 72.3983 44.8636 72.1301 45.1319C71.3635 45.8984 71.2945 47.0558 71.5168 47.2092C72.0803 47.5674 72.6182 47.9644 73.1266 48.3973C70.2751 47.8147 67.8528 48.3973 64.9247 49.5931C64.8749 49.6162 64.8326 49.6529 64.8027 49.699C64.7729 49.7452 64.7567 49.7988 64.756 49.8537C64.7443 50.7607 65.0417 51.6447 65.5992 52.3602C65.9365 52.7895 67.0786 51.2718 70.2981 50.9958C68.4507 51.9386 67.2319 54.1309 64.1658 55.7636C63.8592 55.9323 63.7212 56.0089 63.7289 56.1622C63.7401 56.5638 63.836 56.9586 64.0103 57.3205C64.1847 57.6825 64.4336 58.0035 64.7407 58.2625C65.101 58.4158 64.7407 58.1552 67.9218 56.1239C67.1553 58.4695 65.7219 58.2779 63.8362 59.9566C63.5909 60.1712 63.6599 61.6966 64.9017 62.8617C64.9518 62.9109 65.0193 62.9384 65.0895 62.9384C65.1597 62.9384 65.2271 62.9109 65.2773 62.8617C65.957 62.0766 66.7291 61.3765 67.5769 60.7767C66.7414 63.7279 63.9282 64.5404 64.0355 65.0463C64.0531 65.5378 64.1926 66.0172 64.4415 66.4413C64.6904 66.8655 65.0408 67.2211 65.4613 67.4762C65.9212 67.6525 65.7065 67.2309 68.3664 64.9467C68.0445 67.7598 65.9518 68.5647 65.3923 71.0023C65.285 71.3012 66.0975 72.4587 67.6919 72.8343C68.3281 72.9722 67.8605 71.8761 69.9914 69.4692C69.8355 71.001 69.8742 72.5463 70.1064 74.0684C70.2214 74.7123 71.9231 74.8349 72.7663 74.7429C73.2722 74.6739 72.7663 74.421 72.9196 71.5465C74.514 74.5283 73.7934 74.4823 75.4875 73.4858C75.4261 74.2523 75.3572 75.0189 75.2652 75.7854C71.8005 75.5784 70.804 75.8851 70.7733 75.7394C70.7426 75.5938 70.6966 75.3408 70.4897 75.3332C49.0268 74.6816 34.4627 94.0595 30.8447 115.147C27.7479 111.299 24.5592 112.065 23.3021 114.855C13.3372 113.522 5.90182 118.106 4.39176 126.56C3.37227 132.263 4.54506 136.525 8.22441 140.358C7.73383 145.984 8.99094 146.214 11.2905 146.644C12.9487 146.943 14.6551 146.827 16.2576 146.306C16.4038 146.275 16.535 146.195 16.6297 146.079C16.7244 145.964 16.777 145.819 16.7789 145.67C17.4918 145.67 18.9482 145.624 19.4541 145.018C19.61 144.739 19.6743 144.417 19.638 144.099C22.1139 144.421 21.1175 143.7 21.7 145.823C21.976 146.843 22.2059 147.096 23.0644 147.356C25.0344 147.901 31.4963 148.077 31.9792 145.923C32.968 146 35.6815 146.092 36.2411 144.873C36.4212 144.107 36.4883 143.32 36.4404 142.535C40.825 141.469 44.0597 138.925 45.7997 135.161C54.7222 134.693 61.391 132.731 66.1818 129.167C68.1441 132.601 70.3057 132.317 69.2479 129.65C70.9726 131.52 72.4213 130.416 70.9956 127.795C71.3824 128.18 71.8869 128.426 72.429 128.492L74.9969 133.781H73.7781C73.5635 133.781 73.5405 133.919 73.5251 134.065C73.5199 134.144 73.5199 134.223 73.5251 134.302C73.5075 134.298 73.4891 134.298 73.4715 134.302H71.1719C70.5893 134.364 70.1601 135.498 69.6388 136.809C68.765 139.109 68.7573 139.775 68.742 140.534C68.6949 141.11 68.7748 141.69 68.9761 142.231C69.1775 142.773 69.4953 143.264 69.9071 143.669C70.4207 144.183 90.5421 144.49 90.9484 143.976C91.4624 143.415 91.8072 142.72 91.9428 141.971C92.0785 141.222 91.9995 140.45 91.7149 139.745C91.7149 139.699 89.7833 135.146 89.4153 134.824C88.8615 134.56 88.2484 134.447 87.637 134.494H87.5143V134.226C87.505 134.14 87.4648 134.061 87.4013 134.003C87.3378 133.945 87.2553 133.913 87.1694 133.911C86.4029 133.911 85.8586 133.873 85.2301 133.911C84.9235 133.911 84.9695 134.287 84.9541 134.471H84.0573C84.0573 134.341 84.0573 133.988 83.6893 133.98H81.3898C81.1061 133.98 81.1445 134.325 81.1291 134.402H80.3626C80.3626 134.356 80.3626 133.904 79.9947 133.896C79.6267 133.888 78.9675 133.896 78.5843 133.896C78.5886 133.83 78.5886 133.763 78.5843 133.697C78.5229 133.176 75.3112 126.875 75.0352 126.353H107.069C114.059 127.296 118.635 127.718 126.607 128.132C127.543 129.841 129.543 129.749 129.819 128.599C131.184 129.021 132.119 128.653 132.119 127.25C132.43 127.301 132.749 127.255 133.033 127.118C133.317 126.981 133.552 126.759 133.705 126.484C148.024 126.484 147.733 126.614 147.725 126.223C147.718 125.832 148.07 125.932 133.805 125.932ZM94.1602 55.71C94.8072 53.9788 95.3197 52.2003 95.6932 50.3903C97.027 49.8077 99.089 49.8997 100.607 50.1756C100.851 50.5093 100.982 50.912 100.982 51.3254C99.9272 51.3234 98.8886 51.587 97.9621 52.092C97.9394 52.1034 97.9195 52.1195 97.9036 52.1394C97.8877 52.1592 97.8763 52.1823 97.8702 52.2069C97.8012 52.4599 98.1308 52.4752 98.3914 52.5059C102.431 53.0041 102.224 55.848 104.37 56.8598C104.222 57.3936 103.946 57.883 103.565 58.2855C101.45 56.9594 101.458 55.1351 99.1273 54.8975C99.1007 54.8959 99.074 54.9004 99.0494 54.9106C99.0248 54.9208 99.0028 54.9364 98.9851 54.9563C98.9674 54.9762 98.9544 54.9999 98.9472 55.0256C98.94 55.0512 98.9386 55.0782 98.9433 55.1044C99.2116 58.5155 103.389 57.6033 103.841 62.0032C103.398 62.2907 102.883 62.4499 102.354 62.4631C102.219 61.647 101.846 60.8886 101.284 60.2822C100.721 59.6758 99.9924 59.2481 99.1886 59.052C99.1589 59.042 99.1273 59.0393 99.0964 59.0443C99.0655 59.0494 99.0362 59.0619 99.0113 59.0808C98.9863 59.0997 98.9664 59.1244 98.9532 59.1528C98.94 59.1812 98.934 59.2124 98.9356 59.2437C98.9999 59.9414 99.2131 60.6172 99.5609 61.2255C99.9087 61.8338 100.383 62.3604 100.952 62.7697C102.339 64.0192 103.044 65.0003 102.968 67.8902C102.71 68.0238 102.428 68.1017 102.139 68.1189C101.85 68.1361 101.56 68.0921 101.289 67.9898C101.611 64.9237 99.4952 62.6777 99.3036 63.3906C98.4987 66.3724 100.338 67.3229 100.975 70.1208C100.555 70.5283 100.019 70.796 99.4416 70.8873C99.1086 69.3054 98.482 67.8 97.5942 66.4491C97.5795 66.4145 97.5549 66.385 97.5236 66.3643C97.4922 66.3436 97.4555 66.3325 97.4179 66.3325C97.3803 66.3325 97.3436 66.3436 97.3122 66.3643C97.2809 66.385 97.2563 66.4145 97.2416 66.4491C96.3371 69.6225 97.6479 70.1208 98.675 73.0336C98.2968 73.3633 97.8767 73.6416 97.4256 73.8614C96.797 72.0754 94.9803 70.1744 95.218 71.2169C95.485 72.4811 95.6694 73.7614 95.7699 75.0495C95.3263 75.263 94.8491 75.3979 94.3595 75.4481C94.4497 74.3574 94.148 73.2703 93.5086 72.382C93.4923 72.3538 93.4688 72.3304 93.4406 72.3143C93.4123 72.2981 93.3802 72.2897 93.3476 72.29C92.9414 72.29 93.4243 72.9799 92.3895 75.0725C91.9167 75.1779 91.4297 75.2038 90.9484 75.1492C92.6624 72.492 93.8828 69.5473 94.5511 66.4567C95.6396 61.0527 94.3288 58.7224 91.485 56.4918C92.5504 56.5072 93.8229 56.3385 94.1602 55.71ZM101.864 62.8847C100.975 61.9879 99.9475 61.3516 99.4186 59.5733C100.073 59.8733 100.641 60.3344 101.068 60.9136C101.496 61.4927 101.77 62.1709 101.864 62.8847ZM100.768 68.0281C100.055 66.5717 99.3572 65.8052 99.6179 63.8965C100.486 65.0905 100.894 66.5574 100.768 68.0281ZM71.8388 46.9102C71.9389 46.4494 72.1464 46.0187 72.4443 45.6531C73.3029 45.817 74.1177 46.1591 74.8359 46.6572C74.5906 47.2935 74.3223 47.9604 74.0694 48.6579C73.5566 47.8292 72.766 47.2098 71.8388 46.9102ZM31.09 143.071C30.906 143.876 31.2433 144.873 31.228 145.609C31.182 147.264 24.9194 147.18 23.2024 146.735C22.8421 146.636 22.5049 146.552 22.2673 145.685C22.1446 145.241 22.0833 144.919 22.0296 144.612C21.6847 142.727 21.723 144.75 14.5943 142.435C14.2959 142.315 13.9847 142.23 13.6668 142.182C13.6235 142.18 13.5807 142.192 13.5458 142.218C13.5109 142.244 13.4863 142.281 13.4762 142.323C13.4661 142.365 13.4713 142.41 13.4907 142.448C13.5101 142.487 13.5426 142.518 13.5825 142.535C14.4155 142.936 15.2892 143.247 16.1887 143.462C16.0967 145.678 16.2883 145.716 16.043 145.762C14.5287 146.227 12.9238 146.317 11.3672 146.023C9.11358 145.593 8.33939 145.363 8.81464 140.274C8.89129 139.461 3.53324 136.249 5.18128 126.675C6.5687 118.68 13.4138 114.365 23.0568 115.407C22.3674 117.809 22.5106 120.372 23.463 122.682C23.4783 122.731 23.5123 122.771 23.5576 122.795C23.6029 122.819 23.6557 122.823 23.7045 122.808C23.7533 122.793 23.794 122.759 23.8177 122.714C23.8415 122.668 23.8462 122.616 23.831 122.567C21.4701 114.449 26.3682 109.267 31.6343 117.347C31.6711 117.401 31.7249 117.442 31.7872 117.463C31.8496 117.483 31.9171 117.483 31.9792 117.462C39.0083 115.162 40.1044 121.432 42.9712 123.195C40.8403 124.138 39.9741 128.055 39.8208 130.094C39.5678 133.298 40.6487 138.58 43.4618 137.667C38.1651 143.562 31.4886 141.385 31.09 143.071ZM40.0278 114.204C39.0155 114.937 38.2593 115.969 37.8661 117.155C36.7656 116.524 35.4944 116.256 34.2328 116.389C39.1922 111.222 43.2779 112.518 40.4647 119.516C39.8965 118.785 39.2341 118.133 38.4947 117.577C38.7547 116.398 39.3701 115.328 40.2577 114.511C40.2984 114.48 40.3253 114.435 40.3324 114.384C40.3396 114.334 40.3265 114.283 40.296 114.242C40.2656 114.202 40.2202 114.175 40.1698 114.168C40.1195 114.16 40.0684 114.173 40.0278 114.204ZM45.3935 134.548C45.0615 135.472 44.4576 136.273 43.6611 136.847C41.1852 138.25 40.296 132.93 40.5183 130.102C40.687 127.971 41.7295 123.594 43.8374 123.594C46.2367 123.617 47.2255 130.224 45.4088 134.548H45.3935ZM69.6388 125.71C69.6217 125.688 69.6005 125.67 69.5764 125.656C69.5523 125.643 69.5258 125.634 69.4984 125.631C69.471 125.628 69.4433 125.63 69.4167 125.638C69.3902 125.645 69.3654 125.658 69.3437 125.675C69.3221 125.692 69.304 125.713 69.2906 125.737C69.2771 125.762 69.2686 125.788 69.2654 125.815C69.2622 125.843 69.2644 125.871 69.2719 125.897C69.2794 125.924 69.2921 125.949 69.3092 125.97C69.9575 126.812 70.4744 127.748 70.8423 128.745C71.0109 129.266 71.0799 129.879 70.9113 129.994C70.7426 130.109 70.2137 129.81 69.7921 129.458C68.7113 128.553 68.2591 127.649 68.0291 127.802C67.9141 127.864 67.9601 128.009 68.0291 128.132C68.3357 128.699 69.4395 131.045 68.8417 131.114C68.2438 131.183 67.0556 129.504 66.6724 128.883C66.5114 128.615 66.3504 128.316 66.0821 128.515C60.1569 132.785 52.2846 133.942 46.0834 134.448C47.3865 131.06 47.2102 126.269 45.6848 124.092C45.4908 123.761 45.2147 123.485 44.883 123.292C44.5513 123.098 44.1753 122.994 43.7914 122.988C42.6953 122.605 41.6605 121.026 40.8173 119.922C42.3503 116.228 42.3503 113.79 40.7176 112.916H40.6716C38.2111 111.828 35.2369 114.166 33.4203 116.511C32.9616 116.603 32.5086 116.72 32.0635 116.864C31.8489 116.511 31.6189 116.166 31.3966 115.844C32.1105 112.488 33.0269 109.178 34.1408 105.933C38.2341 105.626 53.9326 110.126 58.3019 112.878C58.3156 112.887 58.3312 112.893 58.3476 112.896C58.364 112.899 58.3807 112.898 58.3968 112.894C58.4128 112.889 58.4277 112.882 58.4404 112.871C58.4531 112.86 58.4634 112.847 58.4705 112.832C62.3031 104.638 62.0962 98.4057 58.9841 90.6025C58.4782 89.3223 59.5743 89.514 59.9422 90.2498C65.6529 101.824 60.5784 115.162 57.0447 120.696C53.2121 117.745 50.5599 115.637 45.7997 115.085C45.7384 115.076 45.6757 115.091 45.6252 115.127C45.5746 115.163 45.5401 115.217 45.5291 115.278C45.518 115.339 45.5314 115.402 45.5662 115.453C45.601 115.505 45.6546 115.541 45.7154 115.553C53.626 117.339 56.4468 122.367 63.246 125.71C63.313 125.742 63.3897 125.749 63.4617 125.73C63.5337 125.71 63.596 125.665 63.6369 125.602C65.3999 122.85 67.8605 121.425 70.436 121.647C70.2051 121.781 69.9958 121.949 69.8151 122.145C69.4012 122.59 69.6312 122.866 69.9684 123.464C69.9333 123.499 69.9137 123.548 69.9137 123.598C69.9137 123.648 69.9333 123.696 69.9684 123.732C73.0806 126.07 74.146 130.654 69.6388 125.71ZM90.5191 143.493C89.0627 143.493 73.2875 143.401 70.3134 143.171C69.9678 142.752 69.7091 142.269 69.5525 141.749C69.3959 141.229 69.3444 140.683 69.4012 140.143C76.6519 140.758 83.9374 140.85 91.2013 140.419C91.3195 140.95 91.3196 141.501 91.2017 142.032C91.0838 142.563 90.8508 143.062 90.5191 143.493ZM78.4923 136.004V135.958C79.0821 135.989 79.6731 135.989 80.263 135.958C80.6845 135.912 80.4853 135.36 80.4469 134.939H81.1138C81.1138 135.383 80.8838 135.981 81.3438 136.035C82.2049 136.127 83.0735 136.127 83.9346 136.035C84.3869 135.989 84.1339 135.376 84.1186 134.946H84.9388C84.9388 135.307 84.7088 135.912 85.1764 135.973C85.9199 136.062 86.6712 136.062 87.4147 135.973C87.637 135.973 87.683 135.782 87.6753 135.59C87.6753 135.59 87.6753 135.322 87.6293 135.061C88.1203 135.035 88.6122 135.09 89.0857 135.222C89.2084 135.399 90.7491 139.009 91.094 139.975C85.897 139.975 73.6325 139.783 69.4549 139.699C69.6388 138.794 70.8883 134.985 71.2409 134.839H73.4255C73.4405 134.843 73.4565 134.843 73.4715 134.839C73.4715 135.107 73.4715 135.353 73.4255 135.391C73.4255 135.644 73.4255 135.851 73.7244 135.881C74.8628 135.956 76.0048 135.956 77.1432 135.881C77.5494 136.073 77.7257 136.142 77.7871 136.165C78.1167 136.341 78.3543 136.272 78.4923 136.004ZM77.9634 133.406C78.0957 134.166 78.0957 134.944 77.9634 135.705C77.5188 135.529 76.1927 134.816 76.1084 134.778C76.024 134.739 75.7481 134.126 72.9043 128.339C72.9926 128.258 73.0634 128.16 73.1122 128.05C73.161 127.941 73.1868 127.822 73.1879 127.703C73.2415 126.79 72.3754 125.135 70.62 123.709C70.0834 122.582 69.6005 122.475 71.0799 121.885C71.9768 121.524 71.9691 121.77 72.1454 122.092C73.6555 124.782 75.6944 128.484 77.948 133.406H77.9634ZM73.9927 124.33L72.8659 122.26C74.9432 122.82 76.185 123.609 76.3383 124.123C76.4916 124.636 74.6596 124.383 73.9927 124.33ZM126.446 127.557C110.457 126.392 94.9267 124.077 89.5916 123.088C97.6862 116.09 109.276 107.037 114.887 101.296C126.876 104.047 139.079 105.603 149.281 105.672C148.247 108.34 138.282 118.964 134.311 123.019C133.177 122.452 130.854 123.126 131.099 124.337C129.857 124.291 129.436 124.721 129.29 124.989C129.22 125.117 129.184 125.261 129.184 125.407C129.184 125.553 129.22 125.696 129.29 125.825C128.57 125.825 127.895 126.054 127.88 126.76C126.914 126.43 126.393 126.905 126.446 127.519V127.557ZM127.06 127.787C126.722 127.128 127.313 127.066 128.025 127.358C128.347 127.846 128.817 128.217 129.367 128.415C129.175 129.266 127.55 128.76 127.06 127.749V127.787ZM131.329 127.986C130.685 128.507 128.263 127.511 128.439 126.744C128.478 126.507 128.846 126.292 129.743 126.384C130.291 126.778 130.923 127.04 131.59 127.151C131.605 127.294 131.59 127.44 131.545 127.577C131.5 127.715 131.427 127.841 131.329 127.948V127.986ZM133.23 126.162C133.108 126.56 132.717 126.698 132.004 126.591C129.704 126.238 128.746 124.79 131.467 124.951C131.918 125.254 132.459 125.394 133 125.349C133.107 125.444 133.185 125.567 133.225 125.704C133.266 125.84 133.268 125.986 133.23 126.123V126.162ZM131.804 124.475C131.038 123.709 133.774 123.065 134.219 123.709C134.267 123.8 134.293 123.901 134.293 124.004C134.293 124.107 134.267 124.208 134.219 124.299C133.905 124.92 132.234 124.874 131.804 124.437V124.475Z" fill="black"/>
</svg>
