<svg width="154" height="154" viewBox="0 0 154 154" fill="none" xmlns="http://www.w3.org/2000/svg">
<path fill-rule="evenodd" clip-rule="evenodd" d="M106.987 73.3125C111.742 71.6503 115.756 68.3592 118.317 64.0219C120.371 60.3425 121.322 55.5439 119.727 49.4575C116.309 36.6025 106.918 31.9572 92.6376 37.668C89.1651 39.0554 82.2432 43.1335 80.2272 50.4387C78.5484 56.4944 80.7791 62.6345 84.1596 67.9313C89.4258 76.2024 97.8348 76.4017 106.987 73.3125ZM80.6794 50.5997C82.5805 43.4094 89.3261 39.3084 92.7373 37.9439C105.669 32.7774 115.649 36.0582 119.145 49.6491C120.678 55.5132 119.75 60.1509 117.757 63.7077C115.274 67.9076 111.386 71.0949 106.78 72.707C97.9191 75.7042 89.786 75.5968 84.6655 67.6401C81.354 62.5118 79.108 56.5021 80.6794 50.5997Z" fill="black"/>
<path fill-rule="evenodd" clip-rule="evenodd" d="M101.269 42.7271C107.225 44.3829 110.69 49.7717 112.315 55.7585C112.351 55.9451 112.426 56.1221 112.534 56.2782C112.643 56.4342 112.783 56.5659 112.945 56.6647C113.107 56.7635 113.289 56.8273 113.477 56.852C113.666 56.8767 113.857 56.8618 114.04 56.8082C114.222 56.7545 114.391 56.6634 114.536 56.5406C114.681 56.4178 114.799 56.266 114.882 56.095C114.965 55.924 115.011 55.7376 115.018 55.5476C115.025 55.3577 114.992 55.1684 114.921 54.9919C112.744 48.139 108.643 42.8038 101.499 41.6923C101.427 41.6684 101.35 41.66 101.274 41.6676C101.198 41.6752 101.125 41.6987 101.058 41.7366C100.992 41.7744 100.935 41.8257 100.89 41.8872C100.844 41.9487 100.813 42.019 100.797 42.0935C100.78 42.168 100.78 42.2451 100.796 42.3198C100.811 42.3945 100.842 42.4651 100.887 42.527C100.931 42.5889 100.988 42.6408 101.054 42.6792C101.12 42.7176 101.193 42.7418 101.269 42.7501V42.7271ZM103.484 22.6895C103.494 22.7217 103.51 22.7517 103.531 22.7778C103.552 22.8039 103.578 22.8256 103.608 22.8416C103.637 22.8577 103.67 22.8677 103.703 22.8712C103.736 22.8747 103.77 22.8716 103.802 22.862C103.835 22.8524 103.865 22.8366 103.891 22.8155C103.917 22.7943 103.939 22.7682 103.955 22.7387C103.971 22.7091 103.981 22.6767 103.984 22.6433C103.988 22.6099 103.984 22.5761 103.975 22.5439C102.687 16.9634 103.362 19.6923 101.928 14.2651C101.905 14.1836 101.865 14.1075 101.812 14.0412C101.759 13.975 101.693 13.9198 101.619 13.8788C101.545 13.8379 101.463 13.812 101.378 13.8027C101.294 13.7933 101.209 13.8007 101.127 13.8244C101.046 13.848 100.97 13.8875 100.903 13.9406C100.837 13.9936 100.782 14.0592 100.741 14.1336C100.7 14.208 100.674 14.2897 100.665 14.3741C100.655 14.4585 100.663 14.5439 100.686 14.6254C102.35 19.9913 101.491 17.293 103.484 22.6895ZM57.4223 46.054C62.8725 47.3648 60.0976 46.7132 65.7777 47.8017C65.8395 47.808 65.9016 47.7919 65.9526 47.7565C66.0037 47.721 66.0404 47.6685 66.0561 47.6083C66.0718 47.5482 66.0656 47.4844 66.0384 47.4285C66.0112 47.3726 65.965 47.3283 65.908 47.3034C60.4502 45.5327 63.1484 46.3682 57.7519 44.8045C57.5862 44.7608 57.41 44.7847 57.2619 44.8709C57.1138 44.9572 57.0061 45.0987 56.9624 45.2644C56.9187 45.4301 56.9426 45.6064 57.0288 45.7544C57.1151 45.9025 57.2566 46.0103 57.4223 46.054ZM109.126 22.2909C109.686 16.5648 109.54 19.4087 109.824 13.7822C109.813 13.6213 109.743 13.4701 109.627 13.3579C109.511 13.2457 109.358 13.1804 109.197 13.1747C109.036 13.169 108.878 13.2232 108.755 13.327C108.631 13.4307 108.55 13.5765 108.528 13.7362C108.413 19.3934 108.467 16.5188 108.613 22.2756C108.621 22.3365 108.651 22.3924 108.697 22.4335C108.743 22.4745 108.801 22.4981 108.863 22.4999C108.924 22.5017 108.984 22.4818 109.033 22.4435C109.081 22.4053 109.114 22.3512 109.126 22.2909ZM68.8362 41.5773C68.8859 41.6215 68.9506 41.645 69.017 41.643C69.0835 41.6411 69.1467 41.6138 69.1937 41.5668C69.2407 41.5198 69.2679 41.4566 69.2699 41.3902C69.2718 41.3237 69.2483 41.2591 69.2042 41.2094C65.4481 36.932 67.3491 38.9097 63.4704 34.8853C63.3483 34.7636 63.1829 34.6953 63.0105 34.6953C62.838 34.6953 62.6726 34.7636 62.5505 34.8853C62.4905 34.9452 62.4429 35.0162 62.4104 35.0945C62.3779 35.1728 62.3611 35.2567 62.3611 35.3414C62.3611 35.4262 62.3779 35.5101 62.4104 35.5884C62.4429 35.6666 62.4905 35.7377 62.5505 35.7975C66.5519 39.6993 64.5895 37.7906 68.8362 41.5773ZM39.393 28.8909C39.2551 28.2393 38.6265 28.1244 37.9903 28.1244C37.7655 28.1379 37.5487 28.2124 37.363 28.3397C37.1773 28.467 37.0297 28.6424 36.936 28.8471C36.8423 29.0518 36.806 29.2782 36.831 29.5019C36.8561 29.7257 36.9415 29.9384 37.0781 30.1174C37.9596 31.1369 40.0523 30.3474 39.393 28.8909ZM37.561 29.0902C37.6152 28.9843 37.6932 28.8925 37.789 28.822C37.8848 28.7514 37.9957 28.7042 38.1129 28.6839C38.5575 28.569 38.9944 28.5613 39.1861 28.9752C39.439 30.3244 37.0167 30.2094 37.561 29.0902ZM39.4697 46.1076C39.2139 45.9839 38.9393 45.9036 38.6572 45.87C38.0376 45.8298 37.4164 45.9186 36.8328 46.1306C36.5798 46.2456 36.4035 46.3529 36.2885 46.4142C35.9972 46.5905 36.1122 46.7439 36.2885 46.7285C36.8656 46.7016 37.4397 46.6298 38.0056 46.5139C38.0822 46.5139 39.2167 46.3606 39.4084 46.3606C39.4412 46.3668 39.4752 46.3601 39.5032 46.342C39.5313 46.3239 39.5514 46.2957 39.5592 46.2632C39.5671 46.2308 39.5622 46.1965 39.5455 46.1676C39.5289 46.1386 39.5017 46.1171 39.4697 46.1076ZM44.8126 45.6707C44.778 45.6778 44.7477 45.6984 44.7283 45.7278C44.7089 45.7573 44.702 45.7933 44.7091 45.8278C44.7162 45.8624 44.7367 45.8927 44.7662 45.9121C44.7957 45.9315 44.8317 45.9384 44.8662 45.9313H45.8397C47.0509 45.9313 46.2537 46.0233 47.8788 45.9313C47.907 45.9243 47.9321 45.9081 47.95 45.8851C47.968 45.8622 47.9777 45.8339 47.9777 45.8048C47.9777 45.7757 47.968 45.7475 47.95 45.7245C47.9321 45.7016 47.907 45.6854 47.8788 45.6784C47.4066 45.4257 46.8811 45.289 46.3457 45.2798C45.8084 45.2665 45.2779 45.4018 44.8126 45.6707ZM39.1937 47.8937C39.1876 47.8083 39.1479 47.7288 39.0832 47.6728C39.0185 47.6167 38.9342 47.5886 38.8488 47.5947C38.7634 47.6008 38.6839 47.6406 38.6279 47.7053C38.5718 47.77 38.5437 47.8543 38.5498 47.9397L38.6035 48.6602C38.6065 48.7025 38.6178 48.7438 38.6368 48.7817C38.6558 48.8196 38.682 48.8534 38.7141 48.8812C38.7461 48.9089 38.7833 48.9301 38.8235 48.9435C38.8637 48.9569 38.9062 48.9622 38.9484 48.9592C38.9907 48.9562 39.032 48.9449 39.0699 48.9259C39.1078 48.9069 39.1416 48.8807 39.1694 48.8486C39.1971 48.8166 39.2183 48.7794 39.2317 48.7392C39.2451 48.699 39.2504 48.6565 39.2474 48.6142L39.1937 47.8937ZM45.993 47.1655C45.909 47.1514 45.8228 47.1697 45.7517 47.2166C45.6806 47.2636 45.6299 47.3357 45.6098 47.4184C45.5903 47.694 45.5903 47.9707 45.6098 48.2463C45.6217 48.3241 45.6612 48.3951 45.7209 48.4463C45.7807 48.4976 45.8568 48.5258 45.9356 48.5258C46.0143 48.5258 46.0904 48.4976 46.1502 48.4463C46.2099 48.3951 46.2494 48.3241 46.2613 48.2463V47.5487C46.2701 47.5058 46.2701 47.4616 46.2612 47.4187C46.2524 47.3758 46.2348 47.3352 46.2097 47.2993C46.1846 47.2635 46.1524 47.2331 46.1152 47.2101C46.0779 47.187 46.0364 47.1719 45.993 47.1655ZM40.9721 55.9041C41.3046 56.1562 41.6839 56.3396 42.0879 56.4436C42.4919 56.5475 42.9126 56.57 43.3254 56.5097C43.723 56.4402 44.1063 56.3055 44.4599 56.1111C44.4774 56.1081 44.494 56.1014 44.5086 56.0915C44.5232 56.0815 44.5355 56.0685 44.5446 56.0533C44.5537 56.0381 44.5594 56.0212 44.5613 56.0036C44.5633 55.986 44.5614 55.9682 44.5558 55.9514C44.5502 55.9346 44.541 55.9192 44.5289 55.9063C44.5168 55.8934 44.5021 55.8833 44.4857 55.8766C44.4693 55.8699 44.4517 55.8669 44.434 55.8677C44.4163 55.8684 44.399 55.873 44.3833 55.8811C43.6756 56.0035 42.9523 56.0035 42.2446 55.8811C41.5669 55.6742 40.9454 55.315 40.4279 54.831C40.3359 54.7006 40.1366 54.831 40.2363 54.9689C40.4181 55.3257 40.6681 55.6434 40.9721 55.9041ZM64.1756 100.617C64.4132 100.617 63.3477 90.3836 62.0829 81.6679C61.9526 80.748 61.784 81.047 61.7916 81.1236C62.4202 89.0651 63.6774 98.5396 64.0913 100.494C64.0938 100.52 64.1028 100.545 64.1176 100.567C64.1323 100.588 64.1523 100.605 64.1756 100.617Z" fill="black"/>
<path fill-rule="evenodd" clip-rule="evenodd" d="M149.117 95.711C147.791 93.1507 143.813 88.5131 139.006 83.3696C141.735 81.9208 143.514 80.7403 143.82 80.0351C144.027 79.5598 143.345 79.0846 142.916 78.7933C140.769 77.3215 134.545 74.3933 126.887 70.9591C125.599 69.679 124.35 68.4525 123.185 67.3027C126.895 61.3236 127.339 54.5933 125.553 47.7863C120.854 30.01 107.693 25.7633 90.4223 32.6546C85.915 34.4483 76.9464 39.7145 74.3248 49.1048C73.4721 52.1642 73.3201 55.3765 73.8802 58.5027C68.8976 60.4114 62.5123 62.8644 54.4022 65.7926C52.4015 64.7884 51.5889 64.5968 51.6042 64.4894C51.6168 64.4281 51.6127 64.3645 51.5925 64.3052C51.5723 64.2459 51.5367 64.1931 51.4893 64.1522C49.9562 63.2016 47.4112 62.9027 47.0203 63.2323C46.8216 63.3772 46.6502 63.5563 46.5144 63.7612L45.3875 60.1124C46.0851 59.8212 47.8022 58.8323 49.0133 55.8351C49.8842 53.4545 50.3103 50.9341 50.2705 48.3996C50.5969 47.9025 50.7546 47.3135 50.7201 46.7198C50.6856 46.1261 50.4607 45.5593 50.0788 45.1034C50.0788 44.9194 50.0252 44.7431 50.0022 44.5591C50.1638 44.0053 50.2918 43.4421 50.3854 42.8727C50.3854 41.9759 50.6001 40.5731 50.1861 39.7299C50.1315 39.328 50.1315 38.9206 50.1861 38.5187C50.1861 37.2156 48.5457 36.6253 47.3729 35.5215C47.3729 34.64 47.4419 33.6741 47.4495 32.8846C49.7809 32.228 52.0631 31.4083 54.2795 30.4316C54.6781 30.2247 55.2913 29.8874 55.299 29.4658C55.299 27.6644 39.5617 23.502 37.6224 23.9543C37.5534 23.7396 23.0119 29.0212 20.7583 31.2748C20.7088 31.3201 20.6692 31.3751 20.6422 31.4365C20.6151 31.4979 20.6012 31.5642 20.6012 31.6313C20.6012 31.6983 20.6151 31.7647 20.6422 31.826C20.6692 31.8874 20.7088 31.9425 20.7583 31.9877C20.5225 33.1282 20.5645 34.3087 20.8809 35.4295C20.644 35.4475 20.4173 35.5336 20.228 35.6773C20.0388 35.821 19.8951 36.0163 19.8141 36.2397C19.7332 36.4631 19.7184 36.7052 19.7717 36.9367C19.825 37.1683 19.944 37.3796 20.1144 37.5452C19.3478 38.6107 19.4628 40.8644 20.03 42.0219C20.0313 42.0413 20.0368 42.0601 20.0463 42.0771C20.0557 42.0941 20.0689 42.1088 20.0847 42.12C20.1006 42.1312 20.1187 42.1388 20.1379 42.1421C20.157 42.1454 20.1767 42.1444 20.1954 42.1392C20.2141 42.1339 20.2314 42.1245 20.246 42.1117C20.2606 42.0989 20.2722 42.083 20.2799 42.0651C20.2875 42.0473 20.2911 42.0279 20.2903 42.0085C20.2895 41.9891 20.2844 41.9701 20.2753 41.9529C20.1914 40.5445 20.2273 39.1315 20.3827 37.7292C20.5335 37.8052 20.6974 37.852 20.8656 37.8672C20.5564 39.2016 20.6416 40.597 21.1109 41.8839C21.1179 41.9121 21.1342 41.9372 21.1571 41.9552C21.18 41.9731 21.2083 41.9828 21.2374 41.9828C21.2665 41.9828 21.2947 41.9731 21.3177 41.9552C21.3406 41.9372 21.3568 41.9121 21.3638 41.8839C21.4865 39.7375 21.2489 39.8219 21.2259 37.9055C22.2684 37.7905 21.1722 36.9473 22.3067 41.7382C22.3019 41.7574 22.3016 41.7775 22.3057 41.7968C22.3099 41.8162 22.3184 41.8343 22.3305 41.8499C22.3427 41.8655 22.3583 41.8781 22.3761 41.8868C22.3939 41.8954 22.4134 41.8999 22.4332 41.8999C22.453 41.8999 22.4725 41.8954 22.4903 41.8868C22.5081 41.8781 22.5236 41.8655 22.5358 41.8499C22.548 41.8343 22.5565 41.8162 22.5606 41.7968C22.5648 41.7775 22.5644 41.7574 22.5597 41.7382C22.6784 40.3308 22.5061 38.9139 22.0537 37.5759C22.1665 37.4792 22.2601 37.3621 22.3297 37.2309C22.8433 37.6909 22.7283 39.2929 23.3645 41.7459C23.3715 41.7742 23.3878 41.7992 23.4107 41.8172C23.4337 41.8351 23.4619 41.8448 23.491 41.8448C23.5201 41.8448 23.5484 41.8351 23.5713 41.8172C23.5942 41.7992 23.6105 41.7742 23.6175 41.7459C23.6175 40.4504 23.6635 37.3766 22.4217 36.9626C22.4527 36.7864 22.4452 36.6055 22.3997 36.4324C22.3543 36.2593 22.2719 36.098 22.1584 35.9597C22.0448 35.8214 21.9027 35.7092 21.7417 35.6309C21.5808 35.5527 21.4048 35.5101 21.2259 35.5062C21.2963 34.516 21.2963 33.5221 21.2259 32.532C21.1722 32.0797 20.8196 32.8233 28.3548 34.1877C28.4084 35.0386 28.5004 36.3264 28.6154 37.4839C27.8852 38.2521 27.2823 39.1319 26.8293 40.0902C26.1241 41.7459 26.8293 43.279 27.3506 44.8504C27.4579 45.1571 27.4809 45.502 27.5576 45.824C27.6802 46.3912 27.8719 46.3835 27.8182 46.9508C27.7645 47.518 27.4043 48.2999 27.6342 48.9591C28.0411 49.7598 28.557 50.5002 29.1673 51.1591C29.5905 51.6349 29.858 52.2287 29.9339 52.8609C29.9339 53.4435 31.1757 54.233 31.5436 54.2637L32.0189 55.5055C32.4252 56.548 35.1924 59.1389 36.0203 59.8978C36.1046 60.5724 36.2809 62.1975 36.3192 63.332C36.0484 63.2495 35.7716 63.188 35.4914 63.148C31.9806 63.0943 15.3694 69.587 9.55131 80.1961C0.651663 96.4776 8.19452 107.516 8.22518 107.593C3.19661 112.613 0.222395 124.434 12.1882 129.608C16.6327 131.457 21.2954 132.729 26.0628 133.395C25.9938 134.721 25.9018 140.24 27.2203 140.294C27.6726 140.294 28.0328 139.734 28.2705 139.297C29.0284 137.7 29.6465 136.041 30.1178 134.337C32.4175 134.184 32.3408 134.222 32.4175 134.108C43.8352 134.971 55.3178 134.137 66.4906 131.632C66.5826 131.632 66.5826 131.67 66.7359 130.995L68.1311 130.758C75.7966 142.839 72.9757 128.665 70.6223 125.269C70.3551 124.777 69.907 124.409 69.3729 124.242C71.1 123.286 72.7643 122.221 74.3554 121.053C78.8013 123.795 83.409 126.265 88.1534 128.45C91.6335 129.983 139.819 111.241 141.551 107.202C141.758 106.726 141.076 106.251 140.654 105.96C139.546 105.247 138.396 104.6 137.213 104.02L137.305 103.323C144.778 108.512 151.072 99.4901 149.117 95.711ZM21.9618 36.2804C22.253 37.6219 19.8307 37.5146 20.3367 36.3954C20.3899 36.2881 20.4676 36.1947 20.5634 36.1228C20.6593 36.0509 20.7706 36.0025 20.8886 35.9815C21.3332 35.8741 21.7701 35.8665 21.9618 36.2804ZM126.021 92.8135C115.374 97.0602 100.135 102.457 91.7715 104.197C91.7525 104.197 91.7339 104.201 91.7169 104.21C91.6998 104.218 91.6848 104.23 91.6728 104.244C91.6608 104.259 91.6521 104.276 91.6473 104.294C91.6426 104.313 91.6419 104.332 91.6453 104.35C91.6486 104.369 91.656 104.387 91.6669 104.402C91.6778 104.418 91.692 104.43 91.7083 104.44C91.7247 104.449 91.743 104.455 91.7618 104.457C91.7807 104.459 91.7997 104.456 91.8175 104.45C100.878 102.771 115.703 97.7194 126.435 93.2427C127.14 93.971 127.838 94.6915 128.52 95.3814C117.941 99.927 101.039 106.328 92.1011 108.336C92.0827 108.338 92.0648 108.343 92.0486 108.352C92.0325 108.361 92.0184 108.373 92.0074 108.388C91.9964 108.403 91.9886 108.42 91.9847 108.438C91.9808 108.456 91.9807 108.475 91.9845 108.493C91.9884 108.511 91.996 108.528 92.0069 108.543C92.0179 108.558 92.0319 108.57 92.048 108.579C92.064 108.589 92.0819 108.594 92.1003 108.596C92.1187 108.597 92.1373 108.595 92.1547 108.589C101.905 106.611 118.217 100.632 128.903 95.7647L129.907 96.7765C117.305 102.234 92.4844 112.69 89.0272 113.165C88.2607 108.926 89.3875 103.683 90.9589 101.407C94.5387 101.475 110.307 95.9333 123.714 90.3835C124.49 91.1807 125.259 91.9907 126.021 92.8135ZM89.2878 117.703C86.8349 116.653 83.922 115.174 80.7025 113.418C80.8961 112.864 81.0448 112.295 81.1471 111.717C83.8453 113.127 86.5129 114.453 89.2419 115.641C91.7485 116.745 118.639 106.857 133.249 99.9884C133.709 100.41 134.146 100.809 134.568 101.177C120.463 107.945 91.7485 118.723 89.2878 117.665V117.703ZM135.089 101.606C135.672 102.096 136.208 102.533 136.691 102.901C136.598 104.095 136.371 105.276 136.017 106.42C133.564 107.646 90.9819 126.043 87.7241 126.043C87.0802 123.238 87.9924 120.639 89.6405 118.294C95.1596 118.386 123.691 107.156 135.089 101.598V101.606ZM47.5262 89.3257C47.698 89.2122 47.8596 89.0839 48.0091 88.9424C48.6914 88.2678 48.3771 87.5013 47.6872 87.4093C48.3387 86.6964 47.9555 85.6846 46.591 85.9988C45.8316 86.1887 45.1442 86.5964 44.6133 87.1717C44.3757 86.5278 44.1534 85.8149 43.6858 85.5772C43.3868 82.0511 43.1799 79.1612 43.2412 78.5173C43.8855 78.4507 44.5359 78.4765 45.1729 78.594C69.0279 79.7055 56.0886 82.971 72.2091 73.5271C72.6537 75.2058 73.0983 77.7124 73.5122 80.4797C72.8689 80.289 72.1938 80.2291 71.5269 80.3034C70.1318 80.426 70.0858 81.5069 70.9213 81.9668C70.7727 82.0292 70.6475 82.1368 70.5635 82.2744C70.4796 82.412 70.4412 82.5726 70.4537 82.7333C70.515 83.2929 71.1359 83.5535 71.6802 83.7069C71.1053 84.1361 70.8753 84.918 71.6035 85.3243C72.4191 85.7126 73.3296 85.8563 74.2251 85.7382C74.6544 89.1954 74.9917 92.4915 75.1987 94.5919C73.5889 96.3473 67.2189 102.779 64.9575 103.545C64.2676 103.783 45.9088 101.422 45.1806 101.322C45.1039 100.556 44.7206 96.6845 44.3144 92.3382C45.9088 92.0929 48.1471 91.426 48.3694 90.4372C48.4767 89.9236 48.0245 89.4943 47.5262 89.3257ZM73.9415 84.2281C74.3325 84.2281 74.6161 83.4616 73.083 83.4616C72.5617 83.3083 72.0711 83.2699 71.5499 83.0706C70.3617 82.603 71.6495 82.3041 72.876 82.58C73.6426 82.833 73.9109 82.1201 73.0446 81.9591C72.9297 81.9591 70.4307 81.4762 71.0516 81.0929C71.2148 81.0096 71.3911 80.9551 71.5729 80.9319C72.4625 80.7707 73.3804 80.9455 74.1485 81.4225C75.007 82.0511 74.7617 84.1515 74.4704 85.2553C74.3708 85.5389 74.0872 85.6079 73.7499 85.6002C73.08 85.5315 72.4281 85.3419 71.8258 85.0406C71.5729 84.8873 71.5805 84.7417 71.6802 84.5654C72.1785 83.6149 73.4049 84.2511 73.9645 84.2281H73.9415ZM75.7506 94.9598C75.8962 94.8065 75.8349 94.7068 75.6969 93.4267C80.3977 96.3057 85.2605 98.9112 90.2614 101.23C88.0307 104.687 87.5171 111.08 88.7283 114.691C85.5547 113.257 83.807 112.391 81.2084 110.919C81.8753 104.902 77.598 98.8845 73.4203 97.3055C74.4628 96.3166 75.2906 95.4657 75.7736 94.9598H75.7506ZM89.6021 115.082C89.3799 114.589 89.2078 114.076 89.0885 113.549C93.3582 113.004 118.064 102.572 130.375 97.2441C131.187 98.0107 131.977 98.7772 132.728 99.5438C118.501 106.113 92.699 115.726 89.6251 115.082H89.6021ZM74.7387 49.2274C77.2837 39.9598 86.076 34.663 90.522 32.8923C107.478 26.1313 120.417 30.401 124.971 47.9396C126.956 55.5515 125.737 61.5919 123.085 66.2218C119.367 72.7529 112.867 76.4783 108.728 77.8734C97.1756 81.7828 86.4976 81.7062 79.8439 71.3731C75.5206 64.6887 72.623 56.9006 74.7387 49.2274ZM73.9262 58.978C74.9053 63.5225 76.7421 67.8386 79.338 71.695C83.0328 77.4365 87.8774 79.8894 92.722 80.6407C98.9004 81.5988 105.094 79.7821 108.935 78.4866C109.933 78.1447 110.908 77.7402 111.855 77.2755C115.052 80.9166 119.153 85.4852 123.223 89.8239C122.135 90.2839 121.026 90.7438 119.896 91.2037C106.643 96.5696 92.354 101.483 90.6446 100.747C85.4943 98.4015 80.4876 95.7522 75.6509 92.8135C75.6509 92.8135 75.2983 89.5326 74.7311 85.3319C75.145 84.0135 75.5513 81.8901 74.4858 81.0239C74.3576 80.918 74.2189 80.8256 74.0718 80.748C73.716 78.2 73.217 75.674 72.5771 73.1821C72.5686 73.1528 72.5541 73.1256 72.5344 73.1024C72.5146 73.0791 72.4902 73.0603 72.4626 73.0473C72.435 73.0342 72.405 73.0272 72.3745 73.0266C72.344 73.0261 72.3138 73.0321 72.2858 73.0441C72.1938 73.0441 71.7415 73.3584 71.0746 73.8107L69.1123 73.1361C69.0049 73.0978 69.1122 72.9752 65.5861 75.1138C62.7605 71.2575 59.0584 68.1283 54.7854 65.9842C62.6502 63.217 68.9896 60.8407 73.9262 58.978ZM61.5311 77.6741C61.6077 77.6741 68.9283 73.2741 69.0356 73.3124L70.791 73.9333C57.545 82.3654 66.3373 79.1919 45.4948 78.0727C46.752 77.1222 47.0279 76.9229 47.0739 76.8769C47.9018 76.348 61.1631 77.5975 61.5311 77.6741ZM49.4732 45.1034C49.6277 46.1795 49.6893 47.2669 49.6572 48.3536C49.024 48.9772 48.1771 49.3363 47.2886 49.3577C45.9701 49.4267 44.529 49.2658 44.0461 48.0316C42.6356 44.5591 47.7408 43.7543 49.4732 45.1034ZM48.2928 43.2943C48.653 43.8463 48.975 44.2755 49.1743 44.5361C47.4802 43.8616 43.0036 44.2449 43.4098 47.3341C42.8289 47.2193 42.2272 47.2752 41.6774 47.495C41.2558 44.2219 35.3227 44.9501 34.5332 47.2191C34.3489 47.094 34.1405 47.0089 33.9213 46.9693C33.7021 46.9297 33.4771 46.9364 33.2607 46.9891C33.1304 45.571 33.3067 43.555 34.4412 43.003C34.7631 42.8421 35.3687 43.7159 35.8746 43.8463C37.0228 44.1414 38.2151 44.2245 39.3931 44.0915C40.7425 43.9746 42.0838 43.7775 43.4098 43.5013C45.2955 43.049 45.1422 42.6274 46.4377 41.8456C46.5833 41.7612 47.0509 41.5006 47.2043 41.5696C47.9555 41.9529 47.7255 42.4358 48.2928 43.2943ZM41.2558 47.9703C41.2098 49.5034 39.7917 50.3313 38.3199 50.4079C37.0015 50.4846 35.5604 50.3159 35.0774 49.0895C34.8701 48.714 34.7771 48.2861 34.8098 47.8585C34.8425 47.4308 34.9995 47.0221 35.2614 46.6825C36.7025 44.9961 41.3938 44.8964 41.2558 47.9703ZM29.3206 39.6456C28.9373 37.8388 28.6812 36.0073 28.5541 34.1647C33.23 35.0003 38.3429 35.6058 38.9332 35.3912C39.6384 35.1382 43.1799 34.1724 46.7673 33.0916C46.729 35.5062 46.5833 37.0623 46.568 37.5529C40.7524 37.4986 34.9545 38.2021 29.3206 39.6456ZM21.1569 31.6274C23.1576 29.7571 35.614 24.6518 37.6377 24.1996C39.4544 23.824 52.7311 27.6567 54.6321 29.4658C53.329 30.8072 40.198 34.2567 38.7262 34.778C37.9367 35.0616 22.851 32.9689 21.1569 31.6274ZM33.8586 57.1459C32.868 56.273 32.1584 55.1259 31.8196 53.8497C31.7583 53.0832 31.2217 51.2511 30.6774 50.9982C30.0047 50.4742 29.4265 49.8391 28.968 49.1201C28.2628 48.0546 28.3318 46.7438 29.5123 46.1382C31.4976 45.1264 32.0112 47.8246 32.4635 48.2922C32.7241 48.5529 33.437 48.2079 33.322 47.426C33.6721 47.5709 34.047 47.6463 34.4259 47.6483C34.3772 48.183 34.456 48.7215 34.6558 49.2198C35.2077 50.6762 36.7868 50.9445 38.3429 50.8679C40.1597 50.7682 41.7464 49.6644 41.7081 47.8706C42.0764 47.955 42.459 47.955 42.8272 47.8706C42.9499 48.2769 43.8774 51.9257 43.5401 52.1786C43.3825 52.2939 43.2097 52.3868 43.0266 52.4546C42.145 52.8149 41.9151 52.6846 41.938 52.8762C41.9389 52.89 41.9427 52.9035 41.9491 52.9158C41.9555 52.9281 41.9644 52.9389 41.9752 52.9476C41.9861 52.9562 41.9986 52.9625 42.012 52.9661C42.0254 52.9696 42.0393 52.9704 42.053 52.9682C42.8196 52.9682 44.2147 52.7612 44.1764 52.033C44.1164 50.5649 43.7482 49.1258 43.0955 47.8093C43.2254 47.7673 43.3512 47.7135 43.4711 47.6483C43.9081 49.4957 45.3875 49.9097 47.3039 49.81C48.1349 49.7777 48.9367 49.4944 49.6035 48.9975C49.5757 51.2447 49.1582 53.47 48.3694 55.5745C46.9666 59.0393 44.8586 59.5759 44.8586 59.5759C44.8165 59.5855 44.7769 59.6038 44.7422 59.6295C44.7075 59.6551 44.6784 59.6877 44.6568 59.7251C44.6353 59.7625 44.6216 59.8039 44.6168 59.8468C44.6119 59.8897 44.616 59.9332 44.6286 59.9745L45.9931 64.4051C44.7436 66.2448 45.1422 66.1452 44.8509 66.0225C43.8161 65.5933 39.1785 64.1292 36.8328 63.4699C36.7777 62.223 36.66 60.9796 36.4802 59.7445C36.4725 59.4915 35.9743 59.3459 33.8586 57.1459ZM30.7924 65.1563C32.5938 66.6894 40.7576 71.5494 43.1645 72.3849C43.4018 72.503 43.6726 72.5355 43.9311 72.4769C44.184 72.3619 44.0691 72.6839 45.1116 66.7891C45.5025 67.2337 46.5144 68.3222 49.113 71.0128C49.1505 71.0546 49.1981 71.0861 49.2513 71.1043C49.3045 71.1225 49.3614 71.1268 49.4167 71.1168C49.472 71.1069 49.5238 71.0829 49.5673 71.0473C49.6107 71.0116 49.6443 70.9654 49.6649 70.9131C50.3345 69.0611 50.8975 67.1723 51.3513 65.256C51.6101 65.312 51.866 65.3811 52.1178 65.463C51.9799 68.9124 52.0182 75.6351 48.8293 76.4936C48.2095 76.4567 47.5874 76.4875 46.9743 76.5856C41.984 76.279 36.2426 72.1166 32.8391 68.6748C31.7506 67.594 30.6621 66.6358 29.6503 65.5243L30.7924 65.1563ZM17.9144 93.1891C24.1311 87.6086 33.1917 86.3898 41.4091 88.0992C41.7847 88.2142 41.6774 88.1682 42.076 89.3487C42.503 89.0295 42.896 88.6673 43.2488 88.2678C43.5171 88.0149 42.9269 87.3096 42.9806 86.3744C42.9806 86.1905 43.0266 86.0295 43.2029 85.9988C43.9694 85.8685 43.9694 87.7926 44.4063 87.9535C44.8433 88.1145 44.8586 87.5166 45.8398 86.9494C49.3199 84.918 45.2189 88.3215 45.2189 88.4135C45.2167 88.4583 45.2239 88.5032 45.2401 88.5451C45.2563 88.587 45.281 88.6251 45.3128 88.6568C45.3446 88.6886 45.3826 88.7134 45.4245 88.7296C45.4665 88.7457 45.5113 88.7529 45.5562 88.7507C45.9088 88.7507 46.0008 88.3598 47.0893 88.0992C47.2656 88.0532 47.6642 87.9842 47.6948 88.1605C47.7715 88.5285 46.3764 89.226 46.0468 89.4483C44.5597 89.9619 45.0732 90.5828 45.4488 90.4832C46.0544 90.3298 46.5757 89.6323 47.3039 89.8623C47.4955 89.9236 47.8175 90.1229 47.7792 90.3222C47.7408 90.5215 47.4419 90.7438 47.2732 90.8741C45.9854 91.8323 43.1262 92.1389 43.0495 92.1772C43.1109 92.8825 43.6705 93.856 43.5325 94.1549C41.3505 98.6558 38.3628 102.719 34.7171 106.144C34.6328 106.182 31.6509 109.057 31.053 108.957C30.4551 108.857 31.2677 108.742 33.0614 107.186C37.1632 103.461 40.5077 98.9788 42.9116 93.9863C42.6816 93.2197 41.3785 89.502 41.1485 88.7124C36.783 87.7992 32.2757 87.7992 27.9102 88.7124C19.5778 90.5445 16.5882 95.1514 16.182 95.2204C15.676 95.2358 17.5234 93.58 17.9527 93.1891H17.9144ZM27.2739 139.627C26.7834 138.967 26.5611 136.147 26.6607 133.494C27.5652 133.625 28.4621 133.732 29.3666 133.832C29.5046 134.161 29.4663 134.131 29.5353 134.207C29.244 135.234 28.0865 138.806 27.3123 139.627H27.2739ZM66.368 131.325C59.9332 132.554 53.4188 133.323 46.8746 133.625C35.7597 134.169 22.6976 133.433 12.4335 128.979C6.34713 126.35 4.32344 121.965 4.47675 117.719C4.65399 114.178 6.08291 110.814 8.5088 108.229C8.93285 109.31 9.48075 110.339 10.1416 111.295C11.0078 112.307 25.5415 112.981 40.1826 113.012C41.1689 112.045 42.2106 111.137 43.3025 110.291C48.4921 112.238 50.968 113.357 68.0084 123.981L66.368 131.325ZM69.3729 124.717C71.0976 125.323 73.1136 133.579 72.3854 134.905C71.8182 134.751 70.1701 132.781 68.5527 130.305C68.5215 130.256 68.4764 130.218 68.4231 130.195C68.3699 130.171 68.3109 130.165 68.2537 130.175L66.8893 130.459C67.0962 129.524 67.4412 127.875 68.0697 124.947C68.2497 124.799 68.4651 124.7 68.6948 124.659C68.9245 124.619 69.1608 124.639 69.3805 124.717H69.3729ZM68.223 124.158C68.223 124.027 68.292 123.928 68.223 123.866C68.2997 123.866 52.5318 113.832 48.3694 111.916C47.0049 111.287 45.5485 110.674 44.0231 110.069C47.3332 107.489 50.8364 105.167 54.5018 103.124C59.5074 103.737 64.6739 104.304 65.1568 104.135C66.8279 103.583 70.3617 100.349 72.991 97.773C75.8196 98.6929 79.3764 102.372 80.4189 107.041C81.2927 110.935 80.3422 115.404 75.7122 119.213C73.3823 121.101 70.8741 122.757 68.223 124.158ZM140.877 107.018C138.531 110.904 91.4955 129.248 88.3373 127.914C83.6635 125.789 79.1201 123.388 74.7311 120.724C77.2147 118.861 79.3304 116.891 80.4802 113.894C81.7297 114.583 88.322 118.117 89.2648 118.263C87.5478 120.693 86.6509 123.36 87.3255 126.243C87.8007 128.228 133.916 108.106 136.047 107.079C136.262 106.979 136.454 106.903 136.523 106.765C136.79 106.092 136.973 105.389 137.067 104.672C139.198 105.768 140.562 106.611 140.907 107.018H140.877ZM138.516 82.8866C135.227 79.3835 131.578 75.6657 128.152 72.2469C136.231 75.8957 142.379 78.8469 143.153 79.8511C142.64 80.7633 139.42 82.5034 138.546 82.8866H138.516Z" fill="black"/>
</svg>
