<svg width="155" height="155" viewBox="0 0 155 155" fill="none" xmlns="http://www.w3.org/2000/svg">
<path d="M150.765 114.104C150.721 113.909 150.559 113.838 150.382 113.72C150.382 113.72 150.773 104.861 150.773 104.76C150.773 101.439 146.02 98.6005 139.227 97.7083C139.557 97.5747 139.842 97.3502 140.05 97.0609C140.257 96.7717 140.378 96.4295 140.399 96.074C140.468 96.0594 140.531 96.0263 140.582 95.9782C140.634 95.93 140.67 95.8688 140.689 95.8012C143.106 87.0389 144.954 79.1444 143.073 71.263C141.183 63.1316 135.282 54.3778 128.721 49.9741C122.072 45.697 114.066 44.0545 106.27 45.368C106.215 45.237 106.162 45.1044 106.11 44.9679C106.818 45.0389 107.527 44.8485 108.104 44.4326C108.681 44.0168 109.086 43.4042 109.242 42.7105C109.389 41.8895 109.074 42.0505 109.451 42.0206C110.446 41.8318 111.327 41.2588 111.904 40.4255C112.497 39.4359 112.287 37.4927 111.186 36.8994C111.431 36.5125 111.624 36.0953 111.761 35.6584C112.333 33.7827 111.021 33.2546 109.837 32.5662C108.233 31.6832 108.635 28.6377 107.806 26.887C106.26 23.4115 102.419 20.0212 98.9523 21.3166C96.9505 20.4352 94.7315 20.1699 92.5783 20.5546C90.4251 20.9393 88.4353 21.9566 86.8626 23.4767C85.2229 25.1249 83.9821 27.1265 83.2353 29.3281C82.4885 31.5298 82.2554 33.8732 82.5539 36.1789C82.8527 37.5258 82.9735 38.9061 82.9134 40.2844C82.8329 41.3338 81.9169 42.2291 81.7314 43.4349C81.6278 43.8304 81.6345 44.2467 81.7507 44.6388C81.8669 45.0308 82.0881 45.3835 82.3905 45.6587C82.6929 45.934 83.0649 46.1212 83.4661 46.2C83.8673 46.2789 84.2824 46.2465 84.6665 46.1062C84.718 46.6377 84.9121 47.1454 85.2284 47.5757C85.5447 48.006 85.9713 48.3428 86.4632 48.5507C86.962 48.7327 87.5027 48.7669 88.0204 48.6493C88.5381 48.5317 89.011 48.2672 89.3822 47.8876C89.6451 48.2234 90.3641 48.7875 90.7412 48.75C91.1017 48.8156 91.4737 48.7439 91.784 48.549C92.0943 48.3541 92.3203 48.05 92.4176 47.6968C93.1461 48.2228 93.9819 48.5812 94.8652 48.746C95.7485 48.9109 96.6574 48.8782 97.5265 48.6503V48.6741C80.9978 53.1138 74.329 68.538 72.993 69.9422C72.6853 70.1509 72.3325 70.2836 71.9635 70.3293C68.0542 71.0461 64.7704 73.7588 61.8714 76.155C58.4986 78.9436 58.1667 78.9206 58.0541 79.1368C55.3865 78.1717 53.5576 78.9651 52.5726 80.492C50.2385 80.6568 49.6061 84.0556 49.0512 86.3613C48.7292 87.6982 48.2777 89.6643 48.6618 90.9804C48.6027 91.0571 48.5759 91.1215 45.2446 96.8444C44.7693 96.6865 44.2872 96.5526 43.7981 96.4427C43.5075 96.328 43.1969 96.2722 42.8846 96.2785C42.5722 96.2849 42.2641 96.3532 41.9784 96.4795C41.3583 96.839 40.8894 97.4108 40.6584 98.0893C40.4124 98.5814 40.1563 99.1678 39.8673 99.9059C39.6506 97.1992 39.6068 94.4815 39.7363 91.7692C39.9555 85.8577 39.6336 79.8274 39.3806 73.9443C42.2914 70.9923 44.8998 67.7568 47.167 64.286C47.218 64.3078 47.2732 64.3183 47.3286 64.3167C47.3841 64.3151 47.4385 64.3015 47.4882 64.2768C49.0933 63.4521 50.6541 62.5438 52.164 61.5556C53.3492 61.822 54.5805 61.8044 55.7575 61.5043C56.0588 62.884 57.5136 63.5547 58.6918 64.099C58.752 64.1267 58.8184 64.1383 58.8844 64.1327C58.9504 64.1271 59.0139 64.1044 59.0686 64.067C59.1232 64.0295 59.1673 63.9785 59.1964 63.919C59.2254 63.8594 59.2386 63.7934 59.2345 63.7272C59.2089 63.1045 58.9983 62.5035 58.6297 62.001C58.2611 61.4984 57.7511 61.1171 57.1649 60.9056C57.3757 60.7845 57.5765 60.6557 57.7666 60.5224C57.8323 60.5551 57.906 60.5684 57.9789 60.5605C58.0519 60.5526 58.1211 60.5239 58.1782 60.4779C58.7048 60.054 61.7855 62.0922 65.0402 61.2099C65.2449 61.154 66.2053 60.878 66.3288 61.049C66.3889 61.128 66.4774 61.1806 66.5756 61.1957C66.6737 61.2108 66.774 61.1872 66.8551 61.1298C66.9362 61.0725 66.9918 60.9859 67.0103 60.8883C67.0288 60.7907 67.0087 60.6897 66.9542 60.6067C65.9271 59.0736 62.7843 57.7069 59.7389 58.7563C60.4971 58.1447 61.101 57.3636 61.5019 56.4758C61.8809 55.536 62.1635 54.56 62.3451 53.563C62.3583 53.4868 62.3482 53.4083 62.316 53.3379C62.2838 53.2675 62.231 53.2085 62.1647 53.1687C62.0983 53.1289 62.0214 53.1101 61.9442 53.1148C61.8669 53.1195 61.7929 53.1475 61.7319 53.1951C60.6045 54.0442 59.5454 54.9804 58.5646 55.9952C58.1166 56.5299 57.7788 57.148 57.5707 57.8138C57.3626 58.4796 57.2882 59.18 57.3519 59.8746C56.9266 60.1773 56.4706 60.4342 55.9913 60.6412C55.0419 60.9523 54.0355 61.0497 53.044 60.9263C54.4238 59.8585 55.8533 58.4527 56.2964 56.6337C56.692 56.1307 57.0507 55.5996 57.3695 55.0447C58.0878 53.6067 58.2633 51.0235 58.1407 49.4429C58.1354 49.3764 58.1128 49.3124 58.0752 49.2573C58.0376 49.2021 57.9863 49.1578 57.9263 49.1286C57.8662 49.0994 57.7997 49.0864 57.7331 49.0908C57.6665 49.0953 57.6022 49.117 57.5466 49.1539C56.3951 49.9366 55.5121 51.0544 55.0171 52.3557C55.0123 52.3685 55.0082 52.3816 55.0048 52.3948C54.5984 53.884 54.7362 55.4693 55.3934 56.866C55.3988 56.8774 55.4049 56.8884 55.4118 56.899C54.4391 59.5941 50.2799 61.9512 47.7565 63.2803C52.3296 55.0677 49.38 51.7249 52.5718 42.7143C54.0507 42.2204 55.433 41.4743 56.6574 40.509C57.9835 40.5174 59.0781 40.9743 60.4602 40.8815C61.8534 40.7152 63.1782 40.1848 64.3013 39.3439C64.3489 39.3082 64.3875 39.2619 64.4141 39.2087C64.4407 39.1554 64.4546 39.0968 64.4546 39.0373C64.4546 38.316 61.0014 37.6813 58.9517 38.3075C60.0212 37.0335 60.8684 35.5883 61.4574 34.0326C62.0265 34.0986 62.6021 33.9872 63.1055 33.7137C63.4773 33.5742 63.8498 33.4117 64.2216 33.2484C65.3129 32.8868 66.3349 32.3425 67.244 31.6387C67.3005 31.5917 67.3424 31.5295 67.3645 31.4593C67.3866 31.3892 67.3881 31.3142 67.3688 31.2433C67.3495 31.1723 67.3102 31.1085 67.2556 31.0592C67.201 31.01 67.1334 30.9775 67.0608 30.9657C65.6033 30.7232 64.1064 30.9514 62.7874 31.6172C62.8825 31.2704 62.9129 30.9089 62.8771 30.551C62.8163 30.0828 62.8163 29.6088 62.8771 29.1406C62.9114 29.1035 62.9382 29.0601 62.9558 29.0127C62.9733 28.9653 62.9814 28.915 62.9795 28.8645C62.9777 28.814 62.9658 28.7643 62.9448 28.7184C62.9237 28.6724 62.8938 28.6311 62.8567 28.5967C62.8197 28.5624 62.7763 28.5356 62.7289 28.518C62.6815 28.5004 62.6311 28.4924 62.5806 28.4943C62.5301 28.4961 62.4805 28.508 62.4345 28.529C62.3886 28.5501 62.3473 28.58 62.3129 28.617C61.0742 29.7032 59.9213 31.8165 60.8458 33.4753C60.1836 35.3403 59.1342 37.0439 57.7666 38.4743C56.3989 39.9047 54.744 41.0295 52.9106 41.7745C54.7426 36.9216 57.309 32.2573 58.353 27.1445C60.2609 27.0403 60.6802 25.1707 61.436 24.2647C61.4862 24.2024 61.5157 24.126 61.5202 24.0461C61.5248 23.9662 61.5043 23.8869 61.4615 23.8193C61.4188 23.7516 61.3559 23.6991 61.2818 23.669C61.2076 23.6389 61.1259 23.6328 61.0481 23.6515C60.1517 23.8242 59.3466 24.312 58.7784 25.0266C58.7784 23.8669 58.1069 23.7074 57.3918 21.0844C57.3702 21.0049 57.3237 20.9345 57.259 20.8836C57.1943 20.8326 57.115 20.8039 57.0327 20.8015C56.9504 20.7992 56.8695 20.8235 56.8021 20.8707C56.7346 20.9179 56.6842 20.9855 56.6582 21.0637C56.3657 21.9707 56.2662 22.929 56.3661 23.8768C56.4727 24.8711 56.9431 25.7909 57.6869 26.4593C57.1752 28.3367 56.5186 30.1717 55.723 31.9476C55.4433 30.8937 55.331 29.8024 55.3904 28.7136C55.3962 28.6123 55.3617 28.5128 55.2943 28.4369C55.2269 28.3611 55.1322 28.315 55.0309 28.3089C54.9806 28.3059 54.9302 28.3128 54.8826 28.3293C54.835 28.3458 54.7911 28.3715 54.7534 28.405C54.7158 28.4384 54.6851 28.479 54.6631 28.5243C54.6411 28.5697 54.6283 28.6189 54.6254 28.6692C54.5474 30.1462 54.7578 31.6242 55.2447 33.0208C53.1452 37.6468 50.5635 42.2621 49.6866 47.3963C49.4781 48.6994 49.3854 50.0431 49.265 51.3508C47.6722 49.1684 46.6472 46.624 46.2824 43.9469C47.0419 43.5765 47.6748 42.9898 48.1014 42.2605C48.1612 42.1647 48.5744 40.7206 48.7591 40.4255C48.8243 40.3698 48.8689 40.294 48.886 40.21C48.903 40.126 48.8914 40.0388 48.853 39.9622C48.8146 39.8856 48.7516 39.8241 48.6742 39.7874C48.5967 39.7508 48.5092 39.7412 48.4257 39.7601C47.9734 39.8721 47.5485 40.0743 47.1764 40.3546C46.8042 40.6349 46.4926 40.9875 46.2602 41.3913C46.0023 41.8881 45.7908 42.4077 45.6286 42.9435C45.1044 41.7929 44.4399 40.7115 43.6502 39.7241C43.623 39.648 43.5725 39.5824 43.5059 39.5368C43.4393 39.4911 43.3599 39.4676 43.2791 39.4698C43.1984 39.4719 43.1204 39.4995 43.0562 39.5486C42.9921 39.5977 42.9451 39.6658 42.922 39.7432C42.6831 40.5002 42.6885 41.3132 42.9374 42.067C43.1863 42.8207 43.666 43.4771 44.3086 43.9431C43.5625 43.6204 42.7831 43.3811 41.9845 43.2294C41.9081 43.2156 41.8294 43.2252 41.7586 43.2571C41.6878 43.289 41.6284 43.3416 41.5882 43.408C41.3636 43.7783 41.8389 44.0212 42.1915 44.6345C42.6067 45.27 43.1844 45.7829 43.8647 46.1198C44.5449 46.4568 45.303 46.6056 46.0601 46.5508C46.6844 48.7031 47.7355 50.7078 49.1508 52.4454C48.3544 59.3595 44.5616 64.9644 39.1744 69.2002C38.8011 60.4618 38.516 51.5271 39.3208 42.7488C44.1323 38.8456 46.0211 31.4271 45.9682 25.2152C46.6886 24.708 47.3013 24.0629 47.7706 23.3173C48.24 22.5716 48.5567 21.7402 48.7024 20.8713C48.7135 20.8002 48.7045 20.7275 48.6763 20.6614C48.6481 20.5952 48.6018 20.5384 48.5428 20.4973C48.4838 20.4562 48.4144 20.4325 48.3426 20.429C48.2708 20.4254 48.1994 20.4422 48.1367 20.4773C46.1115 21.6163 45.0706 23.0835 45.1702 24.6288C44.9108 23.8805 44.5278 23.1809 44.0373 22.5592C43.7644 22.2194 43.5199 21.858 43.306 21.4783C43.3119 21.3855 43.2839 21.2936 43.2271 21.2199C43.1703 21.1462 43.0886 21.0957 42.9973 21.0778C42.906 21.0599 42.8113 21.0758 42.7309 21.1225C42.6505 21.1693 42.5898 21.2437 42.5602 21.3319C42.1677 22.4787 42.1677 23.7235 42.5602 24.8702C42.5672 24.8917 42.5762 24.9125 42.587 24.9323C43.173 26.009 44.059 26.8926 45.1372 27.4757C45.0377 29.0225 44.8092 30.5584 44.4543 32.0672C42.9425 29.6426 41.8398 26.9859 41.1904 24.2034C41.1796 24.1536 41.159 24.1064 41.1298 24.0647C41.1006 24.0229 41.0634 23.9874 41.0203 23.9602C40.9772 23.933 40.9291 23.9147 40.8789 23.9063C40.8286 23.8979 40.7772 23.8996 40.7276 23.9113C40.678 23.9231 40.6313 23.9446 40.5901 23.9746C40.5489 24.0046 40.5141 24.0425 40.4878 24.0861C40.4614 24.1297 40.444 24.1781 40.4366 24.2285C40.4292 24.2789 40.4319 24.3303 40.4445 24.3797C40.5171 24.6863 40.5938 24.9929 40.6745 25.2995C40.0535 24.9069 39.5235 24.3861 39.12 23.7721C38.7165 23.158 38.4489 22.4648 38.3351 21.739C38.8065 21.597 39.2436 21.3591 39.6189 21.0403C39.9942 20.7215 40.2995 20.3286 40.5158 19.8863C40.9698 18.9842 41.3456 18.0448 41.6388 17.0785C41.661 17.0041 41.6601 16.9247 41.6362 16.8508C41.6123 16.777 41.5666 16.7121 41.505 16.6648C41.4434 16.6175 41.3689 16.59 41.2914 16.586C41.2139 16.582 41.1369 16.6016 41.0708 16.6423C39.8572 17.4057 38.8136 18.4105 38.0047 19.5942C37.6781 17.9002 37.1224 17.9009 36.4141 16.0099C36.3859 15.9348 36.3349 15.8705 36.2682 15.8259C36.2015 15.7814 36.1225 15.7589 36.0424 15.7616C35.9622 15.7643 35.8849 15.7921 35.8214 15.841C35.7579 15.89 35.7113 15.9576 35.6882 16.0344C35.4099 16.9877 35.3753 17.9956 35.5878 18.9657C35.9086 20.0117 36.5869 20.9117 37.5041 21.5082C37.6102 22.2981 37.8536 23.0634 38.2231 23.7695C37.023 23.5383 35.7799 23.7732 34.7469 24.4264C34.6948 24.4598 34.6516 24.5053 34.6209 24.5591C34.5902 24.6128 34.573 24.6732 34.5708 24.7351C34.5685 24.7969 34.5813 24.8584 34.6079 24.9142C34.6346 24.9701 34.6744 25.0186 34.7239 25.0557C35.1686 25.3901 35.7076 25.5753 36.2639 25.5847C37.2541 25.6493 38.2443 25.4579 39.1391 25.0289C39.6642 25.5769 40.2885 26.0204 40.9788 26.3359C41.7231 28.7234 42.8049 30.9923 44.1913 33.0737C43.2838 36.3368 41.9102 39.3784 39.4235 41.6473C39.5804 40.1173 39.7736 38.5927 40.003 37.0734C40.0184 36.9764 39.996 36.8771 39.9403 36.7962C39.8847 36.7152 39.8001 36.6587 39.7039 36.6383C39.6078 36.618 39.5076 36.6353 39.4239 36.6867C39.3401 36.7382 39.2794 36.8198 39.2541 36.9147C37.8354 42.3264 36.952 47.8644 36.6165 53.4488C33.6201 52.1718 31.4907 48.2609 30.6582 45.9736C30.5233 45.5137 30.5479 45.6325 30.5724 45.5298C31.787 40.5226 32.2223 35.3582 31.8632 30.2183C31.856 30.1167 31.8087 30.0221 31.7317 29.9553C31.6548 29.8885 31.5544 29.8551 31.4528 29.8623C31.3511 29.8695 31.2565 29.9168 31.1897 29.9938C31.1229 30.0708 31.0895 30.1711 31.0967 30.2728C31.4211 34.8605 31.0968 39.4712 30.1332 43.9684C29.9373 43.1112 29.8107 42.2396 29.7545 41.3622L28.8347 34.2219C28.8316 34.1203 28.7883 34.024 28.7143 33.9543C28.6403 33.8846 28.5416 33.8471 28.4399 33.8502C28.3383 33.8532 28.242 33.8965 28.1723 33.9705C28.1025 34.0446 28.0651 34.1433 28.0681 34.2449C28.013 35.0781 27.9953 35.8546 28.0168 36.5897C26.9914 35.4348 26.2158 34.0803 25.7387 32.6114C25.2616 31.1424 25.0932 29.5907 25.2442 28.0536C25.2621 28.0373 25.278 28.0191 25.2918 27.9992C26.0767 28.0552 26.7604 26.9721 26.8371 26.9161C27.6 25.9797 28.2302 24.9425 28.7097 23.8339C28.7547 23.7424 28.7614 23.6368 28.7285 23.5404C28.6956 23.4439 28.6257 23.3645 28.5342 23.3196C28.4427 23.2746 28.3371 23.2679 28.2407 23.3008C28.1442 23.3337 28.0648 23.4036 28.0198 23.4951C27.676 23.7323 27.3084 23.9332 26.9229 24.0945C26.194 24.4814 25.5888 25.0658 25.1768 25.7809C24.9288 24.0598 24.3529 22.4022 23.4805 20.8981C23.4438 20.8355 23.3902 20.7846 23.3258 20.7513C23.2614 20.718 23.1889 20.7036 23.1166 20.7099C23.0444 20.7162 22.9754 20.7428 22.9177 20.7867C22.86 20.8306 22.8159 20.8899 22.7906 20.9579C22.3788 22.1095 22.3062 23.3551 22.5815 24.5468C22.8568 25.7385 23.4684 26.826 24.3436 27.6803C24.3881 27.7246 24.4429 27.7573 24.503 27.7754C24.2919 29.6041 24.5062 31.4569 25.1292 33.1891C25.7521 34.9214 26.7668 36.4863 28.0942 37.7618C28.8753 46.2741 28.8347 49.5165 36.4379 56.5533C36.2079 61.666 36.2493 66.8018 36.3459 71.8839C34.0711 70.2959 31.8874 68.5813 29.8051 66.7481C27.5247 64.8681 25.5163 62.6804 23.8377 60.2479C22.0808 57.6417 21.0858 54.607 20.1897 51.5953C20.2503 51.5456 20.2942 51.4784 20.3155 51.4029C21.1219 48.4228 21.0985 45.279 20.248 42.3111C20.6857 42.167 21.0299 41.5814 21.3978 40.8923C21.9938 39.6911 22.2869 38.3625 22.2517 37.0221C22.2517 36.9509 22.2319 36.8811 22.1945 36.8206C22.157 36.76 22.1035 36.7111 22.0398 36.6793C21.9762 36.6474 21.9049 36.6339 21.834 36.6403C21.7631 36.6467 21.6954 36.6727 21.6385 36.7154C21.0566 37.1414 20.566 37.6796 20.1958 38.2984C19.8256 38.9173 19.5832 39.604 19.483 40.3181C19.419 40.5798 19.378 40.8465 19.3604 41.1153C18.3892 40.1602 17.8518 40.1733 15.2655 38.8778C15.1985 38.8446 15.1232 38.8318 15.0489 38.8409C14.9746 38.85 14.9046 38.8807 14.8476 38.9291C14.7905 38.9775 14.7489 39.0416 14.7278 39.1134C14.7067 39.1852 14.7071 39.2616 14.729 39.3331C15.0925 40.6037 15.9266 41.6878 17.0615 42.3648C17.4172 42.6315 19.3772 43.3061 19.6907 43.5912C19.7159 43.6439 19.7525 43.6903 19.798 43.7269C20.2474 45.8864 20.2494 48.115 19.8042 50.2754L19.4914 49.1823C19.4776 49.1339 19.4544 49.0886 19.4232 49.0492C19.3919 49.0097 19.3532 48.9768 19.3092 48.9523C19.2652 48.9279 19.2168 48.9123 19.1668 48.9065C19.1168 48.9007 19.0661 48.9048 19.0177 48.9186C18.9693 48.9324 18.9241 48.9556 18.8846 48.9869C18.8452 49.0181 18.8122 49.0569 18.7878 49.1009C18.7633 49.1448 18.7477 49.1932 18.7419 49.2432C18.7361 49.2932 18.7402 49.3439 18.754 49.3923C19.4661 52.1473 20.3757 54.8474 21.476 57.4716C18.7794 56.5335 16.5274 54.6273 15.1567 52.1227C15.1104 52.0382 15.034 51.9742 14.9426 51.9436C14.8513 51.9129 14.7517 51.9177 14.6638 51.9571C14.0361 51.4831 13.3065 51.1621 12.5329 51.0197C11.4027 50.7455 10.2274 50.7121 9.08348 50.9216C9.01394 50.933 8.94891 50.9635 8.89554 51.0095C8.84217 51.0555 8.80254 51.1154 8.78099 51.1825C8.75944 51.2496 8.75681 51.3214 8.77339 51.3899C8.78997 51.4584 8.82513 51.521 8.87498 51.5708C9.62743 52.3602 10.6021 52.9021 11.6698 53.1246C11.8609 53.1936 12.0505 53.2528 12.2385 53.3024C11.2319 53.6108 10.3043 54.1343 9.52012 54.8367C8.7359 55.5391 8.11377 56.4037 7.69682 57.3704C7.67201 57.4269 7.66123 57.4887 7.6654 57.5503C7.66958 57.6119 7.68859 57.6716 7.72081 57.7243C7.75302 57.777 7.7975 57.8211 7.85045 57.8529C7.9034 57.8847 7.96324 57.9033 8.0249 57.9069C9.63282 58.0196 11.2465 57.7931 12.7613 57.2424C14.0714 56.6993 15.1636 55.7358 15.8657 54.5036C17.4453 56.3849 19.5558 57.7458 21.9213 58.4083C23.7553 61.8509 26.268 64.8861 29.3076 67.3307C31.5486 69.3029 33.9058 71.139 36.3666 72.829C36.6952 82.1233 36.5568 91.4281 35.9519 100.708C35.844 102.301 35.4817 103.866 34.8788 105.344C34.8672 105.371 34.8592 105.401 34.855 105.43C31.6268 106.675 28.6136 108.418 25.9249 110.596C25.4145 111.012 24.8484 111.355 24.2432 111.614C23.4275 111.681 22.6065 111.617 21.811 111.425C16.4567 110.953 12.3619 117.045 7.89919 118.775C5.60573 119.72 4.4498 120.907 4.36778 122.404C4.36213 122.505 4.39699 122.605 4.46469 122.68C4.53238 122.756 4.62739 122.802 4.72882 122.808C4.83025 122.813 4.92978 122.778 5.00552 122.711C5.08127 122.643 5.12704 122.548 5.13278 122.447C5.19793 121.274 6.19826 120.305 8.18357 119.487C12.7138 117.73 16.8392 111.751 21.6937 112.18C22.5715 112.39 23.4779 112.455 24.3765 112.37C25.1178 112.094 25.8065 111.694 26.4132 111.186C29.0525 109.051 32.0112 107.344 35.1808 106.127C40.7665 104.069 41.5744 106.675 44.4274 107.863C49.2566 109.873 54.0313 106.572 57.2415 112.011C58.7409 114.433 58.9831 115.595 61.702 117.541C63.0587 118.513 63.465 118.904 63.9839 121.078C64.2997 122.404 64.5558 122.908 67.3513 123.622C68.1288 123.811 68.8548 124.169 69.4776 124.672C70.1004 125.174 70.6045 125.808 70.954 126.528C70.9754 126.573 71.0056 126.614 71.0429 126.648C71.0801 126.682 71.1237 126.708 71.171 126.725C71.2184 126.742 71.2687 126.75 71.319 126.747C71.3692 126.745 71.4186 126.733 71.4641 126.711C71.5097 126.69 71.5506 126.659 71.5844 126.622C71.6183 126.585 71.6445 126.541 71.6616 126.494C71.6786 126.447 71.6862 126.396 71.6838 126.346C71.6814 126.296 71.6692 126.247 71.6477 126.201C71.2506 125.379 70.6767 124.655 69.9671 124.081C69.2575 123.506 68.4297 123.096 67.5429 122.879C63.8283 121.931 65.4825 121.741 63.9402 118.663C63.2504 117.481 62.109 117 61.2022 116.185C59.4246 114.673 59.1019 113.557 57.8977 111.613C54.8668 106.477 50.5926 108.401 46.3775 107.623C47.5488 106.027 48.8771 103.777 49.8744 102.741C50.3187 102.313 50.6142 101.754 50.7176 101.145C50.8954 99.919 49.5103 98.9991 48.4586 98.346C51.9011 92.4851 51.7049 92.8431 51.7225 92.7381C53.1127 92.3573 54.3907 91.6474 55.4486 90.6685C55.1947 92.9582 55.8559 95.2555 57.2883 97.0598C58.8256 98.6362 60.6254 99.9331 62.6072 100.892C69.5024 104.44 76.8243 107.087 84.3936 108.769C80.0657 112.791 75.7509 117.719 74.8595 124.847C74.2048 129.861 77.7884 131.528 82.8452 131.528C93.523 131.528 107.696 125.065 116.54 118.813C116.537 119.43 116.398 120.038 116.133 120.594C115.868 121.151 115.483 121.642 115.007 122.033C114.074 122.759 112.902 123.464 113.125 124.686C113.185 125.024 113.342 125.338 113.576 125.589C113.811 125.839 114.113 126.017 114.446 126.1C116.218 126.282 117.991 125.766 119.388 124.661L119.71 132.038C119.71 136.154 126.271 139.378 134.648 139.378C143.025 139.378 149.497 136.154 149.586 132.055C149.622 130.376 149.618 130.608 149.73 130.556C149.793 130.526 149.847 130.48 149.886 130.423C149.926 130.365 149.948 130.297 149.952 130.228C150.846 113.028 150.784 114.183 150.765 114.104ZM58.3315 63.078C57.5717 62.7973 56.9421 62.2462 56.5631 61.5303C56.9671 61.6122 57.3427 61.798 57.6528 62.0694C57.9629 62.3408 58.1969 62.6884 58.3315 63.078ZM64.3266 59.6286C64.786 59.7649 65.215 59.9879 65.5906 60.2855C65.0394 60.3897 64.4086 60.6159 64.1303 60.6189C62.4586 60.6984 60.7893 60.4179 59.2353 59.7964C60.022 59.4046 60.884 59.1873 61.7625 59.1594C62.6409 59.1315 63.515 59.2936 64.325 59.6347L64.3266 59.6286ZM59.1241 56.5119C59.8152 55.7817 60.5603 55.1048 61.3532 54.4867C60.5683 57.4631 59.8378 57.5405 58.097 59.1794C58.1388 58.2028 58.499 57.2668 59.1226 56.5142L59.1241 56.5119ZM55.7391 52.6026C56.094 51.6833 56.6654 50.8631 57.4048 50.2117C57.4117 51.1385 57.3404 52.0642 57.1917 52.9789C57.0434 54.0763 56.5765 55.1061 55.8487 55.9408C55.4827 54.8653 55.444 53.7054 55.7376 52.6079L55.7391 52.6026ZM65.9079 31.6364C65.269 31.9934 64.6026 32.2987 63.9149 32.5493C63.5547 32.7027 63.1959 32.8644 62.7736 33.0292C62.5851 33.1374 62.3787 33.2108 62.1642 33.2461C62.2583 33.0881 62.3432 32.9248 62.4187 32.7571C63.4352 32.0263 64.656 31.6342 65.9079 31.6364ZM62.0753 30.0167C62.0883 30.3103 62.119 30.7488 62.1282 30.8515C62.0841 31.3448 61.967 31.8289 61.7809 32.288C61.6278 32.4224 61.4875 32.5708 61.3616 32.731C61.2759 32.2537 61.2957 31.7634 61.4195 31.2945C61.5433 30.8257 61.7682 30.3895 62.0783 30.0167H62.0753ZM59.489 38.9483C60.2995 38.7917 61.1297 38.7643 61.9488 38.8671C62.0776 38.8778 62.7038 39.0204 63.2097 39.1515C62.3448 39.6665 61.3815 39.9948 60.382 40.115C59.4161 40.0959 58.4539 39.9887 57.5075 39.7946C58.1203 39.4118 58.7887 39.1263 59.489 38.9483ZM47.7534 40.8831C47.6768 41.1084 47.4269 41.8911 47.4269 41.8911C47.1632 42.3162 46.8215 42.6876 46.4197 42.9857C46.615 42.1547 47.0849 41.4139 47.7534 40.8831ZM43.5245 40.8631C44.1575 41.6835 44.6764 42.5861 45.0667 43.546C44.5948 43.2756 44.2031 42.8848 43.9317 42.4134C43.6604 41.942 43.519 41.407 43.5222 40.8631H43.5245ZM42.8361 44.2274C43.4651 44.4178 44.0767 44.6614 44.6643 44.9556C45.0249 45.1503 45.3217 45.445 45.519 45.8042C44.9812 45.7631 44.46 45.5996 43.995 45.3264C43.5301 45.0531 43.1337 44.6772 42.8361 44.2274ZM43.2761 24.6004C43.0554 23.9377 42.9845 23.2342 43.0684 22.5408C43.365 22.9547 43.7682 23.469 43.8725 23.6622C44.3985 24.4369 44.6887 25.3475 44.708 26.2837C44.1228 25.8239 43.6359 25.2512 43.2761 24.5997V24.6004ZM36.224 17.4663C36.3973 17.7997 36.5941 18.1204 36.8127 18.426C37.1191 19.04 37.297 19.7101 37.3355 20.3952C36.936 20.0263 36.6278 19.5697 36.435 19.0612C36.2423 18.5528 36.1703 18.0066 36.2248 17.4656L36.224 17.4663ZM40.5235 17.9845C40.3234 18.5057 40.0927 19.0285 39.8336 19.5475C39.5141 20.2024 38.9538 20.7085 38.2699 20.9602C38.4278 19.9759 39.5209 18.8001 40.5243 17.9837L40.5235 17.9845ZM36.3321 24.8273C36.1505 24.8273 35.9699 24.8015 35.7955 24.7507C36.5581 24.4478 37.3935 24.3785 38.1955 24.5514C37.6092 24.8047 36.9667 24.8999 36.3321 24.8273ZM47.7274 21.6493C47.379 22.6694 46.7595 23.5754 45.9352 24.2701C46.0281 23.7301 46.2362 23.2165 46.5455 22.7643C46.8548 22.312 47.2579 21.9317 47.7274 21.6493ZM25.7387 26.3106C26.0623 25.7711 26.4833 25.2965 26.9804 24.9109C27.0418 24.8802 27.0571 24.8725 27.4189 24.7039C26.8448 25.7096 25.5394 27.4849 25.3324 27.2158C25.3278 27.1537 25.324 27.0917 25.3186 27.0296C25.4182 26.7684 25.5601 26.5255 25.7387 26.3106ZM23.2635 22.1107C23.9558 23.568 24.3838 25.1367 24.5275 26.7436C23.9901 26.1113 23.5983 25.3685 23.3798 24.5679C23.1614 23.7673 23.1217 22.9284 23.2635 22.1107ZM20.235 40.4569C20.3633 39.502 20.7873 38.6113 21.4476 37.9097C21.3853 38.6939 21.2044 39.4641 20.911 40.194C20.6778 40.6436 20.4178 41.0787 20.1322 41.4971C20.1163 41.1472 20.1509 40.7969 20.235 40.4569ZM17.4854 41.7224C16.7911 41.3175 16.2227 40.7279 15.8435 40.0192C18.0588 41.0402 18.6881 41.1115 19.3289 42.5311C18.7096 42.2559 17.6916 41.8727 17.4854 41.7224ZM10.0501 51.5762C10.8217 51.5146 11.5982 51.5777 12.3497 51.7632C13.0696 51.8739 13.7425 52.1892 14.2882 52.6715C13.4714 52.7874 12.6384 52.6897 11.8706 52.3879C11.2098 52.2597 10.5871 51.9821 10.0501 51.5762ZM12.493 56.5249C11.264 56.9734 9.96227 57.1897 8.65422 57.1626C9.15474 56.2328 9.87467 55.4391 10.7515 54.8505C11.6283 54.262 12.6355 53.8963 13.6857 53.7853C14.8202 53.632 15.1766 53.8183 15.2081 53.9386C15.3345 54.4514 13.7854 56.032 12.493 56.5249ZM114.084 98.6396C114.445 98.6304 114.804 98.5888 115.158 98.5154L119.029 102.928C118.652 103.572 118.481 104.315 118.539 105.059L118.854 112.265L114.084 98.6396ZM88.0614 68.055C88.1825 66.3587 88.3634 64.6003 88.5144 62.2869C88.506 61.9658 88.5766 61.6474 88.7202 61.36C88.8638 61.0726 89.0758 60.825 89.3377 60.6389C89.9785 60.5476 89.7041 62.3781 89.6129 63.5685L88.6256 76.5628C88.3473 78.5397 87.6996 78.7688 87.1232 78.9076C87.3907 78.125 87.9809 69.1282 88.0576 68.0528L88.0614 68.055ZM55.2654 86.4709C55.2958 86.5476 55.3006 86.632 55.2792 86.7116C55.0201 87.5433 52.9566 89.2021 51.8651 89.5662C51.7884 89.59 51.6635 89.6053 51.4274 89.4612C50.8142 88.5912 51.3967 86.3184 52.1426 85.0866C52.2581 85.1891 52.4018 85.2543 52.555 85.2738C52.7082 85.2932 52.8637 85.2659 53.0011 85.1954C53.0249 85.4194 53.1309 85.6266 53.2985 85.777C53.4661 85.9275 53.6834 86.0106 53.9086 86.0103C54.04 86.0006 54.1625 85.9404 54.2505 85.8424C54.3525 85.7657 54.3042 85.7489 54.3525 85.9612C54.3742 86.0574 54.4159 86.148 54.4749 86.2271C54.534 86.3061 54.609 86.3718 54.6951 86.4199C54.7813 86.468 54.8766 86.4974 54.9748 86.5062C55.0731 86.515 55.1721 86.503 55.2654 86.4709ZM83.857 77.9004C84.8917 77.2885 85.8548 76.563 86.7284 75.7372C86.6502 76.5508 86.5675 77.3454 86.4801 78.1211C86.4926 78.3976 86.4211 78.6714 86.2751 78.9066C86.1292 79.1418 85.9155 79.3273 85.6622 79.4388L82.13 81.5215C74.2654 80.423 75.8084 82.6306 83.857 77.9004ZM126.111 85.3403C126.341 84.8735 126.165 85.0705 126.279 79.6856C126.443 76.4994 126.227 73.3051 125.636 70.1699C128.098 72.7868 129.679 73.4813 130.056 76.9759C130.769 83.0407 135.405 88.6165 134.451 94.8192C134.443 94.8753 134.448 94.9323 134.465 94.9863C132.184 96.317 131.64 96.4857 130.832 97.6263C129.48 97.7732 128.14 98.0109 126.82 98.3376C127.517 94.1354 127.127 89.8245 125.687 85.8156C125.873 85.7039 126.021 85.5381 126.11 85.3403H126.111ZM140.232 106.681C142.567 107.027 144.848 107.671 147.02 108.598C141.265 111.946 130.048 112.313 123.315 109.141C127.933 106.269 135.163 105.994 140.231 106.681H140.232ZM137.306 97.5105C136.92 97.604 136.558 97.7787 136.244 98.0231C135.931 98.2675 135.673 98.5759 135.487 98.9278C135.172 99.5955 135.435 100.449 135.415 101.085C135.405 101.425 135.303 101.558 135.27 101.565C135.236 101.573 135.152 101.525 135.082 101.384C134.671 100.556 134.465 99.6413 134.482 98.717C134.482 98.6154 134.441 98.5179 134.37 98.446C134.298 98.3742 134.2 98.3338 134.098 98.3338C133.997 98.3338 133.899 98.3742 133.827 98.446C133.756 98.5179 133.715 98.6154 133.715 98.717C133.715 98.717 133.723 100.932 133.727 101.025C133.776 102.159 132.803 102.117 132.825 100.818C132.84 99.9749 132.873 99.1555 132.924 98.3759C132.933 98.2743 132.901 98.1734 132.835 98.0955C132.769 98.0176 132.675 97.969 132.573 97.9605C132.471 97.9519 132.371 97.9841 132.293 98.05C132.215 98.1158 132.166 98.2099 132.158 98.3115L131.884 100.962C131.849 100.906 131.821 100.846 131.8 100.783C131.417 99.7335 131.134 98.7968 131.478 98.0233C131.892 97.4396 132.45 96.9725 133.098 96.6673L135.8 95.0906C137.104 95.2628 138.394 95.5258 139.66 95.8778C139.548 97.1334 138.701 97.0414 137.306 97.5105H137.306ZM106.045 34.5393C106.24 34.5392 106.433 34.5825 106.61 34.6662C106.786 34.7499 106.942 34.8719 107.066 35.0232C107.189 35.1745 107.278 35.3514 107.324 35.5411C107.371 35.7307 107.375 35.9284 107.336 36.1199C107.011 37.4669 106.317 38.6967 105.331 39.6712C105.874 37.9128 104.159 34.5393 106.045 34.5393ZM98.0309 51.5746C98.1221 51.9403 98.671 51.8491 98.671 51.3914L98.1221 48.0954C98.0309 47.9122 97.9389 47.8202 97.7557 47.9122C94.2512 49.0459 89.6244 46.317 88.506 39.3324C88.6194 38.7875 88.8203 38.2646 89.1008 37.784C90.0375 36.4165 91.7645 35.512 92.7319 33.9759C92.9971 34.6466 93.9882 34.8635 94.9694 33.473C95.5412 34.9938 98.0355 35.1157 98.776 31.4149C99.5419 32.2286 100.167 33.1643 100.625 34.1836C101.025 34.9305 101.317 35.7306 101.492 36.5598C101.492 37.8583 101.463 39.4198 102.754 39.5493C102.285 40.9567 101.309 43.1267 102.125 44.3064C102.277 44.5126 102.477 44.6782 102.708 44.7886C102.939 44.899 103.193 44.9508 103.449 44.9394C103.705 44.928 103.954 44.8539 104.174 44.7234C104.394 44.5929 104.579 44.4102 104.712 44.1914C104.845 44.3525 105 44.4944 105.172 44.613C105.499 45.6139 105.942 46.5732 106.492 47.4714C106.518 47.5143 106.553 47.5515 106.594 47.581C106.635 47.6106 106.681 47.6317 106.73 47.6434C106.779 47.655 106.83 47.6569 106.879 47.6489C106.929 47.6409 106.977 47.6232 107.02 47.5967C107.063 47.5703 107.1 47.5357 107.129 47.4949C107.159 47.454 107.18 47.4078 107.192 47.3588C107.203 47.3098 107.205 47.259 107.197 47.2092C107.189 47.1595 107.171 47.1119 107.145 47.069C106.949 46.7501 106.769 46.4259 106.602 46.087C107.149 46.0037 107.696 45.934 108.242 45.8778C107.943 50.4003 105.95 54.3587 102.885 56.0864C102.237 56.4235 101.529 56.6285 100.802 56.6896C100.074 56.7506 99.3419 56.6665 98.6472 56.4421C98.1869 56.2587 97.7711 55.9793 97.4274 55.6224C97.0837 55.2655 96.8201 54.8394 96.6542 54.3725C96.125 52.9013 96.0505 51.305 96.4404 49.7909C96.8451 49.6637 97.2539 49.5444 97.6668 49.433L98.0309 51.5746ZM54.3686 79.829C55.1642 79.4411 56.0738 79.3567 56.9272 79.5913C58.4251 80.003 59.7948 80.6238 60.3452 81.792C60.6219 82.3784 60.7285 83.5328 60.1919 83.7084C59.4039 83.9713 58.6129 84.2656 57.7313 84.5324C57.588 84.5209 57.519 84.4803 57.509 84.4557C57.4769 84.3714 57.5566 84.0602 58.0088 83.6386C58.4008 83.3809 58.8233 83.1731 59.2667 83.02C59.3619 82.9844 59.4391 82.9123 59.4812 82.8197C59.5234 82.7271 59.527 82.6216 59.4913 82.5264C59.4556 82.4311 59.3836 82.354 59.291 82.3118C59.1984 82.2697 59.0929 82.2661 58.9976 82.3018C57.9276 82.6143 56.9879 83.2655 56.3194 84.1576C56.0172 84.7557 55.5962 85.286 55.0822 85.7159C54.9427 84.7961 55.861 83.204 56.4965 82.3861C56.5529 82.3134 56.5814 82.2229 56.5766 82.131C56.5718 82.0391 56.5341 81.952 56.4704 81.8856C56.4067 81.8191 56.3212 81.7779 56.2296 81.7693C56.138 81.7607 56.0463 81.7854 55.9714 81.8388C55.2878 82.3081 54.7627 82.9736 54.4652 83.7475C54.288 84.253 54.0698 84.7431 53.8128 85.2131C53.7362 85.1433 53.7362 84.9272 53.7362 84.8298C53.8391 83.5743 54.169 82.348 54.7097 81.2103C54.7476 81.1285 54.7554 81.036 54.7319 80.949C54.7084 80.8621 54.655 80.7861 54.5811 80.7346C54.5071 80.6831 54.4174 80.6593 54.3277 80.6674C54.2379 80.6754 54.1539 80.7148 54.0903 80.7787C53.298 81.6255 52.8356 82.7283 52.7872 83.887C52.7872 84.6075 52.5573 84.665 52.5404 84.1867C52.312 82.8606 52.8271 80.643 54.3686 79.829ZM41.3697 98.3652C41.5432 97.8496 41.8971 97.4141 42.3662 97.1388C41.6656 99.8837 41.1521 102.258 40.7696 104.509C40.4348 103.565 40.1932 102.591 40.0482 101.601C40.4285 100.499 40.8697 99.4184 41.3697 98.3652ZM59.5802 25.2987C59.7493 25.0923 59.9555 24.9191 60.1881 24.7882C59.7504 25.5548 59.384 26.1074 58.7225 26.3083C58.9697 25.9407 59.2574 25.602 59.5802 25.2987ZM57.112 22.6925C57.7252 24.2823 57.9989 24.3705 58.018 24.953C57.9766 25.1585 57.9345 25.3677 57.9007 25.5785C57.5715 25.1811 57.3308 24.7181 57.1948 24.2203C57.0588 23.7225 57.0305 23.2014 57.112 22.6918V22.6925ZM49.3248 102.21C48.2126 103.365 46.7293 105.906 45.5634 107.436C44.5503 107.138 43.6024 106.652 42.7694 106.004C44.8211 103.842 47.2559 102.079 49.9503 100.804C49.9522 101.07 49.8974 101.332 49.7896 101.575C49.6817 101.817 49.5232 102.034 49.3248 102.21ZM49.5701 100.137C46.7646 101.467 44.2377 103.318 42.124 105.593C41.8994 105.456 41.6695 105.325 41.4341 105.21C41.8327 102.739 42.3908 100.138 43.1818 97.0667C43.3148 97.0871 43.4451 97.1221 43.5705 97.171C45.7866 97.643 47.8492 98.6626 49.5701 100.137ZM45.9774 97.1058L49.058 91.8167C49.2559 92.1069 49.5177 92.3476 49.8234 92.5204C50.1291 92.6932 50.4705 92.7934 50.8211 92.8132L47.7979 97.9612C47.2106 97.6363 46.6024 97.3505 45.9774 97.1058ZM85.4598 130.649C79.8887 131.075 74.8986 130.455 75.6176 124.945C76.3396 119.164 79.3207 114.817 83.706 110.495C87.8871 106.514 92.3194 102.806 96.9754 99.3931C97.0229 99.3584 97.0618 99.3131 97.089 99.2609C97.1162 99.2087 97.131 99.1509 97.1323 99.092C97.1335 99.0332 97.1212 98.9748 97.0963 98.9215C97.0713 98.8681 97.0344 98.8213 96.9884 98.7845C96.0652 98.0378 95.0543 97.4064 93.9783 96.9042C93.8862 96.8648 93.7824 96.863 93.689 96.8992C93.5956 96.9353 93.5201 97.0067 93.4786 97.0978C93.4371 97.189 93.433 97.2928 93.467 97.3869C93.5011 97.4811 93.5707 97.5582 93.6609 97.6017C94.5286 98.0046 95.3508 98.4988 96.1138 99.0758C94.347 100.379 92.5978 101.739 90.8439 103.174C90.8113 103.125 90.7677 103.084 90.7167 103.054C90.6656 103.025 90.6084 103.007 90.5496 103.003C80.2217 102.343 70.1891 99.2892 61.2444 94.0841C61.2008 94.0553 61.1517 94.0358 61.1003 94.0266C61.0489 94.0174 60.9961 94.0189 60.9453 94.0308C60.8944 94.0428 60.8466 94.065 60.8046 94.0962C60.7627 94.1273 60.7275 94.1667 60.7014 94.2119C60.6752 94.2572 60.6585 94.3072 60.6524 94.3591C60.6463 94.411 60.6509 94.4636 60.6659 94.5136C60.6808 94.5637 60.7059 94.6102 60.7394 94.6502C60.773 94.6902 60.8144 94.723 60.8611 94.7464C69.8063 99.9511 79.8281 103.03 90.1525 103.745C88.3358 105.251 86.5008 106.851 85.0934 108.132C77.3989 106.472 69.9567 103.806 62.9591 100.202C61.0671 99.289 59.3475 98.0556 57.8762 96.5562C57.1745 95.6681 56.6712 94.6401 56.4001 93.5412C56.129 92.4423 56.0966 91.2981 56.3048 90.1856C56.3206 90.1037 56.3093 90.0189 56.2726 89.9441C57.8579 88.5847 59.1482 86.9151 60.0639 85.0383C61.3812 84.3125 62.7637 83.712 64.1932 83.2446C67.6118 83.2038 71.0138 82.7611 74.329 81.9254C77.8181 81.7623 81.3137 82.0402 84.7332 82.7525C86.6763 83.4386 88.483 84.6742 90.3633 85.5174C100.299 90.1035 116.295 92.6921 125.044 86.2939C126.413 90.2316 126.744 94.4555 126.005 98.5584C122.971 99.4291 120.67 100.736 119.462 102.271L115.952 98.2679C118.109 97.348 117.08 95.3144 113.867 95.3144C109.869 95.3144 109.514 98.2763 113.26 98.6166L117.499 110.736C107.637 119.775 96.4534 125.09 84.2548 126.532C84.1552 126.546 84.0647 126.598 84.0031 126.677C83.9414 126.756 83.9134 126.857 83.9252 126.957C83.937 127.057 83.9875 127.148 84.066 127.211C84.1444 127.274 84.2445 127.303 84.3445 127.293C96.609 125.844 107.851 120.539 117.774 111.523C118.901 114.747 118.815 114.583 118.951 114.682L119.009 115.994C109.675 123.523 95.2783 129.816 85.4598 130.649ZM116.001 125.344C115.085 125.497 114.03 125.47 113.878 124.555C113.741 123.801 114.691 123.247 115.477 122.639C116.113 122.116 116.611 121.445 116.926 120.685C117.242 119.925 117.366 119.098 117.288 118.279C117.892 117.839 118.479 117.394 119.051 116.943L119.347 123.724C118.383 124.533 117.233 125.089 116.001 125.344ZM148.818 132.038C148.818 135.663 142.461 138.612 134.647 138.612C126.832 138.612 120.475 135.663 120.475 132.02L119.392 107.189C124.279 113.727 145.011 113.731 149.9 107.189L149.637 113.211C148.147 112.199 148.213 112.2 148.002 112.26L145.256 112.992C145.187 113.01 145.125 113.047 145.076 113.099C145.027 113.15 144.994 113.214 144.979 113.284C144.965 113.353 144.97 113.425 144.994 113.492C145.018 113.559 145.06 113.618 145.115 113.662L147.261 115.378L146.824 130.612L144.894 131.703C144.82 131.745 144.762 131.81 144.729 131.888C144.696 131.966 144.69 132.052 144.712 132.134C144.733 132.216 144.781 132.288 144.848 132.34C144.915 132.392 144.998 132.42 145.082 132.42C145.854 132.219 146.611 131.963 147.346 131.653L148.866 130.952L148.818 132.038Z" fill="black"/>
<path d="M95.7864 43.182C96.1007 42.7106 95.2882 42.1372 94.248 42.834C94.15 42.899 94.0438 42.9505 93.9322 42.9873C93.9513 42.5917 94.0456 40.9238 94.1108 39.7893C94.1137 39.739 94.1066 39.6887 94.0901 39.6411C94.0735 39.5935 94.0477 39.5497 94.0141 39.5121C93.9806 39.4745 93.94 39.4439 93.8946 39.422C93.8493 39.4001 93.8 39.3874 93.7497 39.3846C93.6491 39.3821 93.5513 39.418 93.4762 39.4851C93.4012 39.5522 93.3545 39.6453 93.3458 39.7456C93.2898 40.7122 93.1633 42.9696 93.1618 43.0471C93.148 43.8512 93.9237 43.9723 94.6726 43.4733C94.8356 43.3392 95.0441 43.2736 95.2544 43.2901C95.2964 43.318 95.3435 43.3373 95.393 43.347C95.4425 43.3567 95.4934 43.3565 95.5429 43.3464C95.5923 43.3364 95.6392 43.3167 95.681 43.2885C95.7228 43.2603 95.7586 43.2241 95.7864 43.182Z" fill="black"/>
<path d="M98.4511 42.2238C98.4013 42.2167 98.3505 42.2195 98.3016 42.232C98.2528 42.2445 98.207 42.2665 98.1667 42.2968C98.1264 42.327 98.0924 42.3649 98.0668 42.4083C98.0412 42.4517 98.0243 42.4997 98.0173 42.5496C97.942 43.1267 97.704 43.6704 97.3311 44.1173C96.9583 44.5641 96.4659 44.8956 95.9116 45.073C95.8166 45.1033 95.7371 45.1693 95.69 45.2572C95.6429 45.3451 95.6319 45.4479 95.6593 45.5437C95.6868 45.6396 95.7505 45.721 95.8369 45.7706C95.9234 45.8203 96.0258 45.8343 96.1224 45.8097C96.8183 45.5904 97.4374 45.1775 97.9074 44.6194C98.3773 44.0612 98.6786 43.3808 98.7762 42.6577C98.7833 42.6079 98.7806 42.5571 98.7681 42.5083C98.7557 42.4596 98.7337 42.4137 98.7035 42.3734C98.6733 42.3332 98.6355 42.2992 98.5922 42.2735C98.5489 42.2479 98.501 42.231 98.4511 42.2238Z" fill="black"/>
<path d="M95.4676 37.1279C96.2226 36.8093 97.06 36.7421 97.8561 36.9363C97.9555 36.9583 98.0595 36.94 98.1453 36.8854C98.2311 36.8308 98.2917 36.7443 98.3138 36.645C98.3358 36.5457 98.3175 36.4417 98.2629 36.3558C98.2083 36.27 98.1218 36.2094 98.0225 36.1874C97.1206 35.9558 96.1675 36.0285 95.3113 36.3943C95.2309 36.43 95.1653 36.4922 95.1253 36.5705C95.0854 36.6489 95.0736 36.7385 95.0919 36.8245C95.1102 36.9105 95.1576 36.9876 95.226 37.0428C95.2944 37.0981 95.3797 37.1281 95.4676 37.1279Z" fill="black"/>
<path d="M91.5754 38.2233C91.6259 38.2309 91.6774 38.2282 91.7269 38.2155C91.7764 38.2029 91.8229 38.1804 91.8636 38.1495C91.9043 38.1187 91.9384 38.0799 91.9639 38.0357C91.9894 37.9914 92.0058 37.9425 92.0122 37.8918C92.0185 37.8411 92.0147 37.7896 92.0008 37.7404C91.987 37.6913 91.9634 37.6453 91.9316 37.6054C91.8998 37.5654 91.8602 37.5322 91.8154 37.5078C91.7705 37.4833 91.7212 37.4681 91.6704 37.4629C91.2253 37.4262 90.7792 37.5199 90.3865 37.7325C89.9938 37.9451 89.6715 38.2675 89.459 38.6602C89.4338 38.7039 89.4175 38.7521 89.411 38.8021C89.4044 38.8521 89.4078 38.9029 89.4209 38.9516C89.434 39.0003 89.4565 39.0459 89.4873 39.0859C89.518 39.1259 89.5563 39.1594 89.6 39.1846C89.6437 39.2097 89.6919 39.226 89.7419 39.2326C89.7919 39.2391 89.8427 39.2357 89.8914 39.2226C89.9401 39.2095 89.9857 39.187 90.0257 39.1562C90.0656 39.1255 90.0991 39.0872 90.1243 39.0435C90.2618 38.7818 90.4718 38.5653 90.7291 38.4199C90.9865 38.2744 91.2803 38.2062 91.5754 38.2233Z" fill="black"/>
<path d="M91.3346 39.0105C90.6792 39.1807 90.9859 40.5436 91.3929 40.8372C91.7999 41.1308 92.1372 40.6279 92.1487 40.1971C92.1602 39.7663 91.9164 38.8618 91.3346 39.0105Z" fill="black"/>
<path d="M96.8112 37.6423C96.1558 37.8125 96.4624 39.1754 96.8695 39.469C97.2765 39.7625 97.6138 39.2597 97.6253 38.8289C97.6367 38.3981 97.3892 37.4913 96.8112 37.6423Z" fill="black"/>
</svg>
