<svg width="154" height="154" viewBox="0 0 154 154" fill="none" xmlns="http://www.w3.org/2000/svg">
<path d="M55.9229 136.51C39.1408 137.365 11.4101 139.414 11.3511 140.7C11.2929 141.963 16.0654 139.896 48.3004 137.977C50.4199 137.851 52.5723 137.739 54.7447 137.638C55.0652 137.316 55.4484 136.952 55.9229 136.51Z" fill="black"/>
<path d="M92.6646 135.852C92.8792 136.114 93.1015 136.388 93.3414 136.694C93.3912 136.758 93.4326 136.814 93.4817 136.877C118.616 136.905 139.187 137.724 139.667 137.499C142.362 136.232 115.925 135.827 92.6646 135.853V135.852Z" fill="black"/>
<path d="M126.493 37.9919C126.354 37.9797 126.176 37.9613 125.975 37.9398C126.169 40.4503 126.327 43.354 126.469 46.2209C126.306 56.1063 127.665 99.9101 124.633 100.352C116.403 101.554 86.9882 102.795 83.321 102.995C66.8891 103.892 35.7649 103.973 19.1714 102.549C14.0371 102.109 14.5744 102.409 14.4541 99.2049C12.3545 43.3701 15.1754 33.063 15.1899 32.275C15.2068 31.3498 15.4237 29.4694 15.761 28.5864C15.8936 28.2391 16.0968 27.9632 16.5352 27.9041C17.6674 27.7524 16.5099 27.4411 25.8228 26.7122C46.6231 25.0817 78.9271 23.1975 104.226 24.7797C103.72 22.6111 103.669 20.3429 104.068 18.1245C72.5953 16.4557 20.0483 18.0816 11.6477 22.7023C10.0571 23.577 9.70912 24.8004 9.21699 26.1572C5.12823 37.44 6.75638 103.569 9.29748 114.683C9.87086 117.192 10.1913 118.546 11.6401 119.603C13.3916 120.881 18.444 121.535 19.4014 121.574C20.0721 121.601 22.4254 122.105 25.257 122.47C27.5383 122.765 31.2737 122.951 31.3795 122.965C38.4624 123.842 46.8791 123.879 60.0944 124.059C60.4862 124.064 60.4463 124.017 60.3083 125.849C59.7855 132.779 60.2493 132.892 59.4099 133.318C53.7773 138.458 54.4143 137.801 51.7621 141.244C50.9955 142.24 50.022 143.687 50.0864 144.838C50.1224 145.478 50.1883 147.554 50.4528 148.098C51.4731 150.197 69.9178 149.435 72.531 149.258C78.1813 148.874 91.3989 148.813 96.3332 147.691C96.8 147.584 97.079 147.317 97.2354 146.877C97.5213 146.073 97.7705 143.626 97.3749 142.871C96.6137 141.415 95.5521 139.518 93.3398 136.694C87.8705 129.714 89.0433 134.794 88.2836 129.202C87.4941 123.386 87.5454 123.69 87.8153 123.695C87.642 123.701 114.994 122.427 125.845 119.814C127.682 119.371 129.426 118.917 130.434 117.003C134.244 109.767 134.722 58.6489 133.311 37.1825C131.569 37.6539 131.24 37.6646 126.492 37.9919H126.493ZM88.8302 137.102C89.0517 137.722 89.202 137.739 89.4434 137.718C90.095 137.663 89.553 136.343 88.9582 133.424C91.6051 135.736 94.4858 140.034 96.2335 142.531C96.8728 143.445 95.1696 143.327 84.5314 143.992C84.3842 144.001 56.4464 145.297 52.1438 144.719C50.2558 144.465 50.1753 144.808 54.7593 139.007C56.0762 137.34 59.1056 134.577 59.7303 134.171C60.0216 133.982 59.7441 134.479 59.587 137.866C59.5655 138.335 59.9741 138.726 60.0975 138.409C61.0741 135.903 61.4673 126.742 61.3416 126.742C61.3416 124.041 61.245 124.062 61.5739 124.061C73.0246 124.033 62.3381 124.481 81.5043 123.946C86.2845 123.813 84.6372 123.91 86.2845 123.781C86.5091 123.764 86.4362 123.908 86.5236 124.811C87.0265 130.006 88.3281 135.689 88.831 137.101L88.8302 137.102ZM129.733 116.011C128.869 118.221 127.428 118.523 121.014 119.858C117.032 120.687 92.3601 122.408 92.3418 122.409C89.8666 122.628 70.5019 123.138 70.5011 123.111C36.0194 123.111 29.1573 121.584 22.0582 120.752C14.0248 119.81 11.7075 119.858 10.7739 116.264C10.33 114.554 9.60103 111.661 9.56041 109.896C9.53894 108.928 9.35037 108.562 9.64166 108.679C13.0697 110.055 62.8333 110.438 85.5486 109.646C97.3343 109.235 94.5479 109.041 104.492 108.626C125.303 107.756 128.715 106.466 131.343 106.461C131.408 109.043 130.522 113.987 129.731 116.012L129.733 116.011Z" fill="black"/>
<path d="M90.3885 47.5702C90.0589 44.1353 88.8608 37.9623 84.5474 34.768C84.8126 34.2108 84.5865 33.5354 84.0353 33.2518C82.0845 32.2492 75.2055 29.1032 68.6407 30.7099C62.437 32.2277 58.3161 35.9577 56.832 37.4908C56.3706 37.9684 56.4081 38.7326 56.9087 39.1634C56.9784 39.2232 57.052 39.2861 57.1271 39.3505C55.1625 42.7294 54.7976 47.0083 55.9635 52.7904C56.0417 53.1775 56.0662 53.304 56.2142 53.3814C56.3828 53.4703 56.5729 53.3699 56.8228 53.2611C57.1693 53.1108 57.1547 52.9713 57.0597 52.5903C56.1506 48.9247 56.1728 43.3388 58.0025 40.081C58.5614 40.5317 59.2106 40.4283 59.6023 40.0189C60.874 38.6897 64.4362 35.4955 70.0282 34.5319C75.6455 33.5646 80.602 35.5154 82.4716 36.3985C83.0419 36.6668 83.708 36.4376 83.9901 35.8757L84.0054 35.845C87.1621 38.4414 89.0762 43.6056 89.1168 47.2735C89.1245 47.8952 89.474 47.8439 90.213 47.7787C90.318 47.7695 90.3969 47.676 90.387 47.5694L90.3885 47.5702ZM82.8004 35.7063C80.8649 34.7918 75.7344 32.7727 69.8994 33.7777C64.0828 34.7795 60.3742 38.1064 59.0496 39.49C58.9132 39.6326 58.6871 39.6479 58.5338 39.5237C58.1865 39.2447 57.7534 38.8775 57.4092 38.5816C57.2414 38.4375 57.2291 38.1823 57.3839 38.0228C61.1584 34.1234 67.1061 31.025 72.5333 31.025C77.5595 31.025 82.165 33.1514 83.6858 33.9325C83.8721 34.0283 83.9472 34.2583 83.8529 34.4446L83.3079 35.5308C83.2136 35.7178 82.9921 35.7945 82.8012 35.7048L82.8004 35.7063Z" fill="black"/>
<path d="M37.0964 71.9105C36.9822 72.4778 36.5629 72.3934 36.4357 71.9925C35.86 70.1804 36.116 69.5135 34.4564 68.2778C34.2778 68.1452 33.4346 67.5036 33.3327 67.279C33.2047 66.9977 33.5144 66.7171 33.7451 66.8244C36.021 67.8876 37.5909 69.4468 37.0964 71.9105Z" fill="black"/>
<path d="M85.284 51.6833C85.0962 55.6556 85.1215 56.0526 81.4681 56.8981C77.0873 57.9115 77.364 57.3113 76.5155 55.1604C75.7627 53.2509 76.0579 52.7044 75.6186 52.5372C75.3051 52.4184 75.3626 52.1179 74.4634 52.042C72.6137 51.8864 72.1224 52.3793 70.9787 53.4448C70.8461 53.5683 70.9028 54.4168 70.9143 54.528C71.0707 56.0457 70.9511 56.7088 70.8951 57.6003C70.8039 59.0445 69.2149 59.3365 67.6764 59.5014C64.8524 59.8041 63.6351 60.5868 62.4393 57.25C62.0116 56.0572 60.8004 52.9083 61.8943 52.2697C63.4627 51.3545 68.0597 50.338 68.2459 50.3081C71.5007 49.7938 70.3601 52.2069 70.9864 51.6933C73.4447 49.6788 74.9241 50.9972 75.2192 50.8401C75.3718 50.7588 74.8498 49.3814 76.284 48.8371C77.1286 48.5167 77.6338 48.4071 81.2013 47.8858C85.2196 47.2986 85.1092 47.9456 85.284 51.6833ZM83.9916 51.6312C83.8628 48.463 84.266 48.8463 81.7992 49.0793C81.7808 49.0809 77.4836 49.6542 76.9002 49.8873C76.4971 50.0483 76.5937 50.3142 76.8059 51.1567C77.4238 53.6058 77.9588 56.2328 78.8703 56.0649C82.6271 55.3735 82.3389 55.3374 83.1254 55.0883C83.8084 54.8714 83.7463 54.3049 83.9916 51.6312ZM69.5935 55.2347C69.5667 54.1961 69.7246 54.5418 69.3214 51.7331C69.2578 51.2885 68.8929 51.1605 63.0418 52.955C62.5911 53.093 62.4079 53.1413 62.611 53.8319C63.9939 58.5301 64.2507 58.8099 66.0099 58.4466C69.8488 57.6524 69.6832 58.7103 69.5935 55.2347Z" fill="black"/>
<path d="M78.4405 69.1371C77.7008 70.5652 76.0804 70.8787 75.5139 70.5268C75.1123 70.277 75.4434 70.0217 75.8995 69.9443C77.8971 69.6055 78.4022 67.1747 78.2412 65.1549C77.7046 65.6041 76.2736 67.4047 73.698 66.967C73.3009 66.8995 72.8916 66.2081 74.0881 66.2426C75.4334 66.2817 76.8768 65.5611 77.5176 64.3293C77.8687 63.654 77.8848 63.273 78.4053 63.1979C79.7191 63.0078 79.4263 67.233 78.4405 69.1371Z" fill="black"/>
<path d="M73.3014 54.0603C73.9 54.1761 73.2055 55.1718 73.1227 58.0786C73.1043 58.7355 73.2017 59.3932 73.3987 60.0172C74.1614 62.4341 77.0206 59.7374 77.8975 59.8807C79.541 60.149 73.424 64.779 72.2182 60.2709C71.7889 58.6665 72.5846 53.9223 73.3021 54.0611L73.3014 54.0603Z" fill="black"/>
<path d="M79.8522 44.366C80.132 44.8964 79.4528 45.1724 79.0427 45.0597C77.9749 44.7653 76.9937 44.5323 76.028 44.6795C75.6087 44.7431 75.138 44.3085 75.4745 43.8746C76.1276 43.0322 79.3547 43.4231 79.8522 44.366Z" fill="black"/>
<path d="M66.3481 45.0895C67.1177 45.0466 67.2158 45.6023 66.7574 45.9542C65.9756 46.5544 65.4834 46.4624 64.3627 47.6904C64.0806 48.0001 63.8499 48.26 63.4827 48.0407C62.4694 47.4351 64.6395 45.1846 66.3481 45.0895Z" fill="black"/>
<path d="M80.5055 52.7005C80.4971 51.7531 79.532 51.4081 79.0276 52.1548C78.7018 52.6331 78.9816 53.6495 79.7152 53.6495C80.1698 53.6495 80.5684 53.2218 80.5055 52.7005Z" fill="black"/>
<path d="M66.5936 54.3451C66.4349 54.7131 66.5629 55.3892 66.8381 55.636C67.1486 55.915 67.6737 55.9004 67.8837 55.4988C68.5766 54.1765 67.0267 53.3317 66.5936 54.3451Z" fill="black"/>
<path d="M119.126 93.5232L118.555 94.2698C121.877 97.0631 123.195 98.8254 123.754 98.5165C124.427 98.1455 121.632 95.6136 119.126 93.5232Z" fill="black"/>
<path d="M109.035 86.5047C98.3583 80.7357 88.2376 79.6502 87.9517 77.0532C87.9494 77.034 87.6642 75.5822 87.609 74.6071C87.4825 72.3596 87.7523 72.4033 88.2552 68.0937C88.2713 67.9573 88.7489 63.9076 88.837 63.8026C88.8424 63.7964 90.1463 63.5059 90.4207 63.4346C90.9504 63.2974 91.4609 63.0859 92.022 63.0759C92.1661 63.0728 92.3133 62.9893 92.4498 62.9241C95.5581 61.4431 95.194 60.2397 95.0691 56.3594C95.0691 56.341 94.7195 52.9789 94.6406 52.6332C94.3378 51.3147 94.0856 50.0468 93.2968 49.0741C92.2627 47.7978 91.5912 47.5441 90.9205 47.4007C90.3609 47.2811 88.7343 47.045 88.1824 47.1945C87.1774 47.4666 88.2997 44.566 85.2212 40.4703C81.9365 36.1002 77.3595 35.9247 74.186 35.5192C73.9944 35.4947 73.7936 35.5644 73.5958 35.5728C73.2455 35.5889 73.06 35.3528 73.0209 35.1482C72.3693 31.7033 72.7043 31.6688 72.5862 30.2039C72.5372 29.5945 71.9377 29.6589 71.4939 30.0797C70.0513 31.448 70.2383 31.3568 69.4066 32.7136C68.9612 33.4403 68.9781 33.1797 69.0271 29.6206C69.0371 28.9039 68.4714 28.7575 68.0996 29.0717C67.6434 29.4573 67.1545 29.8069 66.7214 30.2162C65.8069 31.0793 64.6264 32.5066 64.4363 34.0466C64.3251 34.9496 64.1013 36.1884 64.5467 37.4969C64.7774 38.1745 64.6394 37.6111 62.654 39.0721C61.3954 39.9989 59.932 41.8233 59.7335 42.11C55.4791 48.2439 58.7646 51.6972 57.9375 51.9808C56.5761 52.4484 56.0172 52.6485 55.2599 53.0349C52.8997 54.2376 52.7065 57.3436 53.2776 59.9714C53.7199 62.0066 54.3247 64.8305 55.2001 66.5361C56.9609 69.9672 62.2079 67.3187 62.6786 68.2693C63.9894 70.9154 64.9514 72.4332 67.3116 74.2085C67.652 74.4645 67.9501 74.7834 68.3663 74.9344C68.4821 74.9766 68.486 75.0724 68.4423 75.1996C67.3446 78.4038 67.9693 78.1915 67.1652 78.331C59.8408 79.6042 45.2181 84.2327 40.1765 87.3863C37.016 89.364 37.0712 89.4092 37.0973 89.1769C37.2575 87.7757 38.2816 81.8939 39.1225 79.3804C39.1593 79.27 40.2256 76.1387 40.5536 75.8343C44.3151 72.3427 44.0031 73.1859 46.2913 67.3141C47.3867 64.5032 47.6856 64.133 47.6251 63.4653C47.5408 62.5347 46.5021 62.7133 45.8658 63.3963C44.4002 64.9693 44.1672 65.998 43.5248 67.0236C43.3692 67.272 43.1982 67.2551 42.6563 67.3341C42.3382 67.3808 42.5045 67.0727 42.4248 66.5668C41.7817 62.4772 43.6191 61.089 44.7275 55.7193C44.8908 54.9305 43.7923 53.7991 42.7782 55.2885C40.2079 59.0615 39.505 63.1924 38.9769 62.6183C38.9194 62.5554 38.8596 62.4665 38.8573 62.3875C38.8312 61.378 39.1447 58.6123 39.1486 58.5931C39.2773 58.0006 39.4835 53.77 39.0343 53.0111C38.4909 52.0912 37.5534 52.45 37.223 53.3905C35.9099 57.1321 36.3529 56.2942 35.5343 61.1794C35.5036 61.3627 35.4454 61.4071 35.2154 61.4339C35.0613 61.4516 34.9356 61.4301 34.8942 61.2569C33.7934 56.7051 34.4327 55.0999 33.2277 54.2038C32.7302 53.8344 32.0135 53.9647 31.8234 54.581C31.1603 56.7289 31.631 58.1677 31.9208 61.3044C32.0488 62.6934 32.0442 62.6811 31.8863 62.757C31.5268 62.9295 31.5344 62.6811 28.6698 58.1631C27.9776 57.0715 27.162 57.1995 26.8899 57.8074C26.3602 58.9871 28.5019 63.3465 29.2095 64.3215C29.6104 64.8742 29.5483 65.21 29.7162 67.0336C30.2213 72.5413 32.3117 74.0153 32.1001 74.4914C31.9338 74.8654 31.8732 75.2801 31.6249 75.6243C29.2562 78.9044 30.2037 78.2267 25.3169 82.8398C23.2357 84.8045 18.5958 88.7607 16.5859 92.3221C16.3314 92.772 16.6764 93.0549 17.0972 92.7345C17.1447 92.6984 17.9818 91.8667 18.3252 91.4835C26.3487 82.5317 29.152 82.465 32.8966 74.8309C33.2231 74.1648 32.9318 73.5738 32.5079 72.9583C31.0316 70.815 30.9396 68.4785 30.807 67.561C30.3072 64.1054 29.2647 63.1893 27.5714 58.7801C27.3552 58.2167 27.6948 57.9492 27.8335 58.1117C28.3992 58.7794 27.9125 58.0634 29.6472 60.9234C31.4309 63.8639 31.3022 63.88 32.4918 63.3289C33.5589 62.8344 31.7782 57.1512 32.4604 54.8355C32.5401 54.5664 32.6122 54.5473 32.8445 54.6845C33.7973 55.2464 33.5872 59.8594 34.2825 61.8134C34.4051 62.1583 34.7662 62.2503 35.1203 62.2204C35.3587 62.2005 35.5902 62.097 35.8233 62.025C35.995 61.9721 36.1153 61.8578 36.1674 61.6838C36.678 59.9775 37.3042 53.1744 38.1957 53.5009C39.0895 53.8282 38.4472 57.1114 38.1091 61.112C37.9366 63.1556 37.8715 63.2162 39.3578 63.4753C39.8553 63.5619 40.027 62.2312 43.0227 56.249C43.3592 55.5767 43.8567 55.3368 43.8513 56.0896C43.8414 57.49 41.2941 62.0571 41.3562 65.3134C41.3578 65.4116 41.3478 65.3158 41.6973 67.3433C41.7855 67.8523 41.5126 67.2957 39.4245 69.0527C38.4188 69.8989 38.4594 70.644 38.8826 70.3803C39.3379 70.0975 39.8047 69.8284 40.2309 69.5065C42.9116 67.482 43.6382 68.7752 44.2883 67.4698C45.2856 65.4668 45.57 65.108 46.6286 63.811C46.6653 63.7658 46.7604 63.7673 46.8279 63.7474C46.9574 64.1943 46.1073 65.8132 45.5401 67.367C42.9936 74.3396 40.1842 73.8911 39.3226 76.3863C38.4127 79.0217 37.86 80.3271 36.458 87.5212C36.4534 87.5426 33.7919 101.875 33.7835 102.175C33.7674 102.721 34.1813 102.874 34.4189 102.314C34.7639 101.499 35.5159 98.0957 35.66 97.4426C36.4879 93.6873 36.5975 90.697 37.0628 90.316C41.6529 86.5568 55.2913 82.4397 61.0336 80.6728C61.5617 80.5103 61.2405 80.8162 62.1734 82.1921C67.2426 89.669 71.8802 91.8023 76.8543 94.1948C77.2912 94.4048 78.0264 94.716 78.7661 94.2538C80.2179 93.3462 83.4581 90.372 85.9563 88.3398C92.2819 83.1955 92.17 80.751 92.8024 80.961C98.5369 82.8621 103.381 84.6382 108.219 87.2667L109.034 86.504L109.035 86.5047ZM91.2202 48.4823C94.5555 50.089 93.8863 58.3133 94.1829 58.344C93.9737 60.2144 94.1101 61.2561 92.5487 61.7712C92.2857 61.8578 92.8231 61.644 92.1355 55.5859C91.8304 52.8969 91.9247 51.6551 91.3636 49.7034C91.1198 48.8564 90.5196 48.145 91.2202 48.4823ZM88.8278 48.2546C90.305 48.3152 90.7373 49.6912 91.4548 59.3244C91.49 59.802 91.4333 60.2925 91.4785 60.2925C91.4785 62.1031 91.487 62.0035 89.057 62.6037C88.9221 62.6367 88.8876 62.5799 88.8922 62.4711C89.5637 47.1501 85.9571 48.1374 88.8278 48.2546ZM55.7474 65.2291C54.6513 62.3339 52.7119 55.1107 55.424 54.0843C55.4301 54.2399 55.4485 54.0889 55.3465 54.6615C54.9134 57.0953 58.1191 67.2796 58.1199 67.298C56.757 67.2521 56.2993 66.6879 55.7474 65.2291ZM60.3958 67.1401C58.7423 67.3785 58.6343 65.7289 57.6883 61.8141C55.7643 53.8482 55.6738 53.6236 58.5791 52.9275C59.0589 52.8126 58.9033 52.798 59.0681 53.9103C60.359 62.6152 61.2421 63.8746 62.0255 66.7354C62.1129 67.0551 61.9979 66.9086 60.3958 67.1401ZM91.3873 80.7587C86.7788 86.5124 83.9725 89.0627 78.0494 93.4512C77.8915 93.5685 77.7619 93.5869 77.5871 93.5041C69.7017 89.7971 67.1399 87.2306 63.1822 81.9284C61.9481 80.275 62.0009 80.4091 62.4088 80.3072C65.9977 79.4072 67.7968 79.3666 68.0582 78.9642C68.4783 78.3195 69.0416 77.0302 69.2494 76.4874C69.4111 76.0643 69.4886 75.6082 69.5883 75.1636C69.6503 74.8854 69.5568 74.6661 69.3169 74.486C63.7617 70.3244 62.5015 65.7734 60.2494 55.8435C59.0681 50.6333 60.1137 47.4406 62.2516 44.8136C63.4812 43.3035 64.3635 42.4588 65.9433 41.4622C66.9904 40.8015 67.0747 40.6137 67.3607 40.6934C69.3138 41.2376 71.8181 40.3737 73.5797 39.3696C74.2565 38.984 76.7048 39.3519 77.4553 39.5604C83.5563 41.2545 86.1142 45.4621 87.3047 50.9475C88.6914 57.336 87.9294 61.2699 87.5308 64.7822C86.9084 70.26 86.1158 71.0419 86.4185 75.0502C86.7075 78.8768 87.4978 79.0401 89.2655 79.72C91.4349 80.5548 91.6664 80.4099 91.3866 80.7579L91.3873 80.7587Z" fill="black"/>
<path d="M46.0752 88.0647C40.1045 89.6997 38.5936 97.2786 43.4896 100.894C47.4925 103.849 53.4785 102.022 55.0591 97.4204C57.0729 91.5578 51.7407 86.5132 46.0752 88.0647ZM48.8209 101.363C40.1083 102.056 38.6649 90.5882 46.6462 88.7354C49.448 88.0846 52.9013 89.3678 54.3294 92.7943C55.9537 96.6907 52.8875 101.039 48.8209 101.363Z" fill="black"/>
<path d="M92.9246 86.5929C89.3571 87.1049 86.4365 90.4041 86.7163 94.4009C87.2107 101.468 96.824 103.486 100.539 97.4541C103.636 92.4263 99.8358 85.6009 92.9246 86.5929ZM95.7049 99.9293C91.0466 101.063 86.9861 97.1337 87.5128 93.0372C88.0118 89.1508 91.8361 86.6059 95.6244 87.443C102.598 88.9837 102.562 98.2605 95.7049 99.9293Z" fill="black"/>
<path d="M118.512 89.0765C114.34 82.3179 103.319 86.3254 104.793 94.3734C106.299 102.601 119.207 102.244 119.583 92.7115C119.468 91.6491 119.438 90.5774 118.512 89.0765ZM113.131 99.2402C109.13 99.9263 105.346 96.555 105.421 93.2029C105.579 86.1322 114.654 84.12 117.926 89.6898C120.38 93.8675 117.622 98.4706 113.131 99.2402Z" fill="black"/>
<path d="M42.3267 95.4135C42.3857 96.4852 42.4394 97.2295 43.4551 97.5898C44.5236 97.9692 46.079 97.6158 46.3986 96.5726C46.6569 95.7301 46.1641 95.5255 46.5849 95.3453C46.9191 95.202 47.3353 94.972 48.4085 94.9475C49.7293 95.0977 49.8903 95.0257 49.8926 95.5255C49.8964 96.3242 49.7546 96.7328 50.3471 97.1022C50.8891 97.4403 51.8794 97.5468 52.9074 97.0846C53.943 96.6193 54.4965 94.4224 52.843 93.1913C49.2073 90.4838 42.165 92.483 42.3275 95.4128L42.3267 95.4135ZM53.1174 95.4749C52.9886 96.3809 52.0174 96.4001 51.1627 96.3549C50.1432 96.3012 52.16 94.1219 48.3893 94.0606C47.6044 94.0475 46.1395 94.2967 45.6873 95.0211C45.5148 95.297 45.5615 95.829 45.5753 96.1418C45.6068 96.8753 44.3964 96.9045 43.7011 96.6699C43.1323 96.4783 42.7307 95.5331 43.4911 94.2591C43.5501 94.1602 44.5305 93.3906 45.143 93.222C46.5274 92.8418 47.7554 92.6133 49.9523 92.7965C51.5406 92.9291 53.3397 93.908 53.1174 95.4749Z" fill="black"/>
<path d="M97.2509 92.5996C96.9159 92.4754 96.653 92.9453 96.6668 93.1975C96.7503 94.7268 96.7887 94.2454 96.6108 95.1423C96.3364 96.5282 94.2682 96.0889 93.7478 96.2131C93.2211 96.3388 92.7543 96.1802 92.2791 96.0123C91.1584 95.6168 91.5593 92.9645 91.12 92.8012C90.8172 92.6893 90.503 92.9277 90.5129 93.2757C90.5183 93.4727 90.5604 93.669 90.5834 93.8652C90.7942 95.7049 90.667 96.9996 93.307 97.1637C93.6129 97.1828 93.6152 97.1483 93.6266 97.4258C93.6404 97.7654 93.7079 97.9432 93.4588 97.9425C92.7919 97.9402 92.3733 97.8934 91.8329 98.1103C91.5953 98.2054 91.5447 98.6201 91.8575 98.7044C92.2277 98.8041 92.1403 98.7826 94.1479 98.7826C94.1479 98.6922 96.1517 98.9528 96.5986 98.6132C96.988 98.3173 96.5863 97.9195 96.1946 97.9256C95.5078 97.9371 94.8531 97.9532 94.847 97.8627C94.7972 97.1031 94.8455 97.1284 94.9919 97.0947C96.9504 96.6462 97.7338 96.3657 97.5192 92.9415C97.5085 92.7644 97.395 92.6517 97.2524 92.5988L97.2509 92.5996Z" fill="black"/>
<path d="M93.2449 95.5057C96.9458 96.677 95.6817 92.2762 95.9584 92.2754C95.9584 90.5047 96.0029 90.3905 95.7614 89.5871C95.4694 88.6159 94.0099 88.34 93.2518 88.7401C92.2522 89.2675 92.2936 89.9367 92.2729 92.7338C92.2629 94.1067 92.2269 95.1837 93.2456 95.5064L93.2449 95.5057ZM93.7945 89.3794C95.0731 89.1786 95.0416 89.9083 95.2218 91.8408C95.0669 94.6111 95.2233 94.7683 94.1885 94.7974C92.7182 94.8388 93.3276 94.0899 93.0854 91.5235C93.0095 90.7216 92.9988 89.5044 93.7945 89.3794Z" fill="black"/>
<path d="M117.078 90.9026C116.65 90.494 116.293 90.9156 115.156 91.7787C114.785 92.0608 115.095 91.0536 114.228 90.7462C114.096 90.6987 114.177 90.6251 114.204 90.5691C114.409 90.1345 114.533 89.706 114.416 89.2039C113.84 86.7187 110.3 88.1437 111.345 90.438C111.432 90.6289 111.425 90.632 111.239 90.655C110.766 90.7132 110.76 90.7109 110.904 90.2663C111.18 89.4131 110.759 88.4419 109.738 88.1667C108.77 87.9061 107.751 88.7731 107.731 89.8524C107.714 90.7929 108.379 90.8872 107.954 91.0536C107.621 91.1839 107.36 91.3464 107.292 91.6952C107.079 92.7921 107.241 95.1462 107.401 95.5701C107.539 95.9334 107.775 96.2308 108.179 96.2692C108.907 96.3389 109.636 96.4531 110.373 96.3014C110.704 96.2331 114.675 96.6624 114.864 95.7334C115.094 94.6042 115.032 94.6732 115.273 94.7997C117.617 96.0315 117.347 96.0699 117.347 93.4559C117.366 93.4559 117.443 91.2513 117.078 90.9026ZM112.82 88.5262C113.288 88.5216 113.745 88.9969 113.748 89.4906C113.751 89.9697 113.31 90.4534 112.861 90.425C111.346 90.3284 111.853 88.5362 112.82 88.5262ZM110.205 89.7481C110.221 90.7278 108.475 90.9493 108.474 89.7282C108.474 88.5546 110.185 88.4519 110.205 89.7481ZM114.129 94.4272C114.114 95.2688 114.196 95.2719 113.564 95.3984C113.357 95.4398 109.395 95.5111 108.563 95.4421C108.067 95.4007 108.071 94.6502 108.033 93.6867C107.965 91.9865 107.947 91.8347 108.461 91.6622C109.19 91.4177 111.701 91.4575 111.701 91.4759C114.152 91.4759 113.951 91.3855 114.088 91.8753C114.311 92.6779 114.159 92.7959 114.129 94.4264V94.4272ZM116.612 93.6959C116.612 94.835 116.807 94.7798 115.403 94.0163C115.051 93.8254 115 93.6568 115.012 93.2436C115.022 92.8994 115.14 92.6779 115.432 92.5C116.115 92.0838 116.48 91.5158 116.516 92.0524C116.626 93.6943 116.642 93.6936 116.612 93.6959Z" fill="black"/>
<path d="M140.094 8.17485C134.718 4.1451 124.816 3.08189 118.275 4.47625C100.799 8.20321 98.8375 28.8763 112.121 35.6097C113.536 36.3272 113.603 36.2275 113.51 36.4743C113.051 37.7016 110.829 42.734 109.91 43.8938C108.271 45.965 116.668 44.5484 121.773 38.4904C122.271 37.8986 125.164 38.3225 126.16 38.4083C131.355 38.0504 131.254 38.0734 133.509 37.454C147.05 33.7362 151.437 16.6767 140.093 8.17408L140.094 8.17485ZM133.529 35.878C130.222 36.7526 131.5 36.6254 127.588 37.0408C122.4 37.592 122.363 36.6483 121.347 37.6073C118.969 39.851 118.165 40.4704 114.948 42.189C113.884 42.7578 111.963 43.4814 111.359 43.4875C111.557 42.9946 112 42.8405 113.755 38.6613C115.201 35.2164 114.776 35.8879 112.605 34.4652C109.856 32.6638 107.585 31.0303 105.946 27.3363C102.769 20.1821 105.073 6.99053 122.322 5.59848C123.254 5.52335 124.189 5.48733 125.122 5.43367C125.129 5.62684 127.322 5.33248 129.964 5.89513C131.406 6.20175 130.694 5.8752 132.299 6.3152C134.295 6.86252 137.042 7.50105 139.82 9.83136C149.674 18.0986 145.403 32.7389 133.53 35.8787L133.529 35.878Z" fill="black"/>
<path d="M124.601 20.1865C123.291 20.1812 122.485 21.4406 122.496 22.375C122.526 25.1262 126.654 25.2711 126.729 22.2355C126.758 21.0106 125.806 20.1911 124.601 20.1865H124.601Z" fill="black"/>
<path d="M116.441 20.0672C115.275 20.0051 114.286 21.253 114.271 22.2541C114.255 23.3495 115.232 24.3844 116.329 24.3353C118.88 24.5086 119.532 20.232 116.442 20.0672H116.441Z" fill="black"/>
<path d="M132.504 19.966C131.375 19.8633 130.419 21.1373 130.419 22.1538C130.421 23.2614 131.417 24.2265 132.506 24.2296C135.186 24.2357 135.564 19.9154 132.503 19.9668L132.504 19.966Z" fill="black"/>
</svg>
