<svg width="154" height="154" viewBox="0 0 154 154" fill="none" xmlns="http://www.w3.org/2000/svg">
<path d="M102.021 32.5359C100.193 33.4566 98.8121 34.345 98.3314 36.1709C98.1429 36.8861 98.1413 36.9007 97.9229 36.7489C96.865 36.0168 95.7995 35.1706 94.4504 35.3745C93.7766 35.4764 92.6352 35.9555 92.6636 36.6278C92.616 37.0862 93.076 37.2057 93.3995 36.9359C95.9206 34.834 98.5468 40.0098 99.134 37.7531C99.2927 37.1452 99.1171 37.1145 99.5441 36.0276C100.214 34.3243 102.413 33.8805 102.906 33.0802C103.205 32.595 102.633 32.227 102.02 32.5359H102.021Z" fill="black"/>
<path d="M17.153 108.765C16.5444 108.734 15.3815 109.137 14.3321 110.198C13.4291 111.112 13.8791 111.76 13.4 111.521C12.4587 111.051 11.3725 110.44 10.2388 110.46C8.16141 110.499 8.65507 112.095 9.48218 111.656C10.4365 111.15 12.1436 112.1 13.0727 112.608C15.2428 113.793 13.9987 111.574 15.6544 110.519C16.3443 110.08 16.9553 109.784 17.3707 109.458C17.6597 109.231 17.6912 108.792 17.153 108.765Z" fill="black"/>
<path d="M32.2931 103.925C32.1674 104.117 32.1605 104.109 31.9436 104.004C30.1675 103.144 29.9559 102.942 28.3707 102.787C28.015 102.868 27.4424 102.902 27.4907 103.39C27.5221 103.709 27.9268 103.819 28.2457 103.828C30.9647 103.901 32.1045 106.464 33.1309 104.673C33.9703 103.209 37.2289 101.656 37.13 101.394C36.7567 100.401 33.3793 102.275 32.2931 103.925Z" fill="black"/>
<path d="M117.669 36.4078C115.771 37.136 115.52 37.5561 114.773 38.7711C113.893 38.2107 112.93 37.5523 111.754 37.7017C110.385 37.875 110.981 39.3353 111.757 38.8163C112.427 38.3679 114.353 39.881 114.602 40.0282C115.045 40.2904 115.466 40.1417 115.656 39.6595C116.558 37.3691 117.891 37.8612 118.492 37.0348C118.785 36.6309 118.39 36.1326 117.669 36.4093V36.4078Z" fill="black"/>
<path d="M119.884 24.8935C118.114 26.2265 118.342 26.9509 118.084 26.7677C117.172 26.1215 116.605 25.6501 115.775 25.5765C115.005 25.5604 114.65 26.0311 114.844 26.4335C115.113 26.9908 115.315 26.3806 116.109 26.7509C117.458 27.3802 118.722 29.318 119.154 27.512C119.535 25.9169 121.838 25.2354 121.854 25.2277C122.584 24.8521 121.687 23.5352 119.885 24.8927L119.884 24.8935Z" fill="black"/>
<path d="M19.0977 96.6472C18.2468 96.1682 17.445 95.64 16.3596 95.7864C15.7463 95.8692 15.6298 96.6135 16.3803 96.658C18.5933 96.7898 19.3537 99.2313 20.1977 96.937C20.5074 96.0953 21.6296 94.7891 21.8887 94.5055C23.4601 92.7815 23.5092 93.0813 23.8081 92.7907C24.1975 92.4121 21.6334 92.0165 19.0985 96.6465L19.0977 96.6472Z" fill="black"/>
<path d="M85.9579 125.66C85.9579 122.587 86.1112 120.112 88.2652 117.859C91.0738 114.92 93.1044 114.325 95.7322 114.384C99.2698 114.463 102.14 115.58 104.379 118.319C106.442 120.843 106.03 121.228 106.418 120.457C108.452 116.414 112.084 113.884 115.462 113.204C120.798 112.131 127.94 117.21 127.609 122.43C127.472 124.6 125.278 128.945 125.977 128.968C129.552 129.085 132.202 129.635 136.35 133.766C137.208 134.62 138.45 136.399 138.625 137.57C138.735 138.306 139.112 138.241 141.909 138.948C145.235 139.789 146.594 140.003 147.907 141.304C148.996 142.383 148.516 143.891 147.35 144.591C144.762 146.148 142.225 146.235 139.501 146.194C130.358 146.054 126.871 146.551 103.769 145.796C92.3325 145.422 103.002 145.665 84.2906 145.081C59.2298 144.298 60.9063 145.112 57.5595 144.627C55.1694 144.281 51.7046 143.61 52.5539 141.349C53.0775 139.957 55.5236 139.59 57.2207 139.106C60.0623 138.297 60.7154 137.826 64.9015 137.765C66.7458 137.738 68.8194 138.006 69.057 136.171C69.3184 134.158 69.0386 133.547 69.7454 131.732C70.2973 130.313 71.9247 128.337 74.3339 127.18C78.6044 125.128 82.106 127.808 85.1362 129.638C85.7042 129.981 85.7969 130.186 85.8644 129.955C85.8874 129.877 86.0062 125.657 85.9571 125.657L85.9579 125.66ZM86.8647 129.626C86.8563 130.014 86.7735 130.385 86.6892 130.758C86.4163 131.957 85.1323 130.858 84.4876 130.467C80.3115 127.942 79.5848 127.409 76.9072 127.552C74.3094 127.692 71.313 130.199 70.5786 132.628C69.7262 135.444 71.3643 138.404 66.3173 138.617C64.0744 138.711 63.836 138.486 61.8323 138.811C59.3387 139.217 59.0505 139.642 54.8268 140.725C53.5957 141.041 52.245 142.207 54.9287 143.015C59.4008 144.361 63.0817 143.382 69.566 143.713C69.7147 143.72 69.6005 143.979 92.0964 144.223C92.1141 144.223 118.401 145.762 137.686 145.189C138.808 145.155 144.935 145.802 147.331 143.524C147.687 143.185 147.812 142.403 147.353 141.942C145.837 140.417 144.06 140.538 138.851 139.111C137.632 138.777 137.854 137.785 137.333 136.788C136.301 134.816 135.123 133.942 134.154 133.065C128.514 127.963 124.136 131.343 124.676 128.885C125.828 123.638 128.734 121.647 123.767 116.775C122.6 115.631 121.681 115.291 119.567 114.454C117.747 113.734 115.379 113.787 112.766 115.256C106.895 118.557 107.544 122.339 106.117 122.203C104.997 122.096 103.517 115.878 96.7754 115.429C96.1829 115.389 94.4988 115.364 93.7161 115.51C91.7062 115.884 89.7178 117.66 88.5611 119.09C86.7037 121.383 86.9927 123.486 86.864 129.627L86.8647 129.626Z" fill="black"/>
<path d="M104.288 55.8997C107.509 55.8652 109.752 56.0354 112.728 59.399C114.326 61.2058 114.228 61.7217 114.425 61.3706C118.533 54.0907 120.802 53.0083 126.384 52.6948C132.308 52.3621 135.936 58.2063 135.918 61.6611C135.876 69.8387 132.708 65.1918 139.942 67.9115C141.869 68.6359 143.451 69.9391 143.328 71.9957C143.255 73.2283 142.663 74.0562 141.842 75.4552C141.428 76.1604 141.094 75.7733 145.303 77.2037C145.842 77.3869 147.742 78.053 148.436 78.4263C149.715 79.1131 149.677 79.9272 149.066 80.309C146.939 81.6359 142.769 80.9552 139.223 81.1215C136.179 81.2648 101.858 80.9621 97.5406 80.601C96.2428 80.4922 93.7822 80.6071 93.5254 80.6041C84.4218 80.4922 77.6815 81.4005 75.802 79.5984C75.3742 79.1883 75.3535 78.6647 75.7782 78.2416C76.0273 77.9924 76.3339 77.8345 76.6375 77.6751C79.2752 76.2861 81.8646 75.7265 83.236 75.3823C84.2532 75.1271 84.5054 75.2927 84.3935 74.9692C83.886 73.4989 84.2087 71.5542 85.0688 70.1759C86.4516 67.9606 90.6171 67.1074 93.9071 68.7931C95.2562 69.4845 94.9496 69.4492 94.4675 67.273C93.3123 62.0628 97.4838 55.9725 104.289 55.8989L104.288 55.8997ZM145.389 80.2246C146.61 80.2277 148.839 79.803 148.358 79.4535C148.187 79.3293 148.015 79.1967 147.822 79.12C142 76.7974 140.168 77.1515 140.611 75.7733C141.055 74.3958 144.768 70.944 139.764 68.892C138.164 68.2358 135.893 67.8249 134.83 67.8525C134.265 67.8671 133.879 67.4853 134.057 66.8706C135.566 61.6864 135.224 58.8931 131.49 55.321C130.572 54.4433 129.239 54.0646 127.968 53.8201C126.697 53.5755 126.608 53.6813 124.465 53.889C116.083 54.7001 115.311 65.9507 113.559 62.3778C112.888 61.0111 111.532 59.3492 109.336 57.8789C108.068 57.0296 106.719 57.0457 105.423 56.9468C102.214 56.7023 99.9652 57.2381 97.1527 60.3825C95.6694 62.0413 94.922 64.8032 95.5544 67.4524C95.7744 68.3753 95.7852 69.3381 96.0925 70.2434C96.1592 70.4396 96.0734 70.6106 95.9086 70.7317C95.5621 70.9869 95.257 70.6566 95.096 70.5462C91.287 67.9368 85.5693 68.383 85.1945 72.8198C85.1332 73.5411 85.081 74.2762 85.3049 74.9929C85.8392 76.7062 81.3962 75.7196 76.452 78.7222C76.2841 78.8241 76.2826 78.933 76.452 79.0127C79.565 80.4807 86.8342 79.2274 101.844 79.8122C113.829 80.2791 145.346 80.2239 145.389 80.2239V80.2246Z" fill="black"/>
<path d="M10.4312 144.619C42.8816 144.619 41.2289 145.694 43.1177 144.571C44.5189 143.737 40.9177 142.604 39.0994 142.149C34.6964 141.047 34.0049 141.687 33.4714 138.948C32.9977 136.516 33.0966 135.328 31.4707 134.443C30.7111 134.03 29.1458 133.619 28.022 133.682C26.2789 133.78 25.4602 134.305 23.392 135.584C22.4438 136.17 21.8827 136.817 21.3132 135.948C20.4309 134.603 20.066 128.28 13.0574 129.219C9.76662 129.659 8.10934 133.615 7.06376 132.249C6.82766 131.941 6.58006 130.848 5.63951 130.303C4.68055 129.746 4.25512 129.857 3.94083 129.492C3.22564 128.661 6.22668 128.617 7.39414 130.612C7.75213 131.224 7.6609 131.349 8.06181 131.021C10.4389 129.076 11.0253 128.143 14.4594 128.107C16.4203 128.086 18.3167 128.794 19.7072 130.385C21.0786 131.954 21.1139 132.544 21.6642 134.142C22.046 135.248 22.0054 135.267 22.2744 135.103C24.2751 133.881 25.405 133.079 26.8645 132.825C28.4835 132.544 30.1691 132.806 31.5282 133.369C33.3342 134.118 33.8087 135.267 34.1115 136.84C35.144 142.2 34.2127 139.23 41.475 141.823C43.0349 142.38 43.7393 142.705 44.2706 143.627C44.6224 144.237 44.4124 145.095 43.051 145.636C41.1415 146.395 38.4463 145.961 37.1133 145.903C28.3532 145.517 6.12243 145.952 4.40919 145.484C4.17003 145.419 4.05965 144.959 4.43602 144.866C5.34822 144.641 10.4312 144.603 10.4312 144.619Z" fill="black"/>
<path d="M60.4364 88.8988C61.1531 81.5836 60.7024 81.776 61.0826 81.3467C72.0719 68.9539 81.8967 58.2123 83.321 41.6042C84.1849 31.5394 79.6009 22.593 74.4581 19.165C72.4038 17.7929 71.4709 16.9795 69.1115 16.0474C68.5181 15.8129 68.3388 15.6227 67.9816 15.2456C65.3738 12.4837 60.5215 9.77167 56.0173 9.55244C55.3895 9.52254 55.3657 9.15153 53.2147 8.26004C51.2332 7.43829 48.2866 6.85955 45.9609 7.69662C45.6213 7.81927 45.5094 7.77481 45.2097 7.65753C42.874 6.73997 39.5188 6.92394 37.2958 9.01739C37.1011 9.20136 37.0329 9.25732 36.911 9.24045C35.952 9.09481 34.8781 9.11244 33.8057 9.29181C26.9497 10.4378 24.4224 13.8329 23.2074 15.4641C22.8433 15.9531 22.5803 16.3057 22.3772 16.3609C21.2749 16.6607 19.8192 17.7223 18.9078 18.5418C13.8869 23.0422 12.537 29.2551 11.8977 29.9074C8.52028 33.3638 6.23365 38.4506 5.78216 43.5152C5.53533 46.2993 5.7032 46.2334 5.69707 46.6864C5.61352 53.5072 10.4995 61.7476 14.7086 66.7325C23.6573 77.3285 39.8093 84.1753 40.9338 86.3715C45.5975 95.4904 46.9536 96.6877 46.6446 97.166C46.1472 97.941 46.8754 99.2012 47.6166 99.7639C47.8635 99.9509 47.8566 100.049 47.819 100.593C47.7056 102.221 47.8014 104.868 47.9493 106.636C48.0221 107.505 48.0168 107.535 47.7592 107.714C47.0264 108.222 46.7113 109.238 47.2962 110.01C47.4135 110.165 47.3951 110.184 47.2134 110.362C46.4239 111.139 46.6155 111.573 44.9475 113.154C44.2883 113.778 43.8529 114.191 44.0092 115.265C44.0675 115.664 44.6309 116.284 45.4964 116.36C46.4354 116.444 47.1337 115.605 47.714 114.741C47.6458 118.954 47.4924 120.58 49.0961 121.204C52.298 122.449 54.7417 121.663 57.5871 120.92C63.7609 119.306 68.6385 118.035 69.6419 116.127C69.865 115.703 69.8918 115.25 69.7216 114.781C69.3345 113.714 68.627 112.273 68.6577 112.09C69.8765 111.776 70.3533 110.318 69.8964 109.422C68.3771 106.442 66.2821 106.919 66.3404 106.149C66.4239 105.058 65.5922 103.91 65.212 103.761C64.1687 103.354 64.1473 103.494 64.0239 103.213C61.6046 97.6919 60.8473 97.1768 61.042 96.91C61.5142 96.2646 61.2451 95.1983 60.9032 94.6464C60.1934 93.5027 59.991 93.7265 60.0025 93.5441C60.0516 92.8258 60.2931 90.3269 60.4326 88.9011L60.4364 88.8988ZM47.8083 110.872C47.7922 112.673 47.4994 114.591 45.6313 115.414C44.4615 115.178 44.772 114.34 45.7125 113.621C46.4737 113.04 46.9428 112.225 47.2863 111.63C47.481 111.291 47.6542 110.991 47.8083 110.872ZM55.8202 106.978C48.0444 109.052 48.5894 110.089 48.1923 109.54C48.0789 109.383 47.97 109.236 47.9784 109.033C48.0068 108.413 48.6415 108.05 49.1689 107.855C56.7301 105.057 59.0421 104.825 63.137 104.379C63.6567 104.323 64.621 104.218 65.0395 105.012C65.1614 105.242 65.3546 105.545 65.3822 105.858C63.0595 105.127 58.195 106.344 55.8195 106.977L55.8202 106.978ZM48.7956 100.589C48.8055 100.586 48.8638 100.567 49.1451 100.655C51.4003 101.36 51.1719 100.115 51.4586 101.939C51.7092 103.528 51.835 104.121 51.9921 104.833C52.3516 106.454 52.1293 105.348 48.9957 107.041C48.8983 107.094 48.9098 100.843 48.7956 100.589ZM53.112 100.579C56.8865 99.7815 56.7501 99.3193 56.8727 99.675C57.4967 101.506 57.5948 101.972 58.3936 103.839C58.5699 104.25 58.484 103.733 53.2347 105.373C53.0231 105.439 53.1695 105.817 52.3049 100.975C52.2977 100.826 52.5668 100.694 53.112 100.579ZM63.0243 103.368C62.802 103.39 61.8032 103.372 59.8784 103.75C59.7887 103.766 59.6676 103.762 59.5556 103.778C59.374 103.803 59.374 103.804 59.318 103.643C58.9186 102.501 57.8194 99.3453 57.7903 99.2725C57.6876 99.0242 59.0796 98.5995 60.2785 97.8713C60.3559 97.9065 60.3766 98.0154 62.0623 101.346C62.7821 102.769 63.035 103.269 63.0243 103.368ZM60.2731 96.401C60.2325 96.3796 60.1903 96.3512 60.1405 96.3182C59.5403 95.9242 58.2901 95.1033 51.1205 97.5677C48.745 98.3841 48.8393 99.2794 48.6668 99.2626C48.2245 99.2196 47.0624 97.7011 47.6964 97.2289C49.2509 96.0737 55.8486 94.132 59.0934 94.2777C59.689 94.3037 60.6043 95.3892 60.2731 96.401ZM18.0056 33.1453C18.1773 44.248 24.8217 58.3671 30.4597 67.0835C31.9767 69.4284 38.2157 78.1357 41.1937 81.5667C41.2297 81.6089 41.2972 81.6863 41.298 81.7078C41.2911 81.7392 41.0458 81.9224 41.0205 81.9416C40.8342 82.0834 40.641 82.229 40.5046 82.4467C39.6276 82.4406 24.8118 67.8923 19.5003 59.6687C15.8792 54.0622 13.8179 49.4023 12.8168 44.56L12.813 44.5454C9.60035 28.9715 19.7755 18.1255 21.6789 17.7691C21.3278 19.0607 17.84 22.4029 18.0056 33.1453ZM57.6094 86.3753C57.6623 88.8743 57.6937 90.0149 57.581 93.2375C57.5789 93.2888 57.4162 93.3379 57.0927 93.3862C57.0728 93.3893 55.7451 93.6062 55.7252 93.6039C55.6815 93.4981 55.8126 89.7765 55.3304 85.3405C55.322 85.2638 55.2162 84.3593 55.2783 84.2872C55.2936 84.2765 55.3956 84.2819 55.4147 84.2826C56.2457 84.3141 56.852 84.0197 57.555 83.7499C57.5726 83.8327 57.5534 83.7422 57.6094 86.3753ZM53.04 78.4691C53.4301 78.7259 53.6287 78.5358 53.6616 78.7566C54.3891 83.6663 54.3531 83.6096 54.1216 83.7859C53.3021 84.4091 52.0849 85.027 51.0561 84.9833C49.2808 84.9227 49.3766 85.2017 48.7994 83.329C47.5906 79.4104 47.3598 79.5791 47.5814 79.3484C49.3268 77.5324 51.1635 77.2365 53.04 78.4691ZM49.6664 85.8027C51.014 85.8395 51.6127 86.2657 54.0986 84.9434C54.1737 84.9035 54.2327 84.8583 54.2803 84.8215C54.3684 84.7533 54.3676 84.6061 54.4903 86.0978C54.7088 88.7348 54.9035 90.3821 55.0368 93.3417C55.0606 93.8814 55.0491 93.7388 53.2347 94.1788C52.4045 94.3789 52.4099 94.4425 52.3485 94.3068C52.2926 94.1849 49.6733 85.887 49.6656 85.8019L49.6664 85.8027ZM46.2108 86.7517C47.9846 86.6773 48.4936 85.8364 48.63 85.8272C48.6476 85.8395 51.1573 93.4383 51.605 94.5889C51.4785 94.6794 51.4923 94.6725 51.1558 94.7736C48.9727 95.4321 49.0516 95.5724 48.952 95.3555C46.4469 89.8869 45.1476 86.9985 44.9897 86.5524C45.1207 86.5585 45.4672 86.7785 46.2108 86.7517ZM48.1448 85.0852C47.1567 85.6471 45.8704 86.2028 44.6792 85.4976C44.368 85.3121 44.4607 85.3382 42.9483 82.1018C42.8625 81.9209 42.9322 82.0658 43.5555 81.1873C44.1442 80.3594 45.6251 79.1398 46.5458 79.5101C46.6646 79.5576 46.7343 79.7868 47.6159 82.5771C48.3571 84.9235 48.4284 84.9227 48.144 85.0844L48.1448 85.0852ZM57.3763 82.8676C56.6481 83.247 56.3354 83.2555 55.8632 83.2562C55.1342 83.2578 55.1633 83.303 55.1005 82.5686C54.9878 81.2632 54.8506 80.6408 54.6198 79.4718C54.4021 78.3817 54.3929 78.3733 54.4719 78.3365C55.5864 77.8176 56.018 78.0851 56.6305 78.5634C57.6262 79.3415 57.4315 81.9117 57.5251 82.5334C57.5603 82.7618 57.5542 82.7741 57.3763 82.8676ZM53.2508 77.4366C51.2547 76.0254 48.8071 76.7459 47.3867 78.2085C46.5481 77.4619 38.2387 56.2292 34.455 39.083C32.9985 32.4884 32.1523 22.3308 34.5592 15.4081C35.1955 13.5745 36.0962 12.0476 37.571 10.3029C38.5437 9.15 40.5636 8.20178 42.7237 8.25927C47.1828 8.35969 49.963 12.9084 51.6663 16.3211C54.5064 22.0119 55.4776 30.6303 55.9613 36.6178C57.4645 55.2204 53.657 76.0775 53.2508 77.4366ZM40.5881 84.2236C40.5996 84.1079 40.7024 83.2417 41.9304 82.4483C42.0476 82.3724 42.1665 82.2927 42.1964 82.3026C42.2638 82.3226 43.58 85.4953 43.5938 85.552C43.5072 85.5766 43.0925 85.572 43.0074 85.5735C42.421 85.5835 41.2604 85.3343 40.8319 84.9242C40.6418 84.7418 40.5598 84.5065 40.5881 84.2236ZM44.1242 86.8107C45.4672 90.0831 47.829 94.6318 48.3954 95.7441C48.2797 95.8407 48.2912 95.8269 47.4334 96.2899C47.2395 96.3949 47.2556 96.4194 46.601 95.1623C46.1993 94.3919 42.2968 87.2093 41.9089 86.4244C44.1242 86.7655 43.8437 86.1254 44.1235 86.81L44.1242 86.8107ZM59.6676 81.947C59.2368 82.3831 58.3752 82.5073 58.3583 82.3226C58.3414 82.1386 58.4112 82.0895 58.231 80.6822C58.0954 79.6266 58.113 79.6879 58.2035 79.7086C59.2383 79.9578 59.1394 80.2115 59.6009 80.7051C59.9044 81.0294 59.8998 81.7116 59.6676 81.947ZM59.2406 93.3172C58.9907 93.3088 58.7998 93.3088 58.6542 93.3088C58.4587 93.3088 58.3046 93.3088 58.2809 93.2842C58.2333 93.2037 58.3514 91.4506 58.3698 91.2452C58.4365 90.5009 58.494 89.8577 58.4334 83.5536C58.4265 82.843 58.9846 83.559 60.0784 82.6637C60.1551 82.6146 59.5219 92.7285 59.2406 93.3172ZM59.5005 79.4296C59.4238 79.4043 59.1486 78.9352 58.4227 78.8102C58.3905 78.8049 58.3522 78.798 58.3307 78.7918C58.3706 78.6723 58.4503 78.8371 61.3049 71.5196C65.3316 61.198 67.3055 55.176 68.5595 44.8038C69.1919 39.5797 69.0969 31.3286 67.3959 25.558C65.2273 18.1984 62.4302 15.4242 58.8887 11.9119C58.3016 11.3293 57.8777 11.0748 57.5879 10.8065C65.9349 13.1828 71.6196 19.5306 73.9929 27.9098C75.5167 33.2902 75.2071 37.6634 75.1933 37.7998C75.1933 37.7998 75.1894 37.8151 75.1894 37.8228C75.1894 53.3332 67.4174 66.1162 62.7736 73.7541C59.4391 79.238 59.6576 79.3491 59.4997 79.4304L59.5005 79.4296ZM68.0444 113.917C67.4166 113.711 66.6347 113.454 59.3264 115.229C52.0082 117.007 49.7369 118.107 48.9911 118.468C48.9075 118.509 48.8316 118.546 48.7849 118.564C48.7849 118.508 48.7933 118.438 48.7864 118.37C48.617 111.954 48.7458 114.779 48.6959 111.057C48.6867 110.462 48.9857 110.213 51.7361 109.314C51.6724 109.566 51.2493 110.219 50.7687 111.373C50.121 112.929 51.2677 114.213 52.6444 113.991C53.5689 113.845 54.5738 112.636 54.5355 111.239C54.4865 109.36 53.9077 108.806 53.9989 108.623C54.038 108.546 54.1599 108.545 56.2917 107.945C58.3836 107.356 58.1866 107.421 58.1245 107.642C58.0869 107.77 58.0823 107.802 58.0593 107.921C57.8462 109.018 57.5228 110.674 58.1751 111.648C58.6143 112.302 59.4667 112.354 60.1183 112.184C62.0002 111.692 61.9626 108.555 60.9209 106.873C61.2206 106.762 65.1124 106.262 65.5416 107.226C65.675 107.526 68.0927 113.183 68.3687 114.001C68.246 113.983 68.151 113.952 68.0444 113.917ZM59.2897 111.32C58.5062 111.13 58.691 109.695 58.7891 108.924C59.0014 107.258 58.9761 107.27 59.1356 107.222C59.6837 107.056 59.9504 107.019 60.2041 107.368C61.1754 108.712 61.0205 111.738 59.2897 111.32ZM53.6049 111.159C53.5735 111.852 53.5666 112.305 52.8169 112.899C52.1469 113.429 51.2869 112.607 51.5337 112.005C52.4421 109.787 52.5593 109.862 52.6989 109.1C52.7142 109.014 52.7671 108.934 52.8537 108.934C53.26 108.934 53.6425 110.45 53.6049 111.159ZM66.6447 107.522C68.0076 108.164 68.8232 109.008 69.1345 110.097C69.1199 110.571 68.765 111.101 68.3549 111.258C68.269 111.292 68.2713 111.313 68.1494 110.993C67.9915 110.578 66.6501 107.54 66.6439 107.523L66.6447 107.522Z" fill="black"/>
</svg>
