<svg width="154" height="154" viewBox="0 0 154 154" fill="none" xmlns="http://www.w3.org/2000/svg">
<path d="M114.604 92.3693C115.685 91.4111 116.773 90.3993 116.551 88.9966C116.437 88.2473 116.033 87.5727 115.427 87.1182C114.82 86.6636 114.06 86.4656 113.309 86.5667L109.077 67.5797C109.392 67.963 109.43 68.1009 109.637 68.1009C109.688 68.101 109.739 68.0885 109.784 68.0644C109.83 68.0404 109.869 68.0055 109.897 67.963C111.109 66.2713 112.195 64.4933 113.148 62.6432C114.88 59.8837 111.959 58.366 110.35 61.1102C110.221 60.6476 109.996 60.2174 109.689 59.8476C109.383 59.4778 109.002 59.1767 108.571 58.9639C108.115 58.8026 107.617 58.8026 107.161 58.9639L96.2992 10.2662C95.8249 8.17605 94.5433 6.35828 92.7339 5.20947C90.9246 4.06065 88.7343 3.67403 86.6409 4.13396C57.3978 10.6188 38.6791 14.5971 36.7934 15.034C32.3399 16.0765 29.1281 24.9989 30.1246 29.3145L39.3 70.3315C39.245 70.2861 39.1759 70.2612 39.1045 70.2612C39.0332 70.2612 38.964 70.2861 38.9091 70.3315C31.627 75.6513 26.5909 84.1291 24.1993 92.6376C20.5353 105.538 23.2335 120.233 27.917 132.742C28.8949 135.534 30.3102 138.152 32.1099 140.5C32.2939 140.737 32.6772 140.446 32.5162 140.201C29.3887 135.448 27.9783 131.378 26.3073 125.522C23.3178 115.419 22.0914 104.641 24.5213 94.3546C28.6222 77.6979 39.0087 71.4047 39.4073 70.8221L42.734 85.7618C39.6906 89.1067 37.2176 92.9289 35.4137 97.0758C35.268 97.4054 35.567 97.551 35.7433 97.1908C38.604 91.2799 42.7001 86.052 47.7548 81.8602C50.476 79.6449 53.4118 77.422 56.7692 76.8164C58.1508 76.557 59.5775 76.6925 60.8855 77.2073C66.1132 79.3383 64.4115 85.0029 61.56 89.8857C54.8452 101.384 54.186 102.579 53.2508 105.163C51.3575 110.927 53.2508 115.894 54.1707 121.658C56.3246 134.781 51.2655 139.174 50.223 140.668C49.8091 141.274 50.292 141.389 50.4837 141.228C52.0358 139.898 53.243 138.212 54.002 136.314L55.5888 143.451C55.8209 144.499 56.2574 145.49 56.8734 146.369C57.4894 147.247 58.2727 147.996 59.1785 148.571C60.0843 149.147 61.0947 149.538 62.1518 149.722C63.209 149.906 64.292 149.88 65.339 149.644L114.052 138.79C118.107 137.855 122.944 131.002 121.909 125.798C121.878 124.679 122.415 127.392 114.604 92.3693ZM45.5549 82.8797L32.5239 24.4853C32.1229 22.7021 32.4072 20.8334 33.3203 19.25C34.2333 17.6667 35.7084 16.4847 37.4526 15.9385C37.7439 15.8389 86.273 4.90815 86.7866 4.79317C87.7344 4.58211 88.7146 4.56033 89.6709 4.7291C90.6272 4.89787 91.5408 5.25386 92.3591 5.77664C93.1775 6.29941 93.8845 6.97867 94.4396 7.77543C94.9948 8.57218 95.3871 9.47074 95.594 10.4195L106.502 59.3472C106.2 59.5909 105.97 59.9113 105.835 60.2747C104.93 62.3213 106.693 64.5136 108.058 66.3073L112.603 86.7046C112.107 86.8625 111.65 87.1238 111.262 87.4712C111.208 85.6392 110.457 83.9835 108.74 83.8761L107.36 77.6672C108.272 75.521 108.648 74.8387 108.947 73.1447C109.034 72.6789 109.008 72.199 108.87 71.7454C108.733 71.2919 108.489 70.8779 108.158 70.5383C107.828 70.1988 107.421 69.9436 106.971 69.7942C106.521 69.6448 106.042 69.6057 105.574 69.68L93.3097 14.4898C92.8873 12.6548 91.7567 11.0612 90.1644 10.0561C88.5721 9.05108 86.6471 8.71606 84.8089 9.12407L42.1591 18.5754C40.3252 18.9997 38.7329 20.1306 37.7281 21.7224C36.7234 23.3142 36.3875 25.2382 36.7934 27.0762L48.667 80.3501C47.5249 81.1473 46.5284 81.9828 45.5549 82.8797ZM59.0228 76.0499C55.3588 75.6589 52.124 77.7822 49.1959 79.8825L37.3837 26.9306C37.0181 25.2669 37.3267 23.5261 38.2418 22.0894C39.157 20.6527 40.6042 19.6372 42.2665 19.2653C88.4499 8.9401 85.2995 9.59932 86.3343 9.59166C87.8013 9.58931 89.225 10.0892 90.3685 11.0082C91.512 11.9272 92.3065 13.2099 92.6199 14.6431L104.884 69.8333C102.845 70.3775 101.68 72.6081 101.412 74.4325C100.055 72.5545 97.5333 71.7496 96.0462 73.574C95.7083 74.1495 95.547 74.8116 95.5824 75.4781C95.6179 76.1446 95.8485 76.7859 96.2455 77.3223C96.8199 78.136 97.4554 78.9047 98.1465 79.6219L94.1069 80.787C93.8233 76.7857 91.6924 69.5957 87.4688 63.7471C86.7365 62.6196 85.7754 61.6585 84.6479 60.9262C86.0231 59.6579 87.1761 58.168 88.059 56.5187C88.0947 56.4569 88.1088 56.385 88.0992 56.3143C88.0895 56.2436 88.0567 56.1781 88.0058 56.1281C87.9549 56.0781 87.8889 56.0464 87.818 56.038C87.7472 56.0296 87.6756 56.045 87.6144 56.0817C87.4458 56.1891 87.2618 56.2887 87.0855 56.3807C87.3193 56.0255 87.5 55.6382 87.6221 55.2309C87.6338 55.1773 87.6313 55.1216 87.6149 55.0693C87.5984 55.017 87.5686 54.9699 87.5283 54.9327C87.488 54.8955 87.4386 54.8694 87.3852 54.8572C87.3317 54.845 87.2759 54.847 87.2235 54.863C86.4569 55.1772 85.8207 54.3647 85.6214 53.5522C85.0465 51.1606 85.6214 50.1488 84.234 47.236C85.4215 45.2631 86.1547 43.0504 86.3803 40.7588C86.5181 40.2531 86.494 39.717 86.3113 39.2257C86.1829 39.0078 85.987 38.8376 85.7533 38.7408C85.5196 38.644 85.2608 38.6259 85.0159 38.6892C83.1749 39.0141 81.3924 39.6108 79.7268 40.4598C79.9721 38.5205 80.271 36.6885 80.3324 34.8488C81.6355 34.2739 85.2612 32.6259 84.5023 29.5368C84.1114 27.9194 81.9038 25.8881 80.1561 26.4017C80.2504 25.3807 79.9902 24.3584 79.4192 23.5068C78.8482 22.6552 78.0013 22.0263 77.021 21.7258C75.9166 21.481 74.7623 21.6092 73.7386 22.0905C72.715 22.5718 71.8798 23.379 71.364 24.3857C70.5841 23.4889 69.6396 22.7499 68.5815 22.2087C67.7832 21.87 66.9111 21.7427 66.0494 21.8392C65.1876 21.9357 64.3653 22.2528 63.6619 22.7598C62.9584 23.2668 62.3975 23.9466 62.0333 24.7336C61.6692 25.5206 61.5141 26.3881 61.583 27.2525C59.0765 26.6853 56.271 28.3717 56.4089 31.0852C56.4289 31.7043 56.6026 32.3087 56.9144 32.844C57.2262 33.3793 57.6662 33.8285 58.195 34.1513C58.9092 34.449 59.6513 34.6749 60.4102 34.8258C60.8313 34.9702 61.2118 35.2132 61.5198 35.5346C61.8279 35.8559 62.0546 36.2463 62.1809 36.6732C62.9574 38.8034 63.5724 40.9891 64.0206 43.2117C64.0206 43.2883 64.1509 43.0584 63.4687 43.7866C62.9321 43.2676 62.3497 42.7981 61.7287 42.3838C61.0465 41.8243 60.4256 41.326 59.7893 40.8508C55.7037 37.6773 55.5581 43.9706 57.3518 47.9948C57.9275 49.3494 58.7026 50.6103 59.6514 51.7355C59.6054 51.9578 59.5747 52.1878 59.5441 52.4101C59.2068 52.2951 58.7775 52.9083 58.6932 53.2532C58.6786 53.2997 58.6752 53.349 58.6834 53.3969C58.6917 53.445 58.7112 53.4903 58.7404 53.5293C58.7696 53.5682 58.8077 53.5997 58.8515 53.621C58.8952 53.6423 58.9435 53.6529 58.9922 53.6518H59.4214C59.3168 54.7241 59.2809 55.8021 59.3141 56.8789C59.3678 58.0747 59.3141 60.8879 58.149 60.9875C58.0959 60.986 58.0436 61.0008 57.9991 61.0298C57.9547 61.0588 57.9201 61.1007 57.9001 61.1499C57.8801 61.199 57.8756 61.2532 57.8872 61.305C57.8988 61.3568 57.9259 61.4038 57.965 61.4398C58.2675 61.6977 58.5994 61.9189 58.9538 62.099H58.2486C58.201 62.0979 58.154 62.1103 58.1131 62.1347C58.0722 62.1591 58.039 62.1946 58.0174 62.2371C57.9958 62.2795 57.9866 62.3272 57.9909 62.3747C57.9952 62.4221 58.0128 62.4674 58.0417 62.5053C60.1956 65.0885 63.4074 65.9777 66.8261 66.3379C66.5501 67.7023 65.9446 69.8716 64.9941 71.0061C64.6514 71.3516 64.2488 71.6321 63.806 71.8339C61.744 72.3322 60.7398 74.9001 61.7823 77.0004C60.9408 76.4904 59.9999 76.1663 59.0228 76.0499ZM91.0561 91.6641C89.661 94.0633 88.4959 94.4313 85.7901 94.7839L68.9264 97.1831C67.0561 97.5204 60.3413 98.5169 60.8702 96.7155C61.4067 95.3741 64.4422 91.6488 65.2164 90.6983C64.7871 93.9637 66.0979 95.2974 69.2483 94.7455C86.112 91.6794 85.3455 92.1777 85.6751 91.5951C86.3036 91.7178 86.7712 91.1045 87.2081 90.5603C87.9389 89.5244 88.6046 88.4441 89.2011 87.3255C89.7298 86.4542 90.0839 85.4883 90.2436 84.4817C91.8344 84.1727 93.4636 84.1132 95.0727 84.3054C95.1348 84.3593 95.1837 84.4267 95.2156 84.5024C95.2475 84.5782 95.2616 84.6603 95.2567 84.7423C95.0957 85.1486 95.6017 83.8378 91.0638 91.6641H91.0561ZM95.5097 85.6775C95.704 86.8466 95.4285 88.0451 94.7431 89.0119L92.1446 93.4041C91.5981 94.5624 90.8882 95.6362 90.0366 96.5929C89.4769 97.0492 88.7876 97.3174 88.0667 97.3594C87.4381 97.4514 65.7376 100.165 65.7376 100.165C62.7941 100.678 61.445 100.579 60.8472 97.8117C62.7788 98.9615 67.9069 97.7273 85.6904 95.4048C88.4116 95.0522 90.0213 94.7379 91.5237 92.0397L95.5097 85.6775ZM71.5479 82.8567C71.7124 82.9702 71.864 83.1013 72.0002 83.2476C71.5782 83.6281 71.2095 84.0639 70.904 84.543C70.9 84.5632 70.9 84.5839 70.904 84.604C70.908 84.6242 70.9159 84.6433 70.9273 84.6604C70.9387 84.6775 70.9533 84.6922 70.9704 84.7036C70.9874 84.715 71.0066 84.723 71.0267 84.727C71.0468 84.731 71.0675 84.731 71.0877 84.7271C71.1078 84.7231 71.127 84.7152 71.1441 84.7038C71.1612 84.6924 71.1758 84.6777 71.1872 84.6607C71.1987 84.6436 71.2066 84.6245 71.2107 84.6043C71.5271 84.2342 71.876 83.893 72.2531 83.5849C72.4153 83.8505 72.5587 84.1271 72.6824 84.4127C72.6211 84.497 72.5827 84.5277 72.5827 84.5814C72.5807 84.6065 72.5835 84.6319 72.5913 84.6559C72.599 84.68 72.6115 84.7023 72.6278 84.7215C72.6442 84.7407 72.6642 84.7566 72.6868 84.768C72.7093 84.7795 72.7338 84.7864 72.759 84.7883C72.9277 84.7883 73.1806 84.2287 74.2921 83.2552C74.3688 83.3549 74.4148 83.4469 74.5451 83.4469C74.5732 83.4481 74.6013 83.4432 74.6274 83.4328C74.6536 83.4223 74.6772 83.4064 74.6968 83.3861C74.7164 83.3658 74.7314 83.3416 74.7409 83.3151C74.7504 83.2886 74.7542 83.2603 74.752 83.2323C74.7377 83.1332 74.7066 83.0373 74.66 82.9486C74.9137 82.7275 75.1945 82.5394 75.4956 82.3891C75.6607 82.5909 75.8046 82.8092 75.9248 83.0406C75.4516 83.5173 75.0159 84.0298 74.6217 84.5737C74.5983 84.6024 74.5861 84.6386 74.5873 84.6756C74.5886 84.7126 74.6031 84.7479 74.6284 84.775C74.6536 84.8021 74.6878 84.8191 74.7246 84.823C74.7614 84.8269 74.7984 84.8173 74.8287 84.796C74.936 84.796 75.0433 84.4817 76.1471 83.4546C76.1882 83.6042 76.2737 83.7378 76.3924 83.8378C75.4956 84.796 74.7367 85.7541 75.1046 87.0956C75.1632 87.323 75.2666 87.5364 75.4087 87.7233C75.5509 87.9103 75.729 88.0669 75.9325 88.184C75.9979 88.5279 76.1944 88.8328 76.4804 89.0345C76.7665 89.2361 77.1197 89.3187 77.4655 89.2649C77.9246 89.2033 78.3643 89.041 78.7533 88.7896C79.7038 89.4182 80.5777 88.483 81.1602 87.9158C81.9186 87.1572 82.6063 86.3311 83.2145 85.4475C83.5978 84.8956 83.4675 85.0336 83.5518 85.0566C83.7664 85.1179 83.8354 84.7423 84.6173 83.8838C84.7137 84.0775 84.8348 84.2578 84.9775 84.4204C85.003 84.4621 85.0439 84.4919 85.0913 84.5034C85.1388 84.5149 85.1888 84.5071 85.2305 84.4817C85.2722 84.4563 85.3021 84.4154 85.3135 84.3679C85.3251 84.3205 85.3172 84.2704 85.2918 84.2287C85.1913 83.9958 85.0653 83.7748 84.9162 83.5695C85.1653 83.2865 85.4427 83.0296 85.7441 82.803C85.8945 83.025 86.0277 83.2582 86.1427 83.5005C85.6292 84.0215 85.1813 84.6033 84.8089 85.2329C84.7323 85.4705 85.1079 85.5242 85.1079 85.3172C85.4709 84.7999 85.8843 84.3197 86.342 83.8838C86.5029 84.1981 86.6179 84.5124 86.8326 84.4204C86.8841 84.3918 86.9248 84.347 86.9483 84.293C86.9719 84.2389 86.977 84.1787 86.9629 84.1214C86.9145 83.9072 86.8425 83.6989 86.7482 83.5005C87.2864 83.0493 87.8578 82.6394 88.4576 82.2741C86.6091 84.4693 85.5011 87.1922 85.2918 90.0544C85.3075 90.3898 85.2921 90.7259 85.2458 91.0585V91.1199C85.0542 91.5568 84.3337 91.5644 84.234 91.5798C83.9197 91.5798 85.1002 91.4265 69.6699 94.0863C67.9146 94.3853 66.2512 94.4313 65.9369 92.7066C65.4617 89.3798 67.332 84.9953 71.5479 82.8567ZM72.0232 82.6497C72.4572 82.4271 72.9185 82.2621 73.3953 82.1591C71.9235 83.01 72.6211 83.1326 72.0538 82.6497H72.0232ZM73.7555 82.5271C74.2078 83.079 74.0698 82.527 72.989 83.9605C72.9026 83.7122 72.7728 83.4812 72.6057 83.2782C72.957 82.982 73.3431 82.7297 73.7555 82.5271ZM74.1848 82.3048C74.4892 82.1991 74.78 82.0575 75.051 81.8832C75.2119 82.0518 75.2196 81.8832 74.5067 82.4427C74.2998 82.596 74.4531 82.5884 74.1848 82.3048ZM77.2509 82.4811C77.3199 82.6267 77.2509 82.596 77.3582 82.711C77.2279 82.8797 76.8523 83.3472 76.7067 83.4775C76.6624 83.3363 76.6033 83.2001 76.5304 83.0713C76.653 83.01 76.7603 82.895 77.2816 82.4811H77.2509ZM76.2851 82.6727C76.2303 82.5651 76.1662 82.4625 76.0935 82.3661C76.0311 82.2884 75.9646 82.2142 75.8942 82.1438C76.1583 82.0045 76.4295 81.8791 76.7067 81.7682C76.8114 81.8601 76.9088 81.9601 76.998 82.0671C76.7606 82.2575 76.5329 82.4596 76.3157 82.6727H76.2851ZM84.6249 83.1709C84.8309 82.8077 85.0127 82.4313 85.1692 82.0441L85.4605 82.4581C85.1476 82.6678 84.8707 82.9267 84.6403 83.2246L84.6249 83.1709ZM86.1043 82.5271C86.4416 82.3124 86.5106 82.2818 86.7482 82.1131C87.0855 82.1131 87.4304 82.1131 87.7754 82.1668C86.0813 83.1786 86.8862 83.5082 86.135 82.5271H86.1043ZM88.9405 85.2022C88.8952 85.136 88.8264 85.0896 88.748 85.0725C88.6696 85.0554 88.5877 85.0689 88.5189 85.1103C88.3809 85.2176 88.3809 85.2482 87.9823 85.8001C87.898 85.7082 87.8137 85.6315 87.7371 85.5395C87.7065 85.4993 87.6618 85.4721 87.612 85.4636C87.5622 85.455 87.511 85.4657 87.4688 85.4935C87.2388 85.6468 87.5148 85.9841 87.6834 86.26C87.5454 86.4747 87.4074 86.697 87.2925 86.9116C87.2666 86.9466 87.2516 86.9885 87.2493 87.032C87.247 87.0755 87.2575 87.1187 87.2795 87.1562C87.3016 87.1938 87.3342 87.2241 87.3733 87.2432C87.4124 87.2624 87.4562 87.2697 87.4994 87.2642C87.4994 87.2642 87.6144 87.2642 87.6374 87.2106C88.243 86.5973 87.852 86.628 88.4039 87.0113C88.4703 87.0524 88.549 87.0687 88.6262 87.0572C88.2583 87.7318 86.5336 90.8439 85.8284 91.1505C85.8471 87.9271 87.0439 84.8218 89.1935 82.4197C89.1946 82.4461 89.2022 82.4717 89.2155 82.4944C89.2289 82.5172 89.2476 82.5363 89.2701 82.55C89.3468 82.7034 89.4234 82.8567 89.4924 83.0176C89.7573 84.2575 89.5233 85.5518 88.8409 86.6203C88.8409 86.5207 88.7872 86.513 88.4116 86.2294C88.9175 85.6315 89.1321 85.4475 88.9712 85.2022H88.9405ZM89.3314 81.6302C89.2907 81.6025 89.2427 81.5877 89.1935 81.5877C89.1442 81.5877 89.0962 81.6025 89.0555 81.6302C87.8714 81.4492 86.6719 81.3902 85.4758 81.4539C87.6425 76.6698 88.063 71.2774 86.6639 66.2153C86.6533 66.175 86.6349 66.1372 86.6098 66.1041C86.5846 66.0709 86.5531 66.043 86.5172 66.022C86.4813 66.001 86.4415 65.9873 86.4003 65.9817C86.359 65.976 86.3171 65.9786 86.2768 65.9891C86.2365 65.9997 86.1988 66.0181 86.1656 66.0433C86.1325 66.0685 86.1046 66.0999 86.0836 66.1359C86.0626 66.1718 86.0489 66.2115 86.0432 66.2528C86.0376 66.294 86.0401 66.336 86.0507 66.3763C86.8377 69.4238 86.9906 72.6004 86.5002 75.7095C86.0097 78.8185 84.8862 81.7938 83.1992 84.451C82.5077 85.4696 81.7578 86.4473 80.9533 87.3792C80.5393 87.8621 80.1331 88.5443 79.0983 88.2837C79.0197 88.2408 78.9553 88.1758 78.9131 88.0969C78.8709 88.0179 78.8527 87.9283 78.8606 87.8391C78.9296 87.1186 79.2669 87.0726 79.4049 86.1834C79.4049 86.1326 79.3847 86.0838 79.3487 86.0479C79.3128 86.012 79.2641 85.9918 79.2132 85.9918C79.1624 85.9918 79.1137 86.012 79.0777 86.0479C79.0418 86.0838 79.0216 86.1326 79.0216 86.1834C78.8648 86.5122 78.6855 86.8298 78.485 87.1339C78.3774 87.3202 78.3102 87.527 78.2877 87.7409C78.2653 87.9549 78.2881 88.1711 78.3547 88.3757L78.0021 88.552C77.1743 88.9429 76.6224 88.6516 76.4691 88.1534C76.1011 86.9653 77.5652 85.9611 77.5192 85.6928C77.5153 85.6592 77.5026 85.6272 77.4823 85.6001C77.462 85.573 77.4349 85.5517 77.4038 85.5385C77.3726 85.5252 77.3385 85.5205 77.305 85.5247C77.2714 85.5289 77.2395 85.542 77.2126 85.5625C76.5691 85.9992 76.1124 86.661 75.9325 87.4175C75.166 86.467 75.9325 85.1716 76.699 84.428C81.1526 80.1355 81.6891 73.413 79.7651 67.5644C79.7268 67.3651 79.3895 67.4111 79.4279 67.5644C80.4627 72.3322 80.708 76.962 78.3011 81.2316C76.4786 81.14 74.6519 81.2843 72.8664 81.6609C70.6587 82.2894 71.5863 82.642 71.5709 81.3236C71.927 78.2402 71.5676 75.1162 70.5208 72.1942C70.3905 71.8339 70.0609 72.0102 70.1375 72.2862C70.2959 72.7972 70.4339 73.3338 70.5514 73.8959C70.3891 74.5867 70.1869 75.2675 69.9459 75.9349C69.6508 76.7913 69.0739 77.5222 68.3094 78.0082C67.545 78.4941 66.6383 78.7063 65.7376 78.6101C65.8836 78.5709 66.0197 78.5015 66.1373 78.4065C66.2548 78.3114 66.351 78.1928 66.4198 78.0582C66.4789 78.0901 66.5444 78.1084 66.6115 78.1118C67.0561 78.1118 67.7613 77.3453 68.0295 77.031C68.2411 76.699 68.3483 76.3113 68.3373 75.9178C68.3264 75.5243 68.1978 75.1432 67.9682 74.8234C67.6521 74.1089 67.2643 73.4283 66.8108 72.7921C66.8284 72.7452 66.8284 72.6934 66.8108 72.6465C66.3821 72.1517 65.7985 71.8167 65.1551 71.696C66.4965 70.5232 67.2094 68.009 67.4547 66.2843C73.242 66.6982 79.9798 65.0655 84.3183 61.2558C84.7262 61.5835 85.1128 61.9368 85.4758 62.3136C87.99 64.8509 91.723 71.3664 93.1411 78.6407C93.2024 78.9473 93.5167 80.649 93.647 80.9403C92.1139 81.3773 90.9488 81.7069 89.8143 82.1284C89.7024 81.9309 89.5479 81.7607 89.3621 81.6302H89.3314ZM60.3183 62.0837C60.2416 61.7541 59.774 61.9764 58.7085 61.2558C60.3642 60.2363 59.6437 56.2197 59.8583 53.5445C60.6249 53.5445 61.3914 53.4602 62.1579 53.3606C62.1662 53.9795 62.3188 54.5879 62.6036 55.1375C62.8884 55.6871 63.2974 56.1626 63.7983 56.5263C63.4457 56.5263 63.0931 56.4573 62.7482 56.4497C62.4032 56.442 61.3147 56.4497 61.2151 56.6873C61.2039 56.7113 61.1978 56.7374 61.1972 56.7639C61.1966 56.7903 61.2015 56.8166 61.2116 56.8411C61.2217 56.8656 61.2368 56.8877 61.2558 56.9061C61.2749 56.9245 61.2976 56.9387 61.3224 56.9479C62.233 56.9322 63.1438 56.9629 64.0513 57.0399C64.9821 57.1636 65.902 57.3583 66.8031 57.6225C66.8478 57.6225 66.8907 57.6047 66.9223 57.5731C66.954 57.5415 66.9717 57.4986 66.9717 57.4538C66.9717 57.4091 66.954 57.3662 66.9223 57.3346C66.8907 57.303 66.8478 57.2852 66.8031 57.2852L66.6498 57.2315C67.6123 57.1132 68.4995 56.6507 69.1475 55.9293C69.7956 55.208 70.1609 54.2765 70.1758 53.3069C70.2916 53.299 70.4075 53.32 70.5131 53.3682C70.6594 54.2648 71.1064 55.0849 71.7807 55.6937C72.455 56.3025 73.3163 56.6637 74.2231 56.718C74.202 56.735 74.1863 56.7579 74.1781 56.7838C74.17 56.8097 74.1696 56.8375 74.1771 56.8636C74.2538 57.0092 74.4378 56.8636 74.775 56.7103C75.7211 56.6421 76.6121 56.24 77.2892 55.5758C78.9909 54.8093 79.8954 54.472 81.0069 53.9355C81.2445 53.8818 81.0606 53.4985 80.8919 53.5905C75.6029 55.4609 78.9756 55.3612 78.4084 52.0575C81.3672 52.0575 82.3024 51.1836 84.2953 49.0833C84.9086 51.5056 84.5636 54.449 86.1197 55.3535C86.3325 55.4873 86.5816 55.5516 86.8326 55.5375C86.5921 56.0605 86.2292 56.518 85.7747 56.8713C85.716 56.9147 85.6737 56.9768 85.655 57.0474C85.6362 57.1181 85.642 57.193 85.6714 57.2598C85.7008 57.3267 85.7521 57.3816 85.8169 57.4155C85.8816 57.4493 85.956 57.4601 86.0277 57.4462C86.351 57.3559 86.6684 57.2458 86.9782 57.1166C85.8631 58.9116 84.4105 60.4735 82.7009 61.7157C74.0621 67.6794 62.0889 66.1999 58.8235 62.5359C59.2613 62.5321 59.6977 62.4859 60.1266 62.398C60.1937 62.3816 60.2515 62.3393 60.2874 62.2804C60.3233 62.2215 60.3344 62.1508 60.3183 62.0837ZM68.5891 22.9906C69.5822 23.6134 70.4569 24.4076 71.1723 25.3362C71.2179 25.383 71.2749 25.4171 71.3377 25.4351C71.4005 25.4532 71.4669 25.4545 71.5304 25.439C71.5938 25.4235 71.6522 25.3918 71.6996 25.3469C71.7471 25.3019 71.782 25.2454 71.8009 25.1829C72.1817 24.2142 72.8909 23.4101 73.8045 22.9113C74.718 22.4125 75.7779 22.2506 76.7987 22.454C77.7271 22.7279 78.5094 23.3581 78.9747 24.2069C79.4401 25.0557 79.5506 26.0542 79.2822 26.9842C79.2605 27.0644 79.2653 27.1494 79.296 27.2265C79.3267 27.3036 79.3817 27.3687 79.4525 27.4119C79.5234 27.4552 79.6064 27.4742 79.6891 27.4662C79.7717 27.4582 79.8495 27.4235 79.9108 27.3675C80.7923 26.601 82.0647 27.5131 82.4327 27.8044C82.8359 28.0817 83.1728 28.4447 83.4193 28.8674C83.6657 29.2902 83.8157 29.7622 83.8584 30.2497C83.8584 32.4803 81.4055 33.5457 79.7728 34.2586C79.7147 34.2912 79.6667 34.3392 79.6342 34.3974C79.6017 34.4556 79.586 34.5216 79.5888 34.5882C79.5352 36.6349 79.2056 38.7581 78.9603 40.8278C78.1937 41.2187 77.8948 41.3873 77.8948 41.3873C77.8229 41.367 77.7535 41.3387 77.6878 41.303C77.7798 40.6591 78.3087 37.1331 78.2857 36.4815C78.2706 36.4355 78.2413 36.3955 78.2021 36.3671C78.1629 36.3387 78.1157 36.3234 78.0673 36.3234C78.0188 36.3234 77.9716 36.3387 77.9324 36.3671C77.8932 36.3955 77.8639 36.4355 77.8488 36.4815C77.7032 37.0105 77.3352 41.0807 77.3276 41.1267C76.3399 40.675 75.2869 40.3827 74.2078 40.2605C74.2691 39.6473 74.3994 30.2956 74.3994 29.966C74.3994 29.8434 74.2768 29.8511 74.2001 29.8511C74.1709 29.851 74.1428 29.8621 74.1214 29.882C74.1001 29.9019 74.0871 29.9292 74.0851 29.9584C73.7095 33.9673 73.6252 38.9651 73.6789 40.2069H73.4489C71.5717 39.9626 69.6632 40.1837 67.8916 40.8508C67.7996 39.9463 67.125 36.4509 66.6421 34.3046C66.6421 34.1283 66.3279 34.067 66.3279 34.3046C66.3245 34.3223 66.3245 34.3405 66.3279 34.3583C66.9104 37.5777 67.2324 40.2759 67.3857 41.0501C66.2744 41.5433 65.2414 42.1967 64.3195 42.9894C64.0132 41.2346 63.614 39.4972 63.1238 37.7847C61.9433 33.7144 60.5865 34.3966 58.8772 33.791C58.4358 33.6043 58.0444 33.3167 57.7342 32.9514C57.4241 32.586 57.2039 32.1531 57.0914 31.6872C56.9788 31.2214 56.9771 30.7357 57.0862 30.269C57.1953 29.8024 57.4123 29.3678 57.7197 29.0002C58.2229 28.4253 58.8965 28.026 59.6424 27.8605C60.3883 27.6951 61.1676 27.7721 61.8666 28.0804C62.1196 28.18 62.3342 27.9271 62.3036 27.6664C62.146 26.8623 62.2191 26.0299 62.5143 25.2654C62.8095 24.501 63.3148 23.8355 63.9719 23.3459C64.629 22.8563 65.4112 22.5624 66.2281 22.4982C67.0451 22.434 67.8636 22.602 68.5891 22.9829V22.9906ZM77.4196 41.6173L77.2203 41.717C77.1748 41.7558 77.145 41.81 77.1367 41.8692C77.1283 41.9284 77.1419 41.9887 77.1749 42.0386C77.2079 42.0886 77.2579 42.1247 77.3157 42.1403C77.3735 42.1559 77.4349 42.1498 77.4885 42.1232C79.4591 41.0237 81.5436 40.1421 83.7051 39.494C84.28 39.3407 85.5754 38.8501 85.8744 39.425C85.8787 39.4939 85.8787 39.5631 85.8744 39.632C85.0421 39.6574 84.2383 39.9414 83.5748 40.4445L79.5352 42.7441C79.2209 42.9281 79.7345 43.2577 79.7728 42.9741C79.7728 42.8974 79.5888 43.0354 84.5713 40.3832C84.6863 40.3219 85.7517 39.8006 85.905 40.2529C85.3455 44.9057 83.9734 46.1858 83.2605 47.6192C83.2296 47.6761 83.2209 47.7424 83.2361 47.8053C83.2514 47.8682 83.2895 47.9232 83.3431 47.9595C83.3966 47.9958 83.4618 48.011 83.5259 48.0019C83.59 47.9928 83.6484 47.9603 83.6898 47.9105C83.7358 47.8569 83.7664 47.7955 83.8124 47.7419C83.9053 47.9364 83.9872 48.1361 84.0577 48.3398C80.6083 51.9271 81.1985 50.7467 78.3164 51.7125C78.0691 50.7611 77.4802 49.9341 76.6621 49.3892C75.844 48.8442 74.8539 48.6195 73.8807 48.7578C72.9075 48.8962 72.0192 49.3879 71.3854 50.1393C70.7516 50.8907 70.4165 51.849 70.4441 52.8316C70.3405 52.7831 70.2287 52.7545 70.1145 52.7473C69.9875 51.7872 69.5159 50.906 68.7876 50.2677C68.0593 49.6294 67.1238 49.2775 66.1554 49.2775C65.1869 49.2775 64.2515 49.6294 63.5231 50.2677C62.7948 50.906 62.3233 51.7872 62.1963 52.7473C61.4297 52.8546 60.6632 52.8853 59.8967 52.9236C60.1945 50.4734 61.0266 48.1183 62.3342 46.0249C67.5926 37.6237 77.3276 41.6173 77.4196 41.6173ZM76.814 55.3305C75.2809 56.0971 75.2809 56.2274 74.5144 56.2274C73.6942 56.2371 72.8966 55.9586 72.2606 55.4406C71.6246 54.9225 71.1906 54.1977 71.0342 53.3925C70.8778 52.5873 71.0089 51.7527 71.4048 51.0342C71.8006 50.3158 72.436 49.759 73.2002 49.461C73.9644 49.1629 74.809 49.1425 75.5867 49.4033C76.3644 49.6641 77.0259 50.1895 77.456 50.888C77.886 51.5865 78.0573 52.4138 77.94 53.2256C77.8227 54.0374 77.4242 54.7824 76.814 55.3305ZM69.6623 53.6595C69.5643 54.5459 69.1305 55.361 68.45 55.9375C67.7696 56.5139 66.8942 56.8077 66.0037 56.7587C65.1133 56.7096 64.2755 56.3213 63.6625 55.6736C63.0495 55.0259 62.708 54.168 62.708 53.2762C62.708 52.3845 63.0495 51.5266 63.6625 50.8789C64.2755 50.2312 65.1133 49.8429 66.0037 49.7938C66.8942 49.7447 67.7696 50.0386 68.45 50.615C69.1305 51.1914 69.5643 52.0066 69.6623 52.893C69.1563 53.2762 69.21 53.9508 69.6469 53.6902L69.6623 53.6595ZM62.0889 45.7872C61.4144 44.6374 60.0116 42.9434 59.3984 42.1079C58.7852 41.2724 58.4556 40.7665 57.6431 40.8508C57.4591 40.8508 57.4361 41.0117 57.5051 41.0884C57.7197 41.3414 57.9343 40.6821 58.8388 41.9929C59.5532 42.8756 60.2185 43.7968 60.8318 44.7524C61.974 46.4081 62.0276 45.8562 61.6827 46.4081C61.3251 45.8528 60.8475 45.3847 60.285 45.0385C59.7225 44.6922 59.0895 44.4766 58.4326 44.4075C58.3823 44.4064 58.3332 44.4229 58.2939 44.4543C58.2546 44.4857 58.2275 44.5299 58.2175 44.5792C58.2074 44.6285 58.215 44.6798 58.2389 44.724C58.2628 44.7683 58.3015 44.8028 58.3483 44.8214C59.6047 45.0329 60.7277 45.7293 61.4757 46.7607L61.3071 47.052C60.9782 46.726 60.5635 46.5 60.1113 46.4005C59.6048 46.2993 59.093 46.2277 58.5782 46.1858C58.5307 46.1817 58.4833 46.1948 58.4446 46.2227C58.4059 46.2506 58.3784 46.2915 58.3673 46.3379C58.3562 46.3843 58.3621 46.4331 58.3839 46.4756C58.4057 46.518 58.442 46.5512 58.4862 46.5691C59.3754 46.9064 60.3106 46.6381 61.1538 47.4276C61.0311 47.6499 60.9161 47.8799 60.8165 48.1098C60.445 48.1496 60.0866 48.2699 59.7663 48.4624C59.1761 48.746 59.4291 49.137 59.6974 48.999C59.964 48.8351 60.2533 48.7111 60.5559 48.6311C60.2271 49.4424 59.9706 50.2812 59.7893 51.1376C57.0912 47.7955 56.3476 43.5183 57.0912 41.1344C57.1429 40.8992 57.2833 40.6931 57.4832 40.5589C57.6831 40.4247 57.9271 40.3727 58.1643 40.4139C58.6162 40.563 59.0315 40.806 59.3831 41.1267C62.1886 43.3573 61.8666 43.319 63.1467 44.1392C62.7298 44.6445 62.3747 45.1978 62.0889 45.7872ZM62.5029 77.33C62.5186 77.2749 62.5186 77.2164 62.5029 77.1613C60.9698 73.413 63.8213 71.0981 66.1745 72.7691C66.1209 72.9837 66.5042 73.5816 66.6345 73.7579C67.9759 76.1112 67.9069 76.3258 66.7648 77.3146C66.6191 77.4373 66.5731 77.4603 66.5425 77.4373C66.4545 77.3435 66.3844 77.2343 66.3355 77.1153C65.684 75.9349 65.569 75.5823 65.3467 75.6743C65.3183 75.6838 65.2928 75.7004 65.2726 75.7226C65.2524 75.7447 65.2382 75.7716 65.2313 75.8008C65.2244 75.8299 65.225 75.8603 65.2332 75.8892C65.2413 75.918 65.2566 75.9443 65.2777 75.9655C65.3544 76.0345 65.1551 75.8199 65.753 77.2457C66.0826 78.0122 66.1439 77.6366 65.753 77.8972C65.1474 78.2268 64.6798 78.2575 64.2199 76.4408C64.2021 76.3921 64.1684 76.3508 64.1241 76.3237C64.0799 76.2965 64.0278 76.2851 63.9763 76.2914C63.9248 76.2976 63.8769 76.321 63.8404 76.3579C63.8039 76.3948 63.781 76.4429 63.7753 76.4945C63.7161 77.0359 63.8549 77.5805 64.1662 78.0275C63.9908 78.1626 63.7859 78.2546 63.5683 78.2958C63.2805 77.9066 62.9183 77.5784 62.5029 77.33ZM63.9593 78.863C64.1266 78.816 64.2847 78.7408 64.4269 78.6407C67.3703 80.0128 70.0072 78.1655 70.8274 75.4213C71.1276 77.3275 71.1946 79.2632 71.0267 81.1856C70.9476 81.588 70.9476 82.002 71.0267 82.4044C68.9972 83.4615 67.3509 85.1292 66.3202 87.1722C65.2818 87.4366 64.2582 87.7564 63.2541 88.1304C64.7105 85.1792 65.707 81.6302 63.9593 78.8554V78.863ZM62.8555 88.9276C66.5118 87.6781 65.1551 88.0844 66.0749 87.7701C65.7726 88.4576 65.5414 89.1742 65.385 89.9087C63.5756 91.8398 61.9582 93.9424 60.5559 96.1866C60.4168 96.3783 60.3417 96.609 60.3412 96.8458C60.3377 96.8543 60.3358 96.8635 60.3358 96.8727C60.3358 96.8819 60.3377 96.891 60.3412 96.8995C60.3206 98.0587 60.6696 99.1944 61.3377 100.142C61.6588 100.43 62.0371 100.648 62.4479 100.78C62.8587 100.912 63.2927 100.956 63.7216 100.908C64.5572 100.908 62.1886 101.123 87.921 98.034C90.2206 97.9267 91.1175 96.6772 92.2289 94.6459C92.9265 93.3658 95.456 89.1499 95.5097 89.0732C95.9222 88.4066 96.175 87.6535 96.2481 86.8729C96.3213 86.0923 96.2128 85.3054 95.9313 84.5737C95.9375 84.4514 95.919 84.329 95.8768 84.214C95.8347 84.099 95.7699 83.9937 95.6862 83.9042C95.6025 83.8148 95.5017 83.7432 95.3897 83.6936C95.2777 83.644 95.1569 83.6174 95.0344 83.6155C93.459 83.4267 91.8639 83.4809 90.3049 83.7765C90.3033 83.2948 90.2069 82.8182 90.0213 82.3737C91.9836 81.8908 92.6275 81.6609 98.5988 80.0052C100.187 81.598 101.869 83.0954 103.635 84.4894C103.665 84.5291 103.704 84.5613 103.748 84.5834C103.793 84.6056 103.842 84.6171 103.892 84.6171C103.941 84.6171 103.991 84.6056 104.035 84.5834C104.08 84.5613 104.118 84.5291 104.148 84.4894C105.153 82.4964 106.08 80.5494 106.908 78.6791L108.065 83.8685C107.675 83.9491 107.308 84.122 106.998 84.3726C106.687 84.6233 106.441 84.9445 106.279 85.3096C105.582 86.6586 105.766 88.3757 105.927 89.8704C105.927 90.154 106.417 95.1671 106.617 97.0221C106.621 97.1143 106.661 97.2013 106.728 97.2643C106.795 97.3274 106.885 97.3615 106.977 97.3594C108.24 96.7774 109.457 96.1009 110.618 95.3358L114.88 114.461C115.245 116.124 114.937 117.865 114.022 119.302C113.107 120.739 111.659 121.754 109.997 122.126L67.3473 131.631C65.6831 131.99 63.9443 131.678 62.509 130.762C61.0737 129.846 60.0578 128.401 59.682 126.741L54.5923 103.898C55.8647 100.694 61.0771 92.2467 62.8555 88.9276ZM121.158 126.227C121.143 127.875 120.568 129.468 119.527 130.745C118.486 132.023 117.042 132.908 115.432 133.256L66.6881 144.118C64.7922 144.53 62.8103 144.177 61.1727 143.137C59.5351 142.096 58.3742 140.452 57.942 138.56C55.949 129.676 55.4968 127.384 55.4968 127.384C55.5361 126.252 55.4745 125.118 55.3128 123.996C54.5999 116.937 51.9017 111.732 54.1094 105.132L59.0228 126.948C59.4267 128.782 60.5404 130.382 62.1204 131.397C63.7004 132.413 65.6183 132.761 67.4547 132.367L110.135 122.87C111.97 122.447 113.564 121.317 114.569 119.724C115.574 118.132 115.909 116.207 115.501 114.369L111.185 95.0062C112.143 94.3546 113.063 93.6494 113.952 92.9059C121.924 128.519 121.173 124.679 121.15 126.227H121.158Z" fill="black"/>
<path d="M89.6841 129.002C89.0417 129.612 88.5758 130.384 88.3357 131.236C88.0955 132.089 88.09 132.991 88.3196 133.846C88.5321 134.781 89.0543 135.617 89.8015 136.218C90.5487 136.819 91.477 137.15 92.4359 137.158C93.3798 137.164 94.2929 136.822 95.0002 136.197C95.7074 135.571 96.1591 134.707 96.2686 133.77C96.3798 132.908 96.2803 132.033 95.9785 131.218C95.6768 130.404 95.1818 129.675 94.5362 129.094C93.8748 128.495 93.0192 128.156 92.1273 128.139C91.2355 128.122 90.3677 128.429 89.6841 129.002ZM93.5167 136.414C89.6841 137.664 87.5454 133.034 89.6841 129.96C90.172 129.386 90.8544 129.011 91.6009 128.908C92.3475 128.805 93.1059 128.98 93.7313 129.4C95.9926 131.01 96.5138 135.418 93.5167 136.429V136.414ZM80.8919 43.8248C81.7044 43.2436 82.6241 42.8293 83.5978 42.6061C84.1267 42.5141 84.3107 42.4757 84.3643 42.3224C84.3668 42.2732 84.3509 42.2248 84.3198 42.1866C84.2886 42.1483 84.2444 42.123 84.1957 42.1155C82.9324 42.171 81.7306 42.6768 80.8076 43.5412C80.7863 43.5627 80.7712 43.5895 80.7638 43.6189C80.7564 43.6482 80.7571 43.679 80.7657 43.708C80.7743 43.737 80.7906 43.7632 80.8128 43.7837C80.835 43.8043 80.8624 43.8185 80.8919 43.8248ZM84.2034 43.9168C83.6536 43.7634 83.0765 43.7347 82.5142 43.8328C81.9519 43.931 81.4186 44.1535 80.9533 44.4841C80.9241 44.5072 80.9033 44.5393 80.8943 44.5754C80.8852 44.6115 80.8884 44.6496 80.9033 44.6837C80.9182 44.7179 80.9439 44.7461 80.9765 44.7641C81.0091 44.782 81.0468 44.7887 81.0836 44.783C81.763 44.4047 82.5289 44.2092 83.3065 44.2158C83.8661 44.2158 84.234 44.3921 84.3107 44.1468C84.3257 44.102 84.323 44.0532 84.303 44.0103C84.283 43.9675 84.2474 43.934 84.2034 43.9168ZM81.2982 45.1433C81.2715 45.1377 81.2438 45.1382 81.2172 45.1447C81.1907 45.1512 81.1659 45.1635 81.1447 45.1807C81.1235 45.198 81.1064 45.2197 81.0947 45.2444C81.083 45.2691 81.0769 45.2961 81.0769 45.3234C81.0769 45.3507 81.083 45.3777 81.0947 45.4024C81.1064 45.4271 81.1235 45.4488 81.1447 45.4661C81.1659 45.4833 81.1907 45.4957 81.2172 45.5021C81.2438 45.5086 81.2715 45.5091 81.2982 45.5035C81.7849 45.5499 82.2493 45.7304 82.6396 46.0248C82.6643 46.0478 82.6956 46.0625 82.7291 46.0667C82.7626 46.071 82.7965 46.0646 82.8262 46.0485C82.8558 46.0324 82.8797 46.0074 82.8944 45.977C82.909 45.9466 82.9138 45.9124 82.9079 45.8791C82.7097 45.6463 82.4628 45.4598 82.1847 45.3326C81.9066 45.2055 81.604 45.1409 81.2982 45.1433ZM74.798 57.5074C76.6684 56.4419 78.1478 56.4343 79.5505 56.028C79.7805 56.028 79.7268 55.6141 79.5505 55.6447C77.8129 55.7781 76.1329 56.3276 74.6524 57.2468C74.4148 57.3541 74.5681 57.6531 74.798 57.5074ZM60.8702 58.7799C62.7457 58.1707 64.7349 57.9951 66.6881 58.2663C66.9028 58.2663 66.9411 57.9443 66.6498 57.883C64.6801 57.4254 62.616 57.6052 60.7552 58.3966C60.5559 58.4349 60.6785 58.7799 60.8702 58.7799Z" fill="black"/>
<path d="M62.9782 60.4125C64.0655 59.8153 65.2358 59.3838 66.4506 59.1324C66.7021 59.5757 67.0736 59.939 67.5225 60.1804C67.9714 60.4217 68.4793 60.5315 68.9878 60.4968C69.1183 60.9107 69.3692 61.2763 69.7083 61.547C69.9943 61.8032 70.3455 61.9755 70.7232 62.0448C71.1008 62.1142 71.4903 62.0779 71.8487 61.9399C72.207 61.802 72.5203 61.5677 72.754 61.2631C72.9877 60.9584 73.1327 60.5951 73.1731 60.2132C73.7044 60.1692 74.2119 59.973 74.6346 59.6481C75.0574 59.3232 75.3776 58.8834 75.557 58.3812C79.198 58.2433 79.6272 58.2739 81.2523 58.0899C81.5052 58.0899 81.4822 57.699 81.2523 57.6684C79.3846 57.6529 77.5179 57.7605 75.6643 57.9903C75.6841 57.9302 75.6995 57.8687 75.7103 57.8063C75.7264 57.7665 75.7338 57.7236 75.7319 57.6806C75.7299 57.6376 75.7187 57.5955 75.699 57.5573C75.6794 57.519 75.6517 57.4855 75.6178 57.4589C75.584 57.4323 75.5448 57.4134 75.503 57.4033C75.4611 57.3933 75.4176 57.3924 75.3754 57.4007C75.3332 57.409 75.2933 57.4264 75.2584 57.4515C75.2235 57.4767 75.1944 57.5091 75.1732 57.5465C75.152 57.5839 75.1391 57.6255 75.1354 57.6684C75.1202 57.8043 75.0893 57.9381 75.0434 58.0669C74.8518 58.0669 74.5605 58.0669 74.5758 58.2739C74.5911 58.4809 74.7674 58.4119 74.9054 58.4119C74.7617 58.6997 74.5592 58.9542 74.3109 59.1588C74.0627 59.3635 73.7743 59.5138 73.4643 59.6C72.4985 59.8146 71.755 59.2244 71.1647 57.814C72.0769 56.5722 71.6553 56.1046 71.1647 56.2809C71.0038 56.3346 71.1647 56.3193 70.3369 56.3193C69.509 56.3193 69.4171 57.0475 70.0533 57.6224L70.4135 57.9213C70.2449 58.9255 69.8693 59.9909 68.8192 60.0139C68.4563 60.006 68.1001 59.9156 67.7773 59.7496C67.4546 59.5836 67.1739 59.3463 66.9565 59.0558L67.2554 59.0021C67.4547 59.0021 67.5697 58.6342 67.1251 58.6342C65.5631 58.629 64.0384 59.1113 62.7636 60.0139C62.7374 60.028 62.7143 60.0471 62.6955 60.0702C62.6767 60.0932 62.6626 60.1197 62.6541 60.1482C62.6455 60.1767 62.6427 60.2065 62.6457 60.2361C62.6487 60.2657 62.6575 60.2944 62.6716 60.3205C62.6857 60.3467 62.7048 60.3699 62.7278 60.3886C62.7509 60.4074 62.7774 60.4215 62.8058 60.43C62.8343 60.4386 62.8642 60.4414 62.8938 60.4384C62.9233 60.4354 62.952 60.4266 62.9782 60.4125ZM70.8428 58.4042C70.9813 58.8088 71.2109 59.1761 71.514 59.4778C71.817 59.7795 72.1853 60.0075 72.5905 60.1442C72.5905 60.2592 72.5905 60.3742 72.5445 60.4815C72.452 60.719 72.3034 60.9305 72.1114 61.098C71.9194 61.2656 71.6897 61.3841 71.4419 61.4436C71.1941 61.5031 70.9356 61.5018 70.6884 61.4397C70.4413 61.3776 70.2129 61.2566 70.0226 61.0871C69.7889 60.8925 69.6005 60.6492 69.4707 60.3742C69.8434 60.1835 70.1635 59.9041 70.4028 59.5606C70.6421 59.217 70.7932 58.8199 70.8428 58.4042ZM63.1545 49.2212C63.4151 49.2212 63.4688 48.7843 64.243 48.3013C64.625 48.1001 65.0255 47.9359 65.4388 47.8108C65.7607 47.6115 65.6227 47.0442 64.8715 47.2129L64.5036 47.3508C63.8257 47.6622 63.2818 48.206 62.9705 48.8839C62.9545 48.9178 62.9467 48.9549 62.9478 48.9924C62.9489 49.0298 62.9588 49.0665 62.9767 49.0994C62.9946 49.1322 63.0201 49.1604 63.051 49.1816C63.0819 49.2028 63.1174 49.2163 63.1545 49.2212ZM75.4496 46.5996C75.6431 46.5958 75.8363 46.6164 76.0245 46.661C76.4378 46.7724 76.8366 46.9319 77.2127 47.1362C77.9792 47.1362 76.8831 45.9788 75.511 45.9481C75.2388 45.9211 74.9661 45.9947 74.7444 46.1551C74.3535 46.5537 74.9131 46.73 75.4496 46.5996ZM68.1676 91.9553C68.2377 91.9439 68.3015 91.908 68.3475 91.8539C68.3936 91.7999 68.4188 91.7312 68.4188 91.6602C68.4188 91.5891 68.3936 91.5204 68.3475 91.4664C68.3015 91.4123 68.2377 91.3764 68.1676 91.365C68.0975 91.3764 68.0337 91.4123 67.9877 91.4664C67.9417 91.5204 67.9164 91.5891 67.9164 91.6602C67.9164 91.7312 67.9417 91.7999 67.9877 91.8539C68.0337 91.908 68.0975 91.9439 68.1676 91.9553ZM70.3369 92.3692C70.407 92.3579 70.4708 92.3219 70.5168 92.2679C70.5628 92.2138 70.5881 92.1451 70.5881 92.0741C70.5881 92.0031 70.5628 91.9344 70.5168 91.8803C70.4708 91.8262 70.407 91.7903 70.3369 91.779C70.2296 91.779 70.0073 91.9093 70.0533 92.1316C70.0682 92.1967 70.104 92.2551 70.1552 92.298C70.2064 92.3409 70.2702 92.3659 70.3369 92.3692ZM72.6365 91.1197C72.7008 91.1089 72.7592 91.0756 72.8014 91.0258C72.8435 90.976 72.8666 90.9129 72.8666 90.8476C72.8666 90.7824 72.8435 90.7193 72.8014 90.6694C72.7592 90.6196 72.7008 90.5863 72.6365 90.5755C72.5721 90.5863 72.5137 90.6196 72.4716 90.6694C72.4295 90.7193 72.4064 90.7824 72.4064 90.8476C72.4064 90.9129 72.4295 90.976 72.4716 91.0258C72.5137 91.0756 72.5721 91.1089 72.6365 91.1197ZM73.725 92.5992C73.7941 92.5992 73.8604 92.5717 73.9092 92.5228C73.9581 92.4739 73.9856 92.4076 73.9856 92.3385C73.9856 92.2694 73.9581 92.2031 73.9092 92.1542C73.8604 92.1054 73.7941 92.0779 73.725 92.0779C73.6558 92.0779 73.5895 92.1054 73.5407 92.1542C73.4918 92.2031 73.4643 92.2694 73.4643 92.3385C73.4643 92.4076 73.4918 92.4739 73.5407 92.5228C73.5895 92.5717 73.6558 92.5992 73.725 92.5992ZM76.5535 90.4375C76.5535 90.3704 76.5268 90.3061 76.4794 90.2587C76.4319 90.2112 76.3676 90.1846 76.3005 90.1846C76.2334 90.1846 76.1691 90.2112 76.1216 90.2587C76.0742 90.3061 76.0475 90.3704 76.0475 90.4375C76.0475 90.5046 76.0742 90.569 76.1216 90.6164C76.1691 90.6638 76.2334 90.6905 76.3005 90.6905C76.3676 90.6905 76.4319 90.6638 76.4794 90.6164C76.5268 90.569 76.5535 90.5046 76.5535 90.4375ZM78.6001 92.2082C78.6491 92.1952 78.6925 92.1664 78.7234 92.1262C78.7544 92.086 78.7712 92.0367 78.7712 91.9859C78.7712 91.9352 78.7544 91.8859 78.7234 91.8457C78.6925 91.8055 78.6491 91.7766 78.6001 91.7636C78.5656 91.7635 78.5315 91.7714 78.5006 91.7867C78.4696 91.802 78.4427 91.8243 78.4219 91.8518C78.401 91.8793 78.3869 91.9113 78.3806 91.9452C78.3743 91.9791 78.3759 92.0141 78.3855 92.0472C78.3976 92.0945 78.4255 92.1361 78.4645 92.1654C78.5035 92.1947 78.5514 92.2098 78.6001 92.2082ZM83.1839 91.48C83.2913 91.48 83.4522 91.3727 83.4062 91.1964C83.3602 91.0201 83.2529 91.0048 83.1839 91.0278C83.1311 91.0375 83.0834 91.0655 83.049 91.1068C83.0146 91.1481 82.9958 91.2001 82.9958 91.2539C82.9958 91.3076 83.0146 91.3597 83.049 91.401C83.0834 91.4423 83.1311 91.4702 83.1839 91.48ZM84.1651 89.625C84.2342 89.625 84.3005 89.5976 84.3494 89.5487C84.3983 89.4998 84.4257 89.4335 84.4257 89.3644C84.4257 89.2953 84.3983 89.229 84.3494 89.1801C84.3005 89.1312 84.2342 89.1038 84.1651 89.1038C84.096 89.1038 84.0297 89.1312 83.9808 89.1801C83.9319 89.229 83.9045 89.2953 83.9045 89.3644C83.9045 89.4335 83.9319 89.4998 83.9808 89.5487C84.0297 89.5976 84.096 89.625 84.1651 89.625ZM80.7847 90.6752C80.8538 90.6752 80.9201 90.6477 80.969 90.5988C81.0179 90.5499 81.0453 90.4837 81.0453 90.4145C81.0453 90.3454 81.0179 90.2791 80.969 90.2303C80.9201 90.1814 80.8538 90.1539 80.7847 90.1539C80.7156 90.1539 80.6493 90.1814 80.6004 90.2303C80.5515 90.2791 80.5241 90.3454 80.5241 90.4145C80.5241 90.4837 80.5515 90.5499 80.6004 90.5988C80.6493 90.6477 80.7156 90.6752 80.7847 90.6752ZM67.0561 93.565C67.0975 93.5649 67.1384 93.5554 67.1756 93.5374C67.2129 93.5194 67.2456 93.4932 67.2713 93.4608C67.2971 93.4284 67.3152 93.3907 67.3244 93.3503C67.3336 93.31 67.3336 93.2681 67.3244 93.2277C67.3196 93.1772 67.2986 93.1296 67.2647 93.0918C67.2308 93.054 67.1857 93.0281 67.136 93.0178C67.0863 93.0075 67.0347 93.0134 66.9886 93.0346C66.9425 93.0559 66.9044 93.0913 66.8798 93.1357C66.8553 93.1741 66.8404 93.2178 66.8364 93.2631C66.8323 93.3084 66.8392 93.354 66.8565 93.3961C66.8738 93.4382 66.901 93.4755 66.9357 93.5049C66.9705 93.5343 67.0118 93.5549 67.0561 93.565ZM80.0412 119.926L67.884 122.463C67.1204 122.624 66.4468 123.07 66.0006 123.71C65.5544 124.35 65.3691 125.137 65.4824 125.909C65.5958 126.681 65.9993 127.381 66.6108 127.866C67.2222 128.351 67.9955 128.584 68.7732 128.519C69.1104 128.519 68.1216 128.588 81.2446 125.905C81.6723 125.864 82.0867 125.735 82.461 125.524C82.8353 125.313 83.1611 125.026 83.4174 124.681C83.6736 124.336 83.8544 123.941 83.9483 123.522C84.0421 123.103 84.0468 122.669 83.962 122.247C83.8772 121.826 83.7049 121.428 83.4562 121.077C83.2075 120.727 82.8879 120.433 82.5182 120.214C82.1486 119.995 81.737 119.856 81.3103 119.807C80.8836 119.757 80.4512 119.798 80.0412 119.926ZM81.1066 125.2L68.9878 127.737C68.4073 127.819 67.8174 127.676 67.3386 127.338C66.8598 127 66.5283 126.491 66.4118 125.917C66.2953 125.342 66.4027 124.745 66.712 124.247C67.0212 123.749 67.509 123.388 68.0756 123.237C77.1743 121.313 79.6579 120.777 80.3401 120.654C80.9247 120.581 81.5154 120.73 81.9961 121.07C82.4769 121.41 82.8131 121.918 82.9387 122.494C83.0486 123.091 82.9176 123.708 82.5744 124.209C82.2311 124.71 81.7035 125.056 81.1066 125.169V125.2Z" fill="black"/>
<path d="M79.4893 122.663C78.5388 122.785 74.8058 124.303 69.0645 125.138C68.8422 125.138 68.8652 125.499 69.0645 125.499C70.8965 125.499 78.0329 123.966 79.6503 123.084C79.689 123.053 79.7168 123.01 79.7297 122.961C79.7426 122.913 79.74 122.862 79.7221 122.815C79.7043 122.768 79.6722 122.729 79.6304 122.701C79.5886 122.674 79.5392 122.66 79.4893 122.663ZM104.248 115.005C101.412 116.001 101.335 120.049 104.202 120.616C104.586 120.679 104.978 120.662 105.354 120.567C105.731 120.472 106.084 120.3 106.391 120.063C106.699 119.826 106.955 119.528 107.142 119.188C107.33 118.848 107.446 118.473 107.483 118.086C108.027 116.362 105.996 114.522 104.248 115.005ZM104.838 120.156C104.53 120.183 104.219 120.142 103.928 120.036C103.636 119.93 103.372 119.761 103.153 119.542C102.934 119.323 102.765 119.059 102.659 118.767C102.553 118.476 102.512 118.165 102.539 117.856C102.7 116.431 103.98 115.143 105.344 115.557C108.219 116.584 106.893 119.987 104.869 120.156H104.838Z" fill="black"/>
<path d="M104.133 116.975C103.917 116.991 103.713 117.083 103.558 117.236C103.267 117.672 103.489 118.002 103.919 118.002C103.857 118.608 103.788 119.344 104.325 119.374C104.509 119.374 105.306 119.221 105.735 119.129C105.786 119.133 105.837 119.127 105.885 119.11C105.934 119.094 105.978 119.067 106.015 119.033C106.053 118.998 106.083 118.956 106.103 118.909C106.124 118.862 106.134 118.812 106.134 118.761C106.134 118.5 106.134 118.93 106.05 117.841C106.264 117.841 106.364 117.741 106.371 117.565L106.326 117.098C106.325 117.064 106.317 117.032 106.303 117.001C106.29 116.971 106.27 116.944 106.246 116.921C106.222 116.898 106.193 116.88 106.162 116.869C106.131 116.857 106.098 116.851 106.065 116.852C105.858 116.852 105.551 116.891 105.551 116.891C105.551 116.891 105.889 116.783 105.935 116.546C105.95 116.488 105.95 116.428 105.933 116.37C105.917 116.313 105.886 116.261 105.843 116.221C105.799 116.18 105.746 116.151 105.688 116.138C105.63 116.125 105.569 116.128 105.513 116.147C105.384 116.217 105.27 116.312 105.178 116.427C105.086 116.541 105.017 116.673 104.976 116.814C104.424 115.81 103.566 116.431 104.133 116.975ZM105.536 117.856C105.536 118.209 105.59 118.355 105.62 118.623C105.337 118.623 104.624 118.838 104.356 118.876C104.347 118.833 104.347 118.789 104.356 118.746V117.979C104.745 117.906 105.14 117.865 105.536 117.856ZM97.8323 115.879C95.5327 115.626 93.9997 117.956 94.6359 120.064C94.8762 120.661 95.2957 121.169 95.8366 121.517C96.3775 121.866 97.0131 122.039 97.656 122.011C101.182 121.781 101.489 116.231 97.8323 115.879ZM99.3654 120.677C98.8945 121.174 98.2457 121.463 97.5617 121.482C96.8776 121.501 96.214 121.247 95.7167 120.777C95.3142 120.369 95.0572 119.84 94.9856 119.272C94.914 118.703 95.0317 118.127 95.3206 117.632C95.6095 117.137 96.0534 116.751 96.5837 116.534C97.1139 116.317 97.7009 116.281 98.2539 116.431C98.6708 116.565 99.0467 116.803 99.3464 117.122C99.646 117.442 99.8595 117.832 99.9668 118.257C100.074 118.681 100.072 119.126 99.9598 119.55C99.8479 119.973 99.6302 120.361 99.3271 120.677H99.3654ZM109.338 116.132L110.526 116.668C110.166 117.289 109.836 117.91 109.545 118.5C109.51 118.556 109.499 118.624 109.515 118.688C109.53 118.752 109.57 118.807 109.625 118.841C109.681 118.876 109.749 118.887 109.813 118.872C109.877 118.857 109.932 118.817 109.967 118.761C110.327 118.217 110.733 117.626 111.124 116.937C111.53 117.144 111.668 117.19 112.427 117.504C112.589 117.606 112.783 117.645 112.971 117.611C113.009 117.6 113.044 117.58 113.073 117.553C113.102 117.525 113.124 117.492 113.137 117.454C113.151 117.417 113.155 117.377 113.15 117.338C113.145 117.298 113.131 117.261 113.109 117.228C112.933 117.006 112.918 117.036 111.423 116.461C111.799 115.81 112.527 114.859 112.013 114.698C111.638 114.583 111.247 115.465 110.81 116.231L109.53 115.71C109.231 115.542 109.062 116.017 109.338 116.132ZM80.8767 109.731C79.3896 109.938 76.9137 110.62 72.3759 111.51C65.8374 112.797 66.0443 112.621 63.8674 113.211C63.8202 113.224 63.7785 113.252 63.7488 113.291C63.719 113.33 63.7029 113.377 63.7029 113.426C63.7029 113.475 63.719 113.522 63.7488 113.561C63.7785 113.6 63.8202 113.628 63.8674 113.641C65.2778 113.641 78.3165 111.042 80.984 110.283C81.0491 110.261 81.1041 110.216 81.1386 110.157C81.1732 110.098 81.185 110.028 81.1719 109.96C81.1588 109.893 81.1216 109.832 81.0673 109.79C81.013 109.748 80.9453 109.727 80.8767 109.731ZM87.6911 104.113C89.9907 103.683 92.482 103.346 94.7892 102.794C95.0805 102.794 95.0575 102.281 94.7892 102.311C90.3587 102.756 63.1852 108.229 62.7789 108.911C62.2653 109.747 68.7962 107.539 87.6911 104.113ZM100.454 104.572C99.5034 103.952 98.3996 104.519 97.7863 105.416C96.7132 107.34 97.0965 109.141 97.863 111.218C97.7863 111.218 64.3196 117.872 64.266 117.987C64.2123 118.102 64.266 118.278 64.4193 118.278C66.5732 118.278 95.3948 112.521 98.07 111.747C98.2913 112.324 98.5472 112.887 98.8365 113.434C98.8666 113.484 98.9092 113.526 98.9602 113.556C99.0112 113.585 99.0689 113.601 99.1278 113.602C99.4957 113.602 102.715 111.387 103.466 110.85C104.555 110.084 105.674 109.241 105.843 107.892C106.134 105.515 103.006 104.963 101.45 106.358C101.365 105.656 101.007 105.015 100.454 104.572ZM45.486 21.5419C45.0277 21.2726 44.505 21.1325 43.9735 21.1364C43.442 21.1402 42.9214 21.288 42.4671 21.5639C42.0128 21.8398 41.6416 22.2335 41.3931 22.7034C41.1445 23.1732 41.0279 23.7016 41.0554 24.2324C41.0305 24.2656 41.0171 24.3059 41.0171 24.3474C41.0171 24.3888 41.0305 24.4292 41.0554 24.4624C41.4217 24.912 41.9014 25.2558 42.445 25.4581C42.9885 25.6604 43.5762 25.7139 44.1474 25.6131C44.7186 25.5123 45.2525 25.2608 45.6939 24.8847C46.1354 24.5086 46.4685 24.0214 46.6588 23.4735C46.8657 23.3049 46.7431 23.0903 46.7124 22.9906C46.5086 22.366 46.0684 21.846 45.486 21.5419ZM41.3927 24.2861C41.4155 23.7809 41.5791 23.2922 41.8648 22.875C42.1506 22.4579 42.5473 22.1289 43.0101 21.9251C41.9983 22.6917 42.3125 24.8456 43.5236 25.0603C42.7415 25.0778 41.9812 24.8016 41.3927 24.2861ZM44.2748 24.9376C44.5522 24.7299 44.7693 24.4522 44.904 24.133C45.0387 23.8138 45.0861 23.4645 45.0414 23.1209C45.0169 22.809 44.9066 22.51 44.7226 22.257C44.5385 22.004 44.2881 21.8069 43.9989 21.6875C44.446 21.6896 44.8827 21.8219 45.2557 22.0683C45.6288 22.3147 45.9219 22.6645 46.0992 23.0749C45.9704 23.5059 45.7404 23.8999 45.4284 24.2239C45.1163 24.5479 44.7313 24.7926 44.3055 24.9376H44.2748ZM49.4029 20.5147C49.3886 20.4512 49.3522 20.3949 49.3003 20.3556C49.2484 20.3163 49.1843 20.2967 49.1193 20.3001C48.6364 20.3001 49.0043 20.8827 48.3528 22.6687C48.339 22.713 48.3404 22.7606 48.3569 22.804C48.3735 22.8474 48.4041 22.8839 48.4439 22.9078C48.4837 22.9317 48.5303 22.9415 48.5764 22.9356C48.6224 22.9298 48.6651 22.9087 48.6977 22.8756C48.8667 22.5887 49.0006 22.2824 49.0963 21.9635C49.2343 22.6763 49.3799 23.3662 49.5256 24.0254C49.5346 24.0647 49.5513 24.1018 49.5747 24.1346C49.5981 24.1674 49.6278 24.1953 49.6619 24.2166C49.6961 24.238 49.7341 24.2524 49.7739 24.259C49.8136 24.2657 49.8543 24.2645 49.8935 24.2554C49.9328 24.2463 49.9699 24.2296 50.0027 24.2062C50.0355 24.1828 50.0633 24.1532 50.0847 24.1191C50.106 24.0849 50.1205 24.0468 50.1271 24.0071C50.1338 23.9674 50.1325 23.9267 50.1235 23.8875C49.9088 22.7837 49.6636 21.6875 49.4029 20.5147ZM54.1861 22.6074C53.4885 22.73 53.0516 22.8143 52.5074 22.96C53.0556 22.2598 53.367 21.4035 53.3966 20.5147C53.3759 20.2684 53.2804 20.0343 53.1228 19.8438C52.9652 19.6533 52.7532 19.5157 52.5151 19.4492C52.2929 19.3689 52.0515 19.3584 51.8232 19.4192C51.595 19.48 51.3908 19.6092 51.2381 19.7894C51.0854 19.9697 50.9915 20.1923 50.969 20.4275C50.9465 20.6626 50.9965 20.899 51.1123 21.105C51.166 21.3272 51.5416 21.105 51.4879 20.9746C51.4205 20.7893 51.4195 20.5863 51.4853 20.4003C51.551 20.2144 51.6793 20.057 51.8482 19.9552C52.0206 19.8841 52.2131 19.8784 52.3895 19.9391C52.5659 19.9997 52.7141 20.1227 52.8063 20.2848C52.868 20.5464 52.874 20.8182 52.8238 21.0823C52.7736 21.3464 52.6684 21.597 52.5151 21.8178C51.8022 23.2282 51.2886 23.3509 51.5952 23.6728C51.6286 23.709 51.6713 23.7353 51.7186 23.7488C51.7659 23.7623 51.8161 23.7625 51.8635 23.7495C52.7055 23.6332 53.5381 23.4565 54.3547 23.2206C54.4169 23.1837 54.4653 23.1275 54.4924 23.0604C54.5195 22.9934 54.5238 22.9193 54.5046 22.8496C54.4854 22.7798 54.4439 22.7184 54.3863 22.6746C54.3287 22.6308 54.2584 22.6072 54.1861 22.6074ZM57.5512 21.8178C57.6617 21.4975 57.6679 21.1504 57.5687 20.8263C57.4695 20.5023 57.2702 20.218 56.9993 20.0145C56.7284 19.8109 56.3999 19.6984 56.0611 19.6933C55.7223 19.6881 55.3905 19.7905 55.1136 19.9858C55.0642 19.7577 54.9705 19.5415 54.8376 19.3496C55.4261 19.2762 56 19.1133 56.5393 18.8667C56.6108 18.853 56.6771 18.8201 56.7311 18.7715C56.7852 18.7228 56.8249 18.6603 56.846 18.5907C56.8582 18.5324 56.8523 18.4718 56.829 18.417C56.8057 18.3621 56.7661 18.3158 56.7156 18.2841C56.501 18.1538 56.2481 18.3301 56.0794 18.3991C53.0133 19.5719 54.715 18.6674 54.6537 20.5684C54.6551 20.6271 54.6752 20.6838 54.7111 20.7303C54.747 20.7767 54.7968 20.8105 54.8532 20.8268C54.9096 20.843 54.9698 20.8409 55.0249 20.8206C55.08 20.8003 55.1272 20.763 55.1596 20.714C55.1785 20.695 55.1917 20.6711 55.1979 20.645C55.3505 20.4351 55.5774 20.2913 55.8323 20.2429C56.0873 20.1944 56.3511 20.2451 56.57 20.3844C56.718 20.4928 56.8355 20.6375 56.9112 20.8046C56.9868 20.9717 57.0181 21.1555 57.0019 21.3382C56.9857 21.5209 56.9226 21.6963 56.8188 21.8475C56.7149 21.9986 56.5738 22.1204 56.409 22.2011C56.0179 22.348 55.5965 22.3954 55.1826 22.3391C54.9526 22.3391 54.8453 22.5767 54.9986 22.7147C55.2152 22.8666 55.4648 22.9647 55.7269 23.0008C55.9889 23.037 56.2558 23.0101 56.5054 22.9224C56.755 22.8347 56.9801 22.6887 57.1619 22.4966C57.3438 22.3045 57.4772 22.0718 57.5512 21.8178ZM58.356 20.6757C58.8418 20.6193 59.3216 20.5193 59.7894 20.3767C59.8004 20.8972 59.8856 21.4134 60.0424 21.9098C60.073 21.9538 60.1151 21.9884 60.1641 22.01C60.2131 22.0316 60.2671 22.0392 60.3202 22.0321C60.3733 22.025 60.4234 22.0033 60.465 21.9696C60.5066 21.9358 60.538 21.8913 60.556 21.8408C60.6004 21.2878 60.5406 20.7314 60.3797 20.2004C60.6641 20.1602 60.9306 20.0377 61.1462 19.8478C61.1746 19.8116 61.1933 19.7687 61.2003 19.7232C61.2073 19.6776 61.2025 19.6311 61.1864 19.588C61.1702 19.5448 61.1432 19.5066 61.108 19.4769C61.0727 19.4473 61.0305 19.4272 60.9852 19.4186C60.05 19.2959 60.349 20.0241 60.1037 18.8207C60.1037 18.7577 60.0787 18.6972 60.0341 18.6527C59.9895 18.6081 59.9291 18.5831 59.8661 18.5831C59.8031 18.5831 59.7426 18.6081 59.6981 18.6527C59.6535 18.6972 59.6285 18.7577 59.6285 18.8207C59.6285 18.9433 59.6285 18.8897 59.6821 19.6792C59.4062 19.7559 59.1609 19.8478 58.9156 19.9475C58.6703 20.0471 59.0995 19.112 59.1915 17.9085C59.1922 17.8686 59.1787 17.8298 59.1534 17.7989C59.1282 17.7681 59.0928 17.7471 59.0536 17.7399C58.7776 17.6862 58.7699 17.9775 58.218 20.3078C58.1891 20.375 58.1873 20.4509 58.213 20.5195C58.2387 20.5881 58.29 20.6441 58.356 20.6757Z" fill="black"/>
<path d="M62.8555 20.852C64.5342 20.852 64.9174 18.0695 63.2924 16.8891C62.4722 16.2989 61.6597 16.4445 61.2917 17.4027C60.8318 18.6981 61.5217 20.852 62.8555 20.852ZM63.2617 17.7859C63.9133 18.6138 63.7446 19.9552 63.0011 20.2312C62.2576 20.5071 61.629 19.3037 61.6903 18.2228C61.79 16.7434 62.7098 17.0194 63.2847 17.7553L63.2617 17.7859Z" fill="black"/>
<path d="M66.1056 20.1544C67.9836 20.1544 68.4052 17.0116 66.7495 15.9231C66.5976 15.8068 66.4213 15.7262 66.234 15.6874C66.0466 15.6486 65.8529 15.6525 65.6672 15.6989C65.4816 15.7453 65.3088 15.833 65.1617 15.9554C65.0147 16.0779 64.8971 16.2319 64.8178 16.406C64.6129 16.7091 64.4913 17.0607 64.4652 17.4255C64.1739 18.6213 64.8485 20.1544 66.1056 20.1544ZM65.0708 16.8583C65.1141 16.7349 65.1829 16.6219 65.2726 16.5267C65.3623 16.4315 65.471 16.3562 65.5916 16.3056C65.7123 16.2551 65.8422 16.2304 65.973 16.2331C66.1037 16.2359 66.2325 16.2661 66.3509 16.3217C67.5543 17.0883 67.3167 19.9398 65.6303 19.3878C65.3877 19.2171 65.1941 18.9857 65.069 18.7166C64.9439 18.4476 64.8916 18.1504 64.9175 17.8548C64.9121 17.5164 64.9639 17.1795 65.0708 16.8583ZM68.5125 18.8436C68.6581 18.8436 68.3439 18.8436 69.3787 18.6903C69.9306 18.606 69.8463 18.6213 70.6358 18.4603C70.911 18.4489 71.1772 18.3585 71.4023 18.1997C71.4655 18.1352 71.5009 18.0486 71.5009 17.9583C71.5009 17.868 71.4655 17.7813 71.4023 17.7168C71.2183 17.5328 70.7584 17.6018 70.5208 17.7168C69.6853 17.9008 69.8003 17.8701 69.279 18.0158C69.6732 17.3966 69.9343 16.7023 70.0456 15.9768C70.1452 15.2103 69.5013 14.528 68.8728 14.7427C68.7465 14.779 68.6344 14.853 68.5514 14.9548C68.4684 15.0567 68.4186 15.1815 68.4086 15.3124C68.3986 15.4434 68.4289 15.5743 68.4954 15.6876C68.5619 15.8009 68.6615 15.8911 68.7808 15.9461C69.2024 16.1301 69.2254 15.6165 69.0567 15.5935C69.019 15.583 68.9861 15.5596 68.9637 15.5274C68.9413 15.4952 68.9309 15.4563 68.9341 15.4172C68.9341 15.1489 69.1947 15.1643 69.3403 15.2946C69.9612 15.9001 68.9417 17.6325 68.2979 18.3607C68.269 18.4047 68.2517 18.4552 68.2474 18.5076C68.2432 18.56 68.2521 18.6126 68.2735 18.6607C68.2948 18.7087 68.3279 18.7507 68.3697 18.7826C68.4114 18.8146 68.4605 18.8356 68.5125 18.8436ZM72.1075 16.8123C72.3758 16.8123 72.2992 16.659 72.6671 15.3866C73.2037 17.6862 73.2343 17.8318 73.5103 17.9621C73.5519 17.9944 73.6032 18.012 73.6559 18.012C73.7086 18.012 73.7599 17.9944 73.8016 17.9621C74.0009 17.6938 73.9165 17.5712 73.403 15.7622C72.9737 14.2674 72.9737 14.1908 72.6824 14.1831C72.6282 14.1859 72.5765 14.2072 72.5361 14.2435C72.4956 14.2798 72.4688 14.3288 72.4601 14.3824C72.3145 15.0953 72.1229 15.7928 71.9006 16.567C71.9014 16.6255 71.9224 16.682 71.9602 16.7267C71.9979 16.7714 72.05 16.8017 72.1075 16.8123ZM96.2379 99.6896L97.2421 100.655C97.4797 100.954 98.0699 101.552 98.4455 101.552C98.8211 101.552 99.212 101.023 99.488 100.609C100.189 99.807 100.726 98.8746 101.067 97.8652C101.412 96.0792 99.1584 94.6918 98.0469 97.0987C97.2114 95.7803 94.0456 96.1712 94.7048 97.8652C95.0684 98.5834 95.5931 99.2078 96.2379 99.6896ZM122.2 47.9181C121.946 47.7521 121.646 47.6729 121.343 47.6922C121.04 47.7116 120.752 47.8285 120.522 48.0254C119.971 48.589 119.577 49.2866 119.379 50.0491C118.963 51.0123 118.6 51.9975 118.291 53.0002C118.145 53.6211 118.49 53.6211 118.628 53.5061C119.993 53.6134 124.531 52.571 124.431 51.0379C124.353 50.6771 124.139 50.3601 123.834 50.1531C123.528 49.946 123.154 49.8649 122.791 49.9264C122.903 49.5709 122.906 49.1901 122.801 48.8324C122.696 48.4748 122.487 48.1565 122.2 47.9181ZM122.024 73.4513C123.112 71.9719 124.101 70.2165 123.894 68.2082C123.874 67.6799 123.737 67.1627 123.493 66.6936C123.249 66.2245 122.904 65.8151 122.484 65.4947C121.518 64.9198 120.422 65.7476 119.686 66.3072C115.961 69.1127 114.803 73.8882 113.761 77.9815C113.546 78.8476 113.316 79.7368 113.186 80.6107C112.703 82.274 114.006 82.619 115.118 82.7109C118.406 82.9639 123.22 81.1012 126.547 80.1661C128.156 79.7138 130.854 78.9549 130.808 76.6094C130.778 74.0262 126.179 71.6346 122.024 73.4513ZM117.731 46.868C117.76 46.9061 117.797 46.937 117.84 46.9582C117.882 46.9795 117.929 46.9906 117.977 46.9906C118.024 46.9906 118.071 46.9795 118.114 46.9582C118.156 46.937 118.193 46.9061 118.222 46.868C120.461 43.5801 122.464 40.1373 124.216 36.5658C125.634 33.4997 123.91 29.552 120.683 30.2496C119.364 30.5562 118.222 31.5757 117.295 33.2774C116.979 32.21 116.269 31.3027 115.309 30.7402C112.128 28.9465 108.502 32.3959 110.258 35.577C112.298 39.6204 114.806 43.4101 117.731 46.868ZM65.9216 52.5633C65.9274 52.7777 65.9557 52.991 66.0059 53.1995C66.0519 53.6594 66.1133 54.15 66.5732 54.15C66.6336 54.148 66.693 54.1342 66.748 54.1092C66.8031 54.0842 66.8527 54.0487 66.894 54.0045C66.9353 53.9604 66.9674 53.9086 66.9887 53.852C67.0099 53.7954 67.0198 53.7352 67.0178 53.6748C66.9454 53.2593 66.835 52.8513 66.6882 52.456C66.6508 52.3783 66.5898 52.3146 66.5138 52.2739C66.4379 52.2332 66.351 52.2178 66.2657 52.2297C66.1804 52.2417 66.1011 52.2804 66.0392 52.3404C65.9774 52.4003 65.9362 52.4784 65.9216 52.5633ZM74.7137 51.3215C74.6311 51.2591 74.5284 51.2293 74.4252 51.2378C74.322 51.2463 74.2255 51.2925 74.1542 51.3675C73.8245 51.5208 73.7709 53.3145 74.4991 53.3145C74.6102 53.3179 74.7188 53.2809 74.8047 53.2105C74.8907 53.14 74.9482 53.0408 74.9667 52.9312C74.9667 52.5863 74.9207 52.6246 74.9207 52.3947C74.9207 51.5821 74.8594 51.4365 74.7137 51.3215ZM99.0511 117.795C98.7061 117.159 97.8016 117.358 97.518 118.017C97.4451 117.923 97.3537 117.845 97.2495 117.788C97.1453 117.73 97.0305 117.695 96.9121 117.683C96.7936 117.672 96.6741 117.685 96.5608 117.721C96.4476 117.757 96.3429 117.816 96.2532 117.895C96.1247 118.011 96.0229 118.154 95.9546 118.313C95.8863 118.472 95.8532 118.644 95.8576 118.817C95.8619 118.991 95.9037 119.161 95.9799 119.316C96.0561 119.472 96.165 119.609 96.2992 119.719C96.7591 120.046 97.2494 120.329 97.7633 120.562C97.8433 120.615 97.9357 120.647 98.0316 120.654C98.2462 120.654 98.3382 120.309 98.4225 120.148C98.9438 119.083 99.2887 118.523 99.0511 117.795ZM89.3315 119.857C89.4618 120.624 89.5768 121.482 89.6304 121.735L91.0868 121.398C91.1941 121.398 91.2018 121.451 90.8185 119.581C90.315 119.624 89.8168 119.716 89.3315 119.857Z" fill="black"/>
<path d="M89.4082 117.841C88.8531 118.06 88.3676 118.425 88.0032 118.897C87.6388 119.369 87.4091 119.932 87.3385 120.524C87.2741 120.898 87.2918 121.282 87.3904 121.649C87.4891 122.016 87.6663 122.357 87.9098 122.649C88.1533 122.941 88.4573 123.176 88.8007 123.338C89.1442 123.501 89.5188 123.587 89.8987 123.59C90.4879 123.564 91.0605 123.387 91.5612 123.075C92.062 122.764 92.4741 122.329 92.7579 121.812C93.6164 119.803 91.7154 117.197 89.4082 117.841ZM91.7078 121.505V121.612C91.5391 122.026 91.2938 122.065 89.9371 122.302L89.7224 122.341C89.6419 122.367 89.5568 122.376 89.4724 122.368C89.388 122.36 89.3062 122.335 89.2319 122.295C89.1715 122.255 89.1213 122.202 89.0854 122.139C89.0494 122.077 89.0287 122.006 89.0249 121.934C89.0249 121.858 89.0249 121.635 88.9636 121.352C88.8765 120.845 88.8278 120.333 88.8179 119.819C88.7873 119.721 88.7873 119.617 88.8179 119.52C88.8443 119.459 88.8844 119.406 88.9349 119.363C88.9854 119.321 89.0451 119.29 89.1092 119.275C89.6784 119.125 90.2572 119.015 90.8416 118.945C90.9434 118.943 91.0431 118.974 91.1259 119.034C91.2087 119.093 91.2703 119.178 91.3015 119.275C91.4471 119.995 91.5314 120.447 91.5928 120.746C91.675 120.991 91.7139 121.247 91.7078 121.505Z" fill="black"/>
</svg>
