<svg width="154" height="154" viewBox="0 0 154 154" fill="none" xmlns="http://www.w3.org/2000/svg">
<path fill-rule="evenodd" clip-rule="evenodd" d="M132.727 61.1485C132.849 61.4015 133.317 61.4781 133.624 61.5318C136.123 61.9764 146.954 62.2063 147.996 61.3095C148.908 60.543 148.402 48.0179 147.513 47.512C146.363 46.8297 133.823 46.6994 132.949 47.397C132.313 47.9259 131.914 59.3778 132.727 61.1485ZM133.141 47.5579C133.838 46.9754 146.087 47.4123 147.191 47.9489C147.781 49.5279 148.165 59.4468 147.59 60.8572C146.655 61.5011 135.195 61.4781 133.194 60.8572C132.413 58.9792 132.704 47.9259 133.141 47.5579ZM102.242 46.2165C101.938 46.7365 101.527 47.1864 101.037 47.5365C100.547 47.8866 99.9885 48.129 99.398 48.2478C99.3799 48.2432 99.361 48.2428 99.3427 48.2466C99.3244 48.2504 99.3072 48.2583 99.2924 48.2698C99.2776 48.2812 99.2657 48.2959 99.2575 48.3127C99.2492 48.3295 99.245 48.3479 99.245 48.3666C99.245 48.3853 99.2492 48.4038 99.2575 48.4206C99.2657 48.4374 99.2776 48.4521 99.2924 48.4635C99.3072 48.475 99.3244 48.4829 99.3427 48.4867C99.361 48.4905 99.3799 48.4901 99.398 48.4854C100.747 48.838 102.502 47.6116 102.502 46.2625C102.509 46.2279 102.501 46.1924 102.481 46.1636C102.46 46.1349 102.43 46.1153 102.395 46.1092C102.361 46.1031 102.325 46.111 102.296 46.1311C102.268 46.1512 102.248 46.182 102.242 46.2165ZM95.9793 39.3561V40.1226C95.9793 40.2242 96.0197 40.3217 96.0916 40.3936C96.1634 40.4655 96.2609 40.5059 96.3626 40.5059C96.4636 40.5039 96.5599 40.4629 96.6314 40.3914C96.7029 40.32 96.7439 40.2236 96.7458 40.1226V39.3561C96.7458 39.2544 96.7055 39.1569 96.6336 39.0851C96.5617 39.0132 96.4642 38.9728 96.3626 38.9728C96.2609 38.9728 96.1634 39.0132 96.0916 39.0851C96.0197 39.1569 95.9793 39.2544 95.9793 39.3561ZM103.622 40.0843C103.622 40.1859 103.662 40.2834 103.734 40.3553C103.806 40.4272 103.903 40.4675 104.005 40.4675C104.107 40.4675 104.204 40.4272 104.276 40.3553C104.348 40.2834 104.388 40.1859 104.388 40.0843V39.1338C104.388 39.0321 104.348 38.9346 104.276 38.8628C104.204 38.7909 104.107 38.7505 104.005 38.7505C103.903 38.7505 103.806 38.7909 103.734 38.8628C103.662 38.9346 103.622 39.0321 103.622 39.1338C103.591 39.4634 103.622 39.8466 103.622 40.0843Z" fill="black"/>
<path fill-rule="evenodd" clip-rule="evenodd" d="M148.065 95.535C148.015 95.4496 147.944 95.3783 147.858 95.3281C147.199 95.0061 143.612 95.1671 142.868 95.1978C142.998 75.0917 132.405 62.5512 117.028 58.9562C114.207 58.297 114.2 58.251 114.123 58.297L113.602 56.8636C115.074 56.8176 116.277 55.6831 117.626 55.9131C118.646 56.0817 119.159 56.9862 120.163 57.3695C121.865 58.0134 124.893 57.0246 125.82 55.4072C126.296 54.564 125.874 53.6901 126.173 53.1076C126.71 52.64 128.235 51.8888 128.672 51.3446C129.569 50.2254 129.607 47.7189 129.201 46.3621C128.467 44.8268 127.468 43.4333 126.25 42.2458C124.924 40.9684 123.749 39.5437 122.747 37.9993C121.513 35.5387 121.467 32.1353 120.447 29.5674C119.323 27.2489 117.584 25.2839 115.419 23.8874C113.304 22.3937 110.754 21.6417 108.167 21.7488C105.753 21.9021 104.81 22.9293 103.683 23.2819C102.556 23.6345 102.319 23.2819 100.487 24.0867C99.7592 24.5299 99.1114 25.0922 98.5703 25.7501C98.3403 25.9954 98.3556 26.0107 97.9647 26.0261C97.5437 25.9944 97.1209 25.9944 96.6999 26.0261C95.9822 26.1853 95.2958 26.4625 94.6686 26.8462C90.399 29.4065 91.5488 34.5575 89.9391 38.3442C88.843 40.9197 85.7922 43.3956 85.5316 46.0862C85.4392 47.3233 85.7054 48.5608 86.2981 49.6505C88.1608 52.9236 90.836 50.3557 92.2234 52.3564C92.6603 52.9849 92.9899 53.5982 93.8024 53.7208C94.8373 53.8588 96.2477 53.0386 97.0909 52.433C97.268 52.6396 97.4687 52.8248 97.6888 52.9849C98.436 53.4887 99.2384 53.9053 100.08 54.2267L98.1333 56.9479C94.4847 56.534 88.8813 57.7144 85.271 58.8259C85.1406 57.9061 84.0062 50.3097 83.1477 49.9418C81.9595 49.4206 69.4881 50.8693 68.7292 51.6895C68.1697 52.2874 69.1738 63.6704 70.2623 65.3721C70.4233 65.6327 70.9752 65.6404 71.2818 65.648C69.4881 66.8745 67.7557 68.1163 67.1348 68.5685C66.6519 66.8975 64.1147 58.0594 63.1795 56.6106C62.9113 56.189 62.666 56.1967 61.4319 56.6106C60.7284 53.1009 59.838 49.6312 58.7643 46.2165C59.1669 45.5547 59.4886 44.847 59.7225 44.1085C60.0082 42.9389 60.0499 41.7229 59.8451 40.5365C60.7803 40.8508 66.3683 42.3838 67.2728 41.9392C67.5158 41.7659 67.696 41.5184 67.7864 41.234C68.7752 39.0724 70.4692 31.6907 70.5996 29.3528C70.6533 29.0534 70.6018 28.7447 70.4539 28.479C69.5571 27.5438 57.4919 24.0714 56.4724 24.5313C55.8515 24.8149 54.1728 30.3263 53.9965 30.9778C52.5324 35.8913 53.276 34.8105 52.4634 35.0941C51.5283 35.4237 50.7234 37.3937 50.3938 38.3059C50.0642 39.218 49.7193 40.4445 50.1102 41.165C49.9515 41.4581 49.8876 41.7932 49.9274 42.1241C49.9672 42.455 50.1088 42.7654 50.3325 43.0124C50.0887 43.2841 49.9298 43.6212 49.8753 43.9822C49.8209 44.3431 49.8732 44.7121 50.0259 45.0437C50.2482 45.7412 51.6356 46.2011 52.3255 46.4004C51.7808 47.8682 51.3277 49.3684 50.9687 50.8923C50.3573 53.257 49.8686 55.6518 49.5046 58.067C49.2779 59.2407 49.2032 60.4387 49.2823 61.6314L48.0252 62.1986C47.9769 62.2208 47.936 62.2565 47.9074 62.3013C47.8788 62.3462 47.8639 62.3984 47.8643 62.4516C47.8643 62.4516 48.1019 71.7419 51.1603 79.4609C54.855 88.8049 60.9336 91.9324 70.1856 88.437C70.2691 89.1705 70.4495 89.8896 70.7222 90.5756C70.8602 90.8209 71.3278 90.8669 71.642 90.8975C74.3633 90.9867 77.0874 90.9022 79.7979 90.6446L82.0975 105.209C81.4766 107.002 74.4322 127.438 74.5319 129.339C74.5319 129.538 74.6085 129.692 74.9381 129.845C76.9694 130.788 96.217 133.302 96.9452 131.202C97.1292 130.688 97.5738 127.415 97.6581 126.794L108.489 125.598L118.814 126.281C118.926 127.314 119.11 128.339 119.366 129.347C119.458 129.577 119.566 129.699 119.834 129.676C120.853 129.577 126.288 128.596 127.79 128.312C133.555 127.223 133.424 127.131 133.256 126.564C132.85 125.223 129.078 114.76 127.606 109.877C129.759 110.107 131.931 110.107 134.084 109.877C134.107 109.96 134.151 110.036 134.211 110.097C134.271 110.159 134.346 110.204 134.429 110.229C135.831 110.743 148.364 110.03 149.391 109.003C150.319 108.183 148.763 96.7002 148.065 95.535ZM56.4877 24.8609C56.5721 24.7306 56.5414 24.677 57.2159 24.7766C60.0291 25.1752 69.2275 28.1417 70.0247 28.8392C70.178 30.5946 67.9014 40.2299 67.0045 41.395C66.353 41.6173 62.0298 40.5135 61.3629 40.3372C56.2884 39.0111 56.4877 38.8041 55.3303 38.5358C54.7324 38.3289 54.6711 38.3212 54.6864 38.2369C54.6883 38.2179 54.6972 38.2003 54.7114 38.1876C54.7256 38.1748 54.744 38.1678 54.763 38.1679C55.4529 38.1679 57.3003 38.1142 57.7525 37.5777C57.8523 37.4686 57.9268 37.3387 57.9707 37.1975C58.0145 37.0563 58.0266 36.9071 58.0061 36.7606C57.9856 36.6142 57.933 36.474 57.8521 36.3503C57.7711 36.2265 57.6638 36.1221 57.5379 36.0446C56.5527 35.6499 55.5231 35.3771 54.4718 35.2321C54.1575 35.1708 53.7742 35.0635 53.391 35.0175C53.9199 32.6259 55.6675 26.1334 56.4877 24.8609ZM49.9032 61.3784V60.1903C49.9722 58.7339 50.6698 54.9089 50.8767 53.8588C51.214 52.1571 51.2907 51.7738 52.2718 48.0791C52.2718 47.9795 52.862 46.3315 52.862 46.3315C52.8726 46.3028 52.877 46.2723 52.8748 46.2419C52.8727 46.2114 52.8641 46.1818 52.8495 46.155C52.835 46.1281 52.815 46.1047 52.7907 46.0862C52.7664 46.0677 52.7385 46.0547 52.7087 46.0478C52.6244 46.0478 50.6314 45.5573 50.4091 44.921C50.1869 44.2848 50.1409 43.5183 50.7004 43.181C50.721 43.1661 50.7378 43.1465 50.7493 43.1238C50.7609 43.1012 50.7669 43.0761 50.7669 43.0507C50.7669 43.0253 50.7609 43.0002 50.7493 42.9776C50.7378 42.9549 50.721 42.9353 50.7004 42.9204C50.4555 42.7193 50.2906 42.4371 50.2358 42.1249C50.181 41.8127 50.2397 41.4913 50.4015 41.2187C50.5778 40.8584 49.6349 41.0347 50.7541 38.4515C51.0377 37.8153 51.9959 35.8606 52.6474 35.646C53.2243 35.5897 53.8066 35.655 54.3568 35.8376C55.3175 35.989 56.262 36.2302 57.1776 36.5582C57.2359 36.5895 57.2861 36.6338 57.3244 36.6877C57.3627 36.7416 57.388 36.8036 57.3984 36.8689C57.4088 36.9342 57.4039 37.001 57.3842 37.0641C57.3646 37.1272 57.3306 37.1849 57.2849 37.2327C56.9482 37.4236 56.5792 37.5509 56.1965 37.6083C53.7819 38.0836 54.2111 37.5547 53.8969 38.3749C52.9744 38.3208 52.0524 38.4863 51.2063 38.8578C50.8767 38.9268 51.0147 39.1414 51.2523 39.1031C52.2793 38.7665 53.3777 38.7109 54.4334 38.9421C55.046 39.054 55.6447 39.2313 56.2195 39.471C56.7407 39.6827 57.2033 40.0166 57.5685 40.4445C57.6338 40.6067 57.6581 40.7824 57.6394 40.9561C57.6207 41.1299 57.5595 41.2964 57.4612 41.441C57.2773 41.7246 56.3881 41.533 56.0508 41.441C55.5909 41.303 55.108 41.188 54.6557 41.0424C54.0195 40.8431 54.0885 40.7894 53.8892 40.8048C53.1861 40.9044 52.4985 41.0924 51.8426 41.3643C51.824 41.3665 51.8062 41.3728 51.7904 41.3828C51.7747 41.3929 51.7615 41.4064 51.7518 41.4224C51.742 41.4383 51.7361 41.4563 51.7344 41.4749C51.7327 41.4935 51.7352 41.5122 51.7418 41.5297C51.7485 41.5471 51.759 41.5629 51.7726 41.5756C51.7862 41.5884 51.8026 41.5979 51.8204 41.6034C51.8383 41.6089 51.8571 41.6102 51.8756 41.6073C51.894 41.6044 51.9116 41.5973 51.9269 41.5866C52.5139 41.4211 53.114 41.3057 53.7206 41.2417C54.0655 41.2417 53.8432 41.2417 54.7094 41.5866C55.1003 41.7323 55.4759 41.8472 55.8898 41.9852C56.1561 42.0765 56.4309 42.1407 56.71 42.1769C57.2006 42.6368 57.5532 43.7099 56.894 43.9015C56.635 43.9462 56.3686 43.9142 56.1275 43.8096C54.3721 43.2347 55.5602 42.8207 51.7506 43.6026C51.7194 43.6065 51.6909 43.6221 51.6709 43.6464C51.651 43.6706 51.6411 43.7016 51.6433 43.7329C51.6433 43.9322 51.7736 43.8096 53.8815 43.7329C54.1364 43.7073 54.3932 43.7073 54.6481 43.7329C55.3073 44.0702 56.2884 44.6451 57.0473 44.4228C57.9748 44.1238 57.9441 43.0967 57.3462 42.3455C57.1316 42.0849 57.1086 42.1615 57.2926 42.1309C57.4271 42.1163 57.5572 42.074 57.6746 42.0067C57.792 41.9394 57.8942 41.8486 57.9748 41.7399C58.1563 41.4895 58.2579 41.1901 58.2661 40.8809C58.2743 40.5717 58.1888 40.2673 58.0208 40.0076L59.3086 40.3908C59.5635 41.5781 59.5425 42.808 59.2472 43.9859C59.1651 44.2734 59.0573 44.553 58.9253 44.8214C58.3657 46.0018 58.1588 46.0402 58.2278 46.2625C59.2929 49.7259 60.1706 53.2443 60.857 56.8023C57.9671 57.8141 52.6704 60.1443 49.9032 61.3784ZM110.559 114.645C113.84 114.783 120.892 115.036 124.126 114.936C123.904 115.902 123.766 116.515 123.728 116.653C122.187 116.653 112.23 114.928 110.559 114.645ZM125.368 114.254C123.314 114.737 96.6463 113.694 94.362 112.721C94.5996 111.004 96.8379 101.353 97.2902 99.383C99.302 99.9989 101.395 100.309 103.499 100.303C104.266 100.701 105.53 101.391 106.289 101.752C106.205 102.403 105.998 103.944 106.458 104.404C106.918 104.864 117.504 108.75 126.786 109.839C126.412 111.34 125.938 112.815 125.368 114.254ZM97.0449 95.8033C96.6919 95.6962 96.3655 95.516 96.0867 95.2744C95.8874 95.0598 95.9564 94.4083 96.0867 94.1016C96.158 93.9526 96.2844 93.8372 96.4393 93.7797C96.6265 93.6983 96.826 93.6491 97.0295 93.6341C97.0904 93.6326 97.1494 93.6127 97.1986 93.5768C97.2478 93.541 97.2849 93.4909 97.3049 93.4334C97.3249 93.3759 97.3269 93.3136 97.3106 93.255C97.2942 93.1963 97.2604 93.144 97.2135 93.1051C96.7651 92.7274 96.4528 92.2132 96.3243 91.6411C96.3243 91.2195 96.4853 90.7826 97.1598 90.3993C97.9264 90.4606 100.226 92.3616 101.291 91.2655C102.357 90.1693 101.1 87.6015 102.288 87.3868C103.476 87.1722 104.074 90.7442 104.281 91.1352C104.971 92.4766 106.826 93.4348 107.884 94.5386C107.245 96.8234 106.733 99.1419 106.351 101.483C104.817 100.663 103.683 99.9503 103.568 99.9503C101.966 99.8966 97.6658 99.452 96.5466 98.3099C96.3476 98.1562 96.2114 97.9352 96.1634 97.6883C96.1154 97.4414 96.159 97.1855 96.286 96.9685C96.3675 96.8244 96.4775 96.6984 96.6093 96.5983C96.7411 96.4981 96.8919 96.4259 97.0525 96.3859C97.1182 96.3699 97.1765 96.332 97.2179 96.2785C97.2593 96.2251 97.2814 96.1592 97.2805 96.0916C97.2796 96.024 97.2558 95.9587 97.213 95.9063C97.1702 95.854 97.1109 95.8177 97.0449 95.8033ZM105.584 70.2779C104.16 70.1416 102.729 70.0853 101.299 70.1092C101.115 70.1092 100.962 70.2012 100.908 70.3775C100.778 70.8681 98.6086 86.8119 98.5013 87.5938C98.0414 79.9285 97.5661 71.8569 97.2135 65.9393C99.881 70.1936 100.111 70.6151 100.533 70.3162C101.954 69.1473 103.298 67.8875 104.557 66.5449C104.787 67.3957 105.155 68.7831 105.584 70.2779ZM112.598 67.5873C112.077 66.8208 111.563 66.0543 111.371 65.7707L113.847 59.5388L112.598 67.5873ZM114.384 58.7876C117.283 59.3854 120.11 60.2926 122.816 61.4934C122.701 61.8537 121.221 66.3762 119.451 71.7726C118.638 71.673 113.985 71.1057 112.552 70.9524L114.384 58.7876ZM111.249 66.6215L112.46 68.4459L112.077 70.8988L110.888 70.7454C111.065 69.0821 111.187 67.503 111.249 66.6215ZM132.413 74.7084C132.403 75.7064 132.306 76.7016 132.121 77.6826C129.492 77.008 106.558 71.3663 104.227 72.6924C103.062 73.367 99.2295 89.0962 98.8615 90.5143L98.5856 90.3763C99.7967 81.8601 101.406 70.6918 101.406 70.6611C104.02 70.3622 129.201 73.2137 132.413 74.7084ZM119.037 90.7366C117.32 90.6216 110.505 90.2843 109.072 91.2348C108.849 91.3881 108.757 91.4188 107.968 94.2549C106.948 93.1741 105.239 92.1547 104.664 90.9512C104.404 90.4223 103.982 86.559 102.196 86.8579C99.789 87.2642 102.863 92.2236 99.3061 90.6906C99.5361 89.7171 103.307 73.482 104.358 72.8841C106.581 71.6193 130.826 77.7899 133.892 78.656C133.716 80.5264 131.462 90.5066 131.048 92.331C127.078 91.5682 123.068 91.0358 119.037 90.7366ZM107.232 37.1178C107.661 37.409 107.646 38.1066 107.569 38.6125C107.033 42.0389 103.599 44.1162 101.215 40.8354C100.671 40.0689 100.249 37.6313 100.617 37.0948C100.862 36.7805 102.84 36.7651 103.238 36.7651C103.974 36.7728 106.849 36.8878 107.201 37.1178H107.232ZM98.1027 37.6697C98.1027 39.1107 97.6198 41.5023 96.3397 42.1922C94.2777 43.2653 92.1851 41.5636 92.1314 39.3484C92.0528 38.5396 92.0916 37.7238 92.2464 36.9261L92.323 36.8878C92.2004 36.6732 97.5891 36.6042 98.072 37.0871C98.0884 37.2809 98.0884 37.4758 98.072 37.6697H98.1027ZM100.77 54.357C102.096 54.7403 104.235 54.5563 105.262 53.5062C105.284 53.4834 105.296 53.4532 105.296 53.4219C105.296 53.3905 105.284 53.3603 105.262 53.3375C105.086 53.1229 105.262 53.5368 103.269 53.8358C101.276 54.1347 100.073 53.8358 98.0567 52.525C97.13 51.6737 96.4361 50.5999 96.0407 49.4052C95.2153 47.3835 94.6986 45.2491 94.5077 43.0737C95.2291 43.1918 95.9694 43.0707 96.6156 42.7288C97.2429 42.362 97.7288 41.7951 97.9954 41.119C97.7367 41.9291 97.5243 42.7531 97.3591 43.5873C97.3233 43.6941 97.3179 43.8088 97.3436 43.9184C97.3693 44.0281 97.4252 44.1285 97.5048 44.2082C98.0348 44.5321 98.6589 44.6672 99.2755 44.5914C99.2936 44.5961 99.3125 44.5965 99.3308 44.5927C99.3491 44.5889 99.3663 44.581 99.3811 44.5695C99.3959 44.558 99.4078 44.5433 99.416 44.5266C99.4243 44.5098 99.4285 44.4913 99.4285 44.4726C99.4285 44.4539 99.4243 44.4355 99.416 44.4187C99.4078 44.4019 99.3959 44.3872 99.3811 44.3757C99.3663 44.3643 99.3491 44.3563 99.3308 44.3525C99.3125 44.3487 99.2936 44.3492 99.2755 44.3538C98.8207 44.3032 98.3819 44.1569 97.9877 43.9245C97.8114 43.8019 97.8881 43.8786 97.9417 43.6256C97.9954 43.3726 98.9919 39.7163 99.0455 39.4863C99.2831 39.4863 100.188 39.3637 100.188 39.1414C100.188 38.9191 99.4671 38.8578 99.1988 38.8731C99.1988 38.7735 99.2448 38.6891 99.2678 38.6125C99.28 38.582 99.2796 38.5479 99.2667 38.5177C99.2537 38.4875 99.2293 38.4637 99.1988 38.4515C99.1683 38.4393 99.1342 38.4397 99.104 38.4527C99.0739 38.4656 99.05 38.49 99.0378 38.5205C98.7696 39.0417 98.9535 38.8501 98.5933 38.9421C98.7316 38.2333 98.7316 37.5046 98.5933 36.7958C98.1563 36.1213 95.5271 36.2746 94.6686 36.3282C95.1055 33.7603 96.8072 32.4956 97.8497 30.4413C98.1418 29.9644 98.531 29.5544 98.9919 29.2378C99.2218 29.1765 99.6741 29.7514 99.95 29.8894C100.226 30.0273 100.487 30.7862 100.717 31.0468C101.44 31.8701 102.273 32.5898 103.192 33.1855C103.959 33.7297 105.155 33.814 105.676 34.5115C105.896 35.1047 106.003 35.734 105.99 36.3666C105.001 36.3052 100.878 36.2439 100.387 36.9491C99.9424 37.5163 100.134 40.1072 100.786 41.1037C102.426 43.5873 104.948 43.7406 106.918 41.5023C107.13 41.2381 107.31 40.95 107.454 40.6438C108.926 42.9434 110.084 44.3155 110.137 47.0137C110.199 50.4324 109.233 56.097 112.935 56.8099L113.571 58.5653C110.505 66.2766 110.666 65.7937 110.666 65.8703C110.666 65.947 110.52 68.1699 110.252 70.7148C108.78 70.5615 107.408 70.4312 106.19 70.3315C106.098 70.0172 104.955 65.9546 104.978 65.8703C105.093 65.487 104.519 64.7359 104.074 64.069C102.407 61.6552 100.586 59.3508 98.6239 57.1702L100.77 54.357ZM98.072 57.3772C98.2023 57.5765 103.721 63.6474 104.396 65.878C103.156 67.2526 101.816 68.5336 100.387 69.7106C99.8734 69.0361 98.4859 66.8132 97.1675 64.7359C96.9299 60.7269 96.7689 57.9367 96.7306 57.3542C97.1599 57.3235 97.6428 57.3465 98.0414 57.3772H98.072ZM70.6992 65.0425C69.8254 63.5094 68.6142 53.5445 68.8979 52.0114C68.8979 51.8735 68.8979 51.8275 69.5417 51.6512C72.2859 50.9383 81.9136 50.1181 82.9254 50.4631C83.6919 51.9578 85.3706 61.7157 84.972 63.2181C84.1902 63.8467 72.9528 65.4334 70.6686 65.0425H70.6992ZM71.2358 90.2613C70.3543 88.529 69.7027 77.4219 70.1396 77.0003C70.7912 76.3718 83.025 75.8352 84.1825 76.2875C84.949 77.8972 86.0375 87.7854 85.5852 89.1269C84.5428 89.9087 73.0448 90.6752 71.2051 90.2613H71.2358ZM88.7357 77.4143C89.2876 77.2686 93.1356 76.2875 93.5955 76.0115C93.9251 75.8199 94.3007 76.4408 87.8542 58.7492C88.6207 58.044 95.3202 57.1395 96.378 57.4691C96.378 57.8907 97.3821 75.7816 98.1717 90.1387C97.7961 89.9547 97.2518 89.6711 96.9069 89.8627C95.4658 90.6293 95.3738 91.9017 96.4393 93.1435C96.2403 93.1923 96.0555 93.287 95.8998 93.4201C95.744 93.5533 95.6216 93.721 95.5425 93.91C95.4196 94.1977 95.3674 94.5106 95.39 94.8227C95.4127 95.1347 95.5097 95.4367 95.6728 95.7037C95.8515 95.8748 96.0558 96.017 96.2783 96.1253C96.0493 96.2787 95.8686 96.494 95.7571 96.7462C95.6566 96.9634 95.5968 97.1972 95.5808 97.4361L88.7357 77.4143ZM107.815 125.115L97.8037 126.227C97.8497 125.859 98.9765 116.975 99.3368 113.962C101.422 114.146 103.936 114.307 106.626 114.453C107.071 119.98 107.853 123.797 107.784 125.115H107.815ZM108.344 125.054C108.451 123.306 107.01 114.545 107.002 114.468L107.769 114.507C110.375 114.99 117.09 116.178 117.818 116.3C118.063 118.769 118.676 124.518 118.822 125.698C107.393 124.962 108.627 125.023 108.305 125.054H108.344ZM149.016 108.65C148.249 109.264 136.989 110.291 134.666 109.785C133.769 108.045 133.133 96.9455 133.57 96.5239C134.229 95.8877 146.463 95.3664 147.605 95.811C148.326 97.4131 149.437 107.34 148.985 108.65H149.016Z" fill="black"/>
<path fill-rule="evenodd" clip-rule="evenodd" d="M71.2513 103.016C71.1899 102.74 71.1056 102.342 70.8833 102.25C70.1168 101.79 65.0653 101.698 64.1685 101.683C63.9692 98.0263 63.6166 93.8027 63.0417 92.6683C62.6661 91.9017 37.8918 91.8251 37.041 91.8174C37.1023 87.6935 37.11 81.4079 37.041 77.2533C38.1218 77.2533 43.5182 77.2533 44.2617 76.6401C45.2122 75.8736 44.576 65.6404 44.1467 63.6091C44.0854 63.3331 43.9934 62.9346 43.7788 62.8426C42.6597 62.1757 30.1039 62.0147 29.2147 62.7276C28.7471 63.1185 28.5708 67.9093 28.5478 68.5149C26.7925 68.5149 15.9384 68.2926 12.0598 68.3846V62.122C13.0639 62.122 18.9585 62.283 19.7251 61.6391C20.6526 60.8726 20.3459 48.3475 19.4644 47.8416C18.5829 47.3357 13.0792 47.1747 12.1287 47.1517C12.1287 46.0632 12.0444 43.319 12.0368 43.25C15.5858 43.1197 24.9375 43.4187 28.7931 43.4187C28.7931 44.6221 28.7241 48.907 29.23 50.0032C29.3527 50.2638 29.8203 50.3405 30.1269 50.3941C32.5644 50.8234 43.4338 51.0763 44.4993 50.1718C45.5648 49.2673 44.8213 37.8077 44.2004 36.5736C44.1592 36.4848 44.0959 36.4083 44.0164 36.3513C42.859 35.6691 30.3185 35.5847 29.4523 36.2363C28.9541 36.6579 28.7855 42.1462 28.7701 42.8055C24.8531 42.8055 15.6395 42.5065 11.9908 42.6368C11.9908 41.1574 11.9141 39.6627 11.9141 38.1909C13.0026 38.1909 19.5794 38.0913 20.3996 37.3708C21.2198 36.6502 20.3996 25.0373 19.7404 23.7802C19.6994 23.6911 19.6326 23.6163 19.5488 23.5655C18.3836 22.914 5.84319 23.1133 4.98467 23.8338C4.33312 24.4011 4.21814 35.8607 5.09199 37.6314C5.15219 37.7302 5.24403 37.8059 5.35261 37.846C6.22645 38.2139 10.3044 38.2216 11.2626 38.2216C11.2626 41.648 11.4159 44.4305 11.4465 47.167C10.68 47.167 5.45226 47.052 4.86969 47.5196C4.28713 47.9872 3.58192 59.4392 4.39445 61.3172C4.50943 61.5701 4.97701 61.6621 5.28362 61.7158C7.31511 62.0091 9.36349 62.1705 11.4159 62.1987V73.5127C10.6877 73.5127 5.69755 73.4207 5.13798 73.8729C4.57841 74.3252 3.84254 85.7925 4.65507 87.6705C4.77005 87.9311 5.23763 88.0154 5.54424 88.0768C8.0278 88.552 18.8512 88.9659 19.9167 88.0768C20.9822 87.1876 20.4303 75.6973 19.8477 74.4785C19.8062 74.3879 19.743 74.3089 19.6637 74.2485C18.8282 73.7426 13.0179 73.574 11.9984 73.551V69.1204C15.9691 69.0208 26.3785 69.2431 28.4788 69.2508C28.4788 70.5462 28.3562 75.429 28.9081 76.6171C28.9582 76.72 29.0461 76.7997 29.1534 76.8394C30.1422 77.2917 35.2856 77.3837 36.3358 77.3913C36.4354 81.5612 36.4278 87.8621 36.3358 91.9554C26.0336 91.9017 15.3482 92.0091 13.1942 92.446C12.9643 92.492 12.5887 92.5686 12.5733 92.8906C12.5733 92.8906 12.1594 99.5134 11.9678 101.79C11.2856 101.79 6.80135 101.79 6.28011 102.25C5.75887 102.71 5.18397 114.192 6.02716 116.047C6.14214 116.3 6.60972 116.385 6.91633 116.438C9.36156 116.868 20.2233 117.121 21.2888 116.216C22.3543 115.312 21.6031 103.829 20.9898 102.618C21.0206 102.545 21.0304 102.464 21.0183 102.386C21.0061 102.307 20.9724 102.234 20.9208 102.173C20.0393 101.644 13.7461 101.598 12.7036 101.591C12.8876 99.2911 13.2862 92.8906 13.2862 92.8906C15.9077 92.124 59.5157 92.216 62.5665 92.9902C63.034 94.1094 63.333 97.9497 63.5783 101.621C62.8117 101.621 56.9861 101.575 56.3806 102.081C55.775 102.587 55.3151 114.093 56.1276 115.879C56.1814 115.982 56.2716 116.061 56.3806 116.101C57.7373 116.714 70.2854 116.99 71.3892 116.047C71.579 115.818 71.6892 115.533 71.7035 115.235C72.0638 112.905 71.7495 105.316 71.2513 103.016ZM29.6133 36.3283C30.2955 35.761 42.5293 36.1673 43.6638 36.7192C43.9485 37.929 44.1128 39.164 44.1544 40.4062C39.2409 39.908 32.6028 40.2912 29.2147 40.4062C29.23 39.9463 29.3527 36.5122 29.6133 36.3053V36.3283ZM29.207 40.8278C34.7874 41.0041 41.4102 40.7128 44.1774 40.7435C44.2617 42.1003 44.5606 48.4548 44.0624 49.6276C43.4952 50.0185 39.0263 50.0875 38.3441 50.0952C36.696 50.0952 31.2613 50.0952 29.667 49.6352C29.1151 48.2938 29.1687 42.3379 29.207 40.8048V40.8278ZM5.18397 23.8951C5.86618 23.2973 18.123 23.4122 19.2421 23.8951C19.4937 24.7495 19.653 25.6284 19.7174 26.5167C14.7658 26.3707 9.81048 26.627 4.90036 27.2832C4.90802 27.0073 4.96168 24.0944 5.18397 23.8951ZM5.59023 37.1945C4.96934 35.807 4.88502 29.3528 4.90036 27.5438C5.54424 27.4672 19.4644 26.7773 19.7481 26.7773C19.9167 28.3104 20.5146 35.4621 19.978 36.8035C18.9509 37.5471 7.41458 37.6927 5.59023 37.1945ZM5.06133 47.5656C5.75887 47.006 17.985 47.6116 19.1118 48.1788C19.3625 49.3227 19.5012 50.4882 19.5258 51.6589C19.6024 51.6589 8.68702 51.2296 4.61674 51.3599C4.63974 50.9077 4.8237 47.7496 5.06133 47.5656ZM19.5104 87.4252C18.6672 87.9771 7.36092 87.9081 5.12265 87.1952C4.57075 85.8232 4.73938 79.5299 4.81604 77.9279C4.89269 77.9279 15.3712 78.7404 19.7557 78.2268C19.8324 79.6296 20.0393 86.2294 19.5104 87.4175V87.4252ZM19.3265 74.5015C19.576 75.6483 19.7172 76.816 19.7481 77.9892C19.8247 77.9892 8.93231 77.56 4.83137 77.6826C4.86553 76.4504 4.99624 75.2227 5.2223 74.0109C5.27596 73.8576 5.2223 73.827 5.91218 73.7503C8.65636 73.4437 18.3453 74.0033 19.3265 74.4938V74.5015ZM4.90036 60.8649C4.35612 59.4928 4.52476 53.2456 4.60141 51.6052C4.69339 51.6052 15.1412 52.4177 19.5411 51.9042C19.6177 53.3146 19.8324 59.8761 19.2958 61.1025C18.261 61.7771 6.74769 61.4551 4.90036 60.8649ZM21.0895 106.588C21.1815 108.014 21.4727 114.353 20.9745 115.557C20.162 116.124 8.80966 116.239 6.57906 115.557C6.02716 114.223 6.08081 108.221 6.11914 106.619C11.0633 106.811 15.5551 106.588 21.0895 106.588ZM20.5759 102.648C20.8595 103.856 21.0263 105.088 21.0742 106.328C16.199 105.837 9.3309 106.228 6.1268 106.374C6.1268 105.891 6.27245 102.465 6.5254 102.258C7.21528 101.69 19.4414 102.097 20.5759 102.648ZM29.3527 62.8272C30.0579 62.237 42.2917 62.6816 43.4032 63.2182C43.6947 64.4765 43.8642 65.76 43.9091 67.0508C40.5824 66.8745 32.3038 66.3456 28.9618 66.7595C29.0001 66.3226 29.1304 63.0342 29.3527 62.8272ZM29.4293 76.1112C28.8698 74.7698 28.9311 68.6375 28.9771 67.0355C30.0579 66.9282 37.8765 67.4188 41.5099 67.3881C42.4374 67.3881 43.2729 67.3498 43.9474 67.3268C44.0317 68.6912 44.3154 74.9231 43.8248 76.1035C42.8206 76.8164 31.292 76.7014 29.4293 76.1112ZM56.5109 102.258C57.2007 101.69 69.4269 102.097 70.569 102.648C70.85 103.859 71.0143 105.094 71.0596 106.336C66.2305 105.845 59.2397 106.236 56.1199 106.336C56.1276 105.929 56.2579 102.488 56.5109 102.281V102.258ZM70.9676 115.557C70.1321 116.124 58.7798 116.239 56.5722 115.557C56.0126 114.231 56.0663 108.206 56.1123 106.611C61.271 106.811 65.142 106.611 71.0749 106.611C71.1669 108.022 71.4582 114.384 70.9676 115.58V115.557Z" fill="black"/>
</svg>
