<svg width="154" height="154" viewBox="0 0 154 154" fill="none" xmlns="http://www.w3.org/2000/svg">
<path d="M149.856 90.1226L122.805 84.6971C123.173 80.4973 122.499 77.1299 120.651 74.152C118.48 71.1625 118.472 71.2859 117.988 70.8451C117.938 70.541 117.809 70.2552 117.615 70.0158C117.365 69.5587 117.019 69.1605 116.603 68.8476C116.115 68.6038 115.824 68.5172 115.824 68.1462C115.824 67.9162 116.058 67.7568 116.135 67.523C116.176 67.3953 116.19 67.2604 116.177 67.127C116.163 66.9935 116.122 66.8643 116.056 66.7474C115.991 66.6305 115.901 66.5284 115.794 66.4475C115.687 66.3667 115.565 66.3087 115.434 66.2774C115.123 66.1241 114.656 65.9654 114.577 65.576C114.564 65.3653 114.59 65.154 114.654 64.9528C114.654 63.7846 112.629 63.3952 111.694 63.4734C110.781 63.7348 109.582 64.3595 109.28 65.2648C109.189 66.1709 108.98 67.0611 108.657 67.9124C108.412 68.2358 108.124 68.5241 107.801 68.7694C107.64 68.8866 107.507 69.0384 107.413 69.2136C107.318 69.3889 107.264 69.5831 107.255 69.782C107.255 70.2488 107.8 70.5608 107.722 71.0283C107.722 71.7136 105.86 72.6772 106.261 73.7825C105.931 74.4029 105.644 75.0446 105.4 75.7034C105.314 76.0463 105.194 76.3801 105.043 76.6999C104.737 77.3131 103.925 77.9493 101.282 81.3274L89.045 86.4425C86.1843 77.3553 85.0591 64.2775 76.7039 54.6031L77.879 52.8846C80.1107 54.9004 82.1006 57.1687 83.8089 59.6438C85.9597 62.7168 86.9432 64.7919 87.5442 67.523C87.0091 69.5923 86.9637 71.7578 87.4116 73.8476C87.6727 74.8926 88.2197 75.8442 88.9914 76.5957C90.2654 77.839 92.4829 78.3479 95.0868 77.3829C99.7335 75.5716 103.085 70.8896 105.861 66.643C113.649 54.7066 110.895 48.4057 110.555 47.7235C108.628 43.9537 103.874 45.9045 100.335 48.2486C98.3936 48.7599 96.3976 49.0366 94.3901 49.0726C87.4532 49.3548 80.6067 47.4201 74.8435 43.549C74.165 43.4233 73.464 43.539 72.8619 43.8762C72.2598 44.2133 71.7948 44.7506 71.5474 45.3948C70.6337 47.2927 71.5382 48.5782 72.1446 48.9929C72.1446 48.9929 72.5777 49.1899 72.7647 49.2826L71.6915 50.8548C69.0081 48.8461 66.142 47.0938 63.1309 45.6209L63.2697 44.8544C64.5081 45.0164 65.7663 44.7921 66.8724 44.212C67.4103 45.176 67.6188 46.2891 67.4664 47.3824C67.4576 47.4577 67.4714 47.5339 67.5059 47.6014C67.5405 47.6689 67.5942 47.7247 67.6605 47.7616C67.7267 47.7985 67.8024 47.815 67.8779 47.8089C67.9535 47.8028 68.0256 47.7744 68.085 47.7273C74.2801 42.8292 79.6934 33.3725 76.9392 24.1949C74.4442 15.297 65.3002 12.5053 57.556 14.3465C51.8714 15.6994 47.831 21.1502 46.7494 28.9205C46.4857 30.9035 46.2519 34.5844 47.6562 36.9553C48.6633 38.6322 49.9479 40.126 51.4551 41.3728C51.3862 41.5752 51.3179 41.7783 51.2466 41.9776C46.0296 41.1651 20.649 38.1633 15.2964 55.5751C13.6092 61.2477 13.5471 67.2799 15.117 72.9861C12.4446 87.6783 12.1065 102.7 14.1151 117.498C14.128 117.582 14.1684 117.659 14.2301 117.718L3.98926 122C3.90769 122.034 3.84049 122.095 3.79904 122.173C3.7576 122.252 3.74448 122.342 3.7619 122.428C3.77932 122.515 3.82621 122.593 3.89462 122.649C3.96302 122.705 4.04873 122.736 4.13721 122.736C4.25525 122.736 -0.192169 124.576 99.6753 82.8268C99.5907 83.1946 99.6428 83.5806 99.8217 83.9128C100.001 84.2451 100.294 84.501 100.648 84.6327C101.525 84.8627 102.045 83.8555 102.395 83.023C103.337 82.7418 104.255 82.3858 105.141 81.9583C105.832 82.1629 106.54 82.3068 107.256 82.3883C106.081 86.1635 106.13 88.0913 105.884 91.5867C91.4197 93.0209 80.4683 99.4965 80.4683 107.248C80.4683 116.048 94.5801 123.208 111.927 123.208C129.273 123.208 143.385 116.048 143.385 107.248C143.385 99.5448 132.571 93.0991 118.243 91.6112C118.224 88.1825 118.51 86.6978 118.462 84.6051L120.451 85.0152C120.667 85.6622 120.647 85.5802 120.601 85.7128C119.063 90.1586 124.383 88.6785 122.874 85.4974L149.703 90.8784C149.803 90.8987 149.906 90.8787 149.991 90.8226C150.076 90.7665 150.135 90.6791 150.155 90.5795C150.175 90.4799 150.155 90.3762 150.099 90.2914C150.043 90.2066 149.956 90.1475 149.856 90.1272V90.1226ZM122.02 84.9968C121.779 85.0301 121.54 85.0774 121.305 85.1386C120.186 81.5474 118.082 78.5971 116.316 75.3615C116.267 75.2723 116.185 75.206 116.088 75.1774C115.99 75.1487 115.885 75.1599 115.796 75.2086C115.707 75.2573 115.64 75.3395 115.612 75.437C115.583 75.5345 115.594 75.6395 115.643 75.7287C116.208 76.7635 116.77 77.7094 117.335 78.6699C115.513 79.973 113.239 79.8963 111.025 79.602C110.175 79.5475 109.367 79.2154 108.725 78.6569C109.338 77.0832 107.912 76.716 107.9 74.9292C108.395 74.8449 108.306 75.3684 108.306 75.4551C108.306 75.8996 108.543 75.9211 108.97 75.7785C109.688 75.6352 110.432 74.8142 109.983 74.0653C109.83 73.7541 109.36 73.5985 109.204 73.2865C109.134 73.1697 109.107 73.0319 109.127 72.8971C109.204 72.7438 109.439 72.6633 109.595 72.5859C109.647 72.5453 109.69 72.4947 109.721 72.4373C109.753 72.3798 109.773 72.3166 109.78 72.2513C109.788 72.186 109.782 72.12 109.763 72.057C109.744 71.994 109.713 71.9354 109.672 71.8846L109.438 71.6508C109.183 71.2943 109.495 71.0375 109.807 70.7938C110.102 70.6499 110.41 70.5334 110.726 70.4458C111.052 70.6896 111.448 70.8204 111.855 70.8182C112.262 70.8159 112.657 70.6809 112.98 70.4335C112.903 70.5262 112.846 70.6337 112.812 70.7493C112.779 70.8649 112.769 70.9862 112.784 71.1058C112.996 71.7412 113.432 71.7535 113.874 72.1965C113.987 72.2879 114.064 72.4159 114.092 72.5582C114.12 72.7005 114.097 72.8481 114.028 72.9753C113.841 73.1912 113.599 73.3525 113.327 73.4421C113.217 73.4758 113.117 73.5361 113.035 73.6176C112.954 73.6991 112.893 73.7994 112.86 73.9097C112.763 74.0166 112.708 74.155 112.706 74.2991C112.706 74.4524 112.86 74.5329 112.94 74.6103C113.17 74.7636 113.485 74.7636 113.796 74.9223C114.108 75.081 114.264 75.3891 114.108 75.6229C113.897 75.9403 113.485 75.859 113.485 76.0123C113.485 76.2423 114.285 76.6378 115.198 76.2461C115.981 75.7249 114.557 74.8664 115.198 74.4547C115.341 74.3694 115.501 74.3171 115.666 74.3014C116.126 74.3142 116.573 74.1464 116.911 73.8338C117.063 73.6616 117.146 73.4402 117.146 73.211C117.146 72.9819 117.063 72.7605 116.911 72.5882C116.758 72.5116 116.6 72.3583 116.682 72.1988L116.758 72.1222C117.163 71.9604 117.725 72.3115 117.959 71.9114C118.56 72.5752 119.485 73.8545 120.015 74.5827C121.806 77.4741 122.445 80.7916 122.018 84.9968H122.02ZM111.383 66.0436C111.752 66.3502 112.927 67.0194 112.629 67.9124C112.616 68.0339 112.632 68.1566 112.674 68.2711C112.91 69.2147 112.883 69.191 113.013 69.2975C112.938 69.4519 112.833 69.59 112.704 69.7039C112.576 69.8178 112.426 69.9052 112.264 69.9612C112.101 70.0171 111.929 70.0405 111.758 70.03C111.586 70.0195 111.419 69.9754 111.264 69.9C111.246 69.8851 111.226 69.872 111.205 69.8609C111.226 69.762 111.221 69.9161 111.221 69.2362C111.221 69.1345 111.18 69.0371 111.109 68.9652C111.037 68.8933 110.939 68.8529 110.838 68.8529C110.608 68.8405 110.39 68.7525 110.216 68.6027C110.042 68.4529 109.923 68.2498 109.877 68.0251C109.755 67.4791 109.758 66.9129 109.883 66.3679C110.009 65.8228 110.255 65.3129 110.604 64.8754C110.715 65.3459 110.991 65.7606 111.383 66.0436ZM105.034 77.9969C106.015 77.0157 105.87 76.2461 106.803 74.4087C106.911 74.4737 107.025 74.5291 107.143 74.5743C107.113 75.6184 107.414 76.6452 108.003 77.5078C108.368 78.2391 107.633 78.607 107.983 78.9949C108.025 79.0416 108.08 79.0769 108.125 79.1221C106.452 80.5091 104.525 81.5572 102.452 82.2082C102.367 81.9774 102.211 81.7796 102.006 81.6433C103.021 80.3448 104.022 79.1444 105.034 77.9969ZM16.1319 73.7541C18.5464 81.854 23.5312 88.3182 27.114 90.8102C31.5529 93.9254 36.4595 94.6267 41.908 92.9128C53.8245 89.1744 64.884 74.6103 68.3886 65.4986C68.3304 64.6946 67.969 63.9428 67.3775 63.3952C66.471 62.6817 65.3362 62.3219 64.1841 62.3826C59.4317 65.8098 57.0194 67.1351 49.3089 68.7694C33.7437 72.031 33.5459 76.995 32.564 76.0123C32.5271 75.9772 32.4977 75.9349 32.4777 75.8881C32.4576 75.8412 32.4472 75.7908 32.4472 75.7398C32.4472 75.6889 32.4576 75.6384 32.4777 75.5916C32.4977 75.5447 32.5271 75.5025 32.564 75.4673C34.0211 73.8035 35.7838 72.4346 37.7565 71.4346C37.1861 67.0892 36.2222 62.8046 34.8766 58.6335C34.7455 58.2411 35.6615 57.8264 35.9153 58.3346C37.1541 62.5196 38.0912 66.7882 38.7192 71.1073C42.0581 69.7036 45.5277 68.634 49.0774 67.9139C57.3804 66.1333 58.8322 64.8723 64.1581 61.3164C64.2541 61.3246 64.3496 61.2959 64.4251 61.2361C64.5006 61.1762 64.5504 61.0898 64.5643 60.9945C64.6749 60.1873 64.8364 59.388 65.048 58.6013C65.5085 57.2316 66.3366 56.0147 67.4419 55.0837C67.6697 54.8723 67.9532 54.7305 68.259 54.6752C68.3633 54.6661 68.4683 54.6803 68.5665 54.7166C68.6647 54.7529 68.7537 54.8105 68.827 54.8852C68.8118 55.0183 68.7561 55.1435 68.6676 55.2439C68.1333 55.8144 67.6974 56.4694 67.3775 57.1825C67.3412 57.2368 67.3197 57.2997 67.3151 57.3649C67.3105 57.4301 67.3231 57.4954 67.3515 57.5543C67.4281 58.4948 68.965 60.0639 71.2102 60.2371C72.1047 60.3038 72.9801 59.6707 73.7443 58.4028C74.1391 57.7459 74.7017 58.1414 74.3575 58.8796C74.0117 59.6772 73.4442 60.3587 72.7224 60.8431C72.0006 61.3275 71.1548 61.5945 70.2857 61.6123C70.1852 61.6114 70.088 61.6486 70.0138 61.7164C69.9395 61.7842 69.8937 61.8777 69.8856 61.9779C69.8833 62.0282 69.891 62.0784 69.9081 62.1258C69.9253 62.1731 69.9516 62.2165 69.9855 62.2537C70.0195 62.2909 70.0604 62.321 70.106 62.3423C70.1516 62.3636 70.201 62.3758 70.2512 62.378C71.5482 62.3891 72.7979 61.8919 73.7328 60.9929C74.5147 60.2846 74.5423 61.0106 74.2104 61.4919C73.687 62.159 73.0094 62.6888 72.2359 63.036C71.4624 63.3832 70.6161 63.5372 69.7699 63.4849C69.6708 63.476 69.5721 63.5059 69.4947 63.5684C69.4173 63.6309 69.3672 63.7211 69.355 63.8198C69.3429 63.9186 69.3696 64.0182 69.4296 64.0976C69.4895 64.177 69.578 64.23 69.6763 64.2453C70.9542 64.3608 72.2331 64.0363 73.3013 63.3255C74.0157 63.0955 74.2295 64.0222 72.665 64.7114C71.6544 65.0905 70.5869 65.296 69.5077 65.3192C69.4438 65.3203 69.3812 65.3374 69.3255 65.3689C69.2699 65.4005 69.2231 65.4454 69.1892 65.4996C69.1554 65.5539 69.1357 65.6157 69.1319 65.6795C69.128 65.7433 69.1402 65.8071 69.1674 65.865C64.6387 77.0241 53.8452 90.4407 42.312 93.9576C37.1448 95.6792 30.9819 95.1963 26.3973 91.8879C22.8229 89.3783 18.2237 84.1391 15.6789 76.3159C15.6712 76.3128 16.0874 73.6644 16.1319 73.7541ZM73.1618 66.1402C73.1618 65.4595 74.4028 65.632 74.1636 66.3464C71.7352 84.53 70.679 84.8412 69.927 88.0392C69.8844 88.1603 69.7955 88.2594 69.6797 88.3149C69.564 88.3704 69.431 88.3777 69.3099 88.3351C69.1889 88.2925 69.0897 88.2035 69.0342 88.0878C68.9787 87.9721 68.9715 87.8391 69.0141 87.718C71.3481 80.0765 72.0748 74.8027 73.1579 66.1402H73.1618ZM69.0225 89.7639C69.7085 89.7532 70.3547 93.1719 70.5303 94.1837L65.5815 96.2533C66.2063 94.741 68.3326 89.7754 69.0156 89.7639H69.0225ZM108.14 46.5132C108.523 46.6363 108.875 46.8384 109.174 47.1063C109.474 47.3742 109.714 47.702 109.879 48.0684C110.198 48.707 112.782 54.6453 105.228 66.223C102.517 70.3699 99.2491 74.9384 94.8231 76.6654C92.742 77.4365 90.749 77.225 89.5341 76.0522C88.8648 75.4031 88.3899 74.5802 88.1628 73.6759C87.0505 68.8514 89.3854 63.5807 91.8459 59.2736C93.1444 60.1267 95.0654 60.5575 96.1155 59.4215C96.4033 59.042 96.5495 58.5738 96.5287 58.098C96.508 57.6221 96.3217 57.1684 96.0021 56.8153C95.4514 56.2708 94.831 55.8017 94.157 55.4202C96.9173 51.3139 104.147 45.2898 108.133 46.5132H108.14ZM93.7354 56.0603C94.3579 56.4086 94.931 56.8386 95.4394 57.3389C95.6356 57.553 95.7513 57.8285 95.767 58.1184C95.7827 58.4083 95.6972 58.6947 95.5253 58.9287C94.7381 59.7764 93.0808 59.1709 92.2254 58.6006C92.5113 58.11 93.5162 56.4106 93.7354 56.0603ZM72.2519 45.7022C72.4283 45.2307 72.7604 44.8336 73.1932 44.5766C73.626 44.3196 74.1336 44.218 74.632 44.2887C80.4752 48.1832 87.4022 50.1258 94.4184 49.8376C95.8614 49.7986 97.2997 49.6543 98.7217 49.406C96.1775 51.4235 94.0448 53.9113 92.44 56.7341C90.6187 59.8945 88.9063 62.795 87.9451 66.0037C86.0287 59.4461 77.9802 50.5198 72.5524 48.3383C72.3661 48.1888 71.4601 47.3502 72.2519 45.7022ZM77.2987 52.3771L73.9061 57.3389C73.7318 57.3904 73.5694 57.4758 73.4283 57.5903C73.2871 57.7047 73.17 57.8459 73.0836 58.0058C72.6627 58.7056 72.0104 59.5327 71.2646 59.4714C70.6081 59.469 69.9655 59.2824 69.4099 58.9327C68.8543 58.5831 68.408 58.0845 68.1218 57.4937C68.1149 57.4171 67.8029 57.9115 73.4477 49.6444C74.8153 50.4309 76.1048 51.3459 77.2987 52.3771ZM53.8651 43.086C53.9317 43.1255 54.0086 43.1439 54.0858 43.1388C54.163 43.1337 54.2369 43.1054 54.2977 43.0575C54.3585 43.0097 54.4034 42.9445 54.4265 42.8706C54.4495 42.7968 54.4497 42.7177 54.427 42.6437C53.8283 40.6952 54.1441 38.5044 54.4316 36.5598C54.4741 36.4569 54.4948 36.3463 54.4924 36.2349C54.4899 36.1236 54.4644 36.014 54.4173 35.9131C54.3702 35.8122 54.3027 35.7222 54.219 35.6488C54.1353 35.5753 54.0372 35.5201 53.931 35.4866C52.0584 34.4832 51.2428 32.6336 51.6314 30.2857C51.7549 29.6119 52.26 28.6354 53.0005 28.5733C53.7187 28.512 54.2392 29.2164 54.3036 29.9592C54.4523 30.9963 54.1395 32.0104 54.3036 33.0835C54.5788 34.7339 55.1222 35.0995 55.53 35.1156C55.6213 35.1197 55.7124 35.1053 55.798 35.0735C55.8836 35.0416 55.9619 34.9928 56.0283 34.9301C56.0682 35.3341 56.2226 35.7183 56.4732 36.0376C56.7238 36.357 57.0604 36.5982 57.4433 36.733C57.8189 36.861 58.2742 36.6418 58.2589 35.9665C58.1745 32.245 59.102 30.6084 60.0043 29.1827C60.2196 30.1684 61.2798 30.3976 62.0969 29.5759C62.1774 29.5069 62.2502 29.4364 62.3268 29.3643C62.3072 29.6704 62.3912 29.9743 62.5653 30.2268C62.7394 30.4793 62.9935 30.6659 63.2865 30.7564C63.8088 30.8188 64.3358 30.6873 64.7675 30.3869C64.7756 30.5492 64.7961 30.7106 64.8288 30.8698C64.9146 31.1331 65.0724 31.3671 65.2843 31.5453C65.4963 31.7235 65.7538 31.8389 66.0279 31.8783C66.302 31.9177 66.5817 31.8796 66.8352 31.7683C67.0888 31.657 67.3061 31.4769 67.4626 31.2485C67.4783 31.5782 67.5875 31.8966 67.7776 32.1664C67.9676 32.4363 68.2306 32.6465 68.5357 32.7723C68.8349 32.8448 69.149 32.826 69.4374 32.7184C69.7258 32.6107 69.9754 32.4191 70.1539 32.1683C70.4528 33.42 71.5681 33.4714 72.0281 32.9295C71.96 34.5036 71.654 36.0584 71.1205 37.5409C69.7791 41.0777 66.959 45.0092 63.0206 44.0825C62.8672 44.0825 62.5537 44.1591 62.5537 44.3125L62.0862 46.8826C62.0095 47.3502 62.7868 47.584 62.8649 47.1126L62.9945 46.402C63.9488 46.8665 64.9108 47.3878 65.8805 47.9473C65.874 47.9551 65.8681 47.9633 65.8629 47.9719C63.8124 52.6669 58.8315 53.4725 54.5297 51.1338C52.8269 50.2135 51.33 48.9552 50.1307 47.436C48.9314 45.9168 48.0549 44.1687 47.555 42.2988C50.1612 42.5395 51.0282 42.7472 51.2574 42.7426C51.3041 42.7807 51.3593 42.8071 51.4184 42.8194C51.4774 42.8318 51.5385 42.8299 51.5967 42.8137C51.6548 42.7976 51.7082 42.7677 51.7524 42.7267C51.7966 42.6856 51.8303 42.6346 51.8507 42.5778C51.9342 42.3478 52.0093 42.1179 52.0891 41.8879C52.6577 42.3209 53.2507 42.7209 53.8651 43.086ZM101.046 83.8164C100.699 84.1598 100.19 83.1947 100.482 82.9027C100.78 82.6395 101.103 82.4044 101.444 82.2005C101.733 82.3393 101.751 82.5117 101.743 82.606C101.601 83.0553 101.363 83.4683 101.046 83.8164ZM106.194 81.401C106.816 81.0464 107.415 80.6526 107.988 80.2221C107.827 80.6529 107.656 81.1527 107.492 81.6525L106.194 81.401ZM142.62 107.244C142.62 115.621 128.852 122.436 111.928 122.436C95.0048 122.436 81.2364 115.621 81.2364 107.244C81.2364 99.8982 91.8214 93.7529 105.837 92.3517C105.804 92.9128 105.777 93.4754 105.776 94.0503C95.4923 95.3005 87.8684 99.7288 87.8684 104.985C87.8684 111.208 98.5569 116.271 111.694 116.271C124.832 116.271 135.521 111.212 135.521 104.985C135.521 99.8399 128.207 95.4914 118.253 94.1369V92.3739C132.155 93.8219 142.62 99.938 142.62 107.244ZM113.484 93.733C112.096 93.6839 111.458 93.6977 110.861 93.7077C111.071 92.702 110.938 93.2807 111.252 92.0589C111.702 92.0535 111.88 92.0389 113.216 92.0665C113.26 92.3203 113.369 92.8975 113.484 93.733ZM105.801 94.8138C105.824 95.4216 105.861 96.2541 105.933 96.9133C100.144 97.9573 96.1216 100.581 96.1216 103.739C96.1216 107.84 102.892 111.054 111.537 111.054C120.181 111.054 126.951 107.84 126.951 103.739C126.951 100.79 123.442 98.3084 118.264 97.1417C118.269 96.3951 118.269 95.6485 118.264 94.9019C127.787 96.1966 134.752 100.225 134.752 104.985C134.752 110.785 124.404 115.505 111.693 115.505C98.9816 115.505 88.6334 110.785 88.6334 104.985C88.6349 100.113 95.9323 96.0057 105.801 94.8138ZM117.471 100.053C117.514 100.418 117.564 100.783 117.624 101.142C117.609 101.433 116.817 101.634 116.566 101.164C116.566 101.164 116.307 100.321 116.294 100.275C116.699 100.301 117.103 100.225 117.471 100.053ZM115.121 99.6107C115.14 99.7277 115.193 99.8364 115.274 99.9227C115.464 100.113 115.269 99.5847 115.843 101.439L115.851 101.45C116.056 101.965 116.135 102.522 116.081 103.073C115.978 103.406 115.978 103.762 116.081 104.094C116.164 104.29 116.303 104.457 116.482 104.573C116.66 104.689 116.87 104.749 117.082 104.745C117.72 105.663 118.667 106.319 119.75 106.595C120.615 106.88 121.151 106.22 120.952 105.604C120.919 105.354 120.8 105.124 120.615 104.953C119.644 103.787 118.887 102.459 118.379 101.03C118.293 100.503 118.23 99.961 118.172 99.4237C118.259 99.2949 118.238 99.1271 118.254 97.9259C122.959 99.0167 126.186 101.21 126.186 103.739C126.186 107.35 119.615 110.287 111.538 110.287C103.461 110.287 96.8889 107.35 96.8889 103.739C96.8889 101.011 100.645 98.6694 105.959 97.6837C105.898 98.2611 105.996 98.8441 106.241 99.37C106.318 99.4467 106.308 99.2428 106.325 101.007C106.318 101.295 106.227 101.575 106.063 101.811C104.314 103.386 103.097 103.302 102.891 104.146C102.788 104.556 102.991 104.934 103.802 104.971C104.814 105.024 105.826 104.851 106.763 104.464C106.796 104.523 106.844 104.573 106.903 104.608C106.962 104.642 107.029 104.661 107.098 104.661C107.383 104.672 107.669 104.645 107.948 104.579C108.091 104.563 108.224 104.497 108.323 104.392C108.422 104.288 108.482 104.152 108.491 104.008C108.595 102.681 108.832 101.368 109.199 100.088C109.338 99.9643 109.423 99.7901 109.434 99.6038C109.649 98.7882 109.86 97.9987 110.062 97.2169C111.471 97.1525 112.883 97.1814 114.288 97.3035C114.534 98.0915 114.805 98.8641 115.121 99.6107ZM108.153 101.136C107.911 101.411 107.093 101.403 107.093 101.009L107.072 99.9587C107.465 100.184 107.914 100.292 108.366 100.27L108.153 101.136ZM114.046 96.5255C112.784 96.4224 111.516 96.3986 110.251 96.4542C110.584 95.1058 110.421 95.8172 110.703 94.4757C111.599 94.4581 112.363 94.4566 113.6 94.5033C113.719 95.1817 113.862 95.8578 114.046 96.5255ZM111.453 91.2877C111.864 89.6995 112.272 88.112 112.555 86.5245C112.46 87.9441 112.68 88.9115 113.092 91.2962C111.74 91.2739 111.852 91.2877 111.453 91.2877ZM118.428 83.8087C118.404 83.4676 118.369 83.1265 118.317 82.7861C118.253 82.4029 117.603 80.3072 117.469 79.5092C117.556 79.4548 117.641 79.3935 117.726 79.3337C118.663 80.8754 119.473 82.4904 120.149 84.1628L118.428 83.8087ZM121.147 87.5287C121.037 86.9837 121.105 86.4176 121.341 85.9144C121.605 85.8462 121.873 85.795 122.143 85.7611C122.942 87.3439 121.371 88.1082 121.144 87.5317L121.147 87.5287Z" fill="black"/>
<path d="M67.1021 38.4653C67.1977 38.4567 67.2865 38.4125 67.3511 38.3416C67.4157 38.2706 67.4513 38.178 67.4509 38.0821C67.4509 36.549 67.4509 34.9569 67.3743 33.3901C67.3679 33.2889 67.3223 33.1942 67.2471 33.1262C67.1719 33.0582 67.0732 33.0222 66.9718 33.026C66.9216 33.0286 66.8723 33.041 66.8268 33.0626C66.7813 33.0842 66.7405 33.1146 66.7068 33.152C66.673 33.1893 66.647 33.233 66.6301 33.2804C66.6133 33.3279 66.6059 33.3782 66.6085 33.4285C66.6798 34.8534 66.6852 36.3045 66.6852 37.721C66.039 37.7504 65.4031 37.5518 64.8884 37.1599C64.8079 37.1025 64.7082 37.0785 64.6104 37.0928C64.5125 37.1072 64.424 37.1588 64.3633 37.2369C64.3026 37.315 64.2745 37.4135 64.2848 37.5119C64.2951 37.6103 64.343 37.7009 64.4185 37.7647C65.1904 38.3332 66.1509 38.5839 67.1021 38.4653Z" fill="black"/>
<path d="M63.6023 41.4241C63.7035 41.4343 63.8045 41.4039 63.8832 41.3396C63.9619 41.2752 64.0118 41.1823 64.022 41.0811C64.0322 40.98 64.0017 40.8789 63.9374 40.8002C63.8731 40.7215 63.7801 40.6716 63.679 40.6614C63.3677 40.6319 63.0717 40.5126 62.8268 40.3182C62.5819 40.1238 62.3986 39.8625 62.2992 39.5661C62.2009 39.0594 62.245 38.5354 62.4265 38.0522C63.1499 38.7531 63.9681 39.3491 64.8571 39.8229C64.9015 39.8486 64.9507 39.8651 65.0016 39.8714C65.0525 39.8778 65.1042 39.8739 65.1535 39.8599C65.2029 39.8459 65.249 39.8221 65.289 39.79C65.329 39.7579 65.3622 39.718 65.3865 39.6729C65.4108 39.6277 65.4258 39.5781 65.4306 39.527C65.4354 39.4759 65.4299 39.4244 65.4145 39.3755C65.399 39.3265 65.3738 39.2812 65.3405 39.2422C65.3072 39.2032 65.2664 39.1713 65.2205 39.1483C64.2375 38.6274 63.3502 37.9431 62.5966 37.1247C62.5557 37.0797 62.5046 37.0451 62.4476 37.0237C62.3906 37.0024 62.3293 36.9949 62.2689 37.002C62.2084 37.009 62.1505 37.0303 62.0999 37.0642C62.0493 37.0981 62.0076 37.1435 61.978 37.1967C61.532 37.9689 61.3821 38.877 61.5565 39.7516C61.6959 40.2002 61.9642 40.598 62.328 40.8954C62.6917 41.1928 63.1349 41.3766 63.6023 41.4241Z" fill="black"/>
<path d="M101.258 21.4169H103.705C103.687 22.0914 103.656 22.7667 103.594 23.4413C103.605 23.5373 103.65 23.626 103.722 23.6905C103.794 23.7549 103.887 23.7906 103.984 23.7906C104.08 23.7906 104.174 23.7549 104.245 23.6905C104.317 23.626 104.363 23.5373 104.373 23.4413C104.435 22.7667 104.466 22.0914 104.484 21.4169H107.099C107.202 21.4169 107.301 21.3758 107.374 21.3028C107.447 21.2298 107.488 21.1307 107.488 21.0275C107.488 20.9242 107.447 20.8251 107.374 20.7521C107.301 20.6791 107.202 20.6381 107.099 20.6381H104.499C104.499 19.8593 104.469 19.0805 104.451 18.3009C104.441 17.8341 103.662 17.8341 103.673 18.3009C103.69 19.0805 103.724 19.8593 103.72 20.6381H101.258C101.155 20.6381 101.056 20.6791 100.983 20.7521C100.91 20.8251 100.869 20.9242 100.869 21.0275C100.869 21.1307 100.91 21.2298 100.983 21.3028C101.056 21.3758 101.155 21.4169 101.258 21.4169Z" fill="black"/>
<path d="M129.374 36.6815C132.458 34.2585 129.936 29.5068 126.552 30.4627C125.907 30.6551 125.324 31.0147 124.862 31.5049C124.4 31.9951 124.076 32.5986 123.922 33.2544C123.225 36.1304 126.789 38.2322 129.374 36.6815ZM127.116 31.23L127.128 31.2223C127.72 31.1547 128.316 31.2981 128.813 31.6272C129.309 31.9563 129.673 32.45 129.841 33.0213C130.011 33.5012 130.036 34.02 129.915 34.5142C129.794 35.0084 129.531 35.4565 129.16 35.8037C128.788 36.1508 128.322 36.382 127.821 36.4687C127.32 36.5555 126.804 36.4941 126.337 36.2921C125.834 36.1208 125.397 35.7953 125.09 35.3618C124.782 34.9284 124.619 34.4091 124.623 33.8776C124.662 33.2141 124.933 32.5856 125.389 32.1017C125.845 31.6178 126.456 31.3093 127.116 31.23Z" fill="black"/>
<path d="M135.446 21.5724C135.537 21.6075 135.636 21.6167 135.732 21.5988C135.829 21.5809 135.918 21.5368 135.991 21.4712C137.37 21.3892 138.742 21.2497 140.118 21.1048C140.56 21.1048 140.574 20.5598 140.43 20.5598L138.25 16.3539C138.186 16.2741 138.1 16.2163 138.002 16.1888C137.904 16.1613 137.8 16.1654 137.705 16.2006C137.537 16.2006 136.066 18.6994 135.29 21.0297C135.241 21.1229 135.231 21.2311 135.26 21.3321C135.288 21.4331 135.355 21.5191 135.446 21.5724ZM137.948 17.3641L139.507 20.372C138.453 20.4418 137.399 20.5384 136.345 20.6487C136.792 19.5127 137.329 18.4144 137.951 17.3641H137.948Z" fill="black"/>
<path d="M34.2013 130.069H31.6357L31.8564 127.763C31.8615 127.713 31.8566 127.662 31.8421 127.614C31.8276 127.566 31.8037 127.521 31.7718 127.482C31.7075 127.403 31.6146 127.354 31.5134 127.343C31.4123 127.333 31.3112 127.364 31.2325 127.428C31.1538 127.492 31.1039 127.585 31.0937 127.686L30.8638 130.063H28.8271C28.7255 130.063 28.628 130.103 28.5561 130.175C28.4842 130.247 28.4438 130.344 28.4438 130.446C28.4438 130.548 28.4842 130.645 28.5561 130.717C28.628 130.789 28.7255 130.829 28.8271 130.829H30.7917L30.5487 133.369C30.5423 133.469 30.5749 133.567 30.6395 133.643C30.7041 133.718 30.7956 133.766 30.8948 133.776C30.9939 133.785 31.0929 133.756 31.1707 133.693C31.2484 133.631 31.2989 133.541 31.3114 133.442L31.5621 130.829H34.2013C34.3029 130.829 34.4004 130.789 34.4723 130.717C34.5441 130.645 34.5845 130.548 34.5845 130.446C34.5845 130.344 34.5441 130.247 34.4723 130.175C34.4004 130.103 34.3029 130.063 34.2013 130.063V130.069Z" fill="black"/>
<path d="M48.3147 134.613C47.7448 134.817 47.2482 135.186 46.8876 135.672C46.527 136.159 46.3184 136.741 46.2882 137.346C46.258 137.95 46.4076 138.55 46.7179 139.07C47.0283 139.59 47.4856 140.006 48.0323 140.267C48.5789 140.527 49.1904 140.62 49.7897 140.533C50.3889 140.446 50.949 140.184 51.3995 139.78C51.8499 139.375 52.1704 138.846 52.3207 138.26C52.471 137.673 52.4443 137.055 52.2439 136.484C51.8813 135.384 49.9466 134.022 48.3147 134.613ZM50.1237 139.672C49.839 139.774 49.5371 139.818 49.2351 139.803C48.9332 139.788 48.6372 139.714 48.364 139.585C48.0907 139.455 47.8457 139.273 47.6428 139.049C47.4399 138.825 47.2831 138.563 47.1813 138.279C47.0796 137.994 47.035 137.692 47.0499 137.39C47.0649 137.088 47.1392 136.792 47.2685 136.519C47.3979 136.246 47.5798 136.001 47.8039 135.798C48.028 135.595 48.2898 135.438 48.5745 135.336C49.1547 135.185 49.7698 135.244 50.3102 135.504C50.8506 135.764 51.2811 136.207 51.5249 136.755C51.6292 137.038 51.6755 137.339 51.6611 137.64C51.6468 137.942 51.572 138.237 51.4413 138.509C51.3106 138.78 51.1266 139.023 50.9003 139.222C50.6739 139.422 50.4098 139.574 50.1237 139.669V139.672Z" fill="black"/>
<path d="M63.399 32.8827C63.7716 32.5508 63.8651 31.4018 63.2128 31.2255C62.5605 31.0492 62.063 32.3753 62.3842 32.8414C62.6532 33.2238 63.0257 33.2139 63.399 32.8827Z" fill="black"/>
<path d="M69.7078 34.8296C70.0803 34.4977 70.1731 33.3487 69.5208 33.1724C68.8684 32.9961 68.371 34.3222 68.6929 34.7882C68.962 35.1707 69.3345 35.1608 69.7078 34.8296Z" fill="black"/>
</svg>
