<svg width="154" height="154" viewBox="0 0 154 154" fill="none" xmlns="http://www.w3.org/2000/svg">
<path fill-rule="evenodd" clip-rule="evenodd" d="M140.126 91.4722C131.778 83.7223 118.348 79.2074 107.248 76.6241C107.767 74.251 108.047 71.832 108.084 69.4032C108.13 69.4034 108.175 69.394 108.217 69.3755C108.26 69.3571 108.297 69.33 108.328 69.2961C108.359 69.2621 108.383 69.2221 108.398 69.1785C108.412 69.1349 108.418 69.0887 108.413 69.0429C108.114 65.7774 107.218 59.921 105.761 56.9391C102.657 50.569 97.3981 46.4067 90.9897 43.6701C85.9765 41.5391 80.258 41.3705 78.4183 40.9259C78.0632 40.1328 77.918 39.2616 77.9967 38.3962C79.1996 37.6765 80.1607 36.6147 80.7573 35.3463C81.354 34.0779 81.5591 32.6605 81.3465 31.275C81.6188 31.1097 81.8754 30.9198 82.1131 30.7077C82.1639 30.7346 82.2204 30.7486 82.2779 30.7486C82.3353 30.7486 82.3919 30.7346 82.4427 30.7077C83.2123 30.3505 83.893 29.8268 84.4357 29.1746C85.3479 27.9558 84.7193 27.4346 84.8573 25.8171C84.8702 25.4783 84.9483 25.1452 85.0873 24.836C86.789 21.4401 87.1186 19.6311 86.3368 15.7217C86.0148 14.1196 84.4664 13.9586 83.7458 13.2304C83.0253 12.5022 83.1786 10.9767 81.9444 10.2332C80.139 9.13019 78.1543 8.35188 76.0803 7.93354C70.7988 7.02901 70.4155 10.5858 67.1423 10.5168C64.9193 10.4708 63.026 9.29033 59.9214 11.7893C58.959 12.5235 58.1726 13.4633 57.6196 14.5401C57.0666 15.617 56.7609 16.8037 56.7249 18.0137C56.8016 19.953 58.2964 22.0457 58.35 23.9161C58.396 25.4492 57.7444 27.2736 58.6796 28.5154C59.0859 29.052 59.6915 29.4583 59.8908 30.0485C60.3337 30.5767 60.85 31.0388 61.4239 31.4206C61.4758 31.44 61.533 31.44 61.5849 31.4206C62.31 32.0236 63.1614 32.4558 64.0761 32.6854C64.7523 34.9132 66.0888 36.8832 67.9089 38.3349C67.6625 39.106 67.3629 39.859 67.012 40.5886C66.4896 40.8329 65.9456 41.0279 65.387 41.1711C59.3465 42.8806 53.9577 43.0799 47.0817 49.0589C42.2556 53.1565 38.8549 58.6803 37.3695 64.8345C36.9421 66.6442 36.7108 68.4946 36.6797 70.3537C36.6797 71.1969 36.6797 71.3885 37.6838 71.4039C37.8446 73.5692 38.183 75.7177 38.6957 77.8276C19.8615 83.569 1.19605 95.4122 4.14727 114.883C6.75354 132.046 31.1222 139.68 48.2239 142.777C64.497 145.595 81.0635 146.322 97.5207 144.939C110.728 143.805 122.273 141.275 129.57 137.595C149.815 127.308 156.836 107.018 140.126 91.4722ZM106.919 76.2791C105.615 80.8784 102.565 82.2812 97.9117 83.2931C94.5925 84.0596 90.3458 82.3119 87.8162 80.0352C84.842 77.36 75.6357 66.5056 73.934 64.9265C73.5354 63.5544 72.8072 56.4945 73.1138 54.9614C73.2824 54.7774 73.3207 54.8311 73.4281 54.9614C73.7193 55.3217 73.6964 55.3906 75.973 62.0366C75.9986 62.1119 76.0488 62.1764 76.1156 62.2195C76.1824 62.2627 76.2618 62.2819 76.3409 62.2743C82.78 61.592 91.672 65.4018 93.3047 67.7321C93.3465 67.7717 93.3959 67.8023 93.4499 67.8221C93.504 67.8419 93.5615 67.8504 93.619 67.8471C95.865 67.8471 105.547 68.123 107.754 69.3802V69.4338C107.679 71.7359 107.399 74.0266 106.919 76.2791ZM126.259 102.235C129.423 102.178 132.562 102.811 135.457 104.09C143.621 108.053 137.542 114.591 126.259 114.584C126.171 114.578 126.085 114.605 126.017 114.661C125.949 114.716 125.905 114.795 125.893 114.882C125.882 114.968 125.903 115.056 125.954 115.128C126.005 115.199 126.081 115.248 126.167 115.266C129.417 116.186 131.533 117.673 132.299 119.336C132.912 120.731 132.483 122.226 130.912 123.552C126.972 126.902 118.647 127.446 113.082 125.852C113.003 125.83 112.919 125.836 112.844 125.869C112.769 125.901 112.707 125.958 112.669 126.031C112.63 126.103 112.618 126.186 112.633 126.266C112.648 126.347 112.69 126.42 112.752 126.473C114.285 127.799 114.745 129.294 114.132 130.681C111.664 136.269 96.049 137.396 90.1925 132.437C90.1401 132.391 90.0755 132.361 90.0065 132.351C89.9376 132.341 89.8671 132.351 89.8039 132.38C89.7406 132.409 89.6871 132.456 89.65 132.515C89.6128 132.574 89.5936 132.643 89.5946 132.713C89.5946 138.078 75.6817 140.984 67.4796 137.013C65.18 135.909 63.7312 134.407 63.7312 132.713C63.7309 132.644 63.7113 132.577 63.6745 132.52C63.6377 132.462 63.5854 132.416 63.5235 132.388C63.4617 132.359 63.3929 132.348 63.3251 132.357C63.2574 132.365 63.1935 132.393 63.141 132.437C61.2169 134.062 58.0357 135.104 54.5479 135.503C51.464 135.831 48.3459 135.589 45.3493 134.79C42.0992 133.87 39.9835 132.391 39.2169 130.72C38.6037 129.332 39.033 127.837 40.6044 126.504C40.6655 126.451 40.7068 126.379 40.7213 126.3C40.7358 126.22 40.7227 126.138 40.6842 126.068C40.6456 125.997 40.584 125.941 40.5095 125.91C40.435 125.88 40.3521 125.875 40.2748 125.898C34.7403 127.431 26.4079 126.956 22.4372 123.598C20.9041 122.264 20.4288 120.77 21.042 119.367C21.8086 117.704 23.9166 116.209 27.1744 115.289C27.2553 115.272 27.3267 115.224 27.3745 115.157C27.4223 115.089 27.4429 115.006 27.4323 114.924C27.4217 114.842 27.3806 114.767 27.3172 114.714C27.2538 114.661 27.1728 114.633 27.0901 114.637C15.8832 114.637 9.60511 108.122 17.8915 104.097C20.7847 102.811 23.9242 102.172 27.0901 102.227C27.1589 102.23 27.2264 102.208 27.2794 102.164C27.3325 102.12 27.3672 102.058 27.3768 101.99C27.3864 101.922 27.3702 101.852 27.3313 101.795C27.2925 101.739 27.2338 101.698 27.1668 101.683C23.8859 100.763 21.7319 99.2603 20.9884 97.5739C20.3521 96.1481 20.7814 94.615 22.3835 93.2506C24.8748 91.1272 29.0448 90.2533 32.3486 90.077C31.1429 91.7755 30.5239 93.8208 30.5856 95.9028C30.7312 99.4213 34.3263 102.288 37.3236 104.166C36.4937 105.801 36.2502 107.671 36.6337 109.463C37.6608 114.538 44.5905 117.343 49.527 118.8C49.0748 120.915 48.0706 133.127 50.1173 132.881C52.5932 132.59 53.4288 125.001 56.2497 123.598C56.6329 123.414 59.5075 122.678 63.8615 121.506C74.0533 122.611 84.3357 122.593 94.5235 121.452C96.4246 121.835 97.5897 122.073 97.858 122.173C100.786 123.384 102.112 130.911 104.596 131.041C106.466 131.141 105.087 121.245 104.78 119.382C113.687 116.485 120.809 109.294 114.745 102.265C117.666 100.272 121.322 97.229 121.644 93.7105C121.725 92.495 121.542 91.2763 121.107 90.1384C124.373 90.3223 128.482 91.1962 130.942 93.2889C132.521 94.638 132.958 96.1481 132.33 97.5586C131.563 99.2297 129.448 100.717 126.197 101.637C126.139 101.666 126.092 101.712 126.06 101.77C126.029 101.827 126.016 101.892 126.023 101.957C126.029 102.021 126.055 102.083 126.098 102.132C126.14 102.182 126.196 102.217 126.259 102.235ZM43.8316 83.9676C42.5775 84.0247 41.3346 84.2305 40.1291 84.5809C40.7585 83.9852 41.4712 83.4843 42.2448 83.0938C42.7433 83.4372 43.2749 83.7299 43.8316 83.9676ZM53.1145 115.925C54.4866 117.749 54.9849 119.099 57.3075 122.678C56.541 122.893 56.1194 123.031 55.9814 123.1C52.9995 124.633 52.0643 132.161 50.0023 132.429C49.8183 132.429 49.642 131.915 49.596 131.731C48.8755 129.179 49.2357 121.092 49.7647 118.7C49.826 118.386 52.8385 116.132 53.1145 115.925ZM114.216 102.533C119.95 109.248 113.028 115.902 104.573 118.631C104.435 117.864 104.289 117.221 104.167 116.791C103.952 116.078 97.4747 111.962 96.6545 111.425C90.5401 114.014 84.2423 116.146 77.8127 117.803C87.1263 119.911 86.5821 119.566 86.2908 119.727C88.4908 120.187 90.4685 120.586 92.1319 120.915C83.3534 121.732 74.5181 121.732 65.7396 120.915C79.3688 117.228 102.473 110.345 114.216 102.533ZM102.059 115.458C102.711 115.879 103.322 116.361 103.883 116.899C104.55 119.198 105.661 128.826 104.696 130.444C104.65 130.528 104.604 130.589 104.535 130.589C102.434 130.459 100.901 122.594 97.881 121.636C99.4218 119.643 100.702 117.466 102.089 115.458H102.059ZM102.726 82.8178C95.7883 85.1175 54.1647 113.947 49.8337 118.14C45.1424 116.784 38.1744 114.085 37.1932 109.287C36.839 107.663 37.0499 105.968 37.7912 104.481C43.2183 107.746 50.7228 110.421 56.7709 112.315C68.5221 103.369 69.9173 102.143 75.1681 98.4324C69.534 95.1439 56.8553 87.8617 50.8608 85.2708C51.5331 85.1971 52.1976 85.0637 52.8462 84.8722V85.8074L53.5667 86.1523V84.6192C55.5733 83.908 57.4033 82.7734 58.9326 81.2924C60.803 79.4373 65.341 73.6882 67.1117 71.4652C67.2884 71.5213 67.4772 71.5273 67.6572 71.4827C67.8371 71.438 68.0012 71.3444 68.1312 71.2122C68.6238 70.7146 69.0467 70.1524 69.3883 69.5412C69.4707 69.4082 69.5105 69.2532 69.5023 69.097C69.4941 68.9408 69.4383 68.7909 69.3423 68.6673C72.3626 64.8959 72.0559 65.5014 72.1556 65.2485C72.3965 63.752 72.5374 62.2411 72.5772 60.7258C72.7065 62.2379 72.9422 63.7389 73.2824 65.2178C73.3077 65.286 73.3499 65.3467 73.4051 65.3941C74.5626 66.4366 80.442 73.2743 84.451 77.5669C87.0113 80.3112 88.7361 82.1662 92.3312 83.3697C93.9016 83.9318 95.5766 84.1412 97.2371 83.983C97.2371 84.4429 97.2908 84.8568 97.3061 85.2094L98.0037 84.8875C98.0037 84.8338 98.0036 84.1746 97.9423 83.8603C100.142 83.3851 102.588 82.6415 104.32 81.2464C105.574 81.386 106.815 81.6269 108.03 81.9669C106.236 81.967 104.453 82.2649 102.756 82.8485L102.726 82.8178ZM68.8441 68.1997C67.311 67.0116 67.1653 67.2415 66.2302 65.7544C66.4768 65.5945 66.6881 65.3858 66.8511 65.1412C67.2364 64.2996 67.3974 63.3728 67.3187 62.4506C67.8676 62.4199 68.4178 62.4199 68.9667 62.4506C69.0463 62.4533 69.1245 62.4291 69.1885 62.3817C69.2525 62.3344 69.2986 62.2668 69.3194 62.19C71.3124 55.107 71.3584 54.5245 71.78 54.9614C72.1786 56.4945 71.826 63.5774 71.5117 64.9802C71.0748 65.4325 70.0936 66.6359 68.8441 68.1997ZM66.6441 62.6499C66.6317 63.0665 66.5881 63.4816 66.5138 63.8917C65.7386 64.2714 64.8857 64.4656 64.0225 64.4589C63.3246 64.4746 62.6294 64.3682 61.9681 64.1446C62.0675 63.631 62.271 63.1432 62.566 62.7112C63.8539 61.9907 65.8699 61.3851 66.6441 62.6499ZM58.327 43.6088C61.0099 42.8422 65.6859 41.8534 67.058 41.2478C67.495 41.0562 67.6329 41.1175 68.5911 38.3272C68.6091 38.2691 68.6084 38.2068 68.5892 38.149C68.5699 38.0913 68.5331 38.041 68.4838 38.0053C66.6364 36.6187 65.278 34.6804 64.6051 32.4708C64.4671 31.9649 62.4051 32.0569 61.5389 30.4318C61.2183 29.5571 61.2513 28.5919 61.6309 27.7412C61.704 27.5909 61.8205 27.4661 61.9654 27.3827C62.1102 27.2993 62.2767 27.2613 62.4434 27.2736C62.7986 27.3325 63.1304 27.4891 63.4016 27.7259C63.5319 27.8408 63.9458 27.7259 64.0838 26.9593C64.3214 25.6945 63.6699 21.5321 64.3214 19.2938C64.881 17.3544 66.4371 16.9942 68.1542 17.8144C70.7605 19.0638 71.1437 20.7503 75.3751 21.6471C76.3286 21.8451 77.2989 21.9504 78.2727 21.9614C78.6713 21.9614 80.0127 21.4785 80.4343 21.5245C80.7333 22.0381 80.2963 24.698 80.6643 25.4185C80.7266 25.5585 80.8259 25.6789 80.9515 25.7667C81.0771 25.8545 81.2243 25.9064 81.3772 25.9168C81.6349 25.9156 81.8919 25.8873 82.1437 25.8325C82.2127 25.8325 82.4274 25.7788 82.4733 25.8325C82.7081 26.0838 82.8906 26.3792 83.0104 26.7016C83.1301 27.024 83.1847 27.3669 83.1709 27.7105C83.2169 28.8527 82.0441 30.1941 82.0134 30.3628C81.3005 31.045 81.0399 30.9837 81.0629 31.206C81.5995 36.5718 77.7437 37.783 77.6824 38.2506C77.5666 39.2503 77.7256 40.2627 78.1423 41.1788C78.4566 41.815 85.095 41.6541 90.8747 44.153C97.2678 46.9126 102.373 51.052 105.301 57.1844C106.673 60.0436 107.486 65.5321 107.808 68.6826C105.416 68.399 105.907 67.6171 93.7723 67.3028C93.3615 66.8171 92.8871 66.3891 92.3618 66.0304C92.3347 64.7226 92.1936 63.4196 91.9402 62.1363C91.8636 60.6645 90.9054 56.8394 90.5298 56.5175C90.4071 56.3795 90.2002 56.5635 90.3075 56.7091C90.3841 56.7091 90.7368 60.3579 91.9556 65.7544C88.1228 63.1788 81.6761 61.1551 76.6246 61.5307C74.3556 54.9844 74.4246 55.2527 74.1793 54.7851C73.934 54.3175 73.6197 54.0185 73.1521 54.1182C72.9963 54.1513 72.8509 54.2216 72.7281 54.323C72.6053 54.4244 72.5088 54.554 72.4469 54.7008C72.3751 54.5515 72.2676 54.4223 72.1339 54.3247C72.0001 54.2271 71.8443 54.164 71.6803 54.1412C71.2127 54.0875 70.9138 54.4478 70.6915 54.9077C70.4692 55.3677 70.5075 55.2833 68.7061 61.8067C68.0667 61.7929 67.427 61.8134 66.7897 61.868C65.5633 60.8562 63.5626 61.661 62.3667 62.5502C62.3016 62.6163 62.2426 62.6881 62.1904 62.7649C59.1399 63.6228 56.2556 64.9885 53.6587 66.8046C53.7661 66.1837 53.881 65.6011 54.0343 64.5433C54.3939 62.5135 54.6497 60.4667 54.8009 58.4109C54.9005 57.4373 54.6629 57.1614 54.387 58.2652C53.6642 61.1479 53.2986 64.1086 53.2985 67.0805C52.7889 67.4636 52.3371 67.918 51.957 68.4297C49.1514 68.675 40.934 69.2805 38.3277 70.6987C38.0291 70.7184 37.7295 70.7184 37.4309 70.6987C36.7333 60.1049 46.0852 46.9969 58.327 43.6088ZM37.9828 71.2429C39.6002 69.7635 49.0978 69.1426 51.2518 69.0122C50.5357 69.5004 49.9618 70.1696 49.5884 70.9516C49.5884 71.0436 49.458 71.2659 49.5884 71.3119C49.7187 71.3579 50.2399 70.8673 50.3089 70.806C52.6852 68.9203 52.8998 66.8122 60.0058 64.114C60.55 63.907 61.1096 63.7154 61.6768 63.5391C61.5879 63.7283 61.5186 63.926 61.4699 64.1293C61.4205 64.1665 61.3813 64.2154 61.3559 64.2717C61.3304 64.3279 61.3195 64.3897 61.3242 64.4513C61.3314 64.9455 61.5262 65.4186 61.8693 65.7745C62.2124 66.1303 62.678 66.3424 63.1716 66.3676C63.3709 66.3676 63.1716 66.2527 63.6086 67.4332C63.7056 67.7015 63.8316 67.9585 63.9842 68.1997C64.6701 69.3082 65.5117 70.3124 66.4831 71.1816C64.8197 73.2743 60.2434 79.077 58.4727 80.8554C56.288 83.0478 52.6699 84.8415 49.5424 84.7572C48.2049 84.3104 46.8117 84.0524 45.403 83.9906C42.2601 83.0708 40.3054 81.4074 39.1939 78.1572C38.5628 75.8981 38.1571 73.582 37.9828 71.2429ZM129.264 136.952C106.88 148.205 44.5291 148.35 17.5236 131.463C10.5403 127.086 5.86434 121.575 4.8295 114.775C1.90128 95.6805 20.4825 84.0366 38.849 78.3565C39.3838 80.134 40.4547 81.7029 41.9152 82.8485C40.9531 83.3396 40.0943 84.011 39.3856 84.8262C36.732 85.7106 34.3951 87.352 32.6629 89.5481C29.1751 89.6784 24.7061 90.5676 22.0385 92.8213C20.2065 94.3544 19.7389 96.1328 20.5054 97.7502C21.272 99.3676 22.8818 100.678 25.4957 101.675C13.9361 102.327 9.54378 109.409 17.6156 113.334C20.0298 114.435 22.631 115.067 25.2811 115.197C22.7591 116.193 21.111 117.581 20.4595 119.03C19.6929 120.678 20.1682 122.471 21.9926 124.058C25.948 127.416 33.7821 128.021 39.2399 126.825C38.7418 127.375 38.4136 128.057 38.2952 128.789C38.1768 129.521 38.2733 130.271 38.573 130.949C39.3396 132.751 41.6392 134.414 45.1424 135.411C51.957 137.343 59.5612 135.932 63.1026 133.372C64.2295 139.152 78.1117 141.551 86.1911 137.641C88.4908 136.538 89.9549 135.028 90.2768 133.372C93.8566 135.963 101.491 137.32 108.237 135.411C111.756 134.422 114.017 132.751 114.814 130.949C115.112 130.272 115.208 129.523 115.089 128.793C114.971 128.062 114.644 127.382 114.147 126.833C119.582 128.021 127.432 127.423 131.395 124.058C133.257 122.479 133.694 120.678 132.928 119.022C132.276 117.558 130.628 116.178 128.167 115.189C130.79 115.046 133.363 114.417 135.756 113.334C143.843 109.409 139.451 102.357 128.091 101.621C130.613 100.625 132.268 99.2297 132.92 97.7502C133.641 96.1098 133.196 94.3237 131.349 92.76C128.727 90.5446 124.365 89.6324 120.87 89.4791C119.068 85.4624 114.737 82.7488 110.084 82.1203C108.403 81.4588 106.643 81.0182 104.849 80.8094C105.937 79.7274 106.729 78.3839 107.149 76.9077C118.095 79.537 131.548 84.1133 139.773 91.8248C156.154 107.186 149.094 126.994 129.264 136.952Z" fill="black"/>
<path fill-rule="evenodd" clip-rule="evenodd" d="M54.8394 86.6812C60.4122 89.2875 67.0505 92.3997 73.4589 96.6464C74.1794 97.1217 74.992 97.5509 75.7585 98.0339C82.0747 93.4992 88.7388 89.47 95.6888 85.9837C87.571 85.4471 63.2944 86.3516 54.8394 86.6812ZM72.1327 31.6583C72.4824 31.8561 72.876 31.9632 73.2777 31.9699C73.6794 31.9766 74.0763 31.8826 74.4324 31.6966C74.504 31.6398 74.5507 31.5573 74.5627 31.4667C74.5433 30.7041 74.4742 29.9436 74.3557 29.19C74.2166 28.0853 73.9437 27.0017 73.5432 25.9628C73.533 25.9252 73.5083 25.8932 73.4745 25.8738C73.4408 25.8544 73.4007 25.8492 73.363 25.8593C73.3254 25.8695 73.2934 25.8942 73.274 25.928C73.2546 25.9618 73.2494 26.0019 73.2596 26.0395C73.3669 26.737 73.7655 30.4548 73.8881 31.229C73.3661 31.4439 72.7905 31.4921 72.24 31.367C72.2209 31.36 72.2006 31.3567 72.1802 31.3576C72.1599 31.3584 72.1398 31.3632 72.1213 31.3717C72.1028 31.3803 72.0862 31.3924 72.0724 31.4073C72.0585 31.4223 72.0478 31.4399 72.0407 31.459C72.0337 31.4781 72.0305 31.4984 72.0313 31.5188C72.0321 31.5392 72.0369 31.5592 72.0455 31.5777C72.054 31.5962 72.0661 31.6128 72.0811 31.6267C72.096 31.6405 72.1136 31.6512 72.1327 31.6583ZM73.8728 31.3133V31.3977C73.8728 31.3977 73.8651 31.321 73.8728 31.3133ZM69.2275 28.3468C69.5553 28.2166 69.8547 28.024 70.109 27.7795C70.1368 27.7572 70.1555 27.7255 70.1614 27.6903C70.1674 27.6552 70.1602 27.619 70.1413 27.5888C70.1224 27.5586 70.0931 27.5363 70.0589 27.5262C70.0247 27.5162 69.988 27.519 69.9557 27.5342C69.3766 27.6838 68.7828 27.7686 68.185 27.7872C67.5851 27.7764 66.9874 27.7123 66.3989 27.5956C66.3822 27.583 66.363 27.5741 66.3426 27.5696C66.3221 27.5651 66.3009 27.5651 66.2805 27.5695C66.26 27.5739 66.2408 27.5827 66.224 27.5952C66.2072 27.6077 66.1934 27.6237 66.1833 27.6421C66.1733 27.6605 66.1674 27.6808 66.1659 27.7017C66.1645 27.7225 66.1675 27.7435 66.1749 27.7631C66.1822 27.7827 66.1937 27.8005 66.2086 27.8152C66.2234 27.8299 66.2413 27.8413 66.261 27.8485C66.5254 28.0739 66.8296 28.2481 67.1578 28.3621C67.8342 28.5605 68.5541 28.5551 69.2275 28.3468ZM75.6205 27.2736C76.4637 28.3085 78.8094 28.3851 79.3536 27.1126C79.3647 27.097 79.3726 27.0794 79.3768 27.0608C79.3811 27.0421 79.3817 27.0228 79.3784 27.0039C79.3752 26.9851 79.3684 26.967 79.3582 26.9508C79.348 26.9346 79.3347 26.9206 79.3191 26.9095C79.3035 26.8984 79.2859 26.8905 79.2672 26.8863C79.2486 26.882 79.2293 26.8815 79.2104 26.8847C79.1916 26.8879 79.1735 26.8948 79.1573 26.905C79.1411 26.9151 79.1271 26.9284 79.116 26.944C78.8925 27.1116 78.6274 27.215 78.3494 27.243C77.7873 27.3503 77.2099 27.3503 76.6477 27.243C76.3565 27.21 76.0706 27.1405 75.7968 27.036C75.6589 26.8903 75.4749 27.151 75.6205 27.2736ZM71.4658 34.7628C72.0901 34.9926 72.7606 35.0689 73.4205 34.9851C73.8336 34.9768 74.2426 34.9017 74.6317 34.7628C74.6703 34.7628 74.7073 34.7475 74.7347 34.7202C74.762 34.6928 74.7773 34.6558 74.7773 34.6172C74.7773 34.5785 74.762 34.5415 74.7347 34.5142C74.7073 34.4869 74.6703 34.4715 74.6317 34.4715C74.2459 34.355 73.8463 34.2906 73.4435 34.2799C72.7828 34.2317 72.1187 34.2991 71.4812 34.4792C71.4601 34.4732 71.438 34.472 71.4165 34.4757C71.3949 34.4795 71.3745 34.488 71.3567 34.5007C71.3389 34.5134 71.3241 34.5299 71.3136 34.5491C71.3031 34.5683 71.297 34.5896 71.2958 34.6114C71.2946 34.6332 71.2984 34.6551 71.3068 34.6753C71.3152 34.6954 71.328 34.7135 71.3444 34.728C71.3607 34.7426 71.3801 34.7532 71.4011 34.7593C71.4222 34.7653 71.4443 34.7665 71.4658 34.7628Z" fill="black"/>
</svg>
