<svg width="154" height="154" viewBox="0 0 154 154" fill="none" xmlns="http://www.w3.org/2000/svg">
<path d="M150.017 90.1149C146.989 90.7281 141.102 90.4138 139.354 90.1839C139.301 89.5706 139.393 83.6914 139.316 82.3653C139.316 82.2963 139.201 82.258 139.201 82.258C134.865 81.953 130.515 81.866 126.17 81.9973C126.17 76.8462 126.17 71.6338 126.055 66.4291C126.056 66.41 126.052 66.3911 126.044 66.3738C126.036 66.3565 126.024 66.3413 126.009 66.3294C125.994 66.3175 125.977 66.3092 125.958 66.3053C125.94 66.3013 125.92 66.3017 125.902 66.3064C117.922 66.0305 112.104 66.1455 112.058 66.2298C111.974 66.7817 111.836 71.9481 111.882 73.1286C109.54 70.554 106.711 68.4696 103.557 66.9963C102.81 66.7559 102.113 66.3791 101.503 65.8849C101.329 65.7295 101.198 65.5329 101.12 65.3132C101.042 65.0935 101.021 64.8578 101.059 64.6277C101.725 62.0829 105.704 60.7951 106.869 59.9136C107.588 59.4335 108.204 58.8158 108.683 58.0962C109.162 57.3765 109.494 56.5692 109.659 55.7207C109.705 54.9018 109.472 54.0915 109 53.4211C108.502 52.6545 109.291 52.5089 109.835 52.0336C109.331 52.0416 108.835 52.1566 108.379 52.3709C108.554 52.0932 108.654 51.7748 108.668 51.4469C108.683 51.119 108.612 50.7929 108.463 50.5006C108.502 50.7459 108.48 50.9968 108.4 51.2318C108.319 51.4668 108.183 51.6789 108.003 51.8497C108.045 51.2269 107.857 50.6104 107.474 50.1173C105.504 47.5494 101.342 46.9975 98.3297 46.8289C98.4063 40.6967 98.3297 24.7068 98.3297 22.9285C105.228 23.2351 112.127 23.5724 119.087 23.8483C118.597 34.6487 118.474 45.5181 118.788 56.3722C118.789 56.3908 118.795 56.4089 118.804 56.425C118.814 56.441 118.827 56.4545 118.843 56.4643C118.859 56.4741 118.877 56.4799 118.895 56.4812C118.914 56.4825 118.932 56.4793 118.949 56.4719C122.429 56.6022 131.068 56.9011 131.911 56.9241C132.264 61.6843 132.364 66.5287 132.295 71.3656C132.297 71.4008 132.312 71.434 132.338 71.4582C132.363 71.4824 132.397 71.4959 132.433 71.4959C135.901 71.7183 139.38 71.7337 142.85 71.5419C142.965 71.5419 142.972 71.3502 142.85 71.3502C141.094 71.3502 134.242 71.3502 132.571 71.2352C132.697 66.4152 132.564 61.5919 132.172 56.7861C129.022 56.2802 119.992 56.2879 119.018 56.2649C118.804 45.4491 118.857 34.5721 119.356 23.718C119.356 23.6827 119.342 23.6487 119.318 23.6231C119.294 23.5974 119.261 23.582 119.225 23.58C119.149 23.58 98.23 22.7062 98.1534 22.7445C98.1256 22.7501 98.1009 22.7656 98.084 22.7883C98.067 22.8109 98.059 22.839 98.0614 22.8672V46.8366C96.4517 47.0359 97.0649 48.4539 96.6586 49.2435C96.4823 49.5731 96.3367 49.4351 96.0531 49.6267C95.2865 50.125 95.3555 53.4594 95.3862 54.3409C94.6197 56.3262 94.0218 59.193 95.4628 60.7721C95.7158 61.048 96.1604 61.278 96.2984 61.6383C96.324 61.7605 96.3228 61.8868 96.295 62.0085C96.2672 62.1302 96.2135 62.2445 96.1374 62.3435C95.8447 62.8853 95.3958 63.3264 94.8489 63.6094C94.302 63.8924 93.6826 64.0042 93.0713 63.9302C88.2575 63.5469 86.2415 64.2905 85.1913 64.5894C82.0353 66.0203 79.0607 67.8215 76.3302 69.9551C76.2019 70.1033 76.1163 70.2836 76.0825 70.4766C76.0488 70.6697 76.0682 70.8684 76.1386 71.0513C75.3721 71.3656 74.6056 71.8178 73.885 72.1781C73.4328 70.7217 71.3785 63.6926 71.2635 63.386C71.7287 63.0951 72.1239 62.7051 72.4209 62.2438C73.1875 62.2438 73.3561 62.2898 73.4098 62.1748C74 60.8641 74.3833 59.4613 75.0195 58.1659C75.7247 58.1659 82.9684 57.798 85.8736 57.545C85.8736 57.545 89.9668 58.3115 90.1738 58.3805C90.1622 58.5406 90.1871 58.7013 90.2468 58.8503C90.3065 58.9994 90.3993 59.1329 90.5182 59.2407C90.6372 59.3486 90.7791 59.4279 90.9332 59.4728C91.0873 59.5176 91.2497 59.5268 91.4079 59.4997C92.2664 59.4 92.7723 58.6258 93.1173 57.9206C93.5351 57.1202 93.7584 56.2326 93.7688 55.3297C93.7688 53.5667 92.8336 52.9688 92.1131 53.0301C91.9239 53.0216 91.7373 53.0777 91.5841 53.1891C91.4309 53.3005 91.3201 53.4607 91.2699 53.6434C90.7487 53.5514 87.4909 52.9228 87.4373 52.8768C85.6283 50.9758 80.9371 46.8519 80.9371 46.8366C80.8144 42.4903 80.9754 30.8774 81.0214 29.5513C81.0196 29.5153 81.0044 29.4813 80.9789 29.4558C80.9535 29.4303 80.9194 29.4152 80.8834 29.4133C72.076 29.582 69.9067 29.1297 69.9144 29.5283C70.014 31.7436 69.9987 38.3971 69.9604 38.3741C64.2804 34.6104 55.1893 26.0099 55.3426 26.1096C55.2507 25.8106 54.8137 24.6148 54.6834 24.3159C54.6834 24.2699 50.3679 22.9515 49.4557 22.7828C49.0385 22.7779 48.6278 22.8865 48.2676 23.0971C47.1278 23.866 46.1575 24.8598 45.4161 26.0176C38.6246 35.124 36.0721 45.6025 37.4825 54.9541C37.629 56.268 37.9486 57.5567 38.433 58.7868C38.6266 59.1766 38.9145 59.5118 39.2706 59.7622C39.6267 60.0125 40.0396 60.1699 40.4719 60.2202C41.2385 60.3888 44.9561 60.7951 45.8377 60.5805C46.3666 60.2657 46.8784 59.9228 47.3707 59.5533C49.6703 59.5993 56.0708 59.262 56.9907 59.216C56.7684 63.5086 56.799 74.5007 56.845 75.6888C53.2347 75.6121 44.0516 75.6121 43.0475 75.5815C43.0475 73.5118 43.2161 71.2506 43.1241 69.1503C43.0015 68.9586 42.7715 68.951 42.5722 68.9356C40.8475 68.836 33.5732 68.606 31.9251 68.7517C31.5955 68.7517 31.9941 68.652 31.9251 77.5821H19.239C19.2025 77.5821 19.1674 77.5967 19.1415 77.6225C19.1156 77.6484 19.1011 77.6835 19.1011 77.7201C19.1011 83.4921 18.9938 89.3177 19.1011 95.1357H8.06303C8.0366 95.1357 8.01125 95.1462 7.99257 95.1648C7.97388 95.1835 7.96338 95.2089 7.96338 95.2353C7.96338 95.2617 7.97388 95.2871 7.99257 95.3058C8.01125 95.3245 8.0366 95.335 8.06303 95.335C15.5444 95.4269 23.064 95.5036 30.576 95.4729C30.7217 95.4729 30.7677 96.0018 30.7293 85.761C35.3285 85.761 39.9277 85.876 44.5805 85.761C44.5805 89.2104 44.4809 92.6598 44.5269 96.1092C43.1687 95.4752 41.6253 95.3607 40.1883 95.7872C36.8463 96.6687 37.4978 99.1753 37.4058 99.5509C37.2372 100.072 36.7466 99.9341 36.187 100.08C35.5508 100.254 34.9729 100.596 34.5133 101.069C34.0536 101.542 33.729 102.129 33.5732 102.77C32.0401 102.701 31.0743 102.77 30.3307 104.096C29.9237 103.633 29.4171 103.267 28.8488 103.026C28.2804 102.786 27.6651 102.677 27.0488 102.708C26.4325 102.739 25.8312 102.909 25.2898 103.205C24.7485 103.501 24.281 103.916 23.9225 104.418C22.5735 103.974 21.3777 105.185 20.7951 106.404C19.8139 108.496 21.4467 109.654 21.5616 109.96L17.2691 109.907C17.1617 109.907 17.1617 110.068 17.2691 110.075C18.7331 110.075 32.5383 110.604 65.5605 110.129C61.9118 118.116 61.4366 131.592 61.2219 140.33C61.651 140.519 62.0944 140.673 62.548 140.79C62.548 141.38 62.594 141.994 62.594 142.768C61.9118 143.159 59.7732 144.431 59.6582 144.577C59.5432 144.723 59.4512 145.267 59.7962 145.343C61.471 145.388 63.1471 145.342 64.817 145.205C64.7179 143.799 64.9003 142.386 65.3535 141.051C66.3062 141.066 67.2589 141.018 68.205 140.905C73.0725 130.02 73.724 124.425 75.3874 120.684C77.0355 119.45 81.1057 115.073 83.0144 113.325C83.3125 110.427 83.3536 107.508 83.137 104.602C83.137 104.472 83.298 104.357 83.4207 104.602C83.6659 105.116 83.9496 106.979 83.6813 112.022C83.574 114.107 82.8458 118.323 84.6624 123.911C86.2833 128.301 88.8147 132.298 92.0901 135.639L98.4293 142.032C98.8579 141.954 99.2806 141.847 99.6941 141.71C99.7324 141.756 100.898 143.243 100.959 143.243C100.951 143.67 100.818 144.086 100.577 144.438C100.336 144.791 99.9971 145.066 99.6021 145.228C99.3722 145.32 99.4871 145.995 99.6634 145.995C100.48 146.041 101.299 146.041 102.116 145.995C102.76 145.269 103.354 144.501 103.895 143.695C103.895 143.573 102.362 141.557 102.086 140.507C102.391 140.3 102.68 140.072 102.952 139.824C100.114 133.298 97.6122 126.631 95.4552 119.849C96.8579 117.403 99.3645 112.666 99.7171 110.014C116.489 110.781 130.677 111.754 147.043 110.114C147.165 110.114 147.165 109.914 147.043 109.922L145.103 110.091C144.664 108.917 143.971 107.854 143.074 106.978C142.177 106.103 141.098 105.435 139.914 105.024C138.021 104.403 137.676 105.124 137.108 104.349C136.369 103.217 135.275 102.361 133.998 101.914C132.722 101.468 131.333 101.456 130.049 101.881C130.325 98.8687 128.155 96.0478 124.775 96.4311C125.149 95.2456 125.095 93.9666 124.623 92.8167C124.151 91.6669 123.291 90.7189 122.192 90.1379C122.472 89.2517 122.504 88.3059 122.287 87.4024C122.07 86.4989 121.61 85.6717 120.958 85.0098C120.61 84.5488 120.131 84.2044 119.583 84.0223C119.036 83.8402 118.446 83.829 117.892 83.9903C117.095 82.5379 116.116 81.1933 114.979 79.989C115.232 79.6613 115.465 79.3182 115.676 78.9619C114.728 76.8903 113.501 74.9585 112.028 73.2206C112.028 73.2206 112.258 66.8737 112.273 66.3218C115.799 66.2451 124.821 66.5287 125.802 66.5134C125.802 70.5607 125.84 80.9548 125.879 82.1046C125.88 82.1283 125.888 82.1512 125.9 82.1714C125.912 82.1917 125.929 82.2085 125.95 82.2206C125.97 82.2327 125.993 82.2396 126.017 82.2408C126.041 82.242 126.064 82.2373 126.086 82.2273C132.448 82.028 137.637 82.4113 139.078 82.4342C139.078 83.768 138.841 89.7393 139.078 90.3219C139.078 90.3908 141.838 90.9581 147.349 90.6821C147.947 90.6208 150.53 90.5518 150.017 90.1149ZM64.6253 142.699C64.0198 142.63 63.4093 142.614 62.801 142.653C62.801 142.576 62.732 141.12 62.709 140.829C63.4989 140.949 64.2947 141.029 65.0929 141.066C65.0009 141.311 64.6407 142.668 64.6253 142.699ZM101.863 140.675L102.684 142.208C102.438 142.346 101.641 142.86 101.151 143.151C101.151 143.074 99.9317 141.618 99.9011 141.618C100.575 141.348 101.231 141.033 101.863 140.675ZM93.2399 64.3288C93.4977 64.3213 93.7542 64.2905 94.0064 64.2368C94.4444 64.2041 94.8702 64.0776 95.255 63.866C95.6399 63.6544 95.9748 63.3626 96.2371 63.0104C98.0614 60.3812 94.2824 61.7839 95.1256 56.7861C95.5473 54.748 96.3064 52.7946 97.3715 51.0065C97.9627 51.7599 98.7027 52.3835 99.5454 52.8385C100.388 53.2935 101.315 53.5701 102.27 53.651C102.898 53.651 102.323 55.1228 102.584 56.3875C102.776 57.2844 103.764 56.6252 104.339 57.1541C104.516 57.3248 104.64 57.5424 104.697 57.7814C104.754 58.0203 104.742 58.2706 104.661 58.5027C104.581 58.7348 104.435 58.939 104.242 59.0912C104.05 59.2434 103.817 59.3372 103.573 59.3617C103.179 60.2832 102.841 61.2278 102.561 62.1902C101.622 62.8278 100.97 63.8071 100.744 64.919C100.807 65.283 100.954 65.6273 101.173 65.9242C101.393 66.221 101.679 66.4622 102.009 66.6284C100.9 67.8421 99.3885 68.6127 97.7548 68.7977C96.8659 68.9503 95.9523 68.8602 95.1102 68.5371C93.5312 67.8395 92.9563 66.0152 93.2399 64.3288ZM70.9339 63.3323C70.9952 63.7232 73.1798 70.9516 73.6397 72.4694C73.9693 72.7376 75.4181 71.5419 76.1923 71.3196C76.5774 74.2908 77.8064 77.0894 79.7336 79.3835C75.901 82.5569 73.1031 82.9632 72.6356 82.9785C72.1725 82.9993 71.7112 82.9093 71.2899 82.716C70.8686 82.5227 70.4995 82.2316 70.2133 81.867C69.0838 80.5015 68.3848 78.8315 68.205 77.0685C67.5151 72.6763 67.7298 68.0771 67.7988 63.5929C67.9076 63.6325 68.0258 63.6383 68.1379 63.6096C68.2501 63.5809 68.3509 63.519 68.4273 63.432C68.8259 64.1065 69.3318 63.9839 69.6078 63.5316C70.1903 64.3748 71.0029 63.1637 71.1945 62.1902C71.1945 62.1902 71.8384 62.2438 72.1527 62.2515C71.8537 62.8417 70.9109 63.1867 70.9339 63.3323ZM68.7569 60.9024C68.7569 60.7951 68.9869 60.6648 69.0789 60.6571C69.1744 60.6602 69.2657 60.6974 69.336 60.7622C69.4064 60.8269 69.4511 60.9148 69.4621 61.0097C69.4621 61.1324 69.6461 61.1937 69.6998 61.0787C69.7432 60.9939 69.8061 60.9206 69.8832 60.8646C69.9604 60.8087 70.0496 60.7717 70.1437 60.7568C70.2379 60.7419 70.3342 60.7493 70.4248 60.7786C70.5155 60.8079 70.598 60.8582 70.6656 60.9254C71.5624 61.6919 70.3666 63.8765 69.8991 63.5239C69.8071 63.455 69.6538 63.409 69.7151 62.8724C69.7151 62.7421 69.5158 62.7651 69.4698 62.8724C69.4698 63.478 69.2322 63.6389 69.0482 63.6389C68.8642 63.6389 68.7416 63.4779 68.6573 63.3553C68.6117 63.1664 68.6117 62.9693 68.6573 62.7804C68.6573 62.6271 68.4426 62.5581 68.412 62.7191C68.3737 62.9145 68.3065 63.103 68.2127 63.2787C68.1843 63.314 68.147 63.3412 68.1046 63.3572C68.0621 63.3732 68.0162 63.3775 67.9715 63.3697C67.9269 63.3618 67.8851 63.3421 67.8507 63.3126C67.8162 63.2831 67.7904 63.2449 67.7758 63.202C67.6165 62.461 67.6428 61.6921 67.8524 60.9637C67.8775 60.8853 67.9249 60.8159 67.989 60.7642C68.053 60.7124 68.1308 60.6805 68.2127 60.6724C68.3277 60.6724 68.4886 60.8641 68.4886 60.8871C68.5116 61.0864 68.7646 61.0864 68.7569 60.9024ZM73.1645 61.9372C72.6126 61.9372 71.9457 61.9372 71.2252 61.9909C71.3861 60.5881 70.175 60.1895 69.6308 60.7338C69.5821 60.6423 69.5111 60.5645 69.4244 60.5079C69.3376 60.4513 69.2379 60.4176 69.1345 60.4099C69.0312 60.4022 68.9276 60.4209 68.8334 60.4641C68.7392 60.5074 68.6575 60.5738 68.596 60.6571C68.5497 60.6025 68.4929 60.5577 68.429 60.5253C68.3651 60.4929 68.2954 60.4737 68.224 60.4687C68.1526 60.4637 68.0808 60.473 68.0131 60.4962C67.9453 60.5193 67.8829 60.5558 67.8294 60.6035C67.5305 60.8488 67.5075 61.37 67.4615 61.8606H64.9319C64.7786 61.416 63.9661 59.3847 63.8205 58.8711L74.6592 58.2042C74.4369 58.7868 73.4788 61.301 73.1645 61.9372ZM93.3626 56.4029C93.0789 57.4837 92.504 59.2774 91.063 59.2314C90.8844 59.1987 90.7232 59.1038 90.6081 58.9634C90.493 58.823 90.4314 58.6463 90.4344 58.4648C90.5741 58.4862 90.7163 58.4862 90.856 58.4648C91.477 58.0102 91.9526 57.385 92.2248 56.665C92.4969 55.9451 92.554 55.1616 92.3891 54.4099C92.3891 54.2643 92.2434 53.8043 92.1438 53.789L91.3773 53.6664C92.2434 52.5702 93.9835 53.7047 93.3626 56.4029ZM70.1827 29.6586C70.267 29.6586 77.2884 29.7506 80.7531 29.7353C80.5078 35.3463 80.4542 41.0339 80.6918 46.6986C77.3267 43.9084 73.7087 41.2179 70.1597 38.5427C70.1673 38.4737 70.244 31.1917 70.1827 29.6586ZM39.2148 59.308C38.4483 58.5032 38.2337 57.292 38.0344 56.2419C36.4017 47.8101 38.1953 38.9336 42.3576 31.46C43.0168 30.2642 46.0676 25.1667 48.3672 23.4114C49.3024 22.6909 50.4905 23.6337 51.0194 24.6148C51.9392 26.3242 52.0772 33.8669 51.9086 36.3274C50.5431 35.82 49.0535 35.7504 47.6467 36.1281C40.4336 38.1978 41.0468 49.2052 49.1797 49.2511C48.6278 50.7842 46.3282 56.3875 42.281 59.3923C41.8449 59.7487 41.2952 59.9363 40.7322 59.9208C40.1692 59.9053 39.6307 59.6878 39.2148 59.308ZM45.669 60.3965C45.5234 60.3505 42.4649 60.2662 41.2998 60.1512C42.3517 59.7822 43.2876 59.1424 44.0133 58.2962C48.8118 53.605 50.9811 45.9321 51.9009 39.2939C52.5042 34.7616 52.4189 30.1641 51.648 25.6573C51.4803 24.7701 51.0597 23.9502 50.4368 23.2964C50.9811 23.4727 54.3308 24.5075 54.5224 24.5229C56.937 30.7088 57.098 37.7379 55.6109 44.238C55.3043 45.4568 54.9057 46.6679 54.5148 47.8637C52.8821 53.1068 50.3832 57.568 45.669 60.3965ZM47.593 59.377C56.5614 52.3403 58.3244 35.3999 55.4806 26.4852C65.0469 36.4961 77.71 43.1649 87.2303 53.1221C87.2916 53.1834 91.2929 53.9346 92.0978 54.065C92.3053 54.8146 92.2881 55.6087 92.0483 56.3487C91.8084 57.0886 91.3565 57.7418 90.7487 58.2272C90.4114 58.0892 85.9349 57.292 85.8736 57.2844C83.344 57.3074 48.7505 59.3157 47.593 59.377ZM30.5684 85.4774C30.5459 85.4774 30.5237 85.4832 30.5042 85.4943C30.4846 85.5054 30.4682 85.5213 30.4566 85.5406C30.445 85.5599 30.4387 85.5819 30.4381 85.6044C30.4375 85.6269 30.4428 85.6492 30.4534 85.669C30.4534 88.7735 30.3461 92.0389 30.4534 95.22C27.6326 95.151 20.1742 95.128 19.3924 95.128C19.4843 90.6898 19.3924 79.0922 19.3924 77.8427H32.0631C32.0852 77.8434 32.1071 77.8384 32.1268 77.8283C32.1464 77.8181 32.1632 77.8032 32.1754 77.7848C32.1877 77.7664 32.1951 77.7451 32.1969 77.7231C32.1987 77.7011 32.1949 77.6789 32.1857 77.6588C32.2701 74.8609 32.1857 71.9098 32.1244 69.02C34.9069 68.9127 41.89 69.2729 42.6029 69.3189C43.1318 69.3189 42.8099 68.928 42.8252 75.7961C42.8252 75.8574 42.9555 75.9341 42.9862 75.9341C47.5853 76.256 52.2688 75.9341 56.9524 75.9877C57.4813 76.164 56.8987 74.585 57.213 59.2544L63.5905 58.8941C63.7745 59.4 64.5947 61.5003 64.7326 62.0829C64.7432 62.1162 64.7633 62.1457 64.7906 62.1675C64.8179 62.1893 64.8511 62.2026 64.8859 62.2055H67.5151C67.4432 62.6608 67.5156 63.1272 67.7221 63.5393C67.0092 74.5543 67.9367 77.3368 68.0134 77.6128C67.197 77.3519 66.3184 77.3601 65.507 77.636C64.6956 77.912 63.9942 78.4413 63.5062 79.1458C62.9782 78.7602 62.3477 78.5398 61.6944 78.5127C61.0411 78.4856 60.3945 78.6529 59.8363 78.9935C59.2782 79.3342 58.8337 79.8327 58.5591 80.4261C58.2845 81.0195 58.1922 81.681 58.2938 82.3269C58.2938 82.6565 57.9872 82.7255 57.7036 82.7409C54.5148 82.6029 52.4911 85.0405 52.9204 87.432C52.448 87.7984 52.1177 88.3177 51.9863 88.9009C51.8548 89.4841 51.9303 90.0948 52.1999 90.6285C51.1344 91.0884 49.9003 91.8243 49.9003 93.1274C49.8605 93.5039 49.9673 93.8813 50.1986 94.1811C50.4298 94.4809 50.7677 94.68 51.142 94.7371C51.5023 94.7831 51.9086 94.7371 52.2152 94.99C52.3584 95.283 52.5843 95.5276 52.8649 95.6938C53.1454 95.8599 53.4685 95.9404 53.7942 95.9252C53.8085 96.166 53.7707 96.407 53.6834 96.6319C53.5961 96.8568 53.4613 97.0602 53.2883 97.2283C53.2883 97.2283 52.4681 97.0367 52.1079 96.8987C51.7618 96.7694 51.3808 96.7694 51.0347 96.8987C50.6302 97.0556 50.1871 97.0838 49.766 96.9795C49.3448 96.8753 48.9661 96.6436 48.6815 96.3161C48.2292 95.5496 47.4167 94.2542 46.3819 95.0897C46.2575 95.1986 46.1604 95.3351 46.0983 95.4883C46.0983 96.8757 45.2934 96.4388 44.9025 96.2548C45.0021 92.7134 44.9791 89.1797 44.9868 85.6383C44.8795 85.4314 45.577 85.4467 30.5684 85.4774ZM65.7675 109.753C64.6713 109.753 35.3898 110.098 21.8223 109.96C21.577 109.194 20.4732 108.512 20.8871 107.009C21.301 105.507 22.5811 104.181 23.9992 104.71C24.0309 104.721 24.0655 104.72 24.0965 104.707C24.1276 104.694 24.1529 104.671 24.1678 104.641C24.4978 104.182 24.9252 103.801 25.4195 103.527C25.9138 103.252 26.4627 103.091 27.0268 103.053C27.5909 103.016 28.1563 103.104 28.6825 103.311C29.2086 103.517 29.6825 103.838 30.0701 104.25C30.2311 104.388 30.2848 104.595 30.4994 104.311C31.013 103.077 32.4694 102.901 33.7418 103.031C33.773 103.029 33.8029 103.018 33.8276 102.999C33.8522 102.98 33.8705 102.953 33.8798 102.924C34.0263 102.134 34.464 101.428 35.1062 100.946C35.781 100.522 36.5443 100.26 37.3368 100.179C37.4532 100.064 37.5435 99.9247 37.6017 99.7714C37.6599 99.618 37.6846 99.4539 37.6741 99.2903C37.6467 98.625 37.8423 97.9696 38.2297 97.428C38.6171 96.8865 39.1742 96.4897 39.8127 96.3008C42.7179 95.3963 45.1784 96.8757 45.5694 96.8144C45.9603 96.753 46.1213 96.4388 46.1596 96.0478C46.1596 95.8179 46.1213 95.2123 46.9261 95.128C47.731 95.0437 47.9839 96.0555 48.3442 96.5231C48.6181 96.8523 48.9785 97.0985 49.3848 97.2339C49.7911 97.3694 50.2271 97.3887 50.6438 97.2896C51.1727 97.2053 51.3413 97.0137 51.9162 97.236C52.3371 97.3691 52.7717 97.4539 53.2117 97.4889C53.4656 97.288 53.6637 97.0254 53.7872 96.7262C53.9106 96.4269 53.9553 96.101 53.9169 95.7795C53.9164 95.7621 53.9119 95.7451 53.9038 95.7296C53.8957 95.7142 53.8842 95.7008 53.8702 95.6905C53.8561 95.6801 53.8399 95.6731 53.8228 95.67C53.8057 95.6668 53.788 95.6676 53.7712 95.6722C53.5701 95.7138 53.3617 95.7033 53.1658 95.6416C52.9699 95.5798 52.7931 95.469 52.6521 95.3196C52.4145 95.059 52.3148 94.7294 51.9469 94.6068C51.579 94.4841 51.1804 94.5608 50.8508 94.4535C50.6422 94.3442 50.4616 94.1884 50.323 93.9981C50.1843 93.8078 50.0914 93.5881 50.0514 93.356C50.0113 93.124 50.0253 92.8859 50.0921 92.6601C50.159 92.4344 50.2769 92.227 50.4368 92.0542C50.9587 91.46 51.6274 91.0133 52.3762 90.7588C52.4022 90.7442 52.4216 90.7201 52.4302 90.6914C52.4388 90.6628 52.4359 90.632 52.4222 90.6055C52.1221 90.1076 52.0217 89.5146 52.1412 88.9458C52.2606 88.3769 52.5911 87.8744 53.066 87.5393C53.0867 87.5271 53.1029 87.5086 53.1126 87.4866C53.1222 87.4646 53.1247 87.4402 53.1197 87.4167C52.6291 85.1631 54.6528 83.0781 56.9524 82.9555C58.0255 83.0168 58.723 82.8558 58.4854 81.6371C58.5228 81.1157 58.686 80.6111 58.961 80.1666C59.236 79.722 59.6146 79.3507 60.0645 79.0845C61.1683 78.387 62.5634 78.8392 63.6058 79.3451C64.0746 78.6459 64.7582 78.1182 65.5533 77.8416C66.3484 77.565 67.2119 77.5547 68.0134 77.8121C68.0594 77.8121 68.8796 82.6872 72.0913 83.2468C72.5206 83.3234 74.9658 83.3771 79.5957 79.966C79.1741 81.2845 77.2501 88.3289 76.9051 90.3525C76.8132 90.9274 77.2807 91.2187 77.6717 91.4793C75.7707 94.4151 68.9562 102.924 65.7675 109.753ZM121.349 85.9143C121.761 86.5407 122.024 87.2537 122.117 87.998C122.21 88.7424 122.131 89.4981 121.885 90.2069C121.874 90.2397 121.874 90.2754 121.887 90.3078C121.9 90.3401 121.924 90.3668 121.954 90.3832C125.833 92.4681 124.468 96.5154 124.468 96.5154C123.859 96.6618 123.292 96.9478 122.813 97.3509C122.736 97.4276 122.813 97.5426 122.935 97.4736C123.48 97.0479 124.124 96.7682 124.807 96.6609C125.489 96.5536 126.188 96.6223 126.837 96.8604C127.851 97.2707 128.696 98.0144 129.231 98.9689C129.766 99.9234 129.96 101.032 129.78 102.111C134.564 100.946 136.679 104.173 136.84 104.411C137.331 105.116 137.507 105.024 138.373 105.055C141.24 105.185 143.739 107.546 144.927 110.129C129.949 111.256 114.887 110.359 99.8781 109.7C101.072 105.608 101.717 101.375 101.794 97.1133C102.085 97.0634 102.372 96.9943 102.653 96.9063C102.85 96.5457 102.995 96.1584 103.082 95.7566C103.849 91.8243 105.106 87.823 105.382 83.722C106.37 84.6327 107.446 85.444 108.594 86.1443C108.686 86.1903 108.977 85.9526 109.069 85.8913C109.874 86.3734 110.642 86.914 111.368 87.5087C112.702 88.9038 112.135 90.3218 112.487 95.6492C112.832 101.322 113.346 102.694 113.185 103.154C112.947 103.759 110.686 104.219 112.487 104.687C112.694 104.687 113.346 104.503 113.254 104.924C113.016 105.315 112.488 106.074 113.346 106.273C113.471 106.287 113.596 106.254 113.699 106.181C113.71 106.31 113.767 106.431 113.86 106.521C113.953 106.612 114.075 106.665 114.205 106.672C114.344 106.678 114.483 106.64 114.6 106.563C114.717 106.486 114.806 106.374 114.856 106.243C114.885 106.322 114.934 106.392 114.999 106.446C115.063 106.5 115.141 106.535 115.224 106.549C116.09 106.488 116.044 105.269 116.267 104.526C116.473 103.085 116.512 101.46 117.317 100.034C119.317 94.6681 120.651 89.3024 118.083 84.2893C118.724 84.1835 119.382 84.2839 119.962 84.5759C120.541 84.868 121.014 85.3366 121.31 85.9143H121.349ZM116.619 100.839C116.22 101.713 115.853 105.208 115.761 105.438C115.669 105.668 115.538 106.519 115.086 106.097C115.025 105.963 115.003 105.814 115.025 105.668C115.025 105.522 114.825 105.53 114.802 105.668C114.802 105.944 114.641 106.335 114.304 106.365C113.737 106.365 113.959 105.652 113.944 105.599C113.937 105.572 113.922 105.549 113.9 105.532C113.879 105.516 113.852 105.507 113.825 105.507C113.798 105.507 113.771 105.516 113.75 105.532C113.728 105.549 113.713 105.572 113.706 105.599C113.706 105.652 113.653 106.181 113.239 105.951C113.062 105.844 113.085 105.668 113.17 105.514C113.254 105.361 113.484 105.139 113.522 104.894C113.536 104.79 113.516 104.685 113.465 104.593C113.414 104.502 113.334 104.43 113.239 104.388C112.986 104.336 112.725 104.336 112.472 104.388C112.357 104.388 112.127 104.388 112.089 104.234C112.051 104.081 112.48 104.004 112.595 103.966C113.913 103.499 113.438 102.433 113.262 101C112.901 98.1251 112.756 95.151 112.641 92.1692V89.563C112.48 87.501 111.177 86.6578 109.368 85.7303C109.368 85.7303 113.139 83.0092 114.925 80.2037C119.011 85.1478 121.172 89.7929 116.581 100.839H116.619ZM112.465 74.2017C113.637 75.6493 114.645 77.2227 115.469 78.8929C114.274 81.1925 110.709 84.3659 108.716 85.7917C107.873 85.3624 105.305 83.9137 103.052 79.8127C103.006 79.7284 102.875 79.8127 102.921 79.8894C103.571 81.1414 104.342 82.3274 105.221 83.4307C104.953 86.9721 103.872 90.5441 103.174 94.0932C103.016 94.9487 102.796 95.7915 102.515 96.6151C100.215 97.1746 83.9572 95.013 77.687 91.0424C77.2807 90.7971 77.1888 90.6821 77.2807 90.1762C78.0473 86.0369 80.5615 76.7773 83.413 71.1126C83.459 71.0129 83.3133 70.9286 83.2673 71.0283C81.9578 73.6277 80.8358 76.3174 79.9099 79.0768C78.4382 77.0762 76.7442 73.9794 76.5142 70.783C76.4069 70.2771 76.8592 70.0165 77.2041 69.7942C77.549 69.5719 84.6088 63.7846 91.1013 64.1678C91.6302 64.1678 92.987 64.3058 93.1479 64.3058C92.955 65.0657 92.9886 65.8654 93.2447 66.6063C93.5008 67.3473 93.9681 67.9971 94.589 68.4757C96.26 69.6255 99.9547 69.3726 102.254 66.7127C106.182 68.3829 109.665 70.9473 112.426 74.2017H112.465Z" fill="black"/>
<path d="M97.5936 57.867C97.611 57.8628 97.627 57.854 97.6398 57.8416C97.6526 57.8292 97.6619 57.8135 97.6666 57.7963C97.6713 57.779 97.6713 57.7608 97.6665 57.7436C97.6618 57.7264 97.6525 57.7107 97.6396 57.6983C97.494 57.568 97.126 57.5757 97.126 57.3074C97.6481 56.6223 98.2112 55.9696 98.8124 55.3527C98.8814 55.2761 98.7741 55.1535 98.6974 55.2301C97.0724 56.8628 96.7504 57.1004 96.9191 57.5297C96.9843 57.6474 97.0837 57.7426 97.2041 57.8028C97.3245 57.863 97.4603 57.8854 97.5936 57.867ZM97.149 55.0615C97.3083 54.884 97.4568 54.6972 97.5936 54.5019C97.6703 54.3946 97.4863 54.2566 97.3943 54.3946C97.2551 54.5778 97.132 54.7727 97.0264 54.9771C97.0282 54.9911 97.0328 55.0045 97.0402 55.0165C97.0475 55.0285 97.0572 55.0388 97.0688 55.0468C97.0804 55.0548 97.0935 55.0602 97.1074 55.0627C97.1212 55.0652 97.1354 55.0648 97.149 55.0615ZM100.085 56.6635C100.192 56.6635 101.043 56.0733 100.851 55.897C100.827 55.8726 100.794 55.859 100.759 55.859C100.725 55.859 100.692 55.8726 100.667 55.897C100.56 56.081 99.9929 56.3952 100.001 56.6635C100.013 56.6709 100.028 56.6748 100.043 56.6748C100.057 56.6748 100.072 56.6709 100.085 56.6635ZM98.7741 60.3735C99.0654 60.5882 99.5943 60.2509 99.8396 59.837C99.9785 59.5646 100.091 59.2797 100.177 58.9861C100.181 58.9733 100.183 58.9597 100.182 58.9462C100.181 58.9327 100.177 58.9196 100.171 58.9076C100.164 58.8956 100.156 58.885 100.145 58.8765C100.135 58.868 100.122 58.8617 100.109 58.8581C100.096 58.8544 100.083 58.8535 100.069 58.8553C100.056 58.8571 100.043 58.8616 100.031 58.8686C100.02 58.8755 100.01 58.8848 100.002 58.8958C99.9937 58.9067 99.9881 58.9192 99.9852 58.9324C99.8941 59.135 99.7497 59.309 99.5675 59.4359C99.3852 59.5628 99.1719 59.6378 98.9504 59.653C98.5365 59.7833 98.4905 60.1819 98.7741 60.3735ZM60.9305 35.4613C60.9142 35.4511 60.8946 35.4478 60.8759 35.4521C60.8572 35.4564 60.841 35.468 60.8308 35.4843C60.8207 35.5005 60.8174 35.5202 60.8217 35.5389C60.826 35.5576 60.8376 35.5738 60.8538 35.5839C65.2384 38.8493 66.2195 39.2863 68.7644 41.3866C68.8487 41.4555 68.9714 41.3406 68.8871 41.2562C66.3749 39.1393 63.716 37.2028 60.9305 35.4613ZM74.751 45.8248C74.8583 45.8708 74.9733 45.7481 74.8813 45.6561C74.7893 45.5641 72.5817 44.0771 72.1218 43.7705C72.0145 43.6938 71.9149 43.8625 72.0222 43.9391C72.4668 44.261 74.4981 45.7098 74.751 45.8248ZM27.3411 19.5864L25.808 19.9927C28.2839 23.5647 32.5612 27.0294 35.6426 30.5938C36.1715 30.6935 31.2734 22.5759 29.3801 18.7126L30.6602 18.6283C30.6924 18.6287 30.7239 18.6195 30.7508 18.6019C30.7777 18.5842 30.7987 18.5589 30.8111 18.5292C30.8235 18.4995 30.8267 18.4668 30.8203 18.4353C30.8139 18.4037 30.7981 18.3748 30.7752 18.3523C27.9607 14.6332 24.6872 11.285 21.0325 8.38742C20.9406 8.19579 20.6569 8.38742 20.7489 8.54839C22.6423 12.3887 25.4631 15.8611 27.3411 19.5864ZM30.3536 18.3217L29.1271 18.3906C29.0975 18.3907 29.0685 18.3986 29.0429 18.4134C29.0174 18.4282 28.9961 18.4495 28.9814 18.4751C28.9666 18.5008 28.9589 18.5298 28.9589 18.5594C28.9589 18.5889 28.9667 18.618 28.9815 18.6436C30.5145 21.8324 34.5158 28.7925 34.7688 29.1987C32.5688 26.8991 27.0192 20.8819 26.3369 20.1767L27.6017 19.8471C27.6251 19.8397 27.6466 19.8273 27.6648 19.8108C27.6829 19.7943 27.6972 19.774 27.7067 19.7514C27.7162 19.7288 27.7206 19.7043 27.7197 19.6798C27.7188 19.6553 27.7125 19.6313 27.7014 19.6094C26.1683 16.5433 21.6228 9.53721 21.2855 8.878C24.8729 11.4305 29.7403 17.5705 30.3536 18.3217ZM28.6902 39.1866C28.7276 39.194 28.7663 39.1896 28.801 39.174C28.8358 39.1584 28.8648 39.1324 28.8842 39.0996C28.9035 39.0668 28.9122 39.0288 28.9091 38.9908C28.9059 38.9528 28.891 38.9168 28.8665 38.8877C27.8362 37.5445 26.6355 36.3411 25.2945 35.308C27.7934 34.94 30.3382 34.9554 32.8371 34.5414C33.0058 34.5414 32.9751 34.2732 32.8371 34.2272L17.2995 29.1834C17.2619 29.1671 17.2194 29.1665 17.1813 29.1816C17.1432 29.1967 17.1127 29.2263 17.0964 29.2639C17.0802 29.3015 17.0795 29.344 17.0946 29.3821C17.1097 29.4202 17.1393 29.4507 17.1769 29.467C18.6817 30.3804 20.0258 31.5354 21.1552 32.8857C15.8048 32.3798 4.75144 31.9582 4.65946 31.9582C4.44483 31.8816 4.35284 32.2189 4.56747 32.2955C10.6691 34.5184 26.9348 38.7267 28.6902 39.1866ZM5.38766 32.1959C10.7534 32.3645 15.5672 32.9164 21.4848 33.2077C21.6304 33.2077 21.6611 33.0467 21.5845 32.9547C20.637 31.7604 19.5217 30.7096 18.273 29.8349L32.0706 34.3191C29.6484 34.6488 27.1878 34.6411 24.7732 35.0397C24.6199 35.0397 24.6122 35.285 24.7272 35.354C26.0588 36.2774 27.2337 37.4083 28.2073 38.7037C20.611 36.7107 12.8767 34.871 5.38766 32.1959ZM32.2162 48.546C29.0198 50.1327 20.611 53.7124 19.6681 54.0726C19.63 54.0845 19.5972 54.1096 19.5758 54.1433C19.5544 54.1771 19.5457 54.2174 19.5512 54.257C19.5567 54.2966 19.5761 54.3329 19.606 54.3595C19.6358 54.3861 19.6741 54.4013 19.7141 54.4022H23.4241C20.0974 57.4684 17.7288 59.768 13.7965 62.0676C13.6892 62.1289 14.1108 62.3358 14.2258 62.2822C19.8461 59.5687 25.2845 56.4935 30.5069 53.0762C30.7522 52.4246 28.2073 52.9228 27.7627 52.7849L32.3619 48.8066C32.5612 48.6763 32.3695 48.4693 32.2162 48.546ZM27.2414 52.8309C27.2185 52.8534 27.2027 52.8823 27.1963 52.9138C27.1899 52.9453 27.1931 52.9781 27.2055 53.0078C27.2179 53.0375 27.2389 53.0628 27.2658 53.0804C27.2927 53.0981 27.3243 53.1073 27.3564 53.1068H29.909C25.2752 56.1198 20.4628 58.8486 15.4982 61.278C18.5745 59.3238 21.4053 57.0076 23.93 54.3793C23.9502 54.3569 23.9637 54.3294 23.9689 54.2997C23.9742 54.2701 23.9711 54.2396 23.9599 54.2117C23.9488 54.1838 23.93 54.1595 23.9057 54.1417C23.8815 54.1239 23.8527 54.1133 23.8227 54.111H20.5726C23.6388 52.9075 30.6908 49.6881 31.2274 49.4275L27.2414 52.8309Z" fill="black"/>
</svg>
