<svg width="154" height="155" viewBox="0 0 154 155" fill="none" xmlns="http://www.w3.org/2000/svg">
<path fill-rule="evenodd" clip-rule="evenodd" d="M94.8347 41.4171C95.1225 41.5242 95.4288 41.5726 95.7355 41.5594C96.0423 41.5462 96.3433 41.4718 96.6208 41.3404C96.439 41.7517 96.1152 42.0836 95.7086 42.2756C95.6995 42.2781 95.6911 42.2824 95.6836 42.2882C95.6762 42.294 95.6701 42.3012 95.6654 42.3094C95.6608 42.3175 95.6578 42.3266 95.6567 42.3359C95.6555 42.3452 95.6562 42.3547 95.6588 42.3637C95.6613 42.3728 95.6656 42.3813 95.6713 42.3887C95.6771 42.3961 95.6843 42.4023 95.6925 42.4069C95.7007 42.4115 95.7097 42.4145 95.7191 42.4157C95.7284 42.4168 95.7379 42.4161 95.7469 42.4136C96.8507 42.1913 97.1267 40.9878 97.188 40.8805C97.1974 40.8418 97.1935 40.801 97.1768 40.7648C97.1601 40.7286 97.1316 40.6991 97.096 40.6812C96.7357 40.4743 97.096 41.2408 94.8807 41.2638C94.8707 41.2608 94.8601 41.2597 94.8497 41.2608C94.8392 41.2619 94.8291 41.265 94.8198 41.27C94.8105 41.275 94.8024 41.2817 94.7957 41.2898C94.7891 41.298 94.7841 41.3074 94.7811 41.3174C94.7781 41.3275 94.7771 41.3381 94.7781 41.3485C94.7792 41.359 94.7823 41.3691 94.7873 41.3784C94.7923 41.3876 94.799 41.3958 94.8072 41.4024C94.8153 41.4091 94.8247 41.4141 94.8347 41.4171ZM48.4137 44.1229C48.428 44.137 48.4472 44.1448 48.4673 44.1448C48.4874 44.1448 48.5066 44.137 48.521 44.1229C48.6206 43.9543 48.2067 44.2073 48.245 42.7355C48.5492 42.9671 48.9139 43.1055 49.2952 43.1341C49.3057 43.1376 49.317 43.1387 49.328 43.1374C49.3391 43.1361 49.3497 43.1324 49.3592 43.1266C49.3687 43.1207 49.3768 43.1129 49.3829 43.1036C49.3891 43.0943 49.3931 43.0838 49.3948 43.0728C49.3971 43.0516 49.3912 43.0303 49.3784 43.0132C49.3656 42.9961 49.3468 42.9846 49.3258 42.9808C49.1893 42.9248 49.0562 42.8609 48.9272 42.7892C48.6403 42.6452 48.4087 42.4108 48.268 42.1223C48.253 42.0827 48.2253 42.0492 48.1893 42.027C48.1532 42.0048 48.1108 41.9952 48.0687 41.9996C47.7161 41.9996 47.7084 43.8163 48.4137 44.1229ZM49.1035 38.1287C49.43 38.0348 49.7192 37.842 49.9314 37.5768C49.9514 37.5683 49.9674 37.5524 49.976 37.5324C49.9845 37.5124 49.985 37.4898 49.9774 37.4695C49.9635 37.4576 49.9458 37.451 49.9276 37.451C49.9093 37.451 49.8916 37.4576 49.8777 37.4695C49.7109 37.4577 49.5443 37.4941 49.3975 37.5743C49.2508 37.6544 49.1301 37.775 49.0499 37.9217C49.0271 37.963 49.0091 38.0067 48.9962 38.052C48.9196 38.098 49.0345 38.2053 49.1035 38.1287Z" fill="black"/>
<path fill-rule="evenodd" clip-rule="evenodd" d="M135.698 75.8571C135.537 66.3905 134.472 6.63942 134.472 6.63942C134.472 6.61159 134.465 6.58414 134.454 6.55899C134.442 6.53384 134.424 6.51159 134.403 6.49378C134.383 6.47456 134.358 6.46037 134.332 6.45238C134.305 6.44439 134.277 6.44281 134.25 6.44779L71.5935 14.7263C71.5168 14.7263 71.5551 14.7953 71.5551 14.872V56.4179C70.3823 56.4179 50.7975 57.1001 50.7975 57.1001C50.7771 57.1001 50.7576 57.1082 50.7433 57.1226C50.7289 57.137 50.7208 57.1564 50.7208 57.1768C50.7208 57.1875 50.723 57.1982 50.7273 57.208C50.7316 57.2178 50.738 57.2267 50.7459 57.2339C50.7539 57.2411 50.7632 57.2466 50.7734 57.2499C50.7836 57.2533 50.7944 57.2545 50.8051 57.2534L61.5366 57.0311C61.5366 57.3377 62.0655 69.5179 62.1038 70.0622C62.1651 71.074 62.4104 74.2934 62.4257 74.4314C62.3237 74.3965 62.2239 74.3556 62.1268 74.3087C59.675 73.26 57.1519 72.3866 54.5765 71.6949C53.8099 71.5032 53.1124 71.3423 52.4302 71.212C52.3407 67.0894 51.8711 62.9838 51.0274 58.9475C50.3682 56.004 49.3871 53.1678 47.9613 51.2822C47.1677 50.2136 46.2604 49.2344 45.2555 48.3617L45.3091 46.338C45.8265 46.4832 46.3589 46.5681 46.8958 46.591C47.821 46.6678 48.7456 46.436 49.525 45.9318C50.4142 45.3032 51.0581 44.1228 51.0121 41.9995C51.4567 41.9995 51.9319 42.1221 51.9319 41.8155C51.9319 41.2866 50.3299 38.0595 50.2916 36.6108C50.3993 36.5802 50.5097 36.5597 50.6212 36.5494C51.2804 36.5494 55.0287 35.6833 55.2663 35.3307C55.4022 35.1557 55.4727 34.9388 55.4656 34.7174L50.2149 35.484C48.6818 31.452 47.9843 30.6242 46.3823 30.3175C43.9064 29.85 39.4835 30.6012 38.1267 32.6861C37.3602 33.7976 37.3602 36.0205 37.3602 37.4769C37.3435 37.9054 37.3717 38.3345 37.4445 38.757V38.9257C37.4985 39.1883 37.5781 39.4451 37.6821 39.6922C37.8146 40.0198 37.9843 40.331 38.188 40.6197C38.4629 41.0112 38.7994 41.3555 39.1845 41.6392C39.1002 41.8385 38.5253 43.1723 38.418 43.4022C38.3107 43.6322 37.7664 45.0119 37.6975 45.1882C34.8 45.2956 31.8182 46.9436 29.4343 51.4278C27.7023 54.8649 26.5793 58.5762 26.1152 62.3968C25.7198 65.239 25.5175 68.1048 25.5096 70.9743C25.4343 73.8687 25.5829 76.7646 25.9542 79.6361C25.9542 79.6361 26.0615 83.5531 26.2378 86.2206C25.9159 86.2206 25.6476 86.7265 25.5556 87.1175C25.4683 87.4785 25.4322 87.8501 25.4483 88.2213C25.208 87.8318 24.9109 87.4805 24.5668 87.1788C24.0456 86.7495 23.2484 86.3663 22.6581 86.9258C21.8916 87.6924 21.3857 89.7467 21.1711 90.8045C20.3049 88.9571 18.7412 88.5969 17.7523 91.3487C16.3956 88.5739 15.0925 88.7962 14.7552 90.3905C14.3259 89.3864 13.5364 88.5969 12.9769 89.463C12.7806 89.8166 12.6434 90.1998 12.5706 90.5975C11.8424 89.1641 10.6849 89.4017 10.4013 90.1299C10.2831 90.5432 10.2831 90.9814 10.4013 91.3947C10.4013 91.415 10.4094 91.4345 10.4238 91.4489C10.4381 91.4633 10.4576 91.4714 10.478 91.4714C10.4983 91.4714 10.5178 91.4633 10.5322 91.4489C10.5465 91.4345 10.5546 91.415 10.5546 91.3947C10.4497 91.0186 10.4497 90.621 10.5546 90.2449C10.6094 90.131 10.6914 90.0323 10.7935 89.9578C10.8956 89.8832 11.0145 89.8351 11.1397 89.8176C11.2649 89.8002 11.3925 89.814 11.5111 89.8577C11.6297 89.9015 11.7356 89.974 11.8194 90.0686C12.402 90.5822 12.379 91.2721 12.5859 91.2567C12.6177 91.2525 12.6474 91.2384 12.6708 91.2164C12.6942 91.1944 12.7101 91.1656 12.7162 91.1341C12.7852 91.0574 13.0688 88.2979 14.119 90.0533C14.3339 90.4369 14.4987 90.8465 14.6096 91.2721C14.6205 91.3148 14.647 91.3518 14.6839 91.3759C14.7208 91.4001 14.7654 91.4095 14.8089 91.4024C14.8517 91.3955 14.8909 91.3744 14.9202 91.3423C14.9494 91.3103 14.9669 91.2693 14.9698 91.2261C14.9698 91.1494 15.1385 88.3669 16.6485 90.3752C17.0085 90.8782 17.3094 91.4209 17.5454 91.9926C17.5604 92.0322 17.5881 92.0657 17.6241 92.0879C17.6602 92.1101 17.7026 92.1197 17.7447 92.1152C17.7853 92.1141 17.8242 92.099 17.8549 92.0724C17.8856 92.0459 17.9063 92.0096 17.9133 91.9696C18.0513 91.732 18.8255 88.6122 20.3125 90.2909C20.631 90.6781 20.8659 91.127 21.0024 91.6093C21.0115 91.6526 21.0359 91.6911 21.0711 91.7178C21.1063 91.7446 21.15 91.7578 21.1941 91.755C21.2382 91.7524 21.2803 91.7352 21.3136 91.706C21.3469 91.6769 21.3696 91.6375 21.378 91.594C21.378 91.5173 22.0986 86.8952 23.2867 86.9948C23.6715 87.0381 24.0346 87.1956 24.3292 87.4471C24.7915 87.8389 25.1718 88.3182 25.4483 88.8575C25.4575 88.887 25.4779 88.9116 25.5052 88.926C25.5326 88.9403 25.5645 88.9433 25.5939 88.9341C25.6234 88.925 25.6481 88.9045 25.6624 88.8772C25.6768 88.8499 25.6797 88.818 25.6706 88.7885C25.5868 88.2655 25.5868 87.7325 25.6706 87.2094C25.6899 87.0503 25.7465 86.8979 25.8357 86.7648C25.9249 86.6316 26.0443 86.5213 26.1842 86.4429C27.2113 101.398 30.5764 128.249 31.8948 138.49L2.88931 146.202C2.86898 146.208 2.8519 146.222 2.84184 146.24C2.83178 146.259 2.82955 146.281 2.83565 146.301C2.84175 146.322 2.85567 146.339 2.87436 146.349C2.89305 146.359 2.91497 146.361 2.9353 146.355L31.9868 138.812C32.2934 141.166 32.4774 142.545 32.4774 142.545H32.8837C32.4237 146.945 32.8223 146.585 34.1791 146.432C35.6783 146.225 37.1651 145.935 38.6326 145.565C39.6299 145.349 40.605 145.042 41.5454 144.646C41.7208 144.564 41.8856 144.461 42.036 144.339C42.121 144.273 42.1871 144.186 42.2277 144.086C42.6876 142.844 38.0731 143.151 36.747 143.25V142.246H37.1992L37.7741 137.272L42.2583 136.083C43.8374 143.159 45.0408 148.471 45.0408 148.471H45.5774C45.5237 148.984 45.4394 150.004 45.4394 150.808C45.4394 152.288 45.5927 152.196 46.9035 152.05C48.4075 151.862 49.8996 151.588 51.3724 151.23C57.2517 149.827 55.7186 148.44 49.479 148.93V148.494H50.7745C50.7745 144.301 50.8358 139.242 50.9278 133.784L71.9461 128.081C71.9657 128.077 71.9834 128.067 71.996 128.051C72.0086 128.036 72.0154 128.016 72.015 127.997C72.015 127.997 71.8771 76.432 71.8694 76.0104L73.8087 75.7651C73.8087 76.3247 73.5711 127.997 73.5711 127.997C73.5711 128.019 73.58 128.04 73.5958 128.056C73.6116 128.072 73.6331 128.081 73.6554 128.081C73.6764 128.079 73.696 128.069 73.7101 128.054C73.7243 128.038 73.7322 128.018 73.7321 127.997C73.7321 127.997 73.9697 76.2634 73.9697 75.7421L75.6484 75.5275C75.6484 76.386 75.5564 128.61 75.5564 128.61C75.556 128.636 75.5622 128.661 75.5742 128.684C75.5863 128.707 75.6039 128.726 75.6254 128.74C75.6481 128.751 75.673 128.757 75.6982 128.757C75.7234 128.757 75.7483 128.751 75.771 128.74L90.5114 124.486C90.9407 127.238 91.4236 129.944 91.9832 132.55L92.0981 132.695C92.3209 132.777 92.5488 132.843 92.7804 132.895L92.719 133.937C92.7196 133.978 92.7361 134.016 92.765 134.044V134.566L92.2131 134.826C92.0292 134.918 91.8145 135.033 91.5922 135.164L91.2703 135.371C91.117 135.478 90.9713 135.593 90.8104 135.715C90.7985 135.729 90.792 135.747 90.792 135.765C90.792 135.784 90.7985 135.801 90.8104 135.815C90.3275 136.03 87.5833 137.348 87.9819 138.736C88.5721 140.821 97.6402 136.919 97.6402 136.919V136.152C97.6585 136.149 97.6753 136.14 97.6877 136.126C97.7002 136.112 97.7078 136.094 97.7092 136.076C97.7393 135.986 97.7624 135.893 97.7781 135.8C97.7857 135.703 97.7857 135.605 97.7781 135.509V134.604C97.768 134.531 97.7526 134.46 97.7321 134.389C97.7119 134.295 97.6837 134.203 97.6478 134.113C97.635 134.072 97.6197 134.031 97.6018 133.991C97.6119 133.958 97.6119 133.924 97.6018 133.891L97.5252 132.519C97.6708 132.45 97.8241 132.381 97.9698 132.297C97.9957 132.285 98.0183 132.267 98.0357 132.244C98.053 132.221 98.0646 132.195 98.0694 132.166C98.0694 132.166 99.6025 122.263 99.6485 121.941C99.7941 121.941 101.182 121.596 101.68 121.466C101.956 121.397 105.612 120.362 105.949 120.262L107.896 119.618C109.429 122.922 111.169 126.371 113.216 129.951L113.385 130.043C113.385 130.043 113.829 130.043 114.481 129.997C114.933 131.262 114.933 131.285 115.033 131.316C115.079 131.5 115.117 131.622 115.171 131.806C114.994 131.99 113.638 133.539 113.806 133.715C113.446 134.098 111.415 136.359 112.273 137.494C113.615 139.196 120.513 132.128 120.513 132.128L120.214 131.408C120.421 131.293 119.916 130.028 119.31 129.407C119.314 129.382 119.314 129.356 119.31 129.33L118.934 128.694C119.264 128.433 119.778 127.79 119.701 127.537C119.701 127.537 118.076 122.592 116.895 117.058L119.195 116.414C119.195 116.414 119.302 116.368 119.302 116.33V22.5143C119.302 22.4299 119.302 22.3456 119.195 22.338L81.1981 17.0259L130.256 11.6602C130.256 13.4845 132.632 143.427 132.632 143.427C132.634 143.447 132.643 143.465 132.657 143.479C132.671 143.493 132.689 143.502 132.709 143.503C132.72 143.503 132.73 143.501 132.74 143.497C132.75 143.493 132.759 143.486 132.766 143.478C132.773 143.47 132.779 143.461 132.782 143.451C132.785 143.441 132.787 143.43 132.786 143.419L130.616 11.4379C130.617 11.4107 130.611 11.3838 130.601 11.3587C130.59 11.3337 130.575 11.3111 130.555 11.2923C130.535 11.273 130.51 11.2589 130.484 11.2509C130.457 11.2429 130.429 11.2413 130.402 11.2463L76.0317 17.2789C75.955 17.2789 75.771 17.3478 75.771 17.4245V56.3183L74.1767 56.3566V16.497L131.666 9.29161C131.712 11.6449 134.503 144.255 134.503 144.255C134.505 144.276 134.514 144.295 134.53 144.309C134.545 144.324 134.566 144.331 134.587 144.331C134.598 144.331 134.608 144.329 134.618 144.325C134.628 144.321 134.637 144.314 134.644 144.306C134.651 144.298 134.657 144.289 134.66 144.279C134.663 144.268 134.665 144.258 134.664 144.247L132.057 9.08465C132.057 9.05682 132.051 9.02938 132.039 9.00423C132.027 8.97907 132.01 8.95682 131.988 8.93901C131.945 8.90449 131.89 8.88801 131.835 8.89302L74.1307 16.2211C74.054 16.2211 73.9467 16.2977 73.9467 16.3744V56.3643L71.7927 56.4179V15.0253L134.089 6.86171C134.127 8.985 136.664 145.075 136.664 145.075C136.67 145.092 136.68 145.107 136.695 145.118C136.709 145.128 136.727 145.134 136.745 145.134C136.763 145.134 136.78 145.128 136.795 145.118C136.809 145.107 136.82 145.092 136.825 145.075C136.825 145.075 135.813 82.8556 135.698 75.8571ZM51.9089 66.4978C52.1849 69.1653 52.2002 70.4837 52.2462 71.2043C51.2699 70.9891 50.2635 70.945 49.2721 71.074C49.2619 71.0758 49.2522 71.0797 49.2436 71.0853C49.235 71.091 49.2276 71.0983 49.2218 71.1069C49.2161 71.1155 49.2122 71.1252 49.2103 71.1353C49.2084 71.1455 49.2085 71.1559 49.2108 71.166C49.2126 71.1761 49.2164 71.1858 49.2221 71.1944C49.2277 71.2031 49.2351 71.2105 49.2437 71.2162C49.2523 71.2219 49.2619 71.2259 49.2721 71.2278C49.2822 71.2297 49.2927 71.2295 49.3027 71.2273C50.4602 71.005 52.4302 71.3729 54.4922 71.9325C57.0435 72.6494 59.541 73.5459 61.9658 74.6153C62.7353 74.9306 63.5507 75.1195 64.3804 75.1749C65.601 75.2858 66.8275 75.3166 68.0521 75.2669H68.1441C68.8366 74.8275 69.5709 74.4577 70.3363 74.1631C70.3822 74.1575 70.4285 74.1575 70.4743 74.1631C69.9572 74.9006 69.3637 75.5815 68.7036 76.1944C68.6744 76.222 68.6547 76.2581 68.6471 76.2976C68.6396 76.3371 68.6446 76.378 68.6616 76.4144C68.6785 76.4509 68.7065 76.4811 68.7416 76.5007C68.7766 76.5204 68.817 76.5285 68.8569 76.524L70.298 76.363C70.0131 76.9146 69.6315 77.4105 69.1712 77.8271C67.7455 79.0229 66.381 77.3749 62.4717 77.7658C60.9387 77.9191 56.7381 79.5288 52.6908 80.0654C50.2916 80.4027 47.946 80.372 46.2596 79.3985C44.7266 78.54 43.5998 76.8076 42.7259 74.8913C41.5981 72.2427 40.8025 69.4646 40.3573 66.6204C41.2082 66.6204 51.3877 66.5208 51.9166 66.5055L51.9089 66.4978ZM69.8458 75.9568L69.3475 76.0104L69.7921 75.5428C69.7837 75.683 69.8019 75.8234 69.8458 75.9568ZM52.4915 80.4257C56.5158 79.9274 61.0153 78.2334 62.5024 78.1261C64.9323 77.8808 66.2584 78.448 67.8681 78.6396C69.6388 78.8543 70.7273 76.2557 70.7963 76.1791L71.7161 76.0641C71.7161 76.5163 71.6471 89.8616 71.6471 90.3446C70.3977 87.2094 68.3894 87.2324 68.1134 89.578C67.8374 88.8115 67.2396 87.3857 66.4577 87.1941C65.6758 87.0025 65.3002 87.631 65.0703 88.3209C64.7177 87.7613 64.1198 87.0255 63.4606 86.9565C62.8013 86.8875 62.0425 88.1139 61.7129 88.7885C61.6554 88.475 61.5493 88.1725 61.3986 87.8917C61.3374 87.7523 61.2461 87.6281 61.1314 87.528C61.0166 87.428 60.8812 87.3544 60.7348 87.3127C60.5884 87.271 60.4346 87.2621 60.2843 87.2866C60.134 87.3112 59.9911 87.3686 59.8655 87.4547C59.595 87.7236 59.3858 88.0479 59.2523 88.4052C59.0674 88.8663 58.9163 89.3403 58.8001 89.8233C58.7311 89.2024 58.5701 88.6045 57.9339 88.5892C57.6625 88.6091 57.3998 88.6932 57.1673 88.8345C57.0012 88.5839 56.7908 88.3658 56.5465 88.1906C55.8642 87.723 54.8141 87.6157 54.6685 88.6275C54.2162 87.815 52.6218 86.4046 52.1926 87.1711C52.3842 79.4598 52.5145 80.9086 52.4915 80.4486V80.4257ZM51.8936 66.3215C51.3724 66.3215 39.3608 66.2065 38.8089 66.2065C38.7595 65.5098 38.7595 64.8105 38.8089 64.1139C39.0619 64.1139 41.3078 64.1905 41.921 64.2059C42.5343 64.2212 48.0533 64.2059 48.4902 64.2059L51.6637 64.0985C51.7326 64.8727 51.817 65.6163 51.8936 66.3215ZM38.5406 40.4128C38.3519 40.1472 38.1877 39.8649 38.0501 39.5696C37.9527 39.3551 37.8683 39.1349 37.7971 38.9104C40.7857 38.8324 43.7548 38.4027 46.6429 37.6302C46.0373 40.1291 45.8304 39.0023 45.4394 41.5779H44.7955C44.7342 41.3633 45.1711 39.1403 43.5078 38.9104C43.3196 38.8824 43.1277 38.8926 42.9435 38.9403C42.7593 38.9881 42.5866 39.0724 42.4357 39.1882C42.2848 39.3041 42.1588 39.4492 42.0651 39.6147C41.9714 39.7803 41.912 39.9631 41.8904 40.1521C41.8259 40.5571 41.9192 40.9713 42.151 41.3096C42.356 41.5791 42.6444 41.7731 42.9712 41.8615C42.7561 42.2046 42.4778 42.5038 42.151 42.743C41.4995 43.2566 40.0737 42.697 39.3302 42.3138C39.5218 41.9075 39.6445 41.6315 39.6445 41.6315C39.6648 41.5873 39.6682 41.5371 39.6541 41.4905C39.64 41.4439 39.6093 41.4041 39.5678 41.3786C39.1705 41.1205 38.8227 40.7934 38.5406 40.4128ZM39.2612 42.5131C39.7854 42.8211 40.3506 43.0534 40.9399 43.2029C41.326 43.3159 41.738 43.3024 42.1159 43.1645C42.4938 43.0266 42.8176 42.7715 43.0402 42.4364C43.2778 42.1681 43.5691 41.6699 43.2242 41.6239C43.0697 41.6052 42.9209 41.5543 42.7874 41.4745C42.6539 41.3947 42.5386 41.2878 42.449 41.1606C42.3594 41.0334 42.2975 40.8889 42.2673 40.7363C42.2371 40.5837 42.2393 40.4265 42.2737 40.2748C42.2895 40.1372 42.3331 40.0043 42.4016 39.884C42.4702 39.7636 42.5624 39.6584 42.6726 39.5747C42.7829 39.4909 42.909 39.4303 43.0433 39.3965C43.1776 39.3627 43.3173 39.3564 43.4541 39.3779C43.7354 39.4332 43.9869 39.5889 44.1618 39.816C44.3367 40.043 44.423 40.326 44.4046 40.6121C44.4813 41.3173 44.2283 42.0685 44.6116 42.0531L45.6081 41.9841C45.6518 41.9827 45.6936 41.9656 45.7259 41.9361C45.7582 41.9066 45.7789 41.8666 45.7844 41.8232C45.7844 41.8232 45.861 41.1333 45.9913 40.5201C46.2519 39.309 46.4512 39.9145 46.8728 37.6149C48.3599 37.2317 49.502 36.8484 50.1306 36.6951C50.1306 38.0672 51.2114 40.7117 51.5103 41.6699C51.0888 41.7082 50.5982 41.5472 50.6135 41.8692C50.7285 43.9311 50.1383 45.0656 49.3027 45.7018C48.5912 46.1564 47.7539 46.3738 46.9112 46.3227C46.3394 46.3128 45.7708 46.2356 45.2171 46.0927C44.8492 45.9778 45.1405 46.9359 45.0868 48.2927C43.0708 46.6063 40.549 45.2879 37.9351 45.2649C38.464 44.1917 39.2229 42.5974 39.2612 42.5131ZM41.3921 144.293C40.4749 144.673 39.5258 144.97 38.556 145.182C37.0229 145.565 35.2446 145.887 34.1331 146.033C33.8029 146.08 33.4701 146.109 33.1366 146.117C32.853 145.397 33.037 142.745 33.037 142.492L36.6167 142.269L36.5477 143.365C36.5402 143.393 36.5402 143.422 36.5477 143.45C36.561 143.455 36.5753 143.458 36.5898 143.458C36.6043 143.458 36.6187 143.455 36.632 143.45C38.7629 143.496 43.3391 143.411 41.3921 144.293ZM37.8661 136.827L39.1539 125.59C35.1296 107.193 35.1296 102.41 35.1296 102.41C35.9958 107.576 39.5908 123.934 42.2123 135.677L37.8661 136.827ZM45.884 151.751C45.884 151.751 45.8534 151.767 45.861 151.751H45.884ZM54.1625 149.942C52.4302 150.77 46.8882 151.843 45.8763 151.767C45.7099 150.671 45.6739 149.559 45.769 148.455H49.3641C49.3641 148.831 49.2874 149.007 49.3641 149.084C49.3912 149.094 49.4213 149.094 49.4484 149.084C51.4797 149.145 56.0942 149.015 54.1395 149.942H54.1625ZM50.5982 81.4758C49.2031 81.6291 47.8003 81.7441 46.3976 81.8284C44.9948 81.9127 43.7607 81.951 42.4423 81.9587C41.1239 81.9664 39.7594 81.9587 38.418 81.8591C31.2126 81.4605 27.1423 79.9734 26.5674 79.7664C26.2072 79.6438 26.1688 79.6208 26.0922 79.5901C25.8224 76.7162 25.7073 73.8299 25.7472 70.9437C25.7967 68.0881 26.0272 65.2386 26.4371 62.4122C26.9189 58.6402 28.0386 54.9776 29.7485 51.5811C32.2551 46.9819 35.3825 45.3952 38.4333 45.6175C41.9977 45.8781 45.4471 48.538 47.6317 51.4968C49.0345 53.3671 50.0079 56.1573 50.6978 59.0471C51.0888 60.6875 51.3724 62.3662 51.5947 63.9299L47.1335 63.8303C46.4896 63.8303 39.0312 63.9299 38.7783 63.9452C38.7783 63.0637 38.8779 62.0979 38.9469 61.2317C39.0696 59.6987 39.1999 58.4416 39.1999 58.4416C39.1999 58.4416 39.1999 58.3572 39.1309 58.3572C39.1202 58.355 39.1092 58.3551 39.0986 58.3575C39.088 58.3598 39.078 58.3644 39.0693 58.371C39.0606 58.3775 39.0534 58.3858 39.0482 58.3953C39.0429 58.4048 39.0398 58.4154 39.0389 58.4262C39.0389 58.4262 38.8856 59.461 38.7169 60.8025C38.6326 61.569 38.5406 62.3892 38.4717 63.194C38.3594 64.2719 38.3594 65.3586 38.4717 66.4365C38.479 66.4798 38.5015 66.519 38.5353 66.5471C38.569 66.5753 38.6117 66.5904 38.6556 66.5898H40.1887C40.6035 69.4698 41.376 72.2868 42.4883 74.9756C43.3698 76.9609 44.5579 78.7546 46.1063 79.6591C47.6344 80.4255 49.3505 80.7368 51.0504 80.556C51.4235 80.556 51.7991 80.5253 52.1772 80.464C52.0877 80.7116 52.0877 80.9828 52.1772 81.2305L50.5982 81.4758ZM65.0013 129.714L50.9584 133.362C51.2421 117.073 52.1312 87.6157 52.1312 87.6157C52.1522 87.6138 52.1718 87.6041 52.186 87.5885C52.2002 87.5728 52.208 87.5525 52.2079 87.5314C52.2079 87.5314 52.2079 87.1175 52.5068 87.1098C52.8405 87.1605 53.1493 87.3162 53.3883 87.5544C53.7368 87.8182 54.0375 88.1397 54.2775 88.5049C54.4226 88.7311 54.5361 88.9761 54.6148 89.2331C54.6417 89.4091 54.6801 89.5833 54.7298 89.7543C54.7398 89.7846 54.7595 89.8107 54.7858 89.8287C54.8121 89.8467 54.8436 89.8556 54.8754 89.854C54.9079 89.8485 54.9373 89.8316 54.9584 89.8063C54.9795 89.781 54.9909 89.7489 54.9904 89.716C54.9829 89.5703 54.9572 89.426 54.9137 89.2867C54.8802 89.0298 54.9011 88.7686 54.9751 88.5202C55.007 88.4129 55.0764 88.3206 55.1707 88.2601C55.2649 88.1996 55.3778 88.1749 55.4886 88.1906C55.7958 88.2027 56.0923 88.3068 56.3395 88.4895C56.5875 88.6702 56.7896 88.9065 56.9297 89.1794C56.9411 89.2021 56.9573 89.2221 56.9771 89.238C56.997 89.2539 57.02 89.2653 57.0447 89.2714C57.0665 89.2807 57.09 89.2855 57.1137 89.2855C57.1374 89.2855 57.1609 89.2807 57.1827 89.2714C57.4072 89.1104 57.6733 89.0172 57.9492 89.0031C58.021 89.003 58.0915 89.023 58.1525 89.061C58.2134 89.0989 58.2625 89.1533 58.2941 89.2178C58.4223 89.545 58.4873 89.8935 58.4858 90.2449C58.505 90.8023 58.4896 91.3604 58.4398 91.9159C58.4463 91.9477 58.461 91.9772 58.4826 92.0014C58.5041 92.0257 58.5316 92.0438 58.5624 92.0539C58.5866 92.0571 58.6112 92.0555 58.6348 92.0491C58.6583 92.0427 58.6804 92.0318 58.6996 92.0168C58.7189 92.0018 58.735 91.9831 58.7469 91.9619C58.7589 91.9406 58.7666 91.9172 58.7694 91.8929C58.9007 90.9155 59.1161 89.9512 59.4133 89.0108C59.5387 88.5879 59.7386 88.1907 60.0035 87.838C60.046 87.7793 60.1011 87.7309 60.1648 87.6964C60.2285 87.6619 60.2991 87.6422 60.3714 87.6387C60.5165 87.6448 60.6573 87.6901 60.7787 87.7697C60.9002 87.8493 60.9978 87.9603 61.0613 88.091C61.2792 88.5377 61.3944 89.0274 61.3986 89.5244C61.3977 89.5692 61.4125 89.6129 61.4405 89.6479C61.4686 89.683 61.508 89.707 61.5519 89.716C61.5974 89.7246 61.6445 89.717 61.6851 89.6946C61.7257 89.6723 61.7572 89.6365 61.7742 89.5934C62.0022 89.0267 62.2873 88.4848 62.625 87.976C62.759 87.7884 62.9161 87.6184 63.0926 87.4701C63.1862 87.3943 63.3019 87.3513 63.4222 87.3474C63.7026 87.3991 63.9569 87.5452 64.1428 87.7613C64.4663 88.1006 64.7422 88.4822 64.963 88.8958C64.9816 88.9311 65.0109 88.9597 65.0466 88.9776C65.0824 88.9954 65.1228 89.0017 65.1623 88.9955C65.2009 88.9879 65.2366 88.9694 65.2651 88.9423C65.2936 88.9151 65.3138 88.8804 65.3232 88.8422C65.3867 88.45 65.5446 88.0791 65.7831 87.7613C65.8519 87.6743 65.9436 87.6082 66.0478 87.5703C66.152 87.5324 66.2648 87.5242 66.3734 87.5467C66.5278 87.595 66.6658 87.6852 66.772 87.8073C66.9576 88.0135 67.1195 88.2398 67.2549 88.4819C67.5921 89.1138 67.8692 89.7759 68.0827 90.4595C68.0935 90.4962 68.1175 90.5275 68.1501 90.5473C68.1827 90.5671 68.2216 90.5741 68.259 90.5668C68.2772 90.5649 68.2948 90.5595 68.3108 90.5507C68.3269 90.5419 68.341 90.5301 68.3524 90.5158C68.3638 90.5016 68.3723 90.4852 68.3773 90.4676C68.3823 90.4501 68.3838 90.4317 68.3817 90.4135C68.3373 89.8446 68.413 89.2726 68.604 88.7348C68.6599 88.5715 68.7622 88.428 68.8983 88.3219C69.0344 88.2157 69.1985 88.1514 69.3705 88.1369C69.5876 88.152 69.799 88.2131 69.9906 88.3162C70.1823 88.4193 70.3498 88.562 70.482 88.7348C70.9226 89.265 71.2794 89.8596 71.5398 90.4979C71.5432 90.5075 71.5485 90.5164 71.5554 90.5239C71.5623 90.5315 71.5706 90.5376 71.5799 90.5419C71.5892 90.5462 71.5993 90.5485 71.6095 90.5489C71.6197 90.5492 71.6299 90.5475 71.6394 90.5439C71.6394 90.5439 71.8464 127.56 71.8541 127.966C71.4401 128.081 68.8953 128.709 65.0013 129.714ZM70.7733 75.9568C70.6659 75.8111 70.505 75.9108 70.16 75.9568C70.2101 75.7169 70.1942 75.4678 70.114 75.2362C70.3133 75.0063 70.4973 74.7763 70.6353 74.5847C70.7635 74.4251 70.8481 74.2349 70.8806 74.0328C70.8818 73.9734 70.8638 73.9152 70.8292 73.8669C70.7947 73.8185 70.7455 73.7826 70.6889 73.7645C70.46 73.7264 70.2248 73.7584 70.0144 73.8565C70.0144 73.6112 69.9684 69.4029 69.9531 68.8894C69.9531 68.1688 69.5468 59.691 69.5315 59.4457L71.8311 59.3154C71.8311 59.6373 71.9614 69.196 71.9844 70.0468C71.9844 70.6294 72.2297 75.5965 72.245 75.8111L70.7733 75.9568ZM83.1681 126.364L75.9014 128.372C75.9014 127.682 75.8094 76.3017 75.8017 75.4815L77.8637 75.2209C78.0246 75.2209 78.017 75.4815 78.017 70.1235C81.543 68.9737 85.6823 66.2908 87.453 62.8108V69.8552C83.8963 69.9702 84.2489 70.2385 82.7005 69.2803C82.4018 69.0745 82.077 68.9095 81.7347 68.7897C81.6677 68.7633 81.5949 68.7555 81.5239 68.7671C81.4529 68.7787 81.3864 68.8093 81.3314 68.8557C81.2764 68.902 81.2349 68.9624 81.2115 69.0304C81.188 69.0984 81.1834 69.1715 81.1981 69.242C81.2441 69.7325 81.9646 70.4531 81.7423 70.9667C81.248 72.0094 80.5464 72.9406 79.6804 73.7032C79.3507 73.9485 79.2051 73.8641 79.1744 74.0558C79.1694 74.097 79.178 74.1387 79.1987 74.1746C79.2194 74.2105 79.2513 74.2388 79.2894 74.2551C79.987 74.3777 81.2747 75.2669 83.0224 73.7568C83.3329 73.5007 83.6132 73.2101 83.8579 72.8907L87.4683 73.5192C87.4683 80.326 87.5296 86.6345 87.7366 92.7745C87.8516 96.2852 88.0432 100.148 88.3192 104.203C88.6334 108.803 89.0857 113.639 89.6759 118.453C89.9212 120.431 90.2048 122.393 90.5038 124.348L83.1681 126.364ZM78.017 69.9548V61.3007C78.4769 60.7411 78.6992 60.5342 80.3166 58.4416C81.2441 58.5565 85.7973 59.3154 87.3916 62.5885C87.3793 62.5838 87.3657 62.5838 87.3533 62.5885C85.5136 65.8692 81.451 68.5214 78.017 69.9702V69.9548ZM91.4389 36.8637C92.2055 36.0512 91.324 35.0394 92.1288 34.2652C92.297 34.0706 92.5022 33.9115 92.7325 33.797C92.9628 33.6825 93.2136 33.615 93.4702 33.5983C92.7526 34.5565 92.2862 35.6791 92.1135 36.8637H91.4389ZM92.0751 37.0707C91.9387 37.9071 91.867 38.7528 91.8605 39.6002H91.4313C91.4313 39.3549 91.2013 37.3006 91.1706 37.086L91.2626 37.017L92.0751 37.0707ZM93.6925 33.514C94.3186 33.2468 94.9897 33.1011 95.6702 33.0847C96.3217 32.5788 97.7245 31.682 97.7245 31.682C97.1752 32.106 96.6624 32.5752 96.1914 33.0847C96.1148 33.2457 96.498 33.2074 96.9579 33.1384C97.1971 33.292 97.4073 33.4866 97.5788 33.7133C98.5217 34.9704 97.1496 35.8212 98.1921 36.8331H95.8925C95.8726 36.826 95.851 36.826 95.8312 36.8331C95.8264 36.8412 95.824 36.8505 95.824 36.8599C95.824 36.8693 95.8264 36.8786 95.8312 36.8867V37.8679C95.7003 37.7585 95.539 37.6918 95.3691 37.6767C95.1992 37.6616 95.0287 37.6989 94.8807 37.7836C95.0033 36.5418 95.5322 36.7641 92.3971 36.7871C92.5581 35.7829 92.9643 34.1962 93.6235 33.5523C93.6382 33.5487 93.6519 33.5421 93.6637 33.5328C93.6756 33.5236 93.6854 33.5119 93.6925 33.4986V33.514ZM99.4262 37.6992C99.3385 38.3442 99.2157 38.984 99.0582 39.6156H96.2681C96.2681 39.3703 96.0228 37.2317 95.9998 37.0247L98.6213 37.1627C98.9663 37.3466 99.2805 37.4386 99.4262 37.6839V37.6992ZM94.6584 37.1857L94.3288 39.6156H92.2208C92.228 38.7744 92.2894 37.9346 92.4048 37.1013L94.6584 37.1857ZM92.2208 39.9298H94.5204C94.8117 39.9298 94.6737 39.5696 94.919 38.0902H95.1873C95.0493 38.4274 94.4974 40.0678 94.8577 40.1291H95.6778C95.6967 40.1299 95.7153 40.1242 95.7306 40.1131C95.7459 40.102 95.757 40.086 95.7622 40.0678C95.7645 40.0486 95.7594 40.0293 95.748 40.0136C95.7367 39.998 95.7198 39.9872 95.7008 39.9835C95.6242 39.9835 95.3712 39.8685 95.0953 39.7995C95.237 39.2244 95.3192 38.6362 95.3406 38.0442C95.4615 38.0438 95.5813 38.0672 95.6932 38.1132C95.773 38.1417 95.85 38.1776 95.9231 38.2205C95.9231 38.3661 95.8695 37.6686 95.9921 39.7535C95.9921 39.9452 95.9538 39.9222 99.1272 39.9605C99.3495 40.727 100.584 41.2636 100.093 41.9841C99.7404 42.5054 98.606 43.1263 99.1656 43.8162C99.5435 44.1573 99.9868 44.4181 100.469 44.5827C100.423 44.6876 100.351 44.7797 100.262 44.851C99.3572 45.7325 99.4185 47.1506 100.936 46.4454C100.946 46.4321 100.952 46.4159 100.952 46.3994C100.952 46.3828 100.946 46.3666 100.936 46.3534C100.922 46.3415 100.905 46.335 100.886 46.335C100.868 46.335 100.85 46.3415 100.837 46.3534C99.4415 46.8823 99.7865 45.6482 100.415 45.0886C101.787 43.8621 98.1154 44.3221 99.8018 42.789C100.008 42.6172 100.193 42.4216 100.354 42.2064C100.783 41.5702 100.354 41.0106 99.8094 40.4434C99.652 40.2957 99.529 40.1151 99.4492 39.9145C99.4752 39.8874 99.4914 39.8523 99.4952 39.8149C99.6791 38.4581 100.032 38.2818 99.7788 37.6302C99.8324 37.063 99.8938 37.0017 99.7788 36.8637C99.7641 36.8451 99.7455 36.8299 99.7243 36.8193C99.7031 36.8087 99.6798 36.803 99.6561 36.8024H98.7133C97.0883 35.8749 99.2729 34.5028 97.1419 33.0617L97.6938 32.9544C98.1921 32.8701 98.7363 33.0771 98.7133 33.514C98.6367 34.8937 99.9781 33.7286 99.8478 35.1467C99.7788 35.8442 100.062 35.6449 100.469 36.1202C100.875 36.5954 100.783 36.6338 100.599 37.224C100.415 37.8142 100.699 37.8985 100.975 38.1592C101.381 38.5654 100.285 39.4546 101.511 39.9145C101.871 39.9912 101.917 39.7229 102.216 39.5466C102.853 39.1863 103.182 39.3779 103.343 39.9835C103.396 40.1634 103.408 40.3525 103.38 40.5377C103.353 40.723 103.285 40.9 103.182 41.0566C102.822 41.5275 102.332 41.882 101.772 42.0761C101.732 42.0901 101.698 42.1179 101.677 42.1544C101.656 42.191 101.649 42.2339 101.657 42.2754C101.841 43.3409 101.833 43.4406 102.339 45.7861C98.5753 48.1394 96.6667 46.5527 96.2604 46.1234V44.7973C96.2661 44.784 96.269 44.7696 96.269 44.7551C96.269 44.7407 96.2661 44.7263 96.2604 44.713C96.2333 44.7023 96.2032 44.7023 96.1761 44.713C95.5985 44.7094 95.0286 44.5813 94.5051 44.3374C93.9822 44.1001 93.5246 43.7398 93.1713 43.2872C92.4935 42.3033 92.1594 41.1231 92.2208 39.9298ZM101.419 67.157C102.033 65.742 102.745 64.3716 103.55 63.0561C103.55 63.0561 109.414 64.0526 111.913 67.5096C111.913 67.5096 107.452 73.5345 104.968 74.2781C102.485 75.0216 95.0033 74.0788 87.5066 73.4579C87.5089 73.4387 87.5039 73.4193 87.4925 73.4037C87.4811 73.3881 87.4643 73.3773 87.4453 73.3736C83.7353 72.607 83.7353 72.4767 83.6126 72.607C83.352 72.791 82.2099 74.83 79.78 74.0634C80.7371 73.2494 81.506 72.2373 82.0336 71.097C82.2942 70.3304 81.3667 69.3646 81.497 69.1347C81.5719 69.1342 81.6458 69.1526 81.7117 69.1883C83.2447 69.7862 82.8461 70.3764 85.3144 70.2155C86.3108 70.1465 87.3916 70.0162 87.3916 70.0162C87.4017 70.0152 87.4115 70.0123 87.4205 70.0075C87.4294 70.0027 87.4373 69.9962 87.4437 69.9884C87.4501 69.9805 87.4549 69.9715 87.4578 69.9618C87.4607 69.9521 87.4617 69.9419 87.4606 69.9318C89.4599 69.7452 91.448 69.4535 93.4166 69.058C94.735 68.6824 100.377 67.1187 101.442 67.1647L101.419 67.157ZM97.4409 136.091C97.4355 136.102 97.4327 136.114 97.4327 136.126C97.4327 136.138 97.4355 136.149 97.4409 136.16C96.843 136.804 92.4278 138.161 92.4278 138.161C92.1511 137.24 91.5836 136.433 90.8104 135.861L91.301 135.67L91.6536 135.516C91.8912 135.409 92.0981 135.294 92.2745 135.202L92.8953 134.865C92.9249 134.851 92.9501 134.83 92.9677 134.803C92.9854 134.775 92.9949 134.744 92.995 134.711V134.113H97.2186V134.596C97.2186 134.688 97.2186 134.895 97.2646 135.056C97.3106 135.217 97.2646 135.355 97.3106 135.516C97.3565 135.677 97.3106 135.677 97.3106 135.754C97.3106 135.83 97.4485 135.976 97.4639 136.099L97.4409 136.091ZM93.5009 133.592C93.4972 133.628 93.4972 133.664 93.5009 133.7V133.784H92.949L92.903 132.941C93.1003 132.985 93.2999 133.018 93.5009 133.04V133.14C93.4967 133.183 93.4967 133.227 93.5009 133.27V133.408C93.5031 133.473 93.5108 133.537 93.5239 133.6L93.5009 133.592ZM93.8842 133.293V133.102C94.2237 133.121 94.5641 133.121 94.9036 133.102V133.531C94.9 133.567 94.9 133.603 94.9036 133.638V133.684H93.8842V133.615C93.8879 133.58 93.8879 133.544 93.8842 133.508C93.888 133.454 93.888 133.401 93.8842 133.347V133.293ZM96.2834 133.462C96.2893 133.553 96.3074 133.644 96.3371 133.73H95.2103C95.214 133.695 95.214 133.659 95.2103 133.623C95.2141 133.569 95.2141 133.515 95.2103 133.462V133.132C95.5848 133.098 95.9563 133.037 96.3217 132.948V133.447L96.2834 133.462ZM96.6667 133.132C96.6708 133.081 96.6708 133.03 96.6667 132.979C96.6711 132.931 96.6711 132.882 96.6667 132.833C96.8783 132.773 97.0857 132.699 97.2876 132.611L97.2262 133.738H96.6667C96.672 133.689 96.672 133.641 96.6667 133.592C96.6742 133.552 96.6742 133.51 96.6667 133.47C96.6705 133.408 96.6705 133.347 96.6667 133.286C96.6973 133.24 96.6897 133.186 96.6897 133.14L96.6667 133.132ZM106.854 119.687C106.54 119.764 106.172 119.848 105.773 119.956C105.374 120.063 101.779 121.067 101.503 121.151L99.6025 121.78C100.031 119.079 100.478 116.38 100.944 113.685C101.327 111.104 101.852 108.545 102.515 106.02C102.845 107.055 103.205 108.128 103.588 109.232C104.309 111.263 105.122 113.402 106.057 115.632C106.578 116.882 107.145 118.162 107.743 119.465L106.854 119.687ZM113.423 129.652C110.792 125.07 108.442 120.332 106.386 115.464C105.451 113.248 104.631 111.118 103.903 109.094C102.619 105.519 101.519 101.881 100.607 98.1938C99.6448 94.5168 98.9935 90.7655 98.6596 86.9795C98.6597 86.9687 98.6575 86.9581 98.6532 86.9483C98.6489 86.9384 98.6425 86.9296 98.6346 86.9224C98.6266 86.9152 98.6172 86.9097 98.607 86.9063C98.5968 86.9029 98.586 86.9018 98.5753 86.9028C98.5543 86.9047 98.5348 86.9145 98.5206 86.9301C98.5064 86.9457 98.4986 86.9661 98.4987 86.9872C98.7985 90.7887 99.419 94.5581 100.354 98.2551C100.883 100.486 101.565 103.008 102.439 105.759C101.694 108.346 101.12 110.978 100.722 113.639C100.185 116.552 97.7475 131.392 97.6555 132.036C96.8413 132.446 95.9516 132.683 95.0416 132.734C94.1366 132.793 93.2285 132.678 92.3664 132.396C90.8641 124.96 89.7943 117.443 89.1623 109.883C88.7331 105.1 88.4341 100.447 88.2272 96.1932C88.0355 92.3605 87.6523 76.1024 87.6446 75.4969C96.0352 76.7907 104.597 76.4444 112.856 74.4774C112.856 74.715 112.971 98.2398 112.978 99.9109C113.038 102.865 113.266 105.813 113.661 108.741C113.891 110.612 114.182 112.574 114.535 114.582C114.795 116.023 115.086 117.487 115.408 118.921C116.229 122.554 118.382 128.61 118.382 128.61C117.102 129.399 114.879 129.668 113.415 129.691L113.423 129.652ZM118.122 129.652L117.11 130.074V129.982C117.068 129.859 117.009 129.743 116.934 129.637C117.281 129.545 117.622 129.43 117.953 129.292C117.973 129.427 118.029 129.554 118.114 129.66L118.122 129.652ZM116.788 130.212L115.845 130.618C115.798 130.359 115.696 130.114 115.546 129.898C115.884 129.844 116.236 129.783 116.589 129.698V129.882C116.648 130.006 116.726 130.119 116.819 130.219L116.788 130.212ZM115.086 130.978C114.956 130.702 114.734 130.273 114.603 130.02L115.232 129.951C115.284 130.231 115.403 130.493 115.577 130.718L115.086 130.978ZM119.87 131.093C119.939 131.226 120.023 131.349 120.123 131.461C119.816 132.289 116.244 135.225 116.244 135.225C115.64 134.472 114.809 133.935 113.875 133.692C115.815 131.852 115.539 131.883 115.186 131.285C115.907 131.001 116.857 130.603 117.562 130.296C118.268 129.99 118.482 129.89 119.095 129.583C119.314 130.106 119.578 130.609 119.885 131.086L119.87 131.093ZM118.95 129.361L118.421 129.553C118.402 129.401 118.341 129.257 118.245 129.139C118.413 129.057 118.574 128.962 118.727 128.855L118.95 129.361ZM119.049 128.02C118.896 128.223 118.71 128.4 118.497 128.541C117.284 125.409 116.346 122.177 115.692 118.882C115.385 117.449 115.109 115.993 114.864 114.544C114.527 112.559 114.243 110.589 114.013 108.726C113.63 105.812 113.402 102.88 113.331 99.9415C113.331 98.0712 113.055 79.3142 112.986 74.4697L113.753 74.2704C113.753 75.0369 113.852 98.2321 113.86 99.9415C113.912 102.817 114.112 105.687 114.458 108.542C114.665 110.359 114.925 112.283 115.224 114.23C115.47 115.64 115.738 117.058 116.045 118.453C116.724 121.738 117.712 124.951 118.996 128.05L119.049 128.02ZM119.241 127.644C119.217 127.716 119.186 127.785 119.149 127.851C118.455 126.127 117.871 124.36 117.401 122.562C116.675 119.783 116.089 116.968 115.646 114.13C115.332 112.191 115.071 110.297 114.879 108.458C114.496 105.039 114.305 101.996 114.289 99.9032C114.289 98.1862 113.967 74.876 113.952 74.1938L114.718 73.9791C114.718 75.3512 115.209 105.622 115.209 107.875C115.276 110.582 115.594 113.276 116.16 115.924C116.97 119.881 117.996 123.791 119.233 127.636L119.241 127.644ZM117.585 67.3026C117.809 67.5175 117.961 67.7949 118.024 68.0984C118.086 68.4019 118.055 68.7172 117.935 69.0027C117.815 69.2882 117.61 69.5305 117.35 69.6978C117.089 69.865 116.784 69.9493 116.474 69.9395C114.504 69.9395 114.412 66.8734 116.474 66.7814C116.684 66.7901 116.891 66.8407 117.082 66.9302C117.273 67.0197 117.444 67.1463 117.585 67.3026ZM116.964 70.2538C116.857 75.5428 116.849 76.478 115.799 76.4933C114.964 76.4933 115.033 75.4815 115.033 75.4049C115.034 75.3869 115.029 75.3691 115.02 75.3539C115.01 75.3387 114.996 75.327 114.979 75.3206C114.979 74.554 114.918 69.4796 114.918 69.4796C115.133 69.8051 115.444 70.0548 115.809 70.1937C116.173 70.3326 116.572 70.3536 116.949 70.2538H116.964ZM76.1236 17.5625L80.4929 17.0949L118.934 22.6752C118.934 24.1623 119.026 115.425 119.026 116.299L116.78 116.943C116.711 116.591 116.635 116.23 116.566 115.878C116.002 113.253 115.682 110.582 115.608 107.898C115.608 105.645 115.04 78.5783 114.971 76.317C115.301 76.9916 116.619 77.1679 117.003 75.8265C117.386 74.485 117.233 71.6565 117.118 70.2001C117.373 70.1025 117.605 69.9538 117.8 69.7632C117.973 69.5874 118.11 69.3789 118.202 69.1499C118.294 68.9209 118.339 68.6759 118.335 68.4291C118.332 68.1823 118.279 67.9387 118.181 67.7125C118.082 67.4862 117.94 67.2817 117.762 67.111C117.557 66.9249 117.314 66.785 117.051 66.7007C116.787 66.6165 116.509 66.5898 116.234 66.6225C115.959 66.6552 115.695 66.7465 115.459 66.8903C115.222 67.0341 115.019 67.227 114.864 67.456V63.7996C114.864 63.7996 116.435 57.951 114.312 53.9497C111.246 48.17 103.749 46.1311 102.554 45.8398C102.5 45.3569 102.278 43.6475 102.071 42.3904C102.654 42.1655 103.16 41.7769 103.527 41.2713C103.66 41.0742 103.744 40.8491 103.775 40.6137C103.806 40.3782 103.781 40.1389 103.703 39.9145L103.657 39.7919C104.548 38.2957 104.823 36.512 104.424 34.8171C105.888 34.5795 105.589 33.537 106.041 32.6785C106.494 31.8199 107.452 30.9154 106.724 29.6123C105.995 28.3092 105.367 28.5775 104.723 28.1253C104.079 27.673 103.565 27.7267 102.577 27.972C101.588 28.2173 101.963 28.1789 101.159 27.7957C100.354 27.4124 99.6945 27.5734 98.8053 28.8075C97.9161 30.0416 99.0966 31.245 99.0966 31.245C95.4939 31.0151 93.8918 33.1154 93.6235 33.5063C93.5469 33.5063 92.9643 33.1997 91.9218 34.1042C90.8794 35.0087 91.9218 36.1815 90.956 36.8177C90.5881 37.0707 90.1895 37.3006 89.9289 37.5306C89.6851 37.7055 89.4813 37.9302 89.331 38.1898C88.5644 39.6386 91.7455 39.2936 88.9784 41.4016C87.7059 42.3751 88.9247 42.697 88.9784 43.3792C88.9784 43.6475 88.7714 43.7472 88.6028 43.6399C88.5875 43.6287 88.5685 43.624 88.5498 43.6269C88.5311 43.6297 88.5143 43.6399 88.5031 43.6552C88.4919 43.6704 88.4873 43.6895 88.4901 43.7082C88.493 43.7269 88.5032 43.7436 88.5184 43.7548C88.94 44.0614 89.5456 43.5555 88.8481 42.6204C88.3038 41.8538 89.216 41.8002 90.0055 41.003C90.4501 40.5507 90.5804 40.2365 90.5038 39.8915C90.2048 38.6497 88.3805 39.0177 90.9943 37.224C91.1093 40.3438 90.8564 39.9375 91.8375 39.9682C91.7839 41.8845 92.4814 43.8698 94.3364 44.6517C94.8726 44.8763 95.4492 44.9885 96.0304 44.9813L96.1224 46.0621C88.2502 48.446 84.4328 52.7692 79.8337 58.4645C79.1798 59.2443 78.578 60.0662 78.0323 60.9251V56.4562C78.0329 56.4301 78.0278 56.4042 78.0172 56.3804C78.0066 56.3565 77.9908 56.3353 77.971 56.3183C77.9325 56.2794 77.8801 56.2573 77.8253 56.2569L76.116 56.3029L76.1236 17.5625ZM74.238 56.7399L77.6414 56.6555C77.6414 57.744 77.6874 74.508 77.6874 74.9756L72.4366 75.7421C72.4366 75.5122 72.3677 68.3298 72.3447 67.479C72.3447 66.7737 72.0457 59.6143 72.0304 59.3001L74.1613 59.1544C74.2021 59.1507 74.2401 59.1324 74.2683 59.1028C74.2965 59.0732 74.3129 59.0343 74.3146 58.9935L74.238 56.7399ZM66.6877 57.0695L66.91 59.3691C66.9138 59.4131 66.9341 59.4541 66.9667 59.4839C66.9994 59.5137 67.042 59.5302 67.0863 59.53L69.3858 59.4304C69.3858 59.714 69.4472 64.1522 69.4625 64.7961C69.4778 65.44 69.8611 73.6572 69.8764 73.8948C69.2339 74.1798 68.6138 74.513 68.0214 74.8913C66.8303 74.9377 65.6374 74.9121 64.4494 74.8146C63.8187 74.7697 63.1945 74.6593 62.5867 74.485C62.5867 74.485 62.3108 66.5668 62.2648 65.6776C62.2264 64.9111 61.7359 57.3531 61.7129 57.0388L74.1 56.7628L74.0234 58.8401L67.2549 59.2081L67.0786 57.1384L66.6877 57.0695Z" fill="black"/>
<path fill-rule="evenodd" clip-rule="evenodd" d="M116.489 73.5578L116.144 72.3773C116.635 72.3237 116.574 71.7335 116.098 71.7335C116.004 71.7249 115.91 71.7539 115.837 71.8142C115.764 71.8744 115.717 71.9611 115.708 72.0554C115.713 72.1415 115.751 72.2224 115.814 72.282C115.876 72.3416 115.958 72.3756 116.045 72.3773L115.708 73.4965L116.489 73.5578ZM137.692 57.4453C137.66 57.5876 137.661 57.7351 137.694 57.877C137.727 58.0189 137.792 58.1515 137.883 58.2652C137.974 58.3788 138.09 58.4705 138.221 58.5335C138.353 58.5965 138.496 58.6292 138.642 58.6292C138.788 58.6292 138.932 58.5965 139.063 58.5335C139.194 58.4705 139.31 58.3788 139.401 58.2652C139.492 58.1515 139.557 58.0189 139.59 57.877C139.623 57.7351 139.624 57.5876 139.593 57.4453C139.61 57.3104 139.598 57.1733 139.558 57.0433C139.518 56.9132 139.451 56.7931 139.361 56.6911C139.271 56.589 139.161 56.5072 139.037 56.4512C138.913 56.3952 138.778 56.3662 138.642 56.3662C138.506 56.3662 138.372 56.3952 138.248 56.4512C138.124 56.5072 138.013 56.589 137.923 56.6911C137.833 56.7931 137.766 56.9132 137.726 57.0433C137.686 57.1733 137.674 57.3104 137.692 57.4453ZM138.052 57.4453C138.006 56.2495 139.286 56.2572 139.24 57.4453C139.202 58.4801 138.09 58.4955 138.052 57.4453Z" fill="black"/>
<path fill-rule="evenodd" clip-rule="evenodd" d="M141.953 60.7566C141.953 60.3274 141.746 55.8815 141.7 55.0536C141.624 53.9345 141.555 53.1526 141.555 53.1526C141.556 53.1278 141.549 53.1031 141.536 53.0823C141.522 53.0616 141.502 53.0459 141.478 53.0377L140.581 52.777C140.574 52.7578 140.563 52.7404 140.548 52.7259C140.534 52.7113 140.516 52.7 140.497 52.6927H140.42L136.787 52.9073C136.768 52.9087 136.751 52.9163 136.737 52.9288C136.723 52.9412 136.714 52.958 136.71 52.9763C136.71 53.7429 136.657 55.2759 136.664 56.8703C136.664 57.8515 136.764 62.6959 136.764 62.6959C136.768 62.7448 136.789 62.7906 136.825 62.8245C136.86 62.8584 136.907 62.8782 136.956 62.8799H140.689C140.74 62.8796 140.789 62.8605 140.827 62.8263L140.865 62.7726H141.884C141.914 62.7838 141.947 62.7838 141.976 62.7726C142 62.7478 142.014 62.715 142.015 62.6806C142.015 62.6806 141.984 61.8834 141.953 60.7566ZM137.117 62.4736C137.117 62.0137 136.825 53.6509 136.841 53.0453L140.282 52.9533C140.282 53.1143 140.436 61.7071 140.459 62.4736H137.117ZM140.85 62.5886C140.85 62.0521 140.574 53.122 140.566 52.961L141.332 53.237V55.069C141.332 55.9811 141.555 60.3427 141.585 60.772C141.639 61.6305 141.693 62.305 141.716 62.5503L140.85 62.5886ZM49.6094 38.9948C49.571 38.9914 49.5322 38.9964 49.4959 39.0093C49.4595 39.0223 49.4264 39.0429 49.3988 39.0699C49.3711 39.0968 49.3496 39.1293 49.3357 39.1653C49.3218 39.2013 49.3158 39.2399 49.3181 39.2784V39.9223C49.322 40.0017 49.3557 40.0766 49.4126 40.1321C49.4695 40.1876 49.5453 40.2194 49.6247 40.2213C49.6623 40.2213 49.6995 40.2137 49.734 40.1989C49.7685 40.1841 49.7997 40.1624 49.8255 40.1351C49.8513 40.1078 49.8713 40.0756 49.8843 40.0403C49.8972 40.005 49.9028 39.9675 49.9007 39.93C49.8777 39.5161 49.985 39.0178 49.6094 38.9948ZM92.8341 38.0367C92.8341 38.4123 92.7191 38.8952 93.0717 38.9105C93.4243 38.9258 93.3246 38.4659 93.3553 38.1056C93.3598 38.0714 93.3576 38.0366 93.3487 38.0033C93.3398 37.9699 93.3244 37.9387 93.3034 37.9112C93.2824 37.8838 93.2562 37.8608 93.2263 37.8436C93.1964 37.8263 93.1634 37.8151 93.1292 37.8105C93.095 37.806 93.0602 37.8083 93.0268 37.8172C92.9935 37.8261 92.9622 37.8415 92.9348 37.8625C92.9074 37.8835 92.8844 37.9097 92.8671 37.9395C92.8498 37.9694 92.8386 38.0024 92.8341 38.0367ZM97.1726 37.799C97.1382 37.7959 97.1034 37.7998 97.0706 37.8106C97.0377 37.8214 97.0074 37.8389 96.9815 37.8619C96.9556 37.8849 96.9348 37.9129 96.9202 37.9443C96.9056 37.9757 96.8976 38.0097 96.8967 38.0443V38.6269C96.8967 38.696 96.9241 38.7623 96.973 38.8112C97.0219 38.86 97.0882 38.8875 97.1573 38.8875C97.2264 38.8875 97.2927 38.86 97.3416 38.8112C97.3905 38.7623 97.4179 38.696 97.4179 38.6269V38.0903C97.4188 38.0204 97.3945 37.9525 97.3495 37.899C97.3044 37.8456 97.2417 37.8101 97.1726 37.799Z" fill="black"/>
</svg>
