<svg width="154" height="155" viewBox="0 0 154 155" fill="none" xmlns="http://www.w3.org/2000/svg">
<path d="M82.1101 70.8286C81.8265 70.8286 81.5122 71.0738 81.5658 71.3958C81.6367 71.5851 81.7732 71.7426 81.9505 71.8397C82.1278 71.9368 82.334 71.9669 82.5317 71.9247C83.1679 71.7024 82.823 70.7136 82.1101 70.8286ZM82.4857 71.7791C82.3502 71.7803 82.2162 71.7505 82.094 71.6921C81.9718 71.6336 81.8646 71.548 81.7805 71.4418C81.5812 71.0585 82.455 70.7749 82.6696 71.3115C82.7059 71.398 82.707 71.4953 82.6726 71.5826C82.6383 71.67 82.5712 71.7404 82.4857 71.7791ZM108.072 97.2279C108.072 97.1282 107.904 97.1206 107.904 97.2279C107.904 97.4502 108.042 98.7149 108.003 98.7609C107.711 98.8943 107.412 99.012 107.107 99.1135C106.999 99.1672 107.107 99.3128 107.183 99.2898C107.428 99.2423 107.669 99.1757 107.904 99.0905C108.103 99.0216 108.325 98.9602 108.356 98.7073C108.371 98.5693 108.08 97.4962 108.072 97.2279ZM104.094 102.402C103.818 104.096 105.129 104.855 106.271 102.939C106.392 102.741 106.47 102.52 106.499 102.29C106.528 102.06 106.508 101.826 106.44 101.605C106.125 100.769 104.324 100.861 104.094 102.402ZM22.5277 48.5762C28.039 31.4979 31.6647 29.1523 33.9796 20.3985C33.9786 20.3792 33.9716 20.3606 33.9594 20.3455C33.9473 20.3304 33.9307 20.3195 33.912 20.3144C33.8933 20.3093 33.8734 20.3103 33.8553 20.3171C33.8372 20.324 33.8217 20.3363 33.811 20.3525C31.5114 28.8303 25.5401 36.2427 22.313 48.5225C22.3095 48.5366 22.3088 48.5513 22.3109 48.5656C22.3131 48.58 22.318 48.5938 22.3255 48.6063C22.333 48.6187 22.3428 48.6296 22.3545 48.6382C22.3662 48.6469 22.3794 48.6531 22.3935 48.6567C22.4076 48.6602 22.4223 48.6609 22.4366 48.6588C22.451 48.6566 22.4648 48.6517 22.4773 48.6442C22.4897 48.6367 22.5006 48.6269 22.5092 48.6152C22.5179 48.6035 22.5241 48.5903 22.5277 48.5762ZM55.8027 29.8345C54.7697 36.081 53.2316 42.2335 51.2036 48.2312C51.1499 48.3769 51.3722 48.4305 51.4259 48.3002C53.6063 42.3351 55.148 36.1555 56.025 29.8652C56.002 29.7578 55.8027 29.7042 55.8027 29.8345ZM76.7674 63.7765C78.4387 59.383 79.3335 54.7325 79.4119 50.0326C79.4059 50.0118 79.3934 49.9934 79.3761 49.9804C79.3588 49.9674 79.3377 49.9603 79.3161 49.9603C79.2944 49.9603 79.2733 49.9674 79.2561 49.9804C79.2388 49.9934 79.2262 50.0118 79.2203 50.0326C79.0949 54.7015 78.196 59.3173 76.5604 63.6922C76.4991 63.8608 76.7214 63.9068 76.7674 63.7765ZM118.597 54.7851C118.52 58.3197 118.797 61.8532 119.425 65.3325C119.432 65.3589 119.447 65.3823 119.468 65.399C119.49 65.4157 119.516 65.4248 119.544 65.4248C119.571 65.4248 119.597 65.4157 119.619 65.399C119.64 65.3823 119.656 65.3589 119.662 65.3325C119.31 61.8142 118.827 58.3571 118.773 54.8157C118.768 54.7978 118.758 54.7818 118.744 54.7693C118.73 54.7569 118.713 54.7486 118.695 54.7454C118.676 54.7423 118.657 54.7443 118.64 54.7513C118.623 54.7583 118.608 54.77 118.597 54.7851ZM139.355 67.4252C136.595 59.8442 134.985 54.1872 135.062 45.625C135.056 45.6061 135.045 45.5894 135.029 45.5776C135.013 45.5657 134.994 45.5593 134.974 45.5593C134.954 45.5593 134.935 45.5657 134.919 45.5776C134.903 45.5894 134.891 45.6061 134.886 45.625C134.755 52.9607 135.944 60.8407 139.102 67.5248C139.155 67.6551 139.355 67.5631 139.355 67.4252ZM95.6623 17.5394C95.808 17.3017 95.808 16.8571 95.555 16.9261C95.3021 16.9951 95.3174 17.1714 95.3174 17.3784C95.3117 17.4205 95.3195 17.4634 95.3399 17.5007C95.3603 17.5381 95.3921 17.5679 95.4306 17.5859C95.4691 17.6039 95.5124 17.6091 95.5541 17.6007C95.5958 17.5923 95.6337 17.5708 95.6623 17.5394ZM104.654 22.4298C104.654 22.2535 104.5 22.0542 104.309 22.1232C104.231 22.1447 104.164 22.1963 104.124 22.2667C104.084 22.3371 104.073 22.4205 104.094 22.4988C104.118 22.5588 104.161 22.6091 104.216 22.642C104.272 22.675 104.337 22.6885 104.401 22.6806C104.465 22.6727 104.524 22.6438 104.57 22.5984C104.616 22.5531 104.645 22.4937 104.654 22.4298ZM147.081 108.312C144.752 108.06 142.411 107.927 140.067 107.913C139.094 107.913 137.653 107.814 136.81 108.481C137.423 104.755 133.307 101.198 127.772 103.498C126.626 103.975 125.557 104.618 124.599 105.407C123.861 106.057 123.281 106.867 122.905 107.775C119.371 105.399 115.538 109.393 117.539 111.401C115.888 111.041 114.178 111.041 112.526 111.401C111.399 111.639 109.291 112.275 109.46 113.823C109.629 115.372 111.844 115.356 113.001 115.418C122.146 115.947 132.318 116.184 141.363 114.651C142.345 114.604 143.293 114.274 144.092 113.701C144.374 113.432 144.552 113.073 144.596 112.686C144.639 112.299 144.545 111.909 144.329 111.585C145.254 111.532 146.172 111.399 147.074 111.186C147.894 110.987 149.204 110.772 149.802 110.09C151.105 108.588 147.71 108.396 147.081 108.312ZM146.437 111.01C144.061 111.508 143.141 111.056 143.141 111.332C143.141 111.608 145.05 112.175 143.869 113.494C142.988 114.49 139.431 114.689 138.327 114.827C136.434 115.073 134.533 115.241 132.647 115.356C130.264 115.494 112.112 115.479 110.571 114.682C109.345 114.053 109.858 112.842 110.863 112.275C112.25 111.508 115.462 111.041 118.528 112.03C118.743 112.099 118.819 111.777 118.62 111.7C116.949 111.071 117.026 109.531 118.152 108.404C119.532 107.024 121.471 107.262 123.02 108.258C123.411 108.488 123.349 107.346 123.917 106.656C125.623 104.638 128.053 103.369 130.685 103.122C135.008 102.839 137.323 106.258 136.334 109.101C136.273 109.27 136.549 109.385 136.626 109.224C137.185 108.059 138.987 108.205 140.075 108.228C141.455 108.228 146.897 108.542 148.239 108.756C149.925 109.086 150.416 110.182 146.437 111.01ZM69.7459 134.328C68.6547 133.794 67.4643 133.494 66.2506 133.446C64.5182 133.247 62.7935 133.071 61.0535 132.964C57.3765 132.705 53.6832 132.795 50.0231 133.232C48.559 133.477 49.3332 133.676 49.8468 132.465C50.4524 131.07 49.6782 129.445 48.5437 128.571C45.8378 126.548 41.5606 127.314 38.6631 128.763C38.9196 128.191 39.0152 127.559 38.9395 126.936C38.8639 126.314 38.6199 125.724 38.2339 125.229C37.0611 123.635 34.8458 122.93 32.9755 122.7C28.1847 122.048 25.5631 125.168 26.0307 128.012C21.0636 126.525 19.5765 130.196 21.2705 131.844C19.905 131.479 18.4654 131.495 17.1083 131.89C16.1501 132.228 15.4066 133.232 15.7745 134.19C14.778 133.822 13.3676 134.121 12.4401 134.274C10.5387 134.585 8.68094 135.12 6.90576 135.869C6.26954 136.137 4.41454 136.789 4.4452 137.731C4.4452 138.919 16.3034 139.264 20.1208 138.628C19.7145 139.548 20.55 140.161 21.5542 140.468C24.9567 141.271 28.5305 140.91 31.703 139.441C33.0751 138.82 33.7803 139.87 39.4373 140.698C42.3144 141.078 45.2369 140.93 48.0608 140.261C48.9653 140.062 50.3144 139.824 50.9123 139.034C51.0583 138.857 51.1461 138.639 51.1639 138.41C51.1818 138.181 51.1287 137.952 51.0119 137.754C52.6992 137.862 54.3915 137.862 56.0787 137.754C58.294 137.754 60.5016 137.754 62.7169 137.624C64.5412 137.494 69.9836 137.486 70.5738 135.999C70.8267 135.263 70.2595 134.635 69.7459 134.328ZM68.5042 136.628C65.9056 137.202 52.9359 137.685 50.4984 137.271C50.456 137.266 50.4129 137.275 50.3773 137.299C50.3416 137.323 50.3157 137.358 50.3045 137.4C50.2932 137.441 50.2973 137.485 50.3161 137.523C50.3348 137.562 50.3669 137.592 50.4064 137.609C51.2572 137.931 50.6057 138.82 50.2301 139.088C50.0154 139.249 47.9305 140.223 44.3814 140.483C41.4166 140.635 38.446 140.33 35.574 139.579C34.5032 139.246 33.4158 138.97 32.3162 138.751C31.1703 139.357 29.959 139.83 28.7059 140.161C26.4983 140.667 19.2546 140.874 20.5577 138.529C20.7876 138.49 20.642 138.038 20.4197 138.222C16.6254 138.896 6.88277 138.513 5.45702 137.938C4.37621 137.494 5.12741 137.172 5.69464 136.789C7.40157 135.847 9.24586 135.18 11.16 134.811C12.4324 134.52 14.9313 133.791 16.1195 134.673C16.2574 134.78 16.4107 134.558 16.2958 134.443C15.4143 133.508 16.3877 132.404 17.3152 132.143C19.3195 131.756 21.3935 131.966 23.2789 132.749C23.4322 132.81 23.5012 132.55 23.3478 132.511C21.6461 131.944 20.9486 131.178 20.9256 130.365C20.9245 129.971 21.031 129.584 21.2336 129.247C21.4363 128.909 21.7274 128.633 22.0754 128.449C23.3402 127.682 24.8809 128.004 26.207 128.449C26.2372 128.455 26.2683 128.453 26.2976 128.444C26.3269 128.434 26.3535 128.418 26.3748 128.396C26.3962 128.374 26.4116 128.347 26.4198 128.317C26.428 128.287 26.4286 128.256 26.4216 128.226C26.2695 127.474 26.3326 126.693 26.6038 125.975C26.8749 125.256 27.3431 124.628 27.9547 124.164C30.3309 122.171 34.7921 122.953 36.9614 124.478C38.4102 125.513 39.261 127.59 38.0269 129.131C37.9043 129.277 38.0269 129.529 38.2492 129.414C40.6073 127.984 43.4076 127.466 46.1215 127.958C49.5709 128.671 50.414 131.453 49.0266 133.063C48.6127 133.492 47.7618 133.561 47.7388 133.715C47.6315 134.374 51.3875 133.094 56.6076 133.193C59.9538 133.25 63.295 133.475 66.6185 133.868C67.6456 133.991 69.6846 134.136 70.1982 135.217C70.6198 136.152 69.1327 136.513 68.5042 136.612V136.628ZM102.906 33.0309C102.14 33.2379 101.043 33.6595 100.829 34.564C100.652 35.3305 101.273 35.6601 101.91 35.7598C104.14 36.1124 107.636 35.6678 108.525 35.6525C109.172 35.7138 109.8 35.9041 110.372 36.212C111.669 36.6805 113.053 36.8608 114.427 36.7403C115.801 36.6199 117.133 36.2016 118.329 35.5145C118.919 35.1696 119.279 34.748 119.984 34.748C121.456 34.6636 122.905 34.748 124.369 34.5027C125.519 34.3264 127.197 34.1961 128.156 33.4832C128.268 33.4162 128.366 33.3259 128.441 33.2184C128.517 33.1109 128.568 32.9886 128.593 32.8597C128.618 32.7307 128.615 32.5979 128.584 32.4702C128.554 32.3425 128.496 32.2227 128.416 32.1188C127.772 31.3062 124.438 30.8617 120.897 30.9C120.13 30.9 118.183 31.1376 118.183 31.1376C117.539 27.6039 113.139 27.3509 111.69 30.3711C111.321 30.2225 110.92 30.1723 110.525 30.2254C109.621 30.3327 109.115 31.5439 109.215 32.2951C108.52 32.3001 107.855 32.575 107.36 33.0616C106.93 33.4832 106.8 33.3222 106.24 33.1383C105.163 32.7813 104.005 32.744 102.906 33.0309ZM107.03 33.7285C107.061 33.744 107.097 33.748 107.13 33.7395C107.164 33.7311 107.194 33.7109 107.214 33.6825C107.549 33.1379 108.084 32.7463 108.705 32.5916C109.325 32.4368 109.981 32.5313 110.533 32.8546C110.663 32.9313 110.771 32.732 110.64 32.6553C110.281 32.4393 109.877 32.3058 109.46 32.2644C109.46 30.8693 110.564 29.9648 111.759 30.7313C111.779 30.7428 111.8 30.7497 111.822 30.7515C111.844 30.7533 111.867 30.7501 111.888 30.7419C111.908 30.7338 111.927 30.721 111.942 30.7045C111.957 30.6881 111.968 30.6684 111.974 30.647C112.186 29.9814 112.619 29.4081 113.201 29.0219C113.783 28.6356 114.479 28.4597 115.175 28.5232C115.87 28.5867 116.523 28.8858 117.026 29.3709C117.528 29.8561 117.85 30.4983 117.938 31.1913C117.947 31.2223 117.967 31.2494 117.993 31.2687C118.019 31.288 118.051 31.2984 118.083 31.2986C120.1 31.0738 122.134 31.0558 124.154 31.2449C126.454 31.4059 129.689 32.0114 127.795 33.2532C126.4 34.2037 122.468 34.3877 120.544 34.357C119.67 34.357 119.57 34.2191 118.919 34.6943C117.91 35.4177 116.764 35.9269 115.551 36.1906C114.339 36.4542 113.085 36.4668 111.867 36.2274C111.042 36.0144 110.237 35.7323 109.46 35.3842C108.852 35.2461 108.221 35.2461 107.613 35.3842C106.593 35.4608 102.469 35.6985 101.756 35.3842C100.07 34.6177 102.124 33.5752 102.569 33.4142C103.293 33.1613 104.061 33.0554 104.827 33.1028C105.593 33.1502 106.342 33.3499 107.03 33.6902V33.7285ZM51.3722 21.0961C52.3367 21.0383 53.2885 20.8474 54.2007 20.5288C54.2007 21.4487 56.8682 22.3838 59.3594 21.2954L60.4019 20.7664C61.1014 20.9799 61.813 21.1514 62.5329 21.28C65.2739 21.6518 68.0615 21.4773 70.7348 20.7664C71.4323 20.5518 72.4671 20.2912 72.6894 19.471C72.7455 19.1409 72.6947 18.8015 72.5444 18.5023C72.3942 18.2031 72.1522 17.9597 71.8539 17.8076C71.0332 17.477 70.1199 17.4579 69.286 17.754C68.7709 16.8542 67.9574 16.1628 66.9864 15.7993C66.219 15.5583 65.4017 15.5227 64.6162 15.6962C63.8307 15.8697 63.1044 16.2462 62.5099 16.7882C62.1517 16.2681 61.6529 15.8608 61.0717 15.6138C60.4906 15.3667 59.8512 15.2902 59.2281 15.3931C58.6051 15.496 58.0243 15.7741 57.5534 16.1949C57.0826 16.6156 56.7413 17.1617 56.5693 17.7693C56.2752 17.7867 55.9876 17.8636 55.7241 17.9953C55.4606 18.1271 55.2266 18.311 55.0362 18.5358C53.5961 18.0687 52.0607 17.9764 50.575 18.2676C49.7625 18.4362 48.2754 18.7811 47.7618 19.586C46.8113 21.1804 50.6517 21.142 51.3722 21.0961ZM55.1359 18.8501C55.1616 18.8574 55.189 18.8561 55.2139 18.8465C55.2388 18.8368 55.2598 18.8192 55.2738 18.7965C55.4309 18.582 55.6286 18.4006 55.8557 18.2626C56.0828 18.1246 56.3349 18.0327 56.5976 17.9921C56.8602 17.9516 57.1283 17.9631 57.3865 18.0262C57.6447 18.0892 57.8879 18.2025 58.1023 18.3595C58.179 18.4209 58.2863 18.2829 58.2097 18.2216C57.8499 17.9432 57.4143 17.7802 56.9602 17.754C57.164 17.2266 57.5097 16.7659 57.959 16.4227C58.4083 16.0795 58.9437 15.8672 59.5061 15.8093C60.0685 15.7514 60.636 15.8501 61.1458 16.0946C61.6556 16.339 62.0879 16.7196 62.3949 17.1944C62.4092 17.2135 62.4277 17.2289 62.449 17.2396C62.4703 17.2502 62.4938 17.2557 62.5176 17.2557C62.5414 17.2557 62.5648 17.2502 62.5861 17.2396C62.6074 17.2289 62.6259 17.2135 62.6402 17.1944C63.3437 16.414 64.3284 15.9449 65.3777 15.8902C66.4271 15.8356 67.4551 16.1999 68.2359 16.9031C69.1097 17.6697 69.0024 18.1756 69.2937 18.1066C70.0602 17.9073 71.026 17.5777 71.7313 18.0376C72.9117 18.8041 72.4978 19.9079 71.21 20.3372C69.0527 20.986 66.7971 21.2456 64.5489 21.1037C63.2458 21.0501 61.6284 21.0424 60.4633 20.3908C60.4417 20.3763 60.4164 20.3686 60.3904 20.3686C60.3645 20.3686 60.3391 20.3763 60.3176 20.3908C59.5012 21.0141 58.5268 21.3964 57.5044 21.4947C56.5846 21.579 54.6683 21.4946 54.5533 20.2605C54.5527 20.2402 54.5476 20.2202 54.5383 20.202C54.529 20.1839 54.5159 20.168 54.4998 20.1556C54.4836 20.1431 54.4649 20.1344 54.445 20.13C54.4251 20.1256 54.4045 20.1257 54.3847 20.1302C53.3317 20.5864 52.2043 20.8462 51.0579 20.8968C50.2254 20.8896 49.3957 20.7971 48.582 20.6208C46.4204 19.9999 50.368 17.1484 55.1359 18.8501ZM104.332 94.3534C104.321 94.3325 104.304 94.3151 104.284 94.303C104.264 94.2908 104.24 94.2844 104.217 94.2844C104.193 94.2844 104.17 94.2908 104.15 94.303C104.13 94.3151 104.113 94.3325 104.102 94.3534C104.008 94.5623 103.971 94.7924 103.995 95.0203C103.98 95.2534 104.009 95.4872 104.079 95.7101C104.148 95.8711 104.408 95.8098 104.355 95.6335C104.217 94.9819 104.47 94.8133 104.332 94.3534ZM110.035 93.5869C110.015 93.5743 109.992 93.5675 109.968 93.5671C109.944 93.5666 109.921 93.5727 109.901 93.5845C109.88 93.5963 109.863 93.6135 109.852 93.6341C109.84 93.6548 109.835 93.6782 109.835 93.7018C109.835 93.9548 110.142 94.2691 110.104 94.9666C110.104 95.0032 110.118 95.0383 110.144 95.0642C110.17 95.09 110.205 95.1046 110.242 95.1046C110.278 95.1046 110.313 95.09 110.339 95.0642C110.365 95.0383 110.38 95.0032 110.38 94.9666C110.487 94.568 110.403 93.7708 110.035 93.5869Z" fill="black"/>
<path d="M140.497 71.0049C140.405 70.729 139.056 70.7826 138.542 70.8516C139.094 70.5833 139.669 69.8245 139.493 69.6328C139.125 69.2189 138.251 69.6328 137.638 69.9164C138.036 69.4872 138.443 68.9046 137.806 68.8356C137.17 68.7666 136.273 69.5332 135.813 69.8168C135.112 70.2512 134.466 70.7685 133.889 71.3575C133.843 71.2655 133.79 71.1812 133.744 71.0969C133.726 71.0693 133.701 71.0483 133.67 71.0372C133.639 71.0261 133.606 71.0255 133.575 71.0356C131.804 71.6565 130.302 70.9666 126.247 71.6795C122.959 72.2697 121.832 73.5498 120.161 74.508C117.677 75.9414 115.861 74.508 112.411 75.3511C110.817 75.7651 109.82 76.5163 108.226 77.4131C107.038 76.156 103.627 75.7267 103.627 75.7114C91.6152 67.6322 75.656 62.4274 61.6362 68.552C59.421 69.5069 57.3555 70.7772 55.5039 72.3233C54.5025 72.0703 53.4629 72.0054 52.4378 72.1317C50.7591 72.3004 50.3375 71.5262 49.2644 70.9283C47.7313 70.0544 45.861 70.292 44.1363 70.5527C44.4378 69.9191 44.6741 69.2564 44.8415 68.575C44.8875 67.3486 42.8178 66.7047 44.9258 62.4428C45.2571 61.8973 45.4615 61.2843 45.5237 60.6491C45.5237 59.7216 44.8951 58.9244 44.5579 58.0582C43.5154 55.3983 45.3244 54.0723 45.5544 52.2249C45.7077 50.7992 44.8798 49.588 44.8721 48.009C44.8721 47.5644 45.1328 47.1122 45.0561 46.6906C44.5671 46.5601 44.0705 46.4602 43.569 46.3916C43.569 46.1233 43.569 45.8627 43.5307 45.6251H43.6534C44.1133 45.2265 45.0254 42.7889 44.2283 41.8384C43.96 41.5088 36.448 38.0748 36.057 39.5388C35.8807 40.221 36.5093 40.9339 37.0995 41.3248C39.3378 42.7889 39.1692 44.1993 39.7211 44.3143C39.5831 44.7666 39.4374 45.2112 39.2765 45.6557C38.9479 45.6041 38.6118 45.6304 38.2953 45.7324C37.6054 46.039 37.8201 46.5909 37.6821 47.2655C37.2298 49.749 35.2292 52.0869 34.2327 54.3942C33.7283 55.8018 33.4389 57.2773 33.3742 58.7711C33.0752 61.2163 33.7498 64.0908 32.8913 66.3751C32.487 67.2969 32.0262 68.1929 31.5115 69.0579C30.0628 71.8251 30.1394 74.9985 31.0823 76.8305C31.3965 77.4208 31.8488 77.919 32.2167 78.4786C32.8836 79.4904 32.9832 81.2688 33.6961 82.1196C34.202 82.7098 35.4898 82.8861 36.4863 82.8861C36.9845 82.6255 37.4675 82.3189 37.9504 82.1196C40.25 81.0158 41.3231 82.7942 43.3161 82.2269C44.7112 81.8283 45.8993 80.7475 47.4247 81.0541C47.5243 81.0541 47.4783 81.2228 47.3787 81.2074C45.585 80.8625 44.3126 82.4875 42.5955 82.6638C41.6527 82.7635 40.8479 82.2652 39.9357 82.1579C38.7016 82.0046 37.7204 82.6408 36.6933 83.2157C34.8153 84.2582 32.0941 83.6143 30.1624 84.3885C29.9401 84.4882 27.4872 85.6533 27.4949 85.661C26.9353 84.3732 27.3263 82.9091 27.4949 81.514C27.8787 79.7262 27.8235 77.8719 27.3339 76.11C26.9417 75.1621 26.499 74.2358 26.0078 73.3352C24.789 70.269 26.6824 67.0343 26.1995 64.1368C25.9082 62.9257 25.1416 62.0518 25.0497 60.0972C25.0497 59.5759 25.2643 59.0317 25.2106 58.5641C24.901 58.4586 24.583 58.3791 24.2601 58.3265V57.2687C24.4288 57.3223 24.4594 57.2227 24.4748 57.192C24.922 56.6566 25.1901 55.9945 25.2413 55.2987C25.264 54.8965 25.1902 54.4946 25.0262 54.1266C24.8623 53.7586 24.6127 53.4352 24.2985 53.1831C23.9459 52.9608 17.2157 51.696 16.6332 51.65C15.583 51.512 15.5907 53.0758 17.2157 54.0416C17.8213 54.4095 19.4617 54.9844 19.9216 56.1802C19.9216 56.2262 19.9829 56.4485 20.1055 56.4868C20.0519 57.0234 19.9676 57.5523 19.8756 58.0812H18.5725C18.5725 58.0812 17.1237 63.6386 16.8631 64.0985C15.7516 66.0685 14.3259 68.0001 14.0729 70.315C13.843 72.308 14.5482 74.3393 14.1649 76.3093C13.8277 77.9957 12.7392 79.3754 11.9726 80.9545C8.90652 86.9871 12.2869 88.8191 13.659 91.7472C14.6172 93.7862 14.2339 96.0321 15.4757 97.9945C16.0499 98.9174 16.816 99.7058 17.7221 100.306C18.6281 100.907 19.6527 101.305 20.7264 101.475C23.2023 101.812 25.7165 100.877 28.1848 101.275C29.2403 101.501 30.2798 101.795 31.2969 102.157C34.516 103.084 37.9431 102.993 41.1085 101.896C42.6415 101.367 44.0749 100.608 45.6617 100.455C47.5243 100.263 48.8121 100.831 50.5445 101.49C50.8894 102.456 51.8169 102.601 52.7597 102.9C56.6092 104.209 60.5787 105.133 64.6103 105.66C63.0772 106.426 61.5442 107.024 60.3944 108.335C59.2031 109.669 58.5669 111.407 58.616 113.195C58.755 115.057 59.5928 116.799 60.9616 118.07C61.883 118.927 62.5826 119.995 63.0006 121.182C63.219 122.154 63.5482 123.098 63.9817 123.995C64.3928 124.768 64.9556 125.451 65.6366 126.001C66.3175 126.552 67.1026 126.959 67.9447 127.199C70.183 127.843 71.6011 127.652 73.6247 129.943C74.8971 131.385 76.0009 132.887 78.0246 133.217C79.1969 133.335 80.3783 133.335 81.5506 133.217C82.1332 133.217 84.8467 133.102 85.0843 134.09C85.1303 134.29 85.3909 134.221 85.4063 134.044C85.4375 133.711 85.5366 133.388 85.6976 133.094C86.2101 133.912 86.8117 134.67 87.4912 135.355C88.0125 135.869 88.802 136.766 89.5609 136.888C90.496 137.065 89.9901 136.221 89.4229 135.493C89.9066 135.841 90.4196 136.146 90.956 136.405C91.2012 136.52 91.6765 136.689 91.8298 136.321C91.9831 135.953 91.4695 135.554 91.2779 135.386C91.0863 135.217 90.9176 135.041 90.726 134.865C91.7915 135.439 93.0256 135.93 93.1482 135.24C93.2326 134.788 92.512 134.589 91.5692 133.96C92.1058 134.113 92.742 134.236 92.9106 133.96C93.2172 133.431 92.1058 133.04 91.6152 132.726C91.2779 132.519 90.9023 132.289 90.542 132.082C91.2242 131.975 92.3587 131.66 91.9448 130.986C91.6458 130.495 90.634 130.986 88.1121 130.986C88.3727 130.822 88.6283 130.677 88.8787 130.549C89.0166 130.465 88.9247 130.212 88.7637 130.273C88.1888 130.488 87.9282 128.426 87.8362 128.096C87.2919 125.866 86.1728 123.827 84.1185 122.769C82.8154 122.102 81.6963 121.619 80.9451 120.285C79.6956 118.055 79.412 116.805 76.8441 116.131C85.276 112.743 92.397 107.377 99.4031 101.743C100.239 105.299 105.052 106.978 108.509 103.567C111.07 101.038 111.806 96.3847 111.767 96.1854C112.58 95.6335 112.587 95.4189 112.748 94.3381C112.956 93.1698 113.018 91.9803 112.932 90.7967C113.239 90.2136 113.516 89.6149 113.76 89.0031C117.294 87.585 118.559 87.7766 120.544 86.7035C121.847 85.9983 123.02 85.0784 124.285 84.3119C125.617 83.5809 127.029 83.0049 128.493 82.5949C131.444 81.629 132.648 79.5287 134.119 77.0835C134.422 76.7058 134.696 76.3061 134.939 75.8877C135.039 75.3017 135.039 74.7031 134.939 74.117C135.246 74.2167 135.553 74.301 135.859 74.393C136.166 74.485 137.293 75.1212 137.592 74.7992C138.044 74.3163 137.208 73.7261 136.672 73.4348C137.376 73.3402 138.085 73.2865 138.795 73.2738C139.194 73.2738 139.976 73.2738 140.221 72.8293C140.466 72.3847 139.845 72.17 139.178 72.0627C139.845 71.8711 140.673 71.5415 140.497 71.0049ZM39.5984 45.7094C39.744 45.2801 39.882 44.8432 39.997 44.4063C41.1456 44.658 42.2635 45.0332 43.3314 45.5254V46.3763C40.8785 46.062 40.5566 45.8397 39.5984 45.7171V45.7094ZM23.9305 58.2805C23.095 58.1809 20.8644 58.0812 20.2052 58.0735C20.2818 57.583 20.3278 57.0924 20.3585 56.6018H20.4275C21.6268 56.6709 22.8147 56.874 23.9688 57.2074C23.9612 57.56 23.9459 57.9279 23.9305 58.2805ZM103.374 75.7651C102.744 75.6731 102.109 75.6347 101.473 75.6501C99.8629 75.728 98.289 76.1533 96.8589 76.8966C95.4289 77.6399 94.1765 78.6837 93.1877 79.9565C92.1989 81.2293 91.4971 82.7008 91.1304 84.2703C90.7637 85.8397 90.7408 87.4699 91.0633 89.049C91.1456 90.1747 91.3408 91.2892 91.6458 92.3758C90.5839 92.7798 89.4813 93.0677 88.3574 93.2343C89.8292 92.1075 90.0591 89.325 89.4076 87.8149C88.9795 86.8546 88.3116 86.0205 87.4682 85.3927C83.6739 80.027 82.0182 75.88 80.3855 70.3764C84.3945 70.2307 88.4034 70.0008 92.42 69.8781C96.2551 71.4773 99.9239 73.4491 103.374 75.7651ZM98.008 95.6949C97.3748 95.5479 96.8228 95.1621 96.4672 94.6179C96.1116 94.0738 95.9798 93.4133 96.0994 92.7744C96.1387 92.4488 96.2454 92.135 96.4126 91.8529C96.5799 91.5708 96.8041 91.3267 97.071 91.1361C97.3379 90.9455 97.6415 90.8125 97.9626 90.7458C98.2837 90.679 98.6151 90.6798 98.9359 90.7483C99.2566 90.8167 99.5596 90.9512 99.8254 91.1432C100.091 91.3351 100.314 91.5804 100.48 91.8633C100.646 92.1463 100.751 92.4607 100.789 92.7864C100.826 93.1122 100.796 93.4423 100.699 93.7555C100.59 94.3732 100.241 94.9225 99.728 95.2832C99.215 95.6439 98.58 95.7864 97.962 95.6795L98.008 95.6949ZM50.4371 79.0611C51.1755 77.6214 52.084 76.2755 53.143 75.0522C62.395 64.4741 78.8831 64.2441 92.0521 69.6865C88.1061 69.5991 84.1585 69.7578 80.2322 70.1617C80.2204 70.1626 80.2088 70.166 80.1984 70.1716C80.188 70.1772 80.1788 70.185 80.1716 70.1944C80.1643 70.2038 80.1592 70.2146 80.1564 70.2262C80.1536 70.2377 80.1534 70.2497 80.1555 70.2614C81.4538 75.579 83.7792 80.5916 87.0007 85.0171C85.207 83.806 82.8921 83.1314 81.0064 82.5105C73.353 80.1788 65.412 78.925 57.4126 78.7852C55.6709 78.6661 53.9449 79.1806 52.5528 80.2339C51.4632 81.0924 50.6916 82.2903 50.3605 83.6373C49.2184 82.2039 49.594 80.7092 50.4371 79.0611ZM50.5215 83.8673C50.8572 82.565 51.6013 81.4044 52.6448 80.5559C54.0032 79.4925 55.7066 78.9684 57.4279 79.0841C64.1193 79.1992 70.7754 80.0813 77.2657 81.7133C82.0182 82.9705 89.5302 84.9404 89.5302 89.5626C89.5302 90.7891 89.078 92.6287 87.9052 93.2803C85.8659 93.5007 83.808 93.4827 81.7729 93.2266C74.6093 92.195 67.5061 90.78 60.494 88.9877C57.1136 88.0985 52.7367 86.5425 50.5215 83.8673ZM90.9866 130.978C91.8068 130.84 91.7531 131.254 91.5768 131.438C91.1237 131.676 90.624 131.812 90.1128 131.837C90.0854 131.838 90.059 131.847 90.0374 131.864C90.0158 131.881 90.0001 131.904 89.9924 131.931C89.9848 131.957 89.9856 131.985 89.9949 132.011C90.0041 132.037 90.0212 132.059 90.0438 132.074C90.4654 132.335 90.9023 132.565 91.3086 132.841C91.731 133.041 92.1339 133.279 92.512 133.554C92.7343 133.776 92.4354 133.891 91.9601 133.776C90.8333 133.607 90.6723 133.232 89.8598 132.818C89.8309 132.806 89.7987 132.806 89.7692 132.816C89.7398 132.826 89.7149 132.846 89.6991 132.873C89.6833 132.9 89.6777 132.932 89.6833 132.962C89.6889 132.993 89.7053 133.021 89.7295 133.04C90.6034 133.577 91.3929 134.205 92.2897 134.719C92.5503 134.872 93.1406 135.393 92.489 135.332C91.9866 135.194 91.5008 135.001 91.0403 134.757C90.4213 134.458 89.8289 134.107 89.2696 133.707C89.1316 133.607 89.0013 133.837 89.1393 133.929C89.8892 134.472 90.5895 135.08 91.2319 135.746C91.5155 136.513 90.4654 135.746 90.2048 135.616C89.6551 135.28 89.1229 134.917 88.6104 134.527C88.5031 134.435 88.3114 134.527 88.4111 134.688C88.963 135.455 90.1128 136.566 89.2773 136.482C88.963 136.482 88.5107 135.976 88.3421 135.792C87.375 134.932 86.5384 133.935 85.8585 132.833C86.3729 132.135 87.0284 131.553 87.7825 131.124C89.6222 131.147 90.1818 130.971 90.9866 130.978ZM91.0939 107.699C86.5209 110.986 81.6041 113.767 76.4302 115.993C75.5252 115.877 74.6841 115.465 74.0386 114.82C73.3334 113.977 73.2721 112.796 72.3676 112.083C72.2756 112.007 72.1453 112.137 72.2373 112.214C73.1801 112.98 73.2031 114.314 74.0463 115.165C75.3571 116.476 78.0399 115.709 79.8183 118.637C80.2416 119.598 80.7549 120.517 81.3513 121.381C82.9304 123.144 85.5979 122.416 87.1846 127.161C87.5526 128.242 87.6445 129.867 88.2654 130.449C86.993 131.178 85.5213 132.136 85.1457 133.577C84.5784 133.033 83.2523 132.918 82.6621 132.887C80.5158 132.78 78.1549 133.5 76.2309 132.205C74.7822 131.231 73.9313 129.591 72.5746 128.533C71.2178 127.475 69.3551 127.345 67.7071 126.808C65.4075 126.042 64.0967 124.125 63.4988 121.895C62.7706 119.158 62.3874 119.243 60.632 117.204C59.8336 116.325 59.2958 115.242 59.0792 114.074C58.8625 112.907 58.9756 111.703 59.4056 110.596C60.2181 108.534 61.8661 107.315 63.7978 106.38C65.5148 105.545 66.9635 104.763 67.983 103.092C68.5367 102.014 69.322 101.071 70.2826 100.332C71.3451 99.6206 72.599 99.249 73.8777 99.2669C73.8985 99.2609 73.9168 99.2484 73.9298 99.2311C73.9429 99.2138 73.9499 99.1927 73.9499 99.1711C73.9499 99.1494 73.9429 99.1284 73.9298 99.1111C73.9168 99.0938 73.8985 99.0812 73.8777 99.0753C72.1424 99.0504 70.4675 99.7115 69.2171 100.915C67.9984 102.111 67.5998 104.111 64.9859 105.453C61.2513 105.012 57.5694 104.203 53.9939 103.038C52.7827 102.655 51.0044 102.463 50.7131 101.022C50.6123 100.458 50.561 99.8861 50.5598 99.3129C50.4135 94.5555 50.6905 89.7944 51.3876 85.0861C55.5959 88.5508 62.0194 89.7543 67.2932 90.8887C71.6317 91.8239 76.0086 92.6824 80.4162 93.3033C82.6691 93.6602 84.9558 93.7554 87.2306 93.5869C90.0515 96.1088 90.8486 98.485 90.91 101.306C91.0633 103.038 91.1859 105.399 91.0633 107.699H91.0939ZM93.6311 105.844C94.3977 100.854 94.0911 96.607 91.2779 92.7131L91.7072 92.5521C92.7036 95.8558 94.3594 97.2126 96.3063 97.9178C96.15 98.337 96.0827 98.7841 96.1088 99.2308C96.1348 99.6774 96.2537 100.114 96.4578 100.512C96.662 100.91 96.9468 101.261 97.2942 101.543C97.6416 101.825 98.044 102.031 98.4756 102.149C96.8889 103.368 95.2715 104.617 93.6311 105.851V105.844ZM108.257 103.391C104.562 107.017 99.5564 104.709 99.3571 100.585C99.3521 100.57 99.3423 100.557 99.3293 100.547C99.3162 100.538 99.3005 100.533 99.2843 100.533C99.2682 100.533 99.2524 100.538 99.2394 100.547C99.2263 100.557 99.2165 100.57 99.2115 100.585C99.2126 100.886 99.2408 101.186 99.2958 101.482L98.6979 101.95C97.872 101.646 97.16 101.094 96.6589 100.371C96.4511 100.002 96.3288 99.5922 96.3009 99.1702C96.273 98.7483 96.3404 98.3255 96.498 97.9331C98.6826 98.6307 99.8937 98.0175 99.2192 95.8712C101.292 97.2202 103.699 97.966 106.172 98.0251C106.172 98.0251 106.555 96.4231 107.896 96.6684C108.41 96.7603 108.893 97.6878 109.207 97.6648C109.527 97.5738 109.825 97.4172 110.081 97.2049C110.562 96.9234 111.028 96.6163 111.476 96.2851C110.824 98.8453 110.227 101.459 108.257 103.391ZM112.396 94.913C112.143 95.8175 109.836 97.2126 109.552 97.3352C109.015 97.5115 109.092 97.3352 108.785 97.044C108.518 96.7352 108.144 96.5378 107.739 96.491C107.333 96.4442 106.924 96.5512 106.593 96.791C106.328 97.0815 106.12 97.4196 105.98 97.7875C105.98 97.7875 104.317 97.6955 103.803 97.5882C102.173 97.2299 100.617 96.5919 99.2038 95.7025C99.5729 95.5497 99.9024 95.3151 100.168 95.0163C100.433 94.7175 100.626 94.3624 100.734 93.9778C100.842 93.5931 100.861 93.189 100.79 92.796C100.718 92.403 100.559 92.0312 100.323 91.7089C103.665 93.9395 107.904 93.0887 111.614 91.5173C111.875 91.41 112.442 90.9807 112.687 91.1647C112.735 92.4212 112.637 93.679 112.396 94.913ZM133.721 77.0375C132.717 78.6932 131.735 80.5482 130.026 81.5754C128.317 82.6025 126.377 82.7712 124.66 83.7063C122.782 84.7565 121.165 86.2282 119.149 87.0407C118.068 87.47 116.926 87.6003 115.845 87.9989C115.148 88.2595 114.45 88.5048 113.737 88.7654C114.029 87.7556 114.136 86.7012 114.052 85.6533C113.702 83.9967 113.022 82.4275 112.053 81.0394C111.084 79.6513 109.845 78.4727 108.41 77.5741C110.502 76.4703 111.66 75.4278 114.542 75.3435C115.669 75.3435 116.788 75.5734 117.915 75.5274C121.502 75.3588 121.747 71.4725 131.107 71.6181C131.505 71.6181 133.1 71.3882 133.406 71.4495C134.073 71.5875 134.587 73.6035 134.641 74.5616C134.679 75.6424 134.25 76.1637 133.721 77.0375ZM137.975 71.9937C137.957 71.9891 137.938 71.9887 137.92 71.9925C137.901 71.9963 137.884 72.0042 137.869 72.0157C137.855 72.0271 137.843 72.0418 137.834 72.0586C137.826 72.0754 137.822 72.0939 137.822 72.1125C137.822 72.1312 137.826 72.1497 137.834 72.1665C137.843 72.1833 137.855 72.198 137.869 72.2094C137.884 72.2209 137.901 72.2288 137.92 72.2326C137.938 72.2364 137.957 72.236 137.975 72.2314C138.343 72.2314 140.275 72.2314 139.669 72.8369C139.286 73.2432 135.944 72.8369 136.112 73.3965C136.116 73.4153 136.126 73.4325 136.139 73.4461C136.153 73.4598 136.17 73.4691 136.189 73.4731C136.266 73.4731 137.469 74.0787 137.254 74.5539C137.185 74.7226 135.323 73.9714 134.802 73.7874C134.644 72.9832 134.365 72.2076 133.974 71.4878C134.647 70.8354 135.393 70.2619 136.197 69.7785C136.551 69.5105 136.951 69.308 137.377 69.1806C138.527 69.0273 137.262 69.9471 136.986 70.1771C136.894 70.246 136.986 70.4147 137.101 70.3764C137.331 70.2767 138.833 69.5562 139.079 69.7248C139.677 70.1387 137.592 70.9666 137.446 71.0279C137.427 71.0282 137.409 71.0328 137.392 71.0412C137.376 71.0496 137.361 71.0617 137.35 71.0766C137.339 71.0915 137.331 71.1087 137.328 71.127C137.324 71.1453 137.325 71.1641 137.33 71.1821C137.334 71.2001 137.343 71.2168 137.355 71.2309C137.368 71.245 137.383 71.2561 137.4 71.2634C137.417 71.2707 137.436 71.274 137.454 71.273C137.473 71.2721 137.491 71.2669 137.507 71.2579C138.295 71.0652 139.104 70.9801 139.914 71.0049C140.39 71.6105 138.167 71.9784 137.975 71.9937ZM105.06 23.1197C105.213 22.8913 105.291 22.6207 105.283 22.3458C105.275 22.0709 105.181 21.8055 105.014 21.5867C104.911 21.4803 104.784 21.3989 104.645 21.3484C104.505 21.2979 104.356 21.2797 104.209 21.2952C104.061 21.3107 103.919 21.3595 103.793 21.4378C103.667 21.5162 103.56 21.6221 103.481 21.7477L102.937 21.3644C103.45 21.1651 105.704 20.2299 106.049 18.5895C106.062 18.4597 106.044 18.3284 105.996 18.207C105.948 18.0856 105.872 17.9775 105.773 17.892C104.799 17.3478 101.802 18.1373 98.6979 19.1108L96.429 17.8997C96.5582 17.6115 96.6023 17.2925 96.5561 16.9801C96.5099 16.6677 96.3754 16.3751 96.1684 16.1366C95.5015 15.6001 94.8576 16.083 94.5893 16.7499C93.7461 16.1213 89.3999 13.8447 88.5644 14.1897C87.7289 14.5346 88.7943 15.7227 89.3309 16.2976C90.657 17.5547 92.8876 19.2641 94.2597 20.3142C90.8073 21.2532 87.4343 22.4629 84.1722 23.9323C83.8502 23.411 82.0259 21.809 81.7039 21.901C81.382 21.9929 81.451 22.6292 82.0642 25.2584C82.2022 25.8409 82.3172 26.2932 82.7081 26.5231C82.961 26.6688 87.0926 25.7949 88.1658 25.5266C91.0556 24.7601 93.1482 24.6145 97.9927 23.0354C101.772 24.1699 106.026 26.5615 106.578 24.9364C106.785 24.4765 106.164 23.756 105.06 23.1197ZM86.6021 24.4382C86.1958 24.3462 86.0118 23.6716 86.4871 23.526C86.6166 23.4868 86.7552 23.4894 86.8832 23.5334C87.0111 23.5774 87.122 23.6607 87.2 23.7713C87.2294 23.8576 87.2353 23.9502 87.217 24.0396C87.1988 24.1289 87.1571 24.2118 87.0962 24.2797C87.0353 24.3476 86.9575 24.3981 86.8706 24.426C86.7838 24.4538 86.6911 24.458 86.6021 24.4382ZM89.0473 23.4877C88.0815 23.3114 89.2773 22.0619 89.6912 22.7825C89.8598 23.1427 89.4766 23.5567 89.0473 23.4877ZM90.8486 22.9128C90.473 23.2577 89.8905 22.9971 90.0055 22.5448C90.0465 22.4476 90.1152 22.3646 90.2032 22.3062C90.2911 22.2479 90.3943 22.2168 90.4999 22.2168C90.6054 22.2168 90.7086 22.2479 90.7966 22.3062C90.8845 22.3646 90.9533 22.4476 90.9943 22.5448C90.9984 22.6131 90.9875 22.6814 90.9623 22.745C90.9371 22.8085 90.8983 22.8658 90.8486 22.9128ZM92.5963 22.2996C92.397 22.7748 91.1936 22.6215 91.5385 21.8933C91.8758 21.3414 93.0409 21.625 92.5963 22.2996ZM96.2987 17.7004C96.2549 17.8829 96.151 18.0455 96.0036 18.1617C95.8562 18.278 95.6739 18.3412 95.4862 18.3412C95.2984 18.3412 95.1161 18.278 94.9687 18.1617C94.8213 18.0455 94.7174 17.8829 94.6736 17.7004C94.436 16.9338 95.2179 15.6307 96.0534 16.2823C96.2217 16.4726 96.3354 16.7048 96.3827 16.9544C96.4299 17.204 96.4088 17.4617 96.3217 17.7004H96.2987ZM104.094 23.4034C103.926 23.3335 103.78 23.2207 103.67 23.0763C103.559 22.9319 103.489 22.7609 103.465 22.5806C103.442 22.4003 103.467 22.2171 103.537 22.0493C103.607 21.8816 103.72 21.7352 103.864 21.625C103.954 21.5612 104.056 21.5175 104.165 21.4968C104.273 21.4762 104.384 21.479 104.491 21.5052C104.598 21.5314 104.698 21.5803 104.784 21.6486C104.87 21.7169 104.941 21.8029 104.991 21.901C105.328 22.6982 104.692 23.5337 104.094 23.4034Z" fill="black"/>
</svg>
