<svg width="154" height="154" viewBox="0 0 154 154" fill="none" xmlns="http://www.w3.org/2000/svg">
<path d="M11.5843 78.155C11.7997 77.8714 12.0411 77.5993 12.3018 77.3409C11.9484 71.4163 11.9752 65.3705 12.3823 59.3454H14.3347C14.8919 64.6346 14.9724 70.1239 14.5777 75.7028C14.8391 75.5687 15.105 75.4491 15.371 75.3448C15.4147 74.6871 15.4523 74.031 15.483 73.3763L21.3831 73.4039C21.1784 73.1862 20.9991 72.9647 20.8342 72.7094L15.5136 72.665C15.5274 72.32 15.5389 71.9751 15.5489 71.6301L20.3406 71.601C20.277 71.3557 20.2425 71.1096 20.2333 70.8659L15.568 70.8904C15.6171 68.6184 15.5857 66.3655 15.4745 64.1409L26.3503 64.1862C26.9505 63.947 27.5707 63.7416 28.2062 63.5706C28.2598 62.1625 28.3342 60.7536 28.4292 59.3462H30.3816C30.5119 60.5803 30.6154 61.826 30.6936 63.0808C30.9466 63.0486 31.2011 63.021 31.4563 62.998C31.4418 62.7688 31.4272 62.5404 31.4111 62.312L44.2477 62.2851C44.2278 62.7159 44.2094 63.1467 44.1933 63.5775L38.3576 63.5607C41.4008 64.3548 38.7324 64.2184 44.1703 64.2283C44.1473 64.9282 44.1297 65.6281 44.1159 66.3264C44.2424 66.426 44.3673 66.528 44.4892 66.6315C44.5352 66.0451 44.6824 65.4701 44.9162 64.919C44.9691 63.0624 45.0588 61.2028 45.1837 59.3454H47.1361C47.225 60.1878 47.3009 61.0357 47.3653 61.8873C47.5983 61.711 47.8421 61.5446 48.0951 61.3883C48.033 60.6209 47.9617 59.8567 47.8804 59.097C47.8482 58.8019 47.5861 58.5789 47.2703 58.5789H45.0419C44.7199 58.5789 44.4516 58.8157 44.4302 59.1185C44.375 59.9234 44.3267 60.7283 44.2845 61.5331L31.3567 61.5791C31.2915 60.7474 31.2149 59.9196 31.1267 59.097C31.0945 58.8019 30.8324 58.5789 30.5165 58.5789H28.2882C27.9662 58.5789 27.6979 58.8157 27.6765 59.1185C27.6197 59.9441 27.5699 60.7697 27.5278 61.596L15.3174 61.6566C15.2507 60.7988 15.1725 59.9456 15.0813 59.097C15.0491 58.8019 14.7869 58.5789 14.4711 58.5789H12.2427C11.9208 58.5789 11.6525 58.8157 11.631 59.1185C11.5728 59.9717 11.5214 60.8249 11.4785 61.678C8.48972 61.6957 7.75 61.6213 7.75 62.2138V63.576C7.75 64.1463 8.42686 64.0911 11.375 64.1149C11.2976 66.3862 11.2738 68.6552 11.3045 70.9142C8.46826 70.931 7.75077 70.8674 7.75077 71.4485V72.8106C7.75077 73.3817 8.41613 73.3257 11.3582 73.3495C11.4072 74.9585 11.4839 76.5606 11.5873 78.1542L11.5843 78.155ZM27.4902 62.3242C27.4718 62.7213 27.4549 63.1184 27.4396 63.5162C22.6625 63.4924 18.5791 63.4641 15.4354 63.4319C15.4155 63.0823 15.3925 62.7343 15.3687 62.3871C18.53 62.3618 22.6556 62.3403 27.4902 62.3242ZM8.51348 63.2885V62.5028C8.75111 62.4745 9.76679 62.4492 11.4394 62.4262C11.4248 62.7443 11.411 63.0616 11.3988 63.379C9.79209 63.3514 8.79404 63.3207 8.51348 63.2885ZM8.51348 72.5232V71.7375C8.72505 71.7129 9.69704 71.6907 11.3129 71.67C11.3191 71.9843 11.3252 72.2978 11.3336 72.6113C9.75683 72.5845 8.78101 72.5546 8.51348 72.5232Z" fill="black"/>
<path d="M149.861 63.5775V62.2146C149.861 61.6428 149.178 61.6972 146.28 61.6803C146.213 60.8149 146.134 59.954 146.042 59.0986C146.011 58.8027 145.749 58.5796 145.433 58.5796H143.205C142.882 58.5796 142.614 58.8173 142.593 59.1193C142.535 59.9655 142.484 60.8118 142.441 61.6589L129.757 61.5968C129.691 60.7589 129.614 59.9257 129.526 59.0978C129.493 58.8027 129.231 58.5796 128.915 58.5796H126.687C126.365 58.5796 126.097 58.8165 126.075 59.1193C126.019 59.9395 125.97 60.7597 125.927 61.5799L113.706 61.5362C113.642 60.7191 113.566 59.9058 113.479 59.097C113.447 58.8019 113.185 58.5789 112.87 58.5789H110.642C110.32 58.5789 110.051 58.8157 110.03 59.1185C109.975 59.9203 109.926 60.7229 109.885 61.5262L96.9503 61.4979C96.8866 60.693 96.8115 59.8927 96.7264 59.097C96.6942 58.8019 96.4321 58.5789 96.1163 58.5789H93.8879C93.566 58.5789 93.2977 58.8157 93.2762 59.1185C93.2218 59.9096 93.1742 60.7007 93.1329 61.4925L80.9033 61.4833C80.8397 60.6846 80.7653 59.8889 80.6802 59.0986C80.6488 58.8019 80.3874 58.5789 80.0708 58.5789H77.8425C77.5205 58.5789 77.2522 58.8157 77.2308 59.1185C77.1763 59.9065 77.1288 60.6953 77.0874 61.4833L64.1504 61.4925C64.0867 60.6899 64.0116 59.8912 63.9265 59.097C63.8943 58.8019 63.6322 58.5789 63.3164 58.5789H61.088C60.766 58.5789 60.4977 58.8157 60.4763 59.1185C60.4219 59.9111 60.3743 60.7045 60.3329 61.4979L59.4077 61.4994C60.0095 61.8589 60.5598 62.2721 61.0412 62.7336C61.0911 61.6044 61.1531 60.4745 61.2298 59.3462H63.1822C63.5141 62.4998 63.6774 65.7231 63.6713 68.994C63.9181 68.9564 64.1749 68.9181 64.4378 68.8821C64.4386 67.3275 64.4018 65.7829 64.3274 64.2513L69.832 64.2544C70.1363 64.0129 70.466 63.8014 70.814 63.6166L64.2945 63.612C64.2692 63.1636 64.2408 62.7152 64.2094 62.269H77.0499C77.043 62.4231 77.0361 62.5764 77.0292 62.7305C77.2867 62.7642 77.5412 62.8056 77.7911 62.8539C77.8417 61.6849 77.9061 60.5159 77.9851 59.3469H79.9375C80.0869 60.7651 80.2019 62.197 80.2824 63.6419C80.6458 63.8198 80.9769 64.026 81.2774 64.2575L93.0163 64.2536C92.9964 64.8653 92.9803 65.477 92.968 66.0888C93.2333 66.2045 93.4862 66.3264 93.7277 66.4544C93.7699 64.0881 93.871 61.7164 94.0312 59.3477H95.9836C96.3079 62.43 96.4712 65.5805 96.4727 68.7763C96.6444 69.0239 96.7916 69.2768 96.915 69.5344C97.0162 69.3282 97.1235 69.1251 97.2385 68.9242C97.24 67.3551 97.2032 65.7959 97.1281 64.2506C104.714 64.2437 101.4 64.4138 104.41 63.5998L97.0944 63.6105C97.0699 63.1674 97.0415 62.7259 97.0108 62.2851L109.848 62.3043C109.834 62.6193 109.821 62.9336 109.808 63.2479C110.063 63.2855 110.317 63.3299 110.57 63.3844C110.622 62.0391 110.694 60.6922 110.785 59.3469H112.737C112.909 60.9743 113.035 62.6201 113.116 64.282C113.388 64.4215 113.651 64.5717 113.904 64.7327C113.896 64.5648 113.889 64.3977 113.881 64.2306L125.819 64.2061C125.763 65.8779 125.736 67.549 125.738 69.2147C125.996 69.2722 126.252 69.3366 126.505 69.4071C126.496 66.0635 126.605 62.7021 126.831 59.3469H128.784C129.166 62.9758 129.323 66.6989 129.258 70.4803C129.884 70.8069 130.458 71.1756 130.956 71.5788C135.452 71.5949 139.298 71.614 142.28 71.6363C142.286 71.9812 142.294 72.3254 142.303 72.6703C139.57 72.6995 136.111 72.7248 132.094 72.747C132.255 72.9655 132.392 73.1908 132.507 73.4208L142.323 73.3786C142.379 75.2007 142.47 77.0152 142.597 78.8181C142.618 79.1201 142.887 79.3562 143.208 79.3562H145.436C145.754 79.3562 146.016 79.1316 146.046 78.8342C146.233 76.9975 146.367 75.1693 146.452 73.3518C149.156 73.3288 149.865 73.3878 149.865 72.8137V71.4508C149.865 70.8797 149.152 70.9333 146.535 70.918C146.585 68.6283 146.554 66.3586 146.44 64.1172C149.381 64.0919 149.865 64.131 149.865 63.5783L149.861 63.5775ZM93.0363 63.6136L81.0459 63.6189C81.0206 63.1682 80.9922 62.7182 80.9608 62.2698L93.093 62.279C93.0723 62.7236 93.0531 63.1682 93.037 63.6128L93.0363 63.6136ZM125.838 63.5392L113.843 63.5791C113.819 63.1552 113.792 62.7328 113.762 62.3112L125.888 62.3419C125.87 62.7412 125.853 63.1406 125.838 63.5392H125.838ZM142.264 70.8935L130.014 70.8329C130.061 68.5977 130.03 66.3823 129.921 64.1931L142.334 64.1425C142.257 66.3969 142.234 68.649 142.263 70.8927L142.264 70.8935ZM142.36 63.4327C139.13 63.4664 134.881 63.4963 129.886 63.5208C129.864 63.1314 129.839 62.742 129.812 62.3549C134.865 62.3725 139.158 62.3924 142.404 62.4147C142.388 62.7543 142.374 63.0931 142.36 63.4327ZM145.295 78.5889H143.344C142.909 72.2641 142.91 65.7929 143.344 59.3462H145.296C145.949 65.5468 145.948 72.0188 145.294 78.5889H145.295ZM146.51 71.6761C148.008 71.6953 148.903 71.716 149.093 71.739V72.5247C148.826 72.5569 147.924 72.586 146.479 72.6129C146.491 72.3001 146.502 71.9881 146.511 71.6761H146.51ZM146.395 63.3775C146.377 63.067 146.357 62.7566 146.335 62.4469C147.964 62.4645 148.924 62.4837 149.093 62.5028V63.2885C148.823 63.3207 147.891 63.3499 146.394 63.3767L146.395 63.3775Z" fill="black"/>
<path d="M63.2918 68.6635C63.2665 68.9279 63.2258 69.1916 63.1707 69.4538C64.6248 69.2453 66.8018 68.8137 68.0451 69.4461C68.3602 69.6056 68.7021 69.2913 68.5764 68.9663C68.213 68.0265 68.2889 66.9395 68.7803 66.0595C70.7526 62.5226 76.5255 62.495 79.7617 63.8273C81.6122 64.59 82.8026 66.1515 83.4013 68.6029C83.4925 68.9739 84.0245 69.0038 84.1402 68.6236C84.6814 66.8506 87.9186 64.8752 91.368 65.9116C94.2855 66.7893 96.0302 68.317 96.6979 70.0003C96.8274 69.6991 96.9715 69.4024 97.131 69.1111C96.2333 67.4654 94.3982 66.0219 91.5896 65.178C88.2972 64.1884 85.0524 65.7023 83.8666 67.45C83.1391 65.2945 81.8858 63.8725 80.0545 63.1183C76.4718 61.6426 70.3279 61.7132 68.1118 65.6854C67.6373 66.5348 67.4794 67.542 67.6527 68.4941C66.3158 68.1698 64.6317 68.4634 63.2933 68.6635H63.2918Z" fill="black"/>
<path d="M78.0617 69.3786C78.2909 69.0153 78.4312 68.5967 78.4618 68.1621C78.4833 67.8609 78.1606 67.65 77.8915 67.8011C77.6002 67.9651 77.3388 68.1866 77.125 68.4457C76.944 68.1705 76.6842 67.9475 76.3753 67.8248C76.1468 67.7344 75.8931 67.8808 75.8555 68.1238C75.8073 68.4381 75.8724 68.7615 76.0227 69.039C75.6662 69.1716 75.3473 69.407 75.1258 69.7205C74.9824 69.9236 75.0675 70.2011 75.2891 70.2946C75.5397 70.4012 75.8096 70.4457 76.0794 70.4311C76.0265 70.5721 75.9828 70.717 75.9483 70.8634C75.8801 71.1578 76.166 71.4169 76.4581 71.308C76.8015 71.1777 77.082 70.9247 77.2683 70.6135C77.4814 70.8067 77.7298 71.0083 78.0157 71.0229C78.8275 71.075 79.1111 69.6983 78.0617 69.3786Z" fill="black"/>
<path d="M80.9928 89.9661C80.9844 91.0262 81.37 92.176 81.9226 92.7341H83.5125C83.1782 92.6191 82.8601 92.4719 82.5719 92.2833C82.1035 91.9767 81.741 90.9036 81.7563 89.9661H80.9928Z" fill="black"/>
<path d="M137.291 82.6086C135.855 80.7022 132.952 79.6191 130.228 79.8422C131.914 78.3673 133.385 76.664 133.242 74.6641C132.884 69.6271 121.888 66.5111 117.836 69.9061C117.577 66.981 114.97 64.2007 111.37 63.1866C104.326 61.2012 96.123 65.602 95.5075 73.2084C92.196 70.3944 86.1449 69.933 81.0665 73.1164C78.7714 74.5553 76.878 76.7936 77.8454 79.2803H78.6879C78.2885 78.5145 78.2555 77.5724 78.6342 76.6909C79.0803 75.6514 80.0362 74.6672 81.4743 73.7657C86.6615 70.514 92.8077 71.3365 95.5757 74.333C95.8111 74.5882 96.2411 74.4211 96.2403 74.0716C96.2296 70.885 97.8225 67.8119 100.502 65.8511C103.411 63.7216 107.696 62.9474 111.161 63.924C114.818 64.9542 117.357 67.9238 117.067 70.8306C117.028 71.2177 117.527 71.4078 117.757 71.0974C120.693 67.1305 132.149 70.1215 132.477 74.7185C132.624 76.7783 130.576 78.6088 128.645 80.1641C128.323 80.4232 128.586 80.9414 128.986 80.8325C131.782 80.0714 135.16 81.0533 136.678 83.0701C138.156 85.0332 137.692 87.8196 135.621 89.4141C134.344 90.3968 132.579 90.9295 131.183 91.2837C128.268 92.0234 122.794 92.9141 118.886 90.5716C118.477 90.3263 118.077 90.9073 118.453 91.2017C118.689 91.3879 117.923 91.8739 117.541 92.0058C111.558 94.0632 104.143 93.2315 99.095 89.9353C99.0313 89.8939 98.9585 89.8732 98.8857 89.8732C98.5499 89.8732 95.7168 91.8709 90.6575 92.734C93.6256 92.734 93.792 92.7263 93.9177 92.7463C95.6677 92.2273 97.3403 91.5412 98.8704 90.7026C104.081 94.0034 111.646 94.8428 117.79 92.7309C118.351 92.5385 118.985 92.12 119.197 91.6133C123.264 93.6125 128.509 92.7532 131.371 92.0265C132.838 91.6547 134.7 91.0897 136.089 90.0219C138.496 88.1684 139.025 84.9121 137.291 82.6094V82.6086Z" fill="black"/>
<path d="M72.6873 87.9452H74.4941C73.2201 87.5121 72.1285 86.7877 71.4379 85.6333H70.5686C71.0055 86.5409 71.7499 87.3649 72.6873 87.9452Z" fill="black"/>
<path d="M113.495 75.968C113.313 75.6085 113.032 75.3103 112.696 75.0964C112.924 74.9807 113.143 74.845 113.348 74.6909C113.593 74.5069 113.533 74.1237 113.244 74.0232C112.768 73.8561 112.243 73.8952 111.784 74.0892C111.766 73.9029 111.735 73.7182 111.692 73.5373C111.298 71.8999 109.151 73.1992 110.245 74.5644C109.664 74.7208 109.121 75.0313 108.704 75.4613C108.491 75.6798 108.609 76.0485 108.909 76.1052C109.381 76.1941 109.874 76.1795 110.345 76.0707C110.254 76.5245 110.313 77.0096 110.535 77.4197C110.653 77.6374 110.941 77.6873 111.125 77.5255C111.455 77.2365 111.659 76.8226 111.715 76.391C112.196 76.5965 112.743 76.6456 113.252 76.5122C113.488 76.4509 113.608 76.1864 113.497 75.968H113.495Z" fill="black"/>
<path d="M124.787 84.2131C124.601 83.7432 124.228 83.3714 123.781 83.1522C123.91 83.0165 124.03 82.8724 124.138 82.7214C125.12 81.3531 122.731 80.5804 122.415 82.299C121.917 81.9617 121.326 81.7547 120.728 81.7202C120.42 81.7041 120.223 82.0353 120.376 82.2959C120.617 82.7114 120.951 83.0747 121.341 83.3591C120.938 83.5876 120.61 83.9494 120.445 84.3855C120.358 84.6163 120.507 84.8662 120.751 84.9014C121.185 84.9612 121.631 84.8455 121.994 84.6048C122.153 85.1023 122.474 85.5484 122.908 85.8466C123.106 85.983 123.387 85.9048 123.48 85.6749C123.631 85.3023 123.674 84.8938 123.615 84.5005C123.853 84.5979 124.098 84.6745 124.349 84.729C124.65 84.7933 124.898 84.4959 124.787 84.2131Z" fill="black"/>
<path d="M98.983 79.2221C99.0412 78.6226 98.94 78.0056 98.684 77.4644C98.5537 77.19 98.1689 77.1677 98.0102 77.4299C97.7611 77.8408 97.6016 78.3076 97.5388 78.7867C97.1456 78.5422 96.6726 78.4272 96.2081 78.4908C95.9628 78.5253 95.8156 78.7767 95.9022 79.0059C96.0578 79.416 96.3729 79.7533 96.7577 79.9564C96.3974 80.3351 96.159 80.8295 96.1046 81.3539C96.08 81.5946 96.2832 81.8015 96.5292 81.7739C96.9286 81.7287 97.3081 81.57 97.6254 81.3309C97.6538 81.5861 97.7044 81.8383 97.7764 82.0836C97.8638 82.3795 98.244 82.4546 98.438 82.2208C98.7614 81.833 98.9094 81.3278 98.8879 80.8303C99.2551 80.9292 99.7449 81.025 100.071 80.8625C100.939 80.4294 100.361 78.7691 98.983 79.2221Z" fill="black"/>
<path d="M71.2095 83.6127H72.728C73.7169 82.9841 74.6704 82.2199 75.3979 81.3008H74.3868C73.4869 82.2521 72.3532 82.9933 71.2095 83.6127Z" fill="black"/>
<path d="M69.4255 92.7341C70.6635 92.0856 71.7482 91.1649 72.2464 89.9661H71.4002C70.675 91.3229 69.0047 92.2458 67.408 92.7341H69.4255Z" fill="black"/>
<path d="M40.2608 92.7493C40.3888 92.6466 40.516 92.5408 40.644 92.432C40.7054 92.5354 40.772 92.6359 40.8426 92.734H41.8644C41.5355 92.4143 41.2787 92.0579 41.1162 91.67C41.0143 91.4255 40.7008 91.3573 40.506 91.5336C37.6123 94.1513 33.5841 95.794 30.1024 94.0846C29.5275 93.8033 29.0929 93.5695 28.7295 93.1303C28.6184 92.98 28.1792 92.212 28.081 91.9299C28.15 91.6493 27.8879 91.3894 27.6019 91.4715C24.3441 92.4082 21.524 92.3998 19.2182 91.4477C16.3559 90.2657 16.4417 88.1477 18.7583 86.285C19.0526 86.0481 18.8602 85.5759 18.49 85.6043C16.4939 85.7499 13.6216 85.3659 12.087 83.7975C11.0077 82.6945 10.6382 81.4688 10.9893 80.1549C11.5933 77.8936 14.1337 76.0508 16.2164 75.4644C18.6371 74.7829 21.2756 75.0305 23.3031 75.321C23.7063 75.3801 23.9087 74.8473 23.5699 74.6219C22.8194 74.1244 22.0429 73.6101 21.4711 72.9256C19.3884 70.4335 21.4726 67.4256 24.1793 65.7154C29.9921 62.0421 39.1776 62.5948 44.2399 66.9235C44.4806 67.1281 44.847 66.971 44.8716 66.6621C45.0954 63.8281 47.9324 61.1697 51.4708 60.4783C55.0138 59.7861 59.0006 60.995 61.1692 63.4165C63.2496 65.7407 63.5271 69.0537 61.8575 71.6585C61.6598 71.9674 61.9694 72.3537 62.3167 72.2234C67.9723 70.0656 77.3226 74.2793 75.6646 79.281H76.4687C78.0386 73.7067 68.7879 69.7083 62.9813 71.2093C64.2814 68.4696 63.8291 65.2394 61.7395 62.9052C59.4 60.292 55.115 58.9851 51.3236 59.7263C47.6802 60.4385 44.8049 62.978 44.2047 65.9093C38.8189 61.7799 29.6425 61.356 23.7692 65.0677C22.115 66.1132 20.2293 67.9813 19.8989 70.0909C19.6222 71.8578 20.4815 73.2667 21.8858 74.3743C20.0714 74.195 17.9856 74.1697 16.0086 74.7262C13.6638 75.3854 10.9326 77.3938 10.248 79.9564C9.47227 82.8631 11.7796 86.3057 17.5073 86.3969C13.6691 90.4933 19.347 94.4756 27.4134 92.3193C27.6372 92.8934 28.1247 93.6025 28.1324 93.6117C28.8614 94.494 30.8414 95.5495 33.1441 95.5495C35.0635 95.5495 37.2881 94.9033 39.5463 93.292C39.6858 93.0092 39.948 92.8053 40.2608 92.7493Z" fill="black"/>
<path d="M52.4022 92.7341C53.1297 92.0825 53.7674 91.319 54.2826 90.4689C55.217 91.3903 56.3783 92.1538 57.6699 92.7341C62.6763 92.7341 58.2042 93.2193 54.8644 89.9661H53.6892C53.0469 91.0607 52.186 92.0043 51.188 92.7341H52.4022Z" fill="black"/>
<path d="M34.0832 70.7293C33.729 70.5377 33.3235 70.4511 32.9303 70.468C33.0522 70.2426 33.1549 70.0065 33.2354 69.7635C33.3304 69.4753 33.069 69.1916 32.7701 69.2729C32.2833 69.407 31.874 69.7374 31.6072 70.1583C31.3619 69.8677 31.0139 69.5098 30.6544 69.4569C29.6863 69.322 29.2279 71.013 30.6115 71.4238C30.2221 71.883 29.953 72.448 29.8549 73.0382C29.8051 73.3387 30.1109 73.5755 30.3892 73.4514C30.8277 73.2559 31.2255 72.9631 31.5505 72.6059C31.7345 73.0313 32.058 73.3962 32.4742 73.6077C32.6934 73.7189 32.9602 73.597 33.0192 73.3586C33.1258 72.9332 33.0591 72.4771 32.859 72.09C33.3711 71.9842 33.8494 71.7144 34.1928 71.315C34.3538 71.1272 34.2963 70.842 34.084 70.7278L34.0832 70.7293Z" fill="black"/>
<path d="M55.0981 71.3195C54.678 71.039 54.1591 70.9455 53.6677 71.019C53.6968 70.8343 53.7137 70.6473 53.7168 70.461C53.7428 68.7715 51.3405 69.5059 52.0587 71.0942C51.4562 71.1003 50.8529 71.2659 50.3424 71.5779C50.0833 71.7373 50.1025 72.1221 50.38 72.2517C50.8146 72.4556 51.296 72.5652 51.7789 72.5767C51.5773 72.9937 51.5129 73.4774 51.6256 73.9312C51.6847 74.1703 51.9522 74.2922 52.1706 74.1811C52.5624 73.9833 52.8636 73.6345 53.0246 73.2305C53.4377 73.5471 53.9513 73.7319 54.4757 73.7319C54.7348 73.7296 54.908 73.5004 54.8566 73.2658C54.7693 72.8726 54.5715 72.513 54.2994 72.2225C54.55 72.1673 54.7953 72.0907 55.0322 71.9926C55.315 71.876 55.3526 71.4897 55.0981 71.3195Z" fill="black"/>
<path d="M24.3379 82.5811C24.0443 82.0552 23.6104 81.6053 23.0923 81.3056C22.8286 81.1522 22.4997 81.3569 22.5181 81.6605C22.5472 82.1403 22.6814 82.6148 22.9014 83.0449C22.4384 83.0671 21.9831 83.2426 21.6396 83.5584C21.458 83.724 21.4787 84.0168 21.681 84.1556C22.0421 84.4055 22.4943 84.5028 22.9251 84.4507C22.8447 84.9674 22.929 85.5101 23.1827 85.9715C23.2992 86.1839 23.5844 86.2375 23.7706 86.0758C24.0742 85.8113 24.2957 85.4656 24.4207 85.0877C24.5886 85.2809 24.7733 85.4603 24.9734 85.6212C25.2118 85.8144 25.5682 85.6626 25.5958 85.3575C25.641 84.8547 25.4755 84.3549 25.175 83.9578C25.3513 83.8942 25.5237 83.8198 25.6878 83.734C27.1833 82.9467 25.3904 81.1929 24.3379 82.5811Z" fill="black"/>
<path d="M34.5691 18.259C35.4913 18.5388 36.4786 18.5196 37.3754 18.2076C36.786 17.1406 35.1877 17.0724 34.5691 18.259Z" fill="black"/>
<path d="M39.6168 22.183C39.823 21.2294 38.5704 19.8565 37.695 19.2908C36.6456 19.6725 35.4613 19.7239 34.3015 19.3582C33.3954 19.8856 32.6534 20.7487 32.32 21.7284C32.1943 22.0994 32.2441 22.718 32.7492 22.9304C34.4533 23.6486 36.8411 23.4708 38.3688 23.1013C39.1039 22.9235 39.524 22.6145 39.6168 22.183Z" fill="black"/>
<path d="M37.666 98.2885C36.3452 98.2885 36.3307 96.1827 37.666 96.1827H38.4525C37.9282 95.6201 38.1528 94.4795 39.3087 94.4795C39.0726 93.266 38.802 93.3542 37.9496 93.3542C38.3559 84.7757 38.3528 77.9787 37.9389 72.6251C37.9389 72.1759 37.7097 71.8141 37.3885 71.6792V37.7448C37.3885 37.5202 37.295 37.3171 37.1432 37.1707C37.3234 33.5035 38.733 31.9405 39.0067 31.0505C39.5027 29.4408 39.9304 27.7881 40.2761 26.1377C40.4969 25.0852 40.516 23.95 40.3183 22.8967C40.2278 23.1681 40.0638 23.4157 39.8192 23.6288C39.7778 25.6816 38.7928 29.1426 38.2739 30.8252C38.162 31.1877 37.8714 31.479 37.4928 31.6776C37.7434 29.5213 38.0914 26.5516 38.4487 24.2528C38.1919 24.3125 37.9251 24.3654 37.6499 24.4107C37.2881 26.7946 36.9485 29.7275 36.6902 31.9336C36.3713 31.9803 36.0363 31.9704 35.7105 31.8983C35.3004 29.4362 34.9271 26.8437 34.4687 24.5157C34.1951 24.4858 33.9252 24.4436 33.6623 24.3892C34.1123 26.6191 34.4956 29.2261 34.8742 31.5426C34.6044 31.3571 34.366 31.1072 34.1851 30.783C32.8605 28.4036 32.258 25.7015 32.2526 23.9193C31.9077 23.7108 31.6846 23.3866 31.575 23.0263C31.1994 25.3137 32.222 28.8329 33.5151 31.1548C33.6646 31.4231 35.3855 33.1984 35.8753 37.3493C35.6891 37.6704 35.7565 37.4435 35.7565 71.6547C35.3855 71.7505 35.108 72.1292 35.1088 72.6044C34.8206 78.1113 34.8175 84.7121 35.1011 93.3542H34.6688C34.2119 93.3542 33.8539 93.798 33.8578 94.3093C33.6661 95.6255 33.6654 96.6289 33.8555 97.2958C33.8785 97.8124 34.202 98.2133 34.619 98.244C35.8408 98.5161 37.0957 98.5629 38.3229 98.2892H37.666V98.2885Z" fill="black"/>
<path d="M133.827 18.3457C134.75 18.6255 135.737 18.6063 136.634 18.2943C136.044 17.2273 134.446 17.159 133.827 18.3457Z" fill="black"/>
<path d="M138.875 22.2696C139.081 21.316 137.829 19.9432 136.953 19.3774C135.904 19.7592 134.72 19.8105 133.56 19.4449C132.654 19.9723 131.912 20.8354 131.578 21.8151C131.453 22.1861 131.502 22.8047 132.008 23.017C133.712 23.7353 136.099 23.5574 137.627 23.188C138.362 23.0101 138.782 22.7012 138.875 22.2696Z" fill="black"/>
<path d="M139.534 26.2244C139.755 25.1719 139.774 24.0366 139.577 22.9834C139.486 23.2548 139.322 23.5024 139.078 23.7155C139.036 25.7683 138.051 29.2292 137.532 30.9118C137.42 31.2744 137.13 31.5657 136.751 31.7642C137.002 29.6079 137.35 26.6383 137.707 24.3394C137.45 24.3992 137.183 24.4521 136.908 24.4973C136.546 26.8813 136.207 29.8141 135.948 32.0203C135.63 32.067 135.295 32.0571 134.969 31.985C134.559 29.5228 134.185 26.9304 133.727 24.6024C133.453 24.5725 133.184 24.5303 132.921 24.4759C133.371 26.7058 133.754 29.3128 134.133 31.6293C133.863 31.4438 133.624 31.1939 133.443 30.8697C132.119 28.4903 131.516 25.7882 131.511 24.006C131.166 23.7975 130.943 23.4732 130.833 23.1129C130.458 25.4003 131.48 28.9196 132.773 31.2414C132.923 31.5097 134.644 33.2851 135.134 37.4359C134.947 37.7571 135.015 37.5302 135.015 71.7413C134.644 71.8372 134.366 72.2158 134.367 72.6911C134.079 78.1979 134.076 84.7987 134.359 93.4408H133.927C133.47 93.4408 133.112 93.8846 133.116 94.3959C132.924 95.7121 132.924 96.7155 133.114 97.3824C133.137 97.899 133.46 98.2999 133.877 98.3306C135.164 98.6173 136.487 98.6533 137.775 98.3306C138.194 98.2969 138.516 97.8875 138.533 97.3647C138.743 96.3291 138.743 95.361 138.533 94.4066C138.515 93.8624 138.164 93.4423 137.718 93.4423H137.207C137.613 84.8638 137.61 78.0668 137.196 72.7133C137.196 72.2641 136.967 71.9023 136.646 71.7674V37.8315C136.646 37.6069 136.553 37.4037 136.401 37.2573C136.581 33.5902 137.991 32.0272 138.264 31.1372C138.76 29.5274 139.188 27.8748 139.534 26.2244H139.534Z" fill="black"/>
<path d="M93.0224 88.3286C93.8442 88.3286 93.8342 89.5826 93.0224 89.5826H41.2335C40.4118 89.5826 40.4218 88.3286 41.2335 88.3286H93.0224ZM93.0224 87.562H41.2335C40.4724 87.562 39.8538 88.1814 39.8538 88.9418C39.8538 89.7298 40.4724 90.3492 41.2335 90.3492H93.0224C93.7828 90.3492 94.4022 89.7298 94.4022 88.9694C94.4022 88.1814 93.7836 87.562 93.0224 87.562Z" fill="black"/>
<path d="M96.593 95.7993C96.7631 95.0258 96.2856 94.096 95.1013 94.096C95.3197 93.2367 94.6873 92.3506 93.7636 92.3506H40.4354C39.5478 92.3506 38.8648 93.1892 39.1024 94.0983C38.378 94.1397 37.8016 94.7415 37.8016 95.4758C37.8016 95.8637 37.9349 95.7985 37.6667 95.7985C36.9062 95.7985 36.2869 96.4179 36.2869 97.1783C36.2869 98.2392 37.0573 98.6716 37.6667 98.6716H96.7907C97.5511 98.6716 98.1705 98.0522 98.1705 97.2918C98.1705 97.0557 98.146 95.7993 96.593 95.7993ZM40.4354 93.1171H93.7636C94.3355 93.1171 94.5056 93.7273 94.2803 94.096H39.9172C39.6934 93.7273 39.869 93.1171 40.4354 93.1171ZM39.1814 94.8626H95.2454C95.7957 94.8626 95.9736 95.4275 95.7858 95.7993H38.6394C38.4531 95.4275 38.6363 94.8626 39.1814 94.8626ZM97.4047 97.2918C97.4047 97.6306 97.1303 97.905 96.7915 97.905H37.6659C37.3271 97.905 37.0526 97.6306 37.0526 97.2918V97.1791C37.0526 96.8403 37.3271 96.5658 37.6659 96.5658H96.7907C97.1295 96.5658 97.404 96.8403 97.404 97.1791V97.2918H97.4047Z" fill="black"/>
<path d="M93.0224 79.6635C93.8426 79.6635 93.8357 80.9176 93.0224 80.9176H41.2335C40.4118 80.9176 40.4218 79.6635 41.2335 79.6635H93.0224ZM93.0224 78.897H41.2335C40.4724 78.897 39.8538 79.5163 39.8538 80.2768C39.8538 81.0648 40.4724 81.6841 41.2335 81.6841H93.0224C93.7828 81.6841 94.4022 81.0648 94.4022 80.3044C94.4022 79.5156 93.7836 78.897 93.0224 78.897Z" fill="black"/>
<path d="M93.0224 83.996C93.8442 83.996 93.8342 85.2501 93.0224 85.2501H41.2335C40.4118 85.2501 40.4218 83.996 41.2335 83.996H93.0224ZM93.0224 83.2295H41.2335C40.4724 83.2295 39.8538 83.8489 39.8538 84.6093C39.8538 85.3973 40.4724 86.0167 41.2335 86.0167H93.0224C93.7828 86.0167 94.4022 85.3973 94.4022 84.6369C94.4022 83.8489 93.7836 83.2295 93.0224 83.2295Z" fill="black"/>
<path d="M92.3556 100.151C92.2521 97.9941 91.9278 97.4545 90.6737 95.9053C89.9555 95.0176 88.0429 92.4236 87.7471 91.4064C87.373 90.1193 87.9203 81.718 88.0882 79.8169C88.1257 79.3953 87.8138 79.0228 87.3921 78.986C86.9736 78.9484 86.5988 79.2604 86.5612 79.682C86.2584 83.1039 86.1005 86.5794 86.0921 90.0128C86.0905 90.5394 86.089 91.1941 86.2745 91.8349C86.6532 93.1373 88.6209 95.8079 89.4818 96.8696C90.5756 98.2187 90.7412 98.4694 90.824 100.224C90.8807 101.431 90.9206 102.647 90.942 103.863C89.7991 102.314 88.5864 100.781 87.1859 99.4245L87.225 98.2892H86.4562C86.3841 100.315 86.322 102.081 86.3144 102.311C86.3075 102.523 86.4738 102.7 86.6846 102.707C86.982 102.716 87.0763 102.452 87.0802 102.337C87.1001 101.72 87.1269 101.106 87.1468 100.489C88.5496 101.939 89.7822 103.567 90.9581 105.187C90.9666 106.284 90.9604 107.38 90.9397 108.469C90.9321 108.893 91.2686 109.243 91.6917 109.25C92.2935 109.26 92.469 108.711 92.4728 108.499C92.525 105.73 92.4851 102.922 92.3548 100.153L92.3556 100.151Z" fill="black"/>
<path d="M46.6812 98.2885H45.9216V98.822C44.7173 100.521 43.5384 102.264 42.4085 104.022C42.5434 95.9743 42.594 99.5801 46.4037 93.2546C47.1274 92.0511 47.2661 91.4938 47.2615 90.0121C47.2523 86.5787 47.0944 83.1031 46.7924 79.6813C46.7556 79.2597 46.3838 78.9477 45.9614 78.9852C45.5398 79.0228 45.2279 79.3946 45.2654 79.8162C45.5644 83.1944 45.72 86.6254 45.7284 90.0159C45.7315 91.2263 45.6625 91.5114 45.0899 92.4635C42.2383 97.1985 41.1682 96.5139 40.998 100.15C40.8677 102.918 40.8271 105.726 40.8792 108.497C40.8869 108.915 41.2288 109.251 41.6458 109.249C42.2421 109.245 42.4169 108.71 42.4123 108.468C42.3939 107.475 42.387 106.477 42.3924 105.477C42.7527 104.929 43.5591 103.562 45.9323 100.158C45.943 100.942 45.9553 101.726 45.9829 102.507C46.0005 103.017 46.7663 102.987 46.7487 102.48C46.7004 101.087 46.6789 99.6882 46.682 98.2877L46.6812 98.2885Z" fill="black"/>
<path d="M19.2227 115.405C19.6703 114.69 19.0356 113.38 18.1595 113.003C17.3738 112.664 17.1423 113.41 17.4573 113.746C17.557 113.852 17.6888 113.886 17.8375 113.943C17.8942 113.964 17.7294 113.893 17.8061 113.931C18.128 114.089 18.2568 114.159 18.4669 114.408C18.4807 114.424 18.4998 114.441 18.5098 114.46C18.4653 114.374 18.4968 114.445 18.5129 114.468C18.6432 114.653 18.752 114.864 18.8072 115.084C18.8333 115.186 18.8823 115.273 18.9191 115.367C18.9705 115.497 19.1422 115.536 19.2227 115.407V115.405Z" fill="black"/>
<path d="M20.4945 115.138C20.2147 112.409 21.6412 111.245 20.9283 110.944C20.5619 110.79 20.3603 111.232 20.2561 111.495C19.7854 112.684 19.7057 113.945 19.9479 115.212C20.0062 115.516 20.5274 115.451 20.4952 115.137L20.4945 115.138Z" fill="black"/>
<path d="M21.4834 115.217C21.5585 114.828 21.6834 114.58 21.8912 114.289C21.8597 114.327 21.941 114.219 21.8912 114.289C22.3649 113.71 22.3971 113.886 22.4906 113.504C22.532 113.335 22.427 113.169 22.128 113.172C21.9494 113.173 21.7961 113.31 21.6259 113.484C21.2917 113.826 20.9813 114.443 20.9284 115.142C20.9176 115.282 21.0441 115.402 21.1737 115.42C21.3032 115.438 21.4573 115.356 21.4841 115.218L21.4834 115.217Z" fill="black"/>
<path d="M51.7235 110.249C51.8608 109.529 51.6814 108.825 51.3203 108.308C51.1548 108.071 50.8734 107.711 50.5469 107.807C50.3874 107.853 50.284 107.996 50.2778 108.16C50.2679 108.447 50.5699 108.574 50.8159 108.869C51.0881 109.196 51.2636 109.647 51.2291 110.182C51.2115 110.462 51.6699 110.529 51.7235 110.249Z" fill="black"/>
<path d="M52.7117 110.353C52.6963 109.585 52.8619 108.81 53.3157 107.942C53.4506 107.684 53.6177 107.446 53.7649 107.196C53.9619 106.863 53.4936 106.485 53.2214 106.777C52.3729 107.689 52.1368 109.173 52.3223 110.405C52.356 110.628 52.7147 110.572 52.7101 110.352L52.7117 110.353Z" fill="black"/>
<path d="M53.9796 110.428C54.1091 110.037 54.3268 109.782 54.6549 109.508C54.6871 109.481 54.5951 109.552 54.6442 109.517C54.7592 109.432 54.7576 109.452 54.924 109.317C54.9623 109.286 54.9385 109.311 54.914 109.325C55.39 109.062 55.0918 108.601 54.7799 108.694C54.1076 108.897 53.5986 109.583 53.4514 110.282C53.3732 110.654 53.87 110.759 53.9796 110.428Z" fill="black"/>
<path d="M86.913 117.08C87.2143 115.896 86.7613 114.646 85.7808 113.924C85.6091 113.798 85.3401 113.896 85.2404 114.066C85.1392 114.239 85.1691 114.45 85.416 114.632C85.1684 114.439 86.6149 115.392 86.4723 117.02C86.45 117.274 86.8517 117.321 86.913 117.08Z" fill="black"/>
<path d="M88.2889 116.853C88.6554 113.9 89.2793 113.704 89.2226 113.097C89.2034 112.892 89.0041 112.752 88.8102 112.86C88.4691 113.05 88.3526 113.445 88.2207 113.79C87.7355 115.065 87.7002 116.002 87.8566 116.911C87.9026 117.178 88.2614 117.076 88.2889 116.853Z" fill="black"/>
<path d="M89.185 116.994C89.4556 116.419 89.7062 116.151 90.1585 115.715C90.3049 115.573 90.4774 115.481 90.5617 115.209C90.6154 115.036 90.4705 114.874 90.3019 114.868C90.0405 114.859 89.8435 115.032 89.6595 115.196C89.323 115.495 88.9205 116.07 88.6837 116.783C88.6407 116.912 88.7228 117.056 88.8423 117.106C88.9581 117.155 89.1267 117.118 89.185 116.994Z" fill="black"/>
<path d="M110.979 106.464C111.231 105.803 111.143 104.993 110.652 104.251C110.506 104.028 110.254 103.678 109.972 103.64C109.619 103.591 109.45 103.865 109.518 104.093C109.639 104.506 110.024 104.433 110.459 105.62C110.533 105.824 110.595 106.063 110.634 106.418C110.656 106.615 110.906 106.654 110.979 106.464Z" fill="black"/>
<path d="M112.178 106.222C112.036 105.111 112.511 104.001 113.36 103.281C113.488 103.171 113.62 103.072 113.676 102.906C113.721 102.771 113.734 102.629 113.604 102.538C113.312 102.336 112.959 102.623 112.752 102.816C111.902 103.604 111.432 104.979 111.79 106.275C111.846 106.482 112.207 106.45 112.178 106.222Z" fill="black"/>
<path d="M114.001 104.899C114.053 104.856 113.953 104.934 113.99 104.908C114.536 104.513 114.667 104.437 114.694 104.259C114.769 103.734 114.004 103.662 113.305 104.593C113.035 104.952 112.566 105.888 113.004 105.988C113.417 106.082 113.188 105.566 114.002 104.898L114.001 104.899Z" fill="black"/>
<path d="M126.441 115.583C126.644 115.302 126.61 115.076 126.531 114.695C126.361 113.882 125.795 113.077 124.997 112.621C124.659 112.428 124.295 112.666 124.32 112.951C124.349 113.279 124.54 113.336 124.698 113.443C125.213 113.791 125.584 114.286 125.873 114.827C126.094 115.241 126.065 115.436 126.291 115.515L126.198 115.461C126.288 115.555 126.362 115.691 126.442 115.583H126.441Z" fill="black"/>
<path d="M127.512 115.443C127.889 113.757 128.044 112.324 128.435 111.627C128.594 111.344 128.979 111.034 128.988 110.7C128.997 110.383 128.37 110.198 127.817 111.113C127.177 112.173 127.131 114.024 127.036 115.378C127.017 115.65 127.453 115.708 127.513 115.442L127.512 115.443Z" fill="black"/>
<path d="M128.425 115.304C128.796 114.466 129.479 113.62 129.388 113.738C129.63 113.426 129.757 113.386 129.829 113.032C129.867 112.848 129.722 112.714 129.542 112.745C129.216 112.8 129.085 112.988 128.931 113.178C128.392 113.845 128.178 114.434 128.073 115.156C128.034 115.422 128.354 115.466 128.425 115.304Z" fill="black"/>
<path d="M148.388 135.876H3.83274C3.62117 135.876 3.44946 135.704 3.44946 135.493C3.44946 135.281 3.62117 135.11 3.83274 135.11H148.388C148.6 135.11 148.771 135.281 148.771 135.493C148.771 135.704 148.6 135.876 148.388 135.876Z" fill="black"/>
<path d="M20.3136 127.404H15.7143C15.5028 127.404 15.3311 127.232 15.3311 127.02C15.3311 126.809 15.5028 126.637 15.7143 126.637H20.3136C20.5252 126.637 20.6969 126.809 20.6969 127.02C20.6969 127.232 20.5252 127.404 20.3136 127.404Z" fill="black"/>
<path d="M126.248 127.404H117.42C117.209 127.404 117.037 127.232 117.037 127.02C117.037 126.809 117.209 126.637 117.42 126.637H126.248C126.459 126.637 126.631 126.809 126.631 127.02C126.631 127.232 126.459 127.404 126.248 127.404ZM108.592 127.404H99.7643C99.5527 127.404 99.381 127.232 99.381 127.02C99.381 126.809 99.5527 126.637 99.7643 126.637H108.592C108.803 126.637 108.975 126.809 108.975 127.02C108.975 127.232 108.803 127.404 108.592 127.404ZM90.9359 127.404H82.1075C81.896 127.404 81.7243 127.232 81.7243 127.02C81.7243 126.809 81.896 126.637 82.1075 126.637H90.9359C91.1475 126.637 91.3192 126.809 91.3192 127.02C91.3192 127.232 91.1475 127.404 90.9359 127.404ZM73.2799 127.404H64.4515C64.24 127.404 64.0682 127.232 64.0682 127.02C64.0682 126.809 64.24 126.637 64.4515 126.637H73.2799C73.4914 126.637 73.6632 126.809 73.6632 127.02C73.6632 127.232 73.4914 127.404 73.2799 127.404ZM55.6239 127.404H46.7956C46.584 127.404 46.4123 127.232 46.4123 127.02C46.4123 126.809 46.584 126.637 46.7956 126.637H55.6239C55.8355 126.637 56.0072 126.809 56.0072 127.02C56.0072 127.232 55.8355 127.404 55.6239 127.404ZM37.968 127.404H29.1396C28.9281 127.404 28.7563 127.232 28.7563 127.02C28.7563 126.809 28.9281 126.637 29.1396 126.637H37.968C38.1795 126.637 38.3513 126.809 38.3513 127.02C38.3513 127.232 38.1795 127.404 37.968 127.404Z" fill="black"/>
<path d="M139.675 127.404H135.076C134.865 127.404 134.693 127.232 134.693 127.02C134.693 126.809 134.865 126.637 135.076 126.637H139.675C139.887 126.637 140.059 126.809 140.059 127.02C140.059 127.232 139.887 127.404 139.675 127.404Z" fill="black"/>
<path d="M138.418 121.871H16.6533C16.4417 121.871 16.27 121.699 16.27 121.487C16.27 121.276 16.4417 121.104 16.6533 121.104H138.418C138.63 121.104 138.801 121.276 138.801 121.487C138.801 121.699 138.63 121.871 138.418 121.871Z" fill="black"/>
</svg>
