<svg width="154" height="155" viewBox="0 0 154 155" fill="none" xmlns="http://www.w3.org/2000/svg">
<path fill-rule="evenodd" clip-rule="evenodd" d="M69.8103 60.2277C68.2772 59.7601 55.7291 61.4158 54.0044 62.42C52.1724 69.8553 55.5375 99.9033 56.1507 102.579L73.6583 102.126C73.8269 97.9717 72.8304 72.9981 70.9601 63.7997C70.3469 60.7566 69.8869 60.3963 69.8103 60.2277ZM70.3775 60.0284C73.3133 64.6276 74.1642 98.125 73.8959 102.257C73.8949 102.272 73.891 102.286 73.8843 102.3C73.8776 102.314 73.8683 102.326 73.8569 102.336C73.8455 102.346 73.8322 102.353 73.8179 102.358C73.8035 102.363 73.7884 102.365 73.7733 102.364L55.9974 103.023C55.7291 103.023 55.6831 102.801 55.3459 100.432C54.3264 93.2805 51.6895 69.1961 53.4372 62.2207C53.4829 62.0857 53.5754 61.9716 53.6978 61.8987C55.1312 60.9559 68.9594 58.9399 70.1859 59.7524C70.2371 59.7804 70.281 59.8199 70.3143 59.8678C70.3475 59.9157 70.3692 59.9707 70.3775 60.0284ZM82.2434 73.9103C80.2428 79.3833 79.5376 95.994 79.8135 101.735L96.6082 101.981C97.1678 97.9793 98.3252 77.26 96.3016 73.504C95.9567 72.9368 82.8643 73.1897 82.2434 73.9103ZM96.8688 73.3047C98.9155 77.4056 97.7963 97.987 97.0605 102.272C97.0496 102.331 97.0182 102.384 96.9719 102.422C96.9256 102.46 96.8673 102.48 96.8075 102.479L79.7292 101.973C79.5606 101.973 79.5299 101.812 79.4839 100.172C79.3229 94.116 79.6602 79.3603 81.7298 73.6573C81.8448 73.343 82.3967 73.2281 82.7493 73.1591C85.4169 72.6225 93.933 72.3925 96.1406 72.8141C96.4319 72.8908 96.8075 72.9981 96.8535 73.3047H96.8688ZM145.099 66.7585C143.252 66.2143 132.666 66.4826 131.056 67.1878C128.887 73.2051 128.373 96.5919 128.565 103C134.083 103.53 139.635 103.617 145.168 103.261C145.635 99.8573 146.847 76.4321 145.651 68.8282C145.579 68.1132 145.392 67.4145 145.099 66.7585ZM145.681 66.5899C147.766 70.8595 146.295 99.4127 145.59 103.514C145.58 103.564 145.555 103.609 145.518 103.644C145.48 103.678 145.433 103.7 145.383 103.705C139.735 104.026 134.071 103.867 128.45 103.23C127.944 103.077 127.99 73.9103 130.535 66.9425C130.65 66.6206 131.202 66.5132 131.554 66.4443C134.191 65.9077 142.723 65.6777 144.946 66.0993C145.283 66.153 145.697 66.2756 145.712 66.5899H145.681ZM123.122 58.6333C121.589 57.9741 108.06 58.2424 106.113 59.1162C103.507 66.2066 103.047 95.6797 103.4 103.031L122.916 103.222C123.536 98.8685 125.177 70.3766 123.805 61.1935C123.748 60.3035 123.517 59.4334 123.122 58.6333ZM123.72 58.4953C126.304 63.6234 124.081 99.1215 123.329 103.483C123.321 103.536 123.293 103.584 123.253 103.619C123.212 103.654 123.161 103.674 123.107 103.675L103.315 103.268C103.139 103.268 103.108 103.084 103.039 100.501C102.848 92.7976 102.94 66.0073 105.592 58.8709C105.652 58.7398 105.758 58.6359 105.891 58.5797C107.516 57.7595 122.348 57.2229 123.521 58.1964C123.576 58.2261 123.623 58.2689 123.658 58.3211C123.693 58.3732 123.714 58.433 123.72 58.4953Z" fill="black"/>
<path fill-rule="evenodd" clip-rule="evenodd" d="M59.102 65.8311C58.0513 65.6394 56.9691 65.7212 55.9592 66.0687C55.9596 66.9956 56.0339 67.9209 56.1815 68.8359C57.1841 68.8081 58.181 68.6745 59.1556 68.4373C59.2108 68.1055 59.2365 67.7695 59.2323 67.4332C59.2443 66.9521 59.2264 66.4709 59.1786 65.9921C59.171 65.8694 59.1786 65.8694 59.102 65.8311ZM55.7446 65.9921C55.7446 65.9921 55.6219 67.5251 55.6603 68.4143C55.6986 69.1808 55.6986 69.4338 57.3926 69.2498C58.1096 69.185 58.8169 69.0384 59.5006 68.8129C59.6462 68.7209 59.6769 68.514 59.7075 68.2687C59.7612 67.8241 59.8455 65.8158 59.5236 65.5015C58.849 64.8729 55.7522 65.6395 55.7446 65.9921ZM108.62 63.8611C108.543 64.7794 108.543 65.7024 108.62 66.6206H109.011C109.864 66.6308 110.718 66.577 111.563 66.4597C111.732 65.6399 111.82 64.8054 111.824 63.9684C111.41 63.6925 109.072 63.6082 108.62 63.8611ZM108.382 63.7768C108.382 63.7768 108.106 65.3099 108.06 66.176C108.014 67.0422 108.06 67.2262 109.724 67.2032C110.451 67.2123 111.176 67.1351 111.885 66.9732C112.039 66.8889 112.1 66.6973 112.154 66.429C112.253 65.9767 112.529 63.9838 112.23 63.6312C111.617 62.926 108.436 63.3782 108.382 63.7768ZM117.036 63.8305C116.96 64.7487 116.96 65.6717 117.036 66.59C117.167 66.5989 117.297 66.5989 117.427 66.59C118.281 66.6001 119.134 66.5463 119.98 66.429C120.153 65.6099 120.24 64.775 120.24 63.9378C119.804 63.6235 117.504 63.5775 117.036 63.8305ZM116.806 63.7538C116.656 64.5475 116.546 65.3483 116.477 66.153C116.477 66.9196 116.477 67.1955 118.14 67.1802C118.867 67.182 119.592 67.1049 120.302 66.9502C120.463 66.8659 120.516 66.6743 120.57 66.3983C120.67 65.9461 120.946 63.9531 120.647 63.6005C120.034 62.926 116.852 63.3552 116.806 63.7538ZM116.952 71.9863C116.879 72.9047 116.879 73.8275 116.952 74.7459H117.343C118.196 74.7573 119.05 74.7061 119.896 74.5926C120.068 73.7733 120.155 72.9385 120.156 72.1013C119.75 71.7794 117.435 71.7334 116.952 71.9863ZM116.722 71.902C116.572 72.6957 116.462 73.4965 116.392 74.3013C116.354 75.0678 116.392 75.3514 118.056 75.3284C118.783 75.3344 119.508 75.2573 120.217 75.0985C120.378 75.0141 120.432 74.8225 120.486 74.5542C120.585 74.102 120.861 72.109 120.562 71.7564C119.949 71.0358 116.737 71.5034 116.737 71.902H116.722ZM116.507 80.8244C116.46 81.7449 116.486 82.6676 116.584 83.584H116.975C117.828 83.5626 118.679 83.4781 119.52 83.331C119.663 82.5036 119.717 81.6633 119.681 80.8244C119.29 80.5025 116.983 80.5562 116.507 80.8244ZM116.27 80.7478C116.27 80.7478 116.055 82.2809 116.04 83.1624C116.025 84.0439 116.04 84.2048 117.742 84.1205C118.469 84.0982 119.192 83.9928 119.896 83.8062C120.049 83.7143 120.095 83.5226 120.141 83.2467C120.225 82.7944 120.417 80.7861 120.141 80.4488C119.466 79.7896 116.308 80.3492 116.27 80.7478ZM108.306 89.5936C108.254 90.5139 108.28 91.437 108.382 92.3531H108.773C109.626 92.3277 110.477 92.2432 111.318 92.1001C111.453 91.2718 111.507 90.4323 111.479 89.5936C111.065 89.2716 108.75 89.3176 108.306 89.5936ZM108.068 89.5169C107.95 90.3173 107.873 91.1232 107.838 91.9315C107.838 92.698 107.838 92.974 109.54 92.8896C110.265 92.8679 110.985 92.7624 111.686 92.5754C111.839 92.4834 111.893 92.2917 111.939 92.0158C112.016 91.5635 112.215 89.5552 111.939 89.218C111.241 88.5281 108.076 89.1183 108.045 89.5169H108.068ZM108.359 97.7801C108.312 98.7005 108.337 99.6233 108.436 100.54C108.566 100.547 108.697 100.547 108.827 100.54C109.68 100.517 110.531 100.43 111.372 100.279C111.507 99.4533 111.561 98.6163 111.533 97.7801C111.142 97.4658 108.834 97.5118 108.359 97.7801ZM108.122 97.7111C108.122 97.7111 107.907 99.2442 107.892 100.118C107.876 100.992 107.892 101.168 109.593 101.084C110.321 101.058 111.043 100.952 111.747 100.77C111.901 100.678 111.947 100.478 111.993 100.21C112.077 99.7578 112.269 97.7494 111.993 97.4122C111.318 96.7146 108.16 97.3049 108.122 97.7111ZM116.392 89.2869C116.345 90.2074 116.371 91.1301 116.469 92.0465C116.599 92.0542 116.73 92.0542 116.86 92.0465C117.714 92.0238 118.564 91.9367 119.405 91.7858C119.548 90.961 119.602 90.1233 119.566 89.2869C119.175 88.988 116.868 88.988 116.392 89.2869ZM116.155 89.218C116.155 89.218 115.94 90.751 115.925 91.6249C115.91 92.4987 115.925 92.675 117.627 92.5907C118.354 92.5646 119.076 92.4592 119.781 92.2764C119.934 92.1844 119.98 91.9928 120.026 91.7168C120.11 91.2646 120.302 89.2563 120.026 88.919C119.351 88.2215 116.193 88.8194 116.155 89.218ZM116.04 98.1327C115.938 99.0488 115.912 99.9718 115.963 100.892H116.354C117.207 100.918 118.06 100.879 118.907 100.777C119.092 99.9594 119.193 99.1245 119.206 98.286C118.83 97.9641 116.523 97.8874 116.04 98.1327ZM115.802 98.0484C115.802 98.0484 115.503 99.5815 115.442 100.44C115.381 101.298 115.396 101.482 117.09 101.49C117.815 101.508 118.541 101.444 119.252 101.298C119.413 101.214 119.466 101.023 119.535 100.754C119.635 100.302 119.942 98.309 119.65 97.9564C119.037 97.2282 115.864 97.6498 115.802 98.0484ZM108.536 71.8024C108.463 72.7208 108.463 73.6435 108.536 74.5619H108.926C109.78 74.5733 110.633 74.5221 111.479 74.4086C111.651 73.5894 111.739 72.7545 111.74 71.9174C111.372 71.5954 109.018 71.5494 108.536 71.8024ZM108.306 71.7181C108.306 71.7181 108.022 73.2511 107.976 74.1173C107.93 74.9835 107.976 75.1675 109.639 75.1445C110.366 75.1543 111.092 75.0771 111.801 74.9145C111.962 74.8302 112.016 74.6385 112.077 74.3703C112.169 73.918 112.445 71.925 112.154 71.5724C111.533 70.8519 108.352 71.3578 108.306 71.7181ZM108.007 80.6941C108.007 81.6159 108.081 82.5361 108.229 83.446C108.359 83.4558 108.49 83.4558 108.62 83.446C109.472 83.3815 110.318 83.2508 111.149 83.0551C111.23 82.224 111.23 81.3872 111.149 80.5562C110.774 80.2342 108.467 80.4029 108.007 80.6941ZM107.769 80.6328C107.769 80.6328 107.631 82.1659 107.662 83.0551C107.692 83.9442 107.731 84.0975 109.417 83.9289C110.139 83.8659 110.851 83.7219 111.54 83.4996C111.694 83.4 111.732 83.2084 111.763 82.9324C111.824 82.4725 111.916 80.4642 111.586 80.1422C110.912 79.483 107.784 80.2342 107.769 80.6328ZM83.7306 77.559C83.6578 78.48 83.6578 79.4052 83.7306 80.3262H84.1215C84.9759 80.3239 85.829 80.2599 86.6741 80.1346C86.8302 79.3109 86.9047 78.4739 86.8964 77.6357C86.5821 77.3291 84.2288 77.2907 83.7306 77.559ZM83.5006 77.4824C83.5006 77.4824 83.24 79.0154 83.2017 79.8893C83.1634 80.7631 83.2017 80.9318 84.8804 80.8934C85.6085 80.8884 86.3336 80.801 87.042 80.6328C87.1953 80.5485 87.249 80.3492 87.3026 80.0886C87.3946 79.6363 87.6476 77.628 87.341 77.2831C86.7124 76.5779 83.5466 77.0914 83.5006 77.49V77.4824ZM91.1506 77.2831C91.0778 78.2015 91.0778 79.1242 91.1506 80.0426H91.5492C92.4012 80.0441 93.252 79.98 94.0941 79.851C94.2566 79.0281 94.3337 78.1907 94.3241 77.3521C94.0021 77.0531 91.6489 77.0148 91.1506 77.2831ZM90.913 77.1988C90.913 77.1988 90.66 78.7318 90.6217 79.6057C90.6217 80.3722 90.6217 80.6558 92.3004 80.6098C93.0262 80.6091 93.7493 80.5216 94.4544 80.3492C94.6153 80.2649 94.669 80.0656 94.7227 79.805C94.8146 79.3527 95.0599 77.3444 94.7227 76.9995C94.1324 76.2943 90.959 76.8078 90.913 77.1988ZM91.1736 85.4313C91.1045 86.3498 91.1045 87.2723 91.1736 88.1908H91.5722C92.4242 88.1927 93.275 88.1286 94.1171 87.9992C94.2793 87.1789 94.3563 86.3441 94.3471 85.5079C94.0251 85.2013 91.6719 85.1553 91.1736 85.4313ZM90.936 85.3546C90.936 85.3546 90.683 86.8877 90.6447 87.7539C90.6064 88.6201 90.6447 88.804 92.3234 88.758C93.0487 88.756 93.7714 88.6712 94.4774 88.5051C94.6383 88.4131 94.692 88.2215 94.7456 87.9532C94.8376 87.5086 95.0829 85.5003 94.7456 85.1553C94.1554 84.4425 90.9896 84.956 90.936 85.3546ZM83.3243 85.7456C83.2515 86.664 83.2515 87.5867 83.3243 88.5051H83.7153C84.5698 88.5068 85.4232 88.4428 86.2678 88.3135C86.4236 87.4924 86.4981 86.6579 86.4901 85.8222C86.1758 85.5156 83.8226 85.4773 83.3243 85.7456ZM83.0944 85.6689C83.0944 85.6689 82.8338 87.202 82.7954 88.0682C82.7571 88.9343 82.7954 89.1183 84.4741 89.0723C85.2019 89.0699 85.9271 88.985 86.6358 88.8194C86.7891 88.7274 86.8427 88.5357 86.8964 88.2675C86.9884 87.8152 87.2413 85.8146 86.9347 85.4696C86.3061 84.7568 83.1404 85.2703 83.0944 85.6689ZM83.47 94.2771C83.3972 95.1955 83.3972 96.1182 83.47 97.0366H83.8609C84.7154 97.0383 85.5688 96.9743 86.4135 96.8449C86.5696 96.0213 86.6441 95.1843 86.6358 94.346C86.3215 94.0471 83.9682 94.0088 83.47 94.2771ZM83.24 94.1927C83.24 94.1927 82.9794 95.7258 82.9411 96.5996C82.9411 97.3662 82.9411 97.6498 84.6198 97.6038C85.3456 97.6031 86.0687 97.5156 86.7737 97.3432C86.9347 97.2589 86.9884 97.0596 87.042 96.7989C87.134 96.3467 87.387 94.3384 87.042 93.9934C86.4518 93.2882 83.286 93.8018 83.24 94.1927ZM90.752 93.8555C90.6792 94.7764 90.6792 95.7017 90.752 96.6226C90.8822 96.6304 91.0128 96.6304 91.143 96.6226C91.9971 96.6216 92.8501 96.5601 93.6955 96.4387C93.8513 95.615 93.9257 94.778 93.9178 93.9398C93.6035 93.6255 91.2503 93.5872 90.752 93.8555ZM90.5221 93.7788C90.5221 93.7788 90.2614 95.3119 90.2231 96.1857C90.1848 97.0596 90.2231 97.2282 91.9018 97.1899C92.6274 97.1854 93.3501 97.0979 94.0558 96.9293C94.2167 96.8449 94.2704 96.6456 94.3241 96.3773C94.416 95.9328 94.669 93.9245 94.3241 93.5795C93.7415 92.8743 90.5681 93.3879 90.5221 93.7788ZM133.164 71.0818C133.091 72.0028 133.091 72.9281 133.164 73.849C134.149 73.8709 135.133 73.8093 136.108 73.6651C136.268 72.842 136.345 72.0048 136.338 71.1662C136.039 70.8595 133.662 70.8136 133.164 71.0818ZM132.927 71.0052C132.789 71.802 132.691 72.6054 132.635 73.4121C132.635 74.1786 132.635 74.4546 134.314 74.4162C135.04 74.4117 135.762 74.3243 136.468 74.1556C136.629 74.0713 136.675 73.872 136.729 73.6037C136.821 73.1515 137.073 71.1508 136.775 70.8059C136.146 70.093 132.973 70.5913 132.927 71.0052ZM132.766 79.2684C132.689 80.1866 132.689 81.1097 132.766 82.0279C133.75 82.0537 134.735 81.9921 135.709 81.8439C135.864 81.0227 135.938 80.1883 135.931 79.3527C135.648 79.0231 133.264 79.0231 132.766 79.2684ZM132.536 79.1917C132.536 79.1917 132.275 80.7248 132.237 81.591C132.198 82.4572 132.237 82.6411 133.915 82.5951C134.641 82.5936 135.363 82.5087 136.069 82.3422C136.23 82.2502 136.284 82.0586 136.338 81.7903C136.43 81.338 136.683 79.3374 136.376 78.9924C135.755 78.2566 132.574 78.7931 132.536 79.1917ZM132.413 87.271C132.34 88.1919 132.34 89.1172 132.413 90.0381C133.4 90.0603 134.387 89.9987 135.364 89.8542C135.518 89.0303 135.593 88.1935 135.586 87.3553C135.295 87.0487 132.911 87.0027 132.413 87.271ZM132.175 87.1943C132.175 87.1943 131.922 88.7274 131.884 89.6012C131.846 90.4751 131.884 90.6437 133.563 90.6054C134.288 90.6013 135.011 90.5139 135.717 90.3448C135.878 90.2604 135.931 90.0611 135.985 89.8005C136.077 89.3483 136.33 87.34 135.985 86.995C135.402 86.2898 132.221 86.8034 132.175 87.1943ZM132.359 94.7446C132.283 95.6654 132.283 96.591 132.359 97.5118C133.344 97.5337 134.329 97.4721 135.303 97.3278C135.461 96.5045 135.536 95.6673 135.525 94.829C135.241 94.5224 132.835 94.4764 132.359 94.7446ZM132.129 94.668C132.129 94.668 131.869 96.201 131.83 97.0749C131.792 97.9487 131.83 98.1174 133.509 98.079C134.235 98.075 134.957 97.9876 135.663 97.8184C135.824 97.7341 135.878 97.5348 135.931 97.2742C136.023 96.8143 136.276 94.8136 135.97 94.4687C135.349 93.7635 132.168 94.2771 132.129 94.668ZM139.496 94.6527C139.419 95.5709 139.419 96.4939 139.496 97.4122C140.48 97.434 141.465 97.3725 142.439 97.2282C142.594 96.4069 142.668 95.5726 142.661 94.737C142.378 94.4304 139.994 94.3537 139.496 94.6527ZM139.266 94.576C139.266 94.576 139.005 96.1091 138.967 96.9752C138.928 97.8414 138.967 98.0254 140.646 97.9794C141.371 97.9779 142.094 97.893 142.799 97.7264C142.96 97.6345 143.014 97.4428 143.068 97.1745C143.16 96.7223 143.413 94.7216 143.106 94.3767C142.485 93.6638 139.304 94.1774 139.266 94.576ZM139.672 86.8417C139.599 87.7601 139.599 88.6828 139.672 89.6012C140.657 89.6231 141.641 89.5615 142.615 89.4173C142.776 88.5968 142.853 87.7621 142.845 86.926C142.547 86.6194 140.17 86.5734 139.672 86.8417ZM139.434 86.7651C139.297 87.5593 139.199 88.3601 139.143 89.1643C139.143 89.9308 139.143 90.2144 140.822 90.1685C141.547 90.1665 142.27 90.0816 142.976 89.9155C143.137 89.8235 143.183 89.6319 143.236 89.3636C143.328 88.9113 143.581 86.9107 143.282 86.5658C142.654 85.8529 139.48 86.3665 139.434 86.7651ZM140.5 78.9541C140.427 79.8725 140.427 80.7952 140.5 81.7136C141.484 81.7355 142.469 81.6739 143.443 81.5297C143.604 80.7066 143.681 79.8694 143.673 79.0308C143.405 78.7242 141.029 78.6782 140.5 78.9541ZM140.262 78.8698C140.125 79.6667 140.028 80.47 139.971 81.2767C139.971 82.0432 139.971 82.3268 141.65 82.2809C142.375 82.2789 143.098 82.194 143.804 82.0279C143.965 81.9359 144.011 81.7366 144.064 81.476C144.156 81.0237 144.409 79.0231 144.11 78.6782C143.512 77.9653 140.339 78.4789 140.293 78.8698H140.262ZM140.577 70.8059C140.504 71.7243 140.504 72.647 140.577 73.5654C141.561 73.5873 142.546 73.5257 143.52 73.3814C143.678 72.5581 143.753 71.7209 143.742 70.8825C143.459 70.5913 141.075 70.5299 140.577 70.8059ZM140.347 70.7216C140.347 70.7216 140.086 72.2546 140.048 73.1285C140.009 74.0023 140.048 74.171 141.726 74.1326C142.454 74.1281 143.18 74.0407 143.888 73.872C144.041 73.7877 144.095 73.5884 144.149 73.3278C144.241 72.8755 144.493 70.8672 144.187 70.5223C143.566 69.8247 140.385 70.3306 140.347 70.7216ZM56.6644 73.941C56.639 74.8709 56.6878 75.8013 56.81 76.7235C57.8124 76.7191 58.8116 76.6112 59.7919 76.4016C59.8579 76.0709 59.8913 75.7346 59.8915 75.3974C59.9235 74.8869 59.9235 74.3749 59.8915 73.8643C59.8685 73.5577 57.224 73.5731 56.6644 73.941ZM56.4498 73.8797C56.4498 73.8797 56.2888 75.4127 56.3118 76.2943C56.3348 77.1758 56.3118 77.3137 58.0135 77.1758C58.7336 77.1294 59.446 77.0008 60.1368 76.7925C60.2824 76.7005 60.3208 76.4782 60.3514 76.2559C60.4204 75.8113 60.5507 73.803 60.2441 73.4811C59.5849 72.8142 56.4651 73.5041 56.4498 73.8797ZM59.9298 82.3652C58.9236 82.3006 57.9166 82.4794 56.994 82.8864C57.0654 83.8089 57.2115 84.7241 57.4309 85.6229C58.4261 85.5152 59.4074 85.3046 60.3591 84.9944C60.3909 84.6604 60.3909 84.3242 60.3591 83.9902C60.3374 83.5195 60.2836 83.0508 60.1981 82.5875C60.1751 82.4035 60.1751 82.3882 59.9298 82.3652ZM56.7717 82.8481C56.7717 82.8481 56.7717 84.3811 56.8867 85.2627C56.9787 86.0292 57.017 86.2745 58.6727 85.9602C59.3824 85.8375 60.0765 85.637 60.7423 85.3623C60.8803 85.255 60.8957 85.048 60.9033 84.8027C60.9033 84.3582 60.8497 82.3422 60.5047 82.0586C59.7842 81.4607 56.7641 82.4725 56.7717 82.8558V82.8481ZM61.072 91.2876C60.0605 91.1896 59.0403 91.3369 58.0978 91.7168C58.1352 92.6422 58.2506 93.5627 58.4428 94.4687C59.4423 94.3915 60.4312 94.2117 61.3939 93.9321C61.4217 93.598 61.4217 93.2621 61.3939 92.928C61.3847 92.4432 61.3463 91.9594 61.2789 91.4792C61.3019 91.4256 61.3326 91.3566 61.072 91.2876ZM57.8755 91.6785C57.8755 91.6785 57.8295 93.2116 57.9139 94.0931C57.9828 94.8596 57.9982 95.1126 59.6769 94.8596C60.3915 94.7596 61.0932 94.5823 61.7695 94.3307C61.8998 94.2311 61.9228 94.0164 61.9458 93.7711C61.9458 93.3266 61.9458 91.3106 61.6315 91.0193C60.9263 90.4061 57.8755 91.3259 57.8755 91.7015V91.6785ZM64.345 65.2255C64.3518 66.1473 64.4287 67.0673 64.575 67.9774C65.5592 67.9203 66.5365 67.7766 67.4955 67.5481C67.5799 66.7148 67.5799 65.875 67.4955 65.0416C67.1659 64.7733 64.8203 64.9343 64.345 65.2255ZM64.1074 65.1642C64.1074 65.1642 63.9771 66.6973 64.0154 67.5865C64.0538 68.4756 64.0768 68.6289 65.7708 68.4526C66.4927 68.3871 67.2049 68.2405 67.8941 68.0157C68.0474 67.9161 68.078 67.7091 68.1164 67.4408C68.17 66.9886 68.2543 64.9726 67.9171 64.6507C67.2349 64.0068 64.1227 64.7886 64.1074 65.1796V65.1642ZM67.9094 73.1055C66.9599 72.9621 65.9903 73.0355 65.0732 73.3201C65.0538 74.2428 65.1076 75.1655 65.2342 76.0796H65.6251C66.4787 76.0365 67.3272 75.9237 68.1624 75.7423C68.2698 74.9808 68.298 74.2101 68.2467 73.4428C68.2314 73.2128 68.331 73.1821 67.9094 73.1055ZM64.8433 73.2588C64.8433 73.2588 64.6747 74.7918 64.69 75.6734C64.7053 76.5549 64.736 76.7158 66.4223 76.5779C67.1478 76.5345 67.8656 76.4059 68.561 76.1946C68.7143 76.1026 68.7526 75.9033 68.7986 75.635C68.8599 75.1751 68.9979 73.1591 68.6759 72.8372C67.9937 72.1627 64.851 72.8909 64.828 73.2588H64.8433ZM68.2773 81.8056C67.3183 81.7177 66.3517 81.8461 65.4488 82.1812C65.4883 83.103 65.5985 84.0204 65.7785 84.9254C66.7577 84.8285 67.727 84.649 68.6759 84.3888C68.7416 83.6228 68.7262 82.852 68.6299 82.0892C68.5993 81.8899 68.6989 81.8516 68.2773 81.8056ZM65.2112 82.1352C65.2112 82.1352 65.1269 83.6683 65.2112 84.5575C65.2955 85.4466 65.3109 85.5999 66.9972 85.324C67.7175 85.2354 68.4249 85.0631 69.1052 84.8104C69.2508 84.7108 69.2815 84.5115 69.3045 84.2355C69.3428 83.7756 69.3582 81.7596 69.0209 81.453C68.285 80.8474 65.2112 81.7443 65.2112 82.1352ZM66.246 90.4061C66.1731 91.327 66.1731 92.2523 66.246 93.1733C67.1826 93.1959 68.1192 93.1318 69.0439 92.9816H69.1895C69.3412 92.1602 69.4105 91.3256 69.3965 90.4904C69.0745 90.1455 66.7366 90.1378 66.246 90.4061ZM66.0084 90.3294C66.0084 90.3294 65.7631 91.8625 65.7325 92.7363C65.7018 93.6102 65.7325 93.7865 67.4188 93.7328C68.1449 93.7214 68.8673 93.6288 69.5728 93.4569C69.7338 93.3649 69.7797 93.1733 69.8334 92.905C69.9254 92.4527 70.1553 90.4444 69.8334 90.0995C69.2125 89.3866 66.0544 89.9462 66.0084 90.3294Z" fill="black"/>
<path fill-rule="evenodd" clip-rule="evenodd" d="M149.545 47.3883C146.187 45.472 119.596 30.4786 117.971 29.6814C117.61 29.4797 117.223 29.3275 116.822 29.2292C116.147 29.2292 108.39 33.3225 87.3791 44.3375C85.0105 41.9843 67.1274 25.0439 63.0801 21.2573C63.961 20.0018 64.6941 18.6489 65.2647 17.2253C65.2788 17.1503 65.2676 17.0728 65.233 17.0048C65.1983 16.9369 65.1421 16.8823 65.0731 16.8497C63.6933 15.9069 52.8929 13.9829 51.0762 15.263C50.6393 15.5696 50.0184 17.0107 49.5432 17.6622C48.7766 18.7047 50.0644 22.5527 50.463 23.7945C50.3072 24.2162 50.2411 24.6658 50.2688 25.1145C50.2965 25.5633 50.4175 26.0013 50.624 26.4007C50.7668 26.8096 50.8846 27.2269 50.9766 27.6501C50.693 27.5888 50.4093 27.5045 50.2637 27.6501C48.2171 30.1873 32.5568 43.7473 27.72 46.2845C27.7457 45.5699 27.7098 44.8543 27.6127 44.1459C27.6127 44.0002 27.4824 43.9696 27.3674 43.9236C27.5131 43.3717 27.6664 42.7814 27.8043 42.2832C28.5709 42.1529 29.0998 41.8846 29.8893 41.7236C30.309 41.626 30.7002 41.4318 31.0315 41.1563C31.3629 40.8808 31.6253 40.5317 31.798 40.1369C32.0816 39.4394 31.8516 38.8645 31.9589 38.1516C31.9589 37.983 32.5952 37.6304 32.2656 36.9252C32.1359 36.5852 31.9316 36.2787 31.6677 36.0283C31.4729 35.8771 31.2862 35.7159 31.1081 35.5454C31.5604 35.3768 31.8746 35.1315 31.7213 34.6562C31.2533 33.8298 30.7415 33.0289 30.1883 32.257C29.967 31.9201 29.8158 31.5421 29.7437 31.1455C29.4984 30.2333 29.7897 30.379 29.6824 29.6125C30.0843 29.4019 30.4031 29.0615 30.5869 28.6466C30.6063 28.6032 30.6164 28.5562 30.6164 28.5086C30.6164 28.4611 30.6063 28.4141 30.5869 28.3707C30.7327 28.3188 30.8718 28.2493 31.0008 28.1637C31.591 27.7728 31.3917 27.2899 30.8858 26.8146C31.9206 25.8565 29.621 23.6412 24.9222 24.515C24.4693 24.6627 24.0263 24.8394 23.5961 25.0439C23.1386 24.8731 22.6498 24.8026 22.1627 24.837C21.1792 24.9384 20.2243 25.2272 19.3495 25.6878C18.6903 26.0404 17.7475 27.1519 17.9084 27.9414C17.6577 27.9824 17.4178 28.0737 17.2032 28.2097C15.9308 29.1449 15.3482 30.8926 16.4367 32.0424C16.3782 32.1671 16.3345 32.2983 16.3064 32.4333C16.1495 32.9069 16.1072 33.4109 16.1832 33.904C16.2591 34.3971 16.4511 34.8651 16.7433 35.2694C17.1452 35.765 17.6457 36.1715 18.2132 36.4631C18.7806 36.7548 19.4025 36.9252 20.0394 36.9635C20.013 37.0609 20.0001 37.1615 20.0011 37.2624C20.0011 37.6457 19.8094 38.5119 20.3 38.7955L20.4763 38.8568C20.277 39.6233 20.0624 40.4435 19.8861 41.1564C19.2192 40.9111 19.1196 40.8345 19.0122 40.9648C18.6608 41.3334 18.3779 41.7616 18.1767 42.2295C15.7775 41.5397 8.95536 50.0865 6.35682 59.6298C4.75477 65.6164 3.03775 83.0626 4.82376 84.703C5.0961 84.9525 5.39716 85.1686 5.7206 85.3469C5.28368 90.7586 7.18468 96.4539 9.88286 101.16C12.4891 105.744 18.0771 141.61 20.1544 143.412C20.387 143.555 20.649 143.644 20.9209 143.672C20.617 145.007 20.6886 146.4 21.1279 147.696C21.2122 147.957 21.5878 148.087 21.8944 148.172C23.7877 148.731 29.4984 149.053 31.476 148.455C31.8746 148.333 32.3269 148.11 32.3116 147.689C32.2119 145.044 27.4671 145.389 26.7005 145.075C26.716 144.654 26.7699 144.236 26.8615 143.826C27.1521 143.819 27.4405 143.775 27.72 143.695C30.0733 142.66 35.2474 103.13 35.8912 86.5044C36.6905 86.3294 37.4367 85.9668 38.0682 85.4465C39.425 85.4465 41.4716 84.795 42.0388 83.5455C42.1153 83.3216 42.1322 83.0815 42.0878 82.849C42.0435 82.6165 41.9394 82.3996 41.7859 82.2195C45.3732 80.1498 47.8338 77.0837 47.9871 72.9444C48.043 70.9967 47.7074 69.0576 47.0004 67.242C46.2934 65.4263 45.2292 63.771 43.8708 62.374C41.5083 60.1367 38.4462 58.7829 35.2014 58.5413C34.9637 57.6675 34.7185 56.8243 34.4348 56.0424C37.7574 55.1075 40.7676 53.2966 43.1503 50.7994C48.7766 44.9814 53.4678 38.0213 55.2845 30.172C55.9514 29.5511 56.8175 28.6849 57.676 27.7191C61.754 31.5518 83.3625 51.9875 85.4091 54.0494C85.5778 54.2104 85.8077 54.0494 86.0224 53.9728C86.4899 53.7582 115.357 38.8032 115.848 38.5962C119.888 39.562 141.098 52.3937 145.973 55.1073C146.009 55.1224 146.048 55.1303 146.088 55.1303C146.127 55.1303 146.166 55.1224 146.203 55.1073C146.379 55.0536 146.203 55.3372 148.732 50.7074C149.138 50.3701 149.614 48.1778 149.706 47.6413C149.703 47.5888 149.686 47.538 149.658 47.4938C149.63 47.4495 149.591 47.4132 149.545 47.3883ZM50.9766 26.2397C50.4017 24.5993 50.6163 23.4725 52.3027 23.1199C52.7022 23.0105 53.1149 22.9563 53.5291 22.959C53.7361 23.0203 54.1883 23.2273 54.1577 23.3039C54.1411 23.3435 54.1113 23.376 54.0734 23.3959C53.6661 23.6257 53.2269 23.7936 52.7703 23.8941C52.6627 23.9015 52.5568 23.9248 52.456 23.9631C52.1043 24.0287 51.7686 24.1614 51.4671 24.3541C51.0915 24.699 51.2755 25.3429 51.6358 25.6955C52.2337 26.2857 53.1688 25.8641 53.9354 25.5652C54.7019 25.2662 55.7751 24.7986 56.0357 25.0746C56.2963 25.3505 54.9855 26.0174 54.6712 26.6076C54.4336 27.0522 54.6712 27.9337 54.5639 28.7309C53.6978 28.432 52.1954 27.9184 51.3062 27.6655C51.225 27.184 51.115 26.7079 50.9766 26.2397ZM55.5758 24.4307C53.5674 25.0363 52.7779 25.6572 52.1724 25.4425C52.0607 25.3901 51.9645 25.3095 51.8933 25.2087C51.8221 25.1079 51.7783 24.9904 51.7661 24.8676C51.7048 24.5533 52.2567 24.492 52.6323 24.3157C53.0079 24.1394 53.3988 24.3157 54.1117 23.9018C54.3146 23.8053 54.4734 23.6355 54.5563 23.4265C55.1267 23.1896 55.7166 23.0024 56.3193 22.867L57.5841 23.2349L56.9019 24.0014L55.5758 24.4307ZM30.8321 51.3359C30.7862 50.784 30.4719 50.5694 30.0656 50.7227C29.6594 50.876 28.9695 51.4049 28.9541 51.3206C28.9388 51.2363 28.9541 51.3206 29.0001 51.3206C28.5862 51.0217 17.6555 43.364 17.0883 42.9194C17.1981 42.7336 17.3685 42.5911 17.5708 42.5158C17.773 42.4405 17.9951 42.4368 18.1997 42.5055C21.2463 43.5299 24.1474 44.9445 26.8309 46.7137C31.4837 49.7799 32.7715 51.8802 34.4272 57.7748C33.8293 57.0083 33.2391 56.1957 32.6258 55.4752C31.4377 54.0648 31.0928 54.0341 30.8858 53.5359C30.7991 52.8059 30.7811 52.0693 30.8321 51.3359ZM29.2991 31.2605C29.3782 31.703 29.545 32.1252 29.7897 32.5023C30.2649 33.2688 31.1924 34.5336 31.2614 34.8019C31.3304 35.0702 30.8398 35.0625 30.4949 35.2388C29.6824 35.0472 29.1918 35.5837 28.5632 35.6374C28.157 35.6374 27.7967 35.5761 27.4441 35.5837C26.8462 35.5837 27.1605 35.7217 26.4783 35.7217C26.026 35.7217 25.4358 35.6757 25.2978 35.7217C25.0295 35.7217 24.6003 35.921 24.2247 35.9747C23.8491 36.0283 23.7954 35.9287 23.7111 35.7907C23.2052 34.9168 22.5 31.6744 22.1167 31.3371L21.6874 30.9769C21.3183 30.7024 21.0492 30.3148 20.9209 29.8731C20.9209 29.6431 21.0206 29.4438 21.3962 29.3518C22.362 29.1142 23.2128 29.5358 24.171 29.7274C25.7041 30.0494 27.766 30.3637 29.2531 29.7811C29.3067 30.356 29.0538 30.3177 29.2914 31.2605H29.2991ZM20.4073 32.9009C20.7599 32.9469 21.1739 33.1002 21.2658 33.4451C21.2658 33.8207 21.2658 34.7099 21.2199 35.1315C20.599 35.1315 20.0087 34.3649 19.6868 33.7517C19.3648 33.1385 19.8708 32.8242 20.3997 32.9009H20.4073ZM21.3732 37.2471L21.5418 37.1628C21.4958 37.967 21.4958 38.7731 21.5418 39.5773C21.7641 40.7655 21.9251 41.2867 23.3661 41.8003C24.6135 42.2771 25.9525 42.4657 27.2831 42.3522L26.9152 43.7166C26.6392 43.6016 22.1014 41.8769 20.3537 41.2254C20.576 40.2289 20.7983 39.2477 21.3655 37.2471H21.3732ZM19.2192 41.2561C19.4492 41.3557 26.9995 44.2608 27.2295 44.3222C27.375 45.0805 27.4571 45.8497 27.4747 46.6218C24.676 44.7952 21.6439 43.3539 18.4603 42.3369C18.656 41.9415 18.9092 41.5773 19.2115 41.2561H19.2192ZM26.5932 143.81C26.4787 144.213 26.4043 144.627 26.3709 145.044C24.6157 145.182 22.8524 145.182 21.0972 145.044C21.0824 144.581 21.1004 144.118 21.1509 143.657C22.9557 143.849 24.7728 143.901 26.5856 143.81H26.5932ZM41.5176 83.2543C41.119 84.1358 39.7622 84.6494 38.8117 84.8257C37.3477 85.1093 36.0062 84.5037 34.6801 83.7832L37.3247 81.4836C37.4606 81.6365 37.6093 81.7775 37.7692 81.9052C38.1219 82.1581 38.4591 81.9895 38.7734 81.6905C39.3636 81.131 39.5399 80.3721 40.0918 80.5714C40.1556 80.5949 40.2113 80.6363 40.2521 80.6907C40.2929 80.7451 40.3171 80.8102 40.3218 80.878C40.0075 81.4836 39.0723 82.6027 39.9462 82.9783C40.2023 83.0405 40.4699 83.0373 40.7244 82.969C40.9789 82.9007 41.2121 82.7694 41.4026 82.5874C41.4763 82.6874 41.5246 82.8039 41.5433 82.9267C41.562 83.0496 41.5505 83.1751 41.5099 83.2926L41.5176 83.2543ZM23.7494 78.2565C24.7276 79.3041 25.9342 80.112 27.2754 80.6174C29.8357 82.2195 32.1736 83.4842 33.2314 84.0361C26.3326 83.8368 19.8171 81.1923 19.1042 74.2245C20.4996 75.7352 22.0575 77.0874 23.7494 78.2565ZM30.1193 67.0575C30.9855 66.222 32.4189 65.992 33.5763 65.8617C33.5227 67.8087 33.5763 69.0811 33.6836 71.0664L33.0014 70.9208C32.2016 69.7208 31.2453 68.6329 30.1576 67.686C30.1193 67.571 30.1193 67.3564 30.1193 67.0575ZM34.1972 71.718C35.9602 72.0783 38.4821 72.5842 38.9727 74.2169C39.4633 75.8496 38.2062 76.8997 36.6731 77.4823C33.9519 71.7026 34.3505 73.9486 34.2279 71.718H34.1972ZM36.8877 77.9115C38.6968 77.26 40.0152 75.9262 39.4709 74.0789C38.9267 72.2316 36.2515 71.5877 34.2049 71.1737C34.1052 69.3264 33.9903 67.2414 33.9136 65.808C37.156 65.5627 37.8076 66.6512 37.9685 66.3753C37.9826 66.3508 37.9864 66.3218 37.9792 66.2946C37.972 66.2673 37.9544 66.244 37.9302 66.2296C36.6836 65.6044 35.2874 65.339 33.8983 65.4631C33.8983 64.8192 33.8446 64.367 33.8446 64.229C33.8446 64.2005 33.8333 64.1732 33.8132 64.1531C33.7931 64.133 33.7658 64.1217 33.7373 64.1217C33.7088 64.1217 33.6815 64.133 33.6614 64.1531C33.6413 64.1732 33.63 64.2005 33.63 64.229C33.63 64.5816 33.63 64.9955 33.584 65.4861C32.3769 65.4874 31.1928 65.8158 30.1576 66.4366C30.1576 65.4018 30.2189 63.8457 30.1576 62.006C33.8906 61.1092 38.3825 61.7914 41.2416 64.5586C42.2893 65.6122 43.1148 66.8655 43.6692 68.2441C44.2235 69.6227 44.4954 71.0985 44.4687 72.5842C44.3307 76.3478 41.4869 78.9617 37.9839 80.3798C37.8536 79.9888 37.4703 79.0767 36.9184 77.9115H36.8877ZM47.7495 72.8908C47.5808 77.49 44.3307 80.6634 40.2221 82.5414C40.1225 82.5414 40.1072 82.4877 40.1302 82.3958C40.2068 81.9358 40.843 81.2383 40.82 80.9087C40.8085 80.7472 40.7514 80.5922 40.6556 80.4617C40.5597 80.3312 40.4288 80.2305 40.2782 80.1712C40.1275 80.1119 39.9631 80.0964 39.804 80.1265C39.6449 80.1566 39.4975 80.2311 39.379 80.3415C39.103 80.5714 38.6124 81.6675 38.1448 81.7442C37.9685 81.7442 37.7692 81.5602 37.5316 81.3456C38.0989 80.8627 38.1142 80.8704 38.1372 80.763C41.7705 79.23 44.5914 76.5548 44.737 72.5842C44.7782 71.0608 44.5162 69.5444 43.9661 68.1232C43.416 66.702 42.589 65.4043 41.5329 64.3056C38.6278 61.3928 34.0592 60.6263 30.1806 61.5001C30.1806 60.6493 30.1346 59.9671 30.0886 59.2005C34.6188 58.342 40.0535 59.2465 43.5642 62.6423C44.9159 63.9807 45.9833 65.5784 46.7025 67.3395C47.4217 69.1006 47.7778 70.9887 47.7495 72.8908ZM30.1193 58.6486C30.035 57.2995 29.897 55.8891 29.69 54.4787C29.69 54.4502 29.6787 54.4229 29.6586 54.4028C29.6385 54.3827 29.6112 54.3714 29.5827 54.3714C29.5542 54.3714 29.5269 54.3827 29.5068 54.4028C29.4867 54.4229 29.4754 54.4502 29.4754 54.4787C30.3876 61.4541 29.4754 67.594 29.897 67.939C32.9631 70.4609 36.0982 76.9227 37.6083 80.5867L33.9596 83.7449C29.8816 81.6446 20.9286 76.5088 18.537 72.5535C17.0392 70.1639 15.8979 67.5688 15.1489 64.8499C13.8305 59.7984 14.804 56.3184 14.3057 56.3414C14.2913 56.3412 14.2769 56.3442 14.2637 56.3501C14.2505 56.3561 14.2387 56.3648 14.2293 56.3758C14.2198 56.3867 14.2128 56.3996 14.2088 56.4135C14.2048 56.4274 14.2039 56.442 14.2061 56.4564C14.2674 58.158 13.8152 60.9406 14.804 64.9418C15.5902 67.9703 16.8667 70.8496 18.583 73.4657C18.8666 79.8815 23.5194 83.2006 29.9353 84.1971C31.6824 84.4631 33.4525 84.5453 35.2167 84.4424C37.2327 85.5845 37.7233 85.1553 37.2327 85.4312C32.6335 87.9378 9.30797 88.4973 5.00006 84.519C3.35969 83.0703 5.06139 65.992 6.79375 59.7448C8.38813 53.9805 12.8263 45.6866 16.912 43.0727C19.8401 45.3723 28.2566 51.3436 28.6935 51.7422C29.1304 52.1408 29.8127 51.2286 30.2266 51.1979C30.4029 51.1979 30.0809 53.0223 30.3262 53.7122C30.5715 54.4021 30.9855 54.4174 32.1582 55.8125C32.8558 56.6327 33.5073 57.5525 34.1972 58.4187C32.8126 58.3279 31.4221 58.4103 30.0579 58.664L30.1193 58.6486ZM42.9203 50.5081C40.6025 52.985 37.6651 54.7977 34.4118 55.7588C33.8865 53.92 33.0825 52.1725 32.0279 50.5771C30.8177 49.089 29.3853 47.7963 27.7814 46.7444V46.5068C32.7715 44.0922 48.0561 31.1149 50.6776 28.0257C52.124 28.3958 53.5472 28.8514 54.9395 29.3902C53.1612 37.4464 48.516 44.5291 42.859 50.5234L42.9203 50.5081ZM146.057 54.425C141.642 51.9185 119.926 38.8491 115.948 37.9983C115.674 38.037 115.412 38.1365 115.181 38.2896C114.223 38.7572 86.145 53.4209 85.7464 53.6202C83.5848 51.5582 61.7847 31.1532 57.7144 27.3818H57.5381C56.7715 28.248 56.005 29.0299 55.3688 29.6814C55.4531 29.2598 55.5528 29.1679 54.8169 28.8689C54.9932 28.0564 54.8169 27.1366 54.9932 26.8299C55.2538 26.4007 56.1583 25.9944 56.4496 25.5192C56.5321 25.4028 56.5684 25.2598 56.5514 25.1182C56.5344 24.9765 56.4653 24.8462 56.3576 24.7526C57.1241 24.515 57.1241 24.5304 57.1855 24.4537C57.2468 24.377 58.0133 23.4495 58.1206 23.2962C58.1449 23.2659 58.1615 23.2301 58.1693 23.192C58.177 23.154 58.1756 23.1146 58.1651 23.0771C58.1546 23.0397 58.1354 23.0053 58.109 22.9768C58.0826 22.9482 58.0498 22.9264 58.0133 22.913C57.4187 22.7464 56.8146 22.6159 56.2043 22.522C54.4106 23.1046 54.6712 23.1889 54.5946 23.1046C54.368 22.791 54.0312 22.5747 53.6518 22.499C53.1503 22.4578 52.6457 22.5125 52.1647 22.66C51.604 22.756 51.0871 23.0239 50.6853 23.4265C50.3633 22.4224 49.2135 18.7201 49.8191 17.8692C50.4247 17.0184 54.334 17.3863 55.3995 17.5089C58.0245 17.779 60.6189 18.2922 63.1491 19.042C63.3679 19.1081 63.5767 19.2035 63.77 19.3256C63.517 20.0921 61.4704 22.6294 60.9338 23.2502C60.8949 23.2903 60.8732 23.3439 60.8732 23.3997C60.8732 23.4555 60.8949 23.5091 60.9338 23.5492C88.0307 49.228 86.2293 48.1242 86.6969 47.9862C87.8467 47.6106 113.847 33.5907 116.07 32.9009C118.201 33.5141 146.203 49.4349 148.096 50.5311L146.057 54.425Z" fill="black"/>
<path fill-rule="evenodd" clip-rule="evenodd" d="M102.112 30.9693C103.709 29.3782 104.9 27.4266 105.586 25.279C106.272 23.1313 106.431 20.8504 106.052 18.6281C105.285 13.7683 101.943 9.65204 98.3863 7.96567C96.3581 7.09936 94.2151 6.53134 92.0241 6.27931C90.3179 6.16829 88.6052 6.34449 86.9573 6.80055C82.2815 8.53291 79.591 10.4492 77.4064 14.9258C76.5297 17.2629 76.1309 19.7521 76.2336 22.2461C77.9813 35.1392 93.8254 38.9948 102.112 30.9693ZM77.8509 15.1404C79.9282 10.7405 82.5498 8.84718 87.0493 7.09183C88.645 6.63439 90.3046 6.44021 91.9628 6.51693C94.1261 6.77422 96.2363 7.36642 98.2177 8.27229C101.606 9.94332 104.779 13.9523 105.515 18.7124C105.865 20.8467 105.7 23.0336 105.033 25.0911C104.367 27.1485 103.218 29.0167 101.682 30.54C93.7411 38.2283 78.4948 34.5643 76.7778 22.1772C76.6793 19.7844 77.0437 17.395 77.8509 15.1404Z" fill="black"/>
<path fill-rule="evenodd" clip-rule="evenodd" d="M100.241 29.1986C101.563 27.8748 102.549 26.2534 103.116 24.4704C103.683 22.6873 103.814 20.7944 103.499 18.9501C103.193 17.0858 102.46 15.3175 101.358 13.7831C100.255 12.2488 98.8135 10.9898 97.1446 10.1044C95.4673 9.39226 93.6964 8.92501 91.8862 8.71694C90.4748 8.62186 89.0574 8.76437 87.6932 9.13853C83.8606 10.5566 81.607 12.1433 79.7903 15.8763C79.0586 17.8161 78.7249 19.8834 78.8091 21.9549C80.2502 32.671 93.3732 35.8828 100.241 29.1986ZM80.2272 16.0986C81.9443 12.4499 84.1059 10.8939 87.8082 9.45281C89.119 9.07085 90.4839 8.90769 91.8478 8.96989C93.6299 9.18567 95.3677 9.677 96.9989 10.4263C98.5886 11.3097 99.9548 12.5456 100.993 14.0391C102.03 15.5327 102.712 17.2441 102.986 19.0421C103.277 20.7965 103.147 22.595 102.606 24.2891C102.065 25.9832 101.128 27.5242 99.8734 28.7847C93.2812 35.1622 80.8021 32.0425 79.3917 21.8859C79.2963 19.9211 79.58 17.9563 80.2272 16.0986Z" fill="black"/>
<path fill-rule="evenodd" clip-rule="evenodd" d="M91.2426 20.2532C91.4879 25.7262 91.5339 25.9792 91.7025 28.0488C91.0335 28.042 90.3655 27.996 89.7019 27.9108C88.8269 27.8611 87.9806 27.5808 87.249 27.0983C87.0209 26.9593 86.827 26.7706 86.6818 26.5464C86.5821 26.3701 86.0762 26.5464 87.088 27.3129C87.8444 27.848 88.7264 28.1781 89.6483 28.2711C90.3409 28.3842 91.0397 28.4559 91.7409 28.4857C91.8022 29.2523 91.8712 29.9421 91.8865 30.2028C91.8933 30.2291 91.9086 30.2525 91.9301 30.2692C91.9516 30.2859 91.9781 30.295 92.0053 30.295C92.0326 30.295 92.059 30.2859 92.0805 30.2692C92.102 30.2525 92.1174 30.2291 92.1241 30.2028V28.4934C95.0753 28.4014 97.9038 26.3701 97.1679 23.304C96.616 21.0044 94.1018 20.3528 91.8022 19.7856C91.6949 17.486 91.5799 14.9411 91.5033 13.2241C92.1563 13.1532 92.8158 13.1661 93.4656 13.2624C95.2056 13.5307 95.3972 14.1746 95.5659 13.9293C95.5773 13.9192 95.5864 13.9069 95.5927 13.893C95.599 13.8791 95.6022 13.8641 95.6022 13.8488C95.6022 13.8336 95.599 13.8185 95.5927 13.8047C95.5864 13.7908 95.5773 13.7784 95.5659 13.7683C94.3576 13.0165 92.9347 12.685 91.5186 12.8255C91.5186 12.059 91.4573 11.4764 91.4649 11.2924C91.4649 11.2599 91.452 11.2287 91.429 11.2057C91.406 11.1827 91.3748 11.1698 91.3423 11.1698C91.3098 11.1698 91.2786 11.1827 91.2556 11.2057C91.2326 11.2287 91.2196 11.2599 91.2196 11.2924C91.2196 11.7294 91.2196 12.2583 91.166 12.8255C90.0876 12.86 89.0344 13.1601 88.0999 13.6994C86.7584 14.5885 85.8463 16.6888 86.8964 18.1299C87.7549 19.3717 89.7939 19.8929 91.2426 20.2532ZM96.6083 23.4496C97.2676 26.0865 94.7074 27.8802 92.1241 28.0488C92.0552 24.2162 92.0781 24.9827 91.8712 20.3835C93.8182 20.8971 96.0948 21.5333 96.57 23.4496H96.6083ZM87.18 15.7843C87.8086 14.0443 89.288 13.4847 91.166 13.2931C91.1047 15.7537 91.2503 19.5863 91.258 19.6706C88.7131 19.0114 86.2602 18.1989 87.1417 15.7537L87.18 15.7843ZM27.0534 30.3714C26.1029 30.4557 25.6966 31.1916 25.8576 31.2836C26.0185 31.3755 26.4095 30.9616 27.0994 30.9003C27.5355 30.8629 27.974 30.8629 28.4101 30.9003C28.8317 30.839 27.9962 30.2871 27.0534 30.3714ZM28.3871 31.9428C28.3888 31.8723 28.3679 31.8031 28.3273 31.7453C28.2868 31.6876 28.2288 31.6444 28.1618 31.6221C28.0949 31.5998 28.0226 31.5996 27.9555 31.6214C27.8885 31.6433 27.8302 31.686 27.7892 31.7435C27.6283 31.9811 27.8505 32.3414 27.8965 32.6097C27.8965 32.6971 27.9313 32.7809 27.9931 32.8427C28.0549 32.9045 28.1387 32.9393 28.2261 32.9393C28.3136 32.9393 28.3974 32.9045 28.4592 32.8427C28.521 32.7809 28.5558 32.6971 28.5558 32.6097C28.5186 32.383 28.4622 32.1599 28.3871 31.9428Z" fill="black"/>
</svg>
