<svg width="154" height="154" viewBox="0 0 154 154" fill="none" xmlns="http://www.w3.org/2000/svg">
<path d="M149.397 10.4766C149.339 9.02706 149.231 7.57832 149.131 6.12958C149.131 4.43785 147.73 4.08218 146.974 4.77205C141.46 9.95993 132.083 18.0967 126.987 22.5556C126.797 22.7228 126.663 22.9434 126.601 23.1884C126.54 23.4334 126.553 23.6913 126.641 23.9283C126.729 24.1652 126.886 24.3701 127.092 24.516C127.299 24.6618 127.544 24.7419 127.797 24.7455C127.762 24.8736 127.73 25.0031 127.702 25.1349C118.883 28.4511 109.894 31.2951 100.772 33.6549C98.8818 34.1486 93.8219 35.3727 93.188 35.5268C93.3679 35.0179 93.7227 34.5895 94.1891 34.318C96.4304 32.752 96.967 33.0149 98.0279 31.9203C98.2668 31.6684 98.4102 31.3409 98.4333 30.9945C98.4563 30.6481 98.3577 30.3045 98.1544 30.0231C97.7075 29.5272 96.8329 29.4459 96.6665 28.8541C96.327 27.6338 98.4449 25.788 98.3345 24.143C98.2088 22.2712 95.8049 19.734 92.1509 19.2043C90.0699 18.8736 87.9457 18.9302 85.8853 19.3714C84.3382 19.6913 82.9229 20.4684 81.8227 21.602C80.9572 22.5011 79.658 23.5505 79.221 24.7448C78.9604 25.4347 78.873 26.2311 78.3012 26.6243C78.0728 26.7471 77.8214 26.8212 77.563 26.8417C77.3045 26.8623 77.0445 26.829 76.7996 26.7439C74.178 26.0824 72.5936 23.3865 70.0878 22.2168C68.9727 21.7126 67.7389 21.5301 66.5256 21.6899C65.3123 21.8497 64.1678 22.3455 63.2213 23.1213C62.7885 23.6039 62.2481 23.9776 61.6437 24.212C61.2718 24.2776 60.89 24.2606 60.5254 24.1622C57.6831 23.4325 55.7614 21.5798 53.0249 21.1973C51.7523 21.0244 50.4567 21.1627 49.2493 21.6003C48.0419 22.0379 46.9586 22.7618 46.0924 23.71C45.6673 24.1271 45.3436 24.6362 45.1461 25.198C44.9487 25.7599 44.8827 26.3595 44.9533 26.9508C45.3366 28.5544 47.0666 29.3524 47.7941 29.6214C49.0205 30.0752 50.3834 30.401 51.3784 31.2794C51.5385 31.3986 51.6592 31.5631 51.7248 31.7516C51.8651 32.1916 51.3807 32.5948 50.9399 32.6975C50.4425 32.7371 49.9479 32.8069 49.459 32.9068C49.4474 32.9091 49.4368 32.9151 49.429 32.924C49.4212 32.9329 49.4165 32.9441 49.4157 32.9559C49.4149 32.9677 49.4181 32.9794 49.4247 32.9893C49.4312 32.9991 49.4409 33.0065 49.4521 33.0103C50.6006 33.4233 51.8248 33.5835 53.041 33.4802C53.6482 33.4088 54.2187 33.1517 54.6743 32.7439C55.1299 32.3362 55.4485 31.7977 55.5866 31.202C55.6284 30.8477 55.6451 30.4909 55.6364 30.1343C55.7759 28.9078 56.5923 29.1723 57.5995 29.889C58.7161 30.6966 60.0061 31.2319 61.3665 31.4521C62.7269 31.6722 64.1199 31.5711 65.4342 31.1568C66.4667 30.8264 67.0792 29.7602 68.1661 29.7602C68.4322 29.7605 68.6928 29.8357 68.9182 29.977C69.1436 30.1184 69.3247 30.3203 69.4409 30.5597C69.5254 30.8998 69.6277 31.2352 69.7475 31.5646C67.0406 31.7877 64.3852 32.4328 61.8775 33.4763C60.501 34.0554 59.277 34.9447 58.3009 36.0749C57.3179 35.8425 56.2944 35.8425 55.3114 36.0749C52.8585 36.7011 52.0782 38.8896 51.7026 40.5246C51.6996 40.5726 51.71 40.6205 51.7328 40.6629C51.7556 40.7052 51.7898 40.7404 51.8315 40.7643C51.8732 40.7882 51.9208 40.8 51.9689 40.7983C52.017 40.7966 52.0636 40.7814 52.1035 40.7545C53.5732 39.7004 55.1984 38.8821 56.9204 38.3292C56.238 40.1143 56.1813 42.0781 56.7594 43.8996C55.2478 44.2967 53.6028 44.6523 52.67 45.9255C51.8786 47.0589 51.4225 48.3922 51.3538 49.7728C51.0973 53.3782 51.5702 56.9983 52.7443 60.4168C52.7539 60.4466 52.7678 60.4747 52.7857 60.5004C51.8344 61.0171 50.9131 61.5873 50.0262 62.2082C49.4258 62.526 48.8181 62.8327 48.2034 63.128C48.2057 63.1107 48.2057 63.0932 48.2034 63.0759C48.1856 62.8413 48.0947 62.6182 47.9434 62.4381C47.7922 62.2579 47.5882 62.1298 47.3602 62.0717C46.6699 61.8947 45.961 61.8008 45.2484 61.792C40.8202 61.3596 40.929 61.332 40.2552 61.332C39.9744 61.2994 39.69 61.3399 39.4295 61.4498C39.169 61.5597 38.9415 61.7351 38.7689 61.9591C38.7134 62.0548 38.6796 62.1615 38.6698 62.2718C38.66 62.382 38.6745 62.493 38.7123 62.597C38.7501 62.701 38.8102 62.7955 38.8885 62.8737C38.9667 62.952 39.0612 63.0121 39.1652 63.0498C41.2264 64.3583 41.8044 63.9819 43.3428 65.0712C32.1829 68.7275 22.1789 66.9515 21.3127 67.127C21.1541 67.1999 21.0076 67.2966 20.8781 67.4137C20.2236 66.8816 19.5334 66.395 18.8123 65.9573C18.5602 65.8075 18.2681 65.7386 17.9756 65.76C17.6831 65.7814 17.4042 65.892 17.1765 66.0769C16.6108 66.4939 16.18 67.0136 15.6611 67.4398C13.537 69.1844 10.9255 69.9501 10.8611 71.2854C10.8251 72.0305 11.436 72.0742 11.7043 72.0934C14.0629 72.2129 15.7469 71.2724 19.0714 71.2057C19.283 71.2011 19.3152 71.2103 19.378 71.1812C19.4662 72.9005 21.1019 73.6778 22.73 74.1921C34.7554 78.0125 49.4651 77.8983 64.5612 72.3433C65.1655 72.0558 65.7856 71.8027 66.4185 71.5852C63.9656 74.9019 63.7939 75.0529 63.4121 75.8908C61.8162 75.2898 61.3724 75.0299 60.7178 74.7739C58.8669 75.5019 56.9582 76.0732 55.0117 76.4818C53.2869 76.8469 51.5401 77.0989 49.7824 77.236C50.4348 77.9144 50.0615 77.6706 56.2665 83.6197C57.7783 85.2665 59.5507 86.6536 61.5127 87.7252C62.8809 88.4315 64.3883 88.8268 65.9271 88.8827C67.3689 88.7981 68.7586 88.3137 69.9407 87.4838C72.2942 85.8682 74.41 83.931 76.2262 81.7287C79.9339 77.2514 80.3885 77.1686 83.1158 72.0504C83.729 72.4337 89.2243 71.6557 92.2191 64.1353C92.9862 62.085 93.6486 59.9971 94.2037 57.8796C95.3581 54.1635 96.1539 50.3453 96.5799 46.4774C100.885 45.4273 103.333 44.0008 110.239 40.6618C114.73 38.5143 119.037 36.0019 123.117 33.1498C125.351 31.531 127.42 29.6957 129.294 27.6706C129.326 27.6206 129.343 27.5617 129.341 27.502C129.935 27.2633 130.454 26.8678 130.842 26.3576C131.23 25.8473 131.472 25.2415 131.543 24.6045C131.835 24.6045 132.126 24.6252 132.415 24.6666C128.474 33.658 119.579 45.415 113.503 53.6322C95.4132 78.07 69.0331 108.816 42.3831 123.179C41.7254 123.528 35.9036 126.901 35.5043 126.51L38.7766 129.841C31.9424 134.424 24.2034 137.485 16.0835 138.818C16.0145 138.824 15.9496 138.853 15.9003 138.902C15.8855 138.932 15.8779 138.964 15.8779 138.998C15.8779 139.031 15.8855 139.064 15.9003 139.094C16.1302 140.262 16.8967 140.445 20.6466 143.693C16.1501 146.272 11.2528 147.912 3.83276 148.779V148.937C13.6267 149.97 22.8787 147.08 27.3844 144.498C25.7854 143.108 23.6698 142.233 22.0624 140.834C27.3009 139.543 39.6098 136.228 46.8551 131.424C45.7727 130.324 43.1244 128.65 42.0328 127.551C42.4076 127.967 49.4781 124.07 50.2278 123.679C66.4583 115.1 80.4705 104.314 94.4244 90.7247C98.8879 86.3861 103.316 82.1219 107.482 77.5334C113.092 71.3521 125.779 56.2614 137.105 40.5652C139.605 37.2709 141.886 33.8158 143.934 30.2224C144.116 29.8575 144.366 29.9058 144.517 30.2722C144.858 31.1047 145.158 31.8543 145.442 32.6485C145.537 32.9054 145.713 33.1243 145.944 33.2718C146.175 33.4193 146.448 33.4874 146.721 33.4657C146.995 33.444 147.253 33.3338 147.458 33.1517C147.663 32.9696 147.803 32.7256 147.856 32.4568C149.168 25.208 149.685 17.8376 149.397 10.4766ZM19.3864 70.7558C17.787 70.6911 16.1869 70.8632 14.6378 71.2663C13.6797 71.4521 12.7069 71.5514 11.7311 71.5629C11.3632 71.5238 11.4942 71.1183 11.6429 70.9351C12.5513 69.9593 13.2151 70.0421 16.3004 67.6766C16.8515 67.1975 17.5713 66.1727 18.2742 66.3735C18.6711 66.5409 19.0388 66.7704 19.3634 67.0534L20.5278 67.8682C19.956 68.7437 19.5678 69.726 19.3864 70.7558ZM43.7621 64.9363C43.5333 64.5587 43.1764 64.2761 42.7564 64.1398C41.6305 63.7465 40.5476 63.2393 39.5247 62.6259C39.4205 62.5554 39.3009 62.4481 39.3224 62.3347C39.3507 62.1814 39.593 62.0058 39.8382 61.9514C40.3135 61.8794 40.3334 61.9169 46.402 62.5163C47.0061 62.5754 47.5986 62.6696 47.6369 63.0951C47.6366 63.1438 47.6493 63.1917 47.6739 63.2338C47.6984 63.2759 47.7338 63.3106 47.7764 63.3342C46.4688 63.941 45.1289 64.4759 43.7629 64.9363H43.7621ZM88.6425 26.2518C89.4601 25.8693 90.2578 25.4456 91.0325 24.9824C91.3252 24.8395 91.651 24.7778 91.9757 24.8038C92.3004 24.8298 92.6121 24.9426 92.8783 25.1303C92.7834 25.1675 92.6992 25.2275 92.6331 25.3051C92.5671 25.3826 92.5212 25.4753 92.4997 25.5749C92.4983 25.6278 92.5152 25.6795 92.5475 25.7213C92.5799 25.7632 92.6256 25.7926 92.6771 25.8047C92.7286 25.8168 92.7826 25.8107 92.8302 25.7876C92.8777 25.7644 92.9158 25.7256 92.9381 25.6776C92.9586 25.6363 92.9924 25.603 93.0341 25.5831C93.0758 25.5632 93.123 25.5579 93.1681 25.568C93.3012 25.6081 93.4223 25.6806 93.5207 25.7788C93.5928 25.852 93.6847 25.9026 93.7851 25.9245C93.8241 25.9265 93.8629 25.9188 93.8981 25.9021C93.9333 25.8853 93.9637 25.8601 93.9867 25.8286L94.1101 25.857C94.7909 27.1345 95.216 28.5324 95.3619 29.9725C95.4055 30.5816 95.3187 31.1931 95.1072 31.766C94.8957 32.3388 94.5644 32.86 94.1354 33.2947C93.0692 34.226 92.1655 34.1156 91.6657 34.981C91.2671 35.569 91.9608 35.2547 90.5105 35.2654C89.2111 35.2814 87.9312 34.9484 86.8043 34.3011C87.0687 34.1506 87.3493 34.0305 87.6406 33.9431C88.0593 33.811 88.4209 33.5407 88.6662 33.1766C88.8186 32.8062 88.8307 32.3929 88.7005 32.0141C88.5703 31.6354 88.3066 31.317 87.9587 31.1185C87.7207 30.9882 87.5097 30.8136 87.3371 30.6041C86.5859 29.4152 88.0783 27.5579 87.0504 26.2349C87.3 26.3488 87.5707 26.4092 87.845 26.4121C88.1194 26.415 88.3913 26.3604 88.6432 26.2518H88.6425ZM84.1905 29.6038C84.645 29.4459 85.5879 30.0921 85.8255 30.4524C86.1536 30.946 87.1815 32.2376 87.183 32.7351C87.1579 32.8652 87.1057 32.9885 87.0297 33.0971C86.9538 33.2056 86.8558 33.297 86.7422 33.3652C86.5491 33.4802 86.361 33.6031 86.1781 33.7339C86.0122 33.5424 85.8627 33.3373 85.7312 33.1207C85.959 32.8878 86.1227 32.6 86.2064 32.2851C86.2086 32.2771 86.2088 32.2686 86.2071 32.2604C86.2055 32.2523 86.2019 32.2446 86.1968 32.238C86.1917 32.2314 86.1851 32.2261 86.1776 32.2224C86.1701 32.2188 86.1619 32.2169 86.1535 32.2169C84.2541 32.2161 83.4661 29.8537 84.1912 29.6038H84.1905ZM70.5125 32.0674C71.4231 32.2974 71.5174 31.6022 78.489 32.1594C80.4345 32.6538 82.5562 33.6795 84.182 33.6887C84.0441 34.1792 83.8693 35.3942 83.309 37.3373C81.022 36.7763 78.657 36.604 76.3128 36.8276C76.2793 36.792 76.2358 36.7674 76.1881 36.757C76.1403 36.7466 76.0905 36.7509 76.0453 36.7693C76 36.7877 75.9613 36.8194 75.9344 36.8601C75.9075 36.9009 75.8935 36.9489 75.8943 36.9978C75.9048 37.3855 75.9404 37.7721 76.0009 38.1552C75.0847 37.5893 74.2597 36.8876 73.5541 36.0741C73.505 36.0377 73.445 36.019 73.384 36.021C73.3229 36.0229 73.2643 36.0454 73.2176 36.0848C72.1425 37.0636 70.8668 37.7959 69.4794 38.2306C68.092 38.6653 66.6265 38.7918 65.1851 38.6013C65.1392 38.6014 65.0942 38.6135 65.0544 38.6363C65.0146 38.6592 64.9815 38.692 64.9583 38.7315C64.9351 38.7711 64.9226 38.816 64.922 38.8619C64.9215 38.9077 64.9329 38.9529 64.9551 38.993C65.7968 40.1727 66.876 41.1634 68.1232 41.9013C68.2351 42.2278 68.3353 42.5577 68.4237 42.8909C68.4237 42.8909 67.7921 42.9276 67.5276 42.9391C67.4818 42.9462 67.4387 42.9658 67.4034 42.9959C67.3681 43.026 67.3418 43.0653 67.3276 43.1095C67.3133 43.1536 67.3117 43.2009 67.3228 43.2459C67.3339 43.291 67.3573 43.3321 67.3904 43.3646C70.2319 47.1811 70.8597 50.2465 71.8363 52.9891C71.9061 53.1858 71.9291 53.3961 71.9036 53.6032C71.878 53.8104 71.8046 54.0088 71.6891 54.1826C71.3416 54.862 70.7684 55.3992 70.0679 55.7019C69.7559 55.767 69.2853 55.4719 69.05 55.3408C66.7468 54.259 64.5911 52.8879 62.6349 51.2606C60.7738 49.7385 59.2328 47.8627 58.1008 45.7416C57.4621 44.5904 57.0856 43.3124 56.9983 41.9988C56.911 40.6852 57.115 39.3685 57.5957 38.143C58.2403 37.9839 58.8973 37.8802 59.5595 37.8333C60.6441 38.0358 61.6807 38.4412 62.6149 39.0283C62.6661 39.0584 62.7266 39.0688 62.7849 39.0574C62.8432 39.0461 62.8953 39.0139 62.9316 38.9669C62.9678 38.9198 62.9856 38.8611 62.9817 38.8019C62.9777 38.7426 62.9522 38.6869 62.91 38.645C61.9902 37.3757 60.6212 36.6996 58.8037 36.1983C61.6376 33.3169 66.4859 32.4039 70.5125 32.0674ZM85.7917 41.5494L87.7847 44.565C87.5394 45.2186 87.2809 45.8678 87.009 46.5127C86.342 44.909 85.3972 43.4356 84.2181 42.1603C84.5753 41.0106 84.9309 39.8401 85.2192 38.6673C86.187 39.7244 86.9757 40.9325 87.554 42.2439C87.9373 43.0794 87.8606 43.1323 88.1021 43.6942L88.0147 43.9395L86.2394 41.2566C86.22 41.2272 86.1949 41.2019 86.1657 41.1822C86.1366 41.1625 86.1038 41.1487 86.0692 41.1417C86.0347 41.1346 85.9991 41.1344 85.9646 41.1411C85.93 41.1479 85.897 41.1613 85.8676 41.1807C85.8382 41.2001 85.813 41.2252 85.7932 41.2544C85.7735 41.2836 85.7598 41.3164 85.7527 41.3509C85.7457 41.3854 85.7455 41.421 85.7522 41.4556C85.7589 41.4902 85.7723 41.5231 85.7917 41.5525V41.5494ZM82.9211 48.9993L84.4281 51.7772C83.4497 53.5814 82.3657 55.3262 81.1818 57.0027L79.6802 53.7066C80.0338 53.0387 80.3711 52.3624 80.692 51.6776L81.7031 53.4897C81.7377 53.5519 81.7957 53.5978 81.8642 53.6172C81.9327 53.6367 82.0061 53.6282 82.0683 53.5935C82.1305 53.5589 82.1764 53.5009 82.1959 53.4324C82.2154 53.3639 82.2069 53.2905 82.1722 53.2283C81.1895 51.4699 81.04 51.1648 80.9664 51.082C81.6563 49.5489 82.3998 47.6226 82.918 46.1578L84.3514 48.961C84.3672 48.9929 84.3891 49.0214 84.4159 49.0447C84.4428 49.0681 84.474 49.0858 84.5077 49.097C84.5415 49.1082 84.5772 49.1125 84.6126 49.1098C84.6481 49.1071 84.6827 49.0973 84.7143 49.0811C84.746 49.0649 84.7741 49.0426 84.7971 49.0154C84.82 48.9882 84.8373 48.9567 84.848 48.9228C84.8587 48.8889 84.8625 48.8532 84.8592 48.8177C84.8559 48.7823 84.8457 48.7479 84.829 48.7165L83.1618 45.4564C83.2691 45.1416 83.3749 44.8246 83.4791 44.5052L84.7416 46.7281C84.759 46.7588 84.7823 46.7857 84.8101 46.8073C84.8379 46.829 84.8698 46.845 84.9037 46.8543C84.9377 46.8637 84.9732 46.8662 85.0082 46.8619C85.0432 46.8575 85.077 46.8463 85.1076 46.8289C85.1383 46.8115 85.1652 46.7882 85.1869 46.7604C85.2085 46.7326 85.2245 46.7008 85.2338 46.6668C85.2432 46.6328 85.2458 46.5973 85.2414 46.5623C85.237 46.5273 85.2258 46.4935 85.2084 46.4629L83.7053 43.8099C83.7397 43.7003 84.0349 42.7552 84.0349 42.7552C85.1844 44.0616 86.0946 45.5603 86.7239 47.1827C86.1214 48.5563 85.4601 49.9026 84.7401 51.2215L83.3925 48.741C83.3761 48.7093 83.3536 48.6811 83.3262 48.6582C83.2988 48.6353 83.2671 48.6181 83.233 48.6076C83.1989 48.5971 83.163 48.5935 83.1274 48.5971C83.0919 48.6006 83.0574 48.6112 83.0261 48.6283C82.9947 48.6453 82.967 48.6685 82.9447 48.6963C82.9224 48.7242 82.9058 48.7562 82.8961 48.7906C82.8863 48.8249 82.8835 48.8609 82.8878 48.8963C82.8921 48.9318 82.9034 48.966 82.9211 48.997V48.9993ZM75.0734 54.9499C75.1096 54.9095 75.1441 54.8666 75.1768 54.8211C75.2443 54.6818 75.2662 54.5248 75.2394 54.3723C75.2125 54.2199 75.1384 54.0797 75.0274 53.9718C74.8958 53.8808 74.743 53.8251 74.5837 53.8099C74.4244 53.7947 74.2639 53.8207 74.1175 53.8852C73.8784 53.9432 73.6337 53.9748 73.3877 53.9795C73.4847 53.8998 73.565 53.8018 73.6241 53.691C73.6831 53.5803 73.7198 53.459 73.7319 53.3341C73.7066 53.1888 73.6316 53.0567 73.5198 52.9606C73.4079 52.8644 73.2662 52.81 73.1187 52.8067C73.3783 51.9962 73.6236 51.1809 73.8546 50.3607C74.9645 51.0506 75.081 51.1426 75.994 51.7933C76.2498 52.0313 76.5429 52.2258 76.8617 52.369C76.0844 54.4041 76.0783 54.4294 75.4628 55.7647C75.4367 55.8268 75.2788 56.2798 75.2221 56.4094C75.1309 56.3555 75.0451 56.2928 74.966 56.2224C74.953 56.1657 74.9318 56.1112 74.9032 56.0606C75.5371 55.6796 75.4267 55.0933 75.0734 54.9499ZM74.3467 56.4063L74.3375 56.4155C73.8889 56.6126 73.3993 56.6982 72.9105 56.6649C72.4217 56.6317 71.9482 56.4806 71.5304 56.2247C71.32 56.1344 71.1244 56.013 70.9502 55.8644C71.217 55.6698 71.4541 55.4374 71.6539 55.1745C72.0096 54.7923 72.2622 54.326 72.3882 53.8193C72.5736 53.5702 72.8391 53.3926 73.1402 53.3164C73.0995 53.3931 73.2168 53.3839 72.9447 53.6115C72.7671 53.7401 72.6423 53.9289 72.5936 54.1428C72.5847 54.1806 72.5842 54.22 72.5922 54.2581C72.6002 54.2962 72.6165 54.3321 72.6399 54.3632C72.6633 54.3942 72.6933 54.4198 72.7277 54.438C72.7621 54.4562 72.8 54.4666 72.8389 54.4685C73.3434 54.5157 73.8522 54.4708 74.3406 54.3359C74.4839 54.3306 74.7552 54.2593 74.628 54.5168C74.537 54.6779 74.3983 54.8067 74.2309 54.8855C74.1906 54.8888 74.1518 54.9021 74.1179 54.9242C74.0841 54.9462 74.0562 54.9764 74.037 55.012C74.0177 55.0475 74.0076 55.0873 74.0076 55.1277C74.0077 55.1682 74.0177 55.208 74.037 55.2435C74.037 55.58 74.6234 55.4022 74.8143 55.4298C74.6913 55.5808 74.5231 55.6882 74.3344 55.7364C73.9994 55.7517 73.9144 55.9855 74.001 56.1495C74.0738 56.2913 74.2769 56.3343 74.3467 56.4109V56.4063ZM73.1846 47.9185C72.993 47.861 70.2825 47.2984 70.2059 47.2823C69.8962 46.6348 69.561 45.9994 69.2002 45.3759C69.2281 45.0466 69.216 44.7151 69.1642 44.3887C69.749 44.4653 70.3469 44.5236 70.9272 44.5772C72.1966 44.6945 73.1885 44.8118 74.5736 44.985C74.5174 45.2553 74.4604 45.5244 74.4026 45.7922C73.6263 45.6369 72.8423 45.5225 72.054 45.4495C72.0062 45.4456 71.9586 45.4596 71.9207 45.489C71.8828 45.5184 71.8573 45.5609 71.8492 45.6082C71.8411 45.6555 71.8511 45.7041 71.877 45.7444C71.903 45.7847 71.9432 45.8138 71.9896 45.8259C72.2908 45.9026 73.0152 45.9846 74.2953 46.269C73.7833 48.5777 73.1517 50.8252 72.4557 53.1095C72.4219 53.1386 72.3897 53.1677 72.3583 53.1969C72.2675 52.6635 72.0972 52.1467 71.8532 51.6638C71.4776 50.3311 71.0015 49.0289 70.4289 47.7683C70.8222 47.8664 71.2162 47.9553 71.6079 48.0465C72.1072 48.1869 72.6139 48.2998 73.1256 48.3846C73.1831 48.3844 73.2386 48.3633 73.2817 48.3252C73.3249 48.2871 73.3526 48.2346 73.3598 48.1775C73.3671 48.1204 73.3533 48.0626 73.321 48.015C73.2888 47.9673 73.2403 47.933 73.1846 47.9185ZM68.3869 41.3057C69.3367 41.4336 70.2926 41.5104 71.2507 41.5356C71.5419 41.5456 73.1118 41.5142 74.1788 41.3954C74.3398 41.3954 75.0419 41.2359 75.2627 41.2152C75.2182 41.6377 75.1465 42.0568 75.0481 42.47C74.9568 42.9936 74.7047 44.348 74.6732 44.5021C73.4023 44.3488 70.3891 43.9908 69.1059 43.954C68.9561 43.0493 68.7152 42.162 68.3869 41.3057ZM68.7778 44.6738C68.5223 44.265 68.2561 43.8597 67.9791 43.4581L68.5532 43.4267C68.6457 43.8375 68.7206 44.2525 68.7778 44.6715V44.6738ZM67.822 41.1071C67.835 41.1378 67.8473 41.1692 67.8595 41.1999C67.4133 40.8667 66.99 40.5038 66.5925 40.1137C66.2805 39.8065 65.9869 39.4812 65.7132 39.1395C67.3502 39.269 68.9944 39.0063 70.5094 38.3729C70.478 38.5967 70.537 38.632 70.6351 38.7876C70.1967 39.164 70.3101 39.5541 70.7402 39.7573C70.9334 39.8284 71.1396 39.8572 71.3449 39.8416C71.5826 39.8362 71.9091 39.8539 72.0302 40.0585C72.1069 40.1842 71.8164 40.2785 71.6585 40.244C71.1572 40.1344 71.069 39.9589 70.9119 40.0608C70.8773 40.0849 70.8504 40.1185 70.8347 40.1576C70.8189 40.1967 70.8148 40.2395 70.8229 40.2808C70.8229 40.4341 71.2062 40.8013 71.7006 40.8013C71.8156 40.7993 71.93 40.7847 72.0417 40.7576C72.0624 40.7729 72.2387 40.9109 72.2602 40.9209C72.1536 40.95 72.0463 40.9768 71.939 41.0029C70.6469 41.025 69.355 40.9468 68.0749 40.7691C68.0334 40.7666 67.9919 40.7744 67.9541 40.7919C67.9163 40.8093 67.8834 40.8358 67.8583 40.8691C67.8333 40.9023 67.8169 40.9412 67.8105 40.9824C67.8042 41.0235 67.8081 41.0656 67.822 41.1048V41.1071ZM80.1899 42.8556C80.1586 42.853 80.1271 42.857 80.0975 42.8675C80.0678 42.878 80.0408 42.8947 80.0181 42.9164C79.9954 42.9382 79.9776 42.9645 79.9658 42.9937C79.9541 43.0228 79.9487 43.0541 79.95 43.0856C79.9519 43.129 79.9678 43.1706 79.9955 43.2041C80.0232 43.2375 80.0611 43.2611 80.1033 43.2711C80.7932 43.4658 81.2976 43.6543 81.7606 43.8268C82.2095 43.9296 82.6319 44.1257 83 44.4025C82.9142 44.661 82.8268 44.9191 82.7379 45.1766L81.4141 44.6301C81.3811 44.6146 81.3454 44.606 81.3091 44.6048C81.2727 44.6035 81.2364 44.6096 81.2025 44.6228C81.1686 44.636 81.1377 44.6559 81.1116 44.6813C81.0856 44.7067 81.065 44.7372 81.0511 44.7708C81.0372 44.8045 81.0303 44.8406 81.0307 44.877C81.0312 44.9133 81.039 44.9493 81.0537 44.9825C81.0685 45.0158 81.0898 45.0458 81.1164 45.0706C81.143 45.0954 81.1744 45.1145 81.2087 45.1268L82.5616 45.6856C81.6663 48.337 80.5621 50.9133 79.2594 53.39L78.0812 52.8312C78.0494 52.8161 78.0148 52.8074 77.9796 52.8057C77.9444 52.8039 77.9092 52.8091 77.876 52.821C77.8428 52.8328 77.8122 52.8511 77.7861 52.8748C77.76 52.8984 77.7387 52.927 77.7236 52.9588C77.7085 52.9907 77.6999 53.0252 77.6981 53.0604C77.6963 53.0957 77.7015 53.1309 77.7134 53.1641C77.7252 53.1973 77.7435 53.2278 77.7672 53.254C77.7908 53.2801 77.8194 53.3013 77.8513 53.3164L79.0011 53.863C78.3981 54.9678 77.7511 56.0471 77.0602 57.1008C76.7348 56.6876 76.3686 56.3083 75.9671 55.9686C77.1491 53.3624 79.1567 47.858 79.6465 44.4645C79.6838 44.4435 79.7157 44.4141 79.7398 44.3787C79.7639 44.3432 79.7795 44.3027 79.7853 44.2603C79.7912 44.2179 79.7872 44.1747 79.7736 44.134C79.76 44.0934 79.7372 44.0565 79.707 44.0261C78.7626 43.1292 77.7698 42.2847 76.7329 41.4965C76.7329 41.3432 76.7329 41.1846 76.7252 41.0366C79.0799 41.1558 81.3975 41.6728 83.5795 42.5658C83.519 42.7651 83.243 43.6436 83.1656 43.8843C82.2086 43.4472 81.2122 43.102 80.1899 42.8533V42.8556ZM77.5945 47.838C77.1544 47.4739 76.6752 47.1597 76.1657 46.9013C75.7568 46.6495 75.3276 46.4323 74.8825 46.2521C74.9653 45.875 75.0452 45.4973 75.1224 45.1192C75.7055 45.428 76.2727 45.7659 76.8218 46.1317C77.4005 46.5154 77.9548 46.9348 78.4814 47.3873C78.2959 48.0619 77.8313 49.6448 77.4803 50.6788C76.5008 49.8769 75.4469 49.1705 74.3329 48.5693C74.4898 47.952 74.6387 47.3326 74.7798 46.7112C74.907 46.7795 75.035 46.8461 75.163 46.9128C75.9106 47.3043 76.6332 47.7416 77.327 48.2221C77.3776 48.2486 77.4362 48.2557 77.4918 48.2422C77.5473 48.2286 77.5961 48.1953 77.6288 48.1484C77.6616 48.1015 77.6762 48.0443 77.6699 47.9875C77.6636 47.9307 77.6367 47.8781 77.5945 47.8396V47.838ZM77.3377 51.0843C77.2311 51.3871 77.1192 51.6891 77.005 51.9903C76.054 51.221 75.0375 50.5361 73.9673 49.9437C74.0516 49.6371 74.1338 49.3305 74.2141 49.0239C77.0847 50.8106 76.6585 50.6382 77.3377 51.0858V51.0843ZM79.2364 44.3135C78.9903 45.1567 78.837 45.9907 78.6278 46.8339C77.5783 45.9796 76.4322 45.2515 75.2129 44.6646C75.3059 44.1934 75.394 43.7218 75.4773 43.2496C76.6187 43.8069 78.3441 44.9268 78.3618 44.936C78.3913 44.9552 78.4244 44.9684 78.459 44.9749C78.4937 44.9813 78.5293 44.9809 78.5637 44.9736C78.5982 44.9663 78.6309 44.9523 78.66 44.9323C78.6891 44.9124 78.7139 44.8869 78.7332 44.8574C78.7524 44.8278 78.7656 44.7948 78.7721 44.7601C78.7785 44.7255 78.7781 44.6899 78.7708 44.6554C78.7635 44.6209 78.7495 44.5882 78.7295 44.5592C78.7096 44.5301 78.6841 44.5052 78.6546 44.486C77.6595 43.8355 76.6307 43.2383 75.5724 42.6969C75.6419 42.2799 75.7083 41.8632 75.7717 41.4467C76.9936 42.3188 78.1515 43.2774 79.2364 44.3151V44.3135ZM75.8437 40.894C75.8384 40.8596 75.8262 40.8266 75.8076 40.797C75.7891 40.7675 75.7647 40.7421 75.736 40.7223C75.7073 40.7026 75.6748 40.6889 75.6406 40.6822C75.6064 40.6755 75.5712 40.6758 75.5371 40.6832C74.998 40.7706 74.4573 40.8406 73.9151 40.8933C74.7029 40.5777 75.4506 40.1702 76.1427 39.6791C76.1833 40.1589 76.2193 40.638 76.2592 41.1631C76.1235 41.0757 75.9848 40.9822 75.8437 40.8956V40.894ZM75.7333 39.3204C74.7992 39.9793 73.7634 40.4809 72.6672 40.8051C72.6719 40.7895 72.6742 40.7732 72.6741 40.7568C72.6741 40.6035 72.6741 40.5905 72.4541 40.441C72.7324 39.9888 72.4265 39.5702 71.9497 39.4169C71.6799 39.3303 71.0652 39.4169 70.8766 39.2636C70.9443 39.1826 71.0215 39.1101 71.1066 39.0475C71.1291 39.0706 71.157 39.0878 71.1877 39.0975C71.2185 39.1073 71.2511 39.1093 71.2829 39.1034H71.2967C71.4607 39.1395 71.591 38.9501 71.5588 38.7815C71.5441 38.7177 71.5131 38.6588 71.4688 38.6107C71.4244 38.5626 71.3682 38.5269 71.3059 38.5071C71.2276 38.4907 71.1462 38.4979 71.0721 38.5278C71.0606 38.5086 71.0276 38.4603 71.0146 38.4419C70.9819 38.3509 70.9155 38.276 70.8291 38.2326C71.7346 37.819 72.5795 37.2836 73.3402 36.6413C74.1359 37.482 75.0476 38.2047 76.0476 38.7876C76.0591 38.8758 76.0706 38.9616 76.0821 39.0597C75.9633 39.1425 75.846 39.236 75.7333 39.3204ZM75.7579 56.4324C76.7061 57.4289 76.9981 57.7738 76.9981 57.7738C76.9981 57.7738 77.7984 59.2532 77.9777 59.6304C77.0646 58.832 76.1963 57.9837 75.3769 57.0893C75.4934 57.0356 75.5034 56.9728 75.7556 56.4324H75.7579ZM77.3775 57.5952C78.0838 56.5221 78.7456 55.4234 79.3629 54.2991L80.8116 57.4779C80.1406 58.309 79.4105 59.0906 78.627 59.8166C78.5833 59.7392 77.5378 57.8627 77.3752 57.5952H77.3775ZM84.0379 41.0029C83.1457 40.6127 81.0967 39.9612 80.4674 39.7864C80.417 39.7753 80.3642 39.7836 80.3197 39.8097C80.2751 39.8358 80.242 39.8777 80.2269 39.9271C80.2118 39.9765 80.2159 40.0297 80.2383 40.0762C80.2607 40.1228 80.2998 40.1591 80.3479 40.1781C82.7709 40.9753 82.6214 41.0343 83.8961 41.4981C83.8425 41.6828 83.7888 41.8683 83.7344 42.053C81.5235 41.0715 79.1311 40.5654 76.7122 40.5675C76.7076 40.4748 76.6087 38.9409 76.6011 38.8482C78.3704 38.739 80.1465 38.8598 81.8847 39.2077C81.9435 39.209 82.0005 39.1879 82.0441 39.1485C82.0877 39.1092 82.1146 39.0547 82.1193 38.9961C82.1245 38.9425 82.1091 38.8889 82.0762 38.8462C82.0433 38.8035 81.9954 38.7749 81.9422 38.7662C81.0022 38.471 80.0216 38.3248 79.0363 38.3331C78.2076 38.279 77.3756 38.299 76.5505 38.3929C76.483 37.841 76.5137 37.7896 76.4378 37.3059C79.2757 37.0961 82.1274 37.4344 84.8374 38.3024C84.5753 39.1195 84.2962 40.0854 84.0356 41.0029H84.0379ZM58.1721 37.289C58.2535 37.1976 58.304 37.0829 58.3167 36.9612C58.3293 36.8395 58.3034 36.7169 58.2426 36.6107C58.9203 36.7847 59.5846 37.0074 60.2303 37.2768C59.3588 37.2855 58.4911 37.3917 57.6432 37.5934C57.6463 37.5793 57.6478 37.5649 57.6478 37.5504V37.5313C57.8477 37.5227 58.0361 37.4357 58.1721 37.289ZM52.3932 39.9374C53.1521 37.4799 54.7273 36.1814 57.3067 36.4474C57.4596 36.5796 57.6212 36.7015 57.7904 36.8123C57.8977 36.8935 57.762 37.0208 57.6432 37.0185C57.3857 36.9916 57.3765 36.9035 57.0706 36.7954C57.0207 36.7806 56.9673 36.7818 56.9181 36.7988C56.8689 36.8159 56.8263 36.8479 56.7962 36.8904C56.7744 36.9304 56.7636 36.9755 56.7649 37.021C56.7663 37.0666 56.7797 37.1109 56.8039 37.1495C56.921 37.2998 57.0816 37.4103 57.2638 37.4661C57.2699 37.552 57.24 37.601 57.299 37.6792C55.5537 38.1653 53.8975 38.9276 52.3932 39.9374ZM55.5567 59.8787C53.6189 60.0558 54.1156 59.9722 53.6404 60.0236C53.4847 60.0534 53.3247 60.0534 53.169 60.0236C53.057 59.8268 52.9792 59.6125 52.939 59.3897C52.5834 58.2355 52.3017 57.0598 52.0958 55.8697C51.6779 53.5498 51.6613 51.1754 52.0468 48.8499C52.1948 47.7353 52.6992 46.6985 53.4848 45.8941C54.4123 45.0509 55.7606 44.7911 56.9503 44.4684C58.6957 49.3581 63.7517 53.4414 68.4482 55.7479C64.4556 57.9384 60.0789 59.3408 55.5567 59.8787ZM83.3312 63.0675C81.8352 63.0479 80.3452 62.873 78.8853 62.5455C75.0093 61.5173 71.5573 59.2905 69.0224 56.1833C68.9997 56.1231 68.9805 56.0617 68.9649 55.9993C69.2371 56.1839 69.556 56.2876 69.8847 56.2982C70.0902 56.3019 70.2936 56.2556 70.4772 56.1633C70.804 56.4726 71.1906 56.7118 71.6132 56.8662C72.4372 57.2717 73.3882 57.3348 74.2585 57.0418C74.3768 57.0058 74.4921 56.9607 74.6035 56.9069C75.6923 58.1699 76.8707 59.3529 78.1295 60.4467C78.1391 60.4886 78.1591 60.5274 78.1875 60.5596C78.216 60.5918 78.252 60.6164 78.2924 60.6311C78.3328 60.6458 78.3762 60.6502 78.4187 60.6438C78.4612 60.6375 78.5015 60.6205 78.5358 60.5946C81.1083 58.6484 82.7992 55.6965 84.2924 53.0903C85.0099 51.7987 86.5682 48.9664 87.2765 47.4095C87.8043 46.2547 88.2266 45.0546 88.5382 43.8237C88.5778 43.7782 88.5978 43.7191 88.5942 43.6589C88.4954 43.1433 88.3229 42.6445 88.0821 42.178C87.4657 40.6587 86.5314 39.2889 85.3418 38.1606C85.3809 37.9866 85.1624 37.8501 85.0582 37.8241C84.6739 37.6999 84.2858 37.5857 83.8938 37.4814C84.2663 36.2337 84.5264 34.9552 84.6711 33.6611C84.9389 33.6204 85.1948 33.5226 85.4215 33.3744C85.5271 33.6003 85.658 33.8135 85.8117 34.0098C85.6839 34.112 85.559 34.2181 85.4369 34.3279C85.2292 34.5224 85.0934 34.7814 85.0517 35.0628C85.0099 35.3442 85.0646 35.6315 85.2069 35.8779C85.432 36.125 85.7305 36.2932 86.0585 36.3577C86.2574 36.44 86.4742 36.4696 86.6878 36.4435C86.9015 36.4174 87.1048 36.3367 87.2781 36.209C87.2869 36.2021 87.2934 36.1926 87.2967 36.1819C87.3 36.1711 87.2998 36.1596 87.2963 36.149C87.2928 36.1383 87.286 36.129 87.277 36.1223C87.268 36.1156 87.2571 36.1119 87.2459 36.1117C87.0298 36.1139 86.8168 36.0606 86.6273 35.9568C86.4377 35.8531 86.278 35.7024 86.1635 35.5191C86.1182 35.3581 86.1155 35.188 86.1558 35.0257C86.1962 34.8633 86.2781 34.7143 86.3935 34.5932C87.4281 35.2728 88.6282 35.658 89.8651 35.7077C90.3863 35.7212 90.906 35.7709 91.4204 35.8564C91.4204 35.8564 91.7124 36.3569 91.7408 36.393C91.5798 36.5035 91.4262 36.6243 91.2809 36.7548C91.1816 36.8806 91.1151 37.0291 91.0875 37.1869C91.0598 37.3448 91.0719 37.507 91.1225 37.659C91.1731 37.8111 91.2608 37.9482 91.3775 38.0579C91.4943 38.1677 91.6365 38.2467 91.7914 38.2878C92.876 45.7232 91.6067 53.7035 88.0132 62.0556C86.6407 62.9825 84.9639 63.3449 83.3312 63.0675ZM128.25 27.9473C121.524 34.8254 112.434 38.9662 103.882 43.1101C101.572 44.2952 99.1357 45.2172 96.6198 45.8589C96.7152 44.0979 96.6526 42.3319 96.4327 40.5821C96.4328 40.5305 96.4182 40.48 96.3906 40.4364C96.363 40.3929 96.3236 40.3581 96.2769 40.3361C96.2303 40.3142 96.1784 40.306 96.1272 40.3125C96.0761 40.319 96.0278 40.3399 95.9881 40.3728C95.9422 40.4037 95.9058 40.4469 95.8832 40.4974C95.8606 40.548 95.8526 40.6039 95.8601 40.6587C96.8137 47.6127 94.5202 55.0971 92.2682 62.3232C91.6163 64.4915 90.5718 66.5217 89.1867 68.3128C87.854 70.0065 85.9374 71.1422 83.8118 71.4978C89.9279 61.073 94.4949 49.2055 92.0988 37.4538C92.0916 37.4202 92.0757 37.389 92.0525 37.3635C92.0293 37.3381 91.9998 37.3193 91.9669 37.309C91.9338 37.2911 91.8963 37.2829 91.8587 37.2852C91.8211 37.2875 91.7849 37.3002 91.7542 37.3219C91.7234 37.3437 91.6993 37.3736 91.6847 37.4083C91.67 37.4429 91.6653 37.481 91.671 37.5182C91.4587 37.0989 91.8949 36.9748 92.1432 36.7333C92.4197 36.8627 92.7234 36.9233 93.0284 36.9099C93.3334 36.8966 93.6306 36.8097 93.8947 36.6567C93.9049 36.6506 93.9128 36.6414 93.9173 36.6305C93.9218 36.6195 93.9225 36.6074 93.9195 36.5959C93.9165 36.5845 93.9098 36.5744 93.9005 36.5671C93.8912 36.5598 93.8798 36.5557 93.8679 36.5555C93.7098 36.5438 93.5599 36.4804 93.4413 36.3751C93.3228 36.2699 93.2421 36.1285 93.2118 35.9729C113.767 31.5194 127.227 25.6807 127.69 25.729C128.162 26.1894 128.512 26.7589 128.711 27.387C128.688 27.5733 128.405 27.7848 128.248 27.9473H128.25ZM130.845 25.4546C130.56 26.1254 130.025 26.6586 129.353 26.9409C129.29 26.9708 129.227 27.0007 129.165 27.0321C128.912 26.4316 128.585 25.8651 128.191 25.3457C128.255 24.976 128.348 24.6118 128.468 24.2565C128.55 24.0794 128.681 23.9298 128.846 23.8257C129.011 23.7217 129.202 23.6677 129.397 23.6703C129.592 23.6729 129.782 23.732 129.944 23.8404C130.106 23.9488 130.233 24.1018 130.31 24.281C130.343 24.3372 130.366 24.3987 130.377 24.4627C130.285 24.516 130.179 24.5428 130.073 24.5401C129.966 24.5374 129.862 24.5053 129.773 24.4474C129.726 24.423 129.673 24.4123 129.621 24.4165C129.568 24.4206 129.517 24.4395 129.475 24.4708C129.432 24.5022 129.399 24.5448 129.38 24.5939C129.36 24.643 129.355 24.6966 129.364 24.7486C129.4 24.9203 129.396 25.0977 129.354 25.2677C129.312 25.4378 129.232 25.5962 129.12 25.7313C129.083 25.7906 129.07 25.8614 129.082 25.9301C129.094 25.9988 129.132 26.0604 129.187 26.1031C129.242 26.1458 129.311 26.1665 129.381 26.1613C129.45 26.1561 129.516 26.1252 129.564 26.0747C129.801 25.7975 129.938 25.4487 129.952 25.0843C130.095 25.1006 130.24 25.0876 130.378 25.046C130.515 25.0045 130.643 24.9354 130.753 24.8429C130.833 24.7974 130.892 24.7231 130.919 24.6352C130.989 24.6283 131.058 24.6229 131.129 24.6183C131.07 24.9076 130.975 25.1884 130.847 25.4546H130.845Z" fill="black"/>
<path d="M89.7063 28.204C89.8274 28.6854 90.1747 29.1599 90.5572 28.8073C90.8446 28.5428 90.597 27.7433 90.3395 27.5425C90.0819 27.3417 89.4833 27.3164 89.7063 28.204Z" fill="black"/>
<path d="M93.122 27.1708C93.2692 27.7074 93.7061 27.7419 93.8885 27.5012C94.1108 27.2022 93.8762 26.5982 93.6831 26.382C93.411 26.0823 92.8851 26.3054 93.122 27.1708Z" fill="black"/>
<path d="M92.7427 27.9988C93.2739 28.773 93.4326 29.1447 93.6487 29.4866C93.4164 29.5369 93.1885 29.6059 92.9673 29.6928C92.9123 29.7127 92.8658 29.7508 92.8355 29.8008C92.8052 29.8508 92.7929 29.9097 92.8007 29.9677C92.8085 30.0256 92.8359 30.0792 92.8783 30.1194C92.9208 30.1596 92.9757 30.1841 93.034 30.1887C93.4204 30.1456 93.7942 30.0252 94.1332 29.8346C94.3877 29.5548 93.9944 29.0413 93.8641 28.8243C93.4825 28.1532 93.023 27.5296 92.4951 26.9663C92.4601 26.9382 92.4163 26.9234 92.3714 26.9244C92.3266 26.9253 92.2835 26.942 92.2496 26.9714C92.2158 27.0009 92.1934 27.0413 92.1863 27.0856C92.1791 27.1299 92.1878 27.1753 92.2107 27.2138C92.3725 27.4857 92.5501 27.7478 92.7427 27.9988Z" fill="black"/>
<path d="M88.9636 27.6001C88.9727 27.6435 88.9964 27.6826 89.0309 27.7105C89.0655 27.7384 89.1086 27.7536 89.153 27.7534H89.2296C89.2614 27.7534 89.2927 27.7456 89.3207 27.7305C89.3487 27.7155 89.3725 27.6937 89.39 27.6672C89.4074 27.6407 89.4181 27.6102 89.4209 27.5785C89.4236 27.5469 89.4185 27.515 89.4059 27.4858C89.4057 27.2803 89.4757 27.0808 89.6042 26.9204C89.7327 26.76 89.912 26.6482 90.1127 26.6036C90.5013 26.6036 90.617 26.3667 90.5059 26.1889C90.495 26.1618 90.4783 26.1374 90.4568 26.1176C90.2471 26.0594 90.025 26.0637 89.8176 26.1299C89.6103 26.196 89.4267 26.3212 89.2894 26.4901C89.1524 26.637 89.0516 26.8138 88.9951 27.0065C88.9385 27.1992 88.9277 27.4025 88.9636 27.6001Z" fill="black"/>
<path d="M90.2529 30.0214C90.3385 31.0439 90.7978 31.999 91.543 32.7043C91.9968 33.0515 92.5042 32.8423 92.9603 32.4935C93.4005 32.1666 93.775 31.7596 94.0641 31.2939C94.0891 31.2421 94.0954 31.1833 94.0821 31.1274C94.0687 31.0715 94.0365 31.0219 93.9909 30.987C93.9452 30.9521 93.8889 30.9339 93.8315 30.9357C93.7741 30.9374 93.719 30.9589 93.6755 30.9965C93.2759 31.5247 92.7802 31.9727 92.2145 32.3172C92.1241 32.3419 92.0283 32.3384 91.9399 32.3072C91.8516 32.2759 91.7749 32.2184 91.7201 32.1424C91.2968 31.6594 90.9974 31.0806 90.8478 30.456C91.2944 30.6541 91.7707 30.7766 92.2574 30.8186C92.9055 30.9675 93.5857 30.872 94.1676 30.5503C94.3922 30.4262 94.1738 30.0138 93.9614 30.1732C93.4378 30.3939 92.8573 30.4412 92.3049 30.3081C91.7148 30.2399 91.1466 30.0437 90.64 29.7332C90.5952 29.7129 90.5457 29.705 90.4967 29.7103C90.4478 29.7156 90.4011 29.7339 90.3616 29.7634C90.3221 29.7928 90.2912 29.8322 90.2721 29.8776C90.253 29.923 90.2464 29.9726 90.2529 30.0214Z" fill="black"/>
<path d="M40.0129 49.2009C42.5892 49.9766 45.7619 49.6754 47.8706 47.7744C48.9779 46.7504 49.9101 45.552 50.6301 44.2269C50.7635 44.0483 50.6623 43.7455 50.3197 43.8045C48.5679 44.0965 46.7823 44.1244 45.0222 43.8873C44.9775 43.8863 44.9332 43.8964 44.8933 43.9167C44.8534 43.937 44.8191 43.9668 44.7936 44.0035C44.768 44.0403 44.7519 44.0827 44.7467 44.1272C44.7415 44.1716 44.7474 44.2167 44.7639 44.2583C43.9031 45.4818 42.6573 46.3818 41.2254 46.8147C39.7934 47.2476 38.2577 47.1885 36.8632 46.6468C36.8097 46.6363 36.7543 46.6421 36.7041 46.6634C36.6538 46.6847 36.6111 46.7204 36.5814 46.7662C36.5516 46.8119 36.5362 46.8655 36.5371 46.92C36.5381 46.9745 36.5553 47.0275 36.5865 47.0722C37.4539 48.1501 38.6623 48.9008 40.0129 49.2009ZM49.8245 44.4108C49.0616 45.6853 48.0749 46.8115 46.9117 47.7353C46.9268 47.7016 46.9342 47.665 46.9334 47.6281C46.9325 47.5912 46.9235 47.555 46.9069 47.522C46.8903 47.489 46.8666 47.4602 46.8375 47.4375C46.8083 47.4149 46.7745 47.399 46.7385 47.3911C46.6573 47.344 46.5702 47.3082 46.4794 47.2846C46.4874 47.1487 46.4644 47.0128 46.4121 46.8871C46.3597 46.7615 46.2795 46.6494 46.1774 46.5594C45.964 46.4052 45.7013 46.3349 45.4394 46.3617C45.1775 46.3886 44.9346 46.5108 44.757 46.7051C44.4105 46.9925 44.0993 47.4578 43.7007 47.3122C43.4976 47.2432 43.5198 47.1588 43.5328 47.1083C43.5727 47.0087 43.6326 46.9184 43.7088 46.843C43.785 46.7676 43.8759 46.7086 43.9759 46.6698C43.9896 46.6922 44.0077 46.7115 44.0292 46.7265C44.0507 46.7415 44.0751 46.752 44.1008 46.7572C44.1828 46.7763 44.2296 46.7388 44.3078 46.6805C44.5148 46.5334 44.2894 46.2122 44.0073 46.1915C43.7625 46.2113 43.5328 46.3178 43.3596 46.492C43.3059 46.4993 43.2515 46.4993 43.1979 46.492H43.1128C43.929 45.9644 44.6268 45.2729 45.1617 44.4614C46.7098 44.6509 48.2762 44.6341 49.8199 44.4116L49.8245 44.4108ZM42.8368 46.8691C42.8614 46.9014 42.8945 46.9263 42.9324 46.9409C42.9703 46.9555 43.0115 46.9593 43.0514 46.9519C43.0086 47.128 43.0368 47.3138 43.1299 47.4693C43.223 47.6248 43.3735 47.7374 43.5489 47.7828C44.1621 47.9959 44.6857 47.4616 44.8643 47.2769C45.0233 47.0879 45.2292 46.9441 45.4614 46.8599C45.5521 46.8289 45.6511 46.8322 45.7396 46.869C45.8281 46.9059 45.9001 46.9738 45.942 47.06C45.9801 47.15 45.9823 47.2512 45.9483 47.3428C45.9142 47.4344 45.8465 47.5095 45.7588 47.5528C45.5256 47.6297 45.2816 47.6688 45.036 47.6686C44.9674 47.6618 44.8988 47.6821 44.8449 47.725C44.791 47.7679 44.7558 47.8302 44.747 47.8985C44.7426 47.9549 44.7591 48.0108 44.7933 48.0558C44.8275 48.1008 44.877 48.1316 44.9325 48.1423C45.176 48.2132 45.4345 48.2141 45.6785 48.145C45.9225 48.0758 46.1421 47.9394 46.3123 47.7514C46.52 47.8127 46.5422 47.8947 46.6771 47.8962C45.9661 48.3808 45.166 48.7195 44.3231 48.8927C43.035 49.1404 41.7079 49.0977 40.4383 48.7678C39.4353 48.5857 38.5002 48.1354 37.7325 47.4647C39.4569 47.8453 41.2612 47.5678 42.7916 46.6867C42.7817 46.7507 42.7962 46.816 42.8322 46.8699L42.8368 46.8691Z" fill="black"/>
<path d="M15.2012 46.039C15.2064 46.0906 15.2261 46.1398 15.258 46.1807C15.29 46.2216 15.3329 46.2526 15.3818 46.2701C15.4307 46.2876 15.4835 46.2909 15.5342 46.2795C15.5849 46.2682 15.6313 46.2427 15.668 46.2061C17.1803 44.516 19.0438 43.177 21.128 42.283C22.1302 41.8652 23.2145 41.6817 24.2983 41.7464C25.3821 41.8111 26.4368 42.1223 27.3822 42.6563C27.4325 42.682 27.4894 42.6924 27.5456 42.6861C27.6018 42.6798 27.6549 42.657 27.6983 42.6208C27.7417 42.5845 27.7734 42.5362 27.7896 42.482C27.8058 42.4278 27.8056 42.37 27.7892 42.3159C27.3152 41.0028 26.6901 39.7493 25.9265 38.5806C25.9025 38.5508 25.8728 38.5261 25.8392 38.508C25.8055 38.4898 25.7686 38.4786 25.7305 38.475C25.6924 38.4713 25.654 38.4753 25.6175 38.4868C25.581 38.4982 25.5472 38.5168 25.518 38.5415C23.1233 37.7921 20.532 37.9944 18.2827 39.1065C17.1428 39.5829 16.2305 40.4804 15.7355 41.6122C15.2347 43.0307 15.0523 44.5421 15.2012 46.039ZM25.5402 39.006C26.0981 39.9124 26.5851 40.8606 26.9966 41.8422C25.3364 41.0986 23.4654 40.9714 21.7198 41.4835C21.7486 41.4491 21.7643 41.4057 21.7643 41.3608C21.7643 41.1677 21.7221 41.2075 21.6317 40.9936C21.7663 40.953 21.8913 40.8853 21.999 40.7948C22.1066 40.7042 22.1947 40.5927 22.2579 40.467C22.4825 39.9136 21.8509 39.3939 21.1809 39.3126C21.0287 39.3061 20.8771 39.2892 20.7271 39.2621C20.6895 39.2499 20.658 39.2236 20.6393 39.1887C20.6206 39.1539 20.6161 39.1131 20.6267 39.075C20.7377 38.9117 20.9018 38.7919 21.0912 38.7362C21.1094 38.7303 21.1265 38.7215 21.1418 38.7102C22.6114 38.4732 24.1156 38.5744 25.5402 39.006ZM20.1982 38.9156C20.0534 39.3111 20.2511 39.6821 20.7969 39.7657C21.1008 39.7468 21.4015 39.8364 21.6455 40.0186C21.7014 40.0677 21.8287 40.1911 21.7988 40.2608C21.6171 40.6142 20.9862 40.5736 20.6306 40.2907C20.5999 40.2715 20.5655 40.2591 20.5296 40.2544C20.4937 40.2498 20.4572 40.2529 20.4227 40.2636C20.3881 40.2743 20.3563 40.2923 20.3293 40.3164C20.3023 40.3406 20.2809 40.3702 20.2665 40.4034C20.2554 40.4422 20.2531 40.4829 20.2598 40.5227C20.2664 40.5625 20.2818 40.6003 20.3048 40.6334C20.4141 40.7568 20.5474 40.8566 20.6966 40.9267C20.8458 40.9968 21.0077 41.0357 21.1725 41.0412C21.1955 41.1516 21.2375 41.2571 21.2967 41.3532C21.3181 41.3984 21.3485 41.4388 21.3861 41.4719C21.4236 41.505 21.4676 41.53 21.5151 41.5456C19.2995 42.359 17.2994 43.6687 15.668 45.3744C15.6332 44.2662 15.7713 43.1593 16.0774 42.0936C16.2989 41.5069 16.6387 40.972 17.0757 40.5222C17.5127 40.0724 18.0376 39.7173 18.6177 39.479C19.1301 39.2529 19.6583 39.0646 20.1982 38.9156Z" fill="black"/>
<path d="M142.273 40.4448C142.293 40.3873 142.298 40.3259 142.289 40.2659C142.28 40.2059 142.256 40.149 142.221 40.0997C142.185 40.0505 142.139 40.0103 142.085 39.9827C142.031 39.955 141.971 39.9405 141.91 39.9405C141.825 39.9332 141.739 39.9548 141.668 40.0017C141.596 40.0487 141.542 40.1184 141.515 40.1996C126.972 82.6929 100.987 120.182 61.3485 142.028C61.2574 142.09 61.1927 142.184 61.1673 142.291C61.142 142.398 61.1578 142.511 61.2115 142.607C61.2653 142.704 61.3533 142.776 61.4579 142.811C61.5626 142.845 61.6765 142.84 61.777 142.794C100.711 121.804 128.064 83.0754 142.273 40.4448Z" fill="black"/>
<path d="M144.019 37.4392C141.001 70.3678 128.25 101.653 107.391 127.31C105.729 129.347 105.747 129.26 105.747 129.452C105.743 129.539 105.766 129.625 105.813 129.698C105.86 129.771 105.928 129.828 106.009 129.861C106.089 129.893 106.178 129.9 106.263 129.88C106.347 129.86 106.424 129.815 106.481 129.749C123.568 109.418 135.539 85.2923 141.393 59.3881C143.021 52.1814 144.156 44.8722 144.791 37.5113C144.836 37.0038 144.063 36.9824 144.019 37.4392Z" fill="black"/>
</svg>
