<svg width="154" height="154" viewBox="0 0 154 154" fill="none" xmlns="http://www.w3.org/2000/svg">
<path d="M118.816 7.47358C115.527 7.34327 112.683 10.5398 113.158 13.6596C113.383 14.747 113.939 15.7379 114.751 16.4957C115.562 17.2536 116.589 17.7411 117.689 17.891C120.755 18.2896 124.097 15.7293 123.982 12.5251C123.886 11.1975 123.308 9.95071 122.356 9.02011C121.404 8.08951 120.145 7.53941 118.816 7.47358ZM120.87 15.6067L118.57 14.0736L115.573 15.944L116.593 13.1154L114.921 12.0346L117.16 11.6666L118.57 9.40529L119.421 11.1913L122.027 11.0764L120.103 12.9391L120.87 15.6067ZM86.7201 48.254C87.2337 48.1237 87.8622 47.6638 87.7932 47.0812C87.7243 46.4986 87.0957 46.1997 86.5898 46.1767C85.7772 46.1767 84.9647 46.9432 85.1027 47.5488C85.2406 48.1544 86.0532 48.415 86.7201 48.254ZM64.1222 132.291C64.8768 131.663 65.549 130.941 66.1229 130.145C67.1117 128.757 68.5605 126.741 68.0163 124.549C67.6713 123.138 66.3988 121.299 64.5744 121.237C62.7501 121.176 61.2783 123.108 60.8413 124.518C60.2358 126.442 61.1403 128.19 61.7459 129.347C62.3329 130.478 63.141 131.479 64.1222 132.291ZM62.8574 125.239C62.8574 124.935 62.9473 124.639 63.1157 124.387C63.2842 124.135 63.5236 123.938 63.8038 123.822C64.0839 123.706 64.3922 123.676 64.6896 123.735C64.987 123.794 65.2601 123.94 65.4745 124.155C65.6889 124.369 65.835 124.642 65.8941 124.94C65.9533 125.237 65.9229 125.545 65.8069 125.825C65.6908 126.105 65.4943 126.345 65.2422 126.513C64.9901 126.682 64.6937 126.772 64.3905 126.772C63.9839 126.772 63.5939 126.61 63.3064 126.323C63.0189 126.035 62.8574 125.645 62.8574 125.239ZM116.853 132.076C116.945 129.156 115.32 127.186 114.155 127.186C112.99 127.186 111.365 129.156 111.449 132.076H116.853ZM117.558 130.666L119.421 130.704C119.582 130.03 119.489 129.321 119.16 128.711C118.517 127.584 117.482 127.071 116.784 128.152C117.287 128.894 117.557 129.769 117.558 130.666ZM108.85 130.704L110.713 130.666C110.715 129.771 110.982 128.896 111.48 128.152C110.774 127.071 109.74 127.592 109.103 128.711C108.777 129.322 108.687 130.031 108.85 130.704ZM114.155 126.588C114.514 126.62 114.875 126.542 115.189 126.363C115.503 126.185 115.754 125.915 115.91 125.589C116.066 125.264 116.119 124.899 116.062 124.542C116.004 124.186 115.839 123.856 115.589 123.596C115.338 123.336 115.014 123.159 114.661 123.088C114.307 123.017 113.94 123.056 113.608 123.2C113.277 123.344 112.998 123.585 112.808 123.892C112.618 124.199 112.526 124.556 112.545 124.917C112.558 125.346 112.729 125.754 113.027 126.063C113.325 126.372 113.727 126.559 114.155 126.588ZM110.154 127.078C110.469 127.049 110.762 126.902 110.974 126.666C111.186 126.43 111.301 126.123 111.296 125.806C111.273 125.583 111.187 125.371 111.046 125.196C110.905 125.021 110.717 124.89 110.504 124.821C110.29 124.751 110.061 124.745 109.844 124.803C109.628 124.861 109.432 124.981 109.283 125.148C109.133 125.315 109.034 125.522 109 125.744C108.966 125.965 108.997 126.192 109.089 126.397C109.181 126.601 109.331 126.775 109.52 126.896C109.709 127.017 109.929 127.08 110.154 127.078ZM118.156 127.078C118.472 127.049 118.765 126.902 118.977 126.666C119.189 126.43 119.304 126.123 119.298 125.806C119.276 125.583 119.189 125.371 119.049 125.196C118.908 125.021 118.72 124.89 118.506 124.821C118.293 124.751 118.064 124.745 117.847 124.803C117.63 124.861 117.435 124.981 117.285 125.148C117.135 125.315 117.037 125.522 117.003 125.744C116.968 125.965 116.999 126.192 117.092 126.397C117.184 126.601 117.334 126.775 117.523 126.896C117.712 127.017 117.932 127.08 118.156 127.078ZM67.771 50.4617C67.2319 50.5031 66.694 50.3687 66.2379 50.0784C66.4413 49.4053 66.7776 48.7798 67.2267 48.2387C67.2602 48.1892 67.2751 48.1295 67.2688 48.0701C67.2625 48.0107 67.2354 47.9554 67.1922 47.9141C67.1491 47.8728 67.0927 47.8481 67.033 47.8443C66.9734 47.8406 66.9144 47.8581 66.8664 47.8938C66.5981 48.1697 65.433 49.8561 65.6553 50.4004C65.8776 50.9446 67.6866 51.2436 68.0929 50.8526C68.1448 50.81 68.1775 50.7484 68.184 50.6816C68.1904 50.6147 68.1701 50.548 68.1274 50.4962C68.0847 50.4444 68.0232 50.4116 67.9563 50.4051C67.8895 50.3987 67.8228 50.419 67.771 50.4617ZM72.2783 54.3404C73.9591 54.2856 75.5752 53.6796 76.8776 52.6157C76.8142 53.1415 76.6409 53.648 76.3688 54.1023C76.0968 54.5567 75.7321 54.9486 75.2985 55.2526C75.2477 55.2831 75.211 55.3326 75.1967 55.3901C75.1823 55.4476 75.1913 55.5084 75.2218 55.5593C75.2523 55.6101 75.3018 55.6467 75.3593 55.6611C75.4168 55.6755 75.4776 55.6664 75.5284 55.6359C76.2038 55.2635 76.7566 54.7032 77.1199 54.0229C77.4832 53.3426 77.6413 52.5715 77.5751 51.8032C77.5713 51.7365 77.5482 51.6724 77.5087 51.6185C77.4691 51.5647 77.4148 51.5236 77.3523 51.5C77.2898 51.4765 77.2218 51.4716 77.1566 51.4859C77.0914 51.5003 77.0317 51.5333 76.9849 51.5809C75.7545 52.9037 74.0656 53.7071 72.2629 53.8269C72.187 53.8308 72.1157 53.8643 72.0641 53.9202C72.0126 53.976 71.9849 54.0498 71.987 54.1258C72.0054 54.1885 72.0439 54.2434 72.0965 54.2822C72.1491 54.321 72.2129 54.3414 72.2783 54.3404ZM72.6386 37.3537C72.5532 37.3537 72.4713 37.3876 72.4109 37.448C72.3505 37.5084 72.3166 37.5903 72.3166 37.6756C72.3166 37.761 72.3505 37.8429 72.4109 37.9033C72.4713 37.9637 72.5532 37.9976 72.6386 37.9976C73.2575 38.0279 73.8617 38.1964 74.4069 38.4909C74.9521 38.7854 75.4244 39.1983 75.7891 39.6993C75.8268 39.7443 75.8794 39.7743 75.9374 39.7837C75.9953 39.7932 76.0548 39.7816 76.1049 39.751C76.155 39.7203 76.1924 39.6728 76.2105 39.6169C76.2285 39.561 76.2258 39.5005 76.203 39.4464C75.8443 38.8158 75.3263 38.2906 74.7007 37.9233C74.0751 37.556 73.364 37.3596 72.6386 37.3537ZM63.4783 37.875C62.9683 38.3058 62.3128 38.5252 61.6462 38.4882C61.5775 38.4848 61.5099 38.5073 61.4569 38.5512C61.4039 38.5951 61.3691 38.6572 61.3595 38.7253C61.3499 38.7935 61.3661 38.8628 61.405 38.9196C61.4439 38.9764 61.5026 39.0167 61.5696 39.0324C61.982 39.119 62.4088 39.1093 62.8169 39.0043C63.225 38.8993 63.6034 38.7017 63.9229 38.4269C64.2295 38.1356 63.8232 37.622 63.4783 37.875ZM62.7731 45.7168C62.7731 45.3718 62.5891 43.9614 62.5967 43.6317C62.5967 43.5606 62.5685 43.4923 62.5182 43.442C62.4678 43.3917 62.3996 43.3635 62.3285 43.3635C62.2586 43.3613 62.1906 43.3866 62.1391 43.4338C62.0875 43.4811 62.0565 43.5466 62.0525 43.6164C62.0108 44.344 62.0108 45.0735 62.0525 45.8011C62.0637 45.8966 62.1124 45.9838 62.1878 46.0435C62.2252 46.073 62.268 46.0949 62.3139 46.1079C62.3597 46.1209 62.4076 46.1247 62.4549 46.1192C62.5022 46.1137 62.548 46.0989 62.5896 46.0756C62.6312 46.0524 62.6678 46.0212 62.6973 45.9839C62.7269 45.9465 62.7488 45.9037 62.7618 45.8578C62.7748 45.812 62.7786 45.7641 62.7731 45.7168ZM73.5891 45.5328C73.5891 45.2798 73.4358 44.268 73.4434 43.9997C73.4434 43.9285 73.4152 43.8603 73.3648 43.81C73.3145 43.7597 73.2463 43.7314 73.1751 43.7314C73.104 43.7314 73.0357 43.7597 72.9854 43.81C72.9351 43.8603 72.9068 43.9285 72.9068 43.9997C72.9068 44.2756 72.8302 45.3411 72.8609 45.6171C72.8623 45.6681 72.8743 45.7183 72.8961 45.7644C72.918 45.8105 72.9492 45.8515 72.9878 45.8849C73.0263 45.9183 73.0714 45.9434 73.1202 45.9584C73.1689 45.9734 73.2203 45.9782 73.271 45.9723C73.3217 45.9664 73.3706 45.9501 73.4146 45.9243C73.4586 45.8985 73.4968 45.8639 73.5267 45.8225C73.5566 45.7812 73.5776 45.7341 73.5884 45.6842C73.5991 45.6343 73.5993 45.5828 73.5891 45.5328Z" fill="black"/>
<path d="M37.7908 79.0158C37.7826 79.0407 37.7826 79.0676 37.7908 79.0924C41.1412 86.6401 46.601 93.059 53.5136 97.5767C60.4261 102.094 68.4968 104.518 76.7546 104.557C100.702 104.557 120.325 84.4046 119.321 59.7371C118.96 50.8868 115.759 42.3881 110.191 35.4987C105.855 30.1694 100.3 25.9626 93.9943 23.2339C94.0753 22.9575 94.1368 22.6758 94.1782 22.3907C94.6075 19.5928 93.4117 17.7225 91.2883 15.8291C90.2212 14.9095 89.1001 14.0545 87.9309 13.2688C86.7703 12.3992 85.4289 11.8018 84.0061 11.5211C83.2488 11.3683 82.466 11.3962 81.7215 11.6027C80.977 11.8091 80.2916 12.1882 79.7211 12.7092C79.5065 12.9315 79.3225 13.2841 79.0925 13.4221C78.7573 13.5236 78.4034 13.5472 78.0577 13.4911C75.713 13.4907 73.3929 13.97 71.2402 14.8993C69.0875 15.8287 67.1477 17.1886 65.5399 18.8953C64.5768 19.0573 63.6674 19.4511 62.8902 20.0426C62.113 20.6342 61.4913 21.4058 61.0786 22.2911C38.1588 31.804 28.4083 56.7858 37.7908 79.0158ZM63.6772 85.4395C62.7835 82.493 62.3948 79.4167 62.5274 76.3405C62.6424 73.7803 62.8263 69.5029 65.5936 67.7092C66.4566 67.1101 67.3981 66.6329 68.3915 66.2911C67.51 71.174 69.2194 76.0876 71.2891 80.5489C69.9783 81.0165 64.8807 84.6806 63.6772 85.4548V85.4395ZM69.8096 66.2757C69.7406 65.5092 69.388 63.2095 69.3344 62.8493C69.3239 62.6895 69.2725 62.5352 69.1853 62.4009C69.098 62.2667 68.9778 62.1572 68.8361 62.0827C68.5831 61.9524 67.4563 61.5691 67.1574 61.4158C63.6236 59.6834 60.9866 55.5594 61.3239 49.5419C62.2563 49.6777 63.2061 49.6334 64.1218 49.4116C65.3253 49.0513 66.0765 47.9169 66.3448 46.0465C66.5182 45.8879 66.7235 45.7683 66.9469 45.6955C67.1704 45.6228 67.4068 45.5987 67.6403 45.6249C68.1164 45.6656 68.5773 45.8122 68.9894 46.0541C69.0767 46.6627 69.3051 47.2424 69.6565 47.7469C70.0079 48.2513 70.4725 48.6666 71.0131 48.9594C72.2269 49.5458 73.6195 49.6436 74.9033 49.2328C76.1872 48.822 77.2642 47.9338 77.9121 46.7517C78.2399 46.0969 78.4451 45.3877 78.5176 44.659C79.8222 44.7378 81.1313 44.6267 82.404 44.3294C82.404 44.7203 82.404 45.4256 82.657 45.5635C83.5002 45.9851 84.9566 42.597 87.0033 42.597C87.6447 42.6379 88.2494 42.9103 88.7051 43.3635C89.0581 43.6246 89.3457 43.964 89.5452 44.3551C89.7447 44.7461 89.8507 45.1782 89.8549 45.6172C89.8068 46.0038 89.6824 46.377 89.489 46.7152C89.2956 47.0534 89.0369 47.3498 88.7281 47.5872C87.8126 48.4486 86.6119 48.9425 85.3552 48.9747C85.329 48.9777 85.3039 48.9871 85.2821 49.0022C85.2604 49.0172 85.2427 49.0373 85.2305 49.0608C85.2184 49.0843 85.2123 49.1104 85.2126 49.1368C85.213 49.1632 85.2198 49.1892 85.2326 49.2123C86.4869 51.2922 87.3689 53.575 87.8389 55.958C87.4249 60.4729 87.2486 62.397 87.1643 63.3322C86.4591 71.7642 83.5539 78.7705 78.8779 85.8304C77.8301 87.3123 76.9508 88.9063 76.2563 90.583C73.673 82.4653 67.28 74.8611 68.8974 66.2374C69.0316 66.1828 69.1701 66.1392 69.3114 66.1071C69.3114 66.2246 69.3344 66.3243 69.3804 66.406C69.3859 66.4342 69.3969 66.461 69.4128 66.485C69.4287 66.5089 69.4492 66.5294 69.473 66.5455C69.4969 66.5615 69.5236 66.5726 69.5518 66.5783C69.58 66.584 69.609 66.5841 69.6371 66.5785C69.6653 66.573 69.6922 66.5619 69.7161 66.546C69.74 66.5301 69.7605 66.5097 69.7766 66.4858C69.7926 66.462 69.8037 66.4352 69.8094 66.4071C69.8151 66.3789 69.8152 66.3499 69.8096 66.3217V66.2757ZM74.9302 34.2186C74.5294 33.8935 74.0791 33.6347 73.5964 33.4521C76.6626 33.1684 79.0312 32.2946 81.1239 29.8339C81.3539 29.9566 82.657 30.6005 82.8563 30.7308C85.0793 34.1879 83.8605 35.5984 83.0479 39.8527C82.8026 41.1329 82.5573 42.4667 82.4194 43.6395C81.1493 43.9619 79.8433 44.1216 78.533 44.1148C78.5943 43.5092 78.6249 42.8576 78.7093 42.2291C78.8668 42.1656 78.9989 42.0516 79.0847 41.905C79.1704 41.7584 79.2051 41.5874 79.1831 41.419C79.1612 41.2505 79.0839 41.0942 78.9635 40.9744C78.843 40.8546 78.6862 40.7782 78.5176 40.7573L69.319 40.535C69.1799 40.5435 69.0458 40.5897 68.931 40.6688C68.8162 40.7478 68.7252 40.8566 68.6676 40.9836C68.6101 41.1105 68.5882 41.2507 68.6044 41.3891C68.6206 41.5275 68.6742 41.6589 68.7594 41.7691C68.7061 42.9636 68.7445 44.1604 68.8744 45.3489C68.4892 45.1561 68.0663 45.0506 67.6356 45.04C67.205 45.0294 66.7773 45.1139 66.3831 45.2876C66.4478 44.2257 66.4067 43.1601 66.2605 42.1064C66.365 42.0097 66.4428 41.8878 66.4865 41.7523C66.5301 41.6167 66.538 41.4723 66.5095 41.3328C66.481 41.1933 66.417 41.0635 66.3237 40.956C66.2304 40.8485 66.1109 40.7668 65.9769 40.719C65.9002 40.719 66.0229 40.719 61.1093 40.5963C61.1706 39.0632 61.1936 34.8089 61.8758 32.7315C65.7852 35.6521 70.5455 36.5643 74.9072 34.4639C74.9358 34.44 74.9542 34.4059 74.9585 34.3688C74.9627 34.3318 74.9526 34.2944 74.9302 34.2646V34.2186ZM78.2263 42.2904C78.027 43.4785 78.1114 44.728 77.6744 45.8395C77.2198 46.9756 76.3445 47.8926 75.2307 48.3995C74.117 48.9064 72.8506 48.9641 71.6953 48.5608C71.1297 48.3704 70.6302 48.0226 70.2555 47.5583C69.8807 47.0939 69.6462 46.5322 69.5797 45.9392C69.3905 44.6708 69.311 43.3884 69.342 42.1064C70.5838 42.2214 77.0612 42.3134 78.2263 42.3364V42.2904ZM65.7392 42.2904C65.9462 44.2221 66.0535 47.6562 64.3364 48.6068C63.8262 48.8283 63.2753 48.9406 62.719 48.9364C62.2326 48.9786 61.7428 48.9554 61.2626 48.8674C60.7669 48.7853 60.3034 48.5679 59.9233 48.2393C59.5433 47.9106 59.2613 47.4834 59.1086 47.0047C58.7458 45.3985 58.5963 43.7516 58.664 42.1064L65.7392 42.2904ZM76.379 99.544C74.5622 96.6464 68.2229 86.8346 66.5518 84.3816C68.0375 83.0689 69.6865 81.9533 71.4577 81.0625C71.9713 82.0437 75.2905 88.8583 75.9727 91.5872C75.9902 91.6478 76.027 91.7011 76.0775 91.739C76.1279 91.777 76.1893 91.7975 76.2525 91.7975C76.3156 91.7975 76.377 91.777 76.4275 91.739C76.4779 91.7011 76.5147 91.6478 76.5323 91.5872C77.6054 87.4325 80.25 85.5545 83.3469 79.1001C85.0907 80.0753 86.6775 81.3079 88.0535 82.7566C86.6201 85.2785 78.9546 96.5468 76.379 99.5823V99.544ZM90.4528 83.8911C86.0068 79.744 84.1901 78.7935 83.6305 78.5789C85.7859 74.0698 87.1621 69.2283 87.7009 64.2597C89.9239 65.9844 92.2235 67.6785 94.2779 69.5566C93.8333 71.6493 91.3957 80.9935 90.4528 83.8911ZM93.864 23.7092C113.311 32.5245 123.759 53.4897 116.378 75.758C112.598 74.1252 98.057 69.6869 94.7302 69.1733C93.795 68.2841 89.3643 64.8423 87.7775 63.6388C87.7775 63.2709 87.7162 64.344 88.3295 56.9008C88.3295 56.8165 90.0389 48.3155 90.7594 46.4604C91.1457 45.4794 91.615 44.5331 92.1622 43.6318C93.0582 42.0115 93.3308 40.1194 92.9288 38.312C92.779 37.7382 92.5186 37.1992 92.1622 36.7252C92.9403 35.9629 93.474 34.9863 93.6953 33.9197C93.9023 32.3022 93.0974 30.7308 92.3155 29.374C92.8913 28.4678 93.219 27.4264 93.2661 26.3538C93.2451 25.947 93.1296 25.5507 92.9288 25.1963C93.3301 24.7687 93.6381 24.2622 93.8333 23.7092H93.864ZM62.2208 21.7238C64.5204 18.466 69.1197 19.2862 73.0061 20.0681C77.7018 21.0256 82.2704 22.5253 86.6201 24.5371C86.6689 24.5625 86.7257 24.5675 86.7782 24.551C86.8307 24.5344 86.8744 24.4977 86.8998 24.4489C86.9253 24.4001 86.9302 24.3432 86.9137 24.2908C86.8972 24.2383 86.8605 24.1946 86.8117 24.1691C82.606 22.1011 78.1627 20.5565 73.581 19.5698C71.3964 19.1022 68.7824 18.558 66.5135 18.8033C69.1268 16.3451 72.4517 14.7779 76.011 14.3266C78.441 14.02 79.1385 14.5183 79.7978 13.6981C80.125 13.2448 80.5492 12.8703 81.0396 12.6019C82.3044 11.9427 84.1518 11.8353 86.3594 13.0925C87.551 13.7749 88.6911 14.5435 89.7706 15.3921C90.8525 16.175 91.8111 17.1155 92.6145 18.1824C93.3688 19.1786 93.7315 20.4168 93.634 21.6625C93.5977 22.7566 93.2107 23.81 92.5302 24.6674C92.2304 24.3212 91.9022 24.0007 91.549 23.7092C89.7246 22.1761 83.5922 17.8528 82.3504 17.0939C82.2985 17.0614 82.2359 17.0508 82.1762 17.0644C82.1166 17.0781 82.0648 17.1149 82.0323 17.1667C81.9997 17.2185 81.9891 17.2812 82.0028 17.3408C82.0164 17.4005 82.0532 17.4523 82.1051 17.4848C83.8451 18.5733 89.211 22.59 90.5371 23.7169C91.3957 24.4298 92.2235 25.0737 92.4688 25.8326C92.8368 27.0054 92.1622 28.1322 91.7023 29.2207C91.6792 29.2718 91.6727 29.3289 91.6837 29.3839C91.6947 29.4389 91.7226 29.489 91.7636 29.5273C92.4535 30.7691 93.2507 32.5092 93.0284 33.9197C92.8142 34.7933 92.3602 35.5898 91.7176 36.2193C88.5748 32.4785 81.0856 28.2855 76.103 26.4075C70.2619 24.1768 62.8877 24.1691 60.8793 25.0047C61.0832 23.8267 61.5409 22.7072 62.2208 21.7238ZM60.6877 23.188C60.4452 23.905 60.2757 24.6446 60.1818 25.3956C59.5915 25.6409 59.0626 26.6374 58.6487 28.2395C58.1504 30.3705 57.7135 32.2102 58.779 34.0116C59.2602 34.7977 59.9327 35.4491 60.7337 35.905C60.6417 36.6716 60.404 39.4695 60.427 40.6346L58.411 40.5886H58.3574C58.2077 40.6183 58.0703 40.6919 57.9627 40.8C57.8551 40.9082 57.7822 41.046 57.7534 41.1958C57.7246 41.3457 57.7411 41.5007 57.8009 41.6411C57.8607 41.7814 57.9611 41.9007 58.0891 41.9838C58.0552 43.6319 58.1527 45.28 58.3804 46.9127C58.4968 47.5004 58.7731 48.0446 59.1788 48.4855C59.5845 48.9264 60.104 49.2468 60.68 49.4116C60.4667 52.1751 61.0267 54.9435 62.2974 57.4067C63.4868 59.7082 65.4854 61.4884 67.9086 62.4047C68.6751 62.6576 68.6751 62.627 68.7518 63.0409C68.7518 63.0409 69.0737 64.9726 69.181 65.5552C66.918 65.9295 64.86 67.0915 63.3706 68.836C54.4605 70.5304 45.9427 73.8652 38.2508 78.6708C36.0602 73.5555 34.904 68.057 34.8488 62.4926C34.7937 56.9282 35.8406 51.4079 37.9292 46.2501C40.0179 41.0923 43.1069 36.399 47.0182 32.4408C50.9295 28.4826 55.5857 25.3379 60.7183 23.188H60.6877ZM36.7943 10.6165C37.2466 10.5705 37.1929 9.88831 36.7943 9.94197C35.0006 9.99563 28.1246 10.2256 26.2696 10.2103C26.2186 10.2198 26.1727 10.2469 26.1396 10.2868C26.1065 10.3267 26.0884 10.3769 26.0884 10.4287C26.0884 10.4806 26.1065 10.5308 26.1396 10.5706C26.1727 10.6105 26.2186 10.6376 26.2696 10.6472C27.9866 10.7315 35.0466 10.7928 36.7943 10.6165ZM36.0278 12.4256C35.3302 12.4256 27.979 13.0005 26.5072 13.0235C26.4483 13.0235 26.3917 13.0469 26.35 13.0886C26.3083 13.1303 26.2849 13.1868 26.2849 13.2458C26.2849 13.3048 26.3083 13.3613 26.35 13.403C26.3917 13.4447 26.4483 13.4681 26.5072 13.4681C27.703 13.4681 35.1922 13.2688 36.1044 13.0925C36.1862 13.0748 36.2585 13.0273 36.3073 12.9593C36.356 12.8912 36.3777 12.8075 36.3682 12.7243C36.3586 12.6412 36.3185 12.5645 36.2556 12.5093C36.1927 12.4541 36.1115 12.4243 36.0278 12.4256ZM37.2466 15.4535C37.2466 15.4535 27.841 15.8061 26.9441 15.8137C26.8856 15.8241 26.8325 15.8547 26.7942 15.9002C26.756 15.9458 26.735 16.0034 26.735 16.0629C26.735 16.1224 26.756 16.1799 26.7942 16.2255C26.8325 16.2711 26.8856 16.3017 26.9441 16.312C30.3936 16.312 33.8431 16.4423 37.2696 16.1664C37.3549 16.1513 37.432 16.1059 37.4867 16.0386C37.5413 15.9713 37.5698 15.8866 37.5671 15.7999C37.5643 15.7133 37.5303 15.6306 37.4714 15.5669C37.4126 15.5033 37.3327 15.463 37.2466 15.4535ZM88.9197 129.777L88.3525 129.485C88.3326 129.474 88.3102 129.468 88.2873 129.468C88.2644 129.468 88.242 129.474 88.2221 129.485C87.4795 130.116 86.8831 130.901 86.4744 131.785C86.4631 131.813 86.4623 131.844 86.4722 131.872C86.4821 131.9 86.502 131.924 86.5281 131.938C87.0756 132.223 87.682 132.375 88.2988 132.383C90.3378 132.383 91.6256 130.635 92.7755 129.01C93.772 127.584 95.0214 125.814 94.4005 124.097C94.188 123.523 93.8188 123.021 93.335 122.648C93.3152 122.63 93.2892 122.619 93.2622 122.619C93.2352 122.619 93.2092 122.63 93.1894 122.648C92.3978 123.249 91.7703 124.04 91.365 124.947C91.3525 124.965 91.3458 124.987 91.3458 125.009C91.3458 125.031 91.3525 125.052 91.365 125.07L91.9859 125.66C91.2691 127.235 90.2236 128.639 88.9197 129.777ZM87.011 128.765C86.4886 129.356 86.0191 129.992 85.6082 130.666C85.4089 131.103 85.9915 131.318 86.1448 131.049C86.5733 130.388 87.0445 129.756 87.5553 129.156C87.7162 128.987 87.3866 128.512 87.011 128.765ZM90.8744 124.388C90.9226 124.389 90.9704 124.38 91.0143 124.36C91.0581 124.34 91.0968 124.31 91.1274 124.273C91.5584 123.614 92.0294 122.981 92.5378 122.38C92.7065 122.203 92.3769 121.736 91.9859 121.996C91.4687 122.585 91.0044 123.219 90.5985 123.89C90.569 123.939 90.5529 123.996 90.552 124.053C90.5511 124.111 90.5653 124.168 90.5933 124.218C90.6212 124.268 90.6618 124.311 90.7112 124.34C90.7605 124.37 90.8168 124.387 90.8744 124.388ZM113.741 114.576C113.789 114.577 113.838 114.566 113.882 114.545C113.925 114.523 113.964 114.492 113.994 114.453C114.023 114.415 114.044 114.37 114.053 114.322C114.062 114.274 114.06 114.224 114.047 114.177L114.224 108.812C114.224 108.398 114.262 107.884 113.787 107.616C113.311 107.347 38.2967 107.171 38.3811 107.171C38.3547 107.172 38.3291 107.18 38.3064 107.193C38.2836 107.207 38.2645 107.225 38.2508 107.248C38.015 109.283 37.9203 111.332 37.9671 113.38C38.0568 113.566 38.201 113.72 38.3805 113.821C38.5599 113.922 38.7661 113.966 38.9713 113.947C40.0215 113.947 113.741 114.576 113.741 114.576ZM113.587 108.827C113.587 109.003 113.587 108.896 113.449 113.924C109.862 113.817 39.2779 113.265 38.749 113.235C38.5114 113.15 38.5114 112.92 38.5267 112.56L38.6724 107.815C42.4361 107.922 113.104 108.106 113.396 108.129C113.687 108.152 113.61 108.467 113.587 108.827ZM45.0271 136.936C45.1165 136.936 45.2023 136.901 45.2656 136.838C45.3288 136.774 45.3643 136.688 45.3643 136.599C45.3643 136.51 45.3288 136.424 45.2656 136.361C45.2023 136.297 45.1165 136.262 45.0271 136.262C43.31 136.361 36.3574 136.553 34.5023 136.53C34.4514 136.54 34.4054 136.567 34.3723 136.607C34.3392 136.646 34.3211 136.697 34.3211 136.749C34.3211 136.8 34.3392 136.851 34.3723 136.89C34.4054 136.93 34.4514 136.957 34.5023 136.967C36.2117 137.051 43.2563 137.105 45.0271 136.936ZM44.2222 138.745C43.5323 138.745 36.1811 139.32 34.7016 139.343C34.6427 139.343 34.5861 139.367 34.5444 139.408C34.5027 139.45 34.4793 139.507 34.4793 139.566C34.4793 139.625 34.5027 139.681 34.5444 139.723C34.5861 139.764 34.6427 139.788 34.7016 139.788C36.0891 139.788 43.4173 139.581 44.2988 139.412C44.3806 139.395 44.453 139.347 44.5017 139.279C44.5505 139.211 44.5722 139.127 44.5626 139.044C44.553 138.961 44.5129 138.884 44.45 138.829C44.3871 138.774 44.3059 138.744 44.2222 138.745ZM45.464 141.781C45.464 141.781 36.0738 142.126 35.1539 142.134C35.0953 142.144 35.0422 142.174 35.004 142.22C34.9658 142.266 34.9448 142.323 34.9448 142.383C34.9448 142.442 34.9658 142.5 35.004 142.545C35.0422 142.591 35.0953 142.621 35.1539 142.632C38.588 142.632 42.0528 142.762 45.4717 142.486C45.518 142.486 45.5637 142.476 45.6063 142.458C45.6489 142.44 45.6875 142.413 45.7199 142.38C45.7523 142.347 45.7778 142.308 45.7951 142.265C45.8123 142.222 45.8209 142.176 45.8204 142.13C45.8199 142.083 45.8103 142.038 45.7921 141.995C45.7739 141.952 45.7475 141.914 45.7144 141.881C45.6813 141.849 45.6422 141.824 45.5992 141.806C45.5562 141.789 45.5103 141.78 45.464 141.781ZM69.4417 136.936C69.5311 136.936 69.6169 136.901 69.6802 136.838C69.7434 136.774 69.779 136.688 69.779 136.599C69.779 136.51 69.7434 136.424 69.6802 136.361C69.6169 136.297 69.5311 136.262 69.4417 136.262C67.7093 136.354 60.7643 136.553 58.9169 136.53C58.866 136.54 58.82 136.567 58.7869 136.607C58.7539 136.646 58.7357 136.697 58.7357 136.749C58.7357 136.8 58.7539 136.851 58.7869 136.89C58.82 136.93 58.866 136.957 58.9169 136.967C60.634 137.051 67.6633 137.105 69.4417 136.936ZM68.6368 138.745C67.9469 138.745 60.5957 139.32 59.1162 139.343C59.0573 139.343 59.0007 139.367 58.9591 139.408C58.9174 139.45 58.8939 139.507 58.8939 139.566C58.8939 139.625 58.9174 139.681 58.9591 139.723C59.0007 139.764 59.0573 139.788 59.1162 139.788C60.496 139.788 67.8242 139.581 68.7058 139.412C68.7869 139.395 68.8587 139.348 68.9074 139.281C68.9562 139.213 68.9784 139.131 68.9698 139.048C68.9613 138.965 68.9226 138.889 68.8611 138.833C68.7997 138.777 68.7198 138.746 68.6368 138.745ZM69.8863 141.781C69.8863 141.781 60.4884 142.126 59.5762 142.134C59.5176 142.144 59.4645 142.174 59.4263 142.22C59.388 142.266 59.3671 142.323 59.3671 142.383C59.3671 142.442 59.388 142.5 59.4263 142.545C59.4645 142.591 59.5176 142.621 59.5762 142.632C63.0103 142.632 66.4751 142.762 69.8939 142.486C69.9875 142.485 70.0767 142.447 70.1422 142.38C70.2076 142.313 70.2437 142.223 70.2427 142.13C70.2417 142.036 70.2036 141.947 70.1367 141.881C70.0699 141.816 69.9798 141.78 69.8863 141.781ZM94.6075 136.936C94.697 136.936 94.7828 136.901 94.846 136.838C94.9093 136.774 94.9448 136.688 94.9448 136.599C94.9448 136.51 94.9093 136.424 94.846 136.361C94.7828 136.297 94.697 136.262 94.6075 136.262C92.8751 136.361 85.9378 136.553 84.0751 136.53C84.0242 136.54 83.9782 136.567 83.9451 136.607C83.912 136.646 83.8939 136.697 83.8939 136.749C83.8939 136.8 83.912 136.851 83.9451 136.89C83.9782 136.93 84.0242 136.957 84.0751 136.967C85.7998 137.051 92.8291 137.105 94.6075 136.936ZM93.8026 138.745C93.1204 138.745 85.7615 139.32 84.2897 139.343C84.2308 139.343 84.1742 139.367 84.1326 139.408C84.0909 139.45 84.0674 139.507 84.0674 139.566C84.0674 139.625 84.0909 139.681 84.1326 139.723C84.1742 139.764 84.2308 139.788 84.2897 139.788C85.6695 139.788 92.9978 139.581 93.887 139.412C93.9697 139.395 94.0428 139.347 94.0918 139.278C94.1408 139.209 94.1621 139.124 94.1515 139.04C94.1409 138.956 94.0991 138.879 94.0345 138.825C93.9699 138.77 93.8871 138.742 93.8026 138.745ZM95.0521 141.781C95.0521 141.781 85.6542 142.126 84.742 142.134C84.6834 142.144 84.6304 142.174 84.5921 142.22C84.5539 142.266 84.5329 142.323 84.5329 142.383C84.5329 142.442 84.5539 142.5 84.5921 142.545C84.6304 142.591 84.6834 142.621 84.742 142.632C88.1762 142.632 91.641 142.762 95.0598 142.486C95.1533 142.485 95.2426 142.447 95.308 142.38C95.3734 142.313 95.4096 142.223 95.4086 142.13C95.4075 142.036 95.3694 141.947 95.3026 141.881C95.2357 141.816 95.1456 141.78 95.0521 141.781ZM119.083 136.936C119.173 136.936 119.259 136.901 119.322 136.838C119.385 136.774 119.421 136.688 119.421 136.599C119.421 136.51 119.385 136.424 119.322 136.361C119.259 136.297 119.173 136.262 119.083 136.262C117.366 136.354 110.414 136.553 108.551 136.53C108.5 136.54 108.454 136.567 108.421 136.607C108.388 136.646 108.37 136.697 108.37 136.749C108.37 136.8 108.388 136.851 108.421 136.89C108.454 136.93 108.5 136.957 108.551 136.967C110.276 137.051 117.282 137.105 119.083 136.936ZM118.279 138.745C117.596 138.745 110.237 139.32 108.766 139.343C108.707 139.343 108.65 139.367 108.608 139.408C108.567 139.45 108.543 139.507 108.543 139.566C108.543 139.625 108.567 139.681 108.608 139.723C108.65 139.764 108.707 139.788 108.766 139.788C110.145 139.788 117.474 139.581 118.363 139.412C118.446 139.395 118.519 139.347 118.568 139.278C118.617 139.209 118.638 139.124 118.627 139.04C118.617 138.956 118.575 138.879 118.51 138.825C118.446 138.77 118.363 138.742 118.279 138.745ZM119.528 141.781C119.528 141.781 110.13 142.126 109.218 142.134C109.159 142.144 109.106 142.174 109.068 142.22C109.03 142.266 109.009 142.323 109.009 142.383C109.009 142.442 109.03 142.5 109.068 142.545C109.106 142.591 109.159 142.621 109.218 142.632C112.644 142.632 116.117 142.762 119.536 142.486C119.629 142.485 119.719 142.447 119.784 142.38C119.849 142.313 119.886 142.223 119.884 142.13C119.883 142.036 119.845 141.947 119.779 141.881C119.712 141.816 119.622 141.78 119.528 141.781ZM46.6138 132.713L44.8354 132.674C44.8354 131.77 44.7741 129.439 44.7434 128.719C44.9744 128.526 45.1235 128.252 45.1605 127.953C45.1975 127.654 45.1197 127.353 44.9427 127.109C44.8737 127.009 44.9427 127.032 42.7734 127.109V125.576C42.9082 125.385 42.9988 125.166 43.0385 124.935C43.0783 124.704 43.0663 124.468 43.0034 124.242C42.9947 124.209 42.9748 124.179 42.9469 124.158C42.919 124.137 42.8849 124.126 42.8501 124.127L40.1211 124.212C40.0751 123.629 39.8758 121.536 39.7992 121.398C39.7469 121.299 39.6595 121.222 39.5539 121.184C40.5044 119.812 39.0096 119.329 39.3009 118.623C39.4236 118.324 38.979 118.118 38.8027 118.393C38.3716 118.971 38.04 119.616 37.8215 120.302C37.8282 120.506 37.8848 120.704 37.9864 120.881C38.088 121.057 38.2314 121.206 38.4041 121.314C38.2928 121.358 38.199 121.438 38.1368 121.54C38.0745 121.642 38.0473 121.762 38.0591 121.881V124.265L35.8744 124.334C35.8429 124.335 35.8124 124.346 35.7876 124.365C35.7627 124.384 35.7448 124.411 35.7365 124.442C35.6521 124.688 35.6318 124.951 35.6774 125.207C35.723 125.463 35.833 125.704 35.9971 125.906C35.9971 126.343 36.0508 126.94 36.0967 127.37C33.8891 127.462 33.9734 127.431 33.9044 127.508C33.3525 128.167 32.9999 129.309 33.6515 129.807V132.59H32.3637C32.3006 132.59 32.2402 132.615 32.1956 132.66C32.1511 132.704 32.126 132.765 32.126 132.828C32.126 132.891 32.1511 132.951 32.1956 132.996C32.2402 133.04 32.3006 133.065 32.3637 133.065C32.448 133.065 46.5142 133.234 46.6445 133.219C46.7116 133.214 46.7743 133.184 46.8189 133.134C46.8634 133.083 46.8862 133.017 46.8821 132.95C46.878 132.883 46.8475 132.82 46.7972 132.776C46.7469 132.731 46.6809 132.709 46.6138 132.713ZM39.5692 124.242H38.611V121.82C38.8595 121.745 39.1181 121.709 39.3776 121.713C39.3929 122.035 39.5309 123.744 39.5692 124.242ZM38.3887 120.256C38.5259 119.95 38.6874 119.655 38.8717 119.375C39.1246 119.865 39.4926 120.141 39.2779 120.624C39.1856 120.792 39.075 120.948 38.9483 121.092C38.611 120.854 38.3274 120.578 38.3887 120.241V120.256ZM38.2201 125.66C38.3233 125.878 38.4861 126.062 38.6896 126.191C38.8932 126.319 39.1291 126.388 39.3699 126.388C39.6108 126.388 39.8467 126.319 40.0502 126.191C40.2538 126.062 40.4166 125.878 40.5197 125.66C40.7269 125.859 40.9828 125.998 41.2615 126.066C41.5402 126.133 41.8317 126.125 42.1065 126.044V127.17L36.6333 127.385C36.6333 127.009 36.595 126.619 36.5643 126.266C36.8707 126.323 37.1869 126.296 37.4787 126.186C37.7706 126.077 38.0269 125.89 38.2201 125.645V125.66ZM34.2264 132.559V129.976C34.57 130.002 34.9152 129.953 35.2381 129.832C35.561 129.712 35.8539 129.523 36.0967 129.278C36.378 129.531 36.7424 129.67 37.1201 129.67C37.4978 129.67 37.8622 129.531 38.1434 129.278C39.0326 130.252 40.3664 129.8 41.1023 128.719C41.2478 128.925 41.4378 129.096 41.6584 129.219C41.8789 129.341 42.1243 129.412 42.3762 129.427C42.6281 129.442 42.8801 129.4 43.1134 129.304C43.3468 129.208 43.5554 129.06 43.7239 128.872C43.8863 128.915 44.0551 128.928 44.2222 128.911C44.2222 129.723 44.2222 131.777 44.2758 132.636C41.9225 132.621 35.7671 132.575 34.2264 132.575V132.559Z" fill="black"/>
<path d="M137.933 46.238C136.722 45.3795 137.58 45.4715 135.817 39.6687C135.219 37.6987 134.553 35.33 132.751 34.5711C132.751 28.8527 132.751 5.0283 132.79 4.21576C132.821 4.16437 132.838 4.10547 132.839 4.0452C132.84 3.98492 132.825 3.92547 132.795 3.87304C132.766 3.8206 132.722 3.77709 132.67 3.74704C132.618 3.71699 132.559 3.7015 132.498 3.70217C118.01 3.70217 27.9485 4.10844 19.9611 4.20043C19.9128 4.20142 19.8654 4.21381 19.8228 4.23658C19.7802 4.25936 19.7436 4.29186 19.716 4.33147C19.6883 4.37107 19.6704 4.41664 19.6637 4.46446C19.657 4.51229 19.6617 4.56103 19.6774 4.6067C19.4858 14.6868 19.2098 69.7251 19.1408 90.7133C15.0733 94.2861 11.8792 98.7441 9.80426 103.745C6.0635 112.89 5.8412 119.842 9.15269 124.311C11.345 127.301 15.722 130.658 19.1945 129.117C19.0872 143.728 19.0565 147.998 19.1408 149.232C19.1792 149.807 19.2482 149.722 19.3325 149.722C19.4168 149.722 127.47 149.523 132.261 149.469C132.321 149.469 132.379 149.453 132.431 149.422C132.482 149.391 132.524 149.346 132.552 149.293C132.59 149.216 132.759 115.036 132.889 105.968C133.824 105.942 134.741 105.701 135.568 105.264C136.395 104.826 137.11 104.204 137.657 103.446C139.534 101.097 141.082 98.5021 142.256 95.7342C143.989 91.1732 145.238 87.8847 145.967 82.7871C147.576 71.5572 145.162 59.2924 140.309 49.1203C139.443 47.2882 139.566 47.3955 137.933 46.238ZM16.8642 123.982C15.4231 123.315 14.1123 120.31 14.6412 117.719C15.0582 116.017 16.0026 114.49 17.3394 113.357C17.9501 112.752 18.6204 112.21 19.3401 111.74V114.384C18.7663 114.778 18.2503 115.25 17.807 115.787C17.7726 115.841 17.7595 115.907 17.7702 115.97C17.781 116.034 17.8148 116.091 17.8653 116.131C17.9158 116.171 17.9792 116.191 18.0435 116.187C18.1078 116.183 18.1682 116.155 18.2133 116.109C18.9666 115.366 19.8334 114.747 20.7813 114.277C21.4482 113.978 21.5861 114.116 21.4252 114.737C21.2866 115.484 20.9196 116.17 20.375 116.699C19.8313 117.137 19.2303 117.498 18.5889 117.772C18.2418 117.921 17.9127 118.109 17.6077 118.332C17.5672 118.373 17.5428 118.426 17.5388 118.484C17.5348 118.541 17.5517 118.597 17.5862 118.643C17.6208 118.689 17.6707 118.721 17.7267 118.732C17.7828 118.744 17.8413 118.736 17.8914 118.708C18.5046 118.301 20.4286 117.703 21.4865 116.96C22.253 116.431 22.322 116.83 22.0614 117.619C21.5248 119.206 19.6621 120.026 18.4279 121.023C18.3851 121.066 18.3586 121.123 18.3533 121.183C18.3479 121.244 18.3638 121.304 18.3984 121.354C18.433 121.405 18.484 121.441 18.5426 121.457C18.6012 121.474 18.6637 121.469 18.7192 121.444C19.0642 121.253 19.4091 121.015 19.8997 120.678C20.3903 120.34 21.7778 119.643 22.2837 119.911C22.3408 119.938 22.3893 119.98 22.4232 120.033C22.4572 120.086 22.4753 120.147 22.4753 120.21C22.552 120.762 22.0921 121.299 21.6245 121.897C19.4781 124.641 17.7074 124.388 16.8642 123.982ZM131.962 148.772C125.293 148.81 24.9283 149.063 19.7081 149.124C19.7694 146.94 19.7081 133.126 19.7464 124.403C20.7882 123.611 21.7486 122.718 22.6133 121.736C22.8279 121.437 23.4948 120.402 22.9736 119.589C22.8572 119.415 22.6914 119.28 22.4974 119.2C22.3034 119.121 22.0902 119.102 21.8851 119.145C22.4139 118.595 22.7478 117.886 22.8356 117.129C22.8356 116.891 22.9046 116.362 22.4523 116.14C22.294 116.088 22.1258 116.073 21.9609 116.097C21.796 116.121 21.6389 116.183 21.5018 116.278C21.5708 116.17 21.6245 116.063 21.6858 115.948C21.9617 115.404 22.345 114.154 22.0384 113.694C21.6168 113.074 20.5436 113.587 19.8997 113.97C19.9457 42.3746 20.3137 16.7489 20.2753 4.79834C27.6879 4.79834 127.523 4.39206 132.192 4.3614C132.13 8.61576 132.031 37.8903 132.031 37.8903C130.758 38.0996 129.539 38.5581 128.443 39.2394C128.144 39.3841 127.893 39.6132 127.723 39.8987C127.665 39.9987 127.629 40.11 127.617 40.2251C127.606 40.3402 127.619 40.4564 127.656 40.566C127.693 40.6755 127.753 40.7759 127.832 40.8605C127.911 40.945 128.007 41.0117 128.114 41.0561C127.799 41.2452 127.536 41.5084 127.347 41.8227C127.27 42.1204 127.306 42.4359 127.448 42.7089C127.589 42.9818 127.826 43.193 128.114 43.3021C127.301 44.0304 127.462 45.3105 129.102 45.5481C130.101 45.6883 131.117 45.6441 132.1 45.4178C132.552 52.1865 131.885 144.441 131.962 148.772ZM132.882 47.0582C132.836 46.4987 132.782 45.9084 132.713 45.2798C133.204 45.1308 133.681 44.9384 134.139 44.7049C134.461 44.544 134.2 44.061 133.878 44.222C132.658 44.7889 131.32 45.052 129.976 44.9886C129.478 44.9886 128.642 44.9886 128.443 44.5056C128.244 44.0227 128.727 43.6624 129.056 43.5704C130.503 43.7869 131.98 43.5173 133.257 42.8039C133.318 42.7714 133.364 42.7159 133.384 42.6498C133.404 42.5837 133.397 42.5123 133.364 42.4513C133.332 42.3903 133.276 42.3447 133.21 42.3246C133.144 42.3045 133.073 42.3114 133.012 42.344C131.859 42.8976 130.569 43.1002 129.302 42.9265C128.397 42.8039 127.976 42.5509 127.991 42.16C127.991 41.976 128.757 41.3934 129.064 41.2631C130.422 41.4558 131.8 41.4558 133.157 41.2631C133.502 41.2171 133.456 40.6882 133.111 40.7342C132.084 40.8645 128.788 40.7802 128.474 40.5042C128.441 40.4827 128.413 40.4531 128.394 40.4183C128.376 40.3835 128.366 40.3445 128.366 40.3049C128.366 40.2653 128.376 40.2263 128.394 40.1915C128.413 40.1567 128.441 40.1272 128.474 40.1056C129.286 39.2624 132.184 38.4116 132.958 38.2889C133.019 38.2818 133.075 38.2507 133.113 38.2026C133.151 38.1544 133.168 38.0931 133.161 38.0321C133.154 37.9711 133.123 37.9155 133.075 37.8774C133.027 37.8393 132.965 37.8219 132.905 37.829H132.774V35.215C134.154 36.0352 134.691 37.9133 135.12 39.4311C137.052 46.169 135.948 45.7244 137.918 47.0506C138.232 47.2496 138.525 47.4808 138.792 47.7405C136.837 48.9516 134.622 48.507 132.882 47.0812V47.0582Z" fill="black"/>
<path d="M82.3661 84.0674C82.1887 84.0674 82.0153 84.12 81.8678 84.2185C81.7203 84.3171 81.6054 84.4572 81.5375 84.621C81.4696 84.7849 81.4518 84.9652 81.4864 85.1392C81.521 85.3132 81.6065 85.473 81.7319 85.5984C81.8573 85.7239 82.0171 85.8093 82.1911 85.8439C82.3651 85.8785 82.5454 85.8607 82.7093 85.7928C82.8732 85.725 83.0132 85.61 83.1118 85.4625C83.2103 85.315 83.2629 85.1416 83.2629 84.9643C83.2629 84.7264 83.1684 84.4983 83.0002 84.3301C82.832 84.1619 82.6039 84.0674 82.3661 84.0674ZM79.7215 88.4521C79.5244 88.4521 79.3317 88.5105 79.1678 88.62C79.004 88.7295 78.8762 88.8851 78.8008 89.0672C78.7254 89.2493 78.7056 89.4497 78.7441 89.643C78.7826 89.8363 78.8775 90.0138 79.0168 90.1532C79.1562 90.2926 79.3338 90.3875 79.5271 90.4259C79.7204 90.4644 79.9207 90.4447 80.1028 90.3692C80.2849 90.2938 80.4405 90.1661 80.55 90.0022C80.6595 89.8383 80.718 89.6457 80.718 89.4486C80.718 89.1843 80.613 88.9308 80.4261 88.7439C80.2392 88.557 79.9858 88.4521 79.7215 88.4521ZM77.3452 92.3001C77.1936 92.3001 77.0454 92.3451 76.9193 92.4293C76.7932 92.5135 76.695 92.6333 76.637 92.7733C76.5789 92.9134 76.5638 93.0675 76.5933 93.2162C76.6229 93.3649 76.6959 93.5015 76.8031 93.6087C76.9103 93.7159 77.0469 93.7889 77.1956 93.8185C77.3443 93.8481 77.4984 93.8329 77.6385 93.7749C77.7786 93.7169 77.8983 93.6186 77.9825 93.4926C78.0668 93.3665 78.1117 93.2183 78.1117 93.0667C78.1117 92.8634 78.031 92.6684 77.8872 92.5247C77.7434 92.3809 77.5485 92.3001 77.3452 92.3001Z" fill="black"/>
</svg>
