<svg width="154" height="154" viewBox="0 0 154 154" fill="none" xmlns="http://www.w3.org/2000/svg">
<path fill-rule="evenodd" clip-rule="evenodd" d="M72.9756 24.5907C73.2515 24.675 74.4244 25.2039 74.616 25.2039C74.6919 25.1921 74.761 25.1535 74.811 25.0952C74.861 25.0369 74.8884 24.9626 74.8884 24.8858C74.8884 24.809 74.861 24.7347 74.811 24.6764C74.761 24.6181 74.6919 24.5795 74.616 24.5677C74.524 24.5677 74.1561 24.3914 73.9108 24.2917C72.9756 23.9008 72.8759 23.8625 72.6996 24.0618C72.6581 24.1106 72.6322 24.1707 72.6251 24.2343C72.6179 24.298 72.6299 24.3623 72.6596 24.4191C72.6892 24.4759 72.7351 24.5226 72.7914 24.5531C72.8477 24.5837 72.9118 24.5968 72.9756 24.5907ZM81.2543 31.4896C80.744 31.98 80.1112 32.3242 79.4223 32.4861C79.4223 32.4861 78.717 32.6088 79.1846 32.8081C79.5224 32.9621 79.9063 32.9813 80.2578 32.8618C81.124 32.6088 81.5839 31.8882 81.5073 31.4973C81.377 31.298 81.4383 31.298 81.2543 31.4896ZM90.154 132.973C90.3851 133.694 90.6989 134.386 91.0892 135.035C93.1128 138.791 94.8299 141.252 94.7456 141.252H95.0062C95.0522 140.432 90.7059 132.889 90.154 132.973ZM96.0947 131.463C95.8878 131.463 95.6578 131.149 96.34 132.552C97.2829 134.476 99.3296 138.163 100.748 139.757C101.89 140.631 97.2905 133.088 96.0947 131.463ZM113.557 135.679C113.304 135.748 113.281 135.679 113.373 135.924C114.235 138.404 115.372 140.78 116.761 143.007C117.397 143.774 115.435 138.684 113.557 135.679ZM127.109 131.846C126.795 131.777 126.726 131.67 127.493 133.379C128.259 135.089 130.467 139.037 130.781 139.029C130.842 139.029 130.873 138.991 130.896 138.922C129.873 136.443 128.605 134.072 127.109 131.846ZM118.409 28.3468C118.486 28.3468 143.092 27.2199 143.46 27.036C143.874 26.7294 143.774 27.1893 143.889 16.9175C143.889 14.8478 144.004 7.47362 143.943 7.13633C143.774 6.59208 143.23 6.59975 142.548 6.57675C137.488 6.43111 119.107 7.64992 115.059 7.81856C114.86 7.81856 114.645 7.81856 114.645 8.10219C114.561 8.10219 116.178 27.9328 116.178 28.0325C116.385 28.5767 116.784 28.4234 118.409 28.3468ZM142.747 7.80323C142.747 8.6541 142.502 25.8785 142.494 25.8938C142.486 25.9091 117.252 27.2353 117.198 27.3119C117.198 27.151 115.711 13.1844 115.189 8.33215C118.9 8.31682 139.397 7.62693 142.747 7.80323Z" fill="black"/>
<path fill-rule="evenodd" clip-rule="evenodd" d="M129.11 18.4583C129.302 18.6959 129.93 18.1287 130.973 17.4158C132.69 16.2429 135.779 14.0889 137.442 12.8165C138.6 10.8694 135.426 13.1691 135.066 13.445C133.61 14.5795 129.7 17.7071 129.248 18.098C128.481 17.3928 121.36 12.5252 121.284 12.4485C120.586 12.3105 120.394 12.7091 120.755 13.2151C122.901 14.6792 128.987 18.2896 129.11 18.4583ZM136.208 46.8206C128.987 46.8206 123.943 50.5997 123.215 58.4415C122.625 64.8039 125.829 68.9433 129.946 70.6373C133.617 72.1704 137.833 72.546 141.658 70.852C143.903 69.8363 145.885 68.3208 147.454 66.4213C152.543 59.921 147.76 46.8206 136.208 46.8206ZM143.023 67.1879C136.745 72.0171 128.083 68.8513 126.251 63.1021C125.124 59.576 126.159 54.0339 128.857 51.5426C131.555 49.0513 136.852 48.2694 140.302 49.5725C145.928 51.6959 150.443 61.4771 143.023 67.1879ZM41.846 21.5245C41.7923 20.2443 41.7387 19.1252 41.6927 18.1976C42.0759 18.3193 42.4163 18.5481 42.6738 18.8569C43.2871 20.0834 44.2529 19.4855 44.2529 18.6499C44.0613 17.6151 42.9268 16.8255 41.6313 16.6032C41.593 15.4227 41.6313 15.7064 41.3094 15.5224C40.9338 15.691 41.0181 15.622 40.9338 16.5496C40.2075 16.5193 39.4912 16.7277 38.8946 17.143C38.298 17.5583 37.8538 18.1576 37.6299 18.8492C36.8634 21.0645 38.7874 21.6931 40.6118 22.406C40.6118 23.6785 40.5428 25.1733 40.5352 26.944C40.1546 26.9936 39.7677 26.9441 39.4119 26.8004C39.056 26.6567 38.7432 26.4237 38.5038 26.1238C37.6836 24.7133 37.5993 25.1656 37.7373 25.9245C38.0132 27.1739 39.2244 27.7719 40.5428 27.8102C40.5428 29.098 40.3972 29.7726 41.6543 29.6652C42.1603 29.3126 42.1603 29.3893 42.0989 27.6185C43.3637 27.2506 44.3986 26.3921 44.5136 25.1349C44.6285 23.2569 43.2411 22.222 41.846 21.5245ZM40.6272 21.0186C39.985 20.8293 39.4035 20.4752 38.9407 19.9914C38.7798 19.6464 39.1324 19.0179 39.37 18.7342C39.5471 18.5239 39.7693 18.3561 40.0201 18.2433C40.2709 18.1305 40.5439 18.0756 40.8188 18.0827C40.7651 18.8186 40.7115 19.7844 40.6272 21.0186ZM42.0146 26.6527C41.9763 25.3496 41.9303 24.1307 41.8843 23.0039C42.4928 23.2657 42.9801 23.7475 43.2488 24.353C43.6934 25.4645 43.1184 26.1928 42.0453 26.6527H42.0146ZM82.2815 25.0123C82.8759 24.6884 83.5134 24.4509 84.1749 24.307C84.2572 24.2898 84.3293 24.2405 84.3753 24.17C84.4213 24.0996 84.4374 24.0138 84.4202 23.9314C84.4029 23.8491 84.3536 23.777 84.2831 23.731C84.2127 23.685 84.1269 23.6689 84.0445 23.6861C84.0445 23.6861 81.6452 24.2764 81.7449 24.8436C81.7565 24.8998 81.7829 24.9518 81.8214 24.9944C81.8598 25.0369 81.9089 25.0684 81.9636 25.0856C82.0183 25.1028 82.0767 25.105 82.1325 25.0922C82.1884 25.0793 82.2398 25.0517 82.2815 25.0123Z" fill="black"/>
<path fill-rule="evenodd" clip-rule="evenodd" d="M137.389 52.8533C136.553 52.4164 137.557 54.6317 136.837 59.6296C129.938 59.6296 131.08 59.3 130.413 59.6296C129.769 60.3425 130.137 61.0554 131.088 61.1014C131.732 61.1014 137.036 61.1014 137.603 60.8637C138.171 60.6261 138.109 59.8442 138.125 59.1773C138.108 57.3808 137.964 55.5878 137.695 53.8115C137.603 53.1982 137.58 52.9913 137.389 52.8533ZM135.756 129.424C134.974 128.944 134.137 128.558 133.265 128.274C131.736 127.735 130.138 127.42 128.52 127.339C120.548 127.025 117.696 132.973 109.755 131.662C105.155 130.896 100.786 128.312 98.0264 127.592C93.7797 126.473 90.1386 128.067 86.1832 130.083C84.4048 130.988 81.0703 133.839 80.8786 133.149C80.0431 131.662 79.8438 123.56 79.9511 112.82C84.1441 113.204 92.6988 111.885 99.4752 108.551C102.832 106.854 105.574 104.149 107.317 100.816C107.918 99.764 108.394 98.6449 108.735 97.4818C111.418 88.1376 110.82 84.0365 110.966 79.7055C116.178 73.6191 116.332 55.6205 107.585 44.1069C105.615 41.4547 100.556 38.2428 98.8849 37.6219C99.125 37.4616 99.321 37.2435 99.455 36.9877C99.5889 36.7319 99.6564 36.4465 99.6515 36.1578C99.7358 34.824 99.4675 34.4254 100.717 33.7049C101.199 33.4781 101.632 33.1576 101.989 32.762C102.345 32.2433 102.633 31.6818 102.848 31.0909C103.829 27.9097 100.686 27.9557 101.529 22.7202C101.661 21.9817 101.697 21.2295 101.637 20.4819C101.612 19.8423 101.384 19.2273 100.985 18.7265C100.529 18.2077 100.14 17.6333 99.8278 17.0171C99.2682 15.2003 99.4675 13.5983 98.7086 12.0728C98.1864 11.068 97.5539 10.1244 96.8229 9.25958C94.8835 7.03659 92.6452 7.56551 90.0159 6.33903C89.0989 5.85329 88.1485 5.43319 87.172 5.08189C85.0738 4.61478 82.9097 4.52136 80.779 4.80593C78.3644 5.20453 74.3553 7.49652 72.0556 10.5551C71.5646 11.1903 71.1262 11.8645 70.7449 12.5711C69.6688 14.7216 68.9417 17.0297 68.5909 19.4087C68.4222 20.6812 68.8438 20.5355 68.4145 21.7927C67.5713 21.877 67.5483 21.9153 67.5177 22.0763C67.6132 22.47 67.7494 22.8528 67.924 23.2185C67.6786 23.9467 67.4334 24.6749 67.3644 24.9279C67.0807 26.461 67.9623 27.9941 67.2264 29.2359C66.6208 30.2477 65.0341 30.769 64.7044 32.0415C64.2598 33.7202 65.1797 35.3223 66.3908 36.5948C66.4972 36.7362 66.6367 36.8494 66.7971 36.9244C62.3511 38.6108 59.6682 42.1292 59.6912 42.3515L55.4598 41.7996C55.1915 41.7996 55.5365 41.4164 55.1302 47.8477C54.9869 47.7135 54.7976 47.6395 54.6013 47.6407C53.2139 47.6407 52.7386 50.7529 52.6159 52.1327C52.432 54.1258 52.4243 55.9655 54.0801 57.1306C54.2116 57.2227 54.353 57.2998 54.5017 57.3606C54.287 60.4958 54.0571 64.0066 53.8194 67.755C50.5061 66.9356 47.1065 66.5162 43.6933 66.5055C40.7244 66.4568 37.7737 66.9772 35.0006 68.0386C28.1017 70.4763 22.8585 74.47 18.7038 81.9439C18.6578 82.0205 16.2125 86.5432 15.5149 88.2296C14.4954 90.6672 14.1198 93.2275 16.6877 93.833C17.4017 93.9794 18.1424 93.9237 18.8264 93.6721C17.8222 98.1794 14.8404 115.71 14.8327 115.81C13.6215 115.404 5.2968 112.859 4.13931 113.349C4.01616 113.403 3.91867 113.503 3.86724 113.627C3.81581 113.752 3.81442 113.891 3.86335 114.016C4.43827 115.81 14.9707 122.341 17.416 123.476C18.4891 123.966 18.4738 123.744 18.8341 123.131C21.9539 117.872 26.8062 105.684 30.179 100.241C29.1595 111.464 33.0306 127.071 36.3114 137.887C34.7783 138.837 29.7191 141.267 28.0097 142.977C27.9407 143.053 25.5874 144.74 27.1511 145.445C27.6647 145.728 29.6348 145.629 31.9651 145.384C32.9616 145.269 42.4515 144.172 42.9267 143.406C43.2947 142.923 42.7888 140.554 42.6431 139.772C42.2117 137.071 42.0346 134.335 42.1142 131.601C42.3365 121.728 46.7135 110.498 49.9483 105.96C50.8525 106.969 51.5225 108.165 51.9107 109.463C51.6961 121.306 51.972 131.402 53.2138 136.193C54.0125 139.72 56.151 142.798 59.1776 144.778C67.1727 150.067 81.7525 149.431 90.6062 146.809C94.1706 145.751 98.54 143.812 102.518 144.165C105.546 144.425 107.539 145.951 112.706 146.901C120.164 148.266 122.671 145.705 126.925 143.835C131.525 141.834 134.752 140.823 139.481 142.555C141.12 143.235 142.693 144.064 144.18 145.031C145.001 145.598 144.947 145.744 145.254 145.728C145.314 145.722 145.37 145.697 145.415 145.658C145.461 145.618 145.493 145.565 145.506 145.506C145.506 145.292 146.143 146.472 135.756 129.424ZM30.225 99.7125C27.3964 103.99 23.2724 113.081 20.4208 118.876C18.7508 117.933 17.0745 117 15.3923 116.078C15.6376 114.936 19.0257 94.3466 19.1637 93.5801C21.701 92.6296 24.3302 90.2916 28.071 92.9362C29.0752 93.6491 30.0717 94.7452 31.1372 95.6804C30.8141 96.317 30.6016 97.004 30.5086 97.7118C30.3937 98.3404 30.294 98.9996 30.2173 99.6818L30.225 99.7125ZM41.7233 137.197C40.1178 137.262 38.5217 137.475 36.9553 137.833C34.2724 128.335 28.5616 109.417 30.8842 97.5968C31.0069 96.9529 31.1142 96.5466 31.1909 96.2783C31.3672 95.7341 31.3672 95.8567 31.6815 96.0944C35.0236 98.647 36.9783 96.9529 40.0139 98.0414C40.9086 98.3741 41.7445 98.8477 42.4898 99.4442C43.451 100.304 44.1655 101.405 44.5595 102.633C44.7308 103.147 45.051 103.597 45.4794 103.929C47.1581 105.4 48.4689 104.733 49.8104 105.822C49.6877 105.845 40.1442 119.834 41.6849 137.174L41.7233 137.197ZM101.33 106.818C98.402 108.903 91.2961 111.747 83.2856 112.422C81.4306 112.583 80.3804 112.56 79.9894 112.644C79.9894 111.464 79.9894 110.253 80.0431 109.018C81.0013 108.942 83.4236 108.558 83.7839 108.497C88.0612 107.731 94.3929 106.197 97.5818 103.231C98.3483 103.906 98.3483 103.952 98.5553 103.898C99.5277 103.048 100.39 102.079 101.123 101.016C103.745 97.3208 105.585 92.6832 105.968 85.8533C105.968 85.7919 106.052 84.0365 106.037 83.4233C107.84 82.6731 109.446 81.5162 110.728 80.0428C110.207 89.6323 109.617 100.855 101.292 106.795L101.33 106.818ZM79.8668 57.5216C78.9603 57.2014 78.0874 56.7932 77.2605 56.3028C77.1763 56.2253 77.1217 56.1209 77.1063 56.0075C77.0909 55.8941 77.1156 55.7789 77.1762 55.6819C77.7664 55.0993 79.2076 55.5209 79.9741 55.8428C80.1044 55.8965 80.3114 55.9885 80.4187 55.7278C80.526 55.4672 80.4187 55.4825 79.6522 55.0073C79.4069 54.854 78.7936 54.463 78.372 54.1488C78.0963 53.9845 77.8792 53.7378 77.7511 53.4435C77.6975 53.1906 77.9351 52.8303 78.5177 52.8533C79.5937 53.0589 80.5991 53.5365 81.4382 54.2407C81.4648 54.2703 81.4973 54.2939 81.5336 54.3101C81.57 54.3263 81.6093 54.3346 81.649 54.3346C81.6888 54.3346 81.7281 54.3263 81.7644 54.3101C81.8007 54.2939 81.8332 54.2703 81.8598 54.2407C82.0515 53.9724 81.9978 52.3704 82.5497 51.2665C82.657 51.1055 82.7414 50.9062 82.91 50.8986C83.5999 50.8986 83.6306 52.677 83.6152 53.3285C83.6152 55.3139 83.2396 55.1223 83.7532 55.6819C84.3555 56.2592 85.0156 56.773 85.7232 57.215C85.4856 57.5292 86.1372 56.7014 82.5037 61.1857C82.0898 60.7717 81.5455 59.415 81.1316 59.5529C79.9894 60.1278 76.7623 59.047 76.8849 58.1118C76.9692 57.4449 78.418 57.7055 79.1386 57.8129C79.8591 57.9202 79.7901 57.9278 79.9051 57.8129C79.9241 57.7897 79.938 57.7629 79.9461 57.7341C79.9541 57.7053 79.956 57.6751 79.9516 57.6455C79.9473 57.616 79.9368 57.5876 79.9209 57.5623C79.905 57.537 79.8839 57.5153 79.8591 57.4986L79.8668 57.5216ZM76.3713 30.3704C76.9064 30.6533 77.488 30.8377 78.0884 30.9146C78.2494 30.7613 78.2417 30.8226 78.0884 30.6617C77.5598 30.487 77.0628 30.2281 76.6166 29.8951C76.6856 29.4505 77.7741 26.5836 78.0347 25.7097C78.1957 25.1732 78.2417 25.0352 78.372 24.5446C78.7652 24.5217 79.1593 24.5217 79.5525 24.5446C79.5581 25.3116 79.6769 26.0736 79.9051 26.8059C80.5644 27.9021 83.5539 27.9711 84.8264 27.9174C86.0989 27.8638 86.6124 27.8024 87.126 27.0742C86.5205 29.3269 86.1758 31.6418 86.0988 33.9732C85.7352 34.6488 85.2309 35.2385 84.62 35.7027C84.0091 36.1668 83.3057 36.4945 82.5574 36.6637C78.7783 37.2617 76.7853 36.4338 74.6389 33.4442C73.555 31.9282 72.8577 30.1705 72.6076 28.3237C73.9887 28.3914 75.3685 28.164 76.655 27.6568C75.8347 29.8568 75.9344 30.1021 76.3713 30.3704ZM80.2041 22.153C81.1239 21.9766 85.9379 22.1989 88.5595 22.2526C88.2605 23.0192 87.8619 24.284 87.4633 25.7327C87.2419 26.3342 86.9205 26.894 86.5128 27.3885C85.9455 27.7104 82.2891 27.6415 80.8633 26.8672C80.1811 26.507 80.1811 26.4533 80.1811 22.153H80.2041ZM83.8988 36.8554L83.8299 36.955C83.1496 38.0921 82.3807 39.1738 81.5302 40.1899C81.2466 39.7683 79.9971 37.8902 79.6982 37.3536C80.6664 37.4495 81.6431 37.4186 82.6034 37.2617C83.0538 37.1948 83.4909 37.0577 83.8988 36.8554ZM74.7002 38.3272C74.8842 40.399 75.2484 42.4509 75.7887 44.4596C74.8112 44.2172 73.8208 44.0304 72.8222 43.9C73.2055 42.9035 74.5623 38.6338 74.6849 38.3118L74.7002 38.3272ZM75.2215 37.1543C75.7601 36.9296 76.2739 36.6496 76.7546 36.3188C77.5346 36.8495 78.4264 37.1932 79.3609 37.323C79.8001 38.4302 80.3443 39.4929 80.986 40.4965C76.8543 44.3906 76.6703 44.6359 77.0689 44.5745C77.8354 44.4136 80.756 41.585 81.2926 41.0637C81.9442 41.723 84.7114 45.3104 85.2403 45.9083C85.5086 46.123 85.6696 45.8547 85.9302 45.6094C87.0264 44.5822 87.5476 44.1299 87.8236 43.9153C81.4229 61.8756 85.1177 53.6428 83.7379 50.9829C83.6611 50.7708 83.5072 50.5954 83.3069 50.4917C83.1066 50.388 82.8746 50.3636 82.657 50.4233C82.4702 50.5216 82.3056 50.6575 82.1737 50.8224C82.0418 50.9873 81.9454 51.1776 81.8905 51.3815C82.0055 48.1467 82.0668 46.0157 82.0285 45.4101C82.0285 45.2568 82.5037 45.3104 76.034 44.4749C76.0417 44.3829 75.2215 37.2157 75.2062 37.139L75.2215 37.1543ZM82.3657 61.4386C82.0821 61.8219 81.8292 62.2052 81.5992 62.4812C81.5992 61.7606 81.6758 61.1167 81.7142 60.5648C81.8744 60.886 82.0897 61.1766 82.3504 61.4233L82.3657 61.4386ZM81.5072 64.6428C85.7386 77.0226 91.6333 87.6393 104.166 84.0595C104.711 83.9062 105.24 83.7299 105.769 83.5229C105.769 90.5982 103.63 98.5473 98.4556 103.377C92.9634 98.2425 86.9666 93.6762 80.5567 89.7473C80.7253 81.7675 81.1469 71.2352 81.4919 64.6275L81.5072 64.6428ZM93.0055 38.0895C94.0038 38.2256 94.9869 38.4566 95.9414 38.7794C96.3065 38.92 96.7107 38.92 97.0758 38.7794C97.5095 38.6198 97.9175 38.3977 98.287 38.1202C99.6285 38.2428 104.182 41.355 106.182 43.3251C108.482 45.6247 111.096 50.339 112.637 55.7355C114.706 63.2784 115.22 75.7655 108.727 81.0317C105.132 83.9445 99.3755 84.8644 95.5657 83.477C88.0459 80.817 84.3358 70.9899 81.7678 63.447C81.9901 62.5578 86.4591 57.192 87.011 56.5481C92.2696 56.4101 102.388 64.0373 103.683 66.8965L103.913 66.7892C102.764 64.2289 94.9525 57.9049 89.303 56.3871C89.4793 54.9 89.7859 50.6686 89.7859 50.592C91.5797 50.4616 93.542 50.7223 93.6187 50.2164C93.6647 49.3195 92.0856 39.9982 91.7636 38.3195C92.145 38.1516 92.5581 38.0679 92.9748 38.0742L93.0055 38.0895ZM90.3455 38.9251C90.7444 38.7841 91.1358 38.6229 91.5184 38.4421C91.5184 38.5188 92.9365 49.8407 92.9441 49.9404C88.9504 50.0937 89.188 49.6798 89.1497 51.2129C89.1497 51.2819 89.0424 55.7048 89.0271 56.3641C88.6515 56.2721 87.011 55.9501 86.7274 56.1571C86.6048 56.2798 86.3518 56.5634 86.0145 56.9237C85.6772 56.6707 84.9337 56.1571 84.4278 55.6895C84.9797 54.486 83.6229 57.6059 90.3149 38.9097L90.3455 38.9251ZM88.0459 43.463C87.1661 44.0136 86.3283 44.6285 85.5393 45.3028C84.8954 44.4289 82.8947 41.7996 81.9288 40.7648C82.8124 39.8191 83.5117 38.7169 83.9908 37.5146C84.1092 37.2735 84.1869 37.0145 84.2208 36.7481C84.9729 36.3267 85.6304 35.7553 86.1525 35.0693C86.3441 37.4686 87.264 39.247 89.6173 39.0937C89.234 39.9676 88.7358 41.3474 87.9922 43.4477L88.0459 43.463ZM71.9483 18.9334C72.4313 19.7537 72.4083 19.8916 72.8759 20.1369C73.4072 20.3863 73.9913 20.5021 74.5776 20.4742C75.6508 20.3362 76.3407 19.2861 77.3602 19.1634C77.5595 19.1634 79.8668 20.7425 81.1929 20.3209C82.5191 19.8993 83.2013 18.8721 84.1595 19.3397C85.1177 19.8073 85.5469 21.0951 87.6166 20.4129C88.2681 20.1297 88.8874 19.7776 89.464 19.3627C89.3197 20.1672 89.1042 20.9573 88.8201 21.7237C87.0264 21.601 81.9212 21.4171 80.503 21.5167C79.8208 21.5627 79.4759 21.5167 79.5295 23.2568C78.9236 23.2078 78.314 23.2283 77.7128 23.3181C77.7206 22.9955 77.7052 22.6727 77.6668 22.3523C77.5748 21.7237 77.4138 21.6547 77.0229 21.5857C76.632 21.5167 74.202 21.5857 71.8487 21.624C71.7188 20.7208 71.7292 19.8029 71.8793 18.9028L71.9483 18.9334ZM77.0382 22.2449C77.1766 23.796 77.1044 25.3586 76.8236 26.8902C75.9651 27.9404 71.2584 28.316 70.6299 27.7641C69.9093 26.7982 68.5755 23.3334 68.2536 22.3983C69.6563 22.3523 76.9692 21.9996 76.9692 22.2143L77.0382 22.2449ZM67.0807 37.0394C69.3994 37.8234 71.8808 37.9976 74.2863 37.5453C73.7881 38.9174 72.8835 42.1446 72.1936 43.7697C72.1553 43.877 60.5804 42.3286 60.4271 42.2366C65.7853 36.5794 66.1532 37.8289 67.0807 37.0394ZM54.1644 56.9237C52.7923 55.9348 52.7693 54.2561 52.9532 52.5697C53.011 51.7424 53.1523 50.9232 53.3748 50.1244C53.5117 49.48 53.7921 48.8748 54.195 48.3536C54.3943 48.1313 54.6933 48.0393 54.8389 48.2617C54.8389 48.3383 55.0306 48.3153 55.0459 49.2275C55.0459 51.0672 54.5706 51.7188 55.0459 51.7878C55.1302 51.7878 58.4647 50.4386 59.078 51.5271C59.3539 52.1251 58.549 52.3704 57.6598 52.6616C56.0041 53.2059 55.7971 53.0832 55.8354 53.4282C55.8738 53.7731 56.2954 53.4282 57.7595 53.5968C58.3804 53.6658 59.3463 54.0184 59.0013 54.5474C58.8173 54.923 57.2229 55.0763 56.7017 55.1376C55.9351 55.2296 55.7435 55.1759 55.7281 55.4595C55.7128 55.7432 56.0807 55.7125 56.786 55.7892C58.664 55.9961 58.6564 56.3947 58.687 56.4714C58.871 57.5522 55.3219 57.7669 54.1644 56.9237ZM82.7184 147.729C78.6301 148.316 74.4812 148.347 70.3846 147.821C62.1978 146.878 55.8891 143.912 53.7504 136.032C50.4696 123.974 53.8654 73.4045 54.8313 57.4756C56.0884 57.8819 58.0278 57.8589 58.8097 57.1843C58.9469 57.08 59.0451 56.9325 59.0882 56.7656C59.1313 56.5987 59.1169 56.4221 59.0473 56.2644C58.931 56.0841 58.7781 55.9302 58.5985 55.8126C58.4189 55.6951 58.2166 55.6166 58.0048 55.5822C57.4912 55.4442 57.8208 55.5822 58.7713 55.3292C59.9518 55.0073 60.0131 53.5815 58.3727 53.1829C57.9511 53.0832 57.9205 53.1829 58.1964 53.0526C58.848 52.8226 59.6759 52.5313 59.7295 51.8338C59.7414 51.6494 59.7045 51.4651 59.6224 51.2995C59.5403 51.134 59.4159 50.993 59.2619 50.8909C58.3727 50.2317 56.4717 50.7453 55.4292 51.1055C55.4292 50.7913 55.7665 49.1202 55.4292 48.2157C55.6132 44.9425 55.6975 42.7578 55.6438 42.0833C82.7797 45.7857 81.8675 45.6017 81.7065 45.6017C81.7065 47.3495 81.5839 50.0937 81.4459 53.5662C80.526 52.9529 78.786 51.9487 77.7971 52.447C77.626 52.528 77.4802 52.6541 77.3753 52.8117C77.2705 52.9692 77.2105 53.1524 77.2018 53.3415C77.1931 53.5306 77.2361 53.7185 77.3261 53.885C77.4162 54.0515 77.5498 54.1904 77.7128 54.2867C78.4793 54.992 78.763 54.9076 78.3184 54.877C76.9922 54.785 76.471 55.5055 76.6626 56.1878C76.7392 56.3651 76.8516 56.5248 76.9927 56.6567C77.1338 56.7886 77.3007 56.8899 77.4828 56.9543C78.4947 57.4679 78.3414 57.1843 77.4828 57.2916C76.4097 57.4219 76.103 58.4031 77.2605 59.139C77.844 59.4969 78.4933 59.7343 79.17 59.837C79.8468 59.9397 80.5372 59.9056 81.2006 59.7369C81.2006 59.8136 80.1657 75.4742 79.7901 96.3703C79.2229 114.913 79.0236 131.632 80.434 133.548C81.0779 138.278 85.7999 145.046 91.0431 146.035C88.3263 146.855 85.5396 147.422 82.7184 147.729ZM143.82 144.096C140.662 142.179 138.017 140.938 134.116 141.03C126.128 141.305 123.154 147.928 113.25 146.311C105.899 145.131 104.511 142.386 97.6738 143.927C95.4201 144.433 93.7797 145.138 91.5873 145.836C86.9881 145.016 81.9748 138.538 80.7867 133.778C80.7867 133.778 87.4786 130.007 89.326 129.179C97.0528 125.89 98.8696 129.025 106.435 131.402C112.951 133.456 115.09 132.329 120.755 129.754C123.997 128.274 126.511 127.5 130.083 128.06C131.89 128.333 133.639 128.906 135.258 129.754C144.824 145.499 144.226 144.349 143.82 144.096ZM31.4285 17.6073C29.9567 20.8038 29.6578 25.6331 31.3058 28.5C31.9576 29.6016 32.7953 30.582 33.7818 31.3975C35.2858 32.4876 37.0086 33.2379 38.8311 33.5965C40.6536 33.9552 42.5323 33.9137 44.3372 33.4749C46.6243 32.823 48.6843 31.5461 50.2856 29.7878C51.221 28.8112 51.9159 27.63 52.3151 26.338C52.7143 25.0459 52.8068 23.6786 52.5853 22.3446C51.9567 17.4387 48.0396 12.2108 41.2863 12.1878C37.1776 12.1725 33.2069 13.8589 31.4285 17.6073ZM49.2891 30.0561C46.0696 32.969 42.4975 34.0345 38.0898 32.854C37.0093 32.5986 35.9749 32.1771 35.0236 31.6045C33.4614 30.6421 32.2187 29.2393 31.4515 27.5725C29.8571 23.9773 30.7769 18.3739 33.2912 15.6066C39.1553 9.15227 51.5811 12.8164 52.2097 22.3829C52.4703 26.1697 51.1902 28.3467 49.2891 30.0561Z" fill="black"/>
<path fill-rule="evenodd" clip-rule="evenodd" d="M32.9003 12.8623C30.9376 14.3484 29.542 16.4608 28.9449 18.849C26.7756 25.932 29.5505 31.6734 34.5024 34.0344C38.0124 35.7352 42.0373 36.0393 45.763 34.8853C48.6989 33.8504 52.0027 31.3975 53.4285 28.7529C55.6668 24.5445 55.0919 17.7759 49.979 13.1842C46.3149 9.94173 38.7337 8.67692 32.9003 12.8623ZM50.6383 31.1982C46.9205 34.525 42.6431 35.7975 37.5149 34.433C35.7331 34.0099 34.0677 33.1956 32.6397 32.049C26.5073 26.8902 27.1358 12.9389 38.7721 11.0379C49.5038 9.26717 54.3407 18.0518 54.1031 24.2532C54.051 25.5903 53.7151 26.901 53.1177 28.0984C52.5204 29.2958 51.6752 30.3524 50.6383 31.1982Z" fill="black"/>
</svg>
