<svg width="154" height="154" viewBox="0 0 154 154" fill="none" xmlns="http://www.w3.org/2000/svg">
<path d="M37.4217 106.752C36.0649 129.863 65.0551 130.668 66.3505 108.584C66.9101 99.1253 61.4677 90.5478 53.5878 90.0725C45.7079 89.5973 37.9812 97.2933 37.4217 106.752ZM56.0483 115.951C56.0483 115.951 56.2476 117.859 56.2017 117.813C53.0282 114.563 51.5411 118.488 55.3585 111.489C55.941 114.379 54.8526 114.004 60.4866 111.926C57.6274 104.667 57.7041 106.668 59.6357 102.874C64.9094 113.59 63.5067 115.261 56.0483 115.974V115.951ZM57.4664 99.8995C57.4664 99.8995 58.8079 98.903 58.7925 98.972C57.8727 103.778 60.6015 103.257 54.454 102.437C56.1557 100.62 56.4469 101.854 52.1544 97.1553C48.0994 103.663 49.5328 102.613 45.8458 102.46C51.5028 91.3143 53.3118 92.7707 57.4664 99.9225V99.8995ZM43.3546 105.158C48.1607 103.533 46.873 102.222 47.8695 107.703C46.0758 106.936 46.8117 105.963 45.0793 112.953C51.8171 114.027 50.3684 113.045 51.9781 116.947C41.5226 116.457 41.0473 114.303 44.673 106.085C44.6577 106.07 43.3009 105.158 43.3546 105.158ZM55.1438 45.4758C55.6804 44.6019 53.8407 46.9015 51.6638 48.4346C45.3782 52.9878 53.5111 48.5649 55.1438 45.4758ZM53.1355 50.6422C55.3815 48.9712 57.3055 46.4799 57.0142 46.2883C56.7229 46.0967 56.0713 48.1203 51.0199 51.654C48.5517 53.3251 51.2652 52.045 53.1355 50.6422ZM54.5766 52.5049C56.8762 50.8032 58.7312 48.3349 58.4093 48.1433C58.0873 47.9517 57.5048 49.9677 52.4303 53.4707C49.9851 55.1801 52.6986 53.9 54.5766 52.5049ZM56.1097 54.4442C58.5089 52.6582 60.2413 50.2589 59.9423 50.0903C59.6434 49.9217 58.8692 52.022 53.9557 55.456C51.5182 57.1271 54.2393 55.8469 56.1097 54.4442ZM57.7194 56.3222C60.0956 54.5668 61.851 52.1369 61.6287 51.9606C61.4064 51.7843 60.6629 53.8156 55.6421 57.3264C53.1279 58.9974 55.8491 57.7173 57.7194 56.3222ZM59.0915 58.1925C61.4907 56.4065 63.2307 54.0073 62.9701 53.831C62.7095 53.6547 61.989 55.7013 56.9759 59.166C54.5076 60.8677 57.2211 59.5876 59.0915 58.1925ZM107.475 16.4089C107.487 16.4514 107.507 16.4909 107.535 16.5251C107.563 16.5592 107.598 16.5873 107.637 16.6076C107.676 16.6279 107.719 16.6399 107.763 16.6429C107.807 16.646 107.851 16.6399 107.892 16.6252C107.934 16.6105 107.972 16.5874 108.004 16.5573C108.036 16.5273 108.062 16.4909 108.08 16.4506C108.097 16.4102 108.107 16.3666 108.107 16.3225C108.107 16.2784 108.098 16.2348 108.08 16.1943C107.621 14.7839 107.084 15.3051 107.475 16.4089ZM102.469 17.7044C102.481 17.7468 102.502 17.7863 102.53 17.8205C102.558 17.8547 102.592 17.8828 102.631 17.9031C102.67 17.9233 102.713 17.9353 102.757 17.9384C102.801 17.9414 102.845 17.9354 102.887 17.9206C102.928 17.9059 102.967 17.8828 102.999 17.8528C103.031 17.8227 103.057 17.7864 103.074 17.746C103.092 17.7056 103.101 17.662 103.101 17.6179C103.101 17.5739 103.092 17.5302 103.075 17.4898C102.577 16.0487 102.086 16.6312 102.469 17.7044Z" fill="black"/>
<path d="M143.302 76.4894C142.36 69.0387 139.976 57.8474 136.105 51.8378C140.528 41.39 132.226 28.1903 123.503 25.0092C119.586 20.1264 121.97 4.67314 112.358 4.04459C102.983 3.43903 99.3266 8.96571 100.515 15.8338C98.2611 19.2909 105.666 19.8275 98.8054 28.3206C93.4397 30.0913 88.074 35.2194 84.8315 39.7036C78.3927 41.8499 68.1748 47.3689 65.6683 51.0942C63.9972 49.9444 62.6021 48.7946 61.2301 49.7988C59.2984 47.3842 57.2901 44.1648 51.2652 43.3216C50.5446 42.5551 49.6784 40.4165 49.0269 40.5084C48.2067 40.6311 46.0068 42.4478 45.7461 43.2296C45.6005 43.6589 47.2792 45.3223 47.5551 45.1C49.5251 47.5989 45.0409 48.787 53.4574 58.6829C45.8918 57.9164 19.5461 60.6529 16.664 61.3428C11.7275 62.5309 11.5742 65.4284 13.0843 76.5431C9.84951 76.1445 10.5241 75.171 11.1219 80.7513C11.1219 80.8969 11.122 80.8433 13.4215 81.4105C13.3219 81.6635 16.8173 129.587 20.5426 141.966C21.8457 146.221 35.1067 149.524 36.7164 149.632C39.9588 149.793 58.7312 146.397 63.0621 145.186C67.5233 143.929 66.2278 142.472 72.5977 79.9081C74.0311 79.7548 75.2269 79.3869 75.3649 77.5472C75.7558 72.3578 76.3307 73.27 73.0653 73.5996C73.9085 67.521 74.5984 65.2291 65.9672 55.9694C66.3891 55.6221 66.7381 55.1949 66.9944 54.7123C71.2946 56.8509 85.3374 56.0767 89.7297 53.1792C88.9171 62.9831 79.1362 72.5954 96.1685 137.628C98.8897 138.816 99.1273 137.352 99.3343 138.739C83.1452 149.892 105.26 145.745 104.738 140.878C104.631 139.92 104.317 138.302 104.14 137.39C107.728 136.263 106.616 137.973 108.525 122.06C106.31 111.52 101.465 84.9519 101.986 86.7992C106.455 102.467 111.453 139.82 115.017 140.886C118.206 141.844 117.754 140.518 117.907 141.974C102.009 151.793 123.327 148.965 123.043 144.22C122.759 139.475 122.016 140.671 123.258 140.088C123.258 140.088 132.456 100.229 130.593 82.315C137.316 80.2531 143.387 77.1409 143.302 76.4894ZM113.185 65.6813C114.765 69.1077 113.346 69.8359 112.603 68.3872C111.982 64.9378 110.349 64.7232 111.974 68.2262C112.434 70.3035 111.078 70.4798 110.296 66.6931C110.181 66.1489 109.667 66.5858 109.682 66.7468C110.05 68.5558 111.001 69.8896 109.851 70.3342C109.169 70.6101 107.069 66.4095 111.921 59.9323C122.146 46.2651 123.955 48.9173 123.94 48.1891C123.94 47.8058 122.552 48.3654 122.2 48.5494C122.085 45.8818 121.932 46.2498 122.108 45.8742C123.756 42.6624 132.755 42.808 136.672 45.8358C136.404 62.5539 112.848 64.9454 113.185 65.6813ZM136.948 66.3252C136.833 65.1141 136.496 65.5587 136.634 65.6507C136.718 66.2549 136.671 66.8702 136.496 67.4548C136.322 68.0394 136.024 68.5796 135.622 69.0387C135.568 69.0924 135.622 69.1614 135.392 68.4485C134.165 64.6925 134.296 66.6012 135.101 65.1217C135.905 63.6423 134.955 61.8333 134.786 61.9023C134.38 62.0633 136.005 63.6117 134.388 65.735C133.238 62.9371 130.693 58.2153 133.046 63.6423C131.613 63.2284 129.344 60.5762 130.425 62.1093C133.1 65.9419 132.172 60.4766 134.702 67.8276C133.491 68.1342 131.506 66.5552 130.555 65.7273C129.49 64.6005 132.533 68.9467 134.748 67.9732C135.147 69.1537 135.515 70.2728 135.798 71.5299C133.499 71.1543 131.322 68.5405 131.896 69.307C132.31 69.9947 132.885 70.5711 133.571 70.9865C134.258 71.4019 135.035 71.6437 135.836 71.6909C136.013 72.4115 136.197 73.224 136.342 73.9905C127.911 74.5731 128.186 67.498 130.103 59.2808C130.67 58.8515 135.76 59.8327 138.22 64.8765C140.681 69.9202 138.987 73.0783 136.687 73.9062C136.47 72.3328 136.126 70.7794 135.66 69.261C136.097 68.9151 136.441 68.4651 136.659 67.9523C136.877 67.4394 136.963 66.88 136.91 66.3252H136.948ZM122.767 69.8206C124.492 69.8206 125.067 72.0435 124.714 72.0435C124.591 72.0435 124.837 71.4073 123.948 70.6714C123.636 70.3533 123.24 70.1323 122.805 70.0352C124.944 80.4907 123.572 76.1675 122.928 73.0017C121.87 74.2971 122.254 75.2093 122.077 75.2093C121.901 75.2093 121.541 73.293 122.844 72.7027L121.847 67.7203C120.092 68.3259 119.716 71.5529 119.341 71.3153C118.965 71.0777 120.031 67.4827 121.717 67.36C121.556 66.5825 121.351 65.8148 121.104 65.0604C118.888 66.3252 119.341 67.8046 118.957 67.7126C118.781 67.6666 119.034 66.1182 119.586 65.528C119.989 65.144 120.446 64.8211 120.943 64.5699C120.682 63.7267 120.636 63.903 121.088 63.7497C121.321 64.3385 121.521 64.9399 121.686 65.551C124.201 65.6966 125.396 68.3565 124.99 68.4715C124.791 68.5251 124.568 67.429 123.572 66.8464C121.081 65.3977 121.893 65.8883 122.767 69.8206ZM113.914 74.3354C113.745 74.4428 114.941 76.1291 112.381 78.2371C111.982 76.9953 111.614 75.7305 111.277 74.5041C112.419 74.0212 113.576 71.7446 113.377 70.6714C113.323 70.0352 112.925 72.971 111.315 74.2588C111.131 74.4044 111.384 74.5501 110.196 70.8477C110.963 70.4568 110.74 69.8282 111.101 70.0812C111.243 70.188 111.412 70.253 111.589 70.269C111.767 70.2849 111.945 70.2513 112.104 70.1717C112.263 70.0921 112.397 69.9698 112.49 69.8184C112.584 69.667 112.634 69.4926 112.634 69.3147C112.753 69.4207 112.897 69.4947 113.052 69.5299C113.208 69.5651 113.37 69.5602 113.523 69.5158C113.676 69.4714 113.815 69.3889 113.928 69.2759C114.041 69.163 114.123 69.0234 114.167 68.8701C116.627 72.0818 116.466 77.6852 112.741 79.3945C112.626 79.0726 112.519 78.743 112.411 78.4211C115.056 76.934 114.289 74.1208 113.914 74.3354ZM108.433 69.1307C108.51 69.6519 108.678 69.7516 108.433 69.5446C107.871 69.0219 107.456 68.3612 107.23 67.6283C107.145 66.9921 106.854 68.9851 108.678 69.9739C108.939 70.5258 109.376 71.07 109.974 70.9014L110.426 72.925C109.253 72.6951 108.51 71.5913 108.387 71.6756C108.264 71.7599 108.977 73.155 110.464 73.063C110.687 74.0365 111.009 75.2553 111.231 76.1291C108.977 75.9835 107.996 73.6609 107.873 73.7146C107.59 73.8219 108.962 76.5891 111.269 76.2748C111.576 77.3402 111.944 78.513 112.342 79.5402C106.087 80.6287 102.669 71.4303 108.387 63.1288C110.273 64.1023 107.62 63.65 108.433 69.1307ZM108.832 53.8001C108.778 54.8886 109.728 55.1492 102.615 55.7701C100.607 53.8461 97.7936 55.4098 108.832 53.8001ZM112.442 53.2252C118.904 52.0831 118.36 51.2475 116.19 53.6621C111.652 54.467 112.342 54.6356 112.442 53.2329V53.2252ZM125.251 26.2433C130.678 29.2481 136.641 37.3197 136.703 45.4066C134.779 43.7202 131.965 42.9613 129.421 42.831C117.861 42.2101 124.99 51.1096 119.923 39.6806C119.87 39.512 119.617 39.6039 119.67 39.7726C122.736 51.5312 123.02 46.863 118.007 51.7841C117.969 51.7841 112.641 52.5506 112.534 52.5506C113.063 46.0811 115.516 34.7595 125.251 26.2433ZM102.416 20.1724C102.825 20.2488 103.248 20.1935 103.624 20.0145C104 19.8354 104.31 19.5419 104.508 19.1759C105.175 21.4755 107.176 19.6052 107.506 19.4672C107.582 19.4672 107.996 19.0763 106.31 19.7738C104.623 20.4713 104.853 17.9035 104.869 16.7077C106.233 15.7265 105.919 17.6965 107.666 18.486C109.414 19.2756 110.894 17.4819 110.809 15.8108C111.384 15.8108 111.576 15.8722 112.611 15.8645C114.979 23.6678 106.179 28.9952 102.377 20.1724H102.416ZM106.072 15.5732C106.248 13.036 110.004 13.0053 110.188 15.8568C110.38 19.1606 106.087 18.4554 106.034 15.5425L106.072 15.5732ZM112.411 15.3049C111.86 15.3475 111.314 15.4372 110.779 15.5732C110.769 15.2217 110.686 14.8762 110.533 14.5593C110.381 14.2425 110.163 13.9614 109.894 13.7347C109.626 13.508 109.312 13.3408 108.974 13.244C108.636 13.1473 108.281 13.1231 107.933 13.1732C107.585 13.2233 107.252 13.3465 106.955 13.5347C106.658 13.723 106.404 13.9719 106.21 14.2652C106.016 14.5585 105.887 14.8895 105.83 15.2365C105.773 15.5835 105.79 15.9386 105.88 16.2784C105.718 16.2141 105.544 16.1849 105.37 16.1928C105.195 16.2008 105.024 16.2456 104.869 16.3244C104.869 14.9677 104.562 15.4046 104.585 15.4812C104.953 17.7042 103.719 13.0283 101.021 15.3126C100.001 9.6326 109.207 6.94207 112.373 15.2743L112.411 15.3049ZM100.722 16.8533C100.906 17.6198 101.12 18.3404 101.312 19.0226C100.837 18.4053 100.625 17.6259 100.722 16.8533ZM101.113 15.9718C102.009 14.8373 104.025 15.0366 104.393 17.0603C104.34 17.5892 104.585 20.525 102.094 19.5822C101.667 18.4087 101.341 17.2009 101.12 15.9718H101.113ZM16.7943 61.9636C19.3622 61.3581 47.2562 58.4913 53.7104 58.9895C56.3473 62.0556 58.6622 59.3804 30.2086 63.4737C23.7927 64.3935 26.8358 78.0914 27.1424 78.0991C25.9543 63.1211 27.0121 64.5085 37.9582 63.1441C60.9541 60.2773 54.1703 60.8445 57.9263 63.719C48.8506 64.2402 36.954 65.8806 32.6308 67.5517C29.8023 68.6325 29.5647 68.6861 29.9709 78.1374C25.5634 78.2907 21.6311 77.6239 13.3526 76.6044C12.3101 66.6318 11.8655 63.0751 16.8019 61.9407L16.7943 61.9636ZM21.3935 141.752C18.9099 133.059 15.3302 96.5265 13.8201 81.5102C23.4478 83.8558 24.6206 84.262 27.4184 84.354C27.6637 90.2256 31.8489 146.443 34.1639 148.628C31.0441 147.692 22.2826 144.849 21.4011 141.729L21.3935 141.752ZM62.8858 144.58C58.3479 145.86 39.6752 149.18 36.7394 149.019C36.0403 149.028 35.3589 148.798 34.8082 148.368C34.2575 147.937 33.8706 147.331 33.7116 146.65C31.8259 130.706 28.4915 100.42 27.6713 84.3617C29.2504 84.3617 72.2528 79.9388 72.3371 79.9311C65.4076 142.587 66.8411 143.484 62.8934 144.557L62.8858 144.58ZM75.0429 73.9675C74.8436 76.658 75.0889 79.0343 73.3489 79.2183C20.4583 84.8293 30.6531 85.0975 11.3826 80.6057L10.915 76.4894C32.1402 79.3179 20.8722 79.5632 75.0429 73.9675ZM64.4571 68.2569C65.7219 67.0841 64.5568 66.6471 65.101 66.1106C65.6453 65.574 67.7379 68.0729 68.1135 64.0333C68.1518 64.1406 68.7574 64.2402 68.3665 65.482C68.3025 65.7705 68.1697 66.0392 67.9794 66.2652C67.7891 66.4912 67.5469 66.6678 67.2736 66.78C67.0003 66.8922 66.7038 66.9366 66.4096 66.9095C66.1154 66.8824 65.8321 66.7845 65.584 66.6242C65.9519 67.3907 65.4843 68.1572 64.8787 68.7091C62.7325 70.7098 60.7088 67.1761 57.9263 63.7037C59.8963 64.2249 62.3952 70.1809 64.4571 68.2569ZM64.3498 63.5427C64.486 63.5744 64.6276 63.5744 64.7638 63.5427C61.6286 66.4325 58.4246 67.2297 64.3498 63.5427ZM71.103 63.0368C73.1496 65.0298 73.0806 67.3753 72.981 70.5488C72.8737 74.2128 73.4715 73.5383 70.4974 73.8449C70.2981 64.1176 67.4313 63.6117 68.4814 64.0179C68.7935 64.2535 69.1652 64.3968 69.5546 64.4319C69.9208 64.3763 70.2628 64.2145 70.538 63.9666C70.8132 63.7186 71.0097 63.3953 71.103 63.0368ZM70.0605 61.6034C70.6201 62.2856 70.827 63.0291 70.1678 63.6423C69.1023 64.7078 68.5964 63.1364 68.1288 64.0103C67.4773 63.581 64.5415 63.558 64.7868 63.558C67.7072 61.657 68.4201 59.0815 67.9065 59.8634C63.9896 64.4625 65.1624 63.3971 60.0113 63.5964C62.6295 62.3121 64.8361 60.3207 66.3811 57.8474C67.2243 56.5749 61.4217 63.673 58.3019 63.673C57.957 63.3511 50.8512 54.4746 50.5446 54.0147C48.9952 51.6329 48.3507 48.7747 48.7279 45.9585C48.7279 45.8128 48.7279 45.8435 47.8541 44.847L50.2917 42.8157C50.9049 43.5822 50.9969 43.7202 51.1272 43.7432C54.4233 44.3641 57.2594 46.0428 58.4475 47.3689C64.7254 54.7353 64.2578 54.0147 64.2195 54.191C64.0662 54.8732 62.4412 56.5596 63.453 56.9812C61.7803 58.8593 59.8252 60.4653 57.658 61.7413C56.1786 62.4466 61.1917 61.2354 63.7289 57.0349C67.4083 57.1115 63.0851 53.1715 70.0605 61.6034ZM70.3211 55.0035C66.7414 54.7353 67.094 53.4245 67.002 54.0301C66.7721 54.9806 64.3345 56.5366 63.7213 56.437C64.6258 53.2635 66.0209 55.8084 61.4217 50.0441C61.7317 49.9354 62.0631 49.9024 62.3884 49.9477C62.7138 49.993 63.0236 50.1154 63.292 50.3047C68.0138 52.8496 62.8091 50.7493 77.8561 43.5286C87.0085 39.1364 84.3639 41.6506 86.2879 39.2437C87.5612 39.1884 88.8305 39.4201 90.0021 39.9216C91.1737 40.4232 92.2176 41.1817 93.0564 42.1412C90.4885 46.2114 90.0899 48.7333 89.814 52.7346C86.1576 54.8656 74.8513 55.3332 70.3058 55.0035H70.3211ZM116.995 30.4746C108.74 42.9843 109.613 53.0336 108.694 53.1869C108.755 51.8301 110.073 39.6193 116.497 30.7122C114.805 31.5902 113.025 32.2841 111.185 32.7818C108.119 37.5037 105.221 44.3334 104.485 53.7694L99.0583 54.536C98.7824 54.536 98.8054 67.9043 99.3113 75.9528C79.6651 73.8295 89.2237 64.9378 90.2892 53.9457C91.324 55.7777 95.471 55.6321 96.7051 53.6774C98.3225 51.1096 99.1503 44.7474 98.7747 44.5481C96.9298 43.5325 94.7922 43.1807 92.7191 43.5516C93.5529 41.9392 94.5222 40.4006 95.6166 38.9524C95.6933 38.8527 95.7776 37.8486 93.1714 41.8959C92.3359 40.9572 91.3092 40.2083 90.1603 39.6992C89.0113 39.1902 87.7668 38.933 86.5102 38.9447C89.6147 35.1121 94.3518 30.3673 99.0124 28.6042C103.443 33.855 112.956 35.3114 123.25 25.3235C123.718 25.4998 121.165 28.2056 116.98 30.4592L116.995 30.4746ZM99.135 54.7736C100.492 54.7199 101.182 55.2182 101.289 55.5861C101.619 56.7819 101.289 59.6641 101.396 66.3942C101.734 85.0439 103.014 82.315 99.9552 81.4795C99.1886 70.9474 99.6792 72.4958 99.135 54.7736ZM103.956 140.985C104.133 143.515 94.6891 145.738 94.5358 144.818C94.3825 143.898 97.3796 141.277 98.0925 140.663C98.1767 140.933 98.2952 141.191 98.4451 141.43C99.2116 142.465 99.0737 140.947 98.3991 140.395L98.9587 139.927C99.181 140.778 100.262 142.488 100.001 141.039C99.7405 139.59 98.7211 140.104 99.7559 139.291C100.522 140.893 102.477 141.016 103.803 139.445C103.88 140.065 103.933 140.602 103.956 140.985ZM103.573 137.597C103.811 139.391 103.91 139.13 103.359 139.498C102.086 140.326 100.921 140.464 99.9245 139.176C100.116 138.992 100.001 138.77 99.8709 138.187C101.124 138.143 102.368 137.945 103.573 137.597ZM102.201 82.407C101.81 66.5935 101.573 57.6864 101.665 55.5784C101.665 55.4788 101.856 55.5784 101.872 55.6628C102.224 58.039 102.998 67.6513 104.409 84.3463C103.707 83.664 102.971 83.0192 102.201 82.4147V82.407ZM116.581 143.729C116.623 143.924 116.69 144.112 116.781 144.289C117.424 145.661 117.639 144.166 116.888 143.523C117.854 142.794 117.141 143.055 117.999 144.358C118.689 145.4 118.551 143.676 117.723 142.909C118.865 142.074 117.884 142.802 119.44 143.492C122.062 144.642 122.223 140.978 122.269 144.258C122.307 146.274 106.179 151.709 116.581 143.706V143.729ZM118.383 141.254C122.752 141.008 121.932 139.322 122.215 142.526C121.111 143.523 119.77 143.423 118.513 142.319C118.59 142.135 118.513 141.989 118.352 141.231L118.383 141.254ZM104.692 84.5303C104.692 84.5303 102.661 56.6899 102.615 56.1687C104.263 56.092 107.138 55.6628 108.747 55.4021C108.694 59.5031 108.333 58.7442 112.358 57.8627C112.02 53.9457 112.043 54.8502 115.93 53.9227C113.373 56.8852 111.113 60.092 109.184 63.4967C109.077 63.3971 108.333 62.7762 108.211 62.9371C101.879 71.6679 105.911 81.2266 112.434 79.9158C112.687 79.8621 115.117 86.14 112.879 79.7395C116.926 77.9075 117.018 71.9745 114.236 68.6248C114.435 67.705 113.929 66.6088 113.469 65.758C113.898 65.6353 114.673 65.3977 116.236 65.0451C115.217 72.4344 118.712 76.865 124.775 79.8928C128.907 73.9139 128.784 68.1265 123.702 62.8068C125.801 61.9581 127.794 60.8701 129.643 59.5644C128.646 64.3169 126.929 71.3843 132.456 74.0212C135.974 75.6922 136.289 72.833 136.611 76.3208C136.611 76.3974 136.933 76.9646 136.649 74.4581C142.482 72.3271 139.868 60.6605 130.586 58.8669C132.896 57.0758 134.738 54.7505 135.951 52.0907C139.454 58.223 141.777 69.0847 142.72 76.3974C130.011 85.0592 106.44 85.6571 104.692 84.538V84.5303Z" fill="black"/>
<path d="M108.717 20.1649C107.743 21.698 107 21.4144 106.241 21.2994C105.482 21.1844 107.82 22.9781 108.74 20.7322C109.062 19.9503 108.755 20.0729 108.717 20.1649Z" fill="black"/>
</svg>
