<svg width="154" height="154" viewBox="0 0 154 154" fill="none" xmlns="http://www.w3.org/2000/svg">
<path d="M38.996 107.098C39.0206 106.821 22.0284 112.338 10.4137 105.813C-2.74952 98.4187 6.65758 75.0067 14.3568 63.172C17.2597 58.7114 17.571 58.9958 17.2912 58.808C15.5841 57.6628 15.3434 57.5049 18.2371 54.8909C19.6797 53.5878 20.3773 53.1624 20.4195 52.5552C20.6816 48.7884 21.8238 43.4333 25.1552 41.6526C26.9045 40.7197 27.2402 41.2824 27.0716 40.8263C25.5967 36.7559 26.0498 38.0498 24.3618 33.137C24.1457 32.5069 22.0024 33.8783 21.4313 30.3974C20.9714 27.5864 31.0898 23.9859 32.3638 26.5355C33.2346 28.2786 33.253 29.1801 31.6517 30.1881C31.5061 30.2793 31.6824 30.1766 39.2498 51.6515C41.6613 58.4945 43.5156 61.8466 39.5755 63.6181C39.1025 63.8235 38.5848 63.9045 38.0716 63.8534C34.9578 63.8189 34.1698 59.9777 31.2937 52.2908C31.004 51.5158 31.3022 52.0424 29.4295 53.692C27.2065 55.6521 27.3307 55.2842 26.8316 59.0004C26.4077 62.1555 26.7251 61.9133 25.2257 61.7998C24.8792 61.7738 25.2004 61.7998 24.5504 64.7718C24.4737 65.1221 24.7627 65.0239 25.4794 65.615C26.0651 66.0964 25.8696 66.2811 26.016 68.6474C26.049 69.1756 26.1165 69.0453 26.2337 70.7455C26.5496 75.3287 26.2161 75.2681 26.8316 74.8772C31.2592 72.0409 44.1978 65.0163 58.76 62.6254C65.6689 61.4917 65.5991 62.4246 65.6674 61.4756C65.7118 60.8623 65.8138 60.4024 65.8207 59.9425C65.8039 59.684 65.8075 59.4247 65.8314 59.1667C65.9732 58.3389 58.3108 56.5344 56.1675 41.3682C54.7778 31.5372 57.9053 28.7485 56.5991 29.341C54.2304 30.4142 52.8077 29.0007 52.4597 29.5013C52.2803 29.758 52.6498 29.8723 52.9457 30.264C54.4175 32.2087 52.5908 34.3167 50.3739 35.1891C49.8795 35.3838 49.6526 34.874 49.7944 34.687C50.2835 34.0431 50.587 33.8606 50.7074 33.4091C50.8607 32.8426 51.0086 32.3843 50.5456 32.1213C48.9359 31.2015 48.1279 30.8711 47.5722 29.9267C47.4378 29.728 47.3528 29.5 47.3242 29.2619C47.2956 29.0237 47.3243 28.7822 47.4078 28.5572C47.4913 28.3324 47.6272 28.1307 47.8044 27.9689C47.9814 27.8071 48.1946 27.6899 48.4261 27.627C50.8737 26.6849 50.5226 27.2116 48.7473 25.9874C47.1812 24.9073 47.6964 22.61 49.8465 21.9868C51.7698 21.4287 52.2412 22.0634 52.1684 20.8247C52.0626 19.0133 54.383 17.9394 57.2346 19.7086C57.7205 20.0098 57.1579 18.2276 56.2764 17.215C55.5481 16.3802 58.5063 15.8827 60.2494 16.8547C60.7009 17.1069 60.8703 17.5093 60.9677 17.1215C61.5579 14.7582 64.3566 13.0112 64.7099 13.3232C64.9207 13.5103 64.8426 13.7211 64.7391 14.0844C64.5812 14.6409 64.5467 16.1495 64.7674 15.9448C64.8065 15.9088 64.828 15.8567 64.864 15.816C66.1173 14.3711 68.0759 13.3355 69.8581 14.0438C70.9788 14.4891 71.3421 15.3776 71.8511 15.616C73.3237 16.302 73.8442 13.4114 76.1208 13.9388C79.0007 14.6064 78.3116 17.3974 78.7531 17.1935C79.1479 17.0119 79.5465 16.8417 79.9298 16.6385C83.5709 14.7137 90.0023 22.4513 88.3113 28.507C87.3017 32.1236 85.5969 31.9419 86.286 32.5751C87.4688 33.6621 87.2419 35.3861 86.2201 36.5451C85.8108 37.0096 87.4029 36.8517 87.8352 39.438C88.2354 41.832 86.703 44.5739 84.2846 45.0185C83.5824 45.1465 83.0895 44.8223 83.075 45.1021C82.6212 53.8407 80.2249 54.454 80.691 55.1309C81.5809 56.5103 82.3812 57.9456 83.0864 59.4281C83.288 59.8114 83.2926 59.5814 84.3129 59.5247C94.84 58.9161 108.895 62.4629 118.42 70.8191C127.79 79.0395 134.517 91.3197 138.12 104.525C140.42 112.972 141.56 121.764 140.589 128.863C139.049 140.126 136.028 144.658 123.372 146.511C118.006 147.296 108.397 147.111 100.662 145.219C98.5823 144.71 97.5857 140.047 96.8767 139.982C95.5682 139.862 95.4141 139.658 95.4463 140.045C95.523 140.923 95.7131 141.571 94.784 141.435C94.7694 141.419 88.0637 139.31 86.2554 139.069C83.5724 138.712 75.3865 139.519 73.2554 135.51C72.8676 134.78 73.4394 134.743 73.0676 134.463C72.6333 134.134 72.2782 133.711 72.0282 133.227C71.6718 132.569 72.1156 132.236 72.2674 131.987C71.5775 131.843 67.0441 131.974 63.7893 131.949C62.4801 131.939 62.8311 130.119 62.8848 129.032C62.9178 128.357 63.2903 128.657 63.2888 128.064C63.2888 126.341 63.242 115.45 63.5256 113.78C63.6061 113.307 62.5521 113.896 63.1155 110.498C63.2129 109.907 63.9066 109.974 65.9104 109.817C66.1656 109.797 65.8797 102.806 65.987 100.379C65.997 100.149 65.9832 100.131 65.757 100.079C64.9974 99.905 64.24 99.2213 64.4248 98.6931C64.5014 98.4693 64.0323 97.4766 65.9648 97.055C67.0165 96.825 72.0129 96.7484 73.1175 97.2282C74.14 97.6751 74.2819 99.291 72.7051 99.9027C72.3747 100.031 72.2658 99.8698 72.2988 100.472C72.4214 102.709 72.3264 103.19 72.4521 109.633C72.4613 110.112 72.423 109.927 75.8096 109.973C77.266 109.992 77.286 110.185 77.276 109.839C77 100.066 77.378 100.228 76.859 100.071C75.0139 99.5141 75.0591 97.321 77.2285 97.0519C79.2154 96.8519 81.2161 96.8266 83.2076 96.9753C84.8173 97.1171 85.1531 97.7986 85.0312 98.7C84.9246 99.4842 84.3413 99.7303 83.6713 99.9786C83.4467 100.061 83.4728 100.011 83.4927 100.564C83.6322 104.451 83.541 107.709 83.646 109.952C83.6637 110.329 86.5375 109.997 87.977 110.199C88.5696 110.283 88.1978 110.408 88.1572 100.482C88.1572 99.9917 87.6674 100.307 86.9759 99.6789C86.378 99.1362 86.2278 97.423 88.1357 97.1493C89.5055 96.9515 94.5379 96.717 95.6011 97.5027C96.3163 98.0308 96.3677 99.4696 94.8974 99.9932C94.5142 100.129 94.4115 99.9832 94.4689 100.576C94.5264 101.168 94.6177 109.492 94.6223 109.862C94.633 110.651 94.9235 110.092 97.6532 110.374C98.4029 110.45 98.2113 112.407 98.2082 113.369C98.2082 114.141 97.6218 113.812 97.6386 114.157C97.9453 120.652 97.4439 127.101 98.0871 126.844C99.4055 126.317 102.203 125.004 108.052 122.565C109.252 122.064 109.355 122.144 109.178 121.867C108.753 121.191 105.445 112.4 103.855 98.0852C102.992 90.3201 103.5 81.2503 104.845 78.2377C104.953 77.9955 105.357 78.0016 105.325 78.355C104.485 85.3498 104.503 92.4204 105.378 99.4106C106.423 107.045 108.61 118.57 110.274 121.505C110.407 121.739 110.322 121.617 112.613 120.81C124.513 116.614 126.104 117.411 125.095 117.808C124.616 117.996 102.842 125.729 98.534 127.964C95.49 129.542 95.6732 128.061 97.3918 131.079C100.079 135.8 101.378 142.64 101.333 143.964C101.31 144.674 122.844 147.391 131.187 142.876C133.42 141.668 136.037 140.239 137.774 135.497C140.145 129.026 140.419 118.357 137.538 106.986C132.989 89.0292 125.33 79.2373 118.514 72.6787C107.425 62.0099 89.3361 59.5638 84.2432 60.6439C83.7947 60.7389 84.1205 60.8225 84.2171 61.5883C85.3156 70.3062 84.4846 85.2486 82.9278 93.118C82.8373 93.5741 82.3644 93.3633 82.3529 93.0835C82.346 92.908 84.7974 71.1127 83.3494 61.4832C83.2628 60.906 82.4579 60.6646 80.0915 55.9081C79.8179 55.3585 78.6742 58.9237 73.2562 59.77C68.5036 60.5128 66.7482 58.7405 66.7405 59.3415C66.6899 66.0458 66.1541 63.7055 67.2771 70.1039C70.4138 87.9223 73.8495 93.1004 73.1029 93.5986C71.8672 94.4204 65.1392 70.652 65.5907 63.2111C65.6267 62.6155 56.4289 63.8036 50.0389 65.7407C38.7132 69.1694 35.1533 71.6508 28.5334 75.2076C27.208 75.9197 26.7167 76.0584 26.5588 76.3122C26.3901 76.5805 27.3606 90.5815 25.8282 92.4549C25.5316 92.8183 25.2725 92.5086 25.2702 92.2947C25.2588 91.9873 25.2726 91.68 25.3116 91.3749C26.1793 86.1232 25.1498 71.8432 25.2035 68.3784C25.2181 67.4148 25.4335 67.1565 24.9498 67.3167C21.7992 68.35 17.6775 66.7908 15.0467 64.7702C14.6473 64.4636 14.6803 64.3241 14.4335 64.7641C8.0757 76.2025 1.48184 92.2932 7.34211 101.246C12.5623 109.222 29.8519 108.612 39.0681 105.399C39.5326 105.237 44.6478 82.8577 46.6362 83.3131C47.5377 83.5193 41.9043 94.602 38.6066 117.244C36.7477 130.005 36.619 143.661 35.7459 147.134C35.737 147.222 35.6939 147.302 35.626 147.358C35.5582 147.413 35.4711 147.44 35.3838 147.431C35.2965 147.423 35.2161 147.381 35.1601 147.312C35.1042 147.245 35.0772 147.158 35.0851 147.071C34.5293 141.854 36.1583 123.314 37.7902 113.568C37.6699 113.727 38.9891 107.175 38.996 107.098ZM86.9583 23.526C86.3221 21.775 85.3278 20.1762 84.0385 18.8316C82.2754 17.1376 81.8101 16.9007 79.66 17.8528C78.8321 18.2199 77.8639 19.0723 77.7582 17.9754C77.6217 16.5619 77.6386 15.9372 76.7011 15.1545C74.9334 13.6789 73.5812 18.0352 71.1099 16.1135C70.2214 15.4236 70.1709 14.8533 68.6339 14.7206C67.3392 14.6095 65.603 16.2315 64.8541 17.1736C64.1504 18.0559 63.7939 16.8003 63.7771 15.6781C63.761 14.6141 64.1174 14.1105 63.669 14.5374C60.7561 17.3123 62.1826 20.7902 60.5943 18.7972C60.1083 18.1839 59.4614 16.8409 57.4852 17.1506C57.361 17.1705 57.3089 17.1836 57.4086 17.3108C58.7523 18.9788 58.4472 21.687 57.348 20.8017C55.877 19.6166 53.0316 19.1436 53.0622 20.7557C53.1136 23.4386 51.6272 22.2735 49.6196 23.1856C49.4256 23.2612 49.2562 23.3888 49.1299 23.5543C49.0036 23.7198 48.9253 23.9169 48.9036 24.1239C48.8819 24.331 48.9177 24.54 49.0069 24.7281C49.0962 24.9161 49.2355 25.076 49.4096 25.1902C49.7553 25.4048 50.0857 25.6432 50.4314 25.8578C51.1167 26.2833 51.7346 27.3028 50.738 27.8102C49.3582 28.5139 47.9118 28.5346 48.3717 29.3387C49.2126 30.7998 51.8273 30.8979 51.7614 32.5629C51.7353 33.2221 51.4847 33.9472 52.3746 32.5169C53.4401 30.8052 50.8331 30.5928 51.6502 29.1578C52.4743 27.7091 55.1725 29.8293 56.9111 27.9873C57.2943 27.5856 57.2529 27.7014 57.0268 27.2974C56.6767 26.6022 56.5798 25.8066 56.7524 25.0476C57.2269 22.8123 58.1843 23.1673 58.0233 23.4034C57.6228 24.2815 57.4926 25.2589 57.6493 26.2112C57.7361 26.7403 58.0284 27.2136 58.4626 27.5282C59.581 28.1659 61.0259 28.7999 61.5778 30.5652C62.1964 32.5452 60.1674 33.4122 60.3115 33.6138C60.8309 33.6112 61.3421 33.4839 61.8021 33.2427C62.2622 33.0016 62.6577 32.6535 62.9553 32.2279C63.3138 31.8083 63.5445 31.2946 63.6198 30.7479C63.6953 30.2012 63.6122 29.6443 63.3807 29.1433C63.0542 28.4741 61.7212 28.4013 61.4958 26.4695C61.4759 26.2994 61.7871 26.1967 62.0063 26.5201C62.3854 27.1353 62.9371 27.6252 63.5929 27.9288C64.2486 28.2324 64.9792 28.3362 65.6934 28.2272C69.8412 27.6347 69.9547 24.1208 70.3058 23.5919C71.1827 22.2735 70.7205 25.0284 72.6445 26.7026C73.8786 27.7758 76.1446 24.7862 77.4883 23.3988C77.9283 22.9434 78.2817 22.9618 78.2166 23.7943C77.5159 32.6709 78.6259 34.4125 81.8853 37.8444C82.0485 38.0169 82.0815 37.7179 82.6786 37.2311C84.1619 36.0131 85.0235 36.6624 85.2543 36.3573C87.9862 32.7484 83.9879 33.5463 85.3884 31.666C87.1913 29.2376 88.1012 27.0475 86.9583 23.526ZM96.892 114.229C96.905 113.977 96.856 114.075 94.843 114.066C94.2804 114.066 94.9963 115.664 94.6131 124.337C94.4598 127.827 91.7446 128.315 90.108 127.403C87.7785 126.108 88.7421 121.722 88.2921 114.546C88.263 114.08 88.2622 113.982 88.0238 113.983C83.6361 114.003 83.646 113.854 83.6445 114.19C83.597 123.765 84.132 126.341 82.1459 127.298C80.1789 128.24 78.5262 127.408 77.9299 125.909C77.2101 124.097 77.4991 117.376 77.2637 114.228C77.2193 113.637 77.2982 113.901 72.6966 113.745C72.4529 113.737 72.4506 113.745 72.4444 113.992C72.3816 116.43 72.7764 124.257 72.1255 125.916C71.9154 126.422 71.567 126.858 71.1203 127.174C70.6736 127.491 70.1468 127.676 69.6002 127.706C69.0536 127.737 68.5094 127.614 68.0298 127.349C67.5503 127.085 67.155 126.691 66.8892 126.212C65.6865 123.785 66.5635 113.736 65.8598 113.737C64.0699 113.737 64.0906 113.649 64.0967 113.976C64.1672 116.275 64.0201 124.414 64.0806 127.968C64.0852 128.284 70.1141 128.016 75.2354 128.212C75.8349 128.235 75.4302 127.706 76.2565 127.644C77.3956 127.56 77.1273 128.228 78.2694 128.228C79.0843 128.188 79.9014 128.205 80.714 128.279C81.0973 128.333 80.901 127.469 81.8638 127.695C83.229 128.014 82.4426 128.344 83.9864 128.366C84.0094 128.366 94.0404 128.668 94.6506 128.392C97.0315 127.315 96.9748 127.489 96.8736 127.054C96.8414 126.858 96.9219 113.664 96.892 114.229ZM57.1134 41.3015C57.2951 42.5203 57.4676 42.0788 57.7504 42.0014C61.9427 40.8577 62.8388 40.2445 63.0718 40.8792C63.4152 41.8151 62.8327 41.3491 63.1799 41.9293C63.4727 41.6518 63.5632 41.3866 63.8951 41.1835C65.0748 40.4629 65.9939 41.5537 65.8115 40.9037C65.7555 40.7059 65.4366 40.6024 65.6582 40.2996C66.1112 39.678 67.9578 39.2901 72.9281 38.2775C73.5414 38.1525 73.6893 38.3411 73.9722 38.8631C74.2021 39.2916 74.0902 39.1697 74.6352 38.9873C78.9931 37.5309 80.737 37.9371 80.461 37.6389C77.5014 34.4118 77.0016 32.6564 76.872 28.5063C76.7954 26.0342 77.1112 25.9506 76.977 25.6087C76.3945 25.9767 73.7989 29.8845 71.4656 26.7831C71.2578 26.5071 71.1827 26.3231 70.7619 25.6118C69.5285 28.0157 67.9716 29.456 64.5996 29.3341C64.5835 29.3322 64.5672 29.3335 64.5517 29.338C64.5362 29.3425 64.5218 29.3502 64.5093 29.3605C64.4968 29.3709 64.4867 29.3837 64.4794 29.3982C64.4721 29.4126 64.4679 29.4284 64.4669 29.4445C64.6272 30.1064 64.6075 30.799 64.4098 31.4507C64.2123 32.1024 63.844 32.6893 63.3432 33.1508C62.7949 33.6226 62.1493 33.9677 61.4523 34.1614C60.7554 34.3551 60.0243 34.3927 59.3111 34.2715C57.8946 33.7625 61.863 32.7714 60.6196 30.3115C60.1398 29.4503 59.3454 28.8081 58.4028 28.5193C58.2326 28.458 58.2058 28.4342 58.1345 28.6144C55.7674 34.6049 57.1142 41.3782 57.1134 41.3015ZM74.4022 42.7917C73.2363 45.1588 67.6788 46.3998 66.4477 43.2064C66.1534 42.4399 64.6846 40.9573 64.0093 41.9332C63.0435 43.3313 64.0668 46.9157 58.7968 47.4899C58.6005 47.5113 58.5729 47.4002 59.3188 49.3718C60.2502 51.8316 59.4039 50.3744 62.4433 50.287C64.2531 50.2341 64.9284 50.7385 68.568 49.8417C72.4115 48.8942 77.9084 44.2366 81.9826 47.7076C82.0531 46.9127 82.1283 46.7011 82.1712 46.1454C82.2839 44.672 82.0593 43.4977 82.9124 43.779C86.0637 44.8185 87.7731 40.3909 86.2914 38.2169C85.4214 36.9399 83.6453 37.1936 82.5606 38.5389C82.3897 38.7509 82.1988 38.9455 81.9895 39.1199C81.9497 39.1576 81.8983 39.1819 81.8439 39.1895C81.7894 39.1972 81.7343 39.1878 81.6852 39.1625C81.6361 39.1374 81.5963 39.0976 81.5702 39.0489C81.5449 39 81.535 38.9445 81.5426 38.89C81.5372 38.7297 81.7289 38.5151 81.4767 38.3909C80.9401 38.1272 81.1701 37.9709 80.3729 38.2668C78.4565 38.8795 76.5105 39.3935 74.5417 39.8068C74.2106 39.8895 75.0492 41.4794 74.4022 42.7909V42.7917ZM40.5452 61.701C42.0339 59.6044 39.3042 56.7322 30.9158 30.579C30.7955 30.2057 30.2497 30.3414 30.6636 29.9489C31.2462 29.3955 33.0622 29.0812 31.7843 26.7662C30.8729 25.112 21.6168 28.5001 22.0254 30.2946C22.0693 30.6508 22.1875 30.9937 22.3724 31.3013C22.5573 31.6088 22.8047 31.8741 23.0985 32.0799C23.7003 32.3536 24.1572 32.0278 24.8953 32.0355C25.2342 32.0355 25.4089 32.1658 25.0931 32.4187C24.7497 32.6947 25.0034 32.7407 26.0697 35.5524C28.2352 41.2563 28.0106 41.1114 28.4245 41.1973C29.8856 41.5039 34.8421 42.9833 33.5351 44.3294C33.1365 44.7403 32.8023 44.6222 32.5815 44.8093C33.46 45.2462 34.4688 45.6525 34.2963 46.7632C34.1875 47.4615 33.4454 47.5336 33.2147 47.6156C33.598 48.0847 34.458 48.6006 34.0671 49.2859C33.601 50.1031 31.7928 49.5381 31.5958 49.5642C31.7774 49.8409 33.6363 50.875 32.2519 51.6339C31.979 51.7872 32.0679 51.6982 34.9962 59.698C35.4645 60.9758 35.9605 62.6484 38.139 62.8676C38.5971 62.8409 39.0454 62.7241 39.4583 62.5238C39.8711 62.3236 40.2405 62.0441 40.5452 61.701ZM60.4226 51.7212C66.0867 61.6764 75.3949 59.9501 78.4864 56.2109C80.2617 54.0646 80.6159 52.9148 81.5955 49.7888C82.221 47.7957 79.568 47.0821 77.1955 47.4355C73.2585 48.0211 70.226 51.2176 64.5543 51.2368C63.6398 51.2398 59.9443 50.875 60.4226 51.7212ZM92.8017 130.599C92.617 129.978 88.565 132.957 86.8648 132.26C85.3102 131.622 82.8327 128.868 81.8408 128.427C81.7933 128.405 81.6154 128.499 81.7281 128.705C82.6564 130.4 84.7177 132.483 83.3647 132.461C81.8147 132.436 78.7025 130.18 77.5535 129.123C76.3508 128.015 76.0288 128.376 76.2611 128.804C77.8271 131.686 79.814 132.68 79.5044 133.086C78.9126 133.862 74.5394 131.067 73.8802 130.786C73.4892 130.618 73.4134 131.17 73.6219 131.45C75.02 133.355 77.5274 134.165 77.9038 134.739C78.5078 135.659 75.7168 134.571 73.4724 132.599C73.1658 132.327 72.4513 132.658 72.7411 133.108C74.5524 135.923 79.6546 135.652 78.087 136.464C77.6961 136.466 77.3067 136.423 76.9257 136.338C75.0714 135.931 73.5966 134.703 73.8342 135.217C75.3267 138.446 85.0825 137.977 86.1871 138.21C92.8615 139.623 93.9385 140.376 94.4153 140.321C94.5425 140.3 94.4391 136.085 92.8017 130.596V130.599ZM27.3974 41.9224C23.0901 41.8757 21.8123 48.458 21.1745 52.3904C20.9974 53.4797 20.5613 53.6752 19.6176 54.6502C16.7661 57.6007 16.7914 57.4796 16.9884 57.6252C19.275 59.3116 25.5975 61.3169 25.6826 60.7159C26.6653 53.7702 26.8439 55.1638 30.1922 51.85C30.2216 51.8095 30.2355 51.7596 30.2313 51.7097C30.2313 51.6737 27.8734 51.2291 27.4204 51.1732C27.2778 51.1555 27.1904 51.1885 27.1781 51.2651C27.0758 52.2158 26.8001 53.1397 26.3648 53.991C25.3921 55.8115 23.9831 56.5145 23.7762 56.2286C23.6351 56.0338 23.7386 55.7387 24.0245 55.4789C25.3683 54.2578 26.5603 52.2157 26.1532 50.8182C25.6619 49.1318 31.1634 51.7603 31.7491 50.8328C32.0304 50.3897 28.7158 48.967 27.0248 48.5523C26.6377 48.4565 25.9792 48.3047 26.0153 47.9613C26.1103 47.056 28.817 48.3653 32.9357 49.0383C32.9986 49.0558 33.0655 49.0516 33.1258 49.0263C33.186 49.001 33.2359 48.9562 33.2676 48.8991C33.2992 48.8419 33.3107 48.7758 33.3001 48.7114C33.2895 48.6469 33.2576 48.588 33.2093 48.5439C31.6302 47.0008 26.3732 46.8421 26.5687 45.8893C26.7903 44.8077 33.2515 47.3312 33.4232 46.593C33.644 45.6456 30.1362 44.7533 29.185 44.5479C27.3989 44.1646 26.5787 44.1899 26.8853 43.5789C27.2249 42.9082 32.7716 45.0124 32.941 43.7805C33.0215 43.2125 29.3705 41.9439 27.3974 41.9224ZM97.1005 113.135C97.5129 113.135 97.1258 113.117 97.2822 111.697C97.2822 111.483 97.2561 111.271 97.2055 111.063C97.1158 111.048 63.6046 110.441 63.6306 110.969C63.7656 113.728 63.1661 113.115 66.7099 113.135H97.1005ZM93.8664 100.417C93.8818 100.338 93.8772 100.256 93.8534 100.179C93.8296 100.102 93.7875 100.032 93.7308 99.9748C93.1589 99.4428 94.6606 99.4911 95.1772 99.0687C95.6165 98.71 95.4839 97.9534 95.1481 98.1918C93.4755 99.3669 87.767 99.0948 87.6535 98.0722C87.6152 97.7288 86.9238 98.1719 87.2327 98.8211C87.5416 99.4704 88.0905 99.3715 88.9122 99.6053C88.9735 99.6245 89.028 99.6628 89.0663 99.7149C89.1046 99.7663 89.1261 99.8291 89.1269 99.8935C89.1276 99.9587 89.1085 100.022 89.0709 100.074C89.0341 100.127 88.9812 100.167 88.9199 100.188C88.5995 100.275 88.749 100.495 88.7911 101.414C89.0533 107.24 88.8601 106.368 89.0249 110.022C89.0364 110.286 89.0119 110.293 93.5414 110.297C94.022 110.3 93.6725 110.286 93.8664 100.416V100.417ZM77.9467 109.482C77.9582 110.296 78.0924 109.991 79.2307 109.991C80.057 110.054 80.8865 110.076 81.7151 110.055C82.6219 110.055 82.7821 110.124 82.7676 109.87C82.7676 109.854 82.7246 103.417 82.8358 100.325C82.8519 99.8767 82.3398 99.6161 82.9078 99.4236C83.2911 99.3478 83.6667 99.2343 84.0285 99.0864C84.723 98.7759 84.4118 97.7786 84.178 98.0592C83.3049 99.1117 78.9892 98.9361 77.4423 98.5904C76.3791 98.3535 76.7816 97.6544 76.3883 97.9135C75.9238 98.2202 76.0518 99.0887 77.0238 99.337C77.4147 99.4367 78.0824 99.4022 78.097 99.7916C78.1138 100.299 77.6248 99.9081 77.6991 100.476C77.9061 102.059 77.9237 107.872 77.9467 109.482V109.482ZM66.7145 106.855C66.7451 106.855 66.7275 106.855 66.7321 107.058C66.8302 111.034 65.9656 109.613 71.1014 109.958C71.8312 110.008 71.6288 111.145 71.638 100.312C71.6522 100.166 71.6094 100.019 71.5184 99.9035C70.8891 99.1369 73.789 99.5302 73.1957 98.1604C73.004 97.7188 73.1788 98.5942 70.1716 98.8311C69.3238 98.8978 65.7256 98.9308 65.4865 98.0592C65.3577 97.5809 64.8663 98.0937 64.9598 98.5191C65.1315 99.3056 65.8582 99.3301 66.6907 99.5103C66.7554 99.5363 66.8104 99.5816 66.8484 99.6398C66.8864 99.6988 66.9054 99.7671 66.9029 99.8368C66.9004 99.9066 66.8764 99.974 66.8344 100.029C66.7923 100.084 66.7341 100.126 66.6677 100.147C66.2936 100.265 66.7145 100.15 66.7145 106.854V106.855ZM23.1146 66.8767C23.5385 66.8767 23.2833 66.7885 23.4044 65.9446C24.4262 58.8195 25.5101 63.5108 18.211 59.3691C18.0209 59.2618 18.0194 59.258 17.8998 59.435C15.174 63.4655 15.0873 63.4863 15.3947 63.7683C17.5701 65.6022 20.2755 66.6914 23.1146 66.8767ZM93.8112 129.928C93.3559 130.121 93.4855 130.116 93.6641 130.733C94.4759 133.338 95.0193 136.019 95.2869 138.734C95.4133 139.395 95.2301 139.049 96.9089 139.177C100.066 139.418 99.9582 140.48 98.5631 136.444C97.7697 134.04 96.7019 131.735 95.3804 129.575C95.2056 129.26 95.004 129.423 93.8112 129.928ZM71.6304 115.887C71.6304 113.712 71.717 113.74 71.3958 113.735C71.3797 113.735 67.6213 113.705 67.1675 113.735C66.9682 113.75 66.9651 113.747 66.9651 113.947C66.9444 125.177 66.5397 126.92 69.9041 126.825C72.2467 126.752 71.6426 123.742 71.6304 115.887ZM73.9078 41.9002C73.8738 41.0701 73.6602 40.2573 73.2815 39.5178C73.188 39.2878 73.0469 39.4273 72.4322 39.563C65.6865 41.0516 66.194 40.7757 66.3412 41.2494C66.6378 42.2038 67.2235 43.7392 68.1755 44.0427C70.1754 44.6743 73.9622 43.9936 73.9078 41.8964V41.9002ZM63.5233 130.01C63.5747 131.101 63.4367 131.171 63.8606 131.167C72.7932 131.076 72.6759 131.597 72.7856 130.843C73.1604 128.205 77.2821 132.411 76.744 131.094C76.2701 130.553 75.894 129.935 75.6325 129.265C75.5122 128.912 75.6325 129.029 70.42 128.959C66.0322 128.901 65.4029 128.793 63.6667 129.035C63.3386 129.035 63.4842 129.169 63.5233 130.01ZM82.8166 114.5C82.8166 113.607 82.6265 114.146 80.9639 113.956C80.08 113.855 79.2008 113.926 78.3147 113.897C78.0012 113.886 78.1353 114.091 78.169 121.403C78.1782 123.396 78.2932 125.082 78.6129 125.696C79.5082 127.42 82.024 127.18 82.589 125.658C82.9408 124.71 82.8182 124.071 82.8166 114.5ZM91.4894 114.059C91.4894 114.043 89.2327 114.031 89.2166 114.039C89.1092 115.803 89.0993 117.572 89.1882 119.338C89.3722 123.471 88.6554 126.1 90.9198 126.85C91.4334 127.035 91.9976 127.019 92.4997 126.806C93.0018 126.592 93.4057 126.198 93.6296 125.7C94.0128 124.682 93.8695 122.287 93.7998 114.298C93.7967 113.962 93.8258 114.059 91.4894 114.059ZM62.5038 42.0029C62.4088 41.5721 62.1075 42.0642 58.4242 42.932C57.1073 43.2424 57.2575 42.8553 58.1598 46.1362C58.2901 46.6122 58.5814 46.6168 58.8711 46.5831C59.6089 46.4691 60.3316 46.2721 61.0251 45.9959C62.8143 45.3221 62.9101 43.8419 62.5038 42.006V42.0029ZM84.1796 129.127C84.2217 129.241 84.1405 129.167 85.2006 130.136C87.4673 132.206 87.0235 132.138 92.6676 129.298C93.1942 129.036 84.2616 129.104 84.1796 129.13V129.127ZM78.9249 129.141C79.8692 130.013 80.9386 130.739 82.0976 131.294C82.9715 131.557 81.5679 130.085 81.2107 129.218C81.1133 128.986 79.1755 129.111 78.9249 129.148V129.141ZM79.3848 97.5333C73.4448 97.8721 82.0677 98.6395 83.4429 97.7357C83.1041 97.577 83.4498 97.643 79.3863 97.5364L79.3848 97.5333ZM88.5205 97.7848C87.8766 98.1765 91.6465 98.5252 94.3018 97.9342C95.5889 97.6514 89.0234 97.4843 88.5221 97.7878L88.5205 97.7848ZM68.1985 97.5333C62.4011 97.8706 70.817 98.6195 72.2612 97.7441C71.9446 97.5839 72.2635 97.643 68.2001 97.5364L68.1985 97.5333Z" fill="black"/>
<path d="M60.182 64.1089C60.9747 64.3189 58.4688 65.2671 54.242 69.2402C52.0558 71.2953 51.5262 71.979 52.2329 72.4275C54.0236 73.5658 62.0087 73.1296 60.796 75.2591C60.1 76.4795 56.3102 79.1685 54.2489 82.1627C53.2455 83.6191 62.7431 105.646 62.2456 106.079C61.2062 106.982 55.828 92.3578 54.9572 89.8627C52.6875 83.36 52.3732 82.6494 53.3222 81.3026C55.1711 78.6795 59.2905 75.6999 59.5174 75.2821C57.7651 74.3806 49.4756 74.8666 50.8516 71.3865C51.776 69.0508 59.2254 63.8544 60.182 64.1089Z" fill="black"/>
<path d="M99.9169 78.3483C100.388 76.1721 93.4173 75.3466 92.0536 74.4129C90.9904 73.6847 96.3601 71.3145 97.7008 67.7753C98.0787 66.7788 96.7886 65.9525 89.7087 62.4264C87.8138 61.4827 88.8172 61.2106 89.2672 61.3578C90.9666 61.9135 98.2964 65.1085 98.859 66.7282C99.7981 69.4288 93.5806 73.8104 93.566 73.8273C94.3525 74.4589 101.663 75.3128 101.114 78.402C100.83 80.0025 98.0756 91.2033 96.6621 94.7149C96.1838 95.9015 95.6763 95.2339 96.1608 93.4325C96.9151 90.6269 99.9169 78.8289 99.9169 78.3483Z" fill="black"/>
<path d="M82.2357 70.6246C82.0824 70.9044 82.1912 71.1106 82.5139 71.8894C83.0091 73.0844 82.6136 75.6991 81.5649 75.4308C80.7072 75.2116 80.4013 75.128 78.2588 73.8318C77.7368 73.516 78.2588 73.6586 78.0419 72.0044C77.6264 68.9014 75.8097 69.3061 81.082 66.5258C83.0865 65.4688 83.3479 68.643 82.2357 70.6246Z" fill="black"/>
<path d="M73.2386 69.8173C73.201 73.6232 73.4931 72.7348 73.7982 73.5925C73.8748 73.8003 73.8503 73.8854 73.664 74.0019C72.6794 74.768 71.5583 75.3403 70.3602 75.6883C69.1659 75.9114 68.45 74.438 68.3771 73.2353C68.3273 72.4189 68.798 71.7689 68.3081 70.9357C67.3829 69.3573 68.1073 67.7415 70.4484 68.4061C73.4739 69.2677 73.2463 69.0607 73.2386 69.8173Z" fill="black"/>
<path d="M74.2175 68.8575C76.2496 68.0212 77.2707 68.4743 77.6555 71.7505C77.7528 72.5845 77.8579 73.5434 76.9878 73.8255C76.2611 74.0934 75.4657 74.1108 74.728 73.8746C73.5659 73.2836 73.6917 72.4473 73.5782 71.0092C73.7997 70.9862 73.0064 69.3573 74.2175 68.8575Z" fill="black"/>
<path d="M81.7412 78.4792C81.151 79.2112 80.8213 79.6758 80.1176 79.2618C78.9272 78.5612 77.3673 74.8335 77.2891 74.5859C77.2017 74.3107 77.519 74.0493 77.7076 74.2271C78.5692 75.042 80.1084 78.9882 80.6397 78.3121C84.2179 73.758 83.131 76.7544 81.7412 78.4792Z" fill="black"/>
<path d="M25.1836 13.7702C25.1895 14.0196 25.1458 14.2676 25.0547 14.4999C24.9637 14.7321 24.8273 14.9439 24.6533 15.1228C24.4795 15.3016 24.2718 15.444 24.0422 15.5415C23.8126 15.6391 23.5658 15.6899 23.3164 15.691C23.067 15.6921 22.8198 15.6434 22.5894 15.5478C22.3591 15.4522 22.15 15.3116 21.9746 15.1342C21.7993 14.9569 21.661 14.7463 21.568 14.5148C21.4749 14.2834 21.429 14.0357 21.4328 13.7863C21.4535 11.1846 25.3438 11.4414 25.1836 13.7702ZM23.2887 14.8633C23.585 14.8487 23.8665 14.7291 24.0826 14.5259C24.2989 14.3226 24.4356 14.049 24.4684 13.7541C24.4463 13.4581 24.3224 13.179 24.1176 12.9642C23.9129 12.7494 23.64 12.6122 23.3454 12.5759C23.0507 12.582 22.7698 12.7015 22.5609 12.9094C22.3521 13.1174 22.2314 13.3979 22.2241 13.6925C22.2169 13.9871 22.3234 14.2733 22.5216 14.4914C22.72 14.7094 22.9947 14.8426 23.2887 14.8633Z" fill="black"/>
<path d="M72.8821 79.1009C72.6522 79.8751 72.6399 80.7038 71.835 80.2691C70.3425 79.4635 69.1789 78.096 69.3721 77.7947C69.622 77.4053 71.8496 79.941 71.9554 79.4344C72.7694 75.5479 75.1051 71.6002 72.8821 79.1009Z" fill="black"/>
<path d="M78.0118 67.201C78.0785 66.7855 81.0137 64.1578 82.2731 62.985C83.4107 61.9302 81.7557 64.9389 78.8941 67.1642C79.0107 67.1098 77.9038 67.8725 78.0118 67.201Z" fill="black"/>
<path d="M27.2487 22.0611C27.2397 22.3878 27.1033 22.6981 26.8686 22.9257C26.634 23.1532 26.3196 23.2801 25.9928 23.279C25.6659 23.278 25.3524 23.1493 25.1192 22.9203C24.8859 22.6913 24.7514 22.3802 24.7444 22.0534C24.7534 21.7266 24.8898 21.4163 25.1244 21.1888C25.3591 20.9612 25.6734 20.8345 26.0003 20.8355C26.3272 20.8365 26.6407 20.9652 26.8739 21.1942C27.1072 21.4232 27.2417 21.7342 27.2487 22.0611ZM26.5726 22.0404C26.5979 21.2348 25.3983 21.2738 25.4335 21.9783C25.4262 22.1291 25.4789 22.2766 25.5801 22.3886C25.6813 22.5006 25.8228 22.5679 25.9736 22.5757C26.1244 22.5835 26.2721 22.5312 26.3844 22.4303C26.4966 22.3294 26.5643 22.188 26.5726 22.0373V22.0404Z" fill="black"/>
<path d="M20.4838 22.3924C20.6451 22.3943 20.8046 22.4279 20.9529 22.4914C21.1013 22.5548 21.2357 22.6469 21.3485 22.7624C21.4613 22.8777 21.5503 23.0142 21.6103 23.164C21.6703 23.3138 21.7002 23.474 21.6984 23.6354C21.6965 23.7967 21.6629 23.9561 21.5994 24.1045C21.5359 24.2529 21.4439 24.3873 21.3284 24.5C21.213 24.6129 21.0765 24.7018 20.9268 24.7618C20.7769 24.8218 20.6168 24.8518 20.4554 24.85C20.1295 24.8462 19.8185 24.7131 19.5907 24.48C19.3629 24.2469 19.237 23.9329 19.2408 23.607C19.2446 23.2811 19.3776 22.97 19.6107 22.7423C19.8438 22.5145 20.1579 22.3887 20.4838 22.3924ZM21.0924 23.6189C21.0964 23.5374 21.0841 23.456 21.0564 23.3794C21.0286 23.3028 20.9857 23.2325 20.9304 23.1726C20.8751 23.1127 20.8084 23.0645 20.7342 23.0306C20.66 22.9968 20.5798 22.9782 20.4983 22.9758C20.2983 22.9758 19.9249 23.2341 19.9288 23.5169C19.9201 23.5944 19.9271 23.6729 19.9492 23.7477C19.9714 23.8225 20.0084 23.8921 20.0579 23.9523C20.1074 24.0126 20.1684 24.0624 20.2375 24.0987C20.3065 24.135 20.3821 24.1571 20.4598 24.1637C20.5376 24.1703 20.6158 24.1613 20.69 24.1372C20.7642 24.113 20.8328 24.0743 20.8917 24.0232C20.9507 23.9721 20.9988 23.9098 21.0333 23.8398C21.0677 23.7698 21.0879 23.6936 21.0924 23.6158V23.6189Z" fill="black"/>
<path d="M68.9283 67.5369C68.6745 67.8067 67.1652 66.9781 66.8931 66.568C66.7244 66.3127 67.0088 65.9824 67.4343 66.2246C68.0061 66.57 68.512 67.0144 68.9283 67.5369Z" fill="black"/>
<path d="M69.0464 33.8899C72.4338 34.0923 73.569 36.618 72.065 37.0327C70.5296 37.3948 68.9548 37.5614 67.3776 37.5287C66.4286 37.2987 66.2991 36.1627 66.6164 35.3824C67.1453 34.0662 68.0874 34.0332 69.0464 33.8899ZM68.0092 36.779C68.0514 36.779 71.3767 36.5115 71.727 36.375C72.9573 35.8967 67.4841 33.0697 67.2043 36.1857C67.1553 36.7484 67.4887 36.779 68.0092 36.779Z" fill="black"/>
<path d="M57.7097 39.6919C57.7787 39.3044 57.9309 38.9366 58.1559 38.6136C58.3809 38.2907 58.6733 38.0204 59.0128 37.8215C62.1557 35.6974 63.3001 39.2373 61.5946 39.9602C59.9381 40.6624 57.6315 40.9651 57.7097 39.6919ZM61.1952 39.232C61.9004 38.9637 61.6068 37.5839 60.4647 37.8737C59.6132 38.1192 58.8721 38.6502 58.3659 39.3776C57.6829 40.2576 61.508 39.232 61.1952 39.232Z" fill="black"/>
<path d="M64.8325 42.3395C65.7439 42.4537 62.6861 49.6355 67.6687 47.6793C69.5437 46.9426 69.3183 47.9215 68.7633 48.3224C68.2825 48.6849 67.7217 48.9269 67.128 49.0277C66.5343 49.1285 65.925 49.0854 65.3514 48.9019C63.639 48.2442 63.7064 46.0542 64.0337 44.4445C64.2461 43.405 64.5036 42.2981 64.8325 42.3395Z" fill="black"/>
<path d="M38.7109 62.0513C37.0467 62.4484 36.1507 60.9827 35.5167 59.2695C32.9518 52.3452 32.9871 52.6772 33.27 52.7339C34.6245 53.0014 34.6551 52.9799 35.0484 53.2329C37.5826 54.8672 37.6071 52.1528 37.9413 53.0282C39.8746 58.089 41.5096 61.3852 38.7109 62.0513Z" fill="black"/>
<path d="M30.6567 27.2462C30.9902 26.886 31.306 27.2784 31.2316 27.5567C30.7518 29.3435 22.3136 32.5837 22.69 30.3124C22.8371 29.4141 25.0249 28.4628 25.4733 28.4129C25.8221 28.3738 25.9087 28.6805 25.6266 28.8445C21.5961 31.1825 24.105 30.557 26.7818 29.5344C29.9239 28.3271 30.6046 27.303 30.6567 27.2462Z" fill="black"/>
<path d="M36.3385 53.1433C35.6057 53.1954 35.2063 52.3606 33.871 52.3905C32.3754 52.4235 32.991 50.4741 36.8214 51.2759C37.7911 51.4783 37.6002 53.1509 36.3385 53.1433Z" fill="black"/>
<path d="M29.0416 36.0286C29.0126 35.8409 29.0245 35.649 29.0762 35.4662C29.128 35.2834 29.2186 35.1139 29.3417 34.9692C29.4648 34.8244 29.6176 34.7079 29.7897 34.6275C29.9619 34.5471 30.1493 34.5047 30.3393 34.5032C31.7092 34.5798 31.8334 36.6334 30.626 37.0382C30.4553 37.0953 30.2739 37.1135 30.0952 37.0916C29.9164 37.0696 29.745 37.008 29.593 36.9112C29.4412 36.8145 29.3129 36.685 29.2175 36.5323C29.1221 36.3796 29.062 36.2075 29.0416 36.0286ZM29.7798 36.0087C29.9384 36.5943 30.7625 36.4556 30.8169 35.7864C30.9051 34.7094 29.467 34.8535 29.7798 36.0125V36.0087Z" fill="black"/>
<path d="M27.5722 31.7473C27.6087 31.7214 27.6516 31.7062 27.6962 31.7032C27.7408 31.7002 27.7853 31.7095 27.825 31.7302C27.8646 31.7509 27.8977 31.7821 27.9208 31.8205C27.9438 31.8587 27.9558 31.9026 27.9555 31.9473C28.0084 32.8672 28.5051 31.8032 28.8669 32.093C29.2418 32.3927 28.7458 33.0895 28.2874 33.0987C27.4036 33.1163 26.9521 32.0922 27.5722 31.7473Z" fill="black"/>
<path d="M71.2978 56.6593C69.688 56.7528 67.0818 53.5602 68.8111 53.1478C70.4495 52.7077 72.0452 52.1217 73.579 51.397C74.932 50.6404 73.819 56.9031 71.2978 56.6593ZM71.576 55.6697C72.1191 55.2264 72.563 54.674 72.879 54.0481C73.195 53.4224 73.3761 52.7372 73.4104 52.037C73.2303 52.1236 70.7566 53.843 69.1622 53.8714C68.585 53.8813 70.7397 56.2492 71.576 55.6697Z" fill="black"/>
<path d="M91.0033 104.014C90.8692 102.788 92.8538 102.346 92.9703 103.766C93.0814 105.124 91.0033 105.504 91.0033 104.014ZM91.8573 103.383C91.7561 103.458 91.6764 103.558 91.6242 103.673C91.5729 103.788 91.5506 103.913 91.5614 104.039C91.7009 104.652 92.4092 104.434 92.469 103.8C92.4705 103.726 92.4529 103.654 92.4191 103.589C92.3854 103.524 92.3364 103.468 92.2758 103.427C92.2152 103.385 92.1447 103.359 92.0719 103.352C91.9991 103.345 91.9255 103.354 91.8573 103.383Z" fill="black"/>
<path d="M90.7933 100.173C90.8309 100.129 90.8822 100.099 90.9389 100.089C90.9957 100.079 91.0539 100.09 91.1038 100.119C91.1543 100.147 91.1919 100.193 91.2118 100.247C91.2318 100.301 91.2318 100.36 91.2126 100.415C91.1436 100.669 91.2187 100.738 91.4564 100.672C91.9929 100.518 91.9868 100.879 91.8588 101.06C91.3207 101.82 90.1149 100.786 90.7933 100.173Z" fill="black"/>
<path d="M81.9358 103.762C81.9358 105.131 80.0784 105.276 79.9688 104.054C79.8347 102.549 81.9327 102.326 81.9358 103.762ZM80.799 104.288C81.249 104.559 81.8522 103.312 81.0864 103.257C80.9661 103.259 80.8503 103.301 80.7553 103.374C80.6602 103.448 80.592 103.55 80.5591 103.666C80.5269 103.782 80.533 103.905 80.5759 104.017C80.6196 104.129 80.6978 104.224 80.799 104.288Z" fill="black"/>
<path d="M79.8262 100.069C80.0133 99.9204 80.2777 100.028 80.1834 100.333C80.047 100.773 80.5253 100.54 80.5943 100.545C80.8036 100.562 80.9845 100.613 80.9132 100.812C80.546 101.839 78.9547 100.767 79.8262 100.069Z" fill="black"/>
<path d="M68.771 103.872C68.7864 102.512 70.8231 102.403 70.7809 103.81C70.7395 105.17 68.7595 105.278 68.771 103.872ZM70.239 103.553C70.1094 102.94 69.2241 103.358 69.3521 103.977C69.4801 104.596 70.3915 104.278 70.239 103.553Z" fill="black"/>
<path d="M69.1184 101.231C68.9724 101.241 68.8275 101.201 68.7066 101.119C68.5858 101.036 68.4961 100.916 68.4519 100.777C68.4077 100.637 68.4116 100.487 68.463 100.35C68.5143 100.213 68.6101 100.097 68.7351 100.022C68.8493 99.9449 69.0164 100.066 69.0164 100.212C69.0164 100.228 68.7964 100.846 69.4143 100.531C69.8152 100.326 69.9478 101.246 69.1184 101.231Z" fill="black"/>
<path d="M69.1068 116.659C71.779 116.855 70.9166 116.078 71.1535 122.085C71.2209 123.787 71.2991 126.378 69.6012 126.262C67.1958 126.097 67.6925 124.599 67.4549 117.84C67.4273 117.048 67.4189 116.997 67.5959 116.885C68.1923 116.504 69.0968 116.803 69.1068 116.659Z" fill="black"/>
<path d="M68.1808 42.2904C67.7209 41.7109 68.3134 40.6937 68.8332 41.1467C69.5323 41.7553 68.7634 43.0263 68.1808 42.2904Z" fill="black"/>
<path d="M80.6189 126.106C80.438 126.117 80.2563 126.093 80.0846 126.034C79.9129 125.975 79.7542 125.883 79.6186 125.762C79.4829 125.642 79.3717 125.496 79.292 125.333C79.2131 125.17 79.1663 124.992 79.1556 124.811C78.8972 122.299 78.7723 119.775 78.7807 117.25C78.7723 116.906 78.8336 116.713 79.3733 116.686C81.7917 116.583 82.083 116.414 82.139 117.184C82.1551 117.407 82.3015 121.943 82.1436 124.288C82.0838 125.186 81.8262 126.063 80.6189 126.106Z" fill="black"/>
<path d="M89.7333 120.298C89.58 116.409 89.0082 116.725 92.2047 116.778C92.8869 116.79 93.2779 116.883 93.2863 117.349C93.3629 121.671 93.504 123.706 93.1928 125.183C93.11 125.482 92.9444 125.751 92.7144 125.959C92.4845 126.168 92.2009 126.307 91.895 126.36C91.5899 126.413 91.2756 126.379 90.9889 126.261C90.7022 126.143 90.4547 125.946 90.2753 125.693C89.7678 124.921 89.8038 123.888 89.6812 120.298H89.7333Z" fill="black"/>
<path d="M59.2185 43.5392C59.2128 43.4537 59.2329 43.3684 59.2761 43.2944C59.3193 43.2203 59.3837 43.161 59.4609 43.1238C59.5382 43.0867 59.6248 43.0736 59.7096 43.0862C59.7945 43.0987 59.8735 43.1364 59.9367 43.1943C60.8742 44.0513 59.4768 45.0838 59.2185 43.5392Z" fill="black"/>
<path d="M113.795 17.0969C114.148 17.1966 114.02 17.1966 114.485 15.5508C118.424 1.51296 126.23 -1.11861 128.554 16.7773C128.643 17.4672 130.896 15.6711 137.446 15.8528C142.132 15.9831 144.404 18.9458 141.328 23.8027C140.051 25.6473 138.53 27.3098 136.805 28.7447C136.612 28.944 136.652 28.944 137.841 29.9159C146.401 36.8992 145.681 44.8276 127.07 39.2763C126.61 39.1383 126.882 39.1996 125.843 42.2183C124.299 46.7003 120.949 52.6733 117.105 49.9957C113.87 47.7413 113.145 41.0531 112.935 40.7764C112.803 40.6017 107.91 42.0351 104.234 41.0286C100.811 40.0911 99.4579 37.2273 102.731 32.6372C106.525 27.3143 107.6 29.9964 103.917 26.7792C94.7535 18.7695 96.2621 12.1381 113.795 17.0969ZM127.947 23.9353C120.29 19.9324 121.517 20.0259 118.589 21.5759C116.852 22.4957 115.559 23.1964 113.871 24.2051C113.356 24.5118 113.294 29.4729 113.186 31.9404C113.152 32.7115 122.26 36.5512 122.286 36.5619C122.669 36.7152 125.137 35.4014 126.938 34.48C127.537 34.1726 128.569 23.9353 127.947 23.9353ZM122.287 4.9517C118.225 5.41163 115.975 13.0403 114.935 16.9957C114.751 17.6994 114.816 17.2495 119.129 18.9803C120.927 19.7024 120.836 19.73 121.086 19.6204C127.871 16.6493 128.023 17.7201 127.897 16.6991C127.745 15.0859 127.472 13.4864 127.08 11.9143C126.599 9.52878 124.746 4.83365 122.287 4.9517ZM106.747 28.0295C106.997 28.2081 106.992 28.1743 107.647 27.6224C109.234 26.3339 110.898 25.1431 112.629 24.0564C112.941 23.8571 112.802 23.8265 112.945 22.9457C113.807 17.6879 114.165 17.8642 113.466 17.6565C105.063 15.1169 99.697 15.6895 99.208 18.1034C98.7871 20.193 100.807 23.7935 106.747 28.0295ZM128.87 23.4562C128.864 23.8947 129.165 23.713 132.646 26.0035C136.18 28.3292 135.87 28.5599 136.244 28.2372C145.632 20.1585 143.59 14.4094 130.43 17.1705C128.596 17.5538 128.643 17.5913 128.66 17.7991C128.841 19.679 128.912 21.568 128.87 23.4562ZM142.224 38.1242C142.874 35.4796 138.4 31.3279 136.308 29.6155C135.716 29.1295 135.015 30.6702 130.236 33.5249C126.752 35.606 128.141 34.2079 127.057 38.1196C127.005 38.3074 127.1 38.3235 127.429 38.4154C131.329 39.5047 141.256 42.055 142.224 38.1242ZM113.91 40.6315C113.93 40.9458 114.854 46.7724 117.385 49.0552C120.98 52.2969 124.88 43.8909 126.042 39.1912C126.147 38.7673 126.092 39.0808 122.79 37.7348C122.105 37.455 122.795 37.7539 115.539 40.0505C114.115 40.4982 113.87 40.3939 113.91 40.6315ZM112.683 39.8934C113.04 39.7853 112.593 39.3023 112.377 34.7191C112.294 32.9668 112.521 32.7621 112.009 32.4624C106.719 29.3717 107.326 28.8819 106.601 29.594C94.9659 41.0194 107.138 41.5759 112.679 39.8934H112.683ZM127.985 33.6306C127.979 33.9158 127.924 33.9787 129.3 33.1385C129.828 32.8166 135.816 29.1601 135.299 28.7853C133.301 27.2521 131.211 25.8423 129.041 24.5639C128.614 24.3033 129.137 25.3642 127.98 33.6306H127.985ZM113.253 34.2347C113.322 34.2347 113.375 39.7922 113.958 39.6266C116.021 39.0922 118.052 38.4398 120.041 37.6727C121.644 37.1131 121.235 37.1315 120.513 36.8057C112.229 33.068 113.248 32.5214 113.248 34.2347H113.253ZM128.237 22.577C128.023 20.1815 128.309 17.8006 127.782 17.8918C127.612 17.9217 124.676 18.8815 122.227 19.8849C121.572 20.1524 122.112 20.1677 125.268 21.7399C128.327 23.2661 128.21 23.6295 128.233 22.577H128.237ZM112.696 25.3757C112.696 25.0874 112.721 24.9349 112.501 25.0805C110.814 26.1557 109.214 27.3629 107.717 28.691C109.108 29.7186 110.557 30.6669 112.055 31.5311C112.698 31.9113 112.019 30.9278 112.692 25.3757H112.696ZM119.471 20.3486C119.637 20.2651 119.79 20.1555 119.947 20.0589C118.891 19.5154 115.995 18.4997 114.918 18.1341C114.595 18.0245 114.746 17.7661 113.926 22.2205C113.608 23.9154 113.247 23.4869 119.466 20.3486H119.471ZM124.318 36.7298C123.633 37.0686 123.282 37.0134 124.429 37.4143C126.733 38.2184 126.227 38.6056 126.913 35.6766C126.909 35.3332 127.018 35.3937 124.313 36.7298H124.318Z" fill="black"/>
<path d="M97.9653 27.0529C101.083 27.1027 101.054 31.8001 97.9568 31.7687C94.9159 31.738 94.8991 27.0031 97.9653 27.0529Z" fill="black"/>
<path d="M147.169 25.4032C147.712 25.402 148.238 25.5941 148.652 25.9452C149.067 26.2963 149.343 26.7834 149.431 27.3194C149.519 27.8554 149.414 28.4053 149.133 28.8706C148.854 29.336 148.417 29.6864 147.901 29.8592C147.586 29.9701 147.249 30.0104 146.916 29.9774C146.583 29.9444 146.261 29.8388 145.973 29.6681C145.685 29.4974 145.438 29.2656 145.249 28.9891C145.06 28.7127 144.934 28.3983 144.88 28.0679C144.825 27.7375 144.844 27.3992 144.934 27.0769C145.025 26.7545 145.185 26.4559 145.403 26.2019C145.621 25.9479 145.892 25.7448 146.197 25.6068C146.502 25.4688 146.834 25.3994 147.169 25.4032Z" fill="black"/>
<path d="M121.088 24.3492C121.883 24.3746 122.647 24.6649 123.258 25.1739C123.869 25.6829 124.292 26.3814 124.461 27.1586C124.639 27.8937 124.586 28.6658 124.309 29.3697C124.033 30.0736 123.546 30.6752 122.915 31.0925C122.284 31.5098 121.54 31.7226 120.784 31.7018C120.028 31.6811 119.297 31.4279 118.69 30.9767C115.879 28.9707 117.388 24.1353 121.088 24.3492Z" fill="black"/>
</svg>
