<svg width="154" height="154" viewBox="0 0 154 154" fill="none" xmlns="http://www.w3.org/2000/svg">
<path d="M13.4974 121.133C10.4803 121.545 7.6172 122.018 4.97567 122.557C4.66445 122.621 4.36013 122.746 4.0673 122.875C3.87183 122.961 3.80974 123.114 3.83964 123.264C3.93546 123.753 8.04111 123.072 14.3552 122.258C14.0524 121.923 13.7649 121.546 13.4974 121.133Z" fill="black"/>
<path d="M148.839 121.085C148.455 121.051 136.607 120.217 119.56 119.473C119.523 119.927 119.48 120.359 119.427 120.77C131.976 121.299 142.359 121.825 148.908 121.969C149.73 121.986 149.62 121.156 148.839 121.085Z" fill="black"/>
<path d="M66.4544 38.4574C66.9918 38.4804 73.1234 31.2357 74.98 28.6793C75.6691 27.7295 75.6208 27.3072 74.5599 28.2792C72.1399 30.496 65.0631 38.3976 66.4544 38.4574Z" fill="black"/>
<path d="M23.7269 33.9855C23.4678 33.9127 23.1834 34.168 23.4287 34.4117C23.4448 34.4278 33.4813 43.2861 34.1727 43.2631C36.1558 43.1979 23.9347 34.0438 23.7269 33.9855Z" fill="black"/>
<path d="M46.2344 24.0763C46.2382 25.9604 46.9235 32.8793 47.5551 36.0237C47.7767 37.1276 48.4374 37.0463 48.4374 36.2292C48.5218 36.223 47.5214 27.5503 46.8706 24.5101C46.5755 23.1326 46.2328 23.2492 46.2344 24.0763Z" fill="black"/>
<path d="M28.6328 59.4556C24.3577 58.6477 21.5959 58.2728 20.2383 58.2C18.8593 58.1257 18.8792 58.6669 20.2858 59.0754C21.7193 59.4917 24.5915 59.7807 28.6811 60.4062C30.4342 60.6744 30.7393 59.8542 28.6328 59.4556Z" fill="black"/>
<path d="M146.72 110.892C146.686 107.271 144.742 102.944 143.924 101.66C143.744 101.377 142.002 98.6708 141.582 98.2637C140.97 97.6712 141.8 97.0227 141.209 96.1158C140.886 95.6191 141.56 95.4942 141.504 94.5789C141.432 93.4176 140.544 93.7334 140.701 93.3379C140.983 92.6257 141.231 92.6863 142.752 90.2931C143.242 89.5227 143.619 88.8489 143.019 88.3016C141.291 86.7233 141.199 87.6209 141.036 87.1112C140.324 84.8882 138.318 84.1492 136.837 85.0139C136.635 85.1319 136.614 84.9518 136.474 84.6628C135.974 83.6287 134.899 82.7564 133.672 82.748C132.445 82.7395 132.32 83.4394 132.068 83.0462C130.665 80.8546 127.075 81.4801 126.662 84.5195C126.614 84.8775 126.534 84.7809 125.493 85.0162C124.206 85.3067 123.331 85.3236 123.628 86.2227C124.129 87.7436 124.684 89.3541 125.44 90.6641C125.611 90.96 125.233 90.8903 124.958 91.3188C124.397 92.1919 125.15 92.5108 124.719 92.6702C123.635 93.0703 124.058 93.7641 123.761 93.8813C123.748 93.8867 122.561 94.4647 120.864 95.508C120.717 103.022 120.378 109.681 119.909 114.764C119.62 117.89 119.621 120.321 119.175 122.202C119.553 122.458 119.933 122.689 120.311 122.895C123.786 124.779 128.215 125.532 132.169 125.538C137.524 125.547 140.43 124.878 144.197 120.522C145.718 118.764 146.396 116.136 146.649 113.793C146.874 111.717 146.737 112.745 146.719 110.89L146.72 110.892ZM139.573 86.1622C140.516 87.1817 140.438 88.2457 140.516 88.9578C140.555 89.3227 140.253 89.2897 139.299 89.4607C137.974 89.3633 137.337 89.0184 136.086 88.2441C135.897 88.1276 135.836 88.0686 135.912 87.7758C136.408 85.874 138.343 84.8338 139.573 86.1622ZM131.955 85.2784C132.107 84.6007 132.513 84.1209 133.128 83.8242C134.733 83.0523 135.732 85.1074 135.963 85.4508C136.17 85.7582 135.568 85.8533 135.143 87.2676C135.082 87.4692 134.92 87.3948 134.484 87.0721C132.341 85.4899 131.826 85.8494 131.955 85.2784ZM127.725 84.1584C128.99 81.1857 131.903 83.4417 131.529 83.9354C131.023 84.6015 131.159 85.2983 130.744 85.1634C128.317 84.3746 127.271 85.2255 127.725 84.1584ZM132.521 118.06C132.084 118.064 132.513 118.534 131.891 119.588C131.6 120.084 130.949 120.072 130.68 119.568C130.507 119.245 130.363 118.908 130.491 118.527C130.888 117.35 129.572 118.503 127.264 115.988C126.644 115.313 127.187 114.354 127.959 114.674C128.492 114.895 128.915 115.622 130.418 116.218C131.935 116.819 134.28 116.51 135.351 115.277C135.768 114.797 135.853 113.736 135.443 113.15C133.942 111.006 131.006 112.17 128.904 109.9C126.593 107.404 129.06 104.248 132.247 103.837C132.602 103.791 132.373 103.58 132.625 102.427C132.869 101.307 134.51 101.486 134.311 102.709C134.095 104.039 134.129 104.06 134.382 104.155C138.22 105.58 137.268 108.224 136.348 107.417C136.019 107.13 135.482 105.768 133.396 105.402C132.014 105.16 130.816 105.546 129.921 106.665C129.358 107.37 129.353 108.053 129.956 108.755C131.673 110.762 135.539 109.563 137.038 112.888C137.204 113.257 137.171 113.421 137.171 114.041C137.336 116.475 134.797 118.041 132.521 118.061V118.06ZM125.651 95.3194C125.206 94.966 124.535 94.2087 124.807 93.7104C125.017 93.3248 124.837 93.531 125.216 93.1179C125.766 93.6859 125.628 93.8262 126.953 94.6303C129.727 96.3136 132.678 96.7751 135.916 96.9874C139.771 97.2411 140.475 96.0369 140.605 96.447C141.612 99.6266 130.085 98.8432 125.651 95.3194ZM139.757 95.6758C134.694 97.3339 123.343 93.6767 125.93 91.5066C126.01 91.4399 126.066 91.446 126.139 91.5112C128.624 93.7403 134.669 95.5486 139.599 94.3528C140.442 94.1481 140.306 93.8154 140.601 94.086C141.021 94.4685 140.601 95.3991 139.757 95.6758Z" fill="black"/>
<path d="M37.1999 96.7744C35.029 95.3655 34.4004 95.4712 34.3782 95.0512C34.3506 94.5108 34.0608 94.2547 33.5495 94.0807C33.0789 93.9213 33.8684 93.7971 33.341 92.7293C33.1486 92.3406 32.6504 92.3644 32.8052 92.1237C33.2521 91.4285 33.9091 89.8248 34.1858 89.0322C34.9922 86.7234 35.2743 86.8897 31.8263 86.2305C31.6654 86.1991 31.6799 86.1523 31.5971 85.769C30.9877 82.9688 28.2358 82.5104 26.7487 83.881C26.1953 84.3908 26.1807 84.692 25.9822 84.5579C25.3835 84.1554 24.3686 83.9983 23.4441 84.4291C22.3403 84.9442 21.9693 85.7644 21.6144 86.4566C20.696 86.0595 20.916 86.1945 20.67 86.1347C19.4941 85.8457 17.9595 86.5034 17.3125 88.3377C17.1753 88.7271 17.1776 88.6014 16.7506 88.7317C15.8553 89.0062 14.6211 89.9138 15.0458 90.7554C16.7445 94.1206 18.158 94.5613 17.3447 95.0213C16.5981 95.4436 16.651 96.3535 17.117 97.0741C17.3439 97.4252 16.9215 97.3868 16.8725 98.0752C16.7928 99.2097 17.1592 99.0848 16.851 99.4688C9.23688 108.971 10.8543 118.736 14.6012 122.52C17.8475 125.798 19.8467 126.93 25.6955 126.93C25.6985 126.999 32.6994 126.889 36.5897 124.975C37.4965 124.529 38.2439 124.117 38.8794 123.722C37.6031 120.066 37.2482 112.527 37.1999 96.7744ZM26.751 85.1105C27.7046 83.6211 29.624 83.8113 30.317 85.06C30.4895 85.3712 30.8804 86.0956 30.527 86.1347C30.294 86.1607 30.4113 86.0741 28.4052 86.3677C27.4302 86.5103 27.365 86.7402 27.2431 86.3922C26.8146 85.1757 26.6291 85.3014 26.7518 85.1113L26.751 85.1105ZM22.3043 86.9043C23.579 84.1117 26.0481 84.9342 26.347 86.7111C26.4137 87.1082 26.439 86.8414 25.0217 87.6931C24.584 87.956 23.369 88.7478 23.3529 88.7609C23.113 88.9471 23.1383 88.5217 22.804 87.8701C22.4399 87.1618 22.21 87.1112 22.3043 86.9043ZM22.3403 89.125C22.3809 89.312 22.5404 89.3672 22.3418 89.509C21.3077 90.2472 20.3948 90.8244 18.9345 90.8068C18.5275 90.8022 17.7494 90.7823 17.7609 90.3722C17.8836 85.9208 21.7041 86.1853 22.3411 89.125H22.3403ZM18.0016 95.4636C18.8257 95.9979 21.3752 96.2278 22.3556 96.1619C23.7331 96.0699 25.5859 95.9933 28.6252 94.9163C29.5712 94.5813 31.3472 93.7488 32.1146 92.9232C32.2694 92.7569 32.3323 92.8811 32.4894 93.0451C34.359 95.0082 24.4613 98.6386 18.6662 97.1255C17.1569 96.7314 17.3769 95.0581 18.0016 95.4636ZM31.5458 118.974C31.056 119.361 31.6309 120.448 31.8616 121.119C32.2364 122.208 30.5477 122.804 30.1392 121.749C29.2929 119.565 30.6175 120.12 28.1883 120.691C26.9787 120.976 24.561 120.646 24.0689 119.524C23.4602 118.135 26.7648 118.809 27.8188 118.616C31.6102 117.919 32.4342 114.786 30.1001 114.174C28.1446 113.661 24.7488 114.667 23.1904 112.294C22.7443 111.615 22.4384 110.241 22.8546 108.933C23.3958 107.235 24.7365 106.539 25.2217 106.219C25.5146 106.026 25.444 106.172 24.7986 104.223C24.4912 103.295 25.9001 102.688 26.321 103.544C26.6069 104.127 26.5341 104.159 27.0063 105.349C27.2278 105.304 27.4478 105.253 27.6686 105.213C32.0962 104.395 32.0762 108.22 30.5424 107.637C30.0932 107.466 29.3519 106.562 27.7291 107.02C25.8128 107.561 24.0259 108.782 24.3686 110.753C24.7649 113.033 29.2446 111.04 31.8969 112.852C34.1712 114.406 33.6116 117.342 31.5458 118.974ZM33.5143 95.5073C33.3142 96.2823 32.3844 96.9729 31.6822 97.37C28.5892 99.1208 26.3923 99.4128 22.8592 99.8107C22.6852 99.8298 22.5059 99.8137 22.3303 99.8137L22.3288 99.8252C19.491 99.6995 19.0802 99.7639 17.869 98.933C17.4566 98.6501 17.5631 97.5923 17.8606 97.7701C20.0813 99.0932 25.464 98.0223 26.4114 97.879C27.3589 97.7356 28.6467 97.4213 30.7279 96.3459C32.9409 95.2014 32.9585 94.2563 33.1655 94.6004C33.6101 95.3394 33.5641 95.3133 33.5143 95.5073Z" fill="black"/>
<path d="M119.909 114.765C119.38 120.49 119.822 123.88 116.718 125.84C116.187 126.174 115.027 126.454 114.969 126.61C114.782 127.108 113.745 128.455 113.615 128.619C113.113 129.251 112.824 129.13 110.683 129.285C110.664 129.285 106.837 129.479 104.973 129.215C103.685 129.033 103.976 127.258 103.336 127.261C102.731 127.265 90.7624 127.492 90.7409 127.493C90.3745 127.496 90.0502 128.559 88.7923 129.373C87.7322 130.059 87.6509 129.97 81.2732 129.94C77.8314 129.923 78.0093 129.737 77.255 127.915C77.1116 127.568 77.2726 127.698 74.71 127.68C74.2769 127.677 73.2383 129.478 72.1015 129.541C65.3252 129.919 64.8576 129.652 64.4574 128.918C63.9454 127.979 64.0274 127.826 63.6533 127.829C58.5979 127.871 58.6968 127.675 58.4185 128.133C57.8536 129.063 56.9552 129.99 55.8675 129.95C49.4591 129.715 46.6781 130.289 46.2358 128.83C45.7597 127.261 45.8042 127.36 45.562 127.347C37.4151 126.917 37.0372 127.726 37.2257 79.1765C37.2771 65.8715 38.5526 53.7485 38.5948 53.4864C39.4372 48.2761 40.978 47.9036 44.2573 47.4866C60.3073 45.4476 94.244 46.5499 110.408 47.2551C116.232 47.5096 119.198 48.017 119.682 53.9954C121.486 76.3027 121.164 101.176 119.908 114.766L119.909 114.765ZM67.6984 47.3134C67.6984 47.357 48.8075 47.5173 42.9396 48.6341C39.8849 49.2152 39.4066 50.3956 38.8516 64.031C37.7378 91.3869 38.5381 114.38 39.1774 119.64C40.0689 126.977 40.2046 126.156 50.3659 126.522C61.6802 126.931 94.2931 127.051 97.5088 125.79C100.791 124.502 100.649 122.993 100.885 120.799C102.258 108.046 102.888 78.8278 101.669 59.9676C100.879 47.7533 104.011 47.3134 67.6984 47.3134ZM118.531 119.521C121.233 90.8917 118.851 55.9861 119.091 58.4736C118.464 51.9594 119.174 48.9775 113.336 48.3658C108.655 47.8752 97.2642 47.6491 97.1439 47.8254C102.385 49.5248 102.182 51.1921 102.718 57.5138C104.944 83.7705 102.574 118.205 101.685 122.291C100.755 126.563 97.5249 126.456 98.6532 126.461C116.838 126.536 117.906 126.145 118.531 119.52L118.531 119.521Z" fill="black"/>
<path d="M93.3147 53.451C96.5404 54.4491 95.0425 58.0281 95.8367 69.882C96.0759 73.448 96.2138 99.1995 95.0065 116.45C94.6156 122.033 91.7778 120.142 84.5262 120.926C84.1798 120.963 60.6352 121.43 51.514 120.904C44.116 120.478 43.5741 121.14 43.3227 114.441C42.9861 105.467 42.1797 58.0794 44.3828 54.5142C45.5778 52.5802 48.7123 53.5093 55.9347 52.6791C58.2551 52.4123 89.7626 52.3518 93.3147 53.451ZM94.2262 55.1098C93.7448 53.1383 85.5611 53.9784 77.5606 53.5292C73.5684 53.3046 49.7149 53.3322 45.8377 54.3111C44.6641 54.6077 44.9002 55.6219 44.6917 57.3114C44.3261 60.2748 42.5147 118.766 45.4912 119.529C50.0599 120.7 91.5578 120.271 93.1806 119.303C95.481 117.93 95.133 58.8253 94.2262 55.1098Z" fill="black"/>
<path d="M78.7291 89.2069C78.9667 96.0936 73.3923 103.92 63.638 104.142C56.2692 104.309 48.3561 98.0621 48.8689 88.1874C49.2483 80.8807 55.8537 74.365 64.045 74.4394C72.6319 74.5175 78.9882 81.9477 78.7291 89.2069ZM77.7801 89.1464C76.1489 69.3142 48.6113 72.6303 49.8869 90.3023C50.4664 98.3342 58.0828 103.975 65.7023 102.777C72.8757 101.65 77.6298 95.9165 77.7801 89.1464Z" fill="black"/>
<path d="M83.3705 61.1542C87.089 61.0715 91.2207 64.2687 90.8451 68.9225C90.5615 72.4363 87.3267 75.2342 83.6794 74.9951C80.3112 74.7743 76.2255 71.6039 76.631 67.3786C77.0051 63.4823 80.4154 60.9603 83.3705 61.1542ZM89.1549 67.4392C89.1549 66.1675 88.8874 66.8145 88.396 66.8512C87.8525 66.8926 87.7559 66.2894 88.1223 66.0387C88.5554 65.7421 88.8705 65.8325 88.7133 65.5159C88.1093 64.3025 88.048 64.3193 87.8326 64.5585C87.3236 65.1242 86.534 64.754 86.8652 64.1967C87.0867 63.8241 87.5229 63.8011 87.2508 63.5474C86.8928 63.2132 86.4904 62.9472 86.0442 62.7448C85.7606 62.6161 85.8327 63.8226 85.1159 63.585C84.7235 63.4547 84.7786 62.9204 84.981 62.5708C85.0722 62.4129 85.0416 62.2956 84.8883 62.2581C83.2294 61.8526 83.6679 62.0335 83.5138 62.7142C83.4142 63.1572 83.0171 63.1021 82.8492 62.8184C82.5748 62.3531 82.8638 61.999 82.5104 62.0649C81.3736 62.2765 81.4717 62.2519 81.553 62.6007C81.6902 63.1887 81.7278 63.7643 81.1329 63.5191C80.6071 63.3021 80.6492 62.5992 80.3258 62.8177C79.3131 63.4984 79.3722 63.529 79.5592 63.7345C80.1073 64.3377 79.7271 65.1625 78.8524 64.3324C78.7612 64.2457 78.6861 64.2511 78.6179 64.3469C77.373 66.1039 78.0713 65.6731 78.4991 66.1805C78.6501 66.3599 78.6133 66.7094 78.2844 66.7079C77.5516 66.7048 77.4987 66.4457 77.5156 68.1176C77.5179 68.3115 77.5984 68.3752 77.8153 68.4104C78.1587 68.4671 78.578 68.7791 78.2645 68.9984C77.8498 69.2889 77.4374 68.9984 78.263 70.4962C78.463 70.8595 78.6095 70.4778 79.0901 70.3774C79.6757 70.2547 79.7639 70.5951 79.4565 70.9715C79.1468 71.3509 78.8977 71.4161 79.0364 71.541C80.0398 72.4478 80.0406 72.5321 80.1878 72.2593C80.2706 72.1044 80.4952 71.39 81.0685 71.7073C81.4304 71.9074 81.169 72.342 81.008 72.7246C80.8984 72.9852 80.9996 72.9913 81.7554 73.2228C82.1969 73.3577 81.9685 73.0986 82.1478 72.5697C82.2391 72.3007 82.7151 72.1703 82.8968 72.6525C83.07 73.1117 82.6653 73.4313 83.0708 73.4451C84.1516 73.4834 84.1102 73.3976 83.9975 73.0856C83.5629 71.8806 84.7005 71.5456 84.8277 73.0626C84.8484 73.3133 85.0101 73.2174 85.7315 72.9277C86.3539 72.677 85.5268 72.5988 85.5621 72.0094C85.5889 71.5648 86.1661 71.5648 86.3455 71.8484C86.5402 72.1565 86.5846 72.5207 86.7786 72.3512C87.8333 71.4299 87.9131 71.4023 87.6156 71.2344C86.9396 70.8534 87.1243 70.1727 87.6839 70.2018C88.3209 70.2356 88.3354 70.8894 88.6835 69.9872C89.0391 69.0658 89.0936 69.065 88.7808 68.9731C87.5781 68.6174 88.1231 67.8317 88.698 67.926C89.0545 67.9842 89.1549 68.2402 89.1549 67.4392Z" fill="black"/>
<path d="M70.3845 80.6913C75.2674 84.5731 76.1037 92.0248 70.7133 97.2089C65.2494 102.464 54.5046 99.8612 52.7776 91.1831C50.8589 81.543 62.3426 74.2991 70.3845 80.6913ZM64.4759 85.6655C64.4629 86.0809 64.3786 86.074 64.6353 86.1913C65.513 86.5915 66.3218 87.5343 66.4314 88.6236C66.587 90.172 65.9477 90.2464 66.3302 90.5645C71.6041 94.9438 70.987 95.1201 71.4017 94.5666C75.5748 89.0023 72.31 80.6545 64.8308 79.6411C64.3372 79.5745 64.6798 79.2717 64.4759 85.6655ZM53.8048 89.2767C53.9205 90.6442 54.4333 93.2489 54.8112 93.1025C55.0144 93.0243 56.3505 91.9588 59.074 90.5591C60.2836 89.9374 60.2484 89.9942 60.2269 89.7581C60.0928 88.2702 60.4132 87.0253 61.9248 86.2963C62.5082 86.015 62.0068 81.0378 62.2751 79.8213C62.453 79.0156 53.8906 80.9918 53.8055 89.2759L53.8048 89.2767ZM69.1756 96.7482C69.4523 96.5328 69.46 96.9084 66.7664 93.6974C65.0631 91.6675 65.1282 91.6101 64.9121 91.7595C64.4284 92.0945 63.5545 92.3099 62.5335 92.1129C61.4948 91.9128 61.4243 91.341 61.0862 91.6147C56.1772 95.5877 55.948 95.127 56.3903 95.6068C59.6995 99.1943 65.6035 99.5262 69.1764 96.7482H69.1756ZM61.2986 88.9754C61.1016 91.5855 65.4249 91.8032 65.4272 89.0061C65.4295 86.2335 61.0349 86.4481 61.2986 88.9754Z" fill="black"/>
<path d="M80.0228 67.7834C79.8925 65.2484 83.1794 63.2692 85.4155 65.4408C87.2107 67.1847 86.1613 70.3774 83.6846 70.7469C81.2079 71.1164 79.8357 69.0896 80.0228 67.7834ZM82.2895 65.4385C79.2938 66.435 81.0883 70.9776 83.9889 69.9044C86.947 68.8106 85.4638 64.3822 82.2895 65.4385Z" fill="black"/>
<path d="M63.3384 89.9865C61.977 89.9911 61.9708 88.0119 63.3108 88.0341C64.6929 88.0571 64.5434 89.9827 63.3384 89.9865Z" fill="black"/>
</svg>
