<svg width="154" height="154" viewBox="0 0 154 154" fill="none" xmlns="http://www.w3.org/2000/svg">
<path d="M17.6537 85.1695C18.4571 84.9196 19.1117 85.0192 19.7549 84.3838C20.4861 83.6609 21.0166 82.1638 19.3884 79.1352C17.7833 76.1486 15.4055 73.6359 12.5125 71.8682C11.0277 70.9622 9.84107 71.1262 9.22093 72.7521C8.05577 75.8075 9.63946 79.1206 10.2857 81.766C10.485 82.5808 10.6375 83.4585 10.9894 84.2757C11.5374 85.5474 12.56 86.5109 13.9444 86.5109C15.0866 86.5109 15.9781 85.8586 17.0351 85.4017C19.7633 93.6851 19.3264 100.554 19.5525 103.718C19.5617 103.846 19.7725 103.897 19.7932 103.751C20.3321 100.07 19.8706 91.9818 17.653 85.1695H17.6537ZM13.1687 85.5911C11.8441 85.0591 11.457 83.444 11.1641 82.1569C10.4221 78.8861 8.85758 75.8566 9.93765 73.0257C10.3769 71.8728 11.0262 71.8598 12.1131 72.5229C14.8911 74.2192 17.1731 76.6316 18.7139 79.4985C19.4881 80.9397 20.2041 82.8622 19.216 83.8388C18.7583 84.291 18.1719 84.1921 17.4046 84.4267C15.7826 79.7254 13.6937 76.2291 12.2948 74.775C12.1208 74.5949 11.8433 74.824 11.956 75.0364C12.6581 76.3571 14.9233 79.3506 16.7829 84.6605C15.5273 85.2139 14.4465 86.1047 13.1679 85.5919L13.1687 85.5911Z" fill="black"/>
<path d="M16.406 96.8922C16.5102 96.8592 16.6359 96.814 16.8023 96.722C17.6999 96.2261 17.9958 95.5553 17.7612 94.5458C17.3159 92.6287 15.4861 91.3064 13.9224 90.7092C11.6748 89.8491 10.3311 91.0013 10.3364 92.6831C10.338 93.3308 10.5442 93.9471 10.7649 94.5174C11.3667 96.0705 12.2996 98.4851 13.9975 98.4851C14.2757 98.4851 14.5594 98.4161 14.8438 98.2774C15.3834 98.0152 15.5559 97.5514 15.8694 97.2027C17.6233 100.444 17.7229 102.253 18.2779 103.661C18.3561 103.859 18.6757 103.851 18.6719 103.608C18.6443 101.905 17.299 98.5648 16.4045 96.8937L16.406 96.8922ZM14.5103 97.5875C13.0393 98.3004 12.0711 95.7623 11.4794 94.2384C11.2854 93.7379 11.1045 93.2028 11.103 92.68C11.0984 91.4735 11.9776 90.7843 13.6487 91.4244C15.0285 91.9518 16.6375 93.094 17.0146 94.7183C17.1833 95.4442 17.0254 95.8727 16.025 96.2062C15.26 94.8708 14.2527 93.3653 13.4042 92.6632C13.2171 92.5083 12.9143 92.7022 13.0516 92.9353C13.536 93.7578 14.4727 94.8049 15.4792 96.5105C15.0346 96.8853 14.8905 97.402 14.5095 97.5867L14.5103 97.5875Z" fill="black"/>
<path d="M24.1042 105.944C23.4404 106.343 22.545 106.454 21.8283 106.522C19.6337 106.732 16.1888 106.538 15.0206 104.772C15.2015 104.244 15.932 103.784 16.6878 103.351C17.3693 102.96 17.3999 102.963 17.8928 103.143C18.8717 103.502 19.0427 103.202 19.7947 102.901C20.345 102.681 21.0265 102.813 21.4542 103.222C21.7379 103.495 21.9709 103.919 22.4071 104.175C23.1606 104.616 23.6151 104.49 24.062 105.25L23.993 104.066C23.7868 103.935 23.5799 103.855 23.3767 103.777C22.3733 103.394 22.5527 103.213 21.9847 102.669C21.337 102.048 20.342 101.856 19.5095 102.19C19.1737 102.324 18.8725 102.539 18.618 102.542C18.3121 102.538 17.8645 102.243 17.4076 102.26C16.9914 102.27 16.6648 102.48 16.3061 102.686C15.7917 102.981 15.0152 103.425 14.5645 104.027C14.3322 103.91 14.0003 104.02 14.0064 104.352C14.0463 106.492 13.9712 108.671 14.1751 110.803C14.5668 114.896 17.0029 116.754 21.3209 115.746C23.1406 115.322 24.0889 114.333 24.5626 112.528C24.394 110.39 24.2406 108.192 24.1034 105.945L24.1042 105.944Z" fill="black"/>
<path d="M23.6512 97.044L23.619 96.2414C23.54 96.2153 23.363 96.1908 23.3285 96.1349C23.6611 95.3116 23.6036 95.9678 23.5293 93.8229C23.2234 94.5044 22.9429 95.179 22.6861 95.8382C21.8843 95.6519 21.2902 94.8271 21.166 94.0376C20.9161 92.4562 22.0537 90.4885 23.3836 88.9783L23.3568 87.8799C21.6635 89.5924 20.0829 92.0859 20.4087 94.1564C20.5735 95.2035 21.337 96.2667 22.4117 96.5626C21.117 100.068 20.5313 103.03 20.6057 104.053C20.6141 104.174 20.8011 104.259 20.8625 104.122C21.3109 103.119 21.6305 100.611 23.0663 96.8408C23.2541 96.9344 23.4503 97.0003 23.6527 97.0432L23.6512 97.044Z" fill="black"/>
<path d="M77.2125 76.4714L75.1229 76.2422C74.7442 89.535 75.5292 106.792 76.1263 117.25C56.439 116.251 40.9164 114.16 28.6945 110.859C27.6926 100.231 26.9406 83.8671 27.8329 70.1926L25.5701 69.8584C24.71 84.3033 25.5164 101.326 26.5696 112.351C26.585 112.509 26.6969 112.642 26.8502 112.684C39.9743 116.26 56.6805 118.625 77.9392 119.571C78.1807 119.581 78.3539 119.384 78.3409 119.166C77.0561 96.8563 77.0033 83.9384 77.2125 76.4714Z" fill="black"/>
<path d="M148.885 23.5228C148.867 23.2836 148.677 23.1594 148.499 23.1586C63.3362 22.9195 47.1175 22.8842 24.8976 29.9235C24.7902 29.9556 24.7059 30.0262 24.6523 30.1404C24.4736 30.621 24.1394 34.0536 23.8029 39.5506C17.4482 47.886 10.5991 52.47 3.69784 59.2785C3.63115 59.3436 3.59053 59.4326 3.5844 59.5253C3.42189 61.9384 3.51234 64.0733 3.86342 66.0517C3.88565 66.179 3.9715 66.2863 4.08955 66.3376C5.69471 67.0245 12.8558 68.313 22.8263 69.8262C22.7136 84.6705 23.1077 101.773 24.6231 117.634C24.6385 117.792 24.7504 117.925 24.9037 117.967C48.7143 124.454 79.0336 128.682 117.613 130.463C117.661 130.466 117.706 130.459 117.743 130.447C121.136 129.372 127.431 124.913 133.464 119.861C133.026 119.934 132.575 119.969 132.1 119.975C127.061 124.144 121.81 127.864 117.984 129.519C116.473 102.903 115.721 60.0565 117.991 33.9501C126.633 31.5248 133.569 29.961 148.146 24.0984C149.568 52.8257 149.411 74.5942 147.577 104.165C146.35 106.47 142.421 110.734 137.607 115.166C137.802 115.381 137.958 115.612 138.05 115.859C142.929 111.419 147.012 107.076 148.295 104.595C148.32 104.547 148.416 104.264 148.419 104.211C150.272 74.3818 151.084 52.5267 148.885 23.522L148.885 23.5228ZM24.4606 39.9538C27.1435 39.9545 29.8893 39.9798 32.7095 40.0296C28.426 49.4827 18.3382 56.9045 13.2345 61.2615C8.72718 60.5341 5.66098 59.9101 4.59394 59.4747C11.3082 52.9245 18.1787 48.2126 24.4606 39.9538ZM98.4864 69.5058C94.9863 69.3824 91.3114 69.2068 87.5255 68.9884C94.4459 62.6965 102.233 54.4477 104.938 44.7715C108.603 45.1272 112.372 45.5036 116.25 45.9014C111.184 55.9225 106.005 62.8 98.4864 69.5058ZM98.2472 76.624C98.0609 78.0115 97.6968 78.0705 96.5646 77.974C93.2409 77.6896 89.6465 77.3661 85.872 76.9905L86.3396 70.0569L86.7305 69.7066C90.7496 69.9458 94.6283 70.1359 98.2847 70.2662C98.5898 72.8993 98.6136 73.8943 98.2472 76.624ZM86.453 68.9255C83.0373 68.7216 79.538 68.4832 75.9988 68.2188C83.5325 62.1553 88.5488 54.7459 92.6652 43.6248C96.3829 43.9582 100.213 44.3154 104.164 44.6972C101.402 54.3917 93.3988 62.672 86.453 68.9255ZM85.6627 69.643C85.5623 69.7741 85.629 69.1946 85.1093 76.9146C81.8078 76.5826 78.3744 76.2185 74.8666 75.8298L74.5432 70.5644C74.4926 69.7381 74.5263 69.4322 75.128 68.9156C78.7025 69.1877 82.2309 69.433 85.6627 69.643ZM74.8736 68.1337C70.5901 67.8064 66.2583 67.4407 61.9587 67.0482C62.1235 66.8405 62.306 66.6573 62.5022 66.5055C69.6794 60.9611 76.0954 51.5517 78.914 42.4604C83.0795 42.7908 87.3944 43.1549 91.8741 43.5535C87.297 55.8397 81.8875 62.6145 74.8736 68.1337ZM74.0924 75.744C69.8664 75.2733 65.54 74.7689 61.2113 74.2438C61.1216 68.957 61.0335 68.7569 61.5087 67.7711C65.724 68.1567 69.9615 68.5169 74.143 68.8404C73.5788 69.607 73.7322 69.8806 74.0924 75.744ZM62.0331 65.8992C61.669 66.1805 61.3455 66.5454 61.0795 66.9685C57.2851 66.619 53.5198 66.2495 49.8396 65.8677C57.1371 59.9921 65.5569 51.2458 66.6508 41.5589C70.3494 41.8088 74.1722 42.0886 78.1314 42.3998C75.3296 51.2979 69.0508 60.4789 62.0338 65.8999L62.0331 65.8992ZM60.4432 74.1511C56.5185 73.6735 52.5984 73.1806 48.7557 72.6824L49.0362 66.5515C52.8575 66.9493 56.7676 67.3342 60.7031 67.6975C60.2531 68.7837 60.3605 69.2214 60.4432 74.1511ZM48.7526 65.7543C44.8202 65.3427 40.9928 64.9188 37.3394 64.4933C37.5993 64.2549 37.9235 64.0349 38.2378 63.8142C45.4963 58.7197 51.7368 49.922 54.5991 40.8284C58.2325 41.0216 61.9901 41.2477 65.885 41.5076C64.7743 51.1921 56.0601 59.9791 48.7526 65.7543ZM48.2727 66.4718L47.9929 72.5835C44.2123 72.0914 40.5129 71.5954 36.9661 71.1063C36.6258 66.3415 36.5238 65.8762 36.8105 65.2024C40.483 65.6324 44.3273 66.0586 48.2727 66.4718ZM37.6798 63.2691C37.2413 63.5773 36.7545 63.9176 36.405 64.3845C32.4726 63.9222 28.751 63.4585 25.3307 63.0077C25.5001 62.882 25.6948 62.7671 25.8918 62.649C33.7566 57.9639 40.8502 49.2328 44.0291 40.347C47.1904 40.4658 50.4459 40.6122 53.808 40.7878C51.0538 49.3931 45.1237 58.0413 37.6798 63.2691ZM36.1904 70.9983C32.1997 70.4448 28.4122 69.9006 24.9297 69.3801C24.8692 68.4993 24.6484 64.3377 24.8017 63.7061C28.2688 64.1683 32.0418 64.6405 36.0271 65.1112C35.7649 65.9176 35.8577 66.3499 36.1896 70.999L36.1904 70.9983ZM25.4717 62.0066C25.0846 62.2374 24.6569 62.4919 24.3633 62.879C20.5535 62.37 17.1401 61.8794 14.2517 61.4248C21.7156 55.4273 29.9001 48.3536 33.5419 40.0465C36.6741 40.1063 39.8966 40.196 43.2242 40.3171C40.063 48.9661 33.1525 57.4319 25.4709 62.0074L25.4717 62.0066ZM12.5193 67.397C8.47652 66.6895 5.67248 66.1038 4.58244 65.7091C4.29882 64.0081 4.21143 62.1814 4.31568 60.1478C5.56976 60.6176 8.49031 61.2286 12.6328 61.9177C12.1606 62.6521 12.2886 63.043 12.5193 67.397ZM13.2943 67.5312C13.0528 62.9848 12.8811 62.6889 13.4997 62.0595C16.4893 62.5455 20.0514 63.0668 24.0398 63.6034C23.8803 64.3929 24.1011 68.4656 24.154 69.2636C20.0185 68.6411 16.3383 68.0555 13.2943 67.5312ZM117.226 129.678C79.0489 127.758 48.9925 123.707 25.3613 117.299C24.0559 103.502 23.4641 86.6321 23.5852 69.9427C44.2499 73.0572 76.3668 77.0679 96.5018 78.7397C97.056 78.7857 97.6324 78.8532 98.1383 78.5266C98.7439 78.1357 98.9179 77.3983 99.0076 76.7275C99.3917 73.8682 99.3602 72.8579 99.0314 70.05C106.331 63.5328 111.446 56.8547 116.375 47.3448C115.26 72.1979 115.85 105.518 117.227 129.679L117.226 129.678ZM116.478 45.1556C87.2426 42.1837 54.1046 39.2156 24.6791 39.1887C24.8769 36.2712 25.1007 33.4358 25.3521 30.7084C49.372 32.8256 79.4314 33.9141 117.216 34.0352C116.921 37.451 116.677 41.1841 116.479 45.1548L116.478 45.1556ZM117.581 33.2702C80.4755 33.1575 50.8108 32.1135 27.0002 30.0821C54.353 21.9766 82.7368 24.6527 146.451 23.9513C132.53 29.4681 125.284 31.1024 117.581 33.2702Z" fill="black"/>
<path d="M110.891 75.8582C110.901 75.639 110.727 75.4573 110.51 75.4566C106.301 75.4328 102.408 75.3362 98.8058 75.1653C98.7621 75.6145 98.7023 76.1081 98.6264 76.6754C98.5498 77.2495 98.4156 77.8895 97.9289 78.203C97.5264 78.4629 97.009 78.3955 96.5322 78.3564C92.0579 77.9853 87.096 77.5116 81.8612 76.9674C81.2855 91.4444 81.3108 114.095 81.9517 127.497C81.9609 127.686 82.1073 127.84 82.2959 127.86C91.0966 128.752 100.557 129.704 110.446 130.077C110.698 130.086 110.858 129.889 110.851 129.683C110.375 113.375 110.235 89.6492 110.891 75.8598V75.8582ZM86.7855 123.5C86.5103 119.204 86.574 115.087 86.7694 112.68C92.6864 113.592 99.1423 114.244 105.975 114.62C105.868 118.398 105.859 121.334 106.089 125.403C98.411 124.703 92.4411 124.359 86.7855 123.5ZM86.7901 107.974C86.2919 98.1387 86.2903 89.9405 86.7848 79.8757C91.8839 80.6821 98.2102 81.1021 106.092 81.1589C105.558 90.7009 105.744 98.3756 106.101 109.878C98.5659 109.191 92.4457 108.833 86.7901 107.974ZM108.482 112.002C108.484 112.213 108.312 112.387 108.1 112.387C107.89 112.387 107.717 112.218 107.715 112.007C107.698 109.538 107.72 107.035 107.781 104.568C107.794 104.035 108.56 104.099 108.548 104.587C108.486 107.046 108.464 109.542 108.482 112.002Z" fill="black"/>
<path d="M91.4447 94.336C95.653 101.505 95.6323 101.541 96.2157 102.194C96.3881 102.386 96.7668 102.184 96.6664 101.932C96.3268 101.079 96.2364 101.015 91.7651 94.1481C91.6355 93.9488 91.3228 94.1282 91.4447 94.336Z" fill="black"/>
<path d="M95.2654 85.8381C96.1047 87.7069 98.6819 93.2192 99.0912 94.1229C99.5281 95.088 100.006 96.001 100.527 96.9231C100.684 97.2014 101.159 97.0159 101.052 96.7016C100.732 95.7503 100.391 94.8435 99.9544 93.9397C98.7792 91.509 96.9962 88.1254 95.4616 85.7231C95.3811 85.5974 95.2063 85.7062 95.2654 85.8381Z" fill="black"/>
<path d="M91.5267 116.212C92.1277 117.631 92.7286 118.729 93.6247 119.982C94.1153 120.669 94.0962 120.619 94.6366 121.016C94.8428 121.167 95.0666 120.881 94.9647 120.688C94.855 120.481 94.7615 120.261 94.622 120.073C94.4549 119.847 93.0483 118.259 91.8371 116.03C91.7237 115.821 91.4393 116.005 91.5267 116.212Z" fill="black"/>
<path d="M97.1594 116.137C97.7473 117.087 99.0359 118.989 100.437 121.499C100.6 121.79 100.783 121.98 101.032 122.199C101.247 122.39 101.538 122.202 101.493 121.931C101.387 121.301 101.309 121.226 100.735 120.291C99.8775 118.895 98.5821 117.034 97.5357 115.846C97.3556 115.642 97.0175 115.907 97.1594 116.137Z" fill="black"/>
<path d="M36.1645 90.9824C40.4265 100.009 46.5942 108.198 49.1782 110.621C49.402 110.831 49.8045 110.556 49.6205 110.28C47.2917 106.791 43.482 103.249 36.34 90.8797C36.2733 90.7647 36.1093 90.8659 36.1645 90.9824Z" fill="black"/>
<path d="M42.21 76.9903C43.632 79.405 47.8625 86.3844 49.7306 88.3813C49.979 88.6473 50.3814 88.3092 50.2197 88.0041C49.4393 86.5293 46.5272 82.6659 42.5312 76.8033C42.3978 76.6078 42.0881 76.7818 42.2108 76.9903H42.21Z" fill="black"/>
<path d="M57.7548 76.775C59.7685 80.6514 62.407 84.7011 64.9419 88.0088C65.848 89.1908 66.7602 90.4495 67.9338 91.3816C68.2097 91.6008 68.6536 91.3295 68.4512 90.9822C67.1481 88.7462 64.0742 86.1989 58.0859 76.581C57.9548 76.371 57.6413 76.5557 57.7548 76.7742V76.775Z" fill="black"/>
<path d="M66.3211 106.381C65.7623 96.6732 65.2962 93.295 65.9624 85.7338C65.9815 85.5161 65.8129 85.3229 65.5906 85.3176C63.9218 85.2746 62.184 85.1911 60.4202 85.0753C57.7243 81.9992 54.7646 79.1361 51.6041 76.5481C51.0346 76.0821 50.6559 76.1005 50.1369 76.4577C47.244 78.4408 44.4055 80.5657 41.6796 82.7879C39.4497 82.3763 37.5625 81.9555 36.1942 81.5576C35.9634 81.4917 35.7281 81.6496 35.7051 81.8903C34.9217 90.3001 35.3303 95.4245 36.0631 103.089C36.0784 103.248 36.1903 103.381 36.3436 103.423C44.2069 105.565 53.972 106.191 65.9194 106.786H65.9386C66.1586 106.786 66.3341 106.602 66.3211 106.381ZM50.8153 76.9606C51.1404 76.9775 55.7696 81.0241 59.3286 84.9987C53.4691 84.5702 47.4157 83.7983 42.6746 82.9665C45.4932 80.6945 50.5578 76.9698 50.8153 76.9606ZM44.4982 93.3341C44.4767 94.3468 44.3694 95.4582 43.7455 96.2976C43.2579 96.9545 42.4799 97.449 41.6397 97.4367C39.3202 97.4014 38.5758 93.6829 39.1645 91.4392C39.8452 88.846 42.2752 87.9422 43.8589 90.2319C44.4369 91.0675 44.5181 92.425 44.4982 93.3341ZM46.4092 94.7538C46.4322 95.3149 46.4744 95.8745 46.5388 96.4325C46.5863 96.8434 46.8209 97.9396 46.0873 97.9066C45.4142 97.8759 45.4357 96.7529 45.3897 96.2869C45.2088 94.4533 45.1781 91.65 45.8075 89.9115C45.937 89.5543 46.4422 89.5604 46.5411 89.8954C47.3766 89.6003 48.9235 90.1031 49.759 91.1088C51.1611 92.7953 49.3888 95.4705 46.4092 94.7538ZM54.9716 99.4282C54.3392 99.5608 53.568 99.3638 52.9379 99.2496C52.3592 99.1446 51.5773 99.084 51.2362 98.5306C50.9372 98.0453 50.928 97.3256 50.8782 96.7736C50.662 94.3866 51.2094 91.9704 51.6018 91.3035C51.9192 90.7647 52.662 90.7539 53.2146 90.7164C53.8202 90.6757 54.5852 90.6543 55.0927 91.0337C55.3035 91.1909 55.2805 91.4944 55.0206 91.5872C54.402 91.8064 53.7827 91.6171 52.7831 91.8102C52.5048 91.8639 52.5385 91.8179 52.4604 92.0977C52.2595 92.8167 52.1162 93.5557 52.0388 94.2992C52.3086 94.2571 52.5899 94.2548 52.8567 94.2525C53.5167 94.2463 54.2089 94.244 54.4925 94.5001C54.6895 94.6771 54.6581 95.0819 54.4028 95.1969C54.1981 95.2888 54.0425 95.2704 53.8287 95.239C52.9808 95.1164 52.5385 95.098 51.9843 95.0313C51.9491 95.8009 51.9866 96.5506 52.0679 97.1822C52.0901 97.3539 52.0832 97.741 52.1913 97.8828C52.2664 97.9802 52.537 97.9994 52.6704 98.0285C54.0142 98.3205 54.4151 98.1925 54.9716 98.3972C55.4246 98.5643 55.5312 99.3109 54.9716 99.4282ZM60.8855 99.3792C60.8778 99.8843 60.1121 100.163 59.8729 99.6528C58.9185 97.6168 58.0255 95.5518 57.1831 93.4675C56.7323 96.5429 56.9976 98.3895 56.7661 99.5371C56.7047 99.8398 56.3015 99.7793 56.2119 99.5371C55.512 97.6452 56.0907 93.4162 56.4947 91.4538C56.6089 90.9003 57.3256 91.0253 57.4951 91.4538C58.2317 93.315 59.0151 95.1562 59.8361 96.9806L59.9258 91.1794C59.9365 90.4795 61.0235 90.4795 61.0128 91.1794L60.8855 99.3792Z" fill="black"/>
<path d="M41.645 90.0709C39.8704 90.4718 39.8007 93.9405 40.6922 95.5702C41.3966 96.858 42.7082 96.221 43.1068 95.0589C43.3421 94.3728 43.3575 93.6339 43.3521 92.9156C43.3421 91.5596 42.8906 90.0081 41.645 90.0709Z" fill="black"/>
<path d="M46.5448 90.5637C46.5018 91.4177 46.3915 92.0056 46.3892 93.5901C46.6345 93.5801 48.1461 94.1105 48.9333 93.1202C49.2446 92.7292 49.263 92.3804 49.1648 92.014C48.8827 91.4215 47.8264 90.6089 46.5448 90.5637Z" fill="black"/>
<path d="M138.145 115.22C137.606 114.453 136.611 113.883 135.905 113.479C135.466 113.228 135.06 112.962 134.55 112.949C133.944 112.933 133.456 113.305 133.009 113.309C132.652 113.305 132.264 113.024 131.834 112.853C130.811 112.443 129.588 112.68 128.792 113.443C128.076 114.128 128.292 114.377 126.982 114.879C126.501 115.063 126.003 115.253 125.536 115.889C125.254 116.274 125.077 116.646 125.006 117.006C124.814 117.001 124.627 117.139 124.61 117.361C124.44 119.655 124.817 121.937 125.182 124.143C125.79 127.83 126.795 129.716 130.984 130.163C132.59 130.332 134.313 130.259 135.687 129.408C136.871 128.674 137.773 127.366 138.224 125.722C138.697 124.001 138.649 122.824 138.782 115.519C138.789 115.156 138.369 115.024 138.145 115.221V115.22ZM126.154 116.341C126.905 115.319 127.726 115.899 128.955 114.409C129.073 114.266 129.19 114.122 129.322 113.996C129.711 113.624 130.255 113.422 130.796 113.422C132.097 113.422 132.197 114.494 133.899 113.871C134.476 113.658 134.642 113.633 135.264 113.993C136.162 114.513 137.462 115.205 137.712 116.069C135.906 118.887 128.647 119.114 125.743 117.451C125.711 117.124 125.847 116.758 126.153 116.341L126.154 116.341Z" fill="black"/>
<path d="M130.349 102.501C130.852 99.2994 127.704 95.2704 125.151 93.2744C122.233 90.9954 119.96 92.2387 119.682 94.6396C119.56 95.7005 119.835 96.7637 120.378 99.5424C120.693 101.151 121.085 103.152 122.328 104.603C123.492 105.96 125.582 106.634 127.116 105.794C127.607 107.091 128.096 108.537 128.56 110.144C129.314 112.748 129.482 114.084 129.893 115.168C129.946 115.308 130.161 115.295 130.163 115.131C130.188 113.564 129.387 109.825 127.769 105.505C129.138 105.172 130.143 103.801 130.348 102.501L130.349 102.501ZM127.492 104.778C126.631 102.573 125.563 100.242 124.289 97.9902C123.877 97.2612 123.473 96.3536 122.851 95.7802C122.644 95.5893 122.271 95.7741 122.36 96.0661C122.679 97.104 124.71 99.7249 126.79 104.954C126.746 105.008 126.716 105.074 126.705 105.145C125.501 105.765 123.815 105.161 122.91 104.106C121.798 102.809 121.443 100.997 121.13 99.3968C120.535 96.3528 120.339 95.6284 120.443 94.7293C120.669 92.7845 122.367 92.0724 124.678 93.8799C127.026 95.715 130.043 99.5164 129.591 102.383C129.423 103.452 128.598 104.565 127.492 104.778Z" fill="black"/>
<path d="M144.89 75.2719C144.123 73.262 142.684 73.0772 140.848 74.1979C137.176 76.4409 134.159 79.6298 132.122 83.4204C130.504 86.4298 130.337 88.7004 131.637 89.9851C132.461 90.8007 133.39 90.662 134.351 90.9617C131.703 99.0549 130.872 109.258 131.54 114.703C131.559 114.857 131.778 114.865 131.785 114.703C131.975 110.73 131.506 101.749 134.98 91.2016C136.246 91.7574 137.482 92.6703 138.956 92.6703C140.68 92.6703 141.954 91.4653 142.637 89.8809C142.982 89.0813 143.175 88.2328 143.362 87.4118C144.304 83.2694 146.388 79.2005 144.89 75.2711L144.89 75.2719ZM142.785 86.5157C142.348 88.3056 141.969 90.9042 139.996 91.6968C138.306 92.3752 137.023 91.2346 135.221 90.491C137.455 84.0252 140.156 80.3818 141.452 78.1151C141.57 77.9073 141.281 77.6682 141.113 77.8537C138.446 80.7949 135.985 86.2275 134.59 90.2572C133.394 89.8686 132.787 90.0441 132.176 89.4409C130.871 88.1492 131.793 85.6518 132.798 83.7837C134.771 80.1127 137.693 77.0243 141.249 74.8526C142.679 73.9787 143.585 73.9994 144.175 75.5455C145.535 79.1116 143.616 83.1222 142.786 86.5165L142.785 86.5157Z" fill="black"/>
<path d="M139.313 98.22C137.344 98.972 135.042 100.632 134.483 103.036C134.194 104.285 134.544 105.08 135.655 105.694C135.908 105.834 136.088 105.886 136.241 105.933C135.106 108.041 133.371 112.289 133.274 114.561C133.264 114.8 133.594 114.817 133.668 114.614C134.44 112.486 134.373 110.742 136.789 106.243C137.259 106.707 137.433 107.327 138.145 107.672C138.493 107.842 138.839 107.926 139.178 107.926C141.266 107.926 142.447 104.876 143.2 102.936C143.479 102.22 143.737 101.446 143.74 100.637C143.747 98.565 142.108 97.1515 139.313 98.22ZM142.487 102.659C141.699 104.687 140.443 107.936 138.48 106.984C137.953 106.729 137.801 106.077 137.17 105.557C138.442 103.337 139.437 102.323 140.331 100.931C140.475 100.707 140.162 100.495 139.979 100.658C138.788 101.719 137.392 103.908 136.621 105.252C136.427 105.185 136.239 105.142 136.026 105.024C135.221 104.579 135.02 104.121 135.231 103.21C136.251 98.8187 145.122 95.8775 142.487 102.66V102.659Z" fill="black"/>
</svg>
