<svg width="154" height="154" viewBox="0 0 154 154" fill="none" xmlns="http://www.w3.org/2000/svg">
<path d="M46.8342 121.653C46.2287 120.803 45.9834 122.021 40.0198 125.793C40.5804 124.253 41.2755 122.765 42.0971 121.347C42.189 121.194 41.9438 121.056 41.8518 121.209C41.0839 121.262 40.3125 121.229 39.5522 121.109C38.7857 121.048 34.4548 120.918 34.0868 120.925C33.9512 120.906 33.8131 120.916 33.6812 120.953C33.5493 120.99 33.4264 121.053 33.3203 121.14C33.098 121.354 29.0967 128.161 26.2452 132.806C26.2338 132.826 26.2272 132.848 26.2258 132.871C26.2245 132.893 26.2284 132.916 26.2374 132.937C26.2463 132.958 26.26 132.976 26.2773 132.991C26.2946 133.005 26.3151 133.016 26.3372 133.021C27.1192 133.086 27.906 133.063 28.6828 132.952C29.5279 133.004 30.3682 133.116 31.197 133.289C32.0479 133.397 32.8987 133.443 33.7572 133.504C35.7349 133.642 35.8805 133.673 36.0568 133.565C36.2331 133.458 37.5132 131.266 37.6665 131.036C38.4604 131.889 39.1786 132.81 39.8128 133.788C39.9956 133.84 40.1909 133.826 40.3647 133.749C40.84 133.596 47.0565 131.204 49.2871 128.629C49.5784 128.292 49.816 128.123 49.6321 127.678C49.4481 127.234 47.1408 122.083 46.8342 121.653ZM35.8728 133.335C35.8039 133.427 30.8904 132.967 30.4228 132.891C29.9552 132.814 29.5643 132.722 29.1274 132.684C28.2995 132.615 27.4563 132.891 26.6361 132.776C28.1692 130.415 32.4924 123.133 33.1976 121.899C33.3586 121.607 33.4889 121.232 33.8799 121.201C34.2708 121.171 38.732 121.339 39.5292 121.393C40.254 121.481 40.9859 121.496 41.7138 121.439C39.5752 125.087 39.1076 128.989 35.8728 133.335ZM49.2718 128.284C47.7847 130.43 39.9814 133.581 39.8435 133.473C39.2917 132.484 38.6055 131.576 37.8045 130.775C37.9731 130.484 39.3376 127.517 39.8588 126.176C39.9355 126.115 46.3053 121.699 46.382 121.692C46.4586 121.684 46.6426 121.891 46.7039 121.998C46.7652 122.106 49.1032 127.249 49.1951 127.464C49.2871 127.678 49.4941 127.977 49.2795 128.284H49.2718Z" fill="black"/>
<path d="M34.3932 124.666C34.8608 123.8 34.2783 123.21 33.6267 123.363C33.4867 123.383 33.3523 123.431 33.2316 123.505C33.1109 123.579 33.0065 123.677 32.9247 123.792C32.843 123.908 32.7856 124.039 32.756 124.177C32.7265 124.315 32.7254 124.458 32.7529 124.597C32.8035 124.771 32.9074 124.925 33.0501 125.037C33.1928 125.149 33.3671 125.213 33.5483 125.221C33.7295 125.228 33.9085 125.179 34.0601 125.079C34.2117 124.98 34.3282 124.835 34.3932 124.666ZM35.8726 123.838C35.778 124.04 35.7554 124.267 35.8084 124.484C35.8614 124.7 35.9869 124.891 36.1639 125.026C36.3468 125.165 36.5703 125.241 36.8001 125.241C37.03 125.241 37.2535 125.165 37.4364 125.026C37.6127 124.882 37.7403 124.687 37.802 124.467C37.8637 124.248 37.8565 124.015 37.7813 123.8C37.6876 123.626 37.5479 123.482 37.3775 123.382C37.2071 123.283 37.0125 123.232 36.8153 123.236C36.618 123.24 36.4257 123.299 36.2594 123.405C36.0931 123.511 35.9593 123.661 35.8726 123.838ZM35.3897 126.352C35.2669 126.435 35.1642 126.544 35.0894 126.671C35.0146 126.799 34.9696 126.942 34.9578 127.089C34.946 127.237 34.9677 127.385 35.0213 127.523C35.0748 127.661 35.1589 127.785 35.2671 127.885C35.957 128.407 36.9305 127.249 36.4552 126.467C36.1409 125.931 35.4894 126.283 35.3897 126.352ZM32.1013 126.406C31.89 126.644 31.7776 126.954 31.787 127.272C31.7945 127.408 31.8423 127.539 31.9243 127.649C32.0064 127.758 32.1189 127.84 32.2478 127.885C32.3767 127.93 32.516 127.936 32.6482 127.902C32.7804 127.868 32.8996 127.796 32.9905 127.694C33.2358 127.464 33.5424 126.828 33.3814 126.521C33.3217 126.408 33.2347 126.312 33.1284 126.241C33.022 126.171 32.8997 126.128 32.7726 126.116C32.6454 126.105 32.5174 126.125 32.4002 126.176C32.2829 126.226 32.1802 126.306 32.1013 126.406ZM33.8413 131.273C33.8963 131.402 33.9876 131.511 34.1041 131.588C34.2206 131.665 34.3572 131.706 34.4967 131.706C34.6363 131.706 34.7728 131.665 34.8893 131.588C35.0058 131.511 35.0972 131.402 35.1521 131.273C35.231 131.164 35.2855 131.039 35.3119 130.907C35.3384 130.775 35.3362 130.638 35.3054 130.507C34.8762 129.365 33.5731 130.553 33.8413 131.273ZM31.6797 129.51C31.5814 129.459 31.4732 129.43 31.3625 129.425C31.2519 129.419 31.1413 129.438 31.0386 129.48C30.9359 129.521 30.8434 129.585 30.7675 129.665C30.6916 129.746 30.6341 129.842 30.5989 129.947C30.52 130.081 30.4784 130.233 30.4784 130.388C30.4784 130.543 30.52 130.695 30.5989 130.829C30.6771 130.904 30.7702 130.961 30.8722 130.997C30.9742 131.034 31.0827 131.048 31.1906 131.039C31.2985 131.031 31.4034 130.999 31.4982 130.947C31.5931 130.895 31.6759 130.823 31.741 130.737C31.8389 130.615 31.9024 130.47 31.925 130.315C31.948 130.032 31.9787 129.641 31.6797 129.51ZM40.1422 131.105C40.1569 131.209 40.1998 131.308 40.2662 131.39C40.3326 131.472 40.4201 131.535 40.5193 131.571C40.6185 131.607 40.7257 131.616 40.8294 131.596C40.9331 131.576 41.0294 131.528 41.1081 131.457C41.2098 131.372 41.292 131.265 41.3488 131.144C41.4057 131.024 41.436 130.893 41.4377 130.76C41.4431 130.689 41.4336 130.617 41.4099 130.55C41.3861 130.483 41.3486 130.421 41.2997 130.369C40.6405 129.848 40.0809 130.499 40.1422 131.105ZM43.538 128.154C43.3507 128.214 43.1785 128.313 43.033 128.445C42.8876 128.577 42.7722 128.739 42.6948 128.92C42.5645 129.242 42.5798 130.101 43.7066 129.993C45.1937 129.825 45.071 127.571 43.538 128.154ZM46.0292 126.015C45.5233 125.655 44.6111 126.322 44.5804 126.973C44.5804 127.793 45.4619 127.64 45.6612 127.579C45.8203 127.536 45.9649 127.451 46.0795 127.333C46.1941 127.214 46.2746 127.067 46.3123 126.907C46.35 126.746 46.3436 126.579 46.2938 126.422C46.2439 126.265 46.1525 126.124 46.0292 126.015ZM44.5728 125.639C44.7037 125.598 44.8211 125.522 44.9127 125.42C45.0042 125.317 45.0666 125.192 45.0933 125.057C45.1199 124.923 45.1098 124.783 45.0641 124.654C45.0184 124.524 44.9387 124.409 44.8334 124.321C44.4118 123.984 43.7832 124.183 43.6606 124.904C43.6419 124.981 43.6391 125.062 43.6522 125.141C43.6654 125.22 43.6943 125.296 43.7373 125.363C43.7986 125.44 44.2125 125.854 44.5728 125.639ZM43.216 126.851C43.285 126.72 43.7986 125.317 42.6488 125.448C41.499 125.578 41.0007 127.287 42.4418 127.287C42.598 127.29 42.752 127.25 42.888 127.174C43.0241 127.097 43.1372 126.985 43.216 126.851ZM41.2384 128.092C41.292 127.97 41.2384 126.973 40.5332 127.188C39.552 127.487 39.1841 128.591 40.2419 128.721C40.6865 128.782 40.9854 128.667 41.2384 128.092ZM20.0898 130.323C19.8752 130.377 19.3233 130.653 19.1853 129.855C19.1163 129.549 18.7484 129.418 18.4187 129.365C17.6522 129.234 17.085 129.825 16.5791 130.315C16.2725 130.614 15.6746 130.913 15.4753 130.315C15.368 130.001 15.4139 129.656 15.3066 129.334C15.1993 129.012 15.0153 128.683 14.7471 128.79C14.5527 128.861 14.3459 128.893 14.1391 128.882C13.9322 128.872 13.7297 128.82 13.5436 128.729C13.2117 128.717 12.8821 128.789 12.5858 128.939C12.2895 129.089 12.0362 129.312 11.8496 129.587C11.7499 129.74 11.5123 130.185 11.4127 130.17C11.2607 130.088 11.1254 129.979 11.0141 129.848C9.481 127.947 7.31172 129.848 8.65314 131.197C8.91905 131.382 9.13284 131.633 9.27403 131.925C9.33015 132.34 9.26073 132.761 9.07474 133.136C8.86777 133.903 9.02874 135.535 9.94092 135.88C12.6698 136.93 13.8502 138.019 14.6857 138.333C15.5285 138.602 16.4338 138.602 17.2766 138.333C17.4425 138.313 17.6016 138.255 17.7412 138.163C17.8809 138.072 17.9973 137.949 18.0815 137.804C18.3366 136.971 18.4277 136.096 18.3498 135.229C18.3498 135.006 18.2884 134.684 18.848 134.684C19.3798 134.697 19.904 134.556 20.357 134.277C20.81 133.998 21.1725 133.594 21.4005 133.113C21.9831 131.695 21.6075 129.947 20.0898 130.323ZM21.3546 132.4C21.2113 132.995 20.8776 133.526 20.4044 133.914C19.9311 134.301 19.3442 134.523 18.733 134.546C18.5414 134.546 18.3038 134.462 18.1965 134.677C18.0891 134.891 18.2961 135.873 18.0661 137.137C17.9895 137.559 17.9128 137.958 17.4529 138.103C14.9234 138.87 13.9345 137.337 11.4893 136.248C10.7764 135.942 9.91025 135.85 9.54232 135.083C9.24403 134.424 9.17915 133.683 9.35835 132.983C9.94092 131.526 8.96742 131.45 8.59182 130.76C8.07825 129.779 9.61131 128.683 10.6691 129.863C10.8837 130.108 11.0294 130.446 11.3897 130.507C11.7499 130.568 11.8802 130.361 11.9952 130.085C12.1255 129.763 12.3562 129.491 12.6531 129.31C12.9499 129.13 13.2971 129.049 13.6433 129.081C14.0162 129.177 14.405 129.195 14.7854 129.135C15.115 129.081 15.0997 129.748 15.1303 130.016C15.1355 130.299 15.2415 130.571 15.4293 130.783C15.9965 131.304 16.6327 130.668 17.016 130.277C17.2996 130.001 18.3268 129.196 18.963 130.047C19.1316 130.277 19.1393 130.599 19.4459 130.699C19.7525 130.798 20.0591 130.607 20.3581 130.584C21.3086 130.453 21.4849 131.695 21.3546 132.4Z" fill="black"/>
<path d="M16.0427 134.37C15.3298 134.662 13.1835 134.746 13.1375 132.998C13.1375 132.822 13.3445 132.707 13.5284 132.692C13.5528 132.692 13.5762 132.682 13.5935 132.665C13.6107 132.647 13.6204 132.624 13.6204 132.6C13.6204 132.575 13.6107 132.552 13.5935 132.535C13.5762 132.517 13.5528 132.508 13.5284 132.508C13.3478 132.527 13.18 132.611 13.055 132.743C12.9301 132.875 12.8561 133.047 12.8462 133.228C12.8079 133.673 13.4901 135.305 16.1346 134.7C16.3493 134.646 16.242 134.286 16.0427 134.37ZM131.122 84.2085C127.683 83.5799 124.231 83.0689 120.766 82.6754C120.559 82.6754 120.567 82.9667 120.766 82.9897C124.21 83.4087 127.642 83.8993 131.061 84.4614C131.206 84.4614 131.268 84.2315 131.122 84.2085ZM34.7077 85.2663C34.7077 85.4273 34.9606 85.4656 34.9913 85.2663C35.2749 83.6183 35.4436 57.2956 15.759 42.5322C15.6671 42.4632 15.5751 42.6165 15.6671 42.6855C35.7348 58.7137 34.7383 84.86 34.7077 85.2663Z" fill="black"/>
<path d="M149.112 51.9988C149.112 51.9528 149.005 51.8225 148.959 51.8225C144.826 50.6014 140.623 49.6313 136.373 48.9173C136.373 48.9173 136.373 46.8553 136.227 45.8512C136.17 45.0377 135.802 44.2774 135.2 43.7279C134.964 43.5011 134.664 43.3518 134.341 43.2997C134.018 43.2477 133.686 43.2954 133.391 43.4366V41.8422C133.238 41.6075 133.023 41.4192 132.77 41.298C130.816 40.7904 128.809 40.5177 126.791 40.4855C122.192 40.6771 121.142 41.252 121.08 41.6276C120.751 43.9272 121.241 49.1243 121.303 50.1131C121.264 50.0364 110.157 51.1326 108.67 51.2936C108.64 51.3068 108.613 51.3268 108.592 51.352C108.571 51.3773 108.555 51.4071 108.548 51.4392C108.724 58.43 109.214 62.3009 109.245 62.5539C107.252 60.3485 105.072 58.3199 102.73 56.4906C102.908 53.9106 102.649 51.3189 101.963 48.8253C101.403 46.2958 100.852 43.7586 100.2 41.252C97.6398 31.4404 95.4475 30.3749 94.8343 25.6454C94.6066 23.037 94.6451 20.4121 94.9493 17.8115C94.9453 17.6491 94.8958 17.4912 94.8063 17.3557C94.7168 17.2201 94.5911 17.1125 94.4434 17.045C94.1336 16.9443 93.8021 16.931 93.4852 17.0066C93.0713 17.0833 87.6059 18.601 86.6324 18.7083C84.6769 18.8616 82.7105 18.7999 80.7685 18.5244C76.1693 18.0185 72.9729 18.3251 68.4427 18.877C68.0671 15.1823 62.1341 13.6109 58.8687 17.1216C58.7614 16.9913 57.397 15.5886 57.3356 15.5886C56.3391 14.6074 54.3692 15.1056 53.0814 15.6499C51.1037 16.4931 50.0766 17.9495 50.3372 20.1341C47.0105 20.0191 45.876 21.2379 45.3701 21.7821C39.3682 23.1465 36.5703 24.3653 32.1244 27.1478C26.935 30.4133 21.738 34.3072 15.4677 33.8703C14.213 33.6874 12.9369 33.7081 11.6887 33.9316C11.6693 33.9304 11.65 33.9344 11.6327 33.9434C11.6154 33.9523 11.6009 33.9657 11.5907 33.9822C11.5804 33.9988 11.5749 34.0178 11.5746 34.0372C11.5743 34.0566 11.5793 34.0758 11.5891 34.0926C13.1221 36.2006 12.1103 38.7378 11.7501 41.0527C11.3342 43.92 11.1981 46.8209 11.3438 49.7145C11.6617 57.084 13.5817 64.2957 16.9701 70.8477C18.6335 74.1898 20.7415 77.2559 22.7191 80.4217C25.9769 85.6571 33.5579 92.9852 34.0791 93.4527C34.1012 93.4693 34.1286 93.4774 34.1562 93.4754C34.1838 93.4735 34.2098 93.4616 34.2294 93.4421C34.249 93.4225 34.2608 93.3965 34.2628 93.3689C34.2647 93.3413 34.2567 93.3139 34.2401 93.2918C20.9254 80.2607 15.7284 67.2987 14.8928 65.0911C13.1758 60.6989 10.3013 51.7458 12.4936 38.8374C12.6852 37.7413 13.1145 35.6333 11.8727 34.1156C13.7967 33.7017 15.4371 34.4835 18.5569 34.0466C27.4409 32.7895 32.8603 24.7486 44.9715 22.2727C44.5404 22.8039 44.2245 23.4189 44.0437 24.0787C43.8629 24.7385 43.8213 25.4286 43.9213 26.1054C44.0655 27.7149 44.6459 29.2547 45.6 30.5589C45.3667 31.0526 45.2456 31.5919 45.2456 32.138C45.2456 32.684 45.3667 33.2233 45.6 33.717C46.7728 36.2772 46.6579 40.0026 46.6042 41.0834C46.5276 42.6931 46.3436 43.1377 46.6042 44.0728C46.8955 45.1383 47.2711 45.0847 47.6773 46.2191C48.0699 47.379 48.1466 48.6225 47.8996 49.8218C47.6007 51.5082 46.9491 51.7381 46.9491 52.8879C47.0098 53.9919 47.4896 55.031 48.2906 55.7931C36.1411 71.8902 38.4636 86.8759 39.1612 90.9385C35.5048 90.8925 31.7488 97.523 30.967 98.7111C30.2618 99.7766 27.9009 102.674 24.8884 103.602C23.4013 102.613 23.3553 102.536 23.2787 102.605C22.6283 103.04 21.8905 103.328 21.1171 103.448C21.1171 103.448 19.7066 102.889 19.584 102.161C19.515 101.808 21.0251 100.459 19.6913 99.194C19.2467 98.7725 18.6412 98.2742 16.2803 97.1168C15.1458 96.5648 13.6204 95.921 12.4476 96.7411C12.4124 96.7647 12.3873 96.8006 12.3773 96.8418C12.3674 96.883 12.3733 96.9264 12.3939 96.9634C13.4518 99.0407 12.256 101.31 10.7306 102.781C10.7086 102.805 10.6938 102.834 10.6879 102.866C10.6821 102.897 10.6854 102.93 10.6975 102.96C10.7096 102.99 10.7299 103.015 10.7562 103.034C10.7824 103.053 10.8134 103.063 10.8456 103.065C14.2873 103.333 14.3716 106.131 14.3793 106.231C4.0081 110.401 4.44502 110.148 4.44502 110.362C4.72097 112.01 5.62548 117.798 5.75579 117.943C8.66298 120.366 11.7973 122.501 15.1151 124.321C15.1688 124.321 23.547 121.485 32.592 117.752C32.845 117.652 32.6917 117.499 32.5154 116.548C32.7377 115.866 33.006 115.782 33.5808 115.996C34.1557 116.211 34.5467 118.058 36.2714 117.759C36.6601 117.702 37.0444 117.618 37.4212 117.506C37.7201 117.407 38.2337 117.1 38.1877 116.74C39.7208 116.602 45.5004 115.973 48.9958 111.857C54.2723 117.618 59.9513 122.998 65.9898 127.954C66.2469 127.98 66.5065 127.959 66.7563 127.893C67.9429 129.327 69.4872 130.421 71.2328 131.066C71.6774 131.243 71.7847 130.898 71.5548 130.476C71.9917 130.637 72.7046 130.875 73.0878 130.614C73.1791 130.544 73.2434 130.445 73.2699 130.333C73.2965 130.222 73.2836 130.104 73.2335 130.001C73.2335 130.001 74.1073 130.139 74.253 129.786C74.3986 129.434 74.1533 129.273 73.9234 129.096C74.2376 129.096 74.5212 128.866 74.4446 128.506C74.3679 128.146 73.2565 127.249 72.3213 126.935C72.7889 126.582 73.4021 125.961 72.9652 125.601C72.5283 125.241 71.8154 125.969 70.7882 125.172C70.9373 124.955 71.0535 124.717 71.1332 124.467C70.3667 121.255 68.5117 115.268 62.525 102.889C64.8246 100.988 76.5679 91.3294 85.7893 87.6961C92.0075 85.2057 98.6615 83.9859 105.359 84.1087C106.723 85.8564 109.582 92.211 110.724 94.5795C112.495 98.1354 114.602 101.513 117.018 104.667C117.361 104.751 117.716 104.777 118.068 104.744C118.068 106.039 117.102 106.154 117.102 106.714C117.102 107.273 118.045 107.166 118.558 107.02C118.344 107.672 118.068 109.19 118.558 109.673C118.611 109.725 118.674 109.764 118.743 109.789C118.812 109.814 118.887 109.823 118.96 109.815C119.033 109.808 119.104 109.785 119.167 109.747C119.23 109.709 119.284 109.657 119.325 109.596C119.325 110.362 119.862 110.654 120.467 109.596C120.511 109.685 120.582 109.759 120.67 109.805C120.758 109.852 120.859 109.87 120.958 109.856C121.326 109.818 121.786 108.737 121.832 108.546C121.889 108.693 121.991 108.819 122.123 108.906C122.544 109.113 122.598 108.231 122.659 108.001C123.055 106.468 123.037 104.857 122.606 103.333C122.606 103.333 122.897 103.241 122.882 103.111C122.077 88.8919 120.107 76.8343 111.782 65.7503C121.985 67.5747 131.712 74.2588 140.91 74.7877C141.064 74.7877 141.056 74.5578 140.91 74.5501C138.514 74.182 136.145 73.6519 133.82 72.9634C133.667 69.1307 133.138 59.4264 133.054 58.3993C135.161 57.7401 146.146 54.0071 148.767 52.267C148.139 58.5679 149.534 67.6743 149.779 68.8701C149.779 69.0617 150.094 68.9774 150.063 68.7934C149.381 64.4165 148.553 55.3332 149.112 51.9988ZM133.391 43.7279C134.847 43.2143 135.69 44.4101 135.913 45.9278C136.012 46.7404 136.028 48.718 136.035 48.8866C135.974 48.8866 133.82 48.9863 133.375 49.0476C133.375 47.2769 133.391 45.4986 133.391 43.7279ZM133.391 49.2163C133.866 49.1626 136.005 49.1549 136.058 49.1473C136.058 51.6078 133.981 50.8106 133.383 50.8413C133.375 50.6497 133.375 49.5612 133.375 49.2009L133.391 49.2163ZM121.264 42.0185C126.791 45.4373 133.031 42.2408 133.054 42.2255V50.5883C133.054 52.3667 132.663 53.2635 130.555 53.6545C127.312 54.283 122.529 54.1374 121.747 50.9179C121.394 47.9649 121.228 44.9925 121.249 42.0185H121.264ZM68.4733 19.1453C79.8793 17.9418 80.5845 19.3599 85.0917 19.2449C86.939 19.1912 86.4408 19.3369 93.3702 17.4436C93.6999 17.3516 94.2211 17.2213 94.4817 17.5355C94.7423 17.8498 93.7918 23.0162 94.4817 26.0134C95.1217 28.4314 95.9919 30.7827 97.0802 33.0348C99.1805 37.7413 100.246 42.7851 101.411 47.7905C102.063 50.6037 102.699 53.4398 102.477 56.345C100.568 54.8962 88.8784 46.9013 76.9895 45.3683C77.3043 44.7323 77.4013 44.0105 77.2654 43.314C76.7902 41.252 73.8697 41.0757 71.7464 36.5838C71.6391 36.6605 79.1818 29.731 79.6263 29.2251C80.5002 28.244 80.2856 27.2322 79.6263 26.7109C78.6605 25.9444 77.3268 26.7109 76.4759 27.2322C75.97 27.5618 71.8767 31.3408 71.0105 32.1533C71.2788 30.3596 72.421 23.4762 68.4043 20.433C68.4695 20.0071 68.4926 19.5757 68.4733 19.1453ZM71.3401 36.3462C71.1715 36.5072 69.8071 37.8179 69.2705 38.2625C69.0726 38.4642 68.8086 38.5877 68.5269 38.6102C68.2452 38.6328 67.9649 38.5528 67.7375 38.3852C67.7046 38.3533 67.6606 38.3355 67.6148 38.3355C67.569 38.3355 67.5251 38.3533 67.4922 38.3852C67.4385 38.4388 65.7215 40.2095 65.6908 40.2862C65.5912 40.0792 65.2999 40.0026 65.0699 39.9642C65.7751 39.397 66.4497 38.7914 67.1396 38.2012C67.2009 38.1476 66.9019 37.4347 66.8943 37.266C66.9121 36.972 66.9892 36.6847 67.1209 36.4212C67.2526 36.1577 67.4363 35.9236 67.6608 35.733C68.5423 34.8438 76.6062 27.5158 77.0891 27.2551C77.5796 26.9252 78.1539 26.7417 78.7448 26.7262C79.6647 26.8259 80.2089 27.876 79.3887 28.8572C79.0208 29.3018 76.6599 31.4097 76.6215 31.4557C76.3626 31.3483 76.1299 31.1862 75.9393 30.9805C75.9393 30.9268 75.8014 30.9805 75.786 31.0725C75.7707 31.1645 76.062 31.5094 76.4069 31.6474L75.2725 32.6899C75.0348 32.6285 74.8969 32.3449 74.8585 32.3296C74.8406 32.3232 74.8215 32.3214 74.8027 32.3242C74.784 32.3271 74.7662 32.3346 74.751 32.3459C74.7358 32.3573 74.7237 32.3723 74.7157 32.3895C74.7077 32.4067 74.7041 32.4256 74.7052 32.4446C74.7052 32.6745 75.0808 32.8662 75.0808 32.8662L74.1993 33.7017C74.0108 33.5807 73.8554 33.4148 73.7471 33.2188C73.7471 33.1651 73.6167 33.2188 73.6167 33.2724C73.6167 33.5637 73.9617 33.8167 74.0307 33.8626L72.8962 34.9051C72.7293 34.7535 72.5469 34.6199 72.352 34.5065C72.306 34.5065 72.2217 34.5908 72.26 34.6215C72.4321 34.7518 72.5867 34.9038 72.7199 35.0738L71.5088 36.1699C71.3472 36.0767 71.2064 35.9515 71.0949 35.802H70.9645C70.7806 35.9399 71.1332 36.2542 71.3401 36.3462ZM69.9527 33.1498C69.5388 33.5407 67.5535 35.3344 67.0859 35.9246C66.8942 36.1276 66.749 36.3698 66.6603 36.6346C66.5716 36.8993 66.5416 37.1802 66.5723 37.4577C66.6228 37.6773 66.6974 37.8906 66.7946 38.0939C66.1124 38.6995 65.4225 39.2973 64.7633 39.9336C62.87 39.8263 62.0805 40.6234 61.8735 40.8994C61.8122 40.976 61.9272 41.0757 61.9961 41.022C63.4755 39.8109 65.3382 40.2555 65.4609 40.5391C65.5222 40.6618 65.8518 40.5391 65.9208 40.4701L67.5995 38.7531C67.7712 38.8673 67.9657 38.9429 68.1695 38.9747C68.3733 39.0065 68.5816 38.9936 68.7799 38.9371C69.4213 38.5985 70.0037 38.1584 70.5046 37.634C69.9757 42.6318 65.5452 44.7474 64.1424 45.2993C61.1759 46.4797 56.6304 46.6944 54.3768 44.5328C53.3823 43.6121 52.598 42.4879 52.0772 41.2367C51.569 41.2367 51.0816 41.0348 50.7222 40.6754C50.3628 40.316 50.1609 39.8286 50.1609 39.3203C50.1609 38.8121 50.3628 38.3247 50.7222 37.9653C51.0816 37.6059 51.569 37.404 52.0772 37.404C52.3532 36.9364 54.1085 35.0584 53.342 30.7659C53.9182 31.2565 54.5866 31.6271 55.3079 31.8561C56.0292 32.0852 56.7889 32.1679 57.5426 32.0996C58.6645 31.857 59.7047 31.329 60.5627 30.5666C62.4407 29.1791 62.8623 26.9025 67.3005 26.7799C68.5162 28.7494 69.4114 30.8995 69.9527 33.1498ZM65.9514 50.6803C64.3911 51.3671 62.6592 51.5648 60.9843 51.2474C59.3093 50.9299 57.7699 50.1121 56.5691 48.902C56.3504 48.4569 56.2919 47.9499 56.4036 47.4667C56.5154 46.9835 56.7904 46.5537 57.1823 46.2498C59.0933 46.6788 61.0801 46.6349 62.9702 46.1219C64.8604 45.609 66.5968 44.6425 68.0287 43.3063C70.3667 43.8735 69.2169 49.0323 65.9514 50.6803ZM66.718 50.6803C68.7723 51.4469 71.4551 58.0927 71.9917 59.8787C72.0377 60.032 72.1987 59.963 72.2906 59.9477C72.31 60.127 72.368 60.3001 72.4607 60.4549C72.5533 60.6097 72.6783 60.7426 72.8272 60.8445C72.8457 60.8474 72.8646 60.8458 72.8823 60.8398C72.9 60.8337 72.9159 60.8235 72.9288 60.8099C72.9416 60.7963 72.9509 60.7798 72.9559 60.7618C72.9609 60.7438 72.9615 60.7248 72.9575 60.7066C72.9575 60.6299 72.5053 60.2083 72.5436 59.894L73.3101 59.7254C73.5771 60.1909 73.7073 60.7223 73.6857 61.2585C73.6922 61.283 73.7066 61.3047 73.7268 61.3201C73.7469 61.3356 73.7715 61.344 73.7969 61.344C73.8222 61.344 73.8469 61.3356 73.867 61.3201C73.8871 61.3047 73.9015 61.283 73.908 61.2585C73.9479 60.7164 73.8048 60.1766 73.5018 59.7254L74.2683 59.5568C74.2498 59.7759 74.288 59.9961 74.3793 60.1961C74.4706 60.3962 74.6119 60.5693 74.7895 60.6989C74.8063 60.7047 74.8245 60.7056 74.8418 60.7013C74.859 60.6971 74.8747 60.6879 74.8869 60.6749C74.899 60.6619 74.9072 60.6457 74.9103 60.6282C74.9135 60.6107 74.9114 60.5926 74.9045 60.5762C74.9045 60.4843 74.3833 60.0243 74.4829 59.5108L75.4488 59.2885C75.6764 59.6091 75.8236 59.9798 75.878 60.3693C75.8881 60.3868 75.9026 60.4013 75.9201 60.4114C75.9376 60.4216 75.9575 60.4269 75.9777 60.4269C75.9979 60.4269 76.0177 60.4216 76.0352 60.4114C76.0527 60.4013 76.0672 60.3868 76.0773 60.3693C76.0998 60.1618 76.0749 59.9519 76.0046 59.7553C75.9342 59.5588 75.8202 59.3809 75.671 59.2348L76.3763 59.0738C77.6677 61.5128 78.6956 64.0824 79.4424 66.7391C79.5267 67.0457 79.6647 67.3984 79.4424 67.6666C76.6122 69.1893 73.6674 70.4887 70.6349 71.553C70.014 68.7015 68.2204 58.1693 66.6413 54.9116C66.0801 53.6849 65.2831 52.5806 64.2957 51.6615C65.1463 51.4635 65.9663 51.1515 66.7333 50.734L66.718 50.6803ZM72.214 59.6717C71.3329 56.8332 70.0111 54.1508 68.297 51.7228C67.9751 51.1979 67.5132 50.7732 66.9633 50.4964C67.7298 49.9215 69.1172 48.58 69.3165 47.093C71.0282 47.8985 72.6115 48.9523 74.0153 50.2204C76.4759 52.313 79.0285 57.3721 79.1741 57.8857C78.9441 58.039 73.4328 59.4034 72.2293 59.7101L72.214 59.6717ZM51.0961 17.7195C52.4912 15.4199 56.3928 14.96 57.1287 15.9105C57.4889 16.3781 56.8987 16.999 56.5844 17.3056C54.99 18.8386 52.1386 18.9766 51.7783 18.9766C51.418 18.9766 50.4369 18.808 51.0961 17.7195ZM44.3046 26.3736C43.883 22.633 46.6425 20.2414 50.4369 20.4714C50.5324 20.9892 50.6578 21.5011 50.8125 22.0044C50.8214 22.0297 50.8396 22.0507 50.8633 22.0633C50.887 22.0759 50.9145 22.0791 50.9405 22.0724C50.9665 22.0656 50.989 22.0494 51.0036 22.0269C51.0182 22.0044 51.0239 21.9772 51.0194 21.9508C50.7408 20.9542 50.6421 19.9159 50.7281 18.8846C51.1574 19.8121 53.4493 19.1836 54.1852 18.992C54.9211 18.8003 57.6422 17.8422 57.6652 16.1405C57.9949 16.5544 59.4129 18.1411 59.3823 18.5244C59.0757 22.2497 55.013 22.9319 54.2618 23.0316C54.241 23.0375 54.2227 23.0501 54.2097 23.0674C54.1966 23.0847 54.1896 23.1057 54.1896 23.1274C54.1896 23.149 54.1966 23.1701 54.2097 23.1874C54.2227 23.2047 54.241 23.2173 54.2618 23.2232C55.6723 23.3075 59.1523 22.4567 59.7885 18.9076C59.8575 18.5167 59.1753 17.4742 59.022 17.2979C59.8409 16.5663 60.8046 16.0153 61.8505 15.6805C64.3954 14.9523 66.9786 16.1635 67.6608 17.6352C68.688 19.8428 67.3465 22.196 67.1702 22.5716C66.35 24.304 61.7279 25.5228 59.5049 25.975C55.2583 26.8259 52.9587 29.7617 52.0542 30.2446C50.2759 31.1951 44.9868 32.5365 44.3046 26.3736ZM14.5326 105.158C14.3558 104.614 14.0502 104.121 13.6418 103.72C13.2334 103.32 12.7343 103.024 12.187 102.858C13.4715 102.745 14.7048 102.302 15.7667 101.57C15.8587 101.501 15.7667 101.348 15.6747 101.417C14.3158 102.179 12.8 102.62 11.2441 102.705C13.2295 100.643 13.4594 98.4888 12.7236 96.9251C13.7354 96.3119 15.0231 96.8561 15.989 97.3084C17.164 97.8216 18.2753 98.4699 19.3004 99.24C20.4732 100.329 19.4077 101.44 19.3004 101.846C18.7485 102.843 16.2956 103.686 15.3987 104.376C15.2761 104.46 15.3987 104.659 15.5137 104.575C16.5485 103.901 18.7945 103.042 19.2621 102.276C19.377 103.333 20.8871 103.456 21.5617 104.016C21.9516 104.355 22.2234 104.81 22.3377 105.314C22.4521 105.819 22.4031 106.346 22.1979 106.821C21.0548 107.585 19.8406 108.237 18.5722 108.768C17.2874 109.259 15.9646 109.643 14.6169 109.918C14.5314 109.906 14.4495 109.876 14.3767 109.83C14.3039 109.784 14.2421 109.722 14.1953 109.65C14.3889 108.906 14.7286 108.209 15.1945 107.598C15.6604 106.988 16.2431 106.476 16.9088 106.093C17.0161 106.039 16.9088 105.848 16.8245 105.894C16.1451 106.234 15.5457 106.715 15.066 107.304C14.5863 107.893 14.2373 108.578 14.042 109.312C13.7967 108.277 15.1764 107.212 14.5326 105.158ZM14.3563 106.522C14.2462 107.175 14.0476 107.809 13.766 108.408C13.6374 108.719 13.6189 109.065 13.7137 109.389C13.8085 109.712 14.0108 109.993 14.2873 110.186C14.5632 110.339 17.66 109.734 20.6035 108.139C20.9178 107.971 22.3972 107.036 22.4355 106.997C22.7174 106.386 22.758 105.691 22.549 105.052C22.34 104.412 21.897 103.875 21.3087 103.548C22.018 103.452 22.7008 103.215 23.317 102.85C23.7846 103.18 30.4074 107.45 30.921 107.733C26.7971 110.247 15.1151 114.877 13.789 115.483C13.5054 115.261 6.48399 111.098 4.92794 110.324C8.09371 109.09 11.2212 107.802 14.3563 106.537V106.522ZM8.22402 119.469C7.51114 118.955 5.97808 117.752 5.97808 117.736C5.97808 117.721 4.74397 110.47 4.74397 110.47C6.27703 111.321 13.3368 115.559 13.697 115.736C14.1416 118.495 14.6016 121.247 15.0461 124.007C12.705 122.63 10.4451 121.12 8.27767 119.484L8.22402 119.469ZM15.2454 123.922C14.8315 121.186 14.4329 118.442 14.0113 115.713C19.86 113.099 25.5936 111.321 31.082 108.047C31.2226 111.202 31.6355 114.339 32.3161 117.422C27.8855 119.147 16.5332 123.554 15.2684 123.938L15.2454 123.922ZM38.1724 116.41C38.0191 115.889 37.5591 115.391 38.134 114.977C38.6074 114.744 39.1226 114.609 39.6493 114.578C40.1759 114.548 40.7032 114.624 41.2002 114.801C41.3611 114.854 41.4531 114.67 41.3995 114.54C41.2325 114.147 41.1464 113.725 41.1464 113.298C41.1464 112.871 41.2325 112.449 41.3995 112.056C41.4146 112.03 41.4224 112 41.4221 111.97C41.4218 111.94 41.4134 111.91 41.3977 111.885C41.3821 111.859 41.3597 111.838 41.333 111.823C41.3064 111.809 41.2764 111.802 41.2462 111.803C40.4759 111.736 39.6999 111.791 38.9466 111.964C38.7861 111.75 38.6994 111.489 38.6994 111.221C38.6994 110.953 38.7861 110.692 38.9466 110.477C38.9697 110.451 38.984 110.418 38.9873 110.382C38.9906 110.347 38.9828 110.312 38.965 110.282C38.9473 110.251 38.9204 110.227 38.8882 110.213C38.856 110.198 38.8201 110.194 38.7856 110.201C37.9037 110.38 36.9879 110.269 36.1735 109.887C35.3592 109.505 34.6893 108.87 34.2631 108.078C34.2482 108.051 34.2254 108.029 34.1977 108.015C34.1701 108.001 34.1388 107.996 34.1081 108C34.0774 108.004 34.0486 108.017 34.0257 108.038C34.0027 108.059 33.9866 108.086 33.9794 108.116C33.8824 108.717 33.6506 109.287 33.3015 109.785C32.9523 110.283 32.4948 110.695 31.9635 110.991C31.8485 111.052 31.9635 111.229 32.0708 111.167C32.59 110.914 33.0489 110.552 33.4165 110.107C33.7841 109.661 34.0519 109.142 34.2017 108.584C34.663 109.285 35.3104 109.843 36.0713 110.197C36.8323 110.55 37.6766 110.684 38.5096 110.585C38.3859 110.86 38.3432 111.165 38.3867 111.464C38.4301 111.762 38.5579 112.042 38.7549 112.271C38.8929 112.44 39.3988 112.049 40.9932 112.125C40.7518 112.852 40.7518 113.637 40.9932 114.364C40.1597 114.146 39.2808 114.175 38.4636 114.448C37.4902 114.793 37.3139 115.513 37.6971 116.05C38.0804 116.587 37.7891 116.993 37.6128 117.077C37.2063 117.252 36.7738 117.358 36.3327 117.391C34.2937 117.621 34.8916 115.858 33.3356 115.506C33.1617 115.452 32.9736 115.467 32.8107 115.548C32.6478 115.63 32.5228 115.771 32.4617 115.943C31.9334 113.237 31.6106 110.495 31.4959 107.741C31.4959 107.649 26.1838 104.429 25.3636 103.87C27.4788 102.99 29.3281 101.574 30.7294 99.7613C32.4004 97.592 34.8686 91.9733 39.2838 91.2068C39.2838 91.2068 40.0504 94.6638 40.5486 96.3655C42.2608 101.974 45.1102 107.169 48.9191 111.627C44.7185 115.812 38.9389 116.311 38.1724 116.41ZM72.0913 125.946C72.2523 125.946 72.7046 125.854 72.6816 126C72.6432 126.276 72.0913 126.674 71.8077 126.835C71.7768 126.855 71.7522 126.883 71.7367 126.916C71.7212 126.949 71.7155 126.986 71.7204 127.022C71.7252 127.059 71.7403 127.093 71.764 127.121C71.7876 127.149 71.8188 127.169 71.8537 127.18C72.6077 127.354 73.3044 127.718 73.8774 128.238C73.9847 128.338 74.23 128.583 74.046 128.713C73.862 128.843 73.2795 128.529 72.398 128.138C72.191 128.046 72.007 128.353 72.2217 128.445C72.8755 128.672 73.4556 129.072 73.9004 129.602C73.9004 129.679 73.5324 129.932 72.1297 129.242C71.961 129.165 71.8231 129.472 71.9994 129.549C74.0843 130.492 72.4746 130.806 70.8189 129.648C70.6809 129.549 70.4816 129.786 70.6349 129.886C71.4015 130.384 71.4015 130.798 71.4015 130.806C70.8896 130.631 70.3965 130.405 69.9297 130.131C68.8217 129.543 67.8254 128.764 66.9863 127.832C67.2162 127.77 69.8454 126.72 70.566 125.494C70.9946 125.835 71.5384 125.997 72.0837 125.946H72.0913ZM86.6554 86.8069C83.6964 88.0086 80.8117 89.3857 78.0166 90.9308C71.6698 94.2423 62.4407 102.329 62.3257 102.429C59.8061 96.5944 58.4071 90.338 58.2018 83.9861C66.626 74.3355 71.8997 74.4964 82.5085 71.6296C83.7809 71.2847 88.1578 69.9279 89.7292 68.6631C94.4127 73.7222 103.212 80.506 105.06 83.7255C98.7635 83.4364 92.4775 84.4867 86.6171 86.8069H86.6554ZM122.291 108.599C122.154 108.444 122.058 108.256 122.013 108.054C121.967 107.852 121.974 107.641 122.031 107.442C122.031 107.281 121.709 107.22 121.724 107.442C121.801 108.182 121.584 108.923 121.119 109.504C120.858 109.726 120.743 109.358 120.743 109.144C120.82 108.877 120.882 108.605 120.927 108.331C120.927 108.17 120.682 108.101 120.62 108.247C120.62 108.247 120.39 109.136 120.367 109.19C120.344 109.243 119.954 110.132 119.777 109.902C119.619 109.233 119.664 108.531 119.908 107.887C119.92 107.841 119.913 107.792 119.89 107.751C119.866 107.71 119.827 107.68 119.781 107.668C119.735 107.656 119.687 107.662 119.646 107.686C119.605 107.71 119.575 107.749 119.563 107.795C119.471 108.201 119.379 109.236 119.087 109.435C118.589 109.788 118.612 108.001 119.087 106.836C119.109 106.801 119.118 106.76 119.113 106.719C119.108 106.678 119.09 106.639 119.061 106.61C119.031 106.581 118.993 106.562 118.952 106.558C118.911 106.553 118.87 106.562 118.834 106.583C118.512 106.721 117.846 106.913 117.593 106.737C117.531 106.691 117.884 106.361 117.984 106.246C118.352 105.823 118.542 105.273 118.512 104.713C118.551 104.713 121.272 104.368 122.468 103.441C122.873 105.147 122.799 106.932 122.253 108.599H122.291ZM113.124 68.2645C120.367 79.1723 121.556 89.942 122.56 103.065C120.982 103.999 119.173 104.469 117.34 104.422C109.59 94.2499 109.337 87.8877 103.971 81.6482C101.535 79.0863 98.9498 76.6701 96.2294 74.4121C93.4009 71.9209 87.5523 65.804 87.261 65.4284C87.1843 65.3364 87.0234 65.4284 87.0924 65.5587C87.8589 66.5475 88.6254 67.4903 89.4916 68.4025C87.0694 70.4415 78.4382 72.2888 76.1156 72.8484C71.2252 74.0212 67.4692 75.4469 63.4372 78.4977C61.4054 80.0252 59.599 81.8316 58.0715 83.8634C57.987 81.2318 58.1023 78.5976 58.4164 75.9835C58.4164 75.8839 58.2401 75.8532 58.2248 75.9835C57.2943 82.5335 57.7196 89.2049 59.4743 95.5837C61.1606 101.854 63.5599 105.771 67.0859 113.98C68.412 117.047 70.7959 124.597 70.7959 124.597C69.4698 127.057 66.327 127.663 66.1201 127.747C63.5599 125.448 53.6716 116.249 51.3797 113.865C47.0623 109.518 43.7361 104.288 41.6294 98.5348C38.4486 89.9161 38.1793 80.4925 40.8629 71.7063C41.6856 68.8106 42.7523 65.9899 44.0517 63.2744C45.2551 60.7909 50.6055 51.9068 56.6688 49.4769C57.6467 50.4099 58.8316 51.0984 60.1265 51.4861C61.4214 51.8737 62.7896 51.9496 64.1194 51.7075C65.8807 53.6249 67.0796 55.9907 67.5842 58.5449C67.9061 59.9324 70.037 70.1885 70.3667 71.7982C70.3791 71.8391 70.4067 71.8737 70.4436 71.895C70.4806 71.9163 70.5244 71.9229 70.566 71.9132L70.8572 71.8136C70.7833 72.0592 70.7763 72.3202 70.8369 72.5695C70.8976 72.8188 71.0236 73.0474 71.2022 73.2317C71.3095 73.3083 71.4475 73.1627 71.3785 73.0554C71.2512 72.8591 71.1651 72.6389 71.1256 72.4083C71.0861 72.1777 71.0938 71.9414 71.1485 71.7139L71.8614 71.461C71.7833 71.7284 71.7925 72.0138 71.8876 72.2757C71.9827 72.5376 72.1588 72.7623 72.3903 72.9174C72.4178 72.9319 72.4496 72.936 72.48 72.9291C72.5103 72.9222 72.5371 72.9046 72.5557 72.8796C72.5742 72.8546 72.5831 72.8238 72.5809 72.7928C72.5787 72.7617 72.5655 72.7325 72.5436 72.7104C72.5436 72.6644 71.8691 72.0359 72.122 71.369L73.0342 71.024C73.0051 71.2721 73.0555 71.523 73.1781 71.7407C73.3007 71.9583 73.4892 72.1314 73.7164 72.2352C73.7404 72.2403 73.7654 72.2376 73.7878 72.2274C73.8101 72.2173 73.8287 72.2003 73.8407 72.1789C73.8526 72.1575 73.8575 72.1328 73.8544 72.1084C73.8514 72.0841 73.8406 72.0613 73.8237 72.0435C73.7317 71.9592 73.1645 71.3843 73.3025 70.9167L74.5059 70.4262C74.3603 70.7711 74.9045 71.8059 75.0272 71.8979C75.0431 71.9123 75.0628 71.9219 75.084 71.9257C75.1051 71.9295 75.1269 71.9272 75.1469 71.9192C75.1668 71.9113 75.1841 71.8979 75.1968 71.8805C75.2095 71.8632 75.2172 71.8427 75.2188 71.8212C75.2188 71.6833 74.6439 70.8018 74.6976 70.3418C75.0962 70.1732 75.4641 70.0046 75.8857 69.8206C75.95 70.1249 76.0424 70.4225 76.1616 70.7098C76.1749 70.7337 76.1957 70.7525 76.2209 70.7633C76.2461 70.774 76.2741 70.776 76.3006 70.7689C76.327 70.7619 76.3503 70.7462 76.3668 70.7244C76.3833 70.7025 76.392 70.6758 76.3916 70.6484C76.3232 70.3344 76.2283 70.0267 76.108 69.7286L76.8055 69.4067C77.0928 69.8387 77.2498 70.3443 77.2578 70.8631C77.2645 70.8895 77.2799 70.9128 77.3014 70.9295C77.3229 70.9462 77.3493 70.9553 77.3766 70.9553C77.4038 70.9553 77.4303 70.9462 77.4518 70.9295C77.4733 70.9128 77.4886 70.8895 77.4954 70.8631C77.5111 70.3062 77.3559 69.7578 77.0508 69.2917C77.3651 69.146 78.2159 68.7245 78.3309 68.6631C78.3398 68.8463 78.4029 69.0227 78.512 69.17C78.6212 69.3174 78.7715 69.4291 78.9441 69.491C78.9656 69.4913 78.9866 69.4852 79.0046 69.4734C79.0225 69.4616 79.0365 69.4448 79.0448 69.425C79.053 69.4052 79.0551 69.3833 79.0509 69.3623C79.0466 69.3413 79.0361 69.322 79.0208 69.307C79.0208 69.307 78.4842 68.9008 78.5762 68.5405C78.5762 68.5405 79.1281 68.2569 79.2737 68.1802C79.3274 68.7551 80.0403 69.1077 80.1169 69.1077C80.1418 69.1133 80.1679 69.109 80.1897 69.0959C80.2116 69.0828 80.2276 69.0619 80.2345 69.0373C80.2414 69.0128 80.2386 68.9865 80.2267 68.964C80.2148 68.9414 80.1947 68.9243 80.1706 68.9161C79.9886 68.843 79.831 68.7201 79.7157 68.5615C79.6005 68.4028 79.5323 68.2149 79.519 68.0192C79.519 68.0192 80.1323 67.8659 79.749 66.5398C78.9752 63.9243 77.9483 61.3904 76.6829 58.9742L77.1428 58.8745C77.2074 59.2667 77.4217 59.6185 77.7407 59.8557C77.825 59.8557 77.9323 59.779 77.871 59.6947C77.8097 59.6104 77.3421 59.1198 77.3804 58.8132L78.2619 58.5373C78.3236 58.85 78.424 59.1539 78.5609 59.4418C78.5857 59.454 78.6141 59.4568 78.6408 59.4498C78.6676 59.4427 78.6909 59.4263 78.7065 59.4034C78.6516 59.0886 78.5721 58.7784 78.4689 58.4759L78.9978 58.2843C79.0514 58.5143 79.3274 59.5798 79.3887 59.6947C79.402 59.7187 79.4228 59.7375 79.448 59.7482C79.4732 59.7589 79.5012 59.7609 79.5276 59.7539C79.5541 59.7468 79.5774 59.7311 79.5939 59.7093C79.6104 59.6875 79.6191 59.6608 79.6187 59.6334C79.6187 59.5108 79.3044 58.4223 79.2277 58.1847C79.3504 58.131 79.4577 58.108 79.427 57.9854C79.3197 57.4795 78.0626 54.283 74.4983 50.3201C73.0253 48.8748 71.2969 47.7156 69.4008 46.9013C69.514 46.5015 69.5809 46.09 69.6001 45.6749C70.5813 45.5522 76.7979 44.5557 86.2492 48.0818C89.0277 49.1678 91.7475 50.3985 94.3974 51.7688C102.01 55.4822 108.48 61.1811 113.124 68.2645ZM133.582 72.8637C126.254 70.4415 118.122 66.1719 111.537 65.3671C110.916 64.5545 110.265 63.7573 109.598 62.9908C109.559 62.5692 108.831 53.5318 108.785 51.6078C115.055 53.3325 131.084 57.97 132.854 58.5066C132.992 62.2703 133.529 71.8672 133.582 72.8637ZM132.992 58.154C132.992 58.154 110.763 51.8991 109.138 51.4775C112.204 51.2629 121.318 50.389 121.341 50.3354C121.389 50.8991 121.559 51.4457 121.839 51.9369C122.12 52.4281 122.504 52.852 122.966 53.1792C124.721 54.4133 127.68 54.4133 129.803 54.122C131.927 53.8308 133.215 53.3555 133.36 51.1402C133.72 51.3089 136.587 52.0294 136.373 49.1396C139.669 49.6915 147.74 51.7841 148.545 51.9834C144.567 53.8001 134.15 57.7554 132.992 58.154Z" fill="black"/>
<path d="M124.154 34.315C125.25 35.5874 126.967 37.1282 126.193 38.9985C126.182 39.0229 126.181 39.0507 126.19 39.0759C126.2 39.1011 126.219 39.1215 126.243 39.1327C126.267 39.1438 126.295 39.1449 126.32 39.1355C126.346 39.1262 126.366 39.1072 126.377 39.0828C127.144 37.6341 126.147 36.124 125.204 35.0509C124.016 33.7094 122.943 32.7513 123.112 30.8196C123.418 27.4086 126.983 25.6149 128.378 22.7327C128.772 22.036 128.965 21.2436 128.935 20.4438C128.905 19.6439 128.654 18.868 128.209 18.2025C128.148 18.1182 128.002 18.2025 128.064 18.3175C128.425 18.9667 128.615 19.6976 128.615 20.4408C128.615 21.184 128.425 21.9149 128.064 22.5641C126.707 25.3926 123.464 27.0866 122.836 30.3137C122.568 31.9771 123.058 33.0579 124.154 34.315ZM127.857 32.23C128.071 33.5945 129.39 34.3073 129.957 35.4648C130.154 35.8655 130.256 36.3061 130.256 36.7526C130.256 37.1991 130.154 37.6396 129.957 38.0403C129.949 38.0622 129.949 38.0861 129.957 38.108C129.965 38.1299 129.98 38.1483 130 38.1601C130.02 38.172 130.043 38.1764 130.066 38.1727C130.089 38.1691 130.11 38.1575 130.126 38.14C130.466 37.5636 130.604 36.8901 130.518 36.2263C130.431 35.5626 130.126 34.9465 129.65 34.476C128.592 33.1805 126.753 31.9541 129.804 28.4127C129.896 28.3054 129.712 28.1751 129.612 28.2671C129.04 28.7528 128.585 29.3615 128.281 30.0477C127.977 30.7339 127.832 31.4799 127.857 32.23ZM33.5733 111.091C33.9827 111.071 34.3903 111.156 34.758 111.337C35.1258 111.518 35.4416 111.789 35.676 112.125C35.9103 112.461 36.0555 112.851 36.098 113.259C36.1405 113.667 36.0789 114.078 35.9189 114.456C35.8499 114.594 36.0492 114.716 36.1259 114.578C36.5704 113.72 36.7008 110.822 33.535 110.83C33.4123 110.83 33.4507 111.083 33.5733 111.091ZM26.9735 114.601C25.977 114.249 22.6349 114.601 19.6608 116.755C19.3072 116.979 19.0043 117.274 18.7716 117.622C18.166 118.618 18.9019 119.431 19.9061 119.5C22.3743 119.661 24.6432 118.403 26.6745 117.108C28.2996 116.065 27.9393 114.946 26.9735 114.601ZM52.246 27.5389C49.9924 29.1486 47.3172 27.8838 46.9263 26.9563C46.8879 26.8567 46.7193 26.9027 46.7653 26.9946C47.9074 29.3402 51.8474 28.5277 52.384 27.7152C52.453 27.6002 52.3533 27.4622 52.246 27.5389ZM54.078 26.803C54.2476 26.5903 54.4574 26.4132 54.6954 26.2817C54.9335 26.1501 55.1951 26.0668 55.4654 26.0365C55.4899 26.03 55.5116 26.0156 55.5271 25.9955C55.5426 25.9754 55.551 25.9507 55.551 25.9253C55.551 25.9 55.5426 25.8753 55.5271 25.8552C55.5116 25.8351 55.4899 25.8207 55.4654 25.8142C55.1631 25.8191 54.8663 25.8961 54.5996 26.0387C54.333 26.1814 54.1042 26.3856 53.9324 26.6344C53.8097 26.78 53.9937 26.9103 54.078 26.803ZM56.9448 36.6606C56.9448 36.7832 57.1441 36.8292 57.1671 36.6606C57.2556 36.327 57.4713 36.0415 57.768 35.8652C58.0646 35.6889 58.4186 35.636 58.7538 35.7178C58.8305 35.7178 58.8612 35.5721 58.7998 35.5491C58.6052 35.4772 58.3969 35.4499 58.1903 35.4692C57.9837 35.4885 57.7841 35.5538 57.6061 35.6605C57.4281 35.7671 57.2763 35.9123 57.1618 36.0854C57.0474 36.2585 56.9732 36.455 56.9448 36.6606ZM65.0011 34.0084C65.0011 34.108 65.185 34.085 65.185 34.0084C65.1946 33.8351 65.2514 33.6678 65.3493 33.5245C65.4472 33.3812 65.5825 33.2675 65.7404 33.1956C65.8984 33.1237 66.073 33.0965 66.2453 33.1168C66.4177 33.1371 66.5812 33.2042 66.7181 33.3109C66.7871 33.3492 66.9251 33.2189 66.8484 33.1729C65.4533 32.2454 64.9014 33.5638 65.0011 34.0084ZM62.2032 34.8286C62.1266 34.7136 61.9349 34.8286 62.0193 34.9359C62.2339 35.2425 63.1844 36.6299 63.215 36.6836C62.9225 36.7714 62.6419 36.895 62.3795 37.0515C62.3182 37.1205 62.3335 37.2585 62.4332 37.2738C62.7409 37.2326 63.0422 37.1528 63.33 37.0362C63.3927 37.0214 63.4498 36.989 63.4946 36.9428C63.5394 36.8967 63.5701 36.8386 63.583 36.7756C63.1755 36.091 62.7141 35.4399 62.2032 34.8286ZM76.821 29.8078C77.0023 29.8426 77.1895 29.8282 77.3634 29.7662C77.5373 29.7042 77.6914 29.5968 77.8098 29.4552C77.9166 29.3299 77.9803 29.1735 77.9913 29.0093C78.0024 28.845 77.9602 28.6815 77.8711 28.543C77.7363 28.4342 77.5647 28.3815 77.392 28.3958C77.2193 28.4101 77.0588 28.4902 76.9436 28.6197C76.7973 28.7162 76.6847 28.8559 76.6216 29.0194C76.5584 29.1829 76.5477 29.362 76.591 29.5319C76.3994 29.7082 68.5271 36.6912 68.1592 37.0668C68.0978 37.1358 68.1592 37.2508 68.2588 37.2048C68.7034 36.9365 76.637 29.9764 76.821 29.8078ZM18.1584 47.668C16.771 63.6195 23.7617 72.9175 24.9958 74.5962C25.0725 74.7035 25.2564 74.5962 25.1798 74.4965C23.1255 71.4304 17.2845 62.4697 18.3423 47.668C18.35 47.5453 18.166 47.553 18.1584 47.668Z" fill="black"/>
</svg>
