<svg width="154" height="154" viewBox="0 0 154 154" fill="none" xmlns="http://www.w3.org/2000/svg">
<path fill-rule="evenodd" clip-rule="evenodd" d="M74.9455 37.3077C75.5274 37.6981 76.1286 38.0588 76.7469 38.3885C76.7693 38.3946 76.7883 38.4093 76.7998 38.4295C76.8113 38.4496 76.8143 38.4735 76.8082 38.4958C76.8022 38.5182 76.7874 38.5372 76.7673 38.5487C76.7472 38.5602 76.7233 38.5632 76.7009 38.5571C75.9685 38.2894 75.2584 37.9639 74.5776 37.5836C74.5354 37.5568 74.5038 37.5161 74.4884 37.4685C74.4731 37.4209 74.4748 37.3695 74.4933 37.323C75.2531 35.576 76.1772 33.9051 77.2528 32.3328C77.2673 32.3181 77.2863 32.3087 77.3068 32.3061C77.3273 32.3035 77.348 32.3079 77.3657 32.3185C77.3834 32.3291 77.397 32.3453 77.4043 32.3646C77.4117 32.3839 77.4123 32.4051 77.4062 32.4247C77.4062 32.4247 75.1218 36.8554 74.9455 37.3077ZM77.2835 44.5209C77.7652 45.1656 78.481 45.5951 79.2765 45.7167C79.6925 45.7678 80.1136 45.6777 80.4722 45.4608C80.8308 45.244 81.1062 44.913 81.2542 44.5209C81.2664 44.5016 81.2705 44.4782 81.2654 44.4559C81.2604 44.4337 81.2467 44.4143 81.2274 44.4021C81.2081 44.3899 81.1847 44.3859 81.1624 44.3909C81.1402 44.3959 81.1208 44.4096 81.1086 44.4289C80.8996 44.7017 80.6392 44.9309 80.342 45.1035C80.0363 45.2496 79.6984 45.315 79.3602 45.2935C79.0221 45.272 78.6951 45.1644 78.4103 44.9808C78.0834 44.8224 77.7728 44.6325 77.4828 44.4136C77.4686 44.3872 77.4444 44.3675 77.4157 44.3588C77.3869 44.3502 77.3559 44.3534 77.3295 44.3676C77.3031 44.3818 77.2834 44.406 77.2748 44.4347C77.2661 44.4635 77.2693 44.4945 77.2835 44.5209ZM74.1866 28.7913C74.8071 28.3954 75.4706 28.0714 76.1644 27.8254C76.1867 27.8254 76.2082 27.8166 76.224 27.8007C76.2398 27.7849 76.2487 27.7635 76.2487 27.7411C76.2487 27.7188 76.2398 27.6973 76.224 27.6815C76.2082 27.6657 76.1867 27.6568 76.1644 27.6568C75.9602 27.6037 75.7472 27.5933 75.5388 27.6263C75.3304 27.6592 75.131 27.7349 74.9532 27.8484C74.5673 28.0012 74.2509 28.2904 74.064 28.661C73.9797 28.7453 74.11 28.868 74.1866 28.7913ZM81.1086 28.8603C81.907 29.1803 82.6437 29.6368 83.2856 30.2094C83.2916 30.219 83.2995 30.2273 83.3087 30.2338C83.318 30.2403 83.3284 30.2449 83.3395 30.2474C83.3505 30.2499 83.3619 30.2502 83.373 30.2483C83.3842 30.2464 83.3949 30.2423 83.4044 30.2362C83.414 30.2302 83.4223 30.2223 83.4288 30.2131C83.4353 30.2039 83.4399 30.1934 83.4424 30.1824C83.4449 30.1714 83.4452 30.1599 83.4433 30.1488C83.4414 30.1377 83.4373 30.127 83.4312 30.1174C83.3405 29.8938 83.2136 29.6866 83.0556 29.5042C82.718 29.1672 82.3017 28.9196 81.8445 28.7836C81.6169 28.7108 81.378 28.6796 81.1393 28.6916C81.1169 28.6876 81.0938 28.6926 81.0751 28.7055C81.0565 28.7184 81.0437 28.7383 81.0396 28.7606C81.0355 28.783 81.0405 28.8061 81.0535 28.8247C81.0664 28.8434 81.0862 28.8562 81.1086 28.8603ZM75.1218 33.0227C75.1755 32.7314 75.2445 32.4477 75.3211 32.1565C75.3559 32.0405 75.3451 31.9157 75.291 31.8074C75.2369 31.6992 75.1435 31.6156 75.0299 31.5739C74.9745 31.5565 74.9162 31.5508 74.8585 31.5571C74.8008 31.5633 74.7451 31.5814 74.6947 31.6102C74.6443 31.6389 74.6004 31.6778 74.5658 31.7243C74.5311 31.7708 74.5064 31.824 74.4933 31.8805C74.409 32.1948 74.34 32.5091 74.2786 32.8234C74.2523 32.941 74.2718 33.0643 74.333 33.1682C74.3942 33.2721 74.4926 33.3489 74.6083 33.3829C74.6657 33.3939 74.7248 33.3933 74.782 33.381C74.8392 33.3687 74.8934 33.3451 74.9413 33.3115C74.9892 33.2779 75.0299 33.235 75.0609 33.1854C75.0919 33.1358 75.1126 33.0804 75.1218 33.0227ZM82.6417 35.0004C82.703 34.7103 82.7798 34.4237 82.8717 34.1418C82.9099 34.0257 82.9026 33.8995 82.8514 33.7885C82.8002 33.6776 82.7088 33.5902 82.5957 33.5439C82.5404 33.5252 82.4818 33.5183 82.4237 33.5234C82.3655 33.5286 82.3091 33.5458 82.2579 33.5739C82.2068 33.602 82.162 33.6404 82.1264 33.6867C82.0909 33.733 82.0654 33.7862 82.0515 33.8429C81.9595 34.1495 81.8751 34.4638 81.8062 34.7781C81.777 34.8948 81.7932 35.0183 81.8515 35.1236C81.9099 35.2289 82.006 35.3081 82.1204 35.3453C82.1774 35.3587 82.2366 35.3603 82.2942 35.35C82.3518 35.3397 82.4067 35.3177 82.4556 35.2854C82.5044 35.2531 82.5461 35.2111 82.5781 35.1621C82.6101 35.1131 82.6317 35.058 82.6417 35.0004Z" fill="black"/>
<path fill-rule="evenodd" clip-rule="evenodd" d="M90.6752 115.473C91.1122 115.649 96.6313 114.545 99.4216 117.389C100.261 118.263 101.045 119.19 101.767 120.164C109.655 118.685 112.499 119.597 114.638 119.474C114.307 114.567 114.495 109.639 115.197 104.772C115.819 99.7906 116.876 94.8735 118.355 90.0769C118.36 90.0592 118.369 90.0428 118.38 90.0284C118.392 90.0141 118.406 90.0021 118.422 89.9932C118.438 89.9843 118.455 89.9787 118.474 89.9766C118.492 89.9745 118.51 89.976 118.528 89.981C118.545 89.9861 118.562 89.9945 118.576 90.0059C118.591 90.0173 118.603 90.0314 118.611 90.0474C118.62 90.0635 118.626 90.0811 118.628 90.0993C118.63 90.1175 118.629 90.1359 118.624 90.1535C118.049 92.1465 116.661 99.7584 116.431 101.161C115.416 107.205 114.903 113.323 114.898 119.451C118.562 119.152 120.31 117.42 125.722 116.898C128.228 116.661 130.153 116.99 133.495 118.853C133.527 118.87 133.552 118.9 133.562 118.935C133.573 118.97 133.569 119.008 133.552 119.041C133.535 119.073 133.505 119.098 133.47 119.109C133.435 119.119 133.397 119.116 133.364 119.098C130.007 117.427 128.19 117.228 125.791 117.565C119.183 118.378 117.688 120.747 112.307 120.103C109.402 119.742 104.826 120.103 101.936 120.478L102.235 120.923C103.97 120.805 105.706 121.124 107.286 121.85C107.297 121.855 107.307 121.861 107.315 121.869C107.324 121.877 107.33 121.887 107.335 121.898C107.339 121.909 107.341 121.92 107.34 121.932C107.34 121.943 107.337 121.955 107.332 121.965C107.286 122.073 107.248 121.965 106.612 121.85C105.125 121.521 103.592 121.36 102.396 121.16C102.949 121.998 103.387 122.905 103.699 123.859C105.437 124.359 107.051 125.218 108.436 126.381C108.453 126.396 108.464 126.417 108.465 126.44C108.467 126.463 108.459 126.486 108.444 126.503C108.429 126.521 108.407 126.531 108.384 126.533C108.361 126.534 108.338 126.526 108.321 126.511C107.639 126.028 105.255 124.909 103.783 124.158C104.016 124.873 104.052 125.638 103.889 126.373C103.726 127.108 103.369 127.785 102.856 128.335C104.313 128.994 105.699 129.798 106.995 130.735C107.015 130.746 107.03 130.765 107.037 130.787C107.043 130.809 107.041 130.833 107.03 130.853C107.018 130.874 107 130.889 106.977 130.895C106.955 130.902 106.931 130.899 106.911 130.888C105.431 130.243 104.021 129.449 102.702 128.519C102.004 129.408 101.002 130.008 99.8892 130.206C98.816 130.367 98.3561 130.022 98.9846 130.359C99.9735 130.911 102.319 132.398 103.101 132.858C103.112 132.862 103.122 132.868 103.13 132.876C103.139 132.884 103.146 132.894 103.15 132.904C103.155 132.915 103.157 132.927 103.157 132.938C103.157 132.95 103.154 132.961 103.149 132.972C103.145 132.983 103.138 132.992 103.129 133C103.121 133.008 103.11 133.014 103.099 133.017C103.088 133.021 103.077 133.022 103.065 133.021C103.053 133.02 103.042 133.017 103.032 133.011C101.416 132.363 99.8974 131.496 98.517 130.436C97.8425 129.922 98.2334 130.16 97.6125 129.93C97.0021 129.694 96.429 129.371 95.9108 128.972L95.6655 129.087C100.659 133.523 106.493 136.912 112.821 139.052C119.213 141.281 126.023 142.051 132.751 141.305C154.13 138.898 150.259 111.318 142.9 91.0044C141.216 86.2048 138.959 81.626 136.178 77.3675C131.302 70.0163 126.327 67.4943 125.446 66.9884C122.809 70.0546 110.115 73.2741 114.714 76.6009C117.612 78.7243 121.445 80.7786 124.258 78.548C124.317 78.4951 124.393 78.4655 124.473 78.4645C124.552 78.4635 124.629 78.4912 124.69 78.5425C124.751 78.5938 124.791 78.6652 124.803 78.7437C124.815 78.8221 124.798 78.9023 124.756 78.9696C123.378 81.1382 121.267 82.7402 118.808 83.4845C116.389 84.2046 113.824 84.2865 111.364 83.7222C107.578 82.9556 105.339 81.6142 104.197 80.0734C102.373 77.6128 103.308 74.6232 105.401 72.5229C108.658 69.2497 111.318 67.9236 108.597 65.187C105.186 61.7835 96.1177 66.6511 97.4669 59.6372C96.9648 60.107 96.5639 60.6742 96.2884 61.3042C96.013 61.9342 95.8688 62.6137 95.8648 63.3013C95.8648 66.3675 97.7505 67.6629 100.794 67.6476C101.91 67.6278 103.02 67.4681 104.098 67.1724C104.149 67.1573 104.204 67.1562 104.256 67.169C104.309 67.1819 104.357 67.2083 104.395 67.2456C104.434 67.2829 104.463 67.3298 104.478 67.3815C104.493 67.4332 104.494 67.488 104.481 67.5403C104.162 68.4962 103.544 69.3241 102.718 69.9013C100.877 71.2246 98.6958 71.9934 96.432 72.1166C94.7977 72.2807 93.1529 71.931 91.7267 71.1162C90.3005 70.3014 89.1639 69.0622 88.4752 67.571C86.7505 64.0525 87.1108 61.1703 89.2418 58.2037C89.0987 57.047 89.0551 55.8801 89.1115 54.7159C87.8697 54.7619 86.3825 54.8232 85.1484 54.9689C85.5246 56.7733 85.6943 58.6146 85.6543 60.4574C85.6487 60.4764 85.637 60.493 85.6211 60.5048C85.6053 60.5167 85.586 60.5231 85.5662 60.5231C85.5464 60.5231 85.5271 60.5167 85.5112 60.5048C85.4953 60.493 85.4837 60.4764 85.478 60.4574C85.3554 59.6295 85.3017 59.4609 85.1944 58.5257C85.0335 57.3543 84.9439 56.1742 84.9261 54.9919C84.6328 55.0204 84.3411 55.0639 84.0522 55.1222C83.2857 55.2908 82.9101 55.4441 82.8794 56.6093C82.9742 57.8076 83.1329 59 83.3547 60.1814C83.3547 60.442 83.1324 60.2887 80.0892 61.2086C80.3181 61.7048 80.5103 62.2173 80.6641 62.7417C81.6759 66.0149 78.786 69.6406 73.6961 68.9584C71.9484 68.7284 70.538 67.9312 69.9247 66.2985C67.4691 67.8654 65.2928 69.8319 63.4857 72.1166C60.6571 75.6811 53.7965 92.8135 53.3596 94.4692C55.0452 96.4427 56.8364 98.3235 58.7254 100.103C60.6571 90.0309 64.8578 83.8831 64.2216 84.872C64.231 84.8562 64.2435 84.8425 64.2583 84.8317C64.2731 84.8208 64.2899 84.813 64.3077 84.8087C64.3256 84.8045 64.3441 84.8038 64.3622 84.8067C64.3803 84.8097 64.3977 84.8163 64.4132 84.826C64.7275 85.01 63.915 85.3932 62.0446 90.4678C57.7668 102.136 57.2309 114.846 60.5115 126.833C61.669 131.11 62.0446 131.363 61.9296 131.524C61.9296 131.524 60.0745 134.376 55.3603 134.644C52.754 134.782 49.2662 134.138 44.7282 131.762C32.1721 125.185 34.6711 88.8351 33.9965 85.8838C33.4672 83.802 32.7699 81.7665 31.9115 79.7974C31.8826 79.7354 31.8737 79.6659 31.8861 79.5986C31.8984 79.5313 31.9314 79.4695 31.9805 79.4218L32.3331 79.0845C31.1972 77.8397 30.2424 76.4411 29.4969 74.9298C29.2132 74.3779 29.2899 74.4699 29.1902 74.4316C27.9868 73.964 27.0132 72.2622 27.6571 71.0358C26.653 71.2274 11.4446 74.102 9.08364 74.3626C8.0453 74.5387 6.98033 74.4731 5.97144 74.171C5.56541 74.0329 5.19905 73.7982 4.90392 73.487C4.6088 73.1759 4.39377 72.7976 4.27737 72.3849C3.4265 69.5333 4.13172 27.2581 4.17005 25.1731C4.14443 23.8236 4.56476 22.5033 5.36587 21.417C5.67689 21.0658 6.05457 20.78 6.47698 20.576C6.89938 20.3721 7.3581 20.254 7.82649 20.2288C11.276 19.9452 45.1881 24.4065 48.5916 24.8281C49.8698 24.9666 51.0887 25.4399 52.1254 26.2003C52.4767 26.4777 52.766 26.8257 52.9746 27.2218C53.1832 27.6178 53.3065 28.0532 53.3366 28.4999C53.3366 28.4999 54.5554 62.826 54.5707 63.1633C54.701 64.2365 54.4787 65.5779 53.4975 66.0302C52.6927 66.4058 35.7979 69.518 36.3115 69.4183C37.7534 71.4396 38.9863 73.6022 39.9909 75.8727C41.1638 76.2176 39.623 75.7271 44.5136 82.856C47.2118 86.7807 50.8913 91.564 53.1373 94.2162C54.2411 89.7472 60.0362 75.3361 62.9874 71.7333C64.9183 69.434 67.2572 67.5109 69.8864 66.0609C69.6226 65.042 69.6068 63.9748 69.8404 62.9487C69.8522 62.8724 69.8727 62.7978 69.9017 62.7264C69.9312 62.644 69.9922 62.5768 70.0712 62.5394C70.1503 62.502 70.241 62.4976 70.3233 62.5271C70.4057 62.5565 70.4729 62.6175 70.5103 62.6966C70.5477 62.7756 70.5521 62.8663 70.5226 62.9487C70.4291 63.741 70.5788 64.5431 70.9519 65.2483C71.9151 64.4767 72.9838 63.8468 74.1254 63.3779C72.692 60.4114 66.1839 56.64 65.3101 53.4588C64.1909 49.3424 67.2111 46.7975 70.3003 42.4435C74.5163 36.518 63.7233 32.9612 65.2181 25.4874C65.6934 23.1264 67.3644 20.7271 70.4306 18.2971C73.6731 15.7368 77.2069 15.3766 80.1505 16.672C88.1073 10.2637 101.806 8.64626 108.459 16.3961C112.031 20.5584 112.959 26.1696 115.81 27.9863C120.333 30.8915 131.747 35.0922 128.842 42.2978C126.067 49.1968 116.792 53.0755 121.268 57.8741C123.737 60.511 125.661 62.3124 126.297 63.8225C126.504 64.2349 126.59 64.6981 126.542 65.1573C126.494 65.6165 126.316 66.0524 126.029 66.4135C127.04 66.9807 131.686 69.8553 136.615 77.1452C139.458 81.4137 141.775 86.0106 143.514 90.8357C151.179 111.64 154.881 139.558 132.866 142.003C126.041 142.74 119.138 141.909 112.683 139.573C106.283 137.322 100.409 133.791 95.4202 129.194C94.3989 129.637 93.2895 129.839 92.1777 129.784C92.1976 130.459 91.9943 131.121 91.5993 131.669C91.2043 132.216 90.6397 132.618 89.993 132.812C89.9087 134.016 89.8474 134.782 89.8243 134.866C89.6021 135.702 82.3428 140.393 73.4278 135.073C73.3825 135.047 73.3442 135.011 73.3161 134.967C73.2881 134.923 73.2712 134.872 73.2669 134.82C72.9832 132.582 70.7679 114.185 72.2167 112.429C73.6655 110.674 78.786 109.961 80.8864 110.053C83.5616 110.176 90.1463 110.82 90.5679 113.541C90.6402 114.182 90.6761 114.827 90.6752 115.473ZM89.1421 134.636C89.1421 134.544 90.4299 116.339 90.0543 113.602C89.7324 111.303 83.1554 110.429 80.8557 110.321C78.878 110.237 73.8188 111.142 72.5616 112.713C71.4118 114.147 73.6808 132.705 73.9108 134.56C76.2271 135.97 78.8664 136.761 81.5763 136.859C84.9951 136.936 88.0076 135.664 89.1651 134.613L89.1421 134.636ZM38.9178 76.3786C37.9692 76.4246 37.0436 76.6868 36.2118 77.1452C37.1978 78.6443 38.008 80.2518 38.6265 81.9361C38.6321 81.9463 38.6355 81.9575 38.6365 81.9691C38.6376 81.9807 38.6362 81.9924 38.6325 82.0034C38.6288 82.0145 38.6229 82.0246 38.6151 82.0332C38.6073 82.0419 38.5978 82.0488 38.5871 82.0536C38.5765 82.0583 38.5651 82.0608 38.5534 82.061C38.5418 82.0611 38.5303 82.0588 38.5196 82.0543C38.5088 82.0497 38.4992 82.043 38.4912 82.0345C38.4832 82.0261 38.4771 82.016 38.4732 82.0051C37.543 80.4695 36.7257 78.8683 36.0279 77.2142C35.2122 77.6474 34.4418 78.161 33.7282 78.7473C34.3291 79.8664 34.8615 81.0209 35.3226 82.2044C35.4913 82.649 35.6983 83.2852 35.7442 83.4385C35.7498 83.4487 35.7533 83.46 35.7543 83.4716C35.7553 83.4832 35.754 83.4948 35.7503 83.5059C35.7466 83.5169 35.7406 83.527 35.7328 83.5357C35.725 83.5443 35.7155 83.5512 35.7049 83.556C35.6943 83.5608 35.6828 83.5633 35.6712 83.5634C35.6596 83.5635 35.648 83.5612 35.6373 83.5567C35.6266 83.5521 35.617 83.5454 35.609 83.537C35.601 83.5285 35.5949 83.5185 35.5909 83.5075C34.7508 82.0527 34.0722 80.5105 33.5672 78.9082C33.253 79.1689 32.9233 79.4601 32.5861 79.7821C33.4358 81.7165 34.1204 83.7192 34.6327 85.7689C35.315 88.7277 32.9617 124.863 44.9352 131.333C49.3505 133.717 52.754 134.399 55.2989 134.299C59.4076 134.123 61.14 131.816 61.4313 131.402C57.5731 121.571 56.5998 110.843 58.6258 100.479C51.2056 93.8176 41.6237 80.4183 40.0523 76.6009C39.7875 76.4874 39.5045 76.4225 39.2167 76.4093C40.1176 77.7798 40.8487 79.2547 41.3937 80.8016C41.3977 80.8122 41.3997 80.8234 41.3993 80.8347C41.399 80.8461 41.3965 80.8572 41.3918 80.8675C41.3872 80.8778 41.3806 80.8871 41.3724 80.8949C41.3641 80.9027 41.3545 80.9087 41.3439 80.9128C41.3333 80.9168 41.3221 80.9187 41.3108 80.9184C41.2994 80.918 41.2883 80.9155 41.278 80.9109C41.2677 80.9062 41.2584 80.8996 41.2506 80.8914C41.2428 80.8832 41.2368 80.8735 41.2327 80.8629C40.3636 79.4269 39.5976 77.931 38.9408 76.3863L38.9178 76.3786ZM90.1923 129.117C89.9853 132.682 89.924 132.551 90.0007 132.505C90.5115 132.219 90.9498 131.819 91.282 131.337C91.6142 130.854 91.8314 130.302 91.917 129.723C91.3134 129.648 90.733 129.444 90.2153 129.125L90.1923 129.117ZM90.1923 128.726C92.423 129.723 95.4738 128.558 97.6508 127.439C97.6658 127.425 97.6834 127.415 97.7026 127.409C97.7218 127.404 97.742 127.402 97.7618 127.405C97.7817 127.407 97.8007 127.415 97.8175 127.425C97.8344 127.436 97.8486 127.451 97.8594 127.468C97.8701 127.484 97.877 127.504 97.8796 127.523C97.8822 127.543 97.8805 127.563 97.8745 127.583C97.8685 127.602 97.8584 127.619 97.8449 127.634C97.8315 127.649 97.8149 127.661 97.7965 127.668C97.2946 128.079 96.7586 128.446 96.1944 128.765C98.6397 130.382 101.154 130.052 102.886 127.078C104.465 124.418 101.031 120.087 98.8926 117.841C97.7735 116.653 94.6153 115.442 91.1811 115.825C91.8086 116.467 92.2235 117.286 92.3693 118.171C93.0243 117.869 93.7276 117.684 94.4466 117.627C94.4675 117.626 94.488 117.632 94.5048 117.645C94.5215 117.658 94.5334 117.675 94.5386 117.696C94.5386 117.933 93.9561 117.65 90.5909 119.52C90.5909 120.325 90.4683 123.245 90.4376 123.851C91.0294 123.433 91.6914 123.124 92.3923 122.939C92.4106 122.93 92.4318 122.928 92.4512 122.935C92.4706 122.941 92.4866 122.955 92.4958 122.973C92.5049 122.992 92.5064 123.013 92.5 123.032C92.4935 123.052 92.4796 123.068 92.4613 123.077C91.8578 123.536 91.185 123.895 90.4682 124.142C90.3916 124.142 90.4683 123.874 90.3073 126.595H91.0738C91.7177 126.595 93.1052 126.649 93.2892 126.595C93.3095 126.595 93.329 126.603 93.3434 126.618C93.3577 126.632 93.3658 126.652 93.3658 126.672C93.3658 126.692 93.3577 126.712 93.3434 126.726C93.329 126.741 93.3095 126.749 93.2892 126.749C92.3099 127.03 91.2742 127.051 90.2843 126.81C90.3073 127.485 90.269 128.121 90.2383 128.734L90.1923 128.726ZM90.6292 115.741V119.029C91.1098 118.717 91.6241 118.46 92.1623 118.263C91.8131 117.346 91.3102 116.496 90.6752 115.749L90.6292 115.741ZM73.7651 114.415C75.8655 112.882 84.4278 112.261 88.3296 114.415C89.6327 113.648 89.5331 113.004 89.7324 113.096C89.7391 113.103 89.7444 113.111 89.7481 113.119C89.7517 113.128 89.7536 113.137 89.7536 113.146C89.7536 113.155 89.7517 113.165 89.7481 113.173C89.7444 113.182 89.7391 113.19 89.7324 113.196C88.3066 116.523 80.1888 116.201 76.6014 115.664C72.8376 115.097 72.5387 113.365 72.4927 113.188C72.4896 113.178 72.4886 113.168 72.4897 113.157C72.4908 113.147 72.4939 113.137 72.4988 113.127C72.5038 113.118 72.5106 113.11 72.5187 113.103C72.5269 113.097 72.5362 113.092 72.5463 113.089C72.5564 113.086 72.5669 113.085 72.5774 113.086C72.5879 113.087 72.598 113.09 72.6073 113.095C72.6165 113.1 72.6247 113.107 72.6313 113.115C72.638 113.123 72.6429 113.132 72.646 113.142C72.8992 113.67 73.2982 114.114 73.7958 114.422L73.7651 114.415ZM102.718 33.1682C104.389 34.9849 103.967 39.3006 100.97 40.0671C102.311 40.8337 103.768 42.3055 104.872 46.5828C106.888 54.394 101.2 56.226 97.8655 59.3152C96.202 66.5821 105.194 61.2699 108.927 64.9187C112.039 67.9849 108.927 69.7173 105.784 72.9061C103.898 74.8302 103.001 77.5438 104.68 79.8051C105.769 81.2539 107.923 82.4804 111.518 83.1856C115.925 84.0518 120.31 83.2469 123.277 79.9431C122.953 80.0596 122.62 80.1444 122.28 80.196C105.608 88.0302 105.799 74.2859 114.109 68.1919C120.417 63.5926 110.613 59.6755 107.363 56.64C104.113 53.6044 110.92 47.886 111.648 42.2518C112.2 37.9898 111.15 36.541 108.022 34.8929C106.803 34.2567 104.075 32.9842 102.902 32.2483C102.81 32.7466 102.718 33.2448 102.718 33.1682ZM112.085 42.2211C111.357 47.8936 104.672 53.4434 107.67 56.2414C110.667 59.0393 121.222 63.4393 114.362 68.4372C106.512 74.1326 105.753 87.2023 121.697 80.1654C119.153 80.2574 116.408 78.6323 114.346 77.0992C113.965 76.888 113.646 76.5796 113.423 76.2052C113.199 75.8309 113.079 75.4041 113.074 74.9682C113.204 72.7988 117.382 70.7598 119.505 69.6483C123.1 65.7082 122.679 62.9487 119.743 59.8595C116.807 56.7703 113.679 55.0609 115.519 51.7264C116.646 49.672 119.582 47.1731 121.705 43.2943C123.905 39.2623 120.057 37.0163 115.941 34.9696C112.583 33.2985 109.364 32.1027 108.513 28.5536C107.938 26.1159 108.697 23.502 107.869 20.2902C106.842 16.3041 101.56 13.2302 97.7351 11.6971C95.6891 11.4987 93.6255 11.5838 91.6027 11.9501C96.0641 12.4483 105.546 16.833 103.009 31.7194C109.134 35.3835 112.997 35.0846 112.085 42.2211ZM39.6536 75.8037C38.603 73.5647 37.3319 71.436 35.8592 69.449C34.0732 68.6824 32.0265 68.6824 31.0146 70.4072C30.5854 71.1201 29.8725 72.5075 30.7003 72.5842C31.3826 72.6455 31.8885 72.1243 32.3561 71.626C33.5289 70.3995 33.5366 70.0929 33.6746 70.2232C33.6829 70.2311 33.6896 70.2406 33.6941 70.2511C33.6987 70.2617 33.701 70.2731 33.701 70.2845C33.701 70.296 33.6987 70.3074 33.6941 70.3179C33.6896 70.3285 33.6829 70.338 33.6746 70.3459C33.6746 70.3459 33.2146 71.0511 32.6934 71.695C32.793 72.6149 32.3408 73.0824 31.5742 73.0901C31.612 73.3196 31.583 73.5551 31.4906 73.7685C31.3981 73.9819 31.2462 74.1642 31.053 74.2936C30.8368 74.4381 30.5934 74.5371 30.3378 74.5845C30.0821 74.6319 29.8195 74.6269 29.5659 74.5696C29.6118 74.6232 32.4404 78.8852 32.4941 78.9542C34.3951 77.2525 37.17 75.2595 39.6536 75.8037ZM28.3624 70.5375C28.1116 70.7851 27.9382 71.1002 27.8633 71.4445C27.7885 71.7889 27.8154 72.1476 27.9408 72.4769C28.4697 74.079 30.1791 74.5159 30.8077 74.01C31.4362 73.5041 31.2216 73.2434 31.0913 73.0058C30.9308 73.0523 30.7616 73.0599 30.5976 73.0279C30.4336 72.9959 30.2796 72.9253 30.1484 72.8218C29.6676 72.645 29.2457 72.3376 28.9301 71.934C28.6146 71.5304 28.4179 71.0468 28.3624 70.5375ZM8.24043 20.9034C7.7051 20.8765 7.17245 20.9949 6.69884 21.2458C6.22522 21.4968 5.82822 21.8711 5.54984 22.3292C5.06814 23.2015 4.82242 24.1844 4.83695 25.1807C4.78329 29.0901 4.00908 69.7556 4.7373 72.2699C5.32754 74.3166 7.91081 74.0483 9.02998 73.941C11.9965 73.6497 24.4453 71.35 27.8564 70.7368C27.9913 70.568 28.1486 70.4184 28.324 70.2922C28.324 69.1194 29.6425 68.5445 30.8 68.3222C30.5394 68.0539 30.2941 67.8163 30.0334 67.5556C20.7889 69.265 11.9812 70.8365 12.0119 70.7521C12.0425 70.6678 8.32475 71.6337 7.58886 69.1577C6.85298 66.6818 7.58886 27.9557 7.58886 27.9557C7.58886 27.9557 7.45088 24.1689 10.5707 23.9159C13.6906 23.663 46.5986 27.9557 46.5986 27.9557C46.5986 27.9557 50.3394 28.2623 50.5157 30.8685L51.7038 61.1626C51.7038 61.1626 51.9644 62.9717 50.8759 63.4622C50.1094 63.8072 33.2453 66.9501 34.1498 66.7737C34.848 67.5183 35.5007 68.3041 36.1045 69.1271C36.8711 68.9814 52.5777 65.9305 53.2906 65.5856C53.4439 65.5076 53.5799 65.3996 53.6906 65.2679C53.8012 65.1362 53.8842 64.9835 53.9345 64.819C54.2794 63.9068 54.1414 65.8615 52.6467 28.4922C52.6209 28.1348 52.521 27.7867 52.3534 27.47C52.1858 27.1533 51.9541 26.8749 51.6732 26.6525C50.7429 25.9875 49.6534 25.5802 48.515 25.472C43.839 24.9125 13.0314 20.8881 8.24043 20.9034ZM32.5171 71.925C32.271 72.2402 31.979 72.5167 31.6509 72.7452C32.1951 72.7605 32.4634 72.4769 32.5171 71.925ZM35.5833 69.1041C33.3526 66.2525 30.2787 63.3779 26.676 63.0253C26.17 63.1403 26.2007 63.5082 26.4767 63.9452C27.1282 64.9723 27.9561 64.7884 31.3213 68.3145C31.3456 68.3402 31.3624 68.3722 31.3697 68.4068C31.377 68.4415 31.3745 68.4774 31.3626 68.5108C31.3507 68.5441 31.3298 68.5735 31.3022 68.5957C31.2746 68.6179 31.2414 68.632 31.2063 68.6365C29.7498 68.7668 28.301 69.403 28.6767 70.8288C28.7522 71.179 28.904 71.5083 29.1213 71.7931C29.3386 72.078 29.616 72.3114 29.9338 72.4769C29.7115 71.8176 30.2787 70.7828 30.639 70.1772C31.7505 68.3835 33.6592 68.2149 35.5909 69.1041H35.5833ZM103.714 67.9082C99.2146 68.9277 95.2822 67.9082 95.2822 63.3089C95.2822 56.3027 106.964 57.0769 104.312 46.7055C101.66 36.334 96.8919 43.0337 96.6466 35.2072C96.524 30.9069 96.5393 25.0964 93.8334 21.2023C91.7867 18.2588 88.1763 16.4267 81.7526 17.178C84.8188 17.7605 86.4669 19.9989 85.685 23.8929C84.8648 27.948 83.8759 32.5856 83.9526 36.0428C83.9986 38.1814 84.4355 39.8755 85.6467 40.6037C87.77 41.9145 92.9442 43.9152 95.2439 46.6288C99.3909 51.5041 91.2425 55.0609 88.7129 60.2811C87.77 62.2281 87.586 64.4741 89.0041 67.3487C89.6435 68.7295 90.6972 69.8769 92.0188 70.6311C93.3404 71.3853 94.8643 71.709 96.3784 71.557C99.2606 71.35 102.718 69.8169 103.722 67.9082H103.714ZM98.425 11.8198C102.196 13.3529 107.141 16.2888 108.199 20.2518C109.095 23.6016 108.321 26.1006 108.904 28.5076C109.716 31.8804 112.836 33.0072 116.125 34.64C120.494 36.8016 124.434 39.2393 122.081 43.5549C119.919 47.5103 117.006 49.9633 115.872 51.987C114.178 55.0532 117.06 56.5863 119.973 59.6525C122.886 62.7187 123.33 65.6239 119.973 69.426C123.851 67.4176 126.596 66.2448 125.661 64.0602C125.04 62.6037 123.154 60.8713 120.762 58.311C117.535 54.8616 120.463 51.8567 123.614 48.4455C128.336 43.348 130.873 39.5612 125.914 35.0386C122.847 32.2253 117.995 30.1327 115.435 28.4846C110.583 25.357 111.51 13.5905 98.4327 11.8198H98.425ZM80.1965 17.0093C77.3449 15.7215 73.8571 16.0511 70.6836 18.6421C66.3603 22.1529 63.9763 26.3076 66.9582 31.0142C69.5108 35.0769 74.0411 38.2734 70.7909 42.8267C67.7247 47.1041 64.8961 49.5187 65.9233 53.2671C66.9505 57.0156 77.8738 62.3967 74.3554 65.8539C72.8989 67.295 71.3965 67.387 70.4306 65.6929C70.8369 67.3563 72.1017 68.1765 73.8264 68.4295C74.4786 68.525 75.1396 68.5456 75.7965 68.4908C78.0961 67.0037 78.0118 65.0183 76.3944 62.78C73.5122 58.8016 69.963 58.9933 72.8146 53.1445C73.4529 51.7581 74.4377 50.5595 75.6738 49.6643C72.8223 45.9542 72.4543 40.0671 72.5233 35.4065C68.3533 30.6539 69.7177 24.3912 73.8188 19.9529C75.4822 18.1591 77.7818 16.7487 80.2041 17.0093H80.1965ZM75.7735 49.8177C73.6425 51.3508 72.1324 55.0915 72.1707 56.6476C72.2397 59.0086 74.616 59.5605 76.7163 62.5424C78.2494 64.7501 78.4947 66.9117 76.2411 68.4295C79.3916 67.9082 80.94 65.233 80.2655 62.9257C79.4223 60.0358 79.0237 61.0476 78.7324 57.8511C78.4258 54.8539 80.0662 54.7849 79.4989 52.6002C78.0436 52.0033 76.7642 51.0457 75.7812 49.8177H75.7735ZM9.79653 51.6804C9.79653 51.6804 9.57423 64.1138 9.70454 66.9654C9.70454 66.9654 22.2606 65.371 22.6669 64.8727C22.8202 64.6887 22.5059 51.2741 22.3526 51.2511C22.1993 51.2281 9.64322 51.665 9.79653 51.6804ZM74.1867 63.5926C73.1871 64.2971 72.1307 64.9176 71.0285 65.4476C71.7951 66.7201 72.7993 66.4211 73.8571 65.371C74.0961 65.1496 74.2583 64.8579 74.3203 64.5382C74.3824 64.2184 74.3409 63.8872 74.2021 63.5926H74.1867ZM29.9568 63.5926C32.816 63.148 35.7519 62.6727 36.0892 62.5577C36.4265 62.4427 36.4725 50.8602 36.4725 50.6379C36.4725 50.4156 24.085 51.1898 24.2077 51.1974C24.2077 51.1974 24.246 61.4615 24.3456 64.4664L26.1164 64.1981C25.7791 63.6615 25.7101 63.079 26.2544 62.757C26.3728 62.6869 26.5025 62.6376 26.6376 62.6114C27.801 62.7103 28.9337 63.0358 29.9721 63.5696L29.9568 63.5926ZM15.331 59.0853C15.285 58.2037 15.1547 54.6776 15.6836 53.9724C15.7172 53.9203 15.764 53.878 15.8192 53.8497C15.8744 53.8214 15.936 53.8082 15.9979 53.8114C16.9561 53.8574 16.6418 54.9995 16.9408 59.0239C19.0871 60.2657 18.6425 63.1863 15.9903 63.2323C14.8634 63.2323 13.5603 62.1285 13.7903 60.8636C13.8844 60.4648 14.0737 60.0947 14.342 59.785C14.6103 59.4753 14.9497 59.2352 15.331 59.0853ZM16.4272 55.7738C16.3735 54.417 16.3429 54.141 15.9749 54.118C15.9289 54.118 15.8446 54.302 15.8293 54.348C15.3847 55.5438 15.4843 59.5452 15.469 59.1312C15.4704 59.1453 15.4675 59.1594 15.4607 59.1718C15.4538 59.1841 15.4433 59.194 15.4307 59.2002C15.0785 59.3626 14.763 59.5947 14.5031 59.8825C14.3408 60.0416 14.2129 60.2324 14.1275 60.4431C14.0421 60.6537 14.001 60.8797 14.0068 61.1069C14.0126 61.3342 14.065 61.5578 14.161 61.7639C14.2569 61.97 14.3943 62.1541 14.5645 62.3048C14.9432 62.6783 15.4508 62.8923 15.9826 62.9027C16.4758 62.9054 16.9568 62.7496 17.3547 62.4581C17.6911 62.1692 17.9062 61.7643 17.9574 61.3239C18.0085 60.8835 17.8919 60.44 17.6307 60.0818C17.3899 59.7592 17.0777 59.4969 16.7185 59.3152C16.6915 59.3014 16.6687 59.2807 16.6525 59.255C16.6363 59.2294 16.6273 59.1999 16.6265 59.1696C16.5038 57.4832 16.5652 57.6365 16.4732 57.6365C16.4172 57.6441 16.3605 57.6441 16.3045 57.6365C16.2657 57.6412 16.2263 57.6359 16.1901 57.6211C16.1539 57.6064 16.1221 57.5826 16.0976 57.5522C16.0286 57.5062 16.0209 57.4908 16.0209 57.4908C16.0019 57.4852 15.9853 57.4735 15.9734 57.4576C15.9616 57.4418 15.9552 57.4225 15.9552 57.4027C15.9552 57.3829 15.9616 57.3636 15.9734 57.3477C15.9853 57.3318 16.0019 57.3202 16.0209 57.3145L16.0976 57.2532C16.1393 57.2145 16.1939 57.1926 16.2509 57.1919C16.5192 57.1459 16.4655 57.3298 16.4425 56.8623C16.2559 56.9389 16.0466 56.9389 15.8599 56.8623C15.8195 56.8475 15.7829 56.8239 15.7526 56.7933C15.7303 56.7933 15.7088 56.7844 15.693 56.7686C15.6772 56.7528 15.6683 56.7313 15.6683 56.7089C15.6683 56.6866 15.6772 56.6651 15.693 56.6493C15.7088 56.6335 15.7303 56.6246 15.7526 56.6246C15.8497 56.5571 15.9612 56.513 16.0782 56.4957C16.1952 56.4784 16.3147 56.4884 16.4272 56.525V56.1877C16.3716 56.1993 16.3142 56.1993 16.2585 56.1877C16.0056 56.1417 15.9289 55.8197 16.2585 55.7661C16.3118 55.7566 16.3663 55.7566 16.4195 55.7661L16.4272 55.7738ZM37.8446 50.5305C37.8446 50.5305 37.9289 60.0894 38.2202 62.1131C38.2202 62.1131 48.515 60.8636 48.8676 60.4114C49.0286 60.2121 48.8063 49.8483 48.6683 49.833C48.5303 49.8177 37.7066 50.5152 37.8369 50.5229L37.8446 50.5305ZM28.3164 55.4135C27.9331 52.194 30.3017 51.5807 31.2139 52.9988C31.5594 53.6032 31.7392 54.2881 31.7352 54.9842C32.747 54.9382 33.4446 54.9842 33.4446 54.9842C33.6286 54.9842 33.6362 55.2525 33.6592 55.4671C33.7972 56.7856 33.8202 61.0246 33.8125 60.8866C33.8123 60.9145 33.806 60.9419 33.7941 60.9671C33.7822 60.9922 33.7649 61.0145 33.7435 61.0323C33.069 61.5459 27.3122 62.0288 27.3888 62.0211C27.2202 62.0211 27.1282 61.7452 27.0899 61.5842C26.8272 59.7153 26.7017 57.8296 26.7143 55.9424L26.7679 55.8811C27.2715 55.6863 27.7892 55.53 28.3164 55.4135ZM33.3066 55.2908C31.1222 55.1783 28.9341 55.4243 26.8293 56.0191C26.8676 56.7856 27.0746 61.0246 27.4195 61.7298C28.324 61.6379 32.6244 61.2009 33.4293 60.8177C33.4599 59.9131 33.4216 56.1417 33.3066 55.2908ZM84.8341 54.6009V53.6427C83.1076 53.6419 81.3948 53.3357 79.7749 52.7382C80.2961 54.8386 78.74 54.9076 79.085 57.8128C79.13 58.9668 79.4677 60.0905 80.0662 61.0783C80.986 60.741 82.1052 60.3807 83.0404 60.0894C82.9254 59.2539 81.8446 55.9731 83.1017 55.0609C83.6467 54.8044 84.2336 54.6486 84.8341 54.6009ZM30.1331 58.679C29.9062 58.578 29.7197 58.4039 29.6033 58.1846C29.4869 57.9653 29.4473 57.7133 29.4908 57.4688C29.5343 57.2243 29.6584 57.0015 29.8434 56.8358C30.0283 56.67 30.2634 56.571 30.5112 56.5545C30.759 56.538 31.0051 56.6049 31.2104 56.7446C31.4157 56.8843 31.5683 57.0887 31.6439 57.3253C31.7195 57.5618 31.7137 57.8168 31.6274 58.0497C31.5411 58.2825 31.3794 58.4798 31.1679 58.61C31.2863 59.1131 31.3556 59.6266 31.3749 60.1431C31.3749 60.4957 30.3707 60.5264 30.1024 60.3807C29.8341 60.2351 30.0411 59.2922 30.1331 58.679ZM44.5519 52.7612C44.8845 52.8459 45.1954 53 45.4641 53.2135C45.3426 53.3512 45.2746 53.528 45.2725 53.7117C45.2725 54.3326 45.924 54.6316 46.2996 54.1947C46.4761 54.5255 46.5977 54.8827 46.6599 55.2525C46.5105 55.2947 46.3789 55.3846 46.2852 55.5084C46.1915 55.6322 46.1408 55.7833 46.1408 55.9386C46.1408 56.0939 46.1915 56.2449 46.2852 56.3687C46.3789 56.4926 46.5105 56.5824 46.6599 56.6246C46.5902 56.9908 46.4608 57.343 46.2766 57.6671C46.1921 57.5759 46.081 57.5137 45.959 57.4894C45.8371 57.4651 45.7106 57.4799 45.5975 57.5317C45.4845 57.5836 45.3908 57.6698 45.3296 57.7781C45.2685 57.8863 45.2431 58.0112 45.2571 58.1347C45.2547 58.3156 45.3204 58.4907 45.4411 58.6253C45.1658 58.8277 44.8532 58.9735 44.5212 59.0546C44.5046 58.9087 44.4349 58.7739 44.3253 58.6761C44.2158 58.5783 44.074 58.5243 43.9272 58.5243C43.7803 58.5243 43.6386 58.5783 43.529 58.6761C43.4194 58.7739 43.3497 58.9087 43.3331 59.0546C42.9781 58.9602 42.6466 58.7932 42.3596 58.564C42.8195 57.9738 42.1296 57.1152 41.593 57.5828C41.4281 57.2647 41.3119 56.9236 41.2481 56.571C41.3759 56.5146 41.4846 56.4222 41.5608 56.3052C41.6371 56.1881 41.6777 56.0514 41.6777 55.9117C41.6777 55.772 41.6371 55.6353 41.5608 55.5183C41.4846 55.4012 41.3759 55.3089 41.2481 55.2525C41.313 54.9099 41.4293 54.5792 41.593 54.2713C42.1526 54.7772 42.8732 53.9034 42.4132 53.2748C42.7044 53.0493 43.0381 52.885 43.3944 52.7919C43.374 52.8808 43.3741 52.9732 43.3949 53.0621C43.4157 53.1509 43.4565 53.2338 43.5143 53.3044C43.5721 53.3751 43.6453 53.4315 43.7282 53.4695C43.8112 53.5075 43.9017 53.526 43.9929 53.5236C44.0842 53.5212 44.1736 53.4979 44.2544 53.4556C44.3353 53.4132 44.4054 53.353 44.4593 53.2794C44.5133 53.2058 44.5496 53.1209 44.5657 53.031C44.5817 52.9412 44.577 52.8489 44.5519 52.7612ZM92.4689 54.6469L89.4027 54.7389C89.5926 55.7494 89.6723 56.7775 89.6404 57.8051C90.4529 56.7166 91.4648 55.6971 92.4689 54.6469ZM43.9463 55.2065C44.1159 55.2202 44.2731 55.3005 44.3837 55.4297C44.4943 55.559 44.5493 55.7268 44.5366 55.8964C44.5505 55.9829 44.5454 56.0715 44.5218 56.1559C44.4981 56.2403 44.4564 56.3185 44.3996 56.3852C44.3427 56.4519 44.2721 56.5055 44.1925 56.5423C44.1129 56.579 44.0263 56.598 43.9387 56.598C43.851 56.598 43.7644 56.579 43.6848 56.5423C43.6053 56.5055 43.5346 56.4519 43.4777 56.3852C43.4209 56.3185 43.3792 56.2403 43.3556 56.1559C43.3319 56.0715 43.3269 55.9829 43.3408 55.8964C43.3345 55.8112 43.3453 55.7256 43.3725 55.6446C43.3996 55.5636 43.4427 55.4888 43.499 55.4246C43.5554 55.3604 43.624 55.308 43.7008 55.2706C43.7775 55.2331 43.861 55.2114 43.9463 55.2065ZM31.5819 54.9919C31.4209 53.934 30.9456 52.5389 29.8648 52.6922C28.784 52.8455 28.4774 54.2943 28.462 55.4135C29.4901 55.1957 30.5329 55.0547 31.5819 54.9919ZM79.9129 17.2086C79.9129 17.2086 77.3296 18.5961 75.3596 23.0344C73.9292 26.5351 73.1774 30.2759 73.1442 34.0574C72.9986 38.833 73.2285 45.2414 75.9728 49.1431C78.0885 52.1403 81.3386 53.1905 84.9721 53.3591C85.0094 53.3611 85.0445 53.3773 85.0702 53.4044C85.0958 53.4315 85.1101 53.4674 85.1101 53.5048V54.5703C87.6265 54.3607 90.1541 54.3197 92.6759 54.4476C93.6923 53.4333 94.5969 52.3128 95.3742 51.1055C98.1567 46.4448 88.9198 43.187 85.409 40.9947C84.0982 40.1668 83.554 38.3884 83.554 36.0351C83.508 32.555 84.5352 27.8867 85.3937 23.8163C85.8383 21.6853 85.5087 20.2518 84.8494 19.286C84.3742 18.6892 83.7751 18.2027 83.0935 17.8599C82.412 17.5171 81.6642 17.3263 80.9017 17.3006C80.8813 17.3102 80.8591 17.3151 80.8366 17.3151C80.814 17.3151 80.7918 17.3102 80.7714 17.3006C80.4906 17.2315 80.2019 17.2006 79.9129 17.2086ZM9.96517 33.4748C9.96517 33.4748 9.74287 45.7396 9.96517 48.5529C9.96517 48.5529 22.138 48.2539 22.7359 48.0469C23.0425 47.9396 22.7359 34.0497 22.6132 34.0191C22.4906 33.9884 9.79653 33.4595 9.96517 33.4748ZM24.1693 34.0191C24.1693 34.0191 24.016 44.7508 24.2537 48.1466C24.2537 48.1466 35.8669 47.84 36.4265 47.6253C36.6948 47.334 36.7254 34.8546 36.5721 34.8316C36.4188 34.8086 24.0084 34.0037 24.1463 34.0191H24.1693ZM38.0746 34.9466C38.0746 34.9466 37.7909 44.2448 38.0286 47.6253C38.0286 47.6253 48.1164 47.2344 48.7143 47.1961C48.9826 47.1961 48.7143 35.8894 48.5456 35.8664C48.377 35.8435 37.9136 34.9313 38.0516 34.9466H38.0746ZM14.9477 45.1264C16.0029 45.2618 17.0698 45.2798 18.1289 45.18C18.4585 45.18 18.5505 45.18 18.5505 45.0727C18.5505 45.0637 18.5487 45.0547 18.5453 45.0463C18.5418 45.0379 18.5367 45.0303 18.5303 45.0239C18.5239 45.0175 18.5163 45.0124 18.5079 45.009C18.4996 45.0055 18.4906 45.0037 18.4815 45.0037C17.3081 44.8587 16.1212 44.8587 14.9477 45.0037C14.9382 45.0109 14.9305 45.0201 14.9252 45.0308C14.9199 45.0414 14.9171 45.0532 14.9171 45.065C14.9171 45.077 14.9199 45.0887 14.9252 45.0993C14.9305 45.11 14.9382 45.1192 14.9477 45.1264ZM43.0418 38.7027C42.8732 37.5759 44.3679 37.6832 44.0843 38.7027C44.3818 38.8088 44.6461 38.9912 44.8509 39.2316C45.4871 39.9982 45.1498 40.5654 45.7401 42.0908C46.269 43.4706 46.6063 43.532 46.5066 43.7389C46.407 43.9459 46.5066 43.8309 44.7742 43.7849C45.0655 43.8922 44.7742 44.3905 44.4599 44.5515C44.2499 44.6911 44.0021 44.763 43.7499 44.7575C43.4977 44.7521 43.2533 44.6694 43.0495 44.5208C42.8172 44.3135 42.6428 44.0493 42.5435 43.7542L40.5122 43.6929C40.4742 43.6868 40.4394 43.6684 40.4128 43.6406C40.3863 43.6127 40.3696 43.577 40.3653 43.5388C40.3609 43.5006 40.3692 43.462 40.3888 43.429C40.4084 43.3959 40.4383 43.3702 40.4739 43.3556C41.0181 43.2253 41.2404 42.2901 41.3937 41.7076C41.7233 40.3048 41.6697 39.063 43.0418 38.7027ZM14.9477 44.3368C16.003 44.4708 17.0698 44.4888 18.1289 44.3905C18.4585 44.3905 18.5505 44.3905 18.5505 44.2832C18.5505 44.2649 18.5433 44.2473 18.5303 44.2344C18.5174 44.2215 18.4998 44.2142 18.4815 44.2142C17.3083 44.066 16.121 44.066 14.9477 44.2142C14.9382 44.2213 14.9305 44.2306 14.9252 44.2412C14.9199 44.2519 14.9171 44.2636 14.9171 44.2755C14.9171 44.2874 14.9199 44.2991 14.9252 44.3098C14.9305 44.3204 14.9382 44.3297 14.9477 44.3368ZM42.8272 43.9536C42.9112 44.084 43.0233 44.194 43.1553 44.2756C43.2873 44.3572 43.4358 44.4084 43.59 44.4252C43.7443 44.4421 43.9004 44.4244 44.0469 44.3733C44.1934 44.3222 44.3266 44.239 44.4369 44.1299C43.7854 44.0839 43.4327 44.0455 42.8272 43.9536ZM29.5659 39.7529C29.5659 39.7529 26.7833 39.2393 26.4997 40.7417C26.216 42.2441 28.3087 42.4511 29.5352 42.2211C29.5352 42.2211 31.0683 44.2448 31.4209 44.0762C31.7735 43.9076 31.6739 38.5724 31.5052 38.2581C31.3366 37.9438 29.6272 39.6915 29.5659 39.7529ZM14.8788 41.6309C14.4246 41.5194 14.0233 41.2535 13.7437 40.8788C13.464 40.504 13.3233 40.0436 13.3457 39.5766C13.3457 37.8441 14.6181 37.1773 16.3352 37.0776C18.4969 36.9703 19.6084 38.1048 19.639 39.7452C19.6333 40.1068 19.537 40.4611 19.3589 40.7758C19.1808 41.0906 18.9266 41.3556 18.6195 41.5466V43.6699C18.6195 43.7126 18.6026 43.7536 18.5724 43.7838C18.5422 43.8139 18.5012 43.8309 18.4585 43.8309L14.9094 43.7542C14.8789 43.7542 14.8497 43.7421 14.8281 43.7206C14.8065 43.699 14.7944 43.6698 14.7944 43.6393L14.8788 41.6309ZM18.3206 43.509C18.3206 41.309 18.3206 41.3703 18.3972 41.309C18.6633 41.1464 18.8864 40.9222 19.0478 40.6554C19.2092 40.3887 19.3042 40.087 19.3247 39.7759C19.3247 38.3347 18.3512 37.3536 16.3812 37.4379C14.8481 37.5069 13.6599 38.0511 13.6216 39.6072C13.5849 40.0362 13.6998 40.4644 13.9464 40.8174C14.1929 41.1703 14.5554 41.4257 14.9707 41.5389C14.9848 41.5439 14.997 41.5533 15.0053 41.5657C15.0136 41.5782 15.0176 41.593 15.0167 41.6079V43.5779L18.3206 43.509ZM46.0313 43.509C45.4957 42.6041 45.1708 41.5901 45.0808 40.5424C45.1026 40.124 44.9679 39.7125 44.7029 39.388C44.4379 39.0635 44.0617 38.8493 43.6474 38.787C43.2352 38.789 42.8357 38.9294 42.5129 39.1856C42.2072 39.4568 42.011 39.8302 41.961 40.2358C41.777 41.3166 41.616 42.7347 41.0641 43.3556L46.0313 43.509ZM33.8585 39.5612C34.0731 39.7544 34.2442 39.991 34.3605 40.2553C34.4768 40.5196 34.5356 40.8056 34.5331 41.0943C34.54 41.393 34.4738 41.6888 34.3402 41.956C34.2066 42.2233 34.0096 42.4537 33.7665 42.6274C33.7513 42.6447 33.7298 42.6552 33.7068 42.6567C33.6838 42.6581 33.6612 42.6503 33.6439 42.6351C33.6266 42.6198 33.6161 42.5984 33.6147 42.5753C33.6132 42.5523 33.621 42.5297 33.6362 42.5124C33.7697 42.294 33.8753 42.0596 33.9505 41.8149C34.0575 41.4578 34.0882 41.0821 34.0407 40.7124C33.9931 40.3426 33.8684 39.987 33.6746 39.6685C33.6056 39.5229 33.7589 39.4616 33.8202 39.5612C33.8815 39.6609 33.8662 39.5459 33.8585 39.5612ZM33.092 42.0602C33.0737 42.0744 33.0505 42.0808 33.0275 42.0779C33.0045 42.075 32.9836 42.0631 32.9693 42.0448C32.9551 42.0265 32.9487 42.0033 32.9516 41.9803C32.9545 41.9573 32.9664 41.9364 32.9847 41.9222C33.088 41.787 33.1755 41.6404 33.2453 41.4853C33.4676 41.0253 33.3066 40.7187 33 40.1898C32.9233 40.0595 33.046 40.0135 33.0843 40.0365C33.2902 40.1138 33.4676 40.2521 33.5929 40.4329C33.7181 40.6137 33.7852 40.8284 33.7852 41.0483C33.7852 41.2683 33.7181 41.483 33.5929 41.6638C33.4676 41.8446 33.2902 41.9829 33.0843 42.0602H33.092ZM32.5554 40.5271C32.6268 40.7576 32.6451 41.0013 32.6091 41.24C32.5966 41.3285 32.5761 41.4158 32.5477 41.5006C32.4634 41.5849 32.5477 41.7076 32.6627 41.6309C32.7672 41.5868 32.8587 41.5167 32.9286 41.4274C32.9984 41.3381 33.0444 41.2324 33.062 41.1203C33.0797 41.0083 33.0684 40.8936 33.0294 40.7871C32.9904 40.6806 32.9249 40.5859 32.839 40.5117C32.7907 40.4744 32.7394 40.4411 32.6857 40.4121C32.6684 40.3938 32.6446 40.3831 32.6194 40.3824C32.5943 40.3817 32.5699 40.391 32.5516 40.4083C32.5333 40.4255 32.5226 40.4494 32.5219 40.4745C32.5211 40.4997 32.5305 40.5241 32.5477 40.5424L32.5554 40.5271ZM33.1456 40.0748C33.1421 40.0794 33.1395 40.0846 33.138 40.0901L33.1456 40.0748ZM100.725 39.9215C101.431 39.7257 102.055 39.3075 102.506 38.729C102.956 38.1505 103.207 37.4424 103.224 36.7097C103.328 35.8316 103.193 34.9416 102.833 34.134C102.736 33.8761 102.583 33.6427 102.386 33.4506C102.188 33.2584 101.951 33.1123 101.691 33.0225C99.7205 32.532 98.6243 34.9696 97.2675 36.4567C97.6662 39.3313 99.0076 39.063 100.725 39.9215ZM33.8355 39.6609C33.8207 39.6661 33.8044 39.6661 33.7895 39.6609C33.8062 39.6615 33.8226 39.656 33.8355 39.6455V39.6609ZM43.9387 38.7027C43.9108 38.5759 43.853 38.4576 43.77 38.3577C43.7485 38.3306 43.7211 38.3087 43.6899 38.2936C43.6587 38.2785 43.6245 38.2707 43.5899 38.2707C43.5552 38.2707 43.521 38.2785 43.4899 38.2936C43.4587 38.3087 43.4313 38.3306 43.4097 38.3577C43.3248 38.4596 43.2551 38.5732 43.2028 38.695C43.4434 38.6295 43.6968 38.6269 43.9387 38.6874V38.7027ZM80.8634 17.0476C87.9923 15.9361 91.94 17.8525 94.163 20.9877C97.4745 25.6637 96.8919 33.1452 97.2292 36.0044C97.9958 34.9773 98.7623 33.6511 99.8815 32.9382C99.1149 31.3131 100.763 14.587 80.5338 16.718C80.3575 16.833 80.3728 16.7334 80.8634 17.0323V17.0476ZM79.4223 17.2316C76.1108 17.5152 73.2285 20.7271 71.7568 23.686C69.7944 27.557 69.9324 31.6198 72.5233 34.9619C72.5344 32.3483 72.8352 29.7441 73.4202 27.1968C74.3094 23.5403 76.2717 19.2783 79.4223 17.2163V17.2316ZM32.5477 24.4602C32.6716 24.4382 32.7992 24.4548 32.9133 24.5078C33.0274 24.5608 33.1225 24.6476 33.1856 24.7564C33.2487 24.8653 33.2768 24.9909 33.2661 25.1162C33.2553 25.2416 33.2063 25.3606 33.1257 25.4571C33.045 25.5537 32.9366 25.6231 32.8152 25.6559C32.6937 25.6888 32.5651 25.6835 32.4468 25.6407C32.3284 25.598 32.2261 25.5199 32.1537 25.4171C32.0812 25.3142 32.0422 25.1916 32.0418 25.0658C32.029 24.9185 32.0751 24.7721 32.1699 24.6586C32.2647 24.5451 32.4005 24.4738 32.5477 24.4602Z" fill="black"/>
</svg>
