<svg width="154" height="154" viewBox="0 0 154 154" fill="none" xmlns="http://www.w3.org/2000/svg">
<path d="M130.026 137.561C100.773 142.565 67.615 148.238 36.7314 140.907C31.0768 139.545 23.7863 137.44 17.5452 133.221C10.7369 128.682 6.20897 124.197 4.67591 115.874C3.40117 108.826 4.83381 101.016 8.71092 93.8812C12.5083 86.7708 18.2504 80.703 23.7257 74.816C23.795 74.7415 23.8319 74.6425 23.8283 74.5408C23.8246 74.4391 23.7807 74.343 23.7062 74.2737C23.6317 74.2044 23.5327 74.1675 23.431 74.1711C23.3293 74.1748 23.2332 74.2187 23.1639 74.2932C17.6034 80.2469 11.8836 86.314 8.03561 93.5178C4.07725 100.8 2.61624 108.792 3.92164 116.012C5.50069 124.573 10.3406 129.339 17.119 133.857C30.1784 142.685 53.172 145.18 69.1772 145.18C90.0352 145.18 110.939 141.604 130.156 138.317C130.256 138.3 130.346 138.244 130.405 138.161C130.463 138.078 130.487 137.975 130.47 137.875C130.453 137.774 130.396 137.685 130.314 137.626C130.231 137.568 130.128 137.544 130.027 137.561H130.026Z" fill="black"/>
<path d="M140.706 131.94C112.651 136.155 80.8566 140.933 51.0684 133.901C46.3543 132.782 41.4615 131.316 37.6174 128.191C31.2858 123.025 30.8044 115.913 36.2928 108.681C42.8895 100.141 51.94 93.9449 59.9058 88.8084C59.9866 88.7515 60.0423 88.6655 60.0612 88.5684C60.0802 88.4713 60.0608 88.3707 60.0073 88.2876C59.9537 88.2044 59.8701 88.1452 59.7739 88.1223C59.6777 88.0993 59.5764 88.1145 59.4911 88.1645C51.4716 93.3356 42.3568 99.5751 35.6842 108.215C29.9091 115.824 30.4365 123.321 37.1329 128.786C41.0982 132.005 46.089 133.506 50.8921 134.646C80.31 141.592 111.342 137.127 140.819 132.697C140.916 132.678 141.002 132.622 141.059 132.542C141.116 132.461 141.139 132.362 141.125 132.264C141.11 132.166 141.058 132.078 140.98 132.018C140.902 131.957 140.804 131.929 140.706 131.94Z" fill="black"/>
<path d="M134.186 135.605C115.881 138.435 97.425 140.175 78.9143 140.818C71.1817 141.046 63.4425 140.748 55.7505 139.924C43.7597 138.54 32.0425 134.274 24.4086 128.512C20.4346 125.512 17.7021 121.155 16.7311 116.272C13.6511 100.591 31.0031 85.1544 36.3941 80.7959C36.4702 80.731 36.518 80.639 36.5272 80.5395C36.5364 80.4399 36.5064 80.3407 36.4435 80.263C36.3805 80.1853 36.2898 80.1352 36.1905 80.1235C36.0912 80.1118 35.9912 80.1393 35.912 80.2003C30.4359 84.6254 12.8164 100.318 15.9822 116.42C16.9893 121.487 19.8237 126.007 23.9464 129.121C31.6884 134.962 43.542 139.284 55.6655 140.683C63.3943 141.509 71.1702 141.809 78.9396 141.582C97.4813 140.939 115.969 139.196 134.304 136.363C134.404 136.348 134.495 136.293 134.555 136.21C134.615 136.128 134.64 136.026 134.624 135.925C134.608 135.825 134.553 135.734 134.471 135.674C134.389 135.614 134.286 135.589 134.186 135.605Z" fill="black"/>
<path d="M7.74961 102.597C7.73999 102.652 7.74254 102.708 7.7571 102.762C7.77166 102.816 7.79787 102.867 7.83388 102.909C7.86989 102.952 7.91484 102.987 7.96557 103.01C8.01629 103.034 8.07157 103.046 8.12751 103.046C9.13166 103.046 7.50432 100.894 13.33 92.6977C17.4214 86.8487 22.0704 81.4102 27.2118 76.4588C27.2849 76.3876 27.3267 76.2903 27.3281 76.1883C27.3295 76.0863 27.2903 75.988 27.2191 75.9149C27.1479 75.8418 27.0507 75.8 26.9487 75.7986C26.8467 75.7973 26.7483 75.8365 26.6752 75.9076C21.5 80.8924 16.8206 86.3676 12.7029 92.2562C10.6364 95.1644 8.43182 98.6659 7.74961 102.597Z" fill="black"/>
<path d="M26.6553 120.021C27.8051 124.897 31.9696 129.562 38.0911 132.822C43.0437 135.459 48.4454 136.759 54.4834 138.072C54.5335 138.086 54.5857 138.089 54.6369 138.081C54.6882 138.074 54.7374 138.056 54.7816 138.029C54.8258 138.002 54.8641 137.967 54.8942 137.924C54.9242 137.882 54.9454 137.834 54.9565 137.784C54.9675 137.733 54.9682 137.681 54.9584 137.63C54.9487 137.579 54.9288 137.531 54.8998 137.488C54.8708 137.445 54.8335 137.408 54.79 137.38C54.7465 137.352 54.6977 137.333 54.6467 137.324C48.6677 136.021 43.3173 134.736 38.4514 132.146C32.5254 128.991 28.4972 124.51 27.4011 119.851C25.0149 109.51 32.6794 97.4356 41.1028 91.3248C41.1453 91.2959 41.1815 91.2589 41.2094 91.2157C41.2372 91.1726 41.2561 91.1244 41.265 91.0738C41.2738 91.0232 41.2724 90.9714 41.2608 90.9214C41.2493 90.8714 41.2278 90.8242 41.1976 90.7827C41.1675 90.7412 41.1293 90.7061 41.0854 90.6796C41.0414 90.6531 40.9926 90.6357 40.9418 90.6284C40.891 90.6211 40.8392 90.6241 40.7896 90.6372C40.74 90.6503 40.6935 90.6732 40.6529 90.7047C32.0302 96.9549 24.1939 109.358 26.6553 120.021Z" fill="black"/>
<path d="M38.0781 101.463C38.149 101.536 38.2459 101.578 38.3475 101.579C38.4491 101.58 38.5472 101.541 38.62 101.471C48.0178 92.2833 58.8875 84.7344 70.7783 79.1369C70.8601 79.0881 70.9207 79.0106 70.9485 78.9195C70.9762 78.8284 70.9691 78.7303 70.9284 78.6442C70.8878 78.5581 70.8165 78.4902 70.7285 78.4537C70.6406 78.4173 70.5422 78.4149 70.4525 78.447C58.4841 84.0794 47.5438 91.6768 38.0858 100.924C38.0138 100.995 37.9727 101.091 37.9712 101.192C37.9698 101.293 38.0082 101.39 38.0781 101.463Z" fill="black"/>
<path d="M72.4678 50.1094C76.5396 51.8226 82.4741 42.8013 82.1767 36.0972C81.9812 31.7057 78.9979 30.4164 75.6972 33.3714C70.8174 37.7376 68.2879 48.3494 72.4678 50.1094Z" fill="black"/>
<path d="M149.73 43.6122C149.33 40.5572 148.335 37.6101 146.802 34.9374C145.629 32.8697 144.105 31.0217 142.299 29.4758C142.523 29.1562 142.017 28.1666 141.892 27.9428C140.747 25.9099 137.836 24.0971 133.543 21.5936C127.615 18.0998 121.529 14.1583 115.061 11.9476C107.829 9.47476 101.007 8.56259 94.7647 9.24097C92.3118 9.54758 85.6369 10.0351 80.5026 13.7029C74.0408 18.319 74.9836 17.8805 74.6969 17.8736C70.9409 17.8123 67.2616 19.2933 63.4466 22.4422C60.1007 25.2017 57.5995 27.4698 53.8872 31.104C47.5158 37.4723 45.5588 41.6116 42.5847 50.0595C39.6719 53.2912 36.8066 56.539 33.9888 59.8029C30.3715 63.995 29.7729 70.0813 28.9297 75.473C28.9184 75.5467 28.9289 75.622 28.9598 75.6898C28.9906 75.7576 29.0406 75.815 29.1036 75.8548C29.1665 75.8947 29.2397 75.9153 29.3142 75.9142C29.3887 75.9131 29.4612 75.8903 29.523 75.8486L35.3149 76.8666C35.6881 77.2819 36.1799 77.5725 36.7238 77.6991C38.5129 78.0823 40.7956 78.9171 42.6107 78.1099C46.5791 78.8327 64.0291 81.777 69.2446 82.7528C69.3225 82.7665 69.4027 82.756 69.4746 82.7229C69.6992 82.8279 69.0959 83.0295 77.33 79.4268C77.4434 82.4239 78.4798 84.5411 79.9944 84.8493C81.1565 85.2039 82.3716 85.3525 83.5849 85.2885C85.7557 85.1934 87.6912 82.312 88.184 78.4349C88.3558 77.1912 88.34 75.9287 88.1373 74.6896L115.731 62.593C114.833 67.3946 115.712 71.1352 118.034 72.3425C120.096 73.3374 122.218 74.2015 124.389 74.9296C124.707 74.9935 125.03 75.0271 125.354 75.03C128.992 75.03 133.283 70.9559 135.899 64.8512C137.063 62.2603 137.686 59.4589 137.73 56.6187C138.142 56.8881 138.608 57.0653 139.095 57.1381C139.582 57.2108 140.079 57.1775 140.553 57.0403C143.446 55.3079 146.014 51.611 147.804 49.6433C149.799 47.5368 150.065 46.2146 149.73 43.6122ZM102.168 30.0293C104.192 28.8864 105.446 28.0731 107.573 27.5986C112.185 26.9854 117.534 29.193 121.79 31.0741C127.866 33.7125 134.201 36.7648 139.381 41.2038C140.251 41.8924 141.059 42.6579 141.792 43.4911C141.792 43.5018 141.801 43.5118 141.805 43.5218C142.872 45.6581 141.526 47.7998 139.937 49.5965L102.168 30.0293ZM70.1177 38.9977C75.2082 26.8988 84.8665 22.955 85.3364 33.5799C85.3715 37.3225 84.6014 41.0289 83.0782 44.4477C81.109 49.1289 76.3618 56.3351 71.7818 56.0415C66.1233 55.6797 67.5314 45.1522 70.1177 38.9962V38.9977ZM34.6856 75.9774L30.1316 75.1779C30.7307 74.543 31.3993 73.9773 32.1246 73.4916C32.2442 73.4149 32.3231 73.3268 32.4312 72.8178C32.5362 72.3257 32.6681 71.438 32.8911 69.7724C33.1984 66.8031 34.1726 63.9417 35.7411 61.4018C36.7544 59.8105 38.3588 58.2997 40.1724 58.7849C40.4185 58.8781 40.6427 59.0211 40.8308 59.205C35.495 59.1444 31.9337 70.9152 34.6856 75.9774ZM46.4733 63.0231C45.5825 63.8583 44.6368 64.6329 43.6425 65.3418C43.6325 65.1532 43.5735 64.6128 43.5566 64.422C44.2465 63.8156 45.115 63.1058 46.0862 62.3347C46.172 62.475 46.3997 62.8728 46.4733 63.0238V63.0231ZM74.5597 21.1291C76.5634 19.025 80.5686 16.4004 83.3879 16.9975C84.5139 17.3588 85.4653 18.126 86.0569 19.1499C81.7766 17.2888 75.5118 20.5465 72.5192 24.209C72.254 24.5335 71.9985 24.8657 71.7527 25.2055C72.557 23.7608 73.4969 22.3958 74.5597 21.1291ZM92.0773 34.9167C92.1689 35.3535 92.2378 35.7949 92.2835 36.2389C92.2114 36.2029 88.8655 34.5526 87.2359 33.8995C87.622 32.3796 87.74 30.804 87.5846 29.2436C87.9503 29.449 88.3082 29.6621 88.6532 29.879C88.6261 30.771 88.5429 31.6604 88.404 32.542C88.2492 33.6266 90.0743 34.3533 92.0773 34.9167ZM142.968 45.3039C143.211 45.7977 143.329 46.3433 143.312 46.8933C143.296 47.4432 143.145 47.9807 142.873 48.459C141.433 51.0368 139.138 53.0965 136.915 55.0826L136.172 53.597C138.948 52.0632 142.861 48.3639 142.968 45.3039ZM145.996 38.9164C132.851 26.5592 115.631 20.7351 103.995 21.2149C98.7591 21.4311 92.6031 24.9165 91.4679 25.7888C91.4137 25.1531 91.3319 24.5197 91.2226 23.8886C94.4877 21.5894 98.1289 19.8773 101.982 18.8295C106.235 17.7019 110.714 17.7583 114.937 18.9928C122.774 21.4043 131.759 26.1215 138.4 30.3987C146.304 35.5345 146.818 37.7007 147.476 38.0748C147.992 39.3342 148.393 40.6377 148.674 41.9695C147.91 40.846 147.01 39.8207 145.996 38.9164ZM146.309 35.628C144.378 33.7136 142.245 32.0143 139.947 30.5597C130.106 24.1492 122.676 20.8363 116.402 18.6647C107.406 15.5503 99.0059 17.6874 91.0647 23.073C90.7615 21.6404 90.3252 20.2393 89.7616 18.8878C93.1343 17.1577 96.1376 15.8462 98.8772 14.6971C100.291 14.0854 101.788 13.684 103.318 13.5059C109.527 12.941 115.259 14.366 122.497 18.2707C127.19 20.7412 131.563 23.3359 136.007 26.0027C140.326 28.5039 143.946 31.3194 146.309 35.628ZM45.2361 45.1598C50.0062 40.0486 54.8584 34.4284 59.9428 29.6629C63.7218 25.8473 67.7166 22.2518 71.9075 18.8939C72.5514 18.7635 73.2044 18.6827 73.8607 18.6524C64.4078 26.3039 52.0651 39.5917 43.9292 48.5701C44.3531 47.4012 44.7823 46.2644 45.2361 45.1598ZM35.5104 75.8686C34.428 74.1822 34.1881 71.0394 34.8971 67.876C35.9243 63.2936 38.3879 59.9155 40.3656 60.3394C42.1516 60.8507 42.1232 62.4474 42.1232 64.862C42.1231 64.9354 42.1441 65.0074 42.1838 65.0693C42.2234 65.1312 42.28 65.1803 42.3468 65.211C42.4136 65.2416 42.4878 65.2523 42.5606 65.242C42.6333 65.2316 42.7016 65.2005 42.7571 65.1525C42.9058 68.5873 41.7607 73.4249 39.3706 75.8601C37.8 77.3993 36.3206 77.1357 35.5104 75.8686ZM46.6948 61.8572C50.6654 58.7473 62.145 50.386 62.2768 50.2925C63.9287 49.1236 65.8075 47.8044 66.0267 45.7508C66.7304 38.9164 68.7448 30.0285 73.1118 24.6904C76.1281 21.0049 83.1625 17.5065 86.7798 20.4745C87.9876 23.1503 88.6283 26.0473 88.6616 28.983C87.1121 28.0339 85.4509 27.2808 83.7159 26.7409C71.9152 23.5214 61.436 53.0858 70.1269 56.7429C70.1368 56.7475 76.3572 59.0425 77.5469 59.2831C85.6277 60.9028 94.6444 44.8325 92.9005 35.1374C93.6486 35.3176 93.756 35.2624 93.8433 35.2187C93.8433 35.2187 99.104 31.7969 101.375 30.4815L120.874 40.5844L102.652 50.2603L92.4437 46.0705C92.1848 47.0651 91.8016 48.0232 91.3031 48.922L99.4635 51.9528L61.7571 71.9754L48.5215 69.0127C48.4253 69.7529 48.2892 70.4873 48.1137 71.2127L58.9907 73.444L49.4298 78.5208L43.6157 77.5074C47.3755 74.649 49.3232 66.0899 46.6948 61.8572ZM69.4746 82.0292C69.3979 81.9932 70.4504 82.1825 50.6608 78.7331L60.1727 73.6847L78.8446 77.4875C79.7407 77.0797 80.5555 76.7539 81.4508 76.3469L62.9092 72.2314L100.422 52.3116L119.579 59.4817C120.638 58.9934 121.371 58.7489 122.267 58.3411L103.571 50.6398L121.7 41.0129L139.394 50.1798C138.249 51.3563 136.924 52.3439 135.469 53.1057C71.2583 81.2466 69.552 81.9901 69.4746 82.0292ZM78.0888 79.0903L78.7419 78.8044C78.873 79.8936 79.3843 81.2136 80.4651 81.2136C81.5988 81.2136 82.6988 79.5947 82.9655 77.5082C83.0311 77.3169 83.0617 77.1154 83.056 76.9134L84.1628 76.4289C84.1652 76.9295 84.1396 77.4298 84.0862 77.9275C83.7604 80.48 82.7432 82.7474 81.4961 83.704C81.1574 83.9971 80.7165 84.1443 80.2696 84.1134C79.0363 83.9831 78.1333 81.8851 78.0888 79.0903ZM116.589 62.2182L118.366 61.4394C117.912 64.1422 118.459 66.1559 119.846 66.7622C122.417 67.8093 125.211 64.0586 126.297 61.3275C126.772 60.1081 127.099 58.8356 127.269 57.5378L130.871 55.9602C130.557 58.0694 129.986 60.1323 129.172 62.1032C126.457 68.5421 121.613 72.9619 118.594 71.7569C116.377 70.8302 115.578 67.0052 116.589 62.2182Z" fill="black"/>
<path d="M37.3475 72.5679C39.6195 73.0501 41.6071 68.0983 40.8613 64.9364C40.6107 63.8724 40.0833 63.204 39.3765 63.053C37.0616 62.5632 35.1269 67.564 35.8628 70.6846C36.1142 71.7485 36.64 72.4169 37.3475 72.5679Z" fill="black"/>
<path d="M140.465 61.6234C139.453 68.2109 137.569 72.7534 134.538 75.9184C131.173 79.4337 125.268 81.6559 120.494 79.1041C120.404 79.0562 120.299 79.046 120.202 79.0756C120.105 79.1052 120.023 79.1722 119.975 79.262C119.927 79.3518 119.917 79.4569 119.947 79.5542C119.976 79.6515 120.043 79.7331 120.133 79.7809C125.033 82.3994 131.31 80.3995 135.093 76.4488C138.235 73.1643 140.185 68.4907 141.225 61.7399C141.232 61.69 141.23 61.6391 141.218 61.5901C141.206 61.5411 141.185 61.4949 141.155 61.4542C141.125 61.4136 141.087 61.3792 141.044 61.353C141.001 61.3269 140.953 61.3095 140.903 61.3018C140.853 61.2942 140.803 61.2964 140.753 61.3084C140.704 61.3204 140.658 61.342 140.618 61.3719C140.577 61.4017 140.543 61.4393 140.516 61.4825C140.49 61.5256 140.473 61.5735 140.465 61.6234Z" fill="black"/>
<path d="M139.092 75.8587C139.006 75.8047 138.902 75.7872 138.803 75.8099C138.704 75.8326 138.618 75.8937 138.564 75.9798C131.742 86.8331 115.178 85.6174 110.157 73.592C110.139 73.5436 110.111 73.4993 110.076 73.4617C110.04 73.4242 109.997 73.3942 109.95 73.3736C109.903 73.353 109.852 73.3422 109.8 73.3418C109.748 73.3414 109.697 73.3515 109.649 73.3714C109.602 73.3913 109.559 73.4206 109.523 73.4576C109.486 73.4946 109.458 73.5386 109.44 73.5867C109.421 73.6349 109.412 73.6864 109.414 73.738C109.416 73.7896 109.428 73.8404 109.45 73.8872C114.667 86.3862 131.991 87.8809 139.214 76.3868C139.241 76.3441 139.259 76.2966 139.267 76.247C139.275 76.1973 139.274 76.1465 139.263 76.0975C139.251 76.0485 139.23 76.0021 139.201 75.9612C139.172 75.9202 139.135 75.8854 139.092 75.8587Z" fill="black"/>
<path d="M90.1126 83.3107C90.015 83.2825 89.9102 83.2942 89.8213 83.3432C89.7323 83.3922 89.6664 83.4746 89.6381 83.5721C89.2466 85.0467 88.4505 86.3824 87.3398 87.4284C86.229 88.4743 84.848 89.1889 83.3526 89.4913C80.2864 89.9627 77.1383 87.8992 76.6186 85.0753C76.6094 85.0257 76.5906 84.9784 76.5632 84.9361C76.5357 84.8938 76.5002 84.8573 76.4587 84.8288C76.4172 84.8002 76.3704 84.7801 76.3211 84.7696C76.2718 84.759 76.2209 84.7584 76.1713 84.7675C76.1218 84.7767 76.0745 84.7955 76.0322 84.8229C75.9899 84.8504 75.9534 84.8859 75.9248 84.9274C75.8962 84.9689 75.8761 85.0157 75.8656 85.065C75.8551 85.1143 75.8544 85.1652 75.8636 85.2148C76.4001 88.1222 79.3589 90.3245 82.4787 90.3245C85.817 90.3245 89.2434 87.7022 90.3786 83.7852C90.3925 83.7366 90.3966 83.6857 90.3907 83.6355C90.3848 83.5853 90.3691 83.5367 90.3444 83.4926C90.3196 83.4485 90.2864 83.4097 90.2467 83.3785C90.2069 83.3473 90.1613 83.3243 90.1126 83.3107Z" fill="black"/>
<path d="M85.0641 92.527C83.7681 93.0334 82.3628 93.1944 80.9859 92.9942C79.6089 92.794 78.3077 92.2394 77.2096 91.3848C76.1115 90.5303 75.2543 89.4051 74.722 88.1195C74.1898 86.8339 74.0006 85.4321 74.1732 84.0515C74.1817 83.9526 74.1515 83.8542 74.0889 83.7772C74.0263 83.7001 73.9363 83.6503 73.8378 83.6383C73.7392 83.6263 73.6399 83.653 73.5606 83.7127C73.4814 83.7725 73.4284 83.8607 73.4128 83.9587C73.2337 85.4678 73.4472 86.9976 74.0327 88.4C74.6181 89.8023 75.5556 91.0299 76.7545 91.9637C77.9534 92.8976 79.373 93.5062 80.8761 93.7305C82.3791 93.9549 83.9146 93.7875 85.3339 93.2444C85.4291 93.2087 85.5061 93.1366 85.5481 93.044C85.5901 92.9514 85.5935 92.8459 85.5578 92.7508C85.522 92.6557 85.4499 92.5786 85.3573 92.5367C85.2647 92.4947 85.1593 92.4912 85.0641 92.527Z" fill="black"/>
</svg>
