<svg width="154" height="154" viewBox="0 0 154 154" fill="none" xmlns="http://www.w3.org/2000/svg">
<path d="M21.2757 99.8139C20.6371 99.9174 19.83 100.03 19.5701 100.03C18.93 100.03 19.2796 100.019 17.0136 96.4978C15.9888 94.9042 11.7674 88.4981 11.7781 88.2674C11.8578 88.098 14.0755 87.9339 17.0773 87.3237C16.9631 87.0033 16.9815 86.7212 17.1486 86.479C16.0371 86.7327 15.4001 86.8661 13.0307 87.1842C12.5217 87.2525 11.2822 87.5177 11.2293 87.5384C10.6168 87.776 10.6168 87.8956 10.8422 88.3869C11.404 89.6188 13.5343 92.8697 15.2468 95.4821C18.2578 100.076 16.9792 98.3069 18.2248 100.173C18.8564 101.119 18.9454 101.225 21.8291 100.564C21.6099 100.273 21.4489 100.051 21.2772 99.8139H21.2757Z" fill="black"/>
<path d="M24.9211 114.933C25.243 114.763 25.2078 114.808 24.8552 114.138C22.9779 114.612 20.643 115.199 17.681 115.941C17.2418 116.052 16.9658 116.242 16.65 115.886C14.8134 113.813 6.58676 101.662 4.72788 98.4256C4.60907 98.2187 4.84363 98.2608 5.46147 97.8178C5.58412 97.7296 5.64621 97.7457 5.72363 97.8607C6.76307 99.4022 13.5739 110.224 16.3104 113.274C16.9038 113.935 18.7481 113.199 22.5126 112.156C24.0925 111.719 25.1419 111.471 25.8824 111.31C25.798 111.14 25.68 110.892 25.5619 110.638C25.0154 110.782 24.327 110.961 23.4455 111.183C21.4172 111.695 18.1985 112.467 17.3606 112.703C16.8095 112.858 16.7458 112.507 16.3281 112.065C15.1054 110.772 8.33909 100.656 7.28662 99.045C4.64816 95.0076 4.66656 94.99 4.85973 94.8727C5.76732 94.3223 5.86851 94.179 6.03025 94.412C7.18621 96.0739 6.62663 95.4629 7.91289 97.344C12.9407 104.7 13.7195 106.942 16.614 109.971C17.2832 110.671 17.0088 110.804 20.4261 109.898C22.7763 109.275 24.813 108.737 26.583 108.274C26.5784 108.251 26.5692 108.224 26.5569 108.191C26.4542 107.919 26.3614 107.666 26.3224 107.437C24.117 107.991 22.0174 108.516 20.4077 108.899C19.4679 109.122 18.7228 109.482 18.19 109.567C17.7332 109.641 17.4557 109.725 16.8838 109.091C15.8505 107.947 15.7164 108.049 12.8234 103.615C12.3321 102.862 11.0795 101.013 10.756 100.455C9.68592 98.6058 9.31951 98.4525 8.09916 96.2923C6.15903 92.8582 6.27018 93.3197 5.63778 91.8724C5.44307 91.4263 5.76809 91.3611 6.40356 91.0859C6.72168 90.9479 6.66879 90.859 6.92251 91.2661C9.51268 95.4292 9.11714 94.7477 10.2248 96.8304C10.9139 98.1259 15.6612 105.282 16.4132 106.324C16.6646 106.673 16.9635 106.983 17.3292 107.22C17.793 107.521 17.5507 107.472 22.9603 106.057C24.0189 105.78 24.8429 105.531 25.6654 105.288C25.4546 105.029 25.2714 104.806 25.1081 104.609C25.0177 104.634 24.9288 104.658 24.8406 104.683C22.5172 105.318 19.3973 106.068 17.9118 106.474C17.6603 106.543 17.5178 106.484 17.3851 106.29C10.1037 95.7136 11.5256 97.6185 10.0439 95.1203C7.19924 90.3232 7.27359 90.9625 6.26328 88.6391C6.06168 88.1746 6.38363 88.1071 6.91868 87.9339C7.64 87.6993 7.13791 87.7629 9.89595 91.7498C11.6705 94.3146 12.6816 96.4265 15.0403 100.275C15.7685 101.464 17.3614 103.677 17.6841 104.155C17.9777 104.588 18.3947 104.63 18.8991 104.496C20.6407 104.033 22.2773 103.591 23.8893 103.157C23.7115 102.945 23.5306 102.728 23.3037 102.446C21.6441 102.909 20.1087 103.371 18.7879 103.82C18.1203 104.047 18.0061 103.598 11.6069 93.0882C10.1052 90.6214 8.10299 87.6993 7.4775 86.2766C7.25136 85.7622 8.2816 85.8259 12.2646 85.1996C14.2676 84.8845 16.0904 84.6254 17.8182 84.3909C17.668 84.1249 17.5431 83.8965 17.5047 83.816C17.4656 83.7332 17.4442 83.655 17.4365 83.5791C12.598 84.2368 8.2724 84.8431 7.23143 85.2724C6.38133 85.6235 6.59596 86.2429 6.88342 87.0002C6.9915 87.2854 6.83743 87.1466 6.04175 87.4977C5.67764 87.6579 5.2798 87.9914 5.46684 88.4988C5.54732 88.7188 6.1391 90.0043 6.29318 90.2818C6.44035 90.5455 6.20886 90.4757 5.59868 90.6827C4.69799 90.9886 4.49945 91.5344 4.86279 92.307C5.49596 93.6546 5.64927 93.5327 5.24837 93.7443C4.24342 94.2755 3.83178 94.3783 4.01192 95.0383C4.17213 95.6262 4.28635 95.7979 5.00154 96.8396C5.25987 97.2168 5.10349 97.0987 4.22502 97.6223C3.96133 97.7794 3.73443 98.0163 3.79576 98.3153C3.87471 98.6985 3.98126 98.9515 4.20126 99.2734C8.717 105.89 7.08196 103.774 9.53108 107.439C10.4379 108.795 10.5023 108.769 12.7713 112.165C14.6041 114.906 13.153 112.762 14.933 115.213C15.9885 116.666 16.3955 117.287 17.4595 117.034C21.49 116.075 21.4617 115.947 22.9917 115.565C23.3167 115.484 23.7943 115.368 24.3408 115.237C24.5056 115.15 24.6996 115.054 24.9226 114.936L24.9211 114.933Z" fill="black"/>
<path d="M42.066 109.855C42.2668 109.651 42.0353 109.536 41.9402 109.155C41.7984 108.588 42.148 108.264 42.4055 108.381C42.9559 108.628 42.7796 109.231 43.123 109.128C43.3699 109.054 43.629 108.969 43.8735 108.975C44.7926 108.995 45.0195 109.753 44.7841 110.118C44.4691 110.606 43.9678 109.976 43.0609 110.477C42.2093 110.948 42.0989 112.16 43.143 111.958C44.2368 111.746 44.824 111.393 45.671 111.468C46.8538 111.572 48.0435 112.823 47.5315 114.478C47.0409 116.062 46.3487 115.813 46.5963 116.333C46.6078 116.357 46.863 116.809 46.9696 117.316C47.0999 117.939 46.5089 118.436 46.1471 117.902C45.4817 116.918 45.6626 116.741 45.2977 116.899C44.6393 117.184 44.0498 117.461 43.2924 117.205C42.7904 117.036 42.6884 116.433 42.8271 116.149C42.9782 115.841 43.1936 115.878 43.4994 115.877C44.9007 115.875 46.446 114.65 46.0796 113.509C45.9025 112.957 45.2257 112.966 44.003 113.303C43.297 113.497 42.4653 113.607 41.8038 113.192C40.9177 112.637 40.9307 111.015 42.066 109.855Z" fill="black"/>
<path d="M88.1078 125.928C87.8303 125.994 87.552 126.059 87.2723 126.12C86.7073 126.243 86.1362 126.337 85.5705 126.456C82.6392 127.073 82.9067 127.213 82.9443 126.734C83.1191 125.784 83.1827 125.458 83.2164 125.215C82.9627 125.113 82.6875 125.002 82.3863 124.887C81.9831 124.731 81.5944 124.541 81.2004 124.361C80.913 126.342 80.6669 127.946 80.6592 127.987C80.614 128.246 80.5212 128.417 80.2507 128.515C79.7992 128.679 79.6382 128.556 79.6719 128.069C79.7064 127.571 79.9755 125.95 80.2668 123.983C80.1855 123.956 80.1042 123.931 80.0215 123.908C79.5861 123.787 79.1721 123.593 78.7413 123.452C78.2722 123.298 75.6728 122.524 73.075 121.521C72.346 121.24 71.6469 120.883 70.934 120.561C70.8045 120.502 70.7033 120.425 70.6228 120.333C70.5592 121.176 70.3798 122.457 69.6125 129.123C69.519 129.937 69.4661 130.35 69.3419 130.393C69.1495 130.462 68.9479 130.518 68.7447 130.54C68.6773 130.548 68.5615 130.456 68.5316 130.384C68.2335 129.664 69.4883 122.391 69.5902 118.891C69.253 118.757 68.7355 118.534 66.6789 117.79C66.7364 117.88 66.7839 117.959 66.8192 118.023C66.2887 118.289 47.4293 121.962 38.4591 125.008C37.7915 125.235 37.6772 124.786 31.2788 114.277C29.7772 111.81 27.7749 108.888 27.1494 107.465C27.0996 107.351 27.1111 107.265 27.2031 107.194C27.0988 107.064 26.9808 106.916 26.8467 106.75C26.7953 106.686 26.7455 106.624 26.6964 106.563C26.0924 106.926 26.2932 107.5 26.5546 108.188C26.6627 108.473 26.5086 108.334 25.7129 108.686C25.3488 108.846 24.951 109.179 25.138 109.686C25.2185 109.906 25.8103 111.192 25.9644 111.47C26.1115 111.733 25.88 111.664 25.2699 111.871C24.3692 112.176 24.1706 112.722 24.534 113.495C25.1671 114.842 25.3212 114.721 24.9195 114.932C23.9146 115.463 23.503 115.566 23.6823 116.226C23.8425 116.814 23.9568 116.986 24.6719 118.028C24.9303 118.405 24.7739 118.287 23.8954 118.81C23.6317 118.967 23.4048 119.204 23.4662 119.503C23.5451 119.886 23.6517 120.139 23.8717 120.461C28.3874 127.077 26.7524 124.962 29.2015 128.627C30.1083 129.983 30.1727 129.957 32.4417 133.352C34.2745 136.094 32.8227 133.95 34.6034 136.401C35.6589 137.854 36.0659 138.475 37.1299 138.222C41.1604 137.263 41.1321 137.135 42.6621 136.753C44.0388 136.409 48.1399 135.45 48.7133 135.304C57.7057 133.001 63.9546 131.855 64.4329 131.726C65.0929 131.546 65.2646 131.362 65.6716 131.814C66.4581 132.686 67.263 132.249 69.926 131.694C70.7608 131.52 71.5618 131.201 72.4173 131.109C72.8665 131.06 73.3065 130.935 73.7541 130.866C74.2417 130.79 76.9323 130.445 79.6581 129.875C80.4231 129.715 81.1705 129.476 81.9256 129.273C82.3142 129.169 82.5104 128.88 82.627 128.524C82.8201 127.937 82.7603 127.973 83.0049 127.937C83.9063 127.804 83.1858 127.813 89.923 126.619C89.0721 126.293 88.4543 126.061 88.1047 125.927L88.1078 125.928ZM66.1837 128.397L66.1523 128.392C66.0787 129.013 66.0028 129.631 65.9346 130.251C65.9177 130.407 65.4693 130.443 63.8388 130.804C62.4445 131.112 60.1509 131.697 56.8548 132.392C51.1072 133.605 53.2558 133.152 37.3545 137.133C36.9153 137.243 36.6393 137.433 36.3235 137.078C34.4869 135.005 26.2602 122.854 24.4014 119.617C24.2825 119.41 24.5171 119.453 25.1349 119.009C25.2576 118.921 25.3197 118.937 25.3971 119.052C26.4365 120.594 33.2473 131.415 35.9847 134.465C36.578 135.126 38.4223 134.39 42.1868 133.347C45.8969 132.32 46.6834 132.339 47.404 132.068C48.2863 131.735 49.2285 131.642 50.1291 131.386C51.8255 130.904 54.6985 130.239 55.8414 130.036C55.8951 130.027 66.0013 127.856 66.0204 127.853C66.2696 127.804 66.219 127.943 66.1837 128.398V128.397ZM66.4827 125.452C66.2979 127.501 66.6344 126.893 64.8882 127.261C64.3999 127.364 64.8936 127.288 54.6019 129.543C49.985 130.554 51.9926 130.239 47.8386 131.124C47.1104 131.28 46.8168 131.441 43.119 132.373C41.0907 132.884 37.8719 133.656 37.0341 133.892C36.483 134.048 36.4193 133.697 36.0016 133.254C34.7789 131.962 28.0126 121.845 26.9601 120.234C24.3216 116.197 24.34 116.179 24.5332 116.062C25.4408 115.512 25.542 115.368 25.7037 115.601C26.8597 117.263 26.3009 116.652 27.5864 118.533C32.6142 125.889 33.393 128.131 36.2875 131.16C36.9567 131.86 36.6823 131.993 40.0995 131.087C62.1915 125.231 56.5589 126.969 62.3548 125.816C66.8667 124.918 66.5539 124.664 66.4827 125.452ZM66.9004 122.327C66.8238 123.324 66.9418 122.358 66.6705 124.056C66.6237 124.348 66.6643 124.132 63.2984 124.91C62.5778 125.077 58.4944 125.768 57.7631 125.878C54.7682 126.329 45.0744 128.903 40.0811 130.088C39.1421 130.311 38.397 130.67 37.8635 130.756C37.4066 130.83 37.1292 130.914 36.5573 130.28C35.5248 129.136 35.3899 129.237 32.4969 124.804C32.0055 124.051 30.753 122.201 30.4295 121.643C29.3594 119.794 28.993 119.641 27.7726 117.481C25.8325 114.047 25.9437 114.508 25.3113 113.061C25.1165 112.615 25.4416 112.55 26.077 112.275C26.3952 112.137 26.3423 112.048 26.596 112.455C29.1862 116.618 28.7906 115.936 29.8975 118.019C30.5866 119.315 35.3339 126.47 36.0859 127.513C36.3373 127.862 36.6363 128.172 37.0019 128.409C37.4657 128.709 37.2234 128.66 42.633 127.245C45.8157 126.414 46.8766 125.836 52.1374 124.884C53.4183 124.653 55.068 124.578 61.474 122.928C62.653 122.625 62.6921 122.72 66.2956 121.971C66.9763 121.83 66.9433 121.774 66.9004 122.327ZM67.0683 119.975C66.9801 121.117 67.043 121.007 66.718 121.069C57.2787 122.878 58.1732 123.106 51.9864 124.074C48.4534 124.627 46.2588 125.394 44.5133 125.872C42.1899 126.507 39.0701 127.257 37.5845 127.663C37.3331 127.732 37.1905 127.672 37.0579 127.479C29.7764 116.902 31.1984 118.807 29.7166 116.309C26.8719 111.512 26.9463 112.151 25.936 109.828C25.7344 109.363 26.0563 109.296 26.5914 109.123C27.3127 108.888 26.8106 108.952 29.5687 112.938C31.3432 115.503 32.3535 117.615 34.713 121.464C35.442 122.653 37.0341 124.866 37.3568 125.343C37.6504 125.777 38.0674 125.819 38.5718 125.685C47.2875 123.368 53.3777 121.561 66.8307 118.893C67.2523 118.809 67.1526 118.874 67.0675 119.975L67.0683 119.975Z" fill="black"/>
<path d="M62.782 116.409C56.6749 117.683 43.1988 120.588 41.5278 120.905C40.9452 121.016 39.5945 121.221 39.2442 121.221C38.6041 121.221 38.9537 121.209 36.6878 117.689C35.971 116.574 33.6913 113.107 32.389 111.043L31.9451 111.191C31.7719 111.249 31.6147 111.28 31.4668 111.287C32.3936 112.82 33.7535 114.895 34.9201 116.674C37.9311 121.268 36.6525 119.498 37.8982 121.365C38.6156 122.441 38.6317 122.431 42.8493 121.442C51.7282 119.361 60.5636 117.708 64.417 116.983C63.9234 116.809 63.3806 116.619 62.782 116.409Z" fill="black"/>
<path d="M114.946 72.6113C113.386 72.1667 111.954 72.9295 111.889 73.9727C111.85 74.5906 112.152 75.1448 112.532 75.6109C112.579 75.6262 112.627 75.6408 112.676 75.6561C113.186 75.8186 113.685 76.024 114.197 76.1904C114.536 76.3015 114.884 76.4134 115.24 76.5269C114.9 75.7619 114.314 75.4131 113.613 74.5607C112.937 73.7397 114.056 73.2576 114.875 73.7819C115.748 74.3399 115.434 75.0812 116.013 75.1249C116.446 75.1571 117.004 74.5967 116.584 73.7796C116.472 73.5619 116.274 73.3741 116.091 73.1932C115.836 72.9402 116.45 72.8076 116.406 72.2058C116.384 71.9238 115.934 71.7712 115.504 72.1668C115.215 72.4327 115.224 72.6903 114.948 72.6121L114.946 72.6113Z" fill="black"/>
<path d="M108.673 68.4973C108.699 68.5065 108.726 68.5156 108.753 68.5248C112.247 69.7222 112.056 69.6731 113.077 69.9177C115.721 70.5501 117.844 71.2285 119.346 71.8248C123.032 73.2859 126.08 73.9053 126.146 74.1168C126.132 74.2625 124.095 76.6288 122.291 78.7094C122.619 78.809 122.945 78.9087 123.269 79.0076C125.354 76.6143 127.347 74.2602 127.246 73.8639C127.211 73.7259 127.072 73.627 126.79 73.4706C126.74 73.4423 125.549 73.0092 125.055 72.872C121.108 71.772 122.127 71.9115 117.316 70.2389C114.354 69.2086 113.339 69.263 110.22 68.1147C109.631 68.2604 109.12 68.3876 108.673 68.4973Z" fill="black"/>
<path d="M101.881 70.0601C102.001 70.2073 102.112 70.3675 102.213 70.5446C102.263 70.6327 102.308 70.7209 102.346 70.8075C102.739 70.9194 103.018 70.9884 103.193 71.0497C103.237 71.0651 103.28 71.0804 103.322 71.095C103.195 70.6519 102.971 70.2318 102.686 69.8394C102.424 69.9099 102.154 69.9842 101.88 70.0601H101.881Z" fill="black"/>
<path d="M113.323 67.3396C113.299 67.3457 113.276 67.3511 113.253 67.3572C117.304 68.5346 121.142 69.5112 126.087 71.0083C129.946 72.1765 130.975 72.2554 130.68 72.7338C129.865 74.0576 127.479 76.6761 125.652 78.9123C125.468 79.1377 125.288 79.3577 125.113 79.5723C125.355 79.6467 125.594 79.7203 125.83 79.7938C126.367 79.1346 126.914 78.493 127.53 77.8223C130.811 74.2538 130.322 74.1212 131.004 74.4524C131.511 74.6977 131.821 74.8096 131.557 75.2412C130.324 77.2596 130.384 76.8511 127.566 80.3358C127.789 80.4056 128.006 80.4753 128.22 80.5435C128.667 79.9993 129.337 79.1998 130.543 77.7533C130.85 77.3853 130.785 77.4658 131.081 77.646C131.672 78.0063 131.986 78.1159 131.731 78.5306C131.071 79.6068 131.05 79.5409 129.844 81.0725C130.133 81.169 130.407 81.2626 130.664 81.3515C130.759 81.2457 130.867 81.1276 130.993 80.992C131.185 80.7842 131.266 80.9398 132.089 81.6098C132.151 81.6596 132.193 81.6949 132.084 81.8773C132.367 81.9915 132.597 82.095 132.77 82.1855C132.816 82.0966 132.859 82.0015 132.907 81.8904C133.176 81.261 132.782 81.1031 131.86 80.4385C131.492 80.1725 131.627 80.3151 132.439 79.0672C132.905 78.352 132.784 77.7847 131.934 77.3577C131.359 77.0688 131.12 77.1056 131.302 76.8649C131.493 76.611 132.255 75.4182 132.366 75.212C132.621 74.736 132.272 74.3504 131.934 74.1419C131.194 73.6843 131.023 73.8008 131.168 73.5333C131.557 72.8227 131.855 72.2393 131.061 71.774C129.655 70.9515 121.502 68.8198 114.844 66.9019C114.341 67.1793 113.73 67.2376 113.322 67.3403L113.323 67.3396Z" fill="black"/>
<path d="M143.82 89.1371C143.782 88.9999 143.641 88.9033 143.358 88.7523C143.307 88.7247 142.109 88.3123 141.612 88.1827C137.73 87.1716 138.627 87.2682 134.125 85.7788C134.048 85.9068 133.861 86.1897 133.662 86.4856C134.508 86.7408 135.252 86.993 135.887 87.233C139.597 88.6311 142.655 89.1984 142.724 89.4092C142.707 89.6399 137.743 95.4887 136.533 96.9467C133.858 100.168 134.203 100.221 133.569 100.144C133.221 100.102 131.904 99.7346 131.34 99.5545C131.252 99.5261 131.131 99.487 130.98 99.4364C130.755 99.6802 130.558 99.8941 130.387 100.083C134.032 101.417 134.075 101.394 134.888 100.449C135.251 100.025 135.411 99.8366 135.968 99.1084C137.796 96.7221 144.01 89.8323 143.821 89.1363L143.82 89.1371Z" fill="black"/>
<path d="M149.617 97.0656C149.876 96.4316 149.479 96.2806 148.546 95.6314C148.173 95.3723 148.31 95.5118 149.102 94.2508C149.556 93.528 149.425 92.9622 148.568 92.5498C147.988 92.27 147.749 92.3114 147.927 92.0677C148.113 91.8109 148.856 90.6051 148.963 90.3974C149.209 89.9167 148.855 89.5373 148.513 89.3342C147.765 88.8896 147.595 89.0084 147.737 88.7386C148.113 88.0211 148.402 87.4324 147.6 86.9816C146.327 86.2649 139.605 84.5877 133.406 82.9473C133.419 83.201 133.3 83.4747 133.136 83.7736C136.049 84.5294 139.043 85.286 142.613 86.3002C146.491 87.4025 147.521 87.4638 147.234 87.9475C146.441 89.2843 144.101 91.9435 142.312 94.2102C134.69 103.87 134.523 104.303 133.888 103.997C132.451 103.306 130.739 102.563 128.882 101.804C128.72 101.995 128.537 102.205 128.294 102.477C130.04 103.18 131.803 103.896 133.695 104.654C134.18 104.848 134.598 104.857 134.942 104.462C135.32 104.027 137.169 102.022 138.036 100.931C140.843 97.3952 142.101 95.4206 144.172 93.0887C147.391 89.4645 146.9 89.3411 147.588 89.6607C148.099 89.8976 148.411 90.0034 148.154 90.4403C146.871 92.625 147.022 91.9987 143.618 96.4171C141.846 98.7183 143.487 96.9997 134.982 106.62C134.827 106.795 134.678 106.838 134.437 106.739C133.011 106.156 130.005 105.035 127.774 104.123C127.545 104.029 127.307 103.929 127.059 103.823C126.829 104.07 126.644 104.263 126.468 104.444C127.4 104.845 128.28 105.241 129.475 105.714C134.675 107.772 134.428 107.791 134.925 107.55C135.317 107.359 135.652 107.086 135.943 106.77C136.815 105.826 142.392 99.2962 143.232 98.0935C144.583 96.1603 144.107 96.7889 147.182 92.9684C147.482 92.5951 147.42 92.6763 147.719 92.8519C148.316 93.2022 148.631 93.3064 148.383 93.725C147.581 95.0856 147.746 94.641 145.406 97.8153C143.933 99.8121 143.552 99.9202 142.265 101.627C141.877 102.142 140.41 103.826 139.832 104.514C136.424 108.566 136.303 108.449 135.139 109.46C134.495 110.02 134.23 109.903 133.786 109.775C133.267 109.626 132.571 109.179 131.665 108.844C130.973 108.589 130.188 108.292 129.343 107.971C129.268 108.196 129.133 108.436 128.984 108.693C128.958 108.738 128.941 108.772 128.936 108.8C129.752 109.125 130.615 109.47 131.526 109.834C134.808 111.146 134.552 110.981 135.301 110.366C138.54 107.71 139.584 105.578 145.463 98.8831C146.967 97.1714 146.339 97.7103 147.686 96.2001C147.875 95.9893 147.958 96.1434 148.793 96.7988C148.971 96.9383 148.987 96.9583 145.88 100.648C144.641 102.119 136.703 111.346 135.333 112.481C134.864 112.869 134.759 113.21 134.23 112.989C133.582 112.718 131.436 111.914 129.607 111.217C129.456 111.44 129.302 111.663 129.186 111.826C132.794 113.314 134.535 114.267 135.204 113.683C138.289 110.985 146.357 101.065 147.575 99.6604C147.666 99.5561 147.729 99.5477 147.84 99.6496C148.4 100.164 148.638 100.151 148.495 100.342C146.259 103.331 136.624 114.4 134.552 116.235C134.195 116.55 133.944 116.328 133.521 116.166C132.141 115.636 130.901 115.16 129.784 114.73C129.251 115.449 129.204 115.38 129.51 115.612C129.552 115.644 129.592 115.674 129.632 115.703C130.316 116.002 131.219 116.389 133.611 117.274C134.637 117.654 135.116 117.087 136.339 115.772C138.403 113.554 136.702 115.506 138.853 113.007C141.516 109.911 141.577 109.944 142.641 108.707C145.515 105.365 143.637 107.268 148.918 101.246C149.176 100.952 149.311 100.714 149.436 100.343C149.534 100.054 149.338 99.7907 149.095 99.6029C148.286 98.9781 148.116 99.0755 148.418 98.7328C149.254 97.7854 149.388 97.6282 149.618 97.0641L149.617 97.0656Z" fill="black"/>
<path d="M111.408 109.298C111.364 109.241 111.328 109.186 111.299 109.134C110.817 108.931 110.272 108.705 109.732 108.48C109.717 108.541 109.706 108.604 109.7 108.669C109.632 109.447 110.109 110.136 110.604 110.676C111.461 111.61 111.778 112.208 111.366 112.619C110.518 113.465 108.723 112.648 108.082 111.401C107.942 111.129 107.878 110.92 107.533 110.926C107.218 110.932 106.728 111.298 106.807 111.821C106.924 112.612 107.439 113.011 107.993 113.467C108.3 113.72 108.06 113.64 107.488 114.681C107.177 115.246 107.889 115.545 108.384 115.145C108.787 114.82 109.073 114.386 109.089 114.365C109.439 113.907 109.533 114.638 111.166 114.352C112.872 114.054 113.443 112.425 112.997 111.324C112.678 110.536 112.095 110.174 111.409 109.297L111.408 109.298Z" fill="black"/>
<path d="M65.5036 101.301C65.0222 101.471 64.55 101.668 64.0625 101.818C68.6434 103.316 72.8924 104.654 72.9399 104.614L73.5608 104.078C73.7341 103.927 73.5516 103.918 65.5036 101.301Z" fill="black"/>
<path d="M124.609 108.526C124.566 108.501 123.67 108.149 123.113 107.959C122.862 108.229 122.662 108.443 122.502 108.615C123.385 108.896 123.924 109.068 123.949 109.156C123.922 109.386 118.722 115.027 117.453 116.433C114.648 119.542 114.991 119.609 114.359 119.506C114.013 119.45 112.713 119.029 112.156 118.826C110.085 118.07 89.1403 109.821 89.0529 109.887C88.2603 110.478 88.2519 110.467 88.2802 110.544C88.3101 110.623 99.5623 114.505 110.765 119.142C114.768 120.799 114.782 120.812 115.664 119.866C116.045 119.457 116.212 119.275 116.799 118.571C118.724 116.261 125.216 109.633 125.055 108.93C125.022 108.791 124.886 108.69 124.609 108.526H124.609Z" fill="black"/>
<path d="M129.51 115.614C129.148 115.339 129.28 115.485 130.122 114.257C130.605 113.553 130.498 112.983 129.659 112.535C129.09 112.232 128.851 112.264 129.038 112.027C129.235 111.778 130.026 110.604 130.142 110.4C130.408 109.93 130.07 109.537 129.736 109.32C129.007 108.845 128.833 108.957 128.985 108.693C129.391 107.992 129.703 107.415 128.92 106.932C128.437 106.633 127.137 106.155 125.368 105.572C125.176 105.77 124.954 106.002 124.688 106.282C127.925 107.323 128.802 107.442 128.516 107.882C127.669 109.186 125.221 111.746 123.341 113.938C115.329 123.277 115.143 123.701 114.521 123.37C106.161 118.915 88.1422 112.245 87.6615 111.897C88.2894 111.085 90.6649 109.022 91.0052 108.735C91.1539 108.61 91.2965 108.431 91.4667 108.395C91.6139 108.364 91.7902 108.514 91.9611 108.566C94.1397 109.23 96.8977 109.958 99.5714 108.742C100.106 108.499 100.497 108.102 100.9 107.706C101.015 107.593 101.412 106.798 101.269 105.88C101.207 105.484 101.064 105.103 100.865 104.74C100.396 104.548 99.9424 104.362 99.5032 104.184C99.7332 104.424 99.9394 104.688 100.111 105.008C100.633 105.978 100.446 106.899 100.185 107.222C99.4051 108.187 98.1273 108.404 96.8057 108.55C96.2714 108.609 94.8686 108.62 92.2493 107.852C91.9926 107.777 92.1842 107.789 94.0829 106.214C95.3025 105.201 96.7904 103.925 97.4512 103.363C96.5413 103.002 95.7257 102.684 95.0158 102.411C94.9361 102.48 94.8518 102.551 94.7644 102.625C94.1918 103.114 94.7261 102.58 92.5437 104.509C85.8019 110.467 85.0261 110.821 84.8537 111.866C84.3171 115.104 84.4068 123.127 83.9767 123.819C83.9353 123.886 83.8066 123.957 83.7414 123.938C83.5444 123.883 83.3543 123.796 83.1757 123.698C83.0607 123.634 83.0745 123.219 83.1136 122.401C83.6142 111.898 83.4018 114.677 83.7652 111.663C83.933 110.266 85.0859 109.523 92.0508 103.482C92.6709 102.943 93.2489 102.44 93.8146 101.951C92.6648 101.514 91.9703 101.257 91.8285 101.192C91.2061 100.909 91.0658 100.7 90.5913 101.08C89.6753 101.814 88.9509 101.254 86.4113 100.279C85.6149 99.973 84.8759 99.5307 84.0457 99.3023C83.9116 99.2655 83.7797 99.2218 83.6479 99.1743C81.5069 101.002 78.6017 103.468 74.5121 106.828C74.1465 107.129 73.9541 107.501 73.8813 107.951C73.3087 111.511 73.4612 118.604 73.3554 119.736C73.3102 120.224 73.1316 120.319 72.7123 120.084C72.4609 119.943 72.3972 119.76 72.3942 119.496C72.3934 119.405 72.4716 111.861 72.6579 109.157C72.7292 108.118 72.8932 107.514 72.9154 107.396C73.0488 106.675 73.2312 106.456 74.0093 105.813C74.0277 105.798 77.7907 102.71 77.8091 102.696C80.8469 100.427 79.7155 101.19 82.6245 98.8033C82.2405 98.6829 81.3751 98.4185 80.285 98.0566C76.5918 101.045 72.2608 104.55 71.1202 105.703C70.9799 105.845 70.8848 105.881 70.6963 105.811C67.8133 104.737 64.6352 103.624 61.5927 102.591C60.7817 102.805 60.3156 102.779 59.8182 102.316C59.3736 101.902 59.2179 102.1 58.5763 102.336C58.5296 102.354 58.4246 102.386 58.2651 102.434C63.5367 104.201 69.4851 106.288 70.4487 106.702C70.6871 106.805 70.6173 106.714 70.5567 108.315C70.5767 108.316 70.5744 108.318 70.546 108.607C70.5368 108.7 70.5138 108.764 70.3927 108.723C66.3921 107.396 59.7446 105.11 54.9092 103.439C54.4623 103.575 53.9793 103.724 53.4619 103.885C54.0085 104.076 54.6248 104.292 55.3216 104.532C70.5414 109.775 70.5276 109.498 70.5215 109.832C70.5215 109.848 70.4786 111.161 70.4947 111.161C70.4862 111.257 70.4747 111.354 70.4709 111.451C70.4556 111.861 69.8952 111.297 68.6021 110.876C66.888 110.32 66.5002 109.927 62.8621 108.778C61.6556 108.397 56.7681 106.893 54.867 106.266C53.4152 105.787 51.7533 105.309 50.303 104.887C49.8798 105.024 49.4421 105.166 48.9929 105.314C49.6223 105.524 51.3976 106.051 52.69 106.465C53.4895 106.721 54.2752 107.022 55.0793 107.261C56.0291 107.542 56.9819 107.818 57.911 108.162C59.1168 108.609 64.0809 109.957 64.8544 110.293C66.6282 111.062 67.1479 111.152 70.2057 112.369C70.382 112.439 70.454 112.544 70.4356 112.751C70.2532 114.836 70.4985 114.689 70.0616 114.531C69.9044 114.474 48.9883 107.205 47.338 106.516C46.9217 106.342 47.7879 106.03 48.2885 105.546C47.5495 105.791 46.7791 106.049 45.9804 106.322C45.8125 106.828 46.5645 107.212 47.292 107.455C48.497 107.856 47.9435 107.577 45.893 109.142C45.535 109.415 45.2606 110.07 45.5741 110.397C46.0708 110.916 46.8635 111.043 47.351 111.211C55.0372 113.848 54.683 113.689 55.3476 113.842C56.6715 114.147 58.7182 114.998 60.7273 115.695C70.1282 118.955 69.111 118.76 70.0869 119.071C70.3222 119.146 70.2685 119.1 70.3651 119.71C70.4234 120.079 70.5698 120.396 70.937 120.563C71.6498 120.885 72.3482 121.242 73.0779 121.523C75.6758 122.526 78.2759 123.301 78.7443 123.454C79.1751 123.595 79.589 123.789 80.0244 123.909C80.8538 124.139 81.5928 124.582 82.3885 124.888C84.9265 125.866 85.6509 126.428 86.5677 125.694C87.0422 125.314 87.1824 125.524 87.8049 125.807C88.2556 126.013 94.2378 128.152 102.74 131.877C103.282 132.114 107.176 133.722 108.479 134.284C109.927 134.908 109.878 135.03 113.701 136.626C114.711 137.048 115.212 136.501 116.488 135.237C118.641 133.106 116.863 134.987 119.114 132.577C121.901 129.594 121.961 129.629 123.075 128.437C126.083 125.216 124.129 127.039 129.653 121.239C129.923 120.957 130.069 120.724 130.208 120.359C130.318 120.073 130.131 119.803 129.897 119.605C129.114 118.947 128.941 119.039 129.257 118.708C130.131 117.796 130.271 117.644 130.524 117.09C130.808 116.468 130.418 116.301 129.512 115.614H129.51ZM70.3628 115.69C70.3015 116.459 70.3092 116.187 70.3421 117.891C70.3015 118.37 70.5882 118.275 67.7956 117.192C67.2568 116.984 66.7079 116.798 66.1705 116.586C65.5933 116.358 65.0261 116.107 64.4504 115.881C61.1343 114.578 54.3059 112.561 49.3555 110.761C48.6465 110.504 47.7818 110.292 46.9539 109.98C46.5852 109.84 46.7822 109.607 47.0329 109.445C47.1563 109.366 48.7752 108.347 49.0757 108.217C49.1907 108.167 49.2942 108.162 49.4268 108.2C51.8261 108.873 63.5443 113.226 70.1965 115.437C70.3237 115.48 70.3735 115.56 70.3636 115.69L70.3628 115.69ZM81.5077 111.182C80.4 110.821 78.745 110.181 75.1668 108.647C74.6954 108.446 74.9391 107.753 75.5853 107.942C77.2349 108.423 82.055 110.265 82.7656 110.651C83.1151 110.84 82.7487 111.586 81.5084 111.182L81.5077 111.182ZM87.102 113.784C87.1962 112.683 87.1081 112.603 87.5105 112.754C100.356 117.559 106.074 120.326 114.301 124.02C114.777 124.234 115.196 124.26 115.556 123.88C115.951 123.462 117.88 121.534 118.791 120.478C121.741 117.061 123.079 115.14 125.245 112.895C128.611 109.406 128.125 109.263 128.799 109.61C129.3 109.868 129.606 109.986 129.333 110.412C127.961 112.541 128.137 111.923 124.556 116.197C122.69 118.424 124.401 116.773 115.507 126.036C115.345 126.204 115.195 126.24 114.958 126.132C113.557 125.491 110.6 124.247 108.409 123.245C106.764 122.492 104.722 121.38 101.325 120.264C95.3753 118.31 96.2952 118.229 87.2714 114.919C86.9609 114.806 87.0046 114.924 87.102 113.782V113.784ZM86.8873 116.132C86.9349 115.579 86.8927 115.629 87.542 115.879C90.9776 117.2 91.0313 117.112 92.1459 117.602C98.2016 120.264 99.8175 120.605 101.044 121.041C106.082 122.829 107.035 123.57 110.043 124.906C115.153 127.176 114.906 127.185 115.412 126.964C115.812 126.789 116.157 126.531 116.461 126.227C117.371 125.32 123.211 119.025 124.101 117.858C125.531 115.982 125.029 116.59 128.258 112.9C128.574 112.539 128.507 112.618 128.799 112.806C129.382 113.18 129.692 113.298 129.428 113.706C128.57 115.032 128.754 114.595 126.285 117.67C124.732 119.604 124.346 119.697 122.99 121.349C122.581 121.847 121.046 123.47 120.44 124.134C116.869 128.042 116.753 127.92 115.549 128.883C114.882 129.415 114.622 129.288 114.183 129.142C113.671 128.972 112.993 128.496 112.102 128.125C107.366 126.149 98.2146 122.044 95.3324 121.114C94.6287 120.888 90.7101 119.547 90.0264 119.266C86.8298 117.953 86.8352 118.174 86.836 117.878C86.8421 116.157 86.803 117.13 86.8881 116.134L86.8873 116.132ZM129.266 120.319C126.909 123.213 116.828 133.877 114.681 135.625C114.312 135.926 114.07 135.693 113.654 135.513C98.6048 129.016 100.652 129.81 95.176 127.685C92.0355 126.467 89.8661 125.52 88.54 124.99C86.99 124.372 86.5523 124.263 86.5616 124.106C86.5945 123.484 86.6198 122.861 86.6474 122.237H86.6152C86.6543 121.781 86.6267 121.636 86.8643 121.725C86.8827 121.732 96.5052 125.506 96.5574 125.524C97.652 125.909 100.38 127.028 101.977 127.779C102.825 128.177 103.739 128.421 104.556 128.891C105.224 129.275 106.003 129.384 109.498 130.997C113.045 132.633 114.747 133.658 115.439 133.102C118.632 130.533 127.102 120.953 128.376 119.6C128.471 119.499 128.535 119.493 128.641 119.6C129.179 120.137 129.417 120.133 129.267 120.318L129.266 120.319ZM126.641 120.516C125.343 121.935 117.032 130.827 115.616 131.905C115.132 132.273 115.013 132.61 114.494 132.367C113.704 131.999 110.653 130.718 108.734 129.885C105.235 128.368 104.972 128.161 104.278 127.89C100.322 126.345 102.253 126.981 97.859 125.237C88.0663 121.351 88.5415 121.505 88.0763 121.325C86.4128 120.679 86.6466 121.333 86.7946 119.282C86.8521 118.492 86.5018 118.692 90.8098 120.307C96.3427 122.382 91.0658 119.756 111.921 129.103C115.147 130.549 114.898 130.373 115.672 129.79C119.017 127.269 120.148 125.182 126.298 118.735C127.871 117.086 127.221 117.599 128.63 116.145C128.827 115.942 128.904 116.099 129.711 116.789C129.883 116.935 129.898 116.956 126.642 120.514L126.641 120.516Z" fill="black"/>
<path d="M34.3813 82.5023C34.5629 82.2808 34.323 82.1865 34.1942 81.8155C34.0034 81.2636 34.323 80.9102 34.5898 81.0037C35.1593 81.2023 35.0367 81.8186 35.3701 81.686C35.6093 81.5909 35.8599 81.4836 36.1045 81.4675C37.0213 81.4077 37.3141 82.1428 37.111 82.5269C36.8404 83.0412 36.2854 82.4571 35.4253 83.0351C34.6181 83.5786 34.6143 84.7959 35.6361 84.5038C36.707 84.198 37.2612 83.794 38.1113 83.7948C39.2987 83.7955 40.5934 84.9377 40.227 86.631C39.8767 88.2515 39.1653 88.0637 39.4574 88.5596C39.4712 88.5834 39.7647 89.0111 39.915 89.5071C40.099 90.1157 39.5539 90.663 39.1469 90.1617C38.398 89.2396 38.5628 89.0479 38.2132 89.2365C37.5824 89.5784 37.0197 89.9057 36.2417 89.7164C35.7266 89.5914 35.5725 89.0004 35.6859 88.7053C35.8093 88.3841 36.027 88.4025 36.3321 88.3757C37.728 88.2507 39.1599 86.8962 38.6962 85.7916C38.4708 85.2566 37.7978 85.3248 36.6096 85.7671C35.9236 86.0223 35.1049 86.204 34.4096 85.8491C33.4783 85.3738 33.351 83.7564 34.3813 82.5023Z" fill="black"/>
<path d="M74.9539 95.9651C74.7439 95.8701 74.6059 95.7259 74.5155 95.5504C74.4564 96.5209 74.4143 97.1671 74.412 97.1931C74.389 97.4553 74.3123 97.6339 74.0509 97.7558C73.6155 97.9589 73.4446 97.8501 73.4354 97.3602C73.4277 96.954 73.5105 95.7888 73.6056 94.2956C73.0575 94.0763 72.0303 93.6271 64.7389 91.1082C64.4077 90.994 64.0758 90.8752 63.7454 90.7556C63.7385 91.651 63.6672 93.3397 63.5063 99.2896C63.484 100.108 63.4672 100.524 63.3476 100.578C63.1621 100.663 62.9659 100.736 62.7658 100.777C62.6999 100.791 62.5764 100.709 62.5396 100.64C62.2185 100.022 62.673 94.0978 62.6301 90.3463C61.7355 90.0167 60.8893 89.7062 60.1664 89.4839C60.181 89.6441 60.1664 89.9278 60.1718 90.3984C60.1833 91.5444 60.2362 91.4294 59.918 91.5191C50.6727 94.1461 51.5834 94.2948 45.5054 95.7995C42.0344 96.6588 39.9149 97.6147 38.2186 98.2433C35.9588 99.0796 32.9171 100.098 31.4721 100.633C31.2276 100.724 31.0804 100.676 30.9317 100.496C22.7542 90.5954 24.3371 92.3685 22.643 90.009C19.3906 85.4795 19.5201 86.1096 18.3105 83.8835C18.069 83.4381 18.3841 83.3431 18.9023 83.1239C19.6006 82.8272 19.1054 82.9345 22.2015 86.6646C24.1938 89.0646 25.385 91.0806 28.071 94.7087C28.9011 95.8294 30.6803 97.8953 31.0436 98.3422C31.374 98.7485 31.7933 98.7538 32.2839 98.576C40.7466 95.5128 46.6491 93.1833 59.7609 89.3651C59.6206 89.326 59.4857 89.2915 59.3577 89.2624C59.0626 89.1949 58.9683 89.1888 58.2807 88.9719C53.6607 90.426 39.4136 94.6972 32.1137 97.9121C31.4683 98.1965 31.3158 97.7588 24.0228 87.8489C22.3111 85.5232 20.0613 82.7866 19.3139 81.4236C19.0433 80.93 20.0751 80.9039 23.9883 79.9327C28.4941 78.8135 32.0862 78.07 35.7464 77.226C35.5103 76.9186 35.3233 76.671 35.1669 76.4595C28.4696 78.0217 20.4085 79.7043 18.9804 80.4455C18.1641 80.8694 18.4324 81.4673 18.7842 82.1971C18.9168 82.4715 18.7512 82.3466 17.9893 82.7666C17.6405 82.9583 17.2733 83.3247 17.5033 83.8138C17.603 84.0253 18.3043 85.2556 18.4822 85.5178C18.6516 85.7685 18.4155 85.7186 17.826 85.9785C16.9552 86.3625 16.8057 86.9229 17.235 87.6611C17.9839 88.9481 18.1257 88.8124 17.7448 89.0593C16.7896 89.6763 16.3887 89.8143 16.6256 90.4567C16.8364 91.0278 16.9652 91.1895 17.7685 92.1645C18.0591 92.5172 17.8927 92.4144 17.0633 93.0116C16.8142 93.191 16.6087 93.447 16.6969 93.7398C16.8088 94.1147 16.9368 94.3576 17.1844 94.6597C22.2605 100.856 20.4469 98.8918 23.2072 102.328C24.229 103.6 24.2911 103.57 26.8483 106.753C28.9134 109.324 27.2806 107.315 29.2675 109.601C30.4465 110.957 30.9057 111.54 31.9436 111.194C35.8744 109.887 35.8353 109.762 37.3263 109.248C38.6677 108.785 42.6691 107.473 43.228 107.276C51.9843 104.196 58.1098 102.509 58.5743 102.338C59.2159 102.102 59.3715 101.904 59.8161 102.318C60.6762 103.118 61.4397 102.612 64.0436 101.825C64.86 101.579 65.6304 101.193 66.4744 101.026C66.9182 100.938 67.3452 100.776 67.7844 100.667C68.2635 100.549 70.9142 99.9696 73.5795 99.1647C74.3277 98.9386 75.0513 98.635 75.7856 98.3667C76.1635 98.2287 76.3337 97.9236 76.4188 97.5595C76.5606 96.957 76.5039 96.9999 76.7437 96.9425C76.838 96.9202 76.9139 96.9011 76.9829 96.8819C76.2939 96.609 75.6293 96.2725 74.9524 95.9674L74.9539 95.9651ZM59.9403 100.735C59.9372 100.892 59.4934 100.967 57.9013 101.468C56.5391 101.897 54.3054 102.679 51.0828 103.66C45.4632 105.37 47.5643 104.731 32.0716 110.086C31.6439 110.234 31.3848 110.448 31.0398 110.121C29.0292 108.217 19.7723 96.8313 17.6375 93.7682C17.501 93.5727 17.7386 93.5942 18.3151 93.0982C18.4293 93.0001 18.4922 93.0108 18.5795 93.1174C19.7493 94.5631 27.48 104.748 30.4726 107.548C31.1211 108.155 32.8941 107.259 36.5536 105.892C40.1602 104.544 40.9452 104.495 41.6397 104.161C42.4898 103.753 43.4204 103.578 44.295 103.244C45.9431 102.616 48.7471 101.703 49.8678 101.4C49.9207 101.385 59.7985 98.3414 59.8169 98.3353C60.0606 98.2648 60.0223 98.4073 60.0269 98.8642C60.0269 98.8642 59.9548 100.109 59.941 100.733L59.9403 100.735ZM58.6371 97.8478C58.1596 97.9926 58.6448 97.8746 48.5892 101.019C44.0781 102.43 46.0504 101.94 41.99 103.185C41.2779 103.404 40.9996 103.591 37.3976 104.842C35.4222 105.529 32.2832 106.579 31.4683 106.887C30.9333 107.09 30.839 106.745 30.3836 106.342C29.0521 105.161 21.4288 95.6738 20.2391 94.1614C17.258 90.3701 17.2741 90.3509 17.4565 90.2167C18.312 89.5897 18.4009 89.4379 18.5826 89.6556C19.8788 91.2102 19.2687 90.6506 20.7144 92.4121C26.3654 99.3004 27.3374 101.467 30.4856 104.23C31.2131 104.869 30.9517 105.026 34.277 103.825C55.7725 96.0609 50.3139 98.2854 55.9864 96.6297C60.4025 95.3404 60.0691 95.1142 60.0668 95.9061C60.0622 97.9627 60.3443 97.328 58.6371 97.8478ZM60.1327 94.5002C60.112 94.7953 60.1327 94.5753 56.848 95.6455C56.1451 95.8747 52.1376 96.9195 51.4185 97.0935C48.4742 97.8041 39.0426 101.215 34.1719 102.832C33.2551 103.135 32.5445 103.559 32.021 103.691C31.5726 103.804 31.3035 103.913 30.6788 103.331C29.5496 102.281 29.4247 102.394 26.1554 98.2303C25.5996 97.5227 24.1907 95.7903 23.8197 95.2622C22.5917 93.5144 22.2138 93.3933 20.8094 91.3482C18.5772 88.0965 18.7275 88.5464 17.9717 87.1597C17.7386 86.7328 18.0568 86.6385 18.6654 86.3089C18.9705 86.1441 18.9099 86.0597 19.1981 86.4438C22.1425 90.3647 21.6887 89.72 22.9734 91.6977C23.7729 92.928 29.1273 99.6415 29.9674 100.614C30.248 100.939 30.5737 101.223 30.9586 101.428C31.4468 101.686 31.2008 101.658 36.467 99.7764C39.5654 98.6695 40.5719 98.0026 45.7292 96.5944C46.9848 96.2518 48.6214 96.0326 54.8596 93.8303C56.0079 93.4248 56.0546 93.516 59.5792 92.4558C60.2454 92.255 60.2078 92.2021 60.2132 92.7571C60.2239 93.7574 60.2576 92.7839 60.135 94.5002H60.1327Z" fill="black"/>
<path d="M54.2502 87.6265C47.8465 89.5712 36.3337 93.1265 34.8098 93.5565C34.2387 93.7175 32.9118 94.0402 32.5622 94.0709C31.9245 94.1261 32.2717 94.0847 29.7068 90.7755C28.5463 89.2776 23.7822 83.2648 23.7722 83.0341C23.8489 82.8256 26.9243 82.3618 30.6788 81.0886C32.2096 80.5689 34.3636 79.9986 37.0366 79.5003C37.219 79.4666 37.3624 79.4397 37.4958 79.4129C37.2681 79.1377 37.0826 78.9146 36.8718 78.6548C35.6369 78.9139 34.5583 79.0902 32.7861 79.6076C27.8978 81.0342 28.9227 80.9468 24.9243 81.8452C24.4238 81.9571 23.2119 82.3296 23.1605 82.3557C22.8723 82.4975 22.7274 82.5895 22.6852 82.7252C22.4721 83.4143 28.4505 90.5087 30.1982 92.9555C30.731 93.7014 30.8835 93.8961 31.233 94.3307C32.0418 95.3395 32.0571 95.328 36.1727 93.9751C43.7638 91.4792 51.3504 89.3114 55.6523 88.101C55.2399 87.9615 54.7753 87.8043 54.2495 87.625L54.2502 87.6265Z" fill="black"/>
<path d="M116.793 82.7387C117.067 82.8238 117.064 82.5654 117.359 82.3063C117.798 81.9208 118.246 82.084 118.26 82.3661C118.292 82.9686 117.674 83.0875 117.923 83.3458C118.102 83.5313 118.295 83.7229 118.402 83.9437C118.804 84.77 118.234 85.3181 117.801 85.2759C117.223 85.2192 117.554 84.4849 116.694 83.9069C115.886 83.3642 114.758 83.8203 115.414 84.6566C116.102 85.5327 116.684 85.8938 117.005 86.6818C117.453 87.7818 116.883 89.4115 115.177 89.712C113.544 89.9994 113.449 89.2697 113.1 89.7273C113.083 89.7488 112.798 90.1826 112.396 90.5084C111.901 90.9086 111.189 90.6104 111.5 90.0447C112.071 89.0029 112.311 89.0834 112.004 88.8312C111.45 88.3759 110.934 87.978 110.815 87.187C110.737 86.6626 111.226 86.297 111.541 86.2909C111.885 86.284 111.949 86.4932 112.09 86.7646C112.732 88.0102 114.527 88.8251 115.375 87.978C115.786 87.5679 115.469 86.97 114.611 86.0364C114.115 85.4975 113.638 84.8076 113.705 84.0295C113.794 82.9878 115.243 82.258 116.793 82.7387Z" fill="black"/>
<path d="M75.3076 78.5869C74.157 78.9341 73.6066 79.0008 73.0164 78.4397C72.5841 78.0288 72.4238 78.2136 71.8037 78.4374C74.722 79.3703 76.9059 80.0441 76.9397 80.0157L77.5598 79.4784C77.6733 79.3795 77.6349 79.3419 75.3076 78.5869Z" fill="black"/>
<path d="M129.061 84.2734C129.029 84.1347 128.891 84.0327 128.614 83.8702C128.565 83.8411 127.384 83.3804 126.892 83.2317C122.971 82.0412 123.987 82.2045 119.217 80.4215C116.19 79.2901 115.203 79.3575 111.885 78.0207C110.572 77.4918 105.221 75.6234 104.839 75.4325C104.81 75.4179 104.776 75.4233 104.753 75.4448C104.125 76.0212 104.061 76.0388 104.077 76.1155C104.098 76.2036 104.094 76.0764 110.694 78.5105C114.161 79.7883 113.971 79.7339 114.985 80.0022C117.615 80.6952 119.721 81.4226 121.209 82.0535C124.86 83.5996 127.893 84.288 127.954 84.5011C127.927 84.7311 122.734 90.3767 121.466 91.7848C118.664 94.8963 119.008 94.9637 118.376 94.861C118.03 94.805 116.73 94.3858 116.172 94.1834C114.1 93.4299 93.1464 85.2048 93.059 85.2707C92.2794 85.8533 92.258 85.8517 92.2871 85.9284C92.317 86.0074 103.573 89.8769 114.782 94.5015C118.786 96.1534 118.801 96.1664 119.681 95.2198C120.062 94.8112 120.228 94.6287 120.814 93.9243C122.737 91.6124 129.221 84.9771 129.059 84.2742L129.061 84.2734Z" fill="black"/>
<path d="M134.536 92.4272C134.82 91.8047 134.43 91.6376 133.523 90.9515C133.161 90.6779 133.292 90.8228 134.134 89.594C134.616 88.8895 134.508 88.3192 133.668 87.8723C133.099 87.5695 132.86 87.6017 133.047 87.3649C133.244 87.1157 134.034 85.9414 134.149 85.7367C134.415 85.266 134.075 84.8736 133.742 84.6566C133.012 84.1821 132.838 84.2941 132.99 84.0304C133.395 83.329 133.706 82.7525 132.924 82.2696C131.346 81.2969 121.074 78.43 114.196 76.1884C113.685 76.0221 113.186 75.8166 112.675 75.6541C108.485 74.3242 108.291 74.4407 108.308 73.9999C108.357 72.7428 106.485 72.2054 103.194 71.0487C102.85 70.9276 102.109 70.7781 100.881 70.3335C100.462 70.4477 100.037 70.5619 99.6148 70.6692C89.9769 73.1199 90.9666 73.0164 90.0015 73.2372C89.7608 73.2916 89.8175 73.2502 89.6695 73.8497C89.5791 74.2138 89.4074 74.5166 89.0264 74.6507C88.289 74.9121 87.5608 75.2088 86.8111 75.4272C86.7191 75.4541 86.6271 75.4809 86.5351 75.5069C84.5268 77.2196 81.9358 79.4088 78.5147 82.2267C78.1498 82.5279 77.9574 82.8997 77.8854 83.3504C77.3166 86.9103 77.4768 94.0032 77.3733 95.1361C77.3281 95.6237 77.1503 95.7195 76.7302 95.4849C76.4787 95.3439 76.4151 95.1607 76.4112 94.897C76.4105 94.8058 76.4802 87.2621 76.6635 84.557C76.734 83.5175 76.8973 82.9143 76.9188 82.7962C77.0514 82.0749 77.2338 81.8564 78.0103 81.2125C78.0287 81.1972 81.7879 78.1042 81.8063 78.0911C83.4536 76.8578 83.8737 76.5188 84.3781 76.0849C82.6909 76.5088 81.331 76.7926 80.9999 76.8708C80.5591 76.9743 80.1298 77.1329 79.686 77.2165C79.6707 77.2196 79.6561 77.2226 79.6415 77.2257C77.5527 78.9428 75.7888 80.4299 75.1204 81.106C74.9801 81.2478 74.885 81.2846 74.6964 81.2148C72.9165 80.5541 71.0231 79.878 69.1198 79.2157C68.6775 79.3444 68.1731 79.4932 67.602 79.6633C70.9764 80.8247 73.8103 81.8319 74.4496 82.1063C74.688 82.2083 74.6183 82.1178 74.56 83.7191C74.5799 83.7207 74.5776 83.7222 74.55 84.0112C74.5408 84.1047 74.5178 84.1683 74.3967 84.1277C71.7399 83.2493 67.9171 81.9507 64.2315 80.689C63.7754 80.83 63.2948 80.9795 62.7889 81.1382C74.5439 85.1373 74.5324 84.9303 74.527 85.2361C74.527 85.2522 74.4857 86.5646 74.5017 86.5646C74.4933 86.6612 74.4818 86.7577 74.478 86.8551C74.4634 87.2644 73.9023 86.701 72.6084 86.2825C70.8944 85.7275 70.5057 85.3358 66.8661 84.1906C65.8474 83.8702 62.204 82.7518 59.9496 82.035C59.4827 82.1838 58.9998 82.3386 58.5008 82.4996C58.694 82.5632 58.8871 82.6237 59.0826 82.6812C60.0323 82.9618 60.9852 83.2362 61.9158 83.5796C63.1223 84.0258 68.0873 85.368 68.8615 85.703C70.6368 86.4695 71.1565 86.5592 74.2151 87.7727C74.3921 87.8424 74.4634 87.9482 74.4458 88.1552C74.2656 90.2402 74.5109 90.093 74.0732 89.9343C73.9552 89.8914 62.1128 85.7911 55.5312 83.4631C55.1165 83.5988 54.6918 83.7375 54.2579 83.8801C57.827 85.0338 68.1325 88.8274 74.2105 90.8412C74.3377 90.8833 74.3875 90.963 74.3776 91.0934C74.317 91.863 74.3239 91.5908 74.3592 93.2949C74.3193 93.774 74.606 93.6782 71.8119 92.5989C71.273 92.3904 70.7242 92.2064 70.1861 91.9941C69.6089 91.7672 69.0408 91.5165 68.4652 91.2911C65.1475 89.9918 58.3168 87.9819 53.3649 86.1882C52.6551 85.9314 51.7912 85.7206 50.9625 85.4086C50.6781 85.3013 50.7303 85.1388 50.8828 84.9955C50.741 85.043 50.5984 85.0905 50.4551 85.138C50.0396 85.2768 49.7429 85.3864 49.4463 85.4998C49.4547 85.624 49.4961 85.7382 49.582 85.8279C50.0787 86.3453 50.8721 86.4726 51.3596 86.6397C59.0489 89.269 58.6947 89.1103 59.3593 89.2621C60.6831 89.5656 62.7314 90.4142 64.7413 91.1087C74.1461 94.3581 73.1289 94.1634 74.1047 94.4738C74.34 94.549 74.2863 94.5022 74.3837 95.1131C74.442 95.4819 74.5891 95.7992 74.9563 95.9648C75.6692 96.286 76.3691 96.6424 77.0981 96.923C79.6975 97.9226 82.2976 98.6945 82.7668 98.8478C83.1976 98.9888 83.6115 99.182 84.0469 99.3016C84.8763 99.53 85.616 99.9723 86.4125 100.278C88.9521 101.253 89.6764 101.814 90.5925 101.079C91.067 100.699 91.2072 100.908 91.8297 101.191C92.2804 101.396 98.2656 103.528 106.771 107.244C107.314 107.481 111.208 109.084 112.512 109.645C113.961 110.267 113.912 110.389 117.737 111.981C118.746 112.402 119.248 111.855 120.522 110.589C122.673 108.456 120.896 110.338 123.145 107.926C125.929 104.94 125.989 104.974 127.101 103.781C130.106 100.556 128.153 102.382 133.671 96.5765C133.94 96.2936 134.086 96.0614 134.225 95.6957C134.334 95.4106 134.149 95.14 133.913 94.943C133.13 94.286 132.957 94.3773 133.272 94.0469C134.145 93.1339 134.286 92.9821 134.538 92.4279L134.536 92.4272ZM133.438 89.0413C132.582 90.3682 132.765 89.9313 130.3 93.0097C128.749 94.946 128.363 95.0388 127.01 96.6922C126.601 97.1913 125.068 98.8156 124.462 99.4802C120.896 103.393 120.779 103.271 119.576 104.234C118.91 104.768 118.65 104.641 118.211 104.495C117.698 104.325 117.021 103.85 116.129 103.48C111.391 101.51 102.235 97.4143 99.3511 96.4891C98.6466 96.263 94.7272 94.9261 94.0427 94.6463C90.8454 93.3378 90.85 93.5586 90.8508 93.2627C90.8546 91.5418 90.8171 92.5145 90.9006 91.5188C90.9474 90.9661 90.9052 91.0159 91.5553 91.2651C94.9925 92.582 95.0454 92.4938 96.1607 92.9829C102.22 95.6382 103.836 95.9778 105.063 96.4117C110.103 98.1947 111.058 98.9344 114.066 100.266C119.179 102.53 118.932 102.539 119.438 102.318C119.837 102.142 120.182 101.884 120.486 101.58C121.395 100.671 127.228 94.3704 128.116 93.2014C129.543 91.3233 129.043 91.9327 132.268 88.2387C132.583 87.8777 132.517 87.9566 132.809 88.1437C133.391 88.517 133.702 88.6343 133.438 89.0428V89.0413ZM133.34 85.7497C131.97 87.8808 132.146 87.2621 128.569 91.5403C126.706 93.7686 128.415 92.1167 119.531 101.389C119.37 101.558 119.219 101.594 118.982 101.485C117.58 100.846 114.622 99.6059 112.43 98.6063C110.784 97.8551 108.741 96.7451 105.342 95.6336C99.3909 93.6858 100.311 93.6046 91.2831 90.3053C90.9727 90.1919 91.0171 90.3099 91.113 89.1686C91.2057 88.0678 91.1176 87.9881 91.52 88.1383C104.37 92.9285 110.093 95.6896 118.324 99.3744C118.8 99.5875 119.219 99.6136 119.577 99.2326C119.973 98.8133 121.899 96.8839 122.809 95.8276C125.755 92.4072 127.091 90.4839 129.254 88.2372C132.616 84.7448 132.13 84.6014 132.805 84.9487C133.305 85.2055 133.614 85.3243 133.34 85.7497ZM106.875 74.5465C114.798 77.5745 119.907 78.7465 127.968 81.3911C131.799 82.6483 132.826 82.7502 132.52 83.2224C131.674 84.5271 129.23 87.0897 127.352 89.2835C119.35 98.6308 119.166 99.0563 118.543 98.7251C110.178 94.2799 92.1516 87.6293 91.671 87.2821C92.298 86.4695 94.6713 84.4037 95.0109 84.117C95.1596 83.9913 95.3014 83.8127 95.4716 83.7766C95.6187 83.7452 95.7951 83.8955 95.966 83.9468C98.1453 84.6083 100.904 85.3343 103.576 84.1139C104.111 83.8702 104.502 83.4731 104.903 83.0768C105.018 82.9633 105.414 82.1684 105.27 81.2509C105.056 79.8856 103.873 78.6998 102.787 77.8305C102.651 77.7217 102.581 77.7332 102.92 77.4518C106.516 74.4813 106.436 74.3786 106.875 74.5465ZM98.084 81.5912C99.5649 80.3594 101.441 78.7366 101.749 78.4821C101.916 78.3441 102.134 78.3671 102.302 78.5089C103.004 79.1053 103.671 79.5629 104.111 80.3793C104.634 81.349 104.448 82.2704 104.188 82.5931C103.409 83.5589 102.131 83.7782 100.81 83.9253C100.276 83.9851 98.8735 83.9974 96.2527 83.2324C95.9959 83.1573 96.1875 83.1688 98.084 81.5912ZM85.5156 86.573C84.4072 86.2135 82.7522 85.5757 79.1716 84.0457C78.7002 83.8441 78.9432 83.1511 79.5894 83.3397C81.2398 83.8188 86.0614 85.6562 86.7728 86.0403C87.1223 86.2288 86.7567 86.9755 85.5156 86.573ZM88.8608 87.2537C88.3281 90.4924 88.4262 98.5151 87.9977 99.2073C87.9563 99.274 87.8275 99.346 87.7624 99.3276C87.5654 99.2724 87.3753 99.1858 87.1967 99.0877C87.0817 99.0241 87.0955 98.6086 87.133 97.7907C87.6213 87.2874 87.4128 90.0669 87.7723 87.0521C87.9387 85.6547 89.0908 84.9104 96.0488 78.8608C98.3477 76.8624 100.079 75.3214 102.679 73.3683C103.33 72.8792 103.713 72.1449 104.298 72.5872C104.352 72.6278 104.423 72.6408 104.485 72.6707C105.106 72.9743 104.362 73.3989 103.863 73.7906C100.18 76.6828 101.836 75.372 98.7616 78.0022C98.189 78.492 98.7233 77.957 96.5432 79.8887C89.8083 85.854 89.0333 86.2089 88.8616 87.2537H88.8608ZM133.285 95.6566C130.931 98.5534 120.861 109.228 118.716 110.979C118.348 111.28 118.105 111.047 117.69 110.869C102.633 104.388 104.681 105.18 99.2024 103.062C96.0603 101.847 93.8902 100.902 92.5633 100.374C91.0125 99.7569 90.5748 99.6496 90.5833 99.4924C90.6155 98.87 90.64 98.2468 90.6668 97.6228H90.6346C90.673 97.1667 90.6454 97.0219 90.883 97.1108C90.9014 97.1177 100.528 100.88 100.58 100.898C101.675 101.282 104.404 102.399 106.002 103.147C106.849 103.544 107.765 103.787 108.583 104.257C109.25 104.641 110.03 104.749 113.527 106.358C117.075 107.99 118.779 109.013 119.469 108.456C122.66 105.884 131.118 96.2944 132.391 94.9391C132.486 94.8387 132.55 94.8326 132.656 94.9391C133.194 95.4757 133.433 95.4719 133.282 95.6574L133.285 95.6566ZM130.661 95.8567C129.364 97.2779 121.063 106.179 119.649 107.258C119.165 107.627 119.046 107.964 118.527 107.722C117.738 107.355 114.684 106.076 112.764 105.247C109.264 103.735 109 103.528 108.306 103.257C104.348 101.717 106.279 102.35 101.884 100.611C92.0872 96.7352 92.5625 96.89 92.0964 96.7099C90.4323 96.0667 90.6668 96.7198 90.8125 94.6685C90.8684 93.879 90.5189 94.0798 94.8292 95.6904C100.364 97.7585 95.0845 95.1392 115.951 104.463C119.178 105.905 118.929 105.729 119.701 105.146C123.044 102.621 124.173 100.533 130.315 94.0783C131.887 92.4279 131.236 92.9415 132.644 91.4858C132.841 91.2819 132.918 91.4398 133.725 92.1282C133.898 92.2746 133.913 92.2945 130.661 95.8567Z" fill="black"/>
<path d="M48.2835 61.1344C50.4483 60.7005 50.7204 60.6009 51.283 60.6154C52.8652 60.6561 54.3262 62.0006 53.3259 63.6916C52.6965 64.7563 52.0511 64.626 52.3493 64.9618C52.4398 65.0637 52.6544 65.4324 52.7034 65.5712C52.9196 66.1875 52.2542 66.6842 51.779 66.1323C51.2501 65.5183 51.293 65.2891 51.0462 65.3995C50.4306 65.6739 49.6242 65.9437 48.9696 65.7651C48.0551 65.516 48.0313 64.869 48.5288 64.5685C49.2149 64.1531 49.6648 64.4321 50.8645 63.802C51.2401 63.605 51.8173 63.3359 52.0281 62.8001C52.1301 62.541 52.0526 62.377 51.7928 62.2727C51.6694 62.2229 51.5222 62.1784 51.3957 62.196C49.4832 62.4582 48.7028 62.794 47.3445 62.4467C45.7301 62.0343 45.691 60.144 47.0524 58.9742C47.1958 58.8508 47.1222 58.8255 46.7933 58.1763C46.4377 57.4733 47.4395 56.8287 47.9953 58.0575C48.1977 58.5051 48.1693 57.9969 49.4824 58.0942C50.2873 58.154 50.7058 58.8002 50.4306 59.2425C50.0412 59.8696 49.3214 58.9014 48.1034 59.7952C47.9079 59.9386 47.7423 60.1386 47.6013 60.3395C47.3606 60.6813 47.5246 61.024 47.9455 61.0892C48.0543 61.106 48.1678 61.0922 48.2774 61.0922L48.2843 61.1336L48.2835 61.1344Z" fill="black"/>
<path d="M90.4449 47.7721C90.6649 47.5498 90.3399 47.4433 90.1329 47.0508C89.8163 46.4513 90.2165 46.0888 90.589 46.206C91.3655 46.4506 91.2521 47.0899 91.676 46.9672C91.978 46.8798 92.2923 46.7802 92.6027 46.7756C94.145 46.7518 94.2884 48.1209 93.4091 48.0841C93.3394 48.081 93.262 48.0941 93.2022 48.0688C92.8151 47.9093 92.4647 48.0603 92.1252 48.2075C91.5893 48.4398 91.2751 48.8116 91.1539 49.2209C91.0267 49.6479 91.6614 49.8303 92.1351 49.723C93.4068 49.4363 94.0998 49.0798 95.0779 49.0852C96.3987 49.0929 97.7409 50.0871 97.3201 51.4975C96.933 52.7945 96.2116 52.6857 96.5052 53.0552C96.5183 53.072 96.8057 53.384 96.946 53.7466C97.1146 54.1835 96.5742 54.6212 96.1794 54.2855C95.4236 53.6423 95.593 53.4837 95.2328 53.6508C94.5781 53.9551 94.2293 54.2977 93.1462 54.1582C92.5767 54.0854 92.372 53.6378 92.4831 53.394C92.8879 52.5109 94.6479 52.8267 95.7586 51.3994C95.9119 51.2024 96.0116 50.9771 95.8736 50.7486C95.396 49.9568 92.917 51.7298 90.7806 51.0008C89.5572 50.583 89.2077 49.0208 90.4449 47.7721Z" fill="black"/>
<path d="M72.5424 63.0604L72.035 62.553C72.0158 62.5339 71.9867 62.5254 71.9599 62.5331C63.7486 64.8052 61.997 65.1378 52.895 67.9894C51.657 68.3773 47.1689 69.8115 45.8458 69.915C45.208 69.9648 45.5576 69.9311 43.0234 66.5905C39.5133 61.9628 39.3025 61.8654 37.1861 58.8237C37.0266 58.5937 40.0369 58.2435 44.0965 56.9143C45.612 56.4176 47.8158 55.8557 50.4696 55.3927C53.0928 54.9312 61.1469 52.3992 61.5984 52.3187C61.672 52.3065 61.685 52.2054 61.6168 52.1747C61.4252 52.0843 61.3677 51.8129 61.0948 51.6136C60.9813 51.53 60.4555 51.8942 56.5698 52.9006C52.5477 53.9462 52.9548 54.0436 49.5513 54.6997C44.4438 55.6824 43.6887 56.4727 38.3282 57.6202C37.8131 57.7306 36.6027 58.0925 36.5613 58.1116C35.9634 58.3868 35.9788 58.5156 36.2394 58.9878C37.2367 60.7938 42.207 66.963 43.3146 68.5352C43.7861 69.209 43.9884 69.5118 44.5074 70.1702C45.6534 71.6236 45.1352 70.992 57.8063 67.3194C63.2672 65.7373 72.5348 63.2382 72.5616 63.1348C72.5677 63.1087 72.5608 63.0812 72.5417 63.062L72.5424 63.0604Z" fill="black"/>
<path d="M113.842 60.9912C114.225 60.8555 114.77 60.7512 115.252 60.522C115.782 60.2706 115.511 59.6436 115.152 59.3584C114.455 58.805 113.908 58.6072 113.238 58.1335C113.356 58.0936 113.472 58.0537 113.589 58.0147C113.614 58.0062 113.646 58.0131 113.671 58.0047C113.97 57.9035 114.28 57.8207 114.567 57.6904C115.098 57.4497 115.215 56.8572 114.795 56.467C114.265 55.9726 114.069 55.9381 113.445 55.5893C113.368 55.5464 113.364 55.462 113.468 55.4321C113.522 55.4168 113.58 55.4283 113.634 55.4137C114.049 55.2988 114.493 55.2765 114.799 54.881C115.128 54.4571 115.107 54.073 114.629 53.7342C105.678 47.3757 106.218 48.2434 102.672 45.5697C100.186 43.6947 100.581 43.8802 98.9691 42.8255C98.1681 42.3011 96.9362 41.6204 96.7339 41.4702C95.7558 40.7427 94.146 40.9451 86.0068 42.9128C81.685 43.9569 79.9319 44.3586 75.6324 45.5268C75.0245 45.6916 74.701 45.0078 73.7781 44.9657C70.9304 45.3934 70.9104 45.4977 68.909 46.002C68.0175 46.2266 67.1145 46.4068 66.2383 46.6797C64.4231 47.2439 63.4005 47.3489 62.9713 47.4608C59.5961 48.3416 57.6851 48.7164 57.6276 49.9728C57.6077 50.412 57.426 50.2802 53.1372 51.2544C52.6144 51.3733 52.1008 51.5365 51.578 51.6584C44.5327 53.3057 34.0585 55.311 32.4059 56.1489C31.5864 56.5643 31.8463 57.1661 32.192 57.8981C32.3223 58.1741 32.1583 58.0484 31.3909 58.4592C31.0391 58.6478 30.6681 59.0104 30.8935 59.501C30.9916 59.7149 31.6799 60.9513 31.8547 61.215C32.0218 61.4672 31.7857 61.4151 31.1939 61.6688C30.3193 62.0444 30.1645 62.604 30.5861 63.3445C31.3227 64.6384 31.4661 64.505 31.082 64.748C30.1223 65.3559 29.7183 65.4893 29.9483 66.1339C30.1537 66.7066 30.2802 66.8721 31.0736 67.8549C31.361 68.2105 31.1955 68.1047 30.3592 68.6942C30.1085 68.8713 29.9 69.1266 29.9851 69.4186C30.0947 69.7942 30.2189 70.038 30.4642 70.3415C35.4928 76.5767 33.6829 74.6082 36.4072 78.0721C37.4153 79.3538 37.4766 79.3262 40.0016 82.5342C42.0406 85.1251 40.4286 83.0999 42.3917 85.4072C43.5553 86.774 44.0091 87.3619 45.0509 87.0277C48.9955 85.7621 48.9557 85.6357 50.4527 85.1366C66.0597 79.9341 71.2262 78.6394 71.7728 78.4462C72.4175 78.2178 72.5761 78.02 73.0146 78.4378C73.8662 79.2472 74.6343 78.7498 77.2459 77.9886C78.0638 77.7502 78.8388 77.373 79.685 77.2136C80.1289 77.1308 80.5581 76.9721 80.9989 76.8679C81.4795 76.7552 84.1356 76.2056 86.8101 75.4261C87.5598 75.2076 88.288 74.9109 89.0255 74.6495C89.4064 74.5146 89.5781 74.2126 89.6686 73.8485C89.8173 73.2491 89.7606 73.2905 90.0005 73.236C90.9656 73.016 89.976 73.1187 99.6138 70.6689C101.675 70.1445 103.787 69.4707 105.132 69.2799C105.807 69.184 105.44 69.3121 113.322 67.3367C113.821 67.2117 114.624 67.1512 115.162 66.6774C115.501 66.3785 115.284 65.7008 114.952 65.4004C113.039 63.6687 112.466 63.8979 113.701 63.6005C114.583 63.3889 115.515 62.9819 114.942 62.2797C114.654 61.9271 113.574 61.1713 113.574 61.1015C113.575 60.9567 113.747 61.0211 113.841 60.9881L113.842 60.9912ZM113.608 56.838C113.698 56.9101 113.708 56.9484 113.603 57.0135C113.28 57.2136 112.922 57.314 112.561 57.4075C112.439 57.4397 97.5533 61.2288 90.5693 62.9098C90.4436 62.9397 90.4259 62.8746 90.4252 62.7811C90.4229 62.489 90.4183 62.489 90.4405 62.489C90.5172 60.8884 90.439 60.9735 90.6858 60.8915C92.4995 60.2882 111.307 55.5494 111.859 55.8047C112.477 56.0906 113.073 56.4118 113.607 56.838H113.608ZM37.416 55.6981C45.6687 53.7381 50.8529 52.9815 59.0082 50.645C59.2328 50.5806 59.3248 50.5852 59.6874 50.9057C60.6456 51.7527 61.8636 53.0489 62.6509 53.8094C63.0318 54.1765 62.9621 54.1505 62.8095 54.254C61.6566 55.032 60.3757 56.1121 60.0484 57.4543C59.7334 58.7459 60.3389 59.7984 61.4972 60.4507C64.1272 61.9333 67.0478 61.3568 69.096 60.9252C69.27 60.8884 69.4586 60.7543 69.6019 60.7965C69.7989 60.8547 72.5217 63.7346 73.092 64.6131C72.5846 64.9182 54.0647 70.038 45.3544 73.7627C44.7051 74.0401 44.5587 73.6024 37.3685 63.6166C35.6813 61.2725 33.4606 58.5137 32.7263 57.1431C32.461 56.6471 33.4928 56.631 37.4153 55.6989L37.416 55.6981ZM63.1966 54.7445C63.3752 54.6173 63.3936 54.6196 63.5485 54.7714C63.8352 55.0504 65.809 57.0411 67.1812 58.3941C68.9373 60.125 69.1305 60.128 68.8668 60.1817C66.1908 60.7244 64.7941 60.5941 64.2675 60.4906C61.7157 59.9893 59.8522 58.8594 61.2741 56.6816C61.7816 55.9051 62.4439 55.2804 63.1951 54.7453L63.1966 54.7445ZM31.6953 59.5876C31.4592 59.1407 31.775 59.048 32.2962 58.8333C32.9969 58.5443 32.5017 58.6455 35.5579 62.407C37.5249 64.8277 38.6946 66.8576 41.3454 70.5117C42.164 71.6408 43.921 73.7251 44.2797 74.1758C44.6055 74.5844 45.0256 74.5944 45.5185 74.4227C54.0333 71.4507 59.9595 69.1542 73.1687 65.4716C73.5826 65.3559 73.4906 65.4318 73.4906 66.5349C73.4906 67.6816 73.5405 67.5666 73.2216 67.6532C63.9494 70.1806 64.8601 70.3446 58.7652 71.7865C55.2866 72.6098 53.1564 73.5434 51.4539 74.1536C49.1856 74.9669 46.1348 75.958 44.6829 76.4739C44.4376 76.5613 44.2904 76.5123 44.1433 76.3298C36.0776 66.3355 37.633 68.1339 35.9642 65.7583C32.7569 61.1943 32.8765 61.8282 31.6937 59.5868L31.6953 59.5876ZM73.2545 74.9999L73.2216 74.9983C73.2101 75.6215 73.1694 76.244 73.1495 76.8663C73.1442 77.025 72.7019 77.0925 71.1051 77.5777C69.7361 77.9932 67.4962 78.752 64.2644 79.6995C58.6272 81.3514 60.7329 80.7275 45.1873 85.9308C44.758 86.0749 44.4974 86.2849 44.1555 85.9546C42.1656 84.0297 33.0237 72.5507 30.9233 69.4654C30.7892 69.2684 31.0268 69.2898 31.6079 68.8023C31.7229 68.7057 31.7865 68.7172 31.8716 68.8261C33.0183 70.2879 40.6516 80.5465 43.6151 83.3774C44.256 83.9899 46.0389 83.1137 49.7115 81.7845C53.3304 80.4745 54.1169 80.4331 54.8144 80.1073C55.6691 79.7079 56.5989 79.5424 57.4789 79.2173C59.1332 78.6056 61.9449 77.7164 63.0694 77.4305C63.123 77.4167 73.0315 74.4748 73.0499 74.4694C73.2959 74.4004 73.2545 74.5445 73.2545 74.9999ZM71.8824 73.9681C71.4018 74.1084 71.8878 73.9934 61.8 77.0342C57.2743 78.3987 59.2504 77.928 55.1793 79.1323C54.4649 79.3438 54.1843 79.5278 50.5708 80.742C48.5877 81.4081 45.4372 82.4277 44.6216 82.7266C44.0842 82.9236 43.9938 82.5787 43.5431 82.1709C42.2238 80.9766 34.6971 71.4109 33.5243 69.8862C30.5822 66.0642 30.5999 66.045 30.7831 65.9132C31.6454 65.2946 31.7359 65.1459 31.9145 65.3643C33.1954 66.9335 32.5906 66.3662 34.0179 68.1423C39.5984 75.0872 40.5435 77.2672 43.6665 80.0598C44.3748 80.693 44.0934 80.8708 47.4609 79.6926C68.9979 72.1575 63.4795 74.3383 69.2439 72.7217C73.6738 71.4791 73.3442 71.2514 73.3335 72.0425C73.3059 74.0992 73.5956 73.4675 71.8824 73.9681ZM73.4101 70.6298C73.3871 70.9233 73.4086 70.7095 70.1117 71.7451C69.4057 71.9674 65.389 72.97 64.6684 73.1371C61.7172 73.8217 52.2511 77.1346 47.3628 78.6976C46.4429 78.992 45.7285 79.409 45.2026 79.5339C44.7534 79.6405 44.4836 79.747 43.8635 79.1599C42.7435 78.0982 42.6178 78.2101 39.393 74.0118C38.8456 73.2989 37.4536 71.5512 37.0895 71.0199C35.8814 69.2584 35.5035 69.1358 34.1199 67.0753C31.9214 63.8013 32.0655 64.2528 31.325 62.8569C31.0981 62.4284 31.4147 62.3372 32.0279 62.0137C32.3346 61.852 32.2763 61.7684 32.5584 62.154C35.4552 66.1086 35.0152 65.4563 36.2792 67.4455C37.0665 68.6843 42.3503 75.4506 43.1805 76.4333C43.458 76.7613 43.7799 77.0472 44.1632 77.2565C44.6492 77.5202 44.4031 77.4895 49.6885 75.6622C52.7984 74.5875 53.8118 73.9313 58.9829 72.576C60.2431 72.2456 61.8812 72.044 68.1424 69.9054C69.2945 69.5121 69.3413 69.6041 72.8751 68.58C73.5428 68.3868 73.5044 68.3332 73.5044 68.8874C73.5044 69.887 73.5458 68.9142 73.4101 70.6298ZM76.7369 75.4552C76.7055 76.2746 76.6832 76.6893 76.5653 76.7421C76.3782 76.8257 76.1812 76.8947 75.9812 76.9338C75.916 76.9468 75.7926 76.8656 75.7573 76.795C75.3924 76.0669 76.1582 68.0825 75.8991 64.8109C75.8156 63.7561 75.0697 63.3345 68.8576 56.828C66.8462 54.7208 67.3337 55.2972 66.8048 54.7614C63.9617 51.8807 65.5032 53.3287 62.0759 50.1376C61.6122 49.706 60.9062 49.2223 61.5501 48.9694C61.6137 48.9448 61.6873 48.9364 61.744 48.9011C62.3657 48.511 62.6838 49.2729 63.2932 49.8156C65.7209 51.9781 67.3161 53.6583 69.4394 55.843C75.8654 62.4545 76.9508 63.2916 76.9998 64.699C77.1048 67.7337 77.1393 64.9481 76.7377 75.4544L76.7369 75.4552ZM85.7845 62.3863C82.0897 63.6135 80.2523 63.8818 79.1193 64.1471C77.8438 64.446 78.0278 63.6296 78.3926 63.4702C79.1324 63.1475 83.7784 62.0298 85.4602 61.6849C86.3157 61.5093 86.0857 62.2859 85.7837 62.3863H85.7845ZM88.2804 63.1459C88.2413 65.5184 87.6687 73.3817 87.661 73.4706C87.6372 73.7328 87.5575 73.9106 87.2953 74.0302C86.8576 74.2295 86.6882 74.1183 86.6844 73.6293C86.676 72.6305 87.4441 65.628 87.1635 61.8428C87.1298 61.389 86.9688 61.0011 86.6308 60.6707C76.497 50.7524 74.2572 47.9843 72.3101 46.7303C71.6693 46.3179 72.6559 45.8273 73.2147 46.1929C73.8823 46.6298 73.8294 46.5011 77.3793 50.0126C77.9097 50.537 78.0669 50.8589 78.8081 51.5764C82.0368 54.7032 80.7513 53.6009 83.6972 56.2723C83.714 56.2876 87.2026 59.6842 87.2195 59.7011C87.9347 60.4147 88.1002 60.6409 88.1723 61.3706C88.1846 61.491 88.2965 62.105 88.2796 63.1467L88.2804 63.1459ZM83.5262 53.3249C82.3634 52.228 77.5379 47.4455 76.7269 46.7609C76.2632 46.37 76.1467 46.2964 76.3537 46.2404C92.4213 41.891 93.036 42.3855 94.7776 41.9041C95.0666 41.8243 95.883 41.8719 96.2747 42.121C102.759 46.2328 99.8622 44.702 106.17 49.0782C113.728 54.3222 113.199 53.8163 113.756 54.2861C113.736 54.2915 100.443 57.1868 90.5156 59.9801C90.3217 60.0345 90.2305 59.9901 90.1032 59.836C88.7978 58.2653 83.6205 53.4138 83.5262 53.3249ZM113.784 65.6112C114.021 65.7913 114.197 66.042 113.818 66.1485C112.966 66.39 112.087 66.528 111.359 66.7242C106.275 68.0978 99.2972 69.5236 95.8845 70.5431C95.2935 70.7194 94.7056 70.9211 94.1115 71.0997C93.5573 71.2652 92.9947 71.4032 92.4404 71.565C89.5659 72.4043 89.8411 72.5247 89.8411 72.044C90.0197 70.35 90.0059 70.6206 90.0082 69.8486C90.0082 69.5305 89.9698 69.7091 95.0406 68.4014C100.132 67.0883 109.586 64.5273 111.501 64.167C111.636 64.1409 111.739 64.157 111.85 64.2153C111.9 64.2413 111.955 64.2582 111.999 64.2904C113.065 65.073 113.547 65.4303 113.783 65.6104L113.784 65.6112ZM113.731 62.6699C112.028 63.2165 90.567 68.6827 90.4068 68.7264C89.9576 68.8483 90.1845 69.0146 90.1845 66.922C90.1845 66.7135 90.2611 66.6153 90.4451 66.5594C93.5949 65.6096 94.1207 65.5613 95.9543 64.9458C96.7538 64.6767 101.815 63.7546 103.054 63.4119C104.011 63.1475 104.98 62.9551 105.952 62.7542C106.773 62.5841 107.583 62.3518 108.401 62.1647C109.827 61.839 111.82 61.4304 112.31 61.3001C112.479 61.2549 112.622 61.2687 112.713 61.4189C113.09 62.0467 114.214 62.5151 113.731 62.6699ZM106.251 61.7769C104.304 62.2399 99.3049 63.3261 98.0707 63.6028C94.3484 64.4399 93.9275 64.7963 92.1729 65.2072C90.8491 65.5176 90.2443 66.0305 90.2619 65.6211C90.2749 65.3107 90.3501 64.0129 90.3501 64.0037C90.3585 63.6695 90.3363 63.9431 105.946 60.0107C112.288 58.4133 112.191 58.2546 112.407 58.5436C112.651 58.8709 113.033 58.9889 113.35 59.2043C114.437 59.9433 114.296 59.7739 114.423 59.9655C113.346 60.3894 109.345 61.0395 106.251 61.7769Z" fill="black"/>
<path d="M109.084 53.084C108.886 52.6686 108.776 52.7667 106.873 51.4398C104.632 49.8752 98.6167 45.404 96.2113 43.9736C95.4187 43.5021 95.3742 43.4615 94.0542 43.6992C88.7259 44.6581 82.5583 45.9061 77.381 47.4913C77.3319 47.5066 77.3105 47.5656 77.3404 47.6078C77.7811 48.2333 77.7704 48.267 77.8478 48.2387C78.6665 47.9305 79.1839 47.8109 80.8228 47.3456C87.1583 45.5458 89.9999 45.3948 94.5893 44.4412C95.3673 44.2802 95.6425 44.5324 97.5574 45.8892C99.65 47.3725 99.9275 47.3694 102.868 49.6568C105.562 51.7532 107.276 52.7015 107.774 53.1683C87.6926 57.8957 87.7608 57.7692 87.9241 57.9455C88.4622 58.538 88.5358 58.6108 88.5834 58.6108C93.2593 57.5346 106.98 54.4477 108.879 53.6513C109.124 53.5486 109.212 53.3538 109.084 53.084Z" fill="black"/>
<path d="M106.746 25.6087C107.086 22.7993 107.044 23.3037 107.11 22.6874C107.148 22.3302 107.207 22.4337 104.94 23.0998C104.387 23.2623 104.102 22.9342 104.22 22.5977C104.411 22.0535 104.936 21.8565 105.737 21.5629C106.473 21.2931 106.814 21.3321 106.65 21.1459C106.636 21.129 105.96 20.4192 105.003 19.3261C104.745 19.0302 104.716 18.604 105.105 18.5465C105.295 18.5181 105.468 18.5695 105.613 18.6853C105.938 18.9436 106.263 19.2027 106.571 19.4802C107.185 20.0336 107.468 20.5089 107.517 20.213C107.774 18.6906 107.783 18.3533 108.382 15.711C108.446 15.4305 108.609 15.3009 108.83 15.2917C109.606 15.2595 109.242 16.3051 108.736 18.9796C108.409 20.7074 108.194 20.9404 108.578 20.8791C111.237 20.456 109.954 20.702 111.464 20.6354C111.507 20.6338 111.579 20.6706 111.592 20.7074C111.661 20.899 111.268 20.9849 109.122 21.7959C108.571 22.0044 109.364 22.0335 110.305 23.8426C110.381 23.9875 110.424 24.1454 110.29 24.2634C110.137 24.3991 109.971 24.3056 109.834 24.2098C108.553 23.3144 108.112 22.2497 107.983 22.8277C107.146 26.5547 107.278 26.6451 107.03 26.6474C106.823 26.6489 106.867 26.5807 106.746 25.611L106.746 25.6087Z" fill="black"/>
<path d="M16.446 44.4017C16.2958 42.8011 16.2528 42.4968 16.259 41.9595C16.2643 41.4919 16.8201 41.4382 17.0232 41.7579C17.5299 42.5535 17.3605 44.115 17.579 44.8141C18.0512 44.5903 18.9909 43.8045 20.6988 42.9414C20.7356 42.923 20.8023 42.9414 20.8422 42.9629C21.0706 43.1032 19.7721 44.2614 18.2911 45.6634C19.2577 46.2177 19.5705 46.3572 19.8234 46.6783C19.9928 46.8937 19.9767 47.2011 19.6617 47.1222C19.2792 47.0271 18.321 46.8217 17.8542 46.7113C17.6004 46.6515 17.6525 46.6178 17.7507 47.7661C17.95 50.0933 18.0174 50.1516 17.8089 50.2336C17.6817 50.2834 17.5475 50.2673 17.4747 50.1485C17.3666 49.9722 17.2509 49.7898 17.1995 49.5943C16.7158 47.7638 16.7886 47.4311 16.7358 47.2019C16.6591 46.8731 16.676 47.0241 15.0999 48.2099C14.9535 48.3203 14.3158 48.7833 14.0781 48.8308C13.7608 48.8952 13.5101 48.6438 13.6159 48.3387C13.829 47.7193 14.4882 47.2793 15.7461 46.2284C15.9884 46.026 15.7944 46.0789 14.5227 45.5055C13.2755 44.9436 13.8014 44.1265 14.3158 44.2783C14.9765 44.4737 15.6258 44.7045 16.2804 44.9206C16.4774 44.9858 16.446 45.0042 16.446 44.4002V44.4017Z" fill="black"/>
<path d="M49.8993 21.9747C50.0296 23.7823 47.4777 25.0908 45.7814 23.5569C44.8178 22.6861 44.8063 21.3017 45.6342 20.4002C47.0017 18.9116 49.9123 19.7211 49.8993 21.9747ZM48.9074 21.8812C48.8736 21.7494 48.846 21.6175 48.8054 21.4872C48.3961 20.1611 46.4038 20.3987 46.1432 21.5156C46.029 22.0031 46.1493 22.4592 46.5625 22.7827C47.1175 23.2173 47.6709 23.2449 48.2236 22.9528C48.6276 22.739 48.9112 22.3956 48.9081 21.8812H48.9074Z" fill="black"/>
<path d="M131.428 45.5851C129.229 45.4448 128.443 43.1298 129.778 41.9831C130.137 41.6741 130.444 41.6879 130.729 41.4173C131.078 41.087 133.075 41.3836 133.523 42.9297C133.966 44.4537 132.578 45.6594 131.427 45.5858L131.428 45.5851ZM131.031 42.4001C130.822 42.4054 130.632 42.3717 130.45 42.5503C129.951 43.0394 129.931 43.7239 130.459 44.1892C131.374 44.9941 132.462 44.3847 132.482 43.638C132.497 43.0938 132.137 42.6139 131.599 42.4897C131.412 42.4468 131.221 42.4277 131.03 42.3993L131.031 42.4001Z" fill="black"/>
<path d="M78.417 31.4175C78.4216 32.0752 77.8558 32.6647 77.1736 32.6478C76.4179 32.6294 75.9426 32.112 75.9265 31.419C75.912 30.7698 76.5359 30.1504 77.1568 30.1504C77.8597 30.1504 78.4116 30.7314 78.417 31.4175Z" fill="black"/>
</svg>
