<svg width="155" height="154" viewBox="0 0 155 154" fill="none" xmlns="http://www.w3.org/2000/svg">
<path d="M56.4339 38.0662C56.5106 38.2877 56.703 38.4932 56.956 38.4219C57.4358 38.287 57.6895 36.8827 57.4856 36.3523C57.1522 35.6861 56.0445 36.8589 56.4339 38.0662Z" fill="black"/>
<path d="M63.6362 40.1695C63.8174 39.7619 63.9042 39.3185 63.8899 38.8726C63.8915 38.8049 63.872 38.7384 63.8343 38.6823C63.7965 38.6261 63.7424 38.5829 63.6791 38.5588C63.6159 38.5346 63.5468 38.5305 63.4812 38.5472C63.4156 38.5639 63.3568 38.6004 63.3127 38.6518C63.126 38.8686 62.986 39.1217 62.9016 39.3951C62.8171 39.6685 62.7901 39.9565 62.8222 40.2408C62.8942 40.5927 63.3143 40.8134 63.6362 40.1695Z" fill="black"/>
<path d="M61.4387 45.3352C61.6077 45.2739 61.749 45.154 61.8369 44.9972C61.9248 44.8405 61.9535 44.6574 61.9178 44.4813C61.7599 43.6787 60.1663 40.9115 61.8588 37.9918C62.019 37.722 61.6081 37.4553 61.3889 37.7473C60.9615 38.3353 60.6563 39.003 60.4912 39.7109C60.3261 40.4188 60.3045 41.1525 60.4276 41.8689C60.7941 44.1302 61.2639 44.4751 61.0838 44.7112C60.9415 44.7802 60.7865 44.8191 60.6285 44.8254C60.2204 44.8311 59.8135 44.7795 59.4197 44.6721C59.3399 44.6642 59.2598 44.6836 59.1925 44.727C59.1251 44.7704 59.0744 44.8353 59.0486 44.9112C59.0229 44.9871 59.0235 45.0695 59.0505 45.1449C59.0775 45.2204 59.1293 45.2845 59.1974 45.3268C59.5429 45.5079 59.9269 45.6032 60.317 45.6046C60.7071 45.6061 61.0918 45.5137 61.4387 45.3352Z" fill="black"/>
<path d="M55.4555 46.2105C55.9331 46.1967 56.3846 45.8779 58.9348 46.5509C59.0031 46.5818 59.0803 46.5866 59.1519 46.5645C59.2235 46.5423 59.2845 46.4947 59.3234 46.4306C59.3623 46.3665 59.3763 46.2904 59.3629 46.2167C59.3495 46.143 59.3096 46.0767 59.2506 46.0304C58.0852 45.393 56.7374 45.1719 55.4295 45.4034C54.387 45.4026 54.4652 46.4758 55.4555 46.2105Z" fill="black"/>
<path d="M55.7783 35.6539C56.6144 35.1779 57.591 35.0106 58.5378 35.1809C58.6234 35.1802 58.7056 35.1475 58.7683 35.0894C58.8311 35.0312 58.8699 34.9517 58.8771 34.8664C58.8843 34.7811 58.8594 34.6962 58.8072 34.6284C58.7551 34.5605 58.6795 34.5145 58.5953 34.4995C58.0409 34.3733 57.4654 34.3722 56.9106 34.4965C56.3558 34.6207 55.8357 34.8671 55.3881 35.2177C55.0355 35.4898 55.5246 35.952 55.7783 35.6539Z" fill="black"/>
<path d="M63.6532 37.1579C63.9352 37.3991 64.1872 37.6735 64.4036 37.975C64.5963 38.2968 64.7526 38.639 64.8696 38.9953C64.8988 39.0574 64.9469 39.1086 65.0069 39.1417C65.067 39.1748 65.136 39.188 65.2041 39.1795C65.2721 39.171 65.3357 39.1412 65.3858 39.0943C65.4359 39.0475 65.4698 38.986 65.4829 38.9186C65.461 38.4457 65.2946 37.9909 65.0061 37.6155C64.7586 37.2129 64.4033 36.8876 63.9805 36.6765C63.917 36.6474 63.8453 36.6416 63.7781 36.6603C63.7108 36.679 63.6523 36.721 63.6131 36.7787C63.5738 36.8365 63.5563 36.9062 63.5636 36.9757C63.571 37.0451 63.6027 37.1097 63.6532 37.1579Z" fill="black"/>
<path d="M55.2794 104.116C55.2794 104.116 110.841 104.152 111.817 104.104C111.817 104.334 111.798 106.356 111.894 107.396C111.886 108.22 111.971 109.043 112.147 109.849C112.147 109.868 112.152 109.886 112.162 109.902C112.172 109.918 112.186 109.931 112.203 109.939C112.221 109.947 112.24 109.95 112.258 109.948C112.277 109.945 112.295 109.938 112.309 109.925C113.056 110.631 113.932 111.185 114.89 111.556C120.385 113.737 128.114 112.769 129.873 110.085C129.889 110.061 129.901 110.033 129.906 110.005C129.912 109.976 129.911 109.946 129.905 109.918C129.898 109.889 129.885 109.862 129.867 109.839C129.85 109.816 129.827 109.796 129.801 109.782C130.211 107.915 130.467 106.018 130.568 104.11C131.79 104.184 133.016 104.193 134.239 104.134C135.374 104.134 134.946 103.174 134.279 103.32C133.063 103.264 131.846 103.274 130.632 103.349C130.7 102.415 130.74 101.48 130.747 100.543C130.992 100.177 131.464 97.7392 130.009 97.2999C128.966 94.381 122.072 91.4436 121.129 93.9464C121.065 94.036 120.647 94.7558 120.607 94.8286C120.54 94.9642 120.495 95.1096 120.474 95.2594C120.171 95.1606 119.86 95.0678 119.533 94.9927C117.233 94.4561 115.196 94.7313 114.455 95.6228C114.232 95.5291 113.99 95.4892 113.749 95.5061C113.507 95.523 113.274 95.5963 113.066 95.7201C111.925 96.4867 112.082 96.3839 112.069 96.3916C111.267 96.9527 111.226 98.3371 111.965 100.081C111.865 101.185 111.822 102.292 111.816 103.401C107.34 103.203 60.468 103.442 60.4726 103.31C60.7884 98.2021 62.0869 93.2051 63.4621 88.3492C67.494 93.3316 72.4481 98.4061 78.9376 99.2477C82.73 99.6741 86.5674 99.0786 90.0523 97.523C93.3688 96.1257 96.4623 94.2492 99.2338 91.9534C102.356 89.3436 105.325 86.5554 108.126 83.6028C108.348 84.3535 108.791 85.0197 109.398 85.5145C110.607 86.3661 113.154 86.7318 114.331 85.0155C115.087 83.8774 115.399 82.5014 115.208 81.1484C115.217 80.9951 115.221 80.8364 115.217 80.68C115.758 80.2811 116.153 79.7159 116.342 79.0711C116.531 78.4262 116.504 77.7372 116.264 77.1095C115.661 75.7848 114.565 74.748 113.208 74.2205C110.426 72.9603 107.068 73.5068 105.435 75.1748L85.0476 82.4676C78.1894 71.6327 74.0264 57.6435 60.8145 51.9428C61.0352 51.3296 61.1257 50.5439 60.4971 50.3883V50.3706C61.7427 49.9663 62.8491 49.2193 63.6897 48.2152C64.8389 46.852 65.7463 45.3022 66.3726 43.6328C66.8325 42.398 66.6378 42.6233 66.8494 42.6233C67.0955 42.6111 67.3299 42.514 67.5125 42.3486C67.6952 42.1831 67.8149 41.9595 67.8512 41.7157C67.9584 41.7682 68.077 41.7933 68.1963 41.7885C68.3156 41.7838 68.4318 41.7495 68.5346 41.6887C68.6373 41.6278 68.7232 41.5424 68.7847 41.4401C68.8462 41.3378 68.8813 41.2218 68.8868 41.1025C69.0201 41.0805 69.1467 41.0288 69.2573 40.9513C69.3679 40.8738 69.4597 40.7724 69.5259 40.6547C69.5921 40.537 69.631 40.4059 69.6398 40.2712C69.6486 40.1364 69.627 40.0014 69.5767 39.8761C69.6671 39.861 69.7535 39.8279 69.8308 39.7787C69.9081 39.7294 69.9747 39.6651 70.0265 39.5895C70.0783 39.5139 70.1144 39.4286 70.1324 39.3388C70.1505 39.2489 70.1502 39.1564 70.1317 39.0666C70.3579 39.0085 70.5528 38.8649 70.6755 38.6661C70.7981 38.4673 70.8389 38.2286 70.7893 38.0004C70.8811 37.9675 70.9645 37.9149 71.0338 37.8464C71.103 37.7779 71.1564 37.695 71.1902 37.6036C71.2241 37.5122 71.2375 37.4145 71.2295 37.3174C71.2216 37.2203 71.1925 37.1261 71.1442 37.0414C71.4164 36.8352 71.7713 36.2879 71.6463 35.9606C71.7533 35.9397 71.8532 35.892 71.9367 35.8219C72.0202 35.7518 72.0845 35.6617 72.1236 35.56C72.1628 35.4582 72.1755 35.3482 72.1605 35.2403C72.1455 35.1323 72.1034 35.0299 72.038 34.9427C72.3087 34.8586 72.5427 34.6851 72.7018 34.4506C72.7578 34.367 72.7018 34.3241 72.4857 34.0267C72.6151 33.9965 72.7331 33.9299 72.8258 33.8348C72.9186 33.7397 72.9822 33.62 73.0091 33.4899C73.036 33.3598 73.0252 33.2247 72.9778 33.1006C72.9304 32.9765 72.8485 32.8685 72.7417 32.7895C72.8408 32.7174 72.9241 32.6258 72.9866 32.5203C73.0491 32.4149 73.0893 32.2978 73.105 32.1762C73.1206 32.0547 73.1113 31.9312 73.0776 31.8134C73.0438 31.6956 72.9864 31.5859 72.9088 31.491C72.9682 31.4407 73.016 31.3782 73.0492 31.3078C73.0824 31.2374 73.1001 31.1608 73.1011 31.083C73.1021 31.0051 73.0864 30.928 73.0551 30.8568C73.0238 30.7856 72.9776 30.7219 72.9195 30.67C72.997 30.5909 73.0575 30.4967 73.0973 30.3934C73.1371 30.29 73.1554 30.1796 73.151 30.069C73.1466 29.9583 73.1197 29.8497 73.0719 29.7498C73.024 29.6499 72.9563 29.5608 72.8728 29.488C72.975 29.4129 73.0576 29.3144 73.1138 29.2006C73.17 29.0869 73.198 28.9613 73.1955 28.8345C73.193 28.7077 73.1601 28.5834 73.0996 28.4719C73.039 28.3605 72.9525 28.2652 72.8475 28.1941C72.9181 28.106 72.9687 28.0036 72.9961 27.894C73.0234 27.7844 73.0268 27.6702 73.0059 27.5592C72.985 27.4481 72.9403 27.343 72.875 27.2508C72.8097 27.1586 72.7253 27.0817 72.6275 27.0252C72.6975 26.9416 72.7472 26.843 72.7726 26.7369C72.798 26.6309 72.7985 26.5204 72.7739 26.4142C72.7493 26.308 72.7003 26.2089 72.6309 26.1249C72.5614 26.0408 72.4734 25.974 72.3738 25.9298C72.4499 25.8358 72.501 25.7241 72.5221 25.605C72.5432 25.4859 72.5337 25.3633 72.4944 25.2489C72.4552 25.1345 72.3875 25.0319 72.2978 24.9508C72.208 24.8698 72.0991 24.8128 71.9813 24.7854C72.107 24.4512 71.7513 23.8931 71.4018 23.7345C71.4655 23.6488 71.5037 23.5469 71.512 23.4404C71.5202 23.334 71.4982 23.2274 71.4484 23.133C71.3986 23.0385 71.3231 22.9601 71.2306 22.9067C71.1382 22.8534 71.0325 22.8273 70.9258 22.8315C70.9653 22.7105 70.9702 22.5809 70.94 22.4572C70.9098 22.3336 70.8457 22.2208 70.7549 22.1317C70.6519 22.0552 70.5306 22.0074 70.4033 21.9932C70.2759 21.9789 70.147 21.9986 70.0297 22.0504C70.0264 21.9378 69.9998 21.8271 69.9514 21.7253C69.9031 21.6236 69.8342 21.5329 69.749 21.4592C69.6638 21.3855 69.5643 21.3303 69.4566 21.2971C69.349 21.2638 69.2356 21.2533 69.1237 21.2662C69.1549 21.1377 69.149 21.003 69.1068 20.8777C69.0646 20.7524 68.9877 20.6416 68.8851 20.5582C68.7825 20.4748 68.6584 20.4221 68.5271 20.4063C68.3958 20.3906 68.2627 20.4123 68.1433 20.469C68.1472 20.3186 68.1086 20.17 68.0318 20.0406C67.9549 19.9111 67.8431 19.806 67.7092 19.7373C67.5752 19.6687 67.4246 19.6393 67.2746 19.6525C67.1247 19.6657 66.9815 19.7211 66.8616 19.8121C66.8365 19.6894 66.7861 19.5733 66.7136 19.4712C66.6411 19.3691 66.5481 19.2831 66.4406 19.2189C66.3331 19.1547 66.2134 19.1135 66.0891 19.098C65.9649 19.0826 65.8387 19.0932 65.7187 19.1292C65.7008 19.0293 65.6616 18.9346 65.6037 18.8513C65.5458 18.7681 65.4707 18.6983 65.3833 18.6468C65.296 18.5953 65.1986 18.5632 65.0977 18.5528C64.9968 18.5424 64.8949 18.5539 64.7989 18.5864C64.7844 18.4527 64.7339 18.3254 64.6527 18.218C64.5715 18.1107 64.4627 18.0275 64.3379 17.9771C64.2132 17.9268 64.0771 17.9112 63.9441 17.9321C63.8112 17.953 63.6865 18.0096 63.5832 18.0959C63.5365 18.0009 63.4703 17.9169 63.389 17.8493C63.3076 17.7818 63.2129 17.7321 63.111 17.7037C63.0091 17.6752 62.9023 17.6686 62.7977 17.6843C62.6931 17.7 62.593 17.7376 62.5039 17.7946C62.4897 17.6618 62.4415 17.5348 62.364 17.426C62.2864 17.3172 62.1822 17.2302 62.0613 17.1733C61.9404 17.1165 61.8068 17.0917 61.6736 17.1015C61.5403 17.1112 61.4118 17.1551 61.3005 17.2289C61.1478 17.0452 60.9286 16.9293 60.6907 16.9066C60.4529 16.8839 60.2158 16.9563 60.0311 17.1078C59.9765 16.9969 59.8935 16.9024 59.7905 16.834C59.6875 16.7656 59.5682 16.7257 59.4448 16.7185C59.3213 16.7112 59.1982 16.7369 59.0879 16.7927C58.9776 16.8486 58.8841 16.9327 58.8169 17.0365C58.7629 16.9588 58.6916 16.8946 58.6087 16.8489C58.5257 16.8033 58.4333 16.7776 58.3387 16.7736C58.2441 16.7697 58.1499 16.7877 58.0634 16.8263C57.977 16.8648 57.9006 16.9229 57.8403 16.9959C57.7734 16.8915 57.6791 16.8075 57.5678 16.7529C57.4564 16.6984 57.3323 16.6754 57.2088 16.6864C57.0853 16.6975 56.9672 16.7422 56.8673 16.8157C56.7674 16.8891 56.6896 16.9886 56.6423 17.1032C56.5486 17.0323 56.4405 16.9829 56.3255 16.9585C56.2106 16.9341 56.0917 16.9354 55.9773 16.9621C55.8629 16.9889 55.7559 17.0406 55.6637 17.1135C55.5716 17.1863 55.4966 17.2786 55.4442 17.3838C55.3558 17.3161 55.2538 17.2684 55.1452 17.2441C55.0366 17.2199 54.9239 17.2195 54.8152 17.2432C54.7064 17.2668 54.6041 17.3138 54.5154 17.381C54.4266 17.4482 54.3536 17.5339 54.3013 17.6321C54.2123 17.5646 54.1092 17.5181 53.9997 17.4963C53.8902 17.4745 53.7772 17.4778 53.6691 17.5061C53.5611 17.5344 53.4609 17.5868 53.3762 17.6595C53.2914 17.7322 53.2243 17.8232 53.1798 17.9257C53.0821 17.8822 52.9767 17.8586 52.8698 17.8563C52.7629 17.854 52.6566 17.873 52.5571 17.9123C52.4576 17.9515 52.367 18.0102 52.2904 18.0849C52.2139 18.1596 52.153 18.2488 52.1113 18.3473C51.836 18.2836 51.547 18.3236 51.2993 18.4594C51.0516 18.5953 50.8626 18.8176 50.7683 19.0839C50.6925 19.068 50.6143 19.0672 50.5383 19.0818C50.4622 19.0963 50.3898 19.1259 50.3252 19.1687C50.2606 19.2115 50.2052 19.2667 50.1622 19.3311C50.1192 19.3955 50.0894 19.4678 50.0746 19.5438C49.8988 19.5454 49.7302 19.614 49.6033 19.7356C49.4763 19.8573 49.4006 20.0229 49.3916 20.1985C49.31 20.1878 49.227 20.194 49.1478 20.2168C49.0687 20.2395 48.995 20.2783 48.9315 20.3307C48.868 20.3831 48.8159 20.448 48.7785 20.5214C48.741 20.5948 48.7191 20.6751 48.714 20.7573C48.636 20.7414 48.5551 20.7454 48.479 20.769C48.4029 20.7925 48.334 20.8348 48.2785 20.892C48.223 20.9492 48.1828 21.0194 48.1615 21.0962C48.1402 21.1729 48.1386 21.2538 48.1568 21.3314C48.0806 21.3348 48.0062 21.3548 47.9386 21.3899C47.871 21.4251 47.8119 21.4746 47.7654 21.5349C47.7189 21.5953 47.6861 21.6651 47.6694 21.7394C47.6527 21.8138 47.6523 21.8908 47.6685 21.9653C47.5922 21.9671 47.5175 21.9877 47.451 22.0251C47.3844 22.0625 47.3281 22.1156 47.2869 22.1798C47.2456 22.244 47.2208 22.3174 47.2145 22.3935C47.2082 22.4695 47.2206 22.546 47.2507 22.6161C47.1596 22.6277 47.0719 22.6584 46.9935 22.7063C46.9151 22.7542 46.8478 22.8182 46.7959 22.894C46.7441 22.9699 46.7089 23.0558 46.6927 23.1463C46.6765 23.2367 46.6796 23.3295 46.7019 23.4187C46.601 23.4241 46.5035 23.457 46.4199 23.5137C46.3363 23.5704 46.2698 23.6489 46.2274 23.7406C46.1765 23.9296 46.1778 24.1288 46.2312 24.317C46.1299 24.3178 46.0323 24.3555 45.9568 24.4231C45.8813 24.4907 45.8331 24.5836 45.8211 24.6842C45.8066 24.8232 45.8288 24.9635 45.8855 25.0912C45.572 25.2031 45.457 25.8394 45.7445 26.1935C45.6473 26.2367 45.5604 26.3001 45.4895 26.3794C45.4186 26.4588 45.3653 26.5522 45.3333 26.6537C45.3012 26.7551 45.291 26.8622 45.3033 26.9678C45.3157 27.0735 45.3503 27.1754 45.4049 27.2666C45.2937 27.3005 45.1932 27.3629 45.1135 27.4475C45.0337 27.5322 44.9775 27.6362 44.9503 27.7493C44.9231 27.8623 44.9259 27.9805 44.9585 28.0922C44.991 28.2038 45.0522 28.305 45.1359 28.3858C45.0215 28.4351 44.9232 28.5156 44.8523 28.618C44.7813 28.7204 44.7406 28.8407 44.7347 28.9652C44.7288 29.0896 44.7579 29.2133 44.8188 29.322C44.8797 29.4307 44.9699 29.5201 45.0791 29.58C44.9879 29.635 44.9134 29.7139 44.8637 29.8081C44.814 29.9024 44.791 30.0084 44.7972 30.1147C44.8033 30.2211 44.8384 30.3237 44.8987 30.4116C44.9589 30.4995 45.042 30.5692 45.1389 30.6133C45.0535 30.6863 44.9843 30.7763 44.9356 30.8775C44.8869 30.9787 44.8598 31.089 44.8561 31.2012C44.8664 31.3099 44.9081 31.4133 44.9762 31.4986C45.0442 31.584 45.1357 31.6476 45.2393 31.6819C45.1605 31.7561 45.1127 31.8576 45.1057 31.9657C45.0988 32.0739 45.1331 32.1806 45.2018 32.2644C45.1727 32.2935 45.142 32.3227 45.1152 32.3518C44.4744 33.1919 44.0963 34.2026 44.0282 35.257C43.821 36.4053 44.039 37.5898 44.6415 38.5891C44.8898 38.9535 45.2205 39.2544 45.6066 39.4675C45.9928 39.6805 46.4236 39.7998 46.8644 39.8155C46.6137 40.3398 46.3945 40.8795 46.1975 41.4199C45.9944 41.9794 44.4 46.1723 44.3578 46.2935C44.1332 46.3525 34.1155 44.0705 23.4676 48.022C20.169 49.1961 17.2358 51.2146 14.9606 53.876C10.5301 59.349 10.4519 68.2254 12.0516 75.0169C9.89692 82.3403 8.03425 98.0895 8.32553 103.22C4.5519 103.22 4.72974 103.184 4.61016 103.304C4.56611 103.347 4.5359 103.402 4.52346 103.462C4.51101 103.522 4.5169 103.585 4.54035 103.641C4.5638 103.698 4.60374 103.746 4.655 103.78C4.70626 103.814 4.76647 103.832 4.82785 103.831C7.43022 103.806 -3.66455 104.039 55.2794 104.116ZM11.4967 80.8425C11.7726 79.3808 12.1099 77.9657 12.4303 76.4649C14.1504 82.5971 17.1307 87.9812 22.2105 91.856C26.7146 95.1644 32.1524 96.0175 37.0812 93.6283C40.9657 91.9133 44.2534 89.0831 46.5271 85.4969C52.3658 75.8907 53.7938 67.324 57.6418 54.1979C58.2157 54.1434 58.7707 53.9643 59.2681 53.673C59.7655 53.3817 60.1933 52.9853 60.5217 52.5116C73.2829 58.5281 76.4356 69.78 84.5225 83.1651C84.559 83.2277 84.6114 83.2795 84.6744 83.3151C84.7375 83.3508 84.8088 83.3692 84.8812 83.3682C84.9579 83.3682 83.8081 83.8067 104.743 76.287C103.912 77.9113 103.413 80.1442 105.196 81.399C105.756 81.7792 106.379 82.0576 107.036 82.2215C107.326 82.3113 107.621 82.3845 107.919 82.4407C107.924 82.5036 107.919 82.5665 107.927 82.6293C107.084 83.0356 100.108 91.8277 91.3347 96.0436C87.9545 97.7891 84.193 98.666 80.3894 98.5954C72.954 98.0166 68.6515 93.1883 63.6437 87.7106C65.4773 81.2794 67.7524 73.8648 67.5722 67.1454C67.5708 67.089 67.5486 67.0352 67.51 66.994C67.4715 66.9529 67.4191 66.9274 67.363 66.9223L67.2756 66.9139C67.2448 66.9112 67.2138 66.9147 67.1844 66.9242C67.1551 66.9337 67.1279 66.9491 67.1046 66.9693C67.0812 66.9896 67.0622 67.0143 67.0487 67.042C67.0351 67.0698 67.0273 67.1 67.0257 67.1308C66.2101 82.0153 60.5669 90.0846 59.6884 103.29C59.6884 103.307 59.6953 103.267 59.6976 103.283H9.06983C9.22567 95.7469 10.0377 88.2382 11.4967 80.8425ZM47.6386 39.5587C47.672 39.4922 47.6846 39.4171 47.6748 39.3433C47.6651 39.2694 47.6334 39.2002 47.5838 39.1446C47.5342 39.089 47.4691 39.0496 47.3969 39.0315C47.3246 39.0133 47.2486 39.0173 47.1787 39.0428C46.7992 39.118 46.4057 39.0722 46.0537 38.9118C45.7016 38.7515 45.4087 38.4847 45.2164 38.1491C44.7834 37.3964 44.6056 36.5238 44.7097 35.6617C44.7247 34.8433 44.9183 34.0381 45.2769 33.3023C45.8955 32.0605 46.7594 31.6995 47.8241 32.5979C48.2603 33.033 48.5859 33.5663 48.7738 34.153C48.9617 34.7398 49.0064 35.363 48.9041 35.9706C48.6266 37.3879 49.8669 37.4937 50.3115 36.9027C50.4535 37.0684 50.6534 37.1739 50.8704 37.1975C51.0874 37.2211 51.3053 37.1612 51.4797 37.0299C51.8032 36.6741 51.9879 36.2137 52.0001 35.733C52.1653 35.7659 52.3356 35.7628 52.4995 35.724C52.6634 35.6851 52.8169 35.6113 52.9497 35.5077C53.0825 35.4041 53.1914 35.2731 53.2689 35.1236C53.3465 34.9741 53.3909 34.8096 53.3991 34.6414C53.5893 34.7127 53.7992 34.7104 53.9879 34.6352C54.1765 34.5599 54.3304 34.417 54.4193 34.2344C54.527 33.9368 54.5604 33.6173 54.5167 33.3038C55.0218 33.3567 55.2548 32.394 55.2832 31.8904C55.4364 32.0285 55.6322 32.11 55.8382 32.1214C56.0441 32.1329 56.2478 32.0735 56.4154 31.9532C56.5687 31.8321 56.6962 31.6816 56.7905 31.5104C56.8847 31.3393 56.9438 31.151 56.9642 30.9567C57.0747 31.0509 57.2063 31.1169 57.3478 31.1493C57.4893 31.1817 57.6365 31.1794 57.7769 31.1427C57.9174 31.106 58.0468 31.0359 58.1544 30.9384C58.2619 30.8409 58.3443 30.7188 58.3945 30.5827C58.6337 30.8858 58.9693 31.0982 59.3456 31.1848C59.722 31.2714 60.1166 31.2269 60.4642 31.0587C60.5013 31.22 60.5848 31.367 60.7044 31.4815C60.8239 31.5961 60.9744 31.6732 61.1372 31.7033C61.4346 31.7498 61.7383 31.7373 62.031 31.6665C62.0334 31.7837 62.0693 31.8978 62.1345 31.9952C62.1997 32.0926 62.2915 32.1692 62.3989 32.2161C62.5063 32.263 62.6249 32.278 62.7407 32.2596C62.8564 32.2411 62.9645 32.1898 63.052 32.1119C63.12 32.2394 63.2138 32.3514 63.3274 32.4408C63.441 32.5302 63.5719 32.595 63.7118 32.6312C63.8517 32.6673 63.9976 32.6741 64.1403 32.6509C64.283 32.6278 64.4193 32.5752 64.5406 32.4967C64.5621 32.7685 64.6906 33.0206 64.8978 33.1978C65.105 33.375 65.3741 33.4628 65.6459 33.4418C65.6294 33.5774 65.6419 33.7149 65.6825 33.8453C65.7232 33.9757 65.791 34.096 65.8816 34.1983C65.9721 34.3005 66.0834 34.3823 66.2079 34.4384C66.3325 34.4944 66.4675 34.5234 66.6041 34.5234C66.5211 34.662 66.4763 34.8202 66.4743 34.9818C66.4722 35.1433 66.5131 35.3026 66.5926 35.4432C66.6845 35.561 66.8044 35.654 66.9413 35.7138C67.0782 35.7736 67.2279 35.7984 67.3767 35.7859C66.9375 39.6185 65.9203 43.8728 63.6208 46.9189C62.7791 48.2416 61.4692 49.1979 59.9529 49.5964C60.3244 48.8975 60.4454 48.0925 60.2955 47.3152C60.0503 46.541 59.1388 46.3494 58.6552 47.5092C58.1512 48.3707 57.4647 49.1114 56.6438 49.6792C56.1271 49.995 55.4503 50.2357 55.1107 49.9782C54.5428 49.4818 54.0354 48.9201 53.5991 48.3048C53.3546 47.9791 52.9016 47.3735 52.3574 47.674C51.761 48.0059 51.5241 49.5842 52.5559 51.0858C51.9074 52.2103 51.2145 53.3088 50.4863 54.3819C49.7958 54.2162 49.1334 53.9502 48.5201 53.5924C47.382 52.9387 46.4373 51.9955 45.7817 50.8586C45.1262 49.7216 44.7833 48.4314 44.7879 47.119C45.0385 46.8676 45.1596 46.4659 46.8376 41.8024C47.1505 41.0713 47.419 40.3221 47.6417 39.5587H47.6386ZM57.267 53.3517C55.8757 52.7212 54.5636 51.929 53.3577 50.9915C52.9424 50.4039 52.6791 49.7226 52.5911 49.0085C52.5911 48.6015 52.6785 48.3869 52.723 48.3631C52.7499 48.3629 52.7764 48.3701 52.7996 48.3838C53.5938 49.1503 53.5232 49.7589 54.8739 50.7163C55.3498 50.9087 55.8819 50.9087 56.3579 50.7163C57.4934 50.2115 58.4279 49.342 59.0131 48.2458C59.109 48.0802 59.2738 47.618 59.5068 47.6648C59.7398 47.7115 59.7682 48.1462 59.7268 48.3639C59.5008 49.0325 59.0758 49.6161 58.5088 50.0364C58.4478 50.0982 58.4069 50.1769 58.3915 50.2623C58.3761 50.3477 58.3868 50.4358 58.4222 50.515C58.4577 50.5942 58.5163 50.6609 58.5902 50.7062C58.6642 50.7516 58.7502 50.7735 58.8368 50.7692C59.0601 50.7339 59.2769 50.6654 59.48 50.5661C59.6838 50.4726 59.6946 50.5569 59.5842 50.8229C59.5648 50.895 59.5646 50.9709 59.5838 51.043C59.603 51.1151 59.6408 51.1809 59.6935 51.2338C59.7461 51.2867 59.8118 51.3248 59.8838 51.3443C59.9559 51.3638 60.0318 51.364 60.1039 51.3449C59.9108 51.9407 59.5302 52.458 59.0189 52.8197C58.5076 53.1813 57.893 53.368 57.267 53.3517ZM45.8656 52.3307C46.9371 53.6428 48.3845 54.5956 50.0133 55.061C49.6883 55.521 49.3561 55.9778 49.0168 56.4316C47.1586 55.8219 45.5635 54.5974 44.4943 52.96C43.3347 51.0751 42.7325 48.9004 42.7573 46.6875C43.1896 46.7334 43.6381 46.7899 44.1026 46.8569C44.0013 48.8356 44.6285 50.783 45.8656 52.3307ZM42.0759 46.6192C41.973 49.0457 42.615 51.4455 43.9156 53.4965C44.9862 55.1915 46.6116 56.4626 48.5147 57.0931C43.3836 63.6922 36.3629 68.6608 31.9577 76.3821C31.8258 71.2939 30.4806 66.3789 29.3185 61.5114C29.2932 61.4089 29.2282 61.3207 29.1379 61.2662C29.0475 61.2116 28.9392 61.1952 28.8367 61.2205C28.7343 61.2458 28.6461 61.3108 28.5915 61.4011C28.537 61.4915 28.5205 61.5998 28.5458 61.7023C29.7815 67.009 31.1712 72.3524 31.1099 77.9389C31.1112 78.0217 31.1375 78.1022 31.1854 78.1697C31.2332 78.2373 31.3004 78.2889 31.378 78.3176C31.4557 78.3464 31.5402 78.351 31.6205 78.3309C31.7008 78.3108 31.7732 78.2669 31.8281 78.2049C31.8688 78.1844 31.9026 78.1526 31.9256 78.1133C31.9486 78.074 31.9597 78.0289 31.9577 77.9834C37.0804 68.0445 47.0208 62.5286 53.1139 51.768C54.267 52.6437 55.5123 53.3907 56.8278 53.9956C53.8605 64.218 50.9922 78.1359 44.6491 86.7793C41.8972 90.2836 38.0746 92.7917 33.7644 93.9211C31.0367 94.5033 28.1925 94.1495 25.6905 92.9169C12.8511 87.1204 8.73716 65.7472 14.3666 56.1235C16.1179 53.2895 18.6631 51.0324 21.6862 49.6325C24.9342 48.092 28.4205 47.115 31.996 46.7434C35.3416 46.3385 38.7213 46.2969 42.0759 46.6192ZM115.106 79.6674C115.061 79.4413 115.002 79.2183 114.928 78.9998C114.779 78.2528 114.443 77.5557 113.953 76.9731C113.886 76.9092 113.799 76.8721 113.707 76.8687C113.615 76.8654 113.525 76.896 113.454 76.9549C113.383 77.0137 113.337 77.0965 113.323 77.1876C113.31 77.2786 113.33 77.3715 113.381 77.4483C114.006 78.3902 114.365 79.4839 114.42 80.6133V80.6225C114.51 82.2844 113.525 82.7175 113.477 81.2043C113.46 80.5759 113.289 79.9613 112.978 79.4147C112.667 78.8682 112.227 78.4066 111.695 78.0708C111.182 77.7506 110.585 77.5894 109.98 77.6072C109.375 77.6251 108.789 77.8213 108.295 78.1712C107.492 78.6863 106.701 79.6276 107.251 80.411C107.459 80.6405 107.723 80.8118 108.017 80.9077C107.972 81.1416 107.941 81.3782 107.925 81.616C107.719 81.5876 107.517 81.5362 107.322 81.4627C106.64 81.3374 105.999 81.048 105.453 80.6195C105.109 80.2626 104.884 79.8071 104.81 79.3164C104.184 75.9099 108.263 73.1335 112.399 74.7624C113.626 75.1573 114.672 75.976 115.351 77.072C115.569 77.4809 115.663 77.9451 115.619 78.4066C115.575 78.8682 115.397 79.3067 115.106 79.6674ZM107.843 79.8161C107.862 79.6872 107.918 79.5665 108.004 79.4689C108.263 79.1068 108.613 78.8191 109.018 78.6349C108.625 79.0604 108.348 79.5795 108.213 80.1427C107.995 80.0354 107.882 79.9725 107.843 79.8161ZM112.164 79.5233C112.56 80.1726 112.757 80.9239 112.731 81.6842C112.497 81.6928 112.265 81.6523 112.048 81.5654C111.874 81.4499 111.741 81.2825 111.667 81.0869C111.594 80.8912 111.585 80.6775 111.64 80.4761C111.659 80.2904 111.716 80.1104 111.805 79.9468C111.895 79.7832 112.017 79.6392 112.164 79.5233ZM110.465 84.6675C109.787 83.7636 109.464 82.6427 109.557 81.5168C109.65 80.3909 110.153 79.3381 110.969 78.5575C111.213 78.6592 111.44 78.7955 111.644 78.9622C111.414 79.1351 111.224 79.3552 111.087 79.6078C110.949 79.8604 110.868 80.1395 110.847 80.4263C110.773 80.848 110.861 81.2822 111.093 81.6423C111.324 82.0024 111.683 82.262 112.098 82.3695C112.527 82.453 112.941 82.3771 113.085 82.7144C113.135 82.8714 113.152 83.0369 113.136 83.2009C113.12 83.3649 113.07 83.5238 112.991 83.668C112.941 83.8203 112.848 83.9552 112.724 84.0569C112.601 84.1586 112.45 84.2228 112.291 84.2421C112.132 84.2614 111.971 84.235 111.826 84.1659C111.681 84.0968 111.559 83.9879 111.475 83.8519C111.425 83.7689 111.346 83.7078 111.253 83.6808C111.16 83.6538 111.06 83.6629 110.974 83.7064C110.887 83.7499 110.82 83.8244 110.786 83.9151C110.753 84.0058 110.755 84.1059 110.792 84.1953C110.912 84.4793 111.12 84.717 111.386 84.8734C111.652 85.0297 111.961 85.0965 112.268 85.0638C112.276 85.2332 112.284 85.3175 112.436 85.4088C112.289 85.4467 112.137 85.4681 111.984 85.4724C111.689 85.4502 111.402 85.3672 111.141 85.2287C110.879 85.0902 110.649 84.8991 110.465 84.6675ZM112.948 84.8208C113.27 84.619 113.53 84.3313 113.698 83.9899C113.866 83.6486 113.936 83.2671 113.899 82.8884C114.074 82.8713 114.242 82.8124 114.389 82.7167C114.356 83.2137 114.209 83.6964 113.959 84.1268C113.708 84.5572 113.361 84.9236 112.945 85.1972C112.952 85.1619 112.948 84.8599 112.948 84.8224V84.8208ZM127.2 100.128C127.616 100.635 127.977 101.185 128.278 101.767C127.313 102.22 126.281 102.515 125.222 102.639C125.171 102.562 123.335 100.601 123.104 98.7648C123.027 98.1953 123.136 97.6916 123.717 97.7001L123.734 97.7054C124.886 97.707 126.453 99.2155 127.2 100.13V100.128ZM121.738 100.837C122.023 101.533 122.393 102.191 122.84 102.797C122.555 102.797 122.279 102.797 122.008 102.791C120.956 102.556 119.967 102.095 119.111 101.438C119.062 101.233 118.996 101.034 118.931 100.834C119.858 101.013 120.81 101.015 121.738 100.838V100.837ZM130.061 100.416C129.734 100.79 129.357 101.116 128.94 101.384C128.567 100.658 128.103 99.9821 127.56 99.3726C127.999 98.8736 129.073 97.8595 129.713 98.0036C130.681 98.1439 130.002 100.191 130.061 100.417V100.416ZM126.355 94.8126C127.251 95.2827 128.057 95.907 128.736 96.6568C128.005 96.5426 127.076 97.024 126.137 98.0151C125.485 97.4539 124.694 97.0798 123.847 96.9328C123.049 96.3862 121.444 94.9222 121.854 94.1533C122.208 93.5056 124.208 93.6505 126.355 94.8141V94.8126ZM122.692 97.3337C122.194 97.8702 121.527 97.8848 121.412 98.9763C120.169 99.0838 118.918 98.927 117.74 98.5164C117.078 97.4944 116.208 96.6229 115.187 95.9585C116.556 94.9191 121.071 95.6764 122.692 97.3383V97.3337ZM114.03 96.2881C114.777 96.4353 115.999 97.3666 117.181 99.0476C117.906 100.059 118.362 101.238 118.504 102.474C117.417 102.296 116.344 102.037 115.296 101.7C114.299 100.684 112.834 97.94 113.28 96.6791C113.298 96.6014 113.333 96.5287 113.383 96.4658C113.432 96.4028 113.494 96.3512 113.565 96.3143C113.636 96.2774 113.713 96.2561 113.793 96.2518C113.873 96.2476 113.953 96.2605 114.027 96.2896L114.03 96.2881Z" fill="black"/>
<path d="M150.425 135.8C150.425 135.8 91.7726 108.861 91.4667 108.75C90.8798 108.668 90.2845 108.668 89.6976 108.75C89.6976 108.75 81.2489 108.956 80.1098 108.974C78.0693 106.836 70.9467 106.811 70.1311 109.196C52.5155 109.367 31.429 109.371 31.3447 109.421C31.287 109.441 31.2363 109.477 31.1986 109.525C31.1609 109.573 31.1379 109.631 31.1322 109.692C31.1266 109.752 31.1385 109.813 31.1667 109.868C31.1949 109.922 31.238 109.967 31.291 109.997L75.3573 137.249C75.6417 137.454 75.9908 137.547 76.3393 137.513C113.176 136.991 150.102 136.47 150.276 136.47C150.355 136.468 150.431 136.44 150.493 136.39C150.554 136.34 150.597 136.271 150.614 136.194C150.631 136.117 150.622 136.036 150.588 135.964C150.554 135.893 150.496 135.835 150.425 135.8ZM75.9621 136.815L64.2917 129.647C66.3468 129.638 77.5327 129.404 79.0589 129.378C85.8534 133.415 88.5854 135.055 91.4223 136.608C91.3418 136.608 76.2128 136.838 75.9621 136.815ZM46.3372 109.97C46.4216 110.089 47.5637 110.637 54.6878 114.849C47.6358 114.935 45.4327 114.849 40.6143 115.01C40.53 115.01 41.3487 115.499 32.4423 110.014C37.2631 110.012 41.873 109.997 46.3372 109.97ZM70.066 109.681C70.0798 109.902 70.0276 110.724 70.0215 110.801C69.9073 113.133 75.5827 114.215 78.7508 113.084C79.8569 112.69 80.4877 112.081 80.5268 111.376C80.5268 111.35 80.5375 111.07 80.5452 110.791C80.7177 110.894 84.5841 112.839 84.8454 112.979C83.1422 113.137 81.8146 113.652 81.1952 114.386C79.3709 114.386 73.7599 114.509 73.4617 114.515C70.6493 112.913 67.866 111.306 64.9708 109.763C66.669 109.738 68.3673 109.71 70.066 109.679V109.681ZM41.3977 115.53C44.8693 115.635 47.2525 115.584 55.8146 115.517C57.3278 116.413 64.2656 120.55 65.4223 121.24C53.6714 121.676 53.1578 121.688 51.6355 121.833L41.3977 115.53ZM63.9674 109.781C66.5277 111.357 69.1875 112.88 72.0658 114.545C71.9248 114.545 59.7837 114.782 56.007 114.831C53.0888 113.127 50.1914 111.423 47.3943 109.963C52.3882 109.931 63.2707 109.792 63.9682 109.781L63.9674 109.781ZM90.3614 114.546C92.0409 115.358 92.1719 116.386 90.1038 117.08C87.3543 117.994 83.2963 117.318 81.9633 116.053C81.8518 115.964 81.7598 115.854 81.6929 115.728C81.6261 115.602 81.5858 115.464 81.5747 115.322C81.6199 114.502 83.4143 113.692 86.0129 113.692C87.5069 113.665 88.9895 113.956 90.3622 114.547L90.3614 114.546ZM57.1607 115.505C57.1607 115.505 68.454 115.343 73.2578 115.236C73.2693 115.242 79.2751 118.749 81.4313 119.954C79.6775 119.828 77.3043 120.009 75.9192 120.991C74.5476 120.925 73.1733 120.936 71.8029 121.026C71.8029 121.026 67.0159 121.179 66.7699 121.188C63.611 119.309 60.387 117.396 57.1607 115.505ZM80.8288 115.582C80.8196 115.767 80.7759 116.585 80.7698 116.682C80.6702 118.188 83.1123 119.466 86.39 119.651C87.7424 119.749 89.1011 119.586 90.3921 119.171C91.6016 118.74 92.2915 118.078 92.3337 117.314C92.3337 117.287 92.3436 117.021 92.3513 116.741C94.7904 118.168 97.2042 119.348 99.6824 120.636C84.8631 120.668 85.5016 120.749 85.3728 120.904C84.6494 120.565 83.8852 120.32 83.0993 120.177C83.0418 120.033 82.0767 119.41 74.6789 115.208C76.7647 115.169 78.8182 115.139 80.8503 115.029C80.8029 115.209 80.7956 115.398 80.8288 115.582ZM80.9507 124.661C79.637 124.616 78.3441 124.32 77.141 123.79C76.6045 123.525 75.7697 122.998 75.8019 122.397C75.8525 121.459 78.0823 120.534 81.183 120.699C82.6708 120.78 85.9516 121.417 86.3187 122.752C86.7165 124.19 83.0433 124.772 80.9507 124.662V124.661ZM75.2906 121.622C75.0778 121.926 74.9936 122.301 75.0561 122.667C75.0469 122.85 75.0009 123.718 74.994 123.816C74.8231 126.389 81.288 127.73 85.0164 126.399C86.2727 125.951 86.9887 125.265 87.0331 124.474C87.0331 124.424 87.0584 123.605 87.0669 123.294C87.084 123.225 87.0958 123.155 87.1021 123.084C90.1268 124.946 93.2252 126.756 96.3005 128.523C91.2858 128.559 79.5089 128.736 79.5089 128.736C77.6439 127.634 69.9211 123.058 67.925 121.871C74.206 121.665 73.9216 121.75 75.2906 121.623V121.622ZM87.0393 122.491C86.8655 122.032 86.5528 121.639 86.1447 121.367C87.109 121.391 101.062 121.358 101.062 121.358L114.637 128.479C113.458 128.479 101.027 128.495 97.7791 128.515C97.5446 128.383 87.3014 122.587 87.0393 122.492V122.491ZM116.191 128.479C111.629 126.089 107.052 123.703 102.534 121.358C115.159 121.364 116.759 121.402 117.052 121.297C117.16 121.256 116.189 120.843 133.109 128.603C127.473 128.507 121.791 128.481 116.191 128.479V128.479ZM101.137 120.633C94.1228 117.02 93.9994 116.887 92.3674 116.183C92.4252 115.934 92.4194 115.674 92.3504 115.428C92.2814 115.182 92.1515 114.957 91.9726 114.775C92.0493 114.775 102.445 114.871 102.73 114.671L115.784 120.658C114.042 120.576 114.158 120.624 101.137 120.634V120.633ZM91.3786 114.253C89.8333 113.362 88.0757 112.905 86.2919 112.93C85.8472 112.625 85.3747 112.363 84.8807 112.147C80.8104 110.104 81.2558 110.264 80.5927 110.027C80.5923 109.879 80.5664 109.732 80.5161 109.592C81.8 109.569 88.0833 109.475 89.9789 109.433C90.4957 109.343 91.0266 109.377 91.5273 109.534L101.4 114.062C101.324 114.061 92.7422 114.103 91.3786 114.254V114.253ZM66.5583 121.919C67.689 122.595 75.3136 127.152 78.0302 128.768C68.3635 128.961 66.3521 128.968 63.519 129.147C63.4424 129.152 64.1606 129.568 52.5262 122.383C53.6959 122.375 53.2391 122.366 66.5583 121.918V121.919ZM92.8342 136.585C91.0674 135.511 81.7625 130.069 80.5467 129.353C84.8278 129.283 96.0682 129.185 97.4349 129.178C98.3333 129.693 108.346 135.426 109.991 136.336L92.8342 136.585ZM111.331 136.317C111.154 136.087 99.1719 129.303 98.9396 129.171C104.1 129.152 109.677 129.158 115.989 129.188C115.989 129.188 127.653 135.308 129.162 136.059L111.331 136.317ZM130.494 136.04C126.287 133.647 121.971 131.496 117.567 129.195C119.519 129.205 134.383 129.316 134.514 129.247L148.705 135.777L130.494 136.04ZM72.0842 108.55C74.2651 107.907 76.6008 108.034 78.6994 108.909C79.4337 109.265 80.1719 109.839 79.6399 110.453C79.108 111.067 77.3986 111.593 75.2278 111.48C73.9891 111.416 71.5592 110.98 70.9352 109.922C70.5611 109.27 71.3721 108.802 72.0796 108.551L72.0842 108.55Z" fill="black"/>
<path d="M72.534 109.387L72.8598 109.45C72.8859 109.605 72.9573 109.749 73.0649 109.863C73.1726 109.977 73.3116 110.057 73.4646 110.092C74.622 110.495 75.9681 109.53 77.2275 109.84C77.3954 109.866 77.5537 109.935 77.6874 110.041C77.5089 110.24 77.272 110.378 77.0105 110.435C76.7489 110.492 76.4761 110.464 76.231 110.357C76.1387 110.315 76.0332 110.31 75.9379 110.345C75.8425 110.381 75.765 110.452 75.7224 110.545C75.6798 110.637 75.6756 110.742 75.7108 110.838C75.7459 110.933 75.8175 111.011 75.9098 111.053C76.2901 111.219 76.7112 111.267 77.1193 111.193C77.5274 111.118 77.904 110.923 78.201 110.634C78.2416 110.639 78.6609 110.697 78.7023 110.697C78.8039 110.703 78.904 110.669 78.9805 110.602C79.0569 110.534 79.1036 110.44 79.1101 110.338C79.1166 110.236 79.0824 110.136 79.0151 110.06C78.9479 109.983 78.853 109.937 78.7513 109.93L78.4401 109.886C78.3566 109.51 78.0116 109.24 77.4145 109.093C75.8998 108.718 74.4404 109.732 73.6485 109.336C73.7137 109.265 73.7927 109.209 73.8807 109.17C73.9687 109.132 74.0637 109.112 74.1598 109.111C74.2597 109.13 74.363 109.109 74.447 109.051C74.5309 108.994 74.5887 108.906 74.6075 108.806C74.6263 108.706 74.6046 108.602 74.5472 108.518C74.4899 108.435 74.4015 108.377 74.3016 108.358C74.0988 108.333 73.8929 108.353 73.6989 108.417C73.5048 108.481 73.3274 108.587 73.1794 108.728L72.6827 108.632C72.5829 108.612 72.4794 108.633 72.3951 108.69C72.3108 108.747 72.2525 108.835 72.2331 108.935C72.2137 109.035 72.2347 109.138 72.2916 109.222C72.3485 109.307 72.4365 109.365 72.5363 109.384L72.534 109.387Z" fill="black"/>
<path d="M83.5221 115.072L83.9115 115.149C83.9337 115.319 84.0078 115.478 84.1237 115.605C84.2395 115.732 84.3916 115.82 84.5592 115.857C85.8156 116.295 87.3302 115.232 88.7276 115.576C89.1485 115.68 89.2642 115.814 89.2696 115.842C89.2696 115.855 89.2389 115.954 89.0603 116.079C88.8462 116.222 88.6004 116.31 88.3444 116.336C88.0883 116.361 87.8299 116.324 87.5916 116.227C87.4993 116.185 87.3939 116.18 87.2985 116.215C87.2031 116.251 87.1256 116.322 87.083 116.415C87.0404 116.507 87.0363 116.612 87.0714 116.708C87.1066 116.803 87.1782 116.881 87.2705 116.923C87.6876 117.105 88.1498 117.157 88.5971 117.074C89.0444 116.99 89.4562 116.774 89.7793 116.453C89.8215 116.459 90.3074 116.525 90.3496 116.525C90.4513 116.531 90.5513 116.497 90.6278 116.43C90.7043 116.362 90.7509 116.267 90.7574 116.166C90.7639 116.064 90.7298 115.964 90.6625 115.888C90.5952 115.811 90.5003 115.764 90.3987 115.758L90.02 115.709C89.9326 115.195 89.4144 114.953 88.9116 114.829C88.0912 114.677 87.2458 114.734 86.4533 114.995C85.9289 115.191 85.3606 115.237 84.8114 115.129C84.7394 115.105 84.6995 115.081 84.6826 115.077C84.7564 114.978 84.8531 114.899 84.9645 114.845C85.0758 114.792 85.1985 114.766 85.3219 114.771C85.422 114.789 85.5253 114.767 85.6091 114.71C85.693 114.652 85.7506 114.564 85.7692 114.464C85.7878 114.364 85.7659 114.26 85.7083 114.176C85.6508 114.093 85.5622 114.035 85.4622 114.016C85.2398 113.99 85.0142 114.013 84.8019 114.085C84.5897 114.156 84.3962 114.275 84.2358 114.431L83.6647 114.321C83.6145 114.309 83.5624 114.307 83.5115 114.316C83.4607 114.325 83.4122 114.344 83.3689 114.372C83.3255 114.4 83.2883 114.437 83.2595 114.479C83.2306 114.522 83.2106 114.57 83.2008 114.621C83.191 114.672 83.1915 114.724 83.2024 114.774C83.2132 114.825 83.2341 114.872 83.2638 114.915C83.2935 114.957 83.3314 114.993 83.3753 115.02C83.4192 115.047 83.4681 115.065 83.5191 115.073L83.5221 115.072Z" fill="black"/>
<path d="M85.0277 122.871L84.6184 122.818C84.5318 122.281 84.0006 122.031 83.4732 121.898C81.7447 121.469 80.24 122.577 79.1906 122.211C79.094 122.178 79.048 122.147 79.0373 122.155C79.1135 122.042 79.2171 121.951 79.3384 121.889C79.4598 121.827 79.5948 121.797 79.731 121.801C79.8309 121.82 79.9342 121.798 80.0182 121.741C80.1021 121.684 80.1599 121.595 80.1787 121.495C80.1975 121.395 80.1758 121.292 80.1184 121.208C80.0611 121.124 79.9727 121.067 79.8728 121.048C79.6428 121.022 79.41 121.047 79.1911 121.122C78.9722 121.198 78.7728 121.321 78.6073 121.482L77.9986 121.364C77.8988 121.345 77.7954 121.366 77.7112 121.423C77.6269 121.48 77.5688 121.568 77.5495 121.668C77.5301 121.768 77.5513 121.871 77.6082 121.955C77.6651 122.04 77.7532 122.098 77.853 122.117L78.2731 122.198C78.293 122.375 78.3677 122.541 78.4869 122.674C78.6061 122.806 78.7637 122.898 78.9376 122.936C80.2515 123.396 81.8221 122.28 83.2885 122.641C83.7323 122.752 83.8572 122.891 83.8664 122.931C83.871 122.951 83.8396 123.041 83.6993 123.153C83.4705 123.321 83.2023 123.428 82.9205 123.463C82.6387 123.498 82.3527 123.46 82.0896 123.353C81.9973 123.311 81.8919 123.307 81.7965 123.342C81.7011 123.377 81.6236 123.449 81.581 123.541C81.5384 123.633 81.5343 123.739 81.5694 123.834C81.6045 123.929 81.6761 124.007 81.7684 124.049C82.2022 124.239 82.6828 124.293 83.1477 124.204C83.6125 124.116 84.0401 123.89 84.3747 123.556C84.4168 123.561 84.9334 123.632 84.9756 123.632C85.0259 123.636 85.0764 123.629 85.1242 123.613C85.1719 123.597 85.216 123.571 85.2539 123.538C85.2918 123.505 85.3228 123.464 85.3451 123.419C85.3674 123.374 85.3805 123.324 85.3838 123.274C85.3871 123.224 85.3804 123.173 85.3641 123.126C85.3479 123.078 85.3224 123.034 85.2891 122.996C85.2559 122.958 85.2155 122.927 85.1702 122.905C85.125 122.882 85.0758 122.869 85.0254 122.866L85.0277 122.871Z" fill="black"/>
</svg>
