<svg width="154" height="154" viewBox="0 0 154 154" fill="none" xmlns="http://www.w3.org/2000/svg">
<path d="M131.16 126.926C128.233 127.868 125.148 128.217 122.085 127.953C119.149 127.769 115.837 127.693 113.423 125.799C113.423 125.761 113.331 125.799 113.369 125.853C115.669 127.731 118.735 127.892 121.586 128.107C124.729 128.344 128.309 128.49 131.214 127.049C131.275 127.011 131.229 126.926 131.16 126.926ZM128.393 104.222C128.393 104.122 128.225 104.091 128.209 104.222C128.079 104.988 126.163 105.371 125.519 105.54C123.705 106.004 121.825 106.152 119.961 105.977C119.072 105.9 116.474 105.893 116.489 104.444C116.489 104.444 116.428 104.398 116.412 104.444C116.213 105.371 117.095 105.732 117.853 105.893C120.619 106.475 123.485 106.37 126.201 105.586C126.822 105.371 128.416 105.049 128.393 104.222ZM71.3327 52.9713C70.9341 52.9713 70.6121 53.6535 70.6121 54.5044C70.6121 55.3552 70.9341 56.0374 71.3327 56.0374C71.7313 56.0374 72.0455 55.3552 72.0455 54.5044C72.0455 53.6535 71.7236 52.9713 71.3327 52.9713ZM55.5421 64.9292C55.2125 64.7989 54.7756 65.1055 54.5686 65.3355C54.0091 65.9793 54.6376 66.7382 55.3888 66.0177C55.6188 65.7954 55.9867 65.1055 55.5421 64.9292ZM55.4578 65.5118C55.3812 65.826 54.9059 66.1326 54.7373 66.0483C54.354 65.872 54.8829 65.1592 55.2892 65.1438C55.4961 65.1285 55.4961 65.3278 55.4961 65.5118H55.4578ZM57.1365 109.649C57.3818 111.504 59.3825 112.416 60.9692 112.998C63.552 113.928 66.1982 114.671 68.8874 115.221C75.9885 116.854 83.3961 116.568 90.3503 114.393C92.0302 113.846 93.6366 113.094 95.1334 112.155C96.2219 111.458 97.6247 110.499 97.433 109.028C97.433 108.905 97.2184 108.89 97.2184 109.028C97.2184 110.745 95.3481 111.757 94.0296 112.485C90.197 114.631 84.8313 115.704 80.4391 115.957C74.3068 116.302 68.4658 115.083 62.6479 113.374C60.7392 112.814 57.6194 111.941 57.2362 109.626C57.2132 109.587 57.1289 109.595 57.1365 109.649ZM77.6335 102.244C83.6585 102.635 90.4193 102.75 95.5627 99.0781C95.739 98.9555 95.5627 98.6565 95.3941 98.7868C90.4806 102.328 84.1107 102.321 78.3158 102.006C74.9979 101.864 71.6991 101.428 68.4582 100.703C65.5224 100.013 61.7357 99.1701 59.8577 96.5946C59.8577 96.5409 59.7351 96.5946 59.7734 96.6406C61.4368 99.0245 64.5719 99.8983 67.2317 100.627C70.636 101.513 74.1208 102.055 77.6335 102.244ZM89.99 36.9815C90.3288 36.9061 90.638 36.7329 90.8792 36.4832C90.8487 36.6824 90.7893 36.8761 90.7029 37.0581C90.7029 37.1271 90.7719 37.1961 90.8255 37.1501C90.9475 37.0346 91.034 36.8867 91.0747 36.7238C91.1155 36.5608 91.1088 36.3896 91.0555 36.2303C91.0498 36.2113 91.0382 36.1947 91.0223 36.1828C91.0064 36.171 90.9872 36.1646 90.9674 36.1646C90.9475 36.1646 90.9283 36.171 90.9124 36.1828C90.8965 36.1947 90.8849 36.2113 90.8792 36.2303C90.7837 36.4027 90.6543 36.554 90.4989 36.6751C90.3435 36.7963 90.1652 36.8849 89.9747 36.9355C89.9287 36.9278 89.944 36.9968 89.99 36.9815ZM89.944 34.6589C90.005 34.3719 90.0231 34.0774 89.9977 33.7851C89.9977 33.7546 89.9856 33.7253 89.964 33.7038C89.9424 33.6822 89.9132 33.6701 89.8827 33.6701C89.8522 33.6701 89.823 33.6822 89.8014 33.7038C89.7798 33.7253 89.7677 33.7546 89.7677 33.7851C89.7437 34.0771 89.7592 34.371 89.8137 34.6589C89.8206 34.67 89.8302 34.6791 89.8416 34.6855C89.853 34.6918 89.8658 34.6952 89.8789 34.6952C89.8919 34.6952 89.9048 34.6918 89.9162 34.6855C89.9276 34.6791 89.9372 34.67 89.944 34.6589ZM87.1462 33.4478C87.0859 33.6997 87.0859 33.9624 87.1462 34.2143C87.1512 34.2296 87.161 34.243 87.1741 34.2525C87.1871 34.2619 87.2029 34.267 87.219 34.267C87.2352 34.267 87.2509 34.2619 87.264 34.2525C87.277 34.243 87.2868 34.2296 87.2918 34.2143C87.3567 33.9629 87.3567 33.6992 87.2918 33.4478C87.2918 33.4095 87.1615 33.4095 87.1462 33.4478ZM87.8821 32.4743C87.7441 32.0987 87.1155 32.1983 87.0159 32.5586C87.1162 32.4596 87.2486 32.3998 87.3892 32.39C87.5298 32.3801 87.6693 32.4209 87.7824 32.5049C87.7865 32.5182 87.7956 32.5292 87.8078 32.5357C87.8201 32.5422 87.8344 32.5435 87.8476 32.5394C87.8608 32.5354 87.8718 32.5262 87.8783 32.514C87.8848 32.5018 87.8861 32.4875 87.8821 32.4743ZM89.898 32.6889C90.0212 32.6854 90.1437 32.7082 90.2574 32.7557C90.3711 32.8033 90.4733 32.8746 90.5573 32.9649C90.5573 32.9649 90.6492 32.9649 90.6416 32.9189C90.6416 32.5893 90.1203 32.5203 89.875 32.5969C89.869 32.5984 89.8633 32.6011 89.8583 32.6048C89.8533 32.6085 89.8491 32.6132 89.8459 32.6185C89.8427 32.6239 89.8406 32.6298 89.8396 32.6359C89.8387 32.6421 89.839 32.6484 89.8405 32.6544C89.8421 32.6605 89.8447 32.6661 89.8484 32.6711C89.8522 32.6761 89.8568 32.6804 89.8622 32.6836C89.8675 32.6868 89.8734 32.6889 89.8796 32.6898C89.8857 32.6907 89.892 32.6904 89.898 32.6889ZM88.5796 35.4714C88.5938 35.4714 88.6075 35.4658 88.6175 35.4557C88.6276 35.4456 88.6333 35.432 88.6333 35.4178C88.6333 35.4035 88.6276 35.3899 88.6175 35.3798C88.6075 35.3698 88.5938 35.3641 88.5796 35.3641C88.3143 35.2851 88.0575 35.1799 87.8131 35.0498C88.2068 34.6574 88.4416 34.1332 88.4723 33.5781H88.388C88.3751 33.8569 88.2995 34.1292 88.1668 34.3747C88.0341 34.6203 87.8477 34.8327 87.6214 34.9962C87.6087 35.0036 87.5982 35.0142 87.5908 35.027C87.5835 35.0398 87.5796 35.0543 87.5796 35.069C87.5796 35.0837 87.5835 35.0982 87.5908 35.111C87.5982 35.1238 87.6087 35.1344 87.6214 35.1418C87.7513 35.2576 87.9029 35.3464 88.0674 35.4029C88.2319 35.4595 88.406 35.4828 88.5796 35.4714ZM90.9482 16.4001C90.961 16.4148 90.9781 16.4251 90.9971 16.4294C91.016 16.4338 91.0359 16.432 91.0538 16.4243C91.0717 16.4166 91.0867 16.4035 91.0967 16.3867C91.1066 16.37 91.111 16.3505 91.1092 16.3312C90.8463 15.2742 90.4028 14.2707 89.7984 13.3647C89.7984 13.3545 89.7943 13.3448 89.7872 13.3376C89.78 13.3304 89.7702 13.3264 89.7601 13.3264C89.7499 13.3264 89.7401 13.3304 89.733 13.3376C89.7258 13.3448 89.7217 13.3545 89.7217 13.3647C90.077 14.3973 90.4864 15.4105 90.9482 16.4001ZM95.877 15.0127C95.9371 13.8982 95.9089 12.7807 95.7927 11.6706C95.7927 11.6503 95.7846 11.6308 95.7702 11.6164C95.7558 11.6021 95.7363 11.594 95.716 11.594C95.6957 11.594 95.6762 11.6021 95.6618 11.6164C95.6474 11.6308 95.6394 11.6503 95.6394 11.6706C95.5652 12.7842 95.5831 13.9021 95.693 15.0127C95.693 15.0371 95.7027 15.0605 95.7199 15.0778C95.7372 15.095 95.7606 15.1047 95.785 15.1047C95.8094 15.1047 95.8328 15.095 95.85 15.0778C95.8673 15.0605 95.877 15.0371 95.877 15.0127ZM98.9508 15.8482C99.5005 15.0055 99.958 14.106 100.315 13.1654C100.315 13.0964 100.231 13.0581 100.193 13.1194C99.6713 13.9626 99.2267 14.8594 98.7208 15.7103C98.7116 15.7398 98.7126 15.7716 98.7236 15.8005C98.7346 15.8294 98.755 15.8538 98.7815 15.8697C98.8081 15.8856 98.8392 15.8921 98.8699 15.8882C98.9005 15.8844 98.929 15.8703 98.9508 15.8482ZM101.534 18.7611C102.199 18.8537 102.877 18.8146 103.527 18.6461C103.627 18.6461 103.657 18.4314 103.527 18.4085C102.849 18.3545 102.167 18.4326 101.519 18.6384C101.511 18.6394 101.503 18.642 101.496 18.646C101.489 18.65 101.483 18.6554 101.478 18.6618C101.467 18.6747 101.463 18.6911 101.465 18.7074C101.467 18.7237 101.475 18.7385 101.488 18.7485C101.501 18.7586 101.518 18.7631 101.534 18.7611ZM93.0561 24.2111C92.5196 24.9776 92.6039 25.5142 93.4931 25.8668C93.449 25.9159 93.4178 25.9751 93.4022 26.0392C93.3867 26.1034 93.3873 26.1703 93.404 26.2341C93.4207 26.298 93.453 26.3566 93.498 26.4049C93.543 26.4532 93.5992 26.4895 93.6617 26.5107C93.8288 26.5652 94.0103 26.5553 94.1705 26.483C94.3308 26.4107 94.4582 26.2811 94.5279 26.1198C95.509 26.2577 95.9613 25.9358 95.9 24.8626C97.755 24.4487 99.403 21.5972 98.6058 19.3513C98.4401 18.8982 98.1865 18.4823 97.8596 18.1275C97.5327 17.7726 97.139 17.4859 96.7009 17.2836C96.2629 17.0813 95.7893 16.9675 95.3072 16.9488C94.8251 16.93 94.3441 17.0067 93.8917 17.1743C91.0172 18.2705 91.2088 22.4557 93.0561 24.2111ZM93.9607 26.3727C93.6924 26.4264 93.3934 26.1581 93.608 25.9128C93.6847 25.9128 94.1906 26.0661 94.3746 26.1044C94.2566 26.2305 94.1091 26.3254 93.9453 26.3804L93.9607 26.3727ZM95.0721 25.9358C94.6952 25.9668 94.3157 25.9278 93.953 25.8208C93.6156 25.7834 93.3002 25.6352 93.0561 25.3992C92.8032 25.0159 92.9948 24.6327 93.1405 24.2801C93.52 24.5553 93.9513 24.7509 94.4084 24.855C94.8656 24.9591 95.3391 24.9695 95.8003 24.8856C95.8003 24.8856 95.8463 25.7978 95.0568 25.9434L95.0721 25.9358ZM94.3516 17.3123C94.7997 17.2109 95.2635 17.1993 95.7161 17.2784C96.1686 17.3575 96.601 17.5256 96.9882 17.773C97.3753 18.0204 97.7095 18.3422 97.9714 18.7197C98.2333 19.0972 98.4177 19.5229 98.5138 19.9722C98.8664 21.7889 97.8086 24.0731 96.1223 24.5714C91.6917 25.9588 90.151 18.3395 94.3516 17.3123Z" fill="black"/>
<path d="M94.0373 24.1037C94.1216 23.3372 94.2596 22.5707 94.4053 21.8042C94.4919 21.9641 94.5588 22.134 94.6045 22.3101C94.6074 22.3209 94.6128 22.3309 94.6204 22.3392C94.628 22.3475 94.6375 22.3538 94.6481 22.3576C94.6587 22.3613 94.67 22.3625 94.6811 22.3609C94.6922 22.3593 94.7028 22.355 94.7119 22.3484C94.8805 22.2334 95.0491 22.1184 95.2024 21.9958C95.2024 22.1644 95.2024 22.3714 95.2638 22.4634C95.2731 22.4687 95.2837 22.4716 95.2944 22.4716C95.3052 22.4716 95.3158 22.4687 95.3251 22.4634C95.4776 22.4055 95.618 22.3197 95.739 22.2104C95.739 22.2641 95.693 22.6167 95.9153 22.6933C95.6394 23.1762 95.3711 23.6745 95.0645 24.1344C95.0645 24.1727 95.0645 24.2111 95.1258 24.1344C95.8442 23.2937 96.4379 22.354 96.8888 21.3442C96.8888 21.2829 96.8352 21.2676 96.8045 21.3059C96.4917 21.7285 96.2075 22.1716 95.9536 22.632C95.7543 22.5707 95.8463 22.0341 95.8157 22.0418C95.785 22.0494 95.4937 22.2717 95.4171 22.2641C95.3404 22.2564 95.3404 21.9345 95.3481 21.8271C95.3502 21.8166 95.349 21.8056 95.3447 21.7957C95.3405 21.7857 95.3333 21.7773 95.3242 21.7715C95.3151 21.7657 95.3045 21.7628 95.2937 21.7632C95.2829 21.7635 95.2725 21.7671 95.2638 21.7735C95.0748 21.8846 94.893 22.0075 94.7195 22.1414C94.6631 21.9455 94.5723 21.7612 94.4512 21.5972C94.5049 21.3136 94.5662 21.03 94.6199 20.7463H94.5509C94.2203 21.8422 94.0297 22.9754 93.9837 24.1191C93.976 24.1421 94.0296 24.1421 94.0373 24.1037Z" fill="black"/>
<path d="M133.084 125.393C131.538 123.421 130.183 121.306 129.037 119.077C128.33 117.435 127.848 115.705 127.604 113.934C127.134 111.757 126.954 109.527 127.067 107.303C128.048 107.111 129.42 106.82 129.827 105.816C129.955 105.435 129.961 105.023 129.844 104.639C129.728 104.254 129.494 103.915 129.175 103.67C128.202 102.903 126.446 102.988 125.266 103.026C125.335 102.98 127.826 101.332 126.73 97.5605C126.472 96.6444 125.936 95.8309 125.196 95.2323C124.456 94.6337 123.548 94.2795 122.598 94.2184C120.766 94.0881 118.543 95.1919 117.876 96.9932C117.427 98.0794 117.364 99.2868 117.697 100.414C118.03 101.541 118.74 102.52 119.708 103.187C118.083 103.187 114.504 103.578 115.01 105.601C115.255 106.629 116.995 107.134 118.022 107.395C118.253 109.406 118.283 111.434 118.114 113.451C117.133 112.515 108.785 105.785 108.785 105.785H96.2143L96.107 105.693C97.3002 104.241 98.093 102.503 98.4066 100.65C98.4814 99.8246 98.3837 98.9931 98.1198 98.2079C97.8559 97.4227 97.4315 96.701 96.8736 96.0887C96.4925 94.8473 96.4215 93.5313 96.6666 92.2561C97.2721 89.3739 100.66 88.1168 100.844 81.8236C100.912 79.4344 100.797 77.0435 100.499 74.6719C101.713 74.3447 102.867 73.8273 103.918 73.1388C105.918 71.8482 107.396 69.8898 108.088 67.6121C109.322 63.0129 106.21 59.1803 105.62 58.4827C106.171 58.0398 106.539 57.4094 106.654 56.7121C106.641 55.8311 106.504 54.9564 106.248 54.1135C105.955 52.6997 105.56 51.3087 105.068 49.9513C107.591 47.8301 110.001 45.5785 112.288 43.2058C112.416 43.3003 112.555 43.3776 112.702 43.4357C112.572 56.5741 113.07 94.7473 113.216 100.696C113.216 100.811 113.5 100.795 113.492 100.696C113.078 81.6396 112.848 62.5913 113.009 43.5354C113.364 43.6011 113.731 43.5454 114.051 43.3771C114.371 43.2089 114.625 42.9379 114.772 42.6079C115.952 43.3284 119.977 45.674 120.805 46.1723C120.746 46.553 120.793 46.9424 120.941 47.2981C121.089 47.6537 121.332 47.9618 121.643 48.1887C121.955 48.4156 122.322 48.5525 122.706 48.5845C123.09 48.6164 123.475 48.5422 123.82 48.37C124.164 48.1977 124.455 47.934 124.66 47.6078C124.864 47.2815 124.975 46.9052 124.981 46.5201C124.986 46.1349 124.885 45.7558 124.689 45.424C124.494 45.0923 124.21 44.8208 123.871 44.6392C125.703 42.194 134.188 30.466 134.955 29.3699C134.732 46.9541 135.246 93.7585 135.422 99.5918C135.427 99.6053 135.436 99.617 135.448 99.6253C135.459 99.6336 135.473 99.6381 135.488 99.6381C135.502 99.6381 135.516 99.6336 135.527 99.6253C135.539 99.617 135.548 99.6053 135.553 99.5918C135.315 78.8954 135.116 31.8918 135.139 29.071C135.369 28.7337 135.599 28.3887 135.813 28.0438C135.89 27.9135 135.706 27.7679 135.606 27.8828C135.507 27.9978 135.292 28.2584 135.139 28.4501C135.139 25.6292 135.139 22.8161 135.192 20.0182C135.192 19.9646 135.07 19.9569 135.07 20.0182C135.008 22.9157 135.001 25.8209 134.962 28.7184C134.096 29.8375 125.442 41.987 123.656 44.5472C123.146 44.3409 122.576 44.3434 122.068 44.5543C121.561 44.7652 121.156 45.1674 120.943 45.674C120.084 45.1988 116.044 42.9452 114.864 42.3166C114.919 42.0587 114.912 41.7916 114.843 41.537C114.775 41.2825 114.647 41.0477 114.471 40.8518C114.294 40.656 114.074 40.5046 113.828 40.4102C113.582 40.3157 113.317 40.2808 113.055 40.3083C113.055 39.4958 113.277 25.9665 113.331 20.0182C113.331 19.9646 113.208 19.9492 113.208 20.0182C112.948 26.802 112.84 33.6088 112.748 40.4003C112.499 40.4897 112.276 40.6386 112.098 40.8339C111.919 41.0293 111.791 41.2653 111.725 41.5214C111.658 41.7775 111.655 42.0459 111.716 42.3034C111.777 42.5608 111.9 42.7996 112.074 42.9988C111.093 43.9646 106.402 48.2342 104.983 49.6983C104.723 48.9854 104.447 48.2725 104.148 47.575C103.381 45.6893 102.523 43.7424 100.936 42.4086C99.871 41.6319 98.7088 40.998 97.4791 40.5229C97.9399 40.6168 98.4191 40.5492 98.8359 40.3313C99.2571 40.101 99.6233 39.782 99.909 39.3961C99.9627 39.3118 99.8707 39.2275 99.7864 39.2428C97.4331 39.6108 98.146 36.2917 97.6094 34.9196C97.3871 34.3677 97.0115 33.7315 96.3676 33.9231C96.4088 33.7382 96.403 33.5459 96.3508 33.3638C96.2986 33.1817 96.2016 33.0156 96.0687 32.8806C96.2294 32.511 96.2954 32.1071 96.2606 31.7055C96.2258 31.304 96.0913 30.9175 95.8694 30.581C95.2408 29.8145 93.9607 29.8605 92.8799 28.7567C92.0137 27.8752 91.2625 27.078 89.9748 26.871C89.5094 26.7797 89.0286 26.8062 88.5761 26.9481C88.1236 27.09 87.7138 27.3428 87.3839 27.6835C87.3839 25.0237 87.3379 22.7088 87.3839 20.0182C87.3872 20.0101 87.3884 20.0013 87.3874 19.9926C87.3865 19.9838 87.3834 19.9755 87.3785 19.9682C87.3736 19.961 87.367 19.955 87.3592 19.9509C87.3515 19.9468 87.3428 19.9447 87.3341 19.9447C87.3253 19.9447 87.3167 19.9468 87.3089 19.9509C87.3012 19.955 87.2946 19.961 87.2896 19.9682C87.2847 19.9755 87.2817 19.9838 87.2807 19.9926C87.2798 20.0013 87.281 20.0101 87.2842 20.0182C87.0926 22.6337 87.0926 25.2597 87.2842 27.8752C87.0221 28.3129 86.913 28.8253 86.9741 29.3318C87.0352 29.8383 87.2629 30.3101 87.6215 30.673C86.6787 32.3747 85.9965 34.5057 86.6634 36.399C86.835 36.9077 87.0945 37.3825 87.4299 37.8017C87.4299 38.254 87.3839 40.1013 87.3839 41.1515C86.4429 41.4188 85.461 41.5123 84.4864 41.4274C83.1986 40.1167 82.2711 39.1892 82.2558 39.1738C82.2464 39.1544 82.2317 39.138 82.2134 39.1265C82.1951 39.1151 82.1739 39.109 82.1523 39.109C82.1307 39.109 82.1096 39.1151 82.0913 39.1265C82.073 39.138 82.0583 39.1544 82.0488 39.1738C81.8342 40.109 81.6503 41.0365 81.5123 41.9793C79.5423 42.2783 77.4727 40.7452 76.1466 39.4344C74.8501 38.1745 73.7494 36.7276 72.8811 35.1419C72.8711 35.1291 72.8583 35.1188 72.8437 35.1117C72.8291 35.1046 72.8131 35.1009 72.7968 35.1009C72.7806 35.1009 72.7646 35.1046 72.75 35.1117C72.7354 35.1188 72.7225 35.1291 72.7125 35.1419L72.3446 35.5021C72.4165 35.1395 72.4113 34.7658 72.3294 34.4053C72.2476 34.0448 72.0908 33.7055 71.8693 33.4095C71.7689 33.2747 71.6311 33.1723 71.4731 33.1151C71.315 33.0579 71.1436 33.0483 70.9801 33.0876C70.9188 32.6507 70.5816 30.2667 70.0067 30.3971C69.7077 30.4584 69.861 31.1023 69.8687 31.2632C69.9079 32.0134 69.9898 32.7607 70.114 33.5015C70.0209 33.5957 69.921 33.6828 69.815 33.7621C69.7351 33.5077 69.6161 33.2672 69.4624 33.0492C69.4107 32.9701 69.3403 32.9049 69.2574 32.8594C69.1745 32.814 69.0817 32.7896 68.9872 32.7886C68.6729 32.7886 68.6116 33.0416 68.6422 33.2869C68.4199 33.1949 68.1516 33.4172 68.2743 33.8081C68.2334 33.7939 68.1897 33.7893 68.1468 33.7946C68.1038 33.7999 68.0626 33.8149 68.0263 33.8386C67.9901 33.8623 67.9597 33.894 67.9376 33.9312C67.9155 33.9684 67.9022 34.0102 67.8987 34.0534C67.9033 34.4212 68.0455 34.774 68.2973 35.0422C68.347 35.1199 68.3833 35.2054 68.4046 35.2952C68.4046 36.215 69.5314 37.4645 70.5279 37.2422C70.1983 37.5488 69.3858 38.0777 69.3168 38.5376C69.2478 38.9975 69.6694 39.5801 69.8303 39.925C70.724 41.9003 71.968 43.6974 73.502 45.2294C74.086 45.9216 74.7738 46.5189 75.541 47.0001C72.1179 47.7243 68.8233 48.9595 65.7677 50.6641C65.3002 50.9094 64.8249 51.1624 64.365 51.4307C64.6103 41.2281 64.7482 17.7416 64.5566 19.8649C64.3037 22.2795 64.1733 45.743 64.1657 51.538C60.0562 53.8587 56.2767 56.7204 52.9283 60.0465C51.104 61.8631 49.4713 63.5802 49.7013 66.3167C49.8996 68.4871 50.9197 70.4997 52.5527 71.943C55.3889 74.4266 59.5512 74.5569 61.7511 73.1925C62.694 72.6176 63.2842 71.6134 64.0967 70.8929C64.8261 70.2286 65.7081 69.7547 66.6646 69.5131C67.5664 69.4572 68.4711 69.5557 69.3398 69.8044L70.9495 70.088C70.0897 76.1609 67.7958 81.9416 64.2577 86.9517C62.1037 89.8568 58.4244 93.4672 58.0104 97.0775C57.6655 100.082 59.3749 103.378 61.1686 105.801C60.691 105.802 60.216 105.872 59.7581 106.008C56.2014 106.008 52.1695 105.954 48.6204 106.215V105.724C48.6619 105.483 48.6423 105.235 48.5632 105.003C48.4842 104.772 48.3484 104.564 48.1682 104.398C47.2739 103.87 46.5481 103.099 46.0756 102.175C44.2742 99.1089 43.822 96.0427 43.6227 92.555C44.5578 92.3634 45.401 91.9878 45.5237 91.2366C45.6846 90.2094 43.5 89.8492 42.5955 89.8262C42.6415 89.7725 45.1864 87.0053 42.1816 84.5984C41.7355 84.2867 41.1859 84.1603 40.6485 84.2458C40.6945 81.2717 40.7175 78.1749 40.7482 75.2008C41.0936 75.2304 41.4402 75.1584 41.7453 74.9936C42.0503 74.8288 42.3006 74.5784 42.4652 74.2733C44.8338 75.6683 49.9695 77.9373 49.9695 77.9756C49.9658 78.4123 50.1168 78.8363 50.396 79.1722C50.6751 79.5081 51.0642 79.7342 51.4942 79.8105C51.9242 79.8868 52.3674 79.8082 52.745 79.5888C53.1226 79.3693 53.4103 79.0232 53.5569 78.6118C55.159 78.9568 62.3107 80.6738 64.2883 81.2487C64.2883 81.7086 64.1963 85.1963 64.2883 86.4534C64.2883 86.4778 64.298 86.5012 64.3153 86.5185C64.3325 86.5357 64.3559 86.5454 64.3803 86.5454C64.4047 86.5454 64.4281 86.5357 64.4454 86.5185C64.4626 86.5012 64.4723 86.4778 64.4723 86.4534C64.6517 84.6707 64.6902 82.8765 64.5873 81.0877C65.9824 79.9686 67.5614 79.0411 68.9105 77.8683C68.9872 77.784 68.9105 77.6613 68.7802 77.7073C67.2347 78.5643 65.818 79.6353 64.5719 80.8884C64.5719 80.2139 64.3726 72.8322 64.135 71.6441H64.066C63.9587 72.8475 64.25 80.2829 64.25 80.9038C62.28 80.2675 55.1743 78.6042 53.6106 78.3819C53.7234 77.9041 53.6418 77.4011 53.3838 76.9835C53.1257 76.5659 52.7124 76.2679 52.2346 76.1551C51.7569 76.0423 51.2539 76.1238 50.8363 76.3819C50.4187 76.6399 50.1207 77.0533 50.0079 77.531C48.7431 76.9944 43.7913 74.6259 42.5572 74.005C42.6367 73.7402 42.6537 73.4606 42.6068 73.1882C42.5599 72.9158 42.4504 72.658 42.2869 72.4351C42.1234 72.2121 41.9104 72.0302 41.6647 71.9036C41.419 71.777 41.1472 71.7091 40.8708 71.7054C40.9705 59.2186 40.8172 24.7707 40.7405 20.0412C40.7405 19.9799 40.6179 19.9876 40.6179 20.0412C40.6639 36.7056 40.6179 71.1535 40.6179 71.7131C40.279 71.7484 39.9573 71.8799 39.6908 72.0922C39.4242 72.3044 39.2239 72.5884 39.1135 72.9107C39.0031 73.233 38.9872 73.5802 39.0677 73.9113C39.1482 74.2424 39.3217 74.5435 39.5677 74.7792C37.6207 76.8871 31.6035 83.8626 30.4767 85.1733C30.1922 84.9319 29.8384 84.7869 29.4662 84.7593C29.0941 84.7317 28.7228 84.8229 28.4058 85.0197C28.0887 85.2166 27.8424 85.5089 27.7021 85.8547C27.5618 86.2005 27.5349 86.5819 27.6252 86.944L18.971 91.0679C18.8108 90.8456 18.6032 90.6616 18.3633 90.529C18.1234 90.3965 17.8571 90.3188 17.5836 90.3014C17.5836 72.6712 17.6833 25.7595 17.5836 19.9186C17.5836 19.8573 17.461 19.8573 17.461 19.9186C17.323 30.3587 17.3537 87.7335 17.3537 90.3014C17.0648 90.3118 16.7824 90.3893 16.5287 90.5277C16.275 90.6661 16.057 90.8617 15.8919 91.0989C15.7268 91.3361 15.6192 91.6085 15.5776 91.8945C15.5359 92.1805 15.5614 92.4722 15.652 92.7467C14.47 93.2824 13.343 93.9319 12.2869 94.686C12.2869 94.686 12.2869 94.7933 12.3405 94.778C13.521 94.3104 14.6401 93.6128 15.7746 93.0379C15.9256 93.3293 16.1514 93.5752 16.429 93.7504C16.7065 93.9255 17.0257 94.0236 17.3537 94.0344V100.167C17.3593 100.186 17.371 100.202 17.3868 100.214C17.4027 100.226 17.422 100.232 17.4418 100.232C17.4616 100.232 17.4809 100.226 17.4968 100.214C17.5127 100.202 17.5243 100.186 17.53 100.167V94.0344C17.833 94.0159 18.127 93.9238 18.3865 93.7662C18.646 93.6086 18.8633 93.3902 19.0195 93.1299C19.1757 92.8695 19.2662 92.575 19.2831 92.2719C19.3001 91.9687 19.2429 91.666 19.1167 91.3899C19.6686 91.1216 27.0273 87.7259 27.7708 87.4116C27.8944 87.624 28.061 87.8082 28.2599 87.9524C28.4589 88.0966 28.6857 88.1976 28.926 88.249C29.1663 88.3004 29.4147 88.301 29.6552 88.2507C29.8957 88.2005 30.1231 88.1005 30.3227 87.9572C30.5223 87.814 30.6897 87.6306 30.8143 87.4188C30.9389 87.207 31.0178 86.9715 31.046 86.7274C31.0742 86.4833 31.0511 86.236 30.9781 86.0014C30.9052 85.7668 30.784 85.55 30.6223 85.365C32.209 83.4563 38.4103 76.7875 39.8897 75.0551C40.092 75.1746 40.3161 75.2527 40.5489 75.2851C40.5489 78.2592 40.4952 81.4173 40.4799 84.3531L39.9586 84.4145C37.0765 84.8054 36.5323 88.891 38.7552 90.1711C37.889 90.1711 35.4285 90.4624 36.1873 91.7042C36.5861 92.1403 37.1322 92.4134 37.7204 92.4707C38.2966 94.6889 38.1269 97.035 37.2375 99.1472C36.3537 100.808 35.233 102.331 33.9107 103.67C32.9449 104.766 33.3588 106.169 33.2822 107.541C33.2343 107.825 33.2527 108.116 33.3358 108.392C33.4848 108.663 33.6853 108.902 33.9261 109.097C27.7478 115.198 4.13867 142.602 4.13867 142.625C17.415 142.418 149.105 140.241 149.779 140.264C149.396 139.835 136.235 128.206 133.084 125.393ZM118.942 102.167C118.495 101.685 118.163 101.107 117.972 100.478C117.781 99.8482 117.735 99.1836 117.838 98.534C117.875 97.9009 118.055 97.2846 118.366 96.7319C118.677 96.1793 119.11 95.705 119.632 95.3452C120.586 94.6554 121.774 94.3722 122.937 94.5575C124.099 94.7429 125.141 95.3818 125.833 96.334C127.144 98.2963 127.297 101.255 125.45 102.727C124.494 103.467 123.296 103.822 122.092 103.723C120.887 103.623 119.764 103.077 118.942 102.19V102.167ZM115.998 106.391C115.819 106.305 115.663 106.179 115.54 106.023C115.418 105.866 115.334 105.684 115.293 105.489C115.253 105.295 115.259 105.094 115.309 104.902C115.36 104.71 115.454 104.532 115.585 104.383C116.036 104.053 116.563 103.843 117.118 103.769C118.089 103.528 119.084 103.397 120.084 103.378C120.89 103.74 121.77 103.906 122.652 103.862C123.534 103.818 124.393 103.566 125.159 103.125C126.263 103.171 127.361 103.318 128.439 103.562C129.888 103.961 130.187 106.038 128.746 106.498C122.568 108.476 117.11 107.157 115.998 106.414V106.391ZM100.568 78.1672C100.718 79.8682 100.718 81.579 100.568 83.28C100.009 88.2088 97.0268 89.4966 96.4673 92.3404C96.3639 93.429 96.3639 94.5249 96.4673 95.6135C93.0179 91.3516 92.7036 86.3001 92.443 80.8808C93.4778 78.6578 94.5203 76.4962 95.0032 75.6607C96.3238 75.5854 97.6348 75.3904 98.9202 75.0781C99.3494 74.9708 99.794 74.8635 100.239 74.7408C100.4 75.883 100.499 77.0251 100.568 78.1672ZM95.3022 58.1301C95.9154 59.3106 96.5363 60.6444 97.1035 62.0471L96.8736 62.1621C94.8696 63.1074 92.9311 64.1855 91.0709 65.3892C90.7873 63.3502 90.4347 61.3189 89.9978 59.3029C91.7838 58.9886 93.5621 58.6054 95.3022 58.1301ZM97.6018 35.5481C97.939 37.1579 97.3795 38.7216 98.7899 39.3348C98.8512 39.3348 99.5564 39.4728 99.5564 39.4728C99.5564 39.4728 98.9202 40.0783 98.8435 40.132C98.2797 40.3888 97.6485 40.4586 97.0422 40.3313L95.9844 39.9097L95.2178 38.6986C95.198 38.6803 95.172 38.6701 95.145 38.6701C95.118 38.6701 95.092 38.6803 95.0722 38.6986L94.8959 38.8136C94.8951 37.5162 95.081 36.2254 95.4478 34.9809C95.9001 34.9809 96.2143 34.4903 96.3293 34.0917C97.0345 33.8694 97.4484 34.8506 97.5941 35.5481H97.6018ZM95.4401 39.3808C95.8847 40.0937 93.5391 41.5501 93.0332 41.8107C92.5273 42.0713 92.213 40.6302 92.1134 40.2776C92.2897 40.178 95.0109 38.7216 95.4325 39.4038L95.4401 39.3808ZM96.2067 34.0151C96.107 34.4443 95.4401 34.7816 95.4401 34.7816C95.5628 34.3677 95.9844 33.1719 96.0457 32.9726C96.1423 33.1321 96.2027 33.3109 96.2226 33.4964C96.2425 33.6818 96.2213 33.8694 96.1607 34.0457L96.2067 34.0151ZM87.2996 29.7225C86.4027 27.8062 88.7023 26.733 90.2737 27.101C91.4312 27.3769 92.0827 28.1588 92.8799 28.9483C94.0834 30.1518 95.4631 29.8605 95.946 31.0793C96.429 32.298 95.4018 33.5552 94.9112 36.1767C94.8987 36.1685 94.8841 36.1641 94.8691 36.1641C94.8541 36.1641 94.8394 36.1685 94.8269 36.1767C94.5586 36.238 93.6694 36.2457 93.7538 35.8318C93.7538 35.6708 94.1754 35.4332 94.2903 35.2569C94.4132 35.1206 94.4994 34.9553 94.5407 34.7765C94.582 34.5977 94.5771 34.4114 94.5265 34.235C94.4759 34.0586 94.3812 33.898 94.2514 33.7684C94.1216 33.6387 93.9609 33.5442 93.7844 33.4938C93.5315 33.3865 92.9489 33.4938 92.7956 33.3712C92.512 33.1566 92.673 32.6507 92.7036 32.3134C92.703 32.294 92.6981 32.275 92.6892 32.2578C92.6804 32.2405 92.6678 32.2255 92.6523 32.2137C92.6369 32.202 92.6191 32.1938 92.6001 32.1898C92.5811 32.1859 92.5615 32.1862 92.5426 32.1907C91.5155 32.4328 90.4369 32.3243 89.4784 31.8826C88.52 31.4409 87.7369 30.6913 87.2536 29.7532L87.2996 29.7225ZM87.7365 30.7956C88.2114 31.3478 88.7994 31.7917 89.4606 32.0971C90.1218 32.4026 90.8408 32.5626 91.5692 32.5663C91.8376 32.5176 92.1091 32.4869 92.3817 32.4743C92.581 32.6353 92.4277 33.2409 92.3817 33.5015C92.3817 33.5858 92.4583 33.6241 92.5273 33.6165C93.2938 33.4938 94.5816 33.6625 94.2367 34.8506C94.0931 35.2334 93.8225 35.5554 93.4702 35.7628C93.4587 35.7728 93.4496 35.7852 93.4433 35.7991C93.4371 35.813 93.4338 35.828 93.4338 35.8433C93.4338 35.8585 93.4371 35.8735 93.4433 35.8874C93.4496 35.9013 93.4587 35.9137 93.4702 35.9237C93.639 36.1295 93.8681 36.2772 94.1252 36.3459C94.3823 36.4147 94.6546 36.4011 94.9036 36.307C94.7472 37.136 94.7213 37.9843 94.8269 38.8212C93.8789 39.2849 92.8976 39.6769 91.8911 39.994C91.5651 40.805 91.1861 41.5937 90.7566 42.3549C90.4577 41.78 89.6835 40.1703 89.5532 40.017H89.4842L89.7371 39.1048C89.7421 39.0825 89.7385 39.0592 89.7272 39.0393C89.7159 39.0195 89.6975 39.0046 89.6758 38.9975C88.9266 38.8299 88.2428 38.4466 87.7089 37.8949C87.1749 37.3433 86.8141 36.6474 86.671 35.8931C86.2418 34.0994 86.924 32.3747 87.6905 30.8263L87.7365 30.7956ZM88.894 38.8902C89.5225 39.1432 89.5149 39.1968 89.3462 39.8714C89.0951 39.7633 88.8643 39.6129 88.664 39.4268C88.6561 39.4172 88.6461 39.4094 88.6349 39.4041C88.6236 39.3987 88.6113 39.396 88.5988 39.396C88.5864 39.396 88.5741 39.3987 88.5628 39.4041C88.5516 39.4094 88.5416 39.4172 88.5337 39.4268C87.9358 40.7146 87.8975 40.6762 87.9818 40.7452L88.1658 40.8909C87.9898 40.9125 87.8172 40.9563 87.6522 41.0212C87.6522 39.9404 87.6062 39.1662 87.6522 38.024C87.9845 38.4025 88.3916 38.7078 88.848 38.9209L88.894 38.8902ZM86.3491 41.6114C86.9087 41.4888 87.7902 40.9828 88.4034 41.1131C88.6301 41.3131 88.8403 41.531 89.0319 41.7647C89.0779 41.826 89.1622 41.7647 89.1699 41.711C89.1973 41.3452 89.2721 40.9845 89.3922 40.6379C89.3922 40.5536 89.2926 40.5229 89.2619 40.6379C89.1476 40.9365 89.0704 41.248 89.0319 41.5654C88.917 41.4351 88.1658 40.7529 88.1811 40.5689C88.2698 40.2942 88.4018 40.0355 88.572 39.8024C88.7407 39.7257 89.2696 40.1627 89.4152 40.2776C89.5608 40.3926 90.3734 42.056 90.703 42.5159H90.8256C91.0862 42.102 91.8374 40.6532 92.0137 40.4616C92.2497 41.0406 92.3895 41.6542 92.4277 42.2783C92.4277 42.3549 92.512 42.3933 92.5733 42.3626C93.7231 41.6574 94.7962 40.8755 95.923 40.132C100.683 41.8107 102.055 43.1981 103.711 47.0308C104.953 49.7129 105.832 52.5484 106.325 55.4626C106.501 56.0214 106.501 56.6209 106.325 57.1796C106.059 57.7085 105.683 58.1739 105.221 58.5441C102.575 59.5234 99.9825 60.6442 97.4561 61.9015C96.956 60.5605 96.3163 59.2759 95.5474 58.0688C97.6401 57.4862 99.2958 56.4744 100.208 54.4355C101.184 52.0145 101.704 49.4339 101.741 46.8238C101.741 46.7242 101.603 46.7242 101.595 46.8238C101.312 49.5833 100.867 53.9449 98.9968 56.0222C97.9076 57.0516 96.5405 57.7392 95.0645 57.9998C93.5315 58.3908 91.9984 58.7127 90.4654 59.0116C89.6528 59.1649 86.3108 59.9851 85.8048 59.4716C85.7589 59.3719 84.793 57.2946 84.6091 56.8117C84.2411 55.8689 84.6091 55.9762 85.3756 55.6159C88.0738 54.4431 89.8905 51.9136 92.2744 50.2502C92.2985 50.2373 92.3177 50.2168 92.3288 50.1918C92.3399 50.1668 92.3423 50.1388 92.3357 50.1122C92.0467 48.3124 92.0727 46.4761 92.4123 44.6852C92.4123 44.6162 92.3204 44.5855 92.305 44.6852C92.0384 45.8694 91.92 47.0821 91.9524 48.2955C92.012 48.7686 92.0453 49.2446 92.0521 49.7213C91.6871 49.2036 91.2929 48.7072 90.8716 48.2342C90.726 46.7472 90.634 45.2907 90.5727 43.796C90.5727 43.7194 90.473 43.727 90.4577 43.796C90.285 45.2418 90.3785 46.7071 90.7336 48.1192C89.0933 46.2259 86.5331 43.5737 84.6551 41.6574C85.2007 41.7533 85.7593 41.7481 86.3031 41.6421L86.3491 41.6114ZM83.1986 58.3371C82.8997 58.4827 81.3206 59.2109 81.6656 58.4444C82.0667 58.3999 82.4403 58.2185 82.7234 57.9308C82.7278 57.9234 82.73 57.9148 82.7298 57.9062C82.7296 57.8975 82.7269 57.8891 82.7221 57.8819C82.7173 57.8747 82.7105 57.869 82.7026 57.8654C82.6947 57.8619 82.686 57.8606 82.6774 57.8618C82.4474 57.9385 80.4851 58.7893 81.9569 57.6932C82.2328 57.4862 82.8844 57.264 82.9457 56.9267C82.9503 56.9062 82.9483 56.8848 82.9401 56.8656C82.9318 56.8463 82.9177 56.8301 82.8997 56.8194C82.7377 56.7319 82.5981 56.6083 82.4917 56.458C82.3854 56.3078 82.3151 56.135 82.2865 55.9532C82.8897 56.2916 83.5652 56.4808 84.2565 56.5051C84.4941 57.172 84.7547 57.8465 85.023 58.4904C84.6014 58.7587 81.6886 59.8165 82.0795 58.9656C82.5079 58.9113 82.9093 58.7267 83.2293 58.4367C83.2293 58.4367 83.1833 58.3448 83.1526 58.3678L83.1986 58.3371ZM91.9907 49.9053C91.968 50.0056 91.9235 50.0998 91.8604 50.1812C91.4473 50.5709 91.0039 50.9272 90.5343 51.2467C89.8368 51.8599 89.1623 52.5115 88.4647 53.14C87.6982 48.2955 85.2146 43.7807 82.6084 39.6721C84.1491 41.2358 90.2507 47.9736 91.9448 49.9589L91.9907 49.9053ZM70.0603 32.0911C69.9805 31.6255 69.9548 31.1522 69.9837 30.6807C70.2673 30.5197 70.7502 32.804 70.7962 33.1412C70.5747 33.233 70.364 33.3487 70.1676 33.4862C70.183 33.0186 70.1216 32.551 70.0603 32.0911ZM69.6924 33.8464C69.4164 34.1377 69.4931 34.383 69.953 34.4367C69.861 34.6283 69.6157 34.5746 69.4548 34.4367C69.1601 34.1233 68.9377 33.7491 68.8032 33.3405C68.7189 32.5127 69.6157 33.3022 69.723 33.8464H69.6924ZM68.6576 33.4095C68.6792 33.5151 68.7126 33.618 68.7572 33.7161C68.9565 34.1377 69.2785 34.728 69.7384 34.7509C69.7384 35.6018 69.0945 34.7509 68.9718 34.544C68.6346 34.0841 68.1363 33.4095 68.6576 33.4095ZM68.2053 34.728C68.2053 34.6743 67.7224 33.7851 68.282 33.9231C68.5895 34.3725 68.9275 34.8002 69.2938 35.2032C69.0868 36.1154 68.5809 35.2032 68.5272 35.0882C68.4088 34.9648 68.3011 34.8314 68.2053 34.6896V34.728ZM68.5809 35.4945C68.6269 35.5691 68.6871 35.6338 68.7581 35.6851C68.8291 35.7364 68.9096 35.7732 68.9948 35.7934C69.2478 35.7934 69.3858 35.5558 69.4088 35.3335C69.9837 35.3335 69.8763 34.7663 69.8533 34.7509C69.9164 34.7419 69.9741 34.7107 70.0162 34.6629C70.0584 34.6152 70.0821 34.554 70.0833 34.4903C70.555 34.5314 71.0274 34.4213 71.4324 34.176C71.4473 34.166 71.4583 34.151 71.4633 34.1336C71.4683 34.1163 71.467 34.0978 71.4596 34.0813C71.4523 34.0648 71.4394 34.0515 71.4232 34.0436C71.407 34.0357 71.3886 34.0337 71.3711 34.0381C71.0004 34.2445 70.5727 34.3252 70.1523 34.268C69.6157 34.0611 69.9147 33.9308 70.114 33.7698C70.3 33.6113 70.5001 33.4702 70.7119 33.3482C71.4017 32.9649 71.9613 33.5245 72.1376 34.1531C72.2158 34.614 72.2287 35.0836 72.1759 35.5481C72.1759 35.5481 71.1794 36.6136 70.6429 37.0812C69.7537 37.1272 69.0178 36.7439 68.5809 35.4485V35.4945ZM74.2686 45.7813C72.587 44.2805 71.2261 42.4554 70.2673 40.4156C69.9452 39.913 69.7215 39.3537 69.6081 38.7676C69.6617 38.208 72.4289 35.6171 72.5669 35.6018C72.9808 35.5328 73.9849 37.3265 74.3222 37.7557C74.9776 38.633 75.7142 39.4465 76.5222 40.1856C77.8253 41.3201 79.6496 42.4852 81.4433 42.2323C81.2055 43.8123 81.1131 45.4109 81.1673 47.0078C79.3917 46.7033 77.5772 46.7033 75.8016 47.0078C75.2197 46.6771 74.7007 46.2464 74.2686 45.7353V45.7813ZM60.2181 103.777C59.082 102.025 58.424 100.006 58.3094 97.9207C58.3094 93.9654 62.349 90.2094 64.7176 86.921C68.1779 81.9049 70.4147 76.1476 71.2484 70.111C71.2484 70.0573 73.2414 70.0267 74.2609 69.9807C76.9054 69.8657 79.3583 69.4825 80.8837 67.0679C80.8837 67.0142 80.8301 66.9606 80.7917 67.0142C80.0816 68.0632 79.0641 68.8665 77.8789 69.3138C76.4641 69.7001 74.998 69.8656 73.5327 69.8044C72.2172 69.8658 70.8988 69.8119 69.5927 69.6434C68.5042 69.4824 67.4311 69.0762 66.335 69.3828C65.5092 69.6535 64.7457 70.0861 64.089 70.6552C63.1845 71.4218 62.556 72.4796 61.5595 73.0698C59.4362 74.2886 56.4851 73.9743 54.3771 72.9012C50.3221 70.8392 49.134 65.9564 50.5444 63.2889C51.2 62.1829 52.0163 61.1806 52.9667 60.3147C56.363 56.8791 60.2352 53.9491 64.4646 51.6146C75.5717 45.5897 81.3283 47.2224 81.3283 47.2071C81.3283 47.1917 81.5813 42.01 82.1638 39.5418C84.8467 43.8037 87.4835 48.3262 88.2347 53.3393C87.0586 54.4835 85.6225 55.3252 84.0495 55.7922C84.0231 55.801 84.0008 55.819 83.9867 55.843C83.9726 55.867 83.9677 55.8952 83.9728 55.9225C84.0265 56.0835 84.0802 56.2368 84.1415 56.3978C83.7287 56.3561 83.3265 56.242 82.9534 56.0605C82.6951 55.9016 82.413 55.7851 82.1178 55.7156C82.1036 55.7122 82.0888 55.7119 82.0745 55.7149C82.0601 55.7179 82.0466 55.724 82.0349 55.7328C82.0232 55.7416 82.0136 55.7528 82.0067 55.7657C81.9999 55.7786 81.9959 55.7929 81.9952 55.8075C81.994 56.0298 82.0494 56.2488 82.1562 56.4438C82.2251 56.5587 82.6314 56.8347 82.6314 56.8884C82.6314 57.103 81.7269 57.5782 81.5583 57.7239C81.3896 57.8695 81.1213 58.0075 81.1137 58.2758C81.106 58.5441 81.3436 58.4521 81.4356 58.4597C81.3962 58.4918 81.3651 58.533 81.3451 58.5797C81.3251 58.6265 81.3167 58.6773 81.3206 58.728C81.3206 58.9043 81.6886 58.958 81.7422 58.958C81.5966 59.096 81.7422 59.3872 82.0335 59.4486C82.5524 59.4765 83.0721 59.4089 83.5666 59.2493C84.0924 59.1198 84.5944 58.9077 85.0536 58.6207C85.8202 60.1538 85.9045 59.9468 87.1233 59.7628C88.0125 59.6325 88.9016 59.4869 89.7908 59.3336C90.2277 61.3802 90.5573 63.4575 90.8486 65.5348C90.1316 66.0601 89.4759 66.6644 88.894 67.3362C86.694 69.9117 86.0041 72.6329 84.977 76.6495C84.2715 79.4102 83.8478 82.2352 83.7122 85.0814C84.1147 85.472 84.5655 85.8094 85.0536 86.0855C84.9923 86.3308 84.8237 87.2046 84.7854 87.3963C83.999 87.7011 83.2311 88.0518 82.4858 88.4464C82.3555 88.5537 81.9875 88.9447 82.9074 89.213C83.8272 89.4812 87.0773 90.3474 87.4376 90.1021C87.5295 89.8875 87.7595 88.2548 88.2041 86.9823C88.7573 87.0013 89.3108 86.9524 89.8521 86.8367C90.1434 86.0165 91.1629 83.7093 92.2437 81.3637C92.5886 87.0053 93.1329 91.7348 96.153 95.4985C96.9588 96.338 97.5917 97.3277 98.0157 98.4113C98.2774 99.671 98.1873 100.978 97.7551 102.19C97.1725 104.413 94.7349 106.874 94.1754 107.403C90.818 110.63 86.5101 111.841 81.9645 112.063C77.695 112.27 73.2184 112.454 69.1481 110.975C64.4033 109.296 62.395 107.449 60.2181 103.777ZM87.9741 87.0207C87.8591 87.2506 87.5525 88.1168 87.4836 88.3008C86.7354 87.9316 85.9375 87.6734 85.115 87.5342C85.115 87.3579 85.2529 86.5378 85.2759 86.3001C86.101 86.762 87.0286 87.0098 87.9741 87.0207ZM61.3449 106.031C62.7072 107.923 64.5633 109.406 66.7106 110.316C71.3097 112.554 73.9236 112.523 78.9751 112.469C83.3826 112.469 87.8591 112.14 91.6841 109.718C93.2886 108.694 94.7195 107.421 95.923 105.946C97.7244 107.648 98.6749 109.94 99.5104 112.232C100.272 114.671 100.874 117.157 101.312 119.675C99.6714 122.595 96.2297 124.067 93.1865 125.041C89.1037 126.239 84.8898 126.934 80.6384 127.11C75.702 127.402 70.3209 127.463 65.3078 126.229C63.2635 125.718 61.2739 125.01 59.3672 124.113H59.3289C58.2605 123.589 57.2353 122.982 56.2628 122.296C55.4144 121.64 54.6174 120.92 53.8788 120.142C53.7403 119.939 53.6593 119.702 53.6445 119.457C53.6297 119.211 53.6815 118.966 53.7945 118.747C54.3081 117 54.63 115.206 54.998 113.382C55.6419 110.101 57.3819 105.969 61.3449 106.031ZM38.4792 89.6499C37.3908 88.73 37.4061 86.9134 38.165 85.7712C38.9238 84.6291 41.2847 83.8396 42.2889 85.0047C45.5313 88.868 41.0854 91.8728 38.4792 89.6499ZM37.4904 90.4164C37.9738 90.2962 38.4659 90.2142 38.9622 90.1711C39.4954 90.4526 40.093 90.5894 40.6955 90.5678C41.2981 90.5463 41.8845 90.3672 42.3962 90.0485C42.3962 90.0485 46.8804 90.3704 44.5655 92.0108C43.6457 92.6623 41.7063 92.5627 41.0165 92.5627C38.0193 92.5704 34.5853 91.3516 37.4904 90.4317V90.4164ZM33.7268 108.353C33.3971 107.878 33.5811 107.027 33.5735 106.475C33.5735 105.525 33.3588 104.651 33.9874 103.846C34.4933 103.187 35.0912 102.581 35.6124 101.93C37.7894 99.2162 38.8318 95.8588 37.912 92.4247C39.0341 92.7207 40.1942 92.8473 41.3537 92.8003C42.078 92.79 42.8005 92.7259 43.5154 92.6087C43.5154 98.2963 45.7306 102.704 47.348 104.045C47.7006 104.344 48.2832 104.59 48.4441 105.049C48.5864 106.304 48.5164 107.574 48.2372 108.805C47.9996 109.281 47.256 109.572 46.7961 109.794C45.1158 110.558 43.272 110.893 41.4304 110.768C39.5057 110.782 37.5934 110.458 35.7811 109.81C34.9799 109.521 34.2706 109.024 33.7268 108.369V108.353ZM30.3234 141.874C29.1276 141.874 12.1336 141.989 4.69057 142.28C9.67302 136.753 20.0212 124.703 20.5271 124.159H40.1656L46.6428 112.4H31.1589C31.6571 111.81 33.4585 109.817 34.041 109.104C34.3671 109.367 34.716 109.601 35.0835 109.802C36.7622 110.592 38.594 111.003 40.4492 111.005C42.1586 111.193 43.8881 111.042 45.539 110.561C46.3444 110.287 47.1159 109.921 47.8386 109.472C48.4058 109.112 48.4135 108.821 48.4901 108.139C48.5668 107.456 48.5975 106.973 48.6281 106.391L49.8086 106.437L46.6198 112.4H54.9443C54.7374 113.213 54.5687 114.033 54.4001 114.846C54.2314 115.658 53.1966 119.361 53.1966 119.675C53.3729 120.503 54.607 121.361 55.2203 121.859C56.3192 122.733 57.5121 123.481 58.777 124.09C52.5604 124.136 46.3438 124.09 40.1349 124.159L30.3234 141.874ZM70.9495 141.222L70.6122 127.256C77.6629 127.864 84.7654 127.346 91.6535 125.723C93.5671 125.263 95.4253 124.598 97.1955 123.737H100.185C99.9177 123.274 99.6621 122.804 99.4184 122.327C100.271 121.631 100.975 120.771 101.488 119.798C101 117.055 100.337 114.346 99.5028 111.688L99.3571 111.274H115.025C115.332 111.527 117.256 113.182 117.945 113.696C117.963 113.708 117.985 113.715 118.007 113.715C118.029 113.715 118.05 113.708 118.068 113.696C117.951 114.828 117.73 115.946 117.409 117.038C116.642 119.56 114.971 121.591 113.208 123.492L100.177 123.76L110.25 140.624C109.958 140.616 76.1006 141.161 70.9265 141.222H70.9495ZM132.755 132.192C131.482 134.369 124.522 135.159 123.196 135.205C119.149 135.105 113.73 134.584 112.235 132.56C111.543 131.089 111.294 129.448 111.519 127.838C111.744 126.228 112.432 124.718 113.5 123.492C115.322 121.812 116.738 119.738 117.639 117.429C118.697 114.317 118.666 110.714 118.329 107.464C121.157 107.853 124.027 107.817 126.845 107.357C126.744 109.47 126.914 111.587 127.351 113.658C128.018 117.414 128.301 118.878 131.076 122.933C131.613 123.699 132.149 124.519 132.724 125.286C133.92 127.555 133.483 130.138 132.732 132.192H132.755Z" fill="black"/>
<path d="M45.2631 105.264C45.3398 105.218 45.2631 105.088 45.1941 105.126C41.4458 106.659 35.8271 105.371 34.5777 104.091C34.5685 104.082 34.5561 104.077 34.5432 104.077C34.5302 104.077 34.5178 104.082 34.5087 104.091C34.4995 104.1 34.4944 104.113 34.4944 104.126C34.4944 104.139 34.4995 104.151 34.5087 104.16C37.6591 106.858 43.6074 106.268 45.2631 105.264ZM44.1133 91.0756C43.0703 91.4665 41.9613 91.6514 40.8479 91.6198C40.1427 91.6198 37.4981 91.7501 37.3295 90.8533H37.2529C37.7358 92.2024 42.8792 91.8268 44.1516 91.1216C44.1976 91.1369 44.167 91.0526 44.1133 91.0756Z" fill="black"/>
</svg>
