<svg width="154" height="154" viewBox="0 0 154 154" fill="none" xmlns="http://www.w3.org/2000/svg">
<path d="M83.7933 50.3211C83.157 50.6477 84.2057 51.8182 84.4479 50.9075C84.4862 50.6278 84.0792 50.174 83.7933 50.3211Z" fill="black"/>
<path d="M87.4844 49.298C87.5227 49.0182 87.1164 48.5667 86.8298 48.7123C86.195 49.0435 87.2422 50.2086 87.4844 49.298Z" fill="black"/>
<path d="M51.1022 96.1998C51.0032 96.223 50.9174 96.2846 50.8638 96.371C50.8102 96.4574 50.7931 96.5615 50.8162 96.6605C50.8394 96.7596 50.901 96.8453 50.9874 96.8989C51.0738 96.9525 51.1779 96.9696 51.2769 96.9465C56.9912 95.619 62.9188 95.4927 68.6844 96.5758C74.4499 97.6589 79.9277 99.9276 84.7706 103.238C84.8524 103.238 84.9321 103.212 84.9981 103.164C85.064 103.115 85.1127 103.047 85.1371 102.969C85.1614 102.891 85.1601 102.807 85.1333 102.73C85.1065 102.652 85.0557 102.586 84.9883 102.539C80.0903 99.1866 74.5474 96.8913 68.713 95.7998C62.8787 94.7083 56.8809 94.8446 51.1022 96.1998Z" fill="black"/>
<path d="M87.2997 100.126C78.5135 94.6316 68.694 90.9384 58.2758 92.4707C58.1779 92.4871 58.0901 92.5407 58.031 92.6205C57.9718 92.7002 57.946 92.7998 57.9588 92.8983C57.9716 92.9967 58.0221 93.0863 58.0997 93.1483C58.1773 93.2102 58.2759 93.2397 58.3747 93.2304C64.7977 92.3883 71.3292 93.2337 77.3261 95.6833C80.6336 97.1494 83.8312 98.8517 86.8942 100.777C86.9805 100.831 87.0846 100.848 87.1837 100.825C87.2827 100.802 87.3686 100.741 87.4223 100.654C87.4761 100.568 87.4934 100.464 87.4704 100.365C87.4474 100.266 87.386 100.18 87.2997 100.126Z" fill="black"/>
<path d="M65.1354 89.6759C65.0337 89.6795 64.9377 89.7234 64.8684 89.7979C64.7991 89.8723 64.7622 89.9713 64.7659 90.0729C64.7695 90.1746 64.8134 90.2706 64.8879 90.3399C64.9624 90.4092 65.0613 90.4461 65.163 90.4424C74.0009 90.1288 82.6501 93.0482 89.4902 98.6537C89.8635 98.9726 90.3702 98.3731 89.9769 98.0612C82.9786 92.3618 74.1561 89.3838 65.1354 89.6759Z" fill="black"/>
<path d="M63.0272 86.8851C62.9256 86.8926 62.831 86.9401 62.7644 87.0172C62.6978 87.0943 62.6645 87.1948 62.6719 87.2964C62.6793 87.3981 62.7268 87.4926 62.804 87.5592C62.8811 87.6259 62.9815 87.6591 63.0832 87.6517C73.7606 86.861 84.3316 90.219 92.5954 97.0266C92.9656 97.3463 93.4769 96.7468 93.0813 96.4348C84.66 89.5127 73.8996 86.0936 63.0272 86.8851Z" fill="black"/>
<path d="M66.7536 85.1646C71.9194 84.4544 77.179 84.9277 82.135 86.5488C87.091 88.1699 91.6137 90.8962 95.3612 94.5219C95.7062 94.8707 96.2619 94.3149 95.894 93.9715C92.0577 90.2721 87.4334 87.4896 82.368 85.8329C77.3027 84.1762 71.9279 83.6883 66.647 84.4057C66.5483 84.422 66.4599 84.4763 66.4006 84.5569C66.3414 84.6375 66.316 84.7381 66.3299 84.8372C66.3438 84.9362 66.3959 85.026 66.4751 85.0871C66.5542 85.1483 66.6542 85.1761 66.7536 85.1646Z" fill="black"/>
<path d="M27.4703 86.9226C25.3891 87.4255 25.2305 90.3414 27.5815 90.3721C30.7542 90.3897 30.824 86.1116 27.4703 86.9226ZM29.0801 88.911C28.8546 89.1828 28.5579 89.3863 28.2232 89.4989C27.8884 89.6114 27.529 89.6284 27.1852 89.548C26.1396 89.1648 26.6256 87.9253 27.7049 87.6524C28.5435 87.2492 29.6611 88.0663 29.0793 88.911H29.0801Z" fill="black"/>
<path d="M117.343 96.7329C116.915 96.7329 116.72 96.7329 115.607 103.794C115.07 107.179 114.569 110.755 114.48 111.413C114.527 112.203 116.06 111.832 116.608 111.95C129.347 111.793 129.655 97.6811 117.343 96.7329ZM124.039 108.336C121.828 110.78 118.142 111.376 115.294 111.123C115.745 107.827 117.073 98.9045 117.554 97.5079C123.532 97.8061 128.331 103.59 124.039 108.336Z" fill="black"/>
<path d="M149.311 42.4864C147.89 41.4186 146.207 42.3254 144.932 41.1917C144.805 41.068 144.653 40.9724 144.486 40.9112C144.319 40.85 144.141 40.8245 143.964 40.8363C143.787 40.8482 143.614 40.8971 143.457 40.98C143.3 41.0629 143.162 41.1778 143.052 41.3174C142.614 41.8581 142.36 42.5247 142.327 43.22C137.811 47.8721 132.462 51.4665 124.083 53.4956C125.836 51.6975 127.268 49.6125 128.317 47.331C130.847 41.161 120.596 36.446 116.129 35.3253C115.931 34.489 116.537 33.1536 116.783 32.2966C117.062 31.1675 116.246 30.6102 115.648 30.9168C114.176 31.4028 113.469 33.0264 112.614 34.1448C110.944 36.3678 112.204 37.0385 114.166 38.0419C114.107 38.1178 114.081 38.2137 114.093 38.3087C114.105 38.4038 114.154 38.4902 114.229 38.5494C115.243 39.5566 120.208 43.5043 118.271 45.0068C117.222 45.817 114.08 48.2447 112.255 49.797C108.696 49.6252 107.143 49.6168 104.844 50.0131C104.817 50.0181 104.792 50.0321 104.773 50.053C104.754 50.0739 104.743 50.1005 104.741 50.1285C104.739 50.1566 104.746 50.1845 104.762 50.2079C104.777 50.2313 104.8 50.2488 104.827 50.2577C111.607 53.5278 112.826 62.2871 110.634 68.5399C112.139 68.4356 114.777 68.6043 116.027 68.0224C120.749 67.5541 127.424 66.2594 130.939 64.261C134.537 62.3015 137.656 59.5679 140.069 56.2572C142.482 52.9465 144.131 49.1414 144.895 45.1164C146.267 44.6052 147.674 44.1953 149.105 43.8899C149.769 43.7857 150.255 42.8198 149.311 42.4864ZM119.142 37.1535C123.272 38.7701 129.473 42.7401 127.619 47.0128C126.427 49.6086 124.723 51.9365 122.609 53.8566C121.859 54.039 120.87 54.2337 120.103 54.4039C122.339 52.1769 124.373 49.7558 126.181 47.1692C126.688 46.5182 127.009 45.7421 127.11 44.9232C126.717 42.2441 124.197 41.4799 122.114 40.0556C121.037 39.4558 119.999 38.7872 119.008 38.0542C119.097 37.7623 119.143 37.4587 119.142 37.1535ZM114.936 37.595L113.29 36.6935C112.875 36.4697 112.447 36.1163 112.658 35.6035C113.153 34.6973 113.716 33.8306 114.344 33.011C114.711 32.3594 115.303 31.8637 116.009 31.6167C116.064 31.6443 116.103 31.865 116.055 32.0667C115.67 33.0875 115.404 34.1493 115.262 35.231C115.217 35.4534 115.229 35.6835 115.296 35.9002C115.363 36.117 115.483 36.3136 115.645 36.472C115.55 36.9189 115.299 37.3172 114.936 37.595ZM115.963 39.0737C115.697 38.8292 115.444 38.5762 115.187 38.3562C115.556 38.1305 115.864 37.8177 116.085 37.4453C116.305 37.0729 116.431 36.6521 116.452 36.2198C117.056 36.403 117.692 36.6154 118.329 36.8469C118.647 38.2573 117.296 39.7513 115.963 39.0737ZM111.342 50.4999C111.759 50.4623 112.253 50.7023 112.629 50.4892C114.416 48.9561 117.671 46.4418 118.719 45.6315C120.842 43.9236 118.225 41.4209 116.839 39.9775C117.228 39.9612 117.605 39.842 117.933 39.632C118.26 39.422 118.525 39.1288 118.702 38.7824C120.795 40.639 125.704 42.0594 126.345 44.8826C126.252 45.5549 125.98 46.19 125.559 46.7223C123.69 49.4005 121.576 51.8993 119.245 54.1862C118.866 53.7263 117.948 52.6171 117.455 53.3047C117.435 53.351 117.425 53.4008 117.424 53.4513C117.423 53.5017 117.433 53.5517 117.452 53.5985C117.47 53.6453 117.498 53.6879 117.534 53.7239C117.569 53.7599 117.611 53.7886 117.657 53.8083C118.12 54.0274 118.505 54.3832 118.76 54.8278C119.018 55.7883 120.69 54.9727 121.376 54.9167C129.477 53.3009 136.777 49.9579 141.125 45.4115C141.628 45.5277 142.083 45.7953 142.428 46.1781C138.066 57.0822 128.95 63.4339 117.384 63.6792C117.776 58.6322 116.188 52.959 111.342 50.4999ZM139.064 56.4023C133.987 63.5918 125.97 66.2073 116.924 67.1532C117.165 66.2709 117.301 65.3631 117.327 64.4488C129.123 64.225 138.44 57.8197 142.985 46.8089C144.352 48.5352 140.356 54.5749 139.064 56.4023ZM143.882 46.2264C143.848 46.3628 143.805 46.497 143.769 46.6326C143.313 45.8037 142.589 45.1538 141.716 44.7891C142.073 44.4349 142.567 43.6699 143.081 43.8646C143.308 43.943 143.515 44.0725 143.685 44.2431C143.855 44.4138 143.983 44.621 144.061 44.849C144.138 45.077 144.162 45.3197 144.131 45.5584C144.1 45.7972 144.015 46.0257 143.882 46.2264ZM144.72 44.3353C144.372 43.8203 143.892 43.4077 143.331 43.1402C142.806 43.1517 143.474 41.9705 143.642 41.8011C144.152 40.9073 145.612 43.3717 148.241 43.3181C147.05 43.5924 145.874 43.932 144.72 44.3353Z" fill="black"/>
<path d="M86.1666 48.2533C86.5276 48.1529 86.9392 47.8969 87.265 48.0709C87.3595 48.1086 87.465 48.1073 87.5585 48.0672C87.6519 48.0271 87.7256 47.9515 87.7633 47.857C87.801 47.7626 87.7997 47.6571 87.7595 47.5636C87.7194 47.4702 87.6439 47.3965 87.5494 47.3588C87.0956 47.138 85.5687 47.2446 85.8377 48.0678C85.8719 48.1245 85.9201 48.1714 85.9777 48.2039C86.0353 48.2364 86.1004 48.2534 86.1666 48.2533Z" fill="black"/>
<path d="M83.3584 50.2897C83.4398 50.0066 83.6073 49.7559 83.8375 49.5722C83.9188 49.5112 83.9726 49.4204 83.987 49.3198C84.0013 49.2192 83.9752 49.117 83.9142 49.0356C83.8532 48.9543 83.7624 48.9006 83.6618 48.8862C83.5611 48.8718 83.4589 48.898 83.3776 48.959C83.0075 49.249 82.7404 49.6502 82.6156 50.1034C82.5959 50.2001 82.6143 50.3007 82.6669 50.3842C82.7195 50.4677 82.8022 50.5278 82.898 50.5518C82.9937 50.5758 83.095 50.5619 83.1808 50.5131C83.2665 50.4643 83.3302 50.3843 83.3584 50.2897Z" fill="black"/>
<path d="M87.2135 52.252C86.857 52.5985 87.409 53.1504 87.7554 52.794C87.9088 52.6407 88.0391 52.4935 88.1709 52.3425C87.977 52.679 87.7616 53.1305 88.338 53.2163C89.0908 53.0009 89.1046 51.8802 88.6377 51.3536C88.0444 50.8454 87.6374 51.96 87.2135 52.252Z" fill="black"/>
<path d="M85.6639 52.0523C86.1162 52.2654 87.0843 51.531 86.5316 51.0657C86.2848 50.8718 85.9951 51.1424 85.8839 51.3156C85.67 51.0757 86.1675 49.4154 85.4554 49.4437C85.3538 49.4437 85.2563 49.4841 85.1844 49.556C85.1125 49.6279 85.0721 49.7253 85.0721 49.827C85.122 50.4448 84.8268 51.8584 85.6639 52.0523Z" fill="black"/>
<path d="M133.408 98.3197C130.896 93.2344 124.593 90.2219 117.209 89.0031C120.269 86.2473 121.488 85.1067 121.564 84.9564C121.877 83.7139 121.661 79.4166 122.268 78.2729C122.299 78.1914 122.304 78.1021 122.281 78.0178C122.258 77.9335 122.209 77.8586 122.142 77.8038C117.92 74.9242 113.302 72.6729 108.433 71.1202C112.707 64.3838 110.894 52.2922 102.036 50.0133C103.706 47.6301 101.964 43.9889 99.04 44.2289C97.1085 44.2578 95.1827 44.4468 93.2824 44.7938C93.7661 44.386 93.5124 43.4907 93.1659 43.1626C94.7205 42.288 92.7489 39.5338 91.2495 39.6717C91.3262 38.4912 90.5029 36.3342 89.1193 37.274C88.7141 36.6772 88.2012 36.1612 87.6069 35.7524C86.8327 35.2924 85.8385 35.1859 85.4107 36.0199C84.7715 35.6099 84.052 35.3415 83.3004 35.2326C82.3254 35.2188 81.4607 35.8459 81.5787 36.7205C80.5424 36.4906 79.4017 36.6002 78.8376 37.6404C78.5654 38.2651 79.1817 38.62 78.2121 38.574C76.853 38.6975 75.9891 40.5494 77.3688 41.4187C75.8626 41.7629 74.6859 44.491 76.7372 44.9211C76.0121 45.9176 75.5153 47.4032 76.3424 48.4066C65.6912 50.1896 57.2017 51.6744 49.1744 53.2627C45.2995 55.0089 42.3996 57.3085 38.6857 59.2418C38.5986 59.287 38.5322 59.3638 38.5001 59.4565C38.4681 59.5492 38.4727 59.6507 38.5132 59.74C39.0789 60.9849 49.4074 61.8864 51.4717 62.0573C60.9636 60.6821 70.3746 58.797 79.6639 56.4101C76.4153 59.0087 71.7738 61.4372 71.3706 66.0725C61.2092 64.9173 51.7308 66.3891 43.705 71.5035C30.1256 79.5638 16.0487 87.6447 3.47266 97.6245C3.82757 99.9617 4.62248 102.32 4.7413 104.518C4.74883 104.603 4.78458 104.683 4.84287 104.746C4.90115 104.808 4.97864 104.849 5.06302 104.863C5.1474 104.876 5.23383 104.861 5.30859 104.82C5.38335 104.778 5.44215 104.713 5.47565 104.635C14.5593 101.978 24.8272 101.911 34.232 103.994C41.8845 105.337 39.3595 108.93 41.6798 109.437C41.8186 109.471 44.4034 109.792 44.4394 109.75C44.9246 109.708 45.1431 109.156 45.1293 108.776C45.4052 105.25 47.4857 105.167 50.8493 105.327C66.5321 106.345 72.1785 108.922 85.1792 117.208C85.228 117.24 85.2835 117.26 85.3413 117.266C85.3991 117.272 85.4576 117.265 85.5121 117.244C85.5665 117.224 85.6153 117.191 85.6546 117.148C85.6938 117.105 85.7224 117.053 85.738 116.997C93.4672 110.099 104.837 100.074 109.897 95.5341C107.95 103.515 106.172 111.589 104.164 121.542C104.154 121.594 104.154 121.647 104.166 121.698C104.177 121.75 104.198 121.798 104.229 121.841C104.259 121.884 104.298 121.92 104.344 121.947C104.389 121.974 104.439 121.991 104.491 121.998C112.455 123.016 122.752 123.266 129.05 118.198C135.052 113.691 137.136 104.87 133.408 98.3197ZM99.0576 44.9954C101.773 44.9755 102.693 47.975 101.217 49.8086C100.169 49.5622 99.0974 49.4336 98.0212 49.4253C98.1976 48.6472 98.158 47.8357 97.9067 47.0785C97.6554 46.3213 97.202 45.6471 96.5955 45.1288C97.4049 45.0522 98.2274 45.0023 99.0576 44.9954ZM96.8568 60.2628C96.6422 59.2832 97.5076 59.1367 97.7215 60.1233C98.129 63.1268 97.7985 66.1843 96.7587 69.0314C92.9078 68.5225 88.9909 68.9701 85.354 70.3345C84.1488 69.6688 82.8947 69.0958 81.6025 68.6205C83.5534 67.2146 86.0362 65.2408 87.9488 63.9522C89.9155 66.3186 92.6433 67.9281 95.6656 68.5055C95.7522 68.5025 95.8354 68.4716 95.9029 68.4173C95.9703 68.3629 96.0183 68.2882 96.0397 68.2043C96.9179 65.6549 97.1975 62.9376 96.8568 60.2628ZM92.939 49.1417C93.2391 48.6044 93.389 47.9963 93.3729 47.3811C93.3569 46.7659 93.1755 46.1664 92.8478 45.6455C93.6611 45.5174 94.5557 45.3289 95.4541 45.2622C96.1868 45.6542 96.7621 46.2867 97.0832 47.0532C97.4043 47.8196 97.4516 48.6733 97.2171 49.4705C95.8918 49.5802 93.2801 49.8408 92.3879 49.9305C92.0506 49.6859 92.8685 49.5112 92.939 49.1417ZM82.9409 47.7535C84.0731 48.2318 85.1363 47.2307 85.574 46.182C85.9723 46.3435 86.4134 46.3664 86.8263 46.2469C87.2392 46.1275 87.6 45.8728 87.8507 45.5236C87.9903 45.6484 88.1627 45.7306 88.3475 45.7606C88.5324 45.7906 88.722 45.7672 88.8939 45.693C89.1162 46.064 89.629 46.7401 90.0231 47.2491C89.9972 47.5625 90.0546 47.8772 90.1894 48.1613C90.2766 48.3347 90.4172 48.4755 90.5905 48.563C90.7637 48.6506 90.9604 48.6802 91.1518 48.6476C91.3431 48.615 91.519 48.5219 91.6534 48.3819C91.7879 48.2419 91.8739 48.0625 91.8988 47.87C91.8927 47.7665 92.1901 47.7719 92.2897 47.558C92.4575 47.3445 92.5395 47.0761 92.5197 46.8053C92.6952 47.5396 92.6316 48.9056 91.7493 49.1156C91.4504 49.1325 91.1675 49.4989 91.3454 49.7772C92.0088 50.9046 92.8334 51.929 93.7929 52.8181C94.0566 55.0273 90.6501 57.8589 89.2527 55.1453C89.7655 54.6816 89.9495 55.2818 90.3534 55.6259C90.5834 55.8559 90.9736 55.4726 90.7413 55.2381C90.4438 54.9917 90.1826 54.7045 89.9656 54.3849C89.8889 54.2316 89.7356 54.2316 89.5777 54.3082C88.7333 54.9393 87.6767 55.2175 86.6311 55.084C86.0389 54.9376 85.4827 54.6725 84.9961 54.3048C84.5095 53.937 84.1026 53.4743 83.8002 52.9445C83.7389 52.5743 83.6354 51.9565 83.1379 51.7181C82.5546 51.2988 82.3959 50.3322 82.0992 49.6691C82.5083 49.0951 82.7948 48.443 82.9409 47.7535ZM86.9431 55.6359C85.0711 56.7735 82.2671 55.1292 82.1353 53.0181C82.1476 52.8496 82.2239 52.6921 82.3486 52.5781C82.4734 52.4641 82.637 52.4021 82.806 52.4049C82.99 52.5291 83.0245 53.0089 83.0743 53.2274C83.2054 53.751 83.8355 54.5873 84.3138 54.391C85.0065 55.1163 85.943 55.5597 86.9431 55.6359ZM42.579 60.2352C41.5741 60.0995 40.5803 59.8912 39.6055 59.612C40.6396 59.2839 41.6683 57.7723 42.7108 58.5733C42.904 58.86 42.4364 58.9942 42.4349 59.2594C42.3697 59.7009 42.9293 59.6135 43.0895 59.8972C43.0377 59.9908 42.9644 60.0709 42.8757 60.1307C42.7869 60.1906 42.6852 60.2285 42.579 60.2413V60.2352ZM51.3943 61.2747C48.7834 61.0585 45.9572 60.7381 43.6782 60.4069C43.7501 60.3085 43.8005 60.1961 43.8261 60.077C43.8518 59.9578 43.8522 59.8346 43.8273 59.7153C43.8023 59.5961 43.7527 59.4833 43.6814 59.3845C43.6102 59.2856 43.519 59.2028 43.4137 59.1413C43.4791 59.0104 43.515 58.8668 43.5192 58.7206C43.5233 58.5743 43.4955 58.4289 43.4377 58.2945C43.3799 58.1601 43.2935 58.0399 43.1845 57.9423C43.0756 57.8447 42.9466 57.772 42.8066 57.7294C44.9213 56.3442 47.1234 55.0973 49.399 53.9963C50.2384 54.0322 51.0447 54.3338 51.7017 54.8576C52.3586 55.3815 52.8322 56.1004 53.054 56.9108C53.2759 57.7212 53.2347 58.5811 52.9362 59.3665C52.6378 60.1519 52.0976 60.8222 51.3935 61.2808L51.3943 61.2747ZM52.7741 61.0891C53.2658 60.5345 53.6201 59.8719 53.8085 59.155C53.997 58.4381 54.0141 57.687 53.8587 56.9622C53.7033 56.2375 53.3797 55.5594 52.9139 54.9828C52.4481 54.4062 51.8532 53.9472 51.1774 53.6429C59.0805 52.1289 67.5777 50.628 78.2029 48.8703C78.2297 49.6124 78.8521 50.5506 79.6685 50.1512C79.8985 49.9979 79.9031 49.7887 80.1177 50.1183C80.2084 50.2312 80.3218 50.3238 80.4507 50.3899C80.5795 50.4561 80.7208 50.4944 80.8654 50.5024C81.01 50.5103 81.1547 50.4877 81.29 50.4361C81.4253 50.3844 81.5483 50.3049 81.6508 50.2026C81.847 50.7206 82.0788 51.2244 82.3445 51.7104C81.0874 52.119 81.2215 53.6559 81.8478 54.5919C81.5517 54.7896 81.2734 55.0127 81.0161 55.2588C71.7143 57.7101 62.2871 59.6584 52.7756 61.0953L52.7741 61.0891ZM41.6407 108.477C41.5927 108.492 41.5422 108.498 41.492 108.493C41.4419 108.489 41.3931 108.475 41.3485 108.451C41.3039 108.428 41.2642 108.396 41.2319 108.358C41.1996 108.319 41.1752 108.275 41.1601 108.227C40.6158 106.49 39.5442 104.966 38.0942 103.866C36.6441 102.766 34.8875 102.145 33.0684 102.089C32.9667 102.089 32.8692 102.048 32.7974 101.977C32.7255 101.905 32.6851 101.807 32.6851 101.706C32.6851 101.604 32.7255 101.506 32.7974 101.435C32.8692 101.363 32.9667 101.322 33.0684 101.322C35.0516 101.375 36.9686 102.047 38.5503 103.245C40.132 104.442 41.299 106.105 41.8875 108C41.9173 108.096 41.9081 108.2 41.8619 108.289C41.8157 108.378 41.7363 108.446 41.6407 108.477ZM41.8454 105.104C36.5984 96.9024 14.8736 95.741 5.84053 96.7261C17.269 88.0042 29.8335 80.5886 41.9972 73.4045C50.5657 67.6133 60.3944 65.4723 71.3599 66.8436C71.5377 69.1218 73.3107 69.3403 75.3888 69.4169C78.57 69.4169 82.3139 65.864 83.7097 62.6069C84.6974 60.7392 85.4963 58.7776 86.0945 56.7512C86.484 56.6967 86.8602 56.5712 87.2044 56.381C85.2436 60.4583 84.5116 65.5957 80.6719 68.343C80.3178 68.5998 80.6183 69.0153 80.9088 69.1678C82.2418 69.6868 83.3809 70.1643 84.5047 70.7339C83.0122 71.3739 81.4645 72.5736 80.0134 73.0634C71.9547 68.064 60.7953 68.1061 51.4426 69.7673C42.8933 73.8246 35.6662 79.4166 27.4043 83.9983C22.1435 87.0484 16.7041 90.2019 11.5053 93.6162C11.4351 93.6624 11.382 93.7305 11.3543 93.8098C11.3265 93.8892 11.3257 93.9755 11.3518 94.0555C11.378 94.1354 11.4297 94.2045 11.499 94.2521C11.5683 94.2998 11.6513 94.3233 11.7353 94.3191C19.0539 93.8345 26.3986 94.7234 33.3903 96.9399C36.4765 97.8996 40.2594 99.4159 42.1589 102.645C41.9107 103.44 41.8046 104.272 41.8454 105.103V105.104ZM46.8946 83.0232C39.2813 84.8875 40.3721 82.2053 41.9435 76.0261C46.4087 73.567 49.9662 70.0248 55.4838 69.8937C63.8132 69.2805 72.4576 69.3066 79.3419 73.5601C76.0833 75.4083 72.8263 77.3638 69.5991 79.4243C69.0173 79.6764 68.4723 80.41 67.8506 80.2974C60.79 80.4796 53.7672 81.3926 46.8946 83.0217V83.0232ZM66.9783 81.0999C64.5337 82.6928 62.0156 84.416 59.3074 86.3493C58.4404 86.2351 56.6291 86.902 56.0664 86.2534C55.3198 85.1987 55.5298 83.4609 55.4309 82.2015C59.2573 81.6293 63.1113 81.2611 66.9767 81.0984L66.9783 81.0999ZM33.6257 96.2102C27.0004 94.1204 20.0624 93.1973 13.1212 93.482C22.3436 87.6133 31.8871 82.4437 41.0236 76.5957C38.9846 83.4785 39.8738 85.6502 47.0886 83.7652C49.6116 83.1918 52.144 82.7064 54.6859 82.3088C54.66 83.2608 54.7139 84.2134 54.8468 85.1565C55.0592 87.1112 56.4167 87.5643 58.1139 87.2009C53.9737 90.2446 50.0227 93.5377 46.2829 97.0618C44.7139 98.3505 43.4276 99.9491 42.5046 101.758C40.3567 98.6056 36.4404 97.0948 33.6241 96.2086L33.6257 96.2102ZM61.4246 105.174C61.3955 105.272 61.3289 105.353 61.2395 105.402C61.1501 105.45 61.0452 105.461 60.9478 105.432C61.0444 105.313 42.5307 100.727 44.1703 108.498C44.1812 108.547 44.1823 108.598 44.1735 108.648C44.1647 108.697 44.1463 108.745 44.1192 108.787C44.0921 108.829 44.0569 108.866 44.0157 108.895C43.9744 108.924 43.9278 108.944 43.8787 108.955C43.8295 108.966 43.7786 108.967 43.7291 108.958C43.6795 108.95 43.6321 108.931 43.5896 108.904C43.5472 108.877 43.5105 108.842 43.4816 108.801C43.4527 108.759 43.4323 108.713 43.4214 108.664C42.6158 105.41 45.7977 103.085 49.8497 103.212C53.6717 103.19 57.479 103.689 61.1663 104.695C61.2145 104.71 61.2594 104.733 61.2984 104.765C61.3374 104.797 61.3698 104.836 61.3936 104.881C61.4175 104.925 61.4324 104.974 61.4374 105.024C61.4425 105.074 61.4376 105.124 61.4231 105.173L61.4246 105.174ZM72.6883 104.515C72.656 104.611 72.5867 104.691 72.4957 104.736C72.4047 104.781 72.2994 104.789 72.2031 104.756C72.1264 104.73 64.3007 102.115 58.5431 101.312C52.4245 100.46 46.1557 101.772 44.2715 104.297C43.9902 104.701 43.3471 104.234 43.6583 103.837C46.0162 100.675 53.1382 99.7831 58.6505 100.551C64.4762 101.364 72.3717 104.001 72.4484 104.027C72.5443 104.06 72.6233 104.13 72.668 104.221C72.7127 104.312 72.7195 104.417 72.6868 104.513L72.6883 104.515ZM84.4165 106.705C81.8806 104.59 78.9651 102.977 75.8258 101.952C70.1632 99.9233 64.1847 98.918 58.1698 98.9835C53.9109 99.2051 44.6717 99.5968 42.5966 104.447C42.7308 101.702 44.6479 99.5546 46.8057 97.6245C56.9541 87.8969 72.4215 78.0008 84.5629 71.5541C87.5095 69.9827 91.527 69.3717 96.495 69.7351C96.2083 70.1574 95.9515 71.561 95.4495 71.3793C92.721 71.0124 89.9595 70.9594 87.219 71.2214C87.1687 71.2257 87.1197 71.2399 87.0749 71.2632C87.03 71.2864 86.9902 71.3183 86.9576 71.357C86.9251 71.3956 86.9005 71.4403 86.8853 71.4885C86.87 71.5366 86.8644 71.5873 86.8687 71.6376C86.8774 71.7393 86.9262 71.8333 87.0043 71.899C87.0429 71.9315 87.0876 71.9561 87.1358 71.9714C87.1839 71.9867 87.2346 71.9923 87.2849 71.988C89.9425 71.7344 92.6203 71.7827 95.267 72.1321C94.7949 72.9009 94.2633 73.6316 93.6772 74.3175C93.6208 74.2433 93.5388 74.1927 93.4472 74.1757C90.6442 73.7056 87.7895 73.6259 84.9646 73.9388C84.9143 73.9443 84.8655 73.9597 84.8211 73.984C84.7767 74.0083 84.7375 74.0411 84.7058 74.0806C84.6741 74.1201 84.6505 74.1654 84.6363 74.214C84.6221 74.2626 84.6176 74.3135 84.6231 74.3639C84.6286 74.4142 84.6439 74.463 84.6683 74.5074C84.6926 74.5518 84.7254 74.5909 84.7649 74.6227C84.8044 74.6544 84.8497 74.678 84.8983 74.6922C84.9469 74.7064 84.9978 74.7109 85.0481 74.7054C87.7683 74.4046 90.5168 74.477 93.2173 74.9208C92.6086 75.5562 91.8505 76.772 90.9943 76.9008C90.7704 76.7797 82.2387 74.9422 84.5116 76.6447C86.4786 76.7775 88.431 77.0758 90.3481 77.5362C89.4665 78.2936 88.03 78.0828 87.16 78.7896C86.7185 78.9697 86.4333 79.4871 86.6786 79.8083C85.8354 79.6734 79.6969 78.5052 79.6578 79.5201C79.6578 79.6217 79.6981 79.7192 79.77 79.7911C79.8419 79.863 79.9394 79.9033 80.041 79.9033C81.0268 80.013 87.4168 79.898 86.0822 81.0907C85.7503 81.5637 85.6376 82.6284 86.4011 82.6951C86.5897 82.6231 86.4172 83.2141 86.6088 83.4134C81.5694 81.4783 76.1515 80.732 70.7765 81.2325C70.6749 81.2421 70.5812 81.2916 70.5161 81.3703C70.4509 81.4489 70.4197 81.5502 70.4293 81.6518C70.4388 81.7535 70.4884 81.8472 70.567 81.9123C70.6456 81.9774 70.7469 82.0086 70.8486 81.9991C81.5159 80.8991 91.8942 85.2378 99.2738 92.704C99.3487 92.7041 99.422 92.6824 99.4847 92.6413C99.5474 92.6003 99.5966 92.5417 99.6264 92.473C99.6562 92.4042 99.6651 92.3283 99.6522 92.2545C99.6393 92.1807 99.605 92.1123 99.5536 92.0578C96.1446 88.4518 92.0035 85.617 87.4083 83.7438C87.6052 83.6486 87.7691 83.4967 87.879 83.3076C87.8846 83.4369 87.9274 83.5618 88.0023 83.6673C88.0772 83.7728 88.1811 83.8543 88.3013 83.9021C88.4216 83.9499 88.5531 83.9619 88.68 83.9367C88.8069 83.9114 88.9238 83.85 89.0166 83.7599C89.6292 83.0617 90.3218 82.438 91.0801 81.9017C94.9541 83.4237 98.4496 85.7723 101.323 88.7838C101.357 88.8222 101.398 88.8533 101.445 88.8753C101.491 88.8974 101.542 88.9098 101.593 88.912C101.644 88.9142 101.695 88.906 101.744 88.888C101.792 88.87 101.836 88.8424 101.873 88.8071C101.91 88.7717 101.94 88.7292 101.96 88.6821C101.981 88.635 101.992 88.5843 101.992 88.5329C101.993 88.4816 101.983 88.4306 101.964 88.3831C101.944 88.3356 101.915 88.2926 101.879 88.2564C99.1777 85.4295 95.9393 83.1707 92.3534 81.6128C94.2049 81.4653 96.0169 80.9984 97.7093 80.233C100.678 81.7295 103.415 83.6473 105.835 85.9269C105.871 85.9632 105.914 85.9918 105.962 86.0111C106.009 86.0304 106.06 86.04 106.111 86.0393C106.163 86.0385 106.213 86.0275 106.26 86.0069C106.307 85.9862 106.349 85.9564 106.385 85.9191C106.42 85.8818 106.447 85.8378 106.465 85.7897C106.483 85.7417 106.491 85.6905 106.489 85.6393C106.487 85.588 106.474 85.5378 106.452 85.4914C106.43 85.4451 106.399 85.4037 106.361 85.3696C104.037 83.1828 101.427 81.3208 98.6038 79.8344C99.8721 79.2523 101.089 78.5643 102.242 77.7777C105.117 79.1886 107.766 81.0206 110.101 83.2133C110.455 83.5598 110.995 82.991 110.626 82.6553C108.336 80.5076 105.752 78.6976 102.951 77.2802C103.865 76.6018 104.721 75.8493 105.511 75.0304C108.178 76.2195 110.693 77.7257 113 79.5162C113.04 79.5468 113.086 79.5691 113.135 79.5819C113.184 79.5947 113.234 79.5978 113.285 79.5909C113.335 79.5841 113.383 79.5674 113.427 79.5419C113.47 79.5164 113.508 79.4825 113.539 79.4423C113.569 79.402 113.592 79.3561 113.605 79.3072C113.617 79.2583 113.62 79.2074 113.614 79.1573C113.607 79.1072 113.59 79.059 113.565 79.0154C113.539 78.9717 113.505 78.9335 113.465 78.903C111.182 77.1326 108.701 75.6327 106.072 74.4332C106.804 73.6155 107.465 72.7369 108.048 71.807C112.66 73.2597 117.047 75.3512 121.079 78.0207C118.906 79.225 109.198 87.066 105.39 89.8417C103.836 90.9808 84.4962 106.619 84.4165 106.703V106.705ZM89.3822 80.791C88.6532 80.3196 87.5187 82.2582 87.2796 82.7664C87.4958 81.9132 87.9773 81.1506 88.6548 80.5886C88.7289 80.5258 88.7768 80.4375 88.7889 80.3411C88.801 80.2447 88.7765 80.1473 88.7202 80.068C88.664 79.9888 88.58 79.9336 88.485 79.9134C88.39 79.8931 88.2908 79.9092 88.2071 79.9585C88.4162 79.8326 88.636 79.7253 88.864 79.6381C88.9412 79.6083 89.0067 79.5543 89.0506 79.4841C89.0946 79.414 89.1146 79.3315 89.1078 79.2491C89.101 79.1666 89.0677 79.0885 89.0128 79.0266C88.9579 78.9646 88.8845 78.9221 88.8035 78.9053C90.1541 78.2836 91.2564 79.5952 91.4665 80.7887C90.3776 81.3279 89.4224 82.1027 88.6701 83.0569C88.7746 82.4175 89.0317 81.8127 89.4198 81.2939C89.4755 81.2193 89.5022 81.127 89.4949 81.0342C89.4876 80.9413 89.4467 80.8544 89.3799 80.7895L89.3822 80.791ZM85.7127 116.009L85.4368 112.085C87.5621 110.168 89.8467 108.434 92.266 106.904C92.3518 106.849 92.4124 106.763 92.4344 106.663C92.4565 106.564 92.4382 106.46 92.3836 106.374C92.3291 106.288 92.2426 106.228 92.1434 106.206C92.0441 106.184 91.9401 106.202 91.8543 106.257C89.5686 107.706 87.4003 109.333 85.3693 111.122L85.2689 109.692L104.013 94.3911C104.052 94.3593 104.085 94.3201 104.109 94.2757C104.132 94.2313 104.147 94.1827 104.152 94.1326C104.157 94.0825 104.153 94.0319 104.138 93.9836C104.124 93.9354 104.1 93.8905 104.068 93.8515C104.036 93.8125 103.997 93.7801 103.952 93.7563C103.908 93.7324 103.859 93.7176 103.809 93.7125C103.759 93.7075 103.709 93.7123 103.66 93.7268C103.612 93.7413 103.567 93.7652 103.528 93.7971L85.203 108.758L85.0987 107.275C94.9512 99.6535 95.3904 98.1419 112.609 85.3267C114.636 83.7499 119.15 80.072 121.333 78.7344C121.107 80.0393 120.989 81.3608 120.982 82.6852L111.207 90.6136C111.145 90.6635 111.101 90.7312 111.079 90.8074C111.058 90.8836 111.061 90.9646 111.087 91.0391C111.114 91.1137 111.163 91.1783 111.227 91.224C111.292 91.2697 111.369 91.2942 111.448 91.2943C111.654 91.2943 110.918 91.8309 120.953 83.6993C120.938 84.1393 120.923 84.5003 120.91 84.5647C120.181 85.4616 92.5918 109.901 85.7127 116.007V116.009ZM131.903 106.575L134.475 106.71C134.234 109.947 132.951 113.019 130.817 115.466C130.255 115.001 128.748 113.166 128.187 113.819C128.132 113.904 128.114 114.008 128.136 114.107C128.158 114.207 128.219 114.293 128.305 114.348C129.034 114.826 129.704 115.391 130.298 116.03C128.171 118.211 125.508 119.794 122.576 120.62L121.9 118.187C121.871 118.092 121.805 118.012 121.718 117.964C121.63 117.916 121.527 117.904 121.431 117.931C121.335 117.958 121.253 118.021 121.203 118.107C121.153 118.193 121.138 118.296 121.162 118.393L121.844 120.846C118.956 121.601 115.972 121.92 112.99 121.789L113.378 119.195C113.389 119.097 113.361 118.999 113.3 118.921C113.24 118.842 113.152 118.791 113.054 118.776C112.956 118.762 112.857 118.785 112.776 118.842C112.695 118.899 112.64 118.985 112.621 119.082L112.216 121.78C109.805 121.744 107.398 121.581 105.004 121.292C107.059 111.123 108.878 102.913 110.89 94.7231C113.113 92.5484 115.217 90.8558 116.675 89.4806C116.867 89.8946 117.493 89.7612 117.864 89.8961C117.772 90.4932 117.033 92.7132 117.886 92.8435C117.987 92.8435 118.085 92.8031 118.157 92.7312C118.229 92.6593 118.269 92.5619 118.269 92.4602C118.275 91.6423 118.393 90.829 118.62 90.0433C120.872 90.4793 123.069 91.1631 125.17 92.0823L123.839 94.2777C123.813 94.3208 123.796 94.3686 123.788 94.4184C123.781 94.4681 123.783 94.5189 123.795 94.5678C123.807 94.6167 123.829 94.6628 123.859 94.7034C123.888 94.7439 123.926 94.7782 123.969 94.8043C124.012 94.8304 124.06 94.8477 124.11 94.8553C124.159 94.8629 124.21 94.8606 124.259 94.8486C124.308 94.8366 124.354 94.815 124.395 94.7852C124.435 94.7554 124.47 94.7179 124.496 94.6748L125.868 92.4104C128.768 93.873 130.901 95.5824 132.375 98.0491L130.433 99.0196C130.386 99.0411 130.344 99.0718 130.31 99.1097C130.275 99.1477 130.249 99.1923 130.232 99.2407C130.215 99.2892 130.207 99.3405 130.211 99.3917C130.214 99.443 130.227 99.493 130.25 99.5389C130.273 99.5848 130.305 99.6257 130.344 99.659C130.383 99.6923 130.429 99.7175 130.478 99.733C130.527 99.7484 130.578 99.7539 130.629 99.7491C130.68 99.7443 130.73 99.7292 130.775 99.7049L132.754 98.7168C133.947 100.934 134.548 103.421 134.498 105.938L131.943 105.804C131.841 105.799 131.742 105.834 131.666 105.903C131.59 105.971 131.544 106.066 131.539 106.168C131.533 106.27 131.569 106.37 131.637 106.446C131.705 106.522 131.801 106.568 131.903 106.573V106.575Z" fill="black"/>
</svg>
