<svg width="154" height="155" viewBox="0 0 154 155" fill="none" xmlns="http://www.w3.org/2000/svg">
<path d="M28.7522 77.2012C31.1711 78.6409 33.776 79.7422 36.4941 80.4743C36.6857 80.5663 36.8697 80.6429 37.0613 80.7196C37.1367 80.9176 37.2007 81.1198 37.253 81.3251C36.2748 81.5719 35.2847 81.7689 34.2865 81.9153C35.2744 82.4832 36.4068 82.7496 37.5443 82.6819V83.1418C36.5579 83.1384 35.5798 82.962 34.6544 82.6206C33.788 82.2743 32.9668 81.8238 32.2092 81.2791C32.0687 81.2127 31.9187 81.1688 31.7646 81.1488C31.0693 81.4099 30.4508 81.8415 29.966 82.4041C29.4811 82.9666 29.1454 83.6421 28.9898 84.3682C28.8441 85.4721 29.9403 85.2344 30.9904 85.1808C32.7304 85.1118 34.4858 85.0351 36.2258 85.0275C38.9266 84.9944 41.6022 85.5489 44.0674 86.6525C45.9982 87.5827 47.5435 89.1579 48.4367 91.1061C48.8346 92.0269 49.1104 92.9958 49.2569 93.9882C49.5246 95.0533 49.5716 96.162 49.3948 97.246C49.9786 95.3591 50.3287 93.4078 50.4373 91.4357V90.8531C50.5446 89.1054 50.5753 87.0204 49.2569 85.7173C48.5561 85.0217 47.6954 84.5085 46.7503 84.2226C45.7957 83.9071 44.8123 83.6863 43.8145 83.5634C42.8103 83.4024 41.8062 83.3104 40.7484 83.2185C39.6905 83.1265 38.9317 83.1648 38.0042 83.1495C37.9987 82.3534 37.8181 81.5683 37.4753 80.8499C38.9466 81.3147 40.5221 81.336 42.0055 80.9112C43.1553 80.6199 44.7343 80.1447 45.0716 78.8876C45.3169 79.0869 46.6047 79.8074 45.8994 79.3321C45.8228 79.2708 45.8994 79.2708 45.9761 79.3321C46.9956 79.7307 48.1147 79.7767 49.1419 80.1447C50.9662 80.8039 53.0895 81.8924 53.3041 84.0463C53.1984 82.9743 52.8493 81.9406 52.2834 81.024C51.7175 80.1074 50.9497 79.3321 50.0387 78.7572C48.4791 77.8331 46.6832 77.3855 44.8723 77.4695C45.4507 77.0905 45.9377 76.5879 46.298 75.9977C46.8114 75.1417 47.094 74.1671 47.1182 73.1692C47.1234 71.3804 46.7141 69.6147 45.9224 68.0105C46.3 67.642 46.5658 67.1744 46.689 66.6614C46.7608 66.3857 46.7684 66.0973 46.7113 65.8182C46.6541 65.5392 46.5337 65.2769 46.3594 65.0517C46.1524 64.8306 45.9037 64.6527 45.6278 64.528C45.3518 64.4033 45.0539 64.3343 44.7512 64.325C44.4485 64.3158 44.1469 64.3664 43.8639 64.474C43.5808 64.5816 43.3217 64.744 43.1016 64.952C42.5944 65.3309 42.2319 65.8719 42.0745 66.4851C41.9688 66.8814 41.9957 67.3013 42.1511 67.6809C42.0492 67.6977 41.9524 67.737 41.8675 67.7959C41.6299 67.5812 41.3846 67.3819 41.1546 67.152C41.3235 67.4218 41.5132 67.6781 41.7219 67.9185C41.5872 68.0611 41.476 68.2241 41.3922 68.4014C40.8675 68.2015 40.2973 68.1523 39.746 68.2593C39.1947 68.3663 38.6844 68.6253 38.2725 69.007C37.7966 69.3222 37.4182 69.7641 37.1798 70.2828C36.9415 70.8014 36.8527 71.3764 36.9234 71.9428C36.5406 72.2022 36.1791 72.4919 35.8426 72.809C35.5766 73.0162 35.3349 73.2527 35.122 73.5142C34.8567 72.1251 34.9276 70.6926 35.329 69.3366C36.2641 66.6173 37.5035 64.0125 39.0237 61.5716C39.6676 61.5716 42.519 63.5569 42.8027 63.8176H42.8487C43.1282 64.0048 43.3854 64.2234 43.6152 64.4691C43.9996 64.2507 44.4341 64.1359 44.8761 64.1359C45.3182 64.1359 45.7527 64.2507 46.1371 64.4691C46.1848 63.9216 46.1276 63.3701 45.9684 62.8441C46.3198 63.2445 46.551 63.7361 46.6353 64.2621C46.6387 64.2825 46.6489 64.3012 46.6642 64.3151C46.6795 64.329 46.699 64.3374 46.7196 64.3388C46.7407 64.3389 46.7611 64.3311 46.7767 64.3169C46.7923 64.3027 46.802 64.2832 46.804 64.2621C46.9034 63.0676 46.6187 61.8725 45.9914 60.8511C44.8374 59.0879 43.1099 57.7773 41.101 57.1411C38.8506 56.3815 36.4405 56.2253 34.111 56.688C31.7814 57.1507 29.6139 58.2161 27.8247 59.7779C24.4519 62.5528 22.7962 66.2935 23.4018 69.8502C23.8694 72.648 25.8393 75.3309 28.7522 77.2012ZM45.6158 65.2126C45.6267 65.2039 45.6402 65.1992 45.6542 65.1992C45.6681 65.1992 45.6816 65.2039 45.6925 65.2126C45.5999 65.7764 45.4403 66.3271 45.2172 66.853C45.2172 66.9297 45.0486 66.899 45.0869 66.853C45.2939 66.3165 45.4242 65.7722 45.5928 65.2126H45.6158ZM44.466 65.6802C44.466 65.6266 44.5657 65.6802 44.5504 65.6802C44.2714 66.3932 44.0459 67.126 43.8758 67.8725C43.8758 67.9338 43.7608 67.8725 43.7762 67.8725C43.9167 67.1193 44.1404 66.3841 44.443 65.6802H44.466ZM40.779 69.5665C40.7904 69.559 40.8037 69.5549 40.8173 69.5549C40.831 69.5549 40.8443 69.559 40.8557 69.5665C40.7024 70.2028 40.4724 70.8313 40.2578 71.4675C40.2578 71.5365 40.1428 71.4675 40.1581 71.4675C40.3574 70.8313 40.5261 70.1874 40.756 69.5665H40.779ZM39.5449 69.2753C39.5449 69.2216 39.6752 69.2753 39.6599 69.3289C39.3916 70.0954 39.0467 70.862 38.832 71.7282C38.6174 72.5943 38.832 71.7742 38.7784 71.7742C38.7723 71.7742 38.7664 71.773 38.7608 71.7706C38.7552 71.7683 38.7501 71.7649 38.7459 71.7607C38.7416 71.7564 38.7382 71.7513 38.7359 71.7458C38.7336 71.7402 38.7324 71.7342 38.7324 71.7282C38.8718 70.8757 39.1379 70.049 39.5219 69.2753H39.5449ZM30.5458 74.342C30.5927 74.1525 30.6878 73.9782 30.8218 73.8361C30.9823 73.6958 31.1787 73.6029 31.389 73.5678C33.1137 73.2612 34.3018 74.71 35.352 76.0131C35.5896 76.3043 35.8119 76.588 36.0265 76.8256C36.0421 76.8401 36.0627 76.8482 36.084 76.8482C36.1054 76.8482 36.1259 76.8401 36.1415 76.8256C36.1482 76.8191 36.1536 76.8114 36.1572 76.8028C36.1609 76.7943 36.1628 76.7851 36.1628 76.7758C36.1628 76.7665 36.1609 76.7572 36.1572 76.7487C36.1536 76.7401 36.1482 76.7324 36.1415 76.7259C35.7273 75.8475 35.416 74.9241 35.214 73.9741C35.5434 73.7047 35.8463 73.4044 36.1185 73.0773L37.0997 72.1804C37.1431 72.2804 37.1971 72.3755 37.2606 72.464C37.9429 73.3532 39.5602 73.2766 40.8633 72.2417C42.1664 71.2069 42.6723 69.7045 41.9825 68.8077C41.8913 68.6947 41.7856 68.5942 41.6682 68.5087C41.7736 68.3788 41.8976 68.2652 42.0361 68.1715L42.1894 68.3401C42.5538 68.6836 42.9771 68.9589 43.4389 69.1526C43.9218 69.3519 44.5504 69.1526 44.535 69.6509C44.5278 69.8843 44.4587 70.1117 44.3348 70.3096C44.2109 70.5076 44.0366 70.6691 43.8298 70.7777C44.0796 70.7033 44.3018 70.5566 44.4682 70.356C44.6347 70.1555 44.7379 69.9101 44.765 69.6509C44.7734 69.5748 44.7654 69.4979 44.7416 69.4251C44.7178 69.3524 44.6787 69.2856 44.627 69.2293C44.5198 69.1277 44.3827 69.0632 44.2361 69.0453C44.0033 69.0136 43.7746 68.9571 43.5539 68.8767C43.1087 68.6934 42.6989 68.434 42.3427 68.1101C42.3133 68.0756 42.2799 68.0447 42.2431 68.0182L42.3964 67.9338C42.4239 67.9933 42.4572 68.0498 42.496 68.1025C42.678 68.3319 42.9119 68.5148 43.1785 68.6361C43.445 68.7574 43.7366 68.8136 44.0291 68.8C44.6252 68.7941 45.2044 68.6011 45.6848 68.2481C46.3871 69.7777 46.753 71.4402 46.758 73.1232C46.7596 74.048 46.5191 74.9571 46.0604 75.7601C45.5774 76.5772 44.8586 77.2292 43.9984 77.6304C43.9721 77.66 43.9575 77.6982 43.9575 77.7378C43.9575 77.7774 43.9721 77.8156 43.9984 77.8451L44.1824 78.0214L44.2744 78.0904C44.5197 78.3357 44.7726 78.5656 45.0409 78.7879C44.512 80.321 41.7142 80.7502 40.3881 80.8192C39.3556 80.8036 38.3277 80.6777 37.322 80.4436C37.093 80.0497 36.8148 79.6865 36.4941 79.3628C36.0443 78.6739 35.6691 77.939 35.375 77.1705V77.0326C35.3892 77.0153 35.396 76.993 35.3938 76.9708C35.3917 76.9485 35.3808 76.928 35.3635 76.9137C35.3462 76.8995 35.324 76.8927 35.3017 76.8949C35.2794 76.897 35.2589 76.908 35.2447 76.9252C35.0453 77.1628 34.7968 77.3544 34.5162 77.4867C34.2357 77.6191 33.9298 77.689 33.6196 77.6918C32.9891 77.6724 32.3773 77.4729 31.8566 77.1169C31.3821 76.8423 31.0025 76.4297 30.7683 75.9339C30.5341 75.4382 30.4565 74.8829 30.5458 74.342Z" fill="black"/>
<path d="M38.2111 67.5735C37.8327 67.7418 37.5202 68.0301 37.3219 68.3937C37.6899 68.1944 38.0041 67.9951 38.3567 67.8418C38.6994 67.6709 39.0666 67.5545 39.4452 67.4969C39.2473 67.4145 39.0332 67.3786 38.8192 67.3919C38.6053 67.4052 38.3973 67.4673 38.2111 67.5735ZM41.7678 65.9868C41.8292 65.8551 41.8983 65.7271 41.9748 65.6035C42.0505 65.4897 42.1351 65.3821 42.2277 65.2816C42.398 65.0511 42.5878 64.8357 42.7949 64.6377C42.6357 64.6424 42.4797 64.6836 42.3388 64.758C42.198 64.8324 42.0761 64.9381 41.9824 65.067C41.8739 65.1909 41.7976 65.3396 41.7602 65.5001C41.7228 65.6605 41.7254 65.8276 41.7678 65.9868ZM41.2925 72.8472C41.342 72.8986 41.3857 72.9551 41.4229 73.0159C41.5148 73.1692 41.6375 73.3991 41.7448 73.6061C41.8354 73.8042 41.9431 73.994 42.0667 74.1733L42.1587 74.2577C42.1591 74.2743 42.1644 74.2905 42.1739 74.3041C42.1835 74.3178 42.1969 74.3283 42.2124 74.3343C42.3947 74.5542 42.6348 74.7189 42.9057 74.8096C43.1766 74.9004 43.4674 74.9136 43.7454 74.8479C44.0117 74.7675 44.2549 74.6247 44.4549 74.4314C44.6549 74.2381 44.8059 73.9998 44.8952 73.7364V73.6444C45.0575 73.1825 45.1151 72.6903 45.0639 72.2034C45.0643 72.1871 45.0609 72.171 45.0542 72.1562C45.0474 72.1414 45.0374 72.1284 45.0248 72.118C45.0123 72.1077 44.9975 72.1003 44.9817 72.0965C44.9659 72.0927 44.9494 72.0926 44.9336 72.096C44.9181 72.0972 44.9031 72.102 44.8898 72.11C44.8765 72.1179 44.8652 72.1289 44.8569 72.142C44.6076 72.2463 44.3515 72.3334 44.0904 72.4027H43.9984L43.1169 72.6403C42.9032 72.6947 42.6852 72.7306 42.4653 72.7476C42.086 72.7468 41.708 72.7031 41.3385 72.6173C41.3081 72.6101 41.276 72.6148 41.249 72.6305C41.2219 72.6462 41.2018 72.6716 41.1929 72.7016C41.1896 72.7177 41.1895 72.7344 41.1928 72.7505C41.196 72.7667 41.2025 72.782 41.2118 72.7956C41.2211 72.8092 41.233 72.8207 41.2469 72.8296C41.2608 72.8385 41.2763 72.8445 41.2925 72.8472ZM42.5573 73.0082C42.7718 73.0097 42.9856 72.9839 43.1935 72.9316L43.7531 72.7629C44.1204 72.6703 44.4794 72.5472 44.8263 72.395C44.8681 72.8271 44.8077 73.263 44.6499 73.6674C44.5598 73.8784 44.4235 74.0664 44.251 74.2176C44.0786 74.3688 43.8743 74.4794 43.6535 74.5413C43.4297 74.583 43.1994 74.5714 42.9809 74.5075C42.7625 74.4436 42.5623 74.3291 42.3963 74.1733C42.3371 74.1256 42.2831 74.0716 42.2354 74.0124C42.1302 73.8539 42.0379 73.6873 41.9594 73.5141C41.8521 73.2995 41.7371 73.0925 41.6375 72.9239C41.94 72.9862 42.2485 73.0145 42.5573 73.0082ZM71.2026 127.754C69.9991 123.116 68.765 118.417 68.6347 113.619C68.6347 112.423 68.6347 111.227 68.6883 110.032C69.4012 107.985 70.1064 105.938 70.643 103.838C70.695 103.644 70.6983 103.439 70.6526 103.243C70.6069 103.047 70.5137 102.865 70.3811 102.714C70.2486 102.562 70.0807 102.446 69.8925 102.374C69.7042 102.303 69.5012 102.279 69.3016 102.305H65.3999C65.1825 102.282 64.9638 102.334 64.779 102.451C64.6643 102.572 64.5802 102.719 64.5338 102.88L61.9582 110.101C61.9131 109.995 61.845 109.901 61.7587 109.826C61.6725 109.75 61.5704 109.695 61.46 109.664C61.2147 109.664 60.9081 109.572 60.6015 110.162C60.1232 110.949 59.7472 111.794 59.4823 112.676C59.4363 112.554 59.3903 112.431 59.3367 112.316C59.2243 111.957 59.0147 111.636 58.7311 111.388C58.4988 111.236 58.2381 111.131 57.9646 111.082C54.5764 110.245 51.1215 109.707 47.6394 109.472C47.923 106.276 48.4059 103.072 48.9655 99.9518C49.4714 94.954 49.2491 89.7339 44.2207 87.0817C40.9629 85.357 37.3219 85.242 33.6809 85.357C33.2516 86.2232 32.8224 87.097 32.4161 87.9786C29.0127 92.4321 26.1229 96.5637 24.6742 102.343C23.1641 108.657 23.1641 115.239 24.6742 121.553C25.0422 123.391 25.9125 125.092 27.1884 126.466C26.4404 131.069 25.0145 135.535 22.9571 139.719C22.705 140.143 22.575 140.629 22.5815 141.122C22.7047 141.701 23.0378 142.215 23.5167 142.563C26.9431 145.675 31.9485 147.492 36.3638 148.565C40.342 149.539 44.4277 149.585 48.4443 150.259C49.6401 142.364 48.6742 134.392 47.9614 126.412C50.0941 125.326 52.1438 124.083 54.0936 122.695C56.9374 121.974 59.6663 121.231 62.1958 119.629C62.5714 119.376 63.0084 119.138 63.361 118.862C63.361 118.862 64.802 117.697 64.9783 117.544C64.6947 126.842 64.3728 136.101 69.0946 144.472C69.1237 144.552 69.1684 144.627 69.2262 144.69C69.284 144.753 69.3537 144.804 69.4313 144.841C69.5089 144.877 69.5929 144.898 69.6785 144.901C69.7641 144.905 69.8496 144.892 69.9301 144.863C70.0458 144.825 70.1473 144.753 70.2214 144.656C73.0477 142.896 75.2389 140.281 76.4763 137.19C75.2904 136.065 74.1767 134.867 73.1419 133.602C72.242 131.746 71.59 129.78 71.2026 127.754ZM59.5973 112.883C59.8625 111.984 60.2439 111.123 60.7318 110.323C61.1763 109.365 62.3798 110.001 61.4983 111.457C61.4841 111.485 61.481 111.517 61.4896 111.547C61.4981 111.577 61.5177 111.602 61.5443 111.618C61.5606 111.628 61.5791 111.633 61.5979 111.633C61.6168 111.633 61.6353 111.628 61.6516 111.618L63.9052 110.699C64.1273 110.582 64.3747 110.521 64.6257 110.522C65.1623 110.476 64.802 111.12 64.5031 111.488C64.1492 111.878 63.7444 112.218 63.2996 112.5C63.2592 112.522 63.2294 112.56 63.2165 112.605C63.2035 112.649 63.2086 112.697 63.2306 112.737C63.2558 112.775 63.2939 112.802 63.3377 112.814C63.3816 112.825 63.4281 112.82 63.4683 112.799L65.5532 111.902C65.645 111.856 65.7432 111.825 65.8445 111.81C65.9288 111.81 65.9442 111.81 65.9672 111.902C66.0362 112.285 65.6835 112.715 65.2926 112.96C64.9017 113.205 64.4264 113.481 63.9972 113.772C63.973 113.788 63.9533 113.81 63.9399 113.835C63.9265 113.861 63.9198 113.889 63.9205 113.918C63.9262 113.957 63.947 113.993 63.9785 114.017C64.01 114.042 64.0496 114.053 64.0892 114.048C64.4107 114.01 64.7286 113.946 65.0397 113.857C65.3386 113.803 65.7219 113.811 65.6989 114.01C65.5992 114.776 62.7861 115.635 63.154 115.543L62.6558 115.704C62.0254 115.912 61.3757 116.056 60.7164 116.133C60.3485 115.091 59.9499 114.048 59.5283 113.013C59.5425 113.011 59.5559 113.006 59.5676 112.997C59.5792 112.989 59.5888 112.978 59.5955 112.966C59.6022 112.953 59.6058 112.939 59.6061 112.925C59.6065 112.91 59.6034 112.896 59.5973 112.883ZM53.2734 122.848L53.0895 122.894H53.2658C49.7805 125.393 45.891 127.273 41.7678 128.451C38.0118 129.463 34.869 129.632 32.1632 128.95C30.3849 128.546 28.7596 127.642 27.4798 126.343C26.2 125.044 25.3194 123.406 24.9424 121.622C23.4554 115.359 23.4554 108.836 24.9424 102.573C26.5598 96.2418 29.8789 91.8419 33.7805 86.8134C34.0558 86.6459 34.3489 86.5096 34.6544 86.4072C40.1581 84.9584 43.8144 93.0223 44.9949 96.993C45.9377 100.159 45.8994 103.784 44.1134 106.575C44.0521 106.682 43.4772 107.832 43.0249 108.736C43.902 106.088 44.3168 103.308 44.2514 100.519C44.2514 100.476 44.2344 100.435 44.2042 100.405C44.174 100.375 44.1331 100.358 44.0904 100.358C44.0686 100.357 44.0468 100.36 44.0264 100.368C44.006 100.376 43.9873 100.387 43.9716 100.402C43.9558 100.417 43.9433 100.436 43.9347 100.456C43.9261 100.476 43.9217 100.497 43.9217 100.519C43.9986 103.693 43.4463 106.85 42.2967 109.809C42.2814 109.85 42.2824 109.895 42.2995 109.935C42.3167 109.975 42.3486 110.007 42.3887 110.024H42.4653C47.8311 109.434 53.0511 110.392 57.8726 111.503C58.1012 111.542 58.3199 111.626 58.5165 111.749C58.7514 111.971 58.9232 112.251 59.0147 112.561C59.5283 113.818 60.0112 115.098 60.4635 116.356C60.5283 116.503 60.5597 116.662 60.5555 116.823C60.5024 116.986 60.4072 117.131 60.2795 117.245C59.4518 118.167 58.5409 119.011 57.5583 119.767C56.0559 120.909 54.6532 121.936 53.2734 122.879V122.848ZM65.6299 115.949H62.3491C62.3489 115.975 62.3581 116 62.375 116.02C62.3919 116.04 62.4154 116.053 62.4411 116.057H65.0397V116.892C64.7756 117.168 64.4911 117.425 64.1888 117.659L63.1617 118.456C62.8014 118.716 62.3951 118.946 62.0272 119.222C60.7753 120.014 59.4382 120.662 58.0412 121.154C57.2747 121.422 56.2476 121.568 55.3507 121.852C56.1172 121.261 56.9758 120.656 57.8189 120.012C58.8168 119.244 59.743 118.387 60.5861 117.452C60.7597 117.315 60.879 117.122 60.9225 116.905C60.9661 116.689 60.9311 116.464 60.8237 116.271C61.4722 116.189 62.1113 116.046 62.7324 115.842L63.223 115.689C64.6487 115.236 65.0703 115.137 65.6682 114.569C65.7467 114.511 65.8118 114.436 65.8594 114.35C65.9069 114.264 65.9358 114.169 65.9442 114.071C65.9466 114.012 65.9354 113.953 65.9115 113.898C65.8876 113.844 65.8516 113.795 65.8062 113.757C65.7321 113.688 65.6428 113.639 65.5456 113.611C65.3726 113.588 65.1973 113.588 65.0243 113.611H64.917C65.1087 113.496 65.3003 113.389 65.4919 113.259C65.7498 113.128 65.964 112.925 66.1083 112.675C66.2526 112.424 66.3208 112.137 66.3044 111.848C66.2278 111.565 65.9058 111.396 65.4383 111.634L64.5108 112.04C64.6032 111.962 64.6903 111.877 64.7714 111.787C64.9581 111.56 65.1011 111.3 65.193 111.02C65.2238 110.933 65.2336 110.84 65.2216 110.748C65.2096 110.656 65.1762 110.568 65.124 110.492C65.0621 110.427 64.9869 110.376 64.9035 110.343C64.8202 110.31 64.7306 110.295 64.6411 110.3C64.3556 110.307 64.0754 110.377 63.8209 110.507L62.2878 111.158L64.5874 104.674V104.72L64.986 103.547C64.999 103.46 65.0293 103.376 65.0751 103.301C65.121 103.226 65.1814 103.161 65.2528 103.109C65.3243 103.058 65.4053 103.021 65.4911 103.001C65.5769 102.982 65.6658 102.98 65.7525 102.995H69.7155C70.0068 102.995 70.1754 102.995 70.3364 103.309C70.4017 103.516 70.4017 103.738 70.3364 103.945C69.7845 105.892 67.2703 113.527 66.5037 115.443C66.3658 115.819 65.9748 115.942 65.6299 115.949Z" fill="black"/>
<path d="M60.3408 131.403C60.3408 131.403 60.2872 131.349 60.2795 131.403C59.7992 134.372 59.3239 137.335 58.8538 140.294C58.6085 141.827 58.5318 142.295 58.5242 142.272C58.0583 144.662 57.9088 147.102 58.0796 149.531C58.0796 149.555 58.0893 149.579 58.1065 149.596C58.1238 149.613 58.1472 149.623 58.1716 149.623C58.196 149.623 58.2194 149.613 58.2366 149.596C58.2539 149.579 58.2635 149.555 58.2635 149.531C58.3402 146.909 58.5855 144.303 58.8921 141.705C59.0572 144.039 59.7295 146.31 60.8621 148.358C60.9081 148.427 61.0384 148.358 61.0077 148.289C60.1003 145.924 59.4301 143.474 59.0071 140.976C59.3903 137.788 59.8886 134.599 60.3408 131.403Z" fill="black"/>
<path d="M58.8002 140.54C58.8041 140.471 58.8041 140.402 58.8002 140.333C58.8002 140.333 58.5166 142.218 58.5243 142.272C58.5626 141.797 58.8002 140.54 58.8002 140.54ZM130.931 10.3367C129.218 11.1736 127.388 11.7448 125.504 12.0308C127.243 10.2689 128.708 8.25608 129.85 6.0595C129.867 6.02966 129.877 5.99662 129.88 5.96253C129.884 5.92843 129.88 5.89403 129.869 5.86153C129.858 5.82904 129.841 5.79917 129.818 5.77386C129.794 5.74855 129.766 5.72835 129.735 5.71456C129.7 5.69577 129.66 5.68594 129.62 5.68594C129.58 5.68594 129.54 5.69577 129.505 5.71456C128.034 6.69652 126.442 7.48245 124.768 8.05248C123.848 8.35909 122.33 8.95698 121.364 8.52773C120.399 8.09847 119.479 6.88735 118.574 6.34311C115.805 4.70504 112.515 4.18679 109.376 4.89437C106.923 5.43861 99.549 8.24411 98.8055 18.117C98.7441 18.8836 98.9511 19.5888 98.2536 20.0027C97.7553 20.294 95.7317 19.7957 95.1261 19.7421C93.1362 19.5442 91.1635 19.2009 89.2238 18.7149C82.509 17.0209 75.7559 13.7708 73.1267 6.94101C73.05 6.71871 72.6744 6.5884 72.5518 6.86435C71.3417 9.69665 70.9375 12.8082 71.3839 15.8556C71.8302 18.9031 73.1098 21.768 75.0813 24.1343C73.093 23.8471 71.2057 23.0758 69.5853 21.8884C69.5491 21.868 69.5092 21.8551 69.468 21.8503C69.4268 21.8454 69.385 21.8488 69.3451 21.8602C69.3052 21.8716 69.2679 21.8908 69.2355 21.9167C69.203 21.9426 69.176 21.9746 69.156 22.011C69.1457 22.059 69.1457 22.1086 69.156 22.1566C69.0388 25.327 70.0233 28.4401 71.9419 30.9666C73.8606 33.4932 76.5951 35.2773 79.6805 36.0155C78.3367 36.2452 76.9704 36.3147 75.6102 36.2225C75.5693 36.2225 75.5288 36.2306 75.4911 36.2465C75.4534 36.2624 75.4192 36.2857 75.3907 36.315C75.3621 36.3443 75.3397 36.379 75.3247 36.4171C75.3098 36.4552 75.3026 36.4958 75.3036 36.5368C75.3007 36.5622 75.3007 36.5879 75.3036 36.6134C76.1629 38.7367 77.5442 40.6087 79.3197 42.0558C81.0952 43.503 83.2072 44.4785 85.4602 44.8919C83.2571 45.9196 80.9759 46.7706 78.638 47.4368C76.1928 48.142 72.2758 49.5218 69.8613 48.2034C69.8272 48.1828 69.7893 48.1692 69.7499 48.1634C69.7104 48.1577 69.6703 48.1599 69.6317 48.1699C69.5931 48.1799 69.557 48.1975 69.5253 48.2217C69.4936 48.2458 69.4671 48.2761 69.4473 48.3107C69.415 48.3689 69.402 48.436 69.4103 48.5021C69.4185 48.5683 69.4476 48.6301 69.4933 48.6786C73.2033 52.5112 78.6227 54.1746 83.7661 54.8952C83.5195 55.5314 83.3522 56.1956 83.2679 56.8728L82.325 56.2826L82.2407 56.3516C78.1217 59.3432 74.2063 62.6056 70.5205 66.1172C68.7031 67.9446 67.0488 69.9272 65.5764 72.0424C65.2008 72.556 64.8788 73.1386 64.5032 73.5755C64.0915 74.0024 63.5545 74.287 62.9701 74.388C61.7539 74.7406 60.5377 75.1214 59.3215 75.5302C56.9007 76.3283 54.5259 77.2598 52.2081 78.3203L51.2806 78.7649C51.1574 78.7333 51.0317 78.7128 50.905 78.7036C50.7953 78.7092 50.687 78.7298 50.583 78.7649L50.767 78.8569C52.3689 79.936 53.507 81.5775 53.9557 83.4561C54.2471 84.0807 54.58 84.6851 54.9522 85.2651C56.171 87.0971 57.9494 88.5229 59.5514 90.0482C60.6238 91.3682 61.5756 92.7817 62.3952 94.2718C62.6076 94.6748 62.7969 95.0893 62.9625 95.5136C63.4376 96.7149 63.782 97.9639 63.9896 99.239C64.1813 100.297 64.2962 101.37 64.3882 102.435C64.4312 102.352 64.4883 102.277 64.5569 102.213C64.7421 102.097 64.9604 102.046 65.1778 102.067H69.0104C69.0733 99.2543 68.5512 96.4588 67.4773 93.8579C68.3665 93.2677 69.248 92.6468 70.0912 91.9799C72.3455 90.1637 74.4407 88.1583 76.3538 85.9856C80.2365 81.6805 83.1996 76.6282 85.0616 71.1379C85.9834 68.4085 86.5703 65.5771 86.8092 62.7061C87.0239 59.9006 87.0545 59.4177 86.6023 58.9348C87.4596 58.7676 88.2816 58.4538 89.0322 58.0073C89.2731 57.8356 89.4942 57.6376 89.6914 57.417C89.8021 57.3027 89.8928 57.1706 89.9597 57.0261C90.0002 56.9323 90.0093 56.828 89.9859 56.7286C89.9624 56.6292 89.9075 56.54 89.8294 56.4742C89.7171 56.4121 89.5896 56.3828 89.4614 56.3899C89.3572 56.3985 89.2543 56.419 89.1548 56.4512L89.5841 56.1063C89.847 55.9164 90.0429 55.648 90.1437 55.3397C93.8383 55.2796 97.5018 54.6513 101.005 53.4771C102.04 53.1168 103.037 52.7105 104.026 52.2506C103.734 52.7719 103.451 53.2931 103.198 53.8297C103.098 54.006 103.198 54.3126 103.458 54.2819C104.074 54.1603 104.711 54.1893 105.313 54.3663C105.295 54.5928 105.231 54.8133 105.125 55.0147C105.02 55.2161 104.875 55.3944 104.7 55.539C104.517 55.6954 104.303 55.8104 104.072 55.8763C103.852 55.8986 103.637 55.9449 103.428 56.0143C103.412 56.0293 103.4 56.0472 103.392 56.0669C103.384 56.0867 103.379 56.1079 103.379 56.1293C103.379 56.1507 103.384 56.1719 103.392 56.1916C103.4 56.2114 103.412 56.2293 103.428 56.2443C103.543 56.3525 103.692 56.4176 103.849 56.4282L97.832 59.4943C97.4526 59.6925 97.1658 60.0311 97.0326 60.4378C96.8994 60.8445 96.9305 61.2871 97.1191 61.6713L101.849 70.9923C102.041 71.3753 102.377 71.6663 102.784 71.8014C103.191 71.9365 103.635 71.9047 104.018 71.7128L118.735 64.2545C119.117 64.0565 119.405 63.716 119.537 63.3071C119.669 62.8981 119.634 62.4535 119.44 62.0699L114.749 52.7259C114.553 52.3451 114.214 52.057 113.807 51.9236C113.4 51.7902 112.956 51.8223 112.572 52.013L111.223 52.7029C110.71 51.6451 109.468 51.4381 108.372 51.4918C108.873 50.6931 109.319 49.8607 109.706 49.0005C117.1 43.8353 122.257 36.054 124.132 27.2311C124.475 25.6185 124.731 23.9885 124.898 22.3483C125.028 21.0375 124.615 18.14 125.542 17.1819C125.895 16.8139 126.608 16.5456 127.014 16.1854C127.616 15.6217 128.184 15.0227 128.715 14.3917C129.658 13.3339 130.249 11.6475 131.291 10.7507C131.49 10.5437 131.191 10.2141 130.931 10.3367ZM86.6406 59.479C86.7106 59.8192 86.7313 60.1677 86.7019 60.5138C86.7172 61.233 86.6865 61.9525 86.6099 62.6678C86.3461 65.5434 85.7282 68.3754 84.7703 71.0996C82.9403 76.521 80.0214 81.511 76.1928 85.7634C74.2775 87.9039 72.1795 89.8736 69.9226 91.6503C69.1024 92.3095 68.2515 92.9151 67.3777 93.5053C67.1638 93.0406 66.9205 92.59 66.6495 92.1562C64.6412 88.9445 61.2838 86.8365 58.4399 84.3529C56.194 82.4059 54.4923 80.2827 51.7711 78.9872L52.346 78.7113C54.6712 77.6892 57.0346 76.7745 59.4364 75.9671C60.6322 75.5685 61.8433 75.2006 63.0698 74.8326C63.3863 74.751 63.6963 74.6459 63.9973 74.5183C64.3144 74.3801 64.5932 74.1671 64.8098 73.8975C65.2391 73.3685 65.5764 72.832 65.906 72.3107C67.3669 70.2424 69.0031 68.3036 70.7964 66.5158C74.4359 63.0374 78.2751 59.7741 82.2944 56.7425L85.9431 58.8428C86.0112 58.9032 86.0829 58.9595 86.1577 59.0114C86.3672 59.1077 86.5376 59.2727 86.6406 59.479ZM89.2621 55.7843C88.9172 56.068 88.4496 56.4129 88.0894 56.7425C88.0724 56.7589 88.059 56.7786 88.0498 56.8003C88.0406 56.822 88.0359 56.8454 88.0359 56.869C88.0359 56.8926 88.0406 56.9159 88.0498 56.9376C88.059 56.9594 88.0724 56.979 88.0894 56.9955C88.1114 57.0191 88.1393 57.0365 88.1703 57.0459C88.2013 57.0554 88.2341 57.0565 88.2657 57.0491C88.5723 56.9648 88.8329 56.8345 89.0858 56.7502C89.3026 56.6457 89.5479 56.6161 89.7834 56.6658C89.8294 56.6658 89.86 56.7808 89.7834 56.8958C89.4882 57.4069 89.0444 57.816 88.5109 58.0686C87.849 58.3714 87.1508 58.5878 86.4336 58.7125C86.339 58.6394 86.2361 58.5777 86.127 58.5285L83.4978 56.9955C83.5815 56.2876 83.7594 55.5942 84.0267 54.9335C85.2225 55.1175 86.426 55.2248 87.6294 55.2938C87.4991 55.4164 87.3765 55.5467 87.2462 55.6617C87.204 55.7047 87.1804 55.7625 87.1804 55.8227C87.1804 55.8829 87.204 55.9407 87.2462 55.9836C87.2816 56.0024 87.3211 56.0123 87.3611 56.0123C87.4012 56.0123 87.4407 56.0024 87.4761 55.9836L88.5493 55.3014H89.6301C89.5409 55.4853 89.4158 55.6495 89.2621 55.7843ZM105.582 54.4506C105.885 54.6338 106.129 54.8997 106.287 55.2171L105.16 55.7843C105.322 55.6054 105.444 55.3936 105.516 55.1635C105.589 54.9333 105.611 54.6901 105.582 54.4506ZM102.14 70.793L97.5407 61.5946C97.4261 61.3702 97.3858 61.1152 97.4257 60.8664C99.9552 61.334 106.532 62.7674 106.517 62.7904C105.069 65.5 103.836 68.3193 102.83 71.2223C102.559 71.1584 102.317 71.0076 102.14 70.793ZM118.436 64.0092L103.987 71.3142C103.738 71.3967 103.47 71.3967 103.221 71.3142C104.247 68.4109 105.498 65.5917 106.961 62.8824L109.062 63.281C109.081 63.2827 109.1 63.2785 109.116 63.2688C109.133 63.2592 109.146 63.2447 109.154 63.2273C109.491 62.5375 109.82 61.8553 110.158 61.1807C110.334 61.1807 114.903 62.1465 114.979 62.1695C116.42 62.4685 117.8 62.7674 119.073 63.0051C119.064 63.2136 119.001 63.4161 118.889 63.5924C118.777 63.7687 118.621 63.9124 118.436 64.0092ZM114.366 53.0555L118.927 62.0776C118.981 62.1994 119.017 62.3285 119.034 62.4608C117.8 62.2309 111.936 61.0044 110.411 60.7285C111.744 57.9996 113.055 55.3934 114.366 53.0555ZM110.61 53.4924C110.64 53.7079 110.598 53.9272 110.492 54.1168C110.385 54.3064 110.219 54.4559 110.02 54.5426C109.959 54.5801 109.914 54.6381 109.892 54.706C109.87 54.774 109.874 54.8475 109.902 54.9132C109.929 54.9789 109.98 55.0325 110.044 55.0644C110.107 55.0962 110.181 55.1042 110.25 55.0868C110.441 55.0306 110.62 54.9358 110.773 54.8083C110.927 54.6807 111.053 54.523 111.143 54.345C111.234 54.1669 111.287 53.9722 111.299 53.7728C111.312 53.5735 111.283 53.3737 111.216 53.1858C111.882 52.9635 113.124 51.7601 113.975 52.8255C112.289 55.8227 110.595 59.2644 108.87 62.7904C104.424 61.7633 100.653 60.9661 97.6557 60.4065C97.7067 60.2543 97.788 60.1141 97.8947 59.9942C98.0014 59.8743 98.1313 59.7773 98.2765 59.709L106.371 55.6157C106.385 55.821 106.336 56.0256 106.23 56.2023C106.125 56.3789 105.968 56.5193 105.781 56.6045C105.747 56.6248 105.717 56.6519 105.694 56.6841C105.671 56.7163 105.654 56.7529 105.646 56.7916C105.637 56.8304 105.636 56.8705 105.644 56.9095C105.651 56.9485 105.667 56.9856 105.689 57.0185C105.721 57.0704 105.769 57.1109 105.825 57.1343C105.881 57.1576 105.944 57.1627 106.003 57.1488C106.194 57.1003 106.373 57.0126 106.529 56.8911C106.684 56.7697 106.812 56.6171 106.905 56.4433C106.998 56.2695 107.054 56.0781 107.069 55.8815C107.084 55.6849 107.058 55.4873 106.992 55.3014L110.61 53.4924ZM110.61 53.0095L109.591 53.5231C109.857 53.1759 109.978 52.7389 109.928 52.3043C110.217 52.4737 110.455 52.7171 110.618 53.0095H110.61ZM107.544 51.6604C107.452 51.8367 107.544 52.1357 107.805 52.105C108.421 51.9831 109.058 52.0147 109.66 52.197C109.641 52.4228 109.578 52.6428 109.475 52.8442C109.371 53.0455 109.228 53.2242 109.054 53.3698C108.868 53.5239 108.651 53.6363 108.418 53.6994C108.199 53.7254 107.984 53.7715 107.774 53.8373C107.759 53.8523 107.746 53.8702 107.738 53.89C107.73 53.9097 107.726 53.9309 107.726 53.9523C107.726 53.9737 107.73 53.9949 107.738 54.0147C107.746 54.0344 107.759 54.0523 107.774 54.0673C107.866 54.1576 107.984 54.2165 108.111 54.2359L106.862 54.8722C106.379 53.753 105.091 53.5384 103.98 53.5997C104.355 52.9942 104.7 52.3733 105.014 51.7447C106.24 51.1401 107.428 50.4617 108.571 49.7134C108.241 50.365 107.912 51.0089 107.621 51.6604H107.544ZM115.087 12.0768C114.927 12.0968 114.765 12.0691 114.621 11.997C114.477 11.925 114.358 11.8119 114.279 11.6721C114.199 11.5322 114.163 11.372 114.175 11.2116C114.187 11.0512 114.246 10.8978 114.344 10.771C114.443 10.6442 114.578 10.5495 114.73 10.4991C114.883 10.4486 115.047 10.4446 115.202 10.4876C115.357 10.5306 115.496 10.6186 115.601 10.7404C115.706 10.8623 115.772 11.0126 115.792 11.1723C115.796 11.2028 115.796 11.2337 115.792 11.2642C115.805 11.4592 115.743 11.6518 115.62 11.8028C115.496 11.9538 115.319 12.0518 115.125 12.0768H115.087Z" fill="black"/>
</svg>
