<svg width="154" height="155" viewBox="0 0 154 155" fill="none" xmlns="http://www.w3.org/2000/svg">
<path fill-rule="evenodd" clip-rule="evenodd" d="M126.461 16.4226C128.948 16.4773 131.39 17.1014 133.598 18.247C140.604 21.6964 144.613 28.7868 146.682 36.3524C143.179 26.5485 136.434 19.7801 125.986 19.7494C125.871 19.7494 125.871 19.918 125.986 19.918C129.066 19.9321 132.101 20.656 134.855 22.0337C128.562 23.4287 129.052 28.7178 133.598 32.7651C137.484 36.2068 140.259 35.7086 144.276 38.7287C146.629 40.4917 147.411 42.2011 148.261 43.3739C148.261 43.3739 148.583 43.5425 148.645 43.2742C148.706 43.0059 148.898 41.8945 148.951 41.5572C150.063 34.7351 152.017 17.7564 145.402 15.6408C143.103 14.8743 141.386 15.1042 140.121 15.7021C139.327 16.127 138.628 16.709 138.067 17.4128C137.506 18.1165 137.093 18.9272 136.855 19.7954C136.855 19.9027 137.001 19.9487 137.024 19.8337C137.264 18.9985 137.673 18.2211 138.223 17.5489C138.774 16.8768 139.456 16.324 140.228 15.9244C141.855 15.2647 143.675 15.2647 145.303 15.9244C151.673 18.0477 149.549 35.7009 148.369 42.3237C146.836 32.4431 142.765 22.3249 133.713 18.0094C131.452 16.8675 128.956 16.269 126.423 16.2617C126.411 16.2622 126.398 16.2654 126.387 16.2712C126.376 16.2769 126.367 16.2851 126.359 16.295C126.352 16.3049 126.346 16.3164 126.344 16.3286C126.341 16.3407 126.341 16.3533 126.344 16.3655C126.347 16.3776 126.353 16.3889 126.361 16.3986C126.368 16.4083 126.378 16.4162 126.389 16.4217C126.401 16.4272 126.413 16.4301 126.425 16.4302C126.438 16.4304 126.45 16.4278 126.461 16.4226ZM138.963 35.4786C130.923 32.5121 126.607 24.1263 134.924 22.2176C135.005 22.1987 135.088 22.1987 135.169 22.2176C142.229 26.0043 146.131 34.0529 147.802 41.9251C146.092 39.3266 143.854 37.2953 138.963 35.4786ZM54.1085 121.675C54.6878 120.266 54.7609 118.701 54.3155 117.244C54.1031 116.747 53.7655 116.314 53.3356 115.986C52.9057 115.658 52.3982 115.447 51.8626 115.374C47.501 114.477 47.2097 119.881 46.8648 120.326C45.0711 122.219 44.5652 124.22 46.2822 126.19C46.3314 126.241 46.3775 126.294 46.4202 126.351C45.9715 127.198 45.8415 128.179 46.0539 129.114C46.2663 130.049 46.8069 130.878 47.5777 131.448C47.5777 131.54 47.6543 131.648 47.7233 131.709C48.1396 132.053 48.6185 132.313 49.1337 132.475C49.1809 134.027 49.1092 135.58 48.9191 137.121C48.9043 137.264 48.9179 137.409 48.9592 137.547C49.0005 137.685 49.0687 137.814 49.1598 137.926C49.251 138.038 49.3633 138.13 49.4904 138.199C49.6174 138.267 49.7567 138.31 49.9003 138.324C50.1908 138.352 50.4806 138.263 50.7061 138.078C50.9317 137.893 51.0746 137.626 51.1037 137.335C51.2255 135.805 51.2255 134.267 51.1037 132.736C53.181 132.529 54.9364 130.643 53.8019 128.627C54.7831 128.244 55.4499 126.826 55.7949 125.822C55.9539 125.428 56.0311 125.007 56.0219 124.582C56.0127 124.158 55.9172 123.74 55.7412 123.354C55.3668 122.651 54.8006 122.069 54.1085 121.675ZM55.3809 125.646C55.0897 126.512 54.3768 128.129 53.48 128.282C53.4418 128.281 53.4041 128.291 53.372 128.311C53.3398 128.332 53.3149 128.362 53.3006 128.397C53.2862 128.433 53.2833 128.471 53.2921 128.509C53.3009 128.546 53.321 128.579 53.3496 128.604C53.5397 128.858 53.6729 129.149 53.7404 129.459C53.8078 129.768 53.8079 130.089 53.7406 130.398C53.5302 130.957 53.1659 131.445 52.6898 131.806C52.2137 132.167 51.6452 132.386 51.0501 132.437C50.7358 129.064 50.0919 126.734 50.3908 123.844C50.4109 123.73 50.3851 123.613 50.319 123.518C50.2529 123.424 50.152 123.359 50.0382 123.338C49.9236 123.32 49.8065 123.348 49.7119 123.415C49.6174 123.483 49.5529 123.584 49.5323 123.699C48.8118 126.619 49.0571 129.302 49.1261 132.23C48.7964 132.13 47.8153 131.755 47.7616 131.41C47.7616 131.272 45.1401 129.509 46.7038 126.45C46.7193 126.424 46.7274 126.393 46.7274 126.362C46.7274 126.331 46.7193 126.301 46.7038 126.274C46.6042 126.037 45.3471 125.032 45.5694 123.361C45.7878 122.3 46.3222 121.33 47.1024 120.579C47.6007 120.012 47.7463 114.968 51.7016 115.788C54.2771 116.325 54.5148 118.77 53.7252 121.253C53.5566 121.79 53.4263 121.79 53.8479 122.066C54.4334 122.409 54.9175 122.901 55.2506 123.492C55.4176 123.823 55.5153 124.185 55.5377 124.555C55.5602 124.926 55.5068 125.297 55.3809 125.646ZM73.3561 129.739C72.5896 129.953 69.5234 130.973 68.9715 131.119C68.8642 131.119 68.8336 131.157 68.8182 131.234C68.8029 131.31 68.6496 132.981 68.6573 133.058C68.6573 133.265 68.8719 133.196 69.0022 133.158L73.4864 131.663C73.5282 131.649 73.5647 131.622 73.5907 131.586C73.6168 131.551 73.6312 131.508 73.632 131.464V129.931C73.632 129.931 73.5861 129.67 73.3561 129.739ZM73.2104 131.272L68.9639 132.805V131.272C69.6384 131.203 72.5436 130.36 73.2028 130.16L73.2104 131.272ZM89.6449 32.6501C89.7292 32.6501 90.695 32.5045 90.7717 32.4661C92.3047 32.5658 93.7151 32.2362 93.3932 30.6801C93.0176 28.8711 90.9096 28.8175 89.1619 29.3923C88.909 27.9129 87.3453 26.8628 85.9579 26.3262C85.1321 25.9644 84.2004 25.9268 83.3482 26.2208C82.4959 26.5148 81.7857 27.1189 81.3587 27.9129C79.3887 21.0142 74.6055 21.5277 72.6815 25.5444C71.915 27.2461 71.777 29.285 72.6815 30.5191C75.4181 34.0912 85.176 33.2787 89.6449 32.6501ZM76.6215 22.9842C77.113 23.0101 77.5926 23.1445 78.026 23.3778C78.4594 23.611 78.8357 23.9373 79.1281 24.3332C80.0435 25.5616 80.6958 26.9654 81.0444 28.4572C81.0603 28.497 81.0878 28.5312 81.1233 28.5552C81.1589 28.5793 81.2008 28.5921 81.2437 28.5921C81.2866 28.5921 81.3285 28.5793 81.364 28.5552C81.3996 28.5312 81.4271 28.497 81.443 28.4572C81.8241 27.6544 82.4565 26.9978 83.2443 26.5868C83.6484 26.4065 84.0858 26.3133 84.5283 26.3133C84.9707 26.3133 85.4082 26.4065 85.8122 26.5868C87.1306 27.1004 88.748 28.1199 88.8783 29.5073C88.8783 29.745 89.1236 29.6683 89.3689 29.5916C90.902 29.0857 92.8106 29.0627 93.2016 30.6571C93.5005 31.9756 92.3047 32.2898 90.9633 32.1902C90.3807 32.1902 90.695 32.1902 89.9055 32.3128C85.3063 32.9184 75.5867 33.4856 73.0418 30.1359C71.3401 28.0433 73.4327 22.9842 76.6215 22.9842ZM66.5953 131.31C65.7539 131.243 64.9094 131.222 64.0657 131.249C64.0044 131.249 63.9814 131.31 63.9814 131.333C63.8664 131.946 63.6748 134.277 63.6748 134.292C63.6727 134.316 63.6754 134.341 63.6828 134.364C63.6901 134.387 63.702 134.408 63.7176 134.427C63.7333 134.445 63.7525 134.461 63.7741 134.472C63.7957 134.483 63.8193 134.489 63.8434 134.491L66.3653 134.821C66.3941 134.824 66.4233 134.821 66.451 134.813C66.4788 134.805 66.5045 134.791 66.5267 134.772C66.5489 134.753 66.5671 134.731 66.5802 134.705C66.5933 134.679 66.6011 134.651 66.603 134.622L66.7716 131.51C66.7737 131.46 66.7566 131.411 66.7237 131.374C66.6908 131.337 66.6448 131.314 66.5953 131.31ZM66.189 134.376L64.0657 134.131L64.1501 131.41C64.5793 131.41 65.9514 131.609 66.373 131.663L66.189 134.376ZM40.6406 51.2078C39.2838 51.2845 39.2148 53.2391 39.3068 54.5729C39.3068 54.6419 39.3068 54.7798 39.3988 54.7875C39.4908 54.7952 40.0733 54.7875 42.0893 54.8872C42.2963 54.8872 42.3116 54.6572 42.3269 54.4656C42.4419 53.0475 42.0893 51.1312 40.6406 51.2078ZM70.1443 54.8872C70.3513 54.8872 70.3666 54.6572 70.3819 54.4656C70.4969 53.0475 70.1443 51.1312 68.6956 51.2078C67.2468 51.2845 67.3005 53.2391 67.3618 54.5729C67.3772 54.8872 67.3388 54.7798 70.1443 54.8872ZM63.4678 54.8872C63.6748 54.8872 63.6901 54.6572 63.7055 54.4656C63.8204 53.0475 63.4678 51.1312 62.0191 51.2078C60.5704 51.2845 60.5934 53.3234 60.6777 54.6495C60.67 54.8565 60.624 54.7798 63.4678 54.8872ZM49.379 37.8548H49.4633C49.402 37.8548 49.402 37.9238 49.4173 37.9622C49.4327 38.0005 49.3407 38.0082 52.1539 38.1155C52.3608 38.1155 52.3761 37.8778 52.3915 37.6939C52.5065 36.2758 52.1539 34.3518 50.7051 34.4361C49.2564 34.5204 49.2794 36.4674 49.3713 37.8012C49.3713 37.8012 49.379 37.8319 49.379 37.8548ZM49.0264 54.4656C49.1414 53.0475 48.7888 51.1312 47.34 51.2078C45.8913 51.2845 45.9143 53.2391 46.0063 54.5729C46.0063 54.6725 46.0063 54.7798 46.1289 54.7952C46.2516 54.8105 46.8955 54.7952 48.7888 54.8872C48.9957 54.8948 49.0111 54.6572 49.0264 54.4656Z" fill="black"/>
<path fill-rule="evenodd" clip-rule="evenodd" d="M75.778 127.999C74.8351 126.632 73.6567 125.443 72.298 124.488C71.884 124.174 63.7511 124.902 63.2759 124.956C62.8006 125.01 57.4886 128.681 57.3353 128.842C57.3226 128.85 57.312 128.86 57.3047 128.873C57.2973 128.886 57.2935 128.9 57.2935 128.915C57.2935 128.93 57.2973 128.944 57.3047 128.957C57.312 128.97 57.3226 128.98 57.3353 128.988C57.6726 129.072 58.1631 129.187 58.7534 129.287C58.7534 129.348 58.2628 135.542 58.5311 136.546C58.5847 136.737 58.692 136.806 58.7687 136.814C59.8342 137.006 60.2328 137.167 65.8284 138.018C66.7713 138.163 67.1085 138.102 67.4918 138.163C67.6375 138.163 73.8387 135.02 74.1606 134.56C74.2296 134.469 74.1606 134.56 74.2143 133.733C74.2679 132.905 74.3676 130.084 74.2986 128.865C74.8275 128.704 76.0923 128.398 75.778 127.999ZM57.6036 128.903C58.3701 128.39 62.816 125.492 63.2989 125.354C64.2877 125.761 67.7524 129.187 68.5496 129.954C67.3922 129.892 59.5276 129.264 57.6036 128.865V128.903ZM73.808 134.377C73.3941 134.683 70.7419 136.071 67.8751 137.726C67.8751 137.458 68.1434 130.827 68.1434 130.713C68.1434 130.598 67.9977 130.613 67.9747 130.713C67.9517 130.812 67.4918 137.458 67.4611 137.757C65.5089 137.588 63.5669 137.317 61.6432 136.944C61.7505 136.232 62.0111 134.039 62.0111 133.372C62.0111 132.705 60.0411 132.422 59.8112 132.92C59.6865 134.142 59.6609 135.373 59.7345 136.599L58.968 136.461C58.738 135.327 58.968 130.513 58.968 129.348C61.03 129.708 67.5531 130.49 68.8869 130.375C68.9484 130.38 69.0094 130.361 69.0577 130.323C69.106 130.284 69.1381 130.229 69.1475 130.168C70.8412 129.893 72.5118 129.49 74.1453 128.965C74.1223 129.731 73.8157 134.131 73.808 134.338V134.377ZM69.0862 129.961C68.6876 129.256 64.7553 125.799 63.7205 125.14C69.0095 124.933 71.6081 124.803 72.0603 124.849C73.3762 125.775 74.5577 126.879 75.571 128.129C75.2031 128.313 71.3935 129.202 69.0862 129.923V129.961ZM147.541 86.706C146.744 86.1209 145.835 85.706 144.871 85.4871C143.907 85.2682 142.909 85.2499 141.937 85.4336C141.063 85.6667 140.269 86.1351 139.642 86.7878C139.015 87.4405 138.578 88.2527 138.381 89.1359C137.684 88.1935 136.663 87.5431 135.514 87.3109C134.366 87.0786 133.172 87.281 132.164 87.8788C130.47 88.7603 128.784 90.1784 128.546 92.064C127.366 90.3394 125.587 89.2892 123.564 89.8794C122.115 90.301 120.382 91.2362 119.685 92.5546C119.649 92.612 119.62 92.6738 119.601 92.7386C119.143 93.4136 118.935 94.2264 119.01 95.0382C119.091 95.4453 119.274 95.8251 119.542 96.1417C119.81 96.4582 120.155 96.7011 120.543 96.8472C123.441 98.1886 142.55 98.8785 145.77 97.0235C150.17 94.5169 150.729 88.9059 147.541 86.706ZM119.7 92.6849H119.647C119.647 92.6849 119.685 92.6773 119.7 92.6849ZM145.601 96.6709C142.604 98.4033 123.479 97.905 120.674 96.6709C118.045 95.4904 119.662 93.0759 119.769 92.7922C120.398 91.5045 122.184 90.554 123.602 90.1554C124.081 90.0138 124.585 89.9747 125.08 90.0408C125.575 90.1068 126.051 90.2764 126.476 90.5386C127.329 91.0756 128.033 91.8191 128.523 92.7003C128.537 92.7305 128.561 92.7554 128.59 92.7711C128.619 92.7868 128.653 92.7924 128.686 92.7872C128.719 92.782 128.749 92.7662 128.772 92.7422C128.796 92.7183 128.81 92.6874 128.814 92.6543C128.814 92.4396 128.646 90.1094 132.302 88.2544C133.004 87.8459 133.807 87.641 134.619 87.6627C135.431 87.6843 136.221 87.9317 136.901 88.377C137.442 88.7161 137.89 89.1852 138.204 89.7415C138.194 89.7877 138.2 89.836 138.221 89.8785C138.242 89.9209 138.277 89.9548 138.32 89.9745C138.363 89.9942 138.412 89.9986 138.458 89.9869C138.503 89.9752 138.544 89.9481 138.572 89.9101C138.68 89.7721 139.093 86.614 142.014 85.8935C142.927 85.7244 143.864 85.7447 144.769 85.953C145.673 86.1614 146.526 86.5533 147.272 87.1046C150.223 89.0669 149.679 94.31 145.601 96.6709ZM56.0782 37.855H56.1625C56.1012 37.855 56.1012 37.924 56.1165 37.9623C56.1318 38.0006 56.0398 38.0083 58.853 38.1156C59.06 38.1156 59.0753 37.878 59.0906 37.694C59.2056 36.2759 58.853 34.352 57.4043 34.4363C55.9555 34.5206 55.9785 36.4676 56.0705 37.8013C56.0705 37.8013 56.0782 37.832 56.0782 37.855Z" fill="black"/>
<path fill-rule="evenodd" clip-rule="evenodd" d="M128.845 92.5623C128.849 92.5692 128.851 92.5772 128.851 92.5853C128.851 92.5933 128.849 92.6013 128.845 92.6083C128.845 92.6083 128.861 92.6312 128.845 92.5623Z" fill="black"/>
<path fill-rule="evenodd" clip-rule="evenodd" d="M124.024 79.0943C122.319 79.5824 120.578 79.9386 118.819 80.1598C115.684 80.4204 110.387 80.842 107.252 80.5967C104.482 80.3992 101.789 79.5959 99.3643 78.2435C99.9741 76.1824 100.936 74.2426 102.208 72.5098C105.952 72.0446 109.641 71.2154 113.223 70.0339C113.244 70.0268 113.262 70.0115 113.272 69.9914C113.282 69.9713 113.284 69.948 113.277 69.9266C113.27 69.9053 113.254 69.8876 113.234 69.8776C113.214 69.8675 113.191 69.8658 113.169 69.8729C109.876 70.8973 106.501 71.6384 103.082 72.0882C100.816 72.4074 98.5188 72.4409 96.2445 72.1879C89.6217 71.2987 80.5153 63.756 79.6797 61.6787C78.9592 59.9081 80.2087 58.6126 81.7647 57.4705C83.3208 56.3284 91.607 60.6976 95.2403 60.23C98.8737 59.7624 110.839 54.8643 111.123 54.8643C111.134 54.8643 111.145 54.8621 111.155 54.8579C111.165 54.8536 111.175 54.8474 111.182 54.8396C111.19 54.8318 111.196 54.8225 111.201 54.8122C111.205 54.802 111.207 54.791 111.207 54.78C111.207 54.7689 111.205 54.7579 111.201 54.7477C111.196 54.7375 111.19 54.7282 111.182 54.7203C111.175 54.7125 111.165 54.7063 111.155 54.7021C111.145 54.6978 111.134 54.6956 111.123 54.6956C110.694 54.7876 98.9887 59.4405 95.2327 59.8927C92.0899 60.2837 85.2678 56.7653 82.4699 56.9033C83.0065 56.2747 84.9535 54.0824 84.5319 53.3695C88.0809 49.3683 89.0544 47.6436 91.3693 44.8074C91.3233 47.061 95.8306 49.5446 94.7114 46.3405C94.9985 46.6328 95.343 46.8624 95.7232 47.015C96.2905 47.2066 96.827 46.8847 96.4898 46.1412C96.3939 45.9378 96.2811 45.743 96.1525 45.5586C96.6277 45.7272 97.1107 45.5586 97.1183 45.0297C97.1183 44.2248 95.8919 42.7761 95.5316 42.2702C96.0145 41.657 97.6626 39.6946 97.2563 39.0661C97.1643 38.9281 97.1796 39.2654 98.5364 36.7665C103.603 27.4225 103.902 17.9558 103.565 17.7182C103.549 17.7086 103.531 17.7038 103.513 17.7044C103.495 17.705 103.477 17.7111 103.462 17.7218C103.448 17.7325 103.436 17.7473 103.43 17.7644C103.424 17.7815 103.423 17.8001 103.427 17.8179C103.448 17.9576 103.448 18.0997 103.427 18.2395C103.274 20.481 102.938 22.7062 102.423 24.8929C101.277 29.7795 99.4396 34.4773 96.965 38.8438C95.8075 38.3149 87.3067 49.2226 87.2301 49.2993C86.5709 48.0345 84.9305 47.7662 83.5431 47.9042C82.6286 47.9706 81.732 48.1909 80.8909 48.5557C80.1481 47.9297 79.21 47.5827 78.2387 47.5746C77.7728 47.6139 77.3225 47.7611 76.9234 48.0046C76.5242 48.2481 76.1872 48.5811 75.9391 48.9773C75.9391 48.7857 76.284 44.4701 76.2917 44.3781C79.8561 44.3781 79.8331 44.3781 79.902 44.1329C80.0094 43.7956 79.902 41.5573 79.902 40.6835C79.902 39.8096 78.6449 39.6946 77.7864 39.9629C77.4798 40.0626 77.3265 40.1699 77.2652 40.4765C77.2039 40.7831 77.2652 41.1051 77.2192 41.3427C76.7276 41.4459 76.219 41.4354 75.7321 41.312C75.6095 40.9824 75.9621 40.1392 75.4332 39.8326C74.766 39.6027 74.0606 39.5038 73.3559 39.5413C72.5893 39.6027 72.3517 39.9169 72.2904 40.5762V41.4883C71.8074 41.5287 71.321 41.4925 70.8493 41.381C70.7957 40.9977 71.018 39.526 70.2974 39.4877C69.5769 39.4494 68.0975 39.0814 67.8445 40.0013C67.6529 40.6911 67.7295 46.2561 67.7449 46.9843C67.5072 46.9843 67.2083 46.9843 66.9783 47.0303L67.262 31.7381C67.6682 31.2551 68.6877 30.113 69.094 29.6991C69.7532 29.0399 69.6075 27.2692 69.3239 26.3723C68.9253 25.1152 64.1038 25.2839 62.9387 25.5215C61.7736 25.7591 62.9387 27.9361 62.4022 29.0322C61.9192 30.0057 58.8455 29.2315 57.6727 29.2468C56.6685 29.2468 57.2971 27.0852 56.7605 26.1807C56.3236 25.4525 54.5529 25.4602 53.6944 25.4755C53.6944 24.9849 53.6484 21.2366 53.633 20.4854C56.2162 18.6994 58.5772 17.0283 58.9988 16.7984C59.2747 16.7447 59.1597 16.3844 58.9528 16.3998C58.3319 16.1545 53.9167 13.3337 53.3648 13.0117C53.3315 12.9906 53.2932 12.979 53.2538 12.9782C53.2145 12.9774 53.1757 12.9874 53.1416 13.0072C53.1076 13.027 53.0797 13.0558 53.0609 13.0904C53.0421 13.1249 53.0332 13.164 53.0351 13.2033C53.0351 13.2033 53.3494 24.9926 53.3724 25.4678C52.6059 25.4678 52.0233 25.5522 51.5021 25.5981C49.7697 25.7361 50.8582 28.2273 50.7356 29.3618C50.6282 30.2816 48.8116 29.6071 46.7189 29.4615C45.6305 29.3848 45.3162 28.9096 45.3315 27.9284C45.3468 26.9472 45.5001 26.6023 45.0172 26.3953C44.0974 25.9507 40.9086 26.3417 39.8891 26.4873C39.8469 26.4954 39.8084 26.5169 39.7793 26.5487C39.7503 26.5805 39.7324 26.6208 39.7282 26.6636C39.7282 26.587 39.5519 28.4496 39.4982 29.9137C39.4446 31.3778 41.6368 31.7151 41.7288 32.7422C41.8208 33.7694 41.7288 45.8652 41.7288 46.8847H39.9351C40.0578 45.9265 40.648 41.0974 40.1651 40.2849C39.859 39.9333 39.4602 39.675 39.0142 39.5394C38.5683 39.4039 38.0931 39.3966 37.6432 39.5183C37.3289 39.641 37.2523 39.8556 37.2293 40.2312C37.263 40.6636 37.245 41.0985 37.1756 41.5266C36.8307 41.68 35.7116 41.8179 35.6426 41.5266C35.5736 40.9824 36.1101 39.3804 35.3973 39.2271C34.6844 39.0737 32.8141 38.7365 32.5841 39.5183C32.4155 40.1086 32.6684 41.4193 32.4921 41.7106C31.8154 41.8199 31.127 41.838 30.4455 41.7643C30.5221 41.3274 30.5528 39.2347 29.9702 39.1581C29.6253 39.1121 27.8853 38.4759 27.6247 39.296C27.364 40.1162 27.0268 43.2513 27.6247 44.2785C27.6711 44.3688 27.736 44.4482 27.8153 44.5116C27.8946 44.575 27.9863 44.621 28.0846 44.6464C29.5471 44.8658 31.0215 44.9963 32.4998 45.0374C32.5458 48.4944 32.929 57.2482 32.3925 64.4382C31.1972 64.1104 29.9212 64.2616 28.8358 64.8598C27.0651 65.6954 25.2407 67.0904 24.9035 69.0068C24.4673 68.1687 23.7599 67.5032 22.8967 67.119C22.0336 66.7347 21.0657 66.6544 20.151 66.8911C17.2918 67.604 15.5518 69.3517 15.1379 70.6855C14.5706 70.6855 6.02382 70.5858 5.17298 70.3942C4.93694 69.8693 4.82067 69.2985 4.8326 68.723C4.84453 68.1476 4.98437 67.5821 5.24196 67.0675C6.11454 65.542 7.45983 64.3421 9.07462 63.6487C9.12336 63.6511 9.17154 63.6374 9.21171 63.6097C9.25188 63.582 9.28182 63.5418 9.29691 63.4954C10.2955 61.272 12.0577 59.4799 14.264 58.444C16.5011 57.471 18.9896 57.2348 21.3698 57.7694C21.4057 57.7821 21.4446 57.7837 21.4814 57.7742C21.5183 57.7646 21.5515 57.7443 21.5767 57.7158C24.5049 54.458 28.1306 53.8831 31.7409 56.7346C31.8712 56.8419 31.9402 56.7346 31.8252 56.589C31.6972 56.4632 31.5615 56.3454 31.419 56.2364C30.0087 55.1016 28.2287 54.5282 26.4212 54.6267C24.4548 54.8696 22.6531 55.8471 21.3774 57.3632C18.9346 56.8345 16.388 57.0755 14.0877 58.053C11.8113 59.117 9.988 60.9567 8.94431 63.2425C7.53419 63.8654 6.30326 64.8328 5.36461 66.0556C4.86862 66.6929 4.55999 67.4558 4.47334 68.2587C4.38669 69.0616 4.52544 69.8727 4.87403 70.6012L4.96601 70.6931C5.65589 70.9997 14.9692 70.9384 15.0689 70.9614C14.8159 71.9196 15.1455 72.8778 16.51 73.5753C19.3615 75.047 38.3561 75.8212 42.0048 74.6024C43.6988 74.0429 45.0709 72.3029 45.7378 70.4019C57.1974 70.7928 72.5663 70.9997 74.2527 70.9614C73.1834 73.7873 72.3026 76.6809 71.6158 79.6232C70.9796 79.8378 65.6369 83.7318 64.901 86.8976C59.7902 85.1437 54.25 85.0845 49.1028 86.729C49.1273 86.564 49.1401 86.3975 49.1412 86.2307C49.2178 83.3026 48.3746 79.6385 45.8987 78.0212C41.8821 75.4226 35.083 76.3578 30.1389 82.6204C25.7926 88.1777 23.1635 98.7711 22.3509 105.685C22.3444 105.741 22.36 105.797 22.3944 105.842C22.4288 105.886 22.4792 105.915 22.5349 105.923C28.059 106.648 33.6486 106.731 39.1916 106.168C43.2389 105.662 47.1099 104.574 49.6087 102.481C52.2763 100.243 53.0121 97.9433 52.8512 95.8967C52.6136 92.7616 50.2603 90.2397 49.5398 89.5421C54.13 88.9763 58.7755 90.0017 62.7011 92.4473C61.8732 94.126 59.428 100.113 59.267 102.719C59.1864 103.193 59.2936 103.679 59.566 104.076C59.3284 104.42 58.5695 105.501 58.1786 105.609C57.6113 105.785 51.6094 105.954 51.1265 107.096C50.9732 107.464 51.3181 107.747 51.6631 107.939C54.1926 109.326 57.7953 109.51 60.1409 109.725C61.2754 109.825 62.3792 107.149 62.7931 106.069C62.9992 106.053 63.1999 105.995 63.3833 105.9C64.0349 105.547 67.216 102.749 69.1323 101.055C69.554 100.694 70.0142 100.381 70.5044 100.12C70.7267 101.523 71.0103 102.941 71.3706 104.359C73.6702 113.297 76.8819 120.211 81.2435 124.994C79.9634 126.926 78.8136 129.747 78.9439 132.1C78.9657 132.982 79.2 133.847 79.627 134.619C80.054 135.392 80.6611 136.05 81.3968 136.538C82.7915 137.382 83.9267 138.594 84.6775 140.041C84.9258 140.498 85.0558 141.009 85.0558 141.528C85.0558 142.048 84.9258 142.559 84.6775 143.015C84.6465 143.052 84.6286 143.098 84.6268 143.146C84.625 143.194 84.6394 143.241 84.6677 143.28C84.696 143.319 84.7365 143.347 84.7828 143.361C84.829 143.374 84.8783 143.371 84.9228 143.353C85.0338 143.319 85.1416 143.275 85.2448 143.222C85.7163 142.99 86.1323 142.659 86.4643 142.252C86.7963 141.844 87.0366 141.37 87.1688 140.861C87.4217 139.75 87.1688 138.224 85.4594 136.224C84.1486 134.691 83.75 133.357 83.819 132.292C83.9023 131.616 84.1434 130.97 84.523 130.405C84.9025 129.841 85.4098 129.374 86.0036 129.041C91.9596 132.943 99.5712 133.97 109.199 131.954C119.11 129.862 121.517 123.522 120.015 117.49C119.733 116.385 119.335 115.314 118.826 114.293C121.342 112.785 124.067 111.656 126.913 110.944C126.643 111.183 126.433 111.482 126.299 111.818C126.166 112.154 126.114 112.516 126.147 112.875C126.584 115.045 131.72 115.681 133.919 115.872C137.529 116.222 140.887 117.876 143.363 120.525C143.877 121.07 143.823 121.116 143.976 121.116C143.976 121.116 144.183 121.047 144.191 120.909C144.191 120.985 146.368 107.502 138.243 103.792C135.567 102.573 133.643 102.596 132.202 103.171C129.405 104.321 128.722 107.671 128.669 107.993C124.675 108.062 120.658 109.572 117.171 111.626C114.281 107.686 109.835 104.896 105.412 105.31C99.5329 105.854 95.4856 107.548 95.4856 107.908C95.4848 107.928 95.4909 107.947 95.5027 107.962C95.5145 107.978 95.5313 107.989 95.5503 107.994C95.5693 107.998 95.5893 107.996 95.6069 107.987C95.6244 107.979 95.6385 107.964 95.6466 107.947C95.7734 107.862 95.9067 107.788 96.0452 107.724C98.5977 106.475 102.614 105.793 105.428 105.547C117.355 104.512 129.397 127.317 109.084 131.54C87.9966 135.971 77.2652 125.477 71.7692 104.275C67.8599 89.1665 72.9343 71.8123 79.1738 61.4488C79.3501 62.2996 79.7871 62.6829 80.5689 63.5107C84.0729 67.027 88.2422 69.81 92.8334 71.6973C89.7771 74.4706 87.175 77.7064 85.1221 81.2866C78.7523 92.4166 78.323 105.693 85.996 119.414C86.7256 120.772 87.5856 122.055 88.5638 123.246C88.1291 123.7 87.7342 124.19 87.3834 124.711C86.8008 125.653 87.1688 126.09 88.0656 125.945C89.0532 125.764 90.0122 125.452 90.9171 125.017C94.2196 126.38 97.7619 127.065 101.334 127.033C108.647 126.765 112.564 122.25 112.288 118.517C111.958 114.155 104.048 107.241 95.9685 114.47C95.9512 114.485 95.9407 114.506 95.9393 114.529C95.9379 114.552 95.9456 114.575 95.9609 114.592C95.9761 114.61 95.9976 114.62 96.0206 114.622C96.0436 114.623 96.0662 114.615 96.0835 114.6C104.078 107.701 111.567 114.546 111.859 118.548C112.119 121.974 108.478 126.313 101.319 126.658C97.8429 126.738 94.3839 126.147 91.1317 124.918C92.7643 124.101 94.3348 123.166 95.8306 122.12C96.7964 121.491 95.9915 118.678 95.6542 117.574C95.9455 114.6 95.3016 106.406 95.041 103.455C95.7386 102.903 104.071 96.3872 109.981 93.4284C115.753 90.5386 118.903 81.6852 119.263 80.5507C120.704 80.3284 121.923 80.0908 122.789 79.8915C124.131 79.5849 124.376 79.5082 124.422 79.3396C127.335 73.5063 123.709 53.5075 122.667 51.3382C122.527 51.0051 122.264 50.7391 121.932 50.5962C121.601 50.4532 121.226 50.4444 120.888 50.5717C121.494 49.0846 122.161 47.0763 122.598 45.5586C124.131 46.0875 125.495 44.8994 126.162 43.5043C128.623 43.19 129.09 40.9211 128.753 38.4529C129.857 36.8202 129.658 35.5477 129.006 34.6202C128.216 33.6118 127.074 32.9384 125.81 32.7345C126.048 31.8616 126.016 30.9367 125.718 30.0823C125.25 29.0629 124.246 28.8022 123.127 28.8712C125.334 23.6742 126.246 17.1433 126.576 11.5323C126.57 11.5133 126.559 11.4967 126.543 11.4848C126.527 11.473 126.508 11.4666 126.488 11.4666C126.468 11.4666 126.449 11.473 126.433 11.4848C126.417 11.4967 126.405 11.5133 126.4 11.5323C126.476 10.1832 125.718 21.1676 122.567 28.9326C122.347 28.973 122.138 29.063 121.958 29.1958C121.777 29.3286 121.629 29.5007 121.525 29.6991C121.042 27.8671 119.593 27.0009 117.692 27.0086C117.185 26.975 116.677 27.0424 116.197 27.2069C115.717 27.3714 115.274 27.6297 114.894 27.9667C114.574 28.296 114.323 28.686 114.156 29.1139C113.988 29.5418 113.908 29.9987 113.921 30.4579C111.337 29.7604 110.579 32.8419 111.406 35.3254C111.458 35.5427 111.576 35.7387 111.743 35.8868C111.911 36.0349 112.12 36.1279 112.342 36.1533C110.763 41.266 110.579 48.0958 116.013 47.5286C115.101 48.9467 113.514 51.8058 112.947 52.8253C112.418 52.8253 111.652 52.7717 111.652 52.2427C111.646 52.2238 111.634 52.2071 111.619 52.1953C111.603 52.1834 111.583 52.177 111.564 52.177C111.544 52.177 111.524 52.1834 111.509 52.1953C111.493 52.2071 111.481 52.2238 111.475 52.2427C111.475 53.3925 114.059 53.0093 115.193 52.8023C116.451 52.542 117.677 52.1462 118.849 51.6219C119.625 51.3262 120.416 51.0703 121.218 50.8553C121.449 50.8087 121.689 50.8435 121.897 50.9539C122.106 51.0643 122.269 51.2435 122.36 51.4609C123.295 53.4155 126.791 73.4067 124.024 79.0943ZM113.215 52.8176C114.327 50.9856 116.197 47.8735 116.604 47.3829C116.628 47.3504 116.642 47.3114 116.645 47.2708C116.647 47.2302 116.637 47.1898 116.617 47.1546C116.597 47.1194 116.566 47.0911 116.53 47.0731C116.493 47.0551 116.452 47.0482 116.412 47.0533C112.066 47.8199 111.422 43.8416 111.951 39.48C112.085 38.3583 112.295 37.2469 112.579 36.1533C113.775 36.1533 115.408 34.7965 115.967 34.4592C117.439 36.9121 121.41 37.0578 121.532 37.1344C121.75 37.296 121.931 37.5018 122.063 37.7383C122.195 37.9748 122.275 38.2366 122.299 38.5065C122.4 39.344 122.351 40.193 122.153 41.0131C122.153 41.0131 122.222 41.1894 122.345 41.1051C122.48 40.9781 122.644 40.8858 122.822 40.8362C123.001 40.7867 123.188 40.7812 123.37 40.8205C123.551 40.8597 123.719 40.9424 123.861 41.0614C124.003 41.1804 124.114 41.3322 124.185 41.5037C124.31 41.6559 124.378 41.8469 124.378 42.0441C124.378 42.2412 124.31 42.4322 124.185 42.5845C123.951 42.7889 123.676 42.9395 123.378 43.0256C123.08 43.1117 122.766 43.1312 122.46 43.0827C122.397 43.0649 122.331 43.0605 122.266 43.0697C122.202 43.079 122.14 43.1017 122.084 43.1364C121.609 43.4353 121.854 44.5698 121.9 45.1293C121.903 45.1551 121.913 45.1796 121.927 45.201C121.942 45.2223 121.962 45.2398 121.985 45.252L122.253 45.413C122.069 45.9265 120.658 50.2804 120.559 50.6637C118.834 51.1389 116.519 52.695 113.238 52.8176H113.215ZM85.3904 117.697C86.3036 116.338 87.3485 115.072 88.5102 113.918C89.0481 115.461 89.7524 116.942 90.6105 118.333C90.9562 118.749 91.3911 119.082 91.8829 119.307C91.8216 120.502 91.6606 119.881 88.6712 123.086C87.3874 121.417 86.2947 119.609 85.4134 117.697H85.3904ZM95.3553 118.678C95.4597 118.484 95.5322 118.274 95.5699 118.057C95.7539 118.824 96.3365 121.361 95.6159 121.782C93.4773 123.101 90.6105 125.055 87.9506 125.492C87.8315 125.514 87.7095 125.514 87.5903 125.492C86.6322 125.354 91.676 120.617 91.9442 120.196C92.0606 119.941 92.1182 119.663 92.1129 119.383C92.6632 119.618 93.2729 119.677 93.8578 119.55C94.4427 119.424 94.974 119.119 95.3783 118.678H95.3553ZM97.195 82.1604L87.4294 93.3824C86.3802 95.0165 85.5576 96.7855 84.9841 98.6408C84.2176 101.983 87.1151 110.338 88.3799 113.581C87.0895 114.634 86.0434 115.954 85.3138 117.452C81.5807 109.687 79.7487 101.592 81.2818 93.0068C81.8874 92.9608 84.9305 92.7232 87.1688 92.5776C87.3297 92.386 97.1337 82.0455 97.1337 82.0455C97.1398 82.0307 97.15 82.018 97.163 82.0088C97.1761 81.9996 97.1915 81.9943 97.2075 81.9935C97.2234 81.9928 97.2393 81.9965 97.2532 82.0044C97.2671 82.0123 97.2784 82.024 97.2859 82.0381C97.2935 82.0522 97.2968 82.0681 97.2956 82.0841C97.2944 82.1 97.2887 82.1152 97.2792 82.1281C97.2697 82.1409 97.2567 82.1507 97.2418 82.1565C97.2269 82.1622 97.2106 82.1636 97.195 82.1604ZM101.97 72.5328C101.549 73.0785 101.165 73.6521 100.821 74.2498L88.6482 76.5494C89.9418 74.8113 91.4027 73.2042 93.0097 71.751C95.156 72.5251 97.4786 73.0081 101.993 72.5328H101.97ZM91.5533 44.5314C91.6223 44.4548 95.5699 39.2884 96.8194 39.2424C96.9497 39.2424 96.9727 39.2424 96.9267 39.4187C96.4974 40.329 95.9398 41.1731 95.271 41.9252C95.0257 42.2319 95.0104 42.2395 95.271 42.5768C95.7357 43.1487 96.1512 43.759 96.5128 44.4011C97.2026 45.7732 95.9225 45.1677 94.8187 43.9489C94.5734 43.6883 94.4201 44.1405 94.4661 44.2095C94.5121 44.2785 94.4661 44.2095 94.5274 44.2632C95.175 44.888 95.7253 45.6063 96.1602 46.3941C96.1602 46.4708 96.2138 46.5858 96.1602 46.6164C95.6466 46.8464 94.4125 45.4666 94.1059 45.0297L94.0599 44.9684C93.9372 44.8764 93.5846 44.9147 93.7762 45.229C94.1751 45.843 94.4366 46.5359 94.5428 47.2603C94.5428 47.6436 94.2132 47.5976 93.8529 47.4673C92.7798 47.0687 91.3617 45.7272 91.5533 44.5314ZM82.1096 56.9033C81.9076 56.9387 81.7147 57.0142 81.5424 57.1255C80.4427 57.7782 79.5989 58.787 79.1508 59.9847C77.8707 58.0071 79.7717 56.336 81.8874 55.2552C82.4728 54.6672 83.1061 54.1287 83.7807 53.6455C83.865 53.5995 84.1256 53.4615 84.164 53.5459C84.3709 54.0518 82.4469 56.4817 82.1096 56.9033ZM58.4775 16.6221L53.5871 19.9182C53.5871 19.6575 53.4414 14.1845 53.4261 13.5636C54.3689 14.1692 57.481 16.0855 58.4775 16.6221ZM39.9658 30.5116C39.7665 30.1973 39.7282 30.1207 40.0424 26.8323C40.763 26.7326 44.0054 26.3723 44.8869 26.8323C45.0249 27.5988 44.243 29.7144 46.6346 29.8984C48.1677 30.0057 49.5551 30.4043 50.3523 30.2357C51.3411 30.0134 51.1188 29.0629 50.9962 27.9361C50.8582 27.0239 50.6896 26.0734 51.4868 26.0044C52.2839 25.9354 55.925 25.6058 56.3849 26.3723C56.8448 27.1389 56.1319 29.6608 57.6727 29.6301C59.0294 29.6301 62.1185 30.4963 62.7777 29.1778C63.3603 28.0051 62.3178 26.0274 63.0154 25.8818C64.0272 25.6825 68.6494 25.5445 68.9407 26.449C69.1936 27.2155 69.3469 28.8559 68.8257 29.3925C68.3044 29.929 67.239 31.1632 67.0703 31.4161C66.9017 31.6691 66.6334 30.5116 66.6334 47.038C65.1003 47.0993 60.7464 47.1223 59.9033 47.038C59.5813 46.2178 60.4628 42.4388 60.1715 41.8716C59.7729 41.0591 57.5194 41.1051 57.504 41.7949C57.529 42.451 57.4723 43.1075 57.3354 43.7496C56.9981 43.7496 55.672 43.7496 55.4957 43.5886C55.4686 43.4597 55.4686 43.3266 55.4957 43.1977C55.4957 42.5001 55.741 41.5573 55.2351 41.5037C54.7292 41.45 53.1884 41.1281 52.6442 41.4423C52.3989 41.588 52.3606 41.8563 52.3529 42.2089C52.3834 42.7629 52.3834 43.3182 52.3529 43.8722C51.6705 43.952 50.9798 43.9235 50.3063 43.7879C50.107 43.6576 50.6206 41.1894 49.6241 41.1127C49.0609 40.9871 48.4833 40.9381 47.9071 40.9671C47.0639 41.1281 47.0639 41.8179 47.0792 42.6764C47.0792 44.0792 47.3322 46.2638 47.0792 46.808C46.5733 46.8464 43.8598 46.8617 41.8745 46.8617C41.8745 45.7426 42.0968 33.8307 42.0048 32.6886C41.9205 31.6384 40.4717 31.3318 39.9658 30.5116ZM41.8745 74.2038C38.5094 75.3383 19.3845 74.7558 16.579 73.3683C16.239 73.2459 15.9342 73.0422 15.691 72.775C15.4479 72.5078 15.2738 72.1852 15.1839 71.8353C14.8313 69.7273 18.0737 67.65 20.2123 67.1441C21.1488 66.8966 22.1449 67.0259 22.9871 67.5044C23.8164 67.9989 24.4847 68.7231 24.9111 69.5893C24.9256 69.6198 24.9498 69.6447 24.9798 69.66C25.0099 69.6754 25.0442 69.6804 25.0774 69.6743C25.1106 69.6682 25.1408 69.6513 25.1634 69.6262C25.186 69.6011 25.1997 69.5693 25.2024 69.5357C25.2024 69.4207 25.1028 66.9831 29.0351 65.1894C29.7657 64.7981 30.591 64.6181 31.4182 64.6696C32.2455 64.721 33.042 65.0019 33.7186 65.4807C34.2602 65.8494 34.6983 66.3509 34.991 66.9371C34.9821 66.9811 34.9877 67.0268 35.007 67.0673C35.0264 67.1079 35.0583 67.141 35.0981 67.1618C35.1379 67.1825 35.1834 67.1898 35.2277 67.1824C35.2719 67.1751 35.3126 67.1536 35.3436 67.1211C35.4586 66.9908 36.0642 63.7867 39.0766 63.1505C40.0215 63.0046 40.9864 63.0566 41.9101 63.3034C42.8338 63.5501 43.6961 63.9862 44.4423 64.5839C47.2938 66.7532 45.2549 73.077 41.8745 74.2038ZM45.8374 70.1949C46.558 67.9643 46.3663 65.4961 44.6953 64.2466C43.9044 63.6096 42.9896 63.1444 42.009 62.8804C41.0285 62.6165 40.0037 62.5597 39 62.7136C38.0927 62.9249 37.2586 63.3755 36.5846 64.0186C35.9105 64.6616 35.4211 65.4736 35.1673 66.3699C34.6272 65.521 33.8172 64.8785 32.8677 64.5456C33.4273 57.5318 32.8677 48.0268 32.8294 45.3823C32.8294 44.8611 32.8677 44.7154 32.6608 44.7001C31.1704 44.6678 29.6833 44.5475 28.2072 44.3398C27.3257 44.1252 27.709 40.2235 27.9849 39.388C28.1306 38.9358 29.6483 39.4264 29.9626 39.4723C30.1881 40.1931 30.251 40.955 30.1465 41.7029C30.0009 42.4695 31.9632 42.0556 32.5534 42.0556C33.274 42.0556 32.7681 40.3232 32.9827 39.6103C33.1207 39.1504 34.8914 39.4647 35.359 39.6103C35.5812 39.664 35.2593 41.2277 35.313 41.6033C35.3666 41.9789 35.5812 42.0249 35.9185 42.0786C36.4065 42.1209 36.8979 42.0582 37.3596 41.8946C37.9268 41.6416 37.4439 40.0856 37.7659 39.9169C38.1329 39.8146 38.5211 39.8155 38.8876 39.9196C39.2541 40.0238 39.5848 40.2271 39.8432 40.5072C40.2417 41.1817 39.6209 46.3251 39.5212 47.0993C39.5212 47.0993 39.5212 47.3063 39.7282 47.314C47.7537 47.3983 47.2785 47.314 47.3935 47.13C47.9147 46.5168 47.2632 42.3238 47.5621 41.6953C47.8611 41.0667 49.0032 41.519 49.5781 41.565C49.7391 41.565 49.7927 42.0939 49.8081 42.2472C49.923 43.6269 49.5474 44.1022 50.3676 44.3015C51.0408 44.3612 51.718 44.3612 52.3913 44.3015C53.1578 44.3628 52.5829 42.3085 52.8129 41.8333C52.8129 41.8333 52.9125 41.7796 52.9355 41.7796C53.6567 41.7241 54.3822 41.7731 55.0895 41.9252C55.1738 42.3392 54.8672 43.535 55.1968 43.8876C55.5264 44.2402 56.9291 44.1022 57.3584 44.1788C58.0406 44.3092 57.8796 42.4465 57.9409 41.8179C58.2383 41.6838 58.5665 41.6329 58.8905 41.6707C59.2145 41.7085 59.5221 41.8336 59.7806 42.0326C59.9569 42.3928 59.1521 46.3021 59.4817 47.1453C59.5037 47.2165 59.5445 47.2804 59.5998 47.3303C59.6551 47.3803 59.7229 47.4143 59.7959 47.4289C60.3785 47.5056 66.986 47.5209 67.9442 47.3523C68.0361 47.3523 68.1665 47.2833 68.1665 47.13C68.2431 42.9907 67.9288 40.1009 68.4424 39.8633C69.0439 39.736 69.6653 39.736 70.2668 39.8633C70.4584 39.8633 70.4124 40.9824 70.4201 41.243C70.4277 41.5037 70.4814 41.657 70.7343 41.7566C71.2372 41.8694 71.7523 41.9183 72.2674 41.9023C72.9879 41.9023 72.4974 40.7984 72.804 40.1699C73.0033 39.756 74.8966 40.0013 75.2185 40.1699C75.5405 40.3385 75.0269 41.3887 75.5328 41.657C76.0286 41.8099 76.5521 41.8518 77.0659 41.7796C77.3265 41.7796 77.4798 41.6953 77.5411 41.4653C77.6025 41.2354 77.5411 40.7831 77.6025 40.5378C77.6025 40.4305 77.6638 40.3998 77.9704 40.3232C78.4916 40.1929 79.4345 40.1546 79.4345 40.6911C79.4345 41.4577 79.5111 43.4046 79.4345 43.9336C78.7446 43.9949 76.0924 43.9872 76.0157 43.9949C75.8088 43.9949 75.8164 44.0485 75.8088 44.1865C75.5635 47.8352 74.5363 61.4641 74.0074 65.0975C73.737 65.2423 73.4442 65.3407 73.1412 65.3887C70.0751 66.048 63.0077 66.2243 59.8496 66.2473C60.2252 63.71 60.1486 60.2913 58.8378 58.0377C58.3534 57.1768 57.6284 56.476 56.7515 56.0212C55.8746 55.5664 54.884 55.3775 53.9013 55.4775C49.0569 55.6691 48.022 61.2571 48.5356 66.0633C46.7419 65.9866 46.7496 65.9483 46.7419 66.0633C46.7419 66.0857 46.7508 66.1071 46.7666 66.1229C46.7824 66.1387 46.8039 66.1476 46.8262 66.1476C54.5989 66.5692 61.26 66.5539 66.0662 66.3469C67.2543 66.2933 73.1413 66.0096 74.1301 65.3811C74.1765 65.3608 74.2171 65.3291 74.2479 65.2889C74.2788 65.2487 74.2989 65.2013 74.3064 65.1511C74.705 62.5066 75.3795 54.6343 75.8394 49.3223C77.1349 47.4443 78.9975 47.5899 80.7222 48.962C80.752 48.9768 80.7848 48.9846 80.818 48.9846C80.8513 48.9846 80.8841 48.9768 80.9139 48.962C81.0442 48.962 80.9139 48.9083 81.3125 48.755C82.5092 48.3228 83.7854 48.1554 85.0531 48.2645C85.4551 48.2831 85.8468 48.3971 86.196 48.597C86.5452 48.797 86.8418 49.0771 87.0614 49.4142C85.7047 51.1313 85.6357 51.2616 84.2789 53.0783C83.6427 52.7717 82.1863 54.2587 81.6421 54.8106C81.2871 54.9846 80.944 55.1818 80.6149 55.4009C77.3572 57.5548 78.484 59.6628 79.0435 60.207C79.0089 60.4459 79.0089 60.6886 79.0435 60.9275C77.2006 63.9985 75.6136 67.2161 74.2987 70.5475C74.2374 70.6165 70.2897 70.6471 45.8374 70.1949ZM60.2099 109.38C57.7263 109.096 54.2463 108.866 51.9007 107.579C51.7903 107.526 51.6893 107.457 51.6017 107.372C51.5327 107.303 51.5251 107.28 51.6017 107.218C52.3683 106.452 57.734 106.084 58.3012 105.9C58.8684 105.716 59.4587 104.673 59.727 104.252C60.0494 104.747 60.4742 105.167 60.9726 105.485C61.4711 105.802 62.0317 106.009 62.6168 106.092C62.2488 106.873 61.0301 109.48 60.1869 109.38H60.2099ZM52.6289 95.9427C52.7515 97.9203 52.0157 100.128 49.4248 102.259C43.7295 106.958 30.1849 106.521 22.8262 105.555C23.7077 98.7098 26.1989 88.3923 30.4915 82.8963C35.2746 76.7641 41.8821 75.7676 45.8221 78.2971C48.2367 79.8302 49.0645 83.3486 49.0415 86.1694C49.0514 86.3876 49.036 86.6063 48.9955 86.8209C45.7652 87.8293 42.6747 89.2406 39.7972 91.0215C34.6059 94.2164 29.9086 98.1519 25.854 102.703C25.8133 102.744 25.7905 102.799 25.7905 102.857C25.7905 102.914 25.8133 102.969 25.854 103.01C25.8946 103.051 25.9498 103.074 26.0073 103.074C26.0648 103.074 26.1199 103.051 26.1606 103.01C32.4308 96.8778 40.602 90.7456 49.3251 89.6418C49.854 90.1094 52.3913 92.7386 52.6059 95.9427H52.6289ZM63.184 92.4013C52.5752 85.5562 40.9546 90.1017 31.1047 98.0046C48.3286 82.4364 61.7659 85.0273 70.0905 89.8104C69.888 93 70.001 96.2017 70.4277 99.369C68.286 96.7705 65.8472 94.432 63.161 92.4013H63.184ZM83.5124 132.261C83.4051 133.38 83.7884 134.783 85.1451 136.454C86.0663 137.424 86.6496 138.666 86.8085 139.995C86.821 140.542 86.685 141.081 86.415 141.556C86.145 142.031 85.7512 142.424 85.2754 142.693C86.1799 140.148 83.8803 137.726 81.6421 136.186C80.9574 135.733 80.3913 135.124 79.9911 134.407C79.591 133.691 79.3685 132.889 79.3425 132.069C79.1968 129.77 80.4156 127.217 81.5884 125.301C82.814 126.65 84.2047 127.84 85.7277 128.842C85.1087 129.198 84.5831 129.695 84.1939 130.293C83.8048 130.892 83.5633 131.574 83.4894 132.284L83.5124 132.261ZM118.719 114.125C118.302 113.302 117.823 112.513 117.286 111.764C125.288 107.425 133.521 106.528 139.515 113.243C133.429 108.069 125.603 110.008 118.696 114.148L118.719 114.125ZM143.815 120.38C141.256 117.568 137.73 115.825 133.942 115.497C129.612 115.19 124.185 114.025 127.197 110.898C130.39 110.109 133.759 110.464 136.717 111.902C139.363 113.366 141.492 115.612 142.811 118.333C142.831 118.359 142.857 118.379 142.886 118.393C142.915 118.408 142.947 118.415 142.98 118.415C143.012 118.415 143.044 118.408 143.074 118.393C143.103 118.379 143.128 118.359 143.148 118.333C143.233 118.203 143.148 118.072 143.026 117.865C140.151 112.055 135.407 107.993 128.814 108.039C128.876 107.709 129.581 104.535 132.279 103.485C133.643 102.956 135.506 102.972 138.059 104.175C143.562 106.705 144.505 114.362 143.792 120.403L143.815 120.38Z" fill="black"/>
<path fill-rule="evenodd" clip-rule="evenodd" d="M114.258 40.967C114.498 41.1607 114.788 41.2829 115.094 41.3196C115.239 41.3196 115.201 41.1586 115.094 41.1816C114.885 41.0776 114.689 40.949 114.511 40.7983C114.511 40.7983 114.473 40.7523 114.511 40.714C114.588 40.5454 114.91 39.8785 115.094 39.4032C115.14 39.2959 115.278 38.9127 115.301 38.8667C115.324 38.8207 115.301 38.7134 115.209 38.7594C114.787 39.3267 114.449 39.9513 114.204 40.6144C114.175 40.6714 114.165 40.7361 114.175 40.7993C114.184 40.8625 114.213 40.9211 114.258 40.967ZM113.722 37.4486C114.017 37.4343 114.312 37.4812 114.588 37.5866C114.599 37.5976 114.613 37.6046 114.628 37.6066C114.644 37.6085 114.659 37.6053 114.672 37.5973C114.686 37.5893 114.696 37.5771 114.701 37.5627C114.707 37.5482 114.707 37.5324 114.703 37.5176C114.666 37.4182 114.604 37.3301 114.522 37.2619C114.441 37.1937 114.344 37.1477 114.24 37.1284C114.135 37.1091 114.028 37.1172 113.928 37.1518C113.827 37.1864 113.738 37.2464 113.668 37.326C113.591 37.3566 113.645 37.4869 113.722 37.4486ZM113.997 38.905C113.997 38.859 114.059 38.6904 114.074 38.6367C114.109 38.5504 114.114 38.4545 114.086 38.3654C114.059 38.2762 114.002 38.1991 113.925 38.1469C113.848 38.0948 113.755 38.0708 113.662 38.0791C113.569 38.0873 113.482 38.1272 113.415 38.1921C113.277 38.3224 113.3 38.4451 113.223 38.6444C113.188 38.7451 113.193 38.8556 113.237 38.9528C113.282 39.0499 113.362 39.1261 113.461 39.1656C113.567 39.2002 113.682 39.1924 113.782 39.1437C113.882 39.0951 113.959 39.0095 113.997 38.905ZM94.5123 44.2631C94.3436 44.355 94.405 44.332 94.5123 44.2631V44.2631ZM116.435 43.4275C116.374 43.3279 116.297 43.3202 115.224 43.2282C114.457 43.1593 113.63 43.1133 113.599 43.1133C113.568 43.1133 113.499 43.2282 113.484 43.3049C113.321 43.7277 113.319 44.1956 113.479 44.6196C113.639 45.0436 113.949 45.3941 114.35 45.6045C115.937 46.2637 116.573 43.1976 116.466 43.6038C116.477 43.5744 116.48 43.5425 116.474 43.5115C116.469 43.4805 116.455 43.4515 116.435 43.4275ZM114.503 45.2136C114.17 45.035 113.907 44.7498 113.756 44.4037C113.604 44.0576 113.573 43.6706 113.668 43.3049C114.542 43.4735 115.048 43.5732 115.967 43.7188C115.761 44.447 115.232 45.4972 114.503 45.2136ZM118.597 38.5064C118.351 38.3413 118.07 38.2362 117.776 38.1998C117.631 38.1846 117.485 38.1846 117.34 38.1998C117.255 38.1998 117.248 38.3301 117.34 38.3378C117.845 38.49 118.339 38.6769 118.819 38.8973C118.88 38.9587 118.972 38.8513 118.903 38.7977C118.814 38.6883 118.711 38.5904 118.597 38.5064ZM117.064 39.5796C116.933 39.7022 116.949 39.8325 116.88 40.0318C116.86 40.0805 116.85 40.1327 116.851 40.1852C116.852 40.2377 116.864 40.2895 116.886 40.3374C116.907 40.3854 116.938 40.4285 116.976 40.4642C117.015 40.4999 117.06 40.5275 117.11 40.5454C117.214 40.5824 117.329 40.5766 117.43 40.5292C117.53 40.4819 117.608 40.3968 117.646 40.2924C117.646 40.2388 117.707 40.0778 117.723 40.0165C117.766 39.9295 117.776 39.8298 117.75 39.7361C117.725 39.6424 117.667 39.5612 117.586 39.5075C117.505 39.4539 117.407 39.4317 117.311 39.4449C117.215 39.4582 117.127 39.5061 117.064 39.5796Z" fill="black"/>
</svg>
